{
  "track_name": "04 - No Time",
  "duration_sec": 53.932,
  "sample_rate": 44100,
  "note_count": 1728,
  "unique_pitches": 50,
  "pitch_range": 70,
  "avg_note_duration": 0.157,
  "reconstruction_stats": {
    "notes_reconstructed": 1728,
    "keyon_events": 1728,
    "keyoff_events": 1725,
    "orphan_keyons": 3,
    "unique_pitches": 50,
    "pitch_range": 70,
    "avg_duration_sec": 0.157
  },
  "metadata": {
    "source": "Z\\Zoom!\\04 - No Time.vgz"
  },
  "notes": [
    {
      "channel": 1,
      "note": 53,
      "start": 0.0,
      "duration": 0.0792,
      "velocity": 89,
      "chip": "ym2612"
    },
    {
      "channel": 3,
      "note": 77,
      "start": 0.0055,
      "duration": 0.0741,
      "velocity": 95,
      "chip": "ym2612"
    },
    {
      "channel": 2,
      "note": 34,
      "start": 0.0075,
      "duration": 0.1989,
      "velocity": 1,
      "chip": "ym2612"
    },
    {
      "channel": 1,
      "note": 52,
      "start": 0.1003,
      "duration": 0.07,
      "velocity": 89,
      "chip": "ym2612"
    },
    {
      "channel": 3,
      "note": 83,
      "start": 0.1009,
      "duration": 0.0697,
      "velocity": 95,
      "chip": "ym2612"
    },
    {
      "channel": 1,
      "note": 51,
      "start": 0.2059,
      "duration": 0.0705,
      "velocity": 89,
      "chip": "ym2612"
    },
    {
      "channel": 3,
      "note": 78,
      "start": 0.2085,
      "duration": 0.0681,
      "velocity": 95,
      "chip": "ym2612"
    },
    {
      "channel": 2,
      "note": 44,
      "start": 0.2099,
      "duration": 0.186,
      "velocity": 1,
      "chip": "ym2612"
    },
    {
      "channel": 1,
      "note": 50,
      "start": 0.2937,
      "duration": 0.0845,
      "velocity": 89,
      "chip": "ym2612"
    },
    {
      "channel": 3,
      "note": 84,
      "start": 0.2942,
      "duration": 0.0841,
      "velocity": 95,
      "chip": "ym2612"
    },
    {
      "channel": 3,
      "note": 79,
      "start": 0.398,
      "duration": 0.07,
      "velocity": 95,
      "chip": "ym2612"
    },
    {
      "channel": 2,
      "note": 34,
      "start": 0.3995,
      "duration": 0.0864,
      "velocity": 1,
      "chip": "ym2612"
    },
    {
      "channel": 3,
      "note": 85,
      "start": 0.488,
      "duration": 0.0876,
      "velocity": 95,
      "chip": "ym2612"
    },
    {
      "channel": 2,
      "note": 34,
      "start": 0.4894,
      "duration": 0.1043,
      "velocity": 1,
      "chip": "ym2612"
    },
    {
      "channel": 1,
      "note": 56,
      "start": 0.5932,
      "duration": 0.0708,
      "velocity": 89,
      "chip": "ym2612"
    },
    {
      "channel": 3,
      "note": 78,
      "start": 0.5959,
      "duration": 0.0684,
      "velocity": 95,
      "chip": "ym2612"
    },
    {
      "channel": 2,
      "note": 44,
      "start": 0.5973,
      "duration": 0.1865,
      "velocity": 1,
      "chip": "ym2612"
    },
    {
      "channel": 1,
      "note": 55,
      "start": 0.6812,
      "duration": 0.0847,
      "velocity": 89,
      "chip": "ym2612"
    },
    {
      "channel": 3,
      "note": 84,
      "start": 0.6818,
      "duration": 0.0844,
      "velocity": 95,
      "chip": "ym2612"
    },
    {
      "channel": 1,
      "note": 54,
      "start": 0.7832,
      "duration": 0.0725,
      "velocity": 89,
      "chip": "ym2612"
    },
    {
      "channel": 3,
      "note": 77,
      "start": 0.7859,
      "duration": 0.07,
      "velocity": 95,
      "chip": "ym2612"
    },
    {
      "channel": 2,
      "note": 34,
      "start": 0.7874,
      "duration": 0.0867,
      "velocity": 1,
      "chip": "ym2612"
    },
    {
      "channel": 1,
      "note": 53,
      "start": 0.8736,
      "duration": 0.0901,
      "velocity": 89,
      "chip": "ym2612"
    },
    {
      "channel": 3,
      "note": 83,
      "start": 0.8763,
      "duration": 0.0877,
      "velocity": 95,
      "chip": "ym2612"
    },
    {
      "channel": 2,
      "note": 34,
      "start": 0.8777,
      "duration": 0.1044,
      "velocity": 1,
      "chip": "ym2612"
    },
    {
      "channel": 3,
      "note": 78,
      "start": 0.9843,
      "duration": 0.0681,
      "velocity": 95,
      "chip": "ym2612"
    },
    {
      "channel": 2,
      "note": 44,
      "start": 0.9856,
      "duration": 0.1009,
      "velocity": 1,
      "chip": "ym2612"
    },
    {
      "channel": 3,
      "note": 84,
      "start": 1.0887,
      "duration": 0.0701,
      "velocity": 95,
      "chip": "ym2612"
    },
    {
      "channel": 2,
      "note": 34,
      "start": 1.0901,
      "duration": 0.1923,
      "velocity": 1,
      "chip": "ym2612"
    },
    {
      "channel": 1,
      "note": 60,
      "start": 1.1763,
      "duration": 0.0877,
      "velocity": 89,
      "chip": "ym2612"
    },
    {
      "channel": 3,
      "note": 79,
      "start": 1.1769,
      "duration": 0.0873,
      "velocity": 95,
      "chip": "ym2612"
    },
    {
      "channel": 1,
      "note": 59,
      "start": 1.2819,
      "duration": 0.0725,
      "velocity": 89,
      "chip": "ym2612"
    },
    {
      "channel": 3,
      "note": 85,
      "start": 1.2846,
      "duration": 0.07,
      "velocity": 95,
      "chip": "ym2612"
    },
    {
      "channel": 2,
      "note": 34,
      "start": 1.2861,
      "duration": 0.0867,
      "velocity": 1,
      "chip": "ym2612"
    },
    {
      "channel": 1,
      "note": 58,
      "start": 1.3723,
      "duration": 0.0875,
      "velocity": 89,
      "chip": "ym2612"
    },
    {
      "channel": 3,
      "note": 78,
      "start": 1.3749,
      "duration": 0.085,
      "velocity": 95,
      "chip": "ym2612"
    },
    {
      "channel": 2,
      "note": 44,
      "start": 1.3763,
      "duration": 0.1013,
      "velocity": 1,
      "chip": "ym2612"
    },
    {
      "channel": 1,
      "note": 56,
      "start": 1.477,
      "duration": 0.0728,
      "velocity": 89,
      "chip": "ym2612"
    },
    {
      "channel": 3,
      "note": 84,
      "start": 1.4797,
      "duration": 0.0703,
      "velocity": 95,
      "chip": "ym2612"
    },
    {
      "channel": 2,
      "note": 34,
      "start": 1.4812,
      "duration": 0.0901,
      "velocity": 1,
      "chip": "ym2612"
    },
    {
      "channel": 1,
      "note": 53,
      "start": 1.5707,
      "duration": 0.0937,
      "velocity": 89,
      "chip": "ym2612"
    },
    {
      "channel": 3,
      "note": 77,
      "start": 1.5764,
      "duration": 0.0882,
      "velocity": 95,
      "chip": "ym2612"
    },
    {
      "channel": 2,
      "note": 34,
      "start": 1.5779,
      "duration": 0.1931,
      "velocity": 1,
      "chip": "ym2612"
    },
    {
      "channel": 1,
      "note": 52,
      "start": 1.6825,
      "duration": 0.07,
      "velocity": 89,
      "chip": "ym2612"
    },
    {
      "channel": 3,
      "note": 83,
      "start": 1.6831,
      "duration": 0.0697,
      "velocity": 95,
      "chip": "ym2612"
    },
    {
      "channel": 1,
      "note": 51,
      "start": 1.7704,
      "duration": 0.0875,
      "velocity": 89,
      "chip": "ym2612"
    },
    {
      "channel": 3,
      "note": 78,
      "start": 1.7731,
      "duration": 0.0851,
      "velocity": 95,
      "chip": "ym2612"
    },
    {
      "channel": 2,
      "note": 44,
      "start": 1.7744,
      "duration": 0.2031,
      "velocity": 1,
      "chip": "ym2612"
    },
    {
      "channel": 1,
      "note": 50,
      "start": 1.8751,
      "duration": 0.0676,
      "velocity": 89,
      "chip": "ym2612"
    },
    {
      "channel": 3,
      "note": 84,
      "start": 1.8757,
      "duration": 0.0673,
      "velocity": 95,
      "chip": "ym2612"
    },
    {
      "channel": 3,
      "note": 79,
      "start": 1.9796,
      "duration": 0.0702,
      "velocity": 95,
      "chip": "ym2612"
    },
    {
      "channel": 2,
      "note": 34,
      "start": 1.9811,
      "duration": 0.0864,
      "velocity": 1,
      "chip": "ym2612"
    },
    {
      "channel": 3,
      "note": 85,
      "start": 2.0697,
      "duration": 0.0876,
      "velocity": 95,
      "chip": "ym2612"
    },
    {
      "channel": 2,
      "note": 34,
      "start": 2.0712,
      "duration": 0.1043,
      "velocity": 1,
      "chip": "ym2612"
    },
    {
      "channel": 1,
      "note": 56,
      "start": 2.1749,
      "duration": 0.0707,
      "velocity": 89,
      "chip": "ym2612"
    },
    {
      "channel": 3,
      "note": 78,
      "start": 2.1776,
      "duration": 0.0682,
      "velocity": 95,
      "chip": "ym2612"
    },
    {
      "channel": 2,
      "note": 44,
      "start": 2.1789,
      "duration": 0.1865,
      "velocity": 1,
      "chip": "ym2612"
    },
    {
      "channel": 1,
      "note": 55,
      "start": 2.2629,
      "duration": 0.0847,
      "velocity": 89,
      "chip": "ym2612"
    },
    {
      "channel": 3,
      "note": 84,
      "start": 2.2634,
      "duration": 0.0844,
      "velocity": 95,
      "chip": "ym2612"
    },
    {
      "channel": 1,
      "note": 54,
      "start": 2.3648,
      "duration": 0.0725,
      "velocity": 89,
      "chip": "ym2612"
    },
    {
      "channel": 3,
      "note": 77,
      "start": 2.3675,
      "duration": 0.0701,
      "velocity": 95,
      "chip": "ym2612"
    },
    {
      "channel": 2,
      "note": 34,
      "start": 2.369,
      "duration": 0.0868,
      "velocity": 1,
      "chip": "ym2612"
    },
    {
      "channel": 1,
      "note": 53,
      "start": 2.4552,
      "duration": 0.09,
      "velocity": 89,
      "chip": "ym2612"
    },
    {
      "channel": 3,
      "note": 83,
      "start": 2.458,
      "duration": 0.0875,
      "velocity": 95,
      "chip": "ym2612"
    },
    {
      "channel": 2,
      "note": 34,
      "start": 2.4594,
      "duration": 0.1042,
      "velocity": 1,
      "chip": "ym2612"
    },
    {
      "channel": 3,
      "note": 78,
      "start": 2.5658,
      "duration": 0.0681,
      "velocity": 95,
      "chip": "ym2612"
    },
    {
      "channel": 2,
      "note": 44,
      "start": 2.5671,
      "duration": 0.084,
      "velocity": 1,
      "chip": "ym2612"
    },
    {
      "channel": 3,
      "note": 84,
      "start": 2.6532,
      "duration": 0.0876,
      "velocity": 95,
      "chip": "ym2612"
    },
    {
      "channel": 2,
      "note": 34,
      "start": 2.6546,
      "duration": 0.1923,
      "velocity": 117,
      "chip": "ym2612"
    },
    {
      "channel": 1,
      "note": 60,
      "start": 2.7584,
      "duration": 0.07,
      "velocity": 89,
      "chip": "ym2612"
    },
    {
      "channel": 3,
      "note": 79,
      "start": 2.759,
      "duration": 0.0697,
      "velocity": 95,
      "chip": "ym2612"
    },
    {
      "channel": 1,
      "note": 59,
      "start": 2.8641,
      "duration": 0.0724,
      "velocity": 89,
      "chip": "ym2612"
    },
    {
      "channel": 3,
      "note": 85,
      "start": 2.8668,
      "duration": 0.07,
      "velocity": 95,
      "chip": "ym2612"
    },
    {
      "channel": 2,
      "note": 34,
      "start": 2.8683,
      "duration": 0.0867,
      "velocity": 1,
      "chip": "ym2612"
    },
    {
      "channel": 1,
      "note": 58,
      "start": 2.9544,
      "duration": 0.0876,
      "velocity": 89,
      "chip": "ym2612"
    },
    {
      "channel": 3,
      "note": 78,
      "start": 2.9571,
      "duration": 0.0851,
      "velocity": 95,
      "chip": "ym2612"
    },
    {
      "channel": 2,
      "note": 44,
      "start": 2.9585,
      "duration": 0.1013,
      "velocity": 1,
      "chip": "ym2612"
    },
    {
      "channel": 1,
      "note": 56,
      "start": 3.0592,
      "duration": 0.0727,
      "velocity": 89,
      "chip": "ym2612"
    },
    {
      "channel": 3,
      "note": 84,
      "start": 3.0619,
      "duration": 0.0703,
      "velocity": 95,
      "chip": "ym2612"
    },
    {
      "channel": 2,
      "note": 34,
      "start": 3.0634,
      "duration": 0.0902,
      "velocity": 1,
      "chip": "ym2612"
    },
    {
      "channel": 0,
      "note": 77,
      "start": 3.1495,
      "duration": 0.0967,
      "velocity": 97,
      "chip": "ym2612"
    },
    {
      "channel": 1,
      "note": 53,
      "start": 3.153,
      "duration": 0.0937,
      "velocity": 89,
      "chip": "ym2612"
    },
    {
      "channel": 3,
      "note": 77,
      "start": 3.1587,
      "duration": 0.0883,
      "velocity": 95,
      "chip": "ym2612"
    },
    {
      "channel": 2,
      "note": 34,
      "start": 3.1602,
      "duration": 0.1946,
      "velocity": 1,
      "chip": "ym2612"
    },
    {
      "channel": 4,
      "note": 77,
      "start": 3.1945,
      "duration": 0.0889,
      "velocity": 97,
      "chip": "ym2612"
    },
    {
      "channel": 5,
      "note": 77,
      "start": 3.2476,
      "duration": 0.0711,
      "velocity": 97,
      "chip": "ym2612"
    },
    {
      "channel": 0,
      "note": 82,
      "start": 3.2647,
      "duration": 0.0707,
      "velocity": 97,
      "chip": "ym2612"
    },
    {
      "channel": 1,
      "note": 52,
      "start": 3.2652,
      "duration": 0.0706,
      "velocity": 89,
      "chip": "ym2612"
    },
    {
      "channel": 3,
      "note": 83,
      "start": 3.2658,
      "duration": 0.0703,
      "velocity": 95,
      "chip": "ym2612"
    },
    {
      "channel": 4,
      "note": 82,
      "start": 3.3012,
      "duration": 0.0737,
      "velocity": 97,
      "chip": "ym2612"
    },
    {
      "channel": 5,
      "note": 82,
      "start": 3.3367,
      "duration": 0.0892,
      "velocity": 97,
      "chip": "ym2612"
    },
    {
      "channel": 0,
      "note": 86,
      "start": 3.3538,
      "duration": 0.0882,
      "velocity": 97,
      "chip": "ym2612"
    },
    {
      "channel": 1,
      "note": 51,
      "start": 3.3543,
      "duration": 0.0881,
      "velocity": 89,
      "chip": "ym2612"
    },
    {
      "channel": 3,
      "note": 78,
      "start": 3.3569,
      "duration": 0.0857,
      "velocity": 95,
      "chip": "ym2612"
    },
    {
      "channel": 2,
      "note": 44,
      "start": 3.3583,
      "duration": 0.1884,
      "velocity": 1,
      "chip": "ym2612"
    },
    {
      "channel": 4,
      "note": 86,
      "start": 3.4089,
      "duration": 0.0688,
      "velocity": 97,
      "chip": "ym2612"
    },
    {
      "channel": 5,
      "note": 86,
      "start": 3.4433,
      "duration": 0.0686,
      "velocity": 97,
      "chip": "ym2612"
    },
    {
      "channel": 0,
      "note": 89,
      "start": 3.4597,
      "duration": 0.0682,
      "velocity": 97,
      "chip": "ym2612"
    },
    {
      "channel": 1,
      "note": 50,
      "start": 3.4602,
      "duration": 0.0681,
      "velocity": 89,
      "chip": "ym2612"
    },
    {
      "channel": 3,
      "note": 84,
      "start": 3.4607,
      "duration": 0.0679,
      "velocity": 95,
      "chip": "ym2612"
    },
    {
      "channel": 4,
      "note": 89,
      "start": 3.4949,
      "duration": 0.0894,
      "velocity": 97,
      "chip": "ym2612"
    },
    {
      "channel": 5,
      "note": 89,
      "start": 3.5293,
      "duration": 0.0905,
      "velocity": 97,
      "chip": "ym2612"
    },
    {
      "channel": 0,
      "note": 90,
      "start": 3.5457,
      "duration": 1.1734,
      "velocity": 97,
      "chip": "ym2612"
    },
    {
      "channel": 3,
      "note": 79,
      "start": 3.5489,
      "duration": 0.088,
      "velocity": 95,
      "chip": "ym2612"
    },
    {
      "channel": 2,
      "note": 34,
      "start": 3.5503,
      "duration": 0.1048,
      "velocity": 1,
      "chip": "ym2612"
    },
    {
      "channel": 4,
      "note": 90,
      "start": 3.6021,
      "duration": 1.1622,
      "velocity": 97,
      "chip": "ym2612"
    },
    {
      "channel": 5,
      "note": 90,
      "start": 3.6375,
      "duration": 1.1622,
      "velocity": 97,
      "chip": "ym2612"
    },
    {
      "channel": 3,
      "note": 85,
      "start": 3.6572,
      "duration": 0.0701,
      "velocity": 95,
      "chip": "ym2612"
    },
    {
      "channel": 2,
      "note": 34,
      "start": 3.6587,
      "duration": 0.1045,
      "velocity": 1,
      "chip": "ym2612"
    },
    {
      "channel": 1,
      "note": 56,
      "start": 3.7626,
      "duration": 0.0707,
      "velocity": 89,
      "chip": "ym2612"
    },
    {
      "channel": 3,
      "note": 78,
      "start": 3.7653,
      "duration": 0.0682,
      "velocity": 95,
      "chip": "ym2612"
    },
    {
      "channel": 2,
      "note": 44,
      "start": 3.7667,
      "duration": 0.1861,
      "velocity": 1,
      "chip": "ym2612"
    },
    {
      "channel": 1,
      "note": 55,
      "start": 3.8505,
      "duration": 0.0845,
      "velocity": 89,
      "chip": "ym2612"
    },
    {
      "channel": 3,
      "note": 84,
      "start": 3.8511,
      "duration": 0.0841,
      "velocity": 95,
      "chip": "ym2612"
    },
    {
      "channel": 1,
      "note": 54,
      "start": 3.9522,
      "duration": 0.0725,
      "velocity": 89,
      "chip": "ym2612"
    },
    {
      "channel": 3,
      "note": 77,
      "start": 3.955,
      "duration": 0.07,
      "velocity": 95,
      "chip": "ym2612"
    },
    {
      "channel": 2,
      "note": 34,
      "start": 3.9564,
      "duration": 0.0867,
      "velocity": 1,
      "chip": "ym2612"
    },
    {
      "channel": 1,
      "note": 53,
      "start": 4.0426,
      "duration": 0.0902,
      "velocity": 89,
      "chip": "ym2612"
    },
    {
      "channel": 3,
      "note": 83,
      "start": 4.0453,
      "duration": 0.0878,
      "velocity": 95,
      "chip": "ym2612"
    },
    {
      "channel": 2,
      "note": 34,
      "start": 4.0468,
      "duration": 0.1044,
      "velocity": 1,
      "chip": "ym2612"
    },
    {
      "channel": 3,
      "note": 78,
      "start": 4.1533,
      "duration": 0.0681,
      "velocity": 95,
      "chip": "ym2612"
    },
    {
      "channel": 2,
      "note": 44,
      "start": 4.1546,
      "duration": 0.0839,
      "velocity": 1,
      "chip": "ym2612"
    },
    {
      "channel": 3,
      "note": 84,
      "start": 4.2407,
      "duration": 0.0876,
      "velocity": 95,
      "chip": "ym2612"
    },
    {
      "channel": 2,
      "note": 34,
      "start": 4.2422,
      "duration": 0.1924,
      "velocity": 1,
      "chip": "ym2612"
    },
    {
      "channel": 1,
      "note": 60,
      "start": 4.3459,
      "duration": 0.0702,
      "velocity": 89,
      "chip": "ym2612"
    },
    {
      "channel": 3,
      "note": 79,
      "start": 4.3466,
      "duration": 0.0698,
      "velocity": 95,
      "chip": "ym2612"
    },
    {
      "channel": 1,
      "note": 59,
      "start": 4.434,
      "duration": 0.09,
      "velocity": 89,
      "chip": "ym2612"
    },
    {
      "channel": 3,
      "note": 85,
      "start": 4.4367,
      "duration": 0.0875,
      "velocity": 95,
      "chip": "ym2612"
    },
    {
      "channel": 2,
      "note": 34,
      "start": 4.4382,
      "duration": 0.1042,
      "velocity": 1,
      "chip": "ym2612"
    },
    {
      "channel": 1,
      "note": 58,
      "start": 4.5419,
      "duration": 0.0707,
      "velocity": 89,
      "chip": "ym2612"
    },
    {
      "channel": 3,
      "note": 78,
      "start": 4.5445,
      "duration": 0.0684,
      "velocity": 95,
      "chip": "ym2612"
    },
    {
      "channel": 2,
      "note": 44,
      "start": 4.5459,
      "duration": 0.1017,
      "velocity": 1,
      "chip": "ym2612"
    },
    {
      "channel": 1,
      "note": 56,
      "start": 4.6469,
      "duration": 0.0726,
      "velocity": 89,
      "chip": "ym2612"
    },
    {
      "channel": 3,
      "note": 84,
      "start": 4.6497,
      "duration": 0.0701,
      "velocity": 95,
      "chip": "ym2612"
    },
    {
      "channel": 2,
      "note": 34,
      "start": 4.6512,
      "duration": 0.09,
      "velocity": 1,
      "chip": "ym2612"
    },
    {
      "channel": 0,
      "note": 89,
      "start": 4.7371,
      "duration": 0.5726,
      "velocity": 97,
      "chip": "ym2612"
    },
    {
      "channel": 1,
      "note": 53,
      "start": 4.7406,
      "duration": 0.0938,
      "velocity": 89,
      "chip": "ym2612"
    },
    {
      "channel": 3,
      "note": 77,
      "start": 4.7463,
      "duration": 0.0883,
      "velocity": 95,
      "chip": "ym2612"
    },
    {
      "channel": 2,
      "note": 34,
      "start": 4.7478,
      "duration": 0.1932,
      "velocity": 1,
      "chip": "ym2612"
    },
    {
      "channel": 4,
      "note": 89,
      "start": 4.7821,
      "duration": 0.5837,
      "velocity": 97,
      "chip": "ym2612"
    },
    {
      "channel": 5,
      "note": 89,
      "start": 4.8352,
      "duration": 0.5648,
      "velocity": 97,
      "chip": "ym2612"
    },
    {
      "channel": 1,
      "note": 52,
      "start": 4.8526,
      "duration": 0.07,
      "velocity": 89,
      "chip": "ym2612"
    },
    {
      "channel": 3,
      "note": 83,
      "start": 4.8532,
      "duration": 0.0697,
      "velocity": 95,
      "chip": "ym2612"
    },
    {
      "channel": 1,
      "note": 51,
      "start": 4.9405,
      "duration": 0.0875,
      "velocity": 89,
      "chip": "ym2612"
    },
    {
      "channel": 3,
      "note": 78,
      "start": 4.9431,
      "duration": 0.0851,
      "velocity": 95,
      "chip": "ym2612"
    },
    {
      "channel": 2,
      "note": 44,
      "start": 4.9445,
      "duration": 0.1862,
      "velocity": 1,
      "chip": "ym2612"
    },
    {
      "channel": 1,
      "note": 50,
      "start": 5.0452,
      "duration": 0.0677,
      "velocity": 89,
      "chip": "ym2612"
    },
    {
      "channel": 3,
      "note": 84,
      "start": 5.0458,
      "duration": 0.0674,
      "velocity": 95,
      "chip": "ym2612"
    },
    {
      "channel": 3,
      "note": 79,
      "start": 5.1329,
      "duration": 0.0875,
      "velocity": 95,
      "chip": "ym2612"
    },
    {
      "channel": 2,
      "note": 34,
      "start": 5.1344,
      "duration": 0.1037,
      "velocity": 1,
      "chip": "ym2612"
    },
    {
      "channel": 3,
      "note": 85,
      "start": 5.2403,
      "duration": 0.0702,
      "velocity": 95,
      "chip": "ym2612"
    },
    {
      "channel": 2,
      "note": 34,
      "start": 5.2417,
      "duration": 0.0872,
      "velocity": 1,
      "chip": "ym2612"
    },
    {
      "channel": 0,
      "note": 88,
      "start": 5.3278,
      "duration": 0.5837,
      "velocity": 97,
      "chip": "ym2612"
    },
    {
      "channel": 1,
      "note": 56,
      "start": 5.3283,
      "duration": 0.0882,
      "velocity": 89,
      "chip": "ym2612"
    },
    {
      "channel": 3,
      "note": 78,
      "start": 5.331,
      "duration": 0.0857,
      "velocity": 95,
      "chip": "ym2612"
    },
    {
      "channel": 2,
      "note": 44,
      "start": 5.3324,
      "duration": 0.2042,
      "velocity": 1,
      "chip": "ym2612"
    },
    {
      "channel": 4,
      "note": 88,
      "start": 5.3831,
      "duration": 0.5652,
      "velocity": 97,
      "chip": "ym2612"
    },
    {
      "channel": 5,
      "note": 88,
      "start": 5.4174,
      "duration": 0.5663,
      "velocity": 97,
      "chip": "ym2612"
    },
    {
      "channel": 1,
      "note": 55,
      "start": 5.4341,
      "duration": 0.0676,
      "velocity": 89,
      "chip": "ym2612"
    },
    {
      "channel": 3,
      "note": 84,
      "start": 5.4347,
      "duration": 0.0673,
      "velocity": 95,
      "chip": "ym2612"
    },
    {
      "channel": 1,
      "note": 54,
      "start": 5.536,
      "duration": 0.0725,
      "velocity": 89,
      "chip": "ym2612"
    },
    {
      "channel": 3,
      "note": 77,
      "start": 5.5387,
      "duration": 0.0701,
      "velocity": 95,
      "chip": "ym2612"
    },
    {
      "channel": 2,
      "note": 34,
      "start": 5.5402,
      "duration": 0.0868,
      "velocity": 1,
      "chip": "ym2612"
    },
    {
      "channel": 1,
      "note": 53,
      "start": 5.6264,
      "duration": 0.0902,
      "velocity": 89,
      "chip": "ym2612"
    },
    {
      "channel": 3,
      "note": 83,
      "start": 5.6291,
      "duration": 0.0878,
      "velocity": 95,
      "chip": "ym2612"
    },
    {
      "channel": 2,
      "note": 34,
      "start": 5.6306,
      "duration": 0.1043,
      "velocity": 1,
      "chip": "ym2612"
    },
    {
      "channel": 3,
      "note": 78,
      "start": 5.7371,
      "duration": 0.068,
      "velocity": 95,
      "chip": "ym2612"
    },
    {
      "channel": 2,
      "note": 44,
      "start": 5.7384,
      "duration": 0.0839,
      "velocity": 1,
      "chip": "ym2612"
    },
    {
      "channel": 3,
      "note": 84,
      "start": 5.8245,
      "duration": 0.0877,
      "velocity": 95,
      "chip": "ym2612"
    },
    {
      "channel": 2,
      "note": 34,
      "start": 5.826,
      "duration": 0.1935,
      "velocity": 1,
      "chip": "ym2612"
    },
    {
      "channel": 0,
      "note": 85,
      "start": 5.9296,
      "duration": 0.375,
      "velocity": 97,
      "chip": "ym2612"
    },
    {
      "channel": 1,
      "note": 60,
      "start": 5.9301,
      "duration": 0.0706,
      "velocity": 89,
      "chip": "ym2612"
    },
    {
      "channel": 3,
      "note": 79,
      "start": 5.9307,
      "duration": 0.0703,
      "velocity": 95,
      "chip": "ym2612"
    },
    {
      "channel": 4,
      "note": 85,
      "start": 5.9661,
      "duration": 0.3837,
      "velocity": 97,
      "chip": "ym2612"
    },
    {
      "channel": 5,
      "note": 85,
      "start": 6.0016,
      "duration": 0.3836,
      "velocity": 97,
      "chip": "ym2612"
    },
    {
      "channel": 1,
      "note": 59,
      "start": 6.019,
      "duration": 0.09,
      "velocity": 89,
      "chip": "ym2612"
    },
    {
      "channel": 3,
      "note": 85,
      "start": 6.0216,
      "duration": 0.0877,
      "velocity": 95,
      "chip": "ym2612"
    },
    {
      "channel": 2,
      "note": 34,
      "start": 6.0231,
      "duration": 0.1043,
      "velocity": 1,
      "chip": "ym2612"
    },
    {
      "channel": 1,
      "note": 58,
      "start": 6.1268,
      "duration": 0.0708,
      "velocity": 89,
      "chip": "ym2612"
    },
    {
      "channel": 3,
      "note": 78,
      "start": 6.1296,
      "duration": 0.0683,
      "velocity": 95,
      "chip": "ym2612"
    },
    {
      "channel": 2,
      "note": 44,
      "start": 6.1309,
      "duration": 0.0846,
      "velocity": 1,
      "chip": "ym2612"
    },
    {
      "channel": 1,
      "note": 56,
      "start": 6.2149,
      "duration": 0.0902,
      "velocity": 89,
      "chip": "ym2612"
    },
    {
      "channel": 3,
      "note": 84,
      "start": 6.2176,
      "duration": 0.0877,
      "velocity": 95,
      "chip": "ym2612"
    },
    {
      "channel": 2,
      "note": 34,
      "start": 6.2191,
      "duration": 0.1076,
      "velocity": 1,
      "chip": "ym2612"
    },
    {
      "channel": 0,
      "note": 77,
      "start": 6.3226,
      "duration": 0.0793,
      "velocity": 97,
      "chip": "ym2612"
    },
    {
      "channel": 1,
      "note": 53,
      "start": 6.3261,
      "duration": 0.0762,
      "velocity": 89,
      "chip": "ym2612"
    },
    {
      "channel": 3,
      "note": 77,
      "start": 6.3318,
      "duration": 0.0707,
      "velocity": 95,
      "chip": "ym2612"
    },
    {
      "channel": 2,
      "note": 34,
      "start": 6.3333,
      "duration": 0.1948,
      "velocity": 1,
      "chip": "ym2612"
    },
    {
      "channel": 4,
      "note": 77,
      "start": 6.3676,
      "duration": 0.0889,
      "velocity": 97,
      "chip": "ym2612"
    },
    {
      "channel": 5,
      "note": 77,
      "start": 6.4032,
      "duration": 0.0888,
      "velocity": 97,
      "chip": "ym2612"
    },
    {
      "channel": 0,
      "note": 82,
      "start": 6.4379,
      "duration": 0.0707,
      "velocity": 97,
      "chip": "ym2612"
    },
    {
      "channel": 1,
      "note": 52,
      "start": 6.4384,
      "duration": 0.0706,
      "velocity": 89,
      "chip": "ym2612"
    },
    {
      "channel": 3,
      "note": 83,
      "start": 6.439,
      "duration": 0.0703,
      "velocity": 95,
      "chip": "ym2612"
    },
    {
      "channel": 4,
      "note": 82,
      "start": 6.4744,
      "duration": 0.0737,
      "velocity": 97,
      "chip": "ym2612"
    },
    {
      "channel": 5,
      "note": 82,
      "start": 6.5099,
      "duration": 0.0724,
      "velocity": 97,
      "chip": "ym2612"
    },
    {
      "channel": 0,
      "note": 86,
      "start": 6.527,
      "duration": 0.0883,
      "velocity": 97,
      "chip": "ym2612"
    },
    {
      "channel": 1,
      "note": 51,
      "start": 6.5275,
      "duration": 0.0883,
      "velocity": 89,
      "chip": "ym2612"
    },
    {
      "channel": 3,
      "note": 78,
      "start": 6.5302,
      "duration": 0.0858,
      "velocity": 95,
      "chip": "ym2612"
    },
    {
      "channel": 2,
      "note": 44,
      "start": 6.5315,
      "duration": 0.1886,
      "velocity": 1,
      "chip": "ym2612"
    },
    {
      "channel": 4,
      "note": 86,
      "start": 6.5653,
      "duration": 0.0859,
      "velocity": 97,
      "chip": "ym2612"
    },
    {
      "channel": 5,
      "note": 86,
      "start": 6.6167,
      "duration": 0.0686,
      "velocity": 97,
      "chip": "ym2612"
    },
    {
      "channel": 0,
      "note": 89,
      "start": 6.6332,
      "duration": 0.0682,
      "velocity": 97,
      "chip": "ym2612"
    },
    {
      "channel": 1,
      "note": 50,
      "start": 6.6337,
      "duration": 0.0681,
      "velocity": 89,
      "chip": "ym2612"
    },
    {
      "channel": 3,
      "note": 84,
      "start": 6.6342,
      "duration": 0.0678,
      "velocity": 95,
      "chip": "ym2612"
    },
    {
      "channel": 4,
      "note": 89,
      "start": 6.6683,
      "duration": 0.0719,
      "velocity": 97,
      "chip": "ym2612"
    },
    {
      "channel": 5,
      "note": 89,
      "start": 6.7027,
      "duration": 0.0904,
      "velocity": 97,
      "chip": "ym2612"
    },
    {
      "channel": 0,
      "note": 90,
      "start": 6.7191,
      "duration": 1.1737,
      "velocity": 97,
      "chip": "ym2612"
    },
    {
      "channel": 3,
      "note": 79,
      "start": 6.7223,
      "duration": 0.088,
      "velocity": 95,
      "chip": "ym2612"
    },
    {
      "channel": 2,
      "note": 34,
      "start": 6.7237,
      "duration": 0.1047,
      "velocity": 1,
      "chip": "ym2612"
    },
    {
      "channel": 4,
      "note": 90,
      "start": 6.758,
      "duration": 1.1801,
      "velocity": 97,
      "chip": "ym2612"
    },
    {
      "channel": 5,
      "note": 90,
      "start": 6.8109,
      "duration": 1.1625,
      "velocity": 97,
      "chip": "ym2612"
    },
    {
      "channel": 3,
      "note": 85,
      "start": 6.8306,
      "duration": 0.0702,
      "velocity": 95,
      "chip": "ym2612"
    },
    {
      "channel": 2,
      "note": 34,
      "start": 6.8321,
      "duration": 0.0869,
      "velocity": 1,
      "chip": "ym2612"
    },
    {
      "channel": 1,
      "note": 56,
      "start": 6.9184,
      "duration": 0.0875,
      "velocity": 89,
      "chip": "ym2612"
    },
    {
      "channel": 3,
      "note": 78,
      "start": 6.9211,
      "duration": 0.085,
      "velocity": 95,
      "chip": "ym2612"
    },
    {
      "channel": 2,
      "note": 44,
      "start": 6.9224,
      "duration": 0.186,
      "velocity": 1,
      "chip": "ym2612"
    },
    {
      "channel": 1,
      "note": 55,
      "start": 7.0231,
      "duration": 0.0676,
      "velocity": 89,
      "chip": "ym2612"
    },
    {
      "channel": 3,
      "note": 84,
      "start": 7.0237,
      "duration": 0.0673,
      "velocity": 95,
      "chip": "ym2612"
    },
    {
      "channel": 1,
      "note": 54,
      "start": 7.108,
      "duration": 0.0902,
      "velocity": 89,
      "chip": "ym2612"
    },
    {
      "channel": 3,
      "note": 77,
      "start": 7.1106,
      "duration": 0.0878,
      "velocity": 95,
      "chip": "ym2612"
    },
    {
      "channel": 2,
      "note": 34,
      "start": 7.1121,
      "duration": 0.1045,
      "velocity": 1,
      "chip": "ym2612"
    },
    {
      "channel": 1,
      "note": 53,
      "start": 7.216,
      "duration": 0.0726,
      "velocity": 89,
      "chip": "ym2612"
    },
    {
      "channel": 3,
      "note": 83,
      "start": 7.2188,
      "duration": 0.0701,
      "velocity": 95,
      "chip": "ym2612"
    },
    {
      "channel": 2,
      "note": 34,
      "start": 7.2202,
      "duration": 0.1043,
      "velocity": 1,
      "chip": "ym2612"
    },
    {
      "channel": 3,
      "note": 78,
      "start": 7.3267,
      "duration": 0.0681,
      "velocity": 95,
      "chip": "ym2612"
    },
    {
      "channel": 2,
      "note": 44,
      "start": 7.328,
      "duration": 0.0839,
      "velocity": 1,
      "chip": "ym2612"
    },
    {
      "channel": 3,
      "note": 84,
      "start": 7.4141,
      "duration": 0.0877,
      "velocity": 95,
      "chip": "ym2612"
    },
    {
      "channel": 2,
      "note": 34,
      "start": 7.4156,
      "duration": 0.1923,
      "velocity": 1,
      "chip": "ym2612"
    },
    {
      "channel": 1,
      "note": 60,
      "start": 7.5195,
      "duration": 0.07,
      "velocity": 89,
      "chip": "ym2612"
    },
    {
      "channel": 3,
      "note": 79,
      "start": 7.52,
      "duration": 0.0697,
      "velocity": 95,
      "chip": "ym2612"
    },
    {
      "channel": 1,
      "note": 59,
      "start": 7.6073,
      "duration": 0.0901,
      "velocity": 89,
      "chip": "ym2612"
    },
    {
      "channel": 3,
      "note": 85,
      "start": 7.61,
      "duration": 0.0877,
      "velocity": 95,
      "chip": "ym2612"
    },
    {
      "channel": 2,
      "note": 34,
      "start": 7.6115,
      "duration": 0.1044,
      "velocity": 1,
      "chip": "ym2612"
    },
    {
      "channel": 1,
      "note": 58,
      "start": 7.7154,
      "duration": 0.0706,
      "velocity": 89,
      "chip": "ym2612"
    },
    {
      "channel": 3,
      "note": 78,
      "start": 7.7181,
      "duration": 0.0682,
      "velocity": 95,
      "chip": "ym2612"
    },
    {
      "channel": 2,
      "note": 44,
      "start": 7.7194,
      "duration": 0.0844,
      "velocity": 1,
      "chip": "ym2612"
    },
    {
      "channel": 1,
      "note": 56,
      "start": 7.8032,
      "duration": 0.0901,
      "velocity": 89,
      "chip": "ym2612"
    },
    {
      "channel": 3,
      "note": 84,
      "start": 7.8059,
      "duration": 0.0877,
      "velocity": 95,
      "chip": "ym2612"
    },
    {
      "channel": 2,
      "note": 34,
      "start": 7.8074,
      "duration": 0.1075,
      "velocity": 1,
      "chip": "ym2612"
    },
    {
      "channel": 0,
      "note": 95,
      "start": 7.911,
      "duration": 0.5726,
      "velocity": 97,
      "chip": "ym2612"
    },
    {
      "channel": 1,
      "note": 53,
      "start": 7.9144,
      "duration": 0.0761,
      "velocity": 89,
      "chip": "ym2612"
    },
    {
      "channel": 3,
      "note": 77,
      "start": 7.9201,
      "duration": 0.0706,
      "velocity": 95,
      "chip": "ym2612"
    },
    {
      "channel": 2,
      "note": 34,
      "start": 7.9216,
      "duration": 0.1932,
      "velocity": 1,
      "chip": "ym2612"
    },
    {
      "channel": 4,
      "note": 95,
      "start": 7.9559,
      "duration": 0.5668,
      "velocity": 97,
      "chip": "ym2612"
    },
    {
      "channel": 5,
      "note": 95,
      "start": 7.9914,
      "duration": 0.5823,
      "velocity": 97,
      "chip": "ym2612"
    },
    {
      "channel": 1,
      "note": 52,
      "start": 8.0087,
      "duration": 0.0876,
      "velocity": 89,
      "chip": "ym2612"
    },
    {
      "channel": 3,
      "note": 83,
      "start": 8.0093,
      "duration": 0.0873,
      "velocity": 95,
      "chip": "ym2612"
    },
    {
      "channel": 1,
      "note": 51,
      "start": 8.1142,
      "duration": 0.0706,
      "velocity": 89,
      "chip": "ym2612"
    },
    {
      "channel": 3,
      "note": 78,
      "start": 8.1169,
      "duration": 0.0681,
      "velocity": 95,
      "chip": "ym2612"
    },
    {
      "channel": 2,
      "note": 44,
      "start": 8.1183,
      "duration": 0.1861,
      "velocity": 1,
      "chip": "ym2612"
    },
    {
      "channel": 1,
      "note": 50,
      "start": 8.2191,
      "duration": 0.0676,
      "velocity": 89,
      "chip": "ym2612"
    },
    {
      "channel": 3,
      "note": 84,
      "start": 8.2197,
      "duration": 0.0673,
      "velocity": 95,
      "chip": "ym2612"
    },
    {
      "channel": 3,
      "note": 79,
      "start": 8.3066,
      "duration": 0.0875,
      "velocity": 95,
      "chip": "ym2612"
    },
    {
      "channel": 2,
      "note": 34,
      "start": 8.308,
      "duration": 0.1038,
      "velocity": 1,
      "chip": "ym2612"
    },
    {
      "channel": 3,
      "note": 85,
      "start": 8.414,
      "duration": 0.0703,
      "velocity": 95,
      "chip": "ym2612"
    },
    {
      "channel": 2,
      "note": 34,
      "start": 8.4155,
      "duration": 0.0872,
      "velocity": 1,
      "chip": "ym2612"
    },
    {
      "channel": 0,
      "note": 94,
      "start": 8.5016,
      "duration": 0.5659,
      "velocity": 97,
      "chip": "ym2612"
    },
    {
      "channel": 1,
      "note": 56,
      "start": 8.5021,
      "duration": 0.088,
      "velocity": 89,
      "chip": "ym2612"
    },
    {
      "channel": 3,
      "note": 78,
      "start": 8.5048,
      "duration": 0.0856,
      "velocity": 95,
      "chip": "ym2612"
    },
    {
      "channel": 2,
      "note": 44,
      "start": 8.5062,
      "duration": 0.187,
      "velocity": 1,
      "chip": "ym2612"
    },
    {
      "channel": 4,
      "note": 94,
      "start": 8.5398,
      "duration": 0.5821,
      "velocity": 97,
      "chip": "ym2612"
    },
    {
      "channel": 5,
      "note": 94,
      "start": 8.591,
      "duration": 0.5663,
      "velocity": 97,
      "chip": "ym2612"
    },
    {
      "channel": 1,
      "note": 55,
      "start": 8.6077,
      "duration": 0.0676,
      "velocity": 89,
      "chip": "ym2612"
    },
    {
      "channel": 3,
      "note": 84,
      "start": 8.6083,
      "duration": 0.0673,
      "velocity": 95,
      "chip": "ym2612"
    },
    {
      "channel": 1,
      "note": 54,
      "start": 8.6926,
      "duration": 0.0903,
      "velocity": 89,
      "chip": "ym2612"
    },
    {
      "channel": 3,
      "note": 77,
      "start": 8.6953,
      "duration": 0.0878,
      "velocity": 95,
      "chip": "ym2612"
    },
    {
      "channel": 2,
      "note": 34,
      "start": 8.6968,
      "duration": 0.1044,
      "velocity": 1,
      "chip": "ym2612"
    },
    {
      "channel": 1,
      "note": 53,
      "start": 8.8007,
      "duration": 0.0725,
      "velocity": 89,
      "chip": "ym2612"
    },
    {
      "channel": 3,
      "note": 83,
      "start": 8.8034,
      "duration": 0.0701,
      "velocity": 95,
      "chip": "ym2612"
    },
    {
      "channel": 2,
      "note": 34,
      "start": 8.8048,
      "duration": 0.0867,
      "velocity": 1,
      "chip": "ym2612"
    },
    {
      "channel": 3,
      "note": 78,
      "start": 8.8937,
      "duration": 0.0849,
      "velocity": 95,
      "chip": "ym2612"
    },
    {
      "channel": 2,
      "note": 44,
      "start": 8.895,
      "duration": 0.1008,
      "velocity": 1,
      "chip": "ym2612"
    },
    {
      "channel": 3,
      "note": 84,
      "start": 8.998,
      "duration": 0.0702,
      "velocity": 95,
      "chip": "ym2612"
    },
    {
      "channel": 2,
      "note": 34,
      "start": 8.9995,
      "duration": 0.1936,
      "velocity": 1,
      "chip": "ym2612"
    },
    {
      "channel": 0,
      "note": 93,
      "start": 9.1032,
      "duration": 0.3749,
      "velocity": 97,
      "chip": "ym2612"
    },
    {
      "channel": 1,
      "note": 60,
      "start": 9.1038,
      "duration": 0.0705,
      "velocity": 89,
      "chip": "ym2612"
    },
    {
      "channel": 3,
      "note": 79,
      "start": 9.1043,
      "duration": 0.0702,
      "velocity": 95,
      "chip": "ym2612"
    },
    {
      "channel": 4,
      "note": 93,
      "start": 9.1397,
      "duration": 0.3837,
      "velocity": 97,
      "chip": "ym2612"
    },
    {
      "channel": 5,
      "note": 93,
      "start": 9.1752,
      "duration": 0.3836,
      "velocity": 97,
      "chip": "ym2612"
    },
    {
      "channel": 1,
      "note": 59,
      "start": 9.1925,
      "duration": 0.0903,
      "velocity": 89,
      "chip": "ym2612"
    },
    {
      "channel": 3,
      "note": 85,
      "start": 9.1952,
      "duration": 0.0878,
      "velocity": 95,
      "chip": "ym2612"
    },
    {
      "channel": 2,
      "note": 34,
      "start": 9.1967,
      "duration": 0.1045,
      "velocity": 1,
      "chip": "ym2612"
    },
    {
      "channel": 1,
      "note": 58,
      "start": 9.3006,
      "duration": 0.0706,
      "velocity": 89,
      "chip": "ym2612"
    },
    {
      "channel": 3,
      "note": 78,
      "start": 9.3034,
      "duration": 0.0681,
      "velocity": 95,
      "chip": "ym2612"
    },
    {
      "channel": 2,
      "note": 44,
      "start": 9.3047,
      "duration": 0.0844,
      "velocity": 1,
      "chip": "ym2612"
    },
    {
      "channel": 1,
      "note": 56,
      "start": 9.3885,
      "duration": 0.0901,
      "velocity": 89,
      "chip": "ym2612"
    },
    {
      "channel": 3,
      "note": 84,
      "start": 9.3912,
      "duration": 0.0877,
      "velocity": 95,
      "chip": "ym2612"
    },
    {
      "channel": 2,
      "note": 34,
      "start": 9.3927,
      "duration": 0.1076,
      "velocity": 1,
      "chip": "ym2612"
    },
    {
      "channel": 0,
      "note": 77,
      "start": 9.4963,
      "duration": 0.0791,
      "velocity": 97,
      "chip": "ym2612"
    },
    {
      "channel": 1,
      "note": 53,
      "start": 9.4998,
      "duration": 0.0761,
      "velocity": 89,
      "chip": "ym2612"
    },
    {
      "channel": 3,
      "note": 77,
      "start": 9.5055,
      "duration": 0.0706,
      "velocity": 95,
      "chip": "ym2612"
    },
    {
      "channel": 2,
      "note": 34,
      "start": 9.5069,
      "duration": 0.1948,
      "velocity": 1,
      "chip": "ym2612"
    },
    {
      "channel": 4,
      "note": 77,
      "start": 9.5412,
      "duration": 0.0713,
      "velocity": 97,
      "chip": "ym2612"
    },
    {
      "channel": 5,
      "note": 77,
      "start": 9.5767,
      "duration": 0.0888,
      "velocity": 97,
      "chip": "ym2612"
    },
    {
      "channel": 0,
      "note": 82,
      "start": 9.5938,
      "duration": 0.0885,
      "velocity": 97,
      "chip": "ym2612"
    },
    {
      "channel": 1,
      "note": 52,
      "start": 9.5943,
      "duration": 0.0884,
      "velocity": 89,
      "chip": "ym2612"
    },
    {
      "channel": 3,
      "note": 83,
      "start": 9.5949,
      "duration": 0.0881,
      "velocity": 95,
      "chip": "ym2612"
    },
    {
      "channel": 4,
      "note": 82,
      "start": 9.6479,
      "duration": 0.0738,
      "velocity": 97,
      "chip": "ym2612"
    },
    {
      "channel": 5,
      "note": 82,
      "start": 9.6836,
      "duration": 0.0722,
      "velocity": 97,
      "chip": "ym2612"
    },
    {
      "channel": 0,
      "note": 86,
      "start": 9.7006,
      "duration": 0.0712,
      "velocity": 97,
      "chip": "ym2612"
    },
    {
      "channel": 1,
      "note": 51,
      "start": 9.7012,
      "duration": 0.0711,
      "velocity": 89,
      "chip": "ym2612"
    },
    {
      "channel": 3,
      "note": 78,
      "start": 9.7038,
      "duration": 0.0688,
      "velocity": 95,
      "chip": "ym2612"
    },
    {
      "channel": 2,
      "note": 44,
      "start": 9.7052,
      "duration": 0.1883,
      "velocity": 1,
      "chip": "ym2612"
    },
    {
      "channel": 4,
      "note": 86,
      "start": 9.7389,
      "duration": 0.0857,
      "velocity": 97,
      "chip": "ym2612"
    },
    {
      "channel": 5,
      "note": 86,
      "start": 9.7732,
      "duration": 0.0854,
      "velocity": 97,
      "chip": "ym2612"
    },
    {
      "channel": 0,
      "note": 89,
      "start": 9.7896,
      "duration": 0.0851,
      "velocity": 97,
      "chip": "ym2612"
    },
    {
      "channel": 1,
      "note": 50,
      "start": 9.7901,
      "duration": 0.085,
      "velocity": 89,
      "chip": "ym2612"
    },
    {
      "channel": 3,
      "note": 84,
      "start": 9.7907,
      "duration": 0.0847,
      "velocity": 95,
      "chip": "ym2612"
    },
    {
      "channel": 4,
      "note": 89,
      "start": 9.8417,
      "duration": 0.072,
      "velocity": 97,
      "chip": "ym2612"
    },
    {
      "channel": 5,
      "note": 89,
      "start": 9.8761,
      "duration": 0.073,
      "velocity": 97,
      "chip": "ym2612"
    },
    {
      "channel": 0,
      "note": 90,
      "start": 9.8925,
      "duration": 1.1736,
      "velocity": 97,
      "chip": "ym2612"
    },
    {
      "channel": 3,
      "note": 79,
      "start": 9.8956,
      "duration": 0.0707,
      "velocity": 95,
      "chip": "ym2612"
    },
    {
      "channel": 2,
      "note": 34,
      "start": 9.8971,
      "duration": 0.105,
      "velocity": 1,
      "chip": "ym2612"
    },
    {
      "channel": 4,
      "note": 90,
      "start": 9.9315,
      "duration": 1.1798,
      "velocity": 97,
      "chip": "ym2612"
    },
    {
      "channel": 5,
      "note": 90,
      "start": 9.967,
      "duration": 1.1797,
      "velocity": 97,
      "chip": "ym2612"
    },
    {
      "channel": 3,
      "note": 85,
      "start": 10.0042,
      "duration": 0.0702,
      "velocity": 95,
      "chip": "ym2612"
    },
    {
      "channel": 2,
      "note": 34,
      "start": 10.0057,
      "duration": 0.0868,
      "velocity": 1,
      "chip": "ym2612"
    },
    {
      "channel": 1,
      "note": 56,
      "start": 10.0919,
      "duration": 0.0877,
      "velocity": 89,
      "chip": "ym2612"
    },
    {
      "channel": 3,
      "note": 78,
      "start": 10.0946,
      "duration": 0.0853,
      "velocity": 95,
      "chip": "ym2612"
    },
    {
      "channel": 2,
      "note": 44,
      "start": 10.096,
      "duration": 0.1865,
      "velocity": 1,
      "chip": "ym2612"
    },
    {
      "channel": 1,
      "note": 55,
      "start": 10.1969,
      "duration": 0.0677,
      "velocity": 89,
      "chip": "ym2612"
    },
    {
      "channel": 3,
      "note": 84,
      "start": 10.1975,
      "duration": 0.0674,
      "velocity": 95,
      "chip": "ym2612"
    },
    {
      "channel": 1,
      "note": 54,
      "start": 10.2819,
      "duration": 0.09,
      "velocity": 89,
      "chip": "ym2612"
    },
    {
      "channel": 3,
      "note": 77,
      "start": 10.2846,
      "duration": 0.0876,
      "velocity": 95,
      "chip": "ym2612"
    },
    {
      "channel": 2,
      "note": 34,
      "start": 10.2861,
      "duration": 0.1043,
      "velocity": 1,
      "chip": "ym2612"
    },
    {
      "channel": 1,
      "note": 53,
      "start": 10.3898,
      "duration": 0.0726,
      "velocity": 89,
      "chip": "ym2612"
    },
    {
      "channel": 3,
      "note": 83,
      "start": 10.3925,
      "duration": 0.0702,
      "velocity": 95,
      "chip": "ym2612"
    },
    {
      "channel": 2,
      "note": 34,
      "start": 10.394,
      "duration": 0.0868,
      "velocity": 1,
      "chip": "ym2612"
    },
    {
      "channel": 3,
      "note": 78,
      "start": 10.4829,
      "duration": 0.085,
      "velocity": 95,
      "chip": "ym2612"
    },
    {
      "channel": 2,
      "note": 44,
      "start": 10.4843,
      "duration": 0.1008,
      "velocity": 1,
      "chip": "ym2612"
    },
    {
      "channel": 3,
      "note": 84,
      "start": 10.5872,
      "duration": 0.0701,
      "velocity": 95,
      "chip": "ym2612"
    },
    {
      "channel": 2,
      "note": 34,
      "start": 10.5887,
      "duration": 0.1923,
      "velocity": 1,
      "chip": "ym2612"
    },
    {
      "channel": 1,
      "note": 60,
      "start": 10.6749,
      "duration": 0.0875,
      "velocity": 89,
      "chip": "ym2612"
    },
    {
      "channel": 3,
      "note": 79,
      "start": 10.6755,
      "duration": 0.0872,
      "velocity": 95,
      "chip": "ym2612"
    },
    {
      "channel": 1,
      "note": 59,
      "start": 10.7804,
      "duration": 0.0725,
      "velocity": 89,
      "chip": "ym2612"
    },
    {
      "channel": 3,
      "note": 85,
      "start": 10.7832,
      "duration": 0.07,
      "velocity": 95,
      "chip": "ym2612"
    },
    {
      "channel": 2,
      "note": 34,
      "start": 10.7846,
      "duration": 0.1044,
      "velocity": 1,
      "chip": "ym2612"
    },
    {
      "channel": 1,
      "note": 58,
      "start": 10.8884,
      "duration": 0.0706,
      "velocity": 89,
      "chip": "ym2612"
    },
    {
      "channel": 3,
      "note": 78,
      "start": 10.8911,
      "duration": 0.0682,
      "velocity": 95,
      "chip": "ym2612"
    },
    {
      "channel": 2,
      "note": 44,
      "start": 10.8925,
      "duration": 0.0844,
      "velocity": 1,
      "chip": "ym2612"
    },
    {
      "channel": 1,
      "note": 56,
      "start": 10.9763,
      "duration": 0.0902,
      "velocity": 89,
      "chip": "ym2612"
    },
    {
      "channel": 3,
      "note": 84,
      "start": 10.9789,
      "duration": 0.0879,
      "velocity": 95,
      "chip": "ym2612"
    },
    {
      "channel": 2,
      "note": 34,
      "start": 10.9805,
      "duration": 0.1077,
      "velocity": 1,
      "chip": "ym2612"
    },
    {
      "channel": 0,
      "note": 89,
      "start": 11.0841,
      "duration": 0.5726,
      "velocity": 97,
      "chip": "ym2612"
    },
    {
      "channel": 1,
      "note": 53,
      "start": 11.0876,
      "duration": 0.0761,
      "velocity": 89,
      "chip": "ym2612"
    },
    {
      "channel": 3,
      "note": 77,
      "start": 11.0933,
      "duration": 0.0707,
      "velocity": 95,
      "chip": "ym2612"
    },
    {
      "channel": 2,
      "note": 34,
      "start": 11.0948,
      "duration": 0.1932,
      "velocity": 1,
      "chip": "ym2612"
    },
    {
      "channel": 4,
      "note": 89,
      "start": 11.129,
      "duration": 0.5668,
      "velocity": 97,
      "chip": "ym2612"
    },
    {
      "channel": 5,
      "note": 89,
      "start": 11.1646,
      "duration": 0.5654,
      "velocity": 97,
      "chip": "ym2612"
    },
    {
      "channel": 1,
      "note": 52,
      "start": 11.182,
      "duration": 0.0875,
      "velocity": 89,
      "chip": "ym2612"
    },
    {
      "channel": 3,
      "note": 83,
      "start": 11.1826,
      "duration": 0.0873,
      "velocity": 95,
      "chip": "ym2612"
    },
    {
      "channel": 1,
      "note": 51,
      "start": 11.2874,
      "duration": 0.0706,
      "velocity": 89,
      "chip": "ym2612"
    },
    {
      "channel": 3,
      "note": 78,
      "start": 11.2901,
      "duration": 0.0682,
      "velocity": 95,
      "chip": "ym2612"
    },
    {
      "channel": 2,
      "note": 44,
      "start": 11.2915,
      "duration": 0.186,
      "velocity": 1,
      "chip": "ym2612"
    },
    {
      "channel": 1,
      "note": 50,
      "start": 11.3753,
      "duration": 0.0845,
      "velocity": 89,
      "chip": "ym2612"
    },
    {
      "channel": 3,
      "note": 84,
      "start": 11.3758,
      "duration": 0.0841,
      "velocity": 95,
      "chip": "ym2612"
    },
    {
      "channel": 3,
      "note": 79,
      "start": 11.4796,
      "duration": 0.0702,
      "velocity": 95,
      "chip": "ym2612"
    },
    {
      "channel": 2,
      "note": 34,
      "start": 11.4811,
      "duration": 0.0864,
      "velocity": 1,
      "chip": "ym2612"
    },
    {
      "channel": 3,
      "note": 85,
      "start": 11.5697,
      "duration": 0.0876,
      "velocity": 95,
      "chip": "ym2612"
    },
    {
      "channel": 2,
      "note": 34,
      "start": 11.5712,
      "duration": 0.1046,
      "velocity": 1,
      "chip": "ym2612"
    },
    {
      "channel": 0,
      "note": 88,
      "start": 11.6747,
      "duration": 0.5663,
      "velocity": 97,
      "chip": "ym2612"
    },
    {
      "channel": 1,
      "note": 56,
      "start": 11.6752,
      "duration": 0.0713,
      "velocity": 89,
      "chip": "ym2612"
    },
    {
      "channel": 3,
      "note": 78,
      "start": 11.6779,
      "duration": 0.0688,
      "velocity": 95,
      "chip": "ym2612"
    },
    {
      "channel": 2,
      "note": 44,
      "start": 11.6793,
      "duration": 0.1875,
      "velocity": 1,
      "chip": "ym2612"
    },
    {
      "channel": 4,
      "note": 88,
      "start": 11.713,
      "duration": 0.5646,
      "velocity": 97,
      "chip": "ym2612"
    },
    {
      "channel": 5,
      "note": 88,
      "start": 11.7474,
      "duration": 0.5833,
      "velocity": 97,
      "chip": "ym2612"
    },
    {
      "channel": 1,
      "note": 55,
      "start": 11.7812,
      "duration": 0.0677,
      "velocity": 89,
      "chip": "ym2612"
    },
    {
      "channel": 3,
      "note": 84,
      "start": 11.7817,
      "duration": 0.0675,
      "velocity": 95,
      "chip": "ym2612"
    },
    {
      "channel": 1,
      "note": 54,
      "start": 11.8662,
      "duration": 0.09,
      "velocity": 89,
      "chip": "ym2612"
    },
    {
      "channel": 3,
      "note": 77,
      "start": 11.869,
      "duration": 0.0875,
      "velocity": 95,
      "chip": "ym2612"
    },
    {
      "channel": 2,
      "note": 34,
      "start": 11.8704,
      "duration": 0.1043,
      "velocity": 1,
      "chip": "ym2612"
    },
    {
      "channel": 1,
      "note": 53,
      "start": 11.9741,
      "duration": 0.0727,
      "velocity": 89,
      "chip": "ym2612"
    },
    {
      "channel": 3,
      "note": 83,
      "start": 11.9768,
      "duration": 0.0702,
      "velocity": 95,
      "chip": "ym2612"
    },
    {
      "channel": 2,
      "note": 34,
      "start": 11.9783,
      "duration": 0.0868,
      "velocity": 1,
      "chip": "ym2612"
    },
    {
      "channel": 3,
      "note": 78,
      "start": 12.0672,
      "duration": 0.085,
      "velocity": 95,
      "chip": "ym2612"
    },
    {
      "channel": 2,
      "note": 44,
      "start": 12.0686,
      "duration": 0.1008,
      "velocity": 1,
      "chip": "ym2612"
    },
    {
      "channel": 3,
      "note": 84,
      "start": 12.1715,
      "duration": 0.0702,
      "velocity": 95,
      "chip": "ym2612"
    },
    {
      "channel": 2,
      "note": 34,
      "start": 12.173,
      "duration": 0.1936,
      "velocity": 1,
      "chip": "ym2612"
    },
    {
      "channel": 0,
      "note": 85,
      "start": 12.259,
      "duration": 0.3744,
      "velocity": 97,
      "chip": "ym2612"
    },
    {
      "channel": 1,
      "note": 60,
      "start": 12.2595,
      "duration": 0.0882,
      "velocity": 89,
      "chip": "ym2612"
    },
    {
      "channel": 3,
      "note": 79,
      "start": 12.2601,
      "duration": 0.0879,
      "velocity": 95,
      "chip": "ym2612"
    },
    {
      "channel": 4,
      "note": 85,
      "start": 12.3131,
      "duration": 0.3833,
      "velocity": 97,
      "chip": "ym2612"
    },
    {
      "channel": 5,
      "note": 85,
      "start": 12.3487,
      "duration": 0.3832,
      "velocity": 97,
      "chip": "ym2612"
    },
    {
      "channel": 1,
      "note": 59,
      "start": 12.366,
      "duration": 0.0725,
      "velocity": 89,
      "chip": "ym2612"
    },
    {
      "channel": 3,
      "note": 85,
      "start": 12.3687,
      "duration": 0.0701,
      "velocity": 95,
      "chip": "ym2612"
    },
    {
      "channel": 2,
      "note": 34,
      "start": 12.3702,
      "duration": 0.0868,
      "velocity": 1,
      "chip": "ym2612"
    },
    {
      "channel": 1,
      "note": 58,
      "start": 12.4564,
      "duration": 0.0875,
      "velocity": 89,
      "chip": "ym2612"
    },
    {
      "channel": 3,
      "note": 78,
      "start": 12.4591,
      "duration": 0.0851,
      "velocity": 95,
      "chip": "ym2612"
    },
    {
      "channel": 2,
      "note": 44,
      "start": 12.4604,
      "duration": 0.1013,
      "velocity": 1,
      "chip": "ym2612"
    },
    {
      "channel": 1,
      "note": 56,
      "start": 12.5611,
      "duration": 0.0728,
      "velocity": 89,
      "chip": "ym2612"
    },
    {
      "channel": 3,
      "note": 84,
      "start": 12.5639,
      "duration": 0.0703,
      "velocity": 95,
      "chip": "ym2612"
    },
    {
      "channel": 2,
      "note": 34,
      "start": 12.5653,
      "duration": 0.1079,
      "velocity": 1,
      "chip": "ym2612"
    },
    {
      "channel": 0,
      "note": 84,
      "start": 12.6692,
      "duration": 0.5725,
      "velocity": 97,
      "chip": "ym2612"
    },
    {
      "channel": 1,
      "note": 53,
      "start": 12.6727,
      "duration": 0.0762,
      "velocity": 89,
      "chip": "ym2612"
    },
    {
      "channel": 3,
      "note": 77,
      "start": 12.6784,
      "duration": 0.0708,
      "velocity": 95,
      "chip": "ym2612"
    },
    {
      "channel": 2,
      "note": 34,
      "start": 12.6798,
      "duration": 0.1932,
      "velocity": 1,
      "chip": "ym2612"
    },
    {
      "channel": 4,
      "note": 84,
      "start": 12.7142,
      "duration": 0.5667,
      "velocity": 97,
      "chip": "ym2612"
    },
    {
      "channel": 5,
      "note": 84,
      "start": 12.7498,
      "duration": 0.5653,
      "velocity": 97,
      "chip": "ym2612"
    },
    {
      "channel": 1,
      "note": 52,
      "start": 12.7671,
      "duration": 0.0875,
      "velocity": 89,
      "chip": "ym2612"
    },
    {
      "channel": 3,
      "note": 83,
      "start": 12.7677,
      "duration": 0.0873,
      "velocity": 95,
      "chip": "ym2612"
    },
    {
      "channel": 1,
      "note": 51,
      "start": 12.8725,
      "duration": 0.0706,
      "velocity": 89,
      "chip": "ym2612"
    },
    {
      "channel": 3,
      "note": 78,
      "start": 12.8753,
      "duration": 0.0681,
      "velocity": 95,
      "chip": "ym2612"
    },
    {
      "channel": 2,
      "note": 44,
      "start": 12.8766,
      "duration": 0.186,
      "velocity": 1,
      "chip": "ym2612"
    },
    {
      "channel": 1,
      "note": 50,
      "start": 12.9604,
      "duration": 0.0845,
      "velocity": 89,
      "chip": "ym2612"
    },
    {
      "channel": 3,
      "note": 84,
      "start": 12.961,
      "duration": 0.0841,
      "velocity": 95,
      "chip": "ym2612"
    },
    {
      "channel": 3,
      "note": 79,
      "start": 13.0648,
      "duration": 0.0701,
      "velocity": 95,
      "chip": "ym2612"
    },
    {
      "channel": 2,
      "note": 34,
      "start": 13.0662,
      "duration": 0.0864,
      "velocity": 1,
      "chip": "ym2612"
    },
    {
      "channel": 3,
      "note": 85,
      "start": 13.1548,
      "duration": 0.0877,
      "velocity": 95,
      "chip": "ym2612"
    },
    {
      "channel": 2,
      "note": 34,
      "start": 13.1562,
      "duration": 0.1046,
      "velocity": 1,
      "chip": "ym2612"
    },
    {
      "channel": 0,
      "note": 83,
      "start": 13.2597,
      "duration": 0.5662,
      "velocity": 97,
      "chip": "ym2612"
    },
    {
      "channel": 1,
      "note": 56,
      "start": 13.2602,
      "duration": 0.0713,
      "velocity": 89,
      "chip": "ym2612"
    },
    {
      "channel": 3,
      "note": 78,
      "start": 13.263,
      "duration": 0.0688,
      "velocity": 95,
      "chip": "ym2612"
    },
    {
      "channel": 2,
      "note": 44,
      "start": 13.2644,
      "duration": 0.1871,
      "velocity": 1,
      "chip": "ym2612"
    },
    {
      "channel": 4,
      "note": 83,
      "start": 13.2981,
      "duration": 0.5646,
      "velocity": 97,
      "chip": "ym2612"
    },
    {
      "channel": 5,
      "note": 83,
      "start": 13.3324,
      "duration": 0.5833,
      "velocity": 97,
      "chip": "ym2612"
    },
    {
      "channel": 1,
      "note": 55,
      "start": 13.3492,
      "duration": 0.0845,
      "velocity": 89,
      "chip": "ym2612"
    },
    {
      "channel": 3,
      "note": 84,
      "start": 13.3498,
      "duration": 0.0841,
      "velocity": 95,
      "chip": "ym2612"
    },
    {
      "channel": 1,
      "note": 54,
      "start": 13.451,
      "duration": 0.0725,
      "velocity": 89,
      "chip": "ym2612"
    },
    {
      "channel": 3,
      "note": 77,
      "start": 13.4537,
      "duration": 0.07,
      "velocity": 95,
      "chip": "ym2612"
    },
    {
      "channel": 2,
      "note": 34,
      "start": 13.4551,
      "duration": 0.1044,
      "velocity": 1,
      "chip": "ym2612"
    },
    {
      "channel": 1,
      "note": 53,
      "start": 13.559,
      "duration": 0.0728,
      "velocity": 89,
      "chip": "ym2612"
    },
    {
      "channel": 3,
      "note": 83,
      "start": 13.5617,
      "duration": 0.0703,
      "velocity": 95,
      "chip": "ym2612"
    },
    {
      "channel": 2,
      "note": 34,
      "start": 13.5632,
      "duration": 0.0869,
      "velocity": 1,
      "chip": "ym2612"
    },
    {
      "channel": 3,
      "note": 78,
      "start": 13.6522,
      "duration": 0.085,
      "velocity": 95,
      "chip": "ym2612"
    },
    {
      "channel": 2,
      "note": 44,
      "start": 13.6536,
      "duration": 0.1008,
      "velocity": 1,
      "chip": "ym2612"
    },
    {
      "channel": 3,
      "note": 84,
      "start": 13.7565,
      "duration": 0.0702,
      "velocity": 95,
      "chip": "ym2612"
    },
    {
      "channel": 2,
      "note": 34,
      "start": 13.758,
      "duration": 0.1936,
      "velocity": 1,
      "chip": "ym2612"
    },
    {
      "channel": 0,
      "note": 82,
      "start": 13.844,
      "duration": 0.5763,
      "velocity": 97,
      "chip": "ym2612"
    },
    {
      "channel": 1,
      "note": 60,
      "start": 13.8445,
      "duration": 0.0882,
      "velocity": 89,
      "chip": "ym2612"
    },
    {
      "channel": 3,
      "note": 79,
      "start": 13.8451,
      "duration": 0.0879,
      "velocity": 95,
      "chip": "ym2612"
    },
    {
      "channel": 4,
      "note": 82,
      "start": 13.8805,
      "duration": 0.5966,
      "velocity": 97,
      "chip": "ym2612"
    },
    {
      "channel": 5,
      "note": 82,
      "start": 13.9337,
      "duration": 0.5777,
      "velocity": 97,
      "chip": "ym2612"
    },
    {
      "channel": 1,
      "note": 59,
      "start": 13.951,
      "duration": 0.0726,
      "velocity": 89,
      "chip": "ym2612"
    },
    {
      "channel": 3,
      "note": 85,
      "start": 13.9537,
      "duration": 0.0701,
      "velocity": 95,
      "chip": "ym2612"
    },
    {
      "channel": 2,
      "note": 34,
      "start": 13.9551,
      "duration": 0.0868,
      "velocity": 1,
      "chip": "ym2612"
    },
    {
      "channel": 1,
      "note": 58,
      "start": 14.0414,
      "duration": 0.0876,
      "velocity": 89,
      "chip": "ym2612"
    },
    {
      "channel": 3,
      "note": 78,
      "start": 14.0441,
      "duration": 0.0851,
      "velocity": 95,
      "chip": "ym2612"
    },
    {
      "channel": 2,
      "note": 44,
      "start": 14.0454,
      "duration": 0.1014,
      "velocity": 1,
      "chip": "ym2612"
    },
    {
      "channel": 1,
      "note": 56,
      "start": 14.1463,
      "duration": 0.0725,
      "velocity": 89,
      "chip": "ym2612"
    },
    {
      "channel": 3,
      "note": 84,
      "start": 14.1489,
      "duration": 0.0701,
      "velocity": 95,
      "chip": "ym2612"
    },
    {
      "channel": 2,
      "note": 34,
      "start": 14.1504,
      "duration": 0.0898,
      "velocity": 1,
      "chip": "ym2612"
    },
    {
      "channel": 1,
      "note": 53,
      "start": 14.2396,
      "duration": 0.0933,
      "velocity": 89,
      "chip": "ym2612"
    },
    {
      "channel": 3,
      "note": 77,
      "start": 14.2453,
      "duration": 0.0878,
      "velocity": 95,
      "chip": "ym2612"
    },
    {
      "channel": 2,
      "note": 34,
      "start": 14.2468,
      "duration": 0.1925,
      "velocity": 117,
      "chip": "ym2612"
    },
    {
      "channel": 1,
      "note": 52,
      "start": 14.3506,
      "duration": 0.0701,
      "velocity": 89,
      "chip": "ym2612"
    },
    {
      "channel": 3,
      "note": 83,
      "start": 14.3512,
      "duration": 0.0699,
      "velocity": 95,
      "chip": "ym2612"
    },
    {
      "channel": 0,
      "note": 81,
      "start": 14.4561,
      "duration": 0.5611,
      "velocity": 97,
      "chip": "ym2612"
    },
    {
      "channel": 1,
      "note": 51,
      "start": 14.4566,
      "duration": 0.0711,
      "velocity": 89,
      "chip": "ym2612"
    },
    {
      "channel": 3,
      "note": 78,
      "start": 14.4593,
      "duration": 0.0687,
      "velocity": 95,
      "chip": "ym2612"
    },
    {
      "channel": 2,
      "note": 44,
      "start": 14.4607,
      "duration": 0.1872,
      "velocity": 1,
      "chip": "ym2612"
    },
    {
      "channel": 4,
      "note": 81,
      "start": 14.4944,
      "duration": 0.5615,
      "velocity": 97,
      "chip": "ym2612"
    },
    {
      "channel": 5,
      "note": 81,
      "start": 14.5286,
      "duration": 0.5626,
      "velocity": 97,
      "chip": "ym2612"
    },
    {
      "channel": 1,
      "note": 50,
      "start": 14.5454,
      "duration": 0.0847,
      "velocity": 89,
      "chip": "ym2612"
    },
    {
      "channel": 3,
      "note": 84,
      "start": 14.5459,
      "duration": 0.0844,
      "velocity": 95,
      "chip": "ym2612"
    },
    {
      "channel": 3,
      "note": 79,
      "start": 14.65,
      "duration": 0.07,
      "velocity": 95,
      "chip": "ym2612"
    },
    {
      "channel": 2,
      "note": 34,
      "start": 14.6515,
      "duration": 0.0863,
      "velocity": 1,
      "chip": "ym2612"
    },
    {
      "channel": 3,
      "note": 85,
      "start": 14.7399,
      "duration": 0.0876,
      "velocity": 95,
      "chip": "ym2612"
    },
    {
      "channel": 2,
      "note": 34,
      "start": 14.7414,
      "duration": 0.1043,
      "velocity": 1,
      "chip": "ym2612"
    },
    {
      "channel": 1,
      "note": 56,
      "start": 14.8451,
      "duration": 0.0708,
      "velocity": 89,
      "chip": "ym2612"
    },
    {
      "channel": 3,
      "note": 78,
      "start": 14.8478,
      "duration": 0.0683,
      "velocity": 95,
      "chip": "ym2612"
    },
    {
      "channel": 2,
      "note": 44,
      "start": 14.8492,
      "duration": 0.1866,
      "velocity": 1,
      "chip": "ym2612"
    },
    {
      "channel": 1,
      "note": 55,
      "start": 14.9332,
      "duration": 0.0845,
      "velocity": 89,
      "chip": "ym2612"
    },
    {
      "channel": 3,
      "note": 84,
      "start": 14.9337,
      "duration": 0.0843,
      "velocity": 95,
      "chip": "ym2612"
    },
    {
      "channel": 0,
      "note": 80,
      "start": 15.0347,
      "duration": 0.3763,
      "velocity": 97,
      "chip": "ym2612"
    },
    {
      "channel": 1,
      "note": 54,
      "start": 15.0352,
      "duration": 0.073,
      "velocity": 89,
      "chip": "ym2612"
    },
    {
      "channel": 3,
      "note": 77,
      "start": 15.0379,
      "duration": 0.0705,
      "velocity": 95,
      "chip": "ym2612"
    },
    {
      "channel": 2,
      "note": 34,
      "start": 15.0394,
      "duration": 0.0876,
      "velocity": 1,
      "chip": "ym2612"
    },
    {
      "channel": 4,
      "note": 80,
      "start": 15.0736,
      "duration": 0.3741,
      "velocity": 97,
      "chip": "ym2612"
    },
    {
      "channel": 5,
      "note": 80,
      "start": 15.1091,
      "duration": 0.3741,
      "velocity": 97,
      "chip": "ym2612"
    },
    {
      "channel": 1,
      "note": 53,
      "start": 15.1265,
      "duration": 0.0902,
      "velocity": 89,
      "chip": "ym2612"
    },
    {
      "channel": 3,
      "note": 83,
      "start": 15.1291,
      "duration": 0.0878,
      "velocity": 95,
      "chip": "ym2612"
    },
    {
      "channel": 2,
      "note": 34,
      "start": 15.1306,
      "duration": 0.1044,
      "velocity": 1,
      "chip": "ym2612"
    },
    {
      "channel": 3,
      "note": 78,
      "start": 15.2371,
      "duration": 0.0681,
      "velocity": 95,
      "chip": "ym2612"
    },
    {
      "channel": 2,
      "note": 44,
      "start": 15.2385,
      "duration": 0.1009,
      "velocity": 1,
      "chip": "ym2612"
    },
    {
      "channel": 3,
      "note": 84,
      "start": 15.3415,
      "duration": 0.0702,
      "velocity": 95,
      "chip": "ym2612"
    },
    {
      "channel": 2,
      "note": 34,
      "start": 15.3429,
      "duration": 0.1936,
      "velocity": 1,
      "chip": "ym2612"
    },
    {
      "channel": 0,
      "note": 79,
      "start": 15.429,
      "duration": 0.3746,
      "velocity": 97,
      "chip": "ym2612"
    },
    {
      "channel": 1,
      "note": 60,
      "start": 15.4295,
      "duration": 0.0882,
      "velocity": 89,
      "chip": "ym2612"
    },
    {
      "channel": 3,
      "note": 79,
      "start": 15.4302,
      "duration": 0.0878,
      "velocity": 95,
      "chip": "ym2612"
    },
    {
      "channel": 4,
      "note": 79,
      "start": 15.4656,
      "duration": 0.3776,
      "velocity": 97,
      "chip": "ym2612"
    },
    {
      "channel": 5,
      "note": 79,
      "start": 15.5186,
      "duration": 0.3776,
      "velocity": 97,
      "chip": "ym2612"
    },
    {
      "channel": 1,
      "note": 59,
      "start": 15.536,
      "duration": 0.0725,
      "velocity": 89,
      "chip": "ym2612"
    },
    {
      "channel": 3,
      "note": 85,
      "start": 15.5387,
      "duration": 0.0702,
      "velocity": 95,
      "chip": "ym2612"
    },
    {
      "channel": 2,
      "note": 34,
      "start": 15.5401,
      "duration": 0.0868,
      "velocity": 1,
      "chip": "ym2612"
    },
    {
      "channel": 1,
      "note": 58,
      "start": 15.6264,
      "duration": 0.0877,
      "velocity": 89,
      "chip": "ym2612"
    },
    {
      "channel": 3,
      "note": 78,
      "start": 15.6291,
      "duration": 0.0853,
      "velocity": 95,
      "chip": "ym2612"
    },
    {
      "channel": 2,
      "note": 44,
      "start": 15.6305,
      "duration": 0.1014,
      "velocity": 1,
      "chip": "ym2612"
    },
    {
      "channel": 1,
      "note": 56,
      "start": 15.7314,
      "duration": 0.0727,
      "velocity": 89,
      "chip": "ym2612"
    },
    {
      "channel": 3,
      "note": 84,
      "start": 15.7341,
      "duration": 0.0702,
      "velocity": 95,
      "chip": "ym2612"
    },
    {
      "channel": 2,
      "note": 34,
      "start": 15.7356,
      "duration": 0.0873,
      "velocity": 1,
      "chip": "ym2612"
    },
    {
      "channel": 0,
      "note": 80,
      "start": 15.8216,
      "duration": 0.0913,
      "velocity": 97,
      "chip": "ym2612"
    },
    {
      "channel": 1,
      "note": 56,
      "start": 15.8223,
      "duration": 0.091,
      "velocity": 89,
      "chip": "ym2612"
    },
    {
      "channel": 3,
      "note": 80,
      "start": 15.8253,
      "duration": 0.0883,
      "velocity": 95,
      "chip": "ym2612"
    },
    {
      "channel": 2,
      "note": 34,
      "start": 15.8267,
      "duration": 0.1948,
      "velocity": 1,
      "chip": "ym2612"
    },
    {
      "channel": 4,
      "note": 80,
      "start": 15.8786,
      "duration": 0.0715,
      "velocity": 97,
      "chip": "ym2612"
    },
    {
      "channel": 5,
      "note": 80,
      "start": 15.9143,
      "duration": 0.0711,
      "velocity": 97,
      "chip": "ym2612"
    },
    {
      "channel": 0,
      "note": 85,
      "start": 15.9314,
      "duration": 0.0706,
      "velocity": 97,
      "chip": "ym2612"
    },
    {
      "channel": 1,
      "note": 55,
      "start": 15.9319,
      "duration": 0.0705,
      "velocity": 89,
      "chip": "ym2612"
    },
    {
      "channel": 3,
      "note": 86,
      "start": 15.9325,
      "duration": 0.0702,
      "velocity": 95,
      "chip": "ym2612"
    },
    {
      "channel": 4,
      "note": 85,
      "start": 15.9678,
      "duration": 0.0906,
      "velocity": 97,
      "chip": "ym2612"
    },
    {
      "channel": 5,
      "note": 85,
      "start": 16.0034,
      "duration": 0.0891,
      "velocity": 97,
      "chip": "ym2612"
    },
    {
      "channel": 0,
      "note": 89,
      "start": 16.0204,
      "duration": 0.0881,
      "velocity": 97,
      "chip": "ym2612"
    },
    {
      "channel": 1,
      "note": 54,
      "start": 16.0209,
      "duration": 0.088,
      "velocity": 89,
      "chip": "ym2612"
    },
    {
      "channel": 3,
      "note": 81,
      "start": 16.0237,
      "duration": 0.0856,
      "velocity": 95,
      "chip": "ym2612"
    },
    {
      "channel": 2,
      "note": 44,
      "start": 16.025,
      "duration": 0.2055,
      "velocity": 1,
      "chip": "ym2612"
    },
    {
      "channel": 4,
      "note": 89,
      "start": 16.0756,
      "duration": 0.0688,
      "velocity": 97,
      "chip": "ym2612"
    },
    {
      "channel": 5,
      "note": 89,
      "start": 16.1099,
      "duration": 0.0686,
      "velocity": 97,
      "chip": "ym2612"
    },
    {
      "channel": 0,
      "note": 92,
      "start": 16.1263,
      "duration": 0.0682,
      "velocity": 97,
      "chip": "ym2612"
    },
    {
      "channel": 1,
      "note": 53,
      "start": 16.1268,
      "duration": 0.0681,
      "velocity": 89,
      "chip": "ym2612"
    },
    {
      "channel": 3,
      "note": 87,
      "start": 16.1274,
      "duration": 0.0679,
      "velocity": 95,
      "chip": "ym2612"
    },
    {
      "channel": 4,
      "note": 92,
      "start": 16.1616,
      "duration": 0.089,
      "velocity": 97,
      "chip": "ym2612"
    },
    {
      "channel": 5,
      "note": 92,
      "start": 16.1959,
      "duration": 0.0901,
      "velocity": 97,
      "chip": "ym2612"
    },
    {
      "channel": 0,
      "note": 93,
      "start": 16.2296,
      "duration": 1.1559,
      "velocity": 97,
      "chip": "ym2612"
    },
    {
      "channel": 3,
      "note": 82,
      "start": 16.2327,
      "duration": 0.0705,
      "velocity": 95,
      "chip": "ym2612"
    },
    {
      "channel": 2,
      "note": 34,
      "start": 16.2342,
      "duration": 0.0871,
      "velocity": 1,
      "chip": "ym2612"
    },
    {
      "channel": 4,
      "note": 93,
      "start": 16.2684,
      "duration": 1.1563,
      "velocity": 97,
      "chip": "ym2612"
    },
    {
      "channel": 5,
      "note": 93,
      "start": 16.3038,
      "duration": 1.1737,
      "velocity": 97,
      "chip": "ym2612"
    },
    {
      "channel": 3,
      "note": 88,
      "start": 16.3235,
      "duration": 0.0876,
      "velocity": 95,
      "chip": "ym2612"
    },
    {
      "channel": 2,
      "note": 34,
      "start": 16.3249,
      "duration": 0.1043,
      "velocity": 1,
      "chip": "ym2612"
    },
    {
      "channel": 1,
      "note": 59,
      "start": 16.4287,
      "duration": 0.0708,
      "velocity": 89,
      "chip": "ym2612"
    },
    {
      "channel": 3,
      "note": 81,
      "start": 16.4314,
      "duration": 0.0683,
      "velocity": 95,
      "chip": "ym2612"
    },
    {
      "channel": 2,
      "note": 44,
      "start": 16.4328,
      "duration": 0.1863,
      "velocity": 1,
      "chip": "ym2612"
    },
    {
      "channel": 1,
      "note": 58,
      "start": 16.5167,
      "duration": 0.0845,
      "velocity": 89,
      "chip": "ym2612"
    },
    {
      "channel": 3,
      "note": 87,
      "start": 16.5173,
      "duration": 0.0842,
      "velocity": 95,
      "chip": "ym2612"
    },
    {
      "channel": 1,
      "note": 57,
      "start": 16.6185,
      "duration": 0.0725,
      "velocity": 89,
      "chip": "ym2612"
    },
    {
      "channel": 3,
      "note": 80,
      "start": 16.6212,
      "duration": 0.07,
      "velocity": 95,
      "chip": "ym2612"
    },
    {
      "channel": 2,
      "note": 34,
      "start": 16.6227,
      "duration": 0.0867,
      "velocity": 1,
      "chip": "ym2612"
    },
    {
      "channel": 1,
      "note": 56,
      "start": 16.7088,
      "duration": 0.0902,
      "velocity": 89,
      "chip": "ym2612"
    },
    {
      "channel": 3,
      "note": 86,
      "start": 16.7115,
      "duration": 0.0878,
      "velocity": 95,
      "chip": "ym2612"
    },
    {
      "channel": 2,
      "note": 34,
      "start": 16.713,
      "duration": 0.1044,
      "velocity": 1,
      "chip": "ym2612"
    },
    {
      "channel": 3,
      "note": 81,
      "start": 16.8195,
      "duration": 0.0681,
      "velocity": 95,
      "chip": "ym2612"
    },
    {
      "channel": 2,
      "note": 44,
      "start": 16.8209,
      "duration": 0.0839,
      "velocity": 1,
      "chip": "ym2612"
    },
    {
      "channel": 3,
      "note": 87,
      "start": 16.9069,
      "duration": 0.0876,
      "velocity": 95,
      "chip": "ym2612"
    },
    {
      "channel": 2,
      "note": 34,
      "start": 16.9084,
      "duration": 0.1924,
      "velocity": 117,
      "chip": "ym2612"
    },
    {
      "channel": 1,
      "note": 63,
      "start": 17.0122,
      "duration": 0.0702,
      "velocity": 89,
      "chip": "ym2612"
    },
    {
      "channel": 3,
      "note": 82,
      "start": 17.0127,
      "duration": 0.0698,
      "velocity": 95,
      "chip": "ym2612"
    },
    {
      "channel": 1,
      "note": 62,
      "start": 17.1179,
      "duration": 0.0725,
      "velocity": 89,
      "chip": "ym2612"
    },
    {
      "channel": 3,
      "note": 88,
      "start": 17.1207,
      "duration": 0.07,
      "velocity": 95,
      "chip": "ym2612"
    },
    {
      "channel": 2,
      "note": 34,
      "start": 17.1221,
      "duration": 0.0867,
      "velocity": 1,
      "chip": "ym2612"
    },
    {
      "channel": 1,
      "note": 61,
      "start": 17.2083,
      "duration": 0.0876,
      "velocity": 89,
      "chip": "ym2612"
    },
    {
      "channel": 3,
      "note": 81,
      "start": 17.211,
      "duration": 0.0853,
      "velocity": 95,
      "chip": "ym2612"
    },
    {
      "channel": 2,
      "note": 44,
      "start": 17.2123,
      "duration": 0.1015,
      "velocity": 1,
      "chip": "ym2612"
    },
    {
      "channel": 1,
      "note": 59,
      "start": 17.3133,
      "duration": 0.0726,
      "velocity": 89,
      "chip": "ym2612"
    },
    {
      "channel": 3,
      "note": 87,
      "start": 17.316,
      "duration": 0.0702,
      "velocity": 95,
      "chip": "ym2612"
    },
    {
      "channel": 2,
      "note": 34,
      "start": 17.3174,
      "duration": 0.0871,
      "velocity": 1,
      "chip": "ym2612"
    },
    {
      "channel": 0,
      "note": 92,
      "start": 17.4034,
      "duration": 0.5667,
      "velocity": 97,
      "chip": "ym2612"
    },
    {
      "channel": 1,
      "note": 56,
      "start": 17.4039,
      "duration": 0.0907,
      "velocity": 89,
      "chip": "ym2612"
    },
    {
      "channel": 3,
      "note": 80,
      "start": 17.4067,
      "duration": 0.0881,
      "velocity": 95,
      "chip": "ym2612"
    },
    {
      "channel": 2,
      "note": 34,
      "start": 17.4082,
      "duration": 0.1933,
      "velocity": 1,
      "chip": "ym2612"
    },
    {
      "channel": 4,
      "note": 92,
      "start": 17.4425,
      "duration": 0.5845,
      "velocity": 97,
      "chip": "ym2612"
    },
    {
      "channel": 5,
      "note": 92,
      "start": 17.4955,
      "duration": 0.5656,
      "velocity": 97,
      "chip": "ym2612"
    },
    {
      "channel": 1,
      "note": 55,
      "start": 17.5129,
      "duration": 0.0702,
      "velocity": 89,
      "chip": "ym2612"
    },
    {
      "channel": 3,
      "note": 86,
      "start": 17.5135,
      "duration": 0.0698,
      "velocity": 95,
      "chip": "ym2612"
    },
    {
      "channel": 1,
      "note": 54,
      "start": 17.601,
      "duration": 0.0875,
      "velocity": 89,
      "chip": "ym2612"
    },
    {
      "channel": 3,
      "note": 81,
      "start": 17.6036,
      "duration": 0.0851,
      "velocity": 95,
      "chip": "ym2612"
    },
    {
      "channel": 2,
      "note": 44,
      "start": 17.605,
      "duration": 0.1859,
      "velocity": 1,
      "chip": "ym2612"
    },
    {
      "channel": 1,
      "note": 53,
      "start": 17.7057,
      "duration": 0.0676,
      "velocity": 89,
      "chip": "ym2612"
    },
    {
      "channel": 3,
      "note": 87,
      "start": 17.7062,
      "duration": 0.0673,
      "velocity": 95,
      "chip": "ym2612"
    },
    {
      "channel": 3,
      "note": 82,
      "start": 17.7931,
      "duration": 0.0876,
      "velocity": 95,
      "chip": "ym2612"
    },
    {
      "channel": 2,
      "note": 34,
      "start": 17.7946,
      "duration": 0.1039,
      "velocity": 1,
      "chip": "ym2612"
    },
    {
      "channel": 3,
      "note": 88,
      "start": 17.9007,
      "duration": 0.0702,
      "velocity": 95,
      "chip": "ym2612"
    },
    {
      "channel": 2,
      "note": 34,
      "start": 17.9022,
      "duration": 0.1049,
      "velocity": 1,
      "chip": "ym2612"
    },
    {
      "channel": 0,
      "note": 91,
      "start": 18.0059,
      "duration": 0.5666,
      "velocity": 97,
      "chip": "ym2612"
    },
    {
      "channel": 1,
      "note": 59,
      "start": 18.0064,
      "duration": 0.0711,
      "velocity": 89,
      "chip": "ym2612"
    },
    {
      "channel": 3,
      "note": 81,
      "start": 18.0091,
      "duration": 0.0686,
      "velocity": 95,
      "chip": "ym2612"
    },
    {
      "channel": 2,
      "note": 44,
      "start": 18.0105,
      "duration": 0.1871,
      "velocity": 1,
      "chip": "ym2612"
    },
    {
      "channel": 4,
      "note": 91,
      "start": 18.0441,
      "duration": 0.5651,
      "velocity": 97,
      "chip": "ym2612"
    },
    {
      "channel": 5,
      "note": 91,
      "start": 18.0784,
      "duration": 0.5662,
      "velocity": 97,
      "chip": "ym2612"
    },
    {
      "channel": 1,
      "note": 58,
      "start": 18.0951,
      "duration": 0.0847,
      "velocity": 89,
      "chip": "ym2612"
    },
    {
      "channel": 3,
      "note": 87,
      "start": 18.0957,
      "duration": 0.0844,
      "velocity": 95,
      "chip": "ym2612"
    },
    {
      "channel": 1,
      "note": 57,
      "start": 18.1971,
      "duration": 0.0725,
      "velocity": 89,
      "chip": "ym2612"
    },
    {
      "channel": 3,
      "note": 80,
      "start": 18.1998,
      "duration": 0.07,
      "velocity": 95,
      "chip": "ym2612"
    },
    {
      "channel": 2,
      "note": 34,
      "start": 18.2013,
      "duration": 0.0867,
      "velocity": 1,
      "chip": "ym2612"
    },
    {
      "channel": 1,
      "note": 56,
      "start": 18.2875,
      "duration": 0.09,
      "velocity": 89,
      "chip": "ym2612"
    },
    {
      "channel": 3,
      "note": 86,
      "start": 18.2901,
      "duration": 0.0876,
      "velocity": 95,
      "chip": "ym2612"
    },
    {
      "channel": 2,
      "note": 34,
      "start": 18.2916,
      "duration": 0.1042,
      "velocity": 1,
      "chip": "ym2612"
    },
    {
      "channel": 3,
      "note": 81,
      "start": 18.398,
      "duration": 0.0683,
      "velocity": 95,
      "chip": "ym2612"
    },
    {
      "channel": 2,
      "note": 44,
      "start": 18.3994,
      "duration": 0.084,
      "velocity": 1,
      "chip": "ym2612"
    },
    {
      "channel": 3,
      "note": 87,
      "start": 18.4856,
      "duration": 0.0877,
      "velocity": 95,
      "chip": "ym2612"
    },
    {
      "channel": 2,
      "note": 34,
      "start": 18.487,
      "duration": 0.1934,
      "velocity": 1,
      "chip": "ym2612"
    },
    {
      "channel": 0,
      "note": 88,
      "start": 18.5905,
      "duration": 0.3745,
      "velocity": 97,
      "chip": "ym2612"
    },
    {
      "channel": 1,
      "note": 63,
      "start": 18.591,
      "duration": 0.0706,
      "velocity": 89,
      "chip": "ym2612"
    },
    {
      "channel": 3,
      "note": 82,
      "start": 18.5917,
      "duration": 0.0702,
      "velocity": 95,
      "chip": "ym2612"
    },
    {
      "channel": 4,
      "note": 88,
      "start": 18.627,
      "duration": 0.3773,
      "velocity": 97,
      "chip": "ym2612"
    },
    {
      "channel": 5,
      "note": 88,
      "start": 18.6625,
      "duration": 0.3772,
      "velocity": 97,
      "chip": "ym2612"
    },
    {
      "channel": 1,
      "note": 62,
      "start": 18.6799,
      "duration": 0.09,
      "velocity": 89,
      "chip": "ym2612"
    },
    {
      "channel": 3,
      "note": 88,
      "start": 18.6826,
      "duration": 0.0877,
      "velocity": 95,
      "chip": "ym2612"
    },
    {
      "channel": 2,
      "note": 34,
      "start": 18.684,
      "duration": 0.1043,
      "velocity": 1,
      "chip": "ym2612"
    },
    {
      "channel": 1,
      "note": 61,
      "start": 18.7878,
      "duration": 0.0706,
      "velocity": 89,
      "chip": "ym2612"
    },
    {
      "channel": 3,
      "note": 81,
      "start": 18.7905,
      "duration": 0.0682,
      "velocity": 95,
      "chip": "ym2612"
    },
    {
      "channel": 2,
      "note": 44,
      "start": 18.7919,
      "duration": 0.1014,
      "velocity": 1,
      "chip": "ym2612"
    },
    {
      "channel": 1,
      "note": 59,
      "start": 18.8927,
      "duration": 0.0728,
      "velocity": 89,
      "chip": "ym2612"
    },
    {
      "channel": 3,
      "note": 87,
      "start": 18.8954,
      "duration": 0.0704,
      "velocity": 95,
      "chip": "ym2612"
    },
    {
      "channel": 2,
      "note": 34,
      "start": 18.8969,
      "duration": 0.0873,
      "velocity": 1,
      "chip": "ym2612"
    },
    {
      "channel": 0,
      "note": 80,
      "start": 18.9831,
      "duration": 0.0908,
      "velocity": 97,
      "chip": "ym2612"
    },
    {
      "channel": 1,
      "note": 56,
      "start": 18.9836,
      "duration": 0.0907,
      "velocity": 89,
      "chip": "ym2612"
    },
    {
      "channel": 3,
      "note": 80,
      "start": 18.9863,
      "duration": 0.0882,
      "velocity": 95,
      "chip": "ym2612"
    },
    {
      "channel": 2,
      "note": 34,
      "start": 18.9878,
      "duration": 0.1947,
      "velocity": 1,
      "chip": "ym2612"
    },
    {
      "channel": 4,
      "note": 80,
      "start": 19.0221,
      "duration": 0.0888,
      "velocity": 97,
      "chip": "ym2612"
    },
    {
      "channel": 5,
      "note": 80,
      "start": 19.0752,
      "duration": 0.0711,
      "velocity": 97,
      "chip": "ym2612"
    },
    {
      "channel": 0,
      "note": 85,
      "start": 19.0922,
      "duration": 0.0707,
      "velocity": 97,
      "chip": "ym2612"
    },
    {
      "channel": 1,
      "note": 55,
      "start": 19.0927,
      "duration": 0.0707,
      "velocity": 89,
      "chip": "ym2612"
    },
    {
      "channel": 3,
      "note": 86,
      "start": 19.0933,
      "duration": 0.0704,
      "velocity": 95,
      "chip": "ym2612"
    },
    {
      "channel": 4,
      "note": 85,
      "start": 19.1287,
      "duration": 0.0738,
      "velocity": 97,
      "chip": "ym2612"
    },
    {
      "channel": 5,
      "note": 85,
      "start": 19.1644,
      "duration": 0.0892,
      "velocity": 97,
      "chip": "ym2612"
    },
    {
      "channel": 0,
      "note": 89,
      "start": 19.1814,
      "duration": 0.0882,
      "velocity": 97,
      "chip": "ym2612"
    },
    {
      "channel": 1,
      "note": 54,
      "start": 19.1819,
      "duration": 0.0881,
      "velocity": 89,
      "chip": "ym2612"
    },
    {
      "channel": 3,
      "note": 81,
      "start": 19.1846,
      "duration": 0.0857,
      "velocity": 95,
      "chip": "ym2612"
    },
    {
      "channel": 2,
      "note": 44,
      "start": 19.186,
      "duration": 0.1883,
      "velocity": 1,
      "chip": "ym2612"
    },
    {
      "channel": 4,
      "note": 89,
      "start": 19.2197,
      "duration": 0.0857,
      "velocity": 97,
      "chip": "ym2612"
    },
    {
      "channel": 5,
      "note": 89,
      "start": 19.2709,
      "duration": 0.0686,
      "velocity": 97,
      "chip": "ym2612"
    },
    {
      "channel": 0,
      "note": 92,
      "start": 19.2873,
      "duration": 0.0682,
      "velocity": 97,
      "chip": "ym2612"
    },
    {
      "channel": 1,
      "note": 53,
      "start": 19.2878,
      "duration": 0.0681,
      "velocity": 89,
      "chip": "ym2612"
    },
    {
      "channel": 3,
      "note": 87,
      "start": 19.2884,
      "duration": 0.0679,
      "velocity": 95,
      "chip": "ym2612"
    },
    {
      "channel": 4,
      "note": 92,
      "start": 19.3226,
      "duration": 0.0718,
      "velocity": 97,
      "chip": "ym2612"
    },
    {
      "channel": 5,
      "note": 92,
      "start": 19.3569,
      "duration": 0.0905,
      "velocity": 97,
      "chip": "ym2612"
    },
    {
      "channel": 0,
      "note": 93,
      "start": 19.3734,
      "duration": 1.1732,
      "velocity": 97,
      "chip": "ym2612"
    },
    {
      "channel": 3,
      "note": 82,
      "start": 19.3765,
      "duration": 0.0883,
      "velocity": 95,
      "chip": "ym2612"
    },
    {
      "channel": 2,
      "note": 34,
      "start": 19.3779,
      "duration": 0.105,
      "velocity": 1,
      "chip": "ym2612"
    },
    {
      "channel": 4,
      "note": 93,
      "start": 19.4298,
      "duration": 1.156,
      "velocity": 97,
      "chip": "ym2612"
    },
    {
      "channel": 5,
      "note": 93,
      "start": 19.4654,
      "duration": 1.1559,
      "velocity": 97,
      "chip": "ym2612"
    },
    {
      "channel": 3,
      "note": 88,
      "start": 19.4851,
      "duration": 0.0702,
      "velocity": 95,
      "chip": "ym2612"
    },
    {
      "channel": 2,
      "note": 34,
      "start": 19.4865,
      "duration": 0.0868,
      "velocity": 1,
      "chip": "ym2612"
    },
    {
      "channel": 1,
      "note": 59,
      "start": 19.5728,
      "duration": 0.0875,
      "velocity": 89,
      "chip": "ym2612"
    },
    {
      "channel": 3,
      "note": 81,
      "start": 19.5755,
      "duration": 0.085,
      "velocity": 95,
      "chip": "ym2612"
    },
    {
      "channel": 2,
      "note": 44,
      "start": 19.5768,
      "duration": 0.2032,
      "velocity": 1,
      "chip": "ym2612"
    },
    {
      "channel": 1,
      "note": 58,
      "start": 19.6775,
      "duration": 0.0676,
      "velocity": 89,
      "chip": "ym2612"
    },
    {
      "channel": 3,
      "note": 87,
      "start": 19.678,
      "duration": 0.0673,
      "velocity": 95,
      "chip": "ym2612"
    },
    {
      "channel": 1,
      "note": 57,
      "start": 19.7795,
      "duration": 0.0725,
      "velocity": 89,
      "chip": "ym2612"
    },
    {
      "channel": 3,
      "note": 80,
      "start": 19.7821,
      "duration": 0.0701,
      "velocity": 95,
      "chip": "ym2612"
    },
    {
      "channel": 2,
      "note": 34,
      "start": 19.7837,
      "duration": 0.0867,
      "velocity": 1,
      "chip": "ym2612"
    },
    {
      "channel": 1,
      "note": 56,
      "start": 19.8698,
      "duration": 0.09,
      "velocity": 89,
      "chip": "ym2612"
    },
    {
      "channel": 3,
      "note": 86,
      "start": 19.8725,
      "duration": 0.0876,
      "velocity": 95,
      "chip": "ym2612"
    },
    {
      "channel": 2,
      "note": 34,
      "start": 19.874,
      "duration": 0.1042,
      "velocity": 1,
      "chip": "ym2612"
    },
    {
      "channel": 3,
      "note": 81,
      "start": 19.9803,
      "duration": 0.0683,
      "velocity": 95,
      "chip": "ym2612"
    },
    {
      "channel": 2,
      "note": 44,
      "start": 19.9817,
      "duration": 0.084,
      "velocity": 1,
      "chip": "ym2612"
    },
    {
      "channel": 3,
      "note": 87,
      "start": 20.0679,
      "duration": 0.0876,
      "velocity": 95,
      "chip": "ym2612"
    },
    {
      "channel": 2,
      "note": 34,
      "start": 20.0694,
      "duration": 0.1921,
      "velocity": 1,
      "chip": "ym2612"
    },
    {
      "channel": 1,
      "note": 63,
      "start": 20.1731,
      "duration": 0.07,
      "velocity": 89,
      "chip": "ym2612"
    },
    {
      "channel": 3,
      "note": 82,
      "start": 20.1737,
      "duration": 0.0696,
      "velocity": 95,
      "chip": "ym2612"
    },
    {
      "channel": 1,
      "note": 62,
      "start": 20.261,
      "duration": 0.0901,
      "velocity": 89,
      "chip": "ym2612"
    },
    {
      "channel": 3,
      "note": 88,
      "start": 20.2637,
      "duration": 0.0877,
      "velocity": 95,
      "chip": "ym2612"
    },
    {
      "channel": 2,
      "note": 34,
      "start": 20.2651,
      "duration": 0.1044,
      "velocity": 1,
      "chip": "ym2612"
    },
    {
      "channel": 1,
      "note": 61,
      "start": 20.369,
      "duration": 0.0706,
      "velocity": 89,
      "chip": "ym2612"
    },
    {
      "channel": 3,
      "note": 81,
      "start": 20.3716,
      "duration": 0.0682,
      "velocity": 95,
      "chip": "ym2612"
    },
    {
      "channel": 2,
      "note": 44,
      "start": 20.373,
      "duration": 0.0843,
      "velocity": 1,
      "chip": "ym2612"
    },
    {
      "channel": 1,
      "note": 59,
      "start": 20.4568,
      "duration": 0.0902,
      "velocity": 89,
      "chip": "ym2612"
    },
    {
      "channel": 3,
      "note": 87,
      "start": 20.4595,
      "duration": 0.0878,
      "velocity": 95,
      "chip": "ym2612"
    },
    {
      "channel": 2,
      "note": 34,
      "start": 20.461,
      "duration": 0.1047,
      "velocity": 1,
      "chip": "ym2612"
    },
    {
      "channel": 0,
      "note": 98,
      "start": 20.5646,
      "duration": 0.5668,
      "velocity": 97,
      "chip": "ym2612"
    },
    {
      "channel": 1,
      "note": 56,
      "start": 20.5651,
      "duration": 0.0731,
      "velocity": 89,
      "chip": "ym2612"
    },
    {
      "channel": 3,
      "note": 80,
      "start": 20.5679,
      "duration": 0.0705,
      "velocity": 95,
      "chip": "ym2612"
    },
    {
      "channel": 2,
      "note": 34,
      "start": 20.5694,
      "duration": 0.1932,
      "velocity": 1,
      "chip": "ym2612"
    },
    {
      "channel": 4,
      "note": 98,
      "start": 20.6036,
      "duration": 0.5669,
      "velocity": 97,
      "chip": "ym2612"
    },
    {
      "channel": 5,
      "note": 98,
      "start": 20.6391,
      "duration": 0.5825,
      "velocity": 97,
      "chip": "ym2612"
    },
    {
      "channel": 1,
      "note": 55,
      "start": 20.6741,
      "duration": 0.07,
      "velocity": 89,
      "chip": "ym2612"
    },
    {
      "channel": 3,
      "note": 86,
      "start": 20.6747,
      "duration": 0.0697,
      "velocity": 95,
      "chip": "ym2612"
    },
    {
      "channel": 1,
      "note": 54,
      "start": 20.762,
      "duration": 0.0877,
      "velocity": 89,
      "chip": "ym2612"
    },
    {
      "channel": 3,
      "note": 81,
      "start": 20.7648,
      "duration": 0.0852,
      "velocity": 95,
      "chip": "ym2612"
    },
    {
      "channel": 2,
      "note": 44,
      "start": 20.7661,
      "duration": 0.1861,
      "velocity": 1,
      "chip": "ym2612"
    },
    {
      "channel": 1,
      "note": 53,
      "start": 20.8669,
      "duration": 0.0676,
      "velocity": 89,
      "chip": "ym2612"
    },
    {
      "channel": 3,
      "note": 87,
      "start": 20.8675,
      "duration": 0.0673,
      "velocity": 95,
      "chip": "ym2612"
    },
    {
      "channel": 3,
      "note": 82,
      "start": 20.9544,
      "duration": 0.0875,
      "velocity": 95,
      "chip": "ym2612"
    },
    {
      "channel": 2,
      "note": 34,
      "start": 20.9559,
      "duration": 0.1038,
      "velocity": 1,
      "chip": "ym2612"
    },
    {
      "channel": 3,
      "note": 88,
      "start": 21.0618,
      "duration": 0.0704,
      "velocity": 95,
      "chip": "ym2612"
    },
    {
      "channel": 2,
      "note": 34,
      "start": 21.0632,
      "duration": 0.0873,
      "velocity": 1,
      "chip": "ym2612"
    },
    {
      "channel": 0,
      "note": 97,
      "start": 21.1495,
      "duration": 0.5842,
      "velocity": 97,
      "chip": "ym2612"
    },
    {
      "channel": 1,
      "note": 59,
      "start": 21.15,
      "duration": 0.088,
      "velocity": 89,
      "chip": "ym2612"
    },
    {
      "channel": 3,
      "note": 81,
      "start": 21.1527,
      "duration": 0.0856,
      "velocity": 95,
      "chip": "ym2612"
    },
    {
      "channel": 2,
      "note": 44,
      "start": 21.1541,
      "duration": 0.187,
      "velocity": 1,
      "chip": "ym2612"
    },
    {
      "channel": 4,
      "note": 97,
      "start": 21.2046,
      "duration": 0.5658,
      "velocity": 97,
      "chip": "ym2612"
    },
    {
      "channel": 5,
      "note": 97,
      "start": 21.2389,
      "duration": 0.5668,
      "velocity": 97,
      "chip": "ym2612"
    },
    {
      "channel": 1,
      "note": 58,
      "start": 21.2557,
      "duration": 0.0676,
      "velocity": 89,
      "chip": "ym2612"
    },
    {
      "channel": 3,
      "note": 87,
      "start": 21.2562,
      "duration": 0.0673,
      "velocity": 95,
      "chip": "ym2612"
    },
    {
      "channel": 1,
      "note": 57,
      "start": 21.3405,
      "duration": 0.0901,
      "velocity": 89,
      "chip": "ym2612"
    },
    {
      "channel": 3,
      "note": 80,
      "start": 21.3433,
      "duration": 0.0876,
      "velocity": 95,
      "chip": "ym2612"
    },
    {
      "channel": 2,
      "note": 34,
      "start": 21.3447,
      "duration": 0.1044,
      "velocity": 1,
      "chip": "ym2612"
    },
    {
      "channel": 1,
      "note": 56,
      "start": 21.4486,
      "duration": 0.0725,
      "velocity": 89,
      "chip": "ym2612"
    },
    {
      "channel": 3,
      "note": 86,
      "start": 21.4513,
      "duration": 0.0701,
      "velocity": 95,
      "chip": "ym2612"
    },
    {
      "channel": 2,
      "note": 34,
      "start": 21.4527,
      "duration": 0.1043,
      "velocity": 1,
      "chip": "ym2612"
    },
    {
      "channel": 3,
      "note": 81,
      "start": 21.5592,
      "duration": 0.0681,
      "velocity": 95,
      "chip": "ym2612"
    },
    {
      "channel": 2,
      "note": 44,
      "start": 21.5606,
      "duration": 0.0839,
      "velocity": 1,
      "chip": "ym2612"
    },
    {
      "channel": 3,
      "note": 87,
      "start": 21.6466,
      "duration": 0.0879,
      "velocity": 95,
      "chip": "ym2612"
    },
    {
      "channel": 2,
      "note": 34,
      "start": 21.6481,
      "duration": 0.1934,
      "velocity": 1,
      "chip": "ym2612"
    },
    {
      "channel": 0,
      "note": 96,
      "start": 21.7518,
      "duration": 0.3749,
      "velocity": 97,
      "chip": "ym2612"
    },
    {
      "channel": 1,
      "note": 63,
      "start": 21.7523,
      "duration": 0.0705,
      "velocity": 89,
      "chip": "ym2612"
    },
    {
      "channel": 3,
      "note": 82,
      "start": 21.7529,
      "duration": 0.0702,
      "velocity": 95,
      "chip": "ym2612"
    },
    {
      "channel": 4,
      "note": 96,
      "start": 21.7882,
      "duration": 0.3779,
      "velocity": 97,
      "chip": "ym2612"
    },
    {
      "channel": 5,
      "note": 96,
      "start": 21.8237,
      "duration": 0.3777,
      "velocity": 97,
      "chip": "ym2612"
    },
    {
      "channel": 1,
      "note": 62,
      "start": 21.841,
      "duration": 0.0902,
      "velocity": 89,
      "chip": "ym2612"
    },
    {
      "channel": 3,
      "note": 88,
      "start": 21.8437,
      "duration": 0.0878,
      "velocity": 95,
      "chip": "ym2612"
    },
    {
      "channel": 2,
      "note": 34,
      "start": 21.8452,
      "duration": 0.1045,
      "velocity": 1,
      "chip": "ym2612"
    },
    {
      "channel": 1,
      "note": 61,
      "start": 21.9491,
      "duration": 0.0706,
      "velocity": 89,
      "chip": "ym2612"
    },
    {
      "channel": 3,
      "note": 81,
      "start": 21.9518,
      "duration": 0.0681,
      "velocity": 95,
      "chip": "ym2612"
    },
    {
      "channel": 2,
      "note": 44,
      "start": 21.9532,
      "duration": 0.0844,
      "velocity": 1,
      "chip": "ym2612"
    },
    {
      "channel": 1,
      "note": 59,
      "start": 22.037,
      "duration": 0.0901,
      "velocity": 89,
      "chip": "ym2612"
    },
    {
      "channel": 3,
      "note": 87,
      "start": 22.0397,
      "duration": 0.0876,
      "velocity": 95,
      "chip": "ym2612"
    },
    {
      "channel": 2,
      "note": 34,
      "start": 22.0412,
      "duration": 0.1046,
      "velocity": 1,
      "chip": "ym2612"
    },
    {
      "channel": 0,
      "note": 80,
      "start": 22.1447,
      "duration": 0.0733,
      "velocity": 97,
      "chip": "ym2612"
    },
    {
      "channel": 1,
      "note": 56,
      "start": 22.1452,
      "duration": 0.0732,
      "velocity": 89,
      "chip": "ym2612"
    },
    {
      "channel": 3,
      "note": 80,
      "start": 22.148,
      "duration": 0.0707,
      "velocity": 95,
      "chip": "ym2612"
    },
    {
      "channel": 2,
      "note": 34,
      "start": 22.1495,
      "duration": 0.1945,
      "velocity": 1,
      "chip": "ym2612"
    },
    {
      "channel": 4,
      "note": 80,
      "start": 22.1838,
      "duration": 0.0888,
      "velocity": 97,
      "chip": "ym2612"
    },
    {
      "channel": 5,
      "note": 80,
      "start": 22.2193,
      "duration": 0.0886,
      "velocity": 97,
      "chip": "ym2612"
    },
    {
      "channel": 0,
      "note": 85,
      "start": 22.2364,
      "duration": 0.0882,
      "velocity": 97,
      "chip": "ym2612"
    },
    {
      "channel": 1,
      "note": 55,
      "start": 22.2369,
      "duration": 0.0881,
      "velocity": 89,
      "chip": "ym2612"
    },
    {
      "channel": 3,
      "note": 86,
      "start": 22.2375,
      "duration": 0.0879,
      "velocity": 95,
      "chip": "ym2612"
    },
    {
      "channel": 4,
      "note": 85,
      "start": 22.2903,
      "duration": 0.0738,
      "velocity": 97,
      "chip": "ym2612"
    },
    {
      "channel": 5,
      "note": 85,
      "start": 22.326,
      "duration": 0.0724,
      "velocity": 97,
      "chip": "ym2612"
    },
    {
      "channel": 0,
      "note": 89,
      "start": 22.343,
      "duration": 0.0714,
      "velocity": 97,
      "chip": "ym2612"
    },
    {
      "channel": 1,
      "note": 54,
      "start": 22.3435,
      "duration": 0.0713,
      "velocity": 89,
      "chip": "ym2612"
    },
    {
      "channel": 3,
      "note": 81,
      "start": 22.3462,
      "duration": 0.0689,
      "velocity": 95,
      "chip": "ym2612"
    },
    {
      "channel": 2,
      "note": 44,
      "start": 22.3476,
      "duration": 0.1888,
      "velocity": 1,
      "chip": "ym2612"
    },
    {
      "channel": 4,
      "note": 89,
      "start": 22.3813,
      "duration": 0.0861,
      "velocity": 97,
      "chip": "ym2612"
    },
    {
      "channel": 5,
      "note": 89,
      "start": 22.4157,
      "duration": 0.0858,
      "velocity": 97,
      "chip": "ym2612"
    },
    {
      "channel": 0,
      "note": 92,
      "start": 22.4494,
      "duration": 0.0682,
      "velocity": 97,
      "chip": "ym2612"
    },
    {
      "channel": 1,
      "note": 53,
      "start": 22.4499,
      "duration": 0.0681,
      "velocity": 89,
      "chip": "ym2612"
    },
    {
      "channel": 3,
      "note": 87,
      "start": 22.4505,
      "duration": 0.0678,
      "velocity": 95,
      "chip": "ym2612"
    },
    {
      "channel": 4,
      "note": 92,
      "start": 22.4845,
      "duration": 0.0719,
      "velocity": 97,
      "chip": "ym2612"
    },
    {
      "channel": 5,
      "note": 92,
      "start": 22.5189,
      "duration": 0.0729,
      "velocity": 97,
      "chip": "ym2612"
    },
    {
      "channel": 0,
      "note": 93,
      "start": 22.5354,
      "duration": 1.1732,
      "velocity": 97,
      "chip": "ym2612"
    },
    {
      "channel": 3,
      "note": 82,
      "start": 22.5385,
      "duration": 0.088,
      "velocity": 95,
      "chip": "ym2612"
    },
    {
      "channel": 2,
      "note": 34,
      "start": 22.54,
      "duration": 0.1048,
      "velocity": 1,
      "chip": "ym2612"
    },
    {
      "channel": 4,
      "note": 93,
      "start": 22.5742,
      "duration": 1.1738,
      "velocity": 97,
      "chip": "ym2612"
    },
    {
      "channel": 5,
      "note": 93,
      "start": 22.6272,
      "duration": 1.1562,
      "velocity": 97,
      "chip": "ym2612"
    },
    {
      "channel": 3,
      "note": 88,
      "start": 22.6469,
      "duration": 0.0702,
      "velocity": 95,
      "chip": "ym2612"
    },
    {
      "channel": 2,
      "note": 34,
      "start": 22.6483,
      "duration": 0.0869,
      "velocity": 1,
      "chip": "ym2612"
    },
    {
      "channel": 1,
      "note": 59,
      "start": 22.7347,
      "duration": 0.0875,
      "velocity": 89,
      "chip": "ym2612"
    },
    {
      "channel": 3,
      "note": 81,
      "start": 22.7374,
      "duration": 0.085,
      "velocity": 95,
      "chip": "ym2612"
    },
    {
      "channel": 2,
      "note": 44,
      "start": 22.7387,
      "duration": 0.1861,
      "velocity": 1,
      "chip": "ym2612"
    },
    {
      "channel": 1,
      "note": 58,
      "start": 22.8394,
      "duration": 0.0676,
      "velocity": 89,
      "chip": "ym2612"
    },
    {
      "channel": 3,
      "note": 87,
      "start": 22.84,
      "duration": 0.0673,
      "velocity": 95,
      "chip": "ym2612"
    },
    {
      "channel": 1,
      "note": 57,
      "start": 22.9243,
      "duration": 0.0902,
      "velocity": 89,
      "chip": "ym2612"
    },
    {
      "channel": 3,
      "note": 80,
      "start": 22.927,
      "duration": 0.0878,
      "velocity": 95,
      "chip": "ym2612"
    },
    {
      "channel": 2,
      "note": 34,
      "start": 22.9285,
      "duration": 0.1044,
      "velocity": 1,
      "chip": "ym2612"
    },
    {
      "channel": 1,
      "note": 56,
      "start": 23.0324,
      "duration": 0.0726,
      "velocity": 89,
      "chip": "ym2612"
    },
    {
      "channel": 3,
      "note": 86,
      "start": 23.0351,
      "duration": 0.0701,
      "velocity": 95,
      "chip": "ym2612"
    },
    {
      "channel": 2,
      "note": 34,
      "start": 23.0366,
      "duration": 0.0867,
      "velocity": 1,
      "chip": "ym2612"
    },
    {
      "channel": 3,
      "note": 81,
      "start": 23.1254,
      "duration": 0.085,
      "velocity": 95,
      "chip": "ym2612"
    },
    {
      "channel": 2,
      "note": 44,
      "start": 23.1268,
      "duration": 0.1008,
      "velocity": 1,
      "chip": "ym2612"
    },
    {
      "channel": 3,
      "note": 87,
      "start": 23.2297,
      "duration": 0.0702,
      "velocity": 95,
      "chip": "ym2612"
    },
    {
      "channel": 2,
      "note": 34,
      "start": 23.2312,
      "duration": 0.1924,
      "velocity": 1,
      "chip": "ym2612"
    },
    {
      "channel": 1,
      "note": 63,
      "start": 23.3352,
      "duration": 0.07,
      "velocity": 89,
      "chip": "ym2612"
    },
    {
      "channel": 3,
      "note": 82,
      "start": 23.3358,
      "duration": 0.0696,
      "velocity": 95,
      "chip": "ym2612"
    },
    {
      "channel": 1,
      "note": 62,
      "start": 23.423,
      "duration": 0.0901,
      "velocity": 89,
      "chip": "ym2612"
    },
    {
      "channel": 3,
      "note": 88,
      "start": 23.4258,
      "duration": 0.0877,
      "velocity": 95,
      "chip": "ym2612"
    },
    {
      "channel": 2,
      "note": 34,
      "start": 23.4272,
      "duration": 0.1044,
      "velocity": 1,
      "chip": "ym2612"
    },
    {
      "channel": 1,
      "note": 61,
      "start": 23.531,
      "duration": 0.0707,
      "velocity": 89,
      "chip": "ym2612"
    },
    {
      "channel": 3,
      "note": 81,
      "start": 23.5338,
      "duration": 0.0682,
      "velocity": 95,
      "chip": "ym2612"
    },
    {
      "channel": 2,
      "note": 44,
      "start": 23.5351,
      "duration": 0.0844,
      "velocity": 1,
      "chip": "ym2612"
    },
    {
      "channel": 1,
      "note": 59,
      "start": 23.619,
      "duration": 0.0901,
      "velocity": 89,
      "chip": "ym2612"
    },
    {
      "channel": 3,
      "note": 87,
      "start": 23.6216,
      "duration": 0.0877,
      "velocity": 95,
      "chip": "ym2612"
    },
    {
      "channel": 2,
      "note": 34,
      "start": 23.6232,
      "duration": 0.1046,
      "velocity": 1,
      "chip": "ym2612"
    },
    {
      "channel": 0,
      "note": 92,
      "start": 23.7266,
      "duration": 0.5667,
      "velocity": 97,
      "chip": "ym2612"
    },
    {
      "channel": 1,
      "note": 56,
      "start": 23.7272,
      "duration": 0.0732,
      "velocity": 89,
      "chip": "ym2612"
    },
    {
      "channel": 3,
      "note": 80,
      "start": 23.73,
      "duration": 0.0707,
      "velocity": 95,
      "chip": "ym2612"
    },
    {
      "channel": 2,
      "note": 34,
      "start": 23.7314,
      "duration": 0.1931,
      "velocity": 1,
      "chip": "ym2612"
    },
    {
      "channel": 4,
      "note": 92,
      "start": 23.7658,
      "duration": 0.5668,
      "velocity": 97,
      "chip": "ym2612"
    },
    {
      "channel": 5,
      "note": 92,
      "start": 23.8013,
      "duration": 0.5655,
      "velocity": 97,
      "chip": "ym2612"
    },
    {
      "channel": 1,
      "note": 55,
      "start": 23.8186,
      "duration": 0.0875,
      "velocity": 89,
      "chip": "ym2612"
    },
    {
      "channel": 3,
      "note": 86,
      "start": 23.8192,
      "duration": 0.0872,
      "velocity": 95,
      "chip": "ym2612"
    },
    {
      "channel": 1,
      "note": 54,
      "start": 23.924,
      "duration": 0.0706,
      "velocity": 89,
      "chip": "ym2612"
    },
    {
      "channel": 3,
      "note": 81,
      "start": 23.9267,
      "duration": 0.0681,
      "velocity": 95,
      "chip": "ym2612"
    },
    {
      "channel": 2,
      "note": 44,
      "start": 23.928,
      "duration": 0.1863,
      "velocity": 1,
      "chip": "ym2612"
    },
    {
      "channel": 1,
      "note": 53,
      "start": 24.0118,
      "duration": 0.0847,
      "velocity": 89,
      "chip": "ym2612"
    },
    {
      "channel": 3,
      "note": 87,
      "start": 24.0124,
      "duration": 0.0844,
      "velocity": 95,
      "chip": "ym2612"
    },
    {
      "channel": 3,
      "note": 82,
      "start": 24.1165,
      "duration": 0.07,
      "velocity": 95,
      "chip": "ym2612"
    },
    {
      "channel": 2,
      "note": 34,
      "start": 24.1179,
      "duration": 0.1039,
      "velocity": 1,
      "chip": "ym2612"
    },
    {
      "channel": 3,
      "note": 88,
      "start": 24.2239,
      "duration": 0.0702,
      "velocity": 95,
      "chip": "ym2612"
    },
    {
      "channel": 2,
      "note": 34,
      "start": 24.2254,
      "duration": 0.0872,
      "velocity": 1,
      "chip": "ym2612"
    },
    {
      "channel": 0,
      "note": 91,
      "start": 24.3115,
      "duration": 0.566,
      "velocity": 97,
      "chip": "ym2612"
    },
    {
      "channel": 1,
      "note": 59,
      "start": 24.312,
      "duration": 0.0882,
      "velocity": 89,
      "chip": "ym2612"
    },
    {
      "channel": 3,
      "note": 81,
      "start": 24.3147,
      "duration": 0.0857,
      "velocity": 95,
      "chip": "ym2612"
    },
    {
      "channel": 2,
      "note": 44,
      "start": 24.3161,
      "duration": 0.1871,
      "velocity": 1,
      "chip": "ym2612"
    },
    {
      "channel": 4,
      "note": 91,
      "start": 24.3498,
      "duration": 0.5819,
      "velocity": 97,
      "chip": "ym2612"
    },
    {
      "channel": 5,
      "note": 91,
      "start": 24.401,
      "duration": 0.5661,
      "velocity": 97,
      "chip": "ym2612"
    },
    {
      "channel": 1,
      "note": 58,
      "start": 24.4178,
      "duration": 0.0676,
      "velocity": 89,
      "chip": "ym2612"
    },
    {
      "channel": 3,
      "note": 87,
      "start": 24.4183,
      "duration": 0.0673,
      "velocity": 95,
      "chip": "ym2612"
    },
    {
      "channel": 1,
      "note": 57,
      "start": 24.5026,
      "duration": 0.09,
      "velocity": 89,
      "chip": "ym2612"
    },
    {
      "channel": 3,
      "note": 80,
      "start": 24.5054,
      "duration": 0.0875,
      "velocity": 95,
      "chip": "ym2612"
    },
    {
      "channel": 2,
      "note": 34,
      "start": 24.5068,
      "duration": 0.1043,
      "velocity": 1,
      "chip": "ym2612"
    },
    {
      "channel": 1,
      "note": 56,
      "start": 24.6105,
      "duration": 0.0727,
      "velocity": 89,
      "chip": "ym2612"
    },
    {
      "channel": 3,
      "note": 86,
      "start": 24.6132,
      "duration": 0.0702,
      "velocity": 95,
      "chip": "ym2612"
    },
    {
      "channel": 2,
      "note": 34,
      "start": 24.6147,
      "duration": 0.0868,
      "velocity": 1,
      "chip": "ym2612"
    },
    {
      "channel": 3,
      "note": 81,
      "start": 24.7036,
      "duration": 0.085,
      "velocity": 95,
      "chip": "ym2612"
    },
    {
      "channel": 2,
      "note": 44,
      "start": 24.705,
      "duration": 0.1007,
      "velocity": 1,
      "chip": "ym2612"
    },
    {
      "channel": 3,
      "note": 87,
      "start": 24.808,
      "duration": 0.0702,
      "velocity": 95,
      "chip": "ym2612"
    },
    {
      "channel": 2,
      "note": 34,
      "start": 24.8094,
      "duration": 0.1935,
      "velocity": 1,
      "chip": "ym2612"
    },
    {
      "channel": 0,
      "note": 88,
      "start": 24.8955,
      "duration": 0.3926,
      "velocity": 97,
      "chip": "ym2612"
    },
    {
      "channel": 1,
      "note": 63,
      "start": 24.896,
      "duration": 0.0882,
      "velocity": 89,
      "chip": "ym2612"
    },
    {
      "channel": 3,
      "note": 82,
      "start": 24.8966,
      "duration": 0.0878,
      "velocity": 95,
      "chip": "ym2612"
    },
    {
      "channel": 4,
      "note": 88,
      "start": 24.9495,
      "duration": 0.3779,
      "velocity": 97,
      "chip": "ym2612"
    },
    {
      "channel": 5,
      "note": 88,
      "start": 24.9851,
      "duration": 0.3778,
      "velocity": 97,
      "chip": "ym2612"
    },
    {
      "channel": 1,
      "note": 62,
      "start": 25.0024,
      "duration": 0.0725,
      "velocity": 89,
      "chip": "ym2612"
    },
    {
      "channel": 3,
      "note": 88,
      "start": 25.0051,
      "duration": 0.0701,
      "velocity": 95,
      "chip": "ym2612"
    },
    {
      "channel": 2,
      "note": 34,
      "start": 25.0066,
      "duration": 0.1044,
      "velocity": 1,
      "chip": "ym2612"
    },
    {
      "channel": 1,
      "note": 61,
      "start": 25.1104,
      "duration": 0.0707,
      "velocity": 89,
      "chip": "ym2612"
    },
    {
      "channel": 3,
      "note": 81,
      "start": 25.1132,
      "duration": 0.0683,
      "velocity": 95,
      "chip": "ym2612"
    },
    {
      "channel": 2,
      "note": 44,
      "start": 25.1145,
      "duration": 0.0845,
      "velocity": 1,
      "chip": "ym2612"
    },
    {
      "channel": 1,
      "note": 59,
      "start": 25.1985,
      "duration": 0.0901,
      "velocity": 89,
      "chip": "ym2612"
    },
    {
      "channel": 3,
      "note": 87,
      "start": 25.2012,
      "duration": 0.0877,
      "velocity": 95,
      "chip": "ym2612"
    },
    {
      "channel": 2,
      "note": 34,
      "start": 25.2026,
      "duration": 0.1046,
      "velocity": 1,
      "chip": "ym2612"
    },
    {
      "channel": 0,
      "note": 87,
      "start": 25.3062,
      "duration": 0.5668,
      "velocity": 97,
      "chip": "ym2612"
    },
    {
      "channel": 1,
      "note": 56,
      "start": 25.3067,
      "duration": 0.0732,
      "velocity": 89,
      "chip": "ym2612"
    },
    {
      "channel": 3,
      "note": 80,
      "start": 25.3094,
      "duration": 0.0707,
      "velocity": 95,
      "chip": "ym2612"
    },
    {
      "channel": 2,
      "note": 34,
      "start": 25.311,
      "duration": 0.1932,
      "velocity": 1,
      "chip": "ym2612"
    },
    {
      "channel": 4,
      "note": 87,
      "start": 25.3452,
      "duration": 0.5669,
      "velocity": 97,
      "chip": "ym2612"
    },
    {
      "channel": 5,
      "note": 87,
      "start": 25.3808,
      "duration": 0.5655,
      "velocity": 97,
      "chip": "ym2612"
    },
    {
      "channel": 1,
      "note": 55,
      "start": 25.3982,
      "duration": 0.0876,
      "velocity": 89,
      "chip": "ym2612"
    },
    {
      "channel": 3,
      "note": 86,
      "start": 25.3987,
      "duration": 0.0873,
      "velocity": 95,
      "chip": "ym2612"
    },
    {
      "channel": 1,
      "note": 54,
      "start": 25.5036,
      "duration": 0.0705,
      "velocity": 89,
      "chip": "ym2612"
    },
    {
      "channel": 3,
      "note": 81,
      "start": 25.5063,
      "duration": 0.0682,
      "velocity": 95,
      "chip": "ym2612"
    },
    {
      "channel": 2,
      "note": 44,
      "start": 25.5077,
      "duration": 0.186,
      "velocity": 1,
      "chip": "ym2612"
    },
    {
      "channel": 1,
      "note": 53,
      "start": 25.5915,
      "duration": 0.0845,
      "velocity": 89,
      "chip": "ym2612"
    },
    {
      "channel": 3,
      "note": 87,
      "start": 25.592,
      "duration": 0.0842,
      "velocity": 95,
      "chip": "ym2612"
    },
    {
      "channel": 3,
      "note": 82,
      "start": 25.6959,
      "duration": 0.0702,
      "velocity": 95,
      "chip": "ym2612"
    },
    {
      "channel": 2,
      "note": 34,
      "start": 25.6973,
      "duration": 0.0865,
      "velocity": 1,
      "chip": "ym2612"
    },
    {
      "channel": 3,
      "note": 88,
      "start": 25.7859,
      "duration": 0.0877,
      "velocity": 95,
      "chip": "ym2612"
    },
    {
      "channel": 2,
      "note": 34,
      "start": 25.7874,
      "duration": 0.1046,
      "velocity": 1,
      "chip": "ym2612"
    },
    {
      "channel": 0,
      "note": 86,
      "start": 25.891,
      "duration": 0.5663,
      "velocity": 97,
      "chip": "ym2612"
    },
    {
      "channel": 1,
      "note": 59,
      "start": 25.8915,
      "duration": 0.0712,
      "velocity": 89,
      "chip": "ym2612"
    },
    {
      "channel": 3,
      "note": 81,
      "start": 25.8942,
      "duration": 0.0688,
      "velocity": 95,
      "chip": "ym2612"
    },
    {
      "channel": 2,
      "note": 44,
      "start": 25.8956,
      "duration": 0.1875,
      "velocity": 1,
      "chip": "ym2612"
    },
    {
      "channel": 4,
      "note": 86,
      "start": 25.9293,
      "duration": 0.5647,
      "velocity": 97,
      "chip": "ym2612"
    },
    {
      "channel": 5,
      "note": 86,
      "start": 25.9637,
      "duration": 0.5833,
      "velocity": 97,
      "chip": "ym2612"
    },
    {
      "channel": 1,
      "note": 58,
      "start": 25.9975,
      "duration": 0.0678,
      "velocity": 89,
      "chip": "ym2612"
    },
    {
      "channel": 3,
      "note": 87,
      "start": 25.998,
      "duration": 0.0675,
      "velocity": 95,
      "chip": "ym2612"
    },
    {
      "channel": 1,
      "note": 57,
      "start": 26.0825,
      "duration": 0.09,
      "velocity": 89,
      "chip": "ym2612"
    },
    {
      "channel": 3,
      "note": 80,
      "start": 26.0852,
      "duration": 0.0875,
      "velocity": 95,
      "chip": "ym2612"
    },
    {
      "channel": 2,
      "note": 34,
      "start": 26.0867,
      "duration": 0.1043,
      "velocity": 1,
      "chip": "ym2612"
    },
    {
      "channel": 1,
      "note": 56,
      "start": 26.1904,
      "duration": 0.0727,
      "velocity": 89,
      "chip": "ym2612"
    },
    {
      "channel": 3,
      "note": 86,
      "start": 26.1931,
      "duration": 0.0702,
      "velocity": 95,
      "chip": "ym2612"
    },
    {
      "channel": 2,
      "note": 34,
      "start": 26.1945,
      "duration": 0.0868,
      "velocity": 1,
      "chip": "ym2612"
    },
    {
      "channel": 3,
      "note": 81,
      "start": 26.2835,
      "duration": 0.085,
      "velocity": 95,
      "chip": "ym2612"
    },
    {
      "channel": 2,
      "note": 44,
      "start": 26.2849,
      "duration": 0.1008,
      "velocity": 1,
      "chip": "ym2612"
    },
    {
      "channel": 3,
      "note": 87,
      "start": 26.3878,
      "duration": 0.0702,
      "velocity": 95,
      "chip": "ym2612"
    },
    {
      "channel": 2,
      "note": 34,
      "start": 26.3893,
      "duration": 0.1936,
      "velocity": 1,
      "chip": "ym2612"
    },
    {
      "channel": 0,
      "note": 85,
      "start": 26.4753,
      "duration": 0.588,
      "velocity": 97,
      "chip": "ym2612"
    },
    {
      "channel": 1,
      "note": 63,
      "start": 26.4758,
      "duration": 0.0882,
      "velocity": 89,
      "chip": "ym2612"
    },
    {
      "channel": 3,
      "note": 82,
      "start": 26.4764,
      "duration": 0.0879,
      "velocity": 95,
      "chip": "ym2612"
    },
    {
      "channel": 4,
      "note": 85,
      "start": 26.5293,
      "duration": 0.5732,
      "velocity": 97,
      "chip": "ym2612"
    },
    {
      "channel": 5,
      "note": 85,
      "start": 26.5649,
      "duration": 0.5717,
      "velocity": 97,
      "chip": "ym2612"
    },
    {
      "channel": 1,
      "note": 62,
      "start": 26.5823,
      "duration": 0.0725,
      "velocity": 89,
      "chip": "ym2612"
    },
    {
      "channel": 3,
      "note": 88,
      "start": 26.585,
      "duration": 0.0701,
      "velocity": 95,
      "chip": "ym2612"
    },
    {
      "channel": 2,
      "note": 34,
      "start": 26.5865,
      "duration": 0.0868,
      "velocity": 1,
      "chip": "ym2612"
    },
    {
      "channel": 1,
      "note": 61,
      "start": 26.6727,
      "duration": 0.0875,
      "velocity": 89,
      "chip": "ym2612"
    },
    {
      "channel": 3,
      "note": 81,
      "start": 26.6754,
      "duration": 0.0851,
      "velocity": 95,
      "chip": "ym2612"
    },
    {
      "channel": 2,
      "note": 44,
      "start": 26.6767,
      "duration": 0.1013,
      "velocity": 1,
      "chip": "ym2612"
    },
    {
      "channel": 1,
      "note": 59,
      "start": 26.7774,
      "duration": 0.0727,
      "velocity": 89,
      "chip": "ym2612"
    },
    {
      "channel": 3,
      "note": 87,
      "start": 26.7802,
      "duration": 0.0702,
      "velocity": 95,
      "chip": "ym2612"
    },
    {
      "channel": 2,
      "note": 34,
      "start": 26.7816,
      "duration": 0.1046,
      "velocity": 1,
      "chip": "ym2612"
    },
    {
      "channel": 1,
      "note": 56,
      "start": 26.8856,
      "duration": 0.0726,
      "velocity": 89,
      "chip": "ym2612"
    },
    {
      "channel": 3,
      "note": 80,
      "start": 26.8884,
      "duration": 0.07,
      "velocity": 95,
      "chip": "ym2612"
    },
    {
      "channel": 2,
      "note": 34,
      "start": 26.8899,
      "duration": 0.1926,
      "velocity": 1,
      "chip": "ym2612"
    },
    {
      "channel": 1,
      "note": 55,
      "start": 26.9761,
      "duration": 0.0877,
      "velocity": 89,
      "chip": "ym2612"
    },
    {
      "channel": 3,
      "note": 86,
      "start": 26.9766,
      "duration": 0.0874,
      "velocity": 95,
      "chip": "ym2612"
    },
    {
      "channel": 0,
      "note": 84,
      "start": 27.0814,
      "duration": 0.5608,
      "velocity": 97,
      "chip": "ym2612"
    },
    {
      "channel": 1,
      "note": 54,
      "start": 27.0819,
      "duration": 0.0711,
      "velocity": 89,
      "chip": "ym2612"
    },
    {
      "channel": 3,
      "note": 81,
      "start": 27.0846,
      "duration": 0.0687,
      "velocity": 95,
      "chip": "ym2612"
    },
    {
      "channel": 2,
      "note": 44,
      "start": 27.086,
      "duration": 0.1869,
      "velocity": 1,
      "chip": "ym2612"
    },
    {
      "channel": 4,
      "note": 84,
      "start": 27.1197,
      "duration": 0.5612,
      "velocity": 97,
      "chip": "ym2612"
    },
    {
      "channel": 5,
      "note": 84,
      "start": 27.1539,
      "duration": 0.5624,
      "velocity": 97,
      "chip": "ym2612"
    },
    {
      "channel": 1,
      "note": 53,
      "start": 27.1707,
      "duration": 0.0845,
      "velocity": 89,
      "chip": "ym2612"
    },
    {
      "channel": 3,
      "note": 87,
      "start": 27.1712,
      "duration": 0.0842,
      "velocity": 95,
      "chip": "ym2612"
    },
    {
      "channel": 3,
      "note": 82,
      "start": 27.2751,
      "duration": 0.07,
      "velocity": 95,
      "chip": "ym2612"
    },
    {
      "channel": 2,
      "note": 34,
      "start": 27.2765,
      "duration": 0.0863,
      "velocity": 1,
      "chip": "ym2612"
    },
    {
      "channel": 3,
      "note": 88,
      "start": 27.365,
      "duration": 0.0877,
      "velocity": 95,
      "chip": "ym2612"
    },
    {
      "channel": 2,
      "note": 34,
      "start": 27.3665,
      "duration": 0.1043,
      "velocity": 1,
      "chip": "ym2612"
    },
    {
      "channel": 1,
      "note": 59,
      "start": 27.4702,
      "duration": 0.0706,
      "velocity": 89,
      "chip": "ym2612"
    },
    {
      "channel": 3,
      "note": 81,
      "start": 27.473,
      "duration": 0.0681,
      "velocity": 95,
      "chip": "ym2612"
    },
    {
      "channel": 2,
      "note": 44,
      "start": 27.4743,
      "duration": 0.1864,
      "velocity": 1,
      "chip": "ym2612"
    },
    {
      "channel": 1,
      "note": 58,
      "start": 27.5581,
      "duration": 0.0846,
      "velocity": 89,
      "chip": "ym2612"
    },
    {
      "channel": 3,
      "note": 87,
      "start": 27.5587,
      "duration": 0.0843,
      "velocity": 95,
      "chip": "ym2612"
    },
    {
      "channel": 0,
      "note": 83,
      "start": 27.6597,
      "duration": 0.3765,
      "velocity": 97,
      "chip": "ym2612"
    },
    {
      "channel": 1,
      "note": 57,
      "start": 27.6602,
      "duration": 0.0732,
      "velocity": 89,
      "chip": "ym2612"
    },
    {
      "channel": 3,
      "note": 80,
      "start": 27.6629,
      "duration": 0.0707,
      "velocity": 95,
      "chip": "ym2612"
    },
    {
      "channel": 2,
      "note": 34,
      "start": 27.6644,
      "duration": 0.1054,
      "velocity": 1,
      "chip": "ym2612"
    },
    {
      "channel": 4,
      "note": 83,
      "start": 27.6987,
      "duration": 0.3742,
      "velocity": 97,
      "chip": "ym2612"
    },
    {
      "channel": 5,
      "note": 83,
      "start": 27.7342,
      "duration": 0.3915,
      "velocity": 97,
      "chip": "ym2612"
    },
    {
      "channel": 1,
      "note": 56,
      "start": 27.7692,
      "duration": 0.0725,
      "velocity": 89,
      "chip": "ym2612"
    },
    {
      "channel": 3,
      "note": 86,
      "start": 27.7719,
      "duration": 0.0702,
      "velocity": 95,
      "chip": "ym2612"
    },
    {
      "channel": 2,
      "note": 34,
      "start": 27.7734,
      "duration": 0.0867,
      "velocity": 1,
      "chip": "ym2612"
    },
    {
      "channel": 3,
      "note": 81,
      "start": 27.8622,
      "duration": 0.0852,
      "velocity": 95,
      "chip": "ym2612"
    },
    {
      "channel": 2,
      "note": 44,
      "start": 27.8636,
      "duration": 0.101,
      "velocity": 1,
      "chip": "ym2612"
    },
    {
      "channel": 3,
      "note": 87,
      "start": 27.9667,
      "duration": 0.0702,
      "velocity": 95,
      "chip": "ym2612"
    },
    {
      "channel": 2,
      "note": 34,
      "start": 27.9682,
      "duration": 0.1933,
      "velocity": 1,
      "chip": "ym2612"
    },
    {
      "channel": 0,
      "note": 82,
      "start": 28.0543,
      "duration": 0.3742,
      "velocity": 97,
      "chip": "ym2612"
    },
    {
      "channel": 1,
      "note": 63,
      "start": 28.0548,
      "duration": 0.088,
      "velocity": 89,
      "chip": "ym2612"
    },
    {
      "channel": 3,
      "note": 82,
      "start": 28.0554,
      "duration": 0.0876,
      "velocity": 95,
      "chip": "ym2612"
    },
    {
      "channel": 4,
      "note": 82,
      "start": 28.0907,
      "duration": 0.3951,
      "velocity": 97,
      "chip": "ym2612"
    },
    {
      "channel": 5,
      "note": 82,
      "start": 28.1437,
      "duration": 0.3777,
      "velocity": 97,
      "chip": "ym2612"
    },
    {
      "channel": 1,
      "note": 62,
      "start": 28.161,
      "duration": 0.0727,
      "velocity": 89,
      "chip": "ym2612"
    },
    {
      "channel": 3,
      "note": 88,
      "start": 28.1637,
      "duration": 0.0702,
      "velocity": 95,
      "chip": "ym2612"
    },
    {
      "channel": 2,
      "note": 34,
      "start": 28.1652,
      "duration": 0.0869,
      "velocity": 1,
      "chip": "ym2612"
    },
    {
      "channel": 1,
      "note": 61,
      "start": 28.2515,
      "duration": 0.0875,
      "velocity": 89,
      "chip": "ym2612"
    },
    {
      "channel": 3,
      "note": 81,
      "start": 28.2543,
      "duration": 0.085,
      "velocity": 95,
      "chip": "ym2612"
    },
    {
      "channel": 2,
      "note": 44,
      "start": 28.2556,
      "duration": 0.1012,
      "velocity": 1,
      "chip": "ym2612"
    },
    {
      "channel": 1,
      "note": 59,
      "start": 28.3562,
      "duration": 0.0727,
      "velocity": 89,
      "chip": "ym2612"
    },
    {
      "channel": 3,
      "note": 87,
      "start": 28.359,
      "duration": 0.0702,
      "velocity": 95,
      "chip": "ym2612"
    },
    {
      "channel": 2,
      "note": 34,
      "start": 28.3604,
      "duration": 0.0875,
      "velocity": 1,
      "chip": "ym2612"
    },
    {
      "channel": 0,
      "note": 83,
      "start": 28.4467,
      "duration": 0.0912,
      "velocity": 97,
      "chip": "ym2612"
    },
    {
      "channel": 1,
      "note": 59,
      "start": 28.4474,
      "duration": 0.091,
      "velocity": 89,
      "chip": "ym2612"
    },
    {
      "channel": 3,
      "note": 83,
      "start": 28.4503,
      "duration": 0.0883,
      "velocity": 95,
      "chip": "ym2612"
    },
    {
      "channel": 2,
      "note": 34,
      "start": 28.4518,
      "duration": 0.1947,
      "velocity": 117,
      "chip": "ym2612"
    },
    {
      "channel": 4,
      "note": 83,
      "start": 28.5037,
      "duration": 0.0714,
      "velocity": 97,
      "chip": "ym2612"
    },
    {
      "channel": 5,
      "note": 83,
      "start": 28.5394,
      "duration": 0.0711,
      "velocity": 97,
      "chip": "ym2612"
    },
    {
      "channel": 0,
      "note": 88,
      "start": 28.5565,
      "duration": 0.0706,
      "velocity": 97,
      "chip": "ym2612"
    },
    {
      "channel": 1,
      "note": 58,
      "start": 28.557,
      "duration": 0.0705,
      "velocity": 89,
      "chip": "ym2612"
    },
    {
      "channel": 3,
      "note": 89,
      "start": 28.5576,
      "duration": 0.0702,
      "velocity": 95,
      "chip": "ym2612"
    },
    {
      "channel": 4,
      "note": 88,
      "start": 28.5929,
      "duration": 0.0915,
      "velocity": 97,
      "chip": "ym2612"
    },
    {
      "channel": 5,
      "note": 88,
      "start": 28.6284,
      "duration": 0.0901,
      "velocity": 97,
      "chip": "ym2612"
    },
    {
      "channel": 0,
      "note": 92,
      "start": 28.6634,
      "duration": 0.0712,
      "velocity": 97,
      "chip": "ym2612"
    },
    {
      "channel": 1,
      "note": 57,
      "start": 28.6639,
      "duration": 0.0712,
      "velocity": 89,
      "chip": "ym2612"
    },
    {
      "channel": 3,
      "note": 84,
      "start": 28.6666,
      "duration": 0.0688,
      "velocity": 95,
      "chip": "ym2612"
    },
    {
      "channel": 2,
      "note": 44,
      "start": 28.6679,
      "duration": 0.1884,
      "velocity": 1,
      "chip": "ym2612"
    },
    {
      "channel": 4,
      "note": 92,
      "start": 28.7017,
      "duration": 0.0688,
      "velocity": 97,
      "chip": "ym2612"
    },
    {
      "channel": 5,
      "note": 92,
      "start": 28.736,
      "duration": 0.0686,
      "velocity": 97,
      "chip": "ym2612"
    },
    {
      "channel": 0,
      "note": 95,
      "start": 28.7524,
      "duration": 0.0852,
      "velocity": 97,
      "chip": "ym2612"
    },
    {
      "channel": 1,
      "note": 56,
      "start": 28.7529,
      "duration": 0.0851,
      "velocity": 89,
      "chip": "ym2612"
    },
    {
      "channel": 3,
      "note": 90,
      "start": 28.7535,
      "duration": 0.0848,
      "velocity": 95,
      "chip": "ym2612"
    },
    {
      "channel": 4,
      "note": 95,
      "start": 28.7877,
      "duration": 0.0888,
      "velocity": 97,
      "chip": "ym2612"
    },
    {
      "channel": 5,
      "note": 95,
      "start": 28.8389,
      "duration": 0.0729,
      "velocity": 97,
      "chip": "ym2612"
    },
    {
      "channel": 0,
      "note": 96,
      "start": 28.8554,
      "duration": 1.1549,
      "velocity": 97,
      "chip": "ym2612"
    },
    {
      "channel": 3,
      "note": 85,
      "start": 28.8585,
      "duration": 0.0705,
      "velocity": 95,
      "chip": "ym2612"
    },
    {
      "channel": 2,
      "note": 34,
      "start": 28.86,
      "duration": 0.0873,
      "velocity": 1,
      "chip": "ym2612"
    },
    {
      "channel": 4,
      "note": 96,
      "start": 28.8942,
      "duration": 1.1555,
      "velocity": 97,
      "chip": "ym2612"
    },
    {
      "channel": 5,
      "note": 96,
      "start": 28.9297,
      "duration": 1.1729,
      "velocity": 97,
      "chip": "ym2612"
    },
    {
      "channel": 3,
      "note": 91,
      "start": 28.9494,
      "duration": 0.0876,
      "velocity": 95,
      "chip": "ym2612"
    },
    {
      "channel": 2,
      "note": 34,
      "start": 28.9509,
      "duration": 0.1043,
      "velocity": 1,
      "chip": "ym2612"
    },
    {
      "channel": 1,
      "note": 62,
      "start": 29.0546,
      "duration": 0.0706,
      "velocity": 89,
      "chip": "ym2612"
    },
    {
      "channel": 3,
      "note": 84,
      "start": 29.0573,
      "duration": 0.0681,
      "velocity": 95,
      "chip": "ym2612"
    },
    {
      "channel": 2,
      "note": 44,
      "start": 29.0587,
      "duration": 0.1861,
      "velocity": 1,
      "chip": "ym2612"
    },
    {
      "channel": 1,
      "note": 61,
      "start": 29.1424,
      "duration": 0.0845,
      "velocity": 89,
      "chip": "ym2612"
    },
    {
      "channel": 3,
      "note": 90,
      "start": 29.143,
      "duration": 0.0842,
      "velocity": 95,
      "chip": "ym2612"
    },
    {
      "channel": 1,
      "note": 60,
      "start": 29.2441,
      "duration": 0.0727,
      "velocity": 89,
      "chip": "ym2612"
    },
    {
      "channel": 3,
      "note": 83,
      "start": 29.2469,
      "duration": 0.0702,
      "velocity": 95,
      "chip": "ym2612"
    },
    {
      "channel": 2,
      "note": 34,
      "start": 29.2484,
      "duration": 0.0868,
      "velocity": 1,
      "chip": "ym2612"
    },
    {
      "channel": 1,
      "note": 59,
      "start": 29.3347,
      "duration": 0.09,
      "velocity": 89,
      "chip": "ym2612"
    },
    {
      "channel": 3,
      "note": 89,
      "start": 29.3374,
      "duration": 0.0876,
      "velocity": 95,
      "chip": "ym2612"
    },
    {
      "channel": 2,
      "note": 34,
      "start": 29.3389,
      "duration": 0.1042,
      "velocity": 1,
      "chip": "ym2612"
    },
    {
      "channel": 3,
      "note": 84,
      "start": 29.4452,
      "duration": 0.0683,
      "velocity": 95,
      "chip": "ym2612"
    },
    {
      "channel": 2,
      "note": 44,
      "start": 29.4466,
      "duration": 0.101,
      "velocity": 1,
      "chip": "ym2612"
    },
    {
      "channel": 3,
      "note": 90,
      "start": 29.5498,
      "duration": 0.0701,
      "velocity": 95,
      "chip": "ym2612"
    },
    {
      "channel": 2,
      "note": 34,
      "start": 29.5513,
      "duration": 0.1921,
      "velocity": 1,
      "chip": "ym2612"
    },
    {
      "channel": 1,
      "note": 66,
      "start": 29.6375,
      "duration": 0.0875,
      "velocity": 89,
      "chip": "ym2612"
    },
    {
      "channel": 3,
      "note": 85,
      "start": 29.638,
      "duration": 0.0871,
      "velocity": 95,
      "chip": "ym2612"
    },
    {
      "channel": 1,
      "note": 65,
      "start": 29.7428,
      "duration": 0.0727,
      "velocity": 89,
      "chip": "ym2612"
    },
    {
      "channel": 3,
      "note": 91,
      "start": 29.7456,
      "duration": 0.0702,
      "velocity": 95,
      "chip": "ym2612"
    },
    {
      "channel": 2,
      "note": 34,
      "start": 29.747,
      "duration": 0.0869,
      "velocity": 1,
      "chip": "ym2612"
    },
    {
      "channel": 1,
      "note": 64,
      "start": 29.8334,
      "duration": 0.0875,
      "velocity": 89,
      "chip": "ym2612"
    },
    {
      "channel": 3,
      "note": 84,
      "start": 29.8361,
      "duration": 0.0851,
      "velocity": 95,
      "chip": "ym2612"
    },
    {
      "channel": 2,
      "note": 44,
      "start": 29.8374,
      "duration": 0.1013,
      "velocity": 1,
      "chip": "ym2612"
    },
    {
      "channel": 1,
      "note": 62,
      "start": 29.9382,
      "duration": 0.0726,
      "velocity": 89,
      "chip": "ym2612"
    },
    {
      "channel": 3,
      "note": 90,
      "start": 29.9408,
      "duration": 0.0702,
      "velocity": 95,
      "chip": "ym2612"
    },
    {
      "channel": 2,
      "note": 34,
      "start": 29.9423,
      "duration": 0.0871,
      "velocity": 1,
      "chip": "ym2612"
    },
    {
      "channel": 0,
      "note": 95,
      "start": 30.0283,
      "duration": 0.584,
      "velocity": 97,
      "chip": "ym2612"
    },
    {
      "channel": 1,
      "note": 59,
      "start": 30.0288,
      "duration": 0.0908,
      "velocity": 89,
      "chip": "ym2612"
    },
    {
      "channel": 3,
      "note": 83,
      "start": 30.0317,
      "duration": 0.0882,
      "velocity": 95,
      "chip": "ym2612"
    },
    {
      "channel": 2,
      "note": 34,
      "start": 30.0332,
      "duration": 0.1931,
      "velocity": 1,
      "chip": "ym2612"
    },
    {
      "channel": 4,
      "note": 95,
      "start": 30.085,
      "duration": 0.5665,
      "velocity": 97,
      "chip": "ym2612"
    },
    {
      "channel": 5,
      "note": 95,
      "start": 30.1205,
      "duration": 0.5651,
      "velocity": 97,
      "chip": "ym2612"
    },
    {
      "channel": 1,
      "note": 58,
      "start": 30.1378,
      "duration": 0.07,
      "velocity": 89,
      "chip": "ym2612"
    },
    {
      "channel": 3,
      "note": 89,
      "start": 30.1384,
      "duration": 0.0697,
      "velocity": 95,
      "chip": "ym2612"
    },
    {
      "channel": 1,
      "note": 57,
      "start": 30.2258,
      "duration": 0.0877,
      "velocity": 89,
      "chip": "ym2612"
    },
    {
      "channel": 3,
      "note": 84,
      "start": 30.2284,
      "duration": 0.0852,
      "velocity": 95,
      "chip": "ym2612"
    },
    {
      "channel": 2,
      "note": 44,
      "start": 30.2298,
      "duration": 0.2034,
      "velocity": 1,
      "chip": "ym2612"
    },
    {
      "channel": 1,
      "note": 56,
      "start": 30.3307,
      "duration": 0.0678,
      "velocity": 89,
      "chip": "ym2612"
    },
    {
      "channel": 3,
      "note": 90,
      "start": 30.3313,
      "duration": 0.0674,
      "velocity": 95,
      "chip": "ym2612"
    },
    {
      "channel": 3,
      "note": 85,
      "start": 30.4354,
      "duration": 0.07,
      "velocity": 95,
      "chip": "ym2612"
    },
    {
      "channel": 2,
      "note": 34,
      "start": 30.4369,
      "duration": 0.0863,
      "velocity": 1,
      "chip": "ym2612"
    },
    {
      "channel": 3,
      "note": 91,
      "start": 30.5253,
      "duration": 0.0877,
      "velocity": 95,
      "chip": "ym2612"
    },
    {
      "channel": 2,
      "note": 34,
      "start": 30.5268,
      "duration": 0.1047,
      "velocity": 1,
      "chip": "ym2612"
    },
    {
      "channel": 0,
      "note": 94,
      "start": 30.6304,
      "duration": 0.5664,
      "velocity": 97,
      "chip": "ym2612"
    },
    {
      "channel": 1,
      "note": 62,
      "start": 30.6309,
      "duration": 0.0711,
      "velocity": 89,
      "chip": "ym2612"
    },
    {
      "channel": 3,
      "note": 84,
      "start": 30.6336,
      "duration": 0.0686,
      "velocity": 95,
      "chip": "ym2612"
    },
    {
      "channel": 2,
      "note": 44,
      "start": 30.635,
      "duration": 0.1869,
      "velocity": 1,
      "chip": "ym2612"
    },
    {
      "channel": 4,
      "note": 94,
      "start": 30.6686,
      "duration": 0.5649,
      "velocity": 97,
      "chip": "ym2612"
    },
    {
      "channel": 5,
      "note": 94,
      "start": 30.7029,
      "duration": 0.566,
      "velocity": 97,
      "chip": "ym2612"
    },
    {
      "channel": 1,
      "note": 61,
      "start": 30.7196,
      "duration": 0.0845,
      "velocity": 89,
      "chip": "ym2612"
    },
    {
      "channel": 3,
      "note": 90,
      "start": 30.7202,
      "duration": 0.0842,
      "velocity": 95,
      "chip": "ym2612"
    },
    {
      "channel": 1,
      "note": 60,
      "start": 30.8213,
      "duration": 0.0725,
      "velocity": 89,
      "chip": "ym2612"
    },
    {
      "channel": 3,
      "note": 83,
      "start": 30.824,
      "duration": 0.07,
      "velocity": 95,
      "chip": "ym2612"
    },
    {
      "channel": 2,
      "note": 34,
      "start": 30.8255,
      "duration": 0.0867,
      "velocity": 1,
      "chip": "ym2612"
    },
    {
      "channel": 1,
      "note": 59,
      "start": 30.9117,
      "duration": 0.0901,
      "velocity": 89,
      "chip": "ym2612"
    },
    {
      "channel": 3,
      "note": 89,
      "start": 30.9144,
      "duration": 0.0877,
      "velocity": 95,
      "chip": "ym2612"
    },
    {
      "channel": 2,
      "note": 34,
      "start": 30.9159,
      "duration": 0.1043,
      "velocity": 1,
      "chip": "ym2612"
    },
    {
      "channel": 3,
      "note": 84,
      "start": 31.0223,
      "duration": 0.068,
      "velocity": 95,
      "chip": "ym2612"
    },
    {
      "channel": 2,
      "note": 44,
      "start": 31.0237,
      "duration": 0.0839,
      "velocity": 1,
      "chip": "ym2612"
    },
    {
      "channel": 3,
      "note": 90,
      "start": 31.1097,
      "duration": 0.0878,
      "velocity": 95,
      "chip": "ym2612"
    },
    {
      "channel": 2,
      "note": 34,
      "start": 31.1112,
      "duration": 0.1935,
      "velocity": 117,
      "chip": "ym2612"
    },
    {
      "channel": 0,
      "note": 91,
      "start": 31.2149,
      "duration": 0.3745,
      "velocity": 97,
      "chip": "ym2612"
    },
    {
      "channel": 1,
      "note": 66,
      "start": 31.2154,
      "duration": 0.0705,
      "velocity": 89,
      "chip": "ym2612"
    },
    {
      "channel": 3,
      "note": 85,
      "start": 31.216,
      "duration": 0.0702,
      "velocity": 95,
      "chip": "ym2612"
    },
    {
      "channel": 4,
      "note": 91,
      "start": 31.2513,
      "duration": 0.3773,
      "velocity": 97,
      "chip": "ym2612"
    },
    {
      "channel": 5,
      "note": 91,
      "start": 31.2868,
      "duration": 0.3949,
      "velocity": 97,
      "chip": "ym2612"
    },
    {
      "channel": 1,
      "note": 65,
      "start": 31.3219,
      "duration": 0.0725,
      "velocity": 89,
      "chip": "ym2612"
    },
    {
      "channel": 3,
      "note": 91,
      "start": 31.3246,
      "duration": 0.0702,
      "velocity": 95,
      "chip": "ym2612"
    },
    {
      "channel": 2,
      "note": 34,
      "start": 31.326,
      "duration": 0.0869,
      "velocity": 1,
      "chip": "ym2612"
    },
    {
      "channel": 1,
      "note": 64,
      "start": 31.4123,
      "duration": 0.0876,
      "velocity": 89,
      "chip": "ym2612"
    },
    {
      "channel": 3,
      "note": 84,
      "start": 31.4151,
      "duration": 0.0851,
      "velocity": 95,
      "chip": "ym2612"
    },
    {
      "channel": 2,
      "note": 44,
      "start": 31.4164,
      "duration": 0.1013,
      "velocity": 1,
      "chip": "ym2612"
    },
    {
      "channel": 1,
      "note": 62,
      "start": 31.5172,
      "duration": 0.0727,
      "velocity": 89,
      "chip": "ym2612"
    },
    {
      "channel": 3,
      "note": 90,
      "start": 31.5199,
      "duration": 0.0702,
      "velocity": 95,
      "chip": "ym2612"
    },
    {
      "channel": 2,
      "note": 34,
      "start": 31.5214,
      "duration": 0.0871,
      "velocity": 1,
      "chip": "ym2612"
    },
    {
      "channel": 0,
      "note": 83,
      "start": 31.6074,
      "duration": 0.091,
      "velocity": 97,
      "chip": "ym2612"
    },
    {
      "channel": 1,
      "note": 59,
      "start": 31.6079,
      "duration": 0.0909,
      "velocity": 89,
      "chip": "ym2612"
    },
    {
      "channel": 3,
      "note": 83,
      "start": 31.6107,
      "duration": 0.0884,
      "velocity": 95,
      "chip": "ym2612"
    },
    {
      "channel": 2,
      "note": 34,
      "start": 31.6122,
      "duration": 0.1947,
      "velocity": 1,
      "chip": "ym2612"
    },
    {
      "channel": 4,
      "note": 83,
      "start": 31.6465,
      "duration": 0.0889,
      "velocity": 97,
      "chip": "ym2612"
    },
    {
      "channel": 5,
      "note": 83,
      "start": 31.6997,
      "duration": 0.0711,
      "velocity": 97,
      "chip": "ym2612"
    },
    {
      "channel": 0,
      "note": 88,
      "start": 31.7167,
      "duration": 0.0707,
      "velocity": 97,
      "chip": "ym2612"
    },
    {
      "channel": 1,
      "note": 58,
      "start": 31.7172,
      "duration": 0.0706,
      "velocity": 89,
      "chip": "ym2612"
    },
    {
      "channel": 3,
      "note": 89,
      "start": 31.7178,
      "duration": 0.0703,
      "velocity": 95,
      "chip": "ym2612"
    },
    {
      "channel": 4,
      "note": 88,
      "start": 31.7532,
      "duration": 0.0737,
      "velocity": 97,
      "chip": "ym2612"
    },
    {
      "channel": 5,
      "note": 88,
      "start": 31.7887,
      "duration": 0.0892,
      "velocity": 97,
      "chip": "ym2612"
    },
    {
      "channel": 0,
      "note": 92,
      "start": 31.8058,
      "duration": 0.0882,
      "velocity": 97,
      "chip": "ym2612"
    },
    {
      "channel": 1,
      "note": 57,
      "start": 31.8063,
      "duration": 0.0881,
      "velocity": 89,
      "chip": "ym2612"
    },
    {
      "channel": 3,
      "note": 84,
      "start": 31.809,
      "duration": 0.0857,
      "velocity": 95,
      "chip": "ym2612"
    },
    {
      "channel": 2,
      "note": 44,
      "start": 31.8104,
      "duration": 0.1885,
      "velocity": 1,
      "chip": "ym2612"
    },
    {
      "channel": 4,
      "note": 92,
      "start": 31.861,
      "duration": 0.0689,
      "velocity": 97,
      "chip": "ym2612"
    },
    {
      "channel": 5,
      "note": 92,
      "start": 31.8953,
      "duration": 0.0688,
      "velocity": 97,
      "chip": "ym2612"
    },
    {
      "channel": 0,
      "note": 95,
      "start": 31.9117,
      "duration": 0.0685,
      "velocity": 97,
      "chip": "ym2612"
    },
    {
      "channel": 1,
      "note": 56,
      "start": 31.9122,
      "duration": 0.0684,
      "velocity": 89,
      "chip": "ym2612"
    },
    {
      "channel": 3,
      "note": 90,
      "start": 31.9129,
      "duration": 0.068,
      "velocity": 95,
      "chip": "ym2612"
    },
    {
      "channel": 4,
      "note": 95,
      "start": 31.9471,
      "duration": 0.0895,
      "velocity": 97,
      "chip": "ym2612"
    },
    {
      "channel": 5,
      "note": 95,
      "start": 31.9815,
      "duration": 0.0905,
      "velocity": 97,
      "chip": "ym2612"
    },
    {
      "channel": 0,
      "note": 96,
      "start": 31.998,
      "duration": 1.1735,
      "velocity": 97,
      "chip": "ym2612"
    },
    {
      "channel": 3,
      "note": 85,
      "start": 32.0011,
      "duration": 0.088,
      "velocity": 95,
      "chip": "ym2612"
    },
    {
      "channel": 2,
      "note": 34,
      "start": 32.0025,
      "duration": 0.1048,
      "velocity": 1,
      "chip": "ym2612"
    },
    {
      "channel": 4,
      "note": 96,
      "start": 32.0543,
      "duration": 1.1563,
      "velocity": 97,
      "chip": "ym2612"
    },
    {
      "channel": 5,
      "note": 96,
      "start": 32.0898,
      "duration": 1.1564,
      "velocity": 97,
      "chip": "ym2612"
    },
    {
      "channel": 3,
      "note": 91,
      "start": 32.1094,
      "duration": 0.0702,
      "velocity": 95,
      "chip": "ym2612"
    },
    {
      "channel": 2,
      "note": 34,
      "start": 32.1109,
      "duration": 0.1046,
      "velocity": 1,
      "chip": "ym2612"
    },
    {
      "channel": 1,
      "note": 62,
      "start": 32.2149,
      "duration": 0.0705,
      "velocity": 89,
      "chip": "ym2612"
    },
    {
      "channel": 3,
      "note": 84,
      "start": 32.2176,
      "duration": 0.0682,
      "velocity": 95,
      "chip": "ym2612"
    },
    {
      "channel": 2,
      "note": 44,
      "start": 32.219,
      "duration": 0.1861,
      "velocity": 1,
      "chip": "ym2612"
    },
    {
      "channel": 1,
      "note": 61,
      "start": 32.3028,
      "duration": 0.0845,
      "velocity": 89,
      "chip": "ym2612"
    },
    {
      "channel": 3,
      "note": 90,
      "start": 32.3034,
      "duration": 0.0841,
      "velocity": 95,
      "chip": "ym2612"
    },
    {
      "channel": 1,
      "note": 60,
      "start": 32.4045,
      "duration": 0.0725,
      "velocity": 89,
      "chip": "ym2612"
    },
    {
      "channel": 3,
      "note": 83,
      "start": 32.4073,
      "duration": 0.07,
      "velocity": 95,
      "chip": "ym2612"
    },
    {
      "channel": 2,
      "note": 34,
      "start": 32.4087,
      "duration": 0.0867,
      "velocity": 1,
      "chip": "ym2612"
    },
    {
      "channel": 1,
      "note": 59,
      "start": 32.4949,
      "duration": 0.0901,
      "velocity": 89,
      "chip": "ym2612"
    },
    {
      "channel": 3,
      "note": 89,
      "start": 32.4976,
      "duration": 0.0877,
      "velocity": 95,
      "chip": "ym2612"
    },
    {
      "channel": 2,
      "note": 34,
      "start": 32.4991,
      "duration": 0.1043,
      "velocity": 1,
      "chip": "ym2612"
    },
    {
      "channel": 3,
      "note": 84,
      "start": 32.6055,
      "duration": 0.0681,
      "velocity": 95,
      "chip": "ym2612"
    },
    {
      "channel": 2,
      "note": 44,
      "start": 32.6069,
      "duration": 0.0839,
      "velocity": 1,
      "chip": "ym2612"
    },
    {
      "channel": 3,
      "note": 90,
      "start": 32.6929,
      "duration": 0.0877,
      "velocity": 95,
      "chip": "ym2612"
    },
    {
      "channel": 2,
      "note": 34,
      "start": 32.6944,
      "duration": 0.1924,
      "velocity": 1,
      "chip": "ym2612"
    },
    {
      "channel": 1,
      "note": 66,
      "start": 32.7983,
      "duration": 0.07,
      "velocity": 89,
      "chip": "ym2612"
    },
    {
      "channel": 3,
      "note": 85,
      "start": 32.7989,
      "duration": 0.0697,
      "velocity": 95,
      "chip": "ym2612"
    },
    {
      "channel": 1,
      "note": 65,
      "start": 32.8863,
      "duration": 0.09,
      "velocity": 89,
      "chip": "ym2612"
    },
    {
      "channel": 3,
      "note": 91,
      "start": 32.889,
      "duration": 0.0875,
      "velocity": 95,
      "chip": "ym2612"
    },
    {
      "channel": 2,
      "note": 34,
      "start": 32.8905,
      "duration": 0.1042,
      "velocity": 1,
      "chip": "ym2612"
    },
    {
      "channel": 1,
      "note": 64,
      "start": 32.9941,
      "duration": 0.0708,
      "velocity": 89,
      "chip": "ym2612"
    },
    {
      "channel": 3,
      "note": 84,
      "start": 32.9968,
      "duration": 0.0684,
      "velocity": 95,
      "chip": "ym2612"
    },
    {
      "channel": 2,
      "note": 44,
      "start": 32.9982,
      "duration": 0.1017,
      "velocity": 1,
      "chip": "ym2612"
    },
    {
      "channel": 1,
      "note": 62,
      "start": 33.0993,
      "duration": 0.0726,
      "velocity": 89,
      "chip": "ym2612"
    },
    {
      "channel": 3,
      "note": 90,
      "start": 33.102,
      "duration": 0.0702,
      "velocity": 95,
      "chip": "ym2612"
    },
    {
      "channel": 2,
      "note": 34,
      "start": 33.1034,
      "duration": 0.0871,
      "velocity": 1,
      "chip": "ym2612"
    },
    {
      "channel": 0,
      "note": 101,
      "start": 33.1894,
      "duration": 0.5669,
      "velocity": 97,
      "chip": "ym2612"
    },
    {
      "channel": 1,
      "note": 59,
      "start": 33.19,
      "duration": 0.0908,
      "velocity": 89,
      "chip": "ym2612"
    },
    {
      "channel": 3,
      "note": 83,
      "start": 33.1927,
      "duration": 0.0884,
      "velocity": 95,
      "chip": "ym2612"
    },
    {
      "channel": 2,
      "note": 34,
      "start": 33.1942,
      "duration": 0.1934,
      "velocity": 1,
      "chip": "ym2612"
    },
    {
      "channel": 4,
      "note": 101,
      "start": 33.2285,
      "duration": 0.5838,
      "velocity": 97,
      "chip": "ym2612"
    },
    {
      "channel": 5,
      "note": 101,
      "start": 33.2817,
      "duration": 0.5648,
      "velocity": 97,
      "chip": "ym2612"
    },
    {
      "channel": 1,
      "note": 58,
      "start": 33.2991,
      "duration": 0.07,
      "velocity": 89,
      "chip": "ym2612"
    },
    {
      "channel": 3,
      "note": 89,
      "start": 33.2997,
      "duration": 0.0698,
      "velocity": 95,
      "chip": "ym2612"
    },
    {
      "channel": 1,
      "note": 57,
      "start": 33.387,
      "duration": 0.0875,
      "velocity": 89,
      "chip": "ym2612"
    },
    {
      "channel": 3,
      "note": 84,
      "start": 33.3897,
      "duration": 0.0851,
      "velocity": 95,
      "chip": "ym2612"
    },
    {
      "channel": 2,
      "note": 44,
      "start": 33.3911,
      "duration": 0.186,
      "velocity": 1,
      "chip": "ym2612"
    },
    {
      "channel": 1,
      "note": 56,
      "start": 33.4918,
      "duration": 0.0676,
      "velocity": 89,
      "chip": "ym2612"
    },
    {
      "channel": 3,
      "note": 90,
      "start": 33.4924,
      "duration": 0.0673,
      "velocity": 95,
      "chip": "ym2612"
    },
    {
      "channel": 3,
      "note": 85,
      "start": 33.5793,
      "duration": 0.0876,
      "velocity": 95,
      "chip": "ym2612"
    },
    {
      "channel": 2,
      "note": 34,
      "start": 33.5807,
      "duration": 0.104,
      "velocity": 1,
      "chip": "ym2612"
    },
    {
      "channel": 3,
      "note": 91,
      "start": 33.6868,
      "duration": 0.0702,
      "velocity": 95,
      "chip": "ym2612"
    },
    {
      "channel": 2,
      "note": 34,
      "start": 33.6883,
      "duration": 0.0871,
      "velocity": 1,
      "chip": "ym2612"
    },
    {
      "channel": 0,
      "note": 100,
      "start": 33.7744,
      "duration": 0.5839,
      "velocity": 97,
      "chip": "ym2612"
    },
    {
      "channel": 1,
      "note": 62,
      "start": 33.7749,
      "duration": 0.0882,
      "velocity": 89,
      "chip": "ym2612"
    },
    {
      "channel": 3,
      "note": 84,
      "start": 33.7776,
      "duration": 0.0857,
      "velocity": 95,
      "chip": "ym2612"
    },
    {
      "channel": 2,
      "note": 44,
      "start": 33.7789,
      "duration": 0.2044,
      "velocity": 1,
      "chip": "ym2612"
    },
    {
      "channel": 4,
      "note": 100,
      "start": 33.8296,
      "duration": 0.5653,
      "velocity": 97,
      "chip": "ym2612"
    },
    {
      "channel": 5,
      "note": 100,
      "start": 33.8639,
      "duration": 0.5664,
      "velocity": 97,
      "chip": "ym2612"
    },
    {
      "channel": 1,
      "note": 61,
      "start": 33.8807,
      "duration": 0.0678,
      "velocity": 89,
      "chip": "ym2612"
    },
    {
      "channel": 3,
      "note": 90,
      "start": 33.8812,
      "duration": 0.0675,
      "velocity": 95,
      "chip": "ym2612"
    },
    {
      "channel": 1,
      "note": 60,
      "start": 33.9828,
      "duration": 0.0726,
      "velocity": 89,
      "chip": "ym2612"
    },
    {
      "channel": 3,
      "note": 83,
      "start": 33.9855,
      "duration": 0.0701,
      "velocity": 95,
      "chip": "ym2612"
    },
    {
      "channel": 2,
      "note": 34,
      "start": 33.987,
      "duration": 0.0868,
      "velocity": 1,
      "chip": "ym2612"
    },
    {
      "channel": 1,
      "note": 59,
      "start": 34.0732,
      "duration": 0.0901,
      "velocity": 89,
      "chip": "ym2612"
    },
    {
      "channel": 3,
      "note": 89,
      "start": 34.0759,
      "duration": 0.0877,
      "velocity": 95,
      "chip": "ym2612"
    },
    {
      "channel": 2,
      "note": 34,
      "start": 34.0773,
      "duration": 0.1043,
      "velocity": 1,
      "chip": "ym2612"
    },
    {
      "channel": 3,
      "note": 84,
      "start": 34.1838,
      "duration": 0.0681,
      "velocity": 95,
      "chip": "ym2612"
    },
    {
      "channel": 2,
      "note": 44,
      "start": 34.1852,
      "duration": 0.0839,
      "velocity": 1,
      "chip": "ym2612"
    },
    {
      "channel": 3,
      "note": 90,
      "start": 34.2712,
      "duration": 0.0877,
      "velocity": 95,
      "chip": "ym2612"
    },
    {
      "channel": 2,
      "note": 34,
      "start": 34.2727,
      "duration": 0.1936,
      "velocity": 1,
      "chip": "ym2612"
    },
    {
      "channel": 0,
      "note": 99,
      "start": 34.3762,
      "duration": 0.375,
      "velocity": 97,
      "chip": "ym2612"
    },
    {
      "channel": 1,
      "note": 66,
      "start": 34.3767,
      "duration": 0.0707,
      "velocity": 89,
      "chip": "ym2612"
    },
    {
      "channel": 3,
      "note": 85,
      "start": 34.3773,
      "duration": 0.0704,
      "velocity": 95,
      "chip": "ym2612"
    },
    {
      "channel": 4,
      "note": 99,
      "start": 34.4127,
      "duration": 0.3778,
      "velocity": 97,
      "chip": "ym2612"
    },
    {
      "channel": 5,
      "note": 99,
      "start": 34.4483,
      "duration": 0.3776,
      "velocity": 97,
      "chip": "ym2612"
    },
    {
      "channel": 1,
      "note": 65,
      "start": 34.4657,
      "duration": 0.09,
      "velocity": 89,
      "chip": "ym2612"
    },
    {
      "channel": 3,
      "note": 91,
      "start": 34.4684,
      "duration": 0.0877,
      "velocity": 95,
      "chip": "ym2612"
    },
    {
      "channel": 2,
      "note": 34,
      "start": 34.4698,
      "duration": 0.1043,
      "velocity": 1,
      "chip": "ym2612"
    },
    {
      "channel": 1,
      "note": 64,
      "start": 34.5736,
      "duration": 0.0706,
      "velocity": 89,
      "chip": "ym2612"
    },
    {
      "channel": 3,
      "note": 84,
      "start": 34.5763,
      "duration": 0.0682,
      "velocity": 95,
      "chip": "ym2612"
    },
    {
      "channel": 2,
      "note": 44,
      "start": 34.5777,
      "duration": 0.0844,
      "velocity": 1,
      "chip": "ym2612"
    },
    {
      "channel": 1,
      "note": 62,
      "start": 34.6615,
      "duration": 0.0902,
      "velocity": 89,
      "chip": "ym2612"
    },
    {
      "channel": 3,
      "note": 90,
      "start": 34.6642,
      "duration": 0.0878,
      "velocity": 95,
      "chip": "ym2612"
    },
    {
      "channel": 2,
      "note": 34,
      "start": 34.6656,
      "duration": 0.1047,
      "velocity": 1,
      "chip": "ym2612"
    },
    {
      "channel": 0,
      "note": 83,
      "start": 34.7693,
      "duration": 0.0732,
      "velocity": 97,
      "chip": "ym2612"
    },
    {
      "channel": 1,
      "note": 59,
      "start": 34.7698,
      "duration": 0.0732,
      "velocity": 89,
      "chip": "ym2612"
    },
    {
      "channel": 3,
      "note": 83,
      "start": 34.7725,
      "duration": 0.0707,
      "velocity": 95,
      "chip": "ym2612"
    },
    {
      "channel": 2,
      "note": 34,
      "start": 34.774,
      "duration": 0.1948,
      "velocity": 1,
      "chip": "ym2612"
    },
    {
      "channel": 4,
      "note": 83,
      "start": 34.8083,
      "duration": 0.089,
      "velocity": 97,
      "chip": "ym2612"
    },
    {
      "channel": 5,
      "note": 83,
      "start": 34.8438,
      "duration": 0.0889,
      "velocity": 97,
      "chip": "ym2612"
    },
    {
      "channel": 0,
      "note": 88,
      "start": 34.8786,
      "duration": 0.0707,
      "velocity": 97,
      "chip": "ym2612"
    },
    {
      "channel": 1,
      "note": 58,
      "start": 34.8791,
      "duration": 0.0707,
      "velocity": 89,
      "chip": "ym2612"
    },
    {
      "channel": 3,
      "note": 89,
      "start": 34.8797,
      "duration": 0.0704,
      "velocity": 95,
      "chip": "ym2612"
    },
    {
      "channel": 4,
      "note": 88,
      "start": 34.9151,
      "duration": 0.0737,
      "velocity": 97,
      "chip": "ym2612"
    },
    {
      "channel": 5,
      "note": 88,
      "start": 34.9507,
      "duration": 0.0723,
      "velocity": 97,
      "chip": "ym2612"
    },
    {
      "channel": 0,
      "note": 92,
      "start": 34.9678,
      "duration": 0.0882,
      "velocity": 97,
      "chip": "ym2612"
    },
    {
      "channel": 1,
      "note": 57,
      "start": 34.9683,
      "duration": 0.0882,
      "velocity": 89,
      "chip": "ym2612"
    },
    {
      "channel": 3,
      "note": 84,
      "start": 34.971,
      "duration": 0.0857,
      "velocity": 95,
      "chip": "ym2612"
    },
    {
      "channel": 2,
      "note": 44,
      "start": 34.9723,
      "duration": 0.1883,
      "velocity": 1,
      "chip": "ym2612"
    },
    {
      "channel": 4,
      "note": 92,
      "start": 35.0061,
      "duration": 0.0857,
      "velocity": 97,
      "chip": "ym2612"
    },
    {
      "channel": 5,
      "note": 92,
      "start": 35.0573,
      "duration": 0.0686,
      "velocity": 97,
      "chip": "ym2612"
    },
    {
      "channel": 0,
      "note": 95,
      "start": 35.0737,
      "duration": 0.0682,
      "velocity": 97,
      "chip": "ym2612"
    },
    {
      "channel": 1,
      "note": 56,
      "start": 35.0742,
      "duration": 0.0681,
      "velocity": 89,
      "chip": "ym2612"
    },
    {
      "channel": 3,
      "note": 90,
      "start": 35.0748,
      "duration": 0.0679,
      "velocity": 95,
      "chip": "ym2612"
    },
    {
      "channel": 4,
      "note": 95,
      "start": 35.109,
      "duration": 0.0719,
      "velocity": 97,
      "chip": "ym2612"
    },
    {
      "channel": 5,
      "note": 95,
      "start": 35.1433,
      "duration": 0.0905,
      "velocity": 97,
      "chip": "ym2612"
    },
    {
      "channel": 0,
      "note": 96,
      "start": 35.1597,
      "duration": 1.1741,
      "velocity": 97,
      "chip": "ym2612"
    },
    {
      "channel": 3,
      "note": 85,
      "start": 35.1629,
      "duration": 0.0882,
      "velocity": 95,
      "chip": "ym2612"
    },
    {
      "channel": 2,
      "note": 34,
      "start": 35.1644,
      "duration": 0.1048,
      "velocity": 1,
      "chip": "ym2612"
    },
    {
      "channel": 4,
      "note": 96,
      "start": 35.1987,
      "duration": 1.1744,
      "velocity": 97,
      "chip": "ym2612"
    },
    {
      "channel": 5,
      "note": 96,
      "start": 35.2517,
      "duration": 1.1569,
      "velocity": 97,
      "chip": "ym2612"
    },
    {
      "channel": 3,
      "note": 91,
      "start": 35.2713,
      "duration": 0.0702,
      "velocity": 95,
      "chip": "ym2612"
    },
    {
      "channel": 2,
      "note": 34,
      "start": 35.2728,
      "duration": 0.0868,
      "velocity": 1,
      "chip": "ym2612"
    },
    {
      "channel": 1,
      "note": 62,
      "start": 35.359,
      "duration": 0.0877,
      "velocity": 89,
      "chip": "ym2612"
    },
    {
      "channel": 3,
      "note": 84,
      "start": 35.3618,
      "duration": 0.0852,
      "velocity": 95,
      "chip": "ym2612"
    },
    {
      "channel": 2,
      "note": 44,
      "start": 35.3632,
      "duration": 0.1864,
      "velocity": 1,
      "chip": "ym2612"
    },
    {
      "channel": 1,
      "note": 61,
      "start": 35.464,
      "duration": 0.0678,
      "velocity": 89,
      "chip": "ym2612"
    },
    {
      "channel": 3,
      "note": 90,
      "start": 35.4646,
      "duration": 0.0674,
      "velocity": 95,
      "chip": "ym2612"
    },
    {
      "channel": 1,
      "note": 60,
      "start": 35.549,
      "duration": 0.09,
      "velocity": 89,
      "chip": "ym2612"
    },
    {
      "channel": 3,
      "note": 83,
      "start": 35.5517,
      "duration": 0.0876,
      "velocity": 95,
      "chip": "ym2612"
    },
    {
      "channel": 2,
      "note": 34,
      "start": 35.5532,
      "duration": 0.1043,
      "velocity": 1,
      "chip": "ym2612"
    },
    {
      "channel": 1,
      "note": 59,
      "start": 35.6569,
      "duration": 0.0727,
      "velocity": 89,
      "chip": "ym2612"
    },
    {
      "channel": 3,
      "note": 89,
      "start": 35.6596,
      "duration": 0.0702,
      "velocity": 95,
      "chip": "ym2612"
    },
    {
      "channel": 2,
      "note": 34,
      "start": 35.6611,
      "duration": 0.1045,
      "velocity": 1,
      "chip": "ym2612"
    },
    {
      "channel": 3,
      "note": 84,
      "start": 35.7678,
      "duration": 0.068,
      "velocity": 95,
      "chip": "ym2612"
    },
    {
      "channel": 2,
      "note": 44,
      "start": 35.7691,
      "duration": 0.0839,
      "velocity": 1,
      "chip": "ym2612"
    },
    {
      "channel": 3,
      "note": 90,
      "start": 35.8551,
      "duration": 0.0876,
      "velocity": 95,
      "chip": "ym2612"
    },
    {
      "channel": 2,
      "note": 34,
      "start": 35.8566,
      "duration": 0.1923,
      "velocity": 1,
      "chip": "ym2612"
    },
    {
      "channel": 1,
      "note": 66,
      "start": 35.9603,
      "duration": 0.0702,
      "velocity": 89,
      "chip": "ym2612"
    },
    {
      "channel": 3,
      "note": 85,
      "start": 35.9609,
      "duration": 0.0698,
      "velocity": 95,
      "chip": "ym2612"
    },
    {
      "channel": 1,
      "note": 65,
      "start": 36.0484,
      "duration": 0.09,
      "velocity": 89,
      "chip": "ym2612"
    },
    {
      "channel": 3,
      "note": 91,
      "start": 36.0511,
      "duration": 0.0875,
      "velocity": 95,
      "chip": "ym2612"
    },
    {
      "channel": 2,
      "note": 34,
      "start": 36.0525,
      "duration": 0.1043,
      "velocity": 1,
      "chip": "ym2612"
    },
    {
      "channel": 1,
      "note": 64,
      "start": 36.1562,
      "duration": 0.0706,
      "velocity": 89,
      "chip": "ym2612"
    },
    {
      "channel": 3,
      "note": 84,
      "start": 36.1589,
      "duration": 0.0682,
      "velocity": 95,
      "chip": "ym2612"
    },
    {
      "channel": 2,
      "note": 44,
      "start": 36.1603,
      "duration": 0.0843,
      "velocity": 1,
      "chip": "ym2612"
    },
    {
      "channel": 1,
      "note": 62,
      "start": 36.2441,
      "duration": 0.0902,
      "velocity": 89,
      "chip": "ym2612"
    },
    {
      "channel": 3,
      "note": 90,
      "start": 36.2468,
      "duration": 0.0877,
      "velocity": 95,
      "chip": "ym2612"
    },
    {
      "channel": 2,
      "note": 34,
      "start": 36.2483,
      "duration": 0.1047,
      "velocity": 1,
      "chip": "ym2612"
    },
    {
      "channel": 0,
      "note": 95,
      "start": 36.3519,
      "duration": 0.5667,
      "velocity": 97,
      "chip": "ym2612"
    },
    {
      "channel": 1,
      "note": 59,
      "start": 36.3524,
      "duration": 0.0731,
      "velocity": 89,
      "chip": "ym2612"
    },
    {
      "channel": 3,
      "note": 83,
      "start": 36.3551,
      "duration": 0.0706,
      "velocity": 95,
      "chip": "ym2612"
    },
    {
      "channel": 2,
      "note": 34,
      "start": 36.3567,
      "duration": 0.1932,
      "velocity": 1,
      "chip": "ym2612"
    },
    {
      "channel": 4,
      "note": 95,
      "start": 36.3909,
      "duration": 0.5668,
      "velocity": 97,
      "chip": "ym2612"
    },
    {
      "channel": 5,
      "note": 95,
      "start": 36.4264,
      "duration": 0.5824,
      "velocity": 97,
      "chip": "ym2612"
    },
    {
      "channel": 1,
      "note": 58,
      "start": 36.4438,
      "duration": 0.0877,
      "velocity": 89,
      "chip": "ym2612"
    },
    {
      "channel": 3,
      "note": 89,
      "start": 36.4443,
      "duration": 0.0874,
      "velocity": 95,
      "chip": "ym2612"
    },
    {
      "channel": 1,
      "note": 57,
      "start": 36.5494,
      "duration": 0.0705,
      "velocity": 89,
      "chip": "ym2612"
    },
    {
      "channel": 3,
      "note": 84,
      "start": 36.552,
      "duration": 0.0681,
      "velocity": 95,
      "chip": "ym2612"
    },
    {
      "channel": 2,
      "note": 44,
      "start": 36.5534,
      "duration": 0.1861,
      "velocity": 1,
      "chip": "ym2612"
    },
    {
      "channel": 1,
      "note": 56,
      "start": 36.6542,
      "duration": 0.0676,
      "velocity": 89,
      "chip": "ym2612"
    },
    {
      "channel": 3,
      "note": 90,
      "start": 36.6548,
      "duration": 0.0673,
      "velocity": 95,
      "chip": "ym2612"
    },
    {
      "channel": 3,
      "note": 85,
      "start": 36.7417,
      "duration": 0.0875,
      "velocity": 95,
      "chip": "ym2612"
    },
    {
      "channel": 2,
      "note": 34,
      "start": 36.7431,
      "duration": 0.1039,
      "velocity": 1,
      "chip": "ym2612"
    },
    {
      "channel": 3,
      "note": 91,
      "start": 36.8492,
      "duration": 0.0702,
      "velocity": 95,
      "chip": "ym2612"
    },
    {
      "channel": 2,
      "note": 34,
      "start": 36.8506,
      "duration": 0.0871,
      "velocity": 1,
      "chip": "ym2612"
    },
    {
      "channel": 0,
      "note": 94,
      "start": 36.9366,
      "duration": 0.566,
      "velocity": 97,
      "chip": "ym2612"
    },
    {
      "channel": 1,
      "note": 62,
      "start": 36.9371,
      "duration": 0.088,
      "velocity": 89,
      "chip": "ym2612"
    },
    {
      "channel": 3,
      "note": 84,
      "start": 36.9399,
      "duration": 0.0856,
      "velocity": 95,
      "chip": "ym2612"
    },
    {
      "channel": 2,
      "note": 44,
      "start": 36.9413,
      "duration": 0.187,
      "velocity": 1,
      "chip": "ym2612"
    },
    {
      "channel": 4,
      "note": 94,
      "start": 36.9749,
      "duration": 0.5821,
      "velocity": 97,
      "chip": "ym2612"
    },
    {
      "channel": 5,
      "note": 94,
      "start": 37.0261,
      "duration": 0.5663,
      "velocity": 97,
      "chip": "ym2612"
    },
    {
      "channel": 1,
      "note": 61,
      "start": 37.0428,
      "duration": 0.0676,
      "velocity": 89,
      "chip": "ym2612"
    },
    {
      "channel": 3,
      "note": 90,
      "start": 37.0434,
      "duration": 0.0673,
      "velocity": 95,
      "chip": "ym2612"
    },
    {
      "channel": 1,
      "note": 60,
      "start": 37.1277,
      "duration": 0.0902,
      "velocity": 89,
      "chip": "ym2612"
    },
    {
      "channel": 3,
      "note": 83,
      "start": 37.1304,
      "duration": 0.0877,
      "velocity": 95,
      "chip": "ym2612"
    },
    {
      "channel": 2,
      "note": 34,
      "start": 37.1319,
      "duration": 0.1044,
      "velocity": 1,
      "chip": "ym2612"
    },
    {
      "channel": 1,
      "note": 59,
      "start": 37.2357,
      "duration": 0.0725,
      "velocity": 89,
      "chip": "ym2612"
    },
    {
      "channel": 3,
      "note": 89,
      "start": 37.2384,
      "duration": 0.0701,
      "velocity": 95,
      "chip": "ym2612"
    },
    {
      "channel": 2,
      "note": 34,
      "start": 37.2398,
      "duration": 0.0867,
      "velocity": 1,
      "chip": "ym2612"
    },
    {
      "channel": 3,
      "note": 84,
      "start": 37.3287,
      "duration": 0.0852,
      "velocity": 95,
      "chip": "ym2612"
    },
    {
      "channel": 2,
      "note": 44,
      "start": 37.3301,
      "duration": 0.101,
      "velocity": 1,
      "chip": "ym2612"
    },
    {
      "channel": 3,
      "note": 90,
      "start": 37.4332,
      "duration": 0.0702,
      "velocity": 95,
      "chip": "ym2612"
    },
    {
      "channel": 2,
      "note": 34,
      "start": 37.4347,
      "duration": 0.1935,
      "velocity": 1,
      "chip": "ym2612"
    },
    {
      "channel": 0,
      "note": 91,
      "start": 37.5384,
      "duration": 0.3749,
      "velocity": 97,
      "chip": "ym2612"
    },
    {
      "channel": 1,
      "note": 66,
      "start": 37.5389,
      "duration": 0.0705,
      "velocity": 89,
      "chip": "ym2612"
    },
    {
      "channel": 3,
      "note": 85,
      "start": 37.5395,
      "duration": 0.0702,
      "velocity": 95,
      "chip": "ym2612"
    },
    {
      "channel": 4,
      "note": 91,
      "start": 37.5748,
      "duration": 0.3779,
      "velocity": 97,
      "chip": "ym2612"
    },
    {
      "channel": 5,
      "note": 91,
      "start": 37.6103,
      "duration": 0.3777,
      "velocity": 97,
      "chip": "ym2612"
    },
    {
      "channel": 1,
      "note": 65,
      "start": 37.6277,
      "duration": 0.0902,
      "velocity": 89,
      "chip": "ym2612"
    },
    {
      "channel": 3,
      "note": 91,
      "start": 37.6304,
      "duration": 0.0877,
      "velocity": 95,
      "chip": "ym2612"
    },
    {
      "channel": 2,
      "note": 34,
      "start": 37.6319,
      "duration": 0.1044,
      "velocity": 1,
      "chip": "ym2612"
    },
    {
      "channel": 1,
      "note": 64,
      "start": 37.7357,
      "duration": 0.0706,
      "velocity": 89,
      "chip": "ym2612"
    },
    {
      "channel": 3,
      "note": 84,
      "start": 37.7384,
      "duration": 0.0681,
      "velocity": 95,
      "chip": "ym2612"
    },
    {
      "channel": 2,
      "note": 44,
      "start": 37.7398,
      "duration": 0.0844,
      "velocity": 1,
      "chip": "ym2612"
    },
    {
      "channel": 1,
      "note": 62,
      "start": 37.8235,
      "duration": 0.0903,
      "velocity": 89,
      "chip": "ym2612"
    },
    {
      "channel": 3,
      "note": 90,
      "start": 37.8263,
      "duration": 0.0878,
      "velocity": 95,
      "chip": "ym2612"
    },
    {
      "channel": 2,
      "note": 34,
      "start": 37.8277,
      "duration": 0.1048,
      "velocity": 1,
      "chip": "ym2612"
    },
    {
      "channel": 0,
      "note": 90,
      "start": 37.9314,
      "duration": 0.5667,
      "velocity": 97,
      "chip": "ym2612"
    },
    {
      "channel": 1,
      "note": 59,
      "start": 37.9319,
      "duration": 0.0731,
      "velocity": 89,
      "chip": "ym2612"
    },
    {
      "channel": 3,
      "note": 83,
      "start": 37.9347,
      "duration": 0.0705,
      "velocity": 95,
      "chip": "ym2612"
    },
    {
      "channel": 2,
      "note": 34,
      "start": 37.9362,
      "duration": 0.193,
      "velocity": 1,
      "chip": "ym2612"
    },
    {
      "channel": 4,
      "note": 90,
      "start": 37.9704,
      "duration": 0.5668,
      "velocity": 97,
      "chip": "ym2612"
    },
    {
      "channel": 5,
      "note": 90,
      "start": 38.0059,
      "duration": 0.5655,
      "velocity": 97,
      "chip": "ym2612"
    },
    {
      "channel": 1,
      "note": 58,
      "start": 38.0233,
      "duration": 0.0875,
      "velocity": 89,
      "chip": "ym2612"
    },
    {
      "channel": 3,
      "note": 89,
      "start": 38.0239,
      "duration": 0.0872,
      "velocity": 95,
      "chip": "ym2612"
    },
    {
      "channel": 1,
      "note": 57,
      "start": 38.1286,
      "duration": 0.0708,
      "velocity": 89,
      "chip": "ym2612"
    },
    {
      "channel": 3,
      "note": 84,
      "start": 38.1314,
      "duration": 0.0683,
      "velocity": 95,
      "chip": "ym2612"
    },
    {
      "channel": 2,
      "note": 44,
      "start": 38.1328,
      "duration": 0.1861,
      "velocity": 1,
      "chip": "ym2612"
    },
    {
      "channel": 1,
      "note": 56,
      "start": 38.2167,
      "duration": 0.0845,
      "velocity": 89,
      "chip": "ym2612"
    },
    {
      "channel": 3,
      "note": 90,
      "start": 38.2172,
      "duration": 0.0842,
      "velocity": 95,
      "chip": "ym2612"
    },
    {
      "channel": 3,
      "note": 85,
      "start": 38.321,
      "duration": 0.07,
      "velocity": 95,
      "chip": "ym2612"
    },
    {
      "channel": 2,
      "note": 34,
      "start": 38.3224,
      "duration": 0.1039,
      "velocity": 1,
      "chip": "ym2612"
    },
    {
      "channel": 3,
      "note": 91,
      "start": 38.4284,
      "duration": 0.0704,
      "velocity": 95,
      "chip": "ym2612"
    },
    {
      "channel": 2,
      "note": 34,
      "start": 38.43,
      "duration": 0.0873,
      "velocity": 1,
      "chip": "ym2612"
    },
    {
      "channel": 0,
      "note": 89,
      "start": 38.5162,
      "duration": 0.566,
      "velocity": 97,
      "chip": "ym2612"
    },
    {
      "channel": 1,
      "note": 62,
      "start": 38.5167,
      "duration": 0.088,
      "velocity": 89,
      "chip": "ym2612"
    },
    {
      "channel": 3,
      "note": 84,
      "start": 38.5194,
      "duration": 0.0856,
      "velocity": 95,
      "chip": "ym2612"
    },
    {
      "channel": 2,
      "note": 44,
      "start": 38.5208,
      "duration": 0.187,
      "velocity": 1,
      "chip": "ym2612"
    },
    {
      "channel": 4,
      "note": 89,
      "start": 38.5544,
      "duration": 0.582,
      "velocity": 97,
      "chip": "ym2612"
    },
    {
      "channel": 5,
      "note": 89,
      "start": 38.6057,
      "duration": 0.5661,
      "velocity": 97,
      "chip": "ym2612"
    },
    {
      "channel": 1,
      "note": 61,
      "start": 38.6224,
      "duration": 0.0676,
      "velocity": 89,
      "chip": "ym2612"
    },
    {
      "channel": 3,
      "note": 90,
      "start": 38.623,
      "duration": 0.0673,
      "velocity": 95,
      "chip": "ym2612"
    },
    {
      "channel": 1,
      "note": 60,
      "start": 38.7073,
      "duration": 0.0901,
      "velocity": 89,
      "chip": "ym2612"
    },
    {
      "channel": 3,
      "note": 83,
      "start": 38.71,
      "duration": 0.0877,
      "velocity": 95,
      "chip": "ym2612"
    },
    {
      "channel": 2,
      "note": 34,
      "start": 38.7115,
      "duration": 0.1044,
      "velocity": 1,
      "chip": "ym2612"
    },
    {
      "channel": 1,
      "note": 59,
      "start": 38.8153,
      "duration": 0.0725,
      "velocity": 89,
      "chip": "ym2612"
    },
    {
      "channel": 3,
      "note": 89,
      "start": 38.818,
      "duration": 0.0701,
      "velocity": 95,
      "chip": "ym2612"
    },
    {
      "channel": 2,
      "note": 34,
      "start": 38.8195,
      "duration": 0.0867,
      "velocity": 1,
      "chip": "ym2612"
    },
    {
      "channel": 3,
      "note": 84,
      "start": 38.9083,
      "duration": 0.0849,
      "velocity": 95,
      "chip": "ym2612"
    },
    {
      "channel": 2,
      "note": 44,
      "start": 38.9097,
      "duration": 0.1008,
      "velocity": 1,
      "chip": "ym2612"
    },
    {
      "channel": 3,
      "note": 90,
      "start": 39.0126,
      "duration": 0.0703,
      "velocity": 95,
      "chip": "ym2612"
    },
    {
      "channel": 2,
      "note": 34,
      "start": 39.0141,
      "duration": 0.1935,
      "velocity": 1,
      "chip": "ym2612"
    },
    {
      "channel": 0,
      "note": 88,
      "start": 39.1002,
      "duration": 0.5884,
      "velocity": 97,
      "chip": "ym2612"
    },
    {
      "channel": 1,
      "note": 66,
      "start": 39.1008,
      "duration": 0.088,
      "velocity": 89,
      "chip": "ym2612"
    },
    {
      "channel": 3,
      "note": 85,
      "start": 39.1014,
      "duration": 0.0877,
      "velocity": 95,
      "chip": "ym2612"
    },
    {
      "channel": 4,
      "note": 88,
      "start": 39.1542,
      "duration": 0.5736,
      "velocity": 97,
      "chip": "ym2612"
    },
    {
      "channel": 5,
      "note": 88,
      "start": 39.1897,
      "duration": 0.5722,
      "velocity": 97,
      "chip": "ym2612"
    },
    {
      "channel": 1,
      "note": 65,
      "start": 39.2071,
      "duration": 0.0727,
      "velocity": 89,
      "chip": "ym2612"
    },
    {
      "channel": 3,
      "note": 91,
      "start": 39.2097,
      "duration": 0.0702,
      "velocity": 95,
      "chip": "ym2612"
    },
    {
      "channel": 2,
      "note": 34,
      "start": 39.2112,
      "duration": 0.1046,
      "velocity": 1,
      "chip": "ym2612"
    },
    {
      "channel": 1,
      "note": 64,
      "start": 39.3153,
      "duration": 0.0705,
      "velocity": 89,
      "chip": "ym2612"
    },
    {
      "channel": 3,
      "note": 84,
      "start": 39.3179,
      "duration": 0.0681,
      "velocity": 95,
      "chip": "ym2612"
    },
    {
      "channel": 2,
      "note": 44,
      "start": 39.3193,
      "duration": 0.0843,
      "velocity": 1,
      "chip": "ym2612"
    },
    {
      "channel": 1,
      "note": 62,
      "start": 39.4031,
      "duration": 0.0901,
      "velocity": 89,
      "chip": "ym2612"
    },
    {
      "channel": 3,
      "note": 90,
      "start": 39.4058,
      "duration": 0.0876,
      "velocity": 95,
      "chip": "ym2612"
    },
    {
      "channel": 2,
      "note": 34,
      "start": 39.4073,
      "duration": 0.1043,
      "velocity": 1,
      "chip": "ym2612"
    },
    {
      "channel": 1,
      "note": 59,
      "start": 39.511,
      "duration": 0.0727,
      "velocity": 89,
      "chip": "ym2612"
    },
    {
      "channel": 3,
      "note": 83,
      "start": 39.5138,
      "duration": 0.0702,
      "velocity": 95,
      "chip": "ym2612"
    },
    {
      "channel": 2,
      "note": 34,
      "start": 39.5153,
      "duration": 0.1925,
      "velocity": 1,
      "chip": "ym2612"
    },
    {
      "channel": 1,
      "note": 58,
      "start": 39.6015,
      "duration": 0.0876,
      "velocity": 89,
      "chip": "ym2612"
    },
    {
      "channel": 3,
      "note": 89,
      "start": 39.6021,
      "duration": 0.0873,
      "velocity": 95,
      "chip": "ym2612"
    },
    {
      "channel": 0,
      "note": 87,
      "start": 39.7067,
      "duration": 0.5613,
      "velocity": 97,
      "chip": "ym2612"
    },
    {
      "channel": 1,
      "note": 57,
      "start": 39.7073,
      "duration": 0.071,
      "velocity": 89,
      "chip": "ym2612"
    },
    {
      "channel": 3,
      "note": 84,
      "start": 39.7099,
      "duration": 0.0686,
      "velocity": 95,
      "chip": "ym2612"
    },
    {
      "channel": 2,
      "note": 44,
      "start": 39.7113,
      "duration": 0.1872,
      "velocity": 1,
      "chip": "ym2612"
    },
    {
      "channel": 4,
      "note": 87,
      "start": 39.745,
      "duration": 0.5616,
      "velocity": 97,
      "chip": "ym2612"
    },
    {
      "channel": 5,
      "note": 87,
      "start": 39.7792,
      "duration": 0.5627,
      "velocity": 97,
      "chip": "ym2612"
    },
    {
      "channel": 1,
      "note": 56,
      "start": 39.796,
      "duration": 0.0847,
      "velocity": 89,
      "chip": "ym2612"
    },
    {
      "channel": 3,
      "note": 90,
      "start": 39.7966,
      "duration": 0.0844,
      "velocity": 95,
      "chip": "ym2612"
    },
    {
      "channel": 3,
      "note": 85,
      "start": 39.9006,
      "duration": 0.07,
      "velocity": 95,
      "chip": "ym2612"
    },
    {
      "channel": 2,
      "note": 34,
      "start": 39.9021,
      "duration": 0.0863,
      "velocity": 1,
      "chip": "ym2612"
    },
    {
      "channel": 3,
      "note": 91,
      "start": 39.9905,
      "duration": 0.0876,
      "velocity": 95,
      "chip": "ym2612"
    },
    {
      "channel": 2,
      "note": 34,
      "start": 39.992,
      "duration": 0.1043,
      "velocity": 1,
      "chip": "ym2612"
    },
    {
      "channel": 1,
      "note": 62,
      "start": 40.0957,
      "duration": 0.0707,
      "velocity": 89,
      "chip": "ym2612"
    },
    {
      "channel": 3,
      "note": 84,
      "start": 40.0985,
      "duration": 0.0683,
      "velocity": 95,
      "chip": "ym2612"
    },
    {
      "channel": 2,
      "note": 44,
      "start": 40.0998,
      "duration": 0.1866,
      "velocity": 1,
      "chip": "ym2612"
    },
    {
      "channel": 1,
      "note": 61,
      "start": 40.2008,
      "duration": 0.0677,
      "velocity": 89,
      "chip": "ym2612"
    },
    {
      "channel": 3,
      "note": 90,
      "start": 40.2013,
      "duration": 0.0674,
      "velocity": 95,
      "chip": "ym2612"
    },
    {
      "channel": 0,
      "note": 86,
      "start": 40.2854,
      "duration": 0.3763,
      "velocity": 97,
      "chip": "ym2612"
    },
    {
      "channel": 1,
      "note": 60,
      "start": 40.2859,
      "duration": 0.0906,
      "velocity": 89,
      "chip": "ym2612"
    },
    {
      "channel": 3,
      "note": 83,
      "start": 40.2886,
      "duration": 0.0882,
      "velocity": 95,
      "chip": "ym2612"
    },
    {
      "channel": 2,
      "note": 34,
      "start": 40.2901,
      "duration": 0.1052,
      "velocity": 1,
      "chip": "ym2612"
    },
    {
      "channel": 4,
      "note": 86,
      "start": 40.3244,
      "duration": 0.3741,
      "velocity": 97,
      "chip": "ym2612"
    },
    {
      "channel": 5,
      "note": 86,
      "start": 40.3774,
      "duration": 0.3741,
      "velocity": 97,
      "chip": "ym2612"
    },
    {
      "channel": 1,
      "note": 59,
      "start": 40.3948,
      "duration": 0.0727,
      "velocity": 89,
      "chip": "ym2612"
    },
    {
      "channel": 3,
      "note": 89,
      "start": 40.3975,
      "duration": 0.0702,
      "velocity": 95,
      "chip": "ym2612"
    },
    {
      "channel": 2,
      "note": 34,
      "start": 40.399,
      "duration": 0.0868,
      "velocity": 1,
      "chip": "ym2612"
    },
    {
      "channel": 3,
      "note": 84,
      "start": 40.4879,
      "duration": 0.085,
      "velocity": 95,
      "chip": "ym2612"
    },
    {
      "channel": 2,
      "note": 44,
      "start": 40.4893,
      "duration": 0.1008,
      "velocity": 1,
      "chip": "ym2612"
    },
    {
      "channel": 3,
      "note": 90,
      "start": 40.5922,
      "duration": 0.0702,
      "velocity": 95,
      "chip": "ym2612"
    },
    {
      "channel": 2,
      "note": 34,
      "start": 40.5937,
      "duration": 0.1936,
      "velocity": 1,
      "chip": "ym2612"
    },
    {
      "channel": 0,
      "note": 85,
      "start": 40.6798,
      "duration": 0.3745,
      "velocity": 97,
      "chip": "ym2612"
    },
    {
      "channel": 1,
      "note": 66,
      "start": 40.6803,
      "duration": 0.0882,
      "velocity": 89,
      "chip": "ym2612"
    },
    {
      "channel": 3,
      "note": 85,
      "start": 40.6809,
      "duration": 0.0879,
      "velocity": 95,
      "chip": "ym2612"
    },
    {
      "channel": 4,
      "note": 85,
      "start": 40.7339,
      "duration": 0.3778,
      "velocity": 97,
      "chip": "ym2612"
    },
    {
      "channel": 5,
      "note": 85,
      "start": 40.7694,
      "duration": 0.378,
      "velocity": 97,
      "chip": "ym2612"
    },
    {
      "channel": 1,
      "note": 65,
      "start": 40.7867,
      "duration": 0.0726,
      "velocity": 89,
      "chip": "ym2612"
    },
    {
      "channel": 3,
      "note": 91,
      "start": 40.7894,
      "duration": 0.0701,
      "velocity": 95,
      "chip": "ym2612"
    },
    {
      "channel": 2,
      "note": 34,
      "start": 40.7909,
      "duration": 0.0868,
      "velocity": 1,
      "chip": "ym2612"
    },
    {
      "channel": 1,
      "note": 64,
      "start": 40.8771,
      "duration": 0.0877,
      "velocity": 89,
      "chip": "ym2612"
    },
    {
      "channel": 3,
      "note": 84,
      "start": 40.8798,
      "duration": 0.0852,
      "velocity": 95,
      "chip": "ym2612"
    },
    {
      "channel": 2,
      "note": 44,
      "start": 40.8812,
      "duration": 0.1015,
      "velocity": 1,
      "chip": "ym2612"
    },
    {
      "channel": 1,
      "note": 62,
      "start": 40.9821,
      "duration": 0.0726,
      "velocity": 89,
      "chip": "ym2612"
    },
    {
      "channel": 3,
      "note": 90,
      "start": 40.9848,
      "duration": 0.0702,
      "velocity": 95,
      "chip": "ym2612"
    },
    {
      "channel": 2,
      "note": 34,
      "start": 40.9863,
      "duration": 0.1051,
      "velocity": 1,
      "chip": "ym2612"
    },
    {
      "channel": 0,
      "note": 86,
      "start": 41.0901,
      "duration": 0.0739,
      "velocity": 97,
      "chip": "ym2612"
    },
    {
      "channel": 1,
      "note": 62,
      "start": 41.0908,
      "duration": 0.0737,
      "velocity": 89,
      "chip": "ym2612"
    },
    {
      "channel": 3,
      "note": 86,
      "start": 41.0938,
      "duration": 0.071,
      "velocity": 95,
      "chip": "ym2612"
    },
    {
      "channel": 2,
      "note": 34,
      "start": 41.0952,
      "duration": 0.195,
      "velocity": 1,
      "chip": "ym2612"
    },
    {
      "channel": 4,
      "note": 86,
      "start": 41.1298,
      "duration": 0.0715,
      "velocity": 97,
      "chip": "ym2612"
    },
    {
      "channel": 5,
      "note": 86,
      "start": 41.1655,
      "duration": 0.0711,
      "velocity": 97,
      "chip": "ym2612"
    },
    {
      "channel": 0,
      "note": 91,
      "start": 41.1826,
      "duration": 0.0882,
      "velocity": 97,
      "chip": "ym2612"
    },
    {
      "channel": 1,
      "note": 61,
      "start": 41.1832,
      "duration": 0.0881,
      "velocity": 89,
      "chip": "ym2612"
    },
    {
      "channel": 3,
      "note": 92,
      "start": 41.1837,
      "duration": 0.0878,
      "velocity": 95,
      "chip": "ym2612"
    },
    {
      "channel": 4,
      "note": 91,
      "start": 41.219,
      "duration": 0.0912,
      "velocity": 97,
      "chip": "ym2612"
    },
    {
      "channel": 5,
      "note": 91,
      "start": 41.2721,
      "duration": 0.0723,
      "velocity": 97,
      "chip": "ym2612"
    },
    {
      "channel": 0,
      "note": 95,
      "start": 41.2892,
      "duration": 0.0712,
      "velocity": 97,
      "chip": "ym2612"
    },
    {
      "channel": 1,
      "note": 60,
      "start": 41.2897,
      "duration": 0.0712,
      "velocity": 89,
      "chip": "ym2612"
    },
    {
      "channel": 3,
      "note": 87,
      "start": 41.2924,
      "duration": 0.0688,
      "velocity": 95,
      "chip": "ym2612"
    },
    {
      "channel": 2,
      "note": 44,
      "start": 41.2938,
      "duration": 0.1886,
      "velocity": 1,
      "chip": "ym2612"
    },
    {
      "channel": 4,
      "note": 95,
      "start": 41.3275,
      "duration": 0.0688,
      "velocity": 97,
      "chip": "ym2612"
    },
    {
      "channel": 5,
      "note": 95,
      "start": 41.3618,
      "duration": 0.0856,
      "velocity": 97,
      "chip": "ym2612"
    },
    {
      "channel": 0,
      "note": 98,
      "start": 41.3783,
      "duration": 0.0853,
      "velocity": 97,
      "chip": "ym2612"
    },
    {
      "channel": 1,
      "note": 59,
      "start": 41.3788,
      "duration": 0.0852,
      "velocity": 89,
      "chip": "ym2612"
    },
    {
      "channel": 3,
      "note": 93,
      "start": 41.3793,
      "duration": 0.0849,
      "velocity": 95,
      "chip": "ym2612"
    },
    {
      "channel": 4,
      "note": 98,
      "start": 41.4136,
      "duration": 0.0889,
      "velocity": 97,
      "chip": "ym2612"
    },
    {
      "channel": 5,
      "note": 98,
      "start": 41.4649,
      "duration": 0.073,
      "velocity": 97,
      "chip": "ym2612"
    },
    {
      "channel": 0,
      "note": 99,
      "start": 41.4814,
      "duration": 1.1551,
      "velocity": 97,
      "chip": "ym2612"
    },
    {
      "channel": 3,
      "note": 88,
      "start": 41.4845,
      "duration": 0.0705,
      "velocity": 95,
      "chip": "ym2612"
    },
    {
      "channel": 2,
      "note": 34,
      "start": 41.4859,
      "duration": 0.0873,
      "velocity": 1,
      "chip": "ym2612"
    },
    {
      "channel": 4,
      "note": 99,
      "start": 41.5202,
      "duration": 1.173,
      "velocity": 97,
      "chip": "ym2612"
    },
    {
      "channel": 5,
      "note": 99,
      "start": 41.5557,
      "duration": 1.1729,
      "velocity": 97,
      "chip": "ym2612"
    },
    {
      "channel": 3,
      "note": 94,
      "start": 41.5753,
      "duration": 0.0876,
      "velocity": 95,
      "chip": "ym2612"
    },
    {
      "channel": 2,
      "note": 34,
      "start": 41.5768,
      "duration": 0.1044,
      "velocity": 1,
      "chip": "ym2612"
    },
    {
      "channel": 1,
      "note": 65,
      "start": 41.6807,
      "duration": 0.0705,
      "velocity": 89,
      "chip": "ym2612"
    },
    {
      "channel": 3,
      "note": 87,
      "start": 41.6833,
      "duration": 0.0682,
      "velocity": 95,
      "chip": "ym2612"
    },
    {
      "channel": 2,
      "note": 44,
      "start": 41.6847,
      "duration": 0.186,
      "velocity": 1,
      "chip": "ym2612"
    },
    {
      "channel": 1,
      "note": 64,
      "start": 41.7685,
      "duration": 0.0845,
      "velocity": 89,
      "chip": "ym2612"
    },
    {
      "channel": 3,
      "note": 93,
      "start": 41.7691,
      "duration": 0.0841,
      "velocity": 95,
      "chip": "ym2612"
    },
    {
      "channel": 1,
      "note": 63,
      "start": 41.8702,
      "duration": 0.0724,
      "velocity": 89,
      "chip": "ym2612"
    },
    {
      "channel": 3,
      "note": 86,
      "start": 41.8729,
      "duration": 0.07,
      "velocity": 95,
      "chip": "ym2612"
    },
    {
      "channel": 2,
      "note": 34,
      "start": 41.8744,
      "duration": 0.1044,
      "velocity": 1,
      "chip": "ym2612"
    },
    {
      "channel": 1,
      "note": 62,
      "start": 41.9782,
      "duration": 0.0727,
      "velocity": 89,
      "chip": "ym2612"
    },
    {
      "channel": 3,
      "note": 92,
      "start": 41.9809,
      "duration": 0.0702,
      "velocity": 95,
      "chip": "ym2612"
    },
    {
      "channel": 2,
      "note": 34,
      "start": 41.9824,
      "duration": 0.0868,
      "velocity": 1,
      "chip": "ym2612"
    },
    {
      "channel": 3,
      "note": 87,
      "start": 42.0713,
      "duration": 0.085,
      "velocity": 95,
      "chip": "ym2612"
    },
    {
      "channel": 2,
      "note": 44,
      "start": 42.0727,
      "duration": 0.1008,
      "velocity": 1,
      "chip": "ym2612"
    },
    {
      "channel": 3,
      "note": 93,
      "start": 42.1756,
      "duration": 0.0702,
      "velocity": 95,
      "chip": "ym2612"
    },
    {
      "channel": 2,
      "note": 34,
      "start": 42.177,
      "duration": 0.1924,
      "velocity": 1,
      "chip": "ym2612"
    },
    {
      "channel": 1,
      "note": 69,
      "start": 42.2634,
      "duration": 0.0877,
      "velocity": 89,
      "chip": "ym2612"
    },
    {
      "channel": 3,
      "note": 88,
      "start": 42.2639,
      "duration": 0.0873,
      "velocity": 95,
      "chip": "ym2612"
    },
    {
      "channel": 1,
      "note": 68,
      "start": 42.3689,
      "duration": 0.0725,
      "velocity": 89,
      "chip": "ym2612"
    },
    {
      "channel": 3,
      "note": 94,
      "start": 42.3716,
      "duration": 0.07,
      "velocity": 95,
      "chip": "ym2612"
    },
    {
      "channel": 2,
      "note": 34,
      "start": 42.3731,
      "duration": 0.0867,
      "velocity": 1,
      "chip": "ym2612"
    },
    {
      "channel": 1,
      "note": 67,
      "start": 42.4593,
      "duration": 0.0877,
      "velocity": 89,
      "chip": "ym2612"
    },
    {
      "channel": 3,
      "note": 87,
      "start": 42.462,
      "duration": 0.0854,
      "velocity": 95,
      "chip": "ym2612"
    },
    {
      "channel": 2,
      "note": 44,
      "start": 42.4634,
      "duration": 0.1015,
      "velocity": 1,
      "chip": "ym2612"
    },
    {
      "channel": 1,
      "note": 65,
      "start": 42.5643,
      "duration": 0.0726,
      "velocity": 89,
      "chip": "ym2612"
    },
    {
      "channel": 3,
      "note": 93,
      "start": 42.5671,
      "duration": 0.0701,
      "velocity": 95,
      "chip": "ym2612"
    },
    {
      "channel": 2,
      "note": 34,
      "start": 42.5685,
      "duration": 0.0871,
      "velocity": 1,
      "chip": "ym2612"
    },
    {
      "channel": 0,
      "note": 98,
      "start": 42.6545,
      "duration": 0.5844,
      "velocity": 97,
      "chip": "ym2612"
    },
    {
      "channel": 1,
      "note": 62,
      "start": 42.655,
      "duration": 0.0906,
      "velocity": 89,
      "chip": "ym2612"
    },
    {
      "channel": 3,
      "note": 86,
      "start": 42.6578,
      "duration": 0.0882,
      "velocity": 95,
      "chip": "ym2612"
    },
    {
      "channel": 2,
      "note": 34,
      "start": 42.6593,
      "duration": 0.1932,
      "velocity": 117,
      "chip": "ym2612"
    },
    {
      "channel": 4,
      "note": 98,
      "start": 42.711,
      "duration": 0.5671,
      "velocity": 97,
      "chip": "ym2612"
    },
    {
      "channel": 5,
      "note": 98,
      "start": 42.7466,
      "duration": 0.5655,
      "velocity": 97,
      "chip": "ym2612"
    },
    {
      "channel": 1,
      "note": 61,
      "start": 42.764,
      "duration": 0.0701,
      "velocity": 89,
      "chip": "ym2612"
    },
    {
      "channel": 3,
      "note": 92,
      "start": 42.7646,
      "duration": 0.0698,
      "velocity": 95,
      "chip": "ym2612"
    },
    {
      "channel": 1,
      "note": 60,
      "start": 42.8697,
      "duration": 0.0705,
      "velocity": 89,
      "chip": "ym2612"
    },
    {
      "channel": 3,
      "note": 87,
      "start": 42.8723,
      "duration": 0.0681,
      "velocity": 95,
      "chip": "ym2612"
    },
    {
      "channel": 2,
      "note": 44,
      "start": 42.8737,
      "duration": 0.1859,
      "velocity": 1,
      "chip": "ym2612"
    },
    {
      "channel": 1,
      "note": 59,
      "start": 42.9574,
      "duration": 0.0845,
      "velocity": 89,
      "chip": "ym2612"
    },
    {
      "channel": 3,
      "note": 93,
      "start": 42.958,
      "duration": 0.0841,
      "velocity": 95,
      "chip": "ym2612"
    },
    {
      "channel": 3,
      "note": 88,
      "start": 43.0618,
      "duration": 0.0702,
      "velocity": 95,
      "chip": "ym2612"
    },
    {
      "channel": 2,
      "note": 34,
      "start": 43.0633,
      "duration": 0.0865,
      "velocity": 1,
      "chip": "ym2612"
    },
    {
      "channel": 3,
      "note": 94,
      "start": 43.152,
      "duration": 0.0877,
      "velocity": 95,
      "chip": "ym2612"
    },
    {
      "channel": 2,
      "note": 34,
      "start": 43.1534,
      "duration": 0.1046,
      "velocity": 1,
      "chip": "ym2612"
    },
    {
      "channel": 0,
      "note": 97,
      "start": 43.2569,
      "duration": 0.5661,
      "velocity": 97,
      "chip": "ym2612"
    },
    {
      "channel": 1,
      "note": 65,
      "start": 43.2574,
      "duration": 0.0711,
      "velocity": 89,
      "chip": "ym2612"
    },
    {
      "channel": 3,
      "note": 87,
      "start": 43.2602,
      "duration": 0.0686,
      "velocity": 95,
      "chip": "ym2612"
    },
    {
      "channel": 2,
      "note": 44,
      "start": 43.2616,
      "duration": 0.1872,
      "velocity": 1,
      "chip": "ym2612"
    },
    {
      "channel": 4,
      "note": 97,
      "start": 43.2952,
      "duration": 0.5645,
      "velocity": 97,
      "chip": "ym2612"
    },
    {
      "channel": 5,
      "note": 97,
      "start": 43.3295,
      "duration": 0.5656,
      "velocity": 97,
      "chip": "ym2612"
    },
    {
      "channel": 1,
      "note": 64,
      "start": 43.3463,
      "duration": 0.0846,
      "velocity": 89,
      "chip": "ym2612"
    },
    {
      "channel": 3,
      "note": 93,
      "start": 43.3468,
      "duration": 0.0844,
      "velocity": 95,
      "chip": "ym2612"
    },
    {
      "channel": 1,
      "note": 63,
      "start": 43.4482,
      "duration": 0.0725,
      "velocity": 89,
      "chip": "ym2612"
    },
    {
      "channel": 3,
      "note": 86,
      "start": 43.451,
      "duration": 0.07,
      "velocity": 95,
      "chip": "ym2612"
    },
    {
      "channel": 2,
      "note": 34,
      "start": 43.4524,
      "duration": 0.0867,
      "velocity": 1,
      "chip": "ym2612"
    },
    {
      "channel": 1,
      "note": 62,
      "start": 43.5386,
      "duration": 0.0901,
      "velocity": 89,
      "chip": "ym2612"
    },
    {
      "channel": 3,
      "note": 92,
      "start": 43.5413,
      "duration": 0.0876,
      "velocity": 95,
      "chip": "ym2612"
    },
    {
      "channel": 2,
      "note": 34,
      "start": 43.5427,
      "duration": 0.1043,
      "velocity": 1,
      "chip": "ym2612"
    },
    {
      "channel": 3,
      "note": 87,
      "start": 43.6492,
      "duration": 0.0681,
      "velocity": 95,
      "chip": "ym2612"
    },
    {
      "channel": 2,
      "note": 44,
      "start": 43.6506,
      "duration": 0.1009,
      "velocity": 1,
      "chip": "ym2612"
    },
    {
      "channel": 3,
      "note": 93,
      "start": 43.7536,
      "duration": 0.0702,
      "velocity": 95,
      "chip": "ym2612"
    },
    {
      "channel": 2,
      "note": 34,
      "start": 43.755,
      "duration": 0.1936,
      "velocity": 1,
      "chip": "ym2612"
    },
    {
      "channel": 0,
      "note": 94,
      "start": 43.8411,
      "duration": 0.3744,
      "velocity": 97,
      "chip": "ym2612"
    },
    {
      "channel": 1,
      "note": 69,
      "start": 43.8416,
      "duration": 0.0882,
      "velocity": 89,
      "chip": "ym2612"
    },
    {
      "channel": 3,
      "note": 88,
      "start": 43.8422,
      "duration": 0.0878,
      "velocity": 95,
      "chip": "ym2612"
    },
    {
      "channel": 4,
      "note": 94,
      "start": 43.8775,
      "duration": 0.3773,
      "velocity": 97,
      "chip": "ym2612"
    },
    {
      "channel": 5,
      "note": 94,
      "start": 43.9307,
      "duration": 0.3771,
      "velocity": 97,
      "chip": "ym2612"
    },
    {
      "channel": 1,
      "note": 68,
      "start": 43.948,
      "duration": 0.0726,
      "velocity": 89,
      "chip": "ym2612"
    },
    {
      "channel": 3,
      "note": 94,
      "start": 43.9508,
      "duration": 0.0701,
      "velocity": 95,
      "chip": "ym2612"
    },
    {
      "channel": 2,
      "note": 34,
      "start": 43.9522,
      "duration": 0.0868,
      "velocity": 1,
      "chip": "ym2612"
    },
    {
      "channel": 1,
      "note": 67,
      "start": 44.0384,
      "duration": 0.0875,
      "velocity": 89,
      "chip": "ym2612"
    },
    {
      "channel": 3,
      "note": 87,
      "start": 44.0412,
      "duration": 0.0851,
      "velocity": 95,
      "chip": "ym2612"
    },
    {
      "channel": 2,
      "note": 44,
      "start": 44.0425,
      "duration": 0.1012,
      "velocity": 1,
      "chip": "ym2612"
    },
    {
      "channel": 1,
      "note": 65,
      "start": 44.1432,
      "duration": 0.0728,
      "velocity": 89,
      "chip": "ym2612"
    },
    {
      "channel": 3,
      "note": 93,
      "start": 44.1459,
      "duration": 0.0703,
      "velocity": 95,
      "chip": "ym2612"
    },
    {
      "channel": 2,
      "note": 34,
      "start": 44.1473,
      "duration": 0.0873,
      "velocity": 1,
      "chip": "ym2612"
    },
    {
      "channel": 0,
      "note": 86,
      "start": 44.2335,
      "duration": 0.0908,
      "velocity": 97,
      "chip": "ym2612"
    },
    {
      "channel": 1,
      "note": 62,
      "start": 44.234,
      "duration": 0.0908,
      "velocity": 89,
      "chip": "ym2612"
    },
    {
      "channel": 3,
      "note": 86,
      "start": 44.2368,
      "duration": 0.0883,
      "velocity": 95,
      "chip": "ym2612"
    },
    {
      "channel": 2,
      "note": 34,
      "start": 44.2383,
      "duration": 0.1947,
      "velocity": 1,
      "chip": "ym2612"
    },
    {
      "channel": 4,
      "note": 86,
      "start": 44.2901,
      "duration": 0.0713,
      "velocity": 97,
      "chip": "ym2612"
    },
    {
      "channel": 5,
      "note": 86,
      "start": 44.3258,
      "duration": 0.0711,
      "velocity": 97,
      "chip": "ym2612"
    },
    {
      "channel": 0,
      "note": 91,
      "start": 44.3428,
      "duration": 0.0707,
      "velocity": 97,
      "chip": "ym2612"
    },
    {
      "channel": 1,
      "note": 61,
      "start": 44.3433,
      "duration": 0.0707,
      "velocity": 89,
      "chip": "ym2612"
    },
    {
      "channel": 3,
      "note": 92,
      "start": 44.3439,
      "duration": 0.0703,
      "velocity": 95,
      "chip": "ym2612"
    },
    {
      "channel": 4,
      "note": 91,
      "start": 44.3792,
      "duration": 0.0907,
      "velocity": 97,
      "chip": "ym2612"
    },
    {
      "channel": 5,
      "note": 91,
      "start": 44.4149,
      "duration": 0.0892,
      "velocity": 97,
      "chip": "ym2612"
    },
    {
      "channel": 0,
      "note": 95,
      "start": 44.432,
      "duration": 0.0881,
      "velocity": 97,
      "chip": "ym2612"
    },
    {
      "channel": 1,
      "note": 60,
      "start": 44.4325,
      "duration": 0.088,
      "velocity": 89,
      "chip": "ym2612"
    },
    {
      "channel": 3,
      "note": 87,
      "start": 44.4352,
      "duration": 0.0856,
      "velocity": 95,
      "chip": "ym2612"
    },
    {
      "channel": 2,
      "note": 44,
      "start": 44.4365,
      "duration": 0.2054,
      "velocity": 1,
      "chip": "ym2612"
    },
    {
      "channel": 4,
      "note": 95,
      "start": 44.4871,
      "duration": 0.0688,
      "velocity": 97,
      "chip": "ym2612"
    },
    {
      "channel": 5,
      "note": 95,
      "start": 44.5214,
      "duration": 0.0686,
      "velocity": 97,
      "chip": "ym2612"
    },
    {
      "channel": 0,
      "note": 98,
      "start": 44.5378,
      "duration": 0.0682,
      "velocity": 97,
      "chip": "ym2612"
    },
    {
      "channel": 1,
      "note": 59,
      "start": 44.5384,
      "duration": 0.0681,
      "velocity": 89,
      "chip": "ym2612"
    },
    {
      "channel": 3,
      "note": 93,
      "start": 44.5389,
      "duration": 0.0679,
      "velocity": 95,
      "chip": "ym2612"
    },
    {
      "channel": 4,
      "note": 98,
      "start": 44.5731,
      "duration": 0.0889,
      "velocity": 97,
      "chip": "ym2612"
    },
    {
      "channel": 5,
      "note": 98,
      "start": 44.6074,
      "duration": 0.0901,
      "velocity": 97,
      "chip": "ym2612"
    },
    {
      "channel": 0,
      "note": 99,
      "start": 44.641,
      "duration": 1.1559,
      "velocity": 97,
      "chip": "ym2612"
    },
    {
      "channel": 3,
      "note": 88,
      "start": 44.6441,
      "duration": 0.0707,
      "velocity": 95,
      "chip": "ym2612"
    },
    {
      "channel": 2,
      "note": 34,
      "start": 44.6456,
      "duration": 0.0874,
      "velocity": 1,
      "chip": "ym2612"
    },
    {
      "channel": 4,
      "note": 99,
      "start": 44.6799,
      "duration": 1.1562,
      "velocity": 97,
      "chip": "ym2612"
    },
    {
      "channel": 5,
      "note": 99,
      "start": 44.7154,
      "duration": 1.1736,
      "velocity": 97,
      "chip": "ym2612"
    },
    {
      "channel": 3,
      "note": 94,
      "start": 44.7351,
      "duration": 0.0877,
      "velocity": 95,
      "chip": "ym2612"
    },
    {
      "channel": 2,
      "note": 34,
      "start": 44.7365,
      "duration": 0.1043,
      "velocity": 1,
      "chip": "ym2612"
    },
    {
      "channel": 1,
      "note": 65,
      "start": 44.8403,
      "duration": 0.0706,
      "velocity": 89,
      "chip": "ym2612"
    },
    {
      "channel": 3,
      "note": 87,
      "start": 44.843,
      "duration": 0.0681,
      "velocity": 95,
      "chip": "ym2612"
    },
    {
      "channel": 2,
      "note": 44,
      "start": 44.8443,
      "duration": 0.1863,
      "velocity": 1,
      "chip": "ym2612"
    },
    {
      "channel": 1,
      "note": 64,
      "start": 44.9281,
      "duration": 0.0847,
      "velocity": 89,
      "chip": "ym2612"
    },
    {
      "channel": 3,
      "note": 93,
      "start": 44.9287,
      "duration": 0.0844,
      "velocity": 95,
      "chip": "ym2612"
    },
    {
      "channel": 1,
      "note": 63,
      "start": 45.0301,
      "duration": 0.0725,
      "velocity": 89,
      "chip": "ym2612"
    },
    {
      "channel": 3,
      "note": 86,
      "start": 45.0328,
      "duration": 0.0701,
      "velocity": 95,
      "chip": "ym2612"
    },
    {
      "channel": 2,
      "note": 34,
      "start": 45.0343,
      "duration": 0.0868,
      "velocity": 1,
      "chip": "ym2612"
    },
    {
      "channel": 1,
      "note": 62,
      "start": 45.1205,
      "duration": 0.09,
      "velocity": 89,
      "chip": "ym2612"
    },
    {
      "channel": 3,
      "note": 92,
      "start": 45.1232,
      "duration": 0.0876,
      "velocity": 95,
      "chip": "ym2612"
    },
    {
      "channel": 2,
      "note": 34,
      "start": 45.1246,
      "duration": 0.1042,
      "velocity": 1,
      "chip": "ym2612"
    },
    {
      "channel": 3,
      "note": 87,
      "start": 45.231,
      "duration": 0.0683,
      "velocity": 95,
      "chip": "ym2612"
    },
    {
      "channel": 2,
      "note": 44,
      "start": 45.2324,
      "duration": 0.084,
      "velocity": 1,
      "chip": "ym2612"
    },
    {
      "channel": 3,
      "note": 93,
      "start": 45.3186,
      "duration": 0.0876,
      "velocity": 95,
      "chip": "ym2612"
    },
    {
      "channel": 2,
      "note": 34,
      "start": 45.32,
      "duration": 0.1921,
      "velocity": 117,
      "chip": "ym2612"
    },
    {
      "channel": 1,
      "note": 69,
      "start": 45.4237,
      "duration": 0.07,
      "velocity": 89,
      "chip": "ym2612"
    },
    {
      "channel": 3,
      "note": 88,
      "start": 45.4243,
      "duration": 0.0697,
      "velocity": 95,
      "chip": "ym2612"
    },
    {
      "channel": 1,
      "note": 68,
      "start": 45.5293,
      "duration": 0.0726,
      "velocity": 89,
      "chip": "ym2612"
    },
    {
      "channel": 3,
      "note": 94,
      "start": 45.5321,
      "duration": 0.0701,
      "velocity": 95,
      "chip": "ym2612"
    },
    {
      "channel": 2,
      "note": 34,
      "start": 45.5335,
      "duration": 0.0868,
      "velocity": 1,
      "chip": "ym2612"
    },
    {
      "channel": 1,
      "note": 67,
      "start": 45.6197,
      "duration": 0.0875,
      "velocity": 89,
      "chip": "ym2612"
    },
    {
      "channel": 3,
      "note": 87,
      "start": 45.6224,
      "duration": 0.0851,
      "velocity": 95,
      "chip": "ym2612"
    },
    {
      "channel": 2,
      "note": 44,
      "start": 45.6238,
      "duration": 0.1013,
      "velocity": 1,
      "chip": "ym2612"
    },
    {
      "channel": 1,
      "note": 65,
      "start": 45.7246,
      "duration": 0.0727,
      "velocity": 89,
      "chip": "ym2612"
    },
    {
      "channel": 3,
      "note": 93,
      "start": 45.7272,
      "duration": 0.0703,
      "velocity": 95,
      "chip": "ym2612"
    },
    {
      "channel": 2,
      "note": 34,
      "start": 45.7287,
      "duration": 0.0873,
      "velocity": 1,
      "chip": "ym2612"
    },
    {
      "channel": 0,
      "note": 104,
      "start": 45.8149,
      "duration": 0.5666,
      "velocity": 97,
      "chip": "ym2612"
    },
    {
      "channel": 1,
      "note": 62,
      "start": 45.8154,
      "duration": 0.0906,
      "velocity": 89,
      "chip": "ym2612"
    },
    {
      "channel": 3,
      "note": 86,
      "start": 45.8182,
      "duration": 0.088,
      "velocity": 95,
      "chip": "ym2612"
    },
    {
      "channel": 2,
      "note": 34,
      "start": 45.8197,
      "duration": 0.193,
      "velocity": 1,
      "chip": "ym2612"
    },
    {
      "channel": 4,
      "note": 104,
      "start": 45.8539,
      "duration": 0.5844,
      "velocity": 97,
      "chip": "ym2612"
    },
    {
      "channel": 5,
      "note": 104,
      "start": 45.9069,
      "duration": 0.5656,
      "velocity": 97,
      "chip": "ym2612"
    },
    {
      "channel": 1,
      "note": 61,
      "start": 45.9242,
      "duration": 0.07,
      "velocity": 89,
      "chip": "ym2612"
    },
    {
      "channel": 3,
      "note": 92,
      "start": 45.9248,
      "duration": 0.0697,
      "velocity": 95,
      "chip": "ym2612"
    },
    {
      "channel": 1,
      "note": 60,
      "start": 46.0122,
      "duration": 0.0876,
      "velocity": 89,
      "chip": "ym2612"
    },
    {
      "channel": 3,
      "note": 87,
      "start": 46.0148,
      "duration": 0.0852,
      "velocity": 95,
      "chip": "ym2612"
    },
    {
      "channel": 2,
      "note": 44,
      "start": 46.0162,
      "duration": 0.1861,
      "velocity": 1,
      "chip": "ym2612"
    },
    {
      "channel": 1,
      "note": 59,
      "start": 46.117,
      "duration": 0.0676,
      "velocity": 89,
      "chip": "ym2612"
    },
    {
      "channel": 3,
      "note": 93,
      "start": 46.1176,
      "duration": 0.0673,
      "velocity": 95,
      "chip": "ym2612"
    },
    {
      "channel": 3,
      "note": 88,
      "start": 46.2044,
      "duration": 0.0875,
      "velocity": 95,
      "chip": "ym2612"
    },
    {
      "channel": 2,
      "note": 34,
      "start": 46.2059,
      "duration": 0.1038,
      "velocity": 1,
      "chip": "ym2612"
    },
    {
      "channel": 3,
      "note": 94,
      "start": 46.3118,
      "duration": 0.0704,
      "velocity": 95,
      "chip": "ym2612"
    },
    {
      "channel": 2,
      "note": 34,
      "start": 46.3134,
      "duration": 0.105,
      "velocity": 1,
      "chip": "ym2612"
    },
    {
      "channel": 0,
      "note": 103,
      "start": 46.4172,
      "duration": 0.5666,
      "velocity": 97,
      "chip": "ym2612"
    },
    {
      "channel": 1,
      "note": 65,
      "start": 46.4178,
      "duration": 0.0711,
      "velocity": 89,
      "chip": "ym2612"
    },
    {
      "channel": 3,
      "note": 87,
      "start": 46.4205,
      "duration": 0.0686,
      "velocity": 95,
      "chip": "ym2612"
    },
    {
      "channel": 2,
      "note": 44,
      "start": 46.4218,
      "duration": 0.187,
      "velocity": 1,
      "chip": "ym2612"
    },
    {
      "channel": 4,
      "note": 103,
      "start": 46.4555,
      "duration": 0.565,
      "velocity": 97,
      "chip": "ym2612"
    },
    {
      "channel": 5,
      "note": 103,
      "start": 46.4898,
      "duration": 0.5662,
      "velocity": 97,
      "chip": "ym2612"
    },
    {
      "channel": 1,
      "note": 64,
      "start": 46.5065,
      "duration": 0.0845,
      "velocity": 89,
      "chip": "ym2612"
    },
    {
      "channel": 3,
      "note": 93,
      "start": 46.5071,
      "duration": 0.0842,
      "velocity": 95,
      "chip": "ym2612"
    },
    {
      "channel": 1,
      "note": 63,
      "start": 46.6083,
      "duration": 0.0726,
      "velocity": 89,
      "chip": "ym2612"
    },
    {
      "channel": 3,
      "note": 86,
      "start": 46.611,
      "duration": 0.0702,
      "velocity": 95,
      "chip": "ym2612"
    },
    {
      "channel": 2,
      "note": 34,
      "start": 46.6124,
      "duration": 0.087,
      "velocity": 1,
      "chip": "ym2612"
    },
    {
      "channel": 1,
      "note": 62,
      "start": 46.6988,
      "duration": 0.0901,
      "velocity": 89,
      "chip": "ym2612"
    },
    {
      "channel": 3,
      "note": 92,
      "start": 46.7015,
      "duration": 0.0876,
      "velocity": 95,
      "chip": "ym2612"
    },
    {
      "channel": 2,
      "note": 34,
      "start": 46.703,
      "duration": 0.1042,
      "velocity": 1,
      "chip": "ym2612"
    },
    {
      "channel": 3,
      "note": 87,
      "start": 46.8093,
      "duration": 0.0681,
      "velocity": 95,
      "chip": "ym2612"
    },
    {
      "channel": 2,
      "note": 44,
      "start": 46.8107,
      "duration": 0.0839,
      "velocity": 1,
      "chip": "ym2612"
    },
    {
      "channel": 3,
      "note": 93,
      "start": 46.8968,
      "duration": 0.0878,
      "velocity": 95,
      "chip": "ym2612"
    },
    {
      "channel": 2,
      "note": 34,
      "start": 46.8982,
      "duration": 0.1935,
      "velocity": 1,
      "chip": "ym2612"
    },
    {
      "channel": 0,
      "note": 102,
      "start": 47.0019,
      "duration": 0.3744,
      "velocity": 97,
      "chip": "ym2612"
    },
    {
      "channel": 1,
      "note": 69,
      "start": 47.0024,
      "duration": 0.0705,
      "velocity": 89,
      "chip": "ym2612"
    },
    {
      "channel": 3,
      "note": 88,
      "start": 47.003,
      "duration": 0.0702,
      "velocity": 95,
      "chip": "ym2612"
    },
    {
      "channel": 4,
      "note": 102,
      "start": 47.0383,
      "duration": 0.3773,
      "velocity": 97,
      "chip": "ym2612"
    },
    {
      "channel": 5,
      "note": 102,
      "start": 47.0738,
      "duration": 0.3772,
      "velocity": 97,
      "chip": "ym2612"
    },
    {
      "channel": 1,
      "note": 68,
      "start": 47.0912,
      "duration": 0.0902,
      "velocity": 89,
      "chip": "ym2612"
    },
    {
      "channel": 3,
      "note": 94,
      "start": 47.0938,
      "duration": 0.0878,
      "velocity": 95,
      "chip": "ym2612"
    },
    {
      "channel": 2,
      "note": 34,
      "start": 47.0953,
      "duration": 0.1046,
      "velocity": 1,
      "chip": "ym2612"
    },
    {
      "channel": 1,
      "note": 67,
      "start": 47.1993,
      "duration": 0.0705,
      "velocity": 89,
      "chip": "ym2612"
    },
    {
      "channel": 3,
      "note": 87,
      "start": 47.202,
      "duration": 0.0681,
      "velocity": 95,
      "chip": "ym2612"
    },
    {
      "channel": 2,
      "note": 44,
      "start": 47.2034,
      "duration": 0.1013,
      "velocity": 1,
      "chip": "ym2612"
    },
    {
      "channel": 1,
      "note": 65,
      "start": 47.3041,
      "duration": 0.0726,
      "velocity": 89,
      "chip": "ym2612"
    },
    {
      "channel": 3,
      "note": 93,
      "start": 47.3068,
      "duration": 0.0702,
      "velocity": 95,
      "chip": "ym2612"
    },
    {
      "channel": 2,
      "note": 34,
      "start": 47.3083,
      "duration": 0.0871,
      "velocity": 1,
      "chip": "ym2612"
    },
    {
      "channel": 0,
      "note": 86,
      "start": 47.3943,
      "duration": 0.0909,
      "velocity": 97,
      "chip": "ym2612"
    },
    {
      "channel": 1,
      "note": 62,
      "start": 47.3949,
      "duration": 0.0908,
      "velocity": 89,
      "chip": "ym2612"
    },
    {
      "channel": 3,
      "note": 86,
      "start": 47.3976,
      "duration": 0.0883,
      "velocity": 95,
      "chip": "ym2612"
    },
    {
      "channel": 2,
      "note": 34,
      "start": 47.3991,
      "duration": 0.1946,
      "velocity": 1,
      "chip": "ym2612"
    },
    {
      "channel": 4,
      "note": 86,
      "start": 47.4335,
      "duration": 0.0888,
      "velocity": 97,
      "chip": "ym2612"
    },
    {
      "channel": 5,
      "note": 86,
      "start": 47.4866,
      "duration": 0.0711,
      "velocity": 97,
      "chip": "ym2612"
    },
    {
      "channel": 0,
      "note": 91,
      "start": 47.5036,
      "duration": 0.0707,
      "velocity": 97,
      "chip": "ym2612"
    },
    {
      "channel": 1,
      "note": 61,
      "start": 47.5041,
      "duration": 0.0706,
      "velocity": 89,
      "chip": "ym2612"
    },
    {
      "channel": 3,
      "note": 92,
      "start": 47.5047,
      "duration": 0.0703,
      "velocity": 95,
      "chip": "ym2612"
    },
    {
      "channel": 4,
      "note": 91,
      "start": 47.5401,
      "duration": 0.0737,
      "velocity": 97,
      "chip": "ym2612"
    },
    {
      "channel": 5,
      "note": 91,
      "start": 47.5756,
      "duration": 0.0893,
      "velocity": 97,
      "chip": "ym2612"
    },
    {
      "channel": 0,
      "note": 95,
      "start": 47.5927,
      "duration": 0.0884,
      "velocity": 97,
      "chip": "ym2612"
    },
    {
      "channel": 1,
      "note": 60,
      "start": 47.5932,
      "duration": 0.0883,
      "velocity": 89,
      "chip": "ym2612"
    },
    {
      "channel": 3,
      "note": 87,
      "start": 47.5959,
      "duration": 0.0859,
      "velocity": 95,
      "chip": "ym2612"
    },
    {
      "channel": 2,
      "note": 44,
      "start": 47.5973,
      "duration": 0.1886,
      "velocity": 1,
      "chip": "ym2612"
    },
    {
      "channel": 4,
      "note": 95,
      "start": 47.631,
      "duration": 0.0858,
      "velocity": 97,
      "chip": "ym2612"
    },
    {
      "channel": 5,
      "note": 95,
      "start": 47.6824,
      "duration": 0.0686,
      "velocity": 97,
      "chip": "ym2612"
    },
    {
      "channel": 0,
      "note": 98,
      "start": 47.6989,
      "duration": 0.0682,
      "velocity": 97,
      "chip": "ym2612"
    },
    {
      "channel": 1,
      "note": 59,
      "start": 47.6994,
      "duration": 0.0681,
      "velocity": 89,
      "chip": "ym2612"
    },
    {
      "channel": 3,
      "note": 93,
      "start": 47.6999,
      "duration": 0.0679,
      "velocity": 95,
      "chip": "ym2612"
    },
    {
      "channel": 4,
      "note": 98,
      "start": 47.7341,
      "duration": 0.0718,
      "velocity": 97,
      "chip": "ym2612"
    },
    {
      "channel": 5,
      "note": 98,
      "start": 47.7685,
      "duration": 0.0905,
      "velocity": 97,
      "chip": "ym2612"
    },
    {
      "channel": 0,
      "note": 99,
      "start": 47.7849,
      "duration": 1.1731,
      "velocity": 97,
      "chip": "ym2612"
    },
    {
      "channel": 3,
      "note": 88,
      "start": 47.788,
      "duration": 0.0881,
      "velocity": 95,
      "chip": "ym2612"
    },
    {
      "channel": 2,
      "note": 34,
      "start": 47.7894,
      "duration": 0.1049,
      "velocity": 1,
      "chip": "ym2612"
    },
    {
      "channel": 4,
      "note": 99,
      "start": 47.8413,
      "duration": 1.156,
      "velocity": 97,
      "chip": "ym2612"
    },
    {
      "channel": 5,
      "note": 99,
      "start": 47.8767,
      "duration": 1.1561,
      "velocity": 97,
      "chip": "ym2612"
    },
    {
      "channel": 3,
      "note": 94,
      "start": 47.8964,
      "duration": 0.0702,
      "velocity": 95,
      "chip": "ym2612"
    },
    {
      "channel": 2,
      "note": 34,
      "start": 47.8979,
      "duration": 0.0869,
      "velocity": 1,
      "chip": "ym2612"
    },
    {
      "channel": 1,
      "note": 65,
      "start": 47.9842,
      "duration": 0.0875,
      "velocity": 89,
      "chip": "ym2612"
    },
    {
      "channel": 3,
      "note": 87,
      "start": 47.987,
      "duration": 0.085,
      "velocity": 95,
      "chip": "ym2612"
    },
    {
      "channel": 2,
      "note": 44,
      "start": 47.9883,
      "duration": 0.2031,
      "velocity": 1,
      "chip": "ym2612"
    },
    {
      "channel": 1,
      "note": 64,
      "start": 48.0889,
      "duration": 0.0676,
      "velocity": 89,
      "chip": "ym2612"
    },
    {
      "channel": 3,
      "note": 93,
      "start": 48.0895,
      "duration": 0.0673,
      "velocity": 95,
      "chip": "ym2612"
    },
    {
      "channel": 1,
      "note": 63,
      "start": 48.1908,
      "duration": 0.0726,
      "velocity": 89,
      "chip": "ym2612"
    },
    {
      "channel": 3,
      "note": 86,
      "start": 48.1935,
      "duration": 0.0702,
      "velocity": 95,
      "chip": "ym2612"
    },
    {
      "channel": 2,
      "note": 34,
      "start": 48.195,
      "duration": 0.0869,
      "velocity": 1,
      "chip": "ym2612"
    },
    {
      "channel": 1,
      "note": 62,
      "start": 48.2813,
      "duration": 0.0901,
      "velocity": 89,
      "chip": "ym2612"
    },
    {
      "channel": 3,
      "note": 92,
      "start": 48.284,
      "duration": 0.0876,
      "velocity": 95,
      "chip": "ym2612"
    },
    {
      "channel": 2,
      "note": 34,
      "start": 48.2855,
      "duration": 0.1042,
      "velocity": 1,
      "chip": "ym2612"
    },
    {
      "channel": 3,
      "note": 87,
      "start": 48.3918,
      "duration": 0.0681,
      "velocity": 95,
      "chip": "ym2612"
    },
    {
      "channel": 2,
      "note": 44,
      "start": 48.3932,
      "duration": 0.0839,
      "velocity": 1,
      "chip": "ym2612"
    },
    {
      "channel": 3,
      "note": 93,
      "start": 48.4793,
      "duration": 0.0878,
      "velocity": 95,
      "chip": "ym2612"
    },
    {
      "channel": 2,
      "note": 34,
      "start": 48.4807,
      "duration": 0.1923,
      "velocity": 1,
      "chip": "ym2612"
    },
    {
      "channel": 1,
      "note": 69,
      "start": 48.5846,
      "duration": 0.07,
      "velocity": 89,
      "chip": "ym2612"
    },
    {
      "channel": 3,
      "note": 88,
      "start": 48.5852,
      "duration": 0.0697,
      "velocity": 95,
      "chip": "ym2612"
    },
    {
      "channel": 1,
      "note": 68,
      "start": 48.6724,
      "duration": 0.0901,
      "velocity": 89,
      "chip": "ym2612"
    },
    {
      "channel": 3,
      "note": 94,
      "start": 48.6752,
      "duration": 0.0876,
      "velocity": 95,
      "chip": "ym2612"
    },
    {
      "channel": 2,
      "note": 34,
      "start": 48.6766,
      "duration": 0.1043,
      "velocity": 1,
      "chip": "ym2612"
    },
    {
      "channel": 1,
      "note": 67,
      "start": 48.7805,
      "duration": 0.0706,
      "velocity": 89,
      "chip": "ym2612"
    },
    {
      "channel": 3,
      "note": 87,
      "start": 48.7832,
      "duration": 0.0682,
      "velocity": 95,
      "chip": "ym2612"
    },
    {
      "channel": 2,
      "note": 44,
      "start": 48.7845,
      "duration": 0.0844,
      "velocity": 1,
      "chip": "ym2612"
    },
    {
      "channel": 1,
      "note": 65,
      "start": 48.8683,
      "duration": 0.0901,
      "velocity": 89,
      "chip": "ym2612"
    },
    {
      "channel": 3,
      "note": 93,
      "start": 48.871,
      "duration": 0.0877,
      "velocity": 95,
      "chip": "ym2612"
    },
    {
      "channel": 2,
      "note": 34,
      "start": 48.8725,
      "duration": 0.1046,
      "velocity": 1,
      "chip": "ym2612"
    },
    {
      "channel": 0,
      "note": 98,
      "start": 48.976,
      "duration": 0.5667,
      "velocity": 97,
      "chip": "ym2612"
    },
    {
      "channel": 1,
      "note": 62,
      "start": 48.9765,
      "duration": 0.0732,
      "velocity": 89,
      "chip": "ym2612"
    },
    {
      "channel": 3,
      "note": 86,
      "start": 48.9793,
      "duration": 0.0707,
      "velocity": 95,
      "chip": "ym2612"
    },
    {
      "channel": 2,
      "note": 34,
      "start": 48.9808,
      "duration": 0.1933,
      "velocity": 1,
      "chip": "ym2612"
    },
    {
      "channel": 4,
      "note": 98,
      "start": 49.0151,
      "duration": 0.5668,
      "velocity": 97,
      "chip": "ym2612"
    },
    {
      "channel": 5,
      "note": 98,
      "start": 49.0506,
      "duration": 0.5825,
      "velocity": 97,
      "chip": "ym2612"
    },
    {
      "channel": 1,
      "note": 61,
      "start": 49.0856,
      "duration": 0.07,
      "velocity": 89,
      "chip": "ym2612"
    },
    {
      "channel": 3,
      "note": 92,
      "start": 49.0862,
      "duration": 0.0697,
      "velocity": 95,
      "chip": "ym2612"
    },
    {
      "channel": 1,
      "note": 60,
      "start": 49.1735,
      "duration": 0.0875,
      "velocity": 89,
      "chip": "ym2612"
    },
    {
      "channel": 3,
      "note": 87,
      "start": 49.1762,
      "duration": 0.0851,
      "velocity": 95,
      "chip": "ym2612"
    },
    {
      "channel": 2,
      "note": 44,
      "start": 49.1776,
      "duration": 0.1861,
      "velocity": 1,
      "chip": "ym2612"
    },
    {
      "channel": 1,
      "note": 59,
      "start": 49.2783,
      "duration": 0.0677,
      "velocity": 89,
      "chip": "ym2612"
    },
    {
      "channel": 3,
      "note": 93,
      "start": 49.2788,
      "duration": 0.0674,
      "velocity": 95,
      "chip": "ym2612"
    },
    {
      "channel": 3,
      "note": 88,
      "start": 49.3659,
      "duration": 0.0875,
      "velocity": 95,
      "chip": "ym2612"
    },
    {
      "channel": 2,
      "note": 34,
      "start": 49.3674,
      "duration": 0.1037,
      "velocity": 1,
      "chip": "ym2612"
    },
    {
      "channel": 3,
      "note": 94,
      "start": 49.4733,
      "duration": 0.0702,
      "velocity": 95,
      "chip": "ym2612"
    },
    {
      "channel": 2,
      "note": 34,
      "start": 49.4747,
      "duration": 0.0871,
      "velocity": 1,
      "chip": "ym2612"
    },
    {
      "channel": 0,
      "note": 97,
      "start": 49.5607,
      "duration": 0.5844,
      "velocity": 97,
      "chip": "ym2612"
    },
    {
      "channel": 1,
      "note": 65,
      "start": 49.5613,
      "duration": 0.0883,
      "velocity": 89,
      "chip": "ym2612"
    },
    {
      "channel": 3,
      "note": 87,
      "start": 49.5641,
      "duration": 0.0858,
      "velocity": 95,
      "chip": "ym2612"
    },
    {
      "channel": 2,
      "note": 44,
      "start": 49.5654,
      "duration": 0.1872,
      "velocity": 1,
      "chip": "ym2612"
    },
    {
      "channel": 4,
      "note": 97,
      "start": 49.6161,
      "duration": 0.5658,
      "velocity": 97,
      "chip": "ym2612"
    },
    {
      "channel": 5,
      "note": 97,
      "start": 49.6505,
      "duration": 0.5668,
      "velocity": 97,
      "chip": "ym2612"
    },
    {
      "channel": 1,
      "note": 64,
      "start": 49.6672,
      "duration": 0.0676,
      "velocity": 89,
      "chip": "ym2612"
    },
    {
      "channel": 3,
      "note": 93,
      "start": 49.6678,
      "duration": 0.0673,
      "velocity": 95,
      "chip": "ym2612"
    },
    {
      "channel": 1,
      "note": 63,
      "start": 49.752,
      "duration": 0.09,
      "velocity": 89,
      "chip": "ym2612"
    },
    {
      "channel": 3,
      "note": 86,
      "start": 49.7548,
      "duration": 0.0876,
      "velocity": 95,
      "chip": "ym2612"
    },
    {
      "channel": 2,
      "note": 34,
      "start": 49.7562,
      "duration": 0.1043,
      "velocity": 1,
      "chip": "ym2612"
    },
    {
      "channel": 1,
      "note": 62,
      "start": 49.8599,
      "duration": 0.0727,
      "velocity": 89,
      "chip": "ym2612"
    },
    {
      "channel": 3,
      "note": 92,
      "start": 49.8626,
      "duration": 0.0703,
      "velocity": 95,
      "chip": "ym2612"
    },
    {
      "channel": 2,
      "note": 34,
      "start": 49.8641,
      "duration": 0.1044,
      "velocity": 1,
      "chip": "ym2612"
    },
    {
      "channel": 3,
      "note": 87,
      "start": 49.9707,
      "duration": 0.068,
      "velocity": 95,
      "chip": "ym2612"
    },
    {
      "channel": 2,
      "note": 44,
      "start": 49.9721,
      "duration": 0.0839,
      "velocity": 1,
      "chip": "ym2612"
    },
    {
      "channel": 3,
      "note": 93,
      "start": 50.0581,
      "duration": 0.0877,
      "velocity": 95,
      "chip": "ym2612"
    },
    {
      "channel": 2,
      "note": 34,
      "start": 50.0596,
      "duration": 0.1935,
      "velocity": 1,
      "chip": "ym2612"
    },
    {
      "channel": 0,
      "note": 94,
      "start": 50.1632,
      "duration": 0.3749,
      "velocity": 97,
      "chip": "ym2612"
    },
    {
      "channel": 1,
      "note": 69,
      "start": 50.1637,
      "duration": 0.0706,
      "velocity": 89,
      "chip": "ym2612"
    },
    {
      "channel": 3,
      "note": 88,
      "start": 50.1643,
      "duration": 0.0703,
      "velocity": 95,
      "chip": "ym2612"
    },
    {
      "channel": 4,
      "note": 94,
      "start": 50.1998,
      "duration": 0.3777,
      "velocity": 97,
      "chip": "ym2612"
    },
    {
      "channel": 5,
      "note": 94,
      "start": 50.2352,
      "duration": 0.3777,
      "velocity": 97,
      "chip": "ym2612"
    },
    {
      "channel": 1,
      "note": 68,
      "start": 50.2526,
      "duration": 0.09,
      "velocity": 89,
      "chip": "ym2612"
    },
    {
      "channel": 3,
      "note": 94,
      "start": 50.2553,
      "duration": 0.0876,
      "velocity": 95,
      "chip": "ym2612"
    },
    {
      "channel": 2,
      "note": 34,
      "start": 50.2567,
      "duration": 0.1043,
      "velocity": 1,
      "chip": "ym2612"
    },
    {
      "channel": 1,
      "note": 67,
      "start": 50.3605,
      "duration": 0.0707,
      "velocity": 89,
      "chip": "ym2612"
    },
    {
      "channel": 3,
      "note": 87,
      "start": 50.3632,
      "duration": 0.0683,
      "velocity": 95,
      "chip": "ym2612"
    },
    {
      "channel": 2,
      "note": 44,
      "start": 50.3646,
      "duration": 0.0846,
      "velocity": 1,
      "chip": "ym2612"
    },
    {
      "channel": 1,
      "note": 65,
      "start": 50.4485,
      "duration": 0.0901,
      "velocity": 89,
      "chip": "ym2612"
    },
    {
      "channel": 3,
      "note": 93,
      "start": 50.4512,
      "duration": 0.0877,
      "velocity": 95,
      "chip": "ym2612"
    },
    {
      "channel": 2,
      "note": 34,
      "start": 50.4527,
      "duration": 0.1046,
      "velocity": 1,
      "chip": "ym2612"
    },
    {
      "channel": 0,
      "note": 93,
      "start": 50.5562,
      "duration": 0.5668,
      "velocity": 97,
      "chip": "ym2612"
    },
    {
      "channel": 1,
      "note": 62,
      "start": 50.5567,
      "duration": 0.0732,
      "velocity": 89,
      "chip": "ym2612"
    },
    {
      "channel": 3,
      "note": 86,
      "start": 50.5595,
      "duration": 0.0707,
      "velocity": 95,
      "chip": "ym2612"
    },
    {
      "channel": 2,
      "note": 34,
      "start": 50.561,
      "duration": 0.1932,
      "velocity": 1,
      "chip": "ym2612"
    },
    {
      "channel": 4,
      "note": 93,
      "start": 50.5952,
      "duration": 0.5669,
      "velocity": 97,
      "chip": "ym2612"
    },
    {
      "channel": 5,
      "note": 93,
      "start": 50.6309,
      "duration": 0.5824,
      "velocity": 97,
      "chip": "ym2612"
    },
    {
      "channel": 1,
      "note": 61,
      "start": 50.6482,
      "duration": 0.0876,
      "velocity": 89,
      "chip": "ym2612"
    },
    {
      "channel": 3,
      "note": 92,
      "start": 50.6488,
      "duration": 0.0873,
      "velocity": 95,
      "chip": "ym2612"
    },
    {
      "channel": 1,
      "note": 60,
      "start": 50.7536,
      "duration": 0.0706,
      "velocity": 89,
      "chip": "ym2612"
    },
    {
      "channel": 3,
      "note": 87,
      "start": 50.7564,
      "duration": 0.0681,
      "velocity": 95,
      "chip": "ym2612"
    },
    {
      "channel": 2,
      "note": 44,
      "start": 50.7577,
      "duration": 0.1861,
      "velocity": 1,
      "chip": "ym2612"
    },
    {
      "channel": 1,
      "note": 59,
      "start": 50.8585,
      "duration": 0.0676,
      "velocity": 89,
      "chip": "ym2612"
    },
    {
      "channel": 3,
      "note": 93,
      "start": 50.8591,
      "duration": 0.0673,
      "velocity": 95,
      "chip": "ym2612"
    },
    {
      "channel": 3,
      "note": 88,
      "start": 50.946,
      "duration": 0.0877,
      "velocity": 95,
      "chip": "ym2612"
    },
    {
      "channel": 2,
      "note": 34,
      "start": 50.9475,
      "duration": 0.104,
      "velocity": 1,
      "chip": "ym2612"
    },
    {
      "channel": 3,
      "note": 94,
      "start": 51.0536,
      "duration": 0.0702,
      "velocity": 95,
      "chip": "ym2612"
    },
    {
      "channel": 2,
      "note": 34,
      "start": 51.055,
      "duration": 0.0871,
      "velocity": 1,
      "chip": "ym2612"
    },
    {
      "channel": 0,
      "note": 92,
      "start": 51.141,
      "duration": 0.5662,
      "velocity": 97,
      "chip": "ym2612"
    },
    {
      "channel": 1,
      "note": 65,
      "start": 51.1415,
      "duration": 0.0882,
      "velocity": 89,
      "chip": "ym2612"
    },
    {
      "channel": 3,
      "note": 87,
      "start": 51.1443,
      "duration": 0.0857,
      "velocity": 95,
      "chip": "ym2612"
    },
    {
      "channel": 2,
      "note": 44,
      "start": 51.1457,
      "duration": 0.1873,
      "velocity": 1,
      "chip": "ym2612"
    },
    {
      "channel": 4,
      "note": 92,
      "start": 51.1794,
      "duration": 0.5822,
      "velocity": 97,
      "chip": "ym2612"
    },
    {
      "channel": 5,
      "note": 92,
      "start": 51.2307,
      "duration": 0.5663,
      "velocity": 97,
      "chip": "ym2612"
    },
    {
      "channel": 1,
      "note": 64,
      "start": 51.2474,
      "duration": 0.0678,
      "velocity": 89,
      "chip": "ym2612"
    },
    {
      "channel": 3,
      "note": 93,
      "start": 51.248,
      "duration": 0.0675,
      "velocity": 95,
      "chip": "ym2612"
    },
    {
      "channel": 1,
      "note": 63,
      "start": 51.3324,
      "duration": 0.09,
      "velocity": 89,
      "chip": "ym2612"
    },
    {
      "channel": 3,
      "note": 86,
      "start": 51.3352,
      "duration": 0.0876,
      "velocity": 95,
      "chip": "ym2612"
    },
    {
      "channel": 2,
      "note": 34,
      "start": 51.3366,
      "duration": 0.1043,
      "velocity": 1,
      "chip": "ym2612"
    },
    {
      "channel": 1,
      "note": 62,
      "start": 51.4403,
      "duration": 0.0726,
      "velocity": 89,
      "chip": "ym2612"
    },
    {
      "channel": 3,
      "note": 92,
      "start": 51.443,
      "duration": 0.0702,
      "velocity": 95,
      "chip": "ym2612"
    },
    {
      "channel": 2,
      "note": 34,
      "start": 51.4445,
      "duration": 0.0868,
      "velocity": 1,
      "chip": "ym2612"
    },
    {
      "channel": 3,
      "note": 87,
      "start": 51.5335,
      "duration": 0.0849,
      "velocity": 95,
      "chip": "ym2612"
    },
    {
      "channel": 2,
      "note": 44,
      "start": 51.5348,
      "duration": 0.1007,
      "velocity": 1,
      "chip": "ym2612"
    },
    {
      "channel": 3,
      "note": 93,
      "start": 51.6377,
      "duration": 0.0702,
      "velocity": 95,
      "chip": "ym2612"
    },
    {
      "channel": 2,
      "note": 34,
      "start": 51.6392,
      "duration": 0.1938,
      "velocity": 1,
      "chip": "ym2612"
    },
    {
      "channel": 0,
      "note": 91,
      "start": 51.7429,
      "duration": 0.5709,
      "velocity": 97,
      "chip": "ym2612"
    },
    {
      "channel": 1,
      "note": 69,
      "start": 51.7434,
      "duration": 0.0706,
      "velocity": 89,
      "chip": "ym2612"
    },
    {
      "channel": 3,
      "note": 88,
      "start": 51.744,
      "duration": 0.0704,
      "velocity": 95,
      "chip": "ym2612"
    },
    {
      "channel": 4,
      "note": 91,
      "start": 51.7794,
      "duration": 0.5736,
      "velocity": 97,
      "chip": "ym2612"
    },
    {
      "channel": 5,
      "note": 91,
      "start": 51.815,
      "duration": 0.5721,
      "velocity": 97,
      "chip": "ym2612"
    },
    {
      "channel": 1,
      "note": 68,
      "start": 51.8324,
      "duration": 0.09,
      "velocity": 89,
      "chip": "ym2612"
    },
    {
      "channel": 3,
      "note": 94,
      "start": 51.8351,
      "duration": 0.0877,
      "velocity": 95,
      "chip": "ym2612"
    },
    {
      "channel": 2,
      "note": 34,
      "start": 51.8365,
      "duration": 0.1043,
      "velocity": 1,
      "chip": "ym2612"
    },
    {
      "channel": 1,
      "note": 67,
      "start": 51.9403,
      "duration": 0.0706,
      "velocity": 89,
      "chip": "ym2612"
    },
    {
      "channel": 3,
      "note": 87,
      "start": 51.9429,
      "duration": 0.0682,
      "velocity": 95,
      "chip": "ym2612"
    },
    {
      "channel": 2,
      "note": 44,
      "start": 51.9443,
      "duration": 0.0844,
      "velocity": 1,
      "chip": "ym2612"
    },
    {
      "channel": 1,
      "note": 65,
      "start": 52.0281,
      "duration": 0.0902,
      "velocity": 89,
      "chip": "ym2612"
    },
    {
      "channel": 3,
      "note": 93,
      "start": 52.0309,
      "duration": 0.0877,
      "velocity": 95,
      "chip": "ym2612"
    },
    {
      "channel": 2,
      "note": 34,
      "start": 52.0323,
      "duration": 0.1044,
      "velocity": 1,
      "chip": "ym2612"
    },
    {
      "channel": 1,
      "note": 62,
      "start": 52.1361,
      "duration": 0.0726,
      "velocity": 89,
      "chip": "ym2612"
    },
    {
      "channel": 3,
      "note": 86,
      "start": 52.1389,
      "duration": 0.07,
      "velocity": 95,
      "chip": "ym2612"
    },
    {
      "channel": 2,
      "note": 34,
      "start": 52.1404,
      "duration": 0.1926,
      "velocity": 1,
      "chip": "ym2612"
    },
    {
      "channel": 1,
      "note": 61,
      "start": 52.2266,
      "duration": 0.0877,
      "velocity": 89,
      "chip": "ym2612"
    },
    {
      "channel": 3,
      "note": 92,
      "start": 52.2272,
      "duration": 0.0875,
      "velocity": 95,
      "chip": "ym2612"
    },
    {
      "channel": 0,
      "note": 90,
      "start": 52.3319,
      "duration": 0.561,
      "velocity": 97,
      "chip": "ym2612"
    },
    {
      "channel": 1,
      "note": 60,
      "start": 52.3324,
      "duration": 0.0711,
      "velocity": 89,
      "chip": "ym2612"
    },
    {
      "channel": 3,
      "note": 87,
      "start": 52.3352,
      "duration": 0.0686,
      "velocity": 95,
      "chip": "ym2612"
    },
    {
      "channel": 2,
      "note": 44,
      "start": 52.3365,
      "duration": 0.1869,
      "velocity": 1,
      "chip": "ym2612"
    },
    {
      "channel": 4,
      "note": 90,
      "start": 52.3702,
      "duration": 0.5613,
      "velocity": 97,
      "chip": "ym2612"
    },
    {
      "channel": 5,
      "note": 90,
      "start": 52.4044,
      "duration": 0.58,
      "velocity": 97,
      "chip": "ym2612"
    },
    {
      "channel": 1,
      "note": 59,
      "start": 52.4212,
      "duration": 0.0846,
      "velocity": 89,
      "chip": "ym2612"
    },
    {
      "channel": 3,
      "note": 93,
      "start": 52.4217,
      "duration": 0.0842,
      "velocity": 95,
      "chip": "ym2612"
    },
    {
      "channel": 3,
      "note": 88,
      "start": 52.5256,
      "duration": 0.07,
      "velocity": 95,
      "chip": "ym2612"
    },
    {
      "channel": 2,
      "note": 34,
      "start": 52.527,
      "duration": 0.104,
      "velocity": 1,
      "chip": "ym2612"
    },
    {
      "channel": 3,
      "note": 94,
      "start": 52.6332,
      "duration": 0.0701,
      "velocity": 95,
      "chip": "ym2612"
    },
    {
      "channel": 2,
      "note": 34,
      "start": 52.6347,
      "duration": 0.0868,
      "velocity": 1,
      "chip": "ym2612"
    },
    {
      "channel": 1,
      "note": 65,
      "start": 52.7209,
      "duration": 0.0875,
      "velocity": 89,
      "chip": "ym2612"
    },
    {
      "channel": 3,
      "note": 87,
      "start": 52.7236,
      "duration": 0.0851,
      "velocity": 95,
      "chip": "ym2612"
    },
    {
      "channel": 2,
      "note": 44,
      "start": 52.7249,
      "duration": 0.1864,
      "velocity": 1,
      "chip": "ym2612"
    },
    {
      "channel": 1,
      "note": 64,
      "start": 52.8256,
      "duration": 0.0677,
      "velocity": 89,
      "chip": "ym2612"
    },
    {
      "channel": 3,
      "note": 93,
      "start": 52.8262,
      "duration": 0.0674,
      "velocity": 95,
      "chip": "ym2612"
    },
    {
      "channel": 0,
      "note": 89,
      "start": 52.9103,
      "duration": 0.3764,
      "velocity": 97,
      "chip": "ym2612"
    },
    {
      "channel": 1,
      "note": 63,
      "start": 52.9108,
      "duration": 0.0907,
      "velocity": 89,
      "chip": "ym2612"
    },
    {
      "channel": 3,
      "note": 86,
      "start": 52.9136,
      "duration": 0.0882,
      "velocity": 95,
      "chip": "ym2612"
    },
    {
      "channel": 2,
      "note": 34,
      "start": 52.915,
      "duration": 0.1052,
      "velocity": 1,
      "chip": "ym2612"
    },
    {
      "channel": 4,
      "note": 89,
      "start": 52.9494,
      "duration": 0.3915,
      "velocity": 97,
      "chip": "ym2612"
    },
    {
      "channel": 5,
      "note": 89,
      "start": 53.0024,
      "duration": 0.3739,
      "velocity": 97,
      "chip": "ym2612"
    },
    {
      "channel": 1,
      "note": 62,
      "start": 53.0197,
      "duration": 0.0725,
      "velocity": 89,
      "chip": "ym2612"
    },
    {
      "channel": 3,
      "note": 92,
      "start": 53.0224,
      "duration": 0.0701,
      "velocity": 95,
      "chip": "ym2612"
    },
    {
      "channel": 2,
      "note": 34,
      "start": 53.0239,
      "duration": 0.0867,
      "velocity": 1,
      "chip": "ym2612"
    },
    {
      "channel": 3,
      "note": 87,
      "start": 53.1127,
      "duration": 0.0852,
      "velocity": 95,
      "chip": "ym2612"
    },
    {
      "channel": 2,
      "note": 44,
      "start": 53.1141,
      "duration": 0.101,
      "velocity": 1,
      "chip": "ym2612"
    },
    {
      "channel": 3,
      "note": 93,
      "start": 53.2172,
      "duration": 0.0702,
      "velocity": 95,
      "chip": "ym2612"
    },
    {
      "channel": 2,
      "note": 34,
      "start": 53.2187,
      "duration": 0.1933,
      "velocity": 1,
      "chip": "ym2612"
    },
    {
      "channel": 0,
      "note": 88,
      "start": 53.3048,
      "duration": 0.3925,
      "velocity": 97,
      "chip": "ym2612"
    },
    {
      "channel": 1,
      "note": 69,
      "start": 53.3053,
      "duration": 0.088,
      "velocity": 89,
      "chip": "ym2612"
    },
    {
      "channel": 3,
      "note": 88,
      "start": 53.3059,
      "duration": 0.0877,
      "velocity": 95,
      "chip": "ym2612"
    },
    {
      "channel": 4,
      "note": 88,
      "start": 53.3587,
      "duration": 0.387,
      "velocity": 97,
      "chip": "ym2612"
    },
    {
      "channel": 5,
      "note": 88,
      "start": 53.3941,
      "duration": 0.3899,
      "velocity": 97,
      "chip": "ym2612"
    },
    {
      "channel": 1,
      "note": 68,
      "start": 53.4115,
      "duration": 0.0727,
      "velocity": 89,
      "chip": "ym2612"
    },
    {
      "channel": 3,
      "note": 94,
      "start": 53.4142,
      "duration": 0.0702,
      "velocity": 95,
      "chip": "ym2612"
    },
    {
      "channel": 2,
      "note": 34,
      "start": 53.4157,
      "duration": 0.1045,
      "velocity": 1,
      "chip": "ym2612"
    },
    {
      "channel": 1,
      "note": 67,
      "start": 53.5197,
      "duration": 0.0705,
      "velocity": 89,
      "chip": "ym2612"
    },
    {
      "channel": 3,
      "note": 87,
      "start": 53.5223,
      "duration": 0.0681,
      "velocity": 95,
      "chip": "ym2612"
    },
    {
      "channel": 2,
      "note": 44,
      "start": 53.5237,
      "duration": 0.0843,
      "velocity": 1,
      "chip": "ym2612"
    },
    {
      "channel": 1,
      "note": 65,
      "start": 53.6074,
      "duration": 0.0903,
      "velocity": 89,
      "chip": "ym2612"
    },
    {
      "channel": 3,
      "note": 93,
      "start": 53.6102,
      "duration": 0.0878,
      "velocity": 95,
      "chip": "ym2612"
    },
    {
      "channel": 2,
      "note": 34,
      "start": 53.6116,
      "duration": 0.1108,
      "velocity": 1,
      "chip": "ym2612"
    },
    {
      "channel": 1,
      "note": 53,
      "start": 53.7218,
      "duration": 0.0793,
      "velocity": 89,
      "chip": "ym2612"
    },
    {
      "channel": 3,
      "note": 77,
      "start": 53.7277,
      "duration": 0.0737,
      "velocity": 95,
      "chip": "ym2612"
    },
    {
      "channel": 2,
      "note": 34,
      "start": 53.7291,
      "duration": 0.1991,
      "velocity": 1,
      "chip": "ym2612"
    },
    {
      "channel": 1,
      "note": 52,
      "start": 53.8223,
      "duration": 0.0875,
      "velocity": 89,
      "chip": "ym2612"
    },
    {
      "channel": 3,
      "note": 83,
      "start": 53.8228,
      "duration": 0.0873,
      "velocity": 95,
      "chip": "ym2612"
    },
    {
      "channel": 1,
      "note": 51,
      "start": 53.9277,
      "duration": 0.0042,
      "velocity": 89,
      "chip": "ym2612"
    },
    {
      "channel": 3,
      "note": 78,
      "start": 53.9304,
      "duration": 0.0015,
      "velocity": 95,
      "chip": "ym2612"
    },
    {
      "channel": 2,
      "note": 44,
      "start": 53.9318,
      "duration": 0.0001,
      "velocity": 116,
      "chip": "ym2612"
    }
  ]
}