{
  "track_name": "04 - Opening (Part 3)",
  "duration_sec": 44.851,
  "sample_rate": 44100,
  "note_count": 558,
  "unique_pitches": 17,
  "pitch_range": 42,
  "avg_note_duration": 0.384,
  "reconstruction_stats": {
    "notes_reconstructed": 558,
    "keyon_events": 558,
    "keyoff_events": 558,
    "orphan_keyons": 0,
    "unique_pitches": 17,
    "pitch_range": 42,
    "avg_duration_sec": 0.384
  },
  "metadata": {
    "source": "D\\Desert Strike - Return to the Gulf\\04 - Opening (Part 3).vgz"
  },
  "notes": [
    {
      "channel": 0,
      "note": -1,
      "start": 0.0535,
      "duration": 3.2476,
      "velocity": 102,
      "chip": "ym2612"
    },
    {
      "channel": 1,
      "note": 66,
      "start": 0.0552,
      "duration": 0.096,
      "velocity": 109,
      "chip": "ym2612"
    },
    {
      "channel": 2,
      "note": 71,
      "start": 0.0568,
      "duration": 3.7112,
      "velocity": 109,
      "chip": "ym2612"
    },
    {
      "channel": 3,
      "note": 64,
      "start": 0.0585,
      "duration": 3.7097,
      "velocity": 109,
      "chip": "ym2612"
    },
    {
      "channel": 4,
      "note": 40,
      "start": 0.0603,
      "duration": 3.7082,
      "velocity": 109,
      "chip": "ym2612"
    },
    {
      "channel": 5,
      "note": 66,
      "start": 0.062,
      "duration": 0.2065,
      "velocity": 127,
      "chip": "ym2612"
    },
    {
      "channel": 1,
      "note": 49,
      "start": 0.1679,
      "duration": 0.0999,
      "velocity": 109,
      "chip": "ym2612"
    },
    {
      "channel": 1,
      "note": 49,
      "start": 0.2846,
      "duration": 0.0999,
      "velocity": 109,
      "chip": "ym2612"
    },
    {
      "channel": 5,
      "note": 31,
      "start": 0.2854,
      "duration": 0.4496,
      "velocity": 127,
      "chip": "ym2612"
    },
    {
      "channel": 1,
      "note": 61,
      "start": 0.4012,
      "duration": 0.0999,
      "velocity": 109,
      "chip": "ym2612"
    },
    {
      "channel": 1,
      "note": 49,
      "start": 0.5179,
      "duration": 0.0999,
      "velocity": 109,
      "chip": "ym2612"
    },
    {
      "channel": 1,
      "note": 49,
      "start": 0.6345,
      "duration": 0.0999,
      "velocity": 109,
      "chip": "ym2612"
    },
    {
      "channel": 1,
      "note": 61,
      "start": 0.7513,
      "duration": 0.0998,
      "velocity": 109,
      "chip": "ym2612"
    },
    {
      "channel": 5,
      "note": 31,
      "start": 0.752,
      "duration": 0.2163,
      "velocity": 127,
      "chip": "ym2612"
    },
    {
      "channel": 1,
      "note": 49,
      "start": 0.8679,
      "duration": 0.0999,
      "velocity": 109,
      "chip": "ym2612"
    },
    {
      "channel": 1,
      "note": 49,
      "start": 0.9846,
      "duration": 0.0998,
      "velocity": 109,
      "chip": "ym2612"
    },
    {
      "channel": 5,
      "note": 31,
      "start": 0.9868,
      "duration": 0.6816,
      "velocity": 127,
      "chip": "ym2612"
    },
    {
      "channel": 1,
      "note": 49,
      "start": 1.1012,
      "duration": 0.0999,
      "velocity": 109,
      "chip": "ym2612"
    },
    {
      "channel": 1,
      "note": 61,
      "start": 1.2179,
      "duration": 0.0999,
      "velocity": 109,
      "chip": "ym2612"
    },
    {
      "channel": 1,
      "note": 49,
      "start": 1.3346,
      "duration": 0.0999,
      "velocity": 109,
      "chip": "ym2612"
    },
    {
      "channel": 1,
      "note": 49,
      "start": 1.4512,
      "duration": 0.0999,
      "velocity": 109,
      "chip": "ym2612"
    },
    {
      "channel": 1,
      "note": 61,
      "start": 1.5679,
      "duration": 0.0999,
      "velocity": 109,
      "chip": "ym2612"
    },
    {
      "channel": 1,
      "note": 49,
      "start": 1.6847,
      "duration": 0.0998,
      "velocity": 109,
      "chip": "ym2612"
    },
    {
      "channel": 5,
      "note": 34,
      "start": 1.6869,
      "duration": 0.2149,
      "velocity": 127,
      "chip": "ym2612"
    },
    {
      "channel": 1,
      "note": 61,
      "start": 1.8012,
      "duration": 0.0999,
      "velocity": 109,
      "chip": "ym2612"
    },
    {
      "channel": 1,
      "note": 49,
      "start": 1.9196,
      "duration": 0.0982,
      "velocity": 109,
      "chip": "ym2612"
    },
    {
      "channel": 5,
      "note": 31,
      "start": 1.9219,
      "duration": 0.2132,
      "velocity": 127,
      "chip": "ym2612"
    },
    {
      "channel": 1,
      "note": 49,
      "start": 2.0345,
      "duration": 0.1,
      "velocity": 109,
      "chip": "ym2612"
    },
    {
      "channel": 1,
      "note": 49,
      "start": 2.1513,
      "duration": 0.0999,
      "velocity": 109,
      "chip": "ym2612"
    },
    {
      "channel": 5,
      "note": 31,
      "start": 2.1521,
      "duration": 0.4497,
      "velocity": 127,
      "chip": "ym2612"
    },
    {
      "channel": 1,
      "note": 61,
      "start": 2.2679,
      "duration": 0.0999,
      "velocity": 109,
      "chip": "ym2612"
    },
    {
      "channel": 1,
      "note": 49,
      "start": 2.3846,
      "duration": 0.0999,
      "velocity": 109,
      "chip": "ym2612"
    },
    {
      "channel": 1,
      "note": 49,
      "start": 2.5012,
      "duration": 0.0999,
      "velocity": 109,
      "chip": "ym2612"
    },
    {
      "channel": 1,
      "note": 61,
      "start": 2.618,
      "duration": 0.0999,
      "velocity": 109,
      "chip": "ym2612"
    },
    {
      "channel": 5,
      "note": 31,
      "start": 2.6187,
      "duration": 0.2163,
      "velocity": 127,
      "chip": "ym2612"
    },
    {
      "channel": 1,
      "note": 49,
      "start": 2.7346,
      "duration": 0.0999,
      "velocity": 109,
      "chip": "ym2612"
    },
    {
      "channel": 1,
      "note": 49,
      "start": 2.8513,
      "duration": 0.0999,
      "velocity": 109,
      "chip": "ym2612"
    },
    {
      "channel": 5,
      "note": 31,
      "start": 2.8535,
      "duration": 0.6815,
      "velocity": 127,
      "chip": "ym2612"
    },
    {
      "channel": 1,
      "note": 49,
      "start": 2.9679,
      "duration": 0.0999,
      "velocity": 109,
      "chip": "ym2612"
    },
    {
      "channel": 1,
      "note": 61,
      "start": 3.0846,
      "duration": 0.0999,
      "velocity": 109,
      "chip": "ym2612"
    },
    {
      "channel": 1,
      "note": 49,
      "start": 3.2012,
      "duration": 0.1001,
      "velocity": 109,
      "chip": "ym2612"
    },
    {
      "channel": 0,
      "note": 61,
      "start": 3.3179,
      "duration": 0.4499,
      "velocity": 102,
      "chip": "ym2612"
    },
    {
      "channel": 1,
      "note": 49,
      "start": 3.3182,
      "duration": 0.0996,
      "velocity": 109,
      "chip": "ym2612"
    },
    {
      "channel": 1,
      "note": 61,
      "start": 3.4345,
      "duration": 0.1,
      "velocity": 109,
      "chip": "ym2612"
    },
    {
      "channel": 1,
      "note": 49,
      "start": 3.5514,
      "duration": 0.0998,
      "velocity": 109,
      "chip": "ym2612"
    },
    {
      "channel": 5,
      "note": 34,
      "start": 3.5536,
      "duration": 0.2151,
      "velocity": 127,
      "chip": "ym2612"
    },
    {
      "channel": 1,
      "note": 61,
      "start": 3.6679,
      "duration": 0.1,
      "velocity": 109,
      "chip": "ym2612"
    },
    {
      "channel": 0,
      "note": 59,
      "start": 3.7864,
      "duration": 3.248,
      "velocity": 102,
      "chip": "ym2612"
    },
    {
      "channel": 1,
      "note": 49,
      "start": 3.7881,
      "duration": 0.0964,
      "velocity": 109,
      "chip": "ym2612"
    },
    {
      "channel": 2,
      "note": 64,
      "start": 3.7884,
      "duration": 3.713,
      "velocity": 109,
      "chip": "ym2612"
    },
    {
      "channel": 3,
      "note": 73,
      "start": 3.7886,
      "duration": 3.713,
      "velocity": 109,
      "chip": "ym2612"
    },
    {
      "channel": 4,
      "note": 68,
      "start": 3.7889,
      "duration": 3.7129,
      "velocity": 109,
      "chip": "ym2612"
    },
    {
      "channel": 5,
      "note": 31,
      "start": 3.7906,
      "duration": 0.2112,
      "velocity": 127,
      "chip": "ym2612"
    },
    {
      "channel": 1,
      "note": 49,
      "start": 3.9012,
      "duration": 0.0999,
      "velocity": 109,
      "chip": "ym2612"
    },
    {
      "channel": 1,
      "note": 49,
      "start": 4.018,
      "duration": 0.0998,
      "velocity": 109,
      "chip": "ym2612"
    },
    {
      "channel": 5,
      "note": 31,
      "start": 4.0187,
      "duration": 0.4497,
      "velocity": 127,
      "chip": "ym2612"
    },
    {
      "channel": 1,
      "note": 61,
      "start": 4.1345,
      "duration": 0.1,
      "velocity": 109,
      "chip": "ym2612"
    },
    {
      "channel": 1,
      "note": 49,
      "start": 4.2512,
      "duration": 0.0999,
      "velocity": 109,
      "chip": "ym2612"
    },
    {
      "channel": 1,
      "note": 49,
      "start": 4.3678,
      "duration": 0.1,
      "velocity": 109,
      "chip": "ym2612"
    },
    {
      "channel": 1,
      "note": 61,
      "start": 4.4846,
      "duration": 0.0998,
      "velocity": 109,
      "chip": "ym2612"
    },
    {
      "channel": 5,
      "note": 31,
      "start": 4.4854,
      "duration": 0.2163,
      "velocity": 127,
      "chip": "ym2612"
    },
    {
      "channel": 1,
      "note": 49,
      "start": 4.6012,
      "duration": 0.0999,
      "velocity": 109,
      "chip": "ym2612"
    },
    {
      "channel": 1,
      "note": 49,
      "start": 4.718,
      "duration": 0.0998,
      "velocity": 109,
      "chip": "ym2612"
    },
    {
      "channel": 5,
      "note": 31,
      "start": 4.7202,
      "duration": 0.6815,
      "velocity": 127,
      "chip": "ym2612"
    },
    {
      "channel": 1,
      "note": 49,
      "start": 4.8346,
      "duration": 0.0999,
      "velocity": 109,
      "chip": "ym2612"
    },
    {
      "channel": 1,
      "note": 61,
      "start": 4.9512,
      "duration": 0.1,
      "velocity": 109,
      "chip": "ym2612"
    },
    {
      "channel": 1,
      "note": 49,
      "start": 5.0679,
      "duration": 0.0999,
      "velocity": 109,
      "chip": "ym2612"
    },
    {
      "channel": 1,
      "note": 49,
      "start": 5.1846,
      "duration": 0.0999,
      "velocity": 109,
      "chip": "ym2612"
    },
    {
      "channel": 1,
      "note": 61,
      "start": 5.3012,
      "duration": 0.1,
      "velocity": 109,
      "chip": "ym2612"
    },
    {
      "channel": 1,
      "note": 49,
      "start": 5.418,
      "duration": 0.0998,
      "velocity": 109,
      "chip": "ym2612"
    },
    {
      "channel": 5,
      "note": 34,
      "start": 5.4202,
      "duration": 0.2149,
      "velocity": 127,
      "chip": "ym2612"
    },
    {
      "channel": 1,
      "note": 61,
      "start": 5.5345,
      "duration": 0.1,
      "velocity": 109,
      "chip": "ym2612"
    },
    {
      "channel": 1,
      "note": 49,
      "start": 5.6529,
      "duration": 0.0982,
      "velocity": 109,
      "chip": "ym2612"
    },
    {
      "channel": 5,
      "note": 31,
      "start": 5.6551,
      "duration": 0.2133,
      "velocity": 127,
      "chip": "ym2612"
    },
    {
      "channel": 1,
      "note": 49,
      "start": 5.7679,
      "duration": 0.0999,
      "velocity": 109,
      "chip": "ym2612"
    },
    {
      "channel": 1,
      "note": 49,
      "start": 5.8846,
      "duration": 0.0999,
      "velocity": 109,
      "chip": "ym2612"
    },
    {
      "channel": 5,
      "note": 31,
      "start": 5.8854,
      "duration": 0.4497,
      "velocity": 127,
      "chip": "ym2612"
    },
    {
      "channel": 1,
      "note": 61,
      "start": 6.0012,
      "duration": 0.0999,
      "velocity": 109,
      "chip": "ym2612"
    },
    {
      "channel": 1,
      "note": 49,
      "start": 6.1179,
      "duration": 0.0999,
      "velocity": 109,
      "chip": "ym2612"
    },
    {
      "channel": 1,
      "note": 49,
      "start": 6.2345,
      "duration": 0.1,
      "velocity": 109,
      "chip": "ym2612"
    },
    {
      "channel": 1,
      "note": 61,
      "start": 6.3513,
      "duration": 0.0999,
      "velocity": 109,
      "chip": "ym2612"
    },
    {
      "channel": 5,
      "note": 31,
      "start": 6.3521,
      "duration": 0.2163,
      "velocity": 127,
      "chip": "ym2612"
    },
    {
      "channel": 1,
      "note": 49,
      "start": 6.4679,
      "duration": 0.0999,
      "velocity": 109,
      "chip": "ym2612"
    },
    {
      "channel": 1,
      "note": 49,
      "start": 6.5847,
      "duration": 0.0998,
      "velocity": 109,
      "chip": "ym2612"
    },
    {
      "channel": 5,
      "note": 31,
      "start": 6.5869,
      "duration": 0.6815,
      "velocity": 127,
      "chip": "ym2612"
    },
    {
      "channel": 1,
      "note": 49,
      "start": 6.7012,
      "duration": 0.1,
      "velocity": 109,
      "chip": "ym2612"
    },
    {
      "channel": 1,
      "note": 61,
      "start": 6.8179,
      "duration": 0.0999,
      "velocity": 109,
      "chip": "ym2612"
    },
    {
      "channel": 1,
      "note": 49,
      "start": 6.9346,
      "duration": 0.0999,
      "velocity": 109,
      "chip": "ym2612"
    },
    {
      "channel": 0,
      "note": 61,
      "start": 7.0512,
      "duration": 0.4499,
      "velocity": 102,
      "chip": "ym2612"
    },
    {
      "channel": 1,
      "note": 49,
      "start": 7.0515,
      "duration": 0.0997,
      "velocity": 109,
      "chip": "ym2612"
    },
    {
      "channel": 1,
      "note": 61,
      "start": 7.1679,
      "duration": 0.0999,
      "velocity": 109,
      "chip": "ym2612"
    },
    {
      "channel": 1,
      "note": 49,
      "start": 7.2847,
      "duration": 0.0998,
      "velocity": 109,
      "chip": "ym2612"
    },
    {
      "channel": 5,
      "note": 34,
      "start": 7.2869,
      "duration": 0.2152,
      "velocity": 127,
      "chip": "ym2612"
    },
    {
      "channel": 1,
      "note": 61,
      "start": 7.4012,
      "duration": 0.1,
      "velocity": 109,
      "chip": "ym2612"
    },
    {
      "channel": 0,
      "note": 59,
      "start": 7.5198,
      "duration": 3.248,
      "velocity": 102,
      "chip": "ym2612"
    },
    {
      "channel": 1,
      "note": 49,
      "start": 7.5215,
      "duration": 0.0963,
      "velocity": 109,
      "chip": "ym2612"
    },
    {
      "channel": 2,
      "note": 63,
      "start": 7.5218,
      "duration": 3.2462,
      "velocity": 109,
      "chip": "ym2612"
    },
    {
      "channel": 3,
      "note": 71,
      "start": 7.522,
      "duration": 3.2462,
      "velocity": 109,
      "chip": "ym2612"
    },
    {
      "channel": 4,
      "note": 66,
      "start": 7.5224,
      "duration": 3.2461,
      "velocity": 109,
      "chip": "ym2612"
    },
    {
      "channel": 5,
      "note": 31,
      "start": 7.5241,
      "duration": 0.211,
      "velocity": 127,
      "chip": "ym2612"
    },
    {
      "channel": 1,
      "note": 49,
      "start": 7.6345,
      "duration": 0.1,
      "velocity": 109,
      "chip": "ym2612"
    },
    {
      "channel": 1,
      "note": 49,
      "start": 7.7513,
      "duration": 0.0999,
      "velocity": 109,
      "chip": "ym2612"
    },
    {
      "channel": 5,
      "note": 31,
      "start": 7.752,
      "duration": 0.4498,
      "velocity": 127,
      "chip": "ym2612"
    },
    {
      "channel": 1,
      "note": 61,
      "start": 7.8679,
      "duration": 0.0999,
      "velocity": 109,
      "chip": "ym2612"
    },
    {
      "channel": 1,
      "note": 49,
      "start": 7.9846,
      "duration": 0.0999,
      "velocity": 109,
      "chip": "ym2612"
    },
    {
      "channel": 1,
      "note": 49,
      "start": 8.1012,
      "duration": 0.1,
      "velocity": 109,
      "chip": "ym2612"
    },
    {
      "channel": 1,
      "note": 61,
      "start": 8.218,
      "duration": 0.0998,
      "velocity": 109,
      "chip": "ym2612"
    },
    {
      "channel": 5,
      "note": 31,
      "start": 8.2187,
      "duration": 0.2163,
      "velocity": 127,
      "chip": "ym2612"
    },
    {
      "channel": 1,
      "note": 49,
      "start": 8.3346,
      "duration": 0.0999,
      "velocity": 109,
      "chip": "ym2612"
    },
    {
      "channel": 1,
      "note": 49,
      "start": 8.4514,
      "duration": 0.0998,
      "velocity": 109,
      "chip": "ym2612"
    },
    {
      "channel": 5,
      "note": 31,
      "start": 8.4536,
      "duration": 0.6815,
      "velocity": 127,
      "chip": "ym2612"
    },
    {
      "channel": 1,
      "note": 49,
      "start": 8.5679,
      "duration": 0.0999,
      "velocity": 109,
      "chip": "ym2612"
    },
    {
      "channel": 1,
      "note": 61,
      "start": 8.6845,
      "duration": 0.1,
      "velocity": 109,
      "chip": "ym2612"
    },
    {
      "channel": 1,
      "note": 49,
      "start": 8.8012,
      "duration": 0.0999,
      "velocity": 109,
      "chip": "ym2612"
    },
    {
      "channel": 1,
      "note": 49,
      "start": 8.9179,
      "duration": 0.0999,
      "velocity": 109,
      "chip": "ym2612"
    },
    {
      "channel": 1,
      "note": 61,
      "start": 9.0345,
      "duration": 0.1,
      "velocity": 109,
      "chip": "ym2612"
    },
    {
      "channel": 1,
      "note": 49,
      "start": 9.1514,
      "duration": 0.0998,
      "velocity": 109,
      "chip": "ym2612"
    },
    {
      "channel": 5,
      "note": 34,
      "start": 9.1535,
      "duration": 0.2149,
      "velocity": 127,
      "chip": "ym2612"
    },
    {
      "channel": 1,
      "note": 61,
      "start": 9.2678,
      "duration": 0.0999,
      "velocity": 109,
      "chip": "ym2612"
    },
    {
      "channel": 1,
      "note": 49,
      "start": 9.3863,
      "duration": 0.0982,
      "velocity": 109,
      "chip": "ym2612"
    },
    {
      "channel": 5,
      "note": 31,
      "start": 9.3885,
      "duration": 0.2132,
      "velocity": 127,
      "chip": "ym2612"
    },
    {
      "channel": 1,
      "note": 49,
      "start": 9.5012,
      "duration": 0.0999,
      "velocity": 109,
      "chip": "ym2612"
    },
    {
      "channel": 1,
      "note": 49,
      "start": 9.618,
      "duration": 0.0998,
      "velocity": 109,
      "chip": "ym2612"
    },
    {
      "channel": 5,
      "note": 31,
      "start": 9.6187,
      "duration": 0.4497,
      "velocity": 127,
      "chip": "ym2612"
    },
    {
      "channel": 1,
      "note": 61,
      "start": 9.7346,
      "duration": 0.0999,
      "velocity": 109,
      "chip": "ym2612"
    },
    {
      "channel": 1,
      "note": 49,
      "start": 9.8512,
      "duration": 0.0999,
      "velocity": 109,
      "chip": "ym2612"
    },
    {
      "channel": 1,
      "note": 49,
      "start": 9.9678,
      "duration": 0.0999,
      "velocity": 109,
      "chip": "ym2612"
    },
    {
      "channel": 1,
      "note": 61,
      "start": 10.0846,
      "duration": 0.0998,
      "velocity": 109,
      "chip": "ym2612"
    },
    {
      "channel": 5,
      "note": 31,
      "start": 10.0854,
      "duration": 0.2163,
      "velocity": 127,
      "chip": "ym2612"
    },
    {
      "channel": 1,
      "note": 49,
      "start": 10.2012,
      "duration": 0.1,
      "velocity": 109,
      "chip": "ym2612"
    },
    {
      "channel": 1,
      "note": 49,
      "start": 10.318,
      "duration": 0.0998,
      "velocity": 109,
      "chip": "ym2612"
    },
    {
      "channel": 5,
      "note": 31,
      "start": 10.3202,
      "duration": 0.6817,
      "velocity": 127,
      "chip": "ym2612"
    },
    {
      "channel": 1,
      "note": 49,
      "start": 10.4345,
      "duration": 0.1,
      "velocity": 109,
      "chip": "ym2612"
    },
    {
      "channel": 1,
      "note": 61,
      "start": 10.5512,
      "duration": 0.0999,
      "velocity": 109,
      "chip": "ym2612"
    },
    {
      "channel": 1,
      "note": 49,
      "start": 10.6679,
      "duration": 0.1,
      "velocity": 109,
      "chip": "ym2612"
    },
    {
      "channel": 0,
      "note": 61,
      "start": 10.7847,
      "duration": 0.4498,
      "velocity": 102,
      "chip": "ym2612"
    },
    {
      "channel": 1,
      "note": 49,
      "start": 10.7849,
      "duration": 0.0996,
      "velocity": 109,
      "chip": "ym2612"
    },
    {
      "channel": 2,
      "note": 63,
      "start": 10.7852,
      "duration": 0.2161,
      "velocity": 109,
      "chip": "ym2612"
    },
    {
      "channel": 3,
      "note": 71,
      "start": 10.7855,
      "duration": 0.216,
      "velocity": 109,
      "chip": "ym2612"
    },
    {
      "channel": 4,
      "note": 65,
      "start": 10.7858,
      "duration": 0.216,
      "velocity": 109,
      "chip": "ym2612"
    },
    {
      "channel": 1,
      "note": 61,
      "start": 10.9012,
      "duration": 0.0999,
      "velocity": 109,
      "chip": "ym2612"
    },
    {
      "channel": 1,
      "note": 49,
      "start": 11.018,
      "duration": 0.0998,
      "velocity": 109,
      "chip": "ym2612"
    },
    {
      "channel": 2,
      "note": 52,
      "start": 11.0183,
      "duration": 0.2165,
      "velocity": 109,
      "chip": "ym2612"
    },
    {
      "channel": 3,
      "note": 64,
      "start": 11.0185,
      "duration": 0.2164,
      "velocity": 109,
      "chip": "ym2612"
    },
    {
      "channel": 4,
      "note": 40,
      "start": 11.0189,
      "duration": 0.2163,
      "velocity": 109,
      "chip": "ym2612"
    },
    {
      "channel": 5,
      "note": 34,
      "start": 11.0206,
      "duration": 0.2148,
      "velocity": 127,
      "chip": "ym2612"
    },
    {
      "channel": 1,
      "note": 61,
      "start": 11.1345,
      "duration": 0.1001,
      "velocity": 109,
      "chip": "ym2612"
    },
    {
      "channel": 0,
      "note": 59,
      "start": 11.2533,
      "duration": 3.2478,
      "velocity": 102,
      "chip": "ym2612"
    },
    {
      "channel": 1,
      "note": 49,
      "start": 11.255,
      "duration": 0.0961,
      "velocity": 109,
      "chip": "ym2612"
    },
    {
      "channel": 2,
      "note": 51,
      "start": 11.2552,
      "duration": 6.9795,
      "velocity": 109,
      "chip": "ym2612"
    },
    {
      "channel": 3,
      "note": 63,
      "start": 11.2555,
      "duration": 6.9794,
      "velocity": 109,
      "chip": "ym2612"
    },
    {
      "channel": 4,
      "note": 39,
      "start": 11.2558,
      "duration": 6.9794,
      "velocity": 109,
      "chip": "ym2612"
    },
    {
      "channel": 5,
      "note": 31,
      "start": 11.2575,
      "duration": 0.2109,
      "velocity": 127,
      "chip": "ym2612"
    },
    {
      "channel": 1,
      "note": 49,
      "start": 11.3678,
      "duration": 0.1,
      "velocity": 109,
      "chip": "ym2612"
    },
    {
      "channel": 1,
      "note": 49,
      "start": 11.4846,
      "duration": 0.0999,
      "velocity": 109,
      "chip": "ym2612"
    },
    {
      "channel": 5,
      "note": 31,
      "start": 11.4853,
      "duration": 0.4498,
      "velocity": 127,
      "chip": "ym2612"
    },
    {
      "channel": 1,
      "note": 61,
      "start": 11.6012,
      "duration": 0.0999,
      "velocity": 109,
      "chip": "ym2612"
    },
    {
      "channel": 1,
      "note": 49,
      "start": 11.7178,
      "duration": 0.1,
      "velocity": 109,
      "chip": "ym2612"
    },
    {
      "channel": 1,
      "note": 49,
      "start": 11.8345,
      "duration": 0.0999,
      "velocity": 109,
      "chip": "ym2612"
    },
    {
      "channel": 1,
      "note": 61,
      "start": 11.9513,
      "duration": 0.0999,
      "velocity": 109,
      "chip": "ym2612"
    },
    {
      "channel": 5,
      "note": 31,
      "start": 11.9521,
      "duration": 0.2163,
      "velocity": 127,
      "chip": "ym2612"
    },
    {
      "channel": 1,
      "note": 49,
      "start": 12.0679,
      "duration": 0.0999,
      "velocity": 109,
      "chip": "ym2612"
    },
    {
      "channel": 1,
      "note": 49,
      "start": 12.1847,
      "duration": 0.0998,
      "velocity": 109,
      "chip": "ym2612"
    },
    {
      "channel": 5,
      "note": 31,
      "start": 12.1869,
      "duration": 0.6815,
      "velocity": 127,
      "chip": "ym2612"
    },
    {
      "channel": 1,
      "note": 49,
      "start": 12.3012,
      "duration": 0.0999,
      "velocity": 109,
      "chip": "ym2612"
    },
    {
      "channel": 1,
      "note": 61,
      "start": 12.4179,
      "duration": 0.0999,
      "velocity": 109,
      "chip": "ym2612"
    },
    {
      "channel": 1,
      "note": 49,
      "start": 12.5346,
      "duration": 0.0999,
      "velocity": 109,
      "chip": "ym2612"
    },
    {
      "channel": 1,
      "note": 49,
      "start": 12.6512,
      "duration": 0.0999,
      "velocity": 109,
      "chip": "ym2612"
    },
    {
      "channel": 1,
      "note": 61,
      "start": 12.7679,
      "duration": 0.0999,
      "velocity": 109,
      "chip": "ym2612"
    },
    {
      "channel": 1,
      "note": 49,
      "start": 12.8847,
      "duration": 0.0998,
      "velocity": 109,
      "chip": "ym2612"
    },
    {
      "channel": 5,
      "note": 34,
      "start": 12.8869,
      "duration": 0.2149,
      "velocity": 127,
      "chip": "ym2612"
    },
    {
      "channel": 1,
      "note": 61,
      "start": 13.0012,
      "duration": 0.1,
      "velocity": 109,
      "chip": "ym2612"
    },
    {
      "channel": 1,
      "note": 49,
      "start": 13.1196,
      "duration": 0.0982,
      "velocity": 109,
      "chip": "ym2612"
    },
    {
      "channel": 5,
      "note": 31,
      "start": 13.1218,
      "duration": 0.2133,
      "velocity": 127,
      "chip": "ym2612"
    },
    {
      "channel": 1,
      "note": 49,
      "start": 13.2346,
      "duration": 0.0999,
      "velocity": 109,
      "chip": "ym2612"
    },
    {
      "channel": 1,
      "note": 49,
      "start": 13.3513,
      "duration": 0.0999,
      "velocity": 109,
      "chip": "ym2612"
    },
    {
      "channel": 5,
      "note": 31,
      "start": 13.352,
      "duration": 0.4498,
      "velocity": 127,
      "chip": "ym2612"
    },
    {
      "channel": 1,
      "note": 61,
      "start": 13.4679,
      "duration": 0.0999,
      "velocity": 109,
      "chip": "ym2612"
    },
    {
      "channel": 1,
      "note": 49,
      "start": 13.5846,
      "duration": 0.0999,
      "velocity": 109,
      "chip": "ym2612"
    },
    {
      "channel": 1,
      "note": 49,
      "start": 13.7012,
      "duration": 0.0999,
      "velocity": 109,
      "chip": "ym2612"
    },
    {
      "channel": 1,
      "note": 61,
      "start": 13.8179,
      "duration": 0.0999,
      "velocity": 109,
      "chip": "ym2612"
    },
    {
      "channel": 5,
      "note": 31,
      "start": 13.8187,
      "duration": 0.2164,
      "velocity": 127,
      "chip": "ym2612"
    },
    {
      "channel": 1,
      "note": 49,
      "start": 13.9346,
      "duration": 0.0999,
      "velocity": 109,
      "chip": "ym2612"
    },
    {
      "channel": 1,
      "note": 49,
      "start": 14.0514,
      "duration": 0.0998,
      "velocity": 109,
      "chip": "ym2612"
    },
    {
      "channel": 5,
      "note": 31,
      "start": 14.0536,
      "duration": 0.6815,
      "velocity": 127,
      "chip": "ym2612"
    },
    {
      "channel": 1,
      "note": 49,
      "start": 14.1679,
      "duration": 0.0999,
      "velocity": 109,
      "chip": "ym2612"
    },
    {
      "channel": 1,
      "note": 61,
      "start": 14.2846,
      "duration": 0.0999,
      "velocity": 109,
      "chip": "ym2612"
    },
    {
      "channel": 1,
      "note": 49,
      "start": 14.4012,
      "duration": 0.1,
      "velocity": 109,
      "chip": "ym2612"
    },
    {
      "channel": 0,
      "note": 61,
      "start": 14.518,
      "duration": 0.4498,
      "velocity": 102,
      "chip": "ym2612"
    },
    {
      "channel": 1,
      "note": 49,
      "start": 14.5182,
      "duration": 0.0996,
      "velocity": 109,
      "chip": "ym2612"
    },
    {
      "channel": 1,
      "note": 61,
      "start": 14.6346,
      "duration": 0.0999,
      "velocity": 109,
      "chip": "ym2612"
    },
    {
      "channel": 1,
      "note": 49,
      "start": 14.7514,
      "duration": 0.0998,
      "velocity": 109,
      "chip": "ym2612"
    },
    {
      "channel": 5,
      "note": 34,
      "start": 14.7535,
      "duration": 0.2149,
      "velocity": 127,
      "chip": "ym2612"
    },
    {
      "channel": 1,
      "note": 61,
      "start": 14.8678,
      "duration": 0.1,
      "velocity": 109,
      "chip": "ym2612"
    },
    {
      "channel": 0,
      "note": 59,
      "start": 14.9864,
      "duration": 3.248,
      "velocity": 102,
      "chip": "ym2612"
    },
    {
      "channel": 1,
      "note": 49,
      "start": 14.9881,
      "duration": 0.0964,
      "velocity": 109,
      "chip": "ym2612"
    },
    {
      "channel": 5,
      "note": 31,
      "start": 14.9903,
      "duration": 0.2115,
      "velocity": 127,
      "chip": "ym2612"
    },
    {
      "channel": 1,
      "note": 49,
      "start": 15.1012,
      "duration": 0.1,
      "velocity": 109,
      "chip": "ym2612"
    },
    {
      "channel": 1,
      "note": 49,
      "start": 15.2179,
      "duration": 0.0999,
      "velocity": 109,
      "chip": "ym2612"
    },
    {
      "channel": 5,
      "note": 31,
      "start": 15.2187,
      "duration": 0.4498,
      "velocity": 127,
      "chip": "ym2612"
    },
    {
      "channel": 1,
      "note": 61,
      "start": 15.3346,
      "duration": 0.0999,
      "velocity": 109,
      "chip": "ym2612"
    },
    {
      "channel": 1,
      "note": 49,
      "start": 15.4512,
      "duration": 0.1,
      "velocity": 109,
      "chip": "ym2612"
    },
    {
      "channel": 1,
      "note": 49,
      "start": 15.5679,
      "duration": 0.0999,
      "velocity": 109,
      "chip": "ym2612"
    },
    {
      "channel": 1,
      "note": 61,
      "start": 15.6846,
      "duration": 0.0999,
      "velocity": 109,
      "chip": "ym2612"
    },
    {
      "channel": 5,
      "note": 31,
      "start": 15.6853,
      "duration": 0.2164,
      "velocity": 127,
      "chip": "ym2612"
    },
    {
      "channel": 1,
      "note": 49,
      "start": 15.8012,
      "duration": 0.0999,
      "velocity": 109,
      "chip": "ym2612"
    },
    {
      "channel": 1,
      "note": 49,
      "start": 15.918,
      "duration": 0.0998,
      "velocity": 109,
      "chip": "ym2612"
    },
    {
      "channel": 5,
      "note": 31,
      "start": 15.9202,
      "duration": 0.6815,
      "velocity": 127,
      "chip": "ym2612"
    },
    {
      "channel": 1,
      "note": 49,
      "start": 16.0345,
      "duration": 0.1,
      "velocity": 109,
      "chip": "ym2612"
    },
    {
      "channel": 1,
      "note": 61,
      "start": 16.1512,
      "duration": 0.1,
      "velocity": 109,
      "chip": "ym2612"
    },
    {
      "channel": 1,
      "note": 49,
      "start": 16.2679,
      "duration": 0.0999,
      "velocity": 109,
      "chip": "ym2612"
    },
    {
      "channel": 1,
      "note": 49,
      "start": 16.3846,
      "duration": 0.0999,
      "velocity": 109,
      "chip": "ym2612"
    },
    {
      "channel": 1,
      "note": 61,
      "start": 16.5012,
      "duration": 0.1,
      "velocity": 109,
      "chip": "ym2612"
    },
    {
      "channel": 1,
      "note": 49,
      "start": 16.618,
      "duration": 0.0999,
      "velocity": 109,
      "chip": "ym2612"
    },
    {
      "channel": 5,
      "note": 34,
      "start": 16.6202,
      "duration": 0.2149,
      "velocity": 127,
      "chip": "ym2612"
    },
    {
      "channel": 1,
      "note": 61,
      "start": 16.7346,
      "duration": 0.0999,
      "velocity": 109,
      "chip": "ym2612"
    },
    {
      "channel": 1,
      "note": 49,
      "start": 16.8529,
      "duration": 0.0982,
      "velocity": 109,
      "chip": "ym2612"
    },
    {
      "channel": 5,
      "note": 31,
      "start": 16.8551,
      "duration": 0.2133,
      "velocity": 127,
      "chip": "ym2612"
    },
    {
      "channel": 1,
      "note": 49,
      "start": 16.9679,
      "duration": 0.0999,
      "velocity": 109,
      "chip": "ym2612"
    },
    {
      "channel": 1,
      "note": 49,
      "start": 17.0846,
      "duration": 0.0999,
      "velocity": 109,
      "chip": "ym2612"
    },
    {
      "channel": 5,
      "note": 31,
      "start": 17.0853,
      "duration": 0.4498,
      "velocity": 127,
      "chip": "ym2612"
    },
    {
      "channel": 1,
      "note": 61,
      "start": 17.2012,
      "duration": 0.0999,
      "velocity": 109,
      "chip": "ym2612"
    },
    {
      "channel": 1,
      "note": 49,
      "start": 17.3178,
      "duration": 0.1,
      "velocity": 109,
      "chip": "ym2612"
    },
    {
      "channel": 1,
      "note": 49,
      "start": 17.4346,
      "duration": 0.0999,
      "velocity": 109,
      "chip": "ym2612"
    },
    {
      "channel": 1,
      "note": 61,
      "start": 17.5512,
      "duration": 0.0999,
      "velocity": 109,
      "chip": "ym2612"
    },
    {
      "channel": 5,
      "note": 31,
      "start": 17.552,
      "duration": 0.2164,
      "velocity": 127,
      "chip": "ym2612"
    },
    {
      "channel": 1,
      "note": 49,
      "start": 17.6679,
      "duration": 0.0999,
      "velocity": 109,
      "chip": "ym2612"
    },
    {
      "channel": 1,
      "note": 49,
      "start": 17.7847,
      "duration": 0.0998,
      "velocity": 109,
      "chip": "ym2612"
    },
    {
      "channel": 5,
      "note": 31,
      "start": 17.7869,
      "duration": 0.6817,
      "velocity": 127,
      "chip": "ym2612"
    },
    {
      "channel": 1,
      "note": 49,
      "start": 17.9012,
      "duration": 0.1,
      "velocity": 109,
      "chip": "ym2612"
    },
    {
      "channel": 1,
      "note": 61,
      "start": 18.0179,
      "duration": 0.0999,
      "velocity": 109,
      "chip": "ym2612"
    },
    {
      "channel": 1,
      "note": 49,
      "start": 18.1345,
      "duration": 0.1001,
      "velocity": 109,
      "chip": "ym2612"
    },
    {
      "channel": 0,
      "note": 61,
      "start": 18.2514,
      "duration": 0.4498,
      "velocity": 102,
      "chip": "ym2612"
    },
    {
      "channel": 1,
      "note": 49,
      "start": 18.2517,
      "duration": 0.0995,
      "velocity": 109,
      "chip": "ym2612"
    },
    {
      "channel": 2,
      "note": 49,
      "start": 18.2519,
      "duration": 0.216,
      "velocity": 109,
      "chip": "ym2612"
    },
    {
      "channel": 3,
      "note": 61,
      "start": 18.2522,
      "duration": 0.216,
      "velocity": 109,
      "chip": "ym2612"
    },
    {
      "channel": 4,
      "note": 37,
      "start": 18.2524,
      "duration": 0.216,
      "velocity": 109,
      "chip": "ym2612"
    },
    {
      "channel": 1,
      "note": 61,
      "start": 18.3678,
      "duration": 0.1,
      "velocity": 109,
      "chip": "ym2612"
    },
    {
      "channel": 1,
      "note": 49,
      "start": 18.4847,
      "duration": 0.0998,
      "velocity": 109,
      "chip": "ym2612"
    },
    {
      "channel": 2,
      "note": 52,
      "start": 18.4849,
      "duration": 0.2164,
      "velocity": 109,
      "chip": "ym2612"
    },
    {
      "channel": 3,
      "note": 64,
      "start": 18.4852,
      "duration": 0.2164,
      "velocity": 109,
      "chip": "ym2612"
    },
    {
      "channel": 4,
      "note": 40,
      "start": 18.4855,
      "duration": 0.2163,
      "velocity": 109,
      "chip": "ym2612"
    },
    {
      "channel": 5,
      "note": 34,
      "start": 18.4872,
      "duration": 0.2148,
      "velocity": 127,
      "chip": "ym2612"
    },
    {
      "channel": 1,
      "note": 61,
      "start": 18.6012,
      "duration": 0.1001,
      "velocity": 109,
      "chip": "ym2612"
    },
    {
      "channel": 0,
      "note": 59,
      "start": 18.7198,
      "duration": 3.2479,
      "velocity": 102,
      "chip": "ym2612"
    },
    {
      "channel": 1,
      "note": 49,
      "start": 18.7215,
      "duration": 0.0963,
      "velocity": 109,
      "chip": "ym2612"
    },
    {
      "channel": 2,
      "note": 51,
      "start": 18.7218,
      "duration": 7.4462,
      "velocity": 109,
      "chip": "ym2612"
    },
    {
      "channel": 3,
      "note": 63,
      "start": 18.722,
      "duration": 7.4462,
      "velocity": 109,
      "chip": "ym2612"
    },
    {
      "channel": 4,
      "note": 39,
      "start": 18.7224,
      "duration": 7.4461,
      "velocity": 109,
      "chip": "ym2612"
    },
    {
      "channel": 5,
      "note": 31,
      "start": 18.7241,
      "duration": 0.211,
      "velocity": 127,
      "chip": "ym2612"
    },
    {
      "channel": 1,
      "note": 49,
      "start": 18.8346,
      "duration": 0.0999,
      "velocity": 109,
      "chip": "ym2612"
    },
    {
      "channel": 1,
      "note": 49,
      "start": 18.9513,
      "duration": 0.0999,
      "velocity": 109,
      "chip": "ym2612"
    },
    {
      "channel": 5,
      "note": 31,
      "start": 18.952,
      "duration": 0.4498,
      "velocity": 127,
      "chip": "ym2612"
    },
    {
      "channel": 1,
      "note": 61,
      "start": 19.0678,
      "duration": 0.1,
      "velocity": 109,
      "chip": "ym2612"
    },
    {
      "channel": 1,
      "note": 49,
      "start": 19.1846,
      "duration": 0.0999,
      "velocity": 109,
      "chip": "ym2612"
    },
    {
      "channel": 1,
      "note": 49,
      "start": 19.3012,
      "duration": 0.1,
      "velocity": 109,
      "chip": "ym2612"
    },
    {
      "channel": 1,
      "note": 61,
      "start": 19.418,
      "duration": 0.0999,
      "velocity": 109,
      "chip": "ym2612"
    },
    {
      "channel": 5,
      "note": 31,
      "start": 19.4187,
      "duration": 0.2164,
      "velocity": 127,
      "chip": "ym2612"
    },
    {
      "channel": 1,
      "note": 49,
      "start": 19.5346,
      "duration": 0.0999,
      "velocity": 109,
      "chip": "ym2612"
    },
    {
      "channel": 1,
      "note": 49,
      "start": 19.6513,
      "duration": 0.0998,
      "velocity": 109,
      "chip": "ym2612"
    },
    {
      "channel": 5,
      "note": 31,
      "start": 19.6535,
      "duration": 0.6815,
      "velocity": 127,
      "chip": "ym2612"
    },
    {
      "channel": 1,
      "note": 49,
      "start": 19.7679,
      "duration": 0.0999,
      "velocity": 109,
      "chip": "ym2612"
    },
    {
      "channel": 1,
      "note": 61,
      "start": 19.8845,
      "duration": 0.0999,
      "velocity": 109,
      "chip": "ym2612"
    },
    {
      "channel": 1,
      "note": 49,
      "start": 20.0012,
      "duration": 0.1,
      "velocity": 109,
      "chip": "ym2612"
    },
    {
      "channel": 1,
      "note": 49,
      "start": 20.1179,
      "duration": 0.0999,
      "velocity": 109,
      "chip": "ym2612"
    },
    {
      "channel": 1,
      "note": 61,
      "start": 20.2345,
      "duration": 0.1,
      "velocity": 109,
      "chip": "ym2612"
    },
    {
      "channel": 1,
      "note": 49,
      "start": 20.3514,
      "duration": 0.0998,
      "velocity": 109,
      "chip": "ym2612"
    },
    {
      "channel": 5,
      "note": 34,
      "start": 20.3535,
      "duration": 0.2149,
      "velocity": 127,
      "chip": "ym2612"
    },
    {
      "channel": 1,
      "note": 61,
      "start": 20.4679,
      "duration": 0.0999,
      "velocity": 109,
      "chip": "ym2612"
    },
    {
      "channel": 1,
      "note": 49,
      "start": 20.5863,
      "duration": 0.0982,
      "velocity": 109,
      "chip": "ym2612"
    },
    {
      "channel": 5,
      "note": 31,
      "start": 20.5885,
      "duration": 0.2133,
      "velocity": 127,
      "chip": "ym2612"
    },
    {
      "channel": 1,
      "note": 49,
      "start": 20.7012,
      "duration": 0.1,
      "velocity": 109,
      "chip": "ym2612"
    },
    {
      "channel": 1,
      "note": 49,
      "start": 20.8179,
      "duration": 0.0999,
      "velocity": 109,
      "chip": "ym2612"
    },
    {
      "channel": 5,
      "note": 31,
      "start": 20.8187,
      "duration": 0.4498,
      "velocity": 127,
      "chip": "ym2612"
    },
    {
      "channel": 1,
      "note": 61,
      "start": 20.9346,
      "duration": 0.0999,
      "velocity": 109,
      "chip": "ym2612"
    },
    {
      "channel": 1,
      "note": 49,
      "start": 21.0512,
      "duration": 0.0999,
      "velocity": 109,
      "chip": "ym2612"
    },
    {
      "channel": 1,
      "note": 49,
      "start": 21.1679,
      "duration": 0.0999,
      "velocity": 109,
      "chip": "ym2612"
    },
    {
      "channel": 1,
      "note": 61,
      "start": 21.2846,
      "duration": 0.0999,
      "velocity": 109,
      "chip": "ym2612"
    },
    {
      "channel": 5,
      "note": 31,
      "start": 21.2853,
      "duration": 0.2164,
      "velocity": 127,
      "chip": "ym2612"
    },
    {
      "channel": 1,
      "note": 49,
      "start": 21.4012,
      "duration": 0.0999,
      "velocity": 109,
      "chip": "ym2612"
    },
    {
      "channel": 1,
      "note": 49,
      "start": 21.518,
      "duration": 0.0998,
      "velocity": 109,
      "chip": "ym2612"
    },
    {
      "channel": 5,
      "note": 31,
      "start": 21.5202,
      "duration": 0.6815,
      "velocity": 127,
      "chip": "ym2612"
    },
    {
      "channel": 1,
      "note": 49,
      "start": 21.6346,
      "duration": 0.0999,
      "velocity": 109,
      "chip": "ym2612"
    },
    {
      "channel": 1,
      "note": 61,
      "start": 21.7512,
      "duration": 0.0999,
      "velocity": 109,
      "chip": "ym2612"
    },
    {
      "channel": 1,
      "note": 49,
      "start": 21.8679,
      "duration": 0.1,
      "velocity": 109,
      "chip": "ym2612"
    },
    {
      "channel": 0,
      "note": 61,
      "start": 21.9846,
      "duration": 0.4498,
      "velocity": 102,
      "chip": "ym2612"
    },
    {
      "channel": 1,
      "note": 49,
      "start": 21.9849,
      "duration": 0.0996,
      "velocity": 109,
      "chip": "ym2612"
    },
    {
      "channel": 1,
      "note": 61,
      "start": 22.1012,
      "duration": 0.0999,
      "velocity": 109,
      "chip": "ym2612"
    },
    {
      "channel": 1,
      "note": 49,
      "start": 22.218,
      "duration": 0.0998,
      "velocity": 109,
      "chip": "ym2612"
    },
    {
      "channel": 5,
      "note": 34,
      "start": 22.2202,
      "duration": 0.2149,
      "velocity": 127,
      "chip": "ym2612"
    },
    {
      "channel": 1,
      "note": 61,
      "start": 22.3346,
      "duration": 0.0999,
      "velocity": 109,
      "chip": "ym2612"
    },
    {
      "channel": 0,
      "note": 59,
      "start": 22.453,
      "duration": 3.2481,
      "velocity": 102,
      "chip": "ym2612"
    },
    {
      "channel": 1,
      "note": 49,
      "start": 22.4547,
      "duration": 0.0965,
      "velocity": 109,
      "chip": "ym2612"
    },
    {
      "channel": 5,
      "note": 31,
      "start": 22.4569,
      "duration": 0.2115,
      "velocity": 127,
      "chip": "ym2612"
    },
    {
      "channel": 1,
      "note": 49,
      "start": 22.5679,
      "duration": 0.0999,
      "velocity": 109,
      "chip": "ym2612"
    },
    {
      "channel": 1,
      "note": 49,
      "start": 22.6846,
      "duration": 0.0999,
      "velocity": 109,
      "chip": "ym2612"
    },
    {
      "channel": 5,
      "note": 31,
      "start": 22.6853,
      "duration": 0.4498,
      "velocity": 127,
      "chip": "ym2612"
    },
    {
      "channel": 1,
      "note": 61,
      "start": 22.8012,
      "duration": 0.0999,
      "velocity": 109,
      "chip": "ym2612"
    },
    {
      "channel": 1,
      "note": 49,
      "start": 22.9178,
      "duration": 0.1,
      "velocity": 109,
      "chip": "ym2612"
    },
    {
      "channel": 1,
      "note": 49,
      "start": 23.0346,
      "duration": 0.0999,
      "velocity": 109,
      "chip": "ym2612"
    },
    {
      "channel": 1,
      "note": 61,
      "start": 23.1513,
      "duration": 0.0999,
      "velocity": 109,
      "chip": "ym2612"
    },
    {
      "channel": 5,
      "note": 31,
      "start": 23.152,
      "duration": 0.2164,
      "velocity": 127,
      "chip": "ym2612"
    },
    {
      "channel": 1,
      "note": 49,
      "start": 23.2679,
      "duration": 0.0999,
      "velocity": 109,
      "chip": "ym2612"
    },
    {
      "channel": 1,
      "note": 49,
      "start": 23.3847,
      "duration": 0.0998,
      "velocity": 109,
      "chip": "ym2612"
    },
    {
      "channel": 5,
      "note": 31,
      "start": 23.3869,
      "duration": 0.6815,
      "velocity": 127,
      "chip": "ym2612"
    },
    {
      "channel": 1,
      "note": 49,
      "start": 23.5012,
      "duration": 0.1,
      "velocity": 109,
      "chip": "ym2612"
    },
    {
      "channel": 1,
      "note": 61,
      "start": 23.6178,
      "duration": 0.1,
      "velocity": 109,
      "chip": "ym2612"
    },
    {
      "channel": 1,
      "note": 49,
      "start": 23.7346,
      "duration": 0.0999,
      "velocity": 109,
      "chip": "ym2612"
    },
    {
      "channel": 1,
      "note": 49,
      "start": 23.8512,
      "duration": 0.1,
      "velocity": 109,
      "chip": "ym2612"
    },
    {
      "channel": 1,
      "note": 61,
      "start": 23.9679,
      "duration": 0.0999,
      "velocity": 109,
      "chip": "ym2612"
    },
    {
      "channel": 1,
      "note": 49,
      "start": 24.0847,
      "duration": 0.0998,
      "velocity": 109,
      "chip": "ym2612"
    },
    {
      "channel": 5,
      "note": 34,
      "start": 24.0869,
      "duration": 0.2149,
      "velocity": 127,
      "chip": "ym2612"
    },
    {
      "channel": 1,
      "note": 61,
      "start": 24.2012,
      "duration": 0.0999,
      "velocity": 109,
      "chip": "ym2612"
    },
    {
      "channel": 1,
      "note": 49,
      "start": 24.3196,
      "duration": 0.0982,
      "velocity": 109,
      "chip": "ym2612"
    },
    {
      "channel": 5,
      "note": 31,
      "start": 24.3218,
      "duration": 0.2133,
      "velocity": 127,
      "chip": "ym2612"
    },
    {
      "channel": 1,
      "note": 49,
      "start": 24.4345,
      "duration": 0.1,
      "velocity": 109,
      "chip": "ym2612"
    },
    {
      "channel": 1,
      "note": 49,
      "start": 24.5512,
      "duration": 0.0999,
      "velocity": 109,
      "chip": "ym2612"
    },
    {
      "channel": 5,
      "note": 31,
      "start": 24.552,
      "duration": 0.4498,
      "velocity": 127,
      "chip": "ym2612"
    },
    {
      "channel": 1,
      "note": 61,
      "start": 24.6679,
      "duration": 0.0999,
      "velocity": 109,
      "chip": "ym2612"
    },
    {
      "channel": 1,
      "note": 49,
      "start": 24.7845,
      "duration": 0.1,
      "velocity": 109,
      "chip": "ym2612"
    },
    {
      "channel": 1,
      "note": 49,
      "start": 24.9012,
      "duration": 0.0999,
      "velocity": 109,
      "chip": "ym2612"
    },
    {
      "channel": 1,
      "note": 61,
      "start": 25.018,
      "duration": 0.0999,
      "velocity": 109,
      "chip": "ym2612"
    },
    {
      "channel": 5,
      "note": 31,
      "start": 25.0187,
      "duration": 0.2164,
      "velocity": 127,
      "chip": "ym2612"
    },
    {
      "channel": 1,
      "note": 49,
      "start": 25.1346,
      "duration": 0.0999,
      "velocity": 109,
      "chip": "ym2612"
    },
    {
      "channel": 1,
      "note": 49,
      "start": 25.2514,
      "duration": 0.0998,
      "velocity": 109,
      "chip": "ym2612"
    },
    {
      "channel": 5,
      "note": 31,
      "start": 25.2535,
      "duration": 0.6815,
      "velocity": 127,
      "chip": "ym2612"
    },
    {
      "channel": 1,
      "note": 49,
      "start": 25.3679,
      "duration": 0.0999,
      "velocity": 109,
      "chip": "ym2612"
    },
    {
      "channel": 1,
      "note": 61,
      "start": 25.4846,
      "duration": 0.0999,
      "velocity": 109,
      "chip": "ym2612"
    },
    {
      "channel": 1,
      "note": 49,
      "start": 25.6012,
      "duration": 0.1001,
      "velocity": 109,
      "chip": "ym2612"
    },
    {
      "channel": 0,
      "note": 61,
      "start": 25.7179,
      "duration": 0.4499,
      "velocity": 102,
      "chip": "ym2612"
    },
    {
      "channel": 1,
      "note": 49,
      "start": 25.7182,
      "duration": 0.0997,
      "velocity": 109,
      "chip": "ym2612"
    },
    {
      "channel": 1,
      "note": 61,
      "start": 25.8345,
      "duration": 0.1,
      "velocity": 109,
      "chip": "ym2612"
    },
    {
      "channel": 1,
      "note": 49,
      "start": 25.9513,
      "duration": 0.0999,
      "velocity": 109,
      "chip": "ym2612"
    },
    {
      "channel": 5,
      "note": 34,
      "start": 25.9535,
      "duration": 0.2152,
      "velocity": 127,
      "chip": "ym2612"
    },
    {
      "channel": 1,
      "note": 61,
      "start": 26.0679,
      "duration": 0.1,
      "velocity": 109,
      "chip": "ym2612"
    },
    {
      "channel": 0,
      "note": 59,
      "start": 26.1863,
      "duration": 3.2481,
      "velocity": 102,
      "chip": "ym2612"
    },
    {
      "channel": 1,
      "note": 49,
      "start": 26.188,
      "duration": 0.0965,
      "velocity": 109,
      "chip": "ym2612"
    },
    {
      "channel": 5,
      "note": 31,
      "start": 26.19,
      "duration": 0.2117,
      "velocity": 127,
      "chip": "ym2612"
    },
    {
      "channel": 1,
      "note": 49,
      "start": 26.3012,
      "duration": 0.0999,
      "velocity": 109,
      "chip": "ym2612"
    },
    {
      "channel": 1,
      "note": 49,
      "start": 26.418,
      "duration": 0.0998,
      "velocity": 109,
      "chip": "ym2612"
    },
    {
      "channel": 5,
      "note": 31,
      "start": 26.4187,
      "duration": 0.4498,
      "velocity": 127,
      "chip": "ym2612"
    },
    {
      "channel": 1,
      "note": 61,
      "start": 26.5346,
      "duration": 0.0999,
      "velocity": 109,
      "chip": "ym2612"
    },
    {
      "channel": 1,
      "note": 49,
      "start": 26.6512,
      "duration": 0.0999,
      "velocity": 109,
      "chip": "ym2612"
    },
    {
      "channel": 1,
      "note": 49,
      "start": 26.7679,
      "duration": 0.0999,
      "velocity": 109,
      "chip": "ym2612"
    },
    {
      "channel": 1,
      "note": 61,
      "start": 26.8846,
      "duration": 0.0999,
      "velocity": 109,
      "chip": "ym2612"
    },
    {
      "channel": 5,
      "note": 31,
      "start": 26.8853,
      "duration": 0.2164,
      "velocity": 127,
      "chip": "ym2612"
    },
    {
      "channel": 1,
      "note": 49,
      "start": 27.0012,
      "duration": 0.1,
      "velocity": 109,
      "chip": "ym2612"
    },
    {
      "channel": 1,
      "note": 49,
      "start": 27.118,
      "duration": 0.0998,
      "velocity": 109,
      "chip": "ym2612"
    },
    {
      "channel": 5,
      "note": 31,
      "start": 27.1202,
      "duration": 0.6815,
      "velocity": 127,
      "chip": "ym2612"
    },
    {
      "channel": 1,
      "note": 49,
      "start": 27.2346,
      "duration": 0.0999,
      "velocity": 109,
      "chip": "ym2612"
    },
    {
      "channel": 1,
      "note": 61,
      "start": 27.3512,
      "duration": 0.0999,
      "velocity": 109,
      "chip": "ym2612"
    },
    {
      "channel": 1,
      "note": 49,
      "start": 27.4679,
      "duration": 0.0999,
      "velocity": 109,
      "chip": "ym2612"
    },
    {
      "channel": 1,
      "note": 49,
      "start": 27.5845,
      "duration": 0.1,
      "velocity": 109,
      "chip": "ym2612"
    },
    {
      "channel": 1,
      "note": 61,
      "start": 27.7012,
      "duration": 0.0999,
      "velocity": 109,
      "chip": "ym2612"
    },
    {
      "channel": 1,
      "note": 49,
      "start": 27.818,
      "duration": 0.0999,
      "velocity": 109,
      "chip": "ym2612"
    },
    {
      "channel": 5,
      "note": 34,
      "start": 27.8202,
      "duration": 0.2149,
      "velocity": 127,
      "chip": "ym2612"
    },
    {
      "channel": 1,
      "note": 61,
      "start": 27.9346,
      "duration": 0.0999,
      "velocity": 109,
      "chip": "ym2612"
    },
    {
      "channel": 1,
      "note": 49,
      "start": 28.0529,
      "duration": 0.0982,
      "velocity": 109,
      "chip": "ym2612"
    },
    {
      "channel": 5,
      "note": 31,
      "start": 28.0551,
      "duration": 0.2133,
      "velocity": 127,
      "chip": "ym2612"
    },
    {
      "channel": 1,
      "note": 49,
      "start": 28.1678,
      "duration": 0.1,
      "velocity": 109,
      "chip": "ym2612"
    },
    {
      "channel": 1,
      "note": 49,
      "start": 28.2846,
      "duration": 0.0999,
      "velocity": 109,
      "chip": "ym2612"
    },
    {
      "channel": 5,
      "note": 31,
      "start": 28.2853,
      "duration": 0.4498,
      "velocity": 127,
      "chip": "ym2612"
    },
    {
      "channel": 1,
      "note": 61,
      "start": 28.4012,
      "duration": 0.0999,
      "velocity": 109,
      "chip": "ym2612"
    },
    {
      "channel": 1,
      "note": 49,
      "start": 28.5179,
      "duration": 0.0999,
      "velocity": 109,
      "chip": "ym2612"
    },
    {
      "channel": 1,
      "note": 49,
      "start": 28.6345,
      "duration": 0.1,
      "velocity": 109,
      "chip": "ym2612"
    },
    {
      "channel": 1,
      "note": 61,
      "start": 28.7513,
      "duration": 0.0999,
      "velocity": 109,
      "chip": "ym2612"
    },
    {
      "channel": 5,
      "note": 31,
      "start": 28.752,
      "duration": 0.2164,
      "velocity": 127,
      "chip": "ym2612"
    },
    {
      "channel": 1,
      "note": 49,
      "start": 28.8679,
      "duration": 0.0999,
      "velocity": 109,
      "chip": "ym2612"
    },
    {
      "channel": 1,
      "note": 49,
      "start": 28.9846,
      "duration": 0.0999,
      "velocity": 109,
      "chip": "ym2612"
    },
    {
      "channel": 5,
      "note": 31,
      "start": 28.9869,
      "duration": 0.6815,
      "velocity": 127,
      "chip": "ym2612"
    },
    {
      "channel": 1,
      "note": 49,
      "start": 29.1012,
      "duration": 0.0999,
      "velocity": 109,
      "chip": "ym2612"
    },
    {
      "channel": 1,
      "note": 61,
      "start": 29.2179,
      "duration": 0.0999,
      "velocity": 109,
      "chip": "ym2612"
    },
    {
      "channel": 1,
      "note": 49,
      "start": 29.3346,
      "duration": 0.0999,
      "velocity": 109,
      "chip": "ym2612"
    },
    {
      "channel": 0,
      "note": 61,
      "start": 29.4512,
      "duration": 0.4498,
      "velocity": 102,
      "chip": "ym2612"
    },
    {
      "channel": 1,
      "note": 49,
      "start": 29.4515,
      "duration": 0.0997,
      "velocity": 109,
      "chip": "ym2612"
    },
    {
      "channel": 1,
      "note": 61,
      "start": 29.5679,
      "duration": 0.0999,
      "velocity": 109,
      "chip": "ym2612"
    },
    {
      "channel": 1,
      "note": 49,
      "start": 29.6847,
      "duration": 0.0998,
      "velocity": 109,
      "chip": "ym2612"
    },
    {
      "channel": 5,
      "note": 34,
      "start": 29.6869,
      "duration": 0.2149,
      "velocity": 127,
      "chip": "ym2612"
    },
    {
      "channel": 1,
      "note": 61,
      "start": 29.8012,
      "duration": 0.1001,
      "velocity": 109,
      "chip": "ym2612"
    },
    {
      "channel": 0,
      "note": 59,
      "start": 29.9197,
      "duration": 3.2481,
      "velocity": 102,
      "chip": "ym2612"
    },
    {
      "channel": 1,
      "note": 49,
      "start": 29.9214,
      "duration": 0.0964,
      "velocity": 109,
      "chip": "ym2612"
    },
    {
      "channel": 5,
      "note": 31,
      "start": 29.9236,
      "duration": 0.2115,
      "velocity": 127,
      "chip": "ym2612"
    },
    {
      "channel": 1,
      "note": 49,
      "start": 30.0345,
      "duration": 0.1,
      "velocity": 109,
      "chip": "ym2612"
    },
    {
      "channel": 1,
      "note": 49,
      "start": 30.1513,
      "duration": 0.0999,
      "velocity": 109,
      "chip": "ym2612"
    },
    {
      "channel": 5,
      "note": 31,
      "start": 30.152,
      "duration": 0.4498,
      "velocity": 127,
      "chip": "ym2612"
    },
    {
      "channel": 1,
      "note": 61,
      "start": 30.2679,
      "duration": 0.0999,
      "velocity": 109,
      "chip": "ym2612"
    },
    {
      "channel": 1,
      "note": 49,
      "start": 30.3846,
      "duration": 0.0999,
      "velocity": 109,
      "chip": "ym2612"
    },
    {
      "channel": 1,
      "note": 49,
      "start": 30.5012,
      "duration": 0.1,
      "velocity": 109,
      "chip": "ym2612"
    },
    {
      "channel": 1,
      "note": 61,
      "start": 30.618,
      "duration": 0.0999,
      "velocity": 109,
      "chip": "ym2612"
    },
    {
      "channel": 5,
      "note": 31,
      "start": 30.6187,
      "duration": 0.2164,
      "velocity": 127,
      "chip": "ym2612"
    },
    {
      "channel": 1,
      "note": 49,
      "start": 30.7346,
      "duration": 0.0999,
      "velocity": 109,
      "chip": "ym2612"
    },
    {
      "channel": 1,
      "note": 49,
      "start": 30.8514,
      "duration": 0.0998,
      "velocity": 109,
      "chip": "ym2612"
    },
    {
      "channel": 5,
      "note": 31,
      "start": 30.8535,
      "duration": 0.6815,
      "velocity": 127,
      "chip": "ym2612"
    },
    {
      "channel": 1,
      "note": 49,
      "start": 30.9679,
      "duration": 0.0999,
      "velocity": 109,
      "chip": "ym2612"
    },
    {
      "channel": 1,
      "note": 61,
      "start": 31.0846,
      "duration": 0.0999,
      "velocity": 109,
      "chip": "ym2612"
    },
    {
      "channel": 1,
      "note": 49,
      "start": 31.2012,
      "duration": 0.1,
      "velocity": 109,
      "chip": "ym2612"
    },
    {
      "channel": 1,
      "note": 49,
      "start": 31.3179,
      "duration": 0.0999,
      "velocity": 109,
      "chip": "ym2612"
    },
    {
      "channel": 1,
      "note": 61,
      "start": 31.4345,
      "duration": 0.1,
      "velocity": 109,
      "chip": "ym2612"
    },
    {
      "channel": 1,
      "note": 49,
      "start": 31.5514,
      "duration": 0.0998,
      "velocity": 109,
      "chip": "ym2612"
    },
    {
      "channel": 5,
      "note": 34,
      "start": 31.5535,
      "duration": 0.2149,
      "velocity": 127,
      "chip": "ym2612"
    },
    {
      "channel": 1,
      "note": 61,
      "start": 31.6679,
      "duration": 0.0999,
      "velocity": 109,
      "chip": "ym2612"
    },
    {
      "channel": 1,
      "note": 49,
      "start": 31.7862,
      "duration": 0.0983,
      "velocity": 109,
      "chip": "ym2612"
    },
    {
      "channel": 5,
      "note": 31,
      "start": 31.7885,
      "duration": 0.2133,
      "velocity": 127,
      "chip": "ym2612"
    },
    {
      "channel": 1,
      "note": 49,
      "start": 31.9012,
      "duration": 0.0999,
      "velocity": 109,
      "chip": "ym2612"
    },
    {
      "channel": 1,
      "note": 49,
      "start": 32.018,
      "duration": 0.0999,
      "velocity": 109,
      "chip": "ym2612"
    },
    {
      "channel": 5,
      "note": 31,
      "start": 32.0187,
      "duration": 0.4498,
      "velocity": 127,
      "chip": "ym2612"
    },
    {
      "channel": 1,
      "note": 61,
      "start": 32.1346,
      "duration": 0.0999,
      "velocity": 109,
      "chip": "ym2612"
    },
    {
      "channel": 1,
      "note": 49,
      "start": 32.2512,
      "duration": 0.0999,
      "velocity": 109,
      "chip": "ym2612"
    },
    {
      "channel": 1,
      "note": 49,
      "start": 32.3679,
      "duration": 0.0999,
      "velocity": 109,
      "chip": "ym2612"
    },
    {
      "channel": 1,
      "note": 61,
      "start": 32.4846,
      "duration": 0.0999,
      "velocity": 109,
      "chip": "ym2612"
    },
    {
      "channel": 5,
      "note": 31,
      "start": 32.4853,
      "duration": 0.2164,
      "velocity": 127,
      "chip": "ym2612"
    },
    {
      "channel": 1,
      "note": 49,
      "start": 32.6012,
      "duration": 0.0999,
      "velocity": 109,
      "chip": "ym2612"
    },
    {
      "channel": 1,
      "note": 49,
      "start": 32.718,
      "duration": 0.0999,
      "velocity": 109,
      "chip": "ym2612"
    },
    {
      "channel": 5,
      "note": 31,
      "start": 32.7202,
      "duration": 0.6815,
      "velocity": 127,
      "chip": "ym2612"
    },
    {
      "channel": 1,
      "note": 49,
      "start": 32.8345,
      "duration": 0.1,
      "velocity": 109,
      "chip": "ym2612"
    },
    {
      "channel": 1,
      "note": 61,
      "start": 32.9512,
      "duration": 0.0999,
      "velocity": 109,
      "chip": "ym2612"
    },
    {
      "channel": 1,
      "note": 49,
      "start": 33.0679,
      "duration": 0.1,
      "velocity": 109,
      "chip": "ym2612"
    },
    {
      "channel": 0,
      "note": 61,
      "start": 33.1846,
      "duration": 0.4499,
      "velocity": 102,
      "chip": "ym2612"
    },
    {
      "channel": 1,
      "note": 49,
      "start": 33.1848,
      "duration": 0.0997,
      "velocity": 109,
      "chip": "ym2612"
    },
    {
      "channel": 1,
      "note": 61,
      "start": 33.3012,
      "duration": 0.0999,
      "velocity": 109,
      "chip": "ym2612"
    },
    {
      "channel": 1,
      "note": 49,
      "start": 33.418,
      "duration": 0.0998,
      "velocity": 109,
      "chip": "ym2612"
    },
    {
      "channel": 5,
      "note": 34,
      "start": 33.4202,
      "duration": 0.2151,
      "velocity": 127,
      "chip": "ym2612"
    },
    {
      "channel": 1,
      "note": 61,
      "start": 33.5345,
      "duration": 0.1001,
      "velocity": 109,
      "chip": "ym2612"
    },
    {
      "channel": 0,
      "note": 59,
      "start": 33.653,
      "duration": 3.2481,
      "velocity": 102,
      "chip": "ym2612"
    },
    {
      "channel": 1,
      "note": 49,
      "start": 33.6547,
      "duration": 0.0965,
      "velocity": 109,
      "chip": "ym2612"
    },
    {
      "channel": 5,
      "note": 31,
      "start": 33.6567,
      "duration": 0.2117,
      "velocity": 127,
      "chip": "ym2612"
    },
    {
      "channel": 1,
      "note": 49,
      "start": 33.7679,
      "duration": 0.0999,
      "velocity": 109,
      "chip": "ym2612"
    },
    {
      "channel": 1,
      "note": 49,
      "start": 33.8846,
      "duration": 0.0999,
      "velocity": 109,
      "chip": "ym2612"
    },
    {
      "channel": 5,
      "note": 31,
      "start": 33.8853,
      "duration": 0.4498,
      "velocity": 127,
      "chip": "ym2612"
    },
    {
      "channel": 1,
      "note": 61,
      "start": 34.0012,
      "duration": 0.0999,
      "velocity": 109,
      "chip": "ym2612"
    },
    {
      "channel": 1,
      "note": 49,
      "start": 34.1178,
      "duration": 0.0999,
      "velocity": 109,
      "chip": "ym2612"
    },
    {
      "channel": 1,
      "note": 49,
      "start": 34.2345,
      "duration": 0.1,
      "velocity": 109,
      "chip": "ym2612"
    },
    {
      "channel": 1,
      "note": 61,
      "start": 34.3513,
      "duration": 0.0999,
      "velocity": 109,
      "chip": "ym2612"
    },
    {
      "channel": 5,
      "note": 31,
      "start": 34.352,
      "duration": 0.2164,
      "velocity": 127,
      "chip": "ym2612"
    },
    {
      "channel": 1,
      "note": 49,
      "start": 34.4678,
      "duration": 0.1,
      "velocity": 109,
      "chip": "ym2612"
    },
    {
      "channel": 1,
      "note": 49,
      "start": 34.5846,
      "duration": 0.0999,
      "velocity": 109,
      "chip": "ym2612"
    },
    {
      "channel": 5,
      "note": 31,
      "start": 34.5869,
      "duration": 0.6815,
      "velocity": 127,
      "chip": "ym2612"
    },
    {
      "channel": 1,
      "note": 49,
      "start": 34.7012,
      "duration": 0.0999,
      "velocity": 109,
      "chip": "ym2612"
    },
    {
      "channel": 1,
      "note": 61,
      "start": 34.8178,
      "duration": 0.1,
      "velocity": 109,
      "chip": "ym2612"
    },
    {
      "channel": 1,
      "note": 49,
      "start": 34.9345,
      "duration": 0.0999,
      "velocity": 109,
      "chip": "ym2612"
    },
    {
      "channel": 1,
      "note": 49,
      "start": 35.0512,
      "duration": 0.1,
      "velocity": 109,
      "chip": "ym2612"
    },
    {
      "channel": 1,
      "note": 61,
      "start": 35.1679,
      "duration": 0.0999,
      "velocity": 109,
      "chip": "ym2612"
    },
    {
      "channel": 1,
      "note": 49,
      "start": 35.2847,
      "duration": 0.0998,
      "velocity": 109,
      "chip": "ym2612"
    },
    {
      "channel": 5,
      "note": 34,
      "start": 35.2869,
      "duration": 0.2149,
      "velocity": 127,
      "chip": "ym2612"
    },
    {
      "channel": 1,
      "note": 61,
      "start": 35.4012,
      "duration": 0.1,
      "velocity": 109,
      "chip": "ym2612"
    },
    {
      "channel": 1,
      "note": 49,
      "start": 35.5196,
      "duration": 0.0982,
      "velocity": 109,
      "chip": "ym2612"
    },
    {
      "channel": 5,
      "note": 31,
      "start": 35.5219,
      "duration": 0.2132,
      "velocity": 127,
      "chip": "ym2612"
    },
    {
      "channel": 1,
      "note": 49,
      "start": 35.6346,
      "duration": 0.0999,
      "velocity": 109,
      "chip": "ym2612"
    },
    {
      "channel": 1,
      "note": 49,
      "start": 35.7512,
      "duration": 0.0999,
      "velocity": 109,
      "chip": "ym2612"
    },
    {
      "channel": 5,
      "note": 31,
      "start": 35.752,
      "duration": 0.4498,
      "velocity": 127,
      "chip": "ym2612"
    },
    {
      "channel": 1,
      "note": 61,
      "start": 35.8679,
      "duration": 0.0999,
      "velocity": 109,
      "chip": "ym2612"
    },
    {
      "channel": 1,
      "note": 49,
      "start": 35.9846,
      "duration": 0.0999,
      "velocity": 109,
      "chip": "ym2612"
    },
    {
      "channel": 1,
      "note": 49,
      "start": 36.1012,
      "duration": 0.1,
      "velocity": 109,
      "chip": "ym2612"
    },
    {
      "channel": 1,
      "note": 61,
      "start": 36.218,
      "duration": 0.0999,
      "velocity": 109,
      "chip": "ym2612"
    },
    {
      "channel": 5,
      "note": 31,
      "start": 36.2187,
      "duration": 0.2164,
      "velocity": 127,
      "chip": "ym2612"
    },
    {
      "channel": 1,
      "note": 49,
      "start": 36.3346,
      "duration": 0.0999,
      "velocity": 109,
      "chip": "ym2612"
    },
    {
      "channel": 1,
      "note": 49,
      "start": 36.4514,
      "duration": 0.0998,
      "velocity": 109,
      "chip": "ym2612"
    },
    {
      "channel": 5,
      "note": 31,
      "start": 36.4535,
      "duration": 0.6815,
      "velocity": 127,
      "chip": "ym2612"
    },
    {
      "channel": 1,
      "note": 49,
      "start": 36.5679,
      "duration": 0.0999,
      "velocity": 109,
      "chip": "ym2612"
    },
    {
      "channel": 1,
      "note": 61,
      "start": 36.6845,
      "duration": 0.1,
      "velocity": 109,
      "chip": "ym2612"
    },
    {
      "channel": 1,
      "note": 49,
      "start": 36.8012,
      "duration": 0.1,
      "velocity": 109,
      "chip": "ym2612"
    },
    {
      "channel": 0,
      "note": 61,
      "start": 36.9179,
      "duration": 0.4498,
      "velocity": 102,
      "chip": "ym2612"
    },
    {
      "channel": 1,
      "note": 49,
      "start": 36.9182,
      "duration": 0.0997,
      "velocity": 109,
      "chip": "ym2612"
    },
    {
      "channel": 1,
      "note": 61,
      "start": 37.0346,
      "duration": 0.0999,
      "velocity": 109,
      "chip": "ym2612"
    },
    {
      "channel": 1,
      "note": 49,
      "start": 37.1514,
      "duration": 0.0998,
      "velocity": 109,
      "chip": "ym2612"
    },
    {
      "channel": 5,
      "note": 34,
      "start": 37.1535,
      "duration": 0.2149,
      "velocity": 127,
      "chip": "ym2612"
    },
    {
      "channel": 1,
      "note": 61,
      "start": 37.2679,
      "duration": 0.1,
      "velocity": 109,
      "chip": "ym2612"
    },
    {
      "channel": 0,
      "note": 59,
      "start": 37.3863,
      "duration": 3.248,
      "velocity": 102,
      "chip": "ym2612"
    },
    {
      "channel": 1,
      "note": 49,
      "start": 37.3881,
      "duration": 0.0964,
      "velocity": 109,
      "chip": "ym2612"
    },
    {
      "channel": 5,
      "note": 31,
      "start": 37.3902,
      "duration": 0.2115,
      "velocity": 127,
      "chip": "ym2612"
    },
    {
      "channel": 1,
      "note": 49,
      "start": 37.5012,
      "duration": 0.0999,
      "velocity": 109,
      "chip": "ym2612"
    },
    {
      "channel": 1,
      "note": 49,
      "start": 37.6179,
      "duration": 0.0999,
      "velocity": 109,
      "chip": "ym2612"
    },
    {
      "channel": 5,
      "note": 31,
      "start": 37.6187,
      "duration": 0.4498,
      "velocity": 127,
      "chip": "ym2612"
    },
    {
      "channel": 1,
      "note": 61,
      "start": 37.7346,
      "duration": 0.0999,
      "velocity": 109,
      "chip": "ym2612"
    },
    {
      "channel": 1,
      "note": 49,
      "start": 37.8512,
      "duration": 0.0999,
      "velocity": 109,
      "chip": "ym2612"
    },
    {
      "channel": 1,
      "note": 49,
      "start": 37.9679,
      "duration": 0.0999,
      "velocity": 109,
      "chip": "ym2612"
    },
    {
      "channel": 1,
      "note": 61,
      "start": 38.0846,
      "duration": 0.0998,
      "velocity": 109,
      "chip": "ym2612"
    },
    {
      "channel": 5,
      "note": 31,
      "start": 38.0853,
      "duration": 0.2164,
      "velocity": 127,
      "chip": "ym2612"
    },
    {
      "channel": 1,
      "note": 49,
      "start": 38.2012,
      "duration": 0.0999,
      "velocity": 109,
      "chip": "ym2612"
    },
    {
      "channel": 1,
      "note": 49,
      "start": 38.318,
      "duration": 0.0998,
      "velocity": 109,
      "chip": "ym2612"
    },
    {
      "channel": 5,
      "note": 31,
      "start": 38.3202,
      "duration": 0.6815,
      "velocity": 127,
      "chip": "ym2612"
    },
    {
      "channel": 1,
      "note": 49,
      "start": 38.4345,
      "duration": 0.1,
      "velocity": 109,
      "chip": "ym2612"
    },
    {
      "channel": 1,
      "note": 61,
      "start": 38.5512,
      "duration": 0.0999,
      "velocity": 109,
      "chip": "ym2612"
    },
    {
      "channel": 1,
      "note": 49,
      "start": 38.6678,
      "duration": 0.1,
      "velocity": 109,
      "chip": "ym2612"
    },
    {
      "channel": 1,
      "note": 49,
      "start": 38.7846,
      "duration": 0.0999,
      "velocity": 109,
      "chip": "ym2612"
    },
    {
      "channel": 1,
      "note": 61,
      "start": 38.9012,
      "duration": 0.0999,
      "velocity": 109,
      "chip": "ym2612"
    },
    {
      "channel": 1,
      "note": 49,
      "start": 39.018,
      "duration": 0.0999,
      "velocity": 109,
      "chip": "ym2612"
    },
    {
      "channel": 5,
      "note": 34,
      "start": 39.0202,
      "duration": 0.2149,
      "velocity": 127,
      "chip": "ym2612"
    },
    {
      "channel": 1,
      "note": 61,
      "start": 39.1345,
      "duration": 0.1,
      "velocity": 109,
      "chip": "ym2612"
    },
    {
      "channel": 1,
      "note": 49,
      "start": 39.2529,
      "duration": 0.0982,
      "velocity": 109,
      "chip": "ym2612"
    },
    {
      "channel": 5,
      "note": 31,
      "start": 39.2551,
      "duration": 0.2133,
      "velocity": 127,
      "chip": "ym2612"
    },
    {
      "channel": 1,
      "note": 49,
      "start": 39.3678,
      "duration": 0.0999,
      "velocity": 109,
      "chip": "ym2612"
    },
    {
      "channel": 1,
      "note": 49,
      "start": 39.4846,
      "duration": 0.0998,
      "velocity": 109,
      "chip": "ym2612"
    },
    {
      "channel": 5,
      "note": 31,
      "start": 39.4854,
      "duration": 0.4497,
      "velocity": 127,
      "chip": "ym2612"
    },
    {
      "channel": 1,
      "note": 61,
      "start": 39.6012,
      "duration": 0.1,
      "velocity": 109,
      "chip": "ym2612"
    },
    {
      "channel": 1,
      "note": 49,
      "start": 39.7179,
      "duration": 0.0999,
      "velocity": 109,
      "chip": "ym2612"
    },
    {
      "channel": 1,
      "note": 49,
      "start": 39.8346,
      "duration": 0.0999,
      "velocity": 109,
      "chip": "ym2612"
    },
    {
      "channel": 1,
      "note": 61,
      "start": 39.9512,
      "duration": 0.0999,
      "velocity": 109,
      "chip": "ym2612"
    },
    {
      "channel": 5,
      "note": 31,
      "start": 39.952,
      "duration": 0.2164,
      "velocity": 127,
      "chip": "ym2612"
    },
    {
      "channel": 1,
      "note": 49,
      "start": 40.0678,
      "duration": 0.1,
      "velocity": 109,
      "chip": "ym2612"
    },
    {
      "channel": 1,
      "note": 49,
      "start": 40.1846,
      "duration": 0.0998,
      "velocity": 109,
      "chip": "ym2612"
    },
    {
      "channel": 5,
      "note": 31,
      "start": 40.1869,
      "duration": 0.6815,
      "velocity": 127,
      "chip": "ym2612"
    },
    {
      "channel": 1,
      "note": 49,
      "start": 40.3012,
      "duration": 0.1,
      "velocity": 109,
      "chip": "ym2612"
    },
    {
      "channel": 1,
      "note": 61,
      "start": 40.4179,
      "duration": 0.0999,
      "velocity": 109,
      "chip": "ym2612"
    },
    {
      "channel": 1,
      "note": 49,
      "start": 40.5346,
      "duration": 0.1,
      "velocity": 109,
      "chip": "ym2612"
    },
    {
      "channel": 0,
      "note": 61,
      "start": 40.6512,
      "duration": 0.4499,
      "velocity": 102,
      "chip": "ym2612"
    },
    {
      "channel": 1,
      "note": 49,
      "start": 40.6515,
      "duration": 0.0997,
      "velocity": 109,
      "chip": "ym2612"
    },
    {
      "channel": 1,
      "note": 61,
      "start": 40.7679,
      "duration": 0.0999,
      "velocity": 109,
      "chip": "ym2612"
    },
    {
      "channel": 1,
      "note": 49,
      "start": 40.8847,
      "duration": 0.0998,
      "velocity": 109,
      "chip": "ym2612"
    },
    {
      "channel": 5,
      "note": 34,
      "start": 40.8869,
      "duration": 0.2152,
      "velocity": 127,
      "chip": "ym2612"
    },
    {
      "channel": 1,
      "note": 61,
      "start": 41.0012,
      "duration": 0.1,
      "velocity": 109,
      "chip": "ym2612"
    },
    {
      "channel": 0,
      "note": 59,
      "start": 41.1202,
      "duration": 3.2475,
      "velocity": 102,
      "chip": "ym2612"
    },
    {
      "channel": 1,
      "note": 49,
      "start": 41.122,
      "duration": 0.0959,
      "velocity": 109,
      "chip": "ym2612"
    },
    {
      "channel": 2,
      "note": 49,
      "start": 41.1237,
      "duration": 3.711,
      "velocity": 109,
      "chip": "ym2612"
    },
    {
      "channel": 3,
      "note": 61,
      "start": 41.1254,
      "duration": 3.7095,
      "velocity": 109,
      "chip": "ym2612"
    },
    {
      "channel": 4,
      "note": 37,
      "start": 41.1271,
      "duration": 3.708,
      "velocity": 109,
      "chip": "ym2612"
    },
    {
      "channel": 5,
      "note": 31,
      "start": 41.1288,
      "duration": 0.2062,
      "velocity": 127,
      "chip": "ym2612"
    },
    {
      "channel": 1,
      "note": 49,
      "start": 41.2346,
      "duration": 0.0999,
      "velocity": 109,
      "chip": "ym2612"
    },
    {
      "channel": 1,
      "note": 49,
      "start": 41.3513,
      "duration": 0.0999,
      "velocity": 109,
      "chip": "ym2612"
    },
    {
      "channel": 5,
      "note": 31,
      "start": 41.352,
      "duration": 0.4498,
      "velocity": 127,
      "chip": "ym2612"
    },
    {
      "channel": 1,
      "note": 61,
      "start": 41.4679,
      "duration": 0.0999,
      "velocity": 109,
      "chip": "ym2612"
    },
    {
      "channel": 1,
      "note": 49,
      "start": 41.5846,
      "duration": 0.0999,
      "velocity": 109,
      "chip": "ym2612"
    },
    {
      "channel": 1,
      "note": 49,
      "start": 41.7012,
      "duration": 0.0999,
      "velocity": 109,
      "chip": "ym2612"
    },
    {
      "channel": 1,
      "note": 61,
      "start": 41.818,
      "duration": 0.0999,
      "velocity": 109,
      "chip": "ym2612"
    },
    {
      "channel": 5,
      "note": 31,
      "start": 41.8187,
      "duration": 0.2164,
      "velocity": 127,
      "chip": "ym2612"
    },
    {
      "channel": 1,
      "note": 49,
      "start": 41.9346,
      "duration": 0.0999,
      "velocity": 109,
      "chip": "ym2612"
    },
    {
      "channel": 1,
      "note": 49,
      "start": 42.0513,
      "duration": 0.0999,
      "velocity": 109,
      "chip": "ym2612"
    },
    {
      "channel": 5,
      "note": 31,
      "start": 42.0535,
      "duration": 0.6816,
      "velocity": 127,
      "chip": "ym2612"
    },
    {
      "channel": 1,
      "note": 49,
      "start": 42.1679,
      "duration": 0.0999,
      "velocity": 109,
      "chip": "ym2612"
    },
    {
      "channel": 1,
      "note": 61,
      "start": 42.2846,
      "duration": 0.0999,
      "velocity": 109,
      "chip": "ym2612"
    },
    {
      "channel": 1,
      "note": 49,
      "start": 42.4012,
      "duration": 0.0999,
      "velocity": 109,
      "chip": "ym2612"
    },
    {
      "channel": 1,
      "note": 49,
      "start": 42.5178,
      "duration": 0.1,
      "velocity": 109,
      "chip": "ym2612"
    },
    {
      "channel": 1,
      "note": 61,
      "start": 42.6346,
      "duration": 0.1,
      "velocity": 109,
      "chip": "ym2612"
    },
    {
      "channel": 1,
      "note": 49,
      "start": 42.7513,
      "duration": 0.0998,
      "velocity": 109,
      "chip": "ym2612"
    },
    {
      "channel": 5,
      "note": 34,
      "start": 42.7535,
      "duration": 0.2149,
      "velocity": 127,
      "chip": "ym2612"
    },
    {
      "channel": 1,
      "note": 61,
      "start": 42.8678,
      "duration": 0.1,
      "velocity": 109,
      "chip": "ym2612"
    },
    {
      "channel": 1,
      "note": 49,
      "start": 42.9863,
      "duration": 0.0982,
      "velocity": 109,
      "chip": "ym2612"
    },
    {
      "channel": 5,
      "note": 31,
      "start": 42.9885,
      "duration": 0.2132,
      "velocity": 127,
      "chip": "ym2612"
    },
    {
      "channel": 1,
      "note": 49,
      "start": 43.1012,
      "duration": 0.1,
      "velocity": 109,
      "chip": "ym2612"
    },
    {
      "channel": 1,
      "note": 49,
      "start": 43.218,
      "duration": 0.0999,
      "velocity": 109,
      "chip": "ym2612"
    },
    {
      "channel": 5,
      "note": 31,
      "start": 43.2187,
      "duration": 0.4497,
      "velocity": 127,
      "chip": "ym2612"
    },
    {
      "channel": 1,
      "note": 61,
      "start": 43.3346,
      "duration": 0.0999,
      "velocity": 109,
      "chip": "ym2612"
    },
    {
      "channel": 1,
      "note": 49,
      "start": 43.4512,
      "duration": 0.0999,
      "velocity": 109,
      "chip": "ym2612"
    },
    {
      "channel": 1,
      "note": 49,
      "start": 43.5679,
      "duration": 0.0999,
      "velocity": 109,
      "chip": "ym2612"
    },
    {
      "channel": 1,
      "note": 61,
      "start": 43.6846,
      "duration": 0.0999,
      "velocity": 109,
      "chip": "ym2612"
    },
    {
      "channel": 5,
      "note": 31,
      "start": 43.6854,
      "duration": 0.2163,
      "velocity": 127,
      "chip": "ym2612"
    },
    {
      "channel": 1,
      "note": 49,
      "start": 43.8012,
      "duration": 0.0999,
      "velocity": 109,
      "chip": "ym2612"
    },
    {
      "channel": 1,
      "note": 49,
      "start": 43.918,
      "duration": 0.0999,
      "velocity": 109,
      "chip": "ym2612"
    },
    {
      "channel": 5,
      "note": 31,
      "start": 43.9202,
      "duration": 0.6815,
      "velocity": 127,
      "chip": "ym2612"
    },
    {
      "channel": 1,
      "note": 49,
      "start": 44.0346,
      "duration": 0.0999,
      "velocity": 109,
      "chip": "ym2612"
    },
    {
      "channel": 1,
      "note": 61,
      "start": 44.1512,
      "duration": 0.1,
      "velocity": 109,
      "chip": "ym2612"
    },
    {
      "channel": 1,
      "note": 49,
      "start": 44.2679,
      "duration": 0.0999,
      "velocity": 109,
      "chip": "ym2612"
    },
    {
      "channel": 0,
      "note": 61,
      "start": 44.3846,
      "duration": 0.4499,
      "velocity": 102,
      "chip": "ym2612"
    },
    {
      "channel": 1,
      "note": 49,
      "start": 44.3848,
      "duration": 0.0997,
      "velocity": 109,
      "chip": "ym2612"
    },
    {
      "channel": 1,
      "note": 61,
      "start": 44.5012,
      "duration": 0.0999,
      "velocity": 109,
      "chip": "ym2612"
    },
    {
      "channel": 1,
      "note": 49,
      "start": 44.618,
      "duration": 0.0998,
      "velocity": 109,
      "chip": "ym2612"
    },
    {
      "channel": 5,
      "note": 34,
      "start": 44.6202,
      "duration": 0.2152,
      "velocity": 127,
      "chip": "ym2612"
    },
    {
      "channel": 1,
      "note": 61,
      "start": 44.7346,
      "duration": 0.1,
      "velocity": 109,
      "chip": "ym2612"
    }
  ]
}