{
  "track_name": "04 - What",
  "duration_sec": 23.61,
  "sample_rate": 44100,
  "note_count": 542,
  "unique_pitches": 19,
  "pitch_range": 52,
  "avg_note_duration": 0.1847,
  "reconstruction_stats": {
    "notes_reconstructed": 542,
    "keyon_events": 542,
    "keyoff_events": 538,
    "orphan_keyons": 4,
    "unique_pitches": 19,
    "pitch_range": 52,
    "avg_duration_sec": 0.1847
  },
  "metadata": {
    "source": "T\\Thunder Force IV\\04 - What.vgz"
  },
  "notes": [
    {
      "channel": 0,
      "note": 29,
      "start": 0.0,
      "duration": 0.0,
      "velocity": 123,
      "chip": "ym2612"
    },
    {
      "channel": 0,
      "note": 28,
      "start": 0.0,
      "duration": 0.0,
      "velocity": 123,
      "chip": "ym2612"
    },
    {
      "channel": 0,
      "note": 27,
      "start": 0.0,
      "duration": 0.0,
      "velocity": 123,
      "chip": "ym2612"
    },
    {
      "channel": 1,
      "note": 50,
      "start": 0.0,
      "duration": 0.0,
      "velocity": 108,
      "chip": "ym2612"
    },
    {
      "channel": 1,
      "note": 62,
      "start": 0.0,
      "duration": 0.0,
      "velocity": 108,
      "chip": "ym2612"
    },
    {
      "channel": 3,
      "note": 61,
      "start": 0.0,
      "duration": 0.0,
      "velocity": 127,
      "chip": "ym2612"
    },
    {
      "channel": 3,
      "note": 61,
      "start": 0.0,
      "duration": 0.0,
      "velocity": 127,
      "chip": "ym2612"
    },
    {
      "channel": 4,
      "note": 30,
      "start": 0.0,
      "duration": 0.0,
      "velocity": 123,
      "chip": "ym2612"
    },
    {
      "channel": 0,
      "note": 69,
      "start": 0.0003,
      "duration": 0.1831,
      "velocity": 103,
      "chip": "ym2612"
    },
    {
      "channel": 1,
      "note": 45,
      "start": 0.0059,
      "duration": 1.5932,
      "velocity": 119,
      "chip": "ym2612"
    },
    {
      "channel": 3,
      "note": 61,
      "start": 0.0123,
      "duration": 0.071,
      "velocity": 127,
      "chip": "ym2612"
    },
    {
      "channel": 4,
      "note": 45,
      "start": 0.0179,
      "duration": 1.5833,
      "velocity": 119,
      "chip": "ym2612"
    },
    {
      "channel": 2,
      "note": 69,
      "start": 0.1713,
      "duration": 0.164,
      "velocity": 103,
      "chip": "ym2612"
    },
    {
      "channel": 0,
      "note": 79,
      "start": 0.2179,
      "duration": 0.1671,
      "velocity": 103,
      "chip": "ym2612"
    },
    {
      "channel": 5,
      "note": 69,
      "start": 0.3256,
      "duration": 0.1639,
      "velocity": 103,
      "chip": "ym2612"
    },
    {
      "channel": 2,
      "note": 79,
      "start": 0.3704,
      "duration": 0.1671,
      "velocity": 103,
      "chip": "ym2612"
    },
    {
      "channel": 0,
      "note": 75,
      "start": 0.4202,
      "duration": 0.1673,
      "velocity": 103,
      "chip": "ym2612"
    },
    {
      "channel": 3,
      "note": 61,
      "start": 0.4269,
      "duration": 0.0107,
      "velocity": 119,
      "chip": "ym2612"
    },
    {
      "channel": 5,
      "note": 79,
      "start": 0.5248,
      "duration": 0.1667,
      "velocity": 103,
      "chip": "ym2612"
    },
    {
      "channel": 2,
      "note": 75,
      "start": 0.5727,
      "duration": 0.1672,
      "velocity": 103,
      "chip": "ym2612"
    },
    {
      "channel": 0,
      "note": 77,
      "start": 0.6224,
      "duration": 0.1671,
      "velocity": 103,
      "chip": "ym2612"
    },
    {
      "channel": 3,
      "note": 61,
      "start": 0.626,
      "duration": 0.1653,
      "velocity": 119,
      "chip": "ym2612"
    },
    {
      "channel": 5,
      "note": 75,
      "start": 0.7266,
      "duration": 0.1672,
      "velocity": 103,
      "chip": "ym2612"
    },
    {
      "channel": 2,
      "note": 77,
      "start": 0.775,
      "duration": 0.167,
      "velocity": 103,
      "chip": "ym2612"
    },
    {
      "channel": 0,
      "note": 73,
      "start": 0.8246,
      "duration": 0.1671,
      "velocity": 103,
      "chip": "ym2612"
    },
    {
      "channel": 3,
      "note": 61,
      "start": 0.8323,
      "duration": 0.06,
      "velocity": 127,
      "chip": "ym2612"
    },
    {
      "channel": 5,
      "note": 77,
      "start": 0.9292,
      "duration": 0.167,
      "velocity": 103,
      "chip": "ym2612"
    },
    {
      "channel": 2,
      "note": 73,
      "start": 0.9772,
      "duration": 0.1671,
      "velocity": 103,
      "chip": "ym2612"
    },
    {
      "channel": 0,
      "note": 75,
      "start": 1.0269,
      "duration": 0.167,
      "velocity": 103,
      "chip": "ym2612"
    },
    {
      "channel": 5,
      "note": 73,
      "start": 1.1323,
      "duration": 0.1671,
      "velocity": 103,
      "chip": "ym2612"
    },
    {
      "channel": 2,
      "note": 75,
      "start": 1.1795,
      "duration": 0.1671,
      "velocity": 103,
      "chip": "ym2612"
    },
    {
      "channel": 0,
      "note": 71,
      "start": 1.2292,
      "duration": 0.1671,
      "velocity": 103,
      "chip": "ym2612"
    },
    {
      "channel": 3,
      "note": 61,
      "start": 1.2367,
      "duration": 0.0099,
      "velocity": 119,
      "chip": "ym2612"
    },
    {
      "channel": 5,
      "note": 75,
      "start": 1.3345,
      "duration": 0.1662,
      "velocity": 103,
      "chip": "ym2612"
    },
    {
      "channel": 2,
      "note": 71,
      "start": 1.3825,
      "duration": 0.1672,
      "velocity": 103,
      "chip": "ym2612"
    },
    {
      "channel": 0,
      "note": 69,
      "start": 1.4365,
      "duration": 0.1625,
      "velocity": 103,
      "chip": "ym2612"
    },
    {
      "channel": 3,
      "note": 61,
      "start": 1.4426,
      "duration": 0.0566,
      "velocity": 127,
      "chip": "ym2612"
    },
    {
      "channel": 5,
      "note": 71,
      "start": 1.5362,
      "duration": 0.166,
      "velocity": 103,
      "chip": "ym2612"
    },
    {
      "channel": 2,
      "note": 69,
      "start": 1.5889,
      "duration": 0.1621,
      "velocity": 103,
      "chip": "ym2612"
    },
    {
      "channel": 0,
      "note": 79,
      "start": 1.6337,
      "duration": 0.167,
      "velocity": 103,
      "chip": "ym2612"
    },
    {
      "channel": 1,
      "note": 45,
      "start": 1.6354,
      "duration": 0.1655,
      "velocity": 119,
      "chip": "ym2612"
    },
    {
      "channel": 3,
      "note": 61,
      "start": 1.6376,
      "duration": 0.063,
      "velocity": 127,
      "chip": "ym2612"
    },
    {
      "channel": 4,
      "note": 45,
      "start": 1.6393,
      "duration": 0.1637,
      "velocity": 119,
      "chip": "ym2612"
    },
    {
      "channel": 5,
      "note": 69,
      "start": 1.742,
      "duration": 0.1626,
      "velocity": 103,
      "chip": "ym2612"
    },
    {
      "channel": 2,
      "note": 79,
      "start": 1.7861,
      "duration": 0.1671,
      "velocity": 103,
      "chip": "ym2612"
    },
    {
      "channel": 0,
      "note": 75,
      "start": 1.8359,
      "duration": 0.1671,
      "velocity": 103,
      "chip": "ym2612"
    },
    {
      "channel": 3,
      "note": 61,
      "start": 1.842,
      "duration": 0.0114,
      "velocity": 119,
      "chip": "ym2612"
    },
    {
      "channel": 3,
      "note": 61,
      "start": 1.9383,
      "duration": 0.0156,
      "velocity": 119,
      "chip": "ym2612"
    },
    {
      "channel": 5,
      "note": 79,
      "start": 1.9407,
      "duration": 0.1659,
      "velocity": 103,
      "chip": "ym2612"
    },
    {
      "channel": 2,
      "note": 75,
      "start": 1.9884,
      "duration": 0.167,
      "velocity": 103,
      "chip": "ym2612"
    },
    {
      "channel": 0,
      "note": 77,
      "start": 2.0381,
      "duration": 0.1671,
      "velocity": 103,
      "chip": "ym2612"
    },
    {
      "channel": 1,
      "note": 45,
      "start": 2.0398,
      "duration": 0.1656,
      "velocity": 119,
      "chip": "ym2612"
    },
    {
      "channel": 3,
      "note": 61,
      "start": 2.0452,
      "duration": 0.0599,
      "velocity": 127,
      "chip": "ym2612"
    },
    {
      "channel": 4,
      "note": 45,
      "start": 2.0469,
      "duration": 0.1606,
      "velocity": 119,
      "chip": "ym2612"
    },
    {
      "channel": 5,
      "note": 75,
      "start": 2.1421,
      "duration": 0.1671,
      "velocity": 103,
      "chip": "ym2612"
    },
    {
      "channel": 2,
      "note": 77,
      "start": 2.1906,
      "duration": 0.1671,
      "velocity": 103,
      "chip": "ym2612"
    },
    {
      "channel": 0,
      "note": 73,
      "start": 2.2403,
      "duration": 0.1671,
      "velocity": 103,
      "chip": "ym2612"
    },
    {
      "channel": 1,
      "note": 45,
      "start": 2.242,
      "duration": 0.1657,
      "velocity": 119,
      "chip": "ym2612"
    },
    {
      "channel": 3,
      "note": 61,
      "start": 2.2474,
      "duration": 0.01,
      "velocity": 119,
      "chip": "ym2612"
    },
    {
      "channel": 4,
      "note": 45,
      "start": 2.25,
      "duration": 0.1597,
      "velocity": 119,
      "chip": "ym2612"
    },
    {
      "channel": 3,
      "note": 61,
      "start": 2.3428,
      "duration": 0.0156,
      "velocity": 119,
      "chip": "ym2612"
    },
    {
      "channel": 5,
      "note": 77,
      "start": 2.3452,
      "duration": 0.1657,
      "velocity": 103,
      "chip": "ym2612"
    },
    {
      "channel": 2,
      "note": 73,
      "start": 2.3928,
      "duration": 0.1671,
      "velocity": 103,
      "chip": "ym2612"
    },
    {
      "channel": 0,
      "note": 75,
      "start": 2.4426,
      "duration": 0.1671,
      "velocity": 103,
      "chip": "ym2612"
    },
    {
      "channel": 3,
      "note": 61,
      "start": 2.4458,
      "duration": 0.1649,
      "velocity": 119,
      "chip": "ym2612"
    },
    {
      "channel": 5,
      "note": 73,
      "start": 2.5466,
      "duration": 0.1668,
      "velocity": 103,
      "chip": "ym2612"
    },
    {
      "channel": 2,
      "note": 75,
      "start": 2.5951,
      "duration": 0.1671,
      "velocity": 103,
      "chip": "ym2612"
    },
    {
      "channel": 0,
      "note": 71,
      "start": 2.6449,
      "duration": 0.167,
      "velocity": 103,
      "chip": "ym2612"
    },
    {
      "channel": 3,
      "note": 61,
      "start": 2.6519,
      "duration": 0.06,
      "velocity": 127,
      "chip": "ym2612"
    },
    {
      "channel": 5,
      "note": 75,
      "start": 2.7496,
      "duration": 0.1837,
      "velocity": 103,
      "chip": "ym2612"
    },
    {
      "channel": 2,
      "note": 71,
      "start": 2.7973,
      "duration": 0.1847,
      "velocity": 103,
      "chip": "ym2612"
    },
    {
      "channel": 0,
      "note": 69,
      "start": 2.8522,
      "duration": 0.1788,
      "velocity": 103,
      "chip": "ym2612"
    },
    {
      "channel": 1,
      "note": 51,
      "start": 2.8538,
      "duration": 1.5931,
      "velocity": 119,
      "chip": "ym2612"
    },
    {
      "channel": 3,
      "note": 61,
      "start": 2.8596,
      "duration": 0.0714,
      "velocity": 127,
      "chip": "ym2612"
    },
    {
      "channel": 4,
      "note": 51,
      "start": 2.8612,
      "duration": 1.5886,
      "velocity": 119,
      "chip": "ym2612"
    },
    {
      "channel": 5,
      "note": 71,
      "start": 2.9687,
      "duration": 0.1664,
      "velocity": 103,
      "chip": "ym2612"
    },
    {
      "channel": 2,
      "note": 69,
      "start": 3.0216,
      "duration": 0.1619,
      "velocity": 103,
      "chip": "ym2612"
    },
    {
      "channel": 0,
      "note": 79,
      "start": 3.0671,
      "duration": 0.1665,
      "velocity": 103,
      "chip": "ym2612"
    },
    {
      "channel": 5,
      "note": 69,
      "start": 3.1745,
      "duration": 0.1627,
      "velocity": 103,
      "chip": "ym2612"
    },
    {
      "channel": 2,
      "note": 79,
      "start": 3.2187,
      "duration": 0.1671,
      "velocity": 103,
      "chip": "ym2612"
    },
    {
      "channel": 0,
      "note": 75,
      "start": 3.2684,
      "duration": 0.1671,
      "velocity": 103,
      "chip": "ym2612"
    },
    {
      "channel": 3,
      "note": 61,
      "start": 3.2745,
      "duration": 0.0108,
      "velocity": 119,
      "chip": "ym2612"
    },
    {
      "channel": 5,
      "note": 79,
      "start": 3.3724,
      "duration": 0.1666,
      "velocity": 103,
      "chip": "ym2612"
    },
    {
      "channel": 2,
      "note": 75,
      "start": 3.4209,
      "duration": 0.1671,
      "velocity": 103,
      "chip": "ym2612"
    },
    {
      "channel": 0,
      "note": 77,
      "start": 3.4706,
      "duration": 0.1673,
      "velocity": 103,
      "chip": "ym2612"
    },
    {
      "channel": 3,
      "note": 61,
      "start": 3.4736,
      "duration": 0.1654,
      "velocity": 119,
      "chip": "ym2612"
    },
    {
      "channel": 5,
      "note": 75,
      "start": 3.5742,
      "duration": 0.1673,
      "velocity": 103,
      "chip": "ym2612"
    },
    {
      "channel": 2,
      "note": 77,
      "start": 3.6231,
      "duration": 0.1671,
      "velocity": 103,
      "chip": "ym2612"
    },
    {
      "channel": 0,
      "note": 73,
      "start": 3.6729,
      "duration": 0.1671,
      "velocity": 103,
      "chip": "ym2612"
    },
    {
      "channel": 3,
      "note": 61,
      "start": 3.679,
      "duration": 0.0609,
      "velocity": 127,
      "chip": "ym2612"
    },
    {
      "channel": 5,
      "note": 77,
      "start": 3.7769,
      "duration": 0.1671,
      "velocity": 103,
      "chip": "ym2612"
    },
    {
      "channel": 2,
      "note": 73,
      "start": 3.8254,
      "duration": 0.1671,
      "velocity": 103,
      "chip": "ym2612"
    },
    {
      "channel": 0,
      "note": 75,
      "start": 3.8751,
      "duration": 0.1671,
      "velocity": 103,
      "chip": "ym2612"
    },
    {
      "channel": 5,
      "note": 73,
      "start": 3.979,
      "duration": 0.1671,
      "velocity": 103,
      "chip": "ym2612"
    },
    {
      "channel": 2,
      "note": 75,
      "start": 4.0276,
      "duration": 0.1671,
      "velocity": 103,
      "chip": "ym2612"
    },
    {
      "channel": 0,
      "note": 71,
      "start": 4.0774,
      "duration": 0.1671,
      "velocity": 103,
      "chip": "ym2612"
    },
    {
      "channel": 3,
      "note": 61,
      "start": 4.0844,
      "duration": 0.0099,
      "velocity": 119,
      "chip": "ym2612"
    },
    {
      "channel": 5,
      "note": 75,
      "start": 4.182,
      "duration": 0.1669,
      "velocity": 103,
      "chip": "ym2612"
    },
    {
      "channel": 2,
      "note": 71,
      "start": 4.2299,
      "duration": 0.1671,
      "velocity": 103,
      "chip": "ym2612"
    },
    {
      "channel": 0,
      "note": 69,
      "start": 4.2848,
      "duration": 0.162,
      "velocity": 103,
      "chip": "ym2612"
    },
    {
      "channel": 3,
      "note": 61,
      "start": 4.2909,
      "duration": 0.0557,
      "velocity": 127,
      "chip": "ym2612"
    },
    {
      "channel": 5,
      "note": 71,
      "start": 4.3844,
      "duration": 0.1668,
      "velocity": 103,
      "chip": "ym2612"
    },
    {
      "channel": 2,
      "note": 69,
      "start": 4.4372,
      "duration": 0.1625,
      "velocity": 103,
      "chip": "ym2612"
    },
    {
      "channel": 0,
      "note": 79,
      "start": 4.4827,
      "duration": 0.1663,
      "velocity": 103,
      "chip": "ym2612"
    },
    {
      "channel": 1,
      "note": 51,
      "start": 4.4844,
      "duration": 0.1648,
      "velocity": 119,
      "chip": "ym2612"
    },
    {
      "channel": 3,
      "note": 61,
      "start": 4.4866,
      "duration": 0.0631,
      "velocity": 127,
      "chip": "ym2612"
    },
    {
      "channel": 4,
      "note": 51,
      "start": 4.4883,
      "duration": 0.163,
      "velocity": 119,
      "chip": "ym2612"
    },
    {
      "channel": 5,
      "note": 69,
      "start": 4.591,
      "duration": 0.1619,
      "velocity": 103,
      "chip": "ym2612"
    },
    {
      "channel": 2,
      "note": 79,
      "start": 4.6346,
      "duration": 0.1669,
      "velocity": 103,
      "chip": "ym2612"
    },
    {
      "channel": 0,
      "note": 75,
      "start": 4.6841,
      "duration": 0.1671,
      "velocity": 103,
      "chip": "ym2612"
    },
    {
      "channel": 3,
      "note": 61,
      "start": 4.6902,
      "duration": 0.0107,
      "velocity": 119,
      "chip": "ym2612"
    },
    {
      "channel": 3,
      "note": 61,
      "start": 4.7866,
      "duration": 0.0156,
      "velocity": 119,
      "chip": "ym2612"
    },
    {
      "channel": 5,
      "note": 79,
      "start": 4.789,
      "duration": 0.1659,
      "velocity": 103,
      "chip": "ym2612"
    },
    {
      "channel": 2,
      "note": 75,
      "start": 4.8366,
      "duration": 0.1671,
      "velocity": 103,
      "chip": "ym2612"
    },
    {
      "channel": 0,
      "note": 77,
      "start": 4.8863,
      "duration": 0.1671,
      "velocity": 103,
      "chip": "ym2612"
    },
    {
      "channel": 1,
      "note": 51,
      "start": 4.888,
      "duration": 0.1656,
      "velocity": 119,
      "chip": "ym2612"
    },
    {
      "channel": 3,
      "note": 61,
      "start": 4.8934,
      "duration": 0.0599,
      "velocity": 127,
      "chip": "ym2612"
    },
    {
      "channel": 4,
      "note": 51,
      "start": 4.8951,
      "duration": 0.1606,
      "velocity": 119,
      "chip": "ym2612"
    },
    {
      "channel": 5,
      "note": 75,
      "start": 4.9902,
      "duration": 0.1671,
      "velocity": 103,
      "chip": "ym2612"
    },
    {
      "channel": 2,
      "note": 77,
      "start": 5.0388,
      "duration": 0.1671,
      "velocity": 103,
      "chip": "ym2612"
    },
    {
      "channel": 0,
      "note": 73,
      "start": 5.0886,
      "duration": 0.1671,
      "velocity": 103,
      "chip": "ym2612"
    },
    {
      "channel": 1,
      "note": 51,
      "start": 5.0903,
      "duration": 0.1656,
      "velocity": 119,
      "chip": "ym2612"
    },
    {
      "channel": 3,
      "note": 61,
      "start": 5.0957,
      "duration": 0.0098,
      "velocity": 119,
      "chip": "ym2612"
    },
    {
      "channel": 4,
      "note": 51,
      "start": 5.0974,
      "duration": 0.1606,
      "velocity": 119,
      "chip": "ym2612"
    },
    {
      "channel": 3,
      "note": 61,
      "start": 5.1917,
      "duration": 0.015,
      "velocity": 119,
      "chip": "ym2612"
    },
    {
      "channel": 5,
      "note": 77,
      "start": 5.194,
      "duration": 0.1653,
      "velocity": 103,
      "chip": "ym2612"
    },
    {
      "channel": 2,
      "note": 73,
      "start": 5.241,
      "duration": 0.1671,
      "velocity": 103,
      "chip": "ym2612"
    },
    {
      "channel": 0,
      "note": 75,
      "start": 5.2909,
      "duration": 0.1671,
      "velocity": 103,
      "chip": "ym2612"
    },
    {
      "channel": 3,
      "note": 61,
      "start": 5.2973,
      "duration": 0.0606,
      "velocity": 127,
      "chip": "ym2612"
    },
    {
      "channel": 5,
      "note": 73,
      "start": 5.3947,
      "duration": 0.1668,
      "velocity": 103,
      "chip": "ym2612"
    },
    {
      "channel": 2,
      "note": 75,
      "start": 5.4433,
      "duration": 0.1671,
      "velocity": 103,
      "chip": "ym2612"
    },
    {
      "channel": 0,
      "note": 71,
      "start": 5.4931,
      "duration": 0.1671,
      "velocity": 103,
      "chip": "ym2612"
    },
    {
      "channel": 3,
      "note": 61,
      "start": 5.496,
      "duration": 0.0641,
      "velocity": 127,
      "chip": "ym2612"
    },
    {
      "channel": 5,
      "note": 75,
      "start": 5.5975,
      "duration": 0.1833,
      "velocity": 103,
      "chip": "ym2612"
    },
    {
      "channel": 2,
      "note": 71,
      "start": 5.6456,
      "duration": 0.184,
      "velocity": 103,
      "chip": "ym2612"
    },
    {
      "channel": 0,
      "note": 69,
      "start": 5.7004,
      "duration": 0.1794,
      "velocity": 103,
      "chip": "ym2612"
    },
    {
      "channel": 1,
      "note": 43,
      "start": 5.7023,
      "duration": 1.5928,
      "velocity": 119,
      "chip": "ym2612"
    },
    {
      "channel": 3,
      "note": 61,
      "start": 5.708,
      "duration": 0.0712,
      "velocity": 127,
      "chip": "ym2612"
    },
    {
      "channel": 4,
      "note": 43,
      "start": 5.71,
      "duration": 1.5861,
      "velocity": 119,
      "chip": "ym2612"
    },
    {
      "channel": 5,
      "note": 71,
      "start": 5.8169,
      "duration": 0.1671,
      "velocity": 103,
      "chip": "ym2612"
    },
    {
      "channel": 2,
      "note": 69,
      "start": 5.8698,
      "duration": 0.1628,
      "velocity": 103,
      "chip": "ym2612"
    },
    {
      "channel": 0,
      "note": 79,
      "start": 5.9144,
      "duration": 0.1679,
      "velocity": 103,
      "chip": "ym2612"
    },
    {
      "channel": 5,
      "note": 69,
      "start": 6.0236,
      "duration": 0.1618,
      "velocity": 103,
      "chip": "ym2612"
    },
    {
      "channel": 2,
      "note": 79,
      "start": 6.0677,
      "duration": 0.1663,
      "velocity": 103,
      "chip": "ym2612"
    },
    {
      "channel": 0,
      "note": 75,
      "start": 6.1171,
      "duration": 0.1668,
      "velocity": 103,
      "chip": "ym2612"
    },
    {
      "channel": 3,
      "note": 61,
      "start": 6.1232,
      "duration": 0.0106,
      "velocity": 119,
      "chip": "ym2612"
    },
    {
      "channel": 5,
      "note": 79,
      "start": 6.2206,
      "duration": 0.1667,
      "velocity": 103,
      "chip": "ym2612"
    },
    {
      "channel": 2,
      "note": 75,
      "start": 6.2691,
      "duration": 0.1671,
      "velocity": 103,
      "chip": "ym2612"
    },
    {
      "channel": 0,
      "note": 77,
      "start": 6.3188,
      "duration": 0.1671,
      "velocity": 103,
      "chip": "ym2612"
    },
    {
      "channel": 3,
      "note": 61,
      "start": 6.3218,
      "duration": 0.1653,
      "velocity": 119,
      "chip": "ym2612"
    },
    {
      "channel": 5,
      "note": 75,
      "start": 6.4224,
      "duration": 0.1673,
      "velocity": 103,
      "chip": "ym2612"
    },
    {
      "channel": 2,
      "note": 77,
      "start": 6.4714,
      "duration": 0.1671,
      "velocity": 103,
      "chip": "ym2612"
    },
    {
      "channel": 0,
      "note": 73,
      "start": 6.5211,
      "duration": 0.1671,
      "velocity": 103,
      "chip": "ym2612"
    },
    {
      "channel": 3,
      "note": 61,
      "start": 6.5273,
      "duration": 0.0608,
      "velocity": 127,
      "chip": "ym2612"
    },
    {
      "channel": 5,
      "note": 77,
      "start": 6.6251,
      "duration": 0.1653,
      "velocity": 103,
      "chip": "ym2612"
    },
    {
      "channel": 2,
      "note": 73,
      "start": 6.6736,
      "duration": 0.1665,
      "velocity": 103,
      "chip": "ym2612"
    },
    {
      "channel": 0,
      "note": 75,
      "start": 6.7234,
      "duration": 0.1671,
      "velocity": 103,
      "chip": "ym2612"
    },
    {
      "channel": 5,
      "note": 73,
      "start": 6.8255,
      "duration": 0.1671,
      "velocity": 103,
      "chip": "ym2612"
    },
    {
      "channel": 2,
      "note": 75,
      "start": 6.8753,
      "duration": 0.167,
      "velocity": 103,
      "chip": "ym2612"
    },
    {
      "channel": 0,
      "note": 71,
      "start": 6.9256,
      "duration": 0.1671,
      "velocity": 103,
      "chip": "ym2612"
    },
    {
      "channel": 3,
      "note": 61,
      "start": 6.9311,
      "duration": 0.0107,
      "velocity": 119,
      "chip": "ym2612"
    },
    {
      "channel": 5,
      "note": 75,
      "start": 7.0277,
      "duration": 0.1669,
      "velocity": 103,
      "chip": "ym2612"
    },
    {
      "channel": 2,
      "note": 71,
      "start": 7.0775,
      "duration": 0.1671,
      "velocity": 103,
      "chip": "ym2612"
    },
    {
      "channel": 0,
      "note": 69,
      "start": 7.133,
      "duration": 0.162,
      "velocity": 103,
      "chip": "ym2612"
    },
    {
      "channel": 3,
      "note": 61,
      "start": 7.1385,
      "duration": 0.0557,
      "velocity": 127,
      "chip": "ym2612"
    },
    {
      "channel": 5,
      "note": 71,
      "start": 7.2299,
      "duration": 0.1669,
      "velocity": 103,
      "chip": "ym2612"
    },
    {
      "channel": 2,
      "note": 69,
      "start": 7.2849,
      "duration": 0.162,
      "velocity": 103,
      "chip": "ym2612"
    },
    {
      "channel": 0,
      "note": 79,
      "start": 7.3301,
      "duration": 0.1671,
      "velocity": 103,
      "chip": "ym2612"
    },
    {
      "channel": 1,
      "note": 43,
      "start": 7.3326,
      "duration": 0.1648,
      "velocity": 119,
      "chip": "ym2612"
    },
    {
      "channel": 3,
      "note": 61,
      "start": 7.3348,
      "duration": 0.0617,
      "velocity": 127,
      "chip": "ym2612"
    },
    {
      "channel": 4,
      "note": 43,
      "start": 7.3365,
      "duration": 0.1626,
      "velocity": 119,
      "chip": "ym2612"
    },
    {
      "channel": 5,
      "note": 69,
      "start": 7.4374,
      "duration": 0.1625,
      "velocity": 103,
      "chip": "ym2612"
    },
    {
      "channel": 2,
      "note": 79,
      "start": 7.4828,
      "duration": 0.1664,
      "velocity": 103,
      "chip": "ym2612"
    },
    {
      "channel": 0,
      "note": 75,
      "start": 7.5332,
      "duration": 0.1663,
      "velocity": 103,
      "chip": "ym2612"
    },
    {
      "channel": 3,
      "note": 61,
      "start": 7.5387,
      "duration": 0.0112,
      "velocity": 119,
      "chip": "ym2612"
    },
    {
      "channel": 3,
      "note": 61,
      "start": 7.6345,
      "duration": 0.0155,
      "velocity": 119,
      "chip": "ym2612"
    },
    {
      "channel": 5,
      "note": 79,
      "start": 7.6362,
      "duration": 0.1651,
      "velocity": 103,
      "chip": "ym2612"
    },
    {
      "channel": 2,
      "note": 75,
      "start": 7.6842,
      "duration": 0.1671,
      "velocity": 103,
      "chip": "ym2612"
    },
    {
      "channel": 0,
      "note": 77,
      "start": 7.7346,
      "duration": 0.1671,
      "velocity": 103,
      "chip": "ym2612"
    },
    {
      "channel": 1,
      "note": 43,
      "start": 7.7362,
      "duration": 0.1656,
      "velocity": 119,
      "chip": "ym2612"
    },
    {
      "channel": 3,
      "note": 61,
      "start": 7.7416,
      "duration": 0.0593,
      "velocity": 127,
      "chip": "ym2612"
    },
    {
      "channel": 4,
      "note": 43,
      "start": 7.7433,
      "duration": 0.1595,
      "velocity": 119,
      "chip": "ym2612"
    },
    {
      "channel": 5,
      "note": 75,
      "start": 7.8374,
      "duration": 0.1663,
      "velocity": 103,
      "chip": "ym2612"
    },
    {
      "channel": 2,
      "note": 77,
      "start": 7.8865,
      "duration": 0.1671,
      "velocity": 103,
      "chip": "ym2612"
    },
    {
      "channel": 0,
      "note": 73,
      "start": 7.9368,
      "duration": 0.1671,
      "velocity": 103,
      "chip": "ym2612"
    },
    {
      "channel": 1,
      "note": 43,
      "start": 7.9385,
      "duration": 0.1656,
      "velocity": 119,
      "chip": "ym2612"
    },
    {
      "channel": 3,
      "note": 61,
      "start": 7.9439,
      "duration": 0.0093,
      "velocity": 119,
      "chip": "ym2612"
    },
    {
      "channel": 4,
      "note": 43,
      "start": 7.9456,
      "duration": 0.1594,
      "velocity": 119,
      "chip": "ym2612"
    },
    {
      "channel": 3,
      "note": 61,
      "start": 8.0387,
      "duration": 0.0156,
      "velocity": 119,
      "chip": "ym2612"
    },
    {
      "channel": 5,
      "note": 77,
      "start": 8.0404,
      "duration": 0.1651,
      "velocity": 103,
      "chip": "ym2612"
    },
    {
      "channel": 2,
      "note": 73,
      "start": 8.0887,
      "duration": 0.1671,
      "velocity": 103,
      "chip": "ym2612"
    },
    {
      "channel": 0,
      "note": 75,
      "start": 8.1391,
      "duration": 0.1671,
      "velocity": 103,
      "chip": "ym2612"
    },
    {
      "channel": 3,
      "note": 61,
      "start": 8.1417,
      "duration": 0.165,
      "velocity": 119,
      "chip": "ym2612"
    },
    {
      "channel": 5,
      "note": 73,
      "start": 8.2411,
      "duration": 0.1669,
      "velocity": 103,
      "chip": "ym2612"
    },
    {
      "channel": 2,
      "note": 75,
      "start": 8.291,
      "duration": 0.167,
      "velocity": 103,
      "chip": "ym2612"
    },
    {
      "channel": 0,
      "note": 71,
      "start": 8.3413,
      "duration": 0.1671,
      "velocity": 103,
      "chip": "ym2612"
    },
    {
      "channel": 3,
      "note": 61,
      "start": 8.3468,
      "duration": 0.0608,
      "velocity": 127,
      "chip": "ym2612"
    },
    {
      "channel": 5,
      "note": 75,
      "start": 8.4434,
      "duration": 0.1837,
      "velocity": 103,
      "chip": "ym2612"
    },
    {
      "channel": 2,
      "note": 71,
      "start": 8.4932,
      "duration": 0.1839,
      "velocity": 103,
      "chip": "ym2612"
    },
    {
      "channel": 0,
      "note": 69,
      "start": 8.5478,
      "duration": 0.1797,
      "velocity": 103,
      "chip": "ym2612"
    },
    {
      "channel": 1,
      "note": 49,
      "start": 8.5504,
      "duration": 1.593,
      "velocity": 119,
      "chip": "ym2612"
    },
    {
      "channel": 3,
      "note": 61,
      "start": 8.5561,
      "duration": 0.0707,
      "velocity": 127,
      "chip": "ym2612"
    },
    {
      "channel": 4,
      "note": 49,
      "start": 8.5578,
      "duration": 1.5865,
      "velocity": 119,
      "chip": "ym2612"
    },
    {
      "channel": 5,
      "note": 71,
      "start": 8.6625,
      "duration": 0.1671,
      "velocity": 103,
      "chip": "ym2612"
    },
    {
      "channel": 2,
      "note": 69,
      "start": 8.7175,
      "duration": 0.162,
      "velocity": 103,
      "chip": "ym2612"
    },
    {
      "channel": 0,
      "note": 79,
      "start": 8.7626,
      "duration": 0.1674,
      "velocity": 103,
      "chip": "ym2612"
    },
    {
      "channel": 5,
      "note": 69,
      "start": 8.87,
      "duration": 0.1627,
      "velocity": 103,
      "chip": "ym2612"
    },
    {
      "channel": 2,
      "note": 79,
      "start": 8.9145,
      "duration": 0.168,
      "velocity": 103,
      "chip": "ym2612"
    },
    {
      "channel": 0,
      "note": 75,
      "start": 8.9657,
      "duration": 0.1665,
      "velocity": 103,
      "chip": "ym2612"
    },
    {
      "channel": 3,
      "note": 61,
      "start": 8.9712,
      "duration": 0.0099,
      "velocity": 119,
      "chip": "ym2612"
    },
    {
      "channel": 5,
      "note": 79,
      "start": 9.0679,
      "duration": 0.1657,
      "velocity": 103,
      "chip": "ym2612"
    },
    {
      "channel": 2,
      "note": 75,
      "start": 9.1173,
      "duration": 0.1666,
      "velocity": 103,
      "chip": "ym2612"
    },
    {
      "channel": 0,
      "note": 77,
      "start": 9.1671,
      "duration": 0.1672,
      "velocity": 103,
      "chip": "ym2612"
    },
    {
      "channel": 3,
      "note": 61,
      "start": 9.1695,
      "duration": 0.1654,
      "velocity": 119,
      "chip": "ym2612"
    },
    {
      "channel": 5,
      "note": 75,
      "start": 9.2688,
      "duration": 0.1673,
      "velocity": 103,
      "chip": "ym2612"
    },
    {
      "channel": 2,
      "note": 77,
      "start": 9.319,
      "duration": 0.1671,
      "velocity": 103,
      "chip": "ym2612"
    },
    {
      "channel": 0,
      "note": 73,
      "start": 9.3694,
      "duration": 0.1671,
      "velocity": 103,
      "chip": "ym2612"
    },
    {
      "channel": 3,
      "note": 61,
      "start": 9.3749,
      "duration": 0.0609,
      "velocity": 127,
      "chip": "ym2612"
    },
    {
      "channel": 5,
      "note": 77,
      "start": 9.4715,
      "duration": 0.1671,
      "velocity": 103,
      "chip": "ym2612"
    },
    {
      "channel": 2,
      "note": 73,
      "start": 9.5213,
      "duration": 0.1671,
      "velocity": 103,
      "chip": "ym2612"
    },
    {
      "channel": 0,
      "note": 75,
      "start": 9.5716,
      "duration": 0.1671,
      "velocity": 103,
      "chip": "ym2612"
    },
    {
      "channel": 5,
      "note": 73,
      "start": 9.6737,
      "duration": 0.1671,
      "velocity": 103,
      "chip": "ym2612"
    },
    {
      "channel": 2,
      "note": 75,
      "start": 9.7235,
      "duration": 0.1671,
      "velocity": 103,
      "chip": "ym2612"
    },
    {
      "channel": 0,
      "note": 71,
      "start": 9.7739,
      "duration": 0.1671,
      "velocity": 103,
      "chip": "ym2612"
    },
    {
      "channel": 3,
      "note": 61,
      "start": 9.7793,
      "duration": 0.0107,
      "velocity": 119,
      "chip": "ym2612"
    },
    {
      "channel": 5,
      "note": 75,
      "start": 9.8759,
      "duration": 0.1668,
      "velocity": 103,
      "chip": "ym2612"
    },
    {
      "channel": 2,
      "note": 71,
      "start": 9.9257,
      "duration": 0.1671,
      "velocity": 103,
      "chip": "ym2612"
    },
    {
      "channel": 0,
      "note": 69,
      "start": 9.9804,
      "duration": 0.1628,
      "velocity": 103,
      "chip": "ym2612"
    },
    {
      "channel": 3,
      "note": 61,
      "start": 9.9867,
      "duration": 0.0557,
      "velocity": 127,
      "chip": "ym2612"
    },
    {
      "channel": 5,
      "note": 71,
      "start": 10.0781,
      "duration": 0.1668,
      "velocity": 103,
      "chip": "ym2612"
    },
    {
      "channel": 2,
      "note": 69,
      "start": 10.1332,
      "duration": 0.1619,
      "velocity": 103,
      "chip": "ym2612"
    },
    {
      "channel": 0,
      "note": 79,
      "start": 10.1783,
      "duration": 0.1671,
      "velocity": 103,
      "chip": "ym2612"
    },
    {
      "channel": 1,
      "note": 49,
      "start": 10.18,
      "duration": 0.1656,
      "velocity": 119,
      "chip": "ym2612"
    },
    {
      "channel": 3,
      "note": 61,
      "start": 10.183,
      "duration": 0.0616,
      "velocity": 127,
      "chip": "ym2612"
    },
    {
      "channel": 4,
      "note": 49,
      "start": 10.1847,
      "duration": 0.1618,
      "velocity": 119,
      "chip": "ym2612"
    },
    {
      "channel": 5,
      "note": 69,
      "start": 10.2857,
      "duration": 0.1618,
      "velocity": 103,
      "chip": "ym2612"
    },
    {
      "channel": 2,
      "note": 79,
      "start": 10.3302,
      "duration": 0.1671,
      "velocity": 103,
      "chip": "ym2612"
    },
    {
      "channel": 0,
      "note": 75,
      "start": 10.3805,
      "duration": 0.1671,
      "velocity": 103,
      "chip": "ym2612"
    },
    {
      "channel": 3,
      "note": 61,
      "start": 10.3869,
      "duration": 0.0099,
      "velocity": 119,
      "chip": "ym2612"
    },
    {
      "channel": 3,
      "note": 61,
      "start": 10.4833,
      "duration": 0.0156,
      "velocity": 119,
      "chip": "ym2612"
    },
    {
      "channel": 5,
      "note": 79,
      "start": 10.485,
      "duration": 0.1646,
      "velocity": 103,
      "chip": "ym2612"
    },
    {
      "channel": 2,
      "note": 75,
      "start": 10.5333,
      "duration": 0.1663,
      "velocity": 103,
      "chip": "ym2612"
    },
    {
      "channel": 0,
      "note": 77,
      "start": 10.5837,
      "duration": 0.1661,
      "velocity": 103,
      "chip": "ym2612"
    },
    {
      "channel": 1,
      "note": 49,
      "start": 10.5854,
      "duration": 0.1647,
      "velocity": 119,
      "chip": "ym2612"
    },
    {
      "channel": 3,
      "note": 61,
      "start": 10.5908,
      "duration": 0.0586,
      "velocity": 127,
      "chip": "ym2612"
    },
    {
      "channel": 4,
      "note": 49,
      "start": 10.5925,
      "duration": 0.1584,
      "velocity": 119,
      "chip": "ym2612"
    },
    {
      "channel": 5,
      "note": 75,
      "start": 10.6849,
      "duration": 0.1671,
      "velocity": 103,
      "chip": "ym2612"
    },
    {
      "channel": 2,
      "note": 77,
      "start": 10.7347,
      "duration": 0.1671,
      "velocity": 103,
      "chip": "ym2612"
    },
    {
      "channel": 0,
      "note": 73,
      "start": 10.7851,
      "duration": 0.167,
      "velocity": 103,
      "chip": "ym2612"
    },
    {
      "channel": 1,
      "note": 49,
      "start": 10.7867,
      "duration": 0.1656,
      "velocity": 119,
      "chip": "ym2612"
    },
    {
      "channel": 3,
      "note": 61,
      "start": 10.7921,
      "duration": 0.0092,
      "velocity": 119,
      "chip": "ym2612"
    },
    {
      "channel": 4,
      "note": 49,
      "start": 10.7938,
      "duration": 0.1594,
      "velocity": 119,
      "chip": "ym2612"
    },
    {
      "channel": 3,
      "note": 61,
      "start": 10.8874,
      "duration": 0.0151,
      "velocity": 119,
      "chip": "ym2612"
    },
    {
      "channel": 5,
      "note": 77,
      "start": 10.8892,
      "duration": 0.1652,
      "velocity": 103,
      "chip": "ym2612"
    },
    {
      "channel": 2,
      "note": 73,
      "start": 10.9369,
      "duration": 0.1671,
      "velocity": 103,
      "chip": "ym2612"
    },
    {
      "channel": 0,
      "note": 75,
      "start": 10.9873,
      "duration": 0.1671,
      "velocity": 103,
      "chip": "ym2612"
    },
    {
      "channel": 3,
      "note": 76,
      "start": 10.9933,
      "duration": 0.0102,
      "velocity": 112,
      "chip": "ym2612"
    },
    {
      "channel": 3,
      "note": 76,
      "start": 11.0386,
      "duration": 0.0155,
      "velocity": 112,
      "chip": "ym2612"
    },
    {
      "channel": 3,
      "note": 76,
      "start": 11.0892,
      "duration": 0.0156,
      "velocity": 112,
      "chip": "ym2612"
    },
    {
      "channel": 5,
      "note": 73,
      "start": 11.091,
      "duration": 0.1654,
      "velocity": 103,
      "chip": "ym2612"
    },
    {
      "channel": 2,
      "note": 75,
      "start": 11.1391,
      "duration": 0.1671,
      "velocity": 103,
      "chip": "ym2612"
    },
    {
      "channel": 0,
      "note": 71,
      "start": 11.1895,
      "duration": 0.1671,
      "velocity": 103,
      "chip": "ym2612"
    },
    {
      "channel": 3,
      "note": 71,
      "start": 11.1921,
      "duration": 0.0137,
      "velocity": 112,
      "chip": "ym2612"
    },
    {
      "channel": 3,
      "note": 66,
      "start": 11.292,
      "duration": 0.0151,
      "velocity": 112,
      "chip": "ym2612"
    },
    {
      "channel": 5,
      "note": 75,
      "start": 11.2937,
      "duration": 0.1816,
      "velocity": 103,
      "chip": "ym2612"
    },
    {
      "channel": 2,
      "note": 71,
      "start": 11.3414,
      "duration": 0.1839,
      "velocity": 103,
      "chip": "ym2612"
    },
    {
      "channel": 0,
      "note": 69,
      "start": 11.3961,
      "duration": 0.1802,
      "velocity": 103,
      "chip": "ym2612"
    },
    {
      "channel": 1,
      "note": 45,
      "start": 11.4033,
      "duration": 1.5883,
      "velocity": 119,
      "chip": "ym2612"
    },
    {
      "channel": 3,
      "note": 61,
      "start": 11.4103,
      "duration": 0.0647,
      "velocity": 127,
      "chip": "ym2612"
    },
    {
      "channel": 4,
      "note": 45,
      "start": 11.4176,
      "duration": 1.5749,
      "velocity": 119,
      "chip": "ym2612"
    },
    {
      "channel": 5,
      "note": 71,
      "start": 11.5107,
      "duration": 0.1671,
      "velocity": 103,
      "chip": "ym2612"
    },
    {
      "channel": 2,
      "note": 69,
      "start": 11.5657,
      "duration": 0.162,
      "velocity": 103,
      "chip": "ym2612"
    },
    {
      "channel": 0,
      "note": 79,
      "start": 11.6108,
      "duration": 0.1671,
      "velocity": 103,
      "chip": "ym2612"
    },
    {
      "channel": 5,
      "note": 69,
      "start": 11.7182,
      "duration": 0.1618,
      "velocity": 103,
      "chip": "ym2612"
    },
    {
      "channel": 2,
      "note": 79,
      "start": 11.7627,
      "duration": 0.1671,
      "velocity": 103,
      "chip": "ym2612"
    },
    {
      "channel": 0,
      "note": 75,
      "start": 11.8131,
      "duration": 0.1671,
      "velocity": 103,
      "chip": "ym2612"
    },
    {
      "channel": 3,
      "note": 61,
      "start": 11.8195,
      "duration": 0.0099,
      "velocity": 119,
      "chip": "ym2612"
    },
    {
      "channel": 5,
      "note": 79,
      "start": 11.9161,
      "duration": 0.1667,
      "velocity": 103,
      "chip": "ym2612"
    },
    {
      "channel": 2,
      "note": 75,
      "start": 11.9659,
      "duration": 0.1667,
      "velocity": 103,
      "chip": "ym2612"
    },
    {
      "channel": 0,
      "note": 77,
      "start": 12.0162,
      "duration": 0.1663,
      "velocity": 103,
      "chip": "ym2612"
    },
    {
      "channel": 3,
      "note": 61,
      "start": 12.0185,
      "duration": 0.1644,
      "velocity": 119,
      "chip": "ym2612"
    },
    {
      "channel": 5,
      "note": 75,
      "start": 12.1176,
      "duration": 0.1666,
      "velocity": 103,
      "chip": "ym2612"
    },
    {
      "channel": 2,
      "note": 77,
      "start": 12.1673,
      "duration": 0.167,
      "velocity": 103,
      "chip": "ym2612"
    },
    {
      "channel": 0,
      "note": 73,
      "start": 12.2176,
      "duration": 0.1671,
      "velocity": 103,
      "chip": "ym2612"
    },
    {
      "channel": 3,
      "note": 61,
      "start": 12.2231,
      "duration": 0.0609,
      "velocity": 127,
      "chip": "ym2612"
    },
    {
      "channel": 5,
      "note": 77,
      "start": 12.3197,
      "duration": 0.1671,
      "velocity": 103,
      "chip": "ym2612"
    },
    {
      "channel": 2,
      "note": 73,
      "start": 12.3695,
      "duration": 0.1671,
      "velocity": 103,
      "chip": "ym2612"
    },
    {
      "channel": 0,
      "note": 75,
      "start": 12.4199,
      "duration": 0.1671,
      "velocity": 103,
      "chip": "ym2612"
    },
    {
      "channel": 5,
      "note": 73,
      "start": 12.5219,
      "duration": 0.1671,
      "velocity": 103,
      "chip": "ym2612"
    },
    {
      "channel": 2,
      "note": 75,
      "start": 12.5717,
      "duration": 0.1671,
      "velocity": 103,
      "chip": "ym2612"
    },
    {
      "channel": 0,
      "note": 71,
      "start": 12.6221,
      "duration": 0.1671,
      "velocity": 103,
      "chip": "ym2612"
    },
    {
      "channel": 3,
      "note": 61,
      "start": 12.6276,
      "duration": 0.0107,
      "velocity": 119,
      "chip": "ym2612"
    },
    {
      "channel": 5,
      "note": 75,
      "start": 12.7241,
      "duration": 0.1669,
      "velocity": 103,
      "chip": "ym2612"
    },
    {
      "channel": 2,
      "note": 71,
      "start": 12.7739,
      "duration": 0.1671,
      "velocity": 103,
      "chip": "ym2612"
    },
    {
      "channel": 0,
      "note": 69,
      "start": 12.8286,
      "duration": 0.1628,
      "velocity": 103,
      "chip": "ym2612"
    },
    {
      "channel": 3,
      "note": 61,
      "start": 12.835,
      "duration": 0.0556,
      "velocity": 127,
      "chip": "ym2612"
    },
    {
      "channel": 5,
      "note": 71,
      "start": 12.9264,
      "duration": 0.1668,
      "velocity": 103,
      "chip": "ym2612"
    },
    {
      "channel": 2,
      "note": 69,
      "start": 12.9805,
      "duration": 0.1627,
      "velocity": 103,
      "chip": "ym2612"
    },
    {
      "channel": 0,
      "note": 79,
      "start": 13.0266,
      "duration": 0.1671,
      "velocity": 103,
      "chip": "ym2612"
    },
    {
      "channel": 1,
      "note": 45,
      "start": 13.0282,
      "duration": 0.1656,
      "velocity": 119,
      "chip": "ym2612"
    },
    {
      "channel": 3,
      "note": 61,
      "start": 13.0304,
      "duration": 0.0625,
      "velocity": 127,
      "chip": "ym2612"
    },
    {
      "channel": 4,
      "note": 45,
      "start": 13.0329,
      "duration": 0.1618,
      "velocity": 119,
      "chip": "ym2612"
    },
    {
      "channel": 5,
      "note": 69,
      "start": 13.1339,
      "duration": 0.1618,
      "velocity": 103,
      "chip": "ym2612"
    },
    {
      "channel": 2,
      "note": 79,
      "start": 13.1785,
      "duration": 0.1671,
      "velocity": 103,
      "chip": "ym2612"
    },
    {
      "channel": 0,
      "note": 75,
      "start": 13.2288,
      "duration": 0.1671,
      "velocity": 103,
      "chip": "ym2612"
    },
    {
      "channel": 3,
      "note": 61,
      "start": 13.2351,
      "duration": 0.0103,
      "velocity": 119,
      "chip": "ym2612"
    },
    {
      "channel": 3,
      "note": 61,
      "start": 13.3307,
      "duration": 0.0156,
      "velocity": 119,
      "chip": "ym2612"
    },
    {
      "channel": 5,
      "note": 79,
      "start": 13.3332,
      "duration": 0.1645,
      "velocity": 103,
      "chip": "ym2612"
    },
    {
      "channel": 2,
      "note": 75,
      "start": 13.3807,
      "duration": 0.1671,
      "velocity": 103,
      "chip": "ym2612"
    },
    {
      "channel": 0,
      "note": 77,
      "start": 13.4311,
      "duration": 0.1679,
      "velocity": 103,
      "chip": "ym2612"
    },
    {
      "channel": 1,
      "note": 45,
      "start": 13.4335,
      "duration": 0.1656,
      "velocity": 119,
      "chip": "ym2612"
    },
    {
      "channel": 3,
      "note": 61,
      "start": 13.439,
      "duration": 0.0585,
      "velocity": 127,
      "chip": "ym2612"
    },
    {
      "channel": 4,
      "note": 45,
      "start": 13.4406,
      "duration": 0.1594,
      "velocity": 119,
      "chip": "ym2612"
    },
    {
      "channel": 5,
      "note": 75,
      "start": 13.5348,
      "duration": 0.1654,
      "velocity": 103,
      "chip": "ym2612"
    },
    {
      "channel": 2,
      "note": 77,
      "start": 13.5839,
      "duration": 0.1662,
      "velocity": 103,
      "chip": "ym2612"
    },
    {
      "channel": 0,
      "note": 73,
      "start": 13.6337,
      "duration": 0.1667,
      "velocity": 103,
      "chip": "ym2612"
    },
    {
      "channel": 1,
      "note": 45,
      "start": 13.6354,
      "duration": 0.1652,
      "velocity": 119,
      "chip": "ym2612"
    },
    {
      "channel": 3,
      "note": 61,
      "start": 13.6408,
      "duration": 0.0097,
      "velocity": 119,
      "chip": "ym2612"
    },
    {
      "channel": 4,
      "note": 45,
      "start": 13.6424,
      "duration": 0.159,
      "velocity": 119,
      "chip": "ym2612"
    },
    {
      "channel": 3,
      "note": 61,
      "start": 13.7351,
      "duration": 0.0157,
      "velocity": 119,
      "chip": "ym2612"
    },
    {
      "channel": 5,
      "note": 77,
      "start": 13.7369,
      "duration": 0.1651,
      "velocity": 103,
      "chip": "ym2612"
    },
    {
      "channel": 2,
      "note": 73,
      "start": 13.7852,
      "duration": 0.1671,
      "velocity": 103,
      "chip": "ym2612"
    },
    {
      "channel": 0,
      "note": 75,
      "start": 13.8355,
      "duration": 0.1671,
      "velocity": 103,
      "chip": "ym2612"
    },
    {
      "channel": 3,
      "note": 61,
      "start": 13.8381,
      "duration": 0.165,
      "velocity": 119,
      "chip": "ym2612"
    },
    {
      "channel": 5,
      "note": 73,
      "start": 13.9374,
      "duration": 0.1671,
      "velocity": 103,
      "chip": "ym2612"
    },
    {
      "channel": 2,
      "note": 75,
      "start": 13.9874,
      "duration": 0.1671,
      "velocity": 103,
      "chip": "ym2612"
    },
    {
      "channel": 0,
      "note": 71,
      "start": 14.0378,
      "duration": 0.1671,
      "velocity": 103,
      "chip": "ym2612"
    },
    {
      "channel": 3,
      "note": 61,
      "start": 14.0433,
      "duration": 0.0608,
      "velocity": 127,
      "chip": "ym2612"
    },
    {
      "channel": 5,
      "note": 75,
      "start": 14.1398,
      "duration": 0.1837,
      "velocity": 103,
      "chip": "ym2612"
    },
    {
      "channel": 2,
      "note": 71,
      "start": 14.1897,
      "duration": 0.184,
      "velocity": 103,
      "chip": "ym2612"
    },
    {
      "channel": 0,
      "note": 69,
      "start": 14.2443,
      "duration": 0.1797,
      "velocity": 103,
      "chip": "ym2612"
    },
    {
      "channel": 1,
      "note": 51,
      "start": 14.2459,
      "duration": 1.5939,
      "velocity": 119,
      "chip": "ym2612"
    },
    {
      "channel": 3,
      "note": 61,
      "start": 14.2525,
      "duration": 0.0707,
      "velocity": 127,
      "chip": "ym2612"
    },
    {
      "channel": 4,
      "note": 51,
      "start": 14.2541,
      "duration": 1.5865,
      "velocity": 119,
      "chip": "ym2612"
    },
    {
      "channel": 5,
      "note": 71,
      "start": 14.3589,
      "duration": 0.1671,
      "velocity": 103,
      "chip": "ym2612"
    },
    {
      "channel": 2,
      "note": 69,
      "start": 14.4131,
      "duration": 0.1628,
      "velocity": 103,
      "chip": "ym2612"
    },
    {
      "channel": 0,
      "note": 79,
      "start": 14.4591,
      "duration": 0.1672,
      "velocity": 103,
      "chip": "ym2612"
    },
    {
      "channel": 5,
      "note": 69,
      "start": 14.5664,
      "duration": 0.1618,
      "velocity": 103,
      "chip": "ym2612"
    },
    {
      "channel": 2,
      "note": 79,
      "start": 14.611,
      "duration": 0.1671,
      "velocity": 103,
      "chip": "ym2612"
    },
    {
      "channel": 0,
      "note": 75,
      "start": 14.6613,
      "duration": 0.1671,
      "velocity": 103,
      "chip": "ym2612"
    },
    {
      "channel": 3,
      "note": 61,
      "start": 14.6677,
      "duration": 0.0099,
      "velocity": 119,
      "chip": "ym2612"
    },
    {
      "channel": 5,
      "note": 79,
      "start": 14.7634,
      "duration": 0.1667,
      "velocity": 103,
      "chip": "ym2612"
    },
    {
      "channel": 2,
      "note": 75,
      "start": 14.8132,
      "duration": 0.1671,
      "velocity": 103,
      "chip": "ym2612"
    },
    {
      "channel": 0,
      "note": 77,
      "start": 14.8636,
      "duration": 0.1671,
      "velocity": 103,
      "chip": "ym2612"
    },
    {
      "channel": 3,
      "note": 61,
      "start": 14.8668,
      "duration": 0.1644,
      "velocity": 119,
      "chip": "ym2612"
    },
    {
      "channel": 5,
      "note": 75,
      "start": 14.9661,
      "duration": 0.1668,
      "velocity": 103,
      "chip": "ym2612"
    },
    {
      "channel": 2,
      "note": 77,
      "start": 15.0163,
      "duration": 0.1663,
      "velocity": 103,
      "chip": "ym2612"
    },
    {
      "channel": 0,
      "note": 73,
      "start": 15.0666,
      "duration": 0.1663,
      "velocity": 103,
      "chip": "ym2612"
    },
    {
      "channel": 3,
      "note": 61,
      "start": 15.0722,
      "duration": 0.0606,
      "velocity": 127,
      "chip": "ym2612"
    },
    {
      "channel": 5,
      "note": 77,
      "start": 15.168,
      "duration": 0.167,
      "velocity": 103,
      "chip": "ym2612"
    },
    {
      "channel": 2,
      "note": 73,
      "start": 15.2177,
      "duration": 0.1671,
      "velocity": 103,
      "chip": "ym2612"
    },
    {
      "channel": 0,
      "note": 75,
      "start": 15.2681,
      "duration": 0.1671,
      "velocity": 103,
      "chip": "ym2612"
    },
    {
      "channel": 5,
      "note": 73,
      "start": 15.3701,
      "duration": 0.1671,
      "velocity": 103,
      "chip": "ym2612"
    },
    {
      "channel": 2,
      "note": 75,
      "start": 15.42,
      "duration": 0.1671,
      "velocity": 103,
      "chip": "ym2612"
    },
    {
      "channel": 0,
      "note": 71,
      "start": 15.4703,
      "duration": 0.1671,
      "velocity": 103,
      "chip": "ym2612"
    },
    {
      "channel": 3,
      "note": 61,
      "start": 15.4759,
      "duration": 0.0107,
      "velocity": 119,
      "chip": "ym2612"
    },
    {
      "channel": 5,
      "note": 75,
      "start": 15.5724,
      "duration": 0.1668,
      "velocity": 103,
      "chip": "ym2612"
    },
    {
      "channel": 2,
      "note": 71,
      "start": 15.6222,
      "duration": 0.1671,
      "velocity": 103,
      "chip": "ym2612"
    },
    {
      "channel": 0,
      "note": 69,
      "start": 15.6768,
      "duration": 0.1629,
      "velocity": 103,
      "chip": "ym2612"
    },
    {
      "channel": 3,
      "note": 61,
      "start": 15.6832,
      "duration": 0.0558,
      "velocity": 127,
      "chip": "ym2612"
    },
    {
      "channel": 5,
      "note": 71,
      "start": 15.7746,
      "duration": 0.1668,
      "velocity": 103,
      "chip": "ym2612"
    },
    {
      "channel": 2,
      "note": 69,
      "start": 15.8288,
      "duration": 0.1628,
      "velocity": 103,
      "chip": "ym2612"
    },
    {
      "channel": 0,
      "note": 79,
      "start": 15.8748,
      "duration": 0.1671,
      "velocity": 103,
      "chip": "ym2612"
    },
    {
      "channel": 1,
      "note": 51,
      "start": 15.8765,
      "duration": 0.1656,
      "velocity": 119,
      "chip": "ym2612"
    },
    {
      "channel": 3,
      "note": 61,
      "start": 15.8786,
      "duration": 0.0625,
      "velocity": 127,
      "chip": "ym2612"
    },
    {
      "channel": 4,
      "note": 51,
      "start": 15.8803,
      "duration": 0.1627,
      "velocity": 119,
      "chip": "ym2612"
    },
    {
      "channel": 5,
      "note": 69,
      "start": 15.9822,
      "duration": 0.1618,
      "velocity": 103,
      "chip": "ym2612"
    },
    {
      "channel": 2,
      "note": 79,
      "start": 16.0267,
      "duration": 0.1671,
      "velocity": 103,
      "chip": "ym2612"
    },
    {
      "channel": 0,
      "note": 75,
      "start": 16.0771,
      "duration": 0.1671,
      "velocity": 103,
      "chip": "ym2612"
    },
    {
      "channel": 3,
      "note": 61,
      "start": 16.0834,
      "duration": 0.0099,
      "velocity": 119,
      "chip": "ym2612"
    },
    {
      "channel": 3,
      "note": 61,
      "start": 16.1797,
      "duration": 0.0149,
      "velocity": 119,
      "chip": "ym2612"
    },
    {
      "channel": 5,
      "note": 79,
      "start": 16.1822,
      "duration": 0.1637,
      "velocity": 103,
      "chip": "ym2612"
    },
    {
      "channel": 2,
      "note": 75,
      "start": 16.2289,
      "duration": 0.1671,
      "velocity": 103,
      "chip": "ym2612"
    },
    {
      "channel": 0,
      "note": 77,
      "start": 16.2793,
      "duration": 0.1671,
      "velocity": 103,
      "chip": "ym2612"
    },
    {
      "channel": 1,
      "note": 51,
      "start": 16.2809,
      "duration": 0.1656,
      "velocity": 119,
      "chip": "ym2612"
    },
    {
      "channel": 3,
      "note": 61,
      "start": 16.2872,
      "duration": 0.0585,
      "velocity": 127,
      "chip": "ym2612"
    },
    {
      "channel": 4,
      "note": 51,
      "start": 16.2889,
      "duration": 0.1585,
      "velocity": 119,
      "chip": "ym2612"
    },
    {
      "channel": 5,
      "note": 75,
      "start": 16.3822,
      "duration": 0.1671,
      "velocity": 103,
      "chip": "ym2612"
    },
    {
      "channel": 2,
      "note": 77,
      "start": 16.4311,
      "duration": 0.168,
      "velocity": 103,
      "chip": "ym2612"
    },
    {
      "channel": 0,
      "note": 73,
      "start": 16.4823,
      "duration": 0.1667,
      "velocity": 103,
      "chip": "ym2612"
    },
    {
      "channel": 1,
      "note": 51,
      "start": 16.484,
      "duration": 0.1652,
      "velocity": 119,
      "chip": "ym2612"
    },
    {
      "channel": 3,
      "note": 61,
      "start": 16.4894,
      "duration": 0.0084,
      "velocity": 119,
      "chip": "ym2612"
    },
    {
      "channel": 4,
      "note": 51,
      "start": 16.491,
      "duration": 0.159,
      "velocity": 119,
      "chip": "ym2612"
    },
    {
      "channel": 3,
      "note": 61,
      "start": 16.5846,
      "duration": 0.0153,
      "velocity": 119,
      "chip": "ym2612"
    },
    {
      "channel": 5,
      "note": 77,
      "start": 16.5863,
      "duration": 0.1641,
      "velocity": 103,
      "chip": "ym2612"
    },
    {
      "channel": 2,
      "note": 73,
      "start": 16.6339,
      "duration": 0.1666,
      "velocity": 103,
      "chip": "ym2612"
    },
    {
      "channel": 0,
      "note": 75,
      "start": 16.6837,
      "duration": 0.1671,
      "velocity": 103,
      "chip": "ym2612"
    },
    {
      "channel": 3,
      "note": 61,
      "start": 16.6896,
      "duration": 0.0605,
      "velocity": 127,
      "chip": "ym2612"
    },
    {
      "channel": 5,
      "note": 73,
      "start": 16.7858,
      "duration": 0.1669,
      "velocity": 103,
      "chip": "ym2612"
    },
    {
      "channel": 2,
      "note": 75,
      "start": 16.8356,
      "duration": 0.1671,
      "velocity": 103,
      "chip": "ym2612"
    },
    {
      "channel": 0,
      "note": 71,
      "start": 16.886,
      "duration": 0.1671,
      "velocity": 103,
      "chip": "ym2612"
    },
    {
      "channel": 3,
      "note": 61,
      "start": 16.8883,
      "duration": 0.0641,
      "velocity": 127,
      "chip": "ym2612"
    },
    {
      "channel": 5,
      "note": 75,
      "start": 16.9883,
      "duration": 0.1835,
      "velocity": 103,
      "chip": "ym2612"
    },
    {
      "channel": 2,
      "note": 71,
      "start": 17.0379,
      "duration": 0.184,
      "velocity": 103,
      "chip": "ym2612"
    },
    {
      "channel": 0,
      "note": 69,
      "start": 17.0925,
      "duration": 0.1799,
      "velocity": 103,
      "chip": "ym2612"
    },
    {
      "channel": 1,
      "note": 43,
      "start": 17.0944,
      "duration": 1.5936,
      "velocity": 119,
      "chip": "ym2612"
    },
    {
      "channel": 3,
      "note": 61,
      "start": 17.101,
      "duration": 0.0705,
      "velocity": 127,
      "chip": "ym2612"
    },
    {
      "channel": 4,
      "note": 43,
      "start": 17.1029,
      "duration": 1.5861,
      "velocity": 119,
      "chip": "ym2612"
    },
    {
      "channel": 5,
      "note": 71,
      "start": 17.2071,
      "duration": 0.1671,
      "velocity": 103,
      "chip": "ym2612"
    },
    {
      "channel": 2,
      "note": 69,
      "start": 17.2613,
      "duration": 0.1627,
      "velocity": 103,
      "chip": "ym2612"
    },
    {
      "channel": 0,
      "note": 79,
      "start": 17.3073,
      "duration": 0.1671,
      "velocity": 103,
      "chip": "ym2612"
    },
    {
      "channel": 5,
      "note": 69,
      "start": 17.4138,
      "duration": 0.1627,
      "velocity": 103,
      "chip": "ym2612"
    },
    {
      "channel": 2,
      "note": 79,
      "start": 17.4593,
      "duration": 0.167,
      "velocity": 103,
      "chip": "ym2612"
    },
    {
      "channel": 0,
      "note": 75,
      "start": 17.5096,
      "duration": 0.1671,
      "velocity": 103,
      "chip": "ym2612"
    },
    {
      "channel": 3,
      "note": 61,
      "start": 17.5159,
      "duration": 0.0099,
      "velocity": 119,
      "chip": "ym2612"
    },
    {
      "channel": 5,
      "note": 79,
      "start": 17.6117,
      "duration": 0.1667,
      "velocity": 103,
      "chip": "ym2612"
    },
    {
      "channel": 2,
      "note": 75,
      "start": 17.6615,
      "duration": 0.1671,
      "velocity": 103,
      "chip": "ym2612"
    },
    {
      "channel": 0,
      "note": 77,
      "start": 17.7118,
      "duration": 0.1671,
      "velocity": 103,
      "chip": "ym2612"
    },
    {
      "channel": 3,
      "note": 61,
      "start": 17.7141,
      "duration": 0.1653,
      "velocity": 119,
      "chip": "ym2612"
    },
    {
      "channel": 5,
      "note": 75,
      "start": 17.8135,
      "duration": 0.1672,
      "velocity": 103,
      "chip": "ym2612"
    },
    {
      "channel": 2,
      "note": 77,
      "start": 17.8637,
      "duration": 0.1671,
      "velocity": 103,
      "chip": "ym2612"
    },
    {
      "channel": 0,
      "note": 73,
      "start": 17.9141,
      "duration": 0.1671,
      "velocity": 103,
      "chip": "ym2612"
    },
    {
      "channel": 3,
      "note": 61,
      "start": 17.9204,
      "duration": 0.06,
      "velocity": 127,
      "chip": "ym2612"
    },
    {
      "channel": 5,
      "note": 77,
      "start": 18.0171,
      "duration": 0.1662,
      "velocity": 103,
      "chip": "ym2612"
    },
    {
      "channel": 2,
      "note": 73,
      "start": 18.0668,
      "duration": 0.1662,
      "velocity": 103,
      "chip": "ym2612"
    },
    {
      "channel": 0,
      "note": 75,
      "start": 18.1171,
      "duration": 0.1663,
      "velocity": 103,
      "chip": "ym2612"
    },
    {
      "channel": 5,
      "note": 73,
      "start": 18.2184,
      "duration": 0.167,
      "velocity": 103,
      "chip": "ym2612"
    },
    {
      "channel": 2,
      "note": 75,
      "start": 18.2682,
      "duration": 0.1671,
      "velocity": 103,
      "chip": "ym2612"
    },
    {
      "channel": 0,
      "note": 71,
      "start": 18.3185,
      "duration": 0.1671,
      "velocity": 103,
      "chip": "ym2612"
    },
    {
      "channel": 3,
      "note": 61,
      "start": 18.3241,
      "duration": 0.0107,
      "velocity": 119,
      "chip": "ym2612"
    },
    {
      "channel": 5,
      "note": 75,
      "start": 18.4206,
      "duration": 0.1668,
      "velocity": 103,
      "chip": "ym2612"
    },
    {
      "channel": 2,
      "note": 71,
      "start": 18.4704,
      "duration": 0.1671,
      "velocity": 103,
      "chip": "ym2612"
    },
    {
      "channel": 0,
      "note": 69,
      "start": 18.5251,
      "duration": 0.1628,
      "velocity": 103,
      "chip": "ym2612"
    },
    {
      "channel": 3,
      "note": 61,
      "start": 18.5306,
      "duration": 0.0566,
      "velocity": 127,
      "chip": "ym2612"
    },
    {
      "channel": 5,
      "note": 71,
      "start": 18.6229,
      "duration": 0.1668,
      "velocity": 103,
      "chip": "ym2612"
    },
    {
      "channel": 2,
      "note": 69,
      "start": 18.677,
      "duration": 0.1628,
      "velocity": 103,
      "chip": "ym2612"
    },
    {
      "channel": 0,
      "note": 79,
      "start": 18.723,
      "duration": 0.1671,
      "velocity": 103,
      "chip": "ym2612"
    },
    {
      "channel": 1,
      "note": 43,
      "start": 18.7247,
      "duration": 0.1656,
      "velocity": 119,
      "chip": "ym2612"
    },
    {
      "channel": 3,
      "note": 61,
      "start": 18.7269,
      "duration": 0.0624,
      "velocity": 127,
      "chip": "ym2612"
    },
    {
      "channel": 4,
      "note": 43,
      "start": 18.7286,
      "duration": 0.1626,
      "velocity": 119,
      "chip": "ym2612"
    },
    {
      "channel": 5,
      "note": 69,
      "start": 18.8295,
      "duration": 0.1627,
      "velocity": 103,
      "chip": "ym2612"
    },
    {
      "channel": 2,
      "note": 79,
      "start": 18.8749,
      "duration": 0.1671,
      "velocity": 103,
      "chip": "ym2612"
    },
    {
      "channel": 0,
      "note": 75,
      "start": 18.9253,
      "duration": 0.1671,
      "velocity": 103,
      "chip": "ym2612"
    },
    {
      "channel": 3,
      "note": 61,
      "start": 18.9308,
      "duration": 0.0109,
      "velocity": 119,
      "chip": "ym2612"
    },
    {
      "channel": 3,
      "note": 61,
      "start": 19.0271,
      "duration": 0.0156,
      "velocity": 119,
      "chip": "ym2612"
    },
    {
      "channel": 5,
      "note": 79,
      "start": 19.0289,
      "duration": 0.1653,
      "velocity": 103,
      "chip": "ym2612"
    },
    {
      "channel": 2,
      "note": 75,
      "start": 19.0772,
      "duration": 0.1671,
      "velocity": 103,
      "chip": "ym2612"
    },
    {
      "channel": 0,
      "note": 77,
      "start": 19.1275,
      "duration": 0.1671,
      "velocity": 103,
      "chip": "ym2612"
    },
    {
      "channel": 1,
      "note": 43,
      "start": 19.1292,
      "duration": 0.1656,
      "velocity": 119,
      "chip": "ym2612"
    },
    {
      "channel": 3,
      "note": 61,
      "start": 19.1354,
      "duration": 0.0585,
      "velocity": 127,
      "chip": "ym2612"
    },
    {
      "channel": 4,
      "note": 43,
      "start": 19.1371,
      "duration": 0.1585,
      "velocity": 119,
      "chip": "ym2612"
    },
    {
      "channel": 5,
      "note": 75,
      "start": 19.2301,
      "duration": 0.1666,
      "velocity": 103,
      "chip": "ym2612"
    },
    {
      "channel": 2,
      "note": 77,
      "start": 19.2794,
      "duration": 0.1671,
      "velocity": 103,
      "chip": "ym2612"
    },
    {
      "channel": 0,
      "note": 73,
      "start": 19.3298,
      "duration": 0.1671,
      "velocity": 103,
      "chip": "ym2612"
    },
    {
      "channel": 1,
      "note": 43,
      "start": 19.3323,
      "duration": 0.1648,
      "velocity": 119,
      "chip": "ym2612"
    },
    {
      "channel": 3,
      "note": 61,
      "start": 19.3377,
      "duration": 0.0083,
      "velocity": 119,
      "chip": "ym2612"
    },
    {
      "channel": 4,
      "note": 43,
      "start": 19.3393,
      "duration": 0.1586,
      "velocity": 119,
      "chip": "ym2612"
    },
    {
      "channel": 3,
      "note": 61,
      "start": 19.4325,
      "duration": 0.0147,
      "velocity": 119,
      "chip": "ym2612"
    },
    {
      "channel": 5,
      "note": 77,
      "start": 19.4342,
      "duration": 0.1651,
      "velocity": 103,
      "chip": "ym2612"
    },
    {
      "channel": 2,
      "note": 73,
      "start": 19.4825,
      "duration": 0.1667,
      "velocity": 103,
      "chip": "ym2612"
    },
    {
      "channel": 0,
      "note": 75,
      "start": 19.5328,
      "duration": 0.1662,
      "velocity": 103,
      "chip": "ym2612"
    },
    {
      "channel": 3,
      "note": 61,
      "start": 19.5354,
      "duration": 0.1641,
      "velocity": 119,
      "chip": "ym2612"
    },
    {
      "channel": 5,
      "note": 73,
      "start": 19.6346,
      "duration": 0.1663,
      "velocity": 103,
      "chip": "ym2612"
    },
    {
      "channel": 2,
      "note": 75,
      "start": 19.684,
      "duration": 0.167,
      "velocity": 103,
      "chip": "ym2612"
    },
    {
      "channel": 0,
      "note": 71,
      "start": 19.7342,
      "duration": 0.1671,
      "velocity": 103,
      "chip": "ym2612"
    },
    {
      "channel": 3,
      "note": 61,
      "start": 19.7398,
      "duration": 0.0609,
      "velocity": 127,
      "chip": "ym2612"
    },
    {
      "channel": 5,
      "note": 75,
      "start": 19.8363,
      "duration": 0.1837,
      "velocity": 103,
      "chip": "ym2612"
    },
    {
      "channel": 2,
      "note": 71,
      "start": 19.8861,
      "duration": 0.1839,
      "velocity": 103,
      "chip": "ym2612"
    },
    {
      "channel": 0,
      "note": 69,
      "start": 19.9407,
      "duration": 0.1797,
      "velocity": 103,
      "chip": "ym2612"
    },
    {
      "channel": 1,
      "note": 49,
      "start": 19.9424,
      "duration": 1.5938,
      "velocity": 119,
      "chip": "ym2612"
    },
    {
      "channel": 3,
      "note": 61,
      "start": 19.9489,
      "duration": 0.0707,
      "velocity": 127,
      "chip": "ym2612"
    },
    {
      "channel": 4,
      "note": 49,
      "start": 19.9507,
      "duration": 1.5865,
      "velocity": 119,
      "chip": "ym2612"
    },
    {
      "channel": 5,
      "note": 71,
      "start": 20.0554,
      "duration": 0.1671,
      "velocity": 103,
      "chip": "ym2612"
    },
    {
      "channel": 2,
      "note": 69,
      "start": 20.1096,
      "duration": 0.1628,
      "velocity": 103,
      "chip": "ym2612"
    },
    {
      "channel": 0,
      "note": 79,
      "start": 20.1556,
      "duration": 0.1671,
      "velocity": 103,
      "chip": "ym2612"
    },
    {
      "channel": 5,
      "note": 69,
      "start": 20.2621,
      "duration": 0.1627,
      "velocity": 103,
      "chip": "ym2612"
    },
    {
      "channel": 2,
      "note": 79,
      "start": 20.3075,
      "duration": 0.1671,
      "velocity": 103,
      "chip": "ym2612"
    },
    {
      "channel": 0,
      "note": 75,
      "start": 20.3578,
      "duration": 0.1671,
      "velocity": 103,
      "chip": "ym2612"
    },
    {
      "channel": 3,
      "note": 61,
      "start": 20.3633,
      "duration": 0.0107,
      "velocity": 119,
      "chip": "ym2612"
    },
    {
      "channel": 5,
      "note": 79,
      "start": 20.4599,
      "duration": 0.1667,
      "velocity": 103,
      "chip": "ym2612"
    },
    {
      "channel": 2,
      "note": 75,
      "start": 20.5097,
      "duration": 0.1671,
      "velocity": 103,
      "chip": "ym2612"
    },
    {
      "channel": 0,
      "note": 77,
      "start": 20.5601,
      "duration": 0.1671,
      "velocity": 103,
      "chip": "ym2612"
    },
    {
      "channel": 3,
      "note": 61,
      "start": 20.5624,
      "duration": 0.1652,
      "velocity": 119,
      "chip": "ym2612"
    },
    {
      "channel": 5,
      "note": 75,
      "start": 20.6617,
      "duration": 0.1672,
      "velocity": 103,
      "chip": "ym2612"
    },
    {
      "channel": 2,
      "note": 77,
      "start": 20.7119,
      "duration": 0.1671,
      "velocity": 103,
      "chip": "ym2612"
    },
    {
      "channel": 0,
      "note": 73,
      "start": 20.7623,
      "duration": 0.1671,
      "velocity": 103,
      "chip": "ym2612"
    },
    {
      "channel": 3,
      "note": 61,
      "start": 20.7687,
      "duration": 0.06,
      "velocity": 127,
      "chip": "ym2612"
    },
    {
      "channel": 5,
      "note": 77,
      "start": 20.8644,
      "duration": 0.168,
      "velocity": 103,
      "chip": "ym2612"
    },
    {
      "channel": 2,
      "note": 73,
      "start": 20.9142,
      "duration": 0.1679,
      "velocity": 103,
      "chip": "ym2612"
    },
    {
      "channel": 0,
      "note": 75,
      "start": 20.9645,
      "duration": 0.1677,
      "velocity": 103,
      "chip": "ym2612"
    },
    {
      "channel": 5,
      "note": 73,
      "start": 21.0675,
      "duration": 0.1663,
      "velocity": 103,
      "chip": "ym2612"
    },
    {
      "channel": 2,
      "note": 75,
      "start": 21.1173,
      "duration": 0.1663,
      "velocity": 103,
      "chip": "ym2612"
    },
    {
      "channel": 0,
      "note": 71,
      "start": 21.1671,
      "duration": 0.1668,
      "velocity": 103,
      "chip": "ym2612"
    },
    {
      "channel": 3,
      "note": 61,
      "start": 21.1726,
      "duration": 0.0113,
      "velocity": 119,
      "chip": "ym2612"
    },
    {
      "channel": 5,
      "note": 75,
      "start": 21.2688,
      "duration": 0.1669,
      "velocity": 103,
      "chip": "ym2612"
    },
    {
      "channel": 2,
      "note": 71,
      "start": 21.3187,
      "duration": 0.1671,
      "velocity": 103,
      "chip": "ym2612"
    },
    {
      "channel": 0,
      "note": 69,
      "start": 21.3733,
      "duration": 0.1628,
      "velocity": 103,
      "chip": "ym2612"
    },
    {
      "channel": 3,
      "note": 61,
      "start": 21.3788,
      "duration": 0.0566,
      "velocity": 127,
      "chip": "ym2612"
    },
    {
      "channel": 5,
      "note": 71,
      "start": 21.4711,
      "duration": 0.1669,
      "velocity": 103,
      "chip": "ym2612"
    },
    {
      "channel": 2,
      "note": 69,
      "start": 21.5252,
      "duration": 0.1628,
      "velocity": 103,
      "chip": "ym2612"
    },
    {
      "channel": 0,
      "note": 79,
      "start": 21.5713,
      "duration": 0.1671,
      "velocity": 103,
      "chip": "ym2612"
    },
    {
      "channel": 1,
      "note": 49,
      "start": 21.5729,
      "duration": 0.1656,
      "velocity": 119,
      "chip": "ym2612"
    },
    {
      "channel": 3,
      "note": 61,
      "start": 21.5751,
      "duration": 0.0625,
      "velocity": 127,
      "chip": "ym2612"
    },
    {
      "channel": 4,
      "note": 49,
      "start": 21.5768,
      "duration": 0.1626,
      "velocity": 119,
      "chip": "ym2612"
    },
    {
      "channel": 5,
      "note": 69,
      "start": 21.6778,
      "duration": 0.1627,
      "velocity": 103,
      "chip": "ym2612"
    },
    {
      "channel": 2,
      "note": 79,
      "start": 21.7231,
      "duration": 0.1671,
      "velocity": 103,
      "chip": "ym2612"
    },
    {
      "channel": 0,
      "note": 75,
      "start": 21.7735,
      "duration": 0.1671,
      "velocity": 103,
      "chip": "ym2612"
    },
    {
      "channel": 3,
      "note": 61,
      "start": 21.779,
      "duration": 0.0107,
      "velocity": 119,
      "chip": "ym2612"
    },
    {
      "channel": 3,
      "note": 61,
      "start": 21.876,
      "duration": 0.015,
      "velocity": 119,
      "chip": "ym2612"
    },
    {
      "channel": 5,
      "note": 79,
      "start": 21.8778,
      "duration": 0.1646,
      "velocity": 103,
      "chip": "ym2612"
    },
    {
      "channel": 2,
      "note": 75,
      "start": 21.9254,
      "duration": 0.1671,
      "velocity": 103,
      "chip": "ym2612"
    },
    {
      "channel": 0,
      "note": 77,
      "start": 21.9758,
      "duration": 0.1671,
      "velocity": 103,
      "chip": "ym2612"
    },
    {
      "channel": 1,
      "note": 49,
      "start": 21.9774,
      "duration": 0.1656,
      "velocity": 119,
      "chip": "ym2612"
    },
    {
      "channel": 3,
      "note": 61,
      "start": 21.9837,
      "duration": 0.0585,
      "velocity": 127,
      "chip": "ym2612"
    },
    {
      "channel": 4,
      "note": 49,
      "start": 21.9853,
      "duration": 0.1586,
      "velocity": 119,
      "chip": "ym2612"
    },
    {
      "channel": 5,
      "note": 75,
      "start": 22.0778,
      "duration": 0.1671,
      "velocity": 103,
      "chip": "ym2612"
    },
    {
      "channel": 2,
      "note": 77,
      "start": 22.1276,
      "duration": 0.1671,
      "velocity": 103,
      "chip": "ym2612"
    },
    {
      "channel": 0,
      "note": 73,
      "start": 22.1779,
      "duration": 0.1671,
      "velocity": 103,
      "chip": "ym2612"
    },
    {
      "channel": 1,
      "note": 49,
      "start": 22.1797,
      "duration": 0.1656,
      "velocity": 119,
      "chip": "ym2612"
    },
    {
      "channel": 3,
      "note": 61,
      "start": 22.1859,
      "duration": 0.0083,
      "velocity": 119,
      "chip": "ym2612"
    },
    {
      "channel": 4,
      "note": 49,
      "start": 22.1876,
      "duration": 0.1586,
      "velocity": 119,
      "chip": "ym2612"
    },
    {
      "channel": 3,
      "note": 61,
      "start": 22.28,
      "duration": 0.0154,
      "velocity": 119,
      "chip": "ym2612"
    },
    {
      "channel": 5,
      "note": 77,
      "start": 22.2827,
      "duration": 0.1647,
      "velocity": 103,
      "chip": "ym2612"
    },
    {
      "channel": 2,
      "note": 73,
      "start": 22.3299,
      "duration": 0.1671,
      "velocity": 103,
      "chip": "ym2612"
    },
    {
      "channel": 0,
      "note": 75,
      "start": 22.3802,
      "duration": 0.1671,
      "velocity": 103,
      "chip": "ym2612"
    },
    {
      "channel": 3,
      "note": 76,
      "start": 22.3871,
      "duration": 0.0094,
      "velocity": 112,
      "chip": "ym2612"
    },
    {
      "channel": 3,
      "note": 76,
      "start": 22.4324,
      "duration": 0.0146,
      "velocity": 112,
      "chip": "ym2612"
    },
    {
      "channel": 3,
      "note": 76,
      "start": 22.483,
      "duration": 0.0148,
      "velocity": 112,
      "chip": "ym2612"
    },
    {
      "channel": 5,
      "note": 73,
      "start": 22.4848,
      "duration": 0.1651,
      "velocity": 103,
      "chip": "ym2612"
    },
    {
      "channel": 2,
      "note": 75,
      "start": 22.533,
      "duration": 0.1662,
      "velocity": 103,
      "chip": "ym2612"
    },
    {
      "channel": 0,
      "note": 71,
      "start": 22.5833,
      "duration": 0.1663,
      "velocity": 103,
      "chip": "ym2612"
    },
    {
      "channel": 3,
      "note": 71,
      "start": 22.5858,
      "duration": 0.0138,
      "velocity": 112,
      "chip": "ym2612"
    },
    {
      "channel": 3,
      "note": 66,
      "start": 22.6854,
      "duration": 0.0145,
      "velocity": 112,
      "chip": "ym2612"
    },
    {
      "channel": 5,
      "note": 75,
      "start": 22.6872,
      "duration": 0.181,
      "velocity": 103,
      "chip": "ym2612"
    },
    {
      "channel": 2,
      "note": 71,
      "start": 22.7344,
      "duration": 0.1839,
      "velocity": 103,
      "chip": "ym2612"
    },
    {
      "channel": 0,
      "note": 69,
      "start": 22.789,
      "duration": 0.18,
      "velocity": 103,
      "chip": "ym2612"
    },
    {
      "channel": 1,
      "note": 45,
      "start": 22.7954,
      "duration": 0.8141,
      "velocity": 119,
      "chip": "ym2612"
    },
    {
      "channel": 3,
      "note": 61,
      "start": 22.8033,
      "duration": 0.0647,
      "velocity": 127,
      "chip": "ym2612"
    },
    {
      "channel": 4,
      "note": 45,
      "start": 22.8098,
      "duration": 0.7998,
      "velocity": 119,
      "chip": "ym2612"
    },
    {
      "channel": 5,
      "note": 71,
      "start": 22.9037,
      "duration": 0.1671,
      "velocity": 103,
      "chip": "ym2612"
    },
    {
      "channel": 2,
      "note": 69,
      "start": 22.9578,
      "duration": 0.1628,
      "velocity": 103,
      "chip": "ym2612"
    },
    {
      "channel": 0,
      "note": 79,
      "start": 23.0038,
      "duration": 0.1671,
      "velocity": 103,
      "chip": "ym2612"
    },
    {
      "channel": 5,
      "note": 69,
      "start": 23.1103,
      "duration": 0.1627,
      "velocity": 103,
      "chip": "ym2612"
    },
    {
      "channel": 2,
      "note": 79,
      "start": 23.1557,
      "duration": 0.1671,
      "velocity": 103,
      "chip": "ym2612"
    },
    {
      "channel": 0,
      "note": 75,
      "start": 23.2061,
      "duration": 0.1671,
      "velocity": 103,
      "chip": "ym2612"
    },
    {
      "channel": 3,
      "note": 61,
      "start": 23.2115,
      "duration": 0.0107,
      "velocity": 119,
      "chip": "ym2612"
    },
    {
      "channel": 5,
      "note": 79,
      "start": 23.3081,
      "duration": 0.1667,
      "velocity": 103,
      "chip": "ym2612"
    },
    {
      "channel": 2,
      "note": 75,
      "start": 23.3579,
      "duration": 0.1671,
      "velocity": 103,
      "chip": "ym2612"
    },
    {
      "channel": 0,
      "note": 77,
      "start": 23.4083,
      "duration": 0.1671,
      "velocity": 103,
      "chip": "ym2612"
    },
    {
      "channel": 3,
      "note": 61,
      "start": 23.4106,
      "duration": 0.1652,
      "velocity": 119,
      "chip": "ym2612"
    },
    {
      "channel": 5,
      "note": 75,
      "start": 23.51,
      "duration": 0.0995,
      "velocity": 103,
      "chip": "ym2612"
    },
    {
      "channel": 2,
      "note": 77,
      "start": 23.5602,
      "duration": 0.0493,
      "velocity": 103,
      "chip": "ym2612"
    }
  ]
}