{
  "track_name": "04 - World 1 Boss",
  "duration_sec": 63.22,
  "sample_rate": 44100,
  "note_count": 2192,
  "unique_pitches": 30,
  "pitch_range": 52,
  "avg_note_duration": 0.1415,
  "reconstruction_stats": {
    "notes_reconstructed": 2192,
    "keyon_events": 2192,
    "keyoff_events": 2187,
    "orphan_keyons": 5,
    "unique_pitches": 30,
    "pitch_range": 52,
    "avg_duration_sec": 0.1415
  },
  "metadata": {
    "source": "T\\Tinhead\\04 - World 1 Boss.vgz"
  },
  "notes": [
    {
      "channel": 3,
      "note": 35,
      "start": 0.0,
      "duration": 0.0762,
      "velocity": 1,
      "chip": "ym2612"
    },
    {
      "channel": 3,
      "note": 34,
      "start": 0.0764,
      "duration": 0.0993,
      "velocity": 1,
      "chip": "ym2612"
    },
    {
      "channel": 3,
      "note": 35,
      "start": 0.1759,
      "duration": 0.098,
      "velocity": 127,
      "chip": "ym2612"
    },
    {
      "channel": 3,
      "note": 35,
      "start": 0.2741,
      "duration": 0.1001,
      "velocity": 1,
      "chip": "ym2612"
    },
    {
      "channel": 3,
      "note": 34,
      "start": 0.3744,
      "duration": 0.0991,
      "velocity": 1,
      "chip": "ym2612"
    },
    {
      "channel": 3,
      "note": 35,
      "start": 0.4737,
      "duration": 0.0982,
      "velocity": 127,
      "chip": "ym2612"
    },
    {
      "channel": 3,
      "note": 35,
      "start": 0.5721,
      "duration": 0.1001,
      "velocity": 1,
      "chip": "ym2612"
    },
    {
      "channel": 3,
      "note": 34,
      "start": 0.6724,
      "duration": 0.0809,
      "velocity": 1,
      "chip": "ym2612"
    },
    {
      "channel": 0,
      "note": 60,
      "start": 0.7505,
      "duration": 0.0991,
      "velocity": 109,
      "chip": "ym2612"
    },
    {
      "channel": 1,
      "note": 52,
      "start": 0.7509,
      "duration": 0.099,
      "velocity": 109,
      "chip": "ym2612"
    },
    {
      "channel": 2,
      "note": 40,
      "start": 0.7521,
      "duration": 0.0982,
      "velocity": 108,
      "chip": "ym2612"
    },
    {
      "channel": 3,
      "note": 35,
      "start": 0.7534,
      "duration": 0.0972,
      "velocity": 127,
      "chip": "ym2612"
    },
    {
      "channel": 0,
      "note": 59,
      "start": 0.8498,
      "duration": 0.0992,
      "velocity": 109,
      "chip": "ym2612"
    },
    {
      "channel": 1,
      "note": 52,
      "start": 0.8502,
      "duration": 0.0992,
      "velocity": 109,
      "chip": "ym2612"
    },
    {
      "channel": 2,
      "note": 40,
      "start": 0.8505,
      "duration": 0.0992,
      "velocity": 108,
      "chip": "ym2612"
    },
    {
      "channel": 3,
      "note": 35,
      "start": 0.8508,
      "duration": 0.0992,
      "velocity": 127,
      "chip": "ym2612"
    },
    {
      "channel": 0,
      "note": 57,
      "start": 0.9492,
      "duration": 0.1985,
      "velocity": 109,
      "chip": "ym2612"
    },
    {
      "channel": 1,
      "note": 52,
      "start": 0.9495,
      "duration": 0.0989,
      "velocity": 109,
      "chip": "ym2612"
    },
    {
      "channel": 2,
      "note": 40,
      "start": 0.9498,
      "duration": 0.0987,
      "velocity": 108,
      "chip": "ym2612"
    },
    {
      "channel": 3,
      "note": 35,
      "start": 0.9502,
      "duration": 0.0987,
      "velocity": 127,
      "chip": "ym2612"
    },
    {
      "channel": 2,
      "note": 40,
      "start": 1.0488,
      "duration": 0.1007,
      "velocity": 1,
      "chip": "ym2612"
    },
    {
      "channel": 3,
      "note": 35,
      "start": 1.0491,
      "duration": 0.1019,
      "velocity": 1,
      "chip": "ym2612"
    },
    {
      "channel": 0,
      "note": 59,
      "start": 1.1479,
      "duration": 0.2777,
      "velocity": 109,
      "chip": "ym2612"
    },
    {
      "channel": 1,
      "note": 52,
      "start": 1.1483,
      "duration": 0.2777,
      "velocity": 109,
      "chip": "ym2612"
    },
    {
      "channel": 2,
      "note": 40,
      "start": 1.1497,
      "duration": 0.0975,
      "velocity": 108,
      "chip": "ym2612"
    },
    {
      "channel": 4,
      "note": 83,
      "start": 1.1524,
      "duration": 0.0951,
      "velocity": 118,
      "chip": "ym2612"
    },
    {
      "channel": 2,
      "note": 40,
      "start": 1.2474,
      "duration": 0.0991,
      "velocity": 108,
      "chip": "ym2612"
    },
    {
      "channel": 4,
      "note": 79,
      "start": 1.2477,
      "duration": 0.0994,
      "velocity": 118,
      "chip": "ym2612"
    },
    {
      "channel": 2,
      "note": 40,
      "start": 1.3467,
      "duration": 0.0796,
      "velocity": 108,
      "chip": "ym2612"
    },
    {
      "channel": 3,
      "note": 83,
      "start": 1.347,
      "duration": 0.0798,
      "velocity": 118,
      "chip": "ym2612"
    },
    {
      "channel": 4,
      "note": 76,
      "start": 1.3473,
      "duration": 0.0798,
      "velocity": 118,
      "chip": "ym2612"
    },
    {
      "channel": 0,
      "note": 59,
      "start": 1.4259,
      "duration": 0.2978,
      "velocity": 109,
      "chip": "ym2612"
    },
    {
      "channel": 1,
      "note": 52,
      "start": 1.4262,
      "duration": 0.2978,
      "velocity": 109,
      "chip": "ym2612"
    },
    {
      "channel": 2,
      "note": 40,
      "start": 1.4265,
      "duration": 0.0996,
      "velocity": 1,
      "chip": "ym2612"
    },
    {
      "channel": 3,
      "note": 79,
      "start": 1.4269,
      "duration": 0.0995,
      "velocity": 118,
      "chip": "ym2612"
    },
    {
      "channel": 4,
      "note": 71,
      "start": 1.4273,
      "duration": 0.0996,
      "velocity": 118,
      "chip": "ym2612"
    },
    {
      "channel": 2,
      "note": 35,
      "start": 1.5263,
      "duration": 0.0992,
      "velocity": 1,
      "chip": "ym2612"
    },
    {
      "channel": 3,
      "note": 76,
      "start": 1.5268,
      "duration": 0.099,
      "velocity": 118,
      "chip": "ym2612"
    },
    {
      "channel": 4,
      "note": 83,
      "start": 1.5271,
      "duration": 0.099,
      "velocity": 118,
      "chip": "ym2612"
    },
    {
      "channel": 2,
      "note": 40,
      "start": 1.6257,
      "duration": 0.0987,
      "velocity": 108,
      "chip": "ym2612"
    },
    {
      "channel": 3,
      "note": 71,
      "start": 1.626,
      "duration": 0.0987,
      "velocity": 118,
      "chip": "ym2612"
    },
    {
      "channel": 4,
      "note": 79,
      "start": 1.6263,
      "duration": 0.0987,
      "velocity": 118,
      "chip": "ym2612"
    },
    {
      "channel": 0,
      "note": 59,
      "start": 1.7239,
      "duration": 0.3772,
      "velocity": 109,
      "chip": "ym2612"
    },
    {
      "channel": 1,
      "note": 52,
      "start": 1.7242,
      "duration": 0.3771,
      "velocity": 109,
      "chip": "ym2612"
    },
    {
      "channel": 2,
      "note": 40,
      "start": 1.7245,
      "duration": 0.0995,
      "velocity": 1,
      "chip": "ym2612"
    },
    {
      "channel": 3,
      "note": 83,
      "start": 1.7249,
      "duration": 0.0995,
      "velocity": 118,
      "chip": "ym2612"
    },
    {
      "channel": 4,
      "note": 76,
      "start": 1.7252,
      "duration": 0.0995,
      "velocity": 118,
      "chip": "ym2612"
    },
    {
      "channel": 2,
      "note": 35,
      "start": 1.8243,
      "duration": 0.0992,
      "velocity": 1,
      "chip": "ym2612"
    },
    {
      "channel": 3,
      "note": 79,
      "start": 1.8246,
      "duration": 0.0991,
      "velocity": 118,
      "chip": "ym2612"
    },
    {
      "channel": 4,
      "note": 71,
      "start": 1.8249,
      "duration": 0.0991,
      "velocity": 118,
      "chip": "ym2612"
    },
    {
      "channel": 2,
      "note": 40,
      "start": 1.9236,
      "duration": 0.0991,
      "velocity": 1,
      "chip": "ym2612"
    },
    {
      "channel": 3,
      "note": 76,
      "start": 1.9239,
      "duration": 0.0992,
      "velocity": 118,
      "chip": "ym2612"
    },
    {
      "channel": 4,
      "note": 83,
      "start": 1.9242,
      "duration": 0.0992,
      "velocity": 118,
      "chip": "ym2612"
    },
    {
      "channel": 2,
      "note": 35,
      "start": 2.0229,
      "duration": 0.0797,
      "velocity": 1,
      "chip": "ym2612"
    },
    {
      "channel": 3,
      "note": 71,
      "start": 2.0232,
      "duration": 0.0797,
      "velocity": 118,
      "chip": "ym2612"
    },
    {
      "channel": 4,
      "note": 79,
      "start": 2.0236,
      "duration": 0.0797,
      "velocity": 118,
      "chip": "ym2612"
    },
    {
      "channel": 0,
      "note": 59,
      "start": 2.1012,
      "duration": 0.1985,
      "velocity": 109,
      "chip": "ym2612"
    },
    {
      "channel": 1,
      "note": 52,
      "start": 2.1016,
      "duration": 0.1985,
      "velocity": 109,
      "chip": "ym2612"
    },
    {
      "channel": 2,
      "note": 40,
      "start": 2.1028,
      "duration": 0.0977,
      "velocity": 108,
      "chip": "ym2612"
    },
    {
      "channel": 3,
      "note": 83,
      "start": 2.1032,
      "duration": 0.0977,
      "velocity": 118,
      "chip": "ym2612"
    },
    {
      "channel": 4,
      "note": 76,
      "start": 2.1035,
      "duration": 0.0977,
      "velocity": 118,
      "chip": "ym2612"
    },
    {
      "channel": 2,
      "note": 40,
      "start": 2.2007,
      "duration": 0.1005,
      "velocity": 1,
      "chip": "ym2612"
    },
    {
      "channel": 3,
      "note": 79,
      "start": 2.201,
      "duration": 0.1005,
      "velocity": 118,
      "chip": "ym2612"
    },
    {
      "channel": 4,
      "note": 71,
      "start": 2.2014,
      "duration": 0.1005,
      "velocity": 118,
      "chip": "ym2612"
    },
    {
      "channel": 0,
      "note": 59,
      "start": 2.2999,
      "duration": 0.3971,
      "velocity": 109,
      "chip": "ym2612"
    },
    {
      "channel": 1,
      "note": 52,
      "start": 2.3002,
      "duration": 0.3971,
      "velocity": 109,
      "chip": "ym2612"
    },
    {
      "channel": 2,
      "note": 35,
      "start": 2.3014,
      "duration": 0.0987,
      "velocity": 1,
      "chip": "ym2612"
    },
    {
      "channel": 3,
      "note": 76,
      "start": 2.3017,
      "duration": 0.0987,
      "velocity": 118,
      "chip": "ym2612"
    },
    {
      "channel": 4,
      "note": 83,
      "start": 2.3021,
      "duration": 0.0987,
      "velocity": 118,
      "chip": "ym2612"
    },
    {
      "channel": 2,
      "note": 40,
      "start": 2.4003,
      "duration": 0.0982,
      "velocity": 108,
      "chip": "ym2612"
    },
    {
      "channel": 3,
      "note": 71,
      "start": 2.4006,
      "duration": 0.0982,
      "velocity": 118,
      "chip": "ym2612"
    },
    {
      "channel": 4,
      "note": 79,
      "start": 2.4009,
      "duration": 0.0982,
      "velocity": 118,
      "chip": "ym2612"
    },
    {
      "channel": 2,
      "note": 40,
      "start": 2.4987,
      "duration": 0.0991,
      "velocity": 108,
      "chip": "ym2612"
    },
    {
      "channel": 3,
      "note": 83,
      "start": 2.499,
      "duration": 0.0991,
      "velocity": 118,
      "chip": "ym2612"
    },
    {
      "channel": 4,
      "note": 76,
      "start": 2.4993,
      "duration": 0.0991,
      "velocity": 118,
      "chip": "ym2612"
    },
    {
      "channel": 2,
      "note": 40,
      "start": 2.598,
      "duration": 0.0996,
      "velocity": 108,
      "chip": "ym2612"
    },
    {
      "channel": 3,
      "note": 79,
      "start": 2.5983,
      "duration": 0.0996,
      "velocity": 118,
      "chip": "ym2612"
    },
    {
      "channel": 4,
      "note": 71,
      "start": 2.5986,
      "duration": 0.0996,
      "velocity": 118,
      "chip": "ym2612"
    },
    {
      "channel": 0,
      "note": 59,
      "start": 2.6972,
      "duration": 0.2779,
      "velocity": 109,
      "chip": "ym2612"
    },
    {
      "channel": 1,
      "note": 52,
      "start": 2.6975,
      "duration": 0.2778,
      "velocity": 109,
      "chip": "ym2612"
    },
    {
      "channel": 2,
      "note": 40,
      "start": 2.6978,
      "duration": 0.0987,
      "velocity": 108,
      "chip": "ym2612"
    },
    {
      "channel": 3,
      "note": 76,
      "start": 2.6981,
      "duration": 0.0987,
      "velocity": 118,
      "chip": "ym2612"
    },
    {
      "channel": 4,
      "note": 83,
      "start": 2.6984,
      "duration": 0.0987,
      "velocity": 118,
      "chip": "ym2612"
    },
    {
      "channel": 2,
      "note": 40,
      "start": 2.7967,
      "duration": 0.0793,
      "velocity": 108,
      "chip": "ym2612"
    },
    {
      "channel": 3,
      "note": 71,
      "start": 2.797,
      "duration": 0.0793,
      "velocity": 118,
      "chip": "ym2612"
    },
    {
      "channel": 4,
      "note": 79,
      "start": 2.7973,
      "duration": 0.0793,
      "velocity": 118,
      "chip": "ym2612"
    },
    {
      "channel": 2,
      "note": 40,
      "start": 2.8761,
      "duration": 0.0995,
      "velocity": 108,
      "chip": "ym2612"
    },
    {
      "channel": 3,
      "note": 83,
      "start": 2.8764,
      "duration": 0.0995,
      "velocity": 118,
      "chip": "ym2612"
    },
    {
      "channel": 4,
      "note": 76,
      "start": 2.8769,
      "duration": 0.0994,
      "velocity": 118,
      "chip": "ym2612"
    },
    {
      "channel": 0,
      "note": 59,
      "start": 2.9752,
      "duration": 0.2978,
      "velocity": 109,
      "chip": "ym2612"
    },
    {
      "channel": 1,
      "note": 52,
      "start": 2.9755,
      "duration": 0.2978,
      "velocity": 109,
      "chip": "ym2612"
    },
    {
      "channel": 2,
      "note": 40,
      "start": 2.9758,
      "duration": 0.0997,
      "velocity": 1,
      "chip": "ym2612"
    },
    {
      "channel": 3,
      "note": 79,
      "start": 2.9761,
      "duration": 0.0997,
      "velocity": 118,
      "chip": "ym2612"
    },
    {
      "channel": 4,
      "note": 71,
      "start": 2.9764,
      "duration": 0.0997,
      "velocity": 118,
      "chip": "ym2612"
    },
    {
      "channel": 2,
      "note": 35,
      "start": 3.0757,
      "duration": 0.0991,
      "velocity": 1,
      "chip": "ym2612"
    },
    {
      "channel": 3,
      "note": 76,
      "start": 3.076,
      "duration": 0.0991,
      "velocity": 118,
      "chip": "ym2612"
    },
    {
      "channel": 4,
      "note": 83,
      "start": 3.0763,
      "duration": 0.0991,
      "velocity": 118,
      "chip": "ym2612"
    },
    {
      "channel": 2,
      "note": 40,
      "start": 3.175,
      "duration": 0.0986,
      "velocity": 108,
      "chip": "ym2612"
    },
    {
      "channel": 3,
      "note": 71,
      "start": 3.1753,
      "duration": 0.0986,
      "velocity": 118,
      "chip": "ym2612"
    },
    {
      "channel": 4,
      "note": 79,
      "start": 3.1756,
      "duration": 0.0986,
      "velocity": 118,
      "chip": "ym2612"
    },
    {
      "channel": 0,
      "note": 59,
      "start": 3.2731,
      "duration": 0.2779,
      "velocity": 109,
      "chip": "ym2612"
    },
    {
      "channel": 1,
      "note": 52,
      "start": 3.2734,
      "duration": 0.2779,
      "velocity": 109,
      "chip": "ym2612"
    },
    {
      "channel": 2,
      "note": 40,
      "start": 3.2738,
      "duration": 0.0996,
      "velocity": 1,
      "chip": "ym2612"
    },
    {
      "channel": 3,
      "note": 83,
      "start": 3.2741,
      "duration": 0.0996,
      "velocity": 118,
      "chip": "ym2612"
    },
    {
      "channel": 4,
      "note": 76,
      "start": 3.2744,
      "duration": 0.0996,
      "velocity": 118,
      "chip": "ym2612"
    },
    {
      "channel": 2,
      "note": 35,
      "start": 3.3736,
      "duration": 0.0992,
      "velocity": 1,
      "chip": "ym2612"
    },
    {
      "channel": 3,
      "note": 79,
      "start": 3.3739,
      "duration": 0.0992,
      "velocity": 118,
      "chip": "ym2612"
    },
    {
      "channel": 4,
      "note": 71,
      "start": 3.3742,
      "duration": 0.0992,
      "velocity": 118,
      "chip": "ym2612"
    },
    {
      "channel": 2,
      "note": 40,
      "start": 3.4729,
      "duration": 0.0797,
      "velocity": 1,
      "chip": "ym2612"
    },
    {
      "channel": 3,
      "note": 76,
      "start": 3.4732,
      "duration": 0.0797,
      "velocity": 118,
      "chip": "ym2612"
    },
    {
      "channel": 4,
      "note": 83,
      "start": 3.4736,
      "duration": 0.0797,
      "velocity": 118,
      "chip": "ym2612"
    },
    {
      "channel": 0,
      "note": 59,
      "start": 3.5512,
      "duration": 0.2978,
      "velocity": 109,
      "chip": "ym2612"
    },
    {
      "channel": 1,
      "note": 52,
      "start": 3.5516,
      "duration": 0.2978,
      "velocity": 109,
      "chip": "ym2612"
    },
    {
      "channel": 2,
      "note": 35,
      "start": 3.5528,
      "duration": 0.0987,
      "velocity": 1,
      "chip": "ym2612"
    },
    {
      "channel": 3,
      "note": 71,
      "start": 3.5531,
      "duration": 0.0987,
      "velocity": 118,
      "chip": "ym2612"
    },
    {
      "channel": 4,
      "note": 79,
      "start": 3.5534,
      "duration": 0.0987,
      "velocity": 118,
      "chip": "ym2612"
    },
    {
      "channel": 2,
      "note": 40,
      "start": 3.6517,
      "duration": 0.0982,
      "velocity": 108,
      "chip": "ym2612"
    },
    {
      "channel": 3,
      "note": 83,
      "start": 3.652,
      "duration": 0.0982,
      "velocity": 118,
      "chip": "ym2612"
    },
    {
      "channel": 4,
      "note": 76,
      "start": 3.6523,
      "duration": 0.0982,
      "velocity": 118,
      "chip": "ym2612"
    },
    {
      "channel": 2,
      "note": 40,
      "start": 3.7501,
      "duration": 0.1005,
      "velocity": 1,
      "chip": "ym2612"
    },
    {
      "channel": 3,
      "note": 79,
      "start": 3.7504,
      "duration": 0.1005,
      "velocity": 118,
      "chip": "ym2612"
    },
    {
      "channel": 4,
      "note": 71,
      "start": 3.7507,
      "duration": 0.1005,
      "velocity": 118,
      "chip": "ym2612"
    },
    {
      "channel": 0,
      "note": 59,
      "start": 3.8492,
      "duration": 0.1984,
      "velocity": 109,
      "chip": "ym2612"
    },
    {
      "channel": 1,
      "note": 52,
      "start": 3.8495,
      "duration": 0.1984,
      "velocity": 109,
      "chip": "ym2612"
    },
    {
      "channel": 2,
      "note": 35,
      "start": 3.8508,
      "duration": 0.0987,
      "velocity": 1,
      "chip": "ym2612"
    },
    {
      "channel": 3,
      "note": 76,
      "start": 3.8511,
      "duration": 0.0987,
      "velocity": 118,
      "chip": "ym2612"
    },
    {
      "channel": 4,
      "note": 83,
      "start": 3.8514,
      "duration": 0.0987,
      "velocity": 118,
      "chip": "ym2612"
    },
    {
      "channel": 2,
      "note": 40,
      "start": 3.9497,
      "duration": 0.0986,
      "velocity": 108,
      "chip": "ym2612"
    },
    {
      "channel": 3,
      "note": 71,
      "start": 3.95,
      "duration": 0.0986,
      "velocity": 118,
      "chip": "ym2612"
    },
    {
      "channel": 4,
      "note": 79,
      "start": 3.9503,
      "duration": 0.0986,
      "velocity": 118,
      "chip": "ym2612"
    },
    {
      "channel": 0,
      "note": 59,
      "start": 4.0478,
      "duration": 0.1786,
      "velocity": 109,
      "chip": "ym2612"
    },
    {
      "channel": 1,
      "note": 52,
      "start": 4.0481,
      "duration": 0.1788,
      "velocity": 109,
      "chip": "ym2612"
    },
    {
      "channel": 2,
      "note": 40,
      "start": 4.0484,
      "duration": 0.0996,
      "velocity": 1,
      "chip": "ym2612"
    },
    {
      "channel": 3,
      "note": 83,
      "start": 4.0488,
      "duration": 0.0996,
      "velocity": 118,
      "chip": "ym2612"
    },
    {
      "channel": 4,
      "note": 76,
      "start": 4.0491,
      "duration": 0.0996,
      "velocity": 118,
      "chip": "ym2612"
    },
    {
      "channel": 2,
      "note": 35,
      "start": 4.1483,
      "duration": 0.0798,
      "velocity": 1,
      "chip": "ym2612"
    },
    {
      "channel": 3,
      "note": 79,
      "start": 4.1486,
      "duration": 0.0798,
      "velocity": 118,
      "chip": "ym2612"
    },
    {
      "channel": 4,
      "note": 71,
      "start": 4.1489,
      "duration": 0.0798,
      "velocity": 118,
      "chip": "ym2612"
    },
    {
      "channel": 0,
      "note": 59,
      "start": 4.2267,
      "duration": 0.2976,
      "velocity": 109,
      "chip": "ym2612"
    },
    {
      "channel": 1,
      "note": 54,
      "start": 4.2271,
      "duration": 0.2976,
      "velocity": 109,
      "chip": "ym2612"
    },
    {
      "channel": 2,
      "note": 35,
      "start": 4.2283,
      "duration": 0.0976,
      "velocity": 108,
      "chip": "ym2612"
    },
    {
      "channel": 3,
      "note": 76,
      "start": 4.2286,
      "duration": 0.0976,
      "velocity": 118,
      "chip": "ym2612"
    },
    {
      "channel": 4,
      "note": 78,
      "start": 4.2289,
      "duration": 0.0976,
      "velocity": 118,
      "chip": "ym2612"
    },
    {
      "channel": 2,
      "note": 35,
      "start": 4.3261,
      "duration": 0.0991,
      "velocity": 108,
      "chip": "ym2612"
    },
    {
      "channel": 3,
      "note": 71,
      "start": 4.3264,
      "duration": 0.0991,
      "velocity": 118,
      "chip": "ym2612"
    },
    {
      "channel": 4,
      "note": 74,
      "start": 4.3269,
      "duration": 0.099,
      "velocity": 118,
      "chip": "ym2612"
    },
    {
      "channel": 2,
      "note": 35,
      "start": 4.4254,
      "duration": 0.0995,
      "velocity": 108,
      "chip": "ym2612"
    },
    {
      "channel": 3,
      "note": 78,
      "start": 4.4257,
      "duration": 0.0995,
      "velocity": 118,
      "chip": "ym2612"
    },
    {
      "channel": 4,
      "note": 71,
      "start": 4.4261,
      "duration": 0.0995,
      "velocity": 118,
      "chip": "ym2612"
    },
    {
      "channel": 0,
      "note": 59,
      "start": 4.5245,
      "duration": 0.2978,
      "velocity": 109,
      "chip": "ym2612"
    },
    {
      "channel": 1,
      "note": 54,
      "start": 4.5249,
      "duration": 0.2978,
      "velocity": 109,
      "chip": "ym2612"
    },
    {
      "channel": 2,
      "note": 35,
      "start": 4.5252,
      "duration": 0.0996,
      "velocity": 1,
      "chip": "ym2612"
    },
    {
      "channel": 3,
      "note": 74,
      "start": 4.5255,
      "duration": 0.0996,
      "velocity": 118,
      "chip": "ym2612"
    },
    {
      "channel": 4,
      "note": 66,
      "start": 4.5257,
      "duration": 0.0997,
      "velocity": 118,
      "chip": "ym2612"
    },
    {
      "channel": 2,
      "note": 35,
      "start": 4.625,
      "duration": 0.0991,
      "velocity": 1,
      "chip": "ym2612"
    },
    {
      "channel": 3,
      "note": 71,
      "start": 4.6253,
      "duration": 0.0991,
      "velocity": 118,
      "chip": "ym2612"
    },
    {
      "channel": 4,
      "note": 78,
      "start": 4.6256,
      "duration": 0.0991,
      "velocity": 118,
      "chip": "ym2612"
    },
    {
      "channel": 2,
      "note": 35,
      "start": 4.7243,
      "duration": 0.0987,
      "velocity": 108,
      "chip": "ym2612"
    },
    {
      "channel": 3,
      "note": 66,
      "start": 4.7246,
      "duration": 0.0987,
      "velocity": 118,
      "chip": "ym2612"
    },
    {
      "channel": 4,
      "note": 74,
      "start": 4.7249,
      "duration": 0.0987,
      "velocity": 118,
      "chip": "ym2612"
    },
    {
      "channel": 0,
      "note": 59,
      "start": 4.8225,
      "duration": 0.3772,
      "velocity": 109,
      "chip": "ym2612"
    },
    {
      "channel": 1,
      "note": 54,
      "start": 4.8228,
      "duration": 0.3772,
      "velocity": 109,
      "chip": "ym2612"
    },
    {
      "channel": 2,
      "note": 35,
      "start": 4.8231,
      "duration": 0.0797,
      "velocity": 1,
      "chip": "ym2612"
    },
    {
      "channel": 3,
      "note": 78,
      "start": 4.8234,
      "duration": 0.0797,
      "velocity": 118,
      "chip": "ym2612"
    },
    {
      "channel": 4,
      "note": 71,
      "start": 4.8238,
      "duration": 0.0797,
      "velocity": 118,
      "chip": "ym2612"
    },
    {
      "channel": 2,
      "note": 35,
      "start": 4.903,
      "duration": 0.0992,
      "velocity": 1,
      "chip": "ym2612"
    },
    {
      "channel": 3,
      "note": 74,
      "start": 4.9033,
      "duration": 0.0992,
      "velocity": 118,
      "chip": "ym2612"
    },
    {
      "channel": 4,
      "note": 66,
      "start": 4.9037,
      "duration": 0.0992,
      "velocity": 118,
      "chip": "ym2612"
    },
    {
      "channel": 2,
      "note": 35,
      "start": 5.0024,
      "duration": 0.0991,
      "velocity": 1,
      "chip": "ym2612"
    },
    {
      "channel": 3,
      "note": 71,
      "start": 5.0027,
      "duration": 0.0991,
      "velocity": 118,
      "chip": "ym2612"
    },
    {
      "channel": 4,
      "note": 78,
      "start": 5.003,
      "duration": 0.0991,
      "velocity": 118,
      "chip": "ym2612"
    },
    {
      "channel": 2,
      "note": 35,
      "start": 5.1017,
      "duration": 0.0996,
      "velocity": 1,
      "chip": "ym2612"
    },
    {
      "channel": 3,
      "note": 66,
      "start": 5.102,
      "duration": 0.0996,
      "velocity": 118,
      "chip": "ym2612"
    },
    {
      "channel": 4,
      "note": 74,
      "start": 5.1023,
      "duration": 0.0996,
      "velocity": 118,
      "chip": "ym2612"
    },
    {
      "channel": 0,
      "note": 59,
      "start": 5.1999,
      "duration": 0.1984,
      "velocity": 109,
      "chip": "ym2612"
    },
    {
      "channel": 1,
      "note": 54,
      "start": 5.2002,
      "duration": 0.1984,
      "velocity": 109,
      "chip": "ym2612"
    },
    {
      "channel": 2,
      "note": 35,
      "start": 5.2014,
      "duration": 0.0978,
      "velocity": 108,
      "chip": "ym2612"
    },
    {
      "channel": 3,
      "note": 78,
      "start": 5.2017,
      "duration": 0.0978,
      "velocity": 118,
      "chip": "ym2612"
    },
    {
      "channel": 4,
      "note": 71,
      "start": 5.2021,
      "duration": 0.0978,
      "velocity": 118,
      "chip": "ym2612"
    },
    {
      "channel": 2,
      "note": 35,
      "start": 5.2994,
      "duration": 0.1005,
      "velocity": 1,
      "chip": "ym2612"
    },
    {
      "channel": 3,
      "note": 74,
      "start": 5.2997,
      "duration": 0.1005,
      "velocity": 118,
      "chip": "ym2612"
    },
    {
      "channel": 4,
      "note": 66,
      "start": 5.3,
      "duration": 0.1005,
      "velocity": 118,
      "chip": "ym2612"
    },
    {
      "channel": 0,
      "note": 59,
      "start": 5.3985,
      "duration": 0.3772,
      "velocity": 109,
      "chip": "ym2612"
    },
    {
      "channel": 1,
      "note": 54,
      "start": 5.3988,
      "duration": 0.3772,
      "velocity": 109,
      "chip": "ym2612"
    },
    {
      "channel": 2,
      "note": 35,
      "start": 5.4001,
      "duration": 0.0987,
      "velocity": 1,
      "chip": "ym2612"
    },
    {
      "channel": 3,
      "note": 71,
      "start": 5.4004,
      "duration": 0.0987,
      "velocity": 118,
      "chip": "ym2612"
    },
    {
      "channel": 4,
      "note": 78,
      "start": 5.4007,
      "duration": 0.0987,
      "velocity": 118,
      "chip": "ym2612"
    },
    {
      "channel": 2,
      "note": 35,
      "start": 5.499,
      "duration": 0.0783,
      "velocity": 108,
      "chip": "ym2612"
    },
    {
      "channel": 3,
      "note": 66,
      "start": 5.4993,
      "duration": 0.0783,
      "velocity": 118,
      "chip": "ym2612"
    },
    {
      "channel": 4,
      "note": 74,
      "start": 5.4996,
      "duration": 0.0783,
      "velocity": 118,
      "chip": "ym2612"
    },
    {
      "channel": 2,
      "note": 35,
      "start": 5.5775,
      "duration": 0.0992,
      "velocity": 108,
      "chip": "ym2612"
    },
    {
      "channel": 3,
      "note": 78,
      "start": 5.5778,
      "duration": 0.0992,
      "velocity": 118,
      "chip": "ym2612"
    },
    {
      "channel": 4,
      "note": 71,
      "start": 5.5781,
      "duration": 0.0992,
      "velocity": 118,
      "chip": "ym2612"
    },
    {
      "channel": 2,
      "note": 35,
      "start": 5.6769,
      "duration": 0.0995,
      "velocity": 108,
      "chip": "ym2612"
    },
    {
      "channel": 3,
      "note": 74,
      "start": 5.6772,
      "duration": 0.0996,
      "velocity": 118,
      "chip": "ym2612"
    },
    {
      "channel": 4,
      "note": 66,
      "start": 5.6775,
      "duration": 0.0996,
      "velocity": 118,
      "chip": "ym2612"
    },
    {
      "channel": 0,
      "note": 59,
      "start": 5.7759,
      "duration": 0.2977,
      "velocity": 109,
      "chip": "ym2612"
    },
    {
      "channel": 1,
      "note": 54,
      "start": 5.7762,
      "duration": 0.2977,
      "velocity": 109,
      "chip": "ym2612"
    },
    {
      "channel": 2,
      "note": 35,
      "start": 5.7766,
      "duration": 0.0987,
      "velocity": 108,
      "chip": "ym2612"
    },
    {
      "channel": 3,
      "note": 71,
      "start": 5.777,
      "duration": 0.0985,
      "velocity": 118,
      "chip": "ym2612"
    },
    {
      "channel": 4,
      "note": 78,
      "start": 5.7773,
      "duration": 0.0985,
      "velocity": 118,
      "chip": "ym2612"
    },
    {
      "channel": 2,
      "note": 35,
      "start": 5.8754,
      "duration": 0.0991,
      "velocity": 108,
      "chip": "ym2612"
    },
    {
      "channel": 3,
      "note": 66,
      "start": 5.8757,
      "duration": 0.0991,
      "velocity": 118,
      "chip": "ym2612"
    },
    {
      "channel": 4,
      "note": 74,
      "start": 5.8761,
      "duration": 0.0991,
      "velocity": 118,
      "chip": "ym2612"
    },
    {
      "channel": 2,
      "note": 35,
      "start": 5.9747,
      "duration": 0.0995,
      "velocity": 108,
      "chip": "ym2612"
    },
    {
      "channel": 3,
      "note": 78,
      "start": 5.975,
      "duration": 0.0995,
      "velocity": 118,
      "chip": "ym2612"
    },
    {
      "channel": 4,
      "note": 71,
      "start": 5.9754,
      "duration": 0.0995,
      "velocity": 118,
      "chip": "ym2612"
    },
    {
      "channel": 0,
      "note": 59,
      "start": 6.0738,
      "duration": 0.2779,
      "velocity": 109,
      "chip": "ym2612"
    },
    {
      "channel": 1,
      "note": 54,
      "start": 6.0741,
      "duration": 0.2778,
      "velocity": 109,
      "chip": "ym2612"
    },
    {
      "channel": 2,
      "note": 35,
      "start": 6.0745,
      "duration": 0.0996,
      "velocity": 1,
      "chip": "ym2612"
    },
    {
      "channel": 3,
      "note": 74,
      "start": 6.0748,
      "duration": 0.0996,
      "velocity": 118,
      "chip": "ym2612"
    },
    {
      "channel": 4,
      "note": 66,
      "start": 6.0751,
      "duration": 0.0996,
      "velocity": 118,
      "chip": "ym2612"
    },
    {
      "channel": 2,
      "note": 35,
      "start": 6.1743,
      "duration": 0.0991,
      "velocity": 1,
      "chip": "ym2612"
    },
    {
      "channel": 3,
      "note": 71,
      "start": 6.1746,
      "duration": 0.0991,
      "velocity": 118,
      "chip": "ym2612"
    },
    {
      "channel": 4,
      "note": 78,
      "start": 6.1749,
      "duration": 0.0991,
      "velocity": 118,
      "chip": "ym2612"
    },
    {
      "channel": 2,
      "note": 35,
      "start": 6.2736,
      "duration": 0.0788,
      "velocity": 108,
      "chip": "ym2612"
    },
    {
      "channel": 3,
      "note": 66,
      "start": 6.2739,
      "duration": 0.0788,
      "velocity": 118,
      "chip": "ym2612"
    },
    {
      "channel": 4,
      "note": 74,
      "start": 6.2742,
      "duration": 0.0788,
      "velocity": 118,
      "chip": "ym2612"
    },
    {
      "channel": 0,
      "note": 59,
      "start": 6.3519,
      "duration": 0.2978,
      "velocity": 109,
      "chip": "ym2612"
    },
    {
      "channel": 1,
      "note": 54,
      "start": 6.3522,
      "duration": 0.2978,
      "velocity": 109,
      "chip": "ym2612"
    },
    {
      "channel": 2,
      "note": 35,
      "start": 6.3525,
      "duration": 0.0997,
      "velocity": 1,
      "chip": "ym2612"
    },
    {
      "channel": 3,
      "note": 78,
      "start": 6.3528,
      "duration": 0.0997,
      "velocity": 118,
      "chip": "ym2612"
    },
    {
      "channel": 4,
      "note": 71,
      "start": 6.3532,
      "duration": 0.0997,
      "velocity": 118,
      "chip": "ym2612"
    },
    {
      "channel": 2,
      "note": 35,
      "start": 6.4524,
      "duration": 0.0991,
      "velocity": 1,
      "chip": "ym2612"
    },
    {
      "channel": 3,
      "note": 74,
      "start": 6.4527,
      "duration": 0.0991,
      "velocity": 118,
      "chip": "ym2612"
    },
    {
      "channel": 4,
      "note": 66,
      "start": 6.453,
      "duration": 0.0991,
      "velocity": 118,
      "chip": "ym2612"
    },
    {
      "channel": 2,
      "note": 35,
      "start": 6.5517,
      "duration": 0.0996,
      "velocity": 1,
      "chip": "ym2612"
    },
    {
      "channel": 3,
      "note": 71,
      "start": 6.552,
      "duration": 0.0996,
      "velocity": 118,
      "chip": "ym2612"
    },
    {
      "channel": 4,
      "note": 78,
      "start": 6.5523,
      "duration": 0.0996,
      "velocity": 118,
      "chip": "ym2612"
    },
    {
      "channel": 0,
      "note": 59,
      "start": 6.6498,
      "duration": 0.2978,
      "velocity": 109,
      "chip": "ym2612"
    },
    {
      "channel": 1,
      "note": 54,
      "start": 6.6502,
      "duration": 0.2978,
      "velocity": 109,
      "chip": "ym2612"
    },
    {
      "channel": 2,
      "note": 35,
      "start": 6.6514,
      "duration": 0.0987,
      "velocity": 1,
      "chip": "ym2612"
    },
    {
      "channel": 3,
      "note": 66,
      "start": 6.6517,
      "duration": 0.0987,
      "velocity": 118,
      "chip": "ym2612"
    },
    {
      "channel": 4,
      "note": 74,
      "start": 6.6521,
      "duration": 0.0987,
      "velocity": 118,
      "chip": "ym2612"
    },
    {
      "channel": 2,
      "note": 35,
      "start": 6.7504,
      "duration": 0.0981,
      "velocity": 108,
      "chip": "ym2612"
    },
    {
      "channel": 3,
      "note": 78,
      "start": 6.7506,
      "duration": 0.0982,
      "velocity": 118,
      "chip": "ym2612"
    },
    {
      "channel": 4,
      "note": 71,
      "start": 6.7509,
      "duration": 0.0982,
      "velocity": 118,
      "chip": "ym2612"
    },
    {
      "channel": 2,
      "note": 35,
      "start": 6.8487,
      "duration": 0.1005,
      "velocity": 1,
      "chip": "ym2612"
    },
    {
      "channel": 3,
      "note": 74,
      "start": 6.849,
      "duration": 0.1005,
      "velocity": 118,
      "chip": "ym2612"
    },
    {
      "channel": 4,
      "note": 66,
      "start": 6.8493,
      "duration": 0.1005,
      "velocity": 118,
      "chip": "ym2612"
    },
    {
      "channel": 0,
      "note": 59,
      "start": 6.9478,
      "duration": 0.1786,
      "velocity": 109,
      "chip": "ym2612"
    },
    {
      "channel": 1,
      "note": 54,
      "start": 6.9481,
      "duration": 0.1787,
      "velocity": 109,
      "chip": "ym2612"
    },
    {
      "channel": 2,
      "note": 35,
      "start": 6.9494,
      "duration": 0.0788,
      "velocity": 1,
      "chip": "ym2612"
    },
    {
      "channel": 3,
      "note": 71,
      "start": 6.9497,
      "duration": 0.0788,
      "velocity": 118,
      "chip": "ym2612"
    },
    {
      "channel": 4,
      "note": 78,
      "start": 6.95,
      "duration": 0.0788,
      "velocity": 118,
      "chip": "ym2612"
    },
    {
      "channel": 2,
      "note": 35,
      "start": 7.0284,
      "duration": 0.0997,
      "velocity": 1,
      "chip": "ym2612"
    },
    {
      "channel": 3,
      "note": 66,
      "start": 7.0287,
      "duration": 0.0997,
      "velocity": 118,
      "chip": "ym2612"
    },
    {
      "channel": 4,
      "note": 74,
      "start": 7.029,
      "duration": 0.0996,
      "velocity": 118,
      "chip": "ym2612"
    },
    {
      "channel": 0,
      "note": 59,
      "start": 7.1267,
      "duration": 0.1983,
      "velocity": 109,
      "chip": "ym2612"
    },
    {
      "channel": 1,
      "note": 54,
      "start": 7.127,
      "duration": 0.1983,
      "velocity": 109,
      "chip": "ym2612"
    },
    {
      "channel": 2,
      "note": 35,
      "start": 7.1283,
      "duration": 0.0976,
      "velocity": 127,
      "chip": "ym2612"
    },
    {
      "channel": 3,
      "note": 78,
      "start": 7.1286,
      "duration": 0.0976,
      "velocity": 118,
      "chip": "ym2612"
    },
    {
      "channel": 4,
      "note": 71,
      "start": 7.1288,
      "duration": 0.0977,
      "velocity": 118,
      "chip": "ym2612"
    },
    {
      "channel": 2,
      "note": 35,
      "start": 7.2261,
      "duration": 0.1006,
      "velocity": 1,
      "chip": "ym2612"
    },
    {
      "channel": 3,
      "note": 74,
      "start": 7.2264,
      "duration": 0.1006,
      "velocity": 118,
      "chip": "ym2612"
    },
    {
      "channel": 4,
      "note": 66,
      "start": 7.2269,
      "duration": 0.1005,
      "velocity": 118,
      "chip": "ym2612"
    },
    {
      "channel": 0,
      "note": 57,
      "start": 7.3252,
      "duration": 0.2977,
      "velocity": 109,
      "chip": "ym2612"
    },
    {
      "channel": 1,
      "note": 52,
      "start": 7.3255,
      "duration": 0.2977,
      "velocity": 109,
      "chip": "ym2612"
    },
    {
      "channel": 2,
      "note": 33,
      "start": 7.3269,
      "duration": 0.0976,
      "velocity": 108,
      "chip": "ym2612"
    },
    {
      "channel": 3,
      "note": 71,
      "start": 7.3273,
      "duration": 0.0976,
      "velocity": 118,
      "chip": "ym2612"
    },
    {
      "channel": 4,
      "note": 76,
      "start": 7.3276,
      "duration": 0.0976,
      "velocity": 118,
      "chip": "ym2612"
    },
    {
      "channel": 2,
      "note": 33,
      "start": 7.4247,
      "duration": 0.0991,
      "velocity": 108,
      "chip": "ym2612"
    },
    {
      "channel": 3,
      "note": 66,
      "start": 7.425,
      "duration": 0.0991,
      "velocity": 118,
      "chip": "ym2612"
    },
    {
      "channel": 4,
      "note": 72,
      "start": 7.4254,
      "duration": 0.0991,
      "velocity": 118,
      "chip": "ym2612"
    },
    {
      "channel": 2,
      "note": 33,
      "start": 7.524,
      "duration": 0.0995,
      "velocity": 108,
      "chip": "ym2612"
    },
    {
      "channel": 3,
      "note": 76,
      "start": 7.5243,
      "duration": 0.0995,
      "velocity": 118,
      "chip": "ym2612"
    },
    {
      "channel": 4,
      "note": 69,
      "start": 7.5246,
      "duration": 0.0996,
      "velocity": 118,
      "chip": "ym2612"
    },
    {
      "channel": 0,
      "note": 57,
      "start": 7.6231,
      "duration": 0.2779,
      "velocity": 109,
      "chip": "ym2612"
    },
    {
      "channel": 1,
      "note": 52,
      "start": 7.6234,
      "duration": 0.2779,
      "velocity": 109,
      "chip": "ym2612"
    },
    {
      "channel": 2,
      "note": 33,
      "start": 7.6238,
      "duration": 0.0798,
      "velocity": 1,
      "chip": "ym2612"
    },
    {
      "channel": 3,
      "note": 72,
      "start": 7.6241,
      "duration": 0.0798,
      "velocity": 118,
      "chip": "ym2612"
    },
    {
      "channel": 4,
      "note": 64,
      "start": 7.6244,
      "duration": 0.0798,
      "velocity": 118,
      "chip": "ym2612"
    },
    {
      "channel": 2,
      "note": 35,
      "start": 7.7037,
      "duration": 0.0991,
      "velocity": 1,
      "chip": "ym2612"
    },
    {
      "channel": 3,
      "note": 69,
      "start": 7.704,
      "duration": 0.0991,
      "velocity": 118,
      "chip": "ym2612"
    },
    {
      "channel": 4,
      "note": 76,
      "start": 7.7044,
      "duration": 0.0991,
      "velocity": 118,
      "chip": "ym2612"
    },
    {
      "channel": 2,
      "note": 33,
      "start": 7.803,
      "duration": 0.0987,
      "velocity": 108,
      "chip": "ym2612"
    },
    {
      "channel": 3,
      "note": 64,
      "start": 7.8033,
      "duration": 0.0987,
      "velocity": 118,
      "chip": "ym2612"
    },
    {
      "channel": 4,
      "note": 72,
      "start": 7.8037,
      "duration": 0.0987,
      "velocity": 118,
      "chip": "ym2612"
    },
    {
      "channel": 0,
      "note": 57,
      "start": 7.9012,
      "duration": 0.3971,
      "velocity": 109,
      "chip": "ym2612"
    },
    {
      "channel": 1,
      "note": 52,
      "start": 7.9016,
      "duration": 0.3971,
      "velocity": 109,
      "chip": "ym2612"
    },
    {
      "channel": 2,
      "note": 33,
      "start": 7.9019,
      "duration": 0.0996,
      "velocity": 1,
      "chip": "ym2612"
    },
    {
      "channel": 3,
      "note": 76,
      "start": 7.9022,
      "duration": 0.0996,
      "velocity": 118,
      "chip": "ym2612"
    },
    {
      "channel": 4,
      "note": 69,
      "start": 7.9025,
      "duration": 0.0996,
      "velocity": 118,
      "chip": "ym2612"
    },
    {
      "channel": 2,
      "note": 35,
      "start": 8.0017,
      "duration": 0.0991,
      "velocity": 1,
      "chip": "ym2612"
    },
    {
      "channel": 3,
      "note": 72,
      "start": 8.002,
      "duration": 0.0991,
      "velocity": 118,
      "chip": "ym2612"
    },
    {
      "channel": 4,
      "note": 64,
      "start": 8.0023,
      "duration": 0.0991,
      "velocity": 118,
      "chip": "ym2612"
    },
    {
      "channel": 2,
      "note": 33,
      "start": 8.101,
      "duration": 0.0991,
      "velocity": 1,
      "chip": "ym2612"
    },
    {
      "channel": 3,
      "note": 69,
      "start": 8.1013,
      "duration": 0.0991,
      "velocity": 118,
      "chip": "ym2612"
    },
    {
      "channel": 4,
      "note": 76,
      "start": 8.1016,
      "duration": 0.0991,
      "velocity": 118,
      "chip": "ym2612"
    },
    {
      "channel": 2,
      "note": 35,
      "start": 8.2003,
      "duration": 0.0996,
      "velocity": 1,
      "chip": "ym2612"
    },
    {
      "channel": 3,
      "note": 64,
      "start": 8.2006,
      "duration": 0.0996,
      "velocity": 118,
      "chip": "ym2612"
    },
    {
      "channel": 4,
      "note": 72,
      "start": 8.2009,
      "duration": 0.0996,
      "velocity": 118,
      "chip": "ym2612"
    },
    {
      "channel": 0,
      "note": 57,
      "start": 8.2985,
      "duration": 0.1786,
      "velocity": 109,
      "chip": "ym2612"
    },
    {
      "channel": 1,
      "note": 52,
      "start": 8.2988,
      "duration": 0.1786,
      "velocity": 109,
      "chip": "ym2612"
    },
    {
      "channel": 2,
      "note": 33,
      "start": 8.3001,
      "duration": 0.0779,
      "velocity": 108,
      "chip": "ym2612"
    },
    {
      "channel": 3,
      "note": 76,
      "start": 8.3004,
      "duration": 0.0779,
      "velocity": 118,
      "chip": "ym2612"
    },
    {
      "channel": 4,
      "note": 69,
      "start": 8.3007,
      "duration": 0.0779,
      "velocity": 118,
      "chip": "ym2612"
    },
    {
      "channel": 2,
      "note": 33,
      "start": 8.3781,
      "duration": 0.1005,
      "velocity": 1,
      "chip": "ym2612"
    },
    {
      "channel": 3,
      "note": 72,
      "start": 8.3785,
      "duration": 0.1005,
      "velocity": 118,
      "chip": "ym2612"
    },
    {
      "channel": 4,
      "note": 64,
      "start": 8.3788,
      "duration": 0.1005,
      "velocity": 118,
      "chip": "ym2612"
    },
    {
      "channel": 0,
      "note": 57,
      "start": 8.4773,
      "duration": 0.3971,
      "velocity": 109,
      "chip": "ym2612"
    },
    {
      "channel": 1,
      "note": 52,
      "start": 8.4776,
      "duration": 0.3971,
      "velocity": 109,
      "chip": "ym2612"
    },
    {
      "channel": 2,
      "note": 35,
      "start": 8.4788,
      "duration": 0.0988,
      "velocity": 1,
      "chip": "ym2612"
    },
    {
      "channel": 3,
      "note": 69,
      "start": 8.4792,
      "duration": 0.0988,
      "velocity": 118,
      "chip": "ym2612"
    },
    {
      "channel": 4,
      "note": 76,
      "start": 8.4795,
      "duration": 0.0988,
      "velocity": 118,
      "chip": "ym2612"
    },
    {
      "channel": 2,
      "note": 33,
      "start": 8.5778,
      "duration": 0.0981,
      "velocity": 108,
      "chip": "ym2612"
    },
    {
      "channel": 3,
      "note": 64,
      "start": 8.5781,
      "duration": 0.0981,
      "velocity": 118,
      "chip": "ym2612"
    },
    {
      "channel": 4,
      "note": 72,
      "start": 8.5785,
      "duration": 0.0981,
      "velocity": 118,
      "chip": "ym2612"
    },
    {
      "channel": 2,
      "note": 33,
      "start": 8.6761,
      "duration": 0.0991,
      "velocity": 108,
      "chip": "ym2612"
    },
    {
      "channel": 3,
      "note": 76,
      "start": 8.6764,
      "duration": 0.0991,
      "velocity": 118,
      "chip": "ym2612"
    },
    {
      "channel": 4,
      "note": 69,
      "start": 8.6769,
      "duration": 0.099,
      "velocity": 118,
      "chip": "ym2612"
    },
    {
      "channel": 2,
      "note": 33,
      "start": 8.7754,
      "duration": 0.0995,
      "velocity": 108,
      "chip": "ym2612"
    },
    {
      "channel": 3,
      "note": 72,
      "start": 8.7757,
      "duration": 0.0995,
      "velocity": 118,
      "chip": "ym2612"
    },
    {
      "channel": 4,
      "note": 64,
      "start": 8.7761,
      "duration": 0.0995,
      "velocity": 118,
      "chip": "ym2612"
    },
    {
      "channel": 0,
      "note": 57,
      "start": 8.8745,
      "duration": 0.2778,
      "velocity": 109,
      "chip": "ym2612"
    },
    {
      "channel": 1,
      "note": 52,
      "start": 8.8749,
      "duration": 0.2778,
      "velocity": 109,
      "chip": "ym2612"
    },
    {
      "channel": 2,
      "note": 33,
      "start": 8.8752,
      "duration": 0.0987,
      "velocity": 108,
      "chip": "ym2612"
    },
    {
      "channel": 3,
      "note": 69,
      "start": 8.8755,
      "duration": 0.0987,
      "velocity": 118,
      "chip": "ym2612"
    },
    {
      "channel": 4,
      "note": 76,
      "start": 8.8758,
      "duration": 0.0987,
      "velocity": 118,
      "chip": "ym2612"
    },
    {
      "channel": 2,
      "note": 33,
      "start": 8.9741,
      "duration": 0.0792,
      "velocity": 108,
      "chip": "ym2612"
    },
    {
      "channel": 3,
      "note": 64,
      "start": 8.9743,
      "duration": 0.0793,
      "velocity": 118,
      "chip": "ym2612"
    },
    {
      "channel": 4,
      "note": 72,
      "start": 8.9746,
      "duration": 0.0793,
      "velocity": 118,
      "chip": "ym2612"
    },
    {
      "channel": 2,
      "note": 33,
      "start": 9.0535,
      "duration": 0.0995,
      "velocity": 108,
      "chip": "ym2612"
    },
    {
      "channel": 3,
      "note": 76,
      "start": 9.0538,
      "duration": 0.0995,
      "velocity": 118,
      "chip": "ym2612"
    },
    {
      "channel": 4,
      "note": 69,
      "start": 9.0541,
      "duration": 0.0995,
      "velocity": 118,
      "chip": "ym2612"
    },
    {
      "channel": 0,
      "note": 57,
      "start": 9.1526,
      "duration": 0.2978,
      "velocity": 109,
      "chip": "ym2612"
    },
    {
      "channel": 1,
      "note": 52,
      "start": 9.1529,
      "duration": 0.2978,
      "velocity": 109,
      "chip": "ym2612"
    },
    {
      "channel": 2,
      "note": 33,
      "start": 9.1532,
      "duration": 0.0996,
      "velocity": 1,
      "chip": "ym2612"
    },
    {
      "channel": 3,
      "note": 72,
      "start": 9.1535,
      "duration": 0.0996,
      "velocity": 118,
      "chip": "ym2612"
    },
    {
      "channel": 4,
      "note": 64,
      "start": 9.1539,
      "duration": 0.0996,
      "velocity": 118,
      "chip": "ym2612"
    },
    {
      "channel": 2,
      "note": 35,
      "start": 9.253,
      "duration": 0.0992,
      "velocity": 1,
      "chip": "ym2612"
    },
    {
      "channel": 3,
      "note": 69,
      "start": 9.2533,
      "duration": 0.0992,
      "velocity": 118,
      "chip": "ym2612"
    },
    {
      "channel": 4,
      "note": 76,
      "start": 9.2537,
      "duration": 0.0992,
      "velocity": 118,
      "chip": "ym2612"
    },
    {
      "channel": 2,
      "note": 33,
      "start": 9.3524,
      "duration": 0.0986,
      "velocity": 108,
      "chip": "ym2612"
    },
    {
      "channel": 3,
      "note": 64,
      "start": 9.3527,
      "duration": 0.0986,
      "velocity": 118,
      "chip": "ym2612"
    },
    {
      "channel": 4,
      "note": 72,
      "start": 9.353,
      "duration": 0.0986,
      "velocity": 118,
      "chip": "ym2612"
    },
    {
      "channel": 0,
      "note": 57,
      "start": 9.4505,
      "duration": 0.2779,
      "velocity": 109,
      "chip": "ym2612"
    },
    {
      "channel": 1,
      "note": 52,
      "start": 9.4509,
      "duration": 0.2779,
      "velocity": 109,
      "chip": "ym2612"
    },
    {
      "channel": 2,
      "note": 33,
      "start": 9.4512,
      "duration": 0.0996,
      "velocity": 1,
      "chip": "ym2612"
    },
    {
      "channel": 3,
      "note": 76,
      "start": 9.4515,
      "duration": 0.0996,
      "velocity": 118,
      "chip": "ym2612"
    },
    {
      "channel": 4,
      "note": 69,
      "start": 9.4518,
      "duration": 0.0996,
      "velocity": 118,
      "chip": "ym2612"
    },
    {
      "channel": 2,
      "note": 35,
      "start": 9.551,
      "duration": 0.0991,
      "velocity": 1,
      "chip": "ym2612"
    },
    {
      "channel": 3,
      "note": 72,
      "start": 9.5513,
      "duration": 0.0991,
      "velocity": 118,
      "chip": "ym2612"
    },
    {
      "channel": 4,
      "note": 64,
      "start": 9.5516,
      "duration": 0.0991,
      "velocity": 118,
      "chip": "ym2612"
    },
    {
      "channel": 2,
      "note": 33,
      "start": 9.6503,
      "duration": 0.0797,
      "velocity": 1,
      "chip": "ym2612"
    },
    {
      "channel": 3,
      "note": 69,
      "start": 9.6506,
      "duration": 0.0797,
      "velocity": 118,
      "chip": "ym2612"
    },
    {
      "channel": 4,
      "note": 76,
      "start": 9.6509,
      "duration": 0.0797,
      "velocity": 118,
      "chip": "ym2612"
    },
    {
      "channel": 0,
      "note": 57,
      "start": 9.7286,
      "duration": 0.2978,
      "velocity": 109,
      "chip": "ym2612"
    },
    {
      "channel": 1,
      "note": 52,
      "start": 9.7289,
      "duration": 0.298,
      "velocity": 109,
      "chip": "ym2612"
    },
    {
      "channel": 2,
      "note": 35,
      "start": 9.7302,
      "duration": 0.0987,
      "velocity": 1,
      "chip": "ym2612"
    },
    {
      "channel": 3,
      "note": 64,
      "start": 9.7305,
      "duration": 0.0987,
      "velocity": 118,
      "chip": "ym2612"
    },
    {
      "channel": 4,
      "note": 72,
      "start": 9.7308,
      "duration": 0.0987,
      "velocity": 118,
      "chip": "ym2612"
    },
    {
      "channel": 2,
      "note": 33,
      "start": 9.829,
      "duration": 0.0982,
      "velocity": 108,
      "chip": "ym2612"
    },
    {
      "channel": 3,
      "note": 76,
      "start": 9.8294,
      "duration": 0.0982,
      "velocity": 118,
      "chip": "ym2612"
    },
    {
      "channel": 4,
      "note": 69,
      "start": 9.8297,
      "duration": 0.0982,
      "velocity": 118,
      "chip": "ym2612"
    },
    {
      "channel": 2,
      "note": 33,
      "start": 9.9275,
      "duration": 0.1006,
      "velocity": 1,
      "chip": "ym2612"
    },
    {
      "channel": 3,
      "note": 72,
      "start": 9.9278,
      "duration": 0.1006,
      "velocity": 118,
      "chip": "ym2612"
    },
    {
      "channel": 4,
      "note": 64,
      "start": 9.9281,
      "duration": 0.1006,
      "velocity": 118,
      "chip": "ym2612"
    },
    {
      "channel": 0,
      "note": 57,
      "start": 10.0267,
      "duration": 0.1983,
      "velocity": 109,
      "chip": "ym2612"
    },
    {
      "channel": 1,
      "note": 52,
      "start": 10.0271,
      "duration": 0.1983,
      "velocity": 109,
      "chip": "ym2612"
    },
    {
      "channel": 2,
      "note": 35,
      "start": 10.0283,
      "duration": 0.0987,
      "velocity": 1,
      "chip": "ym2612"
    },
    {
      "channel": 3,
      "note": 69,
      "start": 10.0286,
      "duration": 0.0987,
      "velocity": 118,
      "chip": "ym2612"
    },
    {
      "channel": 4,
      "note": 76,
      "start": 10.0289,
      "duration": 0.0987,
      "velocity": 118,
      "chip": "ym2612"
    },
    {
      "channel": 2,
      "note": 33,
      "start": 10.1271,
      "duration": 0.0985,
      "velocity": 108,
      "chip": "ym2612"
    },
    {
      "channel": 3,
      "note": 64,
      "start": 10.1275,
      "duration": 0.0985,
      "velocity": 118,
      "chip": "ym2612"
    },
    {
      "channel": 4,
      "note": 72,
      "start": 10.1278,
      "duration": 0.0985,
      "velocity": 118,
      "chip": "ym2612"
    },
    {
      "channel": 0,
      "note": 57,
      "start": 10.2252,
      "duration": 0.1984,
      "velocity": 109,
      "chip": "ym2612"
    },
    {
      "channel": 1,
      "note": 52,
      "start": 10.2255,
      "duration": 0.1984,
      "velocity": 109,
      "chip": "ym2612"
    },
    {
      "channel": 2,
      "note": 33,
      "start": 10.2259,
      "duration": 0.0996,
      "velocity": 1,
      "chip": "ym2612"
    },
    {
      "channel": 3,
      "note": 76,
      "start": 10.2262,
      "duration": 0.0996,
      "velocity": 118,
      "chip": "ym2612"
    },
    {
      "channel": 4,
      "note": 69,
      "start": 10.2264,
      "duration": 0.0997,
      "velocity": 118,
      "chip": "ym2612"
    },
    {
      "channel": 2,
      "note": 35,
      "start": 10.3257,
      "duration": 0.0995,
      "velocity": 1,
      "chip": "ym2612"
    },
    {
      "channel": 3,
      "note": 72,
      "start": 10.326,
      "duration": 0.0995,
      "velocity": 118,
      "chip": "ym2612"
    },
    {
      "channel": 4,
      "note": 64,
      "start": 10.3263,
      "duration": 0.0995,
      "velocity": 118,
      "chip": "ym2612"
    },
    {
      "channel": 0,
      "note": 59,
      "start": 10.4238,
      "duration": 0.2778,
      "velocity": 109,
      "chip": "ym2612"
    },
    {
      "channel": 1,
      "note": 54,
      "start": 10.4241,
      "duration": 0.2778,
      "velocity": 109,
      "chip": "ym2612"
    },
    {
      "channel": 2,
      "note": 35,
      "start": 10.4254,
      "duration": 0.0779,
      "velocity": 108,
      "chip": "ym2612"
    },
    {
      "channel": 3,
      "note": 69,
      "start": 10.4257,
      "duration": 0.0779,
      "velocity": 118,
      "chip": "ym2612"
    },
    {
      "channel": 4,
      "note": 78,
      "start": 10.4261,
      "duration": 0.0779,
      "velocity": 118,
      "chip": "ym2612"
    },
    {
      "channel": 2,
      "note": 35,
      "start": 10.5035,
      "duration": 0.0992,
      "velocity": 108,
      "chip": "ym2612"
    },
    {
      "channel": 3,
      "note": 64,
      "start": 10.5038,
      "duration": 0.0992,
      "velocity": 118,
      "chip": "ym2612"
    },
    {
      "channel": 4,
      "note": 74,
      "start": 10.5041,
      "duration": 0.0992,
      "velocity": 118,
      "chip": "ym2612"
    },
    {
      "channel": 2,
      "note": 35,
      "start": 10.6028,
      "duration": 0.0995,
      "velocity": 108,
      "chip": "ym2612"
    },
    {
      "channel": 3,
      "note": 78,
      "start": 10.6032,
      "duration": 0.0995,
      "velocity": 118,
      "chip": "ym2612"
    },
    {
      "channel": 4,
      "note": 71,
      "start": 10.6035,
      "duration": 0.0995,
      "velocity": 118,
      "chip": "ym2612"
    },
    {
      "channel": 0,
      "note": 59,
      "start": 10.7019,
      "duration": 0.2978,
      "velocity": 109,
      "chip": "ym2612"
    },
    {
      "channel": 1,
      "note": 54,
      "start": 10.7022,
      "duration": 0.2978,
      "velocity": 109,
      "chip": "ym2612"
    },
    {
      "channel": 2,
      "note": 35,
      "start": 10.7025,
      "duration": 0.0997,
      "velocity": 1,
      "chip": "ym2612"
    },
    {
      "channel": 3,
      "note": 74,
      "start": 10.7028,
      "duration": 0.0997,
      "velocity": 118,
      "chip": "ym2612"
    },
    {
      "channel": 4,
      "note": 66,
      "start": 10.7032,
      "duration": 0.0997,
      "velocity": 118,
      "chip": "ym2612"
    },
    {
      "channel": 2,
      "note": 35,
      "start": 10.8024,
      "duration": 0.0991,
      "velocity": 1,
      "chip": "ym2612"
    },
    {
      "channel": 3,
      "note": 71,
      "start": 10.8027,
      "duration": 0.0991,
      "velocity": 118,
      "chip": "ym2612"
    },
    {
      "channel": 4,
      "note": 78,
      "start": 10.803,
      "duration": 0.0991,
      "velocity": 118,
      "chip": "ym2612"
    },
    {
      "channel": 2,
      "note": 35,
      "start": 10.9017,
      "duration": 0.0987,
      "velocity": 108,
      "chip": "ym2612"
    },
    {
      "channel": 3,
      "note": 66,
      "start": 10.902,
      "duration": 0.0987,
      "velocity": 118,
      "chip": "ym2612"
    },
    {
      "channel": 4,
      "note": 74,
      "start": 10.9023,
      "duration": 0.0987,
      "velocity": 118,
      "chip": "ym2612"
    },
    {
      "channel": 0,
      "note": 59,
      "start": 10.9999,
      "duration": 0.3772,
      "velocity": 109,
      "chip": "ym2612"
    },
    {
      "channel": 1,
      "note": 54,
      "start": 11.0002,
      "duration": 0.3772,
      "velocity": 109,
      "chip": "ym2612"
    },
    {
      "channel": 2,
      "note": 35,
      "start": 11.0005,
      "duration": 0.0995,
      "velocity": 1,
      "chip": "ym2612"
    },
    {
      "channel": 3,
      "note": 78,
      "start": 11.0009,
      "duration": 0.0995,
      "velocity": 118,
      "chip": "ym2612"
    },
    {
      "channel": 4,
      "note": 71,
      "start": 11.0012,
      "duration": 0.0995,
      "velocity": 118,
      "chip": "ym2612"
    },
    {
      "channel": 2,
      "note": 35,
      "start": 11.1003,
      "duration": 0.0793,
      "velocity": 1,
      "chip": "ym2612"
    },
    {
      "channel": 3,
      "note": 74,
      "start": 11.1006,
      "duration": 0.0793,
      "velocity": 118,
      "chip": "ym2612"
    },
    {
      "channel": 4,
      "note": 66,
      "start": 11.1009,
      "duration": 0.0793,
      "velocity": 118,
      "chip": "ym2612"
    },
    {
      "channel": 2,
      "note": 35,
      "start": 11.1798,
      "duration": 0.0992,
      "velocity": 1,
      "chip": "ym2612"
    },
    {
      "channel": 3,
      "note": 71,
      "start": 11.1801,
      "duration": 0.0991,
      "velocity": 118,
      "chip": "ym2612"
    },
    {
      "channel": 4,
      "note": 78,
      "start": 11.1804,
      "duration": 0.0991,
      "velocity": 118,
      "chip": "ym2612"
    },
    {
      "channel": 2,
      "note": 35,
      "start": 11.2791,
      "duration": 0.0995,
      "velocity": 1,
      "chip": "ym2612"
    },
    {
      "channel": 3,
      "note": 66,
      "start": 11.2794,
      "duration": 0.0996,
      "velocity": 118,
      "chip": "ym2612"
    },
    {
      "channel": 4,
      "note": 74,
      "start": 11.2797,
      "duration": 0.0996,
      "velocity": 118,
      "chip": "ym2612"
    },
    {
      "channel": 0,
      "note": 59,
      "start": 11.3773,
      "duration": 0.1985,
      "velocity": 109,
      "chip": "ym2612"
    },
    {
      "channel": 1,
      "note": 54,
      "start": 11.3776,
      "duration": 0.1985,
      "velocity": 109,
      "chip": "ym2612"
    },
    {
      "channel": 2,
      "note": 35,
      "start": 11.3788,
      "duration": 0.0978,
      "velocity": 108,
      "chip": "ym2612"
    },
    {
      "channel": 3,
      "note": 78,
      "start": 11.3792,
      "duration": 0.0978,
      "velocity": 118,
      "chip": "ym2612"
    },
    {
      "channel": 4,
      "note": 71,
      "start": 11.3795,
      "duration": 0.0978,
      "velocity": 118,
      "chip": "ym2612"
    },
    {
      "channel": 2,
      "note": 35,
      "start": 11.4769,
      "duration": 0.1005,
      "velocity": 1,
      "chip": "ym2612"
    },
    {
      "channel": 3,
      "note": 74,
      "start": 11.4772,
      "duration": 0.1005,
      "velocity": 118,
      "chip": "ym2612"
    },
    {
      "channel": 4,
      "note": 66,
      "start": 11.4775,
      "duration": 0.1005,
      "velocity": 118,
      "chip": "ym2612"
    },
    {
      "channel": 0,
      "note": 59,
      "start": 11.5759,
      "duration": 0.3772,
      "velocity": 109,
      "chip": "ym2612"
    },
    {
      "channel": 1,
      "note": 54,
      "start": 11.5762,
      "duration": 0.1982,
      "velocity": 109,
      "chip": "ym2612"
    },
    {
      "channel": 2,
      "note": 35,
      "start": 11.5776,
      "duration": 0.0985,
      "velocity": 1,
      "chip": "ym2612"
    },
    {
      "channel": 3,
      "note": 71,
      "start": 11.5779,
      "duration": 0.0985,
      "velocity": 118,
      "chip": "ym2612"
    },
    {
      "channel": 4,
      "note": 78,
      "start": 11.5782,
      "duration": 0.0987,
      "velocity": 118,
      "chip": "ym2612"
    },
    {
      "channel": 2,
      "note": 35,
      "start": 11.6763,
      "duration": 0.0985,
      "velocity": 108,
      "chip": "ym2612"
    },
    {
      "channel": 3,
      "note": 66,
      "start": 11.6768,
      "duration": 0.0983,
      "velocity": 118,
      "chip": "ym2612"
    },
    {
      "channel": 4,
      "note": 74,
      "start": 11.6771,
      "duration": 0.0983,
      "velocity": 118,
      "chip": "ym2612"
    },
    {
      "channel": 1,
      "note": 59,
      "start": 11.7746,
      "duration": 0.3772,
      "velocity": 109,
      "chip": "ym2612"
    },
    {
      "channel": 2,
      "note": 35,
      "start": 11.775,
      "duration": 0.079,
      "velocity": 108,
      "chip": "ym2612"
    },
    {
      "channel": 3,
      "note": 78,
      "start": 11.7753,
      "duration": 0.079,
      "velocity": 118,
      "chip": "ym2612"
    },
    {
      "channel": 4,
      "note": 71,
      "start": 11.7756,
      "duration": 0.079,
      "velocity": 118,
      "chip": "ym2612"
    },
    {
      "channel": 2,
      "note": 35,
      "start": 11.8542,
      "duration": 0.0994,
      "velocity": 108,
      "chip": "ym2612"
    },
    {
      "channel": 3,
      "note": 74,
      "start": 11.8545,
      "duration": 0.0994,
      "velocity": 118,
      "chip": "ym2612"
    },
    {
      "channel": 4,
      "note": 66,
      "start": 11.8548,
      "duration": 0.0994,
      "velocity": 118,
      "chip": "ym2612"
    },
    {
      "channel": 0,
      "note": 59,
      "start": 11.9533,
      "duration": 0.2978,
      "velocity": 109,
      "chip": "ym2612"
    },
    {
      "channel": 2,
      "note": 35,
      "start": 11.9537,
      "duration": 0.0989,
      "velocity": 108,
      "chip": "ym2612"
    },
    {
      "channel": 3,
      "note": 71,
      "start": 11.954,
      "duration": 0.0989,
      "velocity": 118,
      "chip": "ym2612"
    },
    {
      "channel": 4,
      "note": 78,
      "start": 11.9544,
      "duration": 0.0989,
      "velocity": 118,
      "chip": "ym2612"
    },
    {
      "channel": 2,
      "note": 35,
      "start": 12.0528,
      "duration": 0.0993,
      "velocity": 108,
      "chip": "ym2612"
    },
    {
      "channel": 3,
      "note": 66,
      "start": 12.0532,
      "duration": 0.0993,
      "velocity": 118,
      "chip": "ym2612"
    },
    {
      "channel": 4,
      "note": 74,
      "start": 12.0535,
      "duration": 0.0993,
      "velocity": 118,
      "chip": "ym2612"
    },
    {
      "channel": 1,
      "note": 54,
      "start": 12.152,
      "duration": 0.2978,
      "velocity": 109,
      "chip": "ym2612"
    },
    {
      "channel": 2,
      "note": 35,
      "start": 12.1523,
      "duration": 0.0991,
      "velocity": 108,
      "chip": "ym2612"
    },
    {
      "channel": 3,
      "note": 78,
      "start": 12.1526,
      "duration": 0.0991,
      "velocity": 118,
      "chip": "ym2612"
    },
    {
      "channel": 4,
      "note": 71,
      "start": 12.153,
      "duration": 0.0991,
      "velocity": 118,
      "chip": "ym2612"
    },
    {
      "channel": 0,
      "note": 59,
      "start": 12.2512,
      "duration": 0.2779,
      "velocity": 109,
      "chip": "ym2612"
    },
    {
      "channel": 2,
      "note": 35,
      "start": 12.2516,
      "duration": 0.0999,
      "velocity": 1,
      "chip": "ym2612"
    },
    {
      "channel": 3,
      "note": 74,
      "start": 12.252,
      "duration": 0.0999,
      "velocity": 118,
      "chip": "ym2612"
    },
    {
      "channel": 4,
      "note": 66,
      "start": 12.2523,
      "duration": 0.0999,
      "velocity": 118,
      "chip": "ym2612"
    },
    {
      "channel": 2,
      "note": 35,
      "start": 12.3517,
      "duration": 0.0993,
      "velocity": 1,
      "chip": "ym2612"
    },
    {
      "channel": 3,
      "note": 71,
      "start": 12.352,
      "duration": 0.0993,
      "velocity": 118,
      "chip": "ym2612"
    },
    {
      "channel": 4,
      "note": 78,
      "start": 12.3523,
      "duration": 0.0993,
      "velocity": 118,
      "chip": "ym2612"
    },
    {
      "channel": 1,
      "note": 54,
      "start": 12.45,
      "duration": 0.2778,
      "velocity": 109,
      "chip": "ym2612"
    },
    {
      "channel": 2,
      "note": 35,
      "start": 12.4512,
      "duration": 0.0793,
      "velocity": 1,
      "chip": "ym2612"
    },
    {
      "channel": 3,
      "note": 66,
      "start": 12.4515,
      "duration": 0.0793,
      "velocity": 118,
      "chip": "ym2612"
    },
    {
      "channel": 4,
      "note": 74,
      "start": 12.4518,
      "duration": 0.0793,
      "velocity": 118,
      "chip": "ym2612"
    },
    {
      "channel": 0,
      "note": 59,
      "start": 12.5293,
      "duration": 0.2978,
      "velocity": 109,
      "chip": "ym2612"
    },
    {
      "channel": 2,
      "note": 35,
      "start": 12.5306,
      "duration": 0.098,
      "velocity": 127,
      "chip": "ym2612"
    },
    {
      "channel": 3,
      "note": 78,
      "start": 12.531,
      "duration": 0.098,
      "velocity": 118,
      "chip": "ym2612"
    },
    {
      "channel": 4,
      "note": 71,
      "start": 12.5313,
      "duration": 0.098,
      "velocity": 118,
      "chip": "ym2612"
    },
    {
      "channel": 2,
      "note": 35,
      "start": 12.6288,
      "duration": 0.1003,
      "velocity": 1,
      "chip": "ym2612"
    },
    {
      "channel": 3,
      "note": 74,
      "start": 12.6292,
      "duration": 0.1003,
      "velocity": 118,
      "chip": "ym2612"
    },
    {
      "channel": 4,
      "note": 66,
      "start": 12.6295,
      "duration": 0.1003,
      "velocity": 118,
      "chip": "ym2612"
    },
    {
      "channel": 1,
      "note": 54,
      "start": 12.728,
      "duration": 0.2978,
      "velocity": 109,
      "chip": "ym2612"
    },
    {
      "channel": 2,
      "note": 35,
      "start": 12.7293,
      "duration": 0.0991,
      "velocity": 1,
      "chip": "ym2612"
    },
    {
      "channel": 3,
      "note": 71,
      "start": 12.7296,
      "duration": 0.0991,
      "velocity": 118,
      "chip": "ym2612"
    },
    {
      "channel": 4,
      "note": 78,
      "start": 12.7299,
      "duration": 0.0991,
      "velocity": 118,
      "chip": "ym2612"
    },
    {
      "channel": 0,
      "note": 59,
      "start": 12.8273,
      "duration": 0.2978,
      "velocity": 109,
      "chip": "ym2612"
    },
    {
      "channel": 2,
      "note": 35,
      "start": 12.8286,
      "duration": 0.0981,
      "velocity": 127,
      "chip": "ym2612"
    },
    {
      "channel": 3,
      "note": 66,
      "start": 12.8289,
      "duration": 0.0981,
      "velocity": 118,
      "chip": "ym2612"
    },
    {
      "channel": 4,
      "note": 74,
      "start": 12.8292,
      "duration": 0.0981,
      "velocity": 118,
      "chip": "ym2612"
    },
    {
      "channel": 2,
      "note": 35,
      "start": 12.9269,
      "duration": 0.1003,
      "velocity": 1,
      "chip": "ym2612"
    },
    {
      "channel": 3,
      "note": 78,
      "start": 12.9272,
      "duration": 0.1003,
      "velocity": 118,
      "chip": "ym2612"
    },
    {
      "channel": 4,
      "note": 71,
      "start": 12.9275,
      "duration": 0.1003,
      "velocity": 118,
      "chip": "ym2612"
    },
    {
      "channel": 1,
      "note": 54,
      "start": 13.026,
      "duration": 0.2779,
      "velocity": 109,
      "chip": "ym2612"
    },
    {
      "channel": 2,
      "note": 35,
      "start": 13.0274,
      "duration": 0.099,
      "velocity": 1,
      "chip": "ym2612"
    },
    {
      "channel": 3,
      "note": 74,
      "start": 13.0277,
      "duration": 0.0991,
      "velocity": 118,
      "chip": "ym2612"
    },
    {
      "channel": 4,
      "note": 66,
      "start": 13.028,
      "duration": 0.0991,
      "velocity": 118,
      "chip": "ym2612"
    },
    {
      "channel": 0,
      "note": 59,
      "start": 13.1252,
      "duration": 0.0793,
      "velocity": 109,
      "chip": "ym2612"
    },
    {
      "channel": 2,
      "note": 35,
      "start": 13.1266,
      "duration": 0.0781,
      "velocity": 127,
      "chip": "ym2612"
    },
    {
      "channel": 3,
      "note": 71,
      "start": 13.127,
      "duration": 0.078,
      "velocity": 118,
      "chip": "ym2612"
    },
    {
      "channel": 4,
      "note": 78,
      "start": 13.1273,
      "duration": 0.078,
      "velocity": 118,
      "chip": "ym2612"
    },
    {
      "channel": 2,
      "note": 35,
      "start": 13.2049,
      "duration": 0.0993,
      "velocity": 127,
      "chip": "ym2612"
    },
    {
      "channel": 3,
      "note": 66,
      "start": 13.2053,
      "duration": 0.0992,
      "velocity": 118,
      "chip": "ym2612"
    },
    {
      "channel": 4,
      "note": 74,
      "start": 13.2056,
      "duration": 0.0992,
      "velocity": 118,
      "chip": "ym2612"
    },
    {
      "channel": 1,
      "note": 54,
      "start": 13.3041,
      "duration": 0.1989,
      "velocity": 109,
      "chip": "ym2612"
    },
    {
      "channel": 2,
      "note": 35,
      "start": 13.3044,
      "duration": 0.0989,
      "velocity": 127,
      "chip": "ym2612"
    },
    {
      "channel": 3,
      "note": 78,
      "start": 13.3047,
      "duration": 0.0989,
      "velocity": 118,
      "chip": "ym2612"
    },
    {
      "channel": 4,
      "note": 71,
      "start": 13.305,
      "duration": 0.0989,
      "velocity": 118,
      "chip": "ym2612"
    },
    {
      "channel": 2,
      "note": 35,
      "start": 13.4035,
      "duration": 0.1008,
      "velocity": 1,
      "chip": "ym2612"
    },
    {
      "channel": 3,
      "note": 74,
      "start": 13.4038,
      "duration": 0.1021,
      "velocity": 1,
      "chip": "ym2612"
    },
    {
      "channel": 4,
      "note": 66,
      "start": 13.4041,
      "duration": 0.1032,
      "velocity": 1,
      "chip": "ym2612"
    },
    {
      "channel": 0,
      "note": 59,
      "start": 13.5027,
      "duration": 0.2977,
      "velocity": 109,
      "chip": "ym2612"
    },
    {
      "channel": 1,
      "note": 52,
      "start": 13.5032,
      "duration": 0.2975,
      "velocity": 109,
      "chip": "ym2612"
    },
    {
      "channel": 2,
      "note": 40,
      "start": 13.5045,
      "duration": 0.0975,
      "velocity": 108,
      "chip": "ym2612"
    },
    {
      "channel": 3,
      "note": 71,
      "start": 13.506,
      "duration": 0.1956,
      "velocity": 82,
      "chip": "ym2612"
    },
    {
      "channel": 4,
      "note": 83,
      "start": 13.5075,
      "duration": 0.0948,
      "velocity": 118,
      "chip": "ym2612"
    },
    {
      "channel": 2,
      "note": 40,
      "start": 13.6021,
      "duration": 0.0991,
      "velocity": 108,
      "chip": "ym2612"
    },
    {
      "channel": 4,
      "note": 79,
      "start": 13.6025,
      "duration": 0.0994,
      "velocity": 118,
      "chip": "ym2612"
    },
    {
      "channel": 2,
      "note": 40,
      "start": 13.7014,
      "duration": 0.0996,
      "velocity": 108,
      "chip": "ym2612"
    },
    {
      "channel": 3,
      "note": 67,
      "start": 13.7017,
      "duration": 0.1994,
      "velocity": 82,
      "chip": "ym2612"
    },
    {
      "channel": 4,
      "note": 76,
      "start": 13.7021,
      "duration": 0.0993,
      "velocity": 118,
      "chip": "ym2612"
    },
    {
      "channel": 0,
      "note": 59,
      "start": 13.8005,
      "duration": 0.2779,
      "velocity": 109,
      "chip": "ym2612"
    },
    {
      "channel": 1,
      "note": 52,
      "start": 13.8009,
      "duration": 0.2779,
      "velocity": 109,
      "chip": "ym2612"
    },
    {
      "channel": 2,
      "note": 40,
      "start": 13.8012,
      "duration": 0.0996,
      "velocity": 1,
      "chip": "ym2612"
    },
    {
      "channel": 4,
      "note": 71,
      "start": 13.8016,
      "duration": 0.0999,
      "velocity": 118,
      "chip": "ym2612"
    },
    {
      "channel": 2,
      "note": 35,
      "start": 13.901,
      "duration": 0.0793,
      "velocity": 1,
      "chip": "ym2612"
    },
    {
      "channel": 3,
      "note": 64,
      "start": 13.9013,
      "duration": 0.1781,
      "velocity": 82,
      "chip": "ym2612"
    },
    {
      "channel": 4,
      "note": 83,
      "start": 13.9016,
      "duration": 0.0791,
      "velocity": 118,
      "chip": "ym2612"
    },
    {
      "channel": 2,
      "note": 40,
      "start": 13.9804,
      "duration": 0.0987,
      "velocity": 108,
      "chip": "ym2612"
    },
    {
      "channel": 4,
      "note": 79,
      "start": 13.9809,
      "duration": 0.0989,
      "velocity": 118,
      "chip": "ym2612"
    },
    {
      "channel": 0,
      "note": 59,
      "start": 14.0787,
      "duration": 0.3971,
      "velocity": 109,
      "chip": "ym2612"
    },
    {
      "channel": 1,
      "note": 52,
      "start": 14.079,
      "duration": 0.3971,
      "velocity": 109,
      "chip": "ym2612"
    },
    {
      "channel": 2,
      "note": 40,
      "start": 14.0793,
      "duration": 0.0996,
      "velocity": 1,
      "chip": "ym2612"
    },
    {
      "channel": 3,
      "note": 59,
      "start": 14.0796,
      "duration": 0.1989,
      "velocity": 82,
      "chip": "ym2612"
    },
    {
      "channel": 4,
      "note": 76,
      "start": 14.0799,
      "duration": 0.0994,
      "velocity": 118,
      "chip": "ym2612"
    },
    {
      "channel": 2,
      "note": 35,
      "start": 14.1791,
      "duration": 0.0991,
      "velocity": 1,
      "chip": "ym2612"
    },
    {
      "channel": 4,
      "note": 71,
      "start": 14.1795,
      "duration": 0.0994,
      "velocity": 118,
      "chip": "ym2612"
    },
    {
      "channel": 2,
      "note": 40,
      "start": 14.2784,
      "duration": 0.0992,
      "velocity": 1,
      "chip": "ym2612"
    },
    {
      "channel": 3,
      "note": 71,
      "start": 14.2787,
      "duration": 0.199,
      "velocity": 82,
      "chip": "ym2612"
    },
    {
      "channel": 4,
      "note": 83,
      "start": 14.279,
      "duration": 0.099,
      "velocity": 118,
      "chip": "ym2612"
    },
    {
      "channel": 2,
      "note": 35,
      "start": 14.3778,
      "duration": 0.0996,
      "velocity": 1,
      "chip": "ym2612"
    },
    {
      "channel": 4,
      "note": 79,
      "start": 14.3783,
      "duration": 0.0998,
      "velocity": 118,
      "chip": "ym2612"
    },
    {
      "channel": 0,
      "note": 59,
      "start": 14.4759,
      "duration": 0.1786,
      "velocity": 109,
      "chip": "ym2612"
    },
    {
      "channel": 1,
      "note": 52,
      "start": 14.4762,
      "duration": 0.1786,
      "velocity": 109,
      "chip": "ym2612"
    },
    {
      "channel": 2,
      "note": 40,
      "start": 14.4776,
      "duration": 0.0976,
      "velocity": 108,
      "chip": "ym2612"
    },
    {
      "channel": 3,
      "note": 67,
      "start": 14.4779,
      "duration": 0.1785,
      "velocity": 82,
      "chip": "ym2612"
    },
    {
      "channel": 4,
      "note": 76,
      "start": 14.4782,
      "duration": 0.0975,
      "velocity": 118,
      "chip": "ym2612"
    },
    {
      "channel": 2,
      "note": 40,
      "start": 14.5754,
      "duration": 0.0807,
      "velocity": 1,
      "chip": "ym2612"
    },
    {
      "channel": 4,
      "note": 71,
      "start": 14.5759,
      "duration": 0.0809,
      "velocity": 118,
      "chip": "ym2612"
    },
    {
      "channel": 0,
      "note": 59,
      "start": 14.6547,
      "duration": 0.3971,
      "velocity": 109,
      "chip": "ym2612"
    },
    {
      "channel": 1,
      "note": 52,
      "start": 14.655,
      "duration": 0.3971,
      "velocity": 109,
      "chip": "ym2612"
    },
    {
      "channel": 2,
      "note": 35,
      "start": 14.6563,
      "duration": 0.0987,
      "velocity": 1,
      "chip": "ym2612"
    },
    {
      "channel": 3,
      "note": 64,
      "start": 14.6566,
      "duration": 0.197,
      "velocity": 82,
      "chip": "ym2612"
    },
    {
      "channel": 4,
      "note": 83,
      "start": 14.6569,
      "duration": 0.0984,
      "velocity": 118,
      "chip": "ym2612"
    },
    {
      "channel": 2,
      "note": 40,
      "start": 14.7551,
      "duration": 0.0982,
      "velocity": 108,
      "chip": "ym2612"
    },
    {
      "channel": 4,
      "note": 79,
      "start": 14.7555,
      "duration": 0.0984,
      "velocity": 118,
      "chip": "ym2612"
    },
    {
      "channel": 2,
      "note": 40,
      "start": 14.8535,
      "duration": 0.0992,
      "velocity": 108,
      "chip": "ym2612"
    },
    {
      "channel": 3,
      "note": 59,
      "start": 14.8538,
      "duration": 0.1989,
      "velocity": 82,
      "chip": "ym2612"
    },
    {
      "channel": 4,
      "note": 76,
      "start": 14.8541,
      "duration": 0.0989,
      "velocity": 118,
      "chip": "ym2612"
    },
    {
      "channel": 2,
      "note": 40,
      "start": 14.9528,
      "duration": 0.0995,
      "velocity": 108,
      "chip": "ym2612"
    },
    {
      "channel": 4,
      "note": 71,
      "start": 14.9532,
      "duration": 0.0998,
      "velocity": 118,
      "chip": "ym2612"
    },
    {
      "channel": 0,
      "note": 59,
      "start": 15.052,
      "duration": 0.2778,
      "velocity": 109,
      "chip": "ym2612"
    },
    {
      "channel": 1,
      "note": 52,
      "start": 15.0523,
      "duration": 0.2778,
      "velocity": 109,
      "chip": "ym2612"
    },
    {
      "channel": 2,
      "note": 40,
      "start": 15.0526,
      "duration": 0.0987,
      "velocity": 108,
      "chip": "ym2612"
    },
    {
      "channel": 3,
      "note": 71,
      "start": 15.0529,
      "duration": 0.198,
      "velocity": 82,
      "chip": "ym2612"
    },
    {
      "channel": 4,
      "note": 83,
      "start": 15.0532,
      "duration": 0.0985,
      "velocity": 118,
      "chip": "ym2612"
    },
    {
      "channel": 2,
      "note": 40,
      "start": 15.1514,
      "duration": 0.0991,
      "velocity": 108,
      "chip": "ym2612"
    },
    {
      "channel": 4,
      "note": 79,
      "start": 15.1518,
      "duration": 0.0994,
      "velocity": 118,
      "chip": "ym2612"
    },
    {
      "channel": 2,
      "note": 40,
      "start": 15.2507,
      "duration": 0.0797,
      "velocity": 108,
      "chip": "ym2612"
    },
    {
      "channel": 3,
      "note": 67,
      "start": 15.251,
      "duration": 0.1795,
      "velocity": 82,
      "chip": "ym2612"
    },
    {
      "channel": 4,
      "note": 76,
      "start": 15.2514,
      "duration": 0.0795,
      "velocity": 118,
      "chip": "ym2612"
    },
    {
      "channel": 0,
      "note": 59,
      "start": 15.33,
      "duration": 0.2978,
      "velocity": 109,
      "chip": "ym2612"
    },
    {
      "channel": 1,
      "note": 52,
      "start": 15.3303,
      "duration": 0.2977,
      "velocity": 109,
      "chip": "ym2612"
    },
    {
      "channel": 2,
      "note": 40,
      "start": 15.3306,
      "duration": 0.0996,
      "velocity": 1,
      "chip": "ym2612"
    },
    {
      "channel": 4,
      "note": 71,
      "start": 15.331,
      "duration": 0.0999,
      "velocity": 118,
      "chip": "ym2612"
    },
    {
      "channel": 2,
      "note": 35,
      "start": 15.4304,
      "duration": 0.0991,
      "velocity": 1,
      "chip": "ym2612"
    },
    {
      "channel": 3,
      "note": 64,
      "start": 15.4307,
      "duration": 0.1979,
      "velocity": 82,
      "chip": "ym2612"
    },
    {
      "channel": 4,
      "note": 83,
      "start": 15.4311,
      "duration": 0.0989,
      "velocity": 118,
      "chip": "ym2612"
    },
    {
      "channel": 2,
      "note": 40,
      "start": 15.5298,
      "duration": 0.0986,
      "velocity": 108,
      "chip": "ym2612"
    },
    {
      "channel": 4,
      "note": 79,
      "start": 15.5302,
      "duration": 0.0988,
      "velocity": 118,
      "chip": "ym2612"
    },
    {
      "channel": 0,
      "note": 59,
      "start": 15.628,
      "duration": 0.2977,
      "velocity": 109,
      "chip": "ym2612"
    },
    {
      "channel": 1,
      "note": 52,
      "start": 15.6282,
      "duration": 0.2978,
      "velocity": 109,
      "chip": "ym2612"
    },
    {
      "channel": 2,
      "note": 40,
      "start": 15.6285,
      "duration": 0.0997,
      "velocity": 1,
      "chip": "ym2612"
    },
    {
      "channel": 3,
      "note": 59,
      "start": 15.6288,
      "duration": 0.1991,
      "velocity": 82,
      "chip": "ym2612"
    },
    {
      "channel": 4,
      "note": 76,
      "start": 15.6292,
      "duration": 0.0994,
      "velocity": 118,
      "chip": "ym2612"
    },
    {
      "channel": 2,
      "note": 35,
      "start": 15.7284,
      "duration": 0.0992,
      "velocity": 1,
      "chip": "ym2612"
    },
    {
      "channel": 4,
      "note": 71,
      "start": 15.7288,
      "duration": 0.0995,
      "velocity": 118,
      "chip": "ym2612"
    },
    {
      "channel": 2,
      "note": 40,
      "start": 15.8278,
      "duration": 0.0996,
      "velocity": 1,
      "chip": "ym2612"
    },
    {
      "channel": 3,
      "note": 71,
      "start": 15.8281,
      "duration": 0.1784,
      "velocity": 82,
      "chip": "ym2612"
    },
    {
      "channel": 4,
      "note": 83,
      "start": 15.8285,
      "duration": 0.0993,
      "velocity": 118,
      "chip": "ym2612"
    },
    {
      "channel": 0,
      "note": 59,
      "start": 15.9259,
      "duration": 0.2779,
      "velocity": 109,
      "chip": "ym2612"
    },
    {
      "channel": 1,
      "note": 52,
      "start": 15.9262,
      "duration": 0.2779,
      "velocity": 109,
      "chip": "ym2612"
    },
    {
      "channel": 2,
      "note": 35,
      "start": 15.9276,
      "duration": 0.0787,
      "velocity": 1,
      "chip": "ym2612"
    },
    {
      "channel": 4,
      "note": 79,
      "start": 15.928,
      "duration": 0.0789,
      "velocity": 118,
      "chip": "ym2612"
    },
    {
      "channel": 2,
      "note": 40,
      "start": 16.0065,
      "duration": 0.0982,
      "velocity": 108,
      "chip": "ym2612"
    },
    {
      "channel": 3,
      "note": 67,
      "start": 16.0068,
      "duration": 0.1989,
      "velocity": 82,
      "chip": "ym2612"
    },
    {
      "channel": 4,
      "note": 76,
      "start": 16.0071,
      "duration": 0.098,
      "velocity": 118,
      "chip": "ym2612"
    },
    {
      "channel": 2,
      "note": 40,
      "start": 16.1049,
      "duration": 0.1005,
      "velocity": 1,
      "chip": "ym2612"
    },
    {
      "channel": 4,
      "note": 71,
      "start": 16.1053,
      "duration": 0.1007,
      "velocity": 118,
      "chip": "ym2612"
    },
    {
      "channel": 0,
      "note": 59,
      "start": 16.204,
      "duration": 0.1984,
      "velocity": 109,
      "chip": "ym2612"
    },
    {
      "channel": 1,
      "note": 52,
      "start": 16.2043,
      "duration": 0.1984,
      "velocity": 109,
      "chip": "ym2612"
    },
    {
      "channel": 2,
      "note": 35,
      "start": 16.2056,
      "duration": 0.0987,
      "velocity": 1,
      "chip": "ym2612"
    },
    {
      "channel": 3,
      "note": 64,
      "start": 16.2059,
      "duration": 0.1974,
      "velocity": 82,
      "chip": "ym2612"
    },
    {
      "channel": 4,
      "note": 83,
      "start": 16.2062,
      "duration": 0.0985,
      "velocity": 118,
      "chip": "ym2612"
    },
    {
      "channel": 2,
      "note": 40,
      "start": 16.3044,
      "duration": 0.0986,
      "velocity": 108,
      "chip": "ym2612"
    },
    {
      "channel": 4,
      "note": 79,
      "start": 16.3048,
      "duration": 0.0988,
      "velocity": 118,
      "chip": "ym2612"
    },
    {
      "channel": 0,
      "note": 59,
      "start": 16.4026,
      "duration": 0.1985,
      "velocity": 109,
      "chip": "ym2612"
    },
    {
      "channel": 1,
      "note": 52,
      "start": 16.4029,
      "duration": 0.1985,
      "velocity": 109,
      "chip": "ym2612"
    },
    {
      "channel": 2,
      "note": 40,
      "start": 16.4032,
      "duration": 0.0996,
      "velocity": 1,
      "chip": "ym2612"
    },
    {
      "channel": 3,
      "note": 59,
      "start": 16.4035,
      "duration": 0.1994,
      "velocity": 82,
      "chip": "ym2612"
    },
    {
      "channel": 4,
      "note": 76,
      "start": 16.4039,
      "duration": 0.0994,
      "velocity": 118,
      "chip": "ym2612"
    },
    {
      "channel": 2,
      "note": 35,
      "start": 16.503,
      "duration": 0.0996,
      "velocity": 1,
      "chip": "ym2612"
    },
    {
      "channel": 4,
      "note": 71,
      "start": 16.5035,
      "duration": 0.0998,
      "velocity": 118,
      "chip": "ym2612"
    },
    {
      "channel": 0,
      "note": 59,
      "start": 16.6012,
      "duration": 0.2779,
      "velocity": 109,
      "chip": "ym2612"
    },
    {
      "channel": 1,
      "note": 54,
      "start": 16.6016,
      "duration": 0.2779,
      "velocity": 109,
      "chip": "ym2612"
    },
    {
      "channel": 2,
      "note": 35,
      "start": 16.6028,
      "duration": 0.0779,
      "velocity": 108,
      "chip": "ym2612"
    },
    {
      "channel": 3,
      "note": 66,
      "start": 16.6032,
      "duration": 0.1772,
      "velocity": 82,
      "chip": "ym2612"
    },
    {
      "channel": 4,
      "note": 78,
      "start": 16.6035,
      "duration": 0.0777,
      "velocity": 118,
      "chip": "ym2612"
    },
    {
      "channel": 2,
      "note": 35,
      "start": 16.6809,
      "duration": 0.0991,
      "velocity": 108,
      "chip": "ym2612"
    },
    {
      "channel": 4,
      "note": 74,
      "start": 16.6813,
      "duration": 0.0993,
      "velocity": 118,
      "chip": "ym2612"
    },
    {
      "channel": 2,
      "note": 35,
      "start": 16.7802,
      "duration": 0.0996,
      "velocity": 108,
      "chip": "ym2612"
    },
    {
      "channel": 3,
      "note": 62,
      "start": 16.7805,
      "duration": 0.1994,
      "velocity": 82,
      "chip": "ym2612"
    },
    {
      "channel": 4,
      "note": 71,
      "start": 16.7808,
      "duration": 0.0994,
      "velocity": 118,
      "chip": "ym2612"
    },
    {
      "channel": 0,
      "note": 59,
      "start": 16.8793,
      "duration": 0.2978,
      "velocity": 109,
      "chip": "ym2612"
    },
    {
      "channel": 1,
      "note": 54,
      "start": 16.8796,
      "duration": 0.2978,
      "velocity": 109,
      "chip": "ym2612"
    },
    {
      "channel": 2,
      "note": 35,
      "start": 16.8799,
      "duration": 0.0996,
      "velocity": 1,
      "chip": "ym2612"
    },
    {
      "channel": 4,
      "note": 66,
      "start": 16.8804,
      "duration": 0.0998,
      "velocity": 118,
      "chip": "ym2612"
    },
    {
      "channel": 2,
      "note": 35,
      "start": 16.9798,
      "duration": 0.0992,
      "velocity": 1,
      "chip": "ym2612"
    },
    {
      "channel": 3,
      "note": 59,
      "start": 16.9801,
      "duration": 0.198,
      "velocity": 82,
      "chip": "ym2612"
    },
    {
      "channel": 4,
      "note": 78,
      "start": 16.9804,
      "duration": 0.0989,
      "velocity": 118,
      "chip": "ym2612"
    },
    {
      "channel": 2,
      "note": 35,
      "start": 17.0791,
      "duration": 0.0986,
      "velocity": 108,
      "chip": "ym2612"
    },
    {
      "channel": 4,
      "note": 74,
      "start": 17.0795,
      "duration": 0.0989,
      "velocity": 118,
      "chip": "ym2612"
    },
    {
      "channel": 0,
      "note": 59,
      "start": 17.1773,
      "duration": 0.3772,
      "velocity": 109,
      "chip": "ym2612"
    },
    {
      "channel": 1,
      "note": 54,
      "start": 17.1776,
      "duration": 0.3772,
      "velocity": 109,
      "chip": "ym2612"
    },
    {
      "channel": 2,
      "note": 35,
      "start": 17.1779,
      "duration": 0.0998,
      "velocity": 1,
      "chip": "ym2612"
    },
    {
      "channel": 3,
      "note": 54,
      "start": 17.1782,
      "duration": 0.1791,
      "velocity": 82,
      "chip": "ym2612"
    },
    {
      "channel": 4,
      "note": 71,
      "start": 17.1785,
      "duration": 0.0996,
      "velocity": 118,
      "chip": "ym2612"
    },
    {
      "channel": 2,
      "note": 35,
      "start": 17.2778,
      "duration": 0.0791,
      "velocity": 1,
      "chip": "ym2612"
    },
    {
      "channel": 4,
      "note": 66,
      "start": 17.2783,
      "duration": 0.0793,
      "velocity": 118,
      "chip": "ym2612"
    },
    {
      "channel": 2,
      "note": 35,
      "start": 17.3572,
      "duration": 0.0991,
      "velocity": 1,
      "chip": "ym2612"
    },
    {
      "channel": 3,
      "note": 66,
      "start": 17.3575,
      "duration": 0.1988,
      "velocity": 82,
      "chip": "ym2612"
    },
    {
      "channel": 4,
      "note": 78,
      "start": 17.3578,
      "duration": 0.0989,
      "velocity": 118,
      "chip": "ym2612"
    },
    {
      "channel": 2,
      "note": 35,
      "start": 17.4565,
      "duration": 0.0995,
      "velocity": 1,
      "chip": "ym2612"
    },
    {
      "channel": 4,
      "note": 74,
      "start": 17.4569,
      "duration": 0.0998,
      "velocity": 118,
      "chip": "ym2612"
    },
    {
      "channel": 0,
      "note": 59,
      "start": 17.5547,
      "duration": 0.1984,
      "velocity": 109,
      "chip": "ym2612"
    },
    {
      "channel": 1,
      "note": 54,
      "start": 17.555,
      "duration": 0.1984,
      "velocity": 109,
      "chip": "ym2612"
    },
    {
      "channel": 2,
      "note": 35,
      "start": 17.5562,
      "duration": 0.0978,
      "velocity": 108,
      "chip": "ym2612"
    },
    {
      "channel": 3,
      "note": 62,
      "start": 17.5565,
      "duration": 0.1985,
      "velocity": 82,
      "chip": "ym2612"
    },
    {
      "channel": 4,
      "note": 71,
      "start": 17.5568,
      "duration": 0.0976,
      "velocity": 118,
      "chip": "ym2612"
    },
    {
      "channel": 2,
      "note": 35,
      "start": 17.6542,
      "duration": 0.1005,
      "velocity": 1,
      "chip": "ym2612"
    },
    {
      "channel": 4,
      "note": 66,
      "start": 17.6546,
      "duration": 0.1007,
      "velocity": 118,
      "chip": "ym2612"
    },
    {
      "channel": 0,
      "note": 59,
      "start": 17.7533,
      "duration": 0.3772,
      "velocity": 109,
      "chip": "ym2612"
    },
    {
      "channel": 1,
      "note": 54,
      "start": 17.7536,
      "duration": 0.3772,
      "velocity": 109,
      "chip": "ym2612"
    },
    {
      "channel": 2,
      "note": 35,
      "start": 17.7549,
      "duration": 0.0987,
      "velocity": 1,
      "chip": "ym2612"
    },
    {
      "channel": 3,
      "note": 59,
      "start": 17.7552,
      "duration": 0.1971,
      "velocity": 82,
      "chip": "ym2612"
    },
    {
      "channel": 4,
      "note": 78,
      "start": 17.7555,
      "duration": 0.0985,
      "velocity": 118,
      "chip": "ym2612"
    },
    {
      "channel": 2,
      "note": 35,
      "start": 17.8537,
      "duration": 0.0982,
      "velocity": 108,
      "chip": "ym2612"
    },
    {
      "channel": 4,
      "note": 74,
      "start": 17.8542,
      "duration": 0.0984,
      "velocity": 118,
      "chip": "ym2612"
    },
    {
      "channel": 2,
      "note": 35,
      "start": 17.9521,
      "duration": 0.0991,
      "velocity": 108,
      "chip": "ym2612"
    },
    {
      "channel": 3,
      "note": 54,
      "start": 17.9524,
      "duration": 0.179,
      "velocity": 82,
      "chip": "ym2612"
    },
    {
      "channel": 4,
      "note": 71,
      "start": 17.9528,
      "duration": 0.0989,
      "velocity": 118,
      "chip": "ym2612"
    },
    {
      "channel": 2,
      "note": 35,
      "start": 18.0514,
      "duration": 0.0797,
      "velocity": 108,
      "chip": "ym2612"
    },
    {
      "channel": 4,
      "note": 66,
      "start": 18.0519,
      "duration": 0.0799,
      "velocity": 118,
      "chip": "ym2612"
    },
    {
      "channel": 0,
      "note": 59,
      "start": 18.1307,
      "duration": 0.2977,
      "velocity": 109,
      "chip": "ym2612"
    },
    {
      "channel": 1,
      "note": 54,
      "start": 18.131,
      "duration": 0.2977,
      "velocity": 109,
      "chip": "ym2612"
    },
    {
      "channel": 2,
      "note": 35,
      "start": 18.1313,
      "duration": 0.0987,
      "velocity": 108,
      "chip": "ym2612"
    },
    {
      "channel": 3,
      "note": 66,
      "start": 18.1317,
      "duration": 0.198,
      "velocity": 82,
      "chip": "ym2612"
    },
    {
      "channel": 4,
      "note": 78,
      "start": 18.132,
      "duration": 0.0985,
      "velocity": 118,
      "chip": "ym2612"
    },
    {
      "channel": 2,
      "note": 35,
      "start": 18.2302,
      "duration": 0.0992,
      "velocity": 108,
      "chip": "ym2612"
    },
    {
      "channel": 4,
      "note": 74,
      "start": 18.2306,
      "duration": 0.0993,
      "velocity": 118,
      "chip": "ym2612"
    },
    {
      "channel": 2,
      "note": 35,
      "start": 18.3295,
      "duration": 0.0995,
      "velocity": 108,
      "chip": "ym2612"
    },
    {
      "channel": 3,
      "note": 62,
      "start": 18.3298,
      "duration": 0.1994,
      "velocity": 82,
      "chip": "ym2612"
    },
    {
      "channel": 4,
      "note": 71,
      "start": 18.3301,
      "duration": 0.0994,
      "velocity": 118,
      "chip": "ym2612"
    },
    {
      "channel": 0,
      "note": 59,
      "start": 18.4286,
      "duration": 0.2978,
      "velocity": 109,
      "chip": "ym2612"
    },
    {
      "channel": 1,
      "note": 54,
      "start": 18.4289,
      "duration": 0.2979,
      "velocity": 109,
      "chip": "ym2612"
    },
    {
      "channel": 2,
      "note": 35,
      "start": 18.4292,
      "duration": 0.0997,
      "velocity": 1,
      "chip": "ym2612"
    },
    {
      "channel": 4,
      "note": 66,
      "start": 18.4297,
      "duration": 0.0998,
      "velocity": 118,
      "chip": "ym2612"
    },
    {
      "channel": 2,
      "note": 35,
      "start": 18.5291,
      "duration": 0.0991,
      "velocity": 1,
      "chip": "ym2612"
    },
    {
      "channel": 3,
      "note": 59,
      "start": 18.5294,
      "duration": 0.1981,
      "velocity": 82,
      "chip": "ym2612"
    },
    {
      "channel": 4,
      "note": 78,
      "start": 18.5297,
      "duration": 0.099,
      "velocity": 118,
      "chip": "ym2612"
    },
    {
      "channel": 2,
      "note": 35,
      "start": 18.6284,
      "duration": 0.0987,
      "velocity": 108,
      "chip": "ym2612"
    },
    {
      "channel": 4,
      "note": 74,
      "start": 18.6288,
      "duration": 0.099,
      "velocity": 118,
      "chip": "ym2612"
    },
    {
      "channel": 0,
      "note": 59,
      "start": 18.7267,
      "duration": 0.2777,
      "velocity": 109,
      "chip": "ym2612"
    },
    {
      "channel": 1,
      "note": 54,
      "start": 18.727,
      "duration": 0.2777,
      "velocity": 109,
      "chip": "ym2612"
    },
    {
      "channel": 2,
      "note": 35,
      "start": 18.7273,
      "duration": 0.0796,
      "velocity": 1,
      "chip": "ym2612"
    },
    {
      "channel": 3,
      "note": 54,
      "start": 18.7276,
      "duration": 0.1789,
      "velocity": 82,
      "chip": "ym2612"
    },
    {
      "channel": 4,
      "note": 71,
      "start": 18.728,
      "duration": 0.0795,
      "velocity": 118,
      "chip": "ym2612"
    },
    {
      "channel": 2,
      "note": 35,
      "start": 18.8072,
      "duration": 0.0991,
      "velocity": 1,
      "chip": "ym2612"
    },
    {
      "channel": 4,
      "note": 66,
      "start": 18.8076,
      "duration": 0.0993,
      "velocity": 118,
      "chip": "ym2612"
    },
    {
      "channel": 2,
      "note": 35,
      "start": 18.9065,
      "duration": 0.0995,
      "velocity": 1,
      "chip": "ym2612"
    },
    {
      "channel": 3,
      "note": 66,
      "start": 18.9068,
      "duration": 0.1985,
      "velocity": 82,
      "chip": "ym2612"
    },
    {
      "channel": 4,
      "note": 78,
      "start": 18.9071,
      "duration": 0.0994,
      "velocity": 118,
      "chip": "ym2612"
    },
    {
      "channel": 0,
      "note": 59,
      "start": 19.0046,
      "duration": 0.2978,
      "velocity": 109,
      "chip": "ym2612"
    },
    {
      "channel": 1,
      "note": 54,
      "start": 19.0049,
      "duration": 0.2978,
      "velocity": 109,
      "chip": "ym2612"
    },
    {
      "channel": 2,
      "note": 35,
      "start": 19.0062,
      "duration": 0.0987,
      "velocity": 1,
      "chip": "ym2612"
    },
    {
      "channel": 4,
      "note": 74,
      "start": 19.0066,
      "duration": 0.0989,
      "velocity": 118,
      "chip": "ym2612"
    },
    {
      "channel": 2,
      "note": 35,
      "start": 19.1051,
      "duration": 0.0982,
      "velocity": 108,
      "chip": "ym2612"
    },
    {
      "channel": 3,
      "note": 62,
      "start": 19.1054,
      "duration": 0.1988,
      "velocity": 82,
      "chip": "ym2612"
    },
    {
      "channel": 4,
      "note": 71,
      "start": 19.1058,
      "duration": 0.098,
      "velocity": 118,
      "chip": "ym2612"
    },
    {
      "channel": 2,
      "note": 35,
      "start": 19.2035,
      "duration": 0.1005,
      "velocity": 1,
      "chip": "ym2612"
    },
    {
      "channel": 4,
      "note": 66,
      "start": 19.2039,
      "duration": 0.1007,
      "velocity": 118,
      "chip": "ym2612"
    },
    {
      "channel": 0,
      "note": 59,
      "start": 19.3026,
      "duration": 0.1785,
      "velocity": 109,
      "chip": "ym2612"
    },
    {
      "channel": 1,
      "note": 54,
      "start": 19.303,
      "duration": 0.1785,
      "velocity": 109,
      "chip": "ym2612"
    },
    {
      "channel": 2,
      "note": 35,
      "start": 19.3042,
      "duration": 0.0987,
      "velocity": 1,
      "chip": "ym2612"
    },
    {
      "channel": 3,
      "note": 59,
      "start": 19.3045,
      "duration": 0.1785,
      "velocity": 82,
      "chip": "ym2612"
    },
    {
      "channel": 4,
      "note": 78,
      "start": 19.3048,
      "duration": 0.0985,
      "velocity": 118,
      "chip": "ym2612"
    },
    {
      "channel": 2,
      "note": 35,
      "start": 19.403,
      "duration": 0.0797,
      "velocity": 1,
      "chip": "ym2612"
    },
    {
      "channel": 4,
      "note": 74,
      "start": 19.4035,
      "duration": 0.0799,
      "velocity": 118,
      "chip": "ym2612"
    },
    {
      "channel": 0,
      "note": 59,
      "start": 19.4813,
      "duration": 0.1985,
      "velocity": 109,
      "chip": "ym2612"
    },
    {
      "channel": 1,
      "note": 54,
      "start": 19.4817,
      "duration": 0.1985,
      "velocity": 109,
      "chip": "ym2612"
    },
    {
      "channel": 2,
      "note": 35,
      "start": 19.4829,
      "duration": 0.0978,
      "velocity": 127,
      "chip": "ym2612"
    },
    {
      "channel": 3,
      "note": 54,
      "start": 19.4832,
      "duration": 0.1985,
      "velocity": 82,
      "chip": "ym2612"
    },
    {
      "channel": 4,
      "note": 71,
      "start": 19.4836,
      "duration": 0.0976,
      "velocity": 118,
      "chip": "ym2612"
    },
    {
      "channel": 2,
      "note": 35,
      "start": 19.5809,
      "duration": 0.1005,
      "velocity": 1,
      "chip": "ym2612"
    },
    {
      "channel": 4,
      "note": 66,
      "start": 19.5813,
      "duration": 0.1007,
      "velocity": 118,
      "chip": "ym2612"
    },
    {
      "channel": 0,
      "note": 57,
      "start": 19.68,
      "duration": 0.2978,
      "velocity": 109,
      "chip": "ym2612"
    },
    {
      "channel": 1,
      "note": 52,
      "start": 19.6803,
      "duration": 0.2977,
      "velocity": 109,
      "chip": "ym2612"
    },
    {
      "channel": 2,
      "note": 33,
      "start": 19.6816,
      "duration": 0.0978,
      "velocity": 108,
      "chip": "ym2612"
    },
    {
      "channel": 3,
      "note": 64,
      "start": 19.6819,
      "duration": 0.197,
      "velocity": 82,
      "chip": "ym2612"
    },
    {
      "channel": 4,
      "note": 76,
      "start": 19.6822,
      "duration": 0.0975,
      "velocity": 118,
      "chip": "ym2612"
    },
    {
      "channel": 2,
      "note": 33,
      "start": 19.7795,
      "duration": 0.0991,
      "velocity": 108,
      "chip": "ym2612"
    },
    {
      "channel": 4,
      "note": 72,
      "start": 19.7799,
      "duration": 0.0993,
      "velocity": 118,
      "chip": "ym2612"
    },
    {
      "channel": 2,
      "note": 33,
      "start": 19.8788,
      "duration": 0.0995,
      "velocity": 108,
      "chip": "ym2612"
    },
    {
      "channel": 3,
      "note": 60,
      "start": 19.8791,
      "duration": 0.1994,
      "velocity": 82,
      "chip": "ym2612"
    },
    {
      "channel": 4,
      "note": 69,
      "start": 19.8794,
      "duration": 0.0993,
      "velocity": 118,
      "chip": "ym2612"
    },
    {
      "channel": 0,
      "note": 57,
      "start": 19.9779,
      "duration": 0.2779,
      "velocity": 109,
      "chip": "ym2612"
    },
    {
      "channel": 1,
      "note": 52,
      "start": 19.9782,
      "duration": 0.278,
      "velocity": 109,
      "chip": "ym2612"
    },
    {
      "channel": 2,
      "note": 33,
      "start": 19.9785,
      "duration": 0.0997,
      "velocity": 1,
      "chip": "ym2612"
    },
    {
      "channel": 4,
      "note": 64,
      "start": 19.979,
      "duration": 0.0999,
      "velocity": 118,
      "chip": "ym2612"
    },
    {
      "channel": 2,
      "note": 35,
      "start": 20.0784,
      "duration": 0.0793,
      "velocity": 1,
      "chip": "ym2612"
    },
    {
      "channel": 3,
      "note": 57,
      "start": 20.0787,
      "duration": 0.178,
      "velocity": 82,
      "chip": "ym2612"
    },
    {
      "channel": 4,
      "note": 76,
      "start": 20.079,
      "duration": 0.079,
      "velocity": 118,
      "chip": "ym2612"
    },
    {
      "channel": 2,
      "note": 33,
      "start": 20.1579,
      "duration": 0.0987,
      "velocity": 108,
      "chip": "ym2612"
    },
    {
      "channel": 4,
      "note": 72,
      "start": 20.1582,
      "duration": 0.0989,
      "velocity": 118,
      "chip": "ym2612"
    },
    {
      "channel": 0,
      "note": 57,
      "start": 20.256,
      "duration": 0.3971,
      "velocity": 109,
      "chip": "ym2612"
    },
    {
      "channel": 1,
      "note": 52,
      "start": 20.2564,
      "duration": 0.397,
      "velocity": 109,
      "chip": "ym2612"
    },
    {
      "channel": 2,
      "note": 33,
      "start": 20.2567,
      "duration": 0.0995,
      "velocity": 1,
      "chip": "ym2612"
    },
    {
      "channel": 3,
      "note": 52,
      "start": 20.257,
      "duration": 0.1989,
      "velocity": 82,
      "chip": "ym2612"
    },
    {
      "channel": 4,
      "note": 69,
      "start": 20.2573,
      "duration": 0.0994,
      "velocity": 118,
      "chip": "ym2612"
    },
    {
      "channel": 2,
      "note": 35,
      "start": 20.3565,
      "duration": 0.0991,
      "velocity": 1,
      "chip": "ym2612"
    },
    {
      "channel": 4,
      "note": 64,
      "start": 20.3569,
      "duration": 0.0993,
      "velocity": 118,
      "chip": "ym2612"
    },
    {
      "channel": 2,
      "note": 33,
      "start": 20.4558,
      "duration": 0.0992,
      "velocity": 1,
      "chip": "ym2612"
    },
    {
      "channel": 3,
      "note": 64,
      "start": 20.4561,
      "duration": 0.1989,
      "velocity": 82,
      "chip": "ym2612"
    },
    {
      "channel": 4,
      "note": 76,
      "start": 20.4564,
      "duration": 0.0989,
      "velocity": 118,
      "chip": "ym2612"
    },
    {
      "channel": 2,
      "note": 35,
      "start": 20.5551,
      "duration": 0.0995,
      "velocity": 1,
      "chip": "ym2612"
    },
    {
      "channel": 4,
      "note": 72,
      "start": 20.5555,
      "duration": 0.0998,
      "velocity": 118,
      "chip": "ym2612"
    },
    {
      "channel": 0,
      "note": 57,
      "start": 20.6533,
      "duration": 0.1786,
      "velocity": 109,
      "chip": "ym2612"
    },
    {
      "channel": 1,
      "note": 52,
      "start": 20.6536,
      "duration": 0.1786,
      "velocity": 109,
      "chip": "ym2612"
    },
    {
      "channel": 2,
      "note": 33,
      "start": 20.6549,
      "duration": 0.0978,
      "velocity": 108,
      "chip": "ym2612"
    },
    {
      "channel": 3,
      "note": 60,
      "start": 20.6552,
      "duration": 0.1785,
      "velocity": 82,
      "chip": "ym2612"
    },
    {
      "channel": 4,
      "note": 69,
      "start": 20.6555,
      "duration": 0.0975,
      "velocity": 118,
      "chip": "ym2612"
    },
    {
      "channel": 2,
      "note": 33,
      "start": 20.7528,
      "duration": 0.0806,
      "velocity": 1,
      "chip": "ym2612"
    },
    {
      "channel": 4,
      "note": 64,
      "start": 20.7532,
      "duration": 0.0808,
      "velocity": 118,
      "chip": "ym2612"
    },
    {
      "channel": 0,
      "note": 57,
      "start": 20.8321,
      "duration": 0.397,
      "velocity": 109,
      "chip": "ym2612"
    },
    {
      "channel": 1,
      "note": 52,
      "start": 20.8324,
      "duration": 0.3971,
      "velocity": 109,
      "chip": "ym2612"
    },
    {
      "channel": 2,
      "note": 35,
      "start": 20.8336,
      "duration": 0.0987,
      "velocity": 1,
      "chip": "ym2612"
    },
    {
      "channel": 3,
      "note": 57,
      "start": 20.8339,
      "duration": 0.1971,
      "velocity": 82,
      "chip": "ym2612"
    },
    {
      "channel": 4,
      "note": 76,
      "start": 20.8343,
      "duration": 0.0985,
      "velocity": 118,
      "chip": "ym2612"
    },
    {
      "channel": 2,
      "note": 33,
      "start": 20.9325,
      "duration": 0.0982,
      "velocity": 108,
      "chip": "ym2612"
    },
    {
      "channel": 4,
      "note": 72,
      "start": 20.9329,
      "duration": 0.0984,
      "velocity": 118,
      "chip": "ym2612"
    },
    {
      "channel": 2,
      "note": 33,
      "start": 21.0309,
      "duration": 0.0991,
      "velocity": 108,
      "chip": "ym2612"
    },
    {
      "channel": 3,
      "note": 52,
      "start": 21.0312,
      "duration": 0.1989,
      "velocity": 82,
      "chip": "ym2612"
    },
    {
      "channel": 4,
      "note": 69,
      "start": 21.0315,
      "duration": 0.0989,
      "velocity": 118,
      "chip": "ym2612"
    },
    {
      "channel": 2,
      "note": 33,
      "start": 21.1302,
      "duration": 0.0996,
      "velocity": 108,
      "chip": "ym2612"
    },
    {
      "channel": 4,
      "note": 64,
      "start": 21.1306,
      "duration": 0.0998,
      "velocity": 118,
      "chip": "ym2612"
    },
    {
      "channel": 0,
      "note": 57,
      "start": 21.2293,
      "duration": 0.2978,
      "velocity": 109,
      "chip": "ym2612"
    },
    {
      "channel": 1,
      "note": 52,
      "start": 21.2297,
      "duration": 0.2977,
      "velocity": 109,
      "chip": "ym2612"
    },
    {
      "channel": 2,
      "note": 33,
      "start": 21.23,
      "duration": 0.0987,
      "velocity": 108,
      "chip": "ym2612"
    },
    {
      "channel": 3,
      "note": 64,
      "start": 21.2303,
      "duration": 0.198,
      "velocity": 82,
      "chip": "ym2612"
    },
    {
      "channel": 4,
      "note": 76,
      "start": 21.2306,
      "duration": 0.0984,
      "velocity": 118,
      "chip": "ym2612"
    },
    {
      "channel": 2,
      "note": 33,
      "start": 21.3288,
      "duration": 0.0991,
      "velocity": 108,
      "chip": "ym2612"
    },
    {
      "channel": 4,
      "note": 72,
      "start": 21.3292,
      "duration": 0.0994,
      "velocity": 118,
      "chip": "ym2612"
    },
    {
      "channel": 2,
      "note": 33,
      "start": 21.4281,
      "duration": 0.0996,
      "velocity": 108,
      "chip": "ym2612"
    },
    {
      "channel": 3,
      "note": 60,
      "start": 21.4285,
      "duration": 0.1795,
      "velocity": 82,
      "chip": "ym2612"
    },
    {
      "channel": 4,
      "note": 69,
      "start": 21.4288,
      "duration": 0.0993,
      "velocity": 118,
      "chip": "ym2612"
    },
    {
      "channel": 0,
      "note": 57,
      "start": 21.5273,
      "duration": 0.2779,
      "velocity": 109,
      "chip": "ym2612"
    },
    {
      "channel": 1,
      "note": 52,
      "start": 21.5276,
      "duration": 0.2779,
      "velocity": 109,
      "chip": "ym2612"
    },
    {
      "channel": 2,
      "note": 33,
      "start": 21.5279,
      "duration": 0.0798,
      "velocity": 1,
      "chip": "ym2612"
    },
    {
      "channel": 4,
      "note": 64,
      "start": 21.5283,
      "duration": 0.08,
      "velocity": 118,
      "chip": "ym2612"
    },
    {
      "channel": 2,
      "note": 35,
      "start": 21.6079,
      "duration": 0.0991,
      "velocity": 1,
      "chip": "ym2612"
    },
    {
      "channel": 3,
      "note": 57,
      "start": 21.6082,
      "duration": 0.1979,
      "velocity": 82,
      "chip": "ym2612"
    },
    {
      "channel": 4,
      "note": 76,
      "start": 21.6085,
      "duration": 0.0989,
      "velocity": 118,
      "chip": "ym2612"
    },
    {
      "channel": 2,
      "note": 33,
      "start": 21.7072,
      "duration": 0.0986,
      "velocity": 108,
      "chip": "ym2612"
    },
    {
      "channel": 4,
      "note": 72,
      "start": 21.7076,
      "duration": 0.0988,
      "velocity": 118,
      "chip": "ym2612"
    },
    {
      "channel": 0,
      "note": 57,
      "start": 21.8053,
      "duration": 0.2978,
      "velocity": 109,
      "chip": "ym2612"
    },
    {
      "channel": 1,
      "note": 52,
      "start": 21.8056,
      "duration": 0.2978,
      "velocity": 109,
      "chip": "ym2612"
    },
    {
      "channel": 2,
      "note": 33,
      "start": 21.8059,
      "duration": 0.0996,
      "velocity": 1,
      "chip": "ym2612"
    },
    {
      "channel": 3,
      "note": 52,
      "start": 21.8063,
      "duration": 0.199,
      "velocity": 82,
      "chip": "ym2612"
    },
    {
      "channel": 4,
      "note": 69,
      "start": 21.8066,
      "duration": 0.0994,
      "velocity": 118,
      "chip": "ym2612"
    },
    {
      "channel": 2,
      "note": 35,
      "start": 21.9058,
      "duration": 0.0992,
      "velocity": 1,
      "chip": "ym2612"
    },
    {
      "channel": 4,
      "note": 64,
      "start": 21.9062,
      "duration": 0.0994,
      "velocity": 118,
      "chip": "ym2612"
    },
    {
      "channel": 2,
      "note": 33,
      "start": 22.0051,
      "duration": 0.0995,
      "velocity": 1,
      "chip": "ym2612"
    },
    {
      "channel": 3,
      "note": 64,
      "start": 22.0054,
      "duration": 0.1984,
      "velocity": 82,
      "chip": "ym2612"
    },
    {
      "channel": 4,
      "note": 76,
      "start": 22.0058,
      "duration": 0.0993,
      "velocity": 118,
      "chip": "ym2612"
    },
    {
      "channel": 0,
      "note": 57,
      "start": 22.1033,
      "duration": 0.2779,
      "velocity": 109,
      "chip": "ym2612"
    },
    {
      "channel": 1,
      "note": 52,
      "start": 22.1036,
      "duration": 0.2779,
      "velocity": 109,
      "chip": "ym2612"
    },
    {
      "channel": 2,
      "note": 35,
      "start": 22.1048,
      "duration": 0.0987,
      "velocity": 1,
      "chip": "ym2612"
    },
    {
      "channel": 4,
      "note": 72,
      "start": 22.1053,
      "duration": 0.0989,
      "velocity": 118,
      "chip": "ym2612"
    },
    {
      "channel": 2,
      "note": 33,
      "start": 22.2037,
      "duration": 0.0784,
      "velocity": 108,
      "chip": "ym2612"
    },
    {
      "channel": 3,
      "note": 60,
      "start": 22.204,
      "duration": 0.179,
      "velocity": 82,
      "chip": "ym2612"
    },
    {
      "channel": 4,
      "note": 69,
      "start": 22.2044,
      "duration": 0.0781,
      "velocity": 118,
      "chip": "ym2612"
    },
    {
      "channel": 2,
      "note": 33,
      "start": 22.2823,
      "duration": 0.1004,
      "velocity": 1,
      "chip": "ym2612"
    },
    {
      "channel": 4,
      "note": 64,
      "start": 22.2827,
      "duration": 0.1007,
      "velocity": 118,
      "chip": "ym2612"
    },
    {
      "channel": 0,
      "note": 57,
      "start": 22.3814,
      "duration": 0.1984,
      "velocity": 109,
      "chip": "ym2612"
    },
    {
      "channel": 1,
      "note": 52,
      "start": 22.3817,
      "duration": 0.1984,
      "velocity": 109,
      "chip": "ym2612"
    },
    {
      "channel": 2,
      "note": 35,
      "start": 22.3829,
      "duration": 0.0987,
      "velocity": 1,
      "chip": "ym2612"
    },
    {
      "channel": 3,
      "note": 57,
      "start": 22.3832,
      "duration": 0.1975,
      "velocity": 82,
      "chip": "ym2612"
    },
    {
      "channel": 4,
      "note": 76,
      "start": 22.3836,
      "duration": 0.0985,
      "velocity": 118,
      "chip": "ym2612"
    },
    {
      "channel": 2,
      "note": 33,
      "start": 22.4818,
      "duration": 0.0986,
      "velocity": 108,
      "chip": "ym2612"
    },
    {
      "channel": 4,
      "note": 72,
      "start": 22.4822,
      "duration": 0.0988,
      "velocity": 118,
      "chip": "ym2612"
    },
    {
      "channel": 0,
      "note": 57,
      "start": 22.58,
      "duration": 0.1985,
      "velocity": 109,
      "chip": "ym2612"
    },
    {
      "channel": 1,
      "note": 52,
      "start": 22.5803,
      "duration": 0.1985,
      "velocity": 109,
      "chip": "ym2612"
    },
    {
      "channel": 2,
      "note": 33,
      "start": 22.5806,
      "duration": 0.0996,
      "velocity": 1,
      "chip": "ym2612"
    },
    {
      "channel": 3,
      "note": 52,
      "start": 22.581,
      "duration": 0.1994,
      "velocity": 82,
      "chip": "ym2612"
    },
    {
      "channel": 4,
      "note": 69,
      "start": 22.5813,
      "duration": 0.0994,
      "velocity": 118,
      "chip": "ym2612"
    },
    {
      "channel": 2,
      "note": 35,
      "start": 22.6804,
      "duration": 0.0996,
      "velocity": 1,
      "chip": "ym2612"
    },
    {
      "channel": 4,
      "note": 64,
      "start": 22.6808,
      "duration": 0.0998,
      "velocity": 118,
      "chip": "ym2612"
    },
    {
      "channel": 0,
      "note": 59,
      "start": 22.7787,
      "duration": 0.2779,
      "velocity": 109,
      "chip": "ym2612"
    },
    {
      "channel": 1,
      "note": 54,
      "start": 22.779,
      "duration": 0.2779,
      "velocity": 109,
      "chip": "ym2612"
    },
    {
      "channel": 2,
      "note": 35,
      "start": 22.7802,
      "duration": 0.0978,
      "velocity": 108,
      "chip": "ym2612"
    },
    {
      "channel": 3,
      "note": 66,
      "start": 22.7805,
      "duration": 0.1772,
      "velocity": 82,
      "chip": "ym2612"
    },
    {
      "channel": 4,
      "note": 78,
      "start": 22.7808,
      "duration": 0.0976,
      "velocity": 118,
      "chip": "ym2612"
    },
    {
      "channel": 2,
      "note": 35,
      "start": 22.8781,
      "duration": 0.0793,
      "velocity": 108,
      "chip": "ym2612"
    },
    {
      "channel": 4,
      "note": 74,
      "start": 22.8786,
      "duration": 0.0795,
      "velocity": 118,
      "chip": "ym2612"
    },
    {
      "channel": 2,
      "note": 35,
      "start": 22.9576,
      "duration": 0.0996,
      "velocity": 108,
      "chip": "ym2612"
    },
    {
      "channel": 3,
      "note": 62,
      "start": 22.9579,
      "duration": 0.1994,
      "velocity": 82,
      "chip": "ym2612"
    },
    {
      "channel": 4,
      "note": 71,
      "start": 22.9582,
      "duration": 0.0993,
      "velocity": 118,
      "chip": "ym2612"
    },
    {
      "channel": 0,
      "note": 59,
      "start": 23.0567,
      "duration": 0.2978,
      "velocity": 109,
      "chip": "ym2612"
    },
    {
      "channel": 1,
      "note": 54,
      "start": 23.057,
      "duration": 0.2978,
      "velocity": 109,
      "chip": "ym2612"
    },
    {
      "channel": 2,
      "note": 35,
      "start": 23.0573,
      "duration": 0.0996,
      "velocity": 1,
      "chip": "ym2612"
    },
    {
      "channel": 4,
      "note": 66,
      "start": 23.0577,
      "duration": 0.0999,
      "velocity": 118,
      "chip": "ym2612"
    },
    {
      "channel": 2,
      "note": 35,
      "start": 23.1572,
      "duration": 0.0991,
      "velocity": 1,
      "chip": "ym2612"
    },
    {
      "channel": 3,
      "note": 59,
      "start": 23.1575,
      "duration": 0.198,
      "velocity": 82,
      "chip": "ym2612"
    },
    {
      "channel": 4,
      "note": 78,
      "start": 23.1578,
      "duration": 0.0989,
      "velocity": 118,
      "chip": "ym2612"
    },
    {
      "channel": 2,
      "note": 35,
      "start": 23.2565,
      "duration": 0.0987,
      "velocity": 108,
      "chip": "ym2612"
    },
    {
      "channel": 4,
      "note": 74,
      "start": 23.2569,
      "duration": 0.0989,
      "velocity": 118,
      "chip": "ym2612"
    },
    {
      "channel": 0,
      "note": 59,
      "start": 23.3547,
      "duration": 0.3772,
      "velocity": 109,
      "chip": "ym2612"
    },
    {
      "channel": 1,
      "note": 54,
      "start": 23.355,
      "duration": 0.3772,
      "velocity": 109,
      "chip": "ym2612"
    },
    {
      "channel": 2,
      "note": 35,
      "start": 23.3553,
      "duration": 0.0996,
      "velocity": 1,
      "chip": "ym2612"
    },
    {
      "channel": 3,
      "note": 54,
      "start": 23.3556,
      "duration": 0.1989,
      "velocity": 82,
      "chip": "ym2612"
    },
    {
      "channel": 4,
      "note": 71,
      "start": 23.3559,
      "duration": 0.0994,
      "velocity": 118,
      "chip": "ym2612"
    },
    {
      "channel": 2,
      "note": 35,
      "start": 23.4551,
      "duration": 0.0991,
      "velocity": 1,
      "chip": "ym2612"
    },
    {
      "channel": 4,
      "note": 66,
      "start": 23.4555,
      "duration": 0.0994,
      "velocity": 118,
      "chip": "ym2612"
    },
    {
      "channel": 2,
      "note": 35,
      "start": 23.5544,
      "duration": 0.0793,
      "velocity": 1,
      "chip": "ym2612"
    },
    {
      "channel": 3,
      "note": 66,
      "start": 23.5547,
      "duration": 0.179,
      "velocity": 82,
      "chip": "ym2612"
    },
    {
      "channel": 4,
      "note": 78,
      "start": 23.5551,
      "duration": 0.0791,
      "velocity": 118,
      "chip": "ym2612"
    },
    {
      "channel": 2,
      "note": 35,
      "start": 23.6339,
      "duration": 0.0995,
      "velocity": 1,
      "chip": "ym2612"
    },
    {
      "channel": 4,
      "note": 74,
      "start": 23.6343,
      "duration": 0.0998,
      "velocity": 118,
      "chip": "ym2612"
    },
    {
      "channel": 0,
      "note": 59,
      "start": 23.732,
      "duration": 0.1985,
      "velocity": 109,
      "chip": "ym2612"
    },
    {
      "channel": 1,
      "note": 54,
      "start": 23.7324,
      "duration": 0.1984,
      "velocity": 109,
      "chip": "ym2612"
    },
    {
      "channel": 2,
      "note": 35,
      "start": 23.7336,
      "duration": 0.0978,
      "velocity": 108,
      "chip": "ym2612"
    },
    {
      "channel": 3,
      "note": 62,
      "start": 23.7339,
      "duration": 0.1984,
      "velocity": 82,
      "chip": "ym2612"
    },
    {
      "channel": 4,
      "note": 71,
      "start": 23.7343,
      "duration": 0.0975,
      "velocity": 118,
      "chip": "ym2612"
    },
    {
      "channel": 2,
      "note": 35,
      "start": 23.8316,
      "duration": 0.1005,
      "velocity": 1,
      "chip": "ym2612"
    },
    {
      "channel": 4,
      "note": 66,
      "start": 23.832,
      "duration": 0.1007,
      "velocity": 118,
      "chip": "ym2612"
    },
    {
      "channel": 0,
      "note": 59,
      "start": 23.9307,
      "duration": 0.3772,
      "velocity": 109,
      "chip": "ym2612"
    },
    {
      "channel": 1,
      "note": 54,
      "start": 23.931,
      "duration": 0.1982,
      "velocity": 109,
      "chip": "ym2612"
    },
    {
      "channel": 2,
      "note": 35,
      "start": 23.9322,
      "duration": 0.0987,
      "velocity": 1,
      "chip": "ym2612"
    },
    {
      "channel": 3,
      "note": 59,
      "start": 23.9325,
      "duration": 0.1973,
      "velocity": 82,
      "chip": "ym2612"
    },
    {
      "channel": 4,
      "note": 78,
      "start": 23.9329,
      "duration": 0.0985,
      "velocity": 118,
      "chip": "ym2612"
    },
    {
      "channel": 2,
      "note": 35,
      "start": 24.0311,
      "duration": 0.0984,
      "velocity": 108,
      "chip": "ym2612"
    },
    {
      "channel": 4,
      "note": 74,
      "start": 24.0315,
      "duration": 0.0987,
      "velocity": 118,
      "chip": "ym2612"
    },
    {
      "channel": 1,
      "note": 59,
      "start": 24.1294,
      "duration": 0.3772,
      "velocity": 109,
      "chip": "ym2612"
    },
    {
      "channel": 2,
      "note": 35,
      "start": 24.1298,
      "duration": 0.0989,
      "velocity": 108,
      "chip": "ym2612"
    },
    {
      "channel": 3,
      "note": 54,
      "start": 24.1301,
      "duration": 0.1785,
      "velocity": 82,
      "chip": "ym2612"
    },
    {
      "channel": 4,
      "note": 71,
      "start": 24.1304,
      "duration": 0.0987,
      "velocity": 118,
      "chip": "ym2612"
    },
    {
      "channel": 2,
      "note": 35,
      "start": 24.2288,
      "duration": 0.0795,
      "velocity": 108,
      "chip": "ym2612"
    },
    {
      "channel": 4,
      "note": 66,
      "start": 24.2292,
      "duration": 0.0797,
      "velocity": 118,
      "chip": "ym2612"
    },
    {
      "channel": 0,
      "note": 59,
      "start": 24.3081,
      "duration": 0.2977,
      "velocity": 109,
      "chip": "ym2612"
    },
    {
      "channel": 2,
      "note": 35,
      "start": 24.3085,
      "duration": 0.0989,
      "velocity": 108,
      "chip": "ym2612"
    },
    {
      "channel": 3,
      "note": 66,
      "start": 24.3088,
      "duration": 0.1985,
      "velocity": 82,
      "chip": "ym2612"
    },
    {
      "channel": 4,
      "note": 78,
      "start": 24.3091,
      "duration": 0.0987,
      "velocity": 118,
      "chip": "ym2612"
    },
    {
      "channel": 2,
      "note": 35,
      "start": 24.4076,
      "duration": 0.0994,
      "velocity": 108,
      "chip": "ym2612"
    },
    {
      "channel": 4,
      "note": 74,
      "start": 24.408,
      "duration": 0.0996,
      "velocity": 118,
      "chip": "ym2612"
    },
    {
      "channel": 1,
      "note": 54,
      "start": 24.5068,
      "duration": 0.2977,
      "velocity": 109,
      "chip": "ym2612"
    },
    {
      "channel": 2,
      "note": 35,
      "start": 24.5072,
      "duration": 0.0991,
      "velocity": 108,
      "chip": "ym2612"
    },
    {
      "channel": 3,
      "note": 62,
      "start": 24.5075,
      "duration": 0.1991,
      "velocity": 82,
      "chip": "ym2612"
    },
    {
      "channel": 4,
      "note": 71,
      "start": 24.5078,
      "duration": 0.0988,
      "velocity": 118,
      "chip": "ym2612"
    },
    {
      "channel": 0,
      "note": 59,
      "start": 24.606,
      "duration": 0.2978,
      "velocity": 109,
      "chip": "ym2612"
    },
    {
      "channel": 2,
      "note": 35,
      "start": 24.6065,
      "duration": 0.0998,
      "velocity": 1,
      "chip": "ym2612"
    },
    {
      "channel": 4,
      "note": 66,
      "start": 24.6068,
      "duration": 0.1,
      "velocity": 118,
      "chip": "ym2612"
    },
    {
      "channel": 2,
      "note": 35,
      "start": 24.7065,
      "duration": 0.0994,
      "velocity": 1,
      "chip": "ym2612"
    },
    {
      "channel": 3,
      "note": 59,
      "start": 24.7068,
      "duration": 0.1987,
      "velocity": 82,
      "chip": "ym2612"
    },
    {
      "channel": 4,
      "note": 78,
      "start": 24.7071,
      "duration": 0.0991,
      "velocity": 118,
      "chip": "ym2612"
    },
    {
      "channel": 1,
      "note": 54,
      "start": 24.8047,
      "duration": 0.2779,
      "velocity": 109,
      "chip": "ym2612"
    },
    {
      "channel": 2,
      "note": 35,
      "start": 24.806,
      "duration": 0.0991,
      "velocity": 1,
      "chip": "ym2612"
    },
    {
      "channel": 4,
      "note": 74,
      "start": 24.8064,
      "duration": 0.0994,
      "velocity": 118,
      "chip": "ym2612"
    },
    {
      "channel": 0,
      "note": 59,
      "start": 24.904,
      "duration": 0.2779,
      "velocity": 109,
      "chip": "ym2612"
    },
    {
      "channel": 2,
      "note": 35,
      "start": 24.9053,
      "duration": 0.0781,
      "velocity": 127,
      "chip": "ym2612"
    },
    {
      "channel": 3,
      "note": 54,
      "start": 24.9056,
      "duration": 0.1786,
      "velocity": 82,
      "chip": "ym2612"
    },
    {
      "channel": 4,
      "note": 71,
      "start": 24.9059,
      "duration": 0.0779,
      "velocity": 118,
      "chip": "ym2612"
    },
    {
      "channel": 2,
      "note": 35,
      "start": 24.9836,
      "duration": 0.1002,
      "velocity": 1,
      "chip": "ym2612"
    },
    {
      "channel": 4,
      "note": 66,
      "start": 24.9841,
      "duration": 0.1005,
      "velocity": 118,
      "chip": "ym2612"
    },
    {
      "channel": 1,
      "note": 54,
      "start": 25.0829,
      "duration": 0.2977,
      "velocity": 109,
      "chip": "ym2612"
    },
    {
      "channel": 2,
      "note": 35,
      "start": 25.0841,
      "duration": 0.0991,
      "velocity": 1,
      "chip": "ym2612"
    },
    {
      "channel": 3,
      "note": 66,
      "start": 25.0844,
      "duration": 0.1973,
      "velocity": 82,
      "chip": "ym2612"
    },
    {
      "channel": 4,
      "note": 78,
      "start": 25.0847,
      "duration": 0.0989,
      "velocity": 118,
      "chip": "ym2612"
    },
    {
      "channel": 0,
      "note": 59,
      "start": 25.182,
      "duration": 0.2978,
      "velocity": 109,
      "chip": "ym2612"
    },
    {
      "channel": 2,
      "note": 35,
      "start": 25.1834,
      "duration": 0.098,
      "velocity": 127,
      "chip": "ym2612"
    },
    {
      "channel": 4,
      "note": 74,
      "start": 25.1838,
      "duration": 0.0982,
      "velocity": 118,
      "chip": "ym2612"
    },
    {
      "channel": 2,
      "note": 35,
      "start": 25.2816,
      "duration": 0.1002,
      "velocity": 1,
      "chip": "ym2612"
    },
    {
      "channel": 3,
      "note": 62,
      "start": 25.2819,
      "duration": 0.1995,
      "velocity": 82,
      "chip": "ym2612"
    },
    {
      "channel": 4,
      "note": 71,
      "start": 25.2822,
      "duration": 0.1,
      "velocity": 118,
      "chip": "ym2612"
    },
    {
      "channel": 1,
      "note": 54,
      "start": 25.3807,
      "duration": 0.2978,
      "velocity": 109,
      "chip": "ym2612"
    },
    {
      "channel": 2,
      "note": 35,
      "start": 25.382,
      "duration": 0.0991,
      "velocity": 1,
      "chip": "ym2612"
    },
    {
      "channel": 4,
      "note": 66,
      "start": 25.3824,
      "duration": 0.0994,
      "velocity": 118,
      "chip": "ym2612"
    },
    {
      "channel": 0,
      "note": 59,
      "start": 25.48,
      "duration": 0.0992,
      "velocity": 109,
      "chip": "ym2612"
    },
    {
      "channel": 2,
      "note": 35,
      "start": 25.4813,
      "duration": 0.0981,
      "velocity": 127,
      "chip": "ym2612"
    },
    {
      "channel": 3,
      "note": 59,
      "start": 25.4817,
      "duration": 0.1975,
      "velocity": 82,
      "chip": "ym2612"
    },
    {
      "channel": 4,
      "note": 78,
      "start": 25.482,
      "duration": 0.0978,
      "velocity": 118,
      "chip": "ym2612"
    },
    {
      "channel": 2,
      "note": 35,
      "start": 25.5796,
      "duration": 0.0992,
      "velocity": 127,
      "chip": "ym2612"
    },
    {
      "channel": 4,
      "note": 74,
      "start": 25.58,
      "duration": 0.0995,
      "velocity": 118,
      "chip": "ym2612"
    },
    {
      "channel": 1,
      "note": 54,
      "start": 25.6787,
      "duration": 0.1791,
      "velocity": 109,
      "chip": "ym2612"
    },
    {
      "channel": 2,
      "note": 35,
      "start": 25.679,
      "duration": 0.0791,
      "velocity": 127,
      "chip": "ym2612"
    },
    {
      "channel": 3,
      "note": 54,
      "start": 25.6794,
      "duration": 0.1815,
      "velocity": 1,
      "chip": "ym2612"
    },
    {
      "channel": 4,
      "note": 71,
      "start": 25.6797,
      "duration": 0.0788,
      "velocity": 118,
      "chip": "ym2612"
    },
    {
      "channel": 2,
      "note": 35,
      "start": 25.7583,
      "duration": 0.1009,
      "velocity": 1,
      "chip": "ym2612"
    },
    {
      "channel": 4,
      "note": 66,
      "start": 25.7587,
      "duration": 0.1034,
      "velocity": 1,
      "chip": "ym2612"
    },
    {
      "channel": 0,
      "note": 61,
      "start": 25.8576,
      "duration": 0.2975,
      "velocity": 109,
      "chip": "ym2612"
    },
    {
      "channel": 1,
      "note": 54,
      "start": 25.858,
      "duration": 0.2974,
      "velocity": 109,
      "chip": "ym2612"
    },
    {
      "channel": 2,
      "note": 42,
      "start": 25.8594,
      "duration": 0.0973,
      "velocity": 108,
      "chip": "ym2612"
    },
    {
      "channel": 4,
      "note": 85,
      "start": 25.8623,
      "duration": 0.0949,
      "velocity": 118,
      "chip": "ym2612"
    },
    {
      "channel": 2,
      "note": 42,
      "start": 25.9569,
      "duration": 0.0991,
      "velocity": 108,
      "chip": "ym2612"
    },
    {
      "channel": 4,
      "note": 81,
      "start": 25.9573,
      "duration": 0.0993,
      "velocity": 118,
      "chip": "ym2612"
    },
    {
      "channel": 2,
      "note": 42,
      "start": 26.0562,
      "duration": 0.0995,
      "velocity": 108,
      "chip": "ym2612"
    },
    {
      "channel": 3,
      "note": 85,
      "start": 26.0565,
      "duration": 0.0995,
      "velocity": 118,
      "chip": "ym2612"
    },
    {
      "channel": 4,
      "note": 78,
      "start": 26.0568,
      "duration": 0.0995,
      "velocity": 118,
      "chip": "ym2612"
    },
    {
      "channel": 0,
      "note": 61,
      "start": 26.1553,
      "duration": 0.2779,
      "velocity": 109,
      "chip": "ym2612"
    },
    {
      "channel": 1,
      "note": 54,
      "start": 26.1556,
      "duration": 0.2779,
      "velocity": 109,
      "chip": "ym2612"
    },
    {
      "channel": 2,
      "note": 42,
      "start": 26.1559,
      "duration": 0.0996,
      "velocity": 1,
      "chip": "ym2612"
    },
    {
      "channel": 3,
      "note": 81,
      "start": 26.1563,
      "duration": 0.0996,
      "velocity": 118,
      "chip": "ym2612"
    },
    {
      "channel": 4,
      "note": 73,
      "start": 26.1566,
      "duration": 0.0996,
      "velocity": 118,
      "chip": "ym2612"
    },
    {
      "channel": 2,
      "note": 37,
      "start": 26.2558,
      "duration": 0.0992,
      "velocity": 1,
      "chip": "ym2612"
    },
    {
      "channel": 3,
      "note": 78,
      "start": 26.2561,
      "duration": 0.0992,
      "velocity": 118,
      "chip": "ym2612"
    },
    {
      "channel": 4,
      "note": 85,
      "start": 26.2564,
      "duration": 0.0992,
      "velocity": 118,
      "chip": "ym2612"
    },
    {
      "channel": 2,
      "note": 42,
      "start": 26.3551,
      "duration": 0.0788,
      "velocity": 108,
      "chip": "ym2612"
    },
    {
      "channel": 3,
      "note": 73,
      "start": 26.3554,
      "duration": 0.0788,
      "velocity": 118,
      "chip": "ym2612"
    },
    {
      "channel": 4,
      "note": 81,
      "start": 26.3558,
      "duration": 0.0788,
      "velocity": 118,
      "chip": "ym2612"
    },
    {
      "channel": 0,
      "note": 61,
      "start": 26.4334,
      "duration": 0.3971,
      "velocity": 109,
      "chip": "ym2612"
    },
    {
      "channel": 1,
      "note": 54,
      "start": 26.4337,
      "duration": 0.3971,
      "velocity": 109,
      "chip": "ym2612"
    },
    {
      "channel": 2,
      "note": 42,
      "start": 26.4341,
      "duration": 0.0996,
      "velocity": 1,
      "chip": "ym2612"
    },
    {
      "channel": 3,
      "note": 85,
      "start": 26.4344,
      "duration": 0.0996,
      "velocity": 118,
      "chip": "ym2612"
    },
    {
      "channel": 4,
      "note": 78,
      "start": 26.4347,
      "duration": 0.0996,
      "velocity": 118,
      "chip": "ym2612"
    },
    {
      "channel": 2,
      "note": 37,
      "start": 26.5339,
      "duration": 0.0991,
      "velocity": 1,
      "chip": "ym2612"
    },
    {
      "channel": 3,
      "note": 81,
      "start": 26.5342,
      "duration": 0.0991,
      "velocity": 118,
      "chip": "ym2612"
    },
    {
      "channel": 4,
      "note": 73,
      "start": 26.5345,
      "duration": 0.0991,
      "velocity": 118,
      "chip": "ym2612"
    },
    {
      "channel": 2,
      "note": 42,
      "start": 26.6332,
      "duration": 0.0991,
      "velocity": 1,
      "chip": "ym2612"
    },
    {
      "channel": 3,
      "note": 78,
      "start": 26.6335,
      "duration": 0.0991,
      "velocity": 118,
      "chip": "ym2612"
    },
    {
      "channel": 4,
      "note": 85,
      "start": 26.6338,
      "duration": 0.0991,
      "velocity": 118,
      "chip": "ym2612"
    },
    {
      "channel": 2,
      "note": 37,
      "start": 26.7325,
      "duration": 0.0996,
      "velocity": 1,
      "chip": "ym2612"
    },
    {
      "channel": 3,
      "note": 73,
      "start": 26.7328,
      "duration": 0.0996,
      "velocity": 118,
      "chip": "ym2612"
    },
    {
      "channel": 4,
      "note": 81,
      "start": 26.7331,
      "duration": 0.0996,
      "velocity": 118,
      "chip": "ym2612"
    },
    {
      "channel": 0,
      "note": 61,
      "start": 26.8307,
      "duration": 0.1984,
      "velocity": 109,
      "chip": "ym2612"
    },
    {
      "channel": 1,
      "note": 54,
      "start": 26.831,
      "duration": 0.1984,
      "velocity": 109,
      "chip": "ym2612"
    },
    {
      "channel": 2,
      "note": 42,
      "start": 26.8323,
      "duration": 0.0977,
      "velocity": 108,
      "chip": "ym2612"
    },
    {
      "channel": 3,
      "note": 85,
      "start": 26.8326,
      "duration": 0.0977,
      "velocity": 118,
      "chip": "ym2612"
    },
    {
      "channel": 4,
      "note": 78,
      "start": 26.8329,
      "duration": 0.0978,
      "velocity": 118,
      "chip": "ym2612"
    },
    {
      "channel": 2,
      "note": 42,
      "start": 26.9302,
      "duration": 0.1005,
      "velocity": 1,
      "chip": "ym2612"
    },
    {
      "channel": 3,
      "note": 81,
      "start": 26.9305,
      "duration": 0.1005,
      "velocity": 118,
      "chip": "ym2612"
    },
    {
      "channel": 4,
      "note": 73,
      "start": 26.9308,
      "duration": 0.1005,
      "velocity": 118,
      "chip": "ym2612"
    },
    {
      "channel": 0,
      "note": 61,
      "start": 27.0293,
      "duration": 0.3772,
      "velocity": 109,
      "chip": "ym2612"
    },
    {
      "channel": 1,
      "note": 54,
      "start": 27.0296,
      "duration": 0.3772,
      "velocity": 109,
      "chip": "ym2612"
    },
    {
      "channel": 2,
      "note": 37,
      "start": 27.0309,
      "duration": 0.0788,
      "velocity": 1,
      "chip": "ym2612"
    },
    {
      "channel": 3,
      "note": 78,
      "start": 27.0312,
      "duration": 0.079,
      "velocity": 118,
      "chip": "ym2612"
    },
    {
      "channel": 4,
      "note": 85,
      "start": 27.0315,
      "duration": 0.079,
      "velocity": 118,
      "chip": "ym2612"
    },
    {
      "channel": 2,
      "note": 42,
      "start": 27.11,
      "duration": 0.0982,
      "velocity": 108,
      "chip": "ym2612"
    },
    {
      "channel": 3,
      "note": 73,
      "start": 27.1103,
      "duration": 0.0981,
      "velocity": 118,
      "chip": "ym2612"
    },
    {
      "channel": 4,
      "note": 81,
      "start": 27.1107,
      "duration": 0.0981,
      "velocity": 118,
      "chip": "ym2612"
    },
    {
      "channel": 2,
      "note": 42,
      "start": 27.2083,
      "duration": 0.0991,
      "velocity": 108,
      "chip": "ym2612"
    },
    {
      "channel": 3,
      "note": 85,
      "start": 27.2086,
      "duration": 0.0991,
      "velocity": 118,
      "chip": "ym2612"
    },
    {
      "channel": 4,
      "note": 78,
      "start": 27.2089,
      "duration": 0.0991,
      "velocity": 118,
      "chip": "ym2612"
    },
    {
      "channel": 2,
      "note": 42,
      "start": 27.3076,
      "duration": 0.0996,
      "velocity": 108,
      "chip": "ym2612"
    },
    {
      "channel": 3,
      "note": 81,
      "start": 27.3079,
      "duration": 0.0996,
      "velocity": 118,
      "chip": "ym2612"
    },
    {
      "channel": 4,
      "note": 73,
      "start": 27.3082,
      "duration": 0.0996,
      "velocity": 118,
      "chip": "ym2612"
    },
    {
      "channel": 0,
      "note": 61,
      "start": 27.4067,
      "duration": 0.2977,
      "velocity": 109,
      "chip": "ym2612"
    },
    {
      "channel": 1,
      "note": 54,
      "start": 27.407,
      "duration": 0.2977,
      "velocity": 109,
      "chip": "ym2612"
    },
    {
      "channel": 2,
      "note": 42,
      "start": 27.4073,
      "duration": 0.0987,
      "velocity": 108,
      "chip": "ym2612"
    },
    {
      "channel": 3,
      "note": 78,
      "start": 27.4077,
      "duration": 0.0987,
      "velocity": 118,
      "chip": "ym2612"
    },
    {
      "channel": 4,
      "note": 85,
      "start": 27.408,
      "duration": 0.0987,
      "velocity": 118,
      "chip": "ym2612"
    },
    {
      "channel": 2,
      "note": 42,
      "start": 27.5062,
      "duration": 0.0992,
      "velocity": 108,
      "chip": "ym2612"
    },
    {
      "channel": 3,
      "note": 73,
      "start": 27.5065,
      "duration": 0.0992,
      "velocity": 118,
      "chip": "ym2612"
    },
    {
      "channel": 4,
      "note": 81,
      "start": 27.5068,
      "duration": 0.0992,
      "velocity": 118,
      "chip": "ym2612"
    },
    {
      "channel": 2,
      "note": 42,
      "start": 27.6056,
      "duration": 0.0995,
      "velocity": 108,
      "chip": "ym2612"
    },
    {
      "channel": 3,
      "note": 85,
      "start": 27.6059,
      "duration": 0.0995,
      "velocity": 118,
      "chip": "ym2612"
    },
    {
      "channel": 4,
      "note": 78,
      "start": 27.6062,
      "duration": 0.0995,
      "velocity": 118,
      "chip": "ym2612"
    },
    {
      "channel": 0,
      "note": 61,
      "start": 27.7046,
      "duration": 0.2779,
      "velocity": 109,
      "chip": "ym2612"
    },
    {
      "channel": 1,
      "note": 54,
      "start": 27.7049,
      "duration": 0.2779,
      "velocity": 109,
      "chip": "ym2612"
    },
    {
      "channel": 2,
      "note": 42,
      "start": 27.7053,
      "duration": 0.0798,
      "velocity": 1,
      "chip": "ym2612"
    },
    {
      "channel": 3,
      "note": 81,
      "start": 27.7056,
      "duration": 0.0798,
      "velocity": 118,
      "chip": "ym2612"
    },
    {
      "channel": 4,
      "note": 73,
      "start": 27.7059,
      "duration": 0.0798,
      "velocity": 118,
      "chip": "ym2612"
    },
    {
      "channel": 2,
      "note": 37,
      "start": 27.7852,
      "duration": 0.0991,
      "velocity": 1,
      "chip": "ym2612"
    },
    {
      "channel": 3,
      "note": 78,
      "start": 27.7855,
      "duration": 0.0991,
      "velocity": 118,
      "chip": "ym2612"
    },
    {
      "channel": 4,
      "note": 85,
      "start": 27.7859,
      "duration": 0.0991,
      "velocity": 118,
      "chip": "ym2612"
    },
    {
      "channel": 2,
      "note": 42,
      "start": 27.8845,
      "duration": 0.0987,
      "velocity": 108,
      "chip": "ym2612"
    },
    {
      "channel": 3,
      "note": 73,
      "start": 27.8848,
      "duration": 0.0987,
      "velocity": 118,
      "chip": "ym2612"
    },
    {
      "channel": 4,
      "note": 81,
      "start": 27.8851,
      "duration": 0.0987,
      "velocity": 118,
      "chip": "ym2612"
    },
    {
      "channel": 0,
      "note": 61,
      "start": 27.9827,
      "duration": 0.2978,
      "velocity": 109,
      "chip": "ym2612"
    },
    {
      "channel": 1,
      "note": 54,
      "start": 27.983,
      "duration": 0.2977,
      "velocity": 109,
      "chip": "ym2612"
    },
    {
      "channel": 2,
      "note": 42,
      "start": 27.9834,
      "duration": 0.0996,
      "velocity": 1,
      "chip": "ym2612"
    },
    {
      "channel": 3,
      "note": 85,
      "start": 27.9837,
      "duration": 0.0996,
      "velocity": 118,
      "chip": "ym2612"
    },
    {
      "channel": 4,
      "note": 78,
      "start": 27.984,
      "duration": 0.0996,
      "velocity": 118,
      "chip": "ym2612"
    },
    {
      "channel": 2,
      "note": 37,
      "start": 28.0832,
      "duration": 0.0991,
      "velocity": 1,
      "chip": "ym2612"
    },
    {
      "channel": 3,
      "note": 81,
      "start": 28.0835,
      "duration": 0.0991,
      "velocity": 118,
      "chip": "ym2612"
    },
    {
      "channel": 4,
      "note": 73,
      "start": 28.0838,
      "duration": 0.0991,
      "velocity": 118,
      "chip": "ym2612"
    },
    {
      "channel": 2,
      "note": 42,
      "start": 28.1825,
      "duration": 0.0996,
      "velocity": 1,
      "chip": "ym2612"
    },
    {
      "channel": 3,
      "note": 78,
      "start": 28.1828,
      "duration": 0.0996,
      "velocity": 118,
      "chip": "ym2612"
    },
    {
      "channel": 4,
      "note": 85,
      "start": 28.1831,
      "duration": 0.0996,
      "velocity": 118,
      "chip": "ym2612"
    },
    {
      "channel": 0,
      "note": 61,
      "start": 28.2806,
      "duration": 0.2779,
      "velocity": 109,
      "chip": "ym2612"
    },
    {
      "channel": 1,
      "note": 54,
      "start": 28.281,
      "duration": 0.278,
      "velocity": 109,
      "chip": "ym2612"
    },
    {
      "channel": 2,
      "note": 37,
      "start": 28.2822,
      "duration": 0.0987,
      "velocity": 1,
      "chip": "ym2612"
    },
    {
      "channel": 3,
      "note": 73,
      "start": 28.2825,
      "duration": 0.0987,
      "velocity": 118,
      "chip": "ym2612"
    },
    {
      "channel": 4,
      "note": 81,
      "start": 28.2829,
      "duration": 0.0987,
      "velocity": 118,
      "chip": "ym2612"
    },
    {
      "channel": 2,
      "note": 42,
      "start": 28.3811,
      "duration": 0.0783,
      "velocity": 108,
      "chip": "ym2612"
    },
    {
      "channel": 3,
      "note": 85,
      "start": 28.3815,
      "duration": 0.0783,
      "velocity": 118,
      "chip": "ym2612"
    },
    {
      "channel": 4,
      "note": 78,
      "start": 28.3818,
      "duration": 0.0784,
      "velocity": 118,
      "chip": "ym2612"
    },
    {
      "channel": 2,
      "note": 42,
      "start": 28.4596,
      "duration": 0.1006,
      "velocity": 1,
      "chip": "ym2612"
    },
    {
      "channel": 3,
      "note": 81,
      "start": 28.4601,
      "duration": 0.1005,
      "velocity": 118,
      "chip": "ym2612"
    },
    {
      "channel": 4,
      "note": 73,
      "start": 28.4604,
      "duration": 0.1005,
      "velocity": 118,
      "chip": "ym2612"
    },
    {
      "channel": 0,
      "note": 61,
      "start": 28.5588,
      "duration": 0.1984,
      "velocity": 109,
      "chip": "ym2612"
    },
    {
      "channel": 1,
      "note": 54,
      "start": 28.5591,
      "duration": 0.1983,
      "velocity": 109,
      "chip": "ym2612"
    },
    {
      "channel": 2,
      "note": 37,
      "start": 28.5605,
      "duration": 0.0985,
      "velocity": 1,
      "chip": "ym2612"
    },
    {
      "channel": 3,
      "note": 78,
      "start": 28.5608,
      "duration": 0.0985,
      "velocity": 118,
      "chip": "ym2612"
    },
    {
      "channel": 4,
      "note": 85,
      "start": 28.5611,
      "duration": 0.0985,
      "velocity": 118,
      "chip": "ym2612"
    },
    {
      "channel": 2,
      "note": 42,
      "start": 28.6592,
      "duration": 0.0986,
      "velocity": 108,
      "chip": "ym2612"
    },
    {
      "channel": 3,
      "note": 73,
      "start": 28.6595,
      "duration": 0.0986,
      "velocity": 118,
      "chip": "ym2612"
    },
    {
      "channel": 4,
      "note": 81,
      "start": 28.6598,
      "duration": 0.0986,
      "velocity": 118,
      "chip": "ym2612"
    },
    {
      "channel": 0,
      "note": 61,
      "start": 28.7573,
      "duration": 0.1985,
      "velocity": 109,
      "chip": "ym2612"
    },
    {
      "channel": 1,
      "note": 54,
      "start": 28.7577,
      "duration": 0.1985,
      "velocity": 109,
      "chip": "ym2612"
    },
    {
      "channel": 2,
      "note": 42,
      "start": 28.758,
      "duration": 0.0997,
      "velocity": 1,
      "chip": "ym2612"
    },
    {
      "channel": 3,
      "note": 85,
      "start": 28.7583,
      "duration": 0.0996,
      "velocity": 118,
      "chip": "ym2612"
    },
    {
      "channel": 4,
      "note": 78,
      "start": 28.7586,
      "duration": 0.0996,
      "velocity": 118,
      "chip": "ym2612"
    },
    {
      "channel": 2,
      "note": 37,
      "start": 28.8579,
      "duration": 0.0995,
      "velocity": 1,
      "chip": "ym2612"
    },
    {
      "channel": 3,
      "note": 81,
      "start": 28.8581,
      "duration": 0.0996,
      "velocity": 118,
      "chip": "ym2612"
    },
    {
      "channel": 4,
      "note": 73,
      "start": 28.8584,
      "duration": 0.0996,
      "velocity": 118,
      "chip": "ym2612"
    },
    {
      "channel": 0,
      "note": 61,
      "start": 28.956,
      "duration": 0.2779,
      "velocity": 109,
      "chip": "ym2612"
    },
    {
      "channel": 1,
      "note": 56,
      "start": 28.9563,
      "duration": 0.2779,
      "velocity": 109,
      "chip": "ym2612"
    },
    {
      "channel": 2,
      "note": 37,
      "start": 28.9576,
      "duration": 0.0977,
      "velocity": 108,
      "chip": "ym2612"
    },
    {
      "channel": 3,
      "note": 78,
      "start": 28.9579,
      "duration": 0.0977,
      "velocity": 118,
      "chip": "ym2612"
    },
    {
      "channel": 4,
      "note": 80,
      "start": 28.9582,
      "duration": 0.0977,
      "velocity": 118,
      "chip": "ym2612"
    },
    {
      "channel": 2,
      "note": 37,
      "start": 29.0555,
      "duration": 0.0992,
      "velocity": 108,
      "chip": "ym2612"
    },
    {
      "channel": 3,
      "note": 73,
      "start": 29.0558,
      "duration": 0.0992,
      "velocity": 118,
      "chip": "ym2612"
    },
    {
      "channel": 4,
      "note": 76,
      "start": 29.0561,
      "duration": 0.0992,
      "velocity": 118,
      "chip": "ym2612"
    },
    {
      "channel": 2,
      "note": 37,
      "start": 29.1549,
      "duration": 0.0796,
      "velocity": 108,
      "chip": "ym2612"
    },
    {
      "channel": 3,
      "note": 80,
      "start": 29.1552,
      "duration": 0.0796,
      "velocity": 118,
      "chip": "ym2612"
    },
    {
      "channel": 4,
      "note": 73,
      "start": 29.1555,
      "duration": 0.0796,
      "velocity": 118,
      "chip": "ym2612"
    },
    {
      "channel": 0,
      "note": 61,
      "start": 29.2341,
      "duration": 0.2978,
      "velocity": 109,
      "chip": "ym2612"
    },
    {
      "channel": 1,
      "note": 56,
      "start": 29.2344,
      "duration": 0.2978,
      "velocity": 109,
      "chip": "ym2612"
    },
    {
      "channel": 2,
      "note": 37,
      "start": 29.2347,
      "duration": 0.0996,
      "velocity": 1,
      "chip": "ym2612"
    },
    {
      "channel": 3,
      "note": 76,
      "start": 29.235,
      "duration": 0.0996,
      "velocity": 118,
      "chip": "ym2612"
    },
    {
      "channel": 4,
      "note": 68,
      "start": 29.2353,
      "duration": 0.0996,
      "velocity": 118,
      "chip": "ym2612"
    },
    {
      "channel": 2,
      "note": 37,
      "start": 29.3345,
      "duration": 0.0992,
      "velocity": 1,
      "chip": "ym2612"
    },
    {
      "channel": 3,
      "note": 73,
      "start": 29.3348,
      "duration": 0.0992,
      "velocity": 118,
      "chip": "ym2612"
    },
    {
      "channel": 4,
      "note": 80,
      "start": 29.3351,
      "duration": 0.0992,
      "velocity": 118,
      "chip": "ym2612"
    },
    {
      "channel": 2,
      "note": 37,
      "start": 29.4339,
      "duration": 0.0987,
      "velocity": 108,
      "chip": "ym2612"
    },
    {
      "channel": 3,
      "note": 68,
      "start": 29.4342,
      "duration": 0.0987,
      "velocity": 118,
      "chip": "ym2612"
    },
    {
      "channel": 4,
      "note": 76,
      "start": 29.4345,
      "duration": 0.0987,
      "velocity": 118,
      "chip": "ym2612"
    },
    {
      "channel": 0,
      "note": 61,
      "start": 29.532,
      "duration": 0.3772,
      "velocity": 109,
      "chip": "ym2612"
    },
    {
      "channel": 1,
      "note": 56,
      "start": 29.5324,
      "duration": 0.3772,
      "velocity": 109,
      "chip": "ym2612"
    },
    {
      "channel": 2,
      "note": 37,
      "start": 29.5327,
      "duration": 0.0996,
      "velocity": 1,
      "chip": "ym2612"
    },
    {
      "channel": 3,
      "note": 80,
      "start": 29.533,
      "duration": 0.0996,
      "velocity": 118,
      "chip": "ym2612"
    },
    {
      "channel": 4,
      "note": 73,
      "start": 29.5334,
      "duration": 0.0996,
      "velocity": 118,
      "chip": "ym2612"
    },
    {
      "channel": 2,
      "note": 37,
      "start": 29.6325,
      "duration": 0.0992,
      "velocity": 1,
      "chip": "ym2612"
    },
    {
      "channel": 3,
      "note": 76,
      "start": 29.6328,
      "duration": 0.0992,
      "velocity": 118,
      "chip": "ym2612"
    },
    {
      "channel": 4,
      "note": 68,
      "start": 29.6331,
      "duration": 0.0992,
      "velocity": 118,
      "chip": "ym2612"
    },
    {
      "channel": 2,
      "note": 37,
      "start": 29.7318,
      "duration": 0.0991,
      "velocity": 1,
      "chip": "ym2612"
    },
    {
      "channel": 3,
      "note": 73,
      "start": 29.7322,
      "duration": 0.0991,
      "velocity": 118,
      "chip": "ym2612"
    },
    {
      "channel": 4,
      "note": 80,
      "start": 29.7325,
      "duration": 0.0991,
      "velocity": 118,
      "chip": "ym2612"
    },
    {
      "channel": 2,
      "note": 37,
      "start": 29.8311,
      "duration": 0.0798,
      "velocity": 1,
      "chip": "ym2612"
    },
    {
      "channel": 3,
      "note": 68,
      "start": 29.8315,
      "duration": 0.0798,
      "velocity": 118,
      "chip": "ym2612"
    },
    {
      "channel": 4,
      "note": 76,
      "start": 29.8318,
      "duration": 0.0798,
      "velocity": 118,
      "chip": "ym2612"
    },
    {
      "channel": 0,
      "note": 61,
      "start": 29.9095,
      "duration": 0.1985,
      "velocity": 109,
      "chip": "ym2612"
    },
    {
      "channel": 1,
      "note": 56,
      "start": 29.9098,
      "duration": 0.1985,
      "velocity": 109,
      "chip": "ym2612"
    },
    {
      "channel": 2,
      "note": 37,
      "start": 29.9112,
      "duration": 0.0976,
      "velocity": 108,
      "chip": "ym2612"
    },
    {
      "channel": 3,
      "note": 80,
      "start": 29.9115,
      "duration": 0.0976,
      "velocity": 118,
      "chip": "ym2612"
    },
    {
      "channel": 4,
      "note": 73,
      "start": 29.9118,
      "duration": 0.0976,
      "velocity": 118,
      "chip": "ym2612"
    },
    {
      "channel": 2,
      "note": 37,
      "start": 30.0089,
      "duration": 0.1005,
      "velocity": 1,
      "chip": "ym2612"
    },
    {
      "channel": 3,
      "note": 76,
      "start": 30.0093,
      "duration": 0.1005,
      "velocity": 118,
      "chip": "ym2612"
    },
    {
      "channel": 4,
      "note": 68,
      "start": 30.0096,
      "duration": 0.1006,
      "velocity": 118,
      "chip": "ym2612"
    },
    {
      "channel": 0,
      "note": 61,
      "start": 30.1081,
      "duration": 0.3971,
      "velocity": 109,
      "chip": "ym2612"
    },
    {
      "channel": 1,
      "note": 56,
      "start": 30.1084,
      "duration": 0.3971,
      "velocity": 109,
      "chip": "ym2612"
    },
    {
      "channel": 2,
      "note": 37,
      "start": 30.1096,
      "duration": 0.0987,
      "velocity": 1,
      "chip": "ym2612"
    },
    {
      "channel": 3,
      "note": 73,
      "start": 30.1101,
      "duration": 0.0985,
      "velocity": 118,
      "chip": "ym2612"
    },
    {
      "channel": 4,
      "note": 80,
      "start": 30.1104,
      "duration": 0.0985,
      "velocity": 118,
      "chip": "ym2612"
    },
    {
      "channel": 2,
      "note": 37,
      "start": 30.2085,
      "duration": 0.0982,
      "velocity": 108,
      "chip": "ym2612"
    },
    {
      "channel": 3,
      "note": 68,
      "start": 30.2088,
      "duration": 0.0982,
      "velocity": 118,
      "chip": "ym2612"
    },
    {
      "channel": 4,
      "note": 76,
      "start": 30.2091,
      "duration": 0.0982,
      "velocity": 118,
      "chip": "ym2612"
    },
    {
      "channel": 2,
      "note": 37,
      "start": 30.3069,
      "duration": 0.0991,
      "velocity": 108,
      "chip": "ym2612"
    },
    {
      "channel": 3,
      "note": 80,
      "start": 30.3072,
      "duration": 0.0991,
      "velocity": 118,
      "chip": "ym2612"
    },
    {
      "channel": 4,
      "note": 73,
      "start": 30.3076,
      "duration": 0.0991,
      "velocity": 118,
      "chip": "ym2612"
    },
    {
      "channel": 2,
      "note": 37,
      "start": 30.4062,
      "duration": 0.0996,
      "velocity": 108,
      "chip": "ym2612"
    },
    {
      "channel": 3,
      "note": 76,
      "start": 30.4065,
      "duration": 0.0996,
      "velocity": 118,
      "chip": "ym2612"
    },
    {
      "channel": 4,
      "note": 68,
      "start": 30.4068,
      "duration": 0.0996,
      "velocity": 118,
      "chip": "ym2612"
    },
    {
      "channel": 0,
      "note": 61,
      "start": 30.5054,
      "duration": 0.2779,
      "velocity": 109,
      "chip": "ym2612"
    },
    {
      "channel": 1,
      "note": 56,
      "start": 30.5057,
      "duration": 0.2778,
      "velocity": 109,
      "chip": "ym2612"
    },
    {
      "channel": 2,
      "note": 37,
      "start": 30.506,
      "duration": 0.0788,
      "velocity": 108,
      "chip": "ym2612"
    },
    {
      "channel": 3,
      "note": 73,
      "start": 30.5063,
      "duration": 0.0788,
      "velocity": 118,
      "chip": "ym2612"
    },
    {
      "channel": 4,
      "note": 80,
      "start": 30.5066,
      "duration": 0.0788,
      "velocity": 118,
      "chip": "ym2612"
    },
    {
      "channel": 2,
      "note": 37,
      "start": 30.585,
      "duration": 0.0992,
      "velocity": 108,
      "chip": "ym2612"
    },
    {
      "channel": 3,
      "note": 68,
      "start": 30.5853,
      "duration": 0.0992,
      "velocity": 118,
      "chip": "ym2612"
    },
    {
      "channel": 4,
      "note": 76,
      "start": 30.5856,
      "duration": 0.0992,
      "velocity": 118,
      "chip": "ym2612"
    },
    {
      "channel": 2,
      "note": 37,
      "start": 30.6843,
      "duration": 0.0995,
      "velocity": 108,
      "chip": "ym2612"
    },
    {
      "channel": 3,
      "note": 80,
      "start": 30.6846,
      "duration": 0.0995,
      "velocity": 118,
      "chip": "ym2612"
    },
    {
      "channel": 4,
      "note": 73,
      "start": 30.685,
      "duration": 0.0995,
      "velocity": 118,
      "chip": "ym2612"
    },
    {
      "channel": 0,
      "note": 61,
      "start": 30.7834,
      "duration": 0.2977,
      "velocity": 109,
      "chip": "ym2612"
    },
    {
      "channel": 1,
      "note": 56,
      "start": 30.7837,
      "duration": 0.2978,
      "velocity": 109,
      "chip": "ym2612"
    },
    {
      "channel": 2,
      "note": 37,
      "start": 30.784,
      "duration": 0.0997,
      "velocity": 1,
      "chip": "ym2612"
    },
    {
      "channel": 3,
      "note": 76,
      "start": 30.7843,
      "duration": 0.0997,
      "velocity": 118,
      "chip": "ym2612"
    },
    {
      "channel": 4,
      "note": 68,
      "start": 30.7846,
      "duration": 0.0997,
      "velocity": 118,
      "chip": "ym2612"
    },
    {
      "channel": 2,
      "note": 37,
      "start": 30.8839,
      "duration": 0.0991,
      "velocity": 1,
      "chip": "ym2612"
    },
    {
      "channel": 3,
      "note": 73,
      "start": 30.8842,
      "duration": 0.0991,
      "velocity": 118,
      "chip": "ym2612"
    },
    {
      "channel": 4,
      "note": 80,
      "start": 30.8845,
      "duration": 0.0991,
      "velocity": 118,
      "chip": "ym2612"
    },
    {
      "channel": 2,
      "note": 37,
      "start": 30.9832,
      "duration": 0.0986,
      "velocity": 108,
      "chip": "ym2612"
    },
    {
      "channel": 3,
      "note": 68,
      "start": 30.9835,
      "duration": 0.0986,
      "velocity": 118,
      "chip": "ym2612"
    },
    {
      "channel": 4,
      "note": 76,
      "start": 30.9838,
      "duration": 0.0986,
      "velocity": 118,
      "chip": "ym2612"
    },
    {
      "channel": 0,
      "note": 61,
      "start": 31.0813,
      "duration": 0.2779,
      "velocity": 109,
      "chip": "ym2612"
    },
    {
      "channel": 1,
      "note": 56,
      "start": 31.0817,
      "duration": 0.2779,
      "velocity": 109,
      "chip": "ym2612"
    },
    {
      "channel": 2,
      "note": 37,
      "start": 31.082,
      "duration": 0.0996,
      "velocity": 1,
      "chip": "ym2612"
    },
    {
      "channel": 3,
      "note": 80,
      "start": 31.0823,
      "duration": 0.0996,
      "velocity": 118,
      "chip": "ym2612"
    },
    {
      "channel": 4,
      "note": 73,
      "start": 31.0826,
      "duration": 0.0996,
      "velocity": 118,
      "chip": "ym2612"
    },
    {
      "channel": 2,
      "note": 37,
      "start": 31.1818,
      "duration": 0.0794,
      "velocity": 1,
      "chip": "ym2612"
    },
    {
      "channel": 3,
      "note": 76,
      "start": 31.1821,
      "duration": 0.0794,
      "velocity": 118,
      "chip": "ym2612"
    },
    {
      "channel": 4,
      "note": 68,
      "start": 31.1824,
      "duration": 0.0794,
      "velocity": 118,
      "chip": "ym2612"
    },
    {
      "channel": 2,
      "note": 37,
      "start": 31.2614,
      "duration": 0.0995,
      "velocity": 1,
      "chip": "ym2612"
    },
    {
      "channel": 3,
      "note": 73,
      "start": 31.2617,
      "duration": 0.0995,
      "velocity": 118,
      "chip": "ym2612"
    },
    {
      "channel": 4,
      "note": 80,
      "start": 31.262,
      "duration": 0.0995,
      "velocity": 118,
      "chip": "ym2612"
    },
    {
      "channel": 0,
      "note": 61,
      "start": 31.3595,
      "duration": 0.2978,
      "velocity": 109,
      "chip": "ym2612"
    },
    {
      "channel": 1,
      "note": 56,
      "start": 31.3598,
      "duration": 0.2978,
      "velocity": 109,
      "chip": "ym2612"
    },
    {
      "channel": 2,
      "note": 37,
      "start": 31.3611,
      "duration": 0.0986,
      "velocity": 1,
      "chip": "ym2612"
    },
    {
      "channel": 3,
      "note": 68,
      "start": 31.3614,
      "duration": 0.0987,
      "velocity": 118,
      "chip": "ym2612"
    },
    {
      "channel": 4,
      "note": 76,
      "start": 31.3617,
      "duration": 0.0987,
      "velocity": 118,
      "chip": "ym2612"
    },
    {
      "channel": 2,
      "note": 37,
      "start": 31.46,
      "duration": 0.0982,
      "velocity": 108,
      "chip": "ym2612"
    },
    {
      "channel": 3,
      "note": 80,
      "start": 31.4603,
      "duration": 0.0981,
      "velocity": 118,
      "chip": "ym2612"
    },
    {
      "channel": 4,
      "note": 73,
      "start": 31.4607,
      "duration": 0.0981,
      "velocity": 118,
      "chip": "ym2612"
    },
    {
      "channel": 2,
      "note": 37,
      "start": 31.5583,
      "duration": 0.1005,
      "velocity": 1,
      "chip": "ym2612"
    },
    {
      "channel": 3,
      "note": 76,
      "start": 31.5586,
      "duration": 0.1005,
      "velocity": 118,
      "chip": "ym2612"
    },
    {
      "channel": 4,
      "note": 68,
      "start": 31.5589,
      "duration": 0.1005,
      "velocity": 118,
      "chip": "ym2612"
    },
    {
      "channel": 0,
      "note": 61,
      "start": 31.6574,
      "duration": 0.1984,
      "velocity": 109,
      "chip": "ym2612"
    },
    {
      "channel": 1,
      "note": 56,
      "start": 31.6577,
      "duration": 0.1984,
      "velocity": 109,
      "chip": "ym2612"
    },
    {
      "channel": 2,
      "note": 37,
      "start": 31.659,
      "duration": 0.0987,
      "velocity": 1,
      "chip": "ym2612"
    },
    {
      "channel": 3,
      "note": 73,
      "start": 31.6593,
      "duration": 0.0987,
      "velocity": 118,
      "chip": "ym2612"
    },
    {
      "channel": 4,
      "note": 80,
      "start": 31.6596,
      "duration": 0.0987,
      "velocity": 118,
      "chip": "ym2612"
    },
    {
      "channel": 2,
      "note": 37,
      "start": 31.7579,
      "duration": 0.0995,
      "velocity": 1,
      "chip": "ym2612"
    },
    {
      "channel": 3,
      "note": 68,
      "start": 31.7582,
      "duration": 0.0995,
      "velocity": 118,
      "chip": "ym2612"
    },
    {
      "channel": 4,
      "note": 76,
      "start": 31.7585,
      "duration": 0.0995,
      "velocity": 118,
      "chip": "ym2612"
    },
    {
      "channel": 0,
      "note": 61,
      "start": 31.856,
      "duration": 0.1786,
      "velocity": 109,
      "chip": "ym2612"
    },
    {
      "channel": 1,
      "note": 56,
      "start": 31.8563,
      "duration": 0.1786,
      "velocity": 109,
      "chip": "ym2612"
    },
    {
      "channel": 2,
      "note": 37,
      "start": 31.8576,
      "duration": 0.0779,
      "velocity": 127,
      "chip": "ym2612"
    },
    {
      "channel": 3,
      "note": 80,
      "start": 31.8579,
      "duration": 0.0779,
      "velocity": 118,
      "chip": "ym2612"
    },
    {
      "channel": 4,
      "note": 73,
      "start": 31.8582,
      "duration": 0.0779,
      "velocity": 118,
      "chip": "ym2612"
    },
    {
      "channel": 2,
      "note": 37,
      "start": 31.9356,
      "duration": 0.1005,
      "velocity": 1,
      "chip": "ym2612"
    },
    {
      "channel": 3,
      "note": 76,
      "start": 31.936,
      "duration": 0.1005,
      "velocity": 118,
      "chip": "ym2612"
    },
    {
      "channel": 4,
      "note": 68,
      "start": 31.9363,
      "duration": 0.1005,
      "velocity": 118,
      "chip": "ym2612"
    },
    {
      "channel": 0,
      "note": 59,
      "start": 32.0348,
      "duration": 0.2978,
      "velocity": 109,
      "chip": "ym2612"
    },
    {
      "channel": 1,
      "note": 54,
      "start": 32.0351,
      "duration": 0.2977,
      "velocity": 109,
      "chip": "ym2612"
    },
    {
      "channel": 2,
      "note": 35,
      "start": 32.0363,
      "duration": 0.0978,
      "velocity": 108,
      "chip": "ym2612"
    },
    {
      "channel": 3,
      "note": 73,
      "start": 32.0367,
      "duration": 0.0978,
      "velocity": 118,
      "chip": "ym2612"
    },
    {
      "channel": 4,
      "note": 78,
      "start": 32.037,
      "duration": 0.0978,
      "velocity": 118,
      "chip": "ym2612"
    },
    {
      "channel": 2,
      "note": 35,
      "start": 32.1343,
      "duration": 0.0991,
      "velocity": 108,
      "chip": "ym2612"
    },
    {
      "channel": 3,
      "note": 68,
      "start": 32.1346,
      "duration": 0.0991,
      "velocity": 118,
      "chip": "ym2612"
    },
    {
      "channel": 4,
      "note": 74,
      "start": 32.135,
      "duration": 0.0991,
      "velocity": 118,
      "chip": "ym2612"
    },
    {
      "channel": 2,
      "note": 35,
      "start": 32.2336,
      "duration": 0.0995,
      "velocity": 108,
      "chip": "ym2612"
    },
    {
      "channel": 3,
      "note": 78,
      "start": 32.2339,
      "duration": 0.0995,
      "velocity": 118,
      "chip": "ym2612"
    },
    {
      "channel": 4,
      "note": 71,
      "start": 32.2343,
      "duration": 0.0995,
      "velocity": 118,
      "chip": "ym2612"
    },
    {
      "channel": 0,
      "note": 59,
      "start": 32.3327,
      "duration": 0.2779,
      "velocity": 109,
      "chip": "ym2612"
    },
    {
      "channel": 1,
      "note": 54,
      "start": 32.333,
      "duration": 0.2779,
      "velocity": 109,
      "chip": "ym2612"
    },
    {
      "channel": 2,
      "note": 35,
      "start": 32.3334,
      "duration": 0.0996,
      "velocity": 1,
      "chip": "ym2612"
    },
    {
      "channel": 3,
      "note": 74,
      "start": 32.3337,
      "duration": 0.0996,
      "velocity": 118,
      "chip": "ym2612"
    },
    {
      "channel": 4,
      "note": 66,
      "start": 32.3339,
      "duration": 0.0997,
      "velocity": 118,
      "chip": "ym2612"
    },
    {
      "channel": 2,
      "note": 37,
      "start": 32.4332,
      "duration": 0.0991,
      "velocity": 1,
      "chip": "ym2612"
    },
    {
      "channel": 3,
      "note": 71,
      "start": 32.4335,
      "duration": 0.0991,
      "velocity": 118,
      "chip": "ym2612"
    },
    {
      "channel": 4,
      "note": 78,
      "start": 32.4338,
      "duration": 0.0991,
      "velocity": 118,
      "chip": "ym2612"
    },
    {
      "channel": 2,
      "note": 35,
      "start": 32.5325,
      "duration": 0.0788,
      "velocity": 108,
      "chip": "ym2612"
    },
    {
      "channel": 3,
      "note": 66,
      "start": 32.5328,
      "duration": 0.0788,
      "velocity": 118,
      "chip": "ym2612"
    },
    {
      "channel": 4,
      "note": 74,
      "start": 32.5331,
      "duration": 0.0788,
      "velocity": 118,
      "chip": "ym2612"
    },
    {
      "channel": 0,
      "note": 59,
      "start": 32.6108,
      "duration": 0.3971,
      "velocity": 109,
      "chip": "ym2612"
    },
    {
      "channel": 1,
      "note": 54,
      "start": 32.6112,
      "duration": 0.3971,
      "velocity": 109,
      "chip": "ym2612"
    },
    {
      "channel": 2,
      "note": 35,
      "start": 32.6115,
      "duration": 0.0997,
      "velocity": 1,
      "chip": "ym2612"
    },
    {
      "channel": 3,
      "note": 78,
      "start": 32.6118,
      "duration": 0.0997,
      "velocity": 118,
      "chip": "ym2612"
    },
    {
      "channel": 4,
      "note": 71,
      "start": 32.6121,
      "duration": 0.0997,
      "velocity": 118,
      "chip": "ym2612"
    },
    {
      "channel": 2,
      "note": 37,
      "start": 32.7114,
      "duration": 0.0992,
      "velocity": 1,
      "chip": "ym2612"
    },
    {
      "channel": 3,
      "note": 74,
      "start": 32.7117,
      "duration": 0.0992,
      "velocity": 118,
      "chip": "ym2612"
    },
    {
      "channel": 4,
      "note": 66,
      "start": 32.712,
      "duration": 0.0992,
      "velocity": 118,
      "chip": "ym2612"
    },
    {
      "channel": 2,
      "note": 35,
      "start": 32.8107,
      "duration": 0.099,
      "velocity": 1,
      "chip": "ym2612"
    },
    {
      "channel": 3,
      "note": 71,
      "start": 32.811,
      "duration": 0.0991,
      "velocity": 118,
      "chip": "ym2612"
    },
    {
      "channel": 4,
      "note": 78,
      "start": 32.8114,
      "duration": 0.0991,
      "velocity": 118,
      "chip": "ym2612"
    },
    {
      "channel": 2,
      "note": 37,
      "start": 32.91,
      "duration": 0.0995,
      "velocity": 1,
      "chip": "ym2612"
    },
    {
      "channel": 3,
      "note": 66,
      "start": 32.9103,
      "duration": 0.0994,
      "velocity": 118,
      "chip": "ym2612"
    },
    {
      "channel": 4,
      "note": 74,
      "start": 32.9107,
      "duration": 0.0995,
      "velocity": 118,
      "chip": "ym2612"
    },
    {
      "channel": 0,
      "note": 59,
      "start": 33.0081,
      "duration": 0.1984,
      "velocity": 109,
      "chip": "ym2612"
    },
    {
      "channel": 1,
      "note": 54,
      "start": 33.0084,
      "duration": 0.1984,
      "velocity": 109,
      "chip": "ym2612"
    },
    {
      "channel": 2,
      "note": 35,
      "start": 33.0096,
      "duration": 0.0978,
      "velocity": 108,
      "chip": "ym2612"
    },
    {
      "channel": 3,
      "note": 78,
      "start": 33.0101,
      "duration": 0.0976,
      "velocity": 118,
      "chip": "ym2612"
    },
    {
      "channel": 4,
      "note": 71,
      "start": 33.0104,
      "duration": 0.0976,
      "velocity": 118,
      "chip": "ym2612"
    },
    {
      "channel": 2,
      "note": 35,
      "start": 33.1076,
      "duration": 0.1005,
      "velocity": 1,
      "chip": "ym2612"
    },
    {
      "channel": 3,
      "note": 74,
      "start": 33.1079,
      "duration": 0.1005,
      "velocity": 118,
      "chip": "ym2612"
    },
    {
      "channel": 4,
      "note": 66,
      "start": 33.1082,
      "duration": 0.1005,
      "velocity": 118,
      "chip": "ym2612"
    },
    {
      "channel": 0,
      "note": 59,
      "start": 33.2067,
      "duration": 0.3772,
      "velocity": 109,
      "chip": "ym2612"
    },
    {
      "channel": 1,
      "note": 54,
      "start": 33.207,
      "duration": 0.3772,
      "velocity": 109,
      "chip": "ym2612"
    },
    {
      "channel": 2,
      "note": 37,
      "start": 33.2083,
      "duration": 0.0987,
      "velocity": 1,
      "chip": "ym2612"
    },
    {
      "channel": 3,
      "note": 71,
      "start": 33.2086,
      "duration": 0.0987,
      "velocity": 118,
      "chip": "ym2612"
    },
    {
      "channel": 4,
      "note": 78,
      "start": 33.2089,
      "duration": 0.0987,
      "velocity": 118,
      "chip": "ym2612"
    },
    {
      "channel": 2,
      "note": 35,
      "start": 33.3072,
      "duration": 0.0783,
      "velocity": 108,
      "chip": "ym2612"
    },
    {
      "channel": 3,
      "note": 66,
      "start": 33.3075,
      "duration": 0.0783,
      "velocity": 118,
      "chip": "ym2612"
    },
    {
      "channel": 4,
      "note": 74,
      "start": 33.3078,
      "duration": 0.0783,
      "velocity": 118,
      "chip": "ym2612"
    },
    {
      "channel": 2,
      "note": 35,
      "start": 33.3856,
      "duration": 0.0991,
      "velocity": 108,
      "chip": "ym2612"
    },
    {
      "channel": 3,
      "note": 78,
      "start": 33.386,
      "duration": 0.0991,
      "velocity": 118,
      "chip": "ym2612"
    },
    {
      "channel": 4,
      "note": 71,
      "start": 33.3863,
      "duration": 0.0991,
      "velocity": 118,
      "chip": "ym2612"
    },
    {
      "channel": 2,
      "note": 35,
      "start": 33.485,
      "duration": 0.0996,
      "velocity": 108,
      "chip": "ym2612"
    },
    {
      "channel": 3,
      "note": 74,
      "start": 33.4853,
      "duration": 0.0996,
      "velocity": 118,
      "chip": "ym2612"
    },
    {
      "channel": 4,
      "note": 66,
      "start": 33.4856,
      "duration": 0.0996,
      "velocity": 118,
      "chip": "ym2612"
    },
    {
      "channel": 0,
      "note": 59,
      "start": 33.5841,
      "duration": 0.2977,
      "velocity": 109,
      "chip": "ym2612"
    },
    {
      "channel": 1,
      "note": 54,
      "start": 33.5844,
      "duration": 0.2977,
      "velocity": 109,
      "chip": "ym2612"
    },
    {
      "channel": 2,
      "note": 35,
      "start": 33.5848,
      "duration": 0.0987,
      "velocity": 108,
      "chip": "ym2612"
    },
    {
      "channel": 3,
      "note": 71,
      "start": 33.5851,
      "duration": 0.0987,
      "velocity": 118,
      "chip": "ym2612"
    },
    {
      "channel": 4,
      "note": 78,
      "start": 33.5854,
      "duration": 0.0987,
      "velocity": 118,
      "chip": "ym2612"
    },
    {
      "channel": 2,
      "note": 35,
      "start": 33.6836,
      "duration": 0.0991,
      "velocity": 108,
      "chip": "ym2612"
    },
    {
      "channel": 3,
      "note": 66,
      "start": 33.6839,
      "duration": 0.0991,
      "velocity": 118,
      "chip": "ym2612"
    },
    {
      "channel": 4,
      "note": 74,
      "start": 33.6843,
      "duration": 0.0991,
      "velocity": 118,
      "chip": "ym2612"
    },
    {
      "channel": 2,
      "note": 35,
      "start": 33.7829,
      "duration": 0.0995,
      "velocity": 108,
      "chip": "ym2612"
    },
    {
      "channel": 3,
      "note": 78,
      "start": 33.7832,
      "duration": 0.0995,
      "velocity": 118,
      "chip": "ym2612"
    },
    {
      "channel": 4,
      "note": 71,
      "start": 33.7836,
      "duration": 0.0995,
      "velocity": 118,
      "chip": "ym2612"
    },
    {
      "channel": 0,
      "note": 59,
      "start": 33.882,
      "duration": 0.278,
      "velocity": 109,
      "chip": "ym2612"
    },
    {
      "channel": 1,
      "note": 54,
      "start": 33.8824,
      "duration": 0.278,
      "velocity": 109,
      "chip": "ym2612"
    },
    {
      "channel": 2,
      "note": 35,
      "start": 33.8827,
      "duration": 0.0996,
      "velocity": 1,
      "chip": "ym2612"
    },
    {
      "channel": 3,
      "note": 74,
      "start": 33.883,
      "duration": 0.0996,
      "velocity": 118,
      "chip": "ym2612"
    },
    {
      "channel": 4,
      "note": 66,
      "start": 33.8833,
      "duration": 0.0996,
      "velocity": 118,
      "chip": "ym2612"
    },
    {
      "channel": 2,
      "note": 37,
      "start": 33.9825,
      "duration": 0.0793,
      "velocity": 1,
      "chip": "ym2612"
    },
    {
      "channel": 3,
      "note": 71,
      "start": 33.9828,
      "duration": 0.0793,
      "velocity": 118,
      "chip": "ym2612"
    },
    {
      "channel": 4,
      "note": 78,
      "start": 33.9831,
      "duration": 0.0793,
      "velocity": 118,
      "chip": "ym2612"
    },
    {
      "channel": 2,
      "note": 35,
      "start": 34.0619,
      "duration": 0.0987,
      "velocity": 108,
      "chip": "ym2612"
    },
    {
      "channel": 3,
      "note": 66,
      "start": 34.0622,
      "duration": 0.0987,
      "velocity": 118,
      "chip": "ym2612"
    },
    {
      "channel": 4,
      "note": 74,
      "start": 34.0626,
      "duration": 0.0987,
      "velocity": 118,
      "chip": "ym2612"
    },
    {
      "channel": 0,
      "note": 59,
      "start": 34.1602,
      "duration": 0.2977,
      "velocity": 109,
      "chip": "ym2612"
    },
    {
      "channel": 1,
      "note": 54,
      "start": 34.1605,
      "duration": 0.2977,
      "velocity": 109,
      "chip": "ym2612"
    },
    {
      "channel": 2,
      "note": 35,
      "start": 34.1608,
      "duration": 0.0997,
      "velocity": 1,
      "chip": "ym2612"
    },
    {
      "channel": 3,
      "note": 78,
      "start": 34.1612,
      "duration": 0.0997,
      "velocity": 118,
      "chip": "ym2612"
    },
    {
      "channel": 4,
      "note": 71,
      "start": 34.1615,
      "duration": 0.0997,
      "velocity": 118,
      "chip": "ym2612"
    },
    {
      "channel": 2,
      "note": 37,
      "start": 34.2607,
      "duration": 0.099,
      "velocity": 1,
      "chip": "ym2612"
    },
    {
      "channel": 3,
      "note": 74,
      "start": 34.261,
      "duration": 0.0991,
      "velocity": 118,
      "chip": "ym2612"
    },
    {
      "channel": 4,
      "note": 66,
      "start": 34.2614,
      "duration": 0.0991,
      "velocity": 118,
      "chip": "ym2612"
    },
    {
      "channel": 2,
      "note": 35,
      "start": 34.36,
      "duration": 0.0995,
      "velocity": 1,
      "chip": "ym2612"
    },
    {
      "channel": 3,
      "note": 71,
      "start": 34.3603,
      "duration": 0.0994,
      "velocity": 118,
      "chip": "ym2612"
    },
    {
      "channel": 4,
      "note": 78,
      "start": 34.3607,
      "duration": 0.0995,
      "velocity": 118,
      "chip": "ym2612"
    },
    {
      "channel": 0,
      "note": 59,
      "start": 34.458,
      "duration": 0.2779,
      "velocity": 109,
      "chip": "ym2612"
    },
    {
      "channel": 1,
      "note": 54,
      "start": 34.4584,
      "duration": 0.2779,
      "velocity": 109,
      "chip": "ym2612"
    },
    {
      "channel": 2,
      "note": 37,
      "start": 34.4596,
      "duration": 0.0987,
      "velocity": 1,
      "chip": "ym2612"
    },
    {
      "channel": 3,
      "note": 66,
      "start": 34.46,
      "duration": 0.0986,
      "velocity": 118,
      "chip": "ym2612"
    },
    {
      "channel": 4,
      "note": 74,
      "start": 34.4604,
      "duration": 0.0985,
      "velocity": 118,
      "chip": "ym2612"
    },
    {
      "channel": 2,
      "note": 35,
      "start": 34.5585,
      "duration": 0.0982,
      "velocity": 108,
      "chip": "ym2612"
    },
    {
      "channel": 3,
      "note": 78,
      "start": 34.5588,
      "duration": 0.0982,
      "velocity": 118,
      "chip": "ym2612"
    },
    {
      "channel": 4,
      "note": 71,
      "start": 34.5591,
      "duration": 0.0982,
      "velocity": 118,
      "chip": "ym2612"
    },
    {
      "channel": 2,
      "note": 35,
      "start": 34.6569,
      "duration": 0.0807,
      "velocity": 1,
      "chip": "ym2612"
    },
    {
      "channel": 3,
      "note": 74,
      "start": 34.6572,
      "duration": 0.0807,
      "velocity": 118,
      "chip": "ym2612"
    },
    {
      "channel": 4,
      "note": 66,
      "start": 34.6576,
      "duration": 0.0806,
      "velocity": 118,
      "chip": "ym2612"
    },
    {
      "channel": 0,
      "note": 59,
      "start": 34.7362,
      "duration": 0.1984,
      "velocity": 109,
      "chip": "ym2612"
    },
    {
      "channel": 1,
      "note": 54,
      "start": 34.7365,
      "duration": 0.1984,
      "velocity": 109,
      "chip": "ym2612"
    },
    {
      "channel": 2,
      "note": 37,
      "start": 34.7378,
      "duration": 0.0987,
      "velocity": 1,
      "chip": "ym2612"
    },
    {
      "channel": 3,
      "note": 71,
      "start": 34.7381,
      "duration": 0.0987,
      "velocity": 118,
      "chip": "ym2612"
    },
    {
      "channel": 4,
      "note": 78,
      "start": 34.7383,
      "duration": 0.0987,
      "velocity": 118,
      "chip": "ym2612"
    },
    {
      "channel": 2,
      "note": 35,
      "start": 34.8366,
      "duration": 0.0986,
      "velocity": 108,
      "chip": "ym2612"
    },
    {
      "channel": 3,
      "note": 66,
      "start": 34.8369,
      "duration": 0.0986,
      "velocity": 118,
      "chip": "ym2612"
    },
    {
      "channel": 4,
      "note": 74,
      "start": 34.8373,
      "duration": 0.0986,
      "velocity": 118,
      "chip": "ym2612"
    },
    {
      "channel": 0,
      "note": 59,
      "start": 34.9348,
      "duration": 0.1985,
      "velocity": 109,
      "chip": "ym2612"
    },
    {
      "channel": 1,
      "note": 54,
      "start": 34.9351,
      "duration": 0.1985,
      "velocity": 109,
      "chip": "ym2612"
    },
    {
      "channel": 2,
      "note": 35,
      "start": 34.9354,
      "duration": 0.0996,
      "velocity": 1,
      "chip": "ym2612"
    },
    {
      "channel": 3,
      "note": 78,
      "start": 34.9357,
      "duration": 0.0996,
      "velocity": 118,
      "chip": "ym2612"
    },
    {
      "channel": 4,
      "note": 71,
      "start": 34.936,
      "duration": 0.0996,
      "velocity": 118,
      "chip": "ym2612"
    },
    {
      "channel": 2,
      "note": 37,
      "start": 35.0352,
      "duration": 0.0996,
      "velocity": 1,
      "chip": "ym2612"
    },
    {
      "channel": 3,
      "note": 74,
      "start": 35.0355,
      "duration": 0.0996,
      "velocity": 118,
      "chip": "ym2612"
    },
    {
      "channel": 4,
      "note": 66,
      "start": 35.0359,
      "duration": 0.0996,
      "velocity": 118,
      "chip": "ym2612"
    },
    {
      "channel": 0,
      "note": 61,
      "start": 35.1334,
      "duration": 0.2779,
      "velocity": 109,
      "chip": "ym2612"
    },
    {
      "channel": 1,
      "note": 56,
      "start": 35.1337,
      "duration": 0.2779,
      "velocity": 109,
      "chip": "ym2612"
    },
    {
      "channel": 2,
      "note": 37,
      "start": 35.135,
      "duration": 0.0977,
      "velocity": 108,
      "chip": "ym2612"
    },
    {
      "channel": 3,
      "note": 71,
      "start": 35.1353,
      "duration": 0.0977,
      "velocity": 118,
      "chip": "ym2612"
    },
    {
      "channel": 4,
      "note": 80,
      "start": 35.1356,
      "duration": 0.0977,
      "velocity": 118,
      "chip": "ym2612"
    },
    {
      "channel": 2,
      "note": 37,
      "start": 35.2329,
      "duration": 0.0991,
      "velocity": 108,
      "chip": "ym2612"
    },
    {
      "channel": 3,
      "note": 66,
      "start": 35.2332,
      "duration": 0.0991,
      "velocity": 118,
      "chip": "ym2612"
    },
    {
      "channel": 4,
      "note": 76,
      "start": 35.2336,
      "duration": 0.0991,
      "velocity": 118,
      "chip": "ym2612"
    },
    {
      "channel": 2,
      "note": 37,
      "start": 35.3322,
      "duration": 0.0797,
      "velocity": 108,
      "chip": "ym2612"
    },
    {
      "channel": 3,
      "note": 80,
      "start": 35.3325,
      "duration": 0.0797,
      "velocity": 118,
      "chip": "ym2612"
    },
    {
      "channel": 4,
      "note": 73,
      "start": 35.3329,
      "duration": 0.0797,
      "velocity": 118,
      "chip": "ym2612"
    },
    {
      "channel": 0,
      "note": 61,
      "start": 35.4115,
      "duration": 0.2978,
      "velocity": 109,
      "chip": "ym2612"
    },
    {
      "channel": 1,
      "note": 56,
      "start": 35.4118,
      "duration": 0.2978,
      "velocity": 109,
      "chip": "ym2612"
    },
    {
      "channel": 2,
      "note": 37,
      "start": 35.4121,
      "duration": 0.0996,
      "velocity": 1,
      "chip": "ym2612"
    },
    {
      "channel": 3,
      "note": 76,
      "start": 35.4124,
      "duration": 0.0996,
      "velocity": 118,
      "chip": "ym2612"
    },
    {
      "channel": 4,
      "note": 68,
      "start": 35.4128,
      "duration": 0.0996,
      "velocity": 118,
      "chip": "ym2612"
    },
    {
      "channel": 2,
      "note": 37,
      "start": 35.5119,
      "duration": 0.0992,
      "velocity": 1,
      "chip": "ym2612"
    },
    {
      "channel": 3,
      "note": 73,
      "start": 35.5122,
      "duration": 0.0992,
      "velocity": 118,
      "chip": "ym2612"
    },
    {
      "channel": 4,
      "note": 80,
      "start": 35.5126,
      "duration": 0.0992,
      "velocity": 118,
      "chip": "ym2612"
    },
    {
      "channel": 2,
      "note": 37,
      "start": 35.6114,
      "duration": 0.0986,
      "velocity": 108,
      "chip": "ym2612"
    },
    {
      "channel": 3,
      "note": 68,
      "start": 35.6117,
      "duration": 0.0987,
      "velocity": 118,
      "chip": "ym2612"
    },
    {
      "channel": 4,
      "note": 76,
      "start": 35.612,
      "duration": 0.0987,
      "velocity": 118,
      "chip": "ym2612"
    },
    {
      "channel": 0,
      "note": 61,
      "start": 35.7095,
      "duration": 0.3772,
      "velocity": 109,
      "chip": "ym2612"
    },
    {
      "channel": 1,
      "note": 56,
      "start": 35.7098,
      "duration": 0.3772,
      "velocity": 109,
      "chip": "ym2612"
    },
    {
      "channel": 2,
      "note": 37,
      "start": 35.7102,
      "duration": 0.0995,
      "velocity": 1,
      "chip": "ym2612"
    },
    {
      "channel": 3,
      "note": 80,
      "start": 35.7105,
      "duration": 0.0996,
      "velocity": 118,
      "chip": "ym2612"
    },
    {
      "channel": 4,
      "note": 73,
      "start": 35.7108,
      "duration": 0.0996,
      "velocity": 118,
      "chip": "ym2612"
    },
    {
      "channel": 2,
      "note": 37,
      "start": 35.81,
      "duration": 0.099,
      "velocity": 1,
      "chip": "ym2612"
    },
    {
      "channel": 3,
      "note": 76,
      "start": 35.8103,
      "duration": 0.099,
      "velocity": 118,
      "chip": "ym2612"
    },
    {
      "channel": 4,
      "note": 68,
      "start": 35.8107,
      "duration": 0.099,
      "velocity": 118,
      "chip": "ym2612"
    },
    {
      "channel": 2,
      "note": 37,
      "start": 35.9092,
      "duration": 0.0991,
      "velocity": 1,
      "chip": "ym2612"
    },
    {
      "channel": 3,
      "note": 73,
      "start": 35.9095,
      "duration": 0.0991,
      "velocity": 118,
      "chip": "ym2612"
    },
    {
      "channel": 4,
      "note": 80,
      "start": 35.9098,
      "duration": 0.0991,
      "velocity": 118,
      "chip": "ym2612"
    },
    {
      "channel": 2,
      "note": 37,
      "start": 36.0085,
      "duration": 0.0797,
      "velocity": 1,
      "chip": "ym2612"
    },
    {
      "channel": 3,
      "note": 68,
      "start": 36.0088,
      "duration": 0.0797,
      "velocity": 118,
      "chip": "ym2612"
    },
    {
      "channel": 4,
      "note": 76,
      "start": 36.0091,
      "duration": 0.0797,
      "velocity": 118,
      "chip": "ym2612"
    },
    {
      "channel": 0,
      "note": 61,
      "start": 36.0869,
      "duration": 0.1984,
      "velocity": 109,
      "chip": "ym2612"
    },
    {
      "channel": 1,
      "note": 56,
      "start": 36.0872,
      "duration": 0.1984,
      "velocity": 109,
      "chip": "ym2612"
    },
    {
      "channel": 2,
      "note": 37,
      "start": 36.0884,
      "duration": 0.0978,
      "velocity": 108,
      "chip": "ym2612"
    },
    {
      "channel": 3,
      "note": 80,
      "start": 36.0887,
      "duration": 0.0978,
      "velocity": 118,
      "chip": "ym2612"
    },
    {
      "channel": 4,
      "note": 73,
      "start": 36.089,
      "duration": 0.0978,
      "velocity": 118,
      "chip": "ym2612"
    },
    {
      "channel": 2,
      "note": 37,
      "start": 36.1863,
      "duration": 0.1005,
      "velocity": 1,
      "chip": "ym2612"
    },
    {
      "channel": 3,
      "note": 76,
      "start": 36.1867,
      "duration": 0.1005,
      "velocity": 118,
      "chip": "ym2612"
    },
    {
      "channel": 4,
      "note": 68,
      "start": 36.187,
      "duration": 0.1005,
      "velocity": 118,
      "chip": "ym2612"
    },
    {
      "channel": 0,
      "note": 61,
      "start": 36.2855,
      "duration": 0.3971,
      "velocity": 109,
      "chip": "ym2612"
    },
    {
      "channel": 1,
      "note": 56,
      "start": 36.2858,
      "duration": 0.1982,
      "velocity": 109,
      "chip": "ym2612"
    },
    {
      "channel": 2,
      "note": 37,
      "start": 36.2871,
      "duration": 0.0987,
      "velocity": 1,
      "chip": "ym2612"
    },
    {
      "channel": 3,
      "note": 73,
      "start": 36.2874,
      "duration": 0.0987,
      "velocity": 118,
      "chip": "ym2612"
    },
    {
      "channel": 4,
      "note": 80,
      "start": 36.2877,
      "duration": 0.0987,
      "velocity": 118,
      "chip": "ym2612"
    },
    {
      "channel": 2,
      "note": 37,
      "start": 36.3859,
      "duration": 0.0984,
      "velocity": 108,
      "chip": "ym2612"
    },
    {
      "channel": 3,
      "note": 68,
      "start": 36.3862,
      "duration": 0.0984,
      "velocity": 118,
      "chip": "ym2612"
    },
    {
      "channel": 4,
      "note": 76,
      "start": 36.3866,
      "duration": 0.0984,
      "velocity": 118,
      "chip": "ym2612"
    },
    {
      "channel": 1,
      "note": 61,
      "start": 36.4842,
      "duration": 0.3772,
      "velocity": 109,
      "chip": "ym2612"
    },
    {
      "channel": 2,
      "note": 37,
      "start": 36.4845,
      "duration": 0.0989,
      "velocity": 108,
      "chip": "ym2612"
    },
    {
      "channel": 3,
      "note": 80,
      "start": 36.4848,
      "duration": 0.0989,
      "velocity": 118,
      "chip": "ym2612"
    },
    {
      "channel": 4,
      "note": 73,
      "start": 36.4851,
      "duration": 0.0989,
      "velocity": 118,
      "chip": "ym2612"
    },
    {
      "channel": 2,
      "note": 37,
      "start": 36.5836,
      "duration": 0.0994,
      "velocity": 108,
      "chip": "ym2612"
    },
    {
      "channel": 3,
      "note": 76,
      "start": 36.5839,
      "duration": 0.0994,
      "velocity": 118,
      "chip": "ym2612"
    },
    {
      "channel": 4,
      "note": 68,
      "start": 36.5843,
      "duration": 0.0994,
      "velocity": 118,
      "chip": "ym2612"
    },
    {
      "channel": 0,
      "note": 61,
      "start": 36.6827,
      "duration": 0.2779,
      "velocity": 109,
      "chip": "ym2612"
    },
    {
      "channel": 2,
      "note": 37,
      "start": 36.6832,
      "duration": 0.0989,
      "velocity": 108,
      "chip": "ym2612"
    },
    {
      "channel": 3,
      "note": 73,
      "start": 36.6835,
      "duration": 0.0989,
      "velocity": 118,
      "chip": "ym2612"
    },
    {
      "channel": 4,
      "note": 80,
      "start": 36.6838,
      "duration": 0.0989,
      "velocity": 118,
      "chip": "ym2612"
    },
    {
      "channel": 2,
      "note": 37,
      "start": 36.7822,
      "duration": 0.0795,
      "velocity": 108,
      "chip": "ym2612"
    },
    {
      "channel": 3,
      "note": 68,
      "start": 36.7825,
      "duration": 0.0795,
      "velocity": 118,
      "chip": "ym2612"
    },
    {
      "channel": 4,
      "note": 76,
      "start": 36.7829,
      "duration": 0.0795,
      "velocity": 118,
      "chip": "ym2612"
    },
    {
      "channel": 1,
      "note": 56,
      "start": 36.8616,
      "duration": 0.2978,
      "velocity": 109,
      "chip": "ym2612"
    },
    {
      "channel": 2,
      "note": 37,
      "start": 36.8619,
      "duration": 0.0991,
      "velocity": 108,
      "chip": "ym2612"
    },
    {
      "channel": 3,
      "note": 80,
      "start": 36.8622,
      "duration": 0.0991,
      "velocity": 118,
      "chip": "ym2612"
    },
    {
      "channel": 4,
      "note": 73,
      "start": 36.8626,
      "duration": 0.0991,
      "velocity": 118,
      "chip": "ym2612"
    },
    {
      "channel": 0,
      "note": 61,
      "start": 36.9608,
      "duration": 0.2978,
      "velocity": 109,
      "chip": "ym2612"
    },
    {
      "channel": 2,
      "note": 37,
      "start": 36.9612,
      "duration": 0.0999,
      "velocity": 1,
      "chip": "ym2612"
    },
    {
      "channel": 3,
      "note": 76,
      "start": 36.9615,
      "duration": 0.0999,
      "velocity": 118,
      "chip": "ym2612"
    },
    {
      "channel": 4,
      "note": 68,
      "start": 36.9619,
      "duration": 0.0999,
      "velocity": 118,
      "chip": "ym2612"
    },
    {
      "channel": 2,
      "note": 37,
      "start": 37.0614,
      "duration": 0.0994,
      "velocity": 1,
      "chip": "ym2612"
    },
    {
      "channel": 3,
      "note": 73,
      "start": 37.0617,
      "duration": 0.0994,
      "velocity": 118,
      "chip": "ym2612"
    },
    {
      "channel": 4,
      "note": 80,
      "start": 37.062,
      "duration": 0.0994,
      "velocity": 118,
      "chip": "ym2612"
    },
    {
      "channel": 1,
      "note": 56,
      "start": 37.1595,
      "duration": 0.2978,
      "velocity": 109,
      "chip": "ym2612"
    },
    {
      "channel": 2,
      "note": 37,
      "start": 37.1609,
      "duration": 0.099,
      "velocity": 1,
      "chip": "ym2612"
    },
    {
      "channel": 3,
      "note": 68,
      "start": 37.1612,
      "duration": 0.0991,
      "velocity": 118,
      "chip": "ym2612"
    },
    {
      "channel": 4,
      "note": 76,
      "start": 37.1615,
      "duration": 0.0991,
      "velocity": 118,
      "chip": "ym2612"
    },
    {
      "channel": 0,
      "note": 61,
      "start": 37.2588,
      "duration": 0.2779,
      "velocity": 109,
      "chip": "ym2612"
    },
    {
      "channel": 2,
      "note": 37,
      "start": 37.2602,
      "duration": 0.0979,
      "velocity": 127,
      "chip": "ym2612"
    },
    {
      "channel": 3,
      "note": 80,
      "start": 37.2605,
      "duration": 0.0978,
      "velocity": 118,
      "chip": "ym2612"
    },
    {
      "channel": 4,
      "note": 73,
      "start": 37.2608,
      "duration": 0.0978,
      "velocity": 118,
      "chip": "ym2612"
    },
    {
      "channel": 2,
      "note": 37,
      "start": 37.3583,
      "duration": 0.1002,
      "velocity": 1,
      "chip": "ym2612"
    },
    {
      "channel": 3,
      "note": 76,
      "start": 37.3585,
      "duration": 0.1003,
      "velocity": 118,
      "chip": "ym2612"
    },
    {
      "channel": 4,
      "note": 68,
      "start": 37.3589,
      "duration": 0.1003,
      "velocity": 118,
      "chip": "ym2612"
    },
    {
      "channel": 1,
      "note": 56,
      "start": 37.4575,
      "duration": 0.2779,
      "velocity": 109,
      "chip": "ym2612"
    },
    {
      "channel": 2,
      "note": 37,
      "start": 37.4588,
      "duration": 0.0793,
      "velocity": 1,
      "chip": "ym2612"
    },
    {
      "channel": 3,
      "note": 73,
      "start": 37.4591,
      "duration": 0.0793,
      "velocity": 118,
      "chip": "ym2612"
    },
    {
      "channel": 4,
      "note": 80,
      "start": 37.4594,
      "duration": 0.0792,
      "velocity": 118,
      "chip": "ym2612"
    },
    {
      "channel": 0,
      "note": 61,
      "start": 37.5368,
      "duration": 0.2978,
      "velocity": 109,
      "chip": "ym2612"
    },
    {
      "channel": 2,
      "note": 37,
      "start": 37.5382,
      "duration": 0.098,
      "velocity": 127,
      "chip": "ym2612"
    },
    {
      "channel": 3,
      "note": 68,
      "start": 37.5385,
      "duration": 0.098,
      "velocity": 118,
      "chip": "ym2612"
    },
    {
      "channel": 4,
      "note": 76,
      "start": 37.5388,
      "duration": 0.098,
      "velocity": 118,
      "chip": "ym2612"
    },
    {
      "channel": 2,
      "note": 37,
      "start": 37.6363,
      "duration": 0.1003,
      "velocity": 1,
      "chip": "ym2612"
    },
    {
      "channel": 3,
      "note": 80,
      "start": 37.6367,
      "duration": 0.1003,
      "velocity": 118,
      "chip": "ym2612"
    },
    {
      "channel": 4,
      "note": 73,
      "start": 37.637,
      "duration": 0.1003,
      "velocity": 118,
      "chip": "ym2612"
    },
    {
      "channel": 1,
      "note": 56,
      "start": 37.7356,
      "duration": 0.2977,
      "velocity": 109,
      "chip": "ym2612"
    },
    {
      "channel": 2,
      "note": 37,
      "start": 37.7368,
      "duration": 0.0992,
      "velocity": 1,
      "chip": "ym2612"
    },
    {
      "channel": 3,
      "note": 76,
      "start": 37.7371,
      "duration": 0.0992,
      "velocity": 118,
      "chip": "ym2612"
    },
    {
      "channel": 4,
      "note": 68,
      "start": 37.7374,
      "duration": 0.0992,
      "velocity": 118,
      "chip": "ym2612"
    },
    {
      "channel": 0,
      "note": 61,
      "start": 37.8348,
      "duration": 0.0992,
      "velocity": 109,
      "chip": "ym2612"
    },
    {
      "channel": 2,
      "note": 37,
      "start": 37.8362,
      "duration": 0.098,
      "velocity": 127,
      "chip": "ym2612"
    },
    {
      "channel": 3,
      "note": 73,
      "start": 37.8365,
      "duration": 0.098,
      "velocity": 118,
      "chip": "ym2612"
    },
    {
      "channel": 4,
      "note": 80,
      "start": 37.8368,
      "duration": 0.098,
      "velocity": 118,
      "chip": "ym2612"
    },
    {
      "channel": 2,
      "note": 37,
      "start": 37.9344,
      "duration": 0.0993,
      "velocity": 127,
      "chip": "ym2612"
    },
    {
      "channel": 3,
      "note": 68,
      "start": 37.9347,
      "duration": 0.0993,
      "velocity": 118,
      "chip": "ym2612"
    },
    {
      "channel": 4,
      "note": 76,
      "start": 37.935,
      "duration": 0.0993,
      "velocity": 118,
      "chip": "ym2612"
    },
    {
      "channel": 1,
      "note": 56,
      "start": 38.0335,
      "duration": 0.179,
      "velocity": 109,
      "chip": "ym2612"
    },
    {
      "channel": 2,
      "note": 37,
      "start": 38.0338,
      "duration": 0.0989,
      "velocity": 127,
      "chip": "ym2612"
    },
    {
      "channel": 3,
      "note": 80,
      "start": 38.0341,
      "duration": 0.0989,
      "velocity": 118,
      "chip": "ym2612"
    },
    {
      "channel": 4,
      "note": 73,
      "start": 38.0344,
      "duration": 0.0989,
      "velocity": 118,
      "chip": "ym2612"
    },
    {
      "channel": 2,
      "note": 37,
      "start": 38.1329,
      "duration": 0.0809,
      "velocity": 1,
      "chip": "ym2612"
    },
    {
      "channel": 3,
      "note": 76,
      "start": 38.1332,
      "duration": 0.0822,
      "velocity": 1,
      "chip": "ym2612"
    },
    {
      "channel": 4,
      "note": 68,
      "start": 38.1336,
      "duration": 0.0833,
      "velocity": 1,
      "chip": "ym2612"
    },
    {
      "channel": 0,
      "note": 61,
      "start": 38.2122,
      "duration": 0.2978,
      "velocity": 109,
      "chip": "ym2612"
    },
    {
      "channel": 1,
      "note": 54,
      "start": 38.2127,
      "duration": 0.2976,
      "velocity": 109,
      "chip": "ym2612"
    },
    {
      "channel": 2,
      "note": 42,
      "start": 38.214,
      "duration": 0.0974,
      "velocity": 108,
      "chip": "ym2612"
    },
    {
      "channel": 3,
      "note": 73,
      "start": 38.2156,
      "duration": 0.1955,
      "velocity": 82,
      "chip": "ym2612"
    },
    {
      "channel": 4,
      "note": 85,
      "start": 38.217,
      "duration": 0.0949,
      "velocity": 118,
      "chip": "ym2612"
    },
    {
      "channel": 2,
      "note": 42,
      "start": 38.3117,
      "duration": 0.0992,
      "velocity": 108,
      "chip": "ym2612"
    },
    {
      "channel": 4,
      "note": 81,
      "start": 38.3121,
      "duration": 0.0993,
      "velocity": 118,
      "chip": "ym2612"
    },
    {
      "channel": 2,
      "note": 42,
      "start": 38.411,
      "duration": 0.0996,
      "velocity": 108,
      "chip": "ym2612"
    },
    {
      "channel": 3,
      "note": 69,
      "start": 38.4113,
      "duration": 0.1995,
      "velocity": 82,
      "chip": "ym2612"
    },
    {
      "channel": 4,
      "note": 78,
      "start": 38.4116,
      "duration": 0.0995,
      "velocity": 118,
      "chip": "ym2612"
    },
    {
      "channel": 0,
      "note": 61,
      "start": 38.5102,
      "duration": 0.2977,
      "velocity": 109,
      "chip": "ym2612"
    },
    {
      "channel": 1,
      "note": 54,
      "start": 38.5105,
      "duration": 0.2977,
      "velocity": 109,
      "chip": "ym2612"
    },
    {
      "channel": 2,
      "note": 42,
      "start": 38.5108,
      "duration": 0.0997,
      "velocity": 1,
      "chip": "ym2612"
    },
    {
      "channel": 4,
      "note": 73,
      "start": 38.5113,
      "duration": 0.0999,
      "velocity": 118,
      "chip": "ym2612"
    },
    {
      "channel": 2,
      "note": 37,
      "start": 38.6107,
      "duration": 0.099,
      "velocity": 1,
      "chip": "ym2612"
    },
    {
      "channel": 3,
      "note": 66,
      "start": 38.611,
      "duration": 0.1978,
      "velocity": 82,
      "chip": "ym2612"
    },
    {
      "channel": 4,
      "note": 85,
      "start": 38.6114,
      "duration": 0.0989,
      "velocity": 118,
      "chip": "ym2612"
    },
    {
      "channel": 2,
      "note": 42,
      "start": 38.71,
      "duration": 0.0986,
      "velocity": 108,
      "chip": "ym2612"
    },
    {
      "channel": 4,
      "note": 81,
      "start": 38.7104,
      "duration": 0.0988,
      "velocity": 118,
      "chip": "ym2612"
    },
    {
      "channel": 0,
      "note": 61,
      "start": 38.8081,
      "duration": 0.3772,
      "velocity": 109,
      "chip": "ym2612"
    },
    {
      "channel": 1,
      "note": 54,
      "start": 38.8084,
      "duration": 0.3772,
      "velocity": 109,
      "chip": "ym2612"
    },
    {
      "channel": 2,
      "note": 42,
      "start": 38.8088,
      "duration": 0.0797,
      "velocity": 1,
      "chip": "ym2612"
    },
    {
      "channel": 3,
      "note": 61,
      "start": 38.8091,
      "duration": 0.179,
      "velocity": 82,
      "chip": "ym2612"
    },
    {
      "channel": 4,
      "note": 78,
      "start": 38.8094,
      "duration": 0.0795,
      "velocity": 118,
      "chip": "ym2612"
    },
    {
      "channel": 2,
      "note": 37,
      "start": 38.8886,
      "duration": 0.0991,
      "velocity": 1,
      "chip": "ym2612"
    },
    {
      "channel": 4,
      "note": 73,
      "start": 38.8891,
      "duration": 0.0993,
      "velocity": 118,
      "chip": "ym2612"
    },
    {
      "channel": 2,
      "note": 42,
      "start": 38.9879,
      "duration": 0.0992,
      "velocity": 1,
      "chip": "ym2612"
    },
    {
      "channel": 3,
      "note": 73,
      "start": 38.9883,
      "duration": 0.1989,
      "velocity": 82,
      "chip": "ym2612"
    },
    {
      "channel": 4,
      "note": 85,
      "start": 38.9886,
      "duration": 0.0989,
      "velocity": 118,
      "chip": "ym2612"
    },
    {
      "channel": 2,
      "note": 37,
      "start": 39.0873,
      "duration": 0.0996,
      "velocity": 1,
      "chip": "ym2612"
    },
    {
      "channel": 4,
      "note": 81,
      "start": 39.0877,
      "duration": 0.0998,
      "velocity": 118,
      "chip": "ym2612"
    },
    {
      "channel": 0,
      "note": 61,
      "start": 39.1855,
      "duration": 0.1985,
      "velocity": 109,
      "chip": "ym2612"
    },
    {
      "channel": 1,
      "note": 54,
      "start": 39.1858,
      "duration": 0.1985,
      "velocity": 109,
      "chip": "ym2612"
    },
    {
      "channel": 2,
      "note": 42,
      "start": 39.1871,
      "duration": 0.0978,
      "velocity": 108,
      "chip": "ym2612"
    },
    {
      "channel": 3,
      "note": 69,
      "start": 39.1874,
      "duration": 0.1984,
      "velocity": 82,
      "chip": "ym2612"
    },
    {
      "channel": 4,
      "note": 78,
      "start": 39.1877,
      "duration": 0.0975,
      "velocity": 118,
      "chip": "ym2612"
    },
    {
      "channel": 2,
      "note": 42,
      "start": 39.285,
      "duration": 0.1005,
      "velocity": 1,
      "chip": "ym2612"
    },
    {
      "channel": 4,
      "note": 73,
      "start": 39.2854,
      "duration": 0.1007,
      "velocity": 118,
      "chip": "ym2612"
    },
    {
      "channel": 0,
      "note": 61,
      "start": 39.3841,
      "duration": 0.3772,
      "velocity": 109,
      "chip": "ym2612"
    },
    {
      "channel": 1,
      "note": 54,
      "start": 39.3844,
      "duration": 0.3772,
      "velocity": 109,
      "chip": "ym2612"
    },
    {
      "channel": 2,
      "note": 37,
      "start": 39.3856,
      "duration": 0.0987,
      "velocity": 1,
      "chip": "ym2612"
    },
    {
      "channel": 3,
      "note": 66,
      "start": 39.386,
      "duration": 0.1772,
      "velocity": 82,
      "chip": "ym2612"
    },
    {
      "channel": 4,
      "note": 85,
      "start": 39.3863,
      "duration": 0.0985,
      "velocity": 118,
      "chip": "ym2612"
    },
    {
      "channel": 2,
      "note": 42,
      "start": 39.4845,
      "duration": 0.0784,
      "velocity": 108,
      "chip": "ym2612"
    },
    {
      "channel": 4,
      "note": 81,
      "start": 39.485,
      "duration": 0.0785,
      "velocity": 118,
      "chip": "ym2612"
    },
    {
      "channel": 2,
      "note": 42,
      "start": 39.5631,
      "duration": 0.0991,
      "velocity": 108,
      "chip": "ym2612"
    },
    {
      "channel": 3,
      "note": 61,
      "start": 39.5634,
      "duration": 0.1988,
      "velocity": 82,
      "chip": "ym2612"
    },
    {
      "channel": 4,
      "note": 78,
      "start": 39.5637,
      "duration": 0.0989,
      "velocity": 118,
      "chip": "ym2612"
    },
    {
      "channel": 2,
      "note": 42,
      "start": 39.6624,
      "duration": 0.0996,
      "velocity": 108,
      "chip": "ym2612"
    },
    {
      "channel": 4,
      "note": 73,
      "start": 39.6628,
      "duration": 0.0998,
      "velocity": 118,
      "chip": "ym2612"
    },
    {
      "channel": 0,
      "note": 61,
      "start": 39.7615,
      "duration": 0.2978,
      "velocity": 109,
      "chip": "ym2612"
    },
    {
      "channel": 1,
      "note": 54,
      "start": 39.7619,
      "duration": 0.2977,
      "velocity": 109,
      "chip": "ym2612"
    },
    {
      "channel": 2,
      "note": 42,
      "start": 39.7622,
      "duration": 0.0987,
      "velocity": 108,
      "chip": "ym2612"
    },
    {
      "channel": 3,
      "note": 73,
      "start": 39.7624,
      "duration": 0.1981,
      "velocity": 82,
      "chip": "ym2612"
    },
    {
      "channel": 4,
      "note": 85,
      "start": 39.7628,
      "duration": 0.0985,
      "velocity": 118,
      "chip": "ym2612"
    },
    {
      "channel": 2,
      "note": 42,
      "start": 39.861,
      "duration": 0.0992,
      "velocity": 108,
      "chip": "ym2612"
    },
    {
      "channel": 4,
      "note": 81,
      "start": 39.8614,
      "duration": 0.0995,
      "velocity": 118,
      "chip": "ym2612"
    },
    {
      "channel": 2,
      "note": 42,
      "start": 39.9605,
      "duration": 0.0994,
      "velocity": 108,
      "chip": "ym2612"
    },
    {
      "channel": 3,
      "note": 69,
      "start": 39.9608,
      "duration": 0.1994,
      "velocity": 82,
      "chip": "ym2612"
    },
    {
      "channel": 4,
      "note": 78,
      "start": 39.9611,
      "duration": 0.0993,
      "velocity": 118,
      "chip": "ym2612"
    },
    {
      "channel": 0,
      "note": 61,
      "start": 40.0595,
      "duration": 0.2778,
      "velocity": 109,
      "chip": "ym2612"
    },
    {
      "channel": 1,
      "note": 54,
      "start": 40.0598,
      "duration": 0.2778,
      "velocity": 109,
      "chip": "ym2612"
    },
    {
      "channel": 2,
      "note": 42,
      "start": 40.0602,
      "duration": 0.0995,
      "velocity": 1,
      "chip": "ym2612"
    },
    {
      "channel": 4,
      "note": 73,
      "start": 40.0606,
      "duration": 0.0999,
      "velocity": 118,
      "chip": "ym2612"
    },
    {
      "channel": 2,
      "note": 37,
      "start": 40.16,
      "duration": 0.0792,
      "velocity": 1,
      "chip": "ym2612"
    },
    {
      "channel": 3,
      "note": 66,
      "start": 40.1603,
      "duration": 0.1779,
      "velocity": 82,
      "chip": "ym2612"
    },
    {
      "channel": 4,
      "note": 85,
      "start": 40.1607,
      "duration": 0.0789,
      "velocity": 118,
      "chip": "ym2612"
    },
    {
      "channel": 2,
      "note": 42,
      "start": 40.2393,
      "duration": 0.0986,
      "velocity": 108,
      "chip": "ym2612"
    },
    {
      "channel": 4,
      "note": 81,
      "start": 40.2397,
      "duration": 0.0989,
      "velocity": 118,
      "chip": "ym2612"
    },
    {
      "channel": 0,
      "note": 61,
      "start": 40.3375,
      "duration": 0.2978,
      "velocity": 109,
      "chip": "ym2612"
    },
    {
      "channel": 1,
      "note": 54,
      "start": 40.3378,
      "duration": 0.2978,
      "velocity": 109,
      "chip": "ym2612"
    },
    {
      "channel": 2,
      "note": 42,
      "start": 40.3381,
      "duration": 0.0996,
      "velocity": 1,
      "chip": "ym2612"
    },
    {
      "channel": 3,
      "note": 61,
      "start": 40.3385,
      "duration": 0.199,
      "velocity": 82,
      "chip": "ym2612"
    },
    {
      "channel": 4,
      "note": 78,
      "start": 40.3388,
      "duration": 0.0994,
      "velocity": 118,
      "chip": "ym2612"
    },
    {
      "channel": 2,
      "note": 37,
      "start": 40.4379,
      "duration": 0.0992,
      "velocity": 1,
      "chip": "ym2612"
    },
    {
      "channel": 4,
      "note": 73,
      "start": 40.4384,
      "duration": 0.0994,
      "velocity": 118,
      "chip": "ym2612"
    },
    {
      "channel": 2,
      "note": 42,
      "start": 40.5373,
      "duration": 0.0995,
      "velocity": 1,
      "chip": "ym2612"
    },
    {
      "channel": 3,
      "note": 73,
      "start": 40.5376,
      "duration": 0.1984,
      "velocity": 82,
      "chip": "ym2612"
    },
    {
      "channel": 4,
      "note": 85,
      "start": 40.5379,
      "duration": 0.0993,
      "velocity": 118,
      "chip": "ym2612"
    },
    {
      "channel": 0,
      "note": 61,
      "start": 40.6355,
      "duration": 0.2978,
      "velocity": 109,
      "chip": "ym2612"
    },
    {
      "channel": 1,
      "note": 54,
      "start": 40.6358,
      "duration": 0.2978,
      "velocity": 109,
      "chip": "ym2612"
    },
    {
      "channel": 2,
      "note": 37,
      "start": 40.637,
      "duration": 0.0987,
      "velocity": 1,
      "chip": "ym2612"
    },
    {
      "channel": 4,
      "note": 81,
      "start": 40.6374,
      "duration": 0.0989,
      "velocity": 118,
      "chip": "ym2612"
    },
    {
      "channel": 2,
      "note": 42,
      "start": 40.7359,
      "duration": 0.0982,
      "velocity": 108,
      "chip": "ym2612"
    },
    {
      "channel": 3,
      "note": 69,
      "start": 40.7362,
      "duration": 0.1989,
      "velocity": 82,
      "chip": "ym2612"
    },
    {
      "channel": 4,
      "note": 78,
      "start": 40.7366,
      "duration": 0.098,
      "velocity": 118,
      "chip": "ym2612"
    },
    {
      "channel": 2,
      "note": 42,
      "start": 40.8343,
      "duration": 0.1005,
      "velocity": 1,
      "chip": "ym2612"
    },
    {
      "channel": 4,
      "note": 73,
      "start": 40.8347,
      "duration": 0.1008,
      "velocity": 118,
      "chip": "ym2612"
    },
    {
      "channel": 0,
      "note": 61,
      "start": 40.9334,
      "duration": 0.1786,
      "velocity": 109,
      "chip": "ym2612"
    },
    {
      "channel": 1,
      "note": 54,
      "start": 40.9337,
      "duration": 0.1786,
      "velocity": 109,
      "chip": "ym2612"
    },
    {
      "channel": 2,
      "note": 37,
      "start": 40.935,
      "duration": 0.0788,
      "velocity": 1,
      "chip": "ym2612"
    },
    {
      "channel": 3,
      "note": 66,
      "start": 40.9353,
      "duration": 0.1776,
      "velocity": 82,
      "chip": "ym2612"
    },
    {
      "channel": 4,
      "note": 85,
      "start": 40.9356,
      "duration": 0.0786,
      "velocity": 118,
      "chip": "ym2612"
    },
    {
      "channel": 2,
      "note": 42,
      "start": 41.014,
      "duration": 0.0987,
      "velocity": 108,
      "chip": "ym2612"
    },
    {
      "channel": 4,
      "note": 81,
      "start": 41.0144,
      "duration": 0.0988,
      "velocity": 118,
      "chip": "ym2612"
    },
    {
      "channel": 0,
      "note": 61,
      "start": 41.1122,
      "duration": 0.1985,
      "velocity": 109,
      "chip": "ym2612"
    },
    {
      "channel": 1,
      "note": 54,
      "start": 41.1125,
      "duration": 0.1985,
      "velocity": 109,
      "chip": "ym2612"
    },
    {
      "channel": 2,
      "note": 42,
      "start": 41.1128,
      "duration": 0.0996,
      "velocity": 1,
      "chip": "ym2612"
    },
    {
      "channel": 3,
      "note": 61,
      "start": 41.1131,
      "duration": 0.1994,
      "velocity": 82,
      "chip": "ym2612"
    },
    {
      "channel": 4,
      "note": 78,
      "start": 41.1134,
      "duration": 0.0995,
      "velocity": 118,
      "chip": "ym2612"
    },
    {
      "channel": 2,
      "note": 37,
      "start": 41.2126,
      "duration": 0.0995,
      "velocity": 1,
      "chip": "ym2612"
    },
    {
      "channel": 4,
      "note": 73,
      "start": 41.213,
      "duration": 0.0998,
      "velocity": 118,
      "chip": "ym2612"
    },
    {
      "channel": 0,
      "note": 61,
      "start": 41.3108,
      "duration": 0.2977,
      "velocity": 109,
      "chip": "ym2612"
    },
    {
      "channel": 1,
      "note": 56,
      "start": 41.3112,
      "duration": 0.2977,
      "velocity": 109,
      "chip": "ym2612"
    },
    {
      "channel": 2,
      "note": 37,
      "start": 41.3124,
      "duration": 0.0979,
      "velocity": 108,
      "chip": "ym2612"
    },
    {
      "channel": 3,
      "note": 68,
      "start": 41.3127,
      "duration": 0.1971,
      "velocity": 82,
      "chip": "ym2612"
    },
    {
      "channel": 4,
      "note": 80,
      "start": 41.313,
      "duration": 0.0976,
      "velocity": 118,
      "chip": "ym2612"
    },
    {
      "channel": 2,
      "note": 37,
      "start": 41.4105,
      "duration": 0.099,
      "velocity": 108,
      "chip": "ym2612"
    },
    {
      "channel": 4,
      "note": 76,
      "start": 41.4108,
      "duration": 0.0994,
      "velocity": 118,
      "chip": "ym2612"
    },
    {
      "channel": 2,
      "note": 37,
      "start": 41.5096,
      "duration": 0.0995,
      "velocity": 108,
      "chip": "ym2612"
    },
    {
      "channel": 3,
      "note": 64,
      "start": 41.5101,
      "duration": 0.1794,
      "velocity": 82,
      "chip": "ym2612"
    },
    {
      "channel": 4,
      "note": 73,
      "start": 41.5104,
      "duration": 0.0992,
      "velocity": 118,
      "chip": "ym2612"
    },
    {
      "channel": 0,
      "note": 61,
      "start": 41.6088,
      "duration": 0.2779,
      "velocity": 109,
      "chip": "ym2612"
    },
    {
      "channel": 1,
      "note": 56,
      "start": 41.6091,
      "duration": 0.2779,
      "velocity": 109,
      "chip": "ym2612"
    },
    {
      "channel": 2,
      "note": 37,
      "start": 41.6094,
      "duration": 0.0798,
      "velocity": 1,
      "chip": "ym2612"
    },
    {
      "channel": 4,
      "note": 68,
      "start": 41.6098,
      "duration": 0.08,
      "velocity": 118,
      "chip": "ym2612"
    },
    {
      "channel": 2,
      "note": 37,
      "start": 41.6893,
      "duration": 0.0991,
      "velocity": 1,
      "chip": "ym2612"
    },
    {
      "channel": 3,
      "note": 61,
      "start": 41.6897,
      "duration": 0.198,
      "velocity": 82,
      "chip": "ym2612"
    },
    {
      "channel": 4,
      "note": 80,
      "start": 41.69,
      "duration": 0.0989,
      "velocity": 118,
      "chip": "ym2612"
    },
    {
      "channel": 2,
      "note": 37,
      "start": 41.7886,
      "duration": 0.0987,
      "velocity": 108,
      "chip": "ym2612"
    },
    {
      "channel": 4,
      "note": 76,
      "start": 41.7891,
      "duration": 0.0988,
      "velocity": 118,
      "chip": "ym2612"
    },
    {
      "channel": 0,
      "note": 61,
      "start": 41.8869,
      "duration": 0.3971,
      "velocity": 109,
      "chip": "ym2612"
    },
    {
      "channel": 1,
      "note": 56,
      "start": 41.8872,
      "duration": 0.3971,
      "velocity": 109,
      "chip": "ym2612"
    },
    {
      "channel": 2,
      "note": 37,
      "start": 41.8875,
      "duration": 0.0996,
      "velocity": 1,
      "chip": "ym2612"
    },
    {
      "channel": 3,
      "note": 56,
      "start": 41.8878,
      "duration": 0.1989,
      "velocity": 82,
      "chip": "ym2612"
    },
    {
      "channel": 4,
      "note": 73,
      "start": 41.8881,
      "duration": 0.0994,
      "velocity": 118,
      "chip": "ym2612"
    },
    {
      "channel": 2,
      "note": 37,
      "start": 41.9873,
      "duration": 0.0991,
      "velocity": 1,
      "chip": "ym2612"
    },
    {
      "channel": 4,
      "note": 68,
      "start": 41.9877,
      "duration": 0.0994,
      "velocity": 118,
      "chip": "ym2612"
    },
    {
      "channel": 2,
      "note": 37,
      "start": 42.0866,
      "duration": 0.0991,
      "velocity": 1,
      "chip": "ym2612"
    },
    {
      "channel": 3,
      "note": 68,
      "start": 42.0869,
      "duration": 0.1988,
      "velocity": 82,
      "chip": "ym2612"
    },
    {
      "channel": 4,
      "note": 80,
      "start": 42.0873,
      "duration": 0.0989,
      "velocity": 118,
      "chip": "ym2612"
    },
    {
      "channel": 2,
      "note": 37,
      "start": 42.1859,
      "duration": 0.0995,
      "velocity": 1,
      "chip": "ym2612"
    },
    {
      "channel": 4,
      "note": 76,
      "start": 42.1863,
      "duration": 0.0998,
      "velocity": 118,
      "chip": "ym2612"
    },
    {
      "channel": 0,
      "note": 61,
      "start": 42.2841,
      "duration": 0.1786,
      "velocity": 109,
      "chip": "ym2612"
    },
    {
      "channel": 1,
      "note": 56,
      "start": 42.2844,
      "duration": 0.1786,
      "velocity": 109,
      "chip": "ym2612"
    },
    {
      "channel": 2,
      "note": 37,
      "start": 42.2856,
      "duration": 0.0779,
      "velocity": 108,
      "chip": "ym2612"
    },
    {
      "channel": 3,
      "note": 64,
      "start": 42.286,
      "duration": 0.1786,
      "velocity": 82,
      "chip": "ym2612"
    },
    {
      "channel": 4,
      "note": 73,
      "start": 42.2863,
      "duration": 0.0777,
      "velocity": 118,
      "chip": "ym2612"
    },
    {
      "channel": 2,
      "note": 37,
      "start": 42.3638,
      "duration": 0.1005,
      "velocity": 1,
      "chip": "ym2612"
    },
    {
      "channel": 4,
      "note": 68,
      "start": 42.3641,
      "duration": 0.1007,
      "velocity": 118,
      "chip": "ym2612"
    },
    {
      "channel": 0,
      "note": 61,
      "start": 42.4629,
      "duration": 0.3971,
      "velocity": 109,
      "chip": "ym2612"
    },
    {
      "channel": 1,
      "note": 56,
      "start": 42.4632,
      "duration": 0.3972,
      "velocity": 109,
      "chip": "ym2612"
    },
    {
      "channel": 2,
      "note": 37,
      "start": 42.4645,
      "duration": 0.0987,
      "velocity": 1,
      "chip": "ym2612"
    },
    {
      "channel": 3,
      "note": 61,
      "start": 42.4648,
      "duration": 0.197,
      "velocity": 82,
      "chip": "ym2612"
    },
    {
      "channel": 4,
      "note": 80,
      "start": 42.4651,
      "duration": 0.0985,
      "velocity": 118,
      "chip": "ym2612"
    },
    {
      "channel": 2,
      "note": 37,
      "start": 42.5633,
      "duration": 0.0981,
      "velocity": 108,
      "chip": "ym2612"
    },
    {
      "channel": 4,
      "note": 76,
      "start": 42.5637,
      "duration": 0.0984,
      "velocity": 118,
      "chip": "ym2612"
    },
    {
      "channel": 2,
      "note": 37,
      "start": 42.6617,
      "duration": 0.0992,
      "velocity": 108,
      "chip": "ym2612"
    },
    {
      "channel": 3,
      "note": 56,
      "start": 42.662,
      "duration": 0.199,
      "velocity": 82,
      "chip": "ym2612"
    },
    {
      "channel": 4,
      "note": 73,
      "start": 42.6623,
      "duration": 0.0989,
      "velocity": 118,
      "chip": "ym2612"
    },
    {
      "channel": 2,
      "note": 37,
      "start": 42.761,
      "duration": 0.0997,
      "velocity": 108,
      "chip": "ym2612"
    },
    {
      "channel": 4,
      "note": 68,
      "start": 42.7614,
      "duration": 0.0999,
      "velocity": 118,
      "chip": "ym2612"
    },
    {
      "channel": 0,
      "note": 61,
      "start": 42.8603,
      "duration": 0.2777,
      "velocity": 109,
      "chip": "ym2612"
    },
    {
      "channel": 1,
      "note": 56,
      "start": 42.8606,
      "duration": 0.2777,
      "velocity": 109,
      "chip": "ym2612"
    },
    {
      "channel": 2,
      "note": 37,
      "start": 42.8609,
      "duration": 0.0985,
      "velocity": 108,
      "chip": "ym2612"
    },
    {
      "channel": 3,
      "note": 68,
      "start": 42.8612,
      "duration": 0.178,
      "velocity": 82,
      "chip": "ym2612"
    },
    {
      "channel": 4,
      "note": 80,
      "start": 42.8615,
      "duration": 0.0983,
      "velocity": 118,
      "chip": "ym2612"
    },
    {
      "channel": 2,
      "note": 37,
      "start": 42.9596,
      "duration": 0.0793,
      "velocity": 108,
      "chip": "ym2612"
    },
    {
      "channel": 4,
      "note": 76,
      "start": 42.9602,
      "duration": 0.0793,
      "velocity": 118,
      "chip": "ym2612"
    },
    {
      "channel": 2,
      "note": 37,
      "start": 43.0391,
      "duration": 0.0995,
      "velocity": 108,
      "chip": "ym2612"
    },
    {
      "channel": 3,
      "note": 64,
      "start": 43.0394,
      "duration": 0.1994,
      "velocity": 82,
      "chip": "ym2612"
    },
    {
      "channel": 4,
      "note": 73,
      "start": 43.0397,
      "duration": 0.0993,
      "velocity": 118,
      "chip": "ym2612"
    },
    {
      "channel": 0,
      "note": 61,
      "start": 43.1382,
      "duration": 0.2978,
      "velocity": 109,
      "chip": "ym2612"
    },
    {
      "channel": 1,
      "note": 56,
      "start": 43.1385,
      "duration": 0.2977,
      "velocity": 109,
      "chip": "ym2612"
    },
    {
      "channel": 2,
      "note": 37,
      "start": 43.1388,
      "duration": 0.0996,
      "velocity": 1,
      "chip": "ym2612"
    },
    {
      "channel": 4,
      "note": 68,
      "start": 43.1392,
      "duration": 0.0999,
      "velocity": 118,
      "chip": "ym2612"
    },
    {
      "channel": 2,
      "note": 37,
      "start": 43.2386,
      "duration": 0.0991,
      "velocity": 1,
      "chip": "ym2612"
    },
    {
      "channel": 3,
      "note": 61,
      "start": 43.239,
      "duration": 0.1979,
      "velocity": 82,
      "chip": "ym2612"
    },
    {
      "channel": 4,
      "note": 80,
      "start": 43.2393,
      "duration": 0.0989,
      "velocity": 118,
      "chip": "ym2612"
    },
    {
      "channel": 2,
      "note": 37,
      "start": 43.3379,
      "duration": 0.0986,
      "velocity": 108,
      "chip": "ym2612"
    },
    {
      "channel": 4,
      "note": 76,
      "start": 43.3384,
      "duration": 0.0988,
      "velocity": 118,
      "chip": "ym2612"
    },
    {
      "channel": 0,
      "note": 61,
      "start": 43.4362,
      "duration": 0.2779,
      "velocity": 109,
      "chip": "ym2612"
    },
    {
      "channel": 1,
      "note": 56,
      "start": 43.4364,
      "duration": 0.2779,
      "velocity": 109,
      "chip": "ym2612"
    },
    {
      "channel": 2,
      "note": 37,
      "start": 43.4367,
      "duration": 0.0997,
      "velocity": 1,
      "chip": "ym2612"
    },
    {
      "channel": 3,
      "note": 56,
      "start": 43.4371,
      "duration": 0.199,
      "velocity": 82,
      "chip": "ym2612"
    },
    {
      "channel": 4,
      "note": 73,
      "start": 43.4374,
      "duration": 0.0994,
      "velocity": 118,
      "chip": "ym2612"
    },
    {
      "channel": 2,
      "note": 37,
      "start": 43.5366,
      "duration": 0.0991,
      "velocity": 1,
      "chip": "ym2612"
    },
    {
      "channel": 4,
      "note": 68,
      "start": 43.537,
      "duration": 0.0994,
      "velocity": 118,
      "chip": "ym2612"
    },
    {
      "channel": 2,
      "note": 37,
      "start": 43.6359,
      "duration": 0.0796,
      "velocity": 1,
      "chip": "ym2612"
    },
    {
      "channel": 3,
      "note": 68,
      "start": 43.6362,
      "duration": 0.1785,
      "velocity": 82,
      "chip": "ym2612"
    },
    {
      "channel": 4,
      "note": 80,
      "start": 43.6366,
      "duration": 0.0795,
      "velocity": 118,
      "chip": "ym2612"
    },
    {
      "channel": 0,
      "note": 61,
      "start": 43.7142,
      "duration": 0.2978,
      "velocity": 109,
      "chip": "ym2612"
    },
    {
      "channel": 1,
      "note": 56,
      "start": 43.7145,
      "duration": 0.2978,
      "velocity": 109,
      "chip": "ym2612"
    },
    {
      "channel": 2,
      "note": 37,
      "start": 43.7157,
      "duration": 0.0987,
      "velocity": 1,
      "chip": "ym2612"
    },
    {
      "channel": 4,
      "note": 76,
      "start": 43.7162,
      "duration": 0.0989,
      "velocity": 118,
      "chip": "ym2612"
    },
    {
      "channel": 2,
      "note": 37,
      "start": 43.8147,
      "duration": 0.0982,
      "velocity": 108,
      "chip": "ym2612"
    },
    {
      "channel": 3,
      "note": 64,
      "start": 43.815,
      "duration": 0.1989,
      "velocity": 82,
      "chip": "ym2612"
    },
    {
      "channel": 4,
      "note": 73,
      "start": 43.8153,
      "duration": 0.098,
      "velocity": 118,
      "chip": "ym2612"
    },
    {
      "channel": 2,
      "note": 37,
      "start": 43.9131,
      "duration": 0.1005,
      "velocity": 1,
      "chip": "ym2612"
    },
    {
      "channel": 4,
      "note": 68,
      "start": 43.9134,
      "duration": 0.1008,
      "velocity": 118,
      "chip": "ym2612"
    },
    {
      "channel": 0,
      "note": 61,
      "start": 44.0122,
      "duration": 0.1984,
      "velocity": 109,
      "chip": "ym2612"
    },
    {
      "channel": 1,
      "note": 56,
      "start": 44.0125,
      "duration": 0.1984,
      "velocity": 109,
      "chip": "ym2612"
    },
    {
      "channel": 2,
      "note": 37,
      "start": 44.0138,
      "duration": 0.0987,
      "velocity": 1,
      "chip": "ym2612"
    },
    {
      "channel": 3,
      "note": 61,
      "start": 44.0141,
      "duration": 0.1984,
      "velocity": 82,
      "chip": "ym2612"
    },
    {
      "channel": 4,
      "note": 80,
      "start": 44.0144,
      "duration": 0.0985,
      "velocity": 118,
      "chip": "ym2612"
    },
    {
      "channel": 2,
      "note": 37,
      "start": 44.1126,
      "duration": 0.0995,
      "velocity": 1,
      "chip": "ym2612"
    },
    {
      "channel": 4,
      "note": 76,
      "start": 44.113,
      "duration": 0.0998,
      "velocity": 118,
      "chip": "ym2612"
    },
    {
      "channel": 0,
      "note": 61,
      "start": 44.2108,
      "duration": 0.1985,
      "velocity": 109,
      "chip": "ym2612"
    },
    {
      "channel": 1,
      "note": 56,
      "start": 44.2111,
      "duration": 0.1985,
      "velocity": 109,
      "chip": "ym2612"
    },
    {
      "channel": 2,
      "note": 37,
      "start": 44.2124,
      "duration": 0.0979,
      "velocity": 127,
      "chip": "ym2612"
    },
    {
      "channel": 3,
      "note": 56,
      "start": 44.2127,
      "duration": 0.1986,
      "velocity": 82,
      "chip": "ym2612"
    },
    {
      "channel": 4,
      "note": 73,
      "start": 44.213,
      "duration": 0.0976,
      "velocity": 118,
      "chip": "ym2612"
    },
    {
      "channel": 2,
      "note": 37,
      "start": 44.3105,
      "duration": 0.1005,
      "velocity": 1,
      "chip": "ym2612"
    },
    {
      "channel": 4,
      "note": 68,
      "start": 44.3108,
      "duration": 0.1008,
      "velocity": 118,
      "chip": "ym2612"
    },
    {
      "channel": 0,
      "note": 59,
      "start": 44.4095,
      "duration": 0.2778,
      "velocity": 109,
      "chip": "ym2612"
    },
    {
      "channel": 1,
      "note": 54,
      "start": 44.4098,
      "duration": 0.2778,
      "velocity": 109,
      "chip": "ym2612"
    },
    {
      "channel": 2,
      "note": 35,
      "start": 44.4112,
      "duration": 0.0778,
      "velocity": 108,
      "chip": "ym2612"
    },
    {
      "channel": 3,
      "note": 66,
      "start": 44.4115,
      "duration": 0.1771,
      "velocity": 82,
      "chip": "ym2612"
    },
    {
      "channel": 4,
      "note": 78,
      "start": 44.4118,
      "duration": 0.0776,
      "velocity": 118,
      "chip": "ym2612"
    },
    {
      "channel": 2,
      "note": 35,
      "start": 44.4891,
      "duration": 0.0991,
      "velocity": 108,
      "chip": "ym2612"
    },
    {
      "channel": 4,
      "note": 74,
      "start": 44.4895,
      "duration": 0.0993,
      "velocity": 118,
      "chip": "ym2612"
    },
    {
      "channel": 2,
      "note": 35,
      "start": 44.5884,
      "duration": 0.0995,
      "velocity": 108,
      "chip": "ym2612"
    },
    {
      "channel": 3,
      "note": 62,
      "start": 44.5887,
      "duration": 0.1994,
      "velocity": 82,
      "chip": "ym2612"
    },
    {
      "channel": 4,
      "note": 71,
      "start": 44.589,
      "duration": 0.0994,
      "velocity": 118,
      "chip": "ym2612"
    },
    {
      "channel": 0,
      "note": 59,
      "start": 44.6875,
      "duration": 0.2978,
      "velocity": 109,
      "chip": "ym2612"
    },
    {
      "channel": 1,
      "note": 54,
      "start": 44.6878,
      "duration": 0.2978,
      "velocity": 109,
      "chip": "ym2612"
    },
    {
      "channel": 2,
      "note": 35,
      "start": 44.6881,
      "duration": 0.0996,
      "velocity": 1,
      "chip": "ym2612"
    },
    {
      "channel": 4,
      "note": 66,
      "start": 44.6886,
      "duration": 0.0998,
      "velocity": 118,
      "chip": "ym2612"
    },
    {
      "channel": 2,
      "note": 37,
      "start": 44.7879,
      "duration": 0.0992,
      "velocity": 1,
      "chip": "ym2612"
    },
    {
      "channel": 3,
      "note": 59,
      "start": 44.7883,
      "duration": 0.198,
      "velocity": 82,
      "chip": "ym2612"
    },
    {
      "channel": 4,
      "note": 78,
      "start": 44.7886,
      "duration": 0.0989,
      "velocity": 118,
      "chip": "ym2612"
    },
    {
      "channel": 2,
      "note": 35,
      "start": 44.8873,
      "duration": 0.0986,
      "velocity": 108,
      "chip": "ym2612"
    },
    {
      "channel": 4,
      "note": 74,
      "start": 44.8877,
      "duration": 0.0989,
      "velocity": 118,
      "chip": "ym2612"
    },
    {
      "channel": 0,
      "note": 59,
      "start": 44.9855,
      "duration": 0.3772,
      "velocity": 109,
      "chip": "ym2612"
    },
    {
      "channel": 1,
      "note": 54,
      "start": 44.9858,
      "duration": 0.3772,
      "velocity": 109,
      "chip": "ym2612"
    },
    {
      "channel": 2,
      "note": 35,
      "start": 44.9861,
      "duration": 0.0996,
      "velocity": 1,
      "chip": "ym2612"
    },
    {
      "channel": 3,
      "note": 54,
      "start": 44.9864,
      "duration": 0.1791,
      "velocity": 82,
      "chip": "ym2612"
    },
    {
      "channel": 4,
      "note": 71,
      "start": 44.9867,
      "duration": 0.0994,
      "velocity": 118,
      "chip": "ym2612"
    },
    {
      "channel": 2,
      "note": 37,
      "start": 45.0859,
      "duration": 0.0793,
      "velocity": 1,
      "chip": "ym2612"
    },
    {
      "channel": 4,
      "note": 66,
      "start": 45.0863,
      "duration": 0.0795,
      "velocity": 118,
      "chip": "ym2612"
    },
    {
      "channel": 2,
      "note": 35,
      "start": 45.1654,
      "duration": 0.0991,
      "velocity": 1,
      "chip": "ym2612"
    },
    {
      "channel": 3,
      "note": 66,
      "start": 45.1657,
      "duration": 0.1989,
      "velocity": 82,
      "chip": "ym2612"
    },
    {
      "channel": 4,
      "note": 78,
      "start": 45.166,
      "duration": 0.0989,
      "velocity": 118,
      "chip": "ym2612"
    },
    {
      "channel": 2,
      "note": 37,
      "start": 45.2647,
      "duration": 0.0996,
      "velocity": 1,
      "chip": "ym2612"
    },
    {
      "channel": 4,
      "note": 74,
      "start": 45.2651,
      "duration": 0.0998,
      "velocity": 118,
      "chip": "ym2612"
    },
    {
      "channel": 0,
      "note": 59,
      "start": 45.3629,
      "duration": 0.1984,
      "velocity": 109,
      "chip": "ym2612"
    },
    {
      "channel": 1,
      "note": 54,
      "start": 45.3632,
      "duration": 0.1985,
      "velocity": 109,
      "chip": "ym2612"
    },
    {
      "channel": 2,
      "note": 35,
      "start": 45.3645,
      "duration": 0.0977,
      "velocity": 108,
      "chip": "ym2612"
    },
    {
      "channel": 3,
      "note": 62,
      "start": 45.3648,
      "duration": 0.1984,
      "velocity": 82,
      "chip": "ym2612"
    },
    {
      "channel": 4,
      "note": 71,
      "start": 45.3651,
      "duration": 0.0976,
      "velocity": 118,
      "chip": "ym2612"
    },
    {
      "channel": 2,
      "note": 35,
      "start": 45.4624,
      "duration": 0.1005,
      "velocity": 1,
      "chip": "ym2612"
    },
    {
      "channel": 4,
      "note": 66,
      "start": 45.4628,
      "duration": 0.1007,
      "velocity": 118,
      "chip": "ym2612"
    },
    {
      "channel": 0,
      "note": 59,
      "start": 45.5615,
      "duration": 0.3772,
      "velocity": 109,
      "chip": "ym2612"
    },
    {
      "channel": 1,
      "note": 54,
      "start": 45.5619,
      "duration": 0.3772,
      "velocity": 109,
      "chip": "ym2612"
    },
    {
      "channel": 2,
      "note": 37,
      "start": 45.5631,
      "duration": 0.0987,
      "velocity": 1,
      "chip": "ym2612"
    },
    {
      "channel": 3,
      "note": 59,
      "start": 45.5634,
      "duration": 0.1972,
      "velocity": 82,
      "chip": "ym2612"
    },
    {
      "channel": 4,
      "note": 78,
      "start": 45.5637,
      "duration": 0.0985,
      "velocity": 118,
      "chip": "ym2612"
    },
    {
      "channel": 2,
      "note": 35,
      "start": 45.6619,
      "duration": 0.0983,
      "velocity": 108,
      "chip": "ym2612"
    },
    {
      "channel": 4,
      "note": 74,
      "start": 45.6624,
      "duration": 0.0985,
      "velocity": 118,
      "chip": "ym2612"
    },
    {
      "channel": 2,
      "note": 35,
      "start": 45.7605,
      "duration": 0.0791,
      "velocity": 108,
      "chip": "ym2612"
    },
    {
      "channel": 3,
      "note": 54,
      "start": 45.7608,
      "duration": 0.1789,
      "velocity": 82,
      "chip": "ym2612"
    },
    {
      "channel": 4,
      "note": 71,
      "start": 45.7611,
      "duration": 0.0789,
      "velocity": 118,
      "chip": "ym2612"
    },
    {
      "channel": 2,
      "note": 35,
      "start": 45.8398,
      "duration": 0.0995,
      "velocity": 108,
      "chip": "ym2612"
    },
    {
      "channel": 4,
      "note": 66,
      "start": 45.8402,
      "duration": 0.0998,
      "velocity": 118,
      "chip": "ym2612"
    },
    {
      "channel": 0,
      "note": 59,
      "start": 45.9389,
      "duration": 0.2977,
      "velocity": 109,
      "chip": "ym2612"
    },
    {
      "channel": 1,
      "note": 54,
      "start": 45.9392,
      "duration": 0.2977,
      "velocity": 109,
      "chip": "ym2612"
    },
    {
      "channel": 2,
      "note": 35,
      "start": 45.9395,
      "duration": 0.0987,
      "velocity": 108,
      "chip": "ym2612"
    },
    {
      "channel": 3,
      "note": 66,
      "start": 45.9399,
      "duration": 0.198,
      "velocity": 82,
      "chip": "ym2612"
    },
    {
      "channel": 4,
      "note": 78,
      "start": 45.9402,
      "duration": 0.0985,
      "velocity": 118,
      "chip": "ym2612"
    },
    {
      "channel": 2,
      "note": 35,
      "start": 46.0384,
      "duration": 0.0992,
      "velocity": 108,
      "chip": "ym2612"
    },
    {
      "channel": 4,
      "note": 74,
      "start": 46.0388,
      "duration": 0.0993,
      "velocity": 118,
      "chip": "ym2612"
    },
    {
      "channel": 2,
      "note": 35,
      "start": 46.1378,
      "duration": 0.0995,
      "velocity": 108,
      "chip": "ym2612"
    },
    {
      "channel": 3,
      "note": 62,
      "start": 46.138,
      "duration": 0.1994,
      "velocity": 82,
      "chip": "ym2612"
    },
    {
      "channel": 4,
      "note": 71,
      "start": 46.1383,
      "duration": 0.0994,
      "velocity": 118,
      "chip": "ym2612"
    },
    {
      "channel": 0,
      "note": 59,
      "start": 46.2368,
      "duration": 0.2779,
      "velocity": 109,
      "chip": "ym2612"
    },
    {
      "channel": 1,
      "note": 54,
      "start": 46.2371,
      "duration": 0.2779,
      "velocity": 109,
      "chip": "ym2612"
    },
    {
      "channel": 2,
      "note": 35,
      "start": 46.2374,
      "duration": 0.0997,
      "velocity": 1,
      "chip": "ym2612"
    },
    {
      "channel": 4,
      "note": 66,
      "start": 46.2379,
      "duration": 0.0999,
      "velocity": 118,
      "chip": "ym2612"
    },
    {
      "channel": 2,
      "note": 37,
      "start": 46.3373,
      "duration": 0.0991,
      "velocity": 1,
      "chip": "ym2612"
    },
    {
      "channel": 3,
      "note": 59,
      "start": 46.3376,
      "duration": 0.1781,
      "velocity": 82,
      "chip": "ym2612"
    },
    {
      "channel": 4,
      "note": 78,
      "start": 46.3379,
      "duration": 0.0989,
      "velocity": 118,
      "chip": "ym2612"
    },
    {
      "channel": 2,
      "note": 35,
      "start": 46.4366,
      "duration": 0.0788,
      "velocity": 108,
      "chip": "ym2612"
    },
    {
      "channel": 4,
      "note": 74,
      "start": 46.437,
      "duration": 0.079,
      "velocity": 118,
      "chip": "ym2612"
    },
    {
      "channel": 0,
      "note": 59,
      "start": 46.5149,
      "duration": 0.2977,
      "velocity": 109,
      "chip": "ym2612"
    },
    {
      "channel": 1,
      "note": 54,
      "start": 46.5152,
      "duration": 0.2977,
      "velocity": 109,
      "chip": "ym2612"
    },
    {
      "channel": 2,
      "note": 35,
      "start": 46.5156,
      "duration": 0.0996,
      "velocity": 1,
      "chip": "ym2612"
    },
    {
      "channel": 3,
      "note": 54,
      "start": 46.5159,
      "duration": 0.1989,
      "velocity": 82,
      "chip": "ym2612"
    },
    {
      "channel": 4,
      "note": 71,
      "start": 46.5161,
      "duration": 0.0995,
      "velocity": 118,
      "chip": "ym2612"
    },
    {
      "channel": 2,
      "note": 37,
      "start": 46.6154,
      "duration": 0.0991,
      "velocity": 1,
      "chip": "ym2612"
    },
    {
      "channel": 4,
      "note": 66,
      "start": 46.6157,
      "duration": 0.0994,
      "velocity": 118,
      "chip": "ym2612"
    },
    {
      "channel": 2,
      "note": 35,
      "start": 46.7147,
      "duration": 0.0995,
      "velocity": 1,
      "chip": "ym2612"
    },
    {
      "channel": 3,
      "note": 66,
      "start": 46.715,
      "duration": 0.1985,
      "velocity": 82,
      "chip": "ym2612"
    },
    {
      "channel": 4,
      "note": 78,
      "start": 46.7153,
      "duration": 0.0994,
      "velocity": 118,
      "chip": "ym2612"
    },
    {
      "channel": 0,
      "note": 59,
      "start": 46.8128,
      "duration": 0.2978,
      "velocity": 109,
      "chip": "ym2612"
    },
    {
      "channel": 1,
      "note": 54,
      "start": 46.8131,
      "duration": 0.2978,
      "velocity": 109,
      "chip": "ym2612"
    },
    {
      "channel": 2,
      "note": 37,
      "start": 46.8144,
      "duration": 0.0987,
      "velocity": 1,
      "chip": "ym2612"
    },
    {
      "channel": 4,
      "note": 74,
      "start": 46.8149,
      "duration": 0.0989,
      "velocity": 118,
      "chip": "ym2612"
    },
    {
      "channel": 2,
      "note": 35,
      "start": 46.9133,
      "duration": 0.0981,
      "velocity": 108,
      "chip": "ym2612"
    },
    {
      "channel": 3,
      "note": 62,
      "start": 46.9137,
      "duration": 0.1988,
      "velocity": 82,
      "chip": "ym2612"
    },
    {
      "channel": 4,
      "note": 71,
      "start": 46.914,
      "duration": 0.098,
      "velocity": 118,
      "chip": "ym2612"
    },
    {
      "channel": 2,
      "note": 35,
      "start": 47.0117,
      "duration": 0.1005,
      "velocity": 1,
      "chip": "ym2612"
    },
    {
      "channel": 4,
      "note": 66,
      "start": 47.0121,
      "duration": 0.1007,
      "velocity": 118,
      "chip": "ym2612"
    },
    {
      "channel": 0,
      "note": 59,
      "start": 47.1108,
      "duration": 0.1785,
      "velocity": 109,
      "chip": "ym2612"
    },
    {
      "channel": 1,
      "note": 54,
      "start": 47.1112,
      "duration": 0.1785,
      "velocity": 109,
      "chip": "ym2612"
    },
    {
      "channel": 2,
      "note": 37,
      "start": 47.1124,
      "duration": 0.0788,
      "velocity": 1,
      "chip": "ym2612"
    },
    {
      "channel": 3,
      "note": 59,
      "start": 47.1127,
      "duration": 0.1776,
      "velocity": 82,
      "chip": "ym2612"
    },
    {
      "channel": 4,
      "note": 78,
      "start": 47.113,
      "duration": 0.0786,
      "velocity": 118,
      "chip": "ym2612"
    },
    {
      "channel": 2,
      "note": 35,
      "start": 47.1914,
      "duration": 0.0986,
      "velocity": 108,
      "chip": "ym2612"
    },
    {
      "channel": 4,
      "note": 74,
      "start": 47.1918,
      "duration": 0.0988,
      "velocity": 118,
      "chip": "ym2612"
    },
    {
      "channel": 0,
      "note": 59,
      "start": 47.2895,
      "duration": 0.1985,
      "velocity": 109,
      "chip": "ym2612"
    },
    {
      "channel": 1,
      "note": 54,
      "start": 47.2899,
      "duration": 0.1985,
      "velocity": 109,
      "chip": "ym2612"
    },
    {
      "channel": 2,
      "note": 35,
      "start": 47.2902,
      "duration": 0.0997,
      "velocity": 1,
      "chip": "ym2612"
    },
    {
      "channel": 3,
      "note": 54,
      "start": 47.2905,
      "duration": 0.1994,
      "velocity": 82,
      "chip": "ym2612"
    },
    {
      "channel": 4,
      "note": 71,
      "start": 47.2908,
      "duration": 0.0994,
      "velocity": 118,
      "chip": "ym2612"
    },
    {
      "channel": 2,
      "note": 37,
      "start": 47.39,
      "duration": 0.0995,
      "velocity": 1,
      "chip": "ym2612"
    },
    {
      "channel": 4,
      "note": 66,
      "start": 47.3904,
      "duration": 0.0998,
      "velocity": 118,
      "chip": "ym2612"
    },
    {
      "channel": 0,
      "note": 61,
      "start": 47.4882,
      "duration": 0.2977,
      "velocity": 109,
      "chip": "ym2612"
    },
    {
      "channel": 1,
      "note": 56,
      "start": 47.4885,
      "duration": 0.2977,
      "velocity": 109,
      "chip": "ym2612"
    },
    {
      "channel": 2,
      "note": 37,
      "start": 47.4898,
      "duration": 0.0978,
      "velocity": 108,
      "chip": "ym2612"
    },
    {
      "channel": 3,
      "note": 68,
      "start": 47.4901,
      "duration": 0.197,
      "velocity": 82,
      "chip": "ym2612"
    },
    {
      "channel": 4,
      "note": 80,
      "start": 47.4904,
      "duration": 0.0975,
      "velocity": 118,
      "chip": "ym2612"
    },
    {
      "channel": 2,
      "note": 37,
      "start": 47.5878,
      "duration": 0.0991,
      "velocity": 108,
      "chip": "ym2612"
    },
    {
      "channel": 4,
      "note": 76,
      "start": 47.5881,
      "duration": 0.0993,
      "velocity": 118,
      "chip": "ym2612"
    },
    {
      "channel": 2,
      "note": 37,
      "start": 47.6871,
      "duration": 0.0995,
      "velocity": 108,
      "chip": "ym2612"
    },
    {
      "channel": 3,
      "note": 64,
      "start": 47.6873,
      "duration": 0.1795,
      "velocity": 82,
      "chip": "ym2612"
    },
    {
      "channel": 4,
      "note": 73,
      "start": 47.6876,
      "duration": 0.0994,
      "velocity": 118,
      "chip": "ym2612"
    },
    {
      "channel": 0,
      "note": 61,
      "start": 47.7861,
      "duration": 0.2779,
      "velocity": 109,
      "chip": "ym2612"
    },
    {
      "channel": 1,
      "note": 56,
      "start": 47.7864,
      "duration": 0.2779,
      "velocity": 109,
      "chip": "ym2612"
    },
    {
      "channel": 2,
      "note": 37,
      "start": 47.7867,
      "duration": 0.0798,
      "velocity": 1,
      "chip": "ym2612"
    },
    {
      "channel": 4,
      "note": 68,
      "start": 47.7872,
      "duration": 0.08,
      "velocity": 118,
      "chip": "ym2612"
    },
    {
      "channel": 2,
      "note": 37,
      "start": 47.8667,
      "duration": 0.0992,
      "velocity": 1,
      "chip": "ym2612"
    },
    {
      "channel": 3,
      "note": 61,
      "start": 47.867,
      "duration": 0.198,
      "velocity": 82,
      "chip": "ym2612"
    },
    {
      "channel": 4,
      "note": 80,
      "start": 47.8673,
      "duration": 0.0989,
      "velocity": 118,
      "chip": "ym2612"
    },
    {
      "channel": 2,
      "note": 37,
      "start": 47.9661,
      "duration": 0.0986,
      "velocity": 108,
      "chip": "ym2612"
    },
    {
      "channel": 4,
      "note": 76,
      "start": 47.9664,
      "duration": 0.0989,
      "velocity": 118,
      "chip": "ym2612"
    },
    {
      "channel": 0,
      "note": 61,
      "start": 48.0642,
      "duration": 0.3971,
      "velocity": 109,
      "chip": "ym2612"
    },
    {
      "channel": 1,
      "note": 56,
      "start": 48.0645,
      "duration": 0.3971,
      "velocity": 109,
      "chip": "ym2612"
    },
    {
      "channel": 2,
      "note": 37,
      "start": 48.0649,
      "duration": 0.0996,
      "velocity": 1,
      "chip": "ym2612"
    },
    {
      "channel": 3,
      "note": 56,
      "start": 48.0652,
      "duration": 0.1989,
      "velocity": 82,
      "chip": "ym2612"
    },
    {
      "channel": 4,
      "note": 73,
      "start": 48.0655,
      "duration": 0.0994,
      "velocity": 118,
      "chip": "ym2612"
    },
    {
      "channel": 2,
      "note": 37,
      "start": 48.1647,
      "duration": 0.0991,
      "velocity": 1,
      "chip": "ym2612"
    },
    {
      "channel": 4,
      "note": 68,
      "start": 48.1651,
      "duration": 0.0993,
      "velocity": 118,
      "chip": "ym2612"
    },
    {
      "channel": 2,
      "note": 37,
      "start": 48.264,
      "duration": 0.0992,
      "velocity": 1,
      "chip": "ym2612"
    },
    {
      "channel": 3,
      "note": 68,
      "start": 48.2643,
      "duration": 0.1989,
      "velocity": 82,
      "chip": "ym2612"
    },
    {
      "channel": 4,
      "note": 80,
      "start": 48.2646,
      "duration": 0.0989,
      "velocity": 118,
      "chip": "ym2612"
    },
    {
      "channel": 2,
      "note": 37,
      "start": 48.3633,
      "duration": 0.0995,
      "velocity": 1,
      "chip": "ym2612"
    },
    {
      "channel": 4,
      "note": 76,
      "start": 48.3637,
      "duration": 0.0998,
      "velocity": 118,
      "chip": "ym2612"
    },
    {
      "channel": 0,
      "note": 61,
      "start": 48.4615,
      "duration": 0.1786,
      "velocity": 109,
      "chip": "ym2612"
    },
    {
      "channel": 1,
      "note": 56,
      "start": 48.4618,
      "duration": 0.1786,
      "velocity": 109,
      "chip": "ym2612"
    },
    {
      "channel": 2,
      "note": 37,
      "start": 48.4631,
      "duration": 0.0977,
      "velocity": 108,
      "chip": "ym2612"
    },
    {
      "channel": 3,
      "note": 64,
      "start": 48.4634,
      "duration": 0.1785,
      "velocity": 82,
      "chip": "ym2612"
    },
    {
      "channel": 4,
      "note": 73,
      "start": 48.4637,
      "duration": 0.0975,
      "velocity": 118,
      "chip": "ym2612"
    },
    {
      "channel": 2,
      "note": 37,
      "start": 48.561,
      "duration": 0.0807,
      "velocity": 1,
      "chip": "ym2612"
    },
    {
      "channel": 4,
      "note": 68,
      "start": 48.5614,
      "duration": 0.0808,
      "velocity": 118,
      "chip": "ym2612"
    },
    {
      "channel": 0,
      "note": 61,
      "start": 48.6403,
      "duration": 0.397,
      "velocity": 109,
      "chip": "ym2612"
    },
    {
      "channel": 1,
      "note": 56,
      "start": 48.6405,
      "duration": 0.1982,
      "velocity": 109,
      "chip": "ym2612"
    },
    {
      "channel": 2,
      "note": 37,
      "start": 48.6418,
      "duration": 0.0987,
      "velocity": 1,
      "chip": "ym2612"
    },
    {
      "channel": 3,
      "note": 61,
      "start": 48.6422,
      "duration": 0.1973,
      "velocity": 82,
      "chip": "ym2612"
    },
    {
      "channel": 4,
      "note": 80,
      "start": 48.6425,
      "duration": 0.0985,
      "velocity": 118,
      "chip": "ym2612"
    },
    {
      "channel": 2,
      "note": 37,
      "start": 48.7407,
      "duration": 0.0984,
      "velocity": 108,
      "chip": "ym2612"
    },
    {
      "channel": 4,
      "note": 76,
      "start": 48.7411,
      "duration": 0.0986,
      "velocity": 118,
      "chip": "ym2612"
    },
    {
      "channel": 1,
      "note": 61,
      "start": 48.839,
      "duration": 0.3971,
      "velocity": 109,
      "chip": "ym2612"
    },
    {
      "channel": 2,
      "note": 37,
      "start": 48.8393,
      "duration": 0.0989,
      "velocity": 108,
      "chip": "ym2612"
    },
    {
      "channel": 3,
      "note": 56,
      "start": 48.8396,
      "duration": 0.1985,
      "velocity": 82,
      "chip": "ym2612"
    },
    {
      "channel": 4,
      "note": 73,
      "start": 48.8399,
      "duration": 0.0987,
      "velocity": 118,
      "chip": "ym2612"
    },
    {
      "channel": 2,
      "note": 37,
      "start": 48.9384,
      "duration": 0.0994,
      "velocity": 108,
      "chip": "ym2612"
    },
    {
      "channel": 4,
      "note": 68,
      "start": 48.9388,
      "duration": 0.0995,
      "velocity": 118,
      "chip": "ym2612"
    },
    {
      "channel": 0,
      "note": 61,
      "start": 49.0375,
      "duration": 0.2779,
      "velocity": 109,
      "chip": "ym2612"
    },
    {
      "channel": 2,
      "note": 37,
      "start": 49.0379,
      "duration": 0.0989,
      "velocity": 108,
      "chip": "ym2612"
    },
    {
      "channel": 3,
      "note": 68,
      "start": 49.0383,
      "duration": 0.1984,
      "velocity": 82,
      "chip": "ym2612"
    },
    {
      "channel": 4,
      "note": 80,
      "start": 49.0386,
      "duration": 0.0987,
      "velocity": 118,
      "chip": "ym2612"
    },
    {
      "channel": 2,
      "note": 37,
      "start": 49.1371,
      "duration": 0.0994,
      "velocity": 108,
      "chip": "ym2612"
    },
    {
      "channel": 4,
      "note": 76,
      "start": 49.1374,
      "duration": 0.0995,
      "velocity": 118,
      "chip": "ym2612"
    },
    {
      "channel": 1,
      "note": 56,
      "start": 49.2363,
      "duration": 0.2778,
      "velocity": 109,
      "chip": "ym2612"
    },
    {
      "channel": 2,
      "note": 37,
      "start": 49.2366,
      "duration": 0.0792,
      "velocity": 108,
      "chip": "ym2612"
    },
    {
      "channel": 3,
      "note": 64,
      "start": 49.2369,
      "duration": 0.1793,
      "velocity": 82,
      "chip": "ym2612"
    },
    {
      "channel": 4,
      "note": 73,
      "start": 49.2372,
      "duration": 0.0791,
      "velocity": 118,
      "chip": "ym2612"
    },
    {
      "channel": 0,
      "note": 61,
      "start": 49.3156,
      "duration": 0.2978,
      "velocity": 109,
      "chip": "ym2612"
    },
    {
      "channel": 2,
      "note": 37,
      "start": 49.316,
      "duration": 0.0999,
      "velocity": 1,
      "chip": "ym2612"
    },
    {
      "channel": 4,
      "note": 68,
      "start": 49.3164,
      "duration": 0.1001,
      "velocity": 118,
      "chip": "ym2612"
    },
    {
      "channel": 2,
      "note": 37,
      "start": 49.4161,
      "duration": 0.0993,
      "velocity": 1,
      "chip": "ym2612"
    },
    {
      "channel": 3,
      "note": 61,
      "start": 49.4164,
      "duration": 0.1986,
      "velocity": 82,
      "chip": "ym2612"
    },
    {
      "channel": 4,
      "note": 80,
      "start": 49.4167,
      "duration": 0.0991,
      "velocity": 118,
      "chip": "ym2612"
    },
    {
      "channel": 1,
      "note": 56,
      "start": 49.5144,
      "duration": 0.2977,
      "velocity": 109,
      "chip": "ym2612"
    },
    {
      "channel": 2,
      "note": 37,
      "start": 49.5156,
      "duration": 0.0991,
      "velocity": 1,
      "chip": "ym2612"
    },
    {
      "channel": 4,
      "note": 76,
      "start": 49.516,
      "duration": 0.0993,
      "velocity": 118,
      "chip": "ym2612"
    },
    {
      "channel": 0,
      "note": 61,
      "start": 49.6135,
      "duration": 0.2978,
      "velocity": 109,
      "chip": "ym2612"
    },
    {
      "channel": 2,
      "note": 37,
      "start": 49.6149,
      "duration": 0.098,
      "velocity": 127,
      "chip": "ym2612"
    },
    {
      "channel": 3,
      "note": 56,
      "start": 49.6152,
      "duration": 0.1985,
      "velocity": 82,
      "chip": "ym2612"
    },
    {
      "channel": 4,
      "note": 73,
      "start": 49.6155,
      "duration": 0.0978,
      "velocity": 118,
      "chip": "ym2612"
    },
    {
      "channel": 2,
      "note": 37,
      "start": 49.7131,
      "duration": 0.1002,
      "velocity": 1,
      "chip": "ym2612"
    },
    {
      "channel": 4,
      "note": 68,
      "start": 49.7134,
      "duration": 0.1005,
      "velocity": 118,
      "chip": "ym2612"
    },
    {
      "channel": 1,
      "note": 56,
      "start": 49.8122,
      "duration": 0.2779,
      "velocity": 109,
      "chip": "ym2612"
    },
    {
      "channel": 2,
      "note": 37,
      "start": 49.8135,
      "duration": 0.0991,
      "velocity": 1,
      "chip": "ym2612"
    },
    {
      "channel": 3,
      "note": 68,
      "start": 49.8138,
      "duration": 0.1774,
      "velocity": 82,
      "chip": "ym2612"
    },
    {
      "channel": 4,
      "note": 80,
      "start": 49.8141,
      "duration": 0.0989,
      "velocity": 118,
      "chip": "ym2612"
    },
    {
      "channel": 0,
      "note": 61,
      "start": 49.9115,
      "duration": 0.2779,
      "velocity": 109,
      "chip": "ym2612"
    },
    {
      "channel": 2,
      "note": 37,
      "start": 49.9128,
      "duration": 0.0781,
      "velocity": 127,
      "chip": "ym2612"
    },
    {
      "channel": 4,
      "note": 76,
      "start": 49.9133,
      "duration": 0.0783,
      "velocity": 118,
      "chip": "ym2612"
    },
    {
      "channel": 2,
      "note": 37,
      "start": 49.9911,
      "duration": 0.1002,
      "velocity": 1,
      "chip": "ym2612"
    },
    {
      "channel": 3,
      "note": 64,
      "start": 49.9915,
      "duration": 0.1996,
      "velocity": 82,
      "chip": "ym2612"
    },
    {
      "channel": 4,
      "note": 73,
      "start": 49.9918,
      "duration": 0.1001,
      "velocity": 118,
      "chip": "ym2612"
    },
    {
      "channel": 1,
      "note": 56,
      "start": 50.0904,
      "duration": 0.2978,
      "velocity": 109,
      "chip": "ym2612"
    },
    {
      "channel": 2,
      "note": 37,
      "start": 50.0916,
      "duration": 0.0992,
      "velocity": 1,
      "chip": "ym2612"
    },
    {
      "channel": 4,
      "note": 68,
      "start": 50.092,
      "duration": 0.0994,
      "velocity": 118,
      "chip": "ym2612"
    },
    {
      "channel": 0,
      "note": 61,
      "start": 50.1896,
      "duration": 0.0991,
      "velocity": 109,
      "chip": "ym2612"
    },
    {
      "channel": 2,
      "note": 37,
      "start": 50.1909,
      "duration": 0.098,
      "velocity": 127,
      "chip": "ym2612"
    },
    {
      "channel": 3,
      "note": 61,
      "start": 50.1912,
      "duration": 0.1975,
      "velocity": 82,
      "chip": "ym2612"
    },
    {
      "channel": 4,
      "note": 80,
      "start": 50.1916,
      "duration": 0.0978,
      "velocity": 118,
      "chip": "ym2612"
    },
    {
      "channel": 2,
      "note": 37,
      "start": 50.2892,
      "duration": 0.0993,
      "velocity": 127,
      "chip": "ym2612"
    },
    {
      "channel": 4,
      "note": 76,
      "start": 50.2896,
      "duration": 0.0995,
      "velocity": 118,
      "chip": "ym2612"
    },
    {
      "channel": 1,
      "note": 56,
      "start": 50.3883,
      "duration": 0.1988,
      "velocity": 109,
      "chip": "ym2612"
    },
    {
      "channel": 2,
      "note": 37,
      "start": 50.3886,
      "duration": 0.0989,
      "velocity": 127,
      "chip": "ym2612"
    },
    {
      "channel": 3,
      "note": 56,
      "start": 50.389,
      "duration": 0.2011,
      "velocity": 1,
      "chip": "ym2612"
    },
    {
      "channel": 4,
      "note": 73,
      "start": 50.3893,
      "duration": 0.0987,
      "velocity": 118,
      "chip": "ym2612"
    },
    {
      "channel": 2,
      "note": 37,
      "start": 50.4878,
      "duration": 0.1008,
      "velocity": 1,
      "chip": "ym2612"
    },
    {
      "channel": 4,
      "note": 68,
      "start": 50.4881,
      "duration": 0.1033,
      "velocity": 1,
      "chip": "ym2612"
    },
    {
      "channel": 0,
      "note": 61,
      "start": 50.5869,
      "duration": 0.2778,
      "velocity": 109,
      "chip": "ym2612"
    },
    {
      "channel": 1,
      "note": 54,
      "start": 50.5873,
      "duration": 0.2778,
      "velocity": 109,
      "chip": "ym2612"
    },
    {
      "channel": 2,
      "note": 42,
      "start": 50.5887,
      "duration": 0.0776,
      "velocity": 108,
      "chip": "ym2612"
    },
    {
      "channel": 3,
      "note": 73,
      "start": 50.5902,
      "duration": 0.1757,
      "velocity": 82,
      "chip": "ym2612"
    },
    {
      "channel": 4,
      "note": 85,
      "start": 50.5916,
      "duration": 0.0751,
      "velocity": 118,
      "chip": "ym2612"
    },
    {
      "channel": 2,
      "note": 42,
      "start": 50.6665,
      "duration": 0.0991,
      "velocity": 108,
      "chip": "ym2612"
    },
    {
      "channel": 4,
      "note": 81,
      "start": 50.6669,
      "duration": 0.0994,
      "velocity": 118,
      "chip": "ym2612"
    },
    {
      "channel": 2,
      "note": 42,
      "start": 50.7658,
      "duration": 0.0996,
      "velocity": 108,
      "chip": "ym2612"
    },
    {
      "channel": 3,
      "note": 69,
      "start": 50.7661,
      "duration": 0.1994,
      "velocity": 82,
      "chip": "ym2612"
    },
    {
      "channel": 4,
      "note": 78,
      "start": 50.7664,
      "duration": 0.0993,
      "velocity": 118,
      "chip": "ym2612"
    },
    {
      "channel": 0,
      "note": 61,
      "start": 50.8649,
      "duration": 0.2978,
      "velocity": 109,
      "chip": "ym2612"
    },
    {
      "channel": 1,
      "note": 54,
      "start": 50.8652,
      "duration": 0.2978,
      "velocity": 109,
      "chip": "ym2612"
    },
    {
      "channel": 2,
      "note": 42,
      "start": 50.8656,
      "duration": 0.0996,
      "velocity": 1,
      "chip": "ym2612"
    },
    {
      "channel": 4,
      "note": 73,
      "start": 50.8659,
      "duration": 0.0999,
      "velocity": 118,
      "chip": "ym2612"
    },
    {
      "channel": 2,
      "note": 37,
      "start": 50.9654,
      "duration": 0.0991,
      "velocity": 1,
      "chip": "ym2612"
    },
    {
      "channel": 3,
      "note": 66,
      "start": 50.9657,
      "duration": 0.198,
      "velocity": 82,
      "chip": "ym2612"
    },
    {
      "channel": 4,
      "note": 85,
      "start": 50.966,
      "duration": 0.0989,
      "velocity": 118,
      "chip": "ym2612"
    },
    {
      "channel": 2,
      "note": 42,
      "start": 51.0647,
      "duration": 0.0987,
      "velocity": 108,
      "chip": "ym2612"
    },
    {
      "channel": 4,
      "note": 81,
      "start": 51.0651,
      "duration": 0.0989,
      "velocity": 118,
      "chip": "ym2612"
    },
    {
      "channel": 0,
      "note": 61,
      "start": 51.1629,
      "duration": 0.3772,
      "velocity": 109,
      "chip": "ym2612"
    },
    {
      "channel": 1,
      "note": 54,
      "start": 51.1632,
      "duration": 0.3772,
      "velocity": 109,
      "chip": "ym2612"
    },
    {
      "channel": 2,
      "note": 42,
      "start": 51.1635,
      "duration": 0.0996,
      "velocity": 1,
      "chip": "ym2612"
    },
    {
      "channel": 3,
      "note": 61,
      "start": 51.1638,
      "duration": 0.1791,
      "velocity": 82,
      "chip": "ym2612"
    },
    {
      "channel": 4,
      "note": 78,
      "start": 51.1641,
      "duration": 0.0994,
      "velocity": 118,
      "chip": "ym2612"
    },
    {
      "channel": 2,
      "note": 37,
      "start": 51.2633,
      "duration": 0.0793,
      "velocity": 1,
      "chip": "ym2612"
    },
    {
      "channel": 4,
      "note": 73,
      "start": 51.2637,
      "duration": 0.0795,
      "velocity": 118,
      "chip": "ym2612"
    },
    {
      "channel": 2,
      "note": 42,
      "start": 51.3428,
      "duration": 0.0991,
      "velocity": 1,
      "chip": "ym2612"
    },
    {
      "channel": 3,
      "note": 73,
      "start": 51.3431,
      "duration": 0.1988,
      "velocity": 82,
      "chip": "ym2612"
    },
    {
      "channel": 4,
      "note": 85,
      "start": 51.3435,
      "duration": 0.0987,
      "velocity": 118,
      "chip": "ym2612"
    },
    {
      "channel": 2,
      "note": 37,
      "start": 51.4421,
      "duration": 0.0995,
      "velocity": 1,
      "chip": "ym2612"
    },
    {
      "channel": 4,
      "note": 81,
      "start": 51.4425,
      "duration": 0.0998,
      "velocity": 118,
      "chip": "ym2612"
    },
    {
      "channel": 0,
      "note": 61,
      "start": 51.5403,
      "duration": 0.1984,
      "velocity": 109,
      "chip": "ym2612"
    },
    {
      "channel": 1,
      "note": 54,
      "start": 51.5406,
      "duration": 0.1984,
      "velocity": 109,
      "chip": "ym2612"
    },
    {
      "channel": 2,
      "note": 42,
      "start": 51.5418,
      "duration": 0.0978,
      "velocity": 108,
      "chip": "ym2612"
    },
    {
      "channel": 3,
      "note": 69,
      "start": 51.5422,
      "duration": 0.1985,
      "velocity": 82,
      "chip": "ym2612"
    },
    {
      "channel": 4,
      "note": 78,
      "start": 51.5425,
      "duration": 0.0975,
      "velocity": 118,
      "chip": "ym2612"
    },
    {
      "channel": 2,
      "note": 42,
      "start": 51.6398,
      "duration": 0.1005,
      "velocity": 1,
      "chip": "ym2612"
    },
    {
      "channel": 4,
      "note": 73,
      "start": 51.6402,
      "duration": 0.1007,
      "velocity": 118,
      "chip": "ym2612"
    },
    {
      "channel": 0,
      "note": 61,
      "start": 51.7389,
      "duration": 0.3772,
      "velocity": 109,
      "chip": "ym2612"
    },
    {
      "channel": 1,
      "note": 54,
      "start": 51.7392,
      "duration": 0.3772,
      "velocity": 109,
      "chip": "ym2612"
    },
    {
      "channel": 2,
      "note": 37,
      "start": 51.7405,
      "duration": 0.0987,
      "velocity": 1,
      "chip": "ym2612"
    },
    {
      "channel": 3,
      "note": 66,
      "start": 51.7408,
      "duration": 0.197,
      "velocity": 82,
      "chip": "ym2612"
    },
    {
      "channel": 4,
      "note": 85,
      "start": 51.7411,
      "duration": 0.0985,
      "velocity": 118,
      "chip": "ym2612"
    },
    {
      "channel": 2,
      "note": 42,
      "start": 51.8393,
      "duration": 0.0982,
      "velocity": 108,
      "chip": "ym2612"
    },
    {
      "channel": 4,
      "note": 81,
      "start": 51.8397,
      "duration": 0.0984,
      "velocity": 118,
      "chip": "ym2612"
    },
    {
      "channel": 2,
      "note": 42,
      "start": 51.9377,
      "duration": 0.0992,
      "velocity": 108,
      "chip": "ym2612"
    },
    {
      "channel": 3,
      "note": 61,
      "start": 51.938,
      "duration": 0.1791,
      "velocity": 82,
      "chip": "ym2612"
    },
    {
      "channel": 4,
      "note": 78,
      "start": 51.9383,
      "duration": 0.0989,
      "velocity": 118,
      "chip": "ym2612"
    },
    {
      "channel": 2,
      "note": 42,
      "start": 52.0371,
      "duration": 0.0797,
      "velocity": 108,
      "chip": "ym2612"
    },
    {
      "channel": 4,
      "note": 73,
      "start": 52.0374,
      "duration": 0.08,
      "velocity": 118,
      "chip": "ym2612"
    },
    {
      "channel": 0,
      "note": 61,
      "start": 52.1163,
      "duration": 0.2977,
      "velocity": 109,
      "chip": "ym2612"
    },
    {
      "channel": 1,
      "note": 54,
      "start": 52.1166,
      "duration": 0.2977,
      "velocity": 109,
      "chip": "ym2612"
    },
    {
      "channel": 2,
      "note": 42,
      "start": 52.117,
      "duration": 0.0987,
      "velocity": 108,
      "chip": "ym2612"
    },
    {
      "channel": 3,
      "note": 73,
      "start": 52.1173,
      "duration": 0.198,
      "velocity": 82,
      "chip": "ym2612"
    },
    {
      "channel": 4,
      "note": 85,
      "start": 52.1176,
      "duration": 0.0984,
      "velocity": 118,
      "chip": "ym2612"
    },
    {
      "channel": 2,
      "note": 42,
      "start": 52.2158,
      "duration": 0.0991,
      "velocity": 108,
      "chip": "ym2612"
    },
    {
      "channel": 4,
      "note": 81,
      "start": 52.2162,
      "duration": 0.0994,
      "velocity": 118,
      "chip": "ym2612"
    },
    {
      "channel": 2,
      "note": 42,
      "start": 52.3151,
      "duration": 0.0996,
      "velocity": 108,
      "chip": "ym2612"
    },
    {
      "channel": 3,
      "note": 69,
      "start": 52.3154,
      "duration": 0.1994,
      "velocity": 82,
      "chip": "ym2612"
    },
    {
      "channel": 4,
      "note": 78,
      "start": 52.3157,
      "duration": 0.0993,
      "velocity": 118,
      "chip": "ym2612"
    },
    {
      "channel": 0,
      "note": 61,
      "start": 52.4142,
      "duration": 0.2978,
      "velocity": 109,
      "chip": "ym2612"
    },
    {
      "channel": 1,
      "note": 54,
      "start": 52.4145,
      "duration": 0.2977,
      "velocity": 109,
      "chip": "ym2612"
    },
    {
      "channel": 2,
      "note": 42,
      "start": 52.4149,
      "duration": 0.0996,
      "velocity": 1,
      "chip": "ym2612"
    },
    {
      "channel": 4,
      "note": 73,
      "start": 52.4152,
      "duration": 0.0999,
      "velocity": 118,
      "chip": "ym2612"
    },
    {
      "channel": 2,
      "note": 37,
      "start": 52.5147,
      "duration": 0.0991,
      "velocity": 1,
      "chip": "ym2612"
    },
    {
      "channel": 3,
      "note": 66,
      "start": 52.515,
      "duration": 0.1979,
      "velocity": 82,
      "chip": "ym2612"
    },
    {
      "channel": 4,
      "note": 85,
      "start": 52.5153,
      "duration": 0.0989,
      "velocity": 118,
      "chip": "ym2612"
    },
    {
      "channel": 2,
      "note": 42,
      "start": 52.614,
      "duration": 0.0986,
      "velocity": 108,
      "chip": "ym2612"
    },
    {
      "channel": 4,
      "note": 81,
      "start": 52.6144,
      "duration": 0.0988,
      "velocity": 118,
      "chip": "ym2612"
    },
    {
      "channel": 0,
      "note": 61,
      "start": 52.7121,
      "duration": 0.2779,
      "velocity": 109,
      "chip": "ym2612"
    },
    {
      "channel": 1,
      "note": 54,
      "start": 52.7124,
      "duration": 0.2779,
      "velocity": 109,
      "chip": "ym2612"
    },
    {
      "channel": 2,
      "note": 42,
      "start": 52.7128,
      "duration": 0.0798,
      "velocity": 1,
      "chip": "ym2612"
    },
    {
      "channel": 3,
      "note": 61,
      "start": 52.7131,
      "duration": 0.1791,
      "velocity": 82,
      "chip": "ym2612"
    },
    {
      "channel": 4,
      "note": 78,
      "start": 52.7134,
      "duration": 0.0796,
      "velocity": 118,
      "chip": "ym2612"
    },
    {
      "channel": 2,
      "note": 37,
      "start": 52.7927,
      "duration": 0.0992,
      "velocity": 1,
      "chip": "ym2612"
    },
    {
      "channel": 4,
      "note": 73,
      "start": 52.7932,
      "duration": 0.0993,
      "velocity": 118,
      "chip": "ym2612"
    },
    {
      "channel": 2,
      "note": 42,
      "start": 52.8921,
      "duration": 0.0995,
      "velocity": 1,
      "chip": "ym2612"
    },
    {
      "channel": 3,
      "note": 73,
      "start": 52.8924,
      "duration": 0.1984,
      "velocity": 82,
      "chip": "ym2612"
    },
    {
      "channel": 4,
      "note": 85,
      "start": 52.8927,
      "duration": 0.0993,
      "velocity": 118,
      "chip": "ym2612"
    },
    {
      "channel": 0,
      "note": 61,
      "start": 52.9902,
      "duration": 0.2978,
      "velocity": 109,
      "chip": "ym2612"
    },
    {
      "channel": 1,
      "note": 54,
      "start": 52.9905,
      "duration": 0.2978,
      "velocity": 109,
      "chip": "ym2612"
    },
    {
      "channel": 2,
      "note": 37,
      "start": 52.9918,
      "duration": 0.0987,
      "velocity": 1,
      "chip": "ym2612"
    },
    {
      "channel": 4,
      "note": 81,
      "start": 52.9922,
      "duration": 0.0989,
      "velocity": 118,
      "chip": "ym2612"
    },
    {
      "channel": 2,
      "note": 42,
      "start": 53.0907,
      "duration": 0.0982,
      "velocity": 108,
      "chip": "ym2612"
    },
    {
      "channel": 3,
      "note": 69,
      "start": 53.091,
      "duration": 0.1989,
      "velocity": 82,
      "chip": "ym2612"
    },
    {
      "channel": 4,
      "note": 78,
      "start": 53.0913,
      "duration": 0.098,
      "velocity": 118,
      "chip": "ym2612"
    },
    {
      "channel": 2,
      "note": 42,
      "start": 53.1891,
      "duration": 0.1005,
      "velocity": 1,
      "chip": "ym2612"
    },
    {
      "channel": 4,
      "note": 73,
      "start": 53.1895,
      "duration": 0.1007,
      "velocity": 118,
      "chip": "ym2612"
    },
    {
      "channel": 0,
      "note": 61,
      "start": 53.2882,
      "duration": 0.1785,
      "velocity": 109,
      "chip": "ym2612"
    },
    {
      "channel": 1,
      "note": 54,
      "start": 53.2885,
      "duration": 0.1785,
      "velocity": 109,
      "chip": "ym2612"
    },
    {
      "channel": 2,
      "note": 37,
      "start": 53.2898,
      "duration": 0.0987,
      "velocity": 1,
      "chip": "ym2612"
    },
    {
      "channel": 3,
      "note": 66,
      "start": 53.2901,
      "duration": 0.1776,
      "velocity": 82,
      "chip": "ym2612"
    },
    {
      "channel": 4,
      "note": 85,
      "start": 53.2904,
      "duration": 0.0985,
      "velocity": 118,
      "chip": "ym2612"
    },
    {
      "channel": 2,
      "note": 42,
      "start": 53.3886,
      "duration": 0.0788,
      "velocity": 108,
      "chip": "ym2612"
    },
    {
      "channel": 4,
      "note": 81,
      "start": 53.389,
      "duration": 0.079,
      "velocity": 118,
      "chip": "ym2612"
    },
    {
      "channel": 0,
      "note": 61,
      "start": 53.467,
      "duration": 0.1985,
      "velocity": 109,
      "chip": "ym2612"
    },
    {
      "channel": 1,
      "note": 54,
      "start": 53.4673,
      "duration": 0.1985,
      "velocity": 109,
      "chip": "ym2612"
    },
    {
      "channel": 2,
      "note": 42,
      "start": 53.4676,
      "duration": 0.0996,
      "velocity": 1,
      "chip": "ym2612"
    },
    {
      "channel": 3,
      "note": 61,
      "start": 53.4679,
      "duration": 0.1994,
      "velocity": 82,
      "chip": "ym2612"
    },
    {
      "channel": 4,
      "note": 78,
      "start": 53.4682,
      "duration": 0.0994,
      "velocity": 118,
      "chip": "ym2612"
    },
    {
      "channel": 2,
      "note": 37,
      "start": 53.5674,
      "duration": 0.0996,
      "velocity": 1,
      "chip": "ym2612"
    },
    {
      "channel": 4,
      "note": 73,
      "start": 53.5678,
      "duration": 0.0998,
      "velocity": 118,
      "chip": "ym2612"
    },
    {
      "channel": 0,
      "note": 61,
      "start": 53.6656,
      "duration": 0.2977,
      "velocity": 109,
      "chip": "ym2612"
    },
    {
      "channel": 1,
      "note": 56,
      "start": 53.6659,
      "duration": 0.2977,
      "velocity": 109,
      "chip": "ym2612"
    },
    {
      "channel": 2,
      "note": 37,
      "start": 53.6672,
      "duration": 0.0977,
      "velocity": 108,
      "chip": "ym2612"
    },
    {
      "channel": 3,
      "note": 68,
      "start": 53.6675,
      "duration": 0.197,
      "velocity": 82,
      "chip": "ym2612"
    },
    {
      "channel": 4,
      "note": 80,
      "start": 53.6678,
      "duration": 0.0976,
      "velocity": 118,
      "chip": "ym2612"
    },
    {
      "channel": 2,
      "note": 37,
      "start": 53.7651,
      "duration": 0.0991,
      "velocity": 108,
      "chip": "ym2612"
    },
    {
      "channel": 4,
      "note": 76,
      "start": 53.7655,
      "duration": 0.0994,
      "velocity": 118,
      "chip": "ym2612"
    },
    {
      "channel": 2,
      "note": 37,
      "start": 53.8644,
      "duration": 0.0996,
      "velocity": 108,
      "chip": "ym2612"
    },
    {
      "channel": 3,
      "note": 64,
      "start": 53.8647,
      "duration": 0.1993,
      "velocity": 82,
      "chip": "ym2612"
    },
    {
      "channel": 4,
      "note": 73,
      "start": 53.8651,
      "duration": 0.0993,
      "velocity": 118,
      "chip": "ym2612"
    },
    {
      "channel": 0,
      "note": 61,
      "start": 53.9635,
      "duration": 0.2779,
      "velocity": 109,
      "chip": "ym2612"
    },
    {
      "channel": 1,
      "note": 56,
      "start": 53.9638,
      "duration": 0.2779,
      "velocity": 109,
      "chip": "ym2612"
    },
    {
      "channel": 2,
      "note": 37,
      "start": 53.9641,
      "duration": 0.0996,
      "velocity": 1,
      "chip": "ym2612"
    },
    {
      "channel": 4,
      "note": 68,
      "start": 53.9646,
      "duration": 0.0998,
      "velocity": 118,
      "chip": "ym2612"
    },
    {
      "channel": 2,
      "note": 37,
      "start": 54.064,
      "duration": 0.0794,
      "velocity": 1,
      "chip": "ym2612"
    },
    {
      "channel": 3,
      "note": 61,
      "start": 54.0643,
      "duration": 0.1781,
      "velocity": 82,
      "chip": "ym2612"
    },
    {
      "channel": 4,
      "note": 80,
      "start": 54.0646,
      "duration": 0.0792,
      "velocity": 118,
      "chip": "ym2612"
    },
    {
      "channel": 2,
      "note": 37,
      "start": 54.1435,
      "duration": 0.0985,
      "velocity": 108,
      "chip": "ym2612"
    },
    {
      "channel": 4,
      "note": 76,
      "start": 54.144,
      "duration": 0.0987,
      "velocity": 118,
      "chip": "ym2612"
    },
    {
      "channel": 0,
      "note": 61,
      "start": 54.2416,
      "duration": 0.3971,
      "velocity": 109,
      "chip": "ym2612"
    },
    {
      "channel": 1,
      "note": 56,
      "start": 54.242,
      "duration": 0.3971,
      "velocity": 109,
      "chip": "ym2612"
    },
    {
      "channel": 2,
      "note": 37,
      "start": 54.2423,
      "duration": 0.0996,
      "velocity": 1,
      "chip": "ym2612"
    },
    {
      "channel": 3,
      "note": 56,
      "start": 54.2426,
      "duration": 0.1989,
      "velocity": 82,
      "chip": "ym2612"
    },
    {
      "channel": 4,
      "note": 73,
      "start": 54.2429,
      "duration": 0.0994,
      "velocity": 118,
      "chip": "ym2612"
    },
    {
      "channel": 2,
      "note": 37,
      "start": 54.3421,
      "duration": 0.0991,
      "velocity": 1,
      "chip": "ym2612"
    },
    {
      "channel": 4,
      "note": 68,
      "start": 54.3425,
      "duration": 0.0994,
      "velocity": 118,
      "chip": "ym2612"
    },
    {
      "channel": 2,
      "note": 37,
      "start": 54.4414,
      "duration": 0.0991,
      "velocity": 1,
      "chip": "ym2612"
    },
    {
      "channel": 3,
      "note": 68,
      "start": 54.4417,
      "duration": 0.1989,
      "velocity": 82,
      "chip": "ym2612"
    },
    {
      "channel": 4,
      "note": 80,
      "start": 54.442,
      "duration": 0.0989,
      "velocity": 118,
      "chip": "ym2612"
    },
    {
      "channel": 2,
      "note": 37,
      "start": 54.5407,
      "duration": 0.0996,
      "velocity": 1,
      "chip": "ym2612"
    },
    {
      "channel": 4,
      "note": 76,
      "start": 54.5411,
      "duration": 0.0998,
      "velocity": 118,
      "chip": "ym2612"
    },
    {
      "channel": 0,
      "note": 61,
      "start": 54.6389,
      "duration": 0.1785,
      "velocity": 109,
      "chip": "ym2612"
    },
    {
      "channel": 1,
      "note": 56,
      "start": 54.6392,
      "duration": 0.1785,
      "velocity": 109,
      "chip": "ym2612"
    },
    {
      "channel": 2,
      "note": 37,
      "start": 54.6405,
      "duration": 0.0977,
      "velocity": 108,
      "chip": "ym2612"
    },
    {
      "channel": 3,
      "note": 64,
      "start": 54.6408,
      "duration": 0.1785,
      "velocity": 82,
      "chip": "ym2612"
    },
    {
      "channel": 4,
      "note": 73,
      "start": 54.6411,
      "duration": 0.0976,
      "velocity": 118,
      "chip": "ym2612"
    },
    {
      "channel": 2,
      "note": 37,
      "start": 54.7384,
      "duration": 0.0807,
      "velocity": 1,
      "chip": "ym2612"
    },
    {
      "channel": 4,
      "note": 68,
      "start": 54.7388,
      "duration": 0.0808,
      "velocity": 118,
      "chip": "ym2612"
    },
    {
      "channel": 0,
      "note": 61,
      "start": 54.8177,
      "duration": 0.3971,
      "velocity": 109,
      "chip": "ym2612"
    },
    {
      "channel": 1,
      "note": 56,
      "start": 54.818,
      "duration": 0.3971,
      "velocity": 109,
      "chip": "ym2612"
    },
    {
      "channel": 2,
      "note": 37,
      "start": 54.8193,
      "duration": 0.0987,
      "velocity": 1,
      "chip": "ym2612"
    },
    {
      "channel": 3,
      "note": 61,
      "start": 54.8196,
      "duration": 0.197,
      "velocity": 82,
      "chip": "ym2612"
    },
    {
      "channel": 4,
      "note": 80,
      "start": 54.8199,
      "duration": 0.0985,
      "velocity": 118,
      "chip": "ym2612"
    },
    {
      "channel": 2,
      "note": 37,
      "start": 54.9181,
      "duration": 0.0982,
      "velocity": 108,
      "chip": "ym2612"
    },
    {
      "channel": 4,
      "note": 76,
      "start": 54.9185,
      "duration": 0.0983,
      "velocity": 118,
      "chip": "ym2612"
    },
    {
      "channel": 2,
      "note": 37,
      "start": 55.0165,
      "duration": 0.0991,
      "velocity": 108,
      "chip": "ym2612"
    },
    {
      "channel": 3,
      "note": 56,
      "start": 55.0168,
      "duration": 0.1989,
      "velocity": 82,
      "chip": "ym2612"
    },
    {
      "channel": 4,
      "note": 73,
      "start": 55.0171,
      "duration": 0.0989,
      "velocity": 118,
      "chip": "ym2612"
    },
    {
      "channel": 2,
      "note": 37,
      "start": 55.1158,
      "duration": 0.0996,
      "velocity": 108,
      "chip": "ym2612"
    },
    {
      "channel": 4,
      "note": 68,
      "start": 55.1162,
      "duration": 0.0998,
      "velocity": 118,
      "chip": "ym2612"
    },
    {
      "channel": 0,
      "note": 61,
      "start": 55.2149,
      "duration": 0.2779,
      "velocity": 109,
      "chip": "ym2612"
    },
    {
      "channel": 1,
      "note": 56,
      "start": 55.2152,
      "duration": 0.2779,
      "velocity": 109,
      "chip": "ym2612"
    },
    {
      "channel": 2,
      "note": 37,
      "start": 55.2156,
      "duration": 0.0987,
      "velocity": 108,
      "chip": "ym2612"
    },
    {
      "channel": 3,
      "note": 68,
      "start": 55.2159,
      "duration": 0.198,
      "velocity": 82,
      "chip": "ym2612"
    },
    {
      "channel": 4,
      "note": 80,
      "start": 55.2162,
      "duration": 0.0985,
      "velocity": 118,
      "chip": "ym2612"
    },
    {
      "channel": 2,
      "note": 37,
      "start": 55.3144,
      "duration": 0.0992,
      "velocity": 108,
      "chip": "ym2612"
    },
    {
      "channel": 4,
      "note": 76,
      "start": 55.3149,
      "duration": 0.0993,
      "velocity": 118,
      "chip": "ym2612"
    },
    {
      "channel": 2,
      "note": 37,
      "start": 55.4138,
      "duration": 0.0798,
      "velocity": 108,
      "chip": "ym2612"
    },
    {
      "channel": 3,
      "note": 64,
      "start": 55.414,
      "duration": 0.1796,
      "velocity": 82,
      "chip": "ym2612"
    },
    {
      "channel": 4,
      "note": 73,
      "start": 55.4144,
      "duration": 0.0796,
      "velocity": 118,
      "chip": "ym2612"
    },
    {
      "channel": 0,
      "note": 61,
      "start": 55.493,
      "duration": 0.2978,
      "velocity": 109,
      "chip": "ym2612"
    },
    {
      "channel": 1,
      "note": 56,
      "start": 55.4934,
      "duration": 0.2976,
      "velocity": 109,
      "chip": "ym2612"
    },
    {
      "channel": 2,
      "note": 37,
      "start": 55.4937,
      "duration": 0.0996,
      "velocity": 1,
      "chip": "ym2612"
    },
    {
      "channel": 4,
      "note": 68,
      "start": 55.4942,
      "duration": 0.0998,
      "velocity": 118,
      "chip": "ym2612"
    },
    {
      "channel": 2,
      "note": 37,
      "start": 55.5935,
      "duration": 0.099,
      "velocity": 1,
      "chip": "ym2612"
    },
    {
      "channel": 3,
      "note": 61,
      "start": 55.5939,
      "duration": 0.1978,
      "velocity": 82,
      "chip": "ym2612"
    },
    {
      "channel": 4,
      "note": 80,
      "start": 55.5942,
      "duration": 0.0988,
      "velocity": 118,
      "chip": "ym2612"
    },
    {
      "channel": 2,
      "note": 37,
      "start": 55.6928,
      "duration": 0.0986,
      "velocity": 108,
      "chip": "ym2612"
    },
    {
      "channel": 4,
      "note": 76,
      "start": 55.6932,
      "duration": 0.0988,
      "velocity": 118,
      "chip": "ym2612"
    },
    {
      "channel": 0,
      "note": 61,
      "start": 55.7909,
      "duration": 0.2978,
      "velocity": 109,
      "chip": "ym2612"
    },
    {
      "channel": 1,
      "note": 56,
      "start": 55.7912,
      "duration": 0.2978,
      "velocity": 109,
      "chip": "ym2612"
    },
    {
      "channel": 2,
      "note": 37,
      "start": 55.7916,
      "duration": 0.0996,
      "velocity": 1,
      "chip": "ym2612"
    },
    {
      "channel": 3,
      "note": 56,
      "start": 55.7919,
      "duration": 0.1989,
      "velocity": 82,
      "chip": "ym2612"
    },
    {
      "channel": 4,
      "note": 73,
      "start": 55.7922,
      "duration": 0.0994,
      "velocity": 118,
      "chip": "ym2612"
    },
    {
      "channel": 2,
      "note": 37,
      "start": 55.8914,
      "duration": 0.0991,
      "velocity": 1,
      "chip": "ym2612"
    },
    {
      "channel": 4,
      "note": 68,
      "start": 55.8918,
      "duration": 0.0993,
      "velocity": 118,
      "chip": "ym2612"
    },
    {
      "channel": 2,
      "note": 37,
      "start": 55.9907,
      "duration": 0.0995,
      "velocity": 1,
      "chip": "ym2612"
    },
    {
      "channel": 3,
      "note": 68,
      "start": 55.991,
      "duration": 0.1985,
      "velocity": 82,
      "chip": "ym2612"
    },
    {
      "channel": 4,
      "note": 80,
      "start": 55.9913,
      "duration": 0.0994,
      "velocity": 118,
      "chip": "ym2612"
    },
    {
      "channel": 0,
      "note": 61,
      "start": 56.0889,
      "duration": 0.2778,
      "velocity": 109,
      "chip": "ym2612"
    },
    {
      "channel": 1,
      "note": 56,
      "start": 56.0892,
      "duration": 0.2778,
      "velocity": 109,
      "chip": "ym2612"
    },
    {
      "channel": 2,
      "note": 37,
      "start": 56.0904,
      "duration": 0.0987,
      "velocity": 1,
      "chip": "ym2612"
    },
    {
      "channel": 4,
      "note": 76,
      "start": 56.0909,
      "duration": 0.0989,
      "velocity": 118,
      "chip": "ym2612"
    },
    {
      "channel": 2,
      "note": 37,
      "start": 56.1893,
      "duration": 0.0783,
      "velocity": 108,
      "chip": "ym2612"
    },
    {
      "channel": 3,
      "note": 64,
      "start": 56.1897,
      "duration": 0.179,
      "velocity": 82,
      "chip": "ym2612"
    },
    {
      "channel": 4,
      "note": 73,
      "start": 56.19,
      "duration": 0.0781,
      "velocity": 118,
      "chip": "ym2612"
    },
    {
      "channel": 2,
      "note": 37,
      "start": 56.2678,
      "duration": 0.1005,
      "velocity": 1,
      "chip": "ym2612"
    },
    {
      "channel": 4,
      "note": 68,
      "start": 56.2683,
      "duration": 0.1007,
      "velocity": 118,
      "chip": "ym2612"
    },
    {
      "channel": 0,
      "note": 61,
      "start": 56.367,
      "duration": 0.1984,
      "velocity": 109,
      "chip": "ym2612"
    },
    {
      "channel": 1,
      "note": 56,
      "start": 56.3673,
      "duration": 0.1984,
      "velocity": 109,
      "chip": "ym2612"
    },
    {
      "channel": 2,
      "note": 37,
      "start": 56.3685,
      "duration": 0.0987,
      "velocity": 1,
      "chip": "ym2612"
    },
    {
      "channel": 3,
      "note": 61,
      "start": 56.3689,
      "duration": 0.1984,
      "velocity": 82,
      "chip": "ym2612"
    },
    {
      "channel": 4,
      "note": 80,
      "start": 56.3692,
      "duration": 0.0985,
      "velocity": 118,
      "chip": "ym2612"
    },
    {
      "channel": 2,
      "note": 37,
      "start": 56.4674,
      "duration": 0.0996,
      "velocity": 1,
      "chip": "ym2612"
    },
    {
      "channel": 4,
      "note": 76,
      "start": 56.4678,
      "duration": 0.0998,
      "velocity": 118,
      "chip": "ym2612"
    },
    {
      "channel": 0,
      "note": 61,
      "start": 56.5656,
      "duration": 0.1985,
      "velocity": 109,
      "chip": "ym2612"
    },
    {
      "channel": 1,
      "note": 56,
      "start": 56.5659,
      "duration": 0.1985,
      "velocity": 109,
      "chip": "ym2612"
    },
    {
      "channel": 2,
      "note": 37,
      "start": 56.5671,
      "duration": 0.0978,
      "velocity": 127,
      "chip": "ym2612"
    },
    {
      "channel": 3,
      "note": 56,
      "start": 56.5675,
      "duration": 0.1985,
      "velocity": 82,
      "chip": "ym2612"
    },
    {
      "channel": 4,
      "note": 73,
      "start": 56.5678,
      "duration": 0.0976,
      "velocity": 118,
      "chip": "ym2612"
    },
    {
      "channel": 2,
      "note": 37,
      "start": 56.6651,
      "duration": 0.1005,
      "velocity": 1,
      "chip": "ym2612"
    },
    {
      "channel": 4,
      "note": 68,
      "start": 56.6656,
      "duration": 0.1007,
      "velocity": 118,
      "chip": "ym2612"
    },
    {
      "channel": 0,
      "note": 59,
      "start": 56.7642,
      "duration": 0.2779,
      "velocity": 109,
      "chip": "ym2612"
    },
    {
      "channel": 1,
      "note": 54,
      "start": 56.7645,
      "duration": 0.2779,
      "velocity": 109,
      "chip": "ym2612"
    },
    {
      "channel": 2,
      "note": 35,
      "start": 56.7658,
      "duration": 0.0978,
      "velocity": 108,
      "chip": "ym2612"
    },
    {
      "channel": 3,
      "note": 66,
      "start": 56.7661,
      "duration": 0.1773,
      "velocity": 82,
      "chip": "ym2612"
    },
    {
      "channel": 4,
      "note": 78,
      "start": 56.7664,
      "duration": 0.0975,
      "velocity": 118,
      "chip": "ym2612"
    },
    {
      "channel": 2,
      "note": 35,
      "start": 56.8638,
      "duration": 0.0793,
      "velocity": 108,
      "chip": "ym2612"
    },
    {
      "channel": 4,
      "note": 74,
      "start": 56.8641,
      "duration": 0.0796,
      "velocity": 118,
      "chip": "ym2612"
    },
    {
      "channel": 2,
      "note": 35,
      "start": 56.9432,
      "duration": 0.0995,
      "velocity": 108,
      "chip": "ym2612"
    },
    {
      "channel": 3,
      "note": 62,
      "start": 56.9436,
      "duration": 0.1993,
      "velocity": 82,
      "chip": "ym2612"
    },
    {
      "channel": 4,
      "note": 71,
      "start": 56.9439,
      "duration": 0.0993,
      "velocity": 118,
      "chip": "ym2612"
    },
    {
      "channel": 0,
      "note": 59,
      "start": 57.0423,
      "duration": 0.2978,
      "velocity": 109,
      "chip": "ym2612"
    },
    {
      "channel": 1,
      "note": 54,
      "start": 57.0426,
      "duration": 0.2978,
      "velocity": 109,
      "chip": "ym2612"
    },
    {
      "channel": 2,
      "note": 35,
      "start": 57.0429,
      "duration": 0.0997,
      "velocity": 1,
      "chip": "ym2612"
    },
    {
      "channel": 4,
      "note": 66,
      "start": 57.0435,
      "duration": 0.0997,
      "velocity": 118,
      "chip": "ym2612"
    },
    {
      "channel": 2,
      "note": 37,
      "start": 57.1428,
      "duration": 0.0991,
      "velocity": 1,
      "chip": "ym2612"
    },
    {
      "channel": 3,
      "note": 59,
      "start": 57.1431,
      "duration": 0.198,
      "velocity": 82,
      "chip": "ym2612"
    },
    {
      "channel": 4,
      "note": 78,
      "start": 57.1435,
      "duration": 0.0987,
      "velocity": 118,
      "chip": "ym2612"
    },
    {
      "channel": 2,
      "note": 35,
      "start": 57.2421,
      "duration": 0.0987,
      "velocity": 108,
      "chip": "ym2612"
    },
    {
      "channel": 4,
      "note": 74,
      "start": 57.2425,
      "duration": 0.0989,
      "velocity": 118,
      "chip": "ym2612"
    },
    {
      "channel": 0,
      "note": 59,
      "start": 57.3402,
      "duration": 0.3772,
      "velocity": 109,
      "chip": "ym2612"
    },
    {
      "channel": 1,
      "note": 54,
      "start": 57.3406,
      "duration": 0.3772,
      "velocity": 109,
      "chip": "ym2612"
    },
    {
      "channel": 2,
      "note": 35,
      "start": 57.3409,
      "duration": 0.0996,
      "velocity": 1,
      "chip": "ym2612"
    },
    {
      "channel": 3,
      "note": 54,
      "start": 57.3412,
      "duration": 0.1989,
      "velocity": 82,
      "chip": "ym2612"
    },
    {
      "channel": 4,
      "note": 71,
      "start": 57.3416,
      "duration": 0.0994,
      "velocity": 118,
      "chip": "ym2612"
    },
    {
      "channel": 2,
      "note": 37,
      "start": 57.4407,
      "duration": 0.0991,
      "velocity": 1,
      "chip": "ym2612"
    },
    {
      "channel": 4,
      "note": 66,
      "start": 57.4411,
      "duration": 0.0993,
      "velocity": 118,
      "chip": "ym2612"
    },
    {
      "channel": 2,
      "note": 35,
      "start": 57.54,
      "duration": 0.0793,
      "velocity": 1,
      "chip": "ym2612"
    },
    {
      "channel": 3,
      "note": 66,
      "start": 57.5403,
      "duration": 0.1791,
      "velocity": 82,
      "chip": "ym2612"
    },
    {
      "channel": 4,
      "note": 78,
      "start": 57.5406,
      "duration": 0.0791,
      "velocity": 118,
      "chip": "ym2612"
    },
    {
      "channel": 2,
      "note": 37,
      "start": 57.6194,
      "duration": 0.0996,
      "velocity": 1,
      "chip": "ym2612"
    },
    {
      "channel": 4,
      "note": 74,
      "start": 57.6199,
      "duration": 0.0998,
      "velocity": 118,
      "chip": "ym2612"
    },
    {
      "channel": 0,
      "note": 59,
      "start": 57.7177,
      "duration": 0.1984,
      "velocity": 109,
      "chip": "ym2612"
    },
    {
      "channel": 1,
      "note": 54,
      "start": 57.718,
      "duration": 0.1985,
      "velocity": 109,
      "chip": "ym2612"
    },
    {
      "channel": 2,
      "note": 35,
      "start": 57.7193,
      "duration": 0.0977,
      "velocity": 108,
      "chip": "ym2612"
    },
    {
      "channel": 3,
      "note": 62,
      "start": 57.7196,
      "duration": 0.1984,
      "velocity": 82,
      "chip": "ym2612"
    },
    {
      "channel": 4,
      "note": 71,
      "start": 57.7199,
      "duration": 0.0975,
      "velocity": 118,
      "chip": "ym2612"
    },
    {
      "channel": 2,
      "note": 35,
      "start": 57.8171,
      "duration": 0.1005,
      "velocity": 1,
      "chip": "ym2612"
    },
    {
      "channel": 4,
      "note": 66,
      "start": 57.8176,
      "duration": 0.1007,
      "velocity": 118,
      "chip": "ym2612"
    },
    {
      "channel": 0,
      "note": 59,
      "start": 57.9163,
      "duration": 0.3773,
      "velocity": 109,
      "chip": "ym2612"
    },
    {
      "channel": 1,
      "note": 54,
      "start": 57.9166,
      "duration": 0.3773,
      "velocity": 109,
      "chip": "ym2612"
    },
    {
      "channel": 2,
      "note": 37,
      "start": 57.9178,
      "duration": 0.0987,
      "velocity": 1,
      "chip": "ym2612"
    },
    {
      "channel": 3,
      "note": 59,
      "start": 57.9182,
      "duration": 0.1971,
      "velocity": 82,
      "chip": "ym2612"
    },
    {
      "channel": 4,
      "note": 78,
      "start": 57.9185,
      "duration": 0.0985,
      "velocity": 118,
      "chip": "ym2612"
    },
    {
      "channel": 2,
      "note": 35,
      "start": 58.0167,
      "duration": 0.0982,
      "velocity": 108,
      "chip": "ym2612"
    },
    {
      "channel": 4,
      "note": 74,
      "start": 58.0171,
      "duration": 0.0984,
      "velocity": 118,
      "chip": "ym2612"
    },
    {
      "channel": 2,
      "note": 35,
      "start": 58.1151,
      "duration": 0.0991,
      "velocity": 108,
      "chip": "ym2612"
    },
    {
      "channel": 3,
      "note": 54,
      "start": 58.1154,
      "duration": 0.1791,
      "velocity": 82,
      "chip": "ym2612"
    },
    {
      "channel": 4,
      "note": 71,
      "start": 58.1157,
      "duration": 0.0989,
      "velocity": 118,
      "chip": "ym2612"
    },
    {
      "channel": 2,
      "note": 35,
      "start": 58.2144,
      "duration": 0.0798,
      "velocity": 108,
      "chip": "ym2612"
    },
    {
      "channel": 4,
      "note": 66,
      "start": 58.2149,
      "duration": 0.08,
      "velocity": 118,
      "chip": "ym2612"
    },
    {
      "channel": 0,
      "note": 59,
      "start": 58.2938,
      "duration": 0.2976,
      "velocity": 109,
      "chip": "ym2612"
    },
    {
      "channel": 1,
      "note": 54,
      "start": 58.2941,
      "duration": 0.2976,
      "velocity": 109,
      "chip": "ym2612"
    },
    {
      "channel": 2,
      "note": 35,
      "start": 58.2944,
      "duration": 0.0986,
      "velocity": 108,
      "chip": "ym2612"
    },
    {
      "channel": 3,
      "note": 66,
      "start": 58.2948,
      "duration": 0.1978,
      "velocity": 82,
      "chip": "ym2612"
    },
    {
      "channel": 4,
      "note": 78,
      "start": 58.2951,
      "duration": 0.0985,
      "velocity": 118,
      "chip": "ym2612"
    },
    {
      "channel": 2,
      "note": 35,
      "start": 58.3932,
      "duration": 0.0991,
      "velocity": 108,
      "chip": "ym2612"
    },
    {
      "channel": 4,
      "note": 74,
      "start": 58.3937,
      "duration": 0.0992,
      "velocity": 118,
      "chip": "ym2612"
    },
    {
      "channel": 2,
      "note": 35,
      "start": 58.4925,
      "duration": 0.0995,
      "velocity": 108,
      "chip": "ym2612"
    },
    {
      "channel": 3,
      "note": 62,
      "start": 58.4928,
      "duration": 0.1994,
      "velocity": 82,
      "chip": "ym2612"
    },
    {
      "channel": 4,
      "note": 71,
      "start": 58.4931,
      "duration": 0.0994,
      "velocity": 118,
      "chip": "ym2612"
    },
    {
      "channel": 0,
      "note": 59,
      "start": 58.5916,
      "duration": 0.2978,
      "velocity": 109,
      "chip": "ym2612"
    },
    {
      "channel": 1,
      "note": 54,
      "start": 58.5919,
      "duration": 0.2978,
      "velocity": 109,
      "chip": "ym2612"
    },
    {
      "channel": 2,
      "note": 35,
      "start": 58.5922,
      "duration": 0.0997,
      "velocity": 1,
      "chip": "ym2612"
    },
    {
      "channel": 4,
      "note": 66,
      "start": 58.5927,
      "duration": 0.0999,
      "velocity": 118,
      "chip": "ym2612"
    },
    {
      "channel": 2,
      "note": 37,
      "start": 58.6921,
      "duration": 0.0991,
      "velocity": 1,
      "chip": "ym2612"
    },
    {
      "channel": 3,
      "note": 59,
      "start": 58.6924,
      "duration": 0.1979,
      "velocity": 82,
      "chip": "ym2612"
    },
    {
      "channel": 4,
      "note": 78,
      "start": 58.6927,
      "duration": 0.0989,
      "velocity": 118,
      "chip": "ym2612"
    },
    {
      "channel": 2,
      "note": 35,
      "start": 58.7914,
      "duration": 0.0986,
      "velocity": 108,
      "chip": "ym2612"
    },
    {
      "channel": 4,
      "note": 74,
      "start": 58.7918,
      "duration": 0.0988,
      "velocity": 118,
      "chip": "ym2612"
    },
    {
      "channel": 0,
      "note": 59,
      "start": 58.8895,
      "duration": 0.2779,
      "velocity": 109,
      "chip": "ym2612"
    },
    {
      "channel": 1,
      "note": 54,
      "start": 58.8899,
      "duration": 0.2779,
      "velocity": 109,
      "chip": "ym2612"
    },
    {
      "channel": 2,
      "note": 35,
      "start": 58.8902,
      "duration": 0.0798,
      "velocity": 1,
      "chip": "ym2612"
    },
    {
      "channel": 3,
      "note": 54,
      "start": 58.8905,
      "duration": 0.1791,
      "velocity": 82,
      "chip": "ym2612"
    },
    {
      "channel": 4,
      "note": 71,
      "start": 58.8908,
      "duration": 0.0796,
      "velocity": 118,
      "chip": "ym2612"
    },
    {
      "channel": 2,
      "note": 37,
      "start": 58.9701,
      "duration": 0.0991,
      "velocity": 1,
      "chip": "ym2612"
    },
    {
      "channel": 4,
      "note": 66,
      "start": 58.9706,
      "duration": 0.0993,
      "velocity": 118,
      "chip": "ym2612"
    },
    {
      "channel": 2,
      "note": 35,
      "start": 59.0694,
      "duration": 0.0995,
      "velocity": 1,
      "chip": "ym2612"
    },
    {
      "channel": 3,
      "note": 66,
      "start": 59.0698,
      "duration": 0.1985,
      "velocity": 82,
      "chip": "ym2612"
    },
    {
      "channel": 4,
      "note": 78,
      "start": 59.0701,
      "duration": 0.0994,
      "velocity": 118,
      "chip": "ym2612"
    },
    {
      "channel": 0,
      "note": 59,
      "start": 59.1677,
      "duration": 0.2978,
      "velocity": 109,
      "chip": "ym2612"
    },
    {
      "channel": 1,
      "note": 54,
      "start": 59.168,
      "duration": 0.2978,
      "velocity": 109,
      "chip": "ym2612"
    },
    {
      "channel": 2,
      "note": 37,
      "start": 59.1692,
      "duration": 0.0987,
      "velocity": 1,
      "chip": "ym2612"
    },
    {
      "channel": 4,
      "note": 74,
      "start": 59.1696,
      "duration": 0.0989,
      "velocity": 118,
      "chip": "ym2612"
    },
    {
      "channel": 2,
      "note": 35,
      "start": 59.2681,
      "duration": 0.0982,
      "velocity": 108,
      "chip": "ym2612"
    },
    {
      "channel": 3,
      "note": 62,
      "start": 59.2684,
      "duration": 0.1989,
      "velocity": 82,
      "chip": "ym2612"
    },
    {
      "channel": 4,
      "note": 71,
      "start": 59.2687,
      "duration": 0.098,
      "velocity": 118,
      "chip": "ym2612"
    },
    {
      "channel": 2,
      "note": 35,
      "start": 59.3665,
      "duration": 0.1005,
      "velocity": 1,
      "chip": "ym2612"
    },
    {
      "channel": 4,
      "note": 66,
      "start": 59.3669,
      "duration": 0.1007,
      "velocity": 118,
      "chip": "ym2612"
    },
    {
      "channel": 0,
      "note": 59,
      "start": 59.4656,
      "duration": 0.1984,
      "velocity": 109,
      "chip": "ym2612"
    },
    {
      "channel": 1,
      "note": 54,
      "start": 59.4659,
      "duration": 0.1984,
      "velocity": 109,
      "chip": "ym2612"
    },
    {
      "channel": 2,
      "note": 37,
      "start": 59.4672,
      "duration": 0.0987,
      "velocity": 1,
      "chip": "ym2612"
    },
    {
      "channel": 3,
      "note": 59,
      "start": 59.4675,
      "duration": 0.1975,
      "velocity": 82,
      "chip": "ym2612"
    },
    {
      "channel": 4,
      "note": 78,
      "start": 59.4678,
      "duration": 0.0985,
      "velocity": 118,
      "chip": "ym2612"
    },
    {
      "channel": 2,
      "note": 35,
      "start": 59.5661,
      "duration": 0.0986,
      "velocity": 108,
      "chip": "ym2612"
    },
    {
      "channel": 4,
      "note": 74,
      "start": 59.5664,
      "duration": 0.0989,
      "velocity": 118,
      "chip": "ym2612"
    },
    {
      "channel": 0,
      "note": 59,
      "start": 59.6642,
      "duration": 0.1786,
      "velocity": 109,
      "chip": "ym2612"
    },
    {
      "channel": 1,
      "note": 54,
      "start": 59.6645,
      "duration": 0.1786,
      "velocity": 109,
      "chip": "ym2612"
    },
    {
      "channel": 2,
      "note": 35,
      "start": 59.6649,
      "duration": 0.0798,
      "velocity": 1,
      "chip": "ym2612"
    },
    {
      "channel": 3,
      "note": 54,
      "start": 59.6652,
      "duration": 0.1796,
      "velocity": 82,
      "chip": "ym2612"
    },
    {
      "channel": 4,
      "note": 71,
      "start": 59.6655,
      "duration": 0.0796,
      "velocity": 118,
      "chip": "ym2612"
    },
    {
      "channel": 2,
      "note": 37,
      "start": 59.7449,
      "duration": 0.0996,
      "velocity": 1,
      "chip": "ym2612"
    },
    {
      "channel": 4,
      "note": 66,
      "start": 59.7453,
      "duration": 0.0998,
      "velocity": 118,
      "chip": "ym2612"
    },
    {
      "channel": 0,
      "note": 61,
      "start": 59.843,
      "duration": 0.2977,
      "velocity": 109,
      "chip": "ym2612"
    },
    {
      "channel": 1,
      "note": 56,
      "start": 59.8435,
      "duration": 0.2976,
      "velocity": 109,
      "chip": "ym2612"
    },
    {
      "channel": 2,
      "note": 37,
      "start": 59.8447,
      "duration": 0.0976,
      "velocity": 108,
      "chip": "ym2612"
    },
    {
      "channel": 3,
      "note": 68,
      "start": 59.845,
      "duration": 0.1969,
      "velocity": 82,
      "chip": "ym2612"
    },
    {
      "channel": 4,
      "note": 80,
      "start": 59.8453,
      "duration": 0.0974,
      "velocity": 118,
      "chip": "ym2612"
    },
    {
      "channel": 2,
      "note": 37,
      "start": 59.9425,
      "duration": 0.0991,
      "velocity": 108,
      "chip": "ym2612"
    },
    {
      "channel": 4,
      "note": 76,
      "start": 59.9429,
      "duration": 0.0994,
      "velocity": 118,
      "chip": "ym2612"
    },
    {
      "channel": 2,
      "note": 37,
      "start": 60.0418,
      "duration": 0.0995,
      "velocity": 108,
      "chip": "ym2612"
    },
    {
      "channel": 3,
      "note": 64,
      "start": 60.0422,
      "duration": 0.1994,
      "velocity": 82,
      "chip": "ym2612"
    },
    {
      "channel": 4,
      "note": 73,
      "start": 60.0425,
      "duration": 0.0993,
      "velocity": 118,
      "chip": "ym2612"
    },
    {
      "channel": 0,
      "note": 61,
      "start": 60.1409,
      "duration": 0.2779,
      "velocity": 109,
      "chip": "ym2612"
    },
    {
      "channel": 1,
      "note": 56,
      "start": 60.1412,
      "duration": 0.2779,
      "velocity": 109,
      "chip": "ym2612"
    },
    {
      "channel": 2,
      "note": 37,
      "start": 60.1416,
      "duration": 0.0996,
      "velocity": 1,
      "chip": "ym2612"
    },
    {
      "channel": 4,
      "note": 68,
      "start": 60.142,
      "duration": 0.0999,
      "velocity": 118,
      "chip": "ym2612"
    },
    {
      "channel": 2,
      "note": 37,
      "start": 60.2414,
      "duration": 0.0991,
      "velocity": 1,
      "chip": "ym2612"
    },
    {
      "channel": 3,
      "note": 61,
      "start": 60.2417,
      "duration": 0.1781,
      "velocity": 82,
      "chip": "ym2612"
    },
    {
      "channel": 4,
      "note": 80,
      "start": 60.242,
      "duration": 0.0989,
      "velocity": 118,
      "chip": "ym2612"
    },
    {
      "channel": 2,
      "note": 37,
      "start": 60.3407,
      "duration": 0.0788,
      "velocity": 108,
      "chip": "ym2612"
    },
    {
      "channel": 4,
      "note": 76,
      "start": 60.3411,
      "duration": 0.079,
      "velocity": 118,
      "chip": "ym2612"
    },
    {
      "channel": 0,
      "note": 61,
      "start": 60.419,
      "duration": 0.3971,
      "velocity": 109,
      "chip": "ym2612"
    },
    {
      "channel": 1,
      "note": 56,
      "start": 60.4194,
      "duration": 0.3971,
      "velocity": 109,
      "chip": "ym2612"
    },
    {
      "channel": 2,
      "note": 37,
      "start": 60.4197,
      "duration": 0.0996,
      "velocity": 1,
      "chip": "ym2612"
    },
    {
      "channel": 3,
      "note": 56,
      "start": 60.42,
      "duration": 0.1989,
      "velocity": 82,
      "chip": "ym2612"
    },
    {
      "channel": 4,
      "note": 73,
      "start": 60.4203,
      "duration": 0.0994,
      "velocity": 118,
      "chip": "ym2612"
    },
    {
      "channel": 2,
      "note": 37,
      "start": 60.5194,
      "duration": 0.0992,
      "velocity": 1,
      "chip": "ym2612"
    },
    {
      "channel": 4,
      "note": 68,
      "start": 60.5199,
      "duration": 0.0994,
      "velocity": 118,
      "chip": "ym2612"
    },
    {
      "channel": 2,
      "note": 37,
      "start": 60.6188,
      "duration": 0.0991,
      "velocity": 1,
      "chip": "ym2612"
    },
    {
      "channel": 3,
      "note": 68,
      "start": 60.6191,
      "duration": 0.1989,
      "velocity": 82,
      "chip": "ym2612"
    },
    {
      "channel": 4,
      "note": 80,
      "start": 60.6194,
      "duration": 0.0989,
      "velocity": 118,
      "chip": "ym2612"
    },
    {
      "channel": 2,
      "note": 37,
      "start": 60.7181,
      "duration": 0.0996,
      "velocity": 1,
      "chip": "ym2612"
    },
    {
      "channel": 4,
      "note": 76,
      "start": 60.7185,
      "duration": 0.0998,
      "velocity": 118,
      "chip": "ym2612"
    },
    {
      "channel": 0,
      "note": 61,
      "start": 60.8163,
      "duration": 0.1984,
      "velocity": 109,
      "chip": "ym2612"
    },
    {
      "channel": 1,
      "note": 56,
      "start": 60.8166,
      "duration": 0.1984,
      "velocity": 109,
      "chip": "ym2612"
    },
    {
      "channel": 2,
      "note": 37,
      "start": 60.8178,
      "duration": 0.0978,
      "velocity": 108,
      "chip": "ym2612"
    },
    {
      "channel": 3,
      "note": 64,
      "start": 60.8182,
      "duration": 0.1984,
      "velocity": 82,
      "chip": "ym2612"
    },
    {
      "channel": 4,
      "note": 73,
      "start": 60.8185,
      "duration": 0.0975,
      "velocity": 118,
      "chip": "ym2612"
    },
    {
      "channel": 2,
      "note": 37,
      "start": 60.9158,
      "duration": 0.1005,
      "velocity": 1,
      "chip": "ym2612"
    },
    {
      "channel": 4,
      "note": 68,
      "start": 60.9162,
      "duration": 0.1007,
      "velocity": 118,
      "chip": "ym2612"
    },
    {
      "channel": 0,
      "note": 61,
      "start": 61.0149,
      "duration": 0.3772,
      "velocity": 109,
      "chip": "ym2612"
    },
    {
      "channel": 1,
      "note": 56,
      "start": 61.0152,
      "duration": 0.1784,
      "velocity": 109,
      "chip": "ym2612"
    },
    {
      "channel": 2,
      "note": 37,
      "start": 61.0164,
      "duration": 0.0789,
      "velocity": 1,
      "chip": "ym2612"
    },
    {
      "channel": 3,
      "note": 61,
      "start": 61.0168,
      "duration": 0.1776,
      "velocity": 82,
      "chip": "ym2612"
    },
    {
      "channel": 4,
      "note": 80,
      "start": 61.0171,
      "duration": 0.0786,
      "velocity": 118,
      "chip": "ym2612"
    },
    {
      "channel": 2,
      "note": 37,
      "start": 61.0955,
      "duration": 0.0985,
      "velocity": 108,
      "chip": "ym2612"
    },
    {
      "channel": 4,
      "note": 76,
      "start": 61.0959,
      "duration": 0.0987,
      "velocity": 118,
      "chip": "ym2612"
    },
    {
      "channel": 1,
      "note": 61,
      "start": 61.1939,
      "duration": 0.397,
      "velocity": 109,
      "chip": "ym2612"
    },
    {
      "channel": 2,
      "note": 37,
      "start": 61.1942,
      "duration": 0.0989,
      "velocity": 108,
      "chip": "ym2612"
    },
    {
      "channel": 3,
      "note": 56,
      "start": 61.1945,
      "duration": 0.1983,
      "velocity": 82,
      "chip": "ym2612"
    },
    {
      "channel": 4,
      "note": 73,
      "start": 61.1948,
      "duration": 0.0987,
      "velocity": 118,
      "chip": "ym2612"
    },
    {
      "channel": 2,
      "note": 37,
      "start": 61.2932,
      "duration": 0.0993,
      "velocity": 108,
      "chip": "ym2612"
    },
    {
      "channel": 4,
      "note": 68,
      "start": 61.2937,
      "duration": 0.0994,
      "velocity": 118,
      "chip": "ym2612"
    },
    {
      "channel": 0,
      "note": 61,
      "start": 61.3923,
      "duration": 0.2977,
      "velocity": 109,
      "chip": "ym2612"
    },
    {
      "channel": 2,
      "note": 37,
      "start": 61.3927,
      "duration": 0.0989,
      "velocity": 108,
      "chip": "ym2612"
    },
    {
      "channel": 3,
      "note": 68,
      "start": 61.393,
      "duration": 0.1985,
      "velocity": 82,
      "chip": "ym2612"
    },
    {
      "channel": 4,
      "note": 80,
      "start": 61.3935,
      "duration": 0.0985,
      "velocity": 118,
      "chip": "ym2612"
    },
    {
      "channel": 2,
      "note": 37,
      "start": 61.4918,
      "duration": 0.0994,
      "velocity": 108,
      "chip": "ym2612"
    },
    {
      "channel": 4,
      "note": 76,
      "start": 61.4922,
      "duration": 0.0996,
      "velocity": 118,
      "chip": "ym2612"
    },
    {
      "channel": 1,
      "note": 56,
      "start": 61.5911,
      "duration": 0.2779,
      "velocity": 109,
      "chip": "ym2612"
    },
    {
      "channel": 2,
      "note": 37,
      "start": 61.5914,
      "duration": 0.0991,
      "velocity": 108,
      "chip": "ym2612"
    },
    {
      "channel": 3,
      "note": 64,
      "start": 61.5917,
      "duration": 0.1793,
      "velocity": 82,
      "chip": "ym2612"
    },
    {
      "channel": 4,
      "note": 73,
      "start": 61.592,
      "duration": 0.0989,
      "velocity": 118,
      "chip": "ym2612"
    },
    {
      "channel": 0,
      "note": 61,
      "start": 61.6902,
      "duration": 0.2779,
      "velocity": 109,
      "chip": "ym2612"
    },
    {
      "channel": 2,
      "note": 37,
      "start": 61.6907,
      "duration": 0.08,
      "velocity": 1,
      "chip": "ym2612"
    },
    {
      "channel": 4,
      "note": 68,
      "start": 61.6911,
      "duration": 0.0802,
      "velocity": 118,
      "chip": "ym2612"
    },
    {
      "channel": 2,
      "note": 37,
      "start": 61.7708,
      "duration": 0.0994,
      "velocity": 1,
      "chip": "ym2612"
    },
    {
      "channel": 3,
      "note": 61,
      "start": 61.7712,
      "duration": 0.1987,
      "velocity": 82,
      "chip": "ym2612"
    },
    {
      "channel": 4,
      "note": 80,
      "start": 61.7715,
      "duration": 0.0991,
      "velocity": 118,
      "chip": "ym2612"
    },
    {
      "channel": 1,
      "note": 56,
      "start": 61.8691,
      "duration": 0.2978,
      "velocity": 109,
      "chip": "ym2612"
    },
    {
      "channel": 2,
      "note": 37,
      "start": 61.8704,
      "duration": 0.0991,
      "velocity": 1,
      "chip": "ym2612"
    },
    {
      "channel": 4,
      "note": 76,
      "start": 61.8708,
      "duration": 0.0994,
      "velocity": 118,
      "chip": "ym2612"
    },
    {
      "channel": 0,
      "note": 61,
      "start": 61.9683,
      "duration": 0.2978,
      "velocity": 109,
      "chip": "ym2612"
    },
    {
      "channel": 2,
      "note": 37,
      "start": 61.9697,
      "duration": 0.098,
      "velocity": 127,
      "chip": "ym2612"
    },
    {
      "channel": 3,
      "note": 56,
      "start": 61.97,
      "duration": 0.1984,
      "velocity": 82,
      "chip": "ym2612"
    },
    {
      "channel": 4,
      "note": 73,
      "start": 61.9703,
      "duration": 0.0978,
      "velocity": 118,
      "chip": "ym2612"
    },
    {
      "channel": 2,
      "note": 37,
      "start": 62.0678,
      "duration": 0.1002,
      "velocity": 1,
      "chip": "ym2612"
    },
    {
      "channel": 4,
      "note": 68,
      "start": 62.0683,
      "duration": 0.1004,
      "velocity": 118,
      "chip": "ym2612"
    },
    {
      "channel": 1,
      "note": 56,
      "start": 62.1671,
      "duration": 0.2779,
      "velocity": 109,
      "chip": "ym2612"
    },
    {
      "channel": 2,
      "note": 37,
      "start": 62.1683,
      "duration": 0.0991,
      "velocity": 1,
      "chip": "ym2612"
    },
    {
      "channel": 3,
      "note": 68,
      "start": 62.1686,
      "duration": 0.1973,
      "velocity": 82,
      "chip": "ym2612"
    },
    {
      "channel": 4,
      "note": 80,
      "start": 62.1689,
      "duration": 0.0989,
      "velocity": 118,
      "chip": "ym2612"
    },
    {
      "channel": 0,
      "note": 61,
      "start": 62.2663,
      "duration": 0.2779,
      "velocity": 109,
      "chip": "ym2612"
    },
    {
      "channel": 2,
      "note": 37,
      "start": 62.2676,
      "duration": 0.098,
      "velocity": 127,
      "chip": "ym2612"
    },
    {
      "channel": 4,
      "note": 76,
      "start": 62.268,
      "duration": 0.0982,
      "velocity": 118,
      "chip": "ym2612"
    },
    {
      "channel": 2,
      "note": 37,
      "start": 62.3658,
      "duration": 0.0804,
      "velocity": 1,
      "chip": "ym2612"
    },
    {
      "channel": 3,
      "note": 64,
      "start": 62.3661,
      "duration": 0.1797,
      "velocity": 82,
      "chip": "ym2612"
    },
    {
      "channel": 4,
      "note": 73,
      "start": 62.3664,
      "duration": 0.0802,
      "velocity": 118,
      "chip": "ym2612"
    },
    {
      "channel": 1,
      "note": 56,
      "start": 62.4451,
      "duration": 0.2978,
      "velocity": 109,
      "chip": "ym2612"
    },
    {
      "channel": 2,
      "note": 37,
      "start": 62.4464,
      "duration": 0.0991,
      "velocity": 1,
      "chip": "ym2612"
    },
    {
      "channel": 4,
      "note": 68,
      "start": 62.4468,
      "duration": 0.0994,
      "velocity": 118,
      "chip": "ym2612"
    },
    {
      "channel": 0,
      "note": 61,
      "start": 62.5444,
      "duration": 0.0992,
      "velocity": 109,
      "chip": "ym2612"
    },
    {
      "channel": 2,
      "note": 37,
      "start": 62.5457,
      "duration": 0.0981,
      "velocity": 127,
      "chip": "ym2612"
    },
    {
      "channel": 3,
      "note": 61,
      "start": 62.546,
      "duration": 0.1976,
      "velocity": 82,
      "chip": "ym2612"
    },
    {
      "channel": 4,
      "note": 80,
      "start": 62.5463,
      "duration": 0.0979,
      "velocity": 118,
      "chip": "ym2612"
    },
    {
      "channel": 2,
      "note": 37,
      "start": 62.6441,
      "duration": 0.0992,
      "velocity": 127,
      "chip": "ym2612"
    },
    {
      "channel": 4,
      "note": 76,
      "start": 62.6444,
      "duration": 0.0995,
      "velocity": 118,
      "chip": "ym2612"
    },
    {
      "channel": 1,
      "note": 56,
      "start": 62.7431,
      "duration": 0.199,
      "velocity": 109,
      "chip": "ym2612"
    },
    {
      "channel": 2,
      "note": 37,
      "start": 62.7435,
      "duration": 0.0988,
      "velocity": 127,
      "chip": "ym2612"
    },
    {
      "channel": 3,
      "note": 56,
      "start": 62.7439,
      "duration": 0.2014,
      "velocity": 1,
      "chip": "ym2612"
    },
    {
      "channel": 4,
      "note": 73,
      "start": 62.7442,
      "duration": 0.0985,
      "velocity": 118,
      "chip": "ym2612"
    },
    {
      "channel": 2,
      "note": 37,
      "start": 62.8425,
      "duration": 0.1012,
      "velocity": 1,
      "chip": "ym2612"
    },
    {
      "channel": 4,
      "note": 68,
      "start": 62.8429,
      "duration": 0.1036,
      "velocity": 1,
      "chip": "ym2612"
    },
    {
      "channel": 0,
      "note": 59,
      "start": 62.9419,
      "duration": 0.2776,
      "velocity": 109,
      "chip": "ym2612"
    },
    {
      "channel": 1,
      "note": 52,
      "start": 62.9423,
      "duration": 0.2775,
      "velocity": 109,
      "chip": "ym2612"
    },
    {
      "channel": 2,
      "note": 40,
      "start": 62.9439,
      "duration": 0.0971,
      "velocity": 108,
      "chip": "ym2612"
    },
    {
      "channel": 4,
      "note": 83,
      "start": 62.9467,
      "duration": 0.0946,
      "velocity": 118,
      "chip": "ym2612"
    },
    {
      "channel": 2,
      "note": 40,
      "start": 63.0411,
      "duration": 0.0793,
      "velocity": 108,
      "chip": "ym2612"
    },
    {
      "channel": 4,
      "note": 79,
      "start": 63.0416,
      "duration": 0.0795,
      "velocity": 118,
      "chip": "ym2612"
    },
    {
      "channel": 2,
      "note": 40,
      "start": 63.1206,
      "duration": 0.0995,
      "velocity": 108,
      "chip": "ym2612"
    },
    {
      "channel": 3,
      "note": 83,
      "start": 63.1209,
      "duration": 0.0992,
      "velocity": 118,
      "chip": "ym2612"
    },
    {
      "channel": 4,
      "note": 76,
      "start": 63.1212,
      "duration": 0.0989,
      "velocity": 118,
      "chip": "ym2612"
    },
    {
      "channel": 0,
      "note": 59,
      "start": 63.2197,
      "duration": 0.0004,
      "velocity": 109,
      "chip": "ym2612"
    },
    {
      "channel": 1,
      "note": 52,
      "start": 63.22,
      "duration": 0.0001,
      "velocity": 109,
      "chip": "ym2612"
    }
  ]
}