{
  "track_name": "04 - TnFinD",
  "duration_sec": 49.9,
  "sample_rate": 44100,
  "note_count": 391,
  "unique_pitches": 32,
  "pitch_range": 53,
  "avg_note_duration": 0.2891,
  "reconstruction_stats": {
    "notes_reconstructed": 391,
    "keyon_events": 391,
    "keyoff_events": 390,
    "orphan_keyons": 1,
    "unique_pitches": 32,
    "pitch_range": 53,
    "avg_duration_sec": 0.2891
  },
  "metadata": {
    "source": "R\\Rings of Power\\04 - TnFinD.vgz"
  },
  "notes": [
    {
      "channel": 0,
      "note": 90,
      "start": 0.0,
      "duration": 0.1468,
      "velocity": 111,
      "chip": "ym2612"
    },
    {
      "channel": 1,
      "note": 94,
      "start": 0.0,
      "duration": 0.0,
      "velocity": 1,
      "chip": "ym2612"
    },
    {
      "channel": 1,
      "note": 88,
      "start": 0.116,
      "duration": 0.1309,
      "velocity": 111,
      "chip": "ym2612"
    },
    {
      "channel": 2,
      "note": 90,
      "start": 0.2327,
      "duration": 0.5308,
      "velocity": 111,
      "chip": "ym2612"
    },
    {
      "channel": 3,
      "note": 90,
      "start": 0.6328,
      "duration": 1.564,
      "velocity": 111,
      "chip": "ym2612"
    },
    {
      "channel": 4,
      "note": 88,
      "start": 0.7328,
      "duration": 0.1307,
      "velocity": 111,
      "chip": "ym2612"
    },
    {
      "channel": 0,
      "note": 90,
      "start": 0.8494,
      "duration": 0.5474,
      "velocity": 111,
      "chip": "ym2612"
    },
    {
      "channel": 1,
      "note": 90,
      "start": 1.2494,
      "duration": 0.3308,
      "velocity": 111,
      "chip": "ym2612"
    },
    {
      "channel": 2,
      "note": 88,
      "start": 1.3494,
      "duration": 0.1475,
      "velocity": 111,
      "chip": "ym2612"
    },
    {
      "channel": 4,
      "note": 90,
      "start": 1.4828,
      "duration": 1.3473,
      "velocity": 111,
      "chip": "ym2612"
    },
    {
      "channel": 0,
      "note": 88,
      "start": 2.116,
      "duration": 0.1975,
      "velocity": 111,
      "chip": "ym2612"
    },
    {
      "channel": 2,
      "note": 86,
      "start": 2.2827,
      "duration": 0.1975,
      "velocity": 111,
      "chip": "ym2612"
    },
    {
      "channel": 1,
      "note": 85,
      "start": 2.3994,
      "duration": 0.1641,
      "velocity": 111,
      "chip": "ym2612"
    },
    {
      "channel": 3,
      "note": 83,
      "start": 2.5161,
      "duration": 0.1655,
      "velocity": 111,
      "chip": "ym2612"
    },
    {
      "channel": 0,
      "note": 82,
      "start": 2.6327,
      "duration": 0.1141,
      "velocity": 111,
      "chip": "ym2612"
    },
    {
      "channel": 2,
      "note": 88,
      "start": 2.75,
      "duration": 0.1802,
      "velocity": 111,
      "chip": "ym2612"
    },
    {
      "channel": 1,
      "note": 86,
      "start": 2.8994,
      "duration": 0.2155,
      "velocity": 111,
      "chip": "ym2612"
    },
    {
      "channel": 3,
      "note": 85,
      "start": 3.0161,
      "duration": 0.1808,
      "velocity": 111,
      "chip": "ym2612"
    },
    {
      "channel": 0,
      "note": 83,
      "start": 3.1493,
      "duration": 0.1475,
      "velocity": 111,
      "chip": "ym2612"
    },
    {
      "channel": 4,
      "note": 82,
      "start": 3.2662,
      "duration": 0.0973,
      "velocity": 111,
      "chip": "ym2612"
    },
    {
      "channel": 2,
      "note": 88,
      "start": 3.3668,
      "duration": 0.1967,
      "velocity": 111,
      "chip": "ym2612"
    },
    {
      "channel": 1,
      "note": 83,
      "start": 3.3698,
      "duration": 0.5437,
      "velocity": 111,
      "chip": "ym2612"
    },
    {
      "channel": 3,
      "note": 86,
      "start": 3.5162,
      "duration": 0.2141,
      "velocity": 111,
      "chip": "ym2612"
    },
    {
      "channel": 0,
      "note": 85,
      "start": 3.6494,
      "duration": 0.1641,
      "velocity": 111,
      "chip": "ym2612"
    },
    {
      "channel": 4,
      "note": 83,
      "start": 3.7662,
      "duration": 1.464,
      "velocity": 111,
      "chip": "ym2612"
    },
    {
      "channel": 2,
      "note": 82,
      "start": 3.8826,
      "duration": 0.1142,
      "velocity": 111,
      "chip": "ym2612"
    },
    {
      "channel": 3,
      "note": 83,
      "start": 4.0001,
      "duration": 0.6134,
      "velocity": 111,
      "chip": "ym2612"
    },
    {
      "channel": 0,
      "note": 83,
      "start": 4.6167,
      "duration": 0.4833,
      "velocity": 111,
      "chip": "ym2612"
    },
    {
      "channel": 1,
      "note": 90,
      "start": 4.9827,
      "duration": 0.1482,
      "velocity": 111,
      "chip": "ym2612"
    },
    {
      "channel": 2,
      "note": 66,
      "start": 4.9858,
      "duration": 0.1445,
      "velocity": 116,
      "chip": "ym2612"
    },
    {
      "channel": 3,
      "note": 88,
      "start": 5.0994,
      "duration": 0.0814,
      "velocity": 111,
      "chip": "ym2612"
    },
    {
      "channel": 0,
      "note": 64,
      "start": 5.103,
      "duration": 0.0772,
      "velocity": 116,
      "chip": "ym2612"
    },
    {
      "channel": 2,
      "note": 90,
      "start": 5.1994,
      "duration": 1.9475,
      "velocity": 111,
      "chip": "ym2612"
    },
    {
      "channel": 1,
      "note": 66,
      "start": 5.2024,
      "duration": 1.3118,
      "velocity": 116,
      "chip": "ym2612"
    },
    {
      "channel": 0,
      "note": 90,
      "start": 5.5994,
      "duration": 0.1641,
      "velocity": 111,
      "chip": "ym2612"
    },
    {
      "channel": 3,
      "note": 88,
      "start": 5.7162,
      "duration": 0.0973,
      "velocity": 111,
      "chip": "ym2612"
    },
    {
      "channel": 4,
      "note": 90,
      "start": 5.8328,
      "duration": 1.9307,
      "velocity": 111,
      "chip": "ym2612"
    },
    {
      "channel": 0,
      "note": 90,
      "start": 6.2326,
      "duration": 0.1475,
      "velocity": 111,
      "chip": "ym2612"
    },
    {
      "channel": 3,
      "note": 88,
      "start": 6.3494,
      "duration": 0.0807,
      "velocity": 111,
      "chip": "ym2612"
    },
    {
      "channel": 0,
      "note": 90,
      "start": 6.4494,
      "duration": 0.0641,
      "velocity": 111,
      "chip": "ym2612"
    },
    {
      "channel": 3,
      "note": 85,
      "start": 6.7828,
      "duration": 0.1481,
      "velocity": 111,
      "chip": "ym2612"
    },
    {
      "channel": 0,
      "note": 61,
      "start": 6.7858,
      "duration": 0.1444,
      "velocity": 116,
      "chip": "ym2612"
    },
    {
      "channel": 1,
      "note": 86,
      "start": 7.0994,
      "duration": 0.1648,
      "velocity": 111,
      "chip": "ym2612"
    },
    {
      "channel": 0,
      "note": 62,
      "start": 7.1024,
      "duration": 0.1611,
      "velocity": 116,
      "chip": "ym2612"
    },
    {
      "channel": 3,
      "note": 82,
      "start": 7.3994,
      "duration": 0.2148,
      "velocity": 111,
      "chip": "ym2612"
    },
    {
      "channel": 2,
      "note": 85,
      "start": 7.4024,
      "duration": 0.1611,
      "velocity": 111,
      "chip": "ym2612"
    },
    {
      "channel": 0,
      "note": 58,
      "start": 7.4055,
      "duration": 0.208,
      "velocity": 116,
      "chip": "ym2612"
    },
    {
      "channel": 1,
      "note": 83,
      "start": 7.7161,
      "duration": 1.8814,
      "velocity": 111,
      "chip": "ym2612"
    },
    {
      "channel": 2,
      "note": 86,
      "start": 7.7191,
      "duration": 0.1611,
      "velocity": 111,
      "chip": "ym2612"
    },
    {
      "channel": 0,
      "note": 59,
      "start": 7.7221,
      "duration": 1.8747,
      "velocity": 116,
      "chip": "ym2612"
    },
    {
      "channel": 3,
      "note": 82,
      "start": 8.0328,
      "duration": 0.1975,
      "velocity": 111,
      "chip": "ym2612"
    },
    {
      "channel": 4,
      "note": 85,
      "start": 8.0359,
      "duration": 0.1443,
      "velocity": 111,
      "chip": "ym2612"
    },
    {
      "channel": 2,
      "note": 83,
      "start": 8.3507,
      "duration": 1.7326,
      "velocity": 111,
      "chip": "ym2612"
    },
    {
      "channel": 4,
      "note": 86,
      "start": 8.3538,
      "duration": 0.1597,
      "velocity": 111,
      "chip": "ym2612"
    },
    {
      "channel": 3,
      "note": 82,
      "start": 8.6494,
      "duration": 0.1975,
      "velocity": 111,
      "chip": "ym2612"
    },
    {
      "channel": 4,
      "note": 83,
      "start": 8.9661,
      "duration": 1.2488,
      "velocity": 111,
      "chip": "ym2612"
    },
    {
      "channel": 3,
      "note": 78,
      "start": 9.9828,
      "duration": 0.1314,
      "velocity": 111,
      "chip": "ym2612"
    },
    {
      "channel": 0,
      "note": 54,
      "start": 9.9858,
      "duration": 0.1277,
      "velocity": 116,
      "chip": "ym2612"
    },
    {
      "channel": 1,
      "note": 76,
      "start": 10.0827,
      "duration": 0.1315,
      "velocity": 111,
      "chip": "ym2612"
    },
    {
      "channel": 2,
      "note": 52,
      "start": 10.0863,
      "duration": 0.1272,
      "velocity": 116,
      "chip": "ym2612"
    },
    {
      "channel": 0,
      "note": 78,
      "start": 10.1994,
      "duration": 0.5475,
      "velocity": 111,
      "chip": "ym2612"
    },
    {
      "channel": 3,
      "note": 54,
      "start": 10.2025,
      "duration": 1.3618,
      "velocity": 116,
      "chip": "ym2612"
    },
    {
      "channel": 2,
      "note": 78,
      "start": 10.5994,
      "duration": 1.5808,
      "velocity": 111,
      "chip": "ym2612"
    },
    {
      "channel": 1,
      "note": 76,
      "start": 10.716,
      "duration": 0.1309,
      "velocity": 111,
      "chip": "ym2612"
    },
    {
      "channel": 4,
      "note": 78,
      "start": 10.8328,
      "duration": 1.9641,
      "velocity": 111,
      "chip": "ym2612"
    },
    {
      "channel": 0,
      "note": 78,
      "start": 11.2326,
      "duration": 0.1308,
      "velocity": 111,
      "chip": "ym2612"
    },
    {
      "channel": 1,
      "note": 76,
      "start": 11.3326,
      "duration": 0.1309,
      "velocity": 111,
      "chip": "ym2612"
    },
    {
      "channel": 0,
      "note": 78,
      "start": 11.4494,
      "duration": 0.1141,
      "velocity": 111,
      "chip": "ym2612"
    },
    {
      "channel": 1,
      "note": 76,
      "start": 12.0993,
      "duration": 0.1816,
      "velocity": 111,
      "chip": "ym2612"
    },
    {
      "channel": 0,
      "note": 52,
      "start": 12.1024,
      "duration": 0.1778,
      "velocity": 116,
      "chip": "ym2612"
    },
    {
      "channel": 3,
      "note": 74,
      "start": 12.2495,
      "duration": 0.2147,
      "velocity": 111,
      "chip": "ym2612"
    },
    {
      "channel": 2,
      "note": 50,
      "start": 12.2525,
      "duration": 0.211,
      "velocity": 116,
      "chip": "ym2612"
    },
    {
      "channel": 0,
      "note": 73,
      "start": 12.366,
      "duration": 0.1815,
      "velocity": 111,
      "chip": "ym2612"
    },
    {
      "channel": 1,
      "note": 49,
      "start": 12.3691,
      "duration": 0.1778,
      "velocity": 116,
      "chip": "ym2612"
    },
    {
      "channel": 2,
      "note": 71,
      "start": 12.4994,
      "duration": 0.1482,
      "velocity": 111,
      "chip": "ym2612"
    },
    {
      "channel": 3,
      "note": 47,
      "start": 12.5025,
      "duration": 0.1444,
      "velocity": 116,
      "chip": "ym2612"
    },
    {
      "channel": 1,
      "note": 70,
      "start": 12.616,
      "duration": 0.0982,
      "velocity": 111,
      "chip": "ym2612"
    },
    {
      "channel": 0,
      "note": 46,
      "start": 12.619,
      "duration": 0.0945,
      "velocity": 116,
      "chip": "ym2612"
    },
    {
      "channel": 3,
      "note": 76,
      "start": 12.7176,
      "duration": 0.196,
      "velocity": 111,
      "chip": "ym2612"
    },
    {
      "channel": 2,
      "note": 74,
      "start": 12.8827,
      "duration": 0.1975,
      "velocity": 111,
      "chip": "ym2612"
    },
    {
      "channel": 0,
      "note": 73,
      "start": 12.9994,
      "duration": 0.1641,
      "velocity": 111,
      "chip": "ym2612"
    },
    {
      "channel": 1,
      "note": 71,
      "start": 13.116,
      "duration": 0.1475,
      "velocity": 111,
      "chip": "ym2612"
    },
    {
      "channel": 4,
      "note": 70,
      "start": 13.2328,
      "duration": 0.1141,
      "velocity": 111,
      "chip": "ym2612"
    },
    {
      "channel": 3,
      "note": 76,
      "start": 13.3502,
      "duration": 0.18,
      "velocity": 111,
      "chip": "ym2612"
    },
    {
      "channel": 2,
      "note": 71,
      "start": 13.3532,
      "duration": 0.5437,
      "velocity": 111,
      "chip": "ym2612"
    },
    {
      "channel": 0,
      "note": 47,
      "start": 13.3562,
      "duration": 1.2239,
      "velocity": 116,
      "chip": "ym2612"
    },
    {
      "channel": 1,
      "note": 74,
      "start": 13.4993,
      "duration": 0.1975,
      "velocity": 111,
      "chip": "ym2612"
    },
    {
      "channel": 4,
      "note": 73,
      "start": 13.6162,
      "duration": 0.1807,
      "velocity": 111,
      "chip": "ym2612"
    },
    {
      "channel": 3,
      "note": 71,
      "start": 13.7508,
      "duration": 0.8301,
      "velocity": 111,
      "chip": "ym2612"
    },
    {
      "channel": 1,
      "note": 70,
      "start": 13.866,
      "duration": 0.0975,
      "velocity": 111,
      "chip": "ym2612"
    },
    {
      "channel": 4,
      "note": 71,
      "start": 13.9668,
      "duration": 1.8633,
      "velocity": 111,
      "chip": "ym2612"
    },
    {
      "channel": 2,
      "note": 71,
      "start": 14.5841,
      "duration": 0.6294,
      "velocity": 111,
      "chip": "ym2612"
    },
    {
      "channel": 1,
      "note": 46,
      "start": 15.1994,
      "duration": 2.4975,
      "velocity": 116,
      "chip": "ym2612"
    },
    {
      "channel": 0,
      "note": 49,
      "start": 16.0327,
      "duration": 1.6712,
      "velocity": 116,
      "chip": "ym2612"
    },
    {
      "channel": 3,
      "note": 52,
      "start": 16.1995,
      "duration": 1.564,
      "velocity": 116,
      "chip": "ym2612"
    },
    {
      "channel": 2,
      "note": 67,
      "start": 16.3661,
      "duration": 1.2807,
      "velocity": 116,
      "chip": "ym2612"
    },
    {
      "channel": 4,
      "note": 70,
      "start": 16.5328,
      "duration": 1.214,
      "velocity": 116,
      "chip": "ym2612"
    },
    {
      "channel": 2,
      "note": 71,
      "start": 17.7002,
      "duration": 2.4531,
      "velocity": 116,
      "chip": "ym2612"
    },
    {
      "channel": 1,
      "note": 66,
      "start": 17.7032,
      "duration": 2.527,
      "velocity": 116,
      "chip": "ym2612"
    },
    {
      "channel": 0,
      "note": 54,
      "start": 17.7069,
      "duration": 1.8566,
      "velocity": 116,
      "chip": "ym2612"
    },
    {
      "channel": 4,
      "note": 49,
      "start": 19.5328,
      "duration": 0.6641,
      "velocity": 116,
      "chip": "ym2612"
    },
    {
      "channel": 3,
      "note": 59,
      "start": 20.1495,
      "duration": 4.4987,
      "velocity": 116,
      "chip": "ym2612"
    },
    {
      "channel": 0,
      "note": 62,
      "start": 20.1525,
      "duration": 4.545,
      "velocity": 116,
      "chip": "ym2612"
    },
    {
      "channel": 2,
      "note": 47,
      "start": 20.1562,
      "duration": 4.5407,
      "velocity": 116,
      "chip": "ym2612"
    },
    {
      "channel": 4,
      "note": 58,
      "start": 24.8662,
      "duration": 0.248,
      "velocity": 116,
      "chip": "ym2612"
    },
    {
      "channel": 1,
      "note": 46,
      "start": 24.8693,
      "duration": 0.2443,
      "velocity": 116,
      "chip": "ym2612"
    },
    {
      "channel": 3,
      "note": 59,
      "start": 25.1829,
      "duration": 0.1147,
      "velocity": 116,
      "chip": "ym2612"
    },
    {
      "channel": 2,
      "note": 47,
      "start": 25.1859,
      "duration": 0.1109,
      "velocity": 116,
      "chip": "ym2612"
    },
    {
      "channel": 0,
      "note": 61,
      "start": 25.2828,
      "duration": 0.0814,
      "velocity": 116,
      "chip": "ym2612"
    },
    {
      "channel": 1,
      "note": 49,
      "start": 25.2858,
      "duration": 0.0777,
      "velocity": 116,
      "chip": "ym2612"
    },
    {
      "channel": 4,
      "note": 58,
      "start": 25.3829,
      "duration": 0.1043,
      "velocity": 116,
      "chip": "ym2612"
    },
    {
      "channel": 2,
      "note": 46,
      "start": 25.3859,
      "duration": 0.1005,
      "velocity": 116,
      "chip": "ym2612"
    },
    {
      "channel": 3,
      "note": 59,
      "start": 25.4828,
      "duration": 0.1147,
      "velocity": 116,
      "chip": "ym2612"
    },
    {
      "channel": 1,
      "note": 47,
      "start": 25.4859,
      "duration": 0.111,
      "velocity": 116,
      "chip": "ym2612"
    },
    {
      "channel": 0,
      "note": 61,
      "start": 25.5828,
      "duration": 0.1148,
      "velocity": 116,
      "chip": "ym2612"
    },
    {
      "channel": 2,
      "note": 49,
      "start": 25.5858,
      "duration": 0.1111,
      "velocity": 116,
      "chip": "ym2612"
    },
    {
      "channel": 4,
      "note": 58,
      "start": 25.6828,
      "duration": 0.1148,
      "velocity": 116,
      "chip": "ym2612"
    },
    {
      "channel": 1,
      "note": 46,
      "start": 25.6859,
      "duration": 0.111,
      "velocity": 116,
      "chip": "ym2612"
    },
    {
      "channel": 3,
      "note": 59,
      "start": 25.7829,
      "duration": 0.1147,
      "velocity": 116,
      "chip": "ym2612"
    },
    {
      "channel": 2,
      "note": 47,
      "start": 25.7859,
      "duration": 0.111,
      "velocity": 116,
      "chip": "ym2612"
    },
    {
      "channel": 0,
      "note": 61,
      "start": 25.8828,
      "duration": 0.1315,
      "velocity": 116,
      "chip": "ym2612"
    },
    {
      "channel": 1,
      "note": 49,
      "start": 25.8858,
      "duration": 0.1278,
      "velocity": 116,
      "chip": "ym2612"
    },
    {
      "channel": 4,
      "note": 58,
      "start": 25.9995,
      "duration": 0.1314,
      "velocity": 116,
      "chip": "ym2612"
    },
    {
      "channel": 2,
      "note": 46,
      "start": 26.0026,
      "duration": 0.1276,
      "velocity": 116,
      "chip": "ym2612"
    },
    {
      "channel": 3,
      "note": 59,
      "start": 26.0995,
      "duration": 0.1814,
      "velocity": 116,
      "chip": "ym2612"
    },
    {
      "channel": 1,
      "note": 47,
      "start": 26.1025,
      "duration": 0.1776,
      "velocity": 116,
      "chip": "ym2612"
    },
    {
      "channel": 0,
      "note": 61,
      "start": 26.4174,
      "duration": 0.1134,
      "velocity": 116,
      "chip": "ym2612"
    },
    {
      "channel": 2,
      "note": 49,
      "start": 26.4205,
      "duration": 0.1097,
      "velocity": 116,
      "chip": "ym2612"
    },
    {
      "channel": 4,
      "note": 62,
      "start": 26.7329,
      "duration": 0.1314,
      "velocity": 116,
      "chip": "ym2612"
    },
    {
      "channel": 1,
      "note": 50,
      "start": 26.7359,
      "duration": 0.1276,
      "velocity": 116,
      "chip": "ym2612"
    },
    {
      "channel": 3,
      "note": 64,
      "start": 26.8509,
      "duration": 0.08,
      "velocity": 116,
      "chip": "ym2612"
    },
    {
      "channel": 2,
      "note": 52,
      "start": 26.8539,
      "duration": 0.0763,
      "velocity": 116,
      "chip": "ym2612"
    },
    {
      "channel": 0,
      "note": 61,
      "start": 26.9494,
      "duration": 0.0981,
      "velocity": 116,
      "chip": "ym2612"
    },
    {
      "channel": 1,
      "note": 49,
      "start": 26.9525,
      "duration": 0.0944,
      "velocity": 116,
      "chip": "ym2612"
    },
    {
      "channel": 4,
      "note": 62,
      "start": 27.0328,
      "duration": 0.1148,
      "velocity": 116,
      "chip": "ym2612"
    },
    {
      "channel": 2,
      "note": 50,
      "start": 27.0359,
      "duration": 0.111,
      "velocity": 116,
      "chip": "ym2612"
    },
    {
      "channel": 3,
      "note": 64,
      "start": 27.1328,
      "duration": 0.1147,
      "velocity": 116,
      "chip": "ym2612"
    },
    {
      "channel": 1,
      "note": 52,
      "start": 27.1359,
      "duration": 0.111,
      "velocity": 116,
      "chip": "ym2612"
    },
    {
      "channel": 0,
      "note": 61,
      "start": 27.2327,
      "duration": 0.1482,
      "velocity": 116,
      "chip": "ym2612"
    },
    {
      "channel": 2,
      "note": 49,
      "start": 27.2358,
      "duration": 0.1444,
      "velocity": 116,
      "chip": "ym2612"
    },
    {
      "channel": 4,
      "note": 62,
      "start": 27.3495,
      "duration": 0.1147,
      "velocity": 116,
      "chip": "ym2612"
    },
    {
      "channel": 1,
      "note": 50,
      "start": 27.3525,
      "duration": 0.111,
      "velocity": 116,
      "chip": "ym2612"
    },
    {
      "channel": 3,
      "note": 64,
      "start": 27.4495,
      "duration": 0.1147,
      "velocity": 116,
      "chip": "ym2612"
    },
    {
      "channel": 2,
      "note": 52,
      "start": 27.4525,
      "duration": 0.111,
      "velocity": 116,
      "chip": "ym2612"
    },
    {
      "channel": 0,
      "note": 61,
      "start": 27.5494,
      "duration": 0.1314,
      "velocity": 116,
      "chip": "ym2612"
    },
    {
      "channel": 1,
      "note": 49,
      "start": 27.5525,
      "duration": 0.1277,
      "velocity": 116,
      "chip": "ym2612"
    },
    {
      "channel": 4,
      "note": 62,
      "start": 27.6495,
      "duration": 0.2315,
      "velocity": 116,
      "chip": "ym2612"
    },
    {
      "channel": 2,
      "note": 50,
      "start": 27.6525,
      "duration": 0.2277,
      "velocity": 116,
      "chip": "ym2612"
    },
    {
      "channel": 3,
      "note": 64,
      "start": 27.9829,
      "duration": 0.098,
      "velocity": 116,
      "chip": "ym2612"
    },
    {
      "channel": 1,
      "note": 52,
      "start": 27.9859,
      "duration": 0.0942,
      "velocity": 116,
      "chip": "ym2612"
    },
    {
      "channel": 0,
      "note": 66,
      "start": 28.2994,
      "duration": 0.0814,
      "velocity": 116,
      "chip": "ym2612"
    },
    {
      "channel": 2,
      "note": 54,
      "start": 28.3025,
      "duration": 0.0777,
      "velocity": 116,
      "chip": "ym2612"
    },
    {
      "channel": 4,
      "note": 67,
      "start": 28.3995,
      "duration": 0.098,
      "velocity": 116,
      "chip": "ym2612"
    },
    {
      "channel": 1,
      "note": 55,
      "start": 28.4026,
      "duration": 0.0942,
      "velocity": 116,
      "chip": "ym2612"
    },
    {
      "channel": 3,
      "note": 64,
      "start": 28.4828,
      "duration": 0.1481,
      "velocity": 116,
      "chip": "ym2612"
    },
    {
      "channel": 2,
      "note": 52,
      "start": 28.4859,
      "duration": 0.1444,
      "velocity": 116,
      "chip": "ym2612"
    },
    {
      "channel": 0,
      "note": 66,
      "start": 28.5994,
      "duration": 0.1149,
      "velocity": 116,
      "chip": "ym2612"
    },
    {
      "channel": 1,
      "note": 54,
      "start": 28.6024,
      "duration": 0.1111,
      "velocity": 116,
      "chip": "ym2612"
    },
    {
      "channel": 4,
      "note": 67,
      "start": 28.6995,
      "duration": 0.1148,
      "velocity": 116,
      "chip": "ym2612"
    },
    {
      "channel": 2,
      "note": 55,
      "start": 28.7026,
      "duration": 0.111,
      "velocity": 116,
      "chip": "ym2612"
    },
    {
      "channel": 3,
      "note": 64,
      "start": 28.7995,
      "duration": 0.1314,
      "velocity": 116,
      "chip": "ym2612"
    },
    {
      "channel": 1,
      "note": 52,
      "start": 28.8025,
      "duration": 0.1276,
      "velocity": 116,
      "chip": "ym2612"
    },
    {
      "channel": 0,
      "note": 66,
      "start": 28.8994,
      "duration": 0.1315,
      "velocity": 116,
      "chip": "ym2612"
    },
    {
      "channel": 2,
      "note": 54,
      "start": 28.9024,
      "duration": 0.1277,
      "velocity": 116,
      "chip": "ym2612"
    },
    {
      "channel": 4,
      "note": 67,
      "start": 29.0183,
      "duration": 0.1126,
      "velocity": 116,
      "chip": "ym2612"
    },
    {
      "channel": 1,
      "note": 55,
      "start": 29.0214,
      "duration": 0.1088,
      "velocity": 116,
      "chip": "ym2612"
    },
    {
      "channel": 3,
      "note": 64,
      "start": 29.1162,
      "duration": 0.1314,
      "velocity": 116,
      "chip": "ym2612"
    },
    {
      "channel": 2,
      "note": 52,
      "start": 29.1192,
      "duration": 0.1277,
      "velocity": 116,
      "chip": "ym2612"
    },
    {
      "channel": 0,
      "note": 66,
      "start": 29.216,
      "duration": 0.6315,
      "velocity": 116,
      "chip": "ym2612"
    },
    {
      "channel": 1,
      "note": 54,
      "start": 29.2191,
      "duration": 0.6278,
      "velocity": 116,
      "chip": "ym2612"
    },
    {
      "channel": 4,
      "note": 70,
      "start": 29.851,
      "duration": 0.2459,
      "velocity": 116,
      "chip": "ym2612"
    },
    {
      "channel": 2,
      "note": 71,
      "start": 30.1661,
      "duration": 0.1141,
      "velocity": 116,
      "chip": "ym2612"
    },
    {
      "channel": 3,
      "note": 73,
      "start": 30.2662,
      "duration": 0.0973,
      "velocity": 116,
      "chip": "ym2612"
    },
    {
      "channel": 1,
      "note": 70,
      "start": 30.3828,
      "duration": 0.1004,
      "velocity": 116,
      "chip": "ym2612"
    },
    {
      "channel": 0,
      "note": 71,
      "start": 30.4828,
      "duration": 0.0974,
      "velocity": 116,
      "chip": "ym2612"
    },
    {
      "channel": 4,
      "note": 73,
      "start": 30.5662,
      "duration": 0.1141,
      "velocity": 116,
      "chip": "ym2612"
    },
    {
      "channel": 2,
      "note": 70,
      "start": 30.6661,
      "duration": 0.1141,
      "velocity": 116,
      "chip": "ym2612"
    },
    {
      "channel": 3,
      "note": 71,
      "start": 30.7662,
      "duration": 0.1141,
      "velocity": 116,
      "chip": "ym2612"
    },
    {
      "channel": 1,
      "note": 73,
      "start": 30.8661,
      "duration": 0.1307,
      "velocity": 116,
      "chip": "ym2612"
    },
    {
      "channel": 0,
      "note": 70,
      "start": 30.9828,
      "duration": 0.1307,
      "velocity": 116,
      "chip": "ym2612"
    },
    {
      "channel": 4,
      "note": 71,
      "start": 31.0828,
      "duration": 0.1807,
      "velocity": 116,
      "chip": "ym2612"
    },
    {
      "channel": 2,
      "note": 73,
      "start": 31.3994,
      "duration": 0.1141,
      "velocity": 116,
      "chip": "ym2612"
    },
    {
      "channel": 3,
      "note": 74,
      "start": 31.7162,
      "duration": 0.1307,
      "velocity": 116,
      "chip": "ym2612"
    },
    {
      "channel": 1,
      "note": 76,
      "start": 31.8327,
      "duration": 0.0808,
      "velocity": 116,
      "chip": "ym2612"
    },
    {
      "channel": 0,
      "note": 73,
      "start": 31.9328,
      "duration": 0.0973,
      "velocity": 116,
      "chip": "ym2612"
    },
    {
      "channel": 4,
      "note": 74,
      "start": 32.0162,
      "duration": 0.114,
      "velocity": 116,
      "chip": "ym2612"
    },
    {
      "channel": 2,
      "note": 76,
      "start": 32.1161,
      "duration": 0.1308,
      "velocity": 116,
      "chip": "ym2612"
    },
    {
      "channel": 3,
      "note": 73,
      "start": 32.2329,
      "duration": 0.1306,
      "velocity": 116,
      "chip": "ym2612"
    },
    {
      "channel": 1,
      "note": 74,
      "start": 32.3328,
      "duration": 0.114,
      "velocity": 116,
      "chip": "ym2612"
    },
    {
      "channel": 0,
      "note": 76,
      "start": 32.4328,
      "duration": 0.1141,
      "velocity": 116,
      "chip": "ym2612"
    },
    {
      "channel": 4,
      "note": 73,
      "start": 32.5329,
      "duration": 0.1473,
      "velocity": 116,
      "chip": "ym2612"
    },
    {
      "channel": 2,
      "note": 74,
      "start": 32.6508,
      "duration": 0.2135,
      "velocity": 116,
      "chip": "ym2612"
    },
    {
      "channel": 3,
      "note": 76,
      "start": 32.9662,
      "duration": 0.1153,
      "velocity": 116,
      "chip": "ym2612"
    },
    {
      "channel": 1,
      "note": 78,
      "start": 33.2828,
      "duration": 0.0807,
      "velocity": 116,
      "chip": "ym2612"
    },
    {
      "channel": 0,
      "note": 79,
      "start": 33.3828,
      "duration": 0.0973,
      "velocity": 116,
      "chip": "ym2612"
    },
    {
      "channel": 4,
      "note": 76,
      "start": 33.4662,
      "duration": 0.1474,
      "velocity": 116,
      "chip": "ym2612"
    },
    {
      "channel": 2,
      "note": 78,
      "start": 33.5828,
      "duration": 0.1141,
      "velocity": 116,
      "chip": "ym2612"
    },
    {
      "channel": 3,
      "note": 79,
      "start": 33.6829,
      "duration": 0.114,
      "velocity": 116,
      "chip": "ym2612"
    },
    {
      "channel": 1,
      "note": 76,
      "start": 33.7827,
      "duration": 0.1308,
      "velocity": 116,
      "chip": "ym2612"
    },
    {
      "channel": 0,
      "note": 78,
      "start": 33.8827,
      "duration": 0.1308,
      "velocity": 116,
      "chip": "ym2612"
    },
    {
      "channel": 4,
      "note": 79,
      "start": 33.9995,
      "duration": 0.1141,
      "velocity": 116,
      "chip": "ym2612"
    },
    {
      "channel": 2,
      "note": 76,
      "start": 34.0994,
      "duration": 0.1308,
      "velocity": 116,
      "chip": "ym2612"
    },
    {
      "channel": 3,
      "note": 78,
      "start": 34.1995,
      "duration": 0.6474,
      "velocity": 116,
      "chip": "ym2612"
    },
    {
      "channel": 1,
      "note": 76,
      "start": 35.1494,
      "duration": 0.2315,
      "velocity": 116,
      "chip": "ym2612"
    },
    {
      "channel": 0,
      "note": 52,
      "start": 35.1525,
      "duration": 0.2278,
      "velocity": 116,
      "chip": "ym2612"
    },
    {
      "channel": 4,
      "note": 79,
      "start": 35.3662,
      "duration": 0.1814,
      "velocity": 116,
      "chip": "ym2612"
    },
    {
      "channel": 2,
      "note": 55,
      "start": 35.3693,
      "duration": 0.1776,
      "velocity": 116,
      "chip": "ym2612"
    },
    {
      "channel": 3,
      "note": 73,
      "start": 35.5329,
      "duration": 0.1146,
      "velocity": 116,
      "chip": "ym2612"
    },
    {
      "channel": 0,
      "note": 49,
      "start": 35.5359,
      "duration": 0.1109,
      "velocity": 116,
      "chip": "ym2612"
    },
    {
      "channel": 1,
      "note": 76,
      "start": 35.6328,
      "duration": 0.1315,
      "velocity": 116,
      "chip": "ym2612"
    },
    {
      "channel": 2,
      "note": 52,
      "start": 35.6358,
      "duration": 0.1278,
      "velocity": 116,
      "chip": "ym2612"
    },
    {
      "channel": 4,
      "note": 79,
      "start": 35.7495,
      "duration": 0.1314,
      "velocity": 116,
      "chip": "ym2612"
    },
    {
      "channel": 0,
      "note": 55,
      "start": 35.7526,
      "duration": 0.1276,
      "velocity": 116,
      "chip": "ym2612"
    },
    {
      "channel": 3,
      "note": 73,
      "start": 35.8495,
      "duration": 0.1147,
      "velocity": 116,
      "chip": "ym2612"
    },
    {
      "channel": 2,
      "note": 49,
      "start": 35.8525,
      "duration": 0.111,
      "velocity": 116,
      "chip": "ym2612"
    },
    {
      "channel": 1,
      "note": 76,
      "start": 35.9494,
      "duration": 0.0981,
      "velocity": 116,
      "chip": "ym2612"
    },
    {
      "channel": 0,
      "note": 52,
      "start": 35.9525,
      "duration": 0.0944,
      "velocity": 116,
      "chip": "ym2612"
    },
    {
      "channel": 4,
      "note": 79,
      "start": 36.0329,
      "duration": 0.148,
      "velocity": 116,
      "chip": "ym2612"
    },
    {
      "channel": 2,
      "note": 55,
      "start": 36.0359,
      "duration": 0.1442,
      "velocity": 116,
      "chip": "ym2612"
    },
    {
      "channel": 3,
      "note": 73,
      "start": 36.0995,
      "duration": 0.1481,
      "velocity": 116,
      "chip": "ym2612"
    },
    {
      "channel": 0,
      "note": 49,
      "start": 36.1025,
      "duration": 0.1443,
      "velocity": 116,
      "chip": "ym2612"
    },
    {
      "channel": 1,
      "note": 76,
      "start": 36.2161,
      "duration": 0.1148,
      "velocity": 116,
      "chip": "ym2612"
    },
    {
      "channel": 2,
      "note": 52,
      "start": 36.2191,
      "duration": 0.1111,
      "velocity": 116,
      "chip": "ym2612"
    },
    {
      "channel": 4,
      "note": 79,
      "start": 36.3162,
      "duration": 0.1043,
      "velocity": 116,
      "chip": "ym2612"
    },
    {
      "channel": 0,
      "note": 55,
      "start": 36.3192,
      "duration": 0.1005,
      "velocity": 116,
      "chip": "ym2612"
    },
    {
      "channel": 3,
      "note": 74,
      "start": 36.4162,
      "duration": 0.1314,
      "velocity": 116,
      "chip": "ym2612"
    },
    {
      "channel": 2,
      "note": 50,
      "start": 36.4192,
      "duration": 0.1277,
      "velocity": 116,
      "chip": "ym2612"
    },
    {
      "channel": 1,
      "note": 78,
      "start": 36.5841,
      "duration": 0.1301,
      "velocity": 116,
      "chip": "ym2612"
    },
    {
      "channel": 0,
      "note": 54,
      "start": 36.5872,
      "duration": 0.1263,
      "velocity": 116,
      "chip": "ym2612"
    },
    {
      "channel": 4,
      "note": 71,
      "start": 36.6995,
      "duration": 0.1315,
      "velocity": 116,
      "chip": "ym2612"
    },
    {
      "channel": 2,
      "note": 47,
      "start": 36.7025,
      "duration": 0.1277,
      "velocity": 116,
      "chip": "ym2612"
    },
    {
      "channel": 3,
      "note": 74,
      "start": 36.7995,
      "duration": 0.1147,
      "velocity": 116,
      "chip": "ym2612"
    },
    {
      "channel": 0,
      "note": 50,
      "start": 36.8025,
      "duration": 0.111,
      "velocity": 116,
      "chip": "ym2612"
    },
    {
      "channel": 1,
      "note": 78,
      "start": 36.8994,
      "duration": 0.1481,
      "velocity": 116,
      "chip": "ym2612"
    },
    {
      "channel": 2,
      "note": 54,
      "start": 36.9025,
      "duration": 0.1444,
      "velocity": 116,
      "chip": "ym2612"
    },
    {
      "channel": 4,
      "note": 71,
      "start": 37.0176,
      "duration": 0.1467,
      "velocity": 116,
      "chip": "ym2612"
    },
    {
      "channel": 0,
      "note": 47,
      "start": 37.0206,
      "duration": 0.1429,
      "velocity": 116,
      "chip": "ym2612"
    },
    {
      "channel": 3,
      "note": 74,
      "start": 37.1329,
      "duration": 0.098,
      "velocity": 116,
      "chip": "ym2612"
    },
    {
      "channel": 2,
      "note": 50,
      "start": 37.1359,
      "duration": 0.0942,
      "velocity": 116,
      "chip": "ym2612"
    },
    {
      "channel": 1,
      "note": 78,
      "start": 37.216,
      "duration": 0.1148,
      "velocity": 116,
      "chip": "ym2612"
    },
    {
      "channel": 0,
      "note": 54,
      "start": 37.2191,
      "duration": 0.1111,
      "velocity": 116,
      "chip": "ym2612"
    },
    {
      "channel": 4,
      "note": 71,
      "start": 37.3162,
      "duration": 0.1648,
      "velocity": 116,
      "chip": "ym2612"
    },
    {
      "channel": 2,
      "note": 47,
      "start": 37.3193,
      "duration": 0.161,
      "velocity": 116,
      "chip": "ym2612"
    },
    {
      "channel": 3,
      "note": 74,
      "start": 37.4162,
      "duration": 0.1209,
      "velocity": 116,
      "chip": "ym2612"
    },
    {
      "channel": 0,
      "note": 50,
      "start": 37.4192,
      "duration": 0.1171,
      "velocity": 116,
      "chip": "ym2612"
    },
    {
      "channel": 1,
      "note": 78,
      "start": 37.5328,
      "duration": 0.1148,
      "velocity": 116,
      "chip": "ym2612"
    },
    {
      "channel": 2,
      "note": 54,
      "start": 37.5358,
      "duration": 0.1111,
      "velocity": 116,
      "chip": "ym2612"
    },
    {
      "channel": 4,
      "note": 73,
      "start": 37.6328,
      "duration": 0.1647,
      "velocity": 116,
      "chip": "ym2612"
    },
    {
      "channel": 0,
      "note": 49,
      "start": 37.6359,
      "duration": 0.161,
      "velocity": 116,
      "chip": "ym2612"
    },
    {
      "channel": 3,
      "note": 76,
      "start": 37.7662,
      "duration": 0.1647,
      "velocity": 116,
      "chip": "ym2612"
    },
    {
      "channel": 2,
      "note": 52,
      "start": 37.7693,
      "duration": 0.1609,
      "velocity": 116,
      "chip": "ym2612"
    },
    {
      "channel": 1,
      "note": 70,
      "start": 37.9495,
      "duration": 0.1043,
      "velocity": 116,
      "chip": "ym2612"
    },
    {
      "channel": 0,
      "note": 46,
      "start": 37.9525,
      "duration": 0.1005,
      "velocity": 116,
      "chip": "ym2612"
    },
    {
      "channel": 4,
      "note": 73,
      "start": 38.0495,
      "duration": 0.1147,
      "velocity": 116,
      "chip": "ym2612"
    },
    {
      "channel": 2,
      "note": 49,
      "start": 38.0525,
      "duration": 0.111,
      "velocity": 116,
      "chip": "ym2612"
    },
    {
      "channel": 3,
      "note": 76,
      "start": 38.1495,
      "duration": 0.1314,
      "velocity": 116,
      "chip": "ym2612"
    },
    {
      "channel": 0,
      "note": 52,
      "start": 38.1526,
      "duration": 0.1276,
      "velocity": 116,
      "chip": "ym2612"
    },
    {
      "channel": 1,
      "note": 70,
      "start": 38.2494,
      "duration": 0.1656,
      "velocity": 116,
      "chip": "ym2612"
    },
    {
      "channel": 2,
      "note": 46,
      "start": 38.2524,
      "duration": 0.1619,
      "velocity": 116,
      "chip": "ym2612"
    },
    {
      "channel": 4,
      "note": 73,
      "start": 38.3662,
      "duration": 0.1147,
      "velocity": 116,
      "chip": "ym2612"
    },
    {
      "channel": 0,
      "note": 49,
      "start": 38.3693,
      "duration": 0.1109,
      "velocity": 116,
      "chip": "ym2612"
    },
    {
      "channel": 3,
      "note": 76,
      "start": 38.4662,
      "duration": 0.1314,
      "velocity": 116,
      "chip": "ym2612"
    },
    {
      "channel": 2,
      "note": 52,
      "start": 38.4693,
      "duration": 0.1276,
      "velocity": 116,
      "chip": "ym2612"
    },
    {
      "channel": 1,
      "note": 70,
      "start": 38.5661,
      "duration": 0.1981,
      "velocity": 116,
      "chip": "ym2612"
    },
    {
      "channel": 0,
      "note": 46,
      "start": 38.5691,
      "duration": 0.1944,
      "velocity": 116,
      "chip": "ym2612"
    },
    {
      "channel": 4,
      "note": 73,
      "start": 38.6828,
      "duration": 0.1314,
      "velocity": 116,
      "chip": "ym2612"
    },
    {
      "channel": 2,
      "note": 49,
      "start": 38.6859,
      "duration": 0.1276,
      "velocity": 116,
      "chip": "ym2612"
    },
    {
      "channel": 3,
      "note": 76,
      "start": 38.7995,
      "duration": 0.1314,
      "velocity": 116,
      "chip": "ym2612"
    },
    {
      "channel": 0,
      "note": 52,
      "start": 38.8026,
      "duration": 0.1276,
      "velocity": 116,
      "chip": "ym2612"
    },
    {
      "channel": 1,
      "note": 71,
      "start": 38.8994,
      "duration": 0.1815,
      "velocity": 116,
      "chip": "ym2612"
    },
    {
      "channel": 2,
      "note": 47,
      "start": 38.9024,
      "duration": 0.1778,
      "velocity": 116,
      "chip": "ym2612"
    },
    {
      "channel": 4,
      "note": 74,
      "start": 39.0844,
      "duration": 0.1466,
      "velocity": 116,
      "chip": "ym2612"
    },
    {
      "channel": 0,
      "note": 50,
      "start": 39.0874,
      "duration": 0.1427,
      "velocity": 116,
      "chip": "ym2612"
    },
    {
      "channel": 3,
      "note": 67,
      "start": 39.1995,
      "duration": 0.1314,
      "velocity": 116,
      "chip": "ym2612"
    },
    {
      "channel": 2,
      "note": 43,
      "start": 39.2026,
      "duration": 0.1276,
      "velocity": 116,
      "chip": "ym2612"
    },
    {
      "channel": 1,
      "note": 71,
      "start": 39.2994,
      "duration": 0.1148,
      "velocity": 116,
      "chip": "ym2612"
    },
    {
      "channel": 0,
      "note": 47,
      "start": 39.3025,
      "duration": 0.1111,
      "velocity": 116,
      "chip": "ym2612"
    },
    {
      "channel": 4,
      "note": 74,
      "start": 39.3995,
      "duration": 0.1314,
      "velocity": 116,
      "chip": "ym2612"
    },
    {
      "channel": 2,
      "note": 50,
      "start": 39.4025,
      "duration": 0.1276,
      "velocity": 116,
      "chip": "ym2612"
    },
    {
      "channel": 3,
      "note": 67,
      "start": 39.4995,
      "duration": 0.1647,
      "velocity": 116,
      "chip": "ym2612"
    },
    {
      "channel": 0,
      "note": 43,
      "start": 39.5026,
      "duration": 0.1609,
      "velocity": 116,
      "chip": "ym2612"
    },
    {
      "channel": 1,
      "note": 71,
      "start": 39.6161,
      "duration": 0.1148,
      "velocity": 116,
      "chip": "ym2612"
    },
    {
      "channel": 2,
      "note": 47,
      "start": 39.6191,
      "duration": 0.1111,
      "velocity": 116,
      "chip": "ym2612"
    },
    {
      "channel": 4,
      "note": 74,
      "start": 39.7162,
      "duration": 0.1314,
      "velocity": 116,
      "chip": "ym2612"
    },
    {
      "channel": 0,
      "note": 50,
      "start": 39.7192,
      "duration": 0.1276,
      "velocity": 116,
      "chip": "ym2612"
    },
    {
      "channel": 3,
      "note": 67,
      "start": 39.8162,
      "duration": 0.1481,
      "velocity": 116,
      "chip": "ym2612"
    },
    {
      "channel": 2,
      "note": 43,
      "start": 39.8192,
      "duration": 0.1444,
      "velocity": 116,
      "chip": "ym2612"
    },
    {
      "channel": 1,
      "note": 71,
      "start": 39.9328,
      "duration": 0.0981,
      "velocity": 116,
      "chip": "ym2612"
    },
    {
      "channel": 0,
      "note": 47,
      "start": 39.9358,
      "duration": 0.0944,
      "velocity": 116,
      "chip": "ym2612"
    },
    {
      "channel": 4,
      "note": 74,
      "start": 40.0162,
      "duration": 0.1481,
      "velocity": 116,
      "chip": "ym2612"
    },
    {
      "channel": 2,
      "note": 50,
      "start": 40.0193,
      "duration": 0.1443,
      "velocity": 116,
      "chip": "ym2612"
    },
    {
      "channel": 3,
      "note": 67,
      "start": 40.1495,
      "duration": 0.1313,
      "velocity": 116,
      "chip": "ym2612"
    },
    {
      "channel": 0,
      "note": 43,
      "start": 40.1526,
      "duration": 0.1276,
      "velocity": 116,
      "chip": "ym2612"
    },
    {
      "channel": 1,
      "note": 71,
      "start": 40.2494,
      "duration": 0.1148,
      "velocity": 116,
      "chip": "ym2612"
    },
    {
      "channel": 2,
      "note": 47,
      "start": 40.2525,
      "duration": 0.1111,
      "velocity": 116,
      "chip": "ym2612"
    },
    {
      "channel": 4,
      "note": 74,
      "start": 40.3495,
      "duration": 0.1147,
      "velocity": 116,
      "chip": "ym2612"
    },
    {
      "channel": 0,
      "note": 50,
      "start": 40.3525,
      "duration": 0.111,
      "velocity": 116,
      "chip": "ym2612"
    },
    {
      "channel": 3,
      "note": 67,
      "start": 40.4495,
      "duration": 0.1647,
      "velocity": 116,
      "chip": "ym2612"
    },
    {
      "channel": 2,
      "note": 43,
      "start": 40.4526,
      "duration": 0.1609,
      "velocity": 116,
      "chip": "ym2612"
    },
    {
      "channel": 1,
      "note": 71,
      "start": 40.5828,
      "duration": 0.0981,
      "velocity": 116,
      "chip": "ym2612"
    },
    {
      "channel": 0,
      "note": 47,
      "start": 40.5858,
      "duration": 0.0944,
      "velocity": 116,
      "chip": "ym2612"
    },
    {
      "channel": 4,
      "note": 74,
      "start": 40.6662,
      "duration": 0.1481,
      "velocity": 116,
      "chip": "ym2612"
    },
    {
      "channel": 2,
      "note": 50,
      "start": 40.6692,
      "duration": 0.1444,
      "velocity": 116,
      "chip": "ym2612"
    },
    {
      "channel": 3,
      "note": 67,
      "start": 40.7662,
      "duration": 0.1827,
      "velocity": 116,
      "chip": "ym2612"
    },
    {
      "channel": 0,
      "note": 43,
      "start": 40.7693,
      "duration": 0.1789,
      "velocity": 116,
      "chip": "ym2612"
    },
    {
      "channel": 1,
      "note": 71,
      "start": 40.8828,
      "duration": 0.1148,
      "velocity": 116,
      "chip": "ym2612"
    },
    {
      "channel": 2,
      "note": 47,
      "start": 40.8858,
      "duration": 0.1111,
      "velocity": 116,
      "chip": "ym2612"
    },
    {
      "channel": 4,
      "note": 74,
      "start": 40.9828,
      "duration": 0.1314,
      "velocity": 116,
      "chip": "ym2612"
    },
    {
      "channel": 0,
      "note": 50,
      "start": 40.9859,
      "duration": 0.1276,
      "velocity": 116,
      "chip": "ym2612"
    },
    {
      "channel": 3,
      "note": 67,
      "start": 41.0828,
      "duration": 0.1647,
      "velocity": 116,
      "chip": "ym2612"
    },
    {
      "channel": 2,
      "note": 43,
      "start": 41.0859,
      "duration": 0.161,
      "velocity": 116,
      "chip": "ym2612"
    },
    {
      "channel": 1,
      "note": 71,
      "start": 41.1994,
      "duration": 0.0981,
      "velocity": 116,
      "chip": "ym2612"
    },
    {
      "channel": 0,
      "note": 47,
      "start": 41.2025,
      "duration": 0.0944,
      "velocity": 116,
      "chip": "ym2612"
    },
    {
      "channel": 4,
      "note": 74,
      "start": 41.2829,
      "duration": 0.1147,
      "velocity": 116,
      "chip": "ym2612"
    },
    {
      "channel": 2,
      "note": 50,
      "start": 41.2859,
      "duration": 0.1109,
      "velocity": 116,
      "chip": "ym2612"
    },
    {
      "channel": 3,
      "note": 65,
      "start": 41.401,
      "duration": 0.1299,
      "velocity": 116,
      "chip": "ym2612"
    },
    {
      "channel": 0,
      "note": 41,
      "start": 41.4041,
      "duration": 0.1261,
      "velocity": 116,
      "chip": "ym2612"
    },
    {
      "channel": 1,
      "note": 71,
      "start": 41.4994,
      "duration": 0.1148,
      "velocity": 116,
      "chip": "ym2612"
    },
    {
      "channel": 2,
      "note": 47,
      "start": 41.5025,
      "duration": 0.1111,
      "velocity": 116,
      "chip": "ym2612"
    },
    {
      "channel": 4,
      "note": 74,
      "start": 41.5995,
      "duration": 0.0876,
      "velocity": 116,
      "chip": "ym2612"
    },
    {
      "channel": 0,
      "note": 50,
      "start": 41.6025,
      "duration": 0.0839,
      "velocity": 116,
      "chip": "ym2612"
    },
    {
      "channel": 3,
      "note": 65,
      "start": 41.6829,
      "duration": 0.1647,
      "velocity": 116,
      "chip": "ym2612"
    },
    {
      "channel": 2,
      "note": 41,
      "start": 41.6859,
      "duration": 0.1609,
      "velocity": 116,
      "chip": "ym2612"
    },
    {
      "channel": 1,
      "note": 71,
      "start": 41.7828,
      "duration": 0.1315,
      "velocity": 116,
      "chip": "ym2612"
    },
    {
      "channel": 0,
      "note": 47,
      "start": 41.7858,
      "duration": 0.1277,
      "velocity": 116,
      "chip": "ym2612"
    },
    {
      "channel": 4,
      "note": 74,
      "start": 41.8995,
      "duration": 0.1148,
      "velocity": 116,
      "chip": "ym2612"
    },
    {
      "channel": 2,
      "note": 50,
      "start": 41.9025,
      "duration": 0.111,
      "velocity": 116,
      "chip": "ym2612"
    },
    {
      "channel": 3,
      "note": 65,
      "start": 41.9995,
      "duration": 0.1313,
      "velocity": 116,
      "chip": "ym2612"
    },
    {
      "channel": 0,
      "note": 41,
      "start": 42.0026,
      "duration": 0.1276,
      "velocity": 116,
      "chip": "ym2612"
    },
    {
      "channel": 1,
      "note": 71,
      "start": 42.0994,
      "duration": 0.1148,
      "velocity": 116,
      "chip": "ym2612"
    },
    {
      "channel": 2,
      "note": 47,
      "start": 42.1025,
      "duration": 0.111,
      "velocity": 116,
      "chip": "ym2612"
    },
    {
      "channel": 4,
      "note": 74,
      "start": 42.1829,
      "duration": 0.148,
      "velocity": 116,
      "chip": "ym2612"
    },
    {
      "channel": 0,
      "note": 50,
      "start": 42.1859,
      "duration": 0.1442,
      "velocity": 116,
      "chip": "ym2612"
    },
    {
      "channel": 3,
      "note": 65,
      "start": 42.2995,
      "duration": 0.1647,
      "velocity": 116,
      "chip": "ym2612"
    },
    {
      "channel": 2,
      "note": 41,
      "start": 42.3026,
      "duration": 0.161,
      "velocity": 116,
      "chip": "ym2612"
    },
    {
      "channel": 1,
      "note": 71,
      "start": 42.3994,
      "duration": 0.1148,
      "velocity": 116,
      "chip": "ym2612"
    },
    {
      "channel": 0,
      "note": 47,
      "start": 42.4025,
      "duration": 0.111,
      "velocity": 116,
      "chip": "ym2612"
    },
    {
      "channel": 4,
      "note": 74,
      "start": 42.4995,
      "duration": 0.1481,
      "velocity": 116,
      "chip": "ym2612"
    },
    {
      "channel": 2,
      "note": 50,
      "start": 42.5025,
      "duration": 0.1444,
      "velocity": 116,
      "chip": "ym2612"
    },
    {
      "channel": 3,
      "note": 66,
      "start": 42.5995,
      "duration": 0.1647,
      "velocity": 116,
      "chip": "ym2612"
    },
    {
      "channel": 0,
      "note": 42,
      "start": 42.6026,
      "duration": 0.1609,
      "velocity": 116,
      "chip": "ym2612"
    },
    {
      "channel": 1,
      "note": 71,
      "start": 42.7161,
      "duration": 0.1148,
      "velocity": 116,
      "chip": "ym2612"
    },
    {
      "channel": 2,
      "note": 47,
      "start": 42.7191,
      "duration": 0.1111,
      "velocity": 116,
      "chip": "ym2612"
    },
    {
      "channel": 4,
      "note": 74,
      "start": 42.8162,
      "duration": 0.1147,
      "velocity": 116,
      "chip": "ym2612"
    },
    {
      "channel": 0,
      "note": 50,
      "start": 42.8193,
      "duration": 0.1109,
      "velocity": 116,
      "chip": "ym2612"
    },
    {
      "channel": 3,
      "note": 66,
      "start": 42.9162,
      "duration": 0.1481,
      "velocity": 116,
      "chip": "ym2612"
    },
    {
      "channel": 2,
      "note": 42,
      "start": 42.9192,
      "duration": 0.1443,
      "velocity": 116,
      "chip": "ym2612"
    },
    {
      "channel": 1,
      "note": 71,
      "start": 43.016,
      "duration": 0.1315,
      "velocity": 116,
      "chip": "ym2612"
    },
    {
      "channel": 0,
      "note": 47,
      "start": 43.0191,
      "duration": 0.1278,
      "velocity": 116,
      "chip": "ym2612"
    },
    {
      "channel": 4,
      "note": 74,
      "start": 43.1329,
      "duration": 0.1148,
      "velocity": 116,
      "chip": "ym2612"
    },
    {
      "channel": 2,
      "note": 50,
      "start": 43.1359,
      "duration": 0.111,
      "velocity": 116,
      "chip": "ym2612"
    },
    {
      "channel": 3,
      "note": 66,
      "start": 43.2328,
      "duration": 0.1481,
      "velocity": 116,
      "chip": "ym2612"
    },
    {
      "channel": 0,
      "note": 42,
      "start": 43.2359,
      "duration": 0.1443,
      "velocity": 116,
      "chip": "ym2612"
    },
    {
      "channel": 1,
      "note": 71,
      "start": 43.3328,
      "duration": 0.1148,
      "velocity": 116,
      "chip": "ym2612"
    },
    {
      "channel": 2,
      "note": 47,
      "start": 43.3358,
      "duration": 0.1111,
      "velocity": 116,
      "chip": "ym2612"
    },
    {
      "channel": 4,
      "note": 74,
      "start": 43.4329,
      "duration": 0.148,
      "velocity": 116,
      "chip": "ym2612"
    },
    {
      "channel": 0,
      "note": 50,
      "start": 43.4359,
      "duration": 0.1442,
      "velocity": 116,
      "chip": "ym2612"
    },
    {
      "channel": 3,
      "note": 66,
      "start": 43.5509,
      "duration": 0.1467,
      "velocity": 116,
      "chip": "ym2612"
    },
    {
      "channel": 2,
      "note": 42,
      "start": 43.5539,
      "duration": 0.1429,
      "velocity": 116,
      "chip": "ym2612"
    },
    {
      "channel": 1,
      "note": 71,
      "start": 43.6494,
      "duration": 0.0981,
      "velocity": 116,
      "chip": "ym2612"
    },
    {
      "channel": 0,
      "note": 47,
      "start": 43.6525,
      "duration": 0.0944,
      "velocity": 116,
      "chip": "ym2612"
    },
    {
      "channel": 4,
      "note": 74,
      "start": 43.701,
      "duration": 0.1133,
      "velocity": 116,
      "chip": "ym2612"
    },
    {
      "channel": 2,
      "note": 50,
      "start": 43.7041,
      "duration": 0.1095,
      "velocity": 116,
      "chip": "ym2612"
    },
    {
      "channel": 3,
      "note": 66,
      "start": 43.8329,
      "duration": 0.1827,
      "velocity": 116,
      "chip": "ym2612"
    },
    {
      "channel": 0,
      "note": 42,
      "start": 43.8359,
      "duration": 0.1789,
      "velocity": 116,
      "chip": "ym2612"
    },
    {
      "channel": 1,
      "note": 70,
      "start": 43.9494,
      "duration": 0.1315,
      "velocity": 116,
      "chip": "ym2612"
    },
    {
      "channel": 2,
      "note": 46,
      "start": 43.9525,
      "duration": 0.1278,
      "velocity": 116,
      "chip": "ym2612"
    },
    {
      "channel": 4,
      "note": 73,
      "start": 44.0662,
      "duration": 0.1147,
      "velocity": 116,
      "chip": "ym2612"
    },
    {
      "channel": 0,
      "note": 49,
      "start": 44.0693,
      "duration": 0.1109,
      "velocity": 116,
      "chip": "ym2612"
    },
    {
      "channel": 3,
      "note": 66,
      "start": 44.1662,
      "duration": 0.1481,
      "velocity": 116,
      "chip": "ym2612"
    },
    {
      "channel": 2,
      "note": 42,
      "start": 44.1692,
      "duration": 0.1444,
      "velocity": 116,
      "chip": "ym2612"
    },
    {
      "channel": 1,
      "note": 70,
      "start": 44.266,
      "duration": 0.1148,
      "velocity": 116,
      "chip": "ym2612"
    },
    {
      "channel": 0,
      "note": 46,
      "start": 44.2691,
      "duration": 0.1111,
      "velocity": 116,
      "chip": "ym2612"
    },
    {
      "channel": 4,
      "note": 73,
      "start": 44.3662,
      "duration": 0.1209,
      "velocity": 116,
      "chip": "ym2612"
    },
    {
      "channel": 2,
      "note": 49,
      "start": 44.3693,
      "duration": 0.1171,
      "velocity": 116,
      "chip": "ym2612"
    },
    {
      "channel": 3,
      "note": 66,
      "start": 44.4828,
      "duration": 0.1481,
      "velocity": 116,
      "chip": "ym2612"
    },
    {
      "channel": 0,
      "note": 42,
      "start": 44.4859,
      "duration": 0.1443,
      "velocity": 116,
      "chip": "ym2612"
    },
    {
      "channel": 1,
      "note": 70,
      "start": 44.5828,
      "duration": 0.1315,
      "velocity": 116,
      "chip": "ym2612"
    },
    {
      "channel": 2,
      "note": 46,
      "start": 44.5858,
      "duration": 0.1278,
      "velocity": 116,
      "chip": "ym2612"
    },
    {
      "channel": 4,
      "note": 73,
      "start": 44.6995,
      "duration": 0.1147,
      "velocity": 116,
      "chip": "ym2612"
    },
    {
      "channel": 0,
      "note": 49,
      "start": 44.7025,
      "duration": 0.111,
      "velocity": 116,
      "chip": "ym2612"
    },
    {
      "channel": 3,
      "note": 66,
      "start": 44.7995,
      "duration": 0.1981,
      "velocity": 116,
      "chip": "ym2612"
    },
    {
      "channel": 2,
      "note": 42,
      "start": 44.8025,
      "duration": 0.1943,
      "velocity": 116,
      "chip": "ym2612"
    },
    {
      "channel": 1,
      "note": 70,
      "start": 44.8994,
      "duration": 0.1315,
      "velocity": 116,
      "chip": "ym2612"
    },
    {
      "channel": 0,
      "note": 46,
      "start": 44.9024,
      "duration": 0.1277,
      "velocity": 116,
      "chip": "ym2612"
    },
    {
      "channel": 4,
      "note": 73,
      "start": 45.0162,
      "duration": 0.1314,
      "velocity": 116,
      "chip": "ym2612"
    },
    {
      "channel": 2,
      "note": 49,
      "start": 45.0192,
      "duration": 0.1276,
      "velocity": 116,
      "chip": "ym2612"
    },
    {
      "channel": 3,
      "note": 71,
      "start": 45.2829,
      "duration": 2.3146,
      "velocity": 116,
      "chip": "ym2612"
    },
    {
      "channel": 0,
      "note": 47,
      "start": 45.2859,
      "duration": 2.3109,
      "velocity": 116,
      "chip": "ym2612"
    },
    {
      "channel": 1,
      "note": 94,
      "start": 48.8829,
      "duration": 0.614,
      "velocity": 1,
      "chip": "ym2612"
    },
    {
      "channel": 0,
      "note": 90,
      "start": 49.8994,
      "duration": 0.0006,
      "velocity": 111,
      "chip": "ym2612"
    }
  ]
}