{
  "track_name": "04 - Cart Ride",
  "duration_sec": 25.998,
  "sample_rate": 44100,
  "note_count": 508,
  "unique_pitches": 29,
  "pitch_range": 53,
  "avg_note_duration": 0.0588,
  "reconstruction_stats": {
    "notes_reconstructed": 508,
    "keyon_events": 508,
    "keyoff_events": 482,
    "orphan_keyons": 0,
    "unique_pitches": 29,
    "pitch_range": 53,
    "avg_duration_sec": 0.0588
  },
  "metadata": {
    "source": "T\\Toki\\04 - Cart Ride.vgm"
  },
  "notes": [
    {
      "channel": 0,
      "note": 57,
      "start": 0.0039,
      "duration": 0.0559,
      "velocity": 107,
      "chip": "ym2612"
    },
    {
      "channel": 1,
      "note": 73,
      "start": 0.0048,
      "duration": 0.0058,
      "velocity": 94,
      "chip": "ym2612"
    },
    {
      "channel": 4,
      "note": 69,
      "start": 0.0078,
      "duration": 0.0014,
      "velocity": 46,
      "chip": "ym2612"
    },
    {
      "channel": 4,
      "note": 69,
      "start": 0.01,
      "duration": 0.0166,
      "velocity": 46,
      "chip": "ym2612"
    },
    {
      "channel": 1,
      "note": 74,
      "start": 0.0601,
      "duration": 0.1497,
      "velocity": 94,
      "chip": "ym2612"
    },
    {
      "channel": 2,
      "note": 76,
      "start": 0.0605,
      "duration": 0.0661,
      "velocity": 111,
      "chip": "ym2612"
    },
    {
      "channel": 3,
      "note": 73,
      "start": 0.0607,
      "duration": 0.066,
      "velocity": 111,
      "chip": "ym2612"
    },
    {
      "channel": 4,
      "note": 81,
      "start": 0.061,
      "duration": 0.0659,
      "velocity": 46,
      "chip": "ym2612"
    },
    {
      "channel": 4,
      "note": 69,
      "start": 0.1601,
      "duration": 0.0665,
      "velocity": 46,
      "chip": "ym2612"
    },
    {
      "channel": 0,
      "note": 57,
      "start": 0.2601,
      "duration": 0.01,
      "velocity": 107,
      "chip": "ym2612"
    },
    {
      "channel": 4,
      "note": 69,
      "start": 0.2605,
      "duration": 0.003,
      "velocity": 46,
      "chip": "ym2612"
    },
    {
      "channel": 4,
      "note": 81,
      "start": 0.2655,
      "duration": 0.0035,
      "velocity": 46,
      "chip": "ym2612"
    },
    {
      "channel": 1,
      "note": 76,
      "start": 0.2704,
      "duration": 0.1706,
      "velocity": 94,
      "chip": "ym2612"
    },
    {
      "channel": 2,
      "note": 76,
      "start": 0.2707,
      "duration": 0.0348,
      "velocity": 111,
      "chip": "ym2612"
    },
    {
      "channel": 3,
      "note": 73,
      "start": 0.2709,
      "duration": 0.0348,
      "velocity": 111,
      "chip": "ym2612"
    },
    {
      "channel": 4,
      "note": 69,
      "start": 0.2712,
      "duration": 0.0347,
      "velocity": 46,
      "chip": "ym2612"
    },
    {
      "channel": 4,
      "note": 69,
      "start": 0.3391,
      "duration": 0.0665,
      "velocity": 46,
      "chip": "ym2612"
    },
    {
      "channel": 0,
      "note": 57,
      "start": 0.439,
      "duration": 0.0559,
      "velocity": 107,
      "chip": "ym2612"
    },
    {
      "channel": 4,
      "note": 69,
      "start": 0.4394,
      "duration": 0.001,
      "velocity": 46,
      "chip": "ym2612"
    },
    {
      "channel": 4,
      "note": 69,
      "start": 0.4409,
      "duration": 0.0208,
      "velocity": 46,
      "chip": "ym2612"
    },
    {
      "channel": 0,
      "note": 52,
      "start": 0.4951,
      "duration": 0.1999,
      "velocity": 107,
      "chip": "ym2612"
    },
    {
      "channel": 1,
      "note": 74,
      "start": 0.4953,
      "duration": 0.1496,
      "velocity": 94,
      "chip": "ym2612"
    },
    {
      "channel": 2,
      "note": 76,
      "start": 0.4956,
      "duration": 0.066,
      "velocity": 111,
      "chip": "ym2612"
    },
    {
      "channel": 3,
      "note": 73,
      "start": 0.4959,
      "duration": 0.0659,
      "velocity": 111,
      "chip": "ym2612"
    },
    {
      "channel": 4,
      "note": 81,
      "start": 0.4962,
      "duration": 0.0658,
      "velocity": 46,
      "chip": "ym2612"
    },
    {
      "channel": 4,
      "note": 69,
      "start": 0.5953,
      "duration": 0.0664,
      "velocity": 46,
      "chip": "ym2612"
    },
    {
      "channel": 0,
      "note": 55,
      "start": 0.6951,
      "duration": 0.0068,
      "velocity": 107,
      "chip": "ym2612"
    },
    {
      "channel": 1,
      "note": 73,
      "start": 0.6954,
      "duration": 0.0051,
      "velocity": 94,
      "chip": "ym2612"
    },
    {
      "channel": 4,
      "note": 69,
      "start": 0.6957,
      "duration": 0.0022,
      "velocity": 46,
      "chip": "ym2612"
    },
    {
      "channel": 4,
      "note": 81,
      "start": 0.6992,
      "duration": 0.002,
      "velocity": 46,
      "chip": "ym2612"
    },
    {
      "channel": 0,
      "note": 56,
      "start": 0.7022,
      "duration": 0.1681,
      "velocity": 107,
      "chip": "ym2612"
    },
    {
      "channel": 1,
      "note": 73,
      "start": 0.7024,
      "duration": 0.1683,
      "velocity": 94,
      "chip": "ym2612"
    },
    {
      "channel": 2,
      "note": 76,
      "start": 0.7026,
      "duration": 0.0343,
      "velocity": 111,
      "chip": "ym2612"
    },
    {
      "channel": 3,
      "note": 73,
      "start": 0.7029,
      "duration": 0.0342,
      "velocity": 111,
      "chip": "ym2612"
    },
    {
      "channel": 4,
      "note": 69,
      "start": 0.7031,
      "duration": 0.0341,
      "velocity": 46,
      "chip": "ym2612"
    },
    {
      "channel": 4,
      "note": 69,
      "start": 0.7705,
      "duration": 0.0664,
      "velocity": 46,
      "chip": "ym2612"
    },
    {
      "channel": 0,
      "note": 57,
      "start": 0.8705,
      "duration": 0.0559,
      "velocity": 107,
      "chip": "ym2612"
    },
    {
      "channel": 1,
      "note": 73,
      "start": 0.8706,
      "duration": 0.0058,
      "velocity": 94,
      "chip": "ym2612"
    },
    {
      "channel": 4,
      "note": 69,
      "start": 0.8709,
      "duration": 0.0014,
      "velocity": 46,
      "chip": "ym2612"
    },
    {
      "channel": 4,
      "note": 69,
      "start": 0.8728,
      "duration": 0.0204,
      "velocity": 46,
      "chip": "ym2612"
    },
    {
      "channel": 1,
      "note": 74,
      "start": 0.9266,
      "duration": 0.1497,
      "velocity": 94,
      "chip": "ym2612"
    },
    {
      "channel": 2,
      "note": 76,
      "start": 0.927,
      "duration": 0.0661,
      "velocity": 111,
      "chip": "ym2612"
    },
    {
      "channel": 3,
      "note": 73,
      "start": 0.9272,
      "duration": 0.066,
      "velocity": 111,
      "chip": "ym2612"
    },
    {
      "channel": 4,
      "note": 81,
      "start": 0.9276,
      "duration": 0.0659,
      "velocity": 46,
      "chip": "ym2612"
    },
    {
      "channel": 4,
      "note": 69,
      "start": 1.0266,
      "duration": 0.0665,
      "velocity": 46,
      "chip": "ym2612"
    },
    {
      "channel": 0,
      "note": 57,
      "start": 1.1266,
      "duration": 0.0094,
      "velocity": 107,
      "chip": "ym2612"
    },
    {
      "channel": 4,
      "note": 69,
      "start": 1.127,
      "duration": 0.003,
      "velocity": 46,
      "chip": "ym2612"
    },
    {
      "channel": 4,
      "note": 81,
      "start": 1.132,
      "duration": 0.0025,
      "velocity": 46,
      "chip": "ym2612"
    },
    {
      "channel": 1,
      "note": 76,
      "start": 1.1362,
      "duration": 0.1707,
      "velocity": 94,
      "chip": "ym2612"
    },
    {
      "channel": 2,
      "note": 76,
      "start": 1.1365,
      "duration": 0.0348,
      "velocity": 111,
      "chip": "ym2612"
    },
    {
      "channel": 3,
      "note": 73,
      "start": 1.1367,
      "duration": 0.0348,
      "velocity": 111,
      "chip": "ym2612"
    },
    {
      "channel": 4,
      "note": 69,
      "start": 1.137,
      "duration": 0.0347,
      "velocity": 46,
      "chip": "ym2612"
    },
    {
      "channel": 4,
      "note": 69,
      "start": 1.2049,
      "duration": 0.0665,
      "velocity": 46,
      "chip": "ym2612"
    },
    {
      "channel": 0,
      "note": 57,
      "start": 1.3049,
      "duration": 0.0559,
      "velocity": 107,
      "chip": "ym2612"
    },
    {
      "channel": 4,
      "note": 69,
      "start": 1.3052,
      "duration": 0.001,
      "velocity": 46,
      "chip": "ym2612"
    },
    {
      "channel": 4,
      "note": 69,
      "start": 1.3068,
      "duration": 0.0208,
      "velocity": 46,
      "chip": "ym2612"
    },
    {
      "channel": 0,
      "note": 52,
      "start": 1.3609,
      "duration": 0.1999,
      "velocity": 107,
      "chip": "ym2612"
    },
    {
      "channel": 1,
      "note": 74,
      "start": 1.3612,
      "duration": 0.1496,
      "velocity": 94,
      "chip": "ym2612"
    },
    {
      "channel": 2,
      "note": 76,
      "start": 1.3615,
      "duration": 0.066,
      "velocity": 111,
      "chip": "ym2612"
    },
    {
      "channel": 3,
      "note": 73,
      "start": 1.3617,
      "duration": 0.0659,
      "velocity": 111,
      "chip": "ym2612"
    },
    {
      "channel": 4,
      "note": 81,
      "start": 1.3621,
      "duration": 0.0658,
      "velocity": 46,
      "chip": "ym2612"
    },
    {
      "channel": 4,
      "note": 69,
      "start": 1.4611,
      "duration": 0.0664,
      "velocity": 46,
      "chip": "ym2612"
    },
    {
      "channel": 0,
      "note": 56,
      "start": 1.561,
      "duration": 0.0068,
      "velocity": 107,
      "chip": "ym2612"
    },
    {
      "channel": 1,
      "note": 73,
      "start": 1.5613,
      "duration": 0.0051,
      "velocity": 94,
      "chip": "ym2612"
    },
    {
      "channel": 4,
      "note": 69,
      "start": 1.5615,
      "duration": 0.0022,
      "velocity": 46,
      "chip": "ym2612"
    },
    {
      "channel": 4,
      "note": 81,
      "start": 1.5651,
      "duration": 0.002,
      "velocity": 46,
      "chip": "ym2612"
    },
    {
      "channel": 0,
      "note": 54,
      "start": 1.568,
      "duration": 0.1681,
      "velocity": 107,
      "chip": "ym2612"
    },
    {
      "channel": 1,
      "note": 73,
      "start": 1.5682,
      "duration": 0.1682,
      "velocity": 94,
      "chip": "ym2612"
    },
    {
      "channel": 2,
      "note": 76,
      "start": 1.5685,
      "duration": 0.0342,
      "velocity": 111,
      "chip": "ym2612"
    },
    {
      "channel": 3,
      "note": 73,
      "start": 1.5688,
      "duration": 0.0342,
      "velocity": 111,
      "chip": "ym2612"
    },
    {
      "channel": 4,
      "note": 69,
      "start": 1.569,
      "duration": 0.0341,
      "velocity": 46,
      "chip": "ym2612"
    },
    {
      "channel": 4,
      "note": 69,
      "start": 1.6364,
      "duration": 0.0664,
      "velocity": 46,
      "chip": "ym2612"
    },
    {
      "channel": 0,
      "note": 52,
      "start": 1.7363,
      "duration": 0.0562,
      "velocity": 107,
      "chip": "ym2612"
    },
    {
      "channel": 1,
      "note": 73,
      "start": 1.7365,
      "duration": 0.0061,
      "velocity": 94,
      "chip": "ym2612"
    },
    {
      "channel": 4,
      "note": 76,
      "start": 1.7367,
      "duration": 0.0014,
      "velocity": 46,
      "chip": "ym2612"
    },
    {
      "channel": 4,
      "note": 76,
      "start": 1.739,
      "duration": 0.0203,
      "velocity": 46,
      "chip": "ym2612"
    },
    {
      "channel": 1,
      "note": 71,
      "start": 1.7928,
      "duration": 0.1497,
      "velocity": 94,
      "chip": "ym2612"
    },
    {
      "channel": 2,
      "note": 80,
      "start": 1.7932,
      "duration": 0.0661,
      "velocity": 111,
      "chip": "ym2612"
    },
    {
      "channel": 3,
      "note": 71,
      "start": 1.7934,
      "duration": 0.066,
      "velocity": 111,
      "chip": "ym2612"
    },
    {
      "channel": 4,
      "note": 88,
      "start": 1.7937,
      "duration": 0.0659,
      "velocity": 46,
      "chip": "ym2612"
    },
    {
      "channel": 4,
      "note": 76,
      "start": 1.8928,
      "duration": 0.0665,
      "velocity": 46,
      "chip": "ym2612"
    },
    {
      "channel": 0,
      "note": 52,
      "start": 1.9928,
      "duration": 0.01,
      "velocity": 107,
      "chip": "ym2612"
    },
    {
      "channel": 4,
      "note": 76,
      "start": 1.9932,
      "duration": 0.003,
      "velocity": 46,
      "chip": "ym2612"
    },
    {
      "channel": 4,
      "note": 88,
      "start": 1.9982,
      "duration": 0.0035,
      "velocity": 46,
      "chip": "ym2612"
    },
    {
      "channel": 1,
      "note": 71,
      "start": 2.0031,
      "duration": 0.291,
      "velocity": 94,
      "chip": "ym2612"
    },
    {
      "channel": 2,
      "note": 80,
      "start": 2.0034,
      "duration": 0.0348,
      "velocity": 111,
      "chip": "ym2612"
    },
    {
      "channel": 3,
      "note": 71,
      "start": 2.0036,
      "duration": 0.0348,
      "velocity": 111,
      "chip": "ym2612"
    },
    {
      "channel": 4,
      "note": 76,
      "start": 2.0039,
      "duration": 0.0347,
      "velocity": 46,
      "chip": "ym2612"
    },
    {
      "channel": 4,
      "note": 76,
      "start": 2.0718,
      "duration": 0.0665,
      "velocity": 46,
      "chip": "ym2612"
    },
    {
      "channel": 0,
      "note": 52,
      "start": 2.1717,
      "duration": 0.0557,
      "velocity": 107,
      "chip": "ym2612"
    },
    {
      "channel": 4,
      "note": 76,
      "start": 2.1721,
      "duration": 0.001,
      "velocity": 46,
      "chip": "ym2612"
    },
    {
      "channel": 4,
      "note": 76,
      "start": 2.1736,
      "duration": 0.0207,
      "velocity": 46,
      "chip": "ym2612"
    },
    {
      "channel": 0,
      "note": 47,
      "start": 2.2276,
      "duration": 0.1999,
      "velocity": 107,
      "chip": "ym2612"
    },
    {
      "channel": 2,
      "note": 80,
      "start": 2.228,
      "duration": 0.0662,
      "velocity": 111,
      "chip": "ym2612"
    },
    {
      "channel": 3,
      "note": 71,
      "start": 2.2283,
      "duration": 0.0661,
      "velocity": 111,
      "chip": "ym2612"
    },
    {
      "channel": 4,
      "note": 88,
      "start": 2.2286,
      "duration": 0.0661,
      "velocity": 46,
      "chip": "ym2612"
    },
    {
      "channel": 4,
      "note": 76,
      "start": 2.3277,
      "duration": 0.0665,
      "velocity": 46,
      "chip": "ym2612"
    },
    {
      "channel": 0,
      "note": 50,
      "start": 2.4277,
      "duration": 0.0076,
      "velocity": 107,
      "chip": "ym2612"
    },
    {
      "channel": 4,
      "note": 76,
      "start": 2.4281,
      "duration": 0.003,
      "velocity": 46,
      "chip": "ym2612"
    },
    {
      "channel": 4,
      "note": 88,
      "start": 2.4331,
      "duration": 0.0017,
      "velocity": 46,
      "chip": "ym2612"
    },
    {
      "channel": 0,
      "note": 51,
      "start": 2.4354,
      "duration": 0.1688,
      "velocity": 107,
      "chip": "ym2612"
    },
    {
      "channel": 1,
      "note": 73,
      "start": 2.4357,
      "duration": 0.1688,
      "velocity": 94,
      "chip": "ym2612"
    },
    {
      "channel": 2,
      "note": 80,
      "start": 2.436,
      "duration": 0.0348,
      "velocity": 111,
      "chip": "ym2612"
    },
    {
      "channel": 3,
      "note": 71,
      "start": 2.4363,
      "duration": 0.0347,
      "velocity": 111,
      "chip": "ym2612"
    },
    {
      "channel": 4,
      "note": 76,
      "start": 2.4365,
      "duration": 0.0346,
      "velocity": 46,
      "chip": "ym2612"
    },
    {
      "channel": 4,
      "note": 76,
      "start": 2.5044,
      "duration": 0.0664,
      "velocity": 46,
      "chip": "ym2612"
    },
    {
      "channel": 0,
      "note": 52,
      "start": 2.6044,
      "duration": 0.0559,
      "velocity": 107,
      "chip": "ym2612"
    },
    {
      "channel": 1,
      "note": 73,
      "start": 2.6045,
      "duration": 0.0058,
      "velocity": 94,
      "chip": "ym2612"
    },
    {
      "channel": 4,
      "note": 76,
      "start": 2.6048,
      "duration": 0.0014,
      "velocity": 46,
      "chip": "ym2612"
    },
    {
      "channel": 4,
      "note": 76,
      "start": 2.6067,
      "duration": 0.0204,
      "velocity": 46,
      "chip": "ym2612"
    },
    {
      "channel": 1,
      "note": 71,
      "start": 2.6605,
      "duration": 0.1497,
      "velocity": 94,
      "chip": "ym2612"
    },
    {
      "channel": 2,
      "note": 80,
      "start": 2.6609,
      "duration": 0.0661,
      "velocity": 111,
      "chip": "ym2612"
    },
    {
      "channel": 3,
      "note": 71,
      "start": 2.6611,
      "duration": 0.066,
      "velocity": 111,
      "chip": "ym2612"
    },
    {
      "channel": 4,
      "note": 88,
      "start": 2.6615,
      "duration": 0.0659,
      "velocity": 46,
      "chip": "ym2612"
    },
    {
      "channel": 4,
      "note": 76,
      "start": 2.7605,
      "duration": 0.0665,
      "velocity": 46,
      "chip": "ym2612"
    },
    {
      "channel": 0,
      "note": 52,
      "start": 2.8605,
      "duration": 0.0094,
      "velocity": 107,
      "chip": "ym2612"
    },
    {
      "channel": 4,
      "note": 76,
      "start": 2.8609,
      "duration": 0.003,
      "velocity": 46,
      "chip": "ym2612"
    },
    {
      "channel": 4,
      "note": 88,
      "start": 2.8659,
      "duration": 0.0025,
      "velocity": 46,
      "chip": "ym2612"
    },
    {
      "channel": 1,
      "note": 71,
      "start": 2.8701,
      "duration": 0.2912,
      "velocity": 94,
      "chip": "ym2612"
    },
    {
      "channel": 2,
      "note": 80,
      "start": 2.8704,
      "duration": 0.0348,
      "velocity": 111,
      "chip": "ym2612"
    },
    {
      "channel": 3,
      "note": 71,
      "start": 2.8706,
      "duration": 0.0348,
      "velocity": 111,
      "chip": "ym2612"
    },
    {
      "channel": 4,
      "note": 76,
      "start": 2.8709,
      "duration": 0.0347,
      "velocity": 46,
      "chip": "ym2612"
    },
    {
      "channel": 4,
      "note": 76,
      "start": 2.9388,
      "duration": 0.0665,
      "velocity": 46,
      "chip": "ym2612"
    },
    {
      "channel": 0,
      "note": 52,
      "start": 3.0388,
      "duration": 0.0557,
      "velocity": 107,
      "chip": "ym2612"
    },
    {
      "channel": 4,
      "note": 76,
      "start": 3.0391,
      "duration": 0.001,
      "velocity": 46,
      "chip": "ym2612"
    },
    {
      "channel": 4,
      "note": 76,
      "start": 3.0407,
      "duration": 0.0207,
      "velocity": 46,
      "chip": "ym2612"
    },
    {
      "channel": 0,
      "note": 54,
      "start": 3.0947,
      "duration": 0.1999,
      "velocity": 107,
      "chip": "ym2612"
    },
    {
      "channel": 2,
      "note": 80,
      "start": 3.0951,
      "duration": 0.0662,
      "velocity": 111,
      "chip": "ym2612"
    },
    {
      "channel": 3,
      "note": 71,
      "start": 3.0954,
      "duration": 0.0661,
      "velocity": 111,
      "chip": "ym2612"
    },
    {
      "channel": 4,
      "note": 88,
      "start": 3.0957,
      "duration": 0.0661,
      "velocity": 46,
      "chip": "ym2612"
    },
    {
      "channel": 4,
      "note": 76,
      "start": 3.1948,
      "duration": 0.0665,
      "velocity": 46,
      "chip": "ym2612"
    },
    {
      "channel": 0,
      "note": 55,
      "start": 3.2948,
      "duration": 0.008,
      "velocity": 107,
      "chip": "ym2612"
    },
    {
      "channel": 4,
      "note": 76,
      "start": 3.2952,
      "duration": 0.003,
      "velocity": 46,
      "chip": "ym2612"
    },
    {
      "channel": 4,
      "note": 88,
      "start": 3.3002,
      "duration": 0.0022,
      "velocity": 46,
      "chip": "ym2612"
    },
    {
      "channel": 0,
      "note": 56,
      "start": 3.3029,
      "duration": 0.1684,
      "velocity": 107,
      "chip": "ym2612"
    },
    {
      "channel": 1,
      "note": 73,
      "start": 3.3032,
      "duration": 0.1685,
      "velocity": 94,
      "chip": "ym2612"
    },
    {
      "channel": 2,
      "note": 80,
      "start": 3.3034,
      "duration": 0.0345,
      "velocity": 111,
      "chip": "ym2612"
    },
    {
      "channel": 3,
      "note": 71,
      "start": 3.3037,
      "duration": 0.0344,
      "velocity": 111,
      "chip": "ym2612"
    },
    {
      "channel": 4,
      "note": 76,
      "start": 3.3039,
      "duration": 0.0344,
      "velocity": 46,
      "chip": "ym2612"
    },
    {
      "channel": 4,
      "note": 76,
      "start": 3.3716,
      "duration": 0.0664,
      "velocity": 46,
      "chip": "ym2612"
    },
    {
      "channel": 0,
      "note": 57,
      "start": 3.4715,
      "duration": 0.0562,
      "velocity": 107,
      "chip": "ym2612"
    },
    {
      "channel": 1,
      "note": 73,
      "start": 3.4717,
      "duration": 0.0061,
      "velocity": 94,
      "chip": "ym2612"
    },
    {
      "channel": 4,
      "note": 69,
      "start": 3.4723,
      "duration": 0.0016,
      "velocity": 46,
      "chip": "ym2612"
    },
    {
      "channel": 4,
      "note": 69,
      "start": 3.4742,
      "duration": 0.0203,
      "velocity": 46,
      "chip": "ym2612"
    },
    {
      "channel": 1,
      "note": 74,
      "start": 3.528,
      "duration": 0.1497,
      "velocity": 94,
      "chip": "ym2612"
    },
    {
      "channel": 2,
      "note": 76,
      "start": 3.5283,
      "duration": 0.0661,
      "velocity": 111,
      "chip": "ym2612"
    },
    {
      "channel": 3,
      "note": 73,
      "start": 3.5286,
      "duration": 0.066,
      "velocity": 111,
      "chip": "ym2612"
    },
    {
      "channel": 4,
      "note": 81,
      "start": 3.5289,
      "duration": 0.0659,
      "velocity": 46,
      "chip": "ym2612"
    },
    {
      "channel": 4,
      "note": 69,
      "start": 3.628,
      "duration": 0.0665,
      "velocity": 46,
      "chip": "ym2612"
    },
    {
      "channel": 0,
      "note": 57,
      "start": 3.728,
      "duration": 0.01,
      "velocity": 107,
      "chip": "ym2612"
    },
    {
      "channel": 4,
      "note": 69,
      "start": 3.7284,
      "duration": 0.003,
      "velocity": 46,
      "chip": "ym2612"
    },
    {
      "channel": 4,
      "note": 81,
      "start": 3.7334,
      "duration": 0.0035,
      "velocity": 46,
      "chip": "ym2612"
    },
    {
      "channel": 1,
      "note": 76,
      "start": 3.7383,
      "duration": 0.1706,
      "velocity": 94,
      "chip": "ym2612"
    },
    {
      "channel": 2,
      "note": 76,
      "start": 3.7386,
      "duration": 0.0348,
      "velocity": 111,
      "chip": "ym2612"
    },
    {
      "channel": 3,
      "note": 73,
      "start": 3.7388,
      "duration": 0.0348,
      "velocity": 111,
      "chip": "ym2612"
    },
    {
      "channel": 4,
      "note": 69,
      "start": 3.7391,
      "duration": 0.0347,
      "velocity": 46,
      "chip": "ym2612"
    },
    {
      "channel": 4,
      "note": 69,
      "start": 3.807,
      "duration": 0.0665,
      "velocity": 46,
      "chip": "ym2612"
    },
    {
      "channel": 0,
      "note": 57,
      "start": 3.9069,
      "duration": 0.0559,
      "velocity": 107,
      "chip": "ym2612"
    },
    {
      "channel": 4,
      "note": 69,
      "start": 3.9073,
      "duration": 0.001,
      "velocity": 46,
      "chip": "ym2612"
    },
    {
      "channel": 4,
      "note": 69,
      "start": 3.9088,
      "duration": 0.0208,
      "velocity": 46,
      "chip": "ym2612"
    },
    {
      "channel": 0,
      "note": 52,
      "start": 3.963,
      "duration": 0.1999,
      "velocity": 107,
      "chip": "ym2612"
    },
    {
      "channel": 1,
      "note": 74,
      "start": 3.9632,
      "duration": 0.1496,
      "velocity": 94,
      "chip": "ym2612"
    },
    {
      "channel": 2,
      "note": 76,
      "start": 3.9635,
      "duration": 0.066,
      "velocity": 111,
      "chip": "ym2612"
    },
    {
      "channel": 3,
      "note": 73,
      "start": 3.9638,
      "duration": 0.0659,
      "velocity": 111,
      "chip": "ym2612"
    },
    {
      "channel": 4,
      "note": 81,
      "start": 3.9641,
      "duration": 0.0658,
      "velocity": 46,
      "chip": "ym2612"
    },
    {
      "channel": 4,
      "note": 69,
      "start": 4.0632,
      "duration": 0.0664,
      "velocity": 46,
      "chip": "ym2612"
    },
    {
      "channel": 0,
      "note": 55,
      "start": 4.163,
      "duration": 0.0068,
      "velocity": 107,
      "chip": "ym2612"
    },
    {
      "channel": 1,
      "note": 73,
      "start": 4.1633,
      "duration": 0.0051,
      "velocity": 94,
      "chip": "ym2612"
    },
    {
      "channel": 4,
      "note": 69,
      "start": 4.1636,
      "duration": 0.0022,
      "velocity": 46,
      "chip": "ym2612"
    },
    {
      "channel": 4,
      "note": 81,
      "start": 4.1671,
      "duration": 0.002,
      "velocity": 46,
      "chip": "ym2612"
    },
    {
      "channel": 0,
      "note": 56,
      "start": 4.17,
      "duration": 0.1681,
      "velocity": 107,
      "chip": "ym2612"
    },
    {
      "channel": 1,
      "note": 73,
      "start": 4.1703,
      "duration": 0.1683,
      "velocity": 94,
      "chip": "ym2612"
    },
    {
      "channel": 2,
      "note": 76,
      "start": 4.1705,
      "duration": 0.0343,
      "velocity": 111,
      "chip": "ym2612"
    },
    {
      "channel": 3,
      "note": 73,
      "start": 4.1708,
      "duration": 0.0342,
      "velocity": 111,
      "chip": "ym2612"
    },
    {
      "channel": 4,
      "note": 69,
      "start": 4.171,
      "duration": 0.0341,
      "velocity": 46,
      "chip": "ym2612"
    },
    {
      "channel": 4,
      "note": 69,
      "start": 4.2384,
      "duration": 0.0664,
      "velocity": 46,
      "chip": "ym2612"
    },
    {
      "channel": 0,
      "note": 57,
      "start": 4.3384,
      "duration": 0.0562,
      "velocity": 107,
      "chip": "ym2612"
    },
    {
      "channel": 1,
      "note": 73,
      "start": 4.3385,
      "duration": 0.0061,
      "velocity": 94,
      "chip": "ym2612"
    },
    {
      "channel": 4,
      "note": 69,
      "start": 4.3388,
      "duration": 0.0014,
      "velocity": 46,
      "chip": "ym2612"
    },
    {
      "channel": 4,
      "note": 69,
      "start": 4.3411,
      "duration": 0.0203,
      "velocity": 46,
      "chip": "ym2612"
    },
    {
      "channel": 1,
      "note": 74,
      "start": 4.3949,
      "duration": 0.1497,
      "velocity": 94,
      "chip": "ym2612"
    },
    {
      "channel": 2,
      "note": 76,
      "start": 4.3952,
      "duration": 0.0661,
      "velocity": 111,
      "chip": "ym2612"
    },
    {
      "channel": 3,
      "note": 73,
      "start": 4.3955,
      "duration": 0.066,
      "velocity": 111,
      "chip": "ym2612"
    },
    {
      "channel": 4,
      "note": 81,
      "start": 4.3958,
      "duration": 0.0659,
      "velocity": 46,
      "chip": "ym2612"
    },
    {
      "channel": 4,
      "note": 69,
      "start": 4.4949,
      "duration": 0.0665,
      "velocity": 46,
      "chip": "ym2612"
    },
    {
      "channel": 0,
      "note": 57,
      "start": 4.5949,
      "duration": 0.01,
      "velocity": 107,
      "chip": "ym2612"
    },
    {
      "channel": 4,
      "note": 69,
      "start": 4.5952,
      "duration": 0.003,
      "velocity": 46,
      "chip": "ym2612"
    },
    {
      "channel": 4,
      "note": 81,
      "start": 4.6002,
      "duration": 0.0035,
      "velocity": 46,
      "chip": "ym2612"
    },
    {
      "channel": 1,
      "note": 76,
      "start": 4.6052,
      "duration": 0.1706,
      "velocity": 94,
      "chip": "ym2612"
    },
    {
      "channel": 2,
      "note": 76,
      "start": 4.6054,
      "duration": 0.0348,
      "velocity": 111,
      "chip": "ym2612"
    },
    {
      "channel": 3,
      "note": 73,
      "start": 4.6056,
      "duration": 0.0348,
      "velocity": 111,
      "chip": "ym2612"
    },
    {
      "channel": 4,
      "note": 69,
      "start": 4.6059,
      "duration": 0.0347,
      "velocity": 46,
      "chip": "ym2612"
    },
    {
      "channel": 4,
      "note": 69,
      "start": 4.6738,
      "duration": 0.0665,
      "velocity": 46,
      "chip": "ym2612"
    },
    {
      "channel": 0,
      "note": 57,
      "start": 4.7738,
      "duration": 0.0559,
      "velocity": 107,
      "chip": "ym2612"
    },
    {
      "channel": 4,
      "note": 69,
      "start": 4.7741,
      "duration": 0.001,
      "velocity": 46,
      "chip": "ym2612"
    },
    {
      "channel": 4,
      "note": 69,
      "start": 4.7757,
      "duration": 0.0208,
      "velocity": 46,
      "chip": "ym2612"
    },
    {
      "channel": 0,
      "note": 52,
      "start": 4.8298,
      "duration": 0.1999,
      "velocity": 107,
      "chip": "ym2612"
    },
    {
      "channel": 1,
      "note": 74,
      "start": 4.8301,
      "duration": 0.1496,
      "velocity": 94,
      "chip": "ym2612"
    },
    {
      "channel": 2,
      "note": 76,
      "start": 4.8304,
      "duration": 0.066,
      "velocity": 111,
      "chip": "ym2612"
    },
    {
      "channel": 3,
      "note": 73,
      "start": 4.8307,
      "duration": 0.0659,
      "velocity": 111,
      "chip": "ym2612"
    },
    {
      "channel": 4,
      "note": 81,
      "start": 4.831,
      "duration": 0.0658,
      "velocity": 46,
      "chip": "ym2612"
    },
    {
      "channel": 4,
      "note": 69,
      "start": 4.93,
      "duration": 0.0664,
      "velocity": 46,
      "chip": "ym2612"
    },
    {
      "channel": 0,
      "note": 56,
      "start": 5.0299,
      "duration": 0.0068,
      "velocity": 107,
      "chip": "ym2612"
    },
    {
      "channel": 1,
      "note": 73,
      "start": 5.0302,
      "duration": 0.0051,
      "velocity": 94,
      "chip": "ym2612"
    },
    {
      "channel": 4,
      "note": 69,
      "start": 5.0305,
      "duration": 0.0022,
      "velocity": 46,
      "chip": "ym2612"
    },
    {
      "channel": 4,
      "note": 81,
      "start": 5.034,
      "duration": 0.002,
      "velocity": 46,
      "chip": "ym2612"
    },
    {
      "channel": 0,
      "note": 54,
      "start": 5.0369,
      "duration": 0.1681,
      "velocity": 107,
      "chip": "ym2612"
    },
    {
      "channel": 1,
      "note": 73,
      "start": 5.0371,
      "duration": 0.1683,
      "velocity": 94,
      "chip": "ym2612"
    },
    {
      "channel": 2,
      "note": 76,
      "start": 5.0374,
      "duration": 0.0343,
      "velocity": 111,
      "chip": "ym2612"
    },
    {
      "channel": 3,
      "note": 73,
      "start": 5.0377,
      "duration": 0.0342,
      "velocity": 111,
      "chip": "ym2612"
    },
    {
      "channel": 4,
      "note": 69,
      "start": 5.0379,
      "duration": 0.0341,
      "velocity": 46,
      "chip": "ym2612"
    },
    {
      "channel": 4,
      "note": 69,
      "start": 5.1053,
      "duration": 0.0664,
      "velocity": 46,
      "chip": "ym2612"
    },
    {
      "channel": 0,
      "note": 52,
      "start": 5.2052,
      "duration": 0.0559,
      "velocity": 107,
      "chip": "ym2612"
    },
    {
      "channel": 1,
      "note": 73,
      "start": 5.2054,
      "duration": 0.0058,
      "velocity": 94,
      "chip": "ym2612"
    },
    {
      "channel": 4,
      "note": 76,
      "start": 5.2056,
      "duration": 0.0014,
      "velocity": 46,
      "chip": "ym2612"
    },
    {
      "channel": 4,
      "note": 76,
      "start": 5.2075,
      "duration": 0.0204,
      "velocity": 46,
      "chip": "ym2612"
    },
    {
      "channel": 1,
      "note": 71,
      "start": 5.2614,
      "duration": 0.1497,
      "velocity": 94,
      "chip": "ym2612"
    },
    {
      "channel": 2,
      "note": 80,
      "start": 5.2617,
      "duration": 0.0661,
      "velocity": 111,
      "chip": "ym2612"
    },
    {
      "channel": 3,
      "note": 71,
      "start": 5.262,
      "duration": 0.066,
      "velocity": 111,
      "chip": "ym2612"
    },
    {
      "channel": 4,
      "note": 88,
      "start": 5.2623,
      "duration": 0.0659,
      "velocity": 46,
      "chip": "ym2612"
    },
    {
      "channel": 4,
      "note": 76,
      "start": 5.3614,
      "duration": 0.0665,
      "velocity": 46,
      "chip": "ym2612"
    },
    {
      "channel": 0,
      "note": 52,
      "start": 5.4614,
      "duration": 0.0094,
      "velocity": 107,
      "chip": "ym2612"
    },
    {
      "channel": 4,
      "note": 76,
      "start": 5.4617,
      "duration": 0.003,
      "velocity": 46,
      "chip": "ym2612"
    },
    {
      "channel": 4,
      "note": 88,
      "start": 5.4668,
      "duration": 0.0025,
      "velocity": 46,
      "chip": "ym2612"
    },
    {
      "channel": 1,
      "note": 71,
      "start": 5.4709,
      "duration": 0.2912,
      "velocity": 94,
      "chip": "ym2612"
    },
    {
      "channel": 2,
      "note": 80,
      "start": 5.4713,
      "duration": 0.0348,
      "velocity": 111,
      "chip": "ym2612"
    },
    {
      "channel": 3,
      "note": 71,
      "start": 5.4715,
      "duration": 0.0348,
      "velocity": 111,
      "chip": "ym2612"
    },
    {
      "channel": 4,
      "note": 76,
      "start": 5.4718,
      "duration": 0.0347,
      "velocity": 46,
      "chip": "ym2612"
    },
    {
      "channel": 4,
      "note": 76,
      "start": 5.5397,
      "duration": 0.0665,
      "velocity": 46,
      "chip": "ym2612"
    },
    {
      "channel": 0,
      "note": 52,
      "start": 5.6396,
      "duration": 0.0557,
      "velocity": 107,
      "chip": "ym2612"
    },
    {
      "channel": 4,
      "note": 76,
      "start": 5.64,
      "duration": 0.001,
      "velocity": 46,
      "chip": "ym2612"
    },
    {
      "channel": 4,
      "note": 76,
      "start": 5.6415,
      "duration": 0.0207,
      "velocity": 46,
      "chip": "ym2612"
    },
    {
      "channel": 0,
      "note": 47,
      "start": 5.6956,
      "duration": 0.1999,
      "velocity": 107,
      "chip": "ym2612"
    },
    {
      "channel": 2,
      "note": 80,
      "start": 5.696,
      "duration": 0.0662,
      "velocity": 111,
      "chip": "ym2612"
    },
    {
      "channel": 3,
      "note": 71,
      "start": 5.6963,
      "duration": 0.0661,
      "velocity": 111,
      "chip": "ym2612"
    },
    {
      "channel": 4,
      "note": 88,
      "start": 5.6965,
      "duration": 0.0661,
      "velocity": 46,
      "chip": "ym2612"
    },
    {
      "channel": 4,
      "note": 76,
      "start": 5.7957,
      "duration": 0.0665,
      "velocity": 46,
      "chip": "ym2612"
    },
    {
      "channel": 0,
      "note": 50,
      "start": 5.8956,
      "duration": 0.0076,
      "velocity": 107,
      "chip": "ym2612"
    },
    {
      "channel": 4,
      "note": 76,
      "start": 5.896,
      "duration": 0.003,
      "velocity": 46,
      "chip": "ym2612"
    },
    {
      "channel": 4,
      "note": 88,
      "start": 5.901,
      "duration": 0.0017,
      "velocity": 46,
      "chip": "ym2612"
    },
    {
      "channel": 0,
      "note": 51,
      "start": 5.9033,
      "duration": 0.1688,
      "velocity": 107,
      "chip": "ym2612"
    },
    {
      "channel": 1,
      "note": 73,
      "start": 5.9037,
      "duration": 0.1689,
      "velocity": 94,
      "chip": "ym2612"
    },
    {
      "channel": 2,
      "note": 80,
      "start": 5.9039,
      "duration": 0.0348,
      "velocity": 111,
      "chip": "ym2612"
    },
    {
      "channel": 3,
      "note": 71,
      "start": 5.9043,
      "duration": 0.0347,
      "velocity": 111,
      "chip": "ym2612"
    },
    {
      "channel": 4,
      "note": 76,
      "start": 5.9045,
      "duration": 0.0346,
      "velocity": 46,
      "chip": "ym2612"
    },
    {
      "channel": 4,
      "note": 76,
      "start": 5.9724,
      "duration": 0.0664,
      "velocity": 46,
      "chip": "ym2612"
    },
    {
      "channel": 0,
      "note": 52,
      "start": 6.0723,
      "duration": 0.0061,
      "velocity": 107,
      "chip": "ym2612"
    },
    {
      "channel": 1,
      "note": 73,
      "start": 6.0725,
      "duration": 0.0046,
      "velocity": 94,
      "chip": "ym2612"
    },
    {
      "channel": 4,
      "note": 76,
      "start": 6.0729,
      "duration": 0.0015,
      "velocity": 46,
      "chip": "ym2612"
    },
    {
      "channel": 4,
      "note": 76,
      "start": 6.0761,
      "duration": 0.0016,
      "velocity": 46,
      "chip": "ym2612"
    },
    {
      "channel": 0,
      "note": 64,
      "start": 6.0786,
      "duration": 0.004,
      "velocity": 107,
      "chip": "ym2612"
    },
    {
      "channel": 1,
      "note": 71,
      "start": 6.079,
      "duration": 0.0055,
      "velocity": 94,
      "chip": "ym2612"
    },
    {
      "channel": 2,
      "note": 80,
      "start": 6.0791,
      "duration": 0.0025,
      "velocity": 111,
      "chip": "ym2612"
    },
    {
      "channel": 3,
      "note": 71,
      "start": 6.0794,
      "duration": 0.0023,
      "velocity": 111,
      "chip": "ym2612"
    },
    {
      "channel": 4,
      "note": 88,
      "start": 6.0796,
      "duration": 0.0022,
      "velocity": 46,
      "chip": "ym2612"
    },
    {
      "channel": 4,
      "note": 76,
      "start": 6.083,
      "duration": 0.0025,
      "velocity": 46,
      "chip": "ym2612"
    },
    {
      "channel": 0,
      "note": 50,
      "start": 6.0869,
      "duration": 0.0055,
      "velocity": 107,
      "chip": "ym2612"
    },
    {
      "channel": 4,
      "note": 76,
      "start": 6.0873,
      "duration": 0.0019,
      "velocity": 46,
      "chip": "ym2612"
    },
    {
      "channel": 4,
      "note": 88,
      "start": 6.0903,
      "duration": 0.0014,
      "velocity": 46,
      "chip": "ym2612"
    },
    {
      "channel": 0,
      "note": 62,
      "start": 6.0926,
      "duration": 0.0045,
      "velocity": 107,
      "chip": "ym2612"
    },
    {
      "channel": 1,
      "note": 71,
      "start": 6.0929,
      "duration": 0.0199,
      "velocity": 94,
      "chip": "ym2612"
    },
    {
      "channel": 2,
      "note": 80,
      "start": 6.0932,
      "duration": 0.0032,
      "velocity": 111,
      "chip": "ym2612"
    },
    {
      "channel": 3,
      "note": 71,
      "start": 6.0934,
      "duration": 0.0031,
      "velocity": 111,
      "chip": "ym2612"
    },
    {
      "channel": 4,
      "note": 76,
      "start": 6.0937,
      "duration": 0.0028,
      "velocity": 46,
      "chip": "ym2612"
    },
    {
      "channel": 4,
      "note": 76,
      "start": 6.0975,
      "duration": 0.0023,
      "velocity": 46,
      "chip": "ym2612"
    },
    {
      "channel": 0,
      "note": 49,
      "start": 6.1011,
      "duration": 0.0086,
      "velocity": 107,
      "chip": "ym2612"
    },
    {
      "channel": 4,
      "note": 76,
      "start": 6.1015,
      "duration": 0.003,
      "velocity": 46,
      "chip": "ym2612"
    },
    {
      "channel": 4,
      "note": 76,
      "start": 6.1057,
      "duration": 0.0028,
      "velocity": 46,
      "chip": "ym2612"
    },
    {
      "channel": 0,
      "note": 61,
      "start": 6.1099,
      "duration": 0.0045,
      "velocity": 107,
      "chip": "ym2612"
    },
    {
      "channel": 2,
      "note": 80,
      "start": 6.1103,
      "duration": 0.0026,
      "velocity": 111,
      "chip": "ym2612"
    },
    {
      "channel": 3,
      "note": 71,
      "start": 6.1106,
      "duration": 0.0024,
      "velocity": 111,
      "chip": "ym2612"
    },
    {
      "channel": 4,
      "note": 88,
      "start": 6.1108,
      "duration": 0.0024,
      "velocity": 46,
      "chip": "ym2612"
    },
    {
      "channel": 4,
      "note": 76,
      "start": 6.1149,
      "duration": 0.0023,
      "velocity": 46,
      "chip": "ym2612"
    },
    {
      "channel": 0,
      "note": 47,
      "start": 6.1193,
      "duration": 0.0071,
      "velocity": 107,
      "chip": "ym2612"
    },
    {
      "channel": 4,
      "note": 76,
      "start": 6.1196,
      "duration": 0.0018,
      "velocity": 46,
      "chip": "ym2612"
    },
    {
      "channel": 4,
      "note": 88,
      "start": 6.1228,
      "duration": 0.0023,
      "velocity": 46,
      "chip": "ym2612"
    },
    {
      "channel": 0,
      "note": 59,
      "start": 6.1266,
      "duration": 0.0031,
      "velocity": 107,
      "chip": "ym2612"
    },
    {
      "channel": 2,
      "note": 80,
      "start": 6.127,
      "duration": 0.0022,
      "velocity": 111,
      "chip": "ym2612"
    },
    {
      "channel": 3,
      "note": 71,
      "start": 6.1272,
      "duration": 0.0022,
      "velocity": 111,
      "chip": "ym2612"
    },
    {
      "channel": 4,
      "note": 76,
      "start": 6.1275,
      "duration": 0.002,
      "velocity": 46,
      "chip": "ym2612"
    },
    {
      "channel": 4,
      "note": 76,
      "start": 6.1302,
      "duration": 0.0011,
      "velocity": 46,
      "chip": "ym2612"
    },
    {
      "channel": 0,
      "note": 54,
      "start": 6.1325,
      "duration": 0.057,
      "velocity": 107,
      "chip": "ym2612"
    },
    {
      "channel": 1,
      "note": 85,
      "start": 6.1334,
      "duration": 0.2749,
      "velocity": 94,
      "chip": "ym2612"
    },
    {
      "channel": 2,
      "note": 66,
      "start": 6.1346,
      "duration": 0.5383,
      "velocity": 99,
      "chip": "ym2612"
    },
    {
      "channel": 3,
      "note": 61,
      "start": 6.1358,
      "duration": 0.5372,
      "velocity": 99,
      "chip": "ym2612"
    },
    {
      "channel": 4,
      "note": 90,
      "start": 6.1362,
      "duration": 0.0019,
      "velocity": 46,
      "chip": "ym2612"
    },
    {
      "channel": 0,
      "note": 66,
      "start": 6.1898,
      "duration": 0.0998,
      "velocity": 107,
      "chip": "ym2612"
    },
    {
      "channel": 4,
      "note": 90,
      "start": 6.1902,
      "duration": 0.0663,
      "velocity": 46,
      "chip": "ym2612"
    },
    {
      "channel": 4,
      "note": 90,
      "start": 6.2902,
      "duration": 0.0663,
      "velocity": 46,
      "chip": "ym2612"
    },
    {
      "channel": 0,
      "note": 49,
      "start": 6.3898,
      "duration": 0.0071,
      "velocity": 107,
      "chip": "ym2612"
    },
    {
      "channel": 4,
      "note": 90,
      "start": 6.3946,
      "duration": 0.0017,
      "velocity": 46,
      "chip": "ym2612"
    },
    {
      "channel": 0,
      "note": 61,
      "start": 6.3971,
      "duration": 0.002,
      "velocity": 107,
      "chip": "ym2612"
    },
    {
      "channel": 4,
      "note": 90,
      "start": 6.3974,
      "duration": 0.0014,
      "velocity": 46,
      "chip": "ym2612"
    },
    {
      "channel": 0,
      "note": 52,
      "start": 6.4028,
      "duration": 0.0555,
      "velocity": 107,
      "chip": "ym2612"
    },
    {
      "channel": 4,
      "note": 90,
      "start": 6.4046,
      "duration": 0.0205,
      "velocity": 46,
      "chip": "ym2612"
    },
    {
      "channel": 0,
      "note": 52,
      "start": 6.4585,
      "duration": 0.0998,
      "velocity": 107,
      "chip": "ym2612"
    },
    {
      "channel": 1,
      "note": 81,
      "start": 6.4588,
      "duration": 0.1495,
      "velocity": 94,
      "chip": "ym2612"
    },
    {
      "channel": 4,
      "note": 90,
      "start": 6.4592,
      "duration": 0.066,
      "velocity": 46,
      "chip": "ym2612"
    },
    {
      "channel": 4,
      "note": 90,
      "start": 6.5588,
      "duration": 0.0663,
      "velocity": 46,
      "chip": "ym2612"
    },
    {
      "channel": 0,
      "note": 65,
      "start": 6.6586,
      "duration": 0.0077,
      "velocity": 107,
      "chip": "ym2612"
    },
    {
      "channel": 1,
      "note": 83,
      "start": 6.6589,
      "duration": 0.0055,
      "velocity": 94,
      "chip": "ym2612"
    },
    {
      "channel": 4,
      "note": 90,
      "start": 6.6592,
      "duration": 0.0034,
      "velocity": 46,
      "chip": "ym2612"
    },
    {
      "channel": 0,
      "note": 54,
      "start": 6.6665,
      "duration": 0.0061,
      "velocity": 107,
      "chip": "ym2612"
    },
    {
      "channel": 1,
      "note": 85,
      "start": 6.6667,
      "duration": 0.0061,
      "velocity": 94,
      "chip": "ym2612"
    },
    {
      "channel": 4,
      "note": 90,
      "start": 6.667,
      "duration": 0.0024,
      "velocity": 46,
      "chip": "ym2612"
    },
    {
      "channel": 4,
      "note": 90,
      "start": 6.6697,
      "duration": 0.0019,
      "velocity": 46,
      "chip": "ym2612"
    },
    {
      "channel": 0,
      "note": 54,
      "start": 6.6726,
      "duration": 0.0558,
      "velocity": 107,
      "chip": "ym2612"
    },
    {
      "channel": 1,
      "note": 85,
      "start": 6.6727,
      "duration": 0.0056,
      "velocity": 94,
      "chip": "ym2612"
    },
    {
      "channel": 2,
      "note": 66,
      "start": 6.6729,
      "duration": 0.5372,
      "velocity": 99,
      "chip": "ym2612"
    },
    {
      "channel": 3,
      "note": 61,
      "start": 6.6731,
      "duration": 0.5373,
      "velocity": 99,
      "chip": "ym2612"
    },
    {
      "channel": 4,
      "note": 90,
      "start": 6.6734,
      "duration": 0.0014,
      "velocity": 46,
      "chip": "ym2612"
    },
    {
      "channel": 0,
      "note": 66,
      "start": 6.7285,
      "duration": 0.0998,
      "velocity": 107,
      "chip": "ym2612"
    },
    {
      "channel": 1,
      "note": 86,
      "start": 6.7288,
      "duration": 0.2043,
      "velocity": 94,
      "chip": "ym2612"
    },
    {
      "channel": 4,
      "note": 90,
      "start": 6.7293,
      "duration": 0.0659,
      "velocity": 46,
      "chip": "ym2612"
    },
    {
      "channel": 4,
      "note": 90,
      "start": 6.829,
      "duration": 0.0663,
      "velocity": 46,
      "chip": "ym2612"
    },
    {
      "channel": 0,
      "note": 56,
      "start": 6.9286,
      "duration": 0.0075,
      "velocity": 107,
      "chip": "ym2612"
    },
    {
      "channel": 4,
      "note": 90,
      "start": 6.933,
      "duration": 0.0018,
      "velocity": 46,
      "chip": "ym2612"
    },
    {
      "channel": 0,
      "note": 68,
      "start": 6.9362,
      "duration": 0.0041,
      "velocity": 107,
      "chip": "ym2612"
    },
    {
      "channel": 1,
      "note": 88,
      "start": 6.9366,
      "duration": 0.0102,
      "velocity": 94,
      "chip": "ym2612"
    },
    {
      "channel": 4,
      "note": 90,
      "start": 6.937,
      "duration": 0.0024,
      "velocity": 46,
      "chip": "ym2612"
    },
    {
      "channel": 0,
      "note": 57,
      "start": 6.9443,
      "duration": 0.0556,
      "velocity": 107,
      "chip": "ym2612"
    },
    {
      "channel": 4,
      "note": 90,
      "start": 6.9466,
      "duration": 0.0203,
      "velocity": 46,
      "chip": "ym2612"
    },
    {
      "channel": 0,
      "note": 69,
      "start": 7.0001,
      "duration": 0.0998,
      "velocity": 107,
      "chip": "ym2612"
    },
    {
      "channel": 1,
      "note": 86,
      "start": 7.0003,
      "duration": 0.1495,
      "velocity": 94,
      "chip": "ym2612"
    },
    {
      "channel": 4,
      "note": 90,
      "start": 7.0009,
      "duration": 0.0659,
      "velocity": 46,
      "chip": "ym2612"
    },
    {
      "channel": 4,
      "note": 90,
      "start": 7.1005,
      "duration": 0.0664,
      "velocity": 46,
      "chip": "ym2612"
    },
    {
      "channel": 0,
      "note": 56,
      "start": 7.2002,
      "duration": 0.0074,
      "velocity": 107,
      "chip": "ym2612"
    },
    {
      "channel": 1,
      "note": 85,
      "start": 7.2005,
      "duration": 0.0059,
      "velocity": 94,
      "chip": "ym2612"
    },
    {
      "channel": 4,
      "note": 90,
      "start": 7.2011,
      "duration": 0.0029,
      "velocity": 46,
      "chip": "ym2612"
    },
    {
      "channel": 0,
      "note": 52,
      "start": 7.2078,
      "duration": 0.0068,
      "velocity": 107,
      "chip": "ym2612"
    },
    {
      "channel": 1,
      "note": 85,
      "start": 7.2081,
      "duration": 0.0067,
      "velocity": 94,
      "chip": "ym2612"
    },
    {
      "channel": 4,
      "note": 90,
      "start": 7.2085,
      "duration": 0.0019,
      "velocity": 46,
      "chip": "ym2612"
    },
    {
      "channel": 4,
      "note": 90,
      "start": 7.2117,
      "duration": 0.0016,
      "velocity": 46,
      "chip": "ym2612"
    },
    {
      "channel": 0,
      "note": 52,
      "start": 7.2146,
      "duration": 0.0563,
      "velocity": 107,
      "chip": "ym2612"
    },
    {
      "channel": 1,
      "note": 85,
      "start": 7.2148,
      "duration": 0.0062,
      "velocity": 94,
      "chip": "ym2612"
    },
    {
      "channel": 2,
      "note": 64,
      "start": 7.215,
      "duration": 0.54,
      "velocity": 99,
      "chip": "ym2612"
    },
    {
      "channel": 3,
      "note": 59,
      "start": 7.2152,
      "duration": 0.54,
      "velocity": 99,
      "chip": "ym2612"
    },
    {
      "channel": 4,
      "note": 88,
      "start": 7.2177,
      "duration": 0.02,
      "velocity": 46,
      "chip": "ym2612"
    },
    {
      "channel": 0,
      "note": 52,
      "start": 7.2711,
      "duration": 0.0998,
      "velocity": 107,
      "chip": "ym2612"
    },
    {
      "channel": 1,
      "note": 83,
      "start": 7.2714,
      "duration": 0.1495,
      "velocity": 94,
      "chip": "ym2612"
    },
    {
      "channel": 4,
      "note": 88,
      "start": 7.2718,
      "duration": 0.066,
      "velocity": 46,
      "chip": "ym2612"
    },
    {
      "channel": 4,
      "note": 88,
      "start": 7.3714,
      "duration": 0.0663,
      "velocity": 46,
      "chip": "ym2612"
    },
    {
      "channel": 0,
      "note": 52,
      "start": 7.4712,
      "duration": 0.0064,
      "velocity": 107,
      "chip": "ym2612"
    },
    {
      "channel": 4,
      "note": 88,
      "start": 7.4716,
      "duration": 0.0029,
      "velocity": 46,
      "chip": "ym2612"
    },
    {
      "channel": 4,
      "note": 100,
      "start": 7.4754,
      "duration": 0.0014,
      "velocity": 46,
      "chip": "ym2612"
    },
    {
      "channel": 0,
      "note": 49,
      "start": 7.4778,
      "duration": 0.0025,
      "velocity": 107,
      "chip": "ym2612"
    },
    {
      "channel": 1,
      "note": 83,
      "start": 7.478,
      "duration": 0.1287,
      "velocity": 94,
      "chip": "ym2612"
    },
    {
      "channel": 4,
      "note": 88,
      "start": 7.4784,
      "duration": 0.001,
      "velocity": 46,
      "chip": "ym2612"
    },
    {
      "channel": 4,
      "note": 88,
      "start": 7.4807,
      "duration": 0.0027,
      "velocity": 46,
      "chip": "ym2612"
    },
    {
      "channel": 0,
      "note": 50,
      "start": 7.4847,
      "duration": 0.0553,
      "velocity": 107,
      "chip": "ym2612"
    },
    {
      "channel": 4,
      "note": 88,
      "start": 7.4863,
      "duration": 0.0206,
      "velocity": 46,
      "chip": "ym2612"
    },
    {
      "channel": 0,
      "note": 49,
      "start": 7.5402,
      "duration": 0.0998,
      "velocity": 107,
      "chip": "ym2612"
    },
    {
      "channel": 4,
      "note": 88,
      "start": 7.5407,
      "duration": 0.0663,
      "velocity": 46,
      "chip": "ym2612"
    },
    {
      "channel": 4,
      "note": 100,
      "start": 7.6405,
      "duration": 0.0663,
      "velocity": 46,
      "chip": "ym2612"
    },
    {
      "channel": 0,
      "note": 50,
      "start": 7.7403,
      "duration": 0.0076,
      "velocity": 107,
      "chip": "ym2612"
    },
    {
      "channel": 4,
      "note": 88,
      "start": 7.7407,
      "duration": 0.0029,
      "velocity": 46,
      "chip": "ym2612"
    },
    {
      "channel": 4,
      "note": 88,
      "start": 7.745,
      "duration": 0.0019,
      "velocity": 46,
      "chip": "ym2612"
    },
    {
      "channel": 0,
      "note": 52,
      "start": 7.7481,
      "duration": 0.0066,
      "velocity": 107,
      "chip": "ym2612"
    },
    {
      "channel": 1,
      "note": 85,
      "start": 7.7484,
      "duration": 0.0064,
      "velocity": 94,
      "chip": "ym2612"
    },
    {
      "channel": 4,
      "note": 88,
      "start": 7.7487,
      "duration": 0.002,
      "velocity": 46,
      "chip": "ym2612"
    },
    {
      "channel": 0,
      "note": 52,
      "start": 7.7546,
      "duration": 0.0558,
      "velocity": 107,
      "chip": "ym2612"
    },
    {
      "channel": 1,
      "note": 85,
      "start": 7.7548,
      "duration": 0.0057,
      "velocity": 94,
      "chip": "ym2612"
    },
    {
      "channel": 2,
      "note": 64,
      "start": 7.755,
      "duration": 0.3929,
      "velocity": 99,
      "chip": "ym2612"
    },
    {
      "channel": 3,
      "note": 59,
      "start": 7.7552,
      "duration": 0.3928,
      "velocity": 99,
      "chip": "ym2612"
    },
    {
      "channel": 4,
      "note": 88,
      "start": 7.7571,
      "duration": 0.0203,
      "velocity": 46,
      "chip": "ym2612"
    },
    {
      "channel": 0,
      "note": 64,
      "start": 7.8107,
      "duration": 0.0998,
      "velocity": 107,
      "chip": "ym2612"
    },
    {
      "channel": 1,
      "note": 83,
      "start": 7.8109,
      "duration": 0.1495,
      "velocity": 94,
      "chip": "ym2612"
    },
    {
      "channel": 4,
      "note": 88,
      "start": 7.8115,
      "duration": 0.0659,
      "velocity": 46,
      "chip": "ym2612"
    },
    {
      "channel": 4,
      "note": 88,
      "start": 7.9111,
      "duration": 0.0663,
      "velocity": 46,
      "chip": "ym2612"
    },
    {
      "channel": 0,
      "note": 54,
      "start": 8.0107,
      "duration": 0.0076,
      "velocity": 107,
      "chip": "ym2612"
    },
    {
      "channel": 4,
      "note": 88,
      "start": 8.0113,
      "duration": 0.0028,
      "velocity": 46,
      "chip": "ym2612"
    },
    {
      "channel": 4,
      "note": 100,
      "start": 8.0156,
      "duration": 0.0018,
      "velocity": 46,
      "chip": "ym2612"
    },
    {
      "channel": 0,
      "note": 52,
      "start": 8.0184,
      "duration": 0.0037,
      "velocity": 107,
      "chip": "ym2612"
    },
    {
      "channel": 1,
      "note": 83,
      "start": 8.0188,
      "duration": 0.2646,
      "velocity": 94,
      "chip": "ym2612"
    },
    {
      "channel": 4,
      "note": 88,
      "start": 8.0192,
      "duration": 0.0023,
      "velocity": 46,
      "chip": "ym2612"
    },
    {
      "channel": 4,
      "note": 88,
      "start": 8.0226,
      "duration": 0.0014,
      "velocity": 46,
      "chip": "ym2612"
    },
    {
      "channel": 0,
      "note": 50,
      "start": 8.0252,
      "duration": 0.0567,
      "velocity": 91,
      "chip": "ym2612"
    },
    {
      "channel": 4,
      "note": 88,
      "start": 8.0276,
      "duration": 0.0205,
      "velocity": 46,
      "chip": "ym2612"
    },
    {
      "channel": 0,
      "note": 62,
      "start": 8.082,
      "duration": 0.099,
      "velocity": 91,
      "chip": "ym2612"
    },
    {
      "channel": 4,
      "note": 88,
      "start": 8.0827,
      "duration": 0.0655,
      "velocity": 46,
      "chip": "ym2612"
    },
    {
      "channel": 4,
      "note": 100,
      "start": 8.1816,
      "duration": 0.0663,
      "velocity": 46,
      "chip": "ym2612"
    },
    {
      "channel": 0,
      "note": 52,
      "start": 8.282,
      "duration": 0.0054,
      "velocity": 91,
      "chip": "ym2612"
    },
    {
      "channel": 2,
      "note": 64,
      "start": 8.2823,
      "duration": 0.0054,
      "velocity": 99,
      "chip": "ym2612"
    },
    {
      "channel": 3,
      "note": 59,
      "start": 8.2828,
      "duration": 0.0052,
      "velocity": 99,
      "chip": "ym2612"
    },
    {
      "channel": 4,
      "note": 88,
      "start": 8.2831,
      "duration": 0.0008,
      "velocity": 46,
      "chip": "ym2612"
    },
    {
      "channel": 4,
      "note": 88,
      "start": 8.2847,
      "duration": 0.0016,
      "velocity": 46,
      "chip": "ym2612"
    },
    {
      "channel": 0,
      "note": 64,
      "start": 8.2876,
      "duration": 0.0039,
      "velocity": 91,
      "chip": "ym2612"
    },
    {
      "channel": 2,
      "note": 64,
      "start": 8.2879,
      "duration": 0.0076,
      "velocity": 99,
      "chip": "ym2612"
    },
    {
      "channel": 3,
      "note": 59,
      "start": 8.2882,
      "duration": 0.0075,
      "velocity": 99,
      "chip": "ym2612"
    },
    {
      "channel": 4,
      "note": 88,
      "start": 8.2885,
      "duration": 0.0023,
      "velocity": 46,
      "chip": "ym2612"
    },
    {
      "channel": 0,
      "note": 54,
      "start": 8.2952,
      "duration": 0.0556,
      "velocity": 107,
      "chip": "ym2612"
    },
    {
      "channel": 1,
      "note": 85,
      "start": 8.2954,
      "duration": 0.2741,
      "velocity": 94,
      "chip": "ym2612"
    },
    {
      "channel": 2,
      "note": 66,
      "start": 8.2957,
      "duration": 0.5384,
      "velocity": 99,
      "chip": "ym2612"
    },
    {
      "channel": 3,
      "note": 61,
      "start": 8.2959,
      "duration": 0.5383,
      "velocity": 99,
      "chip": "ym2612"
    },
    {
      "channel": 4,
      "note": 90,
      "start": 8.2963,
      "duration": 0.0014,
      "velocity": 46,
      "chip": "ym2612"
    },
    {
      "channel": 0,
      "note": 66,
      "start": 8.351,
      "duration": 0.0998,
      "velocity": 107,
      "chip": "ym2612"
    },
    {
      "channel": 4,
      "note": 90,
      "start": 8.3513,
      "duration": 0.0663,
      "velocity": 46,
      "chip": "ym2612"
    },
    {
      "channel": 4,
      "note": 90,
      "start": 8.4513,
      "duration": 0.0663,
      "velocity": 46,
      "chip": "ym2612"
    },
    {
      "channel": 0,
      "note": 49,
      "start": 8.551,
      "duration": 0.0071,
      "velocity": 107,
      "chip": "ym2612"
    },
    {
      "channel": 4,
      "note": 90,
      "start": 8.5558,
      "duration": 0.0017,
      "velocity": 46,
      "chip": "ym2612"
    },
    {
      "channel": 0,
      "note": 61,
      "start": 8.5582,
      "duration": 0.002,
      "velocity": 107,
      "chip": "ym2612"
    },
    {
      "channel": 4,
      "note": 90,
      "start": 8.5586,
      "duration": 0.0014,
      "velocity": 46,
      "chip": "ym2612"
    },
    {
      "channel": 0,
      "note": 52,
      "start": 8.564,
      "duration": 0.0555,
      "velocity": 107,
      "chip": "ym2612"
    },
    {
      "channel": 4,
      "note": 90,
      "start": 8.5658,
      "duration": 0.0205,
      "velocity": 46,
      "chip": "ym2612"
    },
    {
      "channel": 0,
      "note": 52,
      "start": 8.6197,
      "duration": 0.0998,
      "velocity": 107,
      "chip": "ym2612"
    },
    {
      "channel": 1,
      "note": 81,
      "start": 8.62,
      "duration": 0.1495,
      "velocity": 94,
      "chip": "ym2612"
    },
    {
      "channel": 4,
      "note": 90,
      "start": 8.6203,
      "duration": 0.066,
      "velocity": 46,
      "chip": "ym2612"
    },
    {
      "channel": 4,
      "note": 90,
      "start": 8.72,
      "duration": 0.0663,
      "velocity": 46,
      "chip": "ym2612"
    },
    {
      "channel": 0,
      "note": 65,
      "start": 8.8198,
      "duration": 0.0077,
      "velocity": 107,
      "chip": "ym2612"
    },
    {
      "channel": 1,
      "note": 83,
      "start": 8.8201,
      "duration": 0.0055,
      "velocity": 94,
      "chip": "ym2612"
    },
    {
      "channel": 4,
      "note": 90,
      "start": 8.8203,
      "duration": 0.0034,
      "velocity": 46,
      "chip": "ym2612"
    },
    {
      "channel": 0,
      "note": 54,
      "start": 8.8276,
      "duration": 0.0061,
      "velocity": 107,
      "chip": "ym2612"
    },
    {
      "channel": 1,
      "note": 85,
      "start": 8.8279,
      "duration": 0.0061,
      "velocity": 94,
      "chip": "ym2612"
    },
    {
      "channel": 4,
      "note": 90,
      "start": 8.8282,
      "duration": 0.0024,
      "velocity": 46,
      "chip": "ym2612"
    },
    {
      "channel": 4,
      "note": 90,
      "start": 8.8309,
      "duration": 0.0019,
      "velocity": 46,
      "chip": "ym2612"
    },
    {
      "channel": 0,
      "note": 54,
      "start": 8.8337,
      "duration": 0.0558,
      "velocity": 107,
      "chip": "ym2612"
    },
    {
      "channel": 1,
      "note": 85,
      "start": 8.8339,
      "duration": 0.0056,
      "velocity": 94,
      "chip": "ym2612"
    },
    {
      "channel": 2,
      "note": 66,
      "start": 8.8341,
      "duration": 0.5372,
      "velocity": 99,
      "chip": "ym2612"
    },
    {
      "channel": 3,
      "note": 61,
      "start": 8.8342,
      "duration": 0.5373,
      "velocity": 99,
      "chip": "ym2612"
    },
    {
      "channel": 4,
      "note": 90,
      "start": 8.8345,
      "duration": 0.0014,
      "velocity": 46,
      "chip": "ym2612"
    },
    {
      "channel": 0,
      "note": 66,
      "start": 8.8897,
      "duration": 0.0998,
      "velocity": 107,
      "chip": "ym2612"
    },
    {
      "channel": 1,
      "note": 86,
      "start": 8.89,
      "duration": 0.2043,
      "velocity": 94,
      "chip": "ym2612"
    },
    {
      "channel": 4,
      "note": 90,
      "start": 8.8905,
      "duration": 0.0659,
      "velocity": 46,
      "chip": "ym2612"
    },
    {
      "channel": 4,
      "note": 90,
      "start": 8.9901,
      "duration": 0.0663,
      "velocity": 46,
      "chip": "ym2612"
    },
    {
      "channel": 0,
      "note": 56,
      "start": 9.0898,
      "duration": 0.0075,
      "velocity": 107,
      "chip": "ym2612"
    },
    {
      "channel": 4,
      "note": 90,
      "start": 9.0942,
      "duration": 0.0018,
      "velocity": 46,
      "chip": "ym2612"
    },
    {
      "channel": 0,
      "note": 68,
      "start": 9.0974,
      "duration": 0.0041,
      "velocity": 107,
      "chip": "ym2612"
    },
    {
      "channel": 1,
      "note": 88,
      "start": 9.0978,
      "duration": 0.0102,
      "velocity": 94,
      "chip": "ym2612"
    },
    {
      "channel": 4,
      "note": 90,
      "start": 9.0982,
      "duration": 0.0024,
      "velocity": 46,
      "chip": "ym2612"
    },
    {
      "channel": 0,
      "note": 57,
      "start": 9.1054,
      "duration": 0.0556,
      "velocity": 107,
      "chip": "ym2612"
    },
    {
      "channel": 4,
      "note": 90,
      "start": 9.1078,
      "duration": 0.0203,
      "velocity": 46,
      "chip": "ym2612"
    },
    {
      "channel": 0,
      "note": 69,
      "start": 9.1613,
      "duration": 0.0998,
      "velocity": 107,
      "chip": "ym2612"
    },
    {
      "channel": 1,
      "note": 86,
      "start": 9.1615,
      "duration": 0.1495,
      "velocity": 94,
      "chip": "ym2612"
    },
    {
      "channel": 4,
      "note": 90,
      "start": 9.1621,
      "duration": 0.0659,
      "velocity": 46,
      "chip": "ym2612"
    },
    {
      "channel": 4,
      "note": 90,
      "start": 9.2617,
      "duration": 0.0664,
      "velocity": 46,
      "chip": "ym2612"
    },
    {
      "channel": 0,
      "note": 56,
      "start": 9.3613,
      "duration": 0.0074,
      "velocity": 107,
      "chip": "ym2612"
    },
    {
      "channel": 1,
      "note": 85,
      "start": 9.3617,
      "duration": 0.0059,
      "velocity": 94,
      "chip": "ym2612"
    },
    {
      "channel": 4,
      "note": 90,
      "start": 9.3622,
      "duration": 0.0029,
      "velocity": 46,
      "chip": "ym2612"
    },
    {
      "channel": 0,
      "note": 52,
      "start": 9.369,
      "duration": 0.0068,
      "velocity": 107,
      "chip": "ym2612"
    },
    {
      "channel": 1,
      "note": 85,
      "start": 9.3693,
      "duration": 0.0067,
      "velocity": 94,
      "chip": "ym2612"
    },
    {
      "channel": 4,
      "note": 90,
      "start": 9.3697,
      "duration": 0.0019,
      "velocity": 46,
      "chip": "ym2612"
    },
    {
      "channel": 4,
      "note": 90,
      "start": 9.3729,
      "duration": 0.0016,
      "velocity": 46,
      "chip": "ym2612"
    },
    {
      "channel": 0,
      "note": 52,
      "start": 9.3758,
      "duration": 0.0563,
      "velocity": 107,
      "chip": "ym2612"
    },
    {
      "channel": 1,
      "note": 85,
      "start": 9.376,
      "duration": 0.0062,
      "velocity": 94,
      "chip": "ym2612"
    },
    {
      "channel": 2,
      "note": 64,
      "start": 9.3762,
      "duration": 0.5427,
      "velocity": 99,
      "chip": "ym2612"
    },
    {
      "channel": 3,
      "note": 59,
      "start": 9.3764,
      "duration": 0.5428,
      "velocity": 99,
      "chip": "ym2612"
    },
    {
      "channel": 4,
      "note": 88,
      "start": 9.3789,
      "duration": 0.02,
      "velocity": 46,
      "chip": "ym2612"
    },
    {
      "channel": 0,
      "note": 52,
      "start": 9.4323,
      "duration": 0.1999,
      "velocity": 107,
      "chip": "ym2612"
    },
    {
      "channel": 1,
      "note": 83,
      "start": 9.4325,
      "duration": 0.1496,
      "velocity": 94,
      "chip": "ym2612"
    },
    {
      "channel": 4,
      "note": 88,
      "start": 9.4329,
      "duration": 0.066,
      "velocity": 46,
      "chip": "ym2612"
    },
    {
      "channel": 4,
      "note": 88,
      "start": 9.5325,
      "duration": 0.0664,
      "velocity": 46,
      "chip": "ym2612"
    },
    {
      "channel": 0,
      "note": 64,
      "start": 9.6324,
      "duration": 0.004,
      "velocity": 107,
      "chip": "ym2612"
    },
    {
      "channel": 4,
      "note": 88,
      "start": 9.6327,
      "duration": 0.0029,
      "velocity": 46,
      "chip": "ym2612"
    },
    {
      "channel": 4,
      "note": 100,
      "start": 9.6366,
      "duration": 0.0021,
      "velocity": 46,
      "chip": "ym2612"
    },
    {
      "channel": 0,
      "note": 62,
      "start": 9.64,
      "duration": 0.0033,
      "velocity": 107,
      "chip": "ym2612"
    },
    {
      "channel": 1,
      "note": 83,
      "start": 9.6402,
      "duration": 0.1289,
      "velocity": 94,
      "chip": "ym2612"
    },
    {
      "channel": 4,
      "note": 88,
      "start": 9.6405,
      "duration": 0.0018,
      "velocity": 46,
      "chip": "ym2612"
    },
    {
      "channel": 4,
      "note": 88,
      "start": 9.6437,
      "duration": 0.0014,
      "velocity": 46,
      "chip": "ym2612"
    },
    {
      "channel": 4,
      "note": 88,
      "start": 9.6486,
      "duration": 0.0206,
      "velocity": 46,
      "chip": "ym2612"
    },
    {
      "channel": 0,
      "note": 52,
      "start": 9.7026,
      "duration": 0.1999,
      "velocity": 107,
      "chip": "ym2612"
    },
    {
      "channel": 4,
      "note": 88,
      "start": 9.7031,
      "duration": 0.0663,
      "velocity": 46,
      "chip": "ym2612"
    },
    {
      "channel": 4,
      "note": 100,
      "start": 9.8028,
      "duration": 0.0664,
      "velocity": 46,
      "chip": "ym2612"
    },
    {
      "channel": 0,
      "note": 62,
      "start": 9.9027,
      "duration": 0.0045,
      "velocity": 107,
      "chip": "ym2612"
    },
    {
      "channel": 4,
      "note": 88,
      "start": 9.903,
      "duration": 0.0029,
      "velocity": 46,
      "chip": "ym2612"
    },
    {
      "channel": 4,
      "note": 88,
      "start": 9.9074,
      "duration": 0.0023,
      "velocity": 46,
      "chip": "ym2612"
    },
    {
      "channel": 0,
      "note": 61,
      "start": 9.9108,
      "duration": 0.0033,
      "velocity": 107,
      "chip": "ym2612"
    },
    {
      "channel": 1,
      "note": 85,
      "start": 9.911,
      "duration": 0.0078,
      "velocity": 94,
      "chip": "ym2612"
    },
    {
      "channel": 4,
      "note": 88,
      "start": 9.9114,
      "duration": 0.0018,
      "velocity": 46,
      "chip": "ym2612"
    },
    {
      "channel": 1,
      "note": 85,
      "start": 9.9188,
      "duration": 0.0062,
      "velocity": 94,
      "chip": "ym2612"
    },
    {
      "channel": 2,
      "note": 64,
      "start": 9.9189,
      "duration": 0.0789,
      "velocity": 99,
      "chip": "ym2612"
    },
    {
      "channel": 3,
      "note": 59,
      "start": 9.9192,
      "duration": 0.0788,
      "velocity": 99,
      "chip": "ym2612"
    },
    {
      "channel": 4,
      "note": 88,
      "start": 9.9215,
      "duration": 0.0206,
      "velocity": 46,
      "chip": "ym2612"
    },
    {
      "channel": 0,
      "note": 52,
      "start": 9.9753,
      "duration": 0.0032,
      "velocity": 107,
      "chip": "ym2612"
    },
    {
      "channel": 1,
      "note": 83,
      "start": 9.9756,
      "duration": 0.0044,
      "velocity": 94,
      "chip": "ym2612"
    },
    {
      "channel": 4,
      "note": 88,
      "start": 9.9761,
      "duration": 0.0017,
      "velocity": 46,
      "chip": "ym2612"
    },
    {
      "channel": 4,
      "note": 88,
      "start": 9.979,
      "duration": 0.0017,
      "velocity": 46,
      "chip": "ym2612"
    },
    {
      "channel": 0,
      "note": 61,
      "start": 9.982,
      "duration": 0.0069,
      "velocity": 107,
      "chip": "ym2612"
    },
    {
      "channel": 4,
      "note": 88,
      "start": 9.9824,
      "duration": 0.0019,
      "velocity": 46,
      "chip": "ym2612"
    },
    {
      "channel": 4,
      "note": 100,
      "start": 9.9858,
      "duration": 0.0022,
      "velocity": 46,
      "chip": "ym2612"
    },
    {
      "channel": 0,
      "note": 59,
      "start": 9.989,
      "duration": 0.0037,
      "velocity": 107,
      "chip": "ym2612"
    },
    {
      "channel": 1,
      "note": 83,
      "start": 9.9894,
      "duration": 0.0222,
      "velocity": 94,
      "chip": "ym2612"
    },
    {
      "channel": 4,
      "note": 88,
      "start": 9.9898,
      "duration": 0.0023,
      "velocity": 46,
      "chip": "ym2612"
    },
    {
      "channel": 4,
      "note": 88,
      "start": 9.9932,
      "duration": 0.0014,
      "velocity": 46,
      "chip": "ym2612"
    },
    {
      "channel": 0,
      "note": 57,
      "start": 9.9958,
      "duration": 0.0065,
      "velocity": 107,
      "chip": "ym2612"
    },
    {
      "channel": 4,
      "note": 88,
      "start": 9.9998,
      "duration": 0.001,
      "velocity": 46,
      "chip": "ym2612"
    },
    {
      "channel": 0,
      "note": 68,
      "start": 10.0026,
      "duration": 0.0041,
      "velocity": 107,
      "chip": "ym2612"
    },
    {
      "channel": 2,
      "note": 64,
      "start": 10.0031,
      "duration": 0.0071,
      "velocity": 99,
      "chip": "ym2612"
    },
    {
      "channel": 3,
      "note": 59,
      "start": 10.0034,
      "duration": 0.007,
      "velocity": 99,
      "chip": "ym2612"
    },
    {
      "channel": 4,
      "note": 88,
      "start": 10.0037,
      "duration": 0.0022,
      "velocity": 46,
      "chip": "ym2612"
    },
    {
      "channel": 4,
      "note": 100,
      "start": 10.0072,
      "duration": 0.0023,
      "velocity": 46,
      "chip": "ym2612"
    },
    {
      "channel": 0,
      "note": 66,
      "start": 10.01,
      "duration": 0.0054,
      "velocity": 107,
      "chip": "ym2612"
    },
    {
      "channel": 2,
      "note": 68,
      "start": 10.0103,
      "duration": 0.0053,
      "velocity": 99,
      "chip": "ym2612"
    },
    {
      "channel": 3,
      "note": 59,
      "start": 10.0107,
      "duration": 0.0052,
      "velocity": 99,
      "chip": "ym2612"
    },
    {
      "channel": 4,
      "note": 88,
      "start": 10.011,
      "duration": 0.0019,
      "velocity": 46,
      "chip": "ym2612"
    },
    {
      "channel": 4,
      "note": 88,
      "start": 10.0133,
      "duration": 0.001,
      "velocity": 46,
      "chip": "ym2612"
    },
    {
      "channel": 0,
      "note": 64,
      "start": 10.0156,
      "duration": 0.0039,
      "velocity": 107,
      "chip": "ym2612"
    },
    {
      "channel": 2,
      "note": 64,
      "start": 10.0159,
      "duration": 0.011,
      "velocity": 111,
      "chip": "ym2612"
    },
    {
      "channel": 3,
      "note": 59,
      "start": 10.0161,
      "duration": 0.0119,
      "velocity": 111,
      "chip": "ym2612"
    },
    {
      "channel": 4,
      "note": 88,
      "start": 10.0163,
      "duration": 0.0024,
      "velocity": 46,
      "chip": "ym2612"
    },
    {
      "channel": 0,
      "note": 57,
      "start": 10.0249,
      "duration": 0.0557,
      "velocity": 107,
      "chip": "ym2612"
    },
    {
      "channel": 1,
      "note": 73,
      "start": 10.0259,
      "duration": 0.0053,
      "velocity": 94,
      "chip": "ym2612"
    },
    {
      "channel": 4,
      "note": 69,
      "start": 10.0284,
      "duration": 0.0014,
      "velocity": 46,
      "chip": "ym2612"
    },
    {
      "channel": 4,
      "note": 69,
      "start": 10.0305,
      "duration": 0.0169,
      "velocity": 46,
      "chip": "ym2612"
    },
    {
      "channel": 1,
      "note": 74,
      "start": 10.0809,
      "duration": 0.1497,
      "velocity": 94,
      "chip": "ym2612"
    },
    {
      "channel": 2,
      "note": 76,
      "start": 10.0812,
      "duration": 0.0661,
      "velocity": 111,
      "chip": "ym2612"
    },
    {
      "channel": 3,
      "note": 73,
      "start": 10.0815,
      "duration": 0.066,
      "velocity": 111,
      "chip": "ym2612"
    },
    {
      "channel": 4,
      "note": 81,
      "start": 10.0818,
      "duration": 0.0659,
      "velocity": 46,
      "chip": "ym2612"
    },
    {
      "channel": 4,
      "note": 69,
      "start": 10.1809,
      "duration": 0.0665,
      "velocity": 46,
      "chip": "ym2612"
    }
  ]
}