{
  "track_name": "04 - Billie Jean",
  "duration_sec": 95.544,
  "sample_rate": 44100,
  "note_count": 918,
  "unique_pitches": 25,
  "pitch_range": 36,
  "avg_note_duration": 0.3716,
  "reconstruction_stats": {
    "notes_reconstructed": 918,
    "keyon_events": 918,
    "keyoff_events": 886,
    "orphan_keyons": 3,
    "unique_pitches": 25,
    "pitch_range": 36,
    "avg_duration_sec": 0.3716
  },
  "metadata": {
    "source": "M\\Michael Jackson's Moonwalker (MD)\\04 - Billie Jean.vgz"
  },
  "notes": [
    {
      "channel": 1,
      "note": 51,
      "start": 0.0527,
      "duration": 0.0889,
      "velocity": 91,
      "chip": "ym2612"
    },
    {
      "channel": 1,
      "note": 58,
      "start": 0.1919,
      "duration": 0.1999,
      "velocity": 91,
      "chip": "ym2612"
    },
    {
      "channel": 1,
      "note": 61,
      "start": 0.442,
      "duration": 0.0217,
      "velocity": 91,
      "chip": "ym2612"
    },
    {
      "channel": 1,
      "note": 63,
      "start": 0.469,
      "duration": 0.0214,
      "velocity": 91,
      "chip": "ym2612"
    },
    {
      "channel": 1,
      "note": 61,
      "start": 0.4959,
      "duration": 0.0924,
      "velocity": 91,
      "chip": "ym2612"
    },
    {
      "channel": 1,
      "note": 58,
      "start": 0.6385,
      "duration": 0.1998,
      "velocity": 91,
      "chip": "ym2612"
    },
    {
      "channel": 1,
      "note": 56,
      "start": 0.8884,
      "duration": 0.0217,
      "velocity": 91,
      "chip": "ym2612"
    },
    {
      "channel": 1,
      "note": 58,
      "start": 0.9154,
      "duration": 0.0214,
      "velocity": 91,
      "chip": "ym2612"
    },
    {
      "channel": 1,
      "note": 51,
      "start": 0.9424,
      "duration": 0.0922,
      "velocity": 91,
      "chip": "ym2612"
    },
    {
      "channel": 1,
      "note": 58,
      "start": 1.0848,
      "duration": 0.1998,
      "velocity": 91,
      "chip": "ym2612"
    },
    {
      "channel": 1,
      "note": 61,
      "start": 1.3348,
      "duration": 0.0217,
      "velocity": 91,
      "chip": "ym2612"
    },
    {
      "channel": 1,
      "note": 63,
      "start": 1.3618,
      "duration": 0.0214,
      "velocity": 91,
      "chip": "ym2612"
    },
    {
      "channel": 1,
      "note": 61,
      "start": 1.3887,
      "duration": 0.0923,
      "velocity": 91,
      "chip": "ym2612"
    },
    {
      "channel": 1,
      "note": 58,
      "start": 1.5313,
      "duration": 0.1998,
      "velocity": 91,
      "chip": "ym2612"
    },
    {
      "channel": 1,
      "note": 56,
      "start": 1.7812,
      "duration": 0.0217,
      "velocity": 91,
      "chip": "ym2612"
    },
    {
      "channel": 1,
      "note": 58,
      "start": 1.8082,
      "duration": 0.0214,
      "velocity": 91,
      "chip": "ym2612"
    },
    {
      "channel": 1,
      "note": 51,
      "start": 1.8368,
      "duration": 0.0909,
      "velocity": 91,
      "chip": "ym2612"
    },
    {
      "channel": 2,
      "note": 75,
      "start": 1.8371,
      "duration": 0.4181,
      "velocity": 101,
      "chip": "ym2612"
    },
    {
      "channel": 3,
      "note": 70,
      "start": 1.8375,
      "duration": 0.418,
      "velocity": 101,
      "chip": "ym2612"
    },
    {
      "channel": 4,
      "note": 66,
      "start": 1.8378,
      "duration": 0.418,
      "velocity": 101,
      "chip": "ym2612"
    },
    {
      "channel": 1,
      "note": 58,
      "start": 1.9779,
      "duration": 0.1999,
      "velocity": 91,
      "chip": "ym2612"
    },
    {
      "channel": 1,
      "note": 61,
      "start": 2.228,
      "duration": 0.0218,
      "velocity": 91,
      "chip": "ym2612"
    },
    {
      "channel": 1,
      "note": 63,
      "start": 2.2551,
      "duration": 0.0222,
      "velocity": 91,
      "chip": "ym2612"
    },
    {
      "channel": 2,
      "note": 77,
      "start": 2.2554,
      "duration": 0.4756,
      "velocity": 101,
      "chip": "ym2612"
    },
    {
      "channel": 3,
      "note": 72,
      "start": 2.2557,
      "duration": 0.4756,
      "velocity": 101,
      "chip": "ym2612"
    },
    {
      "channel": 4,
      "note": 68,
      "start": 2.256,
      "duration": 0.4756,
      "velocity": 101,
      "chip": "ym2612"
    },
    {
      "channel": 1,
      "note": 61,
      "start": 2.2855,
      "duration": 0.0913,
      "velocity": 91,
      "chip": "ym2612"
    },
    {
      "channel": 1,
      "note": 58,
      "start": 2.427,
      "duration": 0.1998,
      "velocity": 91,
      "chip": "ym2612"
    },
    {
      "channel": 1,
      "note": 56,
      "start": 2.677,
      "duration": 0.0218,
      "velocity": 91,
      "chip": "ym2612"
    },
    {
      "channel": 1,
      "note": 58,
      "start": 2.704,
      "duration": 0.0214,
      "velocity": 91,
      "chip": "ym2612"
    },
    {
      "channel": 1,
      "note": 51,
      "start": 2.7309,
      "duration": 0.0917,
      "velocity": 91,
      "chip": "ym2612"
    },
    {
      "channel": 2,
      "note": 78,
      "start": 2.7312,
      "duration": 0.4188,
      "velocity": 101,
      "chip": "ym2612"
    },
    {
      "channel": 3,
      "note": 73,
      "start": 2.7316,
      "duration": 0.4187,
      "velocity": 101,
      "chip": "ym2612"
    },
    {
      "channel": 4,
      "note": 70,
      "start": 2.7318,
      "duration": 0.4187,
      "velocity": 101,
      "chip": "ym2612"
    },
    {
      "channel": 1,
      "note": 58,
      "start": 2.8728,
      "duration": 0.1998,
      "velocity": 91,
      "chip": "ym2612"
    },
    {
      "channel": 1,
      "note": 61,
      "start": 3.1228,
      "duration": 0.0218,
      "velocity": 91,
      "chip": "ym2612"
    },
    {
      "channel": 1,
      "note": 63,
      "start": 3.1498,
      "duration": 0.0222,
      "velocity": 91,
      "chip": "ym2612"
    },
    {
      "channel": 2,
      "note": 77,
      "start": 3.1502,
      "duration": 0.4771,
      "velocity": 101,
      "chip": "ym2612"
    },
    {
      "channel": 3,
      "note": 72,
      "start": 3.1504,
      "duration": 0.4771,
      "velocity": 101,
      "chip": "ym2612"
    },
    {
      "channel": 4,
      "note": 68,
      "start": 3.1507,
      "duration": 0.4771,
      "velocity": 101,
      "chip": "ym2612"
    },
    {
      "channel": 1,
      "note": 61,
      "start": 3.1802,
      "duration": 0.0913,
      "velocity": 91,
      "chip": "ym2612"
    },
    {
      "channel": 1,
      "note": 58,
      "start": 3.3218,
      "duration": 0.1998,
      "velocity": 91,
      "chip": "ym2612"
    },
    {
      "channel": 1,
      "note": 56,
      "start": 3.5718,
      "duration": 0.0218,
      "velocity": 91,
      "chip": "ym2612"
    },
    {
      "channel": 1,
      "note": 58,
      "start": 3.5988,
      "duration": 0.0214,
      "velocity": 91,
      "chip": "ym2612"
    },
    {
      "channel": 1,
      "note": 51,
      "start": 3.6272,
      "duration": 0.0911,
      "velocity": 91,
      "chip": "ym2612"
    },
    {
      "channel": 2,
      "note": 75,
      "start": 3.6274,
      "duration": 0.4182,
      "velocity": 101,
      "chip": "ym2612"
    },
    {
      "channel": 3,
      "note": 70,
      "start": 3.6277,
      "duration": 0.4182,
      "velocity": 101,
      "chip": "ym2612"
    },
    {
      "channel": 4,
      "note": 66,
      "start": 3.628,
      "duration": 0.4182,
      "velocity": 101,
      "chip": "ym2612"
    },
    {
      "channel": 1,
      "note": 58,
      "start": 3.7684,
      "duration": 0.1999,
      "velocity": 91,
      "chip": "ym2612"
    },
    {
      "channel": 1,
      "note": 61,
      "start": 4.0185,
      "duration": 0.0218,
      "velocity": 91,
      "chip": "ym2612"
    },
    {
      "channel": 1,
      "note": 63,
      "start": 4.0456,
      "duration": 0.0222,
      "velocity": 91,
      "chip": "ym2612"
    },
    {
      "channel": 2,
      "note": 77,
      "start": 4.0459,
      "duration": 0.4756,
      "velocity": 101,
      "chip": "ym2612"
    },
    {
      "channel": 3,
      "note": 72,
      "start": 4.0462,
      "duration": 0.4756,
      "velocity": 101,
      "chip": "ym2612"
    },
    {
      "channel": 4,
      "note": 68,
      "start": 4.0465,
      "duration": 0.4756,
      "velocity": 101,
      "chip": "ym2612"
    },
    {
      "channel": 1,
      "note": 61,
      "start": 4.076,
      "duration": 0.0913,
      "velocity": 91,
      "chip": "ym2612"
    },
    {
      "channel": 1,
      "note": 58,
      "start": 4.2175,
      "duration": 0.1998,
      "velocity": 91,
      "chip": "ym2612"
    },
    {
      "channel": 1,
      "note": 56,
      "start": 4.4675,
      "duration": 0.0218,
      "velocity": 91,
      "chip": "ym2612"
    },
    {
      "channel": 1,
      "note": 58,
      "start": 4.4945,
      "duration": 0.0214,
      "velocity": 91,
      "chip": "ym2612"
    },
    {
      "channel": 1,
      "note": 51,
      "start": 4.5214,
      "duration": 0.0917,
      "velocity": 91,
      "chip": "ym2612"
    },
    {
      "channel": 2,
      "note": 78,
      "start": 4.5217,
      "duration": 0.4188,
      "velocity": 101,
      "chip": "ym2612"
    },
    {
      "channel": 3,
      "note": 73,
      "start": 4.5221,
      "duration": 0.4187,
      "velocity": 101,
      "chip": "ym2612"
    },
    {
      "channel": 4,
      "note": 70,
      "start": 4.5223,
      "duration": 0.4187,
      "velocity": 101,
      "chip": "ym2612"
    },
    {
      "channel": 1,
      "note": 58,
      "start": 4.6633,
      "duration": 0.1998,
      "velocity": 91,
      "chip": "ym2612"
    },
    {
      "channel": 1,
      "note": 61,
      "start": 4.9133,
      "duration": 0.0218,
      "velocity": 91,
      "chip": "ym2612"
    },
    {
      "channel": 1,
      "note": 63,
      "start": 4.9403,
      "duration": 0.0222,
      "velocity": 91,
      "chip": "ym2612"
    },
    {
      "channel": 2,
      "note": 77,
      "start": 4.9407,
      "duration": 0.4806,
      "velocity": 101,
      "chip": "ym2612"
    },
    {
      "channel": 3,
      "note": 72,
      "start": 4.9409,
      "duration": 0.4825,
      "velocity": 101,
      "chip": "ym2612"
    },
    {
      "channel": 4,
      "note": 68,
      "start": 4.9412,
      "duration": 0.4843,
      "velocity": 101,
      "chip": "ym2612"
    },
    {
      "channel": 1,
      "note": 61,
      "start": 4.9707,
      "duration": 0.0913,
      "velocity": 91,
      "chip": "ym2612"
    },
    {
      "channel": 1,
      "note": 58,
      "start": 5.1123,
      "duration": 0.1998,
      "velocity": 91,
      "chip": "ym2612"
    },
    {
      "channel": 1,
      "note": 56,
      "start": 5.3623,
      "duration": 0.0218,
      "velocity": 91,
      "chip": "ym2612"
    },
    {
      "channel": 1,
      "note": 58,
      "start": 5.3893,
      "duration": 0.0214,
      "velocity": 91,
      "chip": "ym2612"
    },
    {
      "channel": 1,
      "note": 51,
      "start": 5.4195,
      "duration": 0.0918,
      "velocity": 91,
      "chip": "ym2612"
    },
    {
      "channel": 2,
      "note": 75,
      "start": 5.4214,
      "duration": 0.4165,
      "velocity": 101,
      "chip": "ym2612"
    },
    {
      "channel": 3,
      "note": 70,
      "start": 5.4237,
      "duration": 0.4146,
      "velocity": 101,
      "chip": "ym2612"
    },
    {
      "channel": 4,
      "note": 66,
      "start": 5.4257,
      "duration": 0.4127,
      "velocity": 101,
      "chip": "ym2612"
    },
    {
      "channel": 0,
      "note": 69,
      "start": 5.5615,
      "duration": 0.0833,
      "velocity": 100,
      "chip": "ym2612"
    },
    {
      "channel": 1,
      "note": 58,
      "start": 5.5618,
      "duration": 0.1995,
      "velocity": 91,
      "chip": "ym2612"
    },
    {
      "channel": 0,
      "note": 70,
      "start": 5.6448,
      "duration": 0.1666,
      "velocity": 100,
      "chip": "ym2612"
    },
    {
      "channel": 0,
      "note": 70,
      "start": 5.8116,
      "duration": 0.0257,
      "velocity": 100,
      "chip": "ym2612"
    },
    {
      "channel": 1,
      "note": 61,
      "start": 5.8119,
      "duration": 0.0203,
      "velocity": 91,
      "chip": "ym2612"
    },
    {
      "channel": 0,
      "note": 70,
      "start": 5.8376,
      "duration": 0.0266,
      "velocity": 100,
      "chip": "ym2612"
    },
    {
      "channel": 1,
      "note": 63,
      "start": 5.8378,
      "duration": 0.0211,
      "velocity": 91,
      "chip": "ym2612"
    },
    {
      "channel": 2,
      "note": 77,
      "start": 5.8382,
      "duration": 0.4708,
      "velocity": 101,
      "chip": "ym2612"
    },
    {
      "channel": 3,
      "note": 72,
      "start": 5.8385,
      "duration": 0.4708,
      "velocity": 101,
      "chip": "ym2612"
    },
    {
      "channel": 4,
      "note": 68,
      "start": 5.8387,
      "duration": 0.4709,
      "velocity": 101,
      "chip": "ym2612"
    },
    {
      "channel": 0,
      "note": 70,
      "start": 5.8645,
      "duration": 0.1418,
      "velocity": 100,
      "chip": "ym2612"
    },
    {
      "channel": 1,
      "note": 61,
      "start": 5.8648,
      "duration": 0.0915,
      "velocity": 91,
      "chip": "ym2612"
    },
    {
      "channel": 0,
      "note": 68,
      "start": 6.0066,
      "duration": 0.2499,
      "velocity": 100,
      "chip": "ym2612"
    },
    {
      "channel": 1,
      "note": 58,
      "start": 6.0069,
      "duration": 0.1995,
      "velocity": 91,
      "chip": "ym2612"
    },
    {
      "channel": 0,
      "note": 66,
      "start": 6.2566,
      "duration": 0.0255,
      "velocity": 100,
      "chip": "ym2612"
    },
    {
      "channel": 1,
      "note": 56,
      "start": 6.257,
      "duration": 0.0201,
      "velocity": 91,
      "chip": "ym2612"
    },
    {
      "channel": 0,
      "note": 67,
      "start": 6.2824,
      "duration": 0.0089,
      "velocity": 100,
      "chip": "ym2612"
    },
    {
      "channel": 1,
      "note": 58,
      "start": 6.2825,
      "duration": 0.0204,
      "velocity": 91,
      "chip": "ym2612"
    },
    {
      "channel": 0,
      "note": 68,
      "start": 6.2912,
      "duration": 0.03,
      "velocity": 100,
      "chip": "ym2612"
    },
    {
      "channel": 1,
      "note": 51,
      "start": 6.3089,
      "duration": 0.0925,
      "velocity": 91,
      "chip": "ym2612"
    },
    {
      "channel": 2,
      "note": 78,
      "start": 6.3092,
      "duration": 0.4204,
      "velocity": 101,
      "chip": "ym2612"
    },
    {
      "channel": 3,
      "note": 73,
      "start": 6.3095,
      "duration": 0.4203,
      "velocity": 101,
      "chip": "ym2612"
    },
    {
      "channel": 4,
      "note": 70,
      "start": 6.3099,
      "duration": 0.4203,
      "velocity": 101,
      "chip": "ym2612"
    },
    {
      "channel": 0,
      "note": 66,
      "start": 6.3214,
      "duration": 0.13,
      "velocity": 100,
      "chip": "ym2612"
    },
    {
      "channel": 0,
      "note": 70,
      "start": 6.4517,
      "duration": 0.2773,
      "velocity": 100,
      "chip": "ym2612"
    },
    {
      "channel": 1,
      "note": 58,
      "start": 6.4519,
      "duration": 0.1996,
      "velocity": 91,
      "chip": "ym2612"
    },
    {
      "channel": 1,
      "note": 61,
      "start": 6.7018,
      "duration": 0.022,
      "velocity": 91,
      "chip": "ym2612"
    },
    {
      "channel": 0,
      "note": 68,
      "start": 6.7292,
      "duration": 0.0129,
      "velocity": 100,
      "chip": "ym2612"
    },
    {
      "channel": 1,
      "note": 63,
      "start": 6.7295,
      "duration": 0.0211,
      "velocity": 91,
      "chip": "ym2612"
    },
    {
      "channel": 2,
      "note": 77,
      "start": 6.7298,
      "duration": 0.473,
      "velocity": 101,
      "chip": "ym2612"
    },
    {
      "channel": 3,
      "note": 72,
      "start": 6.7301,
      "duration": 0.4729,
      "velocity": 101,
      "chip": "ym2612"
    },
    {
      "channel": 4,
      "note": 68,
      "start": 6.7304,
      "duration": 0.4729,
      "velocity": 101,
      "chip": "ym2612"
    },
    {
      "channel": 0,
      "note": 66,
      "start": 6.7424,
      "duration": 0.0132,
      "velocity": 100,
      "chip": "ym2612"
    },
    {
      "channel": 0,
      "note": 68,
      "start": 6.7559,
      "duration": 0.1417,
      "velocity": 100,
      "chip": "ym2612"
    },
    {
      "channel": 1,
      "note": 61,
      "start": 6.7561,
      "duration": 0.0916,
      "velocity": 91,
      "chip": "ym2612"
    },
    {
      "channel": 0,
      "note": 66,
      "start": 6.8978,
      "duration": 0.1164,
      "velocity": 100,
      "chip": "ym2612"
    },
    {
      "channel": 1,
      "note": 58,
      "start": 6.8982,
      "duration": 0.1995,
      "velocity": 91,
      "chip": "ym2612"
    },
    {
      "channel": 0,
      "note": 70,
      "start": 7.148,
      "duration": 0.0525,
      "velocity": 100,
      "chip": "ym2612"
    },
    {
      "channel": 1,
      "note": 56,
      "start": 7.1483,
      "duration": 0.0203,
      "velocity": 91,
      "chip": "ym2612"
    },
    {
      "channel": 1,
      "note": 58,
      "start": 7.1738,
      "duration": 0.0209,
      "velocity": 91,
      "chip": "ym2612"
    },
    {
      "channel": 1,
      "note": 51,
      "start": 7.2027,
      "duration": 0.0906,
      "velocity": 91,
      "chip": "ym2612"
    },
    {
      "channel": 2,
      "note": 75,
      "start": 7.203,
      "duration": 0.4166,
      "velocity": 101,
      "chip": "ym2612"
    },
    {
      "channel": 3,
      "note": 70,
      "start": 7.2032,
      "duration": 0.4167,
      "velocity": 101,
      "chip": "ym2612"
    },
    {
      "channel": 4,
      "note": 66,
      "start": 7.2035,
      "duration": 0.4167,
      "velocity": 101,
      "chip": "ym2612"
    },
    {
      "channel": 0,
      "note": 69,
      "start": 7.3435,
      "duration": 0.0833,
      "velocity": 100,
      "chip": "ym2612"
    },
    {
      "channel": 1,
      "note": 58,
      "start": 7.3438,
      "duration": 0.1995,
      "velocity": 91,
      "chip": "ym2612"
    },
    {
      "channel": 0,
      "note": 70,
      "start": 7.4267,
      "duration": 0.1666,
      "velocity": 100,
      "chip": "ym2612"
    },
    {
      "channel": 0,
      "note": 70,
      "start": 7.5935,
      "duration": 0.0256,
      "velocity": 100,
      "chip": "ym2612"
    },
    {
      "channel": 1,
      "note": 61,
      "start": 7.5938,
      "duration": 0.0202,
      "velocity": 91,
      "chip": "ym2612"
    },
    {
      "channel": 0,
      "note": 70,
      "start": 7.6193,
      "duration": 0.0269,
      "velocity": 100,
      "chip": "ym2612"
    },
    {
      "channel": 1,
      "note": 63,
      "start": 7.6195,
      "duration": 0.021,
      "velocity": 91,
      "chip": "ym2612"
    },
    {
      "channel": 2,
      "note": 77,
      "start": 7.6198,
      "duration": 0.4713,
      "velocity": 101,
      "chip": "ym2612"
    },
    {
      "channel": 3,
      "note": 72,
      "start": 7.6201,
      "duration": 0.4713,
      "velocity": 101,
      "chip": "ym2612"
    },
    {
      "channel": 4,
      "note": 68,
      "start": 7.6204,
      "duration": 0.4713,
      "velocity": 101,
      "chip": "ym2612"
    },
    {
      "channel": 0,
      "note": 70,
      "start": 7.6464,
      "duration": 0.1417,
      "velocity": 100,
      "chip": "ym2612"
    },
    {
      "channel": 1,
      "note": 61,
      "start": 7.6468,
      "duration": 0.0914,
      "velocity": 91,
      "chip": "ym2612"
    },
    {
      "channel": 0,
      "note": 68,
      "start": 7.7883,
      "duration": 0.2499,
      "velocity": 100,
      "chip": "ym2612"
    },
    {
      "channel": 1,
      "note": 58,
      "start": 7.7886,
      "duration": 0.1995,
      "velocity": 91,
      "chip": "ym2612"
    },
    {
      "channel": 0,
      "note": 66,
      "start": 8.0384,
      "duration": 0.0256,
      "velocity": 100,
      "chip": "ym2612"
    },
    {
      "channel": 1,
      "note": 56,
      "start": 8.0387,
      "duration": 0.0202,
      "velocity": 91,
      "chip": "ym2612"
    },
    {
      "channel": 0,
      "note": 67,
      "start": 8.0642,
      "duration": 0.009,
      "velocity": 100,
      "chip": "ym2612"
    },
    {
      "channel": 1,
      "note": 58,
      "start": 8.0646,
      "duration": 0.0202,
      "velocity": 91,
      "chip": "ym2612"
    },
    {
      "channel": 0,
      "note": 68,
      "start": 8.0732,
      "duration": 0.0293,
      "velocity": 100,
      "chip": "ym2612"
    },
    {
      "channel": 1,
      "note": 51,
      "start": 8.0911,
      "duration": 0.0914,
      "velocity": 91,
      "chip": "ym2612"
    },
    {
      "channel": 2,
      "note": 78,
      "start": 8.0913,
      "duration": 0.4194,
      "velocity": 101,
      "chip": "ym2612"
    },
    {
      "channel": 3,
      "note": 73,
      "start": 8.0916,
      "duration": 0.4193,
      "velocity": 101,
      "chip": "ym2612"
    },
    {
      "channel": 4,
      "note": 70,
      "start": 8.092,
      "duration": 0.4193,
      "velocity": 101,
      "chip": "ym2612"
    },
    {
      "channel": 0,
      "note": 66,
      "start": 8.1028,
      "duration": 0.1297,
      "velocity": 100,
      "chip": "ym2612"
    },
    {
      "channel": 0,
      "note": 70,
      "start": 8.2328,
      "duration": 0.2773,
      "velocity": 100,
      "chip": "ym2612"
    },
    {
      "channel": 1,
      "note": 58,
      "start": 8.233,
      "duration": 0.1996,
      "velocity": 91,
      "chip": "ym2612"
    },
    {
      "channel": 1,
      "note": 61,
      "start": 8.4829,
      "duration": 0.022,
      "velocity": 91,
      "chip": "ym2612"
    },
    {
      "channel": 0,
      "note": 67,
      "start": 8.5103,
      "duration": 0.0098,
      "velocity": 100,
      "chip": "ym2612"
    },
    {
      "channel": 1,
      "note": 63,
      "start": 8.5106,
      "duration": 0.0211,
      "velocity": 91,
      "chip": "ym2612"
    },
    {
      "channel": 2,
      "note": 77,
      "start": 8.5109,
      "duration": 0.4711,
      "velocity": 101,
      "chip": "ym2612"
    },
    {
      "channel": 3,
      "note": 72,
      "start": 8.5112,
      "duration": 0.471,
      "velocity": 101,
      "chip": "ym2612"
    },
    {
      "channel": 4,
      "note": 68,
      "start": 8.5115,
      "duration": 0.471,
      "velocity": 101,
      "chip": "ym2612"
    },
    {
      "channel": 0,
      "note": 68,
      "start": 8.52,
      "duration": 0.1584,
      "velocity": 100,
      "chip": "ym2612"
    },
    {
      "channel": 1,
      "note": 61,
      "start": 8.5368,
      "duration": 0.0917,
      "velocity": 91,
      "chip": "ym2612"
    },
    {
      "channel": 0,
      "note": 66,
      "start": 8.6787,
      "duration": 0.2499,
      "velocity": 100,
      "chip": "ym2612"
    },
    {
      "channel": 1,
      "note": 58,
      "start": 8.679,
      "duration": 0.1995,
      "velocity": 91,
      "chip": "ym2612"
    },
    {
      "channel": 0,
      "note": 65,
      "start": 8.9288,
      "duration": 0.0124,
      "velocity": 100,
      "chip": "ym2612"
    },
    {
      "channel": 1,
      "note": 56,
      "start": 8.9291,
      "duration": 0.0204,
      "velocity": 91,
      "chip": "ym2612"
    },
    {
      "channel": 0,
      "note": 63,
      "start": 8.9547,
      "duration": 0.6181,
      "velocity": 100,
      "chip": "ym2612"
    },
    {
      "channel": 1,
      "note": 58,
      "start": 8.955,
      "duration": 0.0202,
      "velocity": 91,
      "chip": "ym2612"
    },
    {
      "channel": 1,
      "note": 56,
      "start": 8.9819,
      "duration": 0.0915,
      "velocity": 91,
      "chip": "ym2612"
    },
    {
      "channel": 2,
      "note": 75,
      "start": 8.9821,
      "duration": 0.4191,
      "velocity": 101,
      "chip": "ym2612"
    },
    {
      "channel": 3,
      "note": 71,
      "start": 8.9824,
      "duration": 0.4191,
      "velocity": 101,
      "chip": "ym2612"
    },
    {
      "channel": 4,
      "note": 66,
      "start": 8.9827,
      "duration": 0.419,
      "velocity": 101,
      "chip": "ym2612"
    },
    {
      "channel": 1,
      "note": 63,
      "start": 9.1238,
      "duration": 0.1997,
      "velocity": 91,
      "chip": "ym2612"
    },
    {
      "channel": 1,
      "note": 66,
      "start": 9.3738,
      "duration": 0.0217,
      "velocity": 91,
      "chip": "ym2612"
    },
    {
      "channel": 1,
      "note": 68,
      "start": 9.4011,
      "duration": 0.0222,
      "velocity": 91,
      "chip": "ym2612"
    },
    {
      "channel": 2,
      "note": 75,
      "start": 9.4014,
      "duration": 0.4748,
      "velocity": 101,
      "chip": "ym2612"
    },
    {
      "channel": 3,
      "note": 71,
      "start": 9.4017,
      "duration": 0.4748,
      "velocity": 101,
      "chip": "ym2612"
    },
    {
      "channel": 4,
      "note": 66,
      "start": 9.4019,
      "duration": 0.4748,
      "velocity": 101,
      "chip": "ym2612"
    },
    {
      "channel": 1,
      "note": 63,
      "start": 9.5732,
      "duration": 0.1996,
      "velocity": 91,
      "chip": "ym2612"
    },
    {
      "channel": 0,
      "note": 63,
      "start": 9.8231,
      "duration": 0.0124,
      "velocity": 100,
      "chip": "ym2612"
    },
    {
      "channel": 1,
      "note": 61,
      "start": 9.8234,
      "duration": 0.0208,
      "velocity": 91,
      "chip": "ym2612"
    },
    {
      "channel": 0,
      "note": 65,
      "start": 9.8357,
      "duration": 0.0135,
      "velocity": 100,
      "chip": "ym2612"
    },
    {
      "channel": 0,
      "note": 63,
      "start": 9.8493,
      "duration": 0.1686,
      "velocity": 100,
      "chip": "ym2612"
    },
    {
      "channel": 1,
      "note": 63,
      "start": 9.8497,
      "duration": 0.0203,
      "velocity": 91,
      "chip": "ym2612"
    },
    {
      "channel": 1,
      "note": 56,
      "start": 9.8762,
      "duration": 0.0918,
      "velocity": 91,
      "chip": "ym2612"
    },
    {
      "channel": 2,
      "note": 75,
      "start": 9.8764,
      "duration": 0.4185,
      "velocity": 101,
      "chip": "ym2612"
    },
    {
      "channel": 3,
      "note": 71,
      "start": 9.8766,
      "duration": 0.4186,
      "velocity": 101,
      "chip": "ym2612"
    },
    {
      "channel": 4,
      "note": 66,
      "start": 9.8769,
      "duration": 0.4185,
      "velocity": 101,
      "chip": "ym2612"
    },
    {
      "channel": 1,
      "note": 63,
      "start": 10.0183,
      "duration": 0.1996,
      "velocity": 91,
      "chip": "ym2612"
    },
    {
      "channel": 0,
      "note": 63,
      "start": 10.2682,
      "duration": 0.0124,
      "velocity": 100,
      "chip": "ym2612"
    },
    {
      "channel": 1,
      "note": 66,
      "start": 10.2685,
      "duration": 0.0208,
      "velocity": 91,
      "chip": "ym2612"
    },
    {
      "channel": 0,
      "note": 65,
      "start": 10.2808,
      "duration": 0.0135,
      "velocity": 100,
      "chip": "ym2612"
    },
    {
      "channel": 0,
      "note": 63,
      "start": 10.2946,
      "duration": 0.1683,
      "velocity": 100,
      "chip": "ym2612"
    },
    {
      "channel": 1,
      "note": 68,
      "start": 10.2949,
      "duration": 0.0209,
      "velocity": 91,
      "chip": "ym2612"
    },
    {
      "channel": 2,
      "note": 75,
      "start": 10.2951,
      "duration": 0.471,
      "velocity": 101,
      "chip": "ym2612"
    },
    {
      "channel": 3,
      "note": 71,
      "start": 10.2954,
      "duration": 0.471,
      "velocity": 101,
      "chip": "ym2612"
    },
    {
      "channel": 4,
      "note": 66,
      "start": 10.2956,
      "duration": 0.4712,
      "velocity": 101,
      "chip": "ym2612"
    },
    {
      "channel": 1,
      "note": 63,
      "start": 10.4633,
      "duration": 0.1997,
      "velocity": 91,
      "chip": "ym2612"
    },
    {
      "channel": 0,
      "note": 63,
      "start": 10.7133,
      "duration": 0.0124,
      "velocity": 100,
      "chip": "ym2612"
    },
    {
      "channel": 1,
      "note": 61,
      "start": 10.7136,
      "duration": 0.0208,
      "velocity": 91,
      "chip": "ym2612"
    },
    {
      "channel": 0,
      "note": 65,
      "start": 10.7259,
      "duration": 0.0135,
      "velocity": 100,
      "chip": "ym2612"
    },
    {
      "channel": 0,
      "note": 63,
      "start": 10.7396,
      "duration": 0.9254,
      "velocity": 100,
      "chip": "ym2612"
    },
    {
      "channel": 1,
      "note": 63,
      "start": 10.7399,
      "duration": 0.0199,
      "velocity": 91,
      "chip": "ym2612"
    },
    {
      "channel": 1,
      "note": 51,
      "start": 10.7661,
      "duration": 0.0921,
      "velocity": 91,
      "chip": "ym2612"
    },
    {
      "channel": 2,
      "note": 75,
      "start": 10.7663,
      "duration": 0.4194,
      "velocity": 101,
      "chip": "ym2612"
    },
    {
      "channel": 3,
      "note": 70,
      "start": 10.7666,
      "duration": 0.4194,
      "velocity": 101,
      "chip": "ym2612"
    },
    {
      "channel": 4,
      "note": 66,
      "start": 10.767,
      "duration": 0.4193,
      "velocity": 101,
      "chip": "ym2612"
    },
    {
      "channel": 1,
      "note": 58,
      "start": 10.9084,
      "duration": 0.1998,
      "velocity": 91,
      "chip": "ym2612"
    },
    {
      "channel": 1,
      "note": 61,
      "start": 11.1585,
      "duration": 0.0216,
      "velocity": 91,
      "chip": "ym2612"
    },
    {
      "channel": 1,
      "note": 63,
      "start": 11.1857,
      "duration": 0.0224,
      "velocity": 91,
      "chip": "ym2612"
    },
    {
      "channel": 2,
      "note": 77,
      "start": 11.1859,
      "duration": 0.4795,
      "velocity": 101,
      "chip": "ym2612"
    },
    {
      "channel": 3,
      "note": 72,
      "start": 11.1862,
      "duration": 0.4794,
      "velocity": 101,
      "chip": "ym2612"
    },
    {
      "channel": 4,
      "note": 68,
      "start": 11.1864,
      "duration": 0.4794,
      "velocity": 101,
      "chip": "ym2612"
    },
    {
      "channel": 1,
      "note": 61,
      "start": 11.2163,
      "duration": 0.0916,
      "velocity": 91,
      "chip": "ym2612"
    },
    {
      "channel": 1,
      "note": 58,
      "start": 11.3581,
      "duration": 0.1998,
      "velocity": 91,
      "chip": "ym2612"
    },
    {
      "channel": 1,
      "note": 56,
      "start": 11.6081,
      "duration": 0.0216,
      "velocity": 91,
      "chip": "ym2612"
    },
    {
      "channel": 1,
      "note": 58,
      "start": 11.6354,
      "duration": 0.0214,
      "velocity": 91,
      "chip": "ym2612"
    },
    {
      "channel": 1,
      "note": 51,
      "start": 11.6653,
      "duration": 0.0917,
      "velocity": 91,
      "chip": "ym2612"
    },
    {
      "channel": 2,
      "note": 78,
      "start": 11.6656,
      "duration": 0.418,
      "velocity": 101,
      "chip": "ym2612"
    },
    {
      "channel": 3,
      "note": 73,
      "start": 11.6658,
      "duration": 0.418,
      "velocity": 101,
      "chip": "ym2612"
    },
    {
      "channel": 4,
      "note": 70,
      "start": 11.666,
      "duration": 0.4181,
      "velocity": 101,
      "chip": "ym2612"
    },
    {
      "channel": 0,
      "note": 63,
      "start": 11.8072,
      "duration": 0.2499,
      "velocity": 100,
      "chip": "ym2612"
    },
    {
      "channel": 1,
      "note": 58,
      "start": 11.8076,
      "duration": 0.1995,
      "velocity": 91,
      "chip": "ym2612"
    },
    {
      "channel": 0,
      "note": 66,
      "start": 12.0573,
      "duration": 0.0256,
      "velocity": 100,
      "chip": "ym2612"
    },
    {
      "channel": 1,
      "note": 61,
      "start": 12.0576,
      "duration": 0.0202,
      "velocity": 91,
      "chip": "ym2612"
    },
    {
      "channel": 0,
      "note": 67,
      "start": 12.0831,
      "duration": 0.0096,
      "velocity": 100,
      "chip": "ym2612"
    },
    {
      "channel": 1,
      "note": 63,
      "start": 12.0835,
      "duration": 0.0208,
      "velocity": 91,
      "chip": "ym2612"
    },
    {
      "channel": 2,
      "note": 77,
      "start": 12.0837,
      "duration": 0.4713,
      "velocity": 101,
      "chip": "ym2612"
    },
    {
      "channel": 3,
      "note": 72,
      "start": 12.0841,
      "duration": 0.4713,
      "velocity": 101,
      "chip": "ym2612"
    },
    {
      "channel": 4,
      "note": 68,
      "start": 12.0844,
      "duration": 0.4713,
      "velocity": 101,
      "chip": "ym2612"
    },
    {
      "channel": 0,
      "note": 68,
      "start": 12.0927,
      "duration": 0.1589,
      "velocity": 100,
      "chip": "ym2612"
    },
    {
      "channel": 1,
      "note": 61,
      "start": 12.1099,
      "duration": 0.0918,
      "velocity": 91,
      "chip": "ym2612"
    },
    {
      "channel": 0,
      "note": 66,
      "start": 12.2519,
      "duration": 0.2499,
      "velocity": 100,
      "chip": "ym2612"
    },
    {
      "channel": 1,
      "note": 58,
      "start": 12.2522,
      "duration": 0.1995,
      "velocity": 91,
      "chip": "ym2612"
    },
    {
      "channel": 0,
      "note": 65,
      "start": 12.5019,
      "duration": 0.0124,
      "velocity": 100,
      "chip": "ym2612"
    },
    {
      "channel": 1,
      "note": 56,
      "start": 12.5022,
      "duration": 0.0204,
      "velocity": 91,
      "chip": "ym2612"
    },
    {
      "channel": 0,
      "note": 63,
      "start": 12.5278,
      "duration": 0.6181,
      "velocity": 100,
      "chip": "ym2612"
    },
    {
      "channel": 1,
      "note": 58,
      "start": 12.5282,
      "duration": 0.0202,
      "velocity": 91,
      "chip": "ym2612"
    },
    {
      "channel": 1,
      "note": 56,
      "start": 12.555,
      "duration": 0.0915,
      "velocity": 91,
      "chip": "ym2612"
    },
    {
      "channel": 2,
      "note": 75,
      "start": 12.5552,
      "duration": 0.4191,
      "velocity": 101,
      "chip": "ym2612"
    },
    {
      "channel": 3,
      "note": 71,
      "start": 12.5555,
      "duration": 0.419,
      "velocity": 101,
      "chip": "ym2612"
    },
    {
      "channel": 4,
      "note": 66,
      "start": 12.5558,
      "duration": 0.419,
      "velocity": 101,
      "chip": "ym2612"
    },
    {
      "channel": 1,
      "note": 63,
      "start": 12.6969,
      "duration": 0.1997,
      "velocity": 91,
      "chip": "ym2612"
    },
    {
      "channel": 1,
      "note": 66,
      "start": 12.9469,
      "duration": 0.0217,
      "velocity": 91,
      "chip": "ym2612"
    },
    {
      "channel": 1,
      "note": 68,
      "start": 12.9742,
      "duration": 0.0222,
      "velocity": 91,
      "chip": "ym2612"
    },
    {
      "channel": 2,
      "note": 75,
      "start": 12.9745,
      "duration": 0.4747,
      "velocity": 101,
      "chip": "ym2612"
    },
    {
      "channel": 3,
      "note": 71,
      "start": 12.9748,
      "duration": 0.4746,
      "velocity": 101,
      "chip": "ym2612"
    },
    {
      "channel": 4,
      "note": 66,
      "start": 12.975,
      "duration": 0.4747,
      "velocity": 101,
      "chip": "ym2612"
    },
    {
      "channel": 1,
      "note": 63,
      "start": 13.1463,
      "duration": 0.1996,
      "velocity": 91,
      "chip": "ym2612"
    },
    {
      "channel": 0,
      "note": 63,
      "start": 13.3963,
      "duration": 0.0122,
      "velocity": 100,
      "chip": "ym2612"
    },
    {
      "channel": 1,
      "note": 61,
      "start": 13.3965,
      "duration": 0.0206,
      "velocity": 91,
      "chip": "ym2612"
    },
    {
      "channel": 0,
      "note": 65,
      "start": 13.4087,
      "duration": 0.0135,
      "velocity": 100,
      "chip": "ym2612"
    },
    {
      "channel": 0,
      "note": 63,
      "start": 13.4223,
      "duration": 0.1686,
      "velocity": 100,
      "chip": "ym2612"
    },
    {
      "channel": 1,
      "note": 63,
      "start": 13.4227,
      "duration": 0.0203,
      "velocity": 91,
      "chip": "ym2612"
    },
    {
      "channel": 1,
      "note": 56,
      "start": 13.4491,
      "duration": 0.0918,
      "velocity": 91,
      "chip": "ym2612"
    },
    {
      "channel": 2,
      "note": 75,
      "start": 13.4493,
      "duration": 0.4202,
      "velocity": 101,
      "chip": "ym2612"
    },
    {
      "channel": 3,
      "note": 71,
      "start": 13.4496,
      "duration": 0.422,
      "velocity": 101,
      "chip": "ym2612"
    },
    {
      "channel": 4,
      "note": 66,
      "start": 13.4499,
      "duration": 0.4237,
      "velocity": 101,
      "chip": "ym2612"
    },
    {
      "channel": 1,
      "note": 63,
      "start": 13.5913,
      "duration": 0.1996,
      "velocity": 91,
      "chip": "ym2612"
    },
    {
      "channel": 0,
      "note": 63,
      "start": 13.8412,
      "duration": 0.0124,
      "velocity": 100,
      "chip": "ym2612"
    },
    {
      "channel": 1,
      "note": 66,
      "start": 13.8415,
      "duration": 0.0208,
      "velocity": 91,
      "chip": "ym2612"
    },
    {
      "channel": 0,
      "note": 65,
      "start": 13.8538,
      "duration": 0.0135,
      "velocity": 100,
      "chip": "ym2612"
    },
    {
      "channel": 0,
      "note": 63,
      "start": 13.8676,
      "duration": 0.1839,
      "velocity": 100,
      "chip": "ym2612"
    },
    {
      "channel": 1,
      "note": 68,
      "start": 13.8678,
      "duration": 0.0371,
      "velocity": 91,
      "chip": "ym2612"
    },
    {
      "channel": 2,
      "note": 75,
      "start": 13.8697,
      "duration": 0.4866,
      "velocity": 101,
      "chip": "ym2612"
    },
    {
      "channel": 3,
      "note": 71,
      "start": 13.8718,
      "duration": 0.4867,
      "velocity": 101,
      "chip": "ym2612"
    },
    {
      "channel": 4,
      "note": 66,
      "start": 13.8739,
      "duration": 0.4867,
      "velocity": 101,
      "chip": "ym2612"
    },
    {
      "channel": 1,
      "note": 63,
      "start": 14.0518,
      "duration": 0.1997,
      "velocity": 91,
      "chip": "ym2612"
    },
    {
      "channel": 0,
      "note": 63,
      "start": 14.3018,
      "duration": 0.0121,
      "velocity": 100,
      "chip": "ym2612"
    },
    {
      "channel": 1,
      "note": 61,
      "start": 14.302,
      "duration": 0.0207,
      "velocity": 91,
      "chip": "ym2612"
    },
    {
      "channel": 0,
      "note": 65,
      "start": 14.3142,
      "duration": 0.0135,
      "velocity": 100,
      "chip": "ym2612"
    },
    {
      "channel": 0,
      "note": 63,
      "start": 14.3279,
      "duration": 0.9265,
      "velocity": 100,
      "chip": "ym2612"
    },
    {
      "channel": 1,
      "note": 63,
      "start": 14.3282,
      "duration": 0.0199,
      "velocity": 91,
      "chip": "ym2612"
    },
    {
      "channel": 1,
      "note": 51,
      "start": 14.3544,
      "duration": 0.0935,
      "velocity": 91,
      "chip": "ym2612"
    },
    {
      "channel": 2,
      "note": 75,
      "start": 14.3565,
      "duration": 0.419,
      "velocity": 101,
      "chip": "ym2612"
    },
    {
      "channel": 3,
      "note": 70,
      "start": 14.3586,
      "duration": 0.4172,
      "velocity": 101,
      "chip": "ym2612"
    },
    {
      "channel": 4,
      "note": 66,
      "start": 14.3608,
      "duration": 0.4153,
      "velocity": 101,
      "chip": "ym2612"
    },
    {
      "channel": 1,
      "note": 58,
      "start": 14.4981,
      "duration": 0.1998,
      "velocity": 91,
      "chip": "ym2612"
    },
    {
      "channel": 1,
      "note": 61,
      "start": 14.7482,
      "duration": 0.0217,
      "velocity": 91,
      "chip": "ym2612"
    },
    {
      "channel": 1,
      "note": 63,
      "start": 14.7755,
      "duration": 0.0221,
      "velocity": 91,
      "chip": "ym2612"
    },
    {
      "channel": 2,
      "note": 77,
      "start": 14.7758,
      "duration": 0.4792,
      "velocity": 101,
      "chip": "ym2612"
    },
    {
      "channel": 3,
      "note": 72,
      "start": 14.776,
      "duration": 0.4792,
      "velocity": 101,
      "chip": "ym2612"
    },
    {
      "channel": 4,
      "note": 68,
      "start": 14.7763,
      "duration": 0.4792,
      "velocity": 101,
      "chip": "ym2612"
    },
    {
      "channel": 1,
      "note": 61,
      "start": 14.8059,
      "duration": 0.0914,
      "velocity": 91,
      "chip": "ym2612"
    },
    {
      "channel": 1,
      "note": 58,
      "start": 14.9474,
      "duration": 0.1998,
      "velocity": 91,
      "chip": "ym2612"
    },
    {
      "channel": 1,
      "note": 56,
      "start": 15.1974,
      "duration": 0.0217,
      "velocity": 91,
      "chip": "ym2612"
    },
    {
      "channel": 1,
      "note": 58,
      "start": 15.2247,
      "duration": 0.0215,
      "velocity": 91,
      "chip": "ym2612"
    },
    {
      "channel": 1,
      "note": 51,
      "start": 15.2549,
      "duration": 0.0917,
      "velocity": 91,
      "chip": "ym2612"
    },
    {
      "channel": 2,
      "note": 78,
      "start": 15.2551,
      "duration": 0.4188,
      "velocity": 101,
      "chip": "ym2612"
    },
    {
      "channel": 3,
      "note": 73,
      "start": 15.2554,
      "duration": 0.4188,
      "velocity": 101,
      "chip": "ym2612"
    },
    {
      "channel": 4,
      "note": 70,
      "start": 15.2558,
      "duration": 0.4187,
      "velocity": 101,
      "chip": "ym2612"
    },
    {
      "channel": 1,
      "note": 58,
      "start": 15.3968,
      "duration": 0.1999,
      "velocity": 91,
      "chip": "ym2612"
    },
    {
      "channel": 1,
      "note": 61,
      "start": 15.647,
      "duration": 0.0217,
      "velocity": 91,
      "chip": "ym2612"
    },
    {
      "channel": 1,
      "note": 63,
      "start": 15.6739,
      "duration": 0.0217,
      "velocity": 91,
      "chip": "ym2612"
    },
    {
      "channel": 2,
      "note": 77,
      "start": 15.6741,
      "duration": 0.4779,
      "velocity": 101,
      "chip": "ym2612"
    },
    {
      "channel": 3,
      "note": 72,
      "start": 15.6744,
      "duration": 0.4779,
      "velocity": 101,
      "chip": "ym2612"
    },
    {
      "channel": 4,
      "note": 68,
      "start": 15.6746,
      "duration": 0.478,
      "velocity": 101,
      "chip": "ym2612"
    },
    {
      "channel": 1,
      "note": 61,
      "start": 15.7038,
      "duration": 0.0913,
      "velocity": 91,
      "chip": "ym2612"
    },
    {
      "channel": 1,
      "note": 58,
      "start": 15.8453,
      "duration": 0.1998,
      "velocity": 91,
      "chip": "ym2612"
    },
    {
      "channel": 1,
      "note": 56,
      "start": 16.0953,
      "duration": 0.0217,
      "velocity": 91,
      "chip": "ym2612"
    },
    {
      "channel": 1,
      "note": 58,
      "start": 16.1222,
      "duration": 0.0215,
      "velocity": 91,
      "chip": "ym2612"
    },
    {
      "channel": 1,
      "note": 51,
      "start": 16.152,
      "duration": 0.092,
      "velocity": 91,
      "chip": "ym2612"
    },
    {
      "channel": 2,
      "note": 75,
      "start": 16.1522,
      "duration": 0.4183,
      "velocity": 101,
      "chip": "ym2612"
    },
    {
      "channel": 3,
      "note": 70,
      "start": 16.1525,
      "duration": 0.4184,
      "velocity": 101,
      "chip": "ym2612"
    },
    {
      "channel": 4,
      "note": 66,
      "start": 16.1528,
      "duration": 0.4184,
      "velocity": 101,
      "chip": "ym2612"
    },
    {
      "channel": 0,
      "note": 69,
      "start": 16.2942,
      "duration": 0.0833,
      "velocity": 100,
      "chip": "ym2612"
    },
    {
      "channel": 1,
      "note": 58,
      "start": 16.2945,
      "duration": 0.1995,
      "velocity": 91,
      "chip": "ym2612"
    },
    {
      "channel": 0,
      "note": 70,
      "start": 16.3774,
      "duration": 0.1666,
      "velocity": 100,
      "chip": "ym2612"
    },
    {
      "channel": 0,
      "note": 70,
      "start": 16.5443,
      "duration": 0.0256,
      "velocity": 100,
      "chip": "ym2612"
    },
    {
      "channel": 1,
      "note": 61,
      "start": 16.5445,
      "duration": 0.0203,
      "velocity": 91,
      "chip": "ym2612"
    },
    {
      "channel": 0,
      "note": 70,
      "start": 16.5701,
      "duration": 0.0268,
      "velocity": 100,
      "chip": "ym2612"
    },
    {
      "channel": 1,
      "note": 63,
      "start": 16.5705,
      "duration": 0.0209,
      "velocity": 91,
      "chip": "ym2612"
    },
    {
      "channel": 2,
      "note": 77,
      "start": 16.5707,
      "duration": 0.4706,
      "velocity": 101,
      "chip": "ym2612"
    },
    {
      "channel": 3,
      "note": 72,
      "start": 16.5711,
      "duration": 0.4706,
      "velocity": 101,
      "chip": "ym2612"
    },
    {
      "channel": 4,
      "note": 68,
      "start": 16.5713,
      "duration": 0.4706,
      "velocity": 101,
      "chip": "ym2612"
    },
    {
      "channel": 0,
      "note": 70,
      "start": 16.5971,
      "duration": 0.1415,
      "velocity": 100,
      "chip": "ym2612"
    },
    {
      "channel": 1,
      "note": 61,
      "start": 16.5973,
      "duration": 0.0913,
      "velocity": 91,
      "chip": "ym2612"
    },
    {
      "channel": 0,
      "note": 68,
      "start": 16.7388,
      "duration": 0.2499,
      "velocity": 100,
      "chip": "ym2612"
    },
    {
      "channel": 1,
      "note": 58,
      "start": 16.7391,
      "duration": 0.1995,
      "velocity": 91,
      "chip": "ym2612"
    },
    {
      "channel": 0,
      "note": 66,
      "start": 16.989,
      "duration": 0.0255,
      "velocity": 100,
      "chip": "ym2612"
    },
    {
      "channel": 1,
      "note": 56,
      "start": 16.9891,
      "duration": 0.0202,
      "velocity": 91,
      "chip": "ym2612"
    },
    {
      "channel": 0,
      "note": 67,
      "start": 17.0146,
      "duration": 0.0089,
      "velocity": 100,
      "chip": "ym2612"
    },
    {
      "channel": 1,
      "note": 58,
      "start": 17.015,
      "duration": 0.0201,
      "velocity": 91,
      "chip": "ym2612"
    },
    {
      "channel": 0,
      "note": 68,
      "start": 17.0235,
      "duration": 0.03,
      "velocity": 100,
      "chip": "ym2612"
    },
    {
      "channel": 1,
      "note": 51,
      "start": 17.0413,
      "duration": 0.0922,
      "velocity": 91,
      "chip": "ym2612"
    },
    {
      "channel": 2,
      "note": 78,
      "start": 17.0416,
      "duration": 0.4202,
      "velocity": 101,
      "chip": "ym2612"
    },
    {
      "channel": 3,
      "note": 73,
      "start": 17.0419,
      "duration": 0.4202,
      "velocity": 101,
      "chip": "ym2612"
    },
    {
      "channel": 4,
      "note": 70,
      "start": 17.0421,
      "duration": 0.4203,
      "velocity": 101,
      "chip": "ym2612"
    },
    {
      "channel": 0,
      "note": 66,
      "start": 17.0536,
      "duration": 0.1298,
      "velocity": 100,
      "chip": "ym2612"
    },
    {
      "channel": 0,
      "note": 70,
      "start": 17.1837,
      "duration": 0.2774,
      "velocity": 100,
      "chip": "ym2612"
    },
    {
      "channel": 1,
      "note": 58,
      "start": 17.184,
      "duration": 0.1996,
      "velocity": 91,
      "chip": "ym2612"
    },
    {
      "channel": 1,
      "note": 61,
      "start": 17.4338,
      "duration": 0.0221,
      "velocity": 91,
      "chip": "ym2612"
    },
    {
      "channel": 0,
      "note": 68,
      "start": 17.4614,
      "duration": 0.0129,
      "velocity": 100,
      "chip": "ym2612"
    },
    {
      "channel": 1,
      "note": 63,
      "start": 17.4617,
      "duration": 0.0211,
      "velocity": 91,
      "chip": "ym2612"
    },
    {
      "channel": 2,
      "note": 77,
      "start": 17.462,
      "duration": 0.471,
      "velocity": 101,
      "chip": "ym2612"
    },
    {
      "channel": 3,
      "note": 72,
      "start": 17.4624,
      "duration": 0.4709,
      "velocity": 101,
      "chip": "ym2612"
    },
    {
      "channel": 4,
      "note": 68,
      "start": 17.4627,
      "duration": 0.4709,
      "velocity": 101,
      "chip": "ym2612"
    },
    {
      "channel": 0,
      "note": 66,
      "start": 17.4745,
      "duration": 0.0134,
      "velocity": 100,
      "chip": "ym2612"
    },
    {
      "channel": 0,
      "note": 68,
      "start": 17.4881,
      "duration": 0.1413,
      "velocity": 100,
      "chip": "ym2612"
    },
    {
      "channel": 1,
      "note": 61,
      "start": 17.4884,
      "duration": 0.091,
      "velocity": 91,
      "chip": "ym2612"
    },
    {
      "channel": 0,
      "note": 66,
      "start": 17.6296,
      "duration": 0.1164,
      "velocity": 100,
      "chip": "ym2612"
    },
    {
      "channel": 1,
      "note": 58,
      "start": 17.6299,
      "duration": 0.1995,
      "velocity": 91,
      "chip": "ym2612"
    },
    {
      "channel": 0,
      "note": 70,
      "start": 17.8798,
      "duration": 0.0527,
      "velocity": 100,
      "chip": "ym2612"
    },
    {
      "channel": 1,
      "note": 56,
      "start": 17.8801,
      "duration": 0.0206,
      "velocity": 91,
      "chip": "ym2612"
    },
    {
      "channel": 1,
      "note": 58,
      "start": 17.9059,
      "duration": 0.0207,
      "velocity": 91,
      "chip": "ym2612"
    },
    {
      "channel": 1,
      "note": 51,
      "start": 17.9329,
      "duration": 0.0917,
      "velocity": 91,
      "chip": "ym2612"
    },
    {
      "channel": 2,
      "note": 75,
      "start": 17.9332,
      "duration": 0.4177,
      "velocity": 101,
      "chip": "ym2612"
    },
    {
      "channel": 3,
      "note": 70,
      "start": 17.9335,
      "duration": 0.4176,
      "velocity": 101,
      "chip": "ym2612"
    },
    {
      "channel": 4,
      "note": 66,
      "start": 17.9337,
      "duration": 0.4177,
      "velocity": 101,
      "chip": "ym2612"
    },
    {
      "channel": 0,
      "note": 69,
      "start": 18.0748,
      "duration": 0.0833,
      "velocity": 100,
      "chip": "ym2612"
    },
    {
      "channel": 1,
      "note": 58,
      "start": 18.0751,
      "duration": 0.1995,
      "velocity": 91,
      "chip": "ym2612"
    },
    {
      "channel": 0,
      "note": 70,
      "start": 18.158,
      "duration": 0.1666,
      "velocity": 100,
      "chip": "ym2612"
    },
    {
      "channel": 0,
      "note": 70,
      "start": 18.3248,
      "duration": 0.0255,
      "velocity": 100,
      "chip": "ym2612"
    },
    {
      "channel": 1,
      "note": 61,
      "start": 18.3251,
      "duration": 0.0202,
      "velocity": 91,
      "chip": "ym2612"
    },
    {
      "channel": 0,
      "note": 70,
      "start": 18.3506,
      "duration": 0.0266,
      "velocity": 100,
      "chip": "ym2612"
    },
    {
      "channel": 1,
      "note": 63,
      "start": 18.3508,
      "duration": 0.021,
      "velocity": 91,
      "chip": "ym2612"
    },
    {
      "channel": 2,
      "note": 77,
      "start": 18.3511,
      "duration": 0.4705,
      "velocity": 101,
      "chip": "ym2612"
    },
    {
      "channel": 3,
      "note": 72,
      "start": 18.3513,
      "duration": 0.4705,
      "velocity": 101,
      "chip": "ym2612"
    },
    {
      "channel": 4,
      "note": 68,
      "start": 18.3517,
      "duration": 0.4705,
      "velocity": 101,
      "chip": "ym2612"
    },
    {
      "channel": 0,
      "note": 70,
      "start": 18.3775,
      "duration": 0.1415,
      "velocity": 100,
      "chip": "ym2612"
    },
    {
      "channel": 1,
      "note": 61,
      "start": 18.3778,
      "duration": 0.0912,
      "velocity": 91,
      "chip": "ym2612"
    },
    {
      "channel": 0,
      "note": 68,
      "start": 18.5192,
      "duration": 0.2499,
      "velocity": 100,
      "chip": "ym2612"
    },
    {
      "channel": 1,
      "note": 58,
      "start": 18.5194,
      "duration": 0.1995,
      "velocity": 91,
      "chip": "ym2612"
    },
    {
      "channel": 0,
      "note": 66,
      "start": 18.7693,
      "duration": 0.0256,
      "velocity": 100,
      "chip": "ym2612"
    },
    {
      "channel": 1,
      "note": 56,
      "start": 18.7695,
      "duration": 0.0202,
      "velocity": 91,
      "chip": "ym2612"
    },
    {
      "channel": 0,
      "note": 67,
      "start": 18.7951,
      "duration": 0.0086,
      "velocity": 100,
      "chip": "ym2612"
    },
    {
      "channel": 1,
      "note": 58,
      "start": 18.7953,
      "duration": 0.0199,
      "velocity": 91,
      "chip": "ym2612"
    },
    {
      "channel": 0,
      "note": 68,
      "start": 18.8037,
      "duration": 0.0293,
      "velocity": 100,
      "chip": "ym2612"
    },
    {
      "channel": 1,
      "note": 51,
      "start": 18.8215,
      "duration": 0.0915,
      "velocity": 91,
      "chip": "ym2612"
    },
    {
      "channel": 2,
      "note": 78,
      "start": 18.8217,
      "duration": 0.4195,
      "velocity": 101,
      "chip": "ym2612"
    },
    {
      "channel": 3,
      "note": 73,
      "start": 18.822,
      "duration": 0.4196,
      "velocity": 101,
      "chip": "ym2612"
    },
    {
      "channel": 4,
      "note": 70,
      "start": 18.8223,
      "duration": 0.4196,
      "velocity": 101,
      "chip": "ym2612"
    },
    {
      "channel": 0,
      "note": 66,
      "start": 18.8331,
      "duration": 0.1298,
      "velocity": 100,
      "chip": "ym2612"
    },
    {
      "channel": 0,
      "note": 70,
      "start": 18.9632,
      "duration": 0.2774,
      "velocity": 100,
      "chip": "ym2612"
    },
    {
      "channel": 1,
      "note": 58,
      "start": 18.9634,
      "duration": 0.1996,
      "velocity": 91,
      "chip": "ym2612"
    },
    {
      "channel": 1,
      "note": 61,
      "start": 19.2133,
      "duration": 0.0221,
      "velocity": 91,
      "chip": "ym2612"
    },
    {
      "channel": 0,
      "note": 67,
      "start": 19.2408,
      "duration": 0.0099,
      "velocity": 100,
      "chip": "ym2612"
    },
    {
      "channel": 1,
      "note": 63,
      "start": 19.2412,
      "duration": 0.0211,
      "velocity": 91,
      "chip": "ym2612"
    },
    {
      "channel": 2,
      "note": 77,
      "start": 19.2415,
      "duration": 0.4703,
      "velocity": 101,
      "chip": "ym2612"
    },
    {
      "channel": 3,
      "note": 72,
      "start": 19.2418,
      "duration": 0.4702,
      "velocity": 101,
      "chip": "ym2612"
    },
    {
      "channel": 4,
      "note": 68,
      "start": 19.2421,
      "duration": 0.4702,
      "velocity": 101,
      "chip": "ym2612"
    },
    {
      "channel": 0,
      "note": 68,
      "start": 19.2507,
      "duration": 0.1578,
      "velocity": 100,
      "chip": "ym2612"
    },
    {
      "channel": 1,
      "note": 61,
      "start": 19.2676,
      "duration": 0.091,
      "velocity": 91,
      "chip": "ym2612"
    },
    {
      "channel": 0,
      "note": 66,
      "start": 19.4087,
      "duration": 0.2499,
      "velocity": 100,
      "chip": "ym2612"
    },
    {
      "channel": 1,
      "note": 58,
      "start": 19.409,
      "duration": 0.1995,
      "velocity": 91,
      "chip": "ym2612"
    },
    {
      "channel": 0,
      "note": 65,
      "start": 19.6588,
      "duration": 0.0123,
      "velocity": 100,
      "chip": "ym2612"
    },
    {
      "channel": 1,
      "note": 56,
      "start": 19.6591,
      "duration": 0.0204,
      "velocity": 91,
      "chip": "ym2612"
    },
    {
      "channel": 0,
      "note": 63,
      "start": 19.6846,
      "duration": 0.6183,
      "velocity": 100,
      "chip": "ym2612"
    },
    {
      "channel": 1,
      "note": 58,
      "start": 19.685,
      "duration": 0.0202,
      "velocity": 91,
      "chip": "ym2612"
    },
    {
      "channel": 1,
      "note": 56,
      "start": 19.7117,
      "duration": 0.0919,
      "velocity": 91,
      "chip": "ym2612"
    },
    {
      "channel": 2,
      "note": 75,
      "start": 19.7119,
      "duration": 0.4196,
      "velocity": 101,
      "chip": "ym2612"
    },
    {
      "channel": 3,
      "note": 71,
      "start": 19.7122,
      "duration": 0.4195,
      "velocity": 101,
      "chip": "ym2612"
    },
    {
      "channel": 4,
      "note": 66,
      "start": 19.7124,
      "duration": 0.4196,
      "velocity": 101,
      "chip": "ym2612"
    },
    {
      "channel": 1,
      "note": 63,
      "start": 19.8539,
      "duration": 0.1997,
      "velocity": 91,
      "chip": "ym2612"
    },
    {
      "channel": 1,
      "note": 66,
      "start": 20.1039,
      "duration": 0.0217,
      "velocity": 91,
      "chip": "ym2612"
    },
    {
      "channel": 1,
      "note": 68,
      "start": 20.1315,
      "duration": 0.0221,
      "velocity": 91,
      "chip": "ym2612"
    },
    {
      "channel": 2,
      "note": 75,
      "start": 20.1317,
      "duration": 0.4748,
      "velocity": 101,
      "chip": "ym2612"
    },
    {
      "channel": 3,
      "note": 71,
      "start": 20.1319,
      "duration": 0.4748,
      "velocity": 101,
      "chip": "ym2612"
    },
    {
      "channel": 4,
      "note": 66,
      "start": 20.1322,
      "duration": 0.4747,
      "velocity": 101,
      "chip": "ym2612"
    },
    {
      "channel": 1,
      "note": 63,
      "start": 20.3034,
      "duration": 0.1996,
      "velocity": 91,
      "chip": "ym2612"
    },
    {
      "channel": 0,
      "note": 63,
      "start": 20.5533,
      "duration": 0.0121,
      "velocity": 100,
      "chip": "ym2612"
    },
    {
      "channel": 1,
      "note": 61,
      "start": 20.5535,
      "duration": 0.0207,
      "velocity": 91,
      "chip": "ym2612"
    },
    {
      "channel": 0,
      "note": 65,
      "start": 20.5657,
      "duration": 0.0135,
      "velocity": 100,
      "chip": "ym2612"
    },
    {
      "channel": 0,
      "note": 63,
      "start": 20.5794,
      "duration": 0.169,
      "velocity": 100,
      "chip": "ym2612"
    },
    {
      "channel": 1,
      "note": 63,
      "start": 20.5797,
      "duration": 0.0203,
      "velocity": 91,
      "chip": "ym2612"
    },
    {
      "channel": 1,
      "note": 56,
      "start": 20.6064,
      "duration": 0.092,
      "velocity": 91,
      "chip": "ym2612"
    },
    {
      "channel": 2,
      "note": 75,
      "start": 20.6066,
      "duration": 0.4203,
      "velocity": 101,
      "chip": "ym2612"
    },
    {
      "channel": 3,
      "note": 71,
      "start": 20.6069,
      "duration": 0.422,
      "velocity": 101,
      "chip": "ym2612"
    },
    {
      "channel": 4,
      "note": 66,
      "start": 20.6071,
      "duration": 0.4238,
      "velocity": 101,
      "chip": "ym2612"
    },
    {
      "channel": 1,
      "note": 63,
      "start": 20.7488,
      "duration": 0.1996,
      "velocity": 91,
      "chip": "ym2612"
    },
    {
      "channel": 0,
      "note": 63,
      "start": 20.9988,
      "duration": 0.0121,
      "velocity": 100,
      "chip": "ym2612"
    },
    {
      "channel": 1,
      "note": 66,
      "start": 20.9989,
      "duration": 0.0207,
      "velocity": 91,
      "chip": "ym2612"
    },
    {
      "channel": 0,
      "note": 65,
      "start": 21.0111,
      "duration": 0.0135,
      "velocity": 100,
      "chip": "ym2612"
    },
    {
      "channel": 0,
      "note": 63,
      "start": 21.0249,
      "duration": 0.1839,
      "velocity": 100,
      "chip": "ym2612"
    },
    {
      "channel": 1,
      "note": 68,
      "start": 21.0252,
      "duration": 0.0371,
      "velocity": 91,
      "chip": "ym2612"
    },
    {
      "channel": 2,
      "note": 75,
      "start": 21.0271,
      "duration": 0.4867,
      "velocity": 101,
      "chip": "ym2612"
    },
    {
      "channel": 3,
      "note": 71,
      "start": 21.0292,
      "duration": 0.4868,
      "velocity": 101,
      "chip": "ym2612"
    },
    {
      "channel": 4,
      "note": 66,
      "start": 21.0312,
      "duration": 0.4868,
      "velocity": 101,
      "chip": "ym2612"
    },
    {
      "channel": 1,
      "note": 63,
      "start": 21.2092,
      "duration": 0.1997,
      "velocity": 91,
      "chip": "ym2612"
    },
    {
      "channel": 0,
      "note": 63,
      "start": 21.4592,
      "duration": 0.0121,
      "velocity": 100,
      "chip": "ym2612"
    },
    {
      "channel": 1,
      "note": 61,
      "start": 21.4594,
      "duration": 0.0207,
      "velocity": 91,
      "chip": "ym2612"
    },
    {
      "channel": 0,
      "note": 65,
      "start": 21.4715,
      "duration": 0.0135,
      "velocity": 100,
      "chip": "ym2612"
    },
    {
      "channel": 0,
      "note": 63,
      "start": 21.4853,
      "duration": 0.9239,
      "velocity": 100,
      "chip": "ym2612"
    },
    {
      "channel": 1,
      "note": 63,
      "start": 21.4855,
      "duration": 0.0202,
      "velocity": 91,
      "chip": "ym2612"
    },
    {
      "channel": 1,
      "note": 51,
      "start": 21.5119,
      "duration": 0.0935,
      "velocity": 91,
      "chip": "ym2612"
    },
    {
      "channel": 2,
      "note": 75,
      "start": 21.514,
      "duration": 0.4192,
      "velocity": 101,
      "chip": "ym2612"
    },
    {
      "channel": 3,
      "note": 70,
      "start": 21.5161,
      "duration": 0.4173,
      "velocity": 101,
      "chip": "ym2612"
    },
    {
      "channel": 4,
      "note": 66,
      "start": 21.5183,
      "duration": 0.4154,
      "velocity": 101,
      "chip": "ym2612"
    },
    {
      "channel": 1,
      "note": 58,
      "start": 21.6556,
      "duration": 0.1998,
      "velocity": 91,
      "chip": "ym2612"
    },
    {
      "channel": 1,
      "note": 61,
      "start": 21.9056,
      "duration": 0.0219,
      "velocity": 91,
      "chip": "ym2612"
    },
    {
      "channel": 1,
      "note": 63,
      "start": 21.9331,
      "duration": 0.0221,
      "velocity": 91,
      "chip": "ym2612"
    },
    {
      "channel": 2,
      "note": 77,
      "start": 21.9334,
      "duration": 0.4762,
      "velocity": 101,
      "chip": "ym2612"
    },
    {
      "channel": 3,
      "note": 72,
      "start": 21.9337,
      "duration": 0.4763,
      "velocity": 101,
      "chip": "ym2612"
    },
    {
      "channel": 4,
      "note": 68,
      "start": 21.934,
      "duration": 0.4762,
      "velocity": 101,
      "chip": "ym2612"
    },
    {
      "channel": 1,
      "note": 61,
      "start": 21.9634,
      "duration": 0.0914,
      "velocity": 91,
      "chip": "ym2612"
    },
    {
      "channel": 1,
      "note": 58,
      "start": 22.105,
      "duration": 0.1998,
      "velocity": 91,
      "chip": "ym2612"
    },
    {
      "channel": 1,
      "note": 56,
      "start": 22.355,
      "duration": 0.0219,
      "velocity": 91,
      "chip": "ym2612"
    },
    {
      "channel": 1,
      "note": 58,
      "start": 22.3824,
      "duration": 0.0214,
      "velocity": 91,
      "chip": "ym2612"
    },
    {
      "channel": 1,
      "note": 51,
      "start": 22.4095,
      "duration": 0.0917,
      "velocity": 91,
      "chip": "ym2612"
    },
    {
      "channel": 2,
      "note": 78,
      "start": 22.4099,
      "duration": 0.4173,
      "velocity": 101,
      "chip": "ym2612"
    },
    {
      "channel": 3,
      "note": 73,
      "start": 22.4102,
      "duration": 0.4172,
      "velocity": 101,
      "chip": "ym2612"
    },
    {
      "channel": 4,
      "note": 70,
      "start": 22.4104,
      "duration": 0.4173,
      "velocity": 101,
      "chip": "ym2612"
    },
    {
      "channel": 1,
      "note": 58,
      "start": 22.5514,
      "duration": 0.1998,
      "velocity": 91,
      "chip": "ym2612"
    },
    {
      "channel": 1,
      "note": 61,
      "start": 22.8015,
      "duration": 0.0202,
      "velocity": 91,
      "chip": "ym2612"
    },
    {
      "channel": 1,
      "note": 63,
      "start": 22.827,
      "duration": 0.0207,
      "velocity": 91,
      "chip": "ym2612"
    },
    {
      "channel": 2,
      "note": 77,
      "start": 22.8273,
      "duration": 0.4737,
      "velocity": 103,
      "chip": "ym2612"
    },
    {
      "channel": 3,
      "note": 72,
      "start": 22.8276,
      "duration": 0.4757,
      "velocity": 103,
      "chip": "ym2612"
    },
    {
      "channel": 4,
      "note": 68,
      "start": 22.8279,
      "duration": 0.4778,
      "velocity": 103,
      "chip": "ym2612"
    },
    {
      "channel": 1,
      "note": 61,
      "start": 22.8538,
      "duration": 0.0917,
      "velocity": 91,
      "chip": "ym2612"
    },
    {
      "channel": 1,
      "note": 58,
      "start": 22.9957,
      "duration": 0.1998,
      "velocity": 91,
      "chip": "ym2612"
    },
    {
      "channel": 1,
      "note": 56,
      "start": 23.2458,
      "duration": 0.0203,
      "velocity": 91,
      "chip": "ym2612"
    },
    {
      "channel": 1,
      "note": 58,
      "start": 23.2714,
      "duration": 0.0193,
      "velocity": 91,
      "chip": "ym2612"
    },
    {
      "channel": 0,
      "note": 75,
      "start": 23.297,
      "duration": 0.1173,
      "velocity": 100,
      "chip": "ym2612"
    },
    {
      "channel": 1,
      "note": 59,
      "start": 23.2988,
      "duration": 0.4044,
      "velocity": 91,
      "chip": "ym2612"
    },
    {
      "channel": 2,
      "note": 59,
      "start": 23.3012,
      "duration": 0.5586,
      "velocity": 103,
      "chip": "ym2612"
    },
    {
      "channel": 3,
      "note": 66,
      "start": 23.3035,
      "duration": 0.859,
      "velocity": 103,
      "chip": "ym2612"
    },
    {
      "channel": 4,
      "note": 63,
      "start": 23.3058,
      "duration": 0.857,
      "velocity": 103,
      "chip": "ym2612"
    },
    {
      "channel": 0,
      "note": 73,
      "start": 23.4145,
      "duration": 0.1165,
      "velocity": 100,
      "chip": "ym2612"
    },
    {
      "channel": 0,
      "note": 75,
      "start": 23.5312,
      "duration": 0.1461,
      "velocity": 100,
      "chip": "ym2612"
    },
    {
      "channel": 0,
      "note": 73,
      "start": 23.6776,
      "duration": 0.0136,
      "velocity": 100,
      "chip": "ym2612"
    },
    {
      "channel": 0,
      "note": 75,
      "start": 23.6914,
      "duration": 0.1683,
      "velocity": 100,
      "chip": "ym2612"
    },
    {
      "channel": 1,
      "note": 59,
      "start": 23.7034,
      "duration": 0.014,
      "velocity": 91,
      "chip": "ym2612"
    },
    {
      "channel": 1,
      "note": 59,
      "start": 23.7176,
      "duration": 0.4176,
      "velocity": 91,
      "chip": "ym2612"
    },
    {
      "channel": 0,
      "note": 78,
      "start": 23.8596,
      "duration": 0.2498,
      "velocity": 100,
      "chip": "ym2612"
    },
    {
      "channel": 2,
      "note": 61,
      "start": 23.86,
      "duration": 0.2616,
      "velocity": 103,
      "chip": "ym2612"
    },
    {
      "channel": 2,
      "note": 59,
      "start": 24.1216,
      "duration": 0.0406,
      "velocity": 103,
      "chip": "ym2612"
    },
    {
      "channel": 0,
      "note": 75,
      "start": 24.1351,
      "duration": 0.0123,
      "velocity": 100,
      "chip": "ym2612"
    },
    {
      "channel": 1,
      "note": 61,
      "start": 24.1355,
      "duration": 0.0265,
      "velocity": 91,
      "chip": "ym2612"
    },
    {
      "channel": 0,
      "note": 78,
      "start": 24.162,
      "duration": 0.1426,
      "velocity": 100,
      "chip": "ym2612"
    },
    {
      "channel": 1,
      "note": 63,
      "start": 24.1622,
      "duration": 0.4337,
      "velocity": 91,
      "chip": "ym2612"
    },
    {
      "channel": 2,
      "note": 58,
      "start": 24.1624,
      "duration": 0.8931,
      "velocity": 103,
      "chip": "ym2612"
    },
    {
      "channel": 3,
      "note": 66,
      "start": 24.1628,
      "duration": 0.893,
      "velocity": 103,
      "chip": "ym2612"
    },
    {
      "channel": 4,
      "note": 63,
      "start": 24.163,
      "duration": 0.4207,
      "velocity": 98,
      "chip": "ym2612"
    },
    {
      "channel": 0,
      "note": 75,
      "start": 24.3048,
      "duration": 0.1165,
      "velocity": 100,
      "chip": "ym2612"
    },
    {
      "channel": 0,
      "note": 75,
      "start": 24.4215,
      "duration": 0.1461,
      "velocity": 100,
      "chip": "ym2612"
    },
    {
      "channel": 0,
      "note": 75,
      "start": 24.5678,
      "duration": 0.0136,
      "velocity": 100,
      "chip": "ym2612"
    },
    {
      "channel": 0,
      "note": 75,
      "start": 24.5816,
      "duration": 0.1727,
      "velocity": 100,
      "chip": "ym2612"
    },
    {
      "channel": 4,
      "note": 75,
      "start": 24.5839,
      "duration": 0.0122,
      "velocity": 98,
      "chip": "ym2612"
    },
    {
      "channel": 1,
      "note": 58,
      "start": 24.5961,
      "duration": 0.0159,
      "velocity": 91,
      "chip": "ym2612"
    },
    {
      "channel": 1,
      "note": 51,
      "start": 24.6122,
      "duration": 0.4181,
      "velocity": 91,
      "chip": "ym2612"
    },
    {
      "channel": 4,
      "note": 78,
      "start": 24.6126,
      "duration": 0.1419,
      "velocity": 98,
      "chip": "ym2612"
    },
    {
      "channel": 0,
      "note": 70,
      "start": 24.7543,
      "duration": 0.2499,
      "velocity": 100,
      "chip": "ym2612"
    },
    {
      "channel": 4,
      "note": 75,
      "start": 24.7548,
      "duration": 0.1161,
      "velocity": 98,
      "chip": "ym2612"
    },
    {
      "channel": 4,
      "note": 85,
      "start": 25.0046,
      "duration": 0.0259,
      "velocity": 98,
      "chip": "ym2612"
    },
    {
      "channel": 0,
      "note": 75,
      "start": 25.0302,
      "duration": 0.0112,
      "velocity": 100,
      "chip": "ym2612"
    },
    {
      "channel": 1,
      "note": 54,
      "start": 25.0305,
      "duration": 0.0247,
      "velocity": 91,
      "chip": "ym2612"
    },
    {
      "channel": 4,
      "note": 82,
      "start": 25.0307,
      "duration": 0.0107,
      "velocity": 98,
      "chip": "ym2612"
    },
    {
      "channel": 0,
      "note": 75,
      "start": 25.0537,
      "duration": 0.1431,
      "velocity": 100,
      "chip": "ym2612"
    },
    {
      "channel": 1,
      "note": 59,
      "start": 25.0555,
      "duration": 0.4304,
      "velocity": 91,
      "chip": "ym2612"
    },
    {
      "channel": 2,
      "note": 59,
      "start": 25.0556,
      "duration": 0.5871,
      "velocity": 103,
      "chip": "ym2612"
    },
    {
      "channel": 3,
      "note": 66,
      "start": 25.0559,
      "duration": 0.8895,
      "velocity": 103,
      "chip": "ym2612"
    },
    {
      "channel": 4,
      "note": 63,
      "start": 25.0583,
      "duration": 0.8873,
      "velocity": 103,
      "chip": "ym2612"
    },
    {
      "channel": 0,
      "note": 74,
      "start": 25.197,
      "duration": 0.0333,
      "velocity": 100,
      "chip": "ym2612"
    },
    {
      "channel": 0,
      "note": 75,
      "start": 25.2303,
      "duration": 0.235,
      "velocity": 100,
      "chip": "ym2612"
    },
    {
      "channel": 0,
      "note": 75,
      "start": 25.4655,
      "duration": 0.0167,
      "velocity": 100,
      "chip": "ym2612"
    },
    {
      "channel": 0,
      "note": 73,
      "start": 25.4824,
      "duration": 0.0173,
      "velocity": 100,
      "chip": "ym2612"
    },
    {
      "channel": 1,
      "note": 59,
      "start": 25.486,
      "duration": 0.014,
      "velocity": 91,
      "chip": "ym2612"
    },
    {
      "channel": 0,
      "note": 75,
      "start": 25.5,
      "duration": 0.1424,
      "velocity": 100,
      "chip": "ym2612"
    },
    {
      "channel": 1,
      "note": 59,
      "start": 25.5003,
      "duration": 0.4179,
      "velocity": 91,
      "chip": "ym2612"
    },
    {
      "channel": 0,
      "note": 78,
      "start": 25.6426,
      "duration": 0.2498,
      "velocity": 100,
      "chip": "ym2612"
    },
    {
      "channel": 2,
      "note": 61,
      "start": 25.643,
      "duration": 0.2615,
      "velocity": 103,
      "chip": "ym2612"
    },
    {
      "channel": 2,
      "note": 59,
      "start": 25.9046,
      "duration": 0.0405,
      "velocity": 103,
      "chip": "ym2612"
    },
    {
      "channel": 0,
      "note": 74,
      "start": 25.9181,
      "duration": 0.009,
      "velocity": 100,
      "chip": "ym2612"
    },
    {
      "channel": 1,
      "note": 61,
      "start": 25.9185,
      "duration": 0.0263,
      "velocity": 91,
      "chip": "ym2612"
    },
    {
      "channel": 0,
      "note": 75,
      "start": 25.9272,
      "duration": 0.1601,
      "velocity": 100,
      "chip": "ym2612"
    },
    {
      "channel": 1,
      "note": 63,
      "start": 25.9451,
      "duration": 0.4364,
      "velocity": 91,
      "chip": "ym2612"
    },
    {
      "channel": 2,
      "note": 58,
      "start": 25.9453,
      "duration": 0.4201,
      "velocity": 83,
      "chip": "ym2612"
    },
    {
      "channel": 3,
      "note": 66,
      "start": 25.9456,
      "duration": 0.4218,
      "velocity": 83,
      "chip": "ym2612"
    },
    {
      "channel": 4,
      "note": 63,
      "start": 25.9458,
      "duration": 0.9003,
      "velocity": 103,
      "chip": "ym2612"
    },
    {
      "channel": 0,
      "note": 70,
      "start": 26.0876,
      "duration": 0.703,
      "velocity": 100,
      "chip": "ym2612"
    },
    {
      "channel": 2,
      "note": 82,
      "start": 26.3657,
      "duration": 0.2919,
      "velocity": 83,
      "chip": "ym2612"
    },
    {
      "channel": 3,
      "note": 78,
      "start": 26.3676,
      "duration": 0.2903,
      "velocity": 83,
      "chip": "ym2612"
    },
    {
      "channel": 1,
      "note": 58,
      "start": 26.3817,
      "duration": 0.0163,
      "velocity": 91,
      "chip": "ym2612"
    },
    {
      "channel": 1,
      "note": 51,
      "start": 26.3981,
      "duration": 0.4184,
      "velocity": 91,
      "chip": "ym2612"
    },
    {
      "channel": 2,
      "note": 80,
      "start": 26.6576,
      "duration": 0.1332,
      "velocity": 83,
      "chip": "ym2612"
    },
    {
      "channel": 3,
      "note": 77,
      "start": 26.6579,
      "duration": 0.1332,
      "velocity": 83,
      "chip": "ym2612"
    },
    {
      "channel": 2,
      "note": 78,
      "start": 26.7908,
      "duration": 0.0528,
      "velocity": 103,
      "chip": "ym2612"
    },
    {
      "channel": 3,
      "note": 75,
      "start": 26.791,
      "duration": 0.0548,
      "velocity": 103,
      "chip": "ym2612"
    },
    {
      "channel": 0,
      "note": 73,
      "start": 26.8164,
      "duration": 0.0108,
      "velocity": 100,
      "chip": "ym2612"
    },
    {
      "channel": 1,
      "note": 54,
      "start": 26.8167,
      "duration": 0.0249,
      "velocity": 91,
      "chip": "ym2612"
    },
    {
      "channel": 0,
      "note": 75,
      "start": 26.8399,
      "duration": 0.1445,
      "velocity": 100,
      "chip": "ym2612"
    },
    {
      "channel": 1,
      "note": 59,
      "start": 26.8417,
      "duration": 0.4308,
      "velocity": 91,
      "chip": "ym2612"
    },
    {
      "channel": 2,
      "note": 59,
      "start": 26.8438,
      "duration": 0.5852,
      "velocity": 103,
      "chip": "ym2612"
    },
    {
      "channel": 3,
      "note": 66,
      "start": 26.8461,
      "duration": 0.8858,
      "velocity": 103,
      "chip": "ym2612"
    },
    {
      "channel": 4,
      "note": 63,
      "start": 26.8463,
      "duration": 0.8857,
      "velocity": 103,
      "chip": "ym2612"
    },
    {
      "channel": 0,
      "note": 73,
      "start": 26.9846,
      "duration": 0.1165,
      "velocity": 100,
      "chip": "ym2612"
    },
    {
      "channel": 0,
      "note": 75,
      "start": 27.1013,
      "duration": 0.1459,
      "velocity": 100,
      "chip": "ym2612"
    },
    {
      "channel": 0,
      "note": 73,
      "start": 27.2474,
      "duration": 0.0133,
      "velocity": 100,
      "chip": "ym2612"
    },
    {
      "channel": 0,
      "note": 75,
      "start": 27.261,
      "duration": 0.1679,
      "velocity": 100,
      "chip": "ym2612"
    },
    {
      "channel": 1,
      "note": 59,
      "start": 27.2727,
      "duration": 0.0141,
      "velocity": 91,
      "chip": "ym2612"
    },
    {
      "channel": 1,
      "note": 59,
      "start": 27.2871,
      "duration": 0.4174,
      "velocity": 91,
      "chip": "ym2612"
    },
    {
      "channel": 0,
      "note": 78,
      "start": 27.4289,
      "duration": 0.2498,
      "velocity": 100,
      "chip": "ym2612"
    },
    {
      "channel": 2,
      "note": 61,
      "start": 27.4292,
      "duration": 0.2616,
      "velocity": 103,
      "chip": "ym2612"
    },
    {
      "channel": 2,
      "note": 59,
      "start": 27.6909,
      "duration": 0.0407,
      "velocity": 103,
      "chip": "ym2612"
    },
    {
      "channel": 0,
      "note": 75,
      "start": 27.7044,
      "duration": 0.0122,
      "velocity": 100,
      "chip": "ym2612"
    },
    {
      "channel": 1,
      "note": 61,
      "start": 27.7047,
      "duration": 0.0265,
      "velocity": 91,
      "chip": "ym2612"
    },
    {
      "channel": 0,
      "note": 78,
      "start": 27.7312,
      "duration": 0.1417,
      "velocity": 100,
      "chip": "ym2612"
    },
    {
      "channel": 1,
      "note": 63,
      "start": 27.7315,
      "duration": 0.432,
      "velocity": 91,
      "chip": "ym2612"
    },
    {
      "channel": 2,
      "note": 58,
      "start": 27.7318,
      "duration": 0.8896,
      "velocity": 103,
      "chip": "ym2612"
    },
    {
      "channel": 3,
      "note": 66,
      "start": 27.732,
      "duration": 0.8897,
      "velocity": 103,
      "chip": "ym2612"
    },
    {
      "channel": 4,
      "note": 63,
      "start": 27.7322,
      "duration": 0.4193,
      "velocity": 98,
      "chip": "ym2612"
    },
    {
      "channel": 0,
      "note": 75,
      "start": 27.8731,
      "duration": 0.1165,
      "velocity": 100,
      "chip": "ym2612"
    },
    {
      "channel": 0,
      "note": 75,
      "start": 27.9898,
      "duration": 0.1459,
      "velocity": 100,
      "chip": "ym2612"
    },
    {
      "channel": 0,
      "note": 75,
      "start": 28.1359,
      "duration": 0.0132,
      "velocity": 100,
      "chip": "ym2612"
    },
    {
      "channel": 0,
      "note": 75,
      "start": 28.1494,
      "duration": 0.1723,
      "velocity": 100,
      "chip": "ym2612"
    },
    {
      "channel": 4,
      "note": 73,
      "start": 28.1517,
      "duration": 0.0122,
      "velocity": 98,
      "chip": "ym2612"
    },
    {
      "channel": 1,
      "note": 58,
      "start": 28.1638,
      "duration": 0.0159,
      "velocity": 91,
      "chip": "ym2612"
    },
    {
      "channel": 1,
      "note": 51,
      "start": 28.18,
      "duration": 0.4177,
      "velocity": 91,
      "chip": "ym2612"
    },
    {
      "channel": 4,
      "note": 78,
      "start": 28.1802,
      "duration": 0.1416,
      "velocity": 98,
      "chip": "ym2612"
    },
    {
      "channel": 0,
      "note": 70,
      "start": 28.3217,
      "duration": 0.2499,
      "velocity": 100,
      "chip": "ym2612"
    },
    {
      "channel": 4,
      "note": 75,
      "start": 28.3221,
      "duration": 0.1161,
      "velocity": 98,
      "chip": "ym2612"
    },
    {
      "channel": 4,
      "note": 85,
      "start": 28.572,
      "duration": 0.026,
      "velocity": 98,
      "chip": "ym2612"
    },
    {
      "channel": 0,
      "note": 75,
      "start": 28.5976,
      "duration": 0.0112,
      "velocity": 100,
      "chip": "ym2612"
    },
    {
      "channel": 1,
      "note": 54,
      "start": 28.5979,
      "duration": 0.0232,
      "velocity": 91,
      "chip": "ym2612"
    },
    {
      "channel": 4,
      "note": 82,
      "start": 28.5981,
      "duration": 0.0107,
      "velocity": 98,
      "chip": "ym2612"
    },
    {
      "channel": 0,
      "note": 71,
      "start": 28.621,
      "duration": 0.1434,
      "velocity": 100,
      "chip": "ym2612"
    },
    {
      "channel": 1,
      "note": 59,
      "start": 28.6213,
      "duration": 0.4302,
      "velocity": 91,
      "chip": "ym2612"
    },
    {
      "channel": 2,
      "note": 71,
      "start": 28.6216,
      "duration": 1.1217,
      "velocity": 103,
      "chip": "ym2612"
    },
    {
      "channel": 3,
      "note": 66,
      "start": 28.6219,
      "duration": 1.1217,
      "velocity": 103,
      "chip": "ym2612"
    },
    {
      "channel": 4,
      "note": 63,
      "start": 28.6242,
      "duration": 1.1196,
      "velocity": 103,
      "chip": "ym2612"
    },
    {
      "channel": 0,
      "note": 71,
      "start": 28.7646,
      "duration": 0.1164,
      "velocity": 100,
      "chip": "ym2612"
    },
    {
      "channel": 0,
      "note": 71,
      "start": 28.8812,
      "duration": 0.1454,
      "velocity": 100,
      "chip": "ym2612"
    },
    {
      "channel": 0,
      "note": 73,
      "start": 29.0268,
      "duration": 0.0132,
      "velocity": 100,
      "chip": "ym2612"
    },
    {
      "channel": 0,
      "note": 75,
      "start": 29.0403,
      "duration": 0.5336,
      "velocity": 100,
      "chip": "ym2612"
    },
    {
      "channel": 1,
      "note": 59,
      "start": 29.0516,
      "duration": 0.1306,
      "velocity": 91,
      "chip": "ym2612"
    },
    {
      "channel": 1,
      "note": 59,
      "start": 29.1824,
      "duration": 0.3917,
      "velocity": 91,
      "chip": "ym2612"
    },
    {
      "channel": 1,
      "note": 59,
      "start": 29.5743,
      "duration": 0.0261,
      "velocity": 91,
      "chip": "ym2612"
    },
    {
      "channel": 0,
      "note": 75,
      "start": 29.6003,
      "duration": 0.0118,
      "velocity": 100,
      "chip": "ym2612"
    },
    {
      "channel": 1,
      "note": 54,
      "start": 29.6007,
      "duration": 0.1424,
      "velocity": 91,
      "chip": "ym2612"
    },
    {
      "channel": 0,
      "note": 75,
      "start": 29.6123,
      "duration": 0.1303,
      "velocity": 100,
      "chip": "ym2612"
    },
    {
      "channel": 0,
      "note": 74,
      "start": 29.743,
      "duration": 0.1421,
      "velocity": 100,
      "chip": "ym2612"
    },
    {
      "channel": 1,
      "note": 58,
      "start": 29.7433,
      "duration": 0.1422,
      "velocity": 91,
      "chip": "ym2612"
    },
    {
      "channel": 2,
      "note": 70,
      "start": 29.7435,
      "duration": 0.6206,
      "velocity": 103,
      "chip": "ym2612"
    },
    {
      "channel": 3,
      "note": 65,
      "start": 29.7437,
      "duration": 0.6205,
      "velocity": 103,
      "chip": "ym2612"
    },
    {
      "channel": 4,
      "note": 62,
      "start": 29.744,
      "duration": 0.6205,
      "velocity": 103,
      "chip": "ym2612"
    },
    {
      "channel": 0,
      "note": 74,
      "start": 29.8854,
      "duration": 0.0113,
      "velocity": 100,
      "chip": "ym2612"
    },
    {
      "channel": 1,
      "note": 58,
      "start": 29.8857,
      "duration": 0.1415,
      "velocity": 91,
      "chip": "ym2612"
    },
    {
      "channel": 0,
      "note": 74,
      "start": 29.8968,
      "duration": 0.1435,
      "velocity": 100,
      "chip": "ym2612"
    },
    {
      "channel": 1,
      "note": 58,
      "start": 30.0275,
      "duration": 0.0267,
      "velocity": 91,
      "chip": "ym2612"
    },
    {
      "channel": 0,
      "note": 75,
      "start": 30.0406,
      "duration": 0.0133,
      "velocity": 100,
      "chip": "ym2612"
    },
    {
      "channel": 0,
      "note": 77,
      "start": 30.0541,
      "duration": 0.1533,
      "velocity": 100,
      "chip": "ym2612"
    },
    {
      "channel": 1,
      "note": 58,
      "start": 30.0544,
      "duration": 0.1415,
      "velocity": 91,
      "chip": "ym2612"
    },
    {
      "channel": 1,
      "note": 58,
      "start": 30.1961,
      "duration": 0.1418,
      "velocity": 91,
      "chip": "ym2612"
    },
    {
      "channel": 0,
      "note": 75,
      "start": 30.3378,
      "duration": 0.0257,
      "velocity": 100,
      "chip": "ym2612"
    },
    {
      "channel": 1,
      "note": 58,
      "start": 30.3381,
      "duration": 0.0258,
      "velocity": 91,
      "chip": "ym2612"
    },
    {
      "channel": 0,
      "note": 77,
      "start": 30.3638,
      "duration": 0.0262,
      "velocity": 100,
      "chip": "ym2612"
    },
    {
      "channel": 1,
      "note": 58,
      "start": 30.364,
      "duration": 0.0263,
      "velocity": 91,
      "chip": "ym2612"
    },
    {
      "channel": 2,
      "note": 70,
      "start": 30.3642,
      "duration": 0.0573,
      "velocity": 100,
      "chip": "ym2612"
    },
    {
      "channel": 3,
      "note": 77,
      "start": 30.3644,
      "duration": 0.0593,
      "velocity": 100,
      "chip": "ym2612"
    },
    {
      "channel": 4,
      "note": 74,
      "start": 30.3648,
      "duration": 0.0612,
      "velocity": 101,
      "chip": "ym2612"
    },
    {
      "channel": 0,
      "note": 75,
      "start": 30.3902,
      "duration": 0.0271,
      "velocity": 100,
      "chip": "ym2612"
    },
    {
      "channel": 1,
      "note": 58,
      "start": 30.3905,
      "duration": 0.0285,
      "velocity": 91,
      "chip": "ym2612"
    },
    {
      "channel": 1,
      "note": 51,
      "start": 30.4192,
      "duration": 0.0919,
      "velocity": 91,
      "chip": "ym2612"
    },
    {
      "channel": 4,
      "note": 75,
      "start": 30.4261,
      "duration": 0.4127,
      "velocity": 101,
      "chip": "ym2612"
    },
    {
      "channel": 1,
      "note": 58,
      "start": 30.5613,
      "duration": 0.1998,
      "velocity": 91,
      "chip": "ym2612"
    },
    {
      "channel": 0,
      "note": 78,
      "start": 30.8114,
      "duration": 0.0262,
      "velocity": 100,
      "chip": "ym2612"
    },
    {
      "channel": 1,
      "note": 61,
      "start": 30.8116,
      "duration": 0.0208,
      "velocity": 91,
      "chip": "ym2612"
    },
    {
      "channel": 2,
      "note": 75,
      "start": 30.8119,
      "duration": 0.0264,
      "velocity": 100,
      "chip": "ym2612"
    },
    {
      "channel": 3,
      "note": 70,
      "start": 30.8122,
      "duration": 0.0263,
      "velocity": 100,
      "chip": "ym2612"
    },
    {
      "channel": 0,
      "note": 78,
      "start": 30.8379,
      "duration": 0.0132,
      "velocity": 100,
      "chip": "ym2612"
    },
    {
      "channel": 1,
      "note": 63,
      "start": 30.8382,
      "duration": 0.0217,
      "velocity": 91,
      "chip": "ym2612"
    },
    {
      "channel": 2,
      "note": 75,
      "start": 30.8384,
      "duration": 0.0127,
      "velocity": 100,
      "chip": "ym2612"
    },
    {
      "channel": 3,
      "note": 70,
      "start": 30.8388,
      "duration": 0.0125,
      "velocity": 100,
      "chip": "ym2612"
    },
    {
      "channel": 4,
      "note": 77,
      "start": 30.839,
      "duration": 0.4801,
      "velocity": 101,
      "chip": "ym2612"
    },
    {
      "channel": 0,
      "note": 77,
      "start": 30.8655,
      "duration": 0.1424,
      "velocity": 100,
      "chip": "ym2612"
    },
    {
      "channel": 1,
      "note": 61,
      "start": 30.8657,
      "duration": 0.0922,
      "velocity": 91,
      "chip": "ym2612"
    },
    {
      "channel": 2,
      "note": 73,
      "start": 30.8659,
      "duration": 0.1426,
      "velocity": 100,
      "chip": "ym2612"
    },
    {
      "channel": 3,
      "note": 68,
      "start": 30.8662,
      "duration": 0.1427,
      "velocity": 100,
      "chip": "ym2612"
    },
    {
      "channel": 0,
      "note": 73,
      "start": 31.0081,
      "duration": 0.2952,
      "velocity": 100,
      "chip": "ym2612"
    },
    {
      "channel": 1,
      "note": 58,
      "start": 31.0084,
      "duration": 0.1995,
      "velocity": 91,
      "chip": "ym2612"
    },
    {
      "channel": 2,
      "note": 68,
      "start": 31.0088,
      "duration": 0.2947,
      "velocity": 100,
      "chip": "ym2612"
    },
    {
      "channel": 3,
      "note": 65,
      "start": 31.0092,
      "duration": 0.2944,
      "velocity": 100,
      "chip": "ym2612"
    },
    {
      "channel": 1,
      "note": 56,
      "start": 31.2581,
      "duration": 0.0249,
      "velocity": 91,
      "chip": "ym2612"
    },
    {
      "channel": 1,
      "note": 58,
      "start": 31.2894,
      "duration": 0.0223,
      "velocity": 91,
      "chip": "ym2612"
    },
    {
      "channel": 0,
      "note": 78,
      "start": 31.3182,
      "duration": 0.0128,
      "velocity": 100,
      "chip": "ym2612"
    },
    {
      "channel": 1,
      "note": 51,
      "start": 31.3186,
      "duration": 0.0924,
      "velocity": 91,
      "chip": "ym2612"
    },
    {
      "channel": 2,
      "note": 75,
      "start": 31.3188,
      "duration": 0.0123,
      "velocity": 100,
      "chip": "ym2612"
    },
    {
      "channel": 3,
      "note": 70,
      "start": 31.3191,
      "duration": 0.0121,
      "velocity": 100,
      "chip": "ym2612"
    },
    {
      "channel": 4,
      "note": 78,
      "start": 31.3194,
      "duration": 0.4241,
      "velocity": 101,
      "chip": "ym2612"
    },
    {
      "channel": 0,
      "note": 78,
      "start": 31.4613,
      "duration": 0.2809,
      "velocity": 100,
      "chip": "ym2612"
    },
    {
      "channel": 1,
      "note": 58,
      "start": 31.4615,
      "duration": 0.1996,
      "velocity": 91,
      "chip": "ym2612"
    },
    {
      "channel": 2,
      "note": 75,
      "start": 31.4619,
      "duration": 0.2808,
      "velocity": 100,
      "chip": "ym2612"
    },
    {
      "channel": 3,
      "note": 70,
      "start": 31.4623,
      "duration": 0.2809,
      "velocity": 100,
      "chip": "ym2612"
    },
    {
      "channel": 1,
      "note": 61,
      "start": 31.7114,
      "duration": 0.025,
      "velocity": 91,
      "chip": "ym2612"
    },
    {
      "channel": 0,
      "note": 77,
      "start": 31.7424,
      "duration": 0.1698,
      "velocity": 100,
      "chip": "ym2612"
    },
    {
      "channel": 1,
      "note": 63,
      "start": 31.7427,
      "duration": 0.0212,
      "velocity": 91,
      "chip": "ym2612"
    },
    {
      "channel": 2,
      "note": 73,
      "start": 31.743,
      "duration": 0.1698,
      "velocity": 100,
      "chip": "ym2612"
    },
    {
      "channel": 3,
      "note": 68,
      "start": 31.7434,
      "duration": 0.1697,
      "velocity": 100,
      "chip": "ym2612"
    },
    {
      "channel": 4,
      "note": 77,
      "start": 31.7437,
      "duration": 0.4822,
      "velocity": 101,
      "chip": "ym2612"
    },
    {
      "channel": 1,
      "note": 61,
      "start": 31.7709,
      "duration": 0.0912,
      "velocity": 91,
      "chip": "ym2612"
    },
    {
      "channel": 0,
      "note": 73,
      "start": 31.9122,
      "duration": 0.3129,
      "velocity": 100,
      "chip": "ym2612"
    },
    {
      "channel": 1,
      "note": 58,
      "start": 31.9125,
      "duration": 0.1995,
      "velocity": 91,
      "chip": "ym2612"
    },
    {
      "channel": 2,
      "note": 68,
      "start": 31.9128,
      "duration": 0.3129,
      "velocity": 100,
      "chip": "ym2612"
    },
    {
      "channel": 3,
      "note": 65,
      "start": 31.9131,
      "duration": 0.3127,
      "velocity": 100,
      "chip": "ym2612"
    },
    {
      "channel": 1,
      "note": 56,
      "start": 32.1624,
      "duration": 0.0253,
      "velocity": 91,
      "chip": "ym2612"
    },
    {
      "channel": 1,
      "note": 58,
      "start": 32.1942,
      "duration": 0.025,
      "velocity": 91,
      "chip": "ym2612"
    },
    {
      "channel": 1,
      "note": 51,
      "start": 32.2256,
      "duration": 0.0922,
      "velocity": 91,
      "chip": "ym2612"
    },
    {
      "channel": 4,
      "note": 75,
      "start": 32.2261,
      "duration": 0.4185,
      "velocity": 101,
      "chip": "ym2612"
    },
    {
      "channel": 0,
      "note": 78,
      "start": 32.368,
      "duration": 0.2499,
      "velocity": 100,
      "chip": "ym2612"
    },
    {
      "channel": 1,
      "note": 58,
      "start": 32.3682,
      "duration": 0.1995,
      "velocity": 91,
      "chip": "ym2612"
    },
    {
      "channel": 2,
      "note": 75,
      "start": 32.3685,
      "duration": 0.2497,
      "velocity": 100,
      "chip": "ym2612"
    },
    {
      "channel": 3,
      "note": 70,
      "start": 32.3689,
      "duration": 0.2495,
      "velocity": 100,
      "chip": "ym2612"
    },
    {
      "channel": 1,
      "note": 61,
      "start": 32.6182,
      "duration": 0.0202,
      "velocity": 91,
      "chip": "ym2612"
    },
    {
      "channel": 0,
      "note": 78,
      "start": 32.6437,
      "duration": 0.027,
      "velocity": 100,
      "chip": "ym2612"
    },
    {
      "channel": 1,
      "note": 63,
      "start": 32.6441,
      "duration": 0.0211,
      "velocity": 91,
      "chip": "ym2612"
    },
    {
      "channel": 2,
      "note": 75,
      "start": 32.6443,
      "duration": 0.0271,
      "velocity": 100,
      "chip": "ym2612"
    },
    {
      "channel": 3,
      "note": 70,
      "start": 32.6446,
      "duration": 0.0271,
      "velocity": 100,
      "chip": "ym2612"
    },
    {
      "channel": 4,
      "note": 77,
      "start": 32.6449,
      "duration": 0.485,
      "velocity": 101,
      "chip": "ym2612"
    },
    {
      "channel": 0,
      "note": 77,
      "start": 32.671,
      "duration": 0.1421,
      "velocity": 100,
      "chip": "ym2612"
    },
    {
      "channel": 1,
      "note": 61,
      "start": 32.6713,
      "duration": 0.0918,
      "velocity": 91,
      "chip": "ym2612"
    },
    {
      "channel": 2,
      "note": 73,
      "start": 32.6715,
      "duration": 0.1422,
      "velocity": 100,
      "chip": "ym2612"
    },
    {
      "channel": 3,
      "note": 68,
      "start": 32.6719,
      "duration": 0.1422,
      "velocity": 100,
      "chip": "ym2612"
    },
    {
      "channel": 0,
      "note": 73,
      "start": 32.8133,
      "duration": 0.2968,
      "velocity": 100,
      "chip": "ym2612"
    },
    {
      "channel": 1,
      "note": 58,
      "start": 32.8137,
      "duration": 0.1995,
      "velocity": 91,
      "chip": "ym2612"
    },
    {
      "channel": 2,
      "note": 68,
      "start": 32.814,
      "duration": 0.2963,
      "velocity": 100,
      "chip": "ym2612"
    },
    {
      "channel": 3,
      "note": 65,
      "start": 32.8144,
      "duration": 0.296,
      "velocity": 100,
      "chip": "ym2612"
    },
    {
      "channel": 1,
      "note": 56,
      "start": 33.0635,
      "duration": 0.0253,
      "velocity": 91,
      "chip": "ym2612"
    },
    {
      "channel": 1,
      "note": 58,
      "start": 33.0953,
      "duration": 0.0234,
      "velocity": 91,
      "chip": "ym2612"
    },
    {
      "channel": 0,
      "note": 75,
      "start": 33.1251,
      "duration": 0.1434,
      "velocity": 100,
      "chip": "ym2612"
    },
    {
      "channel": 1,
      "note": 51,
      "start": 33.1254,
      "duration": 0.0932,
      "velocity": 91,
      "chip": "ym2612"
    },
    {
      "channel": 2,
      "note": 78,
      "start": 33.1274,
      "duration": 0.4179,
      "velocity": 101,
      "chip": "ym2612"
    },
    {
      "channel": 3,
      "note": 75,
      "start": 33.1298,
      "duration": 0.4158,
      "velocity": 101,
      "chip": "ym2612"
    },
    {
      "channel": 4,
      "note": 78,
      "start": 33.1301,
      "duration": 0.4159,
      "velocity": 101,
      "chip": "ym2612"
    },
    {
      "channel": 0,
      "note": 78,
      "start": 33.2688,
      "duration": 0.2501,
      "velocity": 100,
      "chip": "ym2612"
    },
    {
      "channel": 1,
      "note": 58,
      "start": 33.2691,
      "duration": 0.1995,
      "velocity": 91,
      "chip": "ym2612"
    },
    {
      "channel": 1,
      "note": 61,
      "start": 33.5192,
      "duration": 0.0204,
      "velocity": 91,
      "chip": "ym2612"
    },
    {
      "channel": 0,
      "note": 80,
      "start": 33.5449,
      "duration": 0.1694,
      "velocity": 100,
      "chip": "ym2612"
    },
    {
      "channel": 1,
      "note": 63,
      "start": 33.5452,
      "duration": 0.0215,
      "velocity": 91,
      "chip": "ym2612"
    },
    {
      "channel": 2,
      "note": 77,
      "start": 33.5455,
      "duration": 0.4733,
      "velocity": 101,
      "chip": "ym2612"
    },
    {
      "channel": 3,
      "note": 72,
      "start": 33.5459,
      "duration": 0.475,
      "velocity": 91,
      "chip": "ym2612"
    },
    {
      "channel": 4,
      "note": 77,
      "start": 33.5461,
      "duration": 0.4768,
      "velocity": 91,
      "chip": "ym2612"
    },
    {
      "channel": 1,
      "note": 61,
      "start": 33.5727,
      "duration": 0.0916,
      "velocity": 91,
      "chip": "ym2612"
    },
    {
      "channel": 0,
      "note": 78,
      "start": 33.7145,
      "duration": 0.2499,
      "velocity": 100,
      "chip": "ym2612"
    },
    {
      "channel": 1,
      "note": 58,
      "start": 33.7148,
      "duration": 0.1995,
      "velocity": 91,
      "chip": "ym2612"
    },
    {
      "channel": 0,
      "note": 77,
      "start": 33.9646,
      "duration": 0.0254,
      "velocity": 100,
      "chip": "ym2612"
    },
    {
      "channel": 1,
      "note": 56,
      "start": 33.9649,
      "duration": 0.0201,
      "velocity": 91,
      "chip": "ym2612"
    },
    {
      "channel": 0,
      "note": 75,
      "start": 33.9902,
      "duration": 0.4802,
      "velocity": 100,
      "chip": "ym2612"
    },
    {
      "channel": 1,
      "note": 58,
      "start": 33.9905,
      "duration": 0.0199,
      "velocity": 91,
      "chip": "ym2612"
    },
    {
      "channel": 1,
      "note": 56,
      "start": 34.017,
      "duration": 0.0945,
      "velocity": 91,
      "chip": "ym2612"
    },
    {
      "channel": 2,
      "note": 63,
      "start": 34.0189,
      "duration": 1.7913,
      "velocity": 101,
      "chip": "ym2612"
    },
    {
      "channel": 3,
      "note": 87,
      "start": 34.0211,
      "duration": 0.141,
      "velocity": 91,
      "chip": "ym2612"
    },
    {
      "channel": 4,
      "note": 75,
      "start": 34.0232,
      "duration": 0.1392,
      "velocity": 91,
      "chip": "ym2612"
    },
    {
      "channel": 1,
      "note": 63,
      "start": 34.1618,
      "duration": 0.1997,
      "velocity": 91,
      "chip": "ym2612"
    },
    {
      "channel": 3,
      "note": 87,
      "start": 34.1622,
      "duration": 0.1161,
      "velocity": 91,
      "chip": "ym2612"
    },
    {
      "channel": 4,
      "note": 75,
      "start": 34.1626,
      "duration": 0.1161,
      "velocity": 91,
      "chip": "ym2612"
    },
    {
      "channel": 3,
      "note": 87,
      "start": 34.2786,
      "duration": 0.1335,
      "velocity": 91,
      "chip": "ym2612"
    },
    {
      "channel": 4,
      "note": 75,
      "start": 34.2789,
      "duration": 0.1335,
      "velocity": 91,
      "chip": "ym2612"
    },
    {
      "channel": 1,
      "note": 66,
      "start": 34.4118,
      "duration": 0.0225,
      "velocity": 91,
      "chip": "ym2612"
    },
    {
      "channel": 3,
      "note": 87,
      "start": 34.4122,
      "duration": 0.0282,
      "velocity": 91,
      "chip": "ym2612"
    },
    {
      "channel": 4,
      "note": 75,
      "start": 34.4126,
      "duration": 0.0282,
      "velocity": 91,
      "chip": "ym2612"
    },
    {
      "channel": 1,
      "note": 68,
      "start": 34.4402,
      "duration": 0.0229,
      "velocity": 91,
      "chip": "ym2612"
    },
    {
      "channel": 3,
      "note": 87,
      "start": 34.4406,
      "duration": 0.013,
      "velocity": 91,
      "chip": "ym2612"
    },
    {
      "channel": 4,
      "note": 75,
      "start": 34.441,
      "duration": 0.013,
      "velocity": 91,
      "chip": "ym2612"
    },
    {
      "channel": 3,
      "note": 87,
      "start": 34.4538,
      "duration": 0.0169,
      "velocity": 91,
      "chip": "ym2612"
    },
    {
      "channel": 4,
      "note": 75,
      "start": 34.4543,
      "duration": 0.0167,
      "velocity": 91,
      "chip": "ym2612"
    },
    {
      "channel": 3,
      "note": 87,
      "start": 34.4708,
      "duration": 0.1422,
      "velocity": 91,
      "chip": "ym2612"
    },
    {
      "channel": 4,
      "note": 75,
      "start": 34.4712,
      "duration": 0.1422,
      "velocity": 91,
      "chip": "ym2612"
    },
    {
      "channel": 0,
      "note": 75,
      "start": 34.6126,
      "duration": 0.1164,
      "velocity": 100,
      "chip": "ym2612"
    },
    {
      "channel": 1,
      "note": 63,
      "start": 34.6129,
      "duration": 0.1995,
      "velocity": 91,
      "chip": "ym2612"
    },
    {
      "channel": 3,
      "note": 87,
      "start": 34.6133,
      "duration": 0.1161,
      "velocity": 91,
      "chip": "ym2612"
    },
    {
      "channel": 4,
      "note": 75,
      "start": 34.6137,
      "duration": 0.1161,
      "velocity": 91,
      "chip": "ym2612"
    },
    {
      "channel": 3,
      "note": 87,
      "start": 34.7295,
      "duration": 0.1333,
      "velocity": 91,
      "chip": "ym2612"
    },
    {
      "channel": 4,
      "note": 75,
      "start": 34.7299,
      "duration": 0.1333,
      "velocity": 91,
      "chip": "ym2612"
    },
    {
      "channel": 1,
      "note": 61,
      "start": 34.8627,
      "duration": 0.0211,
      "velocity": 91,
      "chip": "ym2612"
    },
    {
      "channel": 3,
      "note": 87,
      "start": 34.863,
      "duration": 0.0266,
      "velocity": 91,
      "chip": "ym2612"
    },
    {
      "channel": 4,
      "note": 75,
      "start": 34.8635,
      "duration": 0.0266,
      "velocity": 91,
      "chip": "ym2612"
    },
    {
      "channel": 0,
      "note": 75,
      "start": 34.8891,
      "duration": 0.0128,
      "velocity": 100,
      "chip": "ym2612"
    },
    {
      "channel": 1,
      "note": 63,
      "start": 34.8894,
      "duration": 0.0216,
      "velocity": 91,
      "chip": "ym2612"
    },
    {
      "channel": 3,
      "note": 87,
      "start": 34.8898,
      "duration": 0.0123,
      "velocity": 91,
      "chip": "ym2612"
    },
    {
      "channel": 4,
      "note": 75,
      "start": 34.8902,
      "duration": 0.0123,
      "velocity": 91,
      "chip": "ym2612"
    },
    {
      "channel": 3,
      "note": 87,
      "start": 34.9023,
      "duration": 0.0146,
      "velocity": 91,
      "chip": "ym2612"
    },
    {
      "channel": 4,
      "note": 75,
      "start": 34.9027,
      "duration": 0.0146,
      "velocity": 91,
      "chip": "ym2612"
    },
    {
      "channel": 0,
      "note": 82,
      "start": 34.9165,
      "duration": 0.1425,
      "velocity": 100,
      "chip": "ym2612"
    },
    {
      "channel": 1,
      "note": 56,
      "start": 34.9168,
      "duration": 0.0919,
      "velocity": 91,
      "chip": "ym2612"
    },
    {
      "channel": 3,
      "note": 87,
      "start": 34.9172,
      "duration": 0.1424,
      "velocity": 91,
      "chip": "ym2612"
    },
    {
      "channel": 4,
      "note": 75,
      "start": 34.9175,
      "duration": 0.1424,
      "velocity": 91,
      "chip": "ym2612"
    },
    {
      "channel": 0,
      "note": 80,
      "start": 35.059,
      "duration": 0.2497,
      "velocity": 100,
      "chip": "ym2612"
    },
    {
      "channel": 1,
      "note": 63,
      "start": 35.0593,
      "duration": 0.1993,
      "velocity": 91,
      "chip": "ym2612"
    },
    {
      "channel": 3,
      "note": 87,
      "start": 35.0598,
      "duration": 0.1158,
      "velocity": 91,
      "chip": "ym2612"
    },
    {
      "channel": 4,
      "note": 75,
      "start": 35.0601,
      "duration": 0.1159,
      "velocity": 91,
      "chip": "ym2612"
    },
    {
      "channel": 3,
      "note": 87,
      "start": 35.1757,
      "duration": 0.1337,
      "velocity": 91,
      "chip": "ym2612"
    },
    {
      "channel": 4,
      "note": 75,
      "start": 35.1761,
      "duration": 0.1338,
      "velocity": 91,
      "chip": "ym2612"
    },
    {
      "channel": 0,
      "note": 80,
      "start": 35.309,
      "duration": 0.013,
      "velocity": 100,
      "chip": "ym2612"
    },
    {
      "channel": 1,
      "note": 66,
      "start": 35.3093,
      "duration": 0.0213,
      "velocity": 91,
      "chip": "ym2612"
    },
    {
      "channel": 3,
      "note": 87,
      "start": 35.3097,
      "duration": 0.0265,
      "velocity": 91,
      "chip": "ym2612"
    },
    {
      "channel": 4,
      "note": 75,
      "start": 35.3101,
      "duration": 0.0265,
      "velocity": 91,
      "chip": "ym2612"
    },
    {
      "channel": 0,
      "note": 75,
      "start": 35.3358,
      "duration": 0.0268,
      "velocity": 100,
      "chip": "ym2612"
    },
    {
      "channel": 1,
      "note": 68,
      "start": 35.3361,
      "duration": 0.0214,
      "velocity": 91,
      "chip": "ym2612"
    },
    {
      "channel": 3,
      "note": 87,
      "start": 35.3364,
      "duration": 0.012,
      "velocity": 91,
      "chip": "ym2612"
    },
    {
      "channel": 4,
      "note": 75,
      "start": 35.3367,
      "duration": 0.0122,
      "velocity": 91,
      "chip": "ym2612"
    },
    {
      "channel": 3,
      "note": 87,
      "start": 35.3487,
      "duration": 0.0143,
      "velocity": 91,
      "chip": "ym2612"
    },
    {
      "channel": 4,
      "note": 75,
      "start": 35.3491,
      "duration": 0.0143,
      "velocity": 91,
      "chip": "ym2612"
    },
    {
      "channel": 0,
      "note": 75,
      "start": 35.3627,
      "duration": 0.0116,
      "velocity": 100,
      "chip": "ym2612"
    },
    {
      "channel": 3,
      "note": 87,
      "start": 35.3631,
      "duration": 0.1419,
      "velocity": 91,
      "chip": "ym2612"
    },
    {
      "channel": 4,
      "note": 75,
      "start": 35.3636,
      "duration": 0.1418,
      "velocity": 91,
      "chip": "ym2612"
    },
    {
      "channel": 0,
      "note": 71,
      "start": 35.5045,
      "duration": 0.2765,
      "velocity": 100,
      "chip": "ym2612"
    },
    {
      "channel": 1,
      "note": 63,
      "start": 35.5048,
      "duration": 0.1995,
      "velocity": 91,
      "chip": "ym2612"
    },
    {
      "channel": 3,
      "note": 87,
      "start": 35.5052,
      "duration": 0.116,
      "velocity": 91,
      "chip": "ym2612"
    },
    {
      "channel": 4,
      "note": 75,
      "start": 35.5056,
      "duration": 0.116,
      "velocity": 91,
      "chip": "ym2612"
    },
    {
      "channel": 3,
      "note": 87,
      "start": 35.6213,
      "duration": 0.1335,
      "velocity": 91,
      "chip": "ym2612"
    },
    {
      "channel": 4,
      "note": 75,
      "start": 35.6217,
      "duration": 0.1334,
      "velocity": 91,
      "chip": "ym2612"
    },
    {
      "channel": 1,
      "note": 61,
      "start": 35.7546,
      "duration": 0.0213,
      "velocity": 91,
      "chip": "ym2612"
    },
    {
      "channel": 3,
      "note": 87,
      "start": 35.755,
      "duration": 0.0266,
      "velocity": 91,
      "chip": "ym2612"
    },
    {
      "channel": 4,
      "note": 75,
      "start": 35.7554,
      "duration": 0.0265,
      "velocity": 91,
      "chip": "ym2612"
    },
    {
      "channel": 0,
      "note": 70,
      "start": 35.7813,
      "duration": 0.4787,
      "velocity": 100,
      "chip": "ym2612"
    },
    {
      "channel": 1,
      "note": 63,
      "start": 35.7815,
      "duration": 0.0213,
      "velocity": 91,
      "chip": "ym2612"
    },
    {
      "channel": 3,
      "note": 87,
      "start": 35.7818,
      "duration": 0.0121,
      "velocity": 91,
      "chip": "ym2612"
    },
    {
      "channel": 4,
      "note": 75,
      "start": 35.7821,
      "duration": 0.0122,
      "velocity": 91,
      "chip": "ym2612"
    },
    {
      "channel": 3,
      "note": 87,
      "start": 35.7941,
      "duration": 0.0185,
      "velocity": 101,
      "chip": "ym2612"
    },
    {
      "channel": 4,
      "note": 75,
      "start": 35.7944,
      "duration": 0.0206,
      "velocity": 101,
      "chip": "ym2612"
    },
    {
      "channel": 1,
      "note": 51,
      "start": 35.8084,
      "duration": 0.0945,
      "velocity": 91,
      "chip": "ym2612"
    },
    {
      "channel": 2,
      "note": 75,
      "start": 35.8103,
      "duration": 0.4201,
      "velocity": 101,
      "chip": "ym2612"
    },
    {
      "channel": 3,
      "note": 70,
      "start": 35.8128,
      "duration": 0.4179,
      "velocity": 101,
      "chip": "ym2612"
    },
    {
      "channel": 4,
      "note": 66,
      "start": 35.8153,
      "duration": 0.4157,
      "velocity": 101,
      "chip": "ym2612"
    },
    {
      "channel": 1,
      "note": 58,
      "start": 35.9532,
      "duration": 0.1997,
      "velocity": 91,
      "chip": "ym2612"
    },
    {
      "channel": 1,
      "note": 61,
      "start": 36.2032,
      "duration": 0.0215,
      "velocity": 91,
      "chip": "ym2612"
    },
    {
      "channel": 1,
      "note": 63,
      "start": 36.2303,
      "duration": 0.0219,
      "velocity": 91,
      "chip": "ym2612"
    },
    {
      "channel": 2,
      "note": 77,
      "start": 36.2306,
      "duration": 0.4737,
      "velocity": 101,
      "chip": "ym2612"
    },
    {
      "channel": 3,
      "note": 72,
      "start": 36.2309,
      "duration": 0.4737,
      "velocity": 101,
      "chip": "ym2612"
    },
    {
      "channel": 4,
      "note": 68,
      "start": 36.2312,
      "duration": 0.4738,
      "velocity": 101,
      "chip": "ym2612"
    },
    {
      "channel": 1,
      "note": 61,
      "start": 36.2604,
      "duration": 0.0915,
      "velocity": 91,
      "chip": "ym2612"
    },
    {
      "channel": 1,
      "note": 58,
      "start": 36.4022,
      "duration": 0.1998,
      "velocity": 91,
      "chip": "ym2612"
    },
    {
      "channel": 1,
      "note": 56,
      "start": 36.6523,
      "duration": 0.0202,
      "velocity": 91,
      "chip": "ym2612"
    },
    {
      "channel": 1,
      "note": 58,
      "start": 36.6778,
      "duration": 0.0198,
      "velocity": 91,
      "chip": "ym2612"
    },
    {
      "channel": 1,
      "note": 51,
      "start": 36.7042,
      "duration": 0.092,
      "velocity": 91,
      "chip": "ym2612"
    },
    {
      "channel": 2,
      "note": 78,
      "start": 36.7045,
      "duration": 0.4183,
      "velocity": 101,
      "chip": "ym2612"
    },
    {
      "channel": 3,
      "note": 73,
      "start": 36.7049,
      "duration": 0.4182,
      "velocity": 101,
      "chip": "ym2612"
    },
    {
      "channel": 4,
      "note": 70,
      "start": 36.7052,
      "duration": 0.4182,
      "velocity": 101,
      "chip": "ym2612"
    },
    {
      "channel": 0,
      "note": 75,
      "start": 36.8466,
      "duration": 0.2497,
      "velocity": 100,
      "chip": "ym2612"
    },
    {
      "channel": 1,
      "note": 58,
      "start": 36.8469,
      "duration": 0.1993,
      "velocity": 91,
      "chip": "ym2612"
    },
    {
      "channel": 0,
      "note": 78,
      "start": 37.0965,
      "duration": 0.0257,
      "velocity": 100,
      "chip": "ym2612"
    },
    {
      "channel": 1,
      "note": 61,
      "start": 37.0968,
      "duration": 0.0202,
      "velocity": 91,
      "chip": "ym2612"
    },
    {
      "channel": 0,
      "note": 80,
      "start": 37.1224,
      "duration": 0.1684,
      "velocity": 100,
      "chip": "ym2612"
    },
    {
      "channel": 1,
      "note": 63,
      "start": 37.1228,
      "duration": 0.0209,
      "velocity": 91,
      "chip": "ym2612"
    },
    {
      "channel": 2,
      "note": 77,
      "start": 37.123,
      "duration": 0.472,
      "velocity": 101,
      "chip": "ym2612"
    },
    {
      "channel": 3,
      "note": 72,
      "start": 37.1233,
      "duration": 0.4737,
      "velocity": 91,
      "chip": "ym2612"
    },
    {
      "channel": 4,
      "note": 68,
      "start": 37.1236,
      "duration": 0.4755,
      "velocity": 91,
      "chip": "ym2612"
    },
    {
      "channel": 1,
      "note": 61,
      "start": 37.1494,
      "duration": 0.0914,
      "velocity": 91,
      "chip": "ym2612"
    },
    {
      "channel": 0,
      "note": 78,
      "start": 37.291,
      "duration": 0.2499,
      "velocity": 100,
      "chip": "ym2612"
    },
    {
      "channel": 1,
      "note": 58,
      "start": 37.2913,
      "duration": 0.1995,
      "velocity": 91,
      "chip": "ym2612"
    },
    {
      "channel": 0,
      "note": 77,
      "start": 37.5411,
      "duration": 0.0256,
      "velocity": 100,
      "chip": "ym2612"
    },
    {
      "channel": 1,
      "note": 56,
      "start": 37.5414,
      "duration": 0.0202,
      "velocity": 91,
      "chip": "ym2612"
    },
    {
      "channel": 0,
      "note": 75,
      "start": 37.5668,
      "duration": 0.4792,
      "velocity": 100,
      "chip": "ym2612"
    },
    {
      "channel": 1,
      "note": 58,
      "start": 37.5671,
      "duration": 0.0199,
      "velocity": 91,
      "chip": "ym2612"
    },
    {
      "channel": 1,
      "note": 56,
      "start": 37.5932,
      "duration": 0.0939,
      "velocity": 91,
      "chip": "ym2612"
    },
    {
      "channel": 2,
      "note": 63,
      "start": 37.5952,
      "duration": 1.791,
      "velocity": 101,
      "chip": "ym2612"
    },
    {
      "channel": 3,
      "note": 87,
      "start": 37.5972,
      "duration": 0.1406,
      "velocity": 91,
      "chip": "ym2612"
    },
    {
      "channel": 4,
      "note": 75,
      "start": 37.5994,
      "duration": 0.1387,
      "velocity": 91,
      "chip": "ym2612"
    },
    {
      "channel": 1,
      "note": 63,
      "start": 37.7375,
      "duration": 0.1997,
      "velocity": 91,
      "chip": "ym2612"
    },
    {
      "channel": 3,
      "note": 87,
      "start": 37.7379,
      "duration": 0.1161,
      "velocity": 91,
      "chip": "ym2612"
    },
    {
      "channel": 4,
      "note": 75,
      "start": 37.7383,
      "duration": 0.1161,
      "velocity": 91,
      "chip": "ym2612"
    },
    {
      "channel": 3,
      "note": 87,
      "start": 37.8543,
      "duration": 0.1335,
      "velocity": 91,
      "chip": "ym2612"
    },
    {
      "channel": 4,
      "note": 75,
      "start": 37.8546,
      "duration": 0.1335,
      "velocity": 91,
      "chip": "ym2612"
    },
    {
      "channel": 1,
      "note": 66,
      "start": 37.9875,
      "duration": 0.0225,
      "velocity": 91,
      "chip": "ym2612"
    },
    {
      "channel": 3,
      "note": 87,
      "start": 37.9879,
      "duration": 0.0282,
      "velocity": 91,
      "chip": "ym2612"
    },
    {
      "channel": 4,
      "note": 75,
      "start": 37.9883,
      "duration": 0.0282,
      "velocity": 91,
      "chip": "ym2612"
    },
    {
      "channel": 1,
      "note": 68,
      "start": 38.0159,
      "duration": 0.0229,
      "velocity": 91,
      "chip": "ym2612"
    },
    {
      "channel": 3,
      "note": 87,
      "start": 38.0162,
      "duration": 0.013,
      "velocity": 91,
      "chip": "ym2612"
    },
    {
      "channel": 4,
      "note": 75,
      "start": 38.0167,
      "duration": 0.013,
      "velocity": 91,
      "chip": "ym2612"
    },
    {
      "channel": 3,
      "note": 87,
      "start": 38.0295,
      "duration": 0.0169,
      "velocity": 91,
      "chip": "ym2612"
    },
    {
      "channel": 4,
      "note": 75,
      "start": 38.03,
      "duration": 0.0167,
      "velocity": 91,
      "chip": "ym2612"
    },
    {
      "channel": 3,
      "note": 87,
      "start": 38.0465,
      "duration": 0.1422,
      "velocity": 91,
      "chip": "ym2612"
    },
    {
      "channel": 4,
      "note": 75,
      "start": 38.0469,
      "duration": 0.1422,
      "velocity": 91,
      "chip": "ym2612"
    },
    {
      "channel": 0,
      "note": 75,
      "start": 38.1882,
      "duration": 0.1164,
      "velocity": 100,
      "chip": "ym2612"
    },
    {
      "channel": 1,
      "note": 63,
      "start": 38.1885,
      "duration": 0.1995,
      "velocity": 91,
      "chip": "ym2612"
    },
    {
      "channel": 3,
      "note": 87,
      "start": 38.1889,
      "duration": 0.1161,
      "velocity": 91,
      "chip": "ym2612"
    },
    {
      "channel": 4,
      "note": 75,
      "start": 38.1893,
      "duration": 0.1161,
      "velocity": 91,
      "chip": "ym2612"
    },
    {
      "channel": 3,
      "note": 87,
      "start": 38.3052,
      "duration": 0.1333,
      "velocity": 91,
      "chip": "ym2612"
    },
    {
      "channel": 4,
      "note": 75,
      "start": 38.3056,
      "duration": 0.1333,
      "velocity": 91,
      "chip": "ym2612"
    },
    {
      "channel": 1,
      "note": 61,
      "start": 38.4384,
      "duration": 0.0212,
      "velocity": 91,
      "chip": "ym2612"
    },
    {
      "channel": 3,
      "note": 87,
      "start": 38.4387,
      "duration": 0.0266,
      "velocity": 91,
      "chip": "ym2612"
    },
    {
      "channel": 4,
      "note": 75,
      "start": 38.4391,
      "duration": 0.0266,
      "velocity": 91,
      "chip": "ym2612"
    },
    {
      "channel": 0,
      "note": 75,
      "start": 38.4649,
      "duration": 0.0128,
      "velocity": 100,
      "chip": "ym2612"
    },
    {
      "channel": 1,
      "note": 63,
      "start": 38.4652,
      "duration": 0.0216,
      "velocity": 91,
      "chip": "ym2612"
    },
    {
      "channel": 3,
      "note": 87,
      "start": 38.4656,
      "duration": 0.0123,
      "velocity": 91,
      "chip": "ym2612"
    },
    {
      "channel": 4,
      "note": 75,
      "start": 38.4659,
      "duration": 0.0124,
      "velocity": 91,
      "chip": "ym2612"
    },
    {
      "channel": 3,
      "note": 87,
      "start": 38.4781,
      "duration": 0.0145,
      "velocity": 91,
      "chip": "ym2612"
    },
    {
      "channel": 4,
      "note": 75,
      "start": 38.4785,
      "duration": 0.0145,
      "velocity": 91,
      "chip": "ym2612"
    },
    {
      "channel": 0,
      "note": 82,
      "start": 38.4922,
      "duration": 0.1425,
      "velocity": 100,
      "chip": "ym2612"
    },
    {
      "channel": 1,
      "note": 56,
      "start": 38.4925,
      "duration": 0.0919,
      "velocity": 91,
      "chip": "ym2612"
    },
    {
      "channel": 3,
      "note": 87,
      "start": 38.4929,
      "duration": 0.1424,
      "velocity": 91,
      "chip": "ym2612"
    },
    {
      "channel": 4,
      "note": 75,
      "start": 38.4932,
      "duration": 0.1424,
      "velocity": 91,
      "chip": "ym2612"
    },
    {
      "channel": 0,
      "note": 80,
      "start": 38.6347,
      "duration": 0.2497,
      "velocity": 100,
      "chip": "ym2612"
    },
    {
      "channel": 1,
      "note": 63,
      "start": 38.6351,
      "duration": 0.1993,
      "velocity": 91,
      "chip": "ym2612"
    },
    {
      "channel": 3,
      "note": 87,
      "start": 38.6355,
      "duration": 0.1158,
      "velocity": 91,
      "chip": "ym2612"
    },
    {
      "channel": 4,
      "note": 75,
      "start": 38.6358,
      "duration": 0.1159,
      "velocity": 91,
      "chip": "ym2612"
    },
    {
      "channel": 3,
      "note": 87,
      "start": 38.7515,
      "duration": 0.1336,
      "velocity": 91,
      "chip": "ym2612"
    },
    {
      "channel": 4,
      "note": 75,
      "start": 38.7518,
      "duration": 0.1337,
      "velocity": 91,
      "chip": "ym2612"
    },
    {
      "channel": 0,
      "note": 80,
      "start": 38.8847,
      "duration": 0.0128,
      "velocity": 100,
      "chip": "ym2612"
    },
    {
      "channel": 1,
      "note": 66,
      "start": 38.8849,
      "duration": 0.021,
      "velocity": 91,
      "chip": "ym2612"
    },
    {
      "channel": 3,
      "note": 87,
      "start": 38.8854,
      "duration": 0.0262,
      "velocity": 91,
      "chip": "ym2612"
    },
    {
      "channel": 4,
      "note": 75,
      "start": 38.8858,
      "duration": 0.0262,
      "velocity": 91,
      "chip": "ym2612"
    },
    {
      "channel": 0,
      "note": 75,
      "start": 38.9111,
      "duration": 0.027,
      "velocity": 100,
      "chip": "ym2612"
    },
    {
      "channel": 1,
      "note": 68,
      "start": 38.9114,
      "duration": 0.0217,
      "velocity": 91,
      "chip": "ym2612"
    },
    {
      "channel": 3,
      "note": 87,
      "start": 38.9118,
      "duration": 0.0122,
      "velocity": 91,
      "chip": "ym2612"
    },
    {
      "channel": 4,
      "note": 75,
      "start": 38.9122,
      "duration": 0.0121,
      "velocity": 91,
      "chip": "ym2612"
    },
    {
      "channel": 3,
      "note": 87,
      "start": 38.9241,
      "duration": 0.0145,
      "velocity": 91,
      "chip": "ym2612"
    },
    {
      "channel": 4,
      "note": 75,
      "start": 38.9246,
      "duration": 0.0143,
      "velocity": 91,
      "chip": "ym2612"
    },
    {
      "channel": 0,
      "note": 75,
      "start": 38.9383,
      "duration": 0.0121,
      "velocity": 100,
      "chip": "ym2612"
    },
    {
      "channel": 3,
      "note": 87,
      "start": 38.9387,
      "duration": 0.1424,
      "velocity": 91,
      "chip": "ym2612"
    },
    {
      "channel": 4,
      "note": 75,
      "start": 38.939,
      "duration": 0.1425,
      "velocity": 91,
      "chip": "ym2612"
    },
    {
      "channel": 0,
      "note": 71,
      "start": 39.0806,
      "duration": 0.2765,
      "velocity": 100,
      "chip": "ym2612"
    },
    {
      "channel": 1,
      "note": 63,
      "start": 39.081,
      "duration": 0.1995,
      "velocity": 91,
      "chip": "ym2612"
    },
    {
      "channel": 3,
      "note": 87,
      "start": 39.0813,
      "duration": 0.116,
      "velocity": 91,
      "chip": "ym2612"
    },
    {
      "channel": 4,
      "note": 75,
      "start": 39.0817,
      "duration": 0.116,
      "velocity": 91,
      "chip": "ym2612"
    },
    {
      "channel": 3,
      "note": 87,
      "start": 39.1975,
      "duration": 0.1335,
      "velocity": 91,
      "chip": "ym2612"
    },
    {
      "channel": 4,
      "note": 75,
      "start": 39.1979,
      "duration": 0.1335,
      "velocity": 91,
      "chip": "ym2612"
    },
    {
      "channel": 1,
      "note": 61,
      "start": 39.3308,
      "duration": 0.0212,
      "velocity": 91,
      "chip": "ym2612"
    },
    {
      "channel": 3,
      "note": 87,
      "start": 39.3312,
      "duration": 0.0265,
      "velocity": 91,
      "chip": "ym2612"
    },
    {
      "channel": 4,
      "note": 75,
      "start": 39.3316,
      "duration": 0.0264,
      "velocity": 91,
      "chip": "ym2612"
    },
    {
      "channel": 0,
      "note": 70,
      "start": 39.3574,
      "duration": 0.9256,
      "velocity": 100,
      "chip": "ym2612"
    },
    {
      "channel": 1,
      "note": 63,
      "start": 39.3576,
      "duration": 0.0212,
      "velocity": 91,
      "chip": "ym2612"
    },
    {
      "channel": 3,
      "note": 87,
      "start": 39.3579,
      "duration": 0.0121,
      "velocity": 91,
      "chip": "ym2612"
    },
    {
      "channel": 4,
      "note": 75,
      "start": 39.3582,
      "duration": 0.0122,
      "velocity": 91,
      "chip": "ym2612"
    },
    {
      "channel": 3,
      "note": 87,
      "start": 39.3701,
      "duration": 0.0185,
      "velocity": 101,
      "chip": "ym2612"
    },
    {
      "channel": 4,
      "note": 75,
      "start": 39.3705,
      "duration": 0.0205,
      "velocity": 101,
      "chip": "ym2612"
    },
    {
      "channel": 1,
      "note": 51,
      "start": 39.3844,
      "duration": 0.0944,
      "velocity": 91,
      "chip": "ym2612"
    },
    {
      "channel": 2,
      "note": 75,
      "start": 39.3863,
      "duration": 0.4202,
      "velocity": 101,
      "chip": "ym2612"
    },
    {
      "channel": 3,
      "note": 70,
      "start": 39.3888,
      "duration": 0.418,
      "velocity": 101,
      "chip": "ym2612"
    },
    {
      "channel": 4,
      "note": 66,
      "start": 39.3913,
      "duration": 0.4158,
      "velocity": 101,
      "chip": "ym2612"
    },
    {
      "channel": 1,
      "note": 58,
      "start": 39.5291,
      "duration": 0.1997,
      "velocity": 91,
      "chip": "ym2612"
    },
    {
      "channel": 1,
      "note": 61,
      "start": 39.7792,
      "duration": 0.0217,
      "velocity": 91,
      "chip": "ym2612"
    },
    {
      "channel": 1,
      "note": 63,
      "start": 39.8065,
      "duration": 0.022,
      "velocity": 91,
      "chip": "ym2612"
    },
    {
      "channel": 2,
      "note": 77,
      "start": 39.8068,
      "duration": 0.4767,
      "velocity": 101,
      "chip": "ym2612"
    },
    {
      "channel": 3,
      "note": 72,
      "start": 39.807,
      "duration": 0.4768,
      "velocity": 101,
      "chip": "ym2612"
    },
    {
      "channel": 4,
      "note": 68,
      "start": 39.8074,
      "duration": 0.4767,
      "velocity": 101,
      "chip": "ym2612"
    },
    {
      "channel": 1,
      "note": 61,
      "start": 39.837,
      "duration": 0.0913,
      "velocity": 91,
      "chip": "ym2612"
    },
    {
      "channel": 1,
      "note": 58,
      "start": 39.9786,
      "duration": 0.1997,
      "velocity": 91,
      "chip": "ym2612"
    },
    {
      "channel": 1,
      "note": 56,
      "start": 40.2287,
      "duration": 0.0217,
      "velocity": 91,
      "chip": "ym2612"
    },
    {
      "channel": 1,
      "note": 58,
      "start": 40.256,
      "duration": 0.0213,
      "velocity": 91,
      "chip": "ym2612"
    },
    {
      "channel": 0,
      "note": 70,
      "start": 40.283,
      "duration": 0.392,
      "velocity": 100,
      "chip": "ym2612"
    },
    {
      "channel": 1,
      "note": 51,
      "start": 40.2834,
      "duration": 0.0917,
      "velocity": 91,
      "chip": "ym2612"
    },
    {
      "channel": 2,
      "note": 78,
      "start": 40.2838,
      "duration": 0.4171,
      "velocity": 101,
      "chip": "ym2612"
    },
    {
      "channel": 3,
      "note": 73,
      "start": 40.284,
      "duration": 0.4171,
      "velocity": 101,
      "chip": "ym2612"
    },
    {
      "channel": 4,
      "note": 70,
      "start": 40.2842,
      "duration": 0.4173,
      "velocity": 101,
      "chip": "ym2612"
    },
    {
      "channel": 1,
      "note": 58,
      "start": 40.4252,
      "duration": 0.1997,
      "velocity": 91,
      "chip": "ym2612"
    },
    {
      "channel": 1,
      "note": 61,
      "start": 40.6753,
      "duration": 0.0204,
      "velocity": 91,
      "chip": "ym2612"
    },
    {
      "channel": 1,
      "note": 63,
      "start": 40.7008,
      "duration": 0.0208,
      "velocity": 91,
      "chip": "ym2612"
    },
    {
      "channel": 2,
      "note": 77,
      "start": 40.701,
      "duration": 0.4733,
      "velocity": 101,
      "chip": "ym2612"
    },
    {
      "channel": 3,
      "note": 72,
      "start": 40.7014,
      "duration": 0.4749,
      "velocity": 101,
      "chip": "ym2612"
    },
    {
      "channel": 4,
      "note": 68,
      "start": 40.7017,
      "duration": 0.4769,
      "velocity": 101,
      "chip": "ym2612"
    },
    {
      "channel": 1,
      "note": 61,
      "start": 40.7279,
      "duration": 0.0916,
      "velocity": 91,
      "chip": "ym2612"
    },
    {
      "channel": 1,
      "note": 58,
      "start": 40.8697,
      "duration": 0.1998,
      "velocity": 91,
      "chip": "ym2612"
    },
    {
      "channel": 1,
      "note": 56,
      "start": 41.1198,
      "duration": 0.0202,
      "velocity": 91,
      "chip": "ym2612"
    },
    {
      "channel": 1,
      "note": 58,
      "start": 41.1455,
      "duration": 0.0181,
      "velocity": 91,
      "chip": "ym2612"
    },
    {
      "channel": 1,
      "note": 51,
      "start": 41.1725,
      "duration": 0.0919,
      "velocity": 91,
      "chip": "ym2612"
    },
    {
      "channel": 2,
      "note": 75,
      "start": 41.1745,
      "duration": 0.4162,
      "velocity": 101,
      "chip": "ym2612"
    },
    {
      "channel": 3,
      "note": 70,
      "start": 41.1766,
      "duration": 0.4144,
      "velocity": 101,
      "chip": "ym2612"
    },
    {
      "channel": 4,
      "note": 66,
      "start": 41.1788,
      "duration": 0.4124,
      "velocity": 101,
      "chip": "ym2612"
    },
    {
      "channel": 0,
      "note": 69,
      "start": 41.3146,
      "duration": 0.0833,
      "velocity": 100,
      "chip": "ym2612"
    },
    {
      "channel": 1,
      "note": 58,
      "start": 41.3149,
      "duration": 0.1995,
      "velocity": 91,
      "chip": "ym2612"
    },
    {
      "channel": 0,
      "note": 70,
      "start": 41.3978,
      "duration": 0.1666,
      "velocity": 100,
      "chip": "ym2612"
    },
    {
      "channel": 0,
      "note": 70,
      "start": 41.5646,
      "duration": 0.0255,
      "velocity": 100,
      "chip": "ym2612"
    },
    {
      "channel": 1,
      "note": 61,
      "start": 41.5649,
      "duration": 0.0202,
      "velocity": 91,
      "chip": "ym2612"
    },
    {
      "channel": 0,
      "note": 70,
      "start": 41.5904,
      "duration": 0.0269,
      "velocity": 100,
      "chip": "ym2612"
    },
    {
      "channel": 1,
      "note": 63,
      "start": 41.5906,
      "duration": 0.021,
      "velocity": 91,
      "chip": "ym2612"
    },
    {
      "channel": 2,
      "note": 77,
      "start": 41.5909,
      "duration": 0.4714,
      "velocity": 101,
      "chip": "ym2612"
    },
    {
      "channel": 3,
      "note": 72,
      "start": 41.5912,
      "duration": 0.4714,
      "velocity": 101,
      "chip": "ym2612"
    },
    {
      "channel": 4,
      "note": 68,
      "start": 41.5915,
      "duration": 0.4714,
      "velocity": 101,
      "chip": "ym2612"
    },
    {
      "channel": 0,
      "note": 70,
      "start": 41.6175,
      "duration": 0.1417,
      "velocity": 100,
      "chip": "ym2612"
    },
    {
      "channel": 1,
      "note": 61,
      "start": 41.6178,
      "duration": 0.0914,
      "velocity": 91,
      "chip": "ym2612"
    },
    {
      "channel": 0,
      "note": 68,
      "start": 41.7594,
      "duration": 0.2499,
      "velocity": 100,
      "chip": "ym2612"
    },
    {
      "channel": 1,
      "note": 58,
      "start": 41.7597,
      "duration": 0.1995,
      "velocity": 91,
      "chip": "ym2612"
    },
    {
      "channel": 0,
      "note": 66,
      "start": 42.0095,
      "duration": 0.0256,
      "velocity": 100,
      "chip": "ym2612"
    },
    {
      "channel": 1,
      "note": 56,
      "start": 42.0098,
      "duration": 0.0202,
      "velocity": 91,
      "chip": "ym2612"
    },
    {
      "channel": 0,
      "note": 67,
      "start": 42.0353,
      "duration": 0.009,
      "velocity": 100,
      "chip": "ym2612"
    },
    {
      "channel": 1,
      "note": 58,
      "start": 42.0357,
      "duration": 0.0203,
      "velocity": 91,
      "chip": "ym2612"
    },
    {
      "channel": 0,
      "note": 68,
      "start": 42.0443,
      "duration": 0.0293,
      "velocity": 100,
      "chip": "ym2612"
    },
    {
      "channel": 1,
      "note": 51,
      "start": 42.0622,
      "duration": 0.0914,
      "velocity": 91,
      "chip": "ym2612"
    },
    {
      "channel": 2,
      "note": 78,
      "start": 42.0624,
      "duration": 0.4191,
      "velocity": 101,
      "chip": "ym2612"
    },
    {
      "channel": 3,
      "note": 73,
      "start": 42.0627,
      "duration": 0.4191,
      "velocity": 101,
      "chip": "ym2612"
    },
    {
      "channel": 4,
      "note": 70,
      "start": 42.0631,
      "duration": 0.419,
      "velocity": 101,
      "chip": "ym2612"
    },
    {
      "channel": 0,
      "note": 66,
      "start": 42.0739,
      "duration": 0.1298,
      "velocity": 100,
      "chip": "ym2612"
    },
    {
      "channel": 0,
      "note": 70,
      "start": 42.2039,
      "duration": 0.2771,
      "velocity": 100,
      "chip": "ym2612"
    },
    {
      "channel": 1,
      "note": 58,
      "start": 42.2041,
      "duration": 0.1996,
      "velocity": 91,
      "chip": "ym2612"
    },
    {
      "channel": 1,
      "note": 61,
      "start": 42.454,
      "duration": 0.0217,
      "velocity": 91,
      "chip": "ym2612"
    },
    {
      "channel": 0,
      "note": 68,
      "start": 42.4812,
      "duration": 0.0128,
      "velocity": 100,
      "chip": "ym2612"
    },
    {
      "channel": 1,
      "note": 63,
      "start": 42.4814,
      "duration": 0.021,
      "velocity": 91,
      "chip": "ym2612"
    },
    {
      "channel": 2,
      "note": 77,
      "start": 42.4818,
      "duration": 53.0626,
      "velocity": 101,
      "chip": "ym2612"
    },
    {
      "channel": 3,
      "note": 72,
      "start": 42.482,
      "duration": 53.0624,
      "velocity": 101,
      "chip": "ym2612"
    },
    {
      "channel": 4,
      "note": 68,
      "start": 42.4822,
      "duration": 53.0622,
      "velocity": 101,
      "chip": "ym2612"
    },
    {
      "channel": 0,
      "note": 66,
      "start": 42.4942,
      "duration": 0.0132,
      "velocity": 100,
      "chip": "ym2612"
    },
    {
      "channel": 0,
      "note": 68,
      "start": 42.5077,
      "duration": 0.1417,
      "velocity": 100,
      "chip": "ym2612"
    },
    {
      "channel": 1,
      "note": 61,
      "start": 42.5079,
      "duration": 0.0915,
      "velocity": 91,
      "chip": "ym2612"
    },
    {
      "channel": 0,
      "note": 66,
      "start": 42.6497,
      "duration": 0.1164,
      "velocity": 100,
      "chip": "ym2612"
    },
    {
      "channel": 1,
      "note": 58,
      "start": 42.65,
      "duration": 0.1995,
      "velocity": 91,
      "chip": "ym2612"
    }
  ]
}