{
  "track_name": "04 - Field Motavia",
  "duration_sec": 72.004,
  "sample_rate": 44100,
  "note_count": 1272,
  "unique_pitches": 25,
  "pitch_range": 41,
  "avg_note_duration": 0.2589,
  "reconstruction_stats": {
    "notes_reconstructed": 1272,
    "keyon_events": 1272,
    "keyoff_events": 1253,
    "orphan_keyons": 5,
    "unique_pitches": 25,
    "pitch_range": 41,
    "avg_duration_sec": 0.2589
  },
  "metadata": {
    "source": "P\\Phantasy Star IV\\04 - Field Motavia.vgm"
  },
  "notes": [
    {
      "channel": 1,
      "note": 49,
      "start": 0.0,
      "duration": 0.2309,
      "velocity": 99,
      "chip": "ym2612"
    },
    {
      "channel": 2,
      "note": 73,
      "start": 0.001,
      "duration": 0.1468,
      "velocity": 111,
      "chip": "ym2612"
    },
    {
      "channel": 3,
      "note": 68,
      "start": 0.0022,
      "duration": 0.146,
      "velocity": 111,
      "chip": "ym2612"
    },
    {
      "channel": 2,
      "note": 73,
      "start": 0.1479,
      "duration": 0.1664,
      "velocity": 111,
      "chip": "ym2612"
    },
    {
      "channel": 3,
      "note": 68,
      "start": 0.1484,
      "duration": 0.1665,
      "velocity": 111,
      "chip": "ym2612"
    },
    {
      "channel": 2,
      "note": 73,
      "start": 0.3146,
      "duration": 0.1503,
      "velocity": 111,
      "chip": "ym2612"
    },
    {
      "channel": 3,
      "note": 68,
      "start": 0.315,
      "duration": 0.1503,
      "velocity": 111,
      "chip": "ym2612"
    },
    {
      "channel": 1,
      "note": 49,
      "start": 0.4647,
      "duration": 0.0129,
      "velocity": 101,
      "chip": "ym2612"
    },
    {
      "channel": 2,
      "note": 73,
      "start": 0.4652,
      "duration": 0.0088,
      "velocity": 111,
      "chip": "ym2612"
    },
    {
      "channel": 3,
      "note": 68,
      "start": 0.4656,
      "duration": 0.0087,
      "velocity": 111,
      "chip": "ym2612"
    },
    {
      "channel": 2,
      "note": 73,
      "start": 0.4741,
      "duration": 0.0072,
      "velocity": 111,
      "chip": "ym2612"
    },
    {
      "channel": 3,
      "note": 68,
      "start": 0.4746,
      "duration": 0.0072,
      "velocity": 111,
      "chip": "ym2612"
    },
    {
      "channel": 2,
      "note": 73,
      "start": 0.4816,
      "duration": 0.007,
      "velocity": 111,
      "chip": "ym2612"
    },
    {
      "channel": 3,
      "note": 68,
      "start": 0.4819,
      "duration": 0.0068,
      "velocity": 111,
      "chip": "ym2612"
    },
    {
      "channel": 1,
      "note": 49,
      "start": 0.4883,
      "duration": 0.1275,
      "velocity": 104,
      "chip": "ym2612"
    },
    {
      "channel": 2,
      "note": 73,
      "start": 0.4886,
      "duration": 0.044,
      "velocity": 111,
      "chip": "ym2612"
    },
    {
      "channel": 3,
      "note": 68,
      "start": 0.4889,
      "duration": 0.0442,
      "velocity": 111,
      "chip": "ym2612"
    },
    {
      "channel": 2,
      "note": 73,
      "start": 0.5329,
      "duration": 0.1498,
      "velocity": 111,
      "chip": "ym2612"
    },
    {
      "channel": 3,
      "note": 68,
      "start": 0.5333,
      "duration": 0.1498,
      "velocity": 111,
      "chip": "ym2612"
    },
    {
      "channel": 2,
      "note": 73,
      "start": 0.6829,
      "duration": 0.1671,
      "velocity": 111,
      "chip": "ym2612"
    },
    {
      "channel": 3,
      "note": 68,
      "start": 0.6833,
      "duration": 0.1671,
      "velocity": 111,
      "chip": "ym2612"
    },
    {
      "channel": 0,
      "note": 68,
      "start": 0.8493,
      "duration": 0.4833,
      "velocity": 106,
      "chip": "ym2612"
    },
    {
      "channel": 1,
      "note": 49,
      "start": 0.8497,
      "duration": 0.2328,
      "velocity": 102,
      "chip": "ym2612"
    },
    {
      "channel": 2,
      "note": 73,
      "start": 0.8502,
      "duration": 0.1659,
      "velocity": 111,
      "chip": "ym2612"
    },
    {
      "channel": 3,
      "note": 68,
      "start": 0.8506,
      "duration": 0.1659,
      "velocity": 111,
      "chip": "ym2612"
    },
    {
      "channel": 4,
      "note": 68,
      "start": 0.9331,
      "duration": 0.4831,
      "velocity": 106,
      "chip": "ym2612"
    },
    {
      "channel": 2,
      "note": 73,
      "start": 1.0163,
      "duration": 0.1498,
      "velocity": 111,
      "chip": "ym2612"
    },
    {
      "channel": 3,
      "note": 68,
      "start": 1.0168,
      "duration": 0.1498,
      "velocity": 111,
      "chip": "ym2612"
    },
    {
      "channel": 2,
      "note": 73,
      "start": 1.1663,
      "duration": 0.1673,
      "velocity": 111,
      "chip": "ym2612"
    },
    {
      "channel": 3,
      "note": 68,
      "start": 1.1668,
      "duration": 0.1672,
      "velocity": 111,
      "chip": "ym2612"
    },
    {
      "channel": 0,
      "note": 73,
      "start": 1.3328,
      "duration": 0.4831,
      "velocity": 106,
      "chip": "ym2612"
    },
    {
      "channel": 1,
      "note": 49,
      "start": 1.3333,
      "duration": 0.2326,
      "velocity": 103,
      "chip": "ym2612"
    },
    {
      "channel": 2,
      "note": 73,
      "start": 1.3338,
      "duration": 0.1488,
      "velocity": 111,
      "chip": "ym2612"
    },
    {
      "channel": 3,
      "note": 68,
      "start": 1.3343,
      "duration": 0.1486,
      "velocity": 111,
      "chip": "ym2612"
    },
    {
      "channel": 4,
      "note": 73,
      "start": 1.4165,
      "duration": 0.4041,
      "velocity": 106,
      "chip": "ym2612"
    },
    {
      "channel": 2,
      "note": 73,
      "start": 1.4828,
      "duration": 0.1665,
      "velocity": 111,
      "chip": "ym2612"
    },
    {
      "channel": 3,
      "note": 68,
      "start": 1.4831,
      "duration": 0.1664,
      "velocity": 111,
      "chip": "ym2612"
    },
    {
      "channel": 2,
      "note": 73,
      "start": 1.6495,
      "duration": 0.1669,
      "velocity": 111,
      "chip": "ym2612"
    },
    {
      "channel": 3,
      "note": 68,
      "start": 1.6498,
      "duration": 0.1668,
      "velocity": 111,
      "chip": "ym2612"
    },
    {
      "channel": 0,
      "note": 78,
      "start": 1.8161,
      "duration": 0.0258,
      "velocity": 106,
      "chip": "ym2612"
    },
    {
      "channel": 1,
      "note": 49,
      "start": 1.8163,
      "duration": 0.0131,
      "velocity": 103,
      "chip": "ym2612"
    },
    {
      "channel": 2,
      "note": 73,
      "start": 1.8165,
      "duration": 0.0083,
      "velocity": 111,
      "chip": "ym2612"
    },
    {
      "channel": 3,
      "note": 68,
      "start": 1.8167,
      "duration": 0.0083,
      "velocity": 111,
      "chip": "ym2612"
    },
    {
      "channel": 4,
      "note": 78,
      "start": 1.8207,
      "duration": 0.0267,
      "velocity": 106,
      "chip": "ym2612"
    },
    {
      "channel": 2,
      "note": 73,
      "start": 1.825,
      "duration": 0.0089,
      "velocity": 111,
      "chip": "ym2612"
    },
    {
      "channel": 3,
      "note": 68,
      "start": 1.8253,
      "duration": 0.0088,
      "velocity": 111,
      "chip": "ym2612"
    },
    {
      "channel": 2,
      "note": 73,
      "start": 1.834,
      "duration": 0.0085,
      "velocity": 111,
      "chip": "ym2612"
    },
    {
      "channel": 3,
      "note": 68,
      "start": 1.8342,
      "duration": 0.0085,
      "velocity": 111,
      "chip": "ym2612"
    },
    {
      "channel": 0,
      "note": 76,
      "start": 1.8421,
      "duration": 0.3439,
      "velocity": 106,
      "chip": "ym2612"
    },
    {
      "channel": 1,
      "note": 49,
      "start": 1.8424,
      "duration": 0.1104,
      "velocity": 103,
      "chip": "ym2612"
    },
    {
      "channel": 2,
      "note": 73,
      "start": 1.8427,
      "duration": 0.0268,
      "velocity": 111,
      "chip": "ym2612"
    },
    {
      "channel": 3,
      "note": 68,
      "start": 1.843,
      "duration": 0.0268,
      "velocity": 111,
      "chip": "ym2612"
    },
    {
      "channel": 4,
      "note": 76,
      "start": 1.8476,
      "duration": 0.4223,
      "velocity": 106,
      "chip": "ym2612"
    },
    {
      "channel": 2,
      "note": 73,
      "start": 1.8697,
      "duration": 0.1665,
      "velocity": 111,
      "chip": "ym2612"
    },
    {
      "channel": 3,
      "note": 68,
      "start": 1.87,
      "duration": 0.1664,
      "velocity": 111,
      "chip": "ym2612"
    },
    {
      "channel": 2,
      "note": 73,
      "start": 2.0364,
      "duration": 0.1502,
      "velocity": 111,
      "chip": "ym2612"
    },
    {
      "channel": 3,
      "note": 68,
      "start": 2.0367,
      "duration": 0.1502,
      "velocity": 111,
      "chip": "ym2612"
    },
    {
      "channel": 0,
      "note": 75,
      "start": 2.1862,
      "duration": 0.1665,
      "velocity": 106,
      "chip": "ym2612"
    },
    {
      "channel": 1,
      "note": 49,
      "start": 2.1865,
      "duration": 0.2496,
      "velocity": 103,
      "chip": "ym2612"
    },
    {
      "channel": 2,
      "note": 73,
      "start": 2.1868,
      "duration": 0.1662,
      "velocity": 111,
      "chip": "ym2612"
    },
    {
      "channel": 3,
      "note": 68,
      "start": 2.1871,
      "duration": 0.1661,
      "velocity": 111,
      "chip": "ym2612"
    },
    {
      "channel": 4,
      "note": 75,
      "start": 2.27,
      "duration": 0.1665,
      "velocity": 106,
      "chip": "ym2612"
    },
    {
      "channel": 0,
      "note": 73,
      "start": 2.3529,
      "duration": 0.1498,
      "velocity": 106,
      "chip": "ym2612"
    },
    {
      "channel": 2,
      "note": 73,
      "start": 2.3532,
      "duration": 0.1498,
      "velocity": 111,
      "chip": "ym2612"
    },
    {
      "channel": 3,
      "note": 68,
      "start": 2.3535,
      "duration": 0.1498,
      "velocity": 111,
      "chip": "ym2612"
    },
    {
      "channel": 4,
      "note": 73,
      "start": 2.4368,
      "duration": 0.1497,
      "velocity": 106,
      "chip": "ym2612"
    },
    {
      "channel": 0,
      "note": 75,
      "start": 2.5029,
      "duration": 0.1666,
      "velocity": 106,
      "chip": "ym2612"
    },
    {
      "channel": 2,
      "note": 73,
      "start": 2.5032,
      "duration": 0.1669,
      "velocity": 111,
      "chip": "ym2612"
    },
    {
      "channel": 3,
      "note": 68,
      "start": 2.5035,
      "duration": 0.1669,
      "velocity": 111,
      "chip": "ym2612"
    },
    {
      "channel": 4,
      "note": 75,
      "start": 2.5867,
      "duration": 0.1665,
      "velocity": 106,
      "chip": "ym2612"
    },
    {
      "channel": 0,
      "note": 71,
      "start": 2.6697,
      "duration": 0.4832,
      "velocity": 106,
      "chip": "ym2612"
    },
    {
      "channel": 1,
      "note": 49,
      "start": 2.67,
      "duration": 0.2328,
      "velocity": 103,
      "chip": "ym2612"
    },
    {
      "channel": 2,
      "note": 73,
      "start": 2.6703,
      "duration": 0.1659,
      "velocity": 111,
      "chip": "ym2612"
    },
    {
      "channel": 3,
      "note": 68,
      "start": 2.6706,
      "duration": 0.1659,
      "velocity": 111,
      "chip": "ym2612"
    },
    {
      "channel": 4,
      "note": 71,
      "start": 2.7534,
      "duration": 0.4048,
      "velocity": 106,
      "chip": "ym2612"
    },
    {
      "channel": 2,
      "note": 73,
      "start": 2.8364,
      "duration": 0.1498,
      "velocity": 111,
      "chip": "ym2612"
    },
    {
      "channel": 3,
      "note": 68,
      "start": 2.8367,
      "duration": 0.1498,
      "velocity": 111,
      "chip": "ym2612"
    },
    {
      "channel": 2,
      "note": 73,
      "start": 2.9864,
      "duration": 0.167,
      "velocity": 111,
      "chip": "ym2612"
    },
    {
      "channel": 3,
      "note": 68,
      "start": 2.9867,
      "duration": 0.1669,
      "velocity": 111,
      "chip": "ym2612"
    },
    {
      "channel": 0,
      "note": 66,
      "start": 3.1531,
      "duration": 0.3691,
      "velocity": 106,
      "chip": "ym2612"
    },
    {
      "channel": 1,
      "note": 49,
      "start": 3.1534,
      "duration": 0.013,
      "velocity": 103,
      "chip": "ym2612"
    },
    {
      "channel": 2,
      "note": 76,
      "start": 3.1536,
      "duration": 0.0081,
      "velocity": 111,
      "chip": "ym2612"
    },
    {
      "channel": 3,
      "note": 71,
      "start": 3.1539,
      "duration": 0.008,
      "velocity": 111,
      "chip": "ym2612"
    },
    {
      "channel": 4,
      "note": 66,
      "start": 3.1584,
      "duration": 0.4476,
      "velocity": 106,
      "chip": "ym2612"
    },
    {
      "channel": 2,
      "note": 76,
      "start": 3.1619,
      "duration": 0.0084,
      "velocity": 111,
      "chip": "ym2612"
    },
    {
      "channel": 3,
      "note": 71,
      "start": 3.1621,
      "duration": 0.0084,
      "velocity": 111,
      "chip": "ym2612"
    },
    {
      "channel": 2,
      "note": 76,
      "start": 3.1704,
      "duration": 0.0087,
      "velocity": 111,
      "chip": "ym2612"
    },
    {
      "channel": 3,
      "note": 71,
      "start": 3.1706,
      "duration": 0.0088,
      "velocity": 111,
      "chip": "ym2612"
    },
    {
      "channel": 1,
      "note": 49,
      "start": 3.1791,
      "duration": 0.1099,
      "velocity": 103,
      "chip": "ym2612"
    },
    {
      "channel": 2,
      "note": 75,
      "start": 3.1793,
      "duration": 0.0263,
      "velocity": 111,
      "chip": "ym2612"
    },
    {
      "channel": 3,
      "note": 70,
      "start": 3.1795,
      "duration": 0.0264,
      "velocity": 111,
      "chip": "ym2612"
    },
    {
      "channel": 2,
      "note": 75,
      "start": 3.2059,
      "duration": 0.1665,
      "velocity": 111,
      "chip": "ym2612"
    },
    {
      "channel": 3,
      "note": 70,
      "start": 3.2062,
      "duration": 0.1664,
      "velocity": 111,
      "chip": "ym2612"
    },
    {
      "channel": 2,
      "note": 75,
      "start": 3.3725,
      "duration": 0.1502,
      "velocity": 111,
      "chip": "ym2612"
    },
    {
      "channel": 3,
      "note": 70,
      "start": 3.3729,
      "duration": 0.1502,
      "velocity": 111,
      "chip": "ym2612"
    },
    {
      "channel": 0,
      "note": 68,
      "start": 3.5223,
      "duration": 0.4833,
      "velocity": 106,
      "chip": "ym2612"
    },
    {
      "channel": 1,
      "note": 49,
      "start": 3.5227,
      "duration": 0.2496,
      "velocity": 103,
      "chip": "ym2612"
    },
    {
      "channel": 2,
      "note": 78,
      "start": 3.523,
      "duration": 0.166,
      "velocity": 111,
      "chip": "ym2612"
    },
    {
      "channel": 3,
      "note": 73,
      "start": 3.5232,
      "duration": 0.166,
      "velocity": 111,
      "chip": "ym2612"
    },
    {
      "channel": 4,
      "note": 68,
      "start": 3.6062,
      "duration": 0.4831,
      "velocity": 106,
      "chip": "ym2612"
    },
    {
      "channel": 2,
      "note": 78,
      "start": 3.6892,
      "duration": 0.1665,
      "velocity": 111,
      "chip": "ym2612"
    },
    {
      "channel": 3,
      "note": 73,
      "start": 3.6895,
      "duration": 0.1664,
      "velocity": 111,
      "chip": "ym2612"
    },
    {
      "channel": 2,
      "note": 78,
      "start": 3.8559,
      "duration": 0.1504,
      "velocity": 111,
      "chip": "ym2612"
    },
    {
      "channel": 3,
      "note": 73,
      "start": 3.8562,
      "duration": 0.1504,
      "velocity": 111,
      "chip": "ym2612"
    },
    {
      "channel": 0,
      "note": 73,
      "start": 4.0058,
      "duration": 0.4832,
      "velocity": 106,
      "chip": "ym2612"
    },
    {
      "channel": 1,
      "note": 49,
      "start": 4.0061,
      "duration": 0.2495,
      "velocity": 103,
      "chip": "ym2612"
    },
    {
      "channel": 2,
      "note": 73,
      "start": 4.0064,
      "duration": 0.1659,
      "velocity": 111,
      "chip": "ym2612"
    },
    {
      "channel": 3,
      "note": 68,
      "start": 4.0068,
      "duration": 0.1658,
      "velocity": 111,
      "chip": "ym2612"
    },
    {
      "channel": 4,
      "note": 73,
      "start": 4.0895,
      "duration": 0.4046,
      "velocity": 106,
      "chip": "ym2612"
    },
    {
      "channel": 2,
      "note": 73,
      "start": 4.1725,
      "duration": 0.1498,
      "velocity": 111,
      "chip": "ym2612"
    },
    {
      "channel": 3,
      "note": 68,
      "start": 4.1729,
      "duration": 0.1498,
      "velocity": 111,
      "chip": "ym2612"
    },
    {
      "channel": 2,
      "note": 73,
      "start": 4.3225,
      "duration": 0.1669,
      "velocity": 111,
      "chip": "ym2612"
    },
    {
      "channel": 3,
      "note": 68,
      "start": 4.3229,
      "duration": 0.1668,
      "velocity": 111,
      "chip": "ym2612"
    },
    {
      "channel": 0,
      "note": 78,
      "start": 4.4892,
      "duration": 0.026,
      "velocity": 106,
      "chip": "ym2612"
    },
    {
      "channel": 1,
      "note": 49,
      "start": 4.4894,
      "duration": 0.0127,
      "velocity": 103,
      "chip": "ym2612"
    },
    {
      "channel": 2,
      "note": 73,
      "start": 4.4896,
      "duration": 0.0088,
      "velocity": 111,
      "chip": "ym2612"
    },
    {
      "channel": 3,
      "note": 68,
      "start": 4.4898,
      "duration": 0.0088,
      "velocity": 111,
      "chip": "ym2612"
    },
    {
      "channel": 4,
      "note": 78,
      "start": 4.4943,
      "duration": 0.026,
      "velocity": 106,
      "chip": "ym2612"
    },
    {
      "channel": 2,
      "note": 73,
      "start": 4.4986,
      "duration": 0.0079,
      "velocity": 111,
      "chip": "ym2612"
    },
    {
      "channel": 3,
      "note": 68,
      "start": 4.4988,
      "duration": 0.0079,
      "velocity": 111,
      "chip": "ym2612"
    },
    {
      "channel": 2,
      "note": 73,
      "start": 4.5066,
      "duration": 0.009,
      "velocity": 111,
      "chip": "ym2612"
    },
    {
      "channel": 3,
      "note": 68,
      "start": 4.5069,
      "duration": 0.0091,
      "velocity": 111,
      "chip": "ym2612"
    },
    {
      "channel": 0,
      "note": 76,
      "start": 4.5153,
      "duration": 0.3597,
      "velocity": 106,
      "chip": "ym2612"
    },
    {
      "channel": 1,
      "note": 49,
      "start": 4.5156,
      "duration": 0.1095,
      "velocity": 103,
      "chip": "ym2612"
    },
    {
      "channel": 2,
      "note": 73,
      "start": 4.5159,
      "duration": 0.026,
      "velocity": 111,
      "chip": "ym2612"
    },
    {
      "channel": 3,
      "note": 68,
      "start": 4.5161,
      "duration": 0.026,
      "velocity": 111,
      "chip": "ym2612"
    },
    {
      "channel": 4,
      "note": 76,
      "start": 4.5206,
      "duration": 0.4215,
      "velocity": 106,
      "chip": "ym2612"
    },
    {
      "channel": 2,
      "note": 73,
      "start": 4.542,
      "duration": 0.1665,
      "velocity": 111,
      "chip": "ym2612"
    },
    {
      "channel": 3,
      "note": 68,
      "start": 4.5423,
      "duration": 0.1664,
      "velocity": 111,
      "chip": "ym2612"
    },
    {
      "channel": 2,
      "note": 73,
      "start": 4.7087,
      "duration": 0.1668,
      "velocity": 111,
      "chip": "ym2612"
    },
    {
      "channel": 3,
      "note": 68,
      "start": 4.709,
      "duration": 0.1668,
      "velocity": 111,
      "chip": "ym2612"
    },
    {
      "channel": 0,
      "note": 75,
      "start": 4.8751,
      "duration": 0.1498,
      "velocity": 106,
      "chip": "ym2612"
    },
    {
      "channel": 1,
      "note": 49,
      "start": 4.8755,
      "duration": 0.233,
      "velocity": 103,
      "chip": "ym2612"
    },
    {
      "channel": 2,
      "note": 73,
      "start": 4.8758,
      "duration": 0.1495,
      "velocity": 111,
      "chip": "ym2612"
    },
    {
      "channel": 3,
      "note": 68,
      "start": 4.8761,
      "duration": 0.1495,
      "velocity": 111,
      "chip": "ym2612"
    },
    {
      "channel": 4,
      "note": 75,
      "start": 4.9423,
      "duration": 0.1665,
      "velocity": 106,
      "chip": "ym2612"
    },
    {
      "channel": 0,
      "note": 73,
      "start": 5.0251,
      "duration": 0.1665,
      "velocity": 106,
      "chip": "ym2612"
    },
    {
      "channel": 2,
      "note": 73,
      "start": 5.0255,
      "duration": 0.1665,
      "velocity": 111,
      "chip": "ym2612"
    },
    {
      "channel": 3,
      "note": 68,
      "start": 5.0258,
      "duration": 0.1664,
      "velocity": 111,
      "chip": "ym2612"
    },
    {
      "channel": 4,
      "note": 73,
      "start": 5.1091,
      "duration": 0.1663,
      "velocity": 106,
      "chip": "ym2612"
    },
    {
      "channel": 0,
      "note": 75,
      "start": 5.1918,
      "duration": 0.15,
      "velocity": 106,
      "chip": "ym2612"
    },
    {
      "channel": 2,
      "note": 73,
      "start": 5.1921,
      "duration": 0.1502,
      "velocity": 111,
      "chip": "ym2612"
    },
    {
      "channel": 3,
      "note": 68,
      "start": 5.1924,
      "duration": 0.1502,
      "velocity": 111,
      "chip": "ym2612"
    },
    {
      "channel": 4,
      "note": 75,
      "start": 5.2757,
      "duration": 0.1498,
      "velocity": 106,
      "chip": "ym2612"
    },
    {
      "channel": 0,
      "note": 71,
      "start": 5.342,
      "duration": 0.5098,
      "velocity": 106,
      "chip": "ym2612"
    },
    {
      "channel": 1,
      "note": 47,
      "start": 5.3423,
      "duration": 0.2495,
      "velocity": 103,
      "chip": "ym2612"
    },
    {
      "channel": 2,
      "note": 71,
      "start": 5.3426,
      "duration": 0.1659,
      "velocity": 111,
      "chip": "ym2612"
    },
    {
      "channel": 3,
      "note": 66,
      "start": 5.3429,
      "duration": 0.1659,
      "velocity": 111,
      "chip": "ym2612"
    },
    {
      "channel": 4,
      "note": 71,
      "start": 5.4257,
      "duration": 0.4312,
      "velocity": 106,
      "chip": "ym2612"
    },
    {
      "channel": 2,
      "note": 71,
      "start": 5.5087,
      "duration": 0.1665,
      "velocity": 111,
      "chip": "ym2612"
    },
    {
      "channel": 3,
      "note": 66,
      "start": 5.509,
      "duration": 0.1664,
      "velocity": 111,
      "chip": "ym2612"
    },
    {
      "channel": 2,
      "note": 71,
      "start": 5.6754,
      "duration": 0.1502,
      "velocity": 111,
      "chip": "ym2612"
    },
    {
      "channel": 3,
      "note": 66,
      "start": 5.6757,
      "duration": 0.1501,
      "velocity": 111,
      "chip": "ym2612"
    },
    {
      "channel": 1,
      "note": 47,
      "start": 5.8254,
      "duration": 0.0138,
      "velocity": 103,
      "chip": "ym2612"
    },
    {
      "channel": 2,
      "note": 71,
      "start": 5.8257,
      "duration": 0.0089,
      "velocity": 111,
      "chip": "ym2612"
    },
    {
      "channel": 3,
      "note": 66,
      "start": 5.826,
      "duration": 0.0089,
      "velocity": 111,
      "chip": "ym2612"
    },
    {
      "channel": 2,
      "note": 71,
      "start": 5.8348,
      "duration": 0.008,
      "velocity": 111,
      "chip": "ym2612"
    },
    {
      "channel": 3,
      "note": 66,
      "start": 5.8351,
      "duration": 0.0079,
      "velocity": 111,
      "chip": "ym2612"
    },
    {
      "channel": 2,
      "note": 71,
      "start": 5.8429,
      "duration": 0.0093,
      "velocity": 111,
      "chip": "ym2612"
    },
    {
      "channel": 3,
      "note": 66,
      "start": 5.8432,
      "duration": 0.0093,
      "velocity": 111,
      "chip": "ym2612"
    },
    {
      "channel": 0,
      "note": 69,
      "start": 5.8519,
      "duration": 0.3595,
      "velocity": 106,
      "chip": "ym2612"
    },
    {
      "channel": 1,
      "note": 47,
      "start": 5.8522,
      "duration": 0.1093,
      "velocity": 103,
      "chip": "ym2612"
    },
    {
      "channel": 2,
      "note": 71,
      "start": 5.8524,
      "duration": 0.0425,
      "velocity": 111,
      "chip": "ym2612"
    },
    {
      "channel": 3,
      "note": 66,
      "start": 5.8527,
      "duration": 0.0424,
      "velocity": 111,
      "chip": "ym2612"
    },
    {
      "channel": 4,
      "note": 69,
      "start": 5.8571,
      "duration": 0.4381,
      "velocity": 106,
      "chip": "ym2612"
    },
    {
      "channel": 2,
      "note": 71,
      "start": 5.8951,
      "duration": 0.1498,
      "velocity": 111,
      "chip": "ym2612"
    },
    {
      "channel": 3,
      "note": 66,
      "start": 5.8954,
      "duration": 0.1498,
      "velocity": 111,
      "chip": "ym2612"
    },
    {
      "channel": 2,
      "note": 71,
      "start": 6.0451,
      "duration": 0.1668,
      "velocity": 111,
      "chip": "ym2612"
    },
    {
      "channel": 3,
      "note": 66,
      "start": 6.0454,
      "duration": 0.1668,
      "velocity": 111,
      "chip": "ym2612"
    },
    {
      "channel": 0,
      "note": 68,
      "start": 6.2116,
      "duration": 0.4833,
      "velocity": 106,
      "chip": "ym2612"
    },
    {
      "channel": 1,
      "note": 47,
      "start": 6.2118,
      "duration": 0.233,
      "velocity": 103,
      "chip": "ym2612"
    },
    {
      "channel": 2,
      "note": 71,
      "start": 6.2122,
      "duration": 0.1494,
      "velocity": 111,
      "chip": "ym2612"
    },
    {
      "channel": 3,
      "note": 66,
      "start": 6.2125,
      "duration": 0.1494,
      "velocity": 111,
      "chip": "ym2612"
    },
    {
      "channel": 4,
      "note": 68,
      "start": 6.2954,
      "duration": 0.4665,
      "velocity": 106,
      "chip": "ym2612"
    },
    {
      "channel": 2,
      "note": 71,
      "start": 6.3618,
      "duration": 0.1665,
      "velocity": 111,
      "chip": "ym2612"
    },
    {
      "channel": 3,
      "note": 66,
      "start": 6.3621,
      "duration": 0.1664,
      "velocity": 111,
      "chip": "ym2612"
    },
    {
      "channel": 2,
      "note": 71,
      "start": 6.5284,
      "duration": 0.167,
      "velocity": 111,
      "chip": "ym2612"
    },
    {
      "channel": 3,
      "note": 66,
      "start": 6.5288,
      "duration": 0.1671,
      "velocity": 111,
      "chip": "ym2612"
    },
    {
      "channel": 0,
      "note": 73,
      "start": 6.695,
      "duration": 0.4665,
      "velocity": 106,
      "chip": "ym2612"
    },
    {
      "channel": 1,
      "note": 49,
      "start": 6.6954,
      "duration": 0.2328,
      "velocity": 103,
      "chip": "ym2612"
    },
    {
      "channel": 2,
      "note": 73,
      "start": 6.6957,
      "duration": 0.1492,
      "velocity": 111,
      "chip": "ym2612"
    },
    {
      "channel": 3,
      "note": 68,
      "start": 6.696,
      "duration": 0.1492,
      "velocity": 111,
      "chip": "ym2612"
    },
    {
      "channel": 4,
      "note": 73,
      "start": 6.7621,
      "duration": 0.4049,
      "velocity": 106,
      "chip": "ym2612"
    },
    {
      "channel": 2,
      "note": 73,
      "start": 6.8451,
      "duration": 0.1665,
      "velocity": 111,
      "chip": "ym2612"
    },
    {
      "channel": 3,
      "note": 68,
      "start": 6.8454,
      "duration": 0.1664,
      "velocity": 111,
      "chip": "ym2612"
    },
    {
      "channel": 2,
      "note": 73,
      "start": 7.0118,
      "duration": 0.1502,
      "velocity": 111,
      "chip": "ym2612"
    },
    {
      "channel": 3,
      "note": 68,
      "start": 7.0121,
      "duration": 0.1501,
      "velocity": 111,
      "chip": "ym2612"
    },
    {
      "channel": 0,
      "note": 78,
      "start": 7.1618,
      "duration": 0.0256,
      "velocity": 106,
      "chip": "ym2612"
    },
    {
      "channel": 1,
      "note": 49,
      "start": 7.1619,
      "duration": 0.0135,
      "velocity": 103,
      "chip": "ym2612"
    },
    {
      "channel": 2,
      "note": 73,
      "start": 7.1621,
      "duration": 0.0089,
      "velocity": 111,
      "chip": "ym2612"
    },
    {
      "channel": 3,
      "note": 68,
      "start": 7.1623,
      "duration": 0.009,
      "velocity": 111,
      "chip": "ym2612"
    },
    {
      "channel": 4,
      "note": 78,
      "start": 7.1671,
      "duration": 0.0254,
      "velocity": 106,
      "chip": "ym2612"
    },
    {
      "channel": 2,
      "note": 73,
      "start": 7.1712,
      "duration": 0.0083,
      "velocity": 111,
      "chip": "ym2612"
    },
    {
      "channel": 3,
      "note": 68,
      "start": 7.1715,
      "duration": 0.0083,
      "velocity": 111,
      "chip": "ym2612"
    },
    {
      "channel": 2,
      "note": 73,
      "start": 7.1797,
      "duration": 0.008,
      "velocity": 111,
      "chip": "ym2612"
    },
    {
      "channel": 3,
      "note": 68,
      "start": 7.1799,
      "duration": 0.008,
      "velocity": 111,
      "chip": "ym2612"
    },
    {
      "channel": 0,
      "note": 76,
      "start": 7.1875,
      "duration": 0.3597,
      "velocity": 106,
      "chip": "ym2612"
    },
    {
      "channel": 1,
      "note": 49,
      "start": 7.1876,
      "duration": 0.1264,
      "velocity": 103,
      "chip": "ym2612"
    },
    {
      "channel": 2,
      "note": 73,
      "start": 7.1878,
      "duration": 0.0429,
      "velocity": 111,
      "chip": "ym2612"
    },
    {
      "channel": 3,
      "note": 68,
      "start": 7.188,
      "duration": 0.0429,
      "velocity": 111,
      "chip": "ym2612"
    },
    {
      "channel": 4,
      "note": 76,
      "start": 7.1928,
      "duration": 0.4382,
      "velocity": 106,
      "chip": "ym2612"
    },
    {
      "channel": 2,
      "note": 73,
      "start": 7.2309,
      "duration": 0.1498,
      "velocity": 111,
      "chip": "ym2612"
    },
    {
      "channel": 3,
      "note": 68,
      "start": 7.2312,
      "duration": 0.1498,
      "velocity": 111,
      "chip": "ym2612"
    },
    {
      "channel": 2,
      "note": 73,
      "start": 7.3809,
      "duration": 0.1668,
      "velocity": 111,
      "chip": "ym2612"
    },
    {
      "channel": 3,
      "note": 68,
      "start": 7.3812,
      "duration": 0.1668,
      "velocity": 111,
      "chip": "ym2612"
    },
    {
      "channel": 0,
      "note": 75,
      "start": 7.5473,
      "duration": 0.1665,
      "velocity": 106,
      "chip": "ym2612"
    },
    {
      "channel": 1,
      "note": 49,
      "start": 7.5477,
      "duration": 0.233,
      "velocity": 103,
      "chip": "ym2612"
    },
    {
      "channel": 2,
      "note": 73,
      "start": 7.548,
      "duration": 0.1662,
      "velocity": 111,
      "chip": "ym2612"
    },
    {
      "channel": 3,
      "note": 68,
      "start": 7.5483,
      "duration": 0.1661,
      "velocity": 111,
      "chip": "ym2612"
    },
    {
      "channel": 4,
      "note": 75,
      "start": 7.6312,
      "duration": 0.1499,
      "velocity": 106,
      "chip": "ym2612"
    },
    {
      "channel": 0,
      "note": 73,
      "start": 7.714,
      "duration": 0.1498,
      "velocity": 106,
      "chip": "ym2612"
    },
    {
      "channel": 2,
      "note": 73,
      "start": 7.7143,
      "duration": 0.1498,
      "velocity": 111,
      "chip": "ym2612"
    },
    {
      "channel": 3,
      "note": 68,
      "start": 7.7146,
      "duration": 0.1498,
      "velocity": 111,
      "chip": "ym2612"
    },
    {
      "channel": 4,
      "note": 73,
      "start": 7.7813,
      "duration": 0.1663,
      "velocity": 106,
      "chip": "ym2612"
    },
    {
      "channel": 0,
      "note": 75,
      "start": 7.864,
      "duration": 0.1666,
      "velocity": 106,
      "chip": "ym2612"
    },
    {
      "channel": 2,
      "note": 73,
      "start": 7.8643,
      "duration": 0.1669,
      "velocity": 111,
      "chip": "ym2612"
    },
    {
      "channel": 3,
      "note": 68,
      "start": 7.8646,
      "duration": 0.1669,
      "velocity": 111,
      "chip": "ym2612"
    },
    {
      "channel": 4,
      "note": 75,
      "start": 7.9479,
      "duration": 0.1665,
      "velocity": 106,
      "chip": "ym2612"
    },
    {
      "channel": 0,
      "note": 71,
      "start": 8.0308,
      "duration": 0.4832,
      "velocity": 106,
      "chip": "ym2612"
    },
    {
      "channel": 1,
      "note": 49,
      "start": 8.0311,
      "duration": 0.2328,
      "velocity": 103,
      "chip": "ym2612"
    },
    {
      "channel": 2,
      "note": 73,
      "start": 8.0315,
      "duration": 0.1492,
      "velocity": 111,
      "chip": "ym2612"
    },
    {
      "channel": 3,
      "note": 68,
      "start": 8.0318,
      "duration": 0.1492,
      "velocity": 111,
      "chip": "ym2612"
    },
    {
      "channel": 4,
      "note": 71,
      "start": 8.1145,
      "duration": 0.4039,
      "velocity": 106,
      "chip": "ym2612"
    },
    {
      "channel": 2,
      "note": 73,
      "start": 8.1809,
      "duration": 0.1665,
      "velocity": 111,
      "chip": "ym2612"
    },
    {
      "channel": 3,
      "note": 68,
      "start": 8.1812,
      "duration": 0.1664,
      "velocity": 111,
      "chip": "ym2612"
    },
    {
      "channel": 2,
      "note": 73,
      "start": 8.3476,
      "duration": 0.1669,
      "velocity": 111,
      "chip": "ym2612"
    },
    {
      "channel": 3,
      "note": 68,
      "start": 8.3479,
      "duration": 0.1668,
      "velocity": 111,
      "chip": "ym2612"
    },
    {
      "channel": 0,
      "note": 66,
      "start": 8.5142,
      "duration": 0.0256,
      "velocity": 106,
      "chip": "ym2612"
    },
    {
      "channel": 1,
      "note": 49,
      "start": 8.5144,
      "duration": 0.0129,
      "velocity": 103,
      "chip": "ym2612"
    },
    {
      "channel": 2,
      "note": 76,
      "start": 8.5146,
      "duration": 0.008,
      "velocity": 111,
      "chip": "ym2612"
    },
    {
      "channel": 3,
      "note": 71,
      "start": 8.5148,
      "duration": 0.008,
      "velocity": 111,
      "chip": "ym2612"
    },
    {
      "channel": 4,
      "note": 66,
      "start": 8.5185,
      "duration": 0.0267,
      "velocity": 106,
      "chip": "ym2612"
    },
    {
      "channel": 2,
      "note": 76,
      "start": 8.5228,
      "duration": 0.0089,
      "velocity": 111,
      "chip": "ym2612"
    },
    {
      "channel": 3,
      "note": 71,
      "start": 8.5231,
      "duration": 0.0088,
      "velocity": 111,
      "chip": "ym2612"
    },
    {
      "channel": 2,
      "note": 76,
      "start": 8.5318,
      "duration": 0.0085,
      "velocity": 111,
      "chip": "ym2612"
    },
    {
      "channel": 3,
      "note": 71,
      "start": 8.5321,
      "duration": 0.0085,
      "velocity": 111,
      "chip": "ym2612"
    },
    {
      "channel": 0,
      "note": 68,
      "start": 8.5399,
      "duration": 0.3439,
      "velocity": 106,
      "chip": "ym2612"
    },
    {
      "channel": 1,
      "note": 49,
      "start": 8.5402,
      "duration": 0.1104,
      "velocity": 103,
      "chip": "ym2612"
    },
    {
      "channel": 2,
      "note": 75,
      "start": 8.5406,
      "duration": 0.0268,
      "velocity": 111,
      "chip": "ym2612"
    },
    {
      "channel": 3,
      "note": 70,
      "start": 8.5408,
      "duration": 0.0268,
      "velocity": 111,
      "chip": "ym2612"
    },
    {
      "channel": 4,
      "note": 68,
      "start": 8.5454,
      "duration": 0.4223,
      "velocity": 106,
      "chip": "ym2612"
    },
    {
      "channel": 2,
      "note": 75,
      "start": 8.5676,
      "duration": 0.1665,
      "velocity": 111,
      "chip": "ym2612"
    },
    {
      "channel": 3,
      "note": 70,
      "start": 8.5679,
      "duration": 0.1664,
      "velocity": 111,
      "chip": "ym2612"
    },
    {
      "channel": 2,
      "note": 75,
      "start": 8.7342,
      "duration": 0.1502,
      "velocity": 111,
      "chip": "ym2612"
    },
    {
      "channel": 3,
      "note": 70,
      "start": 8.7345,
      "duration": 0.1502,
      "velocity": 111,
      "chip": "ym2612"
    },
    {
      "channel": 0,
      "note": 68,
      "start": 8.884,
      "duration": 0.4833,
      "velocity": 106,
      "chip": "ym2612"
    },
    {
      "channel": 1,
      "note": 49,
      "start": 8.8843,
      "duration": 0.2496,
      "velocity": 103,
      "chip": "ym2612"
    },
    {
      "channel": 2,
      "note": 78,
      "start": 8.8846,
      "duration": 0.166,
      "velocity": 111,
      "chip": "ym2612"
    },
    {
      "channel": 3,
      "note": 73,
      "start": 8.8849,
      "duration": 0.166,
      "velocity": 111,
      "chip": "ym2612"
    },
    {
      "channel": 4,
      "note": 68,
      "start": 8.9679,
      "duration": 0.4831,
      "velocity": 106,
      "chip": "ym2612"
    },
    {
      "channel": 2,
      "note": 78,
      "start": 9.0509,
      "duration": 0.1498,
      "velocity": 111,
      "chip": "ym2612"
    },
    {
      "channel": 3,
      "note": 73,
      "start": 9.0512,
      "duration": 0.1498,
      "velocity": 111,
      "chip": "ym2612"
    },
    {
      "channel": 2,
      "note": 78,
      "start": 9.2009,
      "duration": 0.1671,
      "velocity": 111,
      "chip": "ym2612"
    },
    {
      "channel": 3,
      "note": 73,
      "start": 9.2012,
      "duration": 0.1671,
      "velocity": 111,
      "chip": "ym2612"
    },
    {
      "channel": 0,
      "note": 69,
      "start": 9.3675,
      "duration": 0.4832,
      "velocity": 106,
      "chip": "ym2612"
    },
    {
      "channel": 1,
      "note": 45,
      "start": 9.3678,
      "duration": 0.2328,
      "velocity": 103,
      "chip": "ym2612"
    },
    {
      "channel": 2,
      "note": 69,
      "start": 9.3681,
      "duration": 0.1659,
      "velocity": 111,
      "chip": "ym2612"
    },
    {
      "channel": 3,
      "note": 64,
      "start": 9.3684,
      "duration": 0.166,
      "velocity": 111,
      "chip": "ym2612"
    },
    {
      "channel": 4,
      "note": 69,
      "start": 9.4512,
      "duration": 0.405,
      "velocity": 106,
      "chip": "ym2612"
    },
    {
      "channel": 2,
      "note": 69,
      "start": 9.5343,
      "duration": 0.1497,
      "velocity": 111,
      "chip": "ym2612"
    },
    {
      "channel": 3,
      "note": 64,
      "start": 9.5346,
      "duration": 0.1497,
      "velocity": 111,
      "chip": "ym2612"
    },
    {
      "channel": 2,
      "note": 69,
      "start": 9.6843,
      "duration": 0.167,
      "velocity": 111,
      "chip": "ym2612"
    },
    {
      "channel": 3,
      "note": 64,
      "start": 9.6846,
      "duration": 0.167,
      "velocity": 111,
      "chip": "ym2612"
    },
    {
      "channel": 0,
      "note": 76,
      "start": 9.8509,
      "duration": 0.8529,
      "velocity": 106,
      "chip": "ym2612"
    },
    {
      "channel": 1,
      "note": 45,
      "start": 9.8512,
      "duration": 0.013,
      "velocity": 103,
      "chip": "ym2612"
    },
    {
      "channel": 2,
      "note": 69,
      "start": 9.8515,
      "duration": 0.0082,
      "velocity": 111,
      "chip": "ym2612"
    },
    {
      "channel": 3,
      "note": 64,
      "start": 9.8518,
      "duration": 0.008,
      "velocity": 111,
      "chip": "ym2612"
    },
    {
      "channel": 4,
      "note": 76,
      "start": 9.8563,
      "duration": 0.9312,
      "velocity": 106,
      "chip": "ym2612"
    },
    {
      "channel": 2,
      "note": 69,
      "start": 9.8598,
      "duration": 0.0088,
      "velocity": 111,
      "chip": "ym2612"
    },
    {
      "channel": 3,
      "note": 64,
      "start": 9.86,
      "duration": 0.0088,
      "velocity": 111,
      "chip": "ym2612"
    },
    {
      "channel": 2,
      "note": 69,
      "start": 9.8688,
      "duration": 0.0086,
      "velocity": 111,
      "chip": "ym2612"
    },
    {
      "channel": 3,
      "note": 64,
      "start": 9.869,
      "duration": 0.0087,
      "velocity": 111,
      "chip": "ym2612"
    },
    {
      "channel": 1,
      "note": 45,
      "start": 9.8774,
      "duration": 0.1096,
      "velocity": 103,
      "chip": "ym2612"
    },
    {
      "channel": 2,
      "note": 69,
      "start": 9.8776,
      "duration": 0.0262,
      "velocity": 111,
      "chip": "ym2612"
    },
    {
      "channel": 3,
      "note": 64,
      "start": 9.8779,
      "duration": 0.0261,
      "velocity": 111,
      "chip": "ym2612"
    },
    {
      "channel": 2,
      "note": 69,
      "start": 9.904,
      "duration": 0.1664,
      "velocity": 111,
      "chip": "ym2612"
    },
    {
      "channel": 3,
      "note": 64,
      "start": 9.9043,
      "duration": 0.1664,
      "velocity": 111,
      "chip": "ym2612"
    },
    {
      "channel": 2,
      "note": 69,
      "start": 10.0707,
      "duration": 0.15,
      "velocity": 111,
      "chip": "ym2612"
    },
    {
      "channel": 3,
      "note": 64,
      "start": 10.071,
      "duration": 0.15,
      "velocity": 111,
      "chip": "ym2612"
    },
    {
      "channel": 1,
      "note": 45,
      "start": 10.2206,
      "duration": 0.2498,
      "velocity": 103,
      "chip": "ym2612"
    },
    {
      "channel": 2,
      "note": 69,
      "start": 10.2209,
      "duration": 0.1661,
      "velocity": 111,
      "chip": "ym2612"
    },
    {
      "channel": 3,
      "note": 64,
      "start": 10.2213,
      "duration": 0.1661,
      "velocity": 111,
      "chip": "ym2612"
    },
    {
      "channel": 2,
      "note": 69,
      "start": 10.3873,
      "duration": 0.1664,
      "velocity": 111,
      "chip": "ym2612"
    },
    {
      "channel": 3,
      "note": 64,
      "start": 10.3876,
      "duration": 0.1664,
      "velocity": 111,
      "chip": "ym2612"
    },
    {
      "channel": 2,
      "note": 69,
      "start": 10.554,
      "duration": 0.1502,
      "velocity": 111,
      "chip": "ym2612"
    },
    {
      "channel": 3,
      "note": 64,
      "start": 10.5543,
      "duration": 0.1502,
      "velocity": 111,
      "chip": "ym2612"
    },
    {
      "channel": 0,
      "note": 76,
      "start": 10.7038,
      "duration": 0.8692,
      "velocity": 106,
      "chip": "ym2612"
    },
    {
      "channel": 1,
      "note": 45,
      "start": 10.7041,
      "duration": 0.2496,
      "velocity": 103,
      "chip": "ym2612"
    },
    {
      "channel": 2,
      "note": 69,
      "start": 10.7045,
      "duration": 0.1659,
      "velocity": 111,
      "chip": "ym2612"
    },
    {
      "channel": 3,
      "note": 64,
      "start": 10.7048,
      "duration": 0.1659,
      "velocity": 111,
      "chip": "ym2612"
    },
    {
      "channel": 4,
      "note": 76,
      "start": 10.7875,
      "duration": 0.8526,
      "velocity": 106,
      "chip": "ym2612"
    },
    {
      "channel": 2,
      "note": 69,
      "start": 10.8707,
      "duration": 0.1497,
      "velocity": 111,
      "chip": "ym2612"
    },
    {
      "channel": 3,
      "note": 64,
      "start": 10.871,
      "duration": 0.1497,
      "velocity": 111,
      "chip": "ym2612"
    },
    {
      "channel": 2,
      "note": 69,
      "start": 11.0207,
      "duration": 0.1668,
      "velocity": 111,
      "chip": "ym2612"
    },
    {
      "channel": 3,
      "note": 64,
      "start": 11.021,
      "duration": 0.1668,
      "velocity": 111,
      "chip": "ym2612"
    },
    {
      "channel": 1,
      "note": 45,
      "start": 11.1874,
      "duration": 0.0127,
      "velocity": 103,
      "chip": "ym2612"
    },
    {
      "channel": 2,
      "note": 69,
      "start": 11.1877,
      "duration": 0.0085,
      "velocity": 111,
      "chip": "ym2612"
    },
    {
      "channel": 3,
      "note": 64,
      "start": 11.1879,
      "duration": 0.0084,
      "velocity": 111,
      "chip": "ym2612"
    },
    {
      "channel": 2,
      "note": 69,
      "start": 11.1963,
      "duration": 0.0083,
      "velocity": 111,
      "chip": "ym2612"
    },
    {
      "channel": 3,
      "note": 64,
      "start": 11.1966,
      "duration": 0.0083,
      "velocity": 111,
      "chip": "ym2612"
    },
    {
      "channel": 2,
      "note": 69,
      "start": 11.2048,
      "duration": 0.009,
      "velocity": 111,
      "chip": "ym2612"
    },
    {
      "channel": 3,
      "note": 64,
      "start": 11.2051,
      "duration": 0.0089,
      "velocity": 111,
      "chip": "ym2612"
    },
    {
      "channel": 1,
      "note": 45,
      "start": 11.2137,
      "duration": 0.1094,
      "velocity": 103,
      "chip": "ym2612"
    },
    {
      "channel": 2,
      "note": 69,
      "start": 11.2139,
      "duration": 0.0259,
      "velocity": 111,
      "chip": "ym2612"
    },
    {
      "channel": 3,
      "note": 64,
      "start": 11.2142,
      "duration": 0.0259,
      "velocity": 111,
      "chip": "ym2612"
    },
    {
      "channel": 2,
      "note": 69,
      "start": 11.2401,
      "duration": 0.1664,
      "velocity": 111,
      "chip": "ym2612"
    },
    {
      "channel": 3,
      "note": 64,
      "start": 11.2404,
      "duration": 0.1664,
      "velocity": 111,
      "chip": "ym2612"
    },
    {
      "channel": 2,
      "note": 69,
      "start": 11.4067,
      "duration": 0.1668,
      "velocity": 111,
      "chip": "ym2612"
    },
    {
      "channel": 3,
      "note": 64,
      "start": 11.4071,
      "duration": 0.1668,
      "velocity": 111,
      "chip": "ym2612"
    },
    {
      "channel": 0,
      "note": 69,
      "start": 11.5731,
      "duration": 0.4666,
      "velocity": 106,
      "chip": "ym2612"
    },
    {
      "channel": 1,
      "note": 45,
      "start": 11.5734,
      "duration": 0.233,
      "velocity": 103,
      "chip": "ym2612"
    },
    {
      "channel": 2,
      "note": 69,
      "start": 11.5738,
      "duration": 0.1493,
      "velocity": 111,
      "chip": "ym2612"
    },
    {
      "channel": 3,
      "note": 64,
      "start": 11.5741,
      "duration": 0.1493,
      "velocity": 111,
      "chip": "ym2612"
    },
    {
      "channel": 4,
      "note": 69,
      "start": 11.6403,
      "duration": 0.4831,
      "velocity": 106,
      "chip": "ym2612"
    },
    {
      "channel": 2,
      "note": 69,
      "start": 11.7234,
      "duration": 0.1664,
      "velocity": 111,
      "chip": "ym2612"
    },
    {
      "channel": 3,
      "note": 64,
      "start": 11.7237,
      "duration": 0.1664,
      "velocity": 111,
      "chip": "ym2612"
    },
    {
      "channel": 2,
      "note": 69,
      "start": 11.8901,
      "duration": 0.1503,
      "velocity": 111,
      "chip": "ym2612"
    },
    {
      "channel": 3,
      "note": 64,
      "start": 11.8904,
      "duration": 0.1503,
      "velocity": 111,
      "chip": "ym2612"
    },
    {
      "channel": 0,
      "note": 71,
      "start": 12.0399,
      "duration": 0.4832,
      "velocity": 106,
      "chip": "ym2612"
    },
    {
      "channel": 1,
      "note": 47,
      "start": 12.0402,
      "duration": 0.2495,
      "velocity": 103,
      "chip": "ym2612"
    },
    {
      "channel": 2,
      "note": 71,
      "start": 12.0406,
      "duration": 0.1659,
      "velocity": 111,
      "chip": "ym2612"
    },
    {
      "channel": 3,
      "note": 66,
      "start": 12.041,
      "duration": 0.1658,
      "velocity": 111,
      "chip": "ym2612"
    },
    {
      "channel": 4,
      "note": 71,
      "start": 12.1237,
      "duration": 0.4048,
      "velocity": 106,
      "chip": "ym2612"
    },
    {
      "channel": 2,
      "note": 71,
      "start": 12.2067,
      "duration": 0.1665,
      "velocity": 111,
      "chip": "ym2612"
    },
    {
      "channel": 3,
      "note": 66,
      "start": 12.207,
      "duration": 0.1664,
      "velocity": 111,
      "chip": "ym2612"
    },
    {
      "channel": 2,
      "note": 71,
      "start": 12.3733,
      "duration": 0.1503,
      "velocity": 111,
      "chip": "ym2612"
    },
    {
      "channel": 3,
      "note": 66,
      "start": 12.3737,
      "duration": 0.1502,
      "velocity": 111,
      "chip": "ym2612"
    },
    {
      "channel": 0,
      "note": 78,
      "start": 12.5234,
      "duration": 0.8692,
      "velocity": 106,
      "chip": "ym2612"
    },
    {
      "channel": 1,
      "note": 47,
      "start": 12.5236,
      "duration": 0.0136,
      "velocity": 103,
      "chip": "ym2612"
    },
    {
      "channel": 2,
      "note": 71,
      "start": 12.5238,
      "duration": 0.0089,
      "velocity": 111,
      "chip": "ym2612"
    },
    {
      "channel": 3,
      "note": 66,
      "start": 12.5239,
      "duration": 0.009,
      "velocity": 111,
      "chip": "ym2612"
    },
    {
      "channel": 4,
      "note": 78,
      "start": 12.5287,
      "duration": 0.9308,
      "velocity": 106,
      "chip": "ym2612"
    },
    {
      "channel": 2,
      "note": 71,
      "start": 12.5329,
      "duration": 0.0079,
      "velocity": 111,
      "chip": "ym2612"
    },
    {
      "channel": 3,
      "note": 66,
      "start": 12.5332,
      "duration": 0.0078,
      "velocity": 111,
      "chip": "ym2612"
    },
    {
      "channel": 2,
      "note": 71,
      "start": 12.541,
      "duration": 0.009,
      "velocity": 111,
      "chip": "ym2612"
    },
    {
      "channel": 3,
      "note": 66,
      "start": 12.5413,
      "duration": 0.0089,
      "velocity": 111,
      "chip": "ym2612"
    },
    {
      "channel": 1,
      "note": 47,
      "start": 12.5499,
      "duration": 0.1093,
      "velocity": 103,
      "chip": "ym2612"
    },
    {
      "channel": 2,
      "note": 71,
      "start": 12.5501,
      "duration": 0.0425,
      "velocity": 111,
      "chip": "ym2612"
    },
    {
      "channel": 3,
      "note": 66,
      "start": 12.5503,
      "duration": 0.0425,
      "velocity": 111,
      "chip": "ym2612"
    },
    {
      "channel": 2,
      "note": 71,
      "start": 12.5928,
      "duration": 0.1498,
      "velocity": 111,
      "chip": "ym2612"
    },
    {
      "channel": 3,
      "note": 66,
      "start": 12.5931,
      "duration": 0.1498,
      "velocity": 111,
      "chip": "ym2612"
    },
    {
      "channel": 2,
      "note": 71,
      "start": 12.7428,
      "duration": 0.1667,
      "velocity": 111,
      "chip": "ym2612"
    },
    {
      "channel": 3,
      "note": 66,
      "start": 12.7431,
      "duration": 0.1667,
      "velocity": 111,
      "chip": "ym2612"
    },
    {
      "channel": 1,
      "note": 47,
      "start": 12.9094,
      "duration": 0.2332,
      "velocity": 103,
      "chip": "ym2612"
    },
    {
      "channel": 2,
      "note": 71,
      "start": 12.9097,
      "duration": 0.1495,
      "velocity": 111,
      "chip": "ym2612"
    },
    {
      "channel": 3,
      "note": 66,
      "start": 12.91,
      "duration": 0.1496,
      "velocity": 111,
      "chip": "ym2612"
    },
    {
      "channel": 2,
      "note": 71,
      "start": 13.0595,
      "duration": 0.1665,
      "velocity": 111,
      "chip": "ym2612"
    },
    {
      "channel": 3,
      "note": 66,
      "start": 13.0598,
      "duration": 0.1664,
      "velocity": 111,
      "chip": "ym2612"
    },
    {
      "channel": 2,
      "note": 71,
      "start": 13.2261,
      "duration": 0.167,
      "velocity": 111,
      "chip": "ym2612"
    },
    {
      "channel": 3,
      "note": 66,
      "start": 13.2264,
      "duration": 0.167,
      "velocity": 111,
      "chip": "ym2612"
    },
    {
      "channel": 0,
      "note": 75,
      "start": 13.3928,
      "duration": 0.8529,
      "velocity": 106,
      "chip": "ym2612"
    },
    {
      "channel": 1,
      "note": 44,
      "start": 13.393,
      "duration": 0.2328,
      "velocity": 103,
      "chip": "ym2612"
    },
    {
      "channel": 2,
      "note": 68,
      "start": 13.3934,
      "duration": 0.1492,
      "velocity": 111,
      "chip": "ym2612"
    },
    {
      "channel": 3,
      "note": 63,
      "start": 13.3936,
      "duration": 0.1493,
      "velocity": 111,
      "chip": "ym2612"
    },
    {
      "channel": 4,
      "note": 75,
      "start": 13.4598,
      "duration": 0.8696,
      "velocity": 106,
      "chip": "ym2612"
    },
    {
      "channel": 2,
      "note": 68,
      "start": 13.5428,
      "duration": 0.1665,
      "velocity": 111,
      "chip": "ym2612"
    },
    {
      "channel": 3,
      "note": 63,
      "start": 13.5431,
      "duration": 0.1664,
      "velocity": 111,
      "chip": "ym2612"
    },
    {
      "channel": 2,
      "note": 68,
      "start": 13.7095,
      "duration": 0.1502,
      "velocity": 111,
      "chip": "ym2612"
    },
    {
      "channel": 3,
      "note": 63,
      "start": 13.7098,
      "duration": 0.1501,
      "velocity": 111,
      "chip": "ym2612"
    },
    {
      "channel": 1,
      "note": 44,
      "start": 13.8595,
      "duration": 0.014,
      "velocity": 103,
      "chip": "ym2612"
    },
    {
      "channel": 2,
      "note": 68,
      "start": 13.8598,
      "duration": 0.009,
      "velocity": 111,
      "chip": "ym2612"
    },
    {
      "channel": 3,
      "note": 63,
      "start": 13.8601,
      "duration": 0.009,
      "velocity": 111,
      "chip": "ym2612"
    },
    {
      "channel": 2,
      "note": 68,
      "start": 13.869,
      "duration": 0.009,
      "velocity": 111,
      "chip": "ym2612"
    },
    {
      "channel": 3,
      "note": 63,
      "start": 13.8692,
      "duration": 0.009,
      "velocity": 111,
      "chip": "ym2612"
    },
    {
      "channel": 2,
      "note": 68,
      "start": 13.8781,
      "duration": 0.0081,
      "velocity": 111,
      "chip": "ym2612"
    },
    {
      "channel": 3,
      "note": 63,
      "start": 13.8784,
      "duration": 0.0081,
      "velocity": 111,
      "chip": "ym2612"
    },
    {
      "channel": 1,
      "note": 44,
      "start": 13.8862,
      "duration": 0.1263,
      "velocity": 103,
      "chip": "ym2612"
    },
    {
      "channel": 2,
      "note": 68,
      "start": 13.8865,
      "duration": 0.0427,
      "velocity": 111,
      "chip": "ym2612"
    },
    {
      "channel": 3,
      "note": 63,
      "start": 13.8867,
      "duration": 0.0427,
      "velocity": 111,
      "chip": "ym2612"
    },
    {
      "channel": 2,
      "note": 69,
      "start": 13.9294,
      "duration": 0.1498,
      "velocity": 111,
      "chip": "ym2612"
    },
    {
      "channel": 3,
      "note": 64,
      "start": 13.9297,
      "duration": 0.1498,
      "velocity": 111,
      "chip": "ym2612"
    },
    {
      "channel": 2,
      "note": 70,
      "start": 14.0794,
      "duration": 0.1668,
      "velocity": 111,
      "chip": "ym2612"
    },
    {
      "channel": 3,
      "note": 65,
      "start": 14.0797,
      "duration": 0.1668,
      "velocity": 111,
      "chip": "ym2612"
    },
    {
      "channel": 0,
      "note": 68,
      "start": 14.2458,
      "duration": 0.4833,
      "velocity": 106,
      "chip": "ym2612"
    },
    {
      "channel": 1,
      "note": 44,
      "start": 14.2461,
      "duration": 0.233,
      "velocity": 103,
      "chip": "ym2612"
    },
    {
      "channel": 2,
      "note": 71,
      "start": 14.2464,
      "duration": 0.1661,
      "velocity": 111,
      "chip": "ym2612"
    },
    {
      "channel": 3,
      "note": 66,
      "start": 14.2467,
      "duration": 0.166,
      "velocity": 111,
      "chip": "ym2612"
    },
    {
      "channel": 4,
      "note": 68,
      "start": 14.3297,
      "duration": 0.4831,
      "velocity": 106,
      "chip": "ym2612"
    },
    {
      "channel": 2,
      "note": 72,
      "start": 14.4127,
      "duration": 0.1498,
      "velocity": 111,
      "chip": "ym2612"
    },
    {
      "channel": 3,
      "note": 67,
      "start": 14.413,
      "duration": 0.1498,
      "velocity": 111,
      "chip": "ym2612"
    },
    {
      "channel": 2,
      "note": 73,
      "start": 14.5627,
      "duration": 0.1671,
      "velocity": 111,
      "chip": "ym2612"
    },
    {
      "channel": 3,
      "note": 68,
      "start": 14.563,
      "duration": 0.1672,
      "velocity": 111,
      "chip": "ym2612"
    },
    {
      "channel": 0,
      "note": 73,
      "start": 14.7294,
      "duration": 0.4831,
      "velocity": 106,
      "chip": "ym2612"
    },
    {
      "channel": 1,
      "note": 49,
      "start": 14.7297,
      "duration": 0.2328,
      "velocity": 103,
      "chip": "ym2612"
    },
    {
      "channel": 2,
      "note": 73,
      "start": 14.7301,
      "duration": 0.1491,
      "velocity": 111,
      "chip": "ym2612"
    },
    {
      "channel": 3,
      "note": 68,
      "start": 14.7304,
      "duration": 0.149,
      "velocity": 111,
      "chip": "ym2612"
    },
    {
      "channel": 4,
      "note": 73,
      "start": 14.8131,
      "duration": 0.4041,
      "velocity": 106,
      "chip": "ym2612"
    },
    {
      "channel": 2,
      "note": 73,
      "start": 14.8794,
      "duration": 0.1665,
      "velocity": 111,
      "chip": "ym2612"
    },
    {
      "channel": 3,
      "note": 68,
      "start": 14.8797,
      "duration": 0.1664,
      "velocity": 111,
      "chip": "ym2612"
    },
    {
      "channel": 2,
      "note": 73,
      "start": 15.046,
      "duration": 0.1669,
      "velocity": 111,
      "chip": "ym2612"
    },
    {
      "channel": 3,
      "note": 68,
      "start": 15.0463,
      "duration": 0.1668,
      "velocity": 111,
      "chip": "ym2612"
    },
    {
      "channel": 0,
      "note": 78,
      "start": 15.2127,
      "duration": 0.0258,
      "velocity": 106,
      "chip": "ym2612"
    },
    {
      "channel": 1,
      "note": 49,
      "start": 15.2129,
      "duration": 0.0131,
      "velocity": 103,
      "chip": "ym2612"
    },
    {
      "channel": 2,
      "note": 73,
      "start": 15.2131,
      "duration": 0.0083,
      "velocity": 111,
      "chip": "ym2612"
    },
    {
      "channel": 3,
      "note": 68,
      "start": 15.2132,
      "duration": 0.0083,
      "velocity": 111,
      "chip": "ym2612"
    },
    {
      "channel": 4,
      "note": 78,
      "start": 15.2173,
      "duration": 0.0267,
      "velocity": 106,
      "chip": "ym2612"
    },
    {
      "channel": 2,
      "note": 73,
      "start": 15.2215,
      "duration": 0.0089,
      "velocity": 111,
      "chip": "ym2612"
    },
    {
      "channel": 3,
      "note": 68,
      "start": 15.2218,
      "duration": 0.0088,
      "velocity": 111,
      "chip": "ym2612"
    },
    {
      "channel": 2,
      "note": 73,
      "start": 15.2306,
      "duration": 0.0085,
      "velocity": 111,
      "chip": "ym2612"
    },
    {
      "channel": 3,
      "note": 68,
      "start": 15.2308,
      "duration": 0.0085,
      "velocity": 111,
      "chip": "ym2612"
    },
    {
      "channel": 0,
      "note": 76,
      "start": 15.2386,
      "duration": 0.3439,
      "velocity": 106,
      "chip": "ym2612"
    },
    {
      "channel": 1,
      "note": 49,
      "start": 15.239,
      "duration": 0.1104,
      "velocity": 103,
      "chip": "ym2612"
    },
    {
      "channel": 2,
      "note": 73,
      "start": 15.2393,
      "duration": 0.0268,
      "velocity": 111,
      "chip": "ym2612"
    },
    {
      "channel": 3,
      "note": 68,
      "start": 15.2396,
      "duration": 0.0268,
      "velocity": 111,
      "chip": "ym2612"
    },
    {
      "channel": 4,
      "note": 76,
      "start": 15.2441,
      "duration": 0.4223,
      "velocity": 106,
      "chip": "ym2612"
    },
    {
      "channel": 2,
      "note": 73,
      "start": 15.2663,
      "duration": 0.1665,
      "velocity": 111,
      "chip": "ym2612"
    },
    {
      "channel": 3,
      "note": 68,
      "start": 15.2666,
      "duration": 0.1664,
      "velocity": 111,
      "chip": "ym2612"
    },
    {
      "channel": 2,
      "note": 73,
      "start": 15.4329,
      "duration": 0.1502,
      "velocity": 111,
      "chip": "ym2612"
    },
    {
      "channel": 3,
      "note": 68,
      "start": 15.4333,
      "duration": 0.1502,
      "velocity": 111,
      "chip": "ym2612"
    },
    {
      "channel": 0,
      "note": 75,
      "start": 15.5827,
      "duration": 0.1665,
      "velocity": 106,
      "chip": "ym2612"
    },
    {
      "channel": 1,
      "note": 49,
      "start": 15.5831,
      "duration": 0.2496,
      "velocity": 103,
      "chip": "ym2612"
    },
    {
      "channel": 2,
      "note": 73,
      "start": 15.5834,
      "duration": 0.1662,
      "velocity": 111,
      "chip": "ym2612"
    },
    {
      "channel": 3,
      "note": 68,
      "start": 15.5837,
      "duration": 0.1661,
      "velocity": 111,
      "chip": "ym2612"
    },
    {
      "channel": 4,
      "note": 75,
      "start": 15.6666,
      "duration": 0.1665,
      "velocity": 106,
      "chip": "ym2612"
    },
    {
      "channel": 0,
      "note": 73,
      "start": 15.7494,
      "duration": 0.1498,
      "velocity": 106,
      "chip": "ym2612"
    },
    {
      "channel": 2,
      "note": 73,
      "start": 15.7497,
      "duration": 0.1498,
      "velocity": 111,
      "chip": "ym2612"
    },
    {
      "channel": 3,
      "note": 68,
      "start": 15.75,
      "duration": 0.1498,
      "velocity": 111,
      "chip": "ym2612"
    },
    {
      "channel": 4,
      "note": 73,
      "start": 15.8334,
      "duration": 0.1497,
      "velocity": 106,
      "chip": "ym2612"
    },
    {
      "channel": 0,
      "note": 75,
      "start": 15.8994,
      "duration": 0.1666,
      "velocity": 106,
      "chip": "ym2612"
    },
    {
      "channel": 2,
      "note": 73,
      "start": 15.8997,
      "duration": 0.1669,
      "velocity": 111,
      "chip": "ym2612"
    },
    {
      "channel": 3,
      "note": 68,
      "start": 15.9,
      "duration": 0.1669,
      "velocity": 111,
      "chip": "ym2612"
    },
    {
      "channel": 4,
      "note": 75,
      "start": 15.9833,
      "duration": 0.1665,
      "velocity": 106,
      "chip": "ym2612"
    },
    {
      "channel": 0,
      "note": 71,
      "start": 16.0662,
      "duration": 0.4832,
      "velocity": 106,
      "chip": "ym2612"
    },
    {
      "channel": 1,
      "note": 49,
      "start": 16.0665,
      "duration": 0.2328,
      "velocity": 103,
      "chip": "ym2612"
    },
    {
      "channel": 2,
      "note": 73,
      "start": 16.0668,
      "duration": 0.1659,
      "velocity": 111,
      "chip": "ym2612"
    },
    {
      "channel": 3,
      "note": 68,
      "start": 16.0672,
      "duration": 0.1659,
      "velocity": 111,
      "chip": "ym2612"
    },
    {
      "channel": 4,
      "note": 71,
      "start": 16.1499,
      "duration": 0.4048,
      "velocity": 106,
      "chip": "ym2612"
    },
    {
      "channel": 2,
      "note": 73,
      "start": 16.2329,
      "duration": 0.1498,
      "velocity": 111,
      "chip": "ym2612"
    },
    {
      "channel": 3,
      "note": 68,
      "start": 16.2333,
      "duration": 0.1498,
      "velocity": 111,
      "chip": "ym2612"
    },
    {
      "channel": 2,
      "note": 73,
      "start": 16.3829,
      "duration": 0.167,
      "velocity": 111,
      "chip": "ym2612"
    },
    {
      "channel": 3,
      "note": 68,
      "start": 16.3833,
      "duration": 0.1669,
      "velocity": 111,
      "chip": "ym2612"
    },
    {
      "channel": 0,
      "note": 66,
      "start": 16.5496,
      "duration": 0.369,
      "velocity": 106,
      "chip": "ym2612"
    },
    {
      "channel": 1,
      "note": 49,
      "start": 16.5499,
      "duration": 0.013,
      "velocity": 103,
      "chip": "ym2612"
    },
    {
      "channel": 2,
      "note": 76,
      "start": 16.5502,
      "duration": 0.0081,
      "velocity": 111,
      "chip": "ym2612"
    },
    {
      "channel": 3,
      "note": 71,
      "start": 16.5505,
      "duration": 0.008,
      "velocity": 111,
      "chip": "ym2612"
    },
    {
      "channel": 4,
      "note": 66,
      "start": 16.555,
      "duration": 0.4476,
      "velocity": 106,
      "chip": "ym2612"
    },
    {
      "channel": 2,
      "note": 76,
      "start": 16.5585,
      "duration": 0.0084,
      "velocity": 111,
      "chip": "ym2612"
    },
    {
      "channel": 3,
      "note": 71,
      "start": 16.5587,
      "duration": 0.0084,
      "velocity": 111,
      "chip": "ym2612"
    },
    {
      "channel": 2,
      "note": 76,
      "start": 16.567,
      "duration": 0.0087,
      "velocity": 111,
      "chip": "ym2612"
    },
    {
      "channel": 3,
      "note": 71,
      "start": 16.5672,
      "duration": 0.0088,
      "velocity": 111,
      "chip": "ym2612"
    },
    {
      "channel": 1,
      "note": 49,
      "start": 16.5756,
      "duration": 0.1099,
      "velocity": 103,
      "chip": "ym2612"
    },
    {
      "channel": 2,
      "note": 75,
      "start": 16.5759,
      "duration": 0.0263,
      "velocity": 111,
      "chip": "ym2612"
    },
    {
      "channel": 3,
      "note": 70,
      "start": 16.5761,
      "duration": 0.0264,
      "velocity": 111,
      "chip": "ym2612"
    },
    {
      "channel": 2,
      "note": 75,
      "start": 16.6024,
      "duration": 0.1665,
      "velocity": 111,
      "chip": "ym2612"
    },
    {
      "channel": 3,
      "note": 70,
      "start": 16.6027,
      "duration": 0.1664,
      "velocity": 111,
      "chip": "ym2612"
    },
    {
      "channel": 2,
      "note": 75,
      "start": 16.7691,
      "duration": 0.1502,
      "velocity": 111,
      "chip": "ym2612"
    },
    {
      "channel": 3,
      "note": 70,
      "start": 16.7694,
      "duration": 0.1502,
      "velocity": 111,
      "chip": "ym2612"
    },
    {
      "channel": 0,
      "note": 68,
      "start": 16.9189,
      "duration": 0.4833,
      "velocity": 106,
      "chip": "ym2612"
    },
    {
      "channel": 1,
      "note": 49,
      "start": 16.9192,
      "duration": 0.2496,
      "velocity": 103,
      "chip": "ym2612"
    },
    {
      "channel": 2,
      "note": 78,
      "start": 16.9195,
      "duration": 0.166,
      "velocity": 111,
      "chip": "ym2612"
    },
    {
      "channel": 3,
      "note": 73,
      "start": 16.9198,
      "duration": 0.166,
      "velocity": 111,
      "chip": "ym2612"
    },
    {
      "channel": 4,
      "note": 68,
      "start": 17.0027,
      "duration": 0.4831,
      "velocity": 106,
      "chip": "ym2612"
    },
    {
      "channel": 2,
      "note": 78,
      "start": 17.0857,
      "duration": 0.1665,
      "velocity": 111,
      "chip": "ym2612"
    },
    {
      "channel": 3,
      "note": 73,
      "start": 17.0861,
      "duration": 0.1664,
      "velocity": 111,
      "chip": "ym2612"
    },
    {
      "channel": 2,
      "note": 78,
      "start": 17.2524,
      "duration": 0.1504,
      "velocity": 111,
      "chip": "ym2612"
    },
    {
      "channel": 3,
      "note": 73,
      "start": 17.2527,
      "duration": 0.1504,
      "velocity": 111,
      "chip": "ym2612"
    },
    {
      "channel": 0,
      "note": 73,
      "start": 17.4023,
      "duration": 0.4832,
      "velocity": 106,
      "chip": "ym2612"
    },
    {
      "channel": 1,
      "note": 49,
      "start": 17.4027,
      "duration": 0.2495,
      "velocity": 103,
      "chip": "ym2612"
    },
    {
      "channel": 2,
      "note": 73,
      "start": 17.403,
      "duration": 0.1659,
      "velocity": 111,
      "chip": "ym2612"
    },
    {
      "channel": 3,
      "note": 68,
      "start": 17.4034,
      "duration": 0.1658,
      "velocity": 111,
      "chip": "ym2612"
    },
    {
      "channel": 4,
      "note": 73,
      "start": 17.4861,
      "duration": 0.4046,
      "velocity": 106,
      "chip": "ym2612"
    },
    {
      "channel": 2,
      "note": 73,
      "start": 17.5691,
      "duration": 0.1498,
      "velocity": 111,
      "chip": "ym2612"
    },
    {
      "channel": 3,
      "note": 68,
      "start": 17.5694,
      "duration": 0.1498,
      "velocity": 111,
      "chip": "ym2612"
    },
    {
      "channel": 2,
      "note": 73,
      "start": 17.7191,
      "duration": 0.1669,
      "velocity": 111,
      "chip": "ym2612"
    },
    {
      "channel": 3,
      "note": 68,
      "start": 17.7194,
      "duration": 0.1668,
      "velocity": 111,
      "chip": "ym2612"
    },
    {
      "channel": 0,
      "note": 78,
      "start": 17.8857,
      "duration": 0.0261,
      "velocity": 106,
      "chip": "ym2612"
    },
    {
      "channel": 1,
      "note": 49,
      "start": 17.8859,
      "duration": 0.0128,
      "velocity": 103,
      "chip": "ym2612"
    },
    {
      "channel": 2,
      "note": 73,
      "start": 17.8861,
      "duration": 0.0088,
      "velocity": 111,
      "chip": "ym2612"
    },
    {
      "channel": 3,
      "note": 68,
      "start": 17.8863,
      "duration": 0.0088,
      "velocity": 111,
      "chip": "ym2612"
    },
    {
      "channel": 4,
      "note": 78,
      "start": 17.8909,
      "duration": 0.0261,
      "velocity": 106,
      "chip": "ym2612"
    },
    {
      "channel": 2,
      "note": 73,
      "start": 17.8951,
      "duration": 0.008,
      "velocity": 111,
      "chip": "ym2612"
    },
    {
      "channel": 3,
      "note": 68,
      "start": 17.8954,
      "duration": 0.008,
      "velocity": 111,
      "chip": "ym2612"
    },
    {
      "channel": 2,
      "note": 73,
      "start": 17.9033,
      "duration": 0.009,
      "velocity": 111,
      "chip": "ym2612"
    },
    {
      "channel": 3,
      "note": 68,
      "start": 17.9035,
      "duration": 0.0091,
      "velocity": 111,
      "chip": "ym2612"
    },
    {
      "channel": 0,
      "note": 76,
      "start": 17.9119,
      "duration": 0.3597,
      "velocity": 106,
      "chip": "ym2612"
    },
    {
      "channel": 1,
      "note": 49,
      "start": 17.9123,
      "duration": 0.1095,
      "velocity": 103,
      "chip": "ym2612"
    },
    {
      "channel": 2,
      "note": 73,
      "start": 17.9125,
      "duration": 0.026,
      "velocity": 111,
      "chip": "ym2612"
    },
    {
      "channel": 3,
      "note": 68,
      "start": 17.9127,
      "duration": 0.026,
      "velocity": 111,
      "chip": "ym2612"
    },
    {
      "channel": 4,
      "note": 76,
      "start": 17.9172,
      "duration": 0.4215,
      "velocity": 106,
      "chip": "ym2612"
    },
    {
      "channel": 2,
      "note": 73,
      "start": 17.9386,
      "duration": 0.1665,
      "velocity": 111,
      "chip": "ym2612"
    },
    {
      "channel": 3,
      "note": 68,
      "start": 17.939,
      "duration": 0.1664,
      "velocity": 111,
      "chip": "ym2612"
    },
    {
      "channel": 2,
      "note": 73,
      "start": 18.1053,
      "duration": 0.1668,
      "velocity": 111,
      "chip": "ym2612"
    },
    {
      "channel": 3,
      "note": 68,
      "start": 18.1056,
      "duration": 0.1668,
      "velocity": 111,
      "chip": "ym2612"
    },
    {
      "channel": 0,
      "note": 75,
      "start": 18.2718,
      "duration": 0.1498,
      "velocity": 106,
      "chip": "ym2612"
    },
    {
      "channel": 1,
      "note": 49,
      "start": 18.2721,
      "duration": 0.233,
      "velocity": 103,
      "chip": "ym2612"
    },
    {
      "channel": 2,
      "note": 73,
      "start": 18.2724,
      "duration": 0.1495,
      "velocity": 111,
      "chip": "ym2612"
    },
    {
      "channel": 3,
      "note": 68,
      "start": 18.2727,
      "duration": 0.1495,
      "velocity": 111,
      "chip": "ym2612"
    },
    {
      "channel": 4,
      "note": 75,
      "start": 18.339,
      "duration": 0.1665,
      "velocity": 106,
      "chip": "ym2612"
    },
    {
      "channel": 0,
      "note": 73,
      "start": 18.4218,
      "duration": 0.1665,
      "velocity": 106,
      "chip": "ym2612"
    },
    {
      "channel": 2,
      "note": 73,
      "start": 18.4221,
      "duration": 0.1665,
      "velocity": 111,
      "chip": "ym2612"
    },
    {
      "channel": 3,
      "note": 68,
      "start": 18.4224,
      "duration": 0.1664,
      "velocity": 111,
      "chip": "ym2612"
    },
    {
      "channel": 4,
      "note": 73,
      "start": 18.5057,
      "duration": 0.1663,
      "velocity": 106,
      "chip": "ym2612"
    },
    {
      "channel": 0,
      "note": 75,
      "start": 18.5884,
      "duration": 0.15,
      "velocity": 106,
      "chip": "ym2612"
    },
    {
      "channel": 2,
      "note": 73,
      "start": 18.5888,
      "duration": 0.1502,
      "velocity": 111,
      "chip": "ym2612"
    },
    {
      "channel": 3,
      "note": 68,
      "start": 18.5891,
      "duration": 0.1502,
      "velocity": 111,
      "chip": "ym2612"
    },
    {
      "channel": 4,
      "note": 75,
      "start": 18.6723,
      "duration": 0.1498,
      "velocity": 106,
      "chip": "ym2612"
    },
    {
      "channel": 0,
      "note": 71,
      "start": 18.7386,
      "duration": 0.5098,
      "velocity": 106,
      "chip": "ym2612"
    },
    {
      "channel": 1,
      "note": 47,
      "start": 18.7389,
      "duration": 0.2495,
      "velocity": 103,
      "chip": "ym2612"
    },
    {
      "channel": 2,
      "note": 71,
      "start": 18.7392,
      "duration": 0.1659,
      "velocity": 111,
      "chip": "ym2612"
    },
    {
      "channel": 3,
      "note": 66,
      "start": 18.7395,
      "duration": 0.1659,
      "velocity": 111,
      "chip": "ym2612"
    },
    {
      "channel": 4,
      "note": 71,
      "start": 18.8223,
      "duration": 0.4312,
      "velocity": 106,
      "chip": "ym2612"
    },
    {
      "channel": 2,
      "note": 71,
      "start": 18.9053,
      "duration": 0.1665,
      "velocity": 111,
      "chip": "ym2612"
    },
    {
      "channel": 3,
      "note": 66,
      "start": 18.9056,
      "duration": 0.1664,
      "velocity": 111,
      "chip": "ym2612"
    },
    {
      "channel": 2,
      "note": 71,
      "start": 19.072,
      "duration": 0.1502,
      "velocity": 111,
      "chip": "ym2612"
    },
    {
      "channel": 3,
      "note": 66,
      "start": 19.0723,
      "duration": 0.1501,
      "velocity": 111,
      "chip": "ym2612"
    },
    {
      "channel": 1,
      "note": 47,
      "start": 19.2221,
      "duration": 0.0138,
      "velocity": 103,
      "chip": "ym2612"
    },
    {
      "channel": 2,
      "note": 71,
      "start": 19.2223,
      "duration": 0.0089,
      "velocity": 111,
      "chip": "ym2612"
    },
    {
      "channel": 3,
      "note": 66,
      "start": 19.2226,
      "duration": 0.0089,
      "velocity": 111,
      "chip": "ym2612"
    },
    {
      "channel": 2,
      "note": 71,
      "start": 19.2315,
      "duration": 0.008,
      "velocity": 111,
      "chip": "ym2612"
    },
    {
      "channel": 3,
      "note": 66,
      "start": 19.2317,
      "duration": 0.0079,
      "velocity": 111,
      "chip": "ym2612"
    },
    {
      "channel": 2,
      "note": 71,
      "start": 19.2396,
      "duration": 0.0093,
      "velocity": 111,
      "chip": "ym2612"
    },
    {
      "channel": 3,
      "note": 66,
      "start": 19.2398,
      "duration": 0.0093,
      "velocity": 111,
      "chip": "ym2612"
    },
    {
      "channel": 0,
      "note": 69,
      "start": 19.2485,
      "duration": 0.3595,
      "velocity": 106,
      "chip": "ym2612"
    },
    {
      "channel": 1,
      "note": 47,
      "start": 19.2488,
      "duration": 0.1093,
      "velocity": 103,
      "chip": "ym2612"
    },
    {
      "channel": 2,
      "note": 71,
      "start": 19.249,
      "duration": 0.0425,
      "velocity": 111,
      "chip": "ym2612"
    },
    {
      "channel": 3,
      "note": 66,
      "start": 19.2493,
      "duration": 0.0424,
      "velocity": 111,
      "chip": "ym2612"
    },
    {
      "channel": 4,
      "note": 69,
      "start": 19.2537,
      "duration": 0.4381,
      "velocity": 106,
      "chip": "ym2612"
    },
    {
      "channel": 2,
      "note": 71,
      "start": 19.2917,
      "duration": 0.1498,
      "velocity": 111,
      "chip": "ym2612"
    },
    {
      "channel": 3,
      "note": 66,
      "start": 19.292,
      "duration": 0.1498,
      "velocity": 111,
      "chip": "ym2612"
    },
    {
      "channel": 2,
      "note": 71,
      "start": 19.4417,
      "duration": 0.1668,
      "velocity": 111,
      "chip": "ym2612"
    },
    {
      "channel": 3,
      "note": 66,
      "start": 19.442,
      "duration": 0.1668,
      "velocity": 111,
      "chip": "ym2612"
    },
    {
      "channel": 0,
      "note": 68,
      "start": 19.6082,
      "duration": 0.4833,
      "velocity": 106,
      "chip": "ym2612"
    },
    {
      "channel": 1,
      "note": 47,
      "start": 19.6085,
      "duration": 0.233,
      "velocity": 103,
      "chip": "ym2612"
    },
    {
      "channel": 2,
      "note": 71,
      "start": 19.6088,
      "duration": 0.1494,
      "velocity": 111,
      "chip": "ym2612"
    },
    {
      "channel": 3,
      "note": 66,
      "start": 19.6091,
      "duration": 0.1494,
      "velocity": 111,
      "chip": "ym2612"
    },
    {
      "channel": 4,
      "note": 68,
      "start": 19.692,
      "duration": 0.4665,
      "velocity": 106,
      "chip": "ym2612"
    },
    {
      "channel": 2,
      "note": 71,
      "start": 19.7584,
      "duration": 0.1665,
      "velocity": 111,
      "chip": "ym2612"
    },
    {
      "channel": 3,
      "note": 66,
      "start": 19.7587,
      "duration": 0.1664,
      "velocity": 111,
      "chip": "ym2612"
    },
    {
      "channel": 2,
      "note": 71,
      "start": 19.9251,
      "duration": 0.167,
      "velocity": 111,
      "chip": "ym2612"
    },
    {
      "channel": 3,
      "note": 66,
      "start": 19.9254,
      "duration": 0.1671,
      "velocity": 111,
      "chip": "ym2612"
    },
    {
      "channel": 0,
      "note": 73,
      "start": 20.0917,
      "duration": 0.4665,
      "velocity": 106,
      "chip": "ym2612"
    },
    {
      "channel": 1,
      "note": 49,
      "start": 20.092,
      "duration": 0.2328,
      "velocity": 103,
      "chip": "ym2612"
    },
    {
      "channel": 2,
      "note": 73,
      "start": 20.0923,
      "duration": 0.1492,
      "velocity": 111,
      "chip": "ym2612"
    },
    {
      "channel": 3,
      "note": 68,
      "start": 20.0926,
      "duration": 0.1492,
      "velocity": 111,
      "chip": "ym2612"
    },
    {
      "channel": 4,
      "note": 73,
      "start": 20.1587,
      "duration": 0.4049,
      "velocity": 106,
      "chip": "ym2612"
    },
    {
      "channel": 2,
      "note": 73,
      "start": 20.2417,
      "duration": 0.1665,
      "velocity": 111,
      "chip": "ym2612"
    },
    {
      "channel": 3,
      "note": 68,
      "start": 20.242,
      "duration": 0.1664,
      "velocity": 111,
      "chip": "ym2612"
    },
    {
      "channel": 2,
      "note": 73,
      "start": 20.4084,
      "duration": 0.1502,
      "velocity": 111,
      "chip": "ym2612"
    },
    {
      "channel": 3,
      "note": 68,
      "start": 20.4087,
      "duration": 0.1501,
      "velocity": 111,
      "chip": "ym2612"
    },
    {
      "channel": 0,
      "note": 78,
      "start": 20.5584,
      "duration": 0.0256,
      "velocity": 106,
      "chip": "ym2612"
    },
    {
      "channel": 1,
      "note": 49,
      "start": 20.5585,
      "duration": 0.0135,
      "velocity": 103,
      "chip": "ym2612"
    },
    {
      "channel": 2,
      "note": 73,
      "start": 20.5588,
      "duration": 0.0089,
      "velocity": 111,
      "chip": "ym2612"
    },
    {
      "channel": 3,
      "note": 68,
      "start": 20.5589,
      "duration": 0.009,
      "velocity": 111,
      "chip": "ym2612"
    },
    {
      "channel": 4,
      "note": 78,
      "start": 20.5637,
      "duration": 0.0256,
      "velocity": 106,
      "chip": "ym2612"
    },
    {
      "channel": 2,
      "note": 73,
      "start": 20.5679,
      "duration": 0.0083,
      "velocity": 111,
      "chip": "ym2612"
    },
    {
      "channel": 3,
      "note": 68,
      "start": 20.5681,
      "duration": 0.0083,
      "velocity": 111,
      "chip": "ym2612"
    },
    {
      "channel": 2,
      "note": 73,
      "start": 20.5763,
      "duration": 0.008,
      "velocity": 111,
      "chip": "ym2612"
    },
    {
      "channel": 3,
      "note": 68,
      "start": 20.5765,
      "duration": 0.0081,
      "velocity": 111,
      "chip": "ym2612"
    },
    {
      "channel": 0,
      "note": 76,
      "start": 20.5841,
      "duration": 0.3598,
      "velocity": 106,
      "chip": "ym2612"
    },
    {
      "channel": 1,
      "note": 49,
      "start": 20.5843,
      "duration": 0.1264,
      "velocity": 103,
      "chip": "ym2612"
    },
    {
      "channel": 2,
      "note": 73,
      "start": 20.5845,
      "duration": 0.0429,
      "velocity": 111,
      "chip": "ym2612"
    },
    {
      "channel": 3,
      "note": 68,
      "start": 20.5848,
      "duration": 0.0429,
      "velocity": 111,
      "chip": "ym2612"
    },
    {
      "channel": 4,
      "note": 76,
      "start": 20.5896,
      "duration": 0.4381,
      "velocity": 106,
      "chip": "ym2612"
    },
    {
      "channel": 2,
      "note": 73,
      "start": 20.6276,
      "duration": 0.1498,
      "velocity": 111,
      "chip": "ym2612"
    },
    {
      "channel": 3,
      "note": 68,
      "start": 20.6279,
      "duration": 0.1498,
      "velocity": 111,
      "chip": "ym2612"
    },
    {
      "channel": 2,
      "note": 73,
      "start": 20.7776,
      "duration": 0.1668,
      "velocity": 111,
      "chip": "ym2612"
    },
    {
      "channel": 3,
      "note": 68,
      "start": 20.7779,
      "duration": 0.1668,
      "velocity": 111,
      "chip": "ym2612"
    },
    {
      "channel": 0,
      "note": 75,
      "start": 20.9441,
      "duration": 0.1665,
      "velocity": 106,
      "chip": "ym2612"
    },
    {
      "channel": 1,
      "note": 49,
      "start": 20.9444,
      "duration": 0.233,
      "velocity": 103,
      "chip": "ym2612"
    },
    {
      "channel": 2,
      "note": 73,
      "start": 20.9447,
      "duration": 0.1662,
      "velocity": 111,
      "chip": "ym2612"
    },
    {
      "channel": 3,
      "note": 68,
      "start": 20.945,
      "duration": 0.1661,
      "velocity": 111,
      "chip": "ym2612"
    },
    {
      "channel": 4,
      "note": 75,
      "start": 21.0279,
      "duration": 0.1499,
      "velocity": 106,
      "chip": "ym2612"
    },
    {
      "channel": 0,
      "note": 73,
      "start": 21.1107,
      "duration": 0.1498,
      "velocity": 106,
      "chip": "ym2612"
    },
    {
      "channel": 2,
      "note": 73,
      "start": 21.1111,
      "duration": 0.1498,
      "velocity": 111,
      "chip": "ym2612"
    },
    {
      "channel": 3,
      "note": 68,
      "start": 21.1114,
      "duration": 0.1498,
      "velocity": 111,
      "chip": "ym2612"
    },
    {
      "channel": 4,
      "note": 73,
      "start": 21.178,
      "duration": 0.1663,
      "velocity": 106,
      "chip": "ym2612"
    },
    {
      "channel": 0,
      "note": 75,
      "start": 21.2607,
      "duration": 0.1666,
      "velocity": 106,
      "chip": "ym2612"
    },
    {
      "channel": 2,
      "note": 73,
      "start": 21.2611,
      "duration": 0.1669,
      "velocity": 111,
      "chip": "ym2612"
    },
    {
      "channel": 3,
      "note": 68,
      "start": 21.2614,
      "duration": 0.1669,
      "velocity": 111,
      "chip": "ym2612"
    },
    {
      "channel": 4,
      "note": 75,
      "start": 21.3446,
      "duration": 0.1665,
      "velocity": 106,
      "chip": "ym2612"
    },
    {
      "channel": 0,
      "note": 71,
      "start": 21.4276,
      "duration": 0.4832,
      "velocity": 106,
      "chip": "ym2612"
    },
    {
      "channel": 1,
      "note": 49,
      "start": 21.4279,
      "duration": 0.2328,
      "velocity": 103,
      "chip": "ym2612"
    },
    {
      "channel": 2,
      "note": 73,
      "start": 21.4282,
      "duration": 0.1492,
      "velocity": 111,
      "chip": "ym2612"
    },
    {
      "channel": 3,
      "note": 68,
      "start": 21.4285,
      "duration": 0.1492,
      "velocity": 111,
      "chip": "ym2612"
    },
    {
      "channel": 4,
      "note": 71,
      "start": 21.5113,
      "duration": 0.4039,
      "velocity": 106,
      "chip": "ym2612"
    },
    {
      "channel": 2,
      "note": 73,
      "start": 21.5776,
      "duration": 0.1665,
      "velocity": 111,
      "chip": "ym2612"
    },
    {
      "channel": 3,
      "note": 68,
      "start": 21.5779,
      "duration": 0.1664,
      "velocity": 111,
      "chip": "ym2612"
    },
    {
      "channel": 2,
      "note": 73,
      "start": 21.7443,
      "duration": 0.1669,
      "velocity": 111,
      "chip": "ym2612"
    },
    {
      "channel": 3,
      "note": 68,
      "start": 21.7446,
      "duration": 0.1668,
      "velocity": 111,
      "chip": "ym2612"
    },
    {
      "channel": 0,
      "note": 66,
      "start": 21.911,
      "duration": 0.0256,
      "velocity": 106,
      "chip": "ym2612"
    },
    {
      "channel": 1,
      "note": 49,
      "start": 21.9111,
      "duration": 0.0129,
      "velocity": 103,
      "chip": "ym2612"
    },
    {
      "channel": 2,
      "note": 76,
      "start": 21.9113,
      "duration": 0.008,
      "velocity": 111,
      "chip": "ym2612"
    },
    {
      "channel": 3,
      "note": 71,
      "start": 21.9115,
      "duration": 0.008,
      "velocity": 111,
      "chip": "ym2612"
    },
    {
      "channel": 4,
      "note": 66,
      "start": 21.9153,
      "duration": 0.0267,
      "velocity": 106,
      "chip": "ym2612"
    },
    {
      "channel": 2,
      "note": 76,
      "start": 21.9195,
      "duration": 0.0089,
      "velocity": 111,
      "chip": "ym2612"
    },
    {
      "channel": 3,
      "note": 71,
      "start": 21.9198,
      "duration": 0.0088,
      "velocity": 111,
      "chip": "ym2612"
    },
    {
      "channel": 2,
      "note": 76,
      "start": 21.9286,
      "duration": 0.0085,
      "velocity": 111,
      "chip": "ym2612"
    },
    {
      "channel": 3,
      "note": 71,
      "start": 21.9288,
      "duration": 0.0085,
      "velocity": 111,
      "chip": "ym2612"
    },
    {
      "channel": 0,
      "note": 68,
      "start": 21.9366,
      "duration": 0.3439,
      "velocity": 106,
      "chip": "ym2612"
    },
    {
      "channel": 1,
      "note": 49,
      "start": 21.937,
      "duration": 0.1104,
      "velocity": 103,
      "chip": "ym2612"
    },
    {
      "channel": 2,
      "note": 75,
      "start": 21.9373,
      "duration": 0.0268,
      "velocity": 111,
      "chip": "ym2612"
    },
    {
      "channel": 3,
      "note": 70,
      "start": 21.9376,
      "duration": 0.0268,
      "velocity": 111,
      "chip": "ym2612"
    },
    {
      "channel": 4,
      "note": 68,
      "start": 21.9421,
      "duration": 0.4223,
      "velocity": 106,
      "chip": "ym2612"
    },
    {
      "channel": 2,
      "note": 75,
      "start": 21.9643,
      "duration": 0.1665,
      "velocity": 111,
      "chip": "ym2612"
    },
    {
      "channel": 3,
      "note": 70,
      "start": 21.9646,
      "duration": 0.1664,
      "velocity": 111,
      "chip": "ym2612"
    },
    {
      "channel": 2,
      "note": 75,
      "start": 22.131,
      "duration": 0.1502,
      "velocity": 111,
      "chip": "ym2612"
    },
    {
      "channel": 3,
      "note": 70,
      "start": 22.1313,
      "duration": 0.1502,
      "velocity": 111,
      "chip": "ym2612"
    },
    {
      "channel": 0,
      "note": 68,
      "start": 22.2808,
      "duration": 0.4833,
      "velocity": 106,
      "chip": "ym2612"
    },
    {
      "channel": 1,
      "note": 49,
      "start": 22.2811,
      "duration": 0.2496,
      "velocity": 103,
      "chip": "ym2612"
    },
    {
      "channel": 2,
      "note": 78,
      "start": 22.2814,
      "duration": 0.166,
      "velocity": 111,
      "chip": "ym2612"
    },
    {
      "channel": 3,
      "note": 73,
      "start": 22.2817,
      "duration": 0.166,
      "velocity": 111,
      "chip": "ym2612"
    },
    {
      "channel": 4,
      "note": 68,
      "start": 22.3646,
      "duration": 0.4831,
      "velocity": 106,
      "chip": "ym2612"
    },
    {
      "channel": 2,
      "note": 78,
      "start": 22.4476,
      "duration": 0.1498,
      "velocity": 111,
      "chip": "ym2612"
    },
    {
      "channel": 3,
      "note": 73,
      "start": 22.448,
      "duration": 0.1498,
      "velocity": 111,
      "chip": "ym2612"
    },
    {
      "channel": 2,
      "note": 78,
      "start": 22.5976,
      "duration": 0.1671,
      "velocity": 111,
      "chip": "ym2612"
    },
    {
      "channel": 3,
      "note": 73,
      "start": 22.598,
      "duration": 0.1671,
      "velocity": 111,
      "chip": "ym2612"
    },
    {
      "channel": 0,
      "note": 69,
      "start": 22.7642,
      "duration": 0.4832,
      "velocity": 106,
      "chip": "ym2612"
    },
    {
      "channel": 1,
      "note": 45,
      "start": 22.7646,
      "duration": 0.2328,
      "velocity": 103,
      "chip": "ym2612"
    },
    {
      "channel": 2,
      "note": 69,
      "start": 22.7649,
      "duration": 0.1659,
      "velocity": 111,
      "chip": "ym2612"
    },
    {
      "channel": 3,
      "note": 64,
      "start": 22.7652,
      "duration": 0.166,
      "velocity": 111,
      "chip": "ym2612"
    },
    {
      "channel": 4,
      "note": 69,
      "start": 22.848,
      "duration": 0.405,
      "velocity": 106,
      "chip": "ym2612"
    },
    {
      "channel": 2,
      "note": 69,
      "start": 22.931,
      "duration": 0.1497,
      "velocity": 111,
      "chip": "ym2612"
    },
    {
      "channel": 3,
      "note": 64,
      "start": 22.9314,
      "duration": 0.1497,
      "velocity": 111,
      "chip": "ym2612"
    },
    {
      "channel": 2,
      "note": 69,
      "start": 23.081,
      "duration": 0.167,
      "velocity": 111,
      "chip": "ym2612"
    },
    {
      "channel": 3,
      "note": 64,
      "start": 23.0814,
      "duration": 0.167,
      "velocity": 111,
      "chip": "ym2612"
    },
    {
      "channel": 0,
      "note": 76,
      "start": 23.2477,
      "duration": 0.8529,
      "velocity": 106,
      "chip": "ym2612"
    },
    {
      "channel": 1,
      "note": 45,
      "start": 23.2479,
      "duration": 0.013,
      "velocity": 103,
      "chip": "ym2612"
    },
    {
      "channel": 2,
      "note": 69,
      "start": 23.2482,
      "duration": 0.0082,
      "velocity": 111,
      "chip": "ym2612"
    },
    {
      "channel": 3,
      "note": 64,
      "start": 23.2486,
      "duration": 0.008,
      "velocity": 111,
      "chip": "ym2612"
    },
    {
      "channel": 4,
      "note": 76,
      "start": 23.2531,
      "duration": 0.9312,
      "velocity": 106,
      "chip": "ym2612"
    },
    {
      "channel": 2,
      "note": 69,
      "start": 23.2566,
      "duration": 0.0088,
      "velocity": 111,
      "chip": "ym2612"
    },
    {
      "channel": 3,
      "note": 64,
      "start": 23.2568,
      "duration": 0.0088,
      "velocity": 111,
      "chip": "ym2612"
    },
    {
      "channel": 2,
      "note": 69,
      "start": 23.2655,
      "duration": 0.0086,
      "velocity": 111,
      "chip": "ym2612"
    },
    {
      "channel": 3,
      "note": 64,
      "start": 23.2658,
      "duration": 0.0087,
      "velocity": 111,
      "chip": "ym2612"
    },
    {
      "channel": 1,
      "note": 45,
      "start": 23.2741,
      "duration": 0.1096,
      "velocity": 103,
      "chip": "ym2612"
    },
    {
      "channel": 2,
      "note": 69,
      "start": 23.2743,
      "duration": 0.0262,
      "velocity": 111,
      "chip": "ym2612"
    },
    {
      "channel": 3,
      "note": 64,
      "start": 23.2747,
      "duration": 0.0261,
      "velocity": 111,
      "chip": "ym2612"
    },
    {
      "channel": 2,
      "note": 69,
      "start": 23.3007,
      "duration": 0.1664,
      "velocity": 111,
      "chip": "ym2612"
    },
    {
      "channel": 3,
      "note": 64,
      "start": 23.3011,
      "duration": 0.1664,
      "velocity": 111,
      "chip": "ym2612"
    },
    {
      "channel": 2,
      "note": 69,
      "start": 23.4674,
      "duration": 0.15,
      "velocity": 111,
      "chip": "ym2612"
    },
    {
      "channel": 3,
      "note": 64,
      "start": 23.4677,
      "duration": 0.15,
      "velocity": 111,
      "chip": "ym2612"
    },
    {
      "channel": 1,
      "note": 45,
      "start": 23.6173,
      "duration": 0.2498,
      "velocity": 103,
      "chip": "ym2612"
    },
    {
      "channel": 2,
      "note": 69,
      "start": 23.6177,
      "duration": 0.1661,
      "velocity": 111,
      "chip": "ym2612"
    },
    {
      "channel": 3,
      "note": 64,
      "start": 23.618,
      "duration": 0.1661,
      "velocity": 111,
      "chip": "ym2612"
    },
    {
      "channel": 2,
      "note": 69,
      "start": 23.7841,
      "duration": 0.1664,
      "velocity": 111,
      "chip": "ym2612"
    },
    {
      "channel": 3,
      "note": 64,
      "start": 23.7844,
      "duration": 0.1664,
      "velocity": 111,
      "chip": "ym2612"
    },
    {
      "channel": 2,
      "note": 69,
      "start": 23.9507,
      "duration": 0.1502,
      "velocity": 111,
      "chip": "ym2612"
    },
    {
      "channel": 3,
      "note": 64,
      "start": 23.9511,
      "duration": 0.1502,
      "velocity": 111,
      "chip": "ym2612"
    },
    {
      "channel": 0,
      "note": 76,
      "start": 24.1005,
      "duration": 0.8691,
      "velocity": 106,
      "chip": "ym2612"
    },
    {
      "channel": 1,
      "note": 45,
      "start": 24.1009,
      "duration": 0.2496,
      "velocity": 103,
      "chip": "ym2612"
    },
    {
      "channel": 2,
      "note": 69,
      "start": 24.1012,
      "duration": 0.1659,
      "velocity": 111,
      "chip": "ym2612"
    },
    {
      "channel": 3,
      "note": 64,
      "start": 24.1016,
      "duration": 0.1659,
      "velocity": 111,
      "chip": "ym2612"
    },
    {
      "channel": 4,
      "note": 76,
      "start": 24.1843,
      "duration": 0.8525,
      "velocity": 106,
      "chip": "ym2612"
    },
    {
      "channel": 2,
      "note": 69,
      "start": 24.2674,
      "duration": 0.1497,
      "velocity": 111,
      "chip": "ym2612"
    },
    {
      "channel": 3,
      "note": 64,
      "start": 24.2677,
      "duration": 0.1497,
      "velocity": 111,
      "chip": "ym2612"
    },
    {
      "channel": 2,
      "note": 69,
      "start": 24.4174,
      "duration": 0.1668,
      "velocity": 111,
      "chip": "ym2612"
    },
    {
      "channel": 3,
      "note": 64,
      "start": 24.4177,
      "duration": 0.1668,
      "velocity": 111,
      "chip": "ym2612"
    },
    {
      "channel": 1,
      "note": 45,
      "start": 24.5842,
      "duration": 0.0127,
      "velocity": 103,
      "chip": "ym2612"
    },
    {
      "channel": 2,
      "note": 69,
      "start": 24.5844,
      "duration": 0.0085,
      "velocity": 111,
      "chip": "ym2612"
    },
    {
      "channel": 3,
      "note": 64,
      "start": 24.5847,
      "duration": 0.0084,
      "velocity": 111,
      "chip": "ym2612"
    },
    {
      "channel": 2,
      "note": 69,
      "start": 24.5931,
      "duration": 0.0083,
      "velocity": 111,
      "chip": "ym2612"
    },
    {
      "channel": 3,
      "note": 64,
      "start": 24.5933,
      "duration": 0.0083,
      "velocity": 111,
      "chip": "ym2612"
    },
    {
      "channel": 2,
      "note": 69,
      "start": 24.6015,
      "duration": 0.009,
      "velocity": 111,
      "chip": "ym2612"
    },
    {
      "channel": 3,
      "note": 64,
      "start": 24.6018,
      "duration": 0.0089,
      "velocity": 111,
      "chip": "ym2612"
    },
    {
      "channel": 1,
      "note": 45,
      "start": 24.6104,
      "duration": 0.1093,
      "velocity": 103,
      "chip": "ym2612"
    },
    {
      "channel": 2,
      "note": 69,
      "start": 24.6106,
      "duration": 0.0259,
      "velocity": 111,
      "chip": "ym2612"
    },
    {
      "channel": 3,
      "note": 64,
      "start": 24.6109,
      "duration": 0.0259,
      "velocity": 111,
      "chip": "ym2612"
    },
    {
      "channel": 2,
      "note": 69,
      "start": 24.6367,
      "duration": 0.1664,
      "velocity": 111,
      "chip": "ym2612"
    },
    {
      "channel": 3,
      "note": 64,
      "start": 24.6371,
      "duration": 0.1664,
      "velocity": 111,
      "chip": "ym2612"
    },
    {
      "channel": 2,
      "note": 69,
      "start": 24.8034,
      "duration": 0.1668,
      "velocity": 111,
      "chip": "ym2612"
    },
    {
      "channel": 3,
      "note": 64,
      "start": 24.8037,
      "duration": 0.1668,
      "velocity": 111,
      "chip": "ym2612"
    },
    {
      "channel": 0,
      "note": 69,
      "start": 24.9698,
      "duration": 0.4666,
      "velocity": 106,
      "chip": "ym2612"
    },
    {
      "channel": 1,
      "note": 45,
      "start": 24.9701,
      "duration": 0.233,
      "velocity": 103,
      "chip": "ym2612"
    },
    {
      "channel": 2,
      "note": 69,
      "start": 24.9705,
      "duration": 0.1493,
      "velocity": 111,
      "chip": "ym2612"
    },
    {
      "channel": 3,
      "note": 64,
      "start": 24.9708,
      "duration": 0.1493,
      "velocity": 111,
      "chip": "ym2612"
    },
    {
      "channel": 4,
      "note": 69,
      "start": 25.037,
      "duration": 0.4831,
      "velocity": 106,
      "chip": "ym2612"
    },
    {
      "channel": 2,
      "note": 69,
      "start": 25.1201,
      "duration": 0.1664,
      "velocity": 111,
      "chip": "ym2612"
    },
    {
      "channel": 3,
      "note": 64,
      "start": 25.1204,
      "duration": 0.1664,
      "velocity": 111,
      "chip": "ym2612"
    },
    {
      "channel": 2,
      "note": 69,
      "start": 25.2867,
      "duration": 0.1503,
      "velocity": 111,
      "chip": "ym2612"
    },
    {
      "channel": 3,
      "note": 64,
      "start": 25.2871,
      "duration": 0.1503,
      "velocity": 111,
      "chip": "ym2612"
    },
    {
      "channel": 0,
      "note": 71,
      "start": 25.4366,
      "duration": 0.4832,
      "velocity": 106,
      "chip": "ym2612"
    },
    {
      "channel": 1,
      "note": 47,
      "start": 25.4369,
      "duration": 0.2495,
      "velocity": 103,
      "chip": "ym2612"
    },
    {
      "channel": 2,
      "note": 71,
      "start": 25.4372,
      "duration": 0.1659,
      "velocity": 111,
      "chip": "ym2612"
    },
    {
      "channel": 3,
      "note": 66,
      "start": 25.4376,
      "duration": 0.1658,
      "velocity": 111,
      "chip": "ym2612"
    },
    {
      "channel": 4,
      "note": 71,
      "start": 25.5203,
      "duration": 0.4048,
      "velocity": 106,
      "chip": "ym2612"
    },
    {
      "channel": 2,
      "note": 71,
      "start": 25.6033,
      "duration": 0.1665,
      "velocity": 111,
      "chip": "ym2612"
    },
    {
      "channel": 3,
      "note": 66,
      "start": 25.6037,
      "duration": 0.1664,
      "velocity": 111,
      "chip": "ym2612"
    },
    {
      "channel": 2,
      "note": 71,
      "start": 25.77,
      "duration": 0.1503,
      "velocity": 111,
      "chip": "ym2612"
    },
    {
      "channel": 3,
      "note": 66,
      "start": 25.7703,
      "duration": 0.1502,
      "velocity": 111,
      "chip": "ym2612"
    },
    {
      "channel": 0,
      "note": 78,
      "start": 25.92,
      "duration": 0.8691,
      "velocity": 106,
      "chip": "ym2612"
    },
    {
      "channel": 1,
      "note": 47,
      "start": 25.9202,
      "duration": 0.0136,
      "velocity": 103,
      "chip": "ym2612"
    },
    {
      "channel": 2,
      "note": 71,
      "start": 25.9204,
      "duration": 0.0089,
      "velocity": 111,
      "chip": "ym2612"
    },
    {
      "channel": 3,
      "note": 66,
      "start": 25.9206,
      "duration": 0.009,
      "velocity": 111,
      "chip": "ym2612"
    },
    {
      "channel": 4,
      "note": 78,
      "start": 25.9254,
      "duration": 0.9308,
      "velocity": 106,
      "chip": "ym2612"
    },
    {
      "channel": 2,
      "note": 71,
      "start": 25.9296,
      "duration": 0.0079,
      "velocity": 111,
      "chip": "ym2612"
    },
    {
      "channel": 3,
      "note": 66,
      "start": 25.9298,
      "duration": 0.0079,
      "velocity": 111,
      "chip": "ym2612"
    },
    {
      "channel": 2,
      "note": 71,
      "start": 25.9376,
      "duration": 0.0089,
      "velocity": 111,
      "chip": "ym2612"
    },
    {
      "channel": 3,
      "note": 66,
      "start": 25.9378,
      "duration": 0.0089,
      "velocity": 111,
      "chip": "ym2612"
    },
    {
      "channel": 1,
      "note": 47,
      "start": 25.9464,
      "duration": 0.1094,
      "velocity": 103,
      "chip": "ym2612"
    },
    {
      "channel": 2,
      "note": 71,
      "start": 25.9467,
      "duration": 0.0425,
      "velocity": 111,
      "chip": "ym2612"
    },
    {
      "channel": 3,
      "note": 66,
      "start": 25.9469,
      "duration": 0.0425,
      "velocity": 111,
      "chip": "ym2612"
    },
    {
      "channel": 2,
      "note": 71,
      "start": 25.9894,
      "duration": 0.1498,
      "velocity": 111,
      "chip": "ym2612"
    },
    {
      "channel": 3,
      "note": 66,
      "start": 25.9897,
      "duration": 0.1498,
      "velocity": 111,
      "chip": "ym2612"
    },
    {
      "channel": 2,
      "note": 71,
      "start": 26.1394,
      "duration": 0.1667,
      "velocity": 111,
      "chip": "ym2612"
    },
    {
      "channel": 3,
      "note": 66,
      "start": 26.1397,
      "duration": 0.1667,
      "velocity": 111,
      "chip": "ym2612"
    },
    {
      "channel": 1,
      "note": 47,
      "start": 26.306,
      "duration": 0.2332,
      "velocity": 103,
      "chip": "ym2612"
    },
    {
      "channel": 2,
      "note": 71,
      "start": 26.3063,
      "duration": 0.1495,
      "velocity": 111,
      "chip": "ym2612"
    },
    {
      "channel": 3,
      "note": 66,
      "start": 26.3066,
      "duration": 0.1496,
      "velocity": 111,
      "chip": "ym2612"
    },
    {
      "channel": 2,
      "note": 71,
      "start": 26.4561,
      "duration": 0.1665,
      "velocity": 111,
      "chip": "ym2612"
    },
    {
      "channel": 3,
      "note": 66,
      "start": 26.4564,
      "duration": 0.1664,
      "velocity": 111,
      "chip": "ym2612"
    },
    {
      "channel": 2,
      "note": 71,
      "start": 26.6227,
      "duration": 0.1671,
      "velocity": 111,
      "chip": "ym2612"
    },
    {
      "channel": 3,
      "note": 66,
      "start": 26.623,
      "duration": 0.167,
      "velocity": 111,
      "chip": "ym2612"
    },
    {
      "channel": 0,
      "note": 80,
      "start": 26.7894,
      "duration": 0.8522,
      "velocity": 106,
      "chip": "ym2612"
    },
    {
      "channel": 1,
      "note": 44,
      "start": 26.7896,
      "duration": 0.1495,
      "velocity": 103,
      "chip": "ym2612"
    },
    {
      "channel": 2,
      "note": 68,
      "start": 26.79,
      "duration": 0.1494,
      "velocity": 111,
      "chip": "ym2612"
    },
    {
      "channel": 3,
      "note": 63,
      "start": 26.7903,
      "duration": 0.1494,
      "velocity": 111,
      "chip": "ym2612"
    },
    {
      "channel": 4,
      "note": 80,
      "start": 26.8564,
      "duration": 0.8689,
      "velocity": 106,
      "chip": "ym2612"
    },
    {
      "channel": 1,
      "note": 45,
      "start": 26.9393,
      "duration": 0.1665,
      "velocity": 103,
      "chip": "ym2612"
    },
    {
      "channel": 2,
      "note": 68,
      "start": 26.9396,
      "duration": 0.1664,
      "velocity": 111,
      "chip": "ym2612"
    },
    {
      "channel": 3,
      "note": 63,
      "start": 26.94,
      "duration": 0.1664,
      "velocity": 111,
      "chip": "ym2612"
    },
    {
      "channel": 1,
      "note": 44,
      "start": 27.106,
      "duration": 0.15,
      "velocity": 103,
      "chip": "ym2612"
    },
    {
      "channel": 2,
      "note": 68,
      "start": 27.1063,
      "duration": 0.15,
      "velocity": 111,
      "chip": "ym2612"
    },
    {
      "channel": 3,
      "note": 63,
      "start": 27.1066,
      "duration": 0.1499,
      "velocity": 111,
      "chip": "ym2612"
    },
    {
      "channel": 1,
      "note": 44,
      "start": 27.2562,
      "duration": 0.0071,
      "velocity": 103,
      "chip": "ym2612"
    },
    {
      "channel": 2,
      "note": 68,
      "start": 27.2565,
      "duration": 0.0087,
      "velocity": 111,
      "chip": "ym2612"
    },
    {
      "channel": 3,
      "note": 63,
      "start": 27.2567,
      "duration": 0.0088,
      "velocity": 111,
      "chip": "ym2612"
    },
    {
      "channel": 2,
      "note": 68,
      "start": 27.2654,
      "duration": 0.0086,
      "velocity": 111,
      "chip": "ym2612"
    },
    {
      "channel": 3,
      "note": 63,
      "start": 27.2656,
      "duration": 0.0085,
      "velocity": 111,
      "chip": "ym2612"
    },
    {
      "channel": 1,
      "note": 45,
      "start": 27.2738,
      "duration": 0.0083,
      "velocity": 103,
      "chip": "ym2612"
    },
    {
      "channel": 2,
      "note": 68,
      "start": 27.274,
      "duration": 0.0083,
      "velocity": 111,
      "chip": "ym2612"
    },
    {
      "channel": 3,
      "note": 63,
      "start": 27.2744,
      "duration": 0.0082,
      "velocity": 111,
      "chip": "ym2612"
    },
    {
      "channel": 1,
      "note": 44,
      "start": 27.2823,
      "duration": 0.0063,
      "velocity": 103,
      "chip": "ym2612"
    },
    {
      "channel": 2,
      "note": 68,
      "start": 27.2825,
      "duration": 0.0426,
      "velocity": 111,
      "chip": "ym2612"
    },
    {
      "channel": 3,
      "note": 63,
      "start": 27.2828,
      "duration": 0.0425,
      "velocity": 111,
      "chip": "ym2612"
    },
    {
      "channel": 2,
      "note": 69,
      "start": 27.3253,
      "duration": 0.1498,
      "velocity": 111,
      "chip": "ym2612"
    },
    {
      "channel": 3,
      "note": 64,
      "start": 27.3256,
      "duration": 0.1498,
      "velocity": 111,
      "chip": "ym2612"
    },
    {
      "channel": 2,
      "note": 70,
      "start": 27.4753,
      "duration": 0.1666,
      "velocity": 111,
      "chip": "ym2612"
    },
    {
      "channel": 3,
      "note": 65,
      "start": 27.4756,
      "duration": 0.1665,
      "velocity": 111,
      "chip": "ym2612"
    },
    {
      "channel": 0,
      "note": 80,
      "start": 27.6417,
      "duration": 0.4833,
      "velocity": 106,
      "chip": "ym2612"
    },
    {
      "channel": 2,
      "note": 71,
      "start": 27.642,
      "duration": 0.1663,
      "velocity": 111,
      "chip": "ym2612"
    },
    {
      "channel": 3,
      "note": 66,
      "start": 27.6424,
      "duration": 0.1663,
      "velocity": 111,
      "chip": "ym2612"
    },
    {
      "channel": 4,
      "note": 80,
      "start": 27.7256,
      "duration": 0.4831,
      "velocity": 106,
      "chip": "ym2612"
    },
    {
      "channel": 2,
      "note": 72,
      "start": 27.8086,
      "duration": 0.1498,
      "velocity": 111,
      "chip": "ym2612"
    },
    {
      "channel": 3,
      "note": 67,
      "start": 27.8089,
      "duration": 0.1498,
      "velocity": 111,
      "chip": "ym2612"
    },
    {
      "channel": 2,
      "note": 73,
      "start": 27.9586,
      "duration": 0.1671,
      "velocity": 111,
      "chip": "ym2612"
    },
    {
      "channel": 3,
      "note": 68,
      "start": 27.9589,
      "duration": 0.1671,
      "velocity": 111,
      "chip": "ym2612"
    },
    {
      "channel": 0,
      "note": 81,
      "start": 28.1253,
      "duration": 0.5063,
      "velocity": 106,
      "chip": "ym2612"
    },
    {
      "channel": 1,
      "note": 45,
      "start": 28.1256,
      "duration": 0.2328,
      "velocity": 103,
      "chip": "ym2612"
    },
    {
      "channel": 2,
      "note": 69,
      "start": 28.126,
      "duration": 0.1491,
      "velocity": 111,
      "chip": "ym2612"
    },
    {
      "channel": 3,
      "note": 64,
      "start": 28.1263,
      "duration": 0.149,
      "velocity": 111,
      "chip": "ym2612"
    },
    {
      "channel": 4,
      "note": 81,
      "start": 28.209,
      "duration": 0.4276,
      "velocity": 106,
      "chip": "ym2612"
    },
    {
      "channel": 2,
      "note": 69,
      "start": 28.2753,
      "duration": 0.1665,
      "velocity": 111,
      "chip": "ym2612"
    },
    {
      "channel": 3,
      "note": 64,
      "start": 28.2756,
      "duration": 0.1664,
      "velocity": 111,
      "chip": "ym2612"
    },
    {
      "channel": 2,
      "note": 69,
      "start": 28.4419,
      "duration": 0.1668,
      "velocity": 111,
      "chip": "ym2612"
    },
    {
      "channel": 3,
      "note": 64,
      "start": 28.4422,
      "duration": 0.1668,
      "velocity": 111,
      "chip": "ym2612"
    },
    {
      "channel": 1,
      "note": 45,
      "start": 28.6087,
      "duration": 0.0117,
      "velocity": 103,
      "chip": "ym2612"
    },
    {
      "channel": 2,
      "note": 69,
      "start": 28.6089,
      "duration": 0.0072,
      "velocity": 111,
      "chip": "ym2612"
    },
    {
      "channel": 3,
      "note": 64,
      "start": 28.6092,
      "duration": 0.0071,
      "velocity": 111,
      "chip": "ym2612"
    },
    {
      "channel": 2,
      "note": 69,
      "start": 28.6163,
      "duration": 0.0081,
      "velocity": 111,
      "chip": "ym2612"
    },
    {
      "channel": 3,
      "note": 64,
      "start": 28.6166,
      "duration": 0.008,
      "velocity": 111,
      "chip": "ym2612"
    },
    {
      "channel": 2,
      "note": 69,
      "start": 28.6246,
      "duration": 0.0075,
      "velocity": 111,
      "chip": "ym2612"
    },
    {
      "channel": 3,
      "note": 64,
      "start": 28.6249,
      "duration": 0.0075,
      "velocity": 111,
      "chip": "ym2612"
    },
    {
      "channel": 0,
      "note": 76,
      "start": 28.6318,
      "duration": 0.8266,
      "velocity": 106,
      "chip": "ym2612"
    },
    {
      "channel": 1,
      "note": 45,
      "start": 28.632,
      "duration": 0.1097,
      "velocity": 103,
      "chip": "ym2612"
    },
    {
      "channel": 2,
      "note": 69,
      "start": 28.6322,
      "duration": 0.0262,
      "velocity": 111,
      "chip": "ym2612"
    },
    {
      "channel": 3,
      "note": 64,
      "start": 28.6325,
      "duration": 0.0262,
      "velocity": 111,
      "chip": "ym2612"
    },
    {
      "channel": 4,
      "note": 76,
      "start": 28.6367,
      "duration": 0.9054,
      "velocity": 106,
      "chip": "ym2612"
    },
    {
      "channel": 2,
      "note": 69,
      "start": 28.6586,
      "duration": 0.1665,
      "velocity": 111,
      "chip": "ym2612"
    },
    {
      "channel": 3,
      "note": 64,
      "start": 28.6589,
      "duration": 0.1664,
      "velocity": 111,
      "chip": "ym2612"
    },
    {
      "channel": 2,
      "note": 69,
      "start": 28.8253,
      "duration": 0.15,
      "velocity": 111,
      "chip": "ym2612"
    },
    {
      "channel": 3,
      "note": 64,
      "start": 28.8256,
      "duration": 0.15,
      "velocity": 111,
      "chip": "ym2612"
    },
    {
      "channel": 1,
      "note": 45,
      "start": 28.9752,
      "duration": 0.2498,
      "velocity": 103,
      "chip": "ym2612"
    },
    {
      "channel": 2,
      "note": 69,
      "start": 28.9755,
      "duration": 0.1662,
      "velocity": 111,
      "chip": "ym2612"
    },
    {
      "channel": 3,
      "note": 64,
      "start": 28.9758,
      "duration": 0.1662,
      "velocity": 111,
      "chip": "ym2612"
    },
    {
      "channel": 2,
      "note": 69,
      "start": 29.142,
      "duration": 0.1498,
      "velocity": 111,
      "chip": "ym2612"
    },
    {
      "channel": 3,
      "note": 64,
      "start": 29.1423,
      "duration": 0.1498,
      "velocity": 111,
      "chip": "ym2612"
    },
    {
      "channel": 2,
      "note": 69,
      "start": 29.292,
      "duration": 0.167,
      "velocity": 111,
      "chip": "ym2612"
    },
    {
      "channel": 3,
      "note": 64,
      "start": 29.2923,
      "duration": 0.1669,
      "velocity": 111,
      "chip": "ym2612"
    },
    {
      "channel": 0,
      "note": 85,
      "start": 29.4585,
      "duration": 0.5071,
      "velocity": 106,
      "chip": "ym2612"
    },
    {
      "channel": 1,
      "note": 45,
      "start": 29.4589,
      "duration": 0.2328,
      "velocity": 103,
      "chip": "ym2612"
    },
    {
      "channel": 2,
      "note": 69,
      "start": 29.4591,
      "duration": 0.166,
      "velocity": 111,
      "chip": "ym2612"
    },
    {
      "channel": 3,
      "note": 64,
      "start": 29.4594,
      "duration": 0.1659,
      "velocity": 111,
      "chip": "ym2612"
    },
    {
      "channel": 4,
      "note": 85,
      "start": 29.5423,
      "duration": 0.4275,
      "velocity": 106,
      "chip": "ym2612"
    },
    {
      "channel": 2,
      "note": 69,
      "start": 29.6253,
      "duration": 0.1498,
      "velocity": 111,
      "chip": "ym2612"
    },
    {
      "channel": 3,
      "note": 64,
      "start": 29.6256,
      "duration": 0.1498,
      "velocity": 111,
      "chip": "ym2612"
    },
    {
      "channel": 2,
      "note": 69,
      "start": 29.7753,
      "duration": 0.1668,
      "velocity": 111,
      "chip": "ym2612"
    },
    {
      "channel": 3,
      "note": 64,
      "start": 29.7756,
      "duration": 0.1668,
      "velocity": 111,
      "chip": "ym2612"
    },
    {
      "channel": 1,
      "note": 45,
      "start": 29.942,
      "duration": 0.0119,
      "velocity": 103,
      "chip": "ym2612"
    },
    {
      "channel": 2,
      "note": 73,
      "start": 29.9423,
      "duration": 0.0072,
      "velocity": 111,
      "chip": "ym2612"
    },
    {
      "channel": 3,
      "note": 69,
      "start": 29.9426,
      "duration": 0.0072,
      "velocity": 111,
      "chip": "ym2612"
    },
    {
      "channel": 2,
      "note": 73,
      "start": 29.9498,
      "duration": 0.0079,
      "velocity": 111,
      "chip": "ym2612"
    },
    {
      "channel": 3,
      "note": 69,
      "start": 29.95,
      "duration": 0.0079,
      "velocity": 111,
      "chip": "ym2612"
    },
    {
      "channel": 2,
      "note": 73,
      "start": 29.9578,
      "duration": 0.0084,
      "velocity": 111,
      "chip": "ym2612"
    },
    {
      "channel": 3,
      "note": 69,
      "start": 29.958,
      "duration": 0.0084,
      "velocity": 111,
      "chip": "ym2612"
    },
    {
      "channel": 0,
      "note": 83,
      "start": 29.9658,
      "duration": 0.3422,
      "velocity": 106,
      "chip": "ym2612"
    },
    {
      "channel": 1,
      "note": 45,
      "start": 29.9661,
      "duration": 0.1087,
      "velocity": 103,
      "chip": "ym2612"
    },
    {
      "channel": 2,
      "note": 71,
      "start": 29.9663,
      "duration": 0.0252,
      "velocity": 111,
      "chip": "ym2612"
    },
    {
      "channel": 3,
      "note": 68,
      "start": 29.9667,
      "duration": 0.0251,
      "velocity": 111,
      "chip": "ym2612"
    },
    {
      "channel": 4,
      "note": 83,
      "start": 29.97,
      "duration": 0.4219,
      "velocity": 106,
      "chip": "ym2612"
    },
    {
      "channel": 2,
      "note": 71,
      "start": 29.9917,
      "duration": 0.1665,
      "velocity": 111,
      "chip": "ym2612"
    },
    {
      "channel": 3,
      "note": 68,
      "start": 29.9921,
      "duration": 0.1664,
      "velocity": 111,
      "chip": "ym2612"
    },
    {
      "channel": 2,
      "note": 71,
      "start": 30.1584,
      "duration": 0.1501,
      "velocity": 111,
      "chip": "ym2612"
    },
    {
      "channel": 3,
      "note": 68,
      "start": 30.1587,
      "duration": 0.1501,
      "velocity": 111,
      "chip": "ym2612"
    },
    {
      "channel": 0,
      "note": 81,
      "start": 30.3082,
      "duration": 0.4833,
      "velocity": 106,
      "chip": "ym2612"
    },
    {
      "channel": 1,
      "note": 45,
      "start": 30.3085,
      "duration": 0.2497,
      "velocity": 103,
      "chip": "ym2612"
    },
    {
      "channel": 2,
      "note": 69,
      "start": 30.3088,
      "duration": 0.1661,
      "velocity": 111,
      "chip": "ym2612"
    },
    {
      "channel": 3,
      "note": 64,
      "start": 30.3091,
      "duration": 0.166,
      "velocity": 111,
      "chip": "ym2612"
    },
    {
      "channel": 4,
      "note": 81,
      "start": 30.3921,
      "duration": 0.4831,
      "velocity": 106,
      "chip": "ym2612"
    },
    {
      "channel": 2,
      "note": 69,
      "start": 30.4751,
      "duration": 0.1665,
      "velocity": 111,
      "chip": "ym2612"
    },
    {
      "channel": 3,
      "note": 64,
      "start": 30.4754,
      "duration": 0.1664,
      "velocity": 111,
      "chip": "ym2612"
    },
    {
      "channel": 2,
      "note": 69,
      "start": 30.6417,
      "duration": 0.1503,
      "velocity": 111,
      "chip": "ym2612"
    },
    {
      "channel": 3,
      "note": 64,
      "start": 30.6421,
      "duration": 0.1502,
      "velocity": 111,
      "chip": "ym2612"
    },
    {
      "channel": 0,
      "note": 80,
      "start": 30.7917,
      "duration": 0.1163,
      "velocity": 106,
      "chip": "ym2612"
    },
    {
      "channel": 1,
      "note": 52,
      "start": 30.792,
      "duration": 0.2496,
      "velocity": 103,
      "chip": "ym2612"
    },
    {
      "channel": 2,
      "note": 76,
      "start": 30.7922,
      "duration": 0.166,
      "velocity": 111,
      "chip": "ym2612"
    },
    {
      "channel": 3,
      "note": 71,
      "start": 30.7926,
      "duration": 0.1659,
      "velocity": 111,
      "chip": "ym2612"
    },
    {
      "channel": 4,
      "note": 80,
      "start": 30.8754,
      "duration": 0.1165,
      "velocity": 106,
      "chip": "ym2612"
    },
    {
      "channel": 0,
      "note": 81,
      "start": 30.9082,
      "duration": 0.1332,
      "velocity": 106,
      "chip": "ym2612"
    },
    {
      "channel": 2,
      "note": 76,
      "start": 30.9584,
      "duration": 0.1498,
      "velocity": 111,
      "chip": "ym2612"
    },
    {
      "channel": 3,
      "note": 71,
      "start": 30.9587,
      "duration": 0.1498,
      "velocity": 111,
      "chip": "ym2612"
    },
    {
      "channel": 4,
      "note": 81,
      "start": 30.9921,
      "duration": 0.1167,
      "velocity": 106,
      "chip": "ym2612"
    },
    {
      "channel": 0,
      "note": 83,
      "start": 31.0415,
      "duration": 0.8502,
      "velocity": 106,
      "chip": "ym2612"
    },
    {
      "channel": 2,
      "note": 76,
      "start": 31.1084,
      "duration": 0.1668,
      "velocity": 111,
      "chip": "ym2612"
    },
    {
      "channel": 3,
      "note": 71,
      "start": 31.1087,
      "duration": 0.1668,
      "velocity": 111,
      "chip": "ym2612"
    },
    {
      "channel": 4,
      "note": 83,
      "start": 31.109,
      "duration": 0.8668,
      "velocity": 106,
      "chip": "ym2612"
    },
    {
      "channel": 1,
      "note": 52,
      "start": 31.2752,
      "duration": 0.0119,
      "velocity": 103,
      "chip": "ym2612"
    },
    {
      "channel": 2,
      "note": 76,
      "start": 31.2754,
      "duration": 0.0081,
      "velocity": 111,
      "chip": "ym2612"
    },
    {
      "channel": 3,
      "note": 71,
      "start": 31.2757,
      "duration": 0.008,
      "velocity": 111,
      "chip": "ym2612"
    },
    {
      "channel": 2,
      "note": 76,
      "start": 31.2837,
      "duration": 0.0075,
      "velocity": 111,
      "chip": "ym2612"
    },
    {
      "channel": 3,
      "note": 71,
      "start": 31.2839,
      "duration": 0.0075,
      "velocity": 111,
      "chip": "ym2612"
    },
    {
      "channel": 2,
      "note": 76,
      "start": 31.2913,
      "duration": 0.0083,
      "velocity": 111,
      "chip": "ym2612"
    },
    {
      "channel": 3,
      "note": 71,
      "start": 31.2915,
      "duration": 0.0084,
      "velocity": 111,
      "chip": "ym2612"
    },
    {
      "channel": 1,
      "note": 52,
      "start": 31.2996,
      "duration": 0.1089,
      "velocity": 103,
      "chip": "ym2612"
    },
    {
      "channel": 2,
      "note": 76,
      "start": 31.2998,
      "duration": 0.0253,
      "velocity": 111,
      "chip": "ym2612"
    },
    {
      "channel": 3,
      "note": 71,
      "start": 31.3002,
      "duration": 0.0253,
      "velocity": 111,
      "chip": "ym2612"
    },
    {
      "channel": 2,
      "note": 76,
      "start": 31.3254,
      "duration": 0.1665,
      "velocity": 111,
      "chip": "ym2612"
    },
    {
      "channel": 3,
      "note": 71,
      "start": 31.3257,
      "duration": 0.1664,
      "velocity": 111,
      "chip": "ym2612"
    },
    {
      "channel": 2,
      "note": 76,
      "start": 31.492,
      "duration": 0.1667,
      "velocity": 111,
      "chip": "ym2612"
    },
    {
      "channel": 3,
      "note": 71,
      "start": 31.4924,
      "duration": 0.1667,
      "velocity": 111,
      "chip": "ym2612"
    },
    {
      "channel": 1,
      "note": 52,
      "start": 31.6586,
      "duration": 0.2332,
      "velocity": 103,
      "chip": "ym2612"
    },
    {
      "channel": 2,
      "note": 76,
      "start": 31.659,
      "duration": 0.1495,
      "velocity": 111,
      "chip": "ym2612"
    },
    {
      "channel": 3,
      "note": 71,
      "start": 31.6592,
      "duration": 0.1496,
      "velocity": 111,
      "chip": "ym2612"
    },
    {
      "channel": 2,
      "note": 76,
      "start": 31.8087,
      "duration": 0.1665,
      "velocity": 111,
      "chip": "ym2612"
    },
    {
      "channel": 3,
      "note": 71,
      "start": 31.809,
      "duration": 0.1664,
      "velocity": 111,
      "chip": "ym2612"
    },
    {
      "channel": 0,
      "note": 83,
      "start": 31.8918,
      "duration": 0.2334,
      "velocity": 106,
      "chip": "ym2612"
    },
    {
      "channel": 2,
      "note": 76,
      "start": 31.9754,
      "duration": 0.1502,
      "velocity": 111,
      "chip": "ym2612"
    },
    {
      "channel": 3,
      "note": 71,
      "start": 31.9757,
      "duration": 0.1502,
      "velocity": 111,
      "chip": "ym2612"
    },
    {
      "channel": 4,
      "note": 83,
      "start": 31.9759,
      "duration": 0.2331,
      "velocity": 106,
      "chip": "ym2612"
    },
    {
      "channel": 0,
      "note": 83,
      "start": 32.1252,
      "duration": 0.867,
      "velocity": 106,
      "chip": "ym2612"
    },
    {
      "channel": 1,
      "note": 52,
      "start": 32.1256,
      "duration": 0.2496,
      "velocity": 103,
      "chip": "ym2612"
    },
    {
      "channel": 2,
      "note": 76,
      "start": 32.1258,
      "duration": 0.166,
      "velocity": 111,
      "chip": "ym2612"
    },
    {
      "channel": 3,
      "note": 71,
      "start": 32.1261,
      "duration": 0.166,
      "velocity": 111,
      "chip": "ym2612"
    },
    {
      "channel": 4,
      "note": 83,
      "start": 32.209,
      "duration": 0.8671,
      "velocity": 106,
      "chip": "ym2612"
    },
    {
      "channel": 2,
      "note": 76,
      "start": 32.292,
      "duration": 0.1665,
      "velocity": 111,
      "chip": "ym2612"
    },
    {
      "channel": 3,
      "note": 71,
      "start": 32.2924,
      "duration": 0.1664,
      "velocity": 111,
      "chip": "ym2612"
    },
    {
      "channel": 2,
      "note": 76,
      "start": 32.4587,
      "duration": 0.1502,
      "velocity": 111,
      "chip": "ym2612"
    },
    {
      "channel": 3,
      "note": 71,
      "start": 32.459,
      "duration": 0.1501,
      "velocity": 111,
      "chip": "ym2612"
    },
    {
      "channel": 1,
      "note": 52,
      "start": 32.6088,
      "duration": 0.0127,
      "velocity": 103,
      "chip": "ym2612"
    },
    {
      "channel": 2,
      "note": 80,
      "start": 32.609,
      "duration": 0.0081,
      "velocity": 111,
      "chip": "ym2612"
    },
    {
      "channel": 3,
      "note": 76,
      "start": 32.6093,
      "duration": 0.0081,
      "velocity": 111,
      "chip": "ym2612"
    },
    {
      "channel": 2,
      "note": 80,
      "start": 32.6174,
      "duration": 0.0074,
      "velocity": 111,
      "chip": "ym2612"
    },
    {
      "channel": 3,
      "note": 76,
      "start": 32.6177,
      "duration": 0.0073,
      "velocity": 111,
      "chip": "ym2612"
    },
    {
      "channel": 2,
      "note": 80,
      "start": 32.625,
      "duration": 0.0083,
      "velocity": 111,
      "chip": "ym2612"
    },
    {
      "channel": 3,
      "note": 76,
      "start": 32.6252,
      "duration": 0.0083,
      "velocity": 111,
      "chip": "ym2612"
    },
    {
      "channel": 1,
      "note": 52,
      "start": 32.6332,
      "duration": 0.1091,
      "velocity": 103,
      "chip": "ym2612"
    },
    {
      "channel": 2,
      "note": 78,
      "start": 32.6334,
      "duration": 0.0423,
      "velocity": 111,
      "chip": "ym2612"
    },
    {
      "channel": 3,
      "note": 75,
      "start": 32.6337,
      "duration": 0.0424,
      "velocity": 111,
      "chip": "ym2612"
    },
    {
      "channel": 2,
      "note": 78,
      "start": 32.6759,
      "duration": 0.1498,
      "velocity": 111,
      "chip": "ym2612"
    },
    {
      "channel": 3,
      "note": 75,
      "start": 32.6763,
      "duration": 0.1498,
      "velocity": 111,
      "chip": "ym2612"
    },
    {
      "channel": 2,
      "note": 78,
      "start": 32.8259,
      "duration": 0.1668,
      "velocity": 111,
      "chip": "ym2612"
    },
    {
      "channel": 3,
      "note": 75,
      "start": 32.8263,
      "duration": 0.1668,
      "velocity": 111,
      "chip": "ym2612"
    },
    {
      "channel": 0,
      "note": 80,
      "start": 32.9924,
      "duration": 0.4833,
      "velocity": 106,
      "chip": "ym2612"
    },
    {
      "channel": 1,
      "note": 52,
      "start": 32.9927,
      "duration": 0.233,
      "velocity": 103,
      "chip": "ym2612"
    },
    {
      "channel": 2,
      "note": 76,
      "start": 32.993,
      "duration": 0.1494,
      "velocity": 111,
      "chip": "ym2612"
    },
    {
      "channel": 3,
      "note": 71,
      "start": 32.9933,
      "duration": 0.1494,
      "velocity": 111,
      "chip": "ym2612"
    },
    {
      "channel": 4,
      "note": 80,
      "start": 33.0763,
      "duration": 0.4665,
      "velocity": 106,
      "chip": "ym2612"
    },
    {
      "channel": 2,
      "note": 76,
      "start": 33.1426,
      "duration": 0.1665,
      "velocity": 111,
      "chip": "ym2612"
    },
    {
      "channel": 3,
      "note": 71,
      "start": 33.1429,
      "duration": 0.1664,
      "velocity": 111,
      "chip": "ym2612"
    },
    {
      "channel": 2,
      "note": 76,
      "start": 33.3093,
      "duration": 0.167,
      "velocity": 111,
      "chip": "ym2612"
    },
    {
      "channel": 3,
      "note": 71,
      "start": 33.3096,
      "duration": 0.167,
      "velocity": 111,
      "chip": "ym2612"
    },
    {
      "channel": 0,
      "note": 78,
      "start": 33.4759,
      "duration": 0.8502,
      "velocity": 106,
      "chip": "ym2612"
    },
    {
      "channel": 1,
      "note": 50,
      "start": 33.4762,
      "duration": 0.2328,
      "velocity": 103,
      "chip": "ym2612"
    },
    {
      "channel": 2,
      "note": 74,
      "start": 33.4765,
      "duration": 0.1492,
      "velocity": 111,
      "chip": "ym2612"
    },
    {
      "channel": 3,
      "note": 69,
      "start": 33.4768,
      "duration": 0.1493,
      "velocity": 111,
      "chip": "ym2612"
    },
    {
      "channel": 4,
      "note": 78,
      "start": 33.543,
      "duration": 0.867,
      "velocity": 106,
      "chip": "ym2612"
    },
    {
      "channel": 2,
      "note": 74,
      "start": 33.6259,
      "duration": 0.1665,
      "velocity": 111,
      "chip": "ym2612"
    },
    {
      "channel": 3,
      "note": 69,
      "start": 33.6263,
      "duration": 0.1664,
      "velocity": 111,
      "chip": "ym2612"
    },
    {
      "channel": 2,
      "note": 74,
      "start": 33.7926,
      "duration": 0.1502,
      "velocity": 111,
      "chip": "ym2612"
    },
    {
      "channel": 3,
      "note": 69,
      "start": 33.7929,
      "duration": 0.1501,
      "velocity": 111,
      "chip": "ym2612"
    },
    {
      "channel": 1,
      "note": 50,
      "start": 33.9427,
      "duration": 0.0129,
      "velocity": 103,
      "chip": "ym2612"
    },
    {
      "channel": 2,
      "note": 74,
      "start": 33.9429,
      "duration": 0.0084,
      "velocity": 111,
      "chip": "ym2612"
    },
    {
      "channel": 3,
      "note": 69,
      "start": 33.9432,
      "duration": 0.0083,
      "velocity": 111,
      "chip": "ym2612"
    },
    {
      "channel": 2,
      "note": 74,
      "start": 33.9515,
      "duration": 0.0082,
      "velocity": 111,
      "chip": "ym2612"
    },
    {
      "channel": 3,
      "note": 69,
      "start": 33.9517,
      "duration": 0.0081,
      "velocity": 111,
      "chip": "ym2612"
    },
    {
      "channel": 2,
      "note": 74,
      "start": 33.9598,
      "duration": 0.0074,
      "velocity": 111,
      "chip": "ym2612"
    },
    {
      "channel": 3,
      "note": 69,
      "start": 33.9601,
      "duration": 0.0074,
      "velocity": 111,
      "chip": "ym2612"
    },
    {
      "channel": 1,
      "note": 50,
      "start": 33.9672,
      "duration": 0.1258,
      "velocity": 103,
      "chip": "ym2612"
    },
    {
      "channel": 2,
      "note": 74,
      "start": 33.9675,
      "duration": 0.0422,
      "velocity": 111,
      "chip": "ym2612"
    },
    {
      "channel": 3,
      "note": 69,
      "start": 33.9677,
      "duration": 0.0423,
      "velocity": 111,
      "chip": "ym2612"
    },
    {
      "channel": 2,
      "note": 74,
      "start": 34.0099,
      "duration": 0.1498,
      "velocity": 111,
      "chip": "ym2612"
    },
    {
      "channel": 3,
      "note": 69,
      "start": 34.0102,
      "duration": 0.1498,
      "velocity": 111,
      "chip": "ym2612"
    },
    {
      "channel": 2,
      "note": 74,
      "start": 34.1599,
      "duration": 0.1668,
      "velocity": 111,
      "chip": "ym2612"
    },
    {
      "channel": 3,
      "note": 69,
      "start": 34.1602,
      "duration": 0.1668,
      "velocity": 111,
      "chip": "ym2612"
    },
    {
      "channel": 0,
      "note": 78,
      "start": 34.3263,
      "duration": 0.2332,
      "velocity": 106,
      "chip": "ym2612"
    },
    {
      "channel": 1,
      "note": 50,
      "start": 34.3266,
      "duration": 0.2331,
      "velocity": 103,
      "chip": "ym2612"
    },
    {
      "channel": 2,
      "note": 69,
      "start": 34.3269,
      "duration": 0.1661,
      "velocity": 111,
      "chip": "ym2612"
    },
    {
      "channel": 3,
      "note": 66,
      "start": 34.3272,
      "duration": 0.1661,
      "velocity": 111,
      "chip": "ym2612"
    },
    {
      "channel": 4,
      "note": 78,
      "start": 34.4102,
      "duration": 0.2335,
      "velocity": 106,
      "chip": "ym2612"
    },
    {
      "channel": 2,
      "note": 69,
      "start": 34.4932,
      "duration": 0.1499,
      "velocity": 111,
      "chip": "ym2612"
    },
    {
      "channel": 3,
      "note": 66,
      "start": 34.4935,
      "duration": 0.1499,
      "velocity": 111,
      "chip": "ym2612"
    },
    {
      "channel": 0,
      "note": 80,
      "start": 34.643,
      "duration": 0.1666,
      "velocity": 106,
      "chip": "ym2612"
    },
    {
      "channel": 2,
      "note": 69,
      "start": 34.6433,
      "duration": 0.1669,
      "velocity": 111,
      "chip": "ym2612"
    },
    {
      "channel": 3,
      "note": 66,
      "start": 34.6437,
      "duration": 0.1668,
      "velocity": 111,
      "chip": "ym2612"
    },
    {
      "channel": 4,
      "note": 80,
      "start": 34.7269,
      "duration": 0.1665,
      "velocity": 106,
      "chip": "ym2612"
    },
    {
      "channel": 0,
      "note": 81,
      "start": 34.8098,
      "duration": 0.5066,
      "velocity": 106,
      "chip": "ym2612"
    },
    {
      "channel": 1,
      "note": 50,
      "start": 34.8101,
      "duration": 0.2328,
      "velocity": 103,
      "chip": "ym2612"
    },
    {
      "channel": 2,
      "note": 74,
      "start": 34.8104,
      "duration": 0.1493,
      "velocity": 111,
      "chip": "ym2612"
    },
    {
      "channel": 3,
      "note": 69,
      "start": 34.8107,
      "duration": 0.1493,
      "velocity": 111,
      "chip": "ym2612"
    },
    {
      "channel": 4,
      "note": 81,
      "start": 34.8935,
      "duration": 0.4279,
      "velocity": 106,
      "chip": "ym2612"
    },
    {
      "channel": 2,
      "note": 74,
      "start": 34.9599,
      "duration": 0.1665,
      "velocity": 111,
      "chip": "ym2612"
    },
    {
      "channel": 3,
      "note": 69,
      "start": 34.9602,
      "duration": 0.1664,
      "velocity": 111,
      "chip": "ym2612"
    },
    {
      "channel": 2,
      "note": 74,
      "start": 35.1266,
      "duration": 0.1668,
      "velocity": 111,
      "chip": "ym2612"
    },
    {
      "channel": 3,
      "note": 69,
      "start": 35.1269,
      "duration": 0.1668,
      "velocity": 111,
      "chip": "ym2612"
    },
    {
      "channel": 1,
      "note": 50,
      "start": 35.2933,
      "duration": 0.012,
      "velocity": 103,
      "chip": "ym2612"
    },
    {
      "channel": 2,
      "note": 73,
      "start": 35.2936,
      "duration": 0.0074,
      "velocity": 111,
      "chip": "ym2612"
    },
    {
      "channel": 3,
      "note": 66,
      "start": 35.2938,
      "duration": 0.0074,
      "velocity": 111,
      "chip": "ym2612"
    },
    {
      "channel": 2,
      "note": 73,
      "start": 35.3011,
      "duration": 0.0082,
      "velocity": 111,
      "chip": "ym2612"
    },
    {
      "channel": 3,
      "note": 66,
      "start": 35.3013,
      "duration": 0.0082,
      "velocity": 111,
      "chip": "ym2612"
    },
    {
      "channel": 2,
      "note": 73,
      "start": 35.3095,
      "duration": 0.0074,
      "velocity": 111,
      "chip": "ym2612"
    },
    {
      "channel": 3,
      "note": 66,
      "start": 35.3098,
      "duration": 0.0073,
      "velocity": 111,
      "chip": "ym2612"
    },
    {
      "channel": 0,
      "note": 80,
      "start": 35.3166,
      "duration": 0.3432,
      "velocity": 106,
      "chip": "ym2612"
    },
    {
      "channel": 1,
      "note": 50,
      "start": 35.3168,
      "duration": 0.1098,
      "velocity": 103,
      "chip": "ym2612"
    },
    {
      "channel": 2,
      "note": 74,
      "start": 35.3171,
      "duration": 0.0262,
      "velocity": 111,
      "chip": "ym2612"
    },
    {
      "channel": 3,
      "note": 69,
      "start": 35.3174,
      "duration": 0.0262,
      "velocity": 111,
      "chip": "ym2612"
    },
    {
      "channel": 4,
      "note": 80,
      "start": 35.3216,
      "duration": 0.422,
      "velocity": 106,
      "chip": "ym2612"
    },
    {
      "channel": 2,
      "note": 74,
      "start": 35.3435,
      "duration": 0.1665,
      "velocity": 111,
      "chip": "ym2612"
    },
    {
      "channel": 3,
      "note": 69,
      "start": 35.3438,
      "duration": 0.1664,
      "velocity": 111,
      "chip": "ym2612"
    },
    {
      "channel": 2,
      "note": 74,
      "start": 35.5101,
      "duration": 0.1501,
      "velocity": 111,
      "chip": "ym2612"
    },
    {
      "channel": 3,
      "note": 69,
      "start": 35.5105,
      "duration": 0.1501,
      "velocity": 111,
      "chip": "ym2612"
    },
    {
      "channel": 0,
      "note": 78,
      "start": 35.6599,
      "duration": 0.4833,
      "velocity": 106,
      "chip": "ym2612"
    },
    {
      "channel": 1,
      "note": 50,
      "start": 35.6602,
      "duration": 0.2497,
      "velocity": 103,
      "chip": "ym2612"
    },
    {
      "channel": 2,
      "note": 76,
      "start": 35.6605,
      "duration": 0.1661,
      "velocity": 111,
      "chip": "ym2612"
    },
    {
      "channel": 3,
      "note": 73,
      "start": 35.6608,
      "duration": 0.166,
      "velocity": 111,
      "chip": "ym2612"
    },
    {
      "channel": 4,
      "note": 78,
      "start": 35.7438,
      "duration": 0.4831,
      "velocity": 106,
      "chip": "ym2612"
    },
    {
      "channel": 2,
      "note": 76,
      "start": 35.8268,
      "duration": 0.1498,
      "velocity": 111,
      "chip": "ym2612"
    },
    {
      "channel": 3,
      "note": 73,
      "start": 35.8271,
      "duration": 0.1498,
      "velocity": 111,
      "chip": "ym2612"
    },
    {
      "channel": 2,
      "note": 76,
      "start": 35.9768,
      "duration": 0.167,
      "velocity": 111,
      "chip": "ym2612"
    },
    {
      "channel": 3,
      "note": 73,
      "start": 35.9771,
      "duration": 0.167,
      "velocity": 111,
      "chip": "ym2612"
    },
    {
      "channel": 0,
      "note": 76,
      "start": 36.1434,
      "duration": 0.8495,
      "velocity": 106,
      "chip": "ym2612"
    },
    {
      "channel": 1,
      "note": 49,
      "start": 36.1437,
      "duration": 0.2328,
      "velocity": 103,
      "chip": "ym2612"
    },
    {
      "channel": 2,
      "note": 73,
      "start": 36.144,
      "duration": 0.1659,
      "velocity": 111,
      "chip": "ym2612"
    },
    {
      "channel": 3,
      "note": 68,
      "start": 36.1443,
      "duration": 0.1659,
      "velocity": 111,
      "chip": "ym2612"
    },
    {
      "channel": 4,
      "note": 76,
      "start": 36.2271,
      "duration": 0.8496,
      "velocity": 106,
      "chip": "ym2612"
    },
    {
      "channel": 2,
      "note": 73,
      "start": 36.3101,
      "duration": 0.1498,
      "velocity": 111,
      "chip": "ym2612"
    },
    {
      "channel": 3,
      "note": 68,
      "start": 36.3105,
      "duration": 0.1498,
      "velocity": 111,
      "chip": "ym2612"
    },
    {
      "channel": 2,
      "note": 73,
      "start": 36.4601,
      "duration": 0.1668,
      "velocity": 111,
      "chip": "ym2612"
    },
    {
      "channel": 3,
      "note": 68,
      "start": 36.4605,
      "duration": 0.1668,
      "velocity": 111,
      "chip": "ym2612"
    },
    {
      "channel": 1,
      "note": 49,
      "start": 36.6269,
      "duration": 0.0119,
      "velocity": 103,
      "chip": "ym2612"
    },
    {
      "channel": 2,
      "note": 73,
      "start": 36.6271,
      "duration": 0.0072,
      "velocity": 111,
      "chip": "ym2612"
    },
    {
      "channel": 3,
      "note": 68,
      "start": 36.6274,
      "duration": 0.0072,
      "velocity": 111,
      "chip": "ym2612"
    },
    {
      "channel": 2,
      "note": 73,
      "start": 36.6346,
      "duration": 0.0079,
      "velocity": 111,
      "chip": "ym2612"
    },
    {
      "channel": 3,
      "note": 68,
      "start": 36.6348,
      "duration": 0.0079,
      "velocity": 111,
      "chip": "ym2612"
    },
    {
      "channel": 2,
      "note": 73,
      "start": 36.6427,
      "duration": 0.0082,
      "velocity": 111,
      "chip": "ym2612"
    },
    {
      "channel": 3,
      "note": 68,
      "start": 36.6429,
      "duration": 0.0082,
      "velocity": 111,
      "chip": "ym2612"
    },
    {
      "channel": 1,
      "note": 49,
      "start": 36.6508,
      "duration": 0.1089,
      "velocity": 103,
      "chip": "ym2612"
    },
    {
      "channel": 2,
      "note": 73,
      "start": 36.651,
      "duration": 0.0254,
      "velocity": 111,
      "chip": "ym2612"
    },
    {
      "channel": 3,
      "note": 68,
      "start": 36.6514,
      "duration": 0.0253,
      "velocity": 111,
      "chip": "ym2612"
    },
    {
      "channel": 2,
      "note": 73,
      "start": 36.6766,
      "duration": 0.1665,
      "velocity": 111,
      "chip": "ym2612"
    },
    {
      "channel": 3,
      "note": 68,
      "start": 36.6769,
      "duration": 0.1664,
      "velocity": 111,
      "chip": "ym2612"
    },
    {
      "channel": 2,
      "note": 73,
      "start": 36.8433,
      "duration": 0.1502,
      "velocity": 111,
      "chip": "ym2612"
    },
    {
      "channel": 3,
      "note": 68,
      "start": 36.8436,
      "duration": 0.1501,
      "velocity": 111,
      "chip": "ym2612"
    },
    {
      "channel": 0,
      "note": 75,
      "start": 36.9931,
      "duration": 0.3332,
      "velocity": 106,
      "chip": "ym2612"
    },
    {
      "channel": 1,
      "note": 49,
      "start": 36.9934,
      "duration": 0.2496,
      "velocity": 103,
      "chip": "ym2612"
    },
    {
      "channel": 2,
      "note": 73,
      "start": 36.9937,
      "duration": 0.1661,
      "velocity": 111,
      "chip": "ym2612"
    },
    {
      "channel": 3,
      "note": 68,
      "start": 36.994,
      "duration": 0.166,
      "velocity": 111,
      "chip": "ym2612"
    },
    {
      "channel": 4,
      "note": 75,
      "start": 37.0769,
      "duration": 0.3165,
      "velocity": 106,
      "chip": "ym2612"
    },
    {
      "channel": 2,
      "note": 73,
      "start": 37.1599,
      "duration": 0.1666,
      "velocity": 111,
      "chip": "ym2612"
    },
    {
      "channel": 3,
      "note": 68,
      "start": 37.1602,
      "duration": 0.1665,
      "velocity": 111,
      "chip": "ym2612"
    },
    {
      "channel": 0,
      "note": 73,
      "start": 37.3264,
      "duration": 0.15,
      "velocity": 106,
      "chip": "ym2612"
    },
    {
      "channel": 2,
      "note": 73,
      "start": 37.3267,
      "duration": 0.1502,
      "velocity": 111,
      "chip": "ym2612"
    },
    {
      "channel": 3,
      "note": 68,
      "start": 37.327,
      "duration": 0.1501,
      "velocity": 111,
      "chip": "ym2612"
    },
    {
      "channel": 4,
      "note": 73,
      "start": 37.3936,
      "duration": 0.1665,
      "velocity": 106,
      "chip": "ym2612"
    },
    {
      "channel": 0,
      "note": 85,
      "start": 37.4765,
      "duration": 0.8661,
      "velocity": 106,
      "chip": "ym2612"
    },
    {
      "channel": 1,
      "note": 49,
      "start": 37.4768,
      "duration": 0.2495,
      "velocity": 103,
      "chip": "ym2612"
    },
    {
      "channel": 2,
      "note": 73,
      "start": 37.4771,
      "duration": 0.166,
      "velocity": 111,
      "chip": "ym2612"
    },
    {
      "channel": 3,
      "note": 68,
      "start": 37.4774,
      "duration": 0.1659,
      "velocity": 111,
      "chip": "ym2612"
    },
    {
      "channel": 4,
      "note": 85,
      "start": 37.5602,
      "duration": 0.8496,
      "velocity": 106,
      "chip": "ym2612"
    },
    {
      "channel": 2,
      "note": 73,
      "start": 37.6433,
      "duration": 0.1498,
      "velocity": 111,
      "chip": "ym2612"
    },
    {
      "channel": 3,
      "note": 68,
      "start": 37.6436,
      "duration": 0.1498,
      "velocity": 111,
      "chip": "ym2612"
    },
    {
      "channel": 2,
      "note": 73,
      "start": 37.7933,
      "duration": 0.1668,
      "velocity": 111,
      "chip": "ym2612"
    },
    {
      "channel": 3,
      "note": 68,
      "start": 37.7936,
      "duration": 0.1668,
      "velocity": 111,
      "chip": "ym2612"
    },
    {
      "channel": 1,
      "note": 49,
      "start": 37.96,
      "duration": 0.0117,
      "velocity": 103,
      "chip": "ym2612"
    },
    {
      "channel": 2,
      "note": 76,
      "start": 37.9603,
      "duration": 0.0081,
      "velocity": 111,
      "chip": "ym2612"
    },
    {
      "channel": 3,
      "note": 73,
      "start": 37.9606,
      "duration": 0.0081,
      "velocity": 111,
      "chip": "ym2612"
    },
    {
      "channel": 2,
      "note": 76,
      "start": 37.9686,
      "duration": 0.0073,
      "velocity": 111,
      "chip": "ym2612"
    },
    {
      "channel": 3,
      "note": 73,
      "start": 37.9689,
      "duration": 0.0072,
      "velocity": 111,
      "chip": "ym2612"
    },
    {
      "channel": 2,
      "note": 76,
      "start": 37.9761,
      "duration": 0.008,
      "velocity": 111,
      "chip": "ym2612"
    },
    {
      "channel": 3,
      "note": 73,
      "start": 37.9763,
      "duration": 0.008,
      "velocity": 111,
      "chip": "ym2612"
    },
    {
      "channel": 1,
      "note": 49,
      "start": 37.984,
      "duration": 0.1088,
      "velocity": 103,
      "chip": "ym2612"
    },
    {
      "channel": 2,
      "note": 75,
      "start": 37.9842,
      "duration": 0.0253,
      "velocity": 111,
      "chip": "ym2612"
    },
    {
      "channel": 3,
      "note": 73,
      "start": 37.9844,
      "duration": 0.0253,
      "velocity": 111,
      "chip": "ym2612"
    },
    {
      "channel": 2,
      "note": 75,
      "start": 38.0097,
      "duration": 0.1665,
      "velocity": 111,
      "chip": "ym2612"
    },
    {
      "channel": 3,
      "note": 73,
      "start": 38.01,
      "duration": 0.1664,
      "velocity": 111,
      "chip": "ym2612"
    },
    {
      "channel": 2,
      "note": 75,
      "start": 38.1764,
      "duration": 0.1668,
      "velocity": 111,
      "chip": "ym2612"
    },
    {
      "channel": 3,
      "note": 73,
      "start": 38.1767,
      "duration": 0.1668,
      "velocity": 111,
      "chip": "ym2612"
    },
    {
      "channel": 0,
      "note": 80,
      "start": 38.3428,
      "duration": 0.4666,
      "velocity": 106,
      "chip": "ym2612"
    },
    {
      "channel": 1,
      "note": 49,
      "start": 38.3432,
      "duration": 0.233,
      "velocity": 103,
      "chip": "ym2612"
    },
    {
      "channel": 2,
      "note": 73,
      "start": 38.3434,
      "duration": 0.1494,
      "velocity": 111,
      "chip": "ym2612"
    },
    {
      "channel": 3,
      "note": 68,
      "start": 38.3437,
      "duration": 0.1494,
      "velocity": 111,
      "chip": "ym2612"
    },
    {
      "channel": 4,
      "note": 80,
      "start": 38.41,
      "duration": 0.4831,
      "velocity": 106,
      "chip": "ym2612"
    },
    {
      "channel": 2,
      "note": 73,
      "start": 38.493,
      "duration": 0.1665,
      "velocity": 111,
      "chip": "ym2612"
    },
    {
      "channel": 3,
      "note": 68,
      "start": 38.4934,
      "duration": 0.1664,
      "velocity": 111,
      "chip": "ym2612"
    },
    {
      "channel": 2,
      "note": 73,
      "start": 38.6597,
      "duration": 0.1504,
      "velocity": 111,
      "chip": "ym2612"
    },
    {
      "channel": 3,
      "note": 68,
      "start": 38.66,
      "duration": 0.1504,
      "velocity": 111,
      "chip": "ym2612"
    },
    {
      "channel": 0,
      "note": 81,
      "start": 38.8097,
      "duration": 0.5071,
      "velocity": 106,
      "chip": "ym2612"
    },
    {
      "channel": 1,
      "note": 45,
      "start": 38.81,
      "duration": 0.2494,
      "velocity": 103,
      "chip": "ym2612"
    },
    {
      "channel": 2,
      "note": 69,
      "start": 38.8103,
      "duration": 0.1658,
      "velocity": 111,
      "chip": "ym2612"
    },
    {
      "channel": 3,
      "note": 64,
      "start": 38.8107,
      "duration": 0.1658,
      "velocity": 111,
      "chip": "ym2612"
    },
    {
      "channel": 4,
      "note": 81,
      "start": 38.8934,
      "duration": 0.4283,
      "velocity": 106,
      "chip": "ym2612"
    },
    {
      "channel": 2,
      "note": 69,
      "start": 38.9764,
      "duration": 0.1665,
      "velocity": 111,
      "chip": "ym2612"
    },
    {
      "channel": 3,
      "note": 64,
      "start": 38.9767,
      "duration": 0.1664,
      "velocity": 111,
      "chip": "ym2612"
    },
    {
      "channel": 2,
      "note": 69,
      "start": 39.143,
      "duration": 0.1502,
      "velocity": 111,
      "chip": "ym2612"
    },
    {
      "channel": 3,
      "note": 64,
      "start": 39.1434,
      "duration": 0.1501,
      "velocity": 111,
      "chip": "ym2612"
    },
    {
      "channel": 1,
      "note": 45,
      "start": 39.2931,
      "duration": 0.0126,
      "velocity": 103,
      "chip": "ym2612"
    },
    {
      "channel": 2,
      "note": 69,
      "start": 39.2934,
      "duration": 0.008,
      "velocity": 111,
      "chip": "ym2612"
    },
    {
      "channel": 3,
      "note": 64,
      "start": 39.2937,
      "duration": 0.008,
      "velocity": 111,
      "chip": "ym2612"
    },
    {
      "channel": 2,
      "note": 69,
      "start": 39.3017,
      "duration": 0.0074,
      "velocity": 111,
      "chip": "ym2612"
    },
    {
      "channel": 3,
      "note": 64,
      "start": 39.302,
      "duration": 0.0073,
      "velocity": 111,
      "chip": "ym2612"
    },
    {
      "channel": 2,
      "note": 69,
      "start": 39.3092,
      "duration": 0.0082,
      "velocity": 111,
      "chip": "ym2612"
    },
    {
      "channel": 3,
      "note": 64,
      "start": 39.3095,
      "duration": 0.0081,
      "velocity": 111,
      "chip": "ym2612"
    },
    {
      "channel": 0,
      "note": 76,
      "start": 39.317,
      "duration": 0.8424,
      "velocity": 106,
      "chip": "ym2612"
    },
    {
      "channel": 1,
      "note": 45,
      "start": 39.3172,
      "duration": 0.1089,
      "velocity": 103,
      "chip": "ym2612"
    },
    {
      "channel": 2,
      "note": 69,
      "start": 39.3175,
      "duration": 0.042,
      "velocity": 111,
      "chip": "ym2612"
    },
    {
      "channel": 3,
      "note": 64,
      "start": 39.3178,
      "duration": 0.042,
      "velocity": 111,
      "chip": "ym2612"
    },
    {
      "channel": 4,
      "note": 76,
      "start": 39.3219,
      "duration": 0.9046,
      "velocity": 106,
      "chip": "ym2612"
    },
    {
      "channel": 2,
      "note": 69,
      "start": 39.3597,
      "duration": 0.1498,
      "velocity": 111,
      "chip": "ym2612"
    },
    {
      "channel": 3,
      "note": 64,
      "start": 39.36,
      "duration": 0.1498,
      "velocity": 111,
      "chip": "ym2612"
    },
    {
      "channel": 2,
      "note": 69,
      "start": 39.5097,
      "duration": 0.1667,
      "velocity": 111,
      "chip": "ym2612"
    },
    {
      "channel": 3,
      "note": 64,
      "start": 39.51,
      "duration": 0.1667,
      "velocity": 111,
      "chip": "ym2612"
    },
    {
      "channel": 1,
      "note": 45,
      "start": 39.6763,
      "duration": 0.2332,
      "velocity": 103,
      "chip": "ym2612"
    },
    {
      "channel": 2,
      "note": 69,
      "start": 39.6766,
      "duration": 0.1495,
      "velocity": 111,
      "chip": "ym2612"
    },
    {
      "channel": 3,
      "note": 64,
      "start": 39.6768,
      "duration": 0.1496,
      "velocity": 111,
      "chip": "ym2612"
    },
    {
      "channel": 2,
      "note": 69,
      "start": 39.8263,
      "duration": 0.1665,
      "velocity": 111,
      "chip": "ym2612"
    },
    {
      "channel": 3,
      "note": 64,
      "start": 39.8267,
      "duration": 0.1664,
      "velocity": 111,
      "chip": "ym2612"
    },
    {
      "channel": 2,
      "note": 69,
      "start": 39.993,
      "duration": 0.167,
      "velocity": 111,
      "chip": "ym2612"
    },
    {
      "channel": 3,
      "note": 64,
      "start": 39.9933,
      "duration": 0.1669,
      "velocity": 111,
      "chip": "ym2612"
    },
    {
      "channel": 0,
      "note": 85,
      "start": 40.1596,
      "duration": 0.491,
      "velocity": 106,
      "chip": "ym2612"
    },
    {
      "channel": 1,
      "note": 45,
      "start": 40.1599,
      "duration": 0.2328,
      "velocity": 103,
      "chip": "ym2612"
    },
    {
      "channel": 2,
      "note": 69,
      "start": 40.1602,
      "duration": 0.1493,
      "velocity": 111,
      "chip": "ym2612"
    },
    {
      "channel": 3,
      "note": 64,
      "start": 40.1605,
      "duration": 0.1493,
      "velocity": 111,
      "chip": "ym2612"
    },
    {
      "channel": 4,
      "note": 85,
      "start": 40.2267,
      "duration": 0.4289,
      "velocity": 106,
      "chip": "ym2612"
    },
    {
      "channel": 2,
      "note": 69,
      "start": 40.3097,
      "duration": 0.1665,
      "velocity": 111,
      "chip": "ym2612"
    },
    {
      "channel": 3,
      "note": 64,
      "start": 40.31,
      "duration": 0.1664,
      "velocity": 111,
      "chip": "ym2612"
    },
    {
      "channel": 2,
      "note": 69,
      "start": 40.4763,
      "duration": 0.1502,
      "velocity": 111,
      "chip": "ym2612"
    },
    {
      "channel": 3,
      "note": 64,
      "start": 40.4767,
      "duration": 0.1501,
      "velocity": 111,
      "chip": "ym2612"
    },
    {
      "channel": 1,
      "note": 45,
      "start": 40.6264,
      "duration": 0.013,
      "velocity": 103,
      "chip": "ym2612"
    },
    {
      "channel": 2,
      "note": 73,
      "start": 40.6267,
      "duration": 0.0084,
      "velocity": 111,
      "chip": "ym2612"
    },
    {
      "channel": 3,
      "note": 69,
      "start": 40.627,
      "duration": 0.0083,
      "velocity": 111,
      "chip": "ym2612"
    },
    {
      "channel": 2,
      "note": 73,
      "start": 40.6353,
      "duration": 0.0082,
      "velocity": 111,
      "chip": "ym2612"
    },
    {
      "channel": 3,
      "note": 69,
      "start": 40.6355,
      "duration": 0.0081,
      "velocity": 111,
      "chip": "ym2612"
    },
    {
      "channel": 2,
      "note": 73,
      "start": 40.6436,
      "duration": 0.0076,
      "velocity": 111,
      "chip": "ym2612"
    },
    {
      "channel": 3,
      "note": 69,
      "start": 40.6439,
      "duration": 0.0075,
      "velocity": 111,
      "chip": "ym2612"
    },
    {
      "channel": 0,
      "note": 83,
      "start": 40.6508,
      "duration": 0.359,
      "velocity": 106,
      "chip": "ym2612"
    },
    {
      "channel": 1,
      "note": 45,
      "start": 40.651,
      "duration": 0.1256,
      "velocity": 103,
      "chip": "ym2612"
    },
    {
      "channel": 2,
      "note": 71,
      "start": 40.6513,
      "duration": 0.0421,
      "velocity": 111,
      "chip": "ym2612"
    },
    {
      "channel": 3,
      "note": 68,
      "start": 40.6516,
      "duration": 0.042,
      "velocity": 111,
      "chip": "ym2612"
    },
    {
      "channel": 4,
      "note": 83,
      "start": 40.6557,
      "duration": 0.438,
      "velocity": 106,
      "chip": "ym2612"
    },
    {
      "channel": 2,
      "note": 71,
      "start": 40.6936,
      "duration": 0.1498,
      "velocity": 111,
      "chip": "ym2612"
    },
    {
      "channel": 3,
      "note": 68,
      "start": 40.6939,
      "duration": 0.1498,
      "velocity": 111,
      "chip": "ym2612"
    },
    {
      "channel": 2,
      "note": 71,
      "start": 40.8436,
      "duration": 0.1668,
      "velocity": 111,
      "chip": "ym2612"
    },
    {
      "channel": 3,
      "note": 68,
      "start": 40.8439,
      "duration": 0.1668,
      "velocity": 111,
      "chip": "ym2612"
    },
    {
      "channel": 0,
      "note": 81,
      "start": 41.01,
      "duration": 0.4833,
      "velocity": 106,
      "chip": "ym2612"
    },
    {
      "channel": 1,
      "note": 45,
      "start": 41.0103,
      "duration": 0.233,
      "velocity": 103,
      "chip": "ym2612"
    },
    {
      "channel": 2,
      "note": 69,
      "start": 41.0106,
      "duration": 0.1661,
      "velocity": 111,
      "chip": "ym2612"
    },
    {
      "channel": 3,
      "note": 64,
      "start": 41.0109,
      "duration": 0.166,
      "velocity": 111,
      "chip": "ym2612"
    },
    {
      "channel": 4,
      "note": 81,
      "start": 41.0939,
      "duration": 0.4831,
      "velocity": 106,
      "chip": "ym2612"
    },
    {
      "channel": 2,
      "note": 69,
      "start": 41.1769,
      "duration": 0.1498,
      "velocity": 111,
      "chip": "ym2612"
    },
    {
      "channel": 3,
      "note": 64,
      "start": 41.1772,
      "duration": 0.1498,
      "velocity": 111,
      "chip": "ym2612"
    },
    {
      "channel": 2,
      "note": 69,
      "start": 41.3269,
      "duration": 0.167,
      "velocity": 111,
      "chip": "ym2612"
    },
    {
      "channel": 3,
      "note": 64,
      "start": 41.3272,
      "duration": 0.1669,
      "velocity": 111,
      "chip": "ym2612"
    },
    {
      "channel": 0,
      "note": 80,
      "start": 41.4935,
      "duration": 0.1163,
      "velocity": 106,
      "chip": "ym2612"
    },
    {
      "channel": 1,
      "note": 52,
      "start": 41.4938,
      "duration": 0.2329,
      "velocity": 103,
      "chip": "ym2612"
    },
    {
      "channel": 2,
      "note": 76,
      "start": 41.4941,
      "duration": 0.1493,
      "velocity": 111,
      "chip": "ym2612"
    },
    {
      "channel": 3,
      "note": 71,
      "start": 41.4944,
      "duration": 0.1493,
      "velocity": 111,
      "chip": "ym2612"
    },
    {
      "channel": 4,
      "note": 80,
      "start": 41.5772,
      "duration": 0.1165,
      "velocity": 106,
      "chip": "ym2612"
    },
    {
      "channel": 0,
      "note": 81,
      "start": 41.61,
      "duration": 0.1165,
      "velocity": 106,
      "chip": "ym2612"
    },
    {
      "channel": 2,
      "note": 76,
      "start": 41.6436,
      "duration": 0.1665,
      "velocity": 111,
      "chip": "ym2612"
    },
    {
      "channel": 3,
      "note": 71,
      "start": 41.6439,
      "duration": 0.1664,
      "velocity": 111,
      "chip": "ym2612"
    },
    {
      "channel": 4,
      "note": 81,
      "start": 41.6939,
      "duration": 0.1167,
      "velocity": 106,
      "chip": "ym2612"
    },
    {
      "channel": 0,
      "note": 83,
      "start": 41.7267,
      "duration": 0.8668,
      "velocity": 106,
      "chip": "ym2612"
    },
    {
      "channel": 2,
      "note": 76,
      "start": 41.8102,
      "duration": 0.1668,
      "velocity": 111,
      "chip": "ym2612"
    },
    {
      "channel": 3,
      "note": 71,
      "start": 41.8105,
      "duration": 0.1668,
      "velocity": 111,
      "chip": "ym2612"
    },
    {
      "channel": 4,
      "note": 83,
      "start": 41.8109,
      "duration": 0.8501,
      "velocity": 106,
      "chip": "ym2612"
    },
    {
      "channel": 1,
      "note": 52,
      "start": 41.977,
      "duration": 0.0117,
      "velocity": 103,
      "chip": "ym2612"
    },
    {
      "channel": 2,
      "note": 76,
      "start": 41.9773,
      "duration": 0.0072,
      "velocity": 111,
      "chip": "ym2612"
    },
    {
      "channel": 3,
      "note": 71,
      "start": 41.9776,
      "duration": 0.0071,
      "velocity": 111,
      "chip": "ym2612"
    },
    {
      "channel": 2,
      "note": 76,
      "start": 41.9846,
      "duration": 0.0083,
      "velocity": 111,
      "chip": "ym2612"
    },
    {
      "channel": 3,
      "note": 71,
      "start": 41.9848,
      "duration": 0.0083,
      "velocity": 111,
      "chip": "ym2612"
    },
    {
      "channel": 2,
      "note": 76,
      "start": 41.9931,
      "duration": 0.0076,
      "velocity": 111,
      "chip": "ym2612"
    },
    {
      "channel": 3,
      "note": 71,
      "start": 41.9932,
      "duration": 0.0077,
      "velocity": 111,
      "chip": "ym2612"
    },
    {
      "channel": 1,
      "note": 52,
      "start": 42.0006,
      "duration": 0.1096,
      "velocity": 103,
      "chip": "ym2612"
    },
    {
      "channel": 2,
      "note": 76,
      "start": 42.0009,
      "duration": 0.026,
      "velocity": 111,
      "chip": "ym2612"
    },
    {
      "channel": 3,
      "note": 71,
      "start": 42.0011,
      "duration": 0.026,
      "velocity": 111,
      "chip": "ym2612"
    },
    {
      "channel": 2,
      "note": 76,
      "start": 42.0271,
      "duration": 0.1665,
      "velocity": 111,
      "chip": "ym2612"
    },
    {
      "channel": 3,
      "note": 71,
      "start": 42.0274,
      "duration": 0.1664,
      "velocity": 111,
      "chip": "ym2612"
    },
    {
      "channel": 2,
      "note": 76,
      "start": 42.1938,
      "duration": 0.15,
      "velocity": 111,
      "chip": "ym2612"
    },
    {
      "channel": 3,
      "note": 71,
      "start": 42.1941,
      "duration": 0.15,
      "velocity": 111,
      "chip": "ym2612"
    },
    {
      "channel": 1,
      "note": 52,
      "start": 42.3437,
      "duration": 0.2499,
      "velocity": 103,
      "chip": "ym2612"
    },
    {
      "channel": 2,
      "note": 76,
      "start": 42.344,
      "duration": 0.1662,
      "velocity": 111,
      "chip": "ym2612"
    },
    {
      "channel": 3,
      "note": 71,
      "start": 42.3443,
      "duration": 0.1662,
      "velocity": 111,
      "chip": "ym2612"
    },
    {
      "channel": 2,
      "note": 76,
      "start": 42.5104,
      "duration": 0.1498,
      "velocity": 111,
      "chip": "ym2612"
    },
    {
      "channel": 3,
      "note": 71,
      "start": 42.5107,
      "duration": 0.1498,
      "velocity": 111,
      "chip": "ym2612"
    },
    {
      "channel": 0,
      "note": 83,
      "start": 42.5935,
      "duration": 0.2334,
      "velocity": 106,
      "chip": "ym2612"
    },
    {
      "channel": 2,
      "note": 76,
      "start": 42.6604,
      "duration": 0.1669,
      "velocity": 111,
      "chip": "ym2612"
    },
    {
      "channel": 3,
      "note": 71,
      "start": 42.6607,
      "duration": 0.1668,
      "velocity": 111,
      "chip": "ym2612"
    },
    {
      "channel": 4,
      "note": 83,
      "start": 42.6609,
      "duration": 0.2498,
      "velocity": 106,
      "chip": "ym2612"
    },
    {
      "channel": 0,
      "note": 83,
      "start": 42.827,
      "duration": 0.8502,
      "velocity": 106,
      "chip": "ym2612"
    },
    {
      "channel": 1,
      "note": 52,
      "start": 42.8273,
      "duration": 0.2329,
      "velocity": 103,
      "chip": "ym2612"
    },
    {
      "channel": 2,
      "note": 76,
      "start": 42.8275,
      "duration": 0.166,
      "velocity": 111,
      "chip": "ym2612"
    },
    {
      "channel": 3,
      "note": 71,
      "start": 42.8278,
      "duration": 0.166,
      "velocity": 111,
      "chip": "ym2612"
    },
    {
      "channel": 4,
      "note": 83,
      "start": 42.9107,
      "duration": 0.8503,
      "velocity": 106,
      "chip": "ym2612"
    },
    {
      "channel": 2,
      "note": 76,
      "start": 42.9938,
      "duration": 0.1498,
      "velocity": 111,
      "chip": "ym2612"
    },
    {
      "channel": 3,
      "note": 71,
      "start": 42.9941,
      "duration": 0.1498,
      "velocity": 111,
      "chip": "ym2612"
    },
    {
      "channel": 2,
      "note": 76,
      "start": 43.1438,
      "duration": 0.1668,
      "velocity": 111,
      "chip": "ym2612"
    },
    {
      "channel": 3,
      "note": 71,
      "start": 43.1441,
      "duration": 0.1668,
      "velocity": 111,
      "chip": "ym2612"
    },
    {
      "channel": 1,
      "note": 52,
      "start": 43.3105,
      "duration": 0.012,
      "velocity": 103,
      "chip": "ym2612"
    },
    {
      "channel": 2,
      "note": 80,
      "start": 43.3108,
      "duration": 0.0073,
      "velocity": 111,
      "chip": "ym2612"
    },
    {
      "channel": 3,
      "note": 76,
      "start": 43.3111,
      "duration": 0.0074,
      "velocity": 111,
      "chip": "ym2612"
    },
    {
      "channel": 2,
      "note": 80,
      "start": 43.3184,
      "duration": 0.0081,
      "velocity": 111,
      "chip": "ym2612"
    },
    {
      "channel": 3,
      "note": 76,
      "start": 43.3186,
      "duration": 0.0081,
      "velocity": 111,
      "chip": "ym2612"
    },
    {
      "channel": 2,
      "note": 80,
      "start": 43.3267,
      "duration": 0.0083,
      "velocity": 111,
      "chip": "ym2612"
    },
    {
      "channel": 3,
      "note": 76,
      "start": 43.327,
      "duration": 0.0083,
      "velocity": 111,
      "chip": "ym2612"
    },
    {
      "channel": 1,
      "note": 52,
      "start": 43.3349,
      "duration": 0.109,
      "velocity": 103,
      "chip": "ym2612"
    },
    {
      "channel": 2,
      "note": 78,
      "start": 43.3353,
      "duration": 0.0254,
      "velocity": 111,
      "chip": "ym2612"
    },
    {
      "channel": 3,
      "note": 75,
      "start": 43.3355,
      "duration": 0.0255,
      "velocity": 111,
      "chip": "ym2612"
    },
    {
      "channel": 2,
      "note": 78,
      "start": 43.3609,
      "duration": 0.1665,
      "velocity": 111,
      "chip": "ym2612"
    },
    {
      "channel": 3,
      "note": 75,
      "start": 43.3612,
      "duration": 0.1664,
      "velocity": 111,
      "chip": "ym2612"
    },
    {
      "channel": 2,
      "note": 78,
      "start": 43.5276,
      "duration": 0.1502,
      "velocity": 111,
      "chip": "ym2612"
    },
    {
      "channel": 3,
      "note": 75,
      "start": 43.5279,
      "duration": 0.1501,
      "velocity": 111,
      "chip": "ym2612"
    },
    {
      "channel": 0,
      "note": 80,
      "start": 43.6774,
      "duration": 0.4833,
      "velocity": 106,
      "chip": "ym2612"
    },
    {
      "channel": 1,
      "note": 52,
      "start": 43.6777,
      "duration": 0.2496,
      "velocity": 103,
      "chip": "ym2612"
    },
    {
      "channel": 2,
      "note": 76,
      "start": 43.678,
      "duration": 0.1661,
      "velocity": 111,
      "chip": "ym2612"
    },
    {
      "channel": 3,
      "note": 71,
      "start": 43.6783,
      "duration": 0.166,
      "velocity": 111,
      "chip": "ym2612"
    },
    {
      "channel": 4,
      "note": 80,
      "start": 43.7612,
      "duration": 0.4831,
      "velocity": 106,
      "chip": "ym2612"
    },
    {
      "channel": 2,
      "note": 76,
      "start": 43.8442,
      "duration": 0.1665,
      "velocity": 111,
      "chip": "ym2612"
    },
    {
      "channel": 3,
      "note": 71,
      "start": 43.8446,
      "duration": 0.1664,
      "velocity": 111,
      "chip": "ym2612"
    },
    {
      "channel": 2,
      "note": 76,
      "start": 44.0109,
      "duration": 0.1503,
      "velocity": 111,
      "chip": "ym2612"
    },
    {
      "channel": 3,
      "note": 71,
      "start": 44.0112,
      "duration": 0.1503,
      "velocity": 111,
      "chip": "ym2612"
    },
    {
      "channel": 0,
      "note": 78,
      "start": 44.1609,
      "duration": 1.3328,
      "velocity": 106,
      "chip": "ym2612"
    },
    {
      "channel": 1,
      "note": 50,
      "start": 44.1612,
      "duration": 0.2495,
      "velocity": 103,
      "chip": "ym2612"
    },
    {
      "channel": 2,
      "note": 74,
      "start": 44.1615,
      "duration": 0.1659,
      "velocity": 111,
      "chip": "ym2612"
    },
    {
      "channel": 3,
      "note": 69,
      "start": 44.1617,
      "duration": 0.1659,
      "velocity": 111,
      "chip": "ym2612"
    },
    {
      "channel": 4,
      "note": 78,
      "start": 44.2446,
      "duration": 1.3328,
      "velocity": 106,
      "chip": "ym2612"
    },
    {
      "channel": 2,
      "note": 74,
      "start": 44.3276,
      "duration": 0.1498,
      "velocity": 111,
      "chip": "ym2612"
    },
    {
      "channel": 3,
      "note": 69,
      "start": 44.3279,
      "duration": 0.1498,
      "velocity": 111,
      "chip": "ym2612"
    },
    {
      "channel": 2,
      "note": 74,
      "start": 44.4776,
      "duration": 0.1668,
      "velocity": 111,
      "chip": "ym2612"
    },
    {
      "channel": 3,
      "note": 69,
      "start": 44.4779,
      "duration": 0.1668,
      "velocity": 111,
      "chip": "ym2612"
    },
    {
      "channel": 1,
      "note": 50,
      "start": 44.6443,
      "duration": 0.0117,
      "velocity": 103,
      "chip": "ym2612"
    },
    {
      "channel": 2,
      "note": 74,
      "start": 44.6446,
      "duration": 0.0081,
      "velocity": 111,
      "chip": "ym2612"
    },
    {
      "channel": 3,
      "note": 69,
      "start": 44.6449,
      "duration": 0.0081,
      "velocity": 111,
      "chip": "ym2612"
    },
    {
      "channel": 2,
      "note": 74,
      "start": 44.6529,
      "duration": 0.0073,
      "velocity": 111,
      "chip": "ym2612"
    },
    {
      "channel": 3,
      "note": 69,
      "start": 44.6532,
      "duration": 0.0072,
      "velocity": 111,
      "chip": "ym2612"
    },
    {
      "channel": 2,
      "note": 74,
      "start": 44.6604,
      "duration": 0.008,
      "velocity": 111,
      "chip": "ym2612"
    },
    {
      "channel": 3,
      "note": 69,
      "start": 44.6606,
      "duration": 0.008,
      "velocity": 111,
      "chip": "ym2612"
    },
    {
      "channel": 1,
      "note": 50,
      "start": 44.6683,
      "duration": 0.1088,
      "velocity": 103,
      "chip": "ym2612"
    },
    {
      "channel": 2,
      "note": 74,
      "start": 44.6685,
      "duration": 0.0253,
      "velocity": 111,
      "chip": "ym2612"
    },
    {
      "channel": 3,
      "note": 69,
      "start": 44.6688,
      "duration": 0.0253,
      "velocity": 111,
      "chip": "ym2612"
    },
    {
      "channel": 2,
      "note": 74,
      "start": 44.694,
      "duration": 0.1665,
      "velocity": 111,
      "chip": "ym2612"
    },
    {
      "channel": 3,
      "note": 69,
      "start": 44.6943,
      "duration": 0.1664,
      "velocity": 111,
      "chip": "ym2612"
    },
    {
      "channel": 2,
      "note": 74,
      "start": 44.8607,
      "duration": 0.1667,
      "velocity": 111,
      "chip": "ym2612"
    },
    {
      "channel": 3,
      "note": 69,
      "start": 44.861,
      "duration": 0.1667,
      "velocity": 111,
      "chip": "ym2612"
    },
    {
      "channel": 1,
      "note": 50,
      "start": 45.0273,
      "duration": 0.2332,
      "velocity": 103,
      "chip": "ym2612"
    },
    {
      "channel": 2,
      "note": 69,
      "start": 45.0276,
      "duration": 0.1495,
      "velocity": 111,
      "chip": "ym2612"
    },
    {
      "channel": 3,
      "note": 66,
      "start": 45.0278,
      "duration": 0.1496,
      "velocity": 111,
      "chip": "ym2612"
    },
    {
      "channel": 2,
      "note": 69,
      "start": 45.1773,
      "duration": 0.1665,
      "velocity": 111,
      "chip": "ym2612"
    },
    {
      "channel": 3,
      "note": 66,
      "start": 45.1776,
      "duration": 0.1664,
      "velocity": 111,
      "chip": "ym2612"
    },
    {
      "channel": 2,
      "note": 69,
      "start": 45.344,
      "duration": 0.1503,
      "velocity": 111,
      "chip": "ym2612"
    },
    {
      "channel": 3,
      "note": 66,
      "start": 45.3443,
      "duration": 0.1502,
      "velocity": 111,
      "chip": "ym2612"
    },
    {
      "channel": 0,
      "note": 81,
      "start": 45.4939,
      "duration": 1.3497,
      "velocity": 106,
      "chip": "ym2612"
    },
    {
      "channel": 1,
      "note": 50,
      "start": 45.4942,
      "duration": 0.2495,
      "velocity": 103,
      "chip": "ym2612"
    },
    {
      "channel": 2,
      "note": 74,
      "start": 45.4945,
      "duration": 0.166,
      "velocity": 111,
      "chip": "ym2612"
    },
    {
      "channel": 3,
      "note": 69,
      "start": 45.4948,
      "duration": 0.1659,
      "velocity": 111,
      "chip": "ym2612"
    },
    {
      "channel": 4,
      "note": 81,
      "start": 45.5776,
      "duration": 1.333,
      "velocity": 106,
      "chip": "ym2612"
    },
    {
      "channel": 2,
      "note": 74,
      "start": 45.6607,
      "duration": 0.1665,
      "velocity": 111,
      "chip": "ym2612"
    },
    {
      "channel": 3,
      "note": 69,
      "start": 45.661,
      "duration": 0.1664,
      "velocity": 111,
      "chip": "ym2612"
    },
    {
      "channel": 2,
      "note": 74,
      "start": 45.8273,
      "duration": 0.1502,
      "velocity": 111,
      "chip": "ym2612"
    },
    {
      "channel": 3,
      "note": 69,
      "start": 45.8276,
      "duration": 0.1501,
      "velocity": 111,
      "chip": "ym2612"
    },
    {
      "channel": 1,
      "note": 50,
      "start": 45.9774,
      "duration": 0.0125,
      "velocity": 103,
      "chip": "ym2612"
    },
    {
      "channel": 2,
      "note": 74,
      "start": 45.9777,
      "duration": 0.008,
      "velocity": 111,
      "chip": "ym2612"
    },
    {
      "channel": 3,
      "note": 69,
      "start": 45.9779,
      "duration": 0.008,
      "velocity": 111,
      "chip": "ym2612"
    },
    {
      "channel": 2,
      "note": 74,
      "start": 45.9859,
      "duration": 0.0074,
      "velocity": 111,
      "chip": "ym2612"
    },
    {
      "channel": 3,
      "note": 69,
      "start": 45.9862,
      "duration": 0.0073,
      "velocity": 111,
      "chip": "ym2612"
    },
    {
      "channel": 2,
      "note": 74,
      "start": 45.9934,
      "duration": 0.008,
      "velocity": 111,
      "chip": "ym2612"
    },
    {
      "channel": 3,
      "note": 69,
      "start": 45.9937,
      "duration": 0.008,
      "velocity": 111,
      "chip": "ym2612"
    },
    {
      "channel": 1,
      "note": 50,
      "start": 46.0013,
      "duration": 0.1089,
      "velocity": 103,
      "chip": "ym2612"
    },
    {
      "channel": 2,
      "note": 74,
      "start": 46.0016,
      "duration": 0.042,
      "velocity": 111,
      "chip": "ym2612"
    },
    {
      "channel": 3,
      "note": 69,
      "start": 46.0018,
      "duration": 0.0421,
      "velocity": 111,
      "chip": "ym2612"
    },
    {
      "channel": 2,
      "note": 74,
      "start": 46.0438,
      "duration": 0.1498,
      "velocity": 111,
      "chip": "ym2612"
    },
    {
      "channel": 3,
      "note": 69,
      "start": 46.0441,
      "duration": 0.1498,
      "velocity": 111,
      "chip": "ym2612"
    },
    {
      "channel": 2,
      "note": 74,
      "start": 46.1938,
      "duration": 0.1667,
      "velocity": 111,
      "chip": "ym2612"
    },
    {
      "channel": 3,
      "note": 69,
      "start": 46.1941,
      "duration": 0.1667,
      "velocity": 111,
      "chip": "ym2612"
    },
    {
      "channel": 1,
      "note": 50,
      "start": 46.3604,
      "duration": 0.2332,
      "velocity": 103,
      "chip": "ym2612"
    },
    {
      "channel": 2,
      "note": 74,
      "start": 46.3607,
      "duration": 0.1495,
      "velocity": 111,
      "chip": "ym2612"
    },
    {
      "channel": 3,
      "note": 69,
      "start": 46.361,
      "duration": 0.1496,
      "velocity": 111,
      "chip": "ym2612"
    },
    {
      "channel": 2,
      "note": 74,
      "start": 46.5105,
      "duration": 0.1665,
      "velocity": 111,
      "chip": "ym2612"
    },
    {
      "channel": 3,
      "note": 69,
      "start": 46.5108,
      "duration": 0.1664,
      "velocity": 111,
      "chip": "ym2612"
    },
    {
      "channel": 2,
      "note": 74,
      "start": 46.6772,
      "duration": 0.167,
      "velocity": 111,
      "chip": "ym2612"
    },
    {
      "channel": 3,
      "note": 69,
      "start": 46.6775,
      "duration": 0.1669,
      "velocity": 111,
      "chip": "ym2612"
    },
    {
      "channel": 0,
      "note": 80,
      "start": 46.8438,
      "duration": 1.3339,
      "velocity": 106,
      "chip": "ym2612"
    },
    {
      "channel": 1,
      "note": 44,
      "start": 46.8441,
      "duration": 0.2328,
      "velocity": 103,
      "chip": "ym2612"
    },
    {
      "channel": 2,
      "note": 73,
      "start": 46.8443,
      "duration": 0.1493,
      "velocity": 111,
      "chip": "ym2612"
    },
    {
      "channel": 3,
      "note": 68,
      "start": 46.8446,
      "duration": 0.1493,
      "velocity": 111,
      "chip": "ym2612"
    },
    {
      "channel": 4,
      "note": 80,
      "start": 46.9108,
      "duration": 1.3505,
      "velocity": 106,
      "chip": "ym2612"
    },
    {
      "channel": 2,
      "note": 73,
      "start": 46.9938,
      "duration": 0.1665,
      "velocity": 111,
      "chip": "ym2612"
    },
    {
      "channel": 3,
      "note": 68,
      "start": 46.9941,
      "duration": 0.1664,
      "velocity": 111,
      "chip": "ym2612"
    },
    {
      "channel": 2,
      "note": 73,
      "start": 47.1605,
      "duration": 0.1502,
      "velocity": 111,
      "chip": "ym2612"
    },
    {
      "channel": 3,
      "note": 68,
      "start": 47.1608,
      "duration": 0.1501,
      "velocity": 111,
      "chip": "ym2612"
    },
    {
      "channel": 1,
      "note": 44,
      "start": 47.3106,
      "duration": 0.0129,
      "velocity": 103,
      "chip": "ym2612"
    },
    {
      "channel": 2,
      "note": 73,
      "start": 47.3108,
      "duration": 0.0084,
      "velocity": 111,
      "chip": "ym2612"
    },
    {
      "channel": 3,
      "note": 68,
      "start": 47.3111,
      "duration": 0.0083,
      "velocity": 111,
      "chip": "ym2612"
    },
    {
      "channel": 2,
      "note": 73,
      "start": 47.3194,
      "duration": 0.0082,
      "velocity": 111,
      "chip": "ym2612"
    },
    {
      "channel": 3,
      "note": 68,
      "start": 47.3196,
      "duration": 0.0081,
      "velocity": 111,
      "chip": "ym2612"
    },
    {
      "channel": 2,
      "note": 73,
      "start": 47.3277,
      "duration": 0.0074,
      "velocity": 111,
      "chip": "ym2612"
    },
    {
      "channel": 3,
      "note": 68,
      "start": 47.328,
      "duration": 0.0074,
      "velocity": 111,
      "chip": "ym2612"
    },
    {
      "channel": 1,
      "note": 44,
      "start": 47.3351,
      "duration": 0.1258,
      "velocity": 103,
      "chip": "ym2612"
    },
    {
      "channel": 2,
      "note": 73,
      "start": 47.3354,
      "duration": 0.0422,
      "velocity": 111,
      "chip": "ym2612"
    },
    {
      "channel": 3,
      "note": 68,
      "start": 47.3356,
      "duration": 0.0423,
      "velocity": 111,
      "chip": "ym2612"
    },
    {
      "channel": 2,
      "note": 73,
      "start": 47.3778,
      "duration": 0.1498,
      "velocity": 111,
      "chip": "ym2612"
    },
    {
      "channel": 3,
      "note": 68,
      "start": 47.3781,
      "duration": 0.1498,
      "velocity": 111,
      "chip": "ym2612"
    },
    {
      "channel": 2,
      "note": 73,
      "start": 47.5278,
      "duration": 0.1667,
      "velocity": 111,
      "chip": "ym2612"
    },
    {
      "channel": 3,
      "note": 68,
      "start": 47.5281,
      "duration": 0.1667,
      "velocity": 111,
      "chip": "ym2612"
    },
    {
      "channel": 1,
      "note": 44,
      "start": 47.6944,
      "duration": 0.2332,
      "velocity": 103,
      "chip": "ym2612"
    },
    {
      "channel": 2,
      "note": 73,
      "start": 47.6947,
      "duration": 0.1662,
      "velocity": 111,
      "chip": "ym2612"
    },
    {
      "channel": 3,
      "note": 68,
      "start": 47.6949,
      "duration": 0.1662,
      "velocity": 111,
      "chip": "ym2612"
    },
    {
      "channel": 2,
      "note": 73,
      "start": 47.8611,
      "duration": 0.1498,
      "velocity": 111,
      "chip": "ym2612"
    },
    {
      "channel": 3,
      "note": 68,
      "start": 47.8614,
      "duration": 0.1498,
      "velocity": 111,
      "chip": "ym2612"
    },
    {
      "channel": 2,
      "note": 73,
      "start": 48.0111,
      "duration": 0.1669,
      "velocity": 111,
      "chip": "ym2612"
    },
    {
      "channel": 3,
      "note": 68,
      "start": 48.0114,
      "duration": 0.1668,
      "velocity": 111,
      "chip": "ym2612"
    },
    {
      "channel": 0,
      "note": 80,
      "start": 48.1776,
      "duration": 0.8493,
      "velocity": 106,
      "chip": "ym2612"
    },
    {
      "channel": 1,
      "note": 44,
      "start": 48.178,
      "duration": 0.2329,
      "velocity": 103,
      "chip": "ym2612"
    },
    {
      "channel": 2,
      "note": 72,
      "start": 48.1782,
      "duration": 0.1494,
      "velocity": 111,
      "chip": "ym2612"
    },
    {
      "channel": 3,
      "note": 68,
      "start": 48.1785,
      "duration": 0.1493,
      "velocity": 111,
      "chip": "ym2612"
    },
    {
      "channel": 4,
      "note": 80,
      "start": 48.2614,
      "duration": 0.8493,
      "velocity": 106,
      "chip": "ym2612"
    },
    {
      "channel": 2,
      "note": 72,
      "start": 48.3278,
      "duration": 0.1665,
      "velocity": 111,
      "chip": "ym2612"
    },
    {
      "channel": 3,
      "note": 68,
      "start": 48.3281,
      "duration": 0.1664,
      "velocity": 111,
      "chip": "ym2612"
    },
    {
      "channel": 2,
      "note": 72,
      "start": 48.4944,
      "duration": 0.1668,
      "velocity": 111,
      "chip": "ym2612"
    },
    {
      "channel": 3,
      "note": 68,
      "start": 48.4948,
      "duration": 0.1668,
      "velocity": 111,
      "chip": "ym2612"
    },
    {
      "channel": 1,
      "note": 44,
      "start": 48.6612,
      "duration": 0.0117,
      "velocity": 103,
      "chip": "ym2612"
    },
    {
      "channel": 2,
      "note": 72,
      "start": 48.6615,
      "duration": 0.0071,
      "velocity": 111,
      "chip": "ym2612"
    },
    {
      "channel": 3,
      "note": 68,
      "start": 48.6617,
      "duration": 0.0071,
      "velocity": 111,
      "chip": "ym2612"
    },
    {
      "channel": 2,
      "note": 72,
      "start": 48.6688,
      "duration": 0.0082,
      "velocity": 111,
      "chip": "ym2612"
    },
    {
      "channel": 3,
      "note": 68,
      "start": 48.6691,
      "duration": 0.0082,
      "velocity": 111,
      "chip": "ym2612"
    },
    {
      "channel": 2,
      "note": 72,
      "start": 48.6772,
      "duration": 0.0073,
      "velocity": 111,
      "chip": "ym2612"
    },
    {
      "channel": 3,
      "note": 68,
      "start": 48.6775,
      "duration": 0.0072,
      "velocity": 111,
      "chip": "ym2612"
    },
    {
      "channel": 1,
      "note": 44,
      "start": 48.6844,
      "duration": 0.1093,
      "velocity": 103,
      "chip": "ym2612"
    },
    {
      "channel": 2,
      "note": 72,
      "start": 48.6846,
      "duration": 0.3429,
      "velocity": 111,
      "chip": "ym2612"
    },
    {
      "channel": 3,
      "note": 68,
      "start": 48.6849,
      "duration": 0.3429,
      "velocity": 111,
      "chip": "ym2612"
    },
    {
      "channel": 0,
      "note": 68,
      "start": 49.0272,
      "duration": 0.4833,
      "velocity": 106,
      "chip": "ym2612"
    },
    {
      "channel": 1,
      "note": 44,
      "start": 49.0275,
      "duration": 0.2496,
      "velocity": 103,
      "chip": "ym2612"
    },
    {
      "channel": 4,
      "note": 68,
      "start": 49.1109,
      "duration": 0.4833,
      "velocity": 106,
      "chip": "ym2612"
    },
    {
      "channel": 0,
      "note": 73,
      "start": 49.5107,
      "duration": 0.4831,
      "velocity": 106,
      "chip": "ym2612"
    },
    {
      "channel": 1,
      "note": 49,
      "start": 49.5111,
      "duration": 0.2327,
      "velocity": 103,
      "chip": "ym2612"
    },
    {
      "channel": 2,
      "note": 73,
      "start": 49.5114,
      "duration": 0.1658,
      "velocity": 111,
      "chip": "ym2612"
    },
    {
      "channel": 3,
      "note": 68,
      "start": 49.5118,
      "duration": 0.1657,
      "velocity": 111,
      "chip": "ym2612"
    },
    {
      "channel": 4,
      "note": 73,
      "start": 49.5944,
      "duration": 0.4047,
      "velocity": 106,
      "chip": "ym2612"
    },
    {
      "channel": 2,
      "note": 73,
      "start": 49.6774,
      "duration": 0.1498,
      "velocity": 111,
      "chip": "ym2612"
    },
    {
      "channel": 3,
      "note": 68,
      "start": 49.6777,
      "duration": 0.1498,
      "velocity": 111,
      "chip": "ym2612"
    },
    {
      "channel": 2,
      "note": 73,
      "start": 49.8274,
      "duration": 0.1669,
      "velocity": 111,
      "chip": "ym2612"
    },
    {
      "channel": 3,
      "note": 68,
      "start": 49.8277,
      "duration": 0.1668,
      "velocity": 111,
      "chip": "ym2612"
    },
    {
      "channel": 0,
      "note": 78,
      "start": 49.994,
      "duration": 0.0256,
      "velocity": 106,
      "chip": "ym2612"
    },
    {
      "channel": 1,
      "note": 49,
      "start": 49.9942,
      "duration": 0.0127,
      "velocity": 103,
      "chip": "ym2612"
    },
    {
      "channel": 2,
      "note": 73,
      "start": 49.9944,
      "duration": 0.0083,
      "velocity": 111,
      "chip": "ym2612"
    },
    {
      "channel": 3,
      "note": 68,
      "start": 49.9946,
      "duration": 0.0083,
      "velocity": 111,
      "chip": "ym2612"
    },
    {
      "channel": 4,
      "note": 78,
      "start": 49.9994,
      "duration": 22.0046,
      "velocity": 106,
      "chip": "ym2612"
    },
    {
      "channel": 2,
      "note": 73,
      "start": 50.0028,
      "duration": 0.0084,
      "velocity": 111,
      "chip": "ym2612"
    },
    {
      "channel": 3,
      "note": 68,
      "start": 50.0031,
      "duration": 0.0083,
      "velocity": 111,
      "chip": "ym2612"
    },
    {
      "channel": 2,
      "note": 73,
      "start": 50.0114,
      "duration": 0.0086,
      "velocity": 111,
      "chip": "ym2612"
    },
    {
      "channel": 3,
      "note": 68,
      "start": 50.0116,
      "duration": 0.0086,
      "velocity": 111,
      "chip": "ym2612"
    },
    {
      "channel": 0,
      "note": 76,
      "start": 50.0197,
      "duration": 21.9843,
      "velocity": 106,
      "chip": "ym2612"
    },
    {
      "channel": 1,
      "note": 49,
      "start": 50.0199,
      "duration": 21.9841,
      "velocity": 103,
      "chip": "ym2612"
    },
    {
      "channel": 2,
      "note": 73,
      "start": 50.0202,
      "duration": 21.9839,
      "velocity": 111,
      "chip": "ym2612"
    },
    {
      "channel": 3,
      "note": 68,
      "start": 50.0204,
      "duration": 21.9837,
      "velocity": 111,
      "chip": "ym2612"
    }
  ]
}