{
  "track_name": "04 - Frash of Sword",
  "duration_sec": 66.704,
  "sample_rate": 44100,
  "note_count": 1206,
  "unique_pitches": 36,
  "pitch_range": 57,
  "avg_note_duration": 0.1754,
  "reconstruction_stats": {
    "notes_reconstructed": 1206,
    "keyon_events": 1206,
    "keyoff_events": 1203,
    "orphan_keyons": 3,
    "unique_pitches": 36,
    "pitch_range": 57,
    "avg_duration_sec": 0.1754
  },
  "metadata": {
    "source": "V\\Valis\\04 - Frash of Sword.vgz"
  },
  "notes": [
    {
      "channel": 0,
      "note": -1,
      "start": 0.006,
      "duration": 0.1332,
      "velocity": 115,
      "chip": "ym2612"
    },
    {
      "channel": 1,
      "note": -1,
      "start": 0.0103,
      "duration": 0.0198,
      "velocity": 91,
      "chip": "ym2612"
    },
    {
      "channel": 2,
      "note": -1,
      "start": 0.0146,
      "duration": 0.0534,
      "velocity": 97,
      "chip": "ym2612"
    },
    {
      "channel": 3,
      "note": -1,
      "start": 0.0191,
      "duration": 0.2068,
      "velocity": 105,
      "chip": "ym2612"
    },
    {
      "channel": 4,
      "note": -1,
      "start": 0.0233,
      "duration": 0.1173,
      "velocity": 115,
      "chip": "ym2612"
    },
    {
      "channel": 1,
      "note": 53,
      "start": 0.0351,
      "duration": 0.1045,
      "velocity": 91,
      "chip": "ym2612"
    },
    {
      "channel": 2,
      "note": 65,
      "start": 0.071,
      "duration": 0.0446,
      "velocity": 97,
      "chip": "ym2612"
    },
    {
      "channel": 2,
      "note": 68,
      "start": 0.1185,
      "duration": 0.0484,
      "velocity": 97,
      "chip": "ym2612"
    },
    {
      "channel": 0,
      "note": 77,
      "start": 0.1431,
      "duration": 0.0494,
      "velocity": 115,
      "chip": "ym2612"
    },
    {
      "channel": 1,
      "note": 53,
      "start": 0.1441,
      "duration": 0.0079,
      "velocity": 91,
      "chip": "ym2612"
    },
    {
      "channel": 4,
      "note": 77,
      "start": 0.1459,
      "duration": 0.048,
      "velocity": 115,
      "chip": "ym2612"
    },
    {
      "channel": 1,
      "note": 53,
      "start": 0.1573,
      "duration": 0.0071,
      "velocity": 91,
      "chip": "ym2612"
    },
    {
      "channel": 1,
      "note": 56,
      "start": 0.1698,
      "duration": 0.0078,
      "velocity": 91,
      "chip": "ym2612"
    },
    {
      "channel": 2,
      "note": 72,
      "start": 0.1709,
      "duration": 0.0484,
      "velocity": 97,
      "chip": "ym2612"
    },
    {
      "channel": 1,
      "note": 58,
      "start": 0.1833,
      "duration": 0.0071,
      "velocity": 91,
      "chip": "ym2612"
    },
    {
      "channel": 0,
      "note": 84,
      "start": 0.1955,
      "duration": 0.023,
      "velocity": 115,
      "chip": "ym2612"
    },
    {
      "channel": 1,
      "note": 61,
      "start": 0.1965,
      "duration": 0.0076,
      "velocity": 91,
      "chip": "ym2612"
    },
    {
      "channel": 4,
      "note": 84,
      "start": 0.1982,
      "duration": 0.0217,
      "velocity": 115,
      "chip": "ym2612"
    },
    {
      "channel": 1,
      "note": 65,
      "start": 0.2094,
      "duration": 0.0071,
      "velocity": 91,
      "chip": "ym2612"
    },
    {
      "channel": 0,
      "note": 80,
      "start": 0.2226,
      "duration": 0.0491,
      "velocity": 115,
      "chip": "ym2612"
    },
    {
      "channel": 1,
      "note": 53,
      "start": 0.2237,
      "duration": 0.0101,
      "velocity": 91,
      "chip": "ym2612"
    },
    {
      "channel": 2,
      "note": 77,
      "start": 0.2249,
      "duration": 0.0476,
      "velocity": 97,
      "chip": "ym2612"
    },
    {
      "channel": 3,
      "note": 53,
      "start": 0.226,
      "duration": 0.2116,
      "velocity": 105,
      "chip": "ym2612"
    },
    {
      "channel": 4,
      "note": 80,
      "start": 0.2272,
      "duration": 0.0459,
      "velocity": 115,
      "chip": "ym2612"
    },
    {
      "channel": 1,
      "note": 51,
      "start": 0.2391,
      "duration": 0.1094,
      "velocity": 91,
      "chip": "ym2612"
    },
    {
      "channel": 0,
      "note": 82,
      "start": 0.2756,
      "duration": 0.023,
      "velocity": 115,
      "chip": "ym2612"
    },
    {
      "channel": 2,
      "note": 63,
      "start": 0.277,
      "duration": 0.0475,
      "velocity": 97,
      "chip": "ym2612"
    },
    {
      "channel": 4,
      "note": 82,
      "start": 0.2784,
      "duration": 0.0216,
      "velocity": 115,
      "chip": "ym2612"
    },
    {
      "channel": 0,
      "note": 80,
      "start": 0.3026,
      "duration": 0.0454,
      "velocity": 115,
      "chip": "ym2612"
    },
    {
      "channel": 4,
      "note": 80,
      "start": 0.3046,
      "duration": 0.0449,
      "velocity": 115,
      "chip": "ym2612"
    },
    {
      "channel": 2,
      "note": 67,
      "start": 0.3274,
      "duration": 0.0485,
      "velocity": 97,
      "chip": "ym2612"
    },
    {
      "channel": 0,
      "note": 79,
      "start": 0.352,
      "duration": 0.0232,
      "velocity": 115,
      "chip": "ym2612"
    },
    {
      "channel": 1,
      "note": 51,
      "start": 0.353,
      "duration": 0.0078,
      "velocity": 91,
      "chip": "ym2612"
    },
    {
      "channel": 4,
      "note": 79,
      "start": 0.3547,
      "duration": 0.022,
      "velocity": 115,
      "chip": "ym2612"
    },
    {
      "channel": 1,
      "note": 51,
      "start": 0.3661,
      "duration": 0.0071,
      "velocity": 91,
      "chip": "ym2612"
    },
    {
      "channel": 0,
      "note": 77,
      "start": 0.3792,
      "duration": 0.051,
      "velocity": 115,
      "chip": "ym2612"
    },
    {
      "channel": 1,
      "note": 63,
      "start": 0.3802,
      "duration": 0.0086,
      "velocity": 91,
      "chip": "ym2612"
    },
    {
      "channel": 2,
      "note": 70,
      "start": 0.3813,
      "duration": 0.0497,
      "velocity": 97,
      "chip": "ym2612"
    },
    {
      "channel": 4,
      "note": 77,
      "start": 0.3827,
      "duration": 0.049,
      "velocity": 115,
      "chip": "ym2612"
    },
    {
      "channel": 1,
      "note": 60,
      "start": 0.3948,
      "duration": 0.0071,
      "velocity": 91,
      "chip": "ym2612"
    },
    {
      "channel": 1,
      "note": 58,
      "start": 0.4077,
      "duration": 0.0076,
      "velocity": 91,
      "chip": "ym2612"
    },
    {
      "channel": 1,
      "note": 56,
      "start": 0.4211,
      "duration": 0.0071,
      "velocity": 91,
      "chip": "ym2612"
    },
    {
      "channel": 0,
      "note": 75,
      "start": 0.4343,
      "duration": 0.1235,
      "velocity": 115,
      "chip": "ym2612"
    },
    {
      "channel": 1,
      "note": 51,
      "start": 0.4354,
      "duration": 0.0101,
      "velocity": 91,
      "chip": "ym2612"
    },
    {
      "channel": 2,
      "note": 75,
      "start": 0.4366,
      "duration": 0.0473,
      "velocity": 97,
      "chip": "ym2612"
    },
    {
      "channel": 3,
      "note": 51,
      "start": 0.4377,
      "duration": 0.2027,
      "velocity": 105,
      "chip": "ym2612"
    },
    {
      "channel": 4,
      "note": 75,
      "start": 0.4389,
      "duration": 0.1217,
      "velocity": 115,
      "chip": "ym2612"
    },
    {
      "channel": 1,
      "note": 53,
      "start": 0.4508,
      "duration": 0.1046,
      "velocity": 91,
      "chip": "ym2612"
    },
    {
      "channel": 2,
      "note": 65,
      "start": 0.487,
      "duration": 0.0446,
      "velocity": 97,
      "chip": "ym2612"
    },
    {
      "channel": 2,
      "note": 68,
      "start": 0.5345,
      "duration": 0.047,
      "velocity": 97,
      "chip": "ym2612"
    },
    {
      "channel": 0,
      "note": 77,
      "start": 0.5579,
      "duration": 0.0491,
      "velocity": 115,
      "chip": "ym2612"
    },
    {
      "channel": 1,
      "note": 53,
      "start": 0.5589,
      "duration": 0.0076,
      "velocity": 91,
      "chip": "ym2612"
    },
    {
      "channel": 4,
      "note": 77,
      "start": 0.5607,
      "duration": 0.0477,
      "velocity": 115,
      "chip": "ym2612"
    },
    {
      "channel": 1,
      "note": 53,
      "start": 0.5718,
      "duration": 0.0071,
      "velocity": 91,
      "chip": "ym2612"
    },
    {
      "channel": 1,
      "note": 56,
      "start": 0.5843,
      "duration": 0.0078,
      "velocity": 91,
      "chip": "ym2612"
    },
    {
      "channel": 2,
      "note": 72,
      "start": 0.5854,
      "duration": 0.0484,
      "velocity": 97,
      "chip": "ym2612"
    },
    {
      "channel": 1,
      "note": 58,
      "start": 0.5978,
      "duration": 0.0071,
      "velocity": 91,
      "chip": "ym2612"
    },
    {
      "channel": 0,
      "note": 84,
      "start": 0.61,
      "duration": 0.023,
      "velocity": 115,
      "chip": "ym2612"
    },
    {
      "channel": 1,
      "note": 61,
      "start": 0.611,
      "duration": 0.0076,
      "velocity": 91,
      "chip": "ym2612"
    },
    {
      "channel": 4,
      "note": 84,
      "start": 0.6128,
      "duration": 0.0217,
      "velocity": 115,
      "chip": "ym2612"
    },
    {
      "channel": 1,
      "note": 65,
      "start": 0.6239,
      "duration": 0.0071,
      "velocity": 91,
      "chip": "ym2612"
    },
    {
      "channel": 0,
      "note": 80,
      "start": 0.6371,
      "duration": 0.0733,
      "velocity": 115,
      "chip": "ym2612"
    },
    {
      "channel": 1,
      "note": 53,
      "start": 0.6383,
      "duration": 0.0101,
      "velocity": 91,
      "chip": "ym2612"
    },
    {
      "channel": 2,
      "note": 77,
      "start": 0.6394,
      "duration": 0.0473,
      "velocity": 97,
      "chip": "ym2612"
    },
    {
      "channel": 3,
      "note": 53,
      "start": 0.6405,
      "duration": 0.0685,
      "velocity": 105,
      "chip": "ym2612"
    },
    {
      "channel": 4,
      "note": 80,
      "start": 0.6417,
      "duration": 0.0702,
      "velocity": 115,
      "chip": "ym2612"
    },
    {
      "channel": 1,
      "note": 51,
      "start": 0.6536,
      "duration": 0.0573,
      "velocity": 91,
      "chip": "ym2612"
    },
    {
      "channel": 2,
      "note": 63,
      "start": 0.6898,
      "duration": 0.0483,
      "velocity": 97,
      "chip": "ym2612"
    },
    {
      "channel": 0,
      "note": 82,
      "start": 0.7143,
      "duration": 0.0695,
      "velocity": 115,
      "chip": "ym2612"
    },
    {
      "channel": 1,
      "note": 51,
      "start": 0.7153,
      "duration": 0.0689,
      "velocity": 91,
      "chip": "ym2612"
    },
    {
      "channel": 3,
      "note": 51,
      "start": 0.7167,
      "duration": 0.0656,
      "velocity": 105,
      "chip": "ym2612"
    },
    {
      "channel": 4,
      "note": 82,
      "start": 0.7178,
      "duration": 0.0676,
      "velocity": 115,
      "chip": "ym2612"
    },
    {
      "channel": 2,
      "note": 67,
      "start": 0.7412,
      "duration": 0.0434,
      "velocity": 97,
      "chip": "ym2612"
    },
    {
      "channel": 0,
      "note": 87,
      "start": 0.7869,
      "duration": 0.0468,
      "velocity": 115,
      "chip": "ym2612"
    },
    {
      "channel": 1,
      "note": 51,
      "start": 0.7879,
      "duration": 0.0463,
      "velocity": 91,
      "chip": "ym2612"
    },
    {
      "channel": 2,
      "note": 70,
      "start": 0.789,
      "duration": 0.0455,
      "velocity": 97,
      "chip": "ym2612"
    },
    {
      "channel": 3,
      "note": 63,
      "start": 0.7901,
      "duration": 0.0401,
      "velocity": 105,
      "chip": "ym2612"
    },
    {
      "channel": 4,
      "note": 87,
      "start": 0.7912,
      "duration": 0.0441,
      "velocity": 115,
      "chip": "ym2612"
    },
    {
      "channel": 0,
      "note": 88,
      "start": 0.837,
      "duration": 0.1208,
      "velocity": 115,
      "chip": "ym2612"
    },
    {
      "channel": 1,
      "note": 51,
      "start": 0.8381,
      "duration": 0.0161,
      "velocity": 91,
      "chip": "ym2612"
    },
    {
      "channel": 2,
      "note": 75,
      "start": 0.8393,
      "duration": 0.0176,
      "velocity": 97,
      "chip": "ym2612"
    },
    {
      "channel": 3,
      "note": 64,
      "start": 0.8434,
      "duration": 0.0223,
      "velocity": 94,
      "chip": "ym2612"
    },
    {
      "channel": 4,
      "note": 88,
      "start": 0.8476,
      "duration": 0.023,
      "velocity": 94,
      "chip": "ym2612"
    },
    {
      "channel": 1,
      "note": 53,
      "start": 0.8593,
      "duration": 0.1327,
      "velocity": 91,
      "chip": "ym2612"
    },
    {
      "channel": 2,
      "note": 65,
      "start": 0.8604,
      "duration": 0.0093,
      "velocity": 97,
      "chip": "ym2612"
    },
    {
      "channel": 2,
      "note": 68,
      "start": 0.8738,
      "duration": 0.011,
      "velocity": 97,
      "chip": "ym2612"
    },
    {
      "channel": 3,
      "note": 53,
      "start": 0.8749,
      "duration": 0.0193,
      "velocity": 94,
      "chip": "ym2612"
    },
    {
      "channel": 4,
      "note": 53,
      "start": 0.8759,
      "duration": 0.0232,
      "velocity": 94,
      "chip": "ym2612"
    },
    {
      "channel": 2,
      "note": 72,
      "start": 0.8885,
      "duration": 0.0097,
      "velocity": 97,
      "chip": "ym2612"
    },
    {
      "channel": 2,
      "note": 77,
      "start": 0.9019,
      "duration": 0.017,
      "velocity": 97,
      "chip": "ym2612"
    },
    {
      "channel": 3,
      "note": 53,
      "start": 0.906,
      "duration": 0.0529,
      "velocity": 105,
      "chip": "ym2612"
    },
    {
      "channel": 4,
      "note": 53,
      "start": 0.91,
      "duration": 0.0494,
      "velocity": 105,
      "chip": "ym2612"
    },
    {
      "channel": 2,
      "note": 65,
      "start": 0.9227,
      "duration": 0.0096,
      "velocity": 97,
      "chip": "ym2612"
    },
    {
      "channel": 2,
      "note": 68,
      "start": 0.936,
      "duration": 0.0095,
      "velocity": 97,
      "chip": "ym2612"
    },
    {
      "channel": 2,
      "note": 72,
      "start": 0.9488,
      "duration": 0.0098,
      "velocity": 97,
      "chip": "ym2612"
    },
    {
      "channel": 2,
      "note": 77,
      "start": 0.9624,
      "duration": 0.0172,
      "velocity": 97,
      "chip": "ym2612"
    },
    {
      "channel": 3,
      "note": 53,
      "start": 0.9664,
      "duration": 0.0195,
      "velocity": 94,
      "chip": "ym2612"
    },
    {
      "channel": 4,
      "note": 53,
      "start": 0.9705,
      "duration": 0.0226,
      "velocity": 94,
      "chip": "ym2612"
    },
    {
      "channel": 2,
      "note": 65,
      "start": 0.9825,
      "duration": 0.01,
      "velocity": 97,
      "chip": "ym2612"
    },
    {
      "channel": 1,
      "note": 53,
      "start": 0.9959,
      "duration": 0.0158,
      "velocity": 91,
      "chip": "ym2612"
    },
    {
      "channel": 2,
      "note": 68,
      "start": 0.997,
      "duration": 0.0173,
      "velocity": 97,
      "chip": "ym2612"
    },
    {
      "channel": 3,
      "note": 53,
      "start": 1.001,
      "duration": 0.0549,
      "velocity": 105,
      "chip": "ym2612"
    },
    {
      "channel": 4,
      "note": 53,
      "start": 1.0051,
      "duration": 0.0512,
      "velocity": 105,
      "chip": "ym2612"
    },
    {
      "channel": 1,
      "note": 53,
      "start": 1.0168,
      "duration": 0.0083,
      "velocity": 91,
      "chip": "ym2612"
    },
    {
      "channel": 2,
      "note": 72,
      "start": 1.0179,
      "duration": 0.0098,
      "velocity": 97,
      "chip": "ym2612"
    },
    {
      "channel": 1,
      "note": 56,
      "start": 1.0309,
      "duration": 0.0083,
      "velocity": 91,
      "chip": "ym2612"
    },
    {
      "channel": 2,
      "note": 77,
      "start": 1.032,
      "duration": 0.0099,
      "velocity": 97,
      "chip": "ym2612"
    },
    {
      "channel": 1,
      "note": 58,
      "start": 1.0447,
      "duration": 0.0081,
      "velocity": 91,
      "chip": "ym2612"
    },
    {
      "channel": 2,
      "note": 65,
      "start": 1.0458,
      "duration": 0.0097,
      "velocity": 97,
      "chip": "ym2612"
    },
    {
      "channel": 1,
      "note": 61,
      "start": 1.0586,
      "duration": 0.0158,
      "velocity": 91,
      "chip": "ym2612"
    },
    {
      "channel": 2,
      "note": 68,
      "start": 1.0597,
      "duration": 0.0173,
      "velocity": 97,
      "chip": "ym2612"
    },
    {
      "channel": 3,
      "note": 53,
      "start": 1.0637,
      "duration": 0.0204,
      "velocity": 94,
      "chip": "ym2612"
    },
    {
      "channel": 4,
      "note": 53,
      "start": 1.0678,
      "duration": 0.0236,
      "velocity": 94,
      "chip": "ym2612"
    },
    {
      "channel": 1,
      "note": 65,
      "start": 1.0796,
      "duration": 0.0085,
      "velocity": 91,
      "chip": "ym2612"
    },
    {
      "channel": 2,
      "note": 72,
      "start": 1.0807,
      "duration": 0.01,
      "velocity": 97,
      "chip": "ym2612"
    },
    {
      "channel": 1,
      "note": 53,
      "start": 1.0944,
      "duration": 0.0103,
      "velocity": 91,
      "chip": "ym2612"
    },
    {
      "channel": 2,
      "note": 77,
      "start": 1.0956,
      "duration": 0.0117,
      "velocity": 97,
      "chip": "ym2612"
    },
    {
      "channel": 3,
      "note": 51,
      "start": 1.0967,
      "duration": 0.0186,
      "velocity": 94,
      "chip": "ym2612"
    },
    {
      "channel": 4,
      "note": 51,
      "start": 1.0978,
      "duration": 0.0247,
      "velocity": 94,
      "chip": "ym2612"
    },
    {
      "channel": 1,
      "note": 51,
      "start": 1.1107,
      "duration": 0.1272,
      "velocity": 91,
      "chip": "ym2612"
    },
    {
      "channel": 2,
      "note": 63,
      "start": 1.1117,
      "duration": 0.01,
      "velocity": 97,
      "chip": "ym2612"
    },
    {
      "channel": 2,
      "note": 67,
      "start": 1.1258,
      "duration": 0.0112,
      "velocity": 97,
      "chip": "ym2612"
    },
    {
      "channel": 3,
      "note": 51,
      "start": 1.1269,
      "duration": 0.0173,
      "velocity": 94,
      "chip": "ym2612"
    },
    {
      "channel": 4,
      "note": 51,
      "start": 1.1279,
      "duration": 0.0234,
      "velocity": 94,
      "chip": "ym2612"
    },
    {
      "channel": 2,
      "note": 70,
      "start": 1.1407,
      "duration": 0.0098,
      "velocity": 97,
      "chip": "ym2612"
    },
    {
      "channel": 2,
      "note": 75,
      "start": 1.1543,
      "duration": 0.0112,
      "velocity": 97,
      "chip": "ym2612"
    },
    {
      "channel": 3,
      "note": 51,
      "start": 1.1554,
      "duration": 0.0168,
      "velocity": 94,
      "chip": "ym2612"
    },
    {
      "channel": 4,
      "note": 51,
      "start": 1.1564,
      "duration": 0.0229,
      "velocity": 94,
      "chip": "ym2612"
    },
    {
      "channel": 2,
      "note": 63,
      "start": 1.1688,
      "duration": 0.0098,
      "velocity": 97,
      "chip": "ym2612"
    },
    {
      "channel": 2,
      "note": 67,
      "start": 1.1824,
      "duration": 0.0173,
      "velocity": 97,
      "chip": "ym2612"
    },
    {
      "channel": 3,
      "note": 51,
      "start": 1.1864,
      "duration": 0.0523,
      "velocity": 105,
      "chip": "ym2612"
    },
    {
      "channel": 4,
      "note": 51,
      "start": 1.1904,
      "duration": 0.0487,
      "velocity": 105,
      "chip": "ym2612"
    },
    {
      "channel": 2,
      "note": 70,
      "start": 1.2025,
      "duration": 0.0096,
      "velocity": 97,
      "chip": "ym2612"
    },
    {
      "channel": 2,
      "note": 75,
      "start": 1.215,
      "duration": 0.0095,
      "velocity": 97,
      "chip": "ym2612"
    },
    {
      "channel": 2,
      "note": 63,
      "start": 1.2285,
      "duration": 0.0099,
      "velocity": 97,
      "chip": "ym2612"
    },
    {
      "channel": 1,
      "note": 51,
      "start": 1.2419,
      "duration": 0.0157,
      "velocity": 91,
      "chip": "ym2612"
    },
    {
      "channel": 2,
      "note": 67,
      "start": 1.243,
      "duration": 0.0172,
      "velocity": 97,
      "chip": "ym2612"
    },
    {
      "channel": 3,
      "note": 51,
      "start": 1.247,
      "duration": 0.0204,
      "velocity": 94,
      "chip": "ym2612"
    },
    {
      "channel": 4,
      "note": 51,
      "start": 1.251,
      "duration": 0.0236,
      "velocity": 94,
      "chip": "ym2612"
    },
    {
      "channel": 1,
      "note": 51,
      "start": 1.2629,
      "duration": 0.0084,
      "velocity": 91,
      "chip": "ym2612"
    },
    {
      "channel": 2,
      "note": 70,
      "start": 1.2639,
      "duration": 0.01,
      "velocity": 97,
      "chip": "ym2612"
    },
    {
      "channel": 1,
      "note": 63,
      "start": 1.277,
      "duration": 0.0098,
      "velocity": 91,
      "chip": "ym2612"
    },
    {
      "channel": 2,
      "note": 75,
      "start": 1.2781,
      "duration": 0.0113,
      "velocity": 97,
      "chip": "ym2612"
    },
    {
      "channel": 3,
      "note": 51,
      "start": 1.2791,
      "duration": 0.018,
      "velocity": 94,
      "chip": "ym2612"
    },
    {
      "channel": 4,
      "note": 51,
      "start": 1.2802,
      "duration": 0.0242,
      "velocity": 94,
      "chip": "ym2612"
    },
    {
      "channel": 1,
      "note": 60,
      "start": 1.2926,
      "duration": 0.0084,
      "velocity": 91,
      "chip": "ym2612"
    },
    {
      "channel": 2,
      "note": 63,
      "start": 1.2937,
      "duration": 0.01,
      "velocity": 97,
      "chip": "ym2612"
    },
    {
      "channel": 1,
      "note": 58,
      "start": 1.3068,
      "duration": 0.0098,
      "velocity": 91,
      "chip": "ym2612"
    },
    {
      "channel": 2,
      "note": 67,
      "start": 1.3079,
      "duration": 0.0114,
      "velocity": 97,
      "chip": "ym2612"
    },
    {
      "channel": 3,
      "note": 51,
      "start": 1.3089,
      "duration": 0.0178,
      "velocity": 94,
      "chip": "ym2612"
    },
    {
      "channel": 4,
      "note": 51,
      "start": 1.31,
      "duration": 0.024,
      "velocity": 94,
      "chip": "ym2612"
    },
    {
      "channel": 1,
      "note": 56,
      "start": 1.3222,
      "duration": 0.0085,
      "velocity": 91,
      "chip": "ym2612"
    },
    {
      "channel": 2,
      "note": 70,
      "start": 1.3232,
      "duration": 0.01,
      "velocity": 97,
      "chip": "ym2612"
    },
    {
      "channel": 0,
      "note": 89,
      "start": 1.3364,
      "duration": 0.1152,
      "velocity": 115,
      "chip": "ym2612"
    },
    {
      "channel": 1,
      "note": 51,
      "start": 1.3376,
      "duration": 0.0101,
      "velocity": 91,
      "chip": "ym2612"
    },
    {
      "channel": 2,
      "note": 75,
      "start": 1.3387,
      "duration": 0.0115,
      "velocity": 97,
      "chip": "ym2612"
    },
    {
      "channel": 3,
      "note": 51,
      "start": 1.3399,
      "duration": 0.0197,
      "velocity": 94,
      "chip": "ym2612"
    },
    {
      "channel": 4,
      "note": 51,
      "start": 1.341,
      "duration": 0.0235,
      "velocity": 94,
      "chip": "ym2612"
    },
    {
      "channel": 1,
      "note": 53,
      "start": 1.3529,
      "duration": 0.1329,
      "velocity": 91,
      "chip": "ym2612"
    },
    {
      "channel": 2,
      "note": 65,
      "start": 1.354,
      "duration": 0.0096,
      "velocity": 97,
      "chip": "ym2612"
    },
    {
      "channel": 2,
      "note": 68,
      "start": 1.3676,
      "duration": 0.011,
      "velocity": 97,
      "chip": "ym2612"
    },
    {
      "channel": 3,
      "note": 53,
      "start": 1.3687,
      "duration": 0.0193,
      "velocity": 94,
      "chip": "ym2612"
    },
    {
      "channel": 4,
      "note": 53,
      "start": 1.3698,
      "duration": 0.0232,
      "velocity": 94,
      "chip": "ym2612"
    },
    {
      "channel": 2,
      "note": 72,
      "start": 1.3824,
      "duration": 0.0097,
      "velocity": 97,
      "chip": "ym2612"
    },
    {
      "channel": 2,
      "note": 77,
      "start": 1.3958,
      "duration": 0.017,
      "velocity": 97,
      "chip": "ym2612"
    },
    {
      "channel": 3,
      "note": 53,
      "start": 1.3999,
      "duration": 0.0529,
      "velocity": 105,
      "chip": "ym2612"
    },
    {
      "channel": 4,
      "note": 53,
      "start": 1.4039,
      "duration": 0.0494,
      "velocity": 105,
      "chip": "ym2612"
    },
    {
      "channel": 2,
      "note": 65,
      "start": 1.4166,
      "duration": 0.0096,
      "velocity": 97,
      "chip": "ym2612"
    },
    {
      "channel": 2,
      "note": 68,
      "start": 1.4299,
      "duration": 0.0095,
      "velocity": 97,
      "chip": "ym2612"
    },
    {
      "channel": 2,
      "note": 72,
      "start": 1.4427,
      "duration": 0.0098,
      "velocity": 97,
      "chip": "ym2612"
    },
    {
      "channel": 2,
      "note": 77,
      "start": 1.4563,
      "duration": 0.0172,
      "velocity": 97,
      "chip": "ym2612"
    },
    {
      "channel": 3,
      "note": 53,
      "start": 1.4603,
      "duration": 0.0195,
      "velocity": 94,
      "chip": "ym2612"
    },
    {
      "channel": 4,
      "note": 53,
      "start": 1.4644,
      "duration": 0.0226,
      "velocity": 94,
      "chip": "ym2612"
    },
    {
      "channel": 2,
      "note": 65,
      "start": 1.4764,
      "duration": 0.01,
      "velocity": 97,
      "chip": "ym2612"
    },
    {
      "channel": 1,
      "note": 53,
      "start": 1.4898,
      "duration": 0.0158,
      "velocity": 91,
      "chip": "ym2612"
    },
    {
      "channel": 2,
      "note": 68,
      "start": 1.4909,
      "duration": 0.0173,
      "velocity": 97,
      "chip": "ym2612"
    },
    {
      "channel": 3,
      "note": 53,
      "start": 1.4949,
      "duration": 0.0549,
      "velocity": 105,
      "chip": "ym2612"
    },
    {
      "channel": 4,
      "note": 53,
      "start": 1.4989,
      "duration": 0.0512,
      "velocity": 105,
      "chip": "ym2612"
    },
    {
      "channel": 1,
      "note": 53,
      "start": 1.5107,
      "duration": 0.0083,
      "velocity": 91,
      "chip": "ym2612"
    },
    {
      "channel": 2,
      "note": 72,
      "start": 1.5118,
      "duration": 0.0098,
      "velocity": 97,
      "chip": "ym2612"
    },
    {
      "channel": 1,
      "note": 56,
      "start": 1.5247,
      "duration": 0.0083,
      "velocity": 91,
      "chip": "ym2612"
    },
    {
      "channel": 2,
      "note": 77,
      "start": 1.5258,
      "duration": 0.0099,
      "velocity": 97,
      "chip": "ym2612"
    },
    {
      "channel": 1,
      "note": 58,
      "start": 1.5386,
      "duration": 0.0081,
      "velocity": 91,
      "chip": "ym2612"
    },
    {
      "channel": 2,
      "note": 65,
      "start": 1.5397,
      "duration": 0.0097,
      "velocity": 97,
      "chip": "ym2612"
    },
    {
      "channel": 1,
      "note": 61,
      "start": 1.5525,
      "duration": 0.0158,
      "velocity": 91,
      "chip": "ym2612"
    },
    {
      "channel": 2,
      "note": 68,
      "start": 1.5536,
      "duration": 0.0173,
      "velocity": 97,
      "chip": "ym2612"
    },
    {
      "channel": 3,
      "note": 53,
      "start": 1.5576,
      "duration": 0.0204,
      "velocity": 94,
      "chip": "ym2612"
    },
    {
      "channel": 4,
      "note": 53,
      "start": 1.5617,
      "duration": 0.0236,
      "velocity": 94,
      "chip": "ym2612"
    },
    {
      "channel": 1,
      "note": 65,
      "start": 1.5735,
      "duration": 0.0085,
      "velocity": 91,
      "chip": "ym2612"
    },
    {
      "channel": 2,
      "note": 72,
      "start": 1.5746,
      "duration": 0.01,
      "velocity": 97,
      "chip": "ym2612"
    },
    {
      "channel": 1,
      "note": 53,
      "start": 1.5883,
      "duration": 0.0103,
      "velocity": 91,
      "chip": "ym2612"
    },
    {
      "channel": 2,
      "note": 77,
      "start": 1.5895,
      "duration": 0.0117,
      "velocity": 97,
      "chip": "ym2612"
    },
    {
      "channel": 3,
      "note": 51,
      "start": 1.5905,
      "duration": 0.0186,
      "velocity": 94,
      "chip": "ym2612"
    },
    {
      "channel": 4,
      "note": 51,
      "start": 1.5917,
      "duration": 0.0247,
      "velocity": 94,
      "chip": "ym2612"
    },
    {
      "channel": 1,
      "note": 51,
      "start": 1.6046,
      "duration": 0.1273,
      "velocity": 91,
      "chip": "ym2612"
    },
    {
      "channel": 2,
      "note": 63,
      "start": 1.6056,
      "duration": 0.01,
      "velocity": 97,
      "chip": "ym2612"
    },
    {
      "channel": 2,
      "note": 67,
      "start": 1.6197,
      "duration": 0.0112,
      "velocity": 97,
      "chip": "ym2612"
    },
    {
      "channel": 3,
      "note": 51,
      "start": 1.6207,
      "duration": 0.0173,
      "velocity": 94,
      "chip": "ym2612"
    },
    {
      "channel": 4,
      "note": 51,
      "start": 1.6218,
      "duration": 0.0234,
      "velocity": 94,
      "chip": "ym2612"
    },
    {
      "channel": 2,
      "note": 70,
      "start": 1.6346,
      "duration": 0.0098,
      "velocity": 97,
      "chip": "ym2612"
    },
    {
      "channel": 2,
      "note": 75,
      "start": 1.6482,
      "duration": 0.0112,
      "velocity": 97,
      "chip": "ym2612"
    },
    {
      "channel": 3,
      "note": 51,
      "start": 1.6493,
      "duration": 0.0168,
      "velocity": 94,
      "chip": "ym2612"
    },
    {
      "channel": 4,
      "note": 51,
      "start": 1.6503,
      "duration": 0.0229,
      "velocity": 94,
      "chip": "ym2612"
    },
    {
      "channel": 2,
      "note": 63,
      "start": 1.6626,
      "duration": 0.0098,
      "velocity": 97,
      "chip": "ym2612"
    },
    {
      "channel": 2,
      "note": 67,
      "start": 1.6762,
      "duration": 0.0172,
      "velocity": 97,
      "chip": "ym2612"
    },
    {
      "channel": 3,
      "note": 51,
      "start": 1.6803,
      "duration": 0.1509,
      "velocity": 105,
      "chip": "ym2612"
    },
    {
      "channel": 4,
      "note": 51,
      "start": 1.6844,
      "duration": 0.0699,
      "velocity": 105,
      "chip": "ym2612"
    },
    {
      "channel": 2,
      "note": 70,
      "start": 1.6964,
      "duration": 0.0095,
      "velocity": 97,
      "chip": "ym2612"
    },
    {
      "channel": 2,
      "note": 75,
      "start": 1.7088,
      "duration": 0.0095,
      "velocity": 97,
      "chip": "ym2612"
    },
    {
      "channel": 2,
      "note": 63,
      "start": 1.7224,
      "duration": 0.01,
      "velocity": 97,
      "chip": "ym2612"
    },
    {
      "channel": 1,
      "note": 51,
      "start": 1.7359,
      "duration": 0.0083,
      "velocity": 91,
      "chip": "ym2612"
    },
    {
      "channel": 2,
      "note": 67,
      "start": 1.7369,
      "duration": 0.0098,
      "velocity": 97,
      "chip": "ym2612"
    },
    {
      "channel": 1,
      "note": 51,
      "start": 1.7494,
      "duration": 0.0087,
      "velocity": 91,
      "chip": "ym2612"
    },
    {
      "channel": 2,
      "note": 70,
      "start": 1.7505,
      "duration": 0.0103,
      "velocity": 97,
      "chip": "ym2612"
    },
    {
      "channel": 1,
      "note": 63,
      "start": 1.7644,
      "duration": 0.0086,
      "velocity": 91,
      "chip": "ym2612"
    },
    {
      "channel": 2,
      "note": 75,
      "start": 1.7655,
      "duration": 0.0105,
      "velocity": 97,
      "chip": "ym2612"
    },
    {
      "channel": 1,
      "note": 51,
      "start": 1.7789,
      "duration": 0.0089,
      "velocity": 91,
      "chip": "ym2612"
    },
    {
      "channel": 2,
      "note": 63,
      "start": 1.78,
      "duration": 0.0104,
      "velocity": 97,
      "chip": "ym2612"
    },
    {
      "channel": 1,
      "note": 75,
      "start": 1.7938,
      "duration": 0.0086,
      "velocity": 91,
      "chip": "ym2612"
    },
    {
      "channel": 2,
      "note": 67,
      "start": 1.7949,
      "duration": 0.0105,
      "velocity": 97,
      "chip": "ym2612"
    },
    {
      "channel": 1,
      "note": 68,
      "start": 1.8084,
      "duration": 0.009,
      "velocity": 91,
      "chip": "ym2612"
    },
    {
      "channel": 2,
      "note": 70,
      "start": 1.8095,
      "duration": 0.0105,
      "velocity": 97,
      "chip": "ym2612"
    },
    {
      "channel": 0,
      "note": 89,
      "start": 1.8254,
      "duration": 0.1338,
      "velocity": 108,
      "chip": "ym2612"
    },
    {
      "channel": 1,
      "note": 63,
      "start": 1.8265,
      "duration": 0.0425,
      "velocity": 91,
      "chip": "ym2612"
    },
    {
      "channel": 2,
      "note": 75,
      "start": 1.8307,
      "duration": 0.1293,
      "velocity": 108,
      "chip": "ym2612"
    },
    {
      "channel": 3,
      "note": 63,
      "start": 1.8351,
      "duration": 0.2118,
      "velocity": 121,
      "chip": "ym2612"
    },
    {
      "channel": 4,
      "note": 63,
      "start": 1.8394,
      "duration": 0.2021,
      "velocity": 121,
      "chip": "ym2612"
    },
    {
      "channel": 1,
      "note": 53,
      "start": 1.8747,
      "duration": 0.0074,
      "velocity": 91,
      "chip": "ym2612"
    },
    {
      "channel": 1,
      "note": 65,
      "start": 1.8871,
      "duration": 0.0074,
      "velocity": 91,
      "chip": "ym2612"
    },
    {
      "channel": 1,
      "note": 53,
      "start": 1.8994,
      "duration": 0.0074,
      "velocity": 91,
      "chip": "ym2612"
    },
    {
      "channel": 1,
      "note": 53,
      "start": 1.9117,
      "duration": 0.0174,
      "velocity": 91,
      "chip": "ym2612"
    },
    {
      "channel": 1,
      "note": 65,
      "start": 1.9371,
      "duration": 0.0341,
      "velocity": 91,
      "chip": "ym2612"
    },
    {
      "channel": 0,
      "note": 53,
      "start": 1.9627,
      "duration": 0.0508,
      "velocity": 108,
      "chip": "ym2612"
    },
    {
      "channel": 2,
      "note": 53,
      "start": 1.9641,
      "duration": 0.0502,
      "velocity": 108,
      "chip": "ym2612"
    },
    {
      "channel": 1,
      "note": 53,
      "start": 1.9774,
      "duration": 0.0075,
      "velocity": 91,
      "chip": "ym2612"
    },
    {
      "channel": 1,
      "note": 65,
      "start": 1.9908,
      "duration": 0.0074,
      "velocity": 91,
      "chip": "ym2612"
    },
    {
      "channel": 1,
      "note": 53,
      "start": 2.0041,
      "duration": 0.0074,
      "velocity": 91,
      "chip": "ym2612"
    },
    {
      "channel": 0,
      "note": 60,
      "start": 2.0167,
      "duration": 0.0233,
      "velocity": 108,
      "chip": "ym2612"
    },
    {
      "channel": 1,
      "note": 53,
      "start": 2.0178,
      "duration": 0.0181,
      "velocity": 91,
      "chip": "ym2612"
    },
    {
      "channel": 2,
      "note": 60,
      "start": 2.0188,
      "duration": 0.022,
      "velocity": 108,
      "chip": "ym2612"
    },
    {
      "channel": 0,
      "note": 56,
      "start": 2.0435,
      "duration": 0.0752,
      "velocity": 108,
      "chip": "ym2612"
    },
    {
      "channel": 1,
      "note": 60,
      "start": 2.0447,
      "duration": 0.0345,
      "velocity": 91,
      "chip": "ym2612"
    },
    {
      "channel": 2,
      "note": 56,
      "start": 2.0458,
      "duration": 0.0738,
      "velocity": 108,
      "chip": "ym2612"
    },
    {
      "channel": 3,
      "note": 56,
      "start": 2.047,
      "duration": 0.211,
      "velocity": 121,
      "chip": "ym2612"
    },
    {
      "channel": 4,
      "note": 53,
      "start": 2.0481,
      "duration": 0.2044,
      "velocity": 121,
      "chip": "ym2612"
    },
    {
      "channel": 1,
      "note": 51,
      "start": 2.085,
      "duration": 0.0074,
      "velocity": 91,
      "chip": "ym2612"
    },
    {
      "channel": 1,
      "note": 63,
      "start": 2.0973,
      "duration": 0.0074,
      "velocity": 91,
      "chip": "ym2612"
    },
    {
      "channel": 1,
      "note": 51,
      "start": 2.1097,
      "duration": 0.0071,
      "velocity": 91,
      "chip": "ym2612"
    },
    {
      "channel": 0,
      "note": 58,
      "start": 2.1225,
      "duration": 0.0488,
      "velocity": 108,
      "chip": "ym2612"
    },
    {
      "channel": 1,
      "note": 51,
      "start": 2.1235,
      "duration": 0.0176,
      "velocity": 91,
      "chip": "ym2612"
    },
    {
      "channel": 2,
      "note": 58,
      "start": 2.1246,
      "duration": 0.0475,
      "velocity": 108,
      "chip": "ym2612"
    },
    {
      "channel": 1,
      "note": 63,
      "start": 2.1491,
      "duration": 0.0342,
      "velocity": 91,
      "chip": "ym2612"
    },
    {
      "channel": 0,
      "note": 55,
      "start": 2.1749,
      "duration": 0.0242,
      "velocity": 108,
      "chip": "ym2612"
    },
    {
      "channel": 2,
      "note": 55,
      "start": 2.1762,
      "duration": 0.0236,
      "velocity": 108,
      "chip": "ym2612"
    },
    {
      "channel": 1,
      "note": 51,
      "start": 2.1895,
      "duration": 0.0075,
      "velocity": 91,
      "chip": "ym2612"
    },
    {
      "channel": 0,
      "note": 53,
      "start": 2.2027,
      "duration": 0.0484,
      "velocity": 108,
      "chip": "ym2612"
    },
    {
      "channel": 1,
      "note": 63,
      "start": 2.2037,
      "duration": 0.0082,
      "velocity": 91,
      "chip": "ym2612"
    },
    {
      "channel": 2,
      "note": 53,
      "start": 2.2048,
      "duration": 0.0471,
      "velocity": 108,
      "chip": "ym2612"
    },
    {
      "channel": 1,
      "note": 51,
      "start": 2.2172,
      "duration": 0.0074,
      "velocity": 91,
      "chip": "ym2612"
    },
    {
      "channel": 1,
      "note": 51,
      "start": 2.2301,
      "duration": 0.0168,
      "velocity": 91,
      "chip": "ym2612"
    },
    {
      "channel": 0,
      "note": 51,
      "start": 2.2546,
      "duration": 0.1302,
      "velocity": 108,
      "chip": "ym2612"
    },
    {
      "channel": 1,
      "note": 58,
      "start": 2.2557,
      "duration": 0.0345,
      "velocity": 91,
      "chip": "ym2612"
    },
    {
      "channel": 2,
      "note": 51,
      "start": 2.2568,
      "duration": 0.1293,
      "velocity": 108,
      "chip": "ym2612"
    },
    {
      "channel": 3,
      "note": 55,
      "start": 2.258,
      "duration": 0.2097,
      "velocity": 121,
      "chip": "ym2612"
    },
    {
      "channel": 4,
      "note": 51,
      "start": 2.2592,
      "duration": 0.2032,
      "velocity": 121,
      "chip": "ym2612"
    },
    {
      "channel": 1,
      "note": 53,
      "start": 2.296,
      "duration": 0.0074,
      "velocity": 91,
      "chip": "ym2612"
    },
    {
      "channel": 1,
      "note": 65,
      "start": 2.3083,
      "duration": 0.0074,
      "velocity": 91,
      "chip": "ym2612"
    },
    {
      "channel": 1,
      "note": 53,
      "start": 2.3215,
      "duration": 0.0074,
      "velocity": 91,
      "chip": "ym2612"
    },
    {
      "channel": 1,
      "note": 53,
      "start": 2.3339,
      "duration": 0.0173,
      "velocity": 91,
      "chip": "ym2612"
    },
    {
      "channel": 1,
      "note": 65,
      "start": 2.3593,
      "duration": 0.0342,
      "velocity": 91,
      "chip": "ym2612"
    },
    {
      "channel": 0,
      "note": 53,
      "start": 2.3849,
      "duration": 0.0495,
      "velocity": 108,
      "chip": "ym2612"
    },
    {
      "channel": 2,
      "note": 53,
      "start": 2.3863,
      "duration": 0.0489,
      "velocity": 108,
      "chip": "ym2612"
    },
    {
      "channel": 1,
      "note": 53,
      "start": 2.3997,
      "duration": 0.0074,
      "velocity": 91,
      "chip": "ym2612"
    },
    {
      "channel": 1,
      "note": 65,
      "start": 2.412,
      "duration": 0.0072,
      "velocity": 91,
      "chip": "ym2612"
    },
    {
      "channel": 1,
      "note": 53,
      "start": 2.4251,
      "duration": 0.0074,
      "velocity": 91,
      "chip": "ym2612"
    },
    {
      "channel": 0,
      "note": 60,
      "start": 2.4377,
      "duration": 0.0232,
      "velocity": 108,
      "chip": "ym2612"
    },
    {
      "channel": 1,
      "note": 53,
      "start": 2.4387,
      "duration": 0.018,
      "velocity": 91,
      "chip": "ym2612"
    },
    {
      "channel": 2,
      "note": 60,
      "start": 2.4398,
      "duration": 0.0219,
      "velocity": 108,
      "chip": "ym2612"
    },
    {
      "channel": 0,
      "note": 56,
      "start": 2.4644,
      "duration": 0.0754,
      "velocity": 108,
      "chip": "ym2612"
    },
    {
      "channel": 1,
      "note": 60,
      "start": 2.4655,
      "duration": 0.0345,
      "velocity": 91,
      "chip": "ym2612"
    },
    {
      "channel": 2,
      "note": 56,
      "start": 2.4666,
      "duration": 0.0739,
      "velocity": 108,
      "chip": "ym2612"
    },
    {
      "channel": 3,
      "note": 56,
      "start": 2.4678,
      "duration": 0.2111,
      "velocity": 121,
      "chip": "ym2612"
    },
    {
      "channel": 4,
      "note": 53,
      "start": 2.469,
      "duration": 0.2046,
      "velocity": 121,
      "chip": "ym2612"
    },
    {
      "channel": 1,
      "note": 51,
      "start": 2.5058,
      "duration": 0.0074,
      "velocity": 91,
      "chip": "ym2612"
    },
    {
      "channel": 1,
      "note": 63,
      "start": 2.5181,
      "duration": 0.0074,
      "velocity": 91,
      "chip": "ym2612"
    },
    {
      "channel": 1,
      "note": 51,
      "start": 2.5305,
      "duration": 0.0074,
      "velocity": 91,
      "chip": "ym2612"
    },
    {
      "channel": 0,
      "note": 58,
      "start": 2.5436,
      "duration": 0.0488,
      "velocity": 108,
      "chip": "ym2612"
    },
    {
      "channel": 1,
      "note": 51,
      "start": 2.5446,
      "duration": 0.0175,
      "velocity": 91,
      "chip": "ym2612"
    },
    {
      "channel": 2,
      "note": 58,
      "start": 2.5457,
      "duration": 0.0475,
      "velocity": 108,
      "chip": "ym2612"
    },
    {
      "channel": 1,
      "note": 63,
      "start": 2.5701,
      "duration": 0.0342,
      "velocity": 91,
      "chip": "ym2612"
    },
    {
      "channel": 0,
      "note": 55,
      "start": 2.5959,
      "duration": 0.0242,
      "velocity": 108,
      "chip": "ym2612"
    },
    {
      "channel": 2,
      "note": 55,
      "start": 2.5972,
      "duration": 0.0236,
      "velocity": 108,
      "chip": "ym2612"
    },
    {
      "channel": 1,
      "note": 51,
      "start": 2.6106,
      "duration": 0.0075,
      "velocity": 91,
      "chip": "ym2612"
    },
    {
      "channel": 0,
      "note": 53,
      "start": 2.6237,
      "duration": 0.0484,
      "velocity": 108,
      "chip": "ym2612"
    },
    {
      "channel": 1,
      "note": 63,
      "start": 2.6247,
      "duration": 0.0082,
      "velocity": 91,
      "chip": "ym2612"
    },
    {
      "channel": 2,
      "note": 53,
      "start": 2.6258,
      "duration": 0.047,
      "velocity": 108,
      "chip": "ym2612"
    },
    {
      "channel": 1,
      "note": 51,
      "start": 2.6382,
      "duration": 0.0074,
      "velocity": 91,
      "chip": "ym2612"
    },
    {
      "channel": 1,
      "note": 51,
      "start": 2.6511,
      "duration": 0.0168,
      "velocity": 91,
      "chip": "ym2612"
    },
    {
      "channel": 0,
      "note": 51,
      "start": 2.6756,
      "duration": 0.1292,
      "velocity": 108,
      "chip": "ym2612"
    },
    {
      "channel": 1,
      "note": 58,
      "start": 2.6767,
      "duration": 0.0346,
      "velocity": 91,
      "chip": "ym2612"
    },
    {
      "channel": 2,
      "note": 51,
      "start": 2.6778,
      "duration": 0.1284,
      "velocity": 108,
      "chip": "ym2612"
    },
    {
      "channel": 3,
      "note": 55,
      "start": 2.679,
      "duration": 0.21,
      "velocity": 121,
      "chip": "ym2612"
    },
    {
      "channel": 4,
      "note": 51,
      "start": 2.6802,
      "duration": 0.2034,
      "velocity": 121,
      "chip": "ym2612"
    },
    {
      "channel": 1,
      "note": 53,
      "start": 2.717,
      "duration": 0.0074,
      "velocity": 91,
      "chip": "ym2612"
    },
    {
      "channel": 1,
      "note": 65,
      "start": 2.7294,
      "duration": 0.0074,
      "velocity": 91,
      "chip": "ym2612"
    },
    {
      "channel": 1,
      "note": 53,
      "start": 2.7417,
      "duration": 0.0074,
      "velocity": 91,
      "chip": "ym2612"
    },
    {
      "channel": 1,
      "note": 53,
      "start": 2.754,
      "duration": 0.0174,
      "velocity": 91,
      "chip": "ym2612"
    },
    {
      "channel": 1,
      "note": 65,
      "start": 2.7793,
      "duration": 0.0342,
      "velocity": 91,
      "chip": "ym2612"
    },
    {
      "channel": 0,
      "note": 53,
      "start": 2.805,
      "duration": 0.0507,
      "velocity": 108,
      "chip": "ym2612"
    },
    {
      "channel": 2,
      "note": 53,
      "start": 2.8064,
      "duration": 0.0501,
      "velocity": 108,
      "chip": "ym2612"
    },
    {
      "channel": 1,
      "note": 53,
      "start": 2.8197,
      "duration": 0.0074,
      "velocity": 91,
      "chip": "ym2612"
    },
    {
      "channel": 1,
      "note": 65,
      "start": 2.8329,
      "duration": 0.0074,
      "velocity": 91,
      "chip": "ym2612"
    },
    {
      "channel": 1,
      "note": 53,
      "start": 2.8462,
      "duration": 0.0075,
      "velocity": 91,
      "chip": "ym2612"
    },
    {
      "channel": 0,
      "note": 60,
      "start": 2.8589,
      "duration": 0.0233,
      "velocity": 108,
      "chip": "ym2612"
    },
    {
      "channel": 1,
      "note": 53,
      "start": 2.8599,
      "duration": 0.018,
      "velocity": 91,
      "chip": "ym2612"
    },
    {
      "channel": 2,
      "note": 60,
      "start": 2.861,
      "duration": 0.0219,
      "velocity": 108,
      "chip": "ym2612"
    },
    {
      "channel": 0,
      "note": 56,
      "start": 2.8858,
      "duration": 0.0999,
      "velocity": 108,
      "chip": "ym2612"
    },
    {
      "channel": 1,
      "note": 60,
      "start": 2.8869,
      "duration": 0.0345,
      "velocity": 91,
      "chip": "ym2612"
    },
    {
      "channel": 2,
      "note": 56,
      "start": 2.888,
      "duration": 0.0985,
      "velocity": 108,
      "chip": "ym2612"
    },
    {
      "channel": 3,
      "note": 56,
      "start": 2.8892,
      "duration": 0.2112,
      "velocity": 121,
      "chip": "ym2612"
    },
    {
      "channel": 4,
      "note": 53,
      "start": 2.8903,
      "duration": 0.2047,
      "velocity": 121,
      "chip": "ym2612"
    },
    {
      "channel": 1,
      "note": 51,
      "start": 2.9271,
      "duration": 0.0074,
      "velocity": 91,
      "chip": "ym2612"
    },
    {
      "channel": 1,
      "note": 63,
      "start": 2.9395,
      "duration": 0.0074,
      "velocity": 91,
      "chip": "ym2612"
    },
    {
      "channel": 1,
      "note": 51,
      "start": 2.9518,
      "duration": 0.0074,
      "velocity": 91,
      "chip": "ym2612"
    },
    {
      "channel": 1,
      "note": 51,
      "start": 2.9641,
      "duration": 0.0174,
      "velocity": 91,
      "chip": "ym2612"
    },
    {
      "channel": 0,
      "note": 58,
      "start": 2.9892,
      "duration": 0.0234,
      "velocity": 108,
      "chip": "ym2612"
    },
    {
      "channel": 1,
      "note": 63,
      "start": 2.9902,
      "duration": 0.0344,
      "velocity": 91,
      "chip": "ym2612"
    },
    {
      "channel": 2,
      "note": 58,
      "start": 2.9913,
      "duration": 0.0221,
      "velocity": 108,
      "chip": "ym2612"
    },
    {
      "channel": 0,
      "note": 55,
      "start": 3.0162,
      "duration": 0.0508,
      "velocity": 108,
      "chip": "ym2612"
    },
    {
      "channel": 2,
      "note": 55,
      "start": 3.0175,
      "duration": 0.0503,
      "velocity": 108,
      "chip": "ym2612"
    },
    {
      "channel": 1,
      "note": 51,
      "start": 3.0308,
      "duration": 0.0075,
      "velocity": 91,
      "chip": "ym2612"
    },
    {
      "channel": 1,
      "note": 63,
      "start": 3.0442,
      "duration": 0.0074,
      "velocity": 91,
      "chip": "ym2612"
    },
    {
      "channel": 1,
      "note": 51,
      "start": 3.0576,
      "duration": 0.0075,
      "velocity": 91,
      "chip": "ym2612"
    },
    {
      "channel": 0,
      "note": 56,
      "start": 3.0702,
      "duration": 0.0234,
      "velocity": 108,
      "chip": "ym2612"
    },
    {
      "channel": 1,
      "note": 51,
      "start": 3.0712,
      "duration": 0.0182,
      "velocity": 91,
      "chip": "ym2612"
    },
    {
      "channel": 2,
      "note": 56,
      "start": 3.0723,
      "duration": 0.022,
      "velocity": 108,
      "chip": "ym2612"
    },
    {
      "channel": 0,
      "note": 58,
      "start": 3.0971,
      "duration": 0.3548,
      "velocity": 108,
      "chip": "ym2612"
    },
    {
      "channel": 1,
      "note": 58,
      "start": 3.0983,
      "duration": 0.0101,
      "velocity": 91,
      "chip": "ym2612"
    },
    {
      "channel": 2,
      "note": 58,
      "start": 3.0994,
      "duration": 0.3535,
      "velocity": 108,
      "chip": "ym2612"
    },
    {
      "channel": 3,
      "note": 55,
      "start": 3.1005,
      "duration": 0.2044,
      "velocity": 121,
      "chip": "ym2612"
    },
    {
      "channel": 4,
      "note": 51,
      "start": 3.1017,
      "duration": 0.1998,
      "velocity": 121,
      "chip": "ym2612"
    },
    {
      "channel": 1,
      "note": 56,
      "start": 3.1136,
      "duration": 0.0074,
      "velocity": 91,
      "chip": "ym2612"
    },
    {
      "channel": 1,
      "note": 56,
      "start": 3.1259,
      "duration": 0.0071,
      "velocity": 91,
      "chip": "ym2612"
    },
    {
      "channel": 1,
      "note": 56,
      "start": 3.138,
      "duration": 0.0313,
      "velocity": 91,
      "chip": "ym2612"
    },
    {
      "channel": 1,
      "note": 68,
      "start": 3.1751,
      "duration": 0.0074,
      "velocity": 91,
      "chip": "ym2612"
    },
    {
      "channel": 1,
      "note": 56,
      "start": 3.188,
      "duration": 0.0073,
      "velocity": 91,
      "chip": "ym2612"
    },
    {
      "channel": 1,
      "note": 56,
      "start": 3.2003,
      "duration": 0.0072,
      "velocity": 91,
      "chip": "ym2612"
    },
    {
      "channel": 1,
      "note": 68,
      "start": 3.2136,
      "duration": 0.0074,
      "velocity": 91,
      "chip": "ym2612"
    },
    {
      "channel": 1,
      "note": 56,
      "start": 3.2269,
      "duration": 0.0074,
      "velocity": 91,
      "chip": "ym2612"
    },
    {
      "channel": 1,
      "note": 68,
      "start": 3.2404,
      "duration": 0.0314,
      "velocity": 91,
      "chip": "ym2612"
    },
    {
      "channel": 1,
      "note": 56,
      "start": 3.2777,
      "duration": 0.0078,
      "velocity": 91,
      "chip": "ym2612"
    },
    {
      "channel": 1,
      "note": 68,
      "start": 3.2907,
      "duration": 0.0074,
      "velocity": 91,
      "chip": "ym2612"
    },
    {
      "channel": 1,
      "note": 56,
      "start": 3.3038,
      "duration": 0.0157,
      "velocity": 91,
      "chip": "ym2612"
    },
    {
      "channel": 3,
      "note": 56,
      "start": 3.3085,
      "duration": 0.0117,
      "velocity": 104,
      "chip": "ym2612"
    },
    {
      "channel": 4,
      "note": 63,
      "start": 3.3127,
      "duration": 0.0103,
      "velocity": 104,
      "chip": "ym2612"
    },
    {
      "channel": 1,
      "note": 60,
      "start": 3.3255,
      "duration": 0.0091,
      "velocity": 91,
      "chip": "ym2612"
    },
    {
      "channel": 3,
      "note": 48,
      "start": 3.3269,
      "duration": 0.0107,
      "velocity": 104,
      "chip": "ym2612"
    },
    {
      "channel": 4,
      "note": 48,
      "start": 3.328,
      "duration": 0.0101,
      "velocity": 104,
      "chip": "ym2612"
    },
    {
      "channel": 1,
      "note": 60,
      "start": 3.3405,
      "duration": 0.0093,
      "velocity": 91,
      "chip": "ym2612"
    },
    {
      "channel": 3,
      "note": 52,
      "start": 3.3421,
      "duration": 0.0085,
      "velocity": 104,
      "chip": "ym2612"
    },
    {
      "channel": 4,
      "note": 52,
      "start": 3.3432,
      "duration": 0.0101,
      "velocity": 104,
      "chip": "ym2612"
    },
    {
      "channel": 1,
      "note": 72,
      "start": 3.3552,
      "duration": 0.0213,
      "velocity": 91,
      "chip": "ym2612"
    },
    {
      "channel": 3,
      "note": 55,
      "start": 3.3566,
      "duration": 0.0107,
      "velocity": 104,
      "chip": "ym2612"
    },
    {
      "channel": 4,
      "note": 55,
      "start": 3.3576,
      "duration": 0.0101,
      "velocity": 104,
      "chip": "ym2612"
    },
    {
      "channel": 3,
      "note": 58,
      "start": 3.3711,
      "duration": 0.0084,
      "velocity": 104,
      "chip": "ym2612"
    },
    {
      "channel": 4,
      "note": 58,
      "start": 3.3722,
      "duration": 0.0101,
      "velocity": 104,
      "chip": "ym2612"
    },
    {
      "channel": 1,
      "note": 60,
      "start": 3.385,
      "duration": 0.0091,
      "velocity": 91,
      "chip": "ym2612"
    },
    {
      "channel": 3,
      "note": 48,
      "start": 3.3864,
      "duration": 0.0108,
      "velocity": 104,
      "chip": "ym2612"
    },
    {
      "channel": 4,
      "note": 48,
      "start": 3.3875,
      "duration": 0.0102,
      "velocity": 104,
      "chip": "ym2612"
    },
    {
      "channel": 1,
      "note": 60,
      "start": 3.4001,
      "duration": 0.0093,
      "velocity": 91,
      "chip": "ym2612"
    },
    {
      "channel": 3,
      "note": 52,
      "start": 3.4017,
      "duration": 0.0085,
      "velocity": 104,
      "chip": "ym2612"
    },
    {
      "channel": 4,
      "note": 52,
      "start": 3.4027,
      "duration": 0.0102,
      "velocity": 104,
      "chip": "ym2612"
    },
    {
      "channel": 1,
      "note": 72,
      "start": 3.4154,
      "duration": 0.0091,
      "velocity": 91,
      "chip": "ym2612"
    },
    {
      "channel": 3,
      "note": 55,
      "start": 3.4168,
      "duration": 0.0108,
      "velocity": 104,
      "chip": "ym2612"
    },
    {
      "channel": 4,
      "note": 55,
      "start": 3.4178,
      "duration": 0.0102,
      "velocity": 104,
      "chip": "ym2612"
    },
    {
      "channel": 3,
      "note": 58,
      "start": 3.4312,
      "duration": 0.0083,
      "velocity": 104,
      "chip": "ym2612"
    },
    {
      "channel": 4,
      "note": 58,
      "start": 3.4323,
      "duration": 0.01,
      "velocity": 104,
      "chip": "ym2612"
    },
    {
      "channel": 3,
      "note": 48,
      "start": 3.4448,
      "duration": 0.0107,
      "velocity": 104,
      "chip": "ym2612"
    },
    {
      "channel": 4,
      "note": 52,
      "start": 3.4459,
      "duration": 0.01,
      "velocity": 104,
      "chip": "ym2612"
    },
    {
      "channel": 1,
      "note": 60,
      "start": 3.4579,
      "duration": 0.0088,
      "velocity": 91,
      "chip": "ym2612"
    },
    {
      "channel": 3,
      "note": 52,
      "start": 3.4593,
      "duration": 0.0081,
      "velocity": 104,
      "chip": "ym2612"
    },
    {
      "channel": 4,
      "note": 55,
      "start": 3.4603,
      "duration": 0.0097,
      "velocity": 104,
      "chip": "ym2612"
    },
    {
      "channel": 1,
      "note": 72,
      "start": 3.4726,
      "duration": 0.0091,
      "velocity": 91,
      "chip": "ym2612"
    },
    {
      "channel": 3,
      "note": 55,
      "start": 3.474,
      "duration": 0.0106,
      "velocity": 104,
      "chip": "ym2612"
    },
    {
      "channel": 4,
      "note": 58,
      "start": 3.475,
      "duration": 0.0099,
      "velocity": 104,
      "chip": "ym2612"
    },
    {
      "channel": 1,
      "note": 65,
      "start": 3.487,
      "duration": 0.0091,
      "velocity": 91,
      "chip": "ym2612"
    },
    {
      "channel": 3,
      "note": 58,
      "start": 3.4884,
      "duration": 0.0084,
      "velocity": 104,
      "chip": "ym2612"
    },
    {
      "channel": 4,
      "note": 60,
      "start": 3.4895,
      "duration": 0.01,
      "velocity": 104,
      "chip": "ym2612"
    },
    {
      "channel": 1,
      "note": 64,
      "start": 3.5015,
      "duration": 0.009,
      "velocity": 91,
      "chip": "ym2612"
    },
    {
      "channel": 3,
      "note": 48,
      "start": 3.5029,
      "duration": 0.0106,
      "velocity": 104,
      "chip": "ym2612"
    },
    {
      "channel": 4,
      "note": 55,
      "start": 3.504,
      "duration": 0.0099,
      "velocity": 104,
      "chip": "ym2612"
    },
    {
      "channel": 1,
      "note": 61,
      "start": 3.5165,
      "duration": 0.009,
      "velocity": 91,
      "chip": "ym2612"
    },
    {
      "channel": 3,
      "note": 52,
      "start": 3.5179,
      "duration": 0.0083,
      "velocity": 104,
      "chip": "ym2612"
    },
    {
      "channel": 4,
      "note": 58,
      "start": 3.519,
      "duration": 0.0099,
      "velocity": 104,
      "chip": "ym2612"
    },
    {
      "channel": 1,
      "note": 60,
      "start": 3.531,
      "duration": 0.0091,
      "velocity": 91,
      "chip": "ym2612"
    },
    {
      "channel": 3,
      "note": 55,
      "start": 3.5324,
      "duration": 0.0084,
      "velocity": 104,
      "chip": "ym2612"
    },
    {
      "channel": 4,
      "note": 60,
      "start": 3.5334,
      "duration": 0.0078,
      "velocity": 104,
      "chip": "ym2612"
    },
    {
      "channel": 0,
      "note": 60,
      "start": 3.5457,
      "duration": 0.1352,
      "velocity": 108,
      "chip": "ym2612"
    },
    {
      "channel": 1,
      "note": 53,
      "start": 3.5469,
      "duration": 0.0405,
      "velocity": 91,
      "chip": "ym2612"
    },
    {
      "channel": 2,
      "note": 60,
      "start": 3.548,
      "duration": 0.1344,
      "velocity": 108,
      "chip": "ym2612"
    },
    {
      "channel": 3,
      "note": 58,
      "start": 3.5522,
      "duration": 0.213,
      "velocity": 121,
      "chip": "ym2612"
    },
    {
      "channel": 4,
      "note": 64,
      "start": 3.5563,
      "duration": 0.2034,
      "velocity": 121,
      "chip": "ym2612"
    },
    {
      "channel": 1,
      "note": 53,
      "start": 3.5931,
      "duration": 0.0074,
      "velocity": 91,
      "chip": "ym2612"
    },
    {
      "channel": 1,
      "note": 65,
      "start": 3.6055,
      "duration": 0.0074,
      "velocity": 91,
      "chip": "ym2612"
    },
    {
      "channel": 1,
      "note": 53,
      "start": 3.6178,
      "duration": 0.0074,
      "velocity": 91,
      "chip": "ym2612"
    },
    {
      "channel": 1,
      "note": 53,
      "start": 3.6301,
      "duration": 0.0174,
      "velocity": 91,
      "chip": "ym2612"
    },
    {
      "channel": 1,
      "note": 65,
      "start": 3.6554,
      "duration": 0.0342,
      "velocity": 91,
      "chip": "ym2612"
    },
    {
      "channel": 0,
      "note": 53,
      "start": 3.6811,
      "duration": 0.0507,
      "velocity": 108,
      "chip": "ym2612"
    },
    {
      "channel": 2,
      "note": 53,
      "start": 3.6825,
      "duration": 0.0501,
      "velocity": 108,
      "chip": "ym2612"
    },
    {
      "channel": 1,
      "note": 53,
      "start": 3.6958,
      "duration": 0.0074,
      "velocity": 91,
      "chip": "ym2612"
    },
    {
      "channel": 1,
      "note": 65,
      "start": 3.709,
      "duration": 0.0074,
      "velocity": 91,
      "chip": "ym2612"
    },
    {
      "channel": 1,
      "note": 53,
      "start": 3.7223,
      "duration": 0.0075,
      "velocity": 91,
      "chip": "ym2612"
    },
    {
      "channel": 0,
      "note": 60,
      "start": 3.735,
      "duration": 0.0233,
      "velocity": 108,
      "chip": "ym2612"
    },
    {
      "channel": 1,
      "note": 53,
      "start": 3.736,
      "duration": 0.018,
      "velocity": 91,
      "chip": "ym2612"
    },
    {
      "channel": 2,
      "note": 60,
      "start": 3.7371,
      "duration": 0.0219,
      "velocity": 108,
      "chip": "ym2612"
    },
    {
      "channel": 0,
      "note": 56,
      "start": 3.7619,
      "duration": 0.0754,
      "velocity": 108,
      "chip": "ym2612"
    },
    {
      "channel": 1,
      "note": 60,
      "start": 3.763,
      "duration": 0.0345,
      "velocity": 91,
      "chip": "ym2612"
    },
    {
      "channel": 2,
      "note": 56,
      "start": 3.7641,
      "duration": 0.074,
      "velocity": 108,
      "chip": "ym2612"
    },
    {
      "channel": 3,
      "note": 56,
      "start": 3.7653,
      "duration": 0.211,
      "velocity": 121,
      "chip": "ym2612"
    },
    {
      "channel": 4,
      "note": 53,
      "start": 3.7664,
      "duration": 0.2045,
      "velocity": 121,
      "chip": "ym2612"
    },
    {
      "channel": 1,
      "note": 51,
      "start": 3.8032,
      "duration": 0.0074,
      "velocity": 91,
      "chip": "ym2612"
    },
    {
      "channel": 1,
      "note": 63,
      "start": 3.8156,
      "duration": 0.0074,
      "velocity": 91,
      "chip": "ym2612"
    },
    {
      "channel": 1,
      "note": 51,
      "start": 3.8279,
      "duration": 0.0074,
      "velocity": 91,
      "chip": "ym2612"
    },
    {
      "channel": 0,
      "note": 58,
      "start": 3.841,
      "duration": 0.0487,
      "velocity": 108,
      "chip": "ym2612"
    },
    {
      "channel": 1,
      "note": 51,
      "start": 3.8421,
      "duration": 0.0175,
      "velocity": 91,
      "chip": "ym2612"
    },
    {
      "channel": 2,
      "note": 58,
      "start": 3.8432,
      "duration": 0.0473,
      "velocity": 108,
      "chip": "ym2612"
    },
    {
      "channel": 1,
      "note": 63,
      "start": 3.8676,
      "duration": 0.0342,
      "velocity": 91,
      "chip": "ym2612"
    },
    {
      "channel": 0,
      "note": 55,
      "start": 3.8933,
      "duration": 0.0242,
      "velocity": 108,
      "chip": "ym2612"
    },
    {
      "channel": 2,
      "note": 55,
      "start": 3.8946,
      "duration": 0.0236,
      "velocity": 108,
      "chip": "ym2612"
    },
    {
      "channel": 1,
      "note": 51,
      "start": 3.908,
      "duration": 0.0075,
      "velocity": 91,
      "chip": "ym2612"
    },
    {
      "channel": 0,
      "note": 53,
      "start": 3.9211,
      "duration": 0.0484,
      "velocity": 108,
      "chip": "ym2612"
    },
    {
      "channel": 1,
      "note": 63,
      "start": 3.9221,
      "duration": 0.0082,
      "velocity": 91,
      "chip": "ym2612"
    },
    {
      "channel": 2,
      "note": 53,
      "start": 3.9232,
      "duration": 0.0471,
      "velocity": 108,
      "chip": "ym2612"
    },
    {
      "channel": 1,
      "note": 51,
      "start": 3.9356,
      "duration": 0.0074,
      "velocity": 91,
      "chip": "ym2612"
    },
    {
      "channel": 1,
      "note": 51,
      "start": 3.9485,
      "duration": 0.0168,
      "velocity": 91,
      "chip": "ym2612"
    },
    {
      "channel": 0,
      "note": 51,
      "start": 3.973,
      "duration": 0.1293,
      "velocity": 108,
      "chip": "ym2612"
    },
    {
      "channel": 1,
      "note": 58,
      "start": 3.9741,
      "duration": 0.0345,
      "velocity": 91,
      "chip": "ym2612"
    },
    {
      "channel": 2,
      "note": 51,
      "start": 3.9752,
      "duration": 0.1284,
      "velocity": 108,
      "chip": "ym2612"
    },
    {
      "channel": 3,
      "note": 55,
      "start": 3.9764,
      "duration": 0.21,
      "velocity": 121,
      "chip": "ym2612"
    },
    {
      "channel": 4,
      "note": 51,
      "start": 3.9776,
      "duration": 0.2035,
      "velocity": 121,
      "chip": "ym2612"
    },
    {
      "channel": 1,
      "note": 53,
      "start": 4.0144,
      "duration": 0.0074,
      "velocity": 91,
      "chip": "ym2612"
    },
    {
      "channel": 1,
      "note": 65,
      "start": 4.0267,
      "duration": 0.0074,
      "velocity": 91,
      "chip": "ym2612"
    },
    {
      "channel": 1,
      "note": 53,
      "start": 4.039,
      "duration": 0.0074,
      "velocity": 91,
      "chip": "ym2612"
    },
    {
      "channel": 1,
      "note": 53,
      "start": 4.0513,
      "duration": 0.0174,
      "velocity": 91,
      "chip": "ym2612"
    },
    {
      "channel": 1,
      "note": 65,
      "start": 4.0767,
      "duration": 0.0342,
      "velocity": 91,
      "chip": "ym2612"
    },
    {
      "channel": 0,
      "note": 53,
      "start": 4.1024,
      "duration": 0.0508,
      "velocity": 108,
      "chip": "ym2612"
    },
    {
      "channel": 2,
      "note": 53,
      "start": 4.1038,
      "duration": 0.0501,
      "velocity": 108,
      "chip": "ym2612"
    },
    {
      "channel": 1,
      "note": 53,
      "start": 4.1171,
      "duration": 0.0074,
      "velocity": 91,
      "chip": "ym2612"
    },
    {
      "channel": 1,
      "note": 65,
      "start": 4.1304,
      "duration": 0.0074,
      "velocity": 91,
      "chip": "ym2612"
    },
    {
      "channel": 1,
      "note": 53,
      "start": 4.1437,
      "duration": 0.0074,
      "velocity": 91,
      "chip": "ym2612"
    },
    {
      "channel": 0,
      "note": 60,
      "start": 4.1563,
      "duration": 0.0233,
      "velocity": 108,
      "chip": "ym2612"
    },
    {
      "channel": 1,
      "note": 53,
      "start": 4.1573,
      "duration": 0.0181,
      "velocity": 91,
      "chip": "ym2612"
    },
    {
      "channel": 2,
      "note": 60,
      "start": 4.1584,
      "duration": 0.022,
      "velocity": 108,
      "chip": "ym2612"
    },
    {
      "channel": 0,
      "note": 56,
      "start": 4.1832,
      "duration": 0.0764,
      "velocity": 108,
      "chip": "ym2612"
    },
    {
      "channel": 1,
      "note": 60,
      "start": 4.1843,
      "duration": 0.0345,
      "velocity": 91,
      "chip": "ym2612"
    },
    {
      "channel": 2,
      "note": 56,
      "start": 4.1854,
      "duration": 0.075,
      "velocity": 108,
      "chip": "ym2612"
    },
    {
      "channel": 3,
      "note": 56,
      "start": 4.1866,
      "duration": 0.2117,
      "velocity": 121,
      "chip": "ym2612"
    },
    {
      "channel": 4,
      "note": 53,
      "start": 4.1878,
      "duration": 0.2051,
      "velocity": 121,
      "chip": "ym2612"
    },
    {
      "channel": 1,
      "note": 51,
      "start": 4.2246,
      "duration": 0.0074,
      "velocity": 91,
      "chip": "ym2612"
    },
    {
      "channel": 1,
      "note": 63,
      "start": 4.2369,
      "duration": 0.0074,
      "velocity": 91,
      "chip": "ym2612"
    },
    {
      "channel": 1,
      "note": 51,
      "start": 4.2502,
      "duration": 0.0074,
      "velocity": 91,
      "chip": "ym2612"
    },
    {
      "channel": 0,
      "note": 58,
      "start": 4.2634,
      "duration": 0.0483,
      "velocity": 108,
      "chip": "ym2612"
    },
    {
      "channel": 1,
      "note": 51,
      "start": 4.2644,
      "duration": 0.0173,
      "velocity": 91,
      "chip": "ym2612"
    },
    {
      "channel": 2,
      "note": 58,
      "start": 4.2655,
      "duration": 0.047,
      "velocity": 108,
      "chip": "ym2612"
    },
    {
      "channel": 1,
      "note": 63,
      "start": 4.2896,
      "duration": 0.0341,
      "velocity": 91,
      "chip": "ym2612"
    },
    {
      "channel": 0,
      "note": 55,
      "start": 4.3152,
      "duration": 0.0242,
      "velocity": 108,
      "chip": "ym2612"
    },
    {
      "channel": 2,
      "note": 55,
      "start": 4.3166,
      "duration": 0.0236,
      "velocity": 108,
      "chip": "ym2612"
    },
    {
      "channel": 1,
      "note": 51,
      "start": 4.3299,
      "duration": 0.0075,
      "velocity": 91,
      "chip": "ym2612"
    },
    {
      "channel": 0,
      "note": 53,
      "start": 4.343,
      "duration": 0.0484,
      "velocity": 108,
      "chip": "ym2612"
    },
    {
      "channel": 1,
      "note": 63,
      "start": 4.344,
      "duration": 0.0082,
      "velocity": 91,
      "chip": "ym2612"
    },
    {
      "channel": 2,
      "note": 53,
      "start": 4.3451,
      "duration": 0.0471,
      "velocity": 108,
      "chip": "ym2612"
    },
    {
      "channel": 1,
      "note": 51,
      "start": 4.3575,
      "duration": 0.0074,
      "velocity": 91,
      "chip": "ym2612"
    },
    {
      "channel": 1,
      "note": 51,
      "start": 4.3704,
      "duration": 0.0168,
      "velocity": 91,
      "chip": "ym2612"
    },
    {
      "channel": 0,
      "note": 51,
      "start": 4.395,
      "duration": 0.1292,
      "velocity": 108,
      "chip": "ym2612"
    },
    {
      "channel": 1,
      "note": 58,
      "start": 4.3961,
      "duration": 0.0345,
      "velocity": 91,
      "chip": "ym2612"
    },
    {
      "channel": 2,
      "note": 51,
      "start": 4.3972,
      "duration": 0.1284,
      "velocity": 108,
      "chip": "ym2612"
    },
    {
      "channel": 3,
      "note": 55,
      "start": 4.3984,
      "duration": 0.2088,
      "velocity": 121,
      "chip": "ym2612"
    },
    {
      "channel": 4,
      "note": 51,
      "start": 4.3995,
      "duration": 0.2022,
      "velocity": 121,
      "chip": "ym2612"
    },
    {
      "channel": 1,
      "note": 53,
      "start": 4.4364,
      "duration": 0.0074,
      "velocity": 91,
      "chip": "ym2612"
    },
    {
      "channel": 1,
      "note": 65,
      "start": 4.4487,
      "duration": 0.0074,
      "velocity": 91,
      "chip": "ym2612"
    },
    {
      "channel": 1,
      "note": 53,
      "start": 4.4611,
      "duration": 0.0074,
      "velocity": 91,
      "chip": "ym2612"
    },
    {
      "channel": 1,
      "note": 53,
      "start": 4.4734,
      "duration": 0.0174,
      "velocity": 91,
      "chip": "ym2612"
    },
    {
      "channel": 1,
      "note": 65,
      "start": 4.4987,
      "duration": 0.0342,
      "velocity": 91,
      "chip": "ym2612"
    },
    {
      "channel": 0,
      "note": 53,
      "start": 4.5243,
      "duration": 0.0495,
      "velocity": 108,
      "chip": "ym2612"
    },
    {
      "channel": 2,
      "note": 53,
      "start": 4.5257,
      "duration": 0.0488,
      "velocity": 108,
      "chip": "ym2612"
    },
    {
      "channel": 1,
      "note": 53,
      "start": 4.539,
      "duration": 0.0074,
      "velocity": 91,
      "chip": "ym2612"
    },
    {
      "channel": 1,
      "note": 65,
      "start": 4.5514,
      "duration": 0.0072,
      "velocity": 91,
      "chip": "ym2612"
    },
    {
      "channel": 1,
      "note": 53,
      "start": 4.5644,
      "duration": 0.0074,
      "velocity": 91,
      "chip": "ym2612"
    },
    {
      "channel": 0,
      "note": 60,
      "start": 4.577,
      "duration": 0.0233,
      "velocity": 108,
      "chip": "ym2612"
    },
    {
      "channel": 1,
      "note": 53,
      "start": 4.578,
      "duration": 0.0181,
      "velocity": 91,
      "chip": "ym2612"
    },
    {
      "channel": 2,
      "note": 60,
      "start": 4.5791,
      "duration": 0.022,
      "velocity": 108,
      "chip": "ym2612"
    },
    {
      "channel": 0,
      "note": 56,
      "start": 4.6038,
      "duration": 0.0999,
      "velocity": 108,
      "chip": "ym2612"
    },
    {
      "channel": 1,
      "note": 60,
      "start": 4.605,
      "duration": 0.0345,
      "velocity": 91,
      "chip": "ym2612"
    },
    {
      "channel": 2,
      "note": 56,
      "start": 4.6061,
      "duration": 0.0985,
      "velocity": 108,
      "chip": "ym2612"
    },
    {
      "channel": 3,
      "note": 56,
      "start": 4.6073,
      "duration": 0.211,
      "velocity": 121,
      "chip": "ym2612"
    },
    {
      "channel": 4,
      "note": 53,
      "start": 4.6084,
      "duration": 0.2044,
      "velocity": 121,
      "chip": "ym2612"
    },
    {
      "channel": 1,
      "note": 51,
      "start": 4.6452,
      "duration": 0.0074,
      "velocity": 91,
      "chip": "ym2612"
    },
    {
      "channel": 1,
      "note": 63,
      "start": 4.6576,
      "duration": 0.0074,
      "velocity": 91,
      "chip": "ym2612"
    },
    {
      "channel": 1,
      "note": 51,
      "start": 4.6699,
      "duration": 0.0074,
      "velocity": 91,
      "chip": "ym2612"
    },
    {
      "channel": 1,
      "note": 51,
      "start": 4.6822,
      "duration": 0.0174,
      "velocity": 91,
      "chip": "ym2612"
    },
    {
      "channel": 0,
      "note": 58,
      "start": 4.7073,
      "duration": 0.0233,
      "velocity": 108,
      "chip": "ym2612"
    },
    {
      "channel": 1,
      "note": 63,
      "start": 4.7083,
      "duration": 0.0343,
      "velocity": 91,
      "chip": "ym2612"
    },
    {
      "channel": 2,
      "note": 58,
      "start": 4.7094,
      "duration": 0.022,
      "velocity": 108,
      "chip": "ym2612"
    },
    {
      "channel": 0,
      "note": 55,
      "start": 4.7341,
      "duration": 0.0507,
      "velocity": 108,
      "chip": "ym2612"
    },
    {
      "channel": 2,
      "note": 55,
      "start": 4.7355,
      "duration": 0.0502,
      "velocity": 108,
      "chip": "ym2612"
    },
    {
      "channel": 1,
      "note": 51,
      "start": 4.7488,
      "duration": 0.0075,
      "velocity": 91,
      "chip": "ym2612"
    },
    {
      "channel": 1,
      "note": 63,
      "start": 4.7622,
      "duration": 0.0074,
      "velocity": 91,
      "chip": "ym2612"
    },
    {
      "channel": 1,
      "note": 51,
      "start": 4.7755,
      "duration": 0.0074,
      "velocity": 91,
      "chip": "ym2612"
    },
    {
      "channel": 0,
      "note": 56,
      "start": 4.7881,
      "duration": 0.0233,
      "velocity": 108,
      "chip": "ym2612"
    },
    {
      "channel": 1,
      "note": 51,
      "start": 4.7891,
      "duration": 0.018,
      "velocity": 91,
      "chip": "ym2612"
    },
    {
      "channel": 2,
      "note": 56,
      "start": 4.7902,
      "duration": 0.0219,
      "velocity": 108,
      "chip": "ym2612"
    },
    {
      "channel": 0,
      "note": 58,
      "start": 4.8149,
      "duration": 0.2027,
      "velocity": 108,
      "chip": "ym2612"
    },
    {
      "channel": 1,
      "note": 58,
      "start": 4.816,
      "duration": 0.0101,
      "velocity": 91,
      "chip": "ym2612"
    },
    {
      "channel": 2,
      "note": 58,
      "start": 4.8172,
      "duration": 0.2011,
      "velocity": 108,
      "chip": "ym2612"
    },
    {
      "channel": 3,
      "note": 55,
      "start": 4.8183,
      "duration": 0.2046,
      "velocity": 121,
      "chip": "ym2612"
    },
    {
      "channel": 4,
      "note": 51,
      "start": 4.8195,
      "duration": 0.1995,
      "velocity": 121,
      "chip": "ym2612"
    },
    {
      "channel": 1,
      "note": 56,
      "start": 4.8314,
      "duration": 0.0074,
      "velocity": 91,
      "chip": "ym2612"
    },
    {
      "channel": 1,
      "note": 56,
      "start": 4.8438,
      "duration": 0.0071,
      "velocity": 91,
      "chip": "ym2612"
    },
    {
      "channel": 1,
      "note": 56,
      "start": 4.8559,
      "duration": 0.0313,
      "velocity": 91,
      "chip": "ym2612"
    },
    {
      "channel": 1,
      "note": 68,
      "start": 4.8929,
      "duration": 0.0074,
      "velocity": 91,
      "chip": "ym2612"
    },
    {
      "channel": 1,
      "note": 56,
      "start": 4.9059,
      "duration": 0.0073,
      "velocity": 91,
      "chip": "ym2612"
    },
    {
      "channel": 1,
      "note": 56,
      "start": 4.9182,
      "duration": 0.0072,
      "velocity": 91,
      "chip": "ym2612"
    },
    {
      "channel": 1,
      "note": 68,
      "start": 4.9314,
      "duration": 0.0074,
      "velocity": 91,
      "chip": "ym2612"
    },
    {
      "channel": 1,
      "note": 56,
      "start": 4.9447,
      "duration": 0.0074,
      "velocity": 91,
      "chip": "ym2612"
    },
    {
      "channel": 1,
      "note": 68,
      "start": 4.9582,
      "duration": 0.0312,
      "velocity": 91,
      "chip": "ym2612"
    },
    {
      "channel": 1,
      "note": 56,
      "start": 4.9947,
      "duration": 0.0075,
      "velocity": 91,
      "chip": "ym2612"
    },
    {
      "channel": 1,
      "note": 68,
      "start": 5.0081,
      "duration": 0.0074,
      "velocity": 91,
      "chip": "ym2612"
    },
    {
      "channel": 1,
      "note": 56,
      "start": 5.0218,
      "duration": 0.0156,
      "velocity": 91,
      "chip": "ym2612"
    },
    {
      "channel": 3,
      "note": 56,
      "start": 5.0265,
      "duration": 0.0117,
      "velocity": 104,
      "chip": "ym2612"
    },
    {
      "channel": 4,
      "note": 63,
      "start": 5.0306,
      "duration": 0.0101,
      "velocity": 104,
      "chip": "ym2612"
    },
    {
      "channel": 1,
      "note": 60,
      "start": 5.0427,
      "duration": 0.0089,
      "velocity": 91,
      "chip": "ym2612"
    },
    {
      "channel": 3,
      "note": 48,
      "start": 5.0441,
      "duration": 0.0104,
      "velocity": 104,
      "chip": "ym2612"
    },
    {
      "channel": 4,
      "note": 48,
      "start": 5.0451,
      "duration": 0.0097,
      "velocity": 104,
      "chip": "ym2612"
    },
    {
      "channel": 0,
      "note": 60,
      "start": 5.0566,
      "duration": 0.0517,
      "velocity": 108,
      "chip": "ym2612"
    },
    {
      "channel": 1,
      "note": 60,
      "start": 5.0577,
      "duration": 0.0097,
      "velocity": 91,
      "chip": "ym2612"
    },
    {
      "channel": 2,
      "note": 60,
      "start": 5.0588,
      "duration": 0.0503,
      "velocity": 108,
      "chip": "ym2612"
    },
    {
      "channel": 3,
      "note": 52,
      "start": 5.0598,
      "duration": 0.0083,
      "velocity": 104,
      "chip": "ym2612"
    },
    {
      "channel": 4,
      "note": 52,
      "start": 5.0609,
      "duration": 0.0097,
      "velocity": 104,
      "chip": "ym2612"
    },
    {
      "channel": 1,
      "note": 72,
      "start": 5.0733,
      "duration": 0.0203,
      "velocity": 91,
      "chip": "ym2612"
    },
    {
      "channel": 3,
      "note": 55,
      "start": 5.0747,
      "duration": 0.0103,
      "velocity": 104,
      "chip": "ym2612"
    },
    {
      "channel": 4,
      "note": 55,
      "start": 5.0758,
      "duration": 0.0097,
      "velocity": 104,
      "chip": "ym2612"
    },
    {
      "channel": 3,
      "note": 58,
      "start": 5.0882,
      "duration": 0.0082,
      "velocity": 104,
      "chip": "ym2612"
    },
    {
      "channel": 4,
      "note": 58,
      "start": 5.0894,
      "duration": 0.0097,
      "velocity": 104,
      "chip": "ym2612"
    },
    {
      "channel": 1,
      "note": 60,
      "start": 5.1017,
      "duration": 0.0093,
      "velocity": 91,
      "chip": "ym2612"
    },
    {
      "channel": 3,
      "note": 48,
      "start": 5.1032,
      "duration": 0.0108,
      "velocity": 104,
      "chip": "ym2612"
    },
    {
      "channel": 4,
      "note": 48,
      "start": 5.1042,
      "duration": 0.0102,
      "velocity": 104,
      "chip": "ym2612"
    },
    {
      "channel": 0,
      "note": 63,
      "start": 5.1168,
      "duration": 0.0221,
      "velocity": 108,
      "chip": "ym2612"
    },
    {
      "channel": 1,
      "note": 60,
      "start": 5.1178,
      "duration": 0.0097,
      "velocity": 91,
      "chip": "ym2612"
    },
    {
      "channel": 2,
      "note": 63,
      "start": 5.1189,
      "duration": 0.0207,
      "velocity": 108,
      "chip": "ym2612"
    },
    {
      "channel": 3,
      "note": 52,
      "start": 5.12,
      "duration": 0.0083,
      "velocity": 104,
      "chip": "ym2612"
    },
    {
      "channel": 4,
      "note": 52,
      "start": 5.1211,
      "duration": 0.0097,
      "velocity": 104,
      "chip": "ym2612"
    },
    {
      "channel": 1,
      "note": 72,
      "start": 5.1326,
      "duration": 0.009,
      "velocity": 91,
      "chip": "ym2612"
    },
    {
      "channel": 3,
      "note": 55,
      "start": 5.134,
      "duration": 0.0105,
      "velocity": 104,
      "chip": "ym2612"
    },
    {
      "channel": 4,
      "note": 55,
      "start": 5.1351,
      "duration": 0.0098,
      "velocity": 104,
      "chip": "ym2612"
    },
    {
      "channel": 0,
      "note": 61,
      "start": 5.1473,
      "duration": 0.0251,
      "velocity": 108,
      "chip": "ym2612"
    },
    {
      "channel": 1,
      "note": 60,
      "start": 5.1484,
      "duration": 0.0409,
      "velocity": 91,
      "chip": "ym2612"
    },
    {
      "channel": 2,
      "note": 61,
      "start": 5.1525,
      "duration": 0.0139,
      "velocity": 123,
      "chip": "ym2612"
    },
    {
      "channel": 3,
      "note": 58,
      "start": 5.1536,
      "duration": 0.0082,
      "velocity": 104,
      "chip": "ym2612"
    },
    {
      "channel": 4,
      "note": 58,
      "start": 5.1547,
      "duration": 0.0096,
      "velocity": 104,
      "chip": "ym2612"
    },
    {
      "channel": 2,
      "note": 52,
      "start": 5.1665,
      "duration": 0.0142,
      "velocity": 123,
      "chip": "ym2612"
    },
    {
      "channel": 3,
      "note": 48,
      "start": 5.1676,
      "duration": 0.0103,
      "velocity": 104,
      "chip": "ym2612"
    },
    {
      "channel": 4,
      "note": 52,
      "start": 5.1687,
      "duration": 0.0097,
      "velocity": 104,
      "chip": "ym2612"
    },
    {
      "channel": 2,
      "note": 53,
      "start": 5.1807,
      "duration": 0.0156,
      "velocity": 123,
      "chip": "ym2612"
    },
    {
      "channel": 3,
      "note": 52,
      "start": 5.1818,
      "duration": 0.0082,
      "velocity": 104,
      "chip": "ym2612"
    },
    {
      "channel": 4,
      "note": 55,
      "start": 5.183,
      "duration": 0.0097,
      "velocity": 104,
      "chip": "ym2612"
    },
    {
      "channel": 1,
      "note": 72,
      "start": 5.1954,
      "duration": 0.0099,
      "velocity": 91,
      "chip": "ym2612"
    },
    {
      "channel": 2,
      "note": 54,
      "start": 5.1964,
      "duration": 0.0153,
      "velocity": 123,
      "chip": "ym2612"
    },
    {
      "channel": 3,
      "note": 55,
      "start": 5.1975,
      "duration": 0.0107,
      "velocity": 104,
      "chip": "ym2612"
    },
    {
      "channel": 4,
      "note": 58,
      "start": 5.1987,
      "duration": 0.01,
      "velocity": 104,
      "chip": "ym2612"
    },
    {
      "channel": 1,
      "note": 65,
      "start": 5.2107,
      "duration": 0.0099,
      "velocity": 91,
      "chip": "ym2612"
    },
    {
      "channel": 2,
      "note": 55,
      "start": 5.2118,
      "duration": 0.0153,
      "velocity": 123,
      "chip": "ym2612"
    },
    {
      "channel": 3,
      "note": 58,
      "start": 5.2128,
      "duration": 0.0085,
      "velocity": 104,
      "chip": "ym2612"
    },
    {
      "channel": 4,
      "note": 60,
      "start": 5.214,
      "duration": 0.01,
      "velocity": 104,
      "chip": "ym2612"
    },
    {
      "channel": 1,
      "note": 64,
      "start": 5.2261,
      "duration": 0.0099,
      "velocity": 91,
      "chip": "ym2612"
    },
    {
      "channel": 2,
      "note": 56,
      "start": 5.2271,
      "duration": 0.0153,
      "velocity": 123,
      "chip": "ym2612"
    },
    {
      "channel": 3,
      "note": 48,
      "start": 5.2283,
      "duration": 0.0106,
      "velocity": 104,
      "chip": "ym2612"
    },
    {
      "channel": 4,
      "note": 55,
      "start": 5.2294,
      "duration": 0.01,
      "velocity": 104,
      "chip": "ym2612"
    },
    {
      "channel": 1,
      "note": 61,
      "start": 5.2414,
      "duration": 0.0099,
      "velocity": 91,
      "chip": "ym2612"
    },
    {
      "channel": 2,
      "note": 57,
      "start": 5.2425,
      "duration": 0.0153,
      "velocity": 123,
      "chip": "ym2612"
    },
    {
      "channel": 3,
      "note": 52,
      "start": 5.2436,
      "duration": 0.0085,
      "velocity": 104,
      "chip": "ym2612"
    },
    {
      "channel": 4,
      "note": 58,
      "start": 5.2447,
      "duration": 0.01,
      "velocity": 104,
      "chip": "ym2612"
    },
    {
      "channel": 1,
      "note": 60,
      "start": 5.2567,
      "duration": 0.0099,
      "velocity": 91,
      "chip": "ym2612"
    },
    {
      "channel": 2,
      "note": 58,
      "start": 5.2578,
      "duration": 0.0188,
      "velocity": 123,
      "chip": "ym2612"
    },
    {
      "channel": 3,
      "note": 55,
      "start": 5.2589,
      "duration": 0.0107,
      "velocity": 104,
      "chip": "ym2612"
    },
    {
      "channel": 4,
      "note": 60,
      "start": 5.26,
      "duration": 0.01,
      "velocity": 104,
      "chip": "ym2612"
    },
    {
      "channel": 0,
      "note": 60,
      "start": 5.2749,
      "duration": 0.2596,
      "velocity": 123,
      "chip": "ym2612"
    },
    {
      "channel": 1,
      "note": 53,
      "start": 5.2759,
      "duration": 0.0761,
      "velocity": 91,
      "chip": "ym2612"
    },
    {
      "channel": 3,
      "note": 58,
      "start": 5.3073,
      "duration": 0.0175,
      "velocity": 95,
      "chip": "ym2612"
    },
    {
      "channel": 4,
      "note": 64,
      "start": 5.3084,
      "duration": 0.0211,
      "velocity": 95,
      "chip": "ym2612"
    },
    {
      "channel": 2,
      "note": 59,
      "start": 5.3317,
      "duration": 0.2554,
      "velocity": 123,
      "chip": "ym2612"
    },
    {
      "channel": 3,
      "note": 72,
      "start": 5.3328,
      "duration": 0.0176,
      "velocity": 95,
      "chip": "ym2612"
    },
    {
      "channel": 4,
      "note": 68,
      "start": 5.3339,
      "duration": 0.0214,
      "velocity": 95,
      "chip": "ym2612"
    },
    {
      "channel": 1,
      "note": 56,
      "start": 5.3581,
      "duration": 0.0907,
      "velocity": 91,
      "chip": "ym2612"
    },
    {
      "channel": 3,
      "note": 70,
      "start": 5.3832,
      "duration": 0.0177,
      "velocity": 95,
      "chip": "ym2612"
    },
    {
      "channel": 4,
      "note": 67,
      "start": 5.3843,
      "duration": 0.0214,
      "velocity": 95,
      "chip": "ym2612"
    },
    {
      "channel": 3,
      "note": 72,
      "start": 5.4083,
      "duration": 0.0173,
      "velocity": 95,
      "chip": "ym2612"
    },
    {
      "channel": 4,
      "note": 68,
      "start": 5.4093,
      "duration": 0.021,
      "velocity": 95,
      "chip": "ym2612"
    },
    {
      "channel": 3,
      "note": 70,
      "start": 5.4573,
      "duration": 0.0442,
      "velocity": 95,
      "chip": "ym2612"
    },
    {
      "channel": 4,
      "note": 67,
      "start": 5.4583,
      "duration": 0.0478,
      "velocity": 95,
      "chip": "ym2612"
    },
    {
      "channel": 1,
      "note": 56,
      "start": 5.482,
      "duration": 0.014,
      "velocity": 91,
      "chip": "ym2612"
    },
    {
      "channel": 1,
      "note": 56,
      "start": 5.5091,
      "duration": 0.0712,
      "velocity": 91,
      "chip": "ym2612"
    },
    {
      "channel": 3,
      "note": 72,
      "start": 5.5105,
      "duration": 0.0173,
      "velocity": 95,
      "chip": "ym2612"
    },
    {
      "channel": 4,
      "note": 68,
      "start": 5.5115,
      "duration": 0.021,
      "velocity": 95,
      "chip": "ym2612"
    },
    {
      "channel": 0,
      "note": 58,
      "start": 5.5353,
      "duration": 0.0472,
      "velocity": 123,
      "chip": "ym2612"
    },
    {
      "channel": 3,
      "note": 72,
      "start": 5.5374,
      "duration": 0.0363,
      "velocity": 95,
      "chip": "ym2612"
    },
    {
      "channel": 4,
      "note": 68,
      "start": 5.5385,
      "duration": 0.0453,
      "velocity": 95,
      "chip": "ym2612"
    },
    {
      "channel": 0,
      "note": 60,
      "start": 5.586,
      "duration": 0.0497,
      "velocity": 123,
      "chip": "ym2612"
    },
    {
      "channel": 2,
      "note": 59,
      "start": 5.5878,
      "duration": 0.0486,
      "velocity": 123,
      "chip": "ym2612"
    },
    {
      "channel": 3,
      "note": 70,
      "start": 5.5889,
      "duration": 0.0175,
      "velocity": 95,
      "chip": "ym2612"
    },
    {
      "channel": 4,
      "note": 67,
      "start": 5.59,
      "duration": 0.0211,
      "velocity": 95,
      "chip": "ym2612"
    },
    {
      "channel": 1,
      "note": 56,
      "start": 5.613,
      "duration": 0.0185,
      "velocity": 91,
      "chip": "ym2612"
    },
    {
      "channel": 3,
      "note": 72,
      "start": 5.6144,
      "duration": 0.0704,
      "velocity": 95,
      "chip": "ym2612"
    },
    {
      "channel": 4,
      "note": 68,
      "start": 5.6154,
      "duration": 0.0721,
      "velocity": 95,
      "chip": "ym2612"
    },
    {
      "channel": 0,
      "note": 63,
      "start": 5.6388,
      "duration": 0.0473,
      "velocity": 123,
      "chip": "ym2612"
    },
    {
      "channel": 1,
      "note": 51,
      "start": 5.6398,
      "duration": 0.0176,
      "velocity": 91,
      "chip": "ym2612"
    },
    {
      "channel": 2,
      "note": 60,
      "start": 5.6409,
      "duration": 0.046,
      "velocity": 123,
      "chip": "ym2612"
    },
    {
      "channel": 1,
      "note": 53,
      "start": 5.6652,
      "duration": 0.0167,
      "velocity": 91,
      "chip": "ym2612"
    },
    {
      "channel": 0,
      "note": 65,
      "start": 5.69,
      "duration": 0.0756,
      "velocity": 123,
      "chip": "ym2612"
    },
    {
      "channel": 1,
      "note": 56,
      "start": 5.6911,
      "duration": 0.0725,
      "velocity": 91,
      "chip": "ym2612"
    },
    {
      "channel": 2,
      "note": 63,
      "start": 5.6923,
      "duration": 0.0471,
      "velocity": 123,
      "chip": "ym2612"
    },
    {
      "channel": 3,
      "note": 70,
      "start": 5.7177,
      "duration": 0.0176,
      "velocity": 95,
      "chip": "ym2612"
    },
    {
      "channel": 4,
      "note": 67,
      "start": 5.7188,
      "duration": 0.0214,
      "velocity": 95,
      "chip": "ym2612"
    },
    {
      "channel": 2,
      "note": 65,
      "start": 5.7438,
      "duration": 0.0747,
      "velocity": 123,
      "chip": "ym2612"
    },
    {
      "channel": 3,
      "note": 73,
      "start": 5.7448,
      "duration": 0.0172,
      "velocity": 95,
      "chip": "ym2612"
    },
    {
      "channel": 4,
      "note": 70,
      "start": 5.7459,
      "duration": 0.0212,
      "velocity": 95,
      "chip": "ym2612"
    },
    {
      "channel": 0,
      "note": 60,
      "start": 5.7694,
      "duration": 0.2316,
      "velocity": 123,
      "chip": "ym2612"
    },
    {
      "channel": 1,
      "note": 58,
      "start": 5.7705,
      "duration": 0.0933,
      "velocity": 91,
      "chip": "ym2612"
    },
    {
      "channel": 3,
      "note": 72,
      "start": 5.7967,
      "duration": 0.0176,
      "velocity": 95,
      "chip": "ym2612"
    },
    {
      "channel": 4,
      "note": 68,
      "start": 5.7978,
      "duration": 0.0214,
      "velocity": 95,
      "chip": "ym2612"
    },
    {
      "channel": 2,
      "note": 60,
      "start": 5.8224,
      "duration": 0.0258,
      "velocity": 123,
      "chip": "ym2612"
    },
    {
      "channel": 3,
      "note": 73,
      "start": 5.8235,
      "duration": 0.0178,
      "velocity": 95,
      "chip": "ym2612"
    },
    {
      "channel": 4,
      "note": 70,
      "start": 5.8245,
      "duration": 0.0215,
      "velocity": 95,
      "chip": "ym2612"
    },
    {
      "channel": 2,
      "note": 58,
      "start": 5.8482,
      "duration": 0.0496,
      "velocity": 123,
      "chip": "ym2612"
    },
    {
      "channel": 3,
      "note": 72,
      "start": 5.8724,
      "duration": 0.0441,
      "velocity": 95,
      "chip": "ym2612"
    },
    {
      "channel": 4,
      "note": 68,
      "start": 5.8734,
      "duration": 0.0478,
      "velocity": 95,
      "chip": "ym2612"
    },
    {
      "channel": 1,
      "note": 58,
      "start": 5.8968,
      "duration": 0.0142,
      "velocity": 91,
      "chip": "ym2612"
    },
    {
      "channel": 2,
      "note": 60,
      "start": 5.898,
      "duration": 0.1598,
      "velocity": 123,
      "chip": "ym2612"
    },
    {
      "channel": 1,
      "note": 58,
      "start": 5.9239,
      "duration": 0.0717,
      "velocity": 91,
      "chip": "ym2612"
    },
    {
      "channel": 3,
      "note": 73,
      "start": 5.9253,
      "duration": 0.0174,
      "velocity": 95,
      "chip": "ym2612"
    },
    {
      "channel": 4,
      "note": 70,
      "start": 5.9263,
      "duration": 0.0212,
      "velocity": 95,
      "chip": "ym2612"
    },
    {
      "channel": 3,
      "note": 73,
      "start": 5.9511,
      "duration": 0.0379,
      "velocity": 95,
      "chip": "ym2612"
    },
    {
      "channel": 4,
      "note": 70,
      "start": 5.9521,
      "duration": 0.0469,
      "velocity": 95,
      "chip": "ym2612"
    },
    {
      "channel": 0,
      "note": 58,
      "start": 6.001,
      "duration": 0.051,
      "velocity": 123,
      "chip": "ym2612"
    },
    {
      "channel": 3,
      "note": 72,
      "start": 6.0031,
      "duration": 0.0184,
      "velocity": 95,
      "chip": "ym2612"
    },
    {
      "channel": 4,
      "note": 68,
      "start": 6.0041,
      "duration": 0.0222,
      "velocity": 95,
      "chip": "ym2612"
    },
    {
      "channel": 1,
      "note": 58,
      "start": 6.029,
      "duration": 0.0187,
      "velocity": 91,
      "chip": "ym2612"
    },
    {
      "channel": 3,
      "note": 73,
      "start": 6.0305,
      "duration": 0.071,
      "velocity": 95,
      "chip": "ym2612"
    },
    {
      "channel": 4,
      "note": 70,
      "start": 6.0316,
      "duration": 0.0727,
      "velocity": 95,
      "chip": "ym2612"
    },
    {
      "channel": 0,
      "note": 53,
      "start": 6.0556,
      "duration": 0.0473,
      "velocity": 123,
      "chip": "ym2612"
    },
    {
      "channel": 1,
      "note": 65,
      "start": 6.0566,
      "duration": 0.0177,
      "velocity": 91,
      "chip": "ym2612"
    },
    {
      "channel": 2,
      "note": 58,
      "start": 6.0579,
      "duration": 0.0458,
      "velocity": 123,
      "chip": "ym2612"
    },
    {
      "channel": 1,
      "note": 63,
      "start": 6.082,
      "duration": 0.0166,
      "velocity": 91,
      "chip": "ym2612"
    },
    {
      "channel": 0,
      "note": 55,
      "start": 6.1068,
      "duration": 0.138,
      "velocity": 123,
      "chip": "ym2612"
    },
    {
      "channel": 1,
      "note": 61,
      "start": 6.1079,
      "duration": 0.0725,
      "velocity": 91,
      "chip": "ym2612"
    },
    {
      "channel": 2,
      "note": 53,
      "start": 6.109,
      "duration": 0.0471,
      "velocity": 123,
      "chip": "ym2612"
    },
    {
      "channel": 3,
      "note": 72,
      "start": 6.1345,
      "duration": 0.0176,
      "velocity": 95,
      "chip": "ym2612"
    },
    {
      "channel": 4,
      "note": 68,
      "start": 6.1356,
      "duration": 0.0214,
      "velocity": 95,
      "chip": "ym2612"
    },
    {
      "channel": 2,
      "note": 55,
      "start": 6.16,
      "duration": 0.1071,
      "velocity": 123,
      "chip": "ym2612"
    },
    {
      "channel": 3,
      "note": 77,
      "start": 6.1611,
      "duration": 0.0176,
      "velocity": 95,
      "chip": "ym2612"
    },
    {
      "channel": 4,
      "note": 68,
      "start": 6.1622,
      "duration": 0.0214,
      "velocity": 95,
      "chip": "ym2612"
    },
    {
      "channel": 1,
      "note": 61,
      "start": 6.1864,
      "duration": 0.0959,
      "velocity": 91,
      "chip": "ym2612"
    },
    {
      "channel": 3,
      "note": 75,
      "start": 6.212,
      "duration": 0.0184,
      "velocity": 95,
      "chip": "ym2612"
    },
    {
      "channel": 4,
      "note": 67,
      "start": 6.2131,
      "duration": 0.022,
      "velocity": 95,
      "chip": "ym2612"
    },
    {
      "channel": 3,
      "note": 77,
      "start": 6.2377,
      "duration": 0.0189,
      "velocity": 95,
      "chip": "ym2612"
    },
    {
      "channel": 4,
      "note": 68,
      "start": 6.2388,
      "duration": 0.0227,
      "velocity": 95,
      "chip": "ym2612"
    },
    {
      "channel": 0,
      "note": 56,
      "start": 6.2478,
      "duration": 0.0312,
      "velocity": 123,
      "chip": "ym2612"
    },
    {
      "channel": 2,
      "note": 66,
      "start": 6.2679,
      "duration": 0.0306,
      "velocity": 123,
      "chip": "ym2612"
    },
    {
      "channel": 0,
      "note": 58,
      "start": 6.2819,
      "duration": 0.0308,
      "velocity": 123,
      "chip": "ym2612"
    },
    {
      "channel": 3,
      "note": 75,
      "start": 6.291,
      "duration": 0.0471,
      "velocity": 95,
      "chip": "ym2612"
    },
    {
      "channel": 4,
      "note": 67,
      "start": 6.2921,
      "duration": 0.0507,
      "velocity": 95,
      "chip": "ym2612"
    },
    {
      "channel": 2,
      "note": 56,
      "start": 6.3014,
      "duration": 0.0166,
      "velocity": 123,
      "chip": "ym2612"
    },
    {
      "channel": 0,
      "note": 56,
      "start": 6.3159,
      "duration": 0.1014,
      "velocity": 123,
      "chip": "ym2612"
    },
    {
      "channel": 1,
      "note": 61,
      "start": 6.317,
      "duration": 0.0147,
      "velocity": 91,
      "chip": "ym2612"
    },
    {
      "channel": 2,
      "note": 59,
      "start": 6.3181,
      "duration": 0.0166,
      "velocity": 123,
      "chip": "ym2612"
    },
    {
      "channel": 2,
      "note": 58,
      "start": 6.3376,
      "duration": 0.03,
      "velocity": 123,
      "chip": "ym2612"
    },
    {
      "channel": 1,
      "note": 51,
      "start": 6.3447,
      "duration": 0.0683,
      "velocity": 91,
      "chip": "ym2612"
    },
    {
      "channel": 3,
      "note": 77,
      "start": 6.3461,
      "duration": 0.0174,
      "velocity": 95,
      "chip": "ym2612"
    },
    {
      "channel": 4,
      "note": 68,
      "start": 6.3472,
      "duration": 0.0212,
      "velocity": 95,
      "chip": "ym2612"
    },
    {
      "channel": 2,
      "note": 56,
      "start": 6.3715,
      "duration": 0.1012,
      "velocity": 123,
      "chip": "ym2612"
    },
    {
      "channel": 3,
      "note": 77,
      "start": 6.3726,
      "duration": 0.0363,
      "velocity": 95,
      "chip": "ym2612"
    },
    {
      "channel": 4,
      "note": 68,
      "start": 6.3736,
      "duration": 0.045,
      "velocity": 95,
      "chip": "ym2612"
    },
    {
      "channel": 0,
      "note": 55,
      "start": 6.4211,
      "duration": 0.0508,
      "velocity": 123,
      "chip": "ym2612"
    },
    {
      "channel": 1,
      "note": 63,
      "start": 6.4221,
      "duration": 0.0188,
      "velocity": 91,
      "chip": "ym2612"
    },
    {
      "channel": 3,
      "note": 75,
      "start": 6.4235,
      "duration": 0.0182,
      "velocity": 95,
      "chip": "ym2612"
    },
    {
      "channel": 4,
      "note": 67,
      "start": 6.4246,
      "duration": 0.0218,
      "velocity": 95,
      "chip": "ym2612"
    },
    {
      "channel": 1,
      "note": 51,
      "start": 6.4492,
      "duration": 0.0185,
      "velocity": 91,
      "chip": "ym2612"
    },
    {
      "channel": 3,
      "note": 77,
      "start": 6.4506,
      "duration": 0.0712,
      "velocity": 95,
      "chip": "ym2612"
    },
    {
      "channel": 4,
      "note": 68,
      "start": 6.4516,
      "duration": 0.0729,
      "velocity": 95,
      "chip": "ym2612"
    },
    {
      "channel": 0,
      "note": 53,
      "start": 6.4758,
      "duration": 0.0473,
      "velocity": 123,
      "chip": "ym2612"
    },
    {
      "channel": 1,
      "note": 63,
      "start": 6.4769,
      "duration": 0.0176,
      "velocity": 91,
      "chip": "ym2612"
    },
    {
      "channel": 2,
      "note": 55,
      "start": 6.4779,
      "duration": 0.046,
      "velocity": 123,
      "chip": "ym2612"
    },
    {
      "channel": 1,
      "note": 75,
      "start": 6.5022,
      "duration": 0.0166,
      "velocity": 91,
      "chip": "ym2612"
    },
    {
      "channel": 0,
      "note": 51,
      "start": 6.527,
      "duration": 0.407,
      "velocity": 123,
      "chip": "ym2612"
    },
    {
      "channel": 1,
      "note": 63,
      "start": 6.5281,
      "duration": 0.0713,
      "velocity": 91,
      "chip": "ym2612"
    },
    {
      "channel": 2,
      "note": 53,
      "start": 6.5293,
      "duration": 0.0469,
      "velocity": 123,
      "chip": "ym2612"
    },
    {
      "channel": 3,
      "note": 75,
      "start": 6.5547,
      "duration": 0.0175,
      "velocity": 95,
      "chip": "ym2612"
    },
    {
      "channel": 4,
      "note": 67,
      "start": 6.5558,
      "duration": 0.0212,
      "velocity": 95,
      "chip": "ym2612"
    },
    {
      "channel": 2,
      "note": 51,
      "start": 6.5791,
      "duration": 0.1502,
      "velocity": 123,
      "chip": "ym2612"
    },
    {
      "channel": 3,
      "note": 72,
      "start": 6.5802,
      "duration": 0.0176,
      "velocity": 95,
      "chip": "ym2612"
    },
    {
      "channel": 4,
      "note": 70,
      "start": 6.5812,
      "duration": 0.0212,
      "velocity": 95,
      "chip": "ym2612"
    },
    {
      "channel": 1,
      "note": 56,
      "start": 6.6045,
      "duration": 0.0907,
      "velocity": 91,
      "chip": "ym2612"
    },
    {
      "channel": 3,
      "note": 70,
      "start": 6.6296,
      "duration": 0.0175,
      "velocity": 95,
      "chip": "ym2612"
    },
    {
      "channel": 4,
      "note": 68,
      "start": 6.6307,
      "duration": 0.0211,
      "velocity": 95,
      "chip": "ym2612"
    },
    {
      "channel": 3,
      "note": 72,
      "start": 6.6546,
      "duration": 0.0173,
      "velocity": 95,
      "chip": "ym2612"
    },
    {
      "channel": 4,
      "note": 70,
      "start": 6.6556,
      "duration": 0.0209,
      "velocity": 95,
      "chip": "ym2612"
    },
    {
      "channel": 3,
      "note": 70,
      "start": 6.7038,
      "duration": 0.0438,
      "velocity": 95,
      "chip": "ym2612"
    },
    {
      "channel": 4,
      "note": 68,
      "start": 6.7049,
      "duration": 0.0473,
      "velocity": 95,
      "chip": "ym2612"
    },
    {
      "channel": 1,
      "note": 56,
      "start": 6.7282,
      "duration": 0.0138,
      "velocity": 91,
      "chip": "ym2612"
    },
    {
      "channel": 2,
      "note": 60,
      "start": 6.7294,
      "duration": 0.0479,
      "velocity": 123,
      "chip": "ym2612"
    },
    {
      "channel": 1,
      "note": 56,
      "start": 6.7542,
      "duration": 0.0705,
      "velocity": 91,
      "chip": "ym2612"
    },
    {
      "channel": 3,
      "note": 72,
      "start": 6.7556,
      "duration": 0.0177,
      "velocity": 95,
      "chip": "ym2612"
    },
    {
      "channel": 4,
      "note": 70,
      "start": 6.7566,
      "duration": 0.0215,
      "velocity": 95,
      "chip": "ym2612"
    },
    {
      "channel": 2,
      "note": 48,
      "start": 6.7804,
      "duration": 0.208,
      "velocity": 123,
      "chip": "ym2612"
    },
    {
      "channel": 3,
      "note": 72,
      "start": 6.7814,
      "duration": 0.0369,
      "velocity": 95,
      "chip": "ym2612"
    },
    {
      "channel": 4,
      "note": 70,
      "start": 6.7825,
      "duration": 0.0454,
      "velocity": 95,
      "chip": "ym2612"
    },
    {
      "channel": 3,
      "note": 70,
      "start": 6.8316,
      "duration": 0.0177,
      "velocity": 95,
      "chip": "ym2612"
    },
    {
      "channel": 4,
      "note": 68,
      "start": 6.8327,
      "duration": 0.0215,
      "velocity": 95,
      "chip": "ym2612"
    },
    {
      "channel": 1,
      "note": 56,
      "start": 6.8567,
      "duration": 0.0196,
      "velocity": 91,
      "chip": "ym2612"
    },
    {
      "channel": 3,
      "note": 72,
      "start": 6.8583,
      "duration": 0.0713,
      "velocity": 95,
      "chip": "ym2612"
    },
    {
      "channel": 4,
      "note": 70,
      "start": 6.8593,
      "duration": 0.0727,
      "velocity": 95,
      "chip": "ym2612"
    },
    {
      "channel": 1,
      "note": 56,
      "start": 6.8844,
      "duration": 0.017,
      "velocity": 91,
      "chip": "ym2612"
    },
    {
      "channel": 1,
      "note": 68,
      "start": 6.9086,
      "duration": 0.0179,
      "velocity": 91,
      "chip": "ym2612"
    },
    {
      "channel": 0,
      "note": 60,
      "start": 6.9347,
      "duration": 0.0145,
      "velocity": 123,
      "chip": "ym2612"
    },
    {
      "channel": 1,
      "note": 56,
      "start": 6.9358,
      "duration": 0.0752,
      "velocity": 91,
      "chip": "ym2612"
    },
    {
      "channel": 0,
      "note": 59,
      "start": 6.9493,
      "duration": 0.2446,
      "velocity": 123,
      "chip": "ym2612"
    },
    {
      "channel": 3,
      "note": 70,
      "start": 6.9637,
      "duration": 0.0174,
      "velocity": 95,
      "chip": "ym2612"
    },
    {
      "channel": 4,
      "note": 68,
      "start": 6.9647,
      "duration": 0.0213,
      "velocity": 95,
      "chip": "ym2612"
    },
    {
      "channel": 2,
      "note": 60,
      "start": 6.9891,
      "duration": 0.015,
      "velocity": 123,
      "chip": "ym2612"
    },
    {
      "channel": 3,
      "note": 72,
      "start": 6.9902,
      "duration": 0.0193,
      "velocity": 95,
      "chip": "ym2612"
    },
    {
      "channel": 4,
      "note": 68,
      "start": 6.9912,
      "duration": 0.0231,
      "velocity": 95,
      "chip": "ym2612"
    },
    {
      "channel": 2,
      "note": 59,
      "start": 7.0042,
      "duration": 0.2425,
      "velocity": 123,
      "chip": "ym2612"
    },
    {
      "channel": 1,
      "note": 56,
      "start": 7.0171,
      "duration": 0.0909,
      "velocity": 91,
      "chip": "ym2612"
    },
    {
      "channel": 3,
      "note": 70,
      "start": 7.0422,
      "duration": 0.0177,
      "velocity": 95,
      "chip": "ym2612"
    },
    {
      "channel": 4,
      "note": 67,
      "start": 7.0433,
      "duration": 0.0214,
      "velocity": 95,
      "chip": "ym2612"
    },
    {
      "channel": 3,
      "note": 72,
      "start": 7.0673,
      "duration": 0.0173,
      "velocity": 95,
      "chip": "ym2612"
    },
    {
      "channel": 4,
      "note": 68,
      "start": 7.0683,
      "duration": 0.021,
      "velocity": 95,
      "chip": "ym2612"
    },
    {
      "channel": 3,
      "note": 70,
      "start": 7.1165,
      "duration": 0.0443,
      "velocity": 95,
      "chip": "ym2612"
    },
    {
      "channel": 4,
      "note": 67,
      "start": 7.1175,
      "duration": 0.048,
      "velocity": 95,
      "chip": "ym2612"
    },
    {
      "channel": 1,
      "note": 56,
      "start": 7.1413,
      "duration": 0.014,
      "velocity": 91,
      "chip": "ym2612"
    },
    {
      "channel": 1,
      "note": 56,
      "start": 7.1685,
      "duration": 0.0714,
      "velocity": 91,
      "chip": "ym2612"
    },
    {
      "channel": 3,
      "note": 72,
      "start": 7.1699,
      "duration": 0.0174,
      "velocity": 95,
      "chip": "ym2612"
    },
    {
      "channel": 4,
      "note": 68,
      "start": 7.1709,
      "duration": 0.0211,
      "velocity": 95,
      "chip": "ym2612"
    },
    {
      "channel": 0,
      "note": 58,
      "start": 7.1947,
      "duration": 0.0473,
      "velocity": 123,
      "chip": "ym2612"
    },
    {
      "channel": 3,
      "note": 72,
      "start": 7.1969,
      "duration": 0.0365,
      "velocity": 95,
      "chip": "ym2612"
    },
    {
      "channel": 4,
      "note": 68,
      "start": 7.198,
      "duration": 0.0454,
      "velocity": 95,
      "chip": "ym2612"
    },
    {
      "channel": 0,
      "note": 60,
      "start": 7.2456,
      "duration": 0.0496,
      "velocity": 123,
      "chip": "ym2612"
    },
    {
      "channel": 2,
      "note": 59,
      "start": 7.2474,
      "duration": 0.0485,
      "velocity": 123,
      "chip": "ym2612"
    },
    {
      "channel": 3,
      "note": 70,
      "start": 7.2485,
      "duration": 0.0175,
      "velocity": 95,
      "chip": "ym2612"
    },
    {
      "channel": 4,
      "note": 67,
      "start": 7.2496,
      "duration": 0.0211,
      "velocity": 95,
      "chip": "ym2612"
    },
    {
      "channel": 1,
      "note": 56,
      "start": 7.2726,
      "duration": 0.0185,
      "velocity": 91,
      "chip": "ym2612"
    },
    {
      "channel": 3,
      "note": 72,
      "start": 7.274,
      "duration": 0.0703,
      "velocity": 95,
      "chip": "ym2612"
    },
    {
      "channel": 4,
      "note": 68,
      "start": 7.275,
      "duration": 0.0721,
      "velocity": 95,
      "chip": "ym2612"
    },
    {
      "channel": 0,
      "note": 63,
      "start": 7.2983,
      "duration": 0.0473,
      "velocity": 123,
      "chip": "ym2612"
    },
    {
      "channel": 1,
      "note": 51,
      "start": 7.2994,
      "duration": 0.0176,
      "velocity": 91,
      "chip": "ym2612"
    },
    {
      "channel": 2,
      "note": 60,
      "start": 7.3004,
      "duration": 0.046,
      "velocity": 123,
      "chip": "ym2612"
    },
    {
      "channel": 1,
      "note": 53,
      "start": 7.3248,
      "duration": 0.0166,
      "velocity": 91,
      "chip": "ym2612"
    },
    {
      "channel": 0,
      "note": 65,
      "start": 7.3495,
      "duration": 0.0755,
      "velocity": 123,
      "chip": "ym2612"
    },
    {
      "channel": 1,
      "note": 56,
      "start": 7.3507,
      "duration": 0.0724,
      "velocity": 91,
      "chip": "ym2612"
    },
    {
      "channel": 2,
      "note": 63,
      "start": 7.3518,
      "duration": 0.0471,
      "velocity": 123,
      "chip": "ym2612"
    },
    {
      "channel": 3,
      "note": 70,
      "start": 7.3773,
      "duration": 0.0175,
      "velocity": 95,
      "chip": "ym2612"
    },
    {
      "channel": 4,
      "note": 67,
      "start": 7.3784,
      "duration": 0.0213,
      "velocity": 95,
      "chip": "ym2612"
    },
    {
      "channel": 2,
      "note": 65,
      "start": 7.4033,
      "duration": 0.0745,
      "velocity": 123,
      "chip": "ym2612"
    },
    {
      "channel": 3,
      "note": 73,
      "start": 7.4043,
      "duration": 0.0171,
      "velocity": 95,
      "chip": "ym2612"
    },
    {
      "channel": 4,
      "note": 70,
      "start": 7.4054,
      "duration": 0.021,
      "velocity": 95,
      "chip": "ym2612"
    },
    {
      "channel": 0,
      "note": 60,
      "start": 7.4289,
      "duration": 0.0223,
      "velocity": 123,
      "chip": "ym2612"
    },
    {
      "channel": 1,
      "note": 58,
      "start": 7.43,
      "duration": 0.0949,
      "velocity": 91,
      "chip": "ym2612"
    },
    {
      "channel": 0,
      "note": 58,
      "start": 7.4543,
      "duration": 0.2036,
      "velocity": 123,
      "chip": "ym2612"
    },
    {
      "channel": 3,
      "note": 72,
      "start": 7.4564,
      "duration": 0.0172,
      "velocity": 95,
      "chip": "ym2612"
    },
    {
      "channel": 4,
      "note": 68,
      "start": 7.4575,
      "duration": 0.021,
      "velocity": 95,
      "chip": "ym2612"
    },
    {
      "channel": 2,
      "note": 60,
      "start": 7.4817,
      "duration": 0.023,
      "velocity": 123,
      "chip": "ym2612"
    },
    {
      "channel": 3,
      "note": 73,
      "start": 7.4827,
      "duration": 0.0178,
      "velocity": 95,
      "chip": "ym2612"
    },
    {
      "channel": 4,
      "note": 70,
      "start": 7.4838,
      "duration": 0.0217,
      "velocity": 95,
      "chip": "ym2612"
    },
    {
      "channel": 2,
      "note": 58,
      "start": 7.5085,
      "duration": 0.0998,
      "velocity": 123,
      "chip": "ym2612"
    },
    {
      "channel": 3,
      "note": 72,
      "start": 7.5334,
      "duration": 0.0442,
      "velocity": 95,
      "chip": "ym2612"
    },
    {
      "channel": 4,
      "note": 68,
      "start": 7.5345,
      "duration": 0.0479,
      "velocity": 95,
      "chip": "ym2612"
    },
    {
      "channel": 1,
      "note": 58,
      "start": 7.5582,
      "duration": 0.014,
      "velocity": 91,
      "chip": "ym2612"
    },
    {
      "channel": 1,
      "note": 58,
      "start": 7.5852,
      "duration": 0.0707,
      "velocity": 91,
      "chip": "ym2612"
    },
    {
      "channel": 3,
      "note": 73,
      "start": 7.5866,
      "duration": 0.0177,
      "velocity": 95,
      "chip": "ym2612"
    },
    {
      "channel": 4,
      "note": 70,
      "start": 7.5876,
      "duration": 0.0215,
      "velocity": 95,
      "chip": "ym2612"
    },
    {
      "channel": 2,
      "note": 58,
      "start": 7.6127,
      "duration": 0.1005,
      "velocity": 123,
      "chip": "ym2612"
    },
    {
      "channel": 3,
      "note": 73,
      "start": 7.6137,
      "duration": 0.0358,
      "velocity": 95,
      "chip": "ym2612"
    },
    {
      "channel": 4,
      "note": 70,
      "start": 7.6148,
      "duration": 0.0445,
      "velocity": 95,
      "chip": "ym2612"
    },
    {
      "channel": 0,
      "note": 58,
      "start": 7.6617,
      "duration": 0.0151,
      "velocity": 123,
      "chip": "ym2612"
    },
    {
      "channel": 3,
      "note": 72,
      "start": 7.6641,
      "duration": 0.0187,
      "velocity": 95,
      "chip": "ym2612"
    },
    {
      "channel": 4,
      "note": 68,
      "start": 7.6651,
      "duration": 0.0224,
      "velocity": 95,
      "chip": "ym2612"
    },
    {
      "channel": 0,
      "note": 52,
      "start": 7.677,
      "duration": 0.0355,
      "velocity": 123,
      "chip": "ym2612"
    },
    {
      "channel": 1,
      "note": 58,
      "start": 7.6898,
      "duration": 0.0185,
      "velocity": 91,
      "chip": "ym2612"
    },
    {
      "channel": 3,
      "note": 73,
      "start": 7.6912,
      "duration": 0.0721,
      "velocity": 95,
      "chip": "ym2612"
    },
    {
      "channel": 4,
      "note": 70,
      "start": 7.6922,
      "duration": 0.074,
      "velocity": 95,
      "chip": "ym2612"
    },
    {
      "channel": 0,
      "note": 53,
      "start": 7.7164,
      "duration": 0.0483,
      "velocity": 123,
      "chip": "ym2612"
    },
    {
      "channel": 1,
      "note": 65,
      "start": 7.7175,
      "duration": 0.0184,
      "velocity": 91,
      "chip": "ym2612"
    },
    {
      "channel": 2,
      "note": 58,
      "start": 7.7185,
      "duration": 0.0127,
      "velocity": 123,
      "chip": "ym2612"
    },
    {
      "channel": 2,
      "note": 52,
      "start": 7.7312,
      "duration": 0.0342,
      "velocity": 123,
      "chip": "ym2612"
    },
    {
      "channel": 1,
      "note": 63,
      "start": 7.7438,
      "duration": 0.0166,
      "velocity": 91,
      "chip": "ym2612"
    },
    {
      "channel": 0,
      "note": 55,
      "start": 7.7685,
      "duration": 0.1078,
      "velocity": 123,
      "chip": "ym2612"
    },
    {
      "channel": 1,
      "note": 61,
      "start": 7.7697,
      "duration": 0.0724,
      "velocity": 91,
      "chip": "ym2612"
    },
    {
      "channel": 2,
      "note": 53,
      "start": 7.7708,
      "duration": 0.0471,
      "velocity": 123,
      "chip": "ym2612"
    },
    {
      "channel": 3,
      "note": 72,
      "start": 7.7963,
      "duration": 0.0175,
      "velocity": 95,
      "chip": "ym2612"
    },
    {
      "channel": 4,
      "note": 68,
      "start": 7.7974,
      "duration": 0.0213,
      "velocity": 95,
      "chip": "ym2612"
    },
    {
      "channel": 2,
      "note": 55,
      "start": 7.8218,
      "duration": 0.1082,
      "velocity": 123,
      "chip": "ym2612"
    },
    {
      "channel": 3,
      "note": 77,
      "start": 7.8229,
      "duration": 0.0176,
      "velocity": 95,
      "chip": "ym2612"
    },
    {
      "channel": 4,
      "note": 61,
      "start": 7.8239,
      "duration": 0.0214,
      "velocity": 95,
      "chip": "ym2612"
    },
    {
      "channel": 1,
      "note": 61,
      "start": 7.8482,
      "duration": 0.0971,
      "velocity": 91,
      "chip": "ym2612"
    },
    {
      "channel": 3,
      "note": 75,
      "start": 7.8738,
      "duration": 0.0185,
      "velocity": 95,
      "chip": "ym2612"
    },
    {
      "channel": 4,
      "note": 60,
      "start": 7.8749,
      "duration": 0.0221,
      "velocity": 95,
      "chip": "ym2612"
    },
    {
      "channel": 0,
      "note": 66,
      "start": 7.8771,
      "duration": 0.0304,
      "velocity": 123,
      "chip": "ym2612"
    },
    {
      "channel": 3,
      "note": 77,
      "start": 7.9005,
      "duration": 0.019,
      "velocity": 95,
      "chip": "ym2612"
    },
    {
      "channel": 4,
      "note": 61,
      "start": 7.9016,
      "duration": 0.0228,
      "velocity": 95,
      "chip": "ym2612"
    },
    {
      "channel": 0,
      "note": 56,
      "start": 7.9106,
      "duration": 0.0314,
      "velocity": 123,
      "chip": "ym2612"
    },
    {
      "channel": 2,
      "note": 67,
      "start": 7.9308,
      "duration": 0.0306,
      "velocity": 123,
      "chip": "ym2612"
    },
    {
      "channel": 0,
      "note": 58,
      "start": 7.9449,
      "duration": 0.0307,
      "velocity": 123,
      "chip": "ym2612"
    },
    {
      "channel": 3,
      "note": 75,
      "start": 7.9539,
      "duration": 0.0461,
      "velocity": 95,
      "chip": "ym2612"
    },
    {
      "channel": 4,
      "note": 60,
      "start": 7.955,
      "duration": 0.0498,
      "velocity": 95,
      "chip": "ym2612"
    },
    {
      "channel": 2,
      "note": 56,
      "start": 7.9643,
      "duration": 0.0324,
      "velocity": 123,
      "chip": "ym2612"
    },
    {
      "channel": 0,
      "note": 56,
      "start": 7.9788,
      "duration": 0.1016,
      "velocity": 123,
      "chip": "ym2612"
    },
    {
      "channel": 1,
      "note": 61,
      "start": 7.9799,
      "duration": 0.0137,
      "velocity": 91,
      "chip": "ym2612"
    },
    {
      "channel": 2,
      "note": 58,
      "start": 7.9996,
      "duration": 0.0312,
      "velocity": 123,
      "chip": "ym2612"
    },
    {
      "channel": 1,
      "note": 51,
      "start": 8.0077,
      "duration": 0.0685,
      "velocity": 91,
      "chip": "ym2612"
    },
    {
      "channel": 3,
      "note": 73,
      "start": 8.0091,
      "duration": 0.0176,
      "velocity": 95,
      "chip": "ym2612"
    },
    {
      "channel": 4,
      "note": 58,
      "start": 8.0101,
      "duration": 0.0215,
      "velocity": 95,
      "chip": "ym2612"
    },
    {
      "channel": 2,
      "note": 56,
      "start": 8.0346,
      "duration": 0.1011,
      "velocity": 123,
      "chip": "ym2612"
    },
    {
      "channel": 3,
      "note": 73,
      "start": 8.0357,
      "duration": 0.0363,
      "velocity": 95,
      "chip": "ym2612"
    },
    {
      "channel": 4,
      "note": 58,
      "start": 8.0368,
      "duration": 0.045,
      "velocity": 95,
      "chip": "ym2612"
    },
    {
      "channel": 0,
      "note": 55,
      "start": 8.0842,
      "duration": 0.0507,
      "velocity": 123,
      "chip": "ym2612"
    },
    {
      "channel": 1,
      "note": 63,
      "start": 8.0852,
      "duration": 0.0188,
      "velocity": 91,
      "chip": "ym2612"
    },
    {
      "channel": 3,
      "note": 72,
      "start": 8.0866,
      "duration": 0.0181,
      "velocity": 95,
      "chip": "ym2612"
    },
    {
      "channel": 4,
      "note": 56,
      "start": 8.0877,
      "duration": 0.0217,
      "velocity": 95,
      "chip": "ym2612"
    },
    {
      "channel": 1,
      "note": 51,
      "start": 8.1122,
      "duration": 0.0185,
      "velocity": 91,
      "chip": "ym2612"
    },
    {
      "channel": 3,
      "note": 73,
      "start": 8.1136,
      "duration": 0.0712,
      "velocity": 95,
      "chip": "ym2612"
    },
    {
      "channel": 4,
      "note": 58,
      "start": 8.1146,
      "duration": 0.073,
      "velocity": 95,
      "chip": "ym2612"
    },
    {
      "channel": 0,
      "note": 53,
      "start": 8.1388,
      "duration": 0.0474,
      "velocity": 123,
      "chip": "ym2612"
    },
    {
      "channel": 1,
      "note": 63,
      "start": 8.1399,
      "duration": 0.0176,
      "velocity": 91,
      "chip": "ym2612"
    },
    {
      "channel": 2,
      "note": 55,
      "start": 8.1409,
      "duration": 0.0461,
      "velocity": 123,
      "chip": "ym2612"
    },
    {
      "channel": 1,
      "note": 75,
      "start": 8.1653,
      "duration": 0.0166,
      "velocity": 91,
      "chip": "ym2612"
    },
    {
      "channel": 0,
      "note": 51,
      "start": 8.19,
      "duration": 0.2496,
      "velocity": 123,
      "chip": "ym2612"
    },
    {
      "channel": 1,
      "note": 63,
      "start": 8.1912,
      "duration": 0.078,
      "velocity": 91,
      "chip": "ym2612"
    },
    {
      "channel": 2,
      "note": 53,
      "start": 8.1923,
      "duration": 0.0519,
      "velocity": 123,
      "chip": "ym2612"
    },
    {
      "channel": 3,
      "note": 72,
      "start": 8.1935,
      "duration": 0.0084,
      "velocity": 95,
      "chip": "ym2612"
    },
    {
      "channel": 4,
      "note": 56,
      "start": 8.1946,
      "duration": 0.0099,
      "velocity": 95,
      "chip": "ym2612"
    },
    {
      "channel": 3,
      "note": 68,
      "start": 8.2071,
      "duration": 0.0099,
      "velocity": 95,
      "chip": "ym2612"
    },
    {
      "channel": 4,
      "note": 68,
      "start": 8.2081,
      "duration": 0.0093,
      "velocity": 95,
      "chip": "ym2612"
    },
    {
      "channel": 3,
      "note": 72,
      "start": 8.2204,
      "duration": 0.0081,
      "velocity": 95,
      "chip": "ym2612"
    },
    {
      "channel": 4,
      "note": 72,
      "start": 8.2215,
      "duration": 0.0096,
      "velocity": 95,
      "chip": "ym2612"
    },
    {
      "channel": 3,
      "note": 75,
      "start": 8.2346,
      "duration": 0.01,
      "velocity": 95,
      "chip": "ym2612"
    },
    {
      "channel": 4,
      "note": 75,
      "start": 8.2357,
      "duration": 0.0093,
      "velocity": 95,
      "chip": "ym2612"
    },
    {
      "channel": 2,
      "note": 51,
      "start": 8.2477,
      "duration": 0.2464,
      "velocity": 123,
      "chip": "ym2612"
    },
    {
      "channel": 3,
      "note": 72,
      "start": 8.2488,
      "duration": 0.0081,
      "velocity": 95,
      "chip": "ym2612"
    },
    {
      "channel": 4,
      "note": 72,
      "start": 8.2499,
      "duration": 0.0096,
      "velocity": 95,
      "chip": "ym2612"
    },
    {
      "channel": 3,
      "note": 75,
      "start": 8.2621,
      "duration": 0.0099,
      "velocity": 95,
      "chip": "ym2612"
    },
    {
      "channel": 4,
      "note": 75,
      "start": 8.2632,
      "duration": 0.0093,
      "velocity": 95,
      "chip": "ym2612"
    },
    {
      "channel": 1,
      "note": 60,
      "start": 8.2748,
      "duration": 0.1034,
      "velocity": 91,
      "chip": "ym2612"
    },
    {
      "channel": 3,
      "note": 79,
      "start": 8.2762,
      "duration": 0.0081,
      "velocity": 95,
      "chip": "ym2612"
    },
    {
      "channel": 4,
      "note": 79,
      "start": 8.2772,
      "duration": 0.0097,
      "velocity": 95,
      "chip": "ym2612"
    },
    {
      "channel": 3,
      "note": 80,
      "start": 8.2901,
      "duration": 0.0098,
      "velocity": 95,
      "chip": "ym2612"
    },
    {
      "channel": 4,
      "note": 80,
      "start": 8.2912,
      "duration": 0.0092,
      "velocity": 95,
      "chip": "ym2612"
    },
    {
      "channel": 3,
      "note": 79,
      "start": 8.3035,
      "duration": 0.0081,
      "velocity": 95,
      "chip": "ym2612"
    },
    {
      "channel": 4,
      "note": 79,
      "start": 8.3046,
      "duration": 0.0096,
      "velocity": 95,
      "chip": "ym2612"
    },
    {
      "channel": 3,
      "note": 80,
      "start": 8.3179,
      "duration": 0.0099,
      "velocity": 95,
      "chip": "ym2612"
    },
    {
      "channel": 4,
      "note": 80,
      "start": 8.319,
      "duration": 0.0092,
      "velocity": 95,
      "chip": "ym2612"
    },
    {
      "channel": 3,
      "note": 84,
      "start": 8.3312,
      "duration": 0.0081,
      "velocity": 95,
      "chip": "ym2612"
    },
    {
      "channel": 4,
      "note": 84,
      "start": 8.3323,
      "duration": 0.0097,
      "velocity": 95,
      "chip": "ym2612"
    },
    {
      "channel": 3,
      "note": 87,
      "start": 8.3456,
      "duration": 0.0099,
      "velocity": 95,
      "chip": "ym2612"
    },
    {
      "channel": 4,
      "note": 87,
      "start": 8.3467,
      "duration": 0.0093,
      "velocity": 95,
      "chip": "ym2612"
    },
    {
      "channel": 3,
      "note": 84,
      "start": 8.359,
      "duration": 0.0081,
      "velocity": 95,
      "chip": "ym2612"
    },
    {
      "channel": 4,
      "note": 84,
      "start": 8.3601,
      "duration": 0.0096,
      "velocity": 95,
      "chip": "ym2612"
    },
    {
      "channel": 3,
      "note": 87,
      "start": 8.3732,
      "duration": 0.01,
      "velocity": 95,
      "chip": "ym2612"
    },
    {
      "channel": 4,
      "note": 87,
      "start": 8.3743,
      "duration": 0.0093,
      "velocity": 95,
      "chip": "ym2612"
    },
    {
      "channel": 3,
      "note": 91,
      "start": 8.3872,
      "duration": 0.0079,
      "velocity": 95,
      "chip": "ym2612"
    },
    {
      "channel": 4,
      "note": 91,
      "start": 8.3883,
      "duration": 0.0095,
      "velocity": 95,
      "chip": "ym2612"
    },
    {
      "channel": 3,
      "note": 92,
      "start": 8.4011,
      "duration": 0.0098,
      "velocity": 95,
      "chip": "ym2612"
    },
    {
      "channel": 4,
      "note": 92,
      "start": 8.4022,
      "duration": 0.0092,
      "velocity": 95,
      "chip": "ym2612"
    },
    {
      "channel": 1,
      "note": 60,
      "start": 8.4144,
      "duration": 0.015,
      "velocity": 91,
      "chip": "ym2612"
    },
    {
      "channel": 3,
      "note": 96,
      "start": 8.4163,
      "duration": 0.0085,
      "velocity": 95,
      "chip": "ym2612"
    },
    {
      "channel": 4,
      "note": 96,
      "start": 8.4175,
      "duration": 0.0099,
      "velocity": 95,
      "chip": "ym2612"
    },
    {
      "channel": 3,
      "note": 99,
      "start": 8.4307,
      "duration": 0.01,
      "velocity": 95,
      "chip": "ym2612"
    },
    {
      "channel": 4,
      "note": 99,
      "start": 8.4318,
      "duration": 0.0093,
      "velocity": 95,
      "chip": "ym2612"
    },
    {
      "channel": 0,
      "note": 60,
      "start": 8.443,
      "duration": 0.0237,
      "velocity": 123,
      "chip": "ym2612"
    },
    {
      "channel": 1,
      "note": 60,
      "start": 8.444,
      "duration": 0.0732,
      "velocity": 91,
      "chip": "ym2612"
    },
    {
      "channel": 3,
      "note": 103,
      "start": 8.4454,
      "duration": 0.0179,
      "velocity": 95,
      "chip": "ym2612"
    },
    {
      "channel": 4,
      "note": 103,
      "start": 8.4465,
      "duration": 0.0217,
      "velocity": 95,
      "chip": "ym2612"
    },
    {
      "channel": 0,
      "note": 60,
      "start": 8.4697,
      "duration": 0.0236,
      "velocity": 123,
      "chip": "ym2612"
    },
    {
      "channel": 3,
      "note": 60,
      "start": 8.4719,
      "duration": 0.018,
      "velocity": 95,
      "chip": "ym2612"
    },
    {
      "channel": 4,
      "note": 60,
      "start": 8.473,
      "duration": 0.0218,
      "velocity": 95,
      "chip": "ym2612"
    },
    {
      "channel": 0,
      "note": 58,
      "start": 8.4964,
      "duration": 0.0227,
      "velocity": 123,
      "chip": "ym2612"
    },
    {
      "channel": 2,
      "note": 60,
      "start": 8.4978,
      "duration": 0.0221,
      "velocity": 123,
      "chip": "ym2612"
    },
    {
      "channel": 3,
      "note": 61,
      "start": 8.4988,
      "duration": 0.0167,
      "velocity": 95,
      "chip": "ym2612"
    },
    {
      "channel": 4,
      "note": 61,
      "start": 8.4999,
      "duration": 0.0254,
      "velocity": 95,
      "chip": "ym2612"
    },
    {
      "channel": 0,
      "note": 56,
      "start": 8.5229,
      "duration": 0.0351,
      "velocity": 123,
      "chip": "ym2612"
    },
    {
      "channel": 2,
      "note": 60,
      "start": 8.5245,
      "duration": 0.0228,
      "velocity": 123,
      "chip": "ym2612"
    },
    {
      "channel": 3,
      "note": 61,
      "start": 8.5286,
      "duration": 0.028,
      "velocity": 95,
      "chip": "ym2612"
    },
    {
      "channel": 4,
      "note": 61,
      "start": 8.5296,
      "duration": 0.0299,
      "velocity": 95,
      "chip": "ym2612"
    },
    {
      "channel": 1,
      "note": 60,
      "start": 8.5501,
      "duration": 0.0084,
      "velocity": 91,
      "chip": "ym2612"
    },
    {
      "channel": 2,
      "note": 58,
      "start": 8.5512,
      "duration": 0.0246,
      "velocity": 123,
      "chip": "ym2612"
    },
    {
      "channel": 3,
      "note": 63,
      "start": 8.5621,
      "duration": 0.03,
      "velocity": 95,
      "chip": "ym2612"
    },
    {
      "channel": 4,
      "note": 63,
      "start": 8.5632,
      "duration": 0.032,
      "velocity": 95,
      "chip": "ym2612"
    },
    {
      "channel": 0,
      "note": 55,
      "start": 8.5651,
      "duration": 0.0348,
      "velocity": 123,
      "chip": "ym2612"
    },
    {
      "channel": 1,
      "note": 60,
      "start": 8.5661,
      "duration": 0.0092,
      "velocity": 91,
      "chip": "ym2612"
    },
    {
      "channel": 1,
      "note": 60,
      "start": 8.5788,
      "duration": 0.0177,
      "velocity": 91,
      "chip": "ym2612"
    },
    {
      "channel": 2,
      "note": 56,
      "start": 8.5799,
      "duration": 0.0347,
      "velocity": 123,
      "chip": "ym2612"
    },
    {
      "channel": 3,
      "note": 65,
      "start": 8.5979,
      "duration": 0.0289,
      "velocity": 95,
      "chip": "ym2612"
    },
    {
      "channel": 4,
      "note": 65,
      "start": 8.5989,
      "duration": 0.0306,
      "velocity": 95,
      "chip": "ym2612"
    },
    {
      "channel": 0,
      "note": 53,
      "start": 8.6058,
      "duration": 0.0224,
      "velocity": 123,
      "chip": "ym2612"
    },
    {
      "channel": 1,
      "note": 60,
      "start": 8.6069,
      "duration": 0.0171,
      "velocity": 91,
      "chip": "ym2612"
    },
    {
      "channel": 2,
      "note": 55,
      "start": 8.6196,
      "duration": 0.0497,
      "velocity": 123,
      "chip": "ym2612"
    },
    {
      "channel": 0,
      "note": 52,
      "start": 8.6313,
      "duration": 0.4508,
      "velocity": 123,
      "chip": "ym2612"
    },
    {
      "channel": 1,
      "note": 72,
      "start": 8.6324,
      "duration": 0.0782,
      "velocity": 91,
      "chip": "ym2612"
    },
    {
      "channel": 3,
      "note": 67,
      "start": 8.6344,
      "duration": 0.0085,
      "velocity": 95,
      "chip": "ym2612"
    },
    {
      "channel": 4,
      "note": 67,
      "start": 8.6356,
      "duration": 0.0099,
      "velocity": 95,
      "chip": "ym2612"
    },
    {
      "channel": 3,
      "note": 77,
      "start": 8.6484,
      "duration": 0.01,
      "velocity": 95,
      "chip": "ym2612"
    },
    {
      "channel": 4,
      "note": 65,
      "start": 8.6495,
      "duration": 0.0094,
      "velocity": 95,
      "chip": "ym2612"
    },
    {
      "channel": 3,
      "note": 79,
      "start": 8.6618,
      "duration": 0.008,
      "velocity": 95,
      "chip": "ym2612"
    },
    {
      "channel": 4,
      "note": 67,
      "start": 8.6629,
      "duration": 0.0094,
      "velocity": 95,
      "chip": "ym2612"
    },
    {
      "channel": 2,
      "note": 53,
      "start": 8.6748,
      "duration": 0.0244,
      "velocity": 123,
      "chip": "ym2612"
    },
    {
      "channel": 3,
      "note": 80,
      "start": 8.6759,
      "duration": 0.01,
      "velocity": 95,
      "chip": "ym2612"
    },
    {
      "channel": 4,
      "note": 68,
      "start": 8.677,
      "duration": 0.0093,
      "velocity": 95,
      "chip": "ym2612"
    },
    {
      "channel": 3,
      "note": 82,
      "start": 8.6894,
      "duration": 0.0078,
      "velocity": 95,
      "chip": "ym2612"
    },
    {
      "channel": 4,
      "note": 70,
      "start": 8.6905,
      "duration": 0.0095,
      "velocity": 95,
      "chip": "ym2612"
    },
    {
      "channel": 2,
      "note": 52,
      "start": 8.7024,
      "duration": 0.3887,
      "velocity": 123,
      "chip": "ym2612"
    },
    {
      "channel": 3,
      "note": 77,
      "start": 8.7035,
      "duration": 0.0101,
      "velocity": 95,
      "chip": "ym2612"
    },
    {
      "channel": 4,
      "note": 65,
      "start": 8.7046,
      "duration": 0.0095,
      "velocity": 95,
      "chip": "ym2612"
    },
    {
      "channel": 1,
      "note": 53,
      "start": 8.7164,
      "duration": 0.0463,
      "velocity": 91,
      "chip": "ym2612"
    },
    {
      "channel": 3,
      "note": 79,
      "start": 8.7178,
      "duration": 0.0077,
      "velocity": 95,
      "chip": "ym2612"
    },
    {
      "channel": 4,
      "note": 67,
      "start": 8.7188,
      "duration": 0.0093,
      "velocity": 95,
      "chip": "ym2612"
    },
    {
      "channel": 3,
      "note": 80,
      "start": 8.7309,
      "duration": 0.01,
      "velocity": 95,
      "chip": "ym2612"
    },
    {
      "channel": 4,
      "note": 68,
      "start": 8.732,
      "duration": 0.0093,
      "velocity": 95,
      "chip": "ym2612"
    },
    {
      "channel": 3,
      "note": 82,
      "start": 8.7442,
      "duration": 0.0078,
      "velocity": 95,
      "chip": "ym2612"
    },
    {
      "channel": 4,
      "note": 70,
      "start": 8.7453,
      "duration": 0.0093,
      "velocity": 95,
      "chip": "ym2612"
    },
    {
      "channel": 3,
      "note": 77,
      "start": 8.7577,
      "duration": 0.0101,
      "velocity": 95,
      "chip": "ym2612"
    },
    {
      "channel": 4,
      "note": 65,
      "start": 8.7588,
      "duration": 0.0095,
      "velocity": 95,
      "chip": "ym2612"
    },
    {
      "channel": 3,
      "note": 79,
      "start": 8.771,
      "duration": 0.0077,
      "velocity": 95,
      "chip": "ym2612"
    },
    {
      "channel": 4,
      "note": 67,
      "start": 8.7721,
      "duration": 0.0092,
      "velocity": 95,
      "chip": "ym2612"
    },
    {
      "channel": 3,
      "note": 80,
      "start": 8.7845,
      "duration": 0.01,
      "velocity": 95,
      "chip": "ym2612"
    },
    {
      "channel": 4,
      "note": 68,
      "start": 8.7856,
      "duration": 0.0093,
      "velocity": 95,
      "chip": "ym2612"
    },
    {
      "channel": 3,
      "note": 82,
      "start": 8.7981,
      "duration": 0.0078,
      "velocity": 95,
      "chip": "ym2612"
    },
    {
      "channel": 4,
      "note": 70,
      "start": 8.7992,
      "duration": 0.0094,
      "velocity": 95,
      "chip": "ym2612"
    },
    {
      "channel": 3,
      "note": 77,
      "start": 8.8118,
      "duration": 0.01,
      "velocity": 95,
      "chip": "ym2612"
    },
    {
      "channel": 4,
      "note": 65,
      "start": 8.8129,
      "duration": 0.0094,
      "velocity": 95,
      "chip": "ym2612"
    },
    {
      "channel": 3,
      "note": 79,
      "start": 8.8256,
      "duration": 0.0078,
      "velocity": 95,
      "chip": "ym2612"
    },
    {
      "channel": 4,
      "note": 67,
      "start": 8.8267,
      "duration": 0.0093,
      "velocity": 95,
      "chip": "ym2612"
    },
    {
      "channel": 3,
      "note": 80,
      "start": 8.8395,
      "duration": 0.01,
      "velocity": 95,
      "chip": "ym2612"
    },
    {
      "channel": 4,
      "note": 68,
      "start": 8.8405,
      "duration": 0.0094,
      "velocity": 95,
      "chip": "ym2612"
    },
    {
      "channel": 1,
      "note": 53,
      "start": 8.8523,
      "duration": 0.0216,
      "velocity": 91,
      "chip": "ym2612"
    },
    {
      "channel": 3,
      "note": 82,
      "start": 8.8543,
      "duration": 0.0083,
      "velocity": 95,
      "chip": "ym2612"
    },
    {
      "channel": 4,
      "note": 70,
      "start": 8.8555,
      "duration": 0.0098,
      "velocity": 95,
      "chip": "ym2612"
    },
    {
      "channel": 3,
      "note": 77,
      "start": 8.8689,
      "duration": 0.0104,
      "velocity": 95,
      "chip": "ym2612"
    },
    {
      "channel": 4,
      "note": 65,
      "start": 8.8699,
      "duration": 0.0098,
      "velocity": 95,
      "chip": "ym2612"
    },
    {
      "channel": 1,
      "note": 53,
      "start": 8.8822,
      "duration": 0.0786,
      "velocity": 91,
      "chip": "ym2612"
    },
    {
      "channel": 3,
      "note": 79,
      "start": 8.8836,
      "duration": 0.0082,
      "velocity": 95,
      "chip": "ym2612"
    },
    {
      "channel": 4,
      "note": 67,
      "start": 8.8847,
      "duration": 0.0097,
      "velocity": 95,
      "chip": "ym2612"
    },
    {
      "channel": 3,
      "note": 80,
      "start": 8.8978,
      "duration": 0.0103,
      "velocity": 95,
      "chip": "ym2612"
    },
    {
      "channel": 4,
      "note": 68,
      "start": 8.8988,
      "duration": 0.0097,
      "velocity": 95,
      "chip": "ym2612"
    },
    {
      "channel": 3,
      "note": 82,
      "start": 8.9118,
      "duration": 0.0082,
      "velocity": 95,
      "chip": "ym2612"
    },
    {
      "channel": 4,
      "note": 70,
      "start": 8.9129,
      "duration": 0.0098,
      "velocity": 95,
      "chip": "ym2612"
    },
    {
      "channel": 3,
      "note": 77,
      "start": 8.9259,
      "duration": 0.0104,
      "velocity": 95,
      "chip": "ym2612"
    },
    {
      "channel": 4,
      "note": 65,
      "start": 8.927,
      "duration": 0.0097,
      "velocity": 95,
      "chip": "ym2612"
    },
    {
      "channel": 3,
      "note": 79,
      "start": 8.9399,
      "duration": 0.0082,
      "velocity": 95,
      "chip": "ym2612"
    },
    {
      "channel": 4,
      "note": 67,
      "start": 8.941,
      "duration": 0.0097,
      "velocity": 95,
      "chip": "ym2612"
    },
    {
      "channel": 3,
      "note": 80,
      "start": 8.9534,
      "duration": 0.0105,
      "velocity": 95,
      "chip": "ym2612"
    },
    {
      "channel": 4,
      "note": 68,
      "start": 8.9545,
      "duration": 0.0098,
      "velocity": 95,
      "chip": "ym2612"
    },
    {
      "channel": 1,
      "note": 65,
      "start": 8.9668,
      "duration": 0.0112,
      "velocity": 91,
      "chip": "ym2612"
    },
    {
      "channel": 3,
      "note": 82,
      "start": 8.9682,
      "duration": 0.0082,
      "velocity": 95,
      "chip": "ym2612"
    },
    {
      "channel": 4,
      "note": 70,
      "start": 8.9692,
      "duration": 0.0099,
      "velocity": 95,
      "chip": "ym2612"
    },
    {
      "channel": 1,
      "note": 53,
      "start": 8.9816,
      "duration": 0.0089,
      "velocity": 91,
      "chip": "ym2612"
    },
    {
      "channel": 3,
      "note": 77,
      "start": 8.9831,
      "duration": 0.0104,
      "velocity": 95,
      "chip": "ym2612"
    },
    {
      "channel": 4,
      "note": 65,
      "start": 8.9841,
      "duration": 0.0098,
      "velocity": 95,
      "chip": "ym2612"
    },
    {
      "channel": 1,
      "note": 53,
      "start": 8.9966,
      "duration": 0.0112,
      "velocity": 91,
      "chip": "ym2612"
    },
    {
      "channel": 3,
      "note": 79,
      "start": 8.998,
      "duration": 0.0082,
      "velocity": 95,
      "chip": "ym2612"
    },
    {
      "channel": 4,
      "note": 67,
      "start": 8.999,
      "duration": 0.0099,
      "velocity": 95,
      "chip": "ym2612"
    },
    {
      "channel": 1,
      "note": 53,
      "start": 9.0115,
      "duration": 0.0089,
      "velocity": 91,
      "chip": "ym2612"
    },
    {
      "channel": 3,
      "note": 80,
      "start": 9.013,
      "duration": 0.0105,
      "velocity": 95,
      "chip": "ym2612"
    },
    {
      "channel": 4,
      "note": 68,
      "start": 9.0141,
      "duration": 0.0098,
      "velocity": 95,
      "chip": "ym2612"
    },
    {
      "channel": 1,
      "note": 46,
      "start": 9.0265,
      "duration": 0.0206,
      "velocity": 91,
      "chip": "ym2612"
    },
    {
      "channel": 3,
      "note": 82,
      "start": 9.0278,
      "duration": 0.0082,
      "velocity": 95,
      "chip": "ym2612"
    },
    {
      "channel": 4,
      "note": 70,
      "start": 9.0289,
      "duration": 0.0097,
      "velocity": 95,
      "chip": "ym2612"
    },
    {
      "channel": 3,
      "note": 77,
      "start": 9.0421,
      "duration": 0.0102,
      "velocity": 95,
      "chip": "ym2612"
    },
    {
      "channel": 4,
      "note": 65,
      "start": 9.0432,
      "duration": 0.0095,
      "velocity": 95,
      "chip": "ym2612"
    },
    {
      "channel": 1,
      "note": 53,
      "start": 9.0555,
      "duration": 0.0192,
      "velocity": 91,
      "chip": "ym2612"
    },
    {
      "channel": 3,
      "note": 79,
      "start": 9.0569,
      "duration": 0.008,
      "velocity": 95,
      "chip": "ym2612"
    },
    {
      "channel": 4,
      "note": 67,
      "start": 9.058,
      "duration": 0.0094,
      "velocity": 95,
      "chip": "ym2612"
    },
    {
      "channel": 3,
      "note": 80,
      "start": 9.07,
      "duration": 0.0099,
      "velocity": 95,
      "chip": "ym2612"
    },
    {
      "channel": 4,
      "note": 68,
      "start": 9.0711,
      "duration": 0.0093,
      "velocity": 95,
      "chip": "ym2612"
    },
    {
      "channel": 0,
      "note": 53,
      "start": 9.0861,
      "duration": 0.1344,
      "velocity": 115,
      "chip": "ym2612"
    },
    {
      "channel": 1,
      "note": 65,
      "start": 9.0905,
      "duration": 0.021,
      "velocity": 91,
      "chip": "ym2612"
    },
    {
      "channel": 2,
      "note": 53,
      "start": 9.0952,
      "duration": 0.0545,
      "velocity": 97,
      "chip": "ym2612"
    },
    {
      "channel": 3,
      "note": 82,
      "start": 9.0997,
      "duration": 0.2071,
      "velocity": 105,
      "chip": "ym2612"
    },
    {
      "channel": 4,
      "note": 70,
      "start": 9.1041,
      "duration": 0.1179,
      "velocity": 115,
      "chip": "ym2612"
    },
    {
      "channel": 1,
      "note": 53,
      "start": 9.1165,
      "duration": 0.1044,
      "velocity": 91,
      "chip": "ym2612"
    },
    {
      "channel": 2,
      "note": 65,
      "start": 9.1526,
      "duration": 0.0446,
      "velocity": 97,
      "chip": "ym2612"
    },
    {
      "channel": 2,
      "note": 68,
      "start": 9.2001,
      "duration": 0.0479,
      "velocity": 97,
      "chip": "ym2612"
    },
    {
      "channel": 0,
      "note": 77,
      "start": 9.2244,
      "duration": 0.0491,
      "velocity": 115,
      "chip": "ym2612"
    },
    {
      "channel": 1,
      "note": 53,
      "start": 9.2254,
      "duration": 0.0079,
      "velocity": 91,
      "chip": "ym2612"
    },
    {
      "channel": 4,
      "note": 77,
      "start": 9.2272,
      "duration": 0.0477,
      "velocity": 115,
      "chip": "ym2612"
    },
    {
      "channel": 1,
      "note": 53,
      "start": 9.2384,
      "duration": 0.0071,
      "velocity": 91,
      "chip": "ym2612"
    },
    {
      "channel": 1,
      "note": 56,
      "start": 9.2509,
      "duration": 0.0079,
      "velocity": 91,
      "chip": "ym2612"
    },
    {
      "channel": 2,
      "note": 72,
      "start": 9.252,
      "duration": 0.0483,
      "velocity": 97,
      "chip": "ym2612"
    },
    {
      "channel": 1,
      "note": 58,
      "start": 9.2644,
      "duration": 0.0071,
      "velocity": 91,
      "chip": "ym2612"
    },
    {
      "channel": 0,
      "note": 84,
      "start": 9.2765,
      "duration": 0.023,
      "velocity": 115,
      "chip": "ym2612"
    },
    {
      "channel": 1,
      "note": 61,
      "start": 9.2775,
      "duration": 0.0076,
      "velocity": 91,
      "chip": "ym2612"
    },
    {
      "channel": 4,
      "note": 84,
      "start": 9.2792,
      "duration": 0.0217,
      "velocity": 115,
      "chip": "ym2612"
    },
    {
      "channel": 1,
      "note": 65,
      "start": 9.2904,
      "duration": 0.0071,
      "velocity": 91,
      "chip": "ym2612"
    },
    {
      "channel": 0,
      "note": 80,
      "start": 9.3036,
      "duration": 0.0491,
      "velocity": 115,
      "chip": "ym2612"
    },
    {
      "channel": 1,
      "note": 53,
      "start": 9.3047,
      "duration": 0.0101,
      "velocity": 91,
      "chip": "ym2612"
    },
    {
      "channel": 2,
      "note": 77,
      "start": 9.3059,
      "duration": 0.0476,
      "velocity": 97,
      "chip": "ym2612"
    },
    {
      "channel": 3,
      "note": 53,
      "start": 9.307,
      "duration": 0.2116,
      "velocity": 105,
      "chip": "ym2612"
    },
    {
      "channel": 4,
      "note": 80,
      "start": 9.3081,
      "duration": 0.0459,
      "velocity": 115,
      "chip": "ym2612"
    },
    {
      "channel": 1,
      "note": 51,
      "start": 9.32,
      "duration": 0.1093,
      "velocity": 91,
      "chip": "ym2612"
    },
    {
      "channel": 0,
      "note": 82,
      "start": 9.3566,
      "duration": 0.023,
      "velocity": 115,
      "chip": "ym2612"
    },
    {
      "channel": 2,
      "note": 63,
      "start": 9.358,
      "duration": 0.0474,
      "velocity": 97,
      "chip": "ym2612"
    },
    {
      "channel": 4,
      "note": 82,
      "start": 9.3594,
      "duration": 0.0216,
      "velocity": 115,
      "chip": "ym2612"
    },
    {
      "channel": 0,
      "note": 80,
      "start": 9.3835,
      "duration": 0.0454,
      "velocity": 115,
      "chip": "ym2612"
    },
    {
      "channel": 4,
      "note": 80,
      "start": 9.3856,
      "duration": 0.0448,
      "velocity": 115,
      "chip": "ym2612"
    },
    {
      "channel": 2,
      "note": 67,
      "start": 9.4084,
      "duration": 0.0486,
      "velocity": 97,
      "chip": "ym2612"
    },
    {
      "channel": 0,
      "note": 79,
      "start": 9.4329,
      "duration": 0.0233,
      "velocity": 115,
      "chip": "ym2612"
    },
    {
      "channel": 1,
      "note": 51,
      "start": 9.4339,
      "duration": 0.0078,
      "velocity": 91,
      "chip": "ym2612"
    },
    {
      "channel": 4,
      "note": 79,
      "start": 9.4356,
      "duration": 0.0221,
      "velocity": 115,
      "chip": "ym2612"
    },
    {
      "channel": 1,
      "note": 51,
      "start": 9.4471,
      "duration": 0.0071,
      "velocity": 91,
      "chip": "ym2612"
    },
    {
      "channel": 0,
      "note": 77,
      "start": 9.4602,
      "duration": 0.051,
      "velocity": 115,
      "chip": "ym2612"
    },
    {
      "channel": 1,
      "note": 63,
      "start": 9.4612,
      "duration": 0.0086,
      "velocity": 91,
      "chip": "ym2612"
    },
    {
      "channel": 2,
      "note": 70,
      "start": 9.4623,
      "duration": 0.0496,
      "velocity": 97,
      "chip": "ym2612"
    },
    {
      "channel": 4,
      "note": 77,
      "start": 9.4637,
      "duration": 0.0489,
      "velocity": 115,
      "chip": "ym2612"
    },
    {
      "channel": 1,
      "note": 60,
      "start": 9.4758,
      "duration": 0.0071,
      "velocity": 91,
      "chip": "ym2612"
    },
    {
      "channel": 1,
      "note": 58,
      "start": 9.4886,
      "duration": 0.0076,
      "velocity": 91,
      "chip": "ym2612"
    },
    {
      "channel": 1,
      "note": 56,
      "start": 9.5021,
      "duration": 0.0071,
      "velocity": 91,
      "chip": "ym2612"
    },
    {
      "channel": 0,
      "note": 75,
      "start": 9.5152,
      "duration": 0.1234,
      "velocity": 115,
      "chip": "ym2612"
    },
    {
      "channel": 1,
      "note": 51,
      "start": 9.5164,
      "duration": 0.0101,
      "velocity": 91,
      "chip": "ym2612"
    },
    {
      "channel": 2,
      "note": 75,
      "start": 9.5175,
      "duration": 0.0473,
      "velocity": 97,
      "chip": "ym2612"
    },
    {
      "channel": 3,
      "note": 51,
      "start": 9.5187,
      "duration": 0.2024,
      "velocity": 105,
      "chip": "ym2612"
    },
    {
      "channel": 4,
      "note": 75,
      "start": 9.5198,
      "duration": 0.1216,
      "velocity": 115,
      "chip": "ym2612"
    },
    {
      "channel": 1,
      "note": 53,
      "start": 9.5317,
      "duration": 0.1044,
      "velocity": 91,
      "chip": "ym2612"
    },
    {
      "channel": 2,
      "note": 65,
      "start": 9.568,
      "duration": 0.0446,
      "velocity": 97,
      "chip": "ym2612"
    },
    {
      "channel": 2,
      "note": 68,
      "start": 9.6155,
      "duration": 0.0468,
      "velocity": 97,
      "chip": "ym2612"
    },
    {
      "channel": 0,
      "note": 77,
      "start": 9.6388,
      "duration": 0.049,
      "velocity": 115,
      "chip": "ym2612"
    },
    {
      "channel": 1,
      "note": 53,
      "start": 9.6398,
      "duration": 0.0076,
      "velocity": 91,
      "chip": "ym2612"
    },
    {
      "channel": 4,
      "note": 77,
      "start": 9.6415,
      "duration": 0.0476,
      "velocity": 115,
      "chip": "ym2612"
    },
    {
      "channel": 1,
      "note": 53,
      "start": 9.6527,
      "duration": 0.0071,
      "velocity": 91,
      "chip": "ym2612"
    },
    {
      "channel": 1,
      "note": 56,
      "start": 9.6651,
      "duration": 0.0079,
      "velocity": 91,
      "chip": "ym2612"
    },
    {
      "channel": 2,
      "note": 72,
      "start": 9.6662,
      "duration": 0.0483,
      "velocity": 97,
      "chip": "ym2612"
    },
    {
      "channel": 1,
      "note": 58,
      "start": 9.6786,
      "duration": 0.0071,
      "velocity": 91,
      "chip": "ym2612"
    },
    {
      "channel": 0,
      "note": 84,
      "start": 9.6907,
      "duration": 0.0231,
      "velocity": 115,
      "chip": "ym2612"
    },
    {
      "channel": 1,
      "note": 61,
      "start": 9.6917,
      "duration": 0.0076,
      "velocity": 91,
      "chip": "ym2612"
    },
    {
      "channel": 4,
      "note": 84,
      "start": 9.6934,
      "duration": 0.0218,
      "velocity": 115,
      "chip": "ym2612"
    },
    {
      "channel": 1,
      "note": 65,
      "start": 9.7046,
      "duration": 0.0071,
      "velocity": 91,
      "chip": "ym2612"
    },
    {
      "channel": 0,
      "note": 80,
      "start": 9.7178,
      "duration": 0.0732,
      "velocity": 115,
      "chip": "ym2612"
    },
    {
      "channel": 1,
      "note": 53,
      "start": 9.7189,
      "duration": 0.0101,
      "velocity": 91,
      "chip": "ym2612"
    },
    {
      "channel": 2,
      "note": 77,
      "start": 9.7201,
      "duration": 0.0474,
      "velocity": 97,
      "chip": "ym2612"
    },
    {
      "channel": 3,
      "note": 53,
      "start": 9.7212,
      "duration": 0.0684,
      "velocity": 105,
      "chip": "ym2612"
    },
    {
      "channel": 4,
      "note": 80,
      "start": 9.7224,
      "duration": 0.0701,
      "velocity": 115,
      "chip": "ym2612"
    },
    {
      "channel": 1,
      "note": 51,
      "start": 9.7343,
      "duration": 0.0572,
      "velocity": 91,
      "chip": "ym2612"
    },
    {
      "channel": 2,
      "note": 63,
      "start": 9.7704,
      "duration": 0.0483,
      "velocity": 97,
      "chip": "ym2612"
    },
    {
      "channel": 0,
      "note": 82,
      "start": 9.7948,
      "duration": 0.0694,
      "velocity": 115,
      "chip": "ym2612"
    },
    {
      "channel": 1,
      "note": 51,
      "start": 9.7959,
      "duration": 0.0689,
      "velocity": 91,
      "chip": "ym2612"
    },
    {
      "channel": 3,
      "note": 51,
      "start": 9.7973,
      "duration": 0.0656,
      "velocity": 105,
      "chip": "ym2612"
    },
    {
      "channel": 4,
      "note": 82,
      "start": 9.7983,
      "duration": 0.0675,
      "velocity": 115,
      "chip": "ym2612"
    },
    {
      "channel": 2,
      "note": 67,
      "start": 9.8218,
      "duration": 0.0433,
      "velocity": 97,
      "chip": "ym2612"
    },
    {
      "channel": 0,
      "note": 87,
      "start": 9.8674,
      "duration": 0.0463,
      "velocity": 115,
      "chip": "ym2612"
    },
    {
      "channel": 1,
      "note": 51,
      "start": 9.8685,
      "duration": 0.0458,
      "velocity": 91,
      "chip": "ym2612"
    },
    {
      "channel": 2,
      "note": 70,
      "start": 9.8695,
      "duration": 0.045,
      "velocity": 97,
      "chip": "ym2612"
    },
    {
      "channel": 3,
      "note": 63,
      "start": 9.8706,
      "duration": 0.0396,
      "velocity": 105,
      "chip": "ym2612"
    },
    {
      "channel": 4,
      "note": 87,
      "start": 9.8717,
      "duration": 0.0437,
      "velocity": 115,
      "chip": "ym2612"
    },
    {
      "channel": 0,
      "note": 88,
      "start": 9.917,
      "duration": 0.1197,
      "velocity": 115,
      "chip": "ym2612"
    },
    {
      "channel": 1,
      "note": 51,
      "start": 9.9181,
      "duration": 0.0161,
      "velocity": 91,
      "chip": "ym2612"
    },
    {
      "channel": 2,
      "note": 75,
      "start": 9.9193,
      "duration": 0.0175,
      "velocity": 97,
      "chip": "ym2612"
    },
    {
      "channel": 3,
      "note": 64,
      "start": 9.9234,
      "duration": 0.0226,
      "velocity": 94,
      "chip": "ym2612"
    },
    {
      "channel": 4,
      "note": 88,
      "start": 9.9276,
      "duration": 0.0232,
      "velocity": 94,
      "chip": "ym2612"
    },
    {
      "channel": 1,
      "note": 53,
      "start": 9.9393,
      "duration": 0.1316,
      "velocity": 91,
      "chip": "ym2612"
    },
    {
      "channel": 2,
      "note": 65,
      "start": 9.9404,
      "duration": 0.0096,
      "velocity": 97,
      "chip": "ym2612"
    },
    {
      "channel": 2,
      "note": 68,
      "start": 9.954,
      "duration": 0.011,
      "velocity": 97,
      "chip": "ym2612"
    },
    {
      "channel": 3,
      "note": 53,
      "start": 9.9551,
      "duration": 0.0192,
      "velocity": 94,
      "chip": "ym2612"
    },
    {
      "channel": 4,
      "note": 53,
      "start": 9.9561,
      "duration": 0.023,
      "velocity": 94,
      "chip": "ym2612"
    },
    {
      "channel": 2,
      "note": 72,
      "start": 9.9687,
      "duration": 0.0096,
      "velocity": 97,
      "chip": "ym2612"
    },
    {
      "channel": 2,
      "note": 77,
      "start": 9.982,
      "duration": 0.017,
      "velocity": 97,
      "chip": "ym2612"
    },
    {
      "channel": 3,
      "note": 53,
      "start": 9.9861,
      "duration": 0.0517,
      "velocity": 105,
      "chip": "ym2612"
    },
    {
      "channel": 4,
      "note": 53,
      "start": 9.9901,
      "duration": 0.0481,
      "velocity": 105,
      "chip": "ym2612"
    },
    {
      "channel": 2,
      "note": 65,
      "start": 10.0027,
      "duration": 0.0095,
      "velocity": 97,
      "chip": "ym2612"
    },
    {
      "channel": 2,
      "note": 68,
      "start": 10.0151,
      "duration": 0.0093,
      "velocity": 97,
      "chip": "ym2612"
    },
    {
      "channel": 2,
      "note": 72,
      "start": 10.0277,
      "duration": 0.0098,
      "velocity": 97,
      "chip": "ym2612"
    },
    {
      "channel": 2,
      "note": 77,
      "start": 10.0413,
      "duration": 0.0172,
      "velocity": 97,
      "chip": "ym2612"
    },
    {
      "channel": 3,
      "note": 53,
      "start": 10.0453,
      "duration": 0.0195,
      "velocity": 94,
      "chip": "ym2612"
    },
    {
      "channel": 4,
      "note": 53,
      "start": 10.0494,
      "duration": 0.0226,
      "velocity": 94,
      "chip": "ym2612"
    },
    {
      "channel": 2,
      "note": 65,
      "start": 10.0613,
      "duration": 0.01,
      "velocity": 97,
      "chip": "ym2612"
    },
    {
      "channel": 1,
      "note": 53,
      "start": 10.0748,
      "duration": 0.0158,
      "velocity": 91,
      "chip": "ym2612"
    },
    {
      "channel": 2,
      "note": 68,
      "start": 10.0759,
      "duration": 0.0173,
      "velocity": 97,
      "chip": "ym2612"
    },
    {
      "channel": 3,
      "note": 53,
      "start": 10.0798,
      "duration": 0.056,
      "velocity": 105,
      "chip": "ym2612"
    },
    {
      "channel": 4,
      "note": 53,
      "start": 10.0839,
      "duration": 0.0522,
      "velocity": 105,
      "chip": "ym2612"
    },
    {
      "channel": 1,
      "note": 53,
      "start": 10.0957,
      "duration": 0.0083,
      "velocity": 91,
      "chip": "ym2612"
    },
    {
      "channel": 2,
      "note": 72,
      "start": 10.0968,
      "duration": 0.0099,
      "velocity": 97,
      "chip": "ym2612"
    },
    {
      "channel": 1,
      "note": 56,
      "start": 10.1099,
      "duration": 0.0083,
      "velocity": 91,
      "chip": "ym2612"
    },
    {
      "channel": 2,
      "note": 77,
      "start": 10.111,
      "duration": 0.0098,
      "velocity": 97,
      "chip": "ym2612"
    },
    {
      "channel": 1,
      "note": 58,
      "start": 10.1245,
      "duration": 0.0083,
      "velocity": 91,
      "chip": "ym2612"
    },
    {
      "channel": 2,
      "note": 65,
      "start": 10.1256,
      "duration": 0.0098,
      "velocity": 97,
      "chip": "ym2612"
    },
    {
      "channel": 1,
      "note": 61,
      "start": 10.1386,
      "duration": 0.0158,
      "velocity": 91,
      "chip": "ym2612"
    },
    {
      "channel": 2,
      "note": 68,
      "start": 10.1397,
      "duration": 0.0173,
      "velocity": 97,
      "chip": "ym2612"
    },
    {
      "channel": 3,
      "note": 53,
      "start": 10.1437,
      "duration": 0.0203,
      "velocity": 94,
      "chip": "ym2612"
    },
    {
      "channel": 4,
      "note": 53,
      "start": 10.1477,
      "duration": 0.0234,
      "velocity": 94,
      "chip": "ym2612"
    },
    {
      "channel": 1,
      "note": 65,
      "start": 10.1595,
      "duration": 0.0084,
      "velocity": 91,
      "chip": "ym2612"
    },
    {
      "channel": 2,
      "note": 72,
      "start": 10.1606,
      "duration": 0.0099,
      "velocity": 97,
      "chip": "ym2612"
    },
    {
      "channel": 1,
      "note": 53,
      "start": 10.1742,
      "duration": 0.0103,
      "velocity": 91,
      "chip": "ym2612"
    },
    {
      "channel": 2,
      "note": 77,
      "start": 10.1754,
      "duration": 0.0117,
      "velocity": 97,
      "chip": "ym2612"
    },
    {
      "channel": 3,
      "note": 51,
      "start": 10.1765,
      "duration": 0.0185,
      "velocity": 94,
      "chip": "ym2612"
    },
    {
      "channel": 4,
      "note": 51,
      "start": 10.1777,
      "duration": 0.0246,
      "velocity": 94,
      "chip": "ym2612"
    },
    {
      "channel": 1,
      "note": 51,
      "start": 10.1905,
      "duration": 0.1275,
      "velocity": 91,
      "chip": "ym2612"
    },
    {
      "channel": 2,
      "note": 63,
      "start": 10.1915,
      "duration": 0.01,
      "velocity": 97,
      "chip": "ym2612"
    },
    {
      "channel": 2,
      "note": 67,
      "start": 10.2055,
      "duration": 0.0112,
      "velocity": 97,
      "chip": "ym2612"
    },
    {
      "channel": 3,
      "note": 51,
      "start": 10.2066,
      "duration": 0.0173,
      "velocity": 94,
      "chip": "ym2612"
    },
    {
      "channel": 4,
      "note": 51,
      "start": 10.2076,
      "duration": 0.0234,
      "velocity": 94,
      "chip": "ym2612"
    },
    {
      "channel": 2,
      "note": 70,
      "start": 10.2205,
      "duration": 0.0098,
      "velocity": 97,
      "chip": "ym2612"
    },
    {
      "channel": 2,
      "note": 75,
      "start": 10.2341,
      "duration": 0.0112,
      "velocity": 97,
      "chip": "ym2612"
    },
    {
      "channel": 3,
      "note": 51,
      "start": 10.2351,
      "duration": 0.0169,
      "velocity": 94,
      "chip": "ym2612"
    },
    {
      "channel": 4,
      "note": 51,
      "start": 10.2362,
      "duration": 0.023,
      "velocity": 94,
      "chip": "ym2612"
    },
    {
      "channel": 2,
      "note": 63,
      "start": 10.2485,
      "duration": 0.0099,
      "velocity": 97,
      "chip": "ym2612"
    },
    {
      "channel": 2,
      "note": 67,
      "start": 10.2622,
      "duration": 0.0171,
      "velocity": 97,
      "chip": "ym2612"
    },
    {
      "channel": 3,
      "note": 51,
      "start": 10.2662,
      "duration": 0.0526,
      "velocity": 105,
      "chip": "ym2612"
    },
    {
      "channel": 4,
      "note": 51,
      "start": 10.2702,
      "duration": 0.0491,
      "velocity": 105,
      "chip": "ym2612"
    },
    {
      "channel": 2,
      "note": 70,
      "start": 10.2822,
      "duration": 0.0098,
      "velocity": 97,
      "chip": "ym2612"
    },
    {
      "channel": 2,
      "note": 75,
      "start": 10.2948,
      "duration": 0.0098,
      "velocity": 97,
      "chip": "ym2612"
    },
    {
      "channel": 2,
      "note": 63,
      "start": 10.3086,
      "duration": 0.0099,
      "velocity": 97,
      "chip": "ym2612"
    },
    {
      "channel": 1,
      "note": 51,
      "start": 10.322,
      "duration": 0.0157,
      "velocity": 91,
      "chip": "ym2612"
    },
    {
      "channel": 2,
      "note": 67,
      "start": 10.3231,
      "duration": 0.0172,
      "velocity": 97,
      "chip": "ym2612"
    },
    {
      "channel": 3,
      "note": 51,
      "start": 10.3271,
      "duration": 0.0204,
      "velocity": 94,
      "chip": "ym2612"
    },
    {
      "channel": 4,
      "note": 51,
      "start": 10.3312,
      "duration": 0.0236,
      "velocity": 94,
      "chip": "ym2612"
    },
    {
      "channel": 1,
      "note": 51,
      "start": 10.343,
      "duration": 0.0084,
      "velocity": 91,
      "chip": "ym2612"
    },
    {
      "channel": 2,
      "note": 70,
      "start": 10.3441,
      "duration": 0.01,
      "velocity": 97,
      "chip": "ym2612"
    },
    {
      "channel": 1,
      "note": 63,
      "start": 10.3572,
      "duration": 0.0098,
      "velocity": 91,
      "chip": "ym2612"
    },
    {
      "channel": 2,
      "note": 75,
      "start": 10.3583,
      "duration": 0.0113,
      "velocity": 97,
      "chip": "ym2612"
    },
    {
      "channel": 3,
      "note": 51,
      "start": 10.3593,
      "duration": 0.0179,
      "velocity": 94,
      "chip": "ym2612"
    },
    {
      "channel": 4,
      "note": 51,
      "start": 10.3604,
      "duration": 0.024,
      "velocity": 94,
      "chip": "ym2612"
    },
    {
      "channel": 1,
      "note": 60,
      "start": 10.3727,
      "duration": 0.0084,
      "velocity": 91,
      "chip": "ym2612"
    },
    {
      "channel": 2,
      "note": 63,
      "start": 10.3738,
      "duration": 0.0099,
      "velocity": 97,
      "chip": "ym2612"
    },
    {
      "channel": 1,
      "note": 58,
      "start": 10.3869,
      "duration": 0.0098,
      "velocity": 91,
      "chip": "ym2612"
    },
    {
      "channel": 2,
      "note": 67,
      "start": 10.388,
      "duration": 0.0113,
      "velocity": 97,
      "chip": "ym2612"
    },
    {
      "channel": 3,
      "note": 51,
      "start": 10.389,
      "duration": 0.0177,
      "velocity": 94,
      "chip": "ym2612"
    },
    {
      "channel": 4,
      "note": 51,
      "start": 10.39,
      "duration": 0.0239,
      "velocity": 94,
      "chip": "ym2612"
    },
    {
      "channel": 1,
      "note": 56,
      "start": 10.4022,
      "duration": 0.0084,
      "velocity": 91,
      "chip": "ym2612"
    },
    {
      "channel": 2,
      "note": 70,
      "start": 10.4033,
      "duration": 0.0099,
      "velocity": 97,
      "chip": "ym2612"
    },
    {
      "channel": 0,
      "note": 89,
      "start": 10.4164,
      "duration": 0.1141,
      "velocity": 115,
      "chip": "ym2612"
    },
    {
      "channel": 1,
      "note": 51,
      "start": 10.4176,
      "duration": 0.0101,
      "velocity": 91,
      "chip": "ym2612"
    },
    {
      "channel": 2,
      "note": 75,
      "start": 10.4187,
      "duration": 0.0115,
      "velocity": 97,
      "chip": "ym2612"
    },
    {
      "channel": 3,
      "note": 51,
      "start": 10.4199,
      "duration": 0.0197,
      "velocity": 94,
      "chip": "ym2612"
    },
    {
      "channel": 4,
      "note": 51,
      "start": 10.421,
      "duration": 0.0234,
      "velocity": 94,
      "chip": "ym2612"
    },
    {
      "channel": 1,
      "note": 53,
      "start": 10.4329,
      "duration": 0.132,
      "velocity": 91,
      "chip": "ym2612"
    },
    {
      "channel": 2,
      "note": 65,
      "start": 10.434,
      "duration": 0.0096,
      "velocity": 97,
      "chip": "ym2612"
    },
    {
      "channel": 2,
      "note": 68,
      "start": 10.4476,
      "duration": 0.011,
      "velocity": 97,
      "chip": "ym2612"
    },
    {
      "channel": 3,
      "note": 53,
      "start": 10.4487,
      "duration": 0.0193,
      "velocity": 94,
      "chip": "ym2612"
    },
    {
      "channel": 4,
      "note": 53,
      "start": 10.4497,
      "duration": 0.0231,
      "velocity": 94,
      "chip": "ym2612"
    },
    {
      "channel": 2,
      "note": 72,
      "start": 10.4624,
      "duration": 0.0097,
      "velocity": 97,
      "chip": "ym2612"
    },
    {
      "channel": 2,
      "note": 77,
      "start": 10.4757,
      "duration": 0.017,
      "velocity": 97,
      "chip": "ym2612"
    },
    {
      "channel": 3,
      "note": 53,
      "start": 10.4798,
      "duration": 0.0518,
      "velocity": 105,
      "chip": "ym2612"
    },
    {
      "channel": 4,
      "note": 53,
      "start": 10.4838,
      "duration": 0.0483,
      "velocity": 105,
      "chip": "ym2612"
    },
    {
      "channel": 2,
      "note": 65,
      "start": 10.4955,
      "duration": 0.0093,
      "velocity": 97,
      "chip": "ym2612"
    },
    {
      "channel": 2,
      "note": 68,
      "start": 10.5086,
      "duration": 0.0095,
      "velocity": 97,
      "chip": "ym2612"
    },
    {
      "channel": 2,
      "note": 72,
      "start": 10.5215,
      "duration": 0.0098,
      "velocity": 97,
      "chip": "ym2612"
    },
    {
      "channel": 2,
      "note": 77,
      "start": 10.535,
      "duration": 0.0172,
      "velocity": 97,
      "chip": "ym2612"
    },
    {
      "channel": 3,
      "note": 53,
      "start": 10.539,
      "duration": 0.0197,
      "velocity": 94,
      "chip": "ym2612"
    },
    {
      "channel": 4,
      "note": 53,
      "start": 10.5431,
      "duration": 0.0229,
      "velocity": 94,
      "chip": "ym2612"
    },
    {
      "channel": 2,
      "note": 65,
      "start": 10.5553,
      "duration": 0.0101,
      "velocity": 97,
      "chip": "ym2612"
    },
    {
      "channel": 1,
      "note": 53,
      "start": 10.5688,
      "duration": 0.0157,
      "velocity": 91,
      "chip": "ym2612"
    },
    {
      "channel": 2,
      "note": 68,
      "start": 10.5699,
      "duration": 0.0172,
      "velocity": 97,
      "chip": "ym2612"
    },
    {
      "channel": 3,
      "note": 53,
      "start": 10.5739,
      "duration": 0.0559,
      "velocity": 105,
      "chip": "ym2612"
    },
    {
      "channel": 4,
      "note": 53,
      "start": 10.578,
      "duration": 0.0522,
      "velocity": 105,
      "chip": "ym2612"
    },
    {
      "channel": 1,
      "note": 53,
      "start": 10.5898,
      "duration": 0.0083,
      "velocity": 91,
      "chip": "ym2612"
    },
    {
      "channel": 2,
      "note": 72,
      "start": 10.5909,
      "duration": 0.0098,
      "velocity": 97,
      "chip": "ym2612"
    },
    {
      "channel": 1,
      "note": 56,
      "start": 10.6039,
      "duration": 0.0083,
      "velocity": 91,
      "chip": "ym2612"
    },
    {
      "channel": 2,
      "note": 77,
      "start": 10.6049,
      "duration": 0.0098,
      "velocity": 97,
      "chip": "ym2612"
    },
    {
      "channel": 1,
      "note": 58,
      "start": 10.6185,
      "duration": 0.0083,
      "velocity": 91,
      "chip": "ym2612"
    },
    {
      "channel": 2,
      "note": 65,
      "start": 10.6195,
      "duration": 0.0098,
      "velocity": 97,
      "chip": "ym2612"
    },
    {
      "channel": 1,
      "note": 61,
      "start": 10.6326,
      "duration": 0.0158,
      "velocity": 91,
      "chip": "ym2612"
    },
    {
      "channel": 2,
      "note": 68,
      "start": 10.6337,
      "duration": 0.0173,
      "velocity": 97,
      "chip": "ym2612"
    },
    {
      "channel": 3,
      "note": 53,
      "start": 10.6376,
      "duration": 0.0203,
      "velocity": 94,
      "chip": "ym2612"
    },
    {
      "channel": 4,
      "note": 53,
      "start": 10.6417,
      "duration": 0.0234,
      "velocity": 94,
      "chip": "ym2612"
    },
    {
      "channel": 1,
      "note": 65,
      "start": 10.6535,
      "duration": 0.0084,
      "velocity": 91,
      "chip": "ym2612"
    },
    {
      "channel": 2,
      "note": 72,
      "start": 10.6546,
      "duration": 0.0099,
      "velocity": 97,
      "chip": "ym2612"
    },
    {
      "channel": 1,
      "note": 53,
      "start": 10.6682,
      "duration": 0.0103,
      "velocity": 91,
      "chip": "ym2612"
    },
    {
      "channel": 2,
      "note": 77,
      "start": 10.6694,
      "duration": 0.0117,
      "velocity": 97,
      "chip": "ym2612"
    },
    {
      "channel": 3,
      "note": 51,
      "start": 10.6705,
      "duration": 0.0184,
      "velocity": 94,
      "chip": "ym2612"
    },
    {
      "channel": 4,
      "note": 51,
      "start": 10.6717,
      "duration": 0.0244,
      "velocity": 94,
      "chip": "ym2612"
    },
    {
      "channel": 1,
      "note": 51,
      "start": 10.6844,
      "duration": 0.1271,
      "velocity": 91,
      "chip": "ym2612"
    },
    {
      "channel": 2,
      "note": 63,
      "start": 10.6855,
      "duration": 0.0098,
      "velocity": 97,
      "chip": "ym2612"
    },
    {
      "channel": 2,
      "note": 67,
      "start": 10.6994,
      "duration": 0.0112,
      "velocity": 97,
      "chip": "ym2612"
    },
    {
      "channel": 3,
      "note": 51,
      "start": 10.7005,
      "duration": 0.0173,
      "velocity": 94,
      "chip": "ym2612"
    },
    {
      "channel": 4,
      "note": 51,
      "start": 10.7015,
      "duration": 0.0234,
      "velocity": 94,
      "chip": "ym2612"
    },
    {
      "channel": 2,
      "note": 70,
      "start": 10.7143,
      "duration": 0.0098,
      "velocity": 97,
      "chip": "ym2612"
    },
    {
      "channel": 2,
      "note": 75,
      "start": 10.7279,
      "duration": 0.0112,
      "velocity": 97,
      "chip": "ym2612"
    },
    {
      "channel": 3,
      "note": 51,
      "start": 10.729,
      "duration": 0.0169,
      "velocity": 94,
      "chip": "ym2612"
    },
    {
      "channel": 4,
      "note": 51,
      "start": 10.73,
      "duration": 0.023,
      "velocity": 94,
      "chip": "ym2612"
    },
    {
      "channel": 2,
      "note": 63,
      "start": 10.7424,
      "duration": 0.0099,
      "velocity": 97,
      "chip": "ym2612"
    },
    {
      "channel": 2,
      "note": 67,
      "start": 10.756,
      "duration": 0.0172,
      "velocity": 97,
      "chip": "ym2612"
    },
    {
      "channel": 3,
      "note": 51,
      "start": 10.7601,
      "duration": 0.1509,
      "velocity": 105,
      "chip": "ym2612"
    },
    {
      "channel": 4,
      "note": 51,
      "start": 10.7641,
      "duration": 0.0697,
      "velocity": 105,
      "chip": "ym2612"
    },
    {
      "channel": 2,
      "note": 70,
      "start": 10.7762,
      "duration": 0.0095,
      "velocity": 97,
      "chip": "ym2612"
    },
    {
      "channel": 2,
      "note": 75,
      "start": 10.7886,
      "duration": 0.0095,
      "velocity": 97,
      "chip": "ym2612"
    },
    {
      "channel": 2,
      "note": 63,
      "start": 10.8021,
      "duration": 0.0099,
      "velocity": 97,
      "chip": "ym2612"
    },
    {
      "channel": 1,
      "note": 51,
      "start": 10.8155,
      "duration": 0.0083,
      "velocity": 91,
      "chip": "ym2612"
    },
    {
      "channel": 2,
      "note": 67,
      "start": 10.8166,
      "duration": 0.0098,
      "velocity": 97,
      "chip": "ym2612"
    },
    {
      "channel": 1,
      "note": 51,
      "start": 10.8291,
      "duration": 0.0087,
      "velocity": 91,
      "chip": "ym2612"
    },
    {
      "channel": 2,
      "note": 70,
      "start": 10.8302,
      "duration": 0.0102,
      "velocity": 97,
      "chip": "ym2612"
    },
    {
      "channel": 1,
      "note": 63,
      "start": 10.8441,
      "duration": 0.0086,
      "velocity": 91,
      "chip": "ym2612"
    },
    {
      "channel": 2,
      "note": 75,
      "start": 10.8452,
      "duration": 0.0104,
      "velocity": 97,
      "chip": "ym2612"
    },
    {
      "channel": 1,
      "note": 51,
      "start": 10.8586,
      "duration": 0.0089,
      "velocity": 91,
      "chip": "ym2612"
    },
    {
      "channel": 2,
      "note": 63,
      "start": 10.8597,
      "duration": 0.0104,
      "velocity": 97,
      "chip": "ym2612"
    },
    {
      "channel": 1,
      "note": 75,
      "start": 10.8735,
      "duration": 0.0086,
      "velocity": 91,
      "chip": "ym2612"
    },
    {
      "channel": 2,
      "note": 67,
      "start": 10.8746,
      "duration": 0.0105,
      "velocity": 97,
      "chip": "ym2612"
    },
    {
      "channel": 1,
      "note": 68,
      "start": 10.8881,
      "duration": 0.009,
      "velocity": 91,
      "chip": "ym2612"
    },
    {
      "channel": 2,
      "note": 70,
      "start": 10.8892,
      "duration": 0.0105,
      "velocity": 97,
      "chip": "ym2612"
    },
    {
      "channel": 0,
      "note": 89,
      "start": 10.9051,
      "duration": 55.7989,
      "velocity": 108,
      "chip": "ym2612"
    },
    {
      "channel": 1,
      "note": 63,
      "start": 10.9062,
      "duration": 55.7979,
      "velocity": 91,
      "chip": "ym2612"
    },
    {
      "channel": 2,
      "note": 75,
      "start": 10.9104,
      "duration": 55.7936,
      "velocity": 108,
      "chip": "ym2612"
    }
  ]
}