{
  "track_name": "04 - Underground Area",
  "duration_sec": 69.477,
  "sample_rate": 44100,
  "note_count": 1238,
  "unique_pitches": 32,
  "pitch_range": 44,
  "avg_note_duration": 0.2649,
  "reconstruction_stats": {
    "notes_reconstructed": 1238,
    "keyon_events": 1238,
    "keyoff_events": 1157,
    "orphan_keyons": 5,
    "unique_pitches": 32,
    "pitch_range": 44,
    "avg_duration_sec": 0.2649
  },
  "metadata": {
    "source": "T\\The Incredible Hulk\\04 - Underground Area.vgz"
  },
  "notes": [
    {
      "channel": 0,
      "note": 49,
      "start": 0.0022,
      "duration": 0.3167,
      "velocity": 117,
      "chip": "ym2612"
    },
    {
      "channel": 3,
      "note": 67,
      "start": 0.0045,
      "duration": 0.1979,
      "velocity": 127,
      "chip": "ym2612"
    },
    {
      "channel": 3,
      "note": 67,
      "start": 0.2026,
      "duration": 0.2023,
      "velocity": 127,
      "chip": "ym2612"
    },
    {
      "channel": 0,
      "note": 49,
      "start": 0.3191,
      "duration": 0.612,
      "velocity": 117,
      "chip": "ym2612"
    },
    {
      "channel": 3,
      "note": 67,
      "start": 0.4051,
      "duration": 0.195,
      "velocity": 127,
      "chip": "ym2612"
    },
    {
      "channel": 3,
      "note": 67,
      "start": 0.6002,
      "duration": 0.2202,
      "velocity": 127,
      "chip": "ym2612"
    },
    {
      "channel": 3,
      "note": 67,
      "start": 0.8205,
      "duration": 0.1967,
      "velocity": 127,
      "chip": "ym2612"
    },
    {
      "channel": 0,
      "note": 59,
      "start": 0.9313,
      "duration": 0.2688,
      "velocity": 117,
      "chip": "ym2612"
    },
    {
      "channel": 3,
      "note": 67,
      "start": 1.0174,
      "duration": 0.1833,
      "velocity": 127,
      "chip": "ym2612"
    },
    {
      "channel": 0,
      "note": 59,
      "start": 1.2002,
      "duration": 0.1958,
      "velocity": 117,
      "chip": "ym2612"
    },
    {
      "channel": 3,
      "note": 67,
      "start": 1.2009,
      "duration": 0.1957,
      "velocity": 127,
      "chip": "ym2612"
    },
    {
      "channel": 0,
      "note": 60,
      "start": 1.3961,
      "duration": 0.1827,
      "velocity": 117,
      "chip": "ym2612"
    },
    {
      "channel": 3,
      "note": 67,
      "start": 1.3968,
      "duration": 0.1827,
      "velocity": 127,
      "chip": "ym2612"
    },
    {
      "channel": 0,
      "note": 61,
      "start": 1.5789,
      "duration": 0.3157,
      "velocity": 117,
      "chip": "ym2612"
    },
    {
      "channel": 3,
      "note": 67,
      "start": 1.5796,
      "duration": 0.1984,
      "velocity": 127,
      "chip": "ym2612"
    },
    {
      "channel": 3,
      "note": 67,
      "start": 1.7782,
      "duration": 0.2022,
      "velocity": 127,
      "chip": "ym2612"
    },
    {
      "channel": 0,
      "note": 49,
      "start": 1.8948,
      "duration": 0.7976,
      "velocity": 117,
      "chip": "ym2612"
    },
    {
      "channel": 3,
      "note": 67,
      "start": 1.9806,
      "duration": 0.2129,
      "velocity": 127,
      "chip": "ym2612"
    },
    {
      "channel": 3,
      "note": 67,
      "start": 2.1937,
      "duration": 0.2023,
      "velocity": 127,
      "chip": "ym2612"
    },
    {
      "channel": 3,
      "note": 67,
      "start": 2.3961,
      "duration": 0.1971,
      "velocity": 127,
      "chip": "ym2612"
    },
    {
      "channel": 3,
      "note": 67,
      "start": 2.5934,
      "duration": 0.1865,
      "velocity": 127,
      "chip": "ym2612"
    },
    {
      "channel": 0,
      "note": 47,
      "start": 2.6925,
      "duration": 0.2842,
      "velocity": 117,
      "chip": "ym2612"
    },
    {
      "channel": 3,
      "note": 67,
      "start": 2.78,
      "duration": 0.1973,
      "velocity": 127,
      "chip": "ym2612"
    },
    {
      "channel": 0,
      "note": 48,
      "start": 2.9769,
      "duration": 0.1996,
      "velocity": 117,
      "chip": "ym2612"
    },
    {
      "channel": 3,
      "note": 67,
      "start": 2.9776,
      "duration": 0.1997,
      "velocity": 127,
      "chip": "ym2612"
    },
    {
      "channel": 0,
      "note": 49,
      "start": 3.1767,
      "duration": 0.3003,
      "velocity": 117,
      "chip": "ym2612"
    },
    {
      "channel": 3,
      "note": 67,
      "start": 3.1775,
      "duration": 0.1831,
      "velocity": 127,
      "chip": "ym2612"
    },
    {
      "channel": 3,
      "note": 67,
      "start": 3.3608,
      "duration": 0.2024,
      "velocity": 127,
      "chip": "ym2612"
    },
    {
      "channel": 0,
      "note": 49,
      "start": 3.4772,
      "duration": 0.612,
      "velocity": 117,
      "chip": "ym2612"
    },
    {
      "channel": 3,
      "note": 67,
      "start": 3.5634,
      "duration": 0.2124,
      "velocity": 127,
      "chip": "ym2612"
    },
    {
      "channel": 3,
      "note": 67,
      "start": 3.776,
      "duration": 0.2024,
      "velocity": 127,
      "chip": "ym2612"
    },
    {
      "channel": 3,
      "note": 67,
      "start": 3.9787,
      "duration": 0.2089,
      "velocity": 127,
      "chip": "ym2612"
    },
    {
      "channel": 0,
      "note": 59,
      "start": 4.0894,
      "duration": 0.271,
      "velocity": 117,
      "chip": "ym2612"
    },
    {
      "channel": 3,
      "note": 67,
      "start": 4.1878,
      "duration": 0.1732,
      "velocity": 127,
      "chip": "ym2612"
    },
    {
      "channel": 0,
      "note": 59,
      "start": 4.3605,
      "duration": 0.1955,
      "velocity": 117,
      "chip": "ym2612"
    },
    {
      "channel": 3,
      "note": 67,
      "start": 4.3612,
      "duration": 0.1955,
      "velocity": 127,
      "chip": "ym2612"
    },
    {
      "channel": 0,
      "note": 60,
      "start": 4.5561,
      "duration": 0.1994,
      "velocity": 117,
      "chip": "ym2612"
    },
    {
      "channel": 3,
      "note": 67,
      "start": 4.5568,
      "duration": 0.1993,
      "velocity": 127,
      "chip": "ym2612"
    },
    {
      "channel": 0,
      "note": 61,
      "start": 4.7556,
      "duration": 0.2984,
      "velocity": 117,
      "chip": "ym2612"
    },
    {
      "channel": 3,
      "note": 67,
      "start": 4.7563,
      "duration": 0.1812,
      "velocity": 127,
      "chip": "ym2612"
    },
    {
      "channel": 3,
      "note": 67,
      "start": 4.9377,
      "duration": 0.2162,
      "velocity": 127,
      "chip": "ym2612"
    },
    {
      "channel": 0,
      "note": 49,
      "start": 5.0542,
      "duration": 0.8013,
      "velocity": 117,
      "chip": "ym2612"
    },
    {
      "channel": 3,
      "note": 67,
      "start": 5.1541,
      "duration": 0.1973,
      "velocity": 127,
      "chip": "ym2612"
    },
    {
      "channel": 3,
      "note": 67,
      "start": 5.3516,
      "duration": 0.2028,
      "velocity": 127,
      "chip": "ym2612"
    },
    {
      "channel": 3,
      "note": 67,
      "start": 5.5545,
      "duration": 0.2147,
      "velocity": 127,
      "chip": "ym2612"
    },
    {
      "channel": 3,
      "note": 67,
      "start": 5.7694,
      "duration": 0.1727,
      "velocity": 127,
      "chip": "ym2612"
    },
    {
      "channel": 0,
      "note": 47,
      "start": 5.8557,
      "duration": 0.2989,
      "velocity": 117,
      "chip": "ym2612"
    },
    {
      "channel": 3,
      "note": 67,
      "start": 5.9423,
      "duration": 0.213,
      "velocity": 127,
      "chip": "ym2612"
    },
    {
      "channel": 0,
      "note": 48,
      "start": 6.1548,
      "duration": 0.1826,
      "velocity": 117,
      "chip": "ym2612"
    },
    {
      "channel": 3,
      "note": 67,
      "start": 6.1555,
      "duration": 0.1847,
      "velocity": 127,
      "chip": "ym2612"
    },
    {
      "channel": 0,
      "note": 49,
      "start": 6.3375,
      "duration": 0.3153,
      "velocity": 117,
      "chip": "ym2612"
    },
    {
      "channel": 1,
      "note": 83,
      "start": 6.3396,
      "duration": 0.3138,
      "velocity": 107,
      "chip": "ym2612"
    },
    {
      "channel": 3,
      "note": 67,
      "start": 6.3403,
      "duration": 0.1814,
      "velocity": 127,
      "chip": "ym2612"
    },
    {
      "channel": 4,
      "note": 49,
      "start": 6.3425,
      "duration": 0.3132,
      "velocity": 105,
      "chip": "ym2612"
    },
    {
      "channel": 2,
      "note": 83,
      "start": 6.5213,
      "duration": 0.3043,
      "velocity": 107,
      "chip": "ym2612"
    },
    {
      "channel": 3,
      "note": 67,
      "start": 6.5219,
      "duration": 0.2192,
      "velocity": 127,
      "chip": "ym2612"
    },
    {
      "channel": 0,
      "note": 49,
      "start": 6.653,
      "duration": 0.6129,
      "velocity": 117,
      "chip": "ym2612"
    },
    {
      "channel": 1,
      "note": 85,
      "start": 6.6535,
      "duration": 0.2839,
      "velocity": 107,
      "chip": "ym2612"
    },
    {
      "channel": 4,
      "note": 49,
      "start": 6.6558,
      "duration": 0.0859,
      "velocity": 105,
      "chip": "ym2612"
    },
    {
      "channel": 3,
      "note": 67,
      "start": 6.7413,
      "duration": 0.1984,
      "velocity": 127,
      "chip": "ym2612"
    },
    {
      "channel": 4,
      "note": 59,
      "start": 6.7419,
      "duration": 0.0844,
      "velocity": 105,
      "chip": "ym2612"
    },
    {
      "channel": 2,
      "note": 85,
      "start": 6.8258,
      "duration": 0.3277,
      "velocity": 107,
      "chip": "ym2612"
    },
    {
      "channel": 4,
      "note": 61,
      "start": 6.8265,
      "duration": 0.2293,
      "velocity": 105,
      "chip": "ym2612"
    },
    {
      "channel": 1,
      "note": 85,
      "start": 6.9376,
      "duration": 0.5921,
      "velocity": 107,
      "chip": "ym2612"
    },
    {
      "channel": 3,
      "note": 67,
      "start": 6.9398,
      "duration": 0.2142,
      "velocity": 127,
      "chip": "ym2612"
    },
    {
      "channel": 4,
      "note": 61,
      "start": 7.056,
      "duration": 0.2139,
      "velocity": 105,
      "chip": "ym2612"
    },
    {
      "channel": 2,
      "note": 85,
      "start": 7.1536,
      "duration": 0.5912,
      "velocity": 107,
      "chip": "ym2612"
    },
    {
      "channel": 3,
      "note": 67,
      "start": 7.1542,
      "duration": 0.1999,
      "velocity": 127,
      "chip": "ym2612"
    },
    {
      "channel": 0,
      "note": 59,
      "start": 7.2661,
      "duration": 0.2614,
      "velocity": 117,
      "chip": "ym2612"
    },
    {
      "channel": 4,
      "note": 59,
      "start": 7.2701,
      "duration": 0.0846,
      "velocity": 105,
      "chip": "ym2612"
    },
    {
      "channel": 3,
      "note": 67,
      "start": 7.3543,
      "duration": 0.176,
      "velocity": 127,
      "chip": "ym2612"
    },
    {
      "channel": 4,
      "note": 56,
      "start": 7.3549,
      "duration": 0.1776,
      "velocity": 105,
      "chip": "ym2612"
    },
    {
      "channel": 0,
      "note": 59,
      "start": 7.5277,
      "duration": 0.2128,
      "velocity": 117,
      "chip": "ym2612"
    },
    {
      "channel": 1,
      "note": 85,
      "start": 7.5299,
      "duration": 0.2128,
      "velocity": 107,
      "chip": "ym2612"
    },
    {
      "channel": 3,
      "note": 67,
      "start": 7.5305,
      "duration": 0.2149,
      "velocity": 127,
      "chip": "ym2612"
    },
    {
      "channel": 4,
      "note": 47,
      "start": 7.5326,
      "duration": 0.2133,
      "velocity": 105,
      "chip": "ym2612"
    },
    {
      "channel": 0,
      "note": 60,
      "start": 7.7407,
      "duration": 0.1829,
      "velocity": 117,
      "chip": "ym2612"
    },
    {
      "channel": 1,
      "note": 83,
      "start": 7.7428,
      "duration": 0.0851,
      "velocity": 107,
      "chip": "ym2612"
    },
    {
      "channel": 2,
      "note": 85,
      "start": 7.745,
      "duration": 0.1813,
      "velocity": 107,
      "chip": "ym2612"
    },
    {
      "channel": 3,
      "note": 67,
      "start": 7.7456,
      "duration": 0.1813,
      "velocity": 127,
      "chip": "ym2612"
    },
    {
      "channel": 4,
      "note": 48,
      "start": 7.7461,
      "duration": 0.1829,
      "velocity": 105,
      "chip": "ym2612"
    },
    {
      "channel": 1,
      "note": 80,
      "start": 7.8281,
      "duration": 0.0961,
      "velocity": 107,
      "chip": "ym2612"
    },
    {
      "channel": 0,
      "note": 61,
      "start": 7.9238,
      "duration": 0.3174,
      "velocity": 117,
      "chip": "ym2612"
    },
    {
      "channel": 1,
      "note": 83,
      "start": 7.9243,
      "duration": 0.2003,
      "velocity": 107,
      "chip": "ym2612"
    },
    {
      "channel": 2,
      "note": 83,
      "start": 7.9265,
      "duration": 0.0852,
      "velocity": 107,
      "chip": "ym2612"
    },
    {
      "channel": 3,
      "note": 67,
      "start": 7.927,
      "duration": 0.1986,
      "velocity": 127,
      "chip": "ym2612"
    },
    {
      "channel": 4,
      "note": 49,
      "start": 7.9292,
      "duration": 0.3148,
      "velocity": 105,
      "chip": "ym2612"
    },
    {
      "channel": 2,
      "note": 80,
      "start": 8.0118,
      "duration": 0.1132,
      "velocity": 107,
      "chip": "ym2612"
    },
    {
      "channel": 1,
      "note": 85,
      "start": 8.1247,
      "duration": 0.1171,
      "velocity": 107,
      "chip": "ym2612"
    },
    {
      "channel": 2,
      "note": 83,
      "start": 8.1253,
      "duration": 0.2036,
      "velocity": 107,
      "chip": "ym2612"
    },
    {
      "channel": 3,
      "note": 67,
      "start": 8.1259,
      "duration": 0.2036,
      "velocity": 127,
      "chip": "ym2612"
    },
    {
      "channel": 0,
      "note": 49,
      "start": 8.2414,
      "duration": 0.7851,
      "velocity": 117,
      "chip": "ym2612"
    },
    {
      "channel": 1,
      "note": 73,
      "start": 8.2419,
      "duration": 0.9706,
      "velocity": 107,
      "chip": "ym2612"
    },
    {
      "channel": 4,
      "note": 49,
      "start": 8.2441,
      "duration": 0.0859,
      "velocity": 105,
      "chip": "ym2612"
    },
    {
      "channel": 2,
      "note": 85,
      "start": 8.3291,
      "duration": 0.0856,
      "velocity": 107,
      "chip": "ym2612"
    },
    {
      "channel": 3,
      "note": 67,
      "start": 8.3296,
      "duration": 0.1968,
      "velocity": 127,
      "chip": "ym2612"
    },
    {
      "channel": 4,
      "note": 59,
      "start": 8.3302,
      "duration": 0.0851,
      "velocity": 105,
      "chip": "ym2612"
    },
    {
      "channel": 2,
      "note": 73,
      "start": 8.4149,
      "duration": 1.2901,
      "velocity": 107,
      "chip": "ym2612"
    },
    {
      "channel": 4,
      "note": 61,
      "start": 8.4155,
      "duration": 0.2442,
      "velocity": 105,
      "chip": "ym2612"
    },
    {
      "channel": 3,
      "note": 67,
      "start": 8.5266,
      "duration": 0.217,
      "velocity": 127,
      "chip": "ym2612"
    },
    {
      "channel": 4,
      "note": 61,
      "start": 8.6599,
      "duration": 0.1959,
      "velocity": 105,
      "chip": "ym2612"
    },
    {
      "channel": 3,
      "note": 67,
      "start": 8.7438,
      "duration": 0.1967,
      "velocity": 127,
      "chip": "ym2612"
    },
    {
      "channel": 4,
      "note": 59,
      "start": 8.856,
      "duration": 0.0851,
      "velocity": 105,
      "chip": "ym2612"
    },
    {
      "channel": 3,
      "note": 67,
      "start": 8.9406,
      "duration": 0.1845,
      "velocity": 127,
      "chip": "ym2612"
    },
    {
      "channel": 4,
      "note": 56,
      "start": 8.9412,
      "duration": 0.186,
      "velocity": 105,
      "chip": "ym2612"
    },
    {
      "channel": 0,
      "note": 47,
      "start": 9.0266,
      "duration": 0.2942,
      "velocity": 117,
      "chip": "ym2612"
    },
    {
      "channel": 3,
      "note": 67,
      "start": 9.1252,
      "duration": 0.1968,
      "velocity": 127,
      "chip": "ym2612"
    },
    {
      "channel": 4,
      "note": 47,
      "start": 9.1274,
      "duration": 0.1952,
      "velocity": 105,
      "chip": "ym2612"
    },
    {
      "channel": 1,
      "note": 80,
      "start": 9.2126,
      "duration": 0.1088,
      "velocity": 107,
      "chip": "ym2612"
    },
    {
      "channel": 0,
      "note": 48,
      "start": 9.321,
      "duration": 0.1826,
      "velocity": 117,
      "chip": "ym2612"
    },
    {
      "channel": 1,
      "note": 83,
      "start": 9.3216,
      "duration": 0.0857,
      "velocity": 107,
      "chip": "ym2612"
    },
    {
      "channel": 3,
      "note": 67,
      "start": 9.3222,
      "duration": 0.1827,
      "velocity": 127,
      "chip": "ym2612"
    },
    {
      "channel": 4,
      "note": 48,
      "start": 9.3227,
      "duration": 0.1843,
      "velocity": 105,
      "chip": "ym2612"
    },
    {
      "channel": 1,
      "note": 80,
      "start": 9.4074,
      "duration": 0.0968,
      "velocity": 107,
      "chip": "ym2612"
    },
    {
      "channel": 0,
      "note": 49,
      "start": 9.5038,
      "duration": 0.3161,
      "velocity": 117,
      "chip": "ym2612"
    },
    {
      "channel": 1,
      "note": 83,
      "start": 9.5045,
      "duration": 0.3161,
      "velocity": 107,
      "chip": "ym2612"
    },
    {
      "channel": 3,
      "note": 67,
      "start": 9.5051,
      "duration": 0.2004,
      "velocity": 127,
      "chip": "ym2612"
    },
    {
      "channel": 4,
      "note": 49,
      "start": 9.5073,
      "duration": 0.3155,
      "velocity": 105,
      "chip": "ym2612"
    },
    {
      "channel": 2,
      "note": 83,
      "start": 9.7051,
      "duration": 0.2895,
      "velocity": 107,
      "chip": "ym2612"
    },
    {
      "channel": 3,
      "note": 67,
      "start": 9.7057,
      "duration": 0.2024,
      "velocity": 127,
      "chip": "ym2612"
    },
    {
      "channel": 0,
      "note": 49,
      "start": 9.8201,
      "duration": 0.6146,
      "velocity": 117,
      "chip": "ym2612"
    },
    {
      "channel": 1,
      "note": 85,
      "start": 9.8207,
      "duration": 0.3023,
      "velocity": 107,
      "chip": "ym2612"
    },
    {
      "channel": 4,
      "note": 49,
      "start": 9.8229,
      "duration": 0.0858,
      "velocity": 105,
      "chip": "ym2612"
    },
    {
      "channel": 3,
      "note": 67,
      "start": 9.9083,
      "duration": 0.2169,
      "velocity": 127,
      "chip": "ym2612"
    },
    {
      "channel": 4,
      "note": 59,
      "start": 9.9088,
      "duration": 0.0864,
      "velocity": 105,
      "chip": "ym2612"
    },
    {
      "channel": 2,
      "note": 85,
      "start": 9.9948,
      "duration": 0.3317,
      "velocity": 107,
      "chip": "ym2612"
    },
    {
      "channel": 4,
      "note": 61,
      "start": 9.9955,
      "duration": 0.2459,
      "velocity": 105,
      "chip": "ym2612"
    },
    {
      "channel": 1,
      "note": 85,
      "start": 10.1232,
      "duration": 0.3137,
      "velocity": 107,
      "chip": "ym2612"
    },
    {
      "channel": 3,
      "note": 67,
      "start": 10.1254,
      "duration": 0.2017,
      "velocity": 127,
      "chip": "ym2612"
    },
    {
      "channel": 4,
      "note": 61,
      "start": 10.2416,
      "duration": 0.1992,
      "velocity": 105,
      "chip": "ym2612"
    },
    {
      "channel": 2,
      "note": 85,
      "start": 10.3267,
      "duration": 0.2971,
      "velocity": 107,
      "chip": "ym2612"
    },
    {
      "channel": 3,
      "note": 67,
      "start": 10.3273,
      "duration": 0.1982,
      "velocity": 127,
      "chip": "ym2612"
    },
    {
      "channel": 0,
      "note": 59,
      "start": 10.4349,
      "duration": 0.2751,
      "velocity": 117,
      "chip": "ym2612"
    },
    {
      "channel": 1,
      "note": 85,
      "start": 10.4371,
      "duration": 0.275,
      "velocity": 107,
      "chip": "ym2612"
    },
    {
      "channel": 4,
      "note": 59,
      "start": 10.441,
      "duration": 0.0851,
      "velocity": 105,
      "chip": "ym2612"
    },
    {
      "channel": 3,
      "note": 67,
      "start": 10.5257,
      "duration": 0.1887,
      "velocity": 127,
      "chip": "ym2612"
    },
    {
      "channel": 4,
      "note": 56,
      "start": 10.5263,
      "duration": 0.1902,
      "velocity": 105,
      "chip": "ym2612"
    },
    {
      "channel": 2,
      "note": 85,
      "start": 10.6239,
      "duration": 0.2868,
      "velocity": 107,
      "chip": "ym2612"
    },
    {
      "channel": 0,
      "note": 59,
      "start": 10.7101,
      "duration": 0.1979,
      "velocity": 117,
      "chip": "ym2612"
    },
    {
      "channel": 1,
      "note": 85,
      "start": 10.7122,
      "duration": 0.0868,
      "velocity": 107,
      "chip": "ym2612"
    },
    {
      "channel": 3,
      "note": 67,
      "start": 10.7145,
      "duration": 0.1967,
      "velocity": 127,
      "chip": "ym2612"
    },
    {
      "channel": 4,
      "note": 47,
      "start": 10.7166,
      "duration": 0.1952,
      "velocity": 105,
      "chip": "ym2612"
    },
    {
      "channel": 1,
      "note": 80,
      "start": 10.7993,
      "duration": 0.1094,
      "velocity": 107,
      "chip": "ym2612"
    },
    {
      "channel": 0,
      "note": 60,
      "start": 10.9082,
      "duration": 0.1999,
      "velocity": 117,
      "chip": "ym2612"
    },
    {
      "channel": 1,
      "note": 83,
      "start": 10.9087,
      "duration": 0.0867,
      "velocity": 107,
      "chip": "ym2612"
    },
    {
      "channel": 2,
      "note": 85,
      "start": 10.9109,
      "duration": 0.0851,
      "velocity": 107,
      "chip": "ym2612"
    },
    {
      "channel": 3,
      "note": 67,
      "start": 10.9115,
      "duration": 0.1983,
      "velocity": 127,
      "chip": "ym2612"
    },
    {
      "channel": 4,
      "note": 48,
      "start": 10.912,
      "duration": 0.1999,
      "velocity": 105,
      "chip": "ym2612"
    },
    {
      "channel": 1,
      "note": 80,
      "start": 10.9956,
      "duration": 0.1131,
      "velocity": 107,
      "chip": "ym2612"
    },
    {
      "channel": 2,
      "note": 80,
      "start": 10.9962,
      "duration": 0.1131,
      "velocity": 107,
      "chip": "ym2612"
    },
    {
      "channel": 0,
      "note": 61,
      "start": 11.1083,
      "duration": 0.3001,
      "velocity": 117,
      "chip": "ym2612"
    },
    {
      "channel": 1,
      "note": 83,
      "start": 11.1089,
      "duration": 0.1829,
      "velocity": 107,
      "chip": "ym2612"
    },
    {
      "channel": 2,
      "note": 83,
      "start": 11.1094,
      "duration": 0.0856,
      "velocity": 107,
      "chip": "ym2612"
    },
    {
      "channel": 3,
      "note": 67,
      "start": 11.11,
      "duration": 0.1829,
      "velocity": 127,
      "chip": "ym2612"
    },
    {
      "channel": 4,
      "note": 49,
      "start": 11.1121,
      "duration": 0.299,
      "velocity": 105,
      "chip": "ym2612"
    },
    {
      "channel": 2,
      "note": 80,
      "start": 11.1953,
      "duration": 0.097,
      "velocity": 107,
      "chip": "ym2612"
    },
    {
      "channel": 1,
      "note": 85,
      "start": 11.2919,
      "duration": 0.1171,
      "velocity": 107,
      "chip": "ym2612"
    },
    {
      "channel": 2,
      "note": 83,
      "start": 11.2925,
      "duration": 0.2047,
      "velocity": 107,
      "chip": "ym2612"
    },
    {
      "channel": 3,
      "note": 67,
      "start": 11.2931,
      "duration": 0.2046,
      "velocity": 127,
      "chip": "ym2612"
    },
    {
      "channel": 0,
      "note": 49,
      "start": 11.4086,
      "duration": 0.7987,
      "velocity": 117,
      "chip": "ym2612"
    },
    {
      "channel": 1,
      "note": 73,
      "start": 11.4091,
      "duration": 1.2844,
      "velocity": 97,
      "chip": "ym2612"
    },
    {
      "channel": 4,
      "note": 49,
      "start": 11.4114,
      "duration": 0.0869,
      "velocity": 105,
      "chip": "ym2612"
    },
    {
      "channel": 2,
      "note": 85,
      "start": 11.4973,
      "duration": 0.097,
      "velocity": 107,
      "chip": "ym2612"
    },
    {
      "channel": 3,
      "note": 67,
      "start": 11.4978,
      "duration": 0.2125,
      "velocity": 127,
      "chip": "ym2612"
    },
    {
      "channel": 4,
      "note": 59,
      "start": 11.4984,
      "duration": 0.0965,
      "velocity": 105,
      "chip": "ym2612"
    },
    {
      "channel": 2,
      "note": 73,
      "start": 11.5945,
      "duration": 7.455,
      "velocity": 114,
      "chip": "ym2612"
    },
    {
      "channel": 4,
      "note": 61,
      "start": 11.595,
      "duration": 0.2335,
      "velocity": 105,
      "chip": "ym2612"
    },
    {
      "channel": 3,
      "note": 67,
      "start": 11.7105,
      "duration": 0.2024,
      "velocity": 127,
      "chip": "ym2612"
    },
    {
      "channel": 4,
      "note": 61,
      "start": 11.8287,
      "duration": 0.1959,
      "velocity": 105,
      "chip": "ym2612"
    },
    {
      "channel": 3,
      "note": 67,
      "start": 11.9131,
      "duration": 0.2086,
      "velocity": 127,
      "chip": "ym2612"
    },
    {
      "channel": 4,
      "note": 59,
      "start": 12.0248,
      "duration": 0.0975,
      "velocity": 105,
      "chip": "ym2612"
    },
    {
      "channel": 3,
      "note": 67,
      "start": 12.1219,
      "duration": 0.1722,
      "velocity": 127,
      "chip": "ym2612"
    },
    {
      "channel": 4,
      "note": 56,
      "start": 12.1225,
      "duration": 0.1737,
      "velocity": 105,
      "chip": "ym2612"
    },
    {
      "channel": 0,
      "note": 47,
      "start": 12.2073,
      "duration": 0.2834,
      "velocity": 117,
      "chip": "ym2612"
    },
    {
      "channel": 3,
      "note": 67,
      "start": 12.2942,
      "duration": 0.1972,
      "velocity": 127,
      "chip": "ym2612"
    },
    {
      "channel": 4,
      "note": 47,
      "start": 12.2964,
      "duration": 0.1956,
      "velocity": 105,
      "chip": "ym2612"
    },
    {
      "channel": 0,
      "note": 48,
      "start": 12.491,
      "duration": 0.2004,
      "velocity": 117,
      "chip": "ym2612"
    },
    {
      "channel": 3,
      "note": 67,
      "start": 12.4916,
      "duration": 0.2026,
      "velocity": 127,
      "chip": "ym2612"
    },
    {
      "channel": 4,
      "note": 48,
      "start": 12.4922,
      "duration": 0.2042,
      "velocity": 105,
      "chip": "ym2612"
    },
    {
      "channel": 0,
      "note": 49,
      "start": 12.6916,
      "duration": 0.3002,
      "velocity": 117,
      "chip": "ym2612"
    },
    {
      "channel": 1,
      "note": 49,
      "start": 12.6937,
      "duration": 0.3003,
      "velocity": 97,
      "chip": "ym2612"
    },
    {
      "channel": 3,
      "note": 67,
      "start": 12.6944,
      "duration": 0.1809,
      "velocity": 127,
      "chip": "ym2612"
    },
    {
      "channel": 4,
      "note": 49,
      "start": 12.6965,
      "duration": 0.2997,
      "velocity": 105,
      "chip": "ym2612"
    },
    {
      "channel": 3,
      "note": 67,
      "start": 12.8755,
      "duration": 0.2168,
      "velocity": 127,
      "chip": "ym2612"
    },
    {
      "channel": 0,
      "note": 49,
      "start": 12.992,
      "duration": 0.6267,
      "velocity": 117,
      "chip": "ym2612"
    },
    {
      "channel": 1,
      "note": 49,
      "start": 12.9941,
      "duration": 0.4124,
      "velocity": 97,
      "chip": "ym2612"
    },
    {
      "channel": 4,
      "note": 49,
      "start": 12.9964,
      "duration": 0.0964,
      "velocity": 105,
      "chip": "ym2612"
    },
    {
      "channel": 3,
      "note": 67,
      "start": 13.0925,
      "duration": 0.1959,
      "velocity": 127,
      "chip": "ym2612"
    },
    {
      "channel": 4,
      "note": 59,
      "start": 13.093,
      "duration": 0.085,
      "velocity": 105,
      "chip": "ym2612"
    },
    {
      "channel": 4,
      "note": 61,
      "start": 13.1782,
      "duration": 0.2306,
      "velocity": 105,
      "chip": "ym2612"
    },
    {
      "channel": 3,
      "note": 67,
      "start": 13.2886,
      "duration": 0.2056,
      "velocity": 127,
      "chip": "ym2612"
    },
    {
      "channel": 1,
      "note": 49,
      "start": 13.4067,
      "duration": 0.2142,
      "velocity": 97,
      "chip": "ym2612"
    },
    {
      "channel": 4,
      "note": 61,
      "start": 13.409,
      "duration": 0.2141,
      "velocity": 105,
      "chip": "ym2612"
    },
    {
      "channel": 3,
      "note": 67,
      "start": 13.4944,
      "duration": 0.2126,
      "velocity": 127,
      "chip": "ym2612"
    },
    {
      "channel": 0,
      "note": 59,
      "start": 13.6189,
      "duration": 0.2594,
      "velocity": 117,
      "chip": "ym2612"
    },
    {
      "channel": 1,
      "note": 47,
      "start": 13.621,
      "duration": 0.0854,
      "velocity": 97,
      "chip": "ym2612"
    },
    {
      "channel": 4,
      "note": 59,
      "start": 13.6233,
      "duration": 0.0843,
      "velocity": 105,
      "chip": "ym2612"
    },
    {
      "channel": 1,
      "note": 44,
      "start": 13.7066,
      "duration": 0.1738,
      "velocity": 97,
      "chip": "ym2612"
    },
    {
      "channel": 3,
      "note": 67,
      "start": 13.7072,
      "duration": 0.1738,
      "velocity": 127,
      "chip": "ym2612"
    },
    {
      "channel": 4,
      "note": 56,
      "start": 13.7078,
      "duration": 0.1754,
      "velocity": 105,
      "chip": "ym2612"
    },
    {
      "channel": 0,
      "note": 59,
      "start": 13.8784,
      "duration": 0.2131,
      "velocity": 117,
      "chip": "ym2612"
    },
    {
      "channel": 1,
      "note": 47,
      "start": 13.8806,
      "duration": 0.2131,
      "velocity": 97,
      "chip": "ym2612"
    },
    {
      "channel": 3,
      "note": 67,
      "start": 13.8812,
      "duration": 0.2131,
      "velocity": 127,
      "chip": "ym2612"
    },
    {
      "channel": 4,
      "note": 47,
      "start": 13.8833,
      "duration": 0.2115,
      "velocity": 105,
      "chip": "ym2612"
    },
    {
      "channel": 0,
      "note": 60,
      "start": 14.0917,
      "duration": 0.1829,
      "velocity": 117,
      "chip": "ym2612"
    },
    {
      "channel": 1,
      "note": 48,
      "start": 14.0938,
      "duration": 0.1829,
      "velocity": 97,
      "chip": "ym2612"
    },
    {
      "channel": 3,
      "note": 67,
      "start": 14.0944,
      "duration": 0.1829,
      "velocity": 127,
      "chip": "ym2612"
    },
    {
      "channel": 4,
      "note": 48,
      "start": 14.095,
      "duration": 0.1845,
      "velocity": 105,
      "chip": "ym2612"
    },
    {
      "channel": 0,
      "note": 61,
      "start": 14.2747,
      "duration": 0.318,
      "velocity": 117,
      "chip": "ym2612"
    },
    {
      "channel": 1,
      "note": 49,
      "start": 14.2769,
      "duration": 0.318,
      "velocity": 97,
      "chip": "ym2612"
    },
    {
      "channel": 3,
      "note": 67,
      "start": 14.2775,
      "duration": 0.182,
      "velocity": 127,
      "chip": "ym2612"
    },
    {
      "channel": 4,
      "note": 49,
      "start": 14.2796,
      "duration": 0.3175,
      "velocity": 105,
      "chip": "ym2612"
    },
    {
      "channel": 3,
      "note": 67,
      "start": 14.4598,
      "duration": 0.2214,
      "velocity": 127,
      "chip": "ym2612"
    },
    {
      "channel": 0,
      "note": 49,
      "start": 14.5929,
      "duration": 0.7878,
      "velocity": 117,
      "chip": "ym2612"
    },
    {
      "channel": 1,
      "note": 49,
      "start": 14.5951,
      "duration": 0.4004,
      "velocity": 97,
      "chip": "ym2612"
    },
    {
      "channel": 4,
      "note": 49,
      "start": 14.5973,
      "duration": 0.0843,
      "velocity": 105,
      "chip": "ym2612"
    },
    {
      "channel": 3,
      "note": 67,
      "start": 14.6813,
      "duration": 0.196,
      "velocity": 127,
      "chip": "ym2612"
    },
    {
      "channel": 4,
      "note": 59,
      "start": 14.6818,
      "duration": 0.0858,
      "velocity": 105,
      "chip": "ym2612"
    },
    {
      "channel": 4,
      "note": 61,
      "start": 14.7678,
      "duration": 0.2299,
      "velocity": 105,
      "chip": "ym2612"
    },
    {
      "channel": 3,
      "note": 67,
      "start": 14.8775,
      "duration": 0.217,
      "velocity": 127,
      "chip": "ym2612"
    },
    {
      "channel": 1,
      "note": 49,
      "start": 14.9956,
      "duration": 0.2132,
      "velocity": 97,
      "chip": "ym2612"
    },
    {
      "channel": 4,
      "note": 61,
      "start": 14.9979,
      "duration": 0.2132,
      "velocity": 105,
      "chip": "ym2612"
    },
    {
      "channel": 3,
      "note": 67,
      "start": 15.0947,
      "duration": 0.2004,
      "velocity": 127,
      "chip": "ym2612"
    },
    {
      "channel": 1,
      "note": 61,
      "start": 15.209,
      "duration": 0.0855,
      "velocity": 97,
      "chip": "ym2612"
    },
    {
      "channel": 4,
      "note": 59,
      "start": 15.2112,
      "duration": 0.0845,
      "velocity": 105,
      "chip": "ym2612"
    },
    {
      "channel": 1,
      "note": 59,
      "start": 15.2947,
      "duration": 0.0866,
      "velocity": 97,
      "chip": "ym2612"
    },
    {
      "channel": 3,
      "note": 67,
      "start": 15.2953,
      "duration": 0.1721,
      "velocity": 127,
      "chip": "ym2612"
    },
    {
      "channel": 4,
      "note": 56,
      "start": 15.2959,
      "duration": 0.1737,
      "velocity": 105,
      "chip": "ym2612"
    },
    {
      "channel": 0,
      "note": 47,
      "start": 15.3809,
      "duration": 0.2998,
      "velocity": 117,
      "chip": "ym2612"
    },
    {
      "channel": 1,
      "note": 56,
      "start": 15.3815,
      "duration": 0.0854,
      "velocity": 97,
      "chip": "ym2612"
    },
    {
      "channel": 1,
      "note": 47,
      "start": 15.467,
      "duration": 0.2158,
      "velocity": 97,
      "chip": "ym2612"
    },
    {
      "channel": 3,
      "note": 67,
      "start": 15.4676,
      "duration": 0.2158,
      "velocity": 127,
      "chip": "ym2612"
    },
    {
      "channel": 4,
      "note": 47,
      "start": 15.4697,
      "duration": 0.2143,
      "velocity": 105,
      "chip": "ym2612"
    },
    {
      "channel": 0,
      "note": 48,
      "start": 15.6809,
      "duration": 0.1829,
      "velocity": 117,
      "chip": "ym2612"
    },
    {
      "channel": 1,
      "note": 48,
      "start": 15.683,
      "duration": 0.183,
      "velocity": 97,
      "chip": "ym2612"
    },
    {
      "channel": 3,
      "note": 67,
      "start": 15.6837,
      "duration": 0.183,
      "velocity": 127,
      "chip": "ym2612"
    },
    {
      "channel": 4,
      "note": 48,
      "start": 15.6842,
      "duration": 0.1845,
      "velocity": 105,
      "chip": "ym2612"
    },
    {
      "channel": 0,
      "note": 49,
      "start": 15.864,
      "duration": 0.3167,
      "velocity": 117,
      "chip": "ym2612"
    },
    {
      "channel": 1,
      "note": 49,
      "start": 15.8661,
      "duration": 0.3167,
      "velocity": 97,
      "chip": "ym2612"
    },
    {
      "channel": 3,
      "note": 67,
      "start": 15.8668,
      "duration": 0.1973,
      "velocity": 127,
      "chip": "ym2612"
    },
    {
      "channel": 4,
      "note": 49,
      "start": 15.869,
      "duration": 0.3161,
      "velocity": 105,
      "chip": "ym2612"
    },
    {
      "channel": 3,
      "note": 67,
      "start": 16.0643,
      "duration": 0.2056,
      "velocity": 127,
      "chip": "ym2612"
    },
    {
      "channel": 0,
      "note": 49,
      "start": 16.1809,
      "duration": 0.6138,
      "velocity": 117,
      "chip": "ym2612"
    },
    {
      "channel": 1,
      "note": 49,
      "start": 16.183,
      "duration": 0.4164,
      "velocity": 97,
      "chip": "ym2612"
    },
    {
      "channel": 4,
      "note": 49,
      "start": 16.1853,
      "duration": 0.0851,
      "velocity": 105,
      "chip": "ym2612"
    },
    {
      "channel": 3,
      "note": 67,
      "start": 16.27,
      "duration": 0.1945,
      "velocity": 127,
      "chip": "ym2612"
    },
    {
      "channel": 4,
      "note": 59,
      "start": 16.2706,
      "duration": 0.084,
      "velocity": 105,
      "chip": "ym2612"
    },
    {
      "channel": 4,
      "note": 61,
      "start": 16.3548,
      "duration": 0.2469,
      "velocity": 105,
      "chip": "ym2612"
    },
    {
      "channel": 3,
      "note": 67,
      "start": 16.4647,
      "duration": 0.222,
      "velocity": 127,
      "chip": "ym2612"
    },
    {
      "channel": 1,
      "note": 49,
      "start": 16.5995,
      "duration": 0.1973,
      "velocity": 97,
      "chip": "ym2612"
    },
    {
      "channel": 4,
      "note": 61,
      "start": 16.6018,
      "duration": 0.1973,
      "velocity": 105,
      "chip": "ym2612"
    },
    {
      "channel": 3,
      "note": 67,
      "start": 16.687,
      "duration": 0.1959,
      "velocity": 127,
      "chip": "ym2612"
    },
    {
      "channel": 0,
      "note": 59,
      "start": 16.7949,
      "duration": 0.2717,
      "velocity": 117,
      "chip": "ym2612"
    },
    {
      "channel": 1,
      "note": 47,
      "start": 16.797,
      "duration": 0.0854,
      "velocity": 97,
      "chip": "ym2612"
    },
    {
      "channel": 4,
      "note": 59,
      "start": 16.7993,
      "duration": 0.0842,
      "velocity": 105,
      "chip": "ym2612"
    },
    {
      "channel": 1,
      "note": 44,
      "start": 16.8825,
      "duration": 0.1863,
      "velocity": 97,
      "chip": "ym2612"
    },
    {
      "channel": 3,
      "note": 67,
      "start": 16.8831,
      "duration": 0.1862,
      "velocity": 127,
      "chip": "ym2612"
    },
    {
      "channel": 4,
      "note": 56,
      "start": 16.8837,
      "duration": 0.1878,
      "velocity": 105,
      "chip": "ym2612"
    },
    {
      "channel": 0,
      "note": 59,
      "start": 17.0668,
      "duration": 0.1952,
      "velocity": 117,
      "chip": "ym2612"
    },
    {
      "channel": 1,
      "note": 47,
      "start": 17.0689,
      "duration": 0.1953,
      "velocity": 97,
      "chip": "ym2612"
    },
    {
      "channel": 3,
      "note": 67,
      "start": 17.0695,
      "duration": 0.1953,
      "velocity": 127,
      "chip": "ym2612"
    },
    {
      "channel": 4,
      "note": 47,
      "start": 17.0717,
      "duration": 0.1936,
      "velocity": 105,
      "chip": "ym2612"
    },
    {
      "channel": 0,
      "note": 60,
      "start": 17.2622,
      "duration": 0.1822,
      "velocity": 117,
      "chip": "ym2612"
    },
    {
      "channel": 1,
      "note": 48,
      "start": 17.2643,
      "duration": 0.1822,
      "velocity": 97,
      "chip": "ym2612"
    },
    {
      "channel": 3,
      "note": 67,
      "start": 17.2649,
      "duration": 0.1822,
      "velocity": 127,
      "chip": "ym2612"
    },
    {
      "channel": 4,
      "note": 48,
      "start": 17.2655,
      "duration": 0.1838,
      "velocity": 105,
      "chip": "ym2612"
    },
    {
      "channel": 0,
      "note": 61,
      "start": 17.4446,
      "duration": 0.3168,
      "velocity": 117,
      "chip": "ym2612"
    },
    {
      "channel": 1,
      "note": 49,
      "start": 17.4467,
      "duration": 0.3168,
      "velocity": 97,
      "chip": "ym2612"
    },
    {
      "channel": 3,
      "note": 67,
      "start": 17.4473,
      "duration": 0.1974,
      "velocity": 127,
      "chip": "ym2612"
    },
    {
      "channel": 4,
      "note": 49,
      "start": 17.4495,
      "duration": 0.3163,
      "velocity": 105,
      "chip": "ym2612"
    },
    {
      "channel": 3,
      "note": 67,
      "start": 17.645,
      "duration": 0.2055,
      "velocity": 127,
      "chip": "ym2612"
    },
    {
      "channel": 0,
      "note": 49,
      "start": 17.7616,
      "duration": 0.7999,
      "velocity": 117,
      "chip": "ym2612"
    },
    {
      "channel": 1,
      "note": 49,
      "start": 17.7637,
      "duration": 0.416,
      "velocity": 97,
      "chip": "ym2612"
    },
    {
      "channel": 4,
      "note": 49,
      "start": 17.766,
      "duration": 0.085,
      "velocity": 105,
      "chip": "ym2612"
    },
    {
      "channel": 3,
      "note": 67,
      "start": 17.8506,
      "duration": 0.2109,
      "velocity": 127,
      "chip": "ym2612"
    },
    {
      "channel": 4,
      "note": 59,
      "start": 17.8512,
      "duration": 0.0832,
      "velocity": 105,
      "chip": "ym2612"
    },
    {
      "channel": 4,
      "note": 61,
      "start": 17.9346,
      "duration": 0.2474,
      "velocity": 105,
      "chip": "ym2612"
    },
    {
      "channel": 3,
      "note": 67,
      "start": 18.0617,
      "duration": 0.2057,
      "velocity": 127,
      "chip": "ym2612"
    },
    {
      "channel": 1,
      "note": 49,
      "start": 18.1798,
      "duration": 0.1972,
      "velocity": 97,
      "chip": "ym2612"
    },
    {
      "channel": 4,
      "note": 61,
      "start": 18.1821,
      "duration": 0.1971,
      "velocity": 105,
      "chip": "ym2612"
    },
    {
      "channel": 3,
      "note": 67,
      "start": 18.2676,
      "duration": 0.1963,
      "velocity": 127,
      "chip": "ym2612"
    },
    {
      "channel": 1,
      "note": 61,
      "start": 18.3771,
      "duration": 0.0862,
      "velocity": 97,
      "chip": "ym2612"
    },
    {
      "channel": 4,
      "note": 59,
      "start": 18.3794,
      "duration": 0.0851,
      "velocity": 105,
      "chip": "ym2612"
    },
    {
      "channel": 1,
      "note": 59,
      "start": 18.4635,
      "duration": 0.0985,
      "velocity": 97,
      "chip": "ym2612"
    },
    {
      "channel": 3,
      "note": 67,
      "start": 18.4641,
      "duration": 0.1855,
      "velocity": 127,
      "chip": "ym2612"
    },
    {
      "channel": 4,
      "note": 56,
      "start": 18.4647,
      "duration": 0.187,
      "velocity": 105,
      "chip": "ym2612"
    },
    {
      "channel": 0,
      "note": 47,
      "start": 18.5617,
      "duration": 0.284,
      "velocity": 117,
      "chip": "ym2612"
    },
    {
      "channel": 1,
      "note": 56,
      "start": 18.5622,
      "duration": 0.0868,
      "velocity": 97,
      "chip": "ym2612"
    },
    {
      "channel": 1,
      "note": 47,
      "start": 18.6492,
      "duration": 0.1985,
      "velocity": 97,
      "chip": "ym2612"
    },
    {
      "channel": 3,
      "note": 67,
      "start": 18.6498,
      "duration": 0.1986,
      "velocity": 127,
      "chip": "ym2612"
    },
    {
      "channel": 4,
      "note": 47,
      "start": 18.6519,
      "duration": 0.197,
      "velocity": 105,
      "chip": "ym2612"
    },
    {
      "channel": 0,
      "note": 48,
      "start": 18.8458,
      "duration": 0.1994,
      "velocity": 117,
      "chip": "ym2612"
    },
    {
      "channel": 1,
      "note": 48,
      "start": 18.8479,
      "duration": 0.1994,
      "velocity": 97,
      "chip": "ym2612"
    },
    {
      "channel": 3,
      "note": 67,
      "start": 18.8485,
      "duration": 0.2015,
      "velocity": 127,
      "chip": "ym2612"
    },
    {
      "channel": 4,
      "note": 48,
      "start": 18.8491,
      "duration": 0.2031,
      "velocity": 105,
      "chip": "ym2612"
    },
    {
      "channel": 0,
      "note": 49,
      "start": 19.0454,
      "duration": 0.2997,
      "velocity": 117,
      "chip": "ym2612"
    },
    {
      "channel": 1,
      "note": 49,
      "start": 19.0475,
      "duration": 0.2997,
      "velocity": 97,
      "chip": "ym2612"
    },
    {
      "channel": 2,
      "note": 73,
      "start": 19.0496,
      "duration": 0.1804,
      "velocity": 114,
      "chip": "ym2612"
    },
    {
      "channel": 3,
      "note": 67,
      "start": 19.0502,
      "duration": 0.1804,
      "velocity": 127,
      "chip": "ym2612"
    },
    {
      "channel": 4,
      "note": 49,
      "start": 19.0524,
      "duration": 0.2991,
      "velocity": 105,
      "chip": "ym2612"
    },
    {
      "channel": 2,
      "note": 73,
      "start": 19.2302,
      "duration": 0.1191,
      "velocity": 114,
      "chip": "ym2612"
    },
    {
      "channel": 3,
      "note": 67,
      "start": 19.2308,
      "duration": 0.2047,
      "velocity": 127,
      "chip": "ym2612"
    },
    {
      "channel": 0,
      "note": 49,
      "start": 19.3452,
      "duration": 0.614,
      "velocity": 117,
      "chip": "ym2612"
    },
    {
      "channel": 1,
      "note": 49,
      "start": 19.3474,
      "duration": 0.4173,
      "velocity": 97,
      "chip": "ym2612"
    },
    {
      "channel": 2,
      "note": 73,
      "start": 19.3495,
      "duration": 0.0855,
      "velocity": 114,
      "chip": "ym2612"
    },
    {
      "channel": 4,
      "note": 49,
      "start": 19.3517,
      "duration": 0.0844,
      "velocity": 105,
      "chip": "ym2612"
    },
    {
      "channel": 2,
      "note": 85,
      "start": 19.4351,
      "duration": 0.097,
      "velocity": 114,
      "chip": "ym2612"
    },
    {
      "channel": 3,
      "note": 67,
      "start": 19.4357,
      "duration": 0.2124,
      "velocity": 127,
      "chip": "ym2612"
    },
    {
      "channel": 4,
      "note": 59,
      "start": 19.4362,
      "duration": 0.0965,
      "velocity": 105,
      "chip": "ym2612"
    },
    {
      "channel": 2,
      "note": 83,
      "start": 19.5323,
      "duration": 0.2345,
      "velocity": 114,
      "chip": "ym2612"
    },
    {
      "channel": 4,
      "note": 61,
      "start": 19.5329,
      "duration": 0.2361,
      "velocity": 105,
      "chip": "ym2612"
    },
    {
      "channel": 3,
      "note": 67,
      "start": 19.6483,
      "duration": 0.2051,
      "velocity": 127,
      "chip": "ym2612"
    },
    {
      "channel": 1,
      "note": 49,
      "start": 19.7648,
      "duration": 0.1966,
      "velocity": 97,
      "chip": "ym2612"
    },
    {
      "channel": 2,
      "note": 85,
      "start": 19.767,
      "duration": 0.1965,
      "velocity": 114,
      "chip": "ym2612"
    },
    {
      "channel": 4,
      "note": 61,
      "start": 19.7691,
      "duration": 0.1966,
      "velocity": 105,
      "chip": "ym2612"
    },
    {
      "channel": 3,
      "note": 67,
      "start": 19.8536,
      "duration": 0.2067,
      "velocity": 127,
      "chip": "ym2612"
    },
    {
      "channel": 0,
      "note": 59,
      "start": 19.9594,
      "duration": 0.2737,
      "velocity": 117,
      "chip": "ym2612"
    },
    {
      "channel": 1,
      "note": 47,
      "start": 19.9615,
      "duration": 0.0976,
      "velocity": 97,
      "chip": "ym2612"
    },
    {
      "channel": 2,
      "note": 83,
      "start": 19.9637,
      "duration": 0.0961,
      "velocity": 114,
      "chip": "ym2612"
    },
    {
      "channel": 4,
      "note": 59,
      "start": 19.9659,
      "duration": 0.095,
      "velocity": 105,
      "chip": "ym2612"
    },
    {
      "channel": 1,
      "note": 44,
      "start": 20.0593,
      "duration": 0.176,
      "velocity": 97,
      "chip": "ym2612"
    },
    {
      "channel": 2,
      "note": 80,
      "start": 20.0599,
      "duration": 0.1775,
      "velocity": 114,
      "chip": "ym2612"
    },
    {
      "channel": 3,
      "note": 67,
      "start": 20.0605,
      "duration": 0.1775,
      "velocity": 127,
      "chip": "ym2612"
    },
    {
      "channel": 4,
      "note": 56,
      "start": 20.061,
      "duration": 0.1791,
      "velocity": 105,
      "chip": "ym2612"
    },
    {
      "channel": 0,
      "note": 59,
      "start": 20.2333,
      "duration": 0.1967,
      "velocity": 117,
      "chip": "ym2612"
    },
    {
      "channel": 1,
      "note": 47,
      "start": 20.2354,
      "duration": 0.1968,
      "velocity": 97,
      "chip": "ym2612"
    },
    {
      "channel": 2,
      "note": 83,
      "start": 20.2376,
      "duration": 0.1967,
      "velocity": 114,
      "chip": "ym2612"
    },
    {
      "channel": 3,
      "note": 67,
      "start": 20.2382,
      "duration": 0.1967,
      "velocity": 127,
      "chip": "ym2612"
    },
    {
      "channel": 4,
      "note": 47,
      "start": 20.2403,
      "duration": 0.1952,
      "velocity": 105,
      "chip": "ym2612"
    },
    {
      "channel": 0,
      "note": 60,
      "start": 20.4302,
      "duration": 0.201,
      "velocity": 117,
      "chip": "ym2612"
    },
    {
      "channel": 1,
      "note": 48,
      "start": 20.4323,
      "duration": 0.2011,
      "velocity": 97,
      "chip": "ym2612"
    },
    {
      "channel": 2,
      "note": 85,
      "start": 20.4345,
      "duration": 0.201,
      "velocity": 114,
      "chip": "ym2612"
    },
    {
      "channel": 3,
      "note": 67,
      "start": 20.4351,
      "duration": 0.201,
      "velocity": 127,
      "chip": "ym2612"
    },
    {
      "channel": 4,
      "note": 48,
      "start": 20.4356,
      "duration": 0.2027,
      "velocity": 105,
      "chip": "ym2612"
    },
    {
      "channel": 0,
      "note": 61,
      "start": 20.6315,
      "duration": 0.3,
      "velocity": 117,
      "chip": "ym2612"
    },
    {
      "channel": 1,
      "note": 49,
      "start": 20.6336,
      "duration": 0.3001,
      "velocity": 97,
      "chip": "ym2612"
    },
    {
      "channel": 2,
      "note": 73,
      "start": 20.6357,
      "duration": 0.1808,
      "velocity": 114,
      "chip": "ym2612"
    },
    {
      "channel": 3,
      "note": 67,
      "start": 20.6362,
      "duration": 0.1808,
      "velocity": 127,
      "chip": "ym2612"
    },
    {
      "channel": 4,
      "note": 49,
      "start": 20.6384,
      "duration": 0.2995,
      "velocity": 105,
      "chip": "ym2612"
    },
    {
      "channel": 2,
      "note": 73,
      "start": 20.8166,
      "duration": 0.1191,
      "velocity": 114,
      "chip": "ym2612"
    },
    {
      "channel": 3,
      "note": 67,
      "start": 20.8171,
      "duration": 0.2164,
      "velocity": 127,
      "chip": "ym2612"
    },
    {
      "channel": 0,
      "note": 49,
      "start": 20.9317,
      "duration": 0.8015,
      "velocity": 117,
      "chip": "ym2612"
    },
    {
      "channel": 1,
      "note": 49,
      "start": 20.9338,
      "duration": 0.4123,
      "velocity": 97,
      "chip": "ym2612"
    },
    {
      "channel": 2,
      "note": 73,
      "start": 20.9359,
      "duration": 0.097,
      "velocity": 114,
      "chip": "ym2612"
    },
    {
      "channel": 4,
      "note": 49,
      "start": 20.9381,
      "duration": 0.096,
      "velocity": 105,
      "chip": "ym2612"
    },
    {
      "channel": 2,
      "note": 85,
      "start": 21.0332,
      "duration": 0.0847,
      "velocity": 114,
      "chip": "ym2612"
    },
    {
      "channel": 3,
      "note": 67,
      "start": 21.0337,
      "duration": 0.1958,
      "velocity": 127,
      "chip": "ym2612"
    },
    {
      "channel": 4,
      "note": 59,
      "start": 21.0343,
      "duration": 0.0841,
      "velocity": 105,
      "chip": "ym2612"
    },
    {
      "channel": 2,
      "note": 83,
      "start": 21.118,
      "duration": 0.2302,
      "velocity": 114,
      "chip": "ym2612"
    },
    {
      "channel": 4,
      "note": 61,
      "start": 21.1186,
      "duration": 0.2317,
      "velocity": 105,
      "chip": "ym2612"
    },
    {
      "channel": 3,
      "note": 67,
      "start": 21.2297,
      "duration": 0.2053,
      "velocity": 127,
      "chip": "ym2612"
    },
    {
      "channel": 1,
      "note": 49,
      "start": 21.3463,
      "duration": 0.2131,
      "velocity": 97,
      "chip": "ym2612"
    },
    {
      "channel": 2,
      "note": 85,
      "start": 21.3484,
      "duration": 0.2131,
      "velocity": 114,
      "chip": "ym2612"
    },
    {
      "channel": 4,
      "note": 61,
      "start": 21.3506,
      "duration": 0.2131,
      "velocity": 105,
      "chip": "ym2612"
    },
    {
      "channel": 3,
      "note": 67,
      "start": 21.4352,
      "duration": 0.2125,
      "velocity": 127,
      "chip": "ym2612"
    },
    {
      "channel": 1,
      "note": 61,
      "start": 21.5595,
      "duration": 0.0871,
      "velocity": 97,
      "chip": "ym2612"
    },
    {
      "channel": 2,
      "note": 80,
      "start": 21.5617,
      "duration": 0.0855,
      "velocity": 114,
      "chip": "ym2612"
    },
    {
      "channel": 4,
      "note": 59,
      "start": 21.5639,
      "duration": 0.0844,
      "velocity": 105,
      "chip": "ym2612"
    },
    {
      "channel": 1,
      "note": 59,
      "start": 21.6467,
      "duration": 0.087,
      "velocity": 97,
      "chip": "ym2612"
    },
    {
      "channel": 2,
      "note": 83,
      "start": 21.6473,
      "duration": 0.0869,
      "velocity": 114,
      "chip": "ym2612"
    },
    {
      "channel": 3,
      "note": 67,
      "start": 21.6479,
      "duration": 0.1727,
      "velocity": 127,
      "chip": "ym2612"
    },
    {
      "channel": 4,
      "note": 56,
      "start": 21.6485,
      "duration": 0.1743,
      "velocity": 105,
      "chip": "ym2612"
    },
    {
      "channel": 0,
      "note": 47,
      "start": 21.7333,
      "duration": 0.2994,
      "velocity": 117,
      "chip": "ym2612"
    },
    {
      "channel": 1,
      "note": 56,
      "start": 21.7338,
      "duration": 0.0857,
      "velocity": 97,
      "chip": "ym2612"
    },
    {
      "channel": 2,
      "note": 80,
      "start": 21.7344,
      "duration": 0.0856,
      "velocity": 114,
      "chip": "ym2612"
    },
    {
      "channel": 1,
      "note": 47,
      "start": 21.8196,
      "duration": 0.2153,
      "velocity": 97,
      "chip": "ym2612"
    },
    {
      "channel": 2,
      "note": 87,
      "start": 21.8202,
      "duration": 0.0496,
      "velocity": 114,
      "chip": "ym2612"
    },
    {
      "channel": 3,
      "note": 67,
      "start": 21.8208,
      "duration": 0.2168,
      "velocity": 127,
      "chip": "ym2612"
    },
    {
      "channel": 4,
      "note": 47,
      "start": 21.8229,
      "duration": 0.2152,
      "velocity": 105,
      "chip": "ym2612"
    },
    {
      "channel": 2,
      "note": 88,
      "start": 21.87,
      "duration": 0.167,
      "velocity": 114,
      "chip": "ym2612"
    },
    {
      "channel": 0,
      "note": 48,
      "start": 22.0329,
      "duration": 0.1835,
      "velocity": 117,
      "chip": "ym2612"
    },
    {
      "channel": 1,
      "note": 48,
      "start": 22.035,
      "duration": 0.1835,
      "velocity": 97,
      "chip": "ym2612"
    },
    {
      "channel": 2,
      "note": 87,
      "start": 22.0372,
      "duration": 0.0345,
      "velocity": 114,
      "chip": "ym2612"
    },
    {
      "channel": 3,
      "note": 67,
      "start": 22.0378,
      "duration": 0.1835,
      "velocity": 127,
      "chip": "ym2612"
    },
    {
      "channel": 4,
      "note": 48,
      "start": 22.0383,
      "duration": 0.1852,
      "velocity": 105,
      "chip": "ym2612"
    },
    {
      "channel": 2,
      "note": 88,
      "start": 22.0718,
      "duration": 0.1489,
      "velocity": 114,
      "chip": "ym2612"
    },
    {
      "channel": 0,
      "note": 49,
      "start": 22.2166,
      "duration": 0.3171,
      "velocity": 117,
      "chip": "ym2612"
    },
    {
      "channel": 1,
      "note": 49,
      "start": 22.2187,
      "duration": 0.3172,
      "velocity": 97,
      "chip": "ym2612"
    },
    {
      "channel": 2,
      "note": 73,
      "start": 22.2208,
      "duration": 0.1812,
      "velocity": 114,
      "chip": "ym2612"
    },
    {
      "channel": 3,
      "note": 67,
      "start": 22.2215,
      "duration": 0.1812,
      "velocity": 127,
      "chip": "ym2612"
    },
    {
      "channel": 4,
      "note": 49,
      "start": 22.2236,
      "duration": 0.3166,
      "velocity": 105,
      "chip": "ym2612"
    },
    {
      "channel": 2,
      "note": 73,
      "start": 22.4022,
      "duration": 0.1358,
      "velocity": 114,
      "chip": "ym2612"
    },
    {
      "channel": 3,
      "note": 67,
      "start": 22.4027,
      "duration": 0.2217,
      "velocity": 127,
      "chip": "ym2612"
    },
    {
      "channel": 0,
      "note": 49,
      "start": 22.5339,
      "duration": 0.6143,
      "velocity": 117,
      "chip": "ym2612"
    },
    {
      "channel": 1,
      "note": 49,
      "start": 22.5361,
      "duration": 0.3998,
      "velocity": 97,
      "chip": "ym2612"
    },
    {
      "channel": 2,
      "note": 73,
      "start": 22.5382,
      "duration": 0.0857,
      "velocity": 114,
      "chip": "ym2612"
    },
    {
      "channel": 4,
      "note": 49,
      "start": 22.5404,
      "duration": 0.0846,
      "velocity": 105,
      "chip": "ym2612"
    },
    {
      "channel": 2,
      "note": 85,
      "start": 22.624,
      "duration": 0.0838,
      "velocity": 114,
      "chip": "ym2612"
    },
    {
      "channel": 3,
      "note": 67,
      "start": 22.6246,
      "duration": 0.1948,
      "velocity": 127,
      "chip": "ym2612"
    },
    {
      "channel": 4,
      "note": 59,
      "start": 22.6252,
      "duration": 0.0832,
      "velocity": 105,
      "chip": "ym2612"
    },
    {
      "channel": 2,
      "note": 83,
      "start": 22.7079,
      "duration": 0.2301,
      "velocity": 114,
      "chip": "ym2612"
    },
    {
      "channel": 4,
      "note": 61,
      "start": 22.7086,
      "duration": 0.2317,
      "velocity": 105,
      "chip": "ym2612"
    },
    {
      "channel": 3,
      "note": 67,
      "start": 22.8196,
      "duration": 0.2185,
      "velocity": 127,
      "chip": "ym2612"
    },
    {
      "channel": 1,
      "note": 49,
      "start": 22.9361,
      "duration": 0.2142,
      "velocity": 97,
      "chip": "ym2612"
    },
    {
      "channel": 2,
      "note": 85,
      "start": 22.9382,
      "duration": 0.2142,
      "velocity": 114,
      "chip": "ym2612"
    },
    {
      "channel": 4,
      "note": 61,
      "start": 22.9404,
      "duration": 0.2142,
      "velocity": 105,
      "chip": "ym2612"
    },
    {
      "channel": 3,
      "note": 67,
      "start": 23.0383,
      "duration": 0.1991,
      "velocity": 127,
      "chip": "ym2612"
    },
    {
      "channel": 0,
      "note": 59,
      "start": 23.1483,
      "duration": 0.2629,
      "velocity": 117,
      "chip": "ym2612"
    },
    {
      "channel": 1,
      "note": 47,
      "start": 23.1505,
      "duration": 0.0857,
      "velocity": 97,
      "chip": "ym2612"
    },
    {
      "channel": 2,
      "note": 83,
      "start": 23.1526,
      "duration": 0.0841,
      "velocity": 114,
      "chip": "ym2612"
    },
    {
      "channel": 4,
      "note": 59,
      "start": 23.1548,
      "duration": 0.083,
      "velocity": 105,
      "chip": "ym2612"
    },
    {
      "channel": 1,
      "note": 44,
      "start": 23.2364,
      "duration": 0.177,
      "velocity": 97,
      "chip": "ym2612"
    },
    {
      "channel": 2,
      "note": 80,
      "start": 23.2369,
      "duration": 0.1785,
      "velocity": 114,
      "chip": "ym2612"
    },
    {
      "channel": 3,
      "note": 67,
      "start": 23.2374,
      "duration": 0.1786,
      "velocity": 127,
      "chip": "ym2612"
    },
    {
      "channel": 4,
      "note": 56,
      "start": 23.238,
      "duration": 0.1801,
      "velocity": 105,
      "chip": "ym2612"
    },
    {
      "channel": 0,
      "note": 59,
      "start": 23.4114,
      "duration": 0.2139,
      "velocity": 117,
      "chip": "ym2612"
    },
    {
      "channel": 1,
      "note": 47,
      "start": 23.4135,
      "duration": 0.214,
      "velocity": 97,
      "chip": "ym2612"
    },
    {
      "channel": 2,
      "note": 83,
      "start": 23.4157,
      "duration": 0.2139,
      "velocity": 114,
      "chip": "ym2612"
    },
    {
      "channel": 3,
      "note": 67,
      "start": 23.4162,
      "duration": 0.2139,
      "velocity": 127,
      "chip": "ym2612"
    },
    {
      "channel": 4,
      "note": 47,
      "start": 23.4183,
      "duration": 0.2124,
      "velocity": 105,
      "chip": "ym2612"
    },
    {
      "channel": 0,
      "note": 60,
      "start": 23.6255,
      "duration": 0.1839,
      "velocity": 117,
      "chip": "ym2612"
    },
    {
      "channel": 1,
      "note": 48,
      "start": 23.6276,
      "duration": 0.184,
      "velocity": 97,
      "chip": "ym2612"
    },
    {
      "channel": 2,
      "note": 85,
      "start": 23.6298,
      "duration": 0.1839,
      "velocity": 114,
      "chip": "ym2612"
    },
    {
      "channel": 3,
      "note": 67,
      "start": 23.6304,
      "duration": 0.1839,
      "velocity": 127,
      "chip": "ym2612"
    },
    {
      "channel": 4,
      "note": 48,
      "start": 23.6309,
      "duration": 0.1855,
      "velocity": 105,
      "chip": "ym2612"
    },
    {
      "channel": 0,
      "note": 61,
      "start": 23.8096,
      "duration": 0.3161,
      "velocity": 117,
      "chip": "ym2612"
    },
    {
      "channel": 1,
      "note": 49,
      "start": 23.8117,
      "duration": 0.3161,
      "velocity": 97,
      "chip": "ym2612"
    },
    {
      "channel": 2,
      "note": 73,
      "start": 23.8139,
      "duration": 0.1968,
      "velocity": 114,
      "chip": "ym2612"
    },
    {
      "channel": 3,
      "note": 67,
      "start": 23.8144,
      "duration": 0.1967,
      "velocity": 127,
      "chip": "ym2612"
    },
    {
      "channel": 4,
      "note": 49,
      "start": 23.8166,
      "duration": 0.3156,
      "velocity": 105,
      "chip": "ym2612"
    },
    {
      "channel": 2,
      "note": 73,
      "start": 24.0108,
      "duration": 0.1192,
      "velocity": 114,
      "chip": "ym2612"
    },
    {
      "channel": 3,
      "note": 67,
      "start": 24.0113,
      "duration": 0.2038,
      "velocity": 127,
      "chip": "ym2612"
    },
    {
      "channel": 0,
      "note": 49,
      "start": 24.1259,
      "duration": 0.7893,
      "velocity": 117,
      "chip": "ym2612"
    },
    {
      "channel": 1,
      "note": 49,
      "start": 24.128,
      "duration": 0.4159,
      "velocity": 97,
      "chip": "ym2612"
    },
    {
      "channel": 2,
      "note": 73,
      "start": 24.1301,
      "duration": 0.0846,
      "velocity": 114,
      "chip": "ym2612"
    },
    {
      "channel": 4,
      "note": 49,
      "start": 24.1323,
      "duration": 0.0834,
      "velocity": 105,
      "chip": "ym2612"
    },
    {
      "channel": 2,
      "note": 85,
      "start": 24.2148,
      "duration": 0.0842,
      "velocity": 114,
      "chip": "ym2612"
    },
    {
      "channel": 3,
      "note": 67,
      "start": 24.2154,
      "duration": 0.1953,
      "velocity": 127,
      "chip": "ym2612"
    },
    {
      "channel": 4,
      "note": 59,
      "start": 24.2159,
      "duration": 0.0836,
      "velocity": 105,
      "chip": "ym2612"
    },
    {
      "channel": 2,
      "note": 83,
      "start": 24.2991,
      "duration": 0.2468,
      "velocity": 114,
      "chip": "ym2612"
    },
    {
      "channel": 4,
      "note": 61,
      "start": 24.2998,
      "duration": 0.2484,
      "velocity": 105,
      "chip": "ym2612"
    },
    {
      "channel": 3,
      "note": 67,
      "start": 24.4109,
      "duration": 0.2231,
      "velocity": 127,
      "chip": "ym2612"
    },
    {
      "channel": 1,
      "note": 49,
      "start": 24.5441,
      "duration": 0.1976,
      "velocity": 97,
      "chip": "ym2612"
    },
    {
      "channel": 2,
      "note": 85,
      "start": 24.5462,
      "duration": 0.1976,
      "velocity": 114,
      "chip": "ym2612"
    },
    {
      "channel": 4,
      "note": 61,
      "start": 24.5484,
      "duration": 0.1976,
      "velocity": 105,
      "chip": "ym2612"
    },
    {
      "channel": 3,
      "note": 67,
      "start": 24.6342,
      "duration": 0.1955,
      "velocity": 127,
      "chip": "ym2612"
    },
    {
      "channel": 1,
      "note": 61,
      "start": 24.7418,
      "duration": 0.0867,
      "velocity": 97,
      "chip": "ym2612"
    },
    {
      "channel": 2,
      "note": 80,
      "start": 24.7439,
      "duration": 0.0851,
      "velocity": 114,
      "chip": "ym2612"
    },
    {
      "channel": 4,
      "note": 59,
      "start": 24.7462,
      "duration": 0.084,
      "velocity": 105,
      "chip": "ym2612"
    },
    {
      "channel": 1,
      "note": 59,
      "start": 24.8287,
      "duration": 0.0871,
      "velocity": 97,
      "chip": "ym2612"
    },
    {
      "channel": 2,
      "note": 83,
      "start": 24.8293,
      "duration": 0.087,
      "velocity": 114,
      "chip": "ym2612"
    },
    {
      "channel": 3,
      "note": 67,
      "start": 24.8298,
      "duration": 0.1849,
      "velocity": 127,
      "chip": "ym2612"
    },
    {
      "channel": 4,
      "note": 56,
      "start": 24.8304,
      "duration": 0.1864,
      "velocity": 105,
      "chip": "ym2612"
    },
    {
      "channel": 0,
      "note": 47,
      "start": 24.9154,
      "duration": 0.2953,
      "velocity": 117,
      "chip": "ym2612"
    },
    {
      "channel": 1,
      "note": 56,
      "start": 24.9159,
      "duration": 0.0976,
      "velocity": 97,
      "chip": "ym2612"
    },
    {
      "channel": 2,
      "note": 80,
      "start": 24.9165,
      "duration": 0.0976,
      "velocity": 114,
      "chip": "ym2612"
    },
    {
      "channel": 1,
      "note": 47,
      "start": 25.0137,
      "duration": 0.1991,
      "velocity": 97,
      "chip": "ym2612"
    },
    {
      "channel": 2,
      "note": 87,
      "start": 25.0143,
      "duration": 0.0376,
      "velocity": 114,
      "chip": "ym2612"
    },
    {
      "channel": 3,
      "note": 67,
      "start": 25.0148,
      "duration": 0.2007,
      "velocity": 127,
      "chip": "ym2612"
    },
    {
      "channel": 4,
      "note": 47,
      "start": 25.017,
      "duration": 0.1991,
      "velocity": 105,
      "chip": "ym2612"
    },
    {
      "channel": 2,
      "note": 88,
      "start": 25.052,
      "duration": 0.1629,
      "velocity": 114,
      "chip": "ym2612"
    },
    {
      "channel": 0,
      "note": 48,
      "start": 25.2109,
      "duration": 0.1844,
      "velocity": 117,
      "chip": "ym2612"
    },
    {
      "channel": 1,
      "note": 48,
      "start": 25.213,
      "duration": 0.1844,
      "velocity": 102,
      "chip": "ym2612"
    },
    {
      "channel": 2,
      "note": 87,
      "start": 25.2151,
      "duration": 0.0472,
      "velocity": 114,
      "chip": "ym2612"
    },
    {
      "channel": 3,
      "note": 67,
      "start": 25.2157,
      "duration": 0.1844,
      "velocity": 127,
      "chip": "ym2612"
    },
    {
      "channel": 4,
      "note": 48,
      "start": 25.2162,
      "duration": 1.7844,
      "velocity": 102,
      "chip": "ym2612"
    },
    {
      "channel": 2,
      "note": 88,
      "start": 25.2626,
      "duration": 0.1369,
      "velocity": 102,
      "chip": "ym2612"
    },
    {
      "channel": 0,
      "note": 54,
      "start": 25.3954,
      "duration": 0.0997,
      "velocity": 117,
      "chip": "ym2612"
    },
    {
      "channel": 1,
      "note": 78,
      "start": 25.3975,
      "duration": 0.0982,
      "velocity": 102,
      "chip": "ym2612"
    },
    {
      "channel": 2,
      "note": 54,
      "start": 25.3996,
      "duration": 0.0966,
      "velocity": 102,
      "chip": "ym2612"
    },
    {
      "channel": 3,
      "note": 67,
      "start": 25.4003,
      "duration": 0.1943,
      "velocity": 127,
      "chip": "ym2612"
    },
    {
      "channel": 0,
      "note": 52,
      "start": 25.4954,
      "duration": 0.2158,
      "velocity": 117,
      "chip": "ym2612"
    },
    {
      "channel": 1,
      "note": 76,
      "start": 25.4959,
      "duration": 0.2159,
      "velocity": 102,
      "chip": "ym2612"
    },
    {
      "channel": 2,
      "note": 52,
      "start": 25.4964,
      "duration": 0.2158,
      "velocity": 102,
      "chip": "ym2612"
    },
    {
      "channel": 3,
      "note": 67,
      "start": 25.5948,
      "duration": 0.2075,
      "velocity": 127,
      "chip": "ym2612"
    },
    {
      "channel": 0,
      "note": 51,
      "start": 25.7114,
      "duration": 0.5032,
      "velocity": 117,
      "chip": "ym2612"
    },
    {
      "channel": 1,
      "note": 75,
      "start": 25.7119,
      "duration": 0.5048,
      "velocity": 102,
      "chip": "ym2612"
    },
    {
      "channel": 2,
      "note": 51,
      "start": 25.7124,
      "duration": 0.5064,
      "velocity": 102,
      "chip": "ym2612"
    },
    {
      "channel": 3,
      "note": 67,
      "start": 25.8024,
      "duration": 0.2087,
      "velocity": 127,
      "chip": "ym2612"
    },
    {
      "channel": 3,
      "note": 67,
      "start": 26.0112,
      "duration": 0.2082,
      "velocity": 127,
      "chip": "ym2612"
    },
    {
      "channel": 0,
      "note": 56,
      "start": 26.2147,
      "duration": 0.1094,
      "velocity": 117,
      "chip": "ym2612"
    },
    {
      "channel": 1,
      "note": 80,
      "start": 26.2169,
      "duration": 0.1078,
      "velocity": 102,
      "chip": "ym2612"
    },
    {
      "channel": 2,
      "note": 56,
      "start": 26.219,
      "duration": 0.1062,
      "velocity": 102,
      "chip": "ym2612"
    },
    {
      "channel": 3,
      "note": 67,
      "start": 26.2195,
      "duration": 0.1902,
      "velocity": 127,
      "chip": "ym2612"
    },
    {
      "channel": 0,
      "note": 54,
      "start": 26.3243,
      "duration": 0.1839,
      "velocity": 117,
      "chip": "ym2612"
    },
    {
      "channel": 1,
      "note": 78,
      "start": 26.3248,
      "duration": 0.1839,
      "velocity": 102,
      "chip": "ym2612"
    },
    {
      "channel": 2,
      "note": 54,
      "start": 26.3254,
      "duration": 0.1839,
      "velocity": 102,
      "chip": "ym2612"
    },
    {
      "channel": 3,
      "note": 67,
      "start": 26.41,
      "duration": 0.1901,
      "velocity": 127,
      "chip": "ym2612"
    },
    {
      "channel": 0,
      "note": 52,
      "start": 26.5083,
      "duration": 0.4853,
      "velocity": 117,
      "chip": "ym2612"
    },
    {
      "channel": 1,
      "note": 76,
      "start": 26.5089,
      "duration": 0.4868,
      "velocity": 102,
      "chip": "ym2612"
    },
    {
      "channel": 2,
      "note": 52,
      "start": 26.5095,
      "duration": 0.4884,
      "velocity": 102,
      "chip": "ym2612"
    },
    {
      "channel": 3,
      "note": 67,
      "start": 26.6003,
      "duration": 0.1914,
      "velocity": 127,
      "chip": "ym2612"
    },
    {
      "channel": 3,
      "note": 67,
      "start": 26.7918,
      "duration": 0.2066,
      "velocity": 127,
      "chip": "ym2612"
    },
    {
      "channel": 0,
      "note": 54,
      "start": 26.9938,
      "duration": 0.0873,
      "velocity": 117,
      "chip": "ym2612"
    },
    {
      "channel": 1,
      "note": 83,
      "start": 26.9959,
      "duration": 0.1967,
      "velocity": 102,
      "chip": "ym2612"
    },
    {
      "channel": 2,
      "note": 59,
      "start": 26.9981,
      "duration": 0.1968,
      "velocity": 102,
      "chip": "ym2612"
    },
    {
      "channel": 3,
      "note": 67,
      "start": 26.9986,
      "duration": 0.1967,
      "velocity": 127,
      "chip": "ym2612"
    },
    {
      "channel": 4,
      "note": 80,
      "start": 27.0007,
      "duration": 0.1967,
      "velocity": 102,
      "chip": "ym2612"
    },
    {
      "channel": 0,
      "note": 56,
      "start": 27.0813,
      "duration": 0.1981,
      "velocity": 117,
      "chip": "ym2612"
    },
    {
      "channel": 1,
      "note": 83,
      "start": 27.1928,
      "duration": 0.183,
      "velocity": 102,
      "chip": "ym2612"
    },
    {
      "channel": 2,
      "note": 59,
      "start": 27.1949,
      "duration": 0.183,
      "velocity": 102,
      "chip": "ym2612"
    },
    {
      "channel": 3,
      "note": 67,
      "start": 27.1955,
      "duration": 0.1829,
      "velocity": 127,
      "chip": "ym2612"
    },
    {
      "channel": 4,
      "note": 80,
      "start": 27.1977,
      "duration": 0.1829,
      "velocity": 102,
      "chip": "ym2612"
    },
    {
      "channel": 0,
      "note": 56,
      "start": 27.2795,
      "duration": 0.0941,
      "velocity": 117,
      "chip": "ym2612"
    },
    {
      "channel": 0,
      "note": 59,
      "start": 27.3738,
      "duration": 0.0997,
      "velocity": 117,
      "chip": "ym2612"
    },
    {
      "channel": 1,
      "note": 83,
      "start": 27.3759,
      "duration": 0.2143,
      "velocity": 102,
      "chip": "ym2612"
    },
    {
      "channel": 2,
      "note": 59,
      "start": 27.3781,
      "duration": 0.2142,
      "velocity": 102,
      "chip": "ym2612"
    },
    {
      "channel": 3,
      "note": 67,
      "start": 27.3787,
      "duration": 0.2142,
      "velocity": 127,
      "chip": "ym2612"
    },
    {
      "channel": 4,
      "note": 80,
      "start": 27.3808,
      "duration": 0.2142,
      "velocity": 102,
      "chip": "ym2612"
    },
    {
      "channel": 0,
      "note": 56,
      "start": 27.4737,
      "duration": 0.203,
      "velocity": 117,
      "chip": "ym2612"
    },
    {
      "channel": 1,
      "note": 83,
      "start": 27.5903,
      "duration": 0.1824,
      "velocity": 102,
      "chip": "ym2612"
    },
    {
      "channel": 2,
      "note": 59,
      "start": 27.5925,
      "duration": 0.1824,
      "velocity": 102,
      "chip": "ym2612"
    },
    {
      "channel": 3,
      "note": 67,
      "start": 27.5931,
      "duration": 0.1823,
      "velocity": 127,
      "chip": "ym2612"
    },
    {
      "channel": 4,
      "note": 80,
      "start": 27.5952,
      "duration": 0.1823,
      "velocity": 102,
      "chip": "ym2612"
    },
    {
      "channel": 0,
      "note": 52,
      "start": 27.6768,
      "duration": 0.0937,
      "velocity": 117,
      "chip": "ym2612"
    },
    {
      "channel": 0,
      "note": 54,
      "start": 27.7707,
      "duration": 0.0874,
      "velocity": 117,
      "chip": "ym2612"
    },
    {
      "channel": 1,
      "note": 83,
      "start": 27.7728,
      "duration": 0.2143,
      "velocity": 102,
      "chip": "ym2612"
    },
    {
      "channel": 2,
      "note": 59,
      "start": 27.775,
      "duration": 0.2143,
      "velocity": 102,
      "chip": "ym2612"
    },
    {
      "channel": 3,
      "note": 67,
      "start": 27.7756,
      "duration": 0.2142,
      "velocity": 127,
      "chip": "ym2612"
    },
    {
      "channel": 4,
      "note": 80,
      "start": 27.7777,
      "duration": 0.2142,
      "velocity": 102,
      "chip": "ym2612"
    },
    {
      "channel": 0,
      "note": 56,
      "start": 27.8583,
      "duration": 0.2154,
      "velocity": 117,
      "chip": "ym2612"
    },
    {
      "channel": 1,
      "note": 83,
      "start": 27.9872,
      "duration": 0.1826,
      "velocity": 102,
      "chip": "ym2612"
    },
    {
      "channel": 2,
      "note": 59,
      "start": 27.9894,
      "duration": 0.1826,
      "velocity": 102,
      "chip": "ym2612"
    },
    {
      "channel": 3,
      "note": 67,
      "start": 27.99,
      "duration": 0.1825,
      "velocity": 127,
      "chip": "ym2612"
    },
    {
      "channel": 4,
      "note": 80,
      "start": 27.9921,
      "duration": 0.1825,
      "velocity": 102,
      "chip": "ym2612"
    },
    {
      "channel": 0,
      "note": 56,
      "start": 28.0738,
      "duration": 0.0938,
      "velocity": 117,
      "chip": "ym2612"
    },
    {
      "channel": 0,
      "note": 61,
      "start": 28.1678,
      "duration": 0.0874,
      "velocity": 117,
      "chip": "ym2612"
    },
    {
      "channel": 1,
      "note": 83,
      "start": 28.1699,
      "duration": 0.0859,
      "velocity": 102,
      "chip": "ym2612"
    },
    {
      "channel": 2,
      "note": 59,
      "start": 28.1721,
      "duration": 0.0843,
      "velocity": 102,
      "chip": "ym2612"
    },
    {
      "channel": 3,
      "note": 67,
      "start": 28.1727,
      "duration": 0.1709,
      "velocity": 127,
      "chip": "ym2612"
    },
    {
      "channel": 4,
      "note": 78,
      "start": 28.1748,
      "duration": 0.0822,
      "velocity": 102,
      "chip": "ym2612"
    },
    {
      "channel": 0,
      "note": 59,
      "start": 28.2555,
      "duration": 0.0865,
      "velocity": 117,
      "chip": "ym2612"
    },
    {
      "channel": 1,
      "note": 84,
      "start": 28.256,
      "duration": 0.0864,
      "velocity": 102,
      "chip": "ym2612"
    },
    {
      "channel": 2,
      "note": 60,
      "start": 28.2566,
      "duration": 0.0865,
      "velocity": 102,
      "chip": "ym2612"
    },
    {
      "channel": 4,
      "note": 79,
      "start": 28.2572,
      "duration": 0.087,
      "velocity": 102,
      "chip": "ym2612"
    },
    {
      "channel": 0,
      "note": 52,
      "start": 28.3421,
      "duration": 0.1052,
      "velocity": 117,
      "chip": "ym2612"
    },
    {
      "channel": 1,
      "note": 85,
      "start": 28.3426,
      "duration": 0.2021,
      "velocity": 107,
      "chip": "ym2612"
    },
    {
      "channel": 2,
      "note": 61,
      "start": 28.3432,
      "duration": 0.3832,
      "velocity": 107,
      "chip": "ym2612"
    },
    {
      "channel": 3,
      "note": 67,
      "start": 28.3438,
      "duration": 0.2016,
      "velocity": 127,
      "chip": "ym2612"
    },
    {
      "channel": 4,
      "note": 80,
      "start": 28.3443,
      "duration": 0.2032,
      "velocity": 105,
      "chip": "ym2612"
    },
    {
      "channel": 0,
      "note": 51,
      "start": 28.4473,
      "duration": 0.008,
      "velocity": 117,
      "chip": "ym2612"
    },
    {
      "channel": 0,
      "note": 51,
      "start": 28.4553,
      "duration": 0.012,
      "velocity": 117,
      "chip": "ym2612"
    },
    {
      "channel": 0,
      "note": 50,
      "start": 28.4673,
      "duration": 0.0144,
      "velocity": 117,
      "chip": "ym2612"
    },
    {
      "channel": 0,
      "note": 50,
      "start": 28.4818,
      "duration": 0.0106,
      "velocity": 117,
      "chip": "ym2612"
    },
    {
      "channel": 0,
      "note": 49,
      "start": 28.4924,
      "duration": 0.033,
      "velocity": 117,
      "chip": "ym2612"
    },
    {
      "channel": 0,
      "note": 48,
      "start": 28.5254,
      "duration": 0.0172,
      "velocity": 117,
      "chip": "ym2612"
    },
    {
      "channel": 0,
      "note": 49,
      "start": 28.5427,
      "duration": 0.2987,
      "velocity": 117,
      "chip": "ym2612"
    },
    {
      "channel": 1,
      "note": 83,
      "start": 28.5448,
      "duration": 0.2972,
      "velocity": 107,
      "chip": "ym2612"
    },
    {
      "channel": 3,
      "note": 67,
      "start": 28.5455,
      "duration": 0.1815,
      "velocity": 127,
      "chip": "ym2612"
    },
    {
      "channel": 4,
      "note": 49,
      "start": 28.5477,
      "duration": 0.2966,
      "velocity": 105,
      "chip": "ym2612"
    },
    {
      "channel": 2,
      "note": 83,
      "start": 28.7266,
      "duration": 0.3029,
      "velocity": 107,
      "chip": "ym2612"
    },
    {
      "channel": 3,
      "note": 67,
      "start": 28.7272,
      "duration": 0.2165,
      "velocity": 127,
      "chip": "ym2612"
    },
    {
      "channel": 0,
      "note": 49,
      "start": 28.8416,
      "duration": 0.6277,
      "velocity": 117,
      "chip": "ym2612"
    },
    {
      "channel": 1,
      "note": 85,
      "start": 28.8422,
      "duration": 0.2988,
      "velocity": 107,
      "chip": "ym2612"
    },
    {
      "channel": 4,
      "note": 49,
      "start": 28.8444,
      "duration": 0.0998,
      "velocity": 105,
      "chip": "ym2612"
    },
    {
      "channel": 3,
      "note": 67,
      "start": 28.9439,
      "duration": 0.1994,
      "velocity": 127,
      "chip": "ym2612"
    },
    {
      "channel": 4,
      "note": 59,
      "start": 28.9444,
      "duration": 0.0858,
      "velocity": 105,
      "chip": "ym2612"
    },
    {
      "channel": 2,
      "note": 85,
      "start": 29.0298,
      "duration": 0.3146,
      "velocity": 107,
      "chip": "ym2612"
    },
    {
      "channel": 4,
      "note": 61,
      "start": 29.0304,
      "duration": 0.229,
      "velocity": 105,
      "chip": "ym2612"
    },
    {
      "channel": 1,
      "note": 85,
      "start": 29.1412,
      "duration": 0.5909,
      "velocity": 107,
      "chip": "ym2612"
    },
    {
      "channel": 3,
      "note": 67,
      "start": 29.1435,
      "duration": 0.2015,
      "velocity": 127,
      "chip": "ym2612"
    },
    {
      "channel": 4,
      "note": 61,
      "start": 29.2596,
      "duration": 0.2137,
      "velocity": 105,
      "chip": "ym2612"
    },
    {
      "channel": 2,
      "note": 85,
      "start": 29.3446,
      "duration": 0.603,
      "velocity": 107,
      "chip": "ym2612"
    },
    {
      "channel": 3,
      "note": 67,
      "start": 29.3451,
      "duration": 0.2118,
      "velocity": 127,
      "chip": "ym2612"
    },
    {
      "channel": 0,
      "note": 59,
      "start": 29.4695,
      "duration": 0.2604,
      "velocity": 117,
      "chip": "ym2612"
    },
    {
      "channel": 4,
      "note": 59,
      "start": 29.4735,
      "duration": 0.084,
      "velocity": 105,
      "chip": "ym2612"
    },
    {
      "channel": 3,
      "note": 67,
      "start": 29.5571,
      "duration": 0.1756,
      "velocity": 127,
      "chip": "ym2612"
    },
    {
      "channel": 4,
      "note": 56,
      "start": 29.5577,
      "duration": 0.1771,
      "velocity": 105,
      "chip": "ym2612"
    },
    {
      "channel": 0,
      "note": 59,
      "start": 29.7301,
      "duration": 0.2132,
      "velocity": 117,
      "chip": "ym2612"
    },
    {
      "channel": 1,
      "note": 85,
      "start": 29.7322,
      "duration": 0.2132,
      "velocity": 107,
      "chip": "ym2612"
    },
    {
      "channel": 3,
      "note": 67,
      "start": 29.7328,
      "duration": 0.2153,
      "velocity": 127,
      "chip": "ym2612"
    },
    {
      "channel": 4,
      "note": 47,
      "start": 29.735,
      "duration": 0.2137,
      "velocity": 105,
      "chip": "ym2612"
    },
    {
      "channel": 0,
      "note": 60,
      "start": 29.9434,
      "duration": 0.1826,
      "velocity": 117,
      "chip": "ym2612"
    },
    {
      "channel": 1,
      "note": 83,
      "start": 29.9455,
      "duration": 0.0847,
      "velocity": 107,
      "chip": "ym2612"
    },
    {
      "channel": 2,
      "note": 85,
      "start": 29.9477,
      "duration": 0.1811,
      "velocity": 107,
      "chip": "ym2612"
    },
    {
      "channel": 3,
      "note": 67,
      "start": 29.9483,
      "duration": 0.181,
      "velocity": 127,
      "chip": "ym2612"
    },
    {
      "channel": 4,
      "note": 48,
      "start": 29.9488,
      "duration": 0.1827,
      "velocity": 105,
      "chip": "ym2612"
    },
    {
      "channel": 1,
      "note": 80,
      "start": 30.0304,
      "duration": 0.0963,
      "velocity": 107,
      "chip": "ym2612"
    },
    {
      "channel": 0,
      "note": 61,
      "start": 30.1263,
      "duration": 0.3165,
      "velocity": 117,
      "chip": "ym2612"
    },
    {
      "channel": 1,
      "note": 83,
      "start": 30.1268,
      "duration": 0.1827,
      "velocity": 107,
      "chip": "ym2612"
    },
    {
      "channel": 2,
      "note": 83,
      "start": 30.1289,
      "duration": 0.085,
      "velocity": 107,
      "chip": "ym2612"
    },
    {
      "channel": 3,
      "note": 67,
      "start": 30.1295,
      "duration": 0.1811,
      "velocity": 127,
      "chip": "ym2612"
    },
    {
      "channel": 4,
      "note": 49,
      "start": 30.1317,
      "duration": 0.3139,
      "velocity": 105,
      "chip": "ym2612"
    },
    {
      "channel": 2,
      "note": 80,
      "start": 30.2141,
      "duration": 0.0959,
      "velocity": 107,
      "chip": "ym2612"
    },
    {
      "channel": 1,
      "note": 85,
      "start": 30.3096,
      "duration": 0.1337,
      "velocity": 107,
      "chip": "ym2612"
    },
    {
      "channel": 2,
      "note": 83,
      "start": 30.3102,
      "duration": 0.2211,
      "velocity": 107,
      "chip": "ym2612"
    },
    {
      "channel": 3,
      "note": 67,
      "start": 30.3108,
      "duration": 0.221,
      "velocity": 127,
      "chip": "ym2612"
    },
    {
      "channel": 0,
      "note": 49,
      "start": 30.443,
      "duration": 0.7856,
      "velocity": 117,
      "chip": "ym2612"
    },
    {
      "channel": 1,
      "note": 73,
      "start": 30.4435,
      "duration": 0.9717,
      "velocity": 107,
      "chip": "ym2612"
    },
    {
      "channel": 4,
      "note": 49,
      "start": 30.4458,
      "duration": 0.0866,
      "velocity": 105,
      "chip": "ym2612"
    },
    {
      "channel": 2,
      "note": 85,
      "start": 30.5315,
      "duration": 0.0855,
      "velocity": 107,
      "chip": "ym2612"
    },
    {
      "channel": 3,
      "note": 67,
      "start": 30.532,
      "duration": 0.1964,
      "velocity": 127,
      "chip": "ym2612"
    },
    {
      "channel": 4,
      "note": 59,
      "start": 30.5325,
      "duration": 0.085,
      "velocity": 105,
      "chip": "ym2612"
    },
    {
      "channel": 2,
      "note": 73,
      "start": 30.6171,
      "duration": 1.2966,
      "velocity": 107,
      "chip": "ym2612"
    },
    {
      "channel": 4,
      "note": 61,
      "start": 30.6178,
      "duration": 0.2273,
      "velocity": 105,
      "chip": "ym2612"
    },
    {
      "channel": 3,
      "note": 67,
      "start": 30.7286,
      "duration": 0.2131,
      "velocity": 127,
      "chip": "ym2612"
    },
    {
      "channel": 4,
      "note": 61,
      "start": 30.8452,
      "duration": 0.2128,
      "velocity": 105,
      "chip": "ym2612"
    },
    {
      "channel": 3,
      "note": 67,
      "start": 30.9419,
      "duration": 0.2009,
      "velocity": 127,
      "chip": "ym2612"
    },
    {
      "channel": 4,
      "note": 59,
      "start": 31.0582,
      "duration": 0.0851,
      "velocity": 105,
      "chip": "ym2612"
    },
    {
      "channel": 3,
      "note": 67,
      "start": 31.1429,
      "duration": 0.1732,
      "velocity": 127,
      "chip": "ym2612"
    },
    {
      "channel": 4,
      "note": 56,
      "start": 31.1435,
      "duration": 0.1747,
      "velocity": 105,
      "chip": "ym2612"
    },
    {
      "channel": 0,
      "note": 47,
      "start": 31.2287,
      "duration": 0.2997,
      "velocity": 117,
      "chip": "ym2612"
    },
    {
      "channel": 3,
      "note": 67,
      "start": 31.3163,
      "duration": 0.2133,
      "velocity": 127,
      "chip": "ym2612"
    },
    {
      "channel": 4,
      "note": 47,
      "start": 31.3185,
      "duration": 0.2117,
      "velocity": 105,
      "chip": "ym2612"
    },
    {
      "channel": 1,
      "note": 80,
      "start": 31.4155,
      "duration": 0.1135,
      "velocity": 107,
      "chip": "ym2612"
    },
    {
      "channel": 0,
      "note": 48,
      "start": 31.5285,
      "duration": 0.1833,
      "velocity": 117,
      "chip": "ym2612"
    },
    {
      "channel": 1,
      "note": 83,
      "start": 31.5291,
      "duration": 0.086,
      "velocity": 107,
      "chip": "ym2612"
    },
    {
      "channel": 3,
      "note": 67,
      "start": 31.5298,
      "duration": 0.1834,
      "velocity": 127,
      "chip": "ym2612"
    },
    {
      "channel": 4,
      "note": 48,
      "start": 31.5303,
      "duration": 0.1849,
      "velocity": 105,
      "chip": "ym2612"
    },
    {
      "channel": 1,
      "note": 80,
      "start": 31.6153,
      "duration": 0.0972,
      "velocity": 107,
      "chip": "ym2612"
    },
    {
      "channel": 0,
      "note": 49,
      "start": 31.712,
      "duration": 0.3166,
      "velocity": 117,
      "chip": "ym2612"
    },
    {
      "channel": 1,
      "note": 83,
      "start": 31.7126,
      "duration": 0.3166,
      "velocity": 107,
      "chip": "ym2612"
    },
    {
      "channel": 3,
      "note": 67,
      "start": 31.7133,
      "duration": 0.2009,
      "velocity": 127,
      "chip": "ym2612"
    },
    {
      "channel": 4,
      "note": 49,
      "start": 31.7155,
      "duration": 0.316,
      "velocity": 105,
      "chip": "ym2612"
    },
    {
      "channel": 2,
      "note": 83,
      "start": 31.9139,
      "duration": 0.2875,
      "velocity": 107,
      "chip": "ym2612"
    },
    {
      "channel": 3,
      "note": 67,
      "start": 31.9144,
      "duration": 0.2028,
      "velocity": 127,
      "chip": "ym2612"
    },
    {
      "channel": 0,
      "note": 49,
      "start": 32.0289,
      "duration": 0.613,
      "velocity": 117,
      "chip": "ym2612"
    },
    {
      "channel": 1,
      "note": 85,
      "start": 32.0294,
      "duration": 0.2837,
      "velocity": 107,
      "chip": "ym2612"
    },
    {
      "channel": 4,
      "note": 49,
      "start": 32.0317,
      "duration": 0.0861,
      "velocity": 105,
      "chip": "ym2612"
    },
    {
      "channel": 3,
      "note": 67,
      "start": 32.1173,
      "duration": 0.198,
      "velocity": 127,
      "chip": "ym2612"
    },
    {
      "channel": 4,
      "note": 59,
      "start": 32.1179,
      "duration": 0.084,
      "velocity": 105,
      "chip": "ym2612"
    },
    {
      "channel": 2,
      "note": 85,
      "start": 32.2015,
      "duration": 0.3322,
      "velocity": 107,
      "chip": "ym2612"
    },
    {
      "channel": 4,
      "note": 61,
      "start": 32.2021,
      "duration": 0.246,
      "velocity": 105,
      "chip": "ym2612"
    },
    {
      "channel": 1,
      "note": 85,
      "start": 32.3132,
      "duration": 0.3307,
      "velocity": 107,
      "chip": "ym2612"
    },
    {
      "channel": 3,
      "note": 67,
      "start": 32.3155,
      "duration": 0.2187,
      "velocity": 127,
      "chip": "ym2612"
    },
    {
      "channel": 4,
      "note": 61,
      "start": 32.4483,
      "duration": 0.1996,
      "velocity": 105,
      "chip": "ym2612"
    },
    {
      "channel": 2,
      "note": 85,
      "start": 32.5338,
      "duration": 0.2843,
      "velocity": 107,
      "chip": "ym2612"
    },
    {
      "channel": 3,
      "note": 67,
      "start": 32.5343,
      "duration": 0.1973,
      "velocity": 127,
      "chip": "ym2612"
    },
    {
      "channel": 0,
      "note": 59,
      "start": 32.642,
      "duration": 0.2739,
      "velocity": 117,
      "chip": "ym2612"
    },
    {
      "channel": 1,
      "note": 85,
      "start": 32.6441,
      "duration": 0.2739,
      "velocity": 107,
      "chip": "ym2612"
    },
    {
      "channel": 4,
      "note": 59,
      "start": 32.6481,
      "duration": 0.0841,
      "velocity": 105,
      "chip": "ym2612"
    },
    {
      "channel": 3,
      "note": 67,
      "start": 32.7317,
      "duration": 0.1885,
      "velocity": 127,
      "chip": "ym2612"
    },
    {
      "channel": 4,
      "note": 56,
      "start": 32.7323,
      "duration": 0.1901,
      "velocity": 105,
      "chip": "ym2612"
    },
    {
      "channel": 2,
      "note": 85,
      "start": 32.8183,
      "duration": 0.2987,
      "velocity": 107,
      "chip": "ym2612"
    },
    {
      "channel": 0,
      "note": 59,
      "start": 32.916,
      "duration": 0.1982,
      "velocity": 117,
      "chip": "ym2612"
    },
    {
      "channel": 1,
      "note": 85,
      "start": 32.9182,
      "duration": 0.0871,
      "velocity": 107,
      "chip": "ym2612"
    },
    {
      "channel": 3,
      "note": 67,
      "start": 32.9205,
      "duration": 0.197,
      "velocity": 127,
      "chip": "ym2612"
    },
    {
      "channel": 4,
      "note": 47,
      "start": 32.9226,
      "duration": 0.1954,
      "velocity": 105,
      "chip": "ym2612"
    },
    {
      "channel": 1,
      "note": 80,
      "start": 33.0054,
      "duration": 0.1094,
      "velocity": 107,
      "chip": "ym2612"
    },
    {
      "channel": 0,
      "note": 60,
      "start": 33.1144,
      "duration": 0.1838,
      "velocity": 117,
      "chip": "ym2612"
    },
    {
      "channel": 1,
      "note": 83,
      "start": 33.1149,
      "duration": 0.0859,
      "velocity": 107,
      "chip": "ym2612"
    },
    {
      "channel": 2,
      "note": 85,
      "start": 33.1171,
      "duration": 0.0843,
      "velocity": 107,
      "chip": "ym2612"
    },
    {
      "channel": 3,
      "note": 67,
      "start": 33.1176,
      "duration": 0.1822,
      "velocity": 127,
      "chip": "ym2612"
    },
    {
      "channel": 4,
      "note": 48,
      "start": 33.1182,
      "duration": 0.1838,
      "velocity": 105,
      "chip": "ym2612"
    },
    {
      "channel": 1,
      "note": 80,
      "start": 33.201,
      "duration": 0.0978,
      "velocity": 107,
      "chip": "ym2612"
    },
    {
      "channel": 2,
      "note": 80,
      "start": 33.2015,
      "duration": 0.0978,
      "velocity": 107,
      "chip": "ym2612"
    },
    {
      "channel": 0,
      "note": 61,
      "start": 33.2984,
      "duration": 0.3176,
      "velocity": 117,
      "chip": "ym2612"
    },
    {
      "channel": 1,
      "note": 83,
      "start": 33.2989,
      "duration": 0.2004,
      "velocity": 107,
      "chip": "ym2612"
    },
    {
      "channel": 2,
      "note": 83,
      "start": 33.2995,
      "duration": 0.0986,
      "velocity": 107,
      "chip": "ym2612"
    },
    {
      "channel": 3,
      "note": 67,
      "start": 33.3001,
      "duration": 0.2004,
      "velocity": 127,
      "chip": "ym2612"
    },
    {
      "channel": 4,
      "note": 49,
      "start": 33.3022,
      "duration": 0.3165,
      "velocity": 105,
      "chip": "ym2612"
    },
    {
      "channel": 2,
      "note": 80,
      "start": 33.3983,
      "duration": 0.1016,
      "velocity": 107,
      "chip": "ym2612"
    },
    {
      "channel": 1,
      "note": 85,
      "start": 33.4995,
      "duration": 0.1171,
      "velocity": 107,
      "chip": "ym2612"
    },
    {
      "channel": 2,
      "note": 83,
      "start": 33.5,
      "duration": 0.2042,
      "velocity": 107,
      "chip": "ym2612"
    },
    {
      "channel": 3,
      "note": 67,
      "start": 33.5006,
      "duration": 0.2041,
      "velocity": 127,
      "chip": "ym2612"
    },
    {
      "channel": 0,
      "note": 49,
      "start": 33.6161,
      "duration": 0.7976,
      "velocity": 117,
      "chip": "ym2612"
    },
    {
      "channel": 1,
      "note": 73,
      "start": 33.6167,
      "duration": 1.2847,
      "velocity": 107,
      "chip": "ym2612"
    },
    {
      "channel": 4,
      "note": 49,
      "start": 33.6189,
      "duration": 0.0864,
      "velocity": 105,
      "chip": "ym2612"
    },
    {
      "channel": 2,
      "note": 85,
      "start": 33.7044,
      "duration": 0.0839,
      "velocity": 107,
      "chip": "ym2612"
    },
    {
      "channel": 3,
      "note": 67,
      "start": 33.7049,
      "duration": 0.2117,
      "velocity": 127,
      "chip": "ym2612"
    },
    {
      "channel": 4,
      "note": 59,
      "start": 33.7055,
      "duration": 0.0833,
      "velocity": 105,
      "chip": "ym2612"
    },
    {
      "channel": 2,
      "note": 73,
      "start": 33.7884,
      "duration": 1.295,
      "velocity": 107,
      "chip": "ym2612"
    },
    {
      "channel": 4,
      "note": 61,
      "start": 33.789,
      "duration": 0.2458,
      "velocity": 105,
      "chip": "ym2612"
    },
    {
      "channel": 3,
      "note": 67,
      "start": 33.9168,
      "duration": 0.2022,
      "velocity": 127,
      "chip": "ym2612"
    },
    {
      "channel": 4,
      "note": 61,
      "start": 34.035,
      "duration": 0.1956,
      "velocity": 105,
      "chip": "ym2612"
    },
    {
      "channel": 3,
      "note": 67,
      "start": 34.1191,
      "duration": 0.1963,
      "velocity": 127,
      "chip": "ym2612"
    },
    {
      "channel": 4,
      "note": 59,
      "start": 34.2308,
      "duration": 0.0852,
      "velocity": 105,
      "chip": "ym2612"
    },
    {
      "channel": 3,
      "note": 67,
      "start": 34.3156,
      "duration": 0.1852,
      "velocity": 127,
      "chip": "ym2612"
    },
    {
      "channel": 4,
      "note": 56,
      "start": 34.3162,
      "duration": 0.1868,
      "velocity": 105,
      "chip": "ym2612"
    },
    {
      "channel": 0,
      "note": 47,
      "start": 34.414,
      "duration": 0.2853,
      "velocity": 117,
      "chip": "ym2612"
    },
    {
      "channel": 3,
      "note": 67,
      "start": 34.501,
      "duration": 0.1989,
      "velocity": 127,
      "chip": "ym2612"
    },
    {
      "channel": 4,
      "note": 47,
      "start": 34.5031,
      "duration": 0.1974,
      "velocity": 105,
      "chip": "ym2612"
    },
    {
      "channel": 0,
      "note": 48,
      "start": 34.6994,
      "duration": 0.1999,
      "velocity": 117,
      "chip": "ym2612"
    },
    {
      "channel": 3,
      "note": 67,
      "start": 34.7001,
      "duration": 0.202,
      "velocity": 127,
      "chip": "ym2612"
    },
    {
      "channel": 4,
      "note": 48,
      "start": 34.7006,
      "duration": 0.2036,
      "velocity": 105,
      "chip": "ym2612"
    },
    {
      "channel": 0,
      "note": 49,
      "start": 34.8995,
      "duration": 0.299,
      "velocity": 117,
      "chip": "ym2612"
    },
    {
      "channel": 1,
      "note": 83,
      "start": 34.9016,
      "duration": 0.2974,
      "velocity": 107,
      "chip": "ym2612"
    },
    {
      "channel": 3,
      "note": 67,
      "start": 34.9023,
      "duration": 0.1817,
      "velocity": 127,
      "chip": "ym2612"
    },
    {
      "channel": 4,
      "note": 49,
      "start": 34.9044,
      "duration": 0.2968,
      "velocity": 105,
      "chip": "ym2612"
    },
    {
      "channel": 2,
      "note": 83,
      "start": 35.0836,
      "duration": 0.2988,
      "velocity": 107,
      "chip": "ym2612"
    },
    {
      "channel": 3,
      "note": 67,
      "start": 35.0842,
      "duration": 0.2017,
      "velocity": 127,
      "chip": "ym2612"
    },
    {
      "channel": 0,
      "note": 49,
      "start": 35.1986,
      "duration": 0.6115,
      "velocity": 117,
      "chip": "ym2612"
    },
    {
      "channel": 1,
      "note": 85,
      "start": 35.1991,
      "duration": 0.2994,
      "velocity": 107,
      "chip": "ym2612"
    },
    {
      "channel": 4,
      "note": 49,
      "start": 35.2014,
      "duration": 0.085,
      "velocity": 105,
      "chip": "ym2612"
    },
    {
      "channel": 3,
      "note": 67,
      "start": 35.286,
      "duration": 0.2148,
      "velocity": 127,
      "chip": "ym2612"
    },
    {
      "channel": 4,
      "note": 59,
      "start": 35.2866,
      "duration": 0.0963,
      "velocity": 105,
      "chip": "ym2612"
    },
    {
      "channel": 2,
      "note": 85,
      "start": 35.3825,
      "duration": 0.3193,
      "velocity": 107,
      "chip": "ym2612"
    },
    {
      "channel": 4,
      "note": 61,
      "start": 35.3831,
      "duration": 0.2339,
      "velocity": 105,
      "chip": "ym2612"
    },
    {
      "channel": 1,
      "note": 85,
      "start": 35.4987,
      "duration": 0.5856,
      "velocity": 107,
      "chip": "ym2612"
    },
    {
      "channel": 3,
      "note": 67,
      "start": 35.501,
      "duration": 0.2014,
      "velocity": 127,
      "chip": "ym2612"
    },
    {
      "channel": 4,
      "note": 61,
      "start": 35.6172,
      "duration": 0.1969,
      "velocity": 105,
      "chip": "ym2612"
    },
    {
      "channel": 2,
      "note": 85,
      "start": 35.702,
      "duration": 0.581,
      "velocity": 107,
      "chip": "ym2612"
    },
    {
      "channel": 3,
      "note": 67,
      "start": 35.7025,
      "duration": 0.2064,
      "velocity": 127,
      "chip": "ym2612"
    },
    {
      "channel": 0,
      "note": 59,
      "start": 35.8103,
      "duration": 0.2719,
      "velocity": 117,
      "chip": "ym2612"
    },
    {
      "channel": 4,
      "note": 59,
      "start": 35.8143,
      "duration": 0.0951,
      "velocity": 105,
      "chip": "ym2612"
    },
    {
      "channel": 3,
      "note": 67,
      "start": 35.9091,
      "duration": 0.1759,
      "velocity": 127,
      "chip": "ym2612"
    },
    {
      "channel": 4,
      "note": 56,
      "start": 35.9096,
      "duration": 0.1775,
      "velocity": 105,
      "chip": "ym2612"
    },
    {
      "channel": 0,
      "note": 59,
      "start": 36.0824,
      "duration": 0.1962,
      "velocity": 117,
      "chip": "ym2612"
    },
    {
      "channel": 1,
      "note": 85,
      "start": 36.0845,
      "duration": 0.1963,
      "velocity": 107,
      "chip": "ym2612"
    },
    {
      "channel": 3,
      "note": 67,
      "start": 36.0851,
      "duration": 0.1983,
      "velocity": 127,
      "chip": "ym2612"
    },
    {
      "channel": 4,
      "note": 47,
      "start": 36.0872,
      "duration": 0.1968,
      "velocity": 105,
      "chip": "ym2612"
    },
    {
      "channel": 0,
      "note": 60,
      "start": 36.2788,
      "duration": 0.1998,
      "velocity": 117,
      "chip": "ym2612"
    },
    {
      "channel": 1,
      "note": 83,
      "start": 36.2809,
      "duration": 0.0975,
      "velocity": 107,
      "chip": "ym2612"
    },
    {
      "channel": 2,
      "note": 85,
      "start": 36.283,
      "duration": 0.1983,
      "velocity": 107,
      "chip": "ym2612"
    },
    {
      "channel": 3,
      "note": 67,
      "start": 36.2836,
      "duration": 0.1983,
      "velocity": 127,
      "chip": "ym2612"
    },
    {
      "channel": 4,
      "note": 48,
      "start": 36.2842,
      "duration": 0.1998,
      "velocity": 105,
      "chip": "ym2612"
    },
    {
      "channel": 1,
      "note": 80,
      "start": 36.3785,
      "duration": 0.1007,
      "velocity": 107,
      "chip": "ym2612"
    },
    {
      "channel": 0,
      "note": 61,
      "start": 36.4788,
      "duration": 0.2988,
      "velocity": 117,
      "chip": "ym2612"
    },
    {
      "channel": 1,
      "note": 83,
      "start": 36.4794,
      "duration": 0.1817,
      "velocity": 107,
      "chip": "ym2612"
    },
    {
      "channel": 2,
      "note": 83,
      "start": 36.4815,
      "duration": 0.0836,
      "velocity": 107,
      "chip": "ym2612"
    },
    {
      "channel": 3,
      "note": 67,
      "start": 36.482,
      "duration": 0.1801,
      "velocity": 127,
      "chip": "ym2612"
    },
    {
      "channel": 4,
      "note": 49,
      "start": 36.4842,
      "duration": 0.2962,
      "velocity": 105,
      "chip": "ym2612"
    },
    {
      "channel": 2,
      "note": 80,
      "start": 36.5652,
      "duration": 0.0963,
      "velocity": 107,
      "chip": "ym2612"
    },
    {
      "channel": 1,
      "note": 85,
      "start": 36.6612,
      "duration": 0.1171,
      "velocity": 107,
      "chip": "ym2612"
    },
    {
      "channel": 2,
      "note": 83,
      "start": 36.6617,
      "duration": 0.2168,
      "velocity": 107,
      "chip": "ym2612"
    },
    {
      "channel": 3,
      "note": 67,
      "start": 36.6623,
      "duration": 0.2167,
      "velocity": 127,
      "chip": "ym2612"
    },
    {
      "channel": 0,
      "note": 49,
      "start": 36.7778,
      "duration": 0.7983,
      "velocity": 117,
      "chip": "ym2612"
    },
    {
      "channel": 1,
      "note": 73,
      "start": 36.7783,
      "duration": 0.9721,
      "velocity": 107,
      "chip": "ym2612"
    },
    {
      "channel": 4,
      "note": 49,
      "start": 36.7806,
      "duration": 0.099,
      "velocity": 105,
      "chip": "ym2612"
    },
    {
      "channel": 2,
      "note": 85,
      "start": 36.8787,
      "duration": 0.0858,
      "velocity": 107,
      "chip": "ym2612"
    },
    {
      "channel": 3,
      "note": 67,
      "start": 36.8792,
      "duration": 0.1967,
      "velocity": 127,
      "chip": "ym2612"
    },
    {
      "channel": 4,
      "note": 59,
      "start": 36.8798,
      "duration": 0.0853,
      "velocity": 105,
      "chip": "ym2612"
    },
    {
      "channel": 2,
      "note": 73,
      "start": 36.9646,
      "duration": 1.2803,
      "velocity": 107,
      "chip": "ym2612"
    },
    {
      "channel": 4,
      "note": 61,
      "start": 36.9653,
      "duration": 0.2273,
      "velocity": 105,
      "chip": "ym2612"
    },
    {
      "channel": 3,
      "note": 67,
      "start": 37.0761,
      "duration": 0.2012,
      "velocity": 127,
      "chip": "ym2612"
    },
    {
      "channel": 4,
      "note": 61,
      "start": 37.1927,
      "duration": 0.2133,
      "velocity": 105,
      "chip": "ym2612"
    },
    {
      "channel": 3,
      "note": 67,
      "start": 37.2775,
      "duration": 0.2132,
      "velocity": 127,
      "chip": "ym2612"
    },
    {
      "channel": 4,
      "note": 59,
      "start": 37.4062,
      "duration": 0.0851,
      "velocity": 105,
      "chip": "ym2612"
    },
    {
      "channel": 3,
      "note": 67,
      "start": 37.4909,
      "duration": 0.1721,
      "velocity": 127,
      "chip": "ym2612"
    },
    {
      "channel": 4,
      "note": 56,
      "start": 37.4915,
      "duration": 0.1737,
      "velocity": 105,
      "chip": "ym2612"
    },
    {
      "channel": 0,
      "note": 47,
      "start": 37.5762,
      "duration": 0.2996,
      "velocity": 117,
      "chip": "ym2612"
    },
    {
      "channel": 3,
      "note": 67,
      "start": 37.6632,
      "duration": 0.2137,
      "velocity": 127,
      "chip": "ym2612"
    },
    {
      "channel": 4,
      "note": 47,
      "start": 37.6654,
      "duration": 0.2122,
      "velocity": 105,
      "chip": "ym2612"
    },
    {
      "channel": 1,
      "note": 80,
      "start": 37.7506,
      "duration": 0.1258,
      "velocity": 107,
      "chip": "ym2612"
    },
    {
      "channel": 0,
      "note": 48,
      "start": 37.876,
      "duration": 0.185,
      "velocity": 117,
      "chip": "ym2612"
    },
    {
      "channel": 1,
      "note": 83,
      "start": 37.8765,
      "duration": 0.0869,
      "velocity": 107,
      "chip": "ym2612"
    },
    {
      "channel": 3,
      "note": 67,
      "start": 37.8772,
      "duration": 0.1851,
      "velocity": 127,
      "chip": "ym2612"
    },
    {
      "channel": 4,
      "note": 48,
      "start": 37.8777,
      "duration": 0.1867,
      "velocity": 105,
      "chip": "ym2612"
    },
    {
      "channel": 1,
      "note": 80,
      "start": 37.9636,
      "duration": 0.098,
      "velocity": 107,
      "chip": "ym2612"
    },
    {
      "channel": 0,
      "note": 49,
      "start": 38.0612,
      "duration": 0.3154,
      "velocity": 117,
      "chip": "ym2612"
    },
    {
      "channel": 1,
      "note": 83,
      "start": 38.0617,
      "duration": 0.3154,
      "velocity": 107,
      "chip": "ym2612"
    },
    {
      "channel": 3,
      "note": 67,
      "start": 38.0624,
      "duration": 0.183,
      "velocity": 127,
      "chip": "ym2612"
    },
    {
      "channel": 4,
      "note": 49,
      "start": 38.0646,
      "duration": 0.3147,
      "velocity": 105,
      "chip": "ym2612"
    },
    {
      "channel": 2,
      "note": 83,
      "start": 38.2451,
      "duration": 0.3058,
      "velocity": 107,
      "chip": "ym2612"
    },
    {
      "channel": 3,
      "note": 67,
      "start": 38.2456,
      "duration": 0.2205,
      "velocity": 127,
      "chip": "ym2612"
    },
    {
      "channel": 0,
      "note": 49,
      "start": 38.3767,
      "duration": 0.6143,
      "velocity": 117,
      "chip": "ym2612"
    },
    {
      "channel": 1,
      "note": 85,
      "start": 38.3773,
      "duration": 0.2853,
      "velocity": 107,
      "chip": "ym2612"
    },
    {
      "channel": 4,
      "note": 49,
      "start": 38.3795,
      "duration": 0.0872,
      "velocity": 105,
      "chip": "ym2612"
    },
    {
      "channel": 3,
      "note": 67,
      "start": 38.4663,
      "duration": 0.1986,
      "velocity": 127,
      "chip": "ym2612"
    },
    {
      "channel": 4,
      "note": 59,
      "start": 38.4669,
      "duration": 0.0846,
      "velocity": 105,
      "chip": "ym2612"
    },
    {
      "channel": 2,
      "note": 85,
      "start": 38.5511,
      "duration": 0.327,
      "velocity": 107,
      "chip": "ym2612"
    },
    {
      "channel": 4,
      "note": 61,
      "start": 38.5517,
      "duration": 0.2293,
      "velocity": 105,
      "chip": "ym2612"
    },
    {
      "channel": 1,
      "note": 85,
      "start": 38.6628,
      "duration": 0.3303,
      "velocity": 107,
      "chip": "ym2612"
    },
    {
      "channel": 3,
      "note": 67,
      "start": 38.6651,
      "duration": 0.2136,
      "velocity": 127,
      "chip": "ym2612"
    },
    {
      "channel": 4,
      "note": 61,
      "start": 38.7813,
      "duration": 0.2158,
      "velocity": 105,
      "chip": "ym2612"
    },
    {
      "channel": 2,
      "note": 85,
      "start": 38.8783,
      "duration": 0.2884,
      "velocity": 107,
      "chip": "ym2612"
    },
    {
      "channel": 3,
      "note": 67,
      "start": 38.8788,
      "duration": 0.2018,
      "velocity": 127,
      "chip": "ym2612"
    },
    {
      "channel": 0,
      "note": 59,
      "start": 38.9912,
      "duration": 0.2612,
      "velocity": 117,
      "chip": "ym2612"
    },
    {
      "channel": 1,
      "note": 85,
      "start": 38.9933,
      "duration": 0.2612,
      "velocity": 107,
      "chip": "ym2612"
    },
    {
      "channel": 4,
      "note": 59,
      "start": 38.9973,
      "duration": 0.0839,
      "velocity": 105,
      "chip": "ym2612"
    },
    {
      "channel": 3,
      "note": 67,
      "start": 39.0808,
      "duration": 0.1761,
      "velocity": 127,
      "chip": "ym2612"
    },
    {
      "channel": 4,
      "note": 56,
      "start": 39.0814,
      "duration": 0.1776,
      "velocity": 105,
      "chip": "ym2612"
    },
    {
      "channel": 2,
      "note": 85,
      "start": 39.1668,
      "duration": 0.3018,
      "velocity": 107,
      "chip": "ym2612"
    },
    {
      "channel": 0,
      "note": 59,
      "start": 39.2526,
      "duration": 0.2132,
      "velocity": 117,
      "chip": "ym2612"
    },
    {
      "channel": 1,
      "note": 85,
      "start": 39.2547,
      "duration": 0.0975,
      "velocity": 107,
      "chip": "ym2612"
    },
    {
      "channel": 3,
      "note": 67,
      "start": 39.257,
      "duration": 0.2122,
      "velocity": 127,
      "chip": "ym2612"
    },
    {
      "channel": 4,
      "note": 47,
      "start": 39.2592,
      "duration": 0.2105,
      "velocity": 105,
      "chip": "ym2612"
    },
    {
      "channel": 1,
      "note": 80,
      "start": 39.3523,
      "duration": 0.1141,
      "velocity": 107,
      "chip": "ym2612"
    },
    {
      "channel": 0,
      "note": 60,
      "start": 39.4661,
      "duration": 0.1837,
      "velocity": 117,
      "chip": "ym2612"
    },
    {
      "channel": 1,
      "note": 83,
      "start": 39.4666,
      "duration": 0.086,
      "velocity": 107,
      "chip": "ym2612"
    },
    {
      "channel": 2,
      "note": 85,
      "start": 39.4687,
      "duration": 0.0844,
      "velocity": 107,
      "chip": "ym2612"
    },
    {
      "channel": 3,
      "note": 67,
      "start": 39.4693,
      "duration": 0.1821,
      "velocity": 127,
      "chip": "ym2612"
    },
    {
      "channel": 4,
      "note": 48,
      "start": 39.4699,
      "duration": 0.1837,
      "velocity": 105,
      "chip": "ym2612"
    },
    {
      "channel": 1,
      "note": 80,
      "start": 39.5528,
      "duration": 0.0975,
      "velocity": 107,
      "chip": "ym2612"
    },
    {
      "channel": 2,
      "note": 80,
      "start": 39.5533,
      "duration": 0.0975,
      "velocity": 107,
      "chip": "ym2612"
    },
    {
      "channel": 0,
      "note": 61,
      "start": 39.6499,
      "duration": 0.3179,
      "velocity": 117,
      "chip": "ym2612"
    },
    {
      "channel": 1,
      "note": 83,
      "start": 39.6504,
      "duration": 0.2008,
      "velocity": 107,
      "chip": "ym2612"
    },
    {
      "channel": 2,
      "note": 83,
      "start": 39.651,
      "duration": 0.0866,
      "velocity": 107,
      "chip": "ym2612"
    },
    {
      "channel": 3,
      "note": 67,
      "start": 39.6516,
      "duration": 0.2007,
      "velocity": 127,
      "chip": "ym2612"
    },
    {
      "channel": 4,
      "note": 49,
      "start": 39.6537,
      "duration": 0.3169,
      "velocity": 105,
      "chip": "ym2612"
    },
    {
      "channel": 2,
      "note": 80,
      "start": 39.7378,
      "duration": 0.1139,
      "velocity": 107,
      "chip": "ym2612"
    },
    {
      "channel": 1,
      "note": 85,
      "start": 39.8513,
      "duration": 0.1171,
      "velocity": 107,
      "chip": "ym2612"
    },
    {
      "channel": 2,
      "note": 83,
      "start": 39.8519,
      "duration": 0.2053,
      "velocity": 107,
      "chip": "ym2612"
    },
    {
      "channel": 3,
      "note": 67,
      "start": 39.8525,
      "duration": 0.2053,
      "velocity": 127,
      "chip": "ym2612"
    },
    {
      "channel": 0,
      "note": 49,
      "start": 39.968,
      "duration": 0.7869,
      "velocity": 117,
      "chip": "ym2612"
    },
    {
      "channel": 1,
      "note": 73,
      "start": 39.9686,
      "duration": 1.2672,
      "velocity": 114,
      "chip": "ym2612"
    },
    {
      "channel": 4,
      "note": 49,
      "start": 39.9708,
      "duration": 0.0875,
      "velocity": 105,
      "chip": "ym2612"
    },
    {
      "channel": 2,
      "note": 85,
      "start": 40.0574,
      "duration": 0.0851,
      "velocity": 107,
      "chip": "ym2612"
    },
    {
      "channel": 3,
      "note": 67,
      "start": 40.058,
      "duration": 0.196,
      "velocity": 127,
      "chip": "ym2612"
    },
    {
      "channel": 4,
      "note": 59,
      "start": 40.0585,
      "duration": 0.0846,
      "velocity": 105,
      "chip": "ym2612"
    },
    {
      "channel": 2,
      "note": 73,
      "start": 40.1427,
      "duration": 1.0952,
      "velocity": 80,
      "chip": "ym2612"
    },
    {
      "channel": 4,
      "note": 61,
      "start": 40.1433,
      "duration": 0.2455,
      "velocity": 105,
      "chip": "ym2612"
    },
    {
      "channel": 3,
      "note": 67,
      "start": 40.2541,
      "duration": 0.2185,
      "velocity": 127,
      "chip": "ym2612"
    },
    {
      "channel": 4,
      "note": 61,
      "start": 40.389,
      "duration": 0.1952,
      "velocity": 105,
      "chip": "ym2612"
    },
    {
      "channel": 3,
      "note": 67,
      "start": 40.4728,
      "duration": 0.1961,
      "velocity": 127,
      "chip": "ym2612"
    },
    {
      "channel": 4,
      "note": 59,
      "start": 40.5844,
      "duration": 0.0851,
      "velocity": 105,
      "chip": "ym2612"
    },
    {
      "channel": 3,
      "note": 67,
      "start": 40.6691,
      "duration": 0.1845,
      "velocity": 127,
      "chip": "ym2612"
    },
    {
      "channel": 4,
      "note": 56,
      "start": 40.6697,
      "duration": 0.186,
      "velocity": 105,
      "chip": "ym2612"
    },
    {
      "channel": 0,
      "note": 47,
      "start": 40.7551,
      "duration": 0.2951,
      "velocity": 117,
      "chip": "ym2612"
    },
    {
      "channel": 3,
      "note": 67,
      "start": 40.8537,
      "duration": 0.1971,
      "velocity": 127,
      "chip": "ym2612"
    },
    {
      "channel": 4,
      "note": 47,
      "start": 40.8558,
      "duration": 0.1955,
      "velocity": 105,
      "chip": "ym2612"
    },
    {
      "channel": 0,
      "note": 48,
      "start": 41.0503,
      "duration": 0.1833,
      "velocity": 117,
      "chip": "ym2612"
    },
    {
      "channel": 3,
      "note": 67,
      "start": 41.051,
      "duration": 0.1875,
      "velocity": 127,
      "chip": "ym2612"
    },
    {
      "channel": 4,
      "note": 48,
      "start": 41.0515,
      "duration": 14.4853,
      "velocity": 102,
      "chip": "ym2612"
    },
    {
      "channel": 0,
      "note": 54,
      "start": 41.2338,
      "duration": 0.3169,
      "velocity": 117,
      "chip": "ym2612"
    },
    {
      "channel": 1,
      "note": 66,
      "start": 41.2359,
      "duration": 0.0975,
      "velocity": 114,
      "chip": "ym2612"
    },
    {
      "channel": 2,
      "note": 54,
      "start": 41.238,
      "duration": 0.1977,
      "velocity": 80,
      "chip": "ym2612"
    },
    {
      "channel": 3,
      "note": 67,
      "start": 41.2386,
      "duration": 0.1977,
      "velocity": 127,
      "chip": "ym2612"
    },
    {
      "channel": 1,
      "note": 69,
      "start": 41.3336,
      "duration": 0.2192,
      "velocity": 114,
      "chip": "ym2612"
    },
    {
      "channel": 2,
      "note": 54,
      "start": 41.4359,
      "duration": 0.2044,
      "velocity": 80,
      "chip": "ym2612"
    },
    {
      "channel": 3,
      "note": 67,
      "start": 41.4365,
      "duration": 0.2044,
      "velocity": 127,
      "chip": "ym2612"
    },
    {
      "channel": 0,
      "note": 54,
      "start": 41.5508,
      "duration": 0.1754,
      "velocity": 117,
      "chip": "ym2612"
    },
    {
      "channel": 1,
      "note": 71,
      "start": 41.553,
      "duration": 0.1754,
      "velocity": 114,
      "chip": "ym2612"
    },
    {
      "channel": 2,
      "note": 64,
      "start": 41.6405,
      "duration": 0.0884,
      "velocity": 80,
      "chip": "ym2612"
    },
    {
      "channel": 3,
      "note": 67,
      "start": 41.6411,
      "duration": 0.2127,
      "velocity": 127,
      "chip": "ym2612"
    },
    {
      "channel": 0,
      "note": 54,
      "start": 41.7264,
      "duration": 0.1246,
      "velocity": 117,
      "chip": "ym2612"
    },
    {
      "channel": 1,
      "note": 72,
      "start": 41.7285,
      "duration": 0.2414,
      "velocity": 114,
      "chip": "ym2612"
    },
    {
      "channel": 2,
      "note": 54,
      "start": 41.7291,
      "duration": 0.1242,
      "velocity": 80,
      "chip": "ym2612"
    },
    {
      "channel": 0,
      "note": 64,
      "start": 41.8512,
      "duration": 0.1165,
      "velocity": 117,
      "chip": "ym2612"
    },
    {
      "channel": 2,
      "note": 64,
      "start": 41.8534,
      "duration": 0.1169,
      "velocity": 80,
      "chip": "ym2612"
    },
    {
      "channel": 3,
      "note": 67,
      "start": 41.854,
      "duration": 0.2029,
      "velocity": 127,
      "chip": "ym2612"
    },
    {
      "channel": 0,
      "note": 66,
      "start": 41.9679,
      "duration": 0.197,
      "velocity": 117,
      "chip": "ym2612"
    },
    {
      "channel": 1,
      "note": 73,
      "start": 41.97,
      "duration": 0.197,
      "velocity": 114,
      "chip": "ym2612"
    },
    {
      "channel": 2,
      "note": 66,
      "start": 41.9706,
      "duration": 0.197,
      "velocity": 80,
      "chip": "ym2612"
    },
    {
      "channel": 3,
      "note": 67,
      "start": 42.0572,
      "duration": 0.1954,
      "velocity": 127,
      "chip": "ym2612"
    },
    {
      "channel": 0,
      "note": 64,
      "start": 42.1651,
      "duration": 0.0852,
      "velocity": 117,
      "chip": "ym2612"
    },
    {
      "channel": 1,
      "note": 76,
      "start": 42.1672,
      "duration": 0.185,
      "velocity": 114,
      "chip": "ym2612"
    },
    {
      "channel": 2,
      "note": 54,
      "start": 42.1678,
      "duration": 0.1849,
      "velocity": 80,
      "chip": "ym2612"
    },
    {
      "channel": 0,
      "note": 61,
      "start": 42.2505,
      "duration": 0.1876,
      "velocity": 117,
      "chip": "ym2612"
    },
    {
      "channel": 3,
      "note": 67,
      "start": 42.2528,
      "duration": 0.1869,
      "velocity": 127,
      "chip": "ym2612"
    },
    {
      "channel": 1,
      "note": 73,
      "start": 42.3523,
      "duration": 0.0863,
      "velocity": 114,
      "chip": "ym2612"
    },
    {
      "channel": 2,
      "note": 54,
      "start": 42.3529,
      "duration": 0.0863,
      "velocity": 80,
      "chip": "ym2612"
    },
    {
      "channel": 0,
      "note": 52,
      "start": 42.4382,
      "duration": 0.1956,
      "velocity": 117,
      "chip": "ym2612"
    },
    {
      "channel": 1,
      "note": 76,
      "start": 42.4388,
      "duration": 0.1956,
      "velocity": 114,
      "chip": "ym2612"
    },
    {
      "channel": 2,
      "note": 64,
      "start": 42.4394,
      "duration": 0.0845,
      "velocity": 80,
      "chip": "ym2612"
    },
    {
      "channel": 3,
      "note": 67,
      "start": 42.4399,
      "duration": 0.1957,
      "velocity": 127,
      "chip": "ym2612"
    },
    {
      "channel": 2,
      "note": 54,
      "start": 42.524,
      "duration": 0.111,
      "velocity": 80,
      "chip": "ym2612"
    },
    {
      "channel": 0,
      "note": 53,
      "start": 42.634,
      "duration": 0.2013,
      "velocity": 117,
      "chip": "ym2612"
    },
    {
      "channel": 1,
      "note": 78,
      "start": 42.6346,
      "duration": 0.2028,
      "velocity": 114,
      "chip": "ym2612"
    },
    {
      "channel": 2,
      "note": 64,
      "start": 42.6351,
      "duration": 0.0878,
      "velocity": 80,
      "chip": "ym2612"
    },
    {
      "channel": 3,
      "note": 67,
      "start": 42.6357,
      "duration": 0.2028,
      "velocity": 127,
      "chip": "ym2612"
    },
    {
      "channel": 2,
      "note": 66,
      "start": 42.7231,
      "duration": 0.1149,
      "velocity": 80,
      "chip": "ym2612"
    },
    {
      "channel": 0,
      "note": 54,
      "start": 42.8354,
      "duration": 0.3003,
      "velocity": 117,
      "chip": "ym2612"
    },
    {
      "channel": 1,
      "note": 78,
      "start": 42.8376,
      "duration": 0.0019,
      "velocity": 114,
      "chip": "ym2612"
    },
    {
      "channel": 2,
      "note": 54,
      "start": 42.8381,
      "duration": 0.1812,
      "velocity": 80,
      "chip": "ym2612"
    },
    {
      "channel": 3,
      "note": 67,
      "start": 42.8387,
      "duration": 0.1812,
      "velocity": 127,
      "chip": "ym2612"
    },
    {
      "channel": 1,
      "note": 81,
      "start": 42.8395,
      "duration": 0.0344,
      "velocity": 114,
      "chip": "ym2612"
    },
    {
      "channel": 1,
      "note": 78,
      "start": 42.8739,
      "duration": 0.0494,
      "velocity": 114,
      "chip": "ym2612"
    },
    {
      "channel": 1,
      "note": 81,
      "start": 42.9233,
      "duration": 0.0372,
      "velocity": 114,
      "chip": "ym2612"
    },
    {
      "channel": 1,
      "note": 78,
      "start": 42.9605,
      "duration": 0.06,
      "velocity": 114,
      "chip": "ym2612"
    },
    {
      "channel": 2,
      "note": 54,
      "start": 43.0195,
      "duration": 0.205,
      "velocity": 80,
      "chip": "ym2612"
    },
    {
      "channel": 3,
      "note": 67,
      "start": 43.02,
      "duration": 0.205,
      "velocity": 127,
      "chip": "ym2612"
    },
    {
      "channel": 1,
      "note": 81,
      "start": 43.0205,
      "duration": 0.0657,
      "velocity": 114,
      "chip": "ym2612"
    },
    {
      "channel": 1,
      "note": 78,
      "start": 43.0863,
      "duration": 0.0508,
      "velocity": 114,
      "chip": "ym2612"
    },
    {
      "channel": 0,
      "note": 54,
      "start": 43.1359,
      "duration": 0.187,
      "velocity": 117,
      "chip": "ym2612"
    },
    {
      "channel": 1,
      "note": 81,
      "start": 43.1371,
      "duration": 0.0488,
      "velocity": 114,
      "chip": "ym2612"
    },
    {
      "channel": 1,
      "note": 78,
      "start": 43.1859,
      "duration": 0.0402,
      "velocity": 114,
      "chip": "ym2612"
    },
    {
      "channel": 2,
      "note": 64,
      "start": 43.2247,
      "duration": 0.099,
      "velocity": 80,
      "chip": "ym2612"
    },
    {
      "channel": 3,
      "note": 67,
      "start": 43.2252,
      "duration": 0.2115,
      "velocity": 127,
      "chip": "ym2612"
    },
    {
      "channel": 1,
      "note": 81,
      "start": 43.2261,
      "duration": 0.0471,
      "velocity": 114,
      "chip": "ym2612"
    },
    {
      "channel": 1,
      "note": 78,
      "start": 43.2732,
      "duration": 0.0512,
      "velocity": 114,
      "chip": "ym2612"
    },
    {
      "channel": 0,
      "note": 54,
      "start": 43.323,
      "duration": 0.1123,
      "velocity": 117,
      "chip": "ym2612"
    },
    {
      "channel": 2,
      "note": 54,
      "start": 43.3238,
      "duration": 0.1124,
      "velocity": 80,
      "chip": "ym2612"
    },
    {
      "channel": 1,
      "note": 81,
      "start": 43.3244,
      "duration": 0.0448,
      "velocity": 114,
      "chip": "ym2612"
    },
    {
      "channel": 1,
      "note": 78,
      "start": 43.3693,
      "duration": 0.0682,
      "velocity": 114,
      "chip": "ym2612"
    },
    {
      "channel": 0,
      "note": 64,
      "start": 43.4355,
      "duration": 0.1165,
      "velocity": 117,
      "chip": "ym2612"
    },
    {
      "channel": 2,
      "note": 64,
      "start": 43.4363,
      "duration": 0.1165,
      "velocity": 80,
      "chip": "ym2612"
    },
    {
      "channel": 3,
      "note": 67,
      "start": 43.4369,
      "duration": 0.2039,
      "velocity": 127,
      "chip": "ym2612"
    },
    {
      "channel": 1,
      "note": 81,
      "start": 43.4374,
      "duration": 0.0485,
      "velocity": 114,
      "chip": "ym2612"
    },
    {
      "channel": 1,
      "note": 78,
      "start": 43.4859,
      "duration": 0.068,
      "velocity": 114,
      "chip": "ym2612"
    },
    {
      "channel": 0,
      "note": 66,
      "start": 43.5522,
      "duration": 0.1982,
      "velocity": 117,
      "chip": "ym2612"
    },
    {
      "channel": 2,
      "note": 66,
      "start": 43.553,
      "duration": 0.1982,
      "velocity": 80,
      "chip": "ym2612"
    },
    {
      "channel": 1,
      "note": 81,
      "start": 43.5539,
      "duration": 0.0484,
      "velocity": 114,
      "chip": "ym2612"
    },
    {
      "channel": 1,
      "note": 78,
      "start": 43.6024,
      "duration": 0.0378,
      "velocity": 114,
      "chip": "ym2612"
    },
    {
      "channel": 1,
      "note": 78,
      "start": 43.6404,
      "duration": 0.059,
      "velocity": 114,
      "chip": "ym2612"
    },
    {
      "channel": 3,
      "note": 67,
      "start": 43.641,
      "duration": 0.208,
      "velocity": 127,
      "chip": "ym2612"
    },
    {
      "channel": 1,
      "note": 76,
      "start": 43.6993,
      "duration": 0.0529,
      "velocity": 114,
      "chip": "ym2612"
    },
    {
      "channel": 0,
      "note": 64,
      "start": 43.7505,
      "duration": 0.0976,
      "velocity": 117,
      "chip": "ym2612"
    },
    {
      "channel": 2,
      "note": 54,
      "start": 43.7513,
      "duration": 0.1854,
      "velocity": 80,
      "chip": "ym2612"
    },
    {
      "channel": 1,
      "note": 78,
      "start": 43.7522,
      "duration": 0.0474,
      "velocity": 114,
      "chip": "ym2612"
    },
    {
      "channel": 1,
      "note": 76,
      "start": 43.7996,
      "duration": 0.0505,
      "velocity": 114,
      "chip": "ym2612"
    },
    {
      "channel": 0,
      "note": 61,
      "start": 43.8483,
      "duration": 0.1758,
      "velocity": 117,
      "chip": "ym2612"
    },
    {
      "channel": 3,
      "note": 67,
      "start": 43.8492,
      "duration": 0.1762,
      "velocity": 127,
      "chip": "ym2612"
    },
    {
      "channel": 1,
      "note": 78,
      "start": 43.8501,
      "duration": 0.0363,
      "velocity": 114,
      "chip": "ym2612"
    },
    {
      "channel": 1,
      "note": 76,
      "start": 43.8864,
      "duration": 0.0515,
      "velocity": 114,
      "chip": "ym2612"
    },
    {
      "channel": 2,
      "note": 54,
      "start": 43.9369,
      "duration": 0.088,
      "velocity": 80,
      "chip": "ym2612"
    },
    {
      "channel": 1,
      "note": 78,
      "start": 43.9378,
      "duration": 0.0355,
      "velocity": 114,
      "chip": "ym2612"
    },
    {
      "channel": 1,
      "note": 76,
      "start": 43.9733,
      "duration": 0.0532,
      "velocity": 114,
      "chip": "ym2612"
    },
    {
      "channel": 0,
      "note": 52,
      "start": 44.0243,
      "duration": 0.0855,
      "velocity": 117,
      "chip": "ym2612"
    },
    {
      "channel": 2,
      "note": 64,
      "start": 44.0251,
      "duration": 0.0855,
      "velocity": 80,
      "chip": "ym2612"
    },
    {
      "channel": 3,
      "note": 67,
      "start": 44.0257,
      "duration": 0.1953,
      "velocity": 127,
      "chip": "ym2612"
    },
    {
      "channel": 1,
      "note": 78,
      "start": 44.0265,
      "duration": 0.0468,
      "velocity": 114,
      "chip": "ym2612"
    },
    {
      "channel": 1,
      "note": 76,
      "start": 44.0733,
      "duration": 0.038,
      "velocity": 114,
      "chip": "ym2612"
    },
    {
      "channel": 0,
      "note": 64,
      "start": 44.1099,
      "duration": 0.1097,
      "velocity": 117,
      "chip": "ym2612"
    },
    {
      "channel": 2,
      "note": 54,
      "start": 44.1107,
      "duration": 0.1097,
      "velocity": 80,
      "chip": "ym2612"
    },
    {
      "channel": 1,
      "note": 78,
      "start": 44.1113,
      "duration": 0.0588,
      "velocity": 114,
      "chip": "ym2612"
    },
    {
      "channel": 1,
      "note": 76,
      "start": 44.1701,
      "duration": 0.0518,
      "velocity": 114,
      "chip": "ym2612"
    },
    {
      "channel": 0,
      "note": 53,
      "start": 44.2197,
      "duration": 0.0988,
      "velocity": 117,
      "chip": "ym2612"
    },
    {
      "channel": 2,
      "note": 64,
      "start": 44.2205,
      "duration": 0.0988,
      "velocity": 80,
      "chip": "ym2612"
    },
    {
      "channel": 3,
      "note": 67,
      "start": 44.2211,
      "duration": 0.2003,
      "velocity": 127,
      "chip": "ym2612"
    },
    {
      "channel": 1,
      "note": 78,
      "start": 44.222,
      "duration": 0.0481,
      "velocity": 114,
      "chip": "ym2612"
    },
    {
      "channel": 1,
      "note": 76,
      "start": 44.27,
      "duration": 0.0501,
      "velocity": 114,
      "chip": "ym2612"
    },
    {
      "channel": 0,
      "note": 65,
      "start": 44.3187,
      "duration": 0.1012,
      "velocity": 117,
      "chip": "ym2612"
    },
    {
      "channel": 2,
      "note": 66,
      "start": 44.3195,
      "duration": 0.1012,
      "velocity": 80,
      "chip": "ym2612"
    },
    {
      "channel": 1,
      "note": 78,
      "start": 44.3201,
      "duration": 0.0381,
      "velocity": 114,
      "chip": "ym2612"
    },
    {
      "channel": 1,
      "note": 76,
      "start": 44.3583,
      "duration": 0.0641,
      "velocity": 114,
      "chip": "ym2612"
    },
    {
      "channel": 0,
      "note": 54,
      "start": 44.4201,
      "duration": 0.3001,
      "velocity": 117,
      "chip": "ym2612"
    },
    {
      "channel": 2,
      "note": 54,
      "start": 44.421,
      "duration": 0.1826,
      "velocity": 80,
      "chip": "ym2612"
    },
    {
      "channel": 3,
      "note": 67,
      "start": 44.4215,
      "duration": 0.1827,
      "velocity": 127,
      "chip": "ym2612"
    },
    {
      "channel": 1,
      "note": 78,
      "start": 44.4224,
      "duration": 0.085,
      "velocity": 114,
      "chip": "ym2612"
    },
    {
      "channel": 1,
      "note": 76,
      "start": 44.5075,
      "duration": 0.2133,
      "velocity": 114,
      "chip": "ym2612"
    },
    {
      "channel": 2,
      "note": 54,
      "start": 44.6038,
      "duration": 0.2185,
      "velocity": 80,
      "chip": "ym2612"
    },
    {
      "channel": 3,
      "note": 67,
      "start": 44.6044,
      "duration": 0.2184,
      "velocity": 127,
      "chip": "ym2612"
    },
    {
      "channel": 0,
      "note": 54,
      "start": 44.7203,
      "duration": 0.186,
      "velocity": 117,
      "chip": "ym2612"
    },
    {
      "channel": 1,
      "note": 71,
      "start": 44.721,
      "duration": 0.0484,
      "velocity": 114,
      "chip": "ym2612"
    },
    {
      "channel": 1,
      "note": 72,
      "start": 44.7695,
      "duration": 0.1389,
      "velocity": 114,
      "chip": "ym2612"
    },
    {
      "channel": 2,
      "note": 64,
      "start": 44.8224,
      "duration": 0.0866,
      "velocity": 80,
      "chip": "ym2612"
    },
    {
      "channel": 3,
      "note": 67,
      "start": 44.823,
      "duration": 0.1946,
      "velocity": 127,
      "chip": "ym2612"
    },
    {
      "channel": 0,
      "note": 54,
      "start": 44.9065,
      "duration": 0.1083,
      "velocity": 117,
      "chip": "ym2612"
    },
    {
      "channel": 1,
      "note": 69,
      "start": 44.9086,
      "duration": 0.225,
      "velocity": 114,
      "chip": "ym2612"
    },
    {
      "channel": 2,
      "note": 54,
      "start": 44.9092,
      "duration": 0.1079,
      "velocity": 80,
      "chip": "ym2612"
    },
    {
      "channel": 0,
      "note": 64,
      "start": 45.015,
      "duration": 0.1165,
      "velocity": 117,
      "chip": "ym2612"
    },
    {
      "channel": 2,
      "note": 64,
      "start": 45.0172,
      "duration": 0.1169,
      "velocity": 80,
      "chip": "ym2612"
    },
    {
      "channel": 3,
      "note": 67,
      "start": 45.0178,
      "duration": 0.2015,
      "velocity": 127,
      "chip": "ym2612"
    },
    {
      "channel": 0,
      "note": 66,
      "start": 45.1317,
      "duration": 0.2137,
      "velocity": 117,
      "chip": "ym2612"
    },
    {
      "channel": 1,
      "note": 66,
      "start": 45.1338,
      "duration": 0.0849,
      "velocity": 114,
      "chip": "ym2612"
    },
    {
      "channel": 2,
      "note": 66,
      "start": 45.1343,
      "duration": 0.2133,
      "velocity": 80,
      "chip": "ym2612"
    },
    {
      "channel": 1,
      "note": 71,
      "start": 45.2189,
      "duration": 0.2144,
      "velocity": 114,
      "chip": "ym2612"
    },
    {
      "channel": 3,
      "note": 67,
      "start": 45.2195,
      "duration": 0.2144,
      "velocity": 127,
      "chip": "ym2612"
    },
    {
      "channel": 0,
      "note": 64,
      "start": 45.3456,
      "duration": 0.0856,
      "velocity": 117,
      "chip": "ym2612"
    },
    {
      "channel": 2,
      "note": 54,
      "start": 45.3478,
      "duration": 0.173,
      "velocity": 80,
      "chip": "ym2612"
    },
    {
      "channel": 0,
      "note": 61,
      "start": 45.4313,
      "duration": 0.1759,
      "velocity": 117,
      "chip": "ym2612"
    },
    {
      "channel": 1,
      "note": 69,
      "start": 45.4335,
      "duration": 0.0868,
      "velocity": 114,
      "chip": "ym2612"
    },
    {
      "channel": 3,
      "note": 67,
      "start": 45.4341,
      "duration": 0.1759,
      "velocity": 127,
      "chip": "ym2612"
    },
    {
      "channel": 1,
      "note": 66,
      "start": 45.5204,
      "duration": 0.1742,
      "velocity": 114,
      "chip": "ym2612"
    },
    {
      "channel": 2,
      "note": 54,
      "start": 45.521,
      "duration": 0.0885,
      "velocity": 80,
      "chip": "ym2612"
    },
    {
      "channel": 0,
      "note": 52,
      "start": 45.6073,
      "duration": 0.212,
      "velocity": 117,
      "chip": "ym2612"
    },
    {
      "channel": 2,
      "note": 64,
      "start": 45.6096,
      "duration": 0.0857,
      "velocity": 80,
      "chip": "ym2612"
    },
    {
      "channel": 3,
      "note": 67,
      "start": 45.6102,
      "duration": 0.2108,
      "velocity": 127,
      "chip": "ym2612"
    },
    {
      "channel": 1,
      "note": 64,
      "start": 45.6949,
      "duration": 0.125,
      "velocity": 114,
      "chip": "ym2612"
    },
    {
      "channel": 2,
      "note": 54,
      "start": 45.6954,
      "duration": 0.125,
      "velocity": 80,
      "chip": "ym2612"
    },
    {
      "channel": 0,
      "note": 53,
      "start": 45.8195,
      "duration": 0.184,
      "velocity": 117,
      "chip": "ym2612"
    },
    {
      "channel": 1,
      "note": 65,
      "start": 45.82,
      "duration": 0.0858,
      "velocity": 114,
      "chip": "ym2612"
    },
    {
      "channel": 2,
      "note": 64,
      "start": 45.8206,
      "duration": 0.0857,
      "velocity": 80,
      "chip": "ym2612"
    },
    {
      "channel": 3,
      "note": 67,
      "start": 45.8212,
      "duration": 0.1854,
      "velocity": 127,
      "chip": "ym2612"
    },
    {
      "channel": 1,
      "note": 66,
      "start": 45.906,
      "duration": 0.0996,
      "velocity": 1,
      "chip": "ym2612"
    },
    {
      "channel": 2,
      "note": 66,
      "start": 45.9065,
      "duration": 0.0996,
      "velocity": 80,
      "chip": "ym2612"
    },
    {
      "channel": 0,
      "note": 54,
      "start": 46.0036,
      "duration": 0.3152,
      "velocity": 117,
      "chip": "ym2612"
    },
    {
      "channel": 1,
      "note": 54,
      "start": 46.0057,
      "duration": 0.9304,
      "velocity": 110,
      "chip": "ym2612"
    },
    {
      "channel": 2,
      "note": 54,
      "start": 46.0062,
      "duration": 0.1793,
      "velocity": 80,
      "chip": "ym2612"
    },
    {
      "channel": 3,
      "note": 67,
      "start": 46.0068,
      "duration": 0.1793,
      "velocity": 127,
      "chip": "ym2612"
    },
    {
      "channel": 2,
      "note": 54,
      "start": 46.1857,
      "duration": 0.2213,
      "velocity": 80,
      "chip": "ym2612"
    },
    {
      "channel": 3,
      "note": 67,
      "start": 46.1863,
      "duration": 0.2213,
      "velocity": 127,
      "chip": "ym2612"
    },
    {
      "channel": 0,
      "note": 54,
      "start": 46.3189,
      "duration": 0.1759,
      "velocity": 117,
      "chip": "ym2612"
    },
    {
      "channel": 2,
      "note": 64,
      "start": 46.4071,
      "duration": 0.0883,
      "velocity": 80,
      "chip": "ym2612"
    },
    {
      "channel": 3,
      "note": 67,
      "start": 46.4077,
      "duration": 0.197,
      "velocity": 127,
      "chip": "ym2612"
    },
    {
      "channel": 0,
      "note": 54,
      "start": 46.495,
      "duration": 0.1085,
      "velocity": 117,
      "chip": "ym2612"
    },
    {
      "channel": 2,
      "note": 54,
      "start": 46.4956,
      "duration": 0.1085,
      "velocity": 80,
      "chip": "ym2612"
    },
    {
      "channel": 0,
      "note": 64,
      "start": 46.6037,
      "duration": 0.1166,
      "velocity": 117,
      "chip": "ym2612"
    },
    {
      "channel": 2,
      "note": 64,
      "start": 46.6043,
      "duration": 0.1165,
      "velocity": 80,
      "chip": "ym2612"
    },
    {
      "channel": 3,
      "note": 67,
      "start": 46.6049,
      "duration": 0.2146,
      "velocity": 127,
      "chip": "ym2612"
    },
    {
      "channel": 0,
      "note": 66,
      "start": 46.7203,
      "duration": 0.2137,
      "velocity": 117,
      "chip": "ym2612"
    },
    {
      "channel": 2,
      "note": 66,
      "start": 46.721,
      "duration": 0.2158,
      "velocity": 80,
      "chip": "ym2612"
    },
    {
      "channel": 3,
      "note": 67,
      "start": 46.8197,
      "duration": 0.2013,
      "velocity": 127,
      "chip": "ym2612"
    },
    {
      "channel": 0,
      "note": 64,
      "start": 46.9342,
      "duration": 0.0861,
      "velocity": 117,
      "chip": "ym2612"
    },
    {
      "channel": 1,
      "note": 73,
      "start": 46.9363,
      "duration": 0.1729,
      "velocity": 110,
      "chip": "ym2612"
    },
    {
      "channel": 2,
      "note": 54,
      "start": 46.9369,
      "duration": 0.1728,
      "velocity": 80,
      "chip": "ym2612"
    },
    {
      "channel": 0,
      "note": 61,
      "start": 47.0205,
      "duration": 0.1746,
      "velocity": 117,
      "chip": "ym2612"
    },
    {
      "channel": 3,
      "note": 67,
      "start": 47.0212,
      "duration": 0.1771,
      "velocity": 127,
      "chip": "ym2612"
    },
    {
      "channel": 1,
      "note": 73,
      "start": 47.1094,
      "duration": 0.0879,
      "velocity": 110,
      "chip": "ym2612"
    },
    {
      "channel": 2,
      "note": 54,
      "start": 47.1099,
      "duration": 0.0878,
      "velocity": 80,
      "chip": "ym2612"
    },
    {
      "channel": 0,
      "note": 52,
      "start": 47.1953,
      "duration": 0.0978,
      "velocity": 117,
      "chip": "ym2612"
    },
    {
      "channel": 1,
      "note": 76,
      "start": 47.1974,
      "duration": 0.0978,
      "velocity": 110,
      "chip": "ym2612"
    },
    {
      "channel": 2,
      "note": 64,
      "start": 47.1979,
      "duration": 0.0977,
      "velocity": 80,
      "chip": "ym2612"
    },
    {
      "channel": 3,
      "note": 67,
      "start": 47.1985,
      "duration": 0.2112,
      "velocity": 127,
      "chip": "ym2612"
    },
    {
      "channel": 0,
      "note": 64,
      "start": 47.2932,
      "duration": 0.1133,
      "velocity": 117,
      "chip": "ym2612"
    },
    {
      "channel": 1,
      "note": 73,
      "start": 47.2953,
      "duration": 0.1133,
      "velocity": 110,
      "chip": "ym2612"
    },
    {
      "channel": 2,
      "note": 54,
      "start": 47.2959,
      "duration": 0.1133,
      "velocity": 80,
      "chip": "ym2612"
    },
    {
      "channel": 0,
      "note": 53,
      "start": 47.4066,
      "duration": 0.0861,
      "velocity": 117,
      "chip": "ym2612"
    },
    {
      "channel": 1,
      "note": 76,
      "start": 47.4088,
      "duration": 0.0861,
      "velocity": 110,
      "chip": "ym2612"
    },
    {
      "channel": 2,
      "note": 64,
      "start": 47.4093,
      "duration": 0.0861,
      "velocity": 80,
      "chip": "ym2612"
    },
    {
      "channel": 3,
      "note": 67,
      "start": 47.4099,
      "duration": 0.1826,
      "velocity": 127,
      "chip": "ym2612"
    },
    {
      "channel": 0,
      "note": 65,
      "start": 47.4929,
      "duration": 0.0962,
      "velocity": 117,
      "chip": "ym2612"
    },
    {
      "channel": 1,
      "note": 78,
      "start": 47.495,
      "duration": 0.0962,
      "velocity": 114,
      "chip": "ym2612"
    },
    {
      "channel": 2,
      "note": 66,
      "start": 47.4956,
      "duration": 0.0963,
      "velocity": 80,
      "chip": "ym2612"
    },
    {
      "channel": 0,
      "note": 54,
      "start": 47.5894,
      "duration": 0.3153,
      "velocity": 117,
      "chip": "ym2612"
    },
    {
      "channel": 1,
      "note": 66,
      "start": 47.5915,
      "duration": 0.0847,
      "velocity": 114,
      "chip": "ym2612"
    },
    {
      "channel": 2,
      "note": 54,
      "start": 47.5921,
      "duration": 0.1976,
      "velocity": 80,
      "chip": "ym2612"
    },
    {
      "channel": 3,
      "note": 67,
      "start": 47.5927,
      "duration": 0.1976,
      "velocity": 127,
      "chip": "ym2612"
    },
    {
      "channel": 1,
      "note": 69,
      "start": 47.6763,
      "duration": 0.2304,
      "velocity": 114,
      "chip": "ym2612"
    },
    {
      "channel": 2,
      "note": 54,
      "start": 47.7899,
      "duration": 0.2042,
      "velocity": 80,
      "chip": "ym2612"
    },
    {
      "channel": 3,
      "note": 67,
      "start": 47.7904,
      "duration": 0.2042,
      "velocity": 127,
      "chip": "ym2612"
    },
    {
      "channel": 0,
      "note": 54,
      "start": 47.9047,
      "duration": 0.1751,
      "velocity": 117,
      "chip": "ym2612"
    },
    {
      "channel": 1,
      "note": 71,
      "start": 47.9069,
      "duration": 0.1751,
      "velocity": 114,
      "chip": "ym2612"
    },
    {
      "channel": 2,
      "note": 64,
      "start": 47.9943,
      "duration": 0.0883,
      "velocity": 80,
      "chip": "ym2612"
    },
    {
      "channel": 3,
      "note": 67,
      "start": 47.9949,
      "duration": 0.1961,
      "velocity": 127,
      "chip": "ym2612"
    },
    {
      "channel": 0,
      "note": 54,
      "start": 48.08,
      "duration": 0.1081,
      "velocity": 117,
      "chip": "ym2612"
    },
    {
      "channel": 1,
      "note": 72,
      "start": 48.0822,
      "duration": 0.2415,
      "velocity": 114,
      "chip": "ym2612"
    },
    {
      "channel": 2,
      "note": 54,
      "start": 48.0827,
      "duration": 0.1076,
      "velocity": 80,
      "chip": "ym2612"
    },
    {
      "channel": 0,
      "note": 64,
      "start": 48.1883,
      "duration": 0.1332,
      "velocity": 117,
      "chip": "ym2612"
    },
    {
      "channel": 2,
      "note": 64,
      "start": 48.1905,
      "duration": 0.1336,
      "velocity": 80,
      "chip": "ym2612"
    },
    {
      "channel": 3,
      "note": 67,
      "start": 48.1911,
      "duration": 0.2197,
      "velocity": 127,
      "chip": "ym2612"
    },
    {
      "channel": 0,
      "note": 66,
      "start": 48.3216,
      "duration": 0.1975,
      "velocity": 117,
      "chip": "ym2612"
    },
    {
      "channel": 1,
      "note": 73,
      "start": 48.3237,
      "duration": 0.1974,
      "velocity": 114,
      "chip": "ym2612"
    },
    {
      "channel": 2,
      "note": 66,
      "start": 48.3243,
      "duration": 0.1975,
      "velocity": 80,
      "chip": "ym2612"
    },
    {
      "channel": 3,
      "note": 67,
      "start": 48.411,
      "duration": 0.1963,
      "velocity": 127,
      "chip": "ym2612"
    },
    {
      "channel": 0,
      "note": 64,
      "start": 48.5193,
      "duration": 0.0857,
      "velocity": 117,
      "chip": "ym2612"
    },
    {
      "channel": 1,
      "note": 76,
      "start": 48.5214,
      "duration": 0.1735,
      "velocity": 114,
      "chip": "ym2612"
    },
    {
      "channel": 2,
      "note": 54,
      "start": 48.522,
      "duration": 0.1735,
      "velocity": 80,
      "chip": "ym2612"
    },
    {
      "channel": 0,
      "note": 61,
      "start": 48.6051,
      "duration": 0.1885,
      "velocity": 117,
      "chip": "ym2612"
    },
    {
      "channel": 3,
      "note": 67,
      "start": 48.6075,
      "duration": 0.1878,
      "velocity": 127,
      "chip": "ym2612"
    },
    {
      "channel": 1,
      "note": 73,
      "start": 48.6951,
      "duration": 0.0991,
      "velocity": 114,
      "chip": "ym2612"
    },
    {
      "channel": 2,
      "note": 54,
      "start": 48.6956,
      "duration": 0.0992,
      "velocity": 80,
      "chip": "ym2612"
    },
    {
      "channel": 0,
      "note": 52,
      "start": 48.7938,
      "duration": 0.1947,
      "velocity": 117,
      "chip": "ym2612"
    },
    {
      "channel": 1,
      "note": 76,
      "start": 48.7944,
      "duration": 0.1947,
      "velocity": 114,
      "chip": "ym2612"
    },
    {
      "channel": 2,
      "note": 64,
      "start": 48.7949,
      "duration": 0.0837,
      "velocity": 80,
      "chip": "ym2612"
    },
    {
      "channel": 3,
      "note": 67,
      "start": 48.7955,
      "duration": 0.1947,
      "velocity": 127,
      "chip": "ym2612"
    },
    {
      "channel": 2,
      "note": 54,
      "start": 48.8788,
      "duration": 0.1109,
      "velocity": 80,
      "chip": "ym2612"
    },
    {
      "channel": 0,
      "note": 53,
      "start": 48.9887,
      "duration": 0.1839,
      "velocity": 117,
      "chip": "ym2612"
    },
    {
      "channel": 1,
      "note": 78,
      "start": 48.9893,
      "duration": 0.1855,
      "velocity": 114,
      "chip": "ym2612"
    },
    {
      "channel": 2,
      "note": 64,
      "start": 48.9899,
      "duration": 0.0868,
      "velocity": 80,
      "chip": "ym2612"
    },
    {
      "channel": 3,
      "note": 67,
      "start": 48.9904,
      "duration": 0.1854,
      "velocity": 127,
      "chip": "ym2612"
    },
    {
      "channel": 2,
      "note": 66,
      "start": 49.0768,
      "duration": 0.0985,
      "velocity": 80,
      "chip": "ym2612"
    },
    {
      "channel": 0,
      "note": 54,
      "start": 49.1728,
      "duration": 0.3166,
      "velocity": 117,
      "chip": "ym2612"
    },
    {
      "channel": 1,
      "note": 78,
      "start": 49.1749,
      "duration": 0.0019,
      "velocity": 114,
      "chip": "ym2612"
    },
    {
      "channel": 2,
      "note": 54,
      "start": 49.1755,
      "duration": 0.1975,
      "velocity": 80,
      "chip": "ym2612"
    },
    {
      "channel": 3,
      "note": 67,
      "start": 49.176,
      "duration": 0.1975,
      "velocity": 127,
      "chip": "ym2612"
    },
    {
      "channel": 1,
      "note": 81,
      "start": 49.1768,
      "duration": 0.0464,
      "velocity": 114,
      "chip": "ym2612"
    },
    {
      "channel": 1,
      "note": 78,
      "start": 49.2232,
      "duration": 0.0494,
      "velocity": 114,
      "chip": "ym2612"
    },
    {
      "channel": 1,
      "note": 81,
      "start": 49.2726,
      "duration": 0.0369,
      "velocity": 114,
      "chip": "ym2612"
    },
    {
      "channel": 1,
      "note": 78,
      "start": 49.3095,
      "duration": 0.0647,
      "velocity": 114,
      "chip": "ym2612"
    },
    {
      "channel": 2,
      "note": 54,
      "start": 49.3731,
      "duration": 0.2054,
      "velocity": 80,
      "chip": "ym2612"
    },
    {
      "channel": 3,
      "note": 67,
      "start": 49.3737,
      "duration": 0.2054,
      "velocity": 127,
      "chip": "ym2612"
    },
    {
      "channel": 1,
      "note": 81,
      "start": 49.3742,
      "duration": 0.049,
      "velocity": 114,
      "chip": "ym2612"
    },
    {
      "channel": 1,
      "note": 78,
      "start": 49.4232,
      "duration": 0.0675,
      "velocity": 114,
      "chip": "ym2612"
    },
    {
      "channel": 0,
      "note": 54,
      "start": 49.4895,
      "duration": 0.1748,
      "velocity": 117,
      "chip": "ym2612"
    },
    {
      "channel": 1,
      "note": 81,
      "start": 49.4907,
      "duration": 0.0493,
      "velocity": 114,
      "chip": "ym2612"
    },
    {
      "channel": 1,
      "note": 78,
      "start": 49.54,
      "duration": 0.0401,
      "velocity": 114,
      "chip": "ym2612"
    },
    {
      "channel": 2,
      "note": 64,
      "start": 49.5787,
      "duration": 0.0864,
      "velocity": 80,
      "chip": "ym2612"
    },
    {
      "channel": 3,
      "note": 67,
      "start": 49.5792,
      "duration": 0.2112,
      "velocity": 127,
      "chip": "ym2612"
    },
    {
      "channel": 1,
      "note": 81,
      "start": 49.5801,
      "duration": 0.0466,
      "velocity": 114,
      "chip": "ym2612"
    },
    {
      "channel": 1,
      "note": 78,
      "start": 49.6267,
      "duration": 0.0392,
      "velocity": 114,
      "chip": "ym2612"
    },
    {
      "channel": 0,
      "note": 54,
      "start": 49.6644,
      "duration": 0.1246,
      "velocity": 117,
      "chip": "ym2612"
    },
    {
      "channel": 2,
      "note": 54,
      "start": 49.6652,
      "duration": 0.1247,
      "velocity": 80,
      "chip": "ym2612"
    },
    {
      "channel": 1,
      "note": 81,
      "start": 49.6659,
      "duration": 0.0571,
      "velocity": 114,
      "chip": "ym2612"
    },
    {
      "channel": 1,
      "note": 78,
      "start": 49.723,
      "duration": 0.0682,
      "velocity": 114,
      "chip": "ym2612"
    },
    {
      "channel": 0,
      "note": 64,
      "start": 49.7893,
      "duration": 0.1165,
      "velocity": 117,
      "chip": "ym2612"
    },
    {
      "channel": 2,
      "note": 64,
      "start": 49.7901,
      "duration": 0.1165,
      "velocity": 80,
      "chip": "ym2612"
    },
    {
      "channel": 3,
      "note": 67,
      "start": 49.7906,
      "duration": 0.2043,
      "velocity": 127,
      "chip": "ym2612"
    },
    {
      "channel": 1,
      "note": 81,
      "start": 49.7912,
      "duration": 0.0485,
      "velocity": 114,
      "chip": "ym2612"
    },
    {
      "channel": 1,
      "note": 78,
      "start": 49.8397,
      "duration": 0.068,
      "velocity": 114,
      "chip": "ym2612"
    },
    {
      "channel": 0,
      "note": 66,
      "start": 49.9059,
      "duration": 0.1986,
      "velocity": 117,
      "chip": "ym2612"
    },
    {
      "channel": 2,
      "note": 66,
      "start": 49.9068,
      "duration": 0.1986,
      "velocity": 80,
      "chip": "ym2612"
    },
    {
      "channel": 1,
      "note": 81,
      "start": 49.9077,
      "duration": 0.0362,
      "velocity": 114,
      "chip": "ym2612"
    },
    {
      "channel": 1,
      "note": 78,
      "start": 49.9438,
      "duration": 0.0504,
      "velocity": 114,
      "chip": "ym2612"
    },
    {
      "channel": 1,
      "note": 78,
      "start": 49.9944,
      "duration": 0.0591,
      "velocity": 114,
      "chip": "ym2612"
    },
    {
      "channel": 3,
      "note": 67,
      "start": 49.9951,
      "duration": 0.1966,
      "velocity": 127,
      "chip": "ym2612"
    },
    {
      "channel": 1,
      "note": 76,
      "start": 50.0535,
      "duration": 0.0529,
      "velocity": 114,
      "chip": "ym2612"
    },
    {
      "channel": 0,
      "note": 64,
      "start": 50.1047,
      "duration": 0.0861,
      "velocity": 117,
      "chip": "ym2612"
    },
    {
      "channel": 2,
      "note": 54,
      "start": 50.1055,
      "duration": 0.1866,
      "velocity": 80,
      "chip": "ym2612"
    },
    {
      "channel": 1,
      "note": 78,
      "start": 50.1064,
      "duration": 0.0475,
      "velocity": 114,
      "chip": "ym2612"
    },
    {
      "channel": 1,
      "note": 76,
      "start": 50.1539,
      "duration": 0.0388,
      "velocity": 114,
      "chip": "ym2612"
    },
    {
      "channel": 0,
      "note": 61,
      "start": 50.191,
      "duration": 0.1887,
      "velocity": 117,
      "chip": "ym2612"
    },
    {
      "channel": 3,
      "note": 67,
      "start": 50.1918,
      "duration": 0.1892,
      "velocity": 127,
      "chip": "ym2612"
    },
    {
      "channel": 1,
      "note": 78,
      "start": 50.1927,
      "duration": 0.0485,
      "velocity": 114,
      "chip": "ym2612"
    },
    {
      "channel": 1,
      "note": 76,
      "start": 50.2412,
      "duration": 0.052,
      "velocity": 114,
      "chip": "ym2612"
    },
    {
      "channel": 2,
      "note": 54,
      "start": 50.2923,
      "duration": 0.0882,
      "velocity": 80,
      "chip": "ym2612"
    },
    {
      "channel": 1,
      "note": 78,
      "start": 50.2932,
      "duration": 0.0357,
      "velocity": 114,
      "chip": "ym2612"
    },
    {
      "channel": 1,
      "note": 76,
      "start": 50.3288,
      "duration": 0.0532,
      "velocity": 114,
      "chip": "ym2612"
    },
    {
      "channel": 0,
      "note": 52,
      "start": 50.3799,
      "duration": 0.0863,
      "velocity": 117,
      "chip": "ym2612"
    },
    {
      "channel": 2,
      "note": 64,
      "start": 50.3807,
      "duration": 0.0863,
      "velocity": 80,
      "chip": "ym2612"
    },
    {
      "channel": 3,
      "note": 67,
      "start": 50.3813,
      "duration": 0.1956,
      "velocity": 127,
      "chip": "ym2612"
    },
    {
      "channel": 1,
      "note": 78,
      "start": 50.3821,
      "duration": 0.035,
      "velocity": 114,
      "chip": "ym2612"
    },
    {
      "channel": 1,
      "note": 76,
      "start": 50.4171,
      "duration": 0.0506,
      "velocity": 114,
      "chip": "ym2612"
    },
    {
      "channel": 0,
      "note": 64,
      "start": 50.4663,
      "duration": 0.1093,
      "velocity": 117,
      "chip": "ym2612"
    },
    {
      "channel": 2,
      "note": 54,
      "start": 50.4671,
      "duration": 0.1093,
      "velocity": 80,
      "chip": "ym2612"
    },
    {
      "channel": 1,
      "note": 78,
      "start": 50.4677,
      "duration": 0.0584,
      "velocity": 114,
      "chip": "ym2612"
    },
    {
      "channel": 1,
      "note": 76,
      "start": 50.5261,
      "duration": 0.0518,
      "velocity": 114,
      "chip": "ym2612"
    },
    {
      "channel": 0,
      "note": 53,
      "start": 50.5757,
      "duration": 0.0861,
      "velocity": 117,
      "chip": "ym2612"
    },
    {
      "channel": 2,
      "note": 64,
      "start": 50.5765,
      "duration": 0.0861,
      "velocity": 80,
      "chip": "ym2612"
    },
    {
      "channel": 3,
      "note": 67,
      "start": 50.5771,
      "duration": 0.1997,
      "velocity": 127,
      "chip": "ym2612"
    },
    {
      "channel": 1,
      "note": 78,
      "start": 50.5779,
      "duration": 0.0478,
      "velocity": 114,
      "chip": "ym2612"
    },
    {
      "channel": 1,
      "note": 76,
      "start": 50.6256,
      "duration": 0.0378,
      "velocity": 114,
      "chip": "ym2612"
    },
    {
      "channel": 0,
      "note": 65,
      "start": 50.662,
      "duration": 0.1132,
      "velocity": 117,
      "chip": "ym2612"
    },
    {
      "channel": 2,
      "note": 66,
      "start": 50.6628,
      "duration": 0.1133,
      "velocity": 80,
      "chip": "ym2612"
    },
    {
      "channel": 1,
      "note": 78,
      "start": 50.6634,
      "duration": 0.0501,
      "velocity": 114,
      "chip": "ym2612"
    },
    {
      "channel": 1,
      "note": 76,
      "start": 50.7135,
      "duration": 0.0642,
      "velocity": 114,
      "chip": "ym2612"
    },
    {
      "channel": 0,
      "note": 54,
      "start": 50.7754,
      "duration": 0.3002,
      "velocity": 117,
      "chip": "ym2612"
    },
    {
      "channel": 2,
      "note": 54,
      "start": 50.7763,
      "duration": 0.1827,
      "velocity": 80,
      "chip": "ym2612"
    },
    {
      "channel": 3,
      "note": 67,
      "start": 50.7768,
      "duration": 0.1827,
      "velocity": 127,
      "chip": "ym2612"
    },
    {
      "channel": 1,
      "note": 78,
      "start": 50.7777,
      "duration": 0.085,
      "velocity": 114,
      "chip": "ym2612"
    },
    {
      "channel": 1,
      "note": 76,
      "start": 50.8628,
      "duration": 0.2133,
      "velocity": 114,
      "chip": "ym2612"
    },
    {
      "channel": 2,
      "note": 54,
      "start": 50.9591,
      "duration": 0.2064,
      "velocity": 80,
      "chip": "ym2612"
    },
    {
      "channel": 3,
      "note": 67,
      "start": 50.9597,
      "duration": 0.2064,
      "velocity": 127,
      "chip": "ym2612"
    },
    {
      "channel": 0,
      "note": 54,
      "start": 51.0757,
      "duration": 0.1871,
      "velocity": 117,
      "chip": "ym2612"
    },
    {
      "channel": 1,
      "note": 71,
      "start": 51.0763,
      "duration": 0.0483,
      "velocity": 114,
      "chip": "ym2612"
    },
    {
      "channel": 1,
      "note": 72,
      "start": 51.1248,
      "duration": 0.1401,
      "velocity": 114,
      "chip": "ym2612"
    },
    {
      "channel": 2,
      "note": 64,
      "start": 51.1657,
      "duration": 0.0998,
      "velocity": 80,
      "chip": "ym2612"
    },
    {
      "channel": 3,
      "note": 67,
      "start": 51.1663,
      "duration": 0.212,
      "velocity": 127,
      "chip": "ym2612"
    },
    {
      "channel": 0,
      "note": 54,
      "start": 51.2629,
      "duration": 0.1126,
      "velocity": 117,
      "chip": "ym2612"
    },
    {
      "channel": 1,
      "note": 69,
      "start": 51.2651,
      "duration": 0.2292,
      "velocity": 114,
      "chip": "ym2612"
    },
    {
      "channel": 2,
      "note": 54,
      "start": 51.2656,
      "duration": 0.1121,
      "velocity": 80,
      "chip": "ym2612"
    },
    {
      "channel": 0,
      "note": 64,
      "start": 51.3757,
      "duration": 0.1165,
      "velocity": 117,
      "chip": "ym2612"
    },
    {
      "channel": 2,
      "note": 64,
      "start": 51.3779,
      "duration": 0.1169,
      "velocity": 80,
      "chip": "ym2612"
    },
    {
      "channel": 3,
      "note": 67,
      "start": 51.3785,
      "duration": 0.202,
      "velocity": 127,
      "chip": "ym2612"
    },
    {
      "channel": 0,
      "note": 66,
      "start": 51.4924,
      "duration": 0.1977,
      "velocity": 117,
      "chip": "ym2612"
    },
    {
      "channel": 1,
      "note": 66,
      "start": 51.4945,
      "duration": 0.0854,
      "velocity": 114,
      "chip": "ym2612"
    },
    {
      "channel": 2,
      "note": 66,
      "start": 51.495,
      "duration": 0.1972,
      "velocity": 80,
      "chip": "ym2612"
    },
    {
      "channel": 1,
      "note": 71,
      "start": 51.58,
      "duration": 0.2093,
      "velocity": 114,
      "chip": "ym2612"
    },
    {
      "channel": 3,
      "note": 67,
      "start": 51.5807,
      "duration": 0.2093,
      "velocity": 127,
      "chip": "ym2612"
    },
    {
      "channel": 0,
      "note": 64,
      "start": 51.6902,
      "duration": 0.097,
      "velocity": 117,
      "chip": "ym2612"
    },
    {
      "channel": 2,
      "note": 54,
      "start": 51.6924,
      "duration": 0.1836,
      "velocity": 80,
      "chip": "ym2612"
    },
    {
      "channel": 0,
      "note": 61,
      "start": 51.7873,
      "duration": 0.1752,
      "velocity": 117,
      "chip": "ym2612"
    },
    {
      "channel": 1,
      "note": 69,
      "start": 51.7895,
      "duration": 0.086,
      "velocity": 114,
      "chip": "ym2612"
    },
    {
      "channel": 3,
      "note": 67,
      "start": 51.7901,
      "duration": 0.1753,
      "velocity": 127,
      "chip": "ym2612"
    },
    {
      "channel": 1,
      "note": 66,
      "start": 51.8757,
      "duration": 0.1745,
      "velocity": 114,
      "chip": "ym2612"
    },
    {
      "channel": 2,
      "note": 54,
      "start": 51.8762,
      "duration": 0.0886,
      "velocity": 80,
      "chip": "ym2612"
    },
    {
      "channel": 0,
      "note": 52,
      "start": 51.9627,
      "duration": 0.1951,
      "velocity": 117,
      "chip": "ym2612"
    },
    {
      "channel": 2,
      "note": 64,
      "start": 51.965,
      "duration": 0.0858,
      "velocity": 80,
      "chip": "ym2612"
    },
    {
      "channel": 3,
      "note": 67,
      "start": 51.9656,
      "duration": 0.1939,
      "velocity": 127,
      "chip": "ym2612"
    },
    {
      "channel": 1,
      "note": 64,
      "start": 52.0504,
      "duration": 0.1079,
      "velocity": 114,
      "chip": "ym2612"
    },
    {
      "channel": 2,
      "note": 54,
      "start": 52.0509,
      "duration": 0.1079,
      "velocity": 80,
      "chip": "ym2612"
    },
    {
      "channel": 0,
      "note": 53,
      "start": 52.1579,
      "duration": 0.2008,
      "velocity": 117,
      "chip": "ym2612"
    },
    {
      "channel": 1,
      "note": 65,
      "start": 52.1585,
      "duration": 0.0991,
      "velocity": 114,
      "chip": "ym2612"
    },
    {
      "channel": 2,
      "note": 64,
      "start": 52.159,
      "duration": 0.0991,
      "velocity": 80,
      "chip": "ym2612"
    },
    {
      "channel": 3,
      "note": 67,
      "start": 52.1595,
      "duration": 0.2024,
      "velocity": 127,
      "chip": "ym2612"
    },
    {
      "channel": 1,
      "note": 66,
      "start": 52.2578,
      "duration": 0.103,
      "velocity": 1,
      "chip": "ym2612"
    },
    {
      "channel": 2,
      "note": 66,
      "start": 52.2583,
      "duration": 0.1031,
      "velocity": 80,
      "chip": "ym2612"
    },
    {
      "channel": 0,
      "note": 54,
      "start": 52.3588,
      "duration": 0.3008,
      "velocity": 117,
      "chip": "ym2612"
    },
    {
      "channel": 1,
      "note": 54,
      "start": 52.361,
      "duration": 0.9277,
      "velocity": 110,
      "chip": "ym2612"
    },
    {
      "channel": 2,
      "note": 54,
      "start": 52.3615,
      "duration": 0.1815,
      "velocity": 80,
      "chip": "ym2612"
    },
    {
      "channel": 3,
      "note": 67,
      "start": 52.3621,
      "duration": 0.1815,
      "velocity": 127,
      "chip": "ym2612"
    },
    {
      "channel": 2,
      "note": 54,
      "start": 52.5432,
      "duration": 0.2178,
      "velocity": 80,
      "chip": "ym2612"
    },
    {
      "channel": 3,
      "note": 67,
      "start": 52.5438,
      "duration": 0.2178,
      "velocity": 127,
      "chip": "ym2612"
    },
    {
      "channel": 0,
      "note": 54,
      "start": 52.6598,
      "duration": 0.1877,
      "velocity": 117,
      "chip": "ym2612"
    },
    {
      "channel": 2,
      "note": 64,
      "start": 52.7612,
      "duration": 0.0868,
      "velocity": 80,
      "chip": "ym2612"
    },
    {
      "channel": 3,
      "note": 67,
      "start": 52.7618,
      "duration": 0.1955,
      "velocity": 127,
      "chip": "ym2612"
    },
    {
      "channel": 0,
      "note": 54,
      "start": 52.8476,
      "duration": 0.1085,
      "velocity": 117,
      "chip": "ym2612"
    },
    {
      "channel": 2,
      "note": 54,
      "start": 52.8482,
      "duration": 0.1085,
      "velocity": 80,
      "chip": "ym2612"
    },
    {
      "channel": 0,
      "note": 64,
      "start": 52.9563,
      "duration": 0.1166,
      "velocity": 117,
      "chip": "ym2612"
    },
    {
      "channel": 2,
      "note": 64,
      "start": 52.9569,
      "duration": 0.1165,
      "velocity": 80,
      "chip": "ym2612"
    },
    {
      "channel": 3,
      "note": 67,
      "start": 52.9575,
      "duration": 0.2017,
      "velocity": 127,
      "chip": "ym2612"
    },
    {
      "channel": 0,
      "note": 66,
      "start": 53.0729,
      "duration": 0.2137,
      "velocity": 117,
      "chip": "ym2612"
    },
    {
      "channel": 2,
      "note": 66,
      "start": 53.0736,
      "duration": 0.2157,
      "velocity": 80,
      "chip": "ym2612"
    },
    {
      "channel": 3,
      "note": 67,
      "start": 53.1594,
      "duration": 0.2137,
      "velocity": 127,
      "chip": "ym2612"
    },
    {
      "channel": 0,
      "note": 64,
      "start": 53.2868,
      "duration": 0.0856,
      "velocity": 117,
      "chip": "ym2612"
    },
    {
      "channel": 1,
      "note": 73,
      "start": 53.2889,
      "duration": 0.1727,
      "velocity": 110,
      "chip": "ym2612"
    },
    {
      "channel": 2,
      "note": 54,
      "start": 53.2895,
      "duration": 0.1727,
      "velocity": 80,
      "chip": "ym2612"
    },
    {
      "channel": 0,
      "note": 61,
      "start": 53.3726,
      "duration": 0.1753,
      "velocity": 117,
      "chip": "ym2612"
    },
    {
      "channel": 3,
      "note": 67,
      "start": 53.3733,
      "duration": 0.1778,
      "velocity": 127,
      "chip": "ym2612"
    },
    {
      "channel": 1,
      "note": 73,
      "start": 53.4617,
      "duration": 0.0883,
      "velocity": 110,
      "chip": "ym2612"
    },
    {
      "channel": 2,
      "note": 54,
      "start": 53.4622,
      "duration": 0.0883,
      "velocity": 80,
      "chip": "ym2612"
    },
    {
      "channel": 0,
      "note": 52,
      "start": 53.548,
      "duration": 0.0867,
      "velocity": 117,
      "chip": "ym2612"
    },
    {
      "channel": 1,
      "note": 76,
      "start": 53.5502,
      "duration": 0.0867,
      "velocity": 110,
      "chip": "ym2612"
    },
    {
      "channel": 2,
      "note": 64,
      "start": 53.5507,
      "duration": 0.0867,
      "velocity": 80,
      "chip": "ym2612"
    },
    {
      "channel": 3,
      "note": 67,
      "start": 53.5513,
      "duration": 0.2116,
      "velocity": 127,
      "chip": "ym2612"
    },
    {
      "channel": 0,
      "note": 64,
      "start": 53.6349,
      "duration": 0.1248,
      "velocity": 117,
      "chip": "ym2612"
    },
    {
      "channel": 1,
      "note": 73,
      "start": 53.637,
      "duration": 0.1248,
      "velocity": 110,
      "chip": "ym2612"
    },
    {
      "channel": 2,
      "note": 54,
      "start": 53.6376,
      "duration": 0.1248,
      "velocity": 80,
      "chip": "ym2612"
    },
    {
      "channel": 0,
      "note": 53,
      "start": 53.7598,
      "duration": 0.0883,
      "velocity": 117,
      "chip": "ym2612"
    },
    {
      "channel": 1,
      "note": 76,
      "start": 53.762,
      "duration": 0.0882,
      "velocity": 110,
      "chip": "ym2612"
    },
    {
      "channel": 2,
      "note": 64,
      "start": 53.7625,
      "duration": 0.0882,
      "velocity": 80,
      "chip": "ym2612"
    },
    {
      "channel": 3,
      "note": 67,
      "start": 53.7631,
      "duration": 0.185,
      "velocity": 127,
      "chip": "ym2612"
    },
    {
      "channel": 0,
      "note": 65,
      "start": 53.8482,
      "duration": 0.095,
      "velocity": 117,
      "chip": "ym2612"
    },
    {
      "channel": 1,
      "note": 78,
      "start": 53.8504,
      "duration": 0.095,
      "velocity": 102,
      "chip": "ym2612"
    },
    {
      "channel": 2,
      "note": 66,
      "start": 53.8509,
      "duration": 0.0966,
      "velocity": 102,
      "chip": "ym2612"
    },
    {
      "channel": 0,
      "note": 54,
      "start": 53.9434,
      "duration": 0.0872,
      "velocity": 117,
      "chip": "ym2612"
    },
    {
      "channel": 1,
      "note": 78,
      "start": 53.9454,
      "duration": 0.0857,
      "velocity": 102,
      "chip": "ym2612"
    },
    {
      "channel": 2,
      "note": 54,
      "start": 53.9476,
      "duration": 0.084,
      "velocity": 102,
      "chip": "ym2612"
    },
    {
      "channel": 3,
      "note": 67,
      "start": 53.9482,
      "duration": 0.1771,
      "velocity": 127,
      "chip": "ym2612"
    },
    {
      "channel": 0,
      "note": 52,
      "start": 54.0307,
      "duration": 0.2277,
      "velocity": 117,
      "chip": "ym2612"
    },
    {
      "channel": 1,
      "note": 76,
      "start": 54.0312,
      "duration": 0.2278,
      "velocity": 102,
      "chip": "ym2612"
    },
    {
      "channel": 2,
      "note": 52,
      "start": 54.0318,
      "duration": 0.2277,
      "velocity": 102,
      "chip": "ym2612"
    },
    {
      "channel": 3,
      "note": 67,
      "start": 54.1254,
      "duration": 0.2237,
      "velocity": 127,
      "chip": "ym2612"
    },
    {
      "channel": 0,
      "note": 51,
      "start": 54.2586,
      "duration": 0.4993,
      "velocity": 117,
      "chip": "ym2612"
    },
    {
      "channel": 1,
      "note": 75,
      "start": 54.2591,
      "duration": 0.5009,
      "velocity": 102,
      "chip": "ym2612"
    },
    {
      "channel": 2,
      "note": 51,
      "start": 54.2597,
      "duration": 0.5025,
      "velocity": 102,
      "chip": "ym2612"
    },
    {
      "channel": 3,
      "note": 67,
      "start": 54.3493,
      "duration": 0.1915,
      "velocity": 127,
      "chip": "ym2612"
    },
    {
      "channel": 3,
      "note": 67,
      "start": 54.5411,
      "duration": 0.2217,
      "velocity": 127,
      "chip": "ym2612"
    },
    {
      "channel": 0,
      "note": 56,
      "start": 54.7581,
      "duration": 0.1133,
      "velocity": 117,
      "chip": "ym2612"
    },
    {
      "channel": 1,
      "note": 80,
      "start": 54.7602,
      "duration": 0.1117,
      "velocity": 102,
      "chip": "ym2612"
    },
    {
      "channel": 2,
      "note": 56,
      "start": 54.7624,
      "duration": 0.1101,
      "velocity": 102,
      "chip": "ym2612"
    },
    {
      "channel": 3,
      "note": 67,
      "start": 54.7629,
      "duration": 0.1946,
      "velocity": 127,
      "chip": "ym2612"
    },
    {
      "channel": 0,
      "note": 54,
      "start": 54.8716,
      "duration": 0.1734,
      "velocity": 117,
      "chip": "ym2612"
    },
    {
      "channel": 1,
      "note": 78,
      "start": 54.8721,
      "duration": 0.1734,
      "velocity": 102,
      "chip": "ym2612"
    },
    {
      "channel": 2,
      "note": 54,
      "start": 54.8727,
      "duration": 0.1733,
      "velocity": 102,
      "chip": "ym2612"
    },
    {
      "channel": 3,
      "note": 67,
      "start": 54.9577,
      "duration": 0.1775,
      "velocity": 127,
      "chip": "ym2612"
    },
    {
      "channel": 0,
      "note": 52,
      "start": 55.0451,
      "duration": 0.4848,
      "velocity": 117,
      "chip": "ym2612"
    },
    {
      "channel": 1,
      "note": 76,
      "start": 55.0456,
      "duration": 0.4863,
      "velocity": 102,
      "chip": "ym2612"
    },
    {
      "channel": 2,
      "note": 52,
      "start": 55.0462,
      "duration": 0.4879,
      "velocity": 102,
      "chip": "ym2612"
    },
    {
      "channel": 3,
      "note": 67,
      "start": 55.1354,
      "duration": 0.2091,
      "velocity": 127,
      "chip": "ym2612"
    },
    {
      "channel": 3,
      "note": 67,
      "start": 55.3447,
      "duration": 0.19,
      "velocity": 127,
      "chip": "ym2612"
    },
    {
      "channel": 0,
      "note": 54,
      "start": 55.53,
      "duration": 0.0868,
      "velocity": 117,
      "chip": "ym2612"
    },
    {
      "channel": 1,
      "note": 83,
      "start": 55.5322,
      "duration": 0.213,
      "velocity": 102,
      "chip": "ym2612"
    },
    {
      "channel": 2,
      "note": 59,
      "start": 55.5342,
      "duration": 0.2131,
      "velocity": 102,
      "chip": "ym2612"
    },
    {
      "channel": 3,
      "note": 67,
      "start": 55.5348,
      "duration": 0.213,
      "velocity": 127,
      "chip": "ym2612"
    },
    {
      "channel": 4,
      "note": 80,
      "start": 55.537,
      "duration": 0.213,
      "velocity": 102,
      "chip": "ym2612"
    },
    {
      "channel": 0,
      "note": 56,
      "start": 55.6169,
      "duration": 0.2149,
      "velocity": 117,
      "chip": "ym2612"
    },
    {
      "channel": 1,
      "note": 83,
      "start": 55.7453,
      "duration": 0.1826,
      "velocity": 102,
      "chip": "ym2612"
    },
    {
      "channel": 2,
      "note": 59,
      "start": 55.7474,
      "duration": 0.1826,
      "velocity": 102,
      "chip": "ym2612"
    },
    {
      "channel": 3,
      "note": 67,
      "start": 55.748,
      "duration": 0.1825,
      "velocity": 127,
      "chip": "ym2612"
    },
    {
      "channel": 4,
      "note": 80,
      "start": 55.7502,
      "duration": 0.1825,
      "velocity": 102,
      "chip": "ym2612"
    },
    {
      "channel": 0,
      "note": 56,
      "start": 55.8319,
      "duration": 0.0938,
      "velocity": 117,
      "chip": "ym2612"
    },
    {
      "channel": 0,
      "note": 59,
      "start": 55.9259,
      "duration": 0.0871,
      "velocity": 117,
      "chip": "ym2612"
    },
    {
      "channel": 1,
      "note": 83,
      "start": 55.928,
      "duration": 0.1972,
      "velocity": 102,
      "chip": "ym2612"
    },
    {
      "channel": 2,
      "note": 59,
      "start": 55.9302,
      "duration": 0.1972,
      "velocity": 102,
      "chip": "ym2612"
    },
    {
      "channel": 3,
      "note": 67,
      "start": 55.9307,
      "duration": 0.1971,
      "velocity": 127,
      "chip": "ym2612"
    },
    {
      "channel": 4,
      "note": 80,
      "start": 55.9329,
      "duration": 0.1971,
      "velocity": 102,
      "chip": "ym2612"
    },
    {
      "channel": 0,
      "note": 56,
      "start": 56.0132,
      "duration": 0.2108,
      "velocity": 117,
      "chip": "ym2612"
    },
    {
      "channel": 1,
      "note": 83,
      "start": 56.1253,
      "duration": 0.1991,
      "velocity": 102,
      "chip": "ym2612"
    },
    {
      "channel": 2,
      "note": 59,
      "start": 56.1275,
      "duration": 0.1991,
      "velocity": 102,
      "chip": "ym2612"
    },
    {
      "channel": 3,
      "note": 67,
      "start": 56.128,
      "duration": 0.1991,
      "velocity": 127,
      "chip": "ym2612"
    },
    {
      "channel": 4,
      "note": 80,
      "start": 56.1302,
      "duration": 0.1991,
      "velocity": 102,
      "chip": "ym2612"
    },
    {
      "channel": 0,
      "note": 52,
      "start": 56.2243,
      "duration": 0.098,
      "velocity": 117,
      "chip": "ym2612"
    },
    {
      "channel": 0,
      "note": 54,
      "start": 56.3225,
      "duration": 0.0872,
      "velocity": 117,
      "chip": "ym2612"
    },
    {
      "channel": 1,
      "note": 83,
      "start": 56.3246,
      "duration": 0.1973,
      "velocity": 102,
      "chip": "ym2612"
    },
    {
      "channel": 2,
      "note": 59,
      "start": 56.3267,
      "duration": 0.1973,
      "velocity": 102,
      "chip": "ym2612"
    },
    {
      "channel": 3,
      "note": 67,
      "start": 56.3273,
      "duration": 0.1972,
      "velocity": 127,
      "chip": "ym2612"
    },
    {
      "channel": 4,
      "note": 80,
      "start": 56.3295,
      "duration": 0.1972,
      "velocity": 102,
      "chip": "ym2612"
    },
    {
      "channel": 0,
      "note": 56,
      "start": 56.4099,
      "duration": 0.1992,
      "velocity": 117,
      "chip": "ym2612"
    },
    {
      "channel": 1,
      "note": 83,
      "start": 56.522,
      "duration": 0.1878,
      "velocity": 102,
      "chip": "ym2612"
    },
    {
      "channel": 2,
      "note": 59,
      "start": 56.5241,
      "duration": 0.1878,
      "velocity": 102,
      "chip": "ym2612"
    },
    {
      "channel": 3,
      "note": 67,
      "start": 56.5247,
      "duration": 0.1878,
      "velocity": 127,
      "chip": "ym2612"
    },
    {
      "channel": 4,
      "note": 80,
      "start": 56.5268,
      "duration": 0.1877,
      "velocity": 102,
      "chip": "ym2612"
    },
    {
      "channel": 0,
      "note": 56,
      "start": 56.6092,
      "duration": 0.0984,
      "velocity": 117,
      "chip": "ym2612"
    },
    {
      "channel": 0,
      "note": 61,
      "start": 56.7078,
      "duration": 0.0877,
      "velocity": 117,
      "chip": "ym2612"
    },
    {
      "channel": 1,
      "note": 83,
      "start": 56.7099,
      "duration": 0.086,
      "velocity": 102,
      "chip": "ym2612"
    },
    {
      "channel": 2,
      "note": 59,
      "start": 56.712,
      "duration": 0.0845,
      "velocity": 102,
      "chip": "ym2612"
    },
    {
      "channel": 3,
      "note": 67,
      "start": 56.7126,
      "duration": 0.1718,
      "velocity": 127,
      "chip": "ym2612"
    },
    {
      "channel": 4,
      "note": 78,
      "start": 56.7147,
      "duration": 0.0824,
      "velocity": 102,
      "chip": "ym2612"
    },
    {
      "channel": 0,
      "note": 59,
      "start": 56.7956,
      "duration": 0.0872,
      "velocity": 117,
      "chip": "ym2612"
    },
    {
      "channel": 1,
      "note": 84,
      "start": 56.7961,
      "duration": 0.0872,
      "velocity": 102,
      "chip": "ym2612"
    },
    {
      "channel": 2,
      "note": 60,
      "start": 56.7967,
      "duration": 0.0871,
      "velocity": 102,
      "chip": "ym2612"
    },
    {
      "channel": 4,
      "note": 79,
      "start": 56.7973,
      "duration": 0.0877,
      "velocity": 102,
      "chip": "ym2612"
    },
    {
      "channel": 0,
      "note": 52,
      "start": 56.8829,
      "duration": 0.0924,
      "velocity": 117,
      "chip": "ym2612"
    },
    {
      "channel": 1,
      "note": 85,
      "start": 56.8834,
      "duration": 12.5937,
      "velocity": 1,
      "chip": "ym2612"
    },
    {
      "channel": 2,
      "note": 61,
      "start": 56.884,
      "duration": 12.5931,
      "velocity": 1,
      "chip": "ym2612"
    },
    {
      "channel": 3,
      "note": 67,
      "start": 56.8846,
      "duration": 0.1728,
      "velocity": 127,
      "chip": "ym2612"
    },
    {
      "channel": 4,
      "note": 80,
      "start": 56.8852,
      "duration": 12.5919,
      "velocity": 1,
      "chip": "ym2612"
    },
    {
      "channel": 0,
      "note": 51,
      "start": 56.9753,
      "duration": 0.0078,
      "velocity": 117,
      "chip": "ym2612"
    },
    {
      "channel": 0,
      "note": 51,
      "start": 56.9832,
      "duration": 0.0244,
      "velocity": 117,
      "chip": "ym2612"
    },
    {
      "channel": 0,
      "note": 50,
      "start": 57.0076,
      "duration": 0.014,
      "velocity": 117,
      "chip": "ym2612"
    },
    {
      "channel": 0,
      "note": 50,
      "start": 57.0216,
      "duration": 0.0104,
      "velocity": 117,
      "chip": "ym2612"
    },
    {
      "channel": 0,
      "note": 49,
      "start": 57.032,
      "duration": 0.0124,
      "velocity": 117,
      "chip": "ym2612"
    },
    {
      "channel": 0,
      "note": 48,
      "start": 57.0443,
      "duration": 0.0124,
      "velocity": 117,
      "chip": "ym2612"
    },
    {
      "channel": 0,
      "note": 49,
      "start": 57.0569,
      "duration": 12.4202,
      "velocity": 117,
      "chip": "ym2612"
    },
    {
      "channel": 3,
      "note": 67,
      "start": 57.0576,
      "duration": 0.1995,
      "velocity": 127,
      "chip": "ym2612"
    },
    {
      "channel": 3,
      "note": 67,
      "start": 57.2573,
      "duration": 12.2198,
      "velocity": 127,
      "chip": "ym2612"
    }
  ]
}