{
  "track_name": "04 - Escape Hero (Short Version)",
  "duration_sec": 28.392,
  "sample_rate": 44100,
  "note_count": 705,
  "unique_pitches": 33,
  "pitch_range": 57,
  "avg_note_duration": 0.1246,
  "reconstruction_stats": {
    "notes_reconstructed": 705,
    "keyon_events": 705,
    "keyoff_events": 580,
    "orphan_keyons": 3,
    "unique_pitches": 33,
    "pitch_range": 57,
    "avg_duration_sec": 0.1246
  },
  "metadata": {
    "source": "D\\Dynamite Headdy\\04 - Escape Hero (Short Version).vgz"
  },
  "notes": [
    {
      "channel": 0,
      "note": 93,
      "start": 0.0,
      "duration": 0.0073,
      "velocity": 50,
      "chip": "ym2612"
    },
    {
      "channel": 1,
      "note": 69,
      "start": 0.0011,
      "duration": 0.0033,
      "velocity": 110,
      "chip": "ym2612"
    },
    {
      "channel": 2,
      "note": 105,
      "start": 0.0021,
      "duration": 0.0024,
      "velocity": 107,
      "chip": "ym2612"
    },
    {
      "channel": 3,
      "note": 76,
      "start": 0.0032,
      "duration": 0.1753,
      "velocity": 107,
      "chip": "ym2612"
    },
    {
      "channel": 2,
      "note": 93,
      "start": 0.0047,
      "duration": 0.003,
      "velocity": 107,
      "chip": "ym2612"
    },
    {
      "channel": 0,
      "note": 81,
      "start": 0.0073,
      "duration": 0.1708,
      "velocity": 50,
      "chip": "ym2612"
    },
    {
      "channel": 1,
      "note": 67,
      "start": 0.0077,
      "duration": 0.078,
      "velocity": 110,
      "chip": "ym2612"
    },
    {
      "channel": 2,
      "note": 105,
      "start": 0.008,
      "duration": 0.0778,
      "velocity": 107,
      "chip": "ym2612"
    },
    {
      "channel": 2,
      "note": 93,
      "start": 0.0861,
      "duration": 0.079,
      "velocity": 107,
      "chip": "ym2612"
    },
    {
      "channel": 1,
      "note": 69,
      "start": 0.1651,
      "duration": 0.0032,
      "velocity": 110,
      "chip": "ym2612"
    },
    {
      "channel": 2,
      "note": 105,
      "start": 0.1655,
      "duration": 0.003,
      "velocity": 107,
      "chip": "ym2612"
    },
    {
      "channel": 4,
      "note": 93,
      "start": 0.1668,
      "duration": 0.0064,
      "velocity": 50,
      "chip": "ym2612"
    },
    {
      "channel": 2,
      "note": 93,
      "start": 0.1687,
      "duration": 0.0027,
      "velocity": 107,
      "chip": "ym2612"
    },
    {
      "channel": 1,
      "note": 57,
      "start": 0.1714,
      "duration": 0.0039,
      "velocity": 110,
      "chip": "ym2612"
    },
    {
      "channel": 2,
      "note": 105,
      "start": 0.1717,
      "duration": 0.0038,
      "velocity": 107,
      "chip": "ym2612"
    },
    {
      "channel": 4,
      "note": 81,
      "start": 0.1732,
      "duration": 0.1723,
      "velocity": 100,
      "chip": "ym2612"
    },
    {
      "channel": 1,
      "note": 69,
      "start": 0.1754,
      "duration": 0.0027,
      "velocity": 110,
      "chip": "ym2612"
    },
    {
      "channel": 2,
      "note": 93,
      "start": 0.1758,
      "duration": 0.0024,
      "velocity": 107,
      "chip": "ym2612"
    },
    {
      "channel": 0,
      "note": 81,
      "start": 0.1781,
      "duration": 0.0177,
      "velocity": 50,
      "chip": "ym2612"
    },
    {
      "channel": 2,
      "note": 105,
      "start": 0.1783,
      "duration": 0.0178,
      "velocity": 107,
      "chip": "ym2612"
    },
    {
      "channel": 3,
      "note": 76,
      "start": 0.1785,
      "duration": 0.018,
      "velocity": 107,
      "chip": "ym2612"
    },
    {
      "channel": 0,
      "note": 81,
      "start": 0.1958,
      "duration": 0.0039,
      "velocity": 50,
      "chip": "ym2612"
    },
    {
      "channel": 1,
      "note": 69,
      "start": 0.196,
      "duration": 0.0037,
      "velocity": 110,
      "chip": "ym2612"
    },
    {
      "channel": 2,
      "note": 93,
      "start": 0.1963,
      "duration": 0.0036,
      "velocity": 107,
      "chip": "ym2612"
    },
    {
      "channel": 3,
      "note": 76,
      "start": 0.1967,
      "duration": 0.0039,
      "velocity": 107,
      "chip": "ym2612"
    },
    {
      "channel": 0,
      "note": 81,
      "start": 0.1997,
      "duration": 0.004,
      "velocity": 50,
      "chip": "ym2612"
    },
    {
      "channel": 2,
      "note": 105,
      "start": 0.2002,
      "duration": 0.0038,
      "velocity": 107,
      "chip": "ym2612"
    },
    {
      "channel": 3,
      "note": 76,
      "start": 0.2007,
      "duration": 0.0037,
      "velocity": 107,
      "chip": "ym2612"
    },
    {
      "channel": 0,
      "note": 81,
      "start": 0.2037,
      "duration": 0.0793,
      "velocity": 50,
      "chip": "ym2612"
    },
    {
      "channel": 1,
      "note": 67,
      "start": 0.204,
      "duration": 0.0792,
      "velocity": 110,
      "chip": "ym2612"
    },
    {
      "channel": 2,
      "note": 93,
      "start": 0.2043,
      "duration": 0.0791,
      "velocity": 107,
      "chip": "ym2612"
    },
    {
      "channel": 3,
      "note": 76,
      "start": 0.2047,
      "duration": 0.0794,
      "velocity": 107,
      "chip": "ym2612"
    },
    {
      "channel": 0,
      "note": 81,
      "start": 0.283,
      "duration": 0.0029,
      "velocity": 50,
      "chip": "ym2612"
    },
    {
      "channel": 1,
      "note": 69,
      "start": 0.2834,
      "duration": 0.0023,
      "velocity": 110,
      "chip": "ym2612"
    },
    {
      "channel": 2,
      "note": 105,
      "start": 0.2837,
      "duration": 0.0024,
      "velocity": 107,
      "chip": "ym2612"
    },
    {
      "channel": 3,
      "note": 76,
      "start": 0.2842,
      "duration": 0.0021,
      "velocity": 107,
      "chip": "ym2612"
    },
    {
      "channel": 0,
      "note": 81,
      "start": 0.286,
      "duration": 0.0022,
      "velocity": 50,
      "chip": "ym2612"
    },
    {
      "channel": 2,
      "note": 93,
      "start": 0.2863,
      "duration": 0.0025,
      "velocity": 107,
      "chip": "ym2612"
    },
    {
      "channel": 3,
      "note": 76,
      "start": 0.2865,
      "duration": 0.0027,
      "velocity": 107,
      "chip": "ym2612"
    },
    {
      "channel": 0,
      "note": 81,
      "start": 0.2882,
      "duration": 0.0032,
      "velocity": 50,
      "chip": "ym2612"
    },
    {
      "channel": 1,
      "note": 57,
      "start": 0.2887,
      "duration": 0.0027,
      "velocity": 110,
      "chip": "ym2612"
    },
    {
      "channel": 2,
      "note": 105,
      "start": 0.2891,
      "duration": 0.0026,
      "velocity": 107,
      "chip": "ym2612"
    },
    {
      "channel": 3,
      "note": 76,
      "start": 0.2894,
      "duration": 0.0027,
      "velocity": 107,
      "chip": "ym2612"
    },
    {
      "channel": 0,
      "note": 81,
      "start": 0.2913,
      "duration": 0.0043,
      "velocity": 100,
      "chip": "ym2612"
    },
    {
      "channel": 1,
      "note": 57,
      "start": 0.2916,
      "duration": 0.0049,
      "velocity": 110,
      "chip": "ym2612"
    },
    {
      "channel": 2,
      "note": 93,
      "start": 0.292,
      "duration": 0.0047,
      "velocity": 107,
      "chip": "ym2612"
    },
    {
      "channel": 3,
      "note": 76,
      "start": 0.2923,
      "duration": 0.0057,
      "velocity": 96,
      "chip": "ym2612"
    },
    {
      "channel": 0,
      "note": 81,
      "start": 0.2957,
      "duration": 0.0218,
      "velocity": 100,
      "chip": "ym2612"
    },
    {
      "channel": 1,
      "note": 69,
      "start": 0.2966,
      "duration": 0.003,
      "velocity": 110,
      "chip": "ym2612"
    },
    {
      "channel": 2,
      "note": 105,
      "start": 0.2969,
      "duration": 0.0028,
      "velocity": 107,
      "chip": "ym2612"
    },
    {
      "channel": 3,
      "note": 78,
      "start": 0.2981,
      "duration": 0.019,
      "velocity": 96,
      "chip": "ym2612"
    },
    {
      "channel": 2,
      "note": 93,
      "start": 0.2998,
      "duration": 0.0147,
      "velocity": 107,
      "chip": "ym2612"
    },
    {
      "channel": 1,
      "note": 67,
      "start": 0.3145,
      "duration": 0.0022,
      "velocity": 110,
      "chip": "ym2612"
    },
    {
      "channel": 2,
      "note": 105,
      "start": 0.3148,
      "duration": 0.002,
      "velocity": 107,
      "chip": "ym2612"
    },
    {
      "channel": 2,
      "note": 93,
      "start": 0.3171,
      "duration": 0.0265,
      "velocity": 107,
      "chip": "ym2612"
    },
    {
      "channel": 1,
      "note": 69,
      "start": 0.3435,
      "duration": 0.0032,
      "velocity": 110,
      "chip": "ym2612"
    },
    {
      "channel": 2,
      "note": 105,
      "start": 0.3438,
      "duration": 0.0029,
      "velocity": 107,
      "chip": "ym2612"
    },
    {
      "channel": 3,
      "note": 78,
      "start": 0.3443,
      "duration": 0.0078,
      "velocity": 96,
      "chip": "ym2612"
    },
    {
      "channel": 4,
      "note": 81,
      "start": 0.3456,
      "duration": 0.007,
      "velocity": 100,
      "chip": "ym2612"
    },
    {
      "channel": 2,
      "note": 93,
      "start": 0.347,
      "duration": 0.0025,
      "velocity": 107,
      "chip": "ym2612"
    },
    {
      "channel": 1,
      "note": 57,
      "start": 0.3494,
      "duration": 0.002,
      "velocity": 110,
      "chip": "ym2612"
    },
    {
      "channel": 2,
      "note": 105,
      "start": 0.3497,
      "duration": 0.0019,
      "velocity": 107,
      "chip": "ym2612"
    },
    {
      "channel": 1,
      "note": 69,
      "start": 0.3516,
      "duration": 0.0022,
      "velocity": 110,
      "chip": "ym2612"
    },
    {
      "channel": 2,
      "note": 93,
      "start": 0.352,
      "duration": 0.0018,
      "velocity": 107,
      "chip": "ym2612"
    },
    {
      "channel": 0,
      "note": 88,
      "start": 0.3537,
      "duration": 0.0173,
      "velocity": 101,
      "chip": "ym2612"
    },
    {
      "channel": 2,
      "note": 105,
      "start": 0.354,
      "duration": 0.0176,
      "velocity": 107,
      "chip": "ym2612"
    },
    {
      "channel": 3,
      "note": 78,
      "start": 0.355,
      "duration": 0.021,
      "velocity": 96,
      "chip": "ym2612"
    },
    {
      "channel": 0,
      "note": 79,
      "start": 0.3712,
      "duration": 0.002,
      "velocity": 101,
      "chip": "ym2612"
    },
    {
      "channel": 1,
      "note": 69,
      "start": 0.3715,
      "duration": 0.0021,
      "velocity": 110,
      "chip": "ym2612"
    },
    {
      "channel": 2,
      "note": 93,
      "start": 0.3718,
      "duration": 0.0019,
      "velocity": 107,
      "chip": "ym2612"
    },
    {
      "channel": 0,
      "note": 82,
      "start": 0.3735,
      "duration": 0.0015,
      "velocity": 101,
      "chip": "ym2612"
    },
    {
      "channel": 2,
      "note": 105,
      "start": 0.374,
      "duration": 0.0017,
      "velocity": 107,
      "chip": "ym2612"
    },
    {
      "channel": 0,
      "note": 85,
      "start": 0.3752,
      "duration": 0.0011,
      "velocity": 101,
      "chip": "ym2612"
    },
    {
      "channel": 1,
      "note": 67,
      "start": 0.3756,
      "duration": 0.0179,
      "velocity": 110,
      "chip": "ym2612"
    },
    {
      "channel": 2,
      "note": 93,
      "start": 0.3759,
      "duration": 0.0178,
      "velocity": 107,
      "chip": "ym2612"
    },
    {
      "channel": 0,
      "note": 88,
      "start": 0.3765,
      "duration": 0.0167,
      "velocity": 101,
      "chip": "ym2612"
    },
    {
      "channel": 0,
      "note": 91,
      "start": 0.3934,
      "duration": 0.0037,
      "velocity": 101,
      "chip": "ym2612"
    },
    {
      "channel": 1,
      "note": 69,
      "start": 0.3937,
      "duration": 0.0031,
      "velocity": 110,
      "chip": "ym2612"
    },
    {
      "channel": 2,
      "note": 105,
      "start": 0.3941,
      "duration": 0.0031,
      "velocity": 107,
      "chip": "ym2612"
    },
    {
      "channel": 3,
      "note": 78,
      "start": 0.3945,
      "duration": 0.0069,
      "velocity": 96,
      "chip": "ym2612"
    },
    {
      "channel": 4,
      "note": 88,
      "start": 0.3957,
      "duration": 0.0018,
      "velocity": 101,
      "chip": "ym2612"
    },
    {
      "channel": 2,
      "note": 93,
      "start": 0.3974,
      "duration": 0.0017,
      "velocity": 107,
      "chip": "ym2612"
    },
    {
      "channel": 4,
      "note": 79,
      "start": 0.3977,
      "duration": 0.002,
      "velocity": 101,
      "chip": "ym2612"
    },
    {
      "channel": 1,
      "note": 57,
      "start": 0.3991,
      "duration": 0.0018,
      "velocity": 110,
      "chip": "ym2612"
    },
    {
      "channel": 2,
      "note": 105,
      "start": 0.3994,
      "duration": 0.0017,
      "velocity": 107,
      "chip": "ym2612"
    },
    {
      "channel": 4,
      "note": 82,
      "start": 0.3998,
      "duration": 0.0007,
      "velocity": 101,
      "chip": "ym2612"
    },
    {
      "channel": 4,
      "note": 85,
      "start": 0.4007,
      "duration": 0.0011,
      "velocity": 101,
      "chip": "ym2612"
    },
    {
      "channel": 1,
      "note": 57,
      "start": 0.401,
      "duration": 0.0288,
      "velocity": 110,
      "chip": "ym2612"
    },
    {
      "channel": 2,
      "note": 93,
      "start": 0.4014,
      "duration": 0.0286,
      "velocity": 107,
      "chip": "ym2612"
    },
    {
      "channel": 4,
      "note": 88,
      "start": 0.4019,
      "duration": 0.0294,
      "velocity": 101,
      "chip": "ym2612"
    },
    {
      "channel": 0,
      "note": 91,
      "start": 0.429,
      "duration": 0.0071,
      "velocity": 50,
      "chip": "ym2612"
    },
    {
      "channel": 1,
      "note": 69,
      "start": 0.4299,
      "duration": 0.0033,
      "velocity": 110,
      "chip": "ym2612"
    },
    {
      "channel": 2,
      "note": 105,
      "start": 0.4302,
      "duration": 0.0031,
      "velocity": 107,
      "chip": "ym2612"
    },
    {
      "channel": 3,
      "note": 76,
      "start": 0.4312,
      "duration": 0.1761,
      "velocity": 107,
      "chip": "ym2612"
    },
    {
      "channel": 4,
      "note": 91,
      "start": 0.4315,
      "duration": 0.0024,
      "velocity": 101,
      "chip": "ym2612"
    },
    {
      "channel": 2,
      "note": 93,
      "start": 0.4336,
      "duration": 0.003,
      "velocity": 107,
      "chip": "ym2612"
    },
    {
      "channel": 0,
      "note": 79,
      "start": 0.4361,
      "duration": 0.1707,
      "velocity": 50,
      "chip": "ym2612"
    },
    {
      "channel": 1,
      "note": 67,
      "start": 0.4365,
      "duration": 0.078,
      "velocity": 110,
      "chip": "ym2612"
    },
    {
      "channel": 2,
      "note": 105,
      "start": 0.4368,
      "duration": 0.0778,
      "velocity": 107,
      "chip": "ym2612"
    },
    {
      "channel": 2,
      "note": 93,
      "start": 0.515,
      "duration": 0.0791,
      "velocity": 107,
      "chip": "ym2612"
    },
    {
      "channel": 1,
      "note": 69,
      "start": 0.594,
      "duration": 0.0034,
      "velocity": 110,
      "chip": "ym2612"
    },
    {
      "channel": 2,
      "note": 105,
      "start": 0.5944,
      "duration": 0.0031,
      "velocity": 107,
      "chip": "ym2612"
    },
    {
      "channel": 4,
      "note": 91,
      "start": 0.5957,
      "duration": 0.0065,
      "velocity": 50,
      "chip": "ym2612"
    },
    {
      "channel": 2,
      "note": 93,
      "start": 0.5978,
      "duration": 0.0027,
      "velocity": 107,
      "chip": "ym2612"
    },
    {
      "channel": 1,
      "note": 57,
      "start": 0.6005,
      "duration": 0.0038,
      "velocity": 110,
      "chip": "ym2612"
    },
    {
      "channel": 2,
      "note": 105,
      "start": 0.6008,
      "duration": 0.0038,
      "velocity": 107,
      "chip": "ym2612"
    },
    {
      "channel": 4,
      "note": 79,
      "start": 0.6022,
      "duration": 0.1722,
      "velocity": 100,
      "chip": "ym2612"
    },
    {
      "channel": 1,
      "note": 69,
      "start": 0.6045,
      "duration": 0.0025,
      "velocity": 110,
      "chip": "ym2612"
    },
    {
      "channel": 2,
      "note": 93,
      "start": 0.6048,
      "duration": 0.0022,
      "velocity": 107,
      "chip": "ym2612"
    },
    {
      "channel": 0,
      "note": 79,
      "start": 0.6069,
      "duration": 0.0177,
      "velocity": 50,
      "chip": "ym2612"
    },
    {
      "channel": 2,
      "note": 105,
      "start": 0.6072,
      "duration": 0.0177,
      "velocity": 107,
      "chip": "ym2612"
    },
    {
      "channel": 3,
      "note": 76,
      "start": 0.6074,
      "duration": 0.0179,
      "velocity": 107,
      "chip": "ym2612"
    },
    {
      "channel": 0,
      "note": 79,
      "start": 0.6246,
      "duration": 0.004,
      "velocity": 50,
      "chip": "ym2612"
    },
    {
      "channel": 1,
      "note": 69,
      "start": 0.6248,
      "duration": 0.0038,
      "velocity": 110,
      "chip": "ym2612"
    },
    {
      "channel": 2,
      "note": 93,
      "start": 0.6251,
      "duration": 0.0036,
      "velocity": 107,
      "chip": "ym2612"
    },
    {
      "channel": 3,
      "note": 76,
      "start": 0.6255,
      "duration": 0.004,
      "velocity": 107,
      "chip": "ym2612"
    },
    {
      "channel": 0,
      "note": 79,
      "start": 0.6285,
      "duration": 0.0039,
      "velocity": 50,
      "chip": "ym2612"
    },
    {
      "channel": 2,
      "note": 105,
      "start": 0.6291,
      "duration": 0.0037,
      "velocity": 107,
      "chip": "ym2612"
    },
    {
      "channel": 3,
      "note": 76,
      "start": 0.6296,
      "duration": 0.0036,
      "velocity": 107,
      "chip": "ym2612"
    },
    {
      "channel": 0,
      "note": 79,
      "start": 0.6324,
      "duration": 0.0794,
      "velocity": 50,
      "chip": "ym2612"
    },
    {
      "channel": 1,
      "note": 67,
      "start": 0.6328,
      "duration": 0.0791,
      "velocity": 110,
      "chip": "ym2612"
    },
    {
      "channel": 2,
      "note": 93,
      "start": 0.6331,
      "duration": 0.0791,
      "velocity": 107,
      "chip": "ym2612"
    },
    {
      "channel": 3,
      "note": 76,
      "start": 0.6335,
      "duration": 0.0794,
      "velocity": 107,
      "chip": "ym2612"
    },
    {
      "channel": 0,
      "note": 79,
      "start": 0.7118,
      "duration": 0.0028,
      "velocity": 50,
      "chip": "ym2612"
    },
    {
      "channel": 1,
      "note": 69,
      "start": 0.7121,
      "duration": 0.0021,
      "velocity": 110,
      "chip": "ym2612"
    },
    {
      "channel": 2,
      "note": 105,
      "start": 0.7124,
      "duration": 0.0023,
      "velocity": 107,
      "chip": "ym2612"
    },
    {
      "channel": 3,
      "note": 76,
      "start": 0.713,
      "duration": 0.002,
      "velocity": 107,
      "chip": "ym2612"
    },
    {
      "channel": 0,
      "note": 79,
      "start": 0.7146,
      "duration": 0.0022,
      "velocity": 50,
      "chip": "ym2612"
    },
    {
      "channel": 2,
      "note": 93,
      "start": 0.715,
      "duration": 0.0025,
      "velocity": 107,
      "chip": "ym2612"
    },
    {
      "channel": 3,
      "note": 76,
      "start": 0.7152,
      "duration": 0.0027,
      "velocity": 107,
      "chip": "ym2612"
    },
    {
      "channel": 0,
      "note": 79,
      "start": 0.7168,
      "duration": 0.003,
      "velocity": 50,
      "chip": "ym2612"
    },
    {
      "channel": 1,
      "note": 57,
      "start": 0.7174,
      "duration": 0.0025,
      "velocity": 110,
      "chip": "ym2612"
    },
    {
      "channel": 2,
      "note": 105,
      "start": 0.7177,
      "duration": 0.0025,
      "velocity": 107,
      "chip": "ym2612"
    },
    {
      "channel": 3,
      "note": 76,
      "start": 0.7181,
      "duration": 0.0026,
      "velocity": 107,
      "chip": "ym2612"
    },
    {
      "channel": 0,
      "note": 79,
      "start": 0.7199,
      "duration": 0.0042,
      "velocity": 100,
      "chip": "ym2612"
    },
    {
      "channel": 1,
      "note": 57,
      "start": 0.7201,
      "duration": 0.0049,
      "velocity": 110,
      "chip": "ym2612"
    },
    {
      "channel": 2,
      "note": 93,
      "start": 0.7205,
      "duration": 0.0047,
      "velocity": 107,
      "chip": "ym2612"
    },
    {
      "channel": 3,
      "note": 76,
      "start": 0.7208,
      "duration": 0.0055,
      "velocity": 96,
      "chip": "ym2612"
    },
    {
      "channel": 0,
      "note": 81,
      "start": 0.7243,
      "duration": 0.0227,
      "velocity": 101,
      "chip": "ym2612"
    },
    {
      "channel": 1,
      "note": 69,
      "start": 0.7252,
      "duration": 0.0028,
      "velocity": 110,
      "chip": "ym2612"
    },
    {
      "channel": 2,
      "note": 105,
      "start": 0.7254,
      "duration": 0.0027,
      "velocity": 107,
      "chip": "ym2612"
    },
    {
      "channel": 3,
      "note": 78,
      "start": 0.7265,
      "duration": 0.019,
      "velocity": 96,
      "chip": "ym2612"
    },
    {
      "channel": 2,
      "note": 93,
      "start": 0.7282,
      "duration": 0.0148,
      "velocity": 107,
      "chip": "ym2612"
    },
    {
      "channel": 1,
      "note": 67,
      "start": 0.7429,
      "duration": 0.0023,
      "velocity": 110,
      "chip": "ym2612"
    },
    {
      "channel": 2,
      "note": 105,
      "start": 0.7433,
      "duration": 0.002,
      "velocity": 107,
      "chip": "ym2612"
    },
    {
      "channel": 2,
      "note": 93,
      "start": 0.7455,
      "duration": 0.027,
      "velocity": 107,
      "chip": "ym2612"
    },
    {
      "channel": 0,
      "note": 91,
      "start": 0.7471,
      "duration": 0.0249,
      "velocity": 101,
      "chip": "ym2612"
    },
    {
      "channel": 0,
      "note": 88,
      "start": 0.7722,
      "duration": 0.0034,
      "velocity": 101,
      "chip": "ym2612"
    },
    {
      "channel": 1,
      "note": 69,
      "start": 0.7724,
      "duration": 0.0038,
      "velocity": 110,
      "chip": "ym2612"
    },
    {
      "channel": 2,
      "note": 105,
      "start": 0.7728,
      "duration": 0.0035,
      "velocity": 107,
      "chip": "ym2612"
    },
    {
      "channel": 3,
      "note": 78,
      "start": 0.7733,
      "duration": 0.0095,
      "velocity": 96,
      "chip": "ym2612"
    },
    {
      "channel": 4,
      "note": 81,
      "start": 0.7746,
      "duration": 0.0098,
      "velocity": 101,
      "chip": "ym2612"
    },
    {
      "channel": 0,
      "note": 85,
      "start": 0.7757,
      "duration": 0.0014,
      "velocity": 101,
      "chip": "ym2612"
    },
    {
      "channel": 2,
      "note": 93,
      "start": 0.7766,
      "duration": 0.002,
      "velocity": 107,
      "chip": "ym2612"
    },
    {
      "channel": 0,
      "note": 81,
      "start": 0.7772,
      "duration": 0.0265,
      "velocity": 101,
      "chip": "ym2612"
    },
    {
      "channel": 1,
      "note": 57,
      "start": 0.7785,
      "duration": 0.0036,
      "velocity": 110,
      "chip": "ym2612"
    },
    {
      "channel": 2,
      "note": 105,
      "start": 0.7788,
      "duration": 0.0036,
      "velocity": 107,
      "chip": "ym2612"
    },
    {
      "channel": 1,
      "note": 69,
      "start": 0.7823,
      "duration": 0.0029,
      "velocity": 110,
      "chip": "ym2612"
    },
    {
      "channel": 2,
      "note": 93,
      "start": 0.7827,
      "duration": 0.0026,
      "velocity": 107,
      "chip": "ym2612"
    },
    {
      "channel": 4,
      "note": 91,
      "start": 0.7846,
      "duration": 0.0018,
      "velocity": 101,
      "chip": "ym2612"
    },
    {
      "channel": 2,
      "note": 105,
      "start": 0.7854,
      "duration": 0.017,
      "velocity": 107,
      "chip": "ym2612"
    },
    {
      "channel": 3,
      "note": 78,
      "start": 0.7864,
      "duration": 0.0226,
      "velocity": 96,
      "chip": "ym2612"
    },
    {
      "channel": 4,
      "note": 88,
      "start": 0.7865,
      "duration": 0.0012,
      "velocity": 101,
      "chip": "ym2612"
    },
    {
      "channel": 4,
      "note": 85,
      "start": 0.7878,
      "duration": 0.0159,
      "velocity": 101,
      "chip": "ym2612"
    },
    {
      "channel": 1,
      "note": 69,
      "start": 0.8023,
      "duration": 0.0039,
      "velocity": 110,
      "chip": "ym2612"
    },
    {
      "channel": 2,
      "note": 93,
      "start": 0.8026,
      "duration": 0.0037,
      "velocity": 107,
      "chip": "ym2612"
    },
    {
      "channel": 0,
      "note": 81,
      "start": 0.8036,
      "duration": 0.0299,
      "velocity": 101,
      "chip": "ym2612"
    },
    {
      "channel": 4,
      "note": 81,
      "start": 0.8039,
      "duration": 0.0256,
      "velocity": 101,
      "chip": "ym2612"
    },
    {
      "channel": 2,
      "note": 105,
      "start": 0.8066,
      "duration": 0.0022,
      "velocity": 107,
      "chip": "ym2612"
    },
    {
      "channel": 1,
      "note": 67,
      "start": 0.8088,
      "duration": 0.0171,
      "velocity": 110,
      "chip": "ym2612"
    },
    {
      "channel": 2,
      "note": 93,
      "start": 0.8089,
      "duration": 0.0172,
      "velocity": 107,
      "chip": "ym2612"
    },
    {
      "channel": 1,
      "note": 69,
      "start": 0.826,
      "duration": 0.0022,
      "velocity": 110,
      "chip": "ym2612"
    },
    {
      "channel": 2,
      "note": 105,
      "start": 0.8264,
      "duration": 0.0022,
      "velocity": 107,
      "chip": "ym2612"
    },
    {
      "channel": 3,
      "note": 78,
      "start": 0.827,
      "duration": 0.0075,
      "velocity": 96,
      "chip": "ym2612"
    },
    {
      "channel": 2,
      "note": 93,
      "start": 0.8289,
      "duration": 0.0031,
      "velocity": 107,
      "chip": "ym2612"
    },
    {
      "channel": 4,
      "note": 81,
      "start": 0.8295,
      "duration": 0.0851,
      "velocity": 101,
      "chip": "ym2612"
    },
    {
      "channel": 1,
      "note": 57,
      "start": 0.8319,
      "duration": 0.0021,
      "velocity": 110,
      "chip": "ym2612"
    },
    {
      "channel": 2,
      "note": 105,
      "start": 0.8322,
      "duration": 0.002,
      "velocity": 107,
      "chip": "ym2612"
    },
    {
      "channel": 0,
      "note": 81,
      "start": 0.8336,
      "duration": 0.028,
      "velocity": 107,
      "chip": "ym2612"
    },
    {
      "channel": 1,
      "note": 57,
      "start": 0.8341,
      "duration": 0.0285,
      "velocity": 110,
      "chip": "ym2612"
    },
    {
      "channel": 2,
      "note": 93,
      "start": 0.8344,
      "duration": 0.0284,
      "velocity": 107,
      "chip": "ym2612"
    },
    {
      "channel": 0,
      "note": 90,
      "start": 0.8618,
      "duration": 0.0076,
      "velocity": 50,
      "chip": "ym2612"
    },
    {
      "channel": 1,
      "note": 69,
      "start": 0.8627,
      "duration": 0.0032,
      "velocity": 110,
      "chip": "ym2612"
    },
    {
      "channel": 2,
      "note": 105,
      "start": 0.8629,
      "duration": 0.0033,
      "velocity": 107,
      "chip": "ym2612"
    },
    {
      "channel": 3,
      "note": 76,
      "start": 0.8639,
      "duration": 0.1767,
      "velocity": 107,
      "chip": "ym2612"
    },
    {
      "channel": 2,
      "note": 93,
      "start": 0.8664,
      "duration": 0.0035,
      "velocity": 107,
      "chip": "ym2612"
    },
    {
      "channel": 0,
      "note": 78,
      "start": 0.8694,
      "duration": 0.1707,
      "velocity": 50,
      "chip": "ym2612"
    },
    {
      "channel": 1,
      "note": 67,
      "start": 0.8697,
      "duration": 0.0781,
      "velocity": 110,
      "chip": "ym2612"
    },
    {
      "channel": 2,
      "note": 105,
      "start": 0.87,
      "duration": 0.0778,
      "velocity": 107,
      "chip": "ym2612"
    },
    {
      "channel": 4,
      "note": 81,
      "start": 0.9147,
      "duration": 0.1141,
      "velocity": 107,
      "chip": "ym2612"
    },
    {
      "channel": 2,
      "note": 93,
      "start": 0.9482,
      "duration": 0.0791,
      "velocity": 107,
      "chip": "ym2612"
    },
    {
      "channel": 1,
      "note": 69,
      "start": 1.0272,
      "duration": 0.0034,
      "velocity": 110,
      "chip": "ym2612"
    },
    {
      "channel": 2,
      "note": 105,
      "start": 1.0276,
      "duration": 0.0032,
      "velocity": 107,
      "chip": "ym2612"
    },
    {
      "channel": 4,
      "note": 90,
      "start": 1.0289,
      "duration": 0.0066,
      "velocity": 50,
      "chip": "ym2612"
    },
    {
      "channel": 2,
      "note": 93,
      "start": 1.0311,
      "duration": 0.0027,
      "velocity": 107,
      "chip": "ym2612"
    },
    {
      "channel": 1,
      "note": 57,
      "start": 1.0337,
      "duration": 0.0038,
      "velocity": 110,
      "chip": "ym2612"
    },
    {
      "channel": 2,
      "note": 105,
      "start": 1.034,
      "duration": 0.0038,
      "velocity": 107,
      "chip": "ym2612"
    },
    {
      "channel": 4,
      "note": 78,
      "start": 1.0354,
      "duration": 0.1724,
      "velocity": 100,
      "chip": "ym2612"
    },
    {
      "channel": 1,
      "note": 69,
      "start": 1.0377,
      "duration": 0.0024,
      "velocity": 110,
      "chip": "ym2612"
    },
    {
      "channel": 2,
      "note": 93,
      "start": 1.038,
      "duration": 0.0022,
      "velocity": 107,
      "chip": "ym2612"
    },
    {
      "channel": 0,
      "note": 78,
      "start": 1.0401,
      "duration": 0.0177,
      "velocity": 50,
      "chip": "ym2612"
    },
    {
      "channel": 2,
      "note": 105,
      "start": 1.0404,
      "duration": 0.0176,
      "velocity": 107,
      "chip": "ym2612"
    },
    {
      "channel": 3,
      "note": 76,
      "start": 1.0406,
      "duration": 0.0181,
      "velocity": 107,
      "chip": "ym2612"
    },
    {
      "channel": 0,
      "note": 78,
      "start": 1.0578,
      "duration": 0.0039,
      "velocity": 50,
      "chip": "ym2612"
    },
    {
      "channel": 1,
      "note": 69,
      "start": 1.058,
      "duration": 0.0037,
      "velocity": 110,
      "chip": "ym2612"
    },
    {
      "channel": 2,
      "note": 93,
      "start": 1.0583,
      "duration": 0.0036,
      "velocity": 107,
      "chip": "ym2612"
    },
    {
      "channel": 3,
      "note": 76,
      "start": 1.0587,
      "duration": 0.004,
      "velocity": 107,
      "chip": "ym2612"
    },
    {
      "channel": 0,
      "note": 78,
      "start": 1.0617,
      "duration": 0.004,
      "velocity": 50,
      "chip": "ym2612"
    },
    {
      "channel": 2,
      "note": 105,
      "start": 1.0621,
      "duration": 0.0039,
      "velocity": 107,
      "chip": "ym2612"
    },
    {
      "channel": 3,
      "note": 76,
      "start": 1.0628,
      "duration": 0.0038,
      "velocity": 107,
      "chip": "ym2612"
    },
    {
      "channel": 0,
      "note": 78,
      "start": 1.0657,
      "duration": 0.0793,
      "velocity": 50,
      "chip": "ym2612"
    },
    {
      "channel": 1,
      "note": 67,
      "start": 1.0659,
      "duration": 0.0792,
      "velocity": 110,
      "chip": "ym2612"
    },
    {
      "channel": 2,
      "note": 93,
      "start": 1.0662,
      "duration": 0.0791,
      "velocity": 107,
      "chip": "ym2612"
    },
    {
      "channel": 3,
      "note": 76,
      "start": 1.0666,
      "duration": 0.0795,
      "velocity": 107,
      "chip": "ym2612"
    },
    {
      "channel": 0,
      "note": 78,
      "start": 1.1449,
      "duration": 0.0032,
      "velocity": 50,
      "chip": "ym2612"
    },
    {
      "channel": 1,
      "note": 69,
      "start": 1.1453,
      "duration": 0.0024,
      "velocity": 110,
      "chip": "ym2612"
    },
    {
      "channel": 2,
      "note": 105,
      "start": 1.1456,
      "duration": 0.0027,
      "velocity": 107,
      "chip": "ym2612"
    },
    {
      "channel": 3,
      "note": 76,
      "start": 1.1462,
      "duration": 0.0024,
      "velocity": 107,
      "chip": "ym2612"
    },
    {
      "channel": 0,
      "note": 78,
      "start": 1.1481,
      "duration": 0.0023,
      "velocity": 50,
      "chip": "ym2612"
    },
    {
      "channel": 2,
      "note": 93,
      "start": 1.1485,
      "duration": 0.0025,
      "velocity": 107,
      "chip": "ym2612"
    },
    {
      "channel": 3,
      "note": 76,
      "start": 1.1486,
      "duration": 0.0028,
      "velocity": 107,
      "chip": "ym2612"
    },
    {
      "channel": 0,
      "note": 78,
      "start": 1.1504,
      "duration": 0.0032,
      "velocity": 50,
      "chip": "ym2612"
    },
    {
      "channel": 1,
      "note": 57,
      "start": 1.1509,
      "duration": 0.0027,
      "velocity": 110,
      "chip": "ym2612"
    },
    {
      "channel": 2,
      "note": 105,
      "start": 1.1512,
      "duration": 0.0027,
      "velocity": 107,
      "chip": "ym2612"
    },
    {
      "channel": 3,
      "note": 76,
      "start": 1.1516,
      "duration": 0.0029,
      "velocity": 107,
      "chip": "ym2612"
    },
    {
      "channel": 0,
      "note": 78,
      "start": 1.1536,
      "duration": 0.0042,
      "velocity": 100,
      "chip": "ym2612"
    },
    {
      "channel": 1,
      "note": 57,
      "start": 1.1539,
      "duration": 0.0047,
      "velocity": 110,
      "chip": "ym2612"
    },
    {
      "channel": 2,
      "note": 93,
      "start": 1.1542,
      "duration": 0.0046,
      "velocity": 107,
      "chip": "ym2612"
    },
    {
      "channel": 3,
      "note": 76,
      "start": 1.1546,
      "duration": 0.0055,
      "velocity": 96,
      "chip": "ym2612"
    },
    {
      "channel": 0,
      "note": 81,
      "start": 1.1579,
      "duration": 0.0219,
      "velocity": 100,
      "chip": "ym2612"
    },
    {
      "channel": 1,
      "note": 69,
      "start": 1.1588,
      "duration": 0.0031,
      "velocity": 110,
      "chip": "ym2612"
    },
    {
      "channel": 2,
      "note": 105,
      "start": 1.1591,
      "duration": 0.0029,
      "velocity": 107,
      "chip": "ym2612"
    },
    {
      "channel": 3,
      "note": 78,
      "start": 1.1602,
      "duration": 0.0191,
      "velocity": 96,
      "chip": "ym2612"
    },
    {
      "channel": 2,
      "note": 93,
      "start": 1.1621,
      "duration": 0.0148,
      "velocity": 107,
      "chip": "ym2612"
    },
    {
      "channel": 1,
      "note": 67,
      "start": 1.1768,
      "duration": 0.0023,
      "velocity": 110,
      "chip": "ym2612"
    },
    {
      "channel": 2,
      "note": 105,
      "start": 1.1772,
      "duration": 0.002,
      "velocity": 107,
      "chip": "ym2612"
    },
    {
      "channel": 2,
      "note": 93,
      "start": 1.1793,
      "duration": 0.0266,
      "velocity": 107,
      "chip": "ym2612"
    },
    {
      "channel": 1,
      "note": 69,
      "start": 1.2058,
      "duration": 0.0031,
      "velocity": 110,
      "chip": "ym2612"
    },
    {
      "channel": 2,
      "note": 105,
      "start": 1.2061,
      "duration": 0.0029,
      "velocity": 107,
      "chip": "ym2612"
    },
    {
      "channel": 3,
      "note": 78,
      "start": 1.2066,
      "duration": 0.0097,
      "velocity": 96,
      "chip": "ym2612"
    },
    {
      "channel": 4,
      "note": 81,
      "start": 1.208,
      "duration": 0.009,
      "velocity": 100,
      "chip": "ym2612"
    },
    {
      "channel": 2,
      "note": 93,
      "start": 1.2092,
      "duration": 0.0041,
      "velocity": 107,
      "chip": "ym2612"
    },
    {
      "channel": 0,
      "note": 73,
      "start": 1.2129,
      "duration": 0.0024,
      "velocity": 101,
      "chip": "ym2612"
    },
    {
      "channel": 1,
      "note": 57,
      "start": 1.2132,
      "duration": 0.0024,
      "velocity": 110,
      "chip": "ym2612"
    },
    {
      "channel": 2,
      "note": 105,
      "start": 1.2135,
      "duration": 0.0024,
      "velocity": 107,
      "chip": "ym2612"
    },
    {
      "channel": 0,
      "note": 74,
      "start": 1.2156,
      "duration": 0.0017,
      "velocity": 101,
      "chip": "ym2612"
    },
    {
      "channel": 1,
      "note": 69,
      "start": 1.2158,
      "duration": 0.0017,
      "velocity": 110,
      "chip": "ym2612"
    },
    {
      "channel": 2,
      "note": 93,
      "start": 1.2162,
      "duration": 0.0014,
      "velocity": 107,
      "chip": "ym2612"
    },
    {
      "channel": 0,
      "note": 76,
      "start": 1.2176,
      "duration": 0.0178,
      "velocity": 101,
      "chip": "ym2612"
    },
    {
      "channel": 2,
      "note": 105,
      "start": 1.2178,
      "duration": 0.0181,
      "velocity": 107,
      "chip": "ym2612"
    },
    {
      "channel": 3,
      "note": 78,
      "start": 1.2188,
      "duration": 0.0229,
      "velocity": 96,
      "chip": "ym2612"
    },
    {
      "channel": 0,
      "note": 78,
      "start": 1.2355,
      "duration": 0.002,
      "velocity": 101,
      "chip": "ym2612"
    },
    {
      "channel": 1,
      "note": 69,
      "start": 1.2358,
      "duration": 0.002,
      "velocity": 110,
      "chip": "ym2612"
    },
    {
      "channel": 2,
      "note": 93,
      "start": 1.2361,
      "duration": 0.0019,
      "velocity": 107,
      "chip": "ym2612"
    },
    {
      "channel": 0,
      "note": 79,
      "start": 1.2378,
      "duration": 0.0032,
      "velocity": 101,
      "chip": "ym2612"
    },
    {
      "channel": 2,
      "note": 105,
      "start": 1.2383,
      "duration": 0.0031,
      "velocity": 107,
      "chip": "ym2612"
    },
    {
      "channel": 4,
      "note": 73,
      "start": 1.2399,
      "duration": 0.0019,
      "velocity": 101,
      "chip": "ym2612"
    },
    {
      "channel": 0,
      "note": 81,
      "start": 1.2411,
      "duration": 0.0163,
      "velocity": 101,
      "chip": "ym2612"
    },
    {
      "channel": 1,
      "note": 67,
      "start": 1.2413,
      "duration": 0.0164,
      "velocity": 110,
      "chip": "ym2612"
    },
    {
      "channel": 2,
      "note": 93,
      "start": 1.2417,
      "duration": 0.0164,
      "velocity": 107,
      "chip": "ym2612"
    },
    {
      "channel": 4,
      "note": 74,
      "start": 1.2418,
      "duration": 0.0171,
      "velocity": 101,
      "chip": "ym2612"
    },
    {
      "channel": 0,
      "note": 85,
      "start": 1.2577,
      "duration": 0.0024,
      "velocity": 101,
      "chip": "ym2612"
    },
    {
      "channel": 1,
      "note": 69,
      "start": 1.258,
      "duration": 0.0023,
      "velocity": 110,
      "chip": "ym2612"
    },
    {
      "channel": 2,
      "note": 105,
      "start": 1.2583,
      "duration": 0.0023,
      "velocity": 107,
      "chip": "ym2612"
    },
    {
      "channel": 3,
      "note": 78,
      "start": 1.2589,
      "duration": 0.0073,
      "velocity": 96,
      "chip": "ym2612"
    },
    {
      "channel": 4,
      "note": 76,
      "start": 1.2591,
      "duration": 0.0019,
      "velocity": 101,
      "chip": "ym2612"
    },
    {
      "channel": 2,
      "note": 93,
      "start": 1.2609,
      "duration": 0.0031,
      "velocity": 107,
      "chip": "ym2612"
    },
    {
      "channel": 4,
      "note": 78,
      "start": 1.2611,
      "duration": 0.0033,
      "velocity": 101,
      "chip": "ym2612"
    },
    {
      "channel": 1,
      "note": 57,
      "start": 1.2639,
      "duration": 0.0019,
      "velocity": 110,
      "chip": "ym2612"
    },
    {
      "channel": 2,
      "note": 105,
      "start": 1.2642,
      "duration": 0.0017,
      "velocity": 107,
      "chip": "ym2612"
    },
    {
      "channel": 4,
      "note": 79,
      "start": 1.2646,
      "duration": 0.0015,
      "velocity": 101,
      "chip": "ym2612"
    },
    {
      "channel": 1,
      "note": 57,
      "start": 1.2659,
      "duration": 0.0288,
      "velocity": 110,
      "chip": "ym2612"
    },
    {
      "channel": 2,
      "note": 93,
      "start": 1.2661,
      "duration": 0.0288,
      "velocity": 107,
      "chip": "ym2612"
    },
    {
      "channel": 4,
      "note": 81,
      "start": 1.2663,
      "duration": 0.03,
      "velocity": 101,
      "chip": "ym2612"
    },
    {
      "channel": 0,
      "note": 89,
      "start": 1.2939,
      "duration": 0.0073,
      "velocity": 50,
      "chip": "ym2612"
    },
    {
      "channel": 1,
      "note": 69,
      "start": 1.2948,
      "duration": 0.0035,
      "velocity": 110,
      "chip": "ym2612"
    },
    {
      "channel": 2,
      "note": 105,
      "start": 1.295,
      "duration": 0.0034,
      "velocity": 107,
      "chip": "ym2612"
    },
    {
      "channel": 3,
      "note": 76,
      "start": 1.2962,
      "duration": 0.1777,
      "velocity": 107,
      "chip": "ym2612"
    },
    {
      "channel": 4,
      "note": 85,
      "start": 1.2964,
      "duration": 0.0012,
      "velocity": 101,
      "chip": "ym2612"
    },
    {
      "channel": 2,
      "note": 93,
      "start": 1.2987,
      "duration": 0.0029,
      "velocity": 107,
      "chip": "ym2612"
    },
    {
      "channel": 0,
      "note": 77,
      "start": 1.3012,
      "duration": 0.1722,
      "velocity": 50,
      "chip": "ym2612"
    },
    {
      "channel": 1,
      "note": 67,
      "start": 1.3015,
      "duration": 0.078,
      "velocity": 110,
      "chip": "ym2612"
    },
    {
      "channel": 2,
      "note": 105,
      "start": 1.3019,
      "duration": 0.0778,
      "velocity": 107,
      "chip": "ym2612"
    },
    {
      "channel": 2,
      "note": 93,
      "start": 1.3799,
      "duration": 0.0791,
      "velocity": 107,
      "chip": "ym2612"
    },
    {
      "channel": 1,
      "note": 69,
      "start": 1.459,
      "duration": 0.0047,
      "velocity": 110,
      "chip": "ym2612"
    },
    {
      "channel": 2,
      "note": 105,
      "start": 1.4593,
      "duration": 0.0045,
      "velocity": 107,
      "chip": "ym2612"
    },
    {
      "channel": 4,
      "note": 89,
      "start": 1.4607,
      "duration": 0.0082,
      "velocity": 50,
      "chip": "ym2612"
    },
    {
      "channel": 2,
      "note": 93,
      "start": 1.4641,
      "duration": 0.003,
      "velocity": 107,
      "chip": "ym2612"
    },
    {
      "channel": 1,
      "note": 57,
      "start": 1.467,
      "duration": 0.0038,
      "velocity": 110,
      "chip": "ym2612"
    },
    {
      "channel": 2,
      "note": 105,
      "start": 1.4673,
      "duration": 0.0038,
      "velocity": 107,
      "chip": "ym2612"
    },
    {
      "channel": 4,
      "note": 77,
      "start": 1.4688,
      "duration": 0.1735,
      "velocity": 100,
      "chip": "ym2612"
    },
    {
      "channel": 1,
      "note": 69,
      "start": 1.471,
      "duration": 0.0024,
      "velocity": 110,
      "chip": "ym2612"
    },
    {
      "channel": 2,
      "note": 93,
      "start": 1.4714,
      "duration": 0.0022,
      "velocity": 107,
      "chip": "ym2612"
    },
    {
      "channel": 0,
      "note": 77,
      "start": 1.4734,
      "duration": 0.0177,
      "velocity": 50,
      "chip": "ym2612"
    },
    {
      "channel": 2,
      "note": 105,
      "start": 1.4738,
      "duration": 0.0177,
      "velocity": 107,
      "chip": "ym2612"
    },
    {
      "channel": 3,
      "note": 76,
      "start": 1.4739,
      "duration": 0.0182,
      "velocity": 107,
      "chip": "ym2612"
    },
    {
      "channel": 0,
      "note": 77,
      "start": 1.4912,
      "duration": 0.0038,
      "velocity": 50,
      "chip": "ym2612"
    },
    {
      "channel": 1,
      "note": 69,
      "start": 1.4914,
      "duration": 0.0036,
      "velocity": 110,
      "chip": "ym2612"
    },
    {
      "channel": 2,
      "note": 93,
      "start": 1.4917,
      "duration": 0.0034,
      "velocity": 107,
      "chip": "ym2612"
    },
    {
      "channel": 3,
      "note": 76,
      "start": 1.4921,
      "duration": 0.0039,
      "velocity": 107,
      "chip": "ym2612"
    },
    {
      "channel": 0,
      "note": 77,
      "start": 1.4949,
      "duration": 0.0039,
      "velocity": 50,
      "chip": "ym2612"
    },
    {
      "channel": 2,
      "note": 105,
      "start": 1.4954,
      "duration": 0.0038,
      "velocity": 107,
      "chip": "ym2612"
    },
    {
      "channel": 3,
      "note": 76,
      "start": 1.496,
      "duration": 0.0038,
      "velocity": 107,
      "chip": "ym2612"
    },
    {
      "channel": 0,
      "note": 77,
      "start": 1.4989,
      "duration": 0.0792,
      "velocity": 50,
      "chip": "ym2612"
    },
    {
      "channel": 1,
      "note": 67,
      "start": 1.4991,
      "duration": 0.0791,
      "velocity": 110,
      "chip": "ym2612"
    },
    {
      "channel": 2,
      "note": 93,
      "start": 1.4995,
      "duration": 0.079,
      "velocity": 107,
      "chip": "ym2612"
    },
    {
      "channel": 3,
      "note": 76,
      "start": 1.4998,
      "duration": 0.0794,
      "velocity": 107,
      "chip": "ym2612"
    },
    {
      "channel": 0,
      "note": 77,
      "start": 1.5781,
      "duration": 0.003,
      "velocity": 50,
      "chip": "ym2612"
    },
    {
      "channel": 1,
      "note": 69,
      "start": 1.5784,
      "duration": 0.0023,
      "velocity": 110,
      "chip": "ym2612"
    },
    {
      "channel": 2,
      "note": 105,
      "start": 1.5787,
      "duration": 0.0025,
      "velocity": 107,
      "chip": "ym2612"
    },
    {
      "channel": 3,
      "note": 76,
      "start": 1.5793,
      "duration": 0.0023,
      "velocity": 107,
      "chip": "ym2612"
    },
    {
      "channel": 0,
      "note": 77,
      "start": 1.5811,
      "duration": 0.0023,
      "velocity": 50,
      "chip": "ym2612"
    },
    {
      "channel": 2,
      "note": 93,
      "start": 1.5814,
      "duration": 0.0026,
      "velocity": 107,
      "chip": "ym2612"
    },
    {
      "channel": 3,
      "note": 76,
      "start": 1.5815,
      "duration": 0.0029,
      "velocity": 107,
      "chip": "ym2612"
    },
    {
      "channel": 0,
      "note": 77,
      "start": 1.5833,
      "duration": 0.0031,
      "velocity": 50,
      "chip": "ym2612"
    },
    {
      "channel": 1,
      "note": 57,
      "start": 1.5839,
      "duration": 0.0027,
      "velocity": 110,
      "chip": "ym2612"
    },
    {
      "channel": 2,
      "note": 105,
      "start": 1.5842,
      "duration": 0.0026,
      "velocity": 107,
      "chip": "ym2612"
    },
    {
      "channel": 3,
      "note": 76,
      "start": 1.5846,
      "duration": 0.0028,
      "velocity": 107,
      "chip": "ym2612"
    },
    {
      "channel": 0,
      "note": 77,
      "start": 1.5865,
      "duration": 0.0046,
      "velocity": 100,
      "chip": "ym2612"
    },
    {
      "channel": 1,
      "note": 57,
      "start": 1.5868,
      "duration": 0.0046,
      "velocity": 110,
      "chip": "ym2612"
    },
    {
      "channel": 2,
      "note": 93,
      "start": 1.5871,
      "duration": 0.0045,
      "velocity": 107,
      "chip": "ym2612"
    },
    {
      "channel": 3,
      "note": 76,
      "start": 1.5874,
      "duration": 0.0053,
      "velocity": 96,
      "chip": "ym2612"
    },
    {
      "channel": 0,
      "note": 81,
      "start": 1.5913,
      "duration": 0.022,
      "velocity": 100,
      "chip": "ym2612"
    },
    {
      "channel": 1,
      "note": 69,
      "start": 1.5915,
      "duration": 0.0029,
      "velocity": 110,
      "chip": "ym2612"
    },
    {
      "channel": 2,
      "note": 105,
      "start": 1.5917,
      "duration": 0.0028,
      "velocity": 107,
      "chip": "ym2612"
    },
    {
      "channel": 3,
      "note": 78,
      "start": 1.5929,
      "duration": 0.0198,
      "velocity": 96,
      "chip": "ym2612"
    },
    {
      "channel": 2,
      "note": 93,
      "start": 1.5947,
      "duration": 0.0155,
      "velocity": 107,
      "chip": "ym2612"
    },
    {
      "channel": 1,
      "note": 67,
      "start": 1.6102,
      "duration": 0.0023,
      "velocity": 110,
      "chip": "ym2612"
    },
    {
      "channel": 2,
      "note": 105,
      "start": 1.6106,
      "duration": 0.002,
      "velocity": 107,
      "chip": "ym2612"
    },
    {
      "channel": 2,
      "note": 93,
      "start": 1.6127,
      "duration": 0.0281,
      "velocity": 107,
      "chip": "ym2612"
    },
    {
      "channel": 0,
      "note": 67,
      "start": 1.6404,
      "duration": 0.0034,
      "velocity": 101,
      "chip": "ym2612"
    },
    {
      "channel": 1,
      "note": 69,
      "start": 1.6407,
      "duration": 0.0033,
      "velocity": 110,
      "chip": "ym2612"
    },
    {
      "channel": 2,
      "note": 105,
      "start": 1.6409,
      "duration": 0.0031,
      "velocity": 107,
      "chip": "ym2612"
    },
    {
      "channel": 3,
      "note": 78,
      "start": 1.6412,
      "duration": 0.0091,
      "velocity": 96,
      "chip": "ym2612"
    },
    {
      "channel": 4,
      "note": 81,
      "start": 1.6425,
      "duration": 0.0085,
      "velocity": 100,
      "chip": "ym2612"
    },
    {
      "channel": 0,
      "note": 71,
      "start": 1.644,
      "duration": 0.0017,
      "velocity": 101,
      "chip": "ym2612"
    },
    {
      "channel": 2,
      "note": 93,
      "start": 1.6442,
      "duration": 0.002,
      "velocity": 107,
      "chip": "ym2612"
    },
    {
      "channel": 0,
      "note": 74,
      "start": 1.6458,
      "duration": 0.0036,
      "velocity": 101,
      "chip": "ym2612"
    },
    {
      "channel": 1,
      "note": 57,
      "start": 1.6461,
      "duration": 0.0036,
      "velocity": 110,
      "chip": "ym2612"
    },
    {
      "channel": 2,
      "note": 105,
      "start": 1.6464,
      "duration": 0.0036,
      "velocity": 107,
      "chip": "ym2612"
    },
    {
      "channel": 0,
      "note": 79,
      "start": 1.6496,
      "duration": 0.002,
      "velocity": 101,
      "chip": "ym2612"
    },
    {
      "channel": 1,
      "note": 69,
      "start": 1.6499,
      "duration": 0.0023,
      "velocity": 110,
      "chip": "ym2612"
    },
    {
      "channel": 2,
      "note": 93,
      "start": 1.6503,
      "duration": 0.0022,
      "velocity": 107,
      "chip": "ym2612"
    },
    {
      "channel": 0,
      "note": 71,
      "start": 1.6519,
      "duration": 0.0045,
      "velocity": 101,
      "chip": "ym2612"
    },
    {
      "channel": 1,
      "note": 67,
      "start": 1.6524,
      "duration": 0.0042,
      "velocity": 110,
      "chip": "ym2612"
    },
    {
      "channel": 2,
      "note": 105,
      "start": 1.6529,
      "duration": 0.0041,
      "velocity": 107,
      "chip": "ym2612"
    },
    {
      "channel": 3,
      "note": 78,
      "start": 1.654,
      "duration": 0.0106,
      "velocity": 96,
      "chip": "ym2612"
    },
    {
      "channel": 4,
      "note": 67,
      "start": 1.6552,
      "duration": 0.0023,
      "velocity": 101,
      "chip": "ym2612"
    },
    {
      "channel": 0,
      "note": 76,
      "start": 1.6566,
      "duration": 0.0031,
      "velocity": 101,
      "chip": "ym2612"
    },
    {
      "channel": 1,
      "note": 69,
      "start": 1.6569,
      "duration": 0.0032,
      "velocity": 110,
      "chip": "ym2612"
    },
    {
      "channel": 2,
      "note": 93,
      "start": 1.6573,
      "duration": 0.0031,
      "velocity": 107,
      "chip": "ym2612"
    },
    {
      "channel": 4,
      "note": 71,
      "start": 1.6577,
      "duration": 0.0031,
      "velocity": 101,
      "chip": "ym2612"
    },
    {
      "channel": 0,
      "note": 79,
      "start": 1.66,
      "duration": 0.0037,
      "velocity": 101,
      "chip": "ym2612"
    },
    {
      "channel": 1,
      "note": 71,
      "start": 1.6603,
      "duration": 0.0037,
      "velocity": 110,
      "chip": "ym2612"
    },
    {
      "channel": 2,
      "note": 105,
      "start": 1.6606,
      "duration": 0.0036,
      "velocity": 107,
      "chip": "ym2612"
    },
    {
      "channel": 4,
      "note": 74,
      "start": 1.6611,
      "duration": 0.0037,
      "velocity": 101,
      "chip": "ym2612"
    },
    {
      "channel": 0,
      "note": 85,
      "start": 1.6639,
      "duration": 0.003,
      "velocity": 101,
      "chip": "ym2612"
    },
    {
      "channel": 1,
      "note": 72,
      "start": 1.6641,
      "duration": 0.0031,
      "velocity": 110,
      "chip": "ym2612"
    },
    {
      "channel": 2,
      "note": 93,
      "start": 1.6645,
      "duration": 0.0031,
      "velocity": 107,
      "chip": "ym2612"
    },
    {
      "channel": 4,
      "note": 79,
      "start": 1.6649,
      "duration": 0.0036,
      "velocity": 101,
      "chip": "ym2612"
    },
    {
      "channel": 0,
      "note": 76,
      "start": 1.6672,
      "duration": 0.0031,
      "velocity": 101,
      "chip": "ym2612"
    },
    {
      "channel": 1,
      "note": 74,
      "start": 1.6676,
      "duration": 0.0031,
      "velocity": 110,
      "chip": "ym2612"
    },
    {
      "channel": 2,
      "note": 105,
      "start": 1.6679,
      "duration": 0.0031,
      "velocity": 107,
      "chip": "ym2612"
    },
    {
      "channel": 3,
      "note": 78,
      "start": 1.6684,
      "duration": 0.01,
      "velocity": 96,
      "chip": "ym2612"
    },
    {
      "channel": 4,
      "note": 71,
      "start": 1.6686,
      "duration": 0.0027,
      "velocity": 101,
      "chip": "ym2612"
    },
    {
      "channel": 0,
      "note": 81,
      "start": 1.6706,
      "duration": 0.0037,
      "velocity": 101,
      "chip": "ym2612"
    },
    {
      "channel": 1,
      "note": 72,
      "start": 1.6708,
      "duration": 0.0037,
      "velocity": 110,
      "chip": "ym2612"
    },
    {
      "channel": 2,
      "note": 93,
      "start": 1.6712,
      "duration": 0.0036,
      "velocity": 107,
      "chip": "ym2612"
    },
    {
      "channel": 4,
      "note": 76,
      "start": 1.6716,
      "duration": 0.0037,
      "velocity": 101,
      "chip": "ym2612"
    },
    {
      "channel": 0,
      "note": 84,
      "start": 1.6745,
      "duration": 0.0031,
      "velocity": 101,
      "chip": "ym2612"
    },
    {
      "channel": 1,
      "note": 71,
      "start": 1.6747,
      "duration": 0.0032,
      "velocity": 110,
      "chip": "ym2612"
    },
    {
      "channel": 2,
      "note": 105,
      "start": 1.6751,
      "duration": 0.003,
      "velocity": 107,
      "chip": "ym2612"
    },
    {
      "channel": 4,
      "note": 79,
      "start": 1.6755,
      "duration": 0.0032,
      "velocity": 101,
      "chip": "ym2612"
    },
    {
      "channel": 0,
      "note": 90,
      "start": 1.6778,
      "duration": 0.0045,
      "velocity": 107,
      "chip": "ym2612"
    },
    {
      "channel": 1,
      "note": 70,
      "start": 1.6781,
      "duration": 0.0047,
      "velocity": 110,
      "chip": "ym2612"
    },
    {
      "channel": 2,
      "note": 93,
      "start": 1.6784,
      "duration": 0.0046,
      "velocity": 107,
      "chip": "ym2612"
    },
    {
      "channel": 4,
      "note": 85,
      "start": 1.6788,
      "duration": 0.0056,
      "velocity": 101,
      "chip": "ym2612"
    },
    {
      "channel": 0,
      "note": 95,
      "start": 1.6826,
      "duration": 0.0096,
      "velocity": 50,
      "chip": "ym2612"
    },
    {
      "channel": 1,
      "note": 71,
      "start": 1.6829,
      "duration": 0.0042,
      "velocity": 110,
      "chip": "ym2612"
    },
    {
      "channel": 2,
      "note": 107,
      "start": 1.6832,
      "duration": 0.004,
      "velocity": 107,
      "chip": "ym2612"
    },
    {
      "channel": 3,
      "note": 78,
      "start": 1.6843,
      "duration": 0.0304,
      "velocity": 107,
      "chip": "ym2612"
    },
    {
      "channel": 4,
      "note": 76,
      "start": 1.6845,
      "duration": 0.0032,
      "velocity": 101,
      "chip": "ym2612"
    },
    {
      "channel": 2,
      "note": 95,
      "start": 1.6875,
      "duration": 0.0051,
      "velocity": 107,
      "chip": "ym2612"
    },
    {
      "channel": 4,
      "note": 81,
      "start": 1.688,
      "duration": 0.0051,
      "velocity": 101,
      "chip": "ym2612"
    },
    {
      "channel": 0,
      "note": 83,
      "start": 1.6922,
      "duration": 0.0217,
      "velocity": 50,
      "chip": "ym2612"
    },
    {
      "channel": 1,
      "note": 69,
      "start": 1.6925,
      "duration": 0.0056,
      "velocity": 110,
      "chip": "ym2612"
    },
    {
      "channel": 2,
      "note": 107,
      "start": 1.6929,
      "duration": 0.0054,
      "velocity": 107,
      "chip": "ym2612"
    },
    {
      "channel": 4,
      "note": 84,
      "start": 1.6933,
      "duration": 0.0053,
      "velocity": 101,
      "chip": "ym2612"
    },
    {
      "channel": 2,
      "note": 95,
      "start": 1.6985,
      "duration": 0.0029,
      "velocity": 107,
      "chip": "ym2612"
    },
    {
      "channel": 4,
      "note": 90,
      "start": 1.6987,
      "duration": 0.0043,
      "velocity": 107,
      "chip": "ym2612"
    },
    {
      "channel": 1,
      "note": 71,
      "start": 1.7012,
      "duration": 0.0034,
      "velocity": 110,
      "chip": "ym2612"
    },
    {
      "channel": 2,
      "note": 107,
      "start": 1.7016,
      "duration": 0.0031,
      "velocity": 107,
      "chip": "ym2612"
    },
    {
      "channel": 4,
      "note": 95,
      "start": 1.7031,
      "duration": 0.0061,
      "velocity": 50,
      "chip": "ym2612"
    },
    {
      "channel": 2,
      "note": 95,
      "start": 1.7048,
      "duration": 0.0026,
      "velocity": 107,
      "chip": "ym2612"
    },
    {
      "channel": 1,
      "note": 59,
      "start": 1.7073,
      "duration": 0.0038,
      "velocity": 110,
      "chip": "ym2612"
    },
    {
      "channel": 2,
      "note": 107,
      "start": 1.7077,
      "duration": 0.0037,
      "velocity": 107,
      "chip": "ym2612"
    },
    {
      "channel": 4,
      "note": 83,
      "start": 1.7091,
      "duration": 0.0553,
      "velocity": 91,
      "chip": "ym2612"
    },
    {
      "channel": 1,
      "note": 71,
      "start": 1.7113,
      "duration": 0.0026,
      "velocity": 110,
      "chip": "ym2612"
    },
    {
      "channel": 2,
      "note": 95,
      "start": 1.7117,
      "duration": 0.0024,
      "velocity": 107,
      "chip": "ym2612"
    },
    {
      "channel": 0,
      "note": 83,
      "start": 1.7139,
      "duration": 0.0034,
      "velocity": 50,
      "chip": "ym2612"
    },
    {
      "channel": 2,
      "note": 107,
      "start": 1.7144,
      "duration": 0.0033,
      "velocity": 107,
      "chip": "ym2612"
    },
    {
      "channel": 3,
      "note": 78,
      "start": 1.7147,
      "duration": 0.0037,
      "velocity": 107,
      "chip": "ym2612"
    },
    {
      "channel": 0,
      "note": 83,
      "start": 1.7173,
      "duration": 0.0042,
      "velocity": 50,
      "chip": "ym2612"
    },
    {
      "channel": 1,
      "note": 71,
      "start": 1.7176,
      "duration": 0.004,
      "velocity": 110,
      "chip": "ym2612"
    },
    {
      "channel": 2,
      "note": 95,
      "start": 1.718,
      "duration": 0.0038,
      "velocity": 107,
      "chip": "ym2612"
    },
    {
      "channel": 3,
      "note": 78,
      "start": 1.7184,
      "duration": 0.0041,
      "velocity": 107,
      "chip": "ym2612"
    },
    {
      "channel": 0,
      "note": 83,
      "start": 1.7215,
      "duration": 0.003,
      "velocity": 50,
      "chip": "ym2612"
    },
    {
      "channel": 2,
      "note": 107,
      "start": 1.722,
      "duration": 0.0029,
      "velocity": 107,
      "chip": "ym2612"
    },
    {
      "channel": 3,
      "note": 78,
      "start": 1.7227,
      "duration": 0.0029,
      "velocity": 107,
      "chip": "ym2612"
    },
    {
      "channel": 0,
      "note": 83,
      "start": 1.7246,
      "duration": 0.0037,
      "velocity": 50,
      "chip": "ym2612"
    },
    {
      "channel": 1,
      "note": 69,
      "start": 1.7249,
      "duration": 0.0035,
      "velocity": 110,
      "chip": "ym2612"
    },
    {
      "channel": 2,
      "note": 95,
      "start": 1.7252,
      "duration": 0.0034,
      "velocity": 107,
      "chip": "ym2612"
    },
    {
      "channel": 3,
      "note": 78,
      "start": 1.7255,
      "duration": 0.0039,
      "velocity": 107,
      "chip": "ym2612"
    },
    {
      "channel": 0,
      "note": 83,
      "start": 1.7282,
      "duration": 0.0031,
      "velocity": 50,
      "chip": "ym2612"
    },
    {
      "channel": 1,
      "note": 71,
      "start": 1.7285,
      "duration": 0.0024,
      "velocity": 110,
      "chip": "ym2612"
    },
    {
      "channel": 2,
      "note": 107,
      "start": 1.7289,
      "duration": 0.0026,
      "velocity": 107,
      "chip": "ym2612"
    },
    {
      "channel": 3,
      "note": 78,
      "start": 1.7295,
      "duration": 0.0024,
      "velocity": 107,
      "chip": "ym2612"
    },
    {
      "channel": 0,
      "note": 83,
      "start": 1.7313,
      "duration": 0.0023,
      "velocity": 50,
      "chip": "ym2612"
    },
    {
      "channel": 2,
      "note": 95,
      "start": 1.7316,
      "duration": 0.0026,
      "velocity": 107,
      "chip": "ym2612"
    },
    {
      "channel": 3,
      "note": 78,
      "start": 1.7319,
      "duration": 0.0031,
      "velocity": 107,
      "chip": "ym2612"
    },
    {
      "channel": 0,
      "note": 83,
      "start": 1.7336,
      "duration": 0.0056,
      "velocity": 50,
      "chip": "ym2612"
    },
    {
      "channel": 1,
      "note": 59,
      "start": 1.7342,
      "duration": 0.0051,
      "velocity": 110,
      "chip": "ym2612"
    },
    {
      "channel": 2,
      "note": 107,
      "start": 1.7345,
      "duration": 0.0051,
      "velocity": 107,
      "chip": "ym2612"
    },
    {
      "channel": 3,
      "note": 78,
      "start": 1.7353,
      "duration": 0.0049,
      "velocity": 107,
      "chip": "ym2612"
    },
    {
      "channel": 0,
      "note": 83,
      "start": 1.7392,
      "duration": 0.0077,
      "velocity": 91,
      "chip": "ym2612"
    },
    {
      "channel": 1,
      "note": 59,
      "start": 1.7395,
      "duration": 0.0078,
      "velocity": 110,
      "chip": "ym2612"
    },
    {
      "channel": 2,
      "note": 95,
      "start": 1.7399,
      "duration": 0.0077,
      "velocity": 107,
      "chip": "ym2612"
    },
    {
      "channel": 3,
      "note": 78,
      "start": 1.7402,
      "duration": 0.0086,
      "velocity": 91,
      "chip": "ym2612"
    },
    {
      "channel": 0,
      "note": 83,
      "start": 1.7472,
      "duration": 0.0134,
      "velocity": 91,
      "chip": "ym2612"
    },
    {
      "channel": 1,
      "note": 71,
      "start": 1.7475,
      "duration": 0.003,
      "velocity": 110,
      "chip": "ym2612"
    },
    {
      "channel": 2,
      "note": 107,
      "start": 1.7478,
      "duration": 0.0028,
      "velocity": 107,
      "chip": "ym2612"
    },
    {
      "channel": 3,
      "note": 80,
      "start": 1.7489,
      "duration": 0.0119,
      "velocity": 91,
      "chip": "ym2612"
    },
    {
      "channel": 2,
      "note": 95,
      "start": 1.7509,
      "duration": 0.0024,
      "velocity": 107,
      "chip": "ym2612"
    },
    {
      "channel": 1,
      "note": 69,
      "start": 1.7533,
      "duration": 0.0031,
      "velocity": 110,
      "chip": "ym2612"
    },
    {
      "channel": 2,
      "note": 107,
      "start": 1.7536,
      "duration": 0.0029,
      "velocity": 107,
      "chip": "ym2612"
    },
    {
      "channel": 2,
      "note": 95,
      "start": 1.7568,
      "duration": 0.0056,
      "velocity": 107,
      "chip": "ym2612"
    },
    {
      "channel": 1,
      "note": 71,
      "start": 1.7623,
      "duration": 0.0033,
      "velocity": 110,
      "chip": "ym2612"
    },
    {
      "channel": 2,
      "note": 107,
      "start": 1.7627,
      "duration": 0.003,
      "velocity": 107,
      "chip": "ym2612"
    },
    {
      "channel": 3,
      "note": 80,
      "start": 1.7632,
      "duration": 0.0083,
      "velocity": 91,
      "chip": "ym2612"
    },
    {
      "channel": 4,
      "note": 83,
      "start": 1.7645,
      "duration": 0.0071,
      "velocity": 91,
      "chip": "ym2612"
    },
    {
      "channel": 2,
      "note": 95,
      "start": 1.7659,
      "duration": 0.0024,
      "velocity": 107,
      "chip": "ym2612"
    },
    {
      "channel": 1,
      "note": 59,
      "start": 1.7682,
      "duration": 0.0021,
      "velocity": 110,
      "chip": "ym2612"
    },
    {
      "channel": 2,
      "note": 107,
      "start": 1.7685,
      "duration": 0.002,
      "velocity": 107,
      "chip": "ym2612"
    },
    {
      "channel": 1,
      "note": 71,
      "start": 1.7705,
      "duration": 0.0015,
      "velocity": 110,
      "chip": "ym2612"
    },
    {
      "channel": 2,
      "note": 95,
      "start": 1.7708,
      "duration": 0.0013,
      "velocity": 107,
      "chip": "ym2612"
    },
    {
      "channel": 0,
      "note": 83,
      "start": 1.7719,
      "duration": 0.0343,
      "velocity": 91,
      "chip": "ym2612"
    },
    {
      "channel": 2,
      "note": 107,
      "start": 1.7722,
      "duration": 0.018,
      "velocity": 107,
      "chip": "ym2612"
    },
    {
      "channel": 3,
      "note": 80,
      "start": 1.7725,
      "duration": 0.034,
      "velocity": 91,
      "chip": "ym2612"
    },
    {
      "channel": 1,
      "note": 71,
      "start": 1.7902,
      "duration": 0.0021,
      "velocity": 110,
      "chip": "ym2612"
    },
    {
      "channel": 2,
      "note": 95,
      "start": 1.7905,
      "duration": 0.0019,
      "velocity": 107,
      "chip": "ym2612"
    },
    {
      "channel": 2,
      "note": 107,
      "start": 1.7926,
      "duration": 0.0017,
      "velocity": 107,
      "chip": "ym2612"
    },
    {
      "channel": 1,
      "note": 69,
      "start": 1.7942,
      "duration": 0.0788,
      "velocity": 110,
      "chip": "ym2612"
    },
    {
      "channel": 2,
      "note": 95,
      "start": 1.7945,
      "duration": 0.0788,
      "velocity": 107,
      "chip": "ym2612"
    },
    {
      "channel": 1,
      "note": 71,
      "start": 1.8732,
      "duration": 0.0021,
      "velocity": 110,
      "chip": "ym2612"
    },
    {
      "channel": 2,
      "note": 107,
      "start": 1.8736,
      "duration": 0.002,
      "velocity": 107,
      "chip": "ym2612"
    },
    {
      "channel": 3,
      "note": 80,
      "start": 1.8741,
      "duration": 0.0059,
      "velocity": 91,
      "chip": "ym2612"
    },
    {
      "channel": 4,
      "note": 83,
      "start": 1.8745,
      "duration": 0.0056,
      "velocity": 91,
      "chip": "ym2612"
    },
    {
      "channel": 2,
      "note": 95,
      "start": 1.8757,
      "duration": 0.0019,
      "velocity": 107,
      "chip": "ym2612"
    },
    {
      "channel": 1,
      "note": 59,
      "start": 1.8775,
      "duration": 0.0016,
      "velocity": 110,
      "chip": "ym2612"
    },
    {
      "channel": 2,
      "note": 107,
      "start": 1.8779,
      "duration": 0.0014,
      "velocity": 107,
      "chip": "ym2612"
    },
    {
      "channel": 1,
      "note": 59,
      "start": 1.8792,
      "duration": 0.0281,
      "velocity": 110,
      "chip": "ym2612"
    },
    {
      "channel": 2,
      "note": 95,
      "start": 1.8795,
      "duration": 0.028,
      "velocity": 107,
      "chip": "ym2612"
    },
    {
      "channel": 0,
      "note": 93,
      "start": 1.9071,
      "duration": 0.0068,
      "velocity": 50,
      "chip": "ym2612"
    },
    {
      "channel": 1,
      "note": 71,
      "start": 1.9075,
      "duration": 0.0023,
      "velocity": 110,
      "chip": "ym2612"
    },
    {
      "channel": 2,
      "note": 107,
      "start": 1.9077,
      "duration": 0.0021,
      "velocity": 107,
      "chip": "ym2612"
    },
    {
      "channel": 3,
      "note": 78,
      "start": 1.9088,
      "duration": 0.0245,
      "velocity": 107,
      "chip": "ym2612"
    },
    {
      "channel": 2,
      "note": 95,
      "start": 1.9102,
      "duration": 0.0041,
      "velocity": 107,
      "chip": "ym2612"
    },
    {
      "channel": 0,
      "note": 81,
      "start": 1.9139,
      "duration": 0.0186,
      "velocity": 50,
      "chip": "ym2612"
    },
    {
      "channel": 1,
      "note": 69,
      "start": 1.9142,
      "duration": 0.0021,
      "velocity": 110,
      "chip": "ym2612"
    },
    {
      "channel": 2,
      "note": 107,
      "start": 1.9145,
      "duration": 0.0019,
      "velocity": 107,
      "chip": "ym2612"
    },
    {
      "channel": 2,
      "note": 95,
      "start": 1.9167,
      "duration": 0.003,
      "velocity": 107,
      "chip": "ym2612"
    },
    {
      "channel": 1,
      "note": 71,
      "start": 1.9196,
      "duration": 0.0033,
      "velocity": 110,
      "chip": "ym2612"
    },
    {
      "channel": 2,
      "note": 107,
      "start": 1.9199,
      "duration": 0.003,
      "velocity": 107,
      "chip": "ym2612"
    },
    {
      "channel": 4,
      "note": 93,
      "start": 1.9214,
      "duration": 0.0061,
      "velocity": 50,
      "chip": "ym2612"
    },
    {
      "channel": 2,
      "note": 95,
      "start": 1.9231,
      "duration": 0.0026,
      "velocity": 107,
      "chip": "ym2612"
    },
    {
      "channel": 1,
      "note": 59,
      "start": 1.9256,
      "duration": 0.0041,
      "velocity": 110,
      "chip": "ym2612"
    },
    {
      "channel": 2,
      "note": 107,
      "start": 1.9259,
      "duration": 0.0041,
      "velocity": 107,
      "chip": "ym2612"
    },
    {
      "channel": 4,
      "note": 81,
      "start": 1.9274,
      "duration": 0.0525,
      "velocity": 91,
      "chip": "ym2612"
    },
    {
      "channel": 1,
      "note": 71,
      "start": 1.9299,
      "duration": 0.0027,
      "velocity": 110,
      "chip": "ym2612"
    },
    {
      "channel": 2,
      "note": 95,
      "start": 1.9302,
      "duration": 0.0025,
      "velocity": 107,
      "chip": "ym2612"
    },
    {
      "channel": 0,
      "note": 81,
      "start": 1.9325,
      "duration": 0.0032,
      "velocity": 50,
      "chip": "ym2612"
    },
    {
      "channel": 2,
      "note": 107,
      "start": 1.933,
      "duration": 0.003,
      "velocity": 107,
      "chip": "ym2612"
    },
    {
      "channel": 3,
      "note": 78,
      "start": 1.9333,
      "duration": 0.0033,
      "velocity": 107,
      "chip": "ym2612"
    },
    {
      "channel": 0,
      "note": 81,
      "start": 1.9357,
      "duration": 0.004,
      "velocity": 50,
      "chip": "ym2612"
    },
    {
      "channel": 1,
      "note": 71,
      "start": 1.9359,
      "duration": 0.0038,
      "velocity": 110,
      "chip": "ym2612"
    },
    {
      "channel": 2,
      "note": 95,
      "start": 1.9363,
      "duration": 0.0036,
      "velocity": 107,
      "chip": "ym2612"
    },
    {
      "channel": 3,
      "note": 78,
      "start": 1.9366,
      "duration": 0.004,
      "velocity": 107,
      "chip": "ym2612"
    },
    {
      "channel": 0,
      "note": 81,
      "start": 1.9397,
      "duration": 0.0028,
      "velocity": 50,
      "chip": "ym2612"
    },
    {
      "channel": 2,
      "note": 107,
      "start": 1.9402,
      "duration": 0.0026,
      "velocity": 107,
      "chip": "ym2612"
    },
    {
      "channel": 3,
      "note": 78,
      "start": 1.9408,
      "duration": 0.0027,
      "velocity": 107,
      "chip": "ym2612"
    },
    {
      "channel": 0,
      "note": 81,
      "start": 1.9425,
      "duration": 0.0034,
      "velocity": 50,
      "chip": "ym2612"
    },
    {
      "channel": 1,
      "note": 69,
      "start": 1.9428,
      "duration": 0.0033,
      "velocity": 110,
      "chip": "ym2612"
    },
    {
      "channel": 2,
      "note": 95,
      "start": 1.9431,
      "duration": 0.0032,
      "velocity": 107,
      "chip": "ym2612"
    },
    {
      "channel": 3,
      "note": 78,
      "start": 1.9435,
      "duration": 0.0036,
      "velocity": 107,
      "chip": "ym2612"
    },
    {
      "channel": 0,
      "note": 81,
      "start": 1.946,
      "duration": 0.0031,
      "velocity": 50,
      "chip": "ym2612"
    },
    {
      "channel": 1,
      "note": 71,
      "start": 1.9463,
      "duration": 0.0024,
      "velocity": 110,
      "chip": "ym2612"
    },
    {
      "channel": 2,
      "note": 107,
      "start": 1.9466,
      "duration": 0.0026,
      "velocity": 107,
      "chip": "ym2612"
    },
    {
      "channel": 3,
      "note": 78,
      "start": 1.9472,
      "duration": 0.0023,
      "velocity": 107,
      "chip": "ym2612"
    },
    {
      "channel": 0,
      "note": 81,
      "start": 1.949,
      "duration": 0.0023,
      "velocity": 50,
      "chip": "ym2612"
    },
    {
      "channel": 2,
      "note": 95,
      "start": 1.9494,
      "duration": 0.0025,
      "velocity": 107,
      "chip": "ym2612"
    },
    {
      "channel": 3,
      "note": 78,
      "start": 1.9495,
      "duration": 0.0032,
      "velocity": 107,
      "chip": "ym2612"
    },
    {
      "channel": 0,
      "note": 81,
      "start": 1.9513,
      "duration": 0.0058,
      "velocity": 50,
      "chip": "ym2612"
    },
    {
      "channel": 1,
      "note": 59,
      "start": 1.9519,
      "duration": 0.0053,
      "velocity": 110,
      "chip": "ym2612"
    },
    {
      "channel": 2,
      "note": 107,
      "start": 1.9523,
      "duration": 0.0052,
      "velocity": 107,
      "chip": "ym2612"
    },
    {
      "channel": 3,
      "note": 78,
      "start": 1.953,
      "duration": 0.0052,
      "velocity": 107,
      "chip": "ym2612"
    },
    {
      "channel": 0,
      "note": 81,
      "start": 1.9571,
      "duration": 0.0077,
      "velocity": 91,
      "chip": "ym2612"
    },
    {
      "channel": 1,
      "note": 59,
      "start": 1.9574,
      "duration": 0.0079,
      "velocity": 110,
      "chip": "ym2612"
    },
    {
      "channel": 2,
      "note": 95,
      "start": 1.9578,
      "duration": 0.0077,
      "velocity": 107,
      "chip": "ym2612"
    },
    {
      "channel": 3,
      "note": 78,
      "start": 1.9582,
      "duration": 0.0085,
      "velocity": 91,
      "chip": "ym2612"
    },
    {
      "channel": 0,
      "note": 83,
      "start": 1.9651,
      "duration": 0.011,
      "velocity": 91,
      "chip": "ym2612"
    },
    {
      "channel": 1,
      "note": 71,
      "start": 1.9654,
      "duration": 0.003,
      "velocity": 110,
      "chip": "ym2612"
    },
    {
      "channel": 2,
      "note": 107,
      "start": 1.9657,
      "duration": 0.0028,
      "velocity": 107,
      "chip": "ym2612"
    },
    {
      "channel": 3,
      "note": 80,
      "start": 1.9668,
      "duration": 0.0094,
      "velocity": 91,
      "chip": "ym2612"
    },
    {
      "channel": 2,
      "note": 95,
      "start": 1.9688,
      "duration": 0.0029,
      "velocity": 107,
      "chip": "ym2612"
    },
    {
      "channel": 1,
      "note": 69,
      "start": 1.9716,
      "duration": 0.0027,
      "velocity": 110,
      "chip": "ym2612"
    },
    {
      "channel": 2,
      "note": 107,
      "start": 1.972,
      "duration": 0.0026,
      "velocity": 107,
      "chip": "ym2612"
    },
    {
      "channel": 2,
      "note": 95,
      "start": 1.9748,
      "duration": 0.0029,
      "velocity": 107,
      "chip": "ym2612"
    },
    {
      "channel": 1,
      "note": 71,
      "start": 1.9775,
      "duration": 0.0037,
      "velocity": 110,
      "chip": "ym2612"
    },
    {
      "channel": 2,
      "note": 107,
      "start": 1.978,
      "duration": 0.0032,
      "velocity": 107,
      "chip": "ym2612"
    },
    {
      "channel": 3,
      "note": 80,
      "start": 1.9786,
      "duration": 0.0085,
      "velocity": 91,
      "chip": "ym2612"
    },
    {
      "channel": 4,
      "note": 83,
      "start": 1.9801,
      "duration": 0.0071,
      "velocity": 91,
      "chip": "ym2612"
    },
    {
      "channel": 2,
      "note": 95,
      "start": 1.9813,
      "duration": 0.0023,
      "velocity": 107,
      "chip": "ym2612"
    },
    {
      "channel": 1,
      "note": 59,
      "start": 1.9836,
      "duration": 0.0021,
      "velocity": 110,
      "chip": "ym2612"
    },
    {
      "channel": 2,
      "note": 107,
      "start": 1.984,
      "duration": 0.002,
      "velocity": 107,
      "chip": "ym2612"
    },
    {
      "channel": 1,
      "note": 71,
      "start": 1.9859,
      "duration": 0.0016,
      "velocity": 110,
      "chip": "ym2612"
    },
    {
      "channel": 2,
      "note": 95,
      "start": 1.9862,
      "duration": 0.0013,
      "velocity": 107,
      "chip": "ym2612"
    },
    {
      "channel": 0,
      "note": 83,
      "start": 1.9874,
      "duration": 0.0343,
      "velocity": 91,
      "chip": "ym2612"
    },
    {
      "channel": 2,
      "note": 107,
      "start": 1.9877,
      "duration": 0.018,
      "velocity": 107,
      "chip": "ym2612"
    },
    {
      "channel": 3,
      "note": 80,
      "start": 1.988,
      "duration": 0.0341,
      "velocity": 91,
      "chip": "ym2612"
    },
    {
      "channel": 1,
      "note": 71,
      "start": 2.0057,
      "duration": 0.0022,
      "velocity": 110,
      "chip": "ym2612"
    },
    {
      "channel": 2,
      "note": 95,
      "start": 2.0061,
      "duration": 0.0019,
      "velocity": 107,
      "chip": "ym2612"
    },
    {
      "channel": 2,
      "note": 107,
      "start": 2.0082,
      "duration": 0.0016,
      "velocity": 107,
      "chip": "ym2612"
    },
    {
      "channel": 1,
      "note": 69,
      "start": 2.0098,
      "duration": 0.0788,
      "velocity": 110,
      "chip": "ym2612"
    },
    {
      "channel": 2,
      "note": 95,
      "start": 2.0101,
      "duration": 0.0788,
      "velocity": 107,
      "chip": "ym2612"
    },
    {
      "channel": 1,
      "note": 71,
      "start": 2.0888,
      "duration": 0.002,
      "velocity": 110,
      "chip": "ym2612"
    },
    {
      "channel": 2,
      "note": 107,
      "start": 2.0891,
      "duration": 0.002,
      "velocity": 107,
      "chip": "ym2612"
    },
    {
      "channel": 3,
      "note": 80,
      "start": 2.0897,
      "duration": 0.0056,
      "velocity": 91,
      "chip": "ym2612"
    },
    {
      "channel": 4,
      "note": 83,
      "start": 2.09,
      "duration": 0.0054,
      "velocity": 91,
      "chip": "ym2612"
    },
    {
      "channel": 2,
      "note": 95,
      "start": 2.0914,
      "duration": 0.0015,
      "velocity": 107,
      "chip": "ym2612"
    },
    {
      "channel": 1,
      "note": 59,
      "start": 2.0927,
      "duration": 0.0017,
      "velocity": 110,
      "chip": "ym2612"
    },
    {
      "channel": 2,
      "note": 107,
      "start": 2.0931,
      "duration": 0.0016,
      "velocity": 107,
      "chip": "ym2612"
    },
    {
      "channel": 1,
      "note": 59,
      "start": 2.0946,
      "duration": 0.0279,
      "velocity": 110,
      "chip": "ym2612"
    },
    {
      "channel": 2,
      "note": 95,
      "start": 2.0948,
      "duration": 0.0279,
      "velocity": 107,
      "chip": "ym2612"
    },
    {
      "channel": 0,
      "note": 92,
      "start": 2.1223,
      "duration": 0.0069,
      "velocity": 50,
      "chip": "ym2612"
    },
    {
      "channel": 1,
      "note": 71,
      "start": 2.1227,
      "duration": 0.0024,
      "velocity": 110,
      "chip": "ym2612"
    },
    {
      "channel": 2,
      "note": 107,
      "start": 2.123,
      "duration": 0.0022,
      "velocity": 107,
      "chip": "ym2612"
    },
    {
      "channel": 3,
      "note": 78,
      "start": 2.124,
      "duration": 0.0248,
      "velocity": 107,
      "chip": "ym2612"
    },
    {
      "channel": 2,
      "note": 95,
      "start": 2.1255,
      "duration": 0.0041,
      "velocity": 107,
      "chip": "ym2612"
    },
    {
      "channel": 0,
      "note": 80,
      "start": 2.1292,
      "duration": 0.0188,
      "velocity": 50,
      "chip": "ym2612"
    },
    {
      "channel": 1,
      "note": 69,
      "start": 2.1295,
      "duration": 0.002,
      "velocity": 110,
      "chip": "ym2612"
    },
    {
      "channel": 2,
      "note": 107,
      "start": 2.1298,
      "duration": 0.0018,
      "velocity": 107,
      "chip": "ym2612"
    },
    {
      "channel": 2,
      "note": 95,
      "start": 2.1318,
      "duration": 0.0033,
      "velocity": 107,
      "chip": "ym2612"
    },
    {
      "channel": 1,
      "note": 71,
      "start": 2.1351,
      "duration": 0.0034,
      "velocity": 110,
      "chip": "ym2612"
    },
    {
      "channel": 2,
      "note": 107,
      "start": 2.1354,
      "duration": 0.0032,
      "velocity": 107,
      "chip": "ym2612"
    },
    {
      "channel": 4,
      "note": 92,
      "start": 2.1367,
      "duration": 0.0063,
      "velocity": 50,
      "chip": "ym2612"
    },
    {
      "channel": 2,
      "note": 95,
      "start": 2.1387,
      "duration": 0.0026,
      "velocity": 107,
      "chip": "ym2612"
    },
    {
      "channel": 1,
      "note": 59,
      "start": 2.1413,
      "duration": 0.0038,
      "velocity": 110,
      "chip": "ym2612"
    },
    {
      "channel": 2,
      "note": 107,
      "start": 2.1416,
      "duration": 0.0038,
      "velocity": 107,
      "chip": "ym2612"
    },
    {
      "channel": 4,
      "note": 80,
      "start": 2.143,
      "duration": 0.0532,
      "velocity": 91,
      "chip": "ym2612"
    },
    {
      "channel": 1,
      "note": 71,
      "start": 2.1453,
      "duration": 0.0027,
      "velocity": 110,
      "chip": "ym2612"
    },
    {
      "channel": 2,
      "note": 95,
      "start": 2.1457,
      "duration": 0.0025,
      "velocity": 107,
      "chip": "ym2612"
    },
    {
      "channel": 0,
      "note": 80,
      "start": 2.148,
      "duration": 0.0039,
      "velocity": 50,
      "chip": "ym2612"
    },
    {
      "channel": 2,
      "note": 107,
      "start": 2.1485,
      "duration": 0.0038,
      "velocity": 107,
      "chip": "ym2612"
    },
    {
      "channel": 3,
      "note": 78,
      "start": 2.1488,
      "duration": 0.0041,
      "velocity": 107,
      "chip": "ym2612"
    },
    {
      "channel": 0,
      "note": 80,
      "start": 2.152,
      "duration": 0.0042,
      "velocity": 50,
      "chip": "ym2612"
    },
    {
      "channel": 1,
      "note": 71,
      "start": 2.1523,
      "duration": 0.0039,
      "velocity": 110,
      "chip": "ym2612"
    },
    {
      "channel": 2,
      "note": 95,
      "start": 2.1526,
      "duration": 0.0038,
      "velocity": 107,
      "chip": "ym2612"
    },
    {
      "channel": 3,
      "note": 78,
      "start": 2.1529,
      "duration": 0.0042,
      "velocity": 107,
      "chip": "ym2612"
    },
    {
      "channel": 0,
      "note": 80,
      "start": 2.1561,
      "duration": 0.0027,
      "velocity": 50,
      "chip": "ym2612"
    },
    {
      "channel": 2,
      "note": 107,
      "start": 2.1566,
      "duration": 0.0027,
      "velocity": 107,
      "chip": "ym2612"
    },
    {
      "channel": 3,
      "note": 78,
      "start": 2.1572,
      "duration": 0.0027,
      "velocity": 107,
      "chip": "ym2612"
    },
    {
      "channel": 0,
      "note": 80,
      "start": 2.1589,
      "duration": 0.0036,
      "velocity": 50,
      "chip": "ym2612"
    },
    {
      "channel": 1,
      "note": 69,
      "start": 2.1592,
      "duration": 0.0033,
      "velocity": 110,
      "chip": "ym2612"
    },
    {
      "channel": 2,
      "note": 95,
      "start": 2.1595,
      "duration": 0.0032,
      "velocity": 107,
      "chip": "ym2612"
    },
    {
      "channel": 3,
      "note": 78,
      "start": 2.1598,
      "duration": 0.0037,
      "velocity": 107,
      "chip": "ym2612"
    },
    {
      "channel": 0,
      "note": 80,
      "start": 2.1624,
      "duration": 0.003,
      "velocity": 50,
      "chip": "ym2612"
    },
    {
      "channel": 1,
      "note": 71,
      "start": 2.1627,
      "duration": 0.0024,
      "velocity": 110,
      "chip": "ym2612"
    },
    {
      "channel": 2,
      "note": 107,
      "start": 2.1631,
      "duration": 0.0025,
      "velocity": 107,
      "chip": "ym2612"
    },
    {
      "channel": 3,
      "note": 78,
      "start": 2.1637,
      "duration": 0.0023,
      "velocity": 107,
      "chip": "ym2612"
    },
    {
      "channel": 0,
      "note": 80,
      "start": 2.1655,
      "duration": 0.0025,
      "velocity": 50,
      "chip": "ym2612"
    },
    {
      "channel": 2,
      "note": 95,
      "start": 2.1658,
      "duration": 0.0029,
      "velocity": 107,
      "chip": "ym2612"
    },
    {
      "channel": 3,
      "note": 78,
      "start": 2.166,
      "duration": 0.0035,
      "velocity": 107,
      "chip": "ym2612"
    },
    {
      "channel": 0,
      "note": 80,
      "start": 2.168,
      "duration": 0.0056,
      "velocity": 50,
      "chip": "ym2612"
    },
    {
      "channel": 1,
      "note": 59,
      "start": 2.1686,
      "duration": 0.0051,
      "velocity": 110,
      "chip": "ym2612"
    },
    {
      "channel": 2,
      "note": 107,
      "start": 2.1689,
      "duration": 0.0051,
      "velocity": 107,
      "chip": "ym2612"
    },
    {
      "channel": 3,
      "note": 78,
      "start": 2.1696,
      "duration": 0.005,
      "velocity": 107,
      "chip": "ym2612"
    },
    {
      "channel": 0,
      "note": 80,
      "start": 2.1737,
      "duration": 0.0077,
      "velocity": 91,
      "chip": "ym2612"
    },
    {
      "channel": 1,
      "note": 59,
      "start": 2.1739,
      "duration": 0.0079,
      "velocity": 110,
      "chip": "ym2612"
    },
    {
      "channel": 2,
      "note": 95,
      "start": 2.1743,
      "duration": 0.0077,
      "velocity": 107,
      "chip": "ym2612"
    },
    {
      "channel": 3,
      "note": 78,
      "start": 2.1746,
      "duration": 0.0087,
      "velocity": 91,
      "chip": "ym2612"
    },
    {
      "channel": 0,
      "note": 83,
      "start": 2.1817,
      "duration": 0.0108,
      "velocity": 91,
      "chip": "ym2612"
    },
    {
      "channel": 1,
      "note": 71,
      "start": 2.182,
      "duration": 0.0032,
      "velocity": 110,
      "chip": "ym2612"
    },
    {
      "channel": 2,
      "note": 107,
      "start": 2.1823,
      "duration": 0.0029,
      "velocity": 107,
      "chip": "ym2612"
    },
    {
      "channel": 3,
      "note": 80,
      "start": 2.1835,
      "duration": 0.0091,
      "velocity": 91,
      "chip": "ym2612"
    },
    {
      "channel": 2,
      "note": 95,
      "start": 2.1855,
      "duration": 0.0027,
      "velocity": 107,
      "chip": "ym2612"
    },
    {
      "channel": 1,
      "note": 69,
      "start": 2.1881,
      "duration": 0.0026,
      "velocity": 110,
      "chip": "ym2612"
    },
    {
      "channel": 2,
      "note": 107,
      "start": 2.1885,
      "duration": 0.0024,
      "velocity": 107,
      "chip": "ym2612"
    },
    {
      "channel": 2,
      "note": 95,
      "start": 2.1912,
      "duration": 0.0029,
      "velocity": 107,
      "chip": "ym2612"
    },
    {
      "channel": 1,
      "note": 71,
      "start": 2.1939,
      "duration": 0.0037,
      "velocity": 110,
      "chip": "ym2612"
    },
    {
      "channel": 2,
      "note": 107,
      "start": 2.1944,
      "duration": 0.0032,
      "velocity": 107,
      "chip": "ym2612"
    },
    {
      "channel": 3,
      "note": 80,
      "start": 2.195,
      "duration": 0.0086,
      "velocity": 91,
      "chip": "ym2612"
    },
    {
      "channel": 4,
      "note": 83,
      "start": 2.1963,
      "duration": 0.0073,
      "velocity": 91,
      "chip": "ym2612"
    },
    {
      "channel": 2,
      "note": 95,
      "start": 2.1979,
      "duration": 0.0021,
      "velocity": 107,
      "chip": "ym2612"
    },
    {
      "channel": 1,
      "note": 59,
      "start": 2.1999,
      "duration": 0.0023,
      "velocity": 110,
      "chip": "ym2612"
    },
    {
      "channel": 2,
      "note": 107,
      "start": 2.2003,
      "duration": 0.0022,
      "velocity": 107,
      "chip": "ym2612"
    },
    {
      "channel": 1,
      "note": 71,
      "start": 2.2024,
      "duration": 0.0016,
      "velocity": 110,
      "chip": "ym2612"
    },
    {
      "channel": 2,
      "note": 95,
      "start": 2.2027,
      "duration": 0.0014,
      "velocity": 107,
      "chip": "ym2612"
    },
    {
      "channel": 0,
      "note": 83,
      "start": 2.204,
      "duration": 0.0351,
      "velocity": 91,
      "chip": "ym2612"
    },
    {
      "channel": 2,
      "note": 107,
      "start": 2.2043,
      "duration": 0.018,
      "velocity": 107,
      "chip": "ym2612"
    },
    {
      "channel": 3,
      "note": 80,
      "start": 2.2045,
      "duration": 0.0348,
      "velocity": 91,
      "chip": "ym2612"
    },
    {
      "channel": 1,
      "note": 71,
      "start": 2.2222,
      "duration": 0.0023,
      "velocity": 110,
      "chip": "ym2612"
    },
    {
      "channel": 2,
      "note": 95,
      "start": 2.2225,
      "duration": 0.0021,
      "velocity": 107,
      "chip": "ym2612"
    },
    {
      "channel": 2,
      "note": 107,
      "start": 2.2249,
      "duration": 0.0022,
      "velocity": 107,
      "chip": "ym2612"
    },
    {
      "channel": 1,
      "note": 69,
      "start": 2.227,
      "duration": 0.0789,
      "velocity": 110,
      "chip": "ym2612"
    },
    {
      "channel": 2,
      "note": 95,
      "start": 2.2273,
      "duration": 0.0789,
      "velocity": 107,
      "chip": "ym2612"
    },
    {
      "channel": 1,
      "note": 71,
      "start": 2.3061,
      "duration": 0.0023,
      "velocity": 110,
      "chip": "ym2612"
    },
    {
      "channel": 2,
      "note": 107,
      "start": 2.3064,
      "duration": 0.0022,
      "velocity": 107,
      "chip": "ym2612"
    },
    {
      "channel": 3,
      "note": 80,
      "start": 2.307,
      "duration": 0.0063,
      "velocity": 91,
      "chip": "ym2612"
    },
    {
      "channel": 4,
      "note": 83,
      "start": 2.3073,
      "duration": 0.0061,
      "velocity": 91,
      "chip": "ym2612"
    },
    {
      "channel": 2,
      "note": 95,
      "start": 2.3088,
      "duration": 0.0018,
      "velocity": 107,
      "chip": "ym2612"
    },
    {
      "channel": 1,
      "note": 59,
      "start": 2.3106,
      "duration": 0.0018,
      "velocity": 110,
      "chip": "ym2612"
    },
    {
      "channel": 2,
      "note": 107,
      "start": 2.311,
      "duration": 0.0016,
      "velocity": 107,
      "chip": "ym2612"
    },
    {
      "channel": 1,
      "note": 59,
      "start": 2.3125,
      "duration": 0.0284,
      "velocity": 110,
      "chip": "ym2612"
    },
    {
      "channel": 2,
      "note": 95,
      "start": 2.3129,
      "duration": 0.0282,
      "velocity": 107,
      "chip": "ym2612"
    },
    {
      "channel": 0,
      "note": 91,
      "start": 2.3407,
      "duration": 0.0063,
      "velocity": 50,
      "chip": "ym2612"
    },
    {
      "channel": 1,
      "note": 71,
      "start": 2.341,
      "duration": 0.0026,
      "velocity": 110,
      "chip": "ym2612"
    },
    {
      "channel": 2,
      "note": 107,
      "start": 2.3413,
      "duration": 0.0024,
      "velocity": 107,
      "chip": "ym2612"
    },
    {
      "channel": 3,
      "note": 78,
      "start": 2.3424,
      "duration": 0.0241,
      "velocity": 107,
      "chip": "ym2612"
    },
    {
      "channel": 2,
      "note": 95,
      "start": 2.344,
      "duration": 0.0033,
      "velocity": 107,
      "chip": "ym2612"
    },
    {
      "channel": 0,
      "note": 79,
      "start": 2.3469,
      "duration": 0.0187,
      "velocity": 50,
      "chip": "ym2612"
    },
    {
      "channel": 1,
      "note": 69,
      "start": 2.3473,
      "duration": 0.0022,
      "velocity": 110,
      "chip": "ym2612"
    },
    {
      "channel": 2,
      "note": 107,
      "start": 2.3476,
      "duration": 0.0021,
      "velocity": 107,
      "chip": "ym2612"
    },
    {
      "channel": 2,
      "note": 95,
      "start": 2.3499,
      "duration": 0.0029,
      "velocity": 107,
      "chip": "ym2612"
    },
    {
      "channel": 1,
      "note": 71,
      "start": 2.3527,
      "duration": 0.0034,
      "velocity": 110,
      "chip": "ym2612"
    },
    {
      "channel": 2,
      "note": 107,
      "start": 2.353,
      "duration": 0.0032,
      "velocity": 107,
      "chip": "ym2612"
    },
    {
      "channel": 4,
      "note": 91,
      "start": 2.3545,
      "duration": 0.0061,
      "velocity": 50,
      "chip": "ym2612"
    },
    {
      "channel": 2,
      "note": 95,
      "start": 2.3564,
      "duration": 0.0025,
      "velocity": 107,
      "chip": "ym2612"
    },
    {
      "channel": 1,
      "note": 59,
      "start": 2.3588,
      "duration": 0.0039,
      "velocity": 110,
      "chip": "ym2612"
    },
    {
      "channel": 2,
      "note": 107,
      "start": 2.3591,
      "duration": 0.0039,
      "velocity": 107,
      "chip": "ym2612"
    },
    {
      "channel": 4,
      "note": 79,
      "start": 2.3606,
      "duration": 0.0554,
      "velocity": 100,
      "chip": "ym2612"
    },
    {
      "channel": 1,
      "note": 71,
      "start": 2.3629,
      "duration": 0.0027,
      "velocity": 110,
      "chip": "ym2612"
    },
    {
      "channel": 2,
      "note": 95,
      "start": 2.3632,
      "duration": 0.0026,
      "velocity": 107,
      "chip": "ym2612"
    },
    {
      "channel": 0,
      "note": 79,
      "start": 2.3656,
      "duration": 0.0035,
      "velocity": 50,
      "chip": "ym2612"
    },
    {
      "channel": 2,
      "note": 107,
      "start": 2.3661,
      "duration": 0.0034,
      "velocity": 107,
      "chip": "ym2612"
    },
    {
      "channel": 3,
      "note": 78,
      "start": 2.3665,
      "duration": 0.0036,
      "velocity": 107,
      "chip": "ym2612"
    },
    {
      "channel": 0,
      "note": 79,
      "start": 2.3691,
      "duration": 0.0041,
      "velocity": 50,
      "chip": "ym2612"
    },
    {
      "channel": 1,
      "note": 71,
      "start": 2.3694,
      "duration": 0.0039,
      "velocity": 110,
      "chip": "ym2612"
    },
    {
      "channel": 2,
      "note": 95,
      "start": 2.3698,
      "duration": 0.0037,
      "velocity": 107,
      "chip": "ym2612"
    },
    {
      "channel": 3,
      "note": 78,
      "start": 2.3701,
      "duration": 0.0041,
      "velocity": 107,
      "chip": "ym2612"
    },
    {
      "channel": 0,
      "note": 79,
      "start": 2.3732,
      "duration": 0.003,
      "velocity": 50,
      "chip": "ym2612"
    },
    {
      "channel": 2,
      "note": 107,
      "start": 2.3738,
      "duration": 0.0029,
      "velocity": 107,
      "chip": "ym2612"
    },
    {
      "channel": 3,
      "note": 78,
      "start": 2.3744,
      "duration": 0.0029,
      "velocity": 107,
      "chip": "ym2612"
    },
    {
      "channel": 0,
      "note": 79,
      "start": 2.3763,
      "duration": 0.0038,
      "velocity": 50,
      "chip": "ym2612"
    },
    {
      "channel": 1,
      "note": 69,
      "start": 2.3766,
      "duration": 0.0035,
      "velocity": 110,
      "chip": "ym2612"
    },
    {
      "channel": 2,
      "note": 95,
      "start": 2.3769,
      "duration": 0.0034,
      "velocity": 107,
      "chip": "ym2612"
    },
    {
      "channel": 3,
      "note": 78,
      "start": 2.3772,
      "duration": 0.0039,
      "velocity": 107,
      "chip": "ym2612"
    },
    {
      "channel": 0,
      "note": 79,
      "start": 2.38,
      "duration": 0.003,
      "velocity": 50,
      "chip": "ym2612"
    },
    {
      "channel": 1,
      "note": 71,
      "start": 2.3803,
      "duration": 0.0024,
      "velocity": 110,
      "chip": "ym2612"
    },
    {
      "channel": 2,
      "note": 107,
      "start": 2.3807,
      "duration": 0.0025,
      "velocity": 107,
      "chip": "ym2612"
    },
    {
      "channel": 3,
      "note": 78,
      "start": 2.3813,
      "duration": 0.0023,
      "velocity": 107,
      "chip": "ym2612"
    },
    {
      "channel": 0,
      "note": 79,
      "start": 2.3831,
      "duration": 0.0024,
      "velocity": 50,
      "chip": "ym2612"
    },
    {
      "channel": 2,
      "note": 95,
      "start": 2.3833,
      "duration": 0.0028,
      "velocity": 107,
      "chip": "ym2612"
    },
    {
      "channel": 3,
      "note": 78,
      "start": 2.3836,
      "duration": 0.0033,
      "velocity": 107,
      "chip": "ym2612"
    },
    {
      "channel": 0,
      "note": 79,
      "start": 2.3855,
      "duration": 0.0088,
      "velocity": 50,
      "chip": "ym2612"
    },
    {
      "channel": 1,
      "note": 59,
      "start": 2.386,
      "duration": 0.0083,
      "velocity": 110,
      "chip": "ym2612"
    },
    {
      "channel": 2,
      "note": 107,
      "start": 2.3863,
      "duration": 0.0082,
      "velocity": 107,
      "chip": "ym2612"
    },
    {
      "channel": 3,
      "note": 78,
      "start": 2.3871,
      "duration": 0.008,
      "velocity": 107,
      "chip": "ym2612"
    },
    {
      "channel": 0,
      "note": 79,
      "start": 2.3943,
      "duration": 0.0057,
      "velocity": 100,
      "chip": "ym2612"
    },
    {
      "channel": 1,
      "note": 59,
      "start": 2.3945,
      "duration": 0.0065,
      "velocity": 92,
      "chip": "ym2612"
    },
    {
      "channel": 2,
      "note": 95,
      "start": 2.3948,
      "duration": 0.0072,
      "velocity": 102,
      "chip": "ym2612"
    },
    {
      "channel": 3,
      "note": 78,
      "start": 2.3951,
      "duration": 0.0083,
      "velocity": 101,
      "chip": "ym2612"
    },
    {
      "channel": 0,
      "note": 72,
      "start": 2.4002,
      "duration": 0.0053,
      "velocity": 100,
      "chip": "ym2612"
    },
    {
      "channel": 1,
      "note": 50,
      "start": 2.4011,
      "duration": 0.0045,
      "velocity": 92,
      "chip": "ym2612"
    },
    {
      "channel": 2,
      "note": 95,
      "start": 2.4022,
      "duration": 0.0036,
      "velocity": 102,
      "chip": "ym2612"
    },
    {
      "channel": 3,
      "note": 78,
      "start": 2.4036,
      "duration": 0.0024,
      "velocity": 101,
      "chip": "ym2612"
    },
    {
      "channel": 0,
      "note": 93,
      "start": 2.4056,
      "duration": 0.008,
      "velocity": 100,
      "chip": "ym2612"
    },
    {
      "channel": 1,
      "note": 62,
      "start": 2.4058,
      "duration": 0.0059,
      "velocity": 92,
      "chip": "ym2612"
    },
    {
      "channel": 2,
      "note": 70,
      "start": 2.4059,
      "duration": 0.0083,
      "velocity": 102,
      "chip": "ym2612"
    },
    {
      "channel": 3,
      "note": 76,
      "start": 2.4061,
      "duration": 0.0085,
      "velocity": 101,
      "chip": "ym2612"
    },
    {
      "channel": 0,
      "note": 92,
      "start": 2.4138,
      "duration": 0.012,
      "velocity": 100,
      "chip": "ym2612"
    },
    {
      "channel": 1,
      "note": 61,
      "start": 2.4142,
      "duration": 0.0118,
      "velocity": 92,
      "chip": "ym2612"
    },
    {
      "channel": 2,
      "note": 69,
      "start": 2.4146,
      "duration": 0.0116,
      "velocity": 102,
      "chip": "ym2612"
    },
    {
      "channel": 3,
      "note": 75,
      "start": 2.4148,
      "duration": 0.0116,
      "velocity": 101,
      "chip": "ym2612"
    },
    {
      "channel": 4,
      "note": 72,
      "start": 2.4161,
      "duration": 0.0027,
      "velocity": 100,
      "chip": "ym2612"
    },
    {
      "channel": 4,
      "note": 93,
      "start": 2.4189,
      "duration": 0.0077,
      "velocity": 100,
      "chip": "ym2612"
    },
    {
      "channel": 4,
      "note": 92,
      "start": 2.4269,
      "duration": 0.004,
      "velocity": 100,
      "chip": "ym2612"
    },
    {
      "channel": 0,
      "note": 95,
      "start": 2.4399,
      "duration": 0.1344,
      "velocity": 100,
      "chip": "ym2612"
    },
    {
      "channel": 1,
      "note": 60,
      "start": 2.4403,
      "duration": 0.0206,
      "velocity": 92,
      "chip": "ym2612"
    },
    {
      "channel": 2,
      "note": 72,
      "start": 2.4406,
      "duration": 0.1342,
      "velocity": 102,
      "chip": "ym2612"
    },
    {
      "channel": 3,
      "note": 78,
      "start": 2.4409,
      "duration": 0.1343,
      "velocity": 101,
      "chip": "ym2612"
    },
    {
      "channel": 4,
      "note": 95,
      "start": 2.4502,
      "duration": 0.366,
      "velocity": 100,
      "chip": "ym2612"
    },
    {
      "channel": 1,
      "note": 60,
      "start": 2.4609,
      "duration": 0.3842,
      "velocity": 110,
      "chip": "ym2612"
    },
    {
      "channel": 0,
      "note": 95,
      "start": 2.5744,
      "duration": 0.2698,
      "velocity": 107,
      "chip": "ym2612"
    },
    {
      "channel": 2,
      "note": 72,
      "start": 2.5748,
      "duration": 0.2714,
      "velocity": 107,
      "chip": "ym2612"
    },
    {
      "channel": 3,
      "note": 78,
      "start": 2.5751,
      "duration": 0.2722,
      "velocity": 107,
      "chip": "ym2612"
    },
    {
      "channel": 4,
      "note": 95,
      "start": 2.8162,
      "duration": 0.0317,
      "velocity": 100,
      "chip": "ym2612"
    },
    {
      "channel": 0,
      "note": 93,
      "start": 2.8444,
      "duration": 0.0079,
      "velocity": 50,
      "chip": "ym2612"
    },
    {
      "channel": 1,
      "note": 69,
      "start": 2.8453,
      "duration": 0.0037,
      "velocity": 110,
      "chip": "ym2612"
    },
    {
      "channel": 2,
      "note": 105,
      "start": 2.8464,
      "duration": 0.0026,
      "velocity": 107,
      "chip": "ym2612"
    },
    {
      "channel": 3,
      "note": 76,
      "start": 2.8475,
      "duration": 25.545,
      "velocity": 107,
      "chip": "ym2612"
    },
    {
      "channel": 2,
      "note": 93,
      "start": 2.8494,
      "duration": 0.0033,
      "velocity": 107,
      "chip": "ym2612"
    },
    {
      "channel": 0,
      "note": 81,
      "start": 2.8523,
      "duration": 25.5401,
      "velocity": 50,
      "chip": "ym2612"
    },
    {
      "channel": 1,
      "note": 67,
      "start": 2.8526,
      "duration": 0.078,
      "velocity": 110,
      "chip": "ym2612"
    },
    {
      "channel": 2,
      "note": 105,
      "start": 2.8529,
      "duration": 0.0777,
      "velocity": 107,
      "chip": "ym2612"
    },
    {
      "channel": 2,
      "note": 93,
      "start": 2.9309,
      "duration": 25.4615,
      "velocity": 107,
      "chip": "ym2612"
    }
  ]
}