{
  "track_name": "04 - Scenario 2",
  "duration_sec": 18.34,
  "sample_rate": 44100,
  "note_count": 230,
  "unique_pitches": 33,
  "pitch_range": 50,
  "avg_note_duration": 0.1713,
  "reconstruction_stats": {
    "notes_reconstructed": 230,
    "keyon_events": 230,
    "keyoff_events": 228,
    "orphan_keyons": 2,
    "unique_pitches": 33,
    "pitch_range": 50,
    "avg_duration_sec": 0.1713
  },
  "metadata": {
    "source": "P\\Panorama Cotton\\04 - Scenario 2.vgm"
  },
  "notes": [
    {
      "channel": 2,
      "note": 57,
      "start": 0.0074,
      "duration": 0.0067,
      "velocity": 108,
      "chip": "ym2612"
    },
    {
      "channel": 4,
      "note": 45,
      "start": 0.0085,
      "duration": 0.0059,
      "velocity": 102,
      "chip": "ym2612"
    },
    {
      "channel": 2,
      "note": 57,
      "start": 0.0142,
      "duration": 0.0042,
      "velocity": 108,
      "chip": "ym2612"
    },
    {
      "channel": 4,
      "note": 45,
      "start": 0.0145,
      "duration": 0.0041,
      "velocity": 102,
      "chip": "ym2612"
    },
    {
      "channel": 2,
      "note": 57,
      "start": 0.0184,
      "duration": 0.0051,
      "velocity": 108,
      "chip": "ym2612"
    },
    {
      "channel": 4,
      "note": 45,
      "start": 0.0187,
      "duration": 0.0051,
      "velocity": 102,
      "chip": "ym2612"
    },
    {
      "channel": 2,
      "note": 61,
      "start": 0.0235,
      "duration": 0.0977,
      "velocity": 108,
      "chip": "ym2612"
    },
    {
      "channel": 4,
      "note": 45,
      "start": 0.0238,
      "duration": 0.0976,
      "velocity": 102,
      "chip": "ym2612"
    },
    {
      "channel": 2,
      "note": 57,
      "start": 0.1212,
      "duration": 0.0053,
      "velocity": 108,
      "chip": "ym2612"
    },
    {
      "channel": 4,
      "note": 45,
      "start": 0.1215,
      "duration": 0.0051,
      "velocity": 102,
      "chip": "ym2612"
    },
    {
      "channel": 2,
      "note": 57,
      "start": 0.1265,
      "duration": 0.0046,
      "velocity": 108,
      "chip": "ym2612"
    },
    {
      "channel": 4,
      "note": 40,
      "start": 0.1267,
      "duration": 0.0046,
      "velocity": 102,
      "chip": "ym2612"
    },
    {
      "channel": 2,
      "note": 57,
      "start": 0.1311,
      "duration": 0.0057,
      "velocity": 108,
      "chip": "ym2612"
    },
    {
      "channel": 4,
      "note": 40,
      "start": 0.1314,
      "duration": 0.0056,
      "velocity": 102,
      "chip": "ym2612"
    },
    {
      "channel": 2,
      "note": 55,
      "start": 0.1368,
      "duration": 0.098,
      "velocity": 108,
      "chip": "ym2612"
    },
    {
      "channel": 4,
      "note": 40,
      "start": 0.1371,
      "duration": 0.0981,
      "velocity": 102,
      "chip": "ym2612"
    },
    {
      "channel": 2,
      "note": 56,
      "start": 0.2349,
      "duration": 0.0057,
      "velocity": 108,
      "chip": "ym2612"
    },
    {
      "channel": 4,
      "note": 40,
      "start": 0.2352,
      "duration": 0.0056,
      "velocity": 102,
      "chip": "ym2612"
    },
    {
      "channel": 2,
      "note": 57,
      "start": 0.2406,
      "duration": 0.0044,
      "velocity": 108,
      "chip": "ym2612"
    },
    {
      "channel": 4,
      "note": 45,
      "start": 0.2409,
      "duration": 0.0044,
      "velocity": 102,
      "chip": "ym2612"
    },
    {
      "channel": 2,
      "note": 57,
      "start": 0.245,
      "duration": 0.0054,
      "velocity": 108,
      "chip": "ym2612"
    },
    {
      "channel": 4,
      "note": 45,
      "start": 0.2453,
      "duration": 0.0054,
      "velocity": 102,
      "chip": "ym2612"
    },
    {
      "channel": 2,
      "note": 61,
      "start": 0.2504,
      "duration": 0.0978,
      "velocity": 108,
      "chip": "ym2612"
    },
    {
      "channel": 4,
      "note": 45,
      "start": 0.2507,
      "duration": 0.0978,
      "velocity": 102,
      "chip": "ym2612"
    },
    {
      "channel": 2,
      "note": 57,
      "start": 0.3535,
      "duration": 0.0055,
      "velocity": 108,
      "chip": "ym2612"
    },
    {
      "channel": 3,
      "note": 75,
      "start": 0.3541,
      "duration": 0.005,
      "velocity": 108,
      "chip": "ym2612"
    },
    {
      "channel": 4,
      "note": 45,
      "start": 0.3543,
      "duration": 0.0051,
      "velocity": 102,
      "chip": "ym2612"
    },
    {
      "channel": 2,
      "note": 87,
      "start": 0.359,
      "duration": 0.1031,
      "velocity": 108,
      "chip": "ym2612"
    },
    {
      "channel": 3,
      "note": 84,
      "start": 0.3592,
      "duration": 0.1031,
      "velocity": 108,
      "chip": "ym2612"
    },
    {
      "channel": 4,
      "note": 52,
      "start": 0.3593,
      "duration": 0.0048,
      "velocity": 102,
      "chip": "ym2612"
    },
    {
      "channel": 2,
      "note": 88,
      "start": 0.4621,
      "duration": 0.0053,
      "velocity": 108,
      "chip": "ym2612"
    },
    {
      "channel": 4,
      "note": 40,
      "start": 0.4625,
      "duration": 0.0051,
      "velocity": 102,
      "chip": "ym2612"
    },
    {
      "channel": 2,
      "note": 57,
      "start": 0.4674,
      "duration": 0.0046,
      "velocity": 108,
      "chip": "ym2612"
    },
    {
      "channel": 4,
      "note": 45,
      "start": 0.4677,
      "duration": 0.0047,
      "velocity": 102,
      "chip": "ym2612"
    },
    {
      "channel": 2,
      "note": 57,
      "start": 0.4721,
      "duration": 0.0049,
      "velocity": 108,
      "chip": "ym2612"
    },
    {
      "channel": 4,
      "note": 45,
      "start": 0.4724,
      "duration": 0.0049,
      "velocity": 102,
      "chip": "ym2612"
    },
    {
      "channel": 2,
      "note": 61,
      "start": 0.477,
      "duration": 0.0983,
      "velocity": 108,
      "chip": "ym2612"
    },
    {
      "channel": 4,
      "note": 45,
      "start": 0.4773,
      "duration": 0.0983,
      "velocity": 102,
      "chip": "ym2612"
    },
    {
      "channel": 2,
      "note": 57,
      "start": 0.5754,
      "duration": 0.0051,
      "velocity": 108,
      "chip": "ym2612"
    },
    {
      "channel": 4,
      "note": 45,
      "start": 0.5757,
      "duration": 0.005,
      "velocity": 102,
      "chip": "ym2612"
    },
    {
      "channel": 2,
      "note": 57,
      "start": 0.5805,
      "duration": 0.0049,
      "velocity": 108,
      "chip": "ym2612"
    },
    {
      "channel": 4,
      "note": 40,
      "start": 0.5807,
      "duration": 0.005,
      "velocity": 102,
      "chip": "ym2612"
    },
    {
      "channel": 2,
      "note": 57,
      "start": 0.5854,
      "duration": 0.0051,
      "velocity": 108,
      "chip": "ym2612"
    },
    {
      "channel": 4,
      "note": 40,
      "start": 0.5857,
      "duration": 0.0051,
      "velocity": 102,
      "chip": "ym2612"
    },
    {
      "channel": 2,
      "note": 55,
      "start": 0.5905,
      "duration": 0.0985,
      "velocity": 108,
      "chip": "ym2612"
    },
    {
      "channel": 4,
      "note": 40,
      "start": 0.5908,
      "duration": 0.0985,
      "velocity": 102,
      "chip": "ym2612"
    },
    {
      "channel": 2,
      "note": 56,
      "start": 0.689,
      "duration": 0.0051,
      "velocity": 108,
      "chip": "ym2612"
    },
    {
      "channel": 4,
      "note": 40,
      "start": 0.6893,
      "duration": 0.0049,
      "velocity": 102,
      "chip": "ym2612"
    },
    {
      "channel": 2,
      "note": 57,
      "start": 0.6941,
      "duration": 0.0047,
      "velocity": 108,
      "chip": "ym2612"
    },
    {
      "channel": 4,
      "note": 45,
      "start": 0.6943,
      "duration": 0.0047,
      "velocity": 102,
      "chip": "ym2612"
    },
    {
      "channel": 2,
      "note": 57,
      "start": 0.6988,
      "duration": 0.0047,
      "velocity": 108,
      "chip": "ym2612"
    },
    {
      "channel": 4,
      "note": 45,
      "start": 0.699,
      "duration": 0.0048,
      "velocity": 102,
      "chip": "ym2612"
    },
    {
      "channel": 2,
      "note": 61,
      "start": 0.7035,
      "duration": 0.0982,
      "velocity": 108,
      "chip": "ym2612"
    },
    {
      "channel": 4,
      "note": 45,
      "start": 0.7038,
      "duration": 0.0982,
      "velocity": 102,
      "chip": "ym2612"
    },
    {
      "channel": 2,
      "note": 57,
      "start": 0.8067,
      "duration": 0.005,
      "velocity": 108,
      "chip": "ym2612"
    },
    {
      "channel": 3,
      "note": 85,
      "start": 0.807,
      "duration": 0.0049,
      "velocity": 108,
      "chip": "ym2612"
    },
    {
      "channel": 4,
      "note": 45,
      "start": 0.8072,
      "duration": 0.0048,
      "velocity": 102,
      "chip": "ym2612"
    },
    {
      "channel": 2,
      "note": 87,
      "start": 0.8117,
      "duration": 0.1038,
      "velocity": 108,
      "chip": "ym2612"
    },
    {
      "channel": 3,
      "note": 84,
      "start": 0.8119,
      "duration": 0.1038,
      "velocity": 108,
      "chip": "ym2612"
    },
    {
      "channel": 4,
      "note": 52,
      "start": 0.812,
      "duration": 0.0054,
      "velocity": 102,
      "chip": "ym2612"
    },
    {
      "channel": 1,
      "note": 80,
      "start": 0.9152,
      "duration": 0.1168,
      "velocity": 101,
      "chip": "ym2612"
    },
    {
      "channel": 4,
      "note": 40,
      "start": 0.9159,
      "duration": 0.0068,
      "velocity": 102,
      "chip": "ym2612"
    },
    {
      "channel": 2,
      "note": 88,
      "start": 0.9225,
      "duration": 0.0061,
      "velocity": 110,
      "chip": "ym2612"
    },
    {
      "channel": 4,
      "note": 38,
      "start": 0.9228,
      "duration": 0.006,
      "velocity": 102,
      "chip": "ym2612"
    },
    {
      "channel": 3,
      "note": 85,
      "start": 0.9242,
      "duration": 0.0062,
      "velocity": 110,
      "chip": "ym2612"
    },
    {
      "channel": 2,
      "note": 78,
      "start": 0.9286,
      "duration": 0.0062,
      "velocity": 110,
      "chip": "ym2612"
    },
    {
      "channel": 4,
      "note": 38,
      "start": 0.9288,
      "duration": 0.0062,
      "velocity": 102,
      "chip": "ym2612"
    },
    {
      "channel": 3,
      "note": 78,
      "start": 0.9304,
      "duration": 0.0057,
      "velocity": 110,
      "chip": "ym2612"
    },
    {
      "channel": 2,
      "note": 78,
      "start": 0.9348,
      "duration": 0.0975,
      "velocity": 110,
      "chip": "ym2612"
    },
    {
      "channel": 4,
      "note": 42,
      "start": 0.9351,
      "duration": 0.0976,
      "velocity": 102,
      "chip": "ym2612"
    },
    {
      "channel": 3,
      "note": 78,
      "start": 0.9361,
      "duration": 0.0983,
      "velocity": 110,
      "chip": "ym2612"
    },
    {
      "channel": 1,
      "note": 66,
      "start": 1.0322,
      "duration": 0.1154,
      "velocity": 101,
      "chip": "ym2612"
    },
    {
      "channel": 2,
      "note": 78,
      "start": 1.0323,
      "duration": 0.0064,
      "velocity": 110,
      "chip": "ym2612"
    },
    {
      "channel": 4,
      "note": 45,
      "start": 1.0327,
      "duration": 0.0063,
      "velocity": 102,
      "chip": "ym2612"
    },
    {
      "channel": 3,
      "note": 78,
      "start": 1.0344,
      "duration": 0.0056,
      "velocity": 110,
      "chip": "ym2612"
    },
    {
      "channel": 2,
      "note": 76,
      "start": 1.0388,
      "duration": 0.005,
      "velocity": 110,
      "chip": "ym2612"
    },
    {
      "channel": 4,
      "note": 40,
      "start": 1.0391,
      "duration": 0.005,
      "velocity": 102,
      "chip": "ym2612"
    },
    {
      "channel": 3,
      "note": 76,
      "start": 1.0401,
      "duration": 0.0054,
      "velocity": 110,
      "chip": "ym2612"
    },
    {
      "channel": 2,
      "note": 74,
      "start": 1.0438,
      "duration": 0.0063,
      "velocity": 110,
      "chip": "ym2612"
    },
    {
      "channel": 4,
      "note": 40,
      "start": 1.0441,
      "duration": 0.0062,
      "velocity": 102,
      "chip": "ym2612"
    },
    {
      "channel": 3,
      "note": 74,
      "start": 1.0455,
      "duration": 0.006,
      "velocity": 110,
      "chip": "ym2612"
    },
    {
      "channel": 2,
      "note": 73,
      "start": 1.05,
      "duration": 0.0977,
      "velocity": 110,
      "chip": "ym2612"
    },
    {
      "channel": 4,
      "note": 44,
      "start": 1.0504,
      "duration": 0.0977,
      "velocity": 102,
      "chip": "ym2612"
    },
    {
      "channel": 3,
      "note": 73,
      "start": 1.0515,
      "duration": 0.0983,
      "velocity": 110,
      "chip": "ym2612"
    },
    {
      "channel": 1,
      "note": 68,
      "start": 1.1476,
      "duration": 0.1154,
      "velocity": 101,
      "chip": "ym2612"
    },
    {
      "channel": 2,
      "note": 71,
      "start": 1.1478,
      "duration": 0.0109,
      "velocity": 110,
      "chip": "ym2612"
    },
    {
      "channel": 4,
      "note": 47,
      "start": 1.1481,
      "duration": 0.0059,
      "velocity": 102,
      "chip": "ym2612"
    },
    {
      "channel": 3,
      "note": 71,
      "start": 1.1499,
      "duration": 0.0108,
      "velocity": 110,
      "chip": "ym2612"
    },
    {
      "channel": 4,
      "note": 45,
      "start": 1.1541,
      "duration": 0.0049,
      "velocity": 102,
      "chip": "ym2612"
    },
    {
      "channel": 2,
      "note": 73,
      "start": 1.1588,
      "duration": 0.0065,
      "velocity": 110,
      "chip": "ym2612"
    },
    {
      "channel": 4,
      "note": 45,
      "start": 1.1591,
      "duration": 0.0065,
      "velocity": 102,
      "chip": "ym2612"
    },
    {
      "channel": 3,
      "note": 73,
      "start": 1.1607,
      "duration": 0.0056,
      "velocity": 110,
      "chip": "ym2612"
    },
    {
      "channel": 2,
      "note": 76,
      "start": 1.1653,
      "duration": 0.1037,
      "velocity": 110,
      "chip": "ym2612"
    },
    {
      "channel": 4,
      "note": 49,
      "start": 1.1656,
      "duration": 0.0977,
      "velocity": 102,
      "chip": "ym2612"
    },
    {
      "channel": 3,
      "note": 76,
      "start": 1.1663,
      "duration": 0.1042,
      "velocity": 110,
      "chip": "ym2612"
    },
    {
      "channel": 1,
      "note": 69,
      "start": 1.263,
      "duration": 0.1158,
      "velocity": 101,
      "chip": "ym2612"
    },
    {
      "channel": 4,
      "note": 52,
      "start": 1.2634,
      "duration": 0.0059,
      "velocity": 102,
      "chip": "ym2612"
    },
    {
      "channel": 2,
      "note": 69,
      "start": 1.269,
      "duration": 0.0058,
      "velocity": 110,
      "chip": "ym2612"
    },
    {
      "channel": 4,
      "note": 45,
      "start": 1.2693,
      "duration": 0.0058,
      "velocity": 102,
      "chip": "ym2612"
    },
    {
      "channel": 3,
      "note": 69,
      "start": 1.2705,
      "duration": 0.0062,
      "velocity": 110,
      "chip": "ym2612"
    },
    {
      "channel": 2,
      "note": 69,
      "start": 1.2748,
      "duration": 0.0059,
      "velocity": 110,
      "chip": "ym2612"
    },
    {
      "channel": 4,
      "note": 44,
      "start": 1.2751,
      "duration": 0.0059,
      "velocity": 102,
      "chip": "ym2612"
    },
    {
      "channel": 3,
      "note": 69,
      "start": 1.2767,
      "duration": 0.0056,
      "velocity": 110,
      "chip": "ym2612"
    },
    {
      "channel": 2,
      "note": 71,
      "start": 1.2807,
      "duration": 0.0983,
      "velocity": 110,
      "chip": "ym2612"
    },
    {
      "channel": 4,
      "note": 42,
      "start": 1.281,
      "duration": 0.0983,
      "velocity": 102,
      "chip": "ym2612"
    },
    {
      "channel": 3,
      "note": 71,
      "start": 1.2824,
      "duration": 0.0988,
      "velocity": 110,
      "chip": "ym2612"
    },
    {
      "channel": 1,
      "note": 64,
      "start": 1.3789,
      "duration": 0.1171,
      "velocity": 101,
      "chip": "ym2612"
    },
    {
      "channel": 2,
      "note": 73,
      "start": 1.3791,
      "duration": 0.0133,
      "velocity": 110,
      "chip": "ym2612"
    },
    {
      "channel": 4,
      "note": 40,
      "start": 1.3795,
      "duration": 0.0059,
      "velocity": 102,
      "chip": "ym2612"
    },
    {
      "channel": 3,
      "note": 73,
      "start": 1.3812,
      "duration": 0.0132,
      "velocity": 110,
      "chip": "ym2612"
    },
    {
      "channel": 4,
      "note": 38,
      "start": 1.3854,
      "duration": 0.0073,
      "velocity": 102,
      "chip": "ym2612"
    },
    {
      "channel": 2,
      "note": 74,
      "start": 1.3924,
      "duration": 0.0058,
      "velocity": 110,
      "chip": "ym2612"
    },
    {
      "channel": 4,
      "note": 38,
      "start": 1.3927,
      "duration": 0.0057,
      "velocity": 102,
      "chip": "ym2612"
    },
    {
      "channel": 3,
      "note": 74,
      "start": 1.3944,
      "duration": 0.005,
      "velocity": 110,
      "chip": "ym2612"
    },
    {
      "channel": 2,
      "note": 78,
      "start": 1.3982,
      "duration": 0.1039,
      "velocity": 110,
      "chip": "ym2612"
    },
    {
      "channel": 4,
      "note": 42,
      "start": 1.3985,
      "duration": 0.0979,
      "velocity": 102,
      "chip": "ym2612"
    },
    {
      "channel": 3,
      "note": 78,
      "start": 1.3995,
      "duration": 0.104,
      "velocity": 110,
      "chip": "ym2612"
    },
    {
      "channel": 1,
      "note": 66,
      "start": 1.4961,
      "duration": 0.1158,
      "velocity": 101,
      "chip": "ym2612"
    },
    {
      "channel": 4,
      "note": 45,
      "start": 1.4964,
      "duration": 0.0059,
      "velocity": 102,
      "chip": "ym2612"
    },
    {
      "channel": 2,
      "note": 71,
      "start": 1.5021,
      "duration": 0.0058,
      "velocity": 110,
      "chip": "ym2612"
    },
    {
      "channel": 4,
      "note": 40,
      "start": 1.5024,
      "duration": 0.0058,
      "velocity": 102,
      "chip": "ym2612"
    },
    {
      "channel": 3,
      "note": 71,
      "start": 1.5036,
      "duration": 0.0063,
      "velocity": 110,
      "chip": "ym2612"
    },
    {
      "channel": 2,
      "note": 71,
      "start": 1.5079,
      "duration": 0.0059,
      "velocity": 110,
      "chip": "ym2612"
    },
    {
      "channel": 4,
      "note": 40,
      "start": 1.5082,
      "duration": 0.0059,
      "velocity": 102,
      "chip": "ym2612"
    },
    {
      "channel": 3,
      "note": 71,
      "start": 1.5099,
      "duration": 0.0055,
      "velocity": 110,
      "chip": "ym2612"
    },
    {
      "channel": 2,
      "note": 73,
      "start": 1.5138,
      "duration": 0.0982,
      "velocity": 110,
      "chip": "ym2612"
    },
    {
      "channel": 4,
      "note": 44,
      "start": 1.5141,
      "duration": 0.0983,
      "velocity": 102,
      "chip": "ym2612"
    },
    {
      "channel": 3,
      "note": 73,
      "start": 1.5154,
      "duration": 0.0982,
      "velocity": 110,
      "chip": "ym2612"
    },
    {
      "channel": 1,
      "note": 68,
      "start": 1.6119,
      "duration": 0.1148,
      "velocity": 101,
      "chip": "ym2612"
    },
    {
      "channel": 2,
      "note": 74,
      "start": 1.6121,
      "duration": 0.006,
      "velocity": 110,
      "chip": "ym2612"
    },
    {
      "channel": 4,
      "note": 47,
      "start": 1.6124,
      "duration": 0.0059,
      "velocity": 102,
      "chip": "ym2612"
    },
    {
      "channel": 3,
      "note": 74,
      "start": 1.6137,
      "duration": 0.0056,
      "velocity": 110,
      "chip": "ym2612"
    },
    {
      "channel": 4,
      "note": 45,
      "start": 1.6183,
      "duration": 0.0049,
      "velocity": 102,
      "chip": "ym2612"
    },
    {
      "channel": 2,
      "note": 76,
      "start": 1.623,
      "duration": 0.0065,
      "velocity": 110,
      "chip": "ym2612"
    },
    {
      "channel": 4,
      "note": 45,
      "start": 1.6232,
      "duration": 0.0066,
      "velocity": 102,
      "chip": "ym2612"
    },
    {
      "channel": 3,
      "note": 76,
      "start": 1.625,
      "duration": 0.0058,
      "velocity": 110,
      "chip": "ym2612"
    },
    {
      "channel": 2,
      "note": 81,
      "start": 1.6295,
      "duration": 0.0974,
      "velocity": 110,
      "chip": "ym2612"
    },
    {
      "channel": 4,
      "note": 49,
      "start": 1.6298,
      "duration": 0.0973,
      "velocity": 102,
      "chip": "ym2612"
    },
    {
      "channel": 3,
      "note": 81,
      "start": 1.6308,
      "duration": 0.098,
      "velocity": 110,
      "chip": "ym2612"
    },
    {
      "channel": 1,
      "note": 69,
      "start": 1.7267,
      "duration": 0.1157,
      "velocity": 101,
      "chip": "ym2612"
    },
    {
      "channel": 4,
      "note": 52,
      "start": 1.7271,
      "duration": 0.0061,
      "velocity": 102,
      "chip": "ym2612"
    },
    {
      "channel": 2,
      "note": 80,
      "start": 1.733,
      "duration": 0.0051,
      "velocity": 110,
      "chip": "ym2612"
    },
    {
      "channel": 4,
      "note": 45,
      "start": 1.7332,
      "duration": 0.0052,
      "velocity": 102,
      "chip": "ym2612"
    },
    {
      "channel": 3,
      "note": 80,
      "start": 1.7343,
      "duration": 0.0056,
      "velocity": 110,
      "chip": "ym2612"
    },
    {
      "channel": 2,
      "note": 78,
      "start": 1.7382,
      "duration": 0.1044,
      "velocity": 110,
      "chip": "ym2612"
    },
    {
      "channel": 4,
      "note": 44,
      "start": 1.7385,
      "duration": 0.0068,
      "velocity": 102,
      "chip": "ym2612"
    },
    {
      "channel": 3,
      "note": 78,
      "start": 1.7399,
      "duration": 0.1046,
      "velocity": 110,
      "chip": "ym2612"
    },
    {
      "channel": 4,
      "note": 42,
      "start": 1.7452,
      "duration": 0.0977,
      "velocity": 102,
      "chip": "ym2612"
    },
    {
      "channel": 1,
      "note": 64,
      "start": 1.8424,
      "duration": 0.1168,
      "velocity": 101,
      "chip": "ym2612"
    },
    {
      "channel": 4,
      "note": 40,
      "start": 1.8429,
      "duration": 0.0064,
      "velocity": 102,
      "chip": "ym2612"
    },
    {
      "channel": 2,
      "note": 76,
      "start": 1.849,
      "duration": 0.0068,
      "velocity": 110,
      "chip": "ym2612"
    },
    {
      "channel": 4,
      "note": 38,
      "start": 1.8493,
      "duration": 0.0067,
      "velocity": 102,
      "chip": "ym2612"
    },
    {
      "channel": 3,
      "note": 76,
      "start": 1.8503,
      "duration": 0.0075,
      "velocity": 110,
      "chip": "ym2612"
    },
    {
      "channel": 2,
      "note": 78,
      "start": 1.8558,
      "duration": 0.0061,
      "velocity": 110,
      "chip": "ym2612"
    },
    {
      "channel": 4,
      "note": 38,
      "start": 1.8561,
      "duration": 0.0061,
      "velocity": 102,
      "chip": "ym2612"
    },
    {
      "channel": 3,
      "note": 78,
      "start": 1.8578,
      "duration": 0.0053,
      "velocity": 110,
      "chip": "ym2612"
    },
    {
      "channel": 2,
      "note": 78,
      "start": 1.8619,
      "duration": 0.0976,
      "velocity": 110,
      "chip": "ym2612"
    },
    {
      "channel": 4,
      "note": 42,
      "start": 1.8622,
      "duration": 0.0976,
      "velocity": 102,
      "chip": "ym2612"
    },
    {
      "channel": 3,
      "note": 78,
      "start": 1.8632,
      "duration": 0.0984,
      "velocity": 110,
      "chip": "ym2612"
    },
    {
      "channel": 1,
      "note": 66,
      "start": 1.9593,
      "duration": 0.116,
      "velocity": 101,
      "chip": "ym2612"
    },
    {
      "channel": 2,
      "note": 78,
      "start": 1.9595,
      "duration": 0.0066,
      "velocity": 110,
      "chip": "ym2612"
    },
    {
      "channel": 4,
      "note": 45,
      "start": 1.9598,
      "duration": 0.0065,
      "velocity": 102,
      "chip": "ym2612"
    },
    {
      "channel": 3,
      "note": 78,
      "start": 1.9616,
      "duration": 0.0058,
      "velocity": 110,
      "chip": "ym2612"
    },
    {
      "channel": 2,
      "note": 76,
      "start": 1.9661,
      "duration": 0.0051,
      "velocity": 110,
      "chip": "ym2612"
    },
    {
      "channel": 4,
      "note": 40,
      "start": 1.9664,
      "duration": 0.005,
      "velocity": 102,
      "chip": "ym2612"
    },
    {
      "channel": 3,
      "note": 76,
      "start": 1.9675,
      "duration": 0.0056,
      "velocity": 110,
      "chip": "ym2612"
    },
    {
      "channel": 2,
      "note": 74,
      "start": 1.9712,
      "duration": 0.0068,
      "velocity": 110,
      "chip": "ym2612"
    },
    {
      "channel": 4,
      "note": 40,
      "start": 1.9715,
      "duration": 0.0068,
      "velocity": 102,
      "chip": "ym2612"
    },
    {
      "channel": 3,
      "note": 74,
      "start": 1.9731,
      "duration": 0.0057,
      "velocity": 110,
      "chip": "ym2612"
    },
    {
      "channel": 2,
      "note": 73,
      "start": 1.9779,
      "duration": 0.0976,
      "velocity": 110,
      "chip": "ym2612"
    },
    {
      "channel": 4,
      "note": 44,
      "start": 1.9782,
      "duration": 0.0976,
      "velocity": 102,
      "chip": "ym2612"
    },
    {
      "channel": 3,
      "note": 73,
      "start": 1.9788,
      "duration": 0.0989,
      "velocity": 110,
      "chip": "ym2612"
    },
    {
      "channel": 1,
      "note": 68,
      "start": 2.0753,
      "duration": 0.1159,
      "velocity": 101,
      "chip": "ym2612"
    },
    {
      "channel": 2,
      "note": 71,
      "start": 2.0756,
      "duration": 0.0119,
      "velocity": 110,
      "chip": "ym2612"
    },
    {
      "channel": 4,
      "note": 47,
      "start": 2.0759,
      "duration": 0.0062,
      "velocity": 102,
      "chip": "ym2612"
    },
    {
      "channel": 3,
      "note": 71,
      "start": 2.0777,
      "duration": 0.0114,
      "velocity": 110,
      "chip": "ym2612"
    },
    {
      "channel": 4,
      "note": 45,
      "start": 2.0821,
      "duration": 0.0056,
      "velocity": 102,
      "chip": "ym2612"
    },
    {
      "channel": 2,
      "note": 73,
      "start": 2.0874,
      "duration": 0.0056,
      "velocity": 110,
      "chip": "ym2612"
    },
    {
      "channel": 4,
      "note": 45,
      "start": 2.0878,
      "duration": 0.0056,
      "velocity": 102,
      "chip": "ym2612"
    },
    {
      "channel": 3,
      "note": 73,
      "start": 2.0892,
      "duration": 0.0055,
      "velocity": 110,
      "chip": "ym2612"
    },
    {
      "channel": 2,
      "note": 76,
      "start": 2.0931,
      "duration": 0.1041,
      "velocity": 110,
      "chip": "ym2612"
    },
    {
      "channel": 4,
      "note": 49,
      "start": 2.0933,
      "duration": 0.0983,
      "velocity": 102,
      "chip": "ym2612"
    },
    {
      "channel": 3,
      "note": 76,
      "start": 2.0947,
      "duration": 0.1038,
      "velocity": 110,
      "chip": "ym2612"
    },
    {
      "channel": 1,
      "note": 69,
      "start": 2.1913,
      "duration": 0.1154,
      "velocity": 101,
      "chip": "ym2612"
    },
    {
      "channel": 4,
      "note": 52,
      "start": 2.1917,
      "duration": 0.0058,
      "velocity": 102,
      "chip": "ym2612"
    },
    {
      "channel": 2,
      "note": 69,
      "start": 2.1972,
      "duration": 0.0056,
      "velocity": 110,
      "chip": "ym2612"
    },
    {
      "channel": 4,
      "note": 45,
      "start": 2.1975,
      "duration": 0.0055,
      "velocity": 102,
      "chip": "ym2612"
    },
    {
      "channel": 3,
      "note": 69,
      "start": 2.1985,
      "duration": 0.0061,
      "velocity": 110,
      "chip": "ym2612"
    },
    {
      "channel": 2,
      "note": 69,
      "start": 2.2028,
      "duration": 0.0057,
      "velocity": 110,
      "chip": "ym2612"
    },
    {
      "channel": 4,
      "note": 44,
      "start": 2.2031,
      "duration": 0.0057,
      "velocity": 102,
      "chip": "ym2612"
    },
    {
      "channel": 3,
      "note": 69,
      "start": 2.2046,
      "duration": 0.0056,
      "velocity": 110,
      "chip": "ym2612"
    },
    {
      "channel": 2,
      "note": 71,
      "start": 2.2084,
      "duration": 0.0986,
      "velocity": 110,
      "chip": "ym2612"
    },
    {
      "channel": 4,
      "note": 42,
      "start": 2.2088,
      "duration": 0.0986,
      "velocity": 102,
      "chip": "ym2612"
    },
    {
      "channel": 3,
      "note": 71,
      "start": 2.2102,
      "duration": 0.0989,
      "velocity": 110,
      "chip": "ym2612"
    },
    {
      "channel": 1,
      "note": 64,
      "start": 2.3068,
      "duration": 0.1169,
      "velocity": 101,
      "chip": "ym2612"
    },
    {
      "channel": 2,
      "note": 73,
      "start": 2.3071,
      "duration": 0.0061,
      "velocity": 110,
      "chip": "ym2612"
    },
    {
      "channel": 4,
      "note": 40,
      "start": 2.3074,
      "duration": 0.006,
      "velocity": 102,
      "chip": "ym2612"
    },
    {
      "channel": 3,
      "note": 73,
      "start": 2.3092,
      "duration": 0.0052,
      "velocity": 110,
      "chip": "ym2612"
    },
    {
      "channel": 2,
      "note": 74,
      "start": 2.3132,
      "duration": 0.0069,
      "velocity": 110,
      "chip": "ym2612"
    },
    {
      "channel": 4,
      "note": 47,
      "start": 2.3134,
      "duration": 0.0069,
      "velocity": 102,
      "chip": "ym2612"
    },
    {
      "channel": 3,
      "note": 74,
      "start": 2.3144,
      "duration": 0.0073,
      "velocity": 110,
      "chip": "ym2612"
    },
    {
      "channel": 2,
      "note": 78,
      "start": 2.3201,
      "duration": 0.0057,
      "velocity": 110,
      "chip": "ym2612"
    },
    {
      "channel": 4,
      "note": 47,
      "start": 2.3205,
      "duration": 0.0056,
      "velocity": 102,
      "chip": "ym2612"
    },
    {
      "channel": 3,
      "note": 78,
      "start": 2.3218,
      "duration": 0.0054,
      "velocity": 110,
      "chip": "ym2612"
    },
    {
      "channel": 2,
      "note": 83,
      "start": 2.3258,
      "duration": 0.0981,
      "velocity": 110,
      "chip": "ym2612"
    },
    {
      "channel": 4,
      "note": 50,
      "start": 2.3261,
      "duration": 0.0981,
      "velocity": 102,
      "chip": "ym2612"
    },
    {
      "channel": 3,
      "note": 83,
      "start": 2.3272,
      "duration": 0.0988,
      "velocity": 110,
      "chip": "ym2612"
    },
    {
      "channel": 1,
      "note": 66,
      "start": 2.4238,
      "duration": 0.0244,
      "velocity": 101,
      "chip": "ym2612"
    },
    {
      "channel": 4,
      "note": 54,
      "start": 2.4242,
      "duration": 0.0058,
      "velocity": 102,
      "chip": "ym2612"
    },
    {
      "channel": 2,
      "note": 81,
      "start": 2.4298,
      "duration": 0.0065,
      "velocity": 110,
      "chip": "ym2612"
    },
    {
      "channel": 4,
      "note": 47,
      "start": 2.4301,
      "duration": 0.0064,
      "velocity": 102,
      "chip": "ym2612"
    },
    {
      "channel": 3,
      "note": 81,
      "start": 2.4315,
      "duration": 0.0063,
      "velocity": 110,
      "chip": "ym2612"
    },
    {
      "channel": 2,
      "note": 80,
      "start": 2.4363,
      "duration": 0.006,
      "velocity": 110,
      "chip": "ym2612"
    },
    {
      "channel": 4,
      "note": 47,
      "start": 2.4365,
      "duration": 0.006,
      "velocity": 102,
      "chip": "ym2612"
    },
    {
      "channel": 3,
      "note": 80,
      "start": 2.4377,
      "duration": 0.0064,
      "velocity": 110,
      "chip": "ym2612"
    },
    {
      "channel": 2,
      "note": 80,
      "start": 2.4423,
      "duration": 0.0061,
      "velocity": 110,
      "chip": "ym2612"
    },
    {
      "channel": 4,
      "note": 50,
      "start": 2.4426,
      "duration": 0.0065,
      "velocity": 102,
      "chip": "ym2612"
    },
    {
      "channel": 3,
      "note": 80,
      "start": 2.4442,
      "duration": 0.0048,
      "velocity": 110,
      "chip": "ym2612"
    },
    {
      "channel": 2,
      "note": 78,
      "start": 2.4488,
      "duration": 0.0063,
      "velocity": 115,
      "chip": "ym2612"
    },
    {
      "channel": 4,
      "note": 54,
      "start": 2.4491,
      "duration": 0.011,
      "velocity": 102,
      "chip": "ym2612"
    },
    {
      "channel": 2,
      "note": 64,
      "start": 2.455,
      "duration": 0.0049,
      "velocity": 115,
      "chip": "ym2612"
    },
    {
      "channel": 2,
      "note": 66,
      "start": 2.46,
      "duration": 0.0051,
      "velocity": 115,
      "chip": "ym2612"
    },
    {
      "channel": 2,
      "note": 62,
      "start": 2.4651,
      "duration": 0.0531,
      "velocity": 115,
      "chip": "ym2612"
    },
    {
      "channel": 2,
      "note": 64,
      "start": 2.5182,
      "duration": 0.2,
      "velocity": 115,
      "chip": "ym2612"
    },
    {
      "channel": 2,
      "note": 61,
      "start": 2.7182,
      "duration": 0.0058,
      "velocity": 115,
      "chip": "ym2612"
    },
    {
      "channel": 4,
      "note": 52,
      "start": 2.7185,
      "duration": 0.0058,
      "velocity": 102,
      "chip": "ym2612"
    },
    {
      "channel": 2,
      "note": 62,
      "start": 2.724,
      "duration": 0.0066,
      "velocity": 115,
      "chip": "ym2612"
    },
    {
      "channel": 4,
      "note": 40,
      "start": 2.7243,
      "duration": 0.0066,
      "velocity": 102,
      "chip": "ym2612"
    },
    {
      "channel": 2,
      "note": 59,
      "start": 2.7306,
      "duration": 15.6092,
      "velocity": 115,
      "chip": "ym2612"
    },
    {
      "channel": 4,
      "note": 40,
      "start": 2.731,
      "duration": 15.6089,
      "velocity": 102,
      "chip": "ym2612"
    }
  ]
}