{
  "track_name": "04 - Descent into the Tunnels",
  "duration_sec": 38.695,
  "sample_rate": 44100,
  "note_count": 288,
  "unique_pitches": 26,
  "pitch_range": 55,
  "avg_note_duration": 0.3976,
  "reconstruction_stats": {
    "notes_reconstructed": 288,
    "keyon_events": 288,
    "keyoff_events": 288,
    "orphan_keyons": 0,
    "unique_pitches": 26,
    "pitch_range": 55,
    "avg_duration_sec": 0.3976
  },
  "metadata": {
    "source": "F\\Flashback - The Quest for Identity\\04 - Descent into the Tunnels.vgz"
  },
  "notes": [
    {
      "channel": 3,
      "note": 45,
      "start": 0.0,
      "duration": 7.7177,
      "velocity": 108,
      "chip": "ym2612"
    },
    {
      "channel": 0,
      "note": 100,
      "start": 0.0021,
      "duration": 0.232,
      "velocity": 55,
      "chip": "ym2612"
    },
    {
      "channel": 0,
      "note": 93,
      "start": 0.2375,
      "duration": 0.23,
      "velocity": 55,
      "chip": "ym2612"
    },
    {
      "channel": 0,
      "note": 98,
      "start": 0.4708,
      "duration": 0.2467,
      "velocity": 55,
      "chip": "ym2612"
    },
    {
      "channel": 0,
      "note": 93,
      "start": 0.7209,
      "duration": 0.23,
      "velocity": 55,
      "chip": "ym2612"
    },
    {
      "channel": 1,
      "note": 61,
      "start": 0.8054,
      "duration": 0.2288,
      "velocity": 113,
      "chip": "ym2612"
    },
    {
      "channel": 2,
      "note": 59,
      "start": 0.8086,
      "duration": 0.2259,
      "velocity": 113,
      "chip": "ym2612"
    },
    {
      "channel": 0,
      "note": 100,
      "start": 0.9542,
      "duration": 0.2466,
      "velocity": 55,
      "chip": "ym2612"
    },
    {
      "channel": 0,
      "note": 93,
      "start": 1.2041,
      "duration": 0.2301,
      "velocity": 55,
      "chip": "ym2612"
    },
    {
      "channel": 0,
      "note": 98,
      "start": 1.4375,
      "duration": 0.2466,
      "velocity": 55,
      "chip": "ym2612"
    },
    {
      "channel": 0,
      "note": 93,
      "start": 1.6878,
      "duration": 0.2296,
      "velocity": 55,
      "chip": "ym2612"
    },
    {
      "channel": 0,
      "note": 100,
      "start": 1.9223,
      "duration": 0.2452,
      "velocity": 55,
      "chip": "ym2612"
    },
    {
      "channel": 0,
      "note": 93,
      "start": 2.1708,
      "duration": 0.23,
      "velocity": 55,
      "chip": "ym2612"
    },
    {
      "channel": 0,
      "note": 98,
      "start": 2.4042,
      "duration": 0.2465,
      "velocity": 55,
      "chip": "ym2612"
    },
    {
      "channel": 4,
      "note": 52,
      "start": 2.6545,
      "duration": 0.2299,
      "velocity": 94,
      "chip": "ym2612"
    },
    {
      "channel": 0,
      "note": 93,
      "start": 2.6569,
      "duration": 0.2272,
      "velocity": 55,
      "chip": "ym2612"
    },
    {
      "channel": 4,
      "note": 55,
      "start": 2.8878,
      "duration": 0.1797,
      "velocity": 94,
      "chip": "ym2612"
    },
    {
      "channel": 0,
      "note": 100,
      "start": 2.8903,
      "duration": 0.2438,
      "velocity": 55,
      "chip": "ym2612"
    },
    {
      "channel": 0,
      "note": 93,
      "start": 3.1375,
      "duration": 0.23,
      "velocity": 55,
      "chip": "ym2612"
    },
    {
      "channel": 4,
      "note": 55,
      "start": 3.371,
      "duration": 0.2966,
      "velocity": 94,
      "chip": "ym2612"
    },
    {
      "channel": 0,
      "note": 98,
      "start": 3.3735,
      "duration": 0.2439,
      "velocity": 55,
      "chip": "ym2612"
    },
    {
      "channel": 5,
      "note": 57,
      "start": 3.6218,
      "duration": 2.9459,
      "velocity": 94,
      "chip": "ym2612"
    },
    {
      "channel": 0,
      "note": 93,
      "start": 3.6242,
      "duration": 0.2265,
      "velocity": 55,
      "chip": "ym2612"
    },
    {
      "channel": 0,
      "note": 100,
      "start": 3.8553,
      "duration": 0.2454,
      "velocity": 55,
      "chip": "ym2612"
    },
    {
      "channel": 0,
      "note": 93,
      "start": 4.1041,
      "duration": 0.23,
      "velocity": 55,
      "chip": "ym2612"
    },
    {
      "channel": 0,
      "note": 98,
      "start": 4.3375,
      "duration": 0.2466,
      "velocity": 55,
      "chip": "ym2612"
    },
    {
      "channel": 0,
      "note": 93,
      "start": 4.5875,
      "duration": 0.23,
      "velocity": 55,
      "chip": "ym2612"
    },
    {
      "channel": 0,
      "note": 100,
      "start": 4.8209,
      "duration": 0.2466,
      "velocity": 55,
      "chip": "ym2612"
    },
    {
      "channel": 0,
      "note": 93,
      "start": 5.0709,
      "duration": 0.23,
      "velocity": 55,
      "chip": "ym2612"
    },
    {
      "channel": 0,
      "note": 98,
      "start": 5.3042,
      "duration": 0.2466,
      "velocity": 55,
      "chip": "ym2612"
    },
    {
      "channel": 0,
      "note": 93,
      "start": 5.5542,
      "duration": 0.23,
      "velocity": 55,
      "chip": "ym2612"
    },
    {
      "channel": 0,
      "note": 100,
      "start": 5.7887,
      "duration": 0.2454,
      "velocity": 55,
      "chip": "ym2612"
    },
    {
      "channel": 0,
      "note": 93,
      "start": 6.0374,
      "duration": 0.23,
      "velocity": 55,
      "chip": "ym2612"
    },
    {
      "channel": 0,
      "note": 98,
      "start": 6.2707,
      "duration": 0.2468,
      "velocity": 55,
      "chip": "ym2612"
    },
    {
      "channel": 0,
      "note": 93,
      "start": 6.5209,
      "duration": 0.23,
      "velocity": 55,
      "chip": "ym2612"
    },
    {
      "channel": 0,
      "note": 100,
      "start": 6.7542,
      "duration": 0.23,
      "velocity": 55,
      "chip": "ym2612"
    },
    {
      "channel": 0,
      "note": 93,
      "start": 6.9875,
      "duration": 0.2466,
      "velocity": 55,
      "chip": "ym2612"
    },
    {
      "channel": 0,
      "note": 98,
      "start": 7.2375,
      "duration": 0.23,
      "velocity": 55,
      "chip": "ym2612"
    },
    {
      "channel": 0,
      "note": 93,
      "start": 7.4707,
      "duration": 0.2468,
      "velocity": 55,
      "chip": "ym2612"
    },
    {
      "channel": 3,
      "note": 45,
      "start": 7.7205,
      "duration": 7.7305,
      "velocity": 108,
      "chip": "ym2612"
    },
    {
      "channel": 1,
      "note": 81,
      "start": 7.7236,
      "duration": 0.4773,
      "velocity": 104,
      "chip": "ym2612"
    },
    {
      "channel": 0,
      "note": 100,
      "start": 7.7274,
      "duration": 0.2235,
      "velocity": 55,
      "chip": "ym2612"
    },
    {
      "channel": 0,
      "note": 93,
      "start": 7.9542,
      "duration": 0.2466,
      "velocity": 55,
      "chip": "ym2612"
    },
    {
      "channel": 1,
      "note": 88,
      "start": 8.2043,
      "duration": 0.18,
      "velocity": 104,
      "chip": "ym2612"
    },
    {
      "channel": 0,
      "note": 98,
      "start": 8.2069,
      "duration": 0.2273,
      "velocity": 55,
      "chip": "ym2612"
    },
    {
      "channel": 1,
      "note": 89,
      "start": 8.4378,
      "duration": 2.713,
      "velocity": 104,
      "chip": "ym2612"
    },
    {
      "channel": 0,
      "note": 93,
      "start": 8.4404,
      "duration": 0.2438,
      "velocity": 55,
      "chip": "ym2612"
    },
    {
      "channel": 0,
      "note": 100,
      "start": 8.6875,
      "duration": 0.23,
      "velocity": 55,
      "chip": "ym2612"
    },
    {
      "channel": 0,
      "note": 93,
      "start": 8.9208,
      "duration": 0.2467,
      "velocity": 55,
      "chip": "ym2612"
    },
    {
      "channel": 0,
      "note": 98,
      "start": 9.1708,
      "duration": 0.23,
      "velocity": 55,
      "chip": "ym2612"
    },
    {
      "channel": 0,
      "note": 93,
      "start": 9.4041,
      "duration": 0.2467,
      "velocity": 55,
      "chip": "ym2612"
    },
    {
      "channel": 0,
      "note": 100,
      "start": 9.6553,
      "duration": 0.2289,
      "velocity": 55,
      "chip": "ym2612"
    },
    {
      "channel": 0,
      "note": 93,
      "start": 9.8875,
      "duration": 0.2466,
      "velocity": 55,
      "chip": "ym2612"
    },
    {
      "channel": 0,
      "note": 98,
      "start": 10.1375,
      "duration": 0.23,
      "velocity": 55,
      "chip": "ym2612"
    },
    {
      "channel": 0,
      "note": 93,
      "start": 10.3708,
      "duration": 0.2467,
      "velocity": 55,
      "chip": "ym2612"
    },
    {
      "channel": 0,
      "note": 100,
      "start": 10.6208,
      "duration": 0.23,
      "velocity": 55,
      "chip": "ym2612"
    },
    {
      "channel": 0,
      "note": 93,
      "start": 10.8541,
      "duration": 0.2468,
      "velocity": 55,
      "chip": "ym2612"
    },
    {
      "channel": 0,
      "note": 98,
      "start": 11.1041,
      "duration": 0.23,
      "velocity": 55,
      "chip": "ym2612"
    },
    {
      "channel": 1,
      "note": 88,
      "start": 11.3378,
      "duration": 0.1296,
      "velocity": 104,
      "chip": "ym2612"
    },
    {
      "channel": 0,
      "note": 93,
      "start": 11.3404,
      "duration": 0.2437,
      "velocity": 55,
      "chip": "ym2612"
    },
    {
      "channel": 1,
      "note": 86,
      "start": 11.4706,
      "duration": 0.1636,
      "velocity": 104,
      "chip": "ym2612"
    },
    {
      "channel": 4,
      "note": 88,
      "start": 11.5877,
      "duration": 0.6632,
      "velocity": 104,
      "chip": "ym2612"
    },
    {
      "channel": 0,
      "note": 100,
      "start": 11.5915,
      "duration": 0.226,
      "velocity": 55,
      "chip": "ym2612"
    },
    {
      "channel": 0,
      "note": 93,
      "start": 11.8209,
      "duration": 0.2466,
      "velocity": 55,
      "chip": "ym2612"
    },
    {
      "channel": 0,
      "note": 98,
      "start": 12.0708,
      "duration": 0.23,
      "velocity": 55,
      "chip": "ym2612"
    },
    {
      "channel": 1,
      "note": 81,
      "start": 12.3045,
      "duration": 3.0796,
      "velocity": 104,
      "chip": "ym2612"
    },
    {
      "channel": 0,
      "note": 93,
      "start": 12.307,
      "duration": 0.2438,
      "velocity": 55,
      "chip": "ym2612"
    },
    {
      "channel": 0,
      "note": 100,
      "start": 12.5542,
      "duration": 0.2299,
      "velocity": 55,
      "chip": "ym2612"
    },
    {
      "channel": 0,
      "note": 93,
      "start": 12.7874,
      "duration": 0.2468,
      "velocity": 55,
      "chip": "ym2612"
    },
    {
      "channel": 0,
      "note": 98,
      "start": 13.0375,
      "duration": 0.2299,
      "velocity": 55,
      "chip": "ym2612"
    },
    {
      "channel": 0,
      "note": 93,
      "start": 13.2707,
      "duration": 0.2467,
      "velocity": 55,
      "chip": "ym2612"
    },
    {
      "channel": 0,
      "note": 100,
      "start": 13.522,
      "duration": 0.2288,
      "velocity": 55,
      "chip": "ym2612"
    },
    {
      "channel": 0,
      "note": 93,
      "start": 13.7541,
      "duration": 0.2467,
      "velocity": 55,
      "chip": "ym2612"
    },
    {
      "channel": 0,
      "note": 98,
      "start": 14.0041,
      "duration": 0.23,
      "velocity": 55,
      "chip": "ym2612"
    },
    {
      "channel": 5,
      "note": 60,
      "start": 14.2377,
      "duration": 0.4801,
      "velocity": 94,
      "chip": "ym2612"
    },
    {
      "channel": 0,
      "note": 93,
      "start": 14.2402,
      "duration": 0.244,
      "velocity": 55,
      "chip": "ym2612"
    },
    {
      "channel": 0,
      "note": 100,
      "start": 14.488,
      "duration": 0.2295,
      "velocity": 55,
      "chip": "ym2612"
    },
    {
      "channel": 5,
      "note": 59,
      "start": 14.7212,
      "duration": 0.5464,
      "velocity": 94,
      "chip": "ym2612"
    },
    {
      "channel": 0,
      "note": 93,
      "start": 14.7237,
      "duration": 0.2438,
      "velocity": 55,
      "chip": "ym2612"
    },
    {
      "channel": 0,
      "note": 98,
      "start": 14.9708,
      "duration": 0.23,
      "velocity": 55,
      "chip": "ym2612"
    },
    {
      "channel": 2,
      "note": 57,
      "start": 15.2046,
      "duration": 0.1131,
      "velocity": 94,
      "chip": "ym2612"
    },
    {
      "channel": 0,
      "note": 93,
      "start": 15.2071,
      "duration": 0.2438,
      "velocity": 55,
      "chip": "ym2612"
    },
    {
      "channel": 5,
      "note": 55,
      "start": 15.3208,
      "duration": 0.1304,
      "velocity": 94,
      "chip": "ym2612"
    },
    {
      "channel": 3,
      "note": 45,
      "start": 15.4542,
      "duration": 7.7135,
      "velocity": 108,
      "chip": "ym2612"
    },
    {
      "channel": 4,
      "note": 57,
      "start": 15.4575,
      "duration": 7.6601,
      "velocity": 108,
      "chip": "ym2612"
    },
    {
      "channel": 5,
      "note": 57,
      "start": 15.4611,
      "duration": 3.49,
      "velocity": 94,
      "chip": "ym2612"
    },
    {
      "channel": 0,
      "note": 100,
      "start": 15.4648,
      "duration": 0.2193,
      "velocity": 55,
      "chip": "ym2612"
    },
    {
      "channel": 0,
      "note": 93,
      "start": 15.6875,
      "duration": 0.2466,
      "velocity": 55,
      "chip": "ym2612"
    },
    {
      "channel": 0,
      "note": 98,
      "start": 15.9375,
      "duration": 0.23,
      "velocity": 55,
      "chip": "ym2612"
    },
    {
      "channel": 0,
      "note": 93,
      "start": 16.1709,
      "duration": 0.2466,
      "velocity": 55,
      "chip": "ym2612"
    },
    {
      "channel": 0,
      "note": 100,
      "start": 16.4208,
      "duration": 0.23,
      "velocity": 55,
      "chip": "ym2612"
    },
    {
      "channel": 0,
      "note": 93,
      "start": 16.6542,
      "duration": 0.2466,
      "velocity": 55,
      "chip": "ym2612"
    },
    {
      "channel": 0,
      "note": 98,
      "start": 16.9041,
      "duration": 0.23,
      "velocity": 55,
      "chip": "ym2612"
    },
    {
      "channel": 0,
      "note": 93,
      "start": 17.1375,
      "duration": 0.2466,
      "velocity": 55,
      "chip": "ym2612"
    },
    {
      "channel": 0,
      "note": 100,
      "start": 17.3886,
      "duration": 0.2289,
      "velocity": 55,
      "chip": "ym2612"
    },
    {
      "channel": 0,
      "note": 93,
      "start": 17.6209,
      "duration": 0.2466,
      "velocity": 55,
      "chip": "ym2612"
    },
    {
      "channel": 0,
      "note": 98,
      "start": 17.8709,
      "duration": 0.23,
      "velocity": 55,
      "chip": "ym2612"
    },
    {
      "channel": 2,
      "note": 52,
      "start": 18.1046,
      "duration": 0.2965,
      "velocity": 94,
      "chip": "ym2612"
    },
    {
      "channel": 0,
      "note": 93,
      "start": 18.1071,
      "duration": 0.2438,
      "velocity": 55,
      "chip": "ym2612"
    },
    {
      "channel": 1,
      "note": 55,
      "start": 18.3545,
      "duration": 0.113,
      "velocity": 94,
      "chip": "ym2612"
    },
    {
      "channel": 0,
      "note": 100,
      "start": 18.357,
      "duration": 0.2272,
      "velocity": 55,
      "chip": "ym2612"
    },
    {
      "channel": 0,
      "note": 93,
      "start": 18.5875,
      "duration": 0.2466,
      "velocity": 55,
      "chip": "ym2612"
    },
    {
      "channel": 1,
      "note": 55,
      "start": 18.8377,
      "duration": 0.2299,
      "velocity": 94,
      "chip": "ym2612"
    },
    {
      "channel": 0,
      "note": 98,
      "start": 18.8401,
      "duration": 0.2273,
      "velocity": 55,
      "chip": "ym2612"
    },
    {
      "channel": 1,
      "note": 57,
      "start": 19.0716,
      "duration": 1.3293,
      "velocity": 94,
      "chip": "ym2612"
    },
    {
      "channel": 0,
      "note": 93,
      "start": 19.0741,
      "duration": 0.2434,
      "velocity": 55,
      "chip": "ym2612"
    },
    {
      "channel": 0,
      "note": 100,
      "start": 19.322,
      "duration": 0.2288,
      "velocity": 55,
      "chip": "ym2612"
    },
    {
      "channel": 0,
      "note": 93,
      "start": 19.5542,
      "duration": 0.2299,
      "velocity": 55,
      "chip": "ym2612"
    },
    {
      "channel": 0,
      "note": 98,
      "start": 19.7874,
      "duration": 0.2468,
      "velocity": 55,
      "chip": "ym2612"
    },
    {
      "channel": 0,
      "note": 93,
      "start": 20.0375,
      "duration": 0.23,
      "velocity": 55,
      "chip": "ym2612"
    },
    {
      "channel": 2,
      "note": 81,
      "start": 20.1222,
      "duration": 3.0457,
      "velocity": 112,
      "chip": "ym2612"
    },
    {
      "channel": 0,
      "note": 100,
      "start": 20.2709,
      "duration": 0.2466,
      "velocity": 55,
      "chip": "ym2612"
    },
    {
      "channel": 0,
      "note": 93,
      "start": 20.5208,
      "duration": 0.23,
      "velocity": 55,
      "chip": "ym2612"
    },
    {
      "channel": 0,
      "note": 98,
      "start": 20.7541,
      "duration": 0.2467,
      "velocity": 55,
      "chip": "ym2612"
    },
    {
      "channel": 0,
      "note": 93,
      "start": 21.0042,
      "duration": 0.23,
      "velocity": 55,
      "chip": "ym2612"
    },
    {
      "channel": 0,
      "note": 100,
      "start": 21.2387,
      "duration": 0.2455,
      "velocity": 55,
      "chip": "ym2612"
    },
    {
      "channel": 0,
      "note": 93,
      "start": 21.4875,
      "duration": 0.23,
      "velocity": 55,
      "chip": "ym2612"
    },
    {
      "channel": 0,
      "note": 98,
      "start": 21.7209,
      "duration": 0.2466,
      "velocity": 55,
      "chip": "ym2612"
    },
    {
      "channel": 0,
      "note": 93,
      "start": 21.9708,
      "duration": 0.23,
      "velocity": 55,
      "chip": "ym2612"
    },
    {
      "channel": 0,
      "note": 100,
      "start": 22.2041,
      "duration": 0.2467,
      "velocity": 55,
      "chip": "ym2612"
    },
    {
      "channel": 0,
      "note": 93,
      "start": 22.4542,
      "duration": 0.23,
      "velocity": 55,
      "chip": "ym2612"
    },
    {
      "channel": 0,
      "note": 98,
      "start": 22.6875,
      "duration": 0.2466,
      "velocity": 55,
      "chip": "ym2612"
    },
    {
      "channel": 0,
      "note": 93,
      "start": 22.9375,
      "duration": 0.23,
      "velocity": 55,
      "chip": "ym2612"
    },
    {
      "channel": 1,
      "note": 57,
      "start": 23.1711,
      "duration": 0.1797,
      "velocity": 94,
      "chip": "ym2612"
    },
    {
      "channel": 0,
      "note": 100,
      "start": 23.1754,
      "duration": 0.142,
      "velocity": 55,
      "chip": "ym2612"
    },
    {
      "channel": 5,
      "note": 45,
      "start": 23.1801,
      "duration": 0.0543,
      "velocity": 125,
      "chip": "ym2612"
    },
    {
      "channel": 4,
      "note": 57,
      "start": 23.1842,
      "duration": 0.1334,
      "velocity": 119,
      "chip": "ym2612"
    },
    {
      "channel": 3,
      "note": 57,
      "start": 23.1883,
      "duration": 0.1627,
      "velocity": 106,
      "chip": "ym2612"
    },
    {
      "channel": 2,
      "note": 64,
      "start": 23.1912,
      "duration": 0.16,
      "velocity": 106,
      "chip": "ym2612"
    },
    {
      "channel": 0,
      "note": 93,
      "start": 23.3375,
      "duration": 0.13,
      "velocity": 55,
      "chip": "ym2612"
    },
    {
      "channel": 1,
      "note": 57,
      "start": 23.5038,
      "duration": 0.1803,
      "velocity": 94,
      "chip": "ym2612"
    },
    {
      "channel": 0,
      "note": 98,
      "start": 23.5063,
      "duration": 0.1278,
      "velocity": 55,
      "chip": "ym2612"
    },
    {
      "channel": 5,
      "note": 45,
      "start": 23.5091,
      "duration": 0.0419,
      "velocity": 125,
      "chip": "ym2612"
    },
    {
      "channel": 4,
      "note": 57,
      "start": 23.512,
      "duration": 0.0889,
      "velocity": 119,
      "chip": "ym2612"
    },
    {
      "channel": 3,
      "note": 57,
      "start": 23.5148,
      "duration": 0.1695,
      "velocity": 106,
      "chip": "ym2612"
    },
    {
      "channel": 2,
      "note": 64,
      "start": 23.5178,
      "duration": 0.1667,
      "velocity": 106,
      "chip": "ym2612"
    },
    {
      "channel": 0,
      "note": 93,
      "start": 23.6541,
      "duration": 0.1467,
      "velocity": 55,
      "chip": "ym2612"
    },
    {
      "channel": 5,
      "note": 45,
      "start": 23.6571,
      "duration": 0.0605,
      "velocity": 125,
      "chip": "ym2612"
    },
    {
      "channel": 1,
      "note": 57,
      "start": 23.8209,
      "duration": 0.0633,
      "velocity": 94,
      "chip": "ym2612"
    },
    {
      "channel": 0,
      "note": 98,
      "start": 23.8234,
      "duration": 0.1274,
      "velocity": 55,
      "chip": "ym2612"
    },
    {
      "channel": 1,
      "note": 57,
      "start": 23.9872,
      "duration": 0.047,
      "velocity": 94,
      "chip": "ym2612"
    },
    {
      "channel": 0,
      "note": 93,
      "start": 23.9897,
      "duration": 0.1277,
      "velocity": 55,
      "chip": "ym2612"
    },
    {
      "channel": 1,
      "note": 57,
      "start": 24.1373,
      "duration": 0.1302,
      "velocity": 94,
      "chip": "ym2612"
    },
    {
      "channel": 0,
      "note": 100,
      "start": 24.1398,
      "duration": 0.1443,
      "velocity": 55,
      "chip": "ym2612"
    },
    {
      "channel": 5,
      "note": 45,
      "start": 24.1424,
      "duration": 0.0585,
      "velocity": 125,
      "chip": "ym2612"
    },
    {
      "channel": 1,
      "note": 57,
      "start": 24.3041,
      "duration": 0.0634,
      "velocity": 94,
      "chip": "ym2612"
    },
    {
      "channel": 0,
      "note": 93,
      "start": 24.3066,
      "duration": 0.1276,
      "velocity": 55,
      "chip": "ym2612"
    },
    {
      "channel": 1,
      "note": 57,
      "start": 24.4706,
      "duration": 0.0469,
      "velocity": 94,
      "chip": "ym2612"
    },
    {
      "channel": 0,
      "note": 98,
      "start": 24.4731,
      "duration": 0.1277,
      "velocity": 55,
      "chip": "ym2612"
    },
    {
      "channel": 1,
      "note": 57,
      "start": 24.6211,
      "duration": 0.1298,
      "velocity": 94,
      "chip": "ym2612"
    },
    {
      "channel": 0,
      "note": 93,
      "start": 24.6235,
      "duration": 0.1439,
      "velocity": 55,
      "chip": "ym2612"
    },
    {
      "channel": 5,
      "note": 45,
      "start": 24.6261,
      "duration": 0.0581,
      "velocity": 125,
      "chip": "ym2612"
    },
    {
      "channel": 1,
      "note": 57,
      "start": 24.7874,
      "duration": 0.0635,
      "velocity": 94,
      "chip": "ym2612"
    },
    {
      "channel": 0,
      "note": 98,
      "start": 24.7899,
      "duration": 0.1276,
      "velocity": 55,
      "chip": "ym2612"
    },
    {
      "channel": 4,
      "note": 57,
      "start": 24.7928,
      "duration": 0.0248,
      "velocity": 119,
      "chip": "ym2612"
    },
    {
      "channel": 3,
      "note": 57,
      "start": 24.7962,
      "duration": 0.0548,
      "velocity": 106,
      "chip": "ym2612"
    },
    {
      "channel": 2,
      "note": 64,
      "start": 24.799,
      "duration": 0.0522,
      "velocity": 106,
      "chip": "ym2612"
    },
    {
      "channel": 4,
      "note": 59,
      "start": 24.8712,
      "duration": 0.0297,
      "velocity": 119,
      "chip": "ym2612"
    },
    {
      "channel": 1,
      "note": 57,
      "start": 24.9538,
      "duration": 0.0471,
      "velocity": 94,
      "chip": "ym2612"
    },
    {
      "channel": 0,
      "note": 93,
      "start": 24.9568,
      "duration": 0.144,
      "velocity": 55,
      "chip": "ym2612"
    },
    {
      "channel": 4,
      "note": 57,
      "start": 24.9595,
      "duration": 0.0248,
      "velocity": 119,
      "chip": "ym2612"
    },
    {
      "channel": 3,
      "note": 57,
      "start": 24.9624,
      "duration": 0.1052,
      "velocity": 106,
      "chip": "ym2612"
    },
    {
      "channel": 2,
      "note": 64,
      "start": 24.9653,
      "duration": 0.1027,
      "velocity": 106,
      "chip": "ym2612"
    },
    {
      "channel": 4,
      "note": 59,
      "start": 25.021,
      "duration": 0.0468,
      "velocity": 119,
      "chip": "ym2612"
    },
    {
      "channel": 1,
      "note": 57,
      "start": 25.1042,
      "duration": 0.18,
      "velocity": 94,
      "chip": "ym2612"
    },
    {
      "channel": 0,
      "note": 100,
      "start": 25.1082,
      "duration": 0.1426,
      "velocity": 55,
      "chip": "ym2612"
    },
    {
      "channel": 5,
      "note": 45,
      "start": 25.1123,
      "duration": 0.0553,
      "velocity": 125,
      "chip": "ym2612"
    },
    {
      "channel": 4,
      "note": 57,
      "start": 25.1151,
      "duration": 0.1359,
      "velocity": 119,
      "chip": "ym2612"
    },
    {
      "channel": 3,
      "note": 57,
      "start": 25.1181,
      "duration": 0.2327,
      "velocity": 106,
      "chip": "ym2612"
    },
    {
      "channel": 2,
      "note": 65,
      "start": 25.1211,
      "duration": 0.1633,
      "velocity": 106,
      "chip": "ym2612"
    },
    {
      "channel": 0,
      "note": 93,
      "start": 25.2708,
      "duration": 0.13,
      "velocity": 55,
      "chip": "ym2612"
    },
    {
      "channel": 1,
      "note": 57,
      "start": 25.4372,
      "duration": 0.1637,
      "velocity": 94,
      "chip": "ym2612"
    },
    {
      "channel": 0,
      "note": 98,
      "start": 25.4396,
      "duration": 0.1277,
      "velocity": 55,
      "chip": "ym2612"
    },
    {
      "channel": 5,
      "note": 45,
      "start": 25.4424,
      "duration": 0.0419,
      "velocity": 125,
      "chip": "ym2612"
    },
    {
      "channel": 4,
      "note": 57,
      "start": 25.4454,
      "duration": 0.0889,
      "velocity": 119,
      "chip": "ym2612"
    },
    {
      "channel": 3,
      "note": 57,
      "start": 25.4485,
      "duration": 0.1525,
      "velocity": 106,
      "chip": "ym2612"
    },
    {
      "channel": 2,
      "note": 65,
      "start": 25.4515,
      "duration": 0.1497,
      "velocity": 106,
      "chip": "ym2612"
    },
    {
      "channel": 0,
      "note": 93,
      "start": 25.5873,
      "duration": 0.1468,
      "velocity": 55,
      "chip": "ym2612"
    },
    {
      "channel": 5,
      "note": 45,
      "start": 25.59,
      "duration": 0.061,
      "velocity": 125,
      "chip": "ym2612"
    },
    {
      "channel": 1,
      "note": 57,
      "start": 25.7543,
      "duration": 0.0633,
      "velocity": 94,
      "chip": "ym2612"
    },
    {
      "channel": 0,
      "note": 98,
      "start": 25.7568,
      "duration": 0.1274,
      "velocity": 55,
      "chip": "ym2612"
    },
    {
      "channel": 1,
      "note": 57,
      "start": 25.9205,
      "duration": 0.047,
      "velocity": 94,
      "chip": "ym2612"
    },
    {
      "channel": 0,
      "note": 93,
      "start": 25.923,
      "duration": 0.1277,
      "velocity": 55,
      "chip": "ym2612"
    },
    {
      "channel": 1,
      "note": 57,
      "start": 26.0707,
      "duration": 0.1135,
      "velocity": 94,
      "chip": "ym2612"
    },
    {
      "channel": 0,
      "note": 100,
      "start": 26.0732,
      "duration": 0.1443,
      "velocity": 55,
      "chip": "ym2612"
    },
    {
      "channel": 5,
      "note": 45,
      "start": 26.0758,
      "duration": 0.0585,
      "velocity": 125,
      "chip": "ym2612"
    },
    {
      "channel": 1,
      "note": 57,
      "start": 26.2374,
      "duration": 0.0634,
      "velocity": 94,
      "chip": "ym2612"
    },
    {
      "channel": 0,
      "note": 93,
      "start": 26.2399,
      "duration": 0.1276,
      "velocity": 55,
      "chip": "ym2612"
    },
    {
      "channel": 1,
      "note": 57,
      "start": 26.4043,
      "duration": 0.0466,
      "velocity": 94,
      "chip": "ym2612"
    },
    {
      "channel": 0,
      "note": 98,
      "start": 26.4068,
      "duration": 0.1273,
      "velocity": 55,
      "chip": "ym2612"
    },
    {
      "channel": 1,
      "note": 57,
      "start": 26.554,
      "duration": 0.1135,
      "velocity": 94,
      "chip": "ym2612"
    },
    {
      "channel": 0,
      "note": 93,
      "start": 26.5565,
      "duration": 0.1443,
      "velocity": 55,
      "chip": "ym2612"
    },
    {
      "channel": 5,
      "note": 45,
      "start": 26.5591,
      "duration": 0.0585,
      "velocity": 125,
      "chip": "ym2612"
    },
    {
      "channel": 1,
      "note": 57,
      "start": 26.7207,
      "duration": 0.0635,
      "velocity": 94,
      "chip": "ym2612"
    },
    {
      "channel": 0,
      "note": 98,
      "start": 26.7232,
      "duration": 0.1275,
      "velocity": 55,
      "chip": "ym2612"
    },
    {
      "channel": 4,
      "note": 57,
      "start": 26.7261,
      "duration": 0.0248,
      "velocity": 119,
      "chip": "ym2612"
    },
    {
      "channel": 3,
      "note": 57,
      "start": 26.7291,
      "duration": 0.0552,
      "velocity": 106,
      "chip": "ym2612"
    },
    {
      "channel": 2,
      "note": 65,
      "start": 26.732,
      "duration": 0.0526,
      "velocity": 106,
      "chip": "ym2612"
    },
    {
      "channel": 4,
      "note": 59,
      "start": 26.8043,
      "duration": 0.03,
      "velocity": 119,
      "chip": "ym2612"
    },
    {
      "channel": 1,
      "note": 57,
      "start": 26.8873,
      "duration": 0.0469,
      "velocity": 94,
      "chip": "ym2612"
    },
    {
      "channel": 0,
      "note": 93,
      "start": 26.8903,
      "duration": 0.1438,
      "velocity": 55,
      "chip": "ym2612"
    },
    {
      "channel": 4,
      "note": 57,
      "start": 26.8929,
      "duration": 0.0247,
      "velocity": 119,
      "chip": "ym2612"
    },
    {
      "channel": 3,
      "note": 57,
      "start": 26.8957,
      "duration": 0.0386,
      "velocity": 106,
      "chip": "ym2612"
    },
    {
      "channel": 2,
      "note": 65,
      "start": 26.8987,
      "duration": 0.1024,
      "velocity": 106,
      "chip": "ym2612"
    },
    {
      "channel": 4,
      "note": 59,
      "start": 26.9543,
      "duration": 0.0466,
      "velocity": 119,
      "chip": "ym2612"
    },
    {
      "channel": 1,
      "note": 55,
      "start": 27.0375,
      "duration": 0.18,
      "velocity": 94,
      "chip": "ym2612"
    },
    {
      "channel": 0,
      "note": 100,
      "start": 27.0415,
      "duration": 0.1426,
      "velocity": 55,
      "chip": "ym2612"
    },
    {
      "channel": 5,
      "note": 45,
      "start": 27.0453,
      "duration": 0.0556,
      "velocity": 125,
      "chip": "ym2612"
    },
    {
      "channel": 4,
      "note": 57,
      "start": 27.0485,
      "duration": 0.1358,
      "velocity": 119,
      "chip": "ym2612"
    },
    {
      "channel": 3,
      "note": 59,
      "start": 27.0519,
      "duration": 0.2324,
      "velocity": 106,
      "chip": "ym2612"
    },
    {
      "channel": 2,
      "note": 67,
      "start": 27.0547,
      "duration": 0.2298,
      "velocity": 106,
      "chip": "ym2612"
    },
    {
      "channel": 0,
      "note": 93,
      "start": 27.2041,
      "duration": 0.13,
      "velocity": 55,
      "chip": "ym2612"
    },
    {
      "channel": 1,
      "note": 55,
      "start": 27.3705,
      "duration": 0.1636,
      "velocity": 94,
      "chip": "ym2612"
    },
    {
      "channel": 0,
      "note": 98,
      "start": 27.373,
      "duration": 0.1277,
      "velocity": 55,
      "chip": "ym2612"
    },
    {
      "channel": 5,
      "note": 45,
      "start": 27.3758,
      "duration": 0.0419,
      "velocity": 125,
      "chip": "ym2612"
    },
    {
      "channel": 4,
      "note": 57,
      "start": 27.3787,
      "duration": 0.0889,
      "velocity": 119,
      "chip": "ym2612"
    },
    {
      "channel": 3,
      "note": 59,
      "start": 27.3815,
      "duration": 0.2193,
      "velocity": 106,
      "chip": "ym2612"
    },
    {
      "channel": 2,
      "note": 67,
      "start": 27.3847,
      "duration": 0.1498,
      "velocity": 106,
      "chip": "ym2612"
    },
    {
      "channel": 0,
      "note": 93,
      "start": 27.5207,
      "duration": 0.1468,
      "velocity": 55,
      "chip": "ym2612"
    },
    {
      "channel": 5,
      "note": 45,
      "start": 27.5234,
      "duration": 0.0609,
      "velocity": 125,
      "chip": "ym2612"
    },
    {
      "channel": 1,
      "note": 55,
      "start": 27.6875,
      "duration": 0.0466,
      "velocity": 94,
      "chip": "ym2612"
    },
    {
      "channel": 0,
      "note": 98,
      "start": 27.69,
      "duration": 0.1275,
      "velocity": 55,
      "chip": "ym2612"
    },
    {
      "channel": 1,
      "note": 55,
      "start": 27.8538,
      "duration": 0.0469,
      "velocity": 94,
      "chip": "ym2612"
    },
    {
      "channel": 0,
      "note": 93,
      "start": 27.8563,
      "duration": 0.1278,
      "velocity": 55,
      "chip": "ym2612"
    },
    {
      "channel": 1,
      "note": 55,
      "start": 28.004,
      "duration": 0.1135,
      "velocity": 94,
      "chip": "ym2612"
    },
    {
      "channel": 0,
      "note": 100,
      "start": 28.0065,
      "duration": 0.1443,
      "velocity": 55,
      "chip": "ym2612"
    },
    {
      "channel": 5,
      "note": 45,
      "start": 28.0091,
      "duration": 0.0585,
      "velocity": 125,
      "chip": "ym2612"
    },
    {
      "channel": 1,
      "note": 55,
      "start": 28.1711,
      "duration": 0.0464,
      "velocity": 94,
      "chip": "ym2612"
    },
    {
      "channel": 0,
      "note": 93,
      "start": 28.1736,
      "duration": 0.1272,
      "velocity": 55,
      "chip": "ym2612"
    },
    {
      "channel": 1,
      "note": 55,
      "start": 28.3205,
      "duration": 0.0636,
      "velocity": 94,
      "chip": "ym2612"
    },
    {
      "channel": 0,
      "note": 98,
      "start": 28.323,
      "duration": 0.1444,
      "velocity": 55,
      "chip": "ym2612"
    },
    {
      "channel": 1,
      "note": 55,
      "start": 28.4873,
      "duration": 0.1135,
      "velocity": 94,
      "chip": "ym2612"
    },
    {
      "channel": 0,
      "note": 93,
      "start": 28.4898,
      "duration": 0.1443,
      "velocity": 55,
      "chip": "ym2612"
    },
    {
      "channel": 5,
      "note": 45,
      "start": 28.4924,
      "duration": 0.0585,
      "velocity": 125,
      "chip": "ym2612"
    },
    {
      "channel": 1,
      "note": 55,
      "start": 28.6541,
      "duration": 0.0468,
      "velocity": 94,
      "chip": "ym2612"
    },
    {
      "channel": 0,
      "note": 98,
      "start": 28.6566,
      "duration": 0.1276,
      "velocity": 55,
      "chip": "ym2612"
    },
    {
      "channel": 1,
      "note": 55,
      "start": 28.8039,
      "duration": 0.0635,
      "velocity": 94,
      "chip": "ym2612"
    },
    {
      "channel": 0,
      "note": 93,
      "start": 28.8069,
      "duration": 0.1606,
      "velocity": 55,
      "chip": "ym2612"
    },
    {
      "channel": 1,
      "note": 57,
      "start": 28.9723,
      "duration": 0.1786,
      "velocity": 94,
      "chip": "ym2612"
    },
    {
      "channel": 0,
      "note": 96,
      "start": 28.9756,
      "duration": 0.1419,
      "velocity": 55,
      "chip": "ym2612"
    },
    {
      "channel": 5,
      "note": 45,
      "start": 28.9793,
      "duration": 0.1717,
      "velocity": 125,
      "chip": "ym2612"
    },
    {
      "channel": 3,
      "note": 72,
      "start": 28.9824,
      "duration": 0.0685,
      "velocity": 106,
      "chip": "ym2612"
    },
    {
      "channel": 4,
      "note": 64,
      "start": 28.9867,
      "duration": 0.0643,
      "velocity": 106,
      "chip": "ym2612"
    },
    {
      "channel": 0,
      "note": 95,
      "start": 29.1375,
      "duration": 0.13,
      "velocity": 55,
      "chip": "ym2612"
    },
    {
      "channel": 3,
      "note": 71,
      "start": 29.1403,
      "duration": 0.0772,
      "velocity": 106,
      "chip": "ym2612"
    },
    {
      "channel": 4,
      "note": 64,
      "start": 29.1431,
      "duration": 0.0412,
      "velocity": 106,
      "chip": "ym2612"
    },
    {
      "channel": 1,
      "note": 57,
      "start": 29.2874,
      "duration": 0.2468,
      "velocity": 94,
      "chip": "ym2612"
    },
    {
      "channel": 0,
      "note": 91,
      "start": 29.2899,
      "duration": 0.1441,
      "velocity": 55,
      "chip": "ym2612"
    },
    {
      "channel": 5,
      "note": 45,
      "start": 29.2927,
      "duration": 0.1749,
      "velocity": 125,
      "chip": "ym2612"
    },
    {
      "channel": 3,
      "note": 67,
      "start": 29.2955,
      "duration": 0.0721,
      "velocity": 106,
      "chip": "ym2612"
    },
    {
      "channel": 4,
      "note": 64,
      "start": 29.2982,
      "duration": 0.0527,
      "velocity": 106,
      "chip": "ym2612"
    },
    {
      "channel": 0,
      "note": 93,
      "start": 29.4541,
      "duration": 0.1466,
      "velocity": 55,
      "chip": "ym2612"
    },
    {
      "channel": 3,
      "note": 69,
      "start": 29.457,
      "duration": 0.0773,
      "velocity": 106,
      "chip": "ym2612"
    },
    {
      "channel": 4,
      "note": 64,
      "start": 29.4597,
      "duration": 0.0579,
      "velocity": 106,
      "chip": "ym2612"
    },
    {
      "channel": 1,
      "note": 52,
      "start": 29.6209,
      "duration": 0.1133,
      "velocity": 94,
      "chip": "ym2612"
    },
    {
      "channel": 0,
      "note": 88,
      "start": 29.6234,
      "duration": 0.1273,
      "velocity": 55,
      "chip": "ym2612"
    },
    {
      "channel": 3,
      "note": 64,
      "start": 29.6267,
      "duration": 0.0408,
      "velocity": 106,
      "chip": "ym2612"
    },
    {
      "channel": 4,
      "note": 64,
      "start": 29.6295,
      "duration": 0.0714,
      "velocity": 106,
      "chip": "ym2612"
    },
    {
      "channel": 1,
      "note": 55,
      "start": 29.7712,
      "duration": 0.313,
      "velocity": 94,
      "chip": "ym2612"
    },
    {
      "channel": 0,
      "note": 91,
      "start": 29.7741,
      "duration": 0.3101,
      "velocity": 55,
      "chip": "ym2612"
    },
    {
      "channel": 3,
      "note": 67,
      "start": 29.7772,
      "duration": 0.0903,
      "velocity": 106,
      "chip": "ym2612"
    },
    {
      "channel": 4,
      "note": 62,
      "start": 29.7806,
      "duration": 0.1203,
      "velocity": 106,
      "chip": "ym2612"
    },
    {
      "channel": 1,
      "note": 64,
      "start": 30.1041,
      "duration": 0.1134,
      "velocity": 94,
      "chip": "ym2612"
    },
    {
      "channel": 0,
      "note": 88,
      "start": 30.1073,
      "duration": 0.1268,
      "velocity": 55,
      "chip": "ym2612"
    },
    {
      "channel": 3,
      "note": 64,
      "start": 30.1104,
      "duration": 0.1073,
      "velocity": 106,
      "chip": "ym2612"
    },
    {
      "channel": 2,
      "note": 56,
      "start": 30.188,
      "duration": 0.0464,
      "velocity": 119,
      "chip": "ym2612"
    },
    {
      "channel": 1,
      "note": 62,
      "start": 30.2539,
      "duration": 0.1303,
      "velocity": 94,
      "chip": "ym2612"
    },
    {
      "channel": 0,
      "note": 86,
      "start": 30.2564,
      "duration": 0.1443,
      "velocity": 55,
      "chip": "ym2612"
    },
    {
      "channel": 2,
      "note": 57,
      "start": 30.2592,
      "duration": 0.0586,
      "velocity": 119,
      "chip": "ym2612"
    },
    {
      "channel": 3,
      "note": 62,
      "start": 30.262,
      "duration": 0.0555,
      "velocity": 106,
      "chip": "ym2612"
    },
    {
      "channel": 2,
      "note": 56,
      "start": 30.3377,
      "duration": 0.0633,
      "velocity": 119,
      "chip": "ym2612"
    },
    {
      "channel": 1,
      "note": 60,
      "start": 30.4205,
      "duration": 0.1136,
      "velocity": 94,
      "chip": "ym2612"
    },
    {
      "channel": 0,
      "note": 84,
      "start": 30.423,
      "duration": 0.1445,
      "velocity": 55,
      "chip": "ym2612"
    },
    {
      "channel": 2,
      "note": 57,
      "start": 30.4259,
      "duration": 0.0585,
      "velocity": 119,
      "chip": "ym2612"
    },
    {
      "channel": 3,
      "note": 60,
      "start": 30.4287,
      "duration": 0.0722,
      "velocity": 106,
      "chip": "ym2612"
    },
    {
      "channel": 1,
      "note": 59,
      "start": 30.5873,
      "duration": 0.1136,
      "velocity": 94,
      "chip": "ym2612"
    },
    {
      "channel": 0,
      "note": 86,
      "start": 30.5898,
      "duration": 0.1277,
      "velocity": 55,
      "chip": "ym2612"
    },
    {
      "channel": 2,
      "note": 56,
      "start": 30.5927,
      "duration": 0.0418,
      "velocity": 119,
      "chip": "ym2612"
    },
    {
      "channel": 3,
      "note": 62,
      "start": 30.5955,
      "duration": 0.0388,
      "velocity": 106,
      "chip": "ym2612"
    },
    {
      "channel": 1,
      "note": 55,
      "start": 30.7372,
      "duration": 0.1302,
      "velocity": 94,
      "chip": "ym2612"
    },
    {
      "channel": 0,
      "note": 88,
      "start": 30.74,
      "duration": 0.0608,
      "velocity": 55,
      "chip": "ym2612"
    },
    {
      "channel": 5,
      "note": 45,
      "start": 30.7429,
      "duration": 0.0583,
      "velocity": 125,
      "chip": "ym2612"
    },
    {
      "channel": 3,
      "note": 64,
      "start": 30.7457,
      "duration": 0.0553,
      "velocity": 106,
      "chip": "ym2612"
    },
    {
      "channel": 4,
      "note": 45,
      "start": 30.9041,
      "duration": 7.7302,
      "velocity": 108,
      "chip": "ym2612"
    },
    {
      "channel": 2,
      "note": 64,
      "start": 30.9078,
      "duration": 5.7933,
      "velocity": 104,
      "chip": "ym2612"
    },
    {
      "channel": 0,
      "note": 57,
      "start": 30.9113,
      "duration": 5.7894,
      "velocity": 104,
      "chip": "ym2612"
    },
    {
      "channel": 1,
      "note": 57,
      "start": 30.9144,
      "duration": 3.0032,
      "velocity": 94,
      "chip": "ym2612"
    },
    {
      "channel": 5,
      "note": 45,
      "start": 30.9174,
      "duration": 0.2836,
      "velocity": 125,
      "chip": "ym2612"
    }
  ]
}