{
  "track_name": "04 - Halftime",
  "duration_sec": 59.229,
  "sample_rate": 44100,
  "note_count": 592,
  "unique_pitches": 19,
  "pitch_range": 91,
  "avg_note_duration": 0.0254,
  "reconstruction_stats": {
    "notes_reconstructed": 592,
    "keyon_events": 592,
    "keyoff_events": 592,
    "orphan_keyons": 0,
    "unique_pitches": 19,
    "pitch_range": 91,
    "avg_duration_sec": 0.0254
  },
  "metadata": {
    "source": "N\\NBA Live 95\\04 - Halftime.vgz"
  },
  "notes": [
    {
      "channel": 0,
      "note": 51,
      "start": 0.1931,
      "duration": 0.0036,
      "velocity": 109,
      "chip": "ym2612"
    },
    {
      "channel": 4,
      "note": 116,
      "start": 0.1949,
      "duration": 0.0009,
      "velocity": 127,
      "chip": "ym2612"
    },
    {
      "channel": 0,
      "note": 55,
      "start": 0.1974,
      "duration": 0.0019,
      "velocity": 109,
      "chip": "ym2612"
    },
    {
      "channel": 4,
      "note": 116,
      "start": 0.1978,
      "duration": 0.0006,
      "velocity": 127,
      "chip": "ym2612"
    },
    {
      "channel": 0,
      "note": 58,
      "start": 0.2,
      "duration": 0.0005,
      "velocity": 109,
      "chip": "ym2612"
    },
    {
      "channel": 0,
      "note": 60,
      "start": 0.2013,
      "duration": 0.0015,
      "velocity": 109,
      "chip": "ym2612"
    },
    {
      "channel": 4,
      "note": 116,
      "start": 0.2016,
      "duration": 0.0007,
      "velocity": 127,
      "chip": "ym2612"
    },
    {
      "channel": 0,
      "note": 58,
      "start": 0.2035,
      "duration": 0.0446,
      "velocity": 109,
      "chip": "ym2612"
    },
    {
      "channel": 0,
      "note": 60,
      "start": 0.2658,
      "duration": 0.1656,
      "velocity": 109,
      "chip": "ym2612"
    },
    {
      "channel": 4,
      "note": 116,
      "start": 0.2661,
      "duration": 0.1154,
      "velocity": 127,
      "chip": "ym2612"
    },
    {
      "channel": 0,
      "note": 61,
      "start": 0.4491,
      "duration": 0.0712,
      "velocity": 109,
      "chip": "ym2612"
    },
    {
      "channel": 4,
      "note": 116,
      "start": 0.45,
      "duration": 0.087,
      "velocity": 127,
      "chip": "ym2612"
    },
    {
      "channel": 4,
      "note": 116,
      "start": 0.6107,
      "duration": 0.0009,
      "velocity": 127,
      "chip": "ym2612"
    },
    {
      "channel": 4,
      "note": 116,
      "start": 0.6222,
      "duration": 0.0022,
      "velocity": 127,
      "chip": "ym2612"
    },
    {
      "channel": 0,
      "note": 51,
      "start": 0.6325,
      "duration": 0.0768,
      "velocity": 109,
      "chip": "ym2612"
    },
    {
      "channel": 4,
      "note": 116,
      "start": 0.6337,
      "duration": 0.0032,
      "velocity": 127,
      "chip": "ym2612"
    },
    {
      "channel": 0,
      "note": 55,
      "start": 0.7441,
      "duration": 0.0029,
      "velocity": 109,
      "chip": "ym2612"
    },
    {
      "channel": 4,
      "note": 116,
      "start": 0.7444,
      "duration": 0.002,
      "velocity": 127,
      "chip": "ym2612"
    },
    {
      "channel": 0,
      "note": 58,
      "start": 0.7509,
      "duration": 0.0662,
      "velocity": 109,
      "chip": "ym2612"
    },
    {
      "channel": 0,
      "note": 60,
      "start": 0.8351,
      "duration": 0.0016,
      "velocity": 109,
      "chip": "ym2612"
    },
    {
      "channel": 4,
      "note": 116,
      "start": 0.8355,
      "duration": 0.0008,
      "velocity": 127,
      "chip": "ym2612"
    },
    {
      "channel": 0,
      "note": 58,
      "start": 0.8375,
      "duration": 0.044,
      "velocity": 109,
      "chip": "ym2612"
    },
    {
      "channel": 0,
      "note": 60,
      "start": 0.9158,
      "duration": 0.149,
      "velocity": 109,
      "chip": "ym2612"
    },
    {
      "channel": 4,
      "note": 116,
      "start": 0.9161,
      "duration": 0.0987,
      "velocity": 127,
      "chip": "ym2612"
    },
    {
      "channel": 0,
      "note": 61,
      "start": 1.0824,
      "duration": 0.0712,
      "velocity": 109,
      "chip": "ym2612"
    },
    {
      "channel": 4,
      "note": 116,
      "start": 1.0834,
      "duration": 0.1036,
      "velocity": 127,
      "chip": "ym2612"
    },
    {
      "channel": 0,
      "note": 68,
      "start": 1.2378,
      "duration": 0.0071,
      "velocity": 109,
      "chip": "ym2612"
    },
    {
      "channel": 4,
      "note": 116,
      "start": 1.244,
      "duration": 0.0013,
      "velocity": 127,
      "chip": "ym2612"
    },
    {
      "channel": 0,
      "note": 66,
      "start": 1.2521,
      "duration": 0.0146,
      "velocity": 109,
      "chip": "ym2612"
    },
    {
      "channel": 4,
      "note": 116,
      "start": 1.2568,
      "duration": 0.0022,
      "velocity": 127,
      "chip": "ym2612"
    },
    {
      "channel": 0,
      "note": 51,
      "start": 1.269,
      "duration": 0.0744,
      "velocity": 109,
      "chip": "ym2612"
    },
    {
      "channel": 4,
      "note": 116,
      "start": 1.2694,
      "duration": 0.0025,
      "velocity": 127,
      "chip": "ym2612"
    },
    {
      "channel": 0,
      "note": 55,
      "start": 1.3782,
      "duration": 0.0028,
      "velocity": 109,
      "chip": "ym2612"
    },
    {
      "channel": 4,
      "note": 116,
      "start": 1.3785,
      "duration": 0.002,
      "velocity": 127,
      "chip": "ym2612"
    },
    {
      "channel": 0,
      "note": 58,
      "start": 1.385,
      "duration": 0.0662,
      "velocity": 109,
      "chip": "ym2612"
    },
    {
      "channel": 0,
      "note": 60,
      "start": 1.4697,
      "duration": 0.0017,
      "velocity": 109,
      "chip": "ym2612"
    },
    {
      "channel": 4,
      "note": 116,
      "start": 1.4701,
      "duration": 0.0009,
      "velocity": 127,
      "chip": "ym2612"
    },
    {
      "channel": 0,
      "note": 58,
      "start": 1.4722,
      "duration": 0.0461,
      "velocity": 109,
      "chip": "ym2612"
    },
    {
      "channel": 0,
      "note": 60,
      "start": 1.5526,
      "duration": 0.149,
      "velocity": 109,
      "chip": "ym2612"
    },
    {
      "channel": 4,
      "note": 116,
      "start": 1.5529,
      "duration": 0.0987,
      "velocity": 127,
      "chip": "ym2612"
    },
    {
      "channel": 0,
      "note": 61,
      "start": 1.7192,
      "duration": 0.0712,
      "velocity": 109,
      "chip": "ym2612"
    },
    {
      "channel": 4,
      "note": 116,
      "start": 1.7202,
      "duration": 0.1036,
      "velocity": 127,
      "chip": "ym2612"
    },
    {
      "channel": 4,
      "note": 116,
      "start": 1.8916,
      "duration": 0.0009,
      "velocity": 127,
      "chip": "ym2612"
    },
    {
      "channel": 4,
      "note": 116,
      "start": 1.9039,
      "duration": 0.0009,
      "velocity": 127,
      "chip": "ym2612"
    },
    {
      "channel": 0,
      "note": 51,
      "start": 1.9129,
      "duration": 0.0913,
      "velocity": 109,
      "chip": "ym2612"
    },
    {
      "channel": 4,
      "note": 116,
      "start": 1.9141,
      "duration": 0.0011,
      "velocity": 127,
      "chip": "ym2612"
    },
    {
      "channel": 0,
      "note": 55,
      "start": 2.0223,
      "duration": 0.0029,
      "velocity": 109,
      "chip": "ym2612"
    },
    {
      "channel": 4,
      "note": 116,
      "start": 2.0227,
      "duration": 0.002,
      "velocity": 127,
      "chip": "ym2612"
    },
    {
      "channel": 0,
      "note": 58,
      "start": 2.0291,
      "duration": 0.0662,
      "velocity": 109,
      "chip": "ym2612"
    },
    {
      "channel": 0,
      "note": 60,
      "start": 2.1139,
      "duration": 0.0017,
      "velocity": 109,
      "chip": "ym2612"
    },
    {
      "channel": 4,
      "note": 116,
      "start": 2.1142,
      "duration": 0.0009,
      "velocity": 127,
      "chip": "ym2612"
    },
    {
      "channel": 0,
      "note": 58,
      "start": 2.1167,
      "duration": 0.0627,
      "velocity": 109,
      "chip": "ym2612"
    },
    {
      "channel": 0,
      "note": 60,
      "start": 2.1971,
      "duration": 0.149,
      "velocity": 109,
      "chip": "ym2612"
    },
    {
      "channel": 4,
      "note": 116,
      "start": 2.1975,
      "duration": 0.0987,
      "velocity": 127,
      "chip": "ym2612"
    },
    {
      "channel": 0,
      "note": 61,
      "start": 2.3637,
      "duration": 0.0879,
      "velocity": 109,
      "chip": "ym2612"
    },
    {
      "channel": 4,
      "note": 116,
      "start": 2.3647,
      "duration": 0.1037,
      "velocity": 127,
      "chip": "ym2612"
    },
    {
      "channel": 0,
      "note": 68,
      "start": 2.5359,
      "duration": 0.0038,
      "velocity": 109,
      "chip": "ym2612"
    },
    {
      "channel": 0,
      "note": 66,
      "start": 2.5415,
      "duration": 0.0266,
      "velocity": 109,
      "chip": "ym2612"
    },
    {
      "channel": 0,
      "note": 58,
      "start": 2.5697,
      "duration": 0.3783,
      "velocity": 109,
      "chip": "ym2612"
    },
    {
      "channel": 1,
      "note": 46,
      "start": 2.5715,
      "duration": 0.0029,
      "velocity": 105,
      "chip": "ym2612"
    },
    {
      "channel": 4,
      "note": 116,
      "start": 2.5733,
      "duration": 0.0244,
      "velocity": 109,
      "chip": "ym2612"
    },
    {
      "channel": 1,
      "note": 56,
      "start": 2.5939,
      "duration": 0.0834,
      "velocity": 105,
      "chip": "ym2612"
    },
    {
      "channel": 2,
      "note": 50,
      "start": 2.5958,
      "duration": 0.0816,
      "velocity": 105,
      "chip": "ym2612"
    },
    {
      "channel": 3,
      "note": 61,
      "start": 2.5976,
      "duration": 0.0799,
      "velocity": 105,
      "chip": "ym2612"
    },
    {
      "channel": 4,
      "note": 116,
      "start": 2.6794,
      "duration": 0.0961,
      "velocity": 127,
      "chip": "ym2612"
    },
    {
      "channel": 1,
      "note": 46,
      "start": 2.8426,
      "duration": 0.0662,
      "velocity": 105,
      "chip": "ym2612"
    },
    {
      "channel": 1,
      "note": 56,
      "start": 2.9451,
      "duration": 0.0078,
      "velocity": 105,
      "chip": "ym2612"
    },
    {
      "channel": 2,
      "note": 50,
      "start": 2.9455,
      "duration": 0.0075,
      "velocity": 105,
      "chip": "ym2612"
    },
    {
      "channel": 3,
      "note": 61,
      "start": 2.9459,
      "duration": 0.0072,
      "velocity": 105,
      "chip": "ym2612"
    },
    {
      "channel": 4,
      "note": 116,
      "start": 2.9462,
      "duration": 0.0022,
      "velocity": 127,
      "chip": "ym2612"
    },
    {
      "channel": 1,
      "note": 46,
      "start": 3.0202,
      "duration": 0.0024,
      "velocity": 105,
      "chip": "ym2612"
    },
    {
      "channel": 4,
      "note": 116,
      "start": 3.0206,
      "duration": 0.0036,
      "velocity": 127,
      "chip": "ym2612"
    },
    {
      "channel": 1,
      "note": 56,
      "start": 3.0234,
      "duration": 0.0013,
      "velocity": 105,
      "chip": "ym2612"
    },
    {
      "channel": 2,
      "note": 50,
      "start": 3.0237,
      "duration": 0.0011,
      "velocity": 105,
      "chip": "ym2612"
    },
    {
      "channel": 1,
      "note": 61,
      "start": 3.0272,
      "duration": 0.0007,
      "velocity": 105,
      "chip": "ym2612"
    },
    {
      "channel": 4,
      "note": 116,
      "start": 3.0341,
      "duration": 0.0069,
      "velocity": 109,
      "chip": "ym2612"
    },
    {
      "channel": 1,
      "note": 46,
      "start": 3.0408,
      "duration": 0.0009,
      "velocity": 105,
      "chip": "ym2612"
    },
    {
      "channel": 0,
      "note": 56,
      "start": 3.0428,
      "duration": 0.1574,
      "velocity": 109,
      "chip": "ym2612"
    },
    {
      "channel": 1,
      "note": 50,
      "start": 3.0432,
      "duration": 0.1531,
      "velocity": 105,
      "chip": "ym2612"
    },
    {
      "channel": 2,
      "note": 56,
      "start": 3.0437,
      "duration": 0.1528,
      "velocity": 105,
      "chip": "ym2612"
    },
    {
      "channel": 3,
      "note": 61,
      "start": 3.044,
      "duration": 0.1525,
      "velocity": 105,
      "chip": "ym2612"
    },
    {
      "channel": 4,
      "note": 116,
      "start": 3.0458,
      "duration": 0.0995,
      "velocity": 127,
      "chip": "ym2612"
    },
    {
      "channel": 1,
      "note": 46,
      "start": 3.2006,
      "duration": 0.0007,
      "velocity": 105,
      "chip": "ym2612"
    },
    {
      "channel": 0,
      "note": 56,
      "start": 3.2025,
      "duration": 0.012,
      "velocity": 109,
      "chip": "ym2612"
    },
    {
      "channel": 1,
      "note": 56,
      "start": 3.2029,
      "duration": 0.0019,
      "velocity": 105,
      "chip": "ym2612"
    },
    {
      "channel": 2,
      "note": 50,
      "start": 3.2033,
      "duration": 0.0017,
      "velocity": 105,
      "chip": "ym2612"
    },
    {
      "channel": 3,
      "note": 61,
      "start": 3.2037,
      "duration": 0.0013,
      "velocity": 105,
      "chip": "ym2612"
    },
    {
      "channel": 4,
      "note": 116,
      "start": 3.2055,
      "duration": 0.002,
      "velocity": 127,
      "chip": "ym2612"
    },
    {
      "channel": 1,
      "note": 46,
      "start": 3.2119,
      "duration": 0.0021,
      "velocity": 105,
      "chip": "ym2612"
    },
    {
      "channel": 0,
      "note": 58,
      "start": 3.2157,
      "duration": 0.3603,
      "velocity": 109,
      "chip": "ym2612"
    },
    {
      "channel": 1,
      "note": 46,
      "start": 3.2161,
      "duration": 0.0024,
      "velocity": 105,
      "chip": "ym2612"
    },
    {
      "channel": 4,
      "note": 116,
      "start": 3.2178,
      "duration": 0.0051,
      "velocity": 109,
      "chip": "ym2612"
    },
    {
      "channel": 1,
      "note": 50,
      "start": 3.222,
      "duration": 0.0828,
      "velocity": 105,
      "chip": "ym2612"
    },
    {
      "channel": 2,
      "note": 56,
      "start": 3.2224,
      "duration": 0.0826,
      "velocity": 105,
      "chip": "ym2612"
    },
    {
      "channel": 3,
      "note": 61,
      "start": 3.2228,
      "duration": 0.0822,
      "velocity": 105,
      "chip": "ym2612"
    },
    {
      "channel": 4,
      "note": 116,
      "start": 3.3069,
      "duration": 0.1139,
      "velocity": 127,
      "chip": "ym2612"
    },
    {
      "channel": 1,
      "note": 46,
      "start": 3.4713,
      "duration": 0.0662,
      "velocity": 105,
      "chip": "ym2612"
    },
    {
      "channel": 1,
      "note": 56,
      "start": 3.5726,
      "duration": 0.0419,
      "velocity": 105,
      "chip": "ym2612"
    },
    {
      "channel": 2,
      "note": 50,
      "start": 3.573,
      "duration": 0.0417,
      "velocity": 105,
      "chip": "ym2612"
    },
    {
      "channel": 3,
      "note": 61,
      "start": 3.5734,
      "duration": 0.0413,
      "velocity": 105,
      "chip": "ym2612"
    },
    {
      "channel": 4,
      "note": 116,
      "start": 3.5738,
      "duration": 0.0028,
      "velocity": 127,
      "chip": "ym2612"
    },
    {
      "channel": 1,
      "note": 46,
      "start": 3.6484,
      "duration": 0.0024,
      "velocity": 105,
      "chip": "ym2612"
    },
    {
      "channel": 4,
      "note": 116,
      "start": 3.6488,
      "duration": 0.0036,
      "velocity": 127,
      "chip": "ym2612"
    },
    {
      "channel": 1,
      "note": 56,
      "start": 3.6515,
      "duration": 0.0013,
      "velocity": 105,
      "chip": "ym2612"
    },
    {
      "channel": 2,
      "note": 50,
      "start": 3.6519,
      "duration": 0.0011,
      "velocity": 105,
      "chip": "ym2612"
    },
    {
      "channel": 1,
      "note": 61,
      "start": 3.6719,
      "duration": 0.0007,
      "velocity": 105,
      "chip": "ym2612"
    },
    {
      "channel": 4,
      "note": 116,
      "start": 3.6742,
      "duration": 0.002,
      "velocity": 127,
      "chip": "ym2612"
    },
    {
      "channel": 1,
      "note": 46,
      "start": 3.682,
      "duration": 0.0007,
      "velocity": 105,
      "chip": "ym2612"
    },
    {
      "channel": 0,
      "note": 58,
      "start": 3.6839,
      "duration": 0.1195,
      "velocity": 109,
      "chip": "ym2612"
    },
    {
      "channel": 1,
      "note": 50,
      "start": 3.6843,
      "duration": 0.17,
      "velocity": 105,
      "chip": "ym2612"
    },
    {
      "channel": 2,
      "note": 56,
      "start": 3.6847,
      "duration": 0.1698,
      "velocity": 105,
      "chip": "ym2612"
    },
    {
      "channel": 3,
      "note": 61,
      "start": 3.6851,
      "duration": 0.1695,
      "velocity": 105,
      "chip": "ym2612"
    },
    {
      "channel": 4,
      "note": 116,
      "start": 3.6854,
      "duration": 0.1013,
      "velocity": 127,
      "chip": "ym2612"
    },
    {
      "channel": 0,
      "note": 61,
      "start": 3.859,
      "duration": 0.0086,
      "velocity": 109,
      "chip": "ym2612"
    },
    {
      "channel": 1,
      "note": 46,
      "start": 3.8594,
      "duration": 0.0007,
      "velocity": 105,
      "chip": "ym2612"
    },
    {
      "channel": 1,
      "note": 56,
      "start": 3.8612,
      "duration": 0.0051,
      "velocity": 105,
      "chip": "ym2612"
    },
    {
      "channel": 2,
      "note": 50,
      "start": 3.8616,
      "duration": 0.0049,
      "velocity": 105,
      "chip": "ym2612"
    },
    {
      "channel": 3,
      "note": 61,
      "start": 3.862,
      "duration": 0.0046,
      "velocity": 105,
      "chip": "ym2612"
    },
    {
      "channel": 4,
      "note": 116,
      "start": 3.8643,
      "duration": 0.0028,
      "velocity": 127,
      "chip": "ym2612"
    },
    {
      "channel": 1,
      "note": 46,
      "start": 3.8884,
      "duration": 0.0021,
      "velocity": 105,
      "chip": "ym2612"
    },
    {
      "channel": 0,
      "note": 58,
      "start": 3.8916,
      "duration": 0.3617,
      "velocity": 109,
      "chip": "ym2612"
    },
    {
      "channel": 1,
      "note": 46,
      "start": 3.892,
      "duration": 0.0038,
      "velocity": 105,
      "chip": "ym2612"
    },
    {
      "channel": 4,
      "note": 116,
      "start": 3.8938,
      "duration": 0.0063,
      "velocity": 109,
      "chip": "ym2612"
    },
    {
      "channel": 1,
      "note": 56,
      "start": 3.8993,
      "duration": 0.0834,
      "velocity": 105,
      "chip": "ym2612"
    },
    {
      "channel": 2,
      "note": 50,
      "start": 3.8996,
      "duration": 0.0832,
      "velocity": 105,
      "chip": "ym2612"
    },
    {
      "channel": 3,
      "note": 61,
      "start": 3.9001,
      "duration": 0.0828,
      "velocity": 105,
      "chip": "ym2612"
    },
    {
      "channel": 4,
      "note": 116,
      "start": 3.9848,
      "duration": 0.1128,
      "velocity": 127,
      "chip": "ym2612"
    },
    {
      "channel": 1,
      "note": 46,
      "start": 4.1646,
      "duration": 0.0662,
      "velocity": 105,
      "chip": "ym2612"
    },
    {
      "channel": 1,
      "note": 56,
      "start": 4.2505,
      "duration": 0.0077,
      "velocity": 105,
      "chip": "ym2612"
    },
    {
      "channel": 2,
      "note": 50,
      "start": 4.2509,
      "duration": 0.0075,
      "velocity": 105,
      "chip": "ym2612"
    },
    {
      "channel": 3,
      "note": 61,
      "start": 4.2513,
      "duration": 0.0072,
      "velocity": 105,
      "chip": "ym2612"
    },
    {
      "channel": 4,
      "note": 116,
      "start": 4.2516,
      "duration": 0.0022,
      "velocity": 127,
      "chip": "ym2612"
    },
    {
      "channel": 1,
      "note": 46,
      "start": 4.3256,
      "duration": 0.0024,
      "velocity": 105,
      "chip": "ym2612"
    },
    {
      "channel": 4,
      "note": 116,
      "start": 4.326,
      "duration": 0.0036,
      "velocity": 127,
      "chip": "ym2612"
    },
    {
      "channel": 1,
      "note": 56,
      "start": 4.3287,
      "duration": 0.0013,
      "velocity": 105,
      "chip": "ym2612"
    },
    {
      "channel": 2,
      "note": 50,
      "start": 4.3292,
      "duration": 0.001,
      "velocity": 105,
      "chip": "ym2612"
    },
    {
      "channel": 1,
      "note": 61,
      "start": 4.3491,
      "duration": 0.0007,
      "velocity": 105,
      "chip": "ym2612"
    },
    {
      "channel": 4,
      "note": 116,
      "start": 4.3515,
      "duration": 0.002,
      "velocity": 127,
      "chip": "ym2612"
    },
    {
      "channel": 1,
      "note": 46,
      "start": 4.3593,
      "duration": 0.0007,
      "velocity": 105,
      "chip": "ym2612"
    },
    {
      "channel": 0,
      "note": 56,
      "start": 4.3611,
      "duration": 0.1746,
      "velocity": 109,
      "chip": "ym2612"
    },
    {
      "channel": 1,
      "note": 50,
      "start": 4.3616,
      "duration": 0.1701,
      "velocity": 105,
      "chip": "ym2612"
    },
    {
      "channel": 2,
      "note": 56,
      "start": 4.362,
      "duration": 0.1698,
      "velocity": 105,
      "chip": "ym2612"
    },
    {
      "channel": 3,
      "note": 61,
      "start": 4.3624,
      "duration": 0.1695,
      "velocity": 105,
      "chip": "ym2612"
    },
    {
      "channel": 4,
      "note": 116,
      "start": 4.3627,
      "duration": 0.1013,
      "velocity": 127,
      "chip": "ym2612"
    },
    {
      "channel": 1,
      "note": 46,
      "start": 4.5362,
      "duration": 0.0007,
      "velocity": 105,
      "chip": "ym2612"
    },
    {
      "channel": 0,
      "note": 56,
      "start": 4.538,
      "duration": 0.0285,
      "velocity": 109,
      "chip": "ym2612"
    },
    {
      "channel": 1,
      "note": 56,
      "start": 4.5384,
      "duration": 0.002,
      "velocity": 105,
      "chip": "ym2612"
    },
    {
      "channel": 2,
      "note": 50,
      "start": 4.5388,
      "duration": 0.0016,
      "velocity": 105,
      "chip": "ym2612"
    },
    {
      "channel": 3,
      "note": 61,
      "start": 4.5392,
      "duration": 0.0014,
      "velocity": 105,
      "chip": "ym2612"
    },
    {
      "channel": 4,
      "note": 116,
      "start": 4.541,
      "duration": 0.002,
      "velocity": 127,
      "chip": "ym2612"
    },
    {
      "channel": 1,
      "note": 46,
      "start": 4.564,
      "duration": 0.002,
      "velocity": 105,
      "chip": "ym2612"
    },
    {
      "channel": 0,
      "note": 58,
      "start": 4.5677,
      "duration": 0.3603,
      "velocity": 109,
      "chip": "ym2612"
    },
    {
      "channel": 1,
      "note": 46,
      "start": 4.5681,
      "duration": 0.0024,
      "velocity": 105,
      "chip": "ym2612"
    },
    {
      "channel": 4,
      "note": 116,
      "start": 4.5699,
      "duration": 0.0051,
      "velocity": 109,
      "chip": "ym2612"
    },
    {
      "channel": 1,
      "note": 50,
      "start": 4.5741,
      "duration": 0.0828,
      "velocity": 105,
      "chip": "ym2612"
    },
    {
      "channel": 2,
      "note": 56,
      "start": 4.5744,
      "duration": 0.0826,
      "velocity": 105,
      "chip": "ym2612"
    },
    {
      "channel": 3,
      "note": 61,
      "start": 4.5749,
      "duration": 0.0822,
      "velocity": 105,
      "chip": "ym2612"
    },
    {
      "channel": 4,
      "note": 116,
      "start": 4.659,
      "duration": 0.1139,
      "velocity": 127,
      "chip": "ym2612"
    },
    {
      "channel": 1,
      "note": 46,
      "start": 4.84,
      "duration": 0.0662,
      "velocity": 105,
      "chip": "ym2612"
    },
    {
      "channel": 1,
      "note": 56,
      "start": 4.9247,
      "duration": 0.0417,
      "velocity": 105,
      "chip": "ym2612"
    },
    {
      "channel": 2,
      "note": 50,
      "start": 4.9251,
      "duration": 0.0414,
      "velocity": 105,
      "chip": "ym2612"
    },
    {
      "channel": 3,
      "note": 61,
      "start": 4.9255,
      "duration": 0.0412,
      "velocity": 105,
      "chip": "ym2612"
    },
    {
      "channel": 4,
      "note": 116,
      "start": 4.9259,
      "duration": 0.0027,
      "velocity": 127,
      "chip": "ym2612"
    },
    {
      "channel": 1,
      "note": 46,
      "start": 5.0003,
      "duration": 0.0024,
      "velocity": 105,
      "chip": "ym2612"
    },
    {
      "channel": 4,
      "note": 116,
      "start": 5.0007,
      "duration": 0.0036,
      "velocity": 127,
      "chip": "ym2612"
    },
    {
      "channel": 1,
      "note": 56,
      "start": 5.0034,
      "duration": 0.0036,
      "velocity": 105,
      "chip": "ym2612"
    },
    {
      "channel": 2,
      "note": 50,
      "start": 5.0038,
      "duration": 0.0034,
      "velocity": 105,
      "chip": "ym2612"
    },
    {
      "channel": 1,
      "note": 61,
      "start": 5.0241,
      "duration": 0.0007,
      "velocity": 105,
      "chip": "ym2612"
    },
    {
      "channel": 4,
      "note": 116,
      "start": 5.0264,
      "duration": 0.0027,
      "velocity": 127,
      "chip": "ym2612"
    },
    {
      "channel": 1,
      "note": 46,
      "start": 5.0474,
      "duration": 0.0007,
      "velocity": 105,
      "chip": "ym2612"
    },
    {
      "channel": 0,
      "note": 58,
      "start": 5.0511,
      "duration": 0.0019,
      "velocity": 109,
      "chip": "ym2612"
    },
    {
      "channel": 1,
      "note": 61,
      "start": 5.0515,
      "duration": 0.0083,
      "velocity": 105,
      "chip": "ym2612"
    },
    {
      "channel": 2,
      "note": 56,
      "start": 5.0519,
      "duration": 0.008,
      "velocity": 105,
      "chip": "ym2612"
    },
    {
      "channel": 3,
      "note": 50,
      "start": 5.0523,
      "duration": 0.0077,
      "velocity": 105,
      "chip": "ym2612"
    },
    {
      "channel": 0,
      "note": 61,
      "start": 5.1439,
      "duration": 0.2088,
      "velocity": 109,
      "chip": "ym2612"
    },
    {
      "channel": 1,
      "note": 46,
      "start": 5.1442,
      "duration": 0.0007,
      "velocity": 105,
      "chip": "ym2612"
    },
    {
      "channel": 1,
      "note": 61,
      "start": 5.1457,
      "duration": 0.1076,
      "velocity": 105,
      "chip": "ym2612"
    },
    {
      "channel": 2,
      "note": 56,
      "start": 5.1461,
      "duration": 0.1074,
      "velocity": 105,
      "chip": "ym2612"
    },
    {
      "channel": 3,
      "note": 50,
      "start": 5.1466,
      "duration": 0.1071,
      "velocity": 105,
      "chip": "ym2612"
    },
    {
      "channel": 1,
      "note": 46,
      "start": 5.4031,
      "duration": 0.0662,
      "velocity": 105,
      "chip": "ym2612"
    },
    {
      "channel": 0,
      "note": 51,
      "start": 5.4883,
      "duration": 0.0042,
      "velocity": 109,
      "chip": "ym2612"
    },
    {
      "channel": 4,
      "note": 116,
      "start": 5.4902,
      "duration": 0.0015,
      "velocity": 109,
      "chip": "ym2612"
    },
    {
      "channel": 0,
      "note": 54,
      "start": 5.4933,
      "duration": 0.0025,
      "velocity": 109,
      "chip": "ym2612"
    },
    {
      "channel": 4,
      "note": 116,
      "start": 5.4951,
      "duration": 0.0007,
      "velocity": 127,
      "chip": "ym2612"
    },
    {
      "channel": 0,
      "note": 56,
      "start": 5.4966,
      "duration": 0.0005,
      "velocity": 109,
      "chip": "ym2612"
    },
    {
      "channel": 0,
      "note": 63,
      "start": 5.4998,
      "duration": 0.0049,
      "velocity": 109,
      "chip": "ym2612"
    },
    {
      "channel": 4,
      "note": 116,
      "start": 5.5002,
      "duration": 0.0009,
      "velocity": 127,
      "chip": "ym2612"
    },
    {
      "channel": 0,
      "note": 54,
      "start": 5.5407,
      "duration": 0.002,
      "velocity": 109,
      "chip": "ym2612"
    },
    {
      "channel": 4,
      "note": 116,
      "start": 5.541,
      "duration": 0.0018,
      "velocity": 127,
      "chip": "ym2612"
    },
    {
      "channel": 0,
      "note": 61,
      "start": 5.5443,
      "duration": 0.0035,
      "velocity": 109,
      "chip": "ym2612"
    },
    {
      "channel": 4,
      "note": 116,
      "start": 5.5472,
      "duration": 0.007,
      "velocity": 109,
      "chip": "ym2612"
    },
    {
      "channel": 0,
      "note": 54,
      "start": 5.554,
      "duration": 0.0008,
      "velocity": 109,
      "chip": "ym2612"
    },
    {
      "channel": 0,
      "note": 60,
      "start": 5.5601,
      "duration": 0.0052,
      "velocity": 109,
      "chip": "ym2612"
    },
    {
      "channel": 4,
      "note": 116,
      "start": 5.5619,
      "duration": 0.0035,
      "velocity": 127,
      "chip": "ym2612"
    },
    {
      "channel": 0,
      "note": 51,
      "start": 5.5661,
      "duration": 0.0007,
      "velocity": 109,
      "chip": "ym2612"
    },
    {
      "channel": 0,
      "note": 54,
      "start": 5.5697,
      "duration": 0.0017,
      "velocity": 109,
      "chip": "ym2612"
    },
    {
      "channel": 0,
      "note": 55,
      "start": 5.5742,
      "duration": 0.0032,
      "velocity": 109,
      "chip": "ym2612"
    },
    {
      "channel": 4,
      "note": 116,
      "start": 5.5746,
      "duration": 0.0017,
      "velocity": 127,
      "chip": "ym2612"
    },
    {
      "channel": 0,
      "note": 49,
      "start": 5.5774,
      "duration": 0.0009,
      "velocity": 109,
      "chip": "ym2612"
    },
    {
      "channel": 0,
      "note": 56,
      "start": 5.5795,
      "duration": 0.0036,
      "velocity": 109,
      "chip": "ym2612"
    },
    {
      "channel": 4,
      "note": 116,
      "start": 5.5813,
      "duration": 0.0026,
      "velocity": 109,
      "chip": "ym2612"
    },
    {
      "channel": 0,
      "note": 56,
      "start": 5.6645,
      "duration": 0.0537,
      "velocity": 109,
      "chip": "ym2612"
    },
    {
      "channel": 4,
      "note": 116,
      "start": 5.6663,
      "duration": 0.0007,
      "velocity": 127,
      "chip": "ym2612"
    },
    {
      "channel": 0,
      "note": 54,
      "start": 5.7368,
      "duration": 0.01,
      "velocity": 109,
      "chip": "ym2612"
    },
    {
      "channel": 4,
      "note": 116,
      "start": 5.7371,
      "duration": 0.001,
      "velocity": 127,
      "chip": "ym2612"
    },
    {
      "channel": 4,
      "note": 116,
      "start": 5.7431,
      "duration": 0.0015,
      "velocity": 127,
      "chip": "ym2612"
    },
    {
      "channel": 4,
      "note": 116,
      "start": 5.7474,
      "duration": 0.0007,
      "velocity": 127,
      "chip": "ym2612"
    },
    {
      "channel": 0,
      "note": 56,
      "start": 5.7721,
      "duration": 0.0007,
      "velocity": 109,
      "chip": "ym2612"
    },
    {
      "channel": 0,
      "note": 60,
      "start": 5.7741,
      "duration": 0.0026,
      "velocity": 109,
      "chip": "ym2612"
    },
    {
      "channel": 4,
      "note": 116,
      "start": 5.7744,
      "duration": 0.0018,
      "velocity": 127,
      "chip": "ym2612"
    },
    {
      "channel": 0,
      "note": 61,
      "start": 5.7786,
      "duration": 0.0011,
      "velocity": 109,
      "chip": "ym2612"
    },
    {
      "channel": 0,
      "note": 62,
      "start": 5.7818,
      "duration": 0.0027,
      "velocity": 109,
      "chip": "ym2612"
    },
    {
      "channel": 4,
      "note": 116,
      "start": 5.7822,
      "duration": 0.0008,
      "velocity": 127,
      "chip": "ym2612"
    },
    {
      "channel": 0,
      "note": 51,
      "start": 5.7871,
      "duration": 0.0162,
      "velocity": 109,
      "chip": "ym2612"
    },
    {
      "channel": 4,
      "note": 116,
      "start": 5.7889,
      "duration": 0.002,
      "velocity": 109,
      "chip": "ym2612"
    },
    {
      "channel": 0,
      "note": 54,
      "start": 5.8714,
      "duration": 0.0025,
      "velocity": 109,
      "chip": "ym2612"
    },
    {
      "channel": 4,
      "note": 116,
      "start": 5.8732,
      "duration": 0.0008,
      "velocity": 127,
      "chip": "ym2612"
    },
    {
      "channel": 0,
      "note": 56,
      "start": 5.8748,
      "duration": 0.0005,
      "velocity": 109,
      "chip": "ym2612"
    },
    {
      "channel": 0,
      "note": 63,
      "start": 5.9435,
      "duration": 0.0047,
      "velocity": 109,
      "chip": "ym2612"
    },
    {
      "channel": 4,
      "note": 116,
      "start": 5.9439,
      "duration": 0.0009,
      "velocity": 127,
      "chip": "ym2612"
    },
    {
      "channel": 0,
      "note": 54,
      "start": 5.9676,
      "duration": 0.0018,
      "velocity": 109,
      "chip": "ym2612"
    },
    {
      "channel": 4,
      "note": 116,
      "start": 5.9679,
      "duration": 0.0017,
      "velocity": 127,
      "chip": "ym2612"
    },
    {
      "channel": 0,
      "note": 61,
      "start": 5.9723,
      "duration": 0.0031,
      "velocity": 109,
      "chip": "ym2612"
    },
    {
      "channel": 4,
      "note": 116,
      "start": 5.9744,
      "duration": 0.0011,
      "velocity": 127,
      "chip": "ym2612"
    },
    {
      "channel": 0,
      "note": 54,
      "start": 5.9993,
      "duration": 0.0007,
      "velocity": 109,
      "chip": "ym2612"
    },
    {
      "channel": 0,
      "note": 60,
      "start": 6.0011,
      "duration": 0.0022,
      "velocity": 109,
      "chip": "ym2612"
    },
    {
      "channel": 4,
      "note": 116,
      "start": 6.0015,
      "duration": 0.0019,
      "velocity": 127,
      "chip": "ym2612"
    },
    {
      "channel": 0,
      "note": 51,
      "start": 6.0041,
      "duration": 0.0007,
      "velocity": 109,
      "chip": "ym2612"
    },
    {
      "channel": 0,
      "note": 54,
      "start": 6.0075,
      "duration": 0.0046,
      "velocity": 109,
      "chip": "ym2612"
    },
    {
      "channel": 0,
      "note": 55,
      "start": 6.0146,
      "duration": 0.0046,
      "velocity": 109,
      "chip": "ym2612"
    },
    {
      "channel": 4,
      "note": 116,
      "start": 6.015,
      "duration": 0.0017,
      "velocity": 127,
      "chip": "ym2612"
    },
    {
      "channel": 0,
      "note": 49,
      "start": 6.0192,
      "duration": 0.0018,
      "velocity": 109,
      "chip": "ym2612"
    },
    {
      "channel": 0,
      "note": 56,
      "start": 6.0221,
      "duration": 0.0171,
      "velocity": 109,
      "chip": "ym2612"
    },
    {
      "channel": 4,
      "note": 116,
      "start": 6.024,
      "duration": 0.0021,
      "velocity": 109,
      "chip": "ym2612"
    },
    {
      "channel": 4,
      "note": 116,
      "start": 6.1082,
      "duration": 0.0007,
      "velocity": 127,
      "chip": "ym2612"
    },
    {
      "channel": 0,
      "note": 56,
      "start": 6.1095,
      "duration": 0.0099,
      "velocity": 109,
      "chip": "ym2612"
    },
    {
      "channel": 0,
      "note": 60,
      "start": 6.171,
      "duration": 0.0036,
      "velocity": 109,
      "chip": "ym2612"
    },
    {
      "channel": 4,
      "note": 116,
      "start": 6.1714,
      "duration": 0.001,
      "velocity": 127,
      "chip": "ym2612"
    },
    {
      "channel": 0,
      "note": 56,
      "start": 6.1758,
      "duration": 0.0015,
      "velocity": 109,
      "chip": "ym2612"
    },
    {
      "channel": 4,
      "note": 116,
      "start": 6.1762,
      "duration": 0.0021,
      "velocity": 127,
      "chip": "ym2612"
    },
    {
      "channel": 0,
      "note": 61,
      "start": 6.1797,
      "duration": 0.0222,
      "velocity": 109,
      "chip": "ym2612"
    },
    {
      "channel": 4,
      "note": 116,
      "start": 6.1822,
      "duration": 0.0014,
      "velocity": 127,
      "chip": "ym2612"
    },
    {
      "channel": 0,
      "note": 60,
      "start": 6.2031,
      "duration": 0.0033,
      "velocity": 109,
      "chip": "ym2612"
    },
    {
      "channel": 4,
      "note": 116,
      "start": 6.2034,
      "duration": 0.0015,
      "velocity": 127,
      "chip": "ym2612"
    },
    {
      "channel": 0,
      "note": 61,
      "start": 6.2077,
      "duration": 0.0025,
      "velocity": 109,
      "chip": "ym2612"
    },
    {
      "channel": 0,
      "note": 62,
      "start": 6.2126,
      "duration": 0.0053,
      "velocity": 109,
      "chip": "ym2612"
    },
    {
      "channel": 4,
      "note": 116,
      "start": 6.213,
      "duration": 0.0017,
      "velocity": 127,
      "chip": "ym2612"
    },
    {
      "channel": 0,
      "note": 51,
      "start": 6.2197,
      "duration": 0.0038,
      "velocity": 109,
      "chip": "ym2612"
    },
    {
      "channel": 4,
      "note": 116,
      "start": 6.2214,
      "duration": 0.0015,
      "velocity": 109,
      "chip": "ym2612"
    },
    {
      "channel": 0,
      "note": 54,
      "start": 6.2245,
      "duration": 0.0025,
      "velocity": 109,
      "chip": "ym2612"
    },
    {
      "channel": 4,
      "note": 116,
      "start": 6.2263,
      "duration": 0.0007,
      "velocity": 127,
      "chip": "ym2612"
    },
    {
      "channel": 0,
      "note": 56,
      "start": 6.2278,
      "duration": 0.0008,
      "velocity": 109,
      "chip": "ym2612"
    },
    {
      "channel": 0,
      "note": 63,
      "start": 6.2309,
      "duration": 0.0045,
      "velocity": 109,
      "chip": "ym2612"
    },
    {
      "channel": 4,
      "note": 116,
      "start": 6.2312,
      "duration": 0.001,
      "velocity": 127,
      "chip": "ym2612"
    },
    {
      "channel": 0,
      "note": 54,
      "start": 6.2551,
      "duration": 0.0019,
      "velocity": 109,
      "chip": "ym2612"
    },
    {
      "channel": 4,
      "note": 116,
      "start": 6.2555,
      "duration": 0.0016,
      "velocity": 127,
      "chip": "ym2612"
    },
    {
      "channel": 0,
      "note": 61,
      "start": 6.2586,
      "duration": 0.0044,
      "velocity": 109,
      "chip": "ym2612"
    },
    {
      "channel": 4,
      "note": 116,
      "start": 6.2623,
      "duration": 0.0066,
      "velocity": 109,
      "chip": "ym2612"
    },
    {
      "channel": 0,
      "note": 54,
      "start": 6.2688,
      "duration": 0.0008,
      "velocity": 109,
      "chip": "ym2612"
    },
    {
      "channel": 0,
      "note": 60,
      "start": 6.2707,
      "duration": 0.0055,
      "velocity": 109,
      "chip": "ym2612"
    },
    {
      "channel": 4,
      "note": 116,
      "start": 6.2726,
      "duration": 0.0038,
      "velocity": 127,
      "chip": "ym2612"
    },
    {
      "channel": 0,
      "note": 51,
      "start": 6.2771,
      "duration": 0.0007,
      "velocity": 109,
      "chip": "ym2612"
    },
    {
      "channel": 0,
      "note": 54,
      "start": 6.2802,
      "duration": 0.0017,
      "velocity": 109,
      "chip": "ym2612"
    },
    {
      "channel": 0,
      "note": 55,
      "start": 6.2837,
      "duration": 0.0024,
      "velocity": 109,
      "chip": "ym2612"
    },
    {
      "channel": 4,
      "note": 116,
      "start": 6.284,
      "duration": 0.0009,
      "velocity": 127,
      "chip": "ym2612"
    },
    {
      "channel": 0,
      "note": 49,
      "start": 6.2862,
      "duration": 0.001,
      "velocity": 109,
      "chip": "ym2612"
    },
    {
      "channel": 0,
      "note": 56,
      "start": 6.2885,
      "duration": 0.0035,
      "velocity": 109,
      "chip": "ym2612"
    },
    {
      "channel": 4,
      "note": 116,
      "start": 6.2903,
      "duration": 0.0026,
      "velocity": 109,
      "chip": "ym2612"
    },
    {
      "channel": 0,
      "note": 56,
      "start": 6.3568,
      "duration": 0.0453,
      "velocity": 109,
      "chip": "ym2612"
    },
    {
      "channel": 4,
      "note": 116,
      "start": 6.3586,
      "duration": 0.0007,
      "velocity": 127,
      "chip": "ym2612"
    },
    {
      "channel": 0,
      "note": 54,
      "start": 6.4373,
      "duration": 0.0116,
      "velocity": 109,
      "chip": "ym2612"
    },
    {
      "channel": 4,
      "note": 116,
      "start": 6.4377,
      "duration": 0.001,
      "velocity": 127,
      "chip": "ym2612"
    },
    {
      "channel": 4,
      "note": 116,
      "start": 6.4454,
      "duration": 0.0015,
      "velocity": 127,
      "chip": "ym2612"
    },
    {
      "channel": 4,
      "note": 116,
      "start": 6.4495,
      "duration": 0.0007,
      "velocity": 127,
      "chip": "ym2612"
    },
    {
      "channel": 0,
      "note": 56,
      "start": 6.4576,
      "duration": 0.0007,
      "velocity": 109,
      "chip": "ym2612"
    },
    {
      "channel": 0,
      "note": 60,
      "start": 6.4595,
      "duration": 0.0047,
      "velocity": 109,
      "chip": "ym2612"
    },
    {
      "channel": 4,
      "note": 116,
      "start": 6.4598,
      "duration": 0.0039,
      "velocity": 127,
      "chip": "ym2612"
    },
    {
      "channel": 0,
      "note": 61,
      "start": 6.4657,
      "duration": 0.0009,
      "velocity": 109,
      "chip": "ym2612"
    },
    {
      "channel": 0,
      "note": 62,
      "start": 6.4687,
      "duration": 0.0028,
      "velocity": 109,
      "chip": "ym2612"
    },
    {
      "channel": 4,
      "note": 116,
      "start": 6.4691,
      "duration": 0.0008,
      "velocity": 127,
      "chip": "ym2612"
    },
    {
      "channel": 0,
      "note": 51,
      "start": 6.4739,
      "duration": 0.0162,
      "velocity": 109,
      "chip": "ym2612"
    },
    {
      "channel": 4,
      "note": 116,
      "start": 6.4757,
      "duration": 0.002,
      "velocity": 109,
      "chip": "ym2612"
    },
    {
      "channel": 0,
      "note": 54,
      "start": 6.5415,
      "duration": 0.0025,
      "velocity": 109,
      "chip": "ym2612"
    },
    {
      "channel": 4,
      "note": 116,
      "start": 6.5432,
      "duration": 0.0009,
      "velocity": 127,
      "chip": "ym2612"
    },
    {
      "channel": 0,
      "note": 56,
      "start": 6.5448,
      "duration": 0.0089,
      "velocity": 109,
      "chip": "ym2612"
    },
    {
      "channel": 0,
      "note": 63,
      "start": 6.622,
      "duration": 0.0049,
      "velocity": 109,
      "chip": "ym2612"
    },
    {
      "channel": 4,
      "note": 116,
      "start": 6.6223,
      "duration": 0.001,
      "velocity": 127,
      "chip": "ym2612"
    },
    {
      "channel": 0,
      "note": 54,
      "start": 6.6462,
      "duration": 0.0019,
      "velocity": 109,
      "chip": "ym2612"
    },
    {
      "channel": 4,
      "note": 116,
      "start": 6.6466,
      "duration": 0.0016,
      "velocity": 127,
      "chip": "ym2612"
    },
    {
      "channel": 0,
      "note": 61,
      "start": 6.6498,
      "duration": 0.0021,
      "velocity": 109,
      "chip": "ym2612"
    },
    {
      "channel": 4,
      "note": 116,
      "start": 6.6512,
      "duration": 0.0008,
      "velocity": 127,
      "chip": "ym2612"
    },
    {
      "channel": 0,
      "note": 54,
      "start": 6.6591,
      "duration": 0.0007,
      "velocity": 109,
      "chip": "ym2612"
    },
    {
      "channel": 0,
      "note": 60,
      "start": 6.661,
      "duration": 0.0037,
      "velocity": 109,
      "chip": "ym2612"
    },
    {
      "channel": 4,
      "note": 116,
      "start": 6.6613,
      "duration": 0.0036,
      "velocity": 127,
      "chip": "ym2612"
    },
    {
      "channel": 0,
      "note": 51,
      "start": 6.6656,
      "duration": 0.0007,
      "velocity": 109,
      "chip": "ym2612"
    },
    {
      "channel": 0,
      "note": 54,
      "start": 6.6688,
      "duration": 0.0046,
      "velocity": 109,
      "chip": "ym2612"
    },
    {
      "channel": 0,
      "note": 55,
      "start": 6.6759,
      "duration": 0.0033,
      "velocity": 109,
      "chip": "ym2612"
    },
    {
      "channel": 4,
      "note": 116,
      "start": 6.6763,
      "duration": 0.0017,
      "velocity": 127,
      "chip": "ym2612"
    },
    {
      "channel": 0,
      "note": 49,
      "start": 6.6792,
      "duration": 0.0009,
      "velocity": 109,
      "chip": "ym2612"
    },
    {
      "channel": 0,
      "note": 56,
      "start": 6.6814,
      "duration": 0.0169,
      "velocity": 109,
      "chip": "ym2612"
    },
    {
      "channel": 4,
      "note": 116,
      "start": 6.6832,
      "duration": 0.0021,
      "velocity": 109,
      "chip": "ym2612"
    },
    {
      "channel": 4,
      "note": 116,
      "start": 6.7673,
      "duration": 0.0007,
      "velocity": 127,
      "chip": "ym2612"
    },
    {
      "channel": 4,
      "note": 116,
      "start": 6.8386,
      "duration": 0.0016,
      "velocity": 127,
      "chip": "ym2612"
    },
    {
      "channel": 4,
      "note": 116,
      "start": 6.8777,
      "duration": 0.0009,
      "velocity": 127,
      "chip": "ym2612"
    },
    {
      "channel": 4,
      "note": 116,
      "start": 6.8871,
      "duration": 0.0014,
      "velocity": 127,
      "chip": "ym2612"
    },
    {
      "channel": 4,
      "note": 116,
      "start": 6.9128,
      "duration": 0.0009,
      "velocity": 127,
      "chip": "ym2612"
    },
    {
      "channel": 4,
      "note": 116,
      "start": 6.9189,
      "duration": 0.0007,
      "velocity": 127,
      "chip": "ym2612"
    },
    {
      "channel": 0,
      "note": 49,
      "start": 6.9287,
      "duration": 0.0029,
      "velocity": 109,
      "chip": "ym2612"
    },
    {
      "channel": 1,
      "note": 49,
      "start": 6.9291,
      "duration": 0.0012,
      "velocity": 105,
      "chip": "ym2612"
    },
    {
      "channel": 4,
      "note": 116,
      "start": 6.9295,
      "duration": 0.0013,
      "velocity": 127,
      "chip": "ym2612"
    },
    {
      "channel": 1,
      "note": 61,
      "start": 6.9321,
      "duration": 0.0009,
      "velocity": 105,
      "chip": "ym2612"
    },
    {
      "channel": 2,
      "note": 59,
      "start": 6.9325,
      "duration": 0.0006,
      "velocity": 105,
      "chip": "ym2612"
    },
    {
      "channel": 0,
      "note": 49,
      "start": 6.9338,
      "duration": 0.0008,
      "velocity": 109,
      "chip": "ym2612"
    },
    {
      "channel": 4,
      "note": 116,
      "start": 6.9342,
      "duration": 0.0009,
      "velocity": 127,
      "chip": "ym2612"
    },
    {
      "channel": 0,
      "note": 49,
      "start": 6.9359,
      "duration": 0.0013,
      "velocity": 109,
      "chip": "ym2612"
    },
    {
      "channel": 1,
      "note": 49,
      "start": 6.9363,
      "duration": 0.0004,
      "velocity": 105,
      "chip": "ym2612"
    },
    {
      "channel": 0,
      "note": 52,
      "start": 6.9379,
      "duration": 0.0195,
      "velocity": 109,
      "chip": "ym2612"
    },
    {
      "channel": 1,
      "note": 59,
      "start": 6.9383,
      "duration": 0.0012,
      "velocity": 105,
      "chip": "ym2612"
    },
    {
      "channel": 2,
      "note": 61,
      "start": 6.9387,
      "duration": 0.0009,
      "velocity": 105,
      "chip": "ym2612"
    },
    {
      "channel": 4,
      "note": 116,
      "start": 6.939,
      "duration": 0.0011,
      "velocity": 127,
      "chip": "ym2612"
    },
    {
      "channel": 0,
      "note": 49,
      "start": 6.9912,
      "duration": 0.0495,
      "velocity": 109,
      "chip": "ym2612"
    },
    {
      "channel": 0,
      "note": 53,
      "start": 7.076,
      "duration": 0.002,
      "velocity": 109,
      "chip": "ym2612"
    },
    {
      "channel": 1,
      "note": 49,
      "start": 7.0764,
      "duration": 0.001,
      "velocity": 105,
      "chip": "ym2612"
    },
    {
      "channel": 4,
      "note": 116,
      "start": 7.0767,
      "duration": 0.0017,
      "velocity": 127,
      "chip": "ym2612"
    },
    {
      "channel": 1,
      "note": 59,
      "start": 7.0819,
      "duration": 0.0011,
      "velocity": 105,
      "chip": "ym2612"
    },
    {
      "channel": 2,
      "note": 61,
      "start": 7.0823,
      "duration": 0.0009,
      "velocity": 105,
      "chip": "ym2612"
    },
    {
      "channel": 0,
      "note": 54,
      "start": 7.0839,
      "duration": 0.0239,
      "velocity": 109,
      "chip": "ym2612"
    },
    {
      "channel": 4,
      "note": 116,
      "start": 7.0842,
      "duration": 0.002,
      "velocity": 127,
      "chip": "ym2612"
    },
    {
      "channel": 1,
      "note": 49,
      "start": 7.1082,
      "duration": 0.0007,
      "velocity": 105,
      "chip": "ym2612"
    },
    {
      "channel": 0,
      "note": 54,
      "start": 7.1101,
      "duration": 0.053,
      "velocity": 109,
      "chip": "ym2612"
    },
    {
      "channel": 1,
      "note": 59,
      "start": 7.1105,
      "duration": 0.0527,
      "velocity": 105,
      "chip": "ym2612"
    },
    {
      "channel": 2,
      "note": 61,
      "start": 7.1109,
      "duration": 0.0524,
      "velocity": 105,
      "chip": "ym2612"
    },
    {
      "channel": 4,
      "note": 116,
      "start": 7.1113,
      "duration": 0.0845,
      "velocity": 127,
      "chip": "ym2612"
    },
    {
      "channel": 0,
      "note": 58,
      "start": 7.2634,
      "duration": 0.1083,
      "velocity": 109,
      "chip": "ym2612"
    },
    {
      "channel": 1,
      "note": 49,
      "start": 7.2657,
      "duration": 0.0005,
      "velocity": 105,
      "chip": "ym2612"
    },
    {
      "channel": 1,
      "note": 59,
      "start": 7.372,
      "duration": 0.0024,
      "velocity": 105,
      "chip": "ym2612"
    },
    {
      "channel": 2,
      "note": 61,
      "start": 7.3724,
      "duration": 0.0022,
      "velocity": 105,
      "chip": "ym2612"
    },
    {
      "channel": 0,
      "note": 59,
      "start": 7.3758,
      "duration": 0.0073,
      "velocity": 109,
      "chip": "ym2612"
    },
    {
      "channel": 4,
      "note": 116,
      "start": 7.3761,
      "duration": 0.002,
      "velocity": 127,
      "chip": "ym2612"
    },
    {
      "channel": 1,
      "note": 49,
      "start": 7.3836,
      "duration": 0.002,
      "velocity": 105,
      "chip": "ym2612"
    },
    {
      "channel": 0,
      "note": 49,
      "start": 7.3867,
      "duration": 0.0024,
      "velocity": 109,
      "chip": "ym2612"
    },
    {
      "channel": 1,
      "note": 49,
      "start": 7.3871,
      "duration": 0.001,
      "velocity": 105,
      "chip": "ym2612"
    },
    {
      "channel": 4,
      "note": 116,
      "start": 7.3875,
      "duration": 0.0012,
      "velocity": 127,
      "chip": "ym2612"
    },
    {
      "channel": 1,
      "note": 59,
      "start": 7.4088,
      "duration": 0.0162,
      "velocity": 105,
      "chip": "ym2612"
    },
    {
      "channel": 2,
      "note": 61,
      "start": 7.4092,
      "duration": 0.016,
      "velocity": 105,
      "chip": "ym2612"
    },
    {
      "channel": 0,
      "note": 49,
      "start": 7.4921,
      "duration": 0.1827,
      "velocity": 109,
      "chip": "ym2612"
    },
    {
      "channel": 4,
      "note": 116,
      "start": 7.4925,
      "duration": 0.0987,
      "velocity": 127,
      "chip": "ym2612"
    },
    {
      "channel": 1,
      "note": 49,
      "start": 7.6583,
      "duration": 0.0166,
      "velocity": 105,
      "chip": "ym2612"
    },
    {
      "channel": 0,
      "note": 52,
      "start": 7.7431,
      "duration": 0.1481,
      "velocity": 109,
      "chip": "ym2612"
    },
    {
      "channel": 1,
      "note": 61,
      "start": 7.7435,
      "duration": 0.0647,
      "velocity": 105,
      "chip": "ym2612"
    },
    {
      "channel": 2,
      "note": 59,
      "start": 7.7439,
      "duration": 0.0645,
      "velocity": 105,
      "chip": "ym2612"
    },
    {
      "channel": 4,
      "note": 116,
      "start": 7.7442,
      "duration": 0.1137,
      "velocity": 127,
      "chip": "ym2612"
    },
    {
      "channel": 0,
      "note": 49,
      "start": 7.9249,
      "duration": 0.0329,
      "velocity": 109,
      "chip": "ym2612"
    },
    {
      "channel": 0,
      "note": 53,
      "start": 8.0097,
      "duration": 0.0033,
      "velocity": 109,
      "chip": "ym2612"
    },
    {
      "channel": 1,
      "note": 49,
      "start": 8.0101,
      "duration": 0.0024,
      "velocity": 105,
      "chip": "ym2612"
    },
    {
      "channel": 4,
      "note": 116,
      "start": 8.0104,
      "duration": 0.0026,
      "velocity": 127,
      "chip": "ym2612"
    },
    {
      "channel": 1,
      "note": 59,
      "start": 8.0169,
      "duration": 0.0011,
      "velocity": 105,
      "chip": "ym2612"
    },
    {
      "channel": 2,
      "note": 61,
      "start": 8.0174,
      "duration": 0.0009,
      "velocity": 105,
      "chip": "ym2612"
    },
    {
      "channel": 0,
      "note": 54,
      "start": 8.019,
      "duration": 0.0246,
      "velocity": 109,
      "chip": "ym2612"
    },
    {
      "channel": 4,
      "note": 116,
      "start": 8.0193,
      "duration": 0.002,
      "velocity": 127,
      "chip": "ym2612"
    },
    {
      "channel": 1,
      "note": 49,
      "start": 8.0429,
      "duration": 0.0009,
      "velocity": 105,
      "chip": "ym2612"
    },
    {
      "channel": 0,
      "note": 54,
      "start": 8.0445,
      "duration": 0.0533,
      "velocity": 109,
      "chip": "ym2612"
    },
    {
      "channel": 1,
      "note": 59,
      "start": 8.045,
      "duration": 0.053,
      "velocity": 105,
      "chip": "ym2612"
    },
    {
      "channel": 2,
      "note": 61,
      "start": 8.0454,
      "duration": 0.0527,
      "velocity": 105,
      "chip": "ym2612"
    },
    {
      "channel": 4,
      "note": 116,
      "start": 8.0457,
      "duration": 0.0848,
      "velocity": 127,
      "chip": "ym2612"
    },
    {
      "channel": 0,
      "note": 58,
      "start": 8.1981,
      "duration": 0.1092,
      "velocity": 109,
      "chip": "ym2612"
    },
    {
      "channel": 0,
      "note": 59,
      "start": 8.3087,
      "duration": 0.0084,
      "velocity": 109,
      "chip": "ym2612"
    },
    {
      "channel": 4,
      "note": 116,
      "start": 8.3091,
      "duration": 0.002,
      "velocity": 127,
      "chip": "ym2612"
    },
    {
      "channel": 0,
      "note": 49,
      "start": 8.3189,
      "duration": 0.0234,
      "velocity": 109,
      "chip": "ym2612"
    },
    {
      "channel": 1,
      "note": 49,
      "start": 8.3193,
      "duration": 0.0024,
      "velocity": 105,
      "chip": "ym2612"
    },
    {
      "channel": 4,
      "note": 116,
      "start": 8.3197,
      "duration": 0.0025,
      "velocity": 127,
      "chip": "ym2612"
    },
    {
      "channel": 1,
      "note": 61,
      "start": 8.3428,
      "duration": 0.0158,
      "velocity": 105,
      "chip": "ym2612"
    },
    {
      "channel": 2,
      "note": 59,
      "start": 8.3432,
      "duration": 0.0155,
      "velocity": 105,
      "chip": "ym2612"
    },
    {
      "channel": 0,
      "note": 49,
      "start": 8.4257,
      "duration": 0.0824,
      "velocity": 109,
      "chip": "ym2612"
    },
    {
      "channel": 4,
      "note": 116,
      "start": 8.4261,
      "duration": 0.0987,
      "velocity": 127,
      "chip": "ym2612"
    },
    {
      "channel": 0,
      "note": 49,
      "start": 8.5923,
      "duration": 0.0657,
      "velocity": 109,
      "chip": "ym2612"
    },
    {
      "channel": 1,
      "note": 49,
      "start": 8.5927,
      "duration": 0.0321,
      "velocity": 105,
      "chip": "ym2612"
    },
    {
      "channel": 0,
      "note": 52,
      "start": 8.6767,
      "duration": 0.1647,
      "velocity": 109,
      "chip": "ym2612"
    },
    {
      "channel": 1,
      "note": 59,
      "start": 8.6771,
      "duration": 0.0647,
      "velocity": 105,
      "chip": "ym2612"
    },
    {
      "channel": 2,
      "note": 61,
      "start": 8.6775,
      "duration": 0.0645,
      "velocity": 105,
      "chip": "ym2612"
    },
    {
      "channel": 4,
      "note": 116,
      "start": 8.6778,
      "duration": 0.1136,
      "velocity": 127,
      "chip": "ym2612"
    },
    {
      "channel": 0,
      "note": 49,
      "start": 8.8585,
      "duration": 0.0662,
      "velocity": 109,
      "chip": "ym2612"
    },
    {
      "channel": 0,
      "note": 53,
      "start": 8.9433,
      "duration": 0.0033,
      "velocity": 109,
      "chip": "ym2612"
    },
    {
      "channel": 1,
      "note": 49,
      "start": 8.9437,
      "duration": 0.0024,
      "velocity": 105,
      "chip": "ym2612"
    },
    {
      "channel": 4,
      "note": 116,
      "start": 8.9441,
      "duration": 0.003,
      "velocity": 127,
      "chip": "ym2612"
    },
    {
      "channel": 1,
      "note": 59,
      "start": 8.9505,
      "duration": 0.0011,
      "velocity": 105,
      "chip": "ym2612"
    },
    {
      "channel": 2,
      "note": 61,
      "start": 8.9509,
      "duration": 0.0008,
      "velocity": 105,
      "chip": "ym2612"
    },
    {
      "channel": 0,
      "note": 54,
      "start": 8.9525,
      "duration": 0.0239,
      "velocity": 109,
      "chip": "ym2612"
    },
    {
      "channel": 4,
      "note": 116,
      "start": 8.9528,
      "duration": 0.002,
      "velocity": 127,
      "chip": "ym2612"
    },
    {
      "channel": 1,
      "note": 49,
      "start": 8.9768,
      "duration": 0.0007,
      "velocity": 105,
      "chip": "ym2612"
    },
    {
      "channel": 0,
      "note": 54,
      "start": 8.9787,
      "duration": 0.053,
      "velocity": 109,
      "chip": "ym2612"
    },
    {
      "channel": 1,
      "note": 59,
      "start": 8.9791,
      "duration": 0.0527,
      "velocity": 105,
      "chip": "ym2612"
    },
    {
      "channel": 2,
      "note": 61,
      "start": 8.9795,
      "duration": 0.0524,
      "velocity": 105,
      "chip": "ym2612"
    },
    {
      "channel": 4,
      "note": 116,
      "start": 8.9799,
      "duration": 0.0845,
      "velocity": 127,
      "chip": "ym2612"
    },
    {
      "channel": 0,
      "note": 58,
      "start": 9.132,
      "duration": 0.1083,
      "velocity": 109,
      "chip": "ym2612"
    },
    {
      "channel": 1,
      "note": 49,
      "start": 9.1343,
      "duration": 0.0005,
      "velocity": 105,
      "chip": "ym2612"
    },
    {
      "channel": 1,
      "note": 59,
      "start": 9.2406,
      "duration": 0.0024,
      "velocity": 105,
      "chip": "ym2612"
    },
    {
      "channel": 2,
      "note": 61,
      "start": 9.241,
      "duration": 0.0021,
      "velocity": 105,
      "chip": "ym2612"
    },
    {
      "channel": 0,
      "note": 59,
      "start": 9.2444,
      "duration": 0.0073,
      "velocity": 109,
      "chip": "ym2612"
    },
    {
      "channel": 4,
      "note": 116,
      "start": 9.2448,
      "duration": 0.002,
      "velocity": 127,
      "chip": "ym2612"
    },
    {
      "channel": 1,
      "note": 49,
      "start": 9.2522,
      "duration": 0.002,
      "velocity": 105,
      "chip": "ym2612"
    },
    {
      "channel": 0,
      "note": 49,
      "start": 9.2567,
      "duration": 0.0029,
      "velocity": 109,
      "chip": "ym2612"
    },
    {
      "channel": 1,
      "note": 49,
      "start": 9.2571,
      "duration": 0.0016,
      "velocity": 105,
      "chip": "ym2612"
    },
    {
      "channel": 4,
      "note": 116,
      "start": 9.2575,
      "duration": 0.0017,
      "velocity": 127,
      "chip": "ym2612"
    },
    {
      "channel": 1,
      "note": 59,
      "start": 9.2604,
      "duration": 0.0014,
      "velocity": 105,
      "chip": "ym2612"
    },
    {
      "channel": 2,
      "note": 61,
      "start": 9.2608,
      "duration": 0.0011,
      "velocity": 105,
      "chip": "ym2612"
    },
    {
      "channel": 0,
      "note": 49,
      "start": 9.3293,
      "duration": 0.0225,
      "velocity": 109,
      "chip": "ym2612"
    },
    {
      "channel": 4,
      "note": 116,
      "start": 9.3297,
      "duration": 0.0012,
      "velocity": 127,
      "chip": "ym2612"
    },
    {
      "channel": 1,
      "note": 49,
      "start": 9.3317,
      "duration": 0.0203,
      "velocity": 105,
      "chip": "ym2612"
    },
    {
      "channel": 0,
      "note": 52,
      "start": 9.4204,
      "duration": 0.0035,
      "velocity": 109,
      "chip": "ym2612"
    },
    {
      "channel": 1,
      "note": 61,
      "start": 9.4208,
      "duration": 0.002,
      "velocity": 105,
      "chip": "ym2612"
    },
    {
      "channel": 2,
      "note": 59,
      "start": 9.4212,
      "duration": 0.0017,
      "velocity": 105,
      "chip": "ym2612"
    },
    {
      "channel": 4,
      "note": 116,
      "start": 9.4215,
      "duration": 0.0019,
      "velocity": 127,
      "chip": "ym2612"
    },
    {
      "channel": 0,
      "note": 49,
      "start": 9.4247,
      "duration": 0.002,
      "velocity": 109,
      "chip": "ym2612"
    },
    {
      "channel": 0,
      "note": 53,
      "start": 9.4279,
      "duration": 0.0019,
      "velocity": 109,
      "chip": "ym2612"
    },
    {
      "channel": 1,
      "note": 49,
      "start": 9.4283,
      "duration": 0.001,
      "velocity": 105,
      "chip": "ym2612"
    },
    {
      "channel": 4,
      "note": 116,
      "start": 9.4286,
      "duration": 0.0013,
      "velocity": 127,
      "chip": "ym2612"
    },
    {
      "channel": 1,
      "note": 59,
      "start": 9.4337,
      "duration": 0.0011,
      "velocity": 105,
      "chip": "ym2612"
    },
    {
      "channel": 2,
      "note": 61,
      "start": 9.4341,
      "duration": 0.0008,
      "velocity": 105,
      "chip": "ym2612"
    },
    {
      "channel": 0,
      "note": 54,
      "start": 9.4391,
      "duration": 0.0094,
      "velocity": 109,
      "chip": "ym2612"
    },
    {
      "channel": 4,
      "note": 116,
      "start": 9.4395,
      "duration": 0.002,
      "velocity": 127,
      "chip": "ym2612"
    },
    {
      "channel": 1,
      "note": 49,
      "start": 9.4465,
      "duration": 0.0022,
      "velocity": 105,
      "chip": "ym2612"
    },
    {
      "channel": 0,
      "note": 54,
      "start": 9.4499,
      "duration": 0.0023,
      "velocity": 109,
      "chip": "ym2612"
    },
    {
      "channel": 1,
      "note": 59,
      "start": 9.4504,
      "duration": 0.002,
      "velocity": 105,
      "chip": "ym2612"
    },
    {
      "channel": 2,
      "note": 61,
      "start": 9.4507,
      "duration": 0.0018,
      "velocity": 105,
      "chip": "ym2612"
    },
    {
      "channel": 4,
      "note": 116,
      "start": 9.4511,
      "duration": 0.002,
      "velocity": 127,
      "chip": "ym2612"
    },
    {
      "channel": 0,
      "note": 58,
      "start": 9.4543,
      "duration": 0.0065,
      "velocity": 109,
      "chip": "ym2612"
    },
    {
      "channel": 0,
      "note": 59,
      "start": 9.4621,
      "duration": 0.0076,
      "velocity": 109,
      "chip": "ym2612"
    },
    {
      "channel": 4,
      "note": 116,
      "start": 9.4624,
      "duration": 0.0012,
      "velocity": 127,
      "chip": "ym2612"
    },
    {
      "channel": 0,
      "note": 49,
      "start": 9.4714,
      "duration": 0.0068,
      "velocity": 109,
      "chip": "ym2612"
    },
    {
      "channel": 1,
      "note": 49,
      "start": 9.4719,
      "duration": 0.0023,
      "velocity": 105,
      "chip": "ym2612"
    },
    {
      "channel": 4,
      "note": 116,
      "start": 9.4722,
      "duration": 0.0025,
      "velocity": 127,
      "chip": "ym2612"
    },
    {
      "channel": 1,
      "note": 61,
      "start": 9.4787,
      "duration": 0.0158,
      "velocity": 105,
      "chip": "ym2612"
    },
    {
      "channel": 2,
      "note": 59,
      "start": 9.4791,
      "duration": 0.0155,
      "velocity": 105,
      "chip": "ym2612"
    },
    {
      "channel": 0,
      "note": 49,
      "start": 9.5616,
      "duration": 0.0824,
      "velocity": 109,
      "chip": "ym2612"
    },
    {
      "channel": 4,
      "note": 116,
      "start": 9.562,
      "duration": 0.1153,
      "velocity": 127,
      "chip": "ym2612"
    },
    {
      "channel": 0,
      "note": 49,
      "start": 9.7449,
      "duration": 0.049,
      "velocity": 109,
      "chip": "ym2612"
    },
    {
      "channel": 1,
      "note": 49,
      "start": 9.7453,
      "duration": 0.0154,
      "velocity": 105,
      "chip": "ym2612"
    },
    {
      "channel": 0,
      "note": 52,
      "start": 9.8296,
      "duration": 0.0035,
      "velocity": 109,
      "chip": "ym2612"
    },
    {
      "channel": 1,
      "note": 59,
      "start": 9.83,
      "duration": 0.002,
      "velocity": 105,
      "chip": "ym2612"
    },
    {
      "channel": 2,
      "note": 61,
      "start": 9.8305,
      "duration": 0.0017,
      "velocity": 105,
      "chip": "ym2612"
    },
    {
      "channel": 4,
      "note": 116,
      "start": 9.8308,
      "duration": 0.0019,
      "velocity": 127,
      "chip": "ym2612"
    },
    {
      "channel": 0,
      "note": 49,
      "start": 9.8339,
      "duration": 0.0499,
      "velocity": 109,
      "chip": "ym2612"
    },
    {
      "channel": 0,
      "note": 53,
      "start": 9.9024,
      "duration": 0.0033,
      "velocity": 109,
      "chip": "ym2612"
    },
    {
      "channel": 1,
      "note": 49,
      "start": 9.9028,
      "duration": 0.0024,
      "velocity": 105,
      "chip": "ym2612"
    },
    {
      "channel": 4,
      "note": 116,
      "start": 9.9032,
      "duration": 0.003,
      "velocity": 127,
      "chip": "ym2612"
    },
    {
      "channel": 1,
      "note": 59,
      "start": 9.9262,
      "duration": 0.0011,
      "velocity": 105,
      "chip": "ym2612"
    },
    {
      "channel": 2,
      "note": 61,
      "start": 9.9266,
      "duration": 0.0008,
      "velocity": 105,
      "chip": "ym2612"
    },
    {
      "channel": 0,
      "note": 54,
      "start": 9.9282,
      "duration": 0.0073,
      "velocity": 109,
      "chip": "ym2612"
    },
    {
      "channel": 4,
      "note": 116,
      "start": 9.9285,
      "duration": 0.002,
      "velocity": 127,
      "chip": "ym2612"
    },
    {
      "channel": 1,
      "note": 49,
      "start": 9.9359,
      "duration": 0.0007,
      "velocity": 105,
      "chip": "ym2612"
    },
    {
      "channel": 0,
      "note": 54,
      "start": 9.9377,
      "duration": 0.053,
      "velocity": 109,
      "chip": "ym2612"
    },
    {
      "channel": 1,
      "note": 59,
      "start": 9.9382,
      "duration": 0.0527,
      "velocity": 105,
      "chip": "ym2612"
    },
    {
      "channel": 2,
      "note": 61,
      "start": 9.9385,
      "duration": 0.0524,
      "velocity": 105,
      "chip": "ym2612"
    },
    {
      "channel": 4,
      "note": 116,
      "start": 9.9389,
      "duration": 0.0701,
      "velocity": 127,
      "chip": "ym2612"
    },
    {
      "channel": 0,
      "note": 58,
      "start": 10.0097,
      "duration": 0.0025,
      "velocity": 109,
      "chip": "ym2612"
    },
    {
      "channel": 1,
      "note": 49,
      "start": 10.0107,
      "duration": 0.0007,
      "velocity": 105,
      "chip": "ym2612"
    },
    {
      "channel": 1,
      "note": 59,
      "start": 10.0126,
      "duration": 0.0021,
      "velocity": 105,
      "chip": "ym2612"
    },
    {
      "channel": 2,
      "note": 61,
      "start": 10.013,
      "duration": 0.0018,
      "velocity": 105,
      "chip": "ym2612"
    },
    {
      "channel": 0,
      "note": 59,
      "start": 10.016,
      "duration": 0.0239,
      "velocity": 109,
      "chip": "ym2612"
    },
    {
      "channel": 4,
      "note": 116,
      "start": 10.0163,
      "duration": 0.002,
      "velocity": 127,
      "chip": "ym2612"
    },
    {
      "channel": 1,
      "note": 49,
      "start": 10.0403,
      "duration": 0.002,
      "velocity": 105,
      "chip": "ym2612"
    },
    {
      "channel": 0,
      "note": 49,
      "start": 10.0435,
      "duration": 0.0024,
      "velocity": 109,
      "chip": "ym2612"
    },
    {
      "channel": 1,
      "note": 49,
      "start": 10.0439,
      "duration": 0.001,
      "velocity": 105,
      "chip": "ym2612"
    },
    {
      "channel": 4,
      "note": 116,
      "start": 10.0443,
      "duration": 0.0011,
      "velocity": 127,
      "chip": "ym2612"
    },
    {
      "channel": 1,
      "note": 59,
      "start": 10.0489,
      "duration": 0.0162,
      "velocity": 105,
      "chip": "ym2612"
    },
    {
      "channel": 2,
      "note": 61,
      "start": 10.0493,
      "duration": 0.016,
      "velocity": 105,
      "chip": "ym2612"
    },
    {
      "channel": 0,
      "note": 49,
      "start": 10.1327,
      "duration": 0.0402,
      "velocity": 109,
      "chip": "ym2612"
    },
    {
      "channel": 4,
      "note": 116,
      "start": 10.1331,
      "duration": 0.002,
      "velocity": 127,
      "chip": "ym2612"
    },
    {
      "channel": 1,
      "note": 49,
      "start": 10.1563,
      "duration": 0.0168,
      "velocity": 105,
      "chip": "ym2612"
    },
    {
      "channel": 0,
      "note": 52,
      "start": 10.2415,
      "duration": 0.0035,
      "velocity": 109,
      "chip": "ym2612"
    },
    {
      "channel": 1,
      "note": 61,
      "start": 10.2418,
      "duration": 0.002,
      "velocity": 105,
      "chip": "ym2612"
    },
    {
      "channel": 2,
      "note": 59,
      "start": 10.2423,
      "duration": 0.0017,
      "velocity": 105,
      "chip": "ym2612"
    },
    {
      "channel": 4,
      "note": 116,
      "start": 10.2426,
      "duration": 0.0019,
      "velocity": 127,
      "chip": "ym2612"
    },
    {
      "channel": 0,
      "note": 49,
      "start": 10.2458,
      "duration": 0.0332,
      "velocity": 109,
      "chip": "ym2612"
    },
    {
      "channel": 0,
      "note": 53,
      "start": 10.3141,
      "duration": 0.0033,
      "velocity": 109,
      "chip": "ym2612"
    },
    {
      "channel": 1,
      "note": 49,
      "start": 10.3146,
      "duration": 0.0024,
      "velocity": 105,
      "chip": "ym2612"
    },
    {
      "channel": 4,
      "note": 116,
      "start": 10.3149,
      "duration": 0.0027,
      "velocity": 127,
      "chip": "ym2612"
    },
    {
      "channel": 1,
      "note": 59,
      "start": 10.3382,
      "duration": 0.0011,
      "velocity": 105,
      "chip": "ym2612"
    },
    {
      "channel": 2,
      "note": 61,
      "start": 10.3385,
      "duration": 0.0008,
      "velocity": 105,
      "chip": "ym2612"
    },
    {
      "channel": 0,
      "note": 54,
      "start": 10.3401,
      "duration": 0.008,
      "velocity": 109,
      "chip": "ym2612"
    },
    {
      "channel": 4,
      "note": 116,
      "start": 10.3405,
      "duration": 0.002,
      "velocity": 127,
      "chip": "ym2612"
    },
    {
      "channel": 1,
      "note": 49,
      "start": 10.3474,
      "duration": 0.0009,
      "velocity": 105,
      "chip": "ym2612"
    },
    {
      "channel": 0,
      "note": 54,
      "start": 10.3491,
      "duration": 0.0532,
      "velocity": 109,
      "chip": "ym2612"
    },
    {
      "channel": 1,
      "note": 59,
      "start": 10.3495,
      "duration": 0.0529,
      "velocity": 105,
      "chip": "ym2612"
    },
    {
      "channel": 2,
      "note": 61,
      "start": 10.3499,
      "duration": 0.0526,
      "velocity": 105,
      "chip": "ym2612"
    },
    {
      "channel": 4,
      "note": 116,
      "start": 10.3502,
      "duration": 0.1014,
      "velocity": 127,
      "chip": "ym2612"
    },
    {
      "channel": 0,
      "note": 58,
      "start": 10.5192,
      "duration": 0.0046,
      "velocity": 109,
      "chip": "ym2612"
    },
    {
      "channel": 0,
      "note": 59,
      "start": 10.5252,
      "duration": 0.0251,
      "velocity": 109,
      "chip": "ym2612"
    },
    {
      "channel": 4,
      "note": 116,
      "start": 10.5255,
      "duration": 0.002,
      "velocity": 127,
      "chip": "ym2612"
    },
    {
      "channel": 0,
      "note": 49,
      "start": 10.5514,
      "duration": 0.0055,
      "velocity": 109,
      "chip": "ym2612"
    },
    {
      "channel": 1,
      "note": 49,
      "start": 10.5517,
      "duration": 0.001,
      "velocity": 105,
      "chip": "ym2612"
    },
    {
      "channel": 4,
      "note": 116,
      "start": 10.5521,
      "duration": 0.0012,
      "velocity": 127,
      "chip": "ym2612"
    },
    {
      "channel": 1,
      "note": 61,
      "start": 10.5573,
      "duration": 0.0324,
      "velocity": 105,
      "chip": "ym2612"
    },
    {
      "channel": 2,
      "note": 59,
      "start": 10.5577,
      "duration": 0.0322,
      "velocity": 105,
      "chip": "ym2612"
    },
    {
      "channel": 0,
      "note": 49,
      "start": 10.6406,
      "duration": 0.0024,
      "velocity": 109,
      "chip": "ym2612"
    },
    {
      "channel": 4,
      "note": 116,
      "start": 10.641,
      "duration": 0.0025,
      "velocity": 127,
      "chip": "ym2612"
    },
    {
      "channel": 0,
      "note": 49,
      "start": 10.6646,
      "duration": 0.0657,
      "velocity": 109,
      "chip": "ym2612"
    },
    {
      "channel": 1,
      "note": 49,
      "start": 10.6649,
      "duration": 0.0156,
      "velocity": 105,
      "chip": "ym2612"
    },
    {
      "channel": 0,
      "note": 52,
      "start": 10.7493,
      "duration": 0.0035,
      "velocity": 109,
      "chip": "ym2612"
    },
    {
      "channel": 1,
      "note": 59,
      "start": 10.7497,
      "duration": 0.002,
      "velocity": 105,
      "chip": "ym2612"
    },
    {
      "channel": 2,
      "note": 61,
      "start": 10.7501,
      "duration": 0.0017,
      "velocity": 105,
      "chip": "ym2612"
    },
    {
      "channel": 4,
      "note": 116,
      "start": 10.7505,
      "duration": 0.0018,
      "velocity": 127,
      "chip": "ym2612"
    },
    {
      "channel": 0,
      "note": 49,
      "start": 10.7536,
      "duration": 0.0499,
      "velocity": 109,
      "chip": "ym2612"
    },
    {
      "channel": 0,
      "note": 53,
      "start": 10.8387,
      "duration": 0.0033,
      "velocity": 109,
      "chip": "ym2612"
    },
    {
      "channel": 1,
      "note": 49,
      "start": 10.8391,
      "duration": 0.0024,
      "velocity": 105,
      "chip": "ym2612"
    },
    {
      "channel": 4,
      "note": 116,
      "start": 10.8394,
      "duration": 0.003,
      "velocity": 127,
      "chip": "ym2612"
    },
    {
      "channel": 1,
      "note": 59,
      "start": 10.8459,
      "duration": 0.0011,
      "velocity": 105,
      "chip": "ym2612"
    },
    {
      "channel": 2,
      "note": 61,
      "start": 10.8463,
      "duration": 0.0008,
      "velocity": 105,
      "chip": "ym2612"
    },
    {
      "channel": 0,
      "note": 54,
      "start": 10.848,
      "duration": 0.0073,
      "velocity": 109,
      "chip": "ym2612"
    },
    {
      "channel": 4,
      "note": 116,
      "start": 10.8483,
      "duration": 0.002,
      "velocity": 127,
      "chip": "ym2612"
    },
    {
      "channel": 1,
      "note": 49,
      "start": 10.8557,
      "duration": 0.0007,
      "velocity": 105,
      "chip": "ym2612"
    },
    {
      "channel": 0,
      "note": 54,
      "start": 10.8617,
      "duration": 0.0487,
      "velocity": 109,
      "chip": "ym2612"
    },
    {
      "channel": 1,
      "note": 59,
      "start": 10.8621,
      "duration": 0.0484,
      "velocity": 105,
      "chip": "ym2612"
    },
    {
      "channel": 2,
      "note": 61,
      "start": 10.8625,
      "duration": 0.0481,
      "velocity": 105,
      "chip": "ym2612"
    },
    {
      "channel": 4,
      "note": 116,
      "start": 10.8629,
      "duration": 0.0969,
      "velocity": 127,
      "chip": "ym2612"
    },
    {
      "channel": 0,
      "note": 58,
      "start": 11.0273,
      "duration": 0.0039,
      "velocity": 109,
      "chip": "ym2612"
    },
    {
      "channel": 1,
      "note": 49,
      "start": 11.0296,
      "duration": 0.0007,
      "velocity": 105,
      "chip": "ym2612"
    },
    {
      "channel": 1,
      "note": 59,
      "start": 11.0317,
      "duration": 0.0021,
      "velocity": 105,
      "chip": "ym2612"
    },
    {
      "channel": 2,
      "note": 61,
      "start": 11.032,
      "duration": 0.0018,
      "velocity": 105,
      "chip": "ym2612"
    },
    {
      "channel": 0,
      "note": 59,
      "start": 11.0346,
      "duration": 0.0073,
      "velocity": 109,
      "chip": "ym2612"
    },
    {
      "channel": 4,
      "note": 116,
      "start": 11.035,
      "duration": 0.002,
      "velocity": 127,
      "chip": "ym2612"
    },
    {
      "channel": 1,
      "note": 49,
      "start": 11.0424,
      "duration": 0.002,
      "velocity": 105,
      "chip": "ym2612"
    },
    {
      "channel": 0,
      "note": 49,
      "start": 11.0455,
      "duration": 0.0024,
      "velocity": 109,
      "chip": "ym2612"
    },
    {
      "channel": 1,
      "note": 49,
      "start": 11.0459,
      "duration": 0.001,
      "velocity": 105,
      "chip": "ym2612"
    },
    {
      "channel": 4,
      "note": 116,
      "start": 11.0463,
      "duration": 0.0012,
      "velocity": 127,
      "chip": "ym2612"
    },
    {
      "channel": 1,
      "note": 59,
      "start": 11.0509,
      "duration": 0.0329,
      "velocity": 105,
      "chip": "ym2612"
    },
    {
      "channel": 2,
      "note": 61,
      "start": 11.0513,
      "duration": 0.0326,
      "velocity": 105,
      "chip": "ym2612"
    },
    {
      "channel": 0,
      "note": 49,
      "start": 11.1514,
      "duration": 0.0059,
      "velocity": 109,
      "chip": "ym2612"
    },
    {
      "channel": 4,
      "note": 116,
      "start": 11.1517,
      "duration": 0.0012,
      "velocity": 127,
      "chip": "ym2612"
    },
    {
      "channel": 1,
      "note": 49,
      "start": 11.1537,
      "duration": 0.0037,
      "velocity": 105,
      "chip": "ym2612"
    },
    {
      "channel": 0,
      "note": 52,
      "start": 11.2258,
      "duration": 0.0035,
      "velocity": 109,
      "chip": "ym2612"
    },
    {
      "channel": 1,
      "note": 61,
      "start": 11.2262,
      "duration": 0.002,
      "velocity": 105,
      "chip": "ym2612"
    },
    {
      "channel": 2,
      "note": 59,
      "start": 11.2266,
      "duration": 0.0017,
      "velocity": 105,
      "chip": "ym2612"
    },
    {
      "channel": 4,
      "note": 116,
      "start": 11.2269,
      "duration": 0.0019,
      "velocity": 127,
      "chip": "ym2612"
    },
    {
      "channel": 0,
      "note": 49,
      "start": 11.2301,
      "duration": 0.0332,
      "velocity": 109,
      "chip": "ym2612"
    },
    {
      "channel": 0,
      "note": 53,
      "start": 11.3151,
      "duration": 0.0033,
      "velocity": 109,
      "chip": "ym2612"
    },
    {
      "channel": 1,
      "note": 49,
      "start": 11.3156,
      "duration": 0.0024,
      "velocity": 105,
      "chip": "ym2612"
    },
    {
      "channel": 4,
      "note": 116,
      "start": 11.3159,
      "duration": 0.0026,
      "velocity": 127,
      "chip": "ym2612"
    },
    {
      "channel": 1,
      "note": 59,
      "start": 11.3224,
      "duration": 0.0011,
      "velocity": 105,
      "chip": "ym2612"
    },
    {
      "channel": 2,
      "note": 61,
      "start": 11.3228,
      "duration": 0.0009,
      "velocity": 105,
      "chip": "ym2612"
    },
    {
      "channel": 0,
      "note": 54,
      "start": 11.3245,
      "duration": 0.0246,
      "velocity": 109,
      "chip": "ym2612"
    },
    {
      "channel": 4,
      "note": 116,
      "start": 11.3248,
      "duration": 0.002,
      "velocity": 127,
      "chip": "ym2612"
    },
    {
      "channel": 1,
      "note": 49,
      "start": 11.3484,
      "duration": 0.0009,
      "velocity": 105,
      "chip": "ym2612"
    },
    {
      "channel": 0,
      "note": 54,
      "start": 11.35,
      "duration": 0.0533,
      "velocity": 109,
      "chip": "ym2612"
    },
    {
      "channel": 1,
      "note": 59,
      "start": 11.3505,
      "duration": 0.053,
      "velocity": 105,
      "chip": "ym2612"
    },
    {
      "channel": 2,
      "note": 61,
      "start": 11.3508,
      "duration": 0.0527,
      "velocity": 105,
      "chip": "ym2612"
    },
    {
      "channel": 4,
      "note": 116,
      "start": 11.3512,
      "duration": 0.0703,
      "velocity": 127,
      "chip": "ym2612"
    },
    {
      "channel": 0,
      "note": 58,
      "start": 11.4222,
      "duration": 0.0096,
      "velocity": 109,
      "chip": "ym2612"
    },
    {
      "channel": 0,
      "note": 59,
      "start": 11.4332,
      "duration": 0.0085,
      "velocity": 109,
      "chip": "ym2612"
    },
    {
      "channel": 4,
      "note": 116,
      "start": 11.4336,
      "duration": 0.002,
      "velocity": 127,
      "chip": "ym2612"
    },
    {
      "channel": 0,
      "note": 51,
      "start": 11.445,
      "duration": 0.0036,
      "velocity": 109,
      "chip": "ym2612"
    },
    {
      "channel": 1,
      "note": 66,
      "start": 11.4454,
      "duration": 0.0034,
      "velocity": 105,
      "chip": "ym2612"
    },
    {
      "channel": 2,
      "note": 56,
      "start": 11.4458,
      "duration": 0.0031,
      "velocity": 105,
      "chip": "ym2612"
    },
    {
      "channel": 3,
      "note": 61,
      "start": 11.4463,
      "duration": 0.0028,
      "velocity": 105,
      "chip": "ym2612"
    },
    {
      "channel": 4,
      "note": 116,
      "start": 11.4466,
      "duration": 0.0009,
      "velocity": 127,
      "chip": "ym2612"
    },
    {
      "channel": 0,
      "note": 49,
      "start": 11.4498,
      "duration": 0.071,
      "velocity": 109,
      "chip": "ym2612"
    },
    {
      "channel": 1,
      "note": 25,
      "start": 11.4502,
      "duration": 0.0707,
      "velocity": 105,
      "chip": "ym2612"
    },
    {
      "channel": 4,
      "note": 116,
      "start": 11.4505,
      "duration": 0.0012,
      "velocity": 127,
      "chip": "ym2612"
    },
    {
      "channel": 4,
      "note": 116,
      "start": 11.5213,
      "duration": 0.0035,
      "velocity": 127,
      "chip": "ym2612"
    },
    {
      "channel": 4,
      "note": 116,
      "start": 11.6173,
      "duration": 0.0006,
      "velocity": 127,
      "chip": "ym2612"
    },
    {
      "channel": 4,
      "note": 116,
      "start": 11.6432,
      "duration": 0.0039,
      "velocity": 127,
      "chip": "ym2612"
    },
    {
      "channel": 0,
      "note": 51,
      "start": 11.6627,
      "duration": 0.0046,
      "velocity": 109,
      "chip": "ym2612"
    },
    {
      "channel": 1,
      "note": 66,
      "start": 11.6631,
      "duration": 0.0043,
      "velocity": 105,
      "chip": "ym2612"
    },
    {
      "channel": 2,
      "note": 56,
      "start": 11.6635,
      "duration": 0.0041,
      "velocity": 105,
      "chip": "ym2612"
    },
    {
      "channel": 3,
      "note": 61,
      "start": 11.6639,
      "duration": 0.0038,
      "velocity": 105,
      "chip": "ym2612"
    },
    {
      "channel": 4,
      "note": 116,
      "start": 11.6642,
      "duration": 0.0013,
      "velocity": 127,
      "chip": "ym2612"
    },
    {
      "channel": 0,
      "note": 49,
      "start": 11.6701,
      "duration": 0.0675,
      "velocity": 109,
      "chip": "ym2612"
    },
    {
      "channel": 1,
      "note": 25,
      "start": 11.6705,
      "duration": 0.0672,
      "velocity": 105,
      "chip": "ym2612"
    },
    {
      "channel": 4,
      "note": 116,
      "start": 11.7381,
      "duration": 0.003,
      "velocity": 127,
      "chip": "ym2612"
    },
    {
      "channel": 4,
      "note": 116,
      "start": 11.8341,
      "duration": 0.0007,
      "velocity": 127,
      "chip": "ym2612"
    },
    {
      "channel": 4,
      "note": 116,
      "start": 11.86,
      "duration": 0.0033,
      "velocity": 127,
      "chip": "ym2612"
    },
    {
      "channel": 0,
      "note": 51,
      "start": 11.8827,
      "duration": 0.0037,
      "velocity": 109,
      "chip": "ym2612"
    },
    {
      "channel": 1,
      "note": 66,
      "start": 11.8831,
      "duration": 0.0034,
      "velocity": 105,
      "chip": "ym2612"
    },
    {
      "channel": 2,
      "note": 56,
      "start": 11.8835,
      "duration": 0.0031,
      "velocity": 105,
      "chip": "ym2612"
    },
    {
      "channel": 3,
      "note": 61,
      "start": 11.8839,
      "duration": 0.0028,
      "velocity": 105,
      "chip": "ym2612"
    },
    {
      "channel": 4,
      "note": 116,
      "start": 11.8842,
      "duration": 0.0013,
      "velocity": 127,
      "chip": "ym2612"
    },
    {
      "channel": 0,
      "note": 49,
      "start": 11.8879,
      "duration": 0.0841,
      "velocity": 109,
      "chip": "ym2612"
    },
    {
      "channel": 1,
      "note": 25,
      "start": 11.8883,
      "duration": 0.0839,
      "velocity": 105,
      "chip": "ym2612"
    },
    {
      "channel": 4,
      "note": 116,
      "start": 11.9726,
      "duration": 0.0014,
      "velocity": 127,
      "chip": "ym2612"
    },
    {
      "channel": 4,
      "note": 116,
      "start": 11.9991,
      "duration": 0.0007,
      "velocity": 127,
      "chip": "ym2612"
    },
    {
      "channel": 4,
      "note": 116,
      "start": 12.0082,
      "duration": 0.0033,
      "velocity": 127,
      "chip": "ym2612"
    },
    {
      "channel": 0,
      "note": 51,
      "start": 12.0244,
      "duration": 0.002,
      "velocity": 109,
      "chip": "ym2612"
    },
    {
      "channel": 4,
      "note": 116,
      "start": 12.0247,
      "duration": 0.0009,
      "velocity": 127,
      "chip": "ym2612"
    },
    {
      "channel": 0,
      "note": 49,
      "start": 12.0272,
      "duration": 0.0895,
      "velocity": 109,
      "chip": "ym2612"
    },
    {
      "channel": 4,
      "note": 116,
      "start": 12.0276,
      "duration": 0.0012,
      "velocity": 127,
      "chip": "ym2612"
    },
    {
      "channel": 4,
      "note": 116,
      "start": 12.9751,
      "duration": 0.002,
      "velocity": 127,
      "chip": "ym2612"
    },
    {
      "channel": 0,
      "note": 51,
      "start": 13.0027,
      "duration": 0.0021,
      "velocity": 109,
      "chip": "ym2612"
    },
    {
      "channel": 4,
      "note": 116,
      "start": 13.003,
      "duration": 0.0009,
      "velocity": 127,
      "chip": "ym2612"
    },
    {
      "channel": 0,
      "note": 55,
      "start": 13.0056,
      "duration": 0.0014,
      "velocity": 109,
      "chip": "ym2612"
    },
    {
      "channel": 4,
      "note": 116,
      "start": 13.0059,
      "duration": 0.0007,
      "velocity": 127,
      "chip": "ym2612"
    },
    {
      "channel": 0,
      "note": 58,
      "start": 13.0081,
      "duration": 0.0005,
      "velocity": 109,
      "chip": "ym2612"
    }
  ]
}