{
  "track_name": "04 - Stained Glass",
  "duration_sec": 64.086,
  "sample_rate": 44100,
  "note_count": 462,
  "unique_pitches": 23,
  "pitch_range": 47,
  "avg_note_duration": 0.8103,
  "reconstruction_stats": {
    "notes_reconstructed": 462,
    "keyon_events": 462,
    "keyoff_events": 456,
    "orphan_keyons": 6,
    "unique_pitches": 23,
    "pitch_range": 47,
    "avg_duration_sec": 0.8103
  },
  "metadata": {
    "source": "M\\Mirage 2\\04 - Stained Glass.vgz"
  },
  "notes": [
    {
      "channel": 0,
      "note": 68,
      "start": 0.0029,
      "duration": 0.6567,
      "velocity": 83,
      "chip": "ym2612"
    },
    {
      "channel": 2,
      "note": 44,
      "start": 0.0045,
      "duration": 1.3152,
      "velocity": 106,
      "chip": "ym2612"
    },
    {
      "channel": 3,
      "note": 44,
      "start": 0.0061,
      "duration": 1.3137,
      "velocity": 106,
      "chip": "ym2612"
    },
    {
      "channel": 4,
      "note": 72,
      "start": 0.0079,
      "duration": 1.312,
      "velocity": 81,
      "chip": "ym2612"
    },
    {
      "channel": 1,
      "note": 68,
      "start": 0.496,
      "duration": 0.6519,
      "velocity": 79,
      "chip": "ym2612"
    },
    {
      "channel": 5,
      "note": 72,
      "start": 0.4975,
      "duration": 1.3105,
      "velocity": 78,
      "chip": "ym2612"
    },
    {
      "channel": 0,
      "note": 75,
      "start": 0.6602,
      "duration": 0.6527,
      "velocity": 83,
      "chip": "ym2612"
    },
    {
      "channel": 1,
      "note": 75,
      "start": 1.1551,
      "duration": 0.6528,
      "velocity": 79,
      "chip": "ym2612"
    },
    {
      "channel": 0,
      "note": 73,
      "start": 1.3205,
      "duration": 0.6525,
      "velocity": 83,
      "chip": "ym2612"
    },
    {
      "channel": 2,
      "note": 42,
      "start": 1.321,
      "duration": 1.3156,
      "velocity": 106,
      "chip": "ym2612"
    },
    {
      "channel": 3,
      "note": 42,
      "start": 1.3214,
      "duration": 1.3152,
      "velocity": 106,
      "chip": "ym2612"
    },
    {
      "channel": 4,
      "note": 70,
      "start": 1.322,
      "duration": 1.3148,
      "velocity": 81,
      "chip": "ym2612"
    },
    {
      "channel": 1,
      "note": 73,
      "start": 1.8152,
      "duration": 0.6562,
      "velocity": 79,
      "chip": "ym2612"
    },
    {
      "channel": 5,
      "note": 70,
      "start": 1.8158,
      "duration": 1.3159,
      "velocity": 78,
      "chip": "ym2612"
    },
    {
      "channel": 0,
      "note": 72,
      "start": 1.9802,
      "duration": 0.3267,
      "velocity": 83,
      "chip": "ym2612"
    },
    {
      "channel": 0,
      "note": 70,
      "start": 2.3137,
      "duration": 0.3228,
      "velocity": 83,
      "chip": "ym2612"
    },
    {
      "channel": 1,
      "note": 72,
      "start": 2.4787,
      "duration": 0.3228,
      "velocity": 79,
      "chip": "ym2612"
    },
    {
      "channel": 0,
      "note": 70,
      "start": 2.6437,
      "duration": 0.6529,
      "velocity": 83,
      "chip": "ym2612"
    },
    {
      "channel": 2,
      "note": 41,
      "start": 2.6442,
      "duration": 1.3125,
      "velocity": 106,
      "chip": "ym2612"
    },
    {
      "channel": 3,
      "note": 41,
      "start": 2.6447,
      "duration": 1.3121,
      "velocity": 106,
      "chip": "ym2612"
    },
    {
      "channel": 4,
      "note": 73,
      "start": 2.6452,
      "duration": 1.3117,
      "velocity": 81,
      "chip": "ym2612"
    },
    {
      "channel": 1,
      "note": 70,
      "start": 2.8088,
      "duration": 0.3227,
      "velocity": 79,
      "chip": "ym2612"
    },
    {
      "channel": 1,
      "note": 70,
      "start": 3.1388,
      "duration": 0.6529,
      "velocity": 79,
      "chip": "ym2612"
    },
    {
      "channel": 5,
      "note": 73,
      "start": 3.1393,
      "duration": 1.3125,
      "velocity": 78,
      "chip": "ym2612"
    },
    {
      "channel": 0,
      "note": 72,
      "start": 3.3039,
      "duration": 0.3227,
      "velocity": 83,
      "chip": "ym2612"
    },
    {
      "channel": 0,
      "note": 73,
      "start": 3.6339,
      "duration": 0.3227,
      "velocity": 83,
      "chip": "ym2612"
    },
    {
      "channel": 1,
      "note": 72,
      "start": 3.7991,
      "duration": 0.3225,
      "velocity": 79,
      "chip": "ym2612"
    },
    {
      "channel": 0,
      "note": 72,
      "start": 3.9639,
      "duration": 0.6528,
      "velocity": 83,
      "chip": "ym2612"
    },
    {
      "channel": 2,
      "note": 40,
      "start": 3.9644,
      "duration": 1.3125,
      "velocity": 106,
      "chip": "ym2612"
    },
    {
      "channel": 3,
      "note": 40,
      "start": 3.9649,
      "duration": 1.3121,
      "velocity": 106,
      "chip": "ym2612"
    },
    {
      "channel": 4,
      "note": 79,
      "start": 3.9654,
      "duration": 1.3117,
      "velocity": 81,
      "chip": "ym2612"
    },
    {
      "channel": 1,
      "note": 73,
      "start": 4.129,
      "duration": 0.3227,
      "velocity": 79,
      "chip": "ym2612"
    },
    {
      "channel": 1,
      "note": 72,
      "start": 4.459,
      "duration": 0.6528,
      "velocity": 79,
      "chip": "ym2612"
    },
    {
      "channel": 5,
      "note": 79,
      "start": 4.4595,
      "duration": 1.3124,
      "velocity": 78,
      "chip": "ym2612"
    },
    {
      "channel": 0,
      "note": 70,
      "start": 4.624,
      "duration": 0.6528,
      "velocity": 83,
      "chip": "ym2612"
    },
    {
      "channel": 1,
      "note": 70,
      "start": 5.1191,
      "duration": 0.6528,
      "velocity": 79,
      "chip": "ym2612"
    },
    {
      "channel": 0,
      "note": 68,
      "start": 5.2841,
      "duration": 0.6527,
      "velocity": 83,
      "chip": "ym2612"
    },
    {
      "channel": 2,
      "note": 41,
      "start": 5.2846,
      "duration": 1.3126,
      "velocity": 106,
      "chip": "ym2612"
    },
    {
      "channel": 3,
      "note": 41,
      "start": 5.2851,
      "duration": 1.3122,
      "velocity": 106,
      "chip": "ym2612"
    },
    {
      "channel": 4,
      "note": 72,
      "start": 5.2856,
      "duration": 1.3117,
      "velocity": 81,
      "chip": "ym2612"
    },
    {
      "channel": 1,
      "note": 68,
      "start": 5.7792,
      "duration": 0.6528,
      "velocity": 79,
      "chip": "ym2612"
    },
    {
      "channel": 5,
      "note": 72,
      "start": 5.7797,
      "duration": 1.3124,
      "velocity": 78,
      "chip": "ym2612"
    },
    {
      "channel": 0,
      "note": 65,
      "start": 5.9442,
      "duration": 0.3228,
      "velocity": 83,
      "chip": "ym2612"
    },
    {
      "channel": 0,
      "note": 67,
      "start": 6.2742,
      "duration": 0.3228,
      "velocity": 83,
      "chip": "ym2612"
    },
    {
      "channel": 1,
      "note": 65,
      "start": 6.4393,
      "duration": 0.3232,
      "velocity": 79,
      "chip": "ym2612"
    },
    {
      "channel": 0,
      "note": 68,
      "start": 6.6043,
      "duration": 0.6529,
      "velocity": 83,
      "chip": "ym2612"
    },
    {
      "channel": 2,
      "note": 42,
      "start": 6.6048,
      "duration": 1.3195,
      "velocity": 106,
      "chip": "ym2612"
    },
    {
      "channel": 3,
      "note": 42,
      "start": 6.6053,
      "duration": 1.3191,
      "velocity": 106,
      "chip": "ym2612"
    },
    {
      "channel": 4,
      "note": 73,
      "start": 6.6058,
      "duration": 1.3186,
      "velocity": 81,
      "chip": "ym2612"
    },
    {
      "channel": 1,
      "note": 67,
      "start": 6.7693,
      "duration": 0.3227,
      "velocity": 79,
      "chip": "ym2612"
    },
    {
      "channel": 1,
      "note": 68,
      "start": 7.0995,
      "duration": 0.6561,
      "velocity": 79,
      "chip": "ym2612"
    },
    {
      "channel": 5,
      "note": 73,
      "start": 7.1,
      "duration": 1.3192,
      "velocity": 78,
      "chip": "ym2612"
    },
    {
      "channel": 0,
      "note": 70,
      "start": 7.2645,
      "duration": 0.3261,
      "velocity": 83,
      "chip": "ym2612"
    },
    {
      "channel": 0,
      "note": 72,
      "start": 7.598,
      "duration": 0.3262,
      "velocity": 83,
      "chip": "ym2612"
    },
    {
      "channel": 1,
      "note": 70,
      "start": 7.7631,
      "duration": 0.3261,
      "velocity": 79,
      "chip": "ym2612"
    },
    {
      "channel": 0,
      "note": 70,
      "start": 7.9315,
      "duration": 1.3129,
      "velocity": 83,
      "chip": "ym2612"
    },
    {
      "channel": 2,
      "note": 43,
      "start": 7.932,
      "duration": 1.3124,
      "velocity": 106,
      "chip": "ym2612"
    },
    {
      "channel": 3,
      "note": 43,
      "start": 7.9327,
      "duration": 1.3118,
      "velocity": 106,
      "chip": "ym2612"
    },
    {
      "channel": 4,
      "note": 75,
      "start": 7.9332,
      "duration": 1.3114,
      "velocity": 81,
      "chip": "ym2612"
    },
    {
      "channel": 1,
      "note": 72,
      "start": 8.0964,
      "duration": 0.3227,
      "velocity": 79,
      "chip": "ym2612"
    },
    {
      "channel": 1,
      "note": 70,
      "start": 8.4264,
      "duration": 1.313,
      "velocity": 79,
      "chip": "ym2612"
    },
    {
      "channel": 5,
      "note": 75,
      "start": 8.427,
      "duration": 1.3126,
      "velocity": 78,
      "chip": "ym2612"
    },
    {
      "channel": 0,
      "note": 68,
      "start": 9.2517,
      "duration": 0.6527,
      "velocity": 83,
      "chip": "ym2612"
    },
    {
      "channel": 2,
      "note": 41,
      "start": 9.2521,
      "duration": 0.6523,
      "velocity": 106,
      "chip": "ym2612"
    },
    {
      "channel": 3,
      "note": 41,
      "start": 9.2529,
      "duration": 0.6516,
      "velocity": 106,
      "chip": "ym2612"
    },
    {
      "channel": 4,
      "note": 75,
      "start": 9.2534,
      "duration": 0.6512,
      "velocity": 81,
      "chip": "ym2612"
    },
    {
      "channel": 1,
      "note": 68,
      "start": 9.7467,
      "duration": 0.6528,
      "velocity": 79,
      "chip": "ym2612"
    },
    {
      "channel": 5,
      "note": 75,
      "start": 9.7473,
      "duration": 0.6523,
      "velocity": 78,
      "chip": "ym2612"
    },
    {
      "channel": 0,
      "note": 67,
      "start": 9.9117,
      "duration": 0.6528,
      "velocity": 83,
      "chip": "ym2612"
    },
    {
      "channel": 2,
      "note": 39,
      "start": 9.9125,
      "duration": 0.6521,
      "velocity": 106,
      "chip": "ym2612"
    },
    {
      "channel": 3,
      "note": 39,
      "start": 9.9129,
      "duration": 0.6517,
      "velocity": 106,
      "chip": "ym2612"
    },
    {
      "channel": 4,
      "note": 70,
      "start": 9.9135,
      "duration": 0.6513,
      "velocity": 81,
      "chip": "ym2612"
    },
    {
      "channel": 1,
      "note": 67,
      "start": 10.4067,
      "duration": 0.1582,
      "velocity": 79,
      "chip": "ym2612"
    },
    {
      "channel": 5,
      "note": 70,
      "start": 10.4073,
      "duration": 0.1577,
      "velocity": 78,
      "chip": "ym2612"
    },
    {
      "channel": 0,
      "note": 68,
      "start": 10.5719,
      "duration": 0.6526,
      "velocity": 83,
      "chip": "ym2612"
    },
    {
      "channel": 2,
      "note": 44,
      "start": 10.5727,
      "duration": 1.312,
      "velocity": 106,
      "chip": "ym2612"
    },
    {
      "channel": 3,
      "note": 44,
      "start": 10.5732,
      "duration": 1.3116,
      "velocity": 106,
      "chip": "ym2612"
    },
    {
      "channel": 4,
      "note": 72,
      "start": 10.5737,
      "duration": 1.3112,
      "velocity": 81,
      "chip": "ym2612"
    },
    {
      "channel": 1,
      "note": 68,
      "start": 11.0668,
      "duration": 0.6528,
      "velocity": 79,
      "chip": "ym2612"
    },
    {
      "channel": 5,
      "note": 72,
      "start": 11.0673,
      "duration": 1.3125,
      "velocity": 78,
      "chip": "ym2612"
    },
    {
      "channel": 0,
      "note": 75,
      "start": 11.2319,
      "duration": 0.6527,
      "velocity": 83,
      "chip": "ym2612"
    },
    {
      "channel": 1,
      "note": 75,
      "start": 11.7269,
      "duration": 0.6528,
      "velocity": 79,
      "chip": "ym2612"
    },
    {
      "channel": 0,
      "note": 73,
      "start": 11.892,
      "duration": 0.6527,
      "velocity": 83,
      "chip": "ym2612"
    },
    {
      "channel": 2,
      "note": 42,
      "start": 11.8928,
      "duration": 1.3121,
      "velocity": 106,
      "chip": "ym2612"
    },
    {
      "channel": 3,
      "note": 42,
      "start": 11.8932,
      "duration": 1.3117,
      "velocity": 106,
      "chip": "ym2612"
    },
    {
      "channel": 4,
      "note": 70,
      "start": 11.8938,
      "duration": 1.3113,
      "velocity": 81,
      "chip": "ym2612"
    },
    {
      "channel": 1,
      "note": 73,
      "start": 12.3873,
      "duration": 0.6525,
      "velocity": 79,
      "chip": "ym2612"
    },
    {
      "channel": 5,
      "note": 70,
      "start": 12.3878,
      "duration": 1.3157,
      "velocity": 78,
      "chip": "ym2612"
    },
    {
      "channel": 0,
      "note": 72,
      "start": 12.5522,
      "duration": 0.3227,
      "velocity": 83,
      "chip": "ym2612"
    },
    {
      "channel": 0,
      "note": 70,
      "start": 12.8821,
      "duration": 0.3227,
      "velocity": 83,
      "chip": "ym2612"
    },
    {
      "channel": 1,
      "note": 72,
      "start": 13.0472,
      "duration": 0.3262,
      "velocity": 79,
      "chip": "ym2612"
    },
    {
      "channel": 0,
      "note": 70,
      "start": 13.2126,
      "duration": 0.6558,
      "velocity": 83,
      "chip": "ym2612"
    },
    {
      "channel": 2,
      "note": 41,
      "start": 13.2131,
      "duration": 1.3155,
      "velocity": 106,
      "chip": "ym2612"
    },
    {
      "channel": 3,
      "note": 41,
      "start": 13.2136,
      "duration": 1.3151,
      "velocity": 106,
      "chip": "ym2612"
    },
    {
      "channel": 4,
      "note": 73,
      "start": 13.2141,
      "duration": 1.3147,
      "velocity": 81,
      "chip": "ym2612"
    },
    {
      "channel": 1,
      "note": 70,
      "start": 13.3806,
      "duration": 0.3228,
      "velocity": 79,
      "chip": "ym2612"
    },
    {
      "channel": 1,
      "note": 70,
      "start": 13.7106,
      "duration": 0.6528,
      "velocity": 79,
      "chip": "ym2612"
    },
    {
      "channel": 5,
      "note": 73,
      "start": 13.7112,
      "duration": 1.3124,
      "velocity": 78,
      "chip": "ym2612"
    },
    {
      "channel": 0,
      "note": 72,
      "start": 13.8757,
      "duration": 0.3228,
      "velocity": 83,
      "chip": "ym2612"
    },
    {
      "channel": 0,
      "note": 73,
      "start": 14.2057,
      "duration": 0.3228,
      "velocity": 83,
      "chip": "ym2612"
    },
    {
      "channel": 1,
      "note": 72,
      "start": 14.3708,
      "duration": 0.3226,
      "velocity": 79,
      "chip": "ym2612"
    },
    {
      "channel": 0,
      "note": 72,
      "start": 14.5357,
      "duration": 0.6528,
      "velocity": 83,
      "chip": "ym2612"
    },
    {
      "channel": 2,
      "note": 40,
      "start": 14.5362,
      "duration": 1.3126,
      "velocity": 106,
      "chip": "ym2612"
    },
    {
      "channel": 3,
      "note": 40,
      "start": 14.5367,
      "duration": 1.3122,
      "velocity": 106,
      "chip": "ym2612"
    },
    {
      "channel": 4,
      "note": 79,
      "start": 14.5373,
      "duration": 0.6514,
      "velocity": 81,
      "chip": "ym2612"
    },
    {
      "channel": 1,
      "note": 73,
      "start": 14.7009,
      "duration": 0.3226,
      "velocity": 79,
      "chip": "ym2612"
    },
    {
      "channel": 1,
      "note": 72,
      "start": 15.0308,
      "duration": 0.6529,
      "velocity": 79,
      "chip": "ym2612"
    },
    {
      "channel": 5,
      "note": 79,
      "start": 15.0314,
      "duration": 0.6524,
      "velocity": 78,
      "chip": "ym2612"
    },
    {
      "channel": 0,
      "note": 68,
      "start": 15.1959,
      "duration": 0.3228,
      "velocity": 83,
      "chip": "ym2612"
    },
    {
      "channel": 4,
      "note": 72,
      "start": 15.1964,
      "duration": 0.3224,
      "velocity": 81,
      "chip": "ym2612"
    },
    {
      "channel": 0,
      "note": 67,
      "start": 15.5259,
      "duration": 0.3228,
      "velocity": 83,
      "chip": "ym2612"
    },
    {
      "channel": 4,
      "note": 76,
      "start": 15.5265,
      "duration": 0.3226,
      "velocity": 81,
      "chip": "ym2612"
    },
    {
      "channel": 1,
      "note": 68,
      "start": 15.691,
      "duration": 0.3227,
      "velocity": 79,
      "chip": "ym2612"
    },
    {
      "channel": 5,
      "note": 72,
      "start": 15.6916,
      "duration": 0.3223,
      "velocity": 78,
      "chip": "ym2612"
    },
    {
      "channel": 0,
      "note": 65,
      "start": 15.856,
      "duration": 0.6536,
      "velocity": 83,
      "chip": "ym2612"
    },
    {
      "channel": 2,
      "note": 37,
      "start": 15.8564,
      "duration": 1.3163,
      "velocity": 106,
      "chip": "ym2612"
    },
    {
      "channel": 3,
      "note": 37,
      "start": 15.8569,
      "duration": 1.3159,
      "velocity": 106,
      "chip": "ym2612"
    },
    {
      "channel": 4,
      "note": 68,
      "start": 15.8575,
      "duration": 0.6522,
      "velocity": 81,
      "chip": "ym2612"
    },
    {
      "channel": 1,
      "note": 67,
      "start": 16.0211,
      "duration": 0.3227,
      "velocity": 79,
      "chip": "ym2612"
    },
    {
      "channel": 5,
      "note": 76,
      "start": 16.0216,
      "duration": 0.3223,
      "velocity": 78,
      "chip": "ym2612"
    },
    {
      "channel": 1,
      "note": 65,
      "start": 16.351,
      "duration": 0.6563,
      "velocity": 79,
      "chip": "ym2612"
    },
    {
      "channel": 5,
      "note": 68,
      "start": 16.3516,
      "duration": 0.6559,
      "velocity": 78,
      "chip": "ym2612"
    },
    {
      "channel": 0,
      "note": 70,
      "start": 16.516,
      "duration": 0.6566,
      "velocity": 83,
      "chip": "ym2612"
    },
    {
      "channel": 4,
      "note": 77,
      "start": 16.5166,
      "duration": 0.6563,
      "velocity": 81,
      "chip": "ym2612"
    },
    {
      "channel": 1,
      "note": 70,
      "start": 17.0145,
      "duration": 0.6562,
      "velocity": 79,
      "chip": "ym2612"
    },
    {
      "channel": 5,
      "note": 77,
      "start": 17.0151,
      "duration": 0.6558,
      "velocity": 78,
      "chip": "ym2612"
    },
    {
      "channel": 0,
      "note": 68,
      "start": 17.1796,
      "duration": 0.3261,
      "velocity": 83,
      "chip": "ym2612"
    },
    {
      "channel": 2,
      "note": 39,
      "start": 17.1801,
      "duration": 1.3159,
      "velocity": 106,
      "chip": "ym2612"
    },
    {
      "channel": 3,
      "note": 39,
      "start": 17.1806,
      "duration": 1.3155,
      "velocity": 106,
      "chip": "ym2612"
    },
    {
      "channel": 4,
      "note": 75,
      "start": 17.1811,
      "duration": 0.6548,
      "velocity": 81,
      "chip": "ym2612"
    },
    {
      "channel": 0,
      "note": 67,
      "start": 17.5131,
      "duration": 0.3227,
      "velocity": 83,
      "chip": "ym2612"
    },
    {
      "channel": 1,
      "note": 68,
      "start": 17.6782,
      "duration": 0.3227,
      "velocity": 79,
      "chip": "ym2612"
    },
    {
      "channel": 5,
      "note": 75,
      "start": 17.6788,
      "duration": 0.6522,
      "velocity": 78,
      "chip": "ym2612"
    },
    {
      "channel": 0,
      "note": 65,
      "start": 17.8431,
      "duration": 0.3228,
      "velocity": 83,
      "chip": "ym2612"
    },
    {
      "channel": 4,
      "note": 73,
      "start": 17.8437,
      "duration": 0.6525,
      "velocity": 81,
      "chip": "ym2612"
    },
    {
      "channel": 1,
      "note": 67,
      "start": 18.0082,
      "duration": 0.3227,
      "velocity": 79,
      "chip": "ym2612"
    },
    {
      "channel": 0,
      "note": 67,
      "start": 18.1732,
      "duration": 0.3227,
      "velocity": 83,
      "chip": "ym2612"
    },
    {
      "channel": 1,
      "note": 65,
      "start": 18.3383,
      "duration": 0.3227,
      "velocity": 79,
      "chip": "ym2612"
    },
    {
      "channel": 5,
      "note": 73,
      "start": 18.3388,
      "duration": 0.6522,
      "velocity": 78,
      "chip": "ym2612"
    },
    {
      "channel": 0,
      "note": 68,
      "start": 18.5032,
      "duration": 1.3129,
      "velocity": 83,
      "chip": "ym2612"
    },
    {
      "channel": 2,
      "note": 32,
      "start": 18.5037,
      "duration": 2.6327,
      "velocity": 106,
      "chip": "ym2612"
    },
    {
      "channel": 3,
      "note": 32,
      "start": 18.5042,
      "duration": 2.6323,
      "velocity": 106,
      "chip": "ym2612"
    },
    {
      "channel": 4,
      "note": 73,
      "start": 18.5048,
      "duration": 1.3113,
      "velocity": 81,
      "chip": "ym2612"
    },
    {
      "channel": 1,
      "note": 67,
      "start": 18.6682,
      "duration": 0.3227,
      "velocity": 79,
      "chip": "ym2612"
    },
    {
      "channel": 1,
      "note": 68,
      "start": 18.9985,
      "duration": 1.3128,
      "velocity": 79,
      "chip": "ym2612"
    },
    {
      "channel": 5,
      "note": 73,
      "start": 18.999,
      "duration": 1.3123,
      "velocity": 78,
      "chip": "ym2612"
    },
    {
      "channel": 0,
      "note": 63,
      "start": 19.8235,
      "duration": 0.3227,
      "velocity": 83,
      "chip": "ym2612"
    },
    {
      "channel": 4,
      "note": 72,
      "start": 19.824,
      "duration": 1.3125,
      "velocity": 81,
      "chip": "ym2612"
    },
    {
      "channel": 0,
      "note": 65,
      "start": 20.1535,
      "duration": 0.3227,
      "velocity": 83,
      "chip": "ym2612"
    },
    {
      "channel": 1,
      "note": 63,
      "start": 20.3185,
      "duration": 0.3227,
      "velocity": 79,
      "chip": "ym2612"
    },
    {
      "channel": 5,
      "note": 72,
      "start": 20.3191,
      "duration": 0.8176,
      "velocity": 78,
      "chip": "ym2612"
    },
    {
      "channel": 0,
      "note": 67,
      "start": 20.4835,
      "duration": 0.3228,
      "velocity": 83,
      "chip": "ym2612"
    },
    {
      "channel": 1,
      "note": 65,
      "start": 20.6486,
      "duration": 0.3227,
      "velocity": 79,
      "chip": "ym2612"
    },
    {
      "channel": 0,
      "note": 68,
      "start": 20.8136,
      "duration": 0.3227,
      "velocity": 83,
      "chip": "ym2612"
    },
    {
      "channel": 1,
      "note": 67,
      "start": 20.9786,
      "duration": 0.1581,
      "velocity": 79,
      "chip": "ym2612"
    },
    {
      "channel": 0,
      "note": 68,
      "start": 21.1436,
      "duration": 0.6563,
      "velocity": 83,
      "chip": "ym2612"
    },
    {
      "channel": 2,
      "note": 44,
      "start": 21.1441,
      "duration": 1.3159,
      "velocity": 106,
      "chip": "ym2612"
    },
    {
      "channel": 3,
      "note": 44,
      "start": 21.1446,
      "duration": 1.3155,
      "velocity": 106,
      "chip": "ym2612"
    },
    {
      "channel": 4,
      "note": 72,
      "start": 21.1451,
      "duration": 1.3151,
      "velocity": 81,
      "chip": "ym2612"
    },
    {
      "channel": 5,
      "note": 72,
      "start": 21.1457,
      "duration": 1.3145,
      "velocity": 78,
      "chip": "ym2612"
    },
    {
      "channel": 1,
      "note": 68,
      "start": 21.6421,
      "duration": 0.6534,
      "velocity": 79,
      "chip": "ym2612"
    },
    {
      "channel": 0,
      "note": 75,
      "start": 21.8072,
      "duration": 0.6527,
      "velocity": 83,
      "chip": "ym2612"
    },
    {
      "channel": 1,
      "note": 75,
      "start": 22.3026,
      "duration": 0.6524,
      "velocity": 79,
      "chip": "ym2612"
    },
    {
      "channel": 0,
      "note": 73,
      "start": 22.4672,
      "duration": 0.6528,
      "velocity": 83,
      "chip": "ym2612"
    },
    {
      "channel": 2,
      "note": 42,
      "start": 22.4677,
      "duration": 1.3159,
      "velocity": 106,
      "chip": "ym2612"
    },
    {
      "channel": 3,
      "note": 42,
      "start": 22.4682,
      "duration": 1.3155,
      "velocity": 106,
      "chip": "ym2612"
    },
    {
      "channel": 4,
      "note": 70,
      "start": 22.4687,
      "duration": 1.3151,
      "velocity": 81,
      "chip": "ym2612"
    },
    {
      "channel": 5,
      "note": 70,
      "start": 22.4693,
      "duration": 1.3146,
      "velocity": 78,
      "chip": "ym2612"
    },
    {
      "channel": 1,
      "note": 73,
      "start": 22.9625,
      "duration": 0.656,
      "velocity": 79,
      "chip": "ym2612"
    },
    {
      "channel": 0,
      "note": 72,
      "start": 23.1273,
      "duration": 0.3261,
      "velocity": 83,
      "chip": "ym2612"
    },
    {
      "channel": 0,
      "note": 70,
      "start": 23.4609,
      "duration": 0.3226,
      "velocity": 83,
      "chip": "ym2612"
    },
    {
      "channel": 1,
      "note": 72,
      "start": 23.6258,
      "duration": 0.3229,
      "velocity": 79,
      "chip": "ym2612"
    },
    {
      "channel": 0,
      "note": 70,
      "start": 23.791,
      "duration": 0.6561,
      "velocity": 83,
      "chip": "ym2612"
    },
    {
      "channel": 2,
      "note": 41,
      "start": 23.7914,
      "duration": 1.3165,
      "velocity": 106,
      "chip": "ym2612"
    },
    {
      "channel": 3,
      "note": 41,
      "start": 23.7919,
      "duration": 1.3161,
      "velocity": 106,
      "chip": "ym2612"
    },
    {
      "channel": 4,
      "note": 73,
      "start": 23.7927,
      "duration": 1.3154,
      "velocity": 81,
      "chip": "ym2612"
    },
    {
      "channel": 5,
      "note": 73,
      "start": 23.7933,
      "duration": 1.3149,
      "velocity": 78,
      "chip": "ym2612"
    },
    {
      "channel": 1,
      "note": 70,
      "start": 23.9559,
      "duration": 0.3228,
      "velocity": 79,
      "chip": "ym2612"
    },
    {
      "channel": 1,
      "note": 70,
      "start": 24.2859,
      "duration": 0.6566,
      "velocity": 79,
      "chip": "ym2612"
    },
    {
      "channel": 0,
      "note": 72,
      "start": 24.4544,
      "duration": 0.3227,
      "velocity": 83,
      "chip": "ym2612"
    },
    {
      "channel": 0,
      "note": 73,
      "start": 24.7845,
      "duration": 0.3233,
      "velocity": 83,
      "chip": "ym2612"
    },
    {
      "channel": 1,
      "note": 72,
      "start": 24.9495,
      "duration": 0.3226,
      "velocity": 79,
      "chip": "ym2612"
    },
    {
      "channel": 0,
      "note": 72,
      "start": 25.1146,
      "duration": 0.6528,
      "velocity": 83,
      "chip": "ym2612"
    },
    {
      "channel": 2,
      "note": 40,
      "start": 25.1151,
      "duration": 1.3124,
      "velocity": 106,
      "chip": "ym2612"
    },
    {
      "channel": 3,
      "note": 40,
      "start": 25.1155,
      "duration": 1.312,
      "velocity": 106,
      "chip": "ym2612"
    },
    {
      "channel": 4,
      "note": 79,
      "start": 25.1161,
      "duration": 1.3116,
      "velocity": 81,
      "chip": "ym2612"
    },
    {
      "channel": 5,
      "note": 79,
      "start": 25.1166,
      "duration": 1.3111,
      "velocity": 78,
      "chip": "ym2612"
    },
    {
      "channel": 1,
      "note": 73,
      "start": 25.2796,
      "duration": 0.3229,
      "velocity": 79,
      "chip": "ym2612"
    },
    {
      "channel": 1,
      "note": 72,
      "start": 25.6096,
      "duration": 0.653,
      "velocity": 79,
      "chip": "ym2612"
    },
    {
      "channel": 0,
      "note": 70,
      "start": 25.7747,
      "duration": 0.6527,
      "velocity": 83,
      "chip": "ym2612"
    },
    {
      "channel": 1,
      "note": 70,
      "start": 26.2696,
      "duration": 0.6531,
      "velocity": 79,
      "chip": "ym2612"
    },
    {
      "channel": 0,
      "note": 68,
      "start": 26.4347,
      "duration": 0.6527,
      "velocity": 83,
      "chip": "ym2612"
    },
    {
      "channel": 2,
      "note": 41,
      "start": 26.4352,
      "duration": 1.3127,
      "velocity": 106,
      "chip": "ym2612"
    },
    {
      "channel": 3,
      "note": 41,
      "start": 26.4357,
      "duration": 1.3123,
      "velocity": 106,
      "chip": "ym2612"
    },
    {
      "channel": 4,
      "note": 72,
      "start": 26.4362,
      "duration": 1.3118,
      "velocity": 81,
      "chip": "ym2612"
    },
    {
      "channel": 5,
      "note": 72,
      "start": 26.4368,
      "duration": 1.3114,
      "velocity": 78,
      "chip": "ym2612"
    },
    {
      "channel": 1,
      "note": 68,
      "start": 26.9298,
      "duration": 0.6528,
      "velocity": 79,
      "chip": "ym2612"
    },
    {
      "channel": 0,
      "note": 65,
      "start": 27.0948,
      "duration": 0.3228,
      "velocity": 83,
      "chip": "ym2612"
    },
    {
      "channel": 0,
      "note": 67,
      "start": 27.4249,
      "duration": 0.3227,
      "velocity": 83,
      "chip": "ym2612"
    },
    {
      "channel": 1,
      "note": 65,
      "start": 27.5898,
      "duration": 0.3228,
      "velocity": 79,
      "chip": "ym2612"
    },
    {
      "channel": 0,
      "note": 68,
      "start": 27.7549,
      "duration": 0.6528,
      "velocity": 83,
      "chip": "ym2612"
    },
    {
      "channel": 2,
      "note": 42,
      "start": 27.7554,
      "duration": 1.3125,
      "velocity": 106,
      "chip": "ym2612"
    },
    {
      "channel": 3,
      "note": 42,
      "start": 27.7559,
      "duration": 1.3121,
      "velocity": 106,
      "chip": "ym2612"
    },
    {
      "channel": 4,
      "note": 73,
      "start": 27.7564,
      "duration": 1.3116,
      "velocity": 81,
      "chip": "ym2612"
    },
    {
      "channel": 5,
      "note": 73,
      "start": 27.757,
      "duration": 1.3113,
      "velocity": 78,
      "chip": "ym2612"
    },
    {
      "channel": 1,
      "note": 67,
      "start": 27.9199,
      "duration": 0.3228,
      "velocity": 79,
      "chip": "ym2612"
    },
    {
      "channel": 1,
      "note": 68,
      "start": 28.2499,
      "duration": 0.6528,
      "velocity": 79,
      "chip": "ym2612"
    },
    {
      "channel": 0,
      "note": 70,
      "start": 28.415,
      "duration": 0.3227,
      "velocity": 83,
      "chip": "ym2612"
    },
    {
      "channel": 0,
      "note": 72,
      "start": 28.745,
      "duration": 0.3227,
      "velocity": 83,
      "chip": "ym2612"
    },
    {
      "channel": 1,
      "note": 70,
      "start": 28.91,
      "duration": 0.3227,
      "velocity": 79,
      "chip": "ym2612"
    },
    {
      "channel": 0,
      "note": 70,
      "start": 29.0751,
      "duration": 1.3129,
      "velocity": 83,
      "chip": "ym2612"
    },
    {
      "channel": 2,
      "note": 43,
      "start": 29.0755,
      "duration": 1.3126,
      "velocity": 106,
      "chip": "ym2612"
    },
    {
      "channel": 3,
      "note": 43,
      "start": 29.076,
      "duration": 1.3122,
      "velocity": 106,
      "chip": "ym2612"
    },
    {
      "channel": 4,
      "note": 75,
      "start": 29.0766,
      "duration": 1.3117,
      "velocity": 81,
      "chip": "ym2612"
    },
    {
      "channel": 5,
      "note": 75,
      "start": 29.0771,
      "duration": 1.3113,
      "velocity": 78,
      "chip": "ym2612"
    },
    {
      "channel": 1,
      "note": 72,
      "start": 29.2402,
      "duration": 0.3227,
      "velocity": 79,
      "chip": "ym2612"
    },
    {
      "channel": 1,
      "note": 70,
      "start": 29.5702,
      "duration": 1.3163,
      "velocity": 79,
      "chip": "ym2612"
    },
    {
      "channel": 0,
      "note": 68,
      "start": 30.3953,
      "duration": 0.6562,
      "velocity": 83,
      "chip": "ym2612"
    },
    {
      "channel": 2,
      "note": 41,
      "start": 30.3957,
      "duration": 0.6558,
      "velocity": 106,
      "chip": "ym2612"
    },
    {
      "channel": 3,
      "note": 41,
      "start": 30.3962,
      "duration": 0.6554,
      "velocity": 106,
      "chip": "ym2612"
    },
    {
      "channel": 4,
      "note": 75,
      "start": 30.3968,
      "duration": 0.655,
      "velocity": 81,
      "chip": "ym2612"
    },
    {
      "channel": 5,
      "note": 75,
      "start": 30.3973,
      "duration": 0.6545,
      "velocity": 78,
      "chip": "ym2612"
    },
    {
      "channel": 1,
      "note": 68,
      "start": 30.8939,
      "duration": 0.6527,
      "velocity": 79,
      "chip": "ym2612"
    },
    {
      "channel": 0,
      "note": 67,
      "start": 31.0589,
      "duration": 0.6527,
      "velocity": 83,
      "chip": "ym2612"
    },
    {
      "channel": 2,
      "note": 39,
      "start": 31.0594,
      "duration": 0.6523,
      "velocity": 106,
      "chip": "ym2612"
    },
    {
      "channel": 3,
      "note": 39,
      "start": 31.0598,
      "duration": 0.6519,
      "velocity": 106,
      "chip": "ym2612"
    },
    {
      "channel": 4,
      "note": 70,
      "start": 31.0604,
      "duration": 0.6515,
      "velocity": 81,
      "chip": "ym2612"
    },
    {
      "channel": 5,
      "note": 70,
      "start": 31.0609,
      "duration": 0.1556,
      "velocity": 78,
      "chip": "ym2612"
    },
    {
      "channel": 1,
      "note": 67,
      "start": 31.5539,
      "duration": 0.1581,
      "velocity": 79,
      "chip": "ym2612"
    },
    {
      "channel": 0,
      "note": 68,
      "start": 31.719,
      "duration": 0.6561,
      "velocity": 83,
      "chip": "ym2612"
    },
    {
      "channel": 2,
      "note": 44,
      "start": 31.7195,
      "duration": 1.3159,
      "velocity": 106,
      "chip": "ym2612"
    },
    {
      "channel": 3,
      "note": 44,
      "start": 31.72,
      "duration": 1.3154,
      "velocity": 106,
      "chip": "ym2612"
    },
    {
      "channel": 4,
      "note": 72,
      "start": 31.7206,
      "duration": 1.315,
      "velocity": 81,
      "chip": "ym2612"
    },
    {
      "channel": 5,
      "note": 72,
      "start": 31.7211,
      "duration": 1.3146,
      "velocity": 78,
      "chip": "ym2612"
    },
    {
      "channel": 1,
      "note": 68,
      "start": 32.2146,
      "duration": 0.6555,
      "velocity": 79,
      "chip": "ym2612"
    },
    {
      "channel": 0,
      "note": 75,
      "start": 32.3828,
      "duration": 0.6525,
      "velocity": 83,
      "chip": "ym2612"
    },
    {
      "channel": 1,
      "note": 75,
      "start": 32.8775,
      "duration": 0.6529,
      "velocity": 79,
      "chip": "ym2612"
    },
    {
      "channel": 0,
      "note": 73,
      "start": 33.0428,
      "duration": 0.6527,
      "velocity": 83,
      "chip": "ym2612"
    },
    {
      "channel": 2,
      "note": 42,
      "start": 33.0432,
      "duration": 1.3122,
      "velocity": 106,
      "chip": "ym2612"
    },
    {
      "channel": 3,
      "note": 42,
      "start": 33.0437,
      "duration": 1.3118,
      "velocity": 106,
      "chip": "ym2612"
    },
    {
      "channel": 4,
      "note": 70,
      "start": 33.0443,
      "duration": 1.3114,
      "velocity": 81,
      "chip": "ym2612"
    },
    {
      "channel": 5,
      "note": 70,
      "start": 33.0448,
      "duration": 1.311,
      "velocity": 78,
      "chip": "ym2612"
    },
    {
      "channel": 1,
      "note": 73,
      "start": 33.5376,
      "duration": 0.6528,
      "velocity": 79,
      "chip": "ym2612"
    },
    {
      "channel": 0,
      "note": 72,
      "start": 33.7029,
      "duration": 0.3224,
      "velocity": 83,
      "chip": "ym2612"
    },
    {
      "channel": 0,
      "note": 70,
      "start": 34.033,
      "duration": 0.3224,
      "velocity": 83,
      "chip": "ym2612"
    },
    {
      "channel": 1,
      "note": 72,
      "start": 34.1978,
      "duration": 0.3226,
      "velocity": 79,
      "chip": "ym2612"
    },
    {
      "channel": 0,
      "note": 70,
      "start": 34.363,
      "duration": 0.6526,
      "velocity": 83,
      "chip": "ym2612"
    },
    {
      "channel": 2,
      "note": 41,
      "start": 34.3634,
      "duration": 1.3123,
      "velocity": 106,
      "chip": "ym2612"
    },
    {
      "channel": 3,
      "note": 41,
      "start": 34.3639,
      "duration": 1.3119,
      "velocity": 106,
      "chip": "ym2612"
    },
    {
      "channel": 4,
      "note": 73,
      "start": 34.3645,
      "duration": 1.3115,
      "velocity": 81,
      "chip": "ym2612"
    },
    {
      "channel": 5,
      "note": 73,
      "start": 34.365,
      "duration": 1.311,
      "velocity": 78,
      "chip": "ym2612"
    },
    {
      "channel": 1,
      "note": 70,
      "start": 34.5278,
      "duration": 0.3227,
      "velocity": 79,
      "chip": "ym2612"
    },
    {
      "channel": 1,
      "note": 70,
      "start": 34.8578,
      "duration": 0.6529,
      "velocity": 79,
      "chip": "ym2612"
    },
    {
      "channel": 0,
      "note": 72,
      "start": 35.0231,
      "duration": 0.3224,
      "velocity": 83,
      "chip": "ym2612"
    },
    {
      "channel": 0,
      "note": 73,
      "start": 35.3532,
      "duration": 0.3225,
      "velocity": 83,
      "chip": "ym2612"
    },
    {
      "channel": 1,
      "note": 72,
      "start": 35.518,
      "duration": 0.3227,
      "velocity": 79,
      "chip": "ym2612"
    },
    {
      "channel": 0,
      "note": 72,
      "start": 35.6831,
      "duration": 0.656,
      "velocity": 83,
      "chip": "ym2612"
    },
    {
      "channel": 2,
      "note": 40,
      "start": 35.6836,
      "duration": 1.3158,
      "velocity": 106,
      "chip": "ym2612"
    },
    {
      "channel": 3,
      "note": 40,
      "start": 35.6841,
      "duration": 1.3154,
      "velocity": 106,
      "chip": "ym2612"
    },
    {
      "channel": 4,
      "note": 79,
      "start": 35.6846,
      "duration": 0.6546,
      "velocity": 81,
      "chip": "ym2612"
    },
    {
      "channel": 5,
      "note": 79,
      "start": 35.6852,
      "duration": 0.6542,
      "velocity": 78,
      "chip": "ym2612"
    },
    {
      "channel": 1,
      "note": 73,
      "start": 35.848,
      "duration": 0.3227,
      "velocity": 79,
      "chip": "ym2612"
    },
    {
      "channel": 1,
      "note": 72,
      "start": 36.178,
      "duration": 0.6562,
      "velocity": 79,
      "chip": "ym2612"
    },
    {
      "channel": 0,
      "note": 68,
      "start": 36.3466,
      "duration": 0.3226,
      "velocity": 83,
      "chip": "ym2612"
    },
    {
      "channel": 4,
      "note": 72,
      "start": 36.3471,
      "duration": 0.3222,
      "velocity": 81,
      "chip": "ym2612"
    },
    {
      "channel": 5,
      "note": 72,
      "start": 36.3476,
      "duration": 0.3217,
      "velocity": 78,
      "chip": "ym2612"
    },
    {
      "channel": 0,
      "note": 67,
      "start": 36.6765,
      "duration": 0.3228,
      "velocity": 83,
      "chip": "ym2612"
    },
    {
      "channel": 4,
      "note": 76,
      "start": 36.677,
      "duration": 0.3226,
      "velocity": 81,
      "chip": "ym2612"
    },
    {
      "channel": 5,
      "note": 76,
      "start": 36.6776,
      "duration": 0.3221,
      "velocity": 78,
      "chip": "ym2612"
    },
    {
      "channel": 1,
      "note": 68,
      "start": 36.8415,
      "duration": 0.3228,
      "velocity": 79,
      "chip": "ym2612"
    },
    {
      "channel": 0,
      "note": 65,
      "start": 37.0066,
      "duration": 0.6527,
      "velocity": 83,
      "chip": "ym2612"
    },
    {
      "channel": 2,
      "note": 37,
      "start": 37.0071,
      "duration": 1.3124,
      "velocity": 106,
      "chip": "ym2612"
    },
    {
      "channel": 3,
      "note": 37,
      "start": 37.0076,
      "duration": 1.312,
      "velocity": 106,
      "chip": "ym2612"
    },
    {
      "channel": 4,
      "note": 68,
      "start": 37.0081,
      "duration": 0.6513,
      "velocity": 81,
      "chip": "ym2612"
    },
    {
      "channel": 5,
      "note": 68,
      "start": 37.0087,
      "duration": 0.6508,
      "velocity": 78,
      "chip": "ym2612"
    },
    {
      "channel": 1,
      "note": 67,
      "start": 37.1716,
      "duration": 0.3227,
      "velocity": 79,
      "chip": "ym2612"
    },
    {
      "channel": 1,
      "note": 65,
      "start": 37.5017,
      "duration": 0.6527,
      "velocity": 79,
      "chip": "ym2612"
    },
    {
      "channel": 0,
      "note": 70,
      "start": 37.6668,
      "duration": 0.6526,
      "velocity": 83,
      "chip": "ym2612"
    },
    {
      "channel": 4,
      "note": 77,
      "start": 37.6674,
      "duration": 0.6523,
      "velocity": 81,
      "chip": "ym2612"
    },
    {
      "channel": 5,
      "note": 77,
      "start": 37.6679,
      "duration": 0.6519,
      "velocity": 78,
      "chip": "ym2612"
    },
    {
      "channel": 1,
      "note": 70,
      "start": 38.1619,
      "duration": 0.656,
      "velocity": 79,
      "chip": "ym2612"
    },
    {
      "channel": 0,
      "note": 68,
      "start": 38.3267,
      "duration": 0.3263,
      "velocity": 83,
      "chip": "ym2612"
    },
    {
      "channel": 2,
      "note": 39,
      "start": 38.3272,
      "duration": 1.3159,
      "velocity": 106,
      "chip": "ym2612"
    },
    {
      "channel": 3,
      "note": 39,
      "start": 38.3277,
      "duration": 1.3155,
      "velocity": 106,
      "chip": "ym2612"
    },
    {
      "channel": 4,
      "note": 75,
      "start": 38.3282,
      "duration": 0.6548,
      "velocity": 81,
      "chip": "ym2612"
    },
    {
      "channel": 5,
      "note": 75,
      "start": 38.3288,
      "duration": 0.6544,
      "velocity": 78,
      "chip": "ym2612"
    },
    {
      "channel": 0,
      "note": 67,
      "start": 38.6602,
      "duration": 0.3227,
      "velocity": 83,
      "chip": "ym2612"
    },
    {
      "channel": 1,
      "note": 68,
      "start": 38.8252,
      "duration": 0.3228,
      "velocity": 79,
      "chip": "ym2612"
    },
    {
      "channel": 0,
      "note": 65,
      "start": 38.9902,
      "duration": 0.3227,
      "velocity": 83,
      "chip": "ym2612"
    },
    {
      "channel": 4,
      "note": 73,
      "start": 38.9908,
      "duration": 0.6525,
      "velocity": 81,
      "chip": "ym2612"
    },
    {
      "channel": 5,
      "note": 73,
      "start": 38.9913,
      "duration": 0.6521,
      "velocity": 78,
      "chip": "ym2612"
    },
    {
      "channel": 1,
      "note": 67,
      "start": 39.1553,
      "duration": 0.3228,
      "velocity": 79,
      "chip": "ym2612"
    },
    {
      "channel": 0,
      "note": 67,
      "start": 39.3203,
      "duration": 0.3227,
      "velocity": 83,
      "chip": "ym2612"
    },
    {
      "channel": 1,
      "note": 65,
      "start": 39.4853,
      "duration": 0.3228,
      "velocity": 79,
      "chip": "ym2612"
    },
    {
      "channel": 0,
      "note": 68,
      "start": 39.6504,
      "duration": 1.3133,
      "velocity": 83,
      "chip": "ym2612"
    },
    {
      "channel": 2,
      "note": 44,
      "start": 39.6509,
      "duration": 1.3129,
      "velocity": 106,
      "chip": "ym2612"
    },
    {
      "channel": 3,
      "note": 44,
      "start": 39.6514,
      "duration": 1.3125,
      "velocity": 106,
      "chip": "ym2612"
    },
    {
      "channel": 4,
      "note": 73,
      "start": 39.652,
      "duration": 1.312,
      "velocity": 81,
      "chip": "ym2612"
    },
    {
      "channel": 5,
      "note": 73,
      "start": 39.6529,
      "duration": 1.3112,
      "velocity": 78,
      "chip": "ym2612"
    },
    {
      "channel": 1,
      "note": 67,
      "start": 39.8155,
      "duration": 0.3226,
      "velocity": 79,
      "chip": "ym2612"
    },
    {
      "channel": 1,
      "note": 68,
      "start": 40.1454,
      "duration": 1.3129,
      "velocity": 79,
      "chip": "ym2612"
    },
    {
      "channel": 0,
      "note": 70,
      "start": 40.9705,
      "duration": 0.6528,
      "velocity": 83,
      "chip": "ym2612"
    },
    {
      "channel": 2,
      "note": 43,
      "start": 40.971,
      "duration": 1.3125,
      "velocity": 106,
      "chip": "ym2612"
    },
    {
      "channel": 3,
      "note": 43,
      "start": 40.9715,
      "duration": 1.3121,
      "velocity": 106,
      "chip": "ym2612"
    },
    {
      "channel": 4,
      "note": 75,
      "start": 40.972,
      "duration": 1.3117,
      "velocity": 81,
      "chip": "ym2612"
    },
    {
      "channel": 5,
      "note": 75,
      "start": 40.9729,
      "duration": 0.8155,
      "velocity": 78,
      "chip": "ym2612"
    },
    {
      "channel": 1,
      "note": 70,
      "start": 41.4657,
      "duration": 0.6528,
      "velocity": 79,
      "chip": "ym2612"
    },
    {
      "channel": 0,
      "note": 72,
      "start": 41.6306,
      "duration": 0.6528,
      "velocity": 83,
      "chip": "ym2612"
    },
    {
      "channel": 1,
      "note": 72,
      "start": 42.1257,
      "duration": 0.158,
      "velocity": 79,
      "chip": "ym2612"
    },
    {
      "channel": 0,
      "note": 73,
      "start": 42.2908,
      "duration": 1.3129,
      "velocity": 83,
      "chip": "ym2612"
    },
    {
      "channel": 2,
      "note": 46,
      "start": 42.2913,
      "duration": 1.3125,
      "velocity": 106,
      "chip": "ym2612"
    },
    {
      "channel": 3,
      "note": 46,
      "start": 42.2918,
      "duration": 1.3122,
      "velocity": 106,
      "chip": "ym2612"
    },
    {
      "channel": 4,
      "note": 77,
      "start": 42.2926,
      "duration": 1.3115,
      "velocity": 81,
      "chip": "ym2612"
    },
    {
      "channel": 1,
      "note": 73,
      "start": 42.7858,
      "duration": 1.313,
      "velocity": 79,
      "chip": "ym2612"
    },
    {
      "channel": 5,
      "note": 77,
      "start": 42.7863,
      "duration": 1.3125,
      "velocity": 78,
      "chip": "ym2612"
    },
    {
      "channel": 0,
      "note": 73,
      "start": 43.611,
      "duration": 0.3226,
      "velocity": 83,
      "chip": "ym2612"
    },
    {
      "channel": 2,
      "note": 45,
      "start": 43.6115,
      "duration": 1.3124,
      "velocity": 106,
      "chip": "ym2612"
    },
    {
      "channel": 3,
      "note": 45,
      "start": 43.612,
      "duration": 1.312,
      "velocity": 106,
      "chip": "ym2612"
    },
    {
      "channel": 4,
      "note": 77,
      "start": 43.6128,
      "duration": 1.3114,
      "velocity": 81,
      "chip": "ym2612"
    },
    {
      "channel": 0,
      "note": 72,
      "start": 43.9411,
      "duration": 0.3226,
      "velocity": 83,
      "chip": "ym2612"
    },
    {
      "channel": 1,
      "note": 73,
      "start": 44.106,
      "duration": 0.3228,
      "velocity": 79,
      "chip": "ym2612"
    },
    {
      "channel": 5,
      "note": 77,
      "start": 44.1065,
      "duration": 1.3125,
      "velocity": 78,
      "chip": "ym2612"
    },
    {
      "channel": 0,
      "note": 70,
      "start": 44.2711,
      "duration": 0.3227,
      "velocity": 83,
      "chip": "ym2612"
    },
    {
      "channel": 1,
      "note": 72,
      "start": 44.4361,
      "duration": 0.3227,
      "velocity": 79,
      "chip": "ym2612"
    },
    {
      "channel": 0,
      "note": 73,
      "start": 44.6012,
      "duration": 0.3226,
      "velocity": 83,
      "chip": "ym2612"
    },
    {
      "channel": 1,
      "note": 70,
      "start": 44.7662,
      "duration": 0.3227,
      "velocity": 79,
      "chip": "ym2612"
    },
    {
      "channel": 0,
      "note": 72,
      "start": 44.9312,
      "duration": 0.6527,
      "velocity": 83,
      "chip": "ym2612"
    },
    {
      "channel": 2,
      "note": 44,
      "start": 44.9317,
      "duration": 1.3124,
      "velocity": 106,
      "chip": "ym2612"
    },
    {
      "channel": 3,
      "note": 44,
      "start": 44.9322,
      "duration": 1.312,
      "velocity": 106,
      "chip": "ym2612"
    },
    {
      "channel": 4,
      "note": 75,
      "start": 44.933,
      "duration": 1.3113,
      "velocity": 81,
      "chip": "ym2612"
    },
    {
      "channel": 1,
      "note": 73,
      "start": 45.097,
      "duration": 0.322,
      "velocity": 79,
      "chip": "ym2612"
    },
    {
      "channel": 1,
      "note": 72,
      "start": 45.4262,
      "duration": 0.6529,
      "velocity": 79,
      "chip": "ym2612"
    },
    {
      "channel": 5,
      "note": 75,
      "start": 45.4267,
      "duration": 1.3129,
      "velocity": 78,
      "chip": "ym2612"
    },
    {
      "channel": 0,
      "note": 68,
      "start": 45.5912,
      "duration": 1.3129,
      "velocity": 83,
      "chip": "ym2612"
    },
    {
      "channel": 1,
      "note": 68,
      "start": 46.0863,
      "duration": 1.313,
      "velocity": 79,
      "chip": "ym2612"
    },
    {
      "channel": 2,
      "note": 41,
      "start": 46.2512,
      "duration": 1.313,
      "velocity": 106,
      "chip": "ym2612"
    },
    {
      "channel": 3,
      "note": 41,
      "start": 46.2517,
      "duration": 1.3126,
      "velocity": 106,
      "chip": "ym2612"
    },
    {
      "channel": 4,
      "note": 72,
      "start": 46.2525,
      "duration": 1.312,
      "velocity": 81,
      "chip": "ym2612"
    },
    {
      "channel": 5,
      "note": 72,
      "start": 46.7465,
      "duration": 1.3136,
      "velocity": 78,
      "chip": "ym2612"
    },
    {
      "channel": 0,
      "note": 70,
      "start": 46.9114,
      "duration": 0.3227,
      "velocity": 83,
      "chip": "ym2612"
    },
    {
      "channel": 0,
      "note": 72,
      "start": 47.2415,
      "duration": 0.3226,
      "velocity": 83,
      "chip": "ym2612"
    },
    {
      "channel": 1,
      "note": 70,
      "start": 47.4065,
      "duration": 0.3227,
      "velocity": 79,
      "chip": "ym2612"
    },
    {
      "channel": 0,
      "note": 73,
      "start": 47.5715,
      "duration": 1.3164,
      "velocity": 83,
      "chip": "ym2612"
    },
    {
      "channel": 2,
      "note": 42,
      "start": 47.572,
      "duration": 1.316,
      "velocity": 106,
      "chip": "ym2612"
    },
    {
      "channel": 3,
      "note": 42,
      "start": 47.5728,
      "duration": 1.3154,
      "velocity": 106,
      "chip": "ym2612"
    },
    {
      "channel": 4,
      "note": 70,
      "start": 47.5733,
      "duration": 1.3149,
      "velocity": 81,
      "chip": "ym2612"
    },
    {
      "channel": 1,
      "note": 72,
      "start": 47.7366,
      "duration": 0.3233,
      "velocity": 79,
      "chip": "ym2612"
    },
    {
      "channel": 1,
      "note": 73,
      "start": 48.0666,
      "duration": 1.3163,
      "velocity": 79,
      "chip": "ym2612"
    },
    {
      "channel": 5,
      "note": 70,
      "start": 48.0672,
      "duration": 1.3159,
      "velocity": 78,
      "chip": "ym2612"
    },
    {
      "channel": 0,
      "note": 73,
      "start": 48.8951,
      "duration": 0.3228,
      "velocity": 83,
      "chip": "ym2612"
    },
    {
      "channel": 2,
      "note": 43,
      "start": 48.8957,
      "duration": 1.3193,
      "velocity": 106,
      "chip": "ym2612"
    },
    {
      "channel": 3,
      "note": 43,
      "start": 48.8962,
      "duration": 1.3189,
      "velocity": 106,
      "chip": "ym2612"
    },
    {
      "channel": 4,
      "note": 70,
      "start": 48.8967,
      "duration": 1.3184,
      "velocity": 81,
      "chip": "ym2612"
    },
    {
      "channel": 0,
      "note": 72,
      "start": 49.2252,
      "duration": 0.3227,
      "velocity": 83,
      "chip": "ym2612"
    },
    {
      "channel": 1,
      "note": 73,
      "start": 49.3909,
      "duration": 0.322,
      "velocity": 79,
      "chip": "ym2612"
    },
    {
      "channel": 5,
      "note": 70,
      "start": 49.3915,
      "duration": 1.3187,
      "velocity": 78,
      "chip": "ym2612"
    },
    {
      "channel": 0,
      "note": 70,
      "start": 49.5553,
      "duration": 0.3261,
      "velocity": 83,
      "chip": "ym2612"
    },
    {
      "channel": 1,
      "note": 72,
      "start": 49.7203,
      "duration": 0.3261,
      "velocity": 79,
      "chip": "ym2612"
    },
    {
      "channel": 0,
      "note": 73,
      "start": 49.8888,
      "duration": 0.3261,
      "velocity": 83,
      "chip": "ym2612"
    },
    {
      "channel": 1,
      "note": 70,
      "start": 50.0538,
      "duration": 0.3261,
      "velocity": 79,
      "chip": "ym2612"
    },
    {
      "channel": 0,
      "note": 72,
      "start": 50.2226,
      "duration": 0.6524,
      "velocity": 83,
      "chip": "ym2612"
    },
    {
      "channel": 2,
      "note": 44,
      "start": 50.223,
      "duration": 1.312,
      "velocity": 106,
      "chip": "ym2612"
    },
    {
      "channel": 3,
      "note": 44,
      "start": 50.2235,
      "duration": 1.3116,
      "velocity": 106,
      "chip": "ym2612"
    },
    {
      "channel": 4,
      "note": 72,
      "start": 50.2241,
      "duration": 1.3112,
      "velocity": 81,
      "chip": "ym2612"
    },
    {
      "channel": 1,
      "note": 73,
      "start": 50.3872,
      "duration": 0.3228,
      "velocity": 79,
      "chip": "ym2612"
    },
    {
      "channel": 1,
      "note": 72,
      "start": 50.7173,
      "duration": 0.6528,
      "velocity": 79,
      "chip": "ym2612"
    },
    {
      "channel": 5,
      "note": 72,
      "start": 50.7178,
      "duration": 1.3123,
      "velocity": 78,
      "chip": "ym2612"
    },
    {
      "channel": 0,
      "note": 68,
      "start": 50.8826,
      "duration": 1.3126,
      "velocity": 83,
      "chip": "ym2612"
    },
    {
      "channel": 1,
      "note": 68,
      "start": 51.3773,
      "duration": 1.313,
      "velocity": 79,
      "chip": "ym2612"
    },
    {
      "channel": 2,
      "note": 48,
      "start": 51.5427,
      "duration": 0.6526,
      "velocity": 106,
      "chip": "ym2612"
    },
    {
      "channel": 3,
      "note": 48,
      "start": 51.5432,
      "duration": 0.6522,
      "velocity": 106,
      "chip": "ym2612"
    },
    {
      "channel": 4,
      "note": 75,
      "start": 51.5437,
      "duration": 1.3119,
      "velocity": 81,
      "chip": "ym2612"
    },
    {
      "channel": 5,
      "note": 75,
      "start": 52.0376,
      "duration": 1.3129,
      "velocity": 78,
      "chip": "ym2612"
    },
    {
      "channel": 0,
      "note": 70,
      "start": 52.2028,
      "duration": 0.3224,
      "velocity": 83,
      "chip": "ym2612"
    },
    {
      "channel": 2,
      "note": 44,
      "start": 52.2033,
      "duration": 0.6522,
      "velocity": 106,
      "chip": "ym2612"
    },
    {
      "channel": 3,
      "note": 44,
      "start": 52.2038,
      "duration": 0.6518,
      "velocity": 106,
      "chip": "ym2612"
    },
    {
      "channel": 0,
      "note": 72,
      "start": 52.5328,
      "duration": 0.3225,
      "velocity": 83,
      "chip": "ym2612"
    },
    {
      "channel": 1,
      "note": 70,
      "start": 52.6976,
      "duration": 0.3228,
      "velocity": 79,
      "chip": "ym2612"
    },
    {
      "channel": 0,
      "note": 73,
      "start": 52.8629,
      "duration": 1.3125,
      "velocity": 83,
      "chip": "ym2612"
    },
    {
      "channel": 2,
      "note": 46,
      "start": 52.8634,
      "duration": 1.3122,
      "velocity": 106,
      "chip": "ym2612"
    },
    {
      "channel": 3,
      "note": 46,
      "start": 52.8639,
      "duration": 1.3118,
      "velocity": 106,
      "chip": "ym2612"
    },
    {
      "channel": 4,
      "note": 77,
      "start": 52.8644,
      "duration": 1.3113,
      "velocity": 81,
      "chip": "ym2612"
    },
    {
      "channel": 1,
      "note": 72,
      "start": 53.0277,
      "duration": 0.3227,
      "velocity": 79,
      "chip": "ym2612"
    },
    {
      "channel": 1,
      "note": 73,
      "start": 53.3577,
      "duration": 1.3128,
      "velocity": 79,
      "chip": "ym2612"
    },
    {
      "channel": 5,
      "note": 77,
      "start": 53.3583,
      "duration": 1.3124,
      "velocity": 78,
      "chip": "ym2612"
    },
    {
      "channel": 0,
      "note": 73,
      "start": 54.1831,
      "duration": 0.3224,
      "velocity": 83,
      "chip": "ym2612"
    },
    {
      "channel": 2,
      "note": 45,
      "start": 54.1836,
      "duration": 1.3122,
      "velocity": 106,
      "chip": "ym2612"
    },
    {
      "channel": 3,
      "note": 45,
      "start": 54.1841,
      "duration": 1.3118,
      "velocity": 106,
      "chip": "ym2612"
    },
    {
      "channel": 4,
      "note": 77,
      "start": 54.1846,
      "duration": 1.3113,
      "velocity": 81,
      "chip": "ym2612"
    },
    {
      "channel": 0,
      "note": 72,
      "start": 54.5131,
      "duration": 0.3225,
      "velocity": 83,
      "chip": "ym2612"
    },
    {
      "channel": 1,
      "note": 73,
      "start": 54.6779,
      "duration": 0.3227,
      "velocity": 79,
      "chip": "ym2612"
    },
    {
      "channel": 5,
      "note": 77,
      "start": 54.6785,
      "duration": 1.3124,
      "velocity": 78,
      "chip": "ym2612"
    },
    {
      "channel": 0,
      "note": 70,
      "start": 54.8432,
      "duration": 0.3224,
      "velocity": 83,
      "chip": "ym2612"
    },
    {
      "channel": 1,
      "note": 72,
      "start": 55.0079,
      "duration": 0.3228,
      "velocity": 79,
      "chip": "ym2612"
    },
    {
      "channel": 0,
      "note": 73,
      "start": 55.1731,
      "duration": 0.3225,
      "velocity": 83,
      "chip": "ym2612"
    },
    {
      "channel": 1,
      "note": 70,
      "start": 55.3381,
      "duration": 0.3225,
      "velocity": 79,
      "chip": "ym2612"
    },
    {
      "channel": 0,
      "note": 72,
      "start": 55.5031,
      "duration": 0.6526,
      "velocity": 83,
      "chip": "ym2612"
    },
    {
      "channel": 2,
      "note": 44,
      "start": 55.5036,
      "duration": 0.6522,
      "velocity": 106,
      "chip": "ym2612"
    },
    {
      "channel": 3,
      "note": 44,
      "start": 55.5041,
      "duration": 0.6518,
      "velocity": 106,
      "chip": "ym2612"
    },
    {
      "channel": 4,
      "note": 75,
      "start": 55.5046,
      "duration": 0.6514,
      "velocity": 81,
      "chip": "ym2612"
    },
    {
      "channel": 1,
      "note": 73,
      "start": 55.6681,
      "duration": 0.3227,
      "velocity": 79,
      "chip": "ym2612"
    },
    {
      "channel": 1,
      "note": 72,
      "start": 55.998,
      "duration": 0.6528,
      "velocity": 79,
      "chip": "ym2612"
    },
    {
      "channel": 5,
      "note": 75,
      "start": 55.9986,
      "duration": 0.6523,
      "velocity": 78,
      "chip": "ym2612"
    },
    {
      "channel": 0,
      "note": 70,
      "start": 56.1631,
      "duration": 0.6528,
      "velocity": 83,
      "chip": "ym2612"
    },
    {
      "channel": 2,
      "note": 43,
      "start": 56.1637,
      "duration": 0.6523,
      "velocity": 106,
      "chip": "ym2612"
    },
    {
      "channel": 3,
      "note": 43,
      "start": 56.1642,
      "duration": 0.6519,
      "velocity": 106,
      "chip": "ym2612"
    },
    {
      "channel": 4,
      "note": 73,
      "start": 56.1647,
      "duration": 0.6515,
      "velocity": 81,
      "chip": "ym2612"
    },
    {
      "channel": 1,
      "note": 70,
      "start": 56.6581,
      "duration": 0.6528,
      "velocity": 79,
      "chip": "ym2612"
    },
    {
      "channel": 5,
      "note": 73,
      "start": 56.6587,
      "duration": 0.6523,
      "velocity": 78,
      "chip": "ym2612"
    },
    {
      "channel": 0,
      "note": 68,
      "start": 56.8232,
      "duration": 0.6528,
      "velocity": 83,
      "chip": "ym2612"
    },
    {
      "channel": 2,
      "note": 41,
      "start": 56.8236,
      "duration": 0.6524,
      "velocity": 106,
      "chip": "ym2612"
    },
    {
      "channel": 3,
      "note": 41,
      "start": 56.8241,
      "duration": 0.652,
      "velocity": 106,
      "chip": "ym2612"
    },
    {
      "channel": 4,
      "note": 72,
      "start": 56.8246,
      "duration": 0.6516,
      "velocity": 81,
      "chip": "ym2612"
    },
    {
      "channel": 1,
      "note": 68,
      "start": 57.3182,
      "duration": 0.6529,
      "velocity": 79,
      "chip": "ym2612"
    },
    {
      "channel": 5,
      "note": 72,
      "start": 57.3188,
      "duration": 0.6524,
      "velocity": 78,
      "chip": "ym2612"
    },
    {
      "channel": 0,
      "note": 67,
      "start": 57.4832,
      "duration": 0.6529,
      "velocity": 83,
      "chip": "ym2612"
    },
    {
      "channel": 2,
      "note": 39,
      "start": 57.4838,
      "duration": 0.6524,
      "velocity": 106,
      "chip": "ym2612"
    },
    {
      "channel": 3,
      "note": 39,
      "start": 57.4843,
      "duration": 0.652,
      "velocity": 106,
      "chip": "ym2612"
    },
    {
      "channel": 4,
      "note": 70,
      "start": 57.4849,
      "duration": 0.6516,
      "velocity": 81,
      "chip": "ym2612"
    },
    {
      "channel": 1,
      "note": 67,
      "start": 57.9784,
      "duration": 0.6527,
      "velocity": 79,
      "chip": "ym2612"
    },
    {
      "channel": 5,
      "note": 70,
      "start": 57.9789,
      "duration": 0.6523,
      "velocity": 78,
      "chip": "ym2612"
    },
    {
      "channel": 0,
      "note": 65,
      "start": 58.1434,
      "duration": 1.3128,
      "velocity": 83,
      "chip": "ym2612"
    },
    {
      "channel": 2,
      "note": 37,
      "start": 58.1439,
      "duration": 1.3124,
      "velocity": 106,
      "chip": "ym2612"
    },
    {
      "channel": 3,
      "note": 37,
      "start": 58.1444,
      "duration": 1.312,
      "velocity": 106,
      "chip": "ym2612"
    },
    {
      "channel": 4,
      "note": 68,
      "start": 58.1449,
      "duration": 1.3116,
      "velocity": 81,
      "chip": "ym2612"
    },
    {
      "channel": 1,
      "note": 65,
      "start": 58.6385,
      "duration": 1.3129,
      "velocity": 79,
      "chip": "ym2612"
    },
    {
      "channel": 5,
      "note": 68,
      "start": 58.639,
      "duration": 1.3124,
      "velocity": 78,
      "chip": "ym2612"
    },
    {
      "channel": 0,
      "note": 67,
      "start": 59.4636,
      "duration": 0.4327,
      "velocity": 83,
      "chip": "ym2612"
    },
    {
      "channel": 2,
      "note": 38,
      "start": 59.464,
      "duration": 1.3126,
      "velocity": 106,
      "chip": "ym2612"
    },
    {
      "channel": 3,
      "note": 38,
      "start": 59.4645,
      "duration": 1.3122,
      "velocity": 106,
      "chip": "ym2612"
    },
    {
      "channel": 4,
      "note": 70,
      "start": 59.4651,
      "duration": 1.3117,
      "velocity": 81,
      "chip": "ym2612"
    },
    {
      "channel": 0,
      "note": 68,
      "start": 59.9037,
      "duration": 0.4329,
      "velocity": 83,
      "chip": "ym2612"
    },
    {
      "channel": 1,
      "note": 67,
      "start": 59.9586,
      "duration": 0.4328,
      "velocity": 79,
      "chip": "ym2612"
    },
    {
      "channel": 5,
      "note": 70,
      "start": 59.9591,
      "duration": 1.3193,
      "velocity": 78,
      "chip": "ym2612"
    },
    {
      "channel": 0,
      "note": 72,
      "start": 60.3437,
      "duration": 0.4328,
      "velocity": 83,
      "chip": "ym2612"
    },
    {
      "channel": 1,
      "note": 68,
      "start": 60.3987,
      "duration": 0.4328,
      "velocity": 79,
      "chip": "ym2612"
    },
    {
      "channel": 0,
      "note": 70,
      "start": 60.7838,
      "duration": 1.3231,
      "velocity": 83,
      "chip": "ym2612"
    },
    {
      "channel": 2,
      "note": 39,
      "start": 60.7843,
      "duration": 1.3227,
      "velocity": 106,
      "chip": "ym2612"
    },
    {
      "channel": 3,
      "note": 39,
      "start": 60.7848,
      "duration": 1.3223,
      "velocity": 106,
      "chip": "ym2612"
    },
    {
      "channel": 4,
      "note": 79,
      "start": 60.7854,
      "duration": 0.6615,
      "velocity": 81,
      "chip": "ym2612"
    },
    {
      "channel": 1,
      "note": 72,
      "start": 60.8388,
      "duration": 0.4396,
      "velocity": 79,
      "chip": "ym2612"
    },
    {
      "channel": 1,
      "note": 70,
      "start": 61.2858,
      "duration": 1.3162,
      "velocity": 79,
      "chip": "ym2612"
    },
    {
      "channel": 5,
      "note": 79,
      "start": 61.2863,
      "duration": 0.6556,
      "velocity": 78,
      "chip": "ym2612"
    },
    {
      "channel": 4,
      "note": 75,
      "start": 61.4542,
      "duration": 0.653,
      "velocity": 81,
      "chip": "ym2612"
    },
    {
      "channel": 5,
      "note": 75,
      "start": 61.9493,
      "duration": 0.6528,
      "velocity": 78,
      "chip": "ym2612"
    },
    {
      "channel": 0,
      "note": 68,
      "start": 62.1142,
      "duration": 0.6528,
      "velocity": 83,
      "chip": "ym2612"
    },
    {
      "channel": 2,
      "note": 41,
      "start": 62.1147,
      "duration": 0.6524,
      "velocity": 106,
      "chip": "ym2612"
    },
    {
      "channel": 3,
      "note": 41,
      "start": 62.1152,
      "duration": 0.652,
      "velocity": 106,
      "chip": "ym2612"
    },
    {
      "channel": 4,
      "note": 72,
      "start": 62.1157,
      "duration": 0.6516,
      "velocity": 81,
      "chip": "ym2612"
    },
    {
      "channel": 1,
      "note": 68,
      "start": 62.6093,
      "duration": 0.6528,
      "velocity": 79,
      "chip": "ym2612"
    },
    {
      "channel": 5,
      "note": 72,
      "start": 62.6098,
      "duration": 0.1576,
      "velocity": 78,
      "chip": "ym2612"
    },
    {
      "channel": 0,
      "note": 67,
      "start": 62.7743,
      "duration": 0.6528,
      "velocity": 83,
      "chip": "ym2612"
    },
    {
      "channel": 2,
      "note": 39,
      "start": 62.7748,
      "duration": 0.6524,
      "velocity": 106,
      "chip": "ym2612"
    },
    {
      "channel": 3,
      "note": 39,
      "start": 62.7753,
      "duration": 0.652,
      "velocity": 106,
      "chip": "ym2612"
    },
    {
      "channel": 4,
      "note": 70,
      "start": 62.7759,
      "duration": 0.6515,
      "velocity": 81,
      "chip": "ym2612"
    },
    {
      "channel": 1,
      "note": 67,
      "start": 63.2695,
      "duration": 0.158,
      "velocity": 79,
      "chip": "ym2612"
    },
    {
      "channel": 0,
      "note": 68,
      "start": 63.4356,
      "duration": 0.6503,
      "velocity": 83,
      "chip": "ym2612"
    },
    {
      "channel": 2,
      "note": 44,
      "start": 63.4372,
      "duration": 0.6488,
      "velocity": 106,
      "chip": "ym2612"
    },
    {
      "channel": 3,
      "note": 44,
      "start": 63.4389,
      "duration": 0.6471,
      "velocity": 106,
      "chip": "ym2612"
    },
    {
      "channel": 4,
      "note": 72,
      "start": 63.4405,
      "duration": 0.6454,
      "velocity": 81,
      "chip": "ym2612"
    },
    {
      "channel": 1,
      "note": 68,
      "start": 63.9305,
      "duration": 0.1555,
      "velocity": 79,
      "chip": "ym2612"
    },
    {
      "channel": 5,
      "note": 72,
      "start": 63.932,
      "duration": 0.1539,
      "velocity": 78,
      "chip": "ym2612"
    }
  ]
}