{
  "track_name": "04 - Statts",
  "duration_sec": 61.425,
  "sample_rate": 44100,
  "note_count": 546,
  "unique_pitches": 21,
  "pitch_range": 45,
  "avg_note_duration": 0.3519,
  "reconstruction_stats": {
    "notes_reconstructed": 546,
    "keyon_events": 546,
    "keyoff_events": 546,
    "orphan_keyons": 0,
    "unique_pitches": 21,
    "pitch_range": 45,
    "avg_duration_sec": 0.3519
  },
  "metadata": {
    "source": "S\\Sword of Vermilion\\04 - Statts.vgz"
  },
  "notes": [
    {
      "channel": 0,
      "note": 45,
      "start": 0.0018,
      "duration": 5.7474,
      "velocity": 97,
      "chip": "ym2612"
    },
    {
      "channel": 1,
      "note": 57,
      "start": 0.0033,
      "duration": 5.8232,
      "velocity": 81,
      "chip": "ym2612"
    },
    {
      "channel": 3,
      "note": 57,
      "start": 0.0224,
      "duration": 5.8105,
      "velocity": 81,
      "chip": "ym2612"
    },
    {
      "channel": 2,
      "note": 69,
      "start": 0.0657,
      "duration": 0.2331,
      "velocity": 71,
      "chip": "ym2612"
    },
    {
      "channel": 4,
      "note": 69,
      "start": 0.0994,
      "duration": 0.2497,
      "velocity": 71,
      "chip": "ym2612"
    },
    {
      "channel": 2,
      "note": 76,
      "start": 0.299,
      "duration": 0.2497,
      "velocity": 71,
      "chip": "ym2612"
    },
    {
      "channel": 4,
      "note": 76,
      "start": 0.3494,
      "duration": 0.2331,
      "velocity": 71,
      "chip": "ym2612"
    },
    {
      "channel": 2,
      "note": 81,
      "start": 0.549,
      "duration": 0.2331,
      "velocity": 71,
      "chip": "ym2612"
    },
    {
      "channel": 4,
      "note": 81,
      "start": 0.5827,
      "duration": 0.2014,
      "velocity": 71,
      "chip": "ym2612"
    },
    {
      "channel": 2,
      "note": 77,
      "start": 0.8997,
      "duration": 0.2331,
      "velocity": 71,
      "chip": "ym2612"
    },
    {
      "channel": 4,
      "note": 77,
      "start": 0.9333,
      "duration": 0.2331,
      "velocity": 71,
      "chip": "ym2612"
    },
    {
      "channel": 2,
      "note": 84,
      "start": 1.133,
      "duration": 0.2331,
      "velocity": 71,
      "chip": "ym2612"
    },
    {
      "channel": 4,
      "note": 84,
      "start": 1.1667,
      "duration": 0.2017,
      "velocity": 71,
      "chip": "ym2612"
    },
    {
      "channel": 2,
      "note": 79,
      "start": 1.3663,
      "duration": 0.0882,
      "velocity": 71,
      "chip": "ym2612"
    },
    {
      "channel": 4,
      "note": 79,
      "start": 1.3685,
      "duration": 0.0876,
      "velocity": 71,
      "chip": "ym2612"
    },
    {
      "channel": 2,
      "note": 69,
      "start": 1.5253,
      "duration": 0.2498,
      "velocity": 71,
      "chip": "ym2612"
    },
    {
      "channel": 4,
      "note": 69,
      "start": 1.5756,
      "duration": 0.2331,
      "velocity": 71,
      "chip": "ym2612"
    },
    {
      "channel": 2,
      "note": 76,
      "start": 1.7753,
      "duration": 0.2331,
      "velocity": 71,
      "chip": "ym2612"
    },
    {
      "channel": 4,
      "note": 76,
      "start": 1.8089,
      "duration": 0.2012,
      "velocity": 71,
      "chip": "ym2612"
    },
    {
      "channel": 2,
      "note": 81,
      "start": 2.0086,
      "duration": 0.182,
      "velocity": 71,
      "chip": "ym2612"
    },
    {
      "channel": 4,
      "note": 81,
      "start": 2.0104,
      "duration": 0.1818,
      "velocity": 71,
      "chip": "ym2612"
    },
    {
      "channel": 2,
      "note": 77,
      "start": 2.3892,
      "duration": 0.2331,
      "velocity": 71,
      "chip": "ym2612"
    },
    {
      "channel": 4,
      "note": 77,
      "start": 2.4228,
      "duration": 0.2497,
      "velocity": 71,
      "chip": "ym2612"
    },
    {
      "channel": 2,
      "note": 84,
      "start": 2.6225,
      "duration": 0.2497,
      "velocity": 71,
      "chip": "ym2612"
    },
    {
      "channel": 4,
      "note": 84,
      "start": 2.6728,
      "duration": 0.2331,
      "velocity": 71,
      "chip": "ym2612"
    },
    {
      "channel": 2,
      "note": 79,
      "start": 2.8725,
      "duration": 0.2331,
      "velocity": 71,
      "chip": "ym2612"
    },
    {
      "channel": 4,
      "note": 79,
      "start": 2.9062,
      "duration": 0.201,
      "velocity": 71,
      "chip": "ym2612"
    },
    {
      "channel": 2,
      "note": 69,
      "start": 3.1761,
      "duration": 0.2497,
      "velocity": 71,
      "chip": "ym2612"
    },
    {
      "channel": 4,
      "note": 69,
      "start": 3.2264,
      "duration": 0.2331,
      "velocity": 71,
      "chip": "ym2612"
    },
    {
      "channel": 2,
      "note": 76,
      "start": 3.4261,
      "duration": 0.2331,
      "velocity": 71,
      "chip": "ym2612"
    },
    {
      "channel": 4,
      "note": 76,
      "start": 3.4598,
      "duration": 0.2497,
      "velocity": 71,
      "chip": "ym2612"
    },
    {
      "channel": 2,
      "note": 81,
      "start": 3.6594,
      "duration": 0.2497,
      "velocity": 71,
      "chip": "ym2612"
    },
    {
      "channel": 4,
      "note": 81,
      "start": 3.7098,
      "duration": 0.2009,
      "velocity": 71,
      "chip": "ym2612"
    },
    {
      "channel": 2,
      "note": 77,
      "start": 4.0098,
      "duration": 0.2331,
      "velocity": 71,
      "chip": "ym2612"
    },
    {
      "channel": 4,
      "note": 77,
      "start": 4.0434,
      "duration": 0.2497,
      "velocity": 71,
      "chip": "ym2612"
    },
    {
      "channel": 2,
      "note": 84,
      "start": 4.2431,
      "duration": 0.2497,
      "velocity": 71,
      "chip": "ym2612"
    },
    {
      "channel": 4,
      "note": 84,
      "start": 4.2934,
      "duration": 0.2013,
      "velocity": 71,
      "chip": "ym2612"
    },
    {
      "channel": 2,
      "note": 79,
      "start": 4.4931,
      "duration": 0.072,
      "velocity": 71,
      "chip": "ym2612"
    },
    {
      "channel": 4,
      "note": 79,
      "start": 4.4949,
      "duration": 0.0721,
      "velocity": 71,
      "chip": "ym2612"
    },
    {
      "channel": 2,
      "note": 69,
      "start": 4.6526,
      "duration": 0.2331,
      "velocity": 71,
      "chip": "ym2612"
    },
    {
      "channel": 4,
      "note": 69,
      "start": 4.6863,
      "duration": 0.2331,
      "velocity": 71,
      "chip": "ym2612"
    },
    {
      "channel": 2,
      "note": 76,
      "start": 4.8859,
      "duration": 0.2331,
      "velocity": 71,
      "chip": "ym2612"
    },
    {
      "channel": 4,
      "note": 76,
      "start": 4.9196,
      "duration": 0.2018,
      "velocity": 71,
      "chip": "ym2612"
    },
    {
      "channel": 2,
      "note": 81,
      "start": 5.1193,
      "duration": 0.1987,
      "velocity": 71,
      "chip": "ym2612"
    },
    {
      "channel": 4,
      "note": 81,
      "start": 5.1215,
      "duration": 0.1976,
      "velocity": 71,
      "chip": "ym2612"
    },
    {
      "channel": 2,
      "note": 77,
      "start": 5.4997,
      "duration": 0.2499,
      "velocity": 71,
      "chip": "ym2612"
    },
    {
      "channel": 4,
      "note": 77,
      "start": 5.55,
      "duration": 0.2013,
      "velocity": 71,
      "chip": "ym2612"
    },
    {
      "channel": 2,
      "note": 84,
      "start": 5.7498,
      "duration": 0.0073,
      "velocity": 71,
      "chip": "ym2612"
    },
    {
      "channel": 4,
      "note": 84,
      "start": 5.7515,
      "duration": 0.0069,
      "velocity": 71,
      "chip": "ym2612"
    },
    {
      "channel": 2,
      "note": 79,
      "start": 5.7573,
      "duration": 0.0696,
      "velocity": 71,
      "chip": "ym2612"
    },
    {
      "channel": 4,
      "note": 79,
      "start": 5.7585,
      "duration": 0.0712,
      "velocity": 71,
      "chip": "ym2612"
    },
    {
      "channel": 0,
      "note": 45,
      "start": 5.8249,
      "duration": 0.0897,
      "velocity": 97,
      "chip": "ym2612"
    },
    {
      "channel": 1,
      "note": 71,
      "start": 5.8268,
      "duration": 2.0316,
      "velocity": 81,
      "chip": "ym2612"
    },
    {
      "channel": 3,
      "note": 71,
      "start": 5.8332,
      "duration": 2.0903,
      "velocity": 81,
      "chip": "ym2612"
    },
    {
      "channel": 2,
      "note": 69,
      "start": 5.9152,
      "duration": 0.2332,
      "velocity": 71,
      "chip": "ym2612"
    },
    {
      "channel": 4,
      "note": 69,
      "start": 5.9488,
      "duration": 0.2498,
      "velocity": 71,
      "chip": "ym2612"
    },
    {
      "channel": 0,
      "note": 45,
      "start": 6.1482,
      "duration": 0.2498,
      "velocity": 97,
      "chip": "ym2612"
    },
    {
      "channel": 2,
      "note": 76,
      "start": 6.1487,
      "duration": 0.2496,
      "velocity": 71,
      "chip": "ym2612"
    },
    {
      "channel": 4,
      "note": 76,
      "start": 6.1988,
      "duration": 0.2331,
      "velocity": 71,
      "chip": "ym2612"
    },
    {
      "channel": 2,
      "note": 81,
      "start": 6.3985,
      "duration": 0.2329,
      "velocity": 71,
      "chip": "ym2612"
    },
    {
      "channel": 4,
      "note": 81,
      "start": 6.4321,
      "duration": 0.201,
      "velocity": 71,
      "chip": "ym2612"
    },
    {
      "channel": 2,
      "note": 77,
      "start": 6.7325,
      "duration": 0.2497,
      "velocity": 71,
      "chip": "ym2612"
    },
    {
      "channel": 4,
      "note": 77,
      "start": 6.7828,
      "duration": 0.2331,
      "velocity": 71,
      "chip": "ym2612"
    },
    {
      "channel": 2,
      "note": 84,
      "start": 6.9825,
      "duration": 0.2331,
      "velocity": 71,
      "chip": "ym2612"
    },
    {
      "channel": 4,
      "note": 84,
      "start": 7.0161,
      "duration": 0.2021,
      "velocity": 71,
      "chip": "ym2612"
    },
    {
      "channel": 2,
      "note": 79,
      "start": 7.2158,
      "duration": 0.0888,
      "velocity": 71,
      "chip": "ym2612"
    },
    {
      "channel": 4,
      "note": 79,
      "start": 7.2184,
      "duration": 0.0876,
      "velocity": 71,
      "chip": "ym2612"
    },
    {
      "channel": 2,
      "note": 69,
      "start": 7.3754,
      "duration": 0.2331,
      "velocity": 71,
      "chip": "ym2612"
    },
    {
      "channel": 4,
      "note": 69,
      "start": 7.409,
      "duration": 0.2497,
      "velocity": 71,
      "chip": "ym2612"
    },
    {
      "channel": 2,
      "note": 76,
      "start": 7.6087,
      "duration": 0.2498,
      "velocity": 71,
      "chip": "ym2612"
    },
    {
      "channel": 4,
      "note": 76,
      "start": 7.659,
      "duration": 0.2008,
      "velocity": 71,
      "chip": "ym2612"
    },
    {
      "channel": 2,
      "note": 81,
      "start": 7.8587,
      "duration": 0.1813,
      "velocity": 71,
      "chip": "ym2612"
    },
    {
      "channel": 4,
      "note": 81,
      "start": 7.86,
      "duration": 0.1809,
      "velocity": 71,
      "chip": "ym2612"
    },
    {
      "channel": 1,
      "note": 69,
      "start": 8.2381,
      "duration": 0.2332,
      "velocity": 81,
      "chip": "ym2612"
    },
    {
      "channel": 2,
      "note": 77,
      "start": 8.2384,
      "duration": 0.2332,
      "velocity": 71,
      "chip": "ym2612"
    },
    {
      "channel": 4,
      "note": 77,
      "start": 8.2718,
      "duration": 0.2332,
      "velocity": 71,
      "chip": "ym2612"
    },
    {
      "channel": 3,
      "note": 69,
      "start": 8.3551,
      "duration": 0.2332,
      "velocity": 81,
      "chip": "ym2612"
    },
    {
      "channel": 1,
      "note": 71,
      "start": 8.4714,
      "duration": 0.2332,
      "velocity": 81,
      "chip": "ym2612"
    },
    {
      "channel": 2,
      "note": 84,
      "start": 8.4717,
      "duration": 0.2332,
      "velocity": 71,
      "chip": "ym2612"
    },
    {
      "channel": 4,
      "note": 84,
      "start": 8.5053,
      "duration": 0.2497,
      "velocity": 71,
      "chip": "ym2612"
    },
    {
      "channel": 3,
      "note": 71,
      "start": 8.5884,
      "duration": 0.2498,
      "velocity": 81,
      "chip": "ym2612"
    },
    {
      "channel": 1,
      "note": 74,
      "start": 8.7048,
      "duration": 0.2501,
      "velocity": 81,
      "chip": "ym2612"
    },
    {
      "channel": 2,
      "note": 79,
      "start": 8.7051,
      "duration": 0.2501,
      "velocity": 71,
      "chip": "ym2612"
    },
    {
      "channel": 4,
      "note": 79,
      "start": 8.7553,
      "duration": 0.2013,
      "velocity": 71,
      "chip": "ym2612"
    },
    {
      "channel": 3,
      "note": 74,
      "start": 8.8384,
      "duration": 0.1197,
      "velocity": 81,
      "chip": "ym2612"
    },
    {
      "channel": 0,
      "note": 45,
      "start": 8.9547,
      "duration": 0.0705,
      "velocity": 97,
      "chip": "ym2612"
    },
    {
      "channel": 1,
      "note": 76,
      "start": 8.955,
      "duration": 1.8966,
      "velocity": 81,
      "chip": "ym2612"
    },
    {
      "channel": 3,
      "note": 76,
      "start": 8.9583,
      "duration": 2.0106,
      "velocity": 81,
      "chip": "ym2612"
    },
    {
      "channel": 2,
      "note": 69,
      "start": 9.0257,
      "duration": 0.2499,
      "velocity": 71,
      "chip": "ym2612"
    },
    {
      "channel": 4,
      "note": 69,
      "start": 9.0759,
      "duration": 0.2331,
      "velocity": 71,
      "chip": "ym2612"
    },
    {
      "channel": 0,
      "note": 45,
      "start": 9.2754,
      "duration": 0.2332,
      "velocity": 97,
      "chip": "ym2612"
    },
    {
      "channel": 2,
      "note": 76,
      "start": 9.2759,
      "duration": 0.2329,
      "velocity": 71,
      "chip": "ym2612"
    },
    {
      "channel": 4,
      "note": 76,
      "start": 9.3093,
      "duration": 0.2331,
      "velocity": 71,
      "chip": "ym2612"
    },
    {
      "channel": 2,
      "note": 81,
      "start": 9.5091,
      "duration": 0.2329,
      "velocity": 71,
      "chip": "ym2612"
    },
    {
      "channel": 4,
      "note": 81,
      "start": 9.5426,
      "duration": 0.2014,
      "velocity": 71,
      "chip": "ym2612"
    },
    {
      "channel": 2,
      "note": 77,
      "start": 9.8594,
      "duration": 0.2331,
      "velocity": 71,
      "chip": "ym2612"
    },
    {
      "channel": 4,
      "note": 77,
      "start": 9.8931,
      "duration": 0.2497,
      "velocity": 71,
      "chip": "ym2612"
    },
    {
      "channel": 2,
      "note": 84,
      "start": 10.0927,
      "duration": 0.2497,
      "velocity": 71,
      "chip": "ym2612"
    },
    {
      "channel": 4,
      "note": 84,
      "start": 10.1431,
      "duration": 0.2013,
      "velocity": 71,
      "chip": "ym2612"
    },
    {
      "channel": 2,
      "note": 79,
      "start": 10.3427,
      "duration": 0.0719,
      "velocity": 71,
      "chip": "ym2612"
    },
    {
      "channel": 4,
      "note": 79,
      "start": 10.3445,
      "duration": 0.0715,
      "velocity": 71,
      "chip": "ym2612"
    },
    {
      "channel": 2,
      "note": 69,
      "start": 10.4853,
      "duration": 0.2498,
      "velocity": 71,
      "chip": "ym2612"
    },
    {
      "channel": 4,
      "note": 69,
      "start": 10.5356,
      "duration": 0.2331,
      "velocity": 71,
      "chip": "ym2612"
    },
    {
      "channel": 2,
      "note": 76,
      "start": 10.7353,
      "duration": 0.2333,
      "velocity": 71,
      "chip": "ym2612"
    },
    {
      "channel": 4,
      "note": 76,
      "start": 10.769,
      "duration": 0.2015,
      "velocity": 71,
      "chip": "ym2612"
    },
    {
      "channel": 1,
      "note": 69,
      "start": 10.9685,
      "duration": 0.1983,
      "velocity": 81,
      "chip": "ym2612"
    },
    {
      "channel": 2,
      "note": 81,
      "start": 10.9688,
      "duration": 0.1983,
      "velocity": 71,
      "chip": "ym2612"
    },
    {
      "channel": 4,
      "note": 81,
      "start": 10.9707,
      "duration": 0.1975,
      "velocity": 71,
      "chip": "ym2612"
    },
    {
      "channel": 3,
      "note": 69,
      "start": 11.0339,
      "duration": 0.1978,
      "velocity": 81,
      "chip": "ym2612"
    },
    {
      "channel": 1,
      "note": 71,
      "start": 11.1669,
      "duration": 0.1813,
      "velocity": 81,
      "chip": "ym2612"
    },
    {
      "channel": 3,
      "note": 71,
      "start": 11.232,
      "duration": 0.2333,
      "velocity": 81,
      "chip": "ym2612"
    },
    {
      "channel": 1,
      "note": 74,
      "start": 11.3484,
      "duration": 0.2332,
      "velocity": 81,
      "chip": "ym2612"
    },
    {
      "channel": 2,
      "note": 77,
      "start": 11.3487,
      "duration": 0.2332,
      "velocity": 71,
      "chip": "ym2612"
    },
    {
      "channel": 4,
      "note": 77,
      "start": 11.3823,
      "duration": 0.2018,
      "velocity": 71,
      "chip": "ym2612"
    },
    {
      "channel": 3,
      "note": 74,
      "start": 11.4654,
      "duration": 0.1212,
      "velocity": 81,
      "chip": "ym2612"
    },
    {
      "channel": 1,
      "note": 76,
      "start": 11.5817,
      "duration": 0.0082,
      "velocity": 81,
      "chip": "ym2612"
    },
    {
      "channel": 2,
      "note": 84,
      "start": 11.5821,
      "duration": 0.0081,
      "velocity": 71,
      "chip": "ym2612"
    },
    {
      "channel": 4,
      "note": 84,
      "start": 11.5842,
      "duration": 0.0074,
      "velocity": 71,
      "chip": "ym2612"
    },
    {
      "channel": 3,
      "note": 76,
      "start": 11.5867,
      "duration": 0.0074,
      "velocity": 81,
      "chip": "ym2612"
    },
    {
      "channel": 1,
      "note": 77,
      "start": 11.5901,
      "duration": 0.0841,
      "velocity": 81,
      "chip": "ym2612"
    },
    {
      "channel": 2,
      "note": 79,
      "start": 11.5903,
      "duration": 0.0842,
      "velocity": 71,
      "chip": "ym2612"
    },
    {
      "channel": 4,
      "note": 79,
      "start": 11.5918,
      "duration": 0.0857,
      "velocity": 71,
      "chip": "ym2612"
    },
    {
      "channel": 3,
      "note": 77,
      "start": 11.5944,
      "duration": 0.0848,
      "velocity": 81,
      "chip": "ym2612"
    },
    {
      "channel": 0,
      "note": 43,
      "start": 11.674,
      "duration": 0.089,
      "velocity": 97,
      "chip": "ym2612"
    },
    {
      "channel": 1,
      "note": 79,
      "start": 11.6744,
      "duration": 0.5555,
      "velocity": 81,
      "chip": "ym2612"
    },
    {
      "channel": 3,
      "note": 79,
      "start": 11.6793,
      "duration": 0.684,
      "velocity": 81,
      "chip": "ym2612"
    },
    {
      "channel": 2,
      "note": 67,
      "start": 11.7636,
      "duration": 0.2332,
      "velocity": 71,
      "chip": "ym2612"
    },
    {
      "channel": 4,
      "note": 67,
      "start": 11.7971,
      "duration": 0.2331,
      "velocity": 71,
      "chip": "ym2612"
    },
    {
      "channel": 0,
      "note": 43,
      "start": 11.9966,
      "duration": 0.2332,
      "velocity": 97,
      "chip": "ym2612"
    },
    {
      "channel": 2,
      "note": 74,
      "start": 11.9971,
      "duration": 0.233,
      "velocity": 71,
      "chip": "ym2612"
    },
    {
      "channel": 4,
      "note": 74,
      "start": 12.0305,
      "duration": 0.2496,
      "velocity": 71,
      "chip": "ym2612"
    },
    {
      "channel": 2,
      "note": 81,
      "start": 12.2303,
      "duration": 0.2498,
      "velocity": 71,
      "chip": "ym2612"
    },
    {
      "channel": 4,
      "note": 81,
      "start": 12.2803,
      "duration": 0.2008,
      "velocity": 71,
      "chip": "ym2612"
    },
    {
      "channel": 1,
      "note": 77,
      "start": 12.48,
      "duration": 0.5832,
      "velocity": 81,
      "chip": "ym2612"
    },
    {
      "channel": 3,
      "note": 77,
      "start": 12.4822,
      "duration": 0.5847,
      "velocity": 81,
      "chip": "ym2612"
    },
    {
      "channel": 2,
      "note": 77,
      "start": 12.5802,
      "duration": 0.2497,
      "velocity": 71,
      "chip": "ym2612"
    },
    {
      "channel": 4,
      "note": 77,
      "start": 12.6305,
      "duration": 0.2331,
      "velocity": 71,
      "chip": "ym2612"
    },
    {
      "channel": 2,
      "note": 84,
      "start": 12.8302,
      "duration": 0.2331,
      "velocity": 71,
      "chip": "ym2612"
    },
    {
      "channel": 4,
      "note": 84,
      "start": 12.8638,
      "duration": 0.201,
      "velocity": 71,
      "chip": "ym2612"
    },
    {
      "channel": 2,
      "note": 79,
      "start": 13.0635,
      "duration": 0.071,
      "velocity": 71,
      "chip": "ym2612"
    },
    {
      "channel": 4,
      "note": 79,
      "start": 13.0649,
      "duration": 0.0708,
      "velocity": 71,
      "chip": "ym2612"
    },
    {
      "channel": 1,
      "note": 76,
      "start": 13.1345,
      "duration": 0.9328,
      "velocity": 81,
      "chip": "ym2612"
    },
    {
      "channel": 3,
      "note": 76,
      "start": 13.1367,
      "duration": 1.0641,
      "velocity": 81,
      "chip": "ym2612"
    },
    {
      "channel": 2,
      "note": 67,
      "start": 13.2205,
      "duration": 0.2331,
      "velocity": 71,
      "chip": "ym2612"
    },
    {
      "channel": 4,
      "note": 67,
      "start": 13.2542,
      "duration": 0.2498,
      "velocity": 71,
      "chip": "ym2612"
    },
    {
      "channel": 2,
      "note": 74,
      "start": 13.4539,
      "duration": 0.2497,
      "velocity": 71,
      "chip": "ym2612"
    },
    {
      "channel": 4,
      "note": 74,
      "start": 13.5042,
      "duration": 0.2013,
      "velocity": 71,
      "chip": "ym2612"
    },
    {
      "channel": 2,
      "note": 81,
      "start": 13.7039,
      "duration": 0.182,
      "velocity": 71,
      "chip": "ym2612"
    },
    {
      "channel": 4,
      "note": 81,
      "start": 13.7057,
      "duration": 0.1814,
      "velocity": 71,
      "chip": "ym2612"
    },
    {
      "channel": 2,
      "note": 77,
      "start": 14.0676,
      "duration": 0.2499,
      "velocity": 71,
      "chip": "ym2612"
    },
    {
      "channel": 4,
      "note": 77,
      "start": 14.1178,
      "duration": 0.2331,
      "velocity": 71,
      "chip": "ym2612"
    },
    {
      "channel": 1,
      "note": 74,
      "start": 14.3174,
      "duration": 0.1165,
      "velocity": 81,
      "chip": "ym2612"
    },
    {
      "channel": 2,
      "note": 84,
      "start": 14.3178,
      "duration": 0.2332,
      "velocity": 71,
      "chip": "ym2612"
    },
    {
      "channel": 4,
      "note": 84,
      "start": 14.3512,
      "duration": 0.2499,
      "velocity": 71,
      "chip": "ym2612"
    },
    {
      "channel": 1,
      "note": 76,
      "start": 14.4341,
      "duration": 0.1165,
      "velocity": 81,
      "chip": "ym2612"
    },
    {
      "channel": 3,
      "note": 74,
      "start": 14.4346,
      "duration": 0.1166,
      "velocity": 81,
      "chip": "ym2612"
    },
    {
      "channel": 1,
      "note": 77,
      "start": 14.5508,
      "duration": 0.2501,
      "velocity": 81,
      "chip": "ym2612"
    },
    {
      "channel": 2,
      "note": 79,
      "start": 14.5511,
      "duration": 0.2501,
      "velocity": 71,
      "chip": "ym2612"
    },
    {
      "channel": 3,
      "note": 76,
      "start": 14.5514,
      "duration": 0.1162,
      "velocity": 81,
      "chip": "ym2612"
    },
    {
      "channel": 4,
      "note": 79,
      "start": 14.6013,
      "duration": 0.2013,
      "velocity": 71,
      "chip": "ym2612"
    },
    {
      "channel": 3,
      "note": 77,
      "start": 14.6678,
      "duration": 0.1364,
      "velocity": 81,
      "chip": "ym2612"
    },
    {
      "channel": 0,
      "note": 43,
      "start": 14.8007,
      "duration": 0.0702,
      "velocity": 97,
      "chip": "ym2612"
    },
    {
      "channel": 1,
      "note": 71,
      "start": 14.801,
      "duration": 1.6468,
      "velocity": 81,
      "chip": "ym2612"
    },
    {
      "channel": 3,
      "note": 71,
      "start": 14.8042,
      "duration": 1.7775,
      "velocity": 81,
      "chip": "ym2612"
    },
    {
      "channel": 2,
      "note": 67,
      "start": 14.8715,
      "duration": 0.2332,
      "velocity": 71,
      "chip": "ym2612"
    },
    {
      "channel": 4,
      "note": 67,
      "start": 14.905,
      "duration": 0.2497,
      "velocity": 71,
      "chip": "ym2612"
    },
    {
      "channel": 0,
      "note": 43,
      "start": 15.1044,
      "duration": 0.2498,
      "velocity": 97,
      "chip": "ym2612"
    },
    {
      "channel": 2,
      "note": 74,
      "start": 15.105,
      "duration": 0.2496,
      "velocity": 71,
      "chip": "ym2612"
    },
    {
      "channel": 4,
      "note": 74,
      "start": 15.155,
      "duration": 0.2331,
      "velocity": 71,
      "chip": "ym2612"
    },
    {
      "channel": 2,
      "note": 81,
      "start": 15.3548,
      "duration": 0.2329,
      "velocity": 71,
      "chip": "ym2612"
    },
    {
      "channel": 4,
      "note": 81,
      "start": 15.3884,
      "duration": 0.2013,
      "velocity": 71,
      "chip": "ym2612"
    },
    {
      "channel": 2,
      "note": 77,
      "start": 15.7052,
      "duration": 0.2331,
      "velocity": 71,
      "chip": "ym2612"
    },
    {
      "channel": 4,
      "note": 77,
      "start": 15.7388,
      "duration": 0.2331,
      "velocity": 71,
      "chip": "ym2612"
    },
    {
      "channel": 2,
      "note": 84,
      "start": 15.9385,
      "duration": 0.2331,
      "velocity": 71,
      "chip": "ym2612"
    },
    {
      "channel": 4,
      "note": 84,
      "start": 15.9722,
      "duration": 0.2017,
      "velocity": 71,
      "chip": "ym2612"
    },
    {
      "channel": 2,
      "note": 79,
      "start": 16.1719,
      "duration": 0.089,
      "velocity": 71,
      "chip": "ym2612"
    },
    {
      "channel": 4,
      "note": 79,
      "start": 16.1741,
      "duration": 0.0881,
      "velocity": 71,
      "chip": "ym2612"
    },
    {
      "channel": 2,
      "note": 67,
      "start": 16.3315,
      "duration": 0.2499,
      "velocity": 71,
      "chip": "ym2612"
    },
    {
      "channel": 4,
      "note": 67,
      "start": 16.3818,
      "duration": 0.2329,
      "velocity": 71,
      "chip": "ym2612"
    },
    {
      "channel": 1,
      "note": 64,
      "start": 16.5813,
      "duration": 0.2332,
      "velocity": 81,
      "chip": "ym2612"
    },
    {
      "channel": 2,
      "note": 74,
      "start": 16.5816,
      "duration": 0.2332,
      "velocity": 71,
      "chip": "ym2612"
    },
    {
      "channel": 4,
      "note": 74,
      "start": 16.615,
      "duration": 0.2017,
      "velocity": 71,
      "chip": "ym2612"
    },
    {
      "channel": 3,
      "note": 64,
      "start": 16.6983,
      "duration": 0.1821,
      "velocity": 81,
      "chip": "ym2612"
    },
    {
      "channel": 1,
      "note": 65,
      "start": 16.8146,
      "duration": 0.1821,
      "velocity": 81,
      "chip": "ym2612"
    },
    {
      "channel": 2,
      "note": 81,
      "start": 16.8149,
      "duration": 0.1821,
      "velocity": 71,
      "chip": "ym2612"
    },
    {
      "channel": 4,
      "note": 81,
      "start": 16.8168,
      "duration": 0.1819,
      "velocity": 71,
      "chip": "ym2612"
    },
    {
      "channel": 3,
      "note": 65,
      "start": 16.8806,
      "duration": 0.198,
      "velocity": 81,
      "chip": "ym2612"
    },
    {
      "channel": 1,
      "note": 67,
      "start": 16.9969,
      "duration": 0.1982,
      "velocity": 81,
      "chip": "ym2612"
    },
    {
      "channel": 3,
      "note": 67,
      "start": 17.0788,
      "duration": 0.2333,
      "velocity": 81,
      "chip": "ym2612"
    },
    {
      "channel": 1,
      "note": 69,
      "start": 17.1953,
      "duration": 0.2332,
      "velocity": 81,
      "chip": "ym2612"
    },
    {
      "channel": 2,
      "note": 77,
      "start": 17.1956,
      "duration": 0.2332,
      "velocity": 71,
      "chip": "ym2612"
    },
    {
      "channel": 4,
      "note": 77,
      "start": 17.2291,
      "duration": 0.2021,
      "velocity": 71,
      "chip": "ym2612"
    },
    {
      "channel": 3,
      "note": 69,
      "start": 17.3123,
      "duration": 0.1211,
      "velocity": 81,
      "chip": "ym2612"
    },
    {
      "channel": 1,
      "note": 74,
      "start": 17.4286,
      "duration": 0.0124,
      "velocity": 81,
      "chip": "ym2612"
    },
    {
      "channel": 2,
      "note": 84,
      "start": 17.4289,
      "duration": 0.0083,
      "velocity": 71,
      "chip": "ym2612"
    },
    {
      "channel": 4,
      "note": 84,
      "start": 17.4314,
      "duration": 0.0073,
      "velocity": 71,
      "chip": "ym2612"
    },
    {
      "channel": 3,
      "note": 74,
      "start": 17.4335,
      "duration": 0.0879,
      "velocity": 81,
      "chip": "ym2612"
    },
    {
      "channel": 0,
      "note": 43,
      "start": 17.4371,
      "duration": 0.0835,
      "velocity": 97,
      "chip": "ym2612"
    },
    {
      "channel": 2,
      "note": 79,
      "start": 17.4375,
      "duration": 0.0838,
      "velocity": 71,
      "chip": "ym2612"
    },
    {
      "channel": 4,
      "note": 79,
      "start": 17.4388,
      "duration": 0.0843,
      "velocity": 71,
      "chip": "ym2612"
    },
    {
      "channel": 0,
      "note": 45,
      "start": 17.5207,
      "duration": 0.0708,
      "velocity": 97,
      "chip": "ym2612"
    },
    {
      "channel": 1,
      "note": 71,
      "start": 17.5211,
      "duration": 2.0137,
      "velocity": 81,
      "chip": "ym2612"
    },
    {
      "channel": 3,
      "note": 71,
      "start": 17.5245,
      "duration": 2.0922,
      "velocity": 81,
      "chip": "ym2612"
    },
    {
      "channel": 2,
      "note": 69,
      "start": 17.5921,
      "duration": 0.2499,
      "velocity": 71,
      "chip": "ym2612"
    },
    {
      "channel": 4,
      "note": 69,
      "start": 17.6423,
      "duration": 0.2331,
      "velocity": 71,
      "chip": "ym2612"
    },
    {
      "channel": 0,
      "note": 45,
      "start": 17.8417,
      "duration": 0.2332,
      "velocity": 97,
      "chip": "ym2612"
    },
    {
      "channel": 2,
      "note": 76,
      "start": 17.8422,
      "duration": 0.2329,
      "velocity": 71,
      "chip": "ym2612"
    },
    {
      "channel": 4,
      "note": 76,
      "start": 17.8756,
      "duration": 0.2497,
      "velocity": 71,
      "chip": "ym2612"
    },
    {
      "channel": 2,
      "note": 81,
      "start": 18.0754,
      "duration": 0.2496,
      "velocity": 71,
      "chip": "ym2612"
    },
    {
      "channel": 4,
      "note": 81,
      "start": 18.1256,
      "duration": 0.201,
      "velocity": 71,
      "chip": "ym2612"
    },
    {
      "channel": 2,
      "note": 77,
      "start": 18.4258,
      "duration": 0.2331,
      "velocity": 71,
      "chip": "ym2612"
    },
    {
      "channel": 4,
      "note": 77,
      "start": 18.4594,
      "duration": 0.2497,
      "velocity": 71,
      "chip": "ym2612"
    },
    {
      "channel": 2,
      "note": 84,
      "start": 18.6591,
      "duration": 0.2497,
      "velocity": 71,
      "chip": "ym2612"
    },
    {
      "channel": 4,
      "note": 84,
      "start": 18.7094,
      "duration": 0.2013,
      "velocity": 71,
      "chip": "ym2612"
    },
    {
      "channel": 2,
      "note": 79,
      "start": 18.9091,
      "duration": 0.0718,
      "velocity": 71,
      "chip": "ym2612"
    },
    {
      "channel": 4,
      "note": 79,
      "start": 18.9109,
      "duration": 0.0717,
      "velocity": 71,
      "chip": "ym2612"
    },
    {
      "channel": 2,
      "note": 69,
      "start": 19.0685,
      "duration": 0.2331,
      "velocity": 71,
      "chip": "ym2612"
    },
    {
      "channel": 4,
      "note": 69,
      "start": 19.1022,
      "duration": 0.2331,
      "velocity": 71,
      "chip": "ym2612"
    },
    {
      "channel": 2,
      "note": 76,
      "start": 19.3018,
      "duration": 0.2331,
      "velocity": 71,
      "chip": "ym2612"
    },
    {
      "channel": 4,
      "note": 76,
      "start": 19.3355,
      "duration": 0.2011,
      "velocity": 71,
      "chip": "ym2612"
    },
    {
      "channel": 2,
      "note": 81,
      "start": 19.5352,
      "duration": 0.1983,
      "velocity": 71,
      "chip": "ym2612"
    },
    {
      "channel": 4,
      "note": 81,
      "start": 19.5368,
      "duration": 0.1976,
      "velocity": 71,
      "chip": "ym2612"
    },
    {
      "channel": 1,
      "note": 76,
      "start": 19.7334,
      "duration": 0.6646,
      "velocity": 81,
      "chip": "ym2612"
    },
    {
      "channel": 3,
      "note": 76,
      "start": 19.7984,
      "duration": 0.7165,
      "velocity": 81,
      "chip": "ym2612"
    },
    {
      "channel": 2,
      "note": 77,
      "start": 19.915,
      "duration": 0.2497,
      "velocity": 71,
      "chip": "ym2612"
    },
    {
      "channel": 4,
      "note": 77,
      "start": 19.9654,
      "duration": 0.2331,
      "velocity": 71,
      "chip": "ym2612"
    },
    {
      "channel": 2,
      "note": 84,
      "start": 20.165,
      "duration": 0.2331,
      "velocity": 71,
      "chip": "ym2612"
    },
    {
      "channel": 4,
      "note": 84,
      "start": 20.1987,
      "duration": 0.2329,
      "velocity": 71,
      "chip": "ym2612"
    },
    {
      "channel": 2,
      "note": 79,
      "start": 20.3984,
      "duration": 0.2336,
      "velocity": 71,
      "chip": "ym2612"
    },
    {
      "channel": 4,
      "note": 79,
      "start": 20.4319,
      "duration": 0.2014,
      "velocity": 71,
      "chip": "ym2612"
    },
    {
      "channel": 0,
      "note": 45,
      "start": 20.6314,
      "duration": 0.0864,
      "velocity": 97,
      "chip": "ym2612"
    },
    {
      "channel": 1,
      "note": 71,
      "start": 20.6317,
      "duration": 2.2118,
      "velocity": 81,
      "chip": "ym2612"
    },
    {
      "channel": 3,
      "note": 71,
      "start": 20.6344,
      "duration": 2.2744,
      "velocity": 81,
      "chip": "ym2612"
    },
    {
      "channel": 2,
      "note": 69,
      "start": 20.7184,
      "duration": 0.2332,
      "velocity": 71,
      "chip": "ym2612"
    },
    {
      "channel": 4,
      "note": 69,
      "start": 20.752,
      "duration": 0.2498,
      "velocity": 71,
      "chip": "ym2612"
    },
    {
      "channel": 0,
      "note": 45,
      "start": 20.9514,
      "duration": 0.2498,
      "velocity": 97,
      "chip": "ym2612"
    },
    {
      "channel": 2,
      "note": 76,
      "start": 20.9519,
      "duration": 0.2496,
      "velocity": 71,
      "chip": "ym2612"
    },
    {
      "channel": 4,
      "note": 76,
      "start": 21.002,
      "duration": 0.2331,
      "velocity": 71,
      "chip": "ym2612"
    },
    {
      "channel": 2,
      "note": 81,
      "start": 21.2017,
      "duration": 0.2329,
      "velocity": 71,
      "chip": "ym2612"
    },
    {
      "channel": 4,
      "note": 81,
      "start": 21.2353,
      "duration": 0.2009,
      "velocity": 71,
      "chip": "ym2612"
    },
    {
      "channel": 2,
      "note": 77,
      "start": 21.5354,
      "duration": 0.2497,
      "velocity": 71,
      "chip": "ym2612"
    },
    {
      "channel": 4,
      "note": 77,
      "start": 21.5857,
      "duration": 0.2331,
      "velocity": 71,
      "chip": "ym2612"
    },
    {
      "channel": 2,
      "note": 84,
      "start": 21.7854,
      "duration": 0.2331,
      "velocity": 71,
      "chip": "ym2612"
    },
    {
      "channel": 4,
      "note": 84,
      "start": 21.819,
      "duration": 0.2021,
      "velocity": 71,
      "chip": "ym2612"
    },
    {
      "channel": 2,
      "note": 79,
      "start": 22.0187,
      "duration": 0.089,
      "velocity": 71,
      "chip": "ym2612"
    },
    {
      "channel": 4,
      "note": 79,
      "start": 22.0213,
      "duration": 0.0878,
      "velocity": 71,
      "chip": "ym2612"
    },
    {
      "channel": 2,
      "note": 69,
      "start": 22.1785,
      "duration": 0.2331,
      "velocity": 71,
      "chip": "ym2612"
    },
    {
      "channel": 4,
      "note": 69,
      "start": 22.2122,
      "duration": 0.2497,
      "velocity": 71,
      "chip": "ym2612"
    },
    {
      "channel": 2,
      "note": 76,
      "start": 22.4119,
      "duration": 0.2497,
      "velocity": 71,
      "chip": "ym2612"
    },
    {
      "channel": 4,
      "note": 76,
      "start": 22.4622,
      "duration": 0.2013,
      "velocity": 71,
      "chip": "ym2612"
    },
    {
      "channel": 2,
      "note": 81,
      "start": 22.6619,
      "duration": 0.182,
      "velocity": 71,
      "chip": "ym2612"
    },
    {
      "channel": 4,
      "note": 81,
      "start": 22.6636,
      "duration": 0.182,
      "velocity": 71,
      "chip": "ym2612"
    },
    {
      "channel": 1,
      "note": 69,
      "start": 22.8437,
      "duration": 0.3149,
      "velocity": 81,
      "chip": "ym2612"
    },
    {
      "channel": 3,
      "note": 69,
      "start": 22.909,
      "duration": 0.3669,
      "velocity": 81,
      "chip": "ym2612"
    },
    {
      "channel": 2,
      "note": 77,
      "start": 23.0423,
      "duration": 0.2333,
      "velocity": 71,
      "chip": "ym2612"
    },
    {
      "channel": 4,
      "note": 77,
      "start": 23.076,
      "duration": 0.2015,
      "velocity": 71,
      "chip": "ym2612"
    },
    {
      "channel": 1,
      "note": 74,
      "start": 23.2754,
      "duration": 0.0115,
      "velocity": 81,
      "chip": "ym2612"
    },
    {
      "channel": 2,
      "note": 84,
      "start": 23.2758,
      "duration": 0.0069,
      "velocity": 71,
      "chip": "ym2612"
    },
    {
      "channel": 4,
      "note": 84,
      "start": 23.2776,
      "duration": 0.0072,
      "velocity": 71,
      "chip": "ym2612"
    },
    {
      "channel": 3,
      "note": 74,
      "start": 23.2795,
      "duration": 0.0882,
      "velocity": 81,
      "chip": "ym2612"
    },
    {
      "channel": 2,
      "note": 79,
      "start": 23.283,
      "duration": 0.0845,
      "velocity": 71,
      "chip": "ym2612"
    },
    {
      "channel": 4,
      "note": 79,
      "start": 23.2849,
      "duration": 0.0844,
      "velocity": 71,
      "chip": "ym2612"
    },
    {
      "channel": 0,
      "note": 43,
      "start": 23.3669,
      "duration": 0.0715,
      "velocity": 97,
      "chip": "ym2612"
    },
    {
      "channel": 1,
      "note": 71,
      "start": 23.3672,
      "duration": 0.5547,
      "velocity": 81,
      "chip": "ym2612"
    },
    {
      "channel": 3,
      "note": 71,
      "start": 23.371,
      "duration": 0.6676,
      "velocity": 81,
      "chip": "ym2612"
    },
    {
      "channel": 2,
      "note": 67,
      "start": 23.439,
      "duration": 0.2499,
      "velocity": 71,
      "chip": "ym2612"
    },
    {
      "channel": 4,
      "note": 67,
      "start": 23.4892,
      "duration": 0.2331,
      "velocity": 71,
      "chip": "ym2612"
    },
    {
      "channel": 0,
      "note": 43,
      "start": 23.6886,
      "duration": 0.2332,
      "velocity": 97,
      "chip": "ym2612"
    },
    {
      "channel": 2,
      "note": 74,
      "start": 23.6891,
      "duration": 0.233,
      "velocity": 71,
      "chip": "ym2612"
    },
    {
      "channel": 4,
      "note": 74,
      "start": 23.7225,
      "duration": 0.2329,
      "velocity": 71,
      "chip": "ym2612"
    },
    {
      "channel": 2,
      "note": 81,
      "start": 23.9223,
      "duration": 0.2332,
      "velocity": 71,
      "chip": "ym2612"
    },
    {
      "channel": 4,
      "note": 81,
      "start": 23.9557,
      "duration": 0.2012,
      "velocity": 71,
      "chip": "ym2612"
    },
    {
      "channel": 1,
      "note": 67,
      "start": 24.1553,
      "duration": 0.5998,
      "velocity": 81,
      "chip": "ym2612"
    },
    {
      "channel": 3,
      "note": 67,
      "start": 24.1579,
      "duration": 0.6007,
      "velocity": 81,
      "chip": "ym2612"
    },
    {
      "channel": 2,
      "note": 77,
      "start": 24.2721,
      "duration": 0.2331,
      "velocity": 71,
      "chip": "ym2612"
    },
    {
      "channel": 4,
      "note": 77,
      "start": 24.3058,
      "duration": 0.2498,
      "velocity": 71,
      "chip": "ym2612"
    },
    {
      "channel": 2,
      "note": 84,
      "start": 24.5055,
      "duration": 0.2498,
      "velocity": 71,
      "chip": "ym2612"
    },
    {
      "channel": 4,
      "note": 84,
      "start": 24.5558,
      "duration": 0.201,
      "velocity": 71,
      "chip": "ym2612"
    },
    {
      "channel": 2,
      "note": 79,
      "start": 24.7555,
      "duration": 0.0706,
      "velocity": 71,
      "chip": "ym2612"
    },
    {
      "channel": 4,
      "note": 79,
      "start": 24.7569,
      "duration": 0.0701,
      "velocity": 71,
      "chip": "ym2612"
    },
    {
      "channel": 1,
      "note": 64,
      "start": 24.826,
      "duration": 0.5529,
      "velocity": 81,
      "chip": "ym2612"
    },
    {
      "channel": 3,
      "note": 64,
      "start": 24.828,
      "duration": 0.6161,
      "velocity": 81,
      "chip": "ym2612"
    },
    {
      "channel": 2,
      "note": 67,
      "start": 24.8959,
      "duration": 0.2497,
      "velocity": 71,
      "chip": "ym2612"
    },
    {
      "channel": 4,
      "note": 67,
      "start": 24.9462,
      "duration": 0.2331,
      "velocity": 71,
      "chip": "ym2612"
    },
    {
      "channel": 2,
      "note": 74,
      "start": 25.1459,
      "duration": 0.2331,
      "velocity": 71,
      "chip": "ym2612"
    },
    {
      "channel": 4,
      "note": 74,
      "start": 25.1796,
      "duration": 0.2011,
      "velocity": 71,
      "chip": "ym2612"
    },
    {
      "channel": 2,
      "note": 81,
      "start": 25.3793,
      "duration": 0.1983,
      "velocity": 71,
      "chip": "ym2612"
    },
    {
      "channel": 4,
      "note": 81,
      "start": 25.3809,
      "duration": 0.1976,
      "velocity": 71,
      "chip": "ym2612"
    },
    {
      "channel": 1,
      "note": 62,
      "start": 25.5775,
      "duration": 0.6646,
      "velocity": 81,
      "chip": "ym2612"
    },
    {
      "channel": 3,
      "note": 62,
      "start": 25.6424,
      "duration": 0.7165,
      "velocity": 81,
      "chip": "ym2612"
    },
    {
      "channel": 2,
      "note": 77,
      "start": 25.7591,
      "duration": 0.2331,
      "velocity": 71,
      "chip": "ym2612"
    },
    {
      "channel": 4,
      "note": 77,
      "start": 25.7928,
      "duration": 0.2497,
      "velocity": 71,
      "chip": "ym2612"
    },
    {
      "channel": 2,
      "note": 84,
      "start": 25.9924,
      "duration": 0.2498,
      "velocity": 71,
      "chip": "ym2612"
    },
    {
      "channel": 4,
      "note": 84,
      "start": 26.0428,
      "duration": 0.2329,
      "velocity": 71,
      "chip": "ym2612"
    },
    {
      "channel": 2,
      "note": 79,
      "start": 26.2424,
      "duration": 0.2336,
      "velocity": 71,
      "chip": "ym2612"
    },
    {
      "channel": 4,
      "note": 79,
      "start": 26.276,
      "duration": 0.2014,
      "velocity": 71,
      "chip": "ym2612"
    },
    {
      "channel": 0,
      "note": 43,
      "start": 26.4755,
      "duration": 0.0863,
      "velocity": 97,
      "chip": "ym2612"
    },
    {
      "channel": 1,
      "note": 64,
      "start": 26.4758,
      "duration": 2.2117,
      "velocity": 81,
      "chip": "ym2612"
    },
    {
      "channel": 3,
      "note": 64,
      "start": 26.4781,
      "duration": 2.2745,
      "velocity": 81,
      "chip": "ym2612"
    },
    {
      "channel": 2,
      "note": 67,
      "start": 26.5624,
      "duration": 0.2332,
      "velocity": 71,
      "chip": "ym2612"
    },
    {
      "channel": 4,
      "note": 67,
      "start": 26.5959,
      "duration": 0.2331,
      "velocity": 71,
      "chip": "ym2612"
    },
    {
      "channel": 0,
      "note": 43,
      "start": 26.7953,
      "duration": 0.2332,
      "velocity": 97,
      "chip": "ym2612"
    },
    {
      "channel": 2,
      "note": 74,
      "start": 26.7959,
      "duration": 0.2329,
      "velocity": 71,
      "chip": "ym2612"
    },
    {
      "channel": 4,
      "note": 74,
      "start": 26.8293,
      "duration": 0.2497,
      "velocity": 71,
      "chip": "ym2612"
    },
    {
      "channel": 2,
      "note": 81,
      "start": 27.029,
      "duration": 0.2496,
      "velocity": 71,
      "chip": "ym2612"
    },
    {
      "channel": 4,
      "note": 81,
      "start": 27.0793,
      "duration": 0.201,
      "velocity": 71,
      "chip": "ym2612"
    },
    {
      "channel": 2,
      "note": 77,
      "start": 27.3795,
      "duration": 0.2497,
      "velocity": 71,
      "chip": "ym2612"
    },
    {
      "channel": 4,
      "note": 77,
      "start": 27.4298,
      "duration": 0.2331,
      "velocity": 71,
      "chip": "ym2612"
    },
    {
      "channel": 2,
      "note": 84,
      "start": 27.6295,
      "duration": 0.2331,
      "velocity": 71,
      "chip": "ym2612"
    },
    {
      "channel": 4,
      "note": 84,
      "start": 27.6631,
      "duration": 0.2013,
      "velocity": 71,
      "chip": "ym2612"
    },
    {
      "channel": 2,
      "note": 79,
      "start": 27.8628,
      "duration": 0.0721,
      "velocity": 71,
      "chip": "ym2612"
    },
    {
      "channel": 4,
      "note": 79,
      "start": 27.8646,
      "duration": 0.0723,
      "velocity": 71,
      "chip": "ym2612"
    },
    {
      "channel": 2,
      "note": 67,
      "start": 28.0224,
      "duration": 0.2331,
      "velocity": 71,
      "chip": "ym2612"
    },
    {
      "channel": 4,
      "note": 67,
      "start": 28.0561,
      "duration": 0.2497,
      "velocity": 71,
      "chip": "ym2612"
    },
    {
      "channel": 2,
      "note": 74,
      "start": 28.2557,
      "duration": 0.2497,
      "velocity": 71,
      "chip": "ym2612"
    },
    {
      "channel": 4,
      "note": 74,
      "start": 28.3061,
      "duration": 0.2012,
      "velocity": 71,
      "chip": "ym2612"
    },
    {
      "channel": 2,
      "note": 81,
      "start": 28.5057,
      "duration": 0.1821,
      "velocity": 71,
      "chip": "ym2612"
    },
    {
      "channel": 4,
      "note": 81,
      "start": 28.5074,
      "duration": 0.1816,
      "velocity": 71,
      "chip": "ym2612"
    },
    {
      "channel": 1,
      "note": 62,
      "start": 28.6877,
      "duration": 0.4353,
      "velocity": 81,
      "chip": "ym2612"
    },
    {
      "channel": 3,
      "note": 62,
      "start": 28.7529,
      "duration": 0.3734,
      "velocity": 81,
      "chip": "ym2612"
    },
    {
      "channel": 2,
      "note": 77,
      "start": 28.8695,
      "duration": 0.2497,
      "velocity": 71,
      "chip": "ym2612"
    },
    {
      "channel": 4,
      "note": 77,
      "start": 28.9198,
      "duration": 0.2011,
      "velocity": 71,
      "chip": "ym2612"
    },
    {
      "channel": 2,
      "note": 84,
      "start": 29.1195,
      "duration": 0.0063,
      "velocity": 71,
      "chip": "ym2612"
    },
    {
      "channel": 4,
      "note": 84,
      "start": 29.1211,
      "duration": 0.0063,
      "velocity": 71,
      "chip": "ym2612"
    },
    {
      "channel": 0,
      "note": 43,
      "start": 29.1255,
      "duration": 0.0847,
      "velocity": 97,
      "chip": "ym2612"
    },
    {
      "channel": 1,
      "note": 60,
      "start": 29.1258,
      "duration": 0.0029,
      "velocity": 81,
      "chip": "ym2612"
    },
    {
      "channel": 2,
      "note": 79,
      "start": 29.1261,
      "duration": 0.0848,
      "velocity": 71,
      "chip": "ym2612"
    },
    {
      "channel": 4,
      "note": 79,
      "start": 29.1276,
      "duration": 0.0861,
      "velocity": 71,
      "chip": "ym2612"
    },
    {
      "channel": 1,
      "note": 59,
      "start": 29.1289,
      "duration": 0.0816,
      "velocity": 81,
      "chip": "ym2612"
    },
    {
      "channel": 3,
      "note": 60,
      "start": 29.1293,
      "duration": 0.0819,
      "velocity": 81,
      "chip": "ym2612"
    },
    {
      "channel": 0,
      "note": 45,
      "start": 29.2104,
      "duration": 3.1908,
      "velocity": 97,
      "chip": "ym2612"
    },
    {
      "channel": 1,
      "note": 57,
      "start": 29.2107,
      "duration": 3.3072,
      "velocity": 81,
      "chip": "ym2612"
    },
    {
      "channel": 2,
      "note": 81,
      "start": 29.2112,
      "duration": 0.0735,
      "velocity": 71,
      "chip": "ym2612"
    },
    {
      "channel": 3,
      "note": 59,
      "start": 29.2115,
      "duration": 0.0057,
      "velocity": 81,
      "chip": "ym2612"
    },
    {
      "channel": 4,
      "note": 81,
      "start": 29.2137,
      "duration": 0.1047,
      "velocity": 71,
      "chip": "ym2612"
    },
    {
      "channel": 3,
      "note": 57,
      "start": 29.2173,
      "duration": 3.4345,
      "velocity": 81,
      "chip": "ym2612"
    },
    {
      "channel": 2,
      "note": 77,
      "start": 29.2849,
      "duration": 0.2331,
      "velocity": 71,
      "chip": "ym2612"
    },
    {
      "channel": 4,
      "note": 77,
      "start": 29.3186,
      "duration": 0.2497,
      "velocity": 71,
      "chip": "ym2612"
    },
    {
      "channel": 2,
      "note": 79,
      "start": 29.5183,
      "duration": 0.2497,
      "velocity": 71,
      "chip": "ym2612"
    },
    {
      "channel": 4,
      "note": 79,
      "start": 29.5686,
      "duration": 0.2331,
      "velocity": 71,
      "chip": "ym2612"
    },
    {
      "channel": 2,
      "note": 76,
      "start": 29.7683,
      "duration": 0.2331,
      "velocity": 71,
      "chip": "ym2612"
    },
    {
      "channel": 4,
      "note": 76,
      "start": 29.8019,
      "duration": 0.2497,
      "velocity": 71,
      "chip": "ym2612"
    },
    {
      "channel": 2,
      "note": 77,
      "start": 30.0016,
      "duration": 0.2497,
      "velocity": 71,
      "chip": "ym2612"
    },
    {
      "channel": 4,
      "note": 77,
      "start": 30.0519,
      "duration": 0.2331,
      "velocity": 71,
      "chip": "ym2612"
    },
    {
      "channel": 2,
      "note": 74,
      "start": 30.2516,
      "duration": 0.2331,
      "velocity": 71,
      "chip": "ym2612"
    },
    {
      "channel": 4,
      "note": 74,
      "start": 30.2853,
      "duration": 0.2331,
      "velocity": 71,
      "chip": "ym2612"
    },
    {
      "channel": 2,
      "note": 76,
      "start": 30.4849,
      "duration": 0.2331,
      "velocity": 71,
      "chip": "ym2612"
    },
    {
      "channel": 4,
      "note": 76,
      "start": 30.5186,
      "duration": 0.2497,
      "velocity": 71,
      "chip": "ym2612"
    },
    {
      "channel": 2,
      "note": 72,
      "start": 30.7183,
      "duration": 0.2497,
      "velocity": 71,
      "chip": "ym2612"
    },
    {
      "channel": 4,
      "note": 72,
      "start": 30.7686,
      "duration": 0.2331,
      "velocity": 71,
      "chip": "ym2612"
    },
    {
      "channel": 2,
      "note": 74,
      "start": 30.9683,
      "duration": 0.2331,
      "velocity": 71,
      "chip": "ym2612"
    },
    {
      "channel": 4,
      "note": 74,
      "start": 31.0019,
      "duration": 0.2497,
      "velocity": 71,
      "chip": "ym2612"
    },
    {
      "channel": 2,
      "note": 71,
      "start": 31.2016,
      "duration": 0.2498,
      "velocity": 71,
      "chip": "ym2612"
    },
    {
      "channel": 4,
      "note": 71,
      "start": 31.2519,
      "duration": 0.2331,
      "velocity": 71,
      "chip": "ym2612"
    },
    {
      "channel": 2,
      "note": 72,
      "start": 31.4516,
      "duration": 0.2331,
      "velocity": 71,
      "chip": "ym2612"
    },
    {
      "channel": 4,
      "note": 72,
      "start": 31.4853,
      "duration": 0.2331,
      "velocity": 71,
      "chip": "ym2612"
    },
    {
      "channel": 2,
      "note": 69,
      "start": 31.6849,
      "duration": 0.2331,
      "velocity": 71,
      "chip": "ym2612"
    },
    {
      "channel": 4,
      "note": 69,
      "start": 31.7186,
      "duration": 0.2497,
      "velocity": 71,
      "chip": "ym2612"
    },
    {
      "channel": 2,
      "note": 71,
      "start": 31.9183,
      "duration": 0.2497,
      "velocity": 71,
      "chip": "ym2612"
    },
    {
      "channel": 4,
      "note": 71,
      "start": 31.9686,
      "duration": 0.2331,
      "velocity": 71,
      "chip": "ym2612"
    },
    {
      "channel": 2,
      "note": 67,
      "start": 32.1683,
      "duration": 0.2332,
      "velocity": 71,
      "chip": "ym2612"
    },
    {
      "channel": 4,
      "note": 67,
      "start": 32.2019,
      "duration": 0.2497,
      "velocity": 71,
      "chip": "ym2612"
    },
    {
      "channel": 2,
      "note": 64,
      "start": 32.4017,
      "duration": 0.2498,
      "velocity": 71,
      "chip": "ym2612"
    },
    {
      "channel": 4,
      "note": 64,
      "start": 32.4519,
      "duration": 0.2007,
      "velocity": 71,
      "chip": "ym2612"
    },
    {
      "channel": 0,
      "note": 45,
      "start": 32.6513,
      "duration": 0.0696,
      "velocity": 97,
      "chip": "ym2612"
    },
    {
      "channel": 2,
      "note": 65,
      "start": 32.6517,
      "duration": 0.0712,
      "velocity": 71,
      "chip": "ym2612"
    },
    {
      "channel": 4,
      "note": 65,
      "start": 32.6528,
      "duration": 0.0713,
      "velocity": 71,
      "chip": "ym2612"
    },
    {
      "channel": 0,
      "note": 45,
      "start": 32.7211,
      "duration": 3.0998,
      "velocity": 97,
      "chip": "ym2612"
    },
    {
      "channel": 2,
      "note": 81,
      "start": 32.7232,
      "duration": 0.0684,
      "velocity": 71,
      "chip": "ym2612"
    },
    {
      "channel": 4,
      "note": 81,
      "start": 32.7243,
      "duration": 0.1174,
      "velocity": 71,
      "chip": "ym2612"
    },
    {
      "channel": 2,
      "note": 77,
      "start": 32.7918,
      "duration": 0.2498,
      "velocity": 71,
      "chip": "ym2612"
    },
    {
      "channel": 4,
      "note": 77,
      "start": 32.842,
      "duration": 0.2331,
      "velocity": 71,
      "chip": "ym2612"
    },
    {
      "channel": 2,
      "note": 79,
      "start": 33.0418,
      "duration": 0.2331,
      "velocity": 71,
      "chip": "ym2612"
    },
    {
      "channel": 4,
      "note": 79,
      "start": 33.0753,
      "duration": 0.2498,
      "velocity": 71,
      "chip": "ym2612"
    },
    {
      "channel": 2,
      "note": 76,
      "start": 33.2751,
      "duration": 0.2498,
      "velocity": 71,
      "chip": "ym2612"
    },
    {
      "channel": 4,
      "note": 76,
      "start": 33.3253,
      "duration": 0.2331,
      "velocity": 71,
      "chip": "ym2612"
    },
    {
      "channel": 2,
      "note": 77,
      "start": 33.5251,
      "duration": 0.2331,
      "velocity": 71,
      "chip": "ym2612"
    },
    {
      "channel": 4,
      "note": 77,
      "start": 33.5587,
      "duration": 0.2331,
      "velocity": 71,
      "chip": "ym2612"
    },
    {
      "channel": 2,
      "note": 74,
      "start": 33.7585,
      "duration": 0.2331,
      "velocity": 71,
      "chip": "ym2612"
    },
    {
      "channel": 4,
      "note": 74,
      "start": 33.792,
      "duration": 0.2498,
      "velocity": 71,
      "chip": "ym2612"
    },
    {
      "channel": 2,
      "note": 76,
      "start": 33.9918,
      "duration": 0.2498,
      "velocity": 71,
      "chip": "ym2612"
    },
    {
      "channel": 4,
      "note": 76,
      "start": 34.042,
      "duration": 0.2331,
      "velocity": 71,
      "chip": "ym2612"
    },
    {
      "channel": 2,
      "note": 72,
      "start": 34.2418,
      "duration": 0.2331,
      "velocity": 71,
      "chip": "ym2612"
    },
    {
      "channel": 4,
      "note": 72,
      "start": 34.2753,
      "duration": 0.2498,
      "velocity": 71,
      "chip": "ym2612"
    },
    {
      "channel": 2,
      "note": 74,
      "start": 34.4751,
      "duration": 0.2498,
      "velocity": 71,
      "chip": "ym2612"
    },
    {
      "channel": 4,
      "note": 74,
      "start": 34.5253,
      "duration": 0.2331,
      "velocity": 71,
      "chip": "ym2612"
    },
    {
      "channel": 2,
      "note": 71,
      "start": 34.7251,
      "duration": 0.2331,
      "velocity": 71,
      "chip": "ym2612"
    },
    {
      "channel": 4,
      "note": 71,
      "start": 34.7587,
      "duration": 0.2331,
      "velocity": 71,
      "chip": "ym2612"
    },
    {
      "channel": 2,
      "note": 72,
      "start": 34.9585,
      "duration": 0.2331,
      "velocity": 71,
      "chip": "ym2612"
    },
    {
      "channel": 4,
      "note": 72,
      "start": 34.992,
      "duration": 0.2008,
      "velocity": 71,
      "chip": "ym2612"
    },
    {
      "channel": 2,
      "note": 69,
      "start": 35.1918,
      "duration": 0.1977,
      "velocity": 71,
      "chip": "ym2612"
    },
    {
      "channel": 4,
      "note": 69,
      "start": 35.1928,
      "duration": 0.1977,
      "velocity": 71,
      "chip": "ym2612"
    },
    {
      "channel": 2,
      "note": 71,
      "start": 35.3898,
      "duration": 0.1812,
      "velocity": 71,
      "chip": "ym2612"
    },
    {
      "channel": 4,
      "note": 71,
      "start": 35.3908,
      "duration": 0.2304,
      "velocity": 71,
      "chip": "ym2612"
    },
    {
      "channel": 2,
      "note": 67,
      "start": 35.5712,
      "duration": 0.2499,
      "velocity": 71,
      "chip": "ym2612"
    },
    {
      "channel": 4,
      "note": 67,
      "start": 35.6214,
      "duration": 0.201,
      "velocity": 71,
      "chip": "ym2612"
    },
    {
      "channel": 2,
      "note": 64,
      "start": 35.8214,
      "duration": 0.0037,
      "velocity": 71,
      "chip": "ym2612"
    },
    {
      "channel": 4,
      "note": 64,
      "start": 35.8225,
      "duration": 0.0032,
      "velocity": 71,
      "chip": "ym2612"
    },
    {
      "channel": 2,
      "note": 65,
      "start": 35.8253,
      "duration": 0.0142,
      "velocity": 71,
      "chip": "ym2612"
    },
    {
      "channel": 4,
      "note": 65,
      "start": 35.8259,
      "duration": 0.0154,
      "velocity": 71,
      "chip": "ym2612"
    },
    {
      "channel": 0,
      "note": 45,
      "start": 35.839,
      "duration": 2.649,
      "velocity": 97,
      "chip": "ym2612"
    },
    {
      "channel": 1,
      "note": 88,
      "start": 35.8394,
      "duration": 0.0874,
      "velocity": 71,
      "chip": "ym2612"
    },
    {
      "channel": 2,
      "note": 81,
      "start": 35.8398,
      "duration": 0.0873,
      "velocity": 71,
      "chip": "ym2612"
    },
    {
      "channel": 4,
      "note": 81,
      "start": 35.8414,
      "duration": 0.1191,
      "velocity": 71,
      "chip": "ym2612"
    },
    {
      "channel": 3,
      "note": 88,
      "start": 35.8436,
      "duration": 0.2001,
      "velocity": 71,
      "chip": "ym2612"
    },
    {
      "channel": 1,
      "note": 84,
      "start": 35.9269,
      "duration": 0.2332,
      "velocity": 71,
      "chip": "ym2612"
    },
    {
      "channel": 2,
      "note": 77,
      "start": 35.9272,
      "duration": 0.2332,
      "velocity": 71,
      "chip": "ym2612"
    },
    {
      "channel": 4,
      "note": 77,
      "start": 35.9608,
      "duration": 0.2497,
      "velocity": 71,
      "chip": "ym2612"
    },
    {
      "channel": 3,
      "note": 84,
      "start": 36.0439,
      "duration": 0.2332,
      "velocity": 71,
      "chip": "ym2612"
    },
    {
      "channel": 1,
      "note": 86,
      "start": 36.1602,
      "duration": 0.2498,
      "velocity": 71,
      "chip": "ym2612"
    },
    {
      "channel": 2,
      "note": 79,
      "start": 36.1606,
      "duration": 0.2498,
      "velocity": 71,
      "chip": "ym2612"
    },
    {
      "channel": 4,
      "note": 79,
      "start": 36.2108,
      "duration": 0.2331,
      "velocity": 71,
      "chip": "ym2612"
    },
    {
      "channel": 3,
      "note": 86,
      "start": 36.2772,
      "duration": 0.2498,
      "velocity": 71,
      "chip": "ym2612"
    },
    {
      "channel": 1,
      "note": 83,
      "start": 36.4102,
      "duration": 0.2332,
      "velocity": 71,
      "chip": "ym2612"
    },
    {
      "channel": 2,
      "note": 76,
      "start": 36.4106,
      "duration": 0.2332,
      "velocity": 71,
      "chip": "ym2612"
    },
    {
      "channel": 4,
      "note": 76,
      "start": 36.4441,
      "duration": 0.2014,
      "velocity": 71,
      "chip": "ym2612"
    },
    {
      "channel": 3,
      "note": 83,
      "start": 36.5272,
      "duration": 0.1215,
      "velocity": 71,
      "chip": "ym2612"
    },
    {
      "channel": 1,
      "note": 84,
      "start": 36.6436,
      "duration": 0.1022,
      "velocity": 71,
      "chip": "ym2612"
    },
    {
      "channel": 2,
      "note": 77,
      "start": 36.6439,
      "duration": 0.1022,
      "velocity": 71,
      "chip": "ym2612"
    },
    {
      "channel": 4,
      "note": 77,
      "start": 36.6458,
      "duration": 0.1504,
      "velocity": 71,
      "chip": "ym2612"
    },
    {
      "channel": 3,
      "note": 84,
      "start": 36.6489,
      "duration": 0.2305,
      "velocity": 71,
      "chip": "ym2612"
    },
    {
      "channel": 1,
      "note": 81,
      "start": 36.746,
      "duration": 0.2498,
      "velocity": 71,
      "chip": "ym2612"
    },
    {
      "channel": 2,
      "note": 74,
      "start": 36.7463,
      "duration": 0.2498,
      "velocity": 71,
      "chip": "ym2612"
    },
    {
      "channel": 4,
      "note": 74,
      "start": 36.7965,
      "duration": 0.2331,
      "velocity": 71,
      "chip": "ym2612"
    },
    {
      "channel": 3,
      "note": 81,
      "start": 36.8796,
      "duration": 0.2332,
      "velocity": 71,
      "chip": "ym2612"
    },
    {
      "channel": 1,
      "note": 83,
      "start": 36.996,
      "duration": 0.2332,
      "velocity": 71,
      "chip": "ym2612"
    },
    {
      "channel": 2,
      "note": 76,
      "start": 36.9963,
      "duration": 0.2332,
      "velocity": 71,
      "chip": "ym2612"
    },
    {
      "channel": 4,
      "note": 76,
      "start": 37.0298,
      "duration": 0.2018,
      "velocity": 71,
      "chip": "ym2612"
    },
    {
      "channel": 3,
      "note": 83,
      "start": 37.1129,
      "duration": 0.1209,
      "velocity": 71,
      "chip": "ym2612"
    },
    {
      "channel": 1,
      "note": 79,
      "start": 37.2293,
      "duration": 0.0886,
      "velocity": 71,
      "chip": "ym2612"
    },
    {
      "channel": 2,
      "note": 72,
      "start": 37.2296,
      "duration": 0.0886,
      "velocity": 71,
      "chip": "ym2612"
    },
    {
      "channel": 4,
      "note": 72,
      "start": 37.2318,
      "duration": 0.0883,
      "velocity": 71,
      "chip": "ym2612"
    },
    {
      "channel": 3,
      "note": 79,
      "start": 37.2341,
      "duration": 0.0891,
      "velocity": 71,
      "chip": "ym2612"
    },
    {
      "channel": 1,
      "note": 81,
      "start": 37.3181,
      "duration": 0.0724,
      "velocity": 71,
      "chip": "ym2612"
    },
    {
      "channel": 2,
      "note": 74,
      "start": 37.3184,
      "duration": 0.0724,
      "velocity": 71,
      "chip": "ym2612"
    },
    {
      "channel": 4,
      "note": 74,
      "start": 37.3203,
      "duration": 0.104,
      "velocity": 71,
      "chip": "ym2612"
    },
    {
      "channel": 3,
      "note": 81,
      "start": 37.3233,
      "duration": 0.1841,
      "velocity": 71,
      "chip": "ym2612"
    },
    {
      "channel": 1,
      "note": 77,
      "start": 37.3907,
      "duration": 0.2332,
      "velocity": 71,
      "chip": "ym2612"
    },
    {
      "channel": 2,
      "note": 71,
      "start": 37.391,
      "duration": 0.2332,
      "velocity": 71,
      "chip": "ym2612"
    },
    {
      "channel": 4,
      "note": 71,
      "start": 37.4245,
      "duration": 0.2497,
      "velocity": 71,
      "chip": "ym2612"
    },
    {
      "channel": 3,
      "note": 77,
      "start": 37.5077,
      "duration": 0.2498,
      "velocity": 71,
      "chip": "ym2612"
    },
    {
      "channel": 1,
      "note": 79,
      "start": 37.624,
      "duration": 0.2498,
      "velocity": 71,
      "chip": "ym2612"
    },
    {
      "channel": 2,
      "note": 72,
      "start": 37.6243,
      "duration": 0.2498,
      "velocity": 71,
      "chip": "ym2612"
    },
    {
      "channel": 4,
      "note": 72,
      "start": 37.6745,
      "duration": 0.2013,
      "velocity": 71,
      "chip": "ym2612"
    },
    {
      "channel": 3,
      "note": 79,
      "start": 37.7577,
      "duration": 0.182,
      "velocity": 71,
      "chip": "ym2612"
    },
    {
      "channel": 1,
      "note": 76,
      "start": 37.874,
      "duration": 0.182,
      "velocity": 71,
      "chip": "ym2612"
    },
    {
      "channel": 2,
      "note": 69,
      "start": 37.8743,
      "duration": 0.182,
      "velocity": 71,
      "chip": "ym2612"
    },
    {
      "channel": 4,
      "note": 69,
      "start": 37.8761,
      "duration": 0.1824,
      "velocity": 71,
      "chip": "ym2612"
    },
    {
      "channel": 3,
      "note": 76,
      "start": 37.9398,
      "duration": 0.1819,
      "velocity": 71,
      "chip": "ym2612"
    },
    {
      "channel": 1,
      "note": 77,
      "start": 38.0562,
      "duration": 0.1985,
      "velocity": 71,
      "chip": "ym2612"
    },
    {
      "channel": 2,
      "note": 71,
      "start": 38.0565,
      "duration": 0.1985,
      "velocity": 71,
      "chip": "ym2612"
    },
    {
      "channel": 4,
      "note": 71,
      "start": 38.0586,
      "duration": 0.2299,
      "velocity": 71,
      "chip": "ym2612"
    },
    {
      "channel": 3,
      "note": 77,
      "start": 38.1219,
      "duration": 0.2498,
      "velocity": 71,
      "chip": "ym2612"
    },
    {
      "channel": 1,
      "note": 74,
      "start": 38.2549,
      "duration": 0.2333,
      "velocity": 71,
      "chip": "ym2612"
    },
    {
      "channel": 2,
      "note": 67,
      "start": 38.2552,
      "duration": 0.2333,
      "velocity": 71,
      "chip": "ym2612"
    },
    {
      "channel": 4,
      "note": 67,
      "start": 38.2888,
      "duration": 0.2331,
      "velocity": 71,
      "chip": "ym2612"
    },
    {
      "channel": 3,
      "note": 74,
      "start": 38.3719,
      "duration": 0.2332,
      "velocity": 71,
      "chip": "ym2612"
    },
    {
      "channel": 1,
      "note": 71,
      "start": 38.4884,
      "duration": 0.2333,
      "velocity": 71,
      "chip": "ym2612"
    },
    {
      "channel": 2,
      "note": 64,
      "start": 38.4887,
      "duration": 0.2333,
      "velocity": 71,
      "chip": "ym2612"
    },
    {
      "channel": 4,
      "note": 64,
      "start": 38.5221,
      "duration": 0.2497,
      "velocity": 71,
      "chip": "ym2612"
    },
    {
      "channel": 3,
      "note": 71,
      "start": 38.6052,
      "duration": 0.2498,
      "velocity": 71,
      "chip": "ym2612"
    },
    {
      "channel": 0,
      "note": 45,
      "start": 38.7215,
      "duration": 0.2498,
      "velocity": 97,
      "chip": "ym2612"
    },
    {
      "channel": 1,
      "note": 72,
      "start": 38.7218,
      "duration": 0.2499,
      "velocity": 71,
      "chip": "ym2612"
    },
    {
      "channel": 2,
      "note": 65,
      "start": 38.7222,
      "duration": 0.25,
      "velocity": 71,
      "chip": "ym2612"
    },
    {
      "channel": 4,
      "note": 65,
      "start": 38.7721,
      "duration": 0.2019,
      "velocity": 71,
      "chip": "ym2612"
    },
    {
      "channel": 3,
      "note": 72,
      "start": 38.8552,
      "duration": 0.1215,
      "velocity": 71,
      "chip": "ym2612"
    },
    {
      "channel": 0,
      "note": 45,
      "start": 38.9715,
      "duration": 2.6334,
      "velocity": 97,
      "chip": "ym2612"
    },
    {
      "channel": 1,
      "note": 88,
      "start": 38.9719,
      "duration": 0.0717,
      "velocity": 71,
      "chip": "ym2612"
    },
    {
      "channel": 2,
      "note": 81,
      "start": 38.9724,
      "duration": 0.0715,
      "velocity": 71,
      "chip": "ym2612"
    },
    {
      "channel": 4,
      "note": 81,
      "start": 38.9741,
      "duration": 0.1198,
      "velocity": 71,
      "chip": "ym2612"
    },
    {
      "channel": 3,
      "note": 88,
      "start": 38.9769,
      "duration": 0.1837,
      "velocity": 71,
      "chip": "ym2612"
    },
    {
      "channel": 1,
      "note": 84,
      "start": 39.0437,
      "duration": 0.2498,
      "velocity": 71,
      "chip": "ym2612"
    },
    {
      "channel": 2,
      "note": 77,
      "start": 39.0441,
      "duration": 0.2498,
      "velocity": 71,
      "chip": "ym2612"
    },
    {
      "channel": 4,
      "note": 77,
      "start": 39.0943,
      "duration": 0.2331,
      "velocity": 71,
      "chip": "ym2612"
    },
    {
      "channel": 3,
      "note": 84,
      "start": 39.1607,
      "duration": 0.2498,
      "velocity": 71,
      "chip": "ym2612"
    },
    {
      "channel": 1,
      "note": 86,
      "start": 39.2937,
      "duration": 0.2332,
      "velocity": 71,
      "chip": "ym2612"
    },
    {
      "channel": 2,
      "note": 79,
      "start": 39.2941,
      "duration": 0.2332,
      "velocity": 71,
      "chip": "ym2612"
    },
    {
      "channel": 4,
      "note": 79,
      "start": 39.3276,
      "duration": 0.2331,
      "velocity": 71,
      "chip": "ym2612"
    },
    {
      "channel": 3,
      "note": 86,
      "start": 39.4107,
      "duration": 0.2332,
      "velocity": 71,
      "chip": "ym2612"
    },
    {
      "channel": 1,
      "note": 83,
      "start": 39.5271,
      "duration": 0.2332,
      "velocity": 71,
      "chip": "ym2612"
    },
    {
      "channel": 2,
      "note": 76,
      "start": 39.5274,
      "duration": 0.2332,
      "velocity": 71,
      "chip": "ym2612"
    },
    {
      "channel": 4,
      "note": 76,
      "start": 39.5609,
      "duration": 0.202,
      "velocity": 71,
      "chip": "ym2612"
    },
    {
      "channel": 3,
      "note": 83,
      "start": 39.6441,
      "duration": 0.1218,
      "velocity": 71,
      "chip": "ym2612"
    },
    {
      "channel": 1,
      "note": 84,
      "start": 39.7604,
      "duration": 0.1185,
      "velocity": 71,
      "chip": "ym2612"
    },
    {
      "channel": 2,
      "note": 77,
      "start": 39.7607,
      "duration": 0.1185,
      "velocity": 71,
      "chip": "ym2612"
    },
    {
      "channel": 4,
      "note": 77,
      "start": 39.7631,
      "duration": 0.1496,
      "velocity": 71,
      "chip": "ym2612"
    },
    {
      "channel": 3,
      "note": 84,
      "start": 39.766,
      "duration": 0.2299,
      "velocity": 71,
      "chip": "ym2612"
    },
    {
      "channel": 1,
      "note": 81,
      "start": 39.8791,
      "duration": 0.2332,
      "velocity": 71,
      "chip": "ym2612"
    },
    {
      "channel": 2,
      "note": 74,
      "start": 39.8794,
      "duration": 0.2332,
      "velocity": 71,
      "chip": "ym2612"
    },
    {
      "channel": 4,
      "note": 74,
      "start": 39.913,
      "duration": 0.2497,
      "velocity": 71,
      "chip": "ym2612"
    },
    {
      "channel": 3,
      "note": 81,
      "start": 39.9961,
      "duration": 0.2332,
      "velocity": 71,
      "chip": "ym2612"
    },
    {
      "channel": 1,
      "note": 83,
      "start": 40.1124,
      "duration": 0.2498,
      "velocity": 71,
      "chip": "ym2612"
    },
    {
      "channel": 2,
      "note": 76,
      "start": 40.1128,
      "duration": 0.2498,
      "velocity": 71,
      "chip": "ym2612"
    },
    {
      "channel": 4,
      "note": 76,
      "start": 40.163,
      "duration": 0.2015,
      "velocity": 71,
      "chip": "ym2612"
    },
    {
      "channel": 3,
      "note": 83,
      "start": 40.2294,
      "duration": 0.1381,
      "velocity": 71,
      "chip": "ym2612"
    },
    {
      "channel": 1,
      "note": 79,
      "start": 40.3624,
      "duration": 0.0724,
      "velocity": 71,
      "chip": "ym2612"
    },
    {
      "channel": 2,
      "note": 72,
      "start": 40.3628,
      "duration": 0.0724,
      "velocity": 71,
      "chip": "ym2612"
    },
    {
      "channel": 4,
      "note": 72,
      "start": 40.3646,
      "duration": 0.0724,
      "velocity": 71,
      "chip": "ym2612"
    },
    {
      "channel": 3,
      "note": 79,
      "start": 40.3676,
      "duration": 0.0724,
      "velocity": 71,
      "chip": "ym2612"
    },
    {
      "channel": 1,
      "note": 81,
      "start": 40.4351,
      "duration": 0.0722,
      "velocity": 71,
      "chip": "ym2612"
    },
    {
      "channel": 2,
      "note": 74,
      "start": 40.4354,
      "duration": 0.0722,
      "velocity": 71,
      "chip": "ym2612"
    },
    {
      "channel": 4,
      "note": 74,
      "start": 40.4373,
      "duration": 0.1205,
      "velocity": 71,
      "chip": "ym2612"
    },
    {
      "channel": 3,
      "note": 81,
      "start": 40.4402,
      "duration": 0.2007,
      "velocity": 71,
      "chip": "ym2612"
    },
    {
      "channel": 1,
      "note": 77,
      "start": 40.5075,
      "duration": 0.2498,
      "velocity": 71,
      "chip": "ym2612"
    },
    {
      "channel": 2,
      "note": 71,
      "start": 40.5078,
      "duration": 0.2498,
      "velocity": 71,
      "chip": "ym2612"
    },
    {
      "channel": 4,
      "note": 71,
      "start": 40.558,
      "duration": 0.2331,
      "velocity": 71,
      "chip": "ym2612"
    },
    {
      "channel": 3,
      "note": 77,
      "start": 40.6411,
      "duration": 0.2332,
      "velocity": 71,
      "chip": "ym2612"
    },
    {
      "channel": 1,
      "note": 79,
      "start": 40.7575,
      "duration": 0.2332,
      "velocity": 71,
      "chip": "ym2612"
    },
    {
      "channel": 2,
      "note": 72,
      "start": 40.7578,
      "duration": 0.2332,
      "velocity": 71,
      "chip": "ym2612"
    },
    {
      "channel": 4,
      "note": 72,
      "start": 40.7913,
      "duration": 0.202,
      "velocity": 71,
      "chip": "ym2612"
    },
    {
      "channel": 3,
      "note": 79,
      "start": 40.8745,
      "duration": 0.182,
      "velocity": 71,
      "chip": "ym2612"
    },
    {
      "channel": 1,
      "note": 76,
      "start": 40.9908,
      "duration": 0.1986,
      "velocity": 71,
      "chip": "ym2612"
    },
    {
      "channel": 2,
      "note": 69,
      "start": 40.9911,
      "duration": 0.1986,
      "velocity": 71,
      "chip": "ym2612"
    },
    {
      "channel": 4,
      "note": 69,
      "start": 40.9934,
      "duration": 0.1982,
      "velocity": 71,
      "chip": "ym2612"
    },
    {
      "channel": 3,
      "note": 76,
      "start": 41.0566,
      "duration": 0.1986,
      "velocity": 71,
      "chip": "ym2612"
    },
    {
      "channel": 1,
      "note": 77,
      "start": 41.1896,
      "duration": 0.182,
      "velocity": 71,
      "chip": "ym2612"
    },
    {
      "channel": 2,
      "note": 71,
      "start": 41.19,
      "duration": 0.182,
      "velocity": 71,
      "chip": "ym2612"
    },
    {
      "channel": 4,
      "note": 71,
      "start": 41.1917,
      "duration": 0.2136,
      "velocity": 71,
      "chip": "ym2612"
    },
    {
      "channel": 3,
      "note": 77,
      "start": 41.2554,
      "duration": 0.2332,
      "velocity": 71,
      "chip": "ym2612"
    },
    {
      "channel": 1,
      "note": 74,
      "start": 41.3718,
      "duration": 0.2333,
      "velocity": 71,
      "chip": "ym2612"
    },
    {
      "channel": 2,
      "note": 67,
      "start": 41.3721,
      "duration": 0.2333,
      "velocity": 71,
      "chip": "ym2612"
    },
    {
      "channel": 4,
      "note": 67,
      "start": 41.4056,
      "duration": 0.2019,
      "velocity": 71,
      "chip": "ym2612"
    },
    {
      "channel": 3,
      "note": 74,
      "start": 41.4888,
      "duration": 0.1214,
      "velocity": 71,
      "chip": "ym2612"
    },
    {
      "channel": 1,
      "note": 71,
      "start": 41.6053,
      "duration": 0.0082,
      "velocity": 71,
      "chip": "ym2612"
    },
    {
      "channel": 2,
      "note": 64,
      "start": 41.6056,
      "duration": 0.0081,
      "velocity": 71,
      "chip": "ym2612"
    },
    {
      "channel": 4,
      "note": 64,
      "start": 41.6077,
      "duration": 0.0074,
      "velocity": 71,
      "chip": "ym2612"
    },
    {
      "channel": 3,
      "note": 71,
      "start": 41.6102,
      "duration": 0.0074,
      "velocity": 71,
      "chip": "ym2612"
    },
    {
      "channel": 1,
      "note": 72,
      "start": 41.6136,
      "duration": 0.0839,
      "velocity": 71,
      "chip": "ym2612"
    },
    {
      "channel": 2,
      "note": 65,
      "start": 41.6138,
      "duration": 0.0841,
      "velocity": 71,
      "chip": "ym2612"
    },
    {
      "channel": 4,
      "note": 65,
      "start": 41.6153,
      "duration": 0.085,
      "velocity": 71,
      "chip": "ym2612"
    },
    {
      "channel": 3,
      "note": 72,
      "start": 41.6179,
      "duration": 0.0849,
      "velocity": 71,
      "chip": "ym2612"
    },
    {
      "channel": 0,
      "note": 45,
      "start": 41.6974,
      "duration": 2.6487,
      "velocity": 97,
      "chip": "ym2612"
    },
    {
      "channel": 1,
      "note": 71,
      "start": 41.6978,
      "duration": 2.3984,
      "velocity": 71,
      "chip": "ym2612"
    },
    {
      "channel": 2,
      "note": 57,
      "start": 41.6982,
      "duration": 2.3981,
      "velocity": 71,
      "chip": "ym2612"
    },
    {
      "channel": 4,
      "note": 57,
      "start": 41.7005,
      "duration": 2.4459,
      "velocity": 71,
      "chip": "ym2612"
    },
    {
      "channel": 3,
      "note": 71,
      "start": 41.703,
      "duration": 2.5265,
      "velocity": 71,
      "chip": "ym2612"
    },
    {
      "channel": 0,
      "note": 45,
      "start": 44.5796,
      "duration": 0.2498,
      "velocity": 97,
      "chip": "ym2612"
    },
    {
      "channel": 1,
      "note": 71,
      "start": 44.5799,
      "duration": 0.2498,
      "velocity": 71,
      "chip": "ym2612"
    },
    {
      "channel": 2,
      "note": 57,
      "start": 44.5802,
      "duration": 0.2498,
      "velocity": 71,
      "chip": "ym2612"
    },
    {
      "channel": 4,
      "note": 57,
      "start": 44.63,
      "duration": 0.2018,
      "velocity": 71,
      "chip": "ym2612"
    },
    {
      "channel": 3,
      "note": 71,
      "start": 44.6966,
      "duration": 0.1379,
      "velocity": 71,
      "chip": "ym2612"
    },
    {
      "channel": 0,
      "note": 45,
      "start": 44.8296,
      "duration": 2.6312,
      "velocity": 97,
      "chip": "ym2612"
    },
    {
      "channel": 1,
      "note": 71,
      "start": 44.8299,
      "duration": 2.631,
      "velocity": 71,
      "chip": "ym2612"
    },
    {
      "channel": 2,
      "note": 57,
      "start": 44.8302,
      "duration": 2.6309,
      "velocity": 71,
      "chip": "ym2612"
    },
    {
      "channel": 4,
      "note": 57,
      "start": 44.8321,
      "duration": 2.6303,
      "velocity": 71,
      "chip": "ym2612"
    },
    {
      "channel": 3,
      "note": 71,
      "start": 44.8348,
      "duration": 2.6281,
      "velocity": 71,
      "chip": "ym2612"
    }
  ]
}