{
  "track_name": "05 - Mid-Boss",
  "duration_sec": 30.727,
  "sample_rate": 44100,
  "note_count": 629,
  "unique_pitches": 26,
  "pitch_range": 52,
  "avg_note_duration": 0.2542,
  "reconstruction_stats": {
    "notes_reconstructed": 629,
    "keyon_events": 629,
    "keyoff_events": 628,
    "orphan_keyons": 1,
    "unique_pitches": 26,
    "pitch_range": 52,
    "avg_duration_sec": 0.2542
  },
  "metadata": {
    "source": "S\\Super Thunder Blade\\05 - Mid-Boss.vgz"
  },
  "notes": [
    {
      "channel": 0,
      "note": 72,
      "start": 0.0,
      "duration": 0.0905,
      "velocity": 111,
      "chip": "ym2612"
    },
    {
      "channel": 1,
      "note": 48,
      "start": 0.0032,
      "duration": 0.0874,
      "velocity": 111,
      "chip": "ym2612"
    },
    {
      "channel": 3,
      "note": 76,
      "start": 0.008,
      "duration": 0.3333,
      "velocity": 105,
      "chip": "ym2612"
    },
    {
      "channel": 4,
      "note": 79,
      "start": 0.0111,
      "duration": 0.3303,
      "velocity": 106,
      "chip": "ym2612"
    },
    {
      "channel": 5,
      "note": 84,
      "start": 0.0141,
      "duration": 0.3274,
      "velocity": 101,
      "chip": "ym2612"
    },
    {
      "channel": 2,
      "note": 47,
      "start": 0.0244,
      "duration": 0.0832,
      "velocity": 117,
      "chip": "ym2612"
    },
    {
      "channel": 0,
      "note": 74,
      "start": 0.1241,
      "duration": 0.0997,
      "velocity": 111,
      "chip": "ym2612"
    },
    {
      "channel": 1,
      "note": 48,
      "start": 0.1245,
      "duration": 0.0994,
      "velocity": 111,
      "chip": "ym2612"
    },
    {
      "channel": 0,
      "note": 84,
      "start": 0.2408,
      "duration": 0.0997,
      "velocity": 111,
      "chip": "ym2612"
    },
    {
      "channel": 1,
      "note": 60,
      "start": 0.2412,
      "duration": 0.0994,
      "velocity": 111,
      "chip": "ym2612"
    },
    {
      "channel": 2,
      "note": 98,
      "start": 0.2577,
      "duration": 0.1003,
      "velocity": 127,
      "chip": "ym2612"
    },
    {
      "channel": 0,
      "note": 86,
      "start": 0.3575,
      "duration": 0.2163,
      "velocity": 111,
      "chip": "ym2612"
    },
    {
      "channel": 1,
      "note": 48,
      "start": 0.358,
      "duration": 0.216,
      "velocity": 111,
      "chip": "ym2612"
    },
    {
      "channel": 3,
      "note": 76,
      "start": 0.3598,
      "duration": 0.2148,
      "velocity": 105,
      "chip": "ym2612"
    },
    {
      "channel": 4,
      "note": 79,
      "start": 0.3603,
      "duration": 0.2144,
      "velocity": 106,
      "chip": "ym2612"
    },
    {
      "channel": 5,
      "note": 84,
      "start": 0.3608,
      "duration": 0.2141,
      "velocity": 101,
      "chip": "ym2612"
    },
    {
      "channel": 2,
      "note": 98,
      "start": 0.3744,
      "duration": 0.0997,
      "velocity": 127,
      "chip": "ym2612"
    },
    {
      "channel": 2,
      "note": 59,
      "start": 0.491,
      "duration": 0.1004,
      "velocity": 116,
      "chip": "ym2612"
    },
    {
      "channel": 0,
      "note": 72,
      "start": 0.5908,
      "duration": 0.0997,
      "velocity": 111,
      "chip": "ym2612"
    },
    {
      "channel": 1,
      "note": 50,
      "start": 0.5913,
      "duration": 0.0993,
      "velocity": 111,
      "chip": "ym2612"
    },
    {
      "channel": 3,
      "note": 76,
      "start": 0.5919,
      "duration": 0.2327,
      "velocity": 105,
      "chip": "ym2612"
    },
    {
      "channel": 4,
      "note": 79,
      "start": 0.5923,
      "duration": 0.2324,
      "velocity": 106,
      "chip": "ym2612"
    },
    {
      "channel": 5,
      "note": 84,
      "start": 0.5927,
      "duration": 0.2322,
      "velocity": 101,
      "chip": "ym2612"
    },
    {
      "channel": 0,
      "note": 74,
      "start": 0.7241,
      "duration": 0.0997,
      "velocity": 111,
      "chip": "ym2612"
    },
    {
      "channel": 1,
      "note": 51,
      "start": 0.7246,
      "duration": 0.0994,
      "velocity": 111,
      "chip": "ym2612"
    },
    {
      "channel": 2,
      "note": 98,
      "start": 0.741,
      "duration": 0.1003,
      "velocity": 127,
      "chip": "ym2612"
    },
    {
      "channel": 0,
      "note": 84,
      "start": 0.8408,
      "duration": 0.0997,
      "velocity": 111,
      "chip": "ym2612"
    },
    {
      "channel": 1,
      "note": 53,
      "start": 0.8412,
      "duration": 0.0994,
      "velocity": 111,
      "chip": "ym2612"
    },
    {
      "channel": 3,
      "note": 76,
      "start": 0.8431,
      "duration": 0.0982,
      "velocity": 105,
      "chip": "ym2612"
    },
    {
      "channel": 4,
      "note": 79,
      "start": 0.8435,
      "duration": 0.0979,
      "velocity": 106,
      "chip": "ym2612"
    },
    {
      "channel": 5,
      "note": 84,
      "start": 0.8439,
      "duration": 0.0976,
      "velocity": 101,
      "chip": "ym2612"
    },
    {
      "channel": 2,
      "note": 98,
      "start": 0.8577,
      "duration": 0.1003,
      "velocity": 127,
      "chip": "ym2612"
    },
    {
      "channel": 0,
      "note": 86,
      "start": 0.9575,
      "duration": 0.933,
      "velocity": 111,
      "chip": "ym2612"
    },
    {
      "channel": 1,
      "note": 58,
      "start": 0.958,
      "duration": 0.0993,
      "velocity": 111,
      "chip": "ym2612"
    },
    {
      "channel": 3,
      "note": 76,
      "start": 0.9599,
      "duration": 0.9314,
      "velocity": 105,
      "chip": "ym2612"
    },
    {
      "channel": 4,
      "note": 79,
      "start": 0.9603,
      "duration": 0.931,
      "velocity": 106,
      "chip": "ym2612"
    },
    {
      "channel": 5,
      "note": 84,
      "start": 0.9607,
      "duration": 0.9309,
      "velocity": 101,
      "chip": "ym2612"
    },
    {
      "channel": 2,
      "note": 47,
      "start": 0.9744,
      "duration": 0.083,
      "velocity": 117,
      "chip": "ym2612"
    },
    {
      "channel": 1,
      "note": 60,
      "start": 1.0743,
      "duration": 0.0997,
      "velocity": 111,
      "chip": "ym2612"
    },
    {
      "channel": 1,
      "note": 56,
      "start": 1.1909,
      "duration": 0.0997,
      "velocity": 111,
      "chip": "ym2612"
    },
    {
      "channel": 2,
      "note": 98,
      "start": 1.2078,
      "duration": 0.0997,
      "velocity": 127,
      "chip": "ym2612"
    },
    {
      "channel": 1,
      "note": 58,
      "start": 1.3243,
      "duration": 0.0997,
      "velocity": 111,
      "chip": "ym2612"
    },
    {
      "channel": 2,
      "note": 98,
      "start": 1.341,
      "duration": 0.1,
      "velocity": 127,
      "chip": "ym2612"
    },
    {
      "channel": 1,
      "note": 58,
      "start": 1.4409,
      "duration": 0.0997,
      "velocity": 111,
      "chip": "ym2612"
    },
    {
      "channel": 2,
      "note": 59,
      "start": 1.4577,
      "duration": 0.1,
      "velocity": 116,
      "chip": "ym2612"
    },
    {
      "channel": 1,
      "note": 70,
      "start": 1.5576,
      "duration": 0.0997,
      "velocity": 111,
      "chip": "ym2612"
    },
    {
      "channel": 1,
      "note": 59,
      "start": 1.6743,
      "duration": 0.0997,
      "velocity": 111,
      "chip": "ym2612"
    },
    {
      "channel": 2,
      "note": 98,
      "start": 1.691,
      "duration": 0.1,
      "velocity": 127,
      "chip": "ym2612"
    },
    {
      "channel": 1,
      "note": 71,
      "start": 1.7909,
      "duration": 0.0997,
      "velocity": 111,
      "chip": "ym2612"
    },
    {
      "channel": 2,
      "note": 98,
      "start": 1.8078,
      "duration": 0.0997,
      "velocity": 127,
      "chip": "ym2612"
    },
    {
      "channel": 0,
      "note": 72,
      "start": 1.9241,
      "duration": 0.0997,
      "velocity": 111,
      "chip": "ym2612"
    },
    {
      "channel": 1,
      "note": 48,
      "start": 1.9247,
      "duration": 0.0993,
      "velocity": 111,
      "chip": "ym2612"
    },
    {
      "channel": 3,
      "note": 76,
      "start": 1.9266,
      "duration": 0.3313,
      "velocity": 105,
      "chip": "ym2612"
    },
    {
      "channel": 4,
      "note": 79,
      "start": 1.9271,
      "duration": 0.331,
      "velocity": 106,
      "chip": "ym2612"
    },
    {
      "channel": 5,
      "note": 84,
      "start": 1.9275,
      "duration": 0.3307,
      "velocity": 101,
      "chip": "ym2612"
    },
    {
      "channel": 2,
      "note": 47,
      "start": 1.941,
      "duration": 0.0831,
      "velocity": 117,
      "chip": "ym2612"
    },
    {
      "channel": 0,
      "note": 74,
      "start": 2.0408,
      "duration": 0.0997,
      "velocity": 111,
      "chip": "ym2612"
    },
    {
      "channel": 1,
      "note": 48,
      "start": 2.0412,
      "duration": 0.0994,
      "velocity": 111,
      "chip": "ym2612"
    },
    {
      "channel": 0,
      "note": 84,
      "start": 2.1575,
      "duration": 0.0997,
      "velocity": 111,
      "chip": "ym2612"
    },
    {
      "channel": 1,
      "note": 60,
      "start": 2.1579,
      "duration": 0.0994,
      "velocity": 111,
      "chip": "ym2612"
    },
    {
      "channel": 2,
      "note": 98,
      "start": 2.1744,
      "duration": 0.1003,
      "velocity": 127,
      "chip": "ym2612"
    },
    {
      "channel": 0,
      "note": 86,
      "start": 2.2741,
      "duration": 0.2163,
      "velocity": 111,
      "chip": "ym2612"
    },
    {
      "channel": 1,
      "note": 48,
      "start": 2.2746,
      "duration": 0.216,
      "velocity": 111,
      "chip": "ym2612"
    },
    {
      "channel": 3,
      "note": 76,
      "start": 2.2764,
      "duration": 0.2148,
      "velocity": 105,
      "chip": "ym2612"
    },
    {
      "channel": 4,
      "note": 79,
      "start": 2.2769,
      "duration": 0.2145,
      "velocity": 106,
      "chip": "ym2612"
    },
    {
      "channel": 5,
      "note": 84,
      "start": 2.2773,
      "duration": 0.2143,
      "velocity": 101,
      "chip": "ym2612"
    },
    {
      "channel": 2,
      "note": 98,
      "start": 2.291,
      "duration": 0.0997,
      "velocity": 127,
      "chip": "ym2612"
    },
    {
      "channel": 2,
      "note": 59,
      "start": 2.4078,
      "duration": 0.0997,
      "velocity": 116,
      "chip": "ym2612"
    },
    {
      "channel": 0,
      "note": 72,
      "start": 2.5241,
      "duration": 0.0997,
      "velocity": 111,
      "chip": "ym2612"
    },
    {
      "channel": 1,
      "note": 50,
      "start": 2.5246,
      "duration": 0.0993,
      "velocity": 111,
      "chip": "ym2612"
    },
    {
      "channel": 3,
      "note": 76,
      "start": 2.5252,
      "duration": 0.216,
      "velocity": 105,
      "chip": "ym2612"
    },
    {
      "channel": 4,
      "note": 79,
      "start": 2.5257,
      "duration": 0.2157,
      "velocity": 106,
      "chip": "ym2612"
    },
    {
      "channel": 5,
      "note": 84,
      "start": 2.526,
      "duration": 0.2155,
      "velocity": 101,
      "chip": "ym2612"
    },
    {
      "channel": 0,
      "note": 74,
      "start": 2.6408,
      "duration": 0.0997,
      "velocity": 111,
      "chip": "ym2612"
    },
    {
      "channel": 1,
      "note": 51,
      "start": 2.6412,
      "duration": 0.0994,
      "velocity": 111,
      "chip": "ym2612"
    },
    {
      "channel": 2,
      "note": 98,
      "start": 2.6577,
      "duration": 0.1003,
      "velocity": 127,
      "chip": "ym2612"
    },
    {
      "channel": 0,
      "note": 84,
      "start": 2.7575,
      "duration": 0.0997,
      "velocity": 111,
      "chip": "ym2612"
    },
    {
      "channel": 1,
      "note": 53,
      "start": 2.7579,
      "duration": 0.0994,
      "velocity": 111,
      "chip": "ym2612"
    },
    {
      "channel": 3,
      "note": 76,
      "start": 2.7598,
      "duration": 0.0982,
      "velocity": 105,
      "chip": "ym2612"
    },
    {
      "channel": 4,
      "note": 79,
      "start": 2.7601,
      "duration": 0.0979,
      "velocity": 106,
      "chip": "ym2612"
    },
    {
      "channel": 5,
      "note": 84,
      "start": 2.7606,
      "duration": 0.0976,
      "velocity": 101,
      "chip": "ym2612"
    },
    {
      "channel": 2,
      "note": 98,
      "start": 2.7744,
      "duration": 0.1003,
      "velocity": 127,
      "chip": "ym2612"
    },
    {
      "channel": 0,
      "note": 86,
      "start": 2.8741,
      "duration": 0.4663,
      "velocity": 111,
      "chip": "ym2612"
    },
    {
      "channel": 1,
      "note": 58,
      "start": 2.8746,
      "duration": 0.0993,
      "velocity": 111,
      "chip": "ym2612"
    },
    {
      "channel": 3,
      "note": 76,
      "start": 2.8766,
      "duration": 0.948,
      "velocity": 105,
      "chip": "ym2612"
    },
    {
      "channel": 4,
      "note": 79,
      "start": 2.877,
      "duration": 0.9477,
      "velocity": 106,
      "chip": "ym2612"
    },
    {
      "channel": 5,
      "note": 84,
      "start": 2.8774,
      "duration": 0.9475,
      "velocity": 101,
      "chip": "ym2612"
    },
    {
      "channel": 2,
      "note": 47,
      "start": 2.891,
      "duration": 0.083,
      "velocity": 117,
      "chip": "ym2612"
    },
    {
      "channel": 1,
      "note": 60,
      "start": 2.9909,
      "duration": 0.0997,
      "velocity": 111,
      "chip": "ym2612"
    },
    {
      "channel": 1,
      "note": 56,
      "start": 3.1243,
      "duration": 0.0997,
      "velocity": 111,
      "chip": "ym2612"
    },
    {
      "channel": 2,
      "note": 98,
      "start": 3.141,
      "duration": 0.1,
      "velocity": 127,
      "chip": "ym2612"
    },
    {
      "channel": 1,
      "note": 58,
      "start": 3.2409,
      "duration": 0.0997,
      "velocity": 111,
      "chip": "ym2612"
    },
    {
      "channel": 2,
      "note": 98,
      "start": 3.2577,
      "duration": 0.1003,
      "velocity": 127,
      "chip": "ym2612"
    },
    {
      "channel": 0,
      "note": 89,
      "start": 3.3575,
      "duration": 0.2163,
      "velocity": 111,
      "chip": "ym2612"
    },
    {
      "channel": 1,
      "note": 58,
      "start": 3.358,
      "duration": 0.0993,
      "velocity": 111,
      "chip": "ym2612"
    },
    {
      "channel": 2,
      "note": 59,
      "start": 3.3744,
      "duration": 0.1,
      "velocity": 116,
      "chip": "ym2612"
    },
    {
      "channel": 1,
      "note": 70,
      "start": 3.4743,
      "duration": 0.0997,
      "velocity": 111,
      "chip": "ym2612"
    },
    {
      "channel": 0,
      "note": 86,
      "start": 3.5908,
      "duration": 0.233,
      "velocity": 111,
      "chip": "ym2612"
    },
    {
      "channel": 1,
      "note": 59,
      "start": 3.5912,
      "duration": 0.0994,
      "velocity": 111,
      "chip": "ym2612"
    },
    {
      "channel": 2,
      "note": 98,
      "start": 3.6078,
      "duration": 0.0997,
      "velocity": 127,
      "chip": "ym2612"
    },
    {
      "channel": 1,
      "note": 71,
      "start": 3.7243,
      "duration": 0.0997,
      "velocity": 111,
      "chip": "ym2612"
    },
    {
      "channel": 2,
      "note": 98,
      "start": 3.741,
      "duration": 0.1005,
      "velocity": 127,
      "chip": "ym2612"
    },
    {
      "channel": 0,
      "note": 72,
      "start": 3.8409,
      "duration": 0.0996,
      "velocity": 111,
      "chip": "ym2612"
    },
    {
      "channel": 1,
      "note": 48,
      "start": 3.8414,
      "duration": 0.0992,
      "velocity": 111,
      "chip": "ym2612"
    },
    {
      "channel": 3,
      "note": 74,
      "start": 3.8435,
      "duration": 0.3311,
      "velocity": 105,
      "chip": "ym2612"
    },
    {
      "channel": 4,
      "note": 77,
      "start": 3.844,
      "duration": 0.3307,
      "velocity": 106,
      "chip": "ym2612"
    },
    {
      "channel": 5,
      "note": 84,
      "start": 3.8444,
      "duration": 0.3305,
      "velocity": 101,
      "chip": "ym2612"
    },
    {
      "channel": 2,
      "note": 47,
      "start": 3.8577,
      "duration": 0.0831,
      "velocity": 117,
      "chip": "ym2612"
    },
    {
      "channel": 0,
      "note": 74,
      "start": 3.9575,
      "duration": 0.0997,
      "velocity": 111,
      "chip": "ym2612"
    },
    {
      "channel": 1,
      "note": 48,
      "start": 3.9578,
      "duration": 0.0994,
      "velocity": 111,
      "chip": "ym2612"
    },
    {
      "channel": 0,
      "note": 84,
      "start": 4.0741,
      "duration": 0.0997,
      "velocity": 111,
      "chip": "ym2612"
    },
    {
      "channel": 1,
      "note": 60,
      "start": 4.0746,
      "duration": 0.0994,
      "velocity": 111,
      "chip": "ym2612"
    },
    {
      "channel": 2,
      "note": 98,
      "start": 4.091,
      "duration": 0.1003,
      "velocity": 127,
      "chip": "ym2612"
    },
    {
      "channel": 0,
      "note": 86,
      "start": 4.1908,
      "duration": 0.233,
      "velocity": 111,
      "chip": "ym2612"
    },
    {
      "channel": 1,
      "note": 48,
      "start": 4.1913,
      "duration": 0.2326,
      "velocity": 111,
      "chip": "ym2612"
    },
    {
      "channel": 3,
      "note": 74,
      "start": 4.1931,
      "duration": 0.2315,
      "velocity": 105,
      "chip": "ym2612"
    },
    {
      "channel": 4,
      "note": 77,
      "start": 4.1935,
      "duration": 0.2312,
      "velocity": 106,
      "chip": "ym2612"
    },
    {
      "channel": 5,
      "note": 84,
      "start": 4.194,
      "duration": 0.2309,
      "velocity": 101,
      "chip": "ym2612"
    },
    {
      "channel": 2,
      "note": 98,
      "start": 4.2078,
      "duration": 0.0997,
      "velocity": 127,
      "chip": "ym2612"
    },
    {
      "channel": 2,
      "note": 59,
      "start": 4.341,
      "duration": 0.1004,
      "velocity": 116,
      "chip": "ym2612"
    },
    {
      "channel": 0,
      "note": 72,
      "start": 4.4408,
      "duration": 0.0997,
      "velocity": 111,
      "chip": "ym2612"
    },
    {
      "channel": 1,
      "note": 50,
      "start": 4.4413,
      "duration": 0.0993,
      "velocity": 111,
      "chip": "ym2612"
    },
    {
      "channel": 3,
      "note": 74,
      "start": 4.4419,
      "duration": 0.216,
      "velocity": 105,
      "chip": "ym2612"
    },
    {
      "channel": 4,
      "note": 77,
      "start": 4.4423,
      "duration": 0.2158,
      "velocity": 106,
      "chip": "ym2612"
    },
    {
      "channel": 5,
      "note": 84,
      "start": 4.4427,
      "duration": 0.2155,
      "velocity": 101,
      "chip": "ym2612"
    },
    {
      "channel": 0,
      "note": 74,
      "start": 4.5575,
      "duration": 0.0997,
      "velocity": 111,
      "chip": "ym2612"
    },
    {
      "channel": 1,
      "note": 51,
      "start": 4.5579,
      "duration": 0.0994,
      "velocity": 111,
      "chip": "ym2612"
    },
    {
      "channel": 2,
      "note": 98,
      "start": 4.5744,
      "duration": 0.1003,
      "velocity": 127,
      "chip": "ym2612"
    },
    {
      "channel": 0,
      "note": 84,
      "start": 4.6741,
      "duration": 0.0997,
      "velocity": 111,
      "chip": "ym2612"
    },
    {
      "channel": 1,
      "note": 53,
      "start": 4.6746,
      "duration": 0.0994,
      "velocity": 111,
      "chip": "ym2612"
    },
    {
      "channel": 3,
      "note": 74,
      "start": 4.6764,
      "duration": 0.0982,
      "velocity": 105,
      "chip": "ym2612"
    },
    {
      "channel": 4,
      "note": 77,
      "start": 4.6768,
      "duration": 0.0979,
      "velocity": 106,
      "chip": "ym2612"
    },
    {
      "channel": 5,
      "note": 84,
      "start": 4.6773,
      "duration": 0.0976,
      "velocity": 101,
      "chip": "ym2612"
    },
    {
      "channel": 2,
      "note": 98,
      "start": 4.691,
      "duration": 0.1003,
      "velocity": 127,
      "chip": "ym2612"
    },
    {
      "channel": 0,
      "note": 86,
      "start": 4.7908,
      "duration": 0.9497,
      "velocity": 111,
      "chip": "ym2612"
    },
    {
      "channel": 1,
      "note": 58,
      "start": 4.7913,
      "duration": 0.0993,
      "velocity": 111,
      "chip": "ym2612"
    },
    {
      "channel": 3,
      "note": 74,
      "start": 4.7932,
      "duration": 1.181,
      "velocity": 105,
      "chip": "ym2612"
    },
    {
      "channel": 4,
      "note": 77,
      "start": 4.7937,
      "duration": 1.1807,
      "velocity": 106,
      "chip": "ym2612"
    },
    {
      "channel": 5,
      "note": 84,
      "start": 4.794,
      "duration": 1.1805,
      "velocity": 101,
      "chip": "ym2612"
    },
    {
      "channel": 2,
      "note": 47,
      "start": 4.8078,
      "duration": 0.0829,
      "velocity": 117,
      "chip": "ym2612"
    },
    {
      "channel": 1,
      "note": 60,
      "start": 4.9243,
      "duration": 0.0997,
      "velocity": 111,
      "chip": "ym2612"
    },
    {
      "channel": 1,
      "note": 56,
      "start": 5.0409,
      "duration": 0.0997,
      "velocity": 111,
      "chip": "ym2612"
    },
    {
      "channel": 2,
      "note": 98,
      "start": 5.0577,
      "duration": 0.1,
      "velocity": 127,
      "chip": "ym2612"
    },
    {
      "channel": 1,
      "note": 58,
      "start": 5.1576,
      "duration": 0.0997,
      "velocity": 111,
      "chip": "ym2612"
    },
    {
      "channel": 2,
      "note": 98,
      "start": 5.1744,
      "duration": 0.1,
      "velocity": 127,
      "chip": "ym2612"
    },
    {
      "channel": 1,
      "note": 58,
      "start": 5.2743,
      "duration": 0.0997,
      "velocity": 111,
      "chip": "ym2612"
    },
    {
      "channel": 2,
      "note": 59,
      "start": 5.291,
      "duration": 0.1,
      "velocity": 116,
      "chip": "ym2612"
    },
    {
      "channel": 1,
      "note": 70,
      "start": 5.3909,
      "duration": 0.0997,
      "velocity": 111,
      "chip": "ym2612"
    },
    {
      "channel": 1,
      "note": 59,
      "start": 5.5243,
      "duration": 0.0997,
      "velocity": 111,
      "chip": "ym2612"
    },
    {
      "channel": 2,
      "note": 98,
      "start": 5.541,
      "duration": 0.1,
      "velocity": 127,
      "chip": "ym2612"
    },
    {
      "channel": 1,
      "note": 71,
      "start": 5.6409,
      "duration": 0.0997,
      "velocity": 111,
      "chip": "ym2612"
    },
    {
      "channel": 2,
      "note": 98,
      "start": 5.6577,
      "duration": 0.1005,
      "velocity": 127,
      "chip": "ym2612"
    },
    {
      "channel": 0,
      "note": 72,
      "start": 5.7575,
      "duration": 0.0997,
      "velocity": 111,
      "chip": "ym2612"
    },
    {
      "channel": 1,
      "note": 48,
      "start": 5.758,
      "duration": 0.0993,
      "velocity": 111,
      "chip": "ym2612"
    },
    {
      "channel": 2,
      "note": 47,
      "start": 5.7744,
      "duration": 0.0831,
      "velocity": 117,
      "chip": "ym2612"
    },
    {
      "channel": 0,
      "note": 74,
      "start": 5.8741,
      "duration": 0.0997,
      "velocity": 111,
      "chip": "ym2612"
    },
    {
      "channel": 1,
      "note": 48,
      "start": 5.8745,
      "duration": 0.0994,
      "velocity": 111,
      "chip": "ym2612"
    },
    {
      "channel": 0,
      "note": 84,
      "start": 5.9908,
      "duration": 0.0997,
      "velocity": 111,
      "chip": "ym2612"
    },
    {
      "channel": 1,
      "note": 60,
      "start": 5.9912,
      "duration": 0.0994,
      "velocity": 111,
      "chip": "ym2612"
    },
    {
      "channel": 3,
      "note": 74,
      "start": 5.9931,
      "duration": 1.6648,
      "velocity": 105,
      "chip": "ym2612"
    },
    {
      "channel": 4,
      "note": 77,
      "start": 5.9935,
      "duration": 1.6645,
      "velocity": 106,
      "chip": "ym2612"
    },
    {
      "channel": 5,
      "note": 84,
      "start": 5.9939,
      "duration": 1.6643,
      "velocity": 101,
      "chip": "ym2612"
    },
    {
      "channel": 2,
      "note": 98,
      "start": 6.0078,
      "duration": 0.0997,
      "velocity": 127,
      "chip": "ym2612"
    },
    {
      "channel": 0,
      "note": 86,
      "start": 6.1241,
      "duration": 0.2163,
      "velocity": 111,
      "chip": "ym2612"
    },
    {
      "channel": 1,
      "note": 48,
      "start": 6.1246,
      "duration": 0.216,
      "velocity": 111,
      "chip": "ym2612"
    },
    {
      "channel": 2,
      "note": 98,
      "start": 6.141,
      "duration": 0.0997,
      "velocity": 127,
      "chip": "ym2612"
    },
    {
      "channel": 2,
      "note": 59,
      "start": 6.2577,
      "duration": 0.1004,
      "velocity": 116,
      "chip": "ym2612"
    },
    {
      "channel": 0,
      "note": 72,
      "start": 6.3575,
      "duration": 0.0997,
      "velocity": 111,
      "chip": "ym2612"
    },
    {
      "channel": 1,
      "note": 50,
      "start": 6.358,
      "duration": 0.0993,
      "velocity": 111,
      "chip": "ym2612"
    },
    {
      "channel": 0,
      "note": 74,
      "start": 6.4741,
      "duration": 0.0997,
      "velocity": 111,
      "chip": "ym2612"
    },
    {
      "channel": 1,
      "note": 51,
      "start": 6.4746,
      "duration": 0.0994,
      "velocity": 111,
      "chip": "ym2612"
    },
    {
      "channel": 2,
      "note": 98,
      "start": 6.491,
      "duration": 0.1003,
      "velocity": 127,
      "chip": "ym2612"
    },
    {
      "channel": 0,
      "note": 84,
      "start": 6.5908,
      "duration": 0.0997,
      "velocity": 111,
      "chip": "ym2612"
    },
    {
      "channel": 1,
      "note": 53,
      "start": 6.5912,
      "duration": 0.0994,
      "velocity": 111,
      "chip": "ym2612"
    },
    {
      "channel": 2,
      "note": 98,
      "start": 6.6078,
      "duration": 0.0997,
      "velocity": 127,
      "chip": "ym2612"
    },
    {
      "channel": 0,
      "note": 86,
      "start": 6.7241,
      "duration": 0.4497,
      "velocity": 111,
      "chip": "ym2612"
    },
    {
      "channel": 1,
      "note": 58,
      "start": 6.7246,
      "duration": 0.0993,
      "velocity": 111,
      "chip": "ym2612"
    },
    {
      "channel": 2,
      "note": 47,
      "start": 6.741,
      "duration": 0.083,
      "velocity": 117,
      "chip": "ym2612"
    },
    {
      "channel": 1,
      "note": 60,
      "start": 6.8409,
      "duration": 0.0997,
      "velocity": 111,
      "chip": "ym2612"
    },
    {
      "channel": 1,
      "note": 56,
      "start": 6.9576,
      "duration": 0.0997,
      "velocity": 111,
      "chip": "ym2612"
    },
    {
      "channel": 2,
      "note": 98,
      "start": 6.9744,
      "duration": 0.1,
      "velocity": 127,
      "chip": "ym2612"
    },
    {
      "channel": 1,
      "note": 58,
      "start": 7.0743,
      "duration": 0.0997,
      "velocity": 111,
      "chip": "ym2612"
    },
    {
      "channel": 2,
      "note": 98,
      "start": 7.091,
      "duration": 0.1003,
      "velocity": 127,
      "chip": "ym2612"
    },
    {
      "channel": 0,
      "note": 89,
      "start": 7.1908,
      "duration": 0.233,
      "velocity": 111,
      "chip": "ym2612"
    },
    {
      "channel": 1,
      "note": 58,
      "start": 7.1913,
      "duration": 0.0993,
      "velocity": 111,
      "chip": "ym2612"
    },
    {
      "channel": 2,
      "note": 59,
      "start": 7.2078,
      "duration": 0.0997,
      "velocity": 116,
      "chip": "ym2612"
    },
    {
      "channel": 1,
      "note": 70,
      "start": 7.3243,
      "duration": 0.0997,
      "velocity": 111,
      "chip": "ym2612"
    },
    {
      "channel": 0,
      "note": 86,
      "start": 7.4408,
      "duration": 0.2163,
      "velocity": 111,
      "chip": "ym2612"
    },
    {
      "channel": 1,
      "note": 59,
      "start": 7.4412,
      "duration": 0.0994,
      "velocity": 111,
      "chip": "ym2612"
    },
    {
      "channel": 2,
      "note": 98,
      "start": 7.4577,
      "duration": 0.1,
      "velocity": 127,
      "chip": "ym2612"
    },
    {
      "channel": 1,
      "note": 71,
      "start": 7.5576,
      "duration": 0.0997,
      "velocity": 111,
      "chip": "ym2612"
    },
    {
      "channel": 2,
      "note": 98,
      "start": 7.5744,
      "duration": 0.1005,
      "velocity": 127,
      "chip": "ym2612"
    },
    {
      "channel": 0,
      "note": 72,
      "start": 7.6742,
      "duration": 0.0996,
      "velocity": 111,
      "chip": "ym2612"
    },
    {
      "channel": 1,
      "note": 48,
      "start": 7.6748,
      "duration": 0.0992,
      "velocity": 111,
      "chip": "ym2612"
    },
    {
      "channel": 3,
      "note": 76,
      "start": 7.6768,
      "duration": 0.3478,
      "velocity": 105,
      "chip": "ym2612"
    },
    {
      "channel": 4,
      "note": 79,
      "start": 7.6773,
      "duration": 0.3474,
      "velocity": 106,
      "chip": "ym2612"
    },
    {
      "channel": 5,
      "note": 84,
      "start": 7.6778,
      "duration": 0.3471,
      "velocity": 101,
      "chip": "ym2612"
    },
    {
      "channel": 2,
      "note": 47,
      "start": 7.691,
      "duration": 0.0831,
      "velocity": 117,
      "chip": "ym2612"
    },
    {
      "channel": 0,
      "note": 74,
      "start": 7.7908,
      "duration": 0.0997,
      "velocity": 111,
      "chip": "ym2612"
    },
    {
      "channel": 1,
      "note": 48,
      "start": 7.7912,
      "duration": 0.0994,
      "velocity": 111,
      "chip": "ym2612"
    },
    {
      "channel": 0,
      "note": 84,
      "start": 7.9241,
      "duration": 0.0997,
      "velocity": 111,
      "chip": "ym2612"
    },
    {
      "channel": 1,
      "note": 60,
      "start": 7.9246,
      "duration": 0.0994,
      "velocity": 111,
      "chip": "ym2612"
    },
    {
      "channel": 2,
      "note": 98,
      "start": 7.941,
      "duration": 0.1003,
      "velocity": 127,
      "chip": "ym2612"
    },
    {
      "channel": 0,
      "note": 86,
      "start": 8.0408,
      "duration": 0.2163,
      "velocity": 111,
      "chip": "ym2612"
    },
    {
      "channel": 1,
      "note": 48,
      "start": 8.0413,
      "duration": 0.216,
      "velocity": 111,
      "chip": "ym2612"
    },
    {
      "channel": 3,
      "note": 76,
      "start": 8.0431,
      "duration": 0.2148,
      "velocity": 105,
      "chip": "ym2612"
    },
    {
      "channel": 4,
      "note": 79,
      "start": 8.0435,
      "duration": 0.2145,
      "velocity": 106,
      "chip": "ym2612"
    },
    {
      "channel": 5,
      "note": 84,
      "start": 8.044,
      "duration": 0.2143,
      "velocity": 101,
      "chip": "ym2612"
    },
    {
      "channel": 2,
      "note": 98,
      "start": 8.0577,
      "duration": 0.0997,
      "velocity": 127,
      "chip": "ym2612"
    },
    {
      "channel": 2,
      "note": 59,
      "start": 8.1744,
      "duration": 0.1004,
      "velocity": 116,
      "chip": "ym2612"
    },
    {
      "channel": 0,
      "note": 72,
      "start": 8.2741,
      "duration": 0.0997,
      "velocity": 111,
      "chip": "ym2612"
    },
    {
      "channel": 1,
      "note": 50,
      "start": 8.2746,
      "duration": 0.0993,
      "velocity": 111,
      "chip": "ym2612"
    },
    {
      "channel": 3,
      "note": 76,
      "start": 8.2752,
      "duration": 0.216,
      "velocity": 105,
      "chip": "ym2612"
    },
    {
      "channel": 4,
      "note": 79,
      "start": 8.2756,
      "duration": 0.2158,
      "velocity": 106,
      "chip": "ym2612"
    },
    {
      "channel": 5,
      "note": 84,
      "start": 8.276,
      "duration": 0.2155,
      "velocity": 101,
      "chip": "ym2612"
    },
    {
      "channel": 0,
      "note": 74,
      "start": 8.3908,
      "duration": 0.0997,
      "velocity": 111,
      "chip": "ym2612"
    },
    {
      "channel": 1,
      "note": 51,
      "start": 8.3912,
      "duration": 0.0994,
      "velocity": 111,
      "chip": "ym2612"
    },
    {
      "channel": 2,
      "note": 98,
      "start": 8.4078,
      "duration": 0.0997,
      "velocity": 127,
      "chip": "ym2612"
    },
    {
      "channel": 0,
      "note": 84,
      "start": 8.5241,
      "duration": 0.0997,
      "velocity": 111,
      "chip": "ym2612"
    },
    {
      "channel": 1,
      "note": 53,
      "start": 8.5246,
      "duration": 0.0994,
      "velocity": 111,
      "chip": "ym2612"
    },
    {
      "channel": 3,
      "note": 76,
      "start": 8.5264,
      "duration": 0.0982,
      "velocity": 105,
      "chip": "ym2612"
    },
    {
      "channel": 4,
      "note": 79,
      "start": 8.5268,
      "duration": 0.0979,
      "velocity": 106,
      "chip": "ym2612"
    },
    {
      "channel": 5,
      "note": 84,
      "start": 8.5273,
      "duration": 0.0976,
      "velocity": 101,
      "chip": "ym2612"
    },
    {
      "channel": 2,
      "note": 98,
      "start": 8.541,
      "duration": 0.1003,
      "velocity": 127,
      "chip": "ym2612"
    },
    {
      "channel": 0,
      "note": 86,
      "start": 8.6408,
      "duration": 0.933,
      "velocity": 111,
      "chip": "ym2612"
    },
    {
      "channel": 1,
      "note": 58,
      "start": 8.6413,
      "duration": 0.0993,
      "velocity": 111,
      "chip": "ym2612"
    },
    {
      "channel": 3,
      "note": 76,
      "start": 8.6432,
      "duration": 0.9314,
      "velocity": 105,
      "chip": "ym2612"
    },
    {
      "channel": 4,
      "note": 79,
      "start": 8.6437,
      "duration": 0.931,
      "velocity": 106,
      "chip": "ym2612"
    },
    {
      "channel": 5,
      "note": 84,
      "start": 8.644,
      "duration": 0.9309,
      "velocity": 101,
      "chip": "ym2612"
    },
    {
      "channel": 2,
      "note": 47,
      "start": 8.6577,
      "duration": 0.083,
      "velocity": 117,
      "chip": "ym2612"
    },
    {
      "channel": 1,
      "note": 60,
      "start": 8.7576,
      "duration": 0.0997,
      "velocity": 111,
      "chip": "ym2612"
    },
    {
      "channel": 1,
      "note": 56,
      "start": 8.8743,
      "duration": 0.0997,
      "velocity": 111,
      "chip": "ym2612"
    },
    {
      "channel": 2,
      "note": 98,
      "start": 8.891,
      "duration": 0.1,
      "velocity": 127,
      "chip": "ym2612"
    },
    {
      "channel": 1,
      "note": 58,
      "start": 8.9909,
      "duration": 0.0997,
      "velocity": 111,
      "chip": "ym2612"
    },
    {
      "channel": 2,
      "note": 98,
      "start": 9.0078,
      "duration": 0.0997,
      "velocity": 127,
      "chip": "ym2612"
    },
    {
      "channel": 1,
      "note": 58,
      "start": 9.1243,
      "duration": 0.0997,
      "velocity": 111,
      "chip": "ym2612"
    },
    {
      "channel": 2,
      "note": 59,
      "start": 9.141,
      "duration": 0.1,
      "velocity": 116,
      "chip": "ym2612"
    },
    {
      "channel": 1,
      "note": 70,
      "start": 9.2409,
      "duration": 0.0997,
      "velocity": 111,
      "chip": "ym2612"
    },
    {
      "channel": 1,
      "note": 59,
      "start": 9.3576,
      "duration": 0.0997,
      "velocity": 111,
      "chip": "ym2612"
    },
    {
      "channel": 2,
      "note": 98,
      "start": 9.3744,
      "duration": 0.1,
      "velocity": 127,
      "chip": "ym2612"
    },
    {
      "channel": 1,
      "note": 71,
      "start": 9.4743,
      "duration": 0.0997,
      "velocity": 111,
      "chip": "ym2612"
    },
    {
      "channel": 2,
      "note": 98,
      "start": 9.491,
      "duration": 0.1005,
      "velocity": 127,
      "chip": "ym2612"
    },
    {
      "channel": 0,
      "note": 72,
      "start": 9.5908,
      "duration": 0.0997,
      "velocity": 111,
      "chip": "ym2612"
    },
    {
      "channel": 1,
      "note": 48,
      "start": 9.5914,
      "duration": 0.0993,
      "velocity": 111,
      "chip": "ym2612"
    },
    {
      "channel": 3,
      "note": 76,
      "start": 9.5933,
      "duration": 0.348,
      "velocity": 105,
      "chip": "ym2612"
    },
    {
      "channel": 4,
      "note": 79,
      "start": 9.5937,
      "duration": 0.3476,
      "velocity": 106,
      "chip": "ym2612"
    },
    {
      "channel": 5,
      "note": 84,
      "start": 9.5942,
      "duration": 0.3474,
      "velocity": 101,
      "chip": "ym2612"
    },
    {
      "channel": 2,
      "note": 47,
      "start": 9.6078,
      "duration": 0.0829,
      "velocity": 117,
      "chip": "ym2612"
    },
    {
      "channel": 0,
      "note": 74,
      "start": 9.7241,
      "duration": 0.0997,
      "velocity": 111,
      "chip": "ym2612"
    },
    {
      "channel": 1,
      "note": 48,
      "start": 9.7245,
      "duration": 0.0994,
      "velocity": 111,
      "chip": "ym2612"
    },
    {
      "channel": 0,
      "note": 84,
      "start": 9.8408,
      "duration": 0.0997,
      "velocity": 111,
      "chip": "ym2612"
    },
    {
      "channel": 1,
      "note": 60,
      "start": 9.8412,
      "duration": 0.0994,
      "velocity": 111,
      "chip": "ym2612"
    },
    {
      "channel": 2,
      "note": 98,
      "start": 9.8577,
      "duration": 0.1003,
      "velocity": 127,
      "chip": "ym2612"
    },
    {
      "channel": 0,
      "note": 86,
      "start": 9.9575,
      "duration": 0.2163,
      "velocity": 111,
      "chip": "ym2612"
    },
    {
      "channel": 1,
      "note": 48,
      "start": 9.958,
      "duration": 0.216,
      "velocity": 111,
      "chip": "ym2612"
    },
    {
      "channel": 3,
      "note": 76,
      "start": 9.9598,
      "duration": 0.2148,
      "velocity": 105,
      "chip": "ym2612"
    },
    {
      "channel": 4,
      "note": 79,
      "start": 9.9602,
      "duration": 0.2145,
      "velocity": 106,
      "chip": "ym2612"
    },
    {
      "channel": 5,
      "note": 84,
      "start": 9.9606,
      "duration": 0.2143,
      "velocity": 101,
      "chip": "ym2612"
    },
    {
      "channel": 2,
      "note": 98,
      "start": 9.9744,
      "duration": 0.0997,
      "velocity": 127,
      "chip": "ym2612"
    },
    {
      "channel": 2,
      "note": 59,
      "start": 10.091,
      "duration": 0.1004,
      "velocity": 116,
      "chip": "ym2612"
    },
    {
      "channel": 0,
      "note": 72,
      "start": 10.1908,
      "duration": 0.0997,
      "velocity": 111,
      "chip": "ym2612"
    },
    {
      "channel": 1,
      "note": 50,
      "start": 10.1913,
      "duration": 0.0993,
      "velocity": 111,
      "chip": "ym2612"
    },
    {
      "channel": 3,
      "note": 76,
      "start": 10.1919,
      "duration": 0.2327,
      "velocity": 105,
      "chip": "ym2612"
    },
    {
      "channel": 4,
      "note": 79,
      "start": 10.1923,
      "duration": 0.2324,
      "velocity": 106,
      "chip": "ym2612"
    },
    {
      "channel": 5,
      "note": 84,
      "start": 10.1927,
      "duration": 0.2322,
      "velocity": 101,
      "chip": "ym2612"
    },
    {
      "channel": 0,
      "note": 74,
      "start": 10.3241,
      "duration": 0.0997,
      "velocity": 111,
      "chip": "ym2612"
    },
    {
      "channel": 1,
      "note": 51,
      "start": 10.3246,
      "duration": 0.0994,
      "velocity": 111,
      "chip": "ym2612"
    },
    {
      "channel": 2,
      "note": 98,
      "start": 10.341,
      "duration": 0.1003,
      "velocity": 127,
      "chip": "ym2612"
    },
    {
      "channel": 0,
      "note": 84,
      "start": 10.4408,
      "duration": 0.0997,
      "velocity": 111,
      "chip": "ym2612"
    },
    {
      "channel": 1,
      "note": 53,
      "start": 10.4412,
      "duration": 0.0994,
      "velocity": 111,
      "chip": "ym2612"
    },
    {
      "channel": 3,
      "note": 76,
      "start": 10.4431,
      "duration": 0.0982,
      "velocity": 105,
      "chip": "ym2612"
    },
    {
      "channel": 4,
      "note": 79,
      "start": 10.4435,
      "duration": 0.0979,
      "velocity": 106,
      "chip": "ym2612"
    },
    {
      "channel": 5,
      "note": 84,
      "start": 10.4439,
      "duration": 0.0976,
      "velocity": 101,
      "chip": "ym2612"
    },
    {
      "channel": 2,
      "note": 98,
      "start": 10.4577,
      "duration": 0.1003,
      "velocity": 127,
      "chip": "ym2612"
    },
    {
      "channel": 0,
      "note": 86,
      "start": 10.5575,
      "duration": 0.4663,
      "velocity": 111,
      "chip": "ym2612"
    },
    {
      "channel": 1,
      "note": 58,
      "start": 10.558,
      "duration": 0.0993,
      "velocity": 111,
      "chip": "ym2612"
    },
    {
      "channel": 3,
      "note": 76,
      "start": 10.5599,
      "duration": 0.9314,
      "velocity": 105,
      "chip": "ym2612"
    },
    {
      "channel": 4,
      "note": 79,
      "start": 10.5603,
      "duration": 0.931,
      "velocity": 106,
      "chip": "ym2612"
    },
    {
      "channel": 5,
      "note": 84,
      "start": 10.5607,
      "duration": 0.9309,
      "velocity": 101,
      "chip": "ym2612"
    },
    {
      "channel": 2,
      "note": 47,
      "start": 10.5744,
      "duration": 0.083,
      "velocity": 117,
      "chip": "ym2612"
    },
    {
      "channel": 1,
      "note": 60,
      "start": 10.6743,
      "duration": 0.0997,
      "velocity": 111,
      "chip": "ym2612"
    },
    {
      "channel": 1,
      "note": 56,
      "start": 10.7909,
      "duration": 0.0997,
      "velocity": 111,
      "chip": "ym2612"
    },
    {
      "channel": 2,
      "note": 98,
      "start": 10.8078,
      "duration": 0.0997,
      "velocity": 127,
      "chip": "ym2612"
    },
    {
      "channel": 1,
      "note": 58,
      "start": 10.9243,
      "duration": 0.0997,
      "velocity": 111,
      "chip": "ym2612"
    },
    {
      "channel": 2,
      "note": 98,
      "start": 10.941,
      "duration": 0.1003,
      "velocity": 127,
      "chip": "ym2612"
    },
    {
      "channel": 0,
      "note": 89,
      "start": 11.0408,
      "duration": 0.2163,
      "velocity": 111,
      "chip": "ym2612"
    },
    {
      "channel": 1,
      "note": 58,
      "start": 11.0413,
      "duration": 0.0993,
      "velocity": 111,
      "chip": "ym2612"
    },
    {
      "channel": 2,
      "note": 59,
      "start": 11.0577,
      "duration": 0.1,
      "velocity": 116,
      "chip": "ym2612"
    },
    {
      "channel": 1,
      "note": 70,
      "start": 11.1576,
      "duration": 0.0997,
      "velocity": 111,
      "chip": "ym2612"
    },
    {
      "channel": 0,
      "note": 86,
      "start": 11.2741,
      "duration": 0.2163,
      "velocity": 111,
      "chip": "ym2612"
    },
    {
      "channel": 1,
      "note": 59,
      "start": 11.2746,
      "duration": 0.0994,
      "velocity": 111,
      "chip": "ym2612"
    },
    {
      "channel": 2,
      "note": 98,
      "start": 11.291,
      "duration": 0.1,
      "velocity": 127,
      "chip": "ym2612"
    },
    {
      "channel": 1,
      "note": 71,
      "start": 11.3909,
      "duration": 0.0997,
      "velocity": 111,
      "chip": "ym2612"
    },
    {
      "channel": 2,
      "note": 98,
      "start": 11.4078,
      "duration": 0.0997,
      "velocity": 127,
      "chip": "ym2612"
    },
    {
      "channel": 0,
      "note": 72,
      "start": 11.5242,
      "duration": 0.0996,
      "velocity": 111,
      "chip": "ym2612"
    },
    {
      "channel": 1,
      "note": 48,
      "start": 11.5248,
      "duration": 0.0992,
      "velocity": 111,
      "chip": "ym2612"
    },
    {
      "channel": 3,
      "note": 74,
      "start": 11.5268,
      "duration": 0.3311,
      "velocity": 105,
      "chip": "ym2612"
    },
    {
      "channel": 4,
      "note": 77,
      "start": 11.5273,
      "duration": 0.3307,
      "velocity": 106,
      "chip": "ym2612"
    },
    {
      "channel": 5,
      "note": 84,
      "start": 11.5278,
      "duration": 0.3305,
      "velocity": 101,
      "chip": "ym2612"
    },
    {
      "channel": 2,
      "note": 47,
      "start": 11.541,
      "duration": 0.0831,
      "velocity": 117,
      "chip": "ym2612"
    },
    {
      "channel": 0,
      "note": 74,
      "start": 11.6408,
      "duration": 0.0997,
      "velocity": 111,
      "chip": "ym2612"
    },
    {
      "channel": 1,
      "note": 48,
      "start": 11.6412,
      "duration": 0.0994,
      "velocity": 111,
      "chip": "ym2612"
    },
    {
      "channel": 0,
      "note": 84,
      "start": 11.7575,
      "duration": 0.0997,
      "velocity": 111,
      "chip": "ym2612"
    },
    {
      "channel": 1,
      "note": 60,
      "start": 11.7579,
      "duration": 0.0994,
      "velocity": 111,
      "chip": "ym2612"
    },
    {
      "channel": 2,
      "note": 98,
      "start": 11.7744,
      "duration": 0.1003,
      "velocity": 127,
      "chip": "ym2612"
    },
    {
      "channel": 0,
      "note": 86,
      "start": 11.8741,
      "duration": 0.2163,
      "velocity": 111,
      "chip": "ym2612"
    },
    {
      "channel": 1,
      "note": 48,
      "start": 11.8746,
      "duration": 0.216,
      "velocity": 111,
      "chip": "ym2612"
    },
    {
      "channel": 3,
      "note": 74,
      "start": 11.8764,
      "duration": 0.2148,
      "velocity": 105,
      "chip": "ym2612"
    },
    {
      "channel": 4,
      "note": 77,
      "start": 11.8769,
      "duration": 0.2145,
      "velocity": 106,
      "chip": "ym2612"
    },
    {
      "channel": 5,
      "note": 84,
      "start": 11.8773,
      "duration": 0.2143,
      "velocity": 101,
      "chip": "ym2612"
    },
    {
      "channel": 2,
      "note": 98,
      "start": 11.891,
      "duration": 0.0997,
      "velocity": 127,
      "chip": "ym2612"
    },
    {
      "channel": 2,
      "note": 59,
      "start": 12.0078,
      "duration": 0.0997,
      "velocity": 116,
      "chip": "ym2612"
    },
    {
      "channel": 0,
      "note": 72,
      "start": 12.1241,
      "duration": 0.0997,
      "velocity": 111,
      "chip": "ym2612"
    },
    {
      "channel": 1,
      "note": 50,
      "start": 12.1246,
      "duration": 0.0993,
      "velocity": 111,
      "chip": "ym2612"
    },
    {
      "channel": 3,
      "note": 74,
      "start": 12.1252,
      "duration": 0.216,
      "velocity": 105,
      "chip": "ym2612"
    },
    {
      "channel": 4,
      "note": 77,
      "start": 12.1257,
      "duration": 0.2157,
      "velocity": 106,
      "chip": "ym2612"
    },
    {
      "channel": 5,
      "note": 84,
      "start": 12.126,
      "duration": 0.2155,
      "velocity": 101,
      "chip": "ym2612"
    },
    {
      "channel": 0,
      "note": 74,
      "start": 12.2408,
      "duration": 0.0997,
      "velocity": 111,
      "chip": "ym2612"
    },
    {
      "channel": 1,
      "note": 51,
      "start": 12.2412,
      "duration": 0.0994,
      "velocity": 111,
      "chip": "ym2612"
    },
    {
      "channel": 2,
      "note": 98,
      "start": 12.2577,
      "duration": 0.1003,
      "velocity": 127,
      "chip": "ym2612"
    },
    {
      "channel": 0,
      "note": 84,
      "start": 12.3575,
      "duration": 0.0997,
      "velocity": 111,
      "chip": "ym2612"
    },
    {
      "channel": 1,
      "note": 53,
      "start": 12.3579,
      "duration": 0.0994,
      "velocity": 111,
      "chip": "ym2612"
    },
    {
      "channel": 3,
      "note": 74,
      "start": 12.3598,
      "duration": 0.0982,
      "velocity": 105,
      "chip": "ym2612"
    },
    {
      "channel": 4,
      "note": 77,
      "start": 12.3601,
      "duration": 0.0979,
      "velocity": 106,
      "chip": "ym2612"
    },
    {
      "channel": 5,
      "note": 84,
      "start": 12.3606,
      "duration": 0.0976,
      "velocity": 101,
      "chip": "ym2612"
    },
    {
      "channel": 2,
      "note": 98,
      "start": 12.3744,
      "duration": 0.1003,
      "velocity": 127,
      "chip": "ym2612"
    },
    {
      "channel": 0,
      "note": 86,
      "start": 12.4741,
      "duration": 0.9497,
      "velocity": 111,
      "chip": "ym2612"
    },
    {
      "channel": 1,
      "note": 58,
      "start": 12.4746,
      "duration": 0.0993,
      "velocity": 111,
      "chip": "ym2612"
    },
    {
      "channel": 3,
      "note": 74,
      "start": 12.4766,
      "duration": 1.181,
      "velocity": 105,
      "chip": "ym2612"
    },
    {
      "channel": 4,
      "note": 77,
      "start": 12.477,
      "duration": 1.1807,
      "velocity": 106,
      "chip": "ym2612"
    },
    {
      "channel": 5,
      "note": 84,
      "start": 12.4774,
      "duration": 1.1805,
      "velocity": 101,
      "chip": "ym2612"
    },
    {
      "channel": 2,
      "note": 47,
      "start": 12.491,
      "duration": 0.083,
      "velocity": 117,
      "chip": "ym2612"
    },
    {
      "channel": 1,
      "note": 60,
      "start": 12.5909,
      "duration": 0.0997,
      "velocity": 111,
      "chip": "ym2612"
    },
    {
      "channel": 1,
      "note": 56,
      "start": 12.7243,
      "duration": 0.0997,
      "velocity": 111,
      "chip": "ym2612"
    },
    {
      "channel": 2,
      "note": 98,
      "start": 12.741,
      "duration": 0.1,
      "velocity": 127,
      "chip": "ym2612"
    },
    {
      "channel": 1,
      "note": 58,
      "start": 12.8409,
      "duration": 0.0997,
      "velocity": 111,
      "chip": "ym2612"
    },
    {
      "channel": 2,
      "note": 98,
      "start": 12.8577,
      "duration": 0.1,
      "velocity": 127,
      "chip": "ym2612"
    },
    {
      "channel": 1,
      "note": 58,
      "start": 12.9576,
      "duration": 0.0997,
      "velocity": 111,
      "chip": "ym2612"
    },
    {
      "channel": 2,
      "note": 59,
      "start": 12.9744,
      "duration": 0.1,
      "velocity": 116,
      "chip": "ym2612"
    },
    {
      "channel": 1,
      "note": 70,
      "start": 13.0743,
      "duration": 0.0997,
      "velocity": 111,
      "chip": "ym2612"
    },
    {
      "channel": 1,
      "note": 59,
      "start": 13.1909,
      "duration": 0.0997,
      "velocity": 111,
      "chip": "ym2612"
    },
    {
      "channel": 2,
      "note": 98,
      "start": 13.2078,
      "duration": 0.0997,
      "velocity": 127,
      "chip": "ym2612"
    },
    {
      "channel": 1,
      "note": 71,
      "start": 13.3243,
      "duration": 0.0997,
      "velocity": 111,
      "chip": "ym2612"
    },
    {
      "channel": 2,
      "note": 98,
      "start": 13.341,
      "duration": 0.1005,
      "velocity": 127,
      "chip": "ym2612"
    },
    {
      "channel": 0,
      "note": 72,
      "start": 13.4408,
      "duration": 0.0997,
      "velocity": 111,
      "chip": "ym2612"
    },
    {
      "channel": 1,
      "note": 48,
      "start": 13.4414,
      "duration": 0.0993,
      "velocity": 111,
      "chip": "ym2612"
    },
    {
      "channel": 2,
      "note": 47,
      "start": 13.4577,
      "duration": 0.0831,
      "velocity": 117,
      "chip": "ym2612"
    },
    {
      "channel": 0,
      "note": 74,
      "start": 13.5575,
      "duration": 0.0997,
      "velocity": 111,
      "chip": "ym2612"
    },
    {
      "channel": 1,
      "note": 48,
      "start": 13.5578,
      "duration": 0.0994,
      "velocity": 111,
      "chip": "ym2612"
    },
    {
      "channel": 0,
      "note": 84,
      "start": 13.6741,
      "duration": 0.0997,
      "velocity": 111,
      "chip": "ym2612"
    },
    {
      "channel": 1,
      "note": 60,
      "start": 13.6746,
      "duration": 0.0994,
      "velocity": 111,
      "chip": "ym2612"
    },
    {
      "channel": 3,
      "note": 74,
      "start": 13.6764,
      "duration": 1.2648,
      "velocity": 105,
      "chip": "ym2612"
    },
    {
      "channel": 4,
      "note": 77,
      "start": 13.6769,
      "duration": 1.2645,
      "velocity": 106,
      "chip": "ym2612"
    },
    {
      "channel": 5,
      "note": 84,
      "start": 13.6773,
      "duration": 1.2642,
      "velocity": 101,
      "chip": "ym2612"
    },
    {
      "channel": 2,
      "note": 98,
      "start": 13.691,
      "duration": 0.1003,
      "velocity": 127,
      "chip": "ym2612"
    },
    {
      "channel": 0,
      "note": 86,
      "start": 13.7908,
      "duration": 0.233,
      "velocity": 111,
      "chip": "ym2612"
    },
    {
      "channel": 1,
      "note": 48,
      "start": 13.7913,
      "duration": 0.2326,
      "velocity": 111,
      "chip": "ym2612"
    },
    {
      "channel": 2,
      "note": 98,
      "start": 13.8078,
      "duration": 0.0997,
      "velocity": 127,
      "chip": "ym2612"
    },
    {
      "channel": 2,
      "note": 59,
      "start": 13.941,
      "duration": 0.1004,
      "velocity": 116,
      "chip": "ym2612"
    },
    {
      "channel": 0,
      "note": 72,
      "start": 14.0408,
      "duration": 0.0997,
      "velocity": 111,
      "chip": "ym2612"
    },
    {
      "channel": 1,
      "note": 50,
      "start": 14.0413,
      "duration": 0.0993,
      "velocity": 111,
      "chip": "ym2612"
    },
    {
      "channel": 0,
      "note": 74,
      "start": 14.1575,
      "duration": 0.0997,
      "velocity": 111,
      "chip": "ym2612"
    },
    {
      "channel": 1,
      "note": 51,
      "start": 14.1579,
      "duration": 0.0994,
      "velocity": 111,
      "chip": "ym2612"
    },
    {
      "channel": 2,
      "note": 98,
      "start": 14.1744,
      "duration": 0.1003,
      "velocity": 127,
      "chip": "ym2612"
    },
    {
      "channel": 0,
      "note": 84,
      "start": 14.2741,
      "duration": 0.0997,
      "velocity": 111,
      "chip": "ym2612"
    },
    {
      "channel": 1,
      "note": 53,
      "start": 14.2746,
      "duration": 0.0994,
      "velocity": 111,
      "chip": "ym2612"
    },
    {
      "channel": 2,
      "note": 98,
      "start": 14.291,
      "duration": 0.1003,
      "velocity": 127,
      "chip": "ym2612"
    },
    {
      "channel": 0,
      "note": 86,
      "start": 14.3908,
      "duration": 0.4663,
      "velocity": 111,
      "chip": "ym2612"
    },
    {
      "channel": 1,
      "note": 58,
      "start": 14.3913,
      "duration": 0.0993,
      "velocity": 111,
      "chip": "ym2612"
    },
    {
      "channel": 2,
      "note": 47,
      "start": 14.4078,
      "duration": 0.0829,
      "velocity": 117,
      "chip": "ym2612"
    },
    {
      "channel": 1,
      "note": 60,
      "start": 14.5243,
      "duration": 0.0997,
      "velocity": 111,
      "chip": "ym2612"
    },
    {
      "channel": 1,
      "note": 56,
      "start": 14.6409,
      "duration": 0.0997,
      "velocity": 111,
      "chip": "ym2612"
    },
    {
      "channel": 2,
      "note": 98,
      "start": 14.6577,
      "duration": 0.1,
      "velocity": 127,
      "chip": "ym2612"
    },
    {
      "channel": 1,
      "note": 58,
      "start": 14.7576,
      "duration": 0.0997,
      "velocity": 111,
      "chip": "ym2612"
    },
    {
      "channel": 2,
      "note": 98,
      "start": 14.7744,
      "duration": 0.1003,
      "velocity": 127,
      "chip": "ym2612"
    },
    {
      "channel": 0,
      "note": 89,
      "start": 14.8741,
      "duration": 0.2163,
      "velocity": 111,
      "chip": "ym2612"
    },
    {
      "channel": 1,
      "note": 58,
      "start": 14.8746,
      "duration": 0.0993,
      "velocity": 111,
      "chip": "ym2612"
    },
    {
      "channel": 2,
      "note": 59,
      "start": 14.891,
      "duration": 0.1,
      "velocity": 116,
      "chip": "ym2612"
    },
    {
      "channel": 1,
      "note": 70,
      "start": 14.9909,
      "duration": 0.0997,
      "velocity": 111,
      "chip": "ym2612"
    },
    {
      "channel": 0,
      "note": 86,
      "start": 15.1241,
      "duration": 0.2163,
      "velocity": 111,
      "chip": "ym2612"
    },
    {
      "channel": 1,
      "note": 70,
      "start": 15.1246,
      "duration": 0.0994,
      "velocity": 111,
      "chip": "ym2612"
    },
    {
      "channel": 2,
      "note": 98,
      "start": 15.141,
      "duration": 0.1,
      "velocity": 127,
      "chip": "ym2612"
    },
    {
      "channel": 1,
      "note": 70,
      "start": 15.2409,
      "duration": 0.0997,
      "velocity": 111,
      "chip": "ym2612"
    },
    {
      "channel": 2,
      "note": 98,
      "start": 15.2577,
      "duration": 0.1005,
      "velocity": 127,
      "chip": "ym2612"
    },
    {
      "channel": 0,
      "note": 84,
      "start": 15.3575,
      "duration": 0.0996,
      "velocity": 111,
      "chip": "ym2612"
    },
    {
      "channel": 1,
      "note": 48,
      "start": 15.358,
      "duration": 0.0993,
      "velocity": 111,
      "chip": "ym2612"
    },
    {
      "channel": 3,
      "note": 74,
      "start": 15.36,
      "duration": 1.8975,
      "velocity": 105,
      "chip": "ym2612"
    },
    {
      "channel": 4,
      "note": 79,
      "start": 15.3605,
      "duration": 1.8971,
      "velocity": 106,
      "chip": "ym2612"
    },
    {
      "channel": 5,
      "note": 84,
      "start": 15.361,
      "duration": 1.8968,
      "velocity": 101,
      "chip": "ym2612"
    },
    {
      "channel": 2,
      "note": 47,
      "start": 15.3744,
      "duration": 0.0831,
      "velocity": 117,
      "chip": "ym2612"
    },
    {
      "channel": 0,
      "note": 82,
      "start": 15.4741,
      "duration": 0.0997,
      "velocity": 111,
      "chip": "ym2612"
    },
    {
      "channel": 1,
      "note": 48,
      "start": 15.4745,
      "duration": 0.0994,
      "velocity": 111,
      "chip": "ym2612"
    },
    {
      "channel": 2,
      "note": 47,
      "start": 15.491,
      "duration": 0.0831,
      "velocity": 117,
      "chip": "ym2612"
    },
    {
      "channel": 0,
      "note": 81,
      "start": 15.5908,
      "duration": 0.0997,
      "velocity": 111,
      "chip": "ym2612"
    },
    {
      "channel": 1,
      "note": 60,
      "start": 15.5912,
      "duration": 0.0994,
      "velocity": 111,
      "chip": "ym2612"
    },
    {
      "channel": 2,
      "note": 98,
      "start": 15.6078,
      "duration": 0.0997,
      "velocity": 127,
      "chip": "ym2612"
    },
    {
      "channel": 0,
      "note": 79,
      "start": 15.7241,
      "duration": 1.0497,
      "velocity": 111,
      "chip": "ym2612"
    },
    {
      "channel": 1,
      "note": 48,
      "start": 15.7246,
      "duration": 0.216,
      "velocity": 111,
      "chip": "ym2612"
    },
    {
      "channel": 2,
      "note": 59,
      "start": 15.741,
      "duration": 0.0997,
      "velocity": 116,
      "chip": "ym2612"
    },
    {
      "channel": 1,
      "note": 50,
      "start": 15.9576,
      "duration": 0.0997,
      "velocity": 111,
      "chip": "ym2612"
    },
    {
      "channel": 2,
      "note": 98,
      "start": 15.9744,
      "duration": 0.1,
      "velocity": 127,
      "chip": "ym2612"
    },
    {
      "channel": 1,
      "note": 51,
      "start": 16.0743,
      "duration": 0.0997,
      "velocity": 111,
      "chip": "ym2612"
    },
    {
      "channel": 2,
      "note": 47,
      "start": 16.091,
      "duration": 0.083,
      "velocity": 117,
      "chip": "ym2612"
    },
    {
      "channel": 1,
      "note": 53,
      "start": 16.1909,
      "duration": 0.0997,
      "velocity": 111,
      "chip": "ym2612"
    },
    {
      "channel": 2,
      "note": 98,
      "start": 16.2078,
      "duration": 0.0997,
      "velocity": 127,
      "chip": "ym2612"
    },
    {
      "channel": 1,
      "note": 58,
      "start": 16.3243,
      "duration": 0.0997,
      "velocity": 111,
      "chip": "ym2612"
    },
    {
      "channel": 2,
      "note": 98,
      "start": 16.341,
      "duration": 0.1,
      "velocity": 127,
      "chip": "ym2612"
    },
    {
      "channel": 1,
      "note": 60,
      "start": 16.4409,
      "duration": 0.0997,
      "velocity": 111,
      "chip": "ym2612"
    },
    {
      "channel": 2,
      "note": 59,
      "start": 16.4577,
      "duration": 0.1,
      "velocity": 116,
      "chip": "ym2612"
    },
    {
      "channel": 1,
      "note": 56,
      "start": 16.5576,
      "duration": 0.0997,
      "velocity": 111,
      "chip": "ym2612"
    },
    {
      "channel": 2,
      "note": 98,
      "start": 16.5744,
      "duration": 0.1,
      "velocity": 127,
      "chip": "ym2612"
    },
    {
      "channel": 1,
      "note": 58,
      "start": 16.6743,
      "duration": 0.0997,
      "velocity": 111,
      "chip": "ym2612"
    },
    {
      "channel": 2,
      "note": 59,
      "start": 16.691,
      "duration": 0.1002,
      "velocity": 116,
      "chip": "ym2612"
    },
    {
      "channel": 0,
      "note": 77,
      "start": 16.7908,
      "duration": 0.3497,
      "velocity": 111,
      "chip": "ym2612"
    },
    {
      "channel": 0,
      "note": 76,
      "start": 17.1575,
      "duration": 2.0163,
      "velocity": 111,
      "chip": "ym2612"
    },
    {
      "channel": 1,
      "note": 48,
      "start": 17.2743,
      "duration": 0.0997,
      "velocity": 111,
      "chip": "ym2612"
    },
    {
      "channel": 3,
      "note": 74,
      "start": 17.2761,
      "duration": 1.8985,
      "velocity": 105,
      "chip": "ym2612"
    },
    {
      "channel": 4,
      "note": 76,
      "start": 17.2766,
      "duration": 1.8981,
      "velocity": 106,
      "chip": "ym2612"
    },
    {
      "channel": 5,
      "note": 84,
      "start": 17.2771,
      "duration": 1.8978,
      "velocity": 101,
      "chip": "ym2612"
    },
    {
      "channel": 2,
      "note": 47,
      "start": 17.291,
      "duration": 0.083,
      "velocity": 117,
      "chip": "ym2612"
    },
    {
      "channel": 1,
      "note": 48,
      "start": 17.3909,
      "duration": 0.0998,
      "velocity": 111,
      "chip": "ym2612"
    },
    {
      "channel": 2,
      "note": 47,
      "start": 17.4078,
      "duration": 0.0829,
      "velocity": 117,
      "chip": "ym2612"
    },
    {
      "channel": 1,
      "note": 60,
      "start": 17.5243,
      "duration": 0.0997,
      "velocity": 111,
      "chip": "ym2612"
    },
    {
      "channel": 2,
      "note": 98,
      "start": 17.541,
      "duration": 0.1,
      "velocity": 127,
      "chip": "ym2612"
    },
    {
      "channel": 1,
      "note": 48,
      "start": 17.6409,
      "duration": 0.2163,
      "velocity": 111,
      "chip": "ym2612"
    },
    {
      "channel": 2,
      "note": 59,
      "start": 17.6577,
      "duration": 0.0997,
      "velocity": 116,
      "chip": "ym2612"
    },
    {
      "channel": 1,
      "note": 50,
      "start": 17.8743,
      "duration": 0.0997,
      "velocity": 111,
      "chip": "ym2612"
    },
    {
      "channel": 2,
      "note": 98,
      "start": 17.891,
      "duration": 0.1,
      "velocity": 127,
      "chip": "ym2612"
    },
    {
      "channel": 1,
      "note": 51,
      "start": 17.9909,
      "duration": 0.0997,
      "velocity": 111,
      "chip": "ym2612"
    },
    {
      "channel": 2,
      "note": 47,
      "start": 18.0078,
      "duration": 0.0829,
      "velocity": 117,
      "chip": "ym2612"
    },
    {
      "channel": 1,
      "note": 53,
      "start": 18.1243,
      "duration": 0.0997,
      "velocity": 111,
      "chip": "ym2612"
    },
    {
      "channel": 2,
      "note": 47,
      "start": 18.141,
      "duration": 0.083,
      "velocity": 117,
      "chip": "ym2612"
    },
    {
      "channel": 1,
      "note": 58,
      "start": 18.2409,
      "duration": 0.0997,
      "velocity": 111,
      "chip": "ym2612"
    },
    {
      "channel": 2,
      "note": 59,
      "start": 18.2577,
      "duration": 0.1,
      "velocity": 116,
      "chip": "ym2612"
    },
    {
      "channel": 1,
      "note": 60,
      "start": 18.3576,
      "duration": 0.0997,
      "velocity": 111,
      "chip": "ym2612"
    },
    {
      "channel": 2,
      "note": 98,
      "start": 18.3744,
      "duration": 0.1,
      "velocity": 127,
      "chip": "ym2612"
    },
    {
      "channel": 1,
      "note": 56,
      "start": 18.4743,
      "duration": 0.0997,
      "velocity": 111,
      "chip": "ym2612"
    },
    {
      "channel": 2,
      "note": 98,
      "start": 18.491,
      "duration": 0.1,
      "velocity": 127,
      "chip": "ym2612"
    },
    {
      "channel": 1,
      "note": 58,
      "start": 18.5909,
      "duration": 0.0997,
      "velocity": 111,
      "chip": "ym2612"
    },
    {
      "channel": 2,
      "note": 98,
      "start": 18.6078,
      "duration": 0.0997,
      "velocity": 127,
      "chip": "ym2612"
    },
    {
      "channel": 1,
      "note": 46,
      "start": 18.7243,
      "duration": 0.2163,
      "velocity": 111,
      "chip": "ym2612"
    },
    {
      "channel": 2,
      "note": 59,
      "start": 18.741,
      "duration": 0.0997,
      "velocity": 116,
      "chip": "ym2612"
    },
    {
      "channel": 2,
      "note": 59,
      "start": 18.8577,
      "duration": 0.1,
      "velocity": 116,
      "chip": "ym2612"
    },
    {
      "channel": 1,
      "note": 58,
      "start": 18.9576,
      "duration": 0.2163,
      "velocity": 111,
      "chip": "ym2612"
    },
    {
      "channel": 2,
      "note": 59,
      "start": 18.9744,
      "duration": 0.0997,
      "velocity": 116,
      "chip": "ym2612"
    },
    {
      "channel": 2,
      "note": 59,
      "start": 19.091,
      "duration": 0.1003,
      "velocity": 116,
      "chip": "ym2612"
    },
    {
      "channel": 0,
      "note": 86,
      "start": 19.1908,
      "duration": 0.0997,
      "velocity": 111,
      "chip": "ym2612"
    },
    {
      "channel": 1,
      "note": 50,
      "start": 19.1913,
      "duration": 0.0993,
      "velocity": 111,
      "chip": "ym2612"
    },
    {
      "channel": 3,
      "note": 76,
      "start": 19.1933,
      "duration": 1.8975,
      "velocity": 105,
      "chip": "ym2612"
    },
    {
      "channel": 4,
      "note": 79,
      "start": 19.1938,
      "duration": 1.8972,
      "velocity": 106,
      "chip": "ym2612"
    },
    {
      "channel": 5,
      "note": 86,
      "start": 19.1942,
      "duration": 1.8969,
      "velocity": 101,
      "chip": "ym2612"
    },
    {
      "channel": 2,
      "note": 47,
      "start": 19.2078,
      "duration": 0.0829,
      "velocity": 117,
      "chip": "ym2612"
    },
    {
      "channel": 0,
      "note": 84,
      "start": 19.3241,
      "duration": 0.0997,
      "velocity": 111,
      "chip": "ym2612"
    },
    {
      "channel": 1,
      "note": 50,
      "start": 19.3245,
      "duration": 0.0994,
      "velocity": 111,
      "chip": "ym2612"
    },
    {
      "channel": 2,
      "note": 47,
      "start": 19.341,
      "duration": 0.0831,
      "velocity": 117,
      "chip": "ym2612"
    },
    {
      "channel": 0,
      "note": 82,
      "start": 19.4408,
      "duration": 0.0997,
      "velocity": 111,
      "chip": "ym2612"
    },
    {
      "channel": 1,
      "note": 62,
      "start": 19.4412,
      "duration": 0.0994,
      "velocity": 111,
      "chip": "ym2612"
    },
    {
      "channel": 2,
      "note": 98,
      "start": 19.4577,
      "duration": 0.1003,
      "velocity": 127,
      "chip": "ym2612"
    },
    {
      "channel": 0,
      "note": 81,
      "start": 19.5575,
      "duration": 1.0663,
      "velocity": 111,
      "chip": "ym2612"
    },
    {
      "channel": 1,
      "note": 50,
      "start": 19.558,
      "duration": 0.216,
      "velocity": 111,
      "chip": "ym2612"
    },
    {
      "channel": 2,
      "note": 59,
      "start": 19.5744,
      "duration": 0.0997,
      "velocity": 116,
      "chip": "ym2612"
    },
    {
      "channel": 1,
      "note": 57,
      "start": 19.7909,
      "duration": 0.0997,
      "velocity": 111,
      "chip": "ym2612"
    },
    {
      "channel": 2,
      "note": 98,
      "start": 19.8078,
      "duration": 0.0997,
      "velocity": 127,
      "chip": "ym2612"
    },
    {
      "channel": 1,
      "note": 55,
      "start": 19.9243,
      "duration": 0.0997,
      "velocity": 111,
      "chip": "ym2612"
    },
    {
      "channel": 2,
      "note": 47,
      "start": 19.941,
      "duration": 0.083,
      "velocity": 117,
      "chip": "ym2612"
    },
    {
      "channel": 1,
      "note": 53,
      "start": 20.0409,
      "duration": 0.0997,
      "velocity": 111,
      "chip": "ym2612"
    },
    {
      "channel": 2,
      "note": 98,
      "start": 20.0577,
      "duration": 0.1,
      "velocity": 127,
      "chip": "ym2612"
    },
    {
      "channel": 1,
      "note": 50,
      "start": 20.1576,
      "duration": 0.0997,
      "velocity": 111,
      "chip": "ym2612"
    },
    {
      "channel": 2,
      "note": 98,
      "start": 20.1744,
      "duration": 0.1,
      "velocity": 127,
      "chip": "ym2612"
    },
    {
      "channel": 1,
      "note": 50,
      "start": 20.2743,
      "duration": 0.0997,
      "velocity": 111,
      "chip": "ym2612"
    },
    {
      "channel": 2,
      "note": 59,
      "start": 20.291,
      "duration": 0.1,
      "velocity": 116,
      "chip": "ym2612"
    },
    {
      "channel": 1,
      "note": 62,
      "start": 20.3909,
      "duration": 0.0997,
      "velocity": 111,
      "chip": "ym2612"
    },
    {
      "channel": 2,
      "note": 98,
      "start": 20.4078,
      "duration": 0.0997,
      "velocity": 127,
      "chip": "ym2612"
    },
    {
      "channel": 1,
      "note": 50,
      "start": 20.5243,
      "duration": 0.0997,
      "velocity": 111,
      "chip": "ym2612"
    },
    {
      "channel": 2,
      "note": 59,
      "start": 20.541,
      "duration": 0.1002,
      "velocity": 116,
      "chip": "ym2612"
    },
    {
      "channel": 0,
      "note": 82,
      "start": 20.6408,
      "duration": 0.333,
      "velocity": 111,
      "chip": "ym2612"
    },
    {
      "channel": 0,
      "note": 86,
      "start": 20.9908,
      "duration": 2.033,
      "velocity": 111,
      "chip": "ym2612"
    },
    {
      "channel": 1,
      "note": 50,
      "start": 21.1243,
      "duration": 0.0997,
      "velocity": 111,
      "chip": "ym2612"
    },
    {
      "channel": 3,
      "note": 76,
      "start": 21.1262,
      "duration": 1.8984,
      "velocity": 105,
      "chip": "ym2612"
    },
    {
      "channel": 4,
      "note": 81,
      "start": 21.1267,
      "duration": 1.898,
      "velocity": 106,
      "chip": "ym2612"
    },
    {
      "channel": 5,
      "note": 86,
      "start": 21.1272,
      "duration": 1.8977,
      "velocity": 101,
      "chip": "ym2612"
    },
    {
      "channel": 2,
      "note": 47,
      "start": 21.141,
      "duration": 0.083,
      "velocity": 117,
      "chip": "ym2612"
    },
    {
      "channel": 1,
      "note": 50,
      "start": 21.2409,
      "duration": 0.0998,
      "velocity": 111,
      "chip": "ym2612"
    },
    {
      "channel": 2,
      "note": 47,
      "start": 21.2577,
      "duration": 0.083,
      "velocity": 117,
      "chip": "ym2612"
    },
    {
      "channel": 1,
      "note": 62,
      "start": 21.3576,
      "duration": 0.0997,
      "velocity": 111,
      "chip": "ym2612"
    },
    {
      "channel": 2,
      "note": 98,
      "start": 21.3744,
      "duration": 0.1,
      "velocity": 127,
      "chip": "ym2612"
    },
    {
      "channel": 1,
      "note": 50,
      "start": 21.4743,
      "duration": 0.2163,
      "velocity": 111,
      "chip": "ym2612"
    },
    {
      "channel": 2,
      "note": 59,
      "start": 21.491,
      "duration": 0.0997,
      "velocity": 116,
      "chip": "ym2612"
    },
    {
      "channel": 1,
      "note": 57,
      "start": 21.7243,
      "duration": 0.0997,
      "velocity": 111,
      "chip": "ym2612"
    },
    {
      "channel": 2,
      "note": 98,
      "start": 21.741,
      "duration": 0.1,
      "velocity": 127,
      "chip": "ym2612"
    },
    {
      "channel": 1,
      "note": 55,
      "start": 21.8409,
      "duration": 0.0997,
      "velocity": 111,
      "chip": "ym2612"
    },
    {
      "channel": 2,
      "note": 47,
      "start": 21.8577,
      "duration": 0.083,
      "velocity": 117,
      "chip": "ym2612"
    },
    {
      "channel": 1,
      "note": 53,
      "start": 21.9576,
      "duration": 0.0997,
      "velocity": 111,
      "chip": "ym2612"
    },
    {
      "channel": 2,
      "note": 47,
      "start": 21.9744,
      "duration": 0.083,
      "velocity": 117,
      "chip": "ym2612"
    },
    {
      "channel": 1,
      "note": 50,
      "start": 22.0743,
      "duration": 0.0997,
      "velocity": 111,
      "chip": "ym2612"
    },
    {
      "channel": 2,
      "note": 59,
      "start": 22.091,
      "duration": 0.1,
      "velocity": 116,
      "chip": "ym2612"
    },
    {
      "channel": 1,
      "note": 50,
      "start": 22.1909,
      "duration": 0.0997,
      "velocity": 111,
      "chip": "ym2612"
    },
    {
      "channel": 2,
      "note": 98,
      "start": 22.2078,
      "duration": 0.0997,
      "velocity": 127,
      "chip": "ym2612"
    },
    {
      "channel": 1,
      "note": 62,
      "start": 22.3243,
      "duration": 0.0997,
      "velocity": 111,
      "chip": "ym2612"
    },
    {
      "channel": 2,
      "note": 98,
      "start": 22.341,
      "duration": 0.1,
      "velocity": 127,
      "chip": "ym2612"
    },
    {
      "channel": 1,
      "note": 50,
      "start": 22.4409,
      "duration": 0.0997,
      "velocity": 111,
      "chip": "ym2612"
    },
    {
      "channel": 2,
      "note": 98,
      "start": 22.4577,
      "duration": 0.1,
      "velocity": 127,
      "chip": "ym2612"
    },
    {
      "channel": 1,
      "note": 48,
      "start": 22.5576,
      "duration": 0.2163,
      "velocity": 111,
      "chip": "ym2612"
    },
    {
      "channel": 2,
      "note": 59,
      "start": 22.5744,
      "duration": 0.0997,
      "velocity": 116,
      "chip": "ym2612"
    },
    {
      "channel": 2,
      "note": 59,
      "start": 22.691,
      "duration": 0.1,
      "velocity": 116,
      "chip": "ym2612"
    },
    {
      "channel": 1,
      "note": 50,
      "start": 22.7909,
      "duration": 0.233,
      "velocity": 111,
      "chip": "ym2612"
    },
    {
      "channel": 2,
      "note": 59,
      "start": 22.8078,
      "duration": 0.0997,
      "velocity": 116,
      "chip": "ym2612"
    },
    {
      "channel": 2,
      "note": 59,
      "start": 22.941,
      "duration": 0.1003,
      "velocity": 116,
      "chip": "ym2612"
    },
    {
      "channel": 0,
      "note": 84,
      "start": 23.0408,
      "duration": 0.0997,
      "velocity": 111,
      "chip": "ym2612"
    },
    {
      "channel": 1,
      "note": 48,
      "start": 23.0413,
      "duration": 0.0993,
      "velocity": 111,
      "chip": "ym2612"
    },
    {
      "channel": 3,
      "note": 74,
      "start": 23.0433,
      "duration": 1.8975,
      "velocity": 105,
      "chip": "ym2612"
    },
    {
      "channel": 4,
      "note": 79,
      "start": 23.0438,
      "duration": 1.8972,
      "velocity": 106,
      "chip": "ym2612"
    },
    {
      "channel": 5,
      "note": 84,
      "start": 23.0442,
      "duration": 1.8969,
      "velocity": 101,
      "chip": "ym2612"
    },
    {
      "channel": 2,
      "note": 47,
      "start": 23.0577,
      "duration": 0.0831,
      "velocity": 117,
      "chip": "ym2612"
    },
    {
      "channel": 0,
      "note": 82,
      "start": 23.1575,
      "duration": 0.0997,
      "velocity": 111,
      "chip": "ym2612"
    },
    {
      "channel": 1,
      "note": 48,
      "start": 23.1578,
      "duration": 0.0994,
      "velocity": 111,
      "chip": "ym2612"
    },
    {
      "channel": 2,
      "note": 47,
      "start": 23.1744,
      "duration": 0.0831,
      "velocity": 117,
      "chip": "ym2612"
    },
    {
      "channel": 0,
      "note": 81,
      "start": 23.2741,
      "duration": 0.0997,
      "velocity": 111,
      "chip": "ym2612"
    },
    {
      "channel": 1,
      "note": 60,
      "start": 23.2746,
      "duration": 0.0994,
      "velocity": 111,
      "chip": "ym2612"
    },
    {
      "channel": 2,
      "note": 98,
      "start": 23.291,
      "duration": 0.1003,
      "velocity": 127,
      "chip": "ym2612"
    },
    {
      "channel": 0,
      "note": 79,
      "start": 23.3908,
      "duration": 1.0663,
      "velocity": 111,
      "chip": "ym2612"
    },
    {
      "channel": 1,
      "note": 48,
      "start": 23.3913,
      "duration": 0.2326,
      "velocity": 111,
      "chip": "ym2612"
    },
    {
      "channel": 2,
      "note": 59,
      "start": 23.4078,
      "duration": 0.0997,
      "velocity": 116,
      "chip": "ym2612"
    },
    {
      "channel": 1,
      "note": 50,
      "start": 23.6409,
      "duration": 0.0997,
      "velocity": 111,
      "chip": "ym2612"
    },
    {
      "channel": 2,
      "note": 98,
      "start": 23.6577,
      "duration": 0.1,
      "velocity": 127,
      "chip": "ym2612"
    },
    {
      "channel": 1,
      "note": 51,
      "start": 23.7576,
      "duration": 0.0997,
      "velocity": 111,
      "chip": "ym2612"
    },
    {
      "channel": 2,
      "note": 47,
      "start": 23.7744,
      "duration": 0.083,
      "velocity": 117,
      "chip": "ym2612"
    },
    {
      "channel": 1,
      "note": 53,
      "start": 23.8743,
      "duration": 0.0997,
      "velocity": 111,
      "chip": "ym2612"
    },
    {
      "channel": 2,
      "note": 98,
      "start": 23.891,
      "duration": 0.1,
      "velocity": 127,
      "chip": "ym2612"
    },
    {
      "channel": 1,
      "note": 58,
      "start": 23.9909,
      "duration": 0.0997,
      "velocity": 111,
      "chip": "ym2612"
    },
    {
      "channel": 2,
      "note": 98,
      "start": 24.0078,
      "duration": 0.0997,
      "velocity": 127,
      "chip": "ym2612"
    },
    {
      "channel": 1,
      "note": 60,
      "start": 24.1243,
      "duration": 0.0997,
      "velocity": 111,
      "chip": "ym2612"
    },
    {
      "channel": 2,
      "note": 59,
      "start": 24.141,
      "duration": 0.1,
      "velocity": 116,
      "chip": "ym2612"
    },
    {
      "channel": 1,
      "note": 56,
      "start": 24.2409,
      "duration": 0.0997,
      "velocity": 111,
      "chip": "ym2612"
    },
    {
      "channel": 2,
      "note": 98,
      "start": 24.2577,
      "duration": 0.1,
      "velocity": 127,
      "chip": "ym2612"
    },
    {
      "channel": 1,
      "note": 58,
      "start": 24.3576,
      "duration": 0.0997,
      "velocity": 111,
      "chip": "ym2612"
    },
    {
      "channel": 2,
      "note": 59,
      "start": 24.3744,
      "duration": 0.1002,
      "velocity": 116,
      "chip": "ym2612"
    },
    {
      "channel": 0,
      "note": 77,
      "start": 24.4741,
      "duration": 0.3497,
      "velocity": 111,
      "chip": "ym2612"
    },
    {
      "channel": 0,
      "note": 76,
      "start": 24.8408,
      "duration": 2.0163,
      "velocity": 111,
      "chip": "ym2612"
    },
    {
      "channel": 1,
      "note": 48,
      "start": 24.9576,
      "duration": 0.0997,
      "velocity": 111,
      "chip": "ym2612"
    },
    {
      "channel": 3,
      "note": 74,
      "start": 24.9595,
      "duration": 1.8983,
      "velocity": 105,
      "chip": "ym2612"
    },
    {
      "channel": 4,
      "note": 76,
      "start": 24.96,
      "duration": 1.898,
      "velocity": 106,
      "chip": "ym2612"
    },
    {
      "channel": 5,
      "note": 84,
      "start": 24.9605,
      "duration": 1.8976,
      "velocity": 101,
      "chip": "ym2612"
    },
    {
      "channel": 2,
      "note": 47,
      "start": 24.9744,
      "duration": 0.083,
      "velocity": 117,
      "chip": "ym2612"
    },
    {
      "channel": 1,
      "note": 48,
      "start": 25.0742,
      "duration": 0.0998,
      "velocity": 111,
      "chip": "ym2612"
    },
    {
      "channel": 2,
      "note": 47,
      "start": 25.091,
      "duration": 0.083,
      "velocity": 117,
      "chip": "ym2612"
    },
    {
      "channel": 1,
      "note": 60,
      "start": 25.1909,
      "duration": 0.0997,
      "velocity": 111,
      "chip": "ym2612"
    },
    {
      "channel": 2,
      "note": 98,
      "start": 25.2078,
      "duration": 0.0997,
      "velocity": 127,
      "chip": "ym2612"
    },
    {
      "channel": 1,
      "note": 48,
      "start": 25.3243,
      "duration": 0.2163,
      "velocity": 111,
      "chip": "ym2612"
    },
    {
      "channel": 2,
      "note": 59,
      "start": 25.341,
      "duration": 0.0997,
      "velocity": 116,
      "chip": "ym2612"
    },
    {
      "channel": 1,
      "note": 50,
      "start": 25.5576,
      "duration": 0.0997,
      "velocity": 111,
      "chip": "ym2612"
    },
    {
      "channel": 2,
      "note": 98,
      "start": 25.5744,
      "duration": 0.1,
      "velocity": 127,
      "chip": "ym2612"
    },
    {
      "channel": 1,
      "note": 51,
      "start": 25.6743,
      "duration": 0.0997,
      "velocity": 111,
      "chip": "ym2612"
    },
    {
      "channel": 2,
      "note": 47,
      "start": 25.691,
      "duration": 0.083,
      "velocity": 117,
      "chip": "ym2612"
    },
    {
      "channel": 1,
      "note": 53,
      "start": 25.7909,
      "duration": 0.0997,
      "velocity": 111,
      "chip": "ym2612"
    },
    {
      "channel": 2,
      "note": 47,
      "start": 25.8078,
      "duration": 0.0829,
      "velocity": 117,
      "chip": "ym2612"
    },
    {
      "channel": 1,
      "note": 58,
      "start": 25.9243,
      "duration": 0.0997,
      "velocity": 111,
      "chip": "ym2612"
    },
    {
      "channel": 2,
      "note": 59,
      "start": 25.941,
      "duration": 0.1,
      "velocity": 116,
      "chip": "ym2612"
    },
    {
      "channel": 1,
      "note": 60,
      "start": 26.0409,
      "duration": 0.0997,
      "velocity": 111,
      "chip": "ym2612"
    },
    {
      "channel": 2,
      "note": 98,
      "start": 26.0577,
      "duration": 0.1,
      "velocity": 127,
      "chip": "ym2612"
    },
    {
      "channel": 1,
      "note": 56,
      "start": 26.1576,
      "duration": 0.0997,
      "velocity": 111,
      "chip": "ym2612"
    },
    {
      "channel": 2,
      "note": 98,
      "start": 26.1744,
      "duration": 0.1,
      "velocity": 127,
      "chip": "ym2612"
    },
    {
      "channel": 1,
      "note": 58,
      "start": 26.2743,
      "duration": 0.0997,
      "velocity": 111,
      "chip": "ym2612"
    },
    {
      "channel": 2,
      "note": 98,
      "start": 26.291,
      "duration": 0.0999,
      "velocity": 127,
      "chip": "ym2612"
    },
    {
      "channel": 2,
      "note": 59,
      "start": 26.4078,
      "duration": 0.0997,
      "velocity": 116,
      "chip": "ym2612"
    },
    {
      "channel": 2,
      "note": 59,
      "start": 26.541,
      "duration": 0.0997,
      "velocity": 116,
      "chip": "ym2612"
    },
    {
      "channel": 2,
      "note": 59,
      "start": 26.6577,
      "duration": 0.0997,
      "velocity": 116,
      "chip": "ym2612"
    },
    {
      "channel": 2,
      "note": 59,
      "start": 26.7743,
      "duration": 0.1004,
      "velocity": 116,
      "chip": "ym2612"
    },
    {
      "channel": 0,
      "note": 86,
      "start": 26.8741,
      "duration": 0.0997,
      "velocity": 111,
      "chip": "ym2612"
    },
    {
      "channel": 1,
      "note": 50,
      "start": 26.8746,
      "duration": 0.0993,
      "velocity": 111,
      "chip": "ym2612"
    },
    {
      "channel": 3,
      "note": 76,
      "start": 26.8766,
      "duration": 1.8975,
      "velocity": 105,
      "chip": "ym2612"
    },
    {
      "channel": 4,
      "note": 79,
      "start": 26.8771,
      "duration": 1.8972,
      "velocity": 106,
      "chip": "ym2612"
    },
    {
      "channel": 5,
      "note": 86,
      "start": 26.8776,
      "duration": 1.8969,
      "velocity": 101,
      "chip": "ym2612"
    },
    {
      "channel": 2,
      "note": 47,
      "start": 26.891,
      "duration": 0.0831,
      "velocity": 117,
      "chip": "ym2612"
    },
    {
      "channel": 0,
      "note": 84,
      "start": 26.9908,
      "duration": 0.0997,
      "velocity": 111,
      "chip": "ym2612"
    },
    {
      "channel": 1,
      "note": 50,
      "start": 26.9912,
      "duration": 0.0994,
      "velocity": 111,
      "chip": "ym2612"
    },
    {
      "channel": 2,
      "note": 47,
      "start": 27.0078,
      "duration": 0.0829,
      "velocity": 117,
      "chip": "ym2612"
    },
    {
      "channel": 0,
      "note": 82,
      "start": 27.1241,
      "duration": 0.0997,
      "velocity": 111,
      "chip": "ym2612"
    },
    {
      "channel": 1,
      "note": 62,
      "start": 27.1246,
      "duration": 0.0994,
      "velocity": 111,
      "chip": "ym2612"
    },
    {
      "channel": 2,
      "note": 98,
      "start": 27.141,
      "duration": 0.1003,
      "velocity": 127,
      "chip": "ym2612"
    },
    {
      "channel": 0,
      "note": 81,
      "start": 27.2408,
      "duration": 1.0497,
      "velocity": 111,
      "chip": "ym2612"
    },
    {
      "channel": 1,
      "note": 50,
      "start": 27.2413,
      "duration": 0.216,
      "velocity": 111,
      "chip": "ym2612"
    },
    {
      "channel": 2,
      "note": 59,
      "start": 27.2577,
      "duration": 0.0997,
      "velocity": 116,
      "chip": "ym2612"
    },
    {
      "channel": 1,
      "note": 57,
      "start": 27.4743,
      "duration": 0.0997,
      "velocity": 111,
      "chip": "ym2612"
    },
    {
      "channel": 2,
      "note": 98,
      "start": 27.491,
      "duration": 0.1,
      "velocity": 127,
      "chip": "ym2612"
    },
    {
      "channel": 1,
      "note": 55,
      "start": 27.5909,
      "duration": 0.0997,
      "velocity": 111,
      "chip": "ym2612"
    },
    {
      "channel": 2,
      "note": 47,
      "start": 27.6078,
      "duration": 0.0829,
      "velocity": 117,
      "chip": "ym2612"
    },
    {
      "channel": 1,
      "note": 53,
      "start": 27.7243,
      "duration": 0.0997,
      "velocity": 111,
      "chip": "ym2612"
    },
    {
      "channel": 2,
      "note": 98,
      "start": 27.741,
      "duration": 0.1,
      "velocity": 127,
      "chip": "ym2612"
    },
    {
      "channel": 1,
      "note": 50,
      "start": 27.8409,
      "duration": 0.0997,
      "velocity": 111,
      "chip": "ym2612"
    },
    {
      "channel": 2,
      "note": 98,
      "start": 27.8577,
      "duration": 0.1,
      "velocity": 127,
      "chip": "ym2612"
    },
    {
      "channel": 1,
      "note": 50,
      "start": 27.9576,
      "duration": 0.0997,
      "velocity": 111,
      "chip": "ym2612"
    },
    {
      "channel": 2,
      "note": 59,
      "start": 27.9744,
      "duration": 0.1,
      "velocity": 116,
      "chip": "ym2612"
    },
    {
      "channel": 1,
      "note": 62,
      "start": 28.0743,
      "duration": 0.0997,
      "velocity": 111,
      "chip": "ym2612"
    },
    {
      "channel": 2,
      "note": 98,
      "start": 28.091,
      "duration": 0.1,
      "velocity": 127,
      "chip": "ym2612"
    },
    {
      "channel": 1,
      "note": 50,
      "start": 28.1909,
      "duration": 0.0997,
      "velocity": 111,
      "chip": "ym2612"
    },
    {
      "channel": 2,
      "note": 59,
      "start": 28.2078,
      "duration": 0.0997,
      "velocity": 116,
      "chip": "ym2612"
    },
    {
      "channel": 0,
      "note": 82,
      "start": 28.3241,
      "duration": 0.333,
      "velocity": 111,
      "chip": "ym2612"
    },
    {
      "channel": 0,
      "note": 86,
      "start": 28.6741,
      "duration": 2.0163,
      "velocity": 111,
      "chip": "ym2612"
    },
    {
      "channel": 1,
      "note": 50,
      "start": 28.7909,
      "duration": 0.0997,
      "velocity": 111,
      "chip": "ym2612"
    },
    {
      "channel": 3,
      "note": 76,
      "start": 28.7928,
      "duration": 1.8983,
      "velocity": 105,
      "chip": "ym2612"
    },
    {
      "channel": 4,
      "note": 81,
      "start": 28.7933,
      "duration": 1.898,
      "velocity": 106,
      "chip": "ym2612"
    },
    {
      "channel": 5,
      "note": 86,
      "start": 28.7939,
      "duration": 1.8976,
      "velocity": 101,
      "chip": "ym2612"
    },
    {
      "channel": 2,
      "note": 47,
      "start": 28.8078,
      "duration": 0.0829,
      "velocity": 117,
      "chip": "ym2612"
    },
    {
      "channel": 1,
      "note": 50,
      "start": 28.9242,
      "duration": 0.0998,
      "velocity": 111,
      "chip": "ym2612"
    },
    {
      "channel": 2,
      "note": 47,
      "start": 28.941,
      "duration": 0.083,
      "velocity": 117,
      "chip": "ym2612"
    },
    {
      "channel": 1,
      "note": 62,
      "start": 29.0409,
      "duration": 0.0997,
      "velocity": 111,
      "chip": "ym2612"
    },
    {
      "channel": 2,
      "note": 98,
      "start": 29.0577,
      "duration": 0.1,
      "velocity": 127,
      "chip": "ym2612"
    },
    {
      "channel": 1,
      "note": 50,
      "start": 29.1576,
      "duration": 0.2163,
      "velocity": 111,
      "chip": "ym2612"
    },
    {
      "channel": 2,
      "note": 59,
      "start": 29.1744,
      "duration": 0.0997,
      "velocity": 116,
      "chip": "ym2612"
    },
    {
      "channel": 1,
      "note": 57,
      "start": 29.3909,
      "duration": 0.0997,
      "velocity": 111,
      "chip": "ym2612"
    },
    {
      "channel": 2,
      "note": 98,
      "start": 29.4078,
      "duration": 0.0997,
      "velocity": 127,
      "chip": "ym2612"
    },
    {
      "channel": 1,
      "note": 55,
      "start": 29.5243,
      "duration": 0.0997,
      "velocity": 111,
      "chip": "ym2612"
    },
    {
      "channel": 2,
      "note": 47,
      "start": 29.541,
      "duration": 0.083,
      "velocity": 117,
      "chip": "ym2612"
    },
    {
      "channel": 1,
      "note": 53,
      "start": 29.6409,
      "duration": 0.0997,
      "velocity": 111,
      "chip": "ym2612"
    },
    {
      "channel": 2,
      "note": 47,
      "start": 29.6577,
      "duration": 0.083,
      "velocity": 117,
      "chip": "ym2612"
    },
    {
      "channel": 1,
      "note": 50,
      "start": 29.7576,
      "duration": 0.0997,
      "velocity": 111,
      "chip": "ym2612"
    },
    {
      "channel": 2,
      "note": 59,
      "start": 29.7744,
      "duration": 0.1,
      "velocity": 116,
      "chip": "ym2612"
    },
    {
      "channel": 1,
      "note": 50,
      "start": 29.8743,
      "duration": 0.0997,
      "velocity": 111,
      "chip": "ym2612"
    },
    {
      "channel": 2,
      "note": 98,
      "start": 29.891,
      "duration": 0.1,
      "velocity": 127,
      "chip": "ym2612"
    },
    {
      "channel": 1,
      "note": 62,
      "start": 29.9909,
      "duration": 0.0997,
      "velocity": 111,
      "chip": "ym2612"
    },
    {
      "channel": 2,
      "note": 98,
      "start": 30.0078,
      "duration": 0.0997,
      "velocity": 127,
      "chip": "ym2612"
    },
    {
      "channel": 1,
      "note": 50,
      "start": 30.1243,
      "duration": 0.0997,
      "velocity": 111,
      "chip": "ym2612"
    },
    {
      "channel": 2,
      "note": 98,
      "start": 30.141,
      "duration": 0.0999,
      "velocity": 127,
      "chip": "ym2612"
    },
    {
      "channel": 2,
      "note": 59,
      "start": 30.2577,
      "duration": 0.0997,
      "velocity": 116,
      "chip": "ym2612"
    },
    {
      "channel": 2,
      "note": 59,
      "start": 30.3743,
      "duration": 0.0997,
      "velocity": 116,
      "chip": "ym2612"
    },
    {
      "channel": 2,
      "note": 59,
      "start": 30.491,
      "duration": 0.0997,
      "velocity": 116,
      "chip": "ym2612"
    },
    {
      "channel": 2,
      "note": 59,
      "start": 30.6078,
      "duration": 0.0997,
      "velocity": 116,
      "chip": "ym2612"
    },
    {
      "channel": 0,
      "note": 72,
      "start": 30.727,
      "duration": 0.0001,
      "velocity": 111,
      "chip": "ym2612"
    }
  ]
}