{
  "track_name": "05 - Evening ~ Night",
  "duration_sec": 63.987,
  "sample_rate": 44100,
  "note_count": 501,
  "unique_pitches": 36,
  "pitch_range": 53,
  "avg_note_duration": 0.4963,
  "reconstruction_stats": {
    "notes_reconstructed": 501,
    "keyon_events": 501,
    "keyoff_events": 501,
    "orphan_keyons": 0,
    "unique_pitches": 36,
    "pitch_range": 53,
    "avg_duration_sec": 0.4963
  },
  "metadata": {
    "source": "T\\The Faery Tale Adventure\\05 - Evening ~ Night.vgz"
  },
  "notes": [
    {
      "channel": 0,
      "note": 111,
      "start": 0.0004,
      "duration": 0.2297,
      "velocity": 110,
      "chip": "ym2612"
    },
    {
      "channel": 1,
      "note": 83,
      "start": 0.0034,
      "duration": 0.9788,
      "velocity": 110,
      "chip": "ym2612"
    },
    {
      "channel": 2,
      "note": 68,
      "start": 0.0064,
      "duration": 0.9751,
      "velocity": 101,
      "chip": "ym2612"
    },
    {
      "channel": 3,
      "note": 107,
      "start": 0.2335,
      "duration": 0.2467,
      "velocity": 110,
      "chip": "ym2612"
    },
    {
      "channel": 4,
      "note": 92,
      "start": 0.4836,
      "duration": 0.2466,
      "velocity": 110,
      "chip": "ym2612"
    },
    {
      "channel": 0,
      "note": 111,
      "start": 0.4866,
      "duration": 0.4944,
      "velocity": 110,
      "chip": "ym2612"
    },
    {
      "channel": 3,
      "note": 92,
      "start": 0.7335,
      "duration": 0.13,
      "velocity": 110,
      "chip": "ym2612"
    },
    {
      "channel": 4,
      "note": 94,
      "start": 0.8669,
      "duration": 0.1133,
      "velocity": 110,
      "chip": "ym2612"
    },
    {
      "channel": 3,
      "note": 95,
      "start": 0.9856,
      "duration": 0.2454,
      "velocity": 110,
      "chip": "ym2612"
    },
    {
      "channel": 4,
      "note": 109,
      "start": 0.9887,
      "duration": 0.2415,
      "velocity": 110,
      "chip": "ym2612"
    },
    {
      "channel": 0,
      "note": 82,
      "start": 0.9917,
      "duration": 0.9905,
      "velocity": 110,
      "chip": "ym2612"
    },
    {
      "channel": 2,
      "note": 66,
      "start": 0.9946,
      "duration": 0.987,
      "velocity": 101,
      "chip": "ym2612"
    },
    {
      "channel": 1,
      "note": 97,
      "start": 1.2342,
      "duration": 0.2467,
      "velocity": 110,
      "chip": "ym2612"
    },
    {
      "channel": 4,
      "note": 111,
      "start": 1.2373,
      "duration": 0.243,
      "velocity": 110,
      "chip": "ym2612"
    },
    {
      "channel": 3,
      "note": 99,
      "start": 1.4842,
      "duration": 0.2459,
      "velocity": 110,
      "chip": "ym2612"
    },
    {
      "channel": 4,
      "note": 109,
      "start": 1.4873,
      "duration": 0.4936,
      "velocity": 110,
      "chip": "ym2612"
    },
    {
      "channel": 1,
      "note": 100,
      "start": 1.7334,
      "duration": 0.2468,
      "velocity": 110,
      "chip": "ym2612"
    },
    {
      "channel": 3,
      "note": 99,
      "start": 1.9856,
      "duration": 0.3779,
      "velocity": 110,
      "chip": "ym2612"
    },
    {
      "channel": 1,
      "note": 107,
      "start": 1.9886,
      "duration": 0.2416,
      "velocity": 110,
      "chip": "ym2612"
    },
    {
      "channel": 4,
      "note": 80,
      "start": 1.9917,
      "duration": 0.9899,
      "velocity": 110,
      "chip": "ym2612"
    },
    {
      "channel": 2,
      "note": 64,
      "start": 1.9946,
      "duration": 0.9863,
      "velocity": 101,
      "chip": "ym2612"
    },
    {
      "channel": 0,
      "note": 106,
      "start": 2.2334,
      "duration": 0.2473,
      "velocity": 110,
      "chip": "ym2612"
    },
    {
      "channel": 1,
      "note": 92,
      "start": 2.3668,
      "duration": 0.1134,
      "velocity": 110,
      "chip": "ym2612"
    },
    {
      "channel": 3,
      "note": 92,
      "start": 2.4841,
      "duration": 0.9968,
      "velocity": 110,
      "chip": "ym2612"
    },
    {
      "channel": 1,
      "note": 104,
      "start": 2.4871,
      "duration": 0.4931,
      "velocity": 110,
      "chip": "ym2612"
    },
    {
      "channel": 0,
      "note": 107,
      "start": 2.9849,
      "duration": 0.2454,
      "velocity": 110,
      "chip": "ym2612"
    },
    {
      "channel": 1,
      "note": 80,
      "start": 2.9879,
      "duration": 0.9937,
      "velocity": 110,
      "chip": "ym2612"
    },
    {
      "channel": 2,
      "note": 64,
      "start": 2.9908,
      "duration": 0.99,
      "velocity": 101,
      "chip": "ym2612"
    },
    {
      "channel": 4,
      "note": 106,
      "start": 3.2336,
      "duration": 0.2467,
      "velocity": 110,
      "chip": "ym2612"
    },
    {
      "channel": 0,
      "note": 104,
      "start": 3.4842,
      "duration": 0.496,
      "velocity": 110,
      "chip": "ym2612"
    },
    {
      "channel": 4,
      "note": 92,
      "start": 3.9849,
      "duration": 0.496,
      "velocity": 110,
      "chip": "ym2612"
    },
    {
      "channel": 3,
      "note": 107,
      "start": 3.988,
      "duration": 0.2422,
      "velocity": 110,
      "chip": "ym2612"
    },
    {
      "channel": 0,
      "note": 83,
      "start": 3.991,
      "duration": 0.9912,
      "velocity": 110,
      "chip": "ym2612"
    },
    {
      "channel": 2,
      "note": 64,
      "start": 3.9939,
      "duration": 0.9876,
      "velocity": 101,
      "chip": "ym2612"
    },
    {
      "channel": 1,
      "note": 104,
      "start": 4.2335,
      "duration": 0.2467,
      "velocity": 110,
      "chip": "ym2612"
    },
    {
      "channel": 3,
      "note": 94,
      "start": 4.4843,
      "duration": 0.2459,
      "velocity": 110,
      "chip": "ym2612"
    },
    {
      "channel": 1,
      "note": 107,
      "start": 4.4873,
      "duration": 0.4936,
      "velocity": 110,
      "chip": "ym2612"
    },
    {
      "channel": 4,
      "note": 95,
      "start": 4.7335,
      "duration": 0.2467,
      "velocity": 110,
      "chip": "ym2612"
    },
    {
      "channel": 3,
      "note": 97,
      "start": 4.9856,
      "duration": 0.4953,
      "velocity": 110,
      "chip": "ym2612"
    },
    {
      "channel": 4,
      "note": 109,
      "start": 4.9887,
      "duration": 0.2415,
      "velocity": 110,
      "chip": "ym2612"
    },
    {
      "channel": 1,
      "note": 85,
      "start": 4.9917,
      "duration": 0.9906,
      "velocity": 110,
      "chip": "ym2612"
    },
    {
      "channel": 2,
      "note": 66,
      "start": 4.9946,
      "duration": 0.9869,
      "velocity": 101,
      "chip": "ym2612"
    },
    {
      "channel": 0,
      "note": 112,
      "start": 5.2334,
      "duration": 0.2467,
      "velocity": 110,
      "chip": "ym2612"
    },
    {
      "channel": 4,
      "note": 99,
      "start": 5.4842,
      "duration": 0.246,
      "velocity": 110,
      "chip": "ym2612"
    },
    {
      "channel": 0,
      "note": 109,
      "start": 5.4872,
      "duration": 0.4936,
      "velocity": 110,
      "chip": "ym2612"
    },
    {
      "channel": 3,
      "note": 100,
      "start": 5.7335,
      "duration": 0.2467,
      "velocity": 110,
      "chip": "ym2612"
    },
    {
      "channel": 4,
      "note": 104,
      "start": 5.9856,
      "duration": 0.9966,
      "velocity": 110,
      "chip": "ym2612"
    },
    {
      "channel": 3,
      "note": 111,
      "start": 5.9887,
      "duration": 0.9929,
      "velocity": 110,
      "chip": "ym2612"
    },
    {
      "channel": 0,
      "note": 87,
      "start": 5.9917,
      "duration": 0.9891,
      "velocity": 110,
      "chip": "ym2612"
    },
    {
      "channel": 2,
      "note": 68,
      "start": 5.9946,
      "duration": 0.9856,
      "velocity": 101,
      "chip": "ym2612"
    },
    {
      "channel": 1,
      "note": 87,
      "start": 6.9855,
      "duration": 0.9954,
      "velocity": 110,
      "chip": "ym2612"
    },
    {
      "channel": 2,
      "note": 68,
      "start": 6.9885,
      "duration": 0.9917,
      "velocity": 101,
      "chip": "ym2612"
    },
    {
      "channel": 0,
      "note": 111,
      "start": 7.9841,
      "duration": 0.246,
      "velocity": 110,
      "chip": "ym2612"
    },
    {
      "channel": 3,
      "note": 83,
      "start": 7.9873,
      "duration": 0.995,
      "velocity": 110,
      "chip": "ym2612"
    },
    {
      "channel": 4,
      "note": 68,
      "start": 7.9903,
      "duration": 0.9912,
      "velocity": 101,
      "chip": "ym2612"
    },
    {
      "channel": 2,
      "note": 112,
      "start": 8.2334,
      "duration": 0.2468,
      "velocity": 110,
      "chip": "ym2612"
    },
    {
      "channel": 1,
      "note": 99,
      "start": 8.4834,
      "duration": 0.2475,
      "velocity": 110,
      "chip": "ym2612"
    },
    {
      "channel": 0,
      "note": 111,
      "start": 8.4864,
      "duration": 0.2438,
      "velocity": 110,
      "chip": "ym2612"
    },
    {
      "channel": 2,
      "note": 99,
      "start": 8.7341,
      "duration": 0.1295,
      "velocity": 110,
      "chip": "ym2612"
    },
    {
      "channel": 0,
      "note": 107,
      "start": 8.7371,
      "duration": 0.2438,
      "velocity": 110,
      "chip": "ym2612"
    },
    {
      "channel": 1,
      "note": 95,
      "start": 8.8668,
      "duration": 0.1134,
      "velocity": 110,
      "chip": "ym2612"
    },
    {
      "channel": 2,
      "note": 97,
      "start": 8.9855,
      "duration": 0.2454,
      "velocity": 110,
      "chip": "ym2612"
    },
    {
      "channel": 1,
      "note": 109,
      "start": 8.9885,
      "duration": 0.2417,
      "velocity": 110,
      "chip": "ym2612"
    },
    {
      "channel": 0,
      "note": 82,
      "start": 8.9915,
      "duration": 0.9907,
      "velocity": 110,
      "chip": "ym2612"
    },
    {
      "channel": 4,
      "note": 66,
      "start": 8.9945,
      "duration": 0.987,
      "velocity": 101,
      "chip": "ym2612"
    },
    {
      "channel": 3,
      "note": 99,
      "start": 9.2342,
      "duration": 0.2466,
      "velocity": 110,
      "chip": "ym2612"
    },
    {
      "channel": 1,
      "note": 111,
      "start": 9.2372,
      "duration": 0.243,
      "velocity": 110,
      "chip": "ym2612"
    },
    {
      "channel": 2,
      "note": 100,
      "start": 9.4841,
      "duration": 0.2468,
      "velocity": 110,
      "chip": "ym2612"
    },
    {
      "channel": 1,
      "note": 109,
      "start": 9.4871,
      "duration": 0.2431,
      "velocity": 110,
      "chip": "ym2612"
    },
    {
      "channel": 3,
      "note": 102,
      "start": 9.7341,
      "duration": 0.2467,
      "velocity": 110,
      "chip": "ym2612"
    },
    {
      "channel": 1,
      "note": 106,
      "start": 9.7371,
      "duration": 0.243,
      "velocity": 110,
      "chip": "ym2612"
    },
    {
      "channel": 2,
      "note": 99,
      "start": 9.9855,
      "duration": 0.2454,
      "velocity": 110,
      "chip": "ym2612"
    },
    {
      "channel": 1,
      "note": 107,
      "start": 9.9885,
      "duration": 0.2417,
      "velocity": 110,
      "chip": "ym2612"
    },
    {
      "channel": 3,
      "note": 80,
      "start": 9.9916,
      "duration": 0.9907,
      "velocity": 110,
      "chip": "ym2612"
    },
    {
      "channel": 4,
      "note": 64,
      "start": 9.9946,
      "duration": 0.9869,
      "velocity": 101,
      "chip": "ym2612"
    },
    {
      "channel": 0,
      "note": 100,
      "start": 10.2341,
      "duration": 0.2468,
      "velocity": 110,
      "chip": "ym2612"
    },
    {
      "channel": 1,
      "note": 109,
      "start": 10.2371,
      "duration": 0.2431,
      "velocity": 110,
      "chip": "ym2612"
    },
    {
      "channel": 2,
      "note": 99,
      "start": 10.484,
      "duration": 0.2468,
      "velocity": 110,
      "chip": "ym2612"
    },
    {
      "channel": 1,
      "note": 107,
      "start": 10.487,
      "duration": 0.2432,
      "velocity": 110,
      "chip": "ym2612"
    },
    {
      "channel": 0,
      "note": 97,
      "start": 10.7341,
      "duration": 0.2468,
      "velocity": 110,
      "chip": "ym2612"
    },
    {
      "channel": 1,
      "note": 106,
      "start": 10.7371,
      "duration": 0.2431,
      "velocity": 110,
      "chip": "ym2612"
    },
    {
      "channel": 2,
      "note": 99,
      "start": 10.9855,
      "duration": 0.2454,
      "velocity": 110,
      "chip": "ym2612"
    },
    {
      "channel": 1,
      "note": 104,
      "start": 10.9885,
      "duration": 0.2417,
      "velocity": 110,
      "chip": "ym2612"
    },
    {
      "channel": 0,
      "note": 80,
      "start": 10.9915,
      "duration": 0.9908,
      "velocity": 110,
      "chip": "ym2612"
    },
    {
      "channel": 4,
      "note": 64,
      "start": 10.9945,
      "duration": 0.987,
      "velocity": 101,
      "chip": "ym2612"
    },
    {
      "channel": 3,
      "note": 95,
      "start": 11.2342,
      "duration": 0.2474,
      "velocity": 110,
      "chip": "ym2612"
    },
    {
      "channel": 1,
      "note": 102,
      "start": 11.2372,
      "duration": 0.2438,
      "velocity": 110,
      "chip": "ym2612"
    },
    {
      "channel": 2,
      "note": 92,
      "start": 11.4849,
      "duration": 0.246,
      "velocity": 110,
      "chip": "ym2612"
    },
    {
      "channel": 1,
      "note": 104,
      "start": 11.4878,
      "duration": 0.2424,
      "velocity": 110,
      "chip": "ym2612"
    },
    {
      "channel": 3,
      "note": 95,
      "start": 11.7342,
      "duration": 0.2466,
      "velocity": 110,
      "chip": "ym2612"
    },
    {
      "channel": 1,
      "note": 106,
      "start": 11.7372,
      "duration": 0.243,
      "velocity": 110,
      "chip": "ym2612"
    },
    {
      "channel": 2,
      "note": 99,
      "start": 11.9855,
      "duration": 0.2454,
      "velocity": 110,
      "chip": "ym2612"
    },
    {
      "channel": 1,
      "note": 107,
      "start": 11.9885,
      "duration": 0.2417,
      "velocity": 110,
      "chip": "ym2612"
    },
    {
      "channel": 3,
      "note": 87,
      "start": 11.9916,
      "duration": 0.9907,
      "velocity": 110,
      "chip": "ym2612"
    },
    {
      "channel": 4,
      "note": 71,
      "start": 11.9946,
      "duration": 0.9869,
      "velocity": 101,
      "chip": "ym2612"
    },
    {
      "channel": 0,
      "note": 97,
      "start": 12.2341,
      "duration": 0.2468,
      "velocity": 110,
      "chip": "ym2612"
    },
    {
      "channel": 1,
      "note": 106,
      "start": 12.2371,
      "duration": 0.2431,
      "velocity": 110,
      "chip": "ym2612"
    },
    {
      "channel": 2,
      "note": 95,
      "start": 12.4841,
      "duration": 0.2467,
      "velocity": 110,
      "chip": "ym2612"
    },
    {
      "channel": 1,
      "note": 104,
      "start": 12.4871,
      "duration": 0.2431,
      "velocity": 110,
      "chip": "ym2612"
    },
    {
      "channel": 0,
      "note": 97,
      "start": 12.734,
      "duration": 0.2468,
      "velocity": 110,
      "chip": "ym2612"
    },
    {
      "channel": 1,
      "note": 107,
      "start": 12.737,
      "duration": 0.2432,
      "velocity": 110,
      "chip": "ym2612"
    },
    {
      "channel": 2,
      "note": 100,
      "start": 12.9855,
      "duration": 0.2454,
      "velocity": 110,
      "chip": "ym2612"
    },
    {
      "channel": 1,
      "note": 109,
      "start": 12.9885,
      "duration": 0.2417,
      "velocity": 110,
      "chip": "ym2612"
    },
    {
      "channel": 0,
      "note": 85,
      "start": 12.9915,
      "duration": 0.9907,
      "velocity": 110,
      "chip": "ym2612"
    },
    {
      "channel": 4,
      "note": 70,
      "start": 12.9946,
      "duration": 0.987,
      "velocity": 101,
      "chip": "ym2612"
    },
    {
      "channel": 3,
      "note": 97,
      "start": 13.2343,
      "duration": 0.2466,
      "velocity": 110,
      "chip": "ym2612"
    },
    {
      "channel": 1,
      "note": 107,
      "start": 13.2373,
      "duration": 0.2429,
      "velocity": 110,
      "chip": "ym2612"
    },
    {
      "channel": 2,
      "note": 100,
      "start": 13.4841,
      "duration": 0.2468,
      "velocity": 110,
      "chip": "ym2612"
    },
    {
      "channel": 1,
      "note": 106,
      "start": 13.4871,
      "duration": 0.2431,
      "velocity": 110,
      "chip": "ym2612"
    },
    {
      "channel": 3,
      "note": 94,
      "start": 13.7341,
      "duration": 0.2467,
      "velocity": 110,
      "chip": "ym2612"
    },
    {
      "channel": 1,
      "note": 102,
      "start": 13.7371,
      "duration": 0.243,
      "velocity": 110,
      "chip": "ym2612"
    },
    {
      "channel": 2,
      "note": 95,
      "start": 13.9855,
      "duration": 1.9968,
      "velocity": 110,
      "chip": "ym2612"
    },
    {
      "channel": 1,
      "note": 104,
      "start": 13.9885,
      "duration": 1.9931,
      "velocity": 110,
      "chip": "ym2612"
    },
    {
      "channel": 3,
      "note": 87,
      "start": 13.9916,
      "duration": 0.9894,
      "velocity": 110,
      "chip": "ym2612"
    },
    {
      "channel": 4,
      "note": 68,
      "start": 13.9946,
      "duration": 0.9856,
      "velocity": 101,
      "chip": "ym2612"
    },
    {
      "channel": 0,
      "note": 87,
      "start": 14.9842,
      "duration": 0.9967,
      "velocity": 110,
      "chip": "ym2612"
    },
    {
      "channel": 4,
      "note": 68,
      "start": 14.9873,
      "duration": 0.993,
      "velocity": 101,
      "chip": "ym2612"
    },
    {
      "channel": 3,
      "note": 95,
      "start": 15.9856,
      "duration": 0.2446,
      "velocity": 110,
      "chip": "ym2612"
    },
    {
      "channel": 4,
      "note": 111,
      "start": 15.9887,
      "duration": 0.4922,
      "velocity": 110,
      "chip": "ym2612"
    },
    {
      "channel": 0,
      "note": 87,
      "start": 15.9917,
      "duration": 0.9905,
      "velocity": 110,
      "chip": "ym2612"
    },
    {
      "channel": 1,
      "note": 71,
      "start": 15.9946,
      "duration": 0.9869,
      "velocity": 101,
      "chip": "ym2612"
    },
    {
      "channel": 2,
      "note": 97,
      "start": 16.2334,
      "duration": 0.2468,
      "velocity": 110,
      "chip": "ym2612"
    },
    {
      "channel": 3,
      "note": 95,
      "start": 16.4843,
      "duration": 0.2459,
      "velocity": 110,
      "chip": "ym2612"
    },
    {
      "channel": 2,
      "note": 107,
      "start": 16.4873,
      "duration": 0.4936,
      "velocity": 110,
      "chip": "ym2612"
    },
    {
      "channel": 4,
      "note": 97,
      "start": 16.7335,
      "duration": 0.2467,
      "velocity": 110,
      "chip": "ym2612"
    },
    {
      "channel": 3,
      "note": 95,
      "start": 16.9856,
      "duration": 0.2446,
      "velocity": 110,
      "chip": "ym2612"
    },
    {
      "channel": 4,
      "note": 114,
      "start": 16.9887,
      "duration": 0.4922,
      "velocity": 110,
      "chip": "ym2612"
    },
    {
      "channel": 2,
      "note": 83,
      "start": 16.9917,
      "duration": 0.9906,
      "velocity": 110,
      "chip": "ym2612"
    },
    {
      "channel": 1,
      "note": 71,
      "start": 16.9946,
      "duration": 0.9869,
      "velocity": 101,
      "chip": "ym2612"
    },
    {
      "channel": 0,
      "note": 97,
      "start": 17.2334,
      "duration": 0.2468,
      "velocity": 110,
      "chip": "ym2612"
    },
    {
      "channel": 3,
      "note": 95,
      "start": 17.4842,
      "duration": 0.2466,
      "velocity": 110,
      "chip": "ym2612"
    },
    {
      "channel": 0,
      "note": 112,
      "start": 17.4872,
      "duration": 0.2429,
      "velocity": 110,
      "chip": "ym2612"
    },
    {
      "channel": 4,
      "note": 94,
      "start": 17.7341,
      "duration": 0.2468,
      "velocity": 110,
      "chip": "ym2612"
    },
    {
      "channel": 0,
      "note": 111,
      "start": 17.7371,
      "duration": 0.2431,
      "velocity": 110,
      "chip": "ym2612"
    },
    {
      "channel": 3,
      "note": 90,
      "start": 17.9856,
      "duration": 0.2446,
      "velocity": 110,
      "chip": "ym2612"
    },
    {
      "channel": 0,
      "note": 109,
      "start": 17.9886,
      "duration": 0.4922,
      "velocity": 110,
      "chip": "ym2612"
    },
    {
      "channel": 4,
      "note": 85,
      "start": 17.9917,
      "duration": 0.9898,
      "velocity": 110,
      "chip": "ym2612"
    },
    {
      "channel": 1,
      "note": 66,
      "start": 17.9946,
      "duration": 0.9862,
      "velocity": 101,
      "chip": "ym2612"
    },
    {
      "channel": 2,
      "note": 92,
      "start": 18.2334,
      "duration": 0.2468,
      "velocity": 110,
      "chip": "ym2612"
    },
    {
      "channel": 3,
      "note": 90,
      "start": 18.4842,
      "duration": 0.246,
      "velocity": 110,
      "chip": "ym2612"
    },
    {
      "channel": 2,
      "note": 109,
      "start": 18.4872,
      "duration": 1.495,
      "velocity": 110,
      "chip": "ym2612"
    },
    {
      "channel": 0,
      "note": 92,
      "start": 18.7334,
      "duration": 0.2467,
      "velocity": 110,
      "chip": "ym2612"
    },
    {
      "channel": 3,
      "note": 90,
      "start": 18.9849,
      "duration": 0.2452,
      "velocity": 110,
      "chip": "ym2612"
    },
    {
      "channel": 0,
      "note": 82,
      "start": 18.9879,
      "duration": 0.9937,
      "velocity": 110,
      "chip": "ym2612"
    },
    {
      "channel": 1,
      "note": 66,
      "start": 18.9909,
      "duration": 0.99,
      "velocity": 101,
      "chip": "ym2612"
    },
    {
      "channel": 4,
      "note": 92,
      "start": 19.2335,
      "duration": 0.2468,
      "velocity": 110,
      "chip": "ym2612"
    },
    {
      "channel": 3,
      "note": 94,
      "start": 19.4836,
      "duration": 0.2466,
      "velocity": 110,
      "chip": "ym2612"
    },
    {
      "channel": 4,
      "note": 90,
      "start": 19.7336,
      "duration": 0.2467,
      "velocity": 110,
      "chip": "ym2612"
    },
    {
      "channel": 3,
      "note": 92,
      "start": 19.9856,
      "duration": 0.2446,
      "velocity": 110,
      "chip": "ym2612"
    },
    {
      "channel": 4,
      "note": 107,
      "start": 19.9887,
      "duration": 0.4922,
      "velocity": 110,
      "chip": "ym2612"
    },
    {
      "channel": 1,
      "note": 83,
      "start": 19.9917,
      "duration": 0.9905,
      "velocity": 110,
      "chip": "ym2612"
    },
    {
      "channel": 0,
      "note": 68,
      "start": 19.9946,
      "duration": 0.9869,
      "velocity": 101,
      "chip": "ym2612"
    },
    {
      "channel": 2,
      "note": 94,
      "start": 20.2334,
      "duration": 0.2468,
      "velocity": 110,
      "chip": "ym2612"
    },
    {
      "channel": 3,
      "note": 92,
      "start": 20.4843,
      "duration": 0.2459,
      "velocity": 110,
      "chip": "ym2612"
    },
    {
      "channel": 2,
      "note": 104,
      "start": 20.4873,
      "duration": 0.4936,
      "velocity": 110,
      "chip": "ym2612"
    },
    {
      "channel": 4,
      "note": 94,
      "start": 20.7335,
      "duration": 0.2467,
      "velocity": 110,
      "chip": "ym2612"
    },
    {
      "channel": 3,
      "note": 92,
      "start": 20.9856,
      "duration": 0.2446,
      "velocity": 110,
      "chip": "ym2612"
    },
    {
      "channel": 4,
      "note": 111,
      "start": 20.9887,
      "duration": 0.4922,
      "velocity": 110,
      "chip": "ym2612"
    },
    {
      "channel": 2,
      "note": 87,
      "start": 20.9917,
      "duration": 0.9906,
      "velocity": 110,
      "chip": "ym2612"
    },
    {
      "channel": 0,
      "note": 68,
      "start": 20.9946,
      "duration": 0.9869,
      "velocity": 101,
      "chip": "ym2612"
    },
    {
      "channel": 1,
      "note": 94,
      "start": 21.2334,
      "duration": 0.2468,
      "velocity": 110,
      "chip": "ym2612"
    },
    {
      "channel": 3,
      "note": 95,
      "start": 21.4842,
      "duration": 0.2466,
      "velocity": 110,
      "chip": "ym2612"
    },
    {
      "channel": 1,
      "note": 111,
      "start": 21.4872,
      "duration": 0.243,
      "velocity": 110,
      "chip": "ym2612"
    },
    {
      "channel": 4,
      "note": 92,
      "start": 21.7342,
      "duration": 0.2466,
      "velocity": 110,
      "chip": "ym2612"
    },
    {
      "channel": 1,
      "note": 112,
      "start": 21.7372,
      "duration": 0.243,
      "velocity": 110,
      "chip": "ym2612"
    },
    {
      "channel": 3,
      "note": 99,
      "start": 21.9856,
      "duration": 0.2446,
      "velocity": 110,
      "chip": "ym2612"
    },
    {
      "channel": 1,
      "note": 111,
      "start": 21.9886,
      "duration": 1.9937,
      "velocity": 110,
      "chip": "ym2612"
    },
    {
      "channel": 4,
      "note": 82,
      "start": 21.9917,
      "duration": 0.9898,
      "velocity": 110,
      "chip": "ym2612"
    },
    {
      "channel": 0,
      "note": 63,
      "start": 21.9946,
      "duration": 0.9862,
      "velocity": 101,
      "chip": "ym2612"
    },
    {
      "channel": 2,
      "note": 100,
      "start": 22.2334,
      "duration": 0.2468,
      "velocity": 110,
      "chip": "ym2612"
    },
    {
      "channel": 3,
      "note": 99,
      "start": 22.4835,
      "duration": 0.2467,
      "velocity": 110,
      "chip": "ym2612"
    },
    {
      "channel": 2,
      "note": 97,
      "start": 22.7334,
      "duration": 0.2468,
      "velocity": 110,
      "chip": "ym2612"
    },
    {
      "channel": 3,
      "note": 99,
      "start": 22.9849,
      "duration": 0.2454,
      "velocity": 110,
      "chip": "ym2612"
    },
    {
      "channel": 2,
      "note": 82,
      "start": 22.9878,
      "duration": 0.9938,
      "velocity": 110,
      "chip": "ym2612"
    },
    {
      "channel": 0,
      "note": 63,
      "start": 22.9908,
      "duration": 0.9901,
      "velocity": 101,
      "chip": "ym2612"
    },
    {
      "channel": 4,
      "note": 101,
      "start": 23.2336,
      "duration": 0.2467,
      "velocity": 110,
      "chip": "ym2612"
    },
    {
      "channel": 3,
      "note": 104,
      "start": 23.4836,
      "duration": 0.2466,
      "velocity": 110,
      "chip": "ym2612"
    },
    {
      "channel": 4,
      "note": 103,
      "start": 23.7336,
      "duration": 0.2466,
      "velocity": 110,
      "chip": "ym2612"
    },
    {
      "channel": 3,
      "note": 104,
      "start": 23.9856,
      "duration": 0.2446,
      "velocity": 110,
      "chip": "ym2612"
    },
    {
      "channel": 4,
      "note": 109,
      "start": 23.9887,
      "duration": 0.4922,
      "velocity": 110,
      "chip": "ym2612"
    },
    {
      "channel": 0,
      "note": 80,
      "start": 23.9917,
      "duration": 0.9905,
      "velocity": 110,
      "chip": "ym2612"
    },
    {
      "channel": 2,
      "note": 61,
      "start": 23.9946,
      "duration": 0.9869,
      "velocity": 101,
      "chip": "ym2612"
    },
    {
      "channel": 1,
      "note": 97,
      "start": 24.2334,
      "duration": 0.2468,
      "velocity": 110,
      "chip": "ym2612"
    },
    {
      "channel": 3,
      "note": 99,
      "start": 24.4842,
      "duration": 0.2459,
      "velocity": 110,
      "chip": "ym2612"
    },
    {
      "channel": 1,
      "note": 104,
      "start": 24.4872,
      "duration": 0.4936,
      "velocity": 110,
      "chip": "ym2612"
    },
    {
      "channel": 4,
      "note": 97,
      "start": 24.7335,
      "duration": 0.2466,
      "velocity": 110,
      "chip": "ym2612"
    },
    {
      "channel": 3,
      "note": 100,
      "start": 24.9856,
      "duration": 0.2446,
      "velocity": 110,
      "chip": "ym2612"
    },
    {
      "channel": 4,
      "note": 112,
      "start": 24.9887,
      "duration": 0.4922,
      "velocity": 110,
      "chip": "ym2612"
    },
    {
      "channel": 1,
      "note": 80,
      "start": 24.9917,
      "duration": 0.9906,
      "velocity": 110,
      "chip": "ym2612"
    },
    {
      "channel": 2,
      "note": 64,
      "start": 24.9946,
      "duration": 0.987,
      "velocity": 101,
      "chip": "ym2612"
    },
    {
      "channel": 0,
      "note": 97,
      "start": 25.2334,
      "duration": 0.2467,
      "velocity": 110,
      "chip": "ym2612"
    },
    {
      "channel": 3,
      "note": 99,
      "start": 25.4841,
      "duration": 0.2467,
      "velocity": 110,
      "chip": "ym2612"
    },
    {
      "channel": 0,
      "note": 111,
      "start": 25.4871,
      "duration": 0.243,
      "velocity": 110,
      "chip": "ym2612"
    },
    {
      "channel": 4,
      "note": 100,
      "start": 25.7341,
      "duration": 0.2468,
      "velocity": 110,
      "chip": "ym2612"
    },
    {
      "channel": 0,
      "note": 109,
      "start": 25.7371,
      "duration": 0.2431,
      "velocity": 110,
      "chip": "ym2612"
    },
    {
      "channel": 3,
      "note": 99,
      "start": 25.9856,
      "duration": 0.2453,
      "velocity": 110,
      "chip": "ym2612"
    },
    {
      "channel": 0,
      "note": 107,
      "start": 25.9886,
      "duration": 0.2416,
      "velocity": 110,
      "chip": "ym2612"
    },
    {
      "channel": 4,
      "note": 83,
      "start": 25.9917,
      "duration": 0.9905,
      "velocity": 110,
      "chip": "ym2612"
    },
    {
      "channel": 2,
      "note": 68,
      "start": 25.9946,
      "duration": 0.9868,
      "velocity": 101,
      "chip": "ym2612"
    },
    {
      "channel": 1,
      "note": 95,
      "start": 26.2341,
      "duration": 0.2467,
      "velocity": 110,
      "chip": "ym2612"
    },
    {
      "channel": 0,
      "note": 106,
      "start": 26.2371,
      "duration": 0.2431,
      "velocity": 110,
      "chip": "ym2612"
    },
    {
      "channel": 3,
      "note": 92,
      "start": 26.4841,
      "duration": 0.2467,
      "velocity": 110,
      "chip": "ym2612"
    },
    {
      "channel": 0,
      "note": 104,
      "start": 26.4871,
      "duration": 0.243,
      "velocity": 110,
      "chip": "ym2612"
    },
    {
      "channel": 1,
      "note": 87,
      "start": 26.7341,
      "duration": 0.2467,
      "velocity": 110,
      "chip": "ym2612"
    },
    {
      "channel": 0,
      "note": 106,
      "start": 26.7371,
      "duration": 0.2431,
      "velocity": 110,
      "chip": "ym2612"
    },
    {
      "channel": 3,
      "note": 92,
      "start": 26.9856,
      "duration": 0.2446,
      "velocity": 110,
      "chip": "ym2612"
    },
    {
      "channel": 0,
      "note": 107,
      "start": 26.9885,
      "duration": 0.9937,
      "velocity": 110,
      "chip": "ym2612"
    },
    {
      "channel": 1,
      "note": 82,
      "start": 26.9915,
      "duration": 0.9901,
      "velocity": 110,
      "chip": "ym2612"
    },
    {
      "channel": 2,
      "note": 63,
      "start": 26.9945,
      "duration": 0.9864,
      "velocity": 101,
      "chip": "ym2612"
    },
    {
      "channel": 4,
      "note": 94,
      "start": 27.2336,
      "duration": 0.2467,
      "velocity": 110,
      "chip": "ym2612"
    },
    {
      "channel": 3,
      "note": 95,
      "start": 27.4836,
      "duration": 0.2466,
      "velocity": 110,
      "chip": "ym2612"
    },
    {
      "channel": 4,
      "note": 92,
      "start": 27.7336,
      "duration": 0.2466,
      "velocity": 110,
      "chip": "ym2612"
    },
    {
      "channel": 3,
      "note": 97,
      "start": 27.9856,
      "duration": 0.2446,
      "velocity": 110,
      "chip": "ym2612"
    },
    {
      "channel": 4,
      "note": 109,
      "start": 27.9887,
      "duration": 0.9935,
      "velocity": 110,
      "chip": "ym2612"
    },
    {
      "channel": 2,
      "note": 80,
      "start": 27.9917,
      "duration": 0.9898,
      "velocity": 110,
      "chip": "ym2612"
    },
    {
      "channel": 1,
      "note": 61,
      "start": 27.9946,
      "duration": 0.9862,
      "velocity": 101,
      "chip": "ym2612"
    },
    {
      "channel": 0,
      "note": 100,
      "start": 28.2334,
      "duration": 0.2467,
      "velocity": 110,
      "chip": "ym2612"
    },
    {
      "channel": 3,
      "note": 97,
      "start": 28.4835,
      "duration": 0.2467,
      "velocity": 110,
      "chip": "ym2612"
    },
    {
      "channel": 0,
      "note": 102,
      "start": 28.7334,
      "duration": 0.2468,
      "velocity": 110,
      "chip": "ym2612"
    },
    {
      "channel": 3,
      "note": 97,
      "start": 28.9856,
      "duration": 0.2446,
      "velocity": 110,
      "chip": "ym2612"
    },
    {
      "channel": 0,
      "note": 114,
      "start": 28.9886,
      "duration": 0.4923,
      "velocity": 110,
      "chip": "ym2612"
    },
    {
      "channel": 1,
      "note": 80,
      "start": 28.9916,
      "duration": 0.9907,
      "velocity": 110,
      "chip": "ym2612"
    },
    {
      "channel": 2,
      "note": 64,
      "start": 28.9946,
      "duration": 0.987,
      "velocity": 101,
      "chip": "ym2612"
    },
    {
      "channel": 4,
      "note": 95,
      "start": 29.2335,
      "duration": 0.2467,
      "velocity": 110,
      "chip": "ym2612"
    },
    {
      "channel": 3,
      "note": 97,
      "start": 29.4842,
      "duration": 0.2459,
      "velocity": 110,
      "chip": "ym2612"
    },
    {
      "channel": 4,
      "note": 112,
      "start": 29.4873,
      "duration": 0.4936,
      "velocity": 110,
      "chip": "ym2612"
    },
    {
      "channel": 0,
      "note": 95,
      "start": 29.7334,
      "duration": 0.2468,
      "velocity": 110,
      "chip": "ym2612"
    },
    {
      "channel": 3,
      "note": 94,
      "start": 29.9856,
      "duration": 0.2446,
      "velocity": 110,
      "chip": "ym2612"
    },
    {
      "channel": 0,
      "note": 111,
      "start": 29.9886,
      "duration": 1.9936,
      "velocity": 110,
      "chip": "ym2612"
    },
    {
      "channel": 4,
      "note": 82,
      "start": 29.9917,
      "duration": 0.9898,
      "velocity": 110,
      "chip": "ym2612"
    },
    {
      "channel": 2,
      "note": 63,
      "start": 29.9946,
      "duration": 0.9862,
      "velocity": 101,
      "chip": "ym2612"
    },
    {
      "channel": 1,
      "note": 95,
      "start": 30.2334,
      "duration": 0.2468,
      "velocity": 110,
      "chip": "ym2612"
    },
    {
      "channel": 3,
      "note": 94,
      "start": 30.4835,
      "duration": 0.2467,
      "velocity": 110,
      "chip": "ym2612"
    },
    {
      "channel": 1,
      "note": 95,
      "start": 30.7334,
      "duration": 0.2468,
      "velocity": 110,
      "chip": "ym2612"
    },
    {
      "channel": 3,
      "note": 94,
      "start": 30.9849,
      "duration": 0.9967,
      "velocity": 110,
      "chip": "ym2612"
    },
    {
      "channel": 1,
      "note": 79,
      "start": 30.9878,
      "duration": 0.993,
      "velocity": 110,
      "chip": "ym2612"
    },
    {
      "channel": 2,
      "note": 63,
      "start": 30.9908,
      "duration": 0.9894,
      "velocity": 101,
      "chip": "ym2612"
    },
    {
      "channel": 4,
      "note": 104,
      "start": 31.9856,
      "duration": 0.2447,
      "velocity": 110,
      "chip": "ym2612"
    },
    {
      "channel": 2,
      "note": 83,
      "start": 31.9885,
      "duration": 0.9937,
      "velocity": 110,
      "chip": "ym2612"
    },
    {
      "channel": 1,
      "note": 68,
      "start": 31.9915,
      "duration": 0.99,
      "velocity": 101,
      "chip": "ym2612"
    },
    {
      "channel": 3,
      "note": 106,
      "start": 32.2336,
      "duration": 0.2466,
      "velocity": 110,
      "chip": "ym2612"
    },
    {
      "channel": 0,
      "note": 92,
      "start": 32.4834,
      "duration": 0.2468,
      "velocity": 110,
      "chip": "ym2612"
    },
    {
      "channel": 4,
      "note": 104,
      "start": 32.4866,
      "duration": 0.4943,
      "velocity": 110,
      "chip": "ym2612"
    },
    {
      "channel": 3,
      "note": 92,
      "start": 32.7335,
      "duration": 0.13,
      "velocity": 110,
      "chip": "ym2612"
    },
    {
      "channel": 0,
      "note": 94,
      "start": 32.8668,
      "duration": 0.1134,
      "velocity": 110,
      "chip": "ym2612"
    },
    {
      "channel": 3,
      "note": 95,
      "start": 32.9855,
      "duration": 0.2454,
      "velocity": 110,
      "chip": "ym2612"
    },
    {
      "channel": 0,
      "note": 109,
      "start": 32.9885,
      "duration": 0.2417,
      "velocity": 110,
      "chip": "ym2612"
    },
    {
      "channel": 4,
      "note": 82,
      "start": 32.9917,
      "duration": 0.9906,
      "velocity": 110,
      "chip": "ym2612"
    },
    {
      "channel": 1,
      "note": 66,
      "start": 32.9946,
      "duration": 0.987,
      "velocity": 101,
      "chip": "ym2612"
    },
    {
      "channel": 2,
      "note": 97,
      "start": 33.2341,
      "duration": 0.2466,
      "velocity": 110,
      "chip": "ym2612"
    },
    {
      "channel": 0,
      "note": 106,
      "start": 33.2371,
      "duration": 0.243,
      "velocity": 110,
      "chip": "ym2612"
    },
    {
      "channel": 3,
      "note": 99,
      "start": 33.4841,
      "duration": 0.2461,
      "velocity": 110,
      "chip": "ym2612"
    },
    {
      "channel": 0,
      "note": 109,
      "start": 33.4871,
      "duration": 0.4937,
      "velocity": 110,
      "chip": "ym2612"
    },
    {
      "channel": 2,
      "note": 100,
      "start": 33.7334,
      "duration": 0.2468,
      "velocity": 110,
      "chip": "ym2612"
    },
    {
      "channel": 3,
      "note": 99,
      "start": 33.9856,
      "duration": 0.7446,
      "velocity": 110,
      "chip": "ym2612"
    },
    {
      "channel": 2,
      "note": 107,
      "start": 33.9886,
      "duration": 0.2415,
      "velocity": 110,
      "chip": "ym2612"
    },
    {
      "channel": 0,
      "note": 80,
      "start": 33.9916,
      "duration": 0.9906,
      "velocity": 110,
      "chip": "ym2612"
    },
    {
      "channel": 1,
      "note": 64,
      "start": 33.9946,
      "duration": 0.987,
      "velocity": 101,
      "chip": "ym2612"
    },
    {
      "channel": 4,
      "note": 109,
      "start": 34.2335,
      "duration": 0.2467,
      "velocity": 110,
      "chip": "ym2612"
    },
    {
      "channel": 2,
      "note": 107,
      "start": 34.4834,
      "duration": 0.4974,
      "velocity": 110,
      "chip": "ym2612"
    },
    {
      "channel": 4,
      "note": 92,
      "start": 34.7336,
      "duration": 0.2466,
      "velocity": 110,
      "chip": "ym2612"
    },
    {
      "channel": 3,
      "note": 92,
      "start": 34.9856,
      "duration": 0.9967,
      "velocity": 110,
      "chip": "ym2612"
    },
    {
      "channel": 4,
      "note": 107,
      "start": 34.9887,
      "duration": 0.4916,
      "velocity": 110,
      "chip": "ym2612"
    },
    {
      "channel": 2,
      "note": 82,
      "start": 34.9917,
      "duration": 0.9899,
      "velocity": 110,
      "chip": "ym2612"
    },
    {
      "channel": 1,
      "note": 63,
      "start": 34.9946,
      "duration": 0.9863,
      "velocity": 101,
      "chip": "ym2612"
    },
    {
      "channel": 0,
      "note": 106,
      "start": 35.4835,
      "duration": 0.4967,
      "velocity": 110,
      "chip": "ym2612"
    },
    {
      "channel": 4,
      "note": 97,
      "start": 35.9856,
      "duration": 0.7446,
      "velocity": 110,
      "chip": "ym2612"
    },
    {
      "channel": 0,
      "note": 104,
      "start": 35.9886,
      "duration": 0.2415,
      "velocity": 110,
      "chip": "ym2612"
    },
    {
      "channel": 1,
      "note": 76,
      "start": 35.9916,
      "duration": 0.9906,
      "velocity": 110,
      "chip": "ym2612"
    },
    {
      "channel": 2,
      "note": 61,
      "start": 35.9946,
      "duration": 0.9869,
      "velocity": 101,
      "chip": "ym2612"
    },
    {
      "channel": 3,
      "note": 106,
      "start": 36.2335,
      "duration": 0.2467,
      "velocity": 110,
      "chip": "ym2612"
    },
    {
      "channel": 0,
      "note": 107,
      "start": 36.4834,
      "duration": 0.4974,
      "velocity": 110,
      "chip": "ym2612"
    },
    {
      "channel": 3,
      "note": 97,
      "start": 36.7336,
      "duration": 0.2466,
      "velocity": 110,
      "chip": "ym2612"
    },
    {
      "channel": 4,
      "note": 95,
      "start": 36.9855,
      "duration": 0.2454,
      "velocity": 110,
      "chip": "ym2612"
    },
    {
      "channel": 3,
      "note": 109,
      "start": 36.9886,
      "duration": 0.2417,
      "velocity": 110,
      "chip": "ym2612"
    },
    {
      "channel": 0,
      "note": 80,
      "start": 36.9917,
      "duration": 0.9905,
      "velocity": 110,
      "chip": "ym2612"
    },
    {
      "channel": 2,
      "note": 61,
      "start": 36.9946,
      "duration": 0.9869,
      "velocity": 101,
      "chip": "ym2612"
    },
    {
      "channel": 1,
      "note": 94,
      "start": 37.2341,
      "duration": 0.2468,
      "velocity": 110,
      "chip": "ym2612"
    },
    {
      "channel": 3,
      "note": 106,
      "start": 37.2373,
      "duration": 0.243,
      "velocity": 110,
      "chip": "ym2612"
    },
    {
      "channel": 4,
      "note": 95,
      "start": 37.4842,
      "duration": 0.2459,
      "velocity": 110,
      "chip": "ym2612"
    },
    {
      "channel": 3,
      "note": 109,
      "start": 37.4873,
      "duration": 0.4935,
      "velocity": 110,
      "chip": "ym2612"
    },
    {
      "channel": 1,
      "note": 92,
      "start": 37.7334,
      "duration": 0.2468,
      "velocity": 110,
      "chip": "ym2612"
    },
    {
      "channel": 4,
      "note": 94,
      "start": 37.9855,
      "duration": 1.9968,
      "velocity": 110,
      "chip": "ym2612"
    },
    {
      "channel": 1,
      "note": 111,
      "start": 37.9885,
      "duration": 0.2417,
      "velocity": 110,
      "chip": "ym2612"
    },
    {
      "channel": 3,
      "note": 82,
      "start": 37.9917,
      "duration": 0.9899,
      "velocity": 110,
      "chip": "ym2612"
    },
    {
      "channel": 2,
      "note": 63,
      "start": 37.9946,
      "duration": 0.9863,
      "velocity": 101,
      "chip": "ym2612"
    },
    {
      "channel": 0,
      "note": 112,
      "start": 38.2334,
      "duration": 0.2468,
      "velocity": 110,
      "chip": "ym2612"
    },
    {
      "channel": 1,
      "note": 111,
      "start": 38.4834,
      "duration": 0.2468,
      "velocity": 110,
      "chip": "ym2612"
    },
    {
      "channel": 0,
      "note": 109,
      "start": 38.7334,
      "duration": 0.2468,
      "velocity": 110,
      "chip": "ym2612"
    },
    {
      "channel": 1,
      "note": 111,
      "start": 38.9848,
      "duration": 0.9968,
      "velocity": 110,
      "chip": "ym2612"
    },
    {
      "channel": 0,
      "note": 79,
      "start": 38.9878,
      "duration": 0.9931,
      "velocity": 110,
      "chip": "ym2612"
    },
    {
      "channel": 2,
      "note": 63,
      "start": 38.9908,
      "duration": 0.9894,
      "velocity": 101,
      "chip": "ym2612"
    },
    {
      "channel": 3,
      "note": 95,
      "start": 39.9856,
      "duration": 0.4954,
      "velocity": 110,
      "chip": "ym2612"
    },
    {
      "channel": 2,
      "note": 111,
      "start": 39.9886,
      "duration": 0.4916,
      "velocity": 110,
      "chip": "ym2612"
    },
    {
      "channel": 0,
      "note": 83,
      "start": 39.9916,
      "duration": 0.9906,
      "velocity": 110,
      "chip": "ym2612"
    },
    {
      "channel": 1,
      "note": 68,
      "start": 39.9946,
      "duration": 0.987,
      "velocity": 101,
      "chip": "ym2612"
    },
    {
      "channel": 4,
      "note": 94,
      "start": 40.4842,
      "duration": 0.2459,
      "velocity": 110,
      "chip": "ym2612"
    },
    {
      "channel": 2,
      "note": 111,
      "start": 40.4872,
      "duration": 0.4937,
      "velocity": 110,
      "chip": "ym2612"
    },
    {
      "channel": 3,
      "note": 92,
      "start": 40.7335,
      "duration": 0.2467,
      "velocity": 110,
      "chip": "ym2612"
    },
    {
      "channel": 4,
      "note": 99,
      "start": 40.9856,
      "duration": 0.4953,
      "velocity": 110,
      "chip": "ym2612"
    },
    {
      "channel": 3,
      "note": 109,
      "start": 40.9887,
      "duration": 0.4915,
      "velocity": 110,
      "chip": "ym2612"
    },
    {
      "channel": 2,
      "note": 82,
      "start": 40.9917,
      "duration": 0.9906,
      "velocity": 110,
      "chip": "ym2612"
    },
    {
      "channel": 1,
      "note": 66,
      "start": 40.9946,
      "duration": 0.987,
      "velocity": 101,
      "chip": "ym2612"
    },
    {
      "channel": 0,
      "note": 102,
      "start": 41.4841,
      "duration": 0.2461,
      "velocity": 110,
      "chip": "ym2612"
    },
    {
      "channel": 3,
      "note": 106,
      "start": 41.4872,
      "duration": 0.4937,
      "velocity": 110,
      "chip": "ym2612"
    },
    {
      "channel": 4,
      "note": 99,
      "start": 41.7335,
      "duration": 0.2467,
      "velocity": 110,
      "chip": "ym2612"
    },
    {
      "channel": 0,
      "note": 100,
      "start": 41.9856,
      "duration": 0.2446,
      "velocity": 110,
      "chip": "ym2612"
    },
    {
      "channel": 4,
      "note": 111,
      "start": 41.9887,
      "duration": 0.4922,
      "velocity": 110,
      "chip": "ym2612"
    },
    {
      "channel": 3,
      "note": 83,
      "start": 41.9918,
      "duration": 0.9898,
      "velocity": 110,
      "chip": "ym2612"
    },
    {
      "channel": 1,
      "note": 64,
      "start": 41.9947,
      "duration": 0.9861,
      "velocity": 101,
      "chip": "ym2612"
    },
    {
      "channel": 2,
      "note": 99,
      "start": 42.2334,
      "duration": 0.2468,
      "velocity": 110,
      "chip": "ym2612"
    },
    {
      "channel": 0,
      "note": 97,
      "start": 42.4841,
      "duration": 0.9968,
      "velocity": 110,
      "chip": "ym2612"
    },
    {
      "channel": 2,
      "note": 107,
      "start": 42.4871,
      "duration": 0.493,
      "velocity": 110,
      "chip": "ym2612"
    },
    {
      "channel": 4,
      "note": 104,
      "start": 42.9849,
      "duration": 0.4954,
      "velocity": 110,
      "chip": "ym2612"
    },
    {
      "channel": 2,
      "note": 78,
      "start": 42.9879,
      "duration": 0.9943,
      "velocity": 110,
      "chip": "ym2612"
    },
    {
      "channel": 1,
      "note": 63,
      "start": 42.9909,
      "duration": 0.9906,
      "velocity": 101,
      "chip": "ym2612"
    },
    {
      "channel": 3,
      "note": 97,
      "start": 43.4842,
      "duration": 0.246,
      "velocity": 110,
      "chip": "ym2612"
    },
    {
      "channel": 4,
      "note": 106,
      "start": 43.4873,
      "duration": 0.4935,
      "velocity": 110,
      "chip": "ym2612"
    },
    {
      "channel": 0,
      "note": 99,
      "start": 43.7334,
      "duration": 0.2468,
      "velocity": 110,
      "chip": "ym2612"
    },
    {
      "channel": 3,
      "note": 100,
      "start": 43.9855,
      "duration": 0.2447,
      "velocity": 110,
      "chip": "ym2612"
    },
    {
      "channel": 0,
      "note": 107,
      "start": 43.9885,
      "duration": 0.4923,
      "velocity": 110,
      "chip": "ym2612"
    },
    {
      "channel": 4,
      "note": 80,
      "start": 43.9917,
      "duration": 0.99,
      "velocity": 110,
      "chip": "ym2612"
    },
    {
      "channel": 1,
      "note": 61,
      "start": 43.9946,
      "duration": 0.9863,
      "velocity": 101,
      "chip": "ym2612"
    },
    {
      "channel": 2,
      "note": 99,
      "start": 44.2334,
      "duration": 0.2468,
      "velocity": 110,
      "chip": "ym2612"
    },
    {
      "channel": 3,
      "note": 97,
      "start": 44.4842,
      "duration": 0.9966,
      "velocity": 110,
      "chip": "ym2612"
    },
    {
      "channel": 2,
      "note": 107,
      "start": 44.4872,
      "duration": 0.493,
      "velocity": 110,
      "chip": "ym2612"
    },
    {
      "channel": 0,
      "note": 109,
      "start": 44.9849,
      "duration": 0.4953,
      "velocity": 110,
      "chip": "ym2612"
    },
    {
      "channel": 2,
      "note": 82,
      "start": 44.9879,
      "duration": 0.9943,
      "velocity": 110,
      "chip": "ym2612"
    },
    {
      "channel": 1,
      "note": 63,
      "start": 44.9908,
      "duration": 0.9907,
      "velocity": 101,
      "chip": "ym2612"
    },
    {
      "channel": 4,
      "note": 94,
      "start": 45.4842,
      "duration": 0.4966,
      "velocity": 110,
      "chip": "ym2612"
    },
    {
      "channel": 0,
      "note": 106,
      "start": 45.4872,
      "duration": 0.4929,
      "velocity": 110,
      "chip": "ym2612"
    },
    {
      "channel": 3,
      "note": 95,
      "start": 45.9856,
      "duration": 1.9966,
      "velocity": 110,
      "chip": "ym2612"
    },
    {
      "channel": 0,
      "note": 104,
      "start": 45.9885,
      "duration": 1.993,
      "velocity": 110,
      "chip": "ym2612"
    },
    {
      "channel": 4,
      "note": 83,
      "start": 45.9917,
      "duration": 0.9893,
      "velocity": 110,
      "chip": "ym2612"
    },
    {
      "channel": 1,
      "note": 68,
      "start": 45.9946,
      "duration": 0.9856,
      "velocity": 101,
      "chip": "ym2612"
    },
    {
      "channel": 2,
      "note": 83,
      "start": 46.9841,
      "duration": 0.9968,
      "velocity": 110,
      "chip": "ym2612"
    },
    {
      "channel": 1,
      "note": 68,
      "start": 46.9871,
      "duration": 0.9931,
      "velocity": 101,
      "chip": "ym2612"
    },
    {
      "channel": 4,
      "note": 111,
      "start": 47.9856,
      "duration": 0.2454,
      "velocity": 110,
      "chip": "ym2612"
    },
    {
      "channel": 1,
      "note": 106,
      "start": 47.9885,
      "duration": 0.2417,
      "velocity": 110,
      "chip": "ym2612"
    },
    {
      "channel": 2,
      "note": 94,
      "start": 47.9915,
      "duration": 0.49,
      "velocity": 110,
      "chip": "ym2612"
    },
    {
      "channel": 0,
      "note": 63,
      "start": 47.9945,
      "duration": 0.9877,
      "velocity": 101,
      "chip": "ym2612"
    },
    {
      "channel": 3,
      "note": 106,
      "start": 48.2343,
      "duration": 0.2466,
      "velocity": 110,
      "chip": "ym2612"
    },
    {
      "channel": 1,
      "note": 102,
      "start": 48.2373,
      "duration": 0.2429,
      "velocity": 110,
      "chip": "ym2612"
    },
    {
      "channel": 4,
      "note": 102,
      "start": 48.4849,
      "duration": 0.246,
      "velocity": 110,
      "chip": "ym2612"
    },
    {
      "channel": 1,
      "note": 99,
      "start": 48.4879,
      "duration": 0.2423,
      "velocity": 110,
      "chip": "ym2612"
    },
    {
      "channel": 3,
      "note": 90,
      "start": 48.491,
      "duration": 0.4905,
      "velocity": 110,
      "chip": "ym2612"
    },
    {
      "channel": 2,
      "note": 106,
      "start": 48.7341,
      "duration": 0.2467,
      "velocity": 110,
      "chip": "ym2612"
    },
    {
      "channel": 1,
      "note": 102,
      "start": 48.7371,
      "duration": 0.2431,
      "velocity": 110,
      "chip": "ym2612"
    },
    {
      "channel": 4,
      "note": 111,
      "start": 48.9856,
      "duration": 0.2454,
      "velocity": 110,
      "chip": "ym2612"
    },
    {
      "channel": 1,
      "note": 106,
      "start": 48.9885,
      "duration": 0.2417,
      "velocity": 110,
      "chip": "ym2612"
    },
    {
      "channel": 2,
      "note": 94,
      "start": 48.9916,
      "duration": 0.49,
      "velocity": 110,
      "chip": "ym2612"
    },
    {
      "channel": 3,
      "note": 63,
      "start": 48.9946,
      "duration": 0.9876,
      "velocity": 101,
      "chip": "ym2612"
    },
    {
      "channel": 0,
      "note": 114,
      "start": 49.2341,
      "duration": 0.2468,
      "velocity": 110,
      "chip": "ym2612"
    },
    {
      "channel": 1,
      "note": 111,
      "start": 49.2371,
      "duration": 0.2431,
      "velocity": 110,
      "chip": "ym2612"
    },
    {
      "channel": 4,
      "note": 113,
      "start": 49.4849,
      "duration": 0.2461,
      "velocity": 110,
      "chip": "ym2612"
    },
    {
      "channel": 1,
      "note": 111,
      "start": 49.4879,
      "duration": 0.2423,
      "velocity": 110,
      "chip": "ym2612"
    },
    {
      "channel": 0,
      "note": 90,
      "start": 49.4909,
      "duration": 0.4907,
      "velocity": 110,
      "chip": "ym2612"
    },
    {
      "channel": 2,
      "note": 111,
      "start": 49.7341,
      "duration": 0.2468,
      "velocity": 110,
      "chip": "ym2612"
    },
    {
      "channel": 1,
      "note": 106,
      "start": 49.7371,
      "duration": 0.2431,
      "velocity": 110,
      "chip": "ym2612"
    },
    {
      "channel": 4,
      "note": 109,
      "start": 49.9856,
      "duration": 0.2453,
      "velocity": 110,
      "chip": "ym2612"
    },
    {
      "channel": 1,
      "note": 106,
      "start": 49.9886,
      "duration": 0.2416,
      "velocity": 110,
      "chip": "ym2612"
    },
    {
      "channel": 2,
      "note": 90,
      "start": 49.9916,
      "duration": 0.49,
      "velocity": 110,
      "chip": "ym2612"
    },
    {
      "channel": 0,
      "note": 66,
      "start": 49.9946,
      "duration": 0.9876,
      "velocity": 101,
      "chip": "ym2612"
    },
    {
      "channel": 3,
      "note": 106,
      "start": 50.2343,
      "duration": 0.2466,
      "velocity": 110,
      "chip": "ym2612"
    },
    {
      "channel": 1,
      "note": 102,
      "start": 50.2373,
      "duration": 0.2429,
      "velocity": 110,
      "chip": "ym2612"
    },
    {
      "channel": 4,
      "note": 102,
      "start": 50.4849,
      "duration": 0.246,
      "velocity": 110,
      "chip": "ym2612"
    },
    {
      "channel": 1,
      "note": 97,
      "start": 50.4879,
      "duration": 0.2422,
      "velocity": 110,
      "chip": "ym2612"
    },
    {
      "channel": 3,
      "note": 85,
      "start": 50.491,
      "duration": 0.4906,
      "velocity": 110,
      "chip": "ym2612"
    },
    {
      "channel": 2,
      "note": 106,
      "start": 50.7341,
      "duration": 0.2468,
      "velocity": 110,
      "chip": "ym2612"
    },
    {
      "channel": 1,
      "note": 102,
      "start": 50.7371,
      "duration": 0.2431,
      "velocity": 110,
      "chip": "ym2612"
    },
    {
      "channel": 4,
      "note": 109,
      "start": 50.9856,
      "duration": 0.2453,
      "velocity": 110,
      "chip": "ym2612"
    },
    {
      "channel": 1,
      "note": 106,
      "start": 50.9885,
      "duration": 0.2416,
      "velocity": 110,
      "chip": "ym2612"
    },
    {
      "channel": 2,
      "note": 90,
      "start": 50.9915,
      "duration": 0.49,
      "velocity": 110,
      "chip": "ym2612"
    },
    {
      "channel": 3,
      "note": 66,
      "start": 50.9946,
      "duration": 0.9876,
      "velocity": 101,
      "chip": "ym2612"
    },
    {
      "channel": 0,
      "note": 107,
      "start": 51.2341,
      "duration": 0.2468,
      "velocity": 110,
      "chip": "ym2612"
    },
    {
      "channel": 1,
      "note": 102,
      "start": 51.2371,
      "duration": 0.2431,
      "velocity": 110,
      "chip": "ym2612"
    },
    {
      "channel": 4,
      "note": 106,
      "start": 51.4849,
      "duration": 0.2461,
      "velocity": 110,
      "chip": "ym2612"
    },
    {
      "channel": 1,
      "note": 97,
      "start": 51.4878,
      "duration": 0.2424,
      "velocity": 110,
      "chip": "ym2612"
    },
    {
      "channel": 0,
      "note": 85,
      "start": 51.4909,
      "duration": 0.4907,
      "velocity": 110,
      "chip": "ym2612"
    },
    {
      "channel": 2,
      "note": 104,
      "start": 51.7341,
      "duration": 0.2467,
      "velocity": 110,
      "chip": "ym2612"
    },
    {
      "channel": 1,
      "note": 102,
      "start": 51.7371,
      "duration": 0.2431,
      "velocity": 110,
      "chip": "ym2612"
    },
    {
      "channel": 4,
      "note": 107,
      "start": 51.9856,
      "duration": 0.2454,
      "velocity": 110,
      "chip": "ym2612"
    },
    {
      "channel": 1,
      "note": 104,
      "start": 51.9886,
      "duration": 0.2416,
      "velocity": 110,
      "chip": "ym2612"
    },
    {
      "channel": 2,
      "note": 92,
      "start": 51.9916,
      "duration": 0.49,
      "velocity": 110,
      "chip": "ym2612"
    },
    {
      "channel": 0,
      "note": 61,
      "start": 51.9946,
      "duration": 0.9876,
      "velocity": 101,
      "chip": "ym2612"
    },
    {
      "channel": 3,
      "note": 106,
      "start": 52.2343,
      "duration": 0.2466,
      "velocity": 110,
      "chip": "ym2612"
    },
    {
      "channel": 1,
      "note": 102,
      "start": 52.2373,
      "duration": 0.2429,
      "velocity": 110,
      "chip": "ym2612"
    },
    {
      "channel": 4,
      "note": 104,
      "start": 52.4849,
      "duration": 0.246,
      "velocity": 110,
      "chip": "ym2612"
    },
    {
      "channel": 1,
      "note": 101,
      "start": 52.4879,
      "duration": 0.2422,
      "velocity": 110,
      "chip": "ym2612"
    },
    {
      "channel": 3,
      "note": 85,
      "start": 52.491,
      "duration": 0.4906,
      "velocity": 110,
      "chip": "ym2612"
    },
    {
      "channel": 2,
      "note": 101,
      "start": 52.7341,
      "duration": 0.2468,
      "velocity": 110,
      "chip": "ym2612"
    },
    {
      "channel": 1,
      "note": 97,
      "start": 52.7371,
      "duration": 0.2431,
      "velocity": 110,
      "chip": "ym2612"
    },
    {
      "channel": 4,
      "note": 107,
      "start": 52.9856,
      "duration": 0.2453,
      "velocity": 110,
      "chip": "ym2612"
    },
    {
      "channel": 1,
      "note": 101,
      "start": 52.9885,
      "duration": 0.2416,
      "velocity": 110,
      "chip": "ym2612"
    },
    {
      "channel": 2,
      "note": 92,
      "start": 52.9915,
      "duration": 0.49,
      "velocity": 110,
      "chip": "ym2612"
    },
    {
      "channel": 3,
      "note": 61,
      "start": 52.9946,
      "duration": 0.9876,
      "velocity": 101,
      "chip": "ym2612"
    },
    {
      "channel": 0,
      "note": 104,
      "start": 53.2341,
      "duration": 0.2468,
      "velocity": 110,
      "chip": "ym2612"
    },
    {
      "channel": 1,
      "note": 97,
      "start": 53.2371,
      "duration": 0.2431,
      "velocity": 110,
      "chip": "ym2612"
    },
    {
      "channel": 4,
      "note": 111,
      "start": 53.4849,
      "duration": 0.2461,
      "velocity": 110,
      "chip": "ym2612"
    },
    {
      "channel": 1,
      "note": 101,
      "start": 53.4879,
      "duration": 0.2423,
      "velocity": 110,
      "chip": "ym2612"
    },
    {
      "channel": 0,
      "note": 85,
      "start": 53.4909,
      "duration": 0.4907,
      "velocity": 110,
      "chip": "ym2612"
    },
    {
      "channel": 2,
      "note": 107,
      "start": 53.7341,
      "duration": 0.2468,
      "velocity": 110,
      "chip": "ym2612"
    },
    {
      "channel": 1,
      "note": 97,
      "start": 53.7371,
      "duration": 0.2431,
      "velocity": 110,
      "chip": "ym2612"
    },
    {
      "channel": 4,
      "note": 106,
      "start": 53.9856,
      "duration": 1.9966,
      "velocity": 110,
      "chip": "ym2612"
    },
    {
      "channel": 1,
      "note": 99,
      "start": 53.9886,
      "duration": 0.2416,
      "velocity": 110,
      "chip": "ym2612"
    },
    {
      "channel": 2,
      "note": 94,
      "start": 53.9916,
      "duration": 0.4893,
      "velocity": 110,
      "chip": "ym2612"
    },
    {
      "channel": 0,
      "note": 63,
      "start": 53.9946,
      "duration": 0.987,
      "velocity": 101,
      "chip": "ym2612"
    },
    {
      "channel": 3,
      "note": 100,
      "start": 54.2335,
      "duration": 0.2467,
      "velocity": 110,
      "chip": "ym2612"
    },
    {
      "channel": 1,
      "note": 99,
      "start": 54.4841,
      "duration": 0.2461,
      "velocity": 110,
      "chip": "ym2612"
    },
    {
      "channel": 3,
      "note": 91,
      "start": 54.4873,
      "duration": 0.4937,
      "velocity": 110,
      "chip": "ym2612"
    },
    {
      "channel": 2,
      "note": 98,
      "start": 54.7334,
      "duration": 0.2468,
      "velocity": 110,
      "chip": "ym2612"
    },
    {
      "channel": 1,
      "note": 99,
      "start": 54.9848,
      "duration": 0.2454,
      "velocity": 110,
      "chip": "ym2612"
    },
    {
      "channel": 2,
      "note": 87,
      "start": 54.9878,
      "duration": 0.4931,
      "velocity": 110,
      "chip": "ym2612"
    },
    {
      "channel": 3,
      "note": 63,
      "start": 54.9908,
      "duration": 0.9907,
      "velocity": 101,
      "chip": "ym2612"
    },
    {
      "channel": 0,
      "note": 101,
      "start": 55.2334,
      "duration": 0.2468,
      "velocity": 110,
      "chip": "ym2612"
    },
    {
      "channel": 1,
      "note": 99,
      "start": 55.4841,
      "duration": 0.2461,
      "velocity": 110,
      "chip": "ym2612"
    },
    {
      "channel": 0,
      "note": 91,
      "start": 55.4871,
      "duration": 0.4937,
      "velocity": 110,
      "chip": "ym2612"
    },
    {
      "channel": 2,
      "note": 98,
      "start": 55.7334,
      "duration": 0.2468,
      "velocity": 110,
      "chip": "ym2612"
    },
    {
      "channel": 1,
      "note": 102,
      "start": 55.9855,
      "duration": 0.2454,
      "velocity": 110,
      "chip": "ym2612"
    },
    {
      "channel": 2,
      "note": 97,
      "start": 55.9885,
      "duration": 0.2417,
      "velocity": 110,
      "chip": "ym2612"
    },
    {
      "channel": 0,
      "note": 90,
      "start": 55.9915,
      "duration": 0.49,
      "velocity": 110,
      "chip": "ym2612"
    },
    {
      "channel": 3,
      "note": 66,
      "start": 55.9946,
      "duration": 0.9877,
      "velocity": 101,
      "chip": "ym2612"
    },
    {
      "channel": 4,
      "note": 101,
      "start": 56.2342,
      "duration": 0.2467,
      "velocity": 110,
      "chip": "ym2612"
    },
    {
      "channel": 2,
      "note": 95,
      "start": 56.2372,
      "duration": 0.243,
      "velocity": 110,
      "chip": "ym2612"
    },
    {
      "channel": 1,
      "note": 102,
      "start": 56.4849,
      "duration": 0.246,
      "velocity": 110,
      "chip": "ym2612"
    },
    {
      "channel": 2,
      "note": 97,
      "start": 56.4878,
      "duration": 0.2424,
      "velocity": 110,
      "chip": "ym2612"
    },
    {
      "channel": 4,
      "note": 85,
      "start": 56.491,
      "duration": 0.4906,
      "velocity": 110,
      "chip": "ym2612"
    },
    {
      "channel": 0,
      "note": 104,
      "start": 56.7341,
      "duration": 0.2468,
      "velocity": 110,
      "chip": "ym2612"
    },
    {
      "channel": 2,
      "note": 101,
      "start": 56.7371,
      "duration": 0.2431,
      "velocity": 110,
      "chip": "ym2612"
    },
    {
      "channel": 1,
      "note": 106,
      "start": 56.9855,
      "duration": 0.2454,
      "velocity": 110,
      "chip": "ym2612"
    },
    {
      "channel": 2,
      "note": 102,
      "start": 56.9885,
      "duration": 0.2417,
      "velocity": 110,
      "chip": "ym2612"
    },
    {
      "channel": 0,
      "note": 90,
      "start": 56.9915,
      "duration": 0.49,
      "velocity": 110,
      "chip": "ym2612"
    },
    {
      "channel": 4,
      "note": 66,
      "start": 56.9946,
      "duration": 0.9877,
      "velocity": 101,
      "chip": "ym2612"
    },
    {
      "channel": 3,
      "note": 107,
      "start": 57.2342,
      "duration": 0.2467,
      "velocity": 110,
      "chip": "ym2612"
    },
    {
      "channel": 2,
      "note": 104,
      "start": 57.2372,
      "duration": 0.243,
      "velocity": 110,
      "chip": "ym2612"
    },
    {
      "channel": 1,
      "note": 109,
      "start": 57.4848,
      "duration": 0.2461,
      "velocity": 110,
      "chip": "ym2612"
    },
    {
      "channel": 2,
      "note": 106,
      "start": 57.4878,
      "duration": 0.2424,
      "velocity": 110,
      "chip": "ym2612"
    },
    {
      "channel": 3,
      "note": 85,
      "start": 57.4909,
      "duration": 0.4907,
      "velocity": 110,
      "chip": "ym2612"
    },
    {
      "channel": 0,
      "note": 106,
      "start": 57.7341,
      "duration": 0.2468,
      "velocity": 110,
      "chip": "ym2612"
    },
    {
      "channel": 2,
      "note": 102,
      "start": 57.7371,
      "duration": 0.2431,
      "velocity": 110,
      "chip": "ym2612"
    },
    {
      "channel": 1,
      "note": 104,
      "start": 57.9855,
      "duration": 0.2454,
      "velocity": 110,
      "chip": "ym2612"
    },
    {
      "channel": 2,
      "note": 97,
      "start": 57.9885,
      "duration": 0.2417,
      "velocity": 110,
      "chip": "ym2612"
    },
    {
      "channel": 0,
      "note": 89,
      "start": 57.9915,
      "duration": 0.49,
      "velocity": 110,
      "chip": "ym2612"
    },
    {
      "channel": 3,
      "note": 61,
      "start": 57.9946,
      "duration": 0.9877,
      "velocity": 101,
      "chip": "ym2612"
    },
    {
      "channel": 4,
      "note": 101,
      "start": 58.2342,
      "duration": 0.2467,
      "velocity": 110,
      "chip": "ym2612"
    },
    {
      "channel": 2,
      "note": 97,
      "start": 58.2372,
      "duration": 0.243,
      "velocity": 110,
      "chip": "ym2612"
    },
    {
      "channel": 1,
      "note": 97,
      "start": 58.4849,
      "duration": 0.2461,
      "velocity": 110,
      "chip": "ym2612"
    },
    {
      "channel": 2,
      "note": 92,
      "start": 58.4878,
      "duration": 0.2424,
      "velocity": 110,
      "chip": "ym2612"
    },
    {
      "channel": 4,
      "note": 85,
      "start": 58.491,
      "duration": 0.4906,
      "velocity": 110,
      "chip": "ym2612"
    },
    {
      "channel": 0,
      "note": 101,
      "start": 58.7341,
      "duration": 0.2467,
      "velocity": 110,
      "chip": "ym2612"
    },
    {
      "channel": 2,
      "note": 97,
      "start": 58.7371,
      "duration": 0.2431,
      "velocity": 110,
      "chip": "ym2612"
    },
    {
      "channel": 1,
      "note": 104,
      "start": 58.9855,
      "duration": 0.2454,
      "velocity": 110,
      "chip": "ym2612"
    },
    {
      "channel": 2,
      "note": 101,
      "start": 58.9885,
      "duration": 0.2417,
      "velocity": 110,
      "chip": "ym2612"
    },
    {
      "channel": 0,
      "note": 89,
      "start": 58.9915,
      "duration": 0.49,
      "velocity": 110,
      "chip": "ym2612"
    },
    {
      "channel": 4,
      "note": 61,
      "start": 58.9946,
      "duration": 0.9876,
      "velocity": 101,
      "chip": "ym2612"
    },
    {
      "channel": 3,
      "note": 101,
      "start": 59.2342,
      "duration": 0.2467,
      "velocity": 110,
      "chip": "ym2612"
    },
    {
      "channel": 2,
      "note": 97,
      "start": 59.2372,
      "duration": 0.243,
      "velocity": 110,
      "chip": "ym2612"
    },
    {
      "channel": 1,
      "note": 97,
      "start": 59.4848,
      "duration": 0.2461,
      "velocity": 110,
      "chip": "ym2612"
    },
    {
      "channel": 2,
      "note": 92,
      "start": 59.4878,
      "duration": 0.2424,
      "velocity": 110,
      "chip": "ym2612"
    },
    {
      "channel": 3,
      "note": 85,
      "start": 59.4909,
      "duration": 0.4906,
      "velocity": 110,
      "chip": "ym2612"
    },
    {
      "channel": 0,
      "note": 101,
      "start": 59.7341,
      "duration": 0.2467,
      "velocity": 110,
      "chip": "ym2612"
    },
    {
      "channel": 2,
      "note": 97,
      "start": 59.7371,
      "duration": 0.2431,
      "velocity": 110,
      "chip": "ym2612"
    },
    {
      "channel": 1,
      "note": 102,
      "start": 59.9855,
      "duration": 0.2454,
      "velocity": 110,
      "chip": "ym2612"
    },
    {
      "channel": 2,
      "note": 99,
      "start": 59.9885,
      "duration": 0.2417,
      "velocity": 110,
      "chip": "ym2612"
    },
    {
      "channel": 0,
      "note": 90,
      "start": 59.9915,
      "duration": 0.4901,
      "velocity": 110,
      "chip": "ym2612"
    },
    {
      "channel": 3,
      "note": 71,
      "start": 59.9945,
      "duration": 0.9877,
      "velocity": 101,
      "chip": "ym2612"
    },
    {
      "channel": 4,
      "note": 99,
      "start": 60.2341,
      "duration": 0.2467,
      "velocity": 110,
      "chip": "ym2612"
    },
    {
      "channel": 2,
      "note": 94,
      "start": 60.2371,
      "duration": 0.243,
      "velocity": 110,
      "chip": "ym2612"
    },
    {
      "channel": 1,
      "note": 95,
      "start": 60.4848,
      "duration": 0.2461,
      "velocity": 110,
      "chip": "ym2612"
    },
    {
      "channel": 2,
      "note": 90,
      "start": 60.4878,
      "duration": 0.2424,
      "velocity": 110,
      "chip": "ym2612"
    },
    {
      "channel": 4,
      "note": 82,
      "start": 60.4909,
      "duration": 0.4907,
      "velocity": 110,
      "chip": "ym2612"
    },
    {
      "channel": 0,
      "note": 99,
      "start": 60.7341,
      "duration": 0.2468,
      "velocity": 110,
      "chip": "ym2612"
    },
    {
      "channel": 2,
      "note": 87,
      "start": 60.7371,
      "duration": 0.2431,
      "velocity": 110,
      "chip": "ym2612"
    },
    {
      "channel": 1,
      "note": 102,
      "start": 60.9855,
      "duration": 0.2454,
      "velocity": 110,
      "chip": "ym2612"
    },
    {
      "channel": 2,
      "note": 90,
      "start": 60.9885,
      "duration": 0.2417,
      "velocity": 110,
      "chip": "ym2612"
    },
    {
      "channel": 0,
      "note": 87,
      "start": 60.9915,
      "duration": 0.49,
      "velocity": 110,
      "chip": "ym2612"
    },
    {
      "channel": 4,
      "note": 71,
      "start": 60.9946,
      "duration": 0.9877,
      "velocity": 101,
      "chip": "ym2612"
    },
    {
      "channel": 3,
      "note": 101,
      "start": 61.2342,
      "duration": 0.2466,
      "velocity": 110,
      "chip": "ym2612"
    },
    {
      "channel": 2,
      "note": 92,
      "start": 61.2372,
      "duration": 0.2429,
      "velocity": 110,
      "chip": "ym2612"
    },
    {
      "channel": 1,
      "note": 99,
      "start": 61.4847,
      "duration": 0.2461,
      "velocity": 110,
      "chip": "ym2612"
    },
    {
      "channel": 2,
      "note": 94,
      "start": 61.4878,
      "duration": 0.2424,
      "velocity": 110,
      "chip": "ym2612"
    },
    {
      "channel": 3,
      "note": 82,
      "start": 61.4908,
      "duration": 0.4907,
      "velocity": 110,
      "chip": "ym2612"
    },
    {
      "channel": 0,
      "note": 102,
      "start": 61.7341,
      "duration": 0.2468,
      "velocity": 110,
      "chip": "ym2612"
    },
    {
      "channel": 2,
      "note": 95,
      "start": 61.7371,
      "duration": 0.2431,
      "velocity": 110,
      "chip": "ym2612"
    },
    {
      "channel": 1,
      "note": 101,
      "start": 61.9855,
      "duration": 0.2454,
      "velocity": 110,
      "chip": "ym2612"
    },
    {
      "channel": 2,
      "note": 94,
      "start": 61.9885,
      "duration": 0.2417,
      "velocity": 110,
      "chip": "ym2612"
    },
    {
      "channel": 0,
      "note": 82,
      "start": 61.9915,
      "duration": 0.9907,
      "velocity": 110,
      "chip": "ym2612"
    },
    {
      "channel": 3,
      "note": 70,
      "start": 61.9946,
      "duration": 0.987,
      "velocity": 101,
      "chip": "ym2612"
    },
    {
      "channel": 4,
      "note": 99,
      "start": 62.2342,
      "duration": 0.2467,
      "velocity": 110,
      "chip": "ym2612"
    },
    {
      "channel": 2,
      "note": 89,
      "start": 62.2372,
      "duration": 0.243,
      "velocity": 110,
      "chip": "ym2612"
    },
    {
      "channel": 1,
      "note": 98,
      "start": 62.4841,
      "duration": 0.2468,
      "velocity": 110,
      "chip": "ym2612"
    },
    {
      "channel": 2,
      "note": 94,
      "start": 62.4871,
      "duration": 0.2431,
      "velocity": 110,
      "chip": "ym2612"
    },
    {
      "channel": 4,
      "note": 99,
      "start": 62.7342,
      "duration": 0.2466,
      "velocity": 110,
      "chip": "ym2612"
    },
    {
      "channel": 2,
      "note": 89,
      "start": 62.7372,
      "duration": 0.2429,
      "velocity": 110,
      "chip": "ym2612"
    },
    {
      "channel": 1,
      "note": 101,
      "start": 62.9855,
      "duration": 0.2446,
      "velocity": 110,
      "chip": "ym2612"
    },
    {
      "channel": 2,
      "note": 94,
      "start": 62.9885,
      "duration": 0.9938,
      "velocity": 110,
      "chip": "ym2612"
    },
    {
      "channel": 4,
      "note": 82,
      "start": 62.9916,
      "duration": 0.99,
      "velocity": 110,
      "chip": "ym2612"
    },
    {
      "channel": 3,
      "note": 70,
      "start": 62.9946,
      "duration": 0.9863,
      "velocity": 101,
      "chip": "ym2612"
    },
    {
      "channel": 0,
      "note": 104,
      "start": 63.2334,
      "duration": 0.2468,
      "velocity": 110,
      "chip": "ym2612"
    },
    {
      "channel": 1,
      "note": 102,
      "start": 63.4834,
      "duration": 0.2467,
      "velocity": 110,
      "chip": "ym2612"
    },
    {
      "channel": 0,
      "note": 101,
      "start": 63.7334,
      "duration": 0.2468,
      "velocity": 110,
      "chip": "ym2612"
    }
  ]
}