{
  "track_name": "05 - Sound Test 03",
  "duration_sec": 31.787,
  "sample_rate": 44100,
  "note_count": 683,
  "unique_pitches": 32,
  "pitch_range": 47,
  "avg_note_duration": 0.1617,
  "reconstruction_stats": {
    "notes_reconstructed": 683,
    "keyon_events": 683,
    "keyoff_events": 681,
    "orphan_keyons": 2,
    "unique_pitches": 32,
    "pitch_range": 47,
    "avg_duration_sec": 0.1617
  },
  "metadata": {
    "source": "F\\F1 Super License\\05 - Sound Test 03.vgz"
  },
  "notes": [
    {
      "channel": 5,
      "note": 68,
      "start": 0.0,
      "duration": 0.0865,
      "velocity": 127,
      "chip": "ym2612"
    },
    {
      "channel": 5,
      "note": 68,
      "start": 0.1063,
      "duration": 0.0993,
      "velocity": 127,
      "chip": "ym2612"
    },
    {
      "channel": 5,
      "note": 57,
      "start": 0.227,
      "duration": 0.217,
      "velocity": 105,
      "chip": "ym2612"
    },
    {
      "channel": 5,
      "note": 68,
      "start": 0.4654,
      "duration": 0.0978,
      "velocity": 127,
      "chip": "ym2612"
    },
    {
      "channel": 5,
      "note": 57,
      "start": 0.5846,
      "duration": 0.2169,
      "velocity": 105,
      "chip": "ym2612"
    },
    {
      "channel": 5,
      "note": 45,
      "start": 0.823,
      "duration": 0.0978,
      "velocity": 101,
      "chip": "ym2612"
    },
    {
      "channel": 4,
      "note": 49,
      "start": 0.9413,
      "duration": 0.3171,
      "velocity": 80,
      "chip": "ym2612"
    },
    {
      "channel": 5,
      "note": 56,
      "start": 0.943,
      "duration": 0.0969,
      "velocity": 127,
      "chip": "ym2612"
    },
    {
      "channel": 5,
      "note": 56,
      "start": 1.0598,
      "duration": 0.0994,
      "velocity": 127,
      "chip": "ym2612"
    },
    {
      "channel": 2,
      "note": 83,
      "start": 1.1793,
      "duration": 0.0989,
      "velocity": 71,
      "chip": "ym2612"
    },
    {
      "channel": 5,
      "note": 45,
      "start": 1.1809,
      "duration": 0.0975,
      "velocity": 101,
      "chip": "ym2612"
    },
    {
      "channel": 2,
      "note": 85,
      "start": 1.2982,
      "duration": 0.0992,
      "velocity": 71,
      "chip": "ym2612"
    },
    {
      "channel": 4,
      "note": 49,
      "start": 1.2983,
      "duration": 0.0992,
      "velocity": 80,
      "chip": "ym2612"
    },
    {
      "channel": 5,
      "note": 68,
      "start": 1.2999,
      "duration": 0.0977,
      "velocity": 127,
      "chip": "ym2612"
    },
    {
      "channel": 1,
      "note": 85,
      "start": 1.4176,
      "duration": 0.4168,
      "velocity": 58,
      "chip": "ym2612"
    },
    {
      "channel": 2,
      "note": 83,
      "start": 1.4178,
      "duration": 0.0988,
      "velocity": 71,
      "chip": "ym2612"
    },
    {
      "channel": 3,
      "note": 80,
      "start": 1.4183,
      "duration": 0.4162,
      "velocity": 58,
      "chip": "ym2612"
    },
    {
      "channel": 4,
      "note": 61,
      "start": 1.4185,
      "duration": 0.2174,
      "velocity": 80,
      "chip": "ym2612"
    },
    {
      "channel": 5,
      "note": 56,
      "start": 1.4201,
      "duration": 0.0966,
      "velocity": 127,
      "chip": "ym2612"
    },
    {
      "channel": 2,
      "note": 85,
      "start": 1.5365,
      "duration": 0.0992,
      "velocity": 71,
      "chip": "ym2612"
    },
    {
      "channel": 5,
      "note": 45,
      "start": 1.5382,
      "duration": 0.0978,
      "velocity": 101,
      "chip": "ym2612"
    },
    {
      "channel": 4,
      "note": 51,
      "start": 1.6557,
      "duration": 0.219,
      "velocity": 80,
      "chip": "ym2612"
    },
    {
      "channel": 5,
      "note": 56,
      "start": 1.6578,
      "duration": 0.0973,
      "velocity": 127,
      "chip": "ym2612"
    },
    {
      "channel": 5,
      "note": 45,
      "start": 1.7764,
      "duration": 0.0985,
      "velocity": 101,
      "chip": "ym2612"
    },
    {
      "channel": 1,
      "note": 83,
      "start": 1.8941,
      "duration": 0.4171,
      "velocity": 58,
      "chip": "ym2612"
    },
    {
      "channel": 2,
      "note": 83,
      "start": 1.8943,
      "duration": 0.099,
      "velocity": 71,
      "chip": "ym2612"
    },
    {
      "channel": 3,
      "note": 78,
      "start": 1.8945,
      "duration": 0.4168,
      "velocity": 58,
      "chip": "ym2612"
    },
    {
      "channel": 4,
      "note": 52,
      "start": 1.8946,
      "duration": 0.4167,
      "velocity": 80,
      "chip": "ym2612"
    },
    {
      "channel": 5,
      "note": 56,
      "start": 1.8963,
      "duration": 0.0972,
      "velocity": 127,
      "chip": "ym2612"
    },
    {
      "channel": 2,
      "note": 85,
      "start": 2.0132,
      "duration": 0.0993,
      "velocity": 71,
      "chip": "ym2612"
    },
    {
      "channel": 5,
      "note": 56,
      "start": 2.0134,
      "duration": 0.0993,
      "velocity": 127,
      "chip": "ym2612"
    },
    {
      "channel": 2,
      "note": 83,
      "start": 2.1324,
      "duration": 0.0992,
      "velocity": 71,
      "chip": "ym2612"
    },
    {
      "channel": 5,
      "note": 56,
      "start": 2.1326,
      "duration": 0.0993,
      "velocity": 127,
      "chip": "ym2612"
    },
    {
      "channel": 2,
      "note": 85,
      "start": 2.2516,
      "duration": 0.0992,
      "velocity": 71,
      "chip": "ym2612"
    },
    {
      "channel": 5,
      "note": 68,
      "start": 2.2532,
      "duration": 0.0978,
      "velocity": 127,
      "chip": "ym2612"
    },
    {
      "channel": 1,
      "note": 83,
      "start": 2.3707,
      "duration": 0.3178,
      "velocity": 58,
      "chip": "ym2612"
    },
    {
      "channel": 2,
      "note": 83,
      "start": 2.3709,
      "duration": 0.0992,
      "velocity": 71,
      "chip": "ym2612"
    },
    {
      "channel": 3,
      "note": 78,
      "start": 2.371,
      "duration": 0.3177,
      "velocity": 58,
      "chip": "ym2612"
    },
    {
      "channel": 4,
      "note": 52,
      "start": 2.3711,
      "duration": 0.3177,
      "velocity": 80,
      "chip": "ym2612"
    },
    {
      "channel": 5,
      "note": 56,
      "start": 2.3728,
      "duration": 0.0975,
      "velocity": 127,
      "chip": "ym2612"
    },
    {
      "channel": 2,
      "note": 85,
      "start": 2.49,
      "duration": 0.0993,
      "velocity": 71,
      "chip": "ym2612"
    },
    {
      "channel": 5,
      "note": 56,
      "start": 2.4901,
      "duration": 0.0993,
      "velocity": 127,
      "chip": "ym2612"
    },
    {
      "channel": 2,
      "note": 88,
      "start": 2.6092,
      "duration": 0.0992,
      "velocity": 71,
      "chip": "ym2612"
    },
    {
      "channel": 5,
      "note": 45,
      "start": 2.6108,
      "duration": 0.0977,
      "velocity": 101,
      "chip": "ym2612"
    },
    {
      "channel": 1,
      "note": 82,
      "start": 2.7282,
      "duration": 0.0993,
      "velocity": 58,
      "chip": "ym2612"
    },
    {
      "channel": 2,
      "note": 90,
      "start": 2.7284,
      "duration": 0.0992,
      "velocity": 71,
      "chip": "ym2612"
    },
    {
      "channel": 3,
      "note": 78,
      "start": 2.7285,
      "duration": 0.0993,
      "velocity": 58,
      "chip": "ym2612"
    },
    {
      "channel": 4,
      "note": 54,
      "start": 2.7288,
      "duration": 0.0992,
      "velocity": 80,
      "chip": "ym2612"
    },
    {
      "channel": 5,
      "note": 56,
      "start": 2.7304,
      "duration": 0.0976,
      "velocity": 127,
      "chip": "ym2612"
    },
    {
      "channel": 5,
      "note": 56,
      "start": 2.8475,
      "duration": 0.0994,
      "velocity": 127,
      "chip": "ym2612"
    },
    {
      "channel": 5,
      "note": 56,
      "start": 2.9667,
      "duration": 0.0993,
      "velocity": 127,
      "chip": "ym2612"
    },
    {
      "channel": 2,
      "note": 83,
      "start": 3.0859,
      "duration": 0.0992,
      "velocity": 71,
      "chip": "ym2612"
    },
    {
      "channel": 5,
      "note": 45,
      "start": 3.0875,
      "duration": 0.0977,
      "velocity": 101,
      "chip": "ym2612"
    },
    {
      "channel": 2,
      "note": 85,
      "start": 3.205,
      "duration": 0.0992,
      "velocity": 71,
      "chip": "ym2612"
    },
    {
      "channel": 4,
      "note": 54,
      "start": 3.2052,
      "duration": 0.0992,
      "velocity": 80,
      "chip": "ym2612"
    },
    {
      "channel": 5,
      "note": 68,
      "start": 3.2068,
      "duration": 0.0977,
      "velocity": 127,
      "chip": "ym2612"
    },
    {
      "channel": 1,
      "note": 82,
      "start": 3.3247,
      "duration": 0.4167,
      "velocity": 58,
      "chip": "ym2612"
    },
    {
      "channel": 2,
      "note": 83,
      "start": 3.3249,
      "duration": 0.0985,
      "velocity": 71,
      "chip": "ym2612"
    },
    {
      "channel": 3,
      "note": 78,
      "start": 3.3251,
      "duration": 0.4165,
      "velocity": 58,
      "chip": "ym2612"
    },
    {
      "channel": 4,
      "note": 66,
      "start": 3.3253,
      "duration": 0.2175,
      "velocity": 80,
      "chip": "ym2612"
    },
    {
      "channel": 5,
      "note": 56,
      "start": 3.3269,
      "duration": 0.0967,
      "velocity": 127,
      "chip": "ym2612"
    },
    {
      "channel": 2,
      "note": 85,
      "start": 3.4434,
      "duration": 0.0992,
      "velocity": 71,
      "chip": "ym2612"
    },
    {
      "channel": 5,
      "note": 45,
      "start": 3.445,
      "duration": 0.0978,
      "velocity": 101,
      "chip": "ym2612"
    },
    {
      "channel": 4,
      "note": 56,
      "start": 3.5626,
      "duration": 0.2185,
      "velocity": 80,
      "chip": "ym2612"
    },
    {
      "channel": 5,
      "note": 56,
      "start": 3.5642,
      "duration": 0.0976,
      "velocity": 127,
      "chip": "ym2612"
    },
    {
      "channel": 5,
      "note": 45,
      "start": 3.6832,
      "duration": 0.098,
      "velocity": 101,
      "chip": "ym2612"
    },
    {
      "channel": 1,
      "note": 81,
      "start": 3.8009,
      "duration": 0.4171,
      "velocity": 58,
      "chip": "ym2612"
    },
    {
      "channel": 2,
      "note": 83,
      "start": 3.8011,
      "duration": 0.099,
      "velocity": 71,
      "chip": "ym2612"
    },
    {
      "channel": 3,
      "note": 76,
      "start": 3.8013,
      "duration": 0.4168,
      "velocity": 58,
      "chip": "ym2612"
    },
    {
      "channel": 4,
      "note": 57,
      "start": 3.8015,
      "duration": 0.2179,
      "velocity": 80,
      "chip": "ym2612"
    },
    {
      "channel": 5,
      "note": 45,
      "start": 3.8017,
      "duration": 0.0987,
      "velocity": 101,
      "chip": "ym2612"
    },
    {
      "channel": 2,
      "note": 85,
      "start": 3.9201,
      "duration": 0.0993,
      "velocity": 71,
      "chip": "ym2612"
    },
    {
      "channel": 5,
      "note": 68,
      "start": 3.9217,
      "duration": 0.0978,
      "velocity": 127,
      "chip": "ym2612"
    },
    {
      "channel": 2,
      "note": 83,
      "start": 4.0393,
      "duration": 0.0992,
      "velocity": 71,
      "chip": "ym2612"
    },
    {
      "channel": 4,
      "note": 69,
      "start": 4.0395,
      "duration": 0.2187,
      "velocity": 80,
      "chip": "ym2612"
    },
    {
      "channel": 5,
      "note": 56,
      "start": 4.0415,
      "duration": 0.0971,
      "velocity": 127,
      "chip": "ym2612"
    },
    {
      "channel": 2,
      "note": 85,
      "start": 4.1585,
      "duration": 0.0996,
      "velocity": 71,
      "chip": "ym2612"
    },
    {
      "channel": 5,
      "note": 45,
      "start": 4.1601,
      "duration": 0.0982,
      "velocity": 101,
      "chip": "ym2612"
    },
    {
      "channel": 1,
      "note": 78,
      "start": 4.2776,
      "duration": 0.4171,
      "velocity": 58,
      "chip": "ym2612"
    },
    {
      "channel": 2,
      "note": 83,
      "start": 4.2778,
      "duration": 0.0991,
      "velocity": 71,
      "chip": "ym2612"
    },
    {
      "channel": 3,
      "note": 75,
      "start": 4.2779,
      "duration": 0.4169,
      "velocity": 58,
      "chip": "ym2612"
    },
    {
      "channel": 4,
      "note": 59,
      "start": 4.2781,
      "duration": 0.2181,
      "velocity": 80,
      "chip": "ym2612"
    },
    {
      "channel": 5,
      "note": 45,
      "start": 4.2782,
      "duration": 0.0988,
      "velocity": 101,
      "chip": "ym2612"
    },
    {
      "channel": 2,
      "note": 85,
      "start": 4.3968,
      "duration": 0.0992,
      "velocity": 71,
      "chip": "ym2612"
    },
    {
      "channel": 5,
      "note": 68,
      "start": 4.3985,
      "duration": 0.0978,
      "velocity": 127,
      "chip": "ym2612"
    },
    {
      "channel": 2,
      "note": 88,
      "start": 4.516,
      "duration": 0.0992,
      "velocity": 71,
      "chip": "ym2612"
    },
    {
      "channel": 4,
      "note": 71,
      "start": 4.5162,
      "duration": 0.2183,
      "velocity": 80,
      "chip": "ym2612"
    },
    {
      "channel": 5,
      "note": 56,
      "start": 4.5179,
      "duration": 0.0975,
      "velocity": 127,
      "chip": "ym2612"
    },
    {
      "channel": 2,
      "note": 90,
      "start": 4.6352,
      "duration": 0.0993,
      "velocity": 71,
      "chip": "ym2612"
    },
    {
      "channel": 5,
      "note": 45,
      "start": 4.6368,
      "duration": 0.0978,
      "velocity": 101,
      "chip": "ym2612"
    },
    {
      "channel": 4,
      "note": 49,
      "start": 4.7544,
      "duration": 0.3178,
      "velocity": 80,
      "chip": "ym2612"
    },
    {
      "channel": 5,
      "note": 56,
      "start": 4.756,
      "duration": 0.0976,
      "velocity": 127,
      "chip": "ym2612"
    },
    {
      "channel": 5,
      "note": 56,
      "start": 4.8735,
      "duration": 0.0993,
      "velocity": 127,
      "chip": "ym2612"
    },
    {
      "channel": 2,
      "note": 83,
      "start": 4.9927,
      "duration": 0.0992,
      "velocity": 71,
      "chip": "ym2612"
    },
    {
      "channel": 5,
      "note": 45,
      "start": 4.9944,
      "duration": 0.0977,
      "velocity": 101,
      "chip": "ym2612"
    },
    {
      "channel": 2,
      "note": 85,
      "start": 5.1119,
      "duration": 0.0992,
      "velocity": 71,
      "chip": "ym2612"
    },
    {
      "channel": 4,
      "note": 49,
      "start": 5.112,
      "duration": 0.0992,
      "velocity": 80,
      "chip": "ym2612"
    },
    {
      "channel": 5,
      "note": 68,
      "start": 5.1137,
      "duration": 0.0976,
      "velocity": 127,
      "chip": "ym2612"
    },
    {
      "channel": 1,
      "note": 85,
      "start": 5.231,
      "duration": 0.4171,
      "velocity": 58,
      "chip": "ym2612"
    },
    {
      "channel": 2,
      "note": 83,
      "start": 5.2312,
      "duration": 0.099,
      "velocity": 71,
      "chip": "ym2612"
    },
    {
      "channel": 3,
      "note": 80,
      "start": 5.2315,
      "duration": 0.4167,
      "velocity": 58,
      "chip": "ym2612"
    },
    {
      "channel": 4,
      "note": 61,
      "start": 5.2317,
      "duration": 0.2179,
      "velocity": 80,
      "chip": "ym2612"
    },
    {
      "channel": 5,
      "note": 56,
      "start": 5.2333,
      "duration": 0.0972,
      "velocity": 127,
      "chip": "ym2612"
    },
    {
      "channel": 2,
      "note": 85,
      "start": 5.3502,
      "duration": 0.0992,
      "velocity": 71,
      "chip": "ym2612"
    },
    {
      "channel": 5,
      "note": 45,
      "start": 5.3519,
      "duration": 0.0978,
      "velocity": 101,
      "chip": "ym2612"
    },
    {
      "channel": 4,
      "note": 51,
      "start": 5.4695,
      "duration": 0.2184,
      "velocity": 80,
      "chip": "ym2612"
    },
    {
      "channel": 5,
      "note": 56,
      "start": 5.4711,
      "duration": 0.0976,
      "velocity": 127,
      "chip": "ym2612"
    },
    {
      "channel": 5,
      "note": 45,
      "start": 5.5901,
      "duration": 0.0979,
      "velocity": 101,
      "chip": "ym2612"
    },
    {
      "channel": 1,
      "note": 83,
      "start": 5.7081,
      "duration": 0.4167,
      "velocity": 58,
      "chip": "ym2612"
    },
    {
      "channel": 2,
      "note": 83,
      "start": 5.7083,
      "duration": 0.0987,
      "velocity": 71,
      "chip": "ym2612"
    },
    {
      "channel": 3,
      "note": 78,
      "start": 5.7085,
      "duration": 0.4165,
      "velocity": 58,
      "chip": "ym2612"
    },
    {
      "channel": 4,
      "note": 52,
      "start": 5.7086,
      "duration": 0.4164,
      "velocity": 80,
      "chip": "ym2612"
    },
    {
      "channel": 5,
      "note": 56,
      "start": 5.7103,
      "duration": 0.0968,
      "velocity": 127,
      "chip": "ym2612"
    },
    {
      "channel": 2,
      "note": 85,
      "start": 5.827,
      "duration": 0.0993,
      "velocity": 71,
      "chip": "ym2612"
    },
    {
      "channel": 5,
      "note": 56,
      "start": 5.8271,
      "duration": 0.0992,
      "velocity": 127,
      "chip": "ym2612"
    },
    {
      "channel": 2,
      "note": 83,
      "start": 5.9461,
      "duration": 0.0992,
      "velocity": 71,
      "chip": "ym2612"
    },
    {
      "channel": 5,
      "note": 56,
      "start": 5.9462,
      "duration": 0.0993,
      "velocity": 127,
      "chip": "ym2612"
    },
    {
      "channel": 2,
      "note": 85,
      "start": 6.0653,
      "duration": 0.0993,
      "velocity": 71,
      "chip": "ym2612"
    },
    {
      "channel": 5,
      "note": 68,
      "start": 6.0669,
      "duration": 0.0978,
      "velocity": 127,
      "chip": "ym2612"
    },
    {
      "channel": 1,
      "note": 83,
      "start": 6.1844,
      "duration": 0.3178,
      "velocity": 58,
      "chip": "ym2612"
    },
    {
      "channel": 2,
      "note": 83,
      "start": 6.1846,
      "duration": 0.0991,
      "velocity": 71,
      "chip": "ym2612"
    },
    {
      "channel": 3,
      "note": 78,
      "start": 6.1847,
      "duration": 0.3177,
      "velocity": 58,
      "chip": "ym2612"
    },
    {
      "channel": 4,
      "note": 52,
      "start": 6.1848,
      "duration": 0.3177,
      "velocity": 80,
      "chip": "ym2612"
    },
    {
      "channel": 5,
      "note": 56,
      "start": 6.1864,
      "duration": 0.0975,
      "velocity": 127,
      "chip": "ym2612"
    },
    {
      "channel": 2,
      "note": 85,
      "start": 6.3036,
      "duration": 0.0993,
      "velocity": 71,
      "chip": "ym2612"
    },
    {
      "channel": 5,
      "note": 56,
      "start": 6.3037,
      "duration": 0.0993,
      "velocity": 127,
      "chip": "ym2612"
    },
    {
      "channel": 2,
      "note": 88,
      "start": 6.4228,
      "duration": 0.0993,
      "velocity": 71,
      "chip": "ym2612"
    },
    {
      "channel": 5,
      "note": 45,
      "start": 6.4249,
      "duration": 0.0974,
      "velocity": 101,
      "chip": "ym2612"
    },
    {
      "channel": 1,
      "note": 82,
      "start": 6.542,
      "duration": 0.0994,
      "velocity": 58,
      "chip": "ym2612"
    },
    {
      "channel": 2,
      "note": 90,
      "start": 6.5422,
      "duration": 0.0993,
      "velocity": 71,
      "chip": "ym2612"
    },
    {
      "channel": 3,
      "note": 78,
      "start": 6.5424,
      "duration": 0.0993,
      "velocity": 58,
      "chip": "ym2612"
    },
    {
      "channel": 4,
      "note": 54,
      "start": 6.5426,
      "duration": 0.0992,
      "velocity": 80,
      "chip": "ym2612"
    },
    {
      "channel": 5,
      "note": 56,
      "start": 6.5441,
      "duration": 0.0978,
      "velocity": 127,
      "chip": "ym2612"
    },
    {
      "channel": 5,
      "note": 56,
      "start": 6.6611,
      "duration": 0.0994,
      "velocity": 127,
      "chip": "ym2612"
    },
    {
      "channel": 5,
      "note": 56,
      "start": 6.7803,
      "duration": 0.0993,
      "velocity": 127,
      "chip": "ym2612"
    },
    {
      "channel": 2,
      "note": 83,
      "start": 6.8995,
      "duration": 0.0993,
      "velocity": 71,
      "chip": "ym2612"
    },
    {
      "channel": 5,
      "note": 45,
      "start": 6.9012,
      "duration": 0.0977,
      "velocity": 101,
      "chip": "ym2612"
    },
    {
      "channel": 2,
      "note": 85,
      "start": 7.0188,
      "duration": 0.0992,
      "velocity": 71,
      "chip": "ym2612"
    },
    {
      "channel": 4,
      "note": 54,
      "start": 7.0189,
      "duration": 0.0992,
      "velocity": 80,
      "chip": "ym2612"
    },
    {
      "channel": 5,
      "note": 68,
      "start": 7.0205,
      "duration": 0.0977,
      "velocity": 127,
      "chip": "ym2612"
    },
    {
      "channel": 1,
      "note": 82,
      "start": 7.1378,
      "duration": 0.4171,
      "velocity": 58,
      "chip": "ym2612"
    },
    {
      "channel": 2,
      "note": 83,
      "start": 7.138,
      "duration": 0.099,
      "velocity": 71,
      "chip": "ym2612"
    },
    {
      "channel": 3,
      "note": 78,
      "start": 7.1382,
      "duration": 0.4168,
      "velocity": 58,
      "chip": "ym2612"
    },
    {
      "channel": 4,
      "note": 66,
      "start": 7.1384,
      "duration": 0.218,
      "velocity": 80,
      "chip": "ym2612"
    },
    {
      "channel": 5,
      "note": 56,
      "start": 7.14,
      "duration": 0.0973,
      "velocity": 127,
      "chip": "ym2612"
    },
    {
      "channel": 2,
      "note": 85,
      "start": 7.2571,
      "duration": 0.0992,
      "velocity": 71,
      "chip": "ym2612"
    },
    {
      "channel": 5,
      "note": 45,
      "start": 7.2592,
      "duration": 0.0974,
      "velocity": 101,
      "chip": "ym2612"
    },
    {
      "channel": 4,
      "note": 56,
      "start": 7.3763,
      "duration": 0.2185,
      "velocity": 80,
      "chip": "ym2612"
    },
    {
      "channel": 5,
      "note": 56,
      "start": 7.3779,
      "duration": 0.0977,
      "velocity": 127,
      "chip": "ym2612"
    },
    {
      "channel": 5,
      "note": 45,
      "start": 7.4969,
      "duration": 0.0979,
      "velocity": 101,
      "chip": "ym2612"
    },
    {
      "channel": 1,
      "note": 85,
      "start": 7.6146,
      "duration": 0.417,
      "velocity": 58,
      "chip": "ym2612"
    },
    {
      "channel": 2,
      "note": 83,
      "start": 7.6148,
      "duration": 0.099,
      "velocity": 71,
      "chip": "ym2612"
    },
    {
      "channel": 3,
      "note": 81,
      "start": 7.615,
      "duration": 0.4167,
      "velocity": 58,
      "chip": "ym2612"
    },
    {
      "channel": 4,
      "note": 57,
      "start": 7.6152,
      "duration": 0.218,
      "velocity": 80,
      "chip": "ym2612"
    },
    {
      "channel": 5,
      "note": 45,
      "start": 7.6153,
      "duration": 0.0987,
      "velocity": 101,
      "chip": "ym2612"
    },
    {
      "channel": 2,
      "note": 85,
      "start": 7.7338,
      "duration": 0.0992,
      "velocity": 71,
      "chip": "ym2612"
    },
    {
      "channel": 5,
      "note": 68,
      "start": 7.7354,
      "duration": 0.0979,
      "velocity": 127,
      "chip": "ym2612"
    },
    {
      "channel": 2,
      "note": 83,
      "start": 7.8529,
      "duration": 0.0993,
      "velocity": 71,
      "chip": "ym2612"
    },
    {
      "channel": 4,
      "note": 69,
      "start": 7.8532,
      "duration": 0.2184,
      "velocity": 80,
      "chip": "ym2612"
    },
    {
      "channel": 5,
      "note": 56,
      "start": 7.8548,
      "duration": 0.0976,
      "velocity": 127,
      "chip": "ym2612"
    },
    {
      "channel": 2,
      "note": 85,
      "start": 7.9721,
      "duration": 0.0993,
      "velocity": 71,
      "chip": "ym2612"
    },
    {
      "channel": 5,
      "note": 45,
      "start": 7.9738,
      "duration": 0.0979,
      "velocity": 101,
      "chip": "ym2612"
    },
    {
      "channel": 1,
      "note": 87,
      "start": 8.0915,
      "duration": 0.4169,
      "velocity": 58,
      "chip": "ym2612"
    },
    {
      "channel": 2,
      "note": 83,
      "start": 8.0917,
      "duration": 0.0989,
      "velocity": 71,
      "chip": "ym2612"
    },
    {
      "channel": 3,
      "note": 83,
      "start": 8.0919,
      "duration": 0.4167,
      "velocity": 58,
      "chip": "ym2612"
    },
    {
      "channel": 4,
      "note": 59,
      "start": 8.092,
      "duration": 0.2178,
      "velocity": 80,
      "chip": "ym2612"
    },
    {
      "channel": 5,
      "note": 45,
      "start": 8.0922,
      "duration": 0.0989,
      "velocity": 101,
      "chip": "ym2612"
    },
    {
      "channel": 2,
      "note": 85,
      "start": 8.2105,
      "duration": 0.0992,
      "velocity": 71,
      "chip": "ym2612"
    },
    {
      "channel": 5,
      "note": 68,
      "start": 8.2122,
      "duration": 0.0978,
      "velocity": 127,
      "chip": "ym2612"
    },
    {
      "channel": 2,
      "note": 88,
      "start": 8.3297,
      "duration": 0.0992,
      "velocity": 71,
      "chip": "ym2612"
    },
    {
      "channel": 4,
      "note": 71,
      "start": 8.3299,
      "duration": 0.2184,
      "velocity": 80,
      "chip": "ym2612"
    },
    {
      "channel": 5,
      "note": 56,
      "start": 8.3315,
      "duration": 0.0975,
      "velocity": 127,
      "chip": "ym2612"
    },
    {
      "channel": 2,
      "note": 90,
      "start": 8.4488,
      "duration": 0.0993,
      "velocity": 71,
      "chip": "ym2612"
    },
    {
      "channel": 5,
      "note": 45,
      "start": 8.4505,
      "duration": 0.0979,
      "velocity": 101,
      "chip": "ym2612"
    },
    {
      "channel": 4,
      "note": 49,
      "start": 8.5681,
      "duration": 0.3177,
      "velocity": 80,
      "chip": "ym2612"
    },
    {
      "channel": 5,
      "note": 56,
      "start": 8.5697,
      "duration": 0.0976,
      "velocity": 127,
      "chip": "ym2612"
    },
    {
      "channel": 5,
      "note": 56,
      "start": 8.6872,
      "duration": 0.0993,
      "velocity": 127,
      "chip": "ym2612"
    },
    {
      "channel": 2,
      "note": 83,
      "start": 8.8064,
      "duration": 0.0993,
      "velocity": 71,
      "chip": "ym2612"
    },
    {
      "channel": 5,
      "note": 45,
      "start": 8.8085,
      "duration": 0.0973,
      "velocity": 101,
      "chip": "ym2612"
    },
    {
      "channel": 2,
      "note": 85,
      "start": 8.9256,
      "duration": 0.0992,
      "velocity": 71,
      "chip": "ym2612"
    },
    {
      "channel": 4,
      "note": 49,
      "start": 8.9257,
      "duration": 0.0993,
      "velocity": 80,
      "chip": "ym2612"
    },
    {
      "channel": 5,
      "note": 68,
      "start": 8.9273,
      "duration": 0.0977,
      "velocity": 127,
      "chip": "ym2612"
    },
    {
      "channel": 1,
      "note": 85,
      "start": 9.0447,
      "duration": 0.4171,
      "velocity": 58,
      "chip": "ym2612"
    },
    {
      "channel": 2,
      "note": 83,
      "start": 9.0449,
      "duration": 0.0991,
      "velocity": 71,
      "chip": "ym2612"
    },
    {
      "channel": 3,
      "note": 80,
      "start": 9.0451,
      "duration": 0.4168,
      "velocity": 58,
      "chip": "ym2612"
    },
    {
      "channel": 4,
      "note": 61,
      "start": 9.0453,
      "duration": 0.218,
      "velocity": 80,
      "chip": "ym2612"
    },
    {
      "channel": 5,
      "note": 56,
      "start": 9.0469,
      "duration": 0.0973,
      "velocity": 127,
      "chip": "ym2612"
    },
    {
      "channel": 2,
      "note": 85,
      "start": 9.1639,
      "duration": 0.0993,
      "velocity": 71,
      "chip": "ym2612"
    },
    {
      "channel": 5,
      "note": 45,
      "start": 9.1656,
      "duration": 0.0978,
      "velocity": 101,
      "chip": "ym2612"
    },
    {
      "channel": 4,
      "note": 51,
      "start": 9.2831,
      "duration": 0.2184,
      "velocity": 80,
      "chip": "ym2612"
    },
    {
      "channel": 5,
      "note": 56,
      "start": 9.2847,
      "duration": 0.0976,
      "velocity": 127,
      "chip": "ym2612"
    },
    {
      "channel": 5,
      "note": 45,
      "start": 9.4038,
      "duration": 0.0978,
      "velocity": 101,
      "chip": "ym2612"
    },
    {
      "channel": 1,
      "note": 83,
      "start": 9.5214,
      "duration": 0.4171,
      "velocity": 58,
      "chip": "ym2612"
    },
    {
      "channel": 2,
      "note": 83,
      "start": 9.5217,
      "duration": 0.099,
      "velocity": 71,
      "chip": "ym2612"
    },
    {
      "channel": 3,
      "note": 78,
      "start": 9.5218,
      "duration": 0.4169,
      "velocity": 58,
      "chip": "ym2612"
    },
    {
      "channel": 4,
      "note": 52,
      "start": 9.522,
      "duration": 0.4168,
      "velocity": 80,
      "chip": "ym2612"
    },
    {
      "channel": 5,
      "note": 56,
      "start": 9.5237,
      "duration": 0.0972,
      "velocity": 127,
      "chip": "ym2612"
    },
    {
      "channel": 2,
      "note": 85,
      "start": 9.6407,
      "duration": 0.0992,
      "velocity": 71,
      "chip": "ym2612"
    },
    {
      "channel": 5,
      "note": 56,
      "start": 9.6412,
      "duration": 0.0988,
      "velocity": 127,
      "chip": "ym2612"
    },
    {
      "channel": 2,
      "note": 83,
      "start": 9.7599,
      "duration": 0.0992,
      "velocity": 71,
      "chip": "ym2612"
    },
    {
      "channel": 5,
      "note": 56,
      "start": 9.76,
      "duration": 0.0993,
      "velocity": 127,
      "chip": "ym2612"
    },
    {
      "channel": 2,
      "note": 85,
      "start": 9.879,
      "duration": 0.0992,
      "velocity": 71,
      "chip": "ym2612"
    },
    {
      "channel": 5,
      "note": 68,
      "start": 9.8807,
      "duration": 0.0978,
      "velocity": 127,
      "chip": "ym2612"
    },
    {
      "channel": 1,
      "note": 83,
      "start": 9.9981,
      "duration": 0.3178,
      "velocity": 58,
      "chip": "ym2612"
    },
    {
      "channel": 2,
      "note": 83,
      "start": 9.9983,
      "duration": 0.0991,
      "velocity": 71,
      "chip": "ym2612"
    },
    {
      "channel": 3,
      "note": 78,
      "start": 9.9984,
      "duration": 0.3176,
      "velocity": 58,
      "chip": "ym2612"
    },
    {
      "channel": 4,
      "note": 52,
      "start": 9.9985,
      "duration": 0.3176,
      "velocity": 80,
      "chip": "ym2612"
    },
    {
      "channel": 5,
      "note": 56,
      "start": 10.0002,
      "duration": 0.0973,
      "velocity": 127,
      "chip": "ym2612"
    },
    {
      "channel": 2,
      "note": 85,
      "start": 10.1174,
      "duration": 0.0992,
      "velocity": 71,
      "chip": "ym2612"
    },
    {
      "channel": 5,
      "note": 56,
      "start": 10.1175,
      "duration": 0.0993,
      "velocity": 127,
      "chip": "ym2612"
    },
    {
      "channel": 2,
      "note": 88,
      "start": 10.2365,
      "duration": 0.0992,
      "velocity": 71,
      "chip": "ym2612"
    },
    {
      "channel": 5,
      "note": 45,
      "start": 10.2382,
      "duration": 0.0978,
      "velocity": 101,
      "chip": "ym2612"
    },
    {
      "channel": 1,
      "note": 82,
      "start": 10.3557,
      "duration": 0.0993,
      "velocity": 58,
      "chip": "ym2612"
    },
    {
      "channel": 2,
      "note": 90,
      "start": 10.3559,
      "duration": 0.0992,
      "velocity": 71,
      "chip": "ym2612"
    },
    {
      "channel": 3,
      "note": 78,
      "start": 10.356,
      "duration": 0.0992,
      "velocity": 58,
      "chip": "ym2612"
    },
    {
      "channel": 4,
      "note": 54,
      "start": 10.3562,
      "duration": 0.0992,
      "velocity": 80,
      "chip": "ym2612"
    },
    {
      "channel": 5,
      "note": 56,
      "start": 10.3582,
      "duration": 0.0973,
      "velocity": 127,
      "chip": "ym2612"
    },
    {
      "channel": 5,
      "note": 56,
      "start": 10.4749,
      "duration": 0.0999,
      "velocity": 127,
      "chip": "ym2612"
    },
    {
      "channel": 5,
      "note": 56,
      "start": 10.594,
      "duration": 0.0993,
      "velocity": 127,
      "chip": "ym2612"
    },
    {
      "channel": 2,
      "note": 83,
      "start": 10.7132,
      "duration": 0.0993,
      "velocity": 71,
      "chip": "ym2612"
    },
    {
      "channel": 5,
      "note": 45,
      "start": 10.7149,
      "duration": 0.0978,
      "velocity": 101,
      "chip": "ym2612"
    },
    {
      "channel": 2,
      "note": 85,
      "start": 10.8324,
      "duration": 0.0993,
      "velocity": 71,
      "chip": "ym2612"
    },
    {
      "channel": 4,
      "note": 54,
      "start": 10.8326,
      "duration": 0.0993,
      "velocity": 80,
      "chip": "ym2612"
    },
    {
      "channel": 5,
      "note": 68,
      "start": 10.8341,
      "duration": 0.0978,
      "velocity": 127,
      "chip": "ym2612"
    },
    {
      "channel": 1,
      "note": 82,
      "start": 10.9516,
      "duration": 0.4171,
      "velocity": 58,
      "chip": "ym2612"
    },
    {
      "channel": 2,
      "note": 83,
      "start": 10.9518,
      "duration": 0.099,
      "velocity": 71,
      "chip": "ym2612"
    },
    {
      "channel": 3,
      "note": 78,
      "start": 10.9519,
      "duration": 0.4168,
      "velocity": 58,
      "chip": "ym2612"
    },
    {
      "channel": 4,
      "note": 66,
      "start": 10.9521,
      "duration": 0.218,
      "velocity": 80,
      "chip": "ym2612"
    },
    {
      "channel": 5,
      "note": 56,
      "start": 10.9537,
      "duration": 0.0972,
      "velocity": 127,
      "chip": "ym2612"
    },
    {
      "channel": 2,
      "note": 85,
      "start": 11.0708,
      "duration": 0.0992,
      "velocity": 71,
      "chip": "ym2612"
    },
    {
      "channel": 5,
      "note": 45,
      "start": 11.0724,
      "duration": 0.0978,
      "velocity": 101,
      "chip": "ym2612"
    },
    {
      "channel": 4,
      "note": 56,
      "start": 11.19,
      "duration": 0.2184,
      "velocity": 80,
      "chip": "ym2612"
    },
    {
      "channel": 5,
      "note": 56,
      "start": 11.192,
      "duration": 0.0972,
      "velocity": 127,
      "chip": "ym2612"
    },
    {
      "channel": 5,
      "note": 45,
      "start": 11.3106,
      "duration": 0.0979,
      "velocity": 101,
      "chip": "ym2612"
    },
    {
      "channel": 1,
      "note": 81,
      "start": 11.4283,
      "duration": 0.4171,
      "velocity": 58,
      "chip": "ym2612"
    },
    {
      "channel": 2,
      "note": 83,
      "start": 11.4285,
      "duration": 0.0991,
      "velocity": 71,
      "chip": "ym2612"
    },
    {
      "channel": 3,
      "note": 76,
      "start": 11.4287,
      "duration": 0.4168,
      "velocity": 58,
      "chip": "ym2612"
    },
    {
      "channel": 4,
      "note": 57,
      "start": 11.4289,
      "duration": 0.218,
      "velocity": 80,
      "chip": "ym2612"
    },
    {
      "channel": 5,
      "note": 45,
      "start": 11.429,
      "duration": 0.0987,
      "velocity": 101,
      "chip": "ym2612"
    },
    {
      "channel": 2,
      "note": 85,
      "start": 11.5475,
      "duration": 0.0993,
      "velocity": 71,
      "chip": "ym2612"
    },
    {
      "channel": 5,
      "note": 68,
      "start": 11.5492,
      "duration": 0.0978,
      "velocity": 127,
      "chip": "ym2612"
    },
    {
      "channel": 2,
      "note": 83,
      "start": 11.6667,
      "duration": 0.0992,
      "velocity": 71,
      "chip": "ym2612"
    },
    {
      "channel": 4,
      "note": 69,
      "start": 11.6668,
      "duration": 0.2183,
      "velocity": 80,
      "chip": "ym2612"
    },
    {
      "channel": 5,
      "note": 56,
      "start": 11.6684,
      "duration": 0.0977,
      "velocity": 127,
      "chip": "ym2612"
    },
    {
      "channel": 2,
      "note": 85,
      "start": 11.7858,
      "duration": 0.0993,
      "velocity": 71,
      "chip": "ym2612"
    },
    {
      "channel": 5,
      "note": 45,
      "start": 11.7875,
      "duration": 0.0978,
      "velocity": 101,
      "chip": "ym2612"
    },
    {
      "channel": 1,
      "note": 78,
      "start": 11.905,
      "duration": 0.417,
      "velocity": 58,
      "chip": "ym2612"
    },
    {
      "channel": 2,
      "note": 83,
      "start": 11.9052,
      "duration": 0.099,
      "velocity": 71,
      "chip": "ym2612"
    },
    {
      "channel": 3,
      "note": 75,
      "start": 11.9054,
      "duration": 0.4168,
      "velocity": 58,
      "chip": "ym2612"
    },
    {
      "channel": 4,
      "note": 59,
      "start": 11.9056,
      "duration": 0.2179,
      "velocity": 80,
      "chip": "ym2612"
    },
    {
      "channel": 5,
      "note": 45,
      "start": 11.9057,
      "duration": 0.0987,
      "velocity": 101,
      "chip": "ym2612"
    },
    {
      "channel": 2,
      "note": 85,
      "start": 12.0248,
      "duration": 0.0986,
      "velocity": 71,
      "chip": "ym2612"
    },
    {
      "channel": 5,
      "note": 68,
      "start": 12.0265,
      "duration": 0.0972,
      "velocity": 127,
      "chip": "ym2612"
    },
    {
      "channel": 2,
      "note": 88,
      "start": 12.1433,
      "duration": 0.0993,
      "velocity": 71,
      "chip": "ym2612"
    },
    {
      "channel": 4,
      "note": 71,
      "start": 12.1436,
      "duration": 0.2184,
      "velocity": 80,
      "chip": "ym2612"
    },
    {
      "channel": 5,
      "note": 56,
      "start": 12.1452,
      "duration": 0.0976,
      "velocity": 127,
      "chip": "ym2612"
    },
    {
      "channel": 2,
      "note": 90,
      "start": 12.2625,
      "duration": 0.0992,
      "velocity": 71,
      "chip": "ym2612"
    },
    {
      "channel": 5,
      "note": 45,
      "start": 12.2642,
      "duration": 0.0978,
      "velocity": 101,
      "chip": "ym2612"
    },
    {
      "channel": 4,
      "note": 49,
      "start": 12.3817,
      "duration": 0.3177,
      "velocity": 80,
      "chip": "ym2612"
    },
    {
      "channel": 5,
      "note": 56,
      "start": 12.3834,
      "duration": 0.0976,
      "velocity": 127,
      "chip": "ym2612"
    },
    {
      "channel": 5,
      "note": 56,
      "start": 12.5009,
      "duration": 0.0993,
      "velocity": 127,
      "chip": "ym2612"
    },
    {
      "channel": 2,
      "note": 83,
      "start": 12.6201,
      "duration": 0.0993,
      "velocity": 71,
      "chip": "ym2612"
    },
    {
      "channel": 5,
      "note": 45,
      "start": 12.6217,
      "duration": 0.0977,
      "velocity": 101,
      "chip": "ym2612"
    },
    {
      "channel": 2,
      "note": 85,
      "start": 12.7393,
      "duration": 0.0993,
      "velocity": 71,
      "chip": "ym2612"
    },
    {
      "channel": 4,
      "note": 49,
      "start": 12.7394,
      "duration": 0.0993,
      "velocity": 80,
      "chip": "ym2612"
    },
    {
      "channel": 5,
      "note": 68,
      "start": 12.7414,
      "duration": 0.0974,
      "velocity": 127,
      "chip": "ym2612"
    },
    {
      "channel": 1,
      "note": 85,
      "start": 12.8585,
      "duration": 0.4171,
      "velocity": 58,
      "chip": "ym2612"
    },
    {
      "channel": 2,
      "note": 83,
      "start": 12.8586,
      "duration": 0.0994,
      "velocity": 71,
      "chip": "ym2612"
    },
    {
      "channel": 3,
      "note": 80,
      "start": 12.8588,
      "duration": 0.4168,
      "velocity": 58,
      "chip": "ym2612"
    },
    {
      "channel": 4,
      "note": 61,
      "start": 12.859,
      "duration": 0.2179,
      "velocity": 80,
      "chip": "ym2612"
    },
    {
      "channel": 5,
      "note": 56,
      "start": 12.8607,
      "duration": 0.0975,
      "velocity": 127,
      "chip": "ym2612"
    },
    {
      "channel": 2,
      "note": 85,
      "start": 12.9776,
      "duration": 0.0993,
      "velocity": 71,
      "chip": "ym2612"
    },
    {
      "channel": 5,
      "note": 45,
      "start": 12.9793,
      "duration": 0.0978,
      "velocity": 101,
      "chip": "ym2612"
    },
    {
      "channel": 4,
      "note": 51,
      "start": 13.0969,
      "duration": 0.2184,
      "velocity": 80,
      "chip": "ym2612"
    },
    {
      "channel": 5,
      "note": 56,
      "start": 13.0985,
      "duration": 0.0976,
      "velocity": 127,
      "chip": "ym2612"
    },
    {
      "channel": 5,
      "note": 45,
      "start": 13.2175,
      "duration": 0.0979,
      "velocity": 101,
      "chip": "ym2612"
    },
    {
      "channel": 1,
      "note": 83,
      "start": 13.3352,
      "duration": 0.417,
      "velocity": 58,
      "chip": "ym2612"
    },
    {
      "channel": 2,
      "note": 83,
      "start": 13.3354,
      "duration": 0.099,
      "velocity": 71,
      "chip": "ym2612"
    },
    {
      "channel": 3,
      "note": 78,
      "start": 13.3356,
      "duration": 0.4168,
      "velocity": 58,
      "chip": "ym2612"
    },
    {
      "channel": 4,
      "note": 52,
      "start": 13.3357,
      "duration": 0.4167,
      "velocity": 80,
      "chip": "ym2612"
    },
    {
      "channel": 5,
      "note": 56,
      "start": 13.3373,
      "duration": 0.0973,
      "velocity": 127,
      "chip": "ym2612"
    },
    {
      "channel": 2,
      "note": 85,
      "start": 13.4543,
      "duration": 0.0993,
      "velocity": 71,
      "chip": "ym2612"
    },
    {
      "channel": 5,
      "note": 56,
      "start": 13.4544,
      "duration": 0.0993,
      "velocity": 127,
      "chip": "ym2612"
    },
    {
      "channel": 2,
      "note": 83,
      "start": 13.5735,
      "duration": 0.0992,
      "velocity": 71,
      "chip": "ym2612"
    },
    {
      "channel": 5,
      "note": 56,
      "start": 13.5737,
      "duration": 0.0993,
      "velocity": 127,
      "chip": "ym2612"
    },
    {
      "channel": 2,
      "note": 85,
      "start": 13.6927,
      "duration": 0.0993,
      "velocity": 71,
      "chip": "ym2612"
    },
    {
      "channel": 5,
      "note": 68,
      "start": 13.6943,
      "duration": 0.0978,
      "velocity": 127,
      "chip": "ym2612"
    },
    {
      "channel": 1,
      "note": 83,
      "start": 13.8118,
      "duration": 0.3179,
      "velocity": 58,
      "chip": "ym2612"
    },
    {
      "channel": 2,
      "note": 83,
      "start": 13.812,
      "duration": 0.0991,
      "velocity": 71,
      "chip": "ym2612"
    },
    {
      "channel": 3,
      "note": 78,
      "start": 13.8121,
      "duration": 0.3177,
      "velocity": 58,
      "chip": "ym2612"
    },
    {
      "channel": 4,
      "note": 52,
      "start": 13.8122,
      "duration": 0.3177,
      "velocity": 80,
      "chip": "ym2612"
    },
    {
      "channel": 5,
      "note": 56,
      "start": 13.8139,
      "duration": 0.0974,
      "velocity": 127,
      "chip": "ym2612"
    },
    {
      "channel": 2,
      "note": 85,
      "start": 13.931,
      "duration": 0.0992,
      "velocity": 71,
      "chip": "ym2612"
    },
    {
      "channel": 5,
      "note": 56,
      "start": 13.9312,
      "duration": 0.0992,
      "velocity": 127,
      "chip": "ym2612"
    },
    {
      "channel": 2,
      "note": 88,
      "start": 14.0502,
      "duration": 0.0993,
      "velocity": 71,
      "chip": "ym2612"
    },
    {
      "channel": 5,
      "note": 45,
      "start": 14.0518,
      "duration": 0.0978,
      "velocity": 101,
      "chip": "ym2612"
    },
    {
      "channel": 1,
      "note": 82,
      "start": 14.1694,
      "duration": 0.0992,
      "velocity": 58,
      "chip": "ym2612"
    },
    {
      "channel": 2,
      "note": 90,
      "start": 14.1695,
      "duration": 0.0992,
      "velocity": 71,
      "chip": "ym2612"
    },
    {
      "channel": 3,
      "note": 78,
      "start": 14.1697,
      "duration": 0.0992,
      "velocity": 58,
      "chip": "ym2612"
    },
    {
      "channel": 4,
      "note": 54,
      "start": 14.1698,
      "duration": 0.0992,
      "velocity": 80,
      "chip": "ym2612"
    },
    {
      "channel": 5,
      "note": 56,
      "start": 14.1715,
      "duration": 0.0976,
      "velocity": 127,
      "chip": "ym2612"
    },
    {
      "channel": 5,
      "note": 56,
      "start": 14.2885,
      "duration": 0.0993,
      "velocity": 127,
      "chip": "ym2612"
    },
    {
      "channel": 5,
      "note": 56,
      "start": 14.4081,
      "duration": 0.0989,
      "velocity": 127,
      "chip": "ym2612"
    },
    {
      "channel": 2,
      "note": 83,
      "start": 14.527,
      "duration": 0.0992,
      "velocity": 71,
      "chip": "ym2612"
    },
    {
      "channel": 5,
      "note": 45,
      "start": 14.5286,
      "duration": 0.0977,
      "velocity": 101,
      "chip": "ym2612"
    },
    {
      "channel": 2,
      "note": 85,
      "start": 14.6461,
      "duration": 0.0992,
      "velocity": 71,
      "chip": "ym2612"
    },
    {
      "channel": 4,
      "note": 54,
      "start": 14.6463,
      "duration": 0.0992,
      "velocity": 80,
      "chip": "ym2612"
    },
    {
      "channel": 5,
      "note": 68,
      "start": 14.6479,
      "duration": 0.0977,
      "velocity": 127,
      "chip": "ym2612"
    },
    {
      "channel": 1,
      "note": 82,
      "start": 14.7653,
      "duration": 0.4171,
      "velocity": 58,
      "chip": "ym2612"
    },
    {
      "channel": 2,
      "note": 83,
      "start": 14.7655,
      "duration": 0.099,
      "velocity": 71,
      "chip": "ym2612"
    },
    {
      "channel": 3,
      "note": 78,
      "start": 14.7656,
      "duration": 0.4169,
      "velocity": 58,
      "chip": "ym2612"
    },
    {
      "channel": 4,
      "note": 66,
      "start": 14.7658,
      "duration": 0.218,
      "velocity": 80,
      "chip": "ym2612"
    },
    {
      "channel": 5,
      "note": 56,
      "start": 14.7674,
      "duration": 0.0973,
      "velocity": 127,
      "chip": "ym2612"
    },
    {
      "channel": 2,
      "note": 85,
      "start": 14.8845,
      "duration": 0.0993,
      "velocity": 71,
      "chip": "ym2612"
    },
    {
      "channel": 5,
      "note": 45,
      "start": 14.8861,
      "duration": 0.0978,
      "velocity": 101,
      "chip": "ym2612"
    },
    {
      "channel": 4,
      "note": 56,
      "start": 15.0036,
      "duration": 0.2185,
      "velocity": 80,
      "chip": "ym2612"
    },
    {
      "channel": 5,
      "note": 56,
      "start": 15.0053,
      "duration": 0.0976,
      "velocity": 127,
      "chip": "ym2612"
    },
    {
      "channel": 5,
      "note": 45,
      "start": 15.1247,
      "duration": 0.0975,
      "velocity": 101,
      "chip": "ym2612"
    },
    {
      "channel": 1,
      "note": 85,
      "start": 15.242,
      "duration": 0.417,
      "velocity": 58,
      "chip": "ym2612"
    },
    {
      "channel": 2,
      "note": 83,
      "start": 15.2422,
      "duration": 0.0991,
      "velocity": 71,
      "chip": "ym2612"
    },
    {
      "channel": 3,
      "note": 81,
      "start": 15.2424,
      "duration": 0.4167,
      "velocity": 58,
      "chip": "ym2612"
    },
    {
      "channel": 4,
      "note": 57,
      "start": 15.2426,
      "duration": 0.218,
      "velocity": 80,
      "chip": "ym2612"
    },
    {
      "channel": 5,
      "note": 45,
      "start": 15.2427,
      "duration": 0.0988,
      "velocity": 101,
      "chip": "ym2612"
    },
    {
      "channel": 2,
      "note": 85,
      "start": 15.3612,
      "duration": 0.0992,
      "velocity": 71,
      "chip": "ym2612"
    },
    {
      "channel": 5,
      "note": 68,
      "start": 15.3629,
      "duration": 0.0978,
      "velocity": 127,
      "chip": "ym2612"
    },
    {
      "channel": 2,
      "note": 83,
      "start": 15.4803,
      "duration": 0.0993,
      "velocity": 71,
      "chip": "ym2612"
    },
    {
      "channel": 4,
      "note": 69,
      "start": 15.4805,
      "duration": 0.2184,
      "velocity": 80,
      "chip": "ym2612"
    },
    {
      "channel": 5,
      "note": 56,
      "start": 15.4822,
      "duration": 0.0976,
      "velocity": 127,
      "chip": "ym2612"
    },
    {
      "channel": 2,
      "note": 85,
      "start": 15.5995,
      "duration": 0.0993,
      "velocity": 71,
      "chip": "ym2612"
    },
    {
      "channel": 5,
      "note": 45,
      "start": 15.6012,
      "duration": 0.0978,
      "velocity": 101,
      "chip": "ym2612"
    },
    {
      "channel": 1,
      "note": 87,
      "start": 15.7187,
      "duration": 0.4171,
      "velocity": 58,
      "chip": "ym2612"
    },
    {
      "channel": 2,
      "note": 83,
      "start": 15.7189,
      "duration": 0.099,
      "velocity": 71,
      "chip": "ym2612"
    },
    {
      "channel": 3,
      "note": 83,
      "start": 15.719,
      "duration": 0.4169,
      "velocity": 58,
      "chip": "ym2612"
    },
    {
      "channel": 4,
      "note": 59,
      "start": 15.7192,
      "duration": 0.218,
      "velocity": 80,
      "chip": "ym2612"
    },
    {
      "channel": 5,
      "note": 45,
      "start": 15.7193,
      "duration": 0.0987,
      "velocity": 101,
      "chip": "ym2612"
    },
    {
      "channel": 2,
      "note": 85,
      "start": 15.8379,
      "duration": 0.0992,
      "velocity": 71,
      "chip": "ym2612"
    },
    {
      "channel": 5,
      "note": 68,
      "start": 15.8396,
      "duration": 0.0978,
      "velocity": 127,
      "chip": "ym2612"
    },
    {
      "channel": 2,
      "note": 88,
      "start": 15.9571,
      "duration": 0.0993,
      "velocity": 71,
      "chip": "ym2612"
    },
    {
      "channel": 4,
      "note": 71,
      "start": 15.9573,
      "duration": 0.2184,
      "velocity": 80,
      "chip": "ym2612"
    },
    {
      "channel": 5,
      "note": 56,
      "start": 15.9593,
      "duration": 0.0972,
      "velocity": 127,
      "chip": "ym2612"
    },
    {
      "channel": 2,
      "note": 90,
      "start": 16.0763,
      "duration": 0.0993,
      "velocity": 71,
      "chip": "ym2612"
    },
    {
      "channel": 5,
      "note": 45,
      "start": 16.0779,
      "duration": 0.0978,
      "velocity": 101,
      "chip": "ym2612"
    },
    {
      "channel": 4,
      "note": 51,
      "start": 16.1955,
      "duration": 0.3177,
      "velocity": 80,
      "chip": "ym2612"
    },
    {
      "channel": 5,
      "note": 56,
      "start": 16.1971,
      "duration": 0.0976,
      "velocity": 127,
      "chip": "ym2612"
    },
    {
      "channel": 5,
      "note": 56,
      "start": 16.3146,
      "duration": 0.0993,
      "velocity": 127,
      "chip": "ym2612"
    },
    {
      "channel": 2,
      "note": 85,
      "start": 16.4338,
      "duration": 0.0992,
      "velocity": 71,
      "chip": "ym2612"
    },
    {
      "channel": 5,
      "note": 45,
      "start": 16.4354,
      "duration": 0.0977,
      "velocity": 101,
      "chip": "ym2612"
    },
    {
      "channel": 2,
      "note": 87,
      "start": 16.553,
      "duration": 0.0992,
      "velocity": 71,
      "chip": "ym2612"
    },
    {
      "channel": 4,
      "note": 51,
      "start": 16.5531,
      "duration": 0.0993,
      "velocity": 80,
      "chip": "ym2612"
    },
    {
      "channel": 5,
      "note": 68,
      "start": 16.5548,
      "duration": 0.0977,
      "velocity": 127,
      "chip": "ym2612"
    },
    {
      "channel": 1,
      "note": 87,
      "start": 16.6721,
      "duration": 0.4171,
      "velocity": 58,
      "chip": "ym2612"
    },
    {
      "channel": 2,
      "note": 85,
      "start": 16.6723,
      "duration": 0.0991,
      "velocity": 71,
      "chip": "ym2612"
    },
    {
      "channel": 3,
      "note": 82,
      "start": 16.6724,
      "duration": 0.4169,
      "velocity": 58,
      "chip": "ym2612"
    },
    {
      "channel": 4,
      "note": 63,
      "start": 16.6727,
      "duration": 0.2184,
      "velocity": 80,
      "chip": "ym2612"
    },
    {
      "channel": 5,
      "note": 56,
      "start": 16.6747,
      "duration": 0.0968,
      "velocity": 127,
      "chip": "ym2612"
    },
    {
      "channel": 2,
      "note": 87,
      "start": 16.7915,
      "duration": 0.099,
      "velocity": 71,
      "chip": "ym2612"
    },
    {
      "channel": 5,
      "note": 45,
      "start": 16.7931,
      "duration": 0.0981,
      "velocity": 101,
      "chip": "ym2612"
    },
    {
      "channel": 4,
      "note": 53,
      "start": 16.9105,
      "duration": 0.2184,
      "velocity": 80,
      "chip": "ym2612"
    },
    {
      "channel": 5,
      "note": 56,
      "start": 16.9122,
      "duration": 0.0976,
      "velocity": 127,
      "chip": "ym2612"
    },
    {
      "channel": 5,
      "note": 45,
      "start": 17.0312,
      "duration": 0.0979,
      "velocity": 101,
      "chip": "ym2612"
    },
    {
      "channel": 1,
      "note": 85,
      "start": 17.1488,
      "duration": 0.4171,
      "velocity": 58,
      "chip": "ym2612"
    },
    {
      "channel": 2,
      "note": 85,
      "start": 17.149,
      "duration": 0.099,
      "velocity": 71,
      "chip": "ym2612"
    },
    {
      "channel": 3,
      "note": 80,
      "start": 17.1492,
      "duration": 0.4168,
      "velocity": 58,
      "chip": "ym2612"
    },
    {
      "channel": 4,
      "note": 54,
      "start": 17.1494,
      "duration": 0.4167,
      "velocity": 80,
      "chip": "ym2612"
    },
    {
      "channel": 5,
      "note": 56,
      "start": 17.1511,
      "duration": 0.0971,
      "velocity": 127,
      "chip": "ym2612"
    },
    {
      "channel": 2,
      "note": 87,
      "start": 17.2681,
      "duration": 0.0992,
      "velocity": 71,
      "chip": "ym2612"
    },
    {
      "channel": 5,
      "note": 56,
      "start": 17.2682,
      "duration": 0.0993,
      "velocity": 127,
      "chip": "ym2612"
    },
    {
      "channel": 2,
      "note": 85,
      "start": 17.3872,
      "duration": 0.0992,
      "velocity": 71,
      "chip": "ym2612"
    },
    {
      "channel": 5,
      "note": 56,
      "start": 17.3874,
      "duration": 0.0993,
      "velocity": 127,
      "chip": "ym2612"
    },
    {
      "channel": 2,
      "note": 87,
      "start": 17.5063,
      "duration": 0.0993,
      "velocity": 71,
      "chip": "ym2612"
    },
    {
      "channel": 5,
      "note": 68,
      "start": 17.5085,
      "duration": 0.0973,
      "velocity": 127,
      "chip": "ym2612"
    },
    {
      "channel": 1,
      "note": 85,
      "start": 17.6255,
      "duration": 0.3178,
      "velocity": 58,
      "chip": "ym2612"
    },
    {
      "channel": 2,
      "note": 85,
      "start": 17.6257,
      "duration": 0.0991,
      "velocity": 71,
      "chip": "ym2612"
    },
    {
      "channel": 3,
      "note": 80,
      "start": 17.6258,
      "duration": 0.3176,
      "velocity": 58,
      "chip": "ym2612"
    },
    {
      "channel": 4,
      "note": 54,
      "start": 17.6259,
      "duration": 0.3176,
      "velocity": 80,
      "chip": "ym2612"
    },
    {
      "channel": 5,
      "note": 56,
      "start": 17.6276,
      "duration": 0.0973,
      "velocity": 127,
      "chip": "ym2612"
    },
    {
      "channel": 2,
      "note": 87,
      "start": 17.7448,
      "duration": 0.0992,
      "velocity": 71,
      "chip": "ym2612"
    },
    {
      "channel": 5,
      "note": 56,
      "start": 17.7449,
      "duration": 0.0993,
      "velocity": 127,
      "chip": "ym2612"
    },
    {
      "channel": 2,
      "note": 90,
      "start": 17.8639,
      "duration": 0.0993,
      "velocity": 71,
      "chip": "ym2612"
    },
    {
      "channel": 5,
      "note": 45,
      "start": 17.8656,
      "duration": 0.0978,
      "velocity": 101,
      "chip": "ym2612"
    },
    {
      "channel": 1,
      "note": 84,
      "start": 17.9831,
      "duration": 0.0993,
      "velocity": 58,
      "chip": "ym2612"
    },
    {
      "channel": 2,
      "note": 92,
      "start": 17.9833,
      "duration": 0.0992,
      "velocity": 71,
      "chip": "ym2612"
    },
    {
      "channel": 3,
      "note": 80,
      "start": 17.9834,
      "duration": 0.0992,
      "velocity": 58,
      "chip": "ym2612"
    },
    {
      "channel": 4,
      "note": 56,
      "start": 17.9836,
      "duration": 0.0992,
      "velocity": 80,
      "chip": "ym2612"
    },
    {
      "channel": 5,
      "note": 56,
      "start": 17.9852,
      "duration": 0.0976,
      "velocity": 127,
      "chip": "ym2612"
    },
    {
      "channel": 5,
      "note": 56,
      "start": 18.1022,
      "duration": 0.0993,
      "velocity": 127,
      "chip": "ym2612"
    },
    {
      "channel": 5,
      "note": 56,
      "start": 18.2214,
      "duration": 0.0993,
      "velocity": 127,
      "chip": "ym2612"
    },
    {
      "channel": 2,
      "note": 85,
      "start": 18.3407,
      "duration": 0.0991,
      "velocity": 71,
      "chip": "ym2612"
    },
    {
      "channel": 5,
      "note": 45,
      "start": 18.3427,
      "duration": 0.0973,
      "velocity": 101,
      "chip": "ym2612"
    },
    {
      "channel": 2,
      "note": 87,
      "start": 18.4599,
      "duration": 0.0992,
      "velocity": 71,
      "chip": "ym2612"
    },
    {
      "channel": 4,
      "note": 56,
      "start": 18.46,
      "duration": 0.0992,
      "velocity": 80,
      "chip": "ym2612"
    },
    {
      "channel": 5,
      "note": 68,
      "start": 18.4616,
      "duration": 0.0976,
      "velocity": 127,
      "chip": "ym2612"
    },
    {
      "channel": 1,
      "note": 84,
      "start": 18.5789,
      "duration": 0.4171,
      "velocity": 58,
      "chip": "ym2612"
    },
    {
      "channel": 2,
      "note": 85,
      "start": 18.5791,
      "duration": 0.0991,
      "velocity": 71,
      "chip": "ym2612"
    },
    {
      "channel": 3,
      "note": 80,
      "start": 18.5793,
      "duration": 0.4169,
      "velocity": 58,
      "chip": "ym2612"
    },
    {
      "channel": 4,
      "note": 68,
      "start": 18.5795,
      "duration": 0.2181,
      "velocity": 80,
      "chip": "ym2612"
    },
    {
      "channel": 5,
      "note": 56,
      "start": 18.5811,
      "duration": 0.0973,
      "velocity": 127,
      "chip": "ym2612"
    },
    {
      "channel": 2,
      "note": 87,
      "start": 18.6982,
      "duration": 0.0993,
      "velocity": 71,
      "chip": "ym2612"
    },
    {
      "channel": 5,
      "note": 45,
      "start": 18.6999,
      "duration": 0.0978,
      "velocity": 101,
      "chip": "ym2612"
    },
    {
      "channel": 4,
      "note": 58,
      "start": 18.8174,
      "duration": 0.2183,
      "velocity": 80,
      "chip": "ym2612"
    },
    {
      "channel": 5,
      "note": 56,
      "start": 18.819,
      "duration": 0.0976,
      "velocity": 127,
      "chip": "ym2612"
    },
    {
      "channel": 5,
      "note": 45,
      "start": 18.938,
      "duration": 0.0978,
      "velocity": 101,
      "chip": "ym2612"
    },
    {
      "channel": 1,
      "note": 83,
      "start": 19.0557,
      "duration": 0.4171,
      "velocity": 58,
      "chip": "ym2612"
    },
    {
      "channel": 2,
      "note": 85,
      "start": 19.0559,
      "duration": 0.099,
      "velocity": 71,
      "chip": "ym2612"
    },
    {
      "channel": 3,
      "note": 78,
      "start": 19.056,
      "duration": 0.4169,
      "velocity": 58,
      "chip": "ym2612"
    },
    {
      "channel": 4,
      "note": 59,
      "start": 19.0562,
      "duration": 0.2186,
      "velocity": 80,
      "chip": "ym2612"
    },
    {
      "channel": 5,
      "note": 45,
      "start": 19.0563,
      "duration": 0.0987,
      "velocity": 101,
      "chip": "ym2612"
    },
    {
      "channel": 2,
      "note": 87,
      "start": 19.1749,
      "duration": 0.0998,
      "velocity": 71,
      "chip": "ym2612"
    },
    {
      "channel": 5,
      "note": 68,
      "start": 19.1765,
      "duration": 0.0984,
      "velocity": 127,
      "chip": "ym2612"
    },
    {
      "channel": 2,
      "note": 85,
      "start": 19.294,
      "duration": 0.0993,
      "velocity": 71,
      "chip": "ym2612"
    },
    {
      "channel": 4,
      "note": 71,
      "start": 19.2942,
      "duration": 0.2184,
      "velocity": 80,
      "chip": "ym2612"
    },
    {
      "channel": 5,
      "note": 56,
      "start": 19.2959,
      "duration": 0.0976,
      "velocity": 127,
      "chip": "ym2612"
    },
    {
      "channel": 2,
      "note": 87,
      "start": 19.4132,
      "duration": 0.0993,
      "velocity": 71,
      "chip": "ym2612"
    },
    {
      "channel": 5,
      "note": 45,
      "start": 19.4149,
      "duration": 0.0978,
      "velocity": 101,
      "chip": "ym2612"
    },
    {
      "channel": 1,
      "note": 80,
      "start": 19.5324,
      "duration": 0.417,
      "velocity": 58,
      "chip": "ym2612"
    },
    {
      "channel": 2,
      "note": 85,
      "start": 19.5326,
      "duration": 0.099,
      "velocity": 71,
      "chip": "ym2612"
    },
    {
      "channel": 3,
      "note": 77,
      "start": 19.5328,
      "duration": 0.4168,
      "velocity": 58,
      "chip": "ym2612"
    },
    {
      "channel": 4,
      "note": 61,
      "start": 19.533,
      "duration": 0.218,
      "velocity": 80,
      "chip": "ym2612"
    },
    {
      "channel": 5,
      "note": 45,
      "start": 19.5331,
      "duration": 0.0987,
      "velocity": 101,
      "chip": "ym2612"
    },
    {
      "channel": 2,
      "note": 87,
      "start": 19.6516,
      "duration": 0.0993,
      "velocity": 71,
      "chip": "ym2612"
    },
    {
      "channel": 5,
      "note": 68,
      "start": 19.6532,
      "duration": 0.0979,
      "velocity": 127,
      "chip": "ym2612"
    },
    {
      "channel": 2,
      "note": 90,
      "start": 19.7708,
      "duration": 0.0992,
      "velocity": 71,
      "chip": "ym2612"
    },
    {
      "channel": 4,
      "note": 73,
      "start": 19.771,
      "duration": 0.2183,
      "velocity": 80,
      "chip": "ym2612"
    },
    {
      "channel": 5,
      "note": 56,
      "start": 19.7726,
      "duration": 0.0976,
      "velocity": 127,
      "chip": "ym2612"
    },
    {
      "channel": 2,
      "note": 92,
      "start": 19.89,
      "duration": 0.0992,
      "velocity": 71,
      "chip": "ym2612"
    },
    {
      "channel": 5,
      "note": 45,
      "start": 19.892,
      "duration": 0.0975,
      "velocity": 101,
      "chip": "ym2612"
    },
    {
      "channel": 4,
      "note": 51,
      "start": 20.0091,
      "duration": 0.3178,
      "velocity": 80,
      "chip": "ym2612"
    },
    {
      "channel": 5,
      "note": 56,
      "start": 20.0107,
      "duration": 0.0976,
      "velocity": 127,
      "chip": "ym2612"
    },
    {
      "channel": 5,
      "note": 56,
      "start": 20.1282,
      "duration": 0.0994,
      "velocity": 127,
      "chip": "ym2612"
    },
    {
      "channel": 2,
      "note": 85,
      "start": 20.2475,
      "duration": 0.0992,
      "velocity": 71,
      "chip": "ym2612"
    },
    {
      "channel": 5,
      "note": 45,
      "start": 20.2492,
      "duration": 0.0977,
      "velocity": 101,
      "chip": "ym2612"
    },
    {
      "channel": 2,
      "note": 87,
      "start": 20.3667,
      "duration": 0.0992,
      "velocity": 71,
      "chip": "ym2612"
    },
    {
      "channel": 4,
      "note": 51,
      "start": 20.3668,
      "duration": 0.0993,
      "velocity": 80,
      "chip": "ym2612"
    },
    {
      "channel": 5,
      "note": 68,
      "start": 20.3684,
      "duration": 0.0977,
      "velocity": 127,
      "chip": "ym2612"
    },
    {
      "channel": 1,
      "note": 87,
      "start": 20.4858,
      "duration": 0.4171,
      "velocity": 58,
      "chip": "ym2612"
    },
    {
      "channel": 2,
      "note": 85,
      "start": 20.486,
      "duration": 0.099,
      "velocity": 71,
      "chip": "ym2612"
    },
    {
      "channel": 3,
      "note": 82,
      "start": 20.4863,
      "duration": 0.4167,
      "velocity": 58,
      "chip": "ym2612"
    },
    {
      "channel": 4,
      "note": 63,
      "start": 20.4864,
      "duration": 0.2179,
      "velocity": 80,
      "chip": "ym2612"
    },
    {
      "channel": 5,
      "note": 56,
      "start": 20.488,
      "duration": 0.0972,
      "velocity": 127,
      "chip": "ym2612"
    },
    {
      "channel": 2,
      "note": 87,
      "start": 20.605,
      "duration": 0.0992,
      "velocity": 71,
      "chip": "ym2612"
    },
    {
      "channel": 5,
      "note": 45,
      "start": 20.6067,
      "duration": 0.0978,
      "velocity": 101,
      "chip": "ym2612"
    },
    {
      "channel": 4,
      "note": 53,
      "start": 20.7248,
      "duration": 0.2179,
      "velocity": 80,
      "chip": "ym2612"
    },
    {
      "channel": 5,
      "note": 56,
      "start": 20.7265,
      "duration": 0.097,
      "velocity": 127,
      "chip": "ym2612"
    },
    {
      "channel": 5,
      "note": 45,
      "start": 20.8449,
      "duration": 0.098,
      "velocity": 101,
      "chip": "ym2612"
    },
    {
      "channel": 1,
      "note": 85,
      "start": 20.9626,
      "duration": 0.417,
      "velocity": 58,
      "chip": "ym2612"
    },
    {
      "channel": 2,
      "note": 85,
      "start": 20.9628,
      "duration": 0.099,
      "velocity": 71,
      "chip": "ym2612"
    },
    {
      "channel": 3,
      "note": 80,
      "start": 20.963,
      "duration": 0.4167,
      "velocity": 58,
      "chip": "ym2612"
    },
    {
      "channel": 4,
      "note": 54,
      "start": 20.9632,
      "duration": 0.4167,
      "velocity": 80,
      "chip": "ym2612"
    },
    {
      "channel": 5,
      "note": 56,
      "start": 20.9648,
      "duration": 0.0972,
      "velocity": 127,
      "chip": "ym2612"
    },
    {
      "channel": 2,
      "note": 87,
      "start": 21.0817,
      "duration": 0.0993,
      "velocity": 71,
      "chip": "ym2612"
    },
    {
      "channel": 5,
      "note": 56,
      "start": 21.0819,
      "duration": 0.0993,
      "velocity": 127,
      "chip": "ym2612"
    },
    {
      "channel": 2,
      "note": 85,
      "start": 21.2009,
      "duration": 0.0992,
      "velocity": 71,
      "chip": "ym2612"
    },
    {
      "channel": 5,
      "note": 56,
      "start": 21.201,
      "duration": 0.0992,
      "velocity": 127,
      "chip": "ym2612"
    },
    {
      "channel": 2,
      "note": 87,
      "start": 21.32,
      "duration": 0.0993,
      "velocity": 71,
      "chip": "ym2612"
    },
    {
      "channel": 5,
      "note": 68,
      "start": 21.3217,
      "duration": 0.0978,
      "velocity": 127,
      "chip": "ym2612"
    },
    {
      "channel": 1,
      "note": 85,
      "start": 21.4392,
      "duration": 0.3178,
      "velocity": 58,
      "chip": "ym2612"
    },
    {
      "channel": 2,
      "note": 85,
      "start": 21.4394,
      "duration": 0.0992,
      "velocity": 71,
      "chip": "ym2612"
    },
    {
      "channel": 3,
      "note": 80,
      "start": 21.4395,
      "duration": 0.3176,
      "velocity": 58,
      "chip": "ym2612"
    },
    {
      "channel": 4,
      "note": 54,
      "start": 21.4396,
      "duration": 0.3176,
      "velocity": 80,
      "chip": "ym2612"
    },
    {
      "channel": 5,
      "note": 56,
      "start": 21.4417,
      "duration": 0.097,
      "velocity": 127,
      "chip": "ym2612"
    },
    {
      "channel": 2,
      "note": 87,
      "start": 21.5585,
      "duration": 0.0995,
      "velocity": 71,
      "chip": "ym2612"
    },
    {
      "channel": 5,
      "note": 56,
      "start": 21.5586,
      "duration": 0.0996,
      "velocity": 127,
      "chip": "ym2612"
    },
    {
      "channel": 2,
      "note": 90,
      "start": 21.6776,
      "duration": 0.0993,
      "velocity": 71,
      "chip": "ym2612"
    },
    {
      "channel": 5,
      "note": 45,
      "start": 21.6793,
      "duration": 0.0977,
      "velocity": 101,
      "chip": "ym2612"
    },
    {
      "channel": 1,
      "note": 84,
      "start": 21.7968,
      "duration": 0.0992,
      "velocity": 58,
      "chip": "ym2612"
    },
    {
      "channel": 2,
      "note": 92,
      "start": 21.797,
      "duration": 0.0992,
      "velocity": 71,
      "chip": "ym2612"
    },
    {
      "channel": 3,
      "note": 80,
      "start": 21.7971,
      "duration": 0.0992,
      "velocity": 58,
      "chip": "ym2612"
    },
    {
      "channel": 4,
      "note": 56,
      "start": 21.7973,
      "duration": 0.0991,
      "velocity": 80,
      "chip": "ym2612"
    },
    {
      "channel": 5,
      "note": 56,
      "start": 21.7989,
      "duration": 0.0976,
      "velocity": 127,
      "chip": "ym2612"
    },
    {
      "channel": 5,
      "note": 56,
      "start": 21.9159,
      "duration": 0.0994,
      "velocity": 127,
      "chip": "ym2612"
    },
    {
      "channel": 5,
      "note": 56,
      "start": 22.0351,
      "duration": 0.0994,
      "velocity": 127,
      "chip": "ym2612"
    },
    {
      "channel": 2,
      "note": 85,
      "start": 22.1544,
      "duration": 0.0992,
      "velocity": 71,
      "chip": "ym2612"
    },
    {
      "channel": 5,
      "note": 45,
      "start": 22.156,
      "duration": 0.0977,
      "velocity": 101,
      "chip": "ym2612"
    },
    {
      "channel": 2,
      "note": 87,
      "start": 22.2735,
      "duration": 0.0992,
      "velocity": 71,
      "chip": "ym2612"
    },
    {
      "channel": 4,
      "note": 56,
      "start": 22.2737,
      "duration": 0.0993,
      "velocity": 80,
      "chip": "ym2612"
    },
    {
      "channel": 5,
      "note": 68,
      "start": 22.2757,
      "duration": 0.0973,
      "velocity": 127,
      "chip": "ym2612"
    },
    {
      "channel": 1,
      "note": 84,
      "start": 22.3926,
      "duration": 0.4171,
      "velocity": 58,
      "chip": "ym2612"
    },
    {
      "channel": 2,
      "note": 85,
      "start": 22.3928,
      "duration": 0.0991,
      "velocity": 71,
      "chip": "ym2612"
    },
    {
      "channel": 3,
      "note": 80,
      "start": 22.3929,
      "duration": 0.4169,
      "velocity": 58,
      "chip": "ym2612"
    },
    {
      "channel": 4,
      "note": 68,
      "start": 22.3931,
      "duration": 0.2181,
      "velocity": 80,
      "chip": "ym2612"
    },
    {
      "channel": 5,
      "note": 56,
      "start": 22.3948,
      "duration": 0.0973,
      "velocity": 127,
      "chip": "ym2612"
    },
    {
      "channel": 2,
      "note": 87,
      "start": 22.5119,
      "duration": 0.0993,
      "velocity": 71,
      "chip": "ym2612"
    },
    {
      "channel": 5,
      "note": 45,
      "start": 22.5135,
      "duration": 0.0978,
      "velocity": 101,
      "chip": "ym2612"
    },
    {
      "channel": 4,
      "note": 58,
      "start": 22.631,
      "duration": 0.2184,
      "velocity": 80,
      "chip": "ym2612"
    },
    {
      "channel": 5,
      "note": 56,
      "start": 22.6327,
      "duration": 0.0976,
      "velocity": 127,
      "chip": "ym2612"
    },
    {
      "channel": 5,
      "note": 45,
      "start": 22.7517,
      "duration": 0.0979,
      "velocity": 101,
      "chip": "ym2612"
    },
    {
      "channel": 1,
      "note": 87,
      "start": 22.8694,
      "duration": 0.417,
      "velocity": 58,
      "chip": "ym2612"
    },
    {
      "channel": 2,
      "note": 85,
      "start": 22.8696,
      "duration": 0.099,
      "velocity": 71,
      "chip": "ym2612"
    },
    {
      "channel": 3,
      "note": 83,
      "start": 22.8698,
      "duration": 0.4168,
      "velocity": 58,
      "chip": "ym2612"
    },
    {
      "channel": 4,
      "note": 59,
      "start": 22.87,
      "duration": 0.218,
      "velocity": 80,
      "chip": "ym2612"
    },
    {
      "channel": 5,
      "note": 45,
      "start": 22.8701,
      "duration": 0.0987,
      "velocity": 101,
      "chip": "ym2612"
    },
    {
      "channel": 2,
      "note": 87,
      "start": 22.9886,
      "duration": 0.0992,
      "velocity": 71,
      "chip": "ym2612"
    },
    {
      "channel": 5,
      "note": 68,
      "start": 22.9903,
      "duration": 0.0978,
      "velocity": 127,
      "chip": "ym2612"
    },
    {
      "channel": 2,
      "note": 85,
      "start": 23.1081,
      "duration": 0.0989,
      "velocity": 71,
      "chip": "ym2612"
    },
    {
      "channel": 4,
      "note": 71,
      "start": 23.1083,
      "duration": 0.218,
      "velocity": 80,
      "chip": "ym2612"
    },
    {
      "channel": 5,
      "note": 56,
      "start": 23.1099,
      "duration": 0.0972,
      "velocity": 127,
      "chip": "ym2612"
    },
    {
      "channel": 2,
      "note": 87,
      "start": 23.2269,
      "duration": 0.0993,
      "velocity": 71,
      "chip": "ym2612"
    },
    {
      "channel": 5,
      "note": 45,
      "start": 23.2286,
      "duration": 0.0978,
      "velocity": 101,
      "chip": "ym2612"
    },
    {
      "channel": 1,
      "note": 89,
      "start": 23.3461,
      "duration": 0.4171,
      "velocity": 58,
      "chip": "ym2612"
    },
    {
      "channel": 2,
      "note": 85,
      "start": 23.3463,
      "duration": 0.099,
      "velocity": 71,
      "chip": "ym2612"
    },
    {
      "channel": 3,
      "note": 85,
      "start": 23.3465,
      "duration": 0.4168,
      "velocity": 58,
      "chip": "ym2612"
    },
    {
      "channel": 4,
      "note": 61,
      "start": 23.3467,
      "duration": 0.218,
      "velocity": 80,
      "chip": "ym2612"
    },
    {
      "channel": 5,
      "note": 45,
      "start": 23.3468,
      "duration": 0.0987,
      "velocity": 101,
      "chip": "ym2612"
    },
    {
      "channel": 2,
      "note": 87,
      "start": 23.4653,
      "duration": 0.0993,
      "velocity": 71,
      "chip": "ym2612"
    },
    {
      "channel": 5,
      "note": 68,
      "start": 23.467,
      "duration": 0.0978,
      "velocity": 127,
      "chip": "ym2612"
    },
    {
      "channel": 2,
      "note": 90,
      "start": 23.5845,
      "duration": 0.0993,
      "velocity": 71,
      "chip": "ym2612"
    },
    {
      "channel": 4,
      "note": 73,
      "start": 23.5847,
      "duration": 0.2184,
      "velocity": 80,
      "chip": "ym2612"
    },
    {
      "channel": 5,
      "note": 56,
      "start": 23.5863,
      "duration": 0.0976,
      "velocity": 127,
      "chip": "ym2612"
    },
    {
      "channel": 2,
      "note": 92,
      "start": 23.7036,
      "duration": 0.0993,
      "velocity": 71,
      "chip": "ym2612"
    },
    {
      "channel": 5,
      "note": 45,
      "start": 23.7053,
      "duration": 0.0979,
      "velocity": 101,
      "chip": "ym2612"
    },
    {
      "channel": 4,
      "note": 51,
      "start": 23.8229,
      "duration": 0.3177,
      "velocity": 80,
      "chip": "ym2612"
    },
    {
      "channel": 5,
      "note": 56,
      "start": 23.8249,
      "duration": 0.0971,
      "velocity": 127,
      "chip": "ym2612"
    },
    {
      "channel": 5,
      "note": 56,
      "start": 23.9419,
      "duration": 0.0995,
      "velocity": 127,
      "chip": "ym2612"
    },
    {
      "channel": 2,
      "note": 85,
      "start": 24.0612,
      "duration": 0.0992,
      "velocity": 71,
      "chip": "ym2612"
    },
    {
      "channel": 5,
      "note": 45,
      "start": 24.0629,
      "duration": 0.0977,
      "velocity": 101,
      "chip": "ym2612"
    },
    {
      "channel": 2,
      "note": 87,
      "start": 24.1803,
      "duration": 0.0992,
      "velocity": 71,
      "chip": "ym2612"
    },
    {
      "channel": 4,
      "note": 51,
      "start": 24.1805,
      "duration": 0.0992,
      "velocity": 80,
      "chip": "ym2612"
    },
    {
      "channel": 5,
      "note": 68,
      "start": 24.1821,
      "duration": 0.0977,
      "velocity": 127,
      "chip": "ym2612"
    },
    {
      "channel": 1,
      "note": 87,
      "start": 24.2995,
      "duration": 0.4171,
      "velocity": 58,
      "chip": "ym2612"
    },
    {
      "channel": 2,
      "note": 85,
      "start": 24.2997,
      "duration": 0.099,
      "velocity": 71,
      "chip": "ym2612"
    },
    {
      "channel": 3,
      "note": 82,
      "start": 24.2999,
      "duration": 0.4167,
      "velocity": 58,
      "chip": "ym2612"
    },
    {
      "channel": 4,
      "note": 63,
      "start": 24.3001,
      "duration": 0.218,
      "velocity": 80,
      "chip": "ym2612"
    },
    {
      "channel": 5,
      "note": 56,
      "start": 24.3017,
      "duration": 0.0972,
      "velocity": 127,
      "chip": "ym2612"
    },
    {
      "channel": 2,
      "note": 87,
      "start": 24.4187,
      "duration": 0.0992,
      "velocity": 71,
      "chip": "ym2612"
    },
    {
      "channel": 5,
      "note": 45,
      "start": 24.4204,
      "duration": 0.0978,
      "velocity": 101,
      "chip": "ym2612"
    },
    {
      "channel": 4,
      "note": 53,
      "start": 24.5379,
      "duration": 0.2184,
      "velocity": 80,
      "chip": "ym2612"
    },
    {
      "channel": 5,
      "note": 56,
      "start": 24.5396,
      "duration": 0.0976,
      "velocity": 127,
      "chip": "ym2612"
    },
    {
      "channel": 5,
      "note": 45,
      "start": 24.659,
      "duration": 0.0975,
      "velocity": 101,
      "chip": "ym2612"
    },
    {
      "channel": 1,
      "note": 85,
      "start": 24.7763,
      "duration": 0.4171,
      "velocity": 58,
      "chip": "ym2612"
    },
    {
      "channel": 2,
      "note": 85,
      "start": 24.7765,
      "duration": 0.099,
      "velocity": 71,
      "chip": "ym2612"
    },
    {
      "channel": 3,
      "note": 80,
      "start": 24.7766,
      "duration": 0.4168,
      "velocity": 58,
      "chip": "ym2612"
    },
    {
      "channel": 4,
      "note": 54,
      "start": 24.7768,
      "duration": 0.4167,
      "velocity": 80,
      "chip": "ym2612"
    },
    {
      "channel": 5,
      "note": 56,
      "start": 24.7785,
      "duration": 0.0971,
      "velocity": 127,
      "chip": "ym2612"
    },
    {
      "channel": 2,
      "note": 87,
      "start": 24.8954,
      "duration": 0.0993,
      "velocity": 71,
      "chip": "ym2612"
    },
    {
      "channel": 5,
      "note": 56,
      "start": 24.8956,
      "duration": 0.0993,
      "velocity": 127,
      "chip": "ym2612"
    },
    {
      "channel": 2,
      "note": 85,
      "start": 25.0146,
      "duration": 0.0992,
      "velocity": 71,
      "chip": "ym2612"
    },
    {
      "channel": 5,
      "note": 56,
      "start": 25.0148,
      "duration": 0.0992,
      "velocity": 127,
      "chip": "ym2612"
    },
    {
      "channel": 2,
      "note": 87,
      "start": 25.1338,
      "duration": 0.0992,
      "velocity": 71,
      "chip": "ym2612"
    },
    {
      "channel": 5,
      "note": 68,
      "start": 25.1354,
      "duration": 0.0978,
      "velocity": 127,
      "chip": "ym2612"
    },
    {
      "channel": 1,
      "note": 85,
      "start": 25.2529,
      "duration": 0.3178,
      "velocity": 58,
      "chip": "ym2612"
    },
    {
      "channel": 2,
      "note": 85,
      "start": 25.2531,
      "duration": 0.0992,
      "velocity": 71,
      "chip": "ym2612"
    },
    {
      "channel": 3,
      "note": 80,
      "start": 25.2532,
      "duration": 0.3177,
      "velocity": 58,
      "chip": "ym2612"
    },
    {
      "channel": 4,
      "note": 54,
      "start": 25.2533,
      "duration": 0.3177,
      "velocity": 80,
      "chip": "ym2612"
    },
    {
      "channel": 5,
      "note": 56,
      "start": 25.255,
      "duration": 0.0974,
      "velocity": 127,
      "chip": "ym2612"
    },
    {
      "channel": 2,
      "note": 87,
      "start": 25.3721,
      "duration": 0.0992,
      "velocity": 71,
      "chip": "ym2612"
    },
    {
      "channel": 5,
      "note": 56,
      "start": 25.3723,
      "duration": 0.0992,
      "velocity": 127,
      "chip": "ym2612"
    },
    {
      "channel": 2,
      "note": 90,
      "start": 25.4914,
      "duration": 0.0991,
      "velocity": 71,
      "chip": "ym2612"
    },
    {
      "channel": 5,
      "note": 45,
      "start": 25.4931,
      "duration": 0.098,
      "velocity": 101,
      "chip": "ym2612"
    },
    {
      "channel": 1,
      "note": 84,
      "start": 25.6105,
      "duration": 0.0992,
      "velocity": 58,
      "chip": "ym2612"
    },
    {
      "channel": 2,
      "note": 92,
      "start": 25.6106,
      "duration": 0.0993,
      "velocity": 71,
      "chip": "ym2612"
    },
    {
      "channel": 3,
      "note": 80,
      "start": 25.6107,
      "duration": 0.0992,
      "velocity": 58,
      "chip": "ym2612"
    },
    {
      "channel": 4,
      "note": 56,
      "start": 25.6109,
      "duration": 0.0992,
      "velocity": 80,
      "chip": "ym2612"
    },
    {
      "channel": 5,
      "note": 56,
      "start": 25.6126,
      "duration": 0.0977,
      "velocity": 127,
      "chip": "ym2612"
    },
    {
      "channel": 5,
      "note": 56,
      "start": 25.7296,
      "duration": 0.0993,
      "velocity": 127,
      "chip": "ym2612"
    },
    {
      "channel": 5,
      "note": 56,
      "start": 25.8488,
      "duration": 0.0993,
      "velocity": 127,
      "chip": "ym2612"
    },
    {
      "channel": 2,
      "note": 85,
      "start": 25.9681,
      "duration": 0.0992,
      "velocity": 71,
      "chip": "ym2612"
    },
    {
      "channel": 5,
      "note": 45,
      "start": 25.9697,
      "duration": 0.0977,
      "velocity": 101,
      "chip": "ym2612"
    },
    {
      "channel": 2,
      "note": 87,
      "start": 26.0872,
      "duration": 0.0992,
      "velocity": 71,
      "chip": "ym2612"
    },
    {
      "channel": 4,
      "note": 56,
      "start": 26.0874,
      "duration": 0.0992,
      "velocity": 80,
      "chip": "ym2612"
    },
    {
      "channel": 5,
      "note": 68,
      "start": 26.089,
      "duration": 0.0977,
      "velocity": 127,
      "chip": "ym2612"
    },
    {
      "channel": 1,
      "note": 84,
      "start": 26.2063,
      "duration": 0.4171,
      "velocity": 58,
      "chip": "ym2612"
    },
    {
      "channel": 2,
      "note": 85,
      "start": 26.2065,
      "duration": 0.0991,
      "velocity": 71,
      "chip": "ym2612"
    },
    {
      "channel": 3,
      "note": 80,
      "start": 26.2066,
      "duration": 0.4169,
      "velocity": 58,
      "chip": "ym2612"
    },
    {
      "channel": 4,
      "note": 68,
      "start": 26.2068,
      "duration": 0.2181,
      "velocity": 80,
      "chip": "ym2612"
    },
    {
      "channel": 5,
      "note": 56,
      "start": 26.2088,
      "duration": 0.0969,
      "velocity": 127,
      "chip": "ym2612"
    },
    {
      "channel": 2,
      "note": 87,
      "start": 26.3256,
      "duration": 0.0992,
      "velocity": 71,
      "chip": "ym2612"
    },
    {
      "channel": 5,
      "note": 45,
      "start": 26.3272,
      "duration": 0.0978,
      "velocity": 101,
      "chip": "ym2612"
    },
    {
      "channel": 4,
      "note": 58,
      "start": 26.4448,
      "duration": 0.2184,
      "velocity": 80,
      "chip": "ym2612"
    },
    {
      "channel": 5,
      "note": 56,
      "start": 26.4464,
      "duration": 0.0977,
      "velocity": 127,
      "chip": "ym2612"
    },
    {
      "channel": 5,
      "note": 45,
      "start": 26.5655,
      "duration": 0.0978,
      "velocity": 101,
      "chip": "ym2612"
    },
    {
      "channel": 1,
      "note": 83,
      "start": 26.6831,
      "duration": 0.4171,
      "velocity": 58,
      "chip": "ym2612"
    },
    {
      "channel": 2,
      "note": 85,
      "start": 26.6833,
      "duration": 0.099,
      "velocity": 71,
      "chip": "ym2612"
    },
    {
      "channel": 3,
      "note": 78,
      "start": 26.6834,
      "duration": 0.4169,
      "velocity": 58,
      "chip": "ym2612"
    },
    {
      "channel": 4,
      "note": 59,
      "start": 26.6837,
      "duration": 0.218,
      "velocity": 80,
      "chip": "ym2612"
    },
    {
      "channel": 5,
      "note": 45,
      "start": 26.6838,
      "duration": 0.0987,
      "velocity": 101,
      "chip": "ym2612"
    },
    {
      "channel": 2,
      "note": 87,
      "start": 26.8023,
      "duration": 0.0992,
      "velocity": 71,
      "chip": "ym2612"
    },
    {
      "channel": 5,
      "note": 68,
      "start": 26.8039,
      "duration": 0.0978,
      "velocity": 127,
      "chip": "ym2612"
    },
    {
      "channel": 2,
      "note": 85,
      "start": 26.9214,
      "duration": 0.0993,
      "velocity": 71,
      "chip": "ym2612"
    },
    {
      "channel": 4,
      "note": 71,
      "start": 26.9217,
      "duration": 0.2183,
      "velocity": 80,
      "chip": "ym2612"
    },
    {
      "channel": 5,
      "note": 56,
      "start": 26.9233,
      "duration": 0.0976,
      "velocity": 127,
      "chip": "ym2612"
    },
    {
      "channel": 2,
      "note": 87,
      "start": 27.0407,
      "duration": 0.0992,
      "velocity": 71,
      "chip": "ym2612"
    },
    {
      "channel": 5,
      "note": 45,
      "start": 27.0427,
      "duration": 0.0975,
      "velocity": 101,
      "chip": "ym2612"
    },
    {
      "channel": 1,
      "note": 80,
      "start": 27.1599,
      "duration": 0.4171,
      "velocity": 58,
      "chip": "ym2612"
    },
    {
      "channel": 2,
      "note": 85,
      "start": 27.16,
      "duration": 0.0991,
      "velocity": 71,
      "chip": "ym2612"
    },
    {
      "channel": 3,
      "note": 77,
      "start": 27.1602,
      "duration": 0.4168,
      "velocity": 58,
      "chip": "ym2612"
    },
    {
      "channel": 4,
      "note": 61,
      "start": 27.1604,
      "duration": 0.2179,
      "velocity": 80,
      "chip": "ym2612"
    },
    {
      "channel": 5,
      "note": 45,
      "start": 27.1605,
      "duration": 0.0987,
      "velocity": 101,
      "chip": "ym2612"
    },
    {
      "channel": 2,
      "note": 87,
      "start": 27.279,
      "duration": 0.0992,
      "velocity": 71,
      "chip": "ym2612"
    },
    {
      "channel": 5,
      "note": 68,
      "start": 27.2807,
      "duration": 0.0978,
      "velocity": 127,
      "chip": "ym2612"
    },
    {
      "channel": 2,
      "note": 90,
      "start": 27.3982,
      "duration": 0.0992,
      "velocity": 71,
      "chip": "ym2612"
    },
    {
      "channel": 4,
      "note": 73,
      "start": 27.3983,
      "duration": 0.2183,
      "velocity": 80,
      "chip": "ym2612"
    },
    {
      "channel": 5,
      "note": 56,
      "start": 27.4,
      "duration": 0.0975,
      "velocity": 127,
      "chip": "ym2612"
    },
    {
      "channel": 2,
      "note": 92,
      "start": 27.5173,
      "duration": 0.0992,
      "velocity": 71,
      "chip": "ym2612"
    },
    {
      "channel": 5,
      "note": 45,
      "start": 27.519,
      "duration": 0.0978,
      "velocity": 101,
      "chip": "ym2612"
    },
    {
      "channel": 4,
      "note": 51,
      "start": 27.6365,
      "duration": 0.3178,
      "velocity": 80,
      "chip": "ym2612"
    },
    {
      "channel": 5,
      "note": 56,
      "start": 27.6382,
      "duration": 0.0976,
      "velocity": 127,
      "chip": "ym2612"
    },
    {
      "channel": 5,
      "note": 56,
      "start": 27.7557,
      "duration": 0.0993,
      "velocity": 127,
      "chip": "ym2612"
    },
    {
      "channel": 2,
      "note": 85,
      "start": 27.8749,
      "duration": 0.0998,
      "velocity": 71,
      "chip": "ym2612"
    },
    {
      "channel": 5,
      "note": 45,
      "start": 27.8766,
      "duration": 0.0983,
      "velocity": 101,
      "chip": "ym2612"
    },
    {
      "channel": 2,
      "note": 87,
      "start": 27.994,
      "duration": 0.0993,
      "velocity": 71,
      "chip": "ym2612"
    },
    {
      "channel": 4,
      "note": 51,
      "start": 27.9941,
      "duration": 0.0993,
      "velocity": 80,
      "chip": "ym2612"
    },
    {
      "channel": 5,
      "note": 68,
      "start": 27.9958,
      "duration": 0.0978,
      "velocity": 127,
      "chip": "ym2612"
    },
    {
      "channel": 1,
      "note": 87,
      "start": 28.1132,
      "duration": 0.4171,
      "velocity": 58,
      "chip": "ym2612"
    },
    {
      "channel": 2,
      "note": 85,
      "start": 28.1134,
      "duration": 0.099,
      "velocity": 71,
      "chip": "ym2612"
    },
    {
      "channel": 3,
      "note": 82,
      "start": 28.1136,
      "duration": 0.4168,
      "velocity": 58,
      "chip": "ym2612"
    },
    {
      "channel": 4,
      "note": 63,
      "start": 28.1138,
      "duration": 0.218,
      "velocity": 80,
      "chip": "ym2612"
    },
    {
      "channel": 5,
      "note": 56,
      "start": 28.1155,
      "duration": 0.0971,
      "velocity": 127,
      "chip": "ym2612"
    },
    {
      "channel": 2,
      "note": 87,
      "start": 28.2324,
      "duration": 0.0993,
      "velocity": 71,
      "chip": "ym2612"
    },
    {
      "channel": 5,
      "note": 45,
      "start": 28.234,
      "duration": 0.0979,
      "velocity": 101,
      "chip": "ym2612"
    },
    {
      "channel": 4,
      "note": 53,
      "start": 28.3516,
      "duration": 0.2185,
      "velocity": 80,
      "chip": "ym2612"
    },
    {
      "channel": 5,
      "note": 56,
      "start": 28.3532,
      "duration": 0.0976,
      "velocity": 127,
      "chip": "ym2612"
    },
    {
      "channel": 5,
      "note": 45,
      "start": 28.4722,
      "duration": 0.098,
      "velocity": 101,
      "chip": "ym2612"
    },
    {
      "channel": 1,
      "note": 85,
      "start": 28.59,
      "duration": 0.417,
      "velocity": 58,
      "chip": "ym2612"
    },
    {
      "channel": 2,
      "note": 85,
      "start": 28.5901,
      "duration": 0.099,
      "velocity": 71,
      "chip": "ym2612"
    },
    {
      "channel": 3,
      "note": 80,
      "start": 28.5903,
      "duration": 0.4168,
      "velocity": 58,
      "chip": "ym2612"
    },
    {
      "channel": 4,
      "note": 54,
      "start": 28.5905,
      "duration": 0.4167,
      "velocity": 80,
      "chip": "ym2612"
    },
    {
      "channel": 5,
      "note": 56,
      "start": 28.5926,
      "duration": 0.0968,
      "velocity": 127,
      "chip": "ym2612"
    },
    {
      "channel": 2,
      "note": 87,
      "start": 28.7091,
      "duration": 0.0993,
      "velocity": 71,
      "chip": "ym2612"
    },
    {
      "channel": 5,
      "note": 56,
      "start": 28.7092,
      "duration": 0.0993,
      "velocity": 127,
      "chip": "ym2612"
    },
    {
      "channel": 2,
      "note": 85,
      "start": 28.8283,
      "duration": 0.0992,
      "velocity": 71,
      "chip": "ym2612"
    },
    {
      "channel": 5,
      "note": 56,
      "start": 28.8284,
      "duration": 0.0992,
      "velocity": 127,
      "chip": "ym2612"
    },
    {
      "channel": 2,
      "note": 87,
      "start": 28.9475,
      "duration": 0.0992,
      "velocity": 71,
      "chip": "ym2612"
    },
    {
      "channel": 5,
      "note": 68,
      "start": 28.9491,
      "duration": 0.0978,
      "velocity": 127,
      "chip": "ym2612"
    },
    {
      "channel": 1,
      "note": 85,
      "start": 29.0666,
      "duration": 0.3178,
      "velocity": 58,
      "chip": "ym2612"
    },
    {
      "channel": 2,
      "note": 85,
      "start": 29.0668,
      "duration": 0.0991,
      "velocity": 71,
      "chip": "ym2612"
    },
    {
      "channel": 3,
      "note": 80,
      "start": 29.0669,
      "duration": 0.3176,
      "velocity": 58,
      "chip": "ym2612"
    },
    {
      "channel": 4,
      "note": 54,
      "start": 29.0671,
      "duration": 0.3176,
      "velocity": 80,
      "chip": "ym2612"
    },
    {
      "channel": 5,
      "note": 56,
      "start": 29.0687,
      "duration": 0.0973,
      "velocity": 127,
      "chip": "ym2612"
    },
    {
      "channel": 2,
      "note": 87,
      "start": 29.1858,
      "duration": 0.0993,
      "velocity": 71,
      "chip": "ym2612"
    },
    {
      "channel": 5,
      "note": 56,
      "start": 29.1859,
      "duration": 0.0993,
      "velocity": 127,
      "chip": "ym2612"
    },
    {
      "channel": 2,
      "note": 90,
      "start": 29.305,
      "duration": 0.0992,
      "velocity": 71,
      "chip": "ym2612"
    },
    {
      "channel": 5,
      "note": 45,
      "start": 29.3067,
      "duration": 0.0978,
      "velocity": 101,
      "chip": "ym2612"
    },
    {
      "channel": 1,
      "note": 84,
      "start": 29.4247,
      "duration": 0.0987,
      "velocity": 58,
      "chip": "ym2612"
    },
    {
      "channel": 2,
      "note": 92,
      "start": 29.4249,
      "duration": 0.0986,
      "velocity": 71,
      "chip": "ym2612"
    },
    {
      "channel": 3,
      "note": 80,
      "start": 29.4251,
      "duration": 0.0986,
      "velocity": 58,
      "chip": "ym2612"
    },
    {
      "channel": 4,
      "note": 56,
      "start": 29.4253,
      "duration": 0.0985,
      "velocity": 80,
      "chip": "ym2612"
    },
    {
      "channel": 5,
      "note": 56,
      "start": 29.4269,
      "duration": 0.097,
      "velocity": 127,
      "chip": "ym2612"
    },
    {
      "channel": 5,
      "note": 56,
      "start": 29.5433,
      "duration": 0.0994,
      "velocity": 127,
      "chip": "ym2612"
    },
    {
      "channel": 5,
      "note": 56,
      "start": 29.6625,
      "duration": 0.0994,
      "velocity": 127,
      "chip": "ym2612"
    },
    {
      "channel": 2,
      "note": 85,
      "start": 29.7817,
      "duration": 0.0992,
      "velocity": 71,
      "chip": "ym2612"
    },
    {
      "channel": 5,
      "note": 45,
      "start": 29.7834,
      "duration": 0.0977,
      "velocity": 101,
      "chip": "ym2612"
    },
    {
      "channel": 2,
      "note": 87,
      "start": 29.9009,
      "duration": 0.0993,
      "velocity": 71,
      "chip": "ym2612"
    },
    {
      "channel": 4,
      "note": 56,
      "start": 29.9011,
      "duration": 0.0992,
      "velocity": 80,
      "chip": "ym2612"
    },
    {
      "channel": 5,
      "note": 68,
      "start": 29.9027,
      "duration": 0.0977,
      "velocity": 127,
      "chip": "ym2612"
    },
    {
      "channel": 1,
      "note": 84,
      "start": 30.02,
      "duration": 0.417,
      "velocity": 58,
      "chip": "ym2612"
    },
    {
      "channel": 2,
      "note": 85,
      "start": 30.0202,
      "duration": 0.099,
      "velocity": 71,
      "chip": "ym2612"
    },
    {
      "channel": 3,
      "note": 80,
      "start": 30.0204,
      "duration": 0.4168,
      "velocity": 58,
      "chip": "ym2612"
    },
    {
      "channel": 4,
      "note": 68,
      "start": 30.0205,
      "duration": 0.2181,
      "velocity": 80,
      "chip": "ym2612"
    },
    {
      "channel": 5,
      "note": 56,
      "start": 30.0222,
      "duration": 0.0973,
      "velocity": 127,
      "chip": "ym2612"
    },
    {
      "channel": 2,
      "note": 87,
      "start": 30.1393,
      "duration": 0.0992,
      "velocity": 71,
      "chip": "ym2612"
    },
    {
      "channel": 5,
      "note": 45,
      "start": 30.1413,
      "duration": 0.0974,
      "velocity": 101,
      "chip": "ym2612"
    },
    {
      "channel": 4,
      "note": 58,
      "start": 30.2585,
      "duration": 0.2185,
      "velocity": 80,
      "chip": "ym2612"
    },
    {
      "channel": 5,
      "note": 56,
      "start": 30.2601,
      "duration": 0.098,
      "velocity": 127,
      "chip": "ym2612"
    },
    {
      "channel": 5,
      "note": 45,
      "start": 30.3791,
      "duration": 0.098,
      "velocity": 101,
      "chip": "ym2612"
    },
    {
      "channel": 1,
      "note": 87,
      "start": 30.4968,
      "duration": 0.4171,
      "velocity": 58,
      "chip": "ym2612"
    },
    {
      "channel": 2,
      "note": 85,
      "start": 30.4969,
      "duration": 0.0991,
      "velocity": 71,
      "chip": "ym2612"
    },
    {
      "channel": 3,
      "note": 83,
      "start": 30.4971,
      "duration": 0.4168,
      "velocity": 58,
      "chip": "ym2612"
    },
    {
      "channel": 4,
      "note": 59,
      "start": 30.4973,
      "duration": 0.218,
      "velocity": 80,
      "chip": "ym2612"
    },
    {
      "channel": 5,
      "note": 45,
      "start": 30.4975,
      "duration": 0.0987,
      "velocity": 101,
      "chip": "ym2612"
    },
    {
      "channel": 2,
      "note": 87,
      "start": 30.616,
      "duration": 0.0992,
      "velocity": 71,
      "chip": "ym2612"
    },
    {
      "channel": 5,
      "note": 68,
      "start": 30.6177,
      "duration": 0.0978,
      "velocity": 127,
      "chip": "ym2612"
    },
    {
      "channel": 2,
      "note": 85,
      "start": 30.7352,
      "duration": 0.0992,
      "velocity": 71,
      "chip": "ym2612"
    },
    {
      "channel": 4,
      "note": 71,
      "start": 30.7354,
      "duration": 0.2183,
      "velocity": 80,
      "chip": "ym2612"
    },
    {
      "channel": 5,
      "note": 56,
      "start": 30.737,
      "duration": 0.0975,
      "velocity": 127,
      "chip": "ym2612"
    },
    {
      "channel": 2,
      "note": 87,
      "start": 30.8543,
      "duration": 0.0992,
      "velocity": 71,
      "chip": "ym2612"
    },
    {
      "channel": 5,
      "note": 45,
      "start": 30.856,
      "duration": 0.0978,
      "velocity": 101,
      "chip": "ym2612"
    },
    {
      "channel": 1,
      "note": 89,
      "start": 30.9735,
      "duration": 0.4171,
      "velocity": 58,
      "chip": "ym2612"
    },
    {
      "channel": 2,
      "note": 85,
      "start": 30.9737,
      "duration": 0.0991,
      "velocity": 71,
      "chip": "ym2612"
    },
    {
      "channel": 3,
      "note": 85,
      "start": 30.9739,
      "duration": 0.4172,
      "velocity": 58,
      "chip": "ym2612"
    },
    {
      "channel": 4,
      "note": 61,
      "start": 30.9744,
      "duration": 0.2176,
      "velocity": 80,
      "chip": "ym2612"
    },
    {
      "channel": 5,
      "note": 45,
      "start": 30.9746,
      "duration": 0.0983,
      "velocity": 101,
      "chip": "ym2612"
    },
    {
      "channel": 2,
      "note": 87,
      "start": 31.0927,
      "duration": 0.0993,
      "velocity": 71,
      "chip": "ym2612"
    },
    {
      "channel": 5,
      "note": 68,
      "start": 31.0944,
      "duration": 0.0978,
      "velocity": 127,
      "chip": "ym2612"
    },
    {
      "channel": 2,
      "note": 90,
      "start": 31.2119,
      "duration": 0.0992,
      "velocity": 71,
      "chip": "ym2612"
    },
    {
      "channel": 4,
      "note": 73,
      "start": 31.2121,
      "duration": 0.2183,
      "velocity": 80,
      "chip": "ym2612"
    },
    {
      "channel": 5,
      "note": 56,
      "start": 31.2137,
      "duration": 0.0975,
      "velocity": 127,
      "chip": "ym2612"
    },
    {
      "channel": 2,
      "note": 92,
      "start": 31.331,
      "duration": 0.0992,
      "velocity": 71,
      "chip": "ym2612"
    },
    {
      "channel": 5,
      "note": 45,
      "start": 31.3327,
      "duration": 0.0978,
      "velocity": 101,
      "chip": "ym2612"
    },
    {
      "channel": 4,
      "note": 49,
      "start": 31.4502,
      "duration": 0.3177,
      "velocity": 80,
      "chip": "ym2612"
    },
    {
      "channel": 5,
      "note": 56,
      "start": 31.4518,
      "duration": 0.0976,
      "velocity": 127,
      "chip": "ym2612"
    },
    {
      "channel": 5,
      "note": 56,
      "start": 31.5693,
      "duration": 0.0993,
      "velocity": 127,
      "chip": "ym2612"
    },
    {
      "channel": 2,
      "note": 83,
      "start": 31.6886,
      "duration": 0.0987,
      "velocity": 71,
      "chip": "ym2612"
    },
    {
      "channel": 5,
      "note": 45,
      "start": 31.6903,
      "duration": 0.097,
      "velocity": 101,
      "chip": "ym2612"
    }
  ]
}