{
  "track_name": "05 - Music Test 8",
  "duration_sec": 39.699,
  "sample_rate": 44100,
  "note_count": 778,
  "unique_pitches": 22,
  "pitch_range": 61,
  "avg_note_duration": 0.2022,
  "reconstruction_stats": {
    "notes_reconstructed": 778,
    "keyon_events": 778,
    "keyoff_events": 488,
    "orphan_keyons": 2,
    "unique_pitches": 22,
    "pitch_range": 61,
    "avg_duration_sec": 0.2022
  },
  "metadata": {
    "source": "W\\World Cup USA 94\\05 - Music Test 8.vgz"
  },
  "notes": [
    {
      "channel": 0,
      "note": 26,
      "start": 0.0079,
      "duration": 0.6482,
      "velocity": 125,
      "chip": "ym2612"
    },
    {
      "channel": 1,
      "note": 52,
      "start": 0.0109,
      "duration": 0.1822,
      "velocity": 111,
      "chip": "ym2612"
    },
    {
      "channel": 2,
      "note": 63,
      "start": 0.0139,
      "duration": 0.4858,
      "velocity": 99,
      "chip": "ym2612"
    },
    {
      "channel": 1,
      "note": 52,
      "start": 0.2057,
      "duration": 0.1349,
      "velocity": 111,
      "chip": "ym2612"
    },
    {
      "channel": 1,
      "note": 52,
      "start": 0.3536,
      "duration": 0.145,
      "velocity": 111,
      "chip": "ym2612"
    },
    {
      "channel": 1,
      "note": 52,
      "start": 0.5111,
      "duration": 0.135,
      "velocity": 111,
      "chip": "ym2612"
    },
    {
      "channel": 2,
      "note": 61,
      "start": 0.5121,
      "duration": 0.4404,
      "velocity": 99,
      "chip": "ym2612"
    },
    {
      "channel": 1,
      "note": 52,
      "start": 0.6587,
      "duration": 0.1456,
      "velocity": 111,
      "chip": "ym2612"
    },
    {
      "channel": 0,
      "note": 80,
      "start": 0.669,
      "duration": 0.0085,
      "velocity": 127,
      "chip": "ym2612"
    },
    {
      "channel": 0,
      "note": 80,
      "start": 0.6774,
      "duration": 0.0007,
      "velocity": 127,
      "chip": "ym2612"
    },
    {
      "channel": 0,
      "note": 79,
      "start": 0.6781,
      "duration": 0.01,
      "velocity": 127,
      "chip": "ym2612"
    },
    {
      "channel": 0,
      "note": 78,
      "start": 0.6882,
      "duration": 0.0106,
      "velocity": 127,
      "chip": "ym2612"
    },
    {
      "channel": 0,
      "note": 77,
      "start": 0.6987,
      "duration": 0.0107,
      "velocity": 127,
      "chip": "ym2612"
    },
    {
      "channel": 0,
      "note": 76,
      "start": 0.7095,
      "duration": 0.0104,
      "velocity": 127,
      "chip": "ym2612"
    },
    {
      "channel": 0,
      "note": 74,
      "start": 0.7198,
      "duration": 0.0105,
      "velocity": 127,
      "chip": "ym2612"
    },
    {
      "channel": 0,
      "note": 73,
      "start": 0.7303,
      "duration": 0.0106,
      "velocity": 127,
      "chip": "ym2612"
    },
    {
      "channel": 0,
      "note": 72,
      "start": 0.7409,
      "duration": 0.0107,
      "velocity": 127,
      "chip": "ym2612"
    },
    {
      "channel": 0,
      "note": 70,
      "start": 0.7517,
      "duration": 0.2114,
      "velocity": 127,
      "chip": "ym2612"
    },
    {
      "channel": 1,
      "note": 52,
      "start": 0.8171,
      "duration": 0.1347,
      "velocity": 111,
      "chip": "ym2612"
    },
    {
      "channel": 1,
      "note": 52,
      "start": 0.9662,
      "duration": 0.1434,
      "velocity": 111,
      "chip": "ym2612"
    },
    {
      "channel": 2,
      "note": 58,
      "start": 0.9671,
      "duration": 1.8184,
      "velocity": 99,
      "chip": "ym2612"
    },
    {
      "channel": 0,
      "note": 26,
      "start": 0.974,
      "duration": 0.5983,
      "velocity": 125,
      "chip": "ym2612"
    },
    {
      "channel": 1,
      "note": 52,
      "start": 1.1221,
      "duration": 0.1349,
      "velocity": 111,
      "chip": "ym2612"
    },
    {
      "channel": 1,
      "note": 52,
      "start": 1.27,
      "duration": 0.0712,
      "velocity": 111,
      "chip": "ym2612"
    },
    {
      "channel": 1,
      "note": 52,
      "start": 1.3538,
      "duration": 0.0612,
      "velocity": 111,
      "chip": "ym2612"
    },
    {
      "channel": 1,
      "note": 52,
      "start": 1.4277,
      "duration": 0.1347,
      "velocity": 111,
      "chip": "ym2612"
    },
    {
      "channel": 1,
      "note": 52,
      "start": 1.5749,
      "duration": 0.1456,
      "velocity": 111,
      "chip": "ym2612"
    },
    {
      "channel": 0,
      "note": 26,
      "start": 1.5854,
      "duration": 0.2924,
      "velocity": 125,
      "chip": "ym2612"
    },
    {
      "channel": 1,
      "note": 52,
      "start": 1.7335,
      "duration": 0.1347,
      "velocity": 111,
      "chip": "ym2612"
    },
    {
      "channel": 1,
      "note": 52,
      "start": 1.8805,
      "duration": 0.1455,
      "velocity": 111,
      "chip": "ym2612"
    },
    {
      "channel": 0,
      "note": 80,
      "start": 1.8904,
      "duration": 0.0096,
      "velocity": 127,
      "chip": "ym2612"
    },
    {
      "channel": 0,
      "note": 80,
      "start": 1.9,
      "duration": 0.0007,
      "velocity": 127,
      "chip": "ym2612"
    },
    {
      "channel": 0,
      "note": 79,
      "start": 1.9007,
      "duration": 0.0093,
      "velocity": 127,
      "chip": "ym2612"
    },
    {
      "channel": 0,
      "note": 78,
      "start": 1.91,
      "duration": 0.0106,
      "velocity": 127,
      "chip": "ym2612"
    },
    {
      "channel": 0,
      "note": 77,
      "start": 1.9206,
      "duration": 0.0106,
      "velocity": 127,
      "chip": "ym2612"
    },
    {
      "channel": 0,
      "note": 76,
      "start": 1.9312,
      "duration": 0.0105,
      "velocity": 127,
      "chip": "ym2612"
    },
    {
      "channel": 0,
      "note": 74,
      "start": 1.9417,
      "duration": 0.0105,
      "velocity": 127,
      "chip": "ym2612"
    },
    {
      "channel": 0,
      "note": 73,
      "start": 1.9522,
      "duration": 0.0105,
      "velocity": 127,
      "chip": "ym2612"
    },
    {
      "channel": 0,
      "note": 72,
      "start": 1.9627,
      "duration": 0.0106,
      "velocity": 127,
      "chip": "ym2612"
    },
    {
      "channel": 0,
      "note": 70,
      "start": 1.9733,
      "duration": 0.5155,
      "velocity": 127,
      "chip": "ym2612"
    },
    {
      "channel": 1,
      "note": 52,
      "start": 2.0384,
      "duration": 0.135,
      "velocity": 111,
      "chip": "ym2612"
    },
    {
      "channel": 1,
      "note": 52,
      "start": 2.1866,
      "duration": 0.1449,
      "velocity": 111,
      "chip": "ym2612"
    },
    {
      "channel": 1,
      "note": 52,
      "start": 2.344,
      "duration": 0.1349,
      "velocity": 111,
      "chip": "ym2612"
    },
    {
      "channel": 1,
      "note": 52,
      "start": 2.4915,
      "duration": 0.1454,
      "velocity": 111,
      "chip": "ym2612"
    },
    {
      "channel": 0,
      "note": 26,
      "start": 2.5019,
      "duration": 0.4401,
      "velocity": 125,
      "chip": "ym2612"
    },
    {
      "channel": 1,
      "note": 52,
      "start": 2.6499,
      "duration": 0.1349,
      "velocity": 111,
      "chip": "ym2612"
    },
    {
      "channel": 1,
      "note": 52,
      "start": 2.7969,
      "duration": 0.1457,
      "velocity": 111,
      "chip": "ym2612"
    },
    {
      "channel": 2,
      "note": 56,
      "start": 2.7978,
      "duration": 0.4506,
      "velocity": 99,
      "chip": "ym2612"
    },
    {
      "channel": 0,
      "note": 26,
      "start": 2.9543,
      "duration": 0.1349,
      "velocity": 125,
      "chip": "ym2612"
    },
    {
      "channel": 1,
      "note": 52,
      "start": 2.957,
      "duration": 0.1329,
      "velocity": 111,
      "chip": "ym2612"
    },
    {
      "channel": 0,
      "note": 80,
      "start": 3.1023,
      "duration": 0.0084,
      "velocity": 127,
      "chip": "ym2612"
    },
    {
      "channel": 1,
      "note": 52,
      "start": 3.105,
      "duration": 0.1429,
      "velocity": 111,
      "chip": "ym2612"
    },
    {
      "channel": 0,
      "note": 80,
      "start": 3.1107,
      "duration": 0.0007,
      "velocity": 127,
      "chip": "ym2612"
    },
    {
      "channel": 0,
      "note": 79,
      "start": 3.1114,
      "duration": 0.0101,
      "velocity": 127,
      "chip": "ym2612"
    },
    {
      "channel": 0,
      "note": 78,
      "start": 3.1215,
      "duration": 0.0107,
      "velocity": 127,
      "chip": "ym2612"
    },
    {
      "channel": 0,
      "note": 77,
      "start": 3.1321,
      "duration": 0.0104,
      "velocity": 127,
      "chip": "ym2612"
    },
    {
      "channel": 0,
      "note": 76,
      "start": 3.1425,
      "duration": 0.0106,
      "velocity": 127,
      "chip": "ym2612"
    },
    {
      "channel": 0,
      "note": 74,
      "start": 3.1531,
      "duration": 0.0105,
      "velocity": 127,
      "chip": "ym2612"
    },
    {
      "channel": 0,
      "note": 73,
      "start": 3.1636,
      "duration": 0.0105,
      "velocity": 127,
      "chip": "ym2612"
    },
    {
      "channel": 0,
      "note": 72,
      "start": 3.1741,
      "duration": 0.0109,
      "velocity": 127,
      "chip": "ym2612"
    },
    {
      "channel": 0,
      "note": 70,
      "start": 3.185,
      "duration": 0.2097,
      "velocity": 127,
      "chip": "ym2612"
    },
    {
      "channel": 1,
      "note": 52,
      "start": 3.2604,
      "duration": 0.135,
      "velocity": 111,
      "chip": "ym2612"
    },
    {
      "channel": 2,
      "note": 54,
      "start": 3.2613,
      "duration": 0.2926,
      "velocity": 99,
      "chip": "ym2612"
    },
    {
      "channel": 0,
      "note": 26,
      "start": 3.4073,
      "duration": 0.2936,
      "velocity": 125,
      "chip": "ym2612"
    },
    {
      "channel": 1,
      "note": 52,
      "start": 3.4099,
      "duration": 0.1434,
      "velocity": 111,
      "chip": "ym2612"
    },
    {
      "channel": 1,
      "note": 52,
      "start": 3.5663,
      "duration": 0.1351,
      "velocity": 111,
      "chip": "ym2612"
    },
    {
      "channel": 2,
      "note": 51,
      "start": 3.5673,
      "duration": 0.1348,
      "velocity": 99,
      "chip": "ym2612"
    },
    {
      "channel": 0,
      "note": 26,
      "start": 3.7127,
      "duration": 0.5984,
      "velocity": 125,
      "chip": "ym2612"
    },
    {
      "channel": 1,
      "note": 52,
      "start": 3.7154,
      "duration": 0.0697,
      "velocity": 111,
      "chip": "ym2612"
    },
    {
      "channel": 2,
      "note": 54,
      "start": 3.7169,
      "duration": 0.29,
      "velocity": 99,
      "chip": "ym2612"
    },
    {
      "channel": 1,
      "note": 52,
      "start": 3.7977,
      "duration": 0.0611,
      "velocity": 111,
      "chip": "ym2612"
    },
    {
      "channel": 1,
      "note": 52,
      "start": 3.8713,
      "duration": 0.1349,
      "velocity": 111,
      "chip": "ym2612"
    },
    {
      "channel": 1,
      "note": 52,
      "start": 4.0193,
      "duration": 0.145,
      "velocity": 111,
      "chip": "ym2612"
    },
    {
      "channel": 2,
      "note": 51,
      "start": 4.0202,
      "duration": 0.2922,
      "velocity": 99,
      "chip": "ym2612"
    },
    {
      "channel": 1,
      "note": 52,
      "start": 4.1769,
      "duration": 0.1349,
      "velocity": 111,
      "chip": "ym2612"
    },
    {
      "channel": 0,
      "note": 80,
      "start": 4.3237,
      "duration": 0.0094,
      "velocity": 127,
      "chip": "ym2612"
    },
    {
      "channel": 1,
      "note": 52,
      "start": 4.3263,
      "duration": 0.1434,
      "velocity": 111,
      "chip": "ym2612"
    },
    {
      "channel": 2,
      "note": 49,
      "start": 4.3273,
      "duration": 0.291,
      "velocity": 99,
      "chip": "ym2612"
    },
    {
      "channel": 0,
      "note": 80,
      "start": 4.3331,
      "duration": 0.0007,
      "velocity": 127,
      "chip": "ym2612"
    },
    {
      "channel": 0,
      "note": 79,
      "start": 4.3338,
      "duration": 0.0095,
      "velocity": 127,
      "chip": "ym2612"
    },
    {
      "channel": 0,
      "note": 78,
      "start": 4.3433,
      "duration": 0.0105,
      "velocity": 127,
      "chip": "ym2612"
    },
    {
      "channel": 0,
      "note": 77,
      "start": 4.3538,
      "duration": 0.0107,
      "velocity": 127,
      "chip": "ym2612"
    },
    {
      "channel": 0,
      "note": 76,
      "start": 4.3646,
      "duration": 0.0104,
      "velocity": 127,
      "chip": "ym2612"
    },
    {
      "channel": 0,
      "note": 74,
      "start": 4.3749,
      "duration": 0.0105,
      "velocity": 127,
      "chip": "ym2612"
    },
    {
      "channel": 0,
      "note": 73,
      "start": 4.3854,
      "duration": 0.0105,
      "velocity": 127,
      "chip": "ym2612"
    },
    {
      "channel": 0,
      "note": 72,
      "start": 4.396,
      "duration": 0.0105,
      "velocity": 127,
      "chip": "ym2612"
    },
    {
      "channel": 0,
      "note": 70,
      "start": 4.4065,
      "duration": 0.5157,
      "velocity": 127,
      "chip": "ym2612"
    },
    {
      "channel": 1,
      "note": 52,
      "start": 4.4824,
      "duration": 0.1352,
      "velocity": 111,
      "chip": "ym2612"
    },
    {
      "channel": 1,
      "note": 52,
      "start": 4.6297,
      "duration": 0.1455,
      "velocity": 111,
      "chip": "ym2612"
    },
    {
      "channel": 2,
      "note": 51,
      "start": 4.6307,
      "duration": 0.2928,
      "velocity": 99,
      "chip": "ym2612"
    },
    {
      "channel": 1,
      "note": 52,
      "start": 4.7877,
      "duration": 0.1351,
      "velocity": 111,
      "chip": "ym2612"
    },
    {
      "channel": 0,
      "note": 26,
      "start": 4.9365,
      "duration": 0.597,
      "velocity": 125,
      "chip": "ym2612"
    },
    {
      "channel": 1,
      "note": 52,
      "start": 4.9393,
      "duration": 0.1414,
      "velocity": 111,
      "chip": "ym2612"
    },
    {
      "channel": 2,
      "note": 51,
      "start": 4.9402,
      "duration": 1.511,
      "velocity": 99,
      "chip": "ym2612"
    },
    {
      "channel": 1,
      "note": 52,
      "start": 5.0932,
      "duration": 0.1349,
      "velocity": 111,
      "chip": "ym2612"
    },
    {
      "channel": 1,
      "note": 52,
      "start": 5.2407,
      "duration": 0.1455,
      "velocity": 111,
      "chip": "ym2612"
    },
    {
      "channel": 1,
      "note": 52,
      "start": 5.3988,
      "duration": 0.1353,
      "velocity": 111,
      "chip": "ym2612"
    },
    {
      "channel": 0,
      "note": 80,
      "start": 5.5456,
      "duration": 0.0089,
      "velocity": 127,
      "chip": "ym2612"
    },
    {
      "channel": 1,
      "note": 52,
      "start": 5.5482,
      "duration": 0.1434,
      "velocity": 111,
      "chip": "ym2612"
    },
    {
      "channel": 0,
      "note": 80,
      "start": 5.5545,
      "duration": 0.0007,
      "velocity": 127,
      "chip": "ym2612"
    },
    {
      "channel": 0,
      "note": 79,
      "start": 5.5551,
      "duration": 0.0101,
      "velocity": 127,
      "chip": "ym2612"
    },
    {
      "channel": 0,
      "note": 78,
      "start": 5.5652,
      "duration": 0.0105,
      "velocity": 127,
      "chip": "ym2612"
    },
    {
      "channel": 0,
      "note": 77,
      "start": 5.5757,
      "duration": 0.0107,
      "velocity": 127,
      "chip": "ym2612"
    },
    {
      "channel": 0,
      "note": 76,
      "start": 5.5865,
      "duration": 0.0104,
      "velocity": 127,
      "chip": "ym2612"
    },
    {
      "channel": 0,
      "note": 74,
      "start": 5.5968,
      "duration": 0.0105,
      "velocity": 127,
      "chip": "ym2612"
    },
    {
      "channel": 0,
      "note": 73,
      "start": 5.6073,
      "duration": 0.0109,
      "velocity": 127,
      "chip": "ym2612"
    },
    {
      "channel": 0,
      "note": 72,
      "start": 5.6183,
      "duration": 0.0101,
      "velocity": 127,
      "chip": "ym2612"
    },
    {
      "channel": 0,
      "note": 70,
      "start": 5.6284,
      "duration": 0.2101,
      "velocity": 127,
      "chip": "ym2612"
    },
    {
      "channel": 1,
      "note": 52,
      "start": 5.7041,
      "duration": 0.1351,
      "velocity": 111,
      "chip": "ym2612"
    },
    {
      "channel": 0,
      "note": 26,
      "start": 5.8515,
      "duration": 0.5983,
      "velocity": 125,
      "chip": "ym2612"
    },
    {
      "channel": 1,
      "note": 52,
      "start": 5.8542,
      "duration": 0.1429,
      "velocity": 111,
      "chip": "ym2612"
    },
    {
      "channel": 1,
      "note": 52,
      "start": 6.0095,
      "duration": 0.135,
      "velocity": 111,
      "chip": "ym2612"
    },
    {
      "channel": 1,
      "note": 52,
      "start": 6.1572,
      "duration": 0.0611,
      "velocity": 111,
      "chip": "ym2612"
    },
    {
      "channel": 1,
      "note": 52,
      "start": 6.2308,
      "duration": 0.0717,
      "velocity": 111,
      "chip": "ym2612"
    },
    {
      "channel": 1,
      "note": 52,
      "start": 6.3151,
      "duration": 0.1354,
      "velocity": 111,
      "chip": "ym2612"
    },
    {
      "channel": 0,
      "note": 26,
      "start": 6.462,
      "duration": 0.2929,
      "velocity": 125,
      "chip": "ym2612"
    },
    {
      "channel": 1,
      "note": 52,
      "start": 6.4646,
      "duration": 0.1434,
      "velocity": 111,
      "chip": "ym2612"
    },
    {
      "channel": 2,
      "note": 49,
      "start": 6.4658,
      "duration": 0.5958,
      "velocity": 99,
      "chip": "ym2612"
    },
    {
      "channel": 1,
      "note": 52,
      "start": 6.6205,
      "duration": 0.1349,
      "velocity": 111,
      "chip": "ym2612"
    },
    {
      "channel": 0,
      "note": 80,
      "start": 6.7679,
      "duration": 0.0083,
      "velocity": 127,
      "chip": "ym2612"
    },
    {
      "channel": 1,
      "note": 52,
      "start": 6.7706,
      "duration": 0.143,
      "velocity": 111,
      "chip": "ym2612"
    },
    {
      "channel": 0,
      "note": 80,
      "start": 6.7763,
      "duration": 0.0007,
      "velocity": 127,
      "chip": "ym2612"
    },
    {
      "channel": 0,
      "note": 79,
      "start": 6.777,
      "duration": 0.01,
      "velocity": 127,
      "chip": "ym2612"
    },
    {
      "channel": 0,
      "note": 78,
      "start": 6.787,
      "duration": 0.0106,
      "velocity": 127,
      "chip": "ym2612"
    },
    {
      "channel": 0,
      "note": 77,
      "start": 6.7976,
      "duration": 0.0105,
      "velocity": 127,
      "chip": "ym2612"
    },
    {
      "channel": 0,
      "note": 76,
      "start": 6.8081,
      "duration": 0.0107,
      "velocity": 127,
      "chip": "ym2612"
    },
    {
      "channel": 0,
      "note": 74,
      "start": 6.8188,
      "duration": 0.0104,
      "velocity": 127,
      "chip": "ym2612"
    },
    {
      "channel": 0,
      "note": 73,
      "start": 6.8292,
      "duration": 0.0106,
      "velocity": 127,
      "chip": "ym2612"
    },
    {
      "channel": 0,
      "note": 72,
      "start": 6.8398,
      "duration": 0.011,
      "velocity": 127,
      "chip": "ym2612"
    },
    {
      "channel": 0,
      "note": 70,
      "start": 6.8508,
      "duration": 0.5156,
      "velocity": 127,
      "chip": "ym2612"
    },
    {
      "channel": 1,
      "note": 52,
      "start": 6.926,
      "duration": 0.135,
      "velocity": 111,
      "chip": "ym2612"
    },
    {
      "channel": 1,
      "note": 52,
      "start": 7.0735,
      "duration": 0.1455,
      "velocity": 111,
      "chip": "ym2612"
    },
    {
      "channel": 2,
      "note": 49,
      "start": 7.0744,
      "duration": 0.2933,
      "velocity": 99,
      "chip": "ym2612"
    },
    {
      "channel": 1,
      "note": 52,
      "start": 7.2314,
      "duration": 0.1356,
      "velocity": 111,
      "chip": "ym2612"
    },
    {
      "channel": 0,
      "note": 26,
      "start": 7.3798,
      "duration": 0.5971,
      "velocity": 125,
      "chip": "ym2612"
    },
    {
      "channel": 1,
      "note": 52,
      "start": 7.3829,
      "duration": 0.1416,
      "velocity": 111,
      "chip": "ym2612"
    },
    {
      "channel": 2,
      "note": 49,
      "start": 7.3839,
      "duration": 0.1413,
      "velocity": 99,
      "chip": "ym2612"
    },
    {
      "channel": 1,
      "note": 52,
      "start": 7.5384,
      "duration": 0.1334,
      "velocity": 111,
      "chip": "ym2612"
    },
    {
      "channel": 2,
      "note": 51,
      "start": 7.5394,
      "duration": 0.4388,
      "velocity": 99,
      "chip": "ym2612"
    },
    {
      "channel": 1,
      "note": 52,
      "start": 7.6849,
      "duration": 0.145,
      "velocity": 111,
      "chip": "ym2612"
    },
    {
      "channel": 1,
      "note": 52,
      "start": 7.8424,
      "duration": 0.1351,
      "velocity": 111,
      "chip": "ym2612"
    },
    {
      "channel": 0,
      "note": 80,
      "start": 7.9907,
      "duration": 0.008,
      "velocity": 127,
      "chip": "ym2612"
    },
    {
      "channel": 1,
      "note": 52,
      "start": 7.9934,
      "duration": 0.1314,
      "velocity": 111,
      "chip": "ym2612"
    },
    {
      "channel": 2,
      "note": 51,
      "start": 7.9944,
      "duration": 1.8066,
      "velocity": 99,
      "chip": "ym2612"
    },
    {
      "channel": 0,
      "note": 80,
      "start": 7.9987,
      "duration": 0.0012,
      "velocity": 127,
      "chip": "ym2612"
    },
    {
      "channel": 0,
      "note": 79,
      "start": 7.9999,
      "duration": 0.009,
      "velocity": 127,
      "chip": "ym2612"
    },
    {
      "channel": 0,
      "note": 78,
      "start": 8.0089,
      "duration": 0.0106,
      "velocity": 127,
      "chip": "ym2612"
    },
    {
      "channel": 0,
      "note": 77,
      "start": 8.0195,
      "duration": 0.0105,
      "velocity": 127,
      "chip": "ym2612"
    },
    {
      "channel": 0,
      "note": 76,
      "start": 8.03,
      "duration": 0.0105,
      "velocity": 127,
      "chip": "ym2612"
    },
    {
      "channel": 0,
      "note": 74,
      "start": 8.0405,
      "duration": 0.0111,
      "velocity": 127,
      "chip": "ym2612"
    },
    {
      "channel": 0,
      "note": 73,
      "start": 8.0516,
      "duration": 0.01,
      "velocity": 127,
      "chip": "ym2612"
    },
    {
      "channel": 0,
      "note": 72,
      "start": 8.0616,
      "duration": 0.0107,
      "velocity": 127,
      "chip": "ym2612"
    },
    {
      "channel": 0,
      "note": 70,
      "start": 8.0723,
      "duration": 0.2099,
      "velocity": 127,
      "chip": "ym2612"
    },
    {
      "channel": 1,
      "note": 52,
      "start": 8.1373,
      "duration": 0.146,
      "velocity": 111,
      "chip": "ym2612"
    },
    {
      "channel": 0,
      "note": 26,
      "start": 8.2947,
      "duration": 0.4406,
      "velocity": 125,
      "chip": "ym2612"
    },
    {
      "channel": 1,
      "note": 52,
      "start": 8.2974,
      "duration": 0.1328,
      "velocity": 111,
      "chip": "ym2612"
    },
    {
      "channel": 1,
      "note": 52,
      "start": 8.4428,
      "duration": 0.1455,
      "velocity": 111,
      "chip": "ym2612"
    },
    {
      "channel": 1,
      "note": 52,
      "start": 8.6013,
      "duration": 0.0607,
      "velocity": 111,
      "chip": "ym2612"
    },
    {
      "channel": 1,
      "note": 52,
      "start": 8.6746,
      "duration": 0.0614,
      "velocity": 111,
      "chip": "ym2612"
    },
    {
      "channel": 0,
      "note": 26,
      "start": 8.7476,
      "duration": 0.2929,
      "velocity": 125,
      "chip": "ym2612"
    },
    {
      "channel": 1,
      "note": 52,
      "start": 8.7508,
      "duration": 0.1429,
      "velocity": 111,
      "chip": "ym2612"
    },
    {
      "channel": 1,
      "note": 52,
      "start": 8.9062,
      "duration": 0.135,
      "velocity": 111,
      "chip": "ym2612"
    },
    {
      "channel": 0,
      "note": 26,
      "start": 9.0532,
      "duration": 0.1349,
      "velocity": 125,
      "chip": "ym2612"
    },
    {
      "channel": 1,
      "note": 52,
      "start": 9.0559,
      "duration": 0.146,
      "velocity": 111,
      "chip": "ym2612"
    },
    {
      "channel": 0,
      "note": 80,
      "start": 9.2012,
      "duration": 0.0085,
      "velocity": 127,
      "chip": "ym2612"
    },
    {
      "channel": 0,
      "note": 80,
      "start": 9.2097,
      "duration": 0.0007,
      "velocity": 127,
      "chip": "ym2612"
    },
    {
      "channel": 0,
      "note": 79,
      "start": 9.2104,
      "duration": 0.0099,
      "velocity": 127,
      "chip": "ym2612"
    },
    {
      "channel": 1,
      "note": 52,
      "start": 9.2125,
      "duration": 0.1341,
      "velocity": 111,
      "chip": "ym2612"
    },
    {
      "channel": 0,
      "note": 78,
      "start": 9.2202,
      "duration": 0.0106,
      "velocity": 127,
      "chip": "ym2612"
    },
    {
      "channel": 0,
      "note": 77,
      "start": 9.2308,
      "duration": 0.0106,
      "velocity": 127,
      "chip": "ym2612"
    },
    {
      "channel": 0,
      "note": 76,
      "start": 9.2414,
      "duration": 0.0105,
      "velocity": 127,
      "chip": "ym2612"
    },
    {
      "channel": 0,
      "note": 74,
      "start": 9.2519,
      "duration": 0.0105,
      "velocity": 127,
      "chip": "ym2612"
    },
    {
      "channel": 0,
      "note": 73,
      "start": 9.2624,
      "duration": 0.0106,
      "velocity": 127,
      "chip": "ym2612"
    },
    {
      "channel": 0,
      "note": 72,
      "start": 9.273,
      "duration": 0.011,
      "velocity": 127,
      "chip": "ym2612"
    },
    {
      "channel": 0,
      "note": 70,
      "start": 9.284,
      "duration": 0.2097,
      "velocity": 127,
      "chip": "ym2612"
    },
    {
      "channel": 1,
      "note": 52,
      "start": 9.3592,
      "duration": 0.1476,
      "velocity": 111,
      "chip": "ym2612"
    },
    {
      "channel": 0,
      "note": 26,
      "start": 9.5061,
      "duration": 0.2936,
      "velocity": 125,
      "chip": "ym2612"
    },
    {
      "channel": 1,
      "note": 52,
      "start": 9.5177,
      "duration": 0.1344,
      "velocity": 111,
      "chip": "ym2612"
    },
    {
      "channel": 1,
      "note": 52,
      "start": 9.6646,
      "duration": 0.1356,
      "velocity": 111,
      "chip": "ym2612"
    },
    {
      "channel": 0,
      "note": 26,
      "start": 9.8135,
      "duration": 0.5964,
      "velocity": 125,
      "chip": "ym2612"
    },
    {
      "channel": 1,
      "note": 52,
      "start": 9.8167,
      "duration": 0.1303,
      "velocity": 111,
      "chip": "ym2612"
    },
    {
      "channel": 2,
      "note": 63,
      "start": 9.8195,
      "duration": 0.4337,
      "velocity": 99,
      "chip": "ym2612"
    },
    {
      "channel": 1,
      "note": 52,
      "start": 9.9596,
      "duration": 0.1349,
      "velocity": 111,
      "chip": "ym2612"
    },
    {
      "channel": 1,
      "note": 52,
      "start": 10.1071,
      "duration": 0.1455,
      "velocity": 111,
      "chip": "ym2612"
    },
    {
      "channel": 1,
      "note": 52,
      "start": 10.265,
      "duration": 0.1354,
      "velocity": 111,
      "chip": "ym2612"
    },
    {
      "channel": 2,
      "note": 61,
      "start": 10.2665,
      "duration": 0.4398,
      "velocity": 99,
      "chip": "ym2612"
    },
    {
      "channel": 1,
      "note": 52,
      "start": 10.4125,
      "duration": 0.1456,
      "velocity": 111,
      "chip": "ym2612"
    },
    {
      "channel": 0,
      "note": 80,
      "start": 10.4225,
      "duration": 0.0089,
      "velocity": 127,
      "chip": "ym2612"
    },
    {
      "channel": 0,
      "note": 80,
      "start": 10.4314,
      "duration": 0.0007,
      "velocity": 127,
      "chip": "ym2612"
    },
    {
      "channel": 0,
      "note": 79,
      "start": 10.4321,
      "duration": 0.01,
      "velocity": 127,
      "chip": "ym2612"
    },
    {
      "channel": 0,
      "note": 78,
      "start": 10.4421,
      "duration": 0.0106,
      "velocity": 127,
      "chip": "ym2612"
    },
    {
      "channel": 0,
      "note": 77,
      "start": 10.4527,
      "duration": 0.0107,
      "velocity": 127,
      "chip": "ym2612"
    },
    {
      "channel": 0,
      "note": 76,
      "start": 10.4634,
      "duration": 0.0104,
      "velocity": 127,
      "chip": "ym2612"
    },
    {
      "channel": 0,
      "note": 74,
      "start": 10.4737,
      "duration": 0.0111,
      "velocity": 127,
      "chip": "ym2612"
    },
    {
      "channel": 0,
      "note": 73,
      "start": 10.4849,
      "duration": 0.01,
      "velocity": 127,
      "chip": "ym2612"
    },
    {
      "channel": 0,
      "note": 72,
      "start": 10.4949,
      "duration": 0.0105,
      "velocity": 127,
      "chip": "ym2612"
    },
    {
      "channel": 0,
      "note": 70,
      "start": 10.5054,
      "duration": 0.2121,
      "velocity": 127,
      "chip": "ym2612"
    },
    {
      "channel": 1,
      "note": 52,
      "start": 10.5705,
      "duration": 0.1351,
      "velocity": 111,
      "chip": "ym2612"
    },
    {
      "channel": 1,
      "note": 52,
      "start": 10.72,
      "duration": 0.1434,
      "velocity": 111,
      "chip": "ym2612"
    },
    {
      "channel": 2,
      "note": 58,
      "start": 10.721,
      "duration": 1.8179,
      "velocity": 99,
      "chip": "ym2612"
    },
    {
      "channel": 0,
      "note": 26,
      "start": 10.7279,
      "duration": 0.5984,
      "velocity": 125,
      "chip": "ym2612"
    },
    {
      "channel": 1,
      "note": 52,
      "start": 10.876,
      "duration": 0.135,
      "velocity": 111,
      "chip": "ym2612"
    },
    {
      "channel": 1,
      "note": 52,
      "start": 11.0235,
      "duration": 0.0717,
      "velocity": 111,
      "chip": "ym2612"
    },
    {
      "channel": 1,
      "note": 52,
      "start": 11.1077,
      "duration": 0.0612,
      "velocity": 111,
      "chip": "ym2612"
    },
    {
      "channel": 1,
      "note": 52,
      "start": 11.1816,
      "duration": 0.1353,
      "velocity": 111,
      "chip": "ym2612"
    },
    {
      "channel": 1,
      "note": 52,
      "start": 11.3289,
      "duration": 0.1455,
      "velocity": 111,
      "chip": "ym2612"
    },
    {
      "channel": 0,
      "note": 26,
      "start": 11.3388,
      "duration": 0.293,
      "velocity": 125,
      "chip": "ym2612"
    },
    {
      "channel": 1,
      "note": 52,
      "start": 11.487,
      "duration": 0.1349,
      "velocity": 111,
      "chip": "ym2612"
    },
    {
      "channel": 1,
      "note": 52,
      "start": 11.6349,
      "duration": 0.1449,
      "velocity": 111,
      "chip": "ym2612"
    },
    {
      "channel": 0,
      "note": 80,
      "start": 11.6443,
      "duration": 0.0091,
      "velocity": 127,
      "chip": "ym2612"
    },
    {
      "channel": 0,
      "note": 80,
      "start": 11.6534,
      "duration": 0.0007,
      "velocity": 127,
      "chip": "ym2612"
    },
    {
      "channel": 0,
      "note": 79,
      "start": 11.6541,
      "duration": 0.0099,
      "velocity": 127,
      "chip": "ym2612"
    },
    {
      "channel": 0,
      "note": 78,
      "start": 11.6639,
      "duration": 0.0105,
      "velocity": 127,
      "chip": "ym2612"
    },
    {
      "channel": 0,
      "note": 77,
      "start": 11.6745,
      "duration": 0.0106,
      "velocity": 127,
      "chip": "ym2612"
    },
    {
      "channel": 0,
      "note": 76,
      "start": 11.6851,
      "duration": 0.0104,
      "velocity": 127,
      "chip": "ym2612"
    },
    {
      "channel": 0,
      "note": 74,
      "start": 11.6956,
      "duration": 0.0106,
      "velocity": 127,
      "chip": "ym2612"
    },
    {
      "channel": 0,
      "note": 73,
      "start": 11.7061,
      "duration": 0.011,
      "velocity": 127,
      "chip": "ym2612"
    },
    {
      "channel": 0,
      "note": 72,
      "start": 11.7171,
      "duration": 0.01,
      "velocity": 127,
      "chip": "ym2612"
    },
    {
      "channel": 0,
      "note": 70,
      "start": 11.7272,
      "duration": 0.5155,
      "velocity": 127,
      "chip": "ym2612"
    },
    {
      "channel": 1,
      "note": 52,
      "start": 11.7924,
      "duration": 0.135,
      "velocity": 111,
      "chip": "ym2612"
    },
    {
      "channel": 1,
      "note": 52,
      "start": 11.9401,
      "duration": 0.1452,
      "velocity": 111,
      "chip": "ym2612"
    },
    {
      "channel": 1,
      "note": 52,
      "start": 12.0978,
      "duration": 0.1354,
      "velocity": 111,
      "chip": "ym2612"
    },
    {
      "channel": 1,
      "note": 52,
      "start": 12.2453,
      "duration": 0.1455,
      "velocity": 111,
      "chip": "ym2612"
    },
    {
      "channel": 0,
      "note": 26,
      "start": 12.2552,
      "duration": 0.4406,
      "velocity": 125,
      "chip": "ym2612"
    },
    {
      "channel": 1,
      "note": 52,
      "start": 12.4037,
      "duration": 0.1346,
      "velocity": 111,
      "chip": "ym2612"
    },
    {
      "channel": 1,
      "note": 52,
      "start": 12.5513,
      "duration": 0.1452,
      "velocity": 111,
      "chip": "ym2612"
    },
    {
      "channel": 2,
      "note": 56,
      "start": 12.5522,
      "duration": 0.4502,
      "velocity": 99,
      "chip": "ym2612"
    },
    {
      "channel": 0,
      "note": 26,
      "start": 12.7082,
      "duration": 0.1349,
      "velocity": 125,
      "chip": "ym2612"
    },
    {
      "channel": 1,
      "note": 52,
      "start": 12.7109,
      "duration": 0.1328,
      "velocity": 111,
      "chip": "ym2612"
    },
    {
      "channel": 0,
      "note": 80,
      "start": 12.8557,
      "duration": 0.0089,
      "velocity": 127,
      "chip": "ym2612"
    },
    {
      "channel": 1,
      "note": 52,
      "start": 12.8584,
      "duration": 0.1434,
      "velocity": 111,
      "chip": "ym2612"
    },
    {
      "channel": 0,
      "note": 80,
      "start": 12.8646,
      "duration": 0.0007,
      "velocity": 127,
      "chip": "ym2612"
    },
    {
      "channel": 0,
      "note": 79,
      "start": 12.8653,
      "duration": 0.01,
      "velocity": 127,
      "chip": "ym2612"
    },
    {
      "channel": 0,
      "note": 78,
      "start": 12.8753,
      "duration": 0.0107,
      "velocity": 127,
      "chip": "ym2612"
    },
    {
      "channel": 0,
      "note": 77,
      "start": 12.886,
      "duration": 0.0104,
      "velocity": 127,
      "chip": "ym2612"
    },
    {
      "channel": 0,
      "note": 76,
      "start": 12.8964,
      "duration": 0.0106,
      "velocity": 127,
      "chip": "ym2612"
    },
    {
      "channel": 0,
      "note": 74,
      "start": 12.9069,
      "duration": 0.011,
      "velocity": 127,
      "chip": "ym2612"
    },
    {
      "channel": 0,
      "note": 73,
      "start": 12.9179,
      "duration": 0.0101,
      "velocity": 127,
      "chip": "ym2612"
    },
    {
      "channel": 0,
      "note": 72,
      "start": 12.928,
      "duration": 0.0105,
      "velocity": 127,
      "chip": "ym2612"
    },
    {
      "channel": 0,
      "note": 70,
      "start": 12.9385,
      "duration": 0.2101,
      "velocity": 127,
      "chip": "ym2612"
    },
    {
      "channel": 1,
      "note": 52,
      "start": 13.0143,
      "duration": 0.1355,
      "velocity": 111,
      "chip": "ym2612"
    },
    {
      "channel": 2,
      "note": 54,
      "start": 13.0152,
      "duration": 0.2926,
      "velocity": 99,
      "chip": "ym2612"
    },
    {
      "channel": 0,
      "note": 26,
      "start": 13.1611,
      "duration": 0.2931,
      "velocity": 125,
      "chip": "ym2612"
    },
    {
      "channel": 1,
      "note": 52,
      "start": 13.1638,
      "duration": 0.1434,
      "velocity": 111,
      "chip": "ym2612"
    },
    {
      "channel": 1,
      "note": 52,
      "start": 13.3202,
      "duration": 0.1347,
      "velocity": 111,
      "chip": "ym2612"
    },
    {
      "channel": 2,
      "note": 51,
      "start": 13.3212,
      "duration": 0.1344,
      "velocity": 99,
      "chip": "ym2612"
    },
    {
      "channel": 0,
      "note": 26,
      "start": 13.4671,
      "duration": 0.5979,
      "velocity": 125,
      "chip": "ym2612"
    },
    {
      "channel": 1,
      "note": 52,
      "start": 13.4698,
      "duration": 0.0691,
      "velocity": 111,
      "chip": "ym2612"
    },
    {
      "channel": 2,
      "note": 54,
      "start": 13.4707,
      "duration": 0.2901,
      "velocity": 99,
      "chip": "ym2612"
    },
    {
      "channel": 1,
      "note": 52,
      "start": 13.5521,
      "duration": 0.0605,
      "velocity": 111,
      "chip": "ym2612"
    },
    {
      "channel": 1,
      "note": 52,
      "start": 13.6252,
      "duration": 0.135,
      "velocity": 111,
      "chip": "ym2612"
    },
    {
      "channel": 1,
      "note": 52,
      "start": 13.7727,
      "duration": 0.1457,
      "velocity": 111,
      "chip": "ym2612"
    },
    {
      "channel": 2,
      "note": 51,
      "start": 13.7737,
      "duration": 0.2931,
      "velocity": 99,
      "chip": "ym2612"
    },
    {
      "channel": 1,
      "note": 52,
      "start": 13.9308,
      "duration": 0.1351,
      "velocity": 111,
      "chip": "ym2612"
    },
    {
      "channel": 0,
      "note": 80,
      "start": 14.0775,
      "duration": 0.009,
      "velocity": 127,
      "chip": "ym2612"
    },
    {
      "channel": 1,
      "note": 52,
      "start": 14.0802,
      "duration": 0.1434,
      "velocity": 111,
      "chip": "ym2612"
    },
    {
      "channel": 2,
      "note": 49,
      "start": 14.0811,
      "duration": 0.2906,
      "velocity": 99,
      "chip": "ym2612"
    },
    {
      "channel": 0,
      "note": 80,
      "start": 14.0865,
      "duration": 0.0007,
      "velocity": 127,
      "chip": "ym2612"
    },
    {
      "channel": 0,
      "note": 79,
      "start": 14.0872,
      "duration": 0.01,
      "velocity": 127,
      "chip": "ym2612"
    },
    {
      "channel": 0,
      "note": 78,
      "start": 14.0972,
      "duration": 0.0105,
      "velocity": 127,
      "chip": "ym2612"
    },
    {
      "channel": 0,
      "note": 77,
      "start": 14.1077,
      "duration": 0.0109,
      "velocity": 127,
      "chip": "ym2612"
    },
    {
      "channel": 0,
      "note": 76,
      "start": 14.1186,
      "duration": 0.0102,
      "velocity": 127,
      "chip": "ym2612"
    },
    {
      "channel": 0,
      "note": 74,
      "start": 14.1288,
      "duration": 0.0105,
      "velocity": 127,
      "chip": "ym2612"
    },
    {
      "channel": 0,
      "note": 73,
      "start": 14.1393,
      "duration": 0.011,
      "velocity": 127,
      "chip": "ym2612"
    },
    {
      "channel": 0,
      "note": 72,
      "start": 14.1503,
      "duration": 0.0101,
      "velocity": 127,
      "chip": "ym2612"
    },
    {
      "channel": 0,
      "note": 70,
      "start": 14.1604,
      "duration": 0.5157,
      "velocity": 127,
      "chip": "ym2612"
    },
    {
      "channel": 1,
      "note": 52,
      "start": 14.2366,
      "duration": 0.1344,
      "velocity": 111,
      "chip": "ym2612"
    },
    {
      "channel": 1,
      "note": 52,
      "start": 14.3841,
      "duration": 0.145,
      "velocity": 111,
      "chip": "ym2612"
    },
    {
      "channel": 2,
      "note": 51,
      "start": 14.3851,
      "duration": 0.2924,
      "velocity": 99,
      "chip": "ym2612"
    },
    {
      "channel": 1,
      "note": 52,
      "start": 14.5416,
      "duration": 0.1352,
      "velocity": 111,
      "chip": "ym2612"
    },
    {
      "channel": 0,
      "note": 26,
      "start": 14.69,
      "duration": 0.5969,
      "velocity": 125,
      "chip": "ym2612"
    },
    {
      "channel": 1,
      "note": 52,
      "start": 14.6927,
      "duration": 0.1422,
      "velocity": 111,
      "chip": "ym2612"
    },
    {
      "channel": 2,
      "note": 51,
      "start": 14.6937,
      "duration": 1.5109,
      "velocity": 99,
      "chip": "ym2612"
    },
    {
      "channel": 1,
      "note": 52,
      "start": 14.8471,
      "duration": 0.1349,
      "velocity": 111,
      "chip": "ym2612"
    },
    {
      "channel": 1,
      "note": 52,
      "start": 14.9946,
      "duration": 0.1454,
      "velocity": 111,
      "chip": "ym2612"
    },
    {
      "channel": 1,
      "note": 52,
      "start": 15.1532,
      "duration": 0.1344,
      "velocity": 111,
      "chip": "ym2612"
    },
    {
      "channel": 0,
      "note": 80,
      "start": 15.2999,
      "duration": 0.0085,
      "velocity": 127,
      "chip": "ym2612"
    },
    {
      "channel": 1,
      "note": 52,
      "start": 15.3027,
      "duration": 0.1428,
      "velocity": 111,
      "chip": "ym2612"
    },
    {
      "channel": 0,
      "note": 80,
      "start": 15.3084,
      "duration": 0.0007,
      "velocity": 127,
      "chip": "ym2612"
    },
    {
      "channel": 0,
      "note": 79,
      "start": 15.3091,
      "duration": 0.0101,
      "velocity": 127,
      "chip": "ym2612"
    },
    {
      "channel": 0,
      "note": 78,
      "start": 15.3192,
      "duration": 0.0105,
      "velocity": 127,
      "chip": "ym2612"
    },
    {
      "channel": 0,
      "note": 77,
      "start": 15.3297,
      "duration": 0.0107,
      "velocity": 127,
      "chip": "ym2612"
    },
    {
      "channel": 0,
      "note": 76,
      "start": 15.3403,
      "duration": 0.0108,
      "velocity": 127,
      "chip": "ym2612"
    },
    {
      "channel": 0,
      "note": 74,
      "start": 15.3512,
      "duration": 0.01,
      "velocity": 127,
      "chip": "ym2612"
    },
    {
      "channel": 0,
      "note": 73,
      "start": 15.3612,
      "duration": 0.0106,
      "velocity": 127,
      "chip": "ym2612"
    },
    {
      "channel": 0,
      "note": 72,
      "start": 15.3718,
      "duration": 0.0107,
      "velocity": 127,
      "chip": "ym2612"
    },
    {
      "channel": 0,
      "note": 70,
      "start": 15.3824,
      "duration": 0.21,
      "velocity": 127,
      "chip": "ym2612"
    },
    {
      "channel": 1,
      "note": 52,
      "start": 15.458,
      "duration": 0.1351,
      "velocity": 111,
      "chip": "ym2612"
    },
    {
      "channel": 0,
      "note": 26,
      "start": 15.6049,
      "duration": 0.5984,
      "velocity": 125,
      "chip": "ym2612"
    },
    {
      "channel": 1,
      "note": 52,
      "start": 15.6076,
      "duration": 0.1439,
      "velocity": 111,
      "chip": "ym2612"
    },
    {
      "channel": 1,
      "note": 52,
      "start": 15.7634,
      "duration": 0.135,
      "velocity": 111,
      "chip": "ym2612"
    },
    {
      "channel": 1,
      "note": 52,
      "start": 15.9111,
      "duration": 0.061,
      "velocity": 111,
      "chip": "ym2612"
    },
    {
      "channel": 1,
      "note": 52,
      "start": 15.9852,
      "duration": 0.0712,
      "velocity": 111,
      "chip": "ym2612"
    },
    {
      "channel": 1,
      "note": 52,
      "start": 16.0695,
      "duration": 0.1345,
      "velocity": 111,
      "chip": "ym2612"
    },
    {
      "channel": 0,
      "note": 26,
      "start": 16.2163,
      "duration": 0.2924,
      "velocity": 125,
      "chip": "ym2612"
    },
    {
      "channel": 1,
      "note": 52,
      "start": 16.219,
      "duration": 0.1428,
      "velocity": 111,
      "chip": "ym2612"
    },
    {
      "channel": 2,
      "note": 49,
      "start": 16.22,
      "duration": 0.5956,
      "velocity": 99,
      "chip": "ym2612"
    },
    {
      "channel": 1,
      "note": 52,
      "start": 16.3744,
      "duration": 0.135,
      "velocity": 111,
      "chip": "ym2612"
    },
    {
      "channel": 0,
      "note": 80,
      "start": 16.5213,
      "duration": 0.009,
      "velocity": 127,
      "chip": "ym2612"
    },
    {
      "channel": 1,
      "note": 52,
      "start": 16.524,
      "duration": 0.144,
      "velocity": 111,
      "chip": "ym2612"
    },
    {
      "channel": 0,
      "note": 80,
      "start": 16.5303,
      "duration": 0.0006,
      "velocity": 127,
      "chip": "ym2612"
    },
    {
      "channel": 0,
      "note": 79,
      "start": 16.5309,
      "duration": 0.01,
      "velocity": 127,
      "chip": "ym2612"
    },
    {
      "channel": 0,
      "note": 78,
      "start": 16.5409,
      "duration": 0.0107,
      "velocity": 127,
      "chip": "ym2612"
    },
    {
      "channel": 0,
      "note": 77,
      "start": 16.5517,
      "duration": 0.0104,
      "velocity": 127,
      "chip": "ym2612"
    },
    {
      "channel": 0,
      "note": 76,
      "start": 16.562,
      "duration": 0.0107,
      "velocity": 127,
      "chip": "ym2612"
    },
    {
      "channel": 0,
      "note": 74,
      "start": 16.5727,
      "duration": 0.0108,
      "velocity": 127,
      "chip": "ym2612"
    },
    {
      "channel": 0,
      "note": 73,
      "start": 16.5835,
      "duration": 0.0102,
      "velocity": 127,
      "chip": "ym2612"
    },
    {
      "channel": 0,
      "note": 72,
      "start": 16.5937,
      "duration": 0.0105,
      "velocity": 127,
      "chip": "ym2612"
    },
    {
      "channel": 0,
      "note": 70,
      "start": 16.6042,
      "duration": 0.5156,
      "velocity": 127,
      "chip": "ym2612"
    },
    {
      "channel": 1,
      "note": 52,
      "start": 16.6798,
      "duration": 0.1351,
      "velocity": 111,
      "chip": "ym2612"
    },
    {
      "channel": 1,
      "note": 52,
      "start": 16.8274,
      "duration": 0.1455,
      "velocity": 111,
      "chip": "ym2612"
    },
    {
      "channel": 2,
      "note": 49,
      "start": 16.8284,
      "duration": 0.2928,
      "velocity": 99,
      "chip": "ym2612"
    },
    {
      "channel": 1,
      "note": 52,
      "start": 16.9858,
      "duration": 0.1347,
      "velocity": 111,
      "chip": "ym2612"
    },
    {
      "channel": 0,
      "note": 26,
      "start": 17.1342,
      "duration": 0.5966,
      "velocity": 125,
      "chip": "ym2612"
    },
    {
      "channel": 1,
      "note": 52,
      "start": 17.1369,
      "duration": 0.1415,
      "velocity": 111,
      "chip": "ym2612"
    },
    {
      "channel": 2,
      "note": 49,
      "start": 17.1378,
      "duration": 0.1412,
      "velocity": 99,
      "chip": "ym2612"
    },
    {
      "channel": 1,
      "note": 52,
      "start": 17.2922,
      "duration": 0.1336,
      "velocity": 111,
      "chip": "ym2612"
    },
    {
      "channel": 2,
      "note": 51,
      "start": 17.2932,
      "duration": 0.4389,
      "velocity": 99,
      "chip": "ym2612"
    },
    {
      "channel": 1,
      "note": 52,
      "start": 17.4384,
      "duration": 0.1459,
      "velocity": 111,
      "chip": "ym2612"
    },
    {
      "channel": 1,
      "note": 52,
      "start": 17.5963,
      "duration": 0.1352,
      "velocity": 111,
      "chip": "ym2612"
    },
    {
      "channel": 0,
      "note": 80,
      "start": 17.7447,
      "duration": 0.0085,
      "velocity": 127,
      "chip": "ym2612"
    },
    {
      "channel": 1,
      "note": 52,
      "start": 17.7473,
      "duration": 0.1314,
      "velocity": 111,
      "chip": "ym2612"
    },
    {
      "channel": 2,
      "note": 51,
      "start": 17.7483,
      "duration": 1.8061,
      "velocity": 99,
      "chip": "ym2612"
    },
    {
      "channel": 0,
      "note": 80,
      "start": 17.7532,
      "duration": 0.0007,
      "velocity": 127,
      "chip": "ym2612"
    },
    {
      "channel": 0,
      "note": 79,
      "start": 17.7539,
      "duration": 0.009,
      "velocity": 127,
      "chip": "ym2612"
    },
    {
      "channel": 0,
      "note": 78,
      "start": 17.7629,
      "duration": 0.0105,
      "velocity": 127,
      "chip": "ym2612"
    },
    {
      "channel": 0,
      "note": 77,
      "start": 17.7734,
      "duration": 0.011,
      "velocity": 127,
      "chip": "ym2612"
    },
    {
      "channel": 0,
      "note": 76,
      "start": 17.7844,
      "duration": 0.01,
      "velocity": 127,
      "chip": "ym2612"
    },
    {
      "channel": 0,
      "note": 74,
      "start": 17.7945,
      "duration": 0.0106,
      "velocity": 127,
      "chip": "ym2612"
    },
    {
      "channel": 0,
      "note": 73,
      "start": 17.805,
      "duration": 0.0107,
      "velocity": 127,
      "chip": "ym2612"
    },
    {
      "channel": 0,
      "note": 72,
      "start": 17.8157,
      "duration": 0.0106,
      "velocity": 127,
      "chip": "ym2612"
    },
    {
      "channel": 0,
      "note": 70,
      "start": 17.8263,
      "duration": 0.2099,
      "velocity": 127,
      "chip": "ym2612"
    },
    {
      "channel": 1,
      "note": 52,
      "start": 17.8913,
      "duration": 0.1455,
      "velocity": 111,
      "chip": "ym2612"
    },
    {
      "channel": 0,
      "note": 26,
      "start": 18.0487,
      "duration": 0.4405,
      "velocity": 125,
      "chip": "ym2612"
    },
    {
      "channel": 1,
      "note": 52,
      "start": 18.0519,
      "duration": 0.1328,
      "velocity": 111,
      "chip": "ym2612"
    },
    {
      "channel": 1,
      "note": 52,
      "start": 18.1968,
      "duration": 0.1455,
      "velocity": 111,
      "chip": "ym2612"
    },
    {
      "channel": 1,
      "note": 52,
      "start": 18.3547,
      "duration": 0.0617,
      "velocity": 111,
      "chip": "ym2612"
    },
    {
      "channel": 1,
      "note": 52,
      "start": 18.4284,
      "duration": 0.0614,
      "velocity": 111,
      "chip": "ym2612"
    },
    {
      "channel": 0,
      "note": 26,
      "start": 18.502,
      "duration": 0.2925,
      "velocity": 125,
      "chip": "ym2612"
    },
    {
      "channel": 1,
      "note": 52,
      "start": 18.5047,
      "duration": 0.143,
      "velocity": 111,
      "chip": "ym2612"
    },
    {
      "channel": 1,
      "note": 52,
      "start": 18.6602,
      "duration": 0.1349,
      "velocity": 111,
      "chip": "ym2612"
    },
    {
      "channel": 0,
      "note": 26,
      "start": 18.8071,
      "duration": 0.135,
      "velocity": 125,
      "chip": "ym2612"
    },
    {
      "channel": 1,
      "note": 52,
      "start": 18.8097,
      "duration": 0.1456,
      "velocity": 111,
      "chip": "ym2612"
    },
    {
      "channel": 0,
      "note": 80,
      "start": 18.9546,
      "duration": 0.009,
      "velocity": 127,
      "chip": "ym2612"
    },
    {
      "channel": 0,
      "note": 80,
      "start": 18.9636,
      "duration": 0.0007,
      "velocity": 127,
      "chip": "ym2612"
    },
    {
      "channel": 0,
      "note": 79,
      "start": 18.9643,
      "duration": 0.0099,
      "velocity": 127,
      "chip": "ym2612"
    },
    {
      "channel": 1,
      "note": 52,
      "start": 18.9671,
      "duration": 0.134,
      "velocity": 111,
      "chip": "ym2612"
    },
    {
      "channel": 0,
      "note": 78,
      "start": 18.9742,
      "duration": 0.0108,
      "velocity": 127,
      "chip": "ym2612"
    },
    {
      "channel": 0,
      "note": 77,
      "start": 18.9851,
      "duration": 0.0102,
      "velocity": 127,
      "chip": "ym2612"
    },
    {
      "channel": 0,
      "note": 76,
      "start": 18.9953,
      "duration": 0.0105,
      "velocity": 127,
      "chip": "ym2612"
    },
    {
      "channel": 0,
      "note": 74,
      "start": 19.0059,
      "duration": 0.011,
      "velocity": 127,
      "chip": "ym2612"
    },
    {
      "channel": 0,
      "note": 73,
      "start": 19.0169,
      "duration": 0.01,
      "velocity": 127,
      "chip": "ym2612"
    },
    {
      "channel": 0,
      "note": 72,
      "start": 19.0269,
      "duration": 0.0105,
      "velocity": 127,
      "chip": "ym2612"
    },
    {
      "channel": 0,
      "note": 70,
      "start": 19.0374,
      "duration": 0.2102,
      "velocity": 127,
      "chip": "ym2612"
    },
    {
      "channel": 1,
      "note": 52,
      "start": 19.113,
      "duration": 0.1477,
      "velocity": 111,
      "chip": "ym2612"
    },
    {
      "channel": 0,
      "note": 26,
      "start": 19.26,
      "duration": 0.2931,
      "velocity": 125,
      "chip": "ym2612"
    },
    {
      "channel": 1,
      "note": 52,
      "start": 19.2711,
      "duration": 0.135,
      "velocity": 111,
      "chip": "ym2612"
    },
    {
      "channel": 1,
      "note": 52,
      "start": 19.4191,
      "duration": 0.1347,
      "velocity": 111,
      "chip": "ym2612"
    },
    {
      "channel": 0,
      "note": 26,
      "start": 19.5677,
      "duration": 0.6071,
      "velocity": 125,
      "chip": "ym2612"
    },
    {
      "channel": 1,
      "note": 52,
      "start": 19.5704,
      "duration": 0.1408,
      "velocity": 111,
      "chip": "ym2612"
    },
    {
      "channel": 3,
      "note": 87,
      "start": 19.5761,
      "duration": 0.8954,
      "velocity": 86,
      "chip": "ym2612"
    },
    {
      "channel": 4,
      "note": 87,
      "start": 19.5791,
      "duration": 0.8931,
      "velocity": 104,
      "chip": "ym2612"
    },
    {
      "channel": 5,
      "note": 87,
      "start": 19.582,
      "duration": 0.8908,
      "velocity": 108,
      "chip": "ym2612"
    },
    {
      "channel": 1,
      "note": 52,
      "start": 19.7243,
      "duration": 0.1344,
      "velocity": 111,
      "chip": "ym2612"
    },
    {
      "channel": 1,
      "note": 52,
      "start": 19.8725,
      "duration": 0.1454,
      "velocity": 111,
      "chip": "ym2612"
    },
    {
      "channel": 2,
      "note": 51,
      "start": 19.8734,
      "duration": 0.145,
      "velocity": 99,
      "chip": "ym2612"
    },
    {
      "channel": 1,
      "note": 52,
      "start": 20.0299,
      "duration": 0.1349,
      "velocity": 111,
      "chip": "ym2612"
    },
    {
      "channel": 2,
      "note": 51,
      "start": 20.0309,
      "duration": 0.1345,
      "velocity": 99,
      "chip": "ym2612"
    },
    {
      "channel": 1,
      "note": 52,
      "start": 20.1774,
      "duration": 0.1454,
      "velocity": 111,
      "chip": "ym2612"
    },
    {
      "channel": 2,
      "note": 51,
      "start": 20.1784,
      "duration": 0.2925,
      "velocity": 99,
      "chip": "ym2612"
    },
    {
      "channel": 0,
      "note": 80,
      "start": 20.1868,
      "duration": 0.0089,
      "velocity": 127,
      "chip": "ym2612"
    },
    {
      "channel": 0,
      "note": 80,
      "start": 20.1957,
      "duration": 0.0007,
      "velocity": 127,
      "chip": "ym2612"
    },
    {
      "channel": 0,
      "note": 79,
      "start": 20.1964,
      "duration": 0.01,
      "velocity": 127,
      "chip": "ym2612"
    },
    {
      "channel": 0,
      "note": 78,
      "start": 20.2065,
      "duration": 0.011,
      "velocity": 127,
      "chip": "ym2612"
    },
    {
      "channel": 0,
      "note": 77,
      "start": 20.2175,
      "duration": 0.01,
      "velocity": 127,
      "chip": "ym2612"
    },
    {
      "channel": 0,
      "note": 76,
      "start": 20.2276,
      "duration": 0.0106,
      "velocity": 127,
      "chip": "ym2612"
    },
    {
      "channel": 0,
      "note": 74,
      "start": 20.2381,
      "duration": 0.0105,
      "velocity": 127,
      "chip": "ym2612"
    },
    {
      "channel": 0,
      "note": 73,
      "start": 20.2486,
      "duration": 0.0104,
      "velocity": 127,
      "chip": "ym2612"
    },
    {
      "channel": 0,
      "note": 72,
      "start": 20.259,
      "duration": 0.0104,
      "velocity": 127,
      "chip": "ym2612"
    },
    {
      "channel": 0,
      "note": 70,
      "start": 20.2695,
      "duration": 0.2108,
      "velocity": 127,
      "chip": "ym2612"
    },
    {
      "channel": 1,
      "note": 52,
      "start": 20.3359,
      "duration": 0.1344,
      "velocity": 111,
      "chip": "ym2612"
    },
    {
      "channel": 1,
      "note": 52,
      "start": 20.4834,
      "duration": 0.1449,
      "velocity": 111,
      "chip": "ym2612"
    },
    {
      "channel": 2,
      "note": 49,
      "start": 20.4844,
      "duration": 0.1445,
      "velocity": 99,
      "chip": "ym2612"
    },
    {
      "channel": 3,
      "note": 82,
      "start": 20.4853,
      "duration": 1.5136,
      "velocity": 86,
      "chip": "ym2612"
    },
    {
      "channel": 4,
      "note": 82,
      "start": 20.4863,
      "duration": 1.5137,
      "velocity": 104,
      "chip": "ym2612"
    },
    {
      "channel": 5,
      "note": 82,
      "start": 20.4872,
      "duration": 1.5135,
      "velocity": 108,
      "chip": "ym2612"
    },
    {
      "channel": 0,
      "note": 26,
      "start": 20.4923,
      "duration": 0.5989,
      "velocity": 125,
      "chip": "ym2612"
    },
    {
      "channel": 1,
      "note": 52,
      "start": 20.6408,
      "duration": 0.1349,
      "velocity": 111,
      "chip": "ym2612"
    },
    {
      "channel": 2,
      "note": 51,
      "start": 20.6418,
      "duration": 0.44,
      "velocity": 99,
      "chip": "ym2612"
    },
    {
      "channel": 1,
      "note": 52,
      "start": 20.7883,
      "duration": 0.0712,
      "velocity": 111,
      "chip": "ym2612"
    },
    {
      "channel": 1,
      "note": 52,
      "start": 20.872,
      "duration": 0.0622,
      "velocity": 111,
      "chip": "ym2612"
    },
    {
      "channel": 1,
      "note": 52,
      "start": 20.9463,
      "duration": 0.1349,
      "velocity": 111,
      "chip": "ym2612"
    },
    {
      "channel": 1,
      "note": 52,
      "start": 21.0938,
      "duration": 0.1454,
      "velocity": 111,
      "chip": "ym2612"
    },
    {
      "channel": 2,
      "note": 51,
      "start": 21.0948,
      "duration": 0.2925,
      "velocity": 99,
      "chip": "ym2612"
    },
    {
      "channel": 0,
      "note": 26,
      "start": 21.1032,
      "duration": 0.2934,
      "velocity": 125,
      "chip": "ym2612"
    },
    {
      "channel": 1,
      "note": 52,
      "start": 21.2522,
      "duration": 0.1344,
      "velocity": 111,
      "chip": "ym2612"
    },
    {
      "channel": 1,
      "note": 52,
      "start": 21.3998,
      "duration": 0.1449,
      "velocity": 111,
      "chip": "ym2612"
    },
    {
      "channel": 2,
      "note": 39,
      "start": 21.4007,
      "duration": 0.903,
      "velocity": 99,
      "chip": "ym2612"
    },
    {
      "channel": 0,
      "note": 80,
      "start": 21.4087,
      "duration": 0.0093,
      "velocity": 127,
      "chip": "ym2612"
    },
    {
      "channel": 0,
      "note": 80,
      "start": 21.4179,
      "duration": 0.0007,
      "velocity": 127,
      "chip": "ym2612"
    },
    {
      "channel": 0,
      "note": 79,
      "start": 21.4186,
      "duration": 0.0097,
      "velocity": 127,
      "chip": "ym2612"
    },
    {
      "channel": 0,
      "note": 78,
      "start": 21.4284,
      "duration": 0.0105,
      "velocity": 127,
      "chip": "ym2612"
    },
    {
      "channel": 0,
      "note": 77,
      "start": 21.4389,
      "duration": 0.0111,
      "velocity": 127,
      "chip": "ym2612"
    },
    {
      "channel": 0,
      "note": 76,
      "start": 21.4499,
      "duration": 0.01,
      "velocity": 127,
      "chip": "ym2612"
    },
    {
      "channel": 0,
      "note": 74,
      "start": 21.4599,
      "duration": 0.0106,
      "velocity": 127,
      "chip": "ym2612"
    },
    {
      "channel": 0,
      "note": 73,
      "start": 21.4705,
      "duration": 0.0104,
      "velocity": 127,
      "chip": "ym2612"
    },
    {
      "channel": 0,
      "note": 72,
      "start": 21.4809,
      "duration": 0.0104,
      "velocity": 127,
      "chip": "ym2612"
    },
    {
      "channel": 0,
      "note": 70,
      "start": 21.4913,
      "duration": 0.5163,
      "velocity": 127,
      "chip": "ym2612"
    },
    {
      "channel": 1,
      "note": 52,
      "start": 21.5573,
      "duration": 0.1349,
      "velocity": 111,
      "chip": "ym2612"
    },
    {
      "channel": 1,
      "note": 52,
      "start": 21.7047,
      "duration": 0.1459,
      "velocity": 111,
      "chip": "ym2612"
    },
    {
      "channel": 1,
      "note": 52,
      "start": 21.8627,
      "duration": 0.1349,
      "velocity": 111,
      "chip": "ym2612"
    },
    {
      "channel": 1,
      "note": 52,
      "start": 22.0102,
      "duration": 0.1454,
      "velocity": 111,
      "chip": "ym2612"
    },
    {
      "channel": 3,
      "note": 85,
      "start": 22.0118,
      "duration": 0.9036,
      "velocity": 86,
      "chip": "ym2612"
    },
    {
      "channel": 4,
      "note": 85,
      "start": 22.0127,
      "duration": 0.9038,
      "velocity": 104,
      "chip": "ym2612"
    },
    {
      "channel": 5,
      "note": 85,
      "start": 22.0137,
      "duration": 0.9035,
      "velocity": 108,
      "chip": "ym2612"
    },
    {
      "channel": 0,
      "note": 26,
      "start": 22.0197,
      "duration": 0.4408,
      "velocity": 125,
      "chip": "ym2612"
    },
    {
      "channel": 1,
      "note": 52,
      "start": 22.1686,
      "duration": 0.1344,
      "velocity": 111,
      "chip": "ym2612"
    },
    {
      "channel": 1,
      "note": 52,
      "start": 22.3159,
      "duration": 0.1452,
      "velocity": 111,
      "chip": "ym2612"
    },
    {
      "channel": 2,
      "note": 51,
      "start": 22.3171,
      "duration": 0.1446,
      "velocity": 99,
      "chip": "ym2612"
    },
    {
      "channel": 0,
      "note": 26,
      "start": 22.473,
      "duration": 0.1349,
      "velocity": 125,
      "chip": "ym2612"
    },
    {
      "channel": 1,
      "note": 52,
      "start": 22.4758,
      "duration": 0.1328,
      "velocity": 111,
      "chip": "ym2612"
    },
    {
      "channel": 2,
      "note": 51,
      "start": 22.4767,
      "duration": 0.1325,
      "velocity": 99,
      "chip": "ym2612"
    },
    {
      "channel": 0,
      "note": 80,
      "start": 22.6205,
      "duration": 0.0084,
      "velocity": 127,
      "chip": "ym2612"
    },
    {
      "channel": 1,
      "note": 52,
      "start": 22.6232,
      "duration": 0.1438,
      "velocity": 111,
      "chip": "ym2612"
    },
    {
      "channel": 2,
      "note": 51,
      "start": 22.6242,
      "duration": 0.2905,
      "velocity": 99,
      "chip": "ym2612"
    },
    {
      "channel": 0,
      "note": 80,
      "start": 22.629,
      "duration": 0.0007,
      "velocity": 127,
      "chip": "ym2612"
    },
    {
      "channel": 0,
      "note": 79,
      "start": 22.6297,
      "duration": 0.01,
      "velocity": 127,
      "chip": "ym2612"
    },
    {
      "channel": 0,
      "note": 78,
      "start": 22.6397,
      "duration": 0.0111,
      "velocity": 127,
      "chip": "ym2612"
    },
    {
      "channel": 0,
      "note": 77,
      "start": 22.6508,
      "duration": 0.01,
      "velocity": 127,
      "chip": "ym2612"
    },
    {
      "channel": 0,
      "note": 76,
      "start": 22.6607,
      "duration": 0.0106,
      "velocity": 127,
      "chip": "ym2612"
    },
    {
      "channel": 0,
      "note": 74,
      "start": 22.6713,
      "duration": 0.0105,
      "velocity": 127,
      "chip": "ym2612"
    },
    {
      "channel": 0,
      "note": 73,
      "start": 22.6818,
      "duration": 0.0106,
      "velocity": 127,
      "chip": "ym2612"
    },
    {
      "channel": 0,
      "note": 72,
      "start": 22.6924,
      "duration": 0.0104,
      "velocity": 127,
      "chip": "ym2612"
    },
    {
      "channel": 0,
      "note": 70,
      "start": 22.7028,
      "duration": 0.2106,
      "velocity": 127,
      "chip": "ym2612"
    },
    {
      "channel": 1,
      "note": 52,
      "start": 22.7791,
      "duration": 0.1349,
      "velocity": 111,
      "chip": "ym2612"
    },
    {
      "channel": 0,
      "note": 26,
      "start": 22.926,
      "duration": 0.2928,
      "velocity": 125,
      "chip": "ym2612"
    },
    {
      "channel": 1,
      "note": 52,
      "start": 22.9287,
      "duration": 0.1433,
      "velocity": 111,
      "chip": "ym2612"
    },
    {
      "channel": 2,
      "note": 49,
      "start": 22.9297,
      "duration": 0.143,
      "velocity": 99,
      "chip": "ym2612"
    },
    {
      "channel": 3,
      "note": 80,
      "start": 22.9306,
      "duration": 1.512,
      "velocity": 86,
      "chip": "ym2612"
    },
    {
      "channel": 4,
      "note": 80,
      "start": 22.9316,
      "duration": 1.5118,
      "velocity": 104,
      "chip": "ym2612"
    },
    {
      "channel": 5,
      "note": 80,
      "start": 22.9329,
      "duration": 1.511,
      "velocity": 108,
      "chip": "ym2612"
    },
    {
      "channel": 1,
      "note": 52,
      "start": 23.0851,
      "duration": 0.1344,
      "velocity": 111,
      "chip": "ym2612"
    },
    {
      "channel": 2,
      "note": 51,
      "start": 23.086,
      "duration": 0.4396,
      "velocity": 99,
      "chip": "ym2612"
    },
    {
      "channel": 0,
      "note": 26,
      "start": 23.2314,
      "duration": 0.5983,
      "velocity": 125,
      "chip": "ym2612"
    },
    {
      "channel": 1,
      "note": 52,
      "start": 23.2347,
      "duration": 0.0686,
      "velocity": 111,
      "chip": "ym2612"
    },
    {
      "channel": 1,
      "note": 52,
      "start": 23.3162,
      "duration": 0.0612,
      "velocity": 111,
      "chip": "ym2612"
    },
    {
      "channel": 1,
      "note": 52,
      "start": 23.3901,
      "duration": 0.1349,
      "velocity": 111,
      "chip": "ym2612"
    },
    {
      "channel": 1,
      "note": 52,
      "start": 23.5375,
      "duration": 0.1459,
      "velocity": 111,
      "chip": "ym2612"
    },
    {
      "channel": 2,
      "note": 51,
      "start": 23.5385,
      "duration": 0.2926,
      "velocity": 99,
      "chip": "ym2612"
    },
    {
      "channel": 1,
      "note": 52,
      "start": 23.6955,
      "duration": 0.1349,
      "velocity": 111,
      "chip": "ym2612"
    },
    {
      "channel": 0,
      "note": 80,
      "start": 23.8424,
      "duration": 0.0088,
      "velocity": 127,
      "chip": "ym2612"
    },
    {
      "channel": 1,
      "note": 52,
      "start": 23.8451,
      "duration": 0.1433,
      "velocity": 111,
      "chip": "ym2612"
    },
    {
      "channel": 2,
      "note": 39,
      "start": 23.8461,
      "duration": 0.9014,
      "velocity": 99,
      "chip": "ym2612"
    },
    {
      "channel": 0,
      "note": 80,
      "start": 23.8512,
      "duration": 0.0007,
      "velocity": 127,
      "chip": "ym2612"
    },
    {
      "channel": 0,
      "note": 79,
      "start": 23.8519,
      "duration": 0.0097,
      "velocity": 127,
      "chip": "ym2612"
    },
    {
      "channel": 0,
      "note": 78,
      "start": 23.8616,
      "duration": 0.0105,
      "velocity": 127,
      "chip": "ym2612"
    },
    {
      "channel": 0,
      "note": 77,
      "start": 23.8721,
      "duration": 0.0111,
      "velocity": 127,
      "chip": "ym2612"
    },
    {
      "channel": 0,
      "note": 76,
      "start": 23.8832,
      "duration": 0.01,
      "velocity": 127,
      "chip": "ym2612"
    },
    {
      "channel": 0,
      "note": 74,
      "start": 23.8931,
      "duration": 0.0106,
      "velocity": 127,
      "chip": "ym2612"
    },
    {
      "channel": 0,
      "note": 73,
      "start": 23.9037,
      "duration": 0.0106,
      "velocity": 127,
      "chip": "ym2612"
    },
    {
      "channel": 0,
      "note": 72,
      "start": 23.9143,
      "duration": 0.0104,
      "velocity": 127,
      "chip": "ym2612"
    },
    {
      "channel": 0,
      "note": 70,
      "start": 23.9247,
      "duration": 0.516,
      "velocity": 127,
      "chip": "ym2612"
    },
    {
      "channel": 1,
      "note": 52,
      "start": 24.0015,
      "duration": 0.1343,
      "velocity": 111,
      "chip": "ym2612"
    },
    {
      "channel": 1,
      "note": 52,
      "start": 24.1484,
      "duration": 0.1455,
      "velocity": 111,
      "chip": "ym2612"
    },
    {
      "channel": 1,
      "note": 52,
      "start": 24.3065,
      "duration": 0.1349,
      "velocity": 111,
      "chip": "ym2612"
    },
    {
      "channel": 0,
      "note": 26,
      "start": 24.4534,
      "duration": 0.5982,
      "velocity": 125,
      "chip": "ym2612"
    },
    {
      "channel": 1,
      "note": 52,
      "start": 24.4562,
      "duration": 0.1437,
      "velocity": 111,
      "chip": "ym2612"
    },
    {
      "channel": 3,
      "note": 82,
      "start": 24.4577,
      "duration": 2.6604,
      "velocity": 86,
      "chip": "ym2612"
    },
    {
      "channel": 4,
      "note": 82,
      "start": 24.4587,
      "duration": 2.6601,
      "velocity": 104,
      "chip": "ym2612"
    },
    {
      "channel": 5,
      "note": 82,
      "start": 24.4596,
      "duration": 2.6598,
      "velocity": 108,
      "chip": "ym2612"
    },
    {
      "channel": 1,
      "note": 52,
      "start": 24.6119,
      "duration": 0.1349,
      "velocity": 111,
      "chip": "ym2612"
    },
    {
      "channel": 1,
      "note": 52,
      "start": 24.7594,
      "duration": 0.1454,
      "velocity": 111,
      "chip": "ym2612"
    },
    {
      "channel": 2,
      "note": 51,
      "start": 24.7604,
      "duration": 0.1451,
      "velocity": 99,
      "chip": "ym2612"
    },
    {
      "channel": 1,
      "note": 52,
      "start": 24.9179,
      "duration": 0.1344,
      "velocity": 111,
      "chip": "ym2612"
    },
    {
      "channel": 2,
      "note": 51,
      "start": 24.9189,
      "duration": 0.134,
      "velocity": 99,
      "chip": "ym2612"
    },
    {
      "channel": 0,
      "note": 80,
      "start": 25.0643,
      "duration": 0.0084,
      "velocity": 127,
      "chip": "ym2612"
    },
    {
      "channel": 1,
      "note": 52,
      "start": 25.0674,
      "duration": 0.1428,
      "velocity": 111,
      "chip": "ym2612"
    },
    {
      "channel": 2,
      "note": 51,
      "start": 25.0684,
      "duration": 0.29,
      "velocity": 99,
      "chip": "ym2612"
    },
    {
      "channel": 0,
      "note": 80,
      "start": 25.0727,
      "duration": 0.0007,
      "velocity": 127,
      "chip": "ym2612"
    },
    {
      "channel": 0,
      "note": 79,
      "start": 25.0734,
      "duration": 0.0105,
      "velocity": 127,
      "chip": "ym2612"
    },
    {
      "channel": 0,
      "note": 78,
      "start": 25.0839,
      "duration": 0.0101,
      "velocity": 127,
      "chip": "ym2612"
    },
    {
      "channel": 0,
      "note": 77,
      "start": 25.094,
      "duration": 0.0105,
      "velocity": 127,
      "chip": "ym2612"
    },
    {
      "channel": 0,
      "note": 76,
      "start": 25.1045,
      "duration": 0.0105,
      "velocity": 127,
      "chip": "ym2612"
    },
    {
      "channel": 0,
      "note": 74,
      "start": 25.115,
      "duration": 0.0106,
      "velocity": 127,
      "chip": "ym2612"
    },
    {
      "channel": 0,
      "note": 73,
      "start": 25.1256,
      "duration": 0.0105,
      "velocity": 127,
      "chip": "ym2612"
    },
    {
      "channel": 0,
      "note": 72,
      "start": 25.1361,
      "duration": 0.0104,
      "velocity": 127,
      "chip": "ym2612"
    },
    {
      "channel": 0,
      "note": 70,
      "start": 25.1465,
      "duration": 0.2106,
      "velocity": 127,
      "chip": "ym2612"
    },
    {
      "channel": 1,
      "note": 52,
      "start": 25.2228,
      "duration": 0.1349,
      "velocity": 111,
      "chip": "ym2612"
    },
    {
      "channel": 0,
      "note": 26,
      "start": 25.3701,
      "duration": 0.598,
      "velocity": 125,
      "chip": "ym2612"
    },
    {
      "channel": 1,
      "note": 52,
      "start": 25.3728,
      "duration": 0.1434,
      "velocity": 111,
      "chip": "ym2612"
    },
    {
      "channel": 2,
      "note": 49,
      "start": 25.3737,
      "duration": 0.1432,
      "velocity": 99,
      "chip": "ym2612"
    },
    {
      "channel": 1,
      "note": 52,
      "start": 25.5283,
      "duration": 0.1349,
      "velocity": 111,
      "chip": "ym2612"
    },
    {
      "channel": 2,
      "note": 51,
      "start": 25.5293,
      "duration": 0.4401,
      "velocity": 99,
      "chip": "ym2612"
    },
    {
      "channel": 1,
      "note": 52,
      "start": 25.6758,
      "duration": 0.0606,
      "velocity": 111,
      "chip": "ym2612"
    },
    {
      "channel": 1,
      "note": 52,
      "start": 25.7495,
      "duration": 0.0717,
      "velocity": 111,
      "chip": "ym2612"
    },
    {
      "channel": 1,
      "note": 52,
      "start": 25.8343,
      "duration": 0.1345,
      "velocity": 111,
      "chip": "ym2612"
    },
    {
      "channel": 0,
      "note": 26,
      "start": 25.9807,
      "duration": 0.2929,
      "velocity": 125,
      "chip": "ym2612"
    },
    {
      "channel": 1,
      "note": 52,
      "start": 25.9839,
      "duration": 0.1428,
      "velocity": 111,
      "chip": "ym2612"
    },
    {
      "channel": 2,
      "note": 51,
      "start": 25.9848,
      "duration": 0.29,
      "velocity": 99,
      "chip": "ym2612"
    },
    {
      "channel": 1,
      "note": 52,
      "start": 26.1393,
      "duration": 0.1349,
      "velocity": 111,
      "chip": "ym2612"
    },
    {
      "channel": 0,
      "note": 80,
      "start": 26.2866,
      "duration": 0.008,
      "velocity": 127,
      "chip": "ym2612"
    },
    {
      "channel": 1,
      "note": 52,
      "start": 26.2893,
      "duration": 0.1428,
      "velocity": 111,
      "chip": "ym2612"
    },
    {
      "channel": 2,
      "note": 39,
      "start": 26.2903,
      "duration": 0.9009,
      "velocity": 99,
      "chip": "ym2612"
    },
    {
      "channel": 0,
      "note": 80,
      "start": 26.2946,
      "duration": 0.0007,
      "velocity": 127,
      "chip": "ym2612"
    },
    {
      "channel": 0,
      "note": 79,
      "start": 26.2953,
      "duration": 0.01,
      "velocity": 127,
      "chip": "ym2612"
    },
    {
      "channel": 0,
      "note": 78,
      "start": 26.3054,
      "duration": 0.011,
      "velocity": 127,
      "chip": "ym2612"
    },
    {
      "channel": 0,
      "note": 77,
      "start": 26.3163,
      "duration": 0.01,
      "velocity": 127,
      "chip": "ym2612"
    },
    {
      "channel": 0,
      "note": 76,
      "start": 26.3263,
      "duration": 0.0105,
      "velocity": 127,
      "chip": "ym2612"
    },
    {
      "channel": 0,
      "note": 74,
      "start": 26.3369,
      "duration": 0.0105,
      "velocity": 127,
      "chip": "ym2612"
    },
    {
      "channel": 0,
      "note": 73,
      "start": 26.3474,
      "duration": 0.0106,
      "velocity": 127,
      "chip": "ym2612"
    },
    {
      "channel": 0,
      "note": 72,
      "start": 26.358,
      "duration": 0.0104,
      "velocity": 127,
      "chip": "ym2612"
    },
    {
      "channel": 0,
      "note": 70,
      "start": 26.3684,
      "duration": 0.5163,
      "velocity": 127,
      "chip": "ym2612"
    },
    {
      "channel": 1,
      "note": 52,
      "start": 26.4447,
      "duration": 0.1349,
      "velocity": 111,
      "chip": "ym2612"
    },
    {
      "channel": 1,
      "note": 52,
      "start": 26.5922,
      "duration": 0.1454,
      "velocity": 111,
      "chip": "ym2612"
    },
    {
      "channel": 1,
      "note": 52,
      "start": 26.7506,
      "duration": 0.1347,
      "velocity": 111,
      "chip": "ym2612"
    },
    {
      "channel": 0,
      "note": 26,
      "start": 26.8971,
      "duration": 0.5983,
      "velocity": 125,
      "chip": "ym2612"
    },
    {
      "channel": 1,
      "note": 52,
      "start": 26.9002,
      "duration": 0.1428,
      "velocity": 111,
      "chip": "ym2612"
    },
    {
      "channel": 1,
      "note": 52,
      "start": 27.0557,
      "duration": 0.1349,
      "velocity": 111,
      "chip": "ym2612"
    },
    {
      "channel": 1,
      "note": 52,
      "start": 27.2036,
      "duration": 0.1449,
      "velocity": 111,
      "chip": "ym2612"
    },
    {
      "channel": 2,
      "note": 51,
      "start": 27.2046,
      "duration": 0.1451,
      "velocity": 99,
      "chip": "ym2612"
    },
    {
      "channel": 1,
      "note": 52,
      "start": 27.3611,
      "duration": 0.1349,
      "velocity": 111,
      "chip": "ym2612"
    },
    {
      "channel": 2,
      "note": 51,
      "start": 27.3621,
      "duration": 0.1346,
      "velocity": 99,
      "chip": "ym2612"
    },
    {
      "channel": 0,
      "note": 80,
      "start": 27.508,
      "duration": 0.009,
      "velocity": 127,
      "chip": "ym2612"
    },
    {
      "channel": 1,
      "note": 52,
      "start": 27.5107,
      "duration": 0.1321,
      "velocity": 111,
      "chip": "ym2612"
    },
    {
      "channel": 2,
      "note": 51,
      "start": 27.5117,
      "duration": 0.2909,
      "velocity": 99,
      "chip": "ym2612"
    },
    {
      "channel": 0,
      "note": 80,
      "start": 27.517,
      "duration": 0.0007,
      "velocity": 127,
      "chip": "ym2612"
    },
    {
      "channel": 0,
      "note": 79,
      "start": 27.5177,
      "duration": 0.0095,
      "velocity": 127,
      "chip": "ym2612"
    },
    {
      "channel": 0,
      "note": 78,
      "start": 27.5272,
      "duration": 0.0105,
      "velocity": 127,
      "chip": "ym2612"
    },
    {
      "channel": 0,
      "note": 77,
      "start": 27.5377,
      "duration": 0.0105,
      "velocity": 127,
      "chip": "ym2612"
    },
    {
      "channel": 0,
      "note": 76,
      "start": 27.5483,
      "duration": 0.0105,
      "velocity": 127,
      "chip": "ym2612"
    },
    {
      "channel": 0,
      "note": 74,
      "start": 27.5588,
      "duration": 0.0105,
      "velocity": 127,
      "chip": "ym2612"
    },
    {
      "channel": 0,
      "note": 73,
      "start": 27.5693,
      "duration": 0.0106,
      "velocity": 127,
      "chip": "ym2612"
    },
    {
      "channel": 0,
      "note": 72,
      "start": 27.5798,
      "duration": 0.0104,
      "velocity": 127,
      "chip": "ym2612"
    },
    {
      "channel": 0,
      "note": 70,
      "start": 27.5903,
      "duration": 0.211,
      "velocity": 127,
      "chip": "ym2612"
    },
    {
      "channel": 1,
      "note": 52,
      "start": 27.6566,
      "duration": 0.1454,
      "velocity": 111,
      "chip": "ym2612"
    },
    {
      "channel": 0,
      "note": 26,
      "start": 27.8134,
      "duration": 0.4404,
      "velocity": 125,
      "chip": "ym2612"
    },
    {
      "channel": 1,
      "note": 52,
      "start": 27.8166,
      "duration": 0.1326,
      "velocity": 111,
      "chip": "ym2612"
    },
    {
      "channel": 2,
      "note": 49,
      "start": 27.8176,
      "duration": 0.1326,
      "velocity": 99,
      "chip": "ym2612"
    },
    {
      "channel": 1,
      "note": 52,
      "start": 27.9615,
      "duration": 0.1454,
      "velocity": 111,
      "chip": "ym2612"
    },
    {
      "channel": 2,
      "note": 51,
      "start": 27.9625,
      "duration": 0.4506,
      "velocity": 99,
      "chip": "ym2612"
    },
    {
      "channel": 1,
      "note": 52,
      "start": 28.12,
      "duration": 0.0602,
      "velocity": 111,
      "chip": "ym2612"
    },
    {
      "channel": 1,
      "note": 52,
      "start": 28.1927,
      "duration": 0.0617,
      "velocity": 111,
      "chip": "ym2612"
    },
    {
      "channel": 0,
      "note": 26,
      "start": 28.2669,
      "duration": 0.2924,
      "velocity": 125,
      "chip": "ym2612"
    },
    {
      "channel": 1,
      "note": 52,
      "start": 28.2696,
      "duration": 0.1428,
      "velocity": 111,
      "chip": "ym2612"
    },
    {
      "channel": 1,
      "note": 52,
      "start": 28.4251,
      "duration": 0.1349,
      "velocity": 111,
      "chip": "ym2612"
    },
    {
      "channel": 2,
      "note": 51,
      "start": 28.426,
      "duration": 0.2951,
      "velocity": 99,
      "chip": "ym2612"
    },
    {
      "channel": 0,
      "note": 26,
      "start": 28.5719,
      "duration": 0.1342,
      "velocity": 125,
      "chip": "ym2612"
    },
    {
      "channel": 1,
      "note": 52,
      "start": 28.5746,
      "duration": 0.1459,
      "velocity": 111,
      "chip": "ym2612"
    },
    {
      "channel": 0,
      "note": 80,
      "start": 28.7198,
      "duration": 0.0085,
      "velocity": 127,
      "chip": "ym2612"
    },
    {
      "channel": 0,
      "note": 80,
      "start": 28.7283,
      "duration": 0.0007,
      "velocity": 127,
      "chip": "ym2612"
    },
    {
      "channel": 0,
      "note": 79,
      "start": 28.729,
      "duration": 0.0095,
      "velocity": 127,
      "chip": "ym2612"
    },
    {
      "channel": 1,
      "note": 52,
      "start": 28.7312,
      "duration": 0.1341,
      "velocity": 111,
      "chip": "ym2612"
    },
    {
      "channel": 2,
      "note": 39,
      "start": 28.7321,
      "duration": 0.5866,
      "velocity": 99,
      "chip": "ym2612"
    },
    {
      "channel": 0,
      "note": 78,
      "start": 28.7385,
      "duration": 0.0111,
      "velocity": 127,
      "chip": "ym2612"
    },
    {
      "channel": 0,
      "note": 77,
      "start": 28.7496,
      "duration": 0.01,
      "velocity": 127,
      "chip": "ym2612"
    },
    {
      "channel": 0,
      "note": 76,
      "start": 28.7595,
      "duration": 0.0106,
      "velocity": 127,
      "chip": "ym2612"
    },
    {
      "channel": 0,
      "note": 74,
      "start": 28.7701,
      "duration": 0.0105,
      "velocity": 127,
      "chip": "ym2612"
    },
    {
      "channel": 0,
      "note": 73,
      "start": 28.7806,
      "duration": 0.0105,
      "velocity": 127,
      "chip": "ym2612"
    },
    {
      "channel": 0,
      "note": 72,
      "start": 28.7912,
      "duration": 0.0105,
      "velocity": 127,
      "chip": "ym2612"
    },
    {
      "channel": 0,
      "note": 70,
      "start": 28.8017,
      "duration": 0.2099,
      "velocity": 127,
      "chip": "ym2612"
    },
    {
      "channel": 1,
      "note": 52,
      "start": 28.8779,
      "duration": 0.1475,
      "velocity": 111,
      "chip": "ym2612"
    },
    {
      "channel": 0,
      "note": 26,
      "start": 29.0247,
      "duration": 0.2928,
      "velocity": 125,
      "chip": "ym2612"
    },
    {
      "channel": 1,
      "note": 52,
      "start": 29.0364,
      "duration": 0.1344,
      "velocity": 111,
      "chip": "ym2612"
    },
    {
      "channel": 1,
      "note": 52,
      "start": 29.1839,
      "duration": 0.1342,
      "velocity": 111,
      "chip": "ym2612"
    },
    {
      "channel": 0,
      "note": 26,
      "start": 29.331,
      "duration": 0.5977,
      "velocity": 125,
      "chip": "ym2612"
    },
    {
      "channel": 1,
      "note": 52,
      "start": 29.3343,
      "duration": 0.1308,
      "velocity": 111,
      "chip": "ym2612"
    },
    {
      "channel": 3,
      "note": 87,
      "start": 29.3379,
      "duration": 0.8875,
      "velocity": 86,
      "chip": "ym2612"
    },
    {
      "channel": 4,
      "note": 87,
      "start": 29.3389,
      "duration": 0.8871,
      "velocity": 104,
      "chip": "ym2612"
    },
    {
      "channel": 5,
      "note": 87,
      "start": 29.34,
      "duration": 0.8868,
      "velocity": 108,
      "chip": "ym2612"
    },
    {
      "channel": 1,
      "note": 52,
      "start": 29.4782,
      "duration": 0.1344,
      "velocity": 111,
      "chip": "ym2612"
    },
    {
      "channel": 1,
      "note": 52,
      "start": 29.6263,
      "duration": 0.1448,
      "velocity": 111,
      "chip": "ym2612"
    },
    {
      "channel": 2,
      "note": 51,
      "start": 29.6273,
      "duration": 0.1445,
      "velocity": 99,
      "chip": "ym2612"
    },
    {
      "channel": 1,
      "note": 52,
      "start": 29.7843,
      "duration": 0.1344,
      "velocity": 111,
      "chip": "ym2612"
    },
    {
      "channel": 2,
      "note": 51,
      "start": 29.7852,
      "duration": 0.1341,
      "velocity": 99,
      "chip": "ym2612"
    },
    {
      "channel": 1,
      "note": 52,
      "start": 29.9313,
      "duration": 0.1454,
      "velocity": 111,
      "chip": "ym2612"
    },
    {
      "channel": 2,
      "note": 51,
      "start": 29.9324,
      "duration": 0.2924,
      "velocity": 99,
      "chip": "ym2612"
    },
    {
      "channel": 0,
      "note": 80,
      "start": 29.9407,
      "duration": 0.0095,
      "velocity": 127,
      "chip": "ym2612"
    },
    {
      "channel": 0,
      "note": 80,
      "start": 29.9501,
      "duration": 0.0007,
      "velocity": 127,
      "chip": "ym2612"
    },
    {
      "channel": 0,
      "note": 79,
      "start": 29.9508,
      "duration": 0.0095,
      "velocity": 127,
      "chip": "ym2612"
    },
    {
      "channel": 0,
      "note": 78,
      "start": 29.9604,
      "duration": 0.0105,
      "velocity": 127,
      "chip": "ym2612"
    },
    {
      "channel": 0,
      "note": 77,
      "start": 29.9709,
      "duration": 0.0106,
      "velocity": 127,
      "chip": "ym2612"
    },
    {
      "channel": 0,
      "note": 76,
      "start": 29.9814,
      "duration": 0.0105,
      "velocity": 127,
      "chip": "ym2612"
    },
    {
      "channel": 0,
      "note": 74,
      "start": 29.9919,
      "duration": 0.0106,
      "velocity": 127,
      "chip": "ym2612"
    },
    {
      "channel": 0,
      "note": 73,
      "start": 30.0025,
      "duration": 0.0104,
      "velocity": 127,
      "chip": "ym2612"
    },
    {
      "channel": 0,
      "note": 72,
      "start": 30.0129,
      "duration": 0.0104,
      "velocity": 127,
      "chip": "ym2612"
    },
    {
      "channel": 0,
      "note": 70,
      "start": 30.0234,
      "duration": 0.2113,
      "velocity": 127,
      "chip": "ym2612"
    },
    {
      "channel": 1,
      "note": 52,
      "start": 30.0893,
      "duration": 0.1349,
      "velocity": 111,
      "chip": "ym2612"
    },
    {
      "channel": 1,
      "note": 52,
      "start": 30.2373,
      "duration": 0.1449,
      "velocity": 111,
      "chip": "ym2612"
    },
    {
      "channel": 2,
      "note": 49,
      "start": 30.2382,
      "duration": 0.145,
      "velocity": 99,
      "chip": "ym2612"
    },
    {
      "channel": 3,
      "note": 82,
      "start": 30.2392,
      "duration": 1.514,
      "velocity": 86,
      "chip": "ym2612"
    },
    {
      "channel": 4,
      "note": 82,
      "start": 30.2401,
      "duration": 1.5137,
      "velocity": 104,
      "chip": "ym2612"
    },
    {
      "channel": 5,
      "note": 82,
      "start": 30.2411,
      "duration": 1.5134,
      "velocity": 108,
      "chip": "ym2612"
    },
    {
      "channel": 0,
      "note": 26,
      "start": 30.2462,
      "duration": 0.5988,
      "velocity": 125,
      "chip": "ym2612"
    },
    {
      "channel": 1,
      "note": 52,
      "start": 30.3947,
      "duration": 0.1349,
      "velocity": 111,
      "chip": "ym2612"
    },
    {
      "channel": 2,
      "note": 51,
      "start": 30.3957,
      "duration": 0.4403,
      "velocity": 99,
      "chip": "ym2612"
    },
    {
      "channel": 1,
      "note": 52,
      "start": 30.5422,
      "duration": 0.0712,
      "velocity": 111,
      "chip": "ym2612"
    },
    {
      "channel": 1,
      "note": 52,
      "start": 30.6259,
      "duration": 0.0617,
      "velocity": 111,
      "chip": "ym2612"
    },
    {
      "channel": 1,
      "note": 52,
      "start": 30.7006,
      "duration": 0.1347,
      "velocity": 111,
      "chip": "ym2612"
    },
    {
      "channel": 1,
      "note": 52,
      "start": 30.8476,
      "duration": 0.1454,
      "velocity": 111,
      "chip": "ym2612"
    },
    {
      "channel": 2,
      "note": 51,
      "start": 30.8486,
      "duration": 0.2925,
      "velocity": 99,
      "chip": "ym2612"
    },
    {
      "channel": 0,
      "note": 26,
      "start": 30.8571,
      "duration": 0.2939,
      "velocity": 125,
      "chip": "ym2612"
    },
    {
      "channel": 1,
      "note": 52,
      "start": 31.0057,
      "duration": 0.1349,
      "velocity": 111,
      "chip": "ym2612"
    },
    {
      "channel": 1,
      "note": 52,
      "start": 31.1536,
      "duration": 0.1449,
      "velocity": 111,
      "chip": "ym2612"
    },
    {
      "channel": 2,
      "note": 39,
      "start": 31.1546,
      "duration": 0.9031,
      "velocity": 99,
      "chip": "ym2612"
    },
    {
      "channel": 0,
      "note": 80,
      "start": 31.1625,
      "duration": 0.009,
      "velocity": 127,
      "chip": "ym2612"
    },
    {
      "channel": 0,
      "note": 80,
      "start": 31.1715,
      "duration": 0.0007,
      "velocity": 127,
      "chip": "ym2612"
    },
    {
      "channel": 0,
      "note": 79,
      "start": 31.1722,
      "duration": 0.0102,
      "velocity": 127,
      "chip": "ym2612"
    },
    {
      "channel": 0,
      "note": 78,
      "start": 31.1824,
      "duration": 0.0103,
      "velocity": 127,
      "chip": "ym2612"
    },
    {
      "channel": 0,
      "note": 77,
      "start": 31.1927,
      "duration": 0.0106,
      "velocity": 127,
      "chip": "ym2612"
    },
    {
      "channel": 0,
      "note": 76,
      "start": 31.2033,
      "duration": 0.0105,
      "velocity": 127,
      "chip": "ym2612"
    },
    {
      "channel": 0,
      "note": 74,
      "start": 31.2138,
      "duration": 0.0106,
      "velocity": 127,
      "chip": "ym2612"
    },
    {
      "channel": 0,
      "note": 73,
      "start": 31.2244,
      "duration": 0.0105,
      "velocity": 127,
      "chip": "ym2612"
    },
    {
      "channel": 0,
      "note": 72,
      "start": 31.2349,
      "duration": 0.0102,
      "velocity": 127,
      "chip": "ym2612"
    },
    {
      "channel": 0,
      "note": 70,
      "start": 31.2452,
      "duration": 0.5163,
      "velocity": 127,
      "chip": "ym2612"
    },
    {
      "channel": 1,
      "note": 52,
      "start": 31.3111,
      "duration": 0.1349,
      "velocity": 111,
      "chip": "ym2612"
    },
    {
      "channel": 1,
      "note": 52,
      "start": 31.4586,
      "duration": 0.1455,
      "velocity": 111,
      "chip": "ym2612"
    },
    {
      "channel": 1,
      "note": 52,
      "start": 31.6171,
      "duration": 0.1348,
      "velocity": 111,
      "chip": "ym2612"
    },
    {
      "channel": 1,
      "note": 52,
      "start": 31.7641,
      "duration": 0.1454,
      "velocity": 111,
      "chip": "ym2612"
    },
    {
      "channel": 3,
      "note": 85,
      "start": 31.7659,
      "duration": 0.9038,
      "velocity": 86,
      "chip": "ym2612"
    },
    {
      "channel": 4,
      "note": 85,
      "start": 31.7671,
      "duration": 0.9032,
      "velocity": 104,
      "chip": "ym2612"
    },
    {
      "channel": 5,
      "note": 85,
      "start": 31.7681,
      "duration": 0.9029,
      "velocity": 108,
      "chip": "ym2612"
    },
    {
      "channel": 0,
      "note": 26,
      "start": 31.7735,
      "duration": 0.4408,
      "velocity": 125,
      "chip": "ym2612"
    },
    {
      "channel": 1,
      "note": 52,
      "start": 31.9221,
      "duration": 0.1349,
      "velocity": 111,
      "chip": "ym2612"
    },
    {
      "channel": 1,
      "note": 52,
      "start": 32.0701,
      "duration": 0.1448,
      "velocity": 111,
      "chip": "ym2612"
    },
    {
      "channel": 2,
      "note": 51,
      "start": 32.0711,
      "duration": 0.1447,
      "velocity": 99,
      "chip": "ym2612"
    },
    {
      "channel": 0,
      "note": 26,
      "start": 32.2269,
      "duration": 0.1349,
      "velocity": 125,
      "chip": "ym2612"
    },
    {
      "channel": 1,
      "note": 52,
      "start": 32.2297,
      "duration": 0.1328,
      "velocity": 111,
      "chip": "ym2612"
    },
    {
      "channel": 2,
      "note": 51,
      "start": 32.2306,
      "duration": 0.1326,
      "velocity": 99,
      "chip": "ym2612"
    },
    {
      "channel": 0,
      "note": 80,
      "start": 32.3744,
      "duration": 0.0089,
      "velocity": 127,
      "chip": "ym2612"
    },
    {
      "channel": 1,
      "note": 52,
      "start": 32.3771,
      "duration": 0.1434,
      "velocity": 111,
      "chip": "ym2612"
    },
    {
      "channel": 2,
      "note": 51,
      "start": 32.378,
      "duration": 0.291,
      "velocity": 99,
      "chip": "ym2612"
    },
    {
      "channel": 0,
      "note": 80,
      "start": 32.3833,
      "duration": 0.0007,
      "velocity": 127,
      "chip": "ym2612"
    },
    {
      "channel": 0,
      "note": 79,
      "start": 32.384,
      "duration": 0.0096,
      "velocity": 127,
      "chip": "ym2612"
    },
    {
      "channel": 0,
      "note": 78,
      "start": 32.3937,
      "duration": 0.0105,
      "velocity": 127,
      "chip": "ym2612"
    },
    {
      "channel": 0,
      "note": 77,
      "start": 32.4041,
      "duration": 0.0105,
      "velocity": 127,
      "chip": "ym2612"
    },
    {
      "channel": 0,
      "note": 76,
      "start": 32.4147,
      "duration": 0.0106,
      "velocity": 127,
      "chip": "ym2612"
    },
    {
      "channel": 0,
      "note": 74,
      "start": 32.4253,
      "duration": 0.0105,
      "velocity": 127,
      "chip": "ym2612"
    },
    {
      "channel": 0,
      "note": 73,
      "start": 32.4358,
      "duration": 0.0106,
      "velocity": 127,
      "chip": "ym2612"
    },
    {
      "channel": 0,
      "note": 72,
      "start": 32.4463,
      "duration": 0.0104,
      "velocity": 127,
      "chip": "ym2612"
    },
    {
      "channel": 0,
      "note": 70,
      "start": 32.4568,
      "duration": 0.211,
      "velocity": 127,
      "chip": "ym2612"
    },
    {
      "channel": 1,
      "note": 52,
      "start": 32.5335,
      "duration": 0.1349,
      "velocity": 111,
      "chip": "ym2612"
    },
    {
      "channel": 0,
      "note": 26,
      "start": 32.6798,
      "duration": 0.2929,
      "velocity": 125,
      "chip": "ym2612"
    },
    {
      "channel": 1,
      "note": 52,
      "start": 32.683,
      "duration": 0.1429,
      "velocity": 111,
      "chip": "ym2612"
    },
    {
      "channel": 2,
      "note": 49,
      "start": 32.684,
      "duration": 0.1426,
      "velocity": 99,
      "chip": "ym2612"
    },
    {
      "channel": 3,
      "note": 80,
      "start": 32.6849,
      "duration": 1.5117,
      "velocity": 86,
      "chip": "ym2612"
    },
    {
      "channel": 4,
      "note": 80,
      "start": 32.6859,
      "duration": 1.5114,
      "velocity": 104,
      "chip": "ym2612"
    },
    {
      "channel": 5,
      "note": 80,
      "start": 32.6868,
      "duration": 1.5111,
      "velocity": 108,
      "chip": "ym2612"
    },
    {
      "channel": 1,
      "note": 52,
      "start": 32.8385,
      "duration": 0.1349,
      "velocity": 111,
      "chip": "ym2612"
    },
    {
      "channel": 2,
      "note": 51,
      "start": 32.8395,
      "duration": 0.4401,
      "velocity": 99,
      "chip": "ym2612"
    },
    {
      "channel": 0,
      "note": 26,
      "start": 32.9858,
      "duration": 0.5984,
      "velocity": 125,
      "chip": "ym2612"
    },
    {
      "channel": 1,
      "note": 52,
      "start": 32.9885,
      "duration": 0.0686,
      "velocity": 111,
      "chip": "ym2612"
    },
    {
      "channel": 1,
      "note": 52,
      "start": 33.07,
      "duration": 0.0615,
      "velocity": 111,
      "chip": "ym2612"
    },
    {
      "channel": 1,
      "note": 52,
      "start": 33.1439,
      "duration": 0.135,
      "velocity": 111,
      "chip": "ym2612"
    },
    {
      "channel": 1,
      "note": 52,
      "start": 33.2914,
      "duration": 0.1454,
      "velocity": 111,
      "chip": "ym2612"
    },
    {
      "channel": 2,
      "note": 51,
      "start": 33.2924,
      "duration": 0.2931,
      "velocity": 99,
      "chip": "ym2612"
    },
    {
      "channel": 1,
      "note": 52,
      "start": 33.4499,
      "duration": 0.135,
      "velocity": 111,
      "chip": "ym2612"
    },
    {
      "channel": 0,
      "note": 80,
      "start": 33.5963,
      "duration": 0.0085,
      "velocity": 127,
      "chip": "ym2612"
    },
    {
      "channel": 1,
      "note": 52,
      "start": 33.5992,
      "duration": 0.1432,
      "velocity": 111,
      "chip": "ym2612"
    },
    {
      "channel": 2,
      "note": 39,
      "start": 33.6004,
      "duration": 0.9015,
      "velocity": 99,
      "chip": "ym2612"
    },
    {
      "channel": 0,
      "note": 80,
      "start": 33.6047,
      "duration": 0.0007,
      "velocity": 127,
      "chip": "ym2612"
    },
    {
      "channel": 0,
      "note": 79,
      "start": 33.6054,
      "duration": 0.0101,
      "velocity": 127,
      "chip": "ym2612"
    },
    {
      "channel": 0,
      "note": 78,
      "start": 33.6155,
      "duration": 0.0105,
      "velocity": 127,
      "chip": "ym2612"
    },
    {
      "channel": 0,
      "note": 77,
      "start": 33.626,
      "duration": 0.0105,
      "velocity": 127,
      "chip": "ym2612"
    },
    {
      "channel": 0,
      "note": 76,
      "start": 33.6366,
      "duration": 0.0105,
      "velocity": 127,
      "chip": "ym2612"
    },
    {
      "channel": 0,
      "note": 74,
      "start": 33.6471,
      "duration": 0.0106,
      "velocity": 127,
      "chip": "ym2612"
    },
    {
      "channel": 0,
      "note": 73,
      "start": 33.6576,
      "duration": 0.0106,
      "velocity": 127,
      "chip": "ym2612"
    },
    {
      "channel": 0,
      "note": 72,
      "start": 33.6683,
      "duration": 0.0104,
      "velocity": 127,
      "chip": "ym2612"
    },
    {
      "channel": 0,
      "note": 70,
      "start": 33.6786,
      "duration": 0.516,
      "velocity": 127,
      "chip": "ym2612"
    },
    {
      "channel": 1,
      "note": 52,
      "start": 33.7548,
      "duration": 0.135,
      "velocity": 111,
      "chip": "ym2612"
    },
    {
      "channel": 1,
      "note": 52,
      "start": 33.9029,
      "duration": 0.1449,
      "velocity": 111,
      "chip": "ym2612"
    },
    {
      "channel": 1,
      "note": 52,
      "start": 34.0603,
      "duration": 0.135,
      "velocity": 111,
      "chip": "ym2612"
    },
    {
      "channel": 0,
      "note": 26,
      "start": 34.2073,
      "duration": 0.5983,
      "velocity": 125,
      "chip": "ym2612"
    },
    {
      "channel": 1,
      "note": 52,
      "start": 34.21,
      "duration": 0.1432,
      "velocity": 111,
      "chip": "ym2612"
    },
    {
      "channel": 3,
      "note": 82,
      "start": 34.2115,
      "duration": 2.66,
      "velocity": 86,
      "chip": "ym2612"
    },
    {
      "channel": 4,
      "note": 82,
      "start": 34.2125,
      "duration": 2.6597,
      "velocity": 104,
      "chip": "ym2612"
    },
    {
      "channel": 5,
      "note": 82,
      "start": 34.2134,
      "duration": 2.6595,
      "velocity": 108,
      "chip": "ym2612"
    },
    {
      "channel": 1,
      "note": 52,
      "start": 34.3663,
      "duration": 0.1349,
      "velocity": 111,
      "chip": "ym2612"
    },
    {
      "channel": 1,
      "note": 52,
      "start": 34.5134,
      "duration": 0.1454,
      "velocity": 111,
      "chip": "ym2612"
    },
    {
      "channel": 2,
      "note": 51,
      "start": 34.5143,
      "duration": 0.1451,
      "velocity": 99,
      "chip": "ym2612"
    },
    {
      "channel": 1,
      "note": 52,
      "start": 34.6713,
      "duration": 0.1349,
      "velocity": 111,
      "chip": "ym2612"
    },
    {
      "channel": 2,
      "note": 51,
      "start": 34.6723,
      "duration": 0.1346,
      "velocity": 99,
      "chip": "ym2612"
    },
    {
      "channel": 0,
      "note": 80,
      "start": 34.8187,
      "duration": 0.008,
      "velocity": 127,
      "chip": "ym2612"
    },
    {
      "channel": 1,
      "note": 52,
      "start": 34.8214,
      "duration": 0.1429,
      "velocity": 111,
      "chip": "ym2612"
    },
    {
      "channel": 2,
      "note": 51,
      "start": 34.8223,
      "duration": 0.29,
      "velocity": 99,
      "chip": "ym2612"
    },
    {
      "channel": 0,
      "note": 80,
      "start": 34.8267,
      "duration": 0.0007,
      "velocity": 127,
      "chip": "ym2612"
    },
    {
      "channel": 0,
      "note": 79,
      "start": 34.8274,
      "duration": 0.01,
      "velocity": 127,
      "chip": "ym2612"
    },
    {
      "channel": 0,
      "note": 78,
      "start": 34.8374,
      "duration": 0.0105,
      "velocity": 127,
      "chip": "ym2612"
    },
    {
      "channel": 0,
      "note": 77,
      "start": 34.8479,
      "duration": 0.0105,
      "velocity": 127,
      "chip": "ym2612"
    },
    {
      "channel": 0,
      "note": 76,
      "start": 34.8585,
      "duration": 0.0105,
      "velocity": 127,
      "chip": "ym2612"
    },
    {
      "channel": 0,
      "note": 74,
      "start": 34.869,
      "duration": 0.0106,
      "velocity": 127,
      "chip": "ym2612"
    },
    {
      "channel": 0,
      "note": 73,
      "start": 34.8795,
      "duration": 0.0106,
      "velocity": 127,
      "chip": "ym2612"
    },
    {
      "channel": 0,
      "note": 72,
      "start": 34.8901,
      "duration": 0.0109,
      "velocity": 127,
      "chip": "ym2612"
    },
    {
      "channel": 0,
      "note": 70,
      "start": 34.901,
      "duration": 0.21,
      "velocity": 127,
      "chip": "ym2612"
    },
    {
      "channel": 1,
      "note": 52,
      "start": 34.9767,
      "duration": 0.135,
      "velocity": 111,
      "chip": "ym2612"
    },
    {
      "channel": 0,
      "note": 26,
      "start": 35.1237,
      "duration": 0.5983,
      "velocity": 125,
      "chip": "ym2612"
    },
    {
      "channel": 1,
      "note": 52,
      "start": 35.1264,
      "duration": 0.1433,
      "velocity": 111,
      "chip": "ym2612"
    },
    {
      "channel": 2,
      "note": 49,
      "start": 35.1274,
      "duration": 0.143,
      "velocity": 99,
      "chip": "ym2612"
    },
    {
      "channel": 1,
      "note": 52,
      "start": 35.2825,
      "duration": 0.1351,
      "velocity": 111,
      "chip": "ym2612"
    },
    {
      "channel": 2,
      "note": 51,
      "start": 35.2837,
      "duration": 0.4396,
      "velocity": 99,
      "chip": "ym2612"
    },
    {
      "channel": 1,
      "note": 52,
      "start": 35.4297,
      "duration": 0.0607,
      "velocity": 111,
      "chip": "ym2612"
    },
    {
      "channel": 1,
      "note": 52,
      "start": 35.5034,
      "duration": 0.0717,
      "velocity": 111,
      "chip": "ym2612"
    },
    {
      "channel": 1,
      "note": 52,
      "start": 35.5877,
      "duration": 0.1349,
      "velocity": 111,
      "chip": "ym2612"
    },
    {
      "channel": 0,
      "note": 26,
      "start": 35.7351,
      "duration": 0.2924,
      "velocity": 125,
      "chip": "ym2612"
    },
    {
      "channel": 1,
      "note": 52,
      "start": 35.7378,
      "duration": 0.1427,
      "velocity": 111,
      "chip": "ym2612"
    },
    {
      "channel": 2,
      "note": 51,
      "start": 35.7388,
      "duration": 0.29,
      "velocity": 99,
      "chip": "ym2612"
    },
    {
      "channel": 1,
      "note": 52,
      "start": 35.8931,
      "duration": 0.135,
      "velocity": 111,
      "chip": "ym2612"
    },
    {
      "channel": 0,
      "note": 80,
      "start": 36.0401,
      "duration": 0.0085,
      "velocity": 127,
      "chip": "ym2612"
    },
    {
      "channel": 1,
      "note": 52,
      "start": 36.0428,
      "duration": 0.1433,
      "velocity": 111,
      "chip": "ym2612"
    },
    {
      "channel": 2,
      "note": 39,
      "start": 36.0438,
      "duration": 0.9014,
      "velocity": 99,
      "chip": "ym2612"
    },
    {
      "channel": 0,
      "note": 80,
      "start": 36.0485,
      "duration": 0.0012,
      "velocity": 127,
      "chip": "ym2612"
    },
    {
      "channel": 0,
      "note": 79,
      "start": 36.0498,
      "duration": 0.0095,
      "velocity": 127,
      "chip": "ym2612"
    },
    {
      "channel": 0,
      "note": 78,
      "start": 36.0592,
      "duration": 0.0106,
      "velocity": 127,
      "chip": "ym2612"
    },
    {
      "channel": 0,
      "note": 77,
      "start": 36.0698,
      "duration": 0.0105,
      "velocity": 127,
      "chip": "ym2612"
    },
    {
      "channel": 0,
      "note": 76,
      "start": 36.0803,
      "duration": 0.0105,
      "velocity": 127,
      "chip": "ym2612"
    },
    {
      "channel": 0,
      "note": 74,
      "start": 36.0908,
      "duration": 0.0107,
      "velocity": 127,
      "chip": "ym2612"
    },
    {
      "channel": 0,
      "note": 73,
      "start": 36.1016,
      "duration": 0.0104,
      "velocity": 127,
      "chip": "ym2612"
    },
    {
      "channel": 0,
      "note": 72,
      "start": 36.112,
      "duration": 0.0104,
      "velocity": 127,
      "chip": "ym2612"
    },
    {
      "channel": 0,
      "note": 70,
      "start": 36.1224,
      "duration": 0.516,
      "velocity": 127,
      "chip": "ym2612"
    },
    {
      "channel": 1,
      "note": 52,
      "start": 36.1987,
      "duration": 0.1354,
      "velocity": 111,
      "chip": "ym2612"
    },
    {
      "channel": 1,
      "note": 52,
      "start": 36.3462,
      "duration": 0.1453,
      "velocity": 111,
      "chip": "ym2612"
    },
    {
      "channel": 1,
      "note": 52,
      "start": 36.5042,
      "duration": 0.1349,
      "velocity": 111,
      "chip": "ym2612"
    },
    {
      "channel": 0,
      "note": 26,
      "start": 36.6515,
      "duration": 0.5983,
      "velocity": 125,
      "chip": "ym2612"
    },
    {
      "channel": 1,
      "note": 52,
      "start": 36.6542,
      "duration": 0.1428,
      "velocity": 111,
      "chip": "ym2612"
    },
    {
      "channel": 1,
      "note": 52,
      "start": 36.8096,
      "duration": 0.1349,
      "velocity": 111,
      "chip": "ym2612"
    },
    {
      "channel": 1,
      "note": 52,
      "start": 36.9571,
      "duration": 0.1454,
      "velocity": 111,
      "chip": "ym2612"
    },
    {
      "channel": 2,
      "note": 51,
      "start": 36.958,
      "duration": 0.1451,
      "velocity": 99,
      "chip": "ym2612"
    },
    {
      "channel": 1,
      "note": 52,
      "start": 37.1151,
      "duration": 0.1354,
      "velocity": 111,
      "chip": "ym2612"
    },
    {
      "channel": 2,
      "note": 51,
      "start": 37.1166,
      "duration": 0.1346,
      "velocity": 99,
      "chip": "ym2612"
    },
    {
      "channel": 0,
      "note": 80,
      "start": 37.262,
      "duration": 0.0085,
      "velocity": 127,
      "chip": "ym2612"
    },
    {
      "channel": 1,
      "note": 52,
      "start": 37.2646,
      "duration": 0.1322,
      "velocity": 111,
      "chip": "ym2612"
    },
    {
      "channel": 2,
      "note": 51,
      "start": 37.2658,
      "duration": 0.2903,
      "velocity": 99,
      "chip": "ym2612"
    },
    {
      "channel": 0,
      "note": 80,
      "start": 37.2704,
      "duration": 0.0007,
      "velocity": 127,
      "chip": "ym2612"
    },
    {
      "channel": 0,
      "note": 79,
      "start": 37.2711,
      "duration": 0.01,
      "velocity": 127,
      "chip": "ym2612"
    },
    {
      "channel": 0,
      "note": 78,
      "start": 37.2811,
      "duration": 0.0106,
      "velocity": 127,
      "chip": "ym2612"
    },
    {
      "channel": 0,
      "note": 77,
      "start": 37.2917,
      "duration": 0.0105,
      "velocity": 127,
      "chip": "ym2612"
    },
    {
      "channel": 0,
      "note": 76,
      "start": 37.3022,
      "duration": 0.0105,
      "velocity": 127,
      "chip": "ym2612"
    },
    {
      "channel": 0,
      "note": 74,
      "start": 37.3127,
      "duration": 0.0106,
      "velocity": 127,
      "chip": "ym2612"
    },
    {
      "channel": 0,
      "note": 73,
      "start": 37.3233,
      "duration": 0.011,
      "velocity": 127,
      "chip": "ym2612"
    },
    {
      "channel": 0,
      "note": 72,
      "start": 37.3343,
      "duration": 0.01,
      "velocity": 127,
      "chip": "ym2612"
    },
    {
      "channel": 0,
      "note": 70,
      "start": 37.3443,
      "duration": 0.2105,
      "velocity": 127,
      "chip": "ym2612"
    },
    {
      "channel": 1,
      "note": 52,
      "start": 37.4106,
      "duration": 0.1449,
      "velocity": 111,
      "chip": "ym2612"
    },
    {
      "channel": 0,
      "note": 26,
      "start": 37.5679,
      "duration": 0.4398,
      "velocity": 125,
      "chip": "ym2612"
    },
    {
      "channel": 1,
      "note": 52,
      "start": 37.5706,
      "duration": 0.1323,
      "velocity": 111,
      "chip": "ym2612"
    },
    {
      "channel": 2,
      "note": 49,
      "start": 37.5716,
      "duration": 0.132,
      "velocity": 99,
      "chip": "ym2612"
    },
    {
      "channel": 1,
      "note": 52,
      "start": 37.7155,
      "duration": 0.1454,
      "velocity": 111,
      "chip": "ym2612"
    },
    {
      "channel": 2,
      "note": 51,
      "start": 37.7169,
      "duration": 0.4506,
      "velocity": 99,
      "chip": "ym2612"
    },
    {
      "channel": 1,
      "note": 52,
      "start": 37.8735,
      "duration": 0.0613,
      "velocity": 111,
      "chip": "ym2612"
    },
    {
      "channel": 1,
      "note": 52,
      "start": 37.9468,
      "duration": 0.0617,
      "velocity": 111,
      "chip": "ym2612"
    },
    {
      "channel": 0,
      "note": 26,
      "start": 38.0204,
      "duration": 0.2929,
      "velocity": 125,
      "chip": "ym2612"
    },
    {
      "channel": 1,
      "note": 52,
      "start": 38.0231,
      "duration": 0.1438,
      "velocity": 111,
      "chip": "ym2612"
    },
    {
      "channel": 1,
      "note": 52,
      "start": 38.179,
      "duration": 0.1349,
      "velocity": 111,
      "chip": "ym2612"
    },
    {
      "channel": 2,
      "note": 51,
      "start": 38.1799,
      "duration": 0.2947,
      "velocity": 99,
      "chip": "ym2612"
    },
    {
      "channel": 0,
      "note": 26,
      "start": 38.3258,
      "duration": 0.1342,
      "velocity": 125,
      "chip": "ym2612"
    },
    {
      "channel": 1,
      "note": 52,
      "start": 38.3286,
      "duration": 0.1454,
      "velocity": 111,
      "chip": "ym2612"
    },
    {
      "channel": 0,
      "note": 80,
      "start": 38.4732,
      "duration": 0.0092,
      "velocity": 127,
      "chip": "ym2612"
    },
    {
      "channel": 0,
      "note": 80,
      "start": 38.4824,
      "duration": 0.001,
      "velocity": 127,
      "chip": "ym2612"
    },
    {
      "channel": 0,
      "note": 79,
      "start": 38.4834,
      "duration": 0.0091,
      "velocity": 127,
      "chip": "ym2612"
    },
    {
      "channel": 1,
      "note": 52,
      "start": 38.4856,
      "duration": 0.1337,
      "velocity": 111,
      "chip": "ym2612"
    },
    {
      "channel": 2,
      "note": 39,
      "start": 38.4866,
      "duration": 0.5858,
      "velocity": 99,
      "chip": "ym2612"
    },
    {
      "channel": 0,
      "note": 78,
      "start": 38.4925,
      "duration": 0.0105,
      "velocity": 127,
      "chip": "ym2612"
    },
    {
      "channel": 0,
      "note": 77,
      "start": 38.503,
      "duration": 0.0106,
      "velocity": 127,
      "chip": "ym2612"
    },
    {
      "channel": 0,
      "note": 76,
      "start": 38.5136,
      "duration": 0.0105,
      "velocity": 127,
      "chip": "ym2612"
    },
    {
      "channel": 0,
      "note": 74,
      "start": 38.5241,
      "duration": 0.0108,
      "velocity": 127,
      "chip": "ym2612"
    },
    {
      "channel": 0,
      "note": 73,
      "start": 38.5349,
      "duration": 0.0102,
      "velocity": 127,
      "chip": "ym2612"
    },
    {
      "channel": 0,
      "note": 72,
      "start": 38.5452,
      "duration": 0.0105,
      "velocity": 127,
      "chip": "ym2612"
    },
    {
      "channel": 0,
      "note": 70,
      "start": 38.5557,
      "duration": 0.2099,
      "velocity": 127,
      "chip": "ym2612"
    },
    {
      "channel": 1,
      "note": 52,
      "start": 38.632,
      "duration": 0.1474,
      "velocity": 111,
      "chip": "ym2612"
    },
    {
      "channel": 0,
      "note": 26,
      "start": 38.7787,
      "duration": 0.2924,
      "velocity": 125,
      "chip": "ym2612"
    },
    {
      "channel": 1,
      "note": 52,
      "start": 38.7899,
      "duration": 0.1349,
      "velocity": 111,
      "chip": "ym2612"
    },
    {
      "channel": 1,
      "note": 52,
      "start": 38.9374,
      "duration": 0.1343,
      "velocity": 111,
      "chip": "ym2612"
    },
    {
      "channel": 0,
      "note": 26,
      "start": 39.0872,
      "duration": 0.6056,
      "velocity": 125,
      "chip": "ym2612"
    },
    {
      "channel": 1,
      "note": 52,
      "start": 39.0902,
      "duration": 0.1398,
      "velocity": 111,
      "chip": "ym2612"
    },
    {
      "channel": 2,
      "note": 63,
      "start": 39.0933,
      "duration": 0.4428,
      "velocity": 99,
      "chip": "ym2612"
    },
    {
      "channel": 1,
      "note": 52,
      "start": 39.2425,
      "duration": 0.1349,
      "velocity": 111,
      "chip": "ym2612"
    },
    {
      "channel": 1,
      "note": 52,
      "start": 39.39,
      "duration": 0.1455,
      "velocity": 111,
      "chip": "ym2612"
    },
    {
      "channel": 1,
      "note": 52,
      "start": 39.548,
      "duration": 0.1354,
      "velocity": 111,
      "chip": "ym2612"
    },
    {
      "channel": 2,
      "note": 61,
      "start": 39.5491,
      "duration": 0.1495,
      "velocity": 99,
      "chip": "ym2612"
    },
    {
      "channel": 1,
      "note": 52,
      "start": 39.6954,
      "duration": 0.0032,
      "velocity": 111,
      "chip": "ym2612"
    }
  ]
}