{
  "track_name": "05 - Boss Theme",
  "duration_sec": 46.695,
  "sample_rate": 44100,
  "note_count": 1107,
  "unique_pitches": 34,
  "pitch_range": 60,
  "avg_note_duration": 0.1796,
  "reconstruction_stats": {
    "notes_reconstructed": 1107,
    "keyon_events": 1107,
    "keyoff_events": 1102,
    "orphan_keyons": 5,
    "unique_pitches": 34,
    "pitch_range": 60,
    "avg_duration_sec": 0.1796
  },
  "metadata": {
    "source": "E\\Eliminate Down\\05 - Boss Theme.vgm"
  },
  "notes": [
    {
      "channel": 1,
      "note": 72,
      "start": 0.0,
      "duration": 0.6685,
      "velocity": 93,
      "chip": "ym2612"
    },
    {
      "channel": 2,
      "note": 45,
      "start": 0.0021,
      "duration": 1.7617,
      "velocity": 127,
      "chip": "ym2612"
    },
    {
      "channel": 3,
      "note": 48,
      "start": 0.0037,
      "duration": 0.6649,
      "velocity": 80,
      "chip": "ym2612"
    },
    {
      "channel": 4,
      "note": 60,
      "start": 0.0054,
      "duration": 0.6633,
      "velocity": 105,
      "chip": "ym2612"
    },
    {
      "channel": 5,
      "note": 72,
      "start": 0.0071,
      "duration": 0.6617,
      "velocity": 127,
      "chip": "ym2612"
    },
    {
      "channel": 1,
      "note": 77,
      "start": 0.7526,
      "duration": 0.2317,
      "velocity": 93,
      "chip": "ym2612"
    },
    {
      "channel": 3,
      "note": 53,
      "start": 0.7528,
      "duration": 0.2317,
      "velocity": 80,
      "chip": "ym2612"
    },
    {
      "channel": 4,
      "note": 65,
      "start": 0.753,
      "duration": 0.2319,
      "velocity": 105,
      "chip": "ym2612"
    },
    {
      "channel": 5,
      "note": 77,
      "start": 0.7532,
      "duration": 0.2319,
      "velocity": 127,
      "chip": "ym2612"
    },
    {
      "channel": 1,
      "note": 78,
      "start": 1.0054,
      "duration": 0.4423,
      "velocity": 93,
      "chip": "ym2612"
    },
    {
      "channel": 3,
      "note": 54,
      "start": 1.0056,
      "duration": 0.4422,
      "velocity": 80,
      "chip": "ym2612"
    },
    {
      "channel": 4,
      "note": 66,
      "start": 1.0058,
      "duration": 0.4422,
      "velocity": 105,
      "chip": "ym2612"
    },
    {
      "channel": 5,
      "note": 78,
      "start": 1.006,
      "duration": 0.4421,
      "velocity": 127,
      "chip": "ym2612"
    },
    {
      "channel": 1,
      "note": 77,
      "start": 1.511,
      "duration": 0.4423,
      "velocity": 93,
      "chip": "ym2612"
    },
    {
      "channel": 3,
      "note": 53,
      "start": 1.5112,
      "duration": 0.4422,
      "velocity": 80,
      "chip": "ym2612"
    },
    {
      "channel": 4,
      "note": 65,
      "start": 1.5114,
      "duration": 0.4422,
      "velocity": 105,
      "chip": "ym2612"
    },
    {
      "channel": 5,
      "note": 77,
      "start": 1.5116,
      "duration": 0.4421,
      "velocity": 127,
      "chip": "ym2612"
    },
    {
      "channel": 1,
      "note": 72,
      "start": 2.0167,
      "duration": 0.1052,
      "velocity": 93,
      "chip": "ym2612"
    },
    {
      "channel": 2,
      "note": 68,
      "start": 2.0187,
      "duration": 0.1033,
      "velocity": 127,
      "chip": "ym2612"
    },
    {
      "channel": 3,
      "note": 48,
      "start": 2.0189,
      "duration": 0.1032,
      "velocity": 80,
      "chip": "ym2612"
    },
    {
      "channel": 4,
      "note": 60,
      "start": 2.0191,
      "duration": 0.1032,
      "velocity": 105,
      "chip": "ym2612"
    },
    {
      "channel": 5,
      "note": 60,
      "start": 2.0193,
      "duration": 0.1031,
      "velocity": 127,
      "chip": "ym2612"
    },
    {
      "channel": 1,
      "note": 78,
      "start": 2.143,
      "duration": 0.1052,
      "velocity": 93,
      "chip": "ym2612"
    },
    {
      "channel": 2,
      "note": 68,
      "start": 2.1432,
      "duration": 0.1052,
      "velocity": 127,
      "chip": "ym2612"
    },
    {
      "channel": 3,
      "note": 54,
      "start": 2.1433,
      "duration": 0.1051,
      "velocity": 80,
      "chip": "ym2612"
    },
    {
      "channel": 4,
      "note": 66,
      "start": 2.1435,
      "duration": 0.1051,
      "velocity": 105,
      "chip": "ym2612"
    },
    {
      "channel": 5,
      "note": 66,
      "start": 2.1437,
      "duration": 0.105,
      "velocity": 127,
      "chip": "ym2612"
    },
    {
      "channel": 1,
      "note": 81,
      "start": 2.2694,
      "duration": 0.1053,
      "velocity": 93,
      "chip": "ym2612"
    },
    {
      "channel": 2,
      "note": 68,
      "start": 2.2695,
      "duration": 0.1053,
      "velocity": 127,
      "chip": "ym2612"
    },
    {
      "channel": 3,
      "note": 57,
      "start": 2.2697,
      "duration": 0.1052,
      "velocity": 80,
      "chip": "ym2612"
    },
    {
      "channel": 4,
      "note": 69,
      "start": 2.2699,
      "duration": 0.1051,
      "velocity": 105,
      "chip": "ym2612"
    },
    {
      "channel": 5,
      "note": 69,
      "start": 2.2701,
      "duration": 0.1051,
      "velocity": 127,
      "chip": "ym2612"
    },
    {
      "channel": 1,
      "note": 84,
      "start": 2.3958,
      "duration": 0.5687,
      "velocity": 93,
      "chip": "ym2612"
    },
    {
      "channel": 2,
      "note": 45,
      "start": 2.3975,
      "duration": 0.5671,
      "velocity": 127,
      "chip": "ym2612"
    },
    {
      "channel": 3,
      "note": 60,
      "start": 2.3977,
      "duration": 0.5671,
      "velocity": 80,
      "chip": "ym2612"
    },
    {
      "channel": 4,
      "note": 72,
      "start": 2.3979,
      "duration": 0.567,
      "velocity": 105,
      "chip": "ym2612"
    },
    {
      "channel": 5,
      "note": 72,
      "start": 2.3981,
      "duration": 0.5669,
      "velocity": 127,
      "chip": "ym2612"
    },
    {
      "channel": 1,
      "note": 78,
      "start": 3.0278,
      "duration": 0.1053,
      "velocity": 93,
      "chip": "ym2612"
    },
    {
      "channel": 2,
      "note": 68,
      "start": 3.0295,
      "duration": 0.1037,
      "velocity": 127,
      "chip": "ym2612"
    },
    {
      "channel": 3,
      "note": 54,
      "start": 3.0297,
      "duration": 0.1037,
      "velocity": 80,
      "chip": "ym2612"
    },
    {
      "channel": 4,
      "note": 66,
      "start": 3.0299,
      "duration": 0.1036,
      "velocity": 105,
      "chip": "ym2612"
    },
    {
      "channel": 5,
      "note": 66,
      "start": 3.03,
      "duration": 0.1036,
      "velocity": 127,
      "chip": "ym2612"
    },
    {
      "channel": 1,
      "note": 81,
      "start": 3.1543,
      "duration": 0.1052,
      "velocity": 93,
      "chip": "ym2612"
    },
    {
      "channel": 2,
      "note": 68,
      "start": 3.1544,
      "duration": 0.1052,
      "velocity": 127,
      "chip": "ym2612"
    },
    {
      "channel": 3,
      "note": 57,
      "start": 3.1546,
      "duration": 0.1051,
      "velocity": 80,
      "chip": "ym2612"
    },
    {
      "channel": 4,
      "note": 69,
      "start": 3.1548,
      "duration": 0.1051,
      "velocity": 105,
      "chip": "ym2612"
    },
    {
      "channel": 5,
      "note": 69,
      "start": 3.155,
      "duration": 0.105,
      "velocity": 127,
      "chip": "ym2612"
    },
    {
      "channel": 1,
      "note": 84,
      "start": 3.2807,
      "duration": 0.1052,
      "velocity": 93,
      "chip": "ym2612"
    },
    {
      "channel": 2,
      "note": 68,
      "start": 3.2808,
      "duration": 0.1052,
      "velocity": 127,
      "chip": "ym2612"
    },
    {
      "channel": 3,
      "note": 60,
      "start": 3.281,
      "duration": 0.1051,
      "velocity": 80,
      "chip": "ym2612"
    },
    {
      "channel": 4,
      "note": 72,
      "start": 3.2812,
      "duration": 0.1051,
      "velocity": 105,
      "chip": "ym2612"
    },
    {
      "channel": 5,
      "note": 72,
      "start": 3.2814,
      "duration": 0.105,
      "velocity": 127,
      "chip": "ym2612"
    },
    {
      "channel": 1,
      "note": 90,
      "start": 3.4071,
      "duration": 0.5687,
      "velocity": 93,
      "chip": "ym2612"
    },
    {
      "channel": 2,
      "note": 45,
      "start": 3.4087,
      "duration": 0.5672,
      "velocity": 127,
      "chip": "ym2612"
    },
    {
      "channel": 3,
      "note": 66,
      "start": 3.4089,
      "duration": 0.5671,
      "velocity": 80,
      "chip": "ym2612"
    },
    {
      "channel": 4,
      "note": 78,
      "start": 3.4091,
      "duration": 0.5671,
      "velocity": 105,
      "chip": "ym2612"
    },
    {
      "channel": 5,
      "note": 78,
      "start": 3.4093,
      "duration": 0.567,
      "velocity": 127,
      "chip": "ym2612"
    },
    {
      "channel": 1,
      "note": 81,
      "start": 4.039,
      "duration": 0.1053,
      "velocity": 93,
      "chip": "ym2612"
    },
    {
      "channel": 2,
      "note": 68,
      "start": 4.0407,
      "duration": 0.1037,
      "velocity": 127,
      "chip": "ym2612"
    },
    {
      "channel": 3,
      "note": 57,
      "start": 4.0409,
      "duration": 0.1036,
      "velocity": 80,
      "chip": "ym2612"
    },
    {
      "channel": 4,
      "note": 69,
      "start": 4.0411,
      "duration": 0.1036,
      "velocity": 105,
      "chip": "ym2612"
    },
    {
      "channel": 5,
      "note": 69,
      "start": 4.0413,
      "duration": 0.1035,
      "velocity": 127,
      "chip": "ym2612"
    },
    {
      "channel": 1,
      "note": 84,
      "start": 4.1655,
      "duration": 0.1052,
      "velocity": 93,
      "chip": "ym2612"
    },
    {
      "channel": 2,
      "note": 68,
      "start": 4.1655,
      "duration": 0.1053,
      "velocity": 127,
      "chip": "ym2612"
    },
    {
      "channel": 3,
      "note": 60,
      "start": 4.1657,
      "duration": 0.1052,
      "velocity": 80,
      "chip": "ym2612"
    },
    {
      "channel": 4,
      "note": 72,
      "start": 4.1659,
      "duration": 0.1051,
      "velocity": 105,
      "chip": "ym2612"
    },
    {
      "channel": 5,
      "note": 72,
      "start": 4.1661,
      "duration": 0.1051,
      "velocity": 127,
      "chip": "ym2612"
    },
    {
      "channel": 1,
      "note": 90,
      "start": 4.2919,
      "duration": 0.1052,
      "velocity": 93,
      "chip": "ym2612"
    },
    {
      "channel": 2,
      "note": 68,
      "start": 4.292,
      "duration": 0.1052,
      "velocity": 127,
      "chip": "ym2612"
    },
    {
      "channel": 3,
      "note": 66,
      "start": 4.2922,
      "duration": 0.1051,
      "velocity": 80,
      "chip": "ym2612"
    },
    {
      "channel": 4,
      "note": 78,
      "start": 4.2924,
      "duration": 0.1051,
      "velocity": 105,
      "chip": "ym2612"
    },
    {
      "channel": 5,
      "note": 78,
      "start": 4.2926,
      "duration": 0.105,
      "velocity": 127,
      "chip": "ym2612"
    },
    {
      "channel": 1,
      "note": 93,
      "start": 4.4185,
      "duration": 1.4532,
      "velocity": 93,
      "chip": "ym2612"
    },
    {
      "channel": 2,
      "note": 45,
      "start": 4.4202,
      "duration": 0.5667,
      "velocity": 127,
      "chip": "ym2612"
    },
    {
      "channel": 3,
      "note": 69,
      "start": 4.4204,
      "duration": 1.4515,
      "velocity": 80,
      "chip": "ym2612"
    },
    {
      "channel": 4,
      "note": 81,
      "start": 4.4206,
      "duration": 1.4514,
      "velocity": 105,
      "chip": "ym2612"
    },
    {
      "channel": 5,
      "note": 81,
      "start": 4.4208,
      "duration": 1.4513,
      "velocity": 127,
      "chip": "ym2612"
    },
    {
      "channel": 1,
      "note": 69,
      "start": 6.0629,
      "duration": 0.0869,
      "velocity": 127,
      "chip": "ym2612"
    },
    {
      "channel": 2,
      "note": 45,
      "start": 6.0631,
      "duration": 0.7105,
      "velocity": 127,
      "chip": "ym2612"
    },
    {
      "channel": 3,
      "note": 54,
      "start": 6.0632,
      "duration": 0.0868,
      "velocity": 80,
      "chip": "ym2612"
    },
    {
      "channel": 4,
      "note": 69,
      "start": 6.0634,
      "duration": 0.7104,
      "velocity": 105,
      "chip": "ym2612"
    },
    {
      "channel": 5,
      "note": 57,
      "start": 6.0636,
      "duration": 0.7104,
      "velocity": 127,
      "chip": "ym2612"
    },
    {
      "channel": 1,
      "note": 69,
      "start": 6.1667,
      "duration": 0.0843,
      "velocity": 127,
      "chip": "ym2612"
    },
    {
      "channel": 3,
      "note": 57,
      "start": 6.1669,
      "duration": 0.0843,
      "velocity": 80,
      "chip": "ym2612"
    },
    {
      "channel": 1,
      "note": 69,
      "start": 6.2679,
      "duration": 0.0842,
      "velocity": 127,
      "chip": "ym2612"
    },
    {
      "channel": 3,
      "note": 57,
      "start": 6.2683,
      "duration": 0.0839,
      "velocity": 80,
      "chip": "ym2612"
    },
    {
      "channel": 1,
      "note": 69,
      "start": 6.3689,
      "duration": 0.0844,
      "velocity": 127,
      "chip": "ym2612"
    },
    {
      "channel": 3,
      "note": 57,
      "start": 6.3691,
      "duration": 0.0843,
      "velocity": 80,
      "chip": "ym2612"
    },
    {
      "channel": 1,
      "note": 69,
      "start": 6.47,
      "duration": 0.0843,
      "velocity": 127,
      "chip": "ym2612"
    },
    {
      "channel": 3,
      "note": 57,
      "start": 6.4702,
      "duration": 0.0842,
      "velocity": 80,
      "chip": "ym2612"
    },
    {
      "channel": 1,
      "note": 69,
      "start": 6.5712,
      "duration": 0.0843,
      "velocity": 127,
      "chip": "ym2612"
    },
    {
      "channel": 3,
      "note": 57,
      "start": 6.5713,
      "duration": 0.0843,
      "velocity": 80,
      "chip": "ym2612"
    },
    {
      "channel": 1,
      "note": 69,
      "start": 6.6723,
      "duration": 0.0842,
      "velocity": 127,
      "chip": "ym2612"
    },
    {
      "channel": 3,
      "note": 57,
      "start": 6.6725,
      "duration": 0.0842,
      "velocity": 80,
      "chip": "ym2612"
    },
    {
      "channel": 1,
      "note": 69,
      "start": 6.7735,
      "duration": 0.0841,
      "velocity": 127,
      "chip": "ym2612"
    },
    {
      "channel": 3,
      "note": 57,
      "start": 6.7737,
      "duration": 0.0841,
      "velocity": 80,
      "chip": "ym2612"
    },
    {
      "channel": 1,
      "note": 71,
      "start": 6.8746,
      "duration": 0.2695,
      "velocity": 127,
      "chip": "ym2612"
    },
    {
      "channel": 2,
      "note": 68,
      "start": 6.8763,
      "duration": 0.268,
      "velocity": 127,
      "chip": "ym2612"
    },
    {
      "channel": 3,
      "note": 59,
      "start": 6.8765,
      "duration": 0.2679,
      "velocity": 80,
      "chip": "ym2612"
    },
    {
      "channel": 4,
      "note": 71,
      "start": 6.8767,
      "duration": 0.2679,
      "velocity": 105,
      "chip": "ym2612"
    },
    {
      "channel": 5,
      "note": 59,
      "start": 6.8769,
      "duration": 0.2678,
      "velocity": 127,
      "chip": "ym2612"
    },
    {
      "channel": 1,
      "note": 69,
      "start": 7.178,
      "duration": 0.2696,
      "velocity": 127,
      "chip": "ym2612"
    },
    {
      "channel": 2,
      "note": 68,
      "start": 7.1781,
      "duration": 0.2696,
      "velocity": 127,
      "chip": "ym2612"
    },
    {
      "channel": 3,
      "note": 57,
      "start": 7.1783,
      "duration": 0.2695,
      "velocity": 80,
      "chip": "ym2612"
    },
    {
      "channel": 4,
      "note": 69,
      "start": 7.1785,
      "duration": 0.2695,
      "velocity": 105,
      "chip": "ym2612"
    },
    {
      "channel": 5,
      "note": 57,
      "start": 7.1787,
      "duration": 0.2694,
      "velocity": 127,
      "chip": "ym2612"
    },
    {
      "channel": 1,
      "note": 71,
      "start": 7.4813,
      "duration": 0.1854,
      "velocity": 127,
      "chip": "ym2612"
    },
    {
      "channel": 2,
      "note": 68,
      "start": 7.4815,
      "duration": 0.1854,
      "velocity": 127,
      "chip": "ym2612"
    },
    {
      "channel": 3,
      "note": 59,
      "start": 7.4816,
      "duration": 0.1853,
      "velocity": 80,
      "chip": "ym2612"
    },
    {
      "channel": 4,
      "note": 71,
      "start": 7.4818,
      "duration": 0.1853,
      "velocity": 105,
      "chip": "ym2612"
    },
    {
      "channel": 5,
      "note": 59,
      "start": 7.482,
      "duration": 0.1852,
      "velocity": 127,
      "chip": "ym2612"
    },
    {
      "channel": 1,
      "note": 66,
      "start": 7.6836,
      "duration": 0.0843,
      "velocity": 127,
      "chip": "ym2612"
    },
    {
      "channel": 2,
      "note": 45,
      "start": 7.6857,
      "duration": 0.7058,
      "velocity": 127,
      "chip": "ym2612"
    },
    {
      "channel": 3,
      "note": 54,
      "start": 7.6859,
      "duration": 0.0824,
      "velocity": 80,
      "chip": "ym2612"
    },
    {
      "channel": 4,
      "note": 69,
      "start": 7.6861,
      "duration": 0.7057,
      "velocity": 105,
      "chip": "ym2612"
    },
    {
      "channel": 5,
      "note": 57,
      "start": 7.6862,
      "duration": 0.7057,
      "velocity": 127,
      "chip": "ym2612"
    },
    {
      "channel": 1,
      "note": 69,
      "start": 7.7852,
      "duration": 0.0837,
      "velocity": 127,
      "chip": "ym2612"
    },
    {
      "channel": 3,
      "note": 57,
      "start": 7.7854,
      "duration": 0.0837,
      "velocity": 80,
      "chip": "ym2612"
    },
    {
      "channel": 1,
      "note": 69,
      "start": 7.8858,
      "duration": 0.0843,
      "velocity": 127,
      "chip": "ym2612"
    },
    {
      "channel": 3,
      "note": 57,
      "start": 7.8859,
      "duration": 0.0843,
      "velocity": 80,
      "chip": "ym2612"
    },
    {
      "channel": 1,
      "note": 69,
      "start": 7.9869,
      "duration": 0.0842,
      "velocity": 127,
      "chip": "ym2612"
    },
    {
      "channel": 3,
      "note": 57,
      "start": 7.9871,
      "duration": 0.0842,
      "velocity": 80,
      "chip": "ym2612"
    },
    {
      "channel": 1,
      "note": 69,
      "start": 8.088,
      "duration": 0.0842,
      "velocity": 127,
      "chip": "ym2612"
    },
    {
      "channel": 3,
      "note": 57,
      "start": 8.0882,
      "duration": 0.0842,
      "velocity": 80,
      "chip": "ym2612"
    },
    {
      "channel": 1,
      "note": 69,
      "start": 8.1891,
      "duration": 0.0843,
      "velocity": 127,
      "chip": "ym2612"
    },
    {
      "channel": 3,
      "note": 57,
      "start": 8.1893,
      "duration": 0.0843,
      "velocity": 80,
      "chip": "ym2612"
    },
    {
      "channel": 1,
      "note": 69,
      "start": 8.2903,
      "duration": 0.0842,
      "velocity": 127,
      "chip": "ym2612"
    },
    {
      "channel": 3,
      "note": 57,
      "start": 8.2904,
      "duration": 0.0842,
      "velocity": 80,
      "chip": "ym2612"
    },
    {
      "channel": 1,
      "note": 69,
      "start": 8.3914,
      "duration": 0.0842,
      "velocity": 127,
      "chip": "ym2612"
    },
    {
      "channel": 3,
      "note": 57,
      "start": 8.3917,
      "duration": 0.0841,
      "velocity": 80,
      "chip": "ym2612"
    },
    {
      "channel": 1,
      "note": 71,
      "start": 8.4925,
      "duration": 0.2697,
      "velocity": 127,
      "chip": "ym2612"
    },
    {
      "channel": 2,
      "note": 64,
      "start": 8.4942,
      "duration": 0.268,
      "velocity": 127,
      "chip": "ym2612"
    },
    {
      "channel": 3,
      "note": 59,
      "start": 8.4944,
      "duration": 0.268,
      "velocity": 80,
      "chip": "ym2612"
    },
    {
      "channel": 4,
      "note": 71,
      "start": 8.4946,
      "duration": 0.2679,
      "velocity": 105,
      "chip": "ym2612"
    },
    {
      "channel": 5,
      "note": 59,
      "start": 8.4948,
      "duration": 0.2679,
      "velocity": 127,
      "chip": "ym2612"
    },
    {
      "channel": 1,
      "note": 69,
      "start": 8.7959,
      "duration": 0.2696,
      "velocity": 127,
      "chip": "ym2612"
    },
    {
      "channel": 2,
      "note": 61,
      "start": 8.7961,
      "duration": 0.2695,
      "velocity": 127,
      "chip": "ym2612"
    },
    {
      "channel": 3,
      "note": 57,
      "start": 8.7963,
      "duration": 0.2695,
      "velocity": 80,
      "chip": "ym2612"
    },
    {
      "channel": 4,
      "note": 69,
      "start": 8.7965,
      "duration": 0.2694,
      "velocity": 105,
      "chip": "ym2612"
    },
    {
      "channel": 5,
      "note": 57,
      "start": 8.7967,
      "duration": 0.2693,
      "velocity": 127,
      "chip": "ym2612"
    },
    {
      "channel": 1,
      "note": 68,
      "start": 9.0993,
      "duration": 0.1856,
      "velocity": 127,
      "chip": "ym2612"
    },
    {
      "channel": 2,
      "note": 57,
      "start": 9.0995,
      "duration": 0.1855,
      "velocity": 127,
      "chip": "ym2612"
    },
    {
      "channel": 3,
      "note": 56,
      "start": 9.0997,
      "duration": 0.1854,
      "velocity": 80,
      "chip": "ym2612"
    },
    {
      "channel": 4,
      "note": 68,
      "start": 9.0999,
      "duration": 0.1854,
      "velocity": 105,
      "chip": "ym2612"
    },
    {
      "channel": 5,
      "note": 56,
      "start": 9.1001,
      "duration": 0.1853,
      "velocity": 127,
      "chip": "ym2612"
    },
    {
      "channel": 1,
      "note": 66,
      "start": 9.3019,
      "duration": 0.0838,
      "velocity": 127,
      "chip": "ym2612"
    },
    {
      "channel": 2,
      "note": 45,
      "start": 9.3035,
      "duration": 0.7059,
      "velocity": 127,
      "chip": "ym2612"
    },
    {
      "channel": 3,
      "note": 54,
      "start": 9.3037,
      "duration": 0.0822,
      "velocity": 80,
      "chip": "ym2612"
    },
    {
      "channel": 4,
      "note": 69,
      "start": 9.3039,
      "duration": 0.7058,
      "velocity": 105,
      "chip": "ym2612"
    },
    {
      "channel": 5,
      "note": 57,
      "start": 9.3041,
      "duration": 0.7057,
      "velocity": 127,
      "chip": "ym2612"
    },
    {
      "channel": 1,
      "note": 69,
      "start": 9.4027,
      "duration": 0.0841,
      "velocity": 127,
      "chip": "ym2612"
    },
    {
      "channel": 3,
      "note": 57,
      "start": 9.4029,
      "duration": 0.0841,
      "velocity": 80,
      "chip": "ym2612"
    },
    {
      "channel": 1,
      "note": 69,
      "start": 9.5037,
      "duration": 0.0842,
      "velocity": 127,
      "chip": "ym2612"
    },
    {
      "channel": 3,
      "note": 57,
      "start": 9.5038,
      "duration": 0.0843,
      "velocity": 80,
      "chip": "ym2612"
    },
    {
      "channel": 1,
      "note": 69,
      "start": 9.6048,
      "duration": 0.0843,
      "velocity": 127,
      "chip": "ym2612"
    },
    {
      "channel": 3,
      "note": 57,
      "start": 9.6049,
      "duration": 0.0844,
      "velocity": 80,
      "chip": "ym2612"
    },
    {
      "channel": 1,
      "note": 69,
      "start": 9.7059,
      "duration": 0.0842,
      "velocity": 127,
      "chip": "ym2612"
    },
    {
      "channel": 3,
      "note": 57,
      "start": 9.7061,
      "duration": 0.0843,
      "velocity": 80,
      "chip": "ym2612"
    },
    {
      "channel": 1,
      "note": 69,
      "start": 9.8071,
      "duration": 0.0842,
      "velocity": 127,
      "chip": "ym2612"
    },
    {
      "channel": 3,
      "note": 57,
      "start": 9.8072,
      "duration": 0.0842,
      "velocity": 80,
      "chip": "ym2612"
    },
    {
      "channel": 1,
      "note": 69,
      "start": 9.9082,
      "duration": 0.0843,
      "velocity": 127,
      "chip": "ym2612"
    },
    {
      "channel": 3,
      "note": 57,
      "start": 9.9083,
      "duration": 0.0843,
      "velocity": 80,
      "chip": "ym2612"
    },
    {
      "channel": 1,
      "note": 69,
      "start": 10.0093,
      "duration": 0.0843,
      "velocity": 127,
      "chip": "ym2612"
    },
    {
      "channel": 3,
      "note": 57,
      "start": 10.0096,
      "duration": 0.0841,
      "velocity": 80,
      "chip": "ym2612"
    },
    {
      "channel": 1,
      "note": 71,
      "start": 10.1105,
      "duration": 0.2696,
      "velocity": 127,
      "chip": "ym2612"
    },
    {
      "channel": 2,
      "note": 33,
      "start": 10.1122,
      "duration": 0.1836,
      "velocity": 127,
      "chip": "ym2612"
    },
    {
      "channel": 3,
      "note": 59,
      "start": 10.1124,
      "duration": 0.2678,
      "velocity": 80,
      "chip": "ym2612"
    },
    {
      "channel": 4,
      "note": 71,
      "start": 10.1125,
      "duration": 0.2678,
      "velocity": 105,
      "chip": "ym2612"
    },
    {
      "channel": 5,
      "note": 59,
      "start": 10.1127,
      "duration": 0.2678,
      "velocity": 127,
      "chip": "ym2612"
    },
    {
      "channel": 2,
      "note": 68,
      "start": 10.3142,
      "duration": 0.1839,
      "velocity": 127,
      "chip": "ym2612"
    },
    {
      "channel": 1,
      "note": 69,
      "start": 10.4139,
      "duration": 0.2695,
      "velocity": 127,
      "chip": "ym2612"
    },
    {
      "channel": 3,
      "note": 57,
      "start": 10.4141,
      "duration": 0.2695,
      "velocity": 80,
      "chip": "ym2612"
    },
    {
      "channel": 4,
      "note": 69,
      "start": 10.4143,
      "duration": 0.2694,
      "velocity": 105,
      "chip": "ym2612"
    },
    {
      "channel": 5,
      "note": 57,
      "start": 10.4145,
      "duration": 0.2693,
      "velocity": 127,
      "chip": "ym2612"
    },
    {
      "channel": 2,
      "note": 33,
      "start": 10.5164,
      "duration": 0.1839,
      "velocity": 127,
      "chip": "ym2612"
    },
    {
      "channel": 1,
      "note": 71,
      "start": 10.7173,
      "duration": 0.1853,
      "velocity": 127,
      "chip": "ym2612"
    },
    {
      "channel": 2,
      "note": 68,
      "start": 10.7192,
      "duration": 0.1835,
      "velocity": 127,
      "chip": "ym2612"
    },
    {
      "channel": 3,
      "note": 59,
      "start": 10.7194,
      "duration": 0.1834,
      "velocity": 80,
      "chip": "ym2612"
    },
    {
      "channel": 4,
      "note": 71,
      "start": 10.7196,
      "duration": 0.1833,
      "velocity": 105,
      "chip": "ym2612"
    },
    {
      "channel": 5,
      "note": 59,
      "start": 10.7198,
      "duration": 0.1833,
      "velocity": 127,
      "chip": "ym2612"
    },
    {
      "channel": 2,
      "note": 57,
      "start": 10.9195,
      "duration": 0.7078,
      "velocity": 127,
      "chip": "ym2612"
    },
    {
      "channel": 1,
      "note": 72,
      "start": 11.1217,
      "duration": 0.1853,
      "velocity": 127,
      "chip": "ym2612"
    },
    {
      "channel": 3,
      "note": 60,
      "start": 11.122,
      "duration": 0.1852,
      "velocity": 80,
      "chip": "ym2612"
    },
    {
      "channel": 4,
      "note": 72,
      "start": 11.1222,
      "duration": 0.1851,
      "velocity": 105,
      "chip": "ym2612"
    },
    {
      "channel": 5,
      "note": 60,
      "start": 11.1223,
      "duration": 0.1851,
      "velocity": 127,
      "chip": "ym2612"
    },
    {
      "channel": 1,
      "note": 71,
      "start": 11.3239,
      "duration": 0.1854,
      "velocity": 127,
      "chip": "ym2612"
    },
    {
      "channel": 3,
      "note": 59,
      "start": 11.3242,
      "duration": 0.1852,
      "velocity": 80,
      "chip": "ym2612"
    },
    {
      "channel": 4,
      "note": 71,
      "start": 11.3244,
      "duration": 0.1852,
      "velocity": 105,
      "chip": "ym2612"
    },
    {
      "channel": 5,
      "note": 59,
      "start": 11.3245,
      "duration": 0.1852,
      "velocity": 127,
      "chip": "ym2612"
    },
    {
      "channel": 1,
      "note": 74,
      "start": 11.7285,
      "duration": 0.2358,
      "velocity": 127,
      "chip": "ym2612"
    },
    {
      "channel": 2,
      "note": 68,
      "start": 11.7286,
      "duration": 0.084,
      "velocity": 127,
      "chip": "ym2612"
    },
    {
      "channel": 3,
      "note": 62,
      "start": 11.7288,
      "duration": 0.2356,
      "velocity": 80,
      "chip": "ym2612"
    },
    {
      "channel": 4,
      "note": 74,
      "start": 11.729,
      "duration": 0.2355,
      "velocity": 105,
      "chip": "ym2612"
    },
    {
      "channel": 5,
      "note": 62,
      "start": 11.7292,
      "duration": 0.2354,
      "velocity": 127,
      "chip": "ym2612"
    },
    {
      "channel": 2,
      "note": 68,
      "start": 11.8295,
      "duration": 0.0842,
      "velocity": 127,
      "chip": "ym2612"
    },
    {
      "channel": 2,
      "note": 68,
      "start": 11.9306,
      "duration": 0.0843,
      "velocity": 127,
      "chip": "ym2612"
    },
    {
      "channel": 1,
      "note": 73,
      "start": 11.998,
      "duration": 0.2359,
      "velocity": 127,
      "chip": "ym2612"
    },
    {
      "channel": 3,
      "note": 61,
      "start": 11.9982,
      "duration": 0.2359,
      "velocity": 80,
      "chip": "ym2612"
    },
    {
      "channel": 4,
      "note": 73,
      "start": 11.9984,
      "duration": 0.2359,
      "velocity": 105,
      "chip": "ym2612"
    },
    {
      "channel": 5,
      "note": 61,
      "start": 11.9986,
      "duration": 0.2359,
      "velocity": 127,
      "chip": "ym2612"
    },
    {
      "channel": 2,
      "note": 68,
      "start": 12.0318,
      "duration": 0.0843,
      "velocity": 127,
      "chip": "ym2612"
    },
    {
      "channel": 2,
      "note": 68,
      "start": 12.1328,
      "duration": 0.0842,
      "velocity": 127,
      "chip": "ym2612"
    },
    {
      "channel": 2,
      "note": 68,
      "start": 12.2341,
      "duration": 0.0844,
      "velocity": 127,
      "chip": "ym2612"
    },
    {
      "channel": 1,
      "note": 72,
      "start": 12.2678,
      "duration": 0.2358,
      "velocity": 127,
      "chip": "ym2612"
    },
    {
      "channel": 3,
      "note": 60,
      "start": 12.2683,
      "duration": 0.2354,
      "velocity": 80,
      "chip": "ym2612"
    },
    {
      "channel": 4,
      "note": 72,
      "start": 12.2685,
      "duration": 0.2354,
      "velocity": 105,
      "chip": "ym2612"
    },
    {
      "channel": 5,
      "note": 60,
      "start": 12.2687,
      "duration": 0.2353,
      "velocity": 127,
      "chip": "ym2612"
    },
    {
      "channel": 2,
      "note": 68,
      "start": 12.3352,
      "duration": 0.0842,
      "velocity": 127,
      "chip": "ym2612"
    },
    {
      "channel": 2,
      "note": 68,
      "start": 12.4362,
      "duration": 0.0843,
      "velocity": 127,
      "chip": "ym2612"
    },
    {
      "channel": 1,
      "note": 57,
      "start": 12.5374,
      "duration": 0.1853,
      "velocity": 127,
      "chip": "ym2612"
    },
    {
      "channel": 2,
      "note": 33,
      "start": 12.539,
      "duration": 0.1839,
      "velocity": 127,
      "chip": "ym2612"
    },
    {
      "channel": 3,
      "note": 45,
      "start": 12.5392,
      "duration": 0.1838,
      "velocity": 80,
      "chip": "ym2612"
    },
    {
      "channel": 4,
      "note": 57,
      "start": 12.5397,
      "duration": 0.7057,
      "velocity": 105,
      "chip": "ym2612"
    },
    {
      "channel": 5,
      "note": 57,
      "start": 12.5402,
      "duration": 0.7053,
      "velocity": 127,
      "chip": "ym2612"
    },
    {
      "channel": 1,
      "note": 57,
      "start": 12.7396,
      "duration": 0.0843,
      "velocity": 127,
      "chip": "ym2612"
    },
    {
      "channel": 2,
      "note": 68,
      "start": 12.7412,
      "duration": 0.1838,
      "velocity": 127,
      "chip": "ym2612"
    },
    {
      "channel": 3,
      "note": 45,
      "start": 12.7413,
      "duration": 0.0827,
      "velocity": 80,
      "chip": "ym2612"
    },
    {
      "channel": 1,
      "note": 57,
      "start": 12.8407,
      "duration": 0.0842,
      "velocity": 127,
      "chip": "ym2612"
    },
    {
      "channel": 3,
      "note": 45,
      "start": 12.8408,
      "duration": 0.0844,
      "velocity": 80,
      "chip": "ym2612"
    },
    {
      "channel": 1,
      "note": 57,
      "start": 12.9418,
      "duration": 0.0842,
      "velocity": 127,
      "chip": "ym2612"
    },
    {
      "channel": 2,
      "note": 33,
      "start": 12.9435,
      "duration": 0.0827,
      "velocity": 127,
      "chip": "ym2612"
    },
    {
      "channel": 3,
      "note": 45,
      "start": 12.9436,
      "duration": 0.0827,
      "velocity": 80,
      "chip": "ym2612"
    },
    {
      "channel": 1,
      "note": 57,
      "start": 13.0429,
      "duration": 0.0842,
      "velocity": 127,
      "chip": "ym2612"
    },
    {
      "channel": 2,
      "note": 33,
      "start": 13.0431,
      "duration": 0.0842,
      "velocity": 127,
      "chip": "ym2612"
    },
    {
      "channel": 3,
      "note": 45,
      "start": 13.0432,
      "duration": 0.0842,
      "velocity": 80,
      "chip": "ym2612"
    },
    {
      "channel": 1,
      "note": 57,
      "start": 13.144,
      "duration": 0.0842,
      "velocity": 127,
      "chip": "ym2612"
    },
    {
      "channel": 2,
      "note": 68,
      "start": 13.1457,
      "duration": 0.1838,
      "velocity": 127,
      "chip": "ym2612"
    },
    {
      "channel": 3,
      "note": 45,
      "start": 13.1458,
      "duration": 0.0826,
      "velocity": 80,
      "chip": "ym2612"
    },
    {
      "channel": 1,
      "note": 57,
      "start": 13.2451,
      "duration": 0.0843,
      "velocity": 127,
      "chip": "ym2612"
    },
    {
      "channel": 3,
      "note": 45,
      "start": 13.2452,
      "duration": 0.0844,
      "velocity": 80,
      "chip": "ym2612"
    },
    {
      "channel": 1,
      "note": 56,
      "start": 13.3463,
      "duration": 0.1854,
      "velocity": 127,
      "chip": "ym2612"
    },
    {
      "channel": 2,
      "note": 33,
      "start": 13.348,
      "duration": 0.0826,
      "velocity": 127,
      "chip": "ym2612"
    },
    {
      "channel": 3,
      "note": 44,
      "start": 13.3482,
      "duration": 0.1838,
      "velocity": 80,
      "chip": "ym2612"
    },
    {
      "channel": 4,
      "note": 56,
      "start": 13.3484,
      "duration": 0.706,
      "velocity": 105,
      "chip": "ym2612"
    },
    {
      "channel": 5,
      "note": 56,
      "start": 13.3485,
      "duration": 0.706,
      "velocity": 127,
      "chip": "ym2612"
    },
    {
      "channel": 2,
      "note": 33,
      "start": 13.4474,
      "duration": 0.0844,
      "velocity": 127,
      "chip": "ym2612"
    },
    {
      "channel": 1,
      "note": 56,
      "start": 13.5485,
      "duration": 0.0843,
      "velocity": 127,
      "chip": "ym2612"
    },
    {
      "channel": 2,
      "note": 68,
      "start": 13.5501,
      "duration": 0.1839,
      "velocity": 127,
      "chip": "ym2612"
    },
    {
      "channel": 3,
      "note": 44,
      "start": 13.5503,
      "duration": 0.0826,
      "velocity": 80,
      "chip": "ym2612"
    },
    {
      "channel": 1,
      "note": 56,
      "start": 13.6496,
      "duration": 0.0843,
      "velocity": 127,
      "chip": "ym2612"
    },
    {
      "channel": 3,
      "note": 44,
      "start": 13.6498,
      "duration": 0.0844,
      "velocity": 80,
      "chip": "ym2612"
    },
    {
      "channel": 1,
      "note": 56,
      "start": 13.7508,
      "duration": 0.0844,
      "velocity": 127,
      "chip": "ym2612"
    },
    {
      "channel": 2,
      "note": 33,
      "start": 13.7528,
      "duration": 0.1835,
      "velocity": 127,
      "chip": "ym2612"
    },
    {
      "channel": 3,
      "note": 44,
      "start": 13.7529,
      "duration": 0.0823,
      "velocity": 80,
      "chip": "ym2612"
    },
    {
      "channel": 1,
      "note": 56,
      "start": 13.8519,
      "duration": 0.0843,
      "velocity": 127,
      "chip": "ym2612"
    },
    {
      "channel": 3,
      "note": 44,
      "start": 13.8521,
      "duration": 0.0843,
      "velocity": 80,
      "chip": "ym2612"
    },
    {
      "channel": 1,
      "note": 56,
      "start": 13.953,
      "duration": 0.0842,
      "velocity": 127,
      "chip": "ym2612"
    },
    {
      "channel": 2,
      "note": 68,
      "start": 13.9547,
      "duration": 0.1839,
      "velocity": 127,
      "chip": "ym2612"
    },
    {
      "channel": 3,
      "note": 44,
      "start": 13.9548,
      "duration": 0.0826,
      "velocity": 80,
      "chip": "ym2612"
    },
    {
      "channel": 1,
      "note": 56,
      "start": 14.0541,
      "duration": 0.0843,
      "velocity": 127,
      "chip": "ym2612"
    },
    {
      "channel": 3,
      "note": 44,
      "start": 14.0543,
      "duration": 0.0844,
      "velocity": 80,
      "chip": "ym2612"
    },
    {
      "channel": 1,
      "note": 57,
      "start": 14.1554,
      "duration": 0.1853,
      "velocity": 127,
      "chip": "ym2612"
    },
    {
      "channel": 2,
      "note": 33,
      "start": 14.157,
      "duration": 0.1838,
      "velocity": 127,
      "chip": "ym2612"
    },
    {
      "channel": 3,
      "note": 45,
      "start": 14.1571,
      "duration": 0.1837,
      "velocity": 80,
      "chip": "ym2612"
    },
    {
      "channel": 4,
      "note": 57,
      "start": 14.1573,
      "duration": 0.706,
      "velocity": 105,
      "chip": "ym2612"
    },
    {
      "channel": 5,
      "note": 57,
      "start": 14.1575,
      "duration": 0.7059,
      "velocity": 127,
      "chip": "ym2612"
    },
    {
      "channel": 1,
      "note": 57,
      "start": 14.3575,
      "duration": 0.0843,
      "velocity": 127,
      "chip": "ym2612"
    },
    {
      "channel": 2,
      "note": 68,
      "start": 14.3592,
      "duration": 0.1838,
      "velocity": 127,
      "chip": "ym2612"
    },
    {
      "channel": 3,
      "note": 45,
      "start": 14.3593,
      "duration": 0.0827,
      "velocity": 80,
      "chip": "ym2612"
    },
    {
      "channel": 1,
      "note": 57,
      "start": 14.4586,
      "duration": 0.0842,
      "velocity": 127,
      "chip": "ym2612"
    },
    {
      "channel": 3,
      "note": 45,
      "start": 14.4587,
      "duration": 0.0844,
      "velocity": 80,
      "chip": "ym2612"
    },
    {
      "channel": 1,
      "note": 57,
      "start": 14.5598,
      "duration": 0.0842,
      "velocity": 127,
      "chip": "ym2612"
    },
    {
      "channel": 2,
      "note": 33,
      "start": 14.5614,
      "duration": 0.0827,
      "velocity": 127,
      "chip": "ym2612"
    },
    {
      "channel": 3,
      "note": 45,
      "start": 14.5615,
      "duration": 0.0827,
      "velocity": 80,
      "chip": "ym2612"
    },
    {
      "channel": 1,
      "note": 57,
      "start": 14.6608,
      "duration": 0.0843,
      "velocity": 127,
      "chip": "ym2612"
    },
    {
      "channel": 2,
      "note": 33,
      "start": 14.661,
      "duration": 0.0843,
      "velocity": 127,
      "chip": "ym2612"
    },
    {
      "channel": 3,
      "note": 45,
      "start": 14.6611,
      "duration": 0.0843,
      "velocity": 80,
      "chip": "ym2612"
    },
    {
      "channel": 1,
      "note": 57,
      "start": 14.762,
      "duration": 0.0842,
      "velocity": 127,
      "chip": "ym2612"
    },
    {
      "channel": 2,
      "note": 68,
      "start": 14.7636,
      "duration": 0.1839,
      "velocity": 127,
      "chip": "ym2612"
    },
    {
      "channel": 3,
      "note": 45,
      "start": 14.7638,
      "duration": 0.0826,
      "velocity": 80,
      "chip": "ym2612"
    },
    {
      "channel": 1,
      "note": 57,
      "start": 14.8631,
      "duration": 0.0843,
      "velocity": 127,
      "chip": "ym2612"
    },
    {
      "channel": 3,
      "note": 45,
      "start": 14.8632,
      "duration": 0.0844,
      "velocity": 80,
      "chip": "ym2612"
    },
    {
      "channel": 1,
      "note": 59,
      "start": 14.9643,
      "duration": 0.1852,
      "velocity": 127,
      "chip": "ym2612"
    },
    {
      "channel": 2,
      "note": 33,
      "start": 14.9659,
      "duration": 0.0826,
      "velocity": 127,
      "chip": "ym2612"
    },
    {
      "channel": 3,
      "note": 47,
      "start": 14.9661,
      "duration": 0.1837,
      "velocity": 80,
      "chip": "ym2612"
    },
    {
      "channel": 4,
      "note": 59,
      "start": 14.9663,
      "duration": 0.706,
      "velocity": 105,
      "chip": "ym2612"
    },
    {
      "channel": 5,
      "note": 59,
      "start": 14.9665,
      "duration": 0.706,
      "velocity": 127,
      "chip": "ym2612"
    },
    {
      "channel": 2,
      "note": 33,
      "start": 15.0654,
      "duration": 0.0843,
      "velocity": 127,
      "chip": "ym2612"
    },
    {
      "channel": 1,
      "note": 59,
      "start": 15.1665,
      "duration": 0.0843,
      "velocity": 127,
      "chip": "ym2612"
    },
    {
      "channel": 2,
      "note": 68,
      "start": 15.1685,
      "duration": 0.1834,
      "velocity": 127,
      "chip": "ym2612"
    },
    {
      "channel": 3,
      "note": 47,
      "start": 15.1686,
      "duration": 0.0823,
      "velocity": 80,
      "chip": "ym2612"
    },
    {
      "channel": 1,
      "note": 59,
      "start": 15.2676,
      "duration": 0.0842,
      "velocity": 127,
      "chip": "ym2612"
    },
    {
      "channel": 3,
      "note": 47,
      "start": 15.2677,
      "duration": 0.0844,
      "velocity": 80,
      "chip": "ym2612"
    },
    {
      "channel": 1,
      "note": 59,
      "start": 15.3687,
      "duration": 0.0842,
      "velocity": 127,
      "chip": "ym2612"
    },
    {
      "channel": 2,
      "note": 33,
      "start": 15.3704,
      "duration": 0.1838,
      "velocity": 127,
      "chip": "ym2612"
    },
    {
      "channel": 3,
      "note": 47,
      "start": 15.3705,
      "duration": 0.0826,
      "velocity": 80,
      "chip": "ym2612"
    },
    {
      "channel": 1,
      "note": 59,
      "start": 15.4699,
      "duration": 0.0842,
      "velocity": 127,
      "chip": "ym2612"
    },
    {
      "channel": 3,
      "note": 47,
      "start": 15.47,
      "duration": 0.0844,
      "velocity": 80,
      "chip": "ym2612"
    },
    {
      "channel": 1,
      "note": 59,
      "start": 15.571,
      "duration": 0.0843,
      "velocity": 127,
      "chip": "ym2612"
    },
    {
      "channel": 2,
      "note": 68,
      "start": 15.5726,
      "duration": 0.1839,
      "velocity": 127,
      "chip": "ym2612"
    },
    {
      "channel": 3,
      "note": 47,
      "start": 15.5727,
      "duration": 0.0826,
      "velocity": 80,
      "chip": "ym2612"
    },
    {
      "channel": 1,
      "note": 59,
      "start": 15.6721,
      "duration": 0.0843,
      "velocity": 127,
      "chip": "ym2612"
    },
    {
      "channel": 3,
      "note": 47,
      "start": 15.6722,
      "duration": 0.0844,
      "velocity": 80,
      "chip": "ym2612"
    },
    {
      "channel": 1,
      "note": 60,
      "start": 15.7733,
      "duration": 0.1852,
      "velocity": 127,
      "chip": "ym2612"
    },
    {
      "channel": 2,
      "note": 33,
      "start": 15.7749,
      "duration": 0.1838,
      "velocity": 127,
      "chip": "ym2612"
    },
    {
      "channel": 3,
      "note": 48,
      "start": 15.7751,
      "duration": 0.1837,
      "velocity": 80,
      "chip": "ym2612"
    },
    {
      "channel": 4,
      "note": 60,
      "start": 15.7753,
      "duration": 1.4155,
      "velocity": 105,
      "chip": "ym2612"
    },
    {
      "channel": 5,
      "note": 60,
      "start": 15.7755,
      "duration": 1.4155,
      "velocity": 127,
      "chip": "ym2612"
    },
    {
      "channel": 1,
      "note": 60,
      "start": 15.9755,
      "duration": 0.0842,
      "velocity": 127,
      "chip": "ym2612"
    },
    {
      "channel": 2,
      "note": 68,
      "start": 15.9771,
      "duration": 0.1839,
      "velocity": 127,
      "chip": "ym2612"
    },
    {
      "channel": 3,
      "note": 48,
      "start": 15.9772,
      "duration": 0.0826,
      "velocity": 80,
      "chip": "ym2612"
    },
    {
      "channel": 1,
      "note": 60,
      "start": 16.0766,
      "duration": 0.0843,
      "velocity": 127,
      "chip": "ym2612"
    },
    {
      "channel": 3,
      "note": 48,
      "start": 16.0767,
      "duration": 0.0844,
      "velocity": 80,
      "chip": "ym2612"
    },
    {
      "channel": 1,
      "note": 60,
      "start": 16.1777,
      "duration": 0.0842,
      "velocity": 127,
      "chip": "ym2612"
    },
    {
      "channel": 2,
      "note": 33,
      "start": 16.1793,
      "duration": 0.0827,
      "velocity": 127,
      "chip": "ym2612"
    },
    {
      "channel": 3,
      "note": 48,
      "start": 16.1795,
      "duration": 0.0827,
      "velocity": 80,
      "chip": "ym2612"
    },
    {
      "channel": 1,
      "note": 60,
      "start": 16.2788,
      "duration": 0.0842,
      "velocity": 127,
      "chip": "ym2612"
    },
    {
      "channel": 2,
      "note": 33,
      "start": 16.279,
      "duration": 0.0842,
      "velocity": 127,
      "chip": "ym2612"
    },
    {
      "channel": 3,
      "note": 48,
      "start": 16.2791,
      "duration": 0.0842,
      "velocity": 80,
      "chip": "ym2612"
    },
    {
      "channel": 1,
      "note": 60,
      "start": 16.3799,
      "duration": 0.0842,
      "velocity": 127,
      "chip": "ym2612"
    },
    {
      "channel": 2,
      "note": 68,
      "start": 16.3816,
      "duration": 0.1839,
      "velocity": 127,
      "chip": "ym2612"
    },
    {
      "channel": 3,
      "note": 48,
      "start": 16.3817,
      "duration": 0.0826,
      "velocity": 80,
      "chip": "ym2612"
    },
    {
      "channel": 1,
      "note": 60,
      "start": 16.4811,
      "duration": 0.0842,
      "velocity": 127,
      "chip": "ym2612"
    },
    {
      "channel": 3,
      "note": 48,
      "start": 16.4812,
      "duration": 0.0844,
      "velocity": 80,
      "chip": "ym2612"
    },
    {
      "channel": 1,
      "note": 60,
      "start": 16.5822,
      "duration": 0.0843,
      "velocity": 127,
      "chip": "ym2612"
    },
    {
      "channel": 2,
      "note": 33,
      "start": 16.5838,
      "duration": 0.0828,
      "velocity": 127,
      "chip": "ym2612"
    },
    {
      "channel": 3,
      "note": 48,
      "start": 16.5839,
      "duration": 0.0828,
      "velocity": 80,
      "chip": "ym2612"
    },
    {
      "channel": 1,
      "note": 60,
      "start": 16.6833,
      "duration": 0.0842,
      "velocity": 127,
      "chip": "ym2612"
    },
    {
      "channel": 2,
      "note": 33,
      "start": 16.6834,
      "duration": 0.0842,
      "velocity": 127,
      "chip": "ym2612"
    },
    {
      "channel": 3,
      "note": 48,
      "start": 16.6835,
      "duration": 0.0843,
      "velocity": 80,
      "chip": "ym2612"
    },
    {
      "channel": 1,
      "note": 60,
      "start": 16.7845,
      "duration": 0.0842,
      "velocity": 127,
      "chip": "ym2612"
    },
    {
      "channel": 2,
      "note": 68,
      "start": 16.7865,
      "duration": 0.1835,
      "velocity": 127,
      "chip": "ym2612"
    },
    {
      "channel": 3,
      "note": 48,
      "start": 16.7865,
      "duration": 0.0822,
      "velocity": 80,
      "chip": "ym2612"
    },
    {
      "channel": 1,
      "note": 60,
      "start": 16.8856,
      "duration": 0.0842,
      "velocity": 127,
      "chip": "ym2612"
    },
    {
      "channel": 3,
      "note": 48,
      "start": 16.8857,
      "duration": 0.0843,
      "velocity": 80,
      "chip": "ym2612"
    },
    {
      "channel": 1,
      "note": 60,
      "start": 16.9866,
      "duration": 0.0844,
      "velocity": 127,
      "chip": "ym2612"
    },
    {
      "channel": 2,
      "note": 33,
      "start": 16.9883,
      "duration": 0.1839,
      "velocity": 127,
      "chip": "ym2612"
    },
    {
      "channel": 3,
      "note": 48,
      "start": 16.9884,
      "duration": 0.0827,
      "velocity": 80,
      "chip": "ym2612"
    },
    {
      "channel": 1,
      "note": 60,
      "start": 17.0877,
      "duration": 0.0843,
      "velocity": 127,
      "chip": "ym2612"
    },
    {
      "channel": 3,
      "note": 48,
      "start": 17.0879,
      "duration": 0.0844,
      "velocity": 80,
      "chip": "ym2612"
    },
    {
      "channel": 1,
      "note": 60,
      "start": 17.1889,
      "duration": 0.0843,
      "velocity": 127,
      "chip": "ym2612"
    },
    {
      "channel": 2,
      "note": 68,
      "start": 17.1905,
      "duration": 0.1838,
      "velocity": 127,
      "chip": "ym2612"
    },
    {
      "channel": 3,
      "note": 48,
      "start": 17.1907,
      "duration": 0.0827,
      "velocity": 80,
      "chip": "ym2612"
    },
    {
      "channel": 1,
      "note": 60,
      "start": 17.29,
      "duration": 0.0843,
      "velocity": 127,
      "chip": "ym2612"
    },
    {
      "channel": 3,
      "note": 48,
      "start": 17.2901,
      "duration": 0.0844,
      "velocity": 80,
      "chip": "ym2612"
    },
    {
      "channel": 1,
      "note": 61,
      "start": 17.3912,
      "duration": 0.0842,
      "velocity": 127,
      "chip": "ym2612"
    },
    {
      "channel": 2,
      "note": 68,
      "start": 17.3913,
      "duration": 0.0842,
      "velocity": 127,
      "chip": "ym2612"
    },
    {
      "channel": 3,
      "note": 49,
      "start": 17.3915,
      "duration": 0.0841,
      "velocity": 80,
      "chip": "ym2612"
    },
    {
      "channel": 4,
      "note": 61,
      "start": 17.3917,
      "duration": 0.0841,
      "velocity": 105,
      "chip": "ym2612"
    },
    {
      "channel": 5,
      "note": 61,
      "start": 17.3919,
      "duration": 0.084,
      "velocity": 127,
      "chip": "ym2612"
    },
    {
      "channel": 1,
      "note": 60,
      "start": 17.4923,
      "duration": 0.0842,
      "velocity": 127,
      "chip": "ym2612"
    },
    {
      "channel": 2,
      "note": 68,
      "start": 17.4924,
      "duration": 0.0841,
      "velocity": 127,
      "chip": "ym2612"
    },
    {
      "channel": 3,
      "note": 48,
      "start": 17.4926,
      "duration": 0.0841,
      "velocity": 80,
      "chip": "ym2612"
    },
    {
      "channel": 4,
      "note": 60,
      "start": 17.4928,
      "duration": 0.084,
      "velocity": 105,
      "chip": "ym2612"
    },
    {
      "channel": 5,
      "note": 60,
      "start": 17.493,
      "duration": 0.084,
      "velocity": 127,
      "chip": "ym2612"
    },
    {
      "channel": 2,
      "note": 68,
      "start": 17.5933,
      "duration": 0.0843,
      "velocity": 127,
      "chip": "ym2612"
    },
    {
      "channel": 1,
      "note": 61,
      "start": 17.6946,
      "duration": 0.2695,
      "velocity": 127,
      "chip": "ym2612"
    },
    {
      "channel": 2,
      "note": 68,
      "start": 17.6947,
      "duration": 0.084,
      "velocity": 127,
      "chip": "ym2612"
    },
    {
      "channel": 3,
      "note": 49,
      "start": 17.6949,
      "duration": 0.2693,
      "velocity": 80,
      "chip": "ym2612"
    },
    {
      "channel": 4,
      "note": 61,
      "start": 17.6951,
      "duration": 0.2693,
      "velocity": 105,
      "chip": "ym2612"
    },
    {
      "channel": 5,
      "note": 61,
      "start": 17.6953,
      "duration": 0.2692,
      "velocity": 127,
      "chip": "ym2612"
    },
    {
      "channel": 2,
      "note": 68,
      "start": 17.7956,
      "duration": 0.0842,
      "velocity": 127,
      "chip": "ym2612"
    },
    {
      "channel": 2,
      "note": 68,
      "start": 17.8968,
      "duration": 0.0842,
      "velocity": 127,
      "chip": "ym2612"
    },
    {
      "channel": 1,
      "note": 56,
      "start": 17.9979,
      "duration": 0.3539,
      "velocity": 127,
      "chip": "ym2612"
    },
    {
      "channel": 2,
      "note": 68,
      "start": 17.998,
      "duration": 0.0841,
      "velocity": 127,
      "chip": "ym2612"
    },
    {
      "channel": 3,
      "note": 44,
      "start": 17.9982,
      "duration": 0.3538,
      "velocity": 80,
      "chip": "ym2612"
    },
    {
      "channel": 4,
      "note": 56,
      "start": 17.9984,
      "duration": 0.3537,
      "velocity": 105,
      "chip": "ym2612"
    },
    {
      "channel": 5,
      "note": 56,
      "start": 17.9986,
      "duration": 0.3536,
      "velocity": 127,
      "chip": "ym2612"
    },
    {
      "channel": 2,
      "note": 68,
      "start": 18.099,
      "duration": 0.0842,
      "velocity": 127,
      "chip": "ym2612"
    },
    {
      "channel": 2,
      "note": 64,
      "start": 18.2021,
      "duration": 0.0823,
      "velocity": 127,
      "chip": "ym2612"
    },
    {
      "channel": 2,
      "note": 61,
      "start": 18.3019,
      "duration": 0.0837,
      "velocity": 127,
      "chip": "ym2612"
    },
    {
      "channel": 1,
      "note": 57,
      "start": 18.4024,
      "duration": 0.3539,
      "velocity": 127,
      "chip": "ym2612"
    },
    {
      "channel": 2,
      "note": 57,
      "start": 18.4026,
      "duration": 0.084,
      "velocity": 127,
      "chip": "ym2612"
    },
    {
      "channel": 3,
      "note": 45,
      "start": 18.4028,
      "duration": 0.3536,
      "velocity": 80,
      "chip": "ym2612"
    },
    {
      "channel": 4,
      "note": 57,
      "start": 18.403,
      "duration": 0.3535,
      "velocity": 105,
      "chip": "ym2612"
    },
    {
      "channel": 5,
      "note": 57,
      "start": 18.4032,
      "duration": 0.3534,
      "velocity": 127,
      "chip": "ym2612"
    },
    {
      "channel": 2,
      "note": 57,
      "start": 18.5034,
      "duration": 0.0842,
      "velocity": 127,
      "chip": "ym2612"
    },
    {
      "channel": 2,
      "note": 64,
      "start": 18.6047,
      "duration": 0.0841,
      "velocity": 127,
      "chip": "ym2612"
    },
    {
      "channel": 2,
      "note": 61,
      "start": 18.7057,
      "duration": 0.0842,
      "velocity": 127,
      "chip": "ym2612"
    },
    {
      "channel": 1,
      "note": 59,
      "start": 18.8069,
      "duration": 0.1853,
      "velocity": 127,
      "chip": "ym2612"
    },
    {
      "channel": 2,
      "note": 57,
      "start": 18.8071,
      "duration": 0.084,
      "velocity": 127,
      "chip": "ym2612"
    },
    {
      "channel": 3,
      "note": 47,
      "start": 18.8073,
      "duration": 0.1851,
      "velocity": 80,
      "chip": "ym2612"
    },
    {
      "channel": 4,
      "note": 59,
      "start": 18.8075,
      "duration": 0.1851,
      "velocity": 105,
      "chip": "ym2612"
    },
    {
      "channel": 5,
      "note": 59,
      "start": 18.8077,
      "duration": 0.185,
      "velocity": 127,
      "chip": "ym2612"
    },
    {
      "channel": 2,
      "note": 57,
      "start": 18.9079,
      "duration": 0.0844,
      "velocity": 127,
      "chip": "ym2612"
    },
    {
      "channel": 1,
      "note": 61,
      "start": 19.0091,
      "duration": 0.0841,
      "velocity": 127,
      "chip": "ym2612"
    },
    {
      "channel": 2,
      "note": 68,
      "start": 19.0108,
      "duration": 0.0826,
      "velocity": 127,
      "chip": "ym2612"
    },
    {
      "channel": 3,
      "note": 49,
      "start": 19.011,
      "duration": 0.0825,
      "velocity": 80,
      "chip": "ym2612"
    },
    {
      "channel": 4,
      "note": 61,
      "start": 19.0112,
      "duration": 0.0824,
      "velocity": 105,
      "chip": "ym2612"
    },
    {
      "channel": 5,
      "note": 61,
      "start": 19.0114,
      "duration": 0.0824,
      "velocity": 127,
      "chip": "ym2612"
    },
    {
      "channel": 1,
      "note": 60,
      "start": 19.1102,
      "duration": 0.0843,
      "velocity": 127,
      "chip": "ym2612"
    },
    {
      "channel": 2,
      "note": 68,
      "start": 19.1103,
      "duration": 0.0843,
      "velocity": 127,
      "chip": "ym2612"
    },
    {
      "channel": 3,
      "note": 48,
      "start": 19.1105,
      "duration": 0.0842,
      "velocity": 80,
      "chip": "ym2612"
    },
    {
      "channel": 4,
      "note": 60,
      "start": 19.1107,
      "duration": 0.0842,
      "velocity": 105,
      "chip": "ym2612"
    },
    {
      "channel": 5,
      "note": 60,
      "start": 19.1109,
      "duration": 0.0841,
      "velocity": 127,
      "chip": "ym2612"
    },
    {
      "channel": 2,
      "note": 68,
      "start": 19.2113,
      "duration": 0.0842,
      "velocity": 127,
      "chip": "ym2612"
    },
    {
      "channel": 1,
      "note": 61,
      "start": 19.3125,
      "duration": 0.2696,
      "velocity": 127,
      "chip": "ym2612"
    },
    {
      "channel": 2,
      "note": 68,
      "start": 19.3126,
      "duration": 0.084,
      "velocity": 127,
      "chip": "ym2612"
    },
    {
      "channel": 3,
      "note": 49,
      "start": 19.3129,
      "duration": 0.2693,
      "velocity": 80,
      "chip": "ym2612"
    },
    {
      "channel": 4,
      "note": 61,
      "start": 19.3131,
      "duration": 0.2693,
      "velocity": 105,
      "chip": "ym2612"
    },
    {
      "channel": 5,
      "note": 61,
      "start": 19.3132,
      "duration": 0.2692,
      "velocity": 127,
      "chip": "ym2612"
    },
    {
      "channel": 2,
      "note": 68,
      "start": 19.4136,
      "duration": 0.0842,
      "velocity": 127,
      "chip": "ym2612"
    },
    {
      "channel": 2,
      "note": 68,
      "start": 19.5147,
      "duration": 0.0842,
      "velocity": 127,
      "chip": "ym2612"
    },
    {
      "channel": 1,
      "note": 56,
      "start": 19.6159,
      "duration": 0.3539,
      "velocity": 127,
      "chip": "ym2612"
    },
    {
      "channel": 2,
      "note": 68,
      "start": 19.616,
      "duration": 0.0841,
      "velocity": 127,
      "chip": "ym2612"
    },
    {
      "channel": 3,
      "note": 44,
      "start": 19.6162,
      "duration": 0.3537,
      "velocity": 80,
      "chip": "ym2612"
    },
    {
      "channel": 4,
      "note": 56,
      "start": 19.6164,
      "duration": 0.3536,
      "velocity": 105,
      "chip": "ym2612"
    },
    {
      "channel": 5,
      "note": 56,
      "start": 19.6166,
      "duration": 0.3536,
      "velocity": 127,
      "chip": "ym2612"
    },
    {
      "channel": 2,
      "note": 68,
      "start": 19.7169,
      "duration": 0.0844,
      "velocity": 127,
      "chip": "ym2612"
    },
    {
      "channel": 2,
      "note": 33,
      "start": 19.82,
      "duration": 0.0823,
      "velocity": 127,
      "chip": "ym2612"
    },
    {
      "channel": 2,
      "note": 68,
      "start": 19.9206,
      "duration": 0.0827,
      "velocity": 127,
      "chip": "ym2612"
    },
    {
      "channel": 1,
      "note": 57,
      "start": 20.0203,
      "duration": 0.3539,
      "velocity": 127,
      "chip": "ym2612"
    },
    {
      "channel": 2,
      "note": 33,
      "start": 20.022,
      "duration": 0.1837,
      "velocity": 127,
      "chip": "ym2612"
    },
    {
      "channel": 3,
      "note": 45,
      "start": 20.0221,
      "duration": 0.3522,
      "velocity": 80,
      "chip": "ym2612"
    },
    {
      "channel": 4,
      "note": 57,
      "start": 20.0223,
      "duration": 0.3522,
      "velocity": 105,
      "chip": "ym2612"
    },
    {
      "channel": 5,
      "note": 57,
      "start": 20.0225,
      "duration": 0.3521,
      "velocity": 127,
      "chip": "ym2612"
    },
    {
      "channel": 2,
      "note": 45,
      "start": 20.2241,
      "duration": 0.3523,
      "velocity": 127,
      "chip": "ym2612"
    },
    {
      "channel": 1,
      "note": 59,
      "start": 20.4248,
      "duration": 0.1854,
      "velocity": 127,
      "chip": "ym2612"
    },
    {
      "channel": 3,
      "note": 47,
      "start": 20.425,
      "duration": 0.1853,
      "velocity": 80,
      "chip": "ym2612"
    },
    {
      "channel": 4,
      "note": 59,
      "start": 20.4251,
      "duration": 0.1852,
      "velocity": 105,
      "chip": "ym2612"
    },
    {
      "channel": 5,
      "note": 59,
      "start": 20.4253,
      "duration": 0.1852,
      "velocity": 127,
      "chip": "ym2612"
    },
    {
      "channel": 1,
      "note": 57,
      "start": 20.6271,
      "duration": 0.1853,
      "velocity": 127,
      "chip": "ym2612"
    },
    {
      "channel": 2,
      "note": 33,
      "start": 20.6287,
      "duration": 0.1838,
      "velocity": 127,
      "chip": "ym2612"
    },
    {
      "channel": 3,
      "note": 45,
      "start": 20.6289,
      "duration": 0.1837,
      "velocity": 80,
      "chip": "ym2612"
    },
    {
      "channel": 4,
      "note": 57,
      "start": 20.6291,
      "duration": 0.7063,
      "velocity": 105,
      "chip": "ym2612"
    },
    {
      "channel": 5,
      "note": 57,
      "start": 20.6293,
      "duration": 0.7062,
      "velocity": 127,
      "chip": "ym2612"
    },
    {
      "channel": 1,
      "note": 57,
      "start": 20.8293,
      "duration": 0.0842,
      "velocity": 127,
      "chip": "ym2612"
    },
    {
      "channel": 2,
      "note": 68,
      "start": 20.8309,
      "duration": 0.1839,
      "velocity": 127,
      "chip": "ym2612"
    },
    {
      "channel": 3,
      "note": 45,
      "start": 20.831,
      "duration": 0.0826,
      "velocity": 80,
      "chip": "ym2612"
    },
    {
      "channel": 1,
      "note": 57,
      "start": 20.9303,
      "duration": 0.0843,
      "velocity": 127,
      "chip": "ym2612"
    },
    {
      "channel": 3,
      "note": 45,
      "start": 20.9304,
      "duration": 0.0844,
      "velocity": 80,
      "chip": "ym2612"
    },
    {
      "channel": 1,
      "note": 57,
      "start": 21.0315,
      "duration": 0.0843,
      "velocity": 127,
      "chip": "ym2612"
    },
    {
      "channel": 2,
      "note": 33,
      "start": 21.0331,
      "duration": 0.0827,
      "velocity": 127,
      "chip": "ym2612"
    },
    {
      "channel": 3,
      "note": 45,
      "start": 21.0332,
      "duration": 0.0828,
      "velocity": 80,
      "chip": "ym2612"
    },
    {
      "channel": 1,
      "note": 57,
      "start": 21.1326,
      "duration": 0.0842,
      "velocity": 127,
      "chip": "ym2612"
    },
    {
      "channel": 2,
      "note": 33,
      "start": 21.1327,
      "duration": 0.0842,
      "velocity": 127,
      "chip": "ym2612"
    },
    {
      "channel": 3,
      "note": 45,
      "start": 21.1328,
      "duration": 0.0842,
      "velocity": 80,
      "chip": "ym2612"
    },
    {
      "channel": 1,
      "note": 57,
      "start": 21.2337,
      "duration": 0.0847,
      "velocity": 127,
      "chip": "ym2612"
    },
    {
      "channel": 2,
      "note": 68,
      "start": 21.2358,
      "duration": 0.1834,
      "velocity": 127,
      "chip": "ym2612"
    },
    {
      "channel": 3,
      "note": 45,
      "start": 21.2359,
      "duration": 0.0827,
      "velocity": 80,
      "chip": "ym2612"
    },
    {
      "channel": 1,
      "note": 57,
      "start": 21.3351,
      "duration": 0.0839,
      "velocity": 127,
      "chip": "ym2612"
    },
    {
      "channel": 3,
      "note": 45,
      "start": 21.3353,
      "duration": 0.084,
      "velocity": 80,
      "chip": "ym2612"
    },
    {
      "channel": 1,
      "note": 56,
      "start": 21.436,
      "duration": 0.1853,
      "velocity": 127,
      "chip": "ym2612"
    },
    {
      "channel": 2,
      "note": 33,
      "start": 21.4376,
      "duration": 0.0826,
      "velocity": 127,
      "chip": "ym2612"
    },
    {
      "channel": 3,
      "note": 44,
      "start": 21.4378,
      "duration": 0.1838,
      "velocity": 80,
      "chip": "ym2612"
    },
    {
      "channel": 4,
      "note": 56,
      "start": 21.438,
      "duration": 0.7061,
      "velocity": 105,
      "chip": "ym2612"
    },
    {
      "channel": 5,
      "note": 56,
      "start": 21.4382,
      "duration": 0.7061,
      "velocity": 127,
      "chip": "ym2612"
    },
    {
      "channel": 2,
      "note": 33,
      "start": 21.5371,
      "duration": 0.0844,
      "velocity": 127,
      "chip": "ym2612"
    },
    {
      "channel": 1,
      "note": 56,
      "start": 21.6382,
      "duration": 0.0843,
      "velocity": 127,
      "chip": "ym2612"
    },
    {
      "channel": 2,
      "note": 68,
      "start": 21.6398,
      "duration": 0.1839,
      "velocity": 127,
      "chip": "ym2612"
    },
    {
      "channel": 3,
      "note": 44,
      "start": 21.64,
      "duration": 0.0826,
      "velocity": 80,
      "chip": "ym2612"
    },
    {
      "channel": 1,
      "note": 56,
      "start": 21.7393,
      "duration": 0.0843,
      "velocity": 127,
      "chip": "ym2612"
    },
    {
      "channel": 3,
      "note": 44,
      "start": 21.7395,
      "duration": 0.0844,
      "velocity": 80,
      "chip": "ym2612"
    },
    {
      "channel": 1,
      "note": 56,
      "start": 21.8404,
      "duration": 0.0843,
      "velocity": 127,
      "chip": "ym2612"
    },
    {
      "channel": 2,
      "note": 33,
      "start": 21.8421,
      "duration": 0.1839,
      "velocity": 127,
      "chip": "ym2612"
    },
    {
      "channel": 3,
      "note": 44,
      "start": 21.8422,
      "duration": 0.0826,
      "velocity": 80,
      "chip": "ym2612"
    },
    {
      "channel": 1,
      "note": 56,
      "start": 21.9416,
      "duration": 0.0843,
      "velocity": 127,
      "chip": "ym2612"
    },
    {
      "channel": 3,
      "note": 44,
      "start": 21.9417,
      "duration": 0.0844,
      "velocity": 80,
      "chip": "ym2612"
    },
    {
      "channel": 1,
      "note": 56,
      "start": 22.0427,
      "duration": 0.0842,
      "velocity": 127,
      "chip": "ym2612"
    },
    {
      "channel": 2,
      "note": 68,
      "start": 22.0443,
      "duration": 0.1839,
      "velocity": 127,
      "chip": "ym2612"
    },
    {
      "channel": 3,
      "note": 44,
      "start": 22.0444,
      "duration": 0.0827,
      "velocity": 80,
      "chip": "ym2612"
    },
    {
      "channel": 1,
      "note": 56,
      "start": 22.1439,
      "duration": 0.0842,
      "velocity": 127,
      "chip": "ym2612"
    },
    {
      "channel": 3,
      "note": 44,
      "start": 22.144,
      "duration": 0.0844,
      "velocity": 80,
      "chip": "ym2612"
    },
    {
      "channel": 1,
      "note": 57,
      "start": 22.245,
      "duration": 0.1853,
      "velocity": 127,
      "chip": "ym2612"
    },
    {
      "channel": 2,
      "note": 33,
      "start": 22.2466,
      "duration": 0.1839,
      "velocity": 127,
      "chip": "ym2612"
    },
    {
      "channel": 3,
      "note": 45,
      "start": 22.2468,
      "duration": 0.1838,
      "velocity": 80,
      "chip": "ym2612"
    },
    {
      "channel": 4,
      "note": 57,
      "start": 22.247,
      "duration": 0.7061,
      "velocity": 105,
      "chip": "ym2612"
    },
    {
      "channel": 5,
      "note": 57,
      "start": 22.2472,
      "duration": 0.706,
      "velocity": 127,
      "chip": "ym2612"
    },
    {
      "channel": 1,
      "note": 57,
      "start": 22.4472,
      "duration": 0.0843,
      "velocity": 127,
      "chip": "ym2612"
    },
    {
      "channel": 2,
      "note": 68,
      "start": 22.4488,
      "duration": 0.1839,
      "velocity": 127,
      "chip": "ym2612"
    },
    {
      "channel": 3,
      "note": 45,
      "start": 22.4489,
      "duration": 0.0827,
      "velocity": 80,
      "chip": "ym2612"
    },
    {
      "channel": 1,
      "note": 57,
      "start": 22.5482,
      "duration": 0.0843,
      "velocity": 127,
      "chip": "ym2612"
    },
    {
      "channel": 3,
      "note": 45,
      "start": 22.5484,
      "duration": 0.0844,
      "velocity": 80,
      "chip": "ym2612"
    },
    {
      "channel": 1,
      "note": 57,
      "start": 22.6494,
      "duration": 0.0843,
      "velocity": 127,
      "chip": "ym2612"
    },
    {
      "channel": 2,
      "note": 33,
      "start": 22.651,
      "duration": 0.0827,
      "velocity": 127,
      "chip": "ym2612"
    },
    {
      "channel": 3,
      "note": 45,
      "start": 22.6512,
      "duration": 0.0828,
      "velocity": 80,
      "chip": "ym2612"
    },
    {
      "channel": 1,
      "note": 57,
      "start": 22.7505,
      "duration": 0.0846,
      "velocity": 127,
      "chip": "ym2612"
    },
    {
      "channel": 2,
      "note": 33,
      "start": 22.7507,
      "duration": 0.0846,
      "velocity": 127,
      "chip": "ym2612"
    },
    {
      "channel": 3,
      "note": 45,
      "start": 22.7508,
      "duration": 0.0846,
      "velocity": 80,
      "chip": "ym2612"
    },
    {
      "channel": 1,
      "note": 57,
      "start": 22.8518,
      "duration": 0.0842,
      "velocity": 127,
      "chip": "ym2612"
    },
    {
      "channel": 2,
      "note": 68,
      "start": 22.8534,
      "duration": 0.1837,
      "velocity": 127,
      "chip": "ym2612"
    },
    {
      "channel": 3,
      "note": 45,
      "start": 22.8536,
      "duration": 0.0825,
      "velocity": 80,
      "chip": "ym2612"
    },
    {
      "channel": 1,
      "note": 57,
      "start": 22.9527,
      "duration": 0.0843,
      "velocity": 127,
      "chip": "ym2612"
    },
    {
      "channel": 3,
      "note": 45,
      "start": 22.9529,
      "duration": 0.0844,
      "velocity": 80,
      "chip": "ym2612"
    },
    {
      "channel": 1,
      "note": 59,
      "start": 23.054,
      "duration": 0.1853,
      "velocity": 127,
      "chip": "ym2612"
    },
    {
      "channel": 2,
      "note": 33,
      "start": 23.0556,
      "duration": 0.0826,
      "velocity": 127,
      "chip": "ym2612"
    },
    {
      "channel": 3,
      "note": 47,
      "start": 23.0558,
      "duration": 0.1837,
      "velocity": 80,
      "chip": "ym2612"
    },
    {
      "channel": 4,
      "note": 59,
      "start": 23.056,
      "duration": 0.706,
      "velocity": 105,
      "chip": "ym2612"
    },
    {
      "channel": 5,
      "note": 59,
      "start": 23.0562,
      "duration": 0.7059,
      "velocity": 127,
      "chip": "ym2612"
    },
    {
      "channel": 2,
      "note": 33,
      "start": 23.155,
      "duration": 0.0844,
      "velocity": 127,
      "chip": "ym2612"
    },
    {
      "channel": 1,
      "note": 59,
      "start": 23.2562,
      "duration": 0.0841,
      "velocity": 127,
      "chip": "ym2612"
    },
    {
      "channel": 2,
      "note": 68,
      "start": 23.2578,
      "duration": 0.1839,
      "velocity": 127,
      "chip": "ym2612"
    },
    {
      "channel": 3,
      "note": 47,
      "start": 23.2579,
      "duration": 0.0826,
      "velocity": 80,
      "chip": "ym2612"
    },
    {
      "channel": 1,
      "note": 59,
      "start": 23.3573,
      "duration": 0.0842,
      "velocity": 127,
      "chip": "ym2612"
    },
    {
      "channel": 3,
      "note": 47,
      "start": 23.3574,
      "duration": 0.0844,
      "velocity": 80,
      "chip": "ym2612"
    },
    {
      "channel": 1,
      "note": 59,
      "start": 23.4583,
      "duration": 0.0843,
      "velocity": 127,
      "chip": "ym2612"
    },
    {
      "channel": 2,
      "note": 33,
      "start": 23.46,
      "duration": 0.1839,
      "velocity": 127,
      "chip": "ym2612"
    },
    {
      "channel": 3,
      "note": 47,
      "start": 23.4601,
      "duration": 0.0827,
      "velocity": 80,
      "chip": "ym2612"
    },
    {
      "channel": 1,
      "note": 59,
      "start": 23.5594,
      "duration": 0.0843,
      "velocity": 127,
      "chip": "ym2612"
    },
    {
      "channel": 3,
      "note": 47,
      "start": 23.5596,
      "duration": 0.0844,
      "velocity": 80,
      "chip": "ym2612"
    },
    {
      "channel": 1,
      "note": 59,
      "start": 23.6606,
      "duration": 0.0843,
      "velocity": 127,
      "chip": "ym2612"
    },
    {
      "channel": 2,
      "note": 68,
      "start": 23.6622,
      "duration": 0.1839,
      "velocity": 127,
      "chip": "ym2612"
    },
    {
      "channel": 3,
      "note": 47,
      "start": 23.6624,
      "duration": 0.0827,
      "velocity": 80,
      "chip": "ym2612"
    },
    {
      "channel": 1,
      "note": 59,
      "start": 23.7617,
      "duration": 0.0842,
      "velocity": 127,
      "chip": "ym2612"
    },
    {
      "channel": 3,
      "note": 47,
      "start": 23.7619,
      "duration": 0.0843,
      "velocity": 80,
      "chip": "ym2612"
    },
    {
      "channel": 1,
      "note": 60,
      "start": 23.8629,
      "duration": 0.1853,
      "velocity": 127,
      "chip": "ym2612"
    },
    {
      "channel": 2,
      "note": 33,
      "start": 23.8645,
      "duration": 0.1839,
      "velocity": 127,
      "chip": "ym2612"
    },
    {
      "channel": 3,
      "note": 48,
      "start": 23.8647,
      "duration": 0.1838,
      "velocity": 80,
      "chip": "ym2612"
    },
    {
      "channel": 4,
      "note": 60,
      "start": 23.8649,
      "duration": 1.4155,
      "velocity": 105,
      "chip": "ym2612"
    },
    {
      "channel": 5,
      "note": 60,
      "start": 23.8651,
      "duration": 1.4154,
      "velocity": 127,
      "chip": "ym2612"
    },
    {
      "channel": 1,
      "note": 60,
      "start": 24.0651,
      "duration": 0.0843,
      "velocity": 127,
      "chip": "ym2612"
    },
    {
      "channel": 2,
      "note": 68,
      "start": 24.0667,
      "duration": 0.1839,
      "velocity": 127,
      "chip": "ym2612"
    },
    {
      "channel": 3,
      "note": 48,
      "start": 24.0668,
      "duration": 0.0827,
      "velocity": 80,
      "chip": "ym2612"
    },
    {
      "channel": 1,
      "note": 60,
      "start": 24.1662,
      "duration": 0.0843,
      "velocity": 127,
      "chip": "ym2612"
    },
    {
      "channel": 3,
      "note": 48,
      "start": 24.1663,
      "duration": 0.0844,
      "velocity": 80,
      "chip": "ym2612"
    },
    {
      "channel": 1,
      "note": 60,
      "start": 24.2673,
      "duration": 0.0845,
      "velocity": 127,
      "chip": "ym2612"
    },
    {
      "channel": 2,
      "note": 33,
      "start": 24.2694,
      "duration": 0.0826,
      "velocity": 127,
      "chip": "ym2612"
    },
    {
      "channel": 3,
      "note": 48,
      "start": 24.2695,
      "duration": 0.0826,
      "velocity": 80,
      "chip": "ym2612"
    },
    {
      "channel": 1,
      "note": 60,
      "start": 24.3685,
      "duration": 0.0843,
      "velocity": 127,
      "chip": "ym2612"
    },
    {
      "channel": 2,
      "note": 33,
      "start": 24.3686,
      "duration": 0.0843,
      "velocity": 127,
      "chip": "ym2612"
    },
    {
      "channel": 3,
      "note": 48,
      "start": 24.3687,
      "duration": 0.0843,
      "velocity": 80,
      "chip": "ym2612"
    },
    {
      "channel": 1,
      "note": 60,
      "start": 24.4695,
      "duration": 0.0842,
      "velocity": 127,
      "chip": "ym2612"
    },
    {
      "channel": 2,
      "note": 68,
      "start": 24.4712,
      "duration": 0.1838,
      "velocity": 127,
      "chip": "ym2612"
    },
    {
      "channel": 3,
      "note": 48,
      "start": 24.4713,
      "duration": 0.0826,
      "velocity": 80,
      "chip": "ym2612"
    },
    {
      "channel": 1,
      "note": 60,
      "start": 24.5707,
      "duration": 0.0842,
      "velocity": 127,
      "chip": "ym2612"
    },
    {
      "channel": 3,
      "note": 48,
      "start": 24.5708,
      "duration": 0.0844,
      "velocity": 80,
      "chip": "ym2612"
    },
    {
      "channel": 1,
      "note": 60,
      "start": 24.6718,
      "duration": 0.0842,
      "velocity": 127,
      "chip": "ym2612"
    },
    {
      "channel": 2,
      "note": 33,
      "start": 24.6735,
      "duration": 0.0827,
      "velocity": 127,
      "chip": "ym2612"
    },
    {
      "channel": 3,
      "note": 48,
      "start": 24.6736,
      "duration": 0.0827,
      "velocity": 80,
      "chip": "ym2612"
    },
    {
      "channel": 1,
      "note": 60,
      "start": 24.7729,
      "duration": 0.0843,
      "velocity": 127,
      "chip": "ym2612"
    },
    {
      "channel": 2,
      "note": 33,
      "start": 24.773,
      "duration": 0.0843,
      "velocity": 127,
      "chip": "ym2612"
    },
    {
      "channel": 3,
      "note": 48,
      "start": 24.7732,
      "duration": 0.0843,
      "velocity": 80,
      "chip": "ym2612"
    },
    {
      "channel": 1,
      "note": 60,
      "start": 24.8741,
      "duration": 0.0843,
      "velocity": 127,
      "chip": "ym2612"
    },
    {
      "channel": 2,
      "note": 68,
      "start": 24.8756,
      "duration": 0.1839,
      "velocity": 127,
      "chip": "ym2612"
    },
    {
      "channel": 3,
      "note": 48,
      "start": 24.8758,
      "duration": 0.0827,
      "velocity": 80,
      "chip": "ym2612"
    },
    {
      "channel": 1,
      "note": 60,
      "start": 24.9751,
      "duration": 0.0843,
      "velocity": 127,
      "chip": "ym2612"
    },
    {
      "channel": 3,
      "note": 48,
      "start": 24.9753,
      "duration": 0.0844,
      "velocity": 80,
      "chip": "ym2612"
    },
    {
      "channel": 1,
      "note": 60,
      "start": 25.0763,
      "duration": 0.0843,
      "velocity": 127,
      "chip": "ym2612"
    },
    {
      "channel": 2,
      "note": 33,
      "start": 25.0779,
      "duration": 0.1839,
      "velocity": 127,
      "chip": "ym2612"
    },
    {
      "channel": 3,
      "note": 48,
      "start": 25.078,
      "duration": 0.0827,
      "velocity": 80,
      "chip": "ym2612"
    },
    {
      "channel": 1,
      "note": 60,
      "start": 25.1774,
      "duration": 0.0842,
      "velocity": 127,
      "chip": "ym2612"
    },
    {
      "channel": 3,
      "note": 48,
      "start": 25.1776,
      "duration": 0.0843,
      "velocity": 80,
      "chip": "ym2612"
    },
    {
      "channel": 1,
      "note": 60,
      "start": 25.2785,
      "duration": 0.0843,
      "velocity": 127,
      "chip": "ym2612"
    },
    {
      "channel": 2,
      "note": 68,
      "start": 25.2802,
      "duration": 0.1838,
      "velocity": 127,
      "chip": "ym2612"
    },
    {
      "channel": 3,
      "note": 48,
      "start": 25.2803,
      "duration": 0.0826,
      "velocity": 80,
      "chip": "ym2612"
    },
    {
      "channel": 1,
      "note": 60,
      "start": 25.3797,
      "duration": 0.0842,
      "velocity": 127,
      "chip": "ym2612"
    },
    {
      "channel": 3,
      "note": 48,
      "start": 25.3798,
      "duration": 0.0844,
      "velocity": 80,
      "chip": "ym2612"
    },
    {
      "channel": 1,
      "note": 61,
      "start": 25.4808,
      "duration": 0.0842,
      "velocity": 127,
      "chip": "ym2612"
    },
    {
      "channel": 2,
      "note": 68,
      "start": 25.4809,
      "duration": 0.0842,
      "velocity": 127,
      "chip": "ym2612"
    },
    {
      "channel": 3,
      "note": 49,
      "start": 25.4811,
      "duration": 0.0841,
      "velocity": 80,
      "chip": "ym2612"
    },
    {
      "channel": 4,
      "note": 61,
      "start": 25.4813,
      "duration": 0.0841,
      "velocity": 105,
      "chip": "ym2612"
    },
    {
      "channel": 5,
      "note": 61,
      "start": 25.4815,
      "duration": 0.084,
      "velocity": 127,
      "chip": "ym2612"
    },
    {
      "channel": 1,
      "note": 60,
      "start": 25.582,
      "duration": 0.0842,
      "velocity": 127,
      "chip": "ym2612"
    },
    {
      "channel": 2,
      "note": 68,
      "start": 25.5821,
      "duration": 0.0842,
      "velocity": 127,
      "chip": "ym2612"
    },
    {
      "channel": 3,
      "note": 48,
      "start": 25.5823,
      "duration": 0.0842,
      "velocity": 80,
      "chip": "ym2612"
    },
    {
      "channel": 4,
      "note": 60,
      "start": 25.5825,
      "duration": 0.0841,
      "velocity": 105,
      "chip": "ym2612"
    },
    {
      "channel": 5,
      "note": 60,
      "start": 25.5827,
      "duration": 0.084,
      "velocity": 127,
      "chip": "ym2612"
    },
    {
      "channel": 2,
      "note": 68,
      "start": 25.683,
      "duration": 0.0843,
      "velocity": 127,
      "chip": "ym2612"
    },
    {
      "channel": 1,
      "note": 61,
      "start": 25.7842,
      "duration": 0.2695,
      "velocity": 127,
      "chip": "ym2612"
    },
    {
      "channel": 2,
      "note": 68,
      "start": 25.7844,
      "duration": 0.0841,
      "velocity": 127,
      "chip": "ym2612"
    },
    {
      "channel": 3,
      "note": 49,
      "start": 25.7849,
      "duration": 0.269,
      "velocity": 80,
      "chip": "ym2612"
    },
    {
      "channel": 4,
      "note": 61,
      "start": 25.7851,
      "duration": 0.2689,
      "velocity": 105,
      "chip": "ym2612"
    },
    {
      "channel": 5,
      "note": 61,
      "start": 25.7853,
      "duration": 0.2688,
      "velocity": 127,
      "chip": "ym2612"
    },
    {
      "channel": 2,
      "note": 68,
      "start": 25.8853,
      "duration": 0.0843,
      "velocity": 127,
      "chip": "ym2612"
    },
    {
      "channel": 2,
      "note": 68,
      "start": 25.9864,
      "duration": 0.0843,
      "velocity": 127,
      "chip": "ym2612"
    },
    {
      "channel": 1,
      "note": 56,
      "start": 26.0876,
      "duration": 0.3539,
      "velocity": 127,
      "chip": "ym2612"
    },
    {
      "channel": 2,
      "note": 68,
      "start": 26.0877,
      "duration": 0.0841,
      "velocity": 127,
      "chip": "ym2612"
    },
    {
      "channel": 3,
      "note": 44,
      "start": 26.0879,
      "duration": 0.3537,
      "velocity": 80,
      "chip": "ym2612"
    },
    {
      "channel": 4,
      "note": 56,
      "start": 26.088,
      "duration": 0.3536,
      "velocity": 105,
      "chip": "ym2612"
    },
    {
      "channel": 5,
      "note": 56,
      "start": 26.0883,
      "duration": 0.3536,
      "velocity": 127,
      "chip": "ym2612"
    },
    {
      "channel": 2,
      "note": 68,
      "start": 26.1886,
      "duration": 0.0843,
      "velocity": 127,
      "chip": "ym2612"
    },
    {
      "channel": 2,
      "note": 64,
      "start": 26.2913,
      "duration": 0.0827,
      "velocity": 127,
      "chip": "ym2612"
    },
    {
      "channel": 2,
      "note": 61,
      "start": 26.3909,
      "duration": 0.0842,
      "velocity": 127,
      "chip": "ym2612"
    },
    {
      "channel": 1,
      "note": 57,
      "start": 26.4921,
      "duration": 0.3539,
      "velocity": 127,
      "chip": "ym2612"
    },
    {
      "channel": 2,
      "note": 57,
      "start": 26.4923,
      "duration": 0.0839,
      "velocity": 127,
      "chip": "ym2612"
    },
    {
      "channel": 3,
      "note": 45,
      "start": 26.4925,
      "duration": 0.3536,
      "velocity": 80,
      "chip": "ym2612"
    },
    {
      "channel": 4,
      "note": 57,
      "start": 26.4927,
      "duration": 0.3535,
      "velocity": 105,
      "chip": "ym2612"
    },
    {
      "channel": 5,
      "note": 57,
      "start": 26.4929,
      "duration": 0.3534,
      "velocity": 127,
      "chip": "ym2612"
    },
    {
      "channel": 2,
      "note": 57,
      "start": 26.5931,
      "duration": 0.0843,
      "velocity": 127,
      "chip": "ym2612"
    },
    {
      "channel": 2,
      "note": 64,
      "start": 26.6944,
      "duration": 0.0841,
      "velocity": 127,
      "chip": "ym2612"
    },
    {
      "channel": 2,
      "note": 61,
      "start": 26.7954,
      "duration": 0.0841,
      "velocity": 127,
      "chip": "ym2612"
    },
    {
      "channel": 1,
      "note": 59,
      "start": 26.8966,
      "duration": 0.1852,
      "velocity": 127,
      "chip": "ym2612"
    },
    {
      "channel": 2,
      "note": 57,
      "start": 26.8968,
      "duration": 0.0839,
      "velocity": 127,
      "chip": "ym2612"
    },
    {
      "channel": 3,
      "note": 47,
      "start": 26.897,
      "duration": 0.1851,
      "velocity": 80,
      "chip": "ym2612"
    },
    {
      "channel": 4,
      "note": 59,
      "start": 26.8972,
      "duration": 0.185,
      "velocity": 105,
      "chip": "ym2612"
    },
    {
      "channel": 5,
      "note": 59,
      "start": 26.8973,
      "duration": 0.185,
      "velocity": 127,
      "chip": "ym2612"
    },
    {
      "channel": 2,
      "note": 57,
      "start": 26.9976,
      "duration": 0.0844,
      "velocity": 127,
      "chip": "ym2612"
    },
    {
      "channel": 1,
      "note": 61,
      "start": 27.0988,
      "duration": 0.0842,
      "velocity": 127,
      "chip": "ym2612"
    },
    {
      "channel": 2,
      "note": 68,
      "start": 27.1005,
      "duration": 0.0827,
      "velocity": 127,
      "chip": "ym2612"
    },
    {
      "channel": 3,
      "note": 49,
      "start": 27.1007,
      "duration": 0.0826,
      "velocity": 80,
      "chip": "ym2612"
    },
    {
      "channel": 4,
      "note": 61,
      "start": 27.1008,
      "duration": 0.0825,
      "velocity": 105,
      "chip": "ym2612"
    },
    {
      "channel": 5,
      "note": 61,
      "start": 27.101,
      "duration": 0.0824,
      "velocity": 127,
      "chip": "ym2612"
    },
    {
      "channel": 1,
      "note": 60,
      "start": 27.1999,
      "duration": 0.0842,
      "velocity": 127,
      "chip": "ym2612"
    },
    {
      "channel": 2,
      "note": 68,
      "start": 27.2,
      "duration": 0.0842,
      "velocity": 127,
      "chip": "ym2612"
    },
    {
      "channel": 3,
      "note": 48,
      "start": 27.2002,
      "duration": 0.0842,
      "velocity": 80,
      "chip": "ym2612"
    },
    {
      "channel": 4,
      "note": 60,
      "start": 27.2004,
      "duration": 0.0841,
      "velocity": 105,
      "chip": "ym2612"
    },
    {
      "channel": 5,
      "note": 60,
      "start": 27.2006,
      "duration": 0.0844,
      "velocity": 127,
      "chip": "ym2612"
    },
    {
      "channel": 2,
      "note": 68,
      "start": 27.301,
      "duration": 0.0842,
      "velocity": 127,
      "chip": "ym2612"
    },
    {
      "channel": 1,
      "note": 61,
      "start": 27.4022,
      "duration": 0.2695,
      "velocity": 127,
      "chip": "ym2612"
    },
    {
      "channel": 2,
      "note": 68,
      "start": 27.4023,
      "duration": 0.0841,
      "velocity": 127,
      "chip": "ym2612"
    },
    {
      "channel": 3,
      "note": 49,
      "start": 27.4026,
      "duration": 0.2693,
      "velocity": 80,
      "chip": "ym2612"
    },
    {
      "channel": 4,
      "note": 61,
      "start": 27.4027,
      "duration": 0.2692,
      "velocity": 105,
      "chip": "ym2612"
    },
    {
      "channel": 5,
      "note": 61,
      "start": 27.4029,
      "duration": 0.2691,
      "velocity": 127,
      "chip": "ym2612"
    },
    {
      "channel": 2,
      "note": 68,
      "start": 27.5032,
      "duration": 0.0842,
      "velocity": 127,
      "chip": "ym2612"
    },
    {
      "channel": 2,
      "note": 68,
      "start": 27.6044,
      "duration": 0.0842,
      "velocity": 127,
      "chip": "ym2612"
    },
    {
      "channel": 1,
      "note": 56,
      "start": 27.7055,
      "duration": 0.3539,
      "velocity": 127,
      "chip": "ym2612"
    },
    {
      "channel": 2,
      "note": 68,
      "start": 27.7056,
      "duration": 0.0841,
      "velocity": 127,
      "chip": "ym2612"
    },
    {
      "channel": 3,
      "note": 44,
      "start": 27.7058,
      "duration": 0.3537,
      "velocity": 80,
      "chip": "ym2612"
    },
    {
      "channel": 4,
      "note": 56,
      "start": 27.706,
      "duration": 0.3536,
      "velocity": 105,
      "chip": "ym2612"
    },
    {
      "channel": 5,
      "note": 56,
      "start": 27.7062,
      "duration": 0.3536,
      "velocity": 127,
      "chip": "ym2612"
    },
    {
      "channel": 2,
      "note": 68,
      "start": 27.8066,
      "duration": 0.0843,
      "velocity": 127,
      "chip": "ym2612"
    },
    {
      "channel": 2,
      "note": 33,
      "start": 27.9093,
      "duration": 0.0827,
      "velocity": 127,
      "chip": "ym2612"
    },
    {
      "channel": 2,
      "note": 68,
      "start": 28.0103,
      "duration": 0.0827,
      "velocity": 127,
      "chip": "ym2612"
    },
    {
      "channel": 1,
      "note": 57,
      "start": 28.11,
      "duration": 0.3538,
      "velocity": 127,
      "chip": "ym2612"
    },
    {
      "channel": 2,
      "note": 33,
      "start": 28.1117,
      "duration": 0.1837,
      "velocity": 127,
      "chip": "ym2612"
    },
    {
      "channel": 3,
      "note": 45,
      "start": 28.1119,
      "duration": 0.3522,
      "velocity": 80,
      "chip": "ym2612"
    },
    {
      "channel": 4,
      "note": 57,
      "start": 28.112,
      "duration": 0.3521,
      "velocity": 105,
      "chip": "ym2612"
    },
    {
      "channel": 5,
      "note": 57,
      "start": 28.1122,
      "duration": 0.352,
      "velocity": 127,
      "chip": "ym2612"
    },
    {
      "channel": 2,
      "note": 45,
      "start": 28.3138,
      "duration": 0.3524,
      "velocity": 127,
      "chip": "ym2612"
    },
    {
      "channel": 1,
      "note": 59,
      "start": 28.5145,
      "duration": 0.1854,
      "velocity": 127,
      "chip": "ym2612"
    },
    {
      "channel": 3,
      "note": 47,
      "start": 28.5147,
      "duration": 0.1852,
      "velocity": 80,
      "chip": "ym2612"
    },
    {
      "channel": 4,
      "note": 59,
      "start": 28.5149,
      "duration": 0.1852,
      "velocity": 105,
      "chip": "ym2612"
    },
    {
      "channel": 5,
      "note": 59,
      "start": 28.515,
      "duration": 0.1852,
      "velocity": 127,
      "chip": "ym2612"
    },
    {
      "channel": 1,
      "note": 61,
      "start": 28.7167,
      "duration": 0.1854,
      "velocity": 127,
      "chip": "ym2612"
    },
    {
      "channel": 2,
      "note": 33,
      "start": 28.7187,
      "duration": 0.1834,
      "velocity": 127,
      "chip": "ym2612"
    },
    {
      "channel": 3,
      "note": 49,
      "start": 28.7189,
      "duration": 0.1834,
      "velocity": 80,
      "chip": "ym2612"
    },
    {
      "channel": 4,
      "note": 73,
      "start": 28.7206,
      "duration": 0.3501,
      "velocity": 103,
      "chip": "ym2612"
    },
    {
      "channel": 5,
      "note": 73,
      "start": 28.7222,
      "duration": 0.3485,
      "velocity": 103,
      "chip": "ym2612"
    },
    {
      "channel": 1,
      "note": 61,
      "start": 28.9188,
      "duration": 0.0843,
      "velocity": 127,
      "chip": "ym2612"
    },
    {
      "channel": 2,
      "note": 68,
      "start": 28.9205,
      "duration": 0.1839,
      "velocity": 127,
      "chip": "ym2612"
    },
    {
      "channel": 3,
      "note": 49,
      "start": 28.9206,
      "duration": 0.0826,
      "velocity": 80,
      "chip": "ym2612"
    },
    {
      "channel": 1,
      "note": 61,
      "start": 29.02,
      "duration": 0.0842,
      "velocity": 127,
      "chip": "ym2612"
    },
    {
      "channel": 3,
      "note": 49,
      "start": 29.0202,
      "duration": 0.0843,
      "velocity": 80,
      "chip": "ym2612"
    },
    {
      "channel": 1,
      "note": 61,
      "start": 29.1211,
      "duration": 0.0843,
      "velocity": 127,
      "chip": "ym2612"
    },
    {
      "channel": 2,
      "note": 33,
      "start": 29.1228,
      "duration": 0.0828,
      "velocity": 127,
      "chip": "ym2612"
    },
    {
      "channel": 3,
      "note": 49,
      "start": 29.1229,
      "duration": 0.0827,
      "velocity": 80,
      "chip": "ym2612"
    },
    {
      "channel": 4,
      "note": 71,
      "start": 29.1231,
      "duration": 0.0827,
      "velocity": 103,
      "chip": "ym2612"
    },
    {
      "channel": 5,
      "note": 71,
      "start": 29.1233,
      "duration": 0.0826,
      "velocity": 103,
      "chip": "ym2612"
    },
    {
      "channel": 1,
      "note": 61,
      "start": 29.2222,
      "duration": 0.0843,
      "velocity": 127,
      "chip": "ym2612"
    },
    {
      "channel": 2,
      "note": 33,
      "start": 29.2223,
      "duration": 0.0843,
      "velocity": 127,
      "chip": "ym2612"
    },
    {
      "channel": 3,
      "note": 49,
      "start": 29.2225,
      "duration": 0.0843,
      "velocity": 80,
      "chip": "ym2612"
    },
    {
      "channel": 4,
      "note": 70,
      "start": 29.2227,
      "duration": 0.0842,
      "velocity": 103,
      "chip": "ym2612"
    },
    {
      "channel": 5,
      "note": 70,
      "start": 29.2229,
      "duration": 0.0841,
      "velocity": 103,
      "chip": "ym2612"
    },
    {
      "channel": 1,
      "note": 61,
      "start": 29.3234,
      "duration": 0.0843,
      "velocity": 127,
      "chip": "ym2612"
    },
    {
      "channel": 2,
      "note": 68,
      "start": 29.325,
      "duration": 0.1839,
      "velocity": 127,
      "chip": "ym2612"
    },
    {
      "channel": 3,
      "note": 49,
      "start": 29.3251,
      "duration": 0.0826,
      "velocity": 80,
      "chip": "ym2612"
    },
    {
      "channel": 4,
      "note": 69,
      "start": 29.3253,
      "duration": 0.0826,
      "velocity": 103,
      "chip": "ym2612"
    },
    {
      "channel": 5,
      "note": 69,
      "start": 29.3255,
      "duration": 0.0825,
      "velocity": 103,
      "chip": "ym2612"
    },
    {
      "channel": 1,
      "note": 61,
      "start": 29.4245,
      "duration": 0.0842,
      "velocity": 127,
      "chip": "ym2612"
    },
    {
      "channel": 3,
      "note": 49,
      "start": 29.4246,
      "duration": 0.0844,
      "velocity": 80,
      "chip": "ym2612"
    },
    {
      "channel": 4,
      "note": 68,
      "start": 29.4248,
      "duration": 0.0843,
      "velocity": 103,
      "chip": "ym2612"
    },
    {
      "channel": 5,
      "note": 68,
      "start": 29.425,
      "duration": 0.0842,
      "velocity": 103,
      "chip": "ym2612"
    },
    {
      "channel": 1,
      "note": 61,
      "start": 29.5256,
      "duration": 0.1854,
      "velocity": 127,
      "chip": "ym2612"
    },
    {
      "channel": 2,
      "note": 33,
      "start": 29.5272,
      "duration": 0.0827,
      "velocity": 127,
      "chip": "ym2612"
    },
    {
      "channel": 3,
      "note": 49,
      "start": 29.5274,
      "duration": 0.1839,
      "velocity": 80,
      "chip": "ym2612"
    },
    {
      "channel": 4,
      "note": 73,
      "start": 29.5276,
      "duration": 0.7062,
      "velocity": 103,
      "chip": "ym2612"
    },
    {
      "channel": 5,
      "note": 73,
      "start": 29.5278,
      "duration": 0.7061,
      "velocity": 103,
      "chip": "ym2612"
    },
    {
      "channel": 2,
      "note": 33,
      "start": 29.6268,
      "duration": 0.0843,
      "velocity": 127,
      "chip": "ym2612"
    },
    {
      "channel": 1,
      "note": 61,
      "start": 29.7279,
      "duration": 0.0842,
      "velocity": 127,
      "chip": "ym2612"
    },
    {
      "channel": 2,
      "note": 68,
      "start": 29.7295,
      "duration": 0.1839,
      "velocity": 127,
      "chip": "ym2612"
    },
    {
      "channel": 3,
      "note": 49,
      "start": 29.7297,
      "duration": 0.0826,
      "velocity": 80,
      "chip": "ym2612"
    },
    {
      "channel": 1,
      "note": 61,
      "start": 29.829,
      "duration": 0.0843,
      "velocity": 127,
      "chip": "ym2612"
    },
    {
      "channel": 3,
      "note": 49,
      "start": 29.8291,
      "duration": 0.0844,
      "velocity": 80,
      "chip": "ym2612"
    },
    {
      "channel": 1,
      "note": 61,
      "start": 29.93,
      "duration": 0.0843,
      "velocity": 127,
      "chip": "ym2612"
    },
    {
      "channel": 2,
      "note": 33,
      "start": 29.9317,
      "duration": 0.1839,
      "velocity": 127,
      "chip": "ym2612"
    },
    {
      "channel": 3,
      "note": 49,
      "start": 29.9318,
      "duration": 0.0827,
      "velocity": 80,
      "chip": "ym2612"
    },
    {
      "channel": 1,
      "note": 61,
      "start": 30.0312,
      "duration": 0.0843,
      "velocity": 127,
      "chip": "ym2612"
    },
    {
      "channel": 3,
      "note": 49,
      "start": 30.0313,
      "duration": 0.0844,
      "velocity": 80,
      "chip": "ym2612"
    },
    {
      "channel": 1,
      "note": 61,
      "start": 30.1323,
      "duration": 0.0842,
      "velocity": 127,
      "chip": "ym2612"
    },
    {
      "channel": 2,
      "note": 68,
      "start": 30.134,
      "duration": 0.1842,
      "velocity": 127,
      "chip": "ym2612"
    },
    {
      "channel": 3,
      "note": 49,
      "start": 30.1341,
      "duration": 0.0826,
      "velocity": 80,
      "chip": "ym2612"
    },
    {
      "channel": 1,
      "note": 61,
      "start": 30.2335,
      "duration": 0.0842,
      "velocity": 127,
      "chip": "ym2612"
    },
    {
      "channel": 3,
      "note": 49,
      "start": 30.2336,
      "duration": 0.0847,
      "velocity": 80,
      "chip": "ym2612"
    },
    {
      "channel": 1,
      "note": 63,
      "start": 30.3352,
      "duration": 0.1847,
      "velocity": 127,
      "chip": "ym2612"
    },
    {
      "channel": 2,
      "note": 33,
      "start": 30.3368,
      "duration": 0.1832,
      "velocity": 127,
      "chip": "ym2612"
    },
    {
      "channel": 3,
      "note": 51,
      "start": 30.3371,
      "duration": 0.1831,
      "velocity": 80,
      "chip": "ym2612"
    },
    {
      "channel": 4,
      "note": 75,
      "start": 30.3372,
      "duration": 0.3513,
      "velocity": 103,
      "chip": "ym2612"
    },
    {
      "channel": 5,
      "note": 75,
      "start": 30.3374,
      "duration": 0.3513,
      "velocity": 103,
      "chip": "ym2612"
    },
    {
      "channel": 1,
      "note": 63,
      "start": 30.5368,
      "duration": 0.0842,
      "velocity": 127,
      "chip": "ym2612"
    },
    {
      "channel": 2,
      "note": 68,
      "start": 30.5385,
      "duration": 0.1838,
      "velocity": 127,
      "chip": "ym2612"
    },
    {
      "channel": 3,
      "note": 51,
      "start": 30.5386,
      "duration": 0.0826,
      "velocity": 80,
      "chip": "ym2612"
    },
    {
      "channel": 1,
      "note": 63,
      "start": 30.6379,
      "duration": 0.0843,
      "velocity": 127,
      "chip": "ym2612"
    },
    {
      "channel": 3,
      "note": 51,
      "start": 30.638,
      "duration": 0.0844,
      "velocity": 80,
      "chip": "ym2612"
    },
    {
      "channel": 1,
      "note": 63,
      "start": 30.7391,
      "duration": 0.0842,
      "velocity": 127,
      "chip": "ym2612"
    },
    {
      "channel": 2,
      "note": 33,
      "start": 30.7407,
      "duration": 0.0828,
      "velocity": 127,
      "chip": "ym2612"
    },
    {
      "channel": 3,
      "note": 51,
      "start": 30.7408,
      "duration": 0.0828,
      "velocity": 80,
      "chip": "ym2612"
    },
    {
      "channel": 4,
      "note": 73,
      "start": 30.741,
      "duration": 0.0827,
      "velocity": 103,
      "chip": "ym2612"
    },
    {
      "channel": 5,
      "note": 73,
      "start": 30.7412,
      "duration": 0.0826,
      "velocity": 103,
      "chip": "ym2612"
    },
    {
      "channel": 1,
      "note": 63,
      "start": 30.8402,
      "duration": 0.0843,
      "velocity": 127,
      "chip": "ym2612"
    },
    {
      "channel": 2,
      "note": 33,
      "start": 30.8403,
      "duration": 0.0843,
      "velocity": 127,
      "chip": "ym2612"
    },
    {
      "channel": 3,
      "note": 51,
      "start": 30.8404,
      "duration": 0.0843,
      "velocity": 80,
      "chip": "ym2612"
    },
    {
      "channel": 4,
      "note": 72,
      "start": 30.8406,
      "duration": 0.0842,
      "velocity": 103,
      "chip": "ym2612"
    },
    {
      "channel": 5,
      "note": 72,
      "start": 30.8408,
      "duration": 0.0842,
      "velocity": 103,
      "chip": "ym2612"
    },
    {
      "channel": 1,
      "note": 63,
      "start": 30.9413,
      "duration": 0.0842,
      "velocity": 127,
      "chip": "ym2612"
    },
    {
      "channel": 2,
      "note": 68,
      "start": 30.9429,
      "duration": 0.1839,
      "velocity": 127,
      "chip": "ym2612"
    },
    {
      "channel": 3,
      "note": 51,
      "start": 30.943,
      "duration": 0.0827,
      "velocity": 80,
      "chip": "ym2612"
    },
    {
      "channel": 4,
      "note": 71,
      "start": 30.9432,
      "duration": 0.0826,
      "velocity": 103,
      "chip": "ym2612"
    },
    {
      "channel": 5,
      "note": 71,
      "start": 30.9434,
      "duration": 0.0826,
      "velocity": 103,
      "chip": "ym2612"
    },
    {
      "channel": 1,
      "note": 63,
      "start": 31.0424,
      "duration": 0.0842,
      "velocity": 127,
      "chip": "ym2612"
    },
    {
      "channel": 3,
      "note": 51,
      "start": 31.0426,
      "duration": 0.0843,
      "velocity": 80,
      "chip": "ym2612"
    },
    {
      "channel": 4,
      "note": 70,
      "start": 31.0428,
      "duration": 0.0843,
      "velocity": 103,
      "chip": "ym2612"
    },
    {
      "channel": 5,
      "note": 70,
      "start": 31.0429,
      "duration": 0.0842,
      "velocity": 103,
      "chip": "ym2612"
    },
    {
      "channel": 1,
      "note": 63,
      "start": 31.1435,
      "duration": 0.1854,
      "velocity": 127,
      "chip": "ym2612"
    },
    {
      "channel": 2,
      "note": 33,
      "start": 31.1452,
      "duration": 0.0826,
      "velocity": 127,
      "chip": "ym2612"
    },
    {
      "channel": 3,
      "note": 51,
      "start": 31.1453,
      "duration": 0.1839,
      "velocity": 80,
      "chip": "ym2612"
    },
    {
      "channel": 4,
      "note": 75,
      "start": 31.1455,
      "duration": 0.7066,
      "velocity": 103,
      "chip": "ym2612"
    },
    {
      "channel": 5,
      "note": 75,
      "start": 31.1457,
      "duration": 0.7066,
      "velocity": 103,
      "chip": "ym2612"
    },
    {
      "channel": 2,
      "note": 33,
      "start": 31.2446,
      "duration": 0.0844,
      "velocity": 127,
      "chip": "ym2612"
    },
    {
      "channel": 1,
      "note": 63,
      "start": 31.3458,
      "duration": 0.0843,
      "velocity": 127,
      "chip": "ym2612"
    },
    {
      "channel": 2,
      "note": 68,
      "start": 31.3474,
      "duration": 0.1839,
      "velocity": 127,
      "chip": "ym2612"
    },
    {
      "channel": 3,
      "note": 51,
      "start": 31.3475,
      "duration": 0.0827,
      "velocity": 80,
      "chip": "ym2612"
    },
    {
      "channel": 1,
      "note": 63,
      "start": 31.4469,
      "duration": 0.0843,
      "velocity": 127,
      "chip": "ym2612"
    },
    {
      "channel": 3,
      "note": 51,
      "start": 31.447,
      "duration": 0.0844,
      "velocity": 80,
      "chip": "ym2612"
    },
    {
      "channel": 1,
      "note": 63,
      "start": 31.548,
      "duration": 0.0843,
      "velocity": 127,
      "chip": "ym2612"
    },
    {
      "channel": 2,
      "note": 33,
      "start": 31.5496,
      "duration": 0.1839,
      "velocity": 127,
      "chip": "ym2612"
    },
    {
      "channel": 3,
      "note": 51,
      "start": 31.5498,
      "duration": 0.0827,
      "velocity": 80,
      "chip": "ym2612"
    },
    {
      "channel": 1,
      "note": 63,
      "start": 31.6491,
      "duration": 0.0843,
      "velocity": 127,
      "chip": "ym2612"
    },
    {
      "channel": 3,
      "note": 51,
      "start": 31.6493,
      "duration": 0.0844,
      "velocity": 80,
      "chip": "ym2612"
    },
    {
      "channel": 1,
      "note": 63,
      "start": 31.7502,
      "duration": 0.0847,
      "velocity": 127,
      "chip": "ym2612"
    },
    {
      "channel": 2,
      "note": 68,
      "start": 31.7522,
      "duration": 0.1835,
      "velocity": 127,
      "chip": "ym2612"
    },
    {
      "channel": 3,
      "note": 51,
      "start": 31.7524,
      "duration": 0.0827,
      "velocity": 80,
      "chip": "ym2612"
    },
    {
      "channel": 1,
      "note": 63,
      "start": 31.8519,
      "duration": 0.0838,
      "velocity": 127,
      "chip": "ym2612"
    },
    {
      "channel": 3,
      "note": 51,
      "start": 31.852,
      "duration": 0.0839,
      "velocity": 80,
      "chip": "ym2612"
    },
    {
      "channel": 1,
      "note": 61,
      "start": 31.9526,
      "duration": 0.1852,
      "velocity": 127,
      "chip": "ym2612"
    },
    {
      "channel": 2,
      "note": 33,
      "start": 31.9542,
      "duration": 0.1838,
      "velocity": 127,
      "chip": "ym2612"
    },
    {
      "channel": 3,
      "note": 49,
      "start": 31.9544,
      "duration": 0.1837,
      "velocity": 80,
      "chip": "ym2612"
    },
    {
      "channel": 4,
      "note": 73,
      "start": 31.9546,
      "duration": 0.3519,
      "velocity": 103,
      "chip": "ym2612"
    },
    {
      "channel": 5,
      "note": 73,
      "start": 31.9548,
      "duration": 0.3519,
      "velocity": 103,
      "chip": "ym2612"
    },
    {
      "channel": 1,
      "note": 61,
      "start": 32.1547,
      "duration": 0.0843,
      "velocity": 127,
      "chip": "ym2612"
    },
    {
      "channel": 2,
      "note": 68,
      "start": 32.1564,
      "duration": 0.1839,
      "velocity": 127,
      "chip": "ym2612"
    },
    {
      "channel": 3,
      "note": 49,
      "start": 32.1565,
      "duration": 0.0826,
      "velocity": 80,
      "chip": "ym2612"
    },
    {
      "channel": 1,
      "note": 61,
      "start": 32.2559,
      "duration": 0.0842,
      "velocity": 127,
      "chip": "ym2612"
    },
    {
      "channel": 3,
      "note": 49,
      "start": 32.256,
      "duration": 0.0843,
      "velocity": 80,
      "chip": "ym2612"
    },
    {
      "channel": 1,
      "note": 61,
      "start": 32.357,
      "duration": 0.0842,
      "velocity": 127,
      "chip": "ym2612"
    },
    {
      "channel": 2,
      "note": 33,
      "start": 32.3586,
      "duration": 0.0827,
      "velocity": 127,
      "chip": "ym2612"
    },
    {
      "channel": 3,
      "note": 49,
      "start": 32.3587,
      "duration": 0.0828,
      "velocity": 80,
      "chip": "ym2612"
    },
    {
      "channel": 4,
      "note": 71,
      "start": 32.3589,
      "duration": 0.0827,
      "velocity": 103,
      "chip": "ym2612"
    },
    {
      "channel": 5,
      "note": 71,
      "start": 32.3591,
      "duration": 0.0826,
      "velocity": 103,
      "chip": "ym2612"
    },
    {
      "channel": 1,
      "note": 61,
      "start": 32.4581,
      "duration": 0.0843,
      "velocity": 127,
      "chip": "ym2612"
    },
    {
      "channel": 2,
      "note": 33,
      "start": 32.4582,
      "duration": 0.0843,
      "velocity": 127,
      "chip": "ym2612"
    },
    {
      "channel": 3,
      "note": 49,
      "start": 32.4583,
      "duration": 0.0843,
      "velocity": 80,
      "chip": "ym2612"
    },
    {
      "channel": 4,
      "note": 70,
      "start": 32.4585,
      "duration": 0.0842,
      "velocity": 103,
      "chip": "ym2612"
    },
    {
      "channel": 5,
      "note": 70,
      "start": 32.4587,
      "duration": 0.0842,
      "velocity": 103,
      "chip": "ym2612"
    },
    {
      "channel": 1,
      "note": 61,
      "start": 32.5593,
      "duration": 0.0842,
      "velocity": 127,
      "chip": "ym2612"
    },
    {
      "channel": 2,
      "note": 68,
      "start": 32.5609,
      "duration": 0.1838,
      "velocity": 127,
      "chip": "ym2612"
    },
    {
      "channel": 3,
      "note": 49,
      "start": 32.561,
      "duration": 0.0827,
      "velocity": 80,
      "chip": "ym2612"
    },
    {
      "channel": 4,
      "note": 69,
      "start": 32.5612,
      "duration": 0.0826,
      "velocity": 103,
      "chip": "ym2612"
    },
    {
      "channel": 5,
      "note": 69,
      "start": 32.5613,
      "duration": 0.0826,
      "velocity": 103,
      "chip": "ym2612"
    },
    {
      "channel": 1,
      "note": 61,
      "start": 32.6604,
      "duration": 0.0842,
      "velocity": 127,
      "chip": "ym2612"
    },
    {
      "channel": 3,
      "note": 49,
      "start": 32.6605,
      "duration": 0.0844,
      "velocity": 80,
      "chip": "ym2612"
    },
    {
      "channel": 4,
      "note": 68,
      "start": 32.6607,
      "duration": 0.0843,
      "velocity": 103,
      "chip": "ym2612"
    },
    {
      "channel": 5,
      "note": 68,
      "start": 32.6609,
      "duration": 0.0842,
      "velocity": 103,
      "chip": "ym2612"
    },
    {
      "channel": 1,
      "note": 61,
      "start": 32.7615,
      "duration": 0.1854,
      "velocity": 127,
      "chip": "ym2612"
    },
    {
      "channel": 2,
      "note": 33,
      "start": 32.7631,
      "duration": 0.0826,
      "velocity": 127,
      "chip": "ym2612"
    },
    {
      "channel": 3,
      "note": 49,
      "start": 32.7632,
      "duration": 0.1839,
      "velocity": 80,
      "chip": "ym2612"
    },
    {
      "channel": 4,
      "note": 73,
      "start": 32.7634,
      "duration": 0.7062,
      "velocity": 103,
      "chip": "ym2612"
    },
    {
      "channel": 5,
      "note": 73,
      "start": 32.7636,
      "duration": 0.7061,
      "velocity": 103,
      "chip": "ym2612"
    },
    {
      "channel": 2,
      "note": 33,
      "start": 32.8625,
      "duration": 0.0844,
      "velocity": 127,
      "chip": "ym2612"
    },
    {
      "channel": 1,
      "note": 61,
      "start": 32.9637,
      "duration": 0.0843,
      "velocity": 127,
      "chip": "ym2612"
    },
    {
      "channel": 2,
      "note": 68,
      "start": 32.9654,
      "duration": 0.1839,
      "velocity": 127,
      "chip": "ym2612"
    },
    {
      "channel": 3,
      "note": 49,
      "start": 32.9655,
      "duration": 0.0826,
      "velocity": 80,
      "chip": "ym2612"
    },
    {
      "channel": 1,
      "note": 61,
      "start": 33.0648,
      "duration": 0.0843,
      "velocity": 127,
      "chip": "ym2612"
    },
    {
      "channel": 3,
      "note": 49,
      "start": 33.065,
      "duration": 0.0844,
      "velocity": 80,
      "chip": "ym2612"
    },
    {
      "channel": 1,
      "note": 61,
      "start": 33.1659,
      "duration": 0.0843,
      "velocity": 127,
      "chip": "ym2612"
    },
    {
      "channel": 2,
      "note": 33,
      "start": 33.1676,
      "duration": 0.1844,
      "velocity": 127,
      "chip": "ym2612"
    },
    {
      "channel": 3,
      "note": 49,
      "start": 33.1677,
      "duration": 0.0827,
      "velocity": 80,
      "chip": "ym2612"
    },
    {
      "channel": 1,
      "note": 61,
      "start": 33.2671,
      "duration": 0.0847,
      "velocity": 127,
      "chip": "ym2612"
    },
    {
      "channel": 3,
      "note": 49,
      "start": 33.2672,
      "duration": 0.0849,
      "velocity": 80,
      "chip": "ym2612"
    },
    {
      "channel": 1,
      "note": 61,
      "start": 33.3685,
      "duration": 0.0839,
      "velocity": 127,
      "chip": "ym2612"
    },
    {
      "channel": 2,
      "note": 68,
      "start": 33.3701,
      "duration": 0.1836,
      "velocity": 127,
      "chip": "ym2612"
    },
    {
      "channel": 3,
      "note": 49,
      "start": 33.3702,
      "duration": 0.0823,
      "velocity": 80,
      "chip": "ym2612"
    },
    {
      "channel": 1,
      "note": 61,
      "start": 33.4694,
      "duration": 0.0842,
      "velocity": 127,
      "chip": "ym2612"
    },
    {
      "channel": 3,
      "note": 49,
      "start": 33.4695,
      "duration": 0.0844,
      "velocity": 80,
      "chip": "ym2612"
    },
    {
      "channel": 1,
      "note": 63,
      "start": 33.5705,
      "duration": 0.1853,
      "velocity": 127,
      "chip": "ym2612"
    },
    {
      "channel": 2,
      "note": 33,
      "start": 33.5722,
      "duration": 0.1838,
      "velocity": 127,
      "chip": "ym2612"
    },
    {
      "channel": 3,
      "note": 51,
      "start": 33.5723,
      "duration": 0.1837,
      "velocity": 80,
      "chip": "ym2612"
    },
    {
      "channel": 4,
      "note": 75,
      "start": 33.5725,
      "duration": 0.3518,
      "velocity": 103,
      "chip": "ym2612"
    },
    {
      "channel": 5,
      "note": 75,
      "start": 33.5727,
      "duration": 0.3518,
      "velocity": 103,
      "chip": "ym2612"
    },
    {
      "channel": 1,
      "note": 63,
      "start": 33.7727,
      "duration": 0.0842,
      "velocity": 127,
      "chip": "ym2612"
    },
    {
      "channel": 2,
      "note": 68,
      "start": 33.7743,
      "duration": 0.1839,
      "velocity": 127,
      "chip": "ym2612"
    },
    {
      "channel": 3,
      "note": 51,
      "start": 33.7744,
      "duration": 0.0827,
      "velocity": 80,
      "chip": "ym2612"
    },
    {
      "channel": 1,
      "note": 63,
      "start": 33.8738,
      "duration": 0.0842,
      "velocity": 127,
      "chip": "ym2612"
    },
    {
      "channel": 3,
      "note": 51,
      "start": 33.8739,
      "duration": 0.0844,
      "velocity": 80,
      "chip": "ym2612"
    },
    {
      "channel": 1,
      "note": 63,
      "start": 33.9749,
      "duration": 0.0843,
      "velocity": 127,
      "chip": "ym2612"
    },
    {
      "channel": 2,
      "note": 33,
      "start": 33.9766,
      "duration": 0.0827,
      "velocity": 127,
      "chip": "ym2612"
    },
    {
      "channel": 3,
      "note": 51,
      "start": 33.9767,
      "duration": 0.0828,
      "velocity": 80,
      "chip": "ym2612"
    },
    {
      "channel": 4,
      "note": 73,
      "start": 33.9769,
      "duration": 0.0827,
      "velocity": 103,
      "chip": "ym2612"
    },
    {
      "channel": 5,
      "note": 73,
      "start": 33.9771,
      "duration": 0.0826,
      "velocity": 103,
      "chip": "ym2612"
    },
    {
      "channel": 1,
      "note": 63,
      "start": 34.0761,
      "duration": 0.0842,
      "velocity": 127,
      "chip": "ym2612"
    },
    {
      "channel": 2,
      "note": 33,
      "start": 34.0762,
      "duration": 0.0842,
      "velocity": 127,
      "chip": "ym2612"
    },
    {
      "channel": 3,
      "note": 51,
      "start": 34.0763,
      "duration": 0.0842,
      "velocity": 80,
      "chip": "ym2612"
    },
    {
      "channel": 4,
      "note": 72,
      "start": 34.0766,
      "duration": 0.0841,
      "velocity": 103,
      "chip": "ym2612"
    },
    {
      "channel": 5,
      "note": 72,
      "start": 34.0767,
      "duration": 0.0842,
      "velocity": 103,
      "chip": "ym2612"
    },
    {
      "channel": 1,
      "note": 63,
      "start": 34.1772,
      "duration": 0.0843,
      "velocity": 127,
      "chip": "ym2612"
    },
    {
      "channel": 2,
      "note": 68,
      "start": 34.1788,
      "duration": 0.1838,
      "velocity": 127,
      "chip": "ym2612"
    },
    {
      "channel": 3,
      "note": 51,
      "start": 34.179,
      "duration": 0.0826,
      "velocity": 80,
      "chip": "ym2612"
    },
    {
      "channel": 4,
      "note": 71,
      "start": 34.1792,
      "duration": 0.0826,
      "velocity": 103,
      "chip": "ym2612"
    },
    {
      "channel": 5,
      "note": 71,
      "start": 34.1793,
      "duration": 0.0825,
      "velocity": 103,
      "chip": "ym2612"
    },
    {
      "channel": 1,
      "note": 63,
      "start": 34.2783,
      "duration": 0.0842,
      "velocity": 127,
      "chip": "ym2612"
    },
    {
      "channel": 3,
      "note": 51,
      "start": 34.2785,
      "duration": 0.0843,
      "velocity": 80,
      "chip": "ym2612"
    },
    {
      "channel": 4,
      "note": 70,
      "start": 34.2786,
      "duration": 0.0842,
      "velocity": 103,
      "chip": "ym2612"
    },
    {
      "channel": 5,
      "note": 70,
      "start": 34.2788,
      "duration": 0.0841,
      "velocity": 103,
      "chip": "ym2612"
    },
    {
      "channel": 1,
      "note": 63,
      "start": 34.3795,
      "duration": 0.1853,
      "velocity": 127,
      "chip": "ym2612"
    },
    {
      "channel": 2,
      "note": 33,
      "start": 34.3811,
      "duration": 0.0826,
      "velocity": 127,
      "chip": "ym2612"
    },
    {
      "channel": 3,
      "note": 51,
      "start": 34.3812,
      "duration": 0.1839,
      "velocity": 80,
      "chip": "ym2612"
    },
    {
      "channel": 4,
      "note": 75,
      "start": 34.3814,
      "duration": 0.7061,
      "velocity": 103,
      "chip": "ym2612"
    },
    {
      "channel": 5,
      "note": 75,
      "start": 34.3816,
      "duration": 0.7061,
      "velocity": 103,
      "chip": "ym2612"
    },
    {
      "channel": 2,
      "note": 33,
      "start": 34.4805,
      "duration": 0.0844,
      "velocity": 127,
      "chip": "ym2612"
    },
    {
      "channel": 1,
      "note": 63,
      "start": 34.5816,
      "duration": 0.0843,
      "velocity": 127,
      "chip": "ym2612"
    },
    {
      "channel": 2,
      "note": 68,
      "start": 34.5833,
      "duration": 0.1839,
      "velocity": 127,
      "chip": "ym2612"
    },
    {
      "channel": 3,
      "note": 51,
      "start": 34.5834,
      "duration": 0.0826,
      "velocity": 80,
      "chip": "ym2612"
    },
    {
      "channel": 1,
      "note": 63,
      "start": 34.6828,
      "duration": 0.0843,
      "velocity": 127,
      "chip": "ym2612"
    },
    {
      "channel": 3,
      "note": 51,
      "start": 34.6829,
      "duration": 0.0844,
      "velocity": 80,
      "chip": "ym2612"
    },
    {
      "channel": 1,
      "note": 63,
      "start": 34.7839,
      "duration": 0.0846,
      "velocity": 127,
      "chip": "ym2612"
    },
    {
      "channel": 2,
      "note": 33,
      "start": 34.7859,
      "duration": 0.1835,
      "velocity": 127,
      "chip": "ym2612"
    },
    {
      "channel": 3,
      "note": 51,
      "start": 34.786,
      "duration": 0.0826,
      "velocity": 80,
      "chip": "ym2612"
    },
    {
      "channel": 1,
      "note": 63,
      "start": 34.8851,
      "duration": 0.0842,
      "velocity": 127,
      "chip": "ym2612"
    },
    {
      "channel": 3,
      "note": 51,
      "start": 34.8853,
      "duration": 0.0843,
      "velocity": 80,
      "chip": "ym2612"
    },
    {
      "channel": 1,
      "note": 63,
      "start": 34.9861,
      "duration": 0.0844,
      "velocity": 127,
      "chip": "ym2612"
    },
    {
      "channel": 2,
      "note": 68,
      "start": 34.9877,
      "duration": 0.1839,
      "velocity": 127,
      "chip": "ym2612"
    },
    {
      "channel": 3,
      "note": 51,
      "start": 34.9879,
      "duration": 0.0827,
      "velocity": 80,
      "chip": "ym2612"
    },
    {
      "channel": 1,
      "note": 63,
      "start": 35.0872,
      "duration": 0.0842,
      "velocity": 127,
      "chip": "ym2612"
    },
    {
      "channel": 3,
      "note": 51,
      "start": 35.0874,
      "duration": 0.0843,
      "velocity": 80,
      "chip": "ym2612"
    },
    {
      "channel": 1,
      "note": 69,
      "start": 35.1884,
      "duration": 0.0842,
      "velocity": 127,
      "chip": "ym2612"
    },
    {
      "channel": 2,
      "note": 68,
      "start": 35.1886,
      "duration": 0.0841,
      "velocity": 127,
      "chip": "ym2612"
    },
    {
      "channel": 3,
      "note": 57,
      "start": 35.1888,
      "duration": 0.0841,
      "velocity": 80,
      "chip": "ym2612"
    },
    {
      "channel": 4,
      "note": 56,
      "start": 35.189,
      "duration": 0.084,
      "velocity": 103,
      "chip": "ym2612"
    },
    {
      "channel": 5,
      "note": 69,
      "start": 35.1891,
      "duration": 0.084,
      "velocity": 103,
      "chip": "ym2612"
    },
    {
      "channel": 1,
      "note": 68,
      "start": 35.2895,
      "duration": 0.0842,
      "velocity": 127,
      "chip": "ym2612"
    },
    {
      "channel": 2,
      "note": 68,
      "start": 35.2897,
      "duration": 0.0842,
      "velocity": 127,
      "chip": "ym2612"
    },
    {
      "channel": 3,
      "note": 56,
      "start": 35.2898,
      "duration": 0.0841,
      "velocity": 80,
      "chip": "ym2612"
    },
    {
      "channel": 4,
      "note": 61,
      "start": 35.29,
      "duration": 0.0841,
      "velocity": 103,
      "chip": "ym2612"
    },
    {
      "channel": 5,
      "note": 68,
      "start": 35.2902,
      "duration": 0.084,
      "velocity": 103,
      "chip": "ym2612"
    },
    {
      "channel": 1,
      "note": 66,
      "start": 35.3907,
      "duration": 0.0842,
      "velocity": 127,
      "chip": "ym2612"
    },
    {
      "channel": 2,
      "note": 68,
      "start": 35.3908,
      "duration": 0.0842,
      "velocity": 127,
      "chip": "ym2612"
    },
    {
      "channel": 3,
      "note": 54,
      "start": 35.391,
      "duration": 0.0842,
      "velocity": 80,
      "chip": "ym2612"
    },
    {
      "channel": 4,
      "note": 63,
      "start": 35.3912,
      "duration": 0.0841,
      "velocity": 103,
      "chip": "ym2612"
    },
    {
      "channel": 5,
      "note": 66,
      "start": 35.3914,
      "duration": 0.084,
      "velocity": 103,
      "chip": "ym2612"
    },
    {
      "channel": 1,
      "note": 64,
      "start": 35.4918,
      "duration": 0.0841,
      "velocity": 127,
      "chip": "ym2612"
    },
    {
      "channel": 2,
      "note": 68,
      "start": 35.492,
      "duration": 0.0841,
      "velocity": 127,
      "chip": "ym2612"
    },
    {
      "channel": 3,
      "note": 52,
      "start": 35.4921,
      "duration": 0.0841,
      "velocity": 80,
      "chip": "ym2612"
    },
    {
      "channel": 4,
      "note": 64,
      "start": 35.4923,
      "duration": 0.084,
      "velocity": 103,
      "chip": "ym2612"
    },
    {
      "channel": 5,
      "note": 64,
      "start": 35.4925,
      "duration": 0.084,
      "velocity": 103,
      "chip": "ym2612"
    },
    {
      "channel": 1,
      "note": 68,
      "start": 35.5929,
      "duration": 0.0842,
      "velocity": 127,
      "chip": "ym2612"
    },
    {
      "channel": 2,
      "note": 64,
      "start": 35.5946,
      "duration": 0.0826,
      "velocity": 127,
      "chip": "ym2612"
    },
    {
      "channel": 3,
      "note": 56,
      "start": 35.5948,
      "duration": 0.0826,
      "velocity": 80,
      "chip": "ym2612"
    },
    {
      "channel": 4,
      "note": 61,
      "start": 35.595,
      "duration": 0.0825,
      "velocity": 103,
      "chip": "ym2612"
    },
    {
      "channel": 5,
      "note": 68,
      "start": 35.5952,
      "duration": 0.0824,
      "velocity": 103,
      "chip": "ym2612"
    },
    {
      "channel": 1,
      "note": 66,
      "start": 35.694,
      "duration": 0.0842,
      "velocity": 127,
      "chip": "ym2612"
    },
    {
      "channel": 2,
      "note": 64,
      "start": 35.6942,
      "duration": 0.0841,
      "velocity": 127,
      "chip": "ym2612"
    },
    {
      "channel": 3,
      "note": 54,
      "start": 35.6944,
      "duration": 0.0841,
      "velocity": 80,
      "chip": "ym2612"
    },
    {
      "channel": 4,
      "note": 63,
      "start": 35.6946,
      "duration": 0.084,
      "velocity": 103,
      "chip": "ym2612"
    },
    {
      "channel": 5,
      "note": 66,
      "start": 35.6947,
      "duration": 0.084,
      "velocity": 103,
      "chip": "ym2612"
    },
    {
      "channel": 1,
      "note": 64,
      "start": 35.7951,
      "duration": 0.0842,
      "velocity": 127,
      "chip": "ym2612"
    },
    {
      "channel": 2,
      "note": 64,
      "start": 35.7952,
      "duration": 0.0842,
      "velocity": 127,
      "chip": "ym2612"
    },
    {
      "channel": 3,
      "note": 52,
      "start": 35.7954,
      "duration": 0.0841,
      "velocity": 80,
      "chip": "ym2612"
    },
    {
      "channel": 4,
      "note": 64,
      "start": 35.7956,
      "duration": 0.0841,
      "velocity": 103,
      "chip": "ym2612"
    },
    {
      "channel": 5,
      "note": 64,
      "start": 35.7958,
      "duration": 0.084,
      "velocity": 103,
      "chip": "ym2612"
    },
    {
      "channel": 1,
      "note": 63,
      "start": 35.8963,
      "duration": 0.0842,
      "velocity": 127,
      "chip": "ym2612"
    },
    {
      "channel": 2,
      "note": 64,
      "start": 35.8964,
      "duration": 0.0842,
      "velocity": 127,
      "chip": "ym2612"
    },
    {
      "channel": 3,
      "note": 51,
      "start": 35.8966,
      "duration": 0.0842,
      "velocity": 80,
      "chip": "ym2612"
    },
    {
      "channel": 4,
      "note": 66,
      "start": 35.8968,
      "duration": 0.0841,
      "velocity": 103,
      "chip": "ym2612"
    },
    {
      "channel": 5,
      "note": 63,
      "start": 35.897,
      "duration": 0.084,
      "velocity": 103,
      "chip": "ym2612"
    },
    {
      "channel": 1,
      "note": 66,
      "start": 35.9974,
      "duration": 0.0841,
      "velocity": 127,
      "chip": "ym2612"
    },
    {
      "channel": 2,
      "note": 61,
      "start": 35.9975,
      "duration": 0.0842,
      "velocity": 127,
      "chip": "ym2612"
    },
    {
      "channel": 3,
      "note": 54,
      "start": 35.9977,
      "duration": 0.0841,
      "velocity": 80,
      "chip": "ym2612"
    },
    {
      "channel": 4,
      "note": 63,
      "start": 35.9979,
      "duration": 0.084,
      "velocity": 103,
      "chip": "ym2612"
    },
    {
      "channel": 5,
      "note": 66,
      "start": 35.9981,
      "duration": 0.084,
      "velocity": 103,
      "chip": "ym2612"
    },
    {
      "channel": 1,
      "note": 64,
      "start": 36.0985,
      "duration": 0.0842,
      "velocity": 127,
      "chip": "ym2612"
    },
    {
      "channel": 2,
      "note": 61,
      "start": 36.0986,
      "duration": 0.0842,
      "velocity": 127,
      "chip": "ym2612"
    },
    {
      "channel": 3,
      "note": 52,
      "start": 36.0988,
      "duration": 0.0841,
      "velocity": 80,
      "chip": "ym2612"
    },
    {
      "channel": 4,
      "note": 64,
      "start": 36.099,
      "duration": 0.0841,
      "velocity": 103,
      "chip": "ym2612"
    },
    {
      "channel": 5,
      "note": 64,
      "start": 36.0992,
      "duration": 0.084,
      "velocity": 103,
      "chip": "ym2612"
    },
    {
      "channel": 1,
      "note": 63,
      "start": 36.1996,
      "duration": 0.0842,
      "velocity": 127,
      "chip": "ym2612"
    },
    {
      "channel": 2,
      "note": 61,
      "start": 36.1998,
      "duration": 0.0842,
      "velocity": 127,
      "chip": "ym2612"
    },
    {
      "channel": 3,
      "note": 51,
      "start": 36.2,
      "duration": 0.0841,
      "velocity": 80,
      "chip": "ym2612"
    },
    {
      "channel": 4,
      "note": 66,
      "start": 36.2002,
      "duration": 0.084,
      "velocity": 103,
      "chip": "ym2612"
    },
    {
      "channel": 5,
      "note": 63,
      "start": 36.2004,
      "duration": 0.084,
      "velocity": 103,
      "chip": "ym2612"
    },
    {
      "channel": 1,
      "note": 61,
      "start": 36.3008,
      "duration": 0.0844,
      "velocity": 127,
      "chip": "ym2612"
    },
    {
      "channel": 2,
      "note": 61,
      "start": 36.3009,
      "duration": 0.0844,
      "velocity": 127,
      "chip": "ym2612"
    },
    {
      "channel": 3,
      "note": 49,
      "start": 36.3011,
      "duration": 0.0843,
      "velocity": 80,
      "chip": "ym2612"
    },
    {
      "channel": 4,
      "note": 68,
      "start": 36.3016,
      "duration": 0.0839,
      "velocity": 103,
      "chip": "ym2612"
    },
    {
      "channel": 5,
      "note": 61,
      "start": 36.3018,
      "duration": 0.0839,
      "velocity": 103,
      "chip": "ym2612"
    },
    {
      "channel": 1,
      "note": 64,
      "start": 36.4019,
      "duration": 0.0841,
      "velocity": 127,
      "chip": "ym2612"
    },
    {
      "channel": 2,
      "note": 57,
      "start": 36.4021,
      "duration": 0.0841,
      "velocity": 127,
      "chip": "ym2612"
    },
    {
      "channel": 3,
      "note": 52,
      "start": 36.4022,
      "duration": 0.0841,
      "velocity": 80,
      "chip": "ym2612"
    },
    {
      "channel": 4,
      "note": 64,
      "start": 36.4024,
      "duration": 0.084,
      "velocity": 103,
      "chip": "ym2612"
    },
    {
      "channel": 5,
      "note": 64,
      "start": 36.4026,
      "duration": 0.084,
      "velocity": 103,
      "chip": "ym2612"
    },
    {
      "channel": 1,
      "note": 63,
      "start": 36.503,
      "duration": 0.0841,
      "velocity": 127,
      "chip": "ym2612"
    },
    {
      "channel": 2,
      "note": 57,
      "start": 36.5031,
      "duration": 0.0842,
      "velocity": 127,
      "chip": "ym2612"
    },
    {
      "channel": 3,
      "note": 51,
      "start": 36.5033,
      "duration": 0.0841,
      "velocity": 80,
      "chip": "ym2612"
    },
    {
      "channel": 4,
      "note": 66,
      "start": 36.5035,
      "duration": 0.084,
      "velocity": 103,
      "chip": "ym2612"
    },
    {
      "channel": 5,
      "note": 63,
      "start": 36.5037,
      "duration": 0.084,
      "velocity": 103,
      "chip": "ym2612"
    },
    {
      "channel": 1,
      "note": 61,
      "start": 36.6041,
      "duration": 0.0842,
      "velocity": 127,
      "chip": "ym2612"
    },
    {
      "channel": 2,
      "note": 57,
      "start": 36.6042,
      "duration": 0.0842,
      "velocity": 127,
      "chip": "ym2612"
    },
    {
      "channel": 3,
      "note": 49,
      "start": 36.6044,
      "duration": 0.0842,
      "velocity": 80,
      "chip": "ym2612"
    },
    {
      "channel": 4,
      "note": 68,
      "start": 36.6046,
      "duration": 0.0841,
      "velocity": 103,
      "chip": "ym2612"
    },
    {
      "channel": 5,
      "note": 61,
      "start": 36.6048,
      "duration": 0.084,
      "velocity": 103,
      "chip": "ym2612"
    },
    {
      "channel": 1,
      "note": 56,
      "start": 36.7052,
      "duration": 0.0842,
      "velocity": 127,
      "chip": "ym2612"
    },
    {
      "channel": 2,
      "note": 57,
      "start": 36.7054,
      "duration": 0.0842,
      "velocity": 127,
      "chip": "ym2612"
    },
    {
      "channel": 3,
      "note": 56,
      "start": 36.7056,
      "duration": 0.0841,
      "velocity": 80,
      "chip": "ym2612"
    },
    {
      "channel": 4,
      "note": 69,
      "start": 36.7057,
      "duration": 0.0841,
      "velocity": 103,
      "chip": "ym2612"
    },
    {
      "channel": 5,
      "note": 56,
      "start": 36.7059,
      "duration": 0.084,
      "velocity": 103,
      "chip": "ym2612"
    },
    {
      "channel": 1,
      "note": 68,
      "start": 36.8064,
      "duration": 1.4156,
      "velocity": 127,
      "chip": "ym2612"
    },
    {
      "channel": 2,
      "note": 45,
      "start": 36.808,
      "duration": 0.3522,
      "velocity": 127,
      "chip": "ym2612"
    },
    {
      "channel": 3,
      "note": 56,
      "start": 36.8081,
      "duration": 1.4157,
      "velocity": 80,
      "chip": "ym2612"
    },
    {
      "channel": 4,
      "note": 68,
      "start": 36.8083,
      "duration": 1.4156,
      "velocity": 103,
      "chip": "ym2612"
    },
    {
      "channel": 5,
      "note": 68,
      "start": 36.8085,
      "duration": 1.4156,
      "velocity": 103,
      "chip": "ym2612"
    },
    {
      "channel": 2,
      "note": 68,
      "start": 37.2124,
      "duration": 0.0827,
      "velocity": 127,
      "chip": "ym2612"
    },
    {
      "channel": 2,
      "note": 33,
      "start": 37.3134,
      "duration": 0.2681,
      "velocity": 127,
      "chip": "ym2612"
    },
    {
      "channel": 2,
      "note": 68,
      "start": 37.6168,
      "duration": 0.066,
      "velocity": 127,
      "chip": "ym2612"
    },
    {
      "channel": 2,
      "note": 68,
      "start": 37.6827,
      "duration": 0.0692,
      "velocity": 127,
      "chip": "ym2612"
    },
    {
      "channel": 2,
      "note": 33,
      "start": 37.752,
      "duration": 0.0673,
      "velocity": 127,
      "chip": "ym2612"
    },
    {
      "channel": 2,
      "note": 68,
      "start": 37.8194,
      "duration": 0.0657,
      "velocity": 127,
      "chip": "ym2612"
    },
    {
      "channel": 2,
      "note": 68,
      "start": 37.8852,
      "duration": 0.0686,
      "velocity": 127,
      "chip": "ym2612"
    },
    {
      "channel": 2,
      "note": 33,
      "start": 37.9539,
      "duration": 0.0673,
      "velocity": 127,
      "chip": "ym2612"
    },
    {
      "channel": 2,
      "note": 68,
      "start": 38.0213,
      "duration": 0.0658,
      "velocity": 127,
      "chip": "ym2612"
    },
    {
      "channel": 2,
      "note": 68,
      "start": 38.0872,
      "duration": 0.0688,
      "velocity": 127,
      "chip": "ym2612"
    },
    {
      "channel": 2,
      "note": 33,
      "start": 38.1561,
      "duration": 0.0675,
      "velocity": 127,
      "chip": "ym2612"
    },
    {
      "channel": 2,
      "note": 68,
      "start": 38.2237,
      "duration": 0.0657,
      "velocity": 127,
      "chip": "ym2612"
    },
    {
      "channel": 2,
      "note": 68,
      "start": 38.2895,
      "duration": 0.0688,
      "velocity": 127,
      "chip": "ym2612"
    },
    {
      "channel": 2,
      "note": 33,
      "start": 38.3584,
      "duration": 0.0674,
      "velocity": 127,
      "chip": "ym2612"
    },
    {
      "channel": 1,
      "note": 66,
      "start": 38.4243,
      "duration": 0.0842,
      "velocity": 127,
      "chip": "ym2612"
    },
    {
      "channel": 2,
      "note": 68,
      "start": 38.4259,
      "duration": 0.0827,
      "velocity": 127,
      "chip": "ym2612"
    },
    {
      "channel": 3,
      "note": 54,
      "start": 38.4261,
      "duration": 0.0826,
      "velocity": 80,
      "chip": "ym2612"
    },
    {
      "channel": 4,
      "note": 66,
      "start": 38.4263,
      "duration": 0.0826,
      "velocity": 103,
      "chip": "ym2612"
    },
    {
      "channel": 5,
      "note": 66,
      "start": 38.4265,
      "duration": 0.0825,
      "velocity": 103,
      "chip": "ym2612"
    },
    {
      "channel": 1,
      "note": 64,
      "start": 38.5254,
      "duration": 0.1853,
      "velocity": 127,
      "chip": "ym2612"
    },
    {
      "channel": 2,
      "note": 68,
      "start": 38.5255,
      "duration": 0.1853,
      "velocity": 127,
      "chip": "ym2612"
    },
    {
      "channel": 3,
      "note": 52,
      "start": 38.5257,
      "duration": 0.1852,
      "velocity": 80,
      "chip": "ym2612"
    },
    {
      "channel": 4,
      "note": 64,
      "start": 38.5259,
      "duration": 0.1852,
      "velocity": 103,
      "chip": "ym2612"
    },
    {
      "channel": 5,
      "note": 64,
      "start": 38.5261,
      "duration": 0.1851,
      "velocity": 103,
      "chip": "ym2612"
    },
    {
      "channel": 1,
      "note": 66,
      "start": 38.7276,
      "duration": 0.1853,
      "velocity": 127,
      "chip": "ym2612"
    },
    {
      "channel": 2,
      "note": 68,
      "start": 38.7278,
      "duration": 0.1853,
      "velocity": 127,
      "chip": "ym2612"
    },
    {
      "channel": 3,
      "note": 54,
      "start": 38.7279,
      "duration": 0.1853,
      "velocity": 80,
      "chip": "ym2612"
    },
    {
      "channel": 4,
      "note": 66,
      "start": 38.7281,
      "duration": 0.1852,
      "velocity": 103,
      "chip": "ym2612"
    },
    {
      "channel": 5,
      "note": 66,
      "start": 38.7283,
      "duration": 0.1851,
      "velocity": 103,
      "chip": "ym2612"
    },
    {
      "channel": 1,
      "note": 64,
      "start": 38.9299,
      "duration": 0.1853,
      "velocity": 127,
      "chip": "ym2612"
    },
    {
      "channel": 2,
      "note": 68,
      "start": 38.93,
      "duration": 0.1853,
      "velocity": 127,
      "chip": "ym2612"
    },
    {
      "channel": 3,
      "note": 52,
      "start": 38.9302,
      "duration": 0.1853,
      "velocity": 80,
      "chip": "ym2612"
    },
    {
      "channel": 4,
      "note": 64,
      "start": 38.9304,
      "duration": 0.1852,
      "velocity": 103,
      "chip": "ym2612"
    },
    {
      "channel": 5,
      "note": 64,
      "start": 38.9306,
      "duration": 0.1851,
      "velocity": 103,
      "chip": "ym2612"
    },
    {
      "channel": 1,
      "note": 63,
      "start": 39.1322,
      "duration": 0.0842,
      "velocity": 127,
      "chip": "ym2612"
    },
    {
      "channel": 2,
      "note": 68,
      "start": 39.1323,
      "duration": 0.0842,
      "velocity": 127,
      "chip": "ym2612"
    },
    {
      "channel": 3,
      "note": 51,
      "start": 39.1325,
      "duration": 0.0841,
      "velocity": 80,
      "chip": "ym2612"
    },
    {
      "channel": 4,
      "note": 63,
      "start": 39.1327,
      "duration": 0.0841,
      "velocity": 103,
      "chip": "ym2612"
    },
    {
      "channel": 5,
      "note": 63,
      "start": 39.1328,
      "duration": 0.084,
      "velocity": 103,
      "chip": "ym2612"
    },
    {
      "channel": 1,
      "note": 56,
      "start": 39.2332,
      "duration": 0.3539,
      "velocity": 127,
      "chip": "ym2612"
    },
    {
      "channel": 2,
      "note": 45,
      "start": 39.2353,
      "duration": 0.352,
      "velocity": 127,
      "chip": "ym2612"
    },
    {
      "channel": 3,
      "note": 56,
      "start": 39.2354,
      "duration": 0.3519,
      "velocity": 80,
      "chip": "ym2612"
    },
    {
      "channel": 4,
      "note": 56,
      "start": 39.2356,
      "duration": 0.3518,
      "velocity": 103,
      "chip": "ym2612"
    },
    {
      "channel": 5,
      "note": 56,
      "start": 39.2358,
      "duration": 0.3518,
      "velocity": 103,
      "chip": "ym2612"
    },
    {
      "channel": 1,
      "note": 68,
      "start": 39.6378,
      "duration": 0.3538,
      "velocity": 127,
      "chip": "ym2612"
    },
    {
      "channel": 2,
      "note": 45,
      "start": 39.6379,
      "duration": 0.3539,
      "velocity": 127,
      "chip": "ym2612"
    },
    {
      "channel": 3,
      "note": 56,
      "start": 39.638,
      "duration": 0.3539,
      "velocity": 80,
      "chip": "ym2612"
    },
    {
      "channel": 4,
      "note": 68,
      "start": 39.6382,
      "duration": 0.3538,
      "velocity": 103,
      "chip": "ym2612"
    },
    {
      "channel": 5,
      "note": 68,
      "start": 39.6384,
      "duration": 0.3538,
      "velocity": 103,
      "chip": "ym2612"
    },
    {
      "channel": 1,
      "note": 61,
      "start": 40.0422,
      "duration": 0.1853,
      "velocity": 127,
      "chip": "ym2612"
    },
    {
      "channel": 2,
      "note": 33,
      "start": 40.0439,
      "duration": 0.1837,
      "velocity": 127,
      "chip": "ym2612"
    },
    {
      "channel": 3,
      "note": 49,
      "start": 40.0441,
      "duration": 0.1837,
      "velocity": 80,
      "chip": "ym2612"
    },
    {
      "channel": 4,
      "note": 61,
      "start": 40.0442,
      "duration": 0.706,
      "velocity": 103,
      "chip": "ym2612"
    },
    {
      "channel": 5,
      "note": 61,
      "start": 40.0444,
      "duration": 0.706,
      "velocity": 103,
      "chip": "ym2612"
    },
    {
      "channel": 1,
      "note": 61,
      "start": 40.2444,
      "duration": 0.0842,
      "velocity": 127,
      "chip": "ym2612"
    },
    {
      "channel": 2,
      "note": 68,
      "start": 40.2461,
      "duration": 0.1838,
      "velocity": 127,
      "chip": "ym2612"
    },
    {
      "channel": 3,
      "note": 49,
      "start": 40.2462,
      "duration": 0.0826,
      "velocity": 80,
      "chip": "ym2612"
    },
    {
      "channel": 1,
      "note": 61,
      "start": 40.3456,
      "duration": 0.0842,
      "velocity": 127,
      "chip": "ym2612"
    },
    {
      "channel": 3,
      "note": 49,
      "start": 40.3457,
      "duration": 0.0844,
      "velocity": 80,
      "chip": "ym2612"
    },
    {
      "channel": 1,
      "note": 61,
      "start": 40.4466,
      "duration": 0.0843,
      "velocity": 127,
      "chip": "ym2612"
    },
    {
      "channel": 2,
      "note": 33,
      "start": 40.4482,
      "duration": 0.0828,
      "velocity": 127,
      "chip": "ym2612"
    },
    {
      "channel": 3,
      "note": 49,
      "start": 40.4484,
      "duration": 0.0828,
      "velocity": 80,
      "chip": "ym2612"
    },
    {
      "channel": 1,
      "note": 61,
      "start": 40.5477,
      "duration": 0.0843,
      "velocity": 127,
      "chip": "ym2612"
    },
    {
      "channel": 2,
      "note": 33,
      "start": 40.5478,
      "duration": 0.0843,
      "velocity": 127,
      "chip": "ym2612"
    },
    {
      "channel": 3,
      "note": 49,
      "start": 40.548,
      "duration": 0.0843,
      "velocity": 80,
      "chip": "ym2612"
    },
    {
      "channel": 1,
      "note": 61,
      "start": 40.6489,
      "duration": 0.0843,
      "velocity": 127,
      "chip": "ym2612"
    },
    {
      "channel": 2,
      "note": 68,
      "start": 40.6505,
      "duration": 0.1839,
      "velocity": 127,
      "chip": "ym2612"
    },
    {
      "channel": 3,
      "note": 49,
      "start": 40.6506,
      "duration": 0.0827,
      "velocity": 80,
      "chip": "ym2612"
    },
    {
      "channel": 1,
      "note": 61,
      "start": 40.75,
      "duration": 0.0842,
      "velocity": 127,
      "chip": "ym2612"
    },
    {
      "channel": 3,
      "note": 49,
      "start": 40.7501,
      "duration": 0.0844,
      "velocity": 80,
      "chip": "ym2612"
    },
    {
      "channel": 1,
      "note": 61,
      "start": 40.8512,
      "duration": 0.1854,
      "velocity": 127,
      "chip": "ym2612"
    },
    {
      "channel": 2,
      "note": 33,
      "start": 40.8531,
      "duration": 0.0823,
      "velocity": 127,
      "chip": "ym2612"
    },
    {
      "channel": 3,
      "note": 49,
      "start": 40.8533,
      "duration": 0.1835,
      "velocity": 80,
      "chip": "ym2612"
    },
    {
      "channel": 4,
      "note": 61,
      "start": 40.8534,
      "duration": 0.7059,
      "velocity": 103,
      "chip": "ym2612"
    },
    {
      "channel": 5,
      "note": 61,
      "start": 40.8535,
      "duration": 0.7059,
      "velocity": 103,
      "chip": "ym2612"
    },
    {
      "channel": 2,
      "note": 33,
      "start": 40.9523,
      "duration": 0.0844,
      "velocity": 127,
      "chip": "ym2612"
    },
    {
      "channel": 1,
      "note": 61,
      "start": 41.0534,
      "duration": 0.0842,
      "velocity": 127,
      "chip": "ym2612"
    },
    {
      "channel": 2,
      "note": 68,
      "start": 41.055,
      "duration": 0.1839,
      "velocity": 127,
      "chip": "ym2612"
    },
    {
      "channel": 3,
      "note": 49,
      "start": 41.0552,
      "duration": 0.0826,
      "velocity": 80,
      "chip": "ym2612"
    },
    {
      "channel": 1,
      "note": 61,
      "start": 41.1545,
      "duration": 0.0843,
      "velocity": 127,
      "chip": "ym2612"
    },
    {
      "channel": 3,
      "note": 49,
      "start": 41.1546,
      "duration": 0.0844,
      "velocity": 80,
      "chip": "ym2612"
    },
    {
      "channel": 1,
      "note": 61,
      "start": 41.2556,
      "duration": 0.0842,
      "velocity": 127,
      "chip": "ym2612"
    },
    {
      "channel": 2,
      "note": 33,
      "start": 41.2573,
      "duration": 0.1839,
      "velocity": 127,
      "chip": "ym2612"
    },
    {
      "channel": 3,
      "note": 49,
      "start": 41.2574,
      "duration": 0.0826,
      "velocity": 80,
      "chip": "ym2612"
    },
    {
      "channel": 1,
      "note": 61,
      "start": 41.3568,
      "duration": 0.0843,
      "velocity": 127,
      "chip": "ym2612"
    },
    {
      "channel": 3,
      "note": 49,
      "start": 41.3569,
      "duration": 0.0844,
      "velocity": 80,
      "chip": "ym2612"
    },
    {
      "channel": 1,
      "note": 61,
      "start": 41.4578,
      "duration": 0.0843,
      "velocity": 127,
      "chip": "ym2612"
    },
    {
      "channel": 2,
      "note": 68,
      "start": 41.4595,
      "duration": 0.1839,
      "velocity": 127,
      "chip": "ym2612"
    },
    {
      "channel": 3,
      "note": 49,
      "start": 41.4596,
      "duration": 0.0827,
      "velocity": 80,
      "chip": "ym2612"
    },
    {
      "channel": 1,
      "note": 61,
      "start": 41.559,
      "duration": 0.0843,
      "velocity": 127,
      "chip": "ym2612"
    },
    {
      "channel": 3,
      "note": 49,
      "start": 41.5591,
      "duration": 0.0844,
      "velocity": 80,
      "chip": "ym2612"
    },
    {
      "channel": 1,
      "note": 61,
      "start": 41.6601,
      "duration": 0.1854,
      "velocity": 127,
      "chip": "ym2612"
    },
    {
      "channel": 2,
      "note": 33,
      "start": 41.6617,
      "duration": 0.1839,
      "velocity": 127,
      "chip": "ym2612"
    },
    {
      "channel": 3,
      "note": 49,
      "start": 41.6619,
      "duration": 0.1839,
      "velocity": 80,
      "chip": "ym2612"
    },
    {
      "channel": 4,
      "note": 61,
      "start": 41.662,
      "duration": 0.7068,
      "velocity": 103,
      "chip": "ym2612"
    },
    {
      "channel": 5,
      "note": 61,
      "start": 41.6621,
      "duration": 0.7067,
      "velocity": 103,
      "chip": "ym2612"
    },
    {
      "channel": 1,
      "note": 61,
      "start": 41.8623,
      "duration": 0.0843,
      "velocity": 127,
      "chip": "ym2612"
    },
    {
      "channel": 2,
      "note": 68,
      "start": 41.8639,
      "duration": 0.1839,
      "velocity": 127,
      "chip": "ym2612"
    },
    {
      "channel": 3,
      "note": 49,
      "start": 41.8641,
      "duration": 0.0827,
      "velocity": 80,
      "chip": "ym2612"
    },
    {
      "channel": 1,
      "note": 61,
      "start": 41.9634,
      "duration": 0.0843,
      "velocity": 127,
      "chip": "ym2612"
    },
    {
      "channel": 3,
      "note": 49,
      "start": 41.9636,
      "duration": 0.0844,
      "velocity": 80,
      "chip": "ym2612"
    },
    {
      "channel": 1,
      "note": 61,
      "start": 42.0646,
      "duration": 0.0842,
      "velocity": 127,
      "chip": "ym2612"
    },
    {
      "channel": 2,
      "note": 33,
      "start": 42.0662,
      "duration": 0.0827,
      "velocity": 127,
      "chip": "ym2612"
    },
    {
      "channel": 3,
      "note": 49,
      "start": 42.0664,
      "duration": 0.0827,
      "velocity": 80,
      "chip": "ym2612"
    },
    {
      "channel": 1,
      "note": 61,
      "start": 42.1657,
      "duration": 0.0843,
      "velocity": 127,
      "chip": "ym2612"
    },
    {
      "channel": 2,
      "note": 33,
      "start": 42.1658,
      "duration": 0.0843,
      "velocity": 127,
      "chip": "ym2612"
    },
    {
      "channel": 3,
      "note": 49,
      "start": 42.1659,
      "duration": 0.0843,
      "velocity": 80,
      "chip": "ym2612"
    },
    {
      "channel": 1,
      "note": 61,
      "start": 42.2668,
      "duration": 0.0844,
      "velocity": 127,
      "chip": "ym2612"
    },
    {
      "channel": 2,
      "note": 68,
      "start": 42.2688,
      "duration": 0.1835,
      "velocity": 127,
      "chip": "ym2612"
    },
    {
      "channel": 3,
      "note": 49,
      "start": 42.269,
      "duration": 0.0826,
      "velocity": 80,
      "chip": "ym2612"
    },
    {
      "channel": 1,
      "note": 61,
      "start": 42.3685,
      "duration": 0.0837,
      "velocity": 127,
      "chip": "ym2612"
    },
    {
      "channel": 3,
      "note": 49,
      "start": 42.3686,
      "duration": 0.0838,
      "velocity": 80,
      "chip": "ym2612"
    },
    {
      "channel": 1,
      "note": 56,
      "start": 42.4692,
      "duration": 0.0842,
      "velocity": 127,
      "chip": "ym2612"
    },
    {
      "channel": 2,
      "note": 68,
      "start": 42.4693,
      "duration": 0.0841,
      "velocity": 127,
      "chip": "ym2612"
    },
    {
      "channel": 3,
      "note": 56,
      "start": 42.4695,
      "duration": 0.0841,
      "velocity": 80,
      "chip": "ym2612"
    },
    {
      "channel": 4,
      "note": 68,
      "start": 42.4697,
      "duration": 0.084,
      "velocity": 103,
      "chip": "ym2612"
    },
    {
      "channel": 5,
      "note": 56,
      "start": 42.4699,
      "duration": 0.084,
      "velocity": 103,
      "chip": "ym2612"
    },
    {
      "channel": 1,
      "note": 56,
      "start": 42.5702,
      "duration": 0.0842,
      "velocity": 127,
      "chip": "ym2612"
    },
    {
      "channel": 2,
      "note": 68,
      "start": 42.5703,
      "duration": 0.0842,
      "velocity": 127,
      "chip": "ym2612"
    },
    {
      "channel": 3,
      "note": 56,
      "start": 42.5704,
      "duration": 0.0842,
      "velocity": 80,
      "chip": "ym2612"
    },
    {
      "channel": 4,
      "note": 68,
      "start": 42.5706,
      "duration": 0.0842,
      "velocity": 103,
      "chip": "ym2612"
    },
    {
      "channel": 5,
      "note": 56,
      "start": 42.5707,
      "duration": 0.0842,
      "velocity": 103,
      "chip": "ym2612"
    },
    {
      "channel": 1,
      "note": 57,
      "start": 42.7725,
      "duration": 0.2695,
      "velocity": 127,
      "chip": "ym2612"
    },
    {
      "channel": 2,
      "note": 33,
      "start": 42.7742,
      "duration": 0.268,
      "velocity": 127,
      "chip": "ym2612"
    },
    {
      "channel": 3,
      "note": 45,
      "start": 42.7744,
      "duration": 0.2679,
      "velocity": 80,
      "chip": "ym2612"
    },
    {
      "channel": 4,
      "note": 69,
      "start": 42.7746,
      "duration": 0.2679,
      "velocity": 103,
      "chip": "ym2612"
    },
    {
      "channel": 5,
      "note": 57,
      "start": 42.7748,
      "duration": 0.2678,
      "velocity": 103,
      "chip": "ym2612"
    },
    {
      "channel": 1,
      "note": 59,
      "start": 43.0759,
      "duration": 0.1853,
      "velocity": 127,
      "chip": "ym2612"
    },
    {
      "channel": 2,
      "note": 33,
      "start": 43.076,
      "duration": 0.1853,
      "velocity": 127,
      "chip": "ym2612"
    },
    {
      "channel": 3,
      "note": 47,
      "start": 43.0762,
      "duration": 0.1852,
      "velocity": 80,
      "chip": "ym2612"
    },
    {
      "channel": 4,
      "note": 71,
      "start": 43.0763,
      "duration": 0.1852,
      "velocity": 103,
      "chip": "ym2612"
    },
    {
      "channel": 5,
      "note": 59,
      "start": 43.0766,
      "duration": 0.1851,
      "velocity": 103,
      "chip": "ym2612"
    },
    {
      "channel": 1,
      "note": 61,
      "start": 43.2781,
      "duration": 0.1854,
      "velocity": 127,
      "chip": "ym2612"
    },
    {
      "channel": 2,
      "note": 33,
      "start": 43.2782,
      "duration": 0.1854,
      "velocity": 127,
      "chip": "ym2612"
    },
    {
      "channel": 3,
      "note": 49,
      "start": 43.2784,
      "duration": 0.1853,
      "velocity": 80,
      "chip": "ym2612"
    },
    {
      "channel": 4,
      "note": 61,
      "start": 43.2786,
      "duration": 0.7075,
      "velocity": 103,
      "chip": "ym2612"
    },
    {
      "channel": 5,
      "note": 61,
      "start": 43.2788,
      "duration": 0.7074,
      "velocity": 103,
      "chip": "ym2612"
    },
    {
      "channel": 1,
      "note": 61,
      "start": 43.4802,
      "duration": 0.0843,
      "velocity": 127,
      "chip": "ym2612"
    },
    {
      "channel": 2,
      "note": 68,
      "start": 43.4819,
      "duration": 0.1839,
      "velocity": 127,
      "chip": "ym2612"
    },
    {
      "channel": 3,
      "note": 49,
      "start": 43.482,
      "duration": 0.0826,
      "velocity": 80,
      "chip": "ym2612"
    },
    {
      "channel": 1,
      "note": 61,
      "start": 43.5814,
      "duration": 0.0843,
      "velocity": 127,
      "chip": "ym2612"
    },
    {
      "channel": 3,
      "note": 49,
      "start": 43.5815,
      "duration": 0.0844,
      "velocity": 80,
      "chip": "ym2612"
    },
    {
      "channel": 1,
      "note": 61,
      "start": 43.6825,
      "duration": 0.0842,
      "velocity": 127,
      "chip": "ym2612"
    },
    {
      "channel": 2,
      "note": 33,
      "start": 43.6842,
      "duration": 0.0827,
      "velocity": 127,
      "chip": "ym2612"
    },
    {
      "channel": 3,
      "note": 49,
      "start": 43.6843,
      "duration": 0.0827,
      "velocity": 80,
      "chip": "ym2612"
    },
    {
      "channel": 1,
      "note": 61,
      "start": 43.7837,
      "duration": 0.0845,
      "velocity": 127,
      "chip": "ym2612"
    },
    {
      "channel": 2,
      "note": 33,
      "start": 43.7838,
      "duration": 0.0846,
      "velocity": 127,
      "chip": "ym2612"
    },
    {
      "channel": 3,
      "note": 49,
      "start": 43.7839,
      "duration": 0.0845,
      "velocity": 80,
      "chip": "ym2612"
    },
    {
      "channel": 1,
      "note": 61,
      "start": 43.8852,
      "duration": 0.0838,
      "velocity": 127,
      "chip": "ym2612"
    },
    {
      "channel": 2,
      "note": 68,
      "start": 43.8868,
      "duration": 0.1834,
      "velocity": 127,
      "chip": "ym2612"
    },
    {
      "channel": 3,
      "note": 49,
      "start": 43.8869,
      "duration": 0.0822,
      "velocity": 80,
      "chip": "ym2612"
    },
    {
      "channel": 1,
      "note": 61,
      "start": 43.9858,
      "duration": 0.0843,
      "velocity": 127,
      "chip": "ym2612"
    },
    {
      "channel": 3,
      "note": 49,
      "start": 43.986,
      "duration": 0.0844,
      "velocity": 80,
      "chip": "ym2612"
    },
    {
      "channel": 1,
      "note": 61,
      "start": 44.087,
      "duration": 0.1854,
      "velocity": 127,
      "chip": "ym2612"
    },
    {
      "channel": 2,
      "note": 33,
      "start": 44.0886,
      "duration": 0.0826,
      "velocity": 127,
      "chip": "ym2612"
    },
    {
      "channel": 3,
      "note": 49,
      "start": 44.0888,
      "duration": 0.1839,
      "velocity": 80,
      "chip": "ym2612"
    },
    {
      "channel": 4,
      "note": 61,
      "start": 44.0889,
      "duration": 0.7062,
      "velocity": 103,
      "chip": "ym2612"
    },
    {
      "channel": 5,
      "note": 61,
      "start": 44.089,
      "duration": 0.7062,
      "velocity": 103,
      "chip": "ym2612"
    },
    {
      "channel": 2,
      "note": 33,
      "start": 44.1881,
      "duration": 0.0844,
      "velocity": 127,
      "chip": "ym2612"
    },
    {
      "channel": 1,
      "note": 61,
      "start": 44.2893,
      "duration": 0.0843,
      "velocity": 127,
      "chip": "ym2612"
    },
    {
      "channel": 2,
      "note": 68,
      "start": 44.2909,
      "duration": 0.1838,
      "velocity": 127,
      "chip": "ym2612"
    },
    {
      "channel": 3,
      "note": 49,
      "start": 44.291,
      "duration": 0.0827,
      "velocity": 80,
      "chip": "ym2612"
    },
    {
      "channel": 1,
      "note": 61,
      "start": 44.3903,
      "duration": 0.0842,
      "velocity": 127,
      "chip": "ym2612"
    },
    {
      "channel": 3,
      "note": 49,
      "start": 44.3905,
      "duration": 0.0843,
      "velocity": 80,
      "chip": "ym2612"
    },
    {
      "channel": 1,
      "note": 61,
      "start": 44.4915,
      "duration": 0.0842,
      "velocity": 127,
      "chip": "ym2612"
    },
    {
      "channel": 2,
      "note": 33,
      "start": 44.4932,
      "duration": 0.1838,
      "velocity": 127,
      "chip": "ym2612"
    },
    {
      "channel": 3,
      "note": 49,
      "start": 44.4933,
      "duration": 0.0827,
      "velocity": 80,
      "chip": "ym2612"
    },
    {
      "channel": 1,
      "note": 61,
      "start": 44.5926,
      "duration": 0.0843,
      "velocity": 127,
      "chip": "ym2612"
    },
    {
      "channel": 3,
      "note": 49,
      "start": 44.5927,
      "duration": 0.0844,
      "velocity": 80,
      "chip": "ym2612"
    },
    {
      "channel": 1,
      "note": 61,
      "start": 44.6937,
      "duration": 0.0842,
      "velocity": 127,
      "chip": "ym2612"
    },
    {
      "channel": 2,
      "note": 68,
      "start": 44.6954,
      "duration": 0.1838,
      "velocity": 127,
      "chip": "ym2612"
    },
    {
      "channel": 3,
      "note": 49,
      "start": 44.6955,
      "duration": 0.0826,
      "velocity": 80,
      "chip": "ym2612"
    },
    {
      "channel": 1,
      "note": 61,
      "start": 44.7948,
      "duration": 0.0843,
      "velocity": 127,
      "chip": "ym2612"
    },
    {
      "channel": 3,
      "note": 49,
      "start": 44.7949,
      "duration": 0.0844,
      "velocity": 80,
      "chip": "ym2612"
    },
    {
      "channel": 1,
      "note": 61,
      "start": 44.8959,
      "duration": 0.1854,
      "velocity": 127,
      "chip": "ym2612"
    },
    {
      "channel": 2,
      "note": 33,
      "start": 44.8976,
      "duration": 0.1839,
      "velocity": 127,
      "chip": "ym2612"
    },
    {
      "channel": 3,
      "note": 49,
      "start": 44.8977,
      "duration": 0.1839,
      "velocity": 80,
      "chip": "ym2612"
    },
    {
      "channel": 4,
      "note": 61,
      "start": 44.8978,
      "duration": 0.7062,
      "velocity": 103,
      "chip": "ym2612"
    },
    {
      "channel": 5,
      "note": 61,
      "start": 44.898,
      "duration": 0.7062,
      "velocity": 103,
      "chip": "ym2612"
    },
    {
      "channel": 1,
      "note": 61,
      "start": 45.0982,
      "duration": 0.0843,
      "velocity": 127,
      "chip": "ym2612"
    },
    {
      "channel": 2,
      "note": 68,
      "start": 45.0998,
      "duration": 0.1839,
      "velocity": 127,
      "chip": "ym2612"
    },
    {
      "channel": 3,
      "note": 49,
      "start": 45.1,
      "duration": 0.0826,
      "velocity": 80,
      "chip": "ym2612"
    },
    {
      "channel": 1,
      "note": 61,
      "start": 45.1993,
      "duration": 0.0843,
      "velocity": 127,
      "chip": "ym2612"
    },
    {
      "channel": 3,
      "note": 49,
      "start": 45.1995,
      "duration": 0.0844,
      "velocity": 80,
      "chip": "ym2612"
    },
    {
      "channel": 1,
      "note": 61,
      "start": 45.3005,
      "duration": 0.0847,
      "velocity": 127,
      "chip": "ym2612"
    },
    {
      "channel": 2,
      "note": 33,
      "start": 45.3024,
      "duration": 0.0828,
      "velocity": 127,
      "chip": "ym2612"
    },
    {
      "channel": 3,
      "note": 49,
      "start": 45.3026,
      "duration": 0.0828,
      "velocity": 80,
      "chip": "ym2612"
    },
    {
      "channel": 1,
      "note": 61,
      "start": 45.4018,
      "duration": 0.084,
      "velocity": 127,
      "chip": "ym2612"
    },
    {
      "channel": 2,
      "note": 33,
      "start": 45.4019,
      "duration": 0.084,
      "velocity": 127,
      "chip": "ym2612"
    },
    {
      "channel": 3,
      "note": 49,
      "start": 45.4021,
      "duration": 0.084,
      "velocity": 80,
      "chip": "ym2612"
    },
    {
      "channel": 1,
      "note": 61,
      "start": 45.5027,
      "duration": 0.0843,
      "velocity": 127,
      "chip": "ym2612"
    },
    {
      "channel": 2,
      "note": 68,
      "start": 45.5044,
      "duration": 0.1838,
      "velocity": 127,
      "chip": "ym2612"
    },
    {
      "channel": 3,
      "note": 49,
      "start": 45.5044,
      "duration": 0.0827,
      "velocity": 80,
      "chip": "ym2612"
    },
    {
      "channel": 1,
      "note": 61,
      "start": 45.6038,
      "duration": 0.0842,
      "velocity": 127,
      "chip": "ym2612"
    },
    {
      "channel": 3,
      "note": 49,
      "start": 45.604,
      "duration": 0.0844,
      "velocity": 80,
      "chip": "ym2612"
    },
    {
      "channel": 1,
      "note": 56,
      "start": 45.705,
      "duration": 0.7078,
      "velocity": 127,
      "chip": "ym2612"
    },
    {
      "channel": 2,
      "note": 45,
      "start": 45.7067,
      "duration": 0.3522,
      "velocity": 127,
      "chip": "ym2612"
    },
    {
      "channel": 3,
      "note": 56,
      "start": 45.7069,
      "duration": 0.7061,
      "velocity": 80,
      "chip": "ym2612"
    },
    {
      "channel": 4,
      "note": 68,
      "start": 45.707,
      "duration": 0.7061,
      "velocity": 103,
      "chip": "ym2612"
    },
    {
      "channel": 5,
      "note": 68,
      "start": 45.7072,
      "duration": 0.706,
      "velocity": 103,
      "chip": "ym2612"
    },
    {
      "channel": 2,
      "note": 68,
      "start": 46.111,
      "duration": 0.0827,
      "velocity": 127,
      "chip": "ym2612"
    },
    {
      "channel": 2,
      "note": 68,
      "start": 46.2105,
      "duration": 0.0844,
      "velocity": 127,
      "chip": "ym2612"
    },
    {
      "channel": 2,
      "note": 68,
      "start": 46.3117,
      "duration": 0.0842,
      "velocity": 127,
      "chip": "ym2612"
    },
    {
      "channel": 2,
      "note": 68,
      "start": 46.4129,
      "duration": 0.0842,
      "velocity": 127,
      "chip": "ym2612"
    },
    {
      "channel": 1,
      "note": 57,
      "start": 46.514,
      "duration": 0.1812,
      "velocity": 127,
      "chip": "ym2612"
    },
    {
      "channel": 2,
      "note": 33,
      "start": 46.5156,
      "duration": 0.1796,
      "velocity": 127,
      "chip": "ym2612"
    },
    {
      "channel": 3,
      "note": 45,
      "start": 46.5158,
      "duration": 0.1794,
      "velocity": 80,
      "chip": "ym2612"
    },
    {
      "channel": 4,
      "note": 57,
      "start": 46.5174,
      "duration": 0.1777,
      "velocity": 105,
      "chip": "ym2612"
    },
    {
      "channel": 5,
      "note": 57,
      "start": 46.5195,
      "duration": 0.1757,
      "velocity": 127,
      "chip": "ym2612"
    }
  ]
}