{
  "track_name": "05 - Track 6",
  "duration_sec": 83.18,
  "sample_rate": 44100,
  "note_count": 1689,
  "unique_pitches": 27,
  "pitch_range": 65,
  "avg_note_duration": 0.0872,
  "reconstruction_stats": {
    "notes_reconstructed": 1689,
    "keyon_events": 1689,
    "keyoff_events": 1689,
    "orphan_keyons": 0,
    "unique_pitches": 27,
    "pitch_range": 65,
    "avg_duration_sec": 0.0872
  },
  "metadata": {
    "source": "M\\Man Overboard!\\05 - Track 6.vgz"
  },
  "notes": [
    {
      "channel": 0,
      "note": 25,
      "start": 0.0,
      "duration": 0.0795,
      "velocity": 127,
      "chip": "ym2612"
    },
    {
      "channel": 1,
      "note": 57,
      "start": 0.0,
      "duration": 0.0797,
      "velocity": 1,
      "chip": "ym2612"
    },
    {
      "channel": 2,
      "note": 57,
      "start": 0.0,
      "duration": 0.0799,
      "velocity": 1,
      "chip": "ym2612"
    },
    {
      "channel": 3,
      "note": 57,
      "start": 0.0005,
      "duration": 0.0796,
      "velocity": 1,
      "chip": "ym2612"
    },
    {
      "channel": 4,
      "note": 57,
      "start": 0.0019,
      "duration": 0.0784,
      "velocity": 1,
      "chip": "ym2612"
    },
    {
      "channel": 0,
      "note": 32,
      "start": 0.3503,
      "duration": 0.0832,
      "velocity": 127,
      "chip": "ym2612"
    },
    {
      "channel": 1,
      "note": 52,
      "start": 0.3506,
      "duration": 0.083,
      "velocity": 1,
      "chip": "ym2612"
    },
    {
      "channel": 2,
      "note": 52,
      "start": 0.351,
      "duration": 0.0828,
      "velocity": 1,
      "chip": "ym2612"
    },
    {
      "channel": 3,
      "note": 52,
      "start": 0.3513,
      "duration": 0.0826,
      "velocity": 1,
      "chip": "ym2612"
    },
    {
      "channel": 4,
      "note": 52,
      "start": 0.3517,
      "duration": 0.0824,
      "velocity": 1,
      "chip": "ym2612"
    },
    {
      "channel": 0,
      "note": 25,
      "start": 0.5188,
      "duration": 0.0832,
      "velocity": 127,
      "chip": "ym2612"
    },
    {
      "channel": 1,
      "note": 57,
      "start": 0.6867,
      "duration": 0.0841,
      "velocity": 1,
      "chip": "ym2612"
    },
    {
      "channel": 2,
      "note": 57,
      "start": 0.687,
      "duration": 0.0839,
      "velocity": 1,
      "chip": "ym2612"
    },
    {
      "channel": 3,
      "note": 57,
      "start": 0.6874,
      "duration": 0.0837,
      "velocity": 1,
      "chip": "ym2612"
    },
    {
      "channel": 4,
      "note": 57,
      "start": 0.6877,
      "duration": 0.0836,
      "velocity": 1,
      "chip": "ym2612"
    },
    {
      "channel": 0,
      "note": 25,
      "start": 0.8559,
      "duration": 0.0832,
      "velocity": 127,
      "chip": "ym2612"
    },
    {
      "channel": 0,
      "note": 32,
      "start": 1.0244,
      "duration": 0.1,
      "velocity": 127,
      "chip": "ym2612"
    },
    {
      "channel": 1,
      "note": 52,
      "start": 1.0248,
      "duration": 0.0998,
      "velocity": 1,
      "chip": "ym2612"
    },
    {
      "channel": 2,
      "note": 52,
      "start": 1.0251,
      "duration": 0.0997,
      "velocity": 1,
      "chip": "ym2612"
    },
    {
      "channel": 3,
      "note": 52,
      "start": 1.0254,
      "duration": 0.0996,
      "velocity": 1,
      "chip": "ym2612"
    },
    {
      "channel": 4,
      "note": 52,
      "start": 1.0258,
      "duration": 0.0994,
      "velocity": 1,
      "chip": "ym2612"
    },
    {
      "channel": 0,
      "note": 32,
      "start": 1.2098,
      "duration": 0.0832,
      "velocity": 127,
      "chip": "ym2612"
    },
    {
      "channel": 0,
      "note": 25,
      "start": 1.3784,
      "duration": 0.0832,
      "velocity": 127,
      "chip": "ym2612"
    },
    {
      "channel": 1,
      "note": 57,
      "start": 1.3787,
      "duration": 0.083,
      "velocity": 1,
      "chip": "ym2612"
    },
    {
      "channel": 2,
      "note": 57,
      "start": 1.3791,
      "duration": 0.0828,
      "velocity": 1,
      "chip": "ym2612"
    },
    {
      "channel": 3,
      "note": 57,
      "start": 1.3794,
      "duration": 0.0827,
      "velocity": 1,
      "chip": "ym2612"
    },
    {
      "channel": 4,
      "note": 57,
      "start": 1.3798,
      "duration": 0.0825,
      "velocity": 1,
      "chip": "ym2612"
    },
    {
      "channel": 0,
      "note": 32,
      "start": 1.7155,
      "duration": 0.1,
      "velocity": 127,
      "chip": "ym2612"
    },
    {
      "channel": 1,
      "note": 52,
      "start": 1.7158,
      "duration": 0.0998,
      "velocity": 1,
      "chip": "ym2612"
    },
    {
      "channel": 2,
      "note": 52,
      "start": 1.7162,
      "duration": 0.0996,
      "velocity": 1,
      "chip": "ym2612"
    },
    {
      "channel": 3,
      "note": 52,
      "start": 1.7165,
      "duration": 0.0995,
      "velocity": 1,
      "chip": "ym2612"
    },
    {
      "channel": 4,
      "note": 52,
      "start": 1.7169,
      "duration": 0.0993,
      "velocity": 1,
      "chip": "ym2612"
    },
    {
      "channel": 0,
      "note": 25,
      "start": 1.9008,
      "duration": 0.0831,
      "velocity": 127,
      "chip": "ym2612"
    },
    {
      "channel": 1,
      "note": 57,
      "start": 2.0686,
      "duration": 0.0841,
      "velocity": 1,
      "chip": "ym2612"
    },
    {
      "channel": 2,
      "note": 57,
      "start": 2.069,
      "duration": 0.0839,
      "velocity": 1,
      "chip": "ym2612"
    },
    {
      "channel": 3,
      "note": 57,
      "start": 2.0693,
      "duration": 0.0837,
      "velocity": 1,
      "chip": "ym2612"
    },
    {
      "channel": 4,
      "note": 57,
      "start": 2.0697,
      "duration": 0.0835,
      "velocity": 1,
      "chip": "ym2612"
    },
    {
      "channel": 0,
      "note": 25,
      "start": 2.2379,
      "duration": 0.0832,
      "velocity": 127,
      "chip": "ym2612"
    },
    {
      "channel": 1,
      "note": 52,
      "start": 2.2382,
      "duration": 0.0829,
      "velocity": 1,
      "chip": "ym2612"
    },
    {
      "channel": 2,
      "note": 52,
      "start": 2.2385,
      "duration": 0.0828,
      "velocity": 1,
      "chip": "ym2612"
    },
    {
      "channel": 3,
      "note": 52,
      "start": 2.2389,
      "duration": 0.0827,
      "velocity": 1,
      "chip": "ym2612"
    },
    {
      "channel": 4,
      "note": 52,
      "start": 2.2392,
      "duration": 0.0825,
      "velocity": 1,
      "chip": "ym2612"
    },
    {
      "channel": 0,
      "note": 32,
      "start": 2.4064,
      "duration": 0.1,
      "velocity": 127,
      "chip": "ym2612"
    },
    {
      "channel": 1,
      "note": 57,
      "start": 2.4068,
      "duration": 0.0999,
      "velocity": 1,
      "chip": "ym2612"
    },
    {
      "channel": 2,
      "note": 57,
      "start": 2.4071,
      "duration": 0.0997,
      "velocity": 1,
      "chip": "ym2612"
    },
    {
      "channel": 3,
      "note": 57,
      "start": 2.4074,
      "duration": 0.0995,
      "velocity": 1,
      "chip": "ym2612"
    },
    {
      "channel": 4,
      "note": 57,
      "start": 2.4077,
      "duration": 0.0994,
      "velocity": 1,
      "chip": "ym2612"
    },
    {
      "channel": 0,
      "note": 32,
      "start": 2.5918,
      "duration": 0.0832,
      "velocity": 127,
      "chip": "ym2612"
    },
    {
      "channel": 1,
      "note": 52,
      "start": 2.5921,
      "duration": 0.083,
      "velocity": 1,
      "chip": "ym2612"
    },
    {
      "channel": 2,
      "note": 52,
      "start": 2.5924,
      "duration": 0.0829,
      "velocity": 1,
      "chip": "ym2612"
    },
    {
      "channel": 3,
      "note": 52,
      "start": 2.5928,
      "duration": 0.0826,
      "velocity": 1,
      "chip": "ym2612"
    },
    {
      "channel": 4,
      "note": 52,
      "start": 2.5931,
      "duration": 0.0825,
      "velocity": 1,
      "chip": "ym2612"
    },
    {
      "channel": 0,
      "note": 25,
      "start": 2.7604,
      "duration": 0.0832,
      "velocity": 127,
      "chip": "ym2612"
    },
    {
      "channel": 1,
      "note": 54,
      "start": 2.7607,
      "duration": 0.083,
      "velocity": 1,
      "chip": "ym2612"
    },
    {
      "channel": 2,
      "note": 54,
      "start": 2.761,
      "duration": 0.0829,
      "velocity": 1,
      "chip": "ym2612"
    },
    {
      "channel": 3,
      "note": 54,
      "start": 2.7613,
      "duration": 0.0827,
      "velocity": 1,
      "chip": "ym2612"
    },
    {
      "channel": 4,
      "note": 54,
      "start": 2.7617,
      "duration": 0.0826,
      "velocity": 1,
      "chip": "ym2612"
    },
    {
      "channel": 0,
      "note": 32,
      "start": 3.0975,
      "duration": 0.0832,
      "velocity": 127,
      "chip": "ym2612"
    },
    {
      "channel": 1,
      "note": 49,
      "start": 3.0978,
      "duration": 0.0829,
      "velocity": 1,
      "chip": "ym2612"
    },
    {
      "channel": 2,
      "note": 49,
      "start": 3.0981,
      "duration": 0.0828,
      "velocity": 1,
      "chip": "ym2612"
    },
    {
      "channel": 3,
      "note": 49,
      "start": 3.0985,
      "duration": 0.0826,
      "velocity": 1,
      "chip": "ym2612"
    },
    {
      "channel": 4,
      "note": 49,
      "start": 3.0988,
      "duration": 0.0825,
      "velocity": 1,
      "chip": "ym2612"
    },
    {
      "channel": 0,
      "note": 25,
      "start": 3.2828,
      "duration": 0.0831,
      "velocity": 127,
      "chip": "ym2612"
    },
    {
      "channel": 1,
      "note": 54,
      "start": 3.4506,
      "duration": 0.0841,
      "velocity": 1,
      "chip": "ym2612"
    },
    {
      "channel": 2,
      "note": 54,
      "start": 3.451,
      "duration": 0.0839,
      "velocity": 1,
      "chip": "ym2612"
    },
    {
      "channel": 3,
      "note": 54,
      "start": 3.4513,
      "duration": 0.0838,
      "velocity": 1,
      "chip": "ym2612"
    },
    {
      "channel": 4,
      "note": 54,
      "start": 3.4517,
      "duration": 0.0837,
      "velocity": 1,
      "chip": "ym2612"
    },
    {
      "channel": 0,
      "note": 25,
      "start": 3.6199,
      "duration": 0.0832,
      "velocity": 127,
      "chip": "ym2612"
    },
    {
      "channel": 0,
      "note": 32,
      "start": 3.7884,
      "duration": 0.0831,
      "velocity": 127,
      "chip": "ym2612"
    },
    {
      "channel": 1,
      "note": 49,
      "start": 3.7888,
      "duration": 0.083,
      "velocity": 1,
      "chip": "ym2612"
    },
    {
      "channel": 2,
      "note": 49,
      "start": 3.7891,
      "duration": 0.0829,
      "velocity": 1,
      "chip": "ym2612"
    },
    {
      "channel": 3,
      "note": 49,
      "start": 3.7894,
      "duration": 0.0827,
      "velocity": 1,
      "chip": "ym2612"
    },
    {
      "channel": 4,
      "note": 49,
      "start": 3.7898,
      "duration": 0.0825,
      "velocity": 1,
      "chip": "ym2612"
    },
    {
      "channel": 0,
      "note": 32,
      "start": 3.9738,
      "duration": 0.0832,
      "velocity": 127,
      "chip": "ym2612"
    },
    {
      "channel": 0,
      "note": 25,
      "start": 4.1423,
      "duration": 0.0832,
      "velocity": 127,
      "chip": "ym2612"
    },
    {
      "channel": 1,
      "note": 54,
      "start": 4.1427,
      "duration": 0.083,
      "velocity": 1,
      "chip": "ym2612"
    },
    {
      "channel": 2,
      "note": 54,
      "start": 4.143,
      "duration": 0.0828,
      "velocity": 1,
      "chip": "ym2612"
    },
    {
      "channel": 3,
      "note": 54,
      "start": 4.1434,
      "duration": 0.0827,
      "velocity": 1,
      "chip": "ym2612"
    },
    {
      "channel": 4,
      "note": 54,
      "start": 4.1437,
      "duration": 0.0825,
      "velocity": 1,
      "chip": "ym2612"
    },
    {
      "channel": 0,
      "note": 32,
      "start": 4.4794,
      "duration": 0.0832,
      "velocity": 127,
      "chip": "ym2612"
    },
    {
      "channel": 1,
      "note": 49,
      "start": 4.4798,
      "duration": 0.0829,
      "velocity": 1,
      "chip": "ym2612"
    },
    {
      "channel": 2,
      "note": 49,
      "start": 4.4801,
      "duration": 0.0828,
      "velocity": 1,
      "chip": "ym2612"
    },
    {
      "channel": 3,
      "note": 49,
      "start": 4.4805,
      "duration": 0.0826,
      "velocity": 1,
      "chip": "ym2612"
    },
    {
      "channel": 4,
      "note": 49,
      "start": 4.4808,
      "duration": 0.0825,
      "velocity": 1,
      "chip": "ym2612"
    },
    {
      "channel": 0,
      "note": 25,
      "start": 4.6648,
      "duration": 0.0832,
      "velocity": 127,
      "chip": "ym2612"
    },
    {
      "channel": 0,
      "note": 25,
      "start": 4.8333,
      "duration": 0.0832,
      "velocity": 127,
      "chip": "ym2612"
    },
    {
      "channel": 1,
      "note": 54,
      "start": 4.8337,
      "duration": 0.083,
      "velocity": 1,
      "chip": "ym2612"
    },
    {
      "channel": 2,
      "note": 54,
      "start": 4.834,
      "duration": 0.0828,
      "velocity": 1,
      "chip": "ym2612"
    },
    {
      "channel": 3,
      "note": 54,
      "start": 4.8344,
      "duration": 0.0826,
      "velocity": 1,
      "chip": "ym2612"
    },
    {
      "channel": 4,
      "note": 54,
      "start": 4.8347,
      "duration": 0.0824,
      "velocity": 1,
      "chip": "ym2612"
    },
    {
      "channel": 0,
      "note": 32,
      "start": 5.0019,
      "duration": 0.0831,
      "velocity": 127,
      "chip": "ym2612"
    },
    {
      "channel": 1,
      "note": 49,
      "start": 5.0022,
      "duration": 0.083,
      "velocity": 1,
      "chip": "ym2612"
    },
    {
      "channel": 2,
      "note": 49,
      "start": 5.0025,
      "duration": 0.0828,
      "velocity": 1,
      "chip": "ym2612"
    },
    {
      "channel": 3,
      "note": 49,
      "start": 5.0028,
      "duration": 0.0827,
      "velocity": 1,
      "chip": "ym2612"
    },
    {
      "channel": 4,
      "note": 49,
      "start": 5.0032,
      "duration": 0.0825,
      "velocity": 1,
      "chip": "ym2612"
    },
    {
      "channel": 0,
      "note": 32,
      "start": 5.1704,
      "duration": 0.0832,
      "velocity": 127,
      "chip": "ym2612"
    },
    {
      "channel": 1,
      "note": 54,
      "start": 5.1707,
      "duration": 0.083,
      "velocity": 1,
      "chip": "ym2612"
    },
    {
      "channel": 2,
      "note": 54,
      "start": 5.1711,
      "duration": 0.0828,
      "velocity": 1,
      "chip": "ym2612"
    },
    {
      "channel": 3,
      "note": 54,
      "start": 5.1714,
      "duration": 0.0827,
      "velocity": 1,
      "chip": "ym2612"
    },
    {
      "channel": 4,
      "note": 54,
      "start": 5.1717,
      "duration": 0.0825,
      "velocity": 1,
      "chip": "ym2612"
    },
    {
      "channel": 0,
      "note": 32,
      "start": 5.3389,
      "duration": 0.1,
      "velocity": 127,
      "chip": "ym2612"
    },
    {
      "channel": 1,
      "note": 49,
      "start": 5.3393,
      "duration": 0.0999,
      "velocity": 1,
      "chip": "ym2612"
    },
    {
      "channel": 2,
      "note": 49,
      "start": 5.3396,
      "duration": 0.0997,
      "velocity": 1,
      "chip": "ym2612"
    },
    {
      "channel": 3,
      "note": 49,
      "start": 5.3399,
      "duration": 0.0995,
      "velocity": 1,
      "chip": "ym2612"
    },
    {
      "channel": 4,
      "note": 49,
      "start": 5.3402,
      "duration": 0.0994,
      "velocity": 1,
      "chip": "ym2612"
    },
    {
      "channel": 0,
      "note": 25,
      "start": 5.5245,
      "duration": 0.083,
      "velocity": 127,
      "chip": "ym2612"
    },
    {
      "channel": 1,
      "note": 57,
      "start": 5.526,
      "duration": 0.0817,
      "velocity": 113,
      "chip": "ym2612"
    },
    {
      "channel": 2,
      "note": 57,
      "start": 5.5273,
      "duration": 0.0805,
      "velocity": 99,
      "chip": "ym2612"
    },
    {
      "channel": 3,
      "note": 61,
      "start": 5.5288,
      "duration": 0.0792,
      "velocity": 99,
      "chip": "ym2612"
    },
    {
      "channel": 4,
      "note": 57,
      "start": 5.5302,
      "duration": 0.078,
      "velocity": 1,
      "chip": "ym2612"
    },
    {
      "channel": 0,
      "note": 32,
      "start": 5.8614,
      "duration": 0.0832,
      "velocity": 127,
      "chip": "ym2612"
    },
    {
      "channel": 1,
      "note": 52,
      "start": 5.8618,
      "duration": 0.0829,
      "velocity": 113,
      "chip": "ym2612"
    },
    {
      "channel": 4,
      "note": 52,
      "start": 5.8625,
      "duration": 0.0828,
      "velocity": 1,
      "chip": "ym2612"
    },
    {
      "channel": 0,
      "note": 25,
      "start": 6.0299,
      "duration": 0.1,
      "velocity": 127,
      "chip": "ym2612"
    },
    {
      "channel": 2,
      "note": 57,
      "start": 6.0305,
      "duration": 0.0999,
      "velocity": 99,
      "chip": "ym2612"
    },
    {
      "channel": 3,
      "note": 61,
      "start": 6.0309,
      "duration": 0.0997,
      "velocity": 99,
      "chip": "ym2612"
    },
    {
      "channel": 1,
      "note": 57,
      "start": 6.2146,
      "duration": 0.0841,
      "velocity": 113,
      "chip": "ym2612"
    },
    {
      "channel": 4,
      "note": 57,
      "start": 6.2155,
      "duration": 0.0839,
      "velocity": 1,
      "chip": "ym2612"
    },
    {
      "channel": 0,
      "note": 25,
      "start": 6.3839,
      "duration": 0.0831,
      "velocity": 127,
      "chip": "ym2612"
    },
    {
      "channel": 2,
      "note": 57,
      "start": 6.3844,
      "duration": 0.0829,
      "velocity": 99,
      "chip": "ym2612"
    },
    {
      "channel": 3,
      "note": 61,
      "start": 6.3848,
      "duration": 0.0827,
      "velocity": 99,
      "chip": "ym2612"
    },
    {
      "channel": 0,
      "note": 32,
      "start": 6.5524,
      "duration": 0.0832,
      "velocity": 127,
      "chip": "ym2612"
    },
    {
      "channel": 1,
      "note": 52,
      "start": 6.5527,
      "duration": 0.0829,
      "velocity": 113,
      "chip": "ym2612"
    },
    {
      "channel": 2,
      "note": 57,
      "start": 6.5531,
      "duration": 0.0828,
      "velocity": 99,
      "chip": "ym2612"
    },
    {
      "channel": 3,
      "note": 61,
      "start": 6.5534,
      "duration": 0.0827,
      "velocity": 99,
      "chip": "ym2612"
    },
    {
      "channel": 4,
      "note": 52,
      "start": 6.5537,
      "duration": 0.0826,
      "velocity": 1,
      "chip": "ym2612"
    },
    {
      "channel": 0,
      "note": 32,
      "start": 6.7209,
      "duration": 0.1,
      "velocity": 127,
      "chip": "ym2612"
    },
    {
      "channel": 0,
      "note": 25,
      "start": 6.9063,
      "duration": 0.0831,
      "velocity": 127,
      "chip": "ym2612"
    },
    {
      "channel": 1,
      "note": 57,
      "start": 6.9066,
      "duration": 0.083,
      "velocity": 113,
      "chip": "ym2612"
    },
    {
      "channel": 4,
      "note": 57,
      "start": 6.9074,
      "duration": 0.0829,
      "velocity": 1,
      "chip": "ym2612"
    },
    {
      "channel": 2,
      "note": 57,
      "start": 7.0744,
      "duration": 0.0841,
      "velocity": 99,
      "chip": "ym2612"
    },
    {
      "channel": 3,
      "note": 61,
      "start": 7.0747,
      "duration": 0.0839,
      "velocity": 99,
      "chip": "ym2612"
    },
    {
      "channel": 0,
      "note": 32,
      "start": 7.2434,
      "duration": 0.0832,
      "velocity": 127,
      "chip": "ym2612"
    },
    {
      "channel": 1,
      "note": 52,
      "start": 7.2437,
      "duration": 0.083,
      "velocity": 113,
      "chip": "ym2612"
    },
    {
      "channel": 2,
      "note": 57,
      "start": 7.2441,
      "duration": 0.0828,
      "velocity": 99,
      "chip": "ym2612"
    },
    {
      "channel": 3,
      "note": 61,
      "start": 7.2444,
      "duration": 0.0826,
      "velocity": 99,
      "chip": "ym2612"
    },
    {
      "channel": 4,
      "note": 52,
      "start": 7.2447,
      "duration": 0.0825,
      "velocity": 1,
      "chip": "ym2612"
    },
    {
      "channel": 0,
      "note": 25,
      "start": 7.4119,
      "duration": 0.0831,
      "velocity": 127,
      "chip": "ym2612"
    },
    {
      "channel": 2,
      "note": 57,
      "start": 7.4125,
      "duration": 0.083,
      "velocity": 99,
      "chip": "ym2612"
    },
    {
      "channel": 3,
      "note": 61,
      "start": 7.4128,
      "duration": 0.0828,
      "velocity": 99,
      "chip": "ym2612"
    },
    {
      "channel": 1,
      "note": 57,
      "start": 7.5966,
      "duration": 0.0841,
      "velocity": 113,
      "chip": "ym2612"
    },
    {
      "channel": 2,
      "note": 57,
      "start": 7.5969,
      "duration": 0.0839,
      "velocity": 99,
      "chip": "ym2612"
    },
    {
      "channel": 3,
      "note": 61,
      "start": 7.5973,
      "duration": 0.0838,
      "velocity": 99,
      "chip": "ym2612"
    },
    {
      "channel": 4,
      "note": 57,
      "start": 7.5976,
      "duration": 0.0837,
      "velocity": 1,
      "chip": "ym2612"
    },
    {
      "channel": 0,
      "note": 25,
      "start": 7.7659,
      "duration": 0.0831,
      "velocity": 127,
      "chip": "ym2612"
    },
    {
      "channel": 1,
      "note": 52,
      "start": 7.7662,
      "duration": 0.0829,
      "velocity": 113,
      "chip": "ym2612"
    },
    {
      "channel": 4,
      "note": 52,
      "start": 7.767,
      "duration": 0.0828,
      "velocity": 1,
      "chip": "ym2612"
    },
    {
      "channel": 0,
      "note": 32,
      "start": 7.9344,
      "duration": 0.0832,
      "velocity": 127,
      "chip": "ym2612"
    },
    {
      "channel": 1,
      "note": 57,
      "start": 7.9347,
      "duration": 0.083,
      "velocity": 113,
      "chip": "ym2612"
    },
    {
      "channel": 2,
      "note": 59,
      "start": 7.9351,
      "duration": 0.0828,
      "velocity": 99,
      "chip": "ym2612"
    },
    {
      "channel": 3,
      "note": 62,
      "start": 7.9354,
      "duration": 0.0827,
      "velocity": 99,
      "chip": "ym2612"
    },
    {
      "channel": 4,
      "note": 57,
      "start": 7.9357,
      "duration": 0.0825,
      "velocity": 1,
      "chip": "ym2612"
    },
    {
      "channel": 0,
      "note": 32,
      "start": 8.1029,
      "duration": 0.0832,
      "velocity": 127,
      "chip": "ym2612"
    },
    {
      "channel": 1,
      "note": 52,
      "start": 8.1032,
      "duration": 0.083,
      "velocity": 113,
      "chip": "ym2612"
    },
    {
      "channel": 4,
      "note": 52,
      "start": 8.104,
      "duration": 0.0828,
      "velocity": 1,
      "chip": "ym2612"
    },
    {
      "channel": 0,
      "note": 25,
      "start": 8.2883,
      "duration": 0.0832,
      "velocity": 127,
      "chip": "ym2612"
    },
    {
      "channel": 1,
      "note": 54,
      "start": 8.2886,
      "duration": 0.083,
      "velocity": 113,
      "chip": "ym2612"
    },
    {
      "channel": 2,
      "note": 54,
      "start": 8.2889,
      "duration": 0.0829,
      "velocity": 99,
      "chip": "ym2612"
    },
    {
      "channel": 3,
      "note": 57,
      "start": 8.2893,
      "duration": 0.0827,
      "velocity": 99,
      "chip": "ym2612"
    },
    {
      "channel": 4,
      "note": 54,
      "start": 8.2896,
      "duration": 0.0826,
      "velocity": 1,
      "chip": "ym2612"
    },
    {
      "channel": 0,
      "note": 32,
      "start": 8.6254,
      "duration": 0.0832,
      "velocity": 127,
      "chip": "ym2612"
    },
    {
      "channel": 1,
      "note": 49,
      "start": 8.6257,
      "duration": 0.0829,
      "velocity": 113,
      "chip": "ym2612"
    },
    {
      "channel": 4,
      "note": 49,
      "start": 8.6265,
      "duration": 0.0828,
      "velocity": 1,
      "chip": "ym2612"
    },
    {
      "channel": 0,
      "note": 25,
      "start": 8.7939,
      "duration": 0.0831,
      "velocity": 127,
      "chip": "ym2612"
    },
    {
      "channel": 2,
      "note": 54,
      "start": 8.7945,
      "duration": 0.083,
      "velocity": 99,
      "chip": "ym2612"
    },
    {
      "channel": 3,
      "note": 57,
      "start": 8.7948,
      "duration": 0.0829,
      "velocity": 99,
      "chip": "ym2612"
    },
    {
      "channel": 1,
      "note": 54,
      "start": 8.9786,
      "duration": 0.0841,
      "velocity": 113,
      "chip": "ym2612"
    },
    {
      "channel": 4,
      "note": 54,
      "start": 8.9794,
      "duration": 0.084,
      "velocity": 1,
      "chip": "ym2612"
    },
    {
      "channel": 0,
      "note": 25,
      "start": 9.1478,
      "duration": 0.0831,
      "velocity": 127,
      "chip": "ym2612"
    },
    {
      "channel": 2,
      "note": 54,
      "start": 9.1484,
      "duration": 0.0829,
      "velocity": 99,
      "chip": "ym2612"
    },
    {
      "channel": 3,
      "note": 57,
      "start": 9.1487,
      "duration": 0.0828,
      "velocity": 99,
      "chip": "ym2612"
    },
    {
      "channel": 0,
      "note": 32,
      "start": 9.3163,
      "duration": 0.0832,
      "velocity": 127,
      "chip": "ym2612"
    },
    {
      "channel": 1,
      "note": 49,
      "start": 9.3167,
      "duration": 0.083,
      "velocity": 113,
      "chip": "ym2612"
    },
    {
      "channel": 2,
      "note": 54,
      "start": 9.317,
      "duration": 0.0829,
      "velocity": 99,
      "chip": "ym2612"
    },
    {
      "channel": 3,
      "note": 57,
      "start": 9.3173,
      "duration": 0.0828,
      "velocity": 99,
      "chip": "ym2612"
    },
    {
      "channel": 4,
      "note": 49,
      "start": 9.3177,
      "duration": 0.0825,
      "velocity": 1,
      "chip": "ym2612"
    },
    {
      "channel": 0,
      "note": 32,
      "start": 9.4849,
      "duration": 0.0832,
      "velocity": 127,
      "chip": "ym2612"
    },
    {
      "channel": 0,
      "note": 25,
      "start": 9.6534,
      "duration": 0.1,
      "velocity": 127,
      "chip": "ym2612"
    },
    {
      "channel": 1,
      "note": 54,
      "start": 9.6538,
      "duration": 0.0999,
      "velocity": 113,
      "chip": "ym2612"
    },
    {
      "channel": 4,
      "note": 54,
      "start": 9.6546,
      "duration": 0.0997,
      "velocity": 1,
      "chip": "ym2612"
    },
    {
      "channel": 2,
      "note": 54,
      "start": 9.8384,
      "duration": 0.0841,
      "velocity": 99,
      "chip": "ym2612"
    },
    {
      "channel": 3,
      "note": 57,
      "start": 9.8387,
      "duration": 0.0839,
      "velocity": 99,
      "chip": "ym2612"
    },
    {
      "channel": 0,
      "note": 32,
      "start": 10.0073,
      "duration": 0.0831,
      "velocity": 127,
      "chip": "ym2612"
    },
    {
      "channel": 1,
      "note": 49,
      "start": 10.0077,
      "duration": 0.0829,
      "velocity": 113,
      "chip": "ym2612"
    },
    {
      "channel": 2,
      "note": 54,
      "start": 10.008,
      "duration": 0.0828,
      "velocity": 99,
      "chip": "ym2612"
    },
    {
      "channel": 3,
      "note": 57,
      "start": 10.0083,
      "duration": 0.0827,
      "velocity": 99,
      "chip": "ym2612"
    },
    {
      "channel": 4,
      "note": 49,
      "start": 10.0087,
      "duration": 0.0825,
      "velocity": 1,
      "chip": "ym2612"
    },
    {
      "channel": 0,
      "note": 25,
      "start": 10.1759,
      "duration": 0.0832,
      "velocity": 127,
      "chip": "ym2612"
    },
    {
      "channel": 2,
      "note": 54,
      "start": 10.1764,
      "duration": 0.083,
      "velocity": 99,
      "chip": "ym2612"
    },
    {
      "channel": 3,
      "note": 57,
      "start": 10.1768,
      "duration": 0.0828,
      "velocity": 99,
      "chip": "ym2612"
    },
    {
      "channel": 0,
      "note": 25,
      "start": 10.3444,
      "duration": 0.1,
      "velocity": 127,
      "chip": "ym2612"
    },
    {
      "channel": 1,
      "note": 54,
      "start": 10.3447,
      "duration": 0.0999,
      "velocity": 113,
      "chip": "ym2612"
    },
    {
      "channel": 2,
      "note": 54,
      "start": 10.345,
      "duration": 0.0997,
      "velocity": 99,
      "chip": "ym2612"
    },
    {
      "channel": 3,
      "note": 57,
      "start": 10.3454,
      "duration": 0.0995,
      "velocity": 99,
      "chip": "ym2612"
    },
    {
      "channel": 4,
      "note": 54,
      "start": 10.3457,
      "duration": 0.0994,
      "velocity": 1,
      "chip": "ym2612"
    },
    {
      "channel": 0,
      "note": 32,
      "start": 10.5298,
      "duration": 0.0832,
      "velocity": 127,
      "chip": "ym2612"
    },
    {
      "channel": 1,
      "note": 49,
      "start": 10.5301,
      "duration": 0.083,
      "velocity": 113,
      "chip": "ym2612"
    },
    {
      "channel": 4,
      "note": 49,
      "start": 10.5309,
      "duration": 0.0828,
      "velocity": 1,
      "chip": "ym2612"
    },
    {
      "channel": 0,
      "note": 32,
      "start": 10.6983,
      "duration": 0.0832,
      "velocity": 127,
      "chip": "ym2612"
    },
    {
      "channel": 1,
      "note": 54,
      "start": 10.6987,
      "duration": 0.0829,
      "velocity": 113,
      "chip": "ym2612"
    },
    {
      "channel": 2,
      "note": 59,
      "start": 10.699,
      "duration": 0.0828,
      "velocity": 99,
      "chip": "ym2612"
    },
    {
      "channel": 3,
      "note": 62,
      "start": 10.6994,
      "duration": 0.0826,
      "velocity": 99,
      "chip": "ym2612"
    },
    {
      "channel": 4,
      "note": 54,
      "start": 10.6997,
      "duration": 0.0825,
      "velocity": 1,
      "chip": "ym2612"
    },
    {
      "channel": 0,
      "note": 32,
      "start": 10.8669,
      "duration": 0.0831,
      "velocity": 127,
      "chip": "ym2612"
    },
    {
      "channel": 1,
      "note": 49,
      "start": 10.8672,
      "duration": 0.083,
      "velocity": 113,
      "chip": "ym2612"
    },
    {
      "channel": 4,
      "note": 49,
      "start": 10.868,
      "duration": 0.0828,
      "velocity": 1,
      "chip": "ym2612"
    },
    {
      "channel": 0,
      "note": 25,
      "start": 11.0356,
      "duration": 0.0998,
      "velocity": 127,
      "chip": "ym2612"
    },
    {
      "channel": 1,
      "note": 50,
      "start": 11.037,
      "duration": 0.0985,
      "velocity": 113,
      "chip": "ym2612"
    },
    {
      "channel": 2,
      "note": 50,
      "start": 11.0385,
      "duration": 0.0973,
      "velocity": 99,
      "chip": "ym2612"
    },
    {
      "channel": 3,
      "note": 54,
      "start": 11.0399,
      "duration": 0.0961,
      "velocity": 99,
      "chip": "ym2612"
    },
    {
      "channel": 4,
      "note": 57,
      "start": 11.0414,
      "duration": 0.0948,
      "velocity": 1,
      "chip": "ym2612"
    },
    {
      "channel": 0,
      "note": 32,
      "start": 11.3893,
      "duration": 0.0831,
      "velocity": 127,
      "chip": "ym2612"
    },
    {
      "channel": 1,
      "note": 45,
      "start": 11.3897,
      "duration": 0.0829,
      "velocity": 113,
      "chip": "ym2612"
    },
    {
      "channel": 4,
      "note": 52,
      "start": 11.3905,
      "duration": 0.0828,
      "velocity": 1,
      "chip": "ym2612"
    },
    {
      "channel": 0,
      "note": 25,
      "start": 11.5578,
      "duration": 0.0832,
      "velocity": 127,
      "chip": "ym2612"
    },
    {
      "channel": 2,
      "note": 50,
      "start": 11.5585,
      "duration": 0.0829,
      "velocity": 99,
      "chip": "ym2612"
    },
    {
      "channel": 3,
      "note": 54,
      "start": 11.5588,
      "duration": 0.0828,
      "velocity": 99,
      "chip": "ym2612"
    },
    {
      "channel": 1,
      "note": 50,
      "start": 11.7257,
      "duration": 0.0841,
      "velocity": 113,
      "chip": "ym2612"
    },
    {
      "channel": 4,
      "note": 57,
      "start": 11.7265,
      "duration": 0.0839,
      "velocity": 1,
      "chip": "ym2612"
    },
    {
      "channel": 0,
      "note": 25,
      "start": 11.9118,
      "duration": 0.0832,
      "velocity": 127,
      "chip": "ym2612"
    },
    {
      "channel": 2,
      "note": 50,
      "start": 11.9123,
      "duration": 0.083,
      "velocity": 99,
      "chip": "ym2612"
    },
    {
      "channel": 3,
      "note": 54,
      "start": 11.9127,
      "duration": 0.0828,
      "velocity": 99,
      "chip": "ym2612"
    },
    {
      "channel": 0,
      "note": 32,
      "start": 12.0803,
      "duration": 0.0832,
      "velocity": 127,
      "chip": "ym2612"
    },
    {
      "channel": 1,
      "note": 45,
      "start": 12.0807,
      "duration": 0.0829,
      "velocity": 113,
      "chip": "ym2612"
    },
    {
      "channel": 2,
      "note": 50,
      "start": 12.081,
      "duration": 0.0828,
      "velocity": 99,
      "chip": "ym2612"
    },
    {
      "channel": 3,
      "note": 54,
      "start": 12.0813,
      "duration": 0.0827,
      "velocity": 99,
      "chip": "ym2612"
    },
    {
      "channel": 4,
      "note": 52,
      "start": 12.0816,
      "duration": 0.0826,
      "velocity": 1,
      "chip": "ym2612"
    },
    {
      "channel": 0,
      "note": 32,
      "start": 12.2489,
      "duration": 0.0831,
      "velocity": 127,
      "chip": "ym2612"
    },
    {
      "channel": 0,
      "note": 25,
      "start": 12.4174,
      "duration": 0.0832,
      "velocity": 127,
      "chip": "ym2612"
    },
    {
      "channel": 1,
      "note": 50,
      "start": 12.4178,
      "duration": 0.0829,
      "velocity": 113,
      "chip": "ym2612"
    },
    {
      "channel": 4,
      "note": 57,
      "start": 12.4185,
      "duration": 0.0829,
      "velocity": 1,
      "chip": "ym2612"
    },
    {
      "channel": 0,
      "note": 32,
      "start": 12.7713,
      "duration": 0.0832,
      "velocity": 127,
      "chip": "ym2612"
    },
    {
      "channel": 1,
      "note": 45,
      "start": 12.7716,
      "duration": 0.083,
      "velocity": 113,
      "chip": "ym2612"
    },
    {
      "channel": 4,
      "note": 52,
      "start": 12.7724,
      "duration": 0.0828,
      "velocity": 1,
      "chip": "ym2612"
    },
    {
      "channel": 0,
      "note": 25,
      "start": 12.9398,
      "duration": 0.0832,
      "velocity": 127,
      "chip": "ym2612"
    },
    {
      "channel": 2,
      "note": 50,
      "start": 12.9404,
      "duration": 0.083,
      "velocity": 99,
      "chip": "ym2612"
    },
    {
      "channel": 3,
      "note": 54,
      "start": 12.9408,
      "duration": 0.0828,
      "velocity": 99,
      "chip": "ym2612"
    },
    {
      "channel": 1,
      "note": 50,
      "start": 13.1077,
      "duration": 0.084,
      "velocity": 113,
      "chip": "ym2612"
    },
    {
      "channel": 2,
      "note": 50,
      "start": 13.108,
      "duration": 0.0839,
      "velocity": 99,
      "chip": "ym2612"
    },
    {
      "channel": 3,
      "note": 54,
      "start": 13.1083,
      "duration": 0.0838,
      "velocity": 99,
      "chip": "ym2612"
    },
    {
      "channel": 4,
      "note": 57,
      "start": 13.1087,
      "duration": 0.0837,
      "velocity": 1,
      "chip": "ym2612"
    },
    {
      "channel": 0,
      "note": 25,
      "start": 13.2938,
      "duration": 0.0832,
      "velocity": 127,
      "chip": "ym2612"
    },
    {
      "channel": 1,
      "note": 45,
      "start": 13.2941,
      "duration": 0.083,
      "velocity": 113,
      "chip": "ym2612"
    },
    {
      "channel": 4,
      "note": 52,
      "start": 13.2949,
      "duration": 0.0828,
      "velocity": 1,
      "chip": "ym2612"
    },
    {
      "channel": 0,
      "note": 32,
      "start": 13.4623,
      "duration": 0.0831,
      "velocity": 127,
      "chip": "ym2612"
    },
    {
      "channel": 1,
      "note": 50,
      "start": 13.4626,
      "duration": 0.083,
      "velocity": 113,
      "chip": "ym2612"
    },
    {
      "channel": 2,
      "note": 54,
      "start": 13.463,
      "duration": 0.0828,
      "velocity": 99,
      "chip": "ym2612"
    },
    {
      "channel": 3,
      "note": 57,
      "start": 13.4633,
      "duration": 0.0827,
      "velocity": 99,
      "chip": "ym2612"
    },
    {
      "channel": 4,
      "note": 57,
      "start": 13.4636,
      "duration": 0.0825,
      "velocity": 1,
      "chip": "ym2612"
    },
    {
      "channel": 0,
      "note": 32,
      "start": 13.6309,
      "duration": 0.0831,
      "velocity": 127,
      "chip": "ym2612"
    },
    {
      "channel": 1,
      "note": 45,
      "start": 13.6312,
      "duration": 0.0829,
      "velocity": 113,
      "chip": "ym2612"
    },
    {
      "channel": 4,
      "note": 52,
      "start": 13.6319,
      "duration": 0.0828,
      "velocity": 1,
      "chip": "ym2612"
    },
    {
      "channel": 0,
      "note": 25,
      "start": 13.7994,
      "duration": 0.0832,
      "velocity": 127,
      "chip": "ym2612"
    },
    {
      "channel": 1,
      "note": 52,
      "start": 13.7997,
      "duration": 0.083,
      "velocity": 113,
      "chip": "ym2612"
    },
    {
      "channel": 2,
      "note": 52,
      "start": 13.8,
      "duration": 0.0829,
      "velocity": 99,
      "chip": "ym2612"
    },
    {
      "channel": 3,
      "note": 56,
      "start": 13.8004,
      "duration": 0.0827,
      "velocity": 99,
      "chip": "ym2612"
    },
    {
      "channel": 4,
      "note": 54,
      "start": 13.8007,
      "duration": 0.0826,
      "velocity": 1,
      "chip": "ym2612"
    },
    {
      "channel": 0,
      "note": 32,
      "start": 14.1533,
      "duration": 0.0832,
      "velocity": 127,
      "chip": "ym2612"
    },
    {
      "channel": 1,
      "note": 47,
      "start": 14.1536,
      "duration": 0.083,
      "velocity": 113,
      "chip": "ym2612"
    },
    {
      "channel": 4,
      "note": 49,
      "start": 14.1545,
      "duration": 0.0828,
      "velocity": 1,
      "chip": "ym2612"
    },
    {
      "channel": 0,
      "note": 25,
      "start": 14.3218,
      "duration": 0.0832,
      "velocity": 127,
      "chip": "ym2612"
    },
    {
      "channel": 2,
      "note": 52,
      "start": 14.3224,
      "duration": 0.083,
      "velocity": 99,
      "chip": "ym2612"
    },
    {
      "channel": 3,
      "note": 56,
      "start": 14.3227,
      "duration": 0.0829,
      "velocity": 99,
      "chip": "ym2612"
    },
    {
      "channel": 1,
      "note": 52,
      "start": 14.4896,
      "duration": 0.0841,
      "velocity": 113,
      "chip": "ym2612"
    },
    {
      "channel": 4,
      "note": 54,
      "start": 14.4905,
      "duration": 0.084,
      "velocity": 1,
      "chip": "ym2612"
    },
    {
      "channel": 0,
      "note": 25,
      "start": 14.6589,
      "duration": 0.1,
      "velocity": 127,
      "chip": "ym2612"
    },
    {
      "channel": 2,
      "note": 52,
      "start": 14.6595,
      "duration": 0.0998,
      "velocity": 99,
      "chip": "ym2612"
    },
    {
      "channel": 3,
      "note": 56,
      "start": 14.6599,
      "duration": 0.0996,
      "velocity": 99,
      "chip": "ym2612"
    },
    {
      "channel": 0,
      "note": 32,
      "start": 14.8443,
      "duration": 0.0831,
      "velocity": 127,
      "chip": "ym2612"
    },
    {
      "channel": 1,
      "note": 47,
      "start": 14.8446,
      "duration": 0.083,
      "velocity": 113,
      "chip": "ym2612"
    },
    {
      "channel": 2,
      "note": 52,
      "start": 14.8449,
      "duration": 0.0829,
      "velocity": 99,
      "chip": "ym2612"
    },
    {
      "channel": 3,
      "note": 56,
      "start": 14.8453,
      "duration": 0.0827,
      "velocity": 99,
      "chip": "ym2612"
    },
    {
      "channel": 4,
      "note": 49,
      "start": 14.8456,
      "duration": 0.0826,
      "velocity": 1,
      "chip": "ym2612"
    },
    {
      "channel": 0,
      "note": 32,
      "start": 15.0128,
      "duration": 0.0832,
      "velocity": 127,
      "chip": "ym2612"
    },
    {
      "channel": 0,
      "note": 25,
      "start": 15.1814,
      "duration": 0.0832,
      "velocity": 127,
      "chip": "ym2612"
    },
    {
      "channel": 1,
      "note": 52,
      "start": 15.1817,
      "duration": 0.083,
      "velocity": 113,
      "chip": "ym2612"
    },
    {
      "channel": 4,
      "note": 54,
      "start": 15.1825,
      "duration": 0.0828,
      "velocity": 1,
      "chip": "ym2612"
    },
    {
      "channel": 0,
      "note": 32,
      "start": 15.5353,
      "duration": 0.0832,
      "velocity": 127,
      "chip": "ym2612"
    },
    {
      "channel": 1,
      "note": 47,
      "start": 15.5356,
      "duration": 0.0829,
      "velocity": 113,
      "chip": "ym2612"
    },
    {
      "channel": 4,
      "note": 49,
      "start": 15.5365,
      "duration": 0.0828,
      "velocity": 1,
      "chip": "ym2612"
    },
    {
      "channel": 0,
      "note": 25,
      "start": 15.7038,
      "duration": 0.0832,
      "velocity": 127,
      "chip": "ym2612"
    },
    {
      "channel": 2,
      "note": 52,
      "start": 15.7044,
      "duration": 0.0829,
      "velocity": 99,
      "chip": "ym2612"
    },
    {
      "channel": 3,
      "note": 56,
      "start": 15.7047,
      "duration": 0.0828,
      "velocity": 99,
      "chip": "ym2612"
    },
    {
      "channel": 0,
      "note": 25,
      "start": 15.8723,
      "duration": 0.0831,
      "velocity": 127,
      "chip": "ym2612"
    },
    {
      "channel": 1,
      "note": 52,
      "start": 15.8727,
      "duration": 0.083,
      "velocity": 113,
      "chip": "ym2612"
    },
    {
      "channel": 2,
      "note": 52,
      "start": 15.873,
      "duration": 0.0828,
      "velocity": 99,
      "chip": "ym2612"
    },
    {
      "channel": 3,
      "note": 56,
      "start": 15.8734,
      "duration": 0.0826,
      "velocity": 99,
      "chip": "ym2612"
    },
    {
      "channel": 4,
      "note": 54,
      "start": 15.8737,
      "duration": 0.0825,
      "velocity": 1,
      "chip": "ym2612"
    },
    {
      "channel": 0,
      "note": 32,
      "start": 16.0408,
      "duration": 0.0832,
      "velocity": 127,
      "chip": "ym2612"
    },
    {
      "channel": 1,
      "note": 47,
      "start": 16.0412,
      "duration": 0.083,
      "velocity": 113,
      "chip": "ym2612"
    },
    {
      "channel": 4,
      "note": 49,
      "start": 16.042,
      "duration": 0.0828,
      "velocity": 1,
      "chip": "ym2612"
    },
    {
      "channel": 0,
      "note": 32,
      "start": 16.2263,
      "duration": 0.0831,
      "velocity": 127,
      "chip": "ym2612"
    },
    {
      "channel": 1,
      "note": 52,
      "start": 16.2266,
      "duration": 0.083,
      "velocity": 113,
      "chip": "ym2612"
    },
    {
      "channel": 2,
      "note": 59,
      "start": 16.2269,
      "duration": 0.0828,
      "velocity": 99,
      "chip": "ym2612"
    },
    {
      "channel": 3,
      "note": 62,
      "start": 16.2273,
      "duration": 0.0826,
      "velocity": 99,
      "chip": "ym2612"
    },
    {
      "channel": 4,
      "note": 54,
      "start": 16.2276,
      "duration": 0.0825,
      "velocity": 1,
      "chip": "ym2612"
    },
    {
      "channel": 0,
      "note": 32,
      "start": 16.3948,
      "duration": 0.0832,
      "velocity": 127,
      "chip": "ym2612"
    },
    {
      "channel": 1,
      "note": 47,
      "start": 16.3951,
      "duration": 0.083,
      "velocity": 113,
      "chip": "ym2612"
    },
    {
      "channel": 4,
      "note": 49,
      "start": 16.3959,
      "duration": 0.0828,
      "velocity": 1,
      "chip": "ym2612"
    },
    {
      "channel": 0,
      "note": 25,
      "start": 16.5636,
      "duration": 0.0829,
      "velocity": 127,
      "chip": "ym2612"
    },
    {
      "channel": 1,
      "note": 57,
      "start": 16.5649,
      "duration": 0.0817,
      "velocity": 113,
      "chip": "ym2612"
    },
    {
      "channel": 2,
      "note": 57,
      "start": 16.5664,
      "duration": 0.0805,
      "velocity": 99,
      "chip": "ym2612"
    },
    {
      "channel": 3,
      "note": 61,
      "start": 16.5678,
      "duration": 0.0792,
      "velocity": 99,
      "chip": "ym2612"
    },
    {
      "channel": 4,
      "note": 76,
      "start": 16.5693,
      "duration": 0.0779,
      "velocity": 80,
      "chip": "ym2612"
    },
    {
      "channel": 0,
      "note": 32,
      "start": 16.9172,
      "duration": 0.0832,
      "velocity": 127,
      "chip": "ym2612"
    },
    {
      "channel": 1,
      "note": 52,
      "start": 16.9176,
      "duration": 0.0829,
      "velocity": 113,
      "chip": "ym2612"
    },
    {
      "channel": 4,
      "note": 76,
      "start": 16.9185,
      "duration": 0.0827,
      "velocity": 80,
      "chip": "ym2612"
    },
    {
      "channel": 0,
      "note": 25,
      "start": 17.0858,
      "duration": 0.0832,
      "velocity": 127,
      "chip": "ym2612"
    },
    {
      "channel": 2,
      "note": 57,
      "start": 17.0864,
      "duration": 0.083,
      "velocity": 99,
      "chip": "ym2612"
    },
    {
      "channel": 3,
      "note": 61,
      "start": 17.0867,
      "duration": 0.0828,
      "velocity": 99,
      "chip": "ym2612"
    },
    {
      "channel": 4,
      "note": 76,
      "start": 17.087,
      "duration": 0.0323,
      "velocity": 80,
      "chip": "ym2612"
    },
    {
      "channel": 1,
      "note": 57,
      "start": 17.2536,
      "duration": 0.0841,
      "velocity": 113,
      "chip": "ym2612"
    },
    {
      "channel": 4,
      "note": 76,
      "start": 17.2545,
      "duration": 0.8256,
      "velocity": 80,
      "chip": "ym2612"
    },
    {
      "channel": 0,
      "note": 25,
      "start": 17.4228,
      "duration": 0.0832,
      "velocity": 127,
      "chip": "ym2612"
    },
    {
      "channel": 2,
      "note": 57,
      "start": 17.4235,
      "duration": 0.0829,
      "velocity": 99,
      "chip": "ym2612"
    },
    {
      "channel": 3,
      "note": 61,
      "start": 17.4238,
      "duration": 0.0828,
      "velocity": 99,
      "chip": "ym2612"
    },
    {
      "channel": 0,
      "note": 32,
      "start": 17.6082,
      "duration": 0.0832,
      "velocity": 127,
      "chip": "ym2612"
    },
    {
      "channel": 1,
      "note": 52,
      "start": 17.6086,
      "duration": 0.0829,
      "velocity": 113,
      "chip": "ym2612"
    },
    {
      "channel": 2,
      "note": 57,
      "start": 17.6089,
      "duration": 0.0828,
      "velocity": 99,
      "chip": "ym2612"
    },
    {
      "channel": 3,
      "note": 61,
      "start": 17.6092,
      "duration": 0.0827,
      "velocity": 99,
      "chip": "ym2612"
    },
    {
      "channel": 0,
      "note": 32,
      "start": 17.7768,
      "duration": 0.0832,
      "velocity": 127,
      "chip": "ym2612"
    },
    {
      "channel": 0,
      "note": 25,
      "start": 17.9453,
      "duration": 0.0832,
      "velocity": 127,
      "chip": "ym2612"
    },
    {
      "channel": 1,
      "note": 57,
      "start": 17.9457,
      "duration": 0.083,
      "velocity": 113,
      "chip": "ym2612"
    },
    {
      "channel": 2,
      "note": 57,
      "start": 18.1134,
      "duration": 0.084,
      "velocity": 99,
      "chip": "ym2612"
    },
    {
      "channel": 3,
      "note": 61,
      "start": 18.1137,
      "duration": 0.0839,
      "velocity": 99,
      "chip": "ym2612"
    },
    {
      "channel": 4,
      "note": 69,
      "start": 18.1141,
      "duration": 0.0837,
      "velocity": 80,
      "chip": "ym2612"
    },
    {
      "channel": 0,
      "note": 32,
      "start": 18.2824,
      "duration": 0.1,
      "velocity": 127,
      "chip": "ym2612"
    },
    {
      "channel": 1,
      "note": 52,
      "start": 18.2828,
      "duration": 0.0998,
      "velocity": 113,
      "chip": "ym2612"
    },
    {
      "channel": 2,
      "note": 57,
      "start": 18.2831,
      "duration": 0.0996,
      "velocity": 99,
      "chip": "ym2612"
    },
    {
      "channel": 3,
      "note": 61,
      "start": 18.2834,
      "duration": 0.0995,
      "velocity": 99,
      "chip": "ym2612"
    },
    {
      "channel": 4,
      "note": 73,
      "start": 18.2837,
      "duration": 0.0994,
      "velocity": 80,
      "chip": "ym2612"
    },
    {
      "channel": 0,
      "note": 25,
      "start": 18.4678,
      "duration": 0.0832,
      "velocity": 127,
      "chip": "ym2612"
    },
    {
      "channel": 2,
      "note": 57,
      "start": 18.4683,
      "duration": 0.083,
      "velocity": 99,
      "chip": "ym2612"
    },
    {
      "channel": 3,
      "note": 61,
      "start": 18.4686,
      "duration": 0.0829,
      "velocity": 99,
      "chip": "ym2612"
    },
    {
      "channel": 4,
      "note": 69,
      "start": 18.469,
      "duration": 0.0827,
      "velocity": 80,
      "chip": "ym2612"
    },
    {
      "channel": 1,
      "note": 57,
      "start": 18.6356,
      "duration": 0.0841,
      "velocity": 113,
      "chip": "ym2612"
    },
    {
      "channel": 2,
      "note": 57,
      "start": 18.6359,
      "duration": 0.0839,
      "velocity": 99,
      "chip": "ym2612"
    },
    {
      "channel": 3,
      "note": 61,
      "start": 18.6363,
      "duration": 0.0838,
      "velocity": 99,
      "chip": "ym2612"
    },
    {
      "channel": 4,
      "note": 73,
      "start": 18.6366,
      "duration": 0.1344,
      "velocity": 80,
      "chip": "ym2612"
    },
    {
      "channel": 0,
      "note": 25,
      "start": 18.8048,
      "duration": 0.0832,
      "velocity": 127,
      "chip": "ym2612"
    },
    {
      "channel": 1,
      "note": 52,
      "start": 18.8051,
      "duration": 0.083,
      "velocity": 113,
      "chip": "ym2612"
    },
    {
      "channel": 0,
      "note": 32,
      "start": 18.9734,
      "duration": 0.1,
      "velocity": 127,
      "chip": "ym2612"
    },
    {
      "channel": 1,
      "note": 57,
      "start": 18.9737,
      "duration": 0.0999,
      "velocity": 113,
      "chip": "ym2612"
    },
    {
      "channel": 2,
      "note": 59,
      "start": 18.9741,
      "duration": 0.0997,
      "velocity": 99,
      "chip": "ym2612"
    },
    {
      "channel": 3,
      "note": 62,
      "start": 18.9744,
      "duration": 0.0995,
      "velocity": 99,
      "chip": "ym2612"
    },
    {
      "channel": 4,
      "note": 76,
      "start": 18.9747,
      "duration": 0.268,
      "velocity": 80,
      "chip": "ym2612"
    },
    {
      "channel": 0,
      "note": 32,
      "start": 19.1588,
      "duration": 0.0832,
      "velocity": 127,
      "chip": "ym2612"
    },
    {
      "channel": 1,
      "note": 52,
      "start": 19.1591,
      "duration": 0.0829,
      "velocity": 113,
      "chip": "ym2612"
    },
    {
      "channel": 0,
      "note": 25,
      "start": 19.3273,
      "duration": 0.0832,
      "velocity": 127,
      "chip": "ym2612"
    },
    {
      "channel": 1,
      "note": 54,
      "start": 19.3276,
      "duration": 0.083,
      "velocity": 113,
      "chip": "ym2612"
    },
    {
      "channel": 2,
      "note": 54,
      "start": 19.328,
      "duration": 0.0828,
      "velocity": 99,
      "chip": "ym2612"
    },
    {
      "channel": 3,
      "note": 57,
      "start": 19.3283,
      "duration": 0.0827,
      "velocity": 99,
      "chip": "ym2612"
    },
    {
      "channel": 4,
      "note": 78,
      "start": 19.3286,
      "duration": 0.0826,
      "velocity": 80,
      "chip": "ym2612"
    },
    {
      "channel": 0,
      "note": 32,
      "start": 19.6644,
      "duration": 0.1,
      "velocity": 127,
      "chip": "ym2612"
    },
    {
      "channel": 1,
      "note": 49,
      "start": 19.6647,
      "duration": 0.0999,
      "velocity": 113,
      "chip": "ym2612"
    },
    {
      "channel": 0,
      "note": 25,
      "start": 19.8498,
      "duration": 0.0832,
      "velocity": 127,
      "chip": "ym2612"
    },
    {
      "channel": 2,
      "note": 54,
      "start": 19.8503,
      "duration": 0.083,
      "velocity": 99,
      "chip": "ym2612"
    },
    {
      "channel": 3,
      "note": 57,
      "start": 19.8507,
      "duration": 0.0828,
      "velocity": 99,
      "chip": "ym2612"
    },
    {
      "channel": 4,
      "note": 78,
      "start": 19.851,
      "duration": 0.0827,
      "velocity": 80,
      "chip": "ym2612"
    },
    {
      "channel": 1,
      "note": 54,
      "start": 20.0176,
      "duration": 0.0841,
      "velocity": 113,
      "chip": "ym2612"
    },
    {
      "channel": 4,
      "note": 78,
      "start": 20.0184,
      "duration": 0.8256,
      "velocity": 80,
      "chip": "ym2612"
    },
    {
      "channel": 0,
      "note": 25,
      "start": 20.1868,
      "duration": 0.0832,
      "velocity": 127,
      "chip": "ym2612"
    },
    {
      "channel": 2,
      "note": 54,
      "start": 20.1874,
      "duration": 0.0829,
      "velocity": 99,
      "chip": "ym2612"
    },
    {
      "channel": 3,
      "note": 57,
      "start": 20.1878,
      "duration": 0.0827,
      "velocity": 99,
      "chip": "ym2612"
    },
    {
      "channel": 0,
      "note": 32,
      "start": 20.3554,
      "duration": 0.0831,
      "velocity": 127,
      "chip": "ym2612"
    },
    {
      "channel": 1,
      "note": 49,
      "start": 20.3557,
      "duration": 0.0829,
      "velocity": 113,
      "chip": "ym2612"
    },
    {
      "channel": 2,
      "note": 54,
      "start": 20.3561,
      "duration": 0.0828,
      "velocity": 99,
      "chip": "ym2612"
    },
    {
      "channel": 3,
      "note": 57,
      "start": 20.3564,
      "duration": 0.0827,
      "velocity": 99,
      "chip": "ym2612"
    },
    {
      "channel": 0,
      "note": 32,
      "start": 20.5407,
      "duration": 0.0832,
      "velocity": 127,
      "chip": "ym2612"
    },
    {
      "channel": 0,
      "note": 25,
      "start": 20.7093,
      "duration": 0.0831,
      "velocity": 127,
      "chip": "ym2612"
    },
    {
      "channel": 1,
      "note": 54,
      "start": 20.7096,
      "duration": 0.083,
      "velocity": 113,
      "chip": "ym2612"
    },
    {
      "channel": 2,
      "note": 54,
      "start": 20.8773,
      "duration": 0.0841,
      "velocity": 99,
      "chip": "ym2612"
    },
    {
      "channel": 3,
      "note": 57,
      "start": 20.8777,
      "duration": 0.0839,
      "velocity": 99,
      "chip": "ym2612"
    },
    {
      "channel": 0,
      "note": 32,
      "start": 21.0464,
      "duration": 0.0832,
      "velocity": 127,
      "chip": "ym2612"
    },
    {
      "channel": 1,
      "note": 49,
      "start": 21.0467,
      "duration": 0.0829,
      "velocity": 113,
      "chip": "ym2612"
    },
    {
      "channel": 2,
      "note": 54,
      "start": 21.047,
      "duration": 0.0828,
      "velocity": 99,
      "chip": "ym2612"
    },
    {
      "channel": 3,
      "note": 57,
      "start": 21.0473,
      "duration": 0.0827,
      "velocity": 99,
      "chip": "ym2612"
    },
    {
      "channel": 4,
      "note": 76,
      "start": 21.0477,
      "duration": 0.2176,
      "velocity": 80,
      "chip": "ym2612"
    },
    {
      "channel": 0,
      "note": 25,
      "start": 21.2317,
      "duration": 0.0832,
      "velocity": 127,
      "chip": "ym2612"
    },
    {
      "channel": 2,
      "note": 54,
      "start": 21.2323,
      "duration": 0.0829,
      "velocity": 99,
      "chip": "ym2612"
    },
    {
      "channel": 3,
      "note": 57,
      "start": 21.2326,
      "duration": 0.0828,
      "velocity": 99,
      "chip": "ym2612"
    },
    {
      "channel": 0,
      "note": 25,
      "start": 21.4002,
      "duration": 0.0832,
      "velocity": 127,
      "chip": "ym2612"
    },
    {
      "channel": 1,
      "note": 54,
      "start": 21.4006,
      "duration": 0.0829,
      "velocity": 113,
      "chip": "ym2612"
    },
    {
      "channel": 2,
      "note": 54,
      "start": 21.401,
      "duration": 0.0828,
      "velocity": 99,
      "chip": "ym2612"
    },
    {
      "channel": 3,
      "note": 57,
      "start": 21.4013,
      "duration": 0.0827,
      "velocity": 99,
      "chip": "ym2612"
    },
    {
      "channel": 4,
      "note": 78,
      "start": 21.4016,
      "duration": 0.1681,
      "velocity": 80,
      "chip": "ym2612"
    },
    {
      "channel": 0,
      "note": 32,
      "start": 21.5688,
      "duration": 0.0832,
      "velocity": 127,
      "chip": "ym2612"
    },
    {
      "channel": 1,
      "note": 49,
      "start": 21.5691,
      "duration": 0.083,
      "velocity": 113,
      "chip": "ym2612"
    },
    {
      "channel": 0,
      "note": 32,
      "start": 21.7373,
      "duration": 0.0831,
      "velocity": 127,
      "chip": "ym2612"
    },
    {
      "channel": 1,
      "note": 54,
      "start": 21.7377,
      "duration": 0.083,
      "velocity": 113,
      "chip": "ym2612"
    },
    {
      "channel": 2,
      "note": 59,
      "start": 21.738,
      "duration": 0.0829,
      "velocity": 99,
      "chip": "ym2612"
    },
    {
      "channel": 3,
      "note": 62,
      "start": 21.7384,
      "duration": 0.0826,
      "velocity": 99,
      "chip": "ym2612"
    },
    {
      "channel": 4,
      "note": 80,
      "start": 21.7387,
      "duration": 0.185,
      "velocity": 80,
      "chip": "ym2612"
    },
    {
      "channel": 0,
      "note": 32,
      "start": 21.9227,
      "duration": 0.0831,
      "velocity": 127,
      "chip": "ym2612"
    },
    {
      "channel": 1,
      "note": 49,
      "start": 21.923,
      "duration": 0.083,
      "velocity": 113,
      "chip": "ym2612"
    },
    {
      "channel": 0,
      "note": 25,
      "start": 22.0915,
      "duration": 0.0829,
      "velocity": 127,
      "chip": "ym2612"
    },
    {
      "channel": 1,
      "note": 50,
      "start": 22.0929,
      "duration": 0.0817,
      "velocity": 113,
      "chip": "ym2612"
    },
    {
      "channel": 2,
      "note": 50,
      "start": 22.0943,
      "duration": 0.0805,
      "velocity": 99,
      "chip": "ym2612"
    },
    {
      "channel": 3,
      "note": 54,
      "start": 22.0957,
      "duration": 0.0793,
      "velocity": 99,
      "chip": "ym2612"
    },
    {
      "channel": 4,
      "note": 86,
      "start": 22.0972,
      "duration": 0.0779,
      "velocity": 80,
      "chip": "ym2612"
    },
    {
      "channel": 0,
      "note": 32,
      "start": 22.4284,
      "duration": 0.0832,
      "velocity": 127,
      "chip": "ym2612"
    },
    {
      "channel": 1,
      "note": 45,
      "start": 22.4287,
      "duration": 0.083,
      "velocity": 113,
      "chip": "ym2612"
    },
    {
      "channel": 4,
      "note": 86,
      "start": 22.4295,
      "duration": 0.0492,
      "velocity": 80,
      "chip": "ym2612"
    },
    {
      "channel": 0,
      "note": 25,
      "start": 22.5969,
      "duration": 0.1,
      "velocity": 127,
      "chip": "ym2612"
    },
    {
      "channel": 2,
      "note": 50,
      "start": 22.5975,
      "duration": 0.0999,
      "velocity": 99,
      "chip": "ym2612"
    },
    {
      "channel": 3,
      "note": 54,
      "start": 22.5978,
      "duration": 0.0997,
      "velocity": 99,
      "chip": "ym2612"
    },
    {
      "channel": 4,
      "note": 86,
      "start": 22.5982,
      "duration": 0.0491,
      "velocity": 80,
      "chip": "ym2612"
    },
    {
      "channel": 1,
      "note": 50,
      "start": 22.7816,
      "duration": 0.0841,
      "velocity": 113,
      "chip": "ym2612"
    },
    {
      "channel": 4,
      "note": 86,
      "start": 22.7824,
      "duration": 0.7244,
      "velocity": 80,
      "chip": "ym2612"
    },
    {
      "channel": 0,
      "note": 25,
      "start": 22.9508,
      "duration": 0.0831,
      "velocity": 127,
      "chip": "ym2612"
    },
    {
      "channel": 2,
      "note": 50,
      "start": 22.9514,
      "duration": 0.0829,
      "velocity": 99,
      "chip": "ym2612"
    },
    {
      "channel": 3,
      "note": 54,
      "start": 22.9517,
      "duration": 0.0828,
      "velocity": 99,
      "chip": "ym2612"
    },
    {
      "channel": 0,
      "note": 32,
      "start": 23.1193,
      "duration": 0.0832,
      "velocity": 127,
      "chip": "ym2612"
    },
    {
      "channel": 1,
      "note": 45,
      "start": 23.1197,
      "duration": 0.083,
      "velocity": 113,
      "chip": "ym2612"
    },
    {
      "channel": 2,
      "note": 50,
      "start": 23.12,
      "duration": 0.0829,
      "velocity": 99,
      "chip": "ym2612"
    },
    {
      "channel": 3,
      "note": 54,
      "start": 23.1203,
      "duration": 0.0827,
      "velocity": 99,
      "chip": "ym2612"
    },
    {
      "channel": 0,
      "note": 32,
      "start": 23.2878,
      "duration": 0.1,
      "velocity": 127,
      "chip": "ym2612"
    },
    {
      "channel": 0,
      "note": 25,
      "start": 23.4732,
      "duration": 0.0832,
      "velocity": 127,
      "chip": "ym2612"
    },
    {
      "channel": 1,
      "note": 50,
      "start": 23.4736,
      "duration": 0.083,
      "velocity": 113,
      "chip": "ym2612"
    },
    {
      "channel": 0,
      "note": 32,
      "start": 23.8103,
      "duration": 0.0831,
      "velocity": 127,
      "chip": "ym2612"
    },
    {
      "channel": 1,
      "note": 45,
      "start": 23.8107,
      "duration": 0.083,
      "velocity": 113,
      "chip": "ym2612"
    },
    {
      "channel": 4,
      "note": 85,
      "start": 23.8115,
      "duration": 0.0828,
      "velocity": 80,
      "chip": "ym2612"
    },
    {
      "channel": 0,
      "note": 25,
      "start": 23.9788,
      "duration": 0.1001,
      "velocity": 127,
      "chip": "ym2612"
    },
    {
      "channel": 2,
      "note": 50,
      "start": 23.9795,
      "duration": 0.0998,
      "velocity": 99,
      "chip": "ym2612"
    },
    {
      "channel": 3,
      "note": 54,
      "start": 23.9798,
      "duration": 0.0997,
      "velocity": 99,
      "chip": "ym2612"
    },
    {
      "channel": 1,
      "note": 50,
      "start": 24.1636,
      "duration": 0.0841,
      "velocity": 113,
      "chip": "ym2612"
    },
    {
      "channel": 2,
      "note": 50,
      "start": 24.1639,
      "duration": 0.0839,
      "velocity": 99,
      "chip": "ym2612"
    },
    {
      "channel": 3,
      "note": 54,
      "start": 24.1642,
      "duration": 0.0838,
      "velocity": 99,
      "chip": "ym2612"
    },
    {
      "channel": 4,
      "note": 86,
      "start": 24.1646,
      "duration": 0.0836,
      "velocity": 80,
      "chip": "ym2612"
    },
    {
      "channel": 0,
      "note": 25,
      "start": 24.3328,
      "duration": 0.0831,
      "velocity": 127,
      "chip": "ym2612"
    },
    {
      "channel": 1,
      "note": 45,
      "start": 24.3331,
      "duration": 0.083,
      "velocity": 113,
      "chip": "ym2612"
    },
    {
      "channel": 0,
      "note": 32,
      "start": 24.5013,
      "duration": 0.0832,
      "velocity": 127,
      "chip": "ym2612"
    },
    {
      "channel": 1,
      "note": 50,
      "start": 24.5016,
      "duration": 0.083,
      "velocity": 113,
      "chip": "ym2612"
    },
    {
      "channel": 2,
      "note": 54,
      "start": 24.502,
      "duration": 0.0828,
      "velocity": 99,
      "chip": "ym2612"
    },
    {
      "channel": 3,
      "note": 57,
      "start": 24.5023,
      "duration": 0.0827,
      "velocity": 99,
      "chip": "ym2612"
    },
    {
      "channel": 4,
      "note": 88,
      "start": 24.5027,
      "duration": 0.0825,
      "velocity": 80,
      "chip": "ym2612"
    },
    {
      "channel": 0,
      "note": 32,
      "start": 24.6698,
      "duration": 0.0832,
      "velocity": 127,
      "chip": "ym2612"
    },
    {
      "channel": 1,
      "note": 45,
      "start": 24.6702,
      "duration": 0.083,
      "velocity": 113,
      "chip": "ym2612"
    },
    {
      "channel": 0,
      "note": 25,
      "start": 24.8552,
      "duration": 0.0832,
      "velocity": 127,
      "chip": "ym2612"
    },
    {
      "channel": 1,
      "note": 52,
      "start": 24.8555,
      "duration": 0.083,
      "velocity": 113,
      "chip": "ym2612"
    },
    {
      "channel": 2,
      "note": 52,
      "start": 24.8559,
      "duration": 0.0828,
      "velocity": 99,
      "chip": "ym2612"
    },
    {
      "channel": 3,
      "note": 56,
      "start": 24.8562,
      "duration": 0.0827,
      "velocity": 99,
      "chip": "ym2612"
    },
    {
      "channel": 4,
      "note": 90,
      "start": 24.8566,
      "duration": 0.0825,
      "velocity": 80,
      "chip": "ym2612"
    },
    {
      "channel": 0,
      "note": 32,
      "start": 25.1923,
      "duration": 0.0831,
      "velocity": 127,
      "chip": "ym2612"
    },
    {
      "channel": 1,
      "note": 47,
      "start": 25.1927,
      "duration": 0.0829,
      "velocity": 113,
      "chip": "ym2612"
    },
    {
      "channel": 0,
      "note": 25,
      "start": 25.3608,
      "duration": 0.0832,
      "velocity": 127,
      "chip": "ym2612"
    },
    {
      "channel": 2,
      "note": 52,
      "start": 25.3614,
      "duration": 0.083,
      "velocity": 99,
      "chip": "ym2612"
    },
    {
      "channel": 3,
      "note": 56,
      "start": 25.3618,
      "duration": 0.0828,
      "velocity": 99,
      "chip": "ym2612"
    },
    {
      "channel": 4,
      "note": 88,
      "start": 25.3621,
      "duration": 0.0492,
      "velocity": 80,
      "chip": "ym2612"
    },
    {
      "channel": 1,
      "note": 52,
      "start": 25.5456,
      "duration": 0.0841,
      "velocity": 113,
      "chip": "ym2612"
    },
    {
      "channel": 4,
      "note": 88,
      "start": 25.5464,
      "duration": 1.1626,
      "velocity": 80,
      "chip": "ym2612"
    },
    {
      "channel": 0,
      "note": 25,
      "start": 25.7148,
      "duration": 0.0832,
      "velocity": 127,
      "chip": "ym2612"
    },
    {
      "channel": 2,
      "note": 52,
      "start": 25.7153,
      "duration": 0.0829,
      "velocity": 99,
      "chip": "ym2612"
    },
    {
      "channel": 3,
      "note": 56,
      "start": 25.7157,
      "duration": 0.0828,
      "velocity": 99,
      "chip": "ym2612"
    },
    {
      "channel": 0,
      "note": 32,
      "start": 25.8833,
      "duration": 0.0832,
      "velocity": 127,
      "chip": "ym2612"
    },
    {
      "channel": 1,
      "note": 47,
      "start": 25.8837,
      "duration": 0.0829,
      "velocity": 113,
      "chip": "ym2612"
    },
    {
      "channel": 2,
      "note": 52,
      "start": 25.884,
      "duration": 0.0828,
      "velocity": 99,
      "chip": "ym2612"
    },
    {
      "channel": 3,
      "note": 56,
      "start": 25.8843,
      "duration": 0.0827,
      "velocity": 99,
      "chip": "ym2612"
    },
    {
      "channel": 0,
      "note": 32,
      "start": 26.0519,
      "duration": 0.0831,
      "velocity": 127,
      "chip": "ym2612"
    },
    {
      "channel": 0,
      "note": 25,
      "start": 26.2372,
      "duration": 0.0832,
      "velocity": 127,
      "chip": "ym2612"
    },
    {
      "channel": 1,
      "note": 52,
      "start": 26.2375,
      "duration": 0.083,
      "velocity": 113,
      "chip": "ym2612"
    },
    {
      "channel": 0,
      "note": 32,
      "start": 26.5743,
      "duration": 0.0831,
      "velocity": 127,
      "chip": "ym2612"
    },
    {
      "channel": 1,
      "note": 50,
      "start": 26.5746,
      "duration": 0.083,
      "velocity": 113,
      "chip": "ym2612"
    },
    {
      "channel": 0,
      "note": 25,
      "start": 26.7428,
      "duration": 0.0832,
      "velocity": 127,
      "chip": "ym2612"
    },
    {
      "channel": 2,
      "note": 52,
      "start": 26.7434,
      "duration": 0.083,
      "velocity": 99,
      "chip": "ym2612"
    },
    {
      "channel": 3,
      "note": 56,
      "start": 26.7437,
      "duration": 0.0828,
      "velocity": 99,
      "chip": "ym2612"
    },
    {
      "channel": 0,
      "note": 25,
      "start": 26.9113,
      "duration": 0.1,
      "velocity": 127,
      "chip": "ym2612"
    },
    {
      "channel": 1,
      "note": 49,
      "start": 26.9117,
      "duration": 0.0998,
      "velocity": 113,
      "chip": "ym2612"
    },
    {
      "channel": 2,
      "note": 52,
      "start": 26.912,
      "duration": 0.0997,
      "velocity": 99,
      "chip": "ym2612"
    },
    {
      "channel": 3,
      "note": 56,
      "start": 26.9123,
      "duration": 0.0996,
      "velocity": 99,
      "chip": "ym2612"
    },
    {
      "channel": 0,
      "note": 32,
      "start": 27.0968,
      "duration": 0.0832,
      "velocity": 127,
      "chip": "ym2612"
    },
    {
      "channel": 0,
      "note": 32,
      "start": 27.2653,
      "duration": 0.0832,
      "velocity": 127,
      "chip": "ym2612"
    },
    {
      "channel": 1,
      "note": 47,
      "start": 27.2656,
      "duration": 0.083,
      "velocity": 113,
      "chip": "ym2612"
    },
    {
      "channel": 2,
      "note": 59,
      "start": 27.266,
      "duration": 0.0828,
      "velocity": 99,
      "chip": "ym2612"
    },
    {
      "channel": 3,
      "note": 62,
      "start": 27.2663,
      "duration": 0.0827,
      "velocity": 99,
      "chip": "ym2612"
    },
    {
      "channel": 0,
      "note": 32,
      "start": 27.4338,
      "duration": 0.0832,
      "velocity": 127,
      "chip": "ym2612"
    },
    {
      "channel": 0,
      "note": 25,
      "start": 27.6025,
      "duration": 0.0998,
      "velocity": 127,
      "chip": "ym2612"
    },
    {
      "channel": 1,
      "note": 57,
      "start": 27.6039,
      "duration": 0.0986,
      "velocity": 113,
      "chip": "ym2612"
    },
    {
      "channel": 2,
      "note": 57,
      "start": 27.6054,
      "duration": 0.0973,
      "velocity": 99,
      "chip": "ym2612"
    },
    {
      "channel": 3,
      "note": 61,
      "start": 27.6068,
      "duration": 0.0961,
      "velocity": 99,
      "chip": "ym2612"
    },
    {
      "channel": 4,
      "note": 57,
      "start": 27.6083,
      "duration": 0.0949,
      "velocity": 1,
      "chip": "ym2612"
    },
    {
      "channel": 0,
      "note": 32,
      "start": 27.9563,
      "duration": 0.0831,
      "velocity": 127,
      "chip": "ym2612"
    },
    {
      "channel": 1,
      "note": 52,
      "start": 27.9566,
      "duration": 0.0829,
      "velocity": 113,
      "chip": "ym2612"
    },
    {
      "channel": 4,
      "note": 52,
      "start": 27.9574,
      "duration": 0.0828,
      "velocity": 1,
      "chip": "ym2612"
    },
    {
      "channel": 0,
      "note": 25,
      "start": 28.1248,
      "duration": 0.0832,
      "velocity": 127,
      "chip": "ym2612"
    },
    {
      "channel": 2,
      "note": 57,
      "start": 28.1254,
      "duration": 0.083,
      "velocity": 99,
      "chip": "ym2612"
    },
    {
      "channel": 3,
      "note": 61,
      "start": 28.1257,
      "duration": 0.0829,
      "velocity": 99,
      "chip": "ym2612"
    },
    {
      "channel": 1,
      "note": 57,
      "start": 28.2926,
      "duration": 0.101,
      "velocity": 113,
      "chip": "ym2612"
    },
    {
      "channel": 4,
      "note": 57,
      "start": 28.2934,
      "duration": 0.1008,
      "velocity": 1,
      "chip": "ym2612"
    },
    {
      "channel": 0,
      "note": 25,
      "start": 28.4788,
      "duration": 0.0832,
      "velocity": 127,
      "chip": "ym2612"
    },
    {
      "channel": 2,
      "note": 57,
      "start": 28.4793,
      "duration": 0.083,
      "velocity": 99,
      "chip": "ym2612"
    },
    {
      "channel": 3,
      "note": 61,
      "start": 28.4796,
      "duration": 0.0828,
      "velocity": 99,
      "chip": "ym2612"
    },
    {
      "channel": 0,
      "note": 32,
      "start": 28.6473,
      "duration": 0.0831,
      "velocity": 127,
      "chip": "ym2612"
    },
    {
      "channel": 1,
      "note": 52,
      "start": 28.6476,
      "duration": 0.083,
      "velocity": 113,
      "chip": "ym2612"
    },
    {
      "channel": 2,
      "note": 57,
      "start": 28.6479,
      "duration": 0.0829,
      "velocity": 99,
      "chip": "ym2612"
    },
    {
      "channel": 3,
      "note": 61,
      "start": 28.6482,
      "duration": 0.0827,
      "velocity": 99,
      "chip": "ym2612"
    },
    {
      "channel": 4,
      "note": 52,
      "start": 28.6486,
      "duration": 0.0825,
      "velocity": 1,
      "chip": "ym2612"
    },
    {
      "channel": 0,
      "note": 32,
      "start": 28.8158,
      "duration": 0.0831,
      "velocity": 127,
      "chip": "ym2612"
    },
    {
      "channel": 0,
      "note": 25,
      "start": 28.9844,
      "duration": 0.0832,
      "velocity": 127,
      "chip": "ym2612"
    },
    {
      "channel": 1,
      "note": 57,
      "start": 28.9847,
      "duration": 0.083,
      "velocity": 113,
      "chip": "ym2612"
    },
    {
      "channel": 4,
      "note": 57,
      "start": 28.9855,
      "duration": 0.0828,
      "velocity": 1,
      "chip": "ym2612"
    },
    {
      "channel": 2,
      "note": 57,
      "start": 29.1693,
      "duration": 0.0841,
      "velocity": 99,
      "chip": "ym2612"
    },
    {
      "channel": 3,
      "note": 61,
      "start": 29.1696,
      "duration": 0.0839,
      "velocity": 99,
      "chip": "ym2612"
    },
    {
      "channel": 0,
      "note": 32,
      "start": 29.3382,
      "duration": 0.0832,
      "velocity": 127,
      "chip": "ym2612"
    },
    {
      "channel": 1,
      "note": 52,
      "start": 29.3386,
      "duration": 0.0829,
      "velocity": 113,
      "chip": "ym2612"
    },
    {
      "channel": 2,
      "note": 57,
      "start": 29.3389,
      "duration": 0.0828,
      "velocity": 99,
      "chip": "ym2612"
    },
    {
      "channel": 3,
      "note": 61,
      "start": 29.3393,
      "duration": 0.0827,
      "velocity": 99,
      "chip": "ym2612"
    },
    {
      "channel": 4,
      "note": 52,
      "start": 29.3396,
      "duration": 0.0825,
      "velocity": 1,
      "chip": "ym2612"
    },
    {
      "channel": 0,
      "note": 25,
      "start": 29.5068,
      "duration": 0.0832,
      "velocity": 127,
      "chip": "ym2612"
    },
    {
      "channel": 2,
      "note": 57,
      "start": 29.5073,
      "duration": 0.083,
      "velocity": 99,
      "chip": "ym2612"
    },
    {
      "channel": 3,
      "note": 61,
      "start": 29.5077,
      "duration": 0.0828,
      "velocity": 99,
      "chip": "ym2612"
    },
    {
      "channel": 1,
      "note": 57,
      "start": 29.6746,
      "duration": 0.0841,
      "velocity": 113,
      "chip": "ym2612"
    },
    {
      "channel": 2,
      "note": 57,
      "start": 29.6749,
      "duration": 0.084,
      "velocity": 99,
      "chip": "ym2612"
    },
    {
      "channel": 3,
      "note": 61,
      "start": 29.6753,
      "duration": 0.0838,
      "velocity": 99,
      "chip": "ym2612"
    },
    {
      "channel": 4,
      "note": 57,
      "start": 29.6756,
      "duration": 0.0836,
      "velocity": 1,
      "chip": "ym2612"
    },
    {
      "channel": 0,
      "note": 25,
      "start": 29.8607,
      "duration": 0.0832,
      "velocity": 127,
      "chip": "ym2612"
    },
    {
      "channel": 1,
      "note": 52,
      "start": 29.861,
      "duration": 0.083,
      "velocity": 113,
      "chip": "ym2612"
    },
    {
      "channel": 4,
      "note": 52,
      "start": 29.8618,
      "duration": 0.0828,
      "velocity": 1,
      "chip": "ym2612"
    },
    {
      "channel": 0,
      "note": 32,
      "start": 30.0293,
      "duration": 0.0831,
      "velocity": 127,
      "chip": "ym2612"
    },
    {
      "channel": 1,
      "note": 57,
      "start": 30.0296,
      "duration": 0.0829,
      "velocity": 113,
      "chip": "ym2612"
    },
    {
      "channel": 2,
      "note": 59,
      "start": 30.0299,
      "duration": 0.0828,
      "velocity": 99,
      "chip": "ym2612"
    },
    {
      "channel": 3,
      "note": 62,
      "start": 30.0303,
      "duration": 0.0827,
      "velocity": 99,
      "chip": "ym2612"
    },
    {
      "channel": 4,
      "note": 57,
      "start": 30.0306,
      "duration": 0.0825,
      "velocity": 1,
      "chip": "ym2612"
    },
    {
      "channel": 0,
      "note": 32,
      "start": 30.1978,
      "duration": 0.0832,
      "velocity": 127,
      "chip": "ym2612"
    },
    {
      "channel": 1,
      "note": 52,
      "start": 30.1981,
      "duration": 0.083,
      "velocity": 113,
      "chip": "ym2612"
    },
    {
      "channel": 4,
      "note": 52,
      "start": 30.1989,
      "duration": 0.0828,
      "velocity": 1,
      "chip": "ym2612"
    },
    {
      "channel": 0,
      "note": 25,
      "start": 30.3663,
      "duration": 0.0832,
      "velocity": 127,
      "chip": "ym2612"
    },
    {
      "channel": 1,
      "note": 54,
      "start": 30.3666,
      "duration": 0.0831,
      "velocity": 113,
      "chip": "ym2612"
    },
    {
      "channel": 2,
      "note": 54,
      "start": 30.367,
      "duration": 0.0828,
      "velocity": 99,
      "chip": "ym2612"
    },
    {
      "channel": 3,
      "note": 57,
      "start": 30.3673,
      "duration": 0.0827,
      "velocity": 99,
      "chip": "ym2612"
    },
    {
      "channel": 4,
      "note": 54,
      "start": 30.3677,
      "duration": 0.0825,
      "velocity": 1,
      "chip": "ym2612"
    },
    {
      "channel": 0,
      "note": 32,
      "start": 30.7202,
      "duration": 0.0832,
      "velocity": 127,
      "chip": "ym2612"
    },
    {
      "channel": 1,
      "note": 49,
      "start": 30.7206,
      "duration": 0.0829,
      "velocity": 113,
      "chip": "ym2612"
    },
    {
      "channel": 4,
      "note": 49,
      "start": 30.7215,
      "duration": 0.0827,
      "velocity": 1,
      "chip": "ym2612"
    },
    {
      "channel": 0,
      "note": 25,
      "start": 30.8888,
      "duration": 0.0832,
      "velocity": 127,
      "chip": "ym2612"
    },
    {
      "channel": 2,
      "note": 54,
      "start": 30.8894,
      "duration": 0.0829,
      "velocity": 99,
      "chip": "ym2612"
    },
    {
      "channel": 3,
      "note": 57,
      "start": 30.8897,
      "duration": 0.0828,
      "velocity": 99,
      "chip": "ym2612"
    },
    {
      "channel": 1,
      "note": 54,
      "start": 31.0566,
      "duration": 0.0841,
      "velocity": 113,
      "chip": "ym2612"
    },
    {
      "channel": 4,
      "note": 54,
      "start": 31.0574,
      "duration": 0.0839,
      "velocity": 1,
      "chip": "ym2612"
    },
    {
      "channel": 0,
      "note": 25,
      "start": 31.2258,
      "duration": 0.1,
      "velocity": 127,
      "chip": "ym2612"
    },
    {
      "channel": 2,
      "note": 54,
      "start": 31.2265,
      "duration": 0.0998,
      "velocity": 99,
      "chip": "ym2612"
    },
    {
      "channel": 3,
      "note": 57,
      "start": 31.2268,
      "duration": 0.0996,
      "velocity": 99,
      "chip": "ym2612"
    },
    {
      "channel": 0,
      "note": 32,
      "start": 31.4112,
      "duration": 0.0832,
      "velocity": 127,
      "chip": "ym2612"
    },
    {
      "channel": 1,
      "note": 49,
      "start": 31.4116,
      "duration": 0.0829,
      "velocity": 113,
      "chip": "ym2612"
    },
    {
      "channel": 2,
      "note": 54,
      "start": 31.4119,
      "duration": 0.0828,
      "velocity": 99,
      "chip": "ym2612"
    },
    {
      "channel": 3,
      "note": 57,
      "start": 31.4122,
      "duration": 0.0827,
      "velocity": 99,
      "chip": "ym2612"
    },
    {
      "channel": 4,
      "note": 49,
      "start": 31.4125,
      "duration": 0.0826,
      "velocity": 1,
      "chip": "ym2612"
    },
    {
      "channel": 0,
      "note": 32,
      "start": 31.5798,
      "duration": 0.0832,
      "velocity": 127,
      "chip": "ym2612"
    },
    {
      "channel": 0,
      "note": 25,
      "start": 31.7483,
      "duration": 0.0832,
      "velocity": 127,
      "chip": "ym2612"
    },
    {
      "channel": 1,
      "note": 54,
      "start": 31.7487,
      "duration": 0.0829,
      "velocity": 113,
      "chip": "ym2612"
    },
    {
      "channel": 4,
      "note": 54,
      "start": 31.7494,
      "duration": 0.0829,
      "velocity": 1,
      "chip": "ym2612"
    },
    {
      "channel": 2,
      "note": 54,
      "start": 31.9163,
      "duration": 0.101,
      "velocity": 99,
      "chip": "ym2612"
    },
    {
      "channel": 3,
      "note": 57,
      "start": 31.9167,
      "duration": 0.1008,
      "velocity": 99,
      "chip": "ym2612"
    },
    {
      "channel": 0,
      "note": 32,
      "start": 32.1022,
      "duration": 0.0832,
      "velocity": 127,
      "chip": "ym2612"
    },
    {
      "channel": 1,
      "note": 49,
      "start": 32.1025,
      "duration": 0.083,
      "velocity": 113,
      "chip": "ym2612"
    },
    {
      "channel": 2,
      "note": 54,
      "start": 32.1029,
      "duration": 0.0828,
      "velocity": 99,
      "chip": "ym2612"
    },
    {
      "channel": 3,
      "note": 57,
      "start": 32.1032,
      "duration": 0.0826,
      "velocity": 99,
      "chip": "ym2612"
    },
    {
      "channel": 4,
      "note": 49,
      "start": 32.1036,
      "duration": 0.0825,
      "velocity": 1,
      "chip": "ym2612"
    },
    {
      "channel": 0,
      "note": 25,
      "start": 32.2707,
      "duration": 0.0831,
      "velocity": 127,
      "chip": "ym2612"
    },
    {
      "channel": 2,
      "note": 54,
      "start": 32.2713,
      "duration": 0.083,
      "velocity": 99,
      "chip": "ym2612"
    },
    {
      "channel": 3,
      "note": 57,
      "start": 32.2716,
      "duration": 0.0828,
      "velocity": 99,
      "chip": "ym2612"
    },
    {
      "channel": 0,
      "note": 25,
      "start": 32.4393,
      "duration": 0.0832,
      "velocity": 127,
      "chip": "ym2612"
    },
    {
      "channel": 1,
      "note": 54,
      "start": 32.4396,
      "duration": 0.0829,
      "velocity": 113,
      "chip": "ym2612"
    },
    {
      "channel": 2,
      "note": 54,
      "start": 32.44,
      "duration": 0.0828,
      "velocity": 99,
      "chip": "ym2612"
    },
    {
      "channel": 3,
      "note": 57,
      "start": 32.4403,
      "duration": 0.0827,
      "velocity": 99,
      "chip": "ym2612"
    },
    {
      "channel": 4,
      "note": 54,
      "start": 32.4406,
      "duration": 0.0826,
      "velocity": 1,
      "chip": "ym2612"
    },
    {
      "channel": 0,
      "note": 32,
      "start": 32.6078,
      "duration": 0.1,
      "velocity": 127,
      "chip": "ym2612"
    },
    {
      "channel": 1,
      "note": 49,
      "start": 32.6081,
      "duration": 0.0999,
      "velocity": 113,
      "chip": "ym2612"
    },
    {
      "channel": 4,
      "note": 49,
      "start": 32.609,
      "duration": 0.0997,
      "velocity": 1,
      "chip": "ym2612"
    },
    {
      "channel": 0,
      "note": 32,
      "start": 32.7932,
      "duration": 0.0832,
      "velocity": 127,
      "chip": "ym2612"
    },
    {
      "channel": 1,
      "note": 54,
      "start": 32.7935,
      "duration": 0.083,
      "velocity": 113,
      "chip": "ym2612"
    },
    {
      "channel": 2,
      "note": 59,
      "start": 32.7939,
      "duration": 0.0828,
      "velocity": 99,
      "chip": "ym2612"
    },
    {
      "channel": 3,
      "note": 62,
      "start": 32.7942,
      "duration": 0.0827,
      "velocity": 99,
      "chip": "ym2612"
    },
    {
      "channel": 4,
      "note": 54,
      "start": 32.7945,
      "duration": 0.0825,
      "velocity": 1,
      "chip": "ym2612"
    },
    {
      "channel": 0,
      "note": 32,
      "start": 32.9618,
      "duration": 0.0832,
      "velocity": 127,
      "chip": "ym2612"
    },
    {
      "channel": 1,
      "note": 49,
      "start": 32.9621,
      "duration": 0.0829,
      "velocity": 113,
      "chip": "ym2612"
    },
    {
      "channel": 4,
      "note": 49,
      "start": 32.9629,
      "duration": 0.0828,
      "velocity": 1,
      "chip": "ym2612"
    },
    {
      "channel": 0,
      "note": 25,
      "start": 33.1305,
      "duration": 0.0829,
      "velocity": 127,
      "chip": "ym2612"
    },
    {
      "channel": 1,
      "note": 50,
      "start": 33.1319,
      "duration": 0.0817,
      "velocity": 113,
      "chip": "ym2612"
    },
    {
      "channel": 2,
      "note": 50,
      "start": 33.1333,
      "duration": 0.0805,
      "velocity": 99,
      "chip": "ym2612"
    },
    {
      "channel": 3,
      "note": 54,
      "start": 33.1348,
      "duration": 0.0792,
      "velocity": 99,
      "chip": "ym2612"
    },
    {
      "channel": 4,
      "note": 57,
      "start": 33.1362,
      "duration": 0.078,
      "velocity": 1,
      "chip": "ym2612"
    },
    {
      "channel": 0,
      "note": 32,
      "start": 33.4842,
      "duration": 0.0832,
      "velocity": 127,
      "chip": "ym2612"
    },
    {
      "channel": 1,
      "note": 45,
      "start": 33.4845,
      "duration": 0.083,
      "velocity": 113,
      "chip": "ym2612"
    },
    {
      "channel": 4,
      "note": 52,
      "start": 33.4854,
      "duration": 0.0828,
      "velocity": 1,
      "chip": "ym2612"
    },
    {
      "channel": 0,
      "note": 25,
      "start": 33.6527,
      "duration": 0.0831,
      "velocity": 127,
      "chip": "ym2612"
    },
    {
      "channel": 2,
      "note": 50,
      "start": 33.6533,
      "duration": 0.083,
      "velocity": 99,
      "chip": "ym2612"
    },
    {
      "channel": 3,
      "note": 54,
      "start": 33.6536,
      "duration": 0.0829,
      "velocity": 99,
      "chip": "ym2612"
    },
    {
      "channel": 1,
      "note": 50,
      "start": 33.8205,
      "duration": 0.0841,
      "velocity": 113,
      "chip": "ym2612"
    },
    {
      "channel": 4,
      "note": 57,
      "start": 33.8214,
      "duration": 0.084,
      "velocity": 1,
      "chip": "ym2612"
    },
    {
      "channel": 0,
      "note": 25,
      "start": 33.9898,
      "duration": 0.0832,
      "velocity": 127,
      "chip": "ym2612"
    },
    {
      "channel": 2,
      "note": 50,
      "start": 33.9904,
      "duration": 0.0829,
      "velocity": 99,
      "chip": "ym2612"
    },
    {
      "channel": 3,
      "note": 54,
      "start": 33.9908,
      "duration": 0.0828,
      "velocity": 99,
      "chip": "ym2612"
    },
    {
      "channel": 0,
      "note": 32,
      "start": 34.1752,
      "duration": 0.0832,
      "velocity": 127,
      "chip": "ym2612"
    },
    {
      "channel": 1,
      "note": 45,
      "start": 34.1755,
      "duration": 0.083,
      "velocity": 113,
      "chip": "ym2612"
    },
    {
      "channel": 2,
      "note": 50,
      "start": 34.1758,
      "duration": 0.0829,
      "velocity": 99,
      "chip": "ym2612"
    },
    {
      "channel": 3,
      "note": 54,
      "start": 34.1762,
      "duration": 0.0827,
      "velocity": 99,
      "chip": "ym2612"
    },
    {
      "channel": 4,
      "note": 52,
      "start": 34.1765,
      "duration": 0.0826,
      "velocity": 1,
      "chip": "ym2612"
    },
    {
      "channel": 0,
      "note": 32,
      "start": 34.3437,
      "duration": 0.0832,
      "velocity": 127,
      "chip": "ym2612"
    },
    {
      "channel": 0,
      "note": 25,
      "start": 34.5123,
      "duration": 0.0831,
      "velocity": 127,
      "chip": "ym2612"
    },
    {
      "channel": 1,
      "note": 50,
      "start": 34.5126,
      "duration": 0.083,
      "velocity": 113,
      "chip": "ym2612"
    },
    {
      "channel": 4,
      "note": 57,
      "start": 34.5134,
      "duration": 0.0828,
      "velocity": 1,
      "chip": "ym2612"
    },
    {
      "channel": 0,
      "note": 32,
      "start": 34.8662,
      "duration": 0.0831,
      "velocity": 127,
      "chip": "ym2612"
    },
    {
      "channel": 1,
      "note": 45,
      "start": 34.8666,
      "duration": 0.0829,
      "velocity": 113,
      "chip": "ym2612"
    },
    {
      "channel": 4,
      "note": 52,
      "start": 34.8674,
      "duration": 0.0828,
      "velocity": 1,
      "chip": "ym2612"
    },
    {
      "channel": 0,
      "note": 25,
      "start": 35.0347,
      "duration": 0.0831,
      "velocity": 127,
      "chip": "ym2612"
    },
    {
      "channel": 2,
      "note": 50,
      "start": 35.0353,
      "duration": 0.0829,
      "velocity": 99,
      "chip": "ym2612"
    },
    {
      "channel": 3,
      "note": 54,
      "start": 35.0356,
      "duration": 0.0828,
      "velocity": 99,
      "chip": "ym2612"
    },
    {
      "channel": 1,
      "note": 50,
      "start": 35.2025,
      "duration": 0.0841,
      "velocity": 113,
      "chip": "ym2612"
    },
    {
      "channel": 2,
      "note": 50,
      "start": 35.2029,
      "duration": 0.084,
      "velocity": 99,
      "chip": "ym2612"
    },
    {
      "channel": 3,
      "note": 54,
      "start": 35.2032,
      "duration": 0.0839,
      "velocity": 99,
      "chip": "ym2612"
    },
    {
      "channel": 4,
      "note": 57,
      "start": 35.2036,
      "duration": 0.0836,
      "velocity": 1,
      "chip": "ym2612"
    },
    {
      "channel": 0,
      "note": 25,
      "start": 35.3718,
      "duration": 0.0832,
      "velocity": 127,
      "chip": "ym2612"
    },
    {
      "channel": 1,
      "note": 45,
      "start": 35.3721,
      "duration": 0.083,
      "velocity": 113,
      "chip": "ym2612"
    },
    {
      "channel": 4,
      "note": 52,
      "start": 35.3729,
      "duration": 0.0828,
      "velocity": 1,
      "chip": "ym2612"
    },
    {
      "channel": 0,
      "note": 32,
      "start": 35.5403,
      "duration": 0.1,
      "velocity": 127,
      "chip": "ym2612"
    },
    {
      "channel": 1,
      "note": 50,
      "start": 35.5407,
      "duration": 0.0999,
      "velocity": 113,
      "chip": "ym2612"
    },
    {
      "channel": 2,
      "note": 54,
      "start": 35.541,
      "duration": 0.0997,
      "velocity": 99,
      "chip": "ym2612"
    },
    {
      "channel": 3,
      "note": 57,
      "start": 35.5414,
      "duration": 0.0995,
      "velocity": 99,
      "chip": "ym2612"
    },
    {
      "channel": 4,
      "note": 57,
      "start": 35.5417,
      "duration": 0.0994,
      "velocity": 1,
      "chip": "ym2612"
    },
    {
      "channel": 0,
      "note": 32,
      "start": 35.7257,
      "duration": 0.0831,
      "velocity": 127,
      "chip": "ym2612"
    },
    {
      "channel": 1,
      "note": 45,
      "start": 35.726,
      "duration": 0.083,
      "velocity": 113,
      "chip": "ym2612"
    },
    {
      "channel": 4,
      "note": 52,
      "start": 35.7268,
      "duration": 0.0828,
      "velocity": 1,
      "chip": "ym2612"
    },
    {
      "channel": 0,
      "note": 25,
      "start": 35.8942,
      "duration": 0.0832,
      "velocity": 127,
      "chip": "ym2612"
    },
    {
      "channel": 1,
      "note": 52,
      "start": 35.8945,
      "duration": 0.0831,
      "velocity": 113,
      "chip": "ym2612"
    },
    {
      "channel": 2,
      "note": 52,
      "start": 35.8949,
      "duration": 0.0829,
      "velocity": 99,
      "chip": "ym2612"
    },
    {
      "channel": 3,
      "note": 56,
      "start": 35.8952,
      "duration": 0.0827,
      "velocity": 99,
      "chip": "ym2612"
    },
    {
      "channel": 4,
      "note": 54,
      "start": 35.8956,
      "duration": 0.0825,
      "velocity": 1,
      "chip": "ym2612"
    },
    {
      "channel": 0,
      "note": 32,
      "start": 36.2313,
      "duration": 0.1,
      "velocity": 127,
      "chip": "ym2612"
    },
    {
      "channel": 1,
      "note": 47,
      "start": 36.2317,
      "duration": 0.0998,
      "velocity": 113,
      "chip": "ym2612"
    },
    {
      "channel": 4,
      "note": 49,
      "start": 36.2325,
      "duration": 0.0996,
      "velocity": 1,
      "chip": "ym2612"
    },
    {
      "channel": 0,
      "note": 25,
      "start": 36.4167,
      "duration": 0.0832,
      "velocity": 127,
      "chip": "ym2612"
    },
    {
      "channel": 2,
      "note": 52,
      "start": 36.4173,
      "duration": 0.083,
      "velocity": 99,
      "chip": "ym2612"
    },
    {
      "channel": 3,
      "note": 56,
      "start": 36.4176,
      "duration": 0.0828,
      "velocity": 99,
      "chip": "ym2612"
    },
    {
      "channel": 1,
      "note": 52,
      "start": 36.5845,
      "duration": 0.0841,
      "velocity": 113,
      "chip": "ym2612"
    },
    {
      "channel": 4,
      "note": 54,
      "start": 36.5854,
      "duration": 0.0839,
      "velocity": 1,
      "chip": "ym2612"
    },
    {
      "channel": 0,
      "note": 25,
      "start": 36.7538,
      "duration": 0.0831,
      "velocity": 127,
      "chip": "ym2612"
    },
    {
      "channel": 2,
      "note": 52,
      "start": 36.7544,
      "duration": 0.0829,
      "velocity": 99,
      "chip": "ym2612"
    },
    {
      "channel": 3,
      "note": 56,
      "start": 36.7547,
      "duration": 0.0827,
      "velocity": 99,
      "chip": "ym2612"
    },
    {
      "channel": 0,
      "note": 32,
      "start": 36.9223,
      "duration": 0.1,
      "velocity": 127,
      "chip": "ym2612"
    },
    {
      "channel": 1,
      "note": 47,
      "start": 36.9227,
      "duration": 0.0998,
      "velocity": 113,
      "chip": "ym2612"
    },
    {
      "channel": 2,
      "note": 52,
      "start": 36.923,
      "duration": 0.0996,
      "velocity": 99,
      "chip": "ym2612"
    },
    {
      "channel": 3,
      "note": 56,
      "start": 36.9234,
      "duration": 0.0995,
      "velocity": 99,
      "chip": "ym2612"
    },
    {
      "channel": 4,
      "note": 49,
      "start": 36.9237,
      "duration": 0.0993,
      "velocity": 1,
      "chip": "ym2612"
    },
    {
      "channel": 0,
      "note": 32,
      "start": 37.1077,
      "duration": 0.0831,
      "velocity": 127,
      "chip": "ym2612"
    },
    {
      "channel": 0,
      "note": 25,
      "start": 37.2762,
      "duration": 0.0832,
      "velocity": 127,
      "chip": "ym2612"
    },
    {
      "channel": 1,
      "note": 52,
      "start": 37.2766,
      "duration": 0.0829,
      "velocity": 113,
      "chip": "ym2612"
    },
    {
      "channel": 4,
      "note": 54,
      "start": 37.2774,
      "duration": 0.0828,
      "velocity": 1,
      "chip": "ym2612"
    },
    {
      "channel": 0,
      "note": 32,
      "start": 37.6133,
      "duration": 0.0832,
      "velocity": 127,
      "chip": "ym2612"
    },
    {
      "channel": 1,
      "note": 50,
      "start": 37.6137,
      "duration": 0.0829,
      "velocity": 113,
      "chip": "ym2612"
    },
    {
      "channel": 4,
      "note": 49,
      "start": 37.6144,
      "duration": 0.0828,
      "velocity": 1,
      "chip": "ym2612"
    },
    {
      "channel": 0,
      "note": 25,
      "start": 37.7987,
      "duration": 0.0832,
      "velocity": 127,
      "chip": "ym2612"
    },
    {
      "channel": 2,
      "note": 52,
      "start": 37.7992,
      "duration": 0.083,
      "velocity": 99,
      "chip": "ym2612"
    },
    {
      "channel": 3,
      "note": 56,
      "start": 37.7996,
      "duration": 0.0828,
      "velocity": 99,
      "chip": "ym2612"
    },
    {
      "channel": 0,
      "note": 25,
      "start": 37.9672,
      "duration": 0.0832,
      "velocity": 127,
      "chip": "ym2612"
    },
    {
      "channel": 1,
      "note": 49,
      "start": 37.9676,
      "duration": 0.083,
      "velocity": 113,
      "chip": "ym2612"
    },
    {
      "channel": 2,
      "note": 52,
      "start": 37.9679,
      "duration": 0.0828,
      "velocity": 99,
      "chip": "ym2612"
    },
    {
      "channel": 3,
      "note": 56,
      "start": 37.9682,
      "duration": 0.0827,
      "velocity": 99,
      "chip": "ym2612"
    },
    {
      "channel": 4,
      "note": 54,
      "start": 37.9686,
      "duration": 0.0825,
      "velocity": 1,
      "chip": "ym2612"
    },
    {
      "channel": 0,
      "note": 32,
      "start": 38.1358,
      "duration": 0.0831,
      "velocity": 127,
      "chip": "ym2612"
    },
    {
      "channel": 4,
      "note": 49,
      "start": 38.1368,
      "duration": 0.083,
      "velocity": 1,
      "chip": "ym2612"
    },
    {
      "channel": 0,
      "note": 32,
      "start": 38.3043,
      "duration": 0.0832,
      "velocity": 127,
      "chip": "ym2612"
    },
    {
      "channel": 1,
      "note": 47,
      "start": 38.3046,
      "duration": 0.0829,
      "velocity": 113,
      "chip": "ym2612"
    },
    {
      "channel": 2,
      "note": 59,
      "start": 38.305,
      "duration": 0.0828,
      "velocity": 99,
      "chip": "ym2612"
    },
    {
      "channel": 3,
      "note": 62,
      "start": 38.3054,
      "duration": 0.0826,
      "velocity": 99,
      "chip": "ym2612"
    },
    {
      "channel": 4,
      "note": 54,
      "start": 38.3057,
      "duration": 0.0825,
      "velocity": 1,
      "chip": "ym2612"
    },
    {
      "channel": 0,
      "note": 32,
      "start": 38.4897,
      "duration": 0.0831,
      "velocity": 127,
      "chip": "ym2612"
    },
    {
      "channel": 4,
      "note": 49,
      "start": 38.4907,
      "duration": 0.083,
      "velocity": 1,
      "chip": "ym2612"
    },
    {
      "channel": 0,
      "note": 25,
      "start": 38.6584,
      "duration": 0.083,
      "velocity": 127,
      "chip": "ym2612"
    },
    {
      "channel": 1,
      "note": 47,
      "start": 38.6599,
      "duration": 0.0817,
      "velocity": 113,
      "chip": "ym2612"
    },
    {
      "channel": 2,
      "note": 59,
      "start": 38.6613,
      "duration": 0.0805,
      "velocity": 99,
      "chip": "ym2612"
    },
    {
      "channel": 3,
      "note": 62,
      "start": 38.6627,
      "duration": 0.0792,
      "velocity": 99,
      "chip": "ym2612"
    },
    {
      "channel": 4,
      "note": 71,
      "start": 38.6641,
      "duration": 0.0779,
      "velocity": 116,
      "chip": "ym2612"
    },
    {
      "channel": 2,
      "note": 59,
      "start": 38.8263,
      "duration": 0.0841,
      "velocity": 99,
      "chip": "ym2612"
    },
    {
      "channel": 3,
      "note": 62,
      "start": 38.8266,
      "duration": 0.084,
      "velocity": 99,
      "chip": "ym2612"
    },
    {
      "channel": 0,
      "note": 32,
      "start": 38.9953,
      "duration": 0.0831,
      "velocity": 127,
      "chip": "ym2612"
    },
    {
      "channel": 1,
      "note": 42,
      "start": 38.9956,
      "duration": 0.083,
      "velocity": 113,
      "chip": "ym2612"
    },
    {
      "channel": 2,
      "note": 59,
      "start": 38.996,
      "duration": 0.0828,
      "velocity": 99,
      "chip": "ym2612"
    },
    {
      "channel": 3,
      "note": 62,
      "start": 38.9963,
      "duration": 0.0827,
      "velocity": 99,
      "chip": "ym2612"
    },
    {
      "channel": 0,
      "note": 25,
      "start": 39.1807,
      "duration": 0.0832,
      "velocity": 127,
      "chip": "ym2612"
    },
    {
      "channel": 2,
      "note": 59,
      "start": 39.1812,
      "duration": 0.083,
      "velocity": 99,
      "chip": "ym2612"
    },
    {
      "channel": 3,
      "note": 62,
      "start": 39.1816,
      "duration": 0.0828,
      "velocity": 99,
      "chip": "ym2612"
    },
    {
      "channel": 1,
      "note": 47,
      "start": 39.3485,
      "duration": 0.0841,
      "velocity": 113,
      "chip": "ym2612"
    },
    {
      "channel": 2,
      "note": 59,
      "start": 39.3489,
      "duration": 0.0839,
      "velocity": 99,
      "chip": "ym2612"
    },
    {
      "channel": 3,
      "note": 62,
      "start": 39.3492,
      "duration": 0.0838,
      "velocity": 99,
      "chip": "ym2612"
    },
    {
      "channel": 4,
      "note": 71,
      "start": 39.3495,
      "duration": 0.0837,
      "velocity": 116,
      "chip": "ym2612"
    },
    {
      "channel": 0,
      "note": 25,
      "start": 39.5178,
      "duration": 0.0831,
      "velocity": 127,
      "chip": "ym2612"
    },
    {
      "channel": 2,
      "note": 59,
      "start": 39.5183,
      "duration": 0.0829,
      "velocity": 99,
      "chip": "ym2612"
    },
    {
      "channel": 3,
      "note": 62,
      "start": 39.5186,
      "duration": 0.0828,
      "velocity": 99,
      "chip": "ym2612"
    },
    {
      "channel": 0,
      "note": 32,
      "start": 39.6863,
      "duration": 0.0832,
      "velocity": 127,
      "chip": "ym2612"
    },
    {
      "channel": 1,
      "note": 42,
      "start": 39.6866,
      "duration": 0.0829,
      "velocity": 113,
      "chip": "ym2612"
    },
    {
      "channel": 2,
      "note": 59,
      "start": 39.687,
      "duration": 0.0828,
      "velocity": 99,
      "chip": "ym2612"
    },
    {
      "channel": 3,
      "note": 62,
      "start": 39.6873,
      "duration": 0.0826,
      "velocity": 99,
      "chip": "ym2612"
    },
    {
      "channel": 0,
      "note": 32,
      "start": 39.8548,
      "duration": 0.1,
      "velocity": 127,
      "chip": "ym2612"
    },
    {
      "channel": 2,
      "note": 59,
      "start": 39.8554,
      "duration": 0.0999,
      "velocity": 99,
      "chip": "ym2612"
    },
    {
      "channel": 3,
      "note": 62,
      "start": 39.8557,
      "duration": 0.0998,
      "velocity": 99,
      "chip": "ym2612"
    },
    {
      "channel": 0,
      "note": 25,
      "start": 40.0402,
      "duration": 0.0832,
      "velocity": 127,
      "chip": "ym2612"
    },
    {
      "channel": 1,
      "note": 47,
      "start": 40.0405,
      "duration": 0.083,
      "velocity": 113,
      "chip": "ym2612"
    },
    {
      "channel": 2,
      "note": 59,
      "start": 40.0408,
      "duration": 0.0829,
      "velocity": 99,
      "chip": "ym2612"
    },
    {
      "channel": 3,
      "note": 62,
      "start": 40.0412,
      "duration": 0.0827,
      "velocity": 99,
      "chip": "ym2612"
    },
    {
      "channel": 2,
      "note": 59,
      "start": 40.2083,
      "duration": 0.0841,
      "velocity": 99,
      "chip": "ym2612"
    },
    {
      "channel": 3,
      "note": 62,
      "start": 40.2086,
      "duration": 0.0839,
      "velocity": 99,
      "chip": "ym2612"
    },
    {
      "channel": 4,
      "note": 71,
      "start": 40.2089,
      "duration": 0.0838,
      "velocity": 116,
      "chip": "ym2612"
    },
    {
      "channel": 0,
      "note": 32,
      "start": 40.3773,
      "duration": 0.0831,
      "velocity": 127,
      "chip": "ym2612"
    },
    {
      "channel": 1,
      "note": 42,
      "start": 40.3776,
      "duration": 0.083,
      "velocity": 113,
      "chip": "ym2612"
    },
    {
      "channel": 2,
      "note": 59,
      "start": 40.3779,
      "duration": 0.0828,
      "velocity": 99,
      "chip": "ym2612"
    },
    {
      "channel": 3,
      "note": 62,
      "start": 40.3783,
      "duration": 0.0827,
      "velocity": 99,
      "chip": "ym2612"
    },
    {
      "channel": 4,
      "note": 74,
      "start": 40.3786,
      "duration": 0.0824,
      "velocity": 116,
      "chip": "ym2612"
    },
    {
      "channel": 0,
      "note": 25,
      "start": 40.5458,
      "duration": 0.1,
      "velocity": 127,
      "chip": "ym2612"
    },
    {
      "channel": 2,
      "note": 59,
      "start": 40.5464,
      "duration": 0.0999,
      "velocity": 99,
      "chip": "ym2612"
    },
    {
      "channel": 3,
      "note": 62,
      "start": 40.5467,
      "duration": 0.0997,
      "velocity": 99,
      "chip": "ym2612"
    },
    {
      "channel": 4,
      "note": 76,
      "start": 40.547,
      "duration": 0.0996,
      "velocity": 116,
      "chip": "ym2612"
    },
    {
      "channel": 1,
      "note": 47,
      "start": 40.7305,
      "duration": 0.0841,
      "velocity": 113,
      "chip": "ym2612"
    },
    {
      "channel": 2,
      "note": 59,
      "start": 40.7309,
      "duration": 0.0839,
      "velocity": 99,
      "chip": "ym2612"
    },
    {
      "channel": 3,
      "note": 62,
      "start": 40.7312,
      "duration": 0.0837,
      "velocity": 99,
      "chip": "ym2612"
    },
    {
      "channel": 4,
      "note": 78,
      "start": 40.7315,
      "duration": 0.0836,
      "velocity": 116,
      "chip": "ym2612"
    },
    {
      "channel": 0,
      "note": 25,
      "start": 40.8998,
      "duration": 0.0832,
      "velocity": 127,
      "chip": "ym2612"
    },
    {
      "channel": 1,
      "note": 42,
      "start": 40.9001,
      "duration": 0.0829,
      "velocity": 113,
      "chip": "ym2612"
    },
    {
      "channel": 2,
      "note": 59,
      "start": 40.9004,
      "duration": 0.0828,
      "velocity": 99,
      "chip": "ym2612"
    },
    {
      "channel": 3,
      "note": 62,
      "start": 40.9007,
      "duration": 0.0827,
      "velocity": 99,
      "chip": "ym2612"
    },
    {
      "channel": 4,
      "note": 76,
      "start": 40.901,
      "duration": 0.0825,
      "velocity": 116,
      "chip": "ym2612"
    },
    {
      "channel": 0,
      "note": 32,
      "start": 41.0683,
      "duration": 0.0832,
      "velocity": 127,
      "chip": "ym2612"
    },
    {
      "channel": 1,
      "note": 47,
      "start": 41.0686,
      "duration": 0.083,
      "velocity": 113,
      "chip": "ym2612"
    },
    {
      "channel": 2,
      "note": 59,
      "start": 41.0689,
      "duration": 0.0828,
      "velocity": 99,
      "chip": "ym2612"
    },
    {
      "channel": 3,
      "note": 62,
      "start": 41.0692,
      "duration": 0.0827,
      "velocity": 99,
      "chip": "ym2612"
    },
    {
      "channel": 4,
      "note": 74,
      "start": 41.0695,
      "duration": 0.0825,
      "velocity": 116,
      "chip": "ym2612"
    },
    {
      "channel": 0,
      "note": 32,
      "start": 41.2368,
      "duration": 0.1,
      "velocity": 127,
      "chip": "ym2612"
    },
    {
      "channel": 1,
      "note": 42,
      "start": 41.2371,
      "duration": 0.0999,
      "velocity": 113,
      "chip": "ym2612"
    },
    {
      "channel": 2,
      "note": 59,
      "start": 41.2374,
      "duration": 0.0997,
      "velocity": 99,
      "chip": "ym2612"
    },
    {
      "channel": 3,
      "note": 62,
      "start": 41.2378,
      "duration": 0.0995,
      "velocity": 99,
      "chip": "ym2612"
    },
    {
      "channel": 4,
      "note": 76,
      "start": 41.2381,
      "duration": 0.0993,
      "velocity": 116,
      "chip": "ym2612"
    },
    {
      "channel": 0,
      "note": 25,
      "start": 41.4222,
      "duration": 0.0832,
      "velocity": 127,
      "chip": "ym2612"
    },
    {
      "channel": 1,
      "note": 50,
      "start": 41.4225,
      "duration": 0.083,
      "velocity": 113,
      "chip": "ym2612"
    },
    {
      "channel": 2,
      "note": 62,
      "start": 41.4228,
      "duration": 0.0829,
      "velocity": 99,
      "chip": "ym2612"
    },
    {
      "channel": 3,
      "note": 66,
      "start": 41.4232,
      "duration": 0.0827,
      "velocity": 99,
      "chip": "ym2612"
    },
    {
      "channel": 4,
      "note": 69,
      "start": 41.4235,
      "duration": 0.0826,
      "velocity": 116,
      "chip": "ym2612"
    },
    {
      "channel": 2,
      "note": 62,
      "start": 41.5903,
      "duration": 0.0841,
      "velocity": 99,
      "chip": "ym2612"
    },
    {
      "channel": 3,
      "note": 66,
      "start": 41.5906,
      "duration": 0.0839,
      "velocity": 99,
      "chip": "ym2612"
    },
    {
      "channel": 0,
      "note": 32,
      "start": 41.7593,
      "duration": 0.0831,
      "velocity": 127,
      "chip": "ym2612"
    },
    {
      "channel": 1,
      "note": 45,
      "start": 41.7596,
      "duration": 0.0829,
      "velocity": 113,
      "chip": "ym2612"
    },
    {
      "channel": 2,
      "note": 62,
      "start": 41.7599,
      "duration": 0.0828,
      "velocity": 99,
      "chip": "ym2612"
    },
    {
      "channel": 3,
      "note": 66,
      "start": 41.7602,
      "duration": 0.0827,
      "velocity": 99,
      "chip": "ym2612"
    },
    {
      "channel": 0,
      "note": 25,
      "start": 41.9278,
      "duration": 0.0832,
      "velocity": 127,
      "chip": "ym2612"
    },
    {
      "channel": 2,
      "note": 62,
      "start": 41.9283,
      "duration": 0.083,
      "velocity": 99,
      "chip": "ym2612"
    },
    {
      "channel": 3,
      "note": 66,
      "start": 41.9287,
      "duration": 0.0828,
      "velocity": 99,
      "chip": "ym2612"
    },
    {
      "channel": 1,
      "note": 50,
      "start": 42.1125,
      "duration": 0.0841,
      "velocity": 113,
      "chip": "ym2612"
    },
    {
      "channel": 2,
      "note": 62,
      "start": 42.1128,
      "duration": 0.084,
      "velocity": 99,
      "chip": "ym2612"
    },
    {
      "channel": 3,
      "note": 66,
      "start": 42.1131,
      "duration": 0.0838,
      "velocity": 99,
      "chip": "ym2612"
    },
    {
      "channel": 4,
      "note": 69,
      "start": 42.1135,
      "duration": 0.0836,
      "velocity": 116,
      "chip": "ym2612"
    },
    {
      "channel": 0,
      "note": 25,
      "start": 42.2817,
      "duration": 0.0832,
      "velocity": 127,
      "chip": "ym2612"
    },
    {
      "channel": 2,
      "note": 62,
      "start": 42.2822,
      "duration": 0.083,
      "velocity": 99,
      "chip": "ym2612"
    },
    {
      "channel": 3,
      "note": 66,
      "start": 42.2826,
      "duration": 0.0828,
      "velocity": 99,
      "chip": "ym2612"
    },
    {
      "channel": 0,
      "note": 32,
      "start": 42.4502,
      "duration": 0.0832,
      "velocity": 127,
      "chip": "ym2612"
    },
    {
      "channel": 1,
      "note": 45,
      "start": 42.4506,
      "duration": 0.083,
      "velocity": 113,
      "chip": "ym2612"
    },
    {
      "channel": 2,
      "note": 62,
      "start": 42.4509,
      "duration": 0.0828,
      "velocity": 99,
      "chip": "ym2612"
    },
    {
      "channel": 3,
      "note": 66,
      "start": 42.4512,
      "duration": 0.0827,
      "velocity": 99,
      "chip": "ym2612"
    },
    {
      "channel": 0,
      "note": 32,
      "start": 42.6188,
      "duration": 0.0831,
      "velocity": 127,
      "chip": "ym2612"
    },
    {
      "channel": 2,
      "note": 62,
      "start": 42.6193,
      "duration": 0.083,
      "velocity": 99,
      "chip": "ym2612"
    },
    {
      "channel": 3,
      "note": 66,
      "start": 42.6197,
      "duration": 0.0828,
      "velocity": 99,
      "chip": "ym2612"
    },
    {
      "channel": 0,
      "note": 25,
      "start": 42.8041,
      "duration": 0.0832,
      "velocity": 127,
      "chip": "ym2612"
    },
    {
      "channel": 1,
      "note": 50,
      "start": 42.8045,
      "duration": 0.083,
      "velocity": 113,
      "chip": "ym2612"
    },
    {
      "channel": 2,
      "note": 62,
      "start": 42.8048,
      "duration": 0.0828,
      "velocity": 99,
      "chip": "ym2612"
    },
    {
      "channel": 3,
      "note": 66,
      "start": 42.8051,
      "duration": 0.0827,
      "velocity": 99,
      "chip": "ym2612"
    },
    {
      "channel": 2,
      "note": 62,
      "start": 42.9722,
      "duration": 0.0841,
      "velocity": 99,
      "chip": "ym2612"
    },
    {
      "channel": 3,
      "note": 66,
      "start": 42.9726,
      "duration": 0.0839,
      "velocity": 99,
      "chip": "ym2612"
    },
    {
      "channel": 4,
      "note": 69,
      "start": 42.9729,
      "duration": 0.0838,
      "velocity": 116,
      "chip": "ym2612"
    },
    {
      "channel": 0,
      "note": 32,
      "start": 43.1412,
      "duration": 0.0832,
      "velocity": 127,
      "chip": "ym2612"
    },
    {
      "channel": 1,
      "note": 45,
      "start": 43.1416,
      "duration": 0.0829,
      "velocity": 113,
      "chip": "ym2612"
    },
    {
      "channel": 2,
      "note": 62,
      "start": 43.1419,
      "duration": 0.0828,
      "velocity": 99,
      "chip": "ym2612"
    },
    {
      "channel": 3,
      "note": 66,
      "start": 43.1422,
      "duration": 0.0826,
      "velocity": 99,
      "chip": "ym2612"
    },
    {
      "channel": 4,
      "note": 74,
      "start": 43.1426,
      "duration": 0.0825,
      "velocity": 116,
      "chip": "ym2612"
    },
    {
      "channel": 0,
      "note": 25,
      "start": 43.3097,
      "duration": 0.0832,
      "velocity": 127,
      "chip": "ym2612"
    },
    {
      "channel": 2,
      "note": 62,
      "start": 43.3103,
      "duration": 0.083,
      "velocity": 99,
      "chip": "ym2612"
    },
    {
      "channel": 3,
      "note": 66,
      "start": 43.3106,
      "duration": 0.0829,
      "velocity": 99,
      "chip": "ym2612"
    },
    {
      "channel": 4,
      "note": 76,
      "start": 43.311,
      "duration": 0.0827,
      "velocity": 116,
      "chip": "ym2612"
    },
    {
      "channel": 0,
      "note": 25,
      "start": 43.4952,
      "duration": 0.0832,
      "velocity": 127,
      "chip": "ym2612"
    },
    {
      "channel": 1,
      "note": 50,
      "start": 43.4955,
      "duration": 0.083,
      "velocity": 113,
      "chip": "ym2612"
    },
    {
      "channel": 2,
      "note": 62,
      "start": 43.4958,
      "duration": 0.0828,
      "velocity": 99,
      "chip": "ym2612"
    },
    {
      "channel": 3,
      "note": 66,
      "start": 43.4961,
      "duration": 0.0827,
      "velocity": 99,
      "chip": "ym2612"
    },
    {
      "channel": 4,
      "note": 78,
      "start": 43.4965,
      "duration": 0.0824,
      "velocity": 116,
      "chip": "ym2612"
    },
    {
      "channel": 0,
      "note": 32,
      "start": 43.6637,
      "duration": 0.0832,
      "velocity": 127,
      "chip": "ym2612"
    },
    {
      "channel": 1,
      "note": 45,
      "start": 43.664,
      "duration": 0.083,
      "velocity": 113,
      "chip": "ym2612"
    },
    {
      "channel": 2,
      "note": 62,
      "start": 43.6643,
      "duration": 0.0828,
      "velocity": 99,
      "chip": "ym2612"
    },
    {
      "channel": 3,
      "note": 66,
      "start": 43.6646,
      "duration": 0.0827,
      "velocity": 99,
      "chip": "ym2612"
    },
    {
      "channel": 4,
      "note": 76,
      "start": 43.665,
      "duration": 0.0825,
      "velocity": 116,
      "chip": "ym2612"
    },
    {
      "channel": 0,
      "note": 32,
      "start": 43.8322,
      "duration": 0.0832,
      "velocity": 127,
      "chip": "ym2612"
    },
    {
      "channel": 1,
      "note": 50,
      "start": 43.8325,
      "duration": 0.083,
      "velocity": 113,
      "chip": "ym2612"
    },
    {
      "channel": 2,
      "note": 66,
      "start": 43.8329,
      "duration": 0.0828,
      "velocity": 99,
      "chip": "ym2612"
    },
    {
      "channel": 3,
      "note": 69,
      "start": 43.8332,
      "duration": 0.0826,
      "velocity": 99,
      "chip": "ym2612"
    },
    {
      "channel": 4,
      "note": 74,
      "start": 43.8335,
      "duration": 0.0825,
      "velocity": 116,
      "chip": "ym2612"
    },
    {
      "channel": 0,
      "note": 32,
      "start": 44.0008,
      "duration": 0.0831,
      "velocity": 127,
      "chip": "ym2612"
    },
    {
      "channel": 1,
      "note": 45,
      "start": 44.0011,
      "duration": 0.083,
      "velocity": 113,
      "chip": "ym2612"
    },
    {
      "channel": 2,
      "note": 66,
      "start": 44.0014,
      "duration": 0.0828,
      "velocity": 99,
      "chip": "ym2612"
    },
    {
      "channel": 3,
      "note": 69,
      "start": 44.0017,
      "duration": 0.0827,
      "velocity": 99,
      "chip": "ym2612"
    },
    {
      "channel": 4,
      "note": 76,
      "start": 44.002,
      "duration": 0.0825,
      "velocity": 116,
      "chip": "ym2612"
    },
    {
      "channel": 0,
      "note": 25,
      "start": 44.1695,
      "duration": 0.0999,
      "velocity": 127,
      "chip": "ym2612"
    },
    {
      "channel": 1,
      "note": 47,
      "start": 44.1709,
      "duration": 0.0985,
      "velocity": 113,
      "chip": "ym2612"
    },
    {
      "channel": 2,
      "note": 59,
      "start": 44.1723,
      "duration": 0.0973,
      "velocity": 99,
      "chip": "ym2612"
    },
    {
      "channel": 3,
      "note": 62,
      "start": 44.1738,
      "duration": 0.0961,
      "velocity": 99,
      "chip": "ym2612"
    },
    {
      "channel": 4,
      "note": 71,
      "start": 44.1752,
      "duration": 0.0948,
      "velocity": 116,
      "chip": "ym2612"
    },
    {
      "channel": 2,
      "note": 59,
      "start": 44.3542,
      "duration": 0.0841,
      "velocity": 99,
      "chip": "ym2612"
    },
    {
      "channel": 3,
      "note": 62,
      "start": 44.3545,
      "duration": 0.084,
      "velocity": 99,
      "chip": "ym2612"
    },
    {
      "channel": 0,
      "note": 32,
      "start": 44.5232,
      "duration": 0.0832,
      "velocity": 127,
      "chip": "ym2612"
    },
    {
      "channel": 1,
      "note": 42,
      "start": 44.5236,
      "duration": 0.0829,
      "velocity": 113,
      "chip": "ym2612"
    },
    {
      "channel": 2,
      "note": 59,
      "start": 44.5239,
      "duration": 0.0828,
      "velocity": 99,
      "chip": "ym2612"
    },
    {
      "channel": 3,
      "note": 62,
      "start": 44.5242,
      "duration": 0.0826,
      "velocity": 99,
      "chip": "ym2612"
    },
    {
      "channel": 0,
      "note": 25,
      "start": 44.6917,
      "duration": 0.0832,
      "velocity": 127,
      "chip": "ym2612"
    },
    {
      "channel": 2,
      "note": 59,
      "start": 44.6923,
      "duration": 0.083,
      "velocity": 99,
      "chip": "ym2612"
    },
    {
      "channel": 3,
      "note": 62,
      "start": 44.6926,
      "duration": 0.0829,
      "velocity": 99,
      "chip": "ym2612"
    },
    {
      "channel": 1,
      "note": 47,
      "start": 44.8596,
      "duration": 0.101,
      "velocity": 113,
      "chip": "ym2612"
    },
    {
      "channel": 2,
      "note": 59,
      "start": 44.8599,
      "duration": 0.1007,
      "velocity": 99,
      "chip": "ym2612"
    },
    {
      "channel": 3,
      "note": 62,
      "start": 44.8602,
      "duration": 0.1006,
      "velocity": 99,
      "chip": "ym2612"
    },
    {
      "channel": 4,
      "note": 71,
      "start": 44.8606,
      "duration": 0.1005,
      "velocity": 116,
      "chip": "ym2612"
    },
    {
      "channel": 0,
      "note": 25,
      "start": 45.0457,
      "duration": 0.0832,
      "velocity": 127,
      "chip": "ym2612"
    },
    {
      "channel": 2,
      "note": 59,
      "start": 45.0463,
      "duration": 0.0829,
      "velocity": 99,
      "chip": "ym2612"
    },
    {
      "channel": 3,
      "note": 62,
      "start": 45.0466,
      "duration": 0.0828,
      "velocity": 99,
      "chip": "ym2612"
    },
    {
      "channel": 0,
      "note": 32,
      "start": 45.2142,
      "duration": 0.0831,
      "velocity": 127,
      "chip": "ym2612"
    },
    {
      "channel": 1,
      "note": 42,
      "start": 45.2146,
      "duration": 0.0829,
      "velocity": 113,
      "chip": "ym2612"
    },
    {
      "channel": 2,
      "note": 59,
      "start": 45.2149,
      "duration": 0.0828,
      "velocity": 99,
      "chip": "ym2612"
    },
    {
      "channel": 3,
      "note": 62,
      "start": 45.2152,
      "duration": 0.0827,
      "velocity": 99,
      "chip": "ym2612"
    },
    {
      "channel": 0,
      "note": 32,
      "start": 45.3828,
      "duration": 0.0831,
      "velocity": 127,
      "chip": "ym2612"
    },
    {
      "channel": 2,
      "note": 59,
      "start": 45.3833,
      "duration": 0.083,
      "velocity": 99,
      "chip": "ym2612"
    },
    {
      "channel": 3,
      "note": 62,
      "start": 45.3837,
      "duration": 0.0828,
      "velocity": 99,
      "chip": "ym2612"
    },
    {
      "channel": 0,
      "note": 25,
      "start": 45.5513,
      "duration": 0.1,
      "velocity": 127,
      "chip": "ym2612"
    },
    {
      "channel": 1,
      "note": 47,
      "start": 45.5516,
      "duration": 0.0999,
      "velocity": 113,
      "chip": "ym2612"
    },
    {
      "channel": 2,
      "note": 59,
      "start": 45.552,
      "duration": 0.0997,
      "velocity": 99,
      "chip": "ym2612"
    },
    {
      "channel": 3,
      "note": 62,
      "start": 45.5523,
      "duration": 0.0995,
      "velocity": 99,
      "chip": "ym2612"
    },
    {
      "channel": 2,
      "note": 59,
      "start": 45.7362,
      "duration": 0.0841,
      "velocity": 99,
      "chip": "ym2612"
    },
    {
      "channel": 3,
      "note": 62,
      "start": 45.7365,
      "duration": 0.084,
      "velocity": 99,
      "chip": "ym2612"
    },
    {
      "channel": 4,
      "note": 71,
      "start": 45.7368,
      "duration": 0.0838,
      "velocity": 116,
      "chip": "ym2612"
    },
    {
      "channel": 0,
      "note": 32,
      "start": 45.9052,
      "duration": 0.0832,
      "velocity": 127,
      "chip": "ym2612"
    },
    {
      "channel": 1,
      "note": 42,
      "start": 45.9055,
      "duration": 0.083,
      "velocity": 113,
      "chip": "ym2612"
    },
    {
      "channel": 2,
      "note": 59,
      "start": 45.9059,
      "duration": 0.0828,
      "velocity": 99,
      "chip": "ym2612"
    },
    {
      "channel": 3,
      "note": 62,
      "start": 45.9062,
      "duration": 0.0826,
      "velocity": 99,
      "chip": "ym2612"
    },
    {
      "channel": 4,
      "note": 74,
      "start": 45.9066,
      "duration": 0.0824,
      "velocity": 116,
      "chip": "ym2612"
    },
    {
      "channel": 0,
      "note": 25,
      "start": 46.0737,
      "duration": 0.0832,
      "velocity": 127,
      "chip": "ym2612"
    },
    {
      "channel": 2,
      "note": 59,
      "start": 46.0743,
      "duration": 0.083,
      "velocity": 99,
      "chip": "ym2612"
    },
    {
      "channel": 3,
      "note": 62,
      "start": 46.0746,
      "duration": 0.0828,
      "velocity": 99,
      "chip": "ym2612"
    },
    {
      "channel": 4,
      "note": 76,
      "start": 46.0749,
      "duration": 0.0827,
      "velocity": 116,
      "chip": "ym2612"
    },
    {
      "channel": 1,
      "note": 47,
      "start": 46.2416,
      "duration": 0.084,
      "velocity": 113,
      "chip": "ym2612"
    },
    {
      "channel": 2,
      "note": 59,
      "start": 46.2419,
      "duration": 0.0839,
      "velocity": 99,
      "chip": "ym2612"
    },
    {
      "channel": 3,
      "note": 62,
      "start": 46.2422,
      "duration": 0.0837,
      "velocity": 99,
      "chip": "ym2612"
    },
    {
      "channel": 4,
      "note": 78,
      "start": 46.2426,
      "duration": 0.0836,
      "velocity": 116,
      "chip": "ym2612"
    },
    {
      "channel": 0,
      "note": 25,
      "start": 46.4277,
      "duration": 0.0832,
      "velocity": 127,
      "chip": "ym2612"
    },
    {
      "channel": 1,
      "note": 42,
      "start": 46.428,
      "duration": 0.0829,
      "velocity": 113,
      "chip": "ym2612"
    },
    {
      "channel": 2,
      "note": 59,
      "start": 46.4283,
      "duration": 0.0828,
      "velocity": 99,
      "chip": "ym2612"
    },
    {
      "channel": 3,
      "note": 62,
      "start": 46.4286,
      "duration": 0.0827,
      "velocity": 99,
      "chip": "ym2612"
    },
    {
      "channel": 4,
      "note": 76,
      "start": 46.429,
      "duration": 0.0825,
      "velocity": 116,
      "chip": "ym2612"
    },
    {
      "channel": 0,
      "note": 32,
      "start": 46.5962,
      "duration": 0.0831,
      "velocity": 127,
      "chip": "ym2612"
    },
    {
      "channel": 1,
      "note": 47,
      "start": 46.5965,
      "duration": 0.083,
      "velocity": 113,
      "chip": "ym2612"
    },
    {
      "channel": 2,
      "note": 59,
      "start": 46.5968,
      "duration": 0.0828,
      "velocity": 99,
      "chip": "ym2612"
    },
    {
      "channel": 3,
      "note": 62,
      "start": 46.5971,
      "duration": 0.0827,
      "velocity": 99,
      "chip": "ym2612"
    },
    {
      "channel": 4,
      "note": 74,
      "start": 46.5975,
      "duration": 0.0825,
      "velocity": 116,
      "chip": "ym2612"
    },
    {
      "channel": 0,
      "note": 32,
      "start": 46.7647,
      "duration": 0.0832,
      "velocity": 127,
      "chip": "ym2612"
    },
    {
      "channel": 1,
      "note": 42,
      "start": 46.765,
      "duration": 0.083,
      "velocity": 113,
      "chip": "ym2612"
    },
    {
      "channel": 2,
      "note": 59,
      "start": 46.7654,
      "duration": 0.0828,
      "velocity": 99,
      "chip": "ym2612"
    },
    {
      "channel": 3,
      "note": 62,
      "start": 46.7657,
      "duration": 0.0826,
      "velocity": 99,
      "chip": "ym2612"
    },
    {
      "channel": 4,
      "note": 76,
      "start": 46.766,
      "duration": 0.0825,
      "velocity": 116,
      "chip": "ym2612"
    },
    {
      "channel": 0,
      "note": 25,
      "start": 46.9333,
      "duration": 0.0832,
      "velocity": 127,
      "chip": "ym2612"
    },
    {
      "channel": 1,
      "note": 50,
      "start": 46.9336,
      "duration": 0.083,
      "velocity": 113,
      "chip": "ym2612"
    },
    {
      "channel": 2,
      "note": 62,
      "start": 46.9339,
      "duration": 0.0829,
      "velocity": 99,
      "chip": "ym2612"
    },
    {
      "channel": 3,
      "note": 66,
      "start": 46.9342,
      "duration": 0.0827,
      "velocity": 99,
      "chip": "ym2612"
    },
    {
      "channel": 4,
      "note": 69,
      "start": 46.9345,
      "duration": 0.0826,
      "velocity": 116,
      "chip": "ym2612"
    },
    {
      "channel": 2,
      "note": 62,
      "start": 47.1182,
      "duration": 0.0841,
      "velocity": 99,
      "chip": "ym2612"
    },
    {
      "channel": 3,
      "note": 66,
      "start": 47.1185,
      "duration": 0.0839,
      "velocity": 99,
      "chip": "ym2612"
    },
    {
      "channel": 0,
      "note": 32,
      "start": 47.2872,
      "duration": 0.0832,
      "velocity": 127,
      "chip": "ym2612"
    },
    {
      "channel": 1,
      "note": 45,
      "start": 47.2875,
      "duration": 0.0829,
      "velocity": 113,
      "chip": "ym2612"
    },
    {
      "channel": 2,
      "note": 62,
      "start": 47.2878,
      "duration": 0.0828,
      "velocity": 99,
      "chip": "ym2612"
    },
    {
      "channel": 3,
      "note": 66,
      "start": 47.2882,
      "duration": 0.0827,
      "velocity": 99,
      "chip": "ym2612"
    },
    {
      "channel": 0,
      "note": 25,
      "start": 47.4557,
      "duration": 0.0831,
      "velocity": 127,
      "chip": "ym2612"
    },
    {
      "channel": 2,
      "note": 62,
      "start": 47.4563,
      "duration": 0.083,
      "velocity": 99,
      "chip": "ym2612"
    },
    {
      "channel": 3,
      "note": 66,
      "start": 47.4566,
      "duration": 0.0828,
      "velocity": 99,
      "chip": "ym2612"
    },
    {
      "channel": 1,
      "note": 50,
      "start": 47.6235,
      "duration": 0.0841,
      "velocity": 113,
      "chip": "ym2612"
    },
    {
      "channel": 2,
      "note": 62,
      "start": 47.6239,
      "duration": 0.084,
      "velocity": 99,
      "chip": "ym2612"
    },
    {
      "channel": 3,
      "note": 66,
      "start": 47.6242,
      "duration": 0.0838,
      "velocity": 99,
      "chip": "ym2612"
    },
    {
      "channel": 4,
      "note": 69,
      "start": 47.6246,
      "duration": 0.0836,
      "velocity": 116,
      "chip": "ym2612"
    },
    {
      "channel": 0,
      "note": 25,
      "start": 47.8097,
      "duration": 0.0831,
      "velocity": 127,
      "chip": "ym2612"
    },
    {
      "channel": 2,
      "note": 62,
      "start": 47.8102,
      "duration": 0.0829,
      "velocity": 99,
      "chip": "ym2612"
    },
    {
      "channel": 3,
      "note": 66,
      "start": 47.8106,
      "duration": 0.0828,
      "velocity": 99,
      "chip": "ym2612"
    },
    {
      "channel": 0,
      "note": 32,
      "start": 47.9782,
      "duration": 0.0832,
      "velocity": 127,
      "chip": "ym2612"
    },
    {
      "channel": 1,
      "note": 45,
      "start": 47.9785,
      "duration": 0.083,
      "velocity": 113,
      "chip": "ym2612"
    },
    {
      "channel": 2,
      "note": 62,
      "start": 47.9788,
      "duration": 0.0828,
      "velocity": 99,
      "chip": "ym2612"
    },
    {
      "channel": 3,
      "note": 66,
      "start": 47.9791,
      "duration": 0.0827,
      "velocity": 99,
      "chip": "ym2612"
    },
    {
      "channel": 0,
      "note": 32,
      "start": 48.1467,
      "duration": 0.0832,
      "velocity": 127,
      "chip": "ym2612"
    },
    {
      "channel": 2,
      "note": 62,
      "start": 48.1473,
      "duration": 0.083,
      "velocity": 99,
      "chip": "ym2612"
    },
    {
      "channel": 3,
      "note": 66,
      "start": 48.1476,
      "duration": 0.0828,
      "velocity": 99,
      "chip": "ym2612"
    },
    {
      "channel": 0,
      "note": 25,
      "start": 48.3152,
      "duration": 0.0832,
      "velocity": 127,
      "chip": "ym2612"
    },
    {
      "channel": 1,
      "note": 50,
      "start": 48.3156,
      "duration": 0.083,
      "velocity": 113,
      "chip": "ym2612"
    },
    {
      "channel": 2,
      "note": 62,
      "start": 48.3159,
      "duration": 0.0829,
      "velocity": 99,
      "chip": "ym2612"
    },
    {
      "channel": 3,
      "note": 66,
      "start": 48.3162,
      "duration": 0.0827,
      "velocity": 99,
      "chip": "ym2612"
    },
    {
      "channel": 2,
      "note": 62,
      "start": 48.4833,
      "duration": 0.1009,
      "velocity": 99,
      "chip": "ym2612"
    },
    {
      "channel": 3,
      "note": 66,
      "start": 48.4837,
      "duration": 0.1008,
      "velocity": 99,
      "chip": "ym2612"
    },
    {
      "channel": 4,
      "note": 69,
      "start": 48.484,
      "duration": 0.1006,
      "velocity": 116,
      "chip": "ym2612"
    },
    {
      "channel": 0,
      "note": 32,
      "start": 48.6692,
      "duration": 0.0831,
      "velocity": 127,
      "chip": "ym2612"
    },
    {
      "channel": 1,
      "note": 45,
      "start": 48.6695,
      "duration": 0.083,
      "velocity": 113,
      "chip": "ym2612"
    },
    {
      "channel": 2,
      "note": 62,
      "start": 48.6698,
      "duration": 0.0828,
      "velocity": 99,
      "chip": "ym2612"
    },
    {
      "channel": 3,
      "note": 66,
      "start": 48.6702,
      "duration": 0.0827,
      "velocity": 99,
      "chip": "ym2612"
    },
    {
      "channel": 4,
      "note": 74,
      "start": 48.6705,
      "duration": 0.0825,
      "velocity": 116,
      "chip": "ym2612"
    },
    {
      "channel": 0,
      "note": 25,
      "start": 48.8377,
      "duration": 0.0831,
      "velocity": 127,
      "chip": "ym2612"
    },
    {
      "channel": 2,
      "note": 62,
      "start": 48.8382,
      "duration": 0.083,
      "velocity": 99,
      "chip": "ym2612"
    },
    {
      "channel": 3,
      "note": 66,
      "start": 48.8386,
      "duration": 0.0828,
      "velocity": 99,
      "chip": "ym2612"
    },
    {
      "channel": 4,
      "note": 76,
      "start": 48.8389,
      "duration": 0.0826,
      "velocity": 116,
      "chip": "ym2612"
    },
    {
      "channel": 0,
      "note": 25,
      "start": 49.0062,
      "duration": 0.0832,
      "velocity": 127,
      "chip": "ym2612"
    },
    {
      "channel": 1,
      "note": 50,
      "start": 49.0066,
      "duration": 0.083,
      "velocity": 113,
      "chip": "ym2612"
    },
    {
      "channel": 2,
      "note": 62,
      "start": 49.0069,
      "duration": 0.0828,
      "velocity": 99,
      "chip": "ym2612"
    },
    {
      "channel": 3,
      "note": 66,
      "start": 49.0073,
      "duration": 0.0826,
      "velocity": 99,
      "chip": "ym2612"
    },
    {
      "channel": 4,
      "note": 78,
      "start": 49.0076,
      "duration": 0.0824,
      "velocity": 116,
      "chip": "ym2612"
    },
    {
      "channel": 0,
      "note": 32,
      "start": 49.1747,
      "duration": 0.1,
      "velocity": 127,
      "chip": "ym2612"
    },
    {
      "channel": 1,
      "note": 45,
      "start": 49.1751,
      "duration": 0.0999,
      "velocity": 113,
      "chip": "ym2612"
    },
    {
      "channel": 2,
      "note": 62,
      "start": 49.1754,
      "duration": 0.0997,
      "velocity": 99,
      "chip": "ym2612"
    },
    {
      "channel": 3,
      "note": 66,
      "start": 49.1758,
      "duration": 0.0995,
      "velocity": 99,
      "chip": "ym2612"
    },
    {
      "channel": 4,
      "note": 76,
      "start": 49.1761,
      "duration": 0.0994,
      "velocity": 116,
      "chip": "ym2612"
    },
    {
      "channel": 0,
      "note": 32,
      "start": 49.3602,
      "duration": 0.0832,
      "velocity": 127,
      "chip": "ym2612"
    },
    {
      "channel": 1,
      "note": 50,
      "start": 49.3605,
      "duration": 0.0829,
      "velocity": 113,
      "chip": "ym2612"
    },
    {
      "channel": 2,
      "note": 66,
      "start": 49.3608,
      "duration": 0.0828,
      "velocity": 99,
      "chip": "ym2612"
    },
    {
      "channel": 3,
      "note": 69,
      "start": 49.3611,
      "duration": 0.0827,
      "velocity": 99,
      "chip": "ym2612"
    },
    {
      "channel": 4,
      "note": 74,
      "start": 49.3615,
      "duration": 0.0825,
      "velocity": 116,
      "chip": "ym2612"
    },
    {
      "channel": 0,
      "note": 32,
      "start": 49.5287,
      "duration": 0.0832,
      "velocity": 127,
      "chip": "ym2612"
    },
    {
      "channel": 1,
      "note": 45,
      "start": 49.529,
      "duration": 0.083,
      "velocity": 113,
      "chip": "ym2612"
    },
    {
      "channel": 2,
      "note": 66,
      "start": 49.5293,
      "duration": 0.0828,
      "velocity": 99,
      "chip": "ym2612"
    },
    {
      "channel": 3,
      "note": 69,
      "start": 49.5296,
      "duration": 0.0827,
      "velocity": 99,
      "chip": "ym2612"
    },
    {
      "channel": 4,
      "note": 76,
      "start": 49.53,
      "duration": 0.0825,
      "velocity": 116,
      "chip": "ym2612"
    },
    {
      "channel": 0,
      "note": 25,
      "start": 49.6975,
      "duration": 0.0829,
      "velocity": 127,
      "chip": "ym2612"
    },
    {
      "channel": 1,
      "note": 54,
      "start": 49.6989,
      "duration": 0.0817,
      "velocity": 113,
      "chip": "ym2612"
    },
    {
      "channel": 2,
      "note": 66,
      "start": 49.7003,
      "duration": 0.0804,
      "velocity": 99,
      "chip": "ym2612"
    },
    {
      "channel": 3,
      "note": 69,
      "start": 49.7017,
      "duration": 0.0792,
      "velocity": 99,
      "chip": "ym2612"
    },
    {
      "channel": 4,
      "note": 73,
      "start": 49.7032,
      "duration": 0.0779,
      "velocity": 116,
      "chip": "ym2612"
    },
    {
      "channel": 2,
      "note": 66,
      "start": 49.8653,
      "duration": 0.101,
      "velocity": 99,
      "chip": "ym2612"
    },
    {
      "channel": 3,
      "note": 69,
      "start": 49.8656,
      "duration": 0.1008,
      "velocity": 99,
      "chip": "ym2612"
    },
    {
      "channel": 0,
      "note": 32,
      "start": 50.0512,
      "duration": 0.0831,
      "velocity": 127,
      "chip": "ym2612"
    },
    {
      "channel": 1,
      "note": 49,
      "start": 50.0515,
      "duration": 0.083,
      "velocity": 113,
      "chip": "ym2612"
    },
    {
      "channel": 2,
      "note": 66,
      "start": 50.0519,
      "duration": 0.0828,
      "velocity": 99,
      "chip": "ym2612"
    },
    {
      "channel": 3,
      "note": 69,
      "start": 50.0522,
      "duration": 0.0826,
      "velocity": 99,
      "chip": "ym2612"
    },
    {
      "channel": 0,
      "note": 25,
      "start": 50.2197,
      "duration": 0.0832,
      "velocity": 127,
      "chip": "ym2612"
    },
    {
      "channel": 2,
      "note": 66,
      "start": 50.2202,
      "duration": 0.083,
      "velocity": 99,
      "chip": "ym2612"
    },
    {
      "channel": 3,
      "note": 69,
      "start": 50.2205,
      "duration": 0.0829,
      "velocity": 99,
      "chip": "ym2612"
    },
    {
      "channel": 1,
      "note": 54,
      "start": 50.3875,
      "duration": 0.0841,
      "velocity": 113,
      "chip": "ym2612"
    },
    {
      "channel": 2,
      "note": 66,
      "start": 50.3878,
      "duration": 0.084,
      "velocity": 99,
      "chip": "ym2612"
    },
    {
      "channel": 3,
      "note": 69,
      "start": 50.3882,
      "duration": 0.0838,
      "velocity": 99,
      "chip": "ym2612"
    },
    {
      "channel": 4,
      "note": 73,
      "start": 50.3885,
      "duration": 0.0836,
      "velocity": 116,
      "chip": "ym2612"
    },
    {
      "channel": 0,
      "note": 25,
      "start": 50.5568,
      "duration": 0.0831,
      "velocity": 127,
      "chip": "ym2612"
    },
    {
      "channel": 2,
      "note": 66,
      "start": 50.5573,
      "duration": 0.083,
      "velocity": 99,
      "chip": "ym2612"
    },
    {
      "channel": 3,
      "note": 69,
      "start": 50.5576,
      "duration": 0.0828,
      "velocity": 99,
      "chip": "ym2612"
    },
    {
      "channel": 0,
      "note": 32,
      "start": 50.7421,
      "duration": 0.0832,
      "velocity": 127,
      "chip": "ym2612"
    },
    {
      "channel": 1,
      "note": 49,
      "start": 50.7425,
      "duration": 0.0829,
      "velocity": 113,
      "chip": "ym2612"
    },
    {
      "channel": 2,
      "note": 66,
      "start": 50.7428,
      "duration": 0.0828,
      "velocity": 99,
      "chip": "ym2612"
    },
    {
      "channel": 3,
      "note": 69,
      "start": 50.7431,
      "duration": 0.0827,
      "velocity": 99,
      "chip": "ym2612"
    },
    {
      "channel": 0,
      "note": 32,
      "start": 50.9107,
      "duration": 0.0832,
      "velocity": 127,
      "chip": "ym2612"
    },
    {
      "channel": 2,
      "note": 66,
      "start": 50.9113,
      "duration": 0.0829,
      "velocity": 99,
      "chip": "ym2612"
    },
    {
      "channel": 3,
      "note": 69,
      "start": 50.9116,
      "duration": 0.0828,
      "velocity": 99,
      "chip": "ym2612"
    },
    {
      "channel": 0,
      "note": 25,
      "start": 51.0792,
      "duration": 0.0832,
      "velocity": 127,
      "chip": "ym2612"
    },
    {
      "channel": 1,
      "note": 54,
      "start": 51.0796,
      "duration": 0.0829,
      "velocity": 113,
      "chip": "ym2612"
    },
    {
      "channel": 2,
      "note": 66,
      "start": 51.0799,
      "duration": 0.0828,
      "velocity": 99,
      "chip": "ym2612"
    },
    {
      "channel": 3,
      "note": 69,
      "start": 51.0802,
      "duration": 0.0827,
      "velocity": 99,
      "chip": "ym2612"
    },
    {
      "channel": 2,
      "note": 66,
      "start": 51.2473,
      "duration": 0.0841,
      "velocity": 99,
      "chip": "ym2612"
    },
    {
      "channel": 3,
      "note": 69,
      "start": 51.2476,
      "duration": 0.084,
      "velocity": 99,
      "chip": "ym2612"
    },
    {
      "channel": 4,
      "note": 73,
      "start": 51.248,
      "duration": 0.0837,
      "velocity": 116,
      "chip": "ym2612"
    },
    {
      "channel": 0,
      "note": 32,
      "start": 51.4332,
      "duration": 0.0831,
      "velocity": 127,
      "chip": "ym2612"
    },
    {
      "channel": 1,
      "note": 49,
      "start": 51.4335,
      "duration": 0.083,
      "velocity": 113,
      "chip": "ym2612"
    },
    {
      "channel": 2,
      "note": 66,
      "start": 51.4339,
      "duration": 0.0827,
      "velocity": 99,
      "chip": "ym2612"
    },
    {
      "channel": 3,
      "note": 69,
      "start": 51.4342,
      "duration": 0.0826,
      "velocity": 99,
      "chip": "ym2612"
    },
    {
      "channel": 4,
      "note": 78,
      "start": 51.4345,
      "duration": 0.0824,
      "velocity": 116,
      "chip": "ym2612"
    },
    {
      "channel": 0,
      "note": 25,
      "start": 51.6017,
      "duration": 0.0832,
      "velocity": 127,
      "chip": "ym2612"
    },
    {
      "channel": 2,
      "note": 66,
      "start": 51.6022,
      "duration": 0.083,
      "velocity": 99,
      "chip": "ym2612"
    },
    {
      "channel": 3,
      "note": 69,
      "start": 51.6025,
      "duration": 0.0829,
      "velocity": 99,
      "chip": "ym2612"
    },
    {
      "channel": 4,
      "note": 80,
      "start": 51.6029,
      "duration": 0.0827,
      "velocity": 116,
      "chip": "ym2612"
    },
    {
      "channel": 1,
      "note": 54,
      "start": 51.7695,
      "duration": 0.0841,
      "velocity": 113,
      "chip": "ym2612"
    },
    {
      "channel": 2,
      "note": 66,
      "start": 51.7698,
      "duration": 0.0839,
      "velocity": 99,
      "chip": "ym2612"
    },
    {
      "channel": 3,
      "note": 69,
      "start": 51.7702,
      "duration": 0.0838,
      "velocity": 99,
      "chip": "ym2612"
    },
    {
      "channel": 4,
      "note": 81,
      "start": 51.7705,
      "duration": 0.0836,
      "velocity": 116,
      "chip": "ym2612"
    },
    {
      "channel": 0,
      "note": 25,
      "start": 51.9388,
      "duration": 0.0831,
      "velocity": 127,
      "chip": "ym2612"
    },
    {
      "channel": 1,
      "note": 49,
      "start": 51.9391,
      "duration": 0.083,
      "velocity": 113,
      "chip": "ym2612"
    },
    {
      "channel": 2,
      "note": 66,
      "start": 51.9394,
      "duration": 0.0828,
      "velocity": 99,
      "chip": "ym2612"
    },
    {
      "channel": 3,
      "note": 69,
      "start": 51.9397,
      "duration": 0.0827,
      "velocity": 99,
      "chip": "ym2612"
    },
    {
      "channel": 4,
      "note": 80,
      "start": 51.9401,
      "duration": 0.0824,
      "velocity": 116,
      "chip": "ym2612"
    },
    {
      "channel": 0,
      "note": 32,
      "start": 52.1241,
      "duration": 0.0832,
      "velocity": 127,
      "chip": "ym2612"
    },
    {
      "channel": 1,
      "note": 54,
      "start": 52.1244,
      "duration": 0.083,
      "velocity": 113,
      "chip": "ym2612"
    },
    {
      "channel": 2,
      "note": 66,
      "start": 52.1247,
      "duration": 0.0828,
      "velocity": 99,
      "chip": "ym2612"
    },
    {
      "channel": 3,
      "note": 69,
      "start": 52.1251,
      "duration": 0.0827,
      "velocity": 99,
      "chip": "ym2612"
    },
    {
      "channel": 4,
      "note": 78,
      "start": 52.1254,
      "duration": 0.0825,
      "velocity": 116,
      "chip": "ym2612"
    },
    {
      "channel": 0,
      "note": 32,
      "start": 52.2926,
      "duration": 0.0832,
      "velocity": 127,
      "chip": "ym2612"
    },
    {
      "channel": 1,
      "note": 49,
      "start": 52.2929,
      "duration": 0.083,
      "velocity": 113,
      "chip": "ym2612"
    },
    {
      "channel": 2,
      "note": 66,
      "start": 52.2933,
      "duration": 0.0828,
      "velocity": 99,
      "chip": "ym2612"
    },
    {
      "channel": 3,
      "note": 69,
      "start": 52.2937,
      "duration": 0.0827,
      "velocity": 99,
      "chip": "ym2612"
    },
    {
      "channel": 4,
      "note": 81,
      "start": 52.294,
      "duration": 0.0825,
      "velocity": 116,
      "chip": "ym2612"
    },
    {
      "channel": 0,
      "note": 25,
      "start": 52.4612,
      "duration": 0.0831,
      "velocity": 127,
      "chip": "ym2612"
    },
    {
      "channel": 1,
      "note": 50,
      "start": 52.4615,
      "duration": 0.083,
      "velocity": 113,
      "chip": "ym2612"
    },
    {
      "channel": 2,
      "note": 62,
      "start": 52.4618,
      "duration": 0.0829,
      "velocity": 99,
      "chip": "ym2612"
    },
    {
      "channel": 3,
      "note": 66,
      "start": 52.4622,
      "duration": 0.0827,
      "velocity": 99,
      "chip": "ym2612"
    },
    {
      "channel": 4,
      "note": 74,
      "start": 52.4625,
      "duration": 0.0826,
      "velocity": 116,
      "chip": "ym2612"
    },
    {
      "channel": 2,
      "note": 62,
      "start": 52.6293,
      "duration": 0.0841,
      "velocity": 99,
      "chip": "ym2612"
    },
    {
      "channel": 3,
      "note": 66,
      "start": 52.6296,
      "duration": 0.084,
      "velocity": 99,
      "chip": "ym2612"
    },
    {
      "channel": 0,
      "note": 32,
      "start": 52.7983,
      "duration": 0.1,
      "velocity": 127,
      "chip": "ym2612"
    },
    {
      "channel": 1,
      "note": 45,
      "start": 52.7986,
      "duration": 0.0999,
      "velocity": 113,
      "chip": "ym2612"
    },
    {
      "channel": 2,
      "note": 62,
      "start": 52.7989,
      "duration": 0.0997,
      "velocity": 99,
      "chip": "ym2612"
    },
    {
      "channel": 3,
      "note": 66,
      "start": 52.7993,
      "duration": 0.0995,
      "velocity": 99,
      "chip": "ym2612"
    },
    {
      "channel": 0,
      "note": 25,
      "start": 52.9837,
      "duration": 0.0832,
      "velocity": 127,
      "chip": "ym2612"
    },
    {
      "channel": 2,
      "note": 62,
      "start": 52.9842,
      "duration": 0.083,
      "velocity": 99,
      "chip": "ym2612"
    },
    {
      "channel": 3,
      "note": 66,
      "start": 52.9845,
      "duration": 0.0828,
      "velocity": 99,
      "chip": "ym2612"
    },
    {
      "channel": 1,
      "note": 50,
      "start": 53.1515,
      "duration": 0.0841,
      "velocity": 113,
      "chip": "ym2612"
    },
    {
      "channel": 2,
      "note": 62,
      "start": 53.1519,
      "duration": 0.0839,
      "velocity": 99,
      "chip": "ym2612"
    },
    {
      "channel": 3,
      "note": 66,
      "start": 53.1522,
      "duration": 0.0838,
      "velocity": 99,
      "chip": "ym2612"
    },
    {
      "channel": 4,
      "note": 74,
      "start": 53.1525,
      "duration": 0.0836,
      "velocity": 116,
      "chip": "ym2612"
    },
    {
      "channel": 0,
      "note": 25,
      "start": 53.3207,
      "duration": 0.0831,
      "velocity": 127,
      "chip": "ym2612"
    },
    {
      "channel": 2,
      "note": 62,
      "start": 53.3213,
      "duration": 0.0829,
      "velocity": 99,
      "chip": "ym2612"
    },
    {
      "channel": 3,
      "note": 66,
      "start": 53.3216,
      "duration": 0.0828,
      "velocity": 99,
      "chip": "ym2612"
    },
    {
      "channel": 0,
      "note": 32,
      "start": 53.4893,
      "duration": 0.1,
      "velocity": 127,
      "chip": "ym2612"
    },
    {
      "channel": 1,
      "note": 45,
      "start": 53.4896,
      "duration": 0.0999,
      "velocity": 113,
      "chip": "ym2612"
    },
    {
      "channel": 2,
      "note": 62,
      "start": 53.49,
      "duration": 0.0997,
      "velocity": 99,
      "chip": "ym2612"
    },
    {
      "channel": 3,
      "note": 66,
      "start": 53.4903,
      "duration": 0.0995,
      "velocity": 99,
      "chip": "ym2612"
    },
    {
      "channel": 0,
      "note": 32,
      "start": 53.6746,
      "duration": 0.0832,
      "velocity": 127,
      "chip": "ym2612"
    },
    {
      "channel": 2,
      "note": 62,
      "start": 53.6752,
      "duration": 0.083,
      "velocity": 99,
      "chip": "ym2612"
    },
    {
      "channel": 3,
      "note": 66,
      "start": 53.6755,
      "duration": 0.0828,
      "velocity": 99,
      "chip": "ym2612"
    },
    {
      "channel": 0,
      "note": 25,
      "start": 53.8432,
      "duration": 0.0832,
      "velocity": 127,
      "chip": "ym2612"
    },
    {
      "channel": 1,
      "note": 50,
      "start": 53.8435,
      "duration": 0.083,
      "velocity": 113,
      "chip": "ym2612"
    },
    {
      "channel": 2,
      "note": 62,
      "start": 53.8438,
      "duration": 0.0829,
      "velocity": 99,
      "chip": "ym2612"
    },
    {
      "channel": 3,
      "note": 66,
      "start": 53.8441,
      "duration": 0.0827,
      "velocity": 99,
      "chip": "ym2612"
    },
    {
      "channel": 2,
      "note": 62,
      "start": 54.0113,
      "duration": 0.0841,
      "velocity": 99,
      "chip": "ym2612"
    },
    {
      "channel": 3,
      "note": 66,
      "start": 54.0116,
      "duration": 0.0839,
      "velocity": 99,
      "chip": "ym2612"
    },
    {
      "channel": 4,
      "note": 74,
      "start": 54.0119,
      "duration": 0.0838,
      "velocity": 116,
      "chip": "ym2612"
    },
    {
      "channel": 0,
      "note": 32,
      "start": 54.1803,
      "duration": 0.1,
      "velocity": 127,
      "chip": "ym2612"
    },
    {
      "channel": 1,
      "note": 45,
      "start": 54.1806,
      "duration": 0.0998,
      "velocity": 113,
      "chip": "ym2612"
    },
    {
      "channel": 2,
      "note": 62,
      "start": 54.1809,
      "duration": 0.0997,
      "velocity": 99,
      "chip": "ym2612"
    },
    {
      "channel": 3,
      "note": 66,
      "start": 54.1812,
      "duration": 0.0995,
      "velocity": 99,
      "chip": "ym2612"
    },
    {
      "channel": 4,
      "note": 78,
      "start": 54.1816,
      "duration": 0.0994,
      "velocity": 116,
      "chip": "ym2612"
    },
    {
      "channel": 0,
      "note": 25,
      "start": 54.3656,
      "duration": 0.0832,
      "velocity": 127,
      "chip": "ym2612"
    },
    {
      "channel": 2,
      "note": 62,
      "start": 54.3662,
      "duration": 0.0829,
      "velocity": 99,
      "chip": "ym2612"
    },
    {
      "channel": 3,
      "note": 66,
      "start": 54.3666,
      "duration": 0.0828,
      "velocity": 99,
      "chip": "ym2612"
    },
    {
      "channel": 4,
      "note": 80,
      "start": 54.3669,
      "duration": 0.0826,
      "velocity": 116,
      "chip": "ym2612"
    },
    {
      "channel": 0,
      "note": 25,
      "start": 54.5342,
      "duration": 0.0831,
      "velocity": 127,
      "chip": "ym2612"
    },
    {
      "channel": 1,
      "note": 50,
      "start": 54.5345,
      "duration": 0.083,
      "velocity": 113,
      "chip": "ym2612"
    },
    {
      "channel": 2,
      "note": 62,
      "start": 54.5349,
      "duration": 0.0828,
      "velocity": 99,
      "chip": "ym2612"
    },
    {
      "channel": 3,
      "note": 66,
      "start": 54.5352,
      "duration": 0.0826,
      "velocity": 99,
      "chip": "ym2612"
    },
    {
      "channel": 4,
      "note": 81,
      "start": 54.5355,
      "duration": 0.0825,
      "velocity": 116,
      "chip": "ym2612"
    },
    {
      "channel": 0,
      "note": 32,
      "start": 54.7027,
      "duration": 0.0832,
      "velocity": 127,
      "chip": "ym2612"
    },
    {
      "channel": 1,
      "note": 45,
      "start": 54.703,
      "duration": 0.083,
      "velocity": 113,
      "chip": "ym2612"
    },
    {
      "channel": 2,
      "note": 62,
      "start": 54.7034,
      "duration": 0.0828,
      "velocity": 99,
      "chip": "ym2612"
    },
    {
      "channel": 3,
      "note": 66,
      "start": 54.7037,
      "duration": 0.0826,
      "velocity": 99,
      "chip": "ym2612"
    },
    {
      "channel": 4,
      "note": 80,
      "start": 54.704,
      "duration": 0.0825,
      "velocity": 116,
      "chip": "ym2612"
    },
    {
      "channel": 0,
      "note": 32,
      "start": 54.8712,
      "duration": 0.0832,
      "velocity": 127,
      "chip": "ym2612"
    },
    {
      "channel": 1,
      "note": 50,
      "start": 54.8716,
      "duration": 0.083,
      "velocity": 113,
      "chip": "ym2612"
    },
    {
      "channel": 2,
      "note": 62,
      "start": 54.8719,
      "duration": 0.0828,
      "velocity": 99,
      "chip": "ym2612"
    },
    {
      "channel": 3,
      "note": 66,
      "start": 54.8722,
      "duration": 0.0827,
      "velocity": 99,
      "chip": "ym2612"
    },
    {
      "channel": 4,
      "note": 78,
      "start": 54.8725,
      "duration": 0.0825,
      "velocity": 116,
      "chip": "ym2612"
    },
    {
      "channel": 0,
      "note": 32,
      "start": 55.0566,
      "duration": 0.0831,
      "velocity": 127,
      "chip": "ym2612"
    },
    {
      "channel": 1,
      "note": 45,
      "start": 55.0569,
      "duration": 0.083,
      "velocity": 113,
      "chip": "ym2612"
    },
    {
      "channel": 2,
      "note": 62,
      "start": 55.0573,
      "duration": 0.0828,
      "velocity": 99,
      "chip": "ym2612"
    },
    {
      "channel": 3,
      "note": 66,
      "start": 55.0576,
      "duration": 0.0827,
      "velocity": 99,
      "chip": "ym2612"
    },
    {
      "channel": 4,
      "note": 80,
      "start": 55.058,
      "duration": 0.0825,
      "velocity": 116,
      "chip": "ym2612"
    },
    {
      "channel": 0,
      "note": 25,
      "start": 55.2254,
      "duration": 0.083,
      "velocity": 127,
      "chip": "ym2612"
    },
    {
      "channel": 1,
      "note": 54,
      "start": 55.2268,
      "duration": 0.0817,
      "velocity": 113,
      "chip": "ym2612"
    },
    {
      "channel": 2,
      "note": 66,
      "start": 55.2283,
      "duration": 0.0804,
      "velocity": 99,
      "chip": "ym2612"
    },
    {
      "channel": 3,
      "note": 69,
      "start": 55.2296,
      "duration": 0.0792,
      "velocity": 99,
      "chip": "ym2612"
    },
    {
      "channel": 4,
      "note": 73,
      "start": 55.2311,
      "duration": 0.0779,
      "velocity": 116,
      "chip": "ym2612"
    },
    {
      "channel": 2,
      "note": 66,
      "start": 55.3932,
      "duration": 0.0841,
      "velocity": 99,
      "chip": "ym2612"
    },
    {
      "channel": 3,
      "note": 69,
      "start": 55.3936,
      "duration": 0.0839,
      "velocity": 99,
      "chip": "ym2612"
    },
    {
      "channel": 0,
      "note": 32,
      "start": 55.5622,
      "duration": 0.0831,
      "velocity": 127,
      "chip": "ym2612"
    },
    {
      "channel": 1,
      "note": 49,
      "start": 55.5626,
      "duration": 0.0829,
      "velocity": 113,
      "chip": "ym2612"
    },
    {
      "channel": 2,
      "note": 66,
      "start": 55.5629,
      "duration": 0.0828,
      "velocity": 99,
      "chip": "ym2612"
    },
    {
      "channel": 3,
      "note": 69,
      "start": 55.5632,
      "duration": 0.0826,
      "velocity": 99,
      "chip": "ym2612"
    },
    {
      "channel": 0,
      "note": 25,
      "start": 55.7476,
      "duration": 0.0832,
      "velocity": 127,
      "chip": "ym2612"
    },
    {
      "channel": 2,
      "note": 66,
      "start": 55.7482,
      "duration": 0.083,
      "velocity": 99,
      "chip": "ym2612"
    },
    {
      "channel": 3,
      "note": 69,
      "start": 55.7485,
      "duration": 0.0829,
      "velocity": 99,
      "chip": "ym2612"
    },
    {
      "channel": 1,
      "note": 54,
      "start": 55.9155,
      "duration": 0.0841,
      "velocity": 113,
      "chip": "ym2612"
    },
    {
      "channel": 2,
      "note": 66,
      "start": 55.9158,
      "duration": 0.084,
      "velocity": 99,
      "chip": "ym2612"
    },
    {
      "channel": 3,
      "note": 69,
      "start": 55.9161,
      "duration": 0.0838,
      "velocity": 99,
      "chip": "ym2612"
    },
    {
      "channel": 4,
      "note": 73,
      "start": 55.9165,
      "duration": 0.0836,
      "velocity": 116,
      "chip": "ym2612"
    },
    {
      "channel": 0,
      "note": 25,
      "start": 56.0847,
      "duration": 0.0832,
      "velocity": 127,
      "chip": "ym2612"
    },
    {
      "channel": 2,
      "note": 66,
      "start": 56.0852,
      "duration": 0.083,
      "velocity": 99,
      "chip": "ym2612"
    },
    {
      "channel": 3,
      "note": 69,
      "start": 56.0856,
      "duration": 0.0828,
      "velocity": 99,
      "chip": "ym2612"
    },
    {
      "channel": 0,
      "note": 32,
      "start": 56.2532,
      "duration": 0.0832,
      "velocity": 127,
      "chip": "ym2612"
    },
    {
      "channel": 1,
      "note": 49,
      "start": 56.2536,
      "duration": 0.083,
      "velocity": 113,
      "chip": "ym2612"
    },
    {
      "channel": 2,
      "note": 66,
      "start": 56.2539,
      "duration": 0.0828,
      "velocity": 99,
      "chip": "ym2612"
    },
    {
      "channel": 3,
      "note": 69,
      "start": 56.2542,
      "duration": 0.0827,
      "velocity": 99,
      "chip": "ym2612"
    },
    {
      "channel": 0,
      "note": 32,
      "start": 56.4386,
      "duration": 0.0832,
      "velocity": 127,
      "chip": "ym2612"
    },
    {
      "channel": 2,
      "note": 66,
      "start": 56.4392,
      "duration": 0.0829,
      "velocity": 99,
      "chip": "ym2612"
    },
    {
      "channel": 3,
      "note": 69,
      "start": 56.4395,
      "duration": 0.0828,
      "velocity": 99,
      "chip": "ym2612"
    },
    {
      "channel": 0,
      "note": 25,
      "start": 56.6071,
      "duration": 0.0832,
      "velocity": 127,
      "chip": "ym2612"
    },
    {
      "channel": 1,
      "note": 54,
      "start": 56.6075,
      "duration": 0.0829,
      "velocity": 113,
      "chip": "ym2612"
    },
    {
      "channel": 2,
      "note": 66,
      "start": 56.6078,
      "duration": 0.0828,
      "velocity": 99,
      "chip": "ym2612"
    },
    {
      "channel": 3,
      "note": 69,
      "start": 56.6081,
      "duration": 0.0827,
      "velocity": 99,
      "chip": "ym2612"
    },
    {
      "channel": 2,
      "note": 66,
      "start": 56.7752,
      "duration": 0.0841,
      "velocity": 99,
      "chip": "ym2612"
    },
    {
      "channel": 3,
      "note": 69,
      "start": 56.7755,
      "duration": 0.084,
      "velocity": 99,
      "chip": "ym2612"
    },
    {
      "channel": 4,
      "note": 73,
      "start": 56.7759,
      "duration": 0.0837,
      "velocity": 116,
      "chip": "ym2612"
    },
    {
      "channel": 0,
      "note": 32,
      "start": 56.9442,
      "duration": 0.0831,
      "velocity": 127,
      "chip": "ym2612"
    },
    {
      "channel": 1,
      "note": 49,
      "start": 56.9446,
      "duration": 0.0829,
      "velocity": 113,
      "chip": "ym2612"
    },
    {
      "channel": 2,
      "note": 66,
      "start": 56.9449,
      "duration": 0.0828,
      "velocity": 99,
      "chip": "ym2612"
    },
    {
      "channel": 3,
      "note": 69,
      "start": 56.9452,
      "duration": 0.0826,
      "velocity": 99,
      "chip": "ym2612"
    },
    {
      "channel": 4,
      "note": 78,
      "start": 56.9456,
      "duration": 0.0825,
      "velocity": 116,
      "chip": "ym2612"
    },
    {
      "channel": 0,
      "note": 25,
      "start": 57.1127,
      "duration": 0.1001,
      "velocity": 127,
      "chip": "ym2612"
    },
    {
      "channel": 2,
      "note": 66,
      "start": 57.1133,
      "duration": 0.0999,
      "velocity": 99,
      "chip": "ym2612"
    },
    {
      "channel": 3,
      "note": 69,
      "start": 57.1136,
      "duration": 0.0998,
      "velocity": 99,
      "chip": "ym2612"
    },
    {
      "channel": 4,
      "note": 80,
      "start": 57.1139,
      "duration": 0.0995,
      "velocity": 116,
      "chip": "ym2612"
    },
    {
      "channel": 1,
      "note": 54,
      "start": 57.2975,
      "duration": 0.0841,
      "velocity": 113,
      "chip": "ym2612"
    },
    {
      "channel": 2,
      "note": 66,
      "start": 57.2978,
      "duration": 0.0839,
      "velocity": 99,
      "chip": "ym2612"
    },
    {
      "channel": 3,
      "note": 69,
      "start": 57.2981,
      "duration": 0.0838,
      "velocity": 99,
      "chip": "ym2612"
    },
    {
      "channel": 4,
      "note": 81,
      "start": 57.2984,
      "duration": 0.0836,
      "velocity": 116,
      "chip": "ym2612"
    },
    {
      "channel": 0,
      "note": 25,
      "start": 57.4667,
      "duration": 0.0832,
      "velocity": 127,
      "chip": "ym2612"
    },
    {
      "channel": 1,
      "note": 49,
      "start": 57.467,
      "duration": 0.083,
      "velocity": 113,
      "chip": "ym2612"
    },
    {
      "channel": 2,
      "note": 66,
      "start": 57.4673,
      "duration": 0.0828,
      "velocity": 99,
      "chip": "ym2612"
    },
    {
      "channel": 3,
      "note": 69,
      "start": 57.4677,
      "duration": 0.0826,
      "velocity": 99,
      "chip": "ym2612"
    },
    {
      "channel": 4,
      "note": 80,
      "start": 57.468,
      "duration": 0.0824,
      "velocity": 116,
      "chip": "ym2612"
    },
    {
      "channel": 0,
      "note": 32,
      "start": 57.6352,
      "duration": 0.0832,
      "velocity": 127,
      "chip": "ym2612"
    },
    {
      "channel": 1,
      "note": 54,
      "start": 57.6355,
      "duration": 0.083,
      "velocity": 113,
      "chip": "ym2612"
    },
    {
      "channel": 2,
      "note": 66,
      "start": 57.6359,
      "duration": 0.0828,
      "velocity": 99,
      "chip": "ym2612"
    },
    {
      "channel": 3,
      "note": 69,
      "start": 57.6362,
      "duration": 0.0827,
      "velocity": 99,
      "chip": "ym2612"
    },
    {
      "channel": 4,
      "note": 78,
      "start": 57.6365,
      "duration": 0.0825,
      "velocity": 116,
      "chip": "ym2612"
    },
    {
      "channel": 0,
      "note": 32,
      "start": 57.8038,
      "duration": 0.1,
      "velocity": 127,
      "chip": "ym2612"
    },
    {
      "channel": 1,
      "note": 49,
      "start": 57.8041,
      "duration": 0.0998,
      "velocity": 113,
      "chip": "ym2612"
    },
    {
      "channel": 2,
      "note": 66,
      "start": 57.8044,
      "duration": 0.0997,
      "velocity": 99,
      "chip": "ym2612"
    },
    {
      "channel": 3,
      "note": 69,
      "start": 57.8047,
      "duration": 0.0995,
      "velocity": 99,
      "chip": "ym2612"
    },
    {
      "channel": 4,
      "note": 81,
      "start": 57.805,
      "duration": 0.0994,
      "velocity": 116,
      "chip": "ym2612"
    },
    {
      "channel": 0,
      "note": 25,
      "start": 57.9891,
      "duration": 0.0832,
      "velocity": 127,
      "chip": "ym2612"
    },
    {
      "channel": 1,
      "note": 50,
      "start": 57.9894,
      "duration": 0.083,
      "velocity": 113,
      "chip": "ym2612"
    },
    {
      "channel": 2,
      "note": 62,
      "start": 57.9898,
      "duration": 0.0829,
      "velocity": 99,
      "chip": "ym2612"
    },
    {
      "channel": 3,
      "note": 66,
      "start": 57.9901,
      "duration": 0.0827,
      "velocity": 99,
      "chip": "ym2612"
    },
    {
      "channel": 4,
      "note": 74,
      "start": 57.9905,
      "duration": 0.0825,
      "velocity": 116,
      "chip": "ym2612"
    },
    {
      "channel": 2,
      "note": 62,
      "start": 58.1572,
      "duration": 0.0841,
      "velocity": 99,
      "chip": "ym2612"
    },
    {
      "channel": 3,
      "note": 66,
      "start": 58.1575,
      "duration": 0.084,
      "velocity": 99,
      "chip": "ym2612"
    },
    {
      "channel": 0,
      "note": 32,
      "start": 58.3262,
      "duration": 0.0832,
      "velocity": 127,
      "chip": "ym2612"
    },
    {
      "channel": 1,
      "note": 45,
      "start": 58.3265,
      "duration": 0.083,
      "velocity": 113,
      "chip": "ym2612"
    },
    {
      "channel": 2,
      "note": 62,
      "start": 58.3269,
      "duration": 0.0828,
      "velocity": 99,
      "chip": "ym2612"
    },
    {
      "channel": 3,
      "note": 66,
      "start": 58.3272,
      "duration": 0.0826,
      "velocity": 99,
      "chip": "ym2612"
    },
    {
      "channel": 0,
      "note": 25,
      "start": 58.4947,
      "duration": 0.1001,
      "velocity": 127,
      "chip": "ym2612"
    },
    {
      "channel": 2,
      "note": 62,
      "start": 58.4953,
      "duration": 0.0999,
      "velocity": 99,
      "chip": "ym2612"
    },
    {
      "channel": 3,
      "note": 66,
      "start": 58.4956,
      "duration": 0.0997,
      "velocity": 99,
      "chip": "ym2612"
    },
    {
      "channel": 1,
      "note": 50,
      "start": 58.6795,
      "duration": 0.0841,
      "velocity": 113,
      "chip": "ym2612"
    },
    {
      "channel": 2,
      "note": 62,
      "start": 58.6798,
      "duration": 0.0839,
      "velocity": 99,
      "chip": "ym2612"
    },
    {
      "channel": 3,
      "note": 66,
      "start": 58.6801,
      "duration": 0.0838,
      "velocity": 99,
      "chip": "ym2612"
    },
    {
      "channel": 4,
      "note": 74,
      "start": 58.6804,
      "duration": 0.0837,
      "velocity": 116,
      "chip": "ym2612"
    },
    {
      "channel": 0,
      "note": 25,
      "start": 58.8487,
      "duration": 0.0832,
      "velocity": 127,
      "chip": "ym2612"
    },
    {
      "channel": 2,
      "note": 62,
      "start": 58.8492,
      "duration": 0.083,
      "velocity": 99,
      "chip": "ym2612"
    },
    {
      "channel": 3,
      "note": 66,
      "start": 58.8496,
      "duration": 0.0828,
      "velocity": 99,
      "chip": "ym2612"
    },
    {
      "channel": 0,
      "note": 32,
      "start": 59.0172,
      "duration": 0.0831,
      "velocity": 127,
      "chip": "ym2612"
    },
    {
      "channel": 1,
      "note": 45,
      "start": 59.0176,
      "duration": 0.083,
      "velocity": 113,
      "chip": "ym2612"
    },
    {
      "channel": 2,
      "note": 62,
      "start": 59.0179,
      "duration": 0.0828,
      "velocity": 99,
      "chip": "ym2612"
    },
    {
      "channel": 3,
      "note": 66,
      "start": 59.0182,
      "duration": 0.0827,
      "velocity": 99,
      "chip": "ym2612"
    },
    {
      "channel": 0,
      "note": 32,
      "start": 59.1857,
      "duration": 0.0832,
      "velocity": 127,
      "chip": "ym2612"
    },
    {
      "channel": 2,
      "note": 62,
      "start": 59.1863,
      "duration": 0.083,
      "velocity": 99,
      "chip": "ym2612"
    },
    {
      "channel": 3,
      "note": 66,
      "start": 59.1866,
      "duration": 0.0829,
      "velocity": 99,
      "chip": "ym2612"
    },
    {
      "channel": 0,
      "note": 25,
      "start": 59.3711,
      "duration": 0.0831,
      "velocity": 127,
      "chip": "ym2612"
    },
    {
      "channel": 1,
      "note": 50,
      "start": 59.3715,
      "duration": 0.083,
      "velocity": 113,
      "chip": "ym2612"
    },
    {
      "channel": 2,
      "note": 62,
      "start": 59.3718,
      "duration": 0.0829,
      "velocity": 99,
      "chip": "ym2612"
    },
    {
      "channel": 3,
      "note": 66,
      "start": 59.3721,
      "duration": 0.0827,
      "velocity": 99,
      "chip": "ym2612"
    },
    {
      "channel": 2,
      "note": 62,
      "start": 59.5392,
      "duration": 0.0841,
      "velocity": 99,
      "chip": "ym2612"
    },
    {
      "channel": 3,
      "note": 66,
      "start": 59.5395,
      "duration": 0.0839,
      "velocity": 99,
      "chip": "ym2612"
    },
    {
      "channel": 4,
      "note": 74,
      "start": 59.5398,
      "duration": 0.0838,
      "velocity": 116,
      "chip": "ym2612"
    },
    {
      "channel": 0,
      "note": 32,
      "start": 59.7082,
      "duration": 0.0832,
      "velocity": 127,
      "chip": "ym2612"
    },
    {
      "channel": 1,
      "note": 45,
      "start": 59.7085,
      "duration": 0.083,
      "velocity": 113,
      "chip": "ym2612"
    },
    {
      "channel": 2,
      "note": 62,
      "start": 59.7088,
      "duration": 0.0828,
      "velocity": 99,
      "chip": "ym2612"
    },
    {
      "channel": 3,
      "note": 66,
      "start": 59.7092,
      "duration": 0.0827,
      "velocity": 99,
      "chip": "ym2612"
    },
    {
      "channel": 4,
      "note": 78,
      "start": 59.7095,
      "duration": 0.0824,
      "velocity": 116,
      "chip": "ym2612"
    },
    {
      "channel": 0,
      "note": 25,
      "start": 59.8767,
      "duration": 0.0832,
      "velocity": 127,
      "chip": "ym2612"
    },
    {
      "channel": 2,
      "note": 62,
      "start": 59.8773,
      "duration": 0.0829,
      "velocity": 99,
      "chip": "ym2612"
    },
    {
      "channel": 3,
      "note": 66,
      "start": 59.8776,
      "duration": 0.0828,
      "velocity": 99,
      "chip": "ym2612"
    },
    {
      "channel": 4,
      "note": 80,
      "start": 59.8779,
      "duration": 0.0826,
      "velocity": 116,
      "chip": "ym2612"
    },
    {
      "channel": 0,
      "note": 25,
      "start": 60.0621,
      "duration": 0.0832,
      "velocity": 127,
      "chip": "ym2612"
    },
    {
      "channel": 1,
      "note": 50,
      "start": 60.0625,
      "duration": 0.0829,
      "velocity": 113,
      "chip": "ym2612"
    },
    {
      "channel": 2,
      "note": 62,
      "start": 60.0628,
      "duration": 0.0828,
      "velocity": 99,
      "chip": "ym2612"
    },
    {
      "channel": 3,
      "note": 66,
      "start": 60.0631,
      "duration": 0.0826,
      "velocity": 99,
      "chip": "ym2612"
    },
    {
      "channel": 4,
      "note": 81,
      "start": 60.0634,
      "duration": 0.0825,
      "velocity": 116,
      "chip": "ym2612"
    },
    {
      "channel": 0,
      "note": 32,
      "start": 60.2306,
      "duration": 0.0832,
      "velocity": 127,
      "chip": "ym2612"
    },
    {
      "channel": 1,
      "note": 45,
      "start": 60.2309,
      "duration": 0.083,
      "velocity": 113,
      "chip": "ym2612"
    },
    {
      "channel": 2,
      "note": 62,
      "start": 60.2313,
      "duration": 0.0828,
      "velocity": 99,
      "chip": "ym2612"
    },
    {
      "channel": 3,
      "note": 66,
      "start": 60.2316,
      "duration": 0.0827,
      "velocity": 99,
      "chip": "ym2612"
    },
    {
      "channel": 4,
      "note": 80,
      "start": 60.2319,
      "duration": 0.0825,
      "velocity": 116,
      "chip": "ym2612"
    },
    {
      "channel": 0,
      "note": 32,
      "start": 60.3992,
      "duration": 0.0831,
      "velocity": 127,
      "chip": "ym2612"
    },
    {
      "channel": 1,
      "note": 50,
      "start": 60.3995,
      "duration": 0.083,
      "velocity": 113,
      "chip": "ym2612"
    },
    {
      "channel": 2,
      "note": 62,
      "start": 60.3998,
      "duration": 0.0828,
      "velocity": 99,
      "chip": "ym2612"
    },
    {
      "channel": 3,
      "note": 66,
      "start": 60.4001,
      "duration": 0.0827,
      "velocity": 99,
      "chip": "ym2612"
    },
    {
      "channel": 4,
      "note": 78,
      "start": 60.4005,
      "duration": 0.0825,
      "velocity": 116,
      "chip": "ym2612"
    },
    {
      "channel": 0,
      "note": 32,
      "start": 60.5677,
      "duration": 0.0832,
      "velocity": 127,
      "chip": "ym2612"
    },
    {
      "channel": 1,
      "note": 45,
      "start": 60.568,
      "duration": 0.083,
      "velocity": 113,
      "chip": "ym2612"
    },
    {
      "channel": 2,
      "note": 62,
      "start": 60.5683,
      "duration": 0.0829,
      "velocity": 99,
      "chip": "ym2612"
    },
    {
      "channel": 3,
      "note": 66,
      "start": 60.5687,
      "duration": 0.0826,
      "velocity": 99,
      "chip": "ym2612"
    },
    {
      "channel": 4,
      "note": 80,
      "start": 60.569,
      "duration": 0.0825,
      "velocity": 116,
      "chip": "ym2612"
    },
    {
      "channel": 0,
      "note": 25,
      "start": 60.7533,
      "duration": 0.0829,
      "velocity": 127,
      "chip": "ym2612"
    },
    {
      "channel": 1,
      "note": 47,
      "start": 60.7547,
      "duration": 0.0817,
      "velocity": 113,
      "chip": "ym2612"
    },
    {
      "channel": 2,
      "note": 59,
      "start": 60.7562,
      "duration": 0.0805,
      "velocity": 99,
      "chip": "ym2612"
    },
    {
      "channel": 3,
      "note": 62,
      "start": 60.7576,
      "duration": 0.0792,
      "velocity": 99,
      "chip": "ym2612"
    },
    {
      "channel": 4,
      "note": 71,
      "start": 60.759,
      "duration": 0.0779,
      "velocity": 116,
      "chip": "ym2612"
    },
    {
      "channel": 2,
      "note": 59,
      "start": 60.9212,
      "duration": 0.0841,
      "velocity": 99,
      "chip": "ym2612"
    },
    {
      "channel": 3,
      "note": 62,
      "start": 60.9215,
      "duration": 0.0839,
      "velocity": 99,
      "chip": "ym2612"
    },
    {
      "channel": 0,
      "note": 32,
      "start": 61.0902,
      "duration": 0.0832,
      "velocity": 127,
      "chip": "ym2612"
    },
    {
      "channel": 1,
      "note": 42,
      "start": 61.0905,
      "duration": 0.0829,
      "velocity": 113,
      "chip": "ym2612"
    },
    {
      "channel": 2,
      "note": 59,
      "start": 61.0908,
      "duration": 0.0828,
      "velocity": 99,
      "chip": "ym2612"
    },
    {
      "channel": 3,
      "note": 62,
      "start": 61.0912,
      "duration": 0.0827,
      "velocity": 99,
      "chip": "ym2612"
    },
    {
      "channel": 0,
      "note": 25,
      "start": 61.2587,
      "duration": 0.0832,
      "velocity": 127,
      "chip": "ym2612"
    },
    {
      "channel": 2,
      "note": 59,
      "start": 61.2592,
      "duration": 0.083,
      "velocity": 99,
      "chip": "ym2612"
    },
    {
      "channel": 3,
      "note": 62,
      "start": 61.2596,
      "duration": 0.0828,
      "velocity": 99,
      "chip": "ym2612"
    },
    {
      "channel": 1,
      "note": 47,
      "start": 61.4265,
      "duration": 0.101,
      "velocity": 113,
      "chip": "ym2612"
    },
    {
      "channel": 2,
      "note": 59,
      "start": 61.4268,
      "duration": 0.1008,
      "velocity": 99,
      "chip": "ym2612"
    },
    {
      "channel": 3,
      "note": 62,
      "start": 61.4272,
      "duration": 0.1006,
      "velocity": 99,
      "chip": "ym2612"
    },
    {
      "channel": 4,
      "note": 71,
      "start": 61.4276,
      "duration": 0.1005,
      "velocity": 116,
      "chip": "ym2612"
    },
    {
      "channel": 0,
      "note": 25,
      "start": 61.6127,
      "duration": 0.0832,
      "velocity": 127,
      "chip": "ym2612"
    },
    {
      "channel": 2,
      "note": 59,
      "start": 61.6132,
      "duration": 0.083,
      "velocity": 99,
      "chip": "ym2612"
    },
    {
      "channel": 3,
      "note": 62,
      "start": 61.6136,
      "duration": 0.0827,
      "velocity": 99,
      "chip": "ym2612"
    },
    {
      "channel": 0,
      "note": 32,
      "start": 61.7812,
      "duration": 0.0831,
      "velocity": 127,
      "chip": "ym2612"
    },
    {
      "channel": 1,
      "note": 42,
      "start": 61.7815,
      "duration": 0.083,
      "velocity": 113,
      "chip": "ym2612"
    },
    {
      "channel": 2,
      "note": 59,
      "start": 61.7818,
      "duration": 0.0828,
      "velocity": 99,
      "chip": "ym2612"
    },
    {
      "channel": 3,
      "note": 62,
      "start": 61.7821,
      "duration": 0.0827,
      "velocity": 99,
      "chip": "ym2612"
    },
    {
      "channel": 0,
      "note": 32,
      "start": 61.9497,
      "duration": 0.0832,
      "velocity": 127,
      "chip": "ym2612"
    },
    {
      "channel": 2,
      "note": 59,
      "start": 61.9502,
      "duration": 0.083,
      "velocity": 99,
      "chip": "ym2612"
    },
    {
      "channel": 3,
      "note": 62,
      "start": 61.9506,
      "duration": 0.0828,
      "velocity": 99,
      "chip": "ym2612"
    },
    {
      "channel": 0,
      "note": 25,
      "start": 62.1182,
      "duration": 0.1001,
      "velocity": 127,
      "chip": "ym2612"
    },
    {
      "channel": 1,
      "note": 47,
      "start": 62.1186,
      "duration": 0.0999,
      "velocity": 113,
      "chip": "ym2612"
    },
    {
      "channel": 2,
      "note": 59,
      "start": 62.1189,
      "duration": 0.0997,
      "velocity": 99,
      "chip": "ym2612"
    },
    {
      "channel": 3,
      "note": 62,
      "start": 62.1192,
      "duration": 0.0996,
      "velocity": 99,
      "chip": "ym2612"
    },
    {
      "channel": 2,
      "note": 59,
      "start": 62.3031,
      "duration": 0.0841,
      "velocity": 99,
      "chip": "ym2612"
    },
    {
      "channel": 3,
      "note": 62,
      "start": 62.3035,
      "duration": 0.0839,
      "velocity": 99,
      "chip": "ym2612"
    },
    {
      "channel": 4,
      "note": 71,
      "start": 62.3038,
      "duration": 0.0838,
      "velocity": 116,
      "chip": "ym2612"
    },
    {
      "channel": 0,
      "note": 32,
      "start": 62.4721,
      "duration": 0.0832,
      "velocity": 127,
      "chip": "ym2612"
    },
    {
      "channel": 1,
      "note": 42,
      "start": 62.4725,
      "duration": 0.0829,
      "velocity": 113,
      "chip": "ym2612"
    },
    {
      "channel": 2,
      "note": 59,
      "start": 62.4728,
      "duration": 0.0828,
      "velocity": 99,
      "chip": "ym2612"
    },
    {
      "channel": 3,
      "note": 62,
      "start": 62.4732,
      "duration": 0.0826,
      "velocity": 99,
      "chip": "ym2612"
    },
    {
      "channel": 4,
      "note": 74,
      "start": 62.4735,
      "duration": 0.0825,
      "velocity": 116,
      "chip": "ym2612"
    },
    {
      "channel": 0,
      "note": 25,
      "start": 62.6407,
      "duration": 0.0832,
      "velocity": 127,
      "chip": "ym2612"
    },
    {
      "channel": 2,
      "note": 59,
      "start": 62.6412,
      "duration": 0.083,
      "velocity": 99,
      "chip": "ym2612"
    },
    {
      "channel": 3,
      "note": 62,
      "start": 62.6415,
      "duration": 0.0829,
      "velocity": 99,
      "chip": "ym2612"
    },
    {
      "channel": 4,
      "note": 76,
      "start": 62.6419,
      "duration": 0.0827,
      "velocity": 116,
      "chip": "ym2612"
    },
    {
      "channel": 1,
      "note": 47,
      "start": 62.8085,
      "duration": 0.101,
      "velocity": 113,
      "chip": "ym2612"
    },
    {
      "channel": 2,
      "note": 59,
      "start": 62.8088,
      "duration": 0.1008,
      "velocity": 99,
      "chip": "ym2612"
    },
    {
      "channel": 3,
      "note": 62,
      "start": 62.8092,
      "duration": 0.1006,
      "velocity": 99,
      "chip": "ym2612"
    },
    {
      "channel": 4,
      "note": 78,
      "start": 62.8095,
      "duration": 0.1005,
      "velocity": 116,
      "chip": "ym2612"
    },
    {
      "channel": 0,
      "note": 25,
      "start": 62.9946,
      "duration": 0.0831,
      "velocity": 127,
      "chip": "ym2612"
    },
    {
      "channel": 1,
      "note": 42,
      "start": 62.9949,
      "duration": 0.083,
      "velocity": 113,
      "chip": "ym2612"
    },
    {
      "channel": 2,
      "note": 59,
      "start": 62.9953,
      "duration": 0.0827,
      "velocity": 99,
      "chip": "ym2612"
    },
    {
      "channel": 3,
      "note": 62,
      "start": 62.9956,
      "duration": 0.0826,
      "velocity": 99,
      "chip": "ym2612"
    },
    {
      "channel": 4,
      "note": 76,
      "start": 62.9959,
      "duration": 0.0825,
      "velocity": 116,
      "chip": "ym2612"
    },
    {
      "channel": 0,
      "note": 32,
      "start": 63.1631,
      "duration": 0.0832,
      "velocity": 127,
      "chip": "ym2612"
    },
    {
      "channel": 1,
      "note": 47,
      "start": 63.1634,
      "duration": 0.083,
      "velocity": 113,
      "chip": "ym2612"
    },
    {
      "channel": 2,
      "note": 59,
      "start": 63.1638,
      "duration": 0.0828,
      "velocity": 99,
      "chip": "ym2612"
    },
    {
      "channel": 3,
      "note": 62,
      "start": 63.1641,
      "duration": 0.0826,
      "velocity": 99,
      "chip": "ym2612"
    },
    {
      "channel": 4,
      "note": 74,
      "start": 63.1644,
      "duration": 0.0825,
      "velocity": 116,
      "chip": "ym2612"
    },
    {
      "channel": 0,
      "note": 32,
      "start": 63.3317,
      "duration": 0.0832,
      "velocity": 127,
      "chip": "ym2612"
    },
    {
      "channel": 1,
      "note": 42,
      "start": 63.332,
      "duration": 0.083,
      "velocity": 113,
      "chip": "ym2612"
    },
    {
      "channel": 2,
      "note": 59,
      "start": 63.3323,
      "duration": 0.0828,
      "velocity": 99,
      "chip": "ym2612"
    },
    {
      "channel": 3,
      "note": 62,
      "start": 63.3326,
      "duration": 0.0827,
      "velocity": 99,
      "chip": "ym2612"
    },
    {
      "channel": 4,
      "note": 76,
      "start": 63.3329,
      "duration": 0.0825,
      "velocity": 116,
      "chip": "ym2612"
    },
    {
      "channel": 0,
      "note": 25,
      "start": 63.5002,
      "duration": 0.0832,
      "velocity": 127,
      "chip": "ym2612"
    },
    {
      "channel": 1,
      "note": 50,
      "start": 63.5005,
      "duration": 0.083,
      "velocity": 113,
      "chip": "ym2612"
    },
    {
      "channel": 2,
      "note": 62,
      "start": 63.5008,
      "duration": 0.0829,
      "velocity": 99,
      "chip": "ym2612"
    },
    {
      "channel": 3,
      "note": 66,
      "start": 63.5012,
      "duration": 0.0827,
      "velocity": 99,
      "chip": "ym2612"
    },
    {
      "channel": 4,
      "note": 69,
      "start": 63.5015,
      "duration": 0.0825,
      "velocity": 116,
      "chip": "ym2612"
    },
    {
      "channel": 2,
      "note": 62,
      "start": 63.6851,
      "duration": 0.0841,
      "velocity": 99,
      "chip": "ym2612"
    },
    {
      "channel": 3,
      "note": 66,
      "start": 63.6854,
      "duration": 0.084,
      "velocity": 99,
      "chip": "ym2612"
    },
    {
      "channel": 0,
      "note": 32,
      "start": 63.8541,
      "duration": 0.0832,
      "velocity": 127,
      "chip": "ym2612"
    },
    {
      "channel": 1,
      "note": 45,
      "start": 63.8545,
      "duration": 0.0829,
      "velocity": 113,
      "chip": "ym2612"
    },
    {
      "channel": 2,
      "note": 62,
      "start": 63.8548,
      "duration": 0.0828,
      "velocity": 99,
      "chip": "ym2612"
    },
    {
      "channel": 3,
      "note": 66,
      "start": 63.8551,
      "duration": 0.0827,
      "velocity": 99,
      "chip": "ym2612"
    },
    {
      "channel": 0,
      "note": 25,
      "start": 64.0227,
      "duration": 0.0832,
      "velocity": 127,
      "chip": "ym2612"
    },
    {
      "channel": 2,
      "note": 62,
      "start": 64.0232,
      "duration": 0.083,
      "velocity": 99,
      "chip": "ym2612"
    },
    {
      "channel": 3,
      "note": 66,
      "start": 64.0235,
      "duration": 0.0829,
      "velocity": 99,
      "chip": "ym2612"
    },
    {
      "channel": 1,
      "note": 50,
      "start": 64.1905,
      "duration": 0.0841,
      "velocity": 113,
      "chip": "ym2612"
    },
    {
      "channel": 2,
      "note": 62,
      "start": 64.1908,
      "duration": 0.0839,
      "velocity": 99,
      "chip": "ym2612"
    },
    {
      "channel": 3,
      "note": 66,
      "start": 64.1912,
      "duration": 0.0838,
      "velocity": 99,
      "chip": "ym2612"
    },
    {
      "channel": 4,
      "note": 69,
      "start": 64.1915,
      "duration": 0.0837,
      "velocity": 116,
      "chip": "ym2612"
    },
    {
      "channel": 0,
      "note": 25,
      "start": 64.3766,
      "duration": 0.0831,
      "velocity": 127,
      "chip": "ym2612"
    },
    {
      "channel": 2,
      "note": 62,
      "start": 64.3772,
      "duration": 0.0829,
      "velocity": 99,
      "chip": "ym2612"
    },
    {
      "channel": 3,
      "note": 66,
      "start": 64.3775,
      "duration": 0.0828,
      "velocity": 99,
      "chip": "ym2612"
    },
    {
      "channel": 0,
      "note": 32,
      "start": 64.5451,
      "duration": 0.0832,
      "velocity": 127,
      "chip": "ym2612"
    },
    {
      "channel": 1,
      "note": 45,
      "start": 64.5455,
      "duration": 0.0829,
      "velocity": 113,
      "chip": "ym2612"
    },
    {
      "channel": 2,
      "note": 62,
      "start": 64.5458,
      "duration": 0.0828,
      "velocity": 99,
      "chip": "ym2612"
    },
    {
      "channel": 3,
      "note": 66,
      "start": 64.5461,
      "duration": 0.0827,
      "velocity": 99,
      "chip": "ym2612"
    },
    {
      "channel": 0,
      "note": 32,
      "start": 64.7137,
      "duration": 0.0832,
      "velocity": 127,
      "chip": "ym2612"
    },
    {
      "channel": 2,
      "note": 62,
      "start": 64.7142,
      "duration": 0.083,
      "velocity": 99,
      "chip": "ym2612"
    },
    {
      "channel": 3,
      "note": 66,
      "start": 64.7146,
      "duration": 0.0828,
      "velocity": 99,
      "chip": "ym2612"
    },
    {
      "channel": 0,
      "note": 25,
      "start": 64.8822,
      "duration": 0.0831,
      "velocity": 127,
      "chip": "ym2612"
    },
    {
      "channel": 1,
      "note": 50,
      "start": 64.8825,
      "duration": 0.083,
      "velocity": 113,
      "chip": "ym2612"
    },
    {
      "channel": 2,
      "note": 62,
      "start": 64.8829,
      "duration": 0.0828,
      "velocity": 99,
      "chip": "ym2612"
    },
    {
      "channel": 3,
      "note": 66,
      "start": 64.8832,
      "duration": 0.0826,
      "velocity": 99,
      "chip": "ym2612"
    },
    {
      "channel": 2,
      "note": 62,
      "start": 65.0671,
      "duration": 0.0841,
      "velocity": 99,
      "chip": "ym2612"
    },
    {
      "channel": 3,
      "note": 66,
      "start": 65.0674,
      "duration": 0.084,
      "velocity": 99,
      "chip": "ym2612"
    },
    {
      "channel": 4,
      "note": 69,
      "start": 65.0678,
      "duration": 0.0838,
      "velocity": 116,
      "chip": "ym2612"
    },
    {
      "channel": 0,
      "note": 32,
      "start": 65.2361,
      "duration": 0.0831,
      "velocity": 127,
      "chip": "ym2612"
    },
    {
      "channel": 1,
      "note": 45,
      "start": 65.2365,
      "duration": 0.083,
      "velocity": 113,
      "chip": "ym2612"
    },
    {
      "channel": 2,
      "note": 62,
      "start": 65.2368,
      "duration": 0.0828,
      "velocity": 99,
      "chip": "ym2612"
    },
    {
      "channel": 3,
      "note": 66,
      "start": 65.2371,
      "duration": 0.0827,
      "velocity": 99,
      "chip": "ym2612"
    },
    {
      "channel": 4,
      "note": 74,
      "start": 65.2375,
      "duration": 0.0824,
      "velocity": 116,
      "chip": "ym2612"
    },
    {
      "channel": 0,
      "note": 25,
      "start": 65.4046,
      "duration": 0.0832,
      "velocity": 127,
      "chip": "ym2612"
    },
    {
      "channel": 2,
      "note": 62,
      "start": 65.4052,
      "duration": 0.0829,
      "velocity": 99,
      "chip": "ym2612"
    },
    {
      "channel": 3,
      "note": 66,
      "start": 65.4055,
      "duration": 0.0828,
      "velocity": 99,
      "chip": "ym2612"
    },
    {
      "channel": 4,
      "note": 76,
      "start": 65.4059,
      "duration": 0.0827,
      "velocity": 116,
      "chip": "ym2612"
    },
    {
      "channel": 0,
      "note": 25,
      "start": 65.5732,
      "duration": 0.0832,
      "velocity": 127,
      "chip": "ym2612"
    },
    {
      "channel": 1,
      "note": 50,
      "start": 65.5735,
      "duration": 0.0829,
      "velocity": 113,
      "chip": "ym2612"
    },
    {
      "channel": 2,
      "note": 62,
      "start": 65.5739,
      "duration": 0.0828,
      "velocity": 99,
      "chip": "ym2612"
    },
    {
      "channel": 3,
      "note": 66,
      "start": 65.5742,
      "duration": 0.0826,
      "velocity": 99,
      "chip": "ym2612"
    },
    {
      "channel": 4,
      "note": 78,
      "start": 65.5745,
      "duration": 0.0825,
      "velocity": 116,
      "chip": "ym2612"
    },
    {
      "channel": 0,
      "note": 32,
      "start": 65.7417,
      "duration": 0.1,
      "velocity": 127,
      "chip": "ym2612"
    },
    {
      "channel": 1,
      "note": 45,
      "start": 65.742,
      "duration": 0.0998,
      "velocity": 113,
      "chip": "ym2612"
    },
    {
      "channel": 2,
      "note": 62,
      "start": 65.7424,
      "duration": 0.0997,
      "velocity": 99,
      "chip": "ym2612"
    },
    {
      "channel": 3,
      "note": 66,
      "start": 65.7427,
      "duration": 0.0995,
      "velocity": 99,
      "chip": "ym2612"
    },
    {
      "channel": 4,
      "note": 76,
      "start": 65.743,
      "duration": 0.0994,
      "velocity": 116,
      "chip": "ym2612"
    },
    {
      "channel": 0,
      "note": 32,
      "start": 65.9271,
      "duration": 0.0832,
      "velocity": 127,
      "chip": "ym2612"
    },
    {
      "channel": 1,
      "note": 50,
      "start": 65.9274,
      "duration": 0.083,
      "velocity": 113,
      "chip": "ym2612"
    },
    {
      "channel": 2,
      "note": 66,
      "start": 65.9277,
      "duration": 0.0828,
      "velocity": 99,
      "chip": "ym2612"
    },
    {
      "channel": 3,
      "note": 69,
      "start": 65.928,
      "duration": 0.0827,
      "velocity": 99,
      "chip": "ym2612"
    },
    {
      "channel": 4,
      "note": 74,
      "start": 65.9284,
      "duration": 0.0825,
      "velocity": 116,
      "chip": "ym2612"
    },
    {
      "channel": 0,
      "note": 32,
      "start": 66.0956,
      "duration": 0.0832,
      "velocity": 127,
      "chip": "ym2612"
    },
    {
      "channel": 1,
      "note": 45,
      "start": 66.0959,
      "duration": 0.083,
      "velocity": 113,
      "chip": "ym2612"
    },
    {
      "channel": 2,
      "note": 66,
      "start": 66.0963,
      "duration": 0.0828,
      "velocity": 99,
      "chip": "ym2612"
    },
    {
      "channel": 3,
      "note": 69,
      "start": 66.0966,
      "duration": 0.0827,
      "velocity": 99,
      "chip": "ym2612"
    },
    {
      "channel": 4,
      "note": 76,
      "start": 66.0969,
      "duration": 0.0825,
      "velocity": 116,
      "chip": "ym2612"
    },
    {
      "channel": 0,
      "note": 25,
      "start": 66.2644,
      "duration": 0.0829,
      "velocity": 127,
      "chip": "ym2612"
    },
    {
      "channel": 1,
      "note": 47,
      "start": 66.2658,
      "duration": 0.0817,
      "velocity": 113,
      "chip": "ym2612"
    },
    {
      "channel": 2,
      "note": 59,
      "start": 66.2672,
      "duration": 0.0805,
      "velocity": 99,
      "chip": "ym2612"
    },
    {
      "channel": 3,
      "note": 62,
      "start": 66.2686,
      "duration": 0.0792,
      "velocity": 99,
      "chip": "ym2612"
    },
    {
      "channel": 4,
      "note": 71,
      "start": 66.2701,
      "duration": 0.0779,
      "velocity": 116,
      "chip": "ym2612"
    },
    {
      "channel": 2,
      "note": 59,
      "start": 66.4322,
      "duration": 0.101,
      "velocity": 99,
      "chip": "ym2612"
    },
    {
      "channel": 3,
      "note": 62,
      "start": 66.4326,
      "duration": 0.1008,
      "velocity": 99,
      "chip": "ym2612"
    },
    {
      "channel": 0,
      "note": 32,
      "start": 66.6181,
      "duration": 0.0831,
      "velocity": 127,
      "chip": "ym2612"
    },
    {
      "channel": 1,
      "note": 42,
      "start": 66.6185,
      "duration": 0.0829,
      "velocity": 113,
      "chip": "ym2612"
    },
    {
      "channel": 2,
      "note": 59,
      "start": 66.6188,
      "duration": 0.0828,
      "velocity": 99,
      "chip": "ym2612"
    },
    {
      "channel": 3,
      "note": 62,
      "start": 66.6191,
      "duration": 0.0827,
      "velocity": 99,
      "chip": "ym2612"
    },
    {
      "channel": 0,
      "note": 25,
      "start": 66.7866,
      "duration": 0.0832,
      "velocity": 127,
      "chip": "ym2612"
    },
    {
      "channel": 2,
      "note": 59,
      "start": 66.7872,
      "duration": 0.083,
      "velocity": 99,
      "chip": "ym2612"
    },
    {
      "channel": 3,
      "note": 62,
      "start": 66.7875,
      "duration": 0.0828,
      "velocity": 99,
      "chip": "ym2612"
    },
    {
      "channel": 1,
      "note": 47,
      "start": 66.9545,
      "duration": 0.0841,
      "velocity": 113,
      "chip": "ym2612"
    },
    {
      "channel": 2,
      "note": 59,
      "start": 66.9548,
      "duration": 0.084,
      "velocity": 99,
      "chip": "ym2612"
    },
    {
      "channel": 3,
      "note": 62,
      "start": 66.9551,
      "duration": 0.0838,
      "velocity": 99,
      "chip": "ym2612"
    },
    {
      "channel": 4,
      "note": 71,
      "start": 66.9555,
      "duration": 0.0836,
      "velocity": 116,
      "chip": "ym2612"
    },
    {
      "channel": 0,
      "note": 25,
      "start": 67.1237,
      "duration": 0.1,
      "velocity": 127,
      "chip": "ym2612"
    },
    {
      "channel": 2,
      "note": 59,
      "start": 67.1243,
      "duration": 0.0998,
      "velocity": 99,
      "chip": "ym2612"
    },
    {
      "channel": 3,
      "note": 62,
      "start": 67.1246,
      "duration": 0.0997,
      "velocity": 99,
      "chip": "ym2612"
    },
    {
      "channel": 0,
      "note": 32,
      "start": 67.3091,
      "duration": 0.0832,
      "velocity": 127,
      "chip": "ym2612"
    },
    {
      "channel": 1,
      "note": 42,
      "start": 67.3094,
      "duration": 0.083,
      "velocity": 113,
      "chip": "ym2612"
    },
    {
      "channel": 2,
      "note": 59,
      "start": 67.3097,
      "duration": 0.0828,
      "velocity": 99,
      "chip": "ym2612"
    },
    {
      "channel": 3,
      "note": 62,
      "start": 67.31,
      "duration": 0.0827,
      "velocity": 99,
      "chip": "ym2612"
    },
    {
      "channel": 0,
      "note": 32,
      "start": 67.4776,
      "duration": 0.0831,
      "velocity": 127,
      "chip": "ym2612"
    },
    {
      "channel": 2,
      "note": 59,
      "start": 67.4782,
      "duration": 0.083,
      "velocity": 99,
      "chip": "ym2612"
    },
    {
      "channel": 3,
      "note": 62,
      "start": 67.4785,
      "duration": 0.0828,
      "velocity": 99,
      "chip": "ym2612"
    },
    {
      "channel": 0,
      "note": 25,
      "start": 67.6461,
      "duration": 0.0832,
      "velocity": 127,
      "chip": "ym2612"
    },
    {
      "channel": 1,
      "note": 47,
      "start": 67.6465,
      "duration": 0.083,
      "velocity": 113,
      "chip": "ym2612"
    },
    {
      "channel": 2,
      "note": 59,
      "start": 67.6468,
      "duration": 0.0829,
      "velocity": 99,
      "chip": "ym2612"
    },
    {
      "channel": 3,
      "note": 62,
      "start": 67.6471,
      "duration": 0.0827,
      "velocity": 99,
      "chip": "ym2612"
    },
    {
      "channel": 2,
      "note": 59,
      "start": 67.8143,
      "duration": 0.0841,
      "velocity": 99,
      "chip": "ym2612"
    },
    {
      "channel": 3,
      "note": 62,
      "start": 67.8146,
      "duration": 0.0839,
      "velocity": 99,
      "chip": "ym2612"
    },
    {
      "channel": 4,
      "note": 71,
      "start": 67.8149,
      "duration": 0.0838,
      "velocity": 116,
      "chip": "ym2612"
    },
    {
      "channel": 0,
      "note": 32,
      "start": 68.0001,
      "duration": 0.0832,
      "velocity": 127,
      "chip": "ym2612"
    },
    {
      "channel": 1,
      "note": 42,
      "start": 68.0005,
      "duration": 0.0829,
      "velocity": 113,
      "chip": "ym2612"
    },
    {
      "channel": 2,
      "note": 59,
      "start": 68.0008,
      "duration": 0.0828,
      "velocity": 99,
      "chip": "ym2612"
    },
    {
      "channel": 3,
      "note": 62,
      "start": 68.0011,
      "duration": 0.0827,
      "velocity": 99,
      "chip": "ym2612"
    },
    {
      "channel": 4,
      "note": 74,
      "start": 68.0014,
      "duration": 0.0825,
      "velocity": 116,
      "chip": "ym2612"
    },
    {
      "channel": 0,
      "note": 25,
      "start": 68.1686,
      "duration": 0.0832,
      "velocity": 127,
      "chip": "ym2612"
    },
    {
      "channel": 2,
      "note": 59,
      "start": 68.1692,
      "duration": 0.083,
      "velocity": 99,
      "chip": "ym2612"
    },
    {
      "channel": 3,
      "note": 62,
      "start": 68.1695,
      "duration": 0.0829,
      "velocity": 99,
      "chip": "ym2612"
    },
    {
      "channel": 4,
      "note": 76,
      "start": 68.1698,
      "duration": 0.0827,
      "velocity": 116,
      "chip": "ym2612"
    },
    {
      "channel": 1,
      "note": 47,
      "start": 68.3365,
      "duration": 0.0841,
      "velocity": 113,
      "chip": "ym2612"
    },
    {
      "channel": 2,
      "note": 59,
      "start": 68.3368,
      "duration": 0.0839,
      "velocity": 99,
      "chip": "ym2612"
    },
    {
      "channel": 3,
      "note": 62,
      "start": 68.3371,
      "duration": 0.0838,
      "velocity": 99,
      "chip": "ym2612"
    },
    {
      "channel": 4,
      "note": 78,
      "start": 68.3374,
      "duration": 0.0837,
      "velocity": 116,
      "chip": "ym2612"
    },
    {
      "channel": 0,
      "note": 25,
      "start": 68.5057,
      "duration": 0.0831,
      "velocity": 127,
      "chip": "ym2612"
    },
    {
      "channel": 1,
      "note": 42,
      "start": 68.506,
      "duration": 0.083,
      "velocity": 113,
      "chip": "ym2612"
    },
    {
      "channel": 2,
      "note": 59,
      "start": 68.5064,
      "duration": 0.0828,
      "velocity": 99,
      "chip": "ym2612"
    },
    {
      "channel": 3,
      "note": 62,
      "start": 68.5067,
      "duration": 0.0826,
      "velocity": 99,
      "chip": "ym2612"
    },
    {
      "channel": 4,
      "note": 76,
      "start": 68.507,
      "duration": 0.0825,
      "velocity": 116,
      "chip": "ym2612"
    },
    {
      "channel": 0,
      "note": 32,
      "start": 68.6911,
      "duration": 0.0832,
      "velocity": 127,
      "chip": "ym2612"
    },
    {
      "channel": 1,
      "note": 47,
      "start": 68.6914,
      "duration": 0.083,
      "velocity": 113,
      "chip": "ym2612"
    },
    {
      "channel": 2,
      "note": 59,
      "start": 68.6917,
      "duration": 0.0828,
      "velocity": 99,
      "chip": "ym2612"
    },
    {
      "channel": 3,
      "note": 62,
      "start": 68.692,
      "duration": 0.0827,
      "velocity": 99,
      "chip": "ym2612"
    },
    {
      "channel": 4,
      "note": 74,
      "start": 68.6924,
      "duration": 0.0825,
      "velocity": 116,
      "chip": "ym2612"
    },
    {
      "channel": 0,
      "note": 32,
      "start": 68.8596,
      "duration": 0.0831,
      "velocity": 127,
      "chip": "ym2612"
    },
    {
      "channel": 1,
      "note": 42,
      "start": 68.8599,
      "duration": 0.083,
      "velocity": 113,
      "chip": "ym2612"
    },
    {
      "channel": 2,
      "note": 59,
      "start": 68.8602,
      "duration": 0.0828,
      "velocity": 99,
      "chip": "ym2612"
    },
    {
      "channel": 3,
      "note": 62,
      "start": 68.8606,
      "duration": 0.0827,
      "velocity": 99,
      "chip": "ym2612"
    },
    {
      "channel": 4,
      "note": 76,
      "start": 68.8609,
      "duration": 0.0825,
      "velocity": 116,
      "chip": "ym2612"
    },
    {
      "channel": 0,
      "note": 25,
      "start": 69.0281,
      "duration": 0.0832,
      "velocity": 127,
      "chip": "ym2612"
    },
    {
      "channel": 1,
      "note": 50,
      "start": 69.0284,
      "duration": 0.0831,
      "velocity": 113,
      "chip": "ym2612"
    },
    {
      "channel": 2,
      "note": 62,
      "start": 69.0288,
      "duration": 0.0828,
      "velocity": 99,
      "chip": "ym2612"
    },
    {
      "channel": 3,
      "note": 66,
      "start": 69.0291,
      "duration": 0.0827,
      "velocity": 99,
      "chip": "ym2612"
    },
    {
      "channel": 4,
      "note": 69,
      "start": 69.0295,
      "duration": 0.0826,
      "velocity": 116,
      "chip": "ym2612"
    },
    {
      "channel": 2,
      "note": 62,
      "start": 69.1962,
      "duration": 0.0841,
      "velocity": 99,
      "chip": "ym2612"
    },
    {
      "channel": 3,
      "note": 66,
      "start": 69.1965,
      "duration": 0.084,
      "velocity": 99,
      "chip": "ym2612"
    },
    {
      "channel": 0,
      "note": 32,
      "start": 69.3821,
      "duration": 0.0832,
      "velocity": 127,
      "chip": "ym2612"
    },
    {
      "channel": 1,
      "note": 45,
      "start": 69.3824,
      "duration": 0.0829,
      "velocity": 113,
      "chip": "ym2612"
    },
    {
      "channel": 2,
      "note": 62,
      "start": 69.3828,
      "duration": 0.0828,
      "velocity": 99,
      "chip": "ym2612"
    },
    {
      "channel": 3,
      "note": 66,
      "start": 69.3831,
      "duration": 0.0826,
      "velocity": 99,
      "chip": "ym2612"
    },
    {
      "channel": 0,
      "note": 25,
      "start": 69.5506,
      "duration": 0.0832,
      "velocity": 127,
      "chip": "ym2612"
    },
    {
      "channel": 2,
      "note": 62,
      "start": 69.5512,
      "duration": 0.083,
      "velocity": 99,
      "chip": "ym2612"
    },
    {
      "channel": 3,
      "note": 66,
      "start": 69.5515,
      "duration": 0.0829,
      "velocity": 99,
      "chip": "ym2612"
    },
    {
      "channel": 1,
      "note": 50,
      "start": 69.7185,
      "duration": 0.0841,
      "velocity": 113,
      "chip": "ym2612"
    },
    {
      "channel": 2,
      "note": 62,
      "start": 69.7188,
      "duration": 0.084,
      "velocity": 99,
      "chip": "ym2612"
    },
    {
      "channel": 3,
      "note": 66,
      "start": 69.7191,
      "duration": 0.0838,
      "velocity": 99,
      "chip": "ym2612"
    },
    {
      "channel": 4,
      "note": 69,
      "start": 69.7195,
      "duration": 0.0836,
      "velocity": 116,
      "chip": "ym2612"
    },
    {
      "channel": 0,
      "note": 25,
      "start": 69.8877,
      "duration": 0.0831,
      "velocity": 127,
      "chip": "ym2612"
    },
    {
      "channel": 2,
      "note": 62,
      "start": 69.8882,
      "duration": 0.083,
      "velocity": 99,
      "chip": "ym2612"
    },
    {
      "channel": 3,
      "note": 66,
      "start": 69.8885,
      "duration": 0.0828,
      "velocity": 99,
      "chip": "ym2612"
    },
    {
      "channel": 0,
      "note": 32,
      "start": 70.0562,
      "duration": 0.1001,
      "velocity": 127,
      "chip": "ym2612"
    },
    {
      "channel": 1,
      "note": 45,
      "start": 70.0566,
      "duration": 0.0998,
      "velocity": 113,
      "chip": "ym2612"
    },
    {
      "channel": 2,
      "note": 62,
      "start": 70.0569,
      "duration": 0.0997,
      "velocity": 99,
      "chip": "ym2612"
    },
    {
      "channel": 3,
      "note": 66,
      "start": 70.0572,
      "duration": 0.0996,
      "velocity": 99,
      "chip": "ym2612"
    },
    {
      "channel": 0,
      "note": 32,
      "start": 70.2416,
      "duration": 0.0831,
      "velocity": 127,
      "chip": "ym2612"
    },
    {
      "channel": 2,
      "note": 62,
      "start": 70.2422,
      "duration": 0.0829,
      "velocity": 99,
      "chip": "ym2612"
    },
    {
      "channel": 3,
      "note": 66,
      "start": 70.2425,
      "duration": 0.0828,
      "velocity": 99,
      "chip": "ym2612"
    },
    {
      "channel": 0,
      "note": 25,
      "start": 70.4101,
      "duration": 0.0832,
      "velocity": 127,
      "chip": "ym2612"
    },
    {
      "channel": 1,
      "note": 50,
      "start": 70.4105,
      "duration": 0.0829,
      "velocity": 113,
      "chip": "ym2612"
    },
    {
      "channel": 2,
      "note": 62,
      "start": 70.4108,
      "duration": 0.0828,
      "velocity": 99,
      "chip": "ym2612"
    },
    {
      "channel": 3,
      "note": 66,
      "start": 70.4111,
      "duration": 0.0827,
      "velocity": 99,
      "chip": "ym2612"
    },
    {
      "channel": 2,
      "note": 62,
      "start": 70.5782,
      "duration": 0.0841,
      "velocity": 99,
      "chip": "ym2612"
    },
    {
      "channel": 3,
      "note": 66,
      "start": 70.5785,
      "duration": 0.084,
      "velocity": 99,
      "chip": "ym2612"
    },
    {
      "channel": 4,
      "note": 69,
      "start": 70.5789,
      "duration": 0.0837,
      "velocity": 116,
      "chip": "ym2612"
    },
    {
      "channel": 0,
      "note": 32,
      "start": 70.7472,
      "duration": 0.1,
      "velocity": 127,
      "chip": "ym2612"
    },
    {
      "channel": 1,
      "note": 45,
      "start": 70.7476,
      "duration": 0.0998,
      "velocity": 113,
      "chip": "ym2612"
    },
    {
      "channel": 2,
      "note": 62,
      "start": 70.7479,
      "duration": 0.0996,
      "velocity": 99,
      "chip": "ym2612"
    },
    {
      "channel": 3,
      "note": 66,
      "start": 70.7482,
      "duration": 0.0995,
      "velocity": 99,
      "chip": "ym2612"
    },
    {
      "channel": 4,
      "note": 74,
      "start": 70.7485,
      "duration": 0.0993,
      "velocity": 116,
      "chip": "ym2612"
    },
    {
      "channel": 0,
      "note": 25,
      "start": 70.9326,
      "duration": 0.0832,
      "velocity": 127,
      "chip": "ym2612"
    },
    {
      "channel": 2,
      "note": 62,
      "start": 70.9332,
      "duration": 0.083,
      "velocity": 99,
      "chip": "ym2612"
    },
    {
      "channel": 3,
      "note": 66,
      "start": 70.9335,
      "duration": 0.0828,
      "velocity": 99,
      "chip": "ym2612"
    },
    {
      "channel": 4,
      "note": 76,
      "start": 70.9338,
      "duration": 0.0827,
      "velocity": 116,
      "chip": "ym2612"
    },
    {
      "channel": 0,
      "note": 25,
      "start": 71.1011,
      "duration": 0.0832,
      "velocity": 127,
      "chip": "ym2612"
    },
    {
      "channel": 1,
      "note": 50,
      "start": 71.1015,
      "duration": 0.0829,
      "velocity": 113,
      "chip": "ym2612"
    },
    {
      "channel": 2,
      "note": 62,
      "start": 71.1018,
      "duration": 0.0828,
      "velocity": 99,
      "chip": "ym2612"
    },
    {
      "channel": 3,
      "note": 66,
      "start": 71.1021,
      "duration": 0.0826,
      "velocity": 99,
      "chip": "ym2612"
    },
    {
      "channel": 4,
      "note": 78,
      "start": 71.1024,
      "duration": 0.0825,
      "velocity": 116,
      "chip": "ym2612"
    },
    {
      "channel": 0,
      "note": 32,
      "start": 71.2697,
      "duration": 0.0832,
      "velocity": 127,
      "chip": "ym2612"
    },
    {
      "channel": 1,
      "note": 45,
      "start": 71.27,
      "duration": 0.083,
      "velocity": 113,
      "chip": "ym2612"
    },
    {
      "channel": 2,
      "note": 62,
      "start": 71.2703,
      "duration": 0.0828,
      "velocity": 99,
      "chip": "ym2612"
    },
    {
      "channel": 3,
      "note": 66,
      "start": 71.2706,
      "duration": 0.0827,
      "velocity": 99,
      "chip": "ym2612"
    },
    {
      "channel": 4,
      "note": 76,
      "start": 71.2709,
      "duration": 0.0825,
      "velocity": 116,
      "chip": "ym2612"
    },
    {
      "channel": 0,
      "note": 32,
      "start": 71.4382,
      "duration": 0.1,
      "velocity": 127,
      "chip": "ym2612"
    },
    {
      "channel": 1,
      "note": 50,
      "start": 71.4385,
      "duration": 0.0999,
      "velocity": 113,
      "chip": "ym2612"
    },
    {
      "channel": 2,
      "note": 66,
      "start": 71.4388,
      "duration": 0.0997,
      "velocity": 99,
      "chip": "ym2612"
    },
    {
      "channel": 3,
      "note": 69,
      "start": 71.4392,
      "duration": 0.0995,
      "velocity": 99,
      "chip": "ym2612"
    },
    {
      "channel": 4,
      "note": 74,
      "start": 71.4395,
      "duration": 0.0994,
      "velocity": 116,
      "chip": "ym2612"
    },
    {
      "channel": 0,
      "note": 32,
      "start": 71.6235,
      "duration": 0.0832,
      "velocity": 127,
      "chip": "ym2612"
    },
    {
      "channel": 1,
      "note": 45,
      "start": 71.6239,
      "duration": 0.083,
      "velocity": 113,
      "chip": "ym2612"
    },
    {
      "channel": 2,
      "note": 66,
      "start": 71.6242,
      "duration": 0.0828,
      "velocity": 99,
      "chip": "ym2612"
    },
    {
      "channel": 3,
      "note": 69,
      "start": 71.6246,
      "duration": 0.0827,
      "velocity": 99,
      "chip": "ym2612"
    },
    {
      "channel": 4,
      "note": 76,
      "start": 71.6249,
      "duration": 0.0825,
      "velocity": 116,
      "chip": "ym2612"
    },
    {
      "channel": 0,
      "note": 25,
      "start": 71.7923,
      "duration": 0.0829,
      "velocity": 127,
      "chip": "ym2612"
    },
    {
      "channel": 1,
      "note": 54,
      "start": 71.7938,
      "duration": 0.0817,
      "velocity": 113,
      "chip": "ym2612"
    },
    {
      "channel": 2,
      "note": 66,
      "start": 71.7952,
      "duration": 0.0805,
      "velocity": 99,
      "chip": "ym2612"
    },
    {
      "channel": 3,
      "note": 69,
      "start": 71.7966,
      "duration": 0.0791,
      "velocity": 99,
      "chip": "ym2612"
    },
    {
      "channel": 4,
      "note": 73,
      "start": 71.798,
      "duration": 0.0779,
      "velocity": 116,
      "chip": "ym2612"
    },
    {
      "channel": 2,
      "note": 66,
      "start": 71.9602,
      "duration": 0.0841,
      "velocity": 99,
      "chip": "ym2612"
    },
    {
      "channel": 3,
      "note": 69,
      "start": 71.9605,
      "duration": 0.084,
      "velocity": 99,
      "chip": "ym2612"
    },
    {
      "channel": 0,
      "note": 32,
      "start": 72.1292,
      "duration": 0.0831,
      "velocity": 127,
      "chip": "ym2612"
    },
    {
      "channel": 1,
      "note": 49,
      "start": 72.1295,
      "duration": 0.083,
      "velocity": 113,
      "chip": "ym2612"
    },
    {
      "channel": 2,
      "note": 66,
      "start": 72.1298,
      "duration": 0.0828,
      "velocity": 99,
      "chip": "ym2612"
    },
    {
      "channel": 3,
      "note": 69,
      "start": 72.1302,
      "duration": 0.0826,
      "velocity": 99,
      "chip": "ym2612"
    },
    {
      "channel": 0,
      "note": 25,
      "start": 72.3146,
      "duration": 0.0831,
      "velocity": 127,
      "chip": "ym2612"
    },
    {
      "channel": 2,
      "note": 66,
      "start": 72.3151,
      "duration": 0.083,
      "velocity": 99,
      "chip": "ym2612"
    },
    {
      "channel": 3,
      "note": 69,
      "start": 72.3155,
      "duration": 0.0828,
      "velocity": 99,
      "chip": "ym2612"
    },
    {
      "channel": 1,
      "note": 54,
      "start": 72.4824,
      "duration": 0.0841,
      "velocity": 113,
      "chip": "ym2612"
    },
    {
      "channel": 2,
      "note": 66,
      "start": 72.4828,
      "duration": 0.0839,
      "velocity": 99,
      "chip": "ym2612"
    },
    {
      "channel": 3,
      "note": 69,
      "start": 72.4831,
      "duration": 0.0838,
      "velocity": 99,
      "chip": "ym2612"
    },
    {
      "channel": 4,
      "note": 73,
      "start": 72.4834,
      "duration": 0.0836,
      "velocity": 116,
      "chip": "ym2612"
    },
    {
      "channel": 0,
      "note": 25,
      "start": 72.6517,
      "duration": 0.0832,
      "velocity": 127,
      "chip": "ym2612"
    },
    {
      "channel": 2,
      "note": 66,
      "start": 72.6522,
      "duration": 0.083,
      "velocity": 99,
      "chip": "ym2612"
    },
    {
      "channel": 3,
      "note": 69,
      "start": 72.6525,
      "duration": 0.0828,
      "velocity": 99,
      "chip": "ym2612"
    },
    {
      "channel": 0,
      "note": 32,
      "start": 72.8202,
      "duration": 0.0832,
      "velocity": 127,
      "chip": "ym2612"
    },
    {
      "channel": 1,
      "note": 49,
      "start": 72.8205,
      "duration": 0.083,
      "velocity": 113,
      "chip": "ym2612"
    },
    {
      "channel": 2,
      "note": 66,
      "start": 72.8209,
      "duration": 0.0828,
      "velocity": 99,
      "chip": "ym2612"
    },
    {
      "channel": 3,
      "note": 69,
      "start": 72.8212,
      "duration": 0.0826,
      "velocity": 99,
      "chip": "ym2612"
    },
    {
      "channel": 0,
      "note": 32,
      "start": 73.0055,
      "duration": 0.0832,
      "velocity": 127,
      "chip": "ym2612"
    },
    {
      "channel": 2,
      "note": 66,
      "start": 73.0061,
      "duration": 0.083,
      "velocity": 99,
      "chip": "ym2612"
    },
    {
      "channel": 3,
      "note": 69,
      "start": 73.0064,
      "duration": 0.0828,
      "velocity": 99,
      "chip": "ym2612"
    },
    {
      "channel": 0,
      "note": 25,
      "start": 73.1741,
      "duration": 0.0832,
      "velocity": 127,
      "chip": "ym2612"
    },
    {
      "channel": 1,
      "note": 54,
      "start": 73.1744,
      "duration": 0.083,
      "velocity": 113,
      "chip": "ym2612"
    },
    {
      "channel": 2,
      "note": 66,
      "start": 73.1747,
      "duration": 0.0829,
      "velocity": 99,
      "chip": "ym2612"
    },
    {
      "channel": 3,
      "note": 69,
      "start": 73.1751,
      "duration": 0.0827,
      "velocity": 99,
      "chip": "ym2612"
    },
    {
      "channel": 2,
      "note": 66,
      "start": 73.3422,
      "duration": 0.0841,
      "velocity": 99,
      "chip": "ym2612"
    },
    {
      "channel": 3,
      "note": 69,
      "start": 73.3425,
      "duration": 0.0839,
      "velocity": 99,
      "chip": "ym2612"
    },
    {
      "channel": 4,
      "note": 73,
      "start": 73.3428,
      "duration": 0.0838,
      "velocity": 116,
      "chip": "ym2612"
    },
    {
      "channel": 0,
      "note": 32,
      "start": 73.5112,
      "duration": 0.0831,
      "velocity": 127,
      "chip": "ym2612"
    },
    {
      "channel": 1,
      "note": 49,
      "start": 73.5115,
      "duration": 0.0829,
      "velocity": 113,
      "chip": "ym2612"
    },
    {
      "channel": 2,
      "note": 66,
      "start": 73.5118,
      "duration": 0.0828,
      "velocity": 99,
      "chip": "ym2612"
    },
    {
      "channel": 3,
      "note": 69,
      "start": 73.5122,
      "duration": 0.0827,
      "velocity": 99,
      "chip": "ym2612"
    },
    {
      "channel": 4,
      "note": 78,
      "start": 73.5125,
      "duration": 0.0825,
      "velocity": 116,
      "chip": "ym2612"
    },
    {
      "channel": 0,
      "note": 25,
      "start": 73.6966,
      "duration": 0.0831,
      "velocity": 127,
      "chip": "ym2612"
    },
    {
      "channel": 2,
      "note": 66,
      "start": 73.6971,
      "duration": 0.083,
      "velocity": 99,
      "chip": "ym2612"
    },
    {
      "channel": 3,
      "note": 69,
      "start": 73.6975,
      "duration": 0.0828,
      "velocity": 99,
      "chip": "ym2612"
    },
    {
      "channel": 4,
      "note": 80,
      "start": 73.6978,
      "duration": 0.0827,
      "velocity": 116,
      "chip": "ym2612"
    },
    {
      "channel": 1,
      "note": 54,
      "start": 73.8644,
      "duration": 0.0841,
      "velocity": 113,
      "chip": "ym2612"
    },
    {
      "channel": 2,
      "note": 66,
      "start": 73.8647,
      "duration": 0.084,
      "velocity": 99,
      "chip": "ym2612"
    },
    {
      "channel": 3,
      "note": 69,
      "start": 73.865,
      "duration": 0.0838,
      "velocity": 99,
      "chip": "ym2612"
    },
    {
      "channel": 4,
      "note": 81,
      "start": 73.8654,
      "duration": 0.0836,
      "velocity": 116,
      "chip": "ym2612"
    },
    {
      "channel": 0,
      "note": 25,
      "start": 74.0337,
      "duration": 0.0832,
      "velocity": 127,
      "chip": "ym2612"
    },
    {
      "channel": 1,
      "note": 49,
      "start": 74.034,
      "duration": 0.0829,
      "velocity": 113,
      "chip": "ym2612"
    },
    {
      "channel": 2,
      "note": 66,
      "start": 74.0343,
      "duration": 0.0828,
      "velocity": 99,
      "chip": "ym2612"
    },
    {
      "channel": 3,
      "note": 69,
      "start": 74.0346,
      "duration": 0.0826,
      "velocity": 99,
      "chip": "ym2612"
    },
    {
      "channel": 4,
      "note": 80,
      "start": 74.0349,
      "duration": 0.0825,
      "velocity": 116,
      "chip": "ym2612"
    },
    {
      "channel": 0,
      "note": 32,
      "start": 74.2022,
      "duration": 0.0831,
      "velocity": 127,
      "chip": "ym2612"
    },
    {
      "channel": 1,
      "note": 54,
      "start": 74.2025,
      "duration": 0.0829,
      "velocity": 113,
      "chip": "ym2612"
    },
    {
      "channel": 2,
      "note": 66,
      "start": 74.2028,
      "duration": 0.0828,
      "velocity": 99,
      "chip": "ym2612"
    },
    {
      "channel": 3,
      "note": 69,
      "start": 74.2031,
      "duration": 0.0827,
      "velocity": 99,
      "chip": "ym2612"
    },
    {
      "channel": 4,
      "note": 78,
      "start": 74.2034,
      "duration": 0.0825,
      "velocity": 116,
      "chip": "ym2612"
    },
    {
      "channel": 0,
      "note": 32,
      "start": 74.3707,
      "duration": 0.1,
      "velocity": 127,
      "chip": "ym2612"
    },
    {
      "channel": 1,
      "note": 49,
      "start": 74.371,
      "duration": 0.0999,
      "velocity": 113,
      "chip": "ym2612"
    },
    {
      "channel": 2,
      "note": 66,
      "start": 74.3713,
      "duration": 0.0997,
      "velocity": 99,
      "chip": "ym2612"
    },
    {
      "channel": 3,
      "note": 69,
      "start": 74.3716,
      "duration": 0.0995,
      "velocity": 99,
      "chip": "ym2612"
    },
    {
      "channel": 4,
      "note": 81,
      "start": 74.372,
      "duration": 0.0994,
      "velocity": 116,
      "chip": "ym2612"
    },
    {
      "channel": 0,
      "note": 25,
      "start": 74.5561,
      "duration": 0.0832,
      "velocity": 127,
      "chip": "ym2612"
    },
    {
      "channel": 1,
      "note": 50,
      "start": 74.5564,
      "duration": 0.0831,
      "velocity": 113,
      "chip": "ym2612"
    },
    {
      "channel": 2,
      "note": 62,
      "start": 74.5568,
      "duration": 0.0828,
      "velocity": 99,
      "chip": "ym2612"
    },
    {
      "channel": 3,
      "note": 66,
      "start": 74.5571,
      "duration": 0.0827,
      "velocity": 99,
      "chip": "ym2612"
    },
    {
      "channel": 4,
      "note": 74,
      "start": 74.5574,
      "duration": 0.0826,
      "velocity": 116,
      "chip": "ym2612"
    },
    {
      "channel": 2,
      "note": 62,
      "start": 74.7241,
      "duration": 0.0841,
      "velocity": 99,
      "chip": "ym2612"
    },
    {
      "channel": 3,
      "note": 66,
      "start": 74.7245,
      "duration": 0.0839,
      "velocity": 99,
      "chip": "ym2612"
    },
    {
      "channel": 0,
      "note": 32,
      "start": 74.8931,
      "duration": 0.0832,
      "velocity": 127,
      "chip": "ym2612"
    },
    {
      "channel": 1,
      "note": 45,
      "start": 74.8935,
      "duration": 0.0829,
      "velocity": 113,
      "chip": "ym2612"
    },
    {
      "channel": 2,
      "note": 62,
      "start": 74.8938,
      "duration": 0.0828,
      "velocity": 99,
      "chip": "ym2612"
    },
    {
      "channel": 3,
      "note": 66,
      "start": 74.8941,
      "duration": 0.0826,
      "velocity": 99,
      "chip": "ym2612"
    },
    {
      "channel": 0,
      "note": 25,
      "start": 75.0617,
      "duration": 0.1,
      "velocity": 127,
      "chip": "ym2612"
    },
    {
      "channel": 2,
      "note": 62,
      "start": 75.0622,
      "duration": 0.0999,
      "velocity": 99,
      "chip": "ym2612"
    },
    {
      "channel": 3,
      "note": 66,
      "start": 75.0625,
      "duration": 0.0998,
      "velocity": 99,
      "chip": "ym2612"
    },
    {
      "channel": 1,
      "note": 50,
      "start": 75.2464,
      "duration": 0.0841,
      "velocity": 113,
      "chip": "ym2612"
    },
    {
      "channel": 2,
      "note": 62,
      "start": 75.2467,
      "duration": 0.084,
      "velocity": 99,
      "chip": "ym2612"
    },
    {
      "channel": 3,
      "note": 66,
      "start": 75.247,
      "duration": 0.0838,
      "velocity": 99,
      "chip": "ym2612"
    },
    {
      "channel": 4,
      "note": 74,
      "start": 75.2474,
      "duration": 0.0836,
      "velocity": 116,
      "chip": "ym2612"
    },
    {
      "channel": 0,
      "note": 25,
      "start": 75.4156,
      "duration": 0.0832,
      "velocity": 127,
      "chip": "ym2612"
    },
    {
      "channel": 2,
      "note": 62,
      "start": 75.4162,
      "duration": 0.083,
      "velocity": 99,
      "chip": "ym2612"
    },
    {
      "channel": 3,
      "note": 66,
      "start": 75.4165,
      "duration": 0.0828,
      "velocity": 99,
      "chip": "ym2612"
    },
    {
      "channel": 0,
      "note": 32,
      "start": 75.5841,
      "duration": 0.0832,
      "velocity": 127,
      "chip": "ym2612"
    },
    {
      "channel": 1,
      "note": 45,
      "start": 75.5845,
      "duration": 0.083,
      "velocity": 113,
      "chip": "ym2612"
    },
    {
      "channel": 2,
      "note": 62,
      "start": 75.5848,
      "duration": 0.0828,
      "velocity": 99,
      "chip": "ym2612"
    },
    {
      "channel": 3,
      "note": 66,
      "start": 75.5851,
      "duration": 0.0827,
      "velocity": 99,
      "chip": "ym2612"
    },
    {
      "channel": 0,
      "note": 32,
      "start": 75.7527,
      "duration": 0.1,
      "velocity": 127,
      "chip": "ym2612"
    },
    {
      "channel": 2,
      "note": 62,
      "start": 75.7532,
      "duration": 0.0998,
      "velocity": 99,
      "chip": "ym2612"
    },
    {
      "channel": 3,
      "note": 66,
      "start": 75.7536,
      "duration": 0.0997,
      "velocity": 99,
      "chip": "ym2612"
    },
    {
      "channel": 0,
      "note": 25,
      "start": 75.938,
      "duration": 0.0832,
      "velocity": 127,
      "chip": "ym2612"
    },
    {
      "channel": 1,
      "note": 50,
      "start": 75.9384,
      "duration": 0.0829,
      "velocity": 113,
      "chip": "ym2612"
    },
    {
      "channel": 2,
      "note": 62,
      "start": 75.9388,
      "duration": 0.0828,
      "velocity": 99,
      "chip": "ym2612"
    },
    {
      "channel": 3,
      "note": 66,
      "start": 75.9391,
      "duration": 0.0827,
      "velocity": 99,
      "chip": "ym2612"
    },
    {
      "channel": 2,
      "note": 62,
      "start": 76.1061,
      "duration": 0.0841,
      "velocity": 99,
      "chip": "ym2612"
    },
    {
      "channel": 3,
      "note": 66,
      "start": 76.1064,
      "duration": 0.084,
      "velocity": 99,
      "chip": "ym2612"
    },
    {
      "channel": 4,
      "note": 74,
      "start": 76.1068,
      "duration": 0.0837,
      "velocity": 116,
      "chip": "ym2612"
    },
    {
      "channel": 0,
      "note": 32,
      "start": 76.2751,
      "duration": 0.0832,
      "velocity": 127,
      "chip": "ym2612"
    },
    {
      "channel": 1,
      "note": 45,
      "start": 76.2755,
      "duration": 0.0829,
      "velocity": 113,
      "chip": "ym2612"
    },
    {
      "channel": 2,
      "note": 62,
      "start": 76.2758,
      "duration": 0.0828,
      "velocity": 99,
      "chip": "ym2612"
    },
    {
      "channel": 3,
      "note": 66,
      "start": 76.2761,
      "duration": 0.0826,
      "velocity": 99,
      "chip": "ym2612"
    },
    {
      "channel": 4,
      "note": 78,
      "start": 76.2765,
      "duration": 0.0825,
      "velocity": 116,
      "chip": "ym2612"
    },
    {
      "channel": 0,
      "note": 25,
      "start": 76.4437,
      "duration": 0.0832,
      "velocity": 127,
      "chip": "ym2612"
    },
    {
      "channel": 2,
      "note": 62,
      "start": 76.4442,
      "duration": 0.083,
      "velocity": 99,
      "chip": "ym2612"
    },
    {
      "channel": 3,
      "note": 66,
      "start": 76.4445,
      "duration": 0.0828,
      "velocity": 99,
      "chip": "ym2612"
    },
    {
      "channel": 4,
      "note": 80,
      "start": 76.4449,
      "duration": 0.0827,
      "velocity": 116,
      "chip": "ym2612"
    },
    {
      "channel": 0,
      "note": 25,
      "start": 76.6291,
      "duration": 0.0832,
      "velocity": 127,
      "chip": "ym2612"
    },
    {
      "channel": 1,
      "note": 50,
      "start": 76.6294,
      "duration": 0.0829,
      "velocity": 113,
      "chip": "ym2612"
    },
    {
      "channel": 2,
      "note": 62,
      "start": 76.6297,
      "duration": 0.0828,
      "velocity": 99,
      "chip": "ym2612"
    },
    {
      "channel": 3,
      "note": 66,
      "start": 76.63,
      "duration": 0.0827,
      "velocity": 99,
      "chip": "ym2612"
    },
    {
      "channel": 4,
      "note": 81,
      "start": 76.6303,
      "duration": 0.0825,
      "velocity": 116,
      "chip": "ym2612"
    },
    {
      "channel": 0,
      "note": 32,
      "start": 76.7976,
      "duration": 0.0831,
      "velocity": 127,
      "chip": "ym2612"
    },
    {
      "channel": 1,
      "note": 45,
      "start": 76.7979,
      "duration": 0.083,
      "velocity": 113,
      "chip": "ym2612"
    },
    {
      "channel": 2,
      "note": 62,
      "start": 76.7982,
      "duration": 0.0828,
      "velocity": 99,
      "chip": "ym2612"
    },
    {
      "channel": 3,
      "note": 66,
      "start": 76.7985,
      "duration": 0.0827,
      "velocity": 99,
      "chip": "ym2612"
    },
    {
      "channel": 4,
      "note": 80,
      "start": 76.7989,
      "duration": 0.0825,
      "velocity": 116,
      "chip": "ym2612"
    },
    {
      "channel": 0,
      "note": 32,
      "start": 76.9661,
      "duration": 0.0832,
      "velocity": 127,
      "chip": "ym2612"
    },
    {
      "channel": 1,
      "note": 50,
      "start": 76.9664,
      "duration": 0.083,
      "velocity": 113,
      "chip": "ym2612"
    },
    {
      "channel": 2,
      "note": 62,
      "start": 76.9668,
      "duration": 0.0828,
      "velocity": 99,
      "chip": "ym2612"
    },
    {
      "channel": 3,
      "note": 66,
      "start": 76.9671,
      "duration": 0.0826,
      "velocity": 99,
      "chip": "ym2612"
    },
    {
      "channel": 4,
      "note": 78,
      "start": 76.9674,
      "duration": 0.0825,
      "velocity": 116,
      "chip": "ym2612"
    },
    {
      "channel": 0,
      "note": 32,
      "start": 77.1347,
      "duration": 0.0832,
      "velocity": 127,
      "chip": "ym2612"
    },
    {
      "channel": 1,
      "note": 45,
      "start": 77.135,
      "duration": 0.0829,
      "velocity": 113,
      "chip": "ym2612"
    },
    {
      "channel": 2,
      "note": 62,
      "start": 77.1353,
      "duration": 0.0828,
      "velocity": 99,
      "chip": "ym2612"
    },
    {
      "channel": 3,
      "note": 66,
      "start": 77.1356,
      "duration": 0.0827,
      "velocity": 99,
      "chip": "ym2612"
    },
    {
      "channel": 4,
      "note": 80,
      "start": 77.1359,
      "duration": 0.0825,
      "velocity": 116,
      "chip": "ym2612"
    },
    {
      "channel": 0,
      "note": 25,
      "start": 77.3202,
      "duration": 0.0829,
      "velocity": 127,
      "chip": "ym2612"
    },
    {
      "channel": 1,
      "note": 54,
      "start": 77.3217,
      "duration": 0.0817,
      "velocity": 113,
      "chip": "ym2612"
    },
    {
      "channel": 2,
      "note": 66,
      "start": 77.3231,
      "duration": 0.0805,
      "velocity": 99,
      "chip": "ym2612"
    },
    {
      "channel": 3,
      "note": 69,
      "start": 77.3246,
      "duration": 0.0791,
      "velocity": 99,
      "chip": "ym2612"
    },
    {
      "channel": 4,
      "note": 73,
      "start": 77.326,
      "duration": 0.0779,
      "velocity": 116,
      "chip": "ym2612"
    },
    {
      "channel": 2,
      "note": 66,
      "start": 77.4881,
      "duration": 0.0841,
      "velocity": 99,
      "chip": "ym2612"
    },
    {
      "channel": 3,
      "note": 69,
      "start": 77.4884,
      "duration": 0.084,
      "velocity": 99,
      "chip": "ym2612"
    },
    {
      "channel": 0,
      "note": 32,
      "start": 77.6571,
      "duration": 0.0832,
      "velocity": 127,
      "chip": "ym2612"
    },
    {
      "channel": 1,
      "note": 49,
      "start": 77.6574,
      "duration": 0.083,
      "velocity": 113,
      "chip": "ym2612"
    },
    {
      "channel": 2,
      "note": 66,
      "start": 77.6578,
      "duration": 0.0828,
      "velocity": 99,
      "chip": "ym2612"
    },
    {
      "channel": 3,
      "note": 69,
      "start": 77.6581,
      "duration": 0.0826,
      "velocity": 99,
      "chip": "ym2612"
    },
    {
      "channel": 0,
      "note": 25,
      "start": 77.8256,
      "duration": 0.0832,
      "velocity": 127,
      "chip": "ym2612"
    },
    {
      "channel": 2,
      "note": 66,
      "start": 77.8262,
      "duration": 0.083,
      "velocity": 99,
      "chip": "ym2612"
    },
    {
      "channel": 3,
      "note": 69,
      "start": 77.8265,
      "duration": 0.0828,
      "velocity": 99,
      "chip": "ym2612"
    },
    {
      "channel": 1,
      "note": 54,
      "start": 78.0104,
      "duration": 0.0841,
      "velocity": 113,
      "chip": "ym2612"
    },
    {
      "channel": 2,
      "note": 66,
      "start": 78.0107,
      "duration": 0.0839,
      "velocity": 99,
      "chip": "ym2612"
    },
    {
      "channel": 3,
      "note": 69,
      "start": 78.011,
      "duration": 0.0838,
      "velocity": 99,
      "chip": "ym2612"
    },
    {
      "channel": 4,
      "note": 73,
      "start": 78.0113,
      "duration": 0.0837,
      "velocity": 116,
      "chip": "ym2612"
    },
    {
      "channel": 0,
      "note": 25,
      "start": 78.1796,
      "duration": 0.0831,
      "velocity": 127,
      "chip": "ym2612"
    },
    {
      "channel": 2,
      "note": 66,
      "start": 78.1802,
      "duration": 0.0829,
      "velocity": 99,
      "chip": "ym2612"
    },
    {
      "channel": 3,
      "note": 69,
      "start": 78.1805,
      "duration": 0.0828,
      "velocity": 99,
      "chip": "ym2612"
    },
    {
      "channel": 0,
      "note": 32,
      "start": 78.3481,
      "duration": 0.0832,
      "velocity": 127,
      "chip": "ym2612"
    },
    {
      "channel": 1,
      "note": 49,
      "start": 78.3485,
      "duration": 0.0829,
      "velocity": 113,
      "chip": "ym2612"
    },
    {
      "channel": 2,
      "note": 66,
      "start": 78.3488,
      "duration": 0.0828,
      "velocity": 99,
      "chip": "ym2612"
    },
    {
      "channel": 3,
      "note": 69,
      "start": 78.3491,
      "duration": 0.0826,
      "velocity": 99,
      "chip": "ym2612"
    },
    {
      "channel": 0,
      "note": 32,
      "start": 78.5166,
      "duration": 0.0832,
      "velocity": 127,
      "chip": "ym2612"
    },
    {
      "channel": 2,
      "note": 66,
      "start": 78.5172,
      "duration": 0.083,
      "velocity": 99,
      "chip": "ym2612"
    },
    {
      "channel": 3,
      "note": 69,
      "start": 78.5175,
      "duration": 0.0829,
      "velocity": 99,
      "chip": "ym2612"
    },
    {
      "channel": 0,
      "note": 25,
      "start": 78.6852,
      "duration": 0.1,
      "velocity": 127,
      "chip": "ym2612"
    },
    {
      "channel": 1,
      "note": 54,
      "start": 78.6855,
      "duration": 0.0999,
      "velocity": 113,
      "chip": "ym2612"
    },
    {
      "channel": 2,
      "note": 66,
      "start": 78.6858,
      "duration": 0.0997,
      "velocity": 99,
      "chip": "ym2612"
    },
    {
      "channel": 3,
      "note": 69,
      "start": 78.6861,
      "duration": 0.0995,
      "velocity": 99,
      "chip": "ym2612"
    },
    {
      "channel": 2,
      "note": 66,
      "start": 78.8701,
      "duration": 0.0841,
      "velocity": 99,
      "chip": "ym2612"
    },
    {
      "channel": 3,
      "note": 69,
      "start": 78.8704,
      "duration": 0.0839,
      "velocity": 99,
      "chip": "ym2612"
    },
    {
      "channel": 4,
      "note": 73,
      "start": 78.8707,
      "duration": 0.0838,
      "velocity": 116,
      "chip": "ym2612"
    },
    {
      "channel": 0,
      "note": 32,
      "start": 79.0391,
      "duration": 0.0832,
      "velocity": 127,
      "chip": "ym2612"
    },
    {
      "channel": 1,
      "note": 49,
      "start": 79.0394,
      "duration": 0.083,
      "velocity": 113,
      "chip": "ym2612"
    },
    {
      "channel": 2,
      "note": 66,
      "start": 79.0398,
      "duration": 0.0828,
      "velocity": 99,
      "chip": "ym2612"
    },
    {
      "channel": 3,
      "note": 69,
      "start": 79.0401,
      "duration": 0.0827,
      "velocity": 99,
      "chip": "ym2612"
    },
    {
      "channel": 4,
      "note": 78,
      "start": 79.0405,
      "duration": 0.0824,
      "velocity": 116,
      "chip": "ym2612"
    },
    {
      "channel": 0,
      "note": 25,
      "start": 79.2076,
      "duration": 0.0831,
      "velocity": 127,
      "chip": "ym2612"
    },
    {
      "channel": 2,
      "note": 66,
      "start": 79.2082,
      "duration": 0.083,
      "velocity": 99,
      "chip": "ym2612"
    },
    {
      "channel": 3,
      "note": 69,
      "start": 79.2085,
      "duration": 0.0828,
      "velocity": 99,
      "chip": "ym2612"
    },
    {
      "channel": 4,
      "note": 80,
      "start": 79.2088,
      "duration": 0.0827,
      "velocity": 116,
      "chip": "ym2612"
    },
    {
      "channel": 1,
      "note": 54,
      "start": 79.3754,
      "duration": 0.101,
      "velocity": 113,
      "chip": "ym2612"
    },
    {
      "channel": 2,
      "note": 66,
      "start": 79.3758,
      "duration": 0.1008,
      "velocity": 99,
      "chip": "ym2612"
    },
    {
      "channel": 3,
      "note": 69,
      "start": 79.3761,
      "duration": 0.1006,
      "velocity": 99,
      "chip": "ym2612"
    },
    {
      "channel": 4,
      "note": 81,
      "start": 79.3765,
      "duration": 0.1005,
      "velocity": 116,
      "chip": "ym2612"
    },
    {
      "channel": 0,
      "note": 25,
      "start": 79.5616,
      "duration": 0.0831,
      "velocity": 127,
      "chip": "ym2612"
    },
    {
      "channel": 1,
      "note": 49,
      "start": 79.5619,
      "duration": 0.0829,
      "velocity": 113,
      "chip": "ym2612"
    },
    {
      "channel": 2,
      "note": 66,
      "start": 79.5622,
      "duration": 0.0828,
      "velocity": 99,
      "chip": "ym2612"
    },
    {
      "channel": 3,
      "note": 69,
      "start": 79.5625,
      "duration": 0.0827,
      "velocity": 99,
      "chip": "ym2612"
    },
    {
      "channel": 4,
      "note": 80,
      "start": 79.5629,
      "duration": 0.0825,
      "velocity": 116,
      "chip": "ym2612"
    },
    {
      "channel": 0,
      "note": 32,
      "start": 79.7301,
      "duration": 0.0832,
      "velocity": 127,
      "chip": "ym2612"
    },
    {
      "channel": 1,
      "note": 54,
      "start": 79.7304,
      "duration": 0.083,
      "velocity": 113,
      "chip": "ym2612"
    },
    {
      "channel": 2,
      "note": 66,
      "start": 79.7307,
      "duration": 0.0828,
      "velocity": 99,
      "chip": "ym2612"
    },
    {
      "channel": 3,
      "note": 69,
      "start": 79.731,
      "duration": 0.0827,
      "velocity": 99,
      "chip": "ym2612"
    },
    {
      "channel": 4,
      "note": 78,
      "start": 79.7314,
      "duration": 0.0825,
      "velocity": 116,
      "chip": "ym2612"
    },
    {
      "channel": 0,
      "note": 32,
      "start": 79.8986,
      "duration": 0.0832,
      "velocity": 127,
      "chip": "ym2612"
    },
    {
      "channel": 1,
      "note": 49,
      "start": 79.8989,
      "duration": 0.083,
      "velocity": 113,
      "chip": "ym2612"
    },
    {
      "channel": 2,
      "note": 66,
      "start": 79.8992,
      "duration": 0.0829,
      "velocity": 99,
      "chip": "ym2612"
    },
    {
      "channel": 3,
      "note": 69,
      "start": 79.8996,
      "duration": 0.0826,
      "velocity": 99,
      "chip": "ym2612"
    },
    {
      "channel": 4,
      "note": 81,
      "start": 79.8999,
      "duration": 0.0825,
      "velocity": 116,
      "chip": "ym2612"
    },
    {
      "channel": 0,
      "note": 25,
      "start": 80.0672,
      "duration": 0.1,
      "velocity": 127,
      "chip": "ym2612"
    },
    {
      "channel": 1,
      "note": 50,
      "start": 80.0675,
      "duration": 0.0999,
      "velocity": 113,
      "chip": "ym2612"
    },
    {
      "channel": 2,
      "note": 62,
      "start": 80.0678,
      "duration": 0.0997,
      "velocity": 99,
      "chip": "ym2612"
    },
    {
      "channel": 3,
      "note": 66,
      "start": 80.0681,
      "duration": 0.0995,
      "velocity": 99,
      "chip": "ym2612"
    },
    {
      "channel": 4,
      "note": 74,
      "start": 80.0685,
      "duration": 0.0994,
      "velocity": 116,
      "chip": "ym2612"
    },
    {
      "channel": 2,
      "note": 62,
      "start": 80.2521,
      "duration": 0.0841,
      "velocity": 99,
      "chip": "ym2612"
    },
    {
      "channel": 3,
      "note": 66,
      "start": 80.2524,
      "duration": 0.0839,
      "velocity": 99,
      "chip": "ym2612"
    },
    {
      "channel": 0,
      "note": 32,
      "start": 80.4211,
      "duration": 0.0831,
      "velocity": 127,
      "chip": "ym2612"
    },
    {
      "channel": 1,
      "note": 45,
      "start": 80.4215,
      "duration": 0.0829,
      "velocity": 113,
      "chip": "ym2612"
    },
    {
      "channel": 2,
      "note": 62,
      "start": 80.4218,
      "duration": 0.0828,
      "velocity": 99,
      "chip": "ym2612"
    },
    {
      "channel": 3,
      "note": 66,
      "start": 80.4221,
      "duration": 0.0827,
      "velocity": 99,
      "chip": "ym2612"
    },
    {
      "channel": 0,
      "note": 25,
      "start": 80.5896,
      "duration": 0.0831,
      "velocity": 127,
      "chip": "ym2612"
    },
    {
      "channel": 2,
      "note": 62,
      "start": 80.5901,
      "duration": 0.083,
      "velocity": 99,
      "chip": "ym2612"
    },
    {
      "channel": 3,
      "note": 66,
      "start": 80.5905,
      "duration": 0.0828,
      "velocity": 99,
      "chip": "ym2612"
    },
    {
      "channel": 1,
      "note": 50,
      "start": 80.7574,
      "duration": 0.0841,
      "velocity": 113,
      "chip": "ym2612"
    },
    {
      "channel": 2,
      "note": 62,
      "start": 80.7578,
      "duration": 0.084,
      "velocity": 99,
      "chip": "ym2612"
    },
    {
      "channel": 3,
      "note": 66,
      "start": 80.7581,
      "duration": 0.0839,
      "velocity": 99,
      "chip": "ym2612"
    },
    {
      "channel": 4,
      "note": 74,
      "start": 80.7585,
      "duration": 0.0836,
      "velocity": 116,
      "chip": "ym2612"
    },
    {
      "channel": 0,
      "note": 25,
      "start": 80.9436,
      "duration": 0.0831,
      "velocity": 127,
      "chip": "ym2612"
    },
    {
      "channel": 2,
      "note": 62,
      "start": 80.9441,
      "duration": 0.083,
      "velocity": 99,
      "chip": "ym2612"
    },
    {
      "channel": 3,
      "note": 66,
      "start": 80.9445,
      "duration": 0.0828,
      "velocity": 99,
      "chip": "ym2612"
    },
    {
      "channel": 0,
      "note": 32,
      "start": 81.1121,
      "duration": 0.0832,
      "velocity": 127,
      "chip": "ym2612"
    },
    {
      "channel": 1,
      "note": 45,
      "start": 81.1124,
      "duration": 0.083,
      "velocity": 113,
      "chip": "ym2612"
    },
    {
      "channel": 2,
      "note": 62,
      "start": 81.1127,
      "duration": 0.0828,
      "velocity": 99,
      "chip": "ym2612"
    },
    {
      "channel": 3,
      "note": 66,
      "start": 81.113,
      "duration": 0.0827,
      "velocity": 99,
      "chip": "ym2612"
    },
    {
      "channel": 0,
      "note": 32,
      "start": 81.2806,
      "duration": 0.0831,
      "velocity": 127,
      "chip": "ym2612"
    },
    {
      "channel": 2,
      "note": 62,
      "start": 81.2812,
      "duration": 0.083,
      "velocity": 99,
      "chip": "ym2612"
    },
    {
      "channel": 3,
      "note": 66,
      "start": 81.2815,
      "duration": 0.0828,
      "velocity": 99,
      "chip": "ym2612"
    },
    {
      "channel": 0,
      "note": 25,
      "start": 81.4491,
      "duration": 0.0832,
      "velocity": 127,
      "chip": "ym2612"
    },
    {
      "channel": 1,
      "note": 50,
      "start": 81.4495,
      "duration": 0.083,
      "velocity": 113,
      "chip": "ym2612"
    },
    {
      "channel": 2,
      "note": 62,
      "start": 81.4498,
      "duration": 0.0828,
      "velocity": 99,
      "chip": "ym2612"
    },
    {
      "channel": 3,
      "note": 66,
      "start": 81.4501,
      "duration": 0.0827,
      "velocity": 99,
      "chip": "ym2612"
    },
    {
      "channel": 2,
      "note": 62,
      "start": 81.634,
      "duration": 0.0841,
      "velocity": 99,
      "chip": "ym2612"
    },
    {
      "channel": 3,
      "note": 66,
      "start": 81.6344,
      "duration": 0.0839,
      "velocity": 99,
      "chip": "ym2612"
    },
    {
      "channel": 4,
      "note": 74,
      "start": 81.6347,
      "duration": 0.0838,
      "velocity": 116,
      "chip": "ym2612"
    },
    {
      "channel": 0,
      "note": 32,
      "start": 81.8031,
      "duration": 0.0831,
      "velocity": 127,
      "chip": "ym2612"
    },
    {
      "channel": 1,
      "note": 45,
      "start": 81.8034,
      "duration": 0.0829,
      "velocity": 113,
      "chip": "ym2612"
    },
    {
      "channel": 2,
      "note": 62,
      "start": 81.8038,
      "duration": 0.0828,
      "velocity": 99,
      "chip": "ym2612"
    },
    {
      "channel": 3,
      "note": 66,
      "start": 81.8041,
      "duration": 0.0826,
      "velocity": 99,
      "chip": "ym2612"
    },
    {
      "channel": 4,
      "note": 78,
      "start": 81.8044,
      "duration": 0.0825,
      "velocity": 116,
      "chip": "ym2612"
    },
    {
      "channel": 0,
      "note": 25,
      "start": 81.9716,
      "duration": 0.0832,
      "velocity": 127,
      "chip": "ym2612"
    },
    {
      "channel": 2,
      "note": 62,
      "start": 81.9721,
      "duration": 0.083,
      "velocity": 99,
      "chip": "ym2612"
    },
    {
      "channel": 3,
      "note": 66,
      "start": 81.9724,
      "duration": 0.0829,
      "velocity": 99,
      "chip": "ym2612"
    },
    {
      "channel": 4,
      "note": 80,
      "start": 81.9728,
      "duration": 0.0827,
      "velocity": 116,
      "chip": "ym2612"
    },
    {
      "channel": 0,
      "note": 25,
      "start": 82.1401,
      "duration": 0.0832,
      "velocity": 127,
      "chip": "ym2612"
    },
    {
      "channel": 1,
      "note": 50,
      "start": 82.1405,
      "duration": 0.083,
      "velocity": 113,
      "chip": "ym2612"
    },
    {
      "channel": 2,
      "note": 62,
      "start": 82.1408,
      "duration": 0.0828,
      "velocity": 99,
      "chip": "ym2612"
    },
    {
      "channel": 3,
      "note": 66,
      "start": 82.1411,
      "duration": 0.0827,
      "velocity": 99,
      "chip": "ym2612"
    },
    {
      "channel": 4,
      "note": 81,
      "start": 82.1415,
      "duration": 0.0824,
      "velocity": 116,
      "chip": "ym2612"
    },
    {
      "channel": 0,
      "note": 32,
      "start": 82.3255,
      "duration": 0.0832,
      "velocity": 127,
      "chip": "ym2612"
    },
    {
      "channel": 1,
      "note": 45,
      "start": 82.3258,
      "duration": 0.083,
      "velocity": 113,
      "chip": "ym2612"
    },
    {
      "channel": 2,
      "note": 62,
      "start": 82.3261,
      "duration": 0.0828,
      "velocity": 99,
      "chip": "ym2612"
    },
    {
      "channel": 3,
      "note": 66,
      "start": 82.3265,
      "duration": 0.0827,
      "velocity": 99,
      "chip": "ym2612"
    },
    {
      "channel": 4,
      "note": 80,
      "start": 82.3268,
      "duration": 0.0825,
      "velocity": 116,
      "chip": "ym2612"
    },
    {
      "channel": 0,
      "note": 32,
      "start": 82.494,
      "duration": 0.0832,
      "velocity": 127,
      "chip": "ym2612"
    },
    {
      "channel": 1,
      "note": 50,
      "start": 82.4943,
      "duration": 0.083,
      "velocity": 113,
      "chip": "ym2612"
    },
    {
      "channel": 2,
      "note": 62,
      "start": 82.4947,
      "duration": 0.0828,
      "velocity": 99,
      "chip": "ym2612"
    },
    {
      "channel": 3,
      "note": 66,
      "start": 82.495,
      "duration": 0.0826,
      "velocity": 99,
      "chip": "ym2612"
    },
    {
      "channel": 4,
      "note": 78,
      "start": 82.4954,
      "duration": 0.0825,
      "velocity": 116,
      "chip": "ym2612"
    },
    {
      "channel": 0,
      "note": 32,
      "start": 82.6626,
      "duration": 0.0831,
      "velocity": 127,
      "chip": "ym2612"
    },
    {
      "channel": 1,
      "note": 45,
      "start": 82.6629,
      "duration": 0.083,
      "velocity": 113,
      "chip": "ym2612"
    },
    {
      "channel": 2,
      "note": 62,
      "start": 82.6632,
      "duration": 0.0828,
      "velocity": 99,
      "chip": "ym2612"
    },
    {
      "channel": 3,
      "note": 66,
      "start": 82.6636,
      "duration": 0.0827,
      "velocity": 99,
      "chip": "ym2612"
    },
    {
      "channel": 4,
      "note": 80,
      "start": 82.6639,
      "duration": 0.0825,
      "velocity": 116,
      "chip": "ym2612"
    },
    {
      "channel": 0,
      "note": 25,
      "start": 82.8313,
      "duration": 0.083,
      "velocity": 127,
      "chip": "ym2612"
    },
    {
      "channel": 1,
      "note": 57,
      "start": 82.8328,
      "duration": 0.0816,
      "velocity": 1,
      "chip": "ym2612"
    },
    {
      "channel": 2,
      "note": 57,
      "start": 82.8343,
      "duration": 0.0803,
      "velocity": 1,
      "chip": "ym2612"
    },
    {
      "channel": 3,
      "note": 57,
      "start": 82.8358,
      "duration": 0.0791,
      "velocity": 1,
      "chip": "ym2612"
    },
    {
      "channel": 4,
      "note": 57,
      "start": 82.8373,
      "duration": 0.0777,
      "velocity": 1,
      "chip": "ym2612"
    }
  ]
}