{
  "track_name": "05 - Splend",
  "duration_sec": 78.795,
  "sample_rate": 44100,
  "note_count": 958,
  "unique_pitches": 38,
  "pitch_range": 58,
  "avg_note_duration": 0.2016,
  "reconstruction_stats": {
    "notes_reconstructed": 958,
    "keyon_events": 958,
    "keyoff_events": 958,
    "orphan_keyons": 0,
    "unique_pitches": 38,
    "pitch_range": 58,
    "avg_duration_sec": 0.2016
  },
  "metadata": {
    "source": "S\\Super Daisenryaku\\05 - Splend.vgz"
  },
  "notes": [
    {
      "channel": 1,
      "note": 51,
      "start": 0.0044,
      "duration": 0.2657,
      "velocity": 107,
      "chip": "ym2612"
    },
    {
      "channel": 2,
      "note": 79,
      "start": 0.0111,
      "duration": 0.2591,
      "velocity": 111,
      "chip": "ym2612"
    },
    {
      "channel": 3,
      "note": 70,
      "start": 0.0111,
      "duration": 0.2592,
      "velocity": 111,
      "chip": "ym2612"
    },
    {
      "channel": 4,
      "note": 75,
      "start": 0.0112,
      "duration": 0.2591,
      "velocity": 111,
      "chip": "ym2612"
    },
    {
      "channel": 0,
      "note": 94,
      "start": 0.3201,
      "duration": 0.0029,
      "velocity": 63,
      "chip": "ym2612"
    },
    {
      "channel": 1,
      "note": 51,
      "start": 0.3204,
      "duration": 0.1383,
      "velocity": 107,
      "chip": "ym2612"
    },
    {
      "channel": 2,
      "note": 70,
      "start": 0.3212,
      "duration": 0.1376,
      "velocity": 111,
      "chip": "ym2612"
    },
    {
      "channel": 3,
      "note": 77,
      "start": 0.3213,
      "duration": 0.1376,
      "velocity": 111,
      "chip": "ym2612"
    },
    {
      "channel": 4,
      "note": 80,
      "start": 0.3213,
      "duration": 0.1375,
      "velocity": 111,
      "chip": "ym2612"
    },
    {
      "channel": 1,
      "note": 51,
      "start": 0.5091,
      "duration": 0.2654,
      "velocity": 107,
      "chip": "ym2612"
    },
    {
      "channel": 2,
      "note": 80,
      "start": 0.5098,
      "duration": 0.2647,
      "velocity": 111,
      "chip": "ym2612"
    },
    {
      "channel": 3,
      "note": 70,
      "start": 0.5099,
      "duration": 0.2647,
      "velocity": 111,
      "chip": "ym2612"
    },
    {
      "channel": 4,
      "note": 77,
      "start": 0.5099,
      "duration": 0.2648,
      "velocity": 111,
      "chip": "ym2612"
    },
    {
      "channel": 0,
      "note": 94,
      "start": 0.6639,
      "duration": 0.1633,
      "velocity": 63,
      "chip": "ym2612"
    },
    {
      "channel": 1,
      "note": 51,
      "start": 0.8246,
      "duration": 0.1331,
      "velocity": 107,
      "chip": "ym2612"
    },
    {
      "channel": 2,
      "note": 77,
      "start": 0.8254,
      "duration": 0.0021,
      "velocity": 111,
      "chip": "ym2612"
    },
    {
      "channel": 3,
      "note": 74,
      "start": 0.8255,
      "duration": 0.0021,
      "velocity": 111,
      "chip": "ym2612"
    },
    {
      "channel": 4,
      "note": 70,
      "start": 0.8255,
      "duration": 0.0021,
      "velocity": 111,
      "chip": "ym2612"
    },
    {
      "channel": 0,
      "note": 94,
      "start": 0.8527,
      "duration": 0.1047,
      "velocity": 63,
      "chip": "ym2612"
    },
    {
      "channel": 2,
      "note": 70,
      "start": 0.8534,
      "duration": 0.309,
      "velocity": 111,
      "chip": "ym2612"
    },
    {
      "channel": 3,
      "note": 79,
      "start": 0.8535,
      "duration": 0.309,
      "velocity": 111,
      "chip": "ym2612"
    },
    {
      "channel": 4,
      "note": 75,
      "start": 0.8536,
      "duration": 0.309,
      "velocity": 111,
      "chip": "ym2612"
    },
    {
      "channel": 1,
      "note": 51,
      "start": 1.0081,
      "duration": 0.2656,
      "velocity": 107,
      "chip": "ym2612"
    },
    {
      "channel": 2,
      "note": 79,
      "start": 1.1631,
      "duration": 0.1107,
      "velocity": 111,
      "chip": "ym2612"
    },
    {
      "channel": 3,
      "note": 70,
      "start": 1.1632,
      "duration": 0.1107,
      "velocity": 111,
      "chip": "ym2612"
    },
    {
      "channel": 4,
      "note": 75,
      "start": 1.1633,
      "duration": 0.1106,
      "velocity": 111,
      "chip": "ym2612"
    },
    {
      "channel": 0,
      "note": 94,
      "start": 1.3237,
      "duration": 0.0029,
      "velocity": 63,
      "chip": "ym2612"
    },
    {
      "channel": 1,
      "note": 51,
      "start": 1.324,
      "duration": 0.1383,
      "velocity": 107,
      "chip": "ym2612"
    },
    {
      "channel": 2,
      "note": 70,
      "start": 1.3247,
      "duration": 0.1377,
      "velocity": 111,
      "chip": "ym2612"
    },
    {
      "channel": 3,
      "note": 77,
      "start": 1.3248,
      "duration": 0.1377,
      "velocity": 111,
      "chip": "ym2612"
    },
    {
      "channel": 4,
      "note": 80,
      "start": 1.3248,
      "duration": 0.1376,
      "velocity": 111,
      "chip": "ym2612"
    },
    {
      "channel": 1,
      "note": 51,
      "start": 1.5127,
      "duration": 0.2654,
      "velocity": 107,
      "chip": "ym2612"
    },
    {
      "channel": 2,
      "note": 77,
      "start": 1.5134,
      "duration": 0.2647,
      "velocity": 111,
      "chip": "ym2612"
    },
    {
      "channel": 3,
      "note": 70,
      "start": 1.5135,
      "duration": 0.2647,
      "velocity": 111,
      "chip": "ym2612"
    },
    {
      "channel": 4,
      "note": 74,
      "start": 1.5135,
      "duration": 0.2648,
      "velocity": 111,
      "chip": "ym2612"
    },
    {
      "channel": 0,
      "note": 94,
      "start": 1.6676,
      "duration": 0.1632,
      "velocity": 63,
      "chip": "ym2612"
    },
    {
      "channel": 1,
      "note": 51,
      "start": 1.8282,
      "duration": 0.132,
      "velocity": 107,
      "chip": "ym2612"
    },
    {
      "channel": 2,
      "note": 70,
      "start": 1.829,
      "duration": 0.1313,
      "velocity": 111,
      "chip": "ym2612"
    },
    {
      "channel": 3,
      "note": 79,
      "start": 1.829,
      "duration": 0.1313,
      "velocity": 111,
      "chip": "ym2612"
    },
    {
      "channel": 4,
      "note": 75,
      "start": 1.829,
      "duration": 0.1314,
      "velocity": 111,
      "chip": "ym2612"
    },
    {
      "channel": 0,
      "note": 94,
      "start": 1.8561,
      "duration": 0.1038,
      "velocity": 63,
      "chip": "ym2612"
    },
    {
      "channel": 1,
      "note": 51,
      "start": 2.0106,
      "duration": 0.2649,
      "velocity": 107,
      "chip": "ym2612"
    },
    {
      "channel": 2,
      "note": 70,
      "start": 2.0113,
      "duration": 0.2644,
      "velocity": 111,
      "chip": "ym2612"
    },
    {
      "channel": 3,
      "note": 79,
      "start": 2.0114,
      "duration": 0.2644,
      "velocity": 111,
      "chip": "ym2612"
    },
    {
      "channel": 4,
      "note": 75,
      "start": 2.0114,
      "duration": 0.2643,
      "velocity": 111,
      "chip": "ym2612"
    },
    {
      "channel": 0,
      "note": 94,
      "start": 2.3256,
      "duration": 0.0028,
      "velocity": 63,
      "chip": "ym2612"
    },
    {
      "channel": 1,
      "note": 51,
      "start": 2.3258,
      "duration": 0.1382,
      "velocity": 107,
      "chip": "ym2612"
    },
    {
      "channel": 2,
      "note": 70,
      "start": 2.3265,
      "duration": 0.1376,
      "velocity": 111,
      "chip": "ym2612"
    },
    {
      "channel": 3,
      "note": 80,
      "start": 2.3266,
      "duration": 0.1376,
      "velocity": 111,
      "chip": "ym2612"
    },
    {
      "channel": 4,
      "note": 77,
      "start": 2.3267,
      "duration": 0.1376,
      "velocity": 111,
      "chip": "ym2612"
    },
    {
      "channel": 1,
      "note": 51,
      "start": 2.5144,
      "duration": 0.2654,
      "velocity": 107,
      "chip": "ym2612"
    },
    {
      "channel": 2,
      "note": 70,
      "start": 2.5152,
      "duration": 0.2647,
      "velocity": 111,
      "chip": "ym2612"
    },
    {
      "channel": 3,
      "note": 80,
      "start": 2.5152,
      "duration": 0.2647,
      "velocity": 111,
      "chip": "ym2612"
    },
    {
      "channel": 4,
      "note": 77,
      "start": 2.5152,
      "duration": 0.2648,
      "velocity": 111,
      "chip": "ym2612"
    },
    {
      "channel": 0,
      "note": 94,
      "start": 2.6693,
      "duration": 0.1633,
      "velocity": 63,
      "chip": "ym2612"
    },
    {
      "channel": 1,
      "note": 51,
      "start": 2.83,
      "duration": 0.1323,
      "velocity": 107,
      "chip": "ym2612"
    },
    {
      "channel": 2,
      "note": 70,
      "start": 2.8307,
      "duration": 0.1317,
      "velocity": 111,
      "chip": "ym2612"
    },
    {
      "channel": 3,
      "note": 77,
      "start": 2.8308,
      "duration": 0.1317,
      "velocity": 111,
      "chip": "ym2612"
    },
    {
      "channel": 4,
      "note": 74,
      "start": 2.8309,
      "duration": 0.1317,
      "velocity": 111,
      "chip": "ym2612"
    },
    {
      "channel": 0,
      "note": 94,
      "start": 2.8581,
      "duration": 0.1039,
      "velocity": 63,
      "chip": "ym2612"
    },
    {
      "channel": 1,
      "note": 51,
      "start": 3.0127,
      "duration": 0.265,
      "velocity": 107,
      "chip": "ym2612"
    },
    {
      "channel": 2,
      "note": 75,
      "start": 3.0134,
      "duration": 0.3161,
      "velocity": 111,
      "chip": "ym2612"
    },
    {
      "channel": 3,
      "note": 84,
      "start": 3.0134,
      "duration": 0.3161,
      "velocity": 111,
      "chip": "ym2612"
    },
    {
      "channel": 4,
      "note": 80,
      "start": 3.0135,
      "duration": 0.3161,
      "velocity": 111,
      "chip": "ym2612"
    },
    {
      "channel": 0,
      "note": 94,
      "start": 3.3278,
      "duration": 0.0015,
      "velocity": 63,
      "chip": "ym2612"
    },
    {
      "channel": 1,
      "note": 51,
      "start": 3.328,
      "duration": 0.1383,
      "velocity": 107,
      "chip": "ym2612"
    },
    {
      "channel": 2,
      "note": 79,
      "start": 3.3558,
      "duration": 0.6071,
      "velocity": 111,
      "chip": "ym2612"
    },
    {
      "channel": 3,
      "note": 75,
      "start": 3.3559,
      "duration": 0.6071,
      "velocity": 111,
      "chip": "ym2612"
    },
    {
      "channel": 4,
      "note": 82,
      "start": 3.3559,
      "duration": 0.6071,
      "velocity": 111,
      "chip": "ym2612"
    },
    {
      "channel": 1,
      "note": 51,
      "start": 3.5168,
      "duration": 0.2645,
      "velocity": 107,
      "chip": "ym2612"
    },
    {
      "channel": 0,
      "note": 94,
      "start": 3.6707,
      "duration": 0.1619,
      "velocity": 63,
      "chip": "ym2612"
    },
    {
      "channel": 1,
      "note": 51,
      "start": 3.8315,
      "duration": 0.1313,
      "velocity": 107,
      "chip": "ym2612"
    },
    {
      "channel": 0,
      "note": 94,
      "start": 3.8587,
      "duration": 0.1038,
      "velocity": 63,
      "chip": "ym2612"
    },
    {
      "channel": 1,
      "note": 51,
      "start": 4.0132,
      "duration": 0.2652,
      "velocity": 107,
      "chip": "ym2612"
    },
    {
      "channel": 2,
      "note": 79,
      "start": 4.014,
      "duration": 0.2645,
      "velocity": 111,
      "chip": "ym2612"
    },
    {
      "channel": 3,
      "note": 70,
      "start": 4.014,
      "duration": 0.2645,
      "velocity": 111,
      "chip": "ym2612"
    },
    {
      "channel": 4,
      "note": 75,
      "start": 4.0141,
      "duration": 0.2645,
      "velocity": 111,
      "chip": "ym2612"
    },
    {
      "channel": 0,
      "note": 94,
      "start": 4.3284,
      "duration": 0.0028,
      "velocity": 63,
      "chip": "ym2612"
    },
    {
      "channel": 1,
      "note": 51,
      "start": 4.3287,
      "duration": 0.1382,
      "velocity": 107,
      "chip": "ym2612"
    },
    {
      "channel": 2,
      "note": 70,
      "start": 4.3294,
      "duration": 0.1376,
      "velocity": 111,
      "chip": "ym2612"
    },
    {
      "channel": 3,
      "note": 77,
      "start": 4.3295,
      "duration": 0.1376,
      "velocity": 111,
      "chip": "ym2612"
    },
    {
      "channel": 4,
      "note": 80,
      "start": 4.3295,
      "duration": 0.1376,
      "velocity": 111,
      "chip": "ym2612"
    },
    {
      "channel": 1,
      "note": 51,
      "start": 4.5173,
      "duration": 0.2654,
      "velocity": 107,
      "chip": "ym2612"
    },
    {
      "channel": 2,
      "note": 80,
      "start": 4.518,
      "duration": 0.2647,
      "velocity": 111,
      "chip": "ym2612"
    },
    {
      "channel": 3,
      "note": 70,
      "start": 4.5181,
      "duration": 0.2647,
      "velocity": 111,
      "chip": "ym2612"
    },
    {
      "channel": 4,
      "note": 77,
      "start": 4.5181,
      "duration": 0.2648,
      "velocity": 111,
      "chip": "ym2612"
    },
    {
      "channel": 0,
      "note": 94,
      "start": 4.6722,
      "duration": 0.1633,
      "velocity": 63,
      "chip": "ym2612"
    },
    {
      "channel": 1,
      "note": 51,
      "start": 4.8329,
      "duration": 0.1331,
      "velocity": 107,
      "chip": "ym2612"
    },
    {
      "channel": 2,
      "note": 77,
      "start": 4.8336,
      "duration": 0.0021,
      "velocity": 111,
      "chip": "ym2612"
    },
    {
      "channel": 3,
      "note": 74,
      "start": 4.8337,
      "duration": 0.0021,
      "velocity": 111,
      "chip": "ym2612"
    },
    {
      "channel": 4,
      "note": 70,
      "start": 4.8338,
      "duration": 0.0021,
      "velocity": 111,
      "chip": "ym2612"
    },
    {
      "channel": 0,
      "note": 94,
      "start": 4.861,
      "duration": 0.1047,
      "velocity": 63,
      "chip": "ym2612"
    },
    {
      "channel": 2,
      "note": 70,
      "start": 4.8617,
      "duration": 0.3089,
      "velocity": 111,
      "chip": "ym2612"
    },
    {
      "channel": 3,
      "note": 79,
      "start": 4.8617,
      "duration": 0.3089,
      "velocity": 111,
      "chip": "ym2612"
    },
    {
      "channel": 4,
      "note": 75,
      "start": 4.8618,
      "duration": 0.3089,
      "velocity": 111,
      "chip": "ym2612"
    },
    {
      "channel": 1,
      "note": 51,
      "start": 5.0163,
      "duration": 0.2654,
      "velocity": 107,
      "chip": "ym2612"
    },
    {
      "channel": 2,
      "note": 79,
      "start": 5.1712,
      "duration": 0.1107,
      "velocity": 111,
      "chip": "ym2612"
    },
    {
      "channel": 3,
      "note": 70,
      "start": 5.1713,
      "duration": 0.1107,
      "velocity": 111,
      "chip": "ym2612"
    },
    {
      "channel": 4,
      "note": 75,
      "start": 5.1714,
      "duration": 0.1106,
      "velocity": 111,
      "chip": "ym2612"
    },
    {
      "channel": 0,
      "note": 94,
      "start": 5.3318,
      "duration": 0.0029,
      "velocity": 63,
      "chip": "ym2612"
    },
    {
      "channel": 1,
      "note": 51,
      "start": 5.3321,
      "duration": 0.1383,
      "velocity": 107,
      "chip": "ym2612"
    },
    {
      "channel": 2,
      "note": 70,
      "start": 5.3328,
      "duration": 0.1377,
      "velocity": 111,
      "chip": "ym2612"
    },
    {
      "channel": 3,
      "note": 77,
      "start": 5.3329,
      "duration": 0.1377,
      "velocity": 111,
      "chip": "ym2612"
    },
    {
      "channel": 4,
      "note": 80,
      "start": 5.3329,
      "duration": 0.1376,
      "velocity": 111,
      "chip": "ym2612"
    },
    {
      "channel": 1,
      "note": 51,
      "start": 5.5208,
      "duration": 0.2654,
      "velocity": 107,
      "chip": "ym2612"
    },
    {
      "channel": 2,
      "note": 77,
      "start": 5.5215,
      "duration": 0.2647,
      "velocity": 111,
      "chip": "ym2612"
    },
    {
      "channel": 3,
      "note": 70,
      "start": 5.5216,
      "duration": 0.2647,
      "velocity": 111,
      "chip": "ym2612"
    },
    {
      "channel": 4,
      "note": 74,
      "start": 5.5216,
      "duration": 0.2648,
      "velocity": 111,
      "chip": "ym2612"
    },
    {
      "channel": 0,
      "note": 94,
      "start": 5.6756,
      "duration": 0.1632,
      "velocity": 63,
      "chip": "ym2612"
    },
    {
      "channel": 1,
      "note": 51,
      "start": 5.8363,
      "duration": 0.132,
      "velocity": 107,
      "chip": "ym2612"
    },
    {
      "channel": 2,
      "note": 70,
      "start": 5.8371,
      "duration": 0.1313,
      "velocity": 111,
      "chip": "ym2612"
    },
    {
      "channel": 3,
      "note": 79,
      "start": 5.8371,
      "duration": 0.1313,
      "velocity": 111,
      "chip": "ym2612"
    },
    {
      "channel": 4,
      "note": 75,
      "start": 5.8371,
      "duration": 0.1314,
      "velocity": 111,
      "chip": "ym2612"
    },
    {
      "channel": 0,
      "note": 94,
      "start": 5.8642,
      "duration": 0.1038,
      "velocity": 63,
      "chip": "ym2612"
    },
    {
      "channel": 1,
      "note": 51,
      "start": 6.0187,
      "duration": 0.2649,
      "velocity": 107,
      "chip": "ym2612"
    },
    {
      "channel": 2,
      "note": 70,
      "start": 6.0194,
      "duration": 0.2644,
      "velocity": 111,
      "chip": "ym2612"
    },
    {
      "channel": 3,
      "note": 79,
      "start": 6.0195,
      "duration": 0.2644,
      "velocity": 111,
      "chip": "ym2612"
    },
    {
      "channel": 4,
      "note": 75,
      "start": 6.0195,
      "duration": 0.2643,
      "velocity": 111,
      "chip": "ym2612"
    },
    {
      "channel": 0,
      "note": 94,
      "start": 6.3337,
      "duration": 0.0028,
      "velocity": 63,
      "chip": "ym2612"
    },
    {
      "channel": 1,
      "note": 51,
      "start": 6.3339,
      "duration": 0.1382,
      "velocity": 107,
      "chip": "ym2612"
    },
    {
      "channel": 2,
      "note": 70,
      "start": 6.3346,
      "duration": 0.1376,
      "velocity": 111,
      "chip": "ym2612"
    },
    {
      "channel": 3,
      "note": 80,
      "start": 6.3347,
      "duration": 0.1376,
      "velocity": 111,
      "chip": "ym2612"
    },
    {
      "channel": 4,
      "note": 77,
      "start": 6.3348,
      "duration": 0.1376,
      "velocity": 111,
      "chip": "ym2612"
    },
    {
      "channel": 1,
      "note": 51,
      "start": 6.5225,
      "duration": 0.2654,
      "velocity": 107,
      "chip": "ym2612"
    },
    {
      "channel": 2,
      "note": 70,
      "start": 6.5233,
      "duration": 0.2647,
      "velocity": 111,
      "chip": "ym2612"
    },
    {
      "channel": 3,
      "note": 80,
      "start": 6.5233,
      "duration": 0.2647,
      "velocity": 111,
      "chip": "ym2612"
    },
    {
      "channel": 4,
      "note": 77,
      "start": 6.5233,
      "duration": 0.2648,
      "velocity": 111,
      "chip": "ym2612"
    },
    {
      "channel": 0,
      "note": 94,
      "start": 6.6774,
      "duration": 0.1632,
      "velocity": 63,
      "chip": "ym2612"
    },
    {
      "channel": 1,
      "note": 51,
      "start": 6.8381,
      "duration": 0.0028,
      "velocity": 107,
      "chip": "ym2612"
    },
    {
      "channel": 2,
      "note": 70,
      "start": 6.8388,
      "duration": 0.0022,
      "velocity": 111,
      "chip": "ym2612"
    },
    {
      "channel": 3,
      "note": 74,
      "start": 6.8388,
      "duration": 0.0022,
      "velocity": 111,
      "chip": "ym2612"
    },
    {
      "channel": 4,
      "note": 77,
      "start": 6.8389,
      "duration": 0.0022,
      "velocity": 111,
      "chip": "ym2612"
    },
    {
      "channel": 0,
      "note": 94,
      "start": 6.8662,
      "duration": 0.1047,
      "velocity": 63,
      "chip": "ym2612"
    },
    {
      "channel": 1,
      "note": 49,
      "start": 6.8665,
      "duration": 0.4695,
      "velocity": 107,
      "chip": "ym2612"
    },
    {
      "channel": 2,
      "note": 73,
      "start": 6.8671,
      "duration": 0.7931,
      "velocity": 111,
      "chip": "ym2612"
    },
    {
      "channel": 3,
      "note": 77,
      "start": 6.8671,
      "duration": 0.7932,
      "velocity": 111,
      "chip": "ym2612"
    },
    {
      "channel": 4,
      "note": 68,
      "start": 6.8672,
      "duration": 0.7931,
      "velocity": 111,
      "chip": "ym2612"
    },
    {
      "channel": 0,
      "note": 92,
      "start": 7.336,
      "duration": 0.0014,
      "velocity": 63,
      "chip": "ym2612"
    },
    {
      "channel": 1,
      "note": 49,
      "start": 7.3363,
      "duration": 0.1375,
      "velocity": 107,
      "chip": "ym2612"
    },
    {
      "channel": 1,
      "note": 49,
      "start": 7.5241,
      "duration": 0.0041,
      "velocity": 107,
      "chip": "ym2612"
    },
    {
      "channel": 1,
      "note": 49,
      "start": 7.5784,
      "duration": 0.0041,
      "velocity": 107,
      "chip": "ym2612"
    },
    {
      "channel": 0,
      "note": 92,
      "start": 7.6325,
      "duration": 0.0301,
      "velocity": 63,
      "chip": "ym2612"
    },
    {
      "channel": 1,
      "note": 44,
      "start": 7.6329,
      "duration": 0.0014,
      "velocity": 107,
      "chip": "ym2612"
    },
    {
      "channel": 1,
      "note": 46,
      "start": 7.6601,
      "duration": 0.0027,
      "velocity": 107,
      "chip": "ym2612"
    },
    {
      "channel": 2,
      "note": 68,
      "start": 7.6609,
      "duration": 0.002,
      "velocity": 111,
      "chip": "ym2612"
    },
    {
      "channel": 3,
      "note": 77,
      "start": 7.6609,
      "duration": 0.0021,
      "velocity": 111,
      "chip": "ym2612"
    },
    {
      "channel": 4,
      "note": 73,
      "start": 7.6609,
      "duration": 0.0021,
      "velocity": 111,
      "chip": "ym2612"
    },
    {
      "channel": 0,
      "note": 92,
      "start": 7.688,
      "duration": 0.0028,
      "velocity": 63,
      "chip": "ym2612"
    },
    {
      "channel": 1,
      "note": 51,
      "start": 7.6883,
      "duration": 0.0027,
      "velocity": 107,
      "chip": "ym2612"
    },
    {
      "channel": 2,
      "note": 75,
      "start": 7.689,
      "duration": 0.1817,
      "velocity": 111,
      "chip": "ym2612"
    },
    {
      "channel": 3,
      "note": 70,
      "start": 7.689,
      "duration": 0.1817,
      "velocity": 111,
      "chip": "ym2612"
    },
    {
      "channel": 4,
      "note": 79,
      "start": 7.6891,
      "duration": 0.1817,
      "velocity": 111,
      "chip": "ym2612"
    },
    {
      "channel": 1,
      "note": 51,
      "start": 7.7164,
      "duration": 0.2654,
      "velocity": 107,
      "chip": "ym2612"
    },
    {
      "channel": 2,
      "note": 70,
      "start": 7.8713,
      "duration": 0.1107,
      "velocity": 111,
      "chip": "ym2612"
    },
    {
      "channel": 3,
      "note": 79,
      "start": 7.8713,
      "duration": 0.1107,
      "velocity": 111,
      "chip": "ym2612"
    },
    {
      "channel": 4,
      "note": 75,
      "start": 7.8714,
      "duration": 0.1106,
      "velocity": 111,
      "chip": "ym2612"
    },
    {
      "channel": 0,
      "note": 94,
      "start": 8.0319,
      "duration": 0.0028,
      "velocity": 63,
      "chip": "ym2612"
    },
    {
      "channel": 1,
      "note": 51,
      "start": 8.0322,
      "duration": 0.1382,
      "velocity": 107,
      "chip": "ym2612"
    },
    {
      "channel": 2,
      "note": 70,
      "start": 8.0329,
      "duration": 0.1376,
      "velocity": 111,
      "chip": "ym2612"
    },
    {
      "channel": 3,
      "note": 80,
      "start": 8.0329,
      "duration": 0.1376,
      "velocity": 111,
      "chip": "ym2612"
    },
    {
      "channel": 4,
      "note": 77,
      "start": 8.033,
      "duration": 0.1375,
      "velocity": 111,
      "chip": "ym2612"
    },
    {
      "channel": 1,
      "note": 51,
      "start": 8.2207,
      "duration": 0.2654,
      "velocity": 107,
      "chip": "ym2612"
    },
    {
      "channel": 2,
      "note": 80,
      "start": 8.2214,
      "duration": 0.2647,
      "velocity": 111,
      "chip": "ym2612"
    },
    {
      "channel": 3,
      "note": 77,
      "start": 8.2215,
      "duration": 0.2647,
      "velocity": 111,
      "chip": "ym2612"
    },
    {
      "channel": 4,
      "note": 70,
      "start": 8.2215,
      "duration": 0.2648,
      "velocity": 111,
      "chip": "ym2612"
    },
    {
      "channel": 0,
      "note": 94,
      "start": 8.3756,
      "duration": 0.1633,
      "velocity": 63,
      "chip": "ym2612"
    },
    {
      "channel": 1,
      "note": 51,
      "start": 8.5363,
      "duration": 0.1331,
      "velocity": 107,
      "chip": "ym2612"
    },
    {
      "channel": 2,
      "note": 74,
      "start": 8.537,
      "duration": 0.0021,
      "velocity": 111,
      "chip": "ym2612"
    },
    {
      "channel": 3,
      "note": 70,
      "start": 8.5371,
      "duration": 0.0021,
      "velocity": 111,
      "chip": "ym2612"
    },
    {
      "channel": 4,
      "note": 77,
      "start": 8.5372,
      "duration": 0.0021,
      "velocity": 111,
      "chip": "ym2612"
    },
    {
      "channel": 0,
      "note": 94,
      "start": 8.5644,
      "duration": 0.1047,
      "velocity": 63,
      "chip": "ym2612"
    },
    {
      "channel": 2,
      "note": 70,
      "start": 8.5651,
      "duration": 0.309,
      "velocity": 111,
      "chip": "ym2612"
    },
    {
      "channel": 3,
      "note": 79,
      "start": 8.5651,
      "duration": 0.309,
      "velocity": 111,
      "chip": "ym2612"
    },
    {
      "channel": 4,
      "note": 75,
      "start": 8.5652,
      "duration": 0.309,
      "velocity": 111,
      "chip": "ym2612"
    },
    {
      "channel": 1,
      "note": 51,
      "start": 8.7198,
      "duration": 0.2656,
      "velocity": 107,
      "chip": "ym2612"
    },
    {
      "channel": 2,
      "note": 79,
      "start": 8.8748,
      "duration": 0.1107,
      "velocity": 111,
      "chip": "ym2612"
    },
    {
      "channel": 3,
      "note": 70,
      "start": 8.8748,
      "duration": 0.1107,
      "velocity": 111,
      "chip": "ym2612"
    },
    {
      "channel": 4,
      "note": 75,
      "start": 8.8749,
      "duration": 0.1106,
      "velocity": 111,
      "chip": "ym2612"
    },
    {
      "channel": 0,
      "note": 94,
      "start": 9.0354,
      "duration": 0.0029,
      "velocity": 63,
      "chip": "ym2612"
    },
    {
      "channel": 1,
      "note": 51,
      "start": 9.0356,
      "duration": 0.1383,
      "velocity": 107,
      "chip": "ym2612"
    },
    {
      "channel": 2,
      "note": 70,
      "start": 9.0363,
      "duration": 0.1377,
      "velocity": 111,
      "chip": "ym2612"
    },
    {
      "channel": 3,
      "note": 80,
      "start": 9.0364,
      "duration": 0.1377,
      "velocity": 111,
      "chip": "ym2612"
    },
    {
      "channel": 4,
      "note": 77,
      "start": 9.0365,
      "duration": 0.1376,
      "velocity": 111,
      "chip": "ym2612"
    },
    {
      "channel": 1,
      "note": 51,
      "start": 9.2243,
      "duration": 0.2654,
      "velocity": 107,
      "chip": "ym2612"
    },
    {
      "channel": 2,
      "note": 70,
      "start": 9.225,
      "duration": 0.2647,
      "velocity": 111,
      "chip": "ym2612"
    },
    {
      "channel": 3,
      "note": 74,
      "start": 9.2251,
      "duration": 0.2647,
      "velocity": 111,
      "chip": "ym2612"
    },
    {
      "channel": 4,
      "note": 77,
      "start": 9.2251,
      "duration": 0.2648,
      "velocity": 111,
      "chip": "ym2612"
    },
    {
      "channel": 0,
      "note": 94,
      "start": 9.3792,
      "duration": 0.1632,
      "velocity": 63,
      "chip": "ym2612"
    },
    {
      "channel": 1,
      "note": 51,
      "start": 9.5399,
      "duration": 0.132,
      "velocity": 107,
      "chip": "ym2612"
    },
    {
      "channel": 2,
      "note": 70,
      "start": 9.5406,
      "duration": 0.1313,
      "velocity": 111,
      "chip": "ym2612"
    },
    {
      "channel": 3,
      "note": 79,
      "start": 9.5407,
      "duration": 0.1313,
      "velocity": 111,
      "chip": "ym2612"
    },
    {
      "channel": 4,
      "note": 75,
      "start": 9.5407,
      "duration": 0.1314,
      "velocity": 111,
      "chip": "ym2612"
    },
    {
      "channel": 0,
      "note": 94,
      "start": 9.5677,
      "duration": 0.1038,
      "velocity": 63,
      "chip": "ym2612"
    },
    {
      "channel": 1,
      "note": 51,
      "start": 9.7222,
      "duration": 0.2649,
      "velocity": 107,
      "chip": "ym2612"
    },
    {
      "channel": 2,
      "note": 70,
      "start": 9.7229,
      "duration": 0.2644,
      "velocity": 111,
      "chip": "ym2612"
    },
    {
      "channel": 3,
      "note": 79,
      "start": 9.723,
      "duration": 0.2644,
      "velocity": 111,
      "chip": "ym2612"
    },
    {
      "channel": 4,
      "note": 75,
      "start": 9.7231,
      "duration": 0.2643,
      "velocity": 111,
      "chip": "ym2612"
    },
    {
      "channel": 0,
      "note": 94,
      "start": 10.0372,
      "duration": 0.0028,
      "velocity": 63,
      "chip": "ym2612"
    },
    {
      "channel": 1,
      "note": 51,
      "start": 10.0375,
      "duration": 0.1382,
      "velocity": 107,
      "chip": "ym2612"
    },
    {
      "channel": 2,
      "note": 70,
      "start": 10.0382,
      "duration": 0.1376,
      "velocity": 111,
      "chip": "ym2612"
    },
    {
      "channel": 3,
      "note": 80,
      "start": 10.0382,
      "duration": 0.1376,
      "velocity": 111,
      "chip": "ym2612"
    },
    {
      "channel": 4,
      "note": 77,
      "start": 10.0383,
      "duration": 0.1376,
      "velocity": 111,
      "chip": "ym2612"
    },
    {
      "channel": 1,
      "note": 51,
      "start": 10.2261,
      "duration": 0.2654,
      "velocity": 107,
      "chip": "ym2612"
    },
    {
      "channel": 2,
      "note": 80,
      "start": 10.2268,
      "duration": 0.2647,
      "velocity": 111,
      "chip": "ym2612"
    },
    {
      "channel": 3,
      "note": 77,
      "start": 10.2269,
      "duration": 0.2647,
      "velocity": 111,
      "chip": "ym2612"
    },
    {
      "channel": 4,
      "note": 70,
      "start": 10.2269,
      "duration": 0.2648,
      "velocity": 111,
      "chip": "ym2612"
    },
    {
      "channel": 0,
      "note": 94,
      "start": 10.381,
      "duration": 0.1632,
      "velocity": 63,
      "chip": "ym2612"
    },
    {
      "channel": 1,
      "note": 51,
      "start": 10.5416,
      "duration": 0.132,
      "velocity": 107,
      "chip": "ym2612"
    },
    {
      "channel": 2,
      "note": 70,
      "start": 10.5424,
      "duration": 0.1313,
      "velocity": 111,
      "chip": "ym2612"
    },
    {
      "channel": 3,
      "note": 74,
      "start": 10.5424,
      "duration": 0.1313,
      "velocity": 111,
      "chip": "ym2612"
    },
    {
      "channel": 4,
      "note": 77,
      "start": 10.5424,
      "duration": 0.1314,
      "velocity": 111,
      "chip": "ym2612"
    },
    {
      "channel": 0,
      "note": 94,
      "start": 10.5695,
      "duration": 0.1038,
      "velocity": 63,
      "chip": "ym2612"
    },
    {
      "channel": 1,
      "note": 51,
      "start": 10.724,
      "duration": 0.2649,
      "velocity": 107,
      "chip": "ym2612"
    },
    {
      "channel": 2,
      "note": 75,
      "start": 10.7247,
      "duration": 0.2644,
      "velocity": 111,
      "chip": "ym2612"
    },
    {
      "channel": 3,
      "note": 80,
      "start": 10.7248,
      "duration": 0.2644,
      "velocity": 111,
      "chip": "ym2612"
    },
    {
      "channel": 4,
      "note": 84,
      "start": 10.7248,
      "duration": 0.2643,
      "velocity": 111,
      "chip": "ym2612"
    },
    {
      "channel": 0,
      "note": 94,
      "start": 11.039,
      "duration": 0.0029,
      "velocity": 63,
      "chip": "ym2612"
    },
    {
      "channel": 1,
      "note": 51,
      "start": 11.0392,
      "duration": 0.1391,
      "velocity": 107,
      "chip": "ym2612"
    },
    {
      "channel": 2,
      "note": 75,
      "start": 11.0399,
      "duration": 0.0022,
      "velocity": 111,
      "chip": "ym2612"
    },
    {
      "channel": 3,
      "note": 84,
      "start": 11.04,
      "duration": 0.0021,
      "velocity": 111,
      "chip": "ym2612"
    },
    {
      "channel": 4,
      "note": 80,
      "start": 11.0401,
      "duration": 0.0021,
      "velocity": 111,
      "chip": "ym2612"
    },
    {
      "channel": 2,
      "note": 75,
      "start": 11.0678,
      "duration": 0.265,
      "velocity": 111,
      "chip": "ym2612"
    },
    {
      "channel": 3,
      "note": 82,
      "start": 11.0678,
      "duration": 0.265,
      "velocity": 111,
      "chip": "ym2612"
    },
    {
      "channel": 4,
      "note": 79,
      "start": 11.0679,
      "duration": 0.265,
      "velocity": 111,
      "chip": "ym2612"
    },
    {
      "channel": 1,
      "note": 51,
      "start": 11.2288,
      "duration": 0.2651,
      "velocity": 107,
      "chip": "ym2612"
    },
    {
      "channel": 0,
      "note": 94,
      "start": 11.3827,
      "duration": 0.1638,
      "velocity": 63,
      "chip": "ym2612"
    },
    {
      "channel": 2,
      "note": 75,
      "start": 11.3835,
      "duration": 0.1105,
      "velocity": 111,
      "chip": "ym2612"
    },
    {
      "channel": 3,
      "note": 79,
      "start": 11.3836,
      "duration": 0.1105,
      "velocity": 111,
      "chip": "ym2612"
    },
    {
      "channel": 4,
      "note": 82,
      "start": 11.3837,
      "duration": 0.1105,
      "velocity": 111,
      "chip": "ym2612"
    },
    {
      "channel": 1,
      "note": 51,
      "start": 11.5441,
      "duration": 0.133,
      "velocity": 107,
      "chip": "ym2612"
    },
    {
      "channel": 2,
      "note": 82,
      "start": 11.5448,
      "duration": 0.002,
      "velocity": 111,
      "chip": "ym2612"
    },
    {
      "channel": 3,
      "note": 75,
      "start": 11.5449,
      "duration": 0.002,
      "velocity": 111,
      "chip": "ym2612"
    },
    {
      "channel": 4,
      "note": 79,
      "start": 11.5449,
      "duration": 0.0021,
      "velocity": 111,
      "chip": "ym2612"
    },
    {
      "channel": 0,
      "note": 94,
      "start": 11.572,
      "duration": 0.1048,
      "velocity": 63,
      "chip": "ym2612"
    },
    {
      "channel": 2,
      "note": 82,
      "start": 11.5727,
      "duration": 0.1045,
      "velocity": 111,
      "chip": "ym2612"
    },
    {
      "channel": 3,
      "note": 75,
      "start": 11.5728,
      "duration": 0.1045,
      "velocity": 111,
      "chip": "ym2612"
    },
    {
      "channel": 4,
      "note": 79,
      "start": 11.5729,
      "duration": 0.1045,
      "velocity": 111,
      "chip": "ym2612"
    },
    {
      "channel": 1,
      "note": 51,
      "start": 11.7275,
      "duration": 0.2652,
      "velocity": 107,
      "chip": "ym2612"
    },
    {
      "channel": 2,
      "note": 79,
      "start": 11.7283,
      "duration": 0.2645,
      "velocity": 111,
      "chip": "ym2612"
    },
    {
      "channel": 3,
      "note": 70,
      "start": 11.7283,
      "duration": 0.2645,
      "velocity": 111,
      "chip": "ym2612"
    },
    {
      "channel": 4,
      "note": 75,
      "start": 11.7284,
      "duration": 0.2645,
      "velocity": 111,
      "chip": "ym2612"
    },
    {
      "channel": 0,
      "note": 94,
      "start": 12.0427,
      "duration": 0.0028,
      "velocity": 63,
      "chip": "ym2612"
    },
    {
      "channel": 1,
      "note": 51,
      "start": 12.043,
      "duration": 0.1382,
      "velocity": 107,
      "chip": "ym2612"
    },
    {
      "channel": 2,
      "note": 70,
      "start": 12.0437,
      "duration": 0.1376,
      "velocity": 111,
      "chip": "ym2612"
    },
    {
      "channel": 3,
      "note": 77,
      "start": 12.0438,
      "duration": 0.1376,
      "velocity": 111,
      "chip": "ym2612"
    },
    {
      "channel": 4,
      "note": 80,
      "start": 12.0438,
      "duration": 0.1376,
      "velocity": 111,
      "chip": "ym2612"
    },
    {
      "channel": 1,
      "note": 51,
      "start": 12.2316,
      "duration": 0.2654,
      "velocity": 107,
      "chip": "ym2612"
    },
    {
      "channel": 2,
      "note": 80,
      "start": 12.2323,
      "duration": 0.2647,
      "velocity": 111,
      "chip": "ym2612"
    },
    {
      "channel": 3,
      "note": 70,
      "start": 12.2324,
      "duration": 0.2647,
      "velocity": 111,
      "chip": "ym2612"
    },
    {
      "channel": 4,
      "note": 77,
      "start": 12.2324,
      "duration": 0.2648,
      "velocity": 111,
      "chip": "ym2612"
    },
    {
      "channel": 0,
      "note": 94,
      "start": 12.3865,
      "duration": 0.1633,
      "velocity": 63,
      "chip": "ym2612"
    },
    {
      "channel": 1,
      "note": 51,
      "start": 12.5472,
      "duration": 0.1331,
      "velocity": 107,
      "chip": "ym2612"
    },
    {
      "channel": 2,
      "note": 77,
      "start": 12.5479,
      "duration": 0.0021,
      "velocity": 111,
      "chip": "ym2612"
    },
    {
      "channel": 3,
      "note": 74,
      "start": 12.548,
      "duration": 0.0021,
      "velocity": 111,
      "chip": "ym2612"
    },
    {
      "channel": 4,
      "note": 70,
      "start": 12.5481,
      "duration": 0.0021,
      "velocity": 111,
      "chip": "ym2612"
    },
    {
      "channel": 0,
      "note": 94,
      "start": 12.5753,
      "duration": 0.1047,
      "velocity": 63,
      "chip": "ym2612"
    },
    {
      "channel": 2,
      "note": 70,
      "start": 12.576,
      "duration": 0.3089,
      "velocity": 111,
      "chip": "ym2612"
    },
    {
      "channel": 3,
      "note": 79,
      "start": 12.5761,
      "duration": 0.3089,
      "velocity": 111,
      "chip": "ym2612"
    },
    {
      "channel": 4,
      "note": 75,
      "start": 12.5761,
      "duration": 0.3089,
      "velocity": 111,
      "chip": "ym2612"
    },
    {
      "channel": 1,
      "note": 51,
      "start": 12.7307,
      "duration": 0.2654,
      "velocity": 107,
      "chip": "ym2612"
    },
    {
      "channel": 2,
      "note": 79,
      "start": 12.8855,
      "duration": 0.1107,
      "velocity": 111,
      "chip": "ym2612"
    },
    {
      "channel": 3,
      "note": 70,
      "start": 12.8856,
      "duration": 0.1107,
      "velocity": 111,
      "chip": "ym2612"
    },
    {
      "channel": 4,
      "note": 75,
      "start": 12.8857,
      "duration": 0.1106,
      "velocity": 111,
      "chip": "ym2612"
    },
    {
      "channel": 0,
      "note": 94,
      "start": 13.0461,
      "duration": 0.0029,
      "velocity": 63,
      "chip": "ym2612"
    },
    {
      "channel": 1,
      "note": 51,
      "start": 13.0464,
      "duration": 0.1383,
      "velocity": 107,
      "chip": "ym2612"
    },
    {
      "channel": 2,
      "note": 70,
      "start": 13.0471,
      "duration": 0.1377,
      "velocity": 111,
      "chip": "ym2612"
    },
    {
      "channel": 3,
      "note": 77,
      "start": 13.0472,
      "duration": 0.1377,
      "velocity": 111,
      "chip": "ym2612"
    },
    {
      "channel": 4,
      "note": 80,
      "start": 13.0472,
      "duration": 0.1376,
      "velocity": 111,
      "chip": "ym2612"
    },
    {
      "channel": 1,
      "note": 51,
      "start": 13.2351,
      "duration": 0.2654,
      "velocity": 107,
      "chip": "ym2612"
    },
    {
      "channel": 2,
      "note": 77,
      "start": 13.2358,
      "duration": 0.2647,
      "velocity": 111,
      "chip": "ym2612"
    },
    {
      "channel": 3,
      "note": 70,
      "start": 13.2359,
      "duration": 0.2647,
      "velocity": 111,
      "chip": "ym2612"
    },
    {
      "channel": 4,
      "note": 74,
      "start": 13.2359,
      "duration": 0.2648,
      "velocity": 111,
      "chip": "ym2612"
    },
    {
      "channel": 0,
      "note": 94,
      "start": 13.39,
      "duration": 0.1632,
      "velocity": 63,
      "chip": "ym2612"
    },
    {
      "channel": 1,
      "note": 51,
      "start": 13.5506,
      "duration": 0.132,
      "velocity": 107,
      "chip": "ym2612"
    },
    {
      "channel": 2,
      "note": 70,
      "start": 13.5514,
      "duration": 0.1313,
      "velocity": 111,
      "chip": "ym2612"
    },
    {
      "channel": 3,
      "note": 79,
      "start": 13.5515,
      "duration": 0.1313,
      "velocity": 111,
      "chip": "ym2612"
    },
    {
      "channel": 4,
      "note": 75,
      "start": 13.5515,
      "duration": 0.1314,
      "velocity": 111,
      "chip": "ym2612"
    },
    {
      "channel": 0,
      "note": 94,
      "start": 13.5785,
      "duration": 0.1038,
      "velocity": 63,
      "chip": "ym2612"
    },
    {
      "channel": 1,
      "note": 51,
      "start": 13.733,
      "duration": 0.2649,
      "velocity": 107,
      "chip": "ym2612"
    },
    {
      "channel": 2,
      "note": 70,
      "start": 13.7337,
      "duration": 0.2644,
      "velocity": 111,
      "chip": "ym2612"
    },
    {
      "channel": 3,
      "note": 79,
      "start": 13.7338,
      "duration": 0.2644,
      "velocity": 111,
      "chip": "ym2612"
    },
    {
      "channel": 4,
      "note": 75,
      "start": 13.7338,
      "duration": 0.2643,
      "velocity": 111,
      "chip": "ym2612"
    },
    {
      "channel": 0,
      "note": 94,
      "start": 14.048,
      "duration": 0.0028,
      "velocity": 63,
      "chip": "ym2612"
    },
    {
      "channel": 1,
      "note": 51,
      "start": 14.0482,
      "duration": 0.1382,
      "velocity": 107,
      "chip": "ym2612"
    },
    {
      "channel": 2,
      "note": 70,
      "start": 14.0489,
      "duration": 0.1376,
      "velocity": 111,
      "chip": "ym2612"
    },
    {
      "channel": 3,
      "note": 80,
      "start": 14.049,
      "duration": 0.1376,
      "velocity": 111,
      "chip": "ym2612"
    },
    {
      "channel": 4,
      "note": 77,
      "start": 14.0491,
      "duration": 0.1376,
      "velocity": 111,
      "chip": "ym2612"
    },
    {
      "channel": 1,
      "note": 51,
      "start": 14.2368,
      "duration": 0.2654,
      "velocity": 107,
      "chip": "ym2612"
    },
    {
      "channel": 2,
      "note": 70,
      "start": 14.2376,
      "duration": 0.2647,
      "velocity": 111,
      "chip": "ym2612"
    },
    {
      "channel": 3,
      "note": 80,
      "start": 14.2376,
      "duration": 0.2647,
      "velocity": 111,
      "chip": "ym2612"
    },
    {
      "channel": 4,
      "note": 77,
      "start": 14.2376,
      "duration": 0.2648,
      "velocity": 111,
      "chip": "ym2612"
    },
    {
      "channel": 0,
      "note": 94,
      "start": 14.3917,
      "duration": 0.1632,
      "velocity": 63,
      "chip": "ym2612"
    },
    {
      "channel": 1,
      "note": 51,
      "start": 14.5524,
      "duration": 0.0028,
      "velocity": 107,
      "chip": "ym2612"
    },
    {
      "channel": 2,
      "note": 70,
      "start": 14.5531,
      "duration": 0.0022,
      "velocity": 111,
      "chip": "ym2612"
    },
    {
      "channel": 3,
      "note": 79,
      "start": 14.5531,
      "duration": 0.0022,
      "velocity": 111,
      "chip": "ym2612"
    },
    {
      "channel": 4,
      "note": 75,
      "start": 14.5532,
      "duration": 0.0022,
      "velocity": 111,
      "chip": "ym2612"
    },
    {
      "channel": 0,
      "note": 94,
      "start": 14.5805,
      "duration": 0.1047,
      "velocity": 63,
      "chip": "ym2612"
    },
    {
      "channel": 1,
      "note": 49,
      "start": 14.5808,
      "duration": 0.3155,
      "velocity": 107,
      "chip": "ym2612"
    },
    {
      "channel": 2,
      "note": 73,
      "start": 14.5814,
      "duration": 0.972,
      "velocity": 111,
      "chip": "ym2612"
    },
    {
      "channel": 3,
      "note": 77,
      "start": 14.5814,
      "duration": 0.972,
      "velocity": 111,
      "chip": "ym2612"
    },
    {
      "channel": 4,
      "note": 68,
      "start": 14.5815,
      "duration": 0.972,
      "velocity": 111,
      "chip": "ym2612"
    },
    {
      "channel": 1,
      "note": 49,
      "start": 14.8966,
      "duration": 0.104,
      "velocity": 107,
      "chip": "ym2612"
    },
    {
      "channel": 1,
      "note": 49,
      "start": 15.0507,
      "duration": 0.1376,
      "velocity": 107,
      "chip": "ym2612"
    },
    {
      "channel": 1,
      "note": 49,
      "start": 15.2386,
      "duration": 0.2645,
      "velocity": 107,
      "chip": "ym2612"
    },
    {
      "channel": 1,
      "note": 49,
      "start": 15.5533,
      "duration": 0.0028,
      "velocity": 107,
      "chip": "ym2612"
    },
    {
      "channel": 2,
      "note": 77,
      "start": 15.5541,
      "duration": 0.0022,
      "velocity": 111,
      "chip": "ym2612"
    },
    {
      "channel": 3,
      "note": 68,
      "start": 15.5541,
      "duration": 0.0022,
      "velocity": 111,
      "chip": "ym2612"
    },
    {
      "channel": 4,
      "note": 73,
      "start": 15.5542,
      "duration": 0.0022,
      "velocity": 111,
      "chip": "ym2612"
    },
    {
      "channel": 1,
      "note": 51,
      "start": 15.5815,
      "duration": 0.0026,
      "velocity": 107,
      "chip": "ym2612"
    },
    {
      "channel": 2,
      "note": 70,
      "start": 15.5822,
      "duration": 0.002,
      "velocity": 111,
      "chip": "ym2612"
    },
    {
      "channel": 3,
      "note": 79,
      "start": 15.5823,
      "duration": 0.0019,
      "velocity": 111,
      "chip": "ym2612"
    },
    {
      "channel": 4,
      "note": 75,
      "start": 15.5824,
      "duration": 0.0019,
      "velocity": 111,
      "chip": "ym2612"
    },
    {
      "channel": 0,
      "note": 90,
      "start": 15.6115,
      "duration": 0.7721,
      "velocity": 47,
      "chip": "ym2612"
    },
    {
      "channel": 1,
      "note": 51,
      "start": 15.6118,
      "duration": 0.2681,
      "velocity": 107,
      "chip": "ym2612"
    },
    {
      "channel": 2,
      "note": 79,
      "start": 15.7721,
      "duration": 0.1079,
      "velocity": 111,
      "chip": "ym2612"
    },
    {
      "channel": 3,
      "note": 70,
      "start": 15.7722,
      "duration": 0.1079,
      "velocity": 111,
      "chip": "ym2612"
    },
    {
      "channel": 4,
      "note": 75,
      "start": 15.7722,
      "duration": 0.1079,
      "velocity": 111,
      "chip": "ym2612"
    },
    {
      "channel": 1,
      "note": 51,
      "start": 15.93,
      "duration": 0.1381,
      "velocity": 107,
      "chip": "ym2612"
    },
    {
      "channel": 2,
      "note": 70,
      "start": 15.9307,
      "duration": 0.1376,
      "velocity": 111,
      "chip": "ym2612"
    },
    {
      "channel": 3,
      "note": 80,
      "start": 15.9308,
      "duration": 0.1376,
      "velocity": 111,
      "chip": "ym2612"
    },
    {
      "channel": 4,
      "note": 77,
      "start": 15.9308,
      "duration": 0.1376,
      "velocity": 111,
      "chip": "ym2612"
    },
    {
      "channel": 1,
      "note": 51,
      "start": 16.1185,
      "duration": 0.2654,
      "velocity": 107,
      "chip": "ym2612"
    },
    {
      "channel": 2,
      "note": 70,
      "start": 16.1192,
      "duration": 0.2648,
      "velocity": 111,
      "chip": "ym2612"
    },
    {
      "channel": 3,
      "note": 80,
      "start": 16.1193,
      "duration": 0.2648,
      "velocity": 111,
      "chip": "ym2612"
    },
    {
      "channel": 4,
      "note": 77,
      "start": 16.1193,
      "duration": 0.2649,
      "velocity": 111,
      "chip": "ym2612"
    },
    {
      "channel": 0,
      "note": 94,
      "start": 16.4339,
      "duration": 0.1333,
      "velocity": 47,
      "chip": "ym2612"
    },
    {
      "channel": 1,
      "note": 51,
      "start": 16.4342,
      "duration": 0.1333,
      "velocity": 107,
      "chip": "ym2612"
    },
    {
      "channel": 2,
      "note": 79,
      "start": 16.4351,
      "duration": 0.0021,
      "velocity": 111,
      "chip": "ym2612"
    },
    {
      "channel": 3,
      "note": 70,
      "start": 16.4351,
      "duration": 0.0021,
      "velocity": 111,
      "chip": "ym2612"
    },
    {
      "channel": 4,
      "note": 75,
      "start": 16.4352,
      "duration": 0.0021,
      "velocity": 111,
      "chip": "ym2612"
    },
    {
      "channel": 2,
      "note": 79,
      "start": 16.4632,
      "duration": 0.3089,
      "velocity": 111,
      "chip": "ym2612"
    },
    {
      "channel": 3,
      "note": 70,
      "start": 16.4632,
      "duration": 0.309,
      "velocity": 111,
      "chip": "ym2612"
    },
    {
      "channel": 4,
      "note": 75,
      "start": 16.4633,
      "duration": 0.309,
      "velocity": 111,
      "chip": "ym2612"
    },
    {
      "channel": 0,
      "note": 87,
      "start": 16.6177,
      "duration": 0.2654,
      "velocity": 47,
      "chip": "ym2612"
    },
    {
      "channel": 1,
      "note": 51,
      "start": 16.618,
      "duration": 0.2653,
      "velocity": 107,
      "chip": "ym2612"
    },
    {
      "channel": 2,
      "note": 79,
      "start": 16.7727,
      "duration": 0.1107,
      "velocity": 111,
      "chip": "ym2612"
    },
    {
      "channel": 3,
      "note": 70,
      "start": 16.7728,
      "duration": 0.1107,
      "velocity": 111,
      "chip": "ym2612"
    },
    {
      "channel": 4,
      "note": 75,
      "start": 16.7729,
      "duration": 0.1107,
      "velocity": 111,
      "chip": "ym2612"
    },
    {
      "channel": 0,
      "note": 91,
      "start": 16.9333,
      "duration": 0.1383,
      "velocity": 47,
      "chip": "ym2612"
    },
    {
      "channel": 1,
      "note": 51,
      "start": 16.9336,
      "duration": 0.1382,
      "velocity": 107,
      "chip": "ym2612"
    },
    {
      "channel": 2,
      "note": 70,
      "start": 16.9345,
      "duration": 0.1374,
      "velocity": 111,
      "chip": "ym2612"
    },
    {
      "channel": 3,
      "note": 80,
      "start": 16.9346,
      "duration": 0.1374,
      "velocity": 111,
      "chip": "ym2612"
    },
    {
      "channel": 4,
      "note": 77,
      "start": 16.9346,
      "duration": 0.1374,
      "velocity": 111,
      "chip": "ym2612"
    },
    {
      "channel": 0,
      "note": 87,
      "start": 17.1218,
      "duration": 0.2654,
      "velocity": 47,
      "chip": "ym2612"
    },
    {
      "channel": 1,
      "note": 51,
      "start": 17.1222,
      "duration": 0.2654,
      "velocity": 107,
      "chip": "ym2612"
    },
    {
      "channel": 2,
      "note": 80,
      "start": 17.123,
      "duration": 0.2646,
      "velocity": 111,
      "chip": "ym2612"
    },
    {
      "channel": 3,
      "note": 77,
      "start": 17.1232,
      "duration": 0.2646,
      "velocity": 111,
      "chip": "ym2612"
    },
    {
      "channel": 4,
      "note": 70,
      "start": 17.1232,
      "duration": 0.2646,
      "velocity": 111,
      "chip": "ym2612"
    },
    {
      "channel": 0,
      "note": 82,
      "start": 17.4375,
      "duration": 0.0028,
      "velocity": 47,
      "chip": "ym2612"
    },
    {
      "channel": 1,
      "note": 51,
      "start": 17.4378,
      "duration": 0.1327,
      "velocity": 107,
      "chip": "ym2612"
    },
    {
      "channel": 2,
      "note": 79,
      "start": 17.4385,
      "duration": 0.0021,
      "velocity": 111,
      "chip": "ym2612"
    },
    {
      "channel": 3,
      "note": 70,
      "start": 17.4386,
      "duration": 0.002,
      "velocity": 111,
      "chip": "ym2612"
    },
    {
      "channel": 4,
      "note": 75,
      "start": 17.4387,
      "duration": 0.002,
      "velocity": 111,
      "chip": "ym2612"
    },
    {
      "channel": 0,
      "note": 86,
      "start": 17.4656,
      "duration": 2.3161,
      "velocity": 47,
      "chip": "ym2612"
    },
    {
      "channel": 2,
      "note": 79,
      "start": 17.4663,
      "duration": 0.3087,
      "velocity": 111,
      "chip": "ym2612"
    },
    {
      "channel": 3,
      "note": 70,
      "start": 17.4664,
      "duration": 0.3086,
      "velocity": 111,
      "chip": "ym2612"
    },
    {
      "channel": 4,
      "note": 75,
      "start": 17.4665,
      "duration": 0.3087,
      "velocity": 111,
      "chip": "ym2612"
    },
    {
      "channel": 1,
      "note": 51,
      "start": 17.6208,
      "duration": 0.2654,
      "velocity": 107,
      "chip": "ym2612"
    },
    {
      "channel": 2,
      "note": 79,
      "start": 17.7757,
      "duration": 0.1107,
      "velocity": 111,
      "chip": "ym2612"
    },
    {
      "channel": 3,
      "note": 70,
      "start": 17.7758,
      "duration": 0.1107,
      "velocity": 111,
      "chip": "ym2612"
    },
    {
      "channel": 4,
      "note": 75,
      "start": 17.7759,
      "duration": 0.1107,
      "velocity": 111,
      "chip": "ym2612"
    },
    {
      "channel": 1,
      "note": 51,
      "start": 17.9365,
      "duration": 0.1384,
      "velocity": 107,
      "chip": "ym2612"
    },
    {
      "channel": 2,
      "note": 70,
      "start": 17.9372,
      "duration": 0.1377,
      "velocity": 111,
      "chip": "ym2612"
    },
    {
      "channel": 3,
      "note": 80,
      "start": 17.9373,
      "duration": 0.1377,
      "velocity": 111,
      "chip": "ym2612"
    },
    {
      "channel": 4,
      "note": 77,
      "start": 17.9373,
      "duration": 0.1378,
      "velocity": 111,
      "chip": "ym2612"
    },
    {
      "channel": 1,
      "note": 51,
      "start": 18.1252,
      "duration": 0.2652,
      "velocity": 107,
      "chip": "ym2612"
    },
    {
      "channel": 2,
      "note": 80,
      "start": 18.1259,
      "duration": 0.2647,
      "velocity": 111,
      "chip": "ym2612"
    },
    {
      "channel": 3,
      "note": 70,
      "start": 18.1259,
      "duration": 0.2647,
      "velocity": 111,
      "chip": "ym2612"
    },
    {
      "channel": 4,
      "note": 77,
      "start": 18.126,
      "duration": 0.2647,
      "velocity": 111,
      "chip": "ym2612"
    },
    {
      "channel": 1,
      "note": 51,
      "start": 18.4407,
      "duration": 0.1321,
      "velocity": 107,
      "chip": "ym2612"
    },
    {
      "channel": 2,
      "note": 70,
      "start": 18.4414,
      "duration": 0.1315,
      "velocity": 111,
      "chip": "ym2612"
    },
    {
      "channel": 3,
      "note": 79,
      "start": 18.4414,
      "duration": 0.1315,
      "velocity": 111,
      "chip": "ym2612"
    },
    {
      "channel": 4,
      "note": 75,
      "start": 18.4415,
      "duration": 0.1315,
      "velocity": 111,
      "chip": "ym2612"
    },
    {
      "channel": 1,
      "note": 51,
      "start": 18.623,
      "duration": 0.2653,
      "velocity": 107,
      "chip": "ym2612"
    },
    {
      "channel": 2,
      "note": 84,
      "start": 18.6237,
      "duration": 0.2648,
      "velocity": 111,
      "chip": "ym2612"
    },
    {
      "channel": 3,
      "note": 75,
      "start": 18.6237,
      "duration": 0.2648,
      "velocity": 111,
      "chip": "ym2612"
    },
    {
      "channel": 4,
      "note": 80,
      "start": 18.6238,
      "duration": 0.2648,
      "velocity": 111,
      "chip": "ym2612"
    },
    {
      "channel": 1,
      "note": 51,
      "start": 18.9385,
      "duration": 0.139,
      "velocity": 107,
      "chip": "ym2612"
    },
    {
      "channel": 2,
      "note": 84,
      "start": 18.9393,
      "duration": 0.0019,
      "velocity": 111,
      "chip": "ym2612"
    },
    {
      "channel": 3,
      "note": 75,
      "start": 18.9393,
      "duration": 0.0018,
      "velocity": 111,
      "chip": "ym2612"
    },
    {
      "channel": 4,
      "note": 80,
      "start": 18.9394,
      "duration": 0.0018,
      "velocity": 111,
      "chip": "ym2612"
    },
    {
      "channel": 2,
      "note": 75,
      "start": 18.9671,
      "duration": 0.2649,
      "velocity": 111,
      "chip": "ym2612"
    },
    {
      "channel": 3,
      "note": 82,
      "start": 18.9671,
      "duration": 0.2649,
      "velocity": 111,
      "chip": "ym2612"
    },
    {
      "channel": 4,
      "note": 79,
      "start": 18.9672,
      "duration": 0.2649,
      "velocity": 111,
      "chip": "ym2612"
    },
    {
      "channel": 1,
      "note": 51,
      "start": 19.1279,
      "duration": 0.2654,
      "velocity": 107,
      "chip": "ym2612"
    },
    {
      "channel": 2,
      "note": 75,
      "start": 19.2829,
      "duration": 0.1106,
      "velocity": 111,
      "chip": "ym2612"
    },
    {
      "channel": 3,
      "note": 79,
      "start": 19.2829,
      "duration": 0.1106,
      "velocity": 111,
      "chip": "ym2612"
    },
    {
      "channel": 4,
      "note": 82,
      "start": 19.283,
      "duration": 0.1105,
      "velocity": 111,
      "chip": "ym2612"
    },
    {
      "channel": 1,
      "note": 51,
      "start": 19.4435,
      "duration": 0.1329,
      "velocity": 107,
      "chip": "ym2612"
    },
    {
      "channel": 2,
      "note": 75,
      "start": 19.4442,
      "duration": 0.0019,
      "velocity": 111,
      "chip": "ym2612"
    },
    {
      "channel": 3,
      "note": 79,
      "start": 19.4443,
      "duration": 0.0018,
      "velocity": 111,
      "chip": "ym2612"
    },
    {
      "channel": 4,
      "note": 82,
      "start": 19.4443,
      "duration": 0.0019,
      "velocity": 111,
      "chip": "ym2612"
    },
    {
      "channel": 2,
      "note": 82,
      "start": 19.4722,
      "duration": 0.1042,
      "velocity": 111,
      "chip": "ym2612"
    },
    {
      "channel": 3,
      "note": 75,
      "start": 19.4723,
      "duration": 0.1042,
      "velocity": 111,
      "chip": "ym2612"
    },
    {
      "channel": 4,
      "note": 79,
      "start": 19.4723,
      "duration": 0.1043,
      "velocity": 111,
      "chip": "ym2612"
    },
    {
      "channel": 1,
      "note": 51,
      "start": 19.6268,
      "duration": 0.2696,
      "velocity": 107,
      "chip": "ym2612"
    },
    {
      "channel": 2,
      "note": 79,
      "start": 19.6279,
      "duration": 0.1041,
      "velocity": 111,
      "chip": "ym2612"
    },
    {
      "channel": 3,
      "note": 75,
      "start": 19.6279,
      "duration": 0.104,
      "velocity": 111,
      "chip": "ym2612"
    },
    {
      "channel": 4,
      "note": 70,
      "start": 19.628,
      "duration": 0.104,
      "velocity": 111,
      "chip": "ym2612"
    },
    {
      "channel": 0,
      "note": 82,
      "start": 19.7819,
      "duration": 0.1142,
      "velocity": 47,
      "chip": "ym2612"
    },
    {
      "channel": 2,
      "note": 79,
      "start": 19.7886,
      "duration": 0.1079,
      "velocity": 111,
      "chip": "ym2612"
    },
    {
      "channel": 3,
      "note": 70,
      "start": 19.7886,
      "duration": 0.108,
      "velocity": 111,
      "chip": "ym2612"
    },
    {
      "channel": 4,
      "note": 75,
      "start": 19.7887,
      "duration": 0.1079,
      "velocity": 111,
      "chip": "ym2612"
    },
    {
      "channel": 0,
      "note": 84,
      "start": 19.9463,
      "duration": 0.0031,
      "velocity": 47,
      "chip": "ym2612"
    },
    {
      "channel": 1,
      "note": 51,
      "start": 19.9467,
      "duration": 0.1385,
      "velocity": 107,
      "chip": "ym2612"
    },
    {
      "channel": 2,
      "note": 70,
      "start": 19.9476,
      "duration": 0.1377,
      "velocity": 111,
      "chip": "ym2612"
    },
    {
      "channel": 3,
      "note": 80,
      "start": 19.9477,
      "duration": 0.1377,
      "velocity": 111,
      "chip": "ym2612"
    },
    {
      "channel": 4,
      "note": 77,
      "start": 19.9477,
      "duration": 0.1377,
      "velocity": 111,
      "chip": "ym2612"
    },
    {
      "channel": 0,
      "note": 85,
      "start": 19.9746,
      "duration": 0.1102,
      "velocity": 47,
      "chip": "ym2612"
    },
    {
      "channel": 0,
      "note": 82,
      "start": 20.1352,
      "duration": 0.2654,
      "velocity": 47,
      "chip": "ym2612"
    },
    {
      "channel": 1,
      "note": 51,
      "start": 20.1355,
      "duration": 0.2654,
      "velocity": 107,
      "chip": "ym2612"
    },
    {
      "channel": 2,
      "note": 70,
      "start": 20.1363,
      "duration": 0.2647,
      "velocity": 111,
      "chip": "ym2612"
    },
    {
      "channel": 3,
      "note": 80,
      "start": 20.1364,
      "duration": 0.2647,
      "velocity": 111,
      "chip": "ym2612"
    },
    {
      "channel": 4,
      "note": 77,
      "start": 20.1365,
      "duration": 0.2647,
      "velocity": 111,
      "chip": "ym2612"
    },
    {
      "channel": 0,
      "note": 87,
      "start": 20.4509,
      "duration": 0.0028,
      "velocity": 47,
      "chip": "ym2612"
    },
    {
      "channel": 1,
      "note": 51,
      "start": 20.4512,
      "duration": 0.1328,
      "velocity": 107,
      "chip": "ym2612"
    },
    {
      "channel": 2,
      "note": 79,
      "start": 20.4519,
      "duration": 0.0021,
      "velocity": 111,
      "chip": "ym2612"
    },
    {
      "channel": 3,
      "note": 70,
      "start": 20.452,
      "duration": 0.002,
      "velocity": 111,
      "chip": "ym2612"
    },
    {
      "channel": 4,
      "note": 75,
      "start": 20.452,
      "duration": 0.002,
      "velocity": 111,
      "chip": "ym2612"
    },
    {
      "channel": 0,
      "note": 91,
      "start": 20.4789,
      "duration": 0.4706,
      "velocity": 47,
      "chip": "ym2612"
    },
    {
      "channel": 2,
      "note": 79,
      "start": 20.4798,
      "duration": 0.3087,
      "velocity": 111,
      "chip": "ym2612"
    },
    {
      "channel": 3,
      "note": 70,
      "start": 20.4799,
      "duration": 0.3087,
      "velocity": 111,
      "chip": "ym2612"
    },
    {
      "channel": 4,
      "note": 75,
      "start": 20.4799,
      "duration": 0.3087,
      "velocity": 111,
      "chip": "ym2612"
    },
    {
      "channel": 1,
      "note": 51,
      "start": 20.6343,
      "duration": 0.2654,
      "velocity": 107,
      "chip": "ym2612"
    },
    {
      "channel": 2,
      "note": 79,
      "start": 20.7891,
      "duration": 0.1107,
      "velocity": 111,
      "chip": "ym2612"
    },
    {
      "channel": 3,
      "note": 70,
      "start": 20.7892,
      "duration": 0.1107,
      "velocity": 111,
      "chip": "ym2612"
    },
    {
      "channel": 4,
      "note": 75,
      "start": 20.7893,
      "duration": 0.1106,
      "velocity": 111,
      "chip": "ym2612"
    },
    {
      "channel": 0,
      "note": 87,
      "start": 20.9497,
      "duration": 0.1383,
      "velocity": 47,
      "chip": "ym2612"
    },
    {
      "channel": 1,
      "note": 51,
      "start": 20.95,
      "duration": 0.1382,
      "velocity": 107,
      "chip": "ym2612"
    },
    {
      "channel": 2,
      "note": 70,
      "start": 20.9509,
      "duration": 0.1374,
      "velocity": 111,
      "chip": "ym2612"
    },
    {
      "channel": 3,
      "note": 80,
      "start": 20.951,
      "duration": 0.1374,
      "velocity": 111,
      "chip": "ym2612"
    },
    {
      "channel": 4,
      "note": 77,
      "start": 20.9511,
      "duration": 0.1374,
      "velocity": 111,
      "chip": "ym2612"
    },
    {
      "channel": 0,
      "note": 86,
      "start": 21.1383,
      "duration": 0.2654,
      "velocity": 47,
      "chip": "ym2612"
    },
    {
      "channel": 1,
      "note": 51,
      "start": 21.1386,
      "duration": 0.2654,
      "velocity": 107,
      "chip": "ym2612"
    },
    {
      "channel": 2,
      "note": 80,
      "start": 21.1395,
      "duration": 0.2646,
      "velocity": 111,
      "chip": "ym2612"
    },
    {
      "channel": 3,
      "note": 77,
      "start": 21.1396,
      "duration": 0.2646,
      "velocity": 111,
      "chip": "ym2612"
    },
    {
      "channel": 4,
      "note": 70,
      "start": 21.1396,
      "duration": 0.2646,
      "velocity": 111,
      "chip": "ym2612"
    },
    {
      "channel": 0,
      "note": 87,
      "start": 21.4539,
      "duration": 0.0028,
      "velocity": 47,
      "chip": "ym2612"
    },
    {
      "channel": 1,
      "note": 51,
      "start": 21.4542,
      "duration": 0.1327,
      "velocity": 107,
      "chip": "ym2612"
    },
    {
      "channel": 2,
      "note": 79,
      "start": 21.4549,
      "duration": 0.0021,
      "velocity": 111,
      "chip": "ym2612"
    },
    {
      "channel": 3,
      "note": 70,
      "start": 21.455,
      "duration": 0.002,
      "velocity": 111,
      "chip": "ym2612"
    },
    {
      "channel": 4,
      "note": 75,
      "start": 21.4551,
      "duration": 0.002,
      "velocity": 111,
      "chip": "ym2612"
    },
    {
      "channel": 0,
      "note": 80,
      "start": 21.4821,
      "duration": 0.9747,
      "velocity": 47,
      "chip": "ym2612"
    },
    {
      "channel": 2,
      "note": 79,
      "start": 21.4828,
      "duration": 0.3087,
      "velocity": 111,
      "chip": "ym2612"
    },
    {
      "channel": 3,
      "note": 70,
      "start": 21.4829,
      "duration": 0.3086,
      "velocity": 111,
      "chip": "ym2612"
    },
    {
      "channel": 4,
      "note": 75,
      "start": 21.4829,
      "duration": 0.3087,
      "velocity": 111,
      "chip": "ym2612"
    },
    {
      "channel": 1,
      "note": 51,
      "start": 21.6373,
      "duration": 0.2654,
      "velocity": 107,
      "chip": "ym2612"
    },
    {
      "channel": 2,
      "note": 79,
      "start": 21.7921,
      "duration": 0.1107,
      "velocity": 111,
      "chip": "ym2612"
    },
    {
      "channel": 3,
      "note": 70,
      "start": 21.7922,
      "duration": 0.1107,
      "velocity": 111,
      "chip": "ym2612"
    },
    {
      "channel": 4,
      "note": 75,
      "start": 21.7923,
      "duration": 0.1107,
      "velocity": 111,
      "chip": "ym2612"
    },
    {
      "channel": 1,
      "note": 51,
      "start": 21.9529,
      "duration": 0.1384,
      "velocity": 107,
      "chip": "ym2612"
    },
    {
      "channel": 2,
      "note": 70,
      "start": 21.9537,
      "duration": 0.1377,
      "velocity": 111,
      "chip": "ym2612"
    },
    {
      "channel": 3,
      "note": 80,
      "start": 21.9537,
      "duration": 0.1377,
      "velocity": 111,
      "chip": "ym2612"
    },
    {
      "channel": 4,
      "note": 77,
      "start": 21.9537,
      "duration": 0.1378,
      "velocity": 111,
      "chip": "ym2612"
    },
    {
      "channel": 1,
      "note": 51,
      "start": 22.1416,
      "duration": 0.2652,
      "velocity": 107,
      "chip": "ym2612"
    },
    {
      "channel": 2,
      "note": 80,
      "start": 22.1423,
      "duration": 0.2647,
      "velocity": 111,
      "chip": "ym2612"
    },
    {
      "channel": 3,
      "note": 70,
      "start": 22.1424,
      "duration": 0.2647,
      "velocity": 111,
      "chip": "ym2612"
    },
    {
      "channel": 4,
      "note": 77,
      "start": 22.1424,
      "duration": 0.2647,
      "velocity": 111,
      "chip": "ym2612"
    },
    {
      "channel": 0,
      "note": 79,
      "start": 22.457,
      "duration": 0.0029,
      "velocity": 47,
      "chip": "ym2612"
    },
    {
      "channel": 1,
      "note": 51,
      "start": 22.4573,
      "duration": 0.0029,
      "velocity": 107,
      "chip": "ym2612"
    },
    {
      "channel": 2,
      "note": 79,
      "start": 22.4581,
      "duration": 0.0022,
      "velocity": 111,
      "chip": "ym2612"
    },
    {
      "channel": 3,
      "note": 70,
      "start": 22.4581,
      "duration": 0.0022,
      "velocity": 111,
      "chip": "ym2612"
    },
    {
      "channel": 4,
      "note": 75,
      "start": 22.4582,
      "duration": 0.0022,
      "velocity": 111,
      "chip": "ym2612"
    },
    {
      "channel": 0,
      "note": 82,
      "start": 22.4853,
      "duration": 1.0067,
      "velocity": 47,
      "chip": "ym2612"
    },
    {
      "channel": 1,
      "note": 49,
      "start": 22.4856,
      "duration": 0.4706,
      "velocity": 107,
      "chip": "ym2612"
    },
    {
      "channel": 2,
      "note": 77,
      "start": 22.4864,
      "duration": 0.3149,
      "velocity": 111,
      "chip": "ym2612"
    },
    {
      "channel": 3,
      "note": 73,
      "start": 22.4866,
      "duration": 0.3149,
      "velocity": 111,
      "chip": "ym2612"
    },
    {
      "channel": 4,
      "note": 68,
      "start": 22.4866,
      "duration": 0.3149,
      "velocity": 111,
      "chip": "ym2612"
    },
    {
      "channel": 2,
      "note": 77,
      "start": 22.802,
      "duration": 0.1043,
      "velocity": 111,
      "chip": "ym2612"
    },
    {
      "channel": 3,
      "note": 73,
      "start": 22.8021,
      "duration": 0.1042,
      "velocity": 111,
      "chip": "ym2612"
    },
    {
      "channel": 4,
      "note": 68,
      "start": 22.8022,
      "duration": 0.1042,
      "velocity": 111,
      "chip": "ym2612"
    },
    {
      "channel": 1,
      "note": 49,
      "start": 22.9565,
      "duration": 0.138,
      "velocity": 107,
      "chip": "ym2612"
    },
    {
      "channel": 2,
      "note": 77,
      "start": 22.9572,
      "duration": 0.1374,
      "velocity": 111,
      "chip": "ym2612"
    },
    {
      "channel": 3,
      "note": 68,
      "start": 22.9573,
      "duration": 0.1374,
      "velocity": 111,
      "chip": "ym2612"
    },
    {
      "channel": 4,
      "note": 73,
      "start": 22.9573,
      "duration": 0.1374,
      "velocity": 111,
      "chip": "ym2612"
    },
    {
      "channel": 1,
      "note": 49,
      "start": 23.1448,
      "duration": 0.0047,
      "velocity": 107,
      "chip": "ym2612"
    },
    {
      "channel": 2,
      "note": 77,
      "start": 23.1455,
      "duration": 0.11,
      "velocity": 111,
      "chip": "ym2612"
    },
    {
      "channel": 3,
      "note": 68,
      "start": 23.1456,
      "duration": 0.11,
      "velocity": 111,
      "chip": "ym2612"
    },
    {
      "channel": 4,
      "note": 73,
      "start": 23.1457,
      "duration": 0.11,
      "velocity": 111,
      "chip": "ym2612"
    },
    {
      "channel": 1,
      "note": 49,
      "start": 23.1999,
      "duration": 0.0041,
      "velocity": 107,
      "chip": "ym2612"
    },
    {
      "channel": 1,
      "note": 44,
      "start": 23.2542,
      "duration": 0.0012,
      "velocity": 107,
      "chip": "ym2612"
    },
    {
      "channel": 1,
      "note": 46,
      "start": 23.2815,
      "duration": 0.0028,
      "velocity": 107,
      "chip": "ym2612"
    },
    {
      "channel": 2,
      "note": 77,
      "start": 23.2823,
      "duration": 0.0021,
      "velocity": 111,
      "chip": "ym2612"
    },
    {
      "channel": 3,
      "note": 68,
      "start": 23.2823,
      "duration": 0.0021,
      "velocity": 111,
      "chip": "ym2612"
    },
    {
      "channel": 4,
      "note": 73,
      "start": 23.2824,
      "duration": 0.0021,
      "velocity": 111,
      "chip": "ym2612"
    },
    {
      "channel": 1,
      "note": 51,
      "start": 23.3098,
      "duration": 0.0026,
      "velocity": 107,
      "chip": "ym2612"
    },
    {
      "channel": 2,
      "note": 79,
      "start": 23.3104,
      "duration": 0.1879,
      "velocity": 111,
      "chip": "ym2612"
    },
    {
      "channel": 3,
      "note": 70,
      "start": 23.3105,
      "duration": 0.1879,
      "velocity": 111,
      "chip": "ym2612"
    },
    {
      "channel": 4,
      "note": 75,
      "start": 23.3105,
      "duration": 0.1878,
      "velocity": 111,
      "chip": "ym2612"
    },
    {
      "channel": 1,
      "note": 51,
      "start": 23.3378,
      "duration": 0.2688,
      "velocity": 107,
      "chip": "ym2612"
    },
    {
      "channel": 0,
      "note": 79,
      "start": 23.4921,
      "duration": 0.1141,
      "velocity": 47,
      "chip": "ym2612"
    },
    {
      "channel": 2,
      "note": 79,
      "start": 23.4989,
      "duration": 0.1078,
      "velocity": 111,
      "chip": "ym2612"
    },
    {
      "channel": 3,
      "note": 70,
      "start": 23.4989,
      "duration": 0.1079,
      "velocity": 111,
      "chip": "ym2612"
    },
    {
      "channel": 4,
      "note": 75,
      "start": 23.499,
      "duration": 0.1078,
      "velocity": 111,
      "chip": "ym2612"
    },
    {
      "channel": 0,
      "note": 82,
      "start": 23.6565,
      "duration": 0.0029,
      "velocity": 47,
      "chip": "ym2612"
    },
    {
      "channel": 1,
      "note": 51,
      "start": 23.6568,
      "duration": 0.1384,
      "velocity": 107,
      "chip": "ym2612"
    },
    {
      "channel": 2,
      "note": 70,
      "start": 23.6575,
      "duration": 0.1378,
      "velocity": 111,
      "chip": "ym2612"
    },
    {
      "channel": 3,
      "note": 80,
      "start": 23.6576,
      "duration": 0.1378,
      "velocity": 111,
      "chip": "ym2612"
    },
    {
      "channel": 4,
      "note": 77,
      "start": 23.6577,
      "duration": 0.1378,
      "velocity": 111,
      "chip": "ym2612"
    },
    {
      "channel": 0,
      "note": 75,
      "start": 23.6847,
      "duration": 0.1102,
      "velocity": 47,
      "chip": "ym2612"
    },
    {
      "channel": 0,
      "note": 79,
      "start": 23.8453,
      "duration": 0.2654,
      "velocity": 47,
      "chip": "ym2612"
    },
    {
      "channel": 1,
      "note": 51,
      "start": 23.8456,
      "duration": 0.2654,
      "velocity": 107,
      "chip": "ym2612"
    },
    {
      "channel": 2,
      "note": 70,
      "start": 23.8464,
      "duration": 0.2647,
      "velocity": 111,
      "chip": "ym2612"
    },
    {
      "channel": 3,
      "note": 80,
      "start": 23.8465,
      "duration": 0.2647,
      "velocity": 111,
      "chip": "ym2612"
    },
    {
      "channel": 4,
      "note": 77,
      "start": 23.8466,
      "duration": 0.2647,
      "velocity": 111,
      "chip": "ym2612"
    },
    {
      "channel": 0,
      "note": 82,
      "start": 24.161,
      "duration": 0.0028,
      "velocity": 47,
      "chip": "ym2612"
    },
    {
      "channel": 1,
      "note": 51,
      "start": 24.1612,
      "duration": 0.1327,
      "velocity": 107,
      "chip": "ym2612"
    },
    {
      "channel": 2,
      "note": 79,
      "start": 24.162,
      "duration": 0.0021,
      "velocity": 111,
      "chip": "ym2612"
    },
    {
      "channel": 3,
      "note": 70,
      "start": 24.162,
      "duration": 0.002,
      "velocity": 111,
      "chip": "ym2612"
    },
    {
      "channel": 4,
      "note": 75,
      "start": 24.1621,
      "duration": 0.002,
      "velocity": 111,
      "chip": "ym2612"
    },
    {
      "channel": 0,
      "note": 86,
      "start": 24.1891,
      "duration": 0.4705,
      "velocity": 47,
      "chip": "ym2612"
    },
    {
      "channel": 2,
      "note": 79,
      "start": 24.1898,
      "duration": 0.3087,
      "velocity": 111,
      "chip": "ym2612"
    },
    {
      "channel": 3,
      "note": 70,
      "start": 24.1899,
      "duration": 0.3086,
      "velocity": 111,
      "chip": "ym2612"
    },
    {
      "channel": 4,
      "note": 75,
      "start": 24.1899,
      "duration": 0.3087,
      "velocity": 111,
      "chip": "ym2612"
    },
    {
      "channel": 1,
      "note": 51,
      "start": 24.3442,
      "duration": 0.2655,
      "velocity": 107,
      "chip": "ym2612"
    },
    {
      "channel": 2,
      "note": 79,
      "start": 24.4991,
      "duration": 0.1107,
      "velocity": 111,
      "chip": "ym2612"
    },
    {
      "channel": 3,
      "note": 70,
      "start": 24.4992,
      "duration": 0.1107,
      "velocity": 111,
      "chip": "ym2612"
    },
    {
      "channel": 4,
      "note": 75,
      "start": 24.4993,
      "duration": 0.1107,
      "velocity": 111,
      "chip": "ym2612"
    },
    {
      "channel": 0,
      "note": 87,
      "start": 24.6598,
      "duration": 0.138,
      "velocity": 47,
      "chip": "ym2612"
    },
    {
      "channel": 1,
      "note": 51,
      "start": 24.6601,
      "duration": 0.138,
      "velocity": 107,
      "chip": "ym2612"
    },
    {
      "channel": 2,
      "note": 70,
      "start": 24.6608,
      "duration": 0.1374,
      "velocity": 111,
      "chip": "ym2612"
    },
    {
      "channel": 3,
      "note": 80,
      "start": 24.6609,
      "duration": 0.1374,
      "velocity": 111,
      "chip": "ym2612"
    },
    {
      "channel": 4,
      "note": 77,
      "start": 24.661,
      "duration": 0.1374,
      "velocity": 111,
      "chip": "ym2612"
    },
    {
      "channel": 0,
      "note": 89,
      "start": 24.8481,
      "duration": 0.2654,
      "velocity": 47,
      "chip": "ym2612"
    },
    {
      "channel": 1,
      "note": 51,
      "start": 24.8485,
      "duration": 0.2654,
      "velocity": 107,
      "chip": "ym2612"
    },
    {
      "channel": 2,
      "note": 80,
      "start": 24.8493,
      "duration": 0.2646,
      "velocity": 111,
      "chip": "ym2612"
    },
    {
      "channel": 3,
      "note": 77,
      "start": 24.8494,
      "duration": 0.2646,
      "velocity": 111,
      "chip": "ym2612"
    },
    {
      "channel": 4,
      "note": 70,
      "start": 24.8495,
      "duration": 0.2646,
      "velocity": 111,
      "chip": "ym2612"
    },
    {
      "channel": 0,
      "note": 91,
      "start": 25.1638,
      "duration": 0.0028,
      "velocity": 47,
      "chip": "ym2612"
    },
    {
      "channel": 1,
      "note": 51,
      "start": 25.1641,
      "duration": 0.1328,
      "velocity": 107,
      "chip": "ym2612"
    },
    {
      "channel": 2,
      "note": 79,
      "start": 25.1648,
      "duration": 0.0021,
      "velocity": 111,
      "chip": "ym2612"
    },
    {
      "channel": 3,
      "note": 70,
      "start": 25.1649,
      "duration": 0.002,
      "velocity": 111,
      "chip": "ym2612"
    },
    {
      "channel": 4,
      "note": 75,
      "start": 25.1649,
      "duration": 0.002,
      "velocity": 111,
      "chip": "ym2612"
    },
    {
      "channel": 0,
      "note": 87,
      "start": 25.1919,
      "duration": 0.4706,
      "velocity": 47,
      "chip": "ym2612"
    },
    {
      "channel": 2,
      "note": 79,
      "start": 25.1928,
      "duration": 0.3087,
      "velocity": 111,
      "chip": "ym2612"
    },
    {
      "channel": 3,
      "note": 70,
      "start": 25.1928,
      "duration": 0.3087,
      "velocity": 111,
      "chip": "ym2612"
    },
    {
      "channel": 4,
      "note": 75,
      "start": 25.1929,
      "duration": 0.3087,
      "velocity": 111,
      "chip": "ym2612"
    },
    {
      "channel": 1,
      "note": 51,
      "start": 25.3473,
      "duration": 0.2654,
      "velocity": 107,
      "chip": "ym2612"
    },
    {
      "channel": 2,
      "note": 79,
      "start": 25.5021,
      "duration": 0.1107,
      "velocity": 111,
      "chip": "ym2612"
    },
    {
      "channel": 3,
      "note": 70,
      "start": 25.5022,
      "duration": 0.1107,
      "velocity": 111,
      "chip": "ym2612"
    },
    {
      "channel": 4,
      "note": 75,
      "start": 25.5022,
      "duration": 0.1106,
      "velocity": 111,
      "chip": "ym2612"
    },
    {
      "channel": 0,
      "note": 94,
      "start": 25.6626,
      "duration": 0.1383,
      "velocity": 47,
      "chip": "ym2612"
    },
    {
      "channel": 1,
      "note": 51,
      "start": 25.663,
      "duration": 0.1382,
      "velocity": 107,
      "chip": "ym2612"
    },
    {
      "channel": 2,
      "note": 70,
      "start": 25.6639,
      "duration": 0.1374,
      "velocity": 111,
      "chip": "ym2612"
    },
    {
      "channel": 3,
      "note": 80,
      "start": 25.664,
      "duration": 0.1374,
      "velocity": 111,
      "chip": "ym2612"
    },
    {
      "channel": 4,
      "note": 77,
      "start": 25.664,
      "duration": 0.1374,
      "velocity": 111,
      "chip": "ym2612"
    },
    {
      "channel": 0,
      "note": 94,
      "start": 25.8512,
      "duration": 0.2654,
      "velocity": 47,
      "chip": "ym2612"
    },
    {
      "channel": 1,
      "note": 51,
      "start": 25.8516,
      "duration": 0.2654,
      "velocity": 107,
      "chip": "ym2612"
    },
    {
      "channel": 2,
      "note": 80,
      "start": 25.8524,
      "duration": 0.2646,
      "velocity": 111,
      "chip": "ym2612"
    },
    {
      "channel": 3,
      "note": 70,
      "start": 25.8525,
      "duration": 0.2646,
      "velocity": 111,
      "chip": "ym2612"
    },
    {
      "channel": 4,
      "note": 77,
      "start": 25.8526,
      "duration": 0.2646,
      "velocity": 111,
      "chip": "ym2612"
    },
    {
      "channel": 0,
      "note": 91,
      "start": 26.1669,
      "duration": 0.0029,
      "velocity": 47,
      "chip": "ym2612"
    },
    {
      "channel": 1,
      "note": 51,
      "start": 26.1672,
      "duration": 0.132,
      "velocity": 107,
      "chip": "ym2612"
    },
    {
      "channel": 2,
      "note": 70,
      "start": 26.1679,
      "duration": 0.1314,
      "velocity": 111,
      "chip": "ym2612"
    },
    {
      "channel": 3,
      "note": 79,
      "start": 26.168,
      "duration": 0.1314,
      "velocity": 111,
      "chip": "ym2612"
    },
    {
      "channel": 4,
      "note": 75,
      "start": 26.168,
      "duration": 0.1314,
      "velocity": 111,
      "chip": "ym2612"
    },
    {
      "channel": 0,
      "note": 98,
      "start": 26.195,
      "duration": 0.6589,
      "velocity": 47,
      "chip": "ym2612"
    },
    {
      "channel": 1,
      "note": 51,
      "start": 26.3495,
      "duration": 0.2652,
      "velocity": 107,
      "chip": "ym2612"
    },
    {
      "channel": 2,
      "note": 84,
      "start": 26.3501,
      "duration": 0.2647,
      "velocity": 111,
      "chip": "ym2612"
    },
    {
      "channel": 3,
      "note": 75,
      "start": 26.3502,
      "duration": 0.2647,
      "velocity": 111,
      "chip": "ym2612"
    },
    {
      "channel": 4,
      "note": 80,
      "start": 26.3503,
      "duration": 0.2647,
      "velocity": 111,
      "chip": "ym2612"
    },
    {
      "channel": 1,
      "note": 51,
      "start": 26.665,
      "duration": 0.139,
      "velocity": 107,
      "chip": "ym2612"
    },
    {
      "channel": 2,
      "note": 84,
      "start": 26.6657,
      "duration": 0.002,
      "velocity": 111,
      "chip": "ym2612"
    },
    {
      "channel": 3,
      "note": 75,
      "start": 26.6658,
      "duration": 0.002,
      "velocity": 111,
      "chip": "ym2612"
    },
    {
      "channel": 4,
      "note": 80,
      "start": 26.6659,
      "duration": 0.002,
      "velocity": 111,
      "chip": "ym2612"
    },
    {
      "channel": 2,
      "note": 75,
      "start": 26.6935,
      "duration": 0.265,
      "velocity": 111,
      "chip": "ym2612"
    },
    {
      "channel": 3,
      "note": 82,
      "start": 26.6936,
      "duration": 0.2649,
      "velocity": 111,
      "chip": "ym2612"
    },
    {
      "channel": 4,
      "note": 79,
      "start": 26.6937,
      "duration": 0.2649,
      "velocity": 111,
      "chip": "ym2612"
    },
    {
      "channel": 0,
      "note": 92,
      "start": 26.8541,
      "duration": 0.6543,
      "velocity": 47,
      "chip": "ym2612"
    },
    {
      "channel": 1,
      "note": 51,
      "start": 26.8545,
      "duration": 0.2654,
      "velocity": 107,
      "chip": "ym2612"
    },
    {
      "channel": 2,
      "note": 75,
      "start": 27.0094,
      "duration": 0.1106,
      "velocity": 111,
      "chip": "ym2612"
    },
    {
      "channel": 3,
      "note": 79,
      "start": 27.0095,
      "duration": 0.1106,
      "velocity": 111,
      "chip": "ym2612"
    },
    {
      "channel": 4,
      "note": 82,
      "start": 27.0096,
      "duration": 0.1105,
      "velocity": 111,
      "chip": "ym2612"
    },
    {
      "channel": 1,
      "note": 51,
      "start": 27.17,
      "duration": 0.1331,
      "velocity": 107,
      "chip": "ym2612"
    },
    {
      "channel": 2,
      "note": 75,
      "start": 27.1707,
      "duration": 0.002,
      "velocity": 111,
      "chip": "ym2612"
    },
    {
      "channel": 3,
      "note": 79,
      "start": 27.1707,
      "duration": 0.002,
      "velocity": 111,
      "chip": "ym2612"
    },
    {
      "channel": 4,
      "note": 82,
      "start": 27.1708,
      "duration": 0.002,
      "velocity": 111,
      "chip": "ym2612"
    },
    {
      "channel": 2,
      "note": 82,
      "start": 27.1988,
      "duration": 0.1045,
      "velocity": 111,
      "chip": "ym2612"
    },
    {
      "channel": 3,
      "note": 75,
      "start": 27.1989,
      "duration": 0.1045,
      "velocity": 111,
      "chip": "ym2612"
    },
    {
      "channel": 4,
      "note": 79,
      "start": 27.199,
      "duration": 0.1044,
      "velocity": 111,
      "chip": "ym2612"
    },
    {
      "channel": 1,
      "note": 51,
      "start": 27.3534,
      "duration": 0.2696,
      "velocity": 107,
      "chip": "ym2612"
    },
    {
      "channel": 2,
      "note": 79,
      "start": 27.3545,
      "duration": 0.1041,
      "velocity": 111,
      "chip": "ym2612"
    },
    {
      "channel": 3,
      "note": 75,
      "start": 27.3545,
      "duration": 0.1041,
      "velocity": 111,
      "chip": "ym2612"
    },
    {
      "channel": 4,
      "note": 70,
      "start": 27.3546,
      "duration": 0.1041,
      "velocity": 111,
      "chip": "ym2612"
    },
    {
      "channel": 0,
      "note": 98,
      "start": 27.5085,
      "duration": 0.1142,
      "velocity": 47,
      "chip": "ym2612"
    },
    {
      "channel": 2,
      "note": 79,
      "start": 27.5152,
      "duration": 0.1079,
      "velocity": 111,
      "chip": "ym2612"
    },
    {
      "channel": 3,
      "note": 70,
      "start": 27.5152,
      "duration": 0.108,
      "velocity": 111,
      "chip": "ym2612"
    },
    {
      "channel": 4,
      "note": 75,
      "start": 27.5154,
      "duration": 0.1079,
      "velocity": 111,
      "chip": "ym2612"
    },
    {
      "channel": 0,
      "note": 102,
      "start": 27.673,
      "duration": 0.0031,
      "velocity": 47,
      "chip": "ym2612"
    },
    {
      "channel": 1,
      "note": 51,
      "start": 27.6733,
      "duration": 0.1383,
      "velocity": 107,
      "chip": "ym2612"
    },
    {
      "channel": 2,
      "note": 70,
      "start": 27.6742,
      "duration": 0.1376,
      "velocity": 111,
      "chip": "ym2612"
    },
    {
      "channel": 3,
      "note": 80,
      "start": 27.6743,
      "duration": 0.1376,
      "velocity": 111,
      "chip": "ym2612"
    },
    {
      "channel": 4,
      "note": 77,
      "start": 27.6744,
      "duration": 0.1376,
      "velocity": 111,
      "chip": "ym2612"
    },
    {
      "channel": 0,
      "note": 98,
      "start": 27.7013,
      "duration": 0.2652,
      "velocity": 47,
      "chip": "ym2612"
    },
    {
      "channel": 1,
      "note": 51,
      "start": 27.862,
      "duration": 0.2652,
      "velocity": 107,
      "chip": "ym2612"
    },
    {
      "channel": 2,
      "note": 70,
      "start": 27.8627,
      "duration": 0.2646,
      "velocity": 111,
      "chip": "ym2612"
    },
    {
      "channel": 3,
      "note": 80,
      "start": 27.8628,
      "duration": 0.2647,
      "velocity": 111,
      "chip": "ym2612"
    },
    {
      "channel": 4,
      "note": 77,
      "start": 27.8628,
      "duration": 0.2647,
      "velocity": 111,
      "chip": "ym2612"
    },
    {
      "channel": 0,
      "note": 92,
      "start": 28.0168,
      "duration": 0.1634,
      "velocity": 47,
      "chip": "ym2612"
    },
    {
      "channel": 1,
      "note": 51,
      "start": 28.1774,
      "duration": 0.1332,
      "velocity": 107,
      "chip": "ym2612"
    },
    {
      "channel": 2,
      "note": 79,
      "start": 28.1782,
      "duration": 0.0022,
      "velocity": 111,
      "chip": "ym2612"
    },
    {
      "channel": 3,
      "note": 70,
      "start": 28.1783,
      "duration": 0.0022,
      "velocity": 111,
      "chip": "ym2612"
    },
    {
      "channel": 4,
      "note": 75,
      "start": 28.1783,
      "duration": 0.0022,
      "velocity": 111,
      "chip": "ym2612"
    },
    {
      "channel": 0,
      "note": 95,
      "start": 28.2056,
      "duration": 0.4707,
      "velocity": 47,
      "chip": "ym2612"
    },
    {
      "channel": 2,
      "note": 79,
      "start": 28.2063,
      "duration": 0.3089,
      "velocity": 111,
      "chip": "ym2612"
    },
    {
      "channel": 3,
      "note": 70,
      "start": 28.2064,
      "duration": 0.3088,
      "velocity": 111,
      "chip": "ym2612"
    },
    {
      "channel": 4,
      "note": 75,
      "start": 28.2065,
      "duration": 0.3088,
      "velocity": 111,
      "chip": "ym2612"
    },
    {
      "channel": 1,
      "note": 51,
      "start": 28.361,
      "duration": 0.2654,
      "velocity": 107,
      "chip": "ym2612"
    },
    {
      "channel": 2,
      "note": 79,
      "start": 28.5159,
      "duration": 0.1107,
      "velocity": 111,
      "chip": "ym2612"
    },
    {
      "channel": 3,
      "note": 70,
      "start": 28.516,
      "duration": 0.1107,
      "velocity": 111,
      "chip": "ym2612"
    },
    {
      "channel": 4,
      "note": 75,
      "start": 28.516,
      "duration": 0.1107,
      "velocity": 111,
      "chip": "ym2612"
    },
    {
      "channel": 0,
      "note": 92,
      "start": 28.6764,
      "duration": 0.1383,
      "velocity": 47,
      "chip": "ym2612"
    },
    {
      "channel": 1,
      "note": 51,
      "start": 28.6768,
      "duration": 0.1382,
      "velocity": 107,
      "chip": "ym2612"
    },
    {
      "channel": 2,
      "note": 70,
      "start": 28.6777,
      "duration": 0.1375,
      "velocity": 111,
      "chip": "ym2612"
    },
    {
      "channel": 3,
      "note": 80,
      "start": 28.6778,
      "duration": 0.1374,
      "velocity": 111,
      "chip": "ym2612"
    },
    {
      "channel": 4,
      "note": 77,
      "start": 28.6778,
      "duration": 0.1375,
      "velocity": 111,
      "chip": "ym2612"
    },
    {
      "channel": 0,
      "note": 88,
      "start": 28.865,
      "duration": 0.4482,
      "velocity": 47,
      "chip": "ym2612"
    },
    {
      "channel": 1,
      "note": 51,
      "start": 28.8654,
      "duration": 0.2651,
      "velocity": 107,
      "chip": "ym2612"
    },
    {
      "channel": 2,
      "note": 80,
      "start": 28.8661,
      "duration": 0.2645,
      "velocity": 111,
      "chip": "ym2612"
    },
    {
      "channel": 3,
      "note": 77,
      "start": 28.8662,
      "duration": 0.2645,
      "velocity": 111,
      "chip": "ym2612"
    },
    {
      "channel": 4,
      "note": 70,
      "start": 28.8663,
      "duration": 0.2645,
      "velocity": 111,
      "chip": "ym2612"
    },
    {
      "channel": 1,
      "note": 51,
      "start": 29.1807,
      "duration": 0.1328,
      "velocity": 107,
      "chip": "ym2612"
    },
    {
      "channel": 2,
      "note": 79,
      "start": 29.1813,
      "duration": 0.002,
      "velocity": 111,
      "chip": "ym2612"
    },
    {
      "channel": 3,
      "note": 70,
      "start": 29.1814,
      "duration": 0.0019,
      "velocity": 111,
      "chip": "ym2612"
    },
    {
      "channel": 4,
      "note": 75,
      "start": 29.1814,
      "duration": 0.0019,
      "velocity": 111,
      "chip": "ym2612"
    },
    {
      "channel": 2,
      "note": 79,
      "start": 29.2092,
      "duration": 0.309,
      "velocity": 111,
      "chip": "ym2612"
    },
    {
      "channel": 3,
      "note": 70,
      "start": 29.2092,
      "duration": 0.3091,
      "velocity": 111,
      "chip": "ym2612"
    },
    {
      "channel": 4,
      "note": 75,
      "start": 29.2093,
      "duration": 0.309,
      "velocity": 111,
      "chip": "ym2612"
    },
    {
      "channel": 0,
      "note": 89,
      "start": 29.3636,
      "duration": 0.7698,
      "velocity": 47,
      "chip": "ym2612"
    },
    {
      "channel": 1,
      "note": 51,
      "start": 29.3639,
      "duration": 0.2654,
      "velocity": 107,
      "chip": "ym2612"
    },
    {
      "channel": 2,
      "note": 79,
      "start": 29.5188,
      "duration": 0.1107,
      "velocity": 111,
      "chip": "ym2612"
    },
    {
      "channel": 3,
      "note": 70,
      "start": 29.5189,
      "duration": 0.1107,
      "velocity": 111,
      "chip": "ym2612"
    },
    {
      "channel": 4,
      "note": 75,
      "start": 29.519,
      "duration": 0.1107,
      "velocity": 111,
      "chip": "ym2612"
    },
    {
      "channel": 1,
      "note": 51,
      "start": 29.6795,
      "duration": 0.1383,
      "velocity": 107,
      "chip": "ym2612"
    },
    {
      "channel": 2,
      "note": 70,
      "start": 29.6803,
      "duration": 0.1377,
      "velocity": 111,
      "chip": "ym2612"
    },
    {
      "channel": 3,
      "note": 80,
      "start": 29.6804,
      "duration": 0.1377,
      "velocity": 111,
      "chip": "ym2612"
    },
    {
      "channel": 4,
      "note": 77,
      "start": 29.6804,
      "duration": 0.1377,
      "velocity": 111,
      "chip": "ym2612"
    },
    {
      "channel": 1,
      "note": 51,
      "start": 29.8683,
      "duration": 0.2654,
      "velocity": 107,
      "chip": "ym2612"
    },
    {
      "channel": 2,
      "note": 80,
      "start": 29.869,
      "duration": 0.2648,
      "velocity": 111,
      "chip": "ym2612"
    },
    {
      "channel": 3,
      "note": 70,
      "start": 29.869,
      "duration": 0.2648,
      "velocity": 111,
      "chip": "ym2612"
    },
    {
      "channel": 4,
      "note": 77,
      "start": 29.869,
      "duration": 0.2649,
      "velocity": 111,
      "chip": "ym2612"
    },
    {
      "channel": 0,
      "note": 91,
      "start": 30.1837,
      "duration": 0.0027,
      "velocity": 47,
      "chip": "ym2612"
    },
    {
      "channel": 1,
      "note": 51,
      "start": 30.1839,
      "duration": 0.0027,
      "velocity": 107,
      "chip": "ym2612"
    },
    {
      "channel": 2,
      "note": 79,
      "start": 30.1846,
      "duration": 0.0021,
      "velocity": 111,
      "chip": "ym2612"
    },
    {
      "channel": 3,
      "note": 70,
      "start": 30.1846,
      "duration": 0.0022,
      "velocity": 111,
      "chip": "ym2612"
    },
    {
      "channel": 4,
      "note": 75,
      "start": 30.1847,
      "duration": 0.0022,
      "velocity": 111,
      "chip": "ym2612"
    },
    {
      "channel": 0,
      "note": 89,
      "start": 30.2118,
      "duration": 0.658,
      "velocity": 47,
      "chip": "ym2612"
    },
    {
      "channel": 1,
      "note": 49,
      "start": 30.2122,
      "duration": 0.3157,
      "velocity": 107,
      "chip": "ym2612"
    },
    {
      "channel": 2,
      "note": 73,
      "start": 30.2129,
      "duration": 0.966,
      "velocity": 111,
      "chip": "ym2612"
    },
    {
      "channel": 3,
      "note": 77,
      "start": 30.2131,
      "duration": 0.9659,
      "velocity": 111,
      "chip": "ym2612"
    },
    {
      "channel": 4,
      "note": 68,
      "start": 30.2132,
      "duration": 0.9659,
      "velocity": 111,
      "chip": "ym2612"
    },
    {
      "channel": 1,
      "note": 49,
      "start": 30.5281,
      "duration": 0.104,
      "velocity": 107,
      "chip": "ym2612"
    },
    {
      "channel": 1,
      "note": 49,
      "start": 30.6823,
      "duration": 0.1376,
      "velocity": 107,
      "chip": "ym2612"
    },
    {
      "channel": 0,
      "note": 87,
      "start": 30.87,
      "duration": 0.4418,
      "velocity": 47,
      "chip": "ym2612"
    },
    {
      "channel": 1,
      "note": 49,
      "start": 30.8704,
      "duration": 0.2582,
      "velocity": 107,
      "chip": "ym2612"
    },
    {
      "channel": 1,
      "note": 49,
      "start": 31.1788,
      "duration": 0.0029,
      "velocity": 107,
      "chip": "ym2612"
    },
    {
      "channel": 2,
      "note": 68,
      "start": 31.1796,
      "duration": 0.0023,
      "velocity": 111,
      "chip": "ym2612"
    },
    {
      "channel": 3,
      "note": 77,
      "start": 31.1796,
      "duration": 0.0023,
      "velocity": 111,
      "chip": "ym2612"
    },
    {
      "channel": 4,
      "note": 73,
      "start": 31.1797,
      "duration": 0.0023,
      "velocity": 111,
      "chip": "ym2612"
    },
    {
      "channel": 1,
      "note": 51,
      "start": 31.2074,
      "duration": 0.1047,
      "velocity": 107,
      "chip": "ym2612"
    },
    {
      "channel": 2,
      "note": 79,
      "start": 31.208,
      "duration": 0.1043,
      "velocity": 111,
      "chip": "ym2612"
    },
    {
      "channel": 3,
      "note": 70,
      "start": 31.208,
      "duration": 0.1043,
      "velocity": 111,
      "chip": "ym2612"
    },
    {
      "channel": 4,
      "note": 75,
      "start": 31.2081,
      "duration": 0.1043,
      "velocity": 111,
      "chip": "ym2612"
    },
    {
      "channel": 0,
      "note": 91,
      "start": 31.3621,
      "duration": 1.8654,
      "velocity": 95,
      "chip": "ym2612"
    },
    {
      "channel": 1,
      "note": 51,
      "start": 31.3623,
      "duration": 0.1047,
      "velocity": 107,
      "chip": "ym2612"
    },
    {
      "channel": 2,
      "note": 75,
      "start": 31.3631,
      "duration": 0.1041,
      "velocity": 111,
      "chip": "ym2612"
    },
    {
      "channel": 3,
      "note": 79,
      "start": 31.3631,
      "duration": 0.1042,
      "velocity": 111,
      "chip": "ym2612"
    },
    {
      "channel": 4,
      "note": 70,
      "start": 31.3632,
      "duration": 0.1042,
      "velocity": 111,
      "chip": "ym2612"
    },
    {
      "channel": 1,
      "note": 51,
      "start": 31.5173,
      "duration": 0.111,
      "velocity": 107,
      "chip": "ym2612"
    },
    {
      "channel": 2,
      "note": 79,
      "start": 31.5181,
      "duration": 0.1104,
      "velocity": 111,
      "chip": "ym2612"
    },
    {
      "channel": 3,
      "note": 70,
      "start": 31.5181,
      "duration": 0.1104,
      "velocity": 111,
      "chip": "ym2612"
    },
    {
      "channel": 4,
      "note": 75,
      "start": 31.5182,
      "duration": 0.1104,
      "velocity": 111,
      "chip": "ym2612"
    },
    {
      "channel": 1,
      "note": 51,
      "start": 31.6785,
      "duration": 0.1381,
      "velocity": 107,
      "chip": "ym2612"
    },
    {
      "channel": 2,
      "note": 70,
      "start": 31.6793,
      "duration": 0.1375,
      "velocity": 111,
      "chip": "ym2612"
    },
    {
      "channel": 3,
      "note": 77,
      "start": 31.6793,
      "duration": 0.1375,
      "velocity": 111,
      "chip": "ym2612"
    },
    {
      "channel": 4,
      "note": 80,
      "start": 31.6794,
      "duration": 0.1376,
      "velocity": 111,
      "chip": "ym2612"
    },
    {
      "channel": 1,
      "note": 51,
      "start": 31.867,
      "duration": 0.2654,
      "velocity": 107,
      "chip": "ym2612"
    },
    {
      "channel": 2,
      "note": 80,
      "start": 31.8678,
      "duration": 0.2647,
      "velocity": 111,
      "chip": "ym2612"
    },
    {
      "channel": 3,
      "note": 70,
      "start": 31.8678,
      "duration": 0.2647,
      "velocity": 111,
      "chip": "ym2612"
    },
    {
      "channel": 4,
      "note": 77,
      "start": 31.8678,
      "duration": 0.2648,
      "velocity": 111,
      "chip": "ym2612"
    },
    {
      "channel": 1,
      "note": 51,
      "start": 32.1826,
      "duration": 0.0024,
      "velocity": 107,
      "chip": "ym2612"
    },
    {
      "channel": 2,
      "note": 79,
      "start": 32.1833,
      "duration": 0.0017,
      "velocity": 111,
      "chip": "ym2612"
    },
    {
      "channel": 3,
      "note": 70,
      "start": 32.1833,
      "duration": 0.0018,
      "velocity": 111,
      "chip": "ym2612"
    },
    {
      "channel": 4,
      "note": 75,
      "start": 32.1833,
      "duration": 0.0018,
      "velocity": 111,
      "chip": "ym2612"
    },
    {
      "channel": 1,
      "note": 46,
      "start": 32.2105,
      "duration": 0.3095,
      "velocity": 107,
      "chip": "ym2612"
    },
    {
      "channel": 2,
      "note": 70,
      "start": 32.2113,
      "duration": 1.0232,
      "velocity": 103,
      "chip": "ym2612"
    },
    {
      "channel": 3,
      "note": 74,
      "start": 32.2114,
      "duration": 1.0232,
      "velocity": 103,
      "chip": "ym2612"
    },
    {
      "channel": 4,
      "note": 77,
      "start": 32.2115,
      "duration": 1.0232,
      "velocity": 103,
      "chip": "ym2612"
    },
    {
      "channel": 1,
      "note": 46,
      "start": 32.5202,
      "duration": 0.104,
      "velocity": 107,
      "chip": "ym2612"
    },
    {
      "channel": 1,
      "note": 46,
      "start": 32.6744,
      "duration": 0.1377,
      "velocity": 107,
      "chip": "ym2612"
    },
    {
      "channel": 1,
      "note": 46,
      "start": 32.8625,
      "duration": 0.1041,
      "velocity": 107,
      "chip": "ym2612"
    },
    {
      "channel": 1,
      "note": 46,
      "start": 33.0169,
      "duration": 0.104,
      "velocity": 107,
      "chip": "ym2612"
    },
    {
      "channel": 1,
      "note": 48,
      "start": 33.1711,
      "duration": 0.0014,
      "velocity": 107,
      "chip": "ym2612"
    },
    {
      "channel": 1,
      "note": 50,
      "start": 33.1985,
      "duration": 0.0014,
      "velocity": 107,
      "chip": "ym2612"
    },
    {
      "channel": 0,
      "note": 94,
      "start": 33.2277,
      "duration": 0.9003,
      "velocity": 95,
      "chip": "ym2612"
    },
    {
      "channel": 1,
      "note": 55,
      "start": 33.228,
      "duration": 0.1078,
      "velocity": 107,
      "chip": "ym2612"
    },
    {
      "channel": 2,
      "note": 74,
      "start": 33.2352,
      "duration": 0.4219,
      "velocity": 103,
      "chip": "ym2612"
    },
    {
      "channel": 3,
      "note": 79,
      "start": 33.2353,
      "duration": 0.4219,
      "velocity": 103,
      "chip": "ym2612"
    },
    {
      "channel": 4,
      "note": 82,
      "start": 33.2353,
      "duration": 0.422,
      "velocity": 103,
      "chip": "ym2612"
    },
    {
      "channel": 1,
      "note": 55,
      "start": 33.3861,
      "duration": 0.1104,
      "velocity": 107,
      "chip": "ym2612"
    },
    {
      "channel": 1,
      "note": 55,
      "start": 33.5467,
      "duration": 0.1103,
      "velocity": 107,
      "chip": "ym2612"
    },
    {
      "channel": 1,
      "note": 55,
      "start": 33.7074,
      "duration": 0.1049,
      "velocity": 107,
      "chip": "ym2612"
    },
    {
      "channel": 2,
      "note": 74,
      "start": 33.708,
      "duration": 0.1044,
      "velocity": 103,
      "chip": "ym2612"
    },
    {
      "channel": 3,
      "note": 79,
      "start": 33.7081,
      "duration": 0.1044,
      "velocity": 103,
      "chip": "ym2612"
    },
    {
      "channel": 4,
      "note": 82,
      "start": 33.7082,
      "duration": 0.1044,
      "velocity": 103,
      "chip": "ym2612"
    },
    {
      "channel": 1,
      "note": 55,
      "start": 33.8627,
      "duration": 0.105,
      "velocity": 107,
      "chip": "ym2612"
    },
    {
      "channel": 2,
      "note": 74,
      "start": 33.8633,
      "duration": 0.453,
      "velocity": 103,
      "chip": "ym2612"
    },
    {
      "channel": 3,
      "note": 79,
      "start": 33.8634,
      "duration": 0.453,
      "velocity": 103,
      "chip": "ym2612"
    },
    {
      "channel": 4,
      "note": 82,
      "start": 33.8634,
      "duration": 0.453,
      "velocity": 103,
      "chip": "ym2612"
    },
    {
      "channel": 1,
      "note": 55,
      "start": 34.0179,
      "duration": 0.1105,
      "velocity": 107,
      "chip": "ym2612"
    },
    {
      "channel": 0,
      "note": 93,
      "start": 34.1783,
      "duration": 0.1376,
      "velocity": 95,
      "chip": "ym2612"
    },
    {
      "channel": 1,
      "note": 55,
      "start": 34.1786,
      "duration": 0.0013,
      "velocity": 107,
      "chip": "ym2612"
    },
    {
      "channel": 1,
      "note": 55,
      "start": 34.2059,
      "duration": 0.1103,
      "velocity": 107,
      "chip": "ym2612"
    },
    {
      "channel": 0,
      "note": 91,
      "start": 34.3663,
      "duration": 0.5814,
      "velocity": 95,
      "chip": "ym2612"
    },
    {
      "channel": 1,
      "note": 53,
      "start": 34.3667,
      "duration": 0.1048,
      "velocity": 107,
      "chip": "ym2612"
    },
    {
      "channel": 2,
      "note": 74,
      "start": 34.3673,
      "duration": 0.4254,
      "velocity": 103,
      "chip": "ym2612"
    },
    {
      "channel": 3,
      "note": 79,
      "start": 34.3674,
      "duration": 0.4254,
      "velocity": 103,
      "chip": "ym2612"
    },
    {
      "channel": 4,
      "note": 82,
      "start": 34.3675,
      "duration": 0.4254,
      "velocity": 103,
      "chip": "ym2612"
    },
    {
      "channel": 1,
      "note": 53,
      "start": 34.5217,
      "duration": 0.1103,
      "velocity": 107,
      "chip": "ym2612"
    },
    {
      "channel": 1,
      "note": 53,
      "start": 34.6823,
      "duration": 0.1103,
      "velocity": 107,
      "chip": "ym2612"
    },
    {
      "channel": 1,
      "note": 53,
      "start": 34.843,
      "duration": 0.105,
      "velocity": 107,
      "chip": "ym2612"
    },
    {
      "channel": 2,
      "note": 74,
      "start": 34.8437,
      "duration": 0.1045,
      "velocity": 103,
      "chip": "ym2612"
    },
    {
      "channel": 3,
      "note": 79,
      "start": 34.8437,
      "duration": 0.1045,
      "velocity": 103,
      "chip": "ym2612"
    },
    {
      "channel": 4,
      "note": 82,
      "start": 34.8438,
      "duration": 0.1045,
      "velocity": 103,
      "chip": "ym2612"
    },
    {
      "channel": 0,
      "note": 98,
      "start": 34.998,
      "duration": 0.2655,
      "velocity": 95,
      "chip": "ym2612"
    },
    {
      "channel": 1,
      "note": 53,
      "start": 34.9984,
      "duration": 0.1048,
      "velocity": 107,
      "chip": "ym2612"
    },
    {
      "channel": 2,
      "note": 74,
      "start": 34.9992,
      "duration": 0.4528,
      "velocity": 103,
      "chip": "ym2612"
    },
    {
      "channel": 3,
      "note": 79,
      "start": 34.9992,
      "duration": 0.4528,
      "velocity": 103,
      "chip": "ym2612"
    },
    {
      "channel": 4,
      "note": 82,
      "start": 34.9992,
      "duration": 0.4529,
      "velocity": 103,
      "chip": "ym2612"
    },
    {
      "channel": 1,
      "note": 53,
      "start": 35.1534,
      "duration": 0.1104,
      "velocity": 107,
      "chip": "ym2612"
    },
    {
      "channel": 0,
      "note": 94,
      "start": 35.3137,
      "duration": 0.1378,
      "velocity": 95,
      "chip": "ym2612"
    },
    {
      "channel": 1,
      "note": 53,
      "start": 35.3141,
      "duration": 0.0014,
      "velocity": 107,
      "chip": "ym2612"
    },
    {
      "channel": 1,
      "note": 53,
      "start": 35.3415,
      "duration": 0.1103,
      "velocity": 107,
      "chip": "ym2612"
    },
    {
      "channel": 0,
      "note": 96,
      "start": 35.502,
      "duration": 0.8973,
      "velocity": 95,
      "chip": "ym2612"
    },
    {
      "channel": 1,
      "note": 49,
      "start": 35.5023,
      "duration": 0.1049,
      "velocity": 107,
      "chip": "ym2612"
    },
    {
      "channel": 2,
      "note": 73,
      "start": 35.503,
      "duration": 0.4254,
      "velocity": 103,
      "chip": "ym2612"
    },
    {
      "channel": 3,
      "note": 80,
      "start": 35.5031,
      "duration": 0.4254,
      "velocity": 103,
      "chip": "ym2612"
    },
    {
      "channel": 4,
      "note": 77,
      "start": 35.5031,
      "duration": 0.4254,
      "velocity": 103,
      "chip": "ym2612"
    },
    {
      "channel": 1,
      "note": 49,
      "start": 35.6573,
      "duration": 0.1104,
      "velocity": 107,
      "chip": "ym2612"
    },
    {
      "channel": 1,
      "note": 49,
      "start": 35.8179,
      "duration": 0.1103,
      "velocity": 107,
      "chip": "ym2612"
    },
    {
      "channel": 1,
      "note": 49,
      "start": 35.9786,
      "duration": 0.1049,
      "velocity": 107,
      "chip": "ym2612"
    },
    {
      "channel": 2,
      "note": 73,
      "start": 35.9793,
      "duration": 0.1044,
      "velocity": 103,
      "chip": "ym2612"
    },
    {
      "channel": 3,
      "note": 80,
      "start": 35.9794,
      "duration": 0.1044,
      "velocity": 103,
      "chip": "ym2612"
    },
    {
      "channel": 4,
      "note": 77,
      "start": 35.9794,
      "duration": 0.1044,
      "velocity": 103,
      "chip": "ym2612"
    },
    {
      "channel": 1,
      "note": 49,
      "start": 36.1339,
      "duration": 0.105,
      "velocity": 107,
      "chip": "ym2612"
    },
    {
      "channel": 2,
      "note": 73,
      "start": 36.1346,
      "duration": 0.453,
      "velocity": 103,
      "chip": "ym2612"
    },
    {
      "channel": 3,
      "note": 80,
      "start": 36.1346,
      "duration": 0.453,
      "velocity": 103,
      "chip": "ym2612"
    },
    {
      "channel": 4,
      "note": 77,
      "start": 36.1347,
      "duration": 0.453,
      "velocity": 103,
      "chip": "ym2612"
    },
    {
      "channel": 1,
      "note": 49,
      "start": 36.2891,
      "duration": 0.1105,
      "velocity": 107,
      "chip": "ym2612"
    },
    {
      "channel": 0,
      "note": 98,
      "start": 36.4495,
      "duration": 0.1376,
      "velocity": 95,
      "chip": "ym2612"
    },
    {
      "channel": 1,
      "note": 49,
      "start": 36.4498,
      "duration": 0.0013,
      "velocity": 107,
      "chip": "ym2612"
    },
    {
      "channel": 1,
      "note": 49,
      "start": 36.4771,
      "duration": 0.1103,
      "velocity": 107,
      "chip": "ym2612"
    },
    {
      "channel": 0,
      "note": 94,
      "start": 36.6376,
      "duration": 1.0851,
      "velocity": 95,
      "chip": "ym2612"
    },
    {
      "channel": 1,
      "note": 51,
      "start": 36.6379,
      "duration": 0.1047,
      "velocity": 107,
      "chip": "ym2612"
    },
    {
      "channel": 2,
      "note": 73,
      "start": 36.6385,
      "duration": 0.4253,
      "velocity": 103,
      "chip": "ym2612"
    },
    {
      "channel": 3,
      "note": 80,
      "start": 36.6386,
      "duration": 0.4253,
      "velocity": 103,
      "chip": "ym2612"
    },
    {
      "channel": 4,
      "note": 77,
      "start": 36.6387,
      "duration": 0.4253,
      "velocity": 103,
      "chip": "ym2612"
    },
    {
      "channel": 1,
      "note": 51,
      "start": 36.7929,
      "duration": 0.1103,
      "velocity": 107,
      "chip": "ym2612"
    },
    {
      "channel": 1,
      "note": 51,
      "start": 36.9534,
      "duration": 0.1103,
      "velocity": 107,
      "chip": "ym2612"
    },
    {
      "channel": 1,
      "note": 51,
      "start": 37.1141,
      "duration": 0.1049,
      "velocity": 107,
      "chip": "ym2612"
    },
    {
      "channel": 2,
      "note": 73,
      "start": 37.1148,
      "duration": 0.1044,
      "velocity": 103,
      "chip": "ym2612"
    },
    {
      "channel": 3,
      "note": 80,
      "start": 37.1149,
      "duration": 0.1044,
      "velocity": 103,
      "chip": "ym2612"
    },
    {
      "channel": 4,
      "note": 77,
      "start": 37.1149,
      "duration": 0.1044,
      "velocity": 103,
      "chip": "ym2612"
    },
    {
      "channel": 1,
      "note": 51,
      "start": 37.2694,
      "duration": 0.105,
      "velocity": 107,
      "chip": "ym2612"
    },
    {
      "channel": 2,
      "note": 73,
      "start": 37.2701,
      "duration": 0.453,
      "velocity": 103,
      "chip": "ym2612"
    },
    {
      "channel": 3,
      "note": 80,
      "start": 37.2701,
      "duration": 0.453,
      "velocity": 103,
      "chip": "ym2612"
    },
    {
      "channel": 4,
      "note": 77,
      "start": 37.2702,
      "duration": 0.453,
      "velocity": 103,
      "chip": "ym2612"
    },
    {
      "channel": 1,
      "note": 51,
      "start": 37.4246,
      "duration": 0.1104,
      "velocity": 107,
      "chip": "ym2612"
    },
    {
      "channel": 1,
      "note": 51,
      "start": 37.5852,
      "duration": 0.0014,
      "velocity": 107,
      "chip": "ym2612"
    },
    {
      "channel": 1,
      "note": 51,
      "start": 37.6126,
      "duration": 0.1103,
      "velocity": 107,
      "chip": "ym2612"
    },
    {
      "channel": 0,
      "note": 94,
      "start": 37.7729,
      "duration": 0.8974,
      "velocity": 95,
      "chip": "ym2612"
    },
    {
      "channel": 1,
      "note": 55,
      "start": 37.7733,
      "duration": 0.1049,
      "velocity": 107,
      "chip": "ym2612"
    },
    {
      "channel": 2,
      "note": 79,
      "start": 37.7741,
      "duration": 0.4254,
      "velocity": 103,
      "chip": "ym2612"
    },
    {
      "channel": 3,
      "note": 82,
      "start": 37.7742,
      "duration": 0.4254,
      "velocity": 103,
      "chip": "ym2612"
    },
    {
      "channel": 4,
      "note": 74,
      "start": 37.7742,
      "duration": 0.4254,
      "velocity": 103,
      "chip": "ym2612"
    },
    {
      "channel": 1,
      "note": 55,
      "start": 37.9285,
      "duration": 0.1103,
      "velocity": 107,
      "chip": "ym2612"
    },
    {
      "channel": 1,
      "note": 55,
      "start": 38.089,
      "duration": 0.1103,
      "velocity": 107,
      "chip": "ym2612"
    },
    {
      "channel": 1,
      "note": 55,
      "start": 38.2498,
      "duration": 0.1049,
      "velocity": 107,
      "chip": "ym2612"
    },
    {
      "channel": 2,
      "note": 79,
      "start": 38.2504,
      "duration": 0.1044,
      "velocity": 103,
      "chip": "ym2612"
    },
    {
      "channel": 3,
      "note": 82,
      "start": 38.2505,
      "duration": 0.1044,
      "velocity": 103,
      "chip": "ym2612"
    },
    {
      "channel": 4,
      "note": 74,
      "start": 38.2505,
      "duration": 0.1044,
      "velocity": 103,
      "chip": "ym2612"
    },
    {
      "channel": 1,
      "note": 55,
      "start": 38.405,
      "duration": 0.105,
      "velocity": 107,
      "chip": "ym2612"
    },
    {
      "channel": 2,
      "note": 79,
      "start": 38.4057,
      "duration": 0.453,
      "velocity": 103,
      "chip": "ym2612"
    },
    {
      "channel": 3,
      "note": 82,
      "start": 38.4058,
      "duration": 0.453,
      "velocity": 103,
      "chip": "ym2612"
    },
    {
      "channel": 4,
      "note": 74,
      "start": 38.4058,
      "duration": 0.453,
      "velocity": 103,
      "chip": "ym2612"
    },
    {
      "channel": 1,
      "note": 55,
      "start": 38.5602,
      "duration": 0.1105,
      "velocity": 107,
      "chip": "ym2612"
    },
    {
      "channel": 0,
      "note": 93,
      "start": 38.7207,
      "duration": 0.1376,
      "velocity": 95,
      "chip": "ym2612"
    },
    {
      "channel": 1,
      "note": 55,
      "start": 38.721,
      "duration": 0.0013,
      "velocity": 107,
      "chip": "ym2612"
    },
    {
      "channel": 1,
      "note": 55,
      "start": 38.7483,
      "duration": 0.1103,
      "velocity": 107,
      "chip": "ym2612"
    },
    {
      "channel": 0,
      "note": 91,
      "start": 38.9087,
      "duration": 0.5812,
      "velocity": 95,
      "chip": "ym2612"
    },
    {
      "channel": 1,
      "note": 53,
      "start": 38.909,
      "duration": 0.1047,
      "velocity": 107,
      "chip": "ym2612"
    },
    {
      "channel": 2,
      "note": 79,
      "start": 38.9097,
      "duration": 0.4253,
      "velocity": 103,
      "chip": "ym2612"
    },
    {
      "channel": 3,
      "note": 82,
      "start": 38.9098,
      "duration": 0.4253,
      "velocity": 103,
      "chip": "ym2612"
    },
    {
      "channel": 4,
      "note": 74,
      "start": 38.9098,
      "duration": 0.4253,
      "velocity": 103,
      "chip": "ym2612"
    },
    {
      "channel": 1,
      "note": 53,
      "start": 39.064,
      "duration": 0.1103,
      "velocity": 107,
      "chip": "ym2612"
    },
    {
      "channel": 1,
      "note": 53,
      "start": 39.2245,
      "duration": 0.1103,
      "velocity": 107,
      "chip": "ym2612"
    },
    {
      "channel": 1,
      "note": 53,
      "start": 39.3853,
      "duration": 0.105,
      "velocity": 107,
      "chip": "ym2612"
    },
    {
      "channel": 2,
      "note": 79,
      "start": 39.3859,
      "duration": 0.1045,
      "velocity": 103,
      "chip": "ym2612"
    },
    {
      "channel": 3,
      "note": 82,
      "start": 39.386,
      "duration": 0.1045,
      "velocity": 103,
      "chip": "ym2612"
    },
    {
      "channel": 4,
      "note": 74,
      "start": 39.386,
      "duration": 0.1045,
      "velocity": 103,
      "chip": "ym2612"
    },
    {
      "channel": 0,
      "note": 98,
      "start": 39.5402,
      "duration": 0.2655,
      "velocity": 95,
      "chip": "ym2612"
    },
    {
      "channel": 1,
      "note": 53,
      "start": 39.5406,
      "duration": 0.1048,
      "velocity": 107,
      "chip": "ym2612"
    },
    {
      "channel": 2,
      "note": 79,
      "start": 39.5414,
      "duration": 0.4528,
      "velocity": 103,
      "chip": "ym2612"
    },
    {
      "channel": 3,
      "note": 82,
      "start": 39.5415,
      "duration": 0.4528,
      "velocity": 103,
      "chip": "ym2612"
    },
    {
      "channel": 4,
      "note": 74,
      "start": 39.5415,
      "duration": 0.4529,
      "velocity": 103,
      "chip": "ym2612"
    },
    {
      "channel": 1,
      "note": 53,
      "start": 39.6956,
      "duration": 0.1104,
      "velocity": 107,
      "chip": "ym2612"
    },
    {
      "channel": 0,
      "note": 94,
      "start": 39.856,
      "duration": 0.1378,
      "velocity": 95,
      "chip": "ym2612"
    },
    {
      "channel": 1,
      "note": 53,
      "start": 39.8563,
      "duration": 0.0014,
      "velocity": 107,
      "chip": "ym2612"
    },
    {
      "channel": 1,
      "note": 53,
      "start": 39.8838,
      "duration": 0.1103,
      "velocity": 107,
      "chip": "ym2612"
    },
    {
      "channel": 0,
      "note": 97,
      "start": 40.0442,
      "duration": 0.8973,
      "velocity": 95,
      "chip": "ym2612"
    },
    {
      "channel": 1,
      "note": 49,
      "start": 40.0445,
      "duration": 0.1049,
      "velocity": 107,
      "chip": "ym2612"
    },
    {
      "channel": 2,
      "note": 80,
      "start": 40.0452,
      "duration": 0.4254,
      "velocity": 103,
      "chip": "ym2612"
    },
    {
      "channel": 3,
      "note": 73,
      "start": 40.0453,
      "duration": 0.4254,
      "velocity": 103,
      "chip": "ym2612"
    },
    {
      "channel": 4,
      "note": 77,
      "start": 40.0454,
      "duration": 0.4254,
      "velocity": 103,
      "chip": "ym2612"
    },
    {
      "channel": 1,
      "note": 49,
      "start": 40.1996,
      "duration": 0.1104,
      "velocity": 107,
      "chip": "ym2612"
    },
    {
      "channel": 1,
      "note": 49,
      "start": 40.3602,
      "duration": 0.1103,
      "velocity": 107,
      "chip": "ym2612"
    },
    {
      "channel": 1,
      "note": 49,
      "start": 40.5209,
      "duration": 0.1049,
      "velocity": 107,
      "chip": "ym2612"
    },
    {
      "channel": 2,
      "note": 80,
      "start": 40.5215,
      "duration": 0.1044,
      "velocity": 103,
      "chip": "ym2612"
    },
    {
      "channel": 3,
      "note": 73,
      "start": 40.5216,
      "duration": 0.1044,
      "velocity": 103,
      "chip": "ym2612"
    },
    {
      "channel": 4,
      "note": 77,
      "start": 40.5217,
      "duration": 0.1044,
      "velocity": 103,
      "chip": "ym2612"
    },
    {
      "channel": 1,
      "note": 49,
      "start": 40.6761,
      "duration": 0.105,
      "velocity": 107,
      "chip": "ym2612"
    },
    {
      "channel": 2,
      "note": 80,
      "start": 40.6768,
      "duration": 0.4531,
      "velocity": 103,
      "chip": "ym2612"
    },
    {
      "channel": 3,
      "note": 73,
      "start": 40.6769,
      "duration": 0.4531,
      "velocity": 103,
      "chip": "ym2612"
    },
    {
      "channel": 4,
      "note": 77,
      "start": 40.6769,
      "duration": 0.4531,
      "velocity": 103,
      "chip": "ym2612"
    },
    {
      "channel": 1,
      "note": 49,
      "start": 40.8314,
      "duration": 0.1105,
      "velocity": 107,
      "chip": "ym2612"
    },
    {
      "channel": 0,
      "note": 97,
      "start": 40.9918,
      "duration": 0.1377,
      "velocity": 95,
      "chip": "ym2612"
    },
    {
      "channel": 1,
      "note": 49,
      "start": 40.9921,
      "duration": 0.0014,
      "velocity": 107,
      "chip": "ym2612"
    },
    {
      "channel": 1,
      "note": 49,
      "start": 41.0194,
      "duration": 0.1104,
      "velocity": 107,
      "chip": "ym2612"
    },
    {
      "channel": 0,
      "note": 100,
      "start": 41.1798,
      "duration": 2.0136,
      "velocity": 95,
      "chip": "ym2612"
    },
    {
      "channel": 1,
      "note": 48,
      "start": 41.1801,
      "duration": 0.1076,
      "velocity": 107,
      "chip": "ym2612"
    },
    {
      "channel": 2,
      "note": 79,
      "start": 41.1865,
      "duration": 0.4498,
      "velocity": 103,
      "chip": "ym2612"
    },
    {
      "channel": 3,
      "note": 72,
      "start": 41.1866,
      "duration": 0.4498,
      "velocity": 103,
      "chip": "ym2612"
    },
    {
      "channel": 4,
      "note": 76,
      "start": 41.1867,
      "duration": 0.4498,
      "velocity": 103,
      "chip": "ym2612"
    },
    {
      "channel": 1,
      "note": 48,
      "start": 41.338,
      "duration": 0.1103,
      "velocity": 107,
      "chip": "ym2612"
    },
    {
      "channel": 1,
      "note": 48,
      "start": 41.4985,
      "duration": 0.0014,
      "velocity": 107,
      "chip": "ym2612"
    },
    {
      "channel": 1,
      "note": 48,
      "start": 41.5259,
      "duration": 0.1102,
      "velocity": 107,
      "chip": "ym2612"
    },
    {
      "channel": 1,
      "note": 48,
      "start": 41.6866,
      "duration": 0.105,
      "velocity": 107,
      "chip": "ym2612"
    },
    {
      "channel": 2,
      "note": 73,
      "start": 41.6873,
      "duration": 0.4529,
      "velocity": 103,
      "chip": "ym2612"
    },
    {
      "channel": 3,
      "note": 80,
      "start": 41.6873,
      "duration": 0.4529,
      "velocity": 103,
      "chip": "ym2612"
    },
    {
      "channel": 4,
      "note": 77,
      "start": 41.6873,
      "duration": 0.4529,
      "velocity": 103,
      "chip": "ym2612"
    },
    {
      "channel": 1,
      "note": 48,
      "start": 41.8418,
      "duration": 0.1104,
      "velocity": 107,
      "chip": "ym2612"
    },
    {
      "channel": 1,
      "note": 48,
      "start": 42.0023,
      "duration": 0.0014,
      "velocity": 107,
      "chip": "ym2612"
    },
    {
      "channel": 1,
      "note": 48,
      "start": 42.0298,
      "duration": 0.1103,
      "velocity": 107,
      "chip": "ym2612"
    },
    {
      "channel": 1,
      "note": 46,
      "start": 42.1902,
      "duration": 0.1049,
      "velocity": 107,
      "chip": "ym2612"
    },
    {
      "channel": 2,
      "note": 74,
      "start": 42.191,
      "duration": 0.4708,
      "velocity": 103,
      "chip": "ym2612"
    },
    {
      "channel": 3,
      "note": 77,
      "start": 42.1911,
      "duration": 0.4708,
      "velocity": 103,
      "chip": "ym2612"
    },
    {
      "channel": 4,
      "note": 70,
      "start": 42.1911,
      "duration": 0.4708,
      "velocity": 103,
      "chip": "ym2612"
    },
    {
      "channel": 1,
      "note": 46,
      "start": 42.3454,
      "duration": 0.1103,
      "velocity": 107,
      "chip": "ym2612"
    },
    {
      "channel": 1,
      "note": 46,
      "start": 42.5061,
      "duration": 0.104,
      "velocity": 107,
      "chip": "ym2612"
    },
    {
      "channel": 1,
      "note": 46,
      "start": 42.6603,
      "duration": 0.0014,
      "velocity": 107,
      "chip": "ym2612"
    },
    {
      "channel": 1,
      "note": 48,
      "start": 42.688,
      "duration": 0.1048,
      "velocity": 107,
      "chip": "ym2612"
    },
    {
      "channel": 2,
      "note": 76,
      "start": 42.6887,
      "duration": 0.4529,
      "velocity": 103,
      "chip": "ym2612"
    },
    {
      "channel": 3,
      "note": 79,
      "start": 42.6887,
      "duration": 0.4529,
      "velocity": 103,
      "chip": "ym2612"
    },
    {
      "channel": 4,
      "note": 72,
      "start": 42.6887,
      "duration": 0.4529,
      "velocity": 103,
      "chip": "ym2612"
    },
    {
      "channel": 1,
      "note": 48,
      "start": 42.8431,
      "duration": 0.1103,
      "velocity": 107,
      "chip": "ym2612"
    },
    {
      "channel": 1,
      "note": 48,
      "start": 43.0036,
      "duration": 0.0005,
      "velocity": 107,
      "chip": "ym2612"
    },
    {
      "channel": 1,
      "note": 46,
      "start": 43.0047,
      "duration": 0.0005,
      "velocity": 107,
      "chip": "ym2612"
    },
    {
      "channel": 1,
      "note": 48,
      "start": 43.0311,
      "duration": 0.1103,
      "velocity": 107,
      "chip": "ym2612"
    },
    {
      "channel": 0,
      "note": 96,
      "start": 43.1937,
      "duration": 0.4522,
      "velocity": 95,
      "chip": "ym2612"
    },
    {
      "channel": 1,
      "note": 48,
      "start": 43.194,
      "duration": 0.1039,
      "velocity": 107,
      "chip": "ym2612"
    },
    {
      "channel": 2,
      "note": 76,
      "start": 43.1947,
      "duration": 0.4517,
      "velocity": 103,
      "chip": "ym2612"
    },
    {
      "channel": 3,
      "note": 79,
      "start": 43.1948,
      "duration": 0.4517,
      "velocity": 103,
      "chip": "ym2612"
    },
    {
      "channel": 4,
      "note": 72,
      "start": 43.1948,
      "duration": 0.4517,
      "velocity": 103,
      "chip": "ym2612"
    },
    {
      "channel": 1,
      "note": 48,
      "start": 43.3481,
      "duration": 0.1102,
      "velocity": 107,
      "chip": "ym2612"
    },
    {
      "channel": 1,
      "note": 48,
      "start": 43.5085,
      "duration": 0.0014,
      "velocity": 107,
      "chip": "ym2612"
    },
    {
      "channel": 1,
      "note": 48,
      "start": 43.5359,
      "duration": 0.1103,
      "velocity": 107,
      "chip": "ym2612"
    },
    {
      "channel": 0,
      "note": 97,
      "start": 43.6963,
      "duration": 0.4536,
      "velocity": 95,
      "chip": "ym2612"
    },
    {
      "channel": 1,
      "note": 49,
      "start": 43.6966,
      "duration": 0.105,
      "velocity": 107,
      "chip": "ym2612"
    },
    {
      "channel": 2,
      "note": 73,
      "start": 43.6974,
      "duration": 0.4529,
      "velocity": 103,
      "chip": "ym2612"
    },
    {
      "channel": 3,
      "note": 80,
      "start": 43.6976,
      "duration": 0.4528,
      "velocity": 103,
      "chip": "ym2612"
    },
    {
      "channel": 4,
      "note": 77,
      "start": 43.6976,
      "duration": 0.4527,
      "velocity": 103,
      "chip": "ym2612"
    },
    {
      "channel": 1,
      "note": 49,
      "start": 43.8519,
      "duration": 0.1103,
      "velocity": 107,
      "chip": "ym2612"
    },
    {
      "channel": 1,
      "note": 49,
      "start": 44.0124,
      "duration": 0.0014,
      "velocity": 107,
      "chip": "ym2612"
    },
    {
      "channel": 1,
      "note": 49,
      "start": 44.0398,
      "duration": 0.1104,
      "velocity": 107,
      "chip": "ym2612"
    },
    {
      "channel": 0,
      "note": 94,
      "start": 44.2001,
      "duration": 0.4717,
      "velocity": 95,
      "chip": "ym2612"
    },
    {
      "channel": 1,
      "note": 46,
      "start": 44.2005,
      "duration": 0.105,
      "velocity": 107,
      "chip": "ym2612"
    },
    {
      "channel": 2,
      "note": 77,
      "start": 44.2013,
      "duration": 0.4708,
      "velocity": 103,
      "chip": "ym2612"
    },
    {
      "channel": 3,
      "note": 74,
      "start": 44.2015,
      "duration": 0.4708,
      "velocity": 103,
      "chip": "ym2612"
    },
    {
      "channel": 4,
      "note": 70,
      "start": 44.2015,
      "duration": 0.4708,
      "velocity": 103,
      "chip": "ym2612"
    },
    {
      "channel": 1,
      "note": 46,
      "start": 44.3557,
      "duration": 0.1103,
      "velocity": 107,
      "chip": "ym2612"
    },
    {
      "channel": 1,
      "note": 46,
      "start": 44.5165,
      "duration": 0.1041,
      "velocity": 107,
      "chip": "ym2612"
    },
    {
      "channel": 1,
      "note": 46,
      "start": 44.6707,
      "duration": 0.0013,
      "velocity": 107,
      "chip": "ym2612"
    },
    {
      "channel": 0,
      "note": 96,
      "start": 44.698,
      "duration": 0.4532,
      "velocity": 95,
      "chip": "ym2612"
    },
    {
      "channel": 1,
      "note": 48,
      "start": 44.6984,
      "duration": 0.1047,
      "velocity": 107,
      "chip": "ym2612"
    },
    {
      "channel": 2,
      "note": 76,
      "start": 44.699,
      "duration": 0.4527,
      "velocity": 103,
      "chip": "ym2612"
    },
    {
      "channel": 3,
      "note": 79,
      "start": 44.6991,
      "duration": 0.4527,
      "velocity": 103,
      "chip": "ym2612"
    },
    {
      "channel": 4,
      "note": 72,
      "start": 44.6991,
      "duration": 0.4527,
      "velocity": 103,
      "chip": "ym2612"
    },
    {
      "channel": 1,
      "note": 48,
      "start": 44.8534,
      "duration": 0.1103,
      "velocity": 107,
      "chip": "ym2612"
    },
    {
      "channel": 1,
      "note": 48,
      "start": 45.0138,
      "duration": 0.0012,
      "velocity": 107,
      "chip": "ym2612"
    },
    {
      "channel": 1,
      "note": 48,
      "start": 45.0412,
      "duration": 0.1104,
      "velocity": 107,
      "chip": "ym2612"
    },
    {
      "channel": 0,
      "note": 100,
      "start": 45.2016,
      "duration": 0.4534,
      "velocity": 95,
      "chip": "ym2612"
    },
    {
      "channel": 1,
      "note": 48,
      "start": 45.202,
      "duration": 0.1047,
      "velocity": 107,
      "chip": "ym2612"
    },
    {
      "channel": 2,
      "note": 76,
      "start": 45.2028,
      "duration": 0.4527,
      "velocity": 103,
      "chip": "ym2612"
    },
    {
      "channel": 3,
      "note": 79,
      "start": 45.2029,
      "duration": 0.4526,
      "velocity": 103,
      "chip": "ym2612"
    },
    {
      "channel": 4,
      "note": 72,
      "start": 45.2029,
      "duration": 0.4526,
      "velocity": 103,
      "chip": "ym2612"
    },
    {
      "channel": 1,
      "note": 48,
      "start": 45.357,
      "duration": 0.1103,
      "velocity": 107,
      "chip": "ym2612"
    },
    {
      "channel": 1,
      "note": 48,
      "start": 45.5175,
      "duration": 0.0014,
      "velocity": 107,
      "chip": "ym2612"
    },
    {
      "channel": 1,
      "note": 48,
      "start": 45.5449,
      "duration": 0.1104,
      "velocity": 107,
      "chip": "ym2612"
    },
    {
      "channel": 0,
      "note": 101,
      "start": 45.7053,
      "duration": 0.4536,
      "velocity": 95,
      "chip": "ym2612"
    },
    {
      "channel": 1,
      "note": 49,
      "start": 45.7056,
      "duration": 0.105,
      "velocity": 107,
      "chip": "ym2612"
    },
    {
      "channel": 2,
      "note": 77,
      "start": 45.7064,
      "duration": 0.4529,
      "velocity": 103,
      "chip": "ym2612"
    },
    {
      "channel": 3,
      "note": 73,
      "start": 45.7066,
      "duration": 0.4528,
      "velocity": 103,
      "chip": "ym2612"
    },
    {
      "channel": 4,
      "note": 80,
      "start": 45.7066,
      "duration": 0.4527,
      "velocity": 103,
      "chip": "ym2612"
    },
    {
      "channel": 1,
      "note": 49,
      "start": 45.8609,
      "duration": 0.1103,
      "velocity": 107,
      "chip": "ym2612"
    },
    {
      "channel": 1,
      "note": 49,
      "start": 46.0214,
      "duration": 0.0014,
      "velocity": 107,
      "chip": "ym2612"
    },
    {
      "channel": 1,
      "note": 49,
      "start": 46.0488,
      "duration": 0.1104,
      "velocity": 107,
      "chip": "ym2612"
    },
    {
      "channel": 0,
      "note": 98,
      "start": 46.2091,
      "duration": 0.4717,
      "velocity": 95,
      "chip": "ym2612"
    },
    {
      "channel": 1,
      "note": 46,
      "start": 46.2095,
      "duration": 0.105,
      "velocity": 107,
      "chip": "ym2612"
    },
    {
      "channel": 2,
      "note": 74,
      "start": 46.2103,
      "duration": 0.4708,
      "velocity": 103,
      "chip": "ym2612"
    },
    {
      "channel": 3,
      "note": 77,
      "start": 46.2105,
      "duration": 0.4708,
      "velocity": 103,
      "chip": "ym2612"
    },
    {
      "channel": 4,
      "note": 70,
      "start": 46.2105,
      "duration": 0.4708,
      "velocity": 103,
      "chip": "ym2612"
    },
    {
      "channel": 1,
      "note": 46,
      "start": 46.3647,
      "duration": 0.1103,
      "velocity": 107,
      "chip": "ym2612"
    },
    {
      "channel": 1,
      "note": 46,
      "start": 46.5255,
      "duration": 0.1041,
      "velocity": 107,
      "chip": "ym2612"
    },
    {
      "channel": 1,
      "note": 46,
      "start": 46.6797,
      "duration": 0.0013,
      "velocity": 107,
      "chip": "ym2612"
    },
    {
      "channel": 0,
      "note": 100,
      "start": 46.707,
      "duration": 0.4535,
      "velocity": 95,
      "chip": "ym2612"
    },
    {
      "channel": 1,
      "note": 48,
      "start": 46.7074,
      "duration": 0.1046,
      "velocity": 107,
      "chip": "ym2612"
    },
    {
      "channel": 2,
      "note": 72,
      "start": 46.708,
      "duration": 0.2646,
      "velocity": 103,
      "chip": "ym2612"
    },
    {
      "channel": 3,
      "note": 76,
      "start": 46.708,
      "duration": 0.2647,
      "velocity": 103,
      "chip": "ym2612"
    },
    {
      "channel": 4,
      "note": 79,
      "start": 46.708,
      "duration": 0.2647,
      "velocity": 103,
      "chip": "ym2612"
    },
    {
      "channel": 1,
      "note": 48,
      "start": 46.8622,
      "duration": 0.1103,
      "velocity": 107,
      "chip": "ym2612"
    },
    {
      "channel": 1,
      "note": 48,
      "start": 47.0227,
      "duration": 0.002,
      "velocity": 107,
      "chip": "ym2612"
    },
    {
      "channel": 1,
      "note": 48,
      "start": 47.0504,
      "duration": 0.1104,
      "velocity": 107,
      "chip": "ym2612"
    },
    {
      "channel": 0,
      "note": 87,
      "start": 47.2108,
      "duration": 0.0051,
      "velocity": 95,
      "chip": "ym2612"
    },
    {
      "channel": 1,
      "note": 51,
      "start": 47.2111,
      "duration": 0.105,
      "velocity": 107,
      "chip": "ym2612"
    },
    {
      "channel": 2,
      "note": 82,
      "start": 47.212,
      "duration": 1.4156,
      "velocity": 111,
      "chip": "ym2612"
    },
    {
      "channel": 3,
      "note": 75,
      "start": 47.212,
      "duration": 1.4156,
      "velocity": 111,
      "chip": "ym2612"
    },
    {
      "channel": 4,
      "note": 79,
      "start": 47.2121,
      "duration": 1.4155,
      "velocity": 111,
      "chip": "ym2612"
    },
    {
      "channel": 0,
      "note": 84,
      "start": 47.2661,
      "duration": 0.0498,
      "velocity": 95,
      "chip": "ym2612"
    },
    {
      "channel": 0,
      "note": 87,
      "start": 47.3661,
      "duration": 0.1103,
      "velocity": 95,
      "chip": "ym2612"
    },
    {
      "channel": 1,
      "note": 51,
      "start": 47.3664,
      "duration": 0.1103,
      "velocity": 107,
      "chip": "ym2612"
    },
    {
      "channel": 0,
      "note": 91,
      "start": 47.5267,
      "duration": 0.0006,
      "velocity": 95,
      "chip": "ym2612"
    },
    {
      "channel": 1,
      "note": 51,
      "start": 47.527,
      "duration": 0.0016,
      "velocity": 107,
      "chip": "ym2612"
    },
    {
      "channel": 0,
      "note": 87,
      "start": 47.528,
      "duration": 0.0003,
      "velocity": 95,
      "chip": "ym2612"
    },
    {
      "channel": 0,
      "note": 91,
      "start": 47.5544,
      "duration": 0.1103,
      "velocity": 95,
      "chip": "ym2612"
    },
    {
      "channel": 1,
      "note": 51,
      "start": 47.5547,
      "duration": 0.1103,
      "velocity": 107,
      "chip": "ym2612"
    },
    {
      "channel": 0,
      "note": 94,
      "start": 47.715,
      "duration": 0.0041,
      "velocity": 95,
      "chip": "ym2612"
    },
    {
      "channel": 1,
      "note": 51,
      "start": 47.7153,
      "duration": 0.104,
      "velocity": 107,
      "chip": "ym2612"
    },
    {
      "channel": 0,
      "note": 91,
      "start": 47.7693,
      "duration": 0.0498,
      "velocity": 95,
      "chip": "ym2612"
    },
    {
      "channel": 0,
      "note": 94,
      "start": 47.8693,
      "duration": 0.1103,
      "velocity": 95,
      "chip": "ym2612"
    },
    {
      "channel": 1,
      "note": 51,
      "start": 47.8697,
      "duration": 0.1103,
      "velocity": 107,
      "chip": "ym2612"
    },
    {
      "channel": 0,
      "note": 98,
      "start": 48.0299,
      "duration": 0.0006,
      "velocity": 95,
      "chip": "ym2612"
    },
    {
      "channel": 1,
      "note": 51,
      "start": 48.0302,
      "duration": 0.0016,
      "velocity": 107,
      "chip": "ym2612"
    },
    {
      "channel": 0,
      "note": 94,
      "start": 48.0312,
      "duration": 0.0003,
      "velocity": 95,
      "chip": "ym2612"
    },
    {
      "channel": 0,
      "note": 98,
      "start": 48.0576,
      "duration": 0.1103,
      "velocity": 95,
      "chip": "ym2612"
    },
    {
      "channel": 1,
      "note": 51,
      "start": 48.0579,
      "duration": 0.1103,
      "velocity": 107,
      "chip": "ym2612"
    },
    {
      "channel": 0,
      "note": 99,
      "start": 48.2182,
      "duration": 0.3727,
      "velocity": 95,
      "chip": "ym2612"
    },
    {
      "channel": 1,
      "note": 51,
      "start": 48.2185,
      "duration": 0.0019,
      "velocity": 107,
      "chip": "ym2612"
    },
    {
      "channel": 1,
      "note": 51,
      "start": 48.2217,
      "duration": 0.0014,
      "velocity": 107,
      "chip": "ym2612"
    },
    {
      "channel": 1,
      "note": 46,
      "start": 48.2489,
      "duration": 0.0014,
      "velocity": 107,
      "chip": "ym2612"
    },
    {
      "channel": 1,
      "note": 46,
      "start": 48.2512,
      "duration": 0.0015,
      "velocity": 107,
      "chip": "ym2612"
    },
    {
      "channel": 1,
      "note": 48,
      "start": 48.2535,
      "duration": 0.104,
      "velocity": 107,
      "chip": "ym2612"
    },
    {
      "channel": 1,
      "note": 48,
      "start": 48.4079,
      "duration": 0.1041,
      "velocity": 107,
      "chip": "ym2612"
    },
    {
      "channel": 1,
      "note": 51,
      "start": 48.5622,
      "duration": 0.0015,
      "velocity": 107,
      "chip": "ym2612"
    },
    {
      "channel": 1,
      "note": 51,
      "start": 48.5897,
      "duration": 0.0014,
      "velocity": 107,
      "chip": "ym2612"
    },
    {
      "channel": 1,
      "note": 51,
      "start": 48.6215,
      "duration": 0.2667,
      "velocity": 107,
      "chip": "ym2612"
    },
    {
      "channel": 2,
      "note": 79,
      "start": 48.6281,
      "duration": 0.2602,
      "velocity": 111,
      "chip": "ym2612"
    },
    {
      "channel": 3,
      "note": 70,
      "start": 48.6281,
      "duration": 0.2602,
      "velocity": 111,
      "chip": "ym2612"
    },
    {
      "channel": 4,
      "note": 75,
      "start": 48.6282,
      "duration": 0.2602,
      "velocity": 111,
      "chip": "ym2612"
    }
  ]
}