{
  "track_name": "05 - Hey Rita",
  "duration_sec": 57.916,
  "sample_rate": 44100,
  "note_count": 559,
  "unique_pitches": 23,
  "pitch_range": 38,
  "avg_note_duration": 0.4505,
  "reconstruction_stats": {
    "notes_reconstructed": 559,
    "keyon_events": 559,
    "keyoff_events": 524,
    "orphan_keyons": 5,
    "unique_pitches": 23,
    "pitch_range": 38,
    "avg_duration_sec": 0.4505
  },
  "metadata": {
    "source": "M\\Mighty Morphin Power Rangers - The Movie\\05 - Hey Rita.vgz"
  },
  "notes": [
    {
      "channel": 1,
      "note": 57,
      "start": 0.0009,
      "duration": 0.4082,
      "velocity": 90,
      "chip": "ym2612"
    },
    {
      "channel": 1,
      "note": 60,
      "start": 0.4093,
      "duration": 0.41,
      "velocity": 90,
      "chip": "ym2612"
    },
    {
      "channel": 1,
      "note": 60,
      "start": 0.8195,
      "duration": 0.0844,
      "velocity": 90,
      "chip": "ym2612"
    },
    {
      "channel": 1,
      "note": 62,
      "start": 1.0873,
      "duration": 0.41,
      "velocity": 90,
      "chip": "ym2612"
    },
    {
      "channel": 1,
      "note": 63,
      "start": 1.4975,
      "duration": 0.0995,
      "velocity": 90,
      "chip": "ym2612"
    },
    {
      "channel": 1,
      "note": 67,
      "start": 1.5971,
      "duration": 0.1011,
      "velocity": 90,
      "chip": "ym2612"
    },
    {
      "channel": 1,
      "note": 57,
      "start": 1.6984,
      "duration": 0.3934,
      "velocity": 90,
      "chip": "ym2612"
    },
    {
      "channel": 1,
      "note": 60,
      "start": 2.092,
      "duration": 0.4107,
      "velocity": 90,
      "chip": "ym2612"
    },
    {
      "channel": 1,
      "note": 60,
      "start": 2.5029,
      "duration": 0.0995,
      "velocity": 90,
      "chip": "ym2612"
    },
    {
      "channel": 1,
      "note": 62,
      "start": 2.7858,
      "duration": 0.3938,
      "velocity": 90,
      "chip": "ym2612"
    },
    {
      "channel": 1,
      "note": 63,
      "start": 3.1798,
      "duration": 0.1004,
      "velocity": 90,
      "chip": "ym2612"
    },
    {
      "channel": 1,
      "note": 67,
      "start": 3.2803,
      "duration": 0.0161,
      "velocity": 90,
      "chip": "ym2612"
    },
    {
      "channel": 1,
      "note": 57,
      "start": 3.2966,
      "duration": 0.4109,
      "velocity": 90,
      "chip": "ym2612"
    },
    {
      "channel": 2,
      "note": 69,
      "start": 3.2969,
      "duration": 0.4109,
      "velocity": 106,
      "chip": "ym2612"
    },
    {
      "channel": 3,
      "note": 57,
      "start": 3.2971,
      "duration": 0.4109,
      "velocity": 106,
      "chip": "ym2612"
    },
    {
      "channel": 1,
      "note": 60,
      "start": 3.7077,
      "duration": 0.394,
      "velocity": 90,
      "chip": "ym2612"
    },
    {
      "channel": 2,
      "note": 67,
      "start": 3.7079,
      "duration": 0.394,
      "velocity": 106,
      "chip": "ym2612"
    },
    {
      "channel": 3,
      "note": 57,
      "start": 3.7083,
      "duration": 0.3939,
      "velocity": 106,
      "chip": "ym2612"
    },
    {
      "channel": 1,
      "note": 60,
      "start": 4.1019,
      "duration": 0.1016,
      "velocity": 90,
      "chip": "ym2612"
    },
    {
      "channel": 2,
      "note": 67,
      "start": 4.1021,
      "duration": 0.1016,
      "velocity": 106,
      "chip": "ym2612"
    },
    {
      "channel": 3,
      "note": 57,
      "start": 4.1023,
      "duration": 0.1015,
      "velocity": 106,
      "chip": "ym2612"
    },
    {
      "channel": 1,
      "note": 62,
      "start": 4.3868,
      "duration": 0.4111,
      "velocity": 90,
      "chip": "ym2612"
    },
    {
      "channel": 2,
      "note": 66,
      "start": 4.3871,
      "duration": 0.4111,
      "velocity": 106,
      "chip": "ym2612"
    },
    {
      "channel": 3,
      "note": 57,
      "start": 4.3873,
      "duration": 0.4111,
      "velocity": 106,
      "chip": "ym2612"
    },
    {
      "channel": 1,
      "note": 63,
      "start": 4.7981,
      "duration": 0.0834,
      "velocity": 90,
      "chip": "ym2612"
    },
    {
      "channel": 2,
      "note": 66,
      "start": 4.7984,
      "duration": 0.0833,
      "velocity": 106,
      "chip": "ym2612"
    },
    {
      "channel": 3,
      "note": 57,
      "start": 4.7985,
      "duration": 0.0834,
      "velocity": 106,
      "chip": "ym2612"
    },
    {
      "channel": 1,
      "note": 67,
      "start": 4.8817,
      "duration": 0.1009,
      "velocity": 90,
      "chip": "ym2612"
    },
    {
      "channel": 2,
      "note": 64,
      "start": 4.8819,
      "duration": 0.101,
      "velocity": 106,
      "chip": "ym2612"
    },
    {
      "channel": 3,
      "note": 57,
      "start": 4.8821,
      "duration": 0.1009,
      "velocity": 106,
      "chip": "ym2612"
    },
    {
      "channel": 1,
      "note": 57,
      "start": 4.9827,
      "duration": 0.4108,
      "velocity": 90,
      "chip": "ym2612"
    },
    {
      "channel": 2,
      "note": 69,
      "start": 4.983,
      "duration": 0.4108,
      "velocity": 106,
      "chip": "ym2612"
    },
    {
      "channel": 3,
      "note": 57,
      "start": 4.9832,
      "duration": 0.4108,
      "velocity": 106,
      "chip": "ym2612"
    },
    {
      "channel": 1,
      "note": 60,
      "start": 5.3937,
      "duration": 0.411,
      "velocity": 90,
      "chip": "ym2612"
    },
    {
      "channel": 2,
      "note": 67,
      "start": 5.3939,
      "duration": 0.411,
      "velocity": 106,
      "chip": "ym2612"
    },
    {
      "channel": 3,
      "note": 57,
      "start": 5.3942,
      "duration": 0.4109,
      "velocity": 106,
      "chip": "ym2612"
    },
    {
      "channel": 1,
      "note": 60,
      "start": 5.8049,
      "duration": 0.0846,
      "velocity": 90,
      "chip": "ym2612"
    },
    {
      "channel": 2,
      "note": 67,
      "start": 5.8051,
      "duration": 0.0846,
      "velocity": 106,
      "chip": "ym2612"
    },
    {
      "channel": 3,
      "note": 57,
      "start": 5.8053,
      "duration": 0.0845,
      "velocity": 106,
      "chip": "ym2612"
    },
    {
      "channel": 1,
      "note": 62,
      "start": 6.0728,
      "duration": 0.411,
      "velocity": 90,
      "chip": "ym2612"
    },
    {
      "channel": 2,
      "note": 66,
      "start": 6.0731,
      "duration": 0.411,
      "velocity": 106,
      "chip": "ym2612"
    },
    {
      "channel": 3,
      "note": 57,
      "start": 6.0733,
      "duration": 0.411,
      "velocity": 106,
      "chip": "ym2612"
    },
    {
      "channel": 1,
      "note": 63,
      "start": 6.4841,
      "duration": 0.1005,
      "velocity": 90,
      "chip": "ym2612"
    },
    {
      "channel": 2,
      "note": 66,
      "start": 6.4843,
      "duration": 0.1005,
      "velocity": 106,
      "chip": "ym2612"
    },
    {
      "channel": 3,
      "note": 57,
      "start": 6.4845,
      "duration": 0.1006,
      "velocity": 106,
      "chip": "ym2612"
    },
    {
      "channel": 1,
      "note": 67,
      "start": 6.5848,
      "duration": 0.1005,
      "velocity": 90,
      "chip": "ym2612"
    },
    {
      "channel": 2,
      "note": 64,
      "start": 6.585,
      "duration": 0.1004,
      "velocity": 106,
      "chip": "ym2612"
    },
    {
      "channel": 3,
      "note": 57,
      "start": 6.5852,
      "duration": 0.1002,
      "velocity": 106,
      "chip": "ym2612"
    },
    {
      "channel": 0,
      "note": 84,
      "start": 7.0523,
      "duration": 0.1337,
      "velocity": 109,
      "chip": "ym2612"
    },
    {
      "channel": 1,
      "note": 57,
      "start": 7.0532,
      "duration": 0.1269,
      "velocity": 90,
      "chip": "ym2612"
    },
    {
      "channel": 2,
      "note": 57,
      "start": 7.0541,
      "duration": 0.1262,
      "velocity": 106,
      "chip": "ym2612"
    },
    {
      "channel": 4,
      "note": 84,
      "start": 7.098,
      "duration": 0.101,
      "velocity": 109,
      "chip": "ym2612"
    },
    {
      "channel": 1,
      "note": 57,
      "start": 7.1802,
      "duration": 0.0061,
      "velocity": 90,
      "chip": "ym2612"
    },
    {
      "channel": 2,
      "note": 57,
      "start": 7.1805,
      "duration": 0.006,
      "velocity": 106,
      "chip": "ym2612"
    },
    {
      "channel": 3,
      "note": 69,
      "start": 7.1807,
      "duration": 0.006,
      "velocity": 106,
      "chip": "ym2612"
    },
    {
      "channel": 0,
      "note": 84,
      "start": 7.1862,
      "duration": 0.0116,
      "velocity": 109,
      "chip": "ym2612"
    },
    {
      "channel": 1,
      "note": 64,
      "start": 7.1864,
      "duration": 0.0117,
      "velocity": 90,
      "chip": "ym2612"
    },
    {
      "channel": 2,
      "note": 64,
      "start": 7.1866,
      "duration": 0.0118,
      "velocity": 106,
      "chip": "ym2612"
    },
    {
      "channel": 3,
      "note": 76,
      "start": 7.1868,
      "duration": 0.0118,
      "velocity": 106,
      "chip": "ym2612"
    },
    {
      "channel": 0,
      "note": 84,
      "start": 7.1981,
      "duration": 0.229,
      "velocity": 109,
      "chip": "ym2612"
    },
    {
      "channel": 1,
      "note": 57,
      "start": 7.1983,
      "duration": 0.229,
      "velocity": 90,
      "chip": "ym2612"
    },
    {
      "channel": 2,
      "note": 57,
      "start": 7.1986,
      "duration": 0.2291,
      "velocity": 106,
      "chip": "ym2612"
    },
    {
      "channel": 3,
      "note": 69,
      "start": 7.1988,
      "duration": 0.229,
      "velocity": 106,
      "chip": "ym2612"
    },
    {
      "channel": 4,
      "note": 84,
      "start": 7.1992,
      "duration": 0.0451,
      "velocity": 109,
      "chip": "ym2612"
    },
    {
      "channel": 4,
      "note": 84,
      "start": 7.2445,
      "duration": 0.2292,
      "velocity": 109,
      "chip": "ym2612"
    },
    {
      "channel": 0,
      "note": 84,
      "start": 7.4273,
      "duration": 0.2289,
      "velocity": 109,
      "chip": "ym2612"
    },
    {
      "channel": 1,
      "note": 67,
      "start": 7.4276,
      "duration": 0.2292,
      "velocity": 90,
      "chip": "ym2612"
    },
    {
      "channel": 2,
      "note": 67,
      "start": 7.4278,
      "duration": 0.2293,
      "velocity": 106,
      "chip": "ym2612"
    },
    {
      "channel": 3,
      "note": 79,
      "start": 7.428,
      "duration": 0.2293,
      "velocity": 106,
      "chip": "ym2612"
    },
    {
      "channel": 4,
      "note": 84,
      "start": 7.4739,
      "duration": 0.1963,
      "velocity": 109,
      "chip": "ym2612"
    },
    {
      "channel": 0,
      "note": 84,
      "start": 7.6568,
      "duration": 0.0127,
      "velocity": 109,
      "chip": "ym2612"
    },
    {
      "channel": 1,
      "note": 69,
      "start": 7.657,
      "duration": 0.0125,
      "velocity": 90,
      "chip": "ym2612"
    },
    {
      "channel": 2,
      "note": 69,
      "start": 7.6572,
      "duration": 0.0125,
      "velocity": 106,
      "chip": "ym2612"
    },
    {
      "channel": 3,
      "note": 81,
      "start": 7.6575,
      "duration": 0.0125,
      "velocity": 106,
      "chip": "ym2612"
    },
    {
      "channel": 0,
      "note": 84,
      "start": 7.6695,
      "duration": 0.0684,
      "velocity": 109,
      "chip": "ym2612"
    },
    {
      "channel": 1,
      "note": 57,
      "start": 7.6697,
      "duration": 0.0498,
      "velocity": 90,
      "chip": "ym2612"
    },
    {
      "channel": 2,
      "note": 57,
      "start": 7.6699,
      "duration": 0.0499,
      "velocity": 106,
      "chip": "ym2612"
    },
    {
      "channel": 3,
      "note": 69,
      "start": 7.6701,
      "duration": 0.05,
      "velocity": 106,
      "chip": "ym2612"
    },
    {
      "channel": 4,
      "note": 84,
      "start": 7.6704,
      "duration": 0.044,
      "velocity": 109,
      "chip": "ym2612"
    },
    {
      "channel": 4,
      "note": 84,
      "start": 7.7144,
      "duration": 0.0985,
      "velocity": 109,
      "chip": "ym2612"
    },
    {
      "channel": 1,
      "note": 57,
      "start": 7.7197,
      "duration": 0.0069,
      "velocity": 90,
      "chip": "ym2612"
    },
    {
      "channel": 2,
      "note": 57,
      "start": 7.72,
      "duration": 0.0068,
      "velocity": 106,
      "chip": "ym2612"
    },
    {
      "channel": 3,
      "note": 69,
      "start": 7.7202,
      "duration": 0.0069,
      "velocity": 106,
      "chip": "ym2612"
    },
    {
      "channel": 1,
      "note": 64,
      "start": 7.7268,
      "duration": 0.0113,
      "velocity": 90,
      "chip": "ym2612"
    },
    {
      "channel": 2,
      "note": 64,
      "start": 7.727,
      "duration": 0.0113,
      "velocity": 106,
      "chip": "ym2612"
    },
    {
      "channel": 3,
      "note": 76,
      "start": 7.7272,
      "duration": 0.0114,
      "velocity": 106,
      "chip": "ym2612"
    },
    {
      "channel": 0,
      "note": 81,
      "start": 7.738,
      "duration": 0.4052,
      "velocity": 109,
      "chip": "ym2612"
    },
    {
      "channel": 1,
      "note": 57,
      "start": 7.7383,
      "duration": 0.2576,
      "velocity": 90,
      "chip": "ym2612"
    },
    {
      "channel": 2,
      "note": 57,
      "start": 7.7385,
      "duration": 0.2576,
      "velocity": 106,
      "chip": "ym2612"
    },
    {
      "channel": 3,
      "note": 69,
      "start": 7.7387,
      "duration": 0.2576,
      "velocity": 106,
      "chip": "ym2612"
    },
    {
      "channel": 4,
      "note": 81,
      "start": 7.8132,
      "duration": 0.3754,
      "velocity": 109,
      "chip": "ym2612"
    },
    {
      "channel": 1,
      "note": 67,
      "start": 7.9961,
      "duration": 0.0565,
      "velocity": 90,
      "chip": "ym2612"
    },
    {
      "channel": 2,
      "note": 67,
      "start": 7.9963,
      "duration": 0.0565,
      "velocity": 106,
      "chip": "ym2612"
    },
    {
      "channel": 3,
      "note": 79,
      "start": 7.9966,
      "duration": 0.0564,
      "velocity": 106,
      "chip": "ym2612"
    },
    {
      "channel": 1,
      "note": 69,
      "start": 8.0528,
      "duration": 0.0906,
      "velocity": 90,
      "chip": "ym2612"
    },
    {
      "channel": 2,
      "note": 69,
      "start": 8.0529,
      "duration": 0.0907,
      "velocity": 106,
      "chip": "ym2612"
    },
    {
      "channel": 3,
      "note": 81,
      "start": 8.0532,
      "duration": 0.0907,
      "velocity": 106,
      "chip": "ym2612"
    },
    {
      "channel": 0,
      "note": 81,
      "start": 8.1432,
      "duration": 0.5995,
      "velocity": 109,
      "chip": "ym2612"
    },
    {
      "channel": 1,
      "note": 57,
      "start": 8.1435,
      "duration": 0.1279,
      "velocity": 90,
      "chip": "ym2612"
    },
    {
      "channel": 2,
      "note": 57,
      "start": 8.1438,
      "duration": 0.1279,
      "velocity": 106,
      "chip": "ym2612"
    },
    {
      "channel": 3,
      "note": 69,
      "start": 8.144,
      "duration": 0.1279,
      "velocity": 106,
      "chip": "ym2612"
    },
    {
      "channel": 4,
      "note": 81,
      "start": 8.1886,
      "duration": 0.5991,
      "velocity": 109,
      "chip": "ym2612"
    },
    {
      "channel": 1,
      "note": 57,
      "start": 8.2716,
      "duration": 0.0081,
      "velocity": 90,
      "chip": "ym2612"
    },
    {
      "channel": 2,
      "note": 57,
      "start": 8.2719,
      "duration": 0.008,
      "velocity": 106,
      "chip": "ym2612"
    },
    {
      "channel": 3,
      "note": 69,
      "start": 8.2721,
      "duration": 0.008,
      "velocity": 106,
      "chip": "ym2612"
    },
    {
      "channel": 1,
      "note": 64,
      "start": 8.2798,
      "duration": 0.0121,
      "velocity": 90,
      "chip": "ym2612"
    },
    {
      "channel": 2,
      "note": 64,
      "start": 8.28,
      "duration": 0.0122,
      "velocity": 106,
      "chip": "ym2612"
    },
    {
      "channel": 3,
      "note": 76,
      "start": 8.2802,
      "duration": 0.0123,
      "velocity": 106,
      "chip": "ym2612"
    },
    {
      "channel": 1,
      "note": 57,
      "start": 8.2922,
      "duration": 0.2108,
      "velocity": 90,
      "chip": "ym2612"
    },
    {
      "channel": 2,
      "note": 57,
      "start": 8.2924,
      "duration": 0.2108,
      "velocity": 106,
      "chip": "ym2612"
    },
    {
      "channel": 3,
      "note": 69,
      "start": 8.2927,
      "duration": 0.2107,
      "velocity": 106,
      "chip": "ym2612"
    },
    {
      "channel": 1,
      "note": 67,
      "start": 8.5031,
      "duration": 0.2276,
      "velocity": 90,
      "chip": "ym2612"
    },
    {
      "channel": 2,
      "note": 67,
      "start": 8.5033,
      "duration": 0.2275,
      "velocity": 106,
      "chip": "ym2612"
    },
    {
      "channel": 3,
      "note": 79,
      "start": 8.5036,
      "duration": 0.2274,
      "velocity": 106,
      "chip": "ym2612"
    },
    {
      "channel": 1,
      "note": 69,
      "start": 8.7307,
      "duration": 0.012,
      "velocity": 90,
      "chip": "ym2612"
    },
    {
      "channel": 2,
      "note": 69,
      "start": 8.731,
      "duration": 0.0121,
      "velocity": 106,
      "chip": "ym2612"
    },
    {
      "channel": 3,
      "note": 81,
      "start": 8.7312,
      "duration": 0.0121,
      "velocity": 106,
      "chip": "ym2612"
    },
    {
      "channel": 0,
      "note": 81,
      "start": 8.7427,
      "duration": 0.0579,
      "velocity": 109,
      "chip": "ym2612"
    },
    {
      "channel": 1,
      "note": 57,
      "start": 8.743,
      "duration": 0.05,
      "velocity": 90,
      "chip": "ym2612"
    },
    {
      "channel": 2,
      "note": 57,
      "start": 8.7433,
      "duration": 0.05,
      "velocity": 106,
      "chip": "ym2612"
    },
    {
      "channel": 3,
      "note": 69,
      "start": 8.7436,
      "duration": 0.05,
      "velocity": 106,
      "chip": "ym2612"
    },
    {
      "channel": 4,
      "note": 81,
      "start": 8.7877,
      "duration": 0.0254,
      "velocity": 109,
      "chip": "ym2612"
    },
    {
      "channel": 1,
      "note": 57,
      "start": 8.7932,
      "duration": 0.0076,
      "velocity": 90,
      "chip": "ym2612"
    },
    {
      "channel": 2,
      "note": 57,
      "start": 8.7935,
      "duration": 0.0075,
      "velocity": 106,
      "chip": "ym2612"
    },
    {
      "channel": 3,
      "note": 69,
      "start": 8.7937,
      "duration": 0.0075,
      "velocity": 106,
      "chip": "ym2612"
    },
    {
      "channel": 0,
      "note": 81,
      "start": 8.8006,
      "duration": 0.4139,
      "velocity": 109,
      "chip": "ym2612"
    },
    {
      "channel": 1,
      "note": 64,
      "start": 8.8009,
      "duration": 0.0114,
      "velocity": 90,
      "chip": "ym2612"
    },
    {
      "channel": 2,
      "note": 64,
      "start": 8.8011,
      "duration": 0.0114,
      "velocity": 106,
      "chip": "ym2612"
    },
    {
      "channel": 3,
      "note": 76,
      "start": 8.8013,
      "duration": 0.0115,
      "velocity": 106,
      "chip": "ym2612"
    },
    {
      "channel": 1,
      "note": 57,
      "start": 8.8125,
      "duration": 0.2736,
      "velocity": 90,
      "chip": "ym2612"
    },
    {
      "channel": 2,
      "note": 57,
      "start": 8.8127,
      "duration": 0.2736,
      "velocity": 106,
      "chip": "ym2612"
    },
    {
      "channel": 3,
      "note": 69,
      "start": 8.8129,
      "duration": 0.2736,
      "velocity": 106,
      "chip": "ym2612"
    },
    {
      "channel": 4,
      "note": 81,
      "start": 8.8131,
      "duration": 0.4467,
      "velocity": 109,
      "chip": "ym2612"
    },
    {
      "channel": 1,
      "note": 67,
      "start": 9.0862,
      "duration": 0.038,
      "velocity": 90,
      "chip": "ym2612"
    },
    {
      "channel": 2,
      "note": 67,
      "start": 9.0865,
      "duration": 0.038,
      "velocity": 106,
      "chip": "ym2612"
    },
    {
      "channel": 3,
      "note": 79,
      "start": 9.0867,
      "duration": 0.038,
      "velocity": 106,
      "chip": "ym2612"
    },
    {
      "channel": 1,
      "note": 69,
      "start": 9.1244,
      "duration": 0.0904,
      "velocity": 90,
      "chip": "ym2612"
    },
    {
      "channel": 2,
      "note": 69,
      "start": 9.1246,
      "duration": 0.0903,
      "velocity": 106,
      "chip": "ym2612"
    },
    {
      "channel": 3,
      "note": 81,
      "start": 9.1249,
      "duration": 0.0903,
      "velocity": 106,
      "chip": "ym2612"
    },
    {
      "channel": 0,
      "note": 84,
      "start": 9.2146,
      "duration": 0.1516,
      "velocity": 109,
      "chip": "ym2612"
    },
    {
      "channel": 1,
      "note": 57,
      "start": 9.2149,
      "duration": 0.1445,
      "velocity": 90,
      "chip": "ym2612"
    },
    {
      "channel": 2,
      "note": 57,
      "start": 9.2151,
      "duration": 0.1445,
      "velocity": 106,
      "chip": "ym2612"
    },
    {
      "channel": 3,
      "note": 69,
      "start": 9.2154,
      "duration": 0.1445,
      "velocity": 106,
      "chip": "ym2612"
    },
    {
      "channel": 4,
      "note": 84,
      "start": 9.26,
      "duration": 0.1201,
      "velocity": 109,
      "chip": "ym2612"
    },
    {
      "channel": 1,
      "note": 57,
      "start": 9.3595,
      "duration": 0.007,
      "velocity": 90,
      "chip": "ym2612"
    },
    {
      "channel": 2,
      "note": 57,
      "start": 9.3599,
      "duration": 0.0069,
      "velocity": 106,
      "chip": "ym2612"
    },
    {
      "channel": 3,
      "note": 69,
      "start": 9.36,
      "duration": 0.0069,
      "velocity": 106,
      "chip": "ym2612"
    },
    {
      "channel": 0,
      "note": 84,
      "start": 9.3664,
      "duration": 0.0126,
      "velocity": 109,
      "chip": "ym2612"
    },
    {
      "channel": 1,
      "note": 64,
      "start": 9.3667,
      "duration": 0.0127,
      "velocity": 90,
      "chip": "ym2612"
    },
    {
      "channel": 2,
      "note": 64,
      "start": 9.3669,
      "duration": 0.0127,
      "velocity": 106,
      "chip": "ym2612"
    },
    {
      "channel": 3,
      "note": 76,
      "start": 9.3671,
      "duration": 0.0128,
      "velocity": 106,
      "chip": "ym2612"
    },
    {
      "channel": 0,
      "note": 84,
      "start": 9.3793,
      "duration": 0.228,
      "velocity": 109,
      "chip": "ym2612"
    },
    {
      "channel": 1,
      "note": 57,
      "start": 9.3795,
      "duration": 0.228,
      "velocity": 90,
      "chip": "ym2612"
    },
    {
      "channel": 2,
      "note": 57,
      "start": 9.3798,
      "duration": 0.2281,
      "velocity": 106,
      "chip": "ym2612"
    },
    {
      "channel": 3,
      "note": 69,
      "start": 9.38,
      "duration": 0.228,
      "velocity": 106,
      "chip": "ym2612"
    },
    {
      "channel": 4,
      "note": 84,
      "start": 9.3803,
      "duration": 0.0442,
      "velocity": 109,
      "chip": "ym2612"
    },
    {
      "channel": 4,
      "note": 84,
      "start": 9.4247,
      "duration": 0.2286,
      "velocity": 109,
      "chip": "ym2612"
    },
    {
      "channel": 0,
      "note": 84,
      "start": 9.6075,
      "duration": 0.2285,
      "velocity": 109,
      "chip": "ym2612"
    },
    {
      "channel": 1,
      "note": 67,
      "start": 9.6078,
      "duration": 0.2286,
      "velocity": 90,
      "chip": "ym2612"
    },
    {
      "channel": 2,
      "note": 67,
      "start": 9.608,
      "duration": 0.2287,
      "velocity": 106,
      "chip": "ym2612"
    },
    {
      "channel": 3,
      "note": 79,
      "start": 9.6082,
      "duration": 0.2287,
      "velocity": 106,
      "chip": "ym2612"
    },
    {
      "channel": 4,
      "note": 84,
      "start": 9.6534,
      "duration": 0.1944,
      "velocity": 109,
      "chip": "ym2612"
    },
    {
      "channel": 0,
      "note": 84,
      "start": 9.8363,
      "duration": 0.0107,
      "velocity": 109,
      "chip": "ym2612"
    },
    {
      "channel": 1,
      "note": 69,
      "start": 9.8366,
      "duration": 0.0105,
      "velocity": 90,
      "chip": "ym2612"
    },
    {
      "channel": 2,
      "note": 69,
      "start": 9.8368,
      "duration": 0.0106,
      "velocity": 106,
      "chip": "ym2612"
    },
    {
      "channel": 3,
      "note": 81,
      "start": 9.8371,
      "duration": 0.0105,
      "velocity": 106,
      "chip": "ym2612"
    },
    {
      "channel": 0,
      "note": 84,
      "start": 9.8471,
      "duration": 0.0698,
      "velocity": 109,
      "chip": "ym2612"
    },
    {
      "channel": 1,
      "note": 57,
      "start": 9.8473,
      "duration": 0.0518,
      "velocity": 90,
      "chip": "ym2612"
    },
    {
      "channel": 2,
      "note": 57,
      "start": 9.8475,
      "duration": 0.0519,
      "velocity": 106,
      "chip": "ym2612"
    },
    {
      "channel": 3,
      "note": 69,
      "start": 9.8477,
      "duration": 0.052,
      "velocity": 106,
      "chip": "ym2612"
    },
    {
      "channel": 4,
      "note": 84,
      "start": 9.8479,
      "duration": 0.0445,
      "velocity": 109,
      "chip": "ym2612"
    },
    {
      "channel": 4,
      "note": 84,
      "start": 9.8924,
      "duration": 0.1152,
      "velocity": 109,
      "chip": "ym2612"
    },
    {
      "channel": 1,
      "note": 57,
      "start": 9.8993,
      "duration": 0.0055,
      "velocity": 90,
      "chip": "ym2612"
    },
    {
      "channel": 2,
      "note": 57,
      "start": 9.8996,
      "duration": 0.0055,
      "velocity": 106,
      "chip": "ym2612"
    },
    {
      "channel": 3,
      "note": 69,
      "start": 9.8999,
      "duration": 0.0054,
      "velocity": 106,
      "chip": "ym2612"
    },
    {
      "channel": 1,
      "note": 64,
      "start": 9.905,
      "duration": 0.0121,
      "velocity": 90,
      "chip": "ym2612"
    },
    {
      "channel": 2,
      "note": 64,
      "start": 9.9052,
      "duration": 0.0121,
      "velocity": 106,
      "chip": "ym2612"
    },
    {
      "channel": 3,
      "note": 76,
      "start": 9.9054,
      "duration": 0.0121,
      "velocity": 106,
      "chip": "ym2612"
    },
    {
      "channel": 0,
      "note": 81,
      "start": 9.917,
      "duration": 0.42,
      "velocity": 109,
      "chip": "ym2612"
    },
    {
      "channel": 1,
      "note": 57,
      "start": 9.9173,
      "duration": 0.2733,
      "velocity": 90,
      "chip": "ym2612"
    },
    {
      "channel": 2,
      "note": 57,
      "start": 9.9175,
      "duration": 0.2733,
      "velocity": 106,
      "chip": "ym2612"
    },
    {
      "channel": 3,
      "note": 69,
      "start": 9.9177,
      "duration": 0.2733,
      "velocity": 106,
      "chip": "ym2612"
    },
    {
      "channel": 4,
      "note": 81,
      "start": 10.0078,
      "duration": 0.358,
      "velocity": 109,
      "chip": "ym2612"
    },
    {
      "channel": 1,
      "note": 67,
      "start": 10.1907,
      "duration": 0.0561,
      "velocity": 90,
      "chip": "ym2612"
    },
    {
      "channel": 2,
      "note": 67,
      "start": 10.191,
      "duration": 0.0562,
      "velocity": 106,
      "chip": "ym2612"
    },
    {
      "channel": 3,
      "note": 79,
      "start": 10.1912,
      "duration": 0.0561,
      "velocity": 106,
      "chip": "ym2612"
    },
    {
      "channel": 1,
      "note": 69,
      "start": 10.2471,
      "duration": 0.09,
      "velocity": 90,
      "chip": "ym2612"
    },
    {
      "channel": 2,
      "note": 69,
      "start": 10.2473,
      "duration": 0.0902,
      "velocity": 106,
      "chip": "ym2612"
    },
    {
      "channel": 3,
      "note": 81,
      "start": 10.2475,
      "duration": 0.0902,
      "velocity": 106,
      "chip": "ym2612"
    },
    {
      "channel": 0,
      "note": 81,
      "start": 10.3371,
      "duration": 0.6148,
      "velocity": 109,
      "chip": "ym2612"
    },
    {
      "channel": 1,
      "note": 57,
      "start": 10.3373,
      "duration": 0.128,
      "velocity": 90,
      "chip": "ym2612"
    },
    {
      "channel": 2,
      "note": 57,
      "start": 10.3376,
      "duration": 0.1279,
      "velocity": 106,
      "chip": "ym2612"
    },
    {
      "channel": 3,
      "note": 69,
      "start": 10.3378,
      "duration": 0.128,
      "velocity": 106,
      "chip": "ym2612"
    },
    {
      "channel": 4,
      "note": 81,
      "start": 10.3658,
      "duration": 0.6309,
      "velocity": 109,
      "chip": "ym2612"
    },
    {
      "channel": 1,
      "note": 57,
      "start": 10.4654,
      "duration": 0.0071,
      "velocity": 90,
      "chip": "ym2612"
    },
    {
      "channel": 2,
      "note": 57,
      "start": 10.4658,
      "duration": 0.0071,
      "velocity": 106,
      "chip": "ym2612"
    },
    {
      "channel": 3,
      "note": 69,
      "start": 10.4659,
      "duration": 0.0071,
      "velocity": 106,
      "chip": "ym2612"
    },
    {
      "channel": 1,
      "note": 64,
      "start": 10.4728,
      "duration": 0.0119,
      "velocity": 90,
      "chip": "ym2612"
    },
    {
      "channel": 2,
      "note": 64,
      "start": 10.473,
      "duration": 0.0118,
      "velocity": 106,
      "chip": "ym2612"
    },
    {
      "channel": 3,
      "note": 76,
      "start": 10.4732,
      "duration": 0.0118,
      "velocity": 106,
      "chip": "ym2612"
    },
    {
      "channel": 1,
      "note": 57,
      "start": 10.4848,
      "duration": 0.2276,
      "velocity": 90,
      "chip": "ym2612"
    },
    {
      "channel": 2,
      "note": 57,
      "start": 10.4849,
      "duration": 0.2276,
      "velocity": 106,
      "chip": "ym2612"
    },
    {
      "channel": 3,
      "note": 69,
      "start": 10.4851,
      "duration": 0.2277,
      "velocity": 106,
      "chip": "ym2612"
    },
    {
      "channel": 1,
      "note": 67,
      "start": 10.7125,
      "duration": 0.2268,
      "velocity": 90,
      "chip": "ym2612"
    },
    {
      "channel": 2,
      "note": 67,
      "start": 10.7128,
      "duration": 0.2267,
      "velocity": 106,
      "chip": "ym2612"
    },
    {
      "channel": 3,
      "note": 79,
      "start": 10.713,
      "duration": 0.2267,
      "velocity": 106,
      "chip": "ym2612"
    },
    {
      "channel": 1,
      "note": 69,
      "start": 10.9394,
      "duration": 0.0125,
      "velocity": 90,
      "chip": "ym2612"
    },
    {
      "channel": 2,
      "note": 69,
      "start": 10.9396,
      "duration": 0.0124,
      "velocity": 106,
      "chip": "ym2612"
    },
    {
      "channel": 3,
      "note": 81,
      "start": 10.9399,
      "duration": 0.0124,
      "velocity": 106,
      "chip": "ym2612"
    },
    {
      "channel": 0,
      "note": 81,
      "start": 10.9519,
      "duration": 0.134,
      "velocity": 109,
      "chip": "ym2612"
    },
    {
      "channel": 1,
      "note": 57,
      "start": 10.952,
      "duration": 0.1275,
      "velocity": 90,
      "chip": "ym2612"
    },
    {
      "channel": 2,
      "note": 57,
      "start": 10.9522,
      "duration": 0.1275,
      "velocity": 106,
      "chip": "ym2612"
    },
    {
      "channel": 3,
      "note": 69,
      "start": 10.9525,
      "duration": 0.1275,
      "velocity": 106,
      "chip": "ym2612"
    },
    {
      "channel": 4,
      "note": 81,
      "start": 10.9967,
      "duration": 0.1016,
      "velocity": 109,
      "chip": "ym2612"
    },
    {
      "channel": 1,
      "note": 57,
      "start": 11.0797,
      "duration": 0.0063,
      "velocity": 90,
      "chip": "ym2612"
    },
    {
      "channel": 2,
      "note": 57,
      "start": 11.08,
      "duration": 0.0063,
      "velocity": 106,
      "chip": "ym2612"
    },
    {
      "channel": 3,
      "note": 69,
      "start": 11.0802,
      "duration": 0.0063,
      "velocity": 106,
      "chip": "ym2612"
    },
    {
      "channel": 0,
      "note": 81,
      "start": 11.0859,
      "duration": 0.1061,
      "velocity": 101,
      "chip": "ym2612"
    },
    {
      "channel": 1,
      "note": 64,
      "start": 11.0862,
      "duration": 0.0112,
      "velocity": 90,
      "chip": "ym2612"
    },
    {
      "channel": 2,
      "note": 64,
      "start": 11.0864,
      "duration": 0.0113,
      "velocity": 106,
      "chip": "ym2612"
    },
    {
      "channel": 3,
      "note": 76,
      "start": 11.0866,
      "duration": 0.0114,
      "velocity": 106,
      "chip": "ym2612"
    },
    {
      "channel": 1,
      "note": 57,
      "start": 11.0977,
      "duration": 0.0575,
      "velocity": 90,
      "chip": "ym2612"
    },
    {
      "channel": 2,
      "note": 57,
      "start": 11.098,
      "duration": 0.0575,
      "velocity": 106,
      "chip": "ym2612"
    },
    {
      "channel": 3,
      "note": 69,
      "start": 11.0982,
      "duration": 0.0575,
      "velocity": 106,
      "chip": "ym2612"
    },
    {
      "channel": 4,
      "note": 81,
      "start": 11.0983,
      "duration": 0.1397,
      "velocity": 101,
      "chip": "ym2612"
    },
    {
      "channel": 1,
      "note": 67,
      "start": 11.1554,
      "duration": 0.0243,
      "velocity": 90,
      "chip": "ym2612"
    },
    {
      "channel": 2,
      "note": 67,
      "start": 11.1557,
      "duration": 0.0243,
      "velocity": 106,
      "chip": "ym2612"
    },
    {
      "channel": 3,
      "note": 79,
      "start": 11.1559,
      "duration": 0.0244,
      "velocity": 106,
      "chip": "ym2612"
    },
    {
      "channel": 1,
      "note": 69,
      "start": 11.18,
      "duration": 0.0124,
      "velocity": 90,
      "chip": "ym2612"
    },
    {
      "channel": 2,
      "note": 69,
      "start": 11.1802,
      "duration": 0.0124,
      "velocity": 106,
      "chip": "ym2612"
    },
    {
      "channel": 3,
      "note": 81,
      "start": 11.1804,
      "duration": 0.0124,
      "velocity": 106,
      "chip": "ym2612"
    },
    {
      "channel": 0,
      "note": 84,
      "start": 11.1923,
      "duration": 0.0443,
      "velocity": 101,
      "chip": "ym2612"
    },
    {
      "channel": 1,
      "note": 57,
      "start": 11.1926,
      "duration": 0.1354,
      "velocity": 90,
      "chip": "ym2612"
    },
    {
      "channel": 2,
      "note": 81,
      "start": 11.1927,
      "duration": 0.1485,
      "velocity": 106,
      "chip": "ym2612"
    },
    {
      "channel": 3,
      "note": 69,
      "start": 11.1929,
      "duration": 0.5996,
      "velocity": 106,
      "chip": "ym2612"
    },
    {
      "channel": 0,
      "note": 84,
      "start": 11.2368,
      "duration": 0.0909,
      "velocity": 101,
      "chip": "ym2612"
    },
    {
      "channel": 4,
      "note": 84,
      "start": 11.2383,
      "duration": 0.0901,
      "velocity": 101,
      "chip": "ym2612"
    },
    {
      "channel": 0,
      "note": 84,
      "start": 11.3279,
      "duration": 0.0128,
      "velocity": 101,
      "chip": "ym2612"
    },
    {
      "channel": 1,
      "note": 57,
      "start": 11.3281,
      "duration": 0.0129,
      "velocity": 90,
      "chip": "ym2612"
    },
    {
      "channel": 4,
      "note": 84,
      "start": 11.3286,
      "duration": 0.0129,
      "velocity": 101,
      "chip": "ym2612"
    },
    {
      "channel": 0,
      "note": 84,
      "start": 11.3409,
      "duration": 0.0271,
      "velocity": 101,
      "chip": "ym2612"
    },
    {
      "channel": 1,
      "note": 69,
      "start": 11.3411,
      "duration": 0.2105,
      "velocity": 90,
      "chip": "ym2612"
    },
    {
      "channel": 2,
      "note": 81,
      "start": 11.3414,
      "duration": 0.4508,
      "velocity": 106,
      "chip": "ym2612"
    },
    {
      "channel": 4,
      "note": 84,
      "start": 11.3418,
      "duration": 0.0269,
      "velocity": 101,
      "chip": "ym2612"
    },
    {
      "channel": 0,
      "note": 84,
      "start": 11.3682,
      "duration": 0.1832,
      "velocity": 101,
      "chip": "ym2612"
    },
    {
      "channel": 4,
      "note": 84,
      "start": 11.3689,
      "duration": 0.1833,
      "velocity": 101,
      "chip": "ym2612"
    },
    {
      "channel": 0,
      "note": 84,
      "start": 11.5515,
      "duration": 0.228,
      "velocity": 101,
      "chip": "ym2612"
    },
    {
      "channel": 1,
      "note": 67,
      "start": 11.5518,
      "duration": 0.2281,
      "velocity": 90,
      "chip": "ym2612"
    },
    {
      "channel": 4,
      "note": 84,
      "start": 11.5524,
      "duration": 0.0444,
      "velocity": 101,
      "chip": "ym2612"
    },
    {
      "channel": 4,
      "note": 84,
      "start": 11.597,
      "duration": 0.1956,
      "velocity": 101,
      "chip": "ym2612"
    },
    {
      "channel": 0,
      "note": 84,
      "start": 11.7798,
      "duration": 0.0118,
      "velocity": 101,
      "chip": "ym2612"
    },
    {
      "channel": 1,
      "note": 66,
      "start": 11.7801,
      "duration": 0.0119,
      "velocity": 90,
      "chip": "ym2612"
    },
    {
      "channel": 0,
      "note": 84,
      "start": 11.7919,
      "duration": 0.0441,
      "velocity": 101,
      "chip": "ym2612"
    },
    {
      "channel": 1,
      "note": 57,
      "start": 11.7921,
      "duration": 0.1351,
      "velocity": 90,
      "chip": "ym2612"
    },
    {
      "channel": 2,
      "note": 79,
      "start": 11.7924,
      "duration": 0.148,
      "velocity": 106,
      "chip": "ym2612"
    },
    {
      "channel": 3,
      "note": 69,
      "start": 11.7925,
      "duration": 0.6009,
      "velocity": 106,
      "chip": "ym2612"
    },
    {
      "channel": 4,
      "note": 84,
      "start": 11.7928,
      "duration": 0.0439,
      "velocity": 101,
      "chip": "ym2612"
    },
    {
      "channel": 0,
      "note": 84,
      "start": 11.8362,
      "duration": 0.0908,
      "velocity": 101,
      "chip": "ym2612"
    },
    {
      "channel": 4,
      "note": 84,
      "start": 11.8369,
      "duration": 0.0908,
      "velocity": 101,
      "chip": "ym2612"
    },
    {
      "channel": 0,
      "note": 84,
      "start": 11.9271,
      "duration": 0.0127,
      "velocity": 101,
      "chip": "ym2612"
    },
    {
      "channel": 1,
      "note": 57,
      "start": 11.9274,
      "duration": 0.0127,
      "velocity": 90,
      "chip": "ym2612"
    },
    {
      "channel": 4,
      "note": 84,
      "start": 11.9279,
      "duration": 0.0129,
      "velocity": 101,
      "chip": "ym2612"
    },
    {
      "channel": 0,
      "note": 84,
      "start": 11.94,
      "duration": 0.0454,
      "velocity": 101,
      "chip": "ym2612"
    },
    {
      "channel": 1,
      "note": 67,
      "start": 11.9403,
      "duration": 0.2121,
      "velocity": 90,
      "chip": "ym2612"
    },
    {
      "channel": 2,
      "note": 79,
      "start": 11.9406,
      "duration": 0.4524,
      "velocity": 106,
      "chip": "ym2612"
    },
    {
      "channel": 4,
      "note": 84,
      "start": 11.941,
      "duration": 0.0451,
      "velocity": 101,
      "chip": "ym2612"
    },
    {
      "channel": 0,
      "note": 84,
      "start": 11.9856,
      "duration": 0.1665,
      "velocity": 101,
      "chip": "ym2612"
    },
    {
      "channel": 4,
      "note": 84,
      "start": 11.9863,
      "duration": 0.1666,
      "velocity": 101,
      "chip": "ym2612"
    },
    {
      "channel": 0,
      "note": 84,
      "start": 12.1523,
      "duration": 0.2273,
      "velocity": 101,
      "chip": "ym2612"
    },
    {
      "channel": 1,
      "note": 66,
      "start": 12.1526,
      "duration": 0.2273,
      "velocity": 90,
      "chip": "ym2612"
    },
    {
      "channel": 4,
      "note": 84,
      "start": 12.1531,
      "duration": 0.0437,
      "velocity": 101,
      "chip": "ym2612"
    },
    {
      "channel": 4,
      "note": 84,
      "start": 12.197,
      "duration": 0.1964,
      "velocity": 101,
      "chip": "ym2612"
    },
    {
      "channel": 0,
      "note": 84,
      "start": 12.3798,
      "duration": 0.0127,
      "velocity": 101,
      "chip": "ym2612"
    },
    {
      "channel": 1,
      "note": 64,
      "start": 12.3801,
      "duration": 0.0127,
      "velocity": 90,
      "chip": "ym2612"
    },
    {
      "channel": 0,
      "note": 84,
      "start": 12.3927,
      "duration": 0.0456,
      "velocity": 101,
      "chip": "ym2612"
    },
    {
      "channel": 1,
      "note": 57,
      "start": 12.3929,
      "duration": 0.1363,
      "velocity": 90,
      "chip": "ym2612"
    },
    {
      "channel": 2,
      "note": 78,
      "start": 12.3932,
      "duration": 0.149,
      "velocity": 106,
      "chip": "ym2612"
    },
    {
      "channel": 3,
      "note": 69,
      "start": 12.3934,
      "duration": 0.6012,
      "velocity": 106,
      "chip": "ym2612"
    },
    {
      "channel": 4,
      "note": 84,
      "start": 12.3936,
      "duration": 0.0455,
      "velocity": 101,
      "chip": "ym2612"
    },
    {
      "channel": 0,
      "note": 84,
      "start": 12.4385,
      "duration": 0.0905,
      "velocity": 101,
      "chip": "ym2612"
    },
    {
      "channel": 4,
      "note": 84,
      "start": 12.4392,
      "duration": 0.0905,
      "velocity": 101,
      "chip": "ym2612"
    },
    {
      "channel": 0,
      "note": 84,
      "start": 12.5292,
      "duration": 0.0125,
      "velocity": 101,
      "chip": "ym2612"
    },
    {
      "channel": 1,
      "note": 57,
      "start": 12.5294,
      "duration": 0.0126,
      "velocity": 90,
      "chip": "ym2612"
    },
    {
      "channel": 4,
      "note": 84,
      "start": 12.5299,
      "duration": 0.0127,
      "velocity": 101,
      "chip": "ym2612"
    },
    {
      "channel": 0,
      "note": 84,
      "start": 12.5419,
      "duration": 0.0446,
      "velocity": 101,
      "chip": "ym2612"
    },
    {
      "channel": 1,
      "note": 66,
      "start": 12.5422,
      "duration": 0.228,
      "velocity": 90,
      "chip": "ym2612"
    },
    {
      "channel": 2,
      "note": 78,
      "start": 12.5424,
      "duration": 0.4518,
      "velocity": 106,
      "chip": "ym2612"
    },
    {
      "channel": 4,
      "note": 84,
      "start": 12.5428,
      "duration": 0.0444,
      "velocity": 101,
      "chip": "ym2612"
    },
    {
      "channel": 0,
      "note": 84,
      "start": 12.5867,
      "duration": 0.1832,
      "velocity": 101,
      "chip": "ym2612"
    },
    {
      "channel": 4,
      "note": 84,
      "start": 12.5874,
      "duration": 0.1833,
      "velocity": 101,
      "chip": "ym2612"
    },
    {
      "channel": 0,
      "note": 84,
      "start": 12.7701,
      "duration": 0.2102,
      "velocity": 101,
      "chip": "ym2612"
    },
    {
      "channel": 1,
      "note": 64,
      "start": 12.7704,
      "duration": 0.2103,
      "velocity": 90,
      "chip": "ym2612"
    },
    {
      "channel": 4,
      "note": 84,
      "start": 12.7709,
      "duration": 0.0433,
      "velocity": 101,
      "chip": "ym2612"
    },
    {
      "channel": 4,
      "note": 84,
      "start": 12.8145,
      "duration": 0.1802,
      "velocity": 101,
      "chip": "ym2612"
    },
    {
      "channel": 0,
      "note": 84,
      "start": 12.9806,
      "duration": 0.013,
      "velocity": 101,
      "chip": "ym2612"
    },
    {
      "channel": 1,
      "note": 57,
      "start": 12.9809,
      "duration": 0.0131,
      "velocity": 90,
      "chip": "ym2612"
    },
    {
      "channel": 0,
      "note": 84,
      "start": 12.9939,
      "duration": 0.0443,
      "velocity": 101,
      "chip": "ym2612"
    },
    {
      "channel": 1,
      "note": 57,
      "start": 12.9941,
      "duration": 0.1501,
      "velocity": 90,
      "chip": "ym2612"
    },
    {
      "channel": 2,
      "note": 79,
      "start": 12.9944,
      "duration": 0.1624,
      "velocity": 106,
      "chip": "ym2612"
    },
    {
      "channel": 3,
      "note": 69,
      "start": 12.9945,
      "duration": 0.6315,
      "velocity": 106,
      "chip": "ym2612"
    },
    {
      "channel": 4,
      "note": 84,
      "start": 12.9948,
      "duration": 0.0441,
      "velocity": 101,
      "chip": "ym2612"
    },
    {
      "channel": 0,
      "note": 84,
      "start": 13.0384,
      "duration": 0.1056,
      "velocity": 101,
      "chip": "ym2612"
    },
    {
      "channel": 4,
      "note": 84,
      "start": 13.0391,
      "duration": 0.1055,
      "velocity": 101,
      "chip": "ym2612"
    },
    {
      "channel": 0,
      "note": 84,
      "start": 13.1442,
      "duration": 0.0121,
      "velocity": 101,
      "chip": "ym2612"
    },
    {
      "channel": 1,
      "note": 57,
      "start": 13.1444,
      "duration": 0.0122,
      "velocity": 90,
      "chip": "ym2612"
    },
    {
      "channel": 4,
      "note": 84,
      "start": 13.1448,
      "duration": 0.0123,
      "velocity": 101,
      "chip": "ym2612"
    },
    {
      "channel": 0,
      "note": 84,
      "start": 13.1565,
      "duration": 0.0449,
      "velocity": 101,
      "chip": "ym2612"
    },
    {
      "channel": 1,
      "note": 67,
      "start": 13.1567,
      "duration": 0.2283,
      "velocity": 90,
      "chip": "ym2612"
    },
    {
      "channel": 2,
      "note": 79,
      "start": 13.157,
      "duration": 0.4687,
      "velocity": 106,
      "chip": "ym2612"
    },
    {
      "channel": 4,
      "note": 84,
      "start": 13.1574,
      "duration": 0.0447,
      "velocity": 101,
      "chip": "ym2612"
    },
    {
      "channel": 0,
      "note": 84,
      "start": 13.2016,
      "duration": 0.1832,
      "velocity": 101,
      "chip": "ym2612"
    },
    {
      "channel": 4,
      "note": 84,
      "start": 13.2023,
      "duration": 0.1833,
      "velocity": 101,
      "chip": "ym2612"
    },
    {
      "channel": 0,
      "note": 84,
      "start": 13.3849,
      "duration": 0.229,
      "velocity": 101,
      "chip": "ym2612"
    },
    {
      "channel": 1,
      "note": 66,
      "start": 13.3852,
      "duration": 0.229,
      "velocity": 90,
      "chip": "ym2612"
    },
    {
      "channel": 4,
      "note": 84,
      "start": 13.3858,
      "duration": 0.0454,
      "velocity": 101,
      "chip": "ym2612"
    },
    {
      "channel": 4,
      "note": 84,
      "start": 13.4314,
      "duration": 0.1946,
      "velocity": 101,
      "chip": "ym2612"
    },
    {
      "channel": 0,
      "note": 84,
      "start": 13.6142,
      "duration": 0.0109,
      "velocity": 101,
      "chip": "ym2612"
    },
    {
      "channel": 1,
      "note": 64,
      "start": 13.6145,
      "duration": 0.011,
      "velocity": 90,
      "chip": "ym2612"
    },
    {
      "channel": 0,
      "note": 84,
      "start": 13.6254,
      "duration": 0.0444,
      "velocity": 101,
      "chip": "ym2612"
    },
    {
      "channel": 1,
      "note": 57,
      "start": 13.6256,
      "duration": 0.1509,
      "velocity": 90,
      "chip": "ym2612"
    },
    {
      "channel": 2,
      "note": 81,
      "start": 13.6259,
      "duration": 0.1635,
      "velocity": 106,
      "chip": "ym2612"
    },
    {
      "channel": 3,
      "note": 69,
      "start": 13.626,
      "duration": 0.6308,
      "velocity": 106,
      "chip": "ym2612"
    },
    {
      "channel": 4,
      "note": 84,
      "start": 13.6262,
      "duration": 0.0442,
      "velocity": 101,
      "chip": "ym2612"
    },
    {
      "channel": 0,
      "note": 84,
      "start": 13.6699,
      "duration": 0.1064,
      "velocity": 101,
      "chip": "ym2612"
    },
    {
      "channel": 4,
      "note": 84,
      "start": 13.6706,
      "duration": 0.1065,
      "velocity": 101,
      "chip": "ym2612"
    },
    {
      "channel": 0,
      "note": 84,
      "start": 13.7765,
      "duration": 0.0123,
      "velocity": 101,
      "chip": "ym2612"
    },
    {
      "channel": 1,
      "note": 57,
      "start": 13.7767,
      "duration": 0.0124,
      "velocity": 90,
      "chip": "ym2612"
    },
    {
      "channel": 4,
      "note": 84,
      "start": 13.7773,
      "duration": 0.0125,
      "velocity": 101,
      "chip": "ym2612"
    },
    {
      "channel": 0,
      "note": 84,
      "start": 13.789,
      "duration": 0.0442,
      "velocity": 101,
      "chip": "ym2612"
    },
    {
      "channel": 1,
      "note": 69,
      "start": 13.7893,
      "duration": 0.2276,
      "velocity": 90,
      "chip": "ym2612"
    },
    {
      "channel": 2,
      "note": 81,
      "start": 13.7896,
      "duration": 0.4669,
      "velocity": 106,
      "chip": "ym2612"
    },
    {
      "channel": 4,
      "note": 84,
      "start": 13.79,
      "duration": 0.0439,
      "velocity": 101,
      "chip": "ym2612"
    },
    {
      "channel": 0,
      "note": 84,
      "start": 13.8335,
      "duration": 0.1832,
      "velocity": 101,
      "chip": "ym2612"
    },
    {
      "channel": 4,
      "note": 84,
      "start": 13.8342,
      "duration": 0.1833,
      "velocity": 101,
      "chip": "ym2612"
    },
    {
      "channel": 0,
      "note": 84,
      "start": 14.0168,
      "duration": 0.2274,
      "velocity": 101,
      "chip": "ym2612"
    },
    {
      "channel": 1,
      "note": 67,
      "start": 14.0171,
      "duration": 0.2275,
      "velocity": 90,
      "chip": "ym2612"
    },
    {
      "channel": 4,
      "note": 84,
      "start": 14.0177,
      "duration": 0.0438,
      "velocity": 101,
      "chip": "ym2612"
    },
    {
      "channel": 4,
      "note": 84,
      "start": 14.0617,
      "duration": 0.1951,
      "velocity": 101,
      "chip": "ym2612"
    },
    {
      "channel": 0,
      "note": 84,
      "start": 14.2446,
      "duration": 0.0113,
      "velocity": 101,
      "chip": "ym2612"
    },
    {
      "channel": 1,
      "note": 66,
      "start": 14.2448,
      "duration": 0.0114,
      "velocity": 90,
      "chip": "ym2612"
    },
    {
      "channel": 0,
      "note": 84,
      "start": 14.2561,
      "duration": 0.0275,
      "velocity": 101,
      "chip": "ym2612"
    },
    {
      "channel": 1,
      "note": 57,
      "start": 14.2563,
      "duration": 0.1342,
      "velocity": 90,
      "chip": "ym2612"
    },
    {
      "channel": 2,
      "note": 79,
      "start": 14.2566,
      "duration": 0.1471,
      "velocity": 106,
      "chip": "ym2612"
    },
    {
      "channel": 3,
      "note": 69,
      "start": 14.2568,
      "duration": 0.6155,
      "velocity": 106,
      "chip": "ym2612"
    },
    {
      "channel": 4,
      "note": 84,
      "start": 14.257,
      "duration": 0.0273,
      "velocity": 101,
      "chip": "ym2612"
    },
    {
      "channel": 0,
      "note": 84,
      "start": 14.2838,
      "duration": 0.1064,
      "velocity": 101,
      "chip": "ym2612"
    },
    {
      "channel": 4,
      "note": 84,
      "start": 14.2845,
      "duration": 0.1065,
      "velocity": 101,
      "chip": "ym2612"
    },
    {
      "channel": 0,
      "note": 84,
      "start": 14.3904,
      "duration": 0.0127,
      "velocity": 101,
      "chip": "ym2612"
    },
    {
      "channel": 1,
      "note": 57,
      "start": 14.3907,
      "duration": 0.0127,
      "velocity": 90,
      "chip": "ym2612"
    },
    {
      "channel": 4,
      "note": 84,
      "start": 14.3912,
      "duration": 0.0128,
      "velocity": 101,
      "chip": "ym2612"
    },
    {
      "channel": 0,
      "note": 84,
      "start": 14.4033,
      "duration": 0.0441,
      "velocity": 101,
      "chip": "ym2612"
    },
    {
      "channel": 1,
      "note": 67,
      "start": 14.4035,
      "duration": 0.2276,
      "velocity": 90,
      "chip": "ym2612"
    },
    {
      "channel": 2,
      "note": 79,
      "start": 14.4038,
      "duration": 0.4681,
      "velocity": 106,
      "chip": "ym2612"
    },
    {
      "channel": 4,
      "note": 84,
      "start": 14.4042,
      "duration": 0.044,
      "velocity": 101,
      "chip": "ym2612"
    },
    {
      "channel": 0,
      "note": 84,
      "start": 14.4476,
      "duration": 0.1832,
      "velocity": 101,
      "chip": "ym2612"
    },
    {
      "channel": 4,
      "note": 84,
      "start": 14.4483,
      "duration": 0.1833,
      "velocity": 101,
      "chip": "ym2612"
    },
    {
      "channel": 0,
      "note": 84,
      "start": 14.631,
      "duration": 0.2288,
      "velocity": 101,
      "chip": "ym2612"
    },
    {
      "channel": 1,
      "note": 66,
      "start": 14.6313,
      "duration": 0.2289,
      "velocity": 90,
      "chip": "ym2612"
    },
    {
      "channel": 4,
      "note": 84,
      "start": 14.6319,
      "duration": 0.0452,
      "velocity": 101,
      "chip": "ym2612"
    },
    {
      "channel": 4,
      "note": 84,
      "start": 14.6773,
      "duration": 0.195,
      "velocity": 101,
      "chip": "ym2612"
    },
    {
      "channel": 0,
      "note": 84,
      "start": 14.8601,
      "duration": 0.0113,
      "velocity": 101,
      "chip": "ym2612"
    },
    {
      "channel": 1,
      "note": 64,
      "start": 14.8604,
      "duration": 0.0113,
      "velocity": 90,
      "chip": "ym2612"
    },
    {
      "channel": 0,
      "note": 84,
      "start": 14.8717,
      "duration": 0.0446,
      "velocity": 101,
      "chip": "ym2612"
    },
    {
      "channel": 1,
      "note": 57,
      "start": 14.8719,
      "duration": 0.1357,
      "velocity": 90,
      "chip": "ym2612"
    },
    {
      "channel": 2,
      "note": 78,
      "start": 14.8721,
      "duration": 0.1479,
      "velocity": 106,
      "chip": "ym2612"
    },
    {
      "channel": 3,
      "note": 69,
      "start": 14.8723,
      "duration": 0.6177,
      "velocity": 106,
      "chip": "ym2612"
    },
    {
      "channel": 4,
      "note": 84,
      "start": 14.8725,
      "duration": 0.0445,
      "velocity": 101,
      "chip": "ym2612"
    },
    {
      "channel": 0,
      "note": 84,
      "start": 14.9164,
      "duration": 0.0908,
      "velocity": 101,
      "chip": "ym2612"
    },
    {
      "channel": 4,
      "note": 84,
      "start": 14.9171,
      "duration": 0.0909,
      "velocity": 101,
      "chip": "ym2612"
    },
    {
      "channel": 0,
      "note": 84,
      "start": 15.0075,
      "duration": 0.0119,
      "velocity": 101,
      "chip": "ym2612"
    },
    {
      "channel": 1,
      "note": 57,
      "start": 15.0077,
      "duration": 0.012,
      "velocity": 90,
      "chip": "ym2612"
    },
    {
      "channel": 4,
      "note": 84,
      "start": 15.0082,
      "duration": 0.0122,
      "velocity": 101,
      "chip": "ym2612"
    },
    {
      "channel": 0,
      "note": 84,
      "start": 15.0196,
      "duration": 0.0445,
      "velocity": 101,
      "chip": "ym2612"
    },
    {
      "channel": 1,
      "note": 66,
      "start": 15.0199,
      "duration": 0.2279,
      "velocity": 90,
      "chip": "ym2612"
    },
    {
      "channel": 2,
      "note": 78,
      "start": 15.0202,
      "duration": 0.4694,
      "velocity": 106,
      "chip": "ym2612"
    },
    {
      "channel": 4,
      "note": 84,
      "start": 15.0205,
      "duration": 0.0444,
      "velocity": 101,
      "chip": "ym2612"
    },
    {
      "channel": 0,
      "note": 84,
      "start": 15.0643,
      "duration": 0.1832,
      "velocity": 101,
      "chip": "ym2612"
    },
    {
      "channel": 4,
      "note": 84,
      "start": 15.065,
      "duration": 0.1833,
      "velocity": 101,
      "chip": "ym2612"
    },
    {
      "channel": 0,
      "note": 84,
      "start": 15.2477,
      "duration": 0.229,
      "velocity": 101,
      "chip": "ym2612"
    },
    {
      "channel": 1,
      "note": 64,
      "start": 15.248,
      "duration": 0.229,
      "velocity": 90,
      "chip": "ym2612"
    },
    {
      "channel": 4,
      "note": 84,
      "start": 15.2486,
      "duration": 0.0453,
      "velocity": 101,
      "chip": "ym2612"
    },
    {
      "channel": 4,
      "note": 84,
      "start": 15.2941,
      "duration": 0.1959,
      "velocity": 101,
      "chip": "ym2612"
    },
    {
      "channel": 0,
      "note": 84,
      "start": 15.477,
      "duration": 0.0121,
      "velocity": 101,
      "chip": "ym2612"
    },
    {
      "channel": 1,
      "note": 57,
      "start": 15.4772,
      "duration": 0.0121,
      "velocity": 90,
      "chip": "ym2612"
    },
    {
      "channel": 0,
      "note": 88,
      "start": 15.4893,
      "duration": 0.0126,
      "velocity": 101,
      "chip": "ym2612"
    },
    {
      "channel": 1,
      "note": 57,
      "start": 15.4895,
      "duration": 0.0563,
      "velocity": 90,
      "chip": "ym2612"
    },
    {
      "channel": 2,
      "note": 79,
      "start": 15.4898,
      "duration": 0.0688,
      "velocity": 106,
      "chip": "ym2612"
    },
    {
      "channel": 3,
      "note": 69,
      "start": 15.49,
      "duration": 0.2137,
      "velocity": 106,
      "chip": "ym2612"
    },
    {
      "channel": 4,
      "note": 84,
      "start": 15.4901,
      "duration": 0.0123,
      "velocity": 101,
      "chip": "ym2612"
    },
    {
      "channel": 0,
      "note": 88,
      "start": 15.5021,
      "duration": 0.0434,
      "velocity": 101,
      "chip": "ym2612"
    },
    {
      "channel": 4,
      "note": 88,
      "start": 15.5026,
      "duration": 0.0436,
      "velocity": 101,
      "chip": "ym2612"
    },
    {
      "channel": 0,
      "note": 88,
      "start": 15.5457,
      "duration": 0.0124,
      "velocity": 101,
      "chip": "ym2612"
    },
    {
      "channel": 1,
      "note": 57,
      "start": 15.546,
      "duration": 0.0124,
      "velocity": 90,
      "chip": "ym2612"
    },
    {
      "channel": 4,
      "note": 88,
      "start": 15.5464,
      "duration": 0.0126,
      "velocity": 101,
      "chip": "ym2612"
    },
    {
      "channel": 0,
      "note": 88,
      "start": 15.5583,
      "duration": 0.0296,
      "velocity": 101,
      "chip": "ym2612"
    },
    {
      "channel": 1,
      "note": 67,
      "start": 15.5585,
      "duration": 0.0419,
      "velocity": 90,
      "chip": "ym2612"
    },
    {
      "channel": 2,
      "note": 79,
      "start": 15.5588,
      "duration": 0.1446,
      "velocity": 106,
      "chip": "ym2612"
    },
    {
      "channel": 4,
      "note": 88,
      "start": 15.5592,
      "duration": 0.0295,
      "velocity": 101,
      "chip": "ym2612"
    },
    {
      "channel": 0,
      "note": 88,
      "start": 15.5882,
      "duration": 0.0119,
      "velocity": 101,
      "chip": "ym2612"
    },
    {
      "channel": 4,
      "note": 88,
      "start": 15.5888,
      "duration": 0.0122,
      "velocity": 101,
      "chip": "ym2612"
    },
    {
      "channel": 0,
      "note": 88,
      "start": 15.6003,
      "duration": 0.0446,
      "velocity": 101,
      "chip": "ym2612"
    },
    {
      "channel": 1,
      "note": 66,
      "start": 15.6005,
      "duration": 0.0571,
      "velocity": 90,
      "chip": "ym2612"
    },
    {
      "channel": 4,
      "note": 88,
      "start": 15.6011,
      "duration": 0.0445,
      "velocity": 101,
      "chip": "ym2612"
    },
    {
      "channel": 0,
      "note": 88,
      "start": 15.6452,
      "duration": 0.0122,
      "velocity": 101,
      "chip": "ym2612"
    },
    {
      "channel": 4,
      "note": 88,
      "start": 15.6457,
      "duration": 0.0124,
      "velocity": 101,
      "chip": "ym2612"
    },
    {
      "channel": 0,
      "note": 88,
      "start": 15.6576,
      "duration": 0.0456,
      "velocity": 101,
      "chip": "ym2612"
    },
    {
      "channel": 1,
      "note": 64,
      "start": 15.6579,
      "duration": 0.0454,
      "velocity": 90,
      "chip": "ym2612"
    },
    {
      "channel": 4,
      "note": 88,
      "start": 15.6583,
      "duration": 0.0456,
      "velocity": 101,
      "chip": "ym2612"
    },
    {
      "channel": 0,
      "note": 88,
      "start": 15.7032,
      "duration": 0.5954,
      "velocity": 101,
      "chip": "ym2612"
    },
    {
      "channel": 2,
      "note": 69,
      "start": 15.7036,
      "duration": 0.045,
      "velocity": 106,
      "chip": "ym2612"
    },
    {
      "channel": 3,
      "note": 81,
      "start": 15.7038,
      "duration": 0.0451,
      "velocity": 106,
      "chip": "ym2612"
    },
    {
      "channel": 4,
      "note": 88,
      "start": 15.704,
      "duration": 0.0454,
      "velocity": 101,
      "chip": "ym2612"
    },
    {
      "channel": 2,
      "note": 72,
      "start": 15.7488,
      "duration": 0.1831,
      "velocity": 106,
      "chip": "ym2612"
    },
    {
      "channel": 3,
      "note": 84,
      "start": 15.7491,
      "duration": 0.1831,
      "velocity": 106,
      "chip": "ym2612"
    },
    {
      "channel": 4,
      "note": 88,
      "start": 15.7494,
      "duration": 0.7333,
      "velocity": 101,
      "chip": "ym2612"
    },
    {
      "channel": 2,
      "note": 74,
      "start": 15.9322,
      "duration": 0.1831,
      "velocity": 106,
      "chip": "ym2612"
    },
    {
      "channel": 3,
      "note": 86,
      "start": 15.9325,
      "duration": 0.1831,
      "velocity": 106,
      "chip": "ym2612"
    },
    {
      "channel": 2,
      "note": 75,
      "start": 16.1155,
      "duration": 0.1833,
      "velocity": 106,
      "chip": "ym2612"
    },
    {
      "channel": 3,
      "note": 87,
      "start": 16.1158,
      "duration": 0.1832,
      "velocity": 106,
      "chip": "ym2612"
    },
    {
      "channel": 0,
      "note": 88,
      "start": 16.2986,
      "duration": 1.4498,
      "velocity": 101,
      "chip": "ym2612"
    },
    {
      "channel": 2,
      "note": 74,
      "start": 16.2989,
      "duration": 0.183,
      "velocity": 106,
      "chip": "ym2612"
    },
    {
      "channel": 3,
      "note": 86,
      "start": 16.2993,
      "duration": 0.1829,
      "velocity": 106,
      "chip": "ym2612"
    },
    {
      "channel": 2,
      "note": 72,
      "start": 16.4822,
      "duration": 0.1665,
      "velocity": 106,
      "chip": "ym2612"
    },
    {
      "channel": 3,
      "note": 84,
      "start": 16.4825,
      "duration": 0.1664,
      "velocity": 106,
      "chip": "ym2612"
    },
    {
      "channel": 4,
      "note": 88,
      "start": 16.4827,
      "duration": 1.4498,
      "velocity": 101,
      "chip": "ym2612"
    },
    {
      "channel": 2,
      "note": 69,
      "start": 16.6488,
      "duration": 0.1831,
      "velocity": 106,
      "chip": "ym2612"
    },
    {
      "channel": 3,
      "note": 81,
      "start": 16.6491,
      "duration": 0.1831,
      "velocity": 106,
      "chip": "ym2612"
    },
    {
      "channel": 2,
      "note": 67,
      "start": 16.8322,
      "duration": 0.1833,
      "velocity": 106,
      "chip": "ym2612"
    },
    {
      "channel": 3,
      "note": 79,
      "start": 16.8325,
      "duration": 0.1833,
      "velocity": 106,
      "chip": "ym2612"
    },
    {
      "channel": 2,
      "note": 69,
      "start": 17.0157,
      "duration": 0.1829,
      "velocity": 106,
      "chip": "ym2612"
    },
    {
      "channel": 3,
      "note": 81,
      "start": 17.0159,
      "duration": 0.1829,
      "velocity": 106,
      "chip": "ym2612"
    },
    {
      "channel": 2,
      "note": 67,
      "start": 17.1988,
      "duration": 0.1831,
      "velocity": 106,
      "chip": "ym2612"
    },
    {
      "channel": 3,
      "note": 79,
      "start": 17.1991,
      "duration": 0.1831,
      "velocity": 106,
      "chip": "ym2612"
    },
    {
      "channel": 2,
      "note": 64,
      "start": 17.3822,
      "duration": 0.1831,
      "velocity": 106,
      "chip": "ym2612"
    },
    {
      "channel": 3,
      "note": 76,
      "start": 17.3825,
      "duration": 0.1831,
      "velocity": 106,
      "chip": "ym2612"
    },
    {
      "channel": 2,
      "note": 63,
      "start": 17.5655,
      "duration": 0.1832,
      "velocity": 106,
      "chip": "ym2612"
    },
    {
      "channel": 3,
      "note": 75,
      "start": 17.5658,
      "duration": 0.1832,
      "velocity": 106,
      "chip": "ym2612"
    },
    {
      "channel": 2,
      "note": 62,
      "start": 17.7489,
      "duration": 0.183,
      "velocity": 106,
      "chip": "ym2612"
    },
    {
      "channel": 3,
      "note": 74,
      "start": 17.7492,
      "duration": 0.183,
      "velocity": 106,
      "chip": "ym2612"
    },
    {
      "channel": 2,
      "note": 60,
      "start": 17.9321,
      "duration": 0.1832,
      "velocity": 106,
      "chip": "ym2612"
    },
    {
      "channel": 3,
      "note": 72,
      "start": 17.9324,
      "duration": 0.183,
      "velocity": 106,
      "chip": "ym2612"
    },
    {
      "channel": 2,
      "note": 57,
      "start": 18.1154,
      "duration": 0.0069,
      "velocity": 106,
      "chip": "ym2612"
    },
    {
      "channel": 3,
      "note": 69,
      "start": 18.1156,
      "duration": 0.0069,
      "velocity": 106,
      "chip": "ym2612"
    },
    {
      "channel": 2,
      "note": 55,
      "start": 18.1224,
      "duration": 0.0773,
      "velocity": 106,
      "chip": "ym2612"
    },
    {
      "channel": 3,
      "note": 67,
      "start": 18.1227,
      "duration": 0.0771,
      "velocity": 106,
      "chip": "ym2612"
    },
    {
      "channel": 1,
      "note": 57,
      "start": 18.1996,
      "duration": 0.1485,
      "velocity": 90,
      "chip": "ym2612"
    },
    {
      "channel": 1,
      "note": 57,
      "start": 18.3485,
      "duration": 0.0082,
      "velocity": 90,
      "chip": "ym2612"
    },
    {
      "channel": 1,
      "note": 60,
      "start": 18.3568,
      "duration": 0.0516,
      "velocity": 90,
      "chip": "ym2612"
    },
    {
      "channel": 1,
      "note": 57,
      "start": 18.4087,
      "duration": 0.2264,
      "velocity": 90,
      "chip": "ym2612"
    },
    {
      "channel": 1,
      "note": 60,
      "start": 18.6352,
      "duration": 0.0079,
      "velocity": 90,
      "chip": "ym2612"
    },
    {
      "channel": 1,
      "note": 57,
      "start": 18.6859,
      "duration": 0.1637,
      "velocity": 90,
      "chip": "ym2612"
    },
    {
      "channel": 1,
      "note": 64,
      "start": 18.8498,
      "duration": 0.0435,
      "velocity": 90,
      "chip": "ym2612"
    },
    {
      "channel": 1,
      "note": 63,
      "start": 18.8935,
      "duration": 0.0083,
      "velocity": 90,
      "chip": "ym2612"
    },
    {
      "channel": 1,
      "note": 62,
      "start": 18.9019,
      "duration": 0.0437,
      "velocity": 90,
      "chip": "ym2612"
    },
    {
      "channel": 1,
      "note": 69,
      "start": 18.9458,
      "duration": 0.1413,
      "velocity": 90,
      "chip": "ym2612"
    },
    {
      "channel": 1,
      "note": 68,
      "start": 19.0873,
      "duration": 0.0926,
      "velocity": 90,
      "chip": "ym2612"
    },
    {
      "channel": 1,
      "note": 65,
      "start": 19.1802,
      "duration": 0.0853,
      "velocity": 90,
      "chip": "ym2612"
    },
    {
      "channel": 1,
      "note": 64,
      "start": 19.2733,
      "duration": 0.1373,
      "velocity": 90,
      "chip": "ym2612"
    },
    {
      "channel": 1,
      "note": 62,
      "start": 19.4108,
      "duration": 0.0072,
      "velocity": 90,
      "chip": "ym2612"
    },
    {
      "channel": 1,
      "note": 60,
      "start": 19.4183,
      "duration": 0.0093,
      "velocity": 90,
      "chip": "ym2612"
    },
    {
      "channel": 1,
      "note": 64,
      "start": 19.4277,
      "duration": 0.0095,
      "velocity": 90,
      "chip": "ym2612"
    },
    {
      "channel": 1,
      "note": 57,
      "start": 19.4374,
      "duration": 0.0434,
      "velocity": 90,
      "chip": "ym2612"
    },
    {
      "channel": 1,
      "note": 69,
      "start": 19.4809,
      "duration": 0.0894,
      "velocity": 90,
      "chip": "ym2612"
    },
    {
      "channel": 2,
      "note": 93,
      "start": 19.4812,
      "duration": 0.2312,
      "velocity": 112,
      "chip": "ym2612"
    },
    {
      "channel": 1,
      "note": 57,
      "start": 19.5706,
      "duration": 0.0092,
      "velocity": 90,
      "chip": "ym2612"
    },
    {
      "channel": 1,
      "note": 60,
      "start": 19.58,
      "duration": 0.0428,
      "velocity": 90,
      "chip": "ym2612"
    },
    {
      "channel": 1,
      "note": 62,
      "start": 19.623,
      "duration": 0.0259,
      "velocity": 90,
      "chip": "ym2612"
    },
    {
      "channel": 1,
      "note": 63,
      "start": 19.649,
      "duration": 0.0097,
      "velocity": 90,
      "chip": "ym2612"
    },
    {
      "channel": 1,
      "note": 62,
      "start": 19.659,
      "duration": 0.0431,
      "velocity": 90,
      "chip": "ym2612"
    },
    {
      "channel": 1,
      "note": 64,
      "start": 19.7022,
      "duration": 0.01,
      "velocity": 90,
      "chip": "ym2612"
    },
    {
      "channel": 1,
      "note": 57,
      "start": 19.7123,
      "duration": 0.0433,
      "velocity": 90,
      "chip": "ym2612"
    },
    {
      "channel": 1,
      "note": 69,
      "start": 19.7558,
      "duration": 0.0894,
      "velocity": 90,
      "chip": "ym2612"
    },
    {
      "channel": 2,
      "note": 93,
      "start": 19.7561,
      "duration": 0.2484,
      "velocity": 112,
      "chip": "ym2612"
    },
    {
      "channel": 1,
      "note": 57,
      "start": 19.8455,
      "duration": 0.0098,
      "velocity": 90,
      "chip": "ym2612"
    },
    {
      "channel": 1,
      "note": 60,
      "start": 19.8555,
      "duration": 0.0432,
      "velocity": 90,
      "chip": "ym2612"
    },
    {
      "channel": 1,
      "note": 62,
      "start": 19.8988,
      "duration": 0.0426,
      "velocity": 90,
      "chip": "ym2612"
    },
    {
      "channel": 1,
      "note": 63,
      "start": 19.9416,
      "duration": 0.0095,
      "velocity": 90,
      "chip": "ym2612"
    },
    {
      "channel": 1,
      "note": 62,
      "start": 19.9513,
      "duration": 0.0435,
      "velocity": 90,
      "chip": "ym2612"
    },
    {
      "channel": 1,
      "note": 64,
      "start": 19.9949,
      "duration": 0.0095,
      "velocity": 90,
      "chip": "ym2612"
    },
    {
      "channel": 1,
      "note": 57,
      "start": 20.0045,
      "duration": 0.0432,
      "velocity": 90,
      "chip": "ym2612"
    },
    {
      "channel": 1,
      "note": 69,
      "start": 20.048,
      "duration": 0.1051,
      "velocity": 90,
      "chip": "ym2612"
    },
    {
      "channel": 2,
      "note": 93,
      "start": 20.0483,
      "duration": 0.2841,
      "velocity": 112,
      "chip": "ym2612"
    },
    {
      "channel": 1,
      "note": 57,
      "start": 20.1534,
      "duration": 0.0102,
      "velocity": 90,
      "chip": "ym2612"
    },
    {
      "channel": 1,
      "note": 60,
      "start": 20.1638,
      "duration": 0.0428,
      "velocity": 90,
      "chip": "ym2612"
    },
    {
      "channel": 1,
      "note": 62,
      "start": 20.2068,
      "duration": 0.0437,
      "velocity": 90,
      "chip": "ym2612"
    },
    {
      "channel": 1,
      "note": 63,
      "start": 20.2507,
      "duration": 0.0101,
      "velocity": 90,
      "chip": "ym2612"
    },
    {
      "channel": 1,
      "note": 62,
      "start": 20.261,
      "duration": 0.0272,
      "velocity": 90,
      "chip": "ym2612"
    },
    {
      "channel": 1,
      "note": 64,
      "start": 20.2883,
      "duration": 0.0439,
      "velocity": 90,
      "chip": "ym2612"
    },
    {
      "channel": 1,
      "note": 57,
      "start": 20.3323,
      "duration": 0.0075,
      "velocity": 90,
      "chip": "ym2612"
    },
    {
      "channel": 1,
      "note": 69,
      "start": 20.3401,
      "duration": 0.0425,
      "velocity": 90,
      "chip": "ym2612"
    },
    {
      "channel": 2,
      "note": 93,
      "start": 20.3402,
      "duration": 0.2025,
      "velocity": 112,
      "chip": "ym2612"
    },
    {
      "channel": 1,
      "note": 57,
      "start": 20.3827,
      "duration": 0.0092,
      "velocity": 90,
      "chip": "ym2612"
    },
    {
      "channel": 1,
      "note": 60,
      "start": 20.3922,
      "duration": 0.0432,
      "velocity": 90,
      "chip": "ym2612"
    },
    {
      "channel": 1,
      "note": 62,
      "start": 20.4355,
      "duration": 0.0097,
      "velocity": 90,
      "chip": "ym2612"
    },
    {
      "channel": 1,
      "note": 63,
      "start": 20.4454,
      "duration": 0.0441,
      "velocity": 90,
      "chip": "ym2612"
    },
    {
      "channel": 1,
      "note": 62,
      "start": 20.4897,
      "duration": 0.0097,
      "velocity": 90,
      "chip": "ym2612"
    },
    {
      "channel": 1,
      "note": 64,
      "start": 20.4996,
      "duration": 0.0429,
      "velocity": 90,
      "chip": "ym2612"
    },
    {
      "channel": 1,
      "note": 57,
      "start": 20.5427,
      "duration": 0.0266,
      "velocity": 90,
      "chip": "ym2612"
    },
    {
      "channel": 3,
      "note": 69,
      "start": 20.543,
      "duration": 0.2955,
      "velocity": 106,
      "chip": "ym2612"
    },
    {
      "channel": 1,
      "note": 69,
      "start": 20.5695,
      "duration": 0.1062,
      "velocity": 90,
      "chip": "ym2612"
    },
    {
      "channel": 2,
      "note": 93,
      "start": 20.5698,
      "duration": 0.2686,
      "velocity": 112,
      "chip": "ym2612"
    },
    {
      "channel": 1,
      "note": 57,
      "start": 20.6759,
      "duration": 0.0094,
      "velocity": 90,
      "chip": "ym2612"
    },
    {
      "channel": 1,
      "note": 60,
      "start": 20.6856,
      "duration": 0.0436,
      "velocity": 90,
      "chip": "ym2612"
    },
    {
      "channel": 1,
      "note": 62,
      "start": 20.7293,
      "duration": 0.0438,
      "velocity": 90,
      "chip": "ym2612"
    },
    {
      "channel": 1,
      "note": 63,
      "start": 20.7733,
      "duration": 0.0106,
      "velocity": 90,
      "chip": "ym2612"
    },
    {
      "channel": 1,
      "note": 62,
      "start": 20.7841,
      "duration": 0.0441,
      "velocity": 90,
      "chip": "ym2612"
    },
    {
      "channel": 1,
      "note": 64,
      "start": 20.8284,
      "duration": 0.0097,
      "velocity": 90,
      "chip": "ym2612"
    },
    {
      "channel": 1,
      "note": 57,
      "start": 20.8382,
      "duration": 0.0434,
      "velocity": 90,
      "chip": "ym2612"
    },
    {
      "channel": 3,
      "note": 69,
      "start": 20.8385,
      "duration": 0.2948,
      "velocity": 106,
      "chip": "ym2612"
    },
    {
      "channel": 1,
      "note": 69,
      "start": 20.8818,
      "duration": 0.0892,
      "velocity": 90,
      "chip": "ym2612"
    },
    {
      "channel": 2,
      "note": 93,
      "start": 20.8821,
      "duration": 0.251,
      "velocity": 112,
      "chip": "ym2612"
    },
    {
      "channel": 1,
      "note": 57,
      "start": 20.9712,
      "duration": 0.0091,
      "velocity": 90,
      "chip": "ym2612"
    },
    {
      "channel": 1,
      "note": 60,
      "start": 20.9805,
      "duration": 0.0447,
      "velocity": 90,
      "chip": "ym2612"
    },
    {
      "channel": 1,
      "note": 62,
      "start": 21.0254,
      "duration": 0.0439,
      "velocity": 90,
      "chip": "ym2612"
    },
    {
      "channel": 1,
      "note": 63,
      "start": 21.0695,
      "duration": 0.0093,
      "velocity": 90,
      "chip": "ym2612"
    },
    {
      "channel": 1,
      "note": 62,
      "start": 21.0791,
      "duration": 0.0443,
      "velocity": 90,
      "chip": "ym2612"
    },
    {
      "channel": 1,
      "note": 64,
      "start": 21.1236,
      "duration": 0.0093,
      "velocity": 90,
      "chip": "ym2612"
    },
    {
      "channel": 1,
      "note": 57,
      "start": 21.133,
      "duration": 0.0448,
      "velocity": 90,
      "chip": "ym2612"
    },
    {
      "channel": 3,
      "note": 69,
      "start": 21.1333,
      "duration": 0.3171,
      "velocity": 106,
      "chip": "ym2612"
    },
    {
      "channel": 1,
      "note": 69,
      "start": 21.178,
      "duration": 0.09,
      "velocity": 90,
      "chip": "ym2612"
    },
    {
      "channel": 2,
      "note": 93,
      "start": 21.1784,
      "duration": 0.2718,
      "velocity": 112,
      "chip": "ym2612"
    },
    {
      "channel": 1,
      "note": 57,
      "start": 21.2683,
      "duration": 0.0096,
      "velocity": 90,
      "chip": "ym2612"
    },
    {
      "channel": 1,
      "note": 60,
      "start": 21.2782,
      "duration": 0.0276,
      "velocity": 90,
      "chip": "ym2612"
    },
    {
      "channel": 1,
      "note": 62,
      "start": 21.3059,
      "duration": 0.0438,
      "velocity": 90,
      "chip": "ym2612"
    },
    {
      "channel": 1,
      "note": 63,
      "start": 21.3498,
      "duration": 0.0105,
      "velocity": 90,
      "chip": "ym2612"
    },
    {
      "channel": 1,
      "note": 62,
      "start": 21.3605,
      "duration": 0.0445,
      "velocity": 90,
      "chip": "ym2612"
    },
    {
      "channel": 1,
      "note": 64,
      "start": 21.4052,
      "duration": 0.0448,
      "velocity": 90,
      "chip": "ym2612"
    },
    {
      "channel": 1,
      "note": 57,
      "start": 21.4501,
      "duration": 0.0098,
      "velocity": 90,
      "chip": "ym2612"
    },
    {
      "channel": 3,
      "note": 69,
      "start": 21.4503,
      "duration": 0.2191,
      "velocity": 106,
      "chip": "ym2612"
    },
    {
      "channel": 1,
      "note": 69,
      "start": 21.4601,
      "duration": 0.0437,
      "velocity": 90,
      "chip": "ym2612"
    },
    {
      "channel": 2,
      "note": 93,
      "start": 21.4603,
      "duration": 0.2081,
      "velocity": 106,
      "chip": "ym2612"
    },
    {
      "channel": 1,
      "note": 57,
      "start": 21.504,
      "duration": 0.0095,
      "velocity": 90,
      "chip": "ym2612"
    },
    {
      "channel": 1,
      "note": 60,
      "start": 21.5138,
      "duration": 0.0442,
      "velocity": 90,
      "chip": "ym2612"
    },
    {
      "channel": 1,
      "note": 62,
      "start": 21.5582,
      "duration": 0.009,
      "velocity": 90,
      "chip": "ym2612"
    },
    {
      "channel": 1,
      "note": 63,
      "start": 21.5674,
      "duration": 0.0446,
      "velocity": 90,
      "chip": "ym2612"
    },
    {
      "channel": 1,
      "note": 62,
      "start": 21.6121,
      "duration": 0.0093,
      "velocity": 90,
      "chip": "ym2612"
    },
    {
      "channel": 1,
      "note": 64,
      "start": 21.6216,
      "duration": 0.0459,
      "velocity": 90,
      "chip": "ym2612"
    },
    {
      "channel": 0,
      "note": 84,
      "start": 21.6667,
      "duration": 0.1349,
      "velocity": 109,
      "chip": "ym2612"
    },
    {
      "channel": 1,
      "note": 57,
      "start": 21.6676,
      "duration": 0.1267,
      "velocity": 90,
      "chip": "ym2612"
    },
    {
      "channel": 2,
      "note": 57,
      "start": 21.6686,
      "duration": 0.126,
      "velocity": 106,
      "chip": "ym2612"
    },
    {
      "channel": 4,
      "note": 84,
      "start": 21.7123,
      "duration": 0.1033,
      "velocity": 109,
      "chip": "ym2612"
    },
    {
      "channel": 1,
      "note": 57,
      "start": 21.7944,
      "duration": 0.0074,
      "velocity": 90,
      "chip": "ym2612"
    },
    {
      "channel": 2,
      "note": 57,
      "start": 21.7948,
      "duration": 0.0073,
      "velocity": 106,
      "chip": "ym2612"
    },
    {
      "channel": 3,
      "note": 69,
      "start": 21.7949,
      "duration": 0.0074,
      "velocity": 106,
      "chip": "ym2612"
    },
    {
      "channel": 0,
      "note": 84,
      "start": 21.8018,
      "duration": 0.0127,
      "velocity": 109,
      "chip": "ym2612"
    },
    {
      "channel": 1,
      "note": 64,
      "start": 21.8021,
      "duration": 0.0128,
      "velocity": 90,
      "chip": "ym2612"
    },
    {
      "channel": 2,
      "note": 64,
      "start": 21.8023,
      "duration": 0.0128,
      "velocity": 106,
      "chip": "ym2612"
    },
    {
      "channel": 3,
      "note": 76,
      "start": 21.8025,
      "duration": 0.0129,
      "velocity": 106,
      "chip": "ym2612"
    },
    {
      "channel": 0,
      "note": 84,
      "start": 21.8148,
      "duration": 0.2277,
      "velocity": 109,
      "chip": "ym2612"
    },
    {
      "channel": 1,
      "note": 57,
      "start": 21.815,
      "duration": 0.2278,
      "velocity": 90,
      "chip": "ym2612"
    },
    {
      "channel": 2,
      "note": 57,
      "start": 21.8152,
      "duration": 0.2278,
      "velocity": 106,
      "chip": "ym2612"
    },
    {
      "channel": 3,
      "note": 69,
      "start": 21.8155,
      "duration": 0.2278,
      "velocity": 106,
      "chip": "ym2612"
    },
    {
      "channel": 4,
      "note": 84,
      "start": 21.8158,
      "duration": 0.0439,
      "velocity": 109,
      "chip": "ym2612"
    },
    {
      "channel": 4,
      "note": 84,
      "start": 21.8599,
      "duration": 0.2118,
      "velocity": 109,
      "chip": "ym2612"
    },
    {
      "channel": 0,
      "note": 84,
      "start": 22.0427,
      "duration": 35.8729,
      "velocity": 109,
      "chip": "ym2612"
    },
    {
      "channel": 1,
      "note": 67,
      "start": 22.043,
      "duration": 35.8726,
      "velocity": 90,
      "chip": "ym2612"
    },
    {
      "channel": 2,
      "note": 67,
      "start": 22.0432,
      "duration": 35.8724,
      "velocity": 106,
      "chip": "ym2612"
    },
    {
      "channel": 3,
      "note": 79,
      "start": 22.0434,
      "duration": 35.8722,
      "velocity": 106,
      "chip": "ym2612"
    },
    {
      "channel": 4,
      "note": 84,
      "start": 22.0719,
      "duration": 35.8437,
      "velocity": 109,
      "chip": "ym2612"
    }
  ]
}