{
  "track_name": "05 - Game End",
  "duration_sec": 50.515,
  "sample_rate": 44100,
  "note_count": 710,
  "unique_pitches": 24,
  "pitch_range": 79,
  "avg_note_duration": 0.0208,
  "reconstruction_stats": {
    "notes_reconstructed": 710,
    "keyon_events": 710,
    "keyoff_events": 710,
    "orphan_keyons": 0,
    "unique_pitches": 24,
    "pitch_range": 79,
    "avg_duration_sec": 0.0208
  },
  "metadata": {
    "source": "N\\NBA Live 95\\05 - Game End.vgz"
  },
  "notes": [
    {
      "channel": 0,
      "note": 52,
      "start": 0.0022,
      "duration": 0.0035,
      "velocity": 109,
      "chip": "ym2612"
    },
    {
      "channel": 4,
      "note": 116,
      "start": 0.004,
      "duration": 0.0009,
      "velocity": 127,
      "chip": "ym2612"
    },
    {
      "channel": 0,
      "note": 52,
      "start": 0.007,
      "duration": 0.0015,
      "velocity": 109,
      "chip": "ym2612"
    },
    {
      "channel": 4,
      "note": 116,
      "start": 0.0073,
      "duration": 0.0007,
      "velocity": 127,
      "chip": "ym2612"
    },
    {
      "channel": 4,
      "note": 116,
      "start": 0.0089,
      "duration": 0.0526,
      "velocity": 127,
      "chip": "ym2612"
    },
    {
      "channel": 0,
      "note": 52,
      "start": 0.0801,
      "duration": 0.0021,
      "velocity": 109,
      "chip": "ym2612"
    },
    {
      "channel": 4,
      "note": 116,
      "start": 0.0805,
      "duration": 0.0009,
      "velocity": 127,
      "chip": "ym2612"
    },
    {
      "channel": 0,
      "note": 52,
      "start": 0.0833,
      "duration": 0.0015,
      "velocity": 109,
      "chip": "ym2612"
    },
    {
      "channel": 4,
      "note": 116,
      "start": 0.0837,
      "duration": 0.0007,
      "velocity": 127,
      "chip": "ym2612"
    },
    {
      "channel": 4,
      "note": 116,
      "start": 0.0853,
      "duration": 0.0526,
      "velocity": 127,
      "chip": "ym2612"
    },
    {
      "channel": 0,
      "note": 52,
      "start": 0.1565,
      "duration": 0.0021,
      "velocity": 109,
      "chip": "ym2612"
    },
    {
      "channel": 4,
      "note": 116,
      "start": 0.1568,
      "duration": 0.0009,
      "velocity": 127,
      "chip": "ym2612"
    },
    {
      "channel": 0,
      "note": 52,
      "start": 0.1598,
      "duration": 0.0015,
      "velocity": 109,
      "chip": "ym2612"
    },
    {
      "channel": 4,
      "note": 116,
      "start": 0.1602,
      "duration": 0.0007,
      "velocity": 127,
      "chip": "ym2612"
    },
    {
      "channel": 4,
      "note": 116,
      "start": 0.1618,
      "duration": 0.0526,
      "velocity": 127,
      "chip": "ym2612"
    },
    {
      "channel": 0,
      "note": 61,
      "start": 0.2329,
      "duration": 0.0028,
      "velocity": 109,
      "chip": "ym2612"
    },
    {
      "channel": 4,
      "note": 116,
      "start": 0.2343,
      "duration": 0.0015,
      "velocity": 127,
      "chip": "ym2612"
    },
    {
      "channel": 0,
      "note": 49,
      "start": 0.2366,
      "duration": 0.0025,
      "velocity": 109,
      "chip": "ym2612"
    },
    {
      "channel": 4,
      "note": 116,
      "start": 0.237,
      "duration": 0.0007,
      "velocity": 127,
      "chip": "ym2612"
    },
    {
      "channel": 4,
      "note": 116,
      "start": 0.2383,
      "duration": 0.0009,
      "velocity": 127,
      "chip": "ym2612"
    },
    {
      "channel": 0,
      "note": 52,
      "start": 0.2401,
      "duration": 0.0156,
      "velocity": 109,
      "chip": "ym2612"
    },
    {
      "channel": 4,
      "note": 116,
      "start": 0.2419,
      "duration": 0.0007,
      "velocity": 109,
      "chip": "ym2612"
    },
    {
      "channel": 4,
      "note": 116,
      "start": 0.2446,
      "duration": 0.0112,
      "velocity": 127,
      "chip": "ym2612"
    },
    {
      "channel": 0,
      "note": 54,
      "start": 0.2898,
      "duration": 0.0188,
      "velocity": 109,
      "chip": "ym2612"
    },
    {
      "channel": 4,
      "note": 116,
      "start": 0.2902,
      "duration": 0.0007,
      "velocity": 127,
      "chip": "ym2612"
    },
    {
      "channel": 0,
      "note": 56,
      "start": 0.3093,
      "duration": 0.04,
      "velocity": 109,
      "chip": "ym2612"
    },
    {
      "channel": 4,
      "note": 116,
      "start": 0.3112,
      "duration": 0.0011,
      "velocity": 109,
      "chip": "ym2612"
    },
    {
      "channel": 4,
      "note": 116,
      "start": 0.3153,
      "duration": 0.0342,
      "velocity": 127,
      "chip": "ym2612"
    },
    {
      "channel": 0,
      "note": 54,
      "start": 0.3842,
      "duration": 0.0182,
      "velocity": 109,
      "chip": "ym2612"
    },
    {
      "channel": 4,
      "note": 116,
      "start": 0.388,
      "duration": 0.0145,
      "velocity": 127,
      "chip": "ym2612"
    },
    {
      "channel": 0,
      "note": 56,
      "start": 0.4199,
      "duration": 0.0312,
      "velocity": 109,
      "chip": "ym2612"
    },
    {
      "channel": 4,
      "note": 116,
      "start": 0.4216,
      "duration": 0.0007,
      "velocity": 109,
      "chip": "ym2612"
    },
    {
      "channel": 4,
      "note": 116,
      "start": 0.4244,
      "duration": 0.0267,
      "velocity": 127,
      "chip": "ym2612"
    },
    {
      "channel": 0,
      "note": 59,
      "start": 0.4686,
      "duration": 0.0009,
      "velocity": 109,
      "chip": "ym2612"
    },
    {
      "channel": 0,
      "note": 61,
      "start": 0.4703,
      "duration": 0.1029,
      "velocity": 109,
      "chip": "ym2612"
    },
    {
      "channel": 4,
      "note": 116,
      "start": 0.4707,
      "duration": 0.0336,
      "velocity": 127,
      "chip": "ym2612"
    },
    {
      "channel": 4,
      "note": 116,
      "start": 0.5225,
      "duration": 0.0507,
      "velocity": 127,
      "chip": "ym2612"
    },
    {
      "channel": 0,
      "note": 49,
      "start": 0.591,
      "duration": 0.0127,
      "velocity": 109,
      "chip": "ym2612"
    },
    {
      "channel": 4,
      "note": 116,
      "start": 0.5913,
      "duration": 0.0007,
      "velocity": 127,
      "chip": "ym2612"
    },
    {
      "channel": 4,
      "note": 116,
      "start": 0.5926,
      "duration": 0.0112,
      "velocity": 127,
      "chip": "ym2612"
    },
    {
      "channel": 0,
      "note": 52,
      "start": 0.6211,
      "duration": 0.0301,
      "velocity": 109,
      "chip": "ym2612"
    },
    {
      "channel": 4,
      "note": 116,
      "start": 0.6229,
      "duration": 0.0007,
      "velocity": 109,
      "chip": "ym2612"
    },
    {
      "channel": 4,
      "note": 116,
      "start": 0.6257,
      "duration": 0.0256,
      "velocity": 127,
      "chip": "ym2612"
    },
    {
      "channel": 0,
      "note": 54,
      "start": 0.6688,
      "duration": 0.0359,
      "velocity": 109,
      "chip": "ym2612"
    },
    {
      "channel": 4,
      "note": 116,
      "start": 0.6692,
      "duration": 0.0013,
      "velocity": 127,
      "chip": "ym2612"
    },
    {
      "channel": 0,
      "note": 56,
      "start": 0.7055,
      "duration": 0.0058,
      "velocity": 109,
      "chip": "ym2612"
    },
    {
      "channel": 4,
      "note": 116,
      "start": 0.7073,
      "duration": 0.0012,
      "velocity": 109,
      "chip": "ym2612"
    },
    {
      "channel": 4,
      "note": 116,
      "start": 0.7106,
      "duration": 0.0009,
      "velocity": 127,
      "chip": "ym2612"
    },
    {
      "channel": 0,
      "note": 54,
      "start": 0.7126,
      "duration": 0.0037,
      "velocity": 109,
      "chip": "ym2612"
    },
    {
      "channel": 4,
      "note": 116,
      "start": 0.7144,
      "duration": 0.002,
      "velocity": 127,
      "chip": "ym2612"
    },
    {
      "channel": 0,
      "note": 56,
      "start": 0.734,
      "duration": 0.0059,
      "velocity": 109,
      "chip": "ym2612"
    },
    {
      "channel": 4,
      "note": 116,
      "start": 0.7358,
      "duration": 0.0009,
      "velocity": 109,
      "chip": "ym2612"
    },
    {
      "channel": 4,
      "note": 116,
      "start": 0.7388,
      "duration": 0.0012,
      "velocity": 127,
      "chip": "ym2612"
    },
    {
      "channel": 0,
      "note": 59,
      "start": 0.7407,
      "duration": 0.0015,
      "velocity": 109,
      "chip": "ym2612"
    },
    {
      "channel": 0,
      "note": 61,
      "start": 0.7429,
      "duration": 0.0933,
      "velocity": 109,
      "chip": "ym2612"
    },
    {
      "channel": 4,
      "note": 116,
      "start": 0.7433,
      "duration": 0.0348,
      "velocity": 127,
      "chip": "ym2612"
    },
    {
      "channel": 4,
      "note": 116,
      "start": 0.7975,
      "duration": 0.0389,
      "velocity": 127,
      "chip": "ym2612"
    },
    {
      "channel": 0,
      "note": 49,
      "start": 0.8541,
      "duration": 0.0127,
      "velocity": 109,
      "chip": "ym2612"
    },
    {
      "channel": 4,
      "note": 116,
      "start": 0.8544,
      "duration": 0.0007,
      "velocity": 127,
      "chip": "ym2612"
    },
    {
      "channel": 4,
      "note": 116,
      "start": 0.8557,
      "duration": 0.0112,
      "velocity": 127,
      "chip": "ym2612"
    },
    {
      "channel": 0,
      "note": 52,
      "start": 0.9009,
      "duration": 0.014,
      "velocity": 109,
      "chip": "ym2612"
    },
    {
      "channel": 4,
      "note": 116,
      "start": 0.9027,
      "duration": 0.0007,
      "velocity": 109,
      "chip": "ym2612"
    },
    {
      "channel": 4,
      "note": 116,
      "start": 0.9055,
      "duration": 0.0095,
      "velocity": 127,
      "chip": "ym2612"
    },
    {
      "channel": 0,
      "note": 54,
      "start": 0.9325,
      "duration": 0.0215,
      "velocity": 109,
      "chip": "ym2612"
    },
    {
      "channel": 4,
      "note": 116,
      "start": 0.9328,
      "duration": 0.0023,
      "velocity": 127,
      "chip": "ym2612"
    },
    {
      "channel": 0,
      "note": 56,
      "start": 0.9547,
      "duration": 0.0077,
      "velocity": 109,
      "chip": "ym2612"
    },
    {
      "channel": 4,
      "note": 116,
      "start": 0.9566,
      "duration": 0.0011,
      "velocity": 109,
      "chip": "ym2612"
    },
    {
      "channel": 4,
      "note": 116,
      "start": 0.9598,
      "duration": 0.0027,
      "velocity": 127,
      "chip": "ym2612"
    },
    {
      "channel": 0,
      "note": 54,
      "start": 0.9803,
      "duration": 0.0325,
      "velocity": 109,
      "chip": "ym2612"
    },
    {
      "channel": 4,
      "note": 116,
      "start": 0.9822,
      "duration": 0.0308,
      "velocity": 127,
      "chip": "ym2612"
    },
    {
      "channel": 0,
      "note": 56,
      "start": 1.0305,
      "duration": 0.0144,
      "velocity": 109,
      "chip": "ym2612"
    },
    {
      "channel": 4,
      "note": 116,
      "start": 1.0323,
      "duration": 0.0007,
      "velocity": 109,
      "chip": "ym2612"
    },
    {
      "channel": 4,
      "note": 116,
      "start": 1.0351,
      "duration": 0.01,
      "velocity": 127,
      "chip": "ym2612"
    },
    {
      "channel": 0,
      "note": 59,
      "start": 1.0625,
      "duration": 0.0009,
      "velocity": 109,
      "chip": "ym2612"
    },
    {
      "channel": 0,
      "note": 61,
      "start": 1.0642,
      "duration": 0.1028,
      "velocity": 109,
      "chip": "ym2612"
    },
    {
      "channel": 4,
      "note": 116,
      "start": 1.0645,
      "duration": 0.0503,
      "velocity": 127,
      "chip": "ym2612"
    },
    {
      "channel": 4,
      "note": 116,
      "start": 1.1331,
      "duration": 0.034,
      "velocity": 127,
      "chip": "ym2612"
    },
    {
      "channel": 0,
      "note": 49,
      "start": 1.1848,
      "duration": 0.0292,
      "velocity": 109,
      "chip": "ym2612"
    },
    {
      "channel": 4,
      "note": 116,
      "start": 1.1852,
      "duration": 0.0007,
      "velocity": 127,
      "chip": "ym2612"
    },
    {
      "channel": 4,
      "note": 116,
      "start": 1.1865,
      "duration": 0.0277,
      "velocity": 127,
      "chip": "ym2612"
    },
    {
      "channel": 0,
      "note": 52,
      "start": 1.2317,
      "duration": 0.0134,
      "velocity": 109,
      "chip": "ym2612"
    },
    {
      "channel": 4,
      "note": 116,
      "start": 1.2334,
      "duration": 0.0007,
      "velocity": 109,
      "chip": "ym2612"
    },
    {
      "channel": 4,
      "note": 116,
      "start": 1.2363,
      "duration": 0.009,
      "velocity": 127,
      "chip": "ym2612"
    },
    {
      "channel": 0,
      "note": 54,
      "start": 1.2627,
      "duration": 0.0215,
      "velocity": 109,
      "chip": "ym2612"
    },
    {
      "channel": 4,
      "note": 116,
      "start": 1.2631,
      "duration": 0.0024,
      "velocity": 127,
      "chip": "ym2612"
    },
    {
      "channel": 0,
      "note": 56,
      "start": 1.2849,
      "duration": 0.0061,
      "velocity": 109,
      "chip": "ym2612"
    },
    {
      "channel": 4,
      "note": 116,
      "start": 1.2868,
      "duration": 0.0011,
      "velocity": 109,
      "chip": "ym2612"
    },
    {
      "channel": 4,
      "note": 116,
      "start": 1.29,
      "duration": 0.0012,
      "velocity": 127,
      "chip": "ym2612"
    },
    {
      "channel": 0,
      "note": 54,
      "start": 1.2924,
      "duration": 0.0048,
      "velocity": 109,
      "chip": "ym2612"
    },
    {
      "channel": 4,
      "note": 116,
      "start": 1.2927,
      "duration": 0.0013,
      "velocity": 127,
      "chip": "ym2612"
    },
    {
      "channel": 4,
      "note": 116,
      "start": 1.2955,
      "duration": 0.0018,
      "velocity": 127,
      "chip": "ym2612"
    },
    {
      "channel": 0,
      "note": 56,
      "start": 1.3147,
      "duration": 0.0049,
      "velocity": 109,
      "chip": "ym2612"
    },
    {
      "channel": 4,
      "note": 116,
      "start": 1.3167,
      "duration": 0.003,
      "velocity": 127,
      "chip": "ym2612"
    },
    {
      "channel": 0,
      "note": 59,
      "start": 1.337,
      "duration": 0.0042,
      "velocity": 109,
      "chip": "ym2612"
    },
    {
      "channel": 4,
      "note": 116,
      "start": 1.3373,
      "duration": 0.0009,
      "velocity": 127,
      "chip": "ym2612"
    },
    {
      "channel": 4,
      "note": 116,
      "start": 1.3398,
      "duration": 0.0015,
      "velocity": 127,
      "chip": "ym2612"
    },
    {
      "channel": 0,
      "note": 61,
      "start": 1.3591,
      "duration": 0.0027,
      "velocity": 109,
      "chip": "ym2612"
    },
    {
      "channel": 4,
      "note": 116,
      "start": 1.3604,
      "duration": 0.0016,
      "velocity": 127,
      "chip": "ym2612"
    },
    {
      "channel": 0,
      "note": 49,
      "start": 1.3627,
      "duration": 0.0025,
      "velocity": 109,
      "chip": "ym2612"
    },
    {
      "channel": 4,
      "note": 116,
      "start": 1.3631,
      "duration": 0.0006,
      "velocity": 127,
      "chip": "ym2612"
    },
    {
      "channel": 4,
      "note": 116,
      "start": 1.3645,
      "duration": 0.001,
      "velocity": 127,
      "chip": "ym2612"
    },
    {
      "channel": 0,
      "note": 52,
      "start": 1.3662,
      "duration": 0.0154,
      "velocity": 109,
      "chip": "ym2612"
    },
    {
      "channel": 4,
      "note": 116,
      "start": 1.368,
      "duration": 0.0007,
      "velocity": 109,
      "chip": "ym2612"
    },
    {
      "channel": 4,
      "note": 116,
      "start": 1.3707,
      "duration": 0.0111,
      "velocity": 127,
      "chip": "ym2612"
    },
    {
      "channel": 0,
      "note": 54,
      "start": 1.4158,
      "duration": 0.0188,
      "velocity": 109,
      "chip": "ym2612"
    },
    {
      "channel": 4,
      "note": 116,
      "start": 1.4162,
      "duration": 0.0007,
      "velocity": 127,
      "chip": "ym2612"
    },
    {
      "channel": 0,
      "note": 56,
      "start": 1.4353,
      "duration": 0.057,
      "velocity": 109,
      "chip": "ym2612"
    },
    {
      "channel": 4,
      "note": 116,
      "start": 1.4371,
      "duration": 0.0012,
      "velocity": 109,
      "chip": "ym2612"
    },
    {
      "channel": 4,
      "note": 116,
      "start": 1.4412,
      "duration": 0.0512,
      "velocity": 127,
      "chip": "ym2612"
    },
    {
      "channel": 0,
      "note": 54,
      "start": 1.5105,
      "duration": 0.0181,
      "velocity": 109,
      "chip": "ym2612"
    },
    {
      "channel": 4,
      "note": 116,
      "start": 1.5144,
      "duration": 0.0144,
      "velocity": 127,
      "chip": "ym2612"
    },
    {
      "channel": 0,
      "note": 56,
      "start": 1.5461,
      "duration": 0.0312,
      "velocity": 109,
      "chip": "ym2612"
    },
    {
      "channel": 4,
      "note": 116,
      "start": 1.548,
      "duration": 0.0007,
      "velocity": 109,
      "chip": "ym2612"
    },
    {
      "channel": 4,
      "note": 116,
      "start": 1.5507,
      "duration": 0.0267,
      "velocity": 127,
      "chip": "ym2612"
    },
    {
      "channel": 0,
      "note": 59,
      "start": 1.5949,
      "duration": 0.0009,
      "velocity": 109,
      "chip": "ym2612"
    },
    {
      "channel": 0,
      "note": 61,
      "start": 1.5965,
      "duration": 0.1028,
      "velocity": 109,
      "chip": "ym2612"
    },
    {
      "channel": 4,
      "note": 116,
      "start": 1.5969,
      "duration": 0.0336,
      "velocity": 127,
      "chip": "ym2612"
    },
    {
      "channel": 4,
      "note": 116,
      "start": 1.6487,
      "duration": 0.0507,
      "velocity": 127,
      "chip": "ym2612"
    },
    {
      "channel": 0,
      "note": 49,
      "start": 1.7171,
      "duration": 0.0127,
      "velocity": 109,
      "chip": "ym2612"
    },
    {
      "channel": 4,
      "note": 116,
      "start": 1.7175,
      "duration": 0.0007,
      "velocity": 127,
      "chip": "ym2612"
    },
    {
      "channel": 4,
      "note": 116,
      "start": 1.7189,
      "duration": 0.0111,
      "velocity": 127,
      "chip": "ym2612"
    },
    {
      "channel": 0,
      "note": 52,
      "start": 1.7474,
      "duration": 0.0301,
      "velocity": 109,
      "chip": "ym2612"
    },
    {
      "channel": 4,
      "note": 116,
      "start": 1.7492,
      "duration": 0.0007,
      "velocity": 109,
      "chip": "ym2612"
    },
    {
      "channel": 4,
      "note": 116,
      "start": 1.752,
      "duration": 0.0256,
      "velocity": 127,
      "chip": "ym2612"
    },
    {
      "channel": 0,
      "note": 54,
      "start": 1.7951,
      "duration": 0.036,
      "velocity": 109,
      "chip": "ym2612"
    },
    {
      "channel": 4,
      "note": 116,
      "start": 1.7955,
      "duration": 0.0013,
      "velocity": 127,
      "chip": "ym2612"
    },
    {
      "channel": 0,
      "note": 56,
      "start": 1.8318,
      "duration": 0.0059,
      "velocity": 109,
      "chip": "ym2612"
    },
    {
      "channel": 4,
      "note": 116,
      "start": 1.8337,
      "duration": 0.0013,
      "velocity": 109,
      "chip": "ym2612"
    },
    {
      "channel": 4,
      "note": 116,
      "start": 1.8371,
      "duration": 0.0009,
      "velocity": 127,
      "chip": "ym2612"
    },
    {
      "channel": 0,
      "note": 54,
      "start": 1.8391,
      "duration": 0.0037,
      "velocity": 109,
      "chip": "ym2612"
    },
    {
      "channel": 4,
      "note": 116,
      "start": 1.841,
      "duration": 0.002,
      "velocity": 127,
      "chip": "ym2612"
    },
    {
      "channel": 0,
      "note": 56,
      "start": 1.8605,
      "duration": 0.0059,
      "velocity": 109,
      "chip": "ym2612"
    },
    {
      "channel": 4,
      "note": 116,
      "start": 1.8623,
      "duration": 0.0009,
      "velocity": 109,
      "chip": "ym2612"
    },
    {
      "channel": 4,
      "note": 116,
      "start": 1.8653,
      "duration": 0.0012,
      "velocity": 127,
      "chip": "ym2612"
    },
    {
      "channel": 0,
      "note": 59,
      "start": 1.8672,
      "duration": 0.0015,
      "velocity": 109,
      "chip": "ym2612"
    },
    {
      "channel": 0,
      "note": 61,
      "start": 1.8694,
      "duration": 0.1029,
      "velocity": 109,
      "chip": "ym2612"
    },
    {
      "channel": 4,
      "note": 116,
      "start": 1.8698,
      "duration": 0.0336,
      "velocity": 127,
      "chip": "ym2612"
    },
    {
      "channel": 4,
      "note": 116,
      "start": 1.9383,
      "duration": 0.0341,
      "velocity": 127,
      "chip": "ym2612"
    },
    {
      "channel": 0,
      "note": 49,
      "start": 1.9901,
      "duration": 0.0127,
      "velocity": 109,
      "chip": "ym2612"
    },
    {
      "channel": 4,
      "note": 116,
      "start": 1.9905,
      "duration": 0.0007,
      "velocity": 127,
      "chip": "ym2612"
    },
    {
      "channel": 4,
      "note": 116,
      "start": 1.9918,
      "duration": 0.0112,
      "velocity": 127,
      "chip": "ym2612"
    },
    {
      "channel": 0,
      "note": 52,
      "start": 2.0369,
      "duration": 0.0135,
      "velocity": 109,
      "chip": "ym2612"
    },
    {
      "channel": 4,
      "note": 116,
      "start": 2.0388,
      "duration": 0.0007,
      "velocity": 109,
      "chip": "ym2612"
    },
    {
      "channel": 4,
      "note": 116,
      "start": 2.0415,
      "duration": 0.0091,
      "velocity": 127,
      "chip": "ym2612"
    },
    {
      "channel": 0,
      "note": 54,
      "start": 2.0681,
      "duration": 0.0215,
      "velocity": 109,
      "chip": "ym2612"
    },
    {
      "channel": 4,
      "note": 116,
      "start": 2.0684,
      "duration": 0.0023,
      "velocity": 127,
      "chip": "ym2612"
    },
    {
      "channel": 0,
      "note": 56,
      "start": 2.0903,
      "duration": 0.0076,
      "velocity": 109,
      "chip": "ym2612"
    },
    {
      "channel": 4,
      "note": 116,
      "start": 2.0921,
      "duration": 0.0012,
      "velocity": 109,
      "chip": "ym2612"
    },
    {
      "channel": 4,
      "note": 116,
      "start": 2.0954,
      "duration": 0.0027,
      "velocity": 127,
      "chip": "ym2612"
    },
    {
      "channel": 0,
      "note": 54,
      "start": 2.1159,
      "duration": 0.0325,
      "velocity": 109,
      "chip": "ym2612"
    },
    {
      "channel": 4,
      "note": 116,
      "start": 2.1177,
      "duration": 0.0307,
      "velocity": 127,
      "chip": "ym2612"
    },
    {
      "channel": 0,
      "note": 56,
      "start": 2.166,
      "duration": 0.0146,
      "velocity": 109,
      "chip": "ym2612"
    },
    {
      "channel": 4,
      "note": 116,
      "start": 2.1678,
      "duration": 0.0007,
      "velocity": 109,
      "chip": "ym2612"
    },
    {
      "channel": 4,
      "note": 116,
      "start": 2.1706,
      "duration": 0.0101,
      "velocity": 127,
      "chip": "ym2612"
    },
    {
      "channel": 0,
      "note": 59,
      "start": 2.1981,
      "duration": 0.0009,
      "velocity": 109,
      "chip": "ym2612"
    },
    {
      "channel": 0,
      "note": 61,
      "start": 2.1998,
      "duration": 0.1028,
      "velocity": 109,
      "chip": "ym2612"
    },
    {
      "channel": 4,
      "note": 116,
      "start": 2.2002,
      "duration": 0.0503,
      "velocity": 127,
      "chip": "ym2612"
    },
    {
      "channel": 4,
      "note": 116,
      "start": 2.2687,
      "duration": 0.0341,
      "velocity": 127,
      "chip": "ym2612"
    },
    {
      "channel": 0,
      "note": 49,
      "start": 2.3205,
      "duration": 0.0292,
      "velocity": 109,
      "chip": "ym2612"
    },
    {
      "channel": 4,
      "note": 116,
      "start": 2.3208,
      "duration": 0.0007,
      "velocity": 127,
      "chip": "ym2612"
    },
    {
      "channel": 4,
      "note": 116,
      "start": 2.3221,
      "duration": 0.0277,
      "velocity": 127,
      "chip": "ym2612"
    },
    {
      "channel": 0,
      "note": 52,
      "start": 2.3673,
      "duration": 0.0134,
      "velocity": 109,
      "chip": "ym2612"
    },
    {
      "channel": 4,
      "note": 116,
      "start": 2.3691,
      "duration": 0.0007,
      "velocity": 109,
      "chip": "ym2612"
    },
    {
      "channel": 4,
      "note": 116,
      "start": 2.3719,
      "duration": 0.009,
      "velocity": 127,
      "chip": "ym2612"
    },
    {
      "channel": 0,
      "note": 54,
      "start": 2.3984,
      "duration": 0.0215,
      "velocity": 109,
      "chip": "ym2612"
    },
    {
      "channel": 4,
      "note": 116,
      "start": 2.3987,
      "duration": 0.0023,
      "velocity": 127,
      "chip": "ym2612"
    },
    {
      "channel": 0,
      "note": 56,
      "start": 2.4205,
      "duration": 0.0062,
      "velocity": 109,
      "chip": "ym2612"
    },
    {
      "channel": 4,
      "note": 116,
      "start": 2.4224,
      "duration": 0.0012,
      "velocity": 109,
      "chip": "ym2612"
    },
    {
      "channel": 4,
      "note": 116,
      "start": 2.4257,
      "duration": 0.0011,
      "velocity": 127,
      "chip": "ym2612"
    },
    {
      "channel": 0,
      "note": 54,
      "start": 2.4279,
      "duration": 0.0041,
      "velocity": 109,
      "chip": "ym2612"
    },
    {
      "channel": 4,
      "note": 116,
      "start": 2.4283,
      "duration": 0.0012,
      "velocity": 127,
      "chip": "ym2612"
    },
    {
      "channel": 4,
      "note": 116,
      "start": 2.4304,
      "duration": 0.0019,
      "velocity": 127,
      "chip": "ym2612"
    },
    {
      "channel": 0,
      "note": 56,
      "start": 2.4495,
      "duration": 0.0035,
      "velocity": 109,
      "chip": "ym2612"
    },
    {
      "channel": 4,
      "note": 116,
      "start": 2.4513,
      "duration": 0.0018,
      "velocity": 127,
      "chip": "ym2612"
    },
    {
      "channel": 0,
      "note": 59,
      "start": 2.4874,
      "duration": 0.0035,
      "velocity": 109,
      "chip": "ym2612"
    },
    {
      "channel": 4,
      "note": 116,
      "start": 2.4878,
      "duration": 0.0009,
      "velocity": 127,
      "chip": "ym2612"
    },
    {
      "channel": 4,
      "note": 116,
      "start": 2.4899,
      "duration": 0.001,
      "velocity": 127,
      "chip": "ym2612"
    },
    {
      "channel": 0,
      "note": 49,
      "start": 2.4921,
      "duration": 0.0553,
      "velocity": 109,
      "chip": "ym2612"
    },
    {
      "channel": 4,
      "note": 47,
      "start": 2.4939,
      "duration": 0.0028,
      "velocity": 127,
      "chip": "ym2612"
    },
    {
      "channel": 4,
      "note": 116,
      "start": 2.4968,
      "duration": 0.0004,
      "velocity": 127,
      "chip": "ym2612"
    },
    {
      "channel": 0,
      "note": 47,
      "start": 2.6155,
      "duration": 0.0886,
      "velocity": 109,
      "chip": "ym2612"
    },
    {
      "channel": 4,
      "note": 47,
      "start": 2.6173,
      "duration": 0.139,
      "velocity": 127,
      "chip": "ym2612"
    },
    {
      "channel": 4,
      "note": 116,
      "start": 2.7562,
      "duration": 0.0812,
      "velocity": 127,
      "chip": "ym2612"
    },
    {
      "channel": 0,
      "note": 47,
      "start": 2.855,
      "duration": 0.0007,
      "velocity": 109,
      "chip": "ym2612"
    },
    {
      "channel": 0,
      "note": 59,
      "start": 2.8788,
      "duration": 0.0988,
      "velocity": 109,
      "chip": "ym2612"
    },
    {
      "channel": 1,
      "note": 61,
      "start": 2.8807,
      "duration": 0.0971,
      "velocity": 105,
      "chip": "ym2612"
    },
    {
      "channel": 4,
      "note": 47,
      "start": 2.8824,
      "duration": 0.1444,
      "velocity": 93,
      "chip": "ym2612"
    },
    {
      "channel": 0,
      "note": 60,
      "start": 2.9955,
      "duration": 0.0227,
      "velocity": 109,
      "chip": "ym2612"
    },
    {
      "channel": 1,
      "note": 49,
      "start": 2.9959,
      "duration": 0.0007,
      "velocity": 105,
      "chip": "ym2612"
    },
    {
      "channel": 1,
      "note": 37,
      "start": 3.0186,
      "duration": 0.0015,
      "velocity": 105,
      "chip": "ym2612"
    },
    {
      "channel": 0,
      "note": 61,
      "start": 3.02,
      "duration": 0.0075,
      "velocity": 109,
      "chip": "ym2612"
    },
    {
      "channel": 2,
      "note": 61,
      "start": 3.022,
      "duration": 0.0007,
      "velocity": 105,
      "chip": "ym2612"
    },
    {
      "channel": 1,
      "note": 49,
      "start": 3.0265,
      "duration": 0.0015,
      "velocity": 105,
      "chip": "ym2612"
    },
    {
      "channel": 4,
      "note": 47,
      "start": 3.0268,
      "duration": 0.0483,
      "velocity": 127,
      "chip": "ym2612"
    },
    {
      "channel": 1,
      "note": 37,
      "start": 3.0489,
      "duration": 0.0245,
      "velocity": 105,
      "chip": "ym2612"
    },
    {
      "channel": 0,
      "note": 49,
      "start": 3.0732,
      "duration": 0.127,
      "velocity": 109,
      "chip": "ym2612"
    },
    {
      "channel": 4,
      "note": 116,
      "start": 3.0752,
      "duration": 0.0007,
      "velocity": 127,
      "chip": "ym2612"
    },
    {
      "channel": 4,
      "note": 47,
      "start": 3.0847,
      "duration": 0.141,
      "velocity": 127,
      "chip": "ym2612"
    },
    {
      "channel": 0,
      "note": 47,
      "start": 3.2239,
      "duration": 0.1821,
      "velocity": 109,
      "chip": "ym2612"
    },
    {
      "channel": 4,
      "note": 116,
      "start": 3.2258,
      "duration": 0.097,
      "velocity": 127,
      "chip": "ym2612"
    },
    {
      "channel": 0,
      "note": 59,
      "start": 3.4408,
      "duration": 0.0055,
      "velocity": 109,
      "chip": "ym2612"
    },
    {
      "channel": 4,
      "note": 47,
      "start": 3.4425,
      "duration": 0.1394,
      "velocity": 127,
      "chip": "ym2612"
    },
    {
      "channel": 0,
      "note": 60,
      "start": 3.4632,
      "duration": 0.1169,
      "velocity": 109,
      "chip": "ym2612"
    },
    {
      "channel": 4,
      "note": 116,
      "start": 3.582,
      "duration": 0.0974,
      "velocity": 127,
      "chip": "ym2612"
    },
    {
      "channel": 0,
      "note": 61,
      "start": 3.697,
      "duration": 0.0558,
      "velocity": 109,
      "chip": "ym2612"
    },
    {
      "channel": 1,
      "note": 61,
      "start": 3.7037,
      "duration": 0.0657,
      "velocity": 105,
      "chip": "ym2612"
    },
    {
      "channel": 4,
      "note": 47,
      "start": 3.7055,
      "duration": 0.1409,
      "velocity": 127,
      "chip": "ym2612"
    },
    {
      "channel": 1,
      "note": 49,
      "start": 3.8203,
      "duration": 0.0007,
      "velocity": 105,
      "chip": "ym2612"
    },
    {
      "channel": 0,
      "note": 49,
      "start": 3.8442,
      "duration": 0.1166,
      "velocity": 109,
      "chip": "ym2612"
    },
    {
      "channel": 1,
      "note": 37,
      "start": 3.8446,
      "duration": 0.0813,
      "velocity": 105,
      "chip": "ym2612"
    },
    {
      "channel": 4,
      "note": 116,
      "start": 3.8464,
      "duration": 0.0962,
      "velocity": 127,
      "chip": "ym2612"
    },
    {
      "channel": 1,
      "note": 61,
      "start": 3.9601,
      "duration": 0.0009,
      "velocity": 105,
      "chip": "ym2612"
    },
    {
      "channel": 0,
      "note": 56,
      "start": 3.9842,
      "duration": 0.0034,
      "velocity": 109,
      "chip": "ym2612"
    },
    {
      "channel": 1,
      "note": 49,
      "start": 3.9846,
      "duration": 0.0025,
      "velocity": 105,
      "chip": "ym2612"
    },
    {
      "channel": 4,
      "note": 47,
      "start": 3.9865,
      "duration": 0.03,
      "velocity": 127,
      "chip": "ym2612"
    },
    {
      "channel": 0,
      "note": 55,
      "start": 3.9903,
      "duration": 0.0054,
      "velocity": 109,
      "chip": "ym2612"
    },
    {
      "channel": 1,
      "note": 37,
      "start": 3.9907,
      "duration": 0.0236,
      "velocity": 105,
      "chip": "ym2612"
    },
    {
      "channel": 0,
      "note": 54,
      "start": 4.0142,
      "duration": 0.1156,
      "velocity": 109,
      "chip": "ym2612"
    },
    {
      "channel": 2,
      "note": 61,
      "start": 4.0147,
      "duration": 0.0978,
      "velocity": 105,
      "chip": "ym2612"
    },
    {
      "channel": 4,
      "note": 116,
      "start": 4.0165,
      "duration": 0.0961,
      "velocity": 127,
      "chip": "ym2612"
    },
    {
      "channel": 1,
      "note": 49,
      "start": 4.1302,
      "duration": 0.0007,
      "velocity": 105,
      "chip": "ym2612"
    },
    {
      "channel": 0,
      "note": 49,
      "start": 4.1528,
      "duration": 0.0081,
      "velocity": 109,
      "chip": "ym2612"
    },
    {
      "channel": 4,
      "note": 47,
      "start": 4.1546,
      "duration": 0.0049,
      "velocity": 127,
      "chip": "ym2612"
    },
    {
      "channel": 4,
      "note": 116,
      "start": 4.1596,
      "duration": 0.0005,
      "velocity": 127,
      "chip": "ym2612"
    },
    {
      "channel": 0,
      "note": 47,
      "start": 4.2786,
      "duration": 0.1227,
      "velocity": 109,
      "chip": "ym2612"
    },
    {
      "channel": 4,
      "note": 47,
      "start": 4.2803,
      "duration": 0.1227,
      "velocity": 127,
      "chip": "ym2612"
    },
    {
      "channel": 4,
      "note": 116,
      "start": 4.4031,
      "duration": 0.0974,
      "velocity": 127,
      "chip": "ym2612"
    },
    {
      "channel": 0,
      "note": 47,
      "start": 4.5181,
      "duration": 0.0007,
      "velocity": 109,
      "chip": "ym2612"
    },
    {
      "channel": 0,
      "note": 59,
      "start": 4.5418,
      "duration": 0.0819,
      "velocity": 109,
      "chip": "ym2612"
    },
    {
      "channel": 1,
      "note": 61,
      "start": 4.5422,
      "duration": 0.0482,
      "velocity": 105,
      "chip": "ym2612"
    },
    {
      "channel": 4,
      "note": 47,
      "start": 4.544,
      "duration": 0.1469,
      "velocity": 93,
      "chip": "ym2612"
    },
    {
      "channel": 0,
      "note": 60,
      "start": 4.6585,
      "duration": 0.0061,
      "velocity": 109,
      "chip": "ym2612"
    },
    {
      "channel": 1,
      "note": 49,
      "start": 4.6589,
      "duration": 0.0007,
      "velocity": 105,
      "chip": "ym2612"
    },
    {
      "channel": 1,
      "note": 37,
      "start": 4.6651,
      "duration": 0.0015,
      "velocity": 105,
      "chip": "ym2612"
    },
    {
      "channel": 0,
      "note": 61,
      "start": 4.6664,
      "duration": 0.0237,
      "velocity": 109,
      "chip": "ym2612"
    },
    {
      "channel": 2,
      "note": 61,
      "start": 4.6669,
      "duration": 0.0052,
      "velocity": 105,
      "chip": "ym2612"
    },
    {
      "channel": 1,
      "note": 49,
      "start": 4.6906,
      "duration": 0.001,
      "velocity": 105,
      "chip": "ym2612"
    },
    {
      "channel": 4,
      "note": 47,
      "start": 4.6909,
      "duration": 0.0313,
      "velocity": 127,
      "chip": "ym2612"
    },
    {
      "channel": 1,
      "note": 37,
      "start": 4.7127,
      "duration": 0.0078,
      "velocity": 105,
      "chip": "ym2612"
    },
    {
      "channel": 0,
      "note": 49,
      "start": 4.7204,
      "duration": 0.0314,
      "velocity": 109,
      "chip": "ym2612"
    },
    {
      "channel": 4,
      "note": 116,
      "start": 4.7223,
      "duration": 0.0007,
      "velocity": 127,
      "chip": "ym2612"
    },
    {
      "channel": 4,
      "note": 47,
      "start": 4.7489,
      "duration": 0.0124,
      "velocity": 127,
      "chip": "ym2612"
    },
    {
      "channel": 0,
      "note": 47,
      "start": 4.7596,
      "duration": 0.0029,
      "velocity": 109,
      "chip": "ym2612"
    },
    {
      "channel": 4,
      "note": 116,
      "start": 4.7614,
      "duration": 0.0007,
      "velocity": 127,
      "chip": "ym2612"
    },
    {
      "channel": 0,
      "note": 59,
      "start": 4.8324,
      "duration": 0.0025,
      "velocity": 109,
      "chip": "ym2612"
    },
    {
      "channel": 4,
      "note": 47,
      "start": 4.8341,
      "duration": 0.044,
      "velocity": 127,
      "chip": "ym2612"
    },
    {
      "channel": 0,
      "note": 60,
      "start": 4.8366,
      "duration": 0.0397,
      "velocity": 109,
      "chip": "ym2612"
    },
    {
      "channel": 4,
      "note": 116,
      "start": 4.8782,
      "duration": 0.0974,
      "velocity": 127,
      "chip": "ym2612"
    },
    {
      "channel": 0,
      "note": 61,
      "start": 4.9932,
      "duration": 0.0558,
      "velocity": 109,
      "chip": "ym2612"
    },
    {
      "channel": 1,
      "note": 61,
      "start": 5.0166,
      "duration": 0.1175,
      "velocity": 105,
      "chip": "ym2612"
    },
    {
      "channel": 4,
      "note": 47,
      "start": 5.0183,
      "duration": 0.3546,
      "velocity": 93,
      "chip": "ym2612"
    },
    {
      "channel": 0,
      "note": 49,
      "start": 5.1339,
      "duration": 0.0017,
      "velocity": 109,
      "chip": "ym2612"
    },
    {
      "channel": 2,
      "note": 49,
      "start": 5.1345,
      "duration": 0.0007,
      "velocity": 105,
      "chip": "ym2612"
    },
    {
      "channel": 0,
      "note": 48,
      "start": 5.1568,
      "duration": 0.0011,
      "velocity": 109,
      "chip": "ym2612"
    },
    {
      "channel": 1,
      "note": 37,
      "start": 5.1572,
      "duration": 0.0008,
      "velocity": 105,
      "chip": "ym2612"
    },
    {
      "channel": 0,
      "note": 47,
      "start": 5.1589,
      "duration": 0.0246,
      "velocity": 109,
      "chip": "ym2612"
    },
    {
      "channel": 1,
      "note": 61,
      "start": 5.1593,
      "duration": 0.0075,
      "velocity": 105,
      "chip": "ym2612"
    },
    {
      "channel": 0,
      "note": 56,
      "start": 5.2014,
      "duration": 0.0011,
      "velocity": 109,
      "chip": "ym2612"
    },
    {
      "channel": 1,
      "note": 49,
      "start": 5.2018,
      "duration": 0.0008,
      "velocity": 105,
      "chip": "ym2612"
    },
    {
      "channel": 0,
      "note": 55,
      "start": 5.206,
      "duration": 0.0011,
      "velocity": 109,
      "chip": "ym2612"
    },
    {
      "channel": 1,
      "note": 37,
      "start": 5.2064,
      "duration": 0.0025,
      "velocity": 105,
      "chip": "ym2612"
    },
    {
      "channel": 0,
      "note": 54,
      "start": 5.2088,
      "duration": 0.041,
      "velocity": 109,
      "chip": "ym2612"
    },
    {
      "channel": 2,
      "note": 61,
      "start": 5.2094,
      "duration": 0.0409,
      "velocity": 105,
      "chip": "ym2612"
    },
    {
      "channel": 1,
      "note": 49,
      "start": 5.2502,
      "duration": 0.119,
      "velocity": 105,
      "chip": "ym2612"
    },
    {
      "channel": 0,
      "note": 49,
      "start": 5.3691,
      "duration": 0.0153,
      "velocity": 109,
      "chip": "ym2612"
    },
    {
      "channel": 2,
      "note": 73,
      "start": 5.371,
      "duration": 0.0031,
      "velocity": 92,
      "chip": "ym2612"
    },
    {
      "channel": 3,
      "note": 71,
      "start": 5.3729,
      "duration": 0.0014,
      "velocity": 92,
      "chip": "ym2612"
    },
    {
      "channel": 4,
      "note": 116,
      "start": 5.3764,
      "duration": 0.0014,
      "velocity": 127,
      "chip": "ym2612"
    },
    {
      "channel": 1,
      "note": 73,
      "start": 5.3812,
      "duration": 0.0014,
      "velocity": 92,
      "chip": "ym2612"
    },
    {
      "channel": 2,
      "note": 71,
      "start": 5.3816,
      "duration": 0.0011,
      "velocity": 92,
      "chip": "ym2612"
    },
    {
      "channel": 4,
      "note": 116,
      "start": 5.3819,
      "duration": 0.0013,
      "velocity": 127,
      "chip": "ym2612"
    },
    {
      "channel": 4,
      "note": 116,
      "start": 5.3839,
      "duration": 0.009,
      "velocity": 127,
      "chip": "ym2612"
    },
    {
      "channel": 0,
      "note": 47,
      "start": 5.4122,
      "duration": 0.0125,
      "velocity": 109,
      "chip": "ym2612"
    },
    {
      "channel": 1,
      "note": 73,
      "start": 5.4125,
      "duration": 0.0031,
      "velocity": 92,
      "chip": "ym2612"
    },
    {
      "channel": 2,
      "note": 71,
      "start": 5.4129,
      "duration": 0.0028,
      "velocity": 92,
      "chip": "ym2612"
    },
    {
      "channel": 4,
      "note": 116,
      "start": 5.4147,
      "duration": 0.0015,
      "velocity": 109,
      "chip": "ym2612"
    },
    {
      "channel": 4,
      "note": 116,
      "start": 5.4183,
      "duration": 0.0232,
      "velocity": 127,
      "chip": "ym2612"
    },
    {
      "channel": 1,
      "note": 73,
      "start": 5.4599,
      "duration": 0.002,
      "velocity": 92,
      "chip": "ym2612"
    },
    {
      "channel": 2,
      "note": 71,
      "start": 5.4602,
      "duration": 0.0017,
      "velocity": 92,
      "chip": "ym2612"
    },
    {
      "channel": 4,
      "note": 116,
      "start": 5.4606,
      "duration": 0.002,
      "velocity": 127,
      "chip": "ym2612"
    },
    {
      "channel": 0,
      "note": 47,
      "start": 5.4973,
      "duration": 0.0012,
      "velocity": 109,
      "chip": "ym2612"
    },
    {
      "channel": 0,
      "note": 59,
      "start": 5.4997,
      "duration": 0.0043,
      "velocity": 109,
      "chip": "ym2612"
    },
    {
      "channel": 1,
      "note": 73,
      "start": 5.5001,
      "duration": 0.0033,
      "velocity": 92,
      "chip": "ym2612"
    },
    {
      "channel": 2,
      "note": 71,
      "start": 5.5004,
      "duration": 0.0031,
      "velocity": 92,
      "chip": "ym2612"
    },
    {
      "channel": 4,
      "note": 116,
      "start": 5.5022,
      "duration": 0.002,
      "velocity": 109,
      "chip": "ym2612"
    },
    {
      "channel": 0,
      "note": 60,
      "start": 5.5049,
      "duration": 0.0691,
      "velocity": 109,
      "chip": "ym2612"
    },
    {
      "channel": 4,
      "note": 116,
      "start": 5.5067,
      "duration": 0.0484,
      "velocity": 127,
      "chip": "ym2612"
    },
    {
      "channel": 1,
      "note": 73,
      "start": 5.5744,
      "duration": 0.0015,
      "velocity": 92,
      "chip": "ym2612"
    },
    {
      "channel": 2,
      "note": 71,
      "start": 5.5748,
      "duration": 0.0013,
      "velocity": 92,
      "chip": "ym2612"
    },
    {
      "channel": 0,
      "note": 61,
      "start": 5.5769,
      "duration": 0.0333,
      "velocity": 109,
      "chip": "ym2612"
    },
    {
      "channel": 4,
      "note": 116,
      "start": 5.5773,
      "duration": 0.0119,
      "velocity": 127,
      "chip": "ym2612"
    },
    {
      "channel": 1,
      "note": 73,
      "start": 5.6073,
      "duration": 0.0034,
      "velocity": 92,
      "chip": "ym2612"
    },
    {
      "channel": 2,
      "note": 71,
      "start": 5.6077,
      "duration": 0.0031,
      "velocity": 92,
      "chip": "ym2612"
    },
    {
      "channel": 4,
      "note": 116,
      "start": 5.6095,
      "duration": 0.0018,
      "velocity": 109,
      "chip": "ym2612"
    },
    {
      "channel": 4,
      "note": 116,
      "start": 5.6135,
      "duration": 0.0231,
      "velocity": 127,
      "chip": "ym2612"
    },
    {
      "channel": 0,
      "note": 49,
      "start": 5.6554,
      "duration": 0.0582,
      "velocity": 109,
      "chip": "ym2612"
    },
    {
      "channel": 1,
      "note": 70,
      "start": 5.6557,
      "duration": 0.0017,
      "velocity": 92,
      "chip": "ym2612"
    },
    {
      "channel": 2,
      "note": 73,
      "start": 5.6561,
      "duration": 0.0015,
      "velocity": 92,
      "chip": "ym2612"
    },
    {
      "channel": 4,
      "note": 116,
      "start": 5.6582,
      "duration": 0.0337,
      "velocity": 127,
      "chip": "ym2612"
    },
    {
      "channel": 1,
      "note": 73,
      "start": 5.7103,
      "duration": 0.0021,
      "velocity": 92,
      "chip": "ym2612"
    },
    {
      "channel": 2,
      "note": 70,
      "start": 5.7107,
      "duration": 0.0018,
      "velocity": 92,
      "chip": "ym2612"
    },
    {
      "channel": 4,
      "note": 116,
      "start": 5.7132,
      "duration": 0.0385,
      "velocity": 127,
      "chip": "ym2612"
    },
    {
      "channel": 0,
      "note": 47,
      "start": 5.7707,
      "duration": 0.0036,
      "velocity": 109,
      "chip": "ym2612"
    },
    {
      "channel": 1,
      "note": 73,
      "start": 5.7711,
      "duration": 0.0015,
      "velocity": 92,
      "chip": "ym2612"
    },
    {
      "channel": 2,
      "note": 70,
      "start": 5.7714,
      "duration": 0.0013,
      "velocity": 92,
      "chip": "ym2612"
    },
    {
      "channel": 4,
      "note": 116,
      "start": 5.7718,
      "duration": 0.0014,
      "velocity": 127,
      "chip": "ym2612"
    },
    {
      "channel": 4,
      "note": 116,
      "start": 5.7739,
      "duration": 0.0083,
      "velocity": 127,
      "chip": "ym2612"
    },
    {
      "channel": 0,
      "note": 59,
      "start": 5.818,
      "duration": 0.0041,
      "velocity": 109,
      "chip": "ym2612"
    },
    {
      "channel": 1,
      "note": 73,
      "start": 5.8184,
      "duration": 0.0031,
      "velocity": 92,
      "chip": "ym2612"
    },
    {
      "channel": 2,
      "note": 70,
      "start": 5.8188,
      "duration": 0.0028,
      "velocity": 92,
      "chip": "ym2612"
    },
    {
      "channel": 4,
      "note": 116,
      "start": 5.8205,
      "duration": 0.0017,
      "velocity": 109,
      "chip": "ym2612"
    },
    {
      "channel": 0,
      "note": 60,
      "start": 5.823,
      "duration": 0.0213,
      "velocity": 109,
      "chip": "ym2612"
    },
    {
      "channel": 4,
      "note": 116,
      "start": 5.8248,
      "duration": 0.001,
      "velocity": 127,
      "chip": "ym2612"
    },
    {
      "channel": 1,
      "note": 73,
      "start": 5.8447,
      "duration": 0.0017,
      "velocity": 92,
      "chip": "ym2612"
    },
    {
      "channel": 2,
      "note": 70,
      "start": 5.8451,
      "duration": 0.0014,
      "velocity": 92,
      "chip": "ym2612"
    },
    {
      "channel": 4,
      "note": 116,
      "start": 5.8454,
      "duration": 0.0016,
      "velocity": 127,
      "chip": "ym2612"
    },
    {
      "channel": 0,
      "note": 61,
      "start": 5.8649,
      "duration": 0.0051,
      "velocity": 109,
      "chip": "ym2612"
    },
    {
      "channel": 1,
      "note": 73,
      "start": 5.8673,
      "duration": 0.0038,
      "velocity": 92,
      "chip": "ym2612"
    },
    {
      "channel": 2,
      "note": 70,
      "start": 5.8676,
      "duration": 0.0036,
      "velocity": 92,
      "chip": "ym2612"
    },
    {
      "channel": 4,
      "note": 116,
      "start": 5.8693,
      "duration": 0.0023,
      "velocity": 109,
      "chip": "ym2612"
    },
    {
      "channel": 4,
      "note": 116,
      "start": 5.8738,
      "duration": 0.0006,
      "velocity": 127,
      "chip": "ym2612"
    },
    {
      "channel": 0,
      "note": 49,
      "start": 5.8766,
      "duration": 0.0032,
      "velocity": 109,
      "chip": "ym2612"
    },
    {
      "channel": 1,
      "note": 70,
      "start": 5.877,
      "duration": 0.0012,
      "velocity": 92,
      "chip": "ym2612"
    },
    {
      "channel": 2,
      "note": 73,
      "start": 5.8773,
      "duration": 0.0011,
      "velocity": 92,
      "chip": "ym2612"
    },
    {
      "channel": 4,
      "note": 116,
      "start": 5.879,
      "duration": 0.0284,
      "velocity": 127,
      "chip": "ym2612"
    },
    {
      "channel": 0,
      "note": 56,
      "start": 5.9263,
      "duration": 0.0038,
      "velocity": 109,
      "chip": "ym2612"
    },
    {
      "channel": 1,
      "note": 73,
      "start": 5.9266,
      "duration": 0.0029,
      "velocity": 92,
      "chip": "ym2612"
    },
    {
      "channel": 2,
      "note": 70,
      "start": 5.927,
      "duration": 0.0027,
      "velocity": 92,
      "chip": "ym2612"
    },
    {
      "channel": 4,
      "note": 116,
      "start": 5.9288,
      "duration": 0.0015,
      "velocity": 109,
      "chip": "ym2612"
    },
    {
      "channel": 0,
      "note": 55,
      "start": 5.931,
      "duration": 0.0076,
      "velocity": 109,
      "chip": "ym2612"
    },
    {
      "channel": 4,
      "note": 116,
      "start": 5.9328,
      "duration": 0.0061,
      "velocity": 127,
      "chip": "ym2612"
    },
    {
      "channel": 0,
      "note": 54,
      "start": 5.9572,
      "duration": 0.0027,
      "velocity": 109,
      "chip": "ym2612"
    },
    {
      "channel": 1,
      "note": 70,
      "start": 5.9576,
      "duration": 0.0017,
      "velocity": 92,
      "chip": "ym2612"
    },
    {
      "channel": 2,
      "note": 73,
      "start": 5.958,
      "duration": 0.0015,
      "velocity": 92,
      "chip": "ym2612"
    },
    {
      "channel": 4,
      "note": 116,
      "start": 5.9603,
      "duration": 0.0503,
      "velocity": 127,
      "chip": "ym2612"
    },
    {
      "channel": 0,
      "note": 49,
      "start": 6.0306,
      "duration": 0.0112,
      "velocity": 109,
      "chip": "ym2612"
    },
    {
      "channel": 1,
      "note": 73,
      "start": 6.031,
      "duration": 0.0033,
      "velocity": 92,
      "chip": "ym2612"
    },
    {
      "channel": 2,
      "note": 71,
      "start": 6.0314,
      "duration": 0.0031,
      "velocity": 92,
      "chip": "ym2612"
    },
    {
      "channel": 4,
      "note": 116,
      "start": 6.0331,
      "duration": 0.0018,
      "velocity": 109,
      "chip": "ym2612"
    },
    {
      "channel": 4,
      "note": 116,
      "start": 6.0371,
      "duration": 0.0013,
      "velocity": 127,
      "chip": "ym2612"
    },
    {
      "channel": 1,
      "note": 73,
      "start": 6.0394,
      "duration": 0.0014,
      "velocity": 92,
      "chip": "ym2612"
    },
    {
      "channel": 2,
      "note": 71,
      "start": 6.0398,
      "duration": 0.0011,
      "velocity": 92,
      "chip": "ym2612"
    },
    {
      "channel": 4,
      "note": 116,
      "start": 6.0402,
      "duration": 0.0012,
      "velocity": 127,
      "chip": "ym2612"
    },
    {
      "channel": 4,
      "note": 116,
      "start": 6.0423,
      "duration": 0.0273,
      "velocity": 127,
      "chip": "ym2612"
    },
    {
      "channel": 0,
      "note": 47,
      "start": 6.0889,
      "duration": 0.0314,
      "velocity": 109,
      "chip": "ym2612"
    },
    {
      "channel": 1,
      "note": 73,
      "start": 6.0893,
      "duration": 0.0031,
      "velocity": 92,
      "chip": "ym2612"
    },
    {
      "channel": 2,
      "note": 71,
      "start": 6.0897,
      "duration": 0.0028,
      "velocity": 92,
      "chip": "ym2612"
    },
    {
      "channel": 4,
      "note": 116,
      "start": 6.0915,
      "duration": 0.0019,
      "velocity": 109,
      "chip": "ym2612"
    },
    {
      "channel": 4,
      "note": 116,
      "start": 6.0954,
      "duration": 0.0066,
      "velocity": 127,
      "chip": "ym2612"
    },
    {
      "channel": 1,
      "note": 73,
      "start": 6.1207,
      "duration": 0.002,
      "velocity": 92,
      "chip": "ym2612"
    },
    {
      "channel": 2,
      "note": 71,
      "start": 6.1211,
      "duration": 0.0018,
      "velocity": 92,
      "chip": "ym2612"
    },
    {
      "channel": 4,
      "note": 116,
      "start": 6.1215,
      "duration": 0.0019,
      "velocity": 127,
      "chip": "ym2612"
    },
    {
      "channel": 0,
      "note": 47,
      "start": 6.1414,
      "duration": 0.0012,
      "velocity": 109,
      "chip": "ym2612"
    },
    {
      "channel": 0,
      "note": 59,
      "start": 6.1438,
      "duration": 0.0061,
      "velocity": 109,
      "chip": "ym2612"
    },
    {
      "channel": 1,
      "note": 73,
      "start": 6.1441,
      "duration": 0.0052,
      "velocity": 92,
      "chip": "ym2612"
    },
    {
      "channel": 2,
      "note": 71,
      "start": 6.1445,
      "duration": 0.005,
      "velocity": 92,
      "chip": "ym2612"
    },
    {
      "channel": 4,
      "note": 116,
      "start": 6.1463,
      "duration": 0.0039,
      "velocity": 109,
      "chip": "ym2612"
    },
    {
      "channel": 0,
      "note": 60,
      "start": 6.1509,
      "duration": 0.0214,
      "velocity": 109,
      "chip": "ym2612"
    },
    {
      "channel": 4,
      "note": 116,
      "start": 6.1527,
      "duration": 0.0011,
      "velocity": 127,
      "chip": "ym2612"
    },
    {
      "channel": 1,
      "note": 73,
      "start": 6.1727,
      "duration": 0.0016,
      "velocity": 92,
      "chip": "ym2612"
    },
    {
      "channel": 2,
      "note": 71,
      "start": 6.173,
      "duration": 0.0014,
      "velocity": 92,
      "chip": "ym2612"
    },
    {
      "channel": 0,
      "note": 61,
      "start": 6.1751,
      "duration": 0.0468,
      "velocity": 109,
      "chip": "ym2612"
    },
    {
      "channel": 4,
      "note": 116,
      "start": 6.1755,
      "duration": 0.0279,
      "velocity": 127,
      "chip": "ym2612"
    },
    {
      "channel": 1,
      "note": 73,
      "start": 6.2223,
      "duration": 0.0029,
      "velocity": 92,
      "chip": "ym2612"
    },
    {
      "channel": 2,
      "note": 71,
      "start": 6.2227,
      "duration": 0.0026,
      "velocity": 92,
      "chip": "ym2612"
    },
    {
      "channel": 4,
      "note": 116,
      "start": 6.2245,
      "duration": 0.0013,
      "velocity": 109,
      "chip": "ym2612"
    },
    {
      "channel": 4,
      "note": 116,
      "start": 6.2284,
      "duration": 0.0065,
      "velocity": 127,
      "chip": "ym2612"
    },
    {
      "channel": 0,
      "note": 49,
      "start": 6.2536,
      "duration": 0.0596,
      "velocity": 109,
      "chip": "ym2612"
    },
    {
      "channel": 1,
      "note": 70,
      "start": 6.2539,
      "duration": 0.0017,
      "velocity": 92,
      "chip": "ym2612"
    },
    {
      "channel": 2,
      "note": 73,
      "start": 6.2543,
      "duration": 0.0015,
      "velocity": 92,
      "chip": "ym2612"
    },
    {
      "channel": 4,
      "note": 116,
      "start": 6.2564,
      "duration": 0.0365,
      "velocity": 127,
      "chip": "ym2612"
    },
    {
      "channel": 1,
      "note": 73,
      "start": 6.3113,
      "duration": 0.0013,
      "velocity": 92,
      "chip": "ym2612"
    },
    {
      "channel": 2,
      "note": 70,
      "start": 6.3117,
      "duration": 0.001,
      "velocity": 92,
      "chip": "ym2612"
    },
    {
      "channel": 4,
      "note": 116,
      "start": 6.3137,
      "duration": 0.0341,
      "velocity": 127,
      "chip": "ym2612"
    },
    {
      "channel": 0,
      "note": 47,
      "start": 6.3835,
      "duration": 0.0037,
      "velocity": 109,
      "chip": "ym2612"
    },
    {
      "channel": 1,
      "note": 73,
      "start": 6.3839,
      "duration": 0.0015,
      "velocity": 92,
      "chip": "ym2612"
    },
    {
      "channel": 2,
      "note": 70,
      "start": 6.3842,
      "duration": 0.0012,
      "velocity": 92,
      "chip": "ym2612"
    },
    {
      "channel": 4,
      "note": 116,
      "start": 6.3846,
      "duration": 0.0014,
      "velocity": 127,
      "chip": "ym2612"
    },
    {
      "channel": 4,
      "note": 116,
      "start": 6.3867,
      "duration": 0.0083,
      "velocity": 127,
      "chip": "ym2612"
    },
    {
      "channel": 0,
      "note": 59,
      "start": 6.4142,
      "duration": 0.0041,
      "velocity": 109,
      "chip": "ym2612"
    },
    {
      "channel": 1,
      "note": 73,
      "start": 6.4146,
      "duration": 0.0031,
      "velocity": 92,
      "chip": "ym2612"
    },
    {
      "channel": 2,
      "note": 70,
      "start": 6.415,
      "duration": 0.0028,
      "velocity": 92,
      "chip": "ym2612"
    },
    {
      "channel": 4,
      "note": 116,
      "start": 6.4167,
      "duration": 0.0017,
      "velocity": 109,
      "chip": "ym2612"
    },
    {
      "channel": 0,
      "note": 60,
      "start": 6.4192,
      "duration": 0.0427,
      "velocity": 109,
      "chip": "ym2612"
    },
    {
      "channel": 4,
      "note": 116,
      "start": 6.421,
      "duration": 0.006,
      "velocity": 127,
      "chip": "ym2612"
    },
    {
      "channel": 1,
      "note": 73,
      "start": 6.4623,
      "duration": 0.002,
      "velocity": 92,
      "chip": "ym2612"
    },
    {
      "channel": 2,
      "note": 70,
      "start": 6.4627,
      "duration": 0.0018,
      "velocity": 92,
      "chip": "ym2612"
    },
    {
      "channel": 4,
      "note": 116,
      "start": 6.463,
      "duration": 0.002,
      "velocity": 127,
      "chip": "ym2612"
    },
    {
      "channel": 0,
      "note": 61,
      "start": 6.483,
      "duration": 0.0063,
      "velocity": 109,
      "chip": "ym2612"
    },
    {
      "channel": 1,
      "note": 73,
      "start": 6.4865,
      "duration": 0.0057,
      "velocity": 92,
      "chip": "ym2612"
    },
    {
      "channel": 2,
      "note": 70,
      "start": 6.4869,
      "duration": 0.0055,
      "velocity": 92,
      "chip": "ym2612"
    },
    {
      "channel": 4,
      "note": 116,
      "start": 6.4887,
      "duration": 0.0042,
      "velocity": 109,
      "chip": "ym2612"
    },
    {
      "channel": 0,
      "note": 49,
      "start": 6.4937,
      "duration": 0.0029,
      "velocity": 109,
      "chip": "ym2612"
    },
    {
      "channel": 4,
      "note": 116,
      "start": 6.4955,
      "duration": 0.0012,
      "velocity": 127,
      "chip": "ym2612"
    },
    {
      "channel": 0,
      "note": 48,
      "start": 6.4979,
      "duration": 0.0034,
      "velocity": 109,
      "chip": "ym2612"
    },
    {
      "channel": 1,
      "note": 70,
      "start": 6.4983,
      "duration": 0.0016,
      "velocity": 92,
      "chip": "ym2612"
    },
    {
      "channel": 2,
      "note": 73,
      "start": 6.4987,
      "duration": 0.0014,
      "velocity": 92,
      "chip": "ym2612"
    },
    {
      "channel": 4,
      "note": 116,
      "start": 6.499,
      "duration": 0.0025,
      "velocity": 127,
      "chip": "ym2612"
    },
    {
      "channel": 0,
      "note": 47,
      "start": 6.5026,
      "duration": 0.0023,
      "velocity": 109,
      "chip": "ym2612"
    },
    {
      "channel": 0,
      "note": 56,
      "start": 6.5082,
      "duration": 0.0025,
      "velocity": 109,
      "chip": "ym2612"
    },
    {
      "channel": 1,
      "note": 73,
      "start": 6.5086,
      "duration": 0.0015,
      "velocity": 92,
      "chip": "ym2612"
    },
    {
      "channel": 2,
      "note": 70,
      "start": 6.509,
      "duration": 0.0013,
      "velocity": 92,
      "chip": "ym2612"
    },
    {
      "channel": 0,
      "note": 55,
      "start": 6.5119,
      "duration": 0.0016,
      "velocity": 109,
      "chip": "ym2612"
    },
    {
      "channel": 4,
      "note": 116,
      "start": 6.5122,
      "duration": 0.0014,
      "velocity": 127,
      "chip": "ym2612"
    },
    {
      "channel": 0,
      "note": 54,
      "start": 6.5163,
      "duration": 0.0047,
      "velocity": 109,
      "chip": "ym2612"
    },
    {
      "channel": 1,
      "note": 70,
      "start": 6.5167,
      "duration": 0.0016,
      "velocity": 92,
      "chip": "ym2612"
    },
    {
      "channel": 2,
      "note": 73,
      "start": 6.5171,
      "duration": 0.0013,
      "velocity": 92,
      "chip": "ym2612"
    },
    {
      "channel": 4,
      "note": 116,
      "start": 6.5174,
      "duration": 0.0015,
      "velocity": 127,
      "chip": "ym2612"
    },
    {
      "channel": 4,
      "note": 116,
      "start": 6.5213,
      "duration": 0.0007,
      "velocity": 127,
      "chip": "ym2612"
    },
    {
      "channel": 0,
      "note": 54,
      "start": 6.5235,
      "duration": 0.0118,
      "velocity": 109,
      "chip": "ym2612"
    },
    {
      "channel": 1,
      "note": 78,
      "start": 6.5239,
      "duration": 0.0031,
      "velocity": 92,
      "chip": "ym2612"
    },
    {
      "channel": 2,
      "note": 76,
      "start": 6.5243,
      "duration": 0.0029,
      "velocity": 92,
      "chip": "ym2612"
    },
    {
      "channel": 4,
      "note": 116,
      "start": 6.5278,
      "duration": 0.0034,
      "velocity": 127,
      "chip": "ym2612"
    },
    {
      "channel": 1,
      "note": 78,
      "start": 6.5323,
      "duration": 0.0013,
      "velocity": 92,
      "chip": "ym2612"
    },
    {
      "channel": 2,
      "note": 76,
      "start": 6.5326,
      "duration": 0.0011,
      "velocity": 92,
      "chip": "ym2612"
    },
    {
      "channel": 4,
      "note": 116,
      "start": 6.533,
      "duration": 0.0012,
      "velocity": 127,
      "chip": "ym2612"
    },
    {
      "channel": 4,
      "note": 116,
      "start": 6.5348,
      "duration": 0.0109,
      "velocity": 127,
      "chip": "ym2612"
    },
    {
      "channel": 0,
      "note": 52,
      "start": 6.5649,
      "duration": 0.0122,
      "velocity": 109,
      "chip": "ym2612"
    },
    {
      "channel": 1,
      "note": 78,
      "start": 6.5653,
      "duration": 0.0031,
      "velocity": 92,
      "chip": "ym2612"
    },
    {
      "channel": 2,
      "note": 76,
      "start": 6.5657,
      "duration": 0.0029,
      "velocity": 92,
      "chip": "ym2612"
    },
    {
      "channel": 4,
      "note": 116,
      "start": 6.5675,
      "duration": 0.0016,
      "velocity": 109,
      "chip": "ym2612"
    },
    {
      "channel": 4,
      "note": 116,
      "start": 6.5712,
      "duration": 0.0229,
      "velocity": 127,
      "chip": "ym2612"
    },
    {
      "channel": 1,
      "note": 78,
      "start": 6.6124,
      "duration": 0.002,
      "velocity": 92,
      "chip": "ym2612"
    },
    {
      "channel": 2,
      "note": 76,
      "start": 6.6127,
      "duration": 0.0018,
      "velocity": 92,
      "chip": "ym2612"
    },
    {
      "channel": 4,
      "note": 116,
      "start": 6.6131,
      "duration": 0.002,
      "velocity": 127,
      "chip": "ym2612"
    },
    {
      "channel": 0,
      "note": 52,
      "start": 6.6497,
      "duration": 0.0012,
      "velocity": 109,
      "chip": "ym2612"
    },
    {
      "channel": 0,
      "note": 64,
      "start": 6.6525,
      "duration": 0.0043,
      "velocity": 109,
      "chip": "ym2612"
    },
    {
      "channel": 1,
      "note": 78,
      "start": 6.6528,
      "duration": 0.0033,
      "velocity": 92,
      "chip": "ym2612"
    },
    {
      "channel": 2,
      "note": 76,
      "start": 6.6532,
      "duration": 0.0031,
      "velocity": 92,
      "chip": "ym2612"
    },
    {
      "channel": 4,
      "note": 116,
      "start": 6.6549,
      "duration": 0.002,
      "velocity": 109,
      "chip": "ym2612"
    },
    {
      "channel": 0,
      "note": 65,
      "start": 6.6577,
      "duration": 0.0691,
      "velocity": 109,
      "chip": "ym2612"
    },
    {
      "channel": 4,
      "note": 116,
      "start": 6.6595,
      "duration": 0.0484,
      "velocity": 127,
      "chip": "ym2612"
    },
    {
      "channel": 1,
      "note": 78,
      "start": 6.7272,
      "duration": 0.0015,
      "velocity": 92,
      "chip": "ym2612"
    },
    {
      "channel": 2,
      "note": 76,
      "start": 6.7275,
      "duration": 0.0014,
      "velocity": 92,
      "chip": "ym2612"
    },
    {
      "channel": 0,
      "note": 66,
      "start": 6.7296,
      "duration": 0.0331,
      "velocity": 109,
      "chip": "ym2612"
    },
    {
      "channel": 4,
      "note": 116,
      "start": 6.73,
      "duration": 0.0117,
      "velocity": 127,
      "chip": "ym2612"
    },
    {
      "channel": 1,
      "note": 78,
      "start": 6.7599,
      "duration": 0.0033,
      "velocity": 92,
      "chip": "ym2612"
    },
    {
      "channel": 2,
      "note": 76,
      "start": 6.7602,
      "duration": 0.0031,
      "velocity": 92,
      "chip": "ym2612"
    },
    {
      "channel": 4,
      "note": 116,
      "start": 6.762,
      "duration": 0.0018,
      "velocity": 109,
      "chip": "ym2612"
    },
    {
      "channel": 4,
      "note": 116,
      "start": 6.7659,
      "duration": 0.0231,
      "velocity": 127,
      "chip": "ym2612"
    },
    {
      "channel": 0,
      "note": 54,
      "start": 6.8078,
      "duration": 0.0749,
      "velocity": 109,
      "chip": "ym2612"
    },
    {
      "channel": 1,
      "note": 75,
      "start": 6.8082,
      "duration": 0.0017,
      "velocity": 92,
      "chip": "ym2612"
    },
    {
      "channel": 2,
      "note": 78,
      "start": 6.8085,
      "duration": 0.0015,
      "velocity": 92,
      "chip": "ym2612"
    },
    {
      "channel": 4,
      "note": 116,
      "start": 6.8107,
      "duration": 0.0337,
      "velocity": 127,
      "chip": "ym2612"
    },
    {
      "channel": 1,
      "note": 78,
      "start": 6.8795,
      "duration": 0.002,
      "velocity": 92,
      "chip": "ym2612"
    },
    {
      "channel": 2,
      "note": 75,
      "start": 6.8799,
      "duration": 0.0017,
      "velocity": 92,
      "chip": "ym2612"
    },
    {
      "channel": 4,
      "note": 116,
      "start": 6.8823,
      "duration": 0.0341,
      "velocity": 127,
      "chip": "ym2612"
    },
    {
      "channel": 0,
      "note": 52,
      "start": 6.9355,
      "duration": 0.0035,
      "velocity": 109,
      "chip": "ym2612"
    },
    {
      "channel": 1,
      "note": 78,
      "start": 6.9358,
      "duration": 0.0014,
      "velocity": 92,
      "chip": "ym2612"
    },
    {
      "channel": 2,
      "note": 75,
      "start": 6.9362,
      "duration": 0.0012,
      "velocity": 92,
      "chip": "ym2612"
    },
    {
      "channel": 4,
      "note": 116,
      "start": 6.9366,
      "duration": 0.0013,
      "velocity": 127,
      "chip": "ym2612"
    },
    {
      "channel": 4,
      "note": 116,
      "start": 6.9385,
      "duration": 0.0083,
      "velocity": 127,
      "chip": "ym2612"
    },
    {
      "channel": 0,
      "note": 64,
      "start": 6.9826,
      "duration": 0.0041,
      "velocity": 109,
      "chip": "ym2612"
    },
    {
      "channel": 1,
      "note": 78,
      "start": 6.983,
      "duration": 0.0031,
      "velocity": 92,
      "chip": "ym2612"
    },
    {
      "channel": 2,
      "note": 75,
      "start": 6.9834,
      "duration": 0.0028,
      "velocity": 92,
      "chip": "ym2612"
    },
    {
      "channel": 4,
      "note": 116,
      "start": 6.9852,
      "duration": 0.0016,
      "velocity": 109,
      "chip": "ym2612"
    },
    {
      "channel": 0,
      "note": 65,
      "start": 6.9877,
      "duration": 0.0213,
      "velocity": 109,
      "chip": "ym2612"
    },
    {
      "channel": 4,
      "note": 116,
      "start": 6.9895,
      "duration": 0.0011,
      "velocity": 127,
      "chip": "ym2612"
    },
    {
      "channel": 1,
      "note": 78,
      "start": 7.0093,
      "duration": 0.0028,
      "velocity": 92,
      "chip": "ym2612"
    },
    {
      "channel": 2,
      "note": 75,
      "start": 7.0097,
      "duration": 0.0025,
      "velocity": 92,
      "chip": "ym2612"
    },
    {
      "channel": 4,
      "note": 116,
      "start": 7.01,
      "duration": 0.0027,
      "velocity": 127,
      "chip": "ym2612"
    },
    {
      "channel": 0,
      "note": 66,
      "start": 7.0306,
      "duration": 0.0047,
      "velocity": 109,
      "chip": "ym2612"
    },
    {
      "channel": 1,
      "note": 78,
      "start": 7.0325,
      "duration": 0.0056,
      "velocity": 92,
      "chip": "ym2612"
    },
    {
      "channel": 2,
      "note": 75,
      "start": 7.0329,
      "duration": 0.0054,
      "velocity": 92,
      "chip": "ym2612"
    },
    {
      "channel": 4,
      "note": 116,
      "start": 7.0347,
      "duration": 0.0041,
      "velocity": 109,
      "chip": "ym2612"
    },
    {
      "channel": 4,
      "note": 116,
      "start": 7.0409,
      "duration": 0.0006,
      "velocity": 127,
      "chip": "ym2612"
    },
    {
      "channel": 0,
      "note": 54,
      "start": 7.0437,
      "duration": 0.0032,
      "velocity": 109,
      "chip": "ym2612"
    },
    {
      "channel": 1,
      "note": 75,
      "start": 7.0441,
      "duration": 0.0012,
      "velocity": 92,
      "chip": "ym2612"
    },
    {
      "channel": 2,
      "note": 78,
      "start": 7.0444,
      "duration": 0.0011,
      "velocity": 92,
      "chip": "ym2612"
    },
    {
      "channel": 4,
      "note": 116,
      "start": 7.0462,
      "duration": 0.0283,
      "velocity": 127,
      "chip": "ym2612"
    },
    {
      "channel": 0,
      "note": 61,
      "start": 7.0934,
      "duration": 0.0038,
      "velocity": 109,
      "chip": "ym2612"
    },
    {
      "channel": 1,
      "note": 78,
      "start": 7.0938,
      "duration": 0.0028,
      "velocity": 92,
      "chip": "ym2612"
    },
    {
      "channel": 2,
      "note": 75,
      "start": 7.0941,
      "duration": 0.0026,
      "velocity": 92,
      "chip": "ym2612"
    },
    {
      "channel": 4,
      "note": 116,
      "start": 7.0959,
      "duration": 0.0015,
      "velocity": 109,
      "chip": "ym2612"
    },
    {
      "channel": 0,
      "note": 60,
      "start": 7.0982,
      "duration": 0.0076,
      "velocity": 109,
      "chip": "ym2612"
    },
    {
      "channel": 4,
      "note": 116,
      "start": 7.1,
      "duration": 0.0061,
      "velocity": 127,
      "chip": "ym2612"
    },
    {
      "channel": 0,
      "note": 59,
      "start": 7.1244,
      "duration": 0.0027,
      "velocity": 109,
      "chip": "ym2612"
    },
    {
      "channel": 1,
      "note": 75,
      "start": 7.1247,
      "duration": 0.0017,
      "velocity": 92,
      "chip": "ym2612"
    },
    {
      "channel": 2,
      "note": 78,
      "start": 7.1251,
      "duration": 0.0015,
      "velocity": 92,
      "chip": "ym2612"
    },
    {
      "channel": 4,
      "note": 116,
      "start": 7.1275,
      "duration": 0.0503,
      "velocity": 127,
      "chip": "ym2612"
    },
    {
      "channel": 0,
      "note": 54,
      "start": 7.1973,
      "duration": 0.0105,
      "velocity": 109,
      "chip": "ym2612"
    },
    {
      "channel": 1,
      "note": 78,
      "start": 7.1976,
      "duration": 0.0026,
      "velocity": 92,
      "chip": "ym2612"
    },
    {
      "channel": 2,
      "note": 76,
      "start": 7.198,
      "duration": 0.0023,
      "velocity": 92,
      "chip": "ym2612"
    },
    {
      "channel": 4,
      "note": 116,
      "start": 7.201,
      "duration": 0.0033,
      "velocity": 127,
      "chip": "ym2612"
    },
    {
      "channel": 1,
      "note": 78,
      "start": 7.2054,
      "duration": 0.0014,
      "velocity": 92,
      "chip": "ym2612"
    },
    {
      "channel": 2,
      "note": 76,
      "start": 7.2058,
      "duration": 0.0011,
      "velocity": 92,
      "chip": "ym2612"
    },
    {
      "channel": 4,
      "note": 116,
      "start": 7.2061,
      "duration": 0.0013,
      "velocity": 127,
      "chip": "ym2612"
    },
    {
      "channel": 4,
      "note": 116,
      "start": 7.2082,
      "duration": 0.0273,
      "velocity": 127,
      "chip": "ym2612"
    },
    {
      "channel": 0,
      "note": 52,
      "start": 7.2549,
      "duration": 0.0307,
      "velocity": 109,
      "chip": "ym2612"
    },
    {
      "channel": 1,
      "note": 78,
      "start": 7.2553,
      "duration": 0.0031,
      "velocity": 92,
      "chip": "ym2612"
    },
    {
      "channel": 2,
      "note": 76,
      "start": 7.2556,
      "duration": 0.0028,
      "velocity": 92,
      "chip": "ym2612"
    },
    {
      "channel": 4,
      "note": 116,
      "start": 7.2574,
      "duration": 0.0015,
      "velocity": 109,
      "chip": "ym2612"
    },
    {
      "channel": 4,
      "note": 116,
      "start": 7.261,
      "duration": 0.0063,
      "velocity": 127,
      "chip": "ym2612"
    },
    {
      "channel": 1,
      "note": 78,
      "start": 7.286,
      "duration": 0.002,
      "velocity": 92,
      "chip": "ym2612"
    },
    {
      "channel": 2,
      "note": 76,
      "start": 7.2863,
      "duration": 0.0018,
      "velocity": 92,
      "chip": "ym2612"
    },
    {
      "channel": 4,
      "note": 116,
      "start": 7.2867,
      "duration": 0.0019,
      "velocity": 127,
      "chip": "ym2612"
    },
    {
      "channel": 0,
      "note": 52,
      "start": 7.3066,
      "duration": 0.0016,
      "velocity": 109,
      "chip": "ym2612"
    },
    {
      "channel": 0,
      "note": 64,
      "start": 7.3096,
      "duration": 0.0061,
      "velocity": 109,
      "chip": "ym2612"
    },
    {
      "channel": 1,
      "note": 78,
      "start": 7.3099,
      "duration": 0.0051,
      "velocity": 92,
      "chip": "ym2612"
    },
    {
      "channel": 2,
      "note": 76,
      "start": 7.3103,
      "duration": 0.0049,
      "velocity": 92,
      "chip": "ym2612"
    },
    {
      "channel": 4,
      "note": 116,
      "start": 7.3121,
      "duration": 0.0037,
      "velocity": 109,
      "chip": "ym2612"
    },
    {
      "channel": 0,
      "note": 65,
      "start": 7.3165,
      "duration": 0.0215,
      "velocity": 109,
      "chip": "ym2612"
    },
    {
      "channel": 4,
      "note": 116,
      "start": 7.3184,
      "duration": 0.001,
      "velocity": 127,
      "chip": "ym2612"
    },
    {
      "channel": 1,
      "note": 78,
      "start": 7.3384,
      "duration": 0.0015,
      "velocity": 92,
      "chip": "ym2612"
    },
    {
      "channel": 2,
      "note": 76,
      "start": 7.3387,
      "duration": 0.0013,
      "velocity": 92,
      "chip": "ym2612"
    },
    {
      "channel": 0,
      "note": 66,
      "start": 7.3408,
      "duration": 0.0475,
      "velocity": 109,
      "chip": "ym2612"
    },
    {
      "channel": 4,
      "note": 116,
      "start": 7.3412,
      "duration": 0.0286,
      "velocity": 127,
      "chip": "ym2612"
    },
    {
      "channel": 1,
      "note": 78,
      "start": 7.3888,
      "duration": 0.0028,
      "velocity": 92,
      "chip": "ym2612"
    },
    {
      "channel": 2,
      "note": 76,
      "start": 7.3891,
      "duration": 0.0026,
      "velocity": 92,
      "chip": "ym2612"
    },
    {
      "channel": 4,
      "note": 116,
      "start": 7.3909,
      "duration": 0.0013,
      "velocity": 109,
      "chip": "ym2612"
    },
    {
      "channel": 4,
      "note": 116,
      "start": 7.3947,
      "duration": 0.0065,
      "velocity": 127,
      "chip": "ym2612"
    },
    {
      "channel": 0,
      "note": 54,
      "start": 7.4366,
      "duration": 0.0577,
      "velocity": 109,
      "chip": "ym2612"
    },
    {
      "channel": 1,
      "note": 75,
      "start": 7.437,
      "duration": 0.0017,
      "velocity": 92,
      "chip": "ym2612"
    },
    {
      "channel": 2,
      "note": 78,
      "start": 7.4373,
      "duration": 0.0015,
      "velocity": 92,
      "chip": "ym2612"
    },
    {
      "channel": 4,
      "note": 116,
      "start": 7.4395,
      "duration": 0.0336,
      "velocity": 127,
      "chip": "ym2612"
    },
    {
      "channel": 1,
      "note": 78,
      "start": 7.4916,
      "duration": 0.0021,
      "velocity": 92,
      "chip": "ym2612"
    },
    {
      "channel": 2,
      "note": 75,
      "start": 7.492,
      "duration": 0.0019,
      "velocity": 92,
      "chip": "ym2612"
    },
    {
      "channel": 4,
      "note": 116,
      "start": 7.4947,
      "duration": 0.0341,
      "velocity": 127,
      "chip": "ym2612"
    },
    {
      "channel": 0,
      "note": 52,
      "start": 7.5645,
      "duration": 0.0041,
      "velocity": 109,
      "chip": "ym2612"
    },
    {
      "channel": 1,
      "note": 78,
      "start": 7.5649,
      "duration": 0.0031,
      "velocity": 92,
      "chip": "ym2612"
    },
    {
      "channel": 2,
      "note": 75,
      "start": 7.5652,
      "duration": 0.0029,
      "velocity": 92,
      "chip": "ym2612"
    },
    {
      "channel": 0,
      "note": 64,
      "start": 7.5998,
      "duration": 0.0023,
      "velocity": 109,
      "chip": "ym2612"
    },
    {
      "channel": 1,
      "note": 78,
      "start": 7.6002,
      "duration": 0.0013,
      "velocity": 92,
      "chip": "ym2612"
    },
    {
      "channel": 2,
      "note": 75,
      "start": 7.6005,
      "duration": 0.001,
      "velocity": 92,
      "chip": "ym2612"
    },
    {
      "channel": 0,
      "note": 65,
      "start": 7.6039,
      "duration": 0.0573,
      "velocity": 109,
      "chip": "ym2612"
    },
    {
      "channel": 1,
      "note": 78,
      "start": 7.6615,
      "duration": 0.0013,
      "velocity": 92,
      "chip": "ym2612"
    },
    {
      "channel": 2,
      "note": 75,
      "start": 7.6619,
      "duration": 0.001,
      "velocity": 92,
      "chip": "ym2612"
    },
    {
      "channel": 0,
      "note": 66,
      "start": 7.6642,
      "duration": 0.0026,
      "velocity": 109,
      "chip": "ym2612"
    },
    {
      "channel": 1,
      "note": 78,
      "start": 7.6658,
      "duration": 0.002,
      "velocity": 92,
      "chip": "ym2612"
    },
    {
      "channel": 2,
      "note": 75,
      "start": 7.6661,
      "duration": 0.0018,
      "velocity": 92,
      "chip": "ym2612"
    },
    {
      "channel": 0,
      "note": 54,
      "start": 7.6696,
      "duration": 0.0009,
      "velocity": 109,
      "chip": "ym2612"
    },
    {
      "channel": 0,
      "note": 53,
      "start": 7.6713,
      "duration": 0.0028,
      "velocity": 109,
      "chip": "ym2612"
    },
    {
      "channel": 1,
      "note": 75,
      "start": 7.6717,
      "duration": 0.0015,
      "velocity": 92,
      "chip": "ym2612"
    },
    {
      "channel": 2,
      "note": 78,
      "start": 7.672,
      "duration": 0.0012,
      "velocity": 92,
      "chip": "ym2612"
    },
    {
      "channel": 0,
      "note": 52,
      "start": 7.7084,
      "duration": 0.0012,
      "velocity": 109,
      "chip": "ym2612"
    },
    {
      "channel": 0,
      "note": 61,
      "start": 7.7109,
      "duration": 0.0027,
      "velocity": 109,
      "chip": "ym2612"
    },
    {
      "channel": 1,
      "note": 78,
      "start": 7.7112,
      "duration": 0.0017,
      "velocity": 92,
      "chip": "ym2612"
    },
    {
      "channel": 2,
      "note": 75,
      "start": 7.7116,
      "duration": 0.0015,
      "velocity": 92,
      "chip": "ym2612"
    },
    {
      "channel": 0,
      "note": 60,
      "start": 7.7144,
      "duration": 0.0009,
      "velocity": 109,
      "chip": "ym2612"
    },
    {
      "channel": 0,
      "note": 59,
      "start": 7.7178,
      "duration": 0.0032,
      "velocity": 109,
      "chip": "ym2612"
    },
    {
      "channel": 1,
      "note": 75,
      "start": 7.7182,
      "duration": 0.0013,
      "velocity": 92,
      "chip": "ym2612"
    },
    {
      "channel": 2,
      "note": 78,
      "start": 7.7185,
      "duration": 0.001,
      "velocity": 92,
      "chip": "ym2612"
    },
    {
      "channel": 0,
      "note": 49,
      "start": 7.7228,
      "duration": 0.0102,
      "velocity": 109,
      "chip": "ym2612"
    },
    {
      "channel": 1,
      "note": 73,
      "start": 7.7232,
      "duration": 0.0015,
      "velocity": 92,
      "chip": "ym2612"
    },
    {
      "channel": 2,
      "note": 71,
      "start": 7.7235,
      "duration": 0.0013,
      "velocity": 92,
      "chip": "ym2612"
    },
    {
      "channel": 4,
      "note": 116,
      "start": 7.7254,
      "duration": 0.0034,
      "velocity": 127,
      "chip": "ym2612"
    },
    {
      "channel": 1,
      "note": 73,
      "start": 7.7298,
      "duration": 0.0014,
      "velocity": 92,
      "chip": "ym2612"
    },
    {
      "channel": 2,
      "note": 71,
      "start": 7.7302,
      "duration": 0.0011,
      "velocity": 92,
      "chip": "ym2612"
    },
    {
      "channel": 4,
      "note": 116,
      "start": 7.7306,
      "duration": 0.0012,
      "velocity": 127,
      "chip": "ym2612"
    },
    {
      "channel": 4,
      "note": 116,
      "start": 7.7324,
      "duration": 0.011,
      "velocity": 127,
      "chip": "ym2612"
    },
    {
      "channel": 0,
      "note": 47,
      "start": 7.7627,
      "duration": 0.0125,
      "velocity": 109,
      "chip": "ym2612"
    },
    {
      "channel": 1,
      "note": 73,
      "start": 7.763,
      "duration": 0.0031,
      "velocity": 92,
      "chip": "ym2612"
    },
    {
      "channel": 2,
      "note": 71,
      "start": 7.7634,
      "duration": 0.0028,
      "velocity": 92,
      "chip": "ym2612"
    },
    {
      "channel": 4,
      "note": 116,
      "start": 7.7652,
      "duration": 0.0015,
      "velocity": 109,
      "chip": "ym2612"
    },
    {
      "channel": 4,
      "note": 116,
      "start": 7.7688,
      "duration": 0.0232,
      "velocity": 127,
      "chip": "ym2612"
    },
    {
      "channel": 1,
      "note": 73,
      "start": 7.8104,
      "duration": 0.002,
      "velocity": 92,
      "chip": "ym2612"
    },
    {
      "channel": 2,
      "note": 71,
      "start": 7.8107,
      "duration": 0.0018,
      "velocity": 92,
      "chip": "ym2612"
    },
    {
      "channel": 4,
      "note": 116,
      "start": 7.8111,
      "duration": 0.002,
      "velocity": 127,
      "chip": "ym2612"
    },
    {
      "channel": 0,
      "note": 47,
      "start": 7.8311,
      "duration": 0.0012,
      "velocity": 109,
      "chip": "ym2612"
    },
    {
      "channel": 0,
      "note": 59,
      "start": 7.8335,
      "duration": 0.0043,
      "velocity": 109,
      "chip": "ym2612"
    },
    {
      "channel": 1,
      "note": 73,
      "start": 7.8339,
      "duration": 0.0033,
      "velocity": 92,
      "chip": "ym2612"
    },
    {
      "channel": 2,
      "note": 71,
      "start": 7.8343,
      "duration": 0.0031,
      "velocity": 92,
      "chip": "ym2612"
    },
    {
      "channel": 4,
      "note": 116,
      "start": 7.8361,
      "duration": 0.002,
      "velocity": 109,
      "chip": "ym2612"
    },
    {
      "channel": 0,
      "note": 60,
      "start": 7.8388,
      "duration": 0.0691,
      "velocity": 109,
      "chip": "ym2612"
    },
    {
      "channel": 4,
      "note": 116,
      "start": 7.8406,
      "duration": 0.0484,
      "velocity": 127,
      "chip": "ym2612"
    },
    {
      "channel": 1,
      "note": 73,
      "start": 7.9083,
      "duration": 0.0015,
      "velocity": 92,
      "chip": "ym2612"
    },
    {
      "channel": 2,
      "note": 71,
      "start": 7.9087,
      "duration": 0.0013,
      "velocity": 92,
      "chip": "ym2612"
    },
    {
      "channel": 0,
      "note": 61,
      "start": 7.9107,
      "duration": 0.05,
      "velocity": 109,
      "chip": "ym2612"
    },
    {
      "channel": 4,
      "note": 116,
      "start": 7.9111,
      "duration": 0.0119,
      "velocity": 127,
      "chip": "ym2612"
    },
    {
      "channel": 1,
      "note": 73,
      "start": 7.9578,
      "duration": 0.0034,
      "velocity": 92,
      "chip": "ym2612"
    },
    {
      "channel": 2,
      "note": 71,
      "start": 7.9582,
      "duration": 0.0031,
      "velocity": 92,
      "chip": "ym2612"
    },
    {
      "channel": 4,
      "note": 116,
      "start": 7.96,
      "duration": 0.0018,
      "velocity": 109,
      "chip": "ym2612"
    },
    {
      "channel": 4,
      "note": 116,
      "start": 7.964,
      "duration": 0.0065,
      "velocity": 127,
      "chip": "ym2612"
    },
    {
      "channel": 0,
      "note": 49,
      "start": 7.9892,
      "duration": 0.0749,
      "velocity": 109,
      "chip": "ym2612"
    },
    {
      "channel": 1,
      "note": 70,
      "start": 7.9895,
      "duration": 0.0017,
      "velocity": 92,
      "chip": "ym2612"
    },
    {
      "channel": 2,
      "note": 73,
      "start": 7.9899,
      "duration": 0.0015,
      "velocity": 92,
      "chip": "ym2612"
    },
    {
      "channel": 4,
      "note": 116,
      "start": 7.992,
      "duration": 0.0337,
      "velocity": 127,
      "chip": "ym2612"
    },
    {
      "channel": 1,
      "note": 73,
      "start": 8.0608,
      "duration": 0.0021,
      "velocity": 92,
      "chip": "ym2612"
    },
    {
      "channel": 2,
      "note": 70,
      "start": 8.0612,
      "duration": 0.0018,
      "velocity": 92,
      "chip": "ym2612"
    },
    {
      "channel": 4,
      "note": 116,
      "start": 8.0636,
      "duration": 0.0341,
      "velocity": 127,
      "chip": "ym2612"
    },
    {
      "channel": 0,
      "note": 47,
      "start": 8.1168,
      "duration": 0.0036,
      "velocity": 109,
      "chip": "ym2612"
    },
    {
      "channel": 1,
      "note": 73,
      "start": 8.1172,
      "duration": 0.0014,
      "velocity": 92,
      "chip": "ym2612"
    },
    {
      "channel": 2,
      "note": 70,
      "start": 8.1175,
      "duration": 0.0012,
      "velocity": 92,
      "chip": "ym2612"
    },
    {
      "channel": 4,
      "note": 116,
      "start": 8.1178,
      "duration": 0.0014,
      "velocity": 127,
      "chip": "ym2612"
    },
    {
      "channel": 4,
      "note": 116,
      "start": 8.12,
      "duration": 0.0248,
      "velocity": 127,
      "chip": "ym2612"
    },
    {
      "channel": 0,
      "note": 59,
      "start": 8.1641,
      "duration": 0.0041,
      "velocity": 109,
      "chip": "ym2612"
    },
    {
      "channel": 1,
      "note": 73,
      "start": 8.1644,
      "duration": 0.0031,
      "velocity": 92,
      "chip": "ym2612"
    },
    {
      "channel": 2,
      "note": 70,
      "start": 8.1648,
      "duration": 0.0029,
      "velocity": 92,
      "chip": "ym2612"
    },
    {
      "channel": 4,
      "note": 116,
      "start": 8.1666,
      "duration": 0.0017,
      "velocity": 109,
      "chip": "ym2612"
    },
    {
      "channel": 0,
      "note": 60,
      "start": 8.1692,
      "duration": 0.0212,
      "velocity": 109,
      "chip": "ym2612"
    },
    {
      "channel": 4,
      "note": 116,
      "start": 8.171,
      "duration": 0.0011,
      "velocity": 127,
      "chip": "ym2612"
    },
    {
      "channel": 1,
      "note": 73,
      "start": 8.1908,
      "duration": 0.0017,
      "velocity": 92,
      "chip": "ym2612"
    },
    {
      "channel": 2,
      "note": 70,
      "start": 8.1912,
      "duration": 0.0014,
      "velocity": 92,
      "chip": "ym2612"
    },
    {
      "channel": 4,
      "note": 116,
      "start": 8.1915,
      "duration": 0.0016,
      "velocity": 127,
      "chip": "ym2612"
    },
    {
      "channel": 0,
      "note": 61,
      "start": 8.2109,
      "duration": 0.0042,
      "velocity": 109,
      "chip": "ym2612"
    },
    {
      "channel": 1,
      "note": 73,
      "start": 8.2124,
      "duration": 0.0057,
      "velocity": 92,
      "chip": "ym2612"
    },
    {
      "channel": 2,
      "note": 70,
      "start": 8.2127,
      "duration": 0.0055,
      "velocity": 92,
      "chip": "ym2612"
    },
    {
      "channel": 4,
      "note": 116,
      "start": 8.2145,
      "duration": 0.0042,
      "velocity": 109,
      "chip": "ym2612"
    },
    {
      "channel": 4,
      "note": 116,
      "start": 8.2209,
      "duration": 0.0006,
      "velocity": 127,
      "chip": "ym2612"
    },
    {
      "channel": 0,
      "note": 49,
      "start": 8.2227,
      "duration": 0.0141,
      "velocity": 109,
      "chip": "ym2612"
    },
    {
      "channel": 1,
      "note": 70,
      "start": 8.223,
      "duration": 0.0012,
      "velocity": 92,
      "chip": "ym2612"
    },
    {
      "channel": 2,
      "note": 73,
      "start": 8.2233,
      "duration": 0.0011,
      "velocity": 92,
      "chip": "ym2612"
    },
    {
      "channel": 4,
      "note": 116,
      "start": 8.225,
      "duration": 0.0285,
      "velocity": 127,
      "chip": "ym2612"
    },
    {
      "channel": 0,
      "note": 56,
      "start": 8.2724,
      "duration": 0.0038,
      "velocity": 109,
      "chip": "ym2612"
    },
    {
      "channel": 1,
      "note": 73,
      "start": 8.2727,
      "duration": 0.0029,
      "velocity": 92,
      "chip": "ym2612"
    },
    {
      "channel": 2,
      "note": 70,
      "start": 8.2731,
      "duration": 0.0027,
      "velocity": 92,
      "chip": "ym2612"
    },
    {
      "channel": 4,
      "note": 116,
      "start": 8.2749,
      "duration": 0.0015,
      "velocity": 109,
      "chip": "ym2612"
    },
    {
      "channel": 0,
      "note": 55,
      "start": 8.2771,
      "duration": 0.0077,
      "velocity": 109,
      "chip": "ym2612"
    },
    {
      "channel": 4,
      "note": 116,
      "start": 8.279,
      "duration": 0.006,
      "velocity": 127,
      "chip": "ym2612"
    },
    {
      "channel": 0,
      "note": 54,
      "start": 8.3033,
      "duration": 0.0027,
      "velocity": 109,
      "chip": "ym2612"
    },
    {
      "channel": 1,
      "note": 70,
      "start": 8.3037,
      "duration": 0.0017,
      "velocity": 92,
      "chip": "ym2612"
    },
    {
      "channel": 2,
      "note": 73,
      "start": 8.3041,
      "duration": 0.0015,
      "velocity": 92,
      "chip": "ym2612"
    },
    {
      "channel": 4,
      "note": 116,
      "start": 8.3065,
      "duration": 0.0502,
      "velocity": 127,
      "chip": "ym2612"
    },
    {
      "channel": 0,
      "note": 49,
      "start": 8.3762,
      "duration": 0.0095,
      "velocity": 109,
      "chip": "ym2612"
    },
    {
      "channel": 1,
      "note": 73,
      "start": 8.3766,
      "duration": 0.0016,
      "velocity": 92,
      "chip": "ym2612"
    },
    {
      "channel": 2,
      "note": 71,
      "start": 8.3769,
      "duration": 0.0013,
      "velocity": 92,
      "chip": "ym2612"
    },
    {
      "channel": 4,
      "note": 116,
      "start": 8.379,
      "duration": 0.0033,
      "velocity": 127,
      "chip": "ym2612"
    },
    {
      "channel": 1,
      "note": 73,
      "start": 8.3832,
      "duration": 0.0014,
      "velocity": 92,
      "chip": "ym2612"
    },
    {
      "channel": 2,
      "note": 71,
      "start": 8.3836,
      "duration": 0.0011,
      "velocity": 92,
      "chip": "ym2612"
    },
    {
      "channel": 4,
      "note": 116,
      "start": 8.3839,
      "duration": 0.0013,
      "velocity": 127,
      "chip": "ym2612"
    },
    {
      "channel": 4,
      "note": 116,
      "start": 8.3861,
      "duration": 0.0273,
      "velocity": 127,
      "chip": "ym2612"
    },
    {
      "channel": 0,
      "note": 47,
      "start": 8.4327,
      "duration": 0.0314,
      "velocity": 109,
      "chip": "ym2612"
    },
    {
      "channel": 1,
      "note": 73,
      "start": 8.4331,
      "duration": 0.0031,
      "velocity": 92,
      "chip": "ym2612"
    },
    {
      "channel": 2,
      "note": 71,
      "start": 8.4335,
      "duration": 0.0028,
      "velocity": 92,
      "chip": "ym2612"
    },
    {
      "channel": 4,
      "note": 116,
      "start": 8.4353,
      "duration": 0.0019,
      "velocity": 109,
      "chip": "ym2612"
    },
    {
      "channel": 4,
      "note": 116,
      "start": 8.4393,
      "duration": 0.0066,
      "velocity": 127,
      "chip": "ym2612"
    },
    {
      "channel": 1,
      "note": 73,
      "start": 8.4646,
      "duration": 0.002,
      "velocity": 92,
      "chip": "ym2612"
    },
    {
      "channel": 2,
      "note": 71,
      "start": 8.4649,
      "duration": 0.0018,
      "velocity": 92,
      "chip": "ym2612"
    },
    {
      "channel": 4,
      "note": 116,
      "start": 8.4653,
      "duration": 0.0019,
      "velocity": 127,
      "chip": "ym2612"
    },
    {
      "channel": 0,
      "note": 47,
      "start": 8.4852,
      "duration": 0.0012,
      "velocity": 109,
      "chip": "ym2612"
    },
    {
      "channel": 0,
      "note": 59,
      "start": 8.4877,
      "duration": 0.0061,
      "velocity": 109,
      "chip": "ym2612"
    },
    {
      "channel": 1,
      "note": 73,
      "start": 8.488,
      "duration": 0.0052,
      "velocity": 92,
      "chip": "ym2612"
    },
    {
      "channel": 2,
      "note": 71,
      "start": 8.4884,
      "duration": 0.0049,
      "velocity": 92,
      "chip": "ym2612"
    },
    {
      "channel": 4,
      "note": 116,
      "start": 8.4902,
      "duration": 0.0038,
      "velocity": 109,
      "chip": "ym2612"
    },
    {
      "channel": 0,
      "note": 60,
      "start": 8.4947,
      "duration": 0.0381,
      "velocity": 109,
      "chip": "ym2612"
    },
    {
      "channel": 4,
      "note": 116,
      "start": 8.4965,
      "duration": 0.0012,
      "velocity": 127,
      "chip": "ym2612"
    },
    {
      "channel": 1,
      "note": 73,
      "start": 8.5333,
      "duration": 0.0015,
      "velocity": 92,
      "chip": "ym2612"
    },
    {
      "channel": 2,
      "note": 71,
      "start": 8.5336,
      "duration": 0.0014,
      "velocity": 92,
      "chip": "ym2612"
    },
    {
      "channel": 0,
      "note": 61,
      "start": 8.5357,
      "duration": 0.0466,
      "velocity": 109,
      "chip": "ym2612"
    },
    {
      "channel": 4,
      "note": 116,
      "start": 8.5361,
      "duration": 0.0275,
      "velocity": 127,
      "chip": "ym2612"
    },
    {
      "channel": 1,
      "note": 73,
      "start": 8.5827,
      "duration": 0.0028,
      "velocity": 92,
      "chip": "ym2612"
    },
    {
      "channel": 2,
      "note": 71,
      "start": 8.583,
      "duration": 0.0026,
      "velocity": 92,
      "chip": "ym2612"
    },
    {
      "channel": 4,
      "note": 116,
      "start": 8.5848,
      "duration": 0.0013,
      "velocity": 109,
      "chip": "ym2612"
    },
    {
      "channel": 4,
      "note": 116,
      "start": 8.5887,
      "duration": 0.0065,
      "velocity": 127,
      "chip": "ym2612"
    },
    {
      "channel": 0,
      "note": 49,
      "start": 8.6297,
      "duration": 0.0013,
      "velocity": 109,
      "chip": "ym2612"
    },
    {
      "channel": 0,
      "note": 58,
      "start": 8.6625,
      "duration": 0.0009,
      "velocity": 109,
      "chip": "ym2612"
    },
    {
      "channel": 0,
      "note": 58,
      "start": 8.6642,
      "duration": 0.0011,
      "velocity": 109,
      "chip": "ym2612"
    },
    {
      "channel": 0,
      "note": 46,
      "start": 8.6661,
      "duration": 0.0018,
      "velocity": 109,
      "chip": "ym2612"
    },
    {
      "channel": 0,
      "note": 59,
      "start": 8.6688,
      "duration": 0.0009,
      "velocity": 109,
      "chip": "ym2612"
    },
    {
      "channel": 0,
      "note": 59,
      "start": 8.6704,
      "duration": 0.0011,
      "velocity": 109,
      "chip": "ym2612"
    },
    {
      "channel": 0,
      "note": 47,
      "start": 8.6723,
      "duration": 0.002,
      "velocity": 109,
      "chip": "ym2612"
    },
    {
      "channel": 0,
      "note": 60,
      "start": 8.675,
      "duration": 0.0009,
      "velocity": 109,
      "chip": "ym2612"
    },
    {
      "channel": 0,
      "note": 60,
      "start": 8.6768,
      "duration": 0.001,
      "velocity": 109,
      "chip": "ym2612"
    },
    {
      "channel": 0,
      "note": 48,
      "start": 8.6785,
      "duration": 0.0019,
      "velocity": 109,
      "chip": "ym2612"
    },
    {
      "channel": 0,
      "note": 61,
      "start": 8.6824,
      "duration": 0.3493,
      "velocity": 109,
      "chip": "ym2612"
    },
    {
      "channel": 1,
      "note": 59,
      "start": 8.6843,
      "duration": 0.5638,
      "velocity": 105,
      "chip": "ym2612"
    },
    {
      "channel": 2,
      "note": 54,
      "start": 8.6861,
      "duration": 0.5621,
      "velocity": 105,
      "chip": "ym2612"
    },
    {
      "channel": 3,
      "note": 49,
      "start": 8.6879,
      "duration": 0.5604,
      "velocity": 105,
      "chip": "ym2612"
    },
    {
      "channel": 4,
      "note": 116,
      "start": 8.7432,
      "duration": 0.0015,
      "velocity": 127,
      "chip": "ym2612"
    },
    {
      "channel": 4,
      "note": 116,
      "start": 8.7456,
      "duration": 0.0109,
      "velocity": 127,
      "chip": "ym2612"
    },
    {
      "channel": 4,
      "note": 47,
      "start": 8.7747,
      "duration": 0.0809,
      "velocity": 93,
      "chip": "ym2612"
    },
    {
      "channel": 4,
      "note": 116,
      "start": 9.0085,
      "duration": 0.0035,
      "velocity": 127,
      "chip": "ym2612"
    },
    {
      "channel": 4,
      "note": 116,
      "start": 9.0293,
      "duration": 0.002,
      "velocity": 127,
      "chip": "ym2612"
    },
    {
      "channel": 4,
      "note": 47,
      "start": 9.0336,
      "duration": 0.0169,
      "velocity": 93,
      "chip": "ym2612"
    },
    {
      "channel": 4,
      "note": 116,
      "start": 9.2025,
      "duration": 0.0007,
      "velocity": 127,
      "chip": "ym2612"
    },
    {
      "channel": 4,
      "note": 116,
      "start": 9.2038,
      "duration": 0.0102,
      "velocity": 127,
      "chip": "ym2612"
    },
    {
      "channel": 4,
      "note": 47,
      "start": 9.2501,
      "duration": 0.0635,
      "velocity": 93,
      "chip": "ym2612"
    },
    {
      "channel": 0,
      "note": 61,
      "start": 9.3502,
      "duration": 0.0053,
      "velocity": 109,
      "chip": "ym2612"
    },
    {
      "channel": 1,
      "note": 54,
      "start": 9.3507,
      "duration": 0.0035,
      "velocity": 105,
      "chip": "ym2612"
    },
    {
      "channel": 2,
      "note": 59,
      "start": 9.3511,
      "duration": 0.0032,
      "velocity": 105,
      "chip": "ym2612"
    },
    {
      "channel": 3,
      "note": 49,
      "start": 9.3515,
      "duration": 0.0029,
      "velocity": 105,
      "chip": "ym2612"
    },
    {
      "channel": 4,
      "note": 116,
      "start": 9.3533,
      "duration": 0.0024,
      "velocity": 109,
      "chip": "ym2612"
    },
    {
      "channel": 0,
      "note": 61,
      "start": 9.3579,
      "duration": 0.2225,
      "velocity": 109,
      "chip": "ym2612"
    },
    {
      "channel": 1,
      "note": 54,
      "start": 9.3584,
      "duration": 0.0046,
      "velocity": 105,
      "chip": "ym2612"
    },
    {
      "channel": 2,
      "note": 59,
      "start": 9.3588,
      "duration": 0.0043,
      "velocity": 105,
      "chip": "ym2612"
    },
    {
      "channel": 3,
      "note": 49,
      "start": 9.3592,
      "duration": 0.004,
      "velocity": 105,
      "chip": "ym2612"
    },
    {
      "channel": 4,
      "note": 116,
      "start": 9.3595,
      "duration": 0.0038,
      "velocity": 109,
      "chip": "ym2612"
    },
    {
      "channel": 4,
      "note": 47,
      "start": 9.3654,
      "duration": 0.001,
      "velocity": 93,
      "chip": "ym2612"
    },
    {
      "channel": 4,
      "note": 47,
      "start": 9.4648,
      "duration": 0.0657,
      "velocity": 93,
      "chip": "ym2612"
    },
    {
      "channel": 4,
      "note": 116,
      "start": 9.683,
      "duration": 0.002,
      "velocity": 127,
      "chip": "ym2612"
    },
    {
      "channel": 4,
      "note": 116,
      "start": 9.7023,
      "duration": 0.002,
      "velocity": 127,
      "chip": "ym2612"
    },
    {
      "channel": 4,
      "note": 47,
      "start": 9.7064,
      "duration": 0.0012,
      "velocity": 93,
      "chip": "ym2612"
    },
    {
      "channel": 4,
      "note": 116,
      "start": 9.7295,
      "duration": 0.0008,
      "velocity": 127,
      "chip": "ym2612"
    },
    {
      "channel": 4,
      "note": 116,
      "start": 9.7309,
      "duration": 0.001,
      "velocity": 127,
      "chip": "ym2612"
    },
    {
      "channel": 4,
      "note": 47,
      "start": 9.7341,
      "duration": 0.0004,
      "velocity": 93,
      "chip": "ym2612"
    },
    {
      "channel": 4,
      "note": 116,
      "start": 9.8544,
      "duration": 0.0009,
      "velocity": 127,
      "chip": "ym2612"
    },
    {
      "channel": 4,
      "note": 116,
      "start": 9.856,
      "duration": 0.0012,
      "velocity": 127,
      "chip": "ym2612"
    },
    {
      "channel": 0,
      "note": 61,
      "start": 9.8762,
      "duration": 0.3585,
      "velocity": 109,
      "chip": "ym2612"
    },
    {
      "channel": 1,
      "note": 59,
      "start": 9.8766,
      "duration": 0.477,
      "velocity": 105,
      "chip": "ym2612"
    },
    {
      "channel": 2,
      "note": 49,
      "start": 9.8771,
      "duration": 0.4767,
      "velocity": 105,
      "chip": "ym2612"
    },
    {
      "channel": 3,
      "note": 54,
      "start": 9.8775,
      "duration": 0.4764,
      "velocity": 105,
      "chip": "ym2612"
    },
    {
      "channel": 4,
      "note": 116,
      "start": 9.9308,
      "duration": 0.0015,
      "velocity": 127,
      "chip": "ym2612"
    },
    {
      "channel": 4,
      "note": 116,
      "start": 9.9332,
      "duration": 0.0275,
      "velocity": 127,
      "chip": "ym2612"
    },
    {
      "channel": 4,
      "note": 47,
      "start": 9.979,
      "duration": 0.0809,
      "velocity": 93,
      "chip": "ym2612"
    },
    {
      "channel": 4,
      "note": 116,
      "start": 10.2128,
      "duration": 0.0022,
      "velocity": 127,
      "chip": "ym2612"
    },
    {
      "channel": 4,
      "note": 116,
      "start": 10.2322,
      "duration": 0.002,
      "velocity": 127,
      "chip": "ym2612"
    },
    {
      "channel": 4,
      "note": 47,
      "start": 10.2365,
      "duration": 0.034,
      "velocity": 93,
      "chip": "ym2612"
    },
    {
      "channel": 4,
      "note": 116,
      "start": 10.3247,
      "duration": 0.0007,
      "velocity": 127,
      "chip": "ym2612"
    },
    {
      "channel": 4,
      "note": 116,
      "start": 10.3261,
      "duration": 0.0102,
      "velocity": 127,
      "chip": "ym2612"
    },
    {
      "channel": 4,
      "note": 47,
      "start": 10.3557,
      "duration": 0.0801,
      "velocity": 93,
      "chip": "ym2612"
    },
    {
      "channel": 0,
      "note": 61,
      "start": 10.4724,
      "duration": 0.0052,
      "velocity": 109,
      "chip": "ym2612"
    },
    {
      "channel": 1,
      "note": 54,
      "start": 10.4729,
      "duration": 0.0038,
      "velocity": 105,
      "chip": "ym2612"
    },
    {
      "channel": 2,
      "note": 59,
      "start": 10.4733,
      "duration": 0.0036,
      "velocity": 105,
      "chip": "ym2612"
    },
    {
      "channel": 3,
      "note": 49,
      "start": 10.4737,
      "duration": 0.0033,
      "velocity": 105,
      "chip": "ym2612"
    },
    {
      "channel": 4,
      "note": 116,
      "start": 10.4755,
      "duration": 0.0023,
      "velocity": 109,
      "chip": "ym2612"
    },
    {
      "channel": 0,
      "note": 61,
      "start": 10.4801,
      "duration": 0.0039,
      "velocity": 109,
      "chip": "ym2612"
    },
    {
      "channel": 1,
      "note": 59,
      "start": 10.4805,
      "duration": 0.0036,
      "velocity": 105,
      "chip": "ym2612"
    },
    {
      "channel": 2,
      "note": 54,
      "start": 10.4809,
      "duration": 0.0033,
      "velocity": 105,
      "chip": "ym2612"
    },
    {
      "channel": 3,
      "note": 49,
      "start": 10.4813,
      "duration": 0.003,
      "velocity": 105,
      "chip": "ym2612"
    },
    {
      "channel": 4,
      "note": 116,
      "start": 10.4816,
      "duration": 0.0015,
      "velocity": 109,
      "chip": "ym2612"
    }
  ]
}