{
  "track_name": "05 - Sentinel Core Escape",
  "duration_sec": 67.334,
  "sample_rate": 44100,
  "note_count": 1012,
  "unique_pitches": 32,
  "pitch_range": 63,
  "avg_note_duration": 0.0738,
  "reconstruction_stats": {
    "notes_reconstructed": 1012,
    "keyon_events": 1012,
    "keyoff_events": 1012,
    "orphan_keyons": 0,
    "unique_pitches": 32,
    "pitch_range": 63,
    "avg_duration_sec": 0.0738
  },
  "metadata": {
    "source": "X\\X-Men 2 - Clone Wars\\05 - Sentinel Core Escape.vgz"
  },
  "notes": [
    {
      "channel": 2,
      "note": 59,
      "start": 0.0161,
      "duration": 0.0189,
      "velocity": 108,
      "chip": "ym2612"
    },
    {
      "channel": 0,
      "note": 59,
      "start": 0.0308,
      "duration": 0.0099,
      "velocity": 108,
      "chip": "ym2612"
    },
    {
      "channel": 2,
      "note": 56,
      "start": 0.0683,
      "duration": 0.0303,
      "velocity": 108,
      "chip": "ym2612"
    },
    {
      "channel": 0,
      "note": 56,
      "start": 0.081,
      "duration": 0.0302,
      "velocity": 108,
      "chip": "ym2612"
    },
    {
      "channel": 1,
      "note": 33,
      "start": 0.1325,
      "duration": 0.0456,
      "velocity": 126,
      "chip": "ym2612"
    },
    {
      "channel": 2,
      "note": 56,
      "start": 0.2818,
      "duration": 0.0798,
      "velocity": 108,
      "chip": "ym2612"
    },
    {
      "channel": 0,
      "note": 56,
      "start": 0.2984,
      "duration": 0.0798,
      "velocity": 108,
      "chip": "ym2612"
    },
    {
      "channel": 2,
      "note": 68,
      "start": 0.4516,
      "duration": 0.0291,
      "velocity": 108,
      "chip": "ym2612"
    },
    {
      "channel": 0,
      "note": 68,
      "start": 0.4637,
      "duration": 0.0296,
      "velocity": 108,
      "chip": "ym2612"
    },
    {
      "channel": 1,
      "note": 33,
      "start": 0.5751,
      "duration": 0.0656,
      "velocity": 126,
      "chip": "ym2612"
    },
    {
      "channel": 2,
      "note": 56,
      "start": 0.5782,
      "duration": 0.0628,
      "velocity": 108,
      "chip": "ym2612"
    },
    {
      "channel": 0,
      "note": 56,
      "start": 0.5896,
      "duration": 0.068,
      "velocity": 108,
      "chip": "ym2612"
    },
    {
      "channel": 2,
      "note": 56,
      "start": 0.8979,
      "duration": 0.0283,
      "velocity": 108,
      "chip": "ym2612"
    },
    {
      "channel": 0,
      "note": 56,
      "start": 0.9097,
      "duration": 0.0289,
      "velocity": 108,
      "chip": "ym2612"
    },
    {
      "channel": 2,
      "note": 56,
      "start": 0.96,
      "duration": 0.0358,
      "velocity": 108,
      "chip": "ym2612"
    },
    {
      "channel": 0,
      "note": 56,
      "start": 0.9739,
      "duration": 0.0279,
      "velocity": 108,
      "chip": "ym2612"
    },
    {
      "channel": 1,
      "note": 33,
      "start": 1.0294,
      "duration": 0.058,
      "velocity": 126,
      "chip": "ym2612"
    },
    {
      "channel": 2,
      "note": 56,
      "start": 1.1741,
      "duration": 0.08,
      "velocity": 108,
      "chip": "ym2612"
    },
    {
      "channel": 0,
      "note": 56,
      "start": 1.2074,
      "duration": 0.0799,
      "velocity": 108,
      "chip": "ym2612"
    },
    {
      "channel": 2,
      "note": 61,
      "start": 1.4125,
      "duration": 0.0287,
      "velocity": 108,
      "chip": "ym2612"
    },
    {
      "channel": 0,
      "note": 61,
      "start": 1.4183,
      "duration": 0.0299,
      "velocity": 108,
      "chip": "ym2612"
    },
    {
      "channel": 1,
      "note": 33,
      "start": 1.4743,
      "duration": 0.0614,
      "velocity": 126,
      "chip": "ym2612"
    },
    {
      "channel": 2,
      "note": 56,
      "start": 1.624,
      "duration": 0.0785,
      "velocity": 108,
      "chip": "ym2612"
    },
    {
      "channel": 0,
      "note": 56,
      "start": 1.6563,
      "duration": 0.0793,
      "velocity": 108,
      "chip": "ym2612"
    },
    {
      "channel": 2,
      "note": 59,
      "start": 1.8114,
      "duration": 0.0276,
      "velocity": 108,
      "chip": "ym2612"
    },
    {
      "channel": 0,
      "note": 59,
      "start": 1.8166,
      "duration": 0.0284,
      "velocity": 108,
      "chip": "ym2612"
    },
    {
      "channel": 2,
      "note": 56,
      "start": 1.8727,
      "duration": 0.0304,
      "velocity": 108,
      "chip": "ym2612"
    },
    {
      "channel": 0,
      "note": 56,
      "start": 1.8867,
      "duration": 0.0289,
      "velocity": 108,
      "chip": "ym2612"
    },
    {
      "channel": 1,
      "note": 33,
      "start": 1.9381,
      "duration": 0.0467,
      "velocity": 126,
      "chip": "ym2612"
    },
    {
      "channel": 2,
      "note": 56,
      "start": 2.072,
      "duration": 0.0965,
      "velocity": 108,
      "chip": "ym2612"
    },
    {
      "channel": 0,
      "note": 56,
      "start": 2.1051,
      "duration": 0.0798,
      "velocity": 108,
      "chip": "ym2612"
    },
    {
      "channel": 2,
      "note": 68,
      "start": 2.2583,
      "duration": 0.0294,
      "velocity": 108,
      "chip": "ym2612"
    },
    {
      "channel": 0,
      "note": 68,
      "start": 2.265,
      "duration": 0.0354,
      "velocity": 108,
      "chip": "ym2612"
    },
    {
      "channel": 2,
      "note": 56,
      "start": 2.3221,
      "duration": 0.0298,
      "velocity": 108,
      "chip": "ym2612"
    },
    {
      "channel": 0,
      "note": 56,
      "start": 2.3359,
      "duration": 0.0286,
      "velocity": 108,
      "chip": "ym2612"
    },
    {
      "channel": 1,
      "note": 33,
      "start": 2.3866,
      "duration": 0.0625,
      "velocity": 126,
      "chip": "ym2612"
    },
    {
      "channel": 2,
      "note": 56,
      "start": 2.5361,
      "duration": 0.08,
      "velocity": 108,
      "chip": "ym2612"
    },
    {
      "channel": 0,
      "note": 56,
      "start": 2.5527,
      "duration": 0.0964,
      "velocity": 108,
      "chip": "ym2612"
    },
    {
      "channel": 2,
      "note": 56,
      "start": 2.7059,
      "duration": 0.0283,
      "velocity": 108,
      "chip": "ym2612"
    },
    {
      "channel": 0,
      "note": 56,
      "start": 2.7175,
      "duration": 0.0293,
      "velocity": 108,
      "chip": "ym2612"
    },
    {
      "channel": 1,
      "note": 33,
      "start": 2.8343,
      "duration": 0.0606,
      "velocity": 126,
      "chip": "ym2612"
    },
    {
      "channel": 2,
      "note": 56,
      "start": 2.8384,
      "duration": 0.0568,
      "velocity": 108,
      "chip": "ym2612"
    },
    {
      "channel": 0,
      "note": 56,
      "start": 2.8444,
      "duration": 0.0672,
      "velocity": 108,
      "chip": "ym2612"
    },
    {
      "channel": 2,
      "note": 56,
      "start": 2.9824,
      "duration": 0.0795,
      "velocity": 108,
      "chip": "ym2612"
    },
    {
      "channel": 0,
      "note": 56,
      "start": 3.0155,
      "duration": 0.0795,
      "velocity": 108,
      "chip": "ym2612"
    },
    {
      "channel": 2,
      "note": 59,
      "start": 3.22,
      "duration": 0.0289,
      "velocity": 108,
      "chip": "ym2612"
    },
    {
      "channel": 0,
      "note": 59,
      "start": 3.2261,
      "duration": 0.03,
      "velocity": 108,
      "chip": "ym2612"
    },
    {
      "channel": 1,
      "note": 33,
      "start": 3.2824,
      "duration": 0.0618,
      "velocity": 126,
      "chip": "ym2612"
    },
    {
      "channel": 2,
      "note": 59,
      "start": 3.4323,
      "duration": 0.0788,
      "velocity": 108,
      "chip": "ym2612"
    },
    {
      "channel": 0,
      "note": 59,
      "start": 3.4645,
      "duration": 0.0798,
      "velocity": 108,
      "chip": "ym2612"
    },
    {
      "channel": 2,
      "note": 56,
      "start": 3.6037,
      "duration": 0.0334,
      "velocity": 108,
      "chip": "ym2612"
    },
    {
      "channel": 0,
      "note": 56,
      "start": 3.6139,
      "duration": 0.0297,
      "velocity": 108,
      "chip": "ym2612"
    },
    {
      "channel": 2,
      "note": 61,
      "start": 3.6705,
      "duration": 0.0303,
      "velocity": 108,
      "chip": "ym2612"
    },
    {
      "channel": 0,
      "note": 61,
      "start": 3.6839,
      "duration": 0.0301,
      "velocity": 108,
      "chip": "ym2612"
    },
    {
      "channel": 1,
      "note": 33,
      "start": 3.7348,
      "duration": 0.0584,
      "velocity": 126,
      "chip": "ym2612"
    },
    {
      "channel": 2,
      "note": 56,
      "start": 3.8802,
      "duration": 0.0964,
      "velocity": 108,
      "chip": "ym2612"
    },
    {
      "channel": 0,
      "note": 56,
      "start": 3.9134,
      "duration": 0.0798,
      "velocity": 108,
      "chip": "ym2612"
    },
    {
      "channel": 2,
      "note": 59,
      "start": 4.0669,
      "duration": 0.0288,
      "velocity": 108,
      "chip": "ym2612"
    },
    {
      "channel": 0,
      "note": 59,
      "start": 4.0736,
      "duration": 0.0346,
      "velocity": 108,
      "chip": "ym2612"
    },
    {
      "channel": 1,
      "note": 33,
      "start": 4.19,
      "duration": 0.0497,
      "velocity": 126,
      "chip": "ym2612"
    },
    {
      "channel": 2,
      "note": 56,
      "start": 4.1931,
      "duration": 0.0468,
      "velocity": 108,
      "chip": "ym2612"
    },
    {
      "channel": 0,
      "note": 56,
      "start": 4.2057,
      "duration": 0.0671,
      "velocity": 108,
      "chip": "ym2612"
    },
    {
      "channel": 2,
      "note": 58,
      "start": 4.3447,
      "duration": 0.0784,
      "velocity": 108,
      "chip": "ym2612"
    },
    {
      "channel": 0,
      "note": 58,
      "start": 4.3599,
      "duration": 0.0963,
      "velocity": 108,
      "chip": "ym2612"
    },
    {
      "channel": 2,
      "note": 56,
      "start": 4.5745,
      "duration": 0.0293,
      "velocity": 108,
      "chip": "ym2612"
    },
    {
      "channel": 0,
      "note": 56,
      "start": 4.5872,
      "duration": 0.03,
      "velocity": 108,
      "chip": "ym2612"
    },
    {
      "channel": 1,
      "note": 33,
      "start": 4.6432,
      "duration": 0.0603,
      "velocity": 126,
      "chip": "ym2612"
    },
    {
      "channel": 2,
      "note": 57,
      "start": 4.6472,
      "duration": 0.0566,
      "velocity": 108,
      "chip": "ym2612"
    },
    {
      "channel": 0,
      "note": 57,
      "start": 4.6528,
      "duration": 0.0673,
      "velocity": 108,
      "chip": "ym2612"
    },
    {
      "channel": 2,
      "note": 56,
      "start": 4.7903,
      "duration": 0.08,
      "velocity": 108,
      "chip": "ym2612"
    },
    {
      "channel": 0,
      "note": 56,
      "start": 4.8234,
      "duration": 0.08,
      "velocity": 108,
      "chip": "ym2612"
    },
    {
      "channel": 2,
      "note": 69,
      "start": 4.9602,
      "duration": 0.0294,
      "velocity": 108,
      "chip": "ym2612"
    },
    {
      "channel": 0,
      "note": 69,
      "start": 4.972,
      "duration": 0.0301,
      "velocity": 108,
      "chip": "ym2612"
    },
    {
      "channel": 2,
      "note": 54,
      "start": 5.0243,
      "duration": 0.0365,
      "velocity": 108,
      "chip": "ym2612"
    },
    {
      "channel": 0,
      "note": 54,
      "start": 5.0382,
      "duration": 0.0287,
      "velocity": 108,
      "chip": "ym2612"
    },
    {
      "channel": 1,
      "note": 33,
      "start": 5.0946,
      "duration": 0.0599,
      "velocity": 126,
      "chip": "ym2612"
    },
    {
      "channel": 2,
      "note": 59,
      "start": 5.0978,
      "duration": 0.0569,
      "velocity": 108,
      "chip": "ym2612"
    },
    {
      "channel": 0,
      "note": 59,
      "start": 5.1107,
      "duration": 0.077,
      "velocity": 108,
      "chip": "ym2612"
    },
    {
      "channel": 2,
      "note": 58,
      "start": 5.2425,
      "duration": 0.0787,
      "velocity": 108,
      "chip": "ym2612"
    },
    {
      "channel": 0,
      "note": 58,
      "start": 5.2745,
      "duration": 0.0799,
      "velocity": 108,
      "chip": "ym2612"
    },
    {
      "channel": 2,
      "note": 56,
      "start": 5.4129,
      "duration": 0.0337,
      "velocity": 108,
      "chip": "ym2612"
    },
    {
      "channel": 0,
      "note": 56,
      "start": 5.4234,
      "duration": 0.03,
      "velocity": 108,
      "chip": "ym2612"
    },
    {
      "channel": 2,
      "note": 56,
      "start": 5.4807,
      "duration": 0.0308,
      "velocity": 108,
      "chip": "ym2612"
    },
    {
      "channel": 0,
      "note": 56,
      "start": 5.4889,
      "duration": 0.0361,
      "velocity": 108,
      "chip": "ym2612"
    },
    {
      "channel": 1,
      "note": 33,
      "start": 5.5463,
      "duration": 0.0577,
      "velocity": 126,
      "chip": "ym2612"
    },
    {
      "channel": 2,
      "note": 56,
      "start": 5.691,
      "duration": 0.0799,
      "velocity": 108,
      "chip": "ym2612"
    },
    {
      "channel": 0,
      "note": 56,
      "start": 5.7241,
      "duration": 0.0798,
      "velocity": 108,
      "chip": "ym2612"
    },
    {
      "channel": 2,
      "note": 56,
      "start": 5.8773,
      "duration": 0.0292,
      "velocity": 108,
      "chip": "ym2612"
    },
    {
      "channel": 0,
      "note": 56,
      "start": 5.8841,
      "duration": 0.0351,
      "velocity": 108,
      "chip": "ym2612"
    },
    {
      "channel": 1,
      "note": 33,
      "start": 6.002,
      "duration": 0.0489,
      "velocity": 126,
      "chip": "ym2612"
    },
    {
      "channel": 2,
      "note": 56,
      "start": 6.0056,
      "duration": 0.0456,
      "velocity": 108,
      "chip": "ym2612"
    },
    {
      "channel": 0,
      "note": 56,
      "start": 6.0176,
      "duration": 0.0666,
      "velocity": 108,
      "chip": "ym2612"
    },
    {
      "channel": 2,
      "note": 56,
      "start": 6.1546,
      "duration": 0.0798,
      "velocity": 108,
      "chip": "ym2612"
    },
    {
      "channel": 0,
      "note": 56,
      "start": 6.1711,
      "duration": 0.0798,
      "velocity": 108,
      "chip": "ym2612"
    },
    {
      "channel": 2,
      "note": 56,
      "start": 6.3844,
      "duration": 0.0301,
      "velocity": 108,
      "chip": "ym2612"
    },
    {
      "channel": 0,
      "note": 56,
      "start": 6.3978,
      "duration": 0.0301,
      "velocity": 108,
      "chip": "ym2612"
    },
    {
      "channel": 1,
      "note": 33,
      "start": 6.4544,
      "duration": 0.0603,
      "velocity": 126,
      "chip": "ym2612"
    },
    {
      "channel": 2,
      "note": 56,
      "start": 6.4585,
      "duration": 0.0565,
      "velocity": 108,
      "chip": "ym2612"
    },
    {
      "channel": 0,
      "note": 56,
      "start": 6.4634,
      "duration": 0.068,
      "velocity": 108,
      "chip": "ym2612"
    },
    {
      "channel": 2,
      "note": 56,
      "start": 6.6016,
      "duration": 0.0801,
      "velocity": 108,
      "chip": "ym2612"
    },
    {
      "channel": 0,
      "note": 56,
      "start": 6.6348,
      "duration": 0.08,
      "velocity": 108,
      "chip": "ym2612"
    },
    {
      "channel": 2,
      "note": 56,
      "start": 6.7717,
      "duration": 0.0283,
      "velocity": 108,
      "chip": "ym2612"
    },
    {
      "channel": 0,
      "note": 56,
      "start": 6.7834,
      "duration": 0.029,
      "velocity": 108,
      "chip": "ym2612"
    },
    {
      "channel": 2,
      "note": 56,
      "start": 6.8347,
      "duration": 0.0367,
      "velocity": 108,
      "chip": "ym2612"
    },
    {
      "channel": 0,
      "note": 56,
      "start": 6.8487,
      "duration": 0.0286,
      "velocity": 108,
      "chip": "ym2612"
    },
    {
      "channel": 1,
      "note": 33,
      "start": 6.9051,
      "duration": 0.0597,
      "velocity": 126,
      "chip": "ym2612"
    },
    {
      "channel": 2,
      "note": 56,
      "start": 6.9083,
      "duration": 0.0567,
      "velocity": 108,
      "chip": "ym2612"
    },
    {
      "channel": 0,
      "note": 56,
      "start": 6.9141,
      "duration": 0.084,
      "velocity": 108,
      "chip": "ym2612"
    },
    {
      "channel": 2,
      "note": 69,
      "start": 7.0526,
      "duration": 0.0791,
      "velocity": 108,
      "chip": "ym2612"
    },
    {
      "channel": 0,
      "note": 69,
      "start": 7.0851,
      "duration": 0.0797,
      "velocity": 108,
      "chip": "ym2612"
    },
    {
      "channel": 2,
      "note": 59,
      "start": 7.2254,
      "duration": 0.0342,
      "velocity": 108,
      "chip": "ym2612"
    },
    {
      "channel": 3,
      "note": 68,
      "start": 7.2295,
      "duration": 0.0487,
      "velocity": 92,
      "chip": "ym2612"
    },
    {
      "channel": 0,
      "note": 59,
      "start": 7.2366,
      "duration": 0.0289,
      "velocity": 108,
      "chip": "ym2612"
    },
    {
      "channel": 4,
      "note": 68,
      "start": 7.2503,
      "duration": 0.0491,
      "velocity": 92,
      "chip": "ym2612"
    },
    {
      "channel": 2,
      "note": 56,
      "start": 7.294,
      "duration": 0.0318,
      "velocity": 108,
      "chip": "ym2612"
    },
    {
      "channel": 3,
      "note": 68,
      "start": 7.2963,
      "duration": 0.0294,
      "velocity": 92,
      "chip": "ym2612"
    },
    {
      "channel": 0,
      "note": 56,
      "start": 7.3022,
      "duration": 0.0357,
      "velocity": 108,
      "chip": "ym2612"
    },
    {
      "channel": 4,
      "note": 68,
      "start": 7.3167,
      "duration": 0.0274,
      "velocity": 92,
      "chip": "ym2612"
    },
    {
      "channel": 1,
      "note": 33,
      "start": 7.359,
      "duration": 0.0549,
      "velocity": 126,
      "chip": "ym2612"
    },
    {
      "channel": 3,
      "note": 68,
      "start": 7.363,
      "duration": 0.1176,
      "velocity": 92,
      "chip": "ym2612"
    },
    {
      "channel": 4,
      "note": 68,
      "start": 7.3843,
      "duration": 0.1464,
      "velocity": 92,
      "chip": "ym2612"
    },
    {
      "channel": 2,
      "note": 56,
      "start": 7.501,
      "duration": 0.0799,
      "velocity": 108,
      "chip": "ym2612"
    },
    {
      "channel": 3,
      "note": 69,
      "start": 7.504,
      "duration": 0.1766,
      "velocity": 92,
      "chip": "ym2612"
    },
    {
      "channel": 0,
      "note": 56,
      "start": 7.5342,
      "duration": 0.0796,
      "velocity": 108,
      "chip": "ym2612"
    },
    {
      "channel": 4,
      "note": 69,
      "start": 7.5687,
      "duration": 0.1354,
      "velocity": 92,
      "chip": "ym2612"
    },
    {
      "channel": 2,
      "note": 68,
      "start": 7.6878,
      "duration": 0.0291,
      "velocity": 108,
      "chip": "ym2612"
    },
    {
      "channel": 0,
      "note": 68,
      "start": 7.6945,
      "duration": 0.0284,
      "velocity": 108,
      "chip": "ym2612"
    },
    {
      "channel": 3,
      "note": 69,
      "start": 7.751,
      "duration": 0.0488,
      "velocity": 92,
      "chip": "ym2612"
    },
    {
      "channel": 4,
      "note": 69,
      "start": 7.7705,
      "duration": 0.0565,
      "velocity": 92,
      "chip": "ym2612"
    },
    {
      "channel": 1,
      "note": 33,
      "start": 7.8145,
      "duration": 0.0489,
      "velocity": 126,
      "chip": "ym2612"
    },
    {
      "channel": 2,
      "note": 56,
      "start": 7.8177,
      "duration": 0.046,
      "velocity": 108,
      "chip": "ym2612"
    },
    {
      "channel": 3,
      "note": 68,
      "start": 7.8205,
      "duration": 0.2262,
      "velocity": 92,
      "chip": "ym2612"
    },
    {
      "channel": 0,
      "note": 56,
      "start": 7.8297,
      "duration": 0.067,
      "velocity": 108,
      "chip": "ym2612"
    },
    {
      "channel": 4,
      "note": 68,
      "start": 7.8509,
      "duration": 0.2459,
      "velocity": 92,
      "chip": "ym2612"
    },
    {
      "channel": 2,
      "note": 56,
      "start": 8.1368,
      "duration": 0.0292,
      "velocity": 108,
      "chip": "ym2612"
    },
    {
      "channel": 0,
      "note": 56,
      "start": 8.1489,
      "duration": 0.0295,
      "velocity": 108,
      "chip": "ym2612"
    },
    {
      "channel": 2,
      "note": 56,
      "start": 8.2001,
      "duration": 0.0298,
      "velocity": 108,
      "chip": "ym2612"
    },
    {
      "channel": 0,
      "note": 56,
      "start": 8.2141,
      "duration": 0.0282,
      "velocity": 108,
      "chip": "ym2612"
    },
    {
      "channel": 1,
      "note": 33,
      "start": 8.2647,
      "duration": 0.0645,
      "velocity": 126,
      "chip": "ym2612"
    },
    {
      "channel": 3,
      "note": 68,
      "start": 8.2675,
      "duration": 0.2282,
      "velocity": 92,
      "chip": "ym2612"
    },
    {
      "channel": 4,
      "note": 68,
      "start": 8.2994,
      "duration": 0.2466,
      "velocity": 92,
      "chip": "ym2612"
    },
    {
      "channel": 2,
      "note": 56,
      "start": 8.4163,
      "duration": 0.0798,
      "velocity": 108,
      "chip": "ym2612"
    },
    {
      "channel": 0,
      "note": 56,
      "start": 8.4329,
      "duration": 0.0963,
      "velocity": 108,
      "chip": "ym2612"
    },
    {
      "channel": 2,
      "note": 61,
      "start": 8.6471,
      "duration": 0.0348,
      "velocity": 108,
      "chip": "ym2612"
    },
    {
      "channel": 0,
      "note": 61,
      "start": 8.659,
      "duration": 0.0299,
      "velocity": 108,
      "chip": "ym2612"
    },
    {
      "channel": 1,
      "note": 33,
      "start": 8.7152,
      "duration": 0.0617,
      "velocity": 126,
      "chip": "ym2612"
    },
    {
      "channel": 3,
      "note": 68,
      "start": 8.7192,
      "duration": 0.2245,
      "velocity": 92,
      "chip": "ym2612"
    },
    {
      "channel": 4,
      "note": 68,
      "start": 8.7474,
      "duration": 0.263,
      "velocity": 92,
      "chip": "ym2612"
    },
    {
      "channel": 2,
      "note": 56,
      "start": 8.8652,
      "duration": 0.0787,
      "velocity": 108,
      "chip": "ym2612"
    },
    {
      "channel": 0,
      "note": 56,
      "start": 8.8972,
      "duration": 0.0797,
      "velocity": 108,
      "chip": "ym2612"
    },
    {
      "channel": 2,
      "note": 59,
      "start": 9.0354,
      "duration": 0.0311,
      "velocity": 108,
      "chip": "ym2612"
    },
    {
      "channel": 3,
      "note": 68,
      "start": 9.0381,
      "duration": 0.0519,
      "velocity": 92,
      "chip": "ym2612"
    },
    {
      "channel": 0,
      "note": 59,
      "start": 9.048,
      "duration": 0.0296,
      "velocity": 108,
      "chip": "ym2612"
    },
    {
      "channel": 4,
      "note": 68,
      "start": 9.062,
      "duration": 0.0488,
      "velocity": 92,
      "chip": "ym2612"
    },
    {
      "channel": 2,
      "note": 56,
      "start": 9.1054,
      "duration": 0.033,
      "velocity": 108,
      "chip": "ym2612"
    },
    {
      "channel": 3,
      "note": 68,
      "start": 9.1077,
      "duration": 0.0305,
      "velocity": 92,
      "chip": "ym2612"
    },
    {
      "channel": 0,
      "note": 56,
      "start": 9.1138,
      "duration": 0.0312,
      "velocity": 108,
      "chip": "ym2612"
    },
    {
      "channel": 4,
      "note": 68,
      "start": 9.1287,
      "duration": 0.0283,
      "velocity": 92,
      "chip": "ym2612"
    },
    {
      "channel": 1,
      "note": 33,
      "start": 9.1714,
      "duration": 0.0545,
      "velocity": 126,
      "chip": "ym2612"
    },
    {
      "channel": 3,
      "note": 68,
      "start": 9.1752,
      "duration": 0.1175,
      "velocity": 92,
      "chip": "ym2612"
    },
    {
      "channel": 4,
      "note": 68,
      "start": 9.1963,
      "duration": 0.1464,
      "velocity": 92,
      "chip": "ym2612"
    },
    {
      "channel": 2,
      "note": 56,
      "start": 9.313,
      "duration": 0.08,
      "velocity": 108,
      "chip": "ym2612"
    },
    {
      "channel": 3,
      "note": 69,
      "start": 9.316,
      "duration": 0.1767,
      "velocity": 92,
      "chip": "ym2612"
    },
    {
      "channel": 0,
      "note": 56,
      "start": 9.3463,
      "duration": 0.0796,
      "velocity": 108,
      "chip": "ym2612"
    },
    {
      "channel": 4,
      "note": 69,
      "start": 9.3806,
      "duration": 0.1357,
      "velocity": 92,
      "chip": "ym2612"
    },
    {
      "channel": 2,
      "note": 68,
      "start": 9.4998,
      "duration": 0.0294,
      "velocity": 108,
      "chip": "ym2612"
    },
    {
      "channel": 0,
      "note": 68,
      "start": 9.5064,
      "duration": 0.0288,
      "velocity": 108,
      "chip": "ym2612"
    },
    {
      "channel": 2,
      "note": 56,
      "start": 9.5635,
      "duration": 0.0324,
      "velocity": 108,
      "chip": "ym2612"
    },
    {
      "channel": 3,
      "note": 69,
      "start": 9.5661,
      "duration": 0.0481,
      "velocity": 92,
      "chip": "ym2612"
    },
    {
      "channel": 0,
      "note": 56,
      "start": 9.5783,
      "duration": 0.03,
      "velocity": 108,
      "chip": "ym2612"
    },
    {
      "channel": 4,
      "note": 69,
      "start": 9.587,
      "duration": 0.0549,
      "velocity": 92,
      "chip": "ym2612"
    },
    {
      "channel": 1,
      "note": 33,
      "start": 9.6292,
      "duration": 0.0469,
      "velocity": 126,
      "chip": "ym2612"
    },
    {
      "channel": 3,
      "note": 68,
      "start": 9.6332,
      "duration": 0.2263,
      "velocity": 92,
      "chip": "ym2612"
    },
    {
      "channel": 4,
      "note": 68,
      "start": 9.6633,
      "duration": 0.2462,
      "velocity": 92,
      "chip": "ym2612"
    },
    {
      "channel": 2,
      "note": 56,
      "start": 9.7631,
      "duration": 0.0967,
      "velocity": 108,
      "chip": "ym2612"
    },
    {
      "channel": 0,
      "note": 56,
      "start": 9.7963,
      "duration": 0.0797,
      "velocity": 108,
      "chip": "ym2612"
    },
    {
      "channel": 2,
      "note": 56,
      "start": 9.9495,
      "duration": 0.029,
      "velocity": 108,
      "chip": "ym2612"
    },
    {
      "channel": 0,
      "note": 56,
      "start": 9.956,
      "duration": 0.0354,
      "velocity": 108,
      "chip": "ym2612"
    },
    {
      "channel": 3,
      "note": 68,
      "start": 10.0128,
      "duration": 0.0296,
      "velocity": 92,
      "chip": "ym2612"
    },
    {
      "channel": 4,
      "note": 68,
      "start": 10.0398,
      "duration": 0.0268,
      "velocity": 92,
      "chip": "ym2612"
    },
    {
      "channel": 1,
      "note": 33,
      "start": 10.0764,
      "duration": 0.0649,
      "velocity": 126,
      "chip": "ym2612"
    },
    {
      "channel": 2,
      "note": 56,
      "start": 10.0798,
      "duration": 0.0619,
      "velocity": 108,
      "chip": "ym2612"
    },
    {
      "channel": 0,
      "note": 56,
      "start": 10.0904,
      "duration": 0.0677,
      "velocity": 108,
      "chip": "ym2612"
    },
    {
      "channel": 2,
      "note": 56,
      "start": 10.2285,
      "duration": 0.0798,
      "velocity": 108,
      "chip": "ym2612"
    },
    {
      "channel": 3,
      "note": 68,
      "start": 10.2313,
      "duration": 0.1926,
      "velocity": 92,
      "chip": "ym2612"
    },
    {
      "channel": 0,
      "note": 56,
      "start": 10.2449,
      "duration": 0.0964,
      "velocity": 108,
      "chip": "ym2612"
    },
    {
      "channel": 4,
      "note": 68,
      "start": 10.2792,
      "duration": 0.1694,
      "velocity": 92,
      "chip": "ym2612"
    },
    {
      "channel": 2,
      "note": 59,
      "start": 10.459,
      "duration": 0.0309,
      "velocity": 108,
      "chip": "ym2612"
    },
    {
      "channel": 3,
      "note": 68,
      "start": 10.4613,
      "duration": 0.0285,
      "velocity": 92,
      "chip": "ym2612"
    },
    {
      "channel": 0,
      "note": 59,
      "start": 10.4727,
      "duration": 0.0297,
      "velocity": 108,
      "chip": "ym2612"
    },
    {
      "channel": 4,
      "note": 68,
      "start": 10.4865,
      "duration": 0.0285,
      "velocity": 92,
      "chip": "ym2612"
    },
    {
      "channel": 1,
      "note": 33,
      "start": 10.5295,
      "duration": 0.0582,
      "velocity": 126,
      "chip": "ym2612"
    },
    {
      "channel": 2,
      "note": 59,
      "start": 10.6756,
      "duration": 0.0789,
      "velocity": 108,
      "chip": "ym2612"
    },
    {
      "channel": 3,
      "note": 68,
      "start": 10.6786,
      "duration": 0.159,
      "velocity": 92,
      "chip": "ym2612"
    },
    {
      "channel": 0,
      "note": 59,
      "start": 10.7079,
      "duration": 0.0797,
      "velocity": 108,
      "chip": "ym2612"
    },
    {
      "channel": 4,
      "note": 68,
      "start": 10.7249,
      "duration": 0.1446,
      "velocity": 92,
      "chip": "ym2612"
    },
    {
      "channel": 2,
      "note": 56,
      "start": 10.8473,
      "duration": 0.0305,
      "velocity": 108,
      "chip": "ym2612"
    },
    {
      "channel": 3,
      "note": 68,
      "start": 10.8501,
      "duration": 0.0512,
      "velocity": 92,
      "chip": "ym2612"
    },
    {
      "channel": 0,
      "note": 56,
      "start": 10.8589,
      "duration": 0.0298,
      "velocity": 108,
      "chip": "ym2612"
    },
    {
      "channel": 4,
      "note": 68,
      "start": 10.8731,
      "duration": 0.0492,
      "velocity": 92,
      "chip": "ym2612"
    },
    {
      "channel": 2,
      "note": 61,
      "start": 10.9167,
      "duration": 0.0327,
      "velocity": 108,
      "chip": "ym2612"
    },
    {
      "channel": 3,
      "note": 68,
      "start": 10.9193,
      "duration": 0.03,
      "velocity": 92,
      "chip": "ym2612"
    },
    {
      "channel": 0,
      "note": 61,
      "start": 10.9251,
      "duration": 0.0309,
      "velocity": 108,
      "chip": "ym2612"
    },
    {
      "channel": 4,
      "note": 68,
      "start": 10.9401,
      "duration": 0.0279,
      "velocity": 92,
      "chip": "ym2612"
    },
    {
      "channel": 1,
      "note": 33,
      "start": 10.9828,
      "duration": 0.0548,
      "velocity": 126,
      "chip": "ym2612"
    },
    {
      "channel": 3,
      "note": 68,
      "start": 10.9866,
      "duration": 0.1012,
      "velocity": 92,
      "chip": "ym2612"
    },
    {
      "channel": 4,
      "note": 68,
      "start": 11.008,
      "duration": 0.1464,
      "velocity": 92,
      "chip": "ym2612"
    },
    {
      "channel": 2,
      "note": 56,
      "start": 11.1246,
      "duration": 0.08,
      "velocity": 108,
      "chip": "ym2612"
    },
    {
      "channel": 3,
      "note": 69,
      "start": 11.1277,
      "duration": 0.16,
      "velocity": 92,
      "chip": "ym2612"
    },
    {
      "channel": 0,
      "note": 56,
      "start": 11.1579,
      "duration": 0.0797,
      "velocity": 108,
      "chip": "ym2612"
    },
    {
      "channel": 4,
      "note": 69,
      "start": 11.1923,
      "duration": 0.1262,
      "velocity": 92,
      "chip": "ym2612"
    },
    {
      "channel": 2,
      "note": 59,
      "start": 11.2949,
      "duration": 0.0351,
      "velocity": 108,
      "chip": "ym2612"
    },
    {
      "channel": 0,
      "note": 59,
      "start": 11.3068,
      "duration": 0.0293,
      "velocity": 108,
      "chip": "ym2612"
    },
    {
      "channel": 3,
      "note": 69,
      "start": 11.3656,
      "duration": 0.0483,
      "velocity": 92,
      "chip": "ym2612"
    },
    {
      "channel": 4,
      "note": 69,
      "start": 11.3848,
      "duration": 0.057,
      "velocity": 92,
      "chip": "ym2612"
    },
    {
      "channel": 1,
      "note": 33,
      "start": 11.4285,
      "duration": 0.06,
      "velocity": 126,
      "chip": "ym2612"
    },
    {
      "channel": 2,
      "note": 56,
      "start": 11.4317,
      "duration": 0.0571,
      "velocity": 108,
      "chip": "ym2612"
    },
    {
      "channel": 3,
      "note": 68,
      "start": 11.4353,
      "duration": 0.2365,
      "velocity": 92,
      "chip": "ym2612"
    },
    {
      "channel": 0,
      "note": 56,
      "start": 11.4446,
      "duration": 0.0771,
      "velocity": 108,
      "chip": "ym2612"
    },
    {
      "channel": 4,
      "note": 68,
      "start": 11.4756,
      "duration": 0.2463,
      "velocity": 92,
      "chip": "ym2612"
    },
    {
      "channel": 2,
      "note": 58,
      "start": 11.5771,
      "duration": 0.0949,
      "velocity": 108,
      "chip": "ym2612"
    },
    {
      "channel": 0,
      "note": 58,
      "start": 11.609,
      "duration": 0.0795,
      "velocity": 108,
      "chip": "ym2612"
    },
    {
      "channel": 3,
      "note": 56,
      "start": 11.7618,
      "duration": 0.3598,
      "velocity": 92,
      "chip": "ym2612"
    },
    {
      "channel": 4,
      "note": 56,
      "start": 11.7812,
      "duration": 0.3905,
      "velocity": 92,
      "chip": "ym2612"
    },
    {
      "channel": 2,
      "note": 56,
      "start": 11.8245,
      "duration": 0.0308,
      "velocity": 108,
      "chip": "ym2612"
    },
    {
      "channel": 0,
      "note": 56,
      "start": 11.8383,
      "duration": 0.0289,
      "velocity": 108,
      "chip": "ym2612"
    },
    {
      "channel": 1,
      "note": 33,
      "start": 11.8898,
      "duration": 0.0484,
      "velocity": 126,
      "chip": "ym2612"
    },
    {
      "channel": 2,
      "note": 57,
      "start": 11.8931,
      "duration": 0.0454,
      "velocity": 108,
      "chip": "ym2612"
    },
    {
      "channel": 0,
      "note": 57,
      "start": 11.9039,
      "duration": 0.0678,
      "velocity": 108,
      "chip": "ym2612"
    },
    {
      "channel": 2,
      "note": 56,
      "start": 12.0418,
      "duration": 0.08,
      "velocity": 108,
      "chip": "ym2612"
    },
    {
      "channel": 0,
      "note": 56,
      "start": 12.0582,
      "duration": 0.0966,
      "velocity": 108,
      "chip": "ym2612"
    },
    {
      "channel": 2,
      "note": 69,
      "start": 12.2117,
      "duration": 0.0324,
      "velocity": 108,
      "chip": "ym2612"
    },
    {
      "channel": 3,
      "note": 60,
      "start": 12.215,
      "duration": 0.3552,
      "velocity": 92,
      "chip": "ym2612"
    },
    {
      "channel": 0,
      "note": 69,
      "start": 12.2247,
      "duration": 0.0309,
      "velocity": 108,
      "chip": "ym2612"
    },
    {
      "channel": 4,
      "note": 60,
      "start": 12.2341,
      "duration": 0.386,
      "velocity": 92,
      "chip": "ym2612"
    },
    {
      "channel": 2,
      "note": 54,
      "start": 12.2783,
      "duration": 0.0294,
      "velocity": 108,
      "chip": "ym2612"
    },
    {
      "channel": 0,
      "note": 54,
      "start": 12.2904,
      "duration": 0.0293,
      "velocity": 108,
      "chip": "ym2612"
    },
    {
      "channel": 1,
      "note": 33,
      "start": 12.3475,
      "duration": 0.0559,
      "velocity": 126,
      "chip": "ym2612"
    },
    {
      "channel": 2,
      "note": 59,
      "start": 12.3507,
      "duration": 0.0529,
      "velocity": 108,
      "chip": "ym2612"
    },
    {
      "channel": 0,
      "note": 59,
      "start": 12.3575,
      "duration": 0.0627,
      "velocity": 108,
      "chip": "ym2612"
    },
    {
      "channel": 2,
      "note": 58,
      "start": 12.4917,
      "duration": 0.0786,
      "velocity": 108,
      "chip": "ym2612"
    },
    {
      "channel": 0,
      "note": 58,
      "start": 12.5235,
      "duration": 0.0799,
      "velocity": 108,
      "chip": "ym2612"
    },
    {
      "channel": 2,
      "note": 56,
      "start": 12.6619,
      "duration": 0.0319,
      "velocity": 108,
      "chip": "ym2612"
    },
    {
      "channel": 3,
      "note": 64,
      "start": 12.6665,
      "duration": 0.0506,
      "velocity": 92,
      "chip": "ym2612"
    },
    {
      "channel": 0,
      "note": 56,
      "start": 12.6748,
      "duration": 0.0299,
      "velocity": 108,
      "chip": "ym2612"
    },
    {
      "channel": 4,
      "note": 64,
      "start": 12.6903,
      "duration": 0.0484,
      "velocity": 92,
      "chip": "ym2612"
    },
    {
      "channel": 2,
      "note": 56,
      "start": 12.7277,
      "duration": 0.0377,
      "velocity": 108,
      "chip": "ym2612"
    },
    {
      "channel": 3,
      "note": 68,
      "start": 12.7301,
      "duration": 0.0351,
      "velocity": 92,
      "chip": "ym2612"
    },
    {
      "channel": 0,
      "note": 56,
      "start": 12.7415,
      "duration": 0.0311,
      "velocity": 108,
      "chip": "ym2612"
    },
    {
      "channel": 4,
      "note": 68,
      "start": 12.7561,
      "duration": 0.0283,
      "velocity": 92,
      "chip": "ym2612"
    },
    {
      "channel": 1,
      "note": 33,
      "start": 12.7993,
      "duration": 0.0538,
      "velocity": 126,
      "chip": "ym2612"
    },
    {
      "channel": 3,
      "note": 68,
      "start": 12.8031,
      "duration": 0.1003,
      "velocity": 92,
      "chip": "ym2612"
    },
    {
      "channel": 4,
      "note": 68,
      "start": 12.8236,
      "duration": 0.1464,
      "velocity": 92,
      "chip": "ym2612"
    },
    {
      "channel": 2,
      "note": 56,
      "start": 12.9402,
      "duration": 0.08,
      "velocity": 108,
      "chip": "ym2612"
    },
    {
      "channel": 3,
      "note": 69,
      "start": 12.9433,
      "duration": 0.16,
      "velocity": 92,
      "chip": "ym2612"
    },
    {
      "channel": 0,
      "note": 56,
      "start": 12.9735,
      "duration": 0.0796,
      "velocity": 108,
      "chip": "ym2612"
    },
    {
      "channel": 4,
      "note": 69,
      "start": 13.0079,
      "duration": 0.126,
      "velocity": 92,
      "chip": "ym2612"
    },
    {
      "channel": 2,
      "note": 56,
      "start": 13.1106,
      "duration": 0.035,
      "velocity": 108,
      "chip": "ym2612"
    },
    {
      "channel": 0,
      "note": 56,
      "start": 13.1226,
      "duration": 0.0293,
      "velocity": 108,
      "chip": "ym2612"
    },
    {
      "channel": 3,
      "note": 69,
      "start": 13.1809,
      "duration": 0.0481,
      "velocity": 92,
      "chip": "ym2612"
    },
    {
      "channel": 4,
      "note": 69,
      "start": 13.2009,
      "duration": 0.0562,
      "velocity": 92,
      "chip": "ym2612"
    },
    {
      "channel": 1,
      "note": 33,
      "start": 13.2437,
      "duration": 0.0601,
      "velocity": 126,
      "chip": "ym2612"
    },
    {
      "channel": 2,
      "note": 56,
      "start": 13.2469,
      "duration": 0.0571,
      "velocity": 108,
      "chip": "ym2612"
    },
    {
      "channel": 3,
      "note": 68,
      "start": 13.2501,
      "duration": 0.1203,
      "velocity": 92,
      "chip": "ym2612"
    },
    {
      "channel": 0,
      "note": 56,
      "start": 13.26,
      "duration": 0.0771,
      "velocity": 108,
      "chip": "ym2612"
    },
    {
      "channel": 4,
      "note": 68,
      "start": 13.274,
      "duration": 0.1465,
      "velocity": 92,
      "chip": "ym2612"
    },
    {
      "channel": 2,
      "note": 56,
      "start": 13.3909,
      "duration": 0.0799,
      "velocity": 108,
      "chip": "ym2612"
    },
    {
      "channel": 3,
      "note": 68,
      "start": 13.3938,
      "duration": 0.0768,
      "velocity": 92,
      "chip": "ym2612"
    },
    {
      "channel": 0,
      "note": 56,
      "start": 13.424,
      "duration": 0.0797,
      "velocity": 108,
      "chip": "ym2612"
    },
    {
      "channel": 4,
      "note": 68,
      "start": 13.4583,
      "duration": 0.0789,
      "velocity": 92,
      "chip": "ym2612"
    },
    {
      "channel": 3,
      "note": 68,
      "start": 13.5771,
      "duration": 0.0476,
      "velocity": 92,
      "chip": "ym2612"
    },
    {
      "channel": 4,
      "note": 68,
      "start": 13.5965,
      "duration": 0.0548,
      "velocity": 92,
      "chip": "ym2612"
    },
    {
      "channel": 2,
      "note": 56,
      "start": 13.6398,
      "duration": 0.0326,
      "velocity": 108,
      "chip": "ym2612"
    },
    {
      "channel": 3,
      "note": 69,
      "start": 13.6427,
      "duration": 0.0613,
      "velocity": 92,
      "chip": "ym2612"
    },
    {
      "channel": 0,
      "note": 56,
      "start": 13.6548,
      "duration": 0.0298,
      "velocity": 108,
      "chip": "ym2612"
    },
    {
      "channel": 4,
      "note": 69,
      "start": 13.6635,
      "duration": 0.0734,
      "velocity": 92,
      "chip": "ym2612"
    },
    {
      "channel": 1,
      "note": 33,
      "start": 13.7064,
      "duration": 0.0472,
      "velocity": 126,
      "chip": "ym2612"
    },
    {
      "channel": 2,
      "note": 56,
      "start": 13.7103,
      "duration": 0.0435,
      "velocity": 108,
      "chip": "ym2612"
    },
    {
      "channel": 0,
      "note": 56,
      "start": 13.7217,
      "duration": 0.0652,
      "velocity": 108,
      "chip": "ym2612"
    },
    {
      "channel": 2,
      "note": 56,
      "start": 13.8571,
      "duration": 0.0799,
      "velocity": 108,
      "chip": "ym2612"
    },
    {
      "channel": 3,
      "note": 69,
      "start": 13.8601,
      "duration": 0.1268,
      "velocity": 92,
      "chip": "ym2612"
    },
    {
      "channel": 0,
      "note": 56,
      "start": 13.8736,
      "duration": 0.0799,
      "velocity": 108,
      "chip": "ym2612"
    },
    {
      "channel": 4,
      "note": 69,
      "start": 13.9083,
      "duration": 0.1287,
      "velocity": 92,
      "chip": "ym2612"
    },
    {
      "channel": 2,
      "note": 56,
      "start": 14.0272,
      "duration": 0.0313,
      "velocity": 108,
      "chip": "ym2612"
    },
    {
      "channel": 3,
      "note": 68,
      "start": 14.0295,
      "duration": 0.0472,
      "velocity": 92,
      "chip": "ym2612"
    },
    {
      "channel": 0,
      "note": 56,
      "start": 14.0398,
      "duration": 0.0304,
      "velocity": 108,
      "chip": "ym2612"
    },
    {
      "channel": 4,
      "note": 68,
      "start": 14.047,
      "duration": 0.0571,
      "velocity": 92,
      "chip": "ym2612"
    },
    {
      "channel": 2,
      "note": 56,
      "start": 14.0939,
      "duration": 0.0304,
      "velocity": 108,
      "chip": "ym2612"
    },
    {
      "channel": 3,
      "note": 68,
      "start": 14.0963,
      "duration": 0.0278,
      "velocity": 92,
      "chip": "ym2612"
    },
    {
      "channel": 0,
      "note": 56,
      "start": 14.1068,
      "duration": 0.0301,
      "velocity": 108,
      "chip": "ym2612"
    },
    {
      "channel": 4,
      "note": 68,
      "start": 14.1203,
      "duration": 0.0297,
      "velocity": 92,
      "chip": "ym2612"
    },
    {
      "channel": 1,
      "note": 33,
      "start": 14.1585,
      "duration": 0.0625,
      "velocity": 126,
      "chip": "ym2612"
    },
    {
      "channel": 2,
      "note": 56,
      "start": 14.1617,
      "duration": 0.0595,
      "velocity": 108,
      "chip": "ym2612"
    },
    {
      "channel": 3,
      "note": 68,
      "start": 14.1653,
      "duration": 0.1057,
      "velocity": 92,
      "chip": "ym2612"
    },
    {
      "channel": 0,
      "note": 56,
      "start": 14.1758,
      "duration": 0.0618,
      "velocity": 108,
      "chip": "ym2612"
    },
    {
      "channel": 4,
      "note": 68,
      "start": 14.1914,
      "duration": 0.1464,
      "velocity": 92,
      "chip": "ym2612"
    },
    {
      "channel": 2,
      "note": 69,
      "start": 14.3087,
      "duration": 0.0791,
      "velocity": 108,
      "chip": "ym2612"
    },
    {
      "channel": 3,
      "note": 69,
      "start": 14.3114,
      "duration": 0.1263,
      "velocity": 92,
      "chip": "ym2612"
    },
    {
      "channel": 0,
      "note": 69,
      "start": 14.3413,
      "duration": 0.0796,
      "velocity": 108,
      "chip": "ym2612"
    },
    {
      "channel": 4,
      "note": 69,
      "start": 14.3578,
      "duration": 0.132,
      "velocity": 92,
      "chip": "ym2612"
    },
    {
      "channel": 2,
      "note": 61,
      "start": 14.481,
      "duration": 0.0295,
      "velocity": 108,
      "chip": "ym2612"
    },
    {
      "channel": 3,
      "note": 70,
      "start": 14.4852,
      "duration": 0.0488,
      "velocity": 92,
      "chip": "ym2612"
    },
    {
      "channel": 0,
      "note": 61,
      "start": 14.4927,
      "duration": 0.0293,
      "velocity": 108,
      "chip": "ym2612"
    },
    {
      "channel": 4,
      "note": 70,
      "start": 14.5061,
      "duration": 0.0485,
      "velocity": 92,
      "chip": "ym2612"
    },
    {
      "channel": 2,
      "note": 58,
      "start": 14.544,
      "duration": 0.0374,
      "velocity": 108,
      "chip": "ym2612"
    },
    {
      "channel": 3,
      "note": 70,
      "start": 14.5463,
      "duration": 0.0349,
      "velocity": 92,
      "chip": "ym2612"
    },
    {
      "channel": 0,
      "note": 58,
      "start": 14.5576,
      "duration": 0.0305,
      "velocity": 108,
      "chip": "ym2612"
    },
    {
      "channel": 4,
      "note": 70,
      "start": 14.5717,
      "duration": 0.028,
      "velocity": 92,
      "chip": "ym2612"
    },
    {
      "channel": 1,
      "note": 33,
      "start": 14.6192,
      "duration": 0.0308,
      "velocity": 126,
      "chip": "ym2612"
    },
    {
      "channel": 3,
      "note": 70,
      "start": 14.6226,
      "duration": 0.0456,
      "velocity": 92,
      "chip": "ym2612"
    },
    {
      "channel": 4,
      "note": 70,
      "start": 14.639,
      "duration": 0.0564,
      "velocity": 92,
      "chip": "ym2612"
    },
    {
      "channel": 2,
      "note": 58,
      "start": 14.6847,
      "duration": 0.0302,
      "velocity": 108,
      "chip": "ym2612"
    },
    {
      "channel": 3,
      "note": 71,
      "start": 14.6872,
      "duration": 0.0611,
      "velocity": 92,
      "chip": "ym2612"
    },
    {
      "channel": 0,
      "note": 58,
      "start": 14.6981,
      "duration": 0.0292,
      "velocity": 108,
      "chip": "ym2612"
    },
    {
      "channel": 4,
      "note": 71,
      "start": 14.7063,
      "duration": 0.0729,
      "velocity": 92,
      "chip": "ym2612"
    },
    {
      "channel": 2,
      "note": 70,
      "start": 14.7551,
      "duration": 0.0354,
      "velocity": 108,
      "chip": "ym2612"
    },
    {
      "channel": 0,
      "note": 70,
      "start": 14.7674,
      "duration": 0.0295,
      "velocity": 108,
      "chip": "ym2612"
    },
    {
      "channel": 3,
      "note": 71,
      "start": 14.8256,
      "duration": 0.0467,
      "velocity": 92,
      "chip": "ym2612"
    },
    {
      "channel": 4,
      "note": 71,
      "start": 14.8447,
      "duration": 0.0575,
      "velocity": 92,
      "chip": "ym2612"
    },
    {
      "channel": 1,
      "note": 33,
      "start": 14.8907,
      "duration": 0.0318,
      "velocity": 126,
      "chip": "ym2612"
    },
    {
      "channel": 2,
      "note": 58,
      "start": 14.8939,
      "duration": 0.0288,
      "velocity": 108,
      "chip": "ym2612"
    },
    {
      "channel": 3,
      "note": 70,
      "start": 14.8964,
      "duration": 0.0892,
      "velocity": 92,
      "chip": "ym2612"
    },
    {
      "channel": 0,
      "note": 58,
      "start": 14.9059,
      "duration": 0.029,
      "velocity": 108,
      "chip": "ym2612"
    },
    {
      "channel": 4,
      "note": 70,
      "start": 14.9126,
      "duration": 0.0977,
      "velocity": 92,
      "chip": "ym2612"
    },
    {
      "channel": 2,
      "note": 58,
      "start": 15.0448,
      "duration": 0.0307,
      "velocity": 108,
      "chip": "ym2612"
    },
    {
      "channel": 3,
      "note": 58,
      "start": 15.0472,
      "duration": 0.2286,
      "velocity": 92,
      "chip": "ym2612"
    },
    {
      "channel": 0,
      "note": 58,
      "start": 15.0524,
      "duration": 0.0284,
      "velocity": 108,
      "chip": "ym2612"
    },
    {
      "channel": 4,
      "note": 58,
      "start": 15.0645,
      "duration": 0.2298,
      "velocity": 92,
      "chip": "ym2612"
    },
    {
      "channel": 2,
      "note": 58,
      "start": 15.1099,
      "duration": 0.0284,
      "velocity": 108,
      "chip": "ym2612"
    },
    {
      "channel": 0,
      "note": 58,
      "start": 15.1236,
      "duration": 0.0273,
      "velocity": 108,
      "chip": "ym2612"
    },
    {
      "channel": 1,
      "note": 33,
      "start": 15.1765,
      "duration": 0.0284,
      "velocity": 126,
      "chip": "ym2612"
    },
    {
      "channel": 2,
      "note": 58,
      "start": 15.2451,
      "duration": 0.0308,
      "velocity": 108,
      "chip": "ym2612"
    },
    {
      "channel": 0,
      "note": 58,
      "start": 15.2537,
      "duration": 0.0283,
      "velocity": 108,
      "chip": "ym2612"
    },
    {
      "channel": 3,
      "note": 62,
      "start": 15.33,
      "duration": 0.2303,
      "velocity": 92,
      "chip": "ym2612"
    },
    {
      "channel": 4,
      "note": 62,
      "start": 15.3491,
      "duration": 0.2298,
      "velocity": 92,
      "chip": "ym2612"
    },
    {
      "channel": 2,
      "note": 63,
      "start": 15.3921,
      "duration": 0.0305,
      "velocity": 108,
      "chip": "ym2612"
    },
    {
      "channel": 0,
      "note": 63,
      "start": 15.4058,
      "duration": 0.0287,
      "velocity": 108,
      "chip": "ym2612"
    },
    {
      "channel": 1,
      "note": 33,
      "start": 15.4606,
      "duration": 0.0332,
      "velocity": 126,
      "chip": "ym2612"
    },
    {
      "channel": 2,
      "note": 58,
      "start": 15.5297,
      "duration": 0.0308,
      "velocity": 108,
      "chip": "ym2612"
    },
    {
      "channel": 0,
      "note": 58,
      "start": 15.5373,
      "duration": 0.0347,
      "velocity": 108,
      "chip": "ym2612"
    },
    {
      "channel": 2,
      "note": 61,
      "start": 15.6122,
      "duration": 0.0313,
      "velocity": 108,
      "chip": "ym2612"
    },
    {
      "channel": 3,
      "note": 66,
      "start": 15.6156,
      "duration": 0.0513,
      "velocity": 92,
      "chip": "ym2612"
    },
    {
      "channel": 0,
      "note": 61,
      "start": 15.6246,
      "duration": 0.0302,
      "velocity": 108,
      "chip": "ym2612"
    },
    {
      "channel": 4,
      "note": 66,
      "start": 15.6342,
      "duration": 0.0544,
      "velocity": 92,
      "chip": "ym2612"
    },
    {
      "channel": 2,
      "note": 58,
      "start": 15.6775,
      "duration": 0.0381,
      "velocity": 108,
      "chip": "ym2612"
    },
    {
      "channel": 3,
      "note": 70,
      "start": 15.6799,
      "duration": 0.0355,
      "velocity": 92,
      "chip": "ym2612"
    },
    {
      "channel": 0,
      "note": 58,
      "start": 15.6914,
      "duration": 0.0309,
      "velocity": 108,
      "chip": "ym2612"
    },
    {
      "channel": 4,
      "note": 70,
      "start": 15.7062,
      "duration": 0.028,
      "velocity": 92,
      "chip": "ym2612"
    },
    {
      "channel": 1,
      "note": 33,
      "start": 15.7534,
      "duration": 0.0301,
      "velocity": 126,
      "chip": "ym2612"
    },
    {
      "channel": 3,
      "note": 70,
      "start": 15.757,
      "duration": 0.0441,
      "velocity": 92,
      "chip": "ym2612"
    },
    {
      "channel": 4,
      "note": 70,
      "start": 15.7732,
      "duration": 0.055,
      "velocity": 92,
      "chip": "ym2612"
    },
    {
      "channel": 2,
      "note": 58,
      "start": 15.8177,
      "duration": 0.031,
      "velocity": 108,
      "chip": "ym2612"
    },
    {
      "channel": 3,
      "note": 71,
      "start": 15.8202,
      "duration": 0.0611,
      "velocity": 92,
      "chip": "ym2612"
    },
    {
      "channel": 0,
      "note": 58,
      "start": 15.831,
      "duration": 0.0302,
      "velocity": 108,
      "chip": "ym2612"
    },
    {
      "channel": 4,
      "note": 71,
      "start": 15.8398,
      "duration": 0.072,
      "velocity": 92,
      "chip": "ym2612"
    },
    {
      "channel": 2,
      "note": 70,
      "start": 15.8884,
      "duration": 0.0287,
      "velocity": 108,
      "chip": "ym2612"
    },
    {
      "channel": 0,
      "note": 70,
      "start": 15.9004,
      "duration": 0.0293,
      "velocity": 108,
      "chip": "ym2612"
    },
    {
      "channel": 2,
      "note": 58,
      "start": 15.9588,
      "duration": 0.0324,
      "velocity": 108,
      "chip": "ym2612"
    },
    {
      "channel": 3,
      "note": 71,
      "start": 15.9612,
      "duration": 0.0478,
      "velocity": 92,
      "chip": "ym2612"
    },
    {
      "channel": 0,
      "note": 58,
      "start": 15.9671,
      "duration": 0.0295,
      "velocity": 108,
      "chip": "ym2612"
    },
    {
      "channel": 4,
      "note": 71,
      "start": 15.9802,
      "duration": 0.0578,
      "velocity": 92,
      "chip": "ym2612"
    },
    {
      "channel": 1,
      "note": 33,
      "start": 16.0288,
      "duration": 0.0284,
      "velocity": 126,
      "chip": "ym2612"
    },
    {
      "channel": 3,
      "note": 70,
      "start": 16.0319,
      "duration": 0.0448,
      "velocity": 92,
      "chip": "ym2612"
    },
    {
      "channel": 4,
      "note": 70,
      "start": 16.0469,
      "duration": 0.056,
      "velocity": 92,
      "chip": "ym2612"
    },
    {
      "channel": 2,
      "note": 58,
      "start": 16.0922,
      "duration": 0.0316,
      "velocity": 108,
      "chip": "ym2612"
    },
    {
      "channel": 3,
      "note": 70,
      "start": 16.0946,
      "duration": 0.0291,
      "velocity": 92,
      "chip": "ym2612"
    },
    {
      "channel": 0,
      "note": 58,
      "start": 16.1056,
      "duration": 0.0301,
      "velocity": 108,
      "chip": "ym2612"
    },
    {
      "channel": 4,
      "note": 70,
      "start": 16.1204,
      "duration": 0.0277,
      "velocity": 92,
      "chip": "ym2612"
    },
    {
      "channel": 1,
      "note": 33,
      "start": 16.1777,
      "duration": 0.0329,
      "velocity": 126,
      "chip": "ym2612"
    },
    {
      "channel": 2,
      "note": 58,
      "start": 16.181,
      "duration": 0.0298,
      "velocity": 108,
      "chip": "ym2612"
    },
    {
      "channel": 3,
      "note": 70,
      "start": 16.1836,
      "duration": 0.0461,
      "velocity": 92,
      "chip": "ym2612"
    },
    {
      "channel": 0,
      "note": 58,
      "start": 16.1892,
      "duration": 0.0276,
      "velocity": 108,
      "chip": "ym2612"
    },
    {
      "channel": 4,
      "note": 70,
      "start": 16.2002,
      "duration": 0.0584,
      "velocity": 92,
      "chip": "ym2612"
    },
    {
      "channel": 3,
      "note": 71,
      "start": 16.2502,
      "duration": 0.1026,
      "velocity": 92,
      "chip": "ym2612"
    },
    {
      "channel": 4,
      "note": 71,
      "start": 16.2677,
      "duration": 0.1165,
      "velocity": 92,
      "chip": "ym2612"
    },
    {
      "channel": 1,
      "note": 33,
      "start": 16.3594,
      "duration": 0.0312,
      "velocity": 126,
      "chip": "ym2612"
    },
    {
      "channel": 2,
      "note": 58,
      "start": 16.3627,
      "duration": 0.0281,
      "velocity": 108,
      "chip": "ym2612"
    },
    {
      "channel": 0,
      "note": 58,
      "start": 16.3737,
      "duration": 0.0307,
      "velocity": 108,
      "chip": "ym2612"
    },
    {
      "channel": 2,
      "note": 58,
      "start": 16.4295,
      "duration": 0.0371,
      "velocity": 108,
      "chip": "ym2612"
    },
    {
      "channel": 3,
      "note": 71,
      "start": 16.4323,
      "duration": 0.084,
      "velocity": 92,
      "chip": "ym2612"
    },
    {
      "channel": 0,
      "note": 58,
      "start": 16.4422,
      "duration": 0.0408,
      "velocity": 108,
      "chip": "ym2612"
    },
    {
      "channel": 4,
      "note": 71,
      "start": 16.4565,
      "duration": 0.1041,
      "velocity": 92,
      "chip": "ym2612"
    },
    {
      "channel": 1,
      "note": 33,
      "start": 16.5562,
      "duration": 0.0304,
      "velocity": 126,
      "chip": "ym2612"
    },
    {
      "channel": 3,
      "note": 70,
      "start": 16.5591,
      "duration": 0.046,
      "velocity": 92,
      "chip": "ym2612"
    },
    {
      "channel": 4,
      "note": 70,
      "start": 16.5758,
      "duration": 0.0589,
      "velocity": 92,
      "chip": "ym2612"
    },
    {
      "channel": 2,
      "note": 61,
      "start": 16.6256,
      "duration": 0.0303,
      "velocity": 108,
      "chip": "ym2612"
    },
    {
      "channel": 3,
      "note": 70,
      "start": 16.6283,
      "duration": 0.0275,
      "velocity": 92,
      "chip": "ym2612"
    },
    {
      "channel": 0,
      "note": 61,
      "start": 16.6384,
      "duration": 0.0407,
      "velocity": 108,
      "chip": "ym2612"
    },
    {
      "channel": 4,
      "note": 70,
      "start": 16.6514,
      "duration": 0.0612,
      "velocity": 92,
      "chip": "ym2612"
    },
    {
      "channel": 1,
      "note": 33,
      "start": 16.7358,
      "duration": 0.0362,
      "velocity": 126,
      "chip": "ym2612"
    },
    {
      "channel": 3,
      "note": 70,
      "start": 16.7386,
      "duration": 0.0515,
      "velocity": 92,
      "chip": "ym2612"
    },
    {
      "channel": 4,
      "note": 70,
      "start": 16.7631,
      "duration": 0.0532,
      "velocity": 92,
      "chip": "ym2612"
    },
    {
      "channel": 1,
      "note": 33,
      "start": 16.8091,
      "duration": 0.0322,
      "velocity": 126,
      "chip": "ym2612"
    },
    {
      "channel": 2,
      "note": 61,
      "start": 16.8126,
      "duration": 0.0288,
      "velocity": 108,
      "chip": "ym2612"
    },
    {
      "channel": 3,
      "note": 71,
      "start": 16.8151,
      "duration": 0.0662,
      "velocity": 92,
      "chip": "ym2612"
    },
    {
      "channel": 0,
      "note": 61,
      "start": 16.8201,
      "duration": 0.0444,
      "velocity": 108,
      "chip": "ym2612"
    },
    {
      "channel": 4,
      "note": 71,
      "start": 16.8316,
      "duration": 0.1005,
      "velocity": 92,
      "chip": "ym2612"
    },
    {
      "channel": 2,
      "note": 56,
      "start": 16.9226,
      "duration": 0.031,
      "velocity": 108,
      "chip": "ym2612"
    },
    {
      "channel": 3,
      "note": 68,
      "start": 16.9248,
      "duration": 0.0529,
      "velocity": 92,
      "chip": "ym2612"
    },
    {
      "channel": 0,
      "note": 56,
      "start": 16.9347,
      "duration": 0.0304,
      "velocity": 108,
      "chip": "ym2612"
    },
    {
      "channel": 4,
      "note": 68,
      "start": 16.9421,
      "duration": 0.0566,
      "velocity": 92,
      "chip": "ym2612"
    },
    {
      "channel": 2,
      "note": 61,
      "start": 16.9883,
      "duration": 0.0315,
      "velocity": 108,
      "chip": "ym2612"
    },
    {
      "channel": 3,
      "note": 68,
      "start": 16.9907,
      "duration": 0.0289,
      "velocity": 92,
      "chip": "ym2612"
    },
    {
      "channel": 0,
      "note": 61,
      "start": 17.0015,
      "duration": 0.031,
      "velocity": 108,
      "chip": "ym2612"
    },
    {
      "channel": 4,
      "note": 68,
      "start": 17.016,
      "duration": 0.0291,
      "velocity": 92,
      "chip": "ym2612"
    },
    {
      "channel": 1,
      "note": 33,
      "start": 17.0608,
      "duration": 0.0539,
      "velocity": 126,
      "chip": "ym2612"
    },
    {
      "channel": 3,
      "note": 68,
      "start": 17.0638,
      "duration": 0.101,
      "velocity": 92,
      "chip": "ym2612"
    },
    {
      "channel": 4,
      "note": 68,
      "start": 17.0851,
      "duration": 0.1464,
      "velocity": 92,
      "chip": "ym2612"
    },
    {
      "channel": 2,
      "note": 56,
      "start": 17.2017,
      "duration": 0.08,
      "velocity": 108,
      "chip": "ym2612"
    },
    {
      "channel": 3,
      "note": 69,
      "start": 17.2051,
      "duration": 0.1597,
      "velocity": 92,
      "chip": "ym2612"
    },
    {
      "channel": 0,
      "note": 56,
      "start": 17.235,
      "duration": 0.0798,
      "velocity": 108,
      "chip": "ym2612"
    },
    {
      "channel": 4,
      "note": 69,
      "start": 17.2532,
      "duration": 0.142,
      "velocity": 92,
      "chip": "ym2612"
    },
    {
      "channel": 2,
      "note": 59,
      "start": 17.3717,
      "duration": 0.0289,
      "velocity": 108,
      "chip": "ym2612"
    },
    {
      "channel": 0,
      "note": 59,
      "start": 17.3837,
      "duration": 0.0294,
      "velocity": 108,
      "chip": "ym2612"
    },
    {
      "channel": 3,
      "note": 69,
      "start": 17.4425,
      "duration": 0.0479,
      "velocity": 92,
      "chip": "ym2612"
    },
    {
      "channel": 4,
      "note": 69,
      "start": 17.4618,
      "duration": 0.0565,
      "velocity": 92,
      "chip": "ym2612"
    },
    {
      "channel": 1,
      "note": 33,
      "start": 17.5051,
      "duration": 0.0601,
      "velocity": 126,
      "chip": "ym2612"
    },
    {
      "channel": 2,
      "note": 56,
      "start": 17.5083,
      "duration": 0.0571,
      "velocity": 108,
      "chip": "ym2612"
    },
    {
      "channel": 3,
      "note": 68,
      "start": 17.5119,
      "duration": 0.2199,
      "velocity": 92,
      "chip": "ym2612"
    },
    {
      "channel": 0,
      "note": 56,
      "start": 17.5228,
      "duration": 0.0757,
      "velocity": 108,
      "chip": "ym2612"
    },
    {
      "channel": 4,
      "note": 68,
      "start": 17.5356,
      "duration": 0.2629,
      "velocity": 92,
      "chip": "ym2612"
    },
    {
      "channel": 2,
      "note": 58,
      "start": 17.6531,
      "duration": 0.0789,
      "velocity": 108,
      "chip": "ym2612"
    },
    {
      "channel": 0,
      "note": 58,
      "start": 17.6855,
      "duration": 0.0796,
      "velocity": 108,
      "chip": "ym2612"
    },
    {
      "channel": 2,
      "note": 56,
      "start": 17.8888,
      "duration": 0.0295,
      "velocity": 108,
      "chip": "ym2612"
    },
    {
      "channel": 0,
      "note": 56,
      "start": 17.8949,
      "duration": 0.0355,
      "velocity": 108,
      "chip": "ym2612"
    },
    {
      "channel": 1,
      "note": 33,
      "start": 17.9512,
      "duration": 0.0619,
      "velocity": 126,
      "chip": "ym2612"
    },
    {
      "channel": 2,
      "note": 57,
      "start": 17.9551,
      "duration": 0.0581,
      "velocity": 108,
      "chip": "ym2612"
    },
    {
      "channel": 3,
      "note": 68,
      "start": 17.9576,
      "duration": 0.2388,
      "velocity": 92,
      "chip": "ym2612"
    },
    {
      "channel": 0,
      "note": 57,
      "start": 17.9691,
      "duration": 0.0772,
      "velocity": 108,
      "chip": "ym2612"
    },
    {
      "channel": 4,
      "note": 68,
      "start": 17.9999,
      "duration": 0.2465,
      "velocity": 92,
      "chip": "ym2612"
    },
    {
      "channel": 2,
      "note": 56,
      "start": 18.0999,
      "duration": 0.0968,
      "velocity": 108,
      "chip": "ym2612"
    },
    {
      "channel": 0,
      "note": 56,
      "start": 18.133,
      "duration": 0.0799,
      "velocity": 108,
      "chip": "ym2612"
    },
    {
      "channel": 2,
      "note": 69,
      "start": 18.2864,
      "duration": 0.0293,
      "velocity": 108,
      "chip": "ym2612"
    },
    {
      "channel": 0,
      "note": 69,
      "start": 18.2929,
      "duration": 0.0354,
      "velocity": 108,
      "chip": "ym2612"
    },
    {
      "channel": 2,
      "note": 54,
      "start": 18.35,
      "duration": 0.029,
      "velocity": 108,
      "chip": "ym2612"
    },
    {
      "channel": 0,
      "note": 54,
      "start": 18.3632,
      "duration": 0.0277,
      "velocity": 108,
      "chip": "ym2612"
    },
    {
      "channel": 1,
      "note": 33,
      "start": 18.4131,
      "duration": 0.0483,
      "velocity": 126,
      "chip": "ym2612"
    },
    {
      "channel": 2,
      "note": 59,
      "start": 18.4166,
      "duration": 0.0451,
      "velocity": 108,
      "chip": "ym2612"
    },
    {
      "channel": 3,
      "note": 68,
      "start": 18.4191,
      "duration": 0.2256,
      "velocity": 92,
      "chip": "ym2612"
    },
    {
      "channel": 0,
      "note": 59,
      "start": 18.4286,
      "duration": 0.0661,
      "velocity": 108,
      "chip": "ym2612"
    },
    {
      "channel": 4,
      "note": 68,
      "start": 18.4485,
      "duration": 0.2462,
      "velocity": 92,
      "chip": "ym2612"
    },
    {
      "channel": 2,
      "note": 58,
      "start": 18.5659,
      "duration": 0.0791,
      "velocity": 108,
      "chip": "ym2612"
    },
    {
      "channel": 0,
      "note": 58,
      "start": 18.5816,
      "duration": 0.0798,
      "velocity": 108,
      "chip": "ym2612"
    },
    {
      "channel": 2,
      "note": 56,
      "start": 18.7356,
      "duration": 0.032,
      "velocity": 108,
      "chip": "ym2612"
    },
    {
      "channel": 3,
      "note": 68,
      "start": 18.738,
      "duration": 0.0527,
      "velocity": 92,
      "chip": "ym2612"
    },
    {
      "channel": 0,
      "note": 56,
      "start": 18.7485,
      "duration": 0.03,
      "velocity": 108,
      "chip": "ym2612"
    },
    {
      "channel": 4,
      "note": 68,
      "start": 18.7559,
      "duration": 0.0545,
      "velocity": 92,
      "chip": "ym2612"
    },
    {
      "channel": 3,
      "note": 68,
      "start": 18.8007,
      "duration": 0.0287,
      "velocity": 92,
      "chip": "ym2612"
    },
    {
      "channel": 4,
      "note": 68,
      "start": 18.826,
      "duration": 0.0284,
      "velocity": 92,
      "chip": "ym2612"
    },
    {
      "channel": 1,
      "note": 33,
      "start": 18.873,
      "duration": 0.0322,
      "velocity": 126,
      "chip": "ym2612"
    },
    {
      "channel": 2,
      "note": 56,
      "start": 18.8765,
      "duration": 0.0288,
      "velocity": 108,
      "chip": "ym2612"
    },
    {
      "channel": 3,
      "note": 68,
      "start": 18.8793,
      "duration": 0.0454,
      "velocity": 92,
      "chip": "ym2612"
    },
    {
      "channel": 0,
      "note": 56,
      "start": 18.8843,
      "duration": 0.0273,
      "velocity": 108,
      "chip": "ym2612"
    },
    {
      "channel": 4,
      "note": 68,
      "start": 18.8955,
      "duration": 0.0563,
      "velocity": 92,
      "chip": "ym2612"
    },
    {
      "channel": 2,
      "note": 56,
      "start": 18.9397,
      "duration": 0.0322,
      "velocity": 108,
      "chip": "ym2612"
    },
    {
      "channel": 3,
      "note": 68,
      "start": 18.9431,
      "duration": 0.0595,
      "velocity": 92,
      "chip": "ym2612"
    },
    {
      "channel": 0,
      "note": 56,
      "start": 18.9551,
      "duration": 0.0291,
      "velocity": 108,
      "chip": "ym2612"
    },
    {
      "channel": 4,
      "note": 68,
      "start": 18.9617,
      "duration": 0.0676,
      "velocity": 92,
      "chip": "ym2612"
    },
    {
      "channel": 2,
      "note": 56,
      "start": 19.0696,
      "duration": 0.039,
      "velocity": 108,
      "chip": "ym2612"
    },
    {
      "channel": 3,
      "note": 68,
      "start": 19.0722,
      "duration": 0.0543,
      "velocity": 92,
      "chip": "ym2612"
    },
    {
      "channel": 0,
      "note": 56,
      "start": 19.0847,
      "duration": 0.0288,
      "velocity": 108,
      "chip": "ym2612"
    },
    {
      "channel": 4,
      "note": 68,
      "start": 19.0975,
      "duration": 0.058,
      "velocity": 92,
      "chip": "ym2612"
    },
    {
      "channel": 1,
      "note": 33,
      "start": 19.1454,
      "duration": 0.0307,
      "velocity": 126,
      "chip": "ym2612"
    },
    {
      "channel": 2,
      "note": 56,
      "start": 19.1487,
      "duration": 0.0275,
      "velocity": 108,
      "chip": "ym2612"
    },
    {
      "channel": 3,
      "note": 68,
      "start": 19.1513,
      "duration": 0.0911,
      "velocity": 92,
      "chip": "ym2612"
    },
    {
      "channel": 0,
      "note": 56,
      "start": 19.1594,
      "duration": 0.0292,
      "velocity": 108,
      "chip": "ym2612"
    },
    {
      "channel": 4,
      "note": 68,
      "start": 19.1671,
      "duration": 0.1,
      "velocity": 92,
      "chip": "ym2612"
    },
    {
      "channel": 2,
      "note": 56,
      "start": 19.2138,
      "duration": 0.0287,
      "velocity": 108,
      "chip": "ym2612"
    },
    {
      "channel": 0,
      "note": 56,
      "start": 19.2253,
      "duration": 0.0295,
      "velocity": 108,
      "chip": "ym2612"
    },
    {
      "channel": 2,
      "note": 56,
      "start": 19.2805,
      "duration": 0.0338,
      "velocity": 108,
      "chip": "ym2612"
    },
    {
      "channel": 0,
      "note": 56,
      "start": 19.2921,
      "duration": 0.0281,
      "velocity": 108,
      "chip": "ym2612"
    },
    {
      "channel": 3,
      "note": 68,
      "start": 19.3486,
      "duration": 0.0296,
      "velocity": 92,
      "chip": "ym2612"
    },
    {
      "channel": 4,
      "note": 68,
      "start": 19.3675,
      "duration": 0.028,
      "velocity": 92,
      "chip": "ym2612"
    },
    {
      "channel": 1,
      "note": 33,
      "start": 19.4103,
      "duration": 0.0562,
      "velocity": 126,
      "chip": "ym2612"
    },
    {
      "channel": 3,
      "note": 68,
      "start": 19.4133,
      "duration": 0.0533,
      "velocity": 92,
      "chip": "ym2612"
    },
    {
      "channel": 4,
      "note": 68,
      "start": 19.4369,
      "duration": 0.0964,
      "velocity": 92,
      "chip": "ym2612"
    },
    {
      "channel": 3,
      "note": 68,
      "start": 19.5541,
      "duration": 0.0791,
      "velocity": 92,
      "chip": "ym2612"
    },
    {
      "channel": 4,
      "note": 68,
      "start": 19.6203,
      "duration": 0.0796,
      "velocity": 92,
      "chip": "ym2612"
    },
    {
      "channel": 3,
      "note": 68,
      "start": 19.7388,
      "duration": 0.0779,
      "velocity": 92,
      "chip": "ym2612"
    },
    {
      "channel": 4,
      "note": 68,
      "start": 19.787,
      "duration": 0.0796,
      "velocity": 92,
      "chip": "ym2612"
    },
    {
      "channel": 3,
      "note": 68,
      "start": 19.9049,
      "duration": 0.0784,
      "velocity": 92,
      "chip": "ym2612"
    },
    {
      "channel": 4,
      "note": 68,
      "start": 19.9536,
      "duration": 0.0964,
      "velocity": 92,
      "chip": "ym2612"
    },
    {
      "channel": 3,
      "note": 68,
      "start": 20.0717,
      "duration": 0.0783,
      "velocity": 92,
      "chip": "ym2612"
    },
    {
      "channel": 4,
      "note": 68,
      "start": 20.137,
      "duration": 0.0796,
      "velocity": 92,
      "chip": "ym2612"
    },
    {
      "channel": 1,
      "note": 33,
      "start": 20.2566,
      "duration": 0.0195,
      "velocity": 126,
      "chip": "ym2612"
    },
    {
      "channel": 2,
      "note": 69,
      "start": 20.2599,
      "duration": 0.0296,
      "velocity": 108,
      "chip": "ym2612"
    },
    {
      "channel": 3,
      "note": 68,
      "start": 20.2632,
      "duration": 0.0262,
      "velocity": 92,
      "chip": "ym2612"
    },
    {
      "channel": 0,
      "note": 69,
      "start": 20.2693,
      "duration": 0.0292,
      "velocity": 108,
      "chip": "ym2612"
    },
    {
      "channel": 4,
      "note": 68,
      "start": 20.279,
      "duration": 0.0316,
      "velocity": 92,
      "chip": "ym2612"
    },
    {
      "channel": 1,
      "note": 33,
      "start": 20.2961,
      "duration": 0.0143,
      "velocity": 126,
      "chip": "ym2612"
    },
    {
      "channel": 2,
      "note": 59,
      "start": 20.3357,
      "duration": 0.0237,
      "velocity": 108,
      "chip": "ym2612"
    },
    {
      "channel": 3,
      "note": 92,
      "start": 20.3397,
      "duration": 3.6008,
      "velocity": 92,
      "chip": "ym2612"
    },
    {
      "channel": 0,
      "note": 59,
      "start": 20.3447,
      "duration": 0.0272,
      "velocity": 108,
      "chip": "ym2612"
    },
    {
      "channel": 4,
      "note": 92,
      "start": 20.3501,
      "duration": 3.615,
      "velocity": 92,
      "chip": "ym2612"
    },
    {
      "channel": 2,
      "note": 56,
      "start": 20.3941,
      "duration": 0.0305,
      "velocity": 108,
      "chip": "ym2612"
    },
    {
      "channel": 0,
      "note": 56,
      "start": 20.4081,
      "duration": 0.028,
      "velocity": 108,
      "chip": "ym2612"
    },
    {
      "channel": 1,
      "note": 33,
      "start": 20.4583,
      "duration": 0.059,
      "velocity": 126,
      "chip": "ym2612"
    },
    {
      "channel": 2,
      "note": 56,
      "start": 20.6043,
      "duration": 0.0798,
      "velocity": 108,
      "chip": "ym2612"
    },
    {
      "channel": 0,
      "note": 56,
      "start": 20.6375,
      "duration": 0.0798,
      "velocity": 108,
      "chip": "ym2612"
    },
    {
      "channel": 2,
      "note": 68,
      "start": 20.7745,
      "duration": 0.0292,
      "velocity": 108,
      "chip": "ym2612"
    },
    {
      "channel": 0,
      "note": 68,
      "start": 20.7863,
      "duration": 0.0299,
      "velocity": 108,
      "chip": "ym2612"
    },
    {
      "channel": 1,
      "note": 33,
      "start": 20.9043,
      "duration": 0.0606,
      "velocity": 126,
      "chip": "ym2612"
    },
    {
      "channel": 2,
      "note": 56,
      "start": 20.9085,
      "duration": 0.0567,
      "velocity": 108,
      "chip": "ym2612"
    },
    {
      "channel": 0,
      "note": 56,
      "start": 20.9148,
      "duration": 0.0834,
      "velocity": 108,
      "chip": "ym2612"
    },
    {
      "channel": 2,
      "note": 56,
      "start": 21.2222,
      "duration": 0.0289,
      "velocity": 108,
      "chip": "ym2612"
    },
    {
      "channel": 0,
      "note": 56,
      "start": 21.2345,
      "duration": 0.0295,
      "velocity": 108,
      "chip": "ym2612"
    },
    {
      "channel": 2,
      "note": 56,
      "start": 21.2926,
      "duration": 0.0293,
      "velocity": 108,
      "chip": "ym2612"
    },
    {
      "channel": 0,
      "note": 56,
      "start": 21.2997,
      "duration": 0.0351,
      "velocity": 108,
      "chip": "ym2612"
    },
    {
      "channel": 1,
      "note": 33,
      "start": 21.3551,
      "duration": 0.0593,
      "velocity": 126,
      "chip": "ym2612"
    },
    {
      "channel": 2,
      "note": 56,
      "start": 21.5013,
      "duration": 0.08,
      "velocity": 108,
      "chip": "ym2612"
    },
    {
      "channel": 0,
      "note": 56,
      "start": 21.5345,
      "duration": 0.08,
      "velocity": 108,
      "chip": "ym2612"
    },
    {
      "channel": 2,
      "note": 61,
      "start": 21.7502,
      "duration": 0.0288,
      "velocity": 108,
      "chip": "ym2612"
    },
    {
      "channel": 0,
      "note": 61,
      "start": 21.7621,
      "duration": 0.03,
      "velocity": 108,
      "chip": "ym2612"
    },
    {
      "channel": 1,
      "note": 33,
      "start": 21.8125,
      "duration": 0.0512,
      "velocity": 126,
      "chip": "ym2612"
    },
    {
      "channel": 2,
      "note": 56,
      "start": 21.9684,
      "duration": 0.079,
      "velocity": 108,
      "chip": "ym2612"
    },
    {
      "channel": 0,
      "note": 56,
      "start": 21.9842,
      "duration": 0.0796,
      "velocity": 108,
      "chip": "ym2612"
    },
    {
      "channel": 2,
      "note": 59,
      "start": 22.139,
      "duration": 0.0273,
      "velocity": 108,
      "chip": "ym2612"
    },
    {
      "channel": 0,
      "note": 59,
      "start": 22.1495,
      "duration": 0.0298,
      "velocity": 108,
      "chip": "ym2612"
    },
    {
      "channel": 2,
      "note": 56,
      "start": 22.2001,
      "duration": 0.03,
      "velocity": 108,
      "chip": "ym2612"
    },
    {
      "channel": 0,
      "note": 56,
      "start": 22.2141,
      "duration": 0.0283,
      "velocity": 108,
      "chip": "ym2612"
    },
    {
      "channel": 1,
      "note": 33,
      "start": 22.2649,
      "duration": 0.0639,
      "velocity": 126,
      "chip": "ym2612"
    },
    {
      "channel": 2,
      "note": 56,
      "start": 22.4159,
      "duration": 0.0798,
      "velocity": 108,
      "chip": "ym2612"
    },
    {
      "channel": 0,
      "note": 56,
      "start": 22.4325,
      "duration": 0.0963,
      "velocity": 108,
      "chip": "ym2612"
    },
    {
      "channel": 2,
      "note": 68,
      "start": 22.586,
      "duration": 0.0287,
      "velocity": 108,
      "chip": "ym2612"
    },
    {
      "channel": 0,
      "note": 68,
      "start": 22.5979,
      "duration": 0.0295,
      "velocity": 108,
      "chip": "ym2612"
    },
    {
      "channel": 2,
      "note": 56,
      "start": 22.6491,
      "duration": 0.036,
      "velocity": 108,
      "chip": "ym2612"
    },
    {
      "channel": 0,
      "note": 56,
      "start": 22.6629,
      "duration": 0.0281,
      "velocity": 108,
      "chip": "ym2612"
    },
    {
      "channel": 1,
      "note": 33,
      "start": 22.7185,
      "duration": 0.0578,
      "velocity": 126,
      "chip": "ym2612"
    },
    {
      "channel": 2,
      "note": 56,
      "start": 22.8639,
      "duration": 0.0795,
      "velocity": 108,
      "chip": "ym2612"
    },
    {
      "channel": 0,
      "note": 56,
      "start": 22.897,
      "duration": 0.0795,
      "velocity": 108,
      "chip": "ym2612"
    },
    {
      "channel": 2,
      "note": 56,
      "start": 23.0335,
      "duration": 0.0282,
      "velocity": 108,
      "chip": "ym2612"
    },
    {
      "channel": 0,
      "note": 56,
      "start": 23.0453,
      "duration": 0.0289,
      "velocity": 108,
      "chip": "ym2612"
    },
    {
      "channel": 1,
      "note": 33,
      "start": 23.1625,
      "duration": 0.0622,
      "velocity": 126,
      "chip": "ym2612"
    },
    {
      "channel": 2,
      "note": 56,
      "start": 23.1669,
      "duration": 0.0581,
      "velocity": 108,
      "chip": "ym2612"
    },
    {
      "channel": 0,
      "note": 56,
      "start": 23.1796,
      "duration": 0.0784,
      "velocity": 108,
      "chip": "ym2612"
    },
    {
      "channel": 2,
      "note": 56,
      "start": 23.3117,
      "duration": 0.0798,
      "velocity": 108,
      "chip": "ym2612"
    },
    {
      "channel": 0,
      "note": 56,
      "start": 23.3449,
      "duration": 0.0798,
      "velocity": 108,
      "chip": "ym2612"
    },
    {
      "channel": 2,
      "note": 59,
      "start": 23.5601,
      "duration": 0.0288,
      "velocity": 108,
      "chip": "ym2612"
    },
    {
      "channel": 0,
      "note": 59,
      "start": 23.572,
      "duration": 0.0302,
      "velocity": 108,
      "chip": "ym2612"
    },
    {
      "channel": 1,
      "note": 33,
      "start": 23.6225,
      "duration": 0.0514,
      "velocity": 126,
      "chip": "ym2612"
    },
    {
      "channel": 2,
      "note": 59,
      "start": 23.7619,
      "duration": 0.0955,
      "velocity": 108,
      "chip": "ym2612"
    },
    {
      "channel": 0,
      "note": 59,
      "start": 23.7942,
      "duration": 0.0796,
      "velocity": 108,
      "chip": "ym2612"
    },
    {
      "channel": 2,
      "note": 56,
      "start": 23.9507,
      "duration": 0.027,
      "velocity": 108,
      "chip": "ym2612"
    },
    {
      "channel": 0,
      "note": 56,
      "start": 23.9559,
      "duration": 0.0349,
      "velocity": 108,
      "chip": "ym2612"
    },
    {
      "channel": 2,
      "note": 61,
      "start": 24.0114,
      "duration": 0.0299,
      "velocity": 108,
      "chip": "ym2612"
    },
    {
      "channel": 0,
      "note": 61,
      "start": 24.0254,
      "duration": 0.0281,
      "velocity": 108,
      "chip": "ym2612"
    },
    {
      "channel": 1,
      "note": 33,
      "start": 24.0757,
      "duration": 0.0633,
      "velocity": 126,
      "chip": "ym2612"
    },
    {
      "channel": 2,
      "note": 56,
      "start": 24.2259,
      "duration": 0.0798,
      "velocity": 108,
      "chip": "ym2612"
    },
    {
      "channel": 0,
      "note": 56,
      "start": 24.2424,
      "duration": 0.0964,
      "velocity": 108,
      "chip": "ym2612"
    },
    {
      "channel": 2,
      "note": 59,
      "start": 24.3963,
      "duration": 0.0285,
      "velocity": 108,
      "chip": "ym2612"
    },
    {
      "channel": 0,
      "note": 59,
      "start": 24.4081,
      "duration": 0.0293,
      "velocity": 108,
      "chip": "ym2612"
    },
    {
      "channel": 1,
      "note": 33,
      "start": 24.525,
      "duration": 0.0598,
      "velocity": 126,
      "chip": "ym2612"
    },
    {
      "channel": 2,
      "note": 56,
      "start": 24.5294,
      "duration": 0.0556,
      "velocity": 108,
      "chip": "ym2612"
    },
    {
      "channel": 0,
      "note": 56,
      "start": 24.5339,
      "duration": 0.0675,
      "velocity": 108,
      "chip": "ym2612"
    },
    {
      "channel": 2,
      "note": 58,
      "start": 24.6731,
      "duration": 0.0785,
      "velocity": 108,
      "chip": "ym2612"
    },
    {
      "channel": 0,
      "note": 58,
      "start": 24.705,
      "duration": 0.0798,
      "velocity": 108,
      "chip": "ym2612"
    },
    {
      "channel": 2,
      "note": 56,
      "start": 24.9084,
      "duration": 0.0281,
      "velocity": 108,
      "chip": "ym2612"
    },
    {
      "channel": 0,
      "note": 56,
      "start": 24.9145,
      "duration": 0.0293,
      "velocity": 108,
      "chip": "ym2612"
    },
    {
      "channel": 1,
      "note": 33,
      "start": 24.9698,
      "duration": 0.0619,
      "velocity": 126,
      "chip": "ym2612"
    },
    {
      "channel": 2,
      "note": 57,
      "start": 24.9738,
      "duration": 0.0582,
      "velocity": 108,
      "chip": "ym2612"
    },
    {
      "channel": 0,
      "note": 57,
      "start": 24.9865,
      "duration": 0.0784,
      "velocity": 108,
      "chip": "ym2612"
    },
    {
      "channel": 2,
      "note": 56,
      "start": 25.1185,
      "duration": 0.0801,
      "velocity": 108,
      "chip": "ym2612"
    },
    {
      "channel": 0,
      "note": 56,
      "start": 25.1516,
      "duration": 0.08,
      "velocity": 108,
      "chip": "ym2612"
    },
    {
      "channel": 2,
      "note": 69,
      "start": 25.2885,
      "duration": 0.0353,
      "velocity": 108,
      "chip": "ym2612"
    },
    {
      "channel": 0,
      "note": 69,
      "start": 25.3004,
      "duration": 0.0298,
      "velocity": 108,
      "chip": "ym2612"
    },
    {
      "channel": 2,
      "note": 54,
      "start": 25.3599,
      "duration": 0.0289,
      "velocity": 108,
      "chip": "ym2612"
    },
    {
      "channel": 0,
      "note": 54,
      "start": 25.3668,
      "duration": 0.0349,
      "velocity": 108,
      "chip": "ym2612"
    },
    {
      "channel": 1,
      "note": 33,
      "start": 25.4224,
      "duration": 0.0595,
      "velocity": 126,
      "chip": "ym2612"
    },
    {
      "channel": 2,
      "note": 59,
      "start": 25.4256,
      "duration": 0.0566,
      "velocity": 108,
      "chip": "ym2612"
    },
    {
      "channel": 0,
      "note": 59,
      "start": 25.4384,
      "duration": 0.077,
      "velocity": 108,
      "chip": "ym2612"
    },
    {
      "channel": 2,
      "note": 58,
      "start": 25.5702,
      "duration": 0.0952,
      "velocity": 108,
      "chip": "ym2612"
    },
    {
      "channel": 0,
      "note": 58,
      "start": 25.602,
      "duration": 0.0799,
      "velocity": 108,
      "chip": "ym2612"
    },
    {
      "channel": 2,
      "note": 56,
      "start": 25.7572,
      "duration": 0.0273,
      "velocity": 108,
      "chip": "ym2612"
    },
    {
      "channel": 0,
      "note": 56,
      "start": 25.7625,
      "duration": 0.035,
      "velocity": 108,
      "chip": "ym2612"
    },
    {
      "channel": 2,
      "note": 56,
      "start": 25.8186,
      "duration": 0.03,
      "velocity": 108,
      "chip": "ym2612"
    },
    {
      "channel": 0,
      "note": 56,
      "start": 25.8325,
      "duration": 0.0283,
      "velocity": 108,
      "chip": "ym2612"
    },
    {
      "channel": 1,
      "note": 33,
      "start": 25.8838,
      "duration": 0.0466,
      "velocity": 126,
      "chip": "ym2612"
    },
    {
      "channel": 2,
      "note": 56,
      "start": 26.034,
      "duration": 0.0798,
      "velocity": 108,
      "chip": "ym2612"
    },
    {
      "channel": 0,
      "note": 56,
      "start": 26.0505,
      "duration": 0.0798,
      "velocity": 108,
      "chip": "ym2612"
    },
    {
      "channel": 2,
      "note": 56,
      "start": 26.2041,
      "duration": 0.0289,
      "velocity": 108,
      "chip": "ym2612"
    },
    {
      "channel": 0,
      "note": 56,
      "start": 26.2161,
      "duration": 0.0296,
      "velocity": 108,
      "chip": "ym2612"
    },
    {
      "channel": 1,
      "note": 33,
      "start": 26.3337,
      "duration": 0.0601,
      "velocity": 126,
      "chip": "ym2612"
    },
    {
      "channel": 2,
      "note": 56,
      "start": 26.338,
      "duration": 0.056,
      "velocity": 108,
      "chip": "ym2612"
    },
    {
      "channel": 0,
      "note": 56,
      "start": 26.3427,
      "duration": 0.0678,
      "velocity": 108,
      "chip": "ym2612"
    },
    {
      "channel": 2,
      "note": 56,
      "start": 26.4807,
      "duration": 0.0798,
      "velocity": 108,
      "chip": "ym2612"
    },
    {
      "channel": 0,
      "note": 56,
      "start": 26.5139,
      "duration": 0.0798,
      "velocity": 108,
      "chip": "ym2612"
    },
    {
      "channel": 2,
      "note": 56,
      "start": 26.7107,
      "duration": 0.0372,
      "velocity": 108,
      "chip": "ym2612"
    },
    {
      "channel": 0,
      "note": 56,
      "start": 26.7246,
      "duration": 0.0303,
      "velocity": 108,
      "chip": "ym2612"
    },
    {
      "channel": 1,
      "note": 33,
      "start": 26.7809,
      "duration": 0.0603,
      "velocity": 126,
      "chip": "ym2612"
    },
    {
      "channel": 2,
      "note": 56,
      "start": 26.785,
      "duration": 0.0564,
      "velocity": 108,
      "chip": "ym2612"
    },
    {
      "channel": 0,
      "note": 56,
      "start": 26.7898,
      "duration": 0.0847,
      "velocity": 108,
      "chip": "ym2612"
    },
    {
      "channel": 2,
      "note": 56,
      "start": 26.928,
      "duration": 0.0802,
      "velocity": 108,
      "chip": "ym2612"
    },
    {
      "channel": 0,
      "note": 56,
      "start": 26.9612,
      "duration": 0.0799,
      "velocity": 108,
      "chip": "ym2612"
    },
    {
      "channel": 2,
      "note": 56,
      "start": 27.0982,
      "duration": 0.0351,
      "velocity": 108,
      "chip": "ym2612"
    },
    {
      "channel": 0,
      "note": 56,
      "start": 27.1102,
      "duration": 0.0295,
      "velocity": 108,
      "chip": "ym2612"
    },
    {
      "channel": 2,
      "note": 56,
      "start": 27.1693,
      "duration": 0.0295,
      "velocity": 108,
      "chip": "ym2612"
    },
    {
      "channel": 0,
      "note": 56,
      "start": 27.1762,
      "duration": 0.0353,
      "velocity": 108,
      "chip": "ym2612"
    },
    {
      "channel": 1,
      "note": 33,
      "start": 27.2328,
      "duration": 0.0598,
      "velocity": 126,
      "chip": "ym2612"
    },
    {
      "channel": 2,
      "note": 56,
      "start": 27.236,
      "duration": 0.0568,
      "velocity": 108,
      "chip": "ym2612"
    },
    {
      "channel": 0,
      "note": 56,
      "start": 27.2488,
      "duration": 0.077,
      "velocity": 108,
      "chip": "ym2612"
    },
    {
      "channel": 2,
      "note": 69,
      "start": 27.3807,
      "duration": 0.0786,
      "velocity": 108,
      "chip": "ym2612"
    },
    {
      "channel": 0,
      "note": 69,
      "start": 27.4131,
      "duration": 0.0793,
      "velocity": 108,
      "chip": "ym2612"
    },
    {
      "channel": 2,
      "note": 59,
      "start": 27.5696,
      "duration": 0.0291,
      "velocity": 108,
      "chip": "ym2612"
    },
    {
      "channel": 3,
      "note": 92,
      "start": 27.5739,
      "duration": 0.1183,
      "velocity": 92,
      "chip": "ym2612"
    },
    {
      "channel": 0,
      "note": 59,
      "start": 27.5811,
      "duration": 0.0286,
      "velocity": 108,
      "chip": "ym2612"
    },
    {
      "channel": 4,
      "note": 88,
      "start": 27.5892,
      "duration": 0.1346,
      "velocity": 92,
      "chip": "ym2612"
    },
    {
      "channel": 2,
      "note": 56,
      "start": 27.6322,
      "duration": 0.0295,
      "velocity": 108,
      "chip": "ym2612"
    },
    {
      "channel": 0,
      "note": 56,
      "start": 27.6447,
      "duration": 0.0291,
      "velocity": 108,
      "chip": "ym2612"
    },
    {
      "channel": 1,
      "note": 33,
      "start": 27.6949,
      "duration": 0.0455,
      "velocity": 126,
      "chip": "ym2612"
    },
    {
      "channel": 3,
      "note": 68,
      "start": 27.699,
      "duration": 0.0748,
      "velocity": 92,
      "chip": "ym2612"
    },
    {
      "channel": 4,
      "note": 68,
      "start": 27.7277,
      "duration": 0.1126,
      "velocity": 92,
      "chip": "ym2612"
    },
    {
      "channel": 2,
      "note": 56,
      "start": 27.844,
      "duration": 0.0798,
      "velocity": 108,
      "chip": "ym2612"
    },
    {
      "channel": 3,
      "note": 68,
      "start": 27.8467,
      "duration": 0.0936,
      "velocity": 92,
      "chip": "ym2612"
    },
    {
      "channel": 0,
      "note": 56,
      "start": 27.8605,
      "duration": 0.0796,
      "velocity": 108,
      "chip": "ym2612"
    },
    {
      "channel": 4,
      "note": 68,
      "start": 27.8946,
      "duration": 0.1124,
      "velocity": 92,
      "chip": "ym2612"
    },
    {
      "channel": 2,
      "note": 68,
      "start": 28.0138,
      "duration": 0.0312,
      "velocity": 108,
      "chip": "ym2612"
    },
    {
      "channel": 3,
      "note": 83,
      "start": 28.0163,
      "duration": 0.0602,
      "velocity": 92,
      "chip": "ym2612"
    },
    {
      "channel": 0,
      "note": 68,
      "start": 28.0268,
      "duration": 0.0296,
      "velocity": 108,
      "chip": "ym2612"
    },
    {
      "channel": 4,
      "note": 79,
      "start": 28.0355,
      "duration": 0.0663,
      "velocity": 92,
      "chip": "ym2612"
    },
    {
      "channel": 3,
      "note": 68,
      "start": 28.0801,
      "duration": 0.0409,
      "velocity": 92,
      "chip": "ym2612"
    },
    {
      "channel": 4,
      "note": 68,
      "start": 28.1046,
      "duration": 0.0351,
      "velocity": 92,
      "chip": "ym2612"
    },
    {
      "channel": 1,
      "note": 33,
      "start": 28.1422,
      "duration": 0.0643,
      "velocity": 126,
      "chip": "ym2612"
    },
    {
      "channel": 2,
      "note": 56,
      "start": 28.1464,
      "duration": 0.0603,
      "velocity": 108,
      "chip": "ym2612"
    },
    {
      "channel": 3,
      "note": 66,
      "start": 28.1488,
      "duration": 0.0745,
      "velocity": 92,
      "chip": "ym2612"
    },
    {
      "channel": 0,
      "note": 56,
      "start": 28.1596,
      "duration": 0.0635,
      "velocity": 108,
      "chip": "ym2612"
    },
    {
      "channel": 4,
      "note": 66,
      "start": 28.1767,
      "duration": 0.1132,
      "velocity": 92,
      "chip": "ym2612"
    },
    {
      "channel": 3,
      "note": 80,
      "start": 28.2951,
      "duration": 0.1613,
      "velocity": 92,
      "chip": "ym2612"
    },
    {
      "channel": 4,
      "note": 80,
      "start": 28.3437,
      "duration": 0.1432,
      "velocity": 92,
      "chip": "ym2612"
    },
    {
      "channel": 2,
      "note": 56,
      "start": 28.4635,
      "duration": 0.0286,
      "velocity": 108,
      "chip": "ym2612"
    },
    {
      "channel": 0,
      "note": 56,
      "start": 28.4753,
      "duration": 0.0293,
      "velocity": 108,
      "chip": "ym2612"
    },
    {
      "channel": 2,
      "note": 56,
      "start": 28.5259,
      "duration": 0.0392,
      "velocity": 108,
      "chip": "ym2612"
    },
    {
      "channel": 3,
      "note": 68,
      "start": 28.5284,
      "duration": 0.042,
      "velocity": 92,
      "chip": "ym2612"
    },
    {
      "channel": 0,
      "note": 56,
      "start": 28.5411,
      "duration": 0.0292,
      "velocity": 108,
      "chip": "ym2612"
    },
    {
      "channel": 4,
      "note": 68,
      "start": 28.554,
      "duration": 0.0414,
      "velocity": 92,
      "chip": "ym2612"
    },
    {
      "channel": 1,
      "note": 33,
      "start": 28.5989,
      "duration": 0.0566,
      "velocity": 126,
      "chip": "ym2612"
    },
    {
      "channel": 3,
      "note": 68,
      "start": 28.6017,
      "duration": 0.0873,
      "velocity": 92,
      "chip": "ym2612"
    },
    {
      "channel": 4,
      "note": 68,
      "start": 28.6258,
      "duration": 0.1132,
      "velocity": 92,
      "chip": "ym2612"
    },
    {
      "channel": 2,
      "note": 56,
      "start": 28.7429,
      "duration": 0.0796,
      "velocity": 108,
      "chip": "ym2612"
    },
    {
      "channel": 3,
      "note": 68,
      "start": 28.7456,
      "duration": 0.1102,
      "velocity": 92,
      "chip": "ym2612"
    },
    {
      "channel": 0,
      "note": 56,
      "start": 28.776,
      "duration": 0.0796,
      "velocity": 108,
      "chip": "ym2612"
    },
    {
      "channel": 4,
      "note": 68,
      "start": 28.7933,
      "duration": 0.1124,
      "velocity": 92,
      "chip": "ym2612"
    },
    {
      "channel": 3,
      "note": 83,
      "start": 28.9125,
      "duration": 0.0654,
      "velocity": 92,
      "chip": "ym2612"
    },
    {
      "channel": 4,
      "note": 79,
      "start": 28.9388,
      "duration": 0.0617,
      "velocity": 92,
      "chip": "ym2612"
    },
    {
      "channel": 2,
      "note": 61,
      "start": 28.9823,
      "duration": 0.0327,
      "velocity": 108,
      "chip": "ym2612"
    },
    {
      "channel": 3,
      "note": 68,
      "start": 28.985,
      "duration": 0.0412,
      "velocity": 92,
      "chip": "ym2612"
    },
    {
      "channel": 0,
      "note": 61,
      "start": 28.991,
      "duration": 0.035,
      "velocity": 108,
      "chip": "ym2612"
    },
    {
      "channel": 4,
      "note": 68,
      "start": 29.0034,
      "duration": 0.0406,
      "velocity": 92,
      "chip": "ym2612"
    },
    {
      "channel": 1,
      "note": 33,
      "start": 29.0474,
      "duration": 0.0566,
      "velocity": 126,
      "chip": "ym2612"
    },
    {
      "channel": 3,
      "note": 78,
      "start": 29.0504,
      "duration": 0.1369,
      "velocity": 92,
      "chip": "ym2612"
    },
    {
      "channel": 4,
      "note": 78,
      "start": 29.0745,
      "duration": 0.1796,
      "velocity": 92,
      "chip": "ym2612"
    },
    {
      "channel": 2,
      "note": 56,
      "start": 29.1924,
      "duration": 0.0785,
      "velocity": 108,
      "chip": "ym2612"
    },
    {
      "channel": 0,
      "note": 56,
      "start": 29.2243,
      "duration": 0.0797,
      "velocity": 108,
      "chip": "ym2612"
    },
    {
      "channel": 2,
      "note": 59,
      "start": 29.3792,
      "duration": 0.0316,
      "velocity": 108,
      "chip": "ym2612"
    },
    {
      "channel": 3,
      "note": 92,
      "start": 29.3818,
      "duration": 0.1242,
      "velocity": 92,
      "chip": "ym2612"
    },
    {
      "channel": 0,
      "note": 59,
      "start": 29.3875,
      "duration": 0.0285,
      "velocity": 108,
      "chip": "ym2612"
    },
    {
      "channel": 4,
      "note": 88,
      "start": 29.4001,
      "duration": 0.1375,
      "velocity": 92,
      "chip": "ym2612"
    },
    {
      "channel": 2,
      "note": 56,
      "start": 29.445,
      "duration": 0.0293,
      "velocity": 108,
      "chip": "ym2612"
    },
    {
      "channel": 0,
      "note": 56,
      "start": 29.4577,
      "duration": 0.0292,
      "velocity": 108,
      "chip": "ym2612"
    },
    {
      "channel": 1,
      "note": 33,
      "start": 29.5089,
      "duration": 0.0452,
      "velocity": 126,
      "chip": "ym2612"
    },
    {
      "channel": 3,
      "note": 64,
      "start": 29.5127,
      "duration": 0.0747,
      "velocity": 92,
      "chip": "ym2612"
    },
    {
      "channel": 4,
      "note": 64,
      "start": 29.5413,
      "duration": 0.0962,
      "velocity": 92,
      "chip": "ym2612"
    },
    {
      "channel": 2,
      "note": 56,
      "start": 29.6411,
      "duration": 0.0964,
      "velocity": 108,
      "chip": "ym2612"
    },
    {
      "channel": 3,
      "note": 68,
      "start": 29.6438,
      "duration": 0.1102,
      "velocity": 92,
      "chip": "ym2612"
    },
    {
      "channel": 0,
      "note": 56,
      "start": 29.674,
      "duration": 0.0798,
      "velocity": 108,
      "chip": "ym2612"
    },
    {
      "channel": 4,
      "note": 68,
      "start": 29.7083,
      "duration": 0.1124,
      "velocity": 92,
      "chip": "ym2612"
    },
    {
      "channel": 2,
      "note": 68,
      "start": 29.8276,
      "duration": 0.031,
      "velocity": 108,
      "chip": "ym2612"
    },
    {
      "channel": 3,
      "note": 83,
      "start": 29.8303,
      "duration": 0.0586,
      "velocity": 92,
      "chip": "ym2612"
    },
    {
      "channel": 0,
      "note": 68,
      "start": 29.8406,
      "duration": 0.0294,
      "velocity": 108,
      "chip": "ym2612"
    },
    {
      "channel": 4,
      "note": 79,
      "start": 29.8494,
      "duration": 0.0685,
      "velocity": 92,
      "chip": "ym2612"
    },
    {
      "channel": 2,
      "note": 56,
      "start": 29.8929,
      "duration": 0.0315,
      "velocity": 108,
      "chip": "ym2612"
    },
    {
      "channel": 3,
      "note": 68,
      "start": 29.8953,
      "duration": 0.0419,
      "velocity": 92,
      "chip": "ym2612"
    },
    {
      "channel": 0,
      "note": 56,
      "start": 29.9068,
      "duration": 0.0302,
      "velocity": 108,
      "chip": "ym2612"
    },
    {
      "channel": 4,
      "note": 68,
      "start": 29.9214,
      "duration": 0.0335,
      "velocity": 92,
      "chip": "ym2612"
    },
    {
      "channel": 1,
      "note": 33,
      "start": 29.9573,
      "duration": 0.0615,
      "velocity": 126,
      "chip": "ym2612"
    },
    {
      "channel": 3,
      "note": 66,
      "start": 29.9602,
      "duration": 0.0753,
      "velocity": 92,
      "chip": "ym2612"
    },
    {
      "channel": 4,
      "note": 66,
      "start": 29.989,
      "duration": 0.1132,
      "velocity": 92,
      "chip": "ym2612"
    },
    {
      "channel": 2,
      "note": 56,
      "start": 30.1059,
      "duration": 0.0801,
      "velocity": 108,
      "chip": "ym2612"
    },
    {
      "channel": 3,
      "note": 83,
      "start": 30.109,
      "duration": 0.2278,
      "velocity": 92,
      "chip": "ym2612"
    },
    {
      "channel": 0,
      "note": 56,
      "start": 30.1224,
      "duration": 0.0964,
      "velocity": 108,
      "chip": "ym2612"
    },
    {
      "channel": 4,
      "note": 87,
      "start": 30.1583,
      "duration": 0.2039,
      "velocity": 92,
      "chip": "ym2612"
    },
    {
      "channel": 2,
      "note": 56,
      "start": 30.2759,
      "duration": 0.0294,
      "velocity": 108,
      "chip": "ym2612"
    },
    {
      "channel": 0,
      "note": 56,
      "start": 30.2884,
      "duration": 0.0297,
      "velocity": 108,
      "chip": "ym2612"
    },
    {
      "channel": 3,
      "note": 64,
      "start": 30.3395,
      "duration": 0.0429,
      "velocity": 92,
      "chip": "ym2612"
    },
    {
      "channel": 4,
      "note": 64,
      "start": 30.3668,
      "duration": 0.0405,
      "velocity": 92,
      "chip": "ym2612"
    },
    {
      "channel": 1,
      "note": 33,
      "start": 30.41,
      "duration": 0.0582,
      "velocity": 126,
      "chip": "ym2612"
    },
    {
      "channel": 2,
      "note": 56,
      "start": 30.4135,
      "duration": 0.055,
      "velocity": 108,
      "chip": "ym2612"
    },
    {
      "channel": 3,
      "note": 68,
      "start": 30.4169,
      "duration": 0.0849,
      "velocity": 92,
      "chip": "ym2612"
    },
    {
      "channel": 0,
      "note": 56,
      "start": 30.4231,
      "duration": 0.0783,
      "velocity": 108,
      "chip": "ym2612"
    },
    {
      "channel": 4,
      "note": 68,
      "start": 30.4385,
      "duration": 0.1132,
      "velocity": 92,
      "chip": "ym2612"
    },
    {
      "channel": 2,
      "note": 56,
      "start": 30.5554,
      "duration": 0.0797,
      "velocity": 108,
      "chip": "ym2612"
    },
    {
      "channel": 3,
      "note": 68,
      "start": 30.5581,
      "duration": 0.1103,
      "velocity": 92,
      "chip": "ym2612"
    },
    {
      "channel": 0,
      "note": 56,
      "start": 30.5884,
      "duration": 0.0798,
      "velocity": 108,
      "chip": "ym2612"
    },
    {
      "channel": 4,
      "note": 68,
      "start": 30.6059,
      "duration": 0.1125,
      "velocity": 92,
      "chip": "ym2612"
    },
    {
      "channel": 3,
      "note": 83,
      "start": 30.7254,
      "duration": 0.0647,
      "velocity": 92,
      "chip": "ym2612"
    },
    {
      "channel": 4,
      "note": 87,
      "start": 30.751,
      "duration": 0.0615,
      "velocity": 92,
      "chip": "ym2612"
    },
    {
      "channel": 2,
      "note": 59,
      "start": 30.7946,
      "duration": 0.0319,
      "velocity": 108,
      "chip": "ym2612"
    },
    {
      "channel": 3,
      "note": 68,
      "start": 30.7969,
      "duration": 0.0349,
      "velocity": 92,
      "chip": "ym2612"
    },
    {
      "channel": 0,
      "note": 59,
      "start": 30.803,
      "duration": 0.0288,
      "velocity": 108,
      "chip": "ym2612"
    },
    {
      "channel": 4,
      "note": 68,
      "start": 30.8153,
      "duration": 0.0415,
      "velocity": 92,
      "chip": "ym2612"
    },
    {
      "channel": 1,
      "note": 33,
      "start": 30.8603,
      "duration": 0.0567,
      "velocity": 126,
      "chip": "ym2612"
    },
    {
      "channel": 3,
      "note": 85,
      "start": 30.8633,
      "duration": 0.1369,
      "velocity": 92,
      "chip": "ym2612"
    },
    {
      "channel": 4,
      "note": 81,
      "start": 30.889,
      "duration": 0.1778,
      "velocity": 92,
      "chip": "ym2612"
    },
    {
      "channel": 2,
      "note": 59,
      "start": 31.0049,
      "duration": 0.0787,
      "velocity": 108,
      "chip": "ym2612"
    },
    {
      "channel": 0,
      "note": 59,
      "start": 31.037,
      "duration": 0.0797,
      "velocity": 108,
      "chip": "ym2612"
    },
    {
      "channel": 2,
      "note": 56,
      "start": 31.1929,
      "duration": 0.0304,
      "velocity": 108,
      "chip": "ym2612"
    },
    {
      "channel": 3,
      "note": 92,
      "start": 31.1956,
      "duration": 0.1215,
      "velocity": 92,
      "chip": "ym2612"
    },
    {
      "channel": 0,
      "note": 56,
      "start": 31.2014,
      "duration": 0.027,
      "velocity": 108,
      "chip": "ym2612"
    },
    {
      "channel": 4,
      "note": 88,
      "start": 31.2126,
      "duration": 0.1362,
      "velocity": 92,
      "chip": "ym2612"
    },
    {
      "channel": 2,
      "note": 61,
      "start": 31.2568,
      "duration": 0.0294,
      "velocity": 108,
      "chip": "ym2612"
    },
    {
      "channel": 0,
      "note": 61,
      "start": 31.27,
      "duration": 0.0288,
      "velocity": 108,
      "chip": "ym2612"
    },
    {
      "channel": 1,
      "note": 33,
      "start": 31.3199,
      "duration": 0.0455,
      "velocity": 126,
      "chip": "ym2612"
    },
    {
      "channel": 3,
      "note": 64,
      "start": 31.3239,
      "duration": 0.0748,
      "velocity": 92,
      "chip": "ym2612"
    },
    {
      "channel": 4,
      "note": 64,
      "start": 31.3524,
      "duration": 0.0961,
      "velocity": 92,
      "chip": "ym2612"
    },
    {
      "channel": 2,
      "note": 56,
      "start": 31.4522,
      "duration": 0.0964,
      "velocity": 108,
      "chip": "ym2612"
    },
    {
      "channel": 3,
      "note": 68,
      "start": 31.4549,
      "duration": 0.1103,
      "velocity": 92,
      "chip": "ym2612"
    },
    {
      "channel": 0,
      "note": 56,
      "start": 31.4853,
      "duration": 0.0798,
      "velocity": 108,
      "chip": "ym2612"
    },
    {
      "channel": 4,
      "note": 68,
      "start": 31.5195,
      "duration": 0.1124,
      "velocity": 92,
      "chip": "ym2612"
    },
    {
      "channel": 2,
      "note": 59,
      "start": 31.639,
      "duration": 0.0317,
      "velocity": 108,
      "chip": "ym2612"
    },
    {
      "channel": 3,
      "note": 96,
      "start": 31.6427,
      "duration": 0.12,
      "velocity": 92,
      "chip": "ym2612"
    },
    {
      "channel": 0,
      "note": 59,
      "start": 31.6479,
      "duration": 0.0342,
      "velocity": 108,
      "chip": "ym2612"
    },
    {
      "channel": 4,
      "note": 96,
      "start": 31.6613,
      "duration": 0.1354,
      "velocity": 92,
      "chip": "ym2612"
    },
    {
      "channel": 1,
      "note": 33,
      "start": 31.766,
      "duration": 0.064,
      "velocity": 126,
      "chip": "ym2612"
    },
    {
      "channel": 2,
      "note": 56,
      "start": 31.7693,
      "duration": 0.0609,
      "velocity": 108,
      "chip": "ym2612"
    },
    {
      "channel": 3,
      "note": 64,
      "start": 31.7718,
      "duration": 0.075,
      "velocity": 92,
      "chip": "ym2612"
    },
    {
      "channel": 0,
      "note": 56,
      "start": 31.7817,
      "duration": 0.065,
      "velocity": 108,
      "chip": "ym2612"
    },
    {
      "channel": 4,
      "note": 64,
      "start": 31.8004,
      "duration": 0.1128,
      "velocity": 92,
      "chip": "ym2612"
    },
    {
      "channel": 2,
      "note": 58,
      "start": 31.9186,
      "duration": 0.0782,
      "velocity": 108,
      "chip": "ym2612"
    },
    {
      "channel": 3,
      "note": 92,
      "start": 31.9217,
      "duration": 0.2229,
      "velocity": 92,
      "chip": "ym2612"
    },
    {
      "channel": 0,
      "note": 58,
      "start": 31.9339,
      "duration": 0.0961,
      "velocity": 108,
      "chip": "ym2612"
    },
    {
      "channel": 4,
      "note": 88,
      "start": 31.9684,
      "duration": 0.2045,
      "velocity": 92,
      "chip": "ym2612"
    },
    {
      "channel": 2,
      "note": 56,
      "start": 32.1476,
      "duration": 0.0329,
      "velocity": 108,
      "chip": "ym2612"
    },
    {
      "channel": 3,
      "note": 64,
      "start": 32.151,
      "duration": 0.0422,
      "velocity": 92,
      "chip": "ym2612"
    },
    {
      "channel": 0,
      "note": 56,
      "start": 32.1628,
      "duration": 0.0303,
      "velocity": 108,
      "chip": "ym2612"
    },
    {
      "channel": 4,
      "note": 64,
      "start": 32.1777,
      "duration": 0.041,
      "velocity": 92,
      "chip": "ym2612"
    },
    {
      "channel": 1,
      "note": 33,
      "start": 32.2213,
      "duration": 0.0578,
      "velocity": 126,
      "chip": "ym2612"
    },
    {
      "channel": 2,
      "note": 57,
      "start": 32.2245,
      "duration": 0.0549,
      "velocity": 108,
      "chip": "ym2612"
    },
    {
      "channel": 3,
      "note": 68,
      "start": 32.2268,
      "duration": 0.0691,
      "velocity": 92,
      "chip": "ym2612"
    },
    {
      "channel": 0,
      "note": 57,
      "start": 32.2328,
      "duration": 0.0629,
      "velocity": 108,
      "chip": "ym2612"
    },
    {
      "channel": 4,
      "note": 68,
      "start": 32.2493,
      "duration": 0.1132,
      "velocity": 92,
      "chip": "ym2612"
    },
    {
      "channel": 2,
      "note": 56,
      "start": 32.3661,
      "duration": 0.0798,
      "velocity": 108,
      "chip": "ym2612"
    },
    {
      "channel": 3,
      "note": 68,
      "start": 32.3688,
      "duration": 0.1104,
      "velocity": 92,
      "chip": "ym2612"
    },
    {
      "channel": 0,
      "note": 56,
      "start": 32.3991,
      "duration": 0.08,
      "velocity": 108,
      "chip": "ym2612"
    },
    {
      "channel": 4,
      "note": 68,
      "start": 32.4169,
      "duration": 0.1124,
      "velocity": 92,
      "chip": "ym2612"
    },
    {
      "channel": 2,
      "note": 69,
      "start": 32.5364,
      "duration": 0.0317,
      "velocity": 108,
      "chip": "ym2612"
    },
    {
      "channel": 3,
      "note": 83,
      "start": 32.5389,
      "duration": 0.0662,
      "velocity": 92,
      "chip": "ym2612"
    },
    {
      "channel": 0,
      "note": 69,
      "start": 32.5492,
      "duration": 0.0302,
      "velocity": 108,
      "chip": "ym2612"
    },
    {
      "channel": 4,
      "note": 79,
      "start": 32.5647,
      "duration": 0.0627,
      "velocity": 92,
      "chip": "ym2612"
    },
    {
      "channel": 2,
      "note": 54,
      "start": 32.6083,
      "duration": 0.0323,
      "velocity": 108,
      "chip": "ym2612"
    },
    {
      "channel": 3,
      "note": 68,
      "start": 32.6107,
      "duration": 0.0368,
      "velocity": 92,
      "chip": "ym2612"
    },
    {
      "channel": 0,
      "note": 54,
      "start": 32.6164,
      "duration": 0.031,
      "velocity": 108,
      "chip": "ym2612"
    },
    {
      "channel": 4,
      "note": 68,
      "start": 32.6306,
      "duration": 0.0409,
      "velocity": 92,
      "chip": "ym2612"
    },
    {
      "channel": 1,
      "note": 33,
      "start": 32.6741,
      "duration": 0.0544,
      "velocity": 126,
      "chip": "ym2612"
    },
    {
      "channel": 2,
      "note": 59,
      "start": 32.678,
      "duration": 0.0508,
      "velocity": 108,
      "chip": "ym2612"
    },
    {
      "channel": 3,
      "note": 78,
      "start": 32.6806,
      "duration": 0.1313,
      "velocity": 92,
      "chip": "ym2612"
    },
    {
      "channel": 0,
      "note": 59,
      "start": 32.6906,
      "duration": 0.0712,
      "velocity": 108,
      "chip": "ym2612"
    },
    {
      "channel": 4,
      "note": 78,
      "start": 32.6991,
      "duration": 0.1797,
      "velocity": 92,
      "chip": "ym2612"
    },
    {
      "channel": 2,
      "note": 58,
      "start": 32.8168,
      "duration": 0.0786,
      "velocity": 108,
      "chip": "ym2612"
    },
    {
      "channel": 0,
      "note": 58,
      "start": 32.8486,
      "duration": 0.08,
      "velocity": 108,
      "chip": "ym2612"
    },
    {
      "channel": 2,
      "note": 56,
      "start": 32.9871,
      "duration": 0.0365,
      "velocity": 108,
      "chip": "ym2612"
    },
    {
      "channel": 3,
      "note": 92,
      "start": 32.9899,
      "duration": 0.1276,
      "velocity": 92,
      "chip": "ym2612"
    },
    {
      "channel": 0,
      "note": 56,
      "start": 32.9993,
      "duration": 0.0302,
      "velocity": 108,
      "chip": "ym2612"
    },
    {
      "channel": 4,
      "note": 88,
      "start": 33.0147,
      "duration": 0.1444,
      "velocity": 92,
      "chip": "ym2612"
    },
    {
      "channel": 2,
      "note": 56,
      "start": 33.0572,
      "duration": 0.03,
      "velocity": 108,
      "chip": "ym2612"
    },
    {
      "channel": 0,
      "note": 56,
      "start": 33.0642,
      "duration": 0.0352,
      "velocity": 108,
      "chip": "ym2612"
    },
    {
      "channel": 1,
      "note": 33,
      "start": 33.121,
      "duration": 0.0547,
      "velocity": 126,
      "chip": "ym2612"
    },
    {
      "channel": 3,
      "note": 64,
      "start": 33.125,
      "duration": 0.0841,
      "velocity": 92,
      "chip": "ym2612"
    },
    {
      "channel": 4,
      "note": 64,
      "start": 33.1642,
      "duration": 0.0948,
      "velocity": 92,
      "chip": "ym2612"
    },
    {
      "channel": 2,
      "note": 56,
      "start": 33.2627,
      "duration": 0.0965,
      "velocity": 108,
      "chip": "ym2612"
    },
    {
      "channel": 3,
      "note": 64,
      "start": 33.2673,
      "duration": 0.1085,
      "velocity": 92,
      "chip": "ym2612"
    },
    {
      "channel": 0,
      "note": 56,
      "start": 33.2959,
      "duration": 0.0798,
      "velocity": 108,
      "chip": "ym2612"
    },
    {
      "channel": 4,
      "note": 64,
      "start": 33.3318,
      "duration": 0.1106,
      "velocity": 92,
      "chip": "ym2612"
    },
    {
      "channel": 2,
      "note": 56,
      "start": 33.4494,
      "duration": 0.0322,
      "velocity": 108,
      "chip": "ym2612"
    },
    {
      "channel": 3,
      "note": 88,
      "start": 33.4528,
      "duration": 0.1203,
      "velocity": 92,
      "chip": "ym2612"
    },
    {
      "channel": 0,
      "note": 56,
      "start": 33.4612,
      "duration": 0.0316,
      "velocity": 108,
      "chip": "ym2612"
    },
    {
      "channel": 4,
      "note": 88,
      "start": 33.472,
      "duration": 0.1353,
      "velocity": 92,
      "chip": "ym2612"
    },
    {
      "channel": 1,
      "note": 33,
      "start": 33.5764,
      "duration": 0.0475,
      "velocity": 126,
      "chip": "ym2612"
    },
    {
      "channel": 2,
      "note": 56,
      "start": 33.5798,
      "duration": 0.0444,
      "velocity": 108,
      "chip": "ym2612"
    },
    {
      "channel": 3,
      "note": 70,
      "start": 33.5831,
      "duration": 0.0742,
      "velocity": 92,
      "chip": "ym2612"
    },
    {
      "channel": 0,
      "note": 56,
      "start": 33.5923,
      "duration": 0.0648,
      "velocity": 108,
      "chip": "ym2612"
    },
    {
      "channel": 4,
      "note": 70,
      "start": 33.6124,
      "duration": 0.1115,
      "velocity": 92,
      "chip": "ym2612"
    },
    {
      "channel": 2,
      "note": 56,
      "start": 33.7276,
      "duration": 0.0799,
      "velocity": 108,
      "chip": "ym2612"
    },
    {
      "channel": 3,
      "note": 92,
      "start": 33.731,
      "duration": 0.6741,
      "velocity": 92,
      "chip": "ym2612"
    },
    {
      "channel": 0,
      "note": 56,
      "start": 33.7441,
      "duration": 0.0798,
      "velocity": 108,
      "chip": "ym2612"
    },
    {
      "channel": 4,
      "note": 88,
      "start": 33.78,
      "duration": 0.654,
      "velocity": 92,
      "chip": "ym2612"
    },
    {
      "channel": 2,
      "note": 56,
      "start": 33.9577,
      "duration": 0.0319,
      "velocity": 108,
      "chip": "ym2612"
    },
    {
      "channel": 0,
      "note": 56,
      "start": 33.9724,
      "duration": 0.0288,
      "velocity": 108,
      "chip": "ym2612"
    },
    {
      "channel": 1,
      "note": 33,
      "start": 34.0279,
      "duration": 0.0609,
      "velocity": 126,
      "chip": "ym2612"
    },
    {
      "channel": 2,
      "note": 56,
      "start": 34.0311,
      "duration": 0.058,
      "velocity": 108,
      "chip": "ym2612"
    },
    {
      "channel": 0,
      "note": 56,
      "start": 34.0378,
      "duration": 0.0675,
      "velocity": 108,
      "chip": "ym2612"
    },
    {
      "channel": 2,
      "note": 56,
      "start": 34.1755,
      "duration": 0.0801,
      "velocity": 108,
      "chip": "ym2612"
    },
    {
      "channel": 0,
      "note": 56,
      "start": 34.2088,
      "duration": 0.0797,
      "velocity": 108,
      "chip": "ym2612"
    },
    {
      "channel": 2,
      "note": 56,
      "start": 34.3455,
      "duration": 0.0297,
      "velocity": 108,
      "chip": "ym2612"
    },
    {
      "channel": 0,
      "note": 56,
      "start": 34.358,
      "duration": 0.0299,
      "velocity": 108,
      "chip": "ym2612"
    },
    {
      "channel": 2,
      "note": 56,
      "start": 34.4087,
      "duration": 0.039,
      "velocity": 108,
      "chip": "ym2612"
    },
    {
      "channel": 3,
      "note": 64,
      "start": 34.4135,
      "duration": 0.0405,
      "velocity": 92,
      "chip": "ym2612"
    },
    {
      "channel": 0,
      "note": 56,
      "start": 34.4232,
      "duration": 0.0306,
      "velocity": 108,
      "chip": "ym2612"
    },
    {
      "channel": 4,
      "note": 64,
      "start": 34.438,
      "duration": 0.0403,
      "velocity": 92,
      "chip": "ym2612"
    },
    {
      "channel": 1,
      "note": 33,
      "start": 34.4817,
      "duration": 0.0552,
      "velocity": 126,
      "chip": "ym2612"
    },
    {
      "channel": 2,
      "note": 56,
      "start": 34.4849,
      "duration": 0.0522,
      "velocity": 108,
      "chip": "ym2612"
    },
    {
      "channel": 3,
      "note": 88,
      "start": 34.4878,
      "duration": 0.1324,
      "velocity": 92,
      "chip": "ym2612"
    },
    {
      "channel": 0,
      "note": 56,
      "start": 34.4946,
      "duration": 0.0755,
      "velocity": 108,
      "chip": "ym2612"
    },
    {
      "channel": 4,
      "note": 92,
      "start": 34.5087,
      "duration": 0.1782,
      "velocity": 92,
      "chip": "ym2612"
    },
    {
      "channel": 2,
      "note": 69,
      "start": 34.6247,
      "duration": 0.0791,
      "velocity": 108,
      "chip": "ym2612"
    },
    {
      "channel": 3,
      "note": 64,
      "start": 34.6288,
      "duration": 0.1579,
      "velocity": 92,
      "chip": "ym2612"
    },
    {
      "channel": 0,
      "note": 69,
      "start": 34.657,
      "duration": 0.0797,
      "velocity": 108,
      "chip": "ym2612"
    },
    {
      "channel": 4,
      "note": 64,
      "start": 34.6919,
      "duration": 0.1267,
      "velocity": 92,
      "chip": "ym2612"
    },
    {
      "channel": 2,
      "note": 61,
      "start": 34.7972,
      "duration": 0.0347,
      "velocity": 108,
      "chip": "ym2612"
    },
    {
      "channel": 3,
      "note": 85,
      "start": 34.8014,
      "duration": 0.0605,
      "velocity": 92,
      "chip": "ym2612"
    },
    {
      "channel": 0,
      "note": 61,
      "start": 34.8088,
      "duration": 0.029,
      "velocity": 108,
      "chip": "ym2612"
    },
    {
      "channel": 4,
      "note": 81,
      "start": 34.8232,
      "duration": 0.0617,
      "velocity": 92,
      "chip": "ym2612"
    },
    {
      "channel": 2,
      "note": 58,
      "start": 34.8651,
      "duration": 0.0327,
      "velocity": 108,
      "chip": "ym2612"
    },
    {
      "channel": 3,
      "note": 72,
      "start": 34.8675,
      "duration": 0.0424,
      "velocity": 92,
      "chip": "ym2612"
    },
    {
      "channel": 0,
      "note": 58,
      "start": 34.8735,
      "duration": 0.0363,
      "velocity": 108,
      "chip": "ym2612"
    },
    {
      "channel": 4,
      "note": 72,
      "start": 34.8884,
      "duration": 0.0402,
      "velocity": 92,
      "chip": "ym2612"
    },
    {
      "channel": 1,
      "note": 33,
      "start": 34.935,
      "duration": 0.0302,
      "velocity": 126,
      "chip": "ym2612"
    },
    {
      "channel": 3,
      "note": 82,
      "start": 34.938,
      "duration": 0.0391,
      "velocity": 92,
      "chip": "ym2612"
    },
    {
      "channel": 4,
      "note": 82,
      "start": 34.9539,
      "duration": 0.0431,
      "velocity": 92,
      "chip": "ym2612"
    },
    {
      "channel": 2,
      "note": 58,
      "start": 35.0002,
      "duration": 0.0332,
      "velocity": 108,
      "chip": "ym2612"
    },
    {
      "channel": 3,
      "note": 85,
      "start": 35.0026,
      "duration": 0.0796,
      "velocity": 92,
      "chip": "ym2612"
    },
    {
      "channel": 0,
      "note": 58,
      "start": 35.0139,
      "duration": 0.0315,
      "velocity": 108,
      "chip": "ym2612"
    },
    {
      "channel": 4,
      "note": 81,
      "start": 35.0297,
      "duration": 0.0766,
      "velocity": 92,
      "chip": "ym2612"
    },
    {
      "channel": 2,
      "note": 70,
      "start": 35.0891,
      "duration": 0.0315,
      "velocity": 108,
      "chip": "ym2612"
    },
    {
      "channel": 3,
      "note": 72,
      "start": 35.0915,
      "duration": 0.0346,
      "velocity": 92,
      "chip": "ym2612"
    },
    {
      "channel": 0,
      "note": 70,
      "start": 35.0978,
      "duration": 0.0283,
      "velocity": 108,
      "chip": "ym2612"
    },
    {
      "channel": 4,
      "note": 72,
      "start": 35.1093,
      "duration": 0.0425,
      "velocity": 92,
      "chip": "ym2612"
    },
    {
      "channel": 3,
      "note": 82,
      "start": 35.1551,
      "duration": 0.0404,
      "velocity": 92,
      "chip": "ym2612"
    },
    {
      "channel": 4,
      "note": 82,
      "start": 35.1741,
      "duration": 0.0403,
      "velocity": 92,
      "chip": "ym2612"
    },
    {
      "channel": 1,
      "note": 33,
      "start": 35.2209,
      "duration": 0.0322,
      "velocity": 126,
      "chip": "ym2612"
    },
    {
      "channel": 2,
      "note": 58,
      "start": 35.2241,
      "duration": 0.0292,
      "velocity": 108,
      "chip": "ym2612"
    },
    {
      "channel": 3,
      "note": 85,
      "start": 35.2268,
      "duration": 0.0641,
      "velocity": 92,
      "chip": "ym2612"
    },
    {
      "channel": 0,
      "note": 58,
      "start": 35.236,
      "duration": 0.0293,
      "velocity": 108,
      "chip": "ym2612"
    },
    {
      "channel": 4,
      "note": 81,
      "start": 35.2508,
      "duration": 0.0594,
      "velocity": 92,
      "chip": "ym2612"
    },
    {
      "channel": 3,
      "note": 72,
      "start": 35.2944,
      "duration": 0.0357,
      "velocity": 92,
      "chip": "ym2612"
    },
    {
      "channel": 4,
      "note": 72,
      "start": 35.3131,
      "duration": 0.0537,
      "velocity": 92,
      "chip": "ym2612"
    },
    {
      "channel": 2,
      "note": 58,
      "start": 35.3739,
      "duration": 0.0314,
      "velocity": 108,
      "chip": "ym2612"
    },
    {
      "channel": 3,
      "note": 85,
      "start": 35.3766,
      "duration": 0.058,
      "velocity": 92,
      "chip": "ym2612"
    },
    {
      "channel": 0,
      "note": 58,
      "start": 35.3871,
      "duration": 0.0296,
      "velocity": 108,
      "chip": "ym2612"
    },
    {
      "channel": 4,
      "note": 81,
      "start": 35.396,
      "duration": 0.0678,
      "velocity": 92,
      "chip": "ym2612"
    },
    {
      "channel": 2,
      "note": 58,
      "start": 35.4387,
      "duration": 0.0319,
      "velocity": 108,
      "chip": "ym2612"
    },
    {
      "channel": 3,
      "note": 72,
      "start": 35.4412,
      "duration": 0.0422,
      "velocity": 92,
      "chip": "ym2612"
    },
    {
      "channel": 0,
      "note": 58,
      "start": 35.4526,
      "duration": 0.0307,
      "velocity": 108,
      "chip": "ym2612"
    },
    {
      "channel": 4,
      "note": 72,
      "start": 35.4673,
      "duration": 0.0346,
      "velocity": 92,
      "chip": "ym2612"
    },
    {
      "channel": 1,
      "note": 33,
      "start": 35.5082,
      "duration": 0.0361,
      "velocity": 126,
      "chip": "ym2612"
    },
    {
      "channel": 3,
      "note": 82,
      "start": 35.511,
      "duration": 0.0397,
      "velocity": 92,
      "chip": "ym2612"
    },
    {
      "channel": 4,
      "note": 82,
      "start": 35.5346,
      "duration": 0.0411,
      "velocity": 92,
      "chip": "ym2612"
    },
    {
      "channel": 2,
      "note": 58,
      "start": 35.5787,
      "duration": 0.033,
      "velocity": 108,
      "chip": "ym2612"
    },
    {
      "channel": 3,
      "note": 87,
      "start": 35.5824,
      "duration": 0.0726,
      "velocity": 92,
      "chip": "ym2612"
    },
    {
      "channel": 0,
      "note": 58,
      "start": 35.5943,
      "duration": 0.0297,
      "velocity": 108,
      "chip": "ym2612"
    },
    {
      "channel": 4,
      "note": 91,
      "start": 35.6029,
      "duration": 0.0807,
      "velocity": 92,
      "chip": "ym2612"
    },
    {
      "channel": 3,
      "note": 71,
      "start": 35.662,
      "duration": 0.0407,
      "velocity": 92,
      "chip": "ym2612"
    },
    {
      "channel": 4,
      "note": 71,
      "start": 35.6863,
      "duration": 0.0341,
      "velocity": 92,
      "chip": "ym2612"
    },
    {
      "channel": 2,
      "note": 63,
      "start": 35.7238,
      "duration": 0.0386,
      "velocity": 108,
      "chip": "ym2612"
    },
    {
      "channel": 3,
      "note": 82,
      "start": 35.7263,
      "duration": 0.0414,
      "velocity": 92,
      "chip": "ym2612"
    },
    {
      "channel": 0,
      "note": 63,
      "start": 35.7383,
      "duration": 0.0293,
      "velocity": 108,
      "chip": "ym2612"
    },
    {
      "channel": 4,
      "note": 82,
      "start": 35.7507,
      "duration": 0.0418,
      "velocity": 92,
      "chip": "ym2612"
    },
    {
      "channel": 1,
      "note": 33,
      "start": 35.8,
      "duration": 0.0292,
      "velocity": 126,
      "chip": "ym2612"
    },
    {
      "channel": 3,
      "note": 83,
      "start": 35.8033,
      "duration": 0.0577,
      "velocity": 92,
      "chip": "ym2612"
    },
    {
      "channel": 4,
      "note": 79,
      "start": 35.8193,
      "duration": 0.0635,
      "velocity": 92,
      "chip": "ym2612"
    },
    {
      "channel": 2,
      "note": 58,
      "start": 35.866,
      "duration": 0.031,
      "velocity": 108,
      "chip": "ym2612"
    },
    {
      "channel": 3,
      "note": 82,
      "start": 35.8685,
      "duration": 0.0401,
      "velocity": 92,
      "chip": "ym2612"
    },
    {
      "channel": 0,
      "note": 58,
      "start": 35.8782,
      "duration": 0.0302,
      "velocity": 108,
      "chip": "ym2612"
    },
    {
      "channel": 4,
      "note": 82,
      "start": 35.8857,
      "duration": 0.0424,
      "velocity": 92,
      "chip": "ym2612"
    },
    {
      "channel": 2,
      "note": 61,
      "start": 35.9356,
      "duration": 0.0305,
      "velocity": 108,
      "chip": "ym2612"
    },
    {
      "channel": 3,
      "note": 85,
      "start": 35.9384,
      "duration": 0.0637,
      "velocity": 92,
      "chip": "ym2612"
    },
    {
      "channel": 0,
      "note": 61,
      "start": 35.948,
      "duration": 0.0292,
      "velocity": 108,
      "chip": "ym2612"
    },
    {
      "channel": 4,
      "note": 81,
      "start": 35.963,
      "duration": 0.0618,
      "velocity": 92,
      "chip": "ym2612"
    },
    {
      "channel": 2,
      "note": 58,
      "start": 36.0053,
      "duration": 0.0317,
      "velocity": 108,
      "chip": "ym2612"
    },
    {
      "channel": 3,
      "note": 72,
      "start": 36.0077,
      "duration": 0.0418,
      "velocity": 92,
      "chip": "ym2612"
    },
    {
      "channel": 0,
      "note": 58,
      "start": 36.0137,
      "duration": 0.0357,
      "velocity": 108,
      "chip": "ym2612"
    },
    {
      "channel": 4,
      "note": 72,
      "start": 36.0281,
      "duration": 0.0401,
      "velocity": 92,
      "chip": "ym2612"
    },
    {
      "channel": 1,
      "note": 33,
      "start": 36.0746,
      "duration": 0.0301,
      "velocity": 126,
      "chip": "ym2612"
    },
    {
      "channel": 3,
      "note": 82,
      "start": 36.0776,
      "duration": 0.0389,
      "velocity": 92,
      "chip": "ym2612"
    },
    {
      "channel": 4,
      "note": 82,
      "start": 36.0935,
      "duration": 0.0431,
      "velocity": 92,
      "chip": "ym2612"
    },
    {
      "channel": 2,
      "note": 58,
      "start": 36.1397,
      "duration": 0.0326,
      "velocity": 108,
      "chip": "ym2612"
    },
    {
      "channel": 3,
      "note": 85,
      "start": 36.1421,
      "duration": 0.0789,
      "velocity": 92,
      "chip": "ym2612"
    },
    {
      "channel": 0,
      "note": 58,
      "start": 36.1534,
      "duration": 0.031,
      "velocity": 108,
      "chip": "ym2612"
    },
    {
      "channel": 4,
      "note": 81,
      "start": 36.1687,
      "duration": 0.0769,
      "velocity": 92,
      "chip": "ym2612"
    },
    {
      "channel": 2,
      "note": 70,
      "start": 36.2278,
      "duration": 0.0319,
      "velocity": 108,
      "chip": "ym2612"
    },
    {
      "channel": 3,
      "note": 72,
      "start": 36.2306,
      "duration": 0.0346,
      "velocity": 92,
      "chip": "ym2612"
    },
    {
      "channel": 0,
      "note": 70,
      "start": 36.2366,
      "duration": 0.0285,
      "velocity": 108,
      "chip": "ym2612"
    },
    {
      "channel": 4,
      "note": 72,
      "start": 36.2487,
      "duration": 0.042,
      "velocity": 92,
      "chip": "ym2612"
    },
    {
      "channel": 2,
      "note": 58,
      "start": 36.2938,
      "duration": 0.032,
      "velocity": 108,
      "chip": "ym2612"
    },
    {
      "channel": 3,
      "note": 82,
      "start": 36.2962,
      "duration": 0.0423,
      "velocity": 92,
      "chip": "ym2612"
    },
    {
      "channel": 0,
      "note": 58,
      "start": 36.3074,
      "duration": 0.0309,
      "velocity": 108,
      "chip": "ym2612"
    },
    {
      "channel": 4,
      "note": 82,
      "start": 36.3159,
      "duration": 0.041,
      "velocity": 92,
      "chip": "ym2612"
    },
    {
      "channel": 1,
      "note": 33,
      "start": 36.3634,
      "duration": 0.03,
      "velocity": 126,
      "chip": "ym2612"
    },
    {
      "channel": 3,
      "note": 85,
      "start": 36.3663,
      "duration": 0.0583,
      "velocity": 92,
      "chip": "ym2612"
    },
    {
      "channel": 4,
      "note": 81,
      "start": 36.3902,
      "duration": 0.0626,
      "velocity": 92,
      "chip": "ym2612"
    },
    {
      "channel": 2,
      "note": 58,
      "start": 36.4276,
      "duration": 0.0381,
      "velocity": 108,
      "chip": "ym2612"
    },
    {
      "channel": 3,
      "note": 72,
      "start": 36.4307,
      "duration": 0.0418,
      "velocity": 92,
      "chip": "ym2612"
    },
    {
      "channel": 0,
      "note": 58,
      "start": 36.4415,
      "duration": 0.0309,
      "velocity": 108,
      "chip": "ym2612"
    },
    {
      "channel": 4,
      "note": 72,
      "start": 36.4569,
      "duration": 0.0528,
      "velocity": 92,
      "chip": "ym2612"
    },
    {
      "channel": 1,
      "note": 33,
      "start": 36.5159,
      "duration": 0.0326,
      "velocity": 126,
      "chip": "ym2612"
    },
    {
      "channel": 2,
      "note": 58,
      "start": 36.5188,
      "duration": 0.0297,
      "velocity": 108,
      "chip": "ym2612"
    },
    {
      "channel": 3,
      "note": 85,
      "start": 36.5218,
      "duration": 0.7267,
      "velocity": 92,
      "chip": "ym2612"
    },
    {
      "channel": 0,
      "note": 58,
      "start": 36.5315,
      "duration": 0.0289,
      "velocity": 108,
      "chip": "ym2612"
    },
    {
      "channel": 4,
      "note": 85,
      "start": 36.539,
      "duration": 0.7404,
      "velocity": 92,
      "chip": "ym2612"
    },
    {
      "channel": 1,
      "note": 33,
      "start": 36.6968,
      "duration": 0.0361,
      "velocity": 126,
      "chip": "ym2612"
    },
    {
      "channel": 2,
      "note": 58,
      "start": 36.6998,
      "duration": 0.0332,
      "velocity": 108,
      "chip": "ym2612"
    },
    {
      "channel": 0,
      "note": 58,
      "start": 36.7106,
      "duration": 0.0286,
      "velocity": 108,
      "chip": "ym2612"
    },
    {
      "channel": 2,
      "note": 58,
      "start": 36.7719,
      "duration": 0.0286,
      "velocity": 108,
      "chip": "ym2612"
    },
    {
      "channel": 0,
      "note": 58,
      "start": 36.7785,
      "duration": 0.0481,
      "velocity": 108,
      "chip": "ym2612"
    },
    {
      "channel": 1,
      "note": 33,
      "start": 36.8828,
      "duration": 0.0278,
      "velocity": 126,
      "chip": "ym2612"
    },
    {
      "channel": 2,
      "note": 61,
      "start": 36.9489,
      "duration": 0.0291,
      "velocity": 108,
      "chip": "ym2612"
    },
    {
      "channel": 0,
      "note": 61,
      "start": 36.9607,
      "duration": 0.0432,
      "velocity": 108,
      "chip": "ym2612"
    },
    {
      "channel": 1,
      "note": 33,
      "start": 37.0772,
      "duration": 0.0282,
      "velocity": 126,
      "chip": "ym2612"
    },
    {
      "channel": 1,
      "note": 33,
      "start": 37.1425,
      "duration": 0.0317,
      "velocity": 126,
      "chip": "ym2612"
    },
    {
      "channel": 2,
      "note": 61,
      "start": 37.146,
      "duration": 0.0283,
      "velocity": 108,
      "chip": "ym2612"
    },
    {
      "channel": 0,
      "note": 61,
      "start": 37.1568,
      "duration": 0.0417,
      "velocity": 108,
      "chip": "ym2612"
    },
    {
      "channel": 2,
      "note": 56,
      "start": 37.2564,
      "duration": 0.0315,
      "velocity": 108,
      "chip": "ym2612"
    },
    {
      "channel": 3,
      "note": 79,
      "start": 37.26,
      "duration": 0.0639,
      "velocity": 92,
      "chip": "ym2612"
    },
    {
      "channel": 0,
      "note": 56,
      "start": 37.2687,
      "duration": 0.0306,
      "velocity": 108,
      "chip": "ym2612"
    },
    {
      "channel": 4,
      "note": 79,
      "start": 37.2844,
      "duration": 0.0625,
      "velocity": 92,
      "chip": "ym2612"
    },
    {
      "channel": 2,
      "note": 61,
      "start": 37.3272,
      "duration": 0.0321,
      "velocity": 108,
      "chip": "ym2612"
    },
    {
      "channel": 3,
      "note": 82,
      "start": 37.3296,
      "duration": 0.0365,
      "velocity": 92,
      "chip": "ym2612"
    },
    {
      "channel": 0,
      "note": 61,
      "start": 37.3355,
      "duration": 0.0305,
      "velocity": 108,
      "chip": "ym2612"
    },
    {
      "channel": 4,
      "note": 82,
      "start": 37.3501,
      "duration": 0.0404,
      "velocity": 92,
      "chip": "ym2612"
    },
    {
      "channel": 1,
      "note": 33,
      "start": 37.3929,
      "duration": 0.0545,
      "velocity": 126,
      "chip": "ym2612"
    },
    {
      "channel": 3,
      "note": 80,
      "start": 37.3967,
      "duration": 0.0841,
      "velocity": 92,
      "chip": "ym2612"
    },
    {
      "channel": 4,
      "note": 80,
      "start": 37.4177,
      "duration": 0.1132,
      "velocity": 92,
      "chip": "ym2612"
    },
    {
      "channel": 2,
      "note": 56,
      "start": 37.5346,
      "duration": 0.0801,
      "velocity": 108,
      "chip": "ym2612"
    },
    {
      "channel": 3,
      "note": 76,
      "start": 37.5389,
      "duration": 0.1754,
      "velocity": 92,
      "chip": "ym2612"
    },
    {
      "channel": 0,
      "note": 56,
      "start": 37.5678,
      "duration": 0.0798,
      "velocity": 108,
      "chip": "ym2612"
    },
    {
      "channel": 4,
      "note": 76,
      "start": 37.6036,
      "duration": 0.1351,
      "velocity": 92,
      "chip": "ym2612"
    },
    {
      "channel": 2,
      "note": 59,
      "start": 37.7211,
      "duration": 0.0316,
      "velocity": 108,
      "chip": "ym2612"
    },
    {
      "channel": 3,
      "note": 80,
      "start": 37.724,
      "duration": 0.034,
      "velocity": 92,
      "chip": "ym2612"
    },
    {
      "channel": 0,
      "note": 59,
      "start": 37.7299,
      "duration": 0.028,
      "velocity": 108,
      "chip": "ym2612"
    },
    {
      "channel": 4,
      "note": 80,
      "start": 37.7419,
      "duration": 0.0418,
      "velocity": 92,
      "chip": "ym2612"
    },
    {
      "channel": 3,
      "note": 80,
      "start": 37.7868,
      "duration": 0.0407,
      "velocity": 92,
      "chip": "ym2612"
    },
    {
      "channel": 4,
      "note": 80,
      "start": 37.8064,
      "duration": 0.0394,
      "velocity": 92,
      "chip": "ym2612"
    },
    {
      "channel": 1,
      "note": 33,
      "start": 37.8483,
      "duration": 0.0477,
      "velocity": 126,
      "chip": "ym2612"
    },
    {
      "channel": 2,
      "note": 56,
      "start": 37.8527,
      "duration": 0.0436,
      "velocity": 108,
      "chip": "ym2612"
    },
    {
      "channel": 3,
      "note": 76,
      "start": 37.8561,
      "duration": 0.1232,
      "velocity": 92,
      "chip": "ym2612"
    },
    {
      "channel": 0,
      "note": 56,
      "start": 37.8655,
      "duration": 0.0638,
      "velocity": 108,
      "chip": "ym2612"
    },
    {
      "channel": 4,
      "note": 76,
      "start": 37.8845,
      "duration": 0.1615,
      "velocity": 92,
      "chip": "ym2612"
    },
    {
      "channel": 2,
      "note": 58,
      "start": 37.984,
      "duration": 0.0953,
      "velocity": 108,
      "chip": "ym2612"
    },
    {
      "channel": 3,
      "note": 80,
      "start": 37.9869,
      "duration": 0.1091,
      "velocity": 92,
      "chip": "ym2612"
    },
    {
      "channel": 0,
      "note": 58,
      "start": 38.0162,
      "duration": 0.0796,
      "velocity": 108,
      "chip": "ym2612"
    },
    {
      "channel": 4,
      "note": 80,
      "start": 38.0497,
      "duration": 0.1129,
      "velocity": 92,
      "chip": "ym2612"
    },
    {
      "channel": 3,
      "note": 84,
      "start": 38.1706,
      "duration": 0.4417,
      "velocity": 92,
      "chip": "ym2612"
    },
    {
      "channel": 4,
      "note": 84,
      "start": 38.1895,
      "duration": 0.4461,
      "velocity": 92,
      "chip": "ym2612"
    },
    {
      "channel": 2,
      "note": 56,
      "start": 38.2328,
      "duration": 0.0308,
      "velocity": 108,
      "chip": "ym2612"
    },
    {
      "channel": 0,
      "note": 56,
      "start": 38.247,
      "duration": 0.0287,
      "velocity": 108,
      "chip": "ym2612"
    },
    {
      "channel": 1,
      "note": 33,
      "start": 38.2982,
      "duration": 0.0643,
      "velocity": 126,
      "chip": "ym2612"
    },
    {
      "channel": 2,
      "note": 57,
      "start": 38.3014,
      "duration": 0.0614,
      "velocity": 108,
      "chip": "ym2612"
    },
    {
      "channel": 0,
      "note": 57,
      "start": 38.3122,
      "duration": 0.0668,
      "velocity": 108,
      "chip": "ym2612"
    },
    {
      "channel": 2,
      "note": 56,
      "start": 38.4492,
      "duration": 0.0801,
      "velocity": 108,
      "chip": "ym2612"
    },
    {
      "channel": 0,
      "note": 56,
      "start": 38.4657,
      "duration": 0.0966,
      "velocity": 108,
      "chip": "ym2612"
    },
    {
      "channel": 2,
      "note": 69,
      "start": 38.6193,
      "duration": 0.0294,
      "velocity": 108,
      "chip": "ym2612"
    },
    {
      "channel": 0,
      "note": 69,
      "start": 38.6312,
      "duration": 0.0304,
      "velocity": 108,
      "chip": "ym2612"
    },
    {
      "channel": 2,
      "note": 54,
      "start": 38.6834,
      "duration": 0.0325,
      "velocity": 108,
      "chip": "ym2612"
    },
    {
      "channel": 3,
      "note": 80,
      "start": 38.6858,
      "duration": 0.0427,
      "velocity": 92,
      "chip": "ym2612"
    },
    {
      "channel": 4,
      "note": 80,
      "start": 38.6892,
      "duration": 0.0393,
      "velocity": 92,
      "chip": "ym2612"
    },
    {
      "channel": 0,
      "note": 54,
      "start": 38.6983,
      "duration": 0.0301,
      "velocity": 108,
      "chip": "ym2612"
    },
    {
      "channel": 1,
      "note": 33,
      "start": 38.7558,
      "duration": 0.0565,
      "velocity": 126,
      "chip": "ym2612"
    },
    {
      "channel": 2,
      "note": 59,
      "start": 38.7591,
      "duration": 0.0535,
      "velocity": 108,
      "chip": "ym2612"
    },
    {
      "channel": 3,
      "note": 84,
      "start": 38.7634,
      "duration": 0.0659,
      "velocity": 92,
      "chip": "ym2612"
    },
    {
      "channel": 4,
      "note": 80,
      "start": 38.7657,
      "duration": 0.0637,
      "velocity": 92,
      "chip": "ym2612"
    },
    {
      "channel": 0,
      "note": 59,
      "start": 38.7698,
      "duration": 0.0592,
      "velocity": 108,
      "chip": "ym2612"
    },
    {
      "channel": 2,
      "note": 58,
      "start": 38.9001,
      "duration": 0.0789,
      "velocity": 108,
      "chip": "ym2612"
    },
    {
      "channel": 3,
      "note": 80,
      "start": 38.9028,
      "duration": 0.1095,
      "velocity": 92,
      "chip": "ym2612"
    },
    {
      "channel": 4,
      "note": 80,
      "start": 38.9056,
      "duration": 0.1069,
      "velocity": 92,
      "chip": "ym2612"
    },
    {
      "channel": 0,
      "note": 58,
      "start": 38.9322,
      "duration": 0.0799,
      "velocity": 108,
      "chip": "ym2612"
    },
    {
      "channel": 2,
      "note": 56,
      "start": 39.0693,
      "duration": 0.0314,
      "velocity": 108,
      "chip": "ym2612"
    },
    {
      "channel": 3,
      "note": 80,
      "start": 39.0717,
      "duration": 0.4661,
      "velocity": 92,
      "chip": "ym2612"
    },
    {
      "channel": 4,
      "note": 80,
      "start": 39.0739,
      "duration": 0.5357,
      "velocity": 92,
      "chip": "ym2612"
    },
    {
      "channel": 0,
      "note": 56,
      "start": 39.0837,
      "duration": 0.0285,
      "velocity": 108,
      "chip": "ym2612"
    },
    {
      "channel": 1,
      "note": 33,
      "start": 39.2071,
      "duration": 0.0319,
      "velocity": 126,
      "chip": "ym2612"
    },
    {
      "channel": 2,
      "note": 56,
      "start": 39.2102,
      "duration": 0.0289,
      "velocity": 108,
      "chip": "ym2612"
    },
    {
      "channel": 0,
      "note": 56,
      "start": 39.2219,
      "duration": 0.028,
      "velocity": 108,
      "chip": "ym2612"
    },
    {
      "channel": 2,
      "note": 56,
      "start": 39.2727,
      "duration": 0.0299,
      "velocity": 108,
      "chip": "ym2612"
    },
    {
      "channel": 0,
      "note": 56,
      "start": 39.2855,
      "duration": 0.0296,
      "velocity": 108,
      "chip": "ym2612"
    },
    {
      "channel": 2,
      "note": 56,
      "start": 39.4092,
      "duration": 0.0299,
      "velocity": 108,
      "chip": "ym2612"
    },
    {
      "channel": 0,
      "note": 56,
      "start": 39.4167,
      "duration": 0.0354,
      "velocity": 108,
      "chip": "ym2612"
    },
    {
      "channel": 1,
      "note": 33,
      "start": 39.4771,
      "duration": 0.0299,
      "velocity": 126,
      "chip": "ym2612"
    },
    {
      "channel": 2,
      "note": 56,
      "start": 39.4802,
      "duration": 0.0269,
      "velocity": 108,
      "chip": "ym2612"
    },
    {
      "channel": 0,
      "note": 56,
      "start": 39.4913,
      "duration": 0.0279,
      "velocity": 108,
      "chip": "ym2612"
    },
    {
      "channel": 2,
      "note": 56,
      "start": 39.5454,
      "duration": 0.0334,
      "velocity": 108,
      "chip": "ym2612"
    },
    {
      "channel": 0,
      "note": 56,
      "start": 39.5571,
      "duration": 0.028,
      "velocity": 108,
      "chip": "ym2612"
    },
    {
      "channel": 2,
      "note": 56,
      "start": 39.6163,
      "duration": 0.0291,
      "velocity": 108,
      "chip": "ym2612"
    },
    {
      "channel": 0,
      "note": 56,
      "start": 39.6231,
      "duration": 0.0344,
      "velocity": 108,
      "chip": "ym2612"
    },
    {
      "channel": 3,
      "note": 65,
      "start": 39.68,
      "duration": 0.0294,
      "velocity": 92,
      "chip": "ym2612"
    },
    {
      "channel": 4,
      "note": 65,
      "start": 39.7001,
      "duration": 0.0347,
      "velocity": 92,
      "chip": "ym2612"
    },
    {
      "channel": 1,
      "note": 33,
      "start": 39.7432,
      "duration": 0.0467,
      "velocity": 126,
      "chip": "ym2612"
    },
    {
      "channel": 3,
      "note": 65,
      "start": 39.7476,
      "duration": 0.0424,
      "velocity": 92,
      "chip": "ym2612"
    },
    {
      "channel": 4,
      "note": 65,
      "start": 39.778,
      "duration": 0.0785,
      "velocity": 92,
      "chip": "ym2612"
    },
    {
      "channel": 3,
      "note": 68,
      "start": 39.8939,
      "duration": 0.0792,
      "velocity": 92,
      "chip": "ym2612"
    },
    {
      "channel": 4,
      "note": 68,
      "start": 39.9441,
      "duration": 0.0791,
      "velocity": 92,
      "chip": "ym2612"
    },
    {
      "channel": 3,
      "note": 65,
      "start": 40.0621,
      "duration": 0.078,
      "velocity": 92,
      "chip": "ym2612"
    },
    {
      "channel": 4,
      "note": 65,
      "start": 40.1114,
      "duration": 0.0951,
      "velocity": 92,
      "chip": "ym2612"
    },
    {
      "channel": 3,
      "note": 68,
      "start": 40.228,
      "duration": 0.0784,
      "velocity": 92,
      "chip": "ym2612"
    },
    {
      "channel": 4,
      "note": 68,
      "start": 40.2941,
      "duration": 0.0791,
      "velocity": 92,
      "chip": "ym2612"
    },
    {
      "channel": 3,
      "note": 65,
      "start": 40.4117,
      "duration": 0.0782,
      "velocity": 92,
      "chip": "ym2612"
    },
    {
      "channel": 4,
      "note": 65,
      "start": 40.4615,
      "duration": 0.0784,
      "velocity": 92,
      "chip": "ym2612"
    },
    {
      "channel": 1,
      "note": 33,
      "start": 40.58,
      "duration": 0.0187,
      "velocity": 126,
      "chip": "ym2612"
    },
    {
      "channel": 2,
      "note": 69,
      "start": 40.5834,
      "duration": 0.0286,
      "velocity": 108,
      "chip": "ym2612"
    },
    {
      "channel": 3,
      "note": 68,
      "start": 40.5876,
      "duration": 0.0243,
      "velocity": 92,
      "chip": "ym2612"
    },
    {
      "channel": 0,
      "note": 69,
      "start": 40.5955,
      "duration": 0.0327,
      "velocity": 108,
      "chip": "ym2612"
    },
    {
      "channel": 4,
      "note": 68,
      "start": 40.602,
      "duration": 0.0314,
      "velocity": 92,
      "chip": "ym2612"
    },
    {
      "channel": 1,
      "note": 33,
      "start": 40.6188,
      "duration": 0.0145,
      "velocity": 126,
      "chip": "ym2612"
    },
    {
      "channel": 2,
      "note": 59,
      "start": 40.6599,
      "duration": 0.0216,
      "velocity": 108,
      "chip": "ym2612"
    },
    {
      "channel": 0,
      "note": 59,
      "start": 40.6679,
      "duration": 0.0257,
      "velocity": 108,
      "chip": "ym2612"
    },
    {
      "channel": 2,
      "note": 56,
      "start": 40.7159,
      "duration": 0.0345,
      "velocity": 108,
      "chip": "ym2612"
    },
    {
      "channel": 0,
      "note": 56,
      "start": 40.7284,
      "duration": 0.0286,
      "velocity": 108,
      "chip": "ym2612"
    },
    {
      "channel": 1,
      "note": 33,
      "start": 40.7831,
      "duration": 0.0546,
      "velocity": 126,
      "chip": "ym2612"
    },
    {
      "channel": 2,
      "note": 56,
      "start": 40.9248,
      "duration": 0.0799,
      "velocity": 108,
      "chip": "ym2612"
    },
    {
      "channel": 0,
      "note": 56,
      "start": 40.9579,
      "duration": 0.0797,
      "velocity": 108,
      "chip": "ym2612"
    },
    {
      "channel": 2,
      "note": 68,
      "start": 41.0949,
      "duration": 0.0343,
      "velocity": 108,
      "chip": "ym2612"
    },
    {
      "channel": 0,
      "note": 68,
      "start": 41.1066,
      "duration": 0.029,
      "velocity": 108,
      "chip": "ym2612"
    },
    {
      "channel": 1,
      "note": 33,
      "start": 41.224,
      "duration": 0.0618,
      "velocity": 126,
      "chip": "ym2612"
    },
    {
      "channel": 2,
      "note": 56,
      "start": 41.2281,
      "duration": 0.058,
      "velocity": 108,
      "chip": "ym2612"
    },
    {
      "channel": 0,
      "note": 56,
      "start": 41.2407,
      "duration": 0.0784,
      "velocity": 108,
      "chip": "ym2612"
    }
  ]
}