{
  "track_name": "05 - Tunnels",
  "duration_sec": 127.282,
  "sample_rate": 44100,
  "note_count": 1822,
  "unique_pitches": 34,
  "pitch_range": 67,
  "avg_note_duration": 0.1743,
  "reconstruction_stats": {
    "notes_reconstructed": 1822,
    "keyon_events": 1822,
    "keyoff_events": 1820,
    "orphan_keyons": 2,
    "unique_pitches": 34,
    "pitch_range": 67,
    "avg_duration_sec": 0.1743
  },
  "metadata": {
    "source": "Z\\Zero the Kamikaze Squirrel\\05 - Tunnels.vgm"
  },
  "notes": [
    {
      "channel": 1,
      "note": 33,
      "start": 0.0022,
      "duration": 2.942,
      "velocity": 93,
      "chip": "ym2612"
    },
    {
      "channel": 0,
      "note": 93,
      "start": 0.0071,
      "duration": 0.4204,
      "velocity": 86,
      "chip": "ym2612"
    },
    {
      "channel": 3,
      "note": 57,
      "start": 0.3645,
      "duration": 0.0797,
      "velocity": 94,
      "chip": "ym2612"
    },
    {
      "channel": 3,
      "note": 57,
      "start": 0.5473,
      "duration": 0.097,
      "velocity": 94,
      "chip": "ym2612"
    },
    {
      "channel": 0,
      "note": 91,
      "start": 0.5505,
      "duration": 2.2104,
      "velocity": 86,
      "chip": "ym2612"
    },
    {
      "channel": 4,
      "note": 57,
      "start": 0.5547,
      "duration": 0.0898,
      "velocity": 98,
      "chip": "ym2612"
    },
    {
      "channel": 3,
      "note": 69,
      "start": 0.7141,
      "duration": 0.1634,
      "velocity": 94,
      "chip": "ym2612"
    },
    {
      "channel": 4,
      "note": 57,
      "start": 0.7177,
      "duration": 0.1267,
      "velocity": 98,
      "chip": "ym2612"
    },
    {
      "channel": 3,
      "note": 57,
      "start": 0.8978,
      "duration": 0.063,
      "velocity": 94,
      "chip": "ym2612"
    },
    {
      "channel": 4,
      "note": 69,
      "start": 0.9014,
      "duration": 0.1763,
      "velocity": 98,
      "chip": "ym2612"
    },
    {
      "channel": 3,
      "note": 57,
      "start": 1.0809,
      "duration": 0.1133,
      "velocity": 94,
      "chip": "ym2612"
    },
    {
      "channel": 4,
      "note": 57,
      "start": 1.0848,
      "duration": 0.0594,
      "velocity": 98,
      "chip": "ym2612"
    },
    {
      "channel": 3,
      "note": 67,
      "start": 1.2643,
      "duration": 0.0966,
      "velocity": 94,
      "chip": "ym2612"
    },
    {
      "channel": 4,
      "note": 57,
      "start": 1.2678,
      "duration": 0.1098,
      "velocity": 98,
      "chip": "ym2612"
    },
    {
      "channel": 4,
      "note": 67,
      "start": 1.4484,
      "duration": 0.096,
      "velocity": 98,
      "chip": "ym2612"
    },
    {
      "channel": 3,
      "note": 57,
      "start": 1.6161,
      "duration": 0.1115,
      "velocity": 94,
      "chip": "ym2612"
    },
    {
      "channel": 4,
      "note": 57,
      "start": 1.7983,
      "duration": 0.1149,
      "velocity": 98,
      "chip": "ym2612"
    },
    {
      "channel": 3,
      "note": 57,
      "start": 1.9808,
      "duration": 0.0968,
      "velocity": 94,
      "chip": "ym2612"
    },
    {
      "channel": 3,
      "note": 64,
      "start": 2.1642,
      "duration": 0.1134,
      "velocity": 94,
      "chip": "ym2612"
    },
    {
      "channel": 5,
      "note": 57,
      "start": 2.1673,
      "duration": 0.2271,
      "velocity": 94,
      "chip": "ym2612"
    },
    {
      "channel": 4,
      "note": 57,
      "start": 2.1711,
      "duration": 0.0899,
      "velocity": 98,
      "chip": "ym2612"
    },
    {
      "channel": 4,
      "note": 64,
      "start": 2.3483,
      "duration": 0.1293,
      "velocity": 98,
      "chip": "ym2612"
    },
    {
      "channel": 2,
      "note": 57,
      "start": 2.3518,
      "duration": 0.2426,
      "velocity": 98,
      "chip": "ym2612"
    },
    {
      "channel": 3,
      "note": 64,
      "start": 2.5313,
      "duration": 0.0796,
      "velocity": 94,
      "chip": "ym2612"
    },
    {
      "channel": 3,
      "note": 67,
      "start": 2.6974,
      "duration": 0.0968,
      "velocity": 94,
      "chip": "ym2612"
    },
    {
      "channel": 4,
      "note": 64,
      "start": 2.7012,
      "duration": 0.1098,
      "velocity": 98,
      "chip": "ym2612"
    },
    {
      "channel": 5,
      "note": 36,
      "start": 2.8811,
      "duration": 1.4799,
      "velocity": 93,
      "chip": "ym2612"
    },
    {
      "channel": 0,
      "note": 86,
      "start": 2.8842,
      "duration": 0.4767,
      "velocity": 86,
      "chip": "ym2612"
    },
    {
      "channel": 4,
      "note": 67,
      "start": 2.8876,
      "duration": 0.0924,
      "velocity": 98,
      "chip": "ym2612"
    },
    {
      "channel": 3,
      "note": 57,
      "start": 3.2476,
      "duration": 0.0467,
      "velocity": 94,
      "chip": "ym2612"
    },
    {
      "channel": 2,
      "note": 57,
      "start": 3.2508,
      "duration": 0.077,
      "velocity": 94,
      "chip": "ym2612"
    },
    {
      "channel": 0,
      "note": 88,
      "start": 3.4311,
      "duration": 2.2298,
      "velocity": 86,
      "chip": "ym2612"
    },
    {
      "channel": 4,
      "note": 57,
      "start": 3.4346,
      "duration": 0.0763,
      "velocity": 98,
      "chip": "ym2612"
    },
    {
      "channel": 1,
      "note": 57,
      "start": 3.4377,
      "duration": 0.0898,
      "velocity": 98,
      "chip": "ym2612"
    },
    {
      "channel": 3,
      "note": 64,
      "start": 3.5998,
      "duration": 0.1111,
      "velocity": 94,
      "chip": "ym2612"
    },
    {
      "channel": 2,
      "note": 57,
      "start": 3.6033,
      "duration": 0.0578,
      "velocity": 94,
      "chip": "ym2612"
    },
    {
      "channel": 1,
      "note": 64,
      "start": 3.7817,
      "duration": 0.1147,
      "velocity": 98,
      "chip": "ym2612"
    },
    {
      "channel": 4,
      "note": 57,
      "start": 3.7849,
      "duration": 0.0594,
      "velocity": 98,
      "chip": "ym2612"
    },
    {
      "channel": 3,
      "note": 57,
      "start": 3.9643,
      "duration": 0.0822,
      "velocity": 94,
      "chip": "ym2612"
    },
    {
      "channel": 3,
      "note": 66,
      "start": 4.1475,
      "duration": 0.1301,
      "velocity": 94,
      "chip": "ym2612"
    },
    {
      "channel": 1,
      "note": 57,
      "start": 4.1512,
      "duration": 0.0763,
      "velocity": 98,
      "chip": "ym2612"
    },
    {
      "channel": 3,
      "note": 57,
      "start": 4.3308,
      "duration": 0.0968,
      "velocity": 94,
      "chip": "ym2612"
    },
    {
      "channel": 2,
      "note": 38,
      "start": 4.3342,
      "duration": 1.3935,
      "velocity": 93,
      "chip": "ym2612"
    },
    {
      "channel": 1,
      "note": 66,
      "start": 4.3376,
      "duration": 0.14,
      "velocity": 98,
      "chip": "ym2612"
    },
    {
      "channel": 1,
      "note": 57,
      "start": 4.5005,
      "duration": 0.1103,
      "velocity": 98,
      "chip": "ym2612"
    },
    {
      "channel": 3,
      "note": 57,
      "start": 4.6808,
      "duration": 0.1324,
      "velocity": 94,
      "chip": "ym2612"
    },
    {
      "channel": 1,
      "note": 57,
      "start": 4.8648,
      "duration": 0.1295,
      "velocity": 98,
      "chip": "ym2612"
    },
    {
      "channel": 3,
      "note": 62,
      "start": 5.0476,
      "duration": 0.0968,
      "velocity": 94,
      "chip": "ym2612"
    },
    {
      "channel": 4,
      "note": 57,
      "start": 5.051,
      "duration": 0.0433,
      "velocity": 94,
      "chip": "ym2612"
    },
    {
      "channel": 3,
      "note": 57,
      "start": 5.231,
      "duration": 0.0966,
      "velocity": 94,
      "chip": "ym2612"
    },
    {
      "channel": 1,
      "note": 62,
      "start": 5.2346,
      "duration": 0.1096,
      "velocity": 98,
      "chip": "ym2612"
    },
    {
      "channel": 5,
      "note": 57,
      "start": 5.2381,
      "duration": 0.0396,
      "velocity": 98,
      "chip": "ym2612"
    },
    {
      "channel": 1,
      "note": 57,
      "start": 5.4149,
      "duration": 0.1127,
      "velocity": 98,
      "chip": "ym2612"
    },
    {
      "channel": 3,
      "note": 64,
      "start": 5.581,
      "duration": 0.0801,
      "velocity": 94,
      "chip": "ym2612"
    },
    {
      "channel": 2,
      "note": 33,
      "start": 5.7645,
      "duration": 2.9466,
      "velocity": 93,
      "chip": "ym2612"
    },
    {
      "channel": 0,
      "note": 93,
      "start": 5.7672,
      "duration": 0.4769,
      "velocity": 86,
      "chip": "ym2612"
    },
    {
      "channel": 1,
      "note": 64,
      "start": 5.7706,
      "duration": 0.0903,
      "velocity": 98,
      "chip": "ym2612"
    },
    {
      "channel": 3,
      "note": 57,
      "start": 6.1308,
      "duration": 0.0634,
      "velocity": 94,
      "chip": "ym2612"
    },
    {
      "channel": 3,
      "note": 57,
      "start": 6.3141,
      "duration": 0.0969,
      "velocity": 94,
      "chip": "ym2612"
    },
    {
      "channel": 0,
      "note": 91,
      "start": 6.3171,
      "duration": 2.2436,
      "velocity": 86,
      "chip": "ym2612"
    },
    {
      "channel": 1,
      "note": 57,
      "start": 6.3206,
      "duration": 0.0569,
      "velocity": 98,
      "chip": "ym2612"
    },
    {
      "channel": 3,
      "note": 69,
      "start": 6.483,
      "duration": 0.1113,
      "velocity": 94,
      "chip": "ym2612"
    },
    {
      "channel": 4,
      "note": 57,
      "start": 6.486,
      "duration": 0.0916,
      "velocity": 94,
      "chip": "ym2612"
    },
    {
      "channel": 1,
      "note": 57,
      "start": 6.4895,
      "duration": 0.1213,
      "velocity": 98,
      "chip": "ym2612"
    },
    {
      "channel": 1,
      "note": 69,
      "start": 6.6647,
      "duration": 0.1295,
      "velocity": 98,
      "chip": "ym2612"
    },
    {
      "channel": 5,
      "note": 57,
      "start": 6.6682,
      "duration": 0.1095,
      "velocity": 98,
      "chip": "ym2612"
    },
    {
      "channel": 3,
      "note": 57,
      "start": 6.8479,
      "duration": 0.113,
      "velocity": 94,
      "chip": "ym2612"
    },
    {
      "channel": 3,
      "note": 67,
      "start": 7.0308,
      "duration": 0.1135,
      "velocity": 94,
      "chip": "ym2612"
    },
    {
      "channel": 1,
      "note": 57,
      "start": 7.0345,
      "duration": 0.1097,
      "velocity": 98,
      "chip": "ym2612"
    },
    {
      "channel": 1,
      "note": 67,
      "start": 7.2149,
      "duration": 0.1293,
      "velocity": 98,
      "chip": "ym2612"
    },
    {
      "channel": 3,
      "note": 57,
      "start": 7.3973,
      "duration": 0.0969,
      "velocity": 94,
      "chip": "ym2612"
    },
    {
      "channel": 1,
      "note": 57,
      "start": 7.5647,
      "duration": 0.1128,
      "velocity": 98,
      "chip": "ym2612"
    },
    {
      "channel": 3,
      "note": 57,
      "start": 7.7476,
      "duration": 0.13,
      "velocity": 94,
      "chip": "ym2612"
    },
    {
      "channel": 3,
      "note": 64,
      "start": 7.9307,
      "duration": 0.1136,
      "velocity": 94,
      "chip": "ym2612"
    },
    {
      "channel": 1,
      "note": 57,
      "start": 7.9344,
      "duration": 0.1431,
      "velocity": 98,
      "chip": "ym2612"
    },
    {
      "channel": 3,
      "note": 57,
      "start": 8.1141,
      "duration": 0.0468,
      "velocity": 94,
      "chip": "ym2612"
    },
    {
      "channel": 1,
      "note": 64,
      "start": 8.1176,
      "duration": 0.1099,
      "velocity": 98,
      "chip": "ym2612"
    },
    {
      "channel": 3,
      "note": 57,
      "start": 8.2975,
      "duration": 0.1302,
      "velocity": 94,
      "chip": "ym2612"
    },
    {
      "channel": 1,
      "note": 57,
      "start": 8.3014,
      "duration": 0.0428,
      "velocity": 98,
      "chip": "ym2612"
    },
    {
      "channel": 3,
      "note": 67,
      "start": 8.4669,
      "duration": 0.0773,
      "velocity": 94,
      "chip": "ym2612"
    },
    {
      "channel": 1,
      "note": 57,
      "start": 8.4704,
      "duration": 0.1405,
      "velocity": 98,
      "chip": "ym2612"
    },
    {
      "channel": 4,
      "note": 36,
      "start": 8.6479,
      "duration": 1.0963,
      "velocity": 93,
      "chip": "ym2612"
    },
    {
      "channel": 0,
      "note": 84,
      "start": 8.651,
      "duration": 0.4431,
      "velocity": 86,
      "chip": "ym2612"
    },
    {
      "channel": 1,
      "note": 67,
      "start": 8.6544,
      "duration": 0.0898,
      "velocity": 98,
      "chip": "ym2612"
    },
    {
      "channel": 3,
      "note": 57,
      "start": 9.0143,
      "duration": 0.0466,
      "velocity": 94,
      "chip": "ym2612"
    },
    {
      "channel": 3,
      "note": 57,
      "start": 9.1975,
      "duration": 0.0635,
      "velocity": 94,
      "chip": "ym2612"
    },
    {
      "channel": 0,
      "note": 86,
      "start": 9.2006,
      "duration": 2.1936,
      "velocity": 86,
      "chip": "ym2612"
    },
    {
      "channel": 1,
      "note": 57,
      "start": 9.204,
      "duration": 0.0401,
      "velocity": 98,
      "chip": "ym2612"
    },
    {
      "channel": 3,
      "note": 57,
      "start": 9.3806,
      "duration": 0.0637,
      "velocity": 94,
      "chip": "ym2612"
    },
    {
      "channel": 1,
      "note": 57,
      "start": 9.3841,
      "duration": 0.0767,
      "velocity": 98,
      "chip": "ym2612"
    },
    {
      "channel": 3,
      "note": 57,
      "start": 9.5473,
      "duration": 0.0803,
      "velocity": 94,
      "chip": "ym2612"
    },
    {
      "channel": 1,
      "note": 57,
      "start": 9.5507,
      "duration": 0.0934,
      "velocity": 98,
      "chip": "ym2612"
    },
    {
      "channel": 3,
      "note": 57,
      "start": 9.7308,
      "duration": 0.0968,
      "velocity": 94,
      "chip": "ym2612"
    },
    {
      "channel": 2,
      "note": 40,
      "start": 9.7337,
      "duration": 0.3607,
      "velocity": 93,
      "chip": "ym2612"
    },
    {
      "channel": 1,
      "note": 57,
      "start": 9.7372,
      "duration": 0.0737,
      "velocity": 98,
      "chip": "ym2612"
    },
    {
      "channel": 3,
      "note": 66,
      "start": 9.9142,
      "duration": 0.0968,
      "velocity": 94,
      "chip": "ym2612"
    },
    {
      "channel": 1,
      "note": 57,
      "start": 9.9181,
      "duration": 0.0927,
      "velocity": 98,
      "chip": "ym2612"
    },
    {
      "channel": 4,
      "note": 38,
      "start": 10.0982,
      "duration": 1.2736,
      "velocity": 93,
      "chip": "ym2612"
    },
    {
      "channel": 1,
      "note": 66,
      "start": 10.1017,
      "duration": 0.1092,
      "velocity": 98,
      "chip": "ym2612"
    },
    {
      "channel": 3,
      "note": 57,
      "start": 10.2811,
      "duration": 0.0797,
      "velocity": 94,
      "chip": "ym2612"
    },
    {
      "channel": 1,
      "note": 57,
      "start": 10.4503,
      "duration": 0.0939,
      "velocity": 98,
      "chip": "ym2612"
    },
    {
      "channel": 3,
      "note": 57,
      "start": 10.6309,
      "duration": 0.1134,
      "velocity": 94,
      "chip": "ym2612"
    },
    {
      "channel": 3,
      "note": 62,
      "start": 10.8141,
      "duration": 0.0823,
      "velocity": 94,
      "chip": "ym2612"
    },
    {
      "channel": 1,
      "note": 57,
      "start": 10.8178,
      "duration": 0.1097,
      "velocity": 98,
      "chip": "ym2612"
    },
    {
      "channel": 1,
      "note": 62,
      "start": 10.9983,
      "duration": 0.0959,
      "velocity": 98,
      "chip": "ym2612"
    },
    {
      "channel": 3,
      "note": 57,
      "start": 11.181,
      "duration": 0.0633,
      "velocity": 94,
      "chip": "ym2612"
    },
    {
      "channel": 3,
      "note": 64,
      "start": 11.3641,
      "duration": 0.0636,
      "velocity": 94,
      "chip": "ym2612"
    },
    {
      "channel": 2,
      "note": 40,
      "start": 11.3671,
      "duration": 0.1606,
      "velocity": 93,
      "chip": "ym2612"
    },
    {
      "channel": 1,
      "note": 57,
      "start": 11.3706,
      "duration": 0.0569,
      "velocity": 98,
      "chip": "ym2612"
    },
    {
      "channel": 4,
      "note": 33,
      "start": 11.5311,
      "duration": 2.9632,
      "velocity": 93,
      "chip": "ym2612"
    },
    {
      "channel": 0,
      "note": 93,
      "start": 11.5337,
      "duration": 0.4604,
      "velocity": 86,
      "chip": "ym2612"
    },
    {
      "channel": 1,
      "note": 64,
      "start": 11.5376,
      "duration": 0.09,
      "velocity": 98,
      "chip": "ym2612"
    },
    {
      "channel": 3,
      "note": 57,
      "start": 11.8976,
      "duration": 0.03,
      "velocity": 94,
      "chip": "ym2612"
    },
    {
      "channel": 3,
      "note": 57,
      "start": 12.0811,
      "duration": 0.063,
      "velocity": 94,
      "chip": "ym2612"
    },
    {
      "channel": 0,
      "note": 91,
      "start": 12.0842,
      "duration": 2.2099,
      "velocity": 86,
      "chip": "ym2612"
    },
    {
      "channel": 1,
      "note": 57,
      "start": 12.0876,
      "duration": 0.0399,
      "velocity": 98,
      "chip": "ym2612"
    },
    {
      "channel": 3,
      "note": 69,
      "start": 12.2643,
      "duration": 0.1132,
      "velocity": 94,
      "chip": "ym2612"
    },
    {
      "channel": 5,
      "note": 57,
      "start": 12.2675,
      "duration": 0.0436,
      "velocity": 94,
      "chip": "ym2612"
    },
    {
      "channel": 1,
      "note": 57,
      "start": 12.271,
      "duration": 0.0733,
      "velocity": 98,
      "chip": "ym2612"
    },
    {
      "channel": 1,
      "note": 69,
      "start": 12.4338,
      "duration": 0.127,
      "velocity": 98,
      "chip": "ym2612"
    },
    {
      "channel": 2,
      "note": 57,
      "start": 12.437,
      "duration": 0.0741,
      "velocity": 98,
      "chip": "ym2612"
    },
    {
      "channel": 3,
      "note": 57,
      "start": 12.6143,
      "duration": 0.1133,
      "velocity": 94,
      "chip": "ym2612"
    },
    {
      "channel": 3,
      "note": 67,
      "start": 12.7976,
      "duration": 0.1466,
      "velocity": 94,
      "chip": "ym2612"
    },
    {
      "channel": 1,
      "note": 57,
      "start": 12.8013,
      "duration": 0.1096,
      "velocity": 98,
      "chip": "ym2612"
    },
    {
      "channel": 1,
      "note": 67,
      "start": 12.9819,
      "duration": 0.1457,
      "velocity": 98,
      "chip": "ym2612"
    },
    {
      "channel": 3,
      "note": 57,
      "start": 13.1641,
      "duration": 0.0801,
      "velocity": 94,
      "chip": "ym2612"
    },
    {
      "channel": 1,
      "note": 57,
      "start": 13.348,
      "duration": 0.0961,
      "velocity": 98,
      "chip": "ym2612"
    },
    {
      "channel": 3,
      "note": 57,
      "start": 13.5146,
      "duration": 0.113,
      "velocity": 94,
      "chip": "ym2612"
    },
    {
      "channel": 3,
      "note": 62,
      "start": 13.6976,
      "duration": 0.1135,
      "velocity": 94,
      "chip": "ym2612"
    },
    {
      "channel": 5,
      "note": 57,
      "start": 13.7005,
      "duration": 0.0438,
      "velocity": 94,
      "chip": "ym2612"
    },
    {
      "channel": 1,
      "note": 57,
      "start": 13.7042,
      "duration": 0.1067,
      "velocity": 98,
      "chip": "ym2612"
    },
    {
      "channel": 1,
      "note": 62,
      "start": 13.8816,
      "duration": 0.1293,
      "velocity": 98,
      "chip": "ym2612"
    },
    {
      "channel": 2,
      "note": 57,
      "start": 13.8847,
      "duration": 0.0429,
      "velocity": 98,
      "chip": "ym2612"
    },
    {
      "channel": 3,
      "note": 57,
      "start": 14.0642,
      "duration": 0.1134,
      "velocity": 94,
      "chip": "ym2612"
    },
    {
      "channel": 3,
      "note": 64,
      "start": 14.2476,
      "duration": 0.08,
      "velocity": 94,
      "chip": "ym2612"
    },
    {
      "channel": 1,
      "note": 57,
      "start": 14.2516,
      "duration": 0.1092,
      "velocity": 98,
      "chip": "ym2612"
    },
    {
      "channel": 5,
      "note": 36,
      "start": 14.4171,
      "duration": 1.4606,
      "velocity": 93,
      "chip": "ym2612"
    },
    {
      "channel": 0,
      "note": 86,
      "start": 14.4201,
      "duration": 0.4906,
      "velocity": 86,
      "chip": "ym2612"
    },
    {
      "channel": 1,
      "note": 64,
      "start": 14.4236,
      "duration": 0.104,
      "velocity": 98,
      "chip": "ym2612"
    },
    {
      "channel": 3,
      "note": 57,
      "start": 14.7812,
      "duration": 0.0298,
      "velocity": 94,
      "chip": "ym2612"
    },
    {
      "channel": 3,
      "note": 57,
      "start": 14.9641,
      "duration": 0.047,
      "velocity": 94,
      "chip": "ym2612"
    },
    {
      "channel": 0,
      "note": 88,
      "start": 14.9671,
      "duration": 2.2436,
      "velocity": 86,
      "chip": "ym2612"
    },
    {
      "channel": 1,
      "note": 57,
      "start": 14.9706,
      "duration": 0.0403,
      "velocity": 98,
      "chip": "ym2612"
    },
    {
      "channel": 3,
      "note": 64,
      "start": 15.1476,
      "duration": 0.0967,
      "velocity": 94,
      "chip": "ym2612"
    },
    {
      "channel": 1,
      "note": 57,
      "start": 15.1511,
      "duration": 0.0431,
      "velocity": 98,
      "chip": "ym2612"
    },
    {
      "channel": 1,
      "note": 64,
      "start": 15.3316,
      "duration": 0.0959,
      "velocity": 98,
      "chip": "ym2612"
    },
    {
      "channel": 3,
      "note": 57,
      "start": 15.4975,
      "duration": 0.0634,
      "velocity": 94,
      "chip": "ym2612"
    },
    {
      "channel": 3,
      "note": 62,
      "start": 15.6809,
      "duration": 0.1134,
      "velocity": 94,
      "chip": "ym2612"
    },
    {
      "channel": 1,
      "note": 57,
      "start": 15.6845,
      "duration": 0.0763,
      "velocity": 98,
      "chip": "ym2612"
    },
    {
      "channel": 4,
      "note": 38,
      "start": 15.8641,
      "duration": 1.4302,
      "velocity": 93,
      "chip": "ym2612"
    },
    {
      "channel": 1,
      "note": 62,
      "start": 15.868,
      "duration": 0.1094,
      "velocity": 98,
      "chip": "ym2612"
    },
    {
      "channel": 3,
      "note": 57,
      "start": 16.0474,
      "duration": 0.0968,
      "velocity": 94,
      "chip": "ym2612"
    },
    {
      "channel": 1,
      "note": 57,
      "start": 16.2315,
      "duration": 0.0961,
      "velocity": 98,
      "chip": "ym2612"
    },
    {
      "channel": 3,
      "note": 57,
      "start": 16.4002,
      "duration": 0.094,
      "velocity": 94,
      "chip": "ym2612"
    },
    {
      "channel": 3,
      "note": 62,
      "start": 16.5809,
      "duration": 0.1134,
      "velocity": 94,
      "chip": "ym2612"
    },
    {
      "channel": 1,
      "note": 57,
      "start": 16.5844,
      "duration": 0.1098,
      "velocity": 98,
      "chip": "ym2612"
    },
    {
      "channel": 1,
      "note": 62,
      "start": 16.7649,
      "duration": 0.1127,
      "velocity": 98,
      "chip": "ym2612"
    },
    {
      "channel": 3,
      "note": 57,
      "start": 16.9475,
      "duration": 0.0968,
      "velocity": 94,
      "chip": "ym2612"
    },
    {
      "channel": 3,
      "note": 64,
      "start": 17.1308,
      "duration": 0.0968,
      "velocity": 94,
      "chip": "ym2612"
    },
    {
      "channel": 1,
      "note": 57,
      "start": 17.1343,
      "duration": 0.1098,
      "velocity": 98,
      "chip": "ym2612"
    },
    {
      "channel": 4,
      "note": 41,
      "start": 17.2995,
      "duration": 1.4281,
      "velocity": 93,
      "chip": "ym2612"
    },
    {
      "channel": 0,
      "note": 88,
      "start": 17.3021,
      "duration": 0.4753,
      "velocity": 86,
      "chip": "ym2612"
    },
    {
      "channel": 1,
      "note": 64,
      "start": 17.3054,
      "duration": 0.1222,
      "velocity": 98,
      "chip": "ym2612"
    },
    {
      "channel": 3,
      "note": 57,
      "start": 17.8476,
      "duration": 0.0656,
      "velocity": 94,
      "chip": "ym2612"
    },
    {
      "channel": 0,
      "note": 86,
      "start": 17.8507,
      "duration": 2.2101,
      "velocity": 86,
      "chip": "ym2612"
    },
    {
      "channel": 3,
      "note": 69,
      "start": 18.0309,
      "duration": 0.1133,
      "velocity": 94,
      "chip": "ym2612"
    },
    {
      "channel": 2,
      "note": 57,
      "start": 18.0344,
      "duration": 0.0434,
      "velocity": 94,
      "chip": "ym2612"
    },
    {
      "channel": 1,
      "note": 57,
      "start": 18.0381,
      "duration": 0.0561,
      "velocity": 98,
      "chip": "ym2612"
    },
    {
      "channel": 1,
      "note": 69,
      "start": 18.2152,
      "duration": 0.1123,
      "velocity": 98,
      "chip": "ym2612"
    },
    {
      "channel": 5,
      "note": 57,
      "start": 18.2183,
      "duration": 0.0594,
      "velocity": 98,
      "chip": "ym2612"
    },
    {
      "channel": 3,
      "note": 57,
      "start": 18.3809,
      "duration": 0.1467,
      "velocity": 94,
      "chip": "ym2612"
    },
    {
      "channel": 3,
      "note": 67,
      "start": 18.5641,
      "duration": 0.1469,
      "velocity": 94,
      "chip": "ym2612"
    },
    {
      "channel": 1,
      "note": 57,
      "start": 18.5678,
      "duration": 0.1264,
      "velocity": 98,
      "chip": "ym2612"
    },
    {
      "channel": 3,
      "note": 57,
      "start": 18.7474,
      "duration": 0.0468,
      "velocity": 94,
      "chip": "ym2612"
    },
    {
      "channel": 4,
      "note": 40,
      "start": 18.7502,
      "duration": 1.4607,
      "velocity": 93,
      "chip": "ym2612"
    },
    {
      "channel": 1,
      "note": 67,
      "start": 18.7536,
      "duration": 0.1573,
      "velocity": 98,
      "chip": "ym2612"
    },
    {
      "channel": 3,
      "note": 57,
      "start": 18.9309,
      "duration": 0.0966,
      "velocity": 94,
      "chip": "ym2612"
    },
    {
      "channel": 1,
      "note": 57,
      "start": 18.9344,
      "duration": 0.0431,
      "velocity": 98,
      "chip": "ym2612"
    },
    {
      "channel": 1,
      "note": 57,
      "start": 19.1149,
      "duration": 0.0961,
      "velocity": 98,
      "chip": "ym2612"
    },
    {
      "channel": 3,
      "note": 57,
      "start": 19.2831,
      "duration": 0.0945,
      "velocity": 94,
      "chip": "ym2612"
    },
    {
      "channel": 3,
      "note": 64,
      "start": 19.4641,
      "duration": 0.1302,
      "velocity": 94,
      "chip": "ym2612"
    },
    {
      "channel": 1,
      "note": 57,
      "start": 19.468,
      "duration": 0.1095,
      "velocity": 98,
      "chip": "ym2612"
    },
    {
      "channel": 3,
      "note": 57,
      "start": 19.6478,
      "duration": 0.0632,
      "velocity": 94,
      "chip": "ym2612"
    },
    {
      "channel": 1,
      "note": 64,
      "start": 19.6513,
      "duration": 0.1262,
      "velocity": 98,
      "chip": "ym2612"
    },
    {
      "channel": 3,
      "note": 57,
      "start": 19.8307,
      "duration": 0.1635,
      "velocity": 94,
      "chip": "ym2612"
    },
    {
      "channel": 1,
      "note": 57,
      "start": 19.8342,
      "duration": 0.06,
      "velocity": 98,
      "chip": "ym2612"
    },
    {
      "channel": 3,
      "note": 67,
      "start": 20.0142,
      "duration": 0.1134,
      "velocity": 94,
      "chip": "ym2612"
    },
    {
      "channel": 1,
      "note": 57,
      "start": 20.0177,
      "duration": 0.1765,
      "velocity": 98,
      "chip": "ym2612"
    },
    {
      "channel": 2,
      "note": 39,
      "start": 20.1977,
      "duration": 1.3966,
      "velocity": 93,
      "chip": "ym2612"
    },
    {
      "channel": 0,
      "note": 84,
      "start": 20.2008,
      "duration": 0.4934,
      "velocity": 86,
      "chip": "ym2612"
    },
    {
      "channel": 1,
      "note": 67,
      "start": 20.2042,
      "duration": 0.1066,
      "velocity": 98,
      "chip": "ym2612"
    },
    {
      "channel": 3,
      "note": 57,
      "start": 20.5476,
      "duration": 0.0632,
      "velocity": 94,
      "chip": "ym2612"
    },
    {
      "channel": 3,
      "note": 57,
      "start": 20.7308,
      "duration": 0.0824,
      "velocity": 94,
      "chip": "ym2612"
    },
    {
      "channel": 0,
      "note": 81,
      "start": 20.7339,
      "duration": 2.2125,
      "velocity": 86,
      "chip": "ym2612"
    },
    {
      "channel": 1,
      "note": 57,
      "start": 20.7373,
      "duration": 0.0736,
      "velocity": 98,
      "chip": "ym2612"
    },
    {
      "channel": 3,
      "note": 64,
      "start": 20.914,
      "duration": 0.0803,
      "velocity": 94,
      "chip": "ym2612"
    },
    {
      "channel": 1,
      "note": 57,
      "start": 20.9175,
      "duration": 0.0934,
      "velocity": 98,
      "chip": "ym2612"
    },
    {
      "channel": 3,
      "note": 57,
      "start": 21.0974,
      "duration": 0.0469,
      "velocity": 94,
      "chip": "ym2612"
    },
    {
      "channel": 1,
      "note": 64,
      "start": 21.1012,
      "duration": 0.0931,
      "velocity": 98,
      "chip": "ym2612"
    },
    {
      "channel": 3,
      "note": 57,
      "start": 21.2666,
      "duration": 0.1109,
      "velocity": 94,
      "chip": "ym2612"
    },
    {
      "channel": 1,
      "note": 57,
      "start": 21.2701,
      "duration": 0.0741,
      "velocity": 98,
      "chip": "ym2612"
    },
    {
      "channel": 3,
      "note": 66,
      "start": 21.4474,
      "duration": 0.1135,
      "velocity": 94,
      "chip": "ym2612"
    },
    {
      "channel": 1,
      "note": 57,
      "start": 21.4509,
      "duration": 0.1123,
      "velocity": 98,
      "chip": "ym2612"
    },
    {
      "channel": 4,
      "note": 38,
      "start": 21.6307,
      "duration": 1.447,
      "velocity": 93,
      "chip": "ym2612"
    },
    {
      "channel": 1,
      "note": 66,
      "start": 21.6343,
      "duration": 0.0955,
      "velocity": 98,
      "chip": "ym2612"
    },
    {
      "channel": 3,
      "note": 57,
      "start": 21.814,
      "duration": 0.0969,
      "velocity": 94,
      "chip": "ym2612"
    },
    {
      "channel": 1,
      "note": 57,
      "start": 21.9979,
      "duration": 0.0963,
      "velocity": 98,
      "chip": "ym2612"
    },
    {
      "channel": 3,
      "note": 57,
      "start": 22.1808,
      "duration": 0.0968,
      "velocity": 94,
      "chip": "ym2612"
    },
    {
      "channel": 3,
      "note": 62,
      "start": 22.3474,
      "duration": 0.1302,
      "velocity": 94,
      "chip": "ym2612"
    },
    {
      "channel": 1,
      "note": 57,
      "start": 22.3509,
      "duration": 0.1099,
      "velocity": 98,
      "chip": "ym2612"
    },
    {
      "channel": 3,
      "note": 57,
      "start": 22.5309,
      "duration": 0.0967,
      "velocity": 94,
      "chip": "ym2612"
    },
    {
      "channel": 5,
      "note": 57,
      "start": 22.5339,
      "duration": 0.0939,
      "velocity": 94,
      "chip": "ym2612"
    },
    {
      "channel": 1,
      "note": 62,
      "start": 22.5374,
      "duration": 0.1235,
      "velocity": 98,
      "chip": "ym2612"
    },
    {
      "channel": 3,
      "note": 62,
      "start": 22.7143,
      "duration": 0.0634,
      "velocity": 94,
      "chip": "ym2612"
    },
    {
      "channel": 1,
      "note": 57,
      "start": 22.718,
      "duration": 0.0785,
      "velocity": 98,
      "chip": "ym2612"
    },
    {
      "channel": 2,
      "note": 57,
      "start": 22.7214,
      "duration": 0.0896,
      "velocity": 98,
      "chip": "ym2612"
    },
    {
      "channel": 1,
      "note": 62,
      "start": 22.8983,
      "duration": 0.0627,
      "velocity": 98,
      "chip": "ym2612"
    },
    {
      "channel": 4,
      "note": 33,
      "start": 23.0816,
      "duration": 2.9294,
      "velocity": 93,
      "chip": "ym2612"
    },
    {
      "channel": 0,
      "note": 93,
      "start": 23.0843,
      "duration": 0.4265,
      "velocity": 86,
      "chip": "ym2612"
    },
    {
      "channel": 3,
      "note": 57,
      "start": 23.4313,
      "duration": 0.0963,
      "velocity": 94,
      "chip": "ym2612"
    },
    {
      "channel": 3,
      "note": 57,
      "start": 23.6141,
      "duration": 0.0969,
      "velocity": 94,
      "chip": "ym2612"
    },
    {
      "channel": 0,
      "note": 91,
      "start": 23.6172,
      "duration": 2.2126,
      "velocity": 86,
      "chip": "ym2612"
    },
    {
      "channel": 1,
      "note": 57,
      "start": 23.6206,
      "duration": 0.0903,
      "velocity": 98,
      "chip": "ym2612"
    },
    {
      "channel": 3,
      "note": 69,
      "start": 23.7974,
      "duration": 0.1636,
      "velocity": 94,
      "chip": "ym2612"
    },
    {
      "channel": 1,
      "note": 57,
      "start": 23.8009,
      "duration": 0.1098,
      "velocity": 98,
      "chip": "ym2612"
    },
    {
      "channel": 3,
      "note": 57,
      "start": 23.9807,
      "duration": 0.0469,
      "velocity": 94,
      "chip": "ym2612"
    },
    {
      "channel": 5,
      "note": 48,
      "start": 23.9839,
      "duration": 0.0439,
      "velocity": 114,
      "chip": "ym2612"
    },
    {
      "channel": 1,
      "note": 69,
      "start": 23.9871,
      "duration": 0.1739,
      "velocity": 98,
      "chip": "ym2612"
    },
    {
      "channel": 3,
      "note": 57,
      "start": 24.1642,
      "duration": 0.1133,
      "velocity": 94,
      "chip": "ym2612"
    },
    {
      "channel": 5,
      "note": 48,
      "start": 24.1671,
      "duration": 0.0273,
      "velocity": 114,
      "chip": "ym2612"
    },
    {
      "channel": 1,
      "note": 57,
      "start": 24.1702,
      "duration": 0.0406,
      "velocity": 98,
      "chip": "ym2612"
    },
    {
      "channel": 3,
      "note": 67,
      "start": 24.331,
      "duration": 0.1133,
      "velocity": 94,
      "chip": "ym2612"
    },
    {
      "channel": 5,
      "note": 48,
      "start": 24.3337,
      "duration": 0.044,
      "velocity": 114,
      "chip": "ym2612"
    },
    {
      "channel": 1,
      "note": 57,
      "start": 24.3372,
      "duration": 0.1237,
      "velocity": 98,
      "chip": "ym2612"
    },
    {
      "channel": 5,
      "note": 48,
      "start": 24.5141,
      "duration": 0.0802,
      "velocity": 114,
      "chip": "ym2612"
    },
    {
      "channel": 1,
      "note": 67,
      "start": 24.5175,
      "duration": 0.0956,
      "velocity": 98,
      "chip": "ym2612"
    },
    {
      "channel": 3,
      "note": 57,
      "start": 24.6973,
      "duration": 0.097,
      "velocity": 94,
      "chip": "ym2612"
    },
    {
      "channel": 5,
      "note": 50,
      "start": 24.7006,
      "duration": 0.0604,
      "velocity": 114,
      "chip": "ym2612"
    },
    {
      "channel": 5,
      "note": 45,
      "start": 24.8809,
      "duration": 0.0468,
      "velocity": 114,
      "chip": "ym2612"
    },
    {
      "channel": 1,
      "note": 57,
      "start": 24.8841,
      "duration": 0.1102,
      "velocity": 98,
      "chip": "ym2612"
    },
    {
      "channel": 3,
      "note": 57,
      "start": 25.0645,
      "duration": 0.0964,
      "velocity": 94,
      "chip": "ym2612"
    },
    {
      "channel": 5,
      "note": 45,
      "start": 25.0677,
      "duration": 0.0433,
      "velocity": 114,
      "chip": "ym2612"
    },
    {
      "channel": 3,
      "note": 64,
      "start": 25.2332,
      "duration": 0.1277,
      "velocity": 94,
      "chip": "ym2612"
    },
    {
      "channel": 2,
      "note": 57,
      "start": 25.2363,
      "duration": 0.2414,
      "velocity": 94,
      "chip": "ym2612"
    },
    {
      "channel": 1,
      "note": 57,
      "start": 25.24,
      "duration": 0.1043,
      "velocity": 98,
      "chip": "ym2612"
    },
    {
      "channel": 1,
      "note": 64,
      "start": 25.4149,
      "duration": 0.1292,
      "velocity": 98,
      "chip": "ym2612"
    },
    {
      "channel": 5,
      "note": 57,
      "start": 25.418,
      "duration": 0.2598,
      "velocity": 98,
      "chip": "ym2612"
    },
    {
      "channel": 3,
      "note": 64,
      "start": 25.5977,
      "duration": 0.0823,
      "velocity": 94,
      "chip": "ym2612"
    },
    {
      "channel": 3,
      "note": 67,
      "start": 25.7807,
      "duration": 0.0802,
      "velocity": 94,
      "chip": "ym2612"
    },
    {
      "channel": 1,
      "note": 64,
      "start": 25.7848,
      "duration": 0.0927,
      "velocity": 98,
      "chip": "ym2612"
    },
    {
      "channel": 2,
      "note": 36,
      "start": 25.9646,
      "duration": 1.4798,
      "velocity": 93,
      "chip": "ym2612"
    },
    {
      "channel": 0,
      "note": 86,
      "start": 25.9676,
      "duration": 0.4765,
      "velocity": 86,
      "chip": "ym2612"
    },
    {
      "channel": 1,
      "note": 67,
      "start": 25.971,
      "duration": 0.09,
      "velocity": 98,
      "chip": "ym2612"
    },
    {
      "channel": 3,
      "note": 57,
      "start": 26.314,
      "duration": 0.097,
      "velocity": 94,
      "chip": "ym2612"
    },
    {
      "channel": 5,
      "note": 57,
      "start": 26.317,
      "duration": 0.0941,
      "velocity": 94,
      "chip": "ym2612"
    },
    {
      "channel": 0,
      "note": 88,
      "start": 26.4976,
      "duration": 2.2321,
      "velocity": 86,
      "chip": "ym2612"
    },
    {
      "channel": 1,
      "note": 57,
      "start": 26.501,
      "duration": 0.0932,
      "velocity": 98,
      "chip": "ym2612"
    },
    {
      "channel": 4,
      "note": 57,
      "start": 26.5042,
      "duration": 0.0925,
      "velocity": 98,
      "chip": "ym2612"
    },
    {
      "channel": 3,
      "note": 64,
      "start": 26.6813,
      "duration": 0.0962,
      "velocity": 94,
      "chip": "ym2612"
    },
    {
      "channel": 5,
      "note": 57,
      "start": 26.6844,
      "duration": 0.0599,
      "velocity": 94,
      "chip": "ym2612"
    },
    {
      "channel": 1,
      "note": 64,
      "start": 26.865,
      "duration": 0.1126,
      "velocity": 98,
      "chip": "ym2612"
    },
    {
      "channel": 4,
      "note": 57,
      "start": 26.8679,
      "duration": 0.0431,
      "velocity": 98,
      "chip": "ym2612"
    },
    {
      "channel": 3,
      "note": 57,
      "start": 27.0476,
      "duration": 0.0801,
      "velocity": 94,
      "chip": "ym2612"
    },
    {
      "channel": 3,
      "note": 66,
      "start": 27.2163,
      "duration": 0.1445,
      "velocity": 94,
      "chip": "ym2612"
    },
    {
      "channel": 1,
      "note": 57,
      "start": 27.2203,
      "duration": 0.0905,
      "velocity": 98,
      "chip": "ym2612"
    },
    {
      "channel": 3,
      "note": 57,
      "start": 27.3976,
      "duration": 0.1134,
      "velocity": 94,
      "chip": "ym2612"
    },
    {
      "channel": 5,
      "note": 38,
      "start": 27.4005,
      "duration": 1.3938,
      "velocity": 93,
      "chip": "ym2612"
    },
    {
      "channel": 1,
      "note": 66,
      "start": 27.4039,
      "duration": 0.1403,
      "velocity": 98,
      "chip": "ym2612"
    },
    {
      "channel": 1,
      "note": 57,
      "start": 27.5816,
      "duration": 0.096,
      "velocity": 98,
      "chip": "ym2612"
    },
    {
      "channel": 3,
      "note": 57,
      "start": 27.7641,
      "duration": 0.1301,
      "velocity": 94,
      "chip": "ym2612"
    },
    {
      "channel": 1,
      "note": 57,
      "start": 27.9481,
      "duration": 0.1295,
      "velocity": 98,
      "chip": "ym2612"
    },
    {
      "channel": 3,
      "note": 62,
      "start": 28.1313,
      "duration": 0.0963,
      "velocity": 94,
      "chip": "ym2612"
    },
    {
      "channel": 4,
      "note": 57,
      "start": 28.1344,
      "duration": 0.0265,
      "velocity": 94,
      "chip": "ym2612"
    },
    {
      "channel": 3,
      "note": 57,
      "start": 28.2976,
      "duration": 0.1134,
      "velocity": 94,
      "chip": "ym2612"
    },
    {
      "channel": 1,
      "note": 62,
      "start": 28.3012,
      "duration": 0.1264,
      "velocity": 98,
      "chip": "ym2612"
    },
    {
      "channel": 2,
      "note": 57,
      "start": 28.3043,
      "duration": 0.0568,
      "velocity": 98,
      "chip": "ym2612"
    },
    {
      "channel": 1,
      "note": 57,
      "start": 28.4819,
      "duration": 0.1123,
      "velocity": 98,
      "chip": "ym2612"
    },
    {
      "channel": 3,
      "note": 64,
      "start": 28.6643,
      "duration": 0.0656,
      "velocity": 94,
      "chip": "ym2612"
    },
    {
      "channel": 5,
      "note": 33,
      "start": 28.8481,
      "duration": 2.9318,
      "velocity": 93,
      "chip": "ym2612"
    },
    {
      "channel": 0,
      "note": 93,
      "start": 28.8509,
      "duration": 0.4766,
      "velocity": 86,
      "chip": "ym2612"
    },
    {
      "channel": 1,
      "note": 64,
      "start": 28.8543,
      "duration": 0.0733,
      "velocity": 98,
      "chip": "ym2612"
    },
    {
      "channel": 3,
      "note": 57,
      "start": 29.1996,
      "duration": 0.0779,
      "velocity": 94,
      "chip": "ym2612"
    },
    {
      "channel": 3,
      "note": 57,
      "start": 29.3808,
      "duration": 0.1135,
      "velocity": 94,
      "chip": "ym2612"
    },
    {
      "channel": 0,
      "note": 91,
      "start": 29.3839,
      "duration": 2.2459,
      "velocity": 86,
      "chip": "ym2612"
    },
    {
      "channel": 1,
      "note": 57,
      "start": 29.3874,
      "duration": 0.0735,
      "velocity": 98,
      "chip": "ym2612"
    },
    {
      "channel": 3,
      "note": 69,
      "start": 29.5645,
      "duration": 0.0964,
      "velocity": 94,
      "chip": "ym2612"
    },
    {
      "channel": 4,
      "note": 57,
      "start": 29.5675,
      "duration": 0.0791,
      "velocity": 94,
      "chip": "ym2612"
    },
    {
      "channel": 1,
      "note": 57,
      "start": 29.571,
      "duration": 0.1066,
      "velocity": 98,
      "chip": "ym2612"
    },
    {
      "channel": 2,
      "note": 48,
      "start": 29.7479,
      "duration": 0.0799,
      "velocity": 114,
      "chip": "ym2612"
    },
    {
      "channel": 1,
      "note": 69,
      "start": 29.751,
      "duration": 0.1098,
      "velocity": 98,
      "chip": "ym2612"
    },
    {
      "channel": 4,
      "note": 57,
      "start": 29.7541,
      "duration": 0.0901,
      "velocity": 98,
      "chip": "ym2612"
    },
    {
      "channel": 3,
      "note": 57,
      "start": 29.931,
      "duration": 0.1133,
      "velocity": 94,
      "chip": "ym2612"
    },
    {
      "channel": 2,
      "note": 48,
      "start": 29.9339,
      "duration": 0.0271,
      "velocity": 114,
      "chip": "ym2612"
    },
    {
      "channel": 3,
      "note": 67,
      "start": 30.0996,
      "duration": 0.1281,
      "velocity": 94,
      "chip": "ym2612"
    },
    {
      "channel": 2,
      "note": 48,
      "start": 30.1025,
      "duration": 0.0419,
      "velocity": 114,
      "chip": "ym2612"
    },
    {
      "channel": 1,
      "note": 57,
      "start": 30.1062,
      "duration": 0.1214,
      "velocity": 98,
      "chip": "ym2612"
    },
    {
      "channel": 2,
      "note": 48,
      "start": 30.2809,
      "duration": 0.0802,
      "velocity": 114,
      "chip": "ym2612"
    },
    {
      "channel": 1,
      "note": 67,
      "start": 30.2842,
      "duration": 0.1289,
      "velocity": 98,
      "chip": "ym2612"
    },
    {
      "channel": 3,
      "note": 57,
      "start": 30.464,
      "duration": 0.0992,
      "velocity": 94,
      "chip": "ym2612"
    },
    {
      "channel": 2,
      "note": 50,
      "start": 30.4674,
      "duration": 0.0604,
      "velocity": 114,
      "chip": "ym2612"
    },
    {
      "channel": 2,
      "note": 45,
      "start": 30.6476,
      "duration": 0.0469,
      "velocity": 114,
      "chip": "ym2612"
    },
    {
      "channel": 1,
      "note": 57,
      "start": 30.6507,
      "duration": 0.0935,
      "velocity": 98,
      "chip": "ym2612"
    },
    {
      "channel": 3,
      "note": 57,
      "start": 30.8309,
      "duration": 0.13,
      "velocity": 94,
      "chip": "ym2612"
    },
    {
      "channel": 2,
      "note": 45,
      "start": 30.8339,
      "duration": 0.0439,
      "velocity": 114,
      "chip": "ym2612"
    },
    {
      "channel": 3,
      "note": 64,
      "start": 31.0145,
      "duration": 0.1131,
      "velocity": 94,
      "chip": "ym2612"
    },
    {
      "channel": 2,
      "note": 45,
      "start": 31.0178,
      "duration": 0.0267,
      "velocity": 114,
      "chip": "ym2612"
    },
    {
      "channel": 1,
      "note": 57,
      "start": 31.0212,
      "duration": 0.1398,
      "velocity": 98,
      "chip": "ym2612"
    },
    {
      "channel": 3,
      "note": 57,
      "start": 31.1807,
      "duration": 0.0469,
      "velocity": 94,
      "chip": "ym2612"
    },
    {
      "channel": 1,
      "note": 64,
      "start": 31.1843,
      "duration": 0.1266,
      "velocity": 98,
      "chip": "ym2612"
    },
    {
      "channel": 3,
      "note": 57,
      "start": 31.3641,
      "duration": 0.1302,
      "velocity": 94,
      "chip": "ym2612"
    },
    {
      "channel": 1,
      "note": 57,
      "start": 31.3676,
      "duration": 0.06,
      "velocity": 98,
      "chip": "ym2612"
    },
    {
      "channel": 3,
      "note": 67,
      "start": 31.5475,
      "duration": 0.0802,
      "velocity": 94,
      "chip": "ym2612"
    },
    {
      "channel": 1,
      "note": 57,
      "start": 31.5514,
      "duration": 0.1261,
      "velocity": 98,
      "chip": "ym2612"
    },
    {
      "channel": 4,
      "note": 36,
      "start": 31.7311,
      "duration": 1.0964,
      "velocity": 93,
      "chip": "ym2612"
    },
    {
      "channel": 0,
      "note": 84,
      "start": 31.7342,
      "duration": 0.4432,
      "velocity": 86,
      "chip": "ym2612"
    },
    {
      "channel": 1,
      "note": 67,
      "start": 31.7376,
      "duration": 0.0733,
      "velocity": 98,
      "chip": "ym2612"
    },
    {
      "channel": 3,
      "note": 57,
      "start": 32.083,
      "duration": 0.0446,
      "velocity": 94,
      "chip": "ym2612"
    },
    {
      "channel": 3,
      "note": 57,
      "start": 32.2641,
      "duration": 0.0801,
      "velocity": 94,
      "chip": "ym2612"
    },
    {
      "channel": 0,
      "note": 86,
      "start": 32.2671,
      "duration": 2.2102,
      "velocity": 86,
      "chip": "ym2612"
    },
    {
      "channel": 1,
      "note": 57,
      "start": 32.2706,
      "duration": 0.0569,
      "velocity": 98,
      "chip": "ym2612"
    },
    {
      "channel": 3,
      "note": 57,
      "start": 32.4473,
      "duration": 0.0803,
      "velocity": 94,
      "chip": "ym2612"
    },
    {
      "channel": 1,
      "note": 57,
      "start": 32.4508,
      "duration": 0.0933,
      "velocity": 98,
      "chip": "ym2612"
    },
    {
      "channel": 3,
      "note": 57,
      "start": 32.6306,
      "duration": 0.0659,
      "velocity": 94,
      "chip": "ym2612"
    },
    {
      "channel": 1,
      "note": 57,
      "start": 32.6339,
      "duration": 0.077,
      "velocity": 98,
      "chip": "ym2612"
    },
    {
      "channel": 3,
      "note": 57,
      "start": 32.8145,
      "duration": 0.0797,
      "velocity": 94,
      "chip": "ym2612"
    },
    {
      "channel": 5,
      "note": 40,
      "start": 32.8173,
      "duration": 0.3437,
      "velocity": 93,
      "chip": "ym2612"
    },
    {
      "channel": 1,
      "note": 57,
      "start": 32.8208,
      "duration": 0.0567,
      "velocity": 98,
      "chip": "ym2612"
    },
    {
      "channel": 3,
      "note": 66,
      "start": 32.9975,
      "duration": 0.0968,
      "velocity": 94,
      "chip": "ym2612"
    },
    {
      "channel": 1,
      "note": 57,
      "start": 33.001,
      "duration": 0.0932,
      "velocity": 98,
      "chip": "ym2612"
    },
    {
      "channel": 4,
      "note": 38,
      "start": 33.1645,
      "duration": 1.2799,
      "velocity": 93,
      "chip": "ym2612"
    },
    {
      "channel": 1,
      "note": 66,
      "start": 33.1683,
      "duration": 0.1258,
      "velocity": 98,
      "chip": "ym2612"
    },
    {
      "channel": 3,
      "note": 57,
      "start": 33.3475,
      "duration": 0.0968,
      "velocity": 94,
      "chip": "ym2612"
    },
    {
      "channel": 1,
      "note": 57,
      "start": 33.5315,
      "duration": 0.0816,
      "velocity": 98,
      "chip": "ym2612"
    },
    {
      "channel": 3,
      "note": 57,
      "start": 33.7143,
      "duration": 0.0966,
      "velocity": 94,
      "chip": "ym2612"
    },
    {
      "channel": 3,
      "note": 62,
      "start": 33.8976,
      "duration": 0.0801,
      "velocity": 94,
      "chip": "ym2612"
    },
    {
      "channel": 1,
      "note": 57,
      "start": 33.9012,
      "duration": 0.1096,
      "velocity": 98,
      "chip": "ym2612"
    },
    {
      "channel": 1,
      "note": 62,
      "start": 34.0672,
      "duration": 0.1102,
      "velocity": 98,
      "chip": "ym2612"
    },
    {
      "channel": 3,
      "note": 57,
      "start": 34.2476,
      "duration": 0.0799,
      "velocity": 94,
      "chip": "ym2612"
    },
    {
      "channel": 3,
      "note": 64,
      "start": 34.4312,
      "duration": 0.0798,
      "velocity": 94,
      "chip": "ym2612"
    },
    {
      "channel": 5,
      "note": 40,
      "start": 34.4344,
      "duration": 0.1767,
      "velocity": 93,
      "chip": "ym2612"
    },
    {
      "channel": 1,
      "note": 57,
      "start": 34.4379,
      "duration": 0.0729,
      "velocity": 98,
      "chip": "ym2612"
    },
    {
      "channel": 4,
      "note": 33,
      "start": 34.6145,
      "duration": 2.9487,
      "velocity": 93,
      "chip": "ym2612"
    },
    {
      "channel": 0,
      "note": 93,
      "start": 34.6171,
      "duration": 0.4603,
      "velocity": 86,
      "chip": "ym2612"
    },
    {
      "channel": 1,
      "note": 64,
      "start": 34.6206,
      "duration": 0.0735,
      "velocity": 98,
      "chip": "ym2612"
    },
    {
      "channel": 3,
      "note": 57,
      "start": 34.9808,
      "duration": 0.0134,
      "velocity": 94,
      "chip": "ym2612"
    },
    {
      "channel": 3,
      "note": 57,
      "start": 35.1474,
      "duration": 0.0802,
      "velocity": 94,
      "chip": "ym2612"
    },
    {
      "channel": 0,
      "note": 91,
      "start": 35.1505,
      "duration": 2.227,
      "velocity": 86,
      "chip": "ym2612"
    },
    {
      "channel": 1,
      "note": 57,
      "start": 35.1543,
      "duration": 0.0399,
      "velocity": 98,
      "chip": "ym2612"
    },
    {
      "channel": 3,
      "note": 69,
      "start": 35.331,
      "duration": 0.1134,
      "velocity": 94,
      "chip": "ym2612"
    },
    {
      "channel": 2,
      "note": 57,
      "start": 35.3341,
      "duration": 0.0604,
      "velocity": 94,
      "chip": "ym2612"
    },
    {
      "channel": 1,
      "note": 57,
      "start": 35.3376,
      "duration": 0.09,
      "velocity": 98,
      "chip": "ym2612"
    },
    {
      "channel": 5,
      "note": 48,
      "start": 35.5145,
      "duration": 0.0822,
      "velocity": 114,
      "chip": "ym2612"
    },
    {
      "channel": 1,
      "note": 69,
      "start": 35.5178,
      "duration": 0.1098,
      "velocity": 98,
      "chip": "ym2612"
    },
    {
      "channel": 2,
      "note": 57,
      "start": 35.5209,
      "duration": 0.0735,
      "velocity": 98,
      "chip": "ym2612"
    },
    {
      "channel": 3,
      "note": 57,
      "start": 35.6976,
      "duration": 0.0968,
      "velocity": 94,
      "chip": "ym2612"
    },
    {
      "channel": 5,
      "note": 48,
      "start": 35.7005,
      "duration": 0.0439,
      "velocity": 114,
      "chip": "ym2612"
    },
    {
      "channel": 3,
      "note": 67,
      "start": 35.8813,
      "duration": 0.1462,
      "velocity": 94,
      "chip": "ym2612"
    },
    {
      "channel": 5,
      "note": 48,
      "start": 35.8841,
      "duration": 0.0269,
      "velocity": 114,
      "chip": "ym2612"
    },
    {
      "channel": 1,
      "note": 57,
      "start": 35.8874,
      "duration": 0.1068,
      "velocity": 98,
      "chip": "ym2612"
    },
    {
      "channel": 5,
      "note": 48,
      "start": 36.0502,
      "duration": 0.0775,
      "velocity": 114,
      "chip": "ym2612"
    },
    {
      "channel": 1,
      "note": 67,
      "start": 36.0535,
      "duration": 0.143,
      "velocity": 98,
      "chip": "ym2612"
    },
    {
      "channel": 3,
      "note": 57,
      "start": 36.2308,
      "duration": 0.0968,
      "velocity": 94,
      "chip": "ym2612"
    },
    {
      "channel": 5,
      "note": 50,
      "start": 36.2337,
      "duration": 0.0606,
      "velocity": 114,
      "chip": "ym2612"
    },
    {
      "channel": 5,
      "note": 45,
      "start": 36.4142,
      "duration": 0.0468,
      "velocity": 114,
      "chip": "ym2612"
    },
    {
      "channel": 1,
      "note": 57,
      "start": 36.4177,
      "duration": 0.0931,
      "velocity": 98,
      "chip": "ym2612"
    },
    {
      "channel": 3,
      "note": 57,
      "start": 36.5976,
      "duration": 0.0966,
      "velocity": 94,
      "chip": "ym2612"
    },
    {
      "channel": 5,
      "note": 45,
      "start": 36.6008,
      "duration": 0.0602,
      "velocity": 114,
      "chip": "ym2612"
    },
    {
      "channel": 3,
      "note": 62,
      "start": 36.7809,
      "duration": 0.1134,
      "velocity": 94,
      "chip": "ym2612"
    },
    {
      "channel": 2,
      "note": 57,
      "start": 36.7841,
      "duration": 0.0293,
      "velocity": 94,
      "chip": "ym2612"
    },
    {
      "channel": 1,
      "note": 57,
      "start": 36.7878,
      "duration": 0.1064,
      "velocity": 98,
      "chip": "ym2612"
    },
    {
      "channel": 1,
      "note": 62,
      "start": 36.9649,
      "duration": 0.1293,
      "velocity": 98,
      "chip": "ym2612"
    },
    {
      "channel": 5,
      "note": 57,
      "start": 36.968,
      "duration": 0.0263,
      "velocity": 98,
      "chip": "ym2612"
    },
    {
      "channel": 3,
      "note": 57,
      "start": 37.131,
      "duration": 0.13,
      "velocity": 94,
      "chip": "ym2612"
    },
    {
      "channel": 3,
      "note": 64,
      "start": 37.3146,
      "duration": 0.0963,
      "velocity": 94,
      "chip": "ym2612"
    },
    {
      "channel": 1,
      "note": 57,
      "start": 37.3182,
      "duration": 0.1092,
      "velocity": 98,
      "chip": "ym2612"
    },
    {
      "channel": 2,
      "note": 36,
      "start": 37.4979,
      "duration": 1.4544,
      "velocity": 93,
      "chip": "ym2612"
    },
    {
      "channel": 0,
      "note": 86,
      "start": 37.5009,
      "duration": 0.4932,
      "velocity": 86,
      "chip": "ym2612"
    },
    {
      "channel": 1,
      "note": 64,
      "start": 37.5047,
      "duration": 0.0895,
      "velocity": 98,
      "chip": "ym2612"
    },
    {
      "channel": 3,
      "note": 57,
      "start": 37.8643,
      "duration": 0.0156,
      "velocity": 94,
      "chip": "ym2612"
    },
    {
      "channel": 3,
      "note": 57,
      "start": 38.033,
      "duration": 0.0446,
      "velocity": 94,
      "chip": "ym2612"
    },
    {
      "channel": 0,
      "note": 88,
      "start": 38.0362,
      "duration": 2.2581,
      "velocity": 86,
      "chip": "ym2612"
    },
    {
      "channel": 1,
      "note": 57,
      "start": 38.0396,
      "duration": 0.0379,
      "velocity": 98,
      "chip": "ym2612"
    },
    {
      "channel": 3,
      "note": 64,
      "start": 38.2142,
      "duration": 0.1134,
      "velocity": 94,
      "chip": "ym2612"
    },
    {
      "channel": 1,
      "note": 57,
      "start": 38.2177,
      "duration": 0.0599,
      "velocity": 98,
      "chip": "ym2612"
    },
    {
      "channel": 1,
      "note": 64,
      "start": 38.3983,
      "duration": 0.0959,
      "velocity": 98,
      "chip": "ym2612"
    },
    {
      "channel": 3,
      "note": 57,
      "start": 38.5809,
      "duration": 0.0489,
      "velocity": 94,
      "chip": "ym2612"
    },
    {
      "channel": 3,
      "note": 62,
      "start": 38.7647,
      "duration": 0.1129,
      "velocity": 94,
      "chip": "ym2612"
    },
    {
      "channel": 1,
      "note": 57,
      "start": 38.7683,
      "duration": 0.0592,
      "velocity": 98,
      "chip": "ym2612"
    },
    {
      "channel": 4,
      "note": 38,
      "start": 38.9474,
      "duration": 1.4136,
      "velocity": 93,
      "chip": "ym2612"
    },
    {
      "channel": 1,
      "note": 62,
      "start": 38.951,
      "duration": 0.1099,
      "velocity": 98,
      "chip": "ym2612"
    },
    {
      "channel": 3,
      "note": 57,
      "start": 39.1141,
      "duration": 0.1134,
      "velocity": 94,
      "chip": "ym2612"
    },
    {
      "channel": 1,
      "note": 57,
      "start": 39.2985,
      "duration": 0.098,
      "velocity": 98,
      "chip": "ym2612"
    },
    {
      "channel": 3,
      "note": 57,
      "start": 39.481,
      "duration": 0.08,
      "velocity": 94,
      "chip": "ym2612"
    },
    {
      "channel": 3,
      "note": 62,
      "start": 39.6642,
      "duration": 0.0968,
      "velocity": 94,
      "chip": "ym2612"
    },
    {
      "channel": 1,
      "note": 57,
      "start": 39.6677,
      "duration": 0.0931,
      "velocity": 98,
      "chip": "ym2612"
    },
    {
      "channel": 1,
      "note": 62,
      "start": 39.8482,
      "duration": 0.1127,
      "velocity": 98,
      "chip": "ym2612"
    },
    {
      "channel": 3,
      "note": 57,
      "start": 40.0164,
      "duration": 0.1112,
      "velocity": 94,
      "chip": "ym2612"
    },
    {
      "channel": 3,
      "note": 64,
      "start": 40.1975,
      "duration": 0.1134,
      "velocity": 94,
      "chip": "ym2612"
    },
    {
      "channel": 1,
      "note": 57,
      "start": 40.201,
      "duration": 0.1122,
      "velocity": 98,
      "chip": "ym2612"
    },
    {
      "channel": 4,
      "note": 41,
      "start": 40.3805,
      "duration": 1.4304,
      "velocity": 93,
      "chip": "ym2612"
    },
    {
      "channel": 0,
      "note": 88,
      "start": 40.3832,
      "duration": 0.4776,
      "velocity": 86,
      "chip": "ym2612"
    },
    {
      "channel": 1,
      "note": 64,
      "start": 40.3864,
      "duration": 0.1078,
      "velocity": 98,
      "chip": "ym2612"
    },
    {
      "channel": 3,
      "note": 57,
      "start": 40.931,
      "duration": 0.0632,
      "velocity": 94,
      "chip": "ym2612"
    },
    {
      "channel": 0,
      "note": 86,
      "start": 40.934,
      "duration": 2.2102,
      "velocity": 86,
      "chip": "ym2612"
    },
    {
      "channel": 3,
      "note": 69,
      "start": 41.098,
      "duration": 0.1296,
      "velocity": 94,
      "chip": "ym2612"
    },
    {
      "channel": 5,
      "note": 57,
      "start": 41.1011,
      "duration": 0.0599,
      "velocity": 94,
      "chip": "ym2612"
    },
    {
      "channel": 1,
      "note": 57,
      "start": 41.1047,
      "duration": 0.0727,
      "velocity": 98,
      "chip": "ym2612"
    },
    {
      "channel": 1,
      "note": 69,
      "start": 41.2815,
      "duration": 0.1127,
      "velocity": 98,
      "chip": "ym2612"
    },
    {
      "channel": 2,
      "note": 57,
      "start": 41.285,
      "duration": 0.076,
      "velocity": 98,
      "chip": "ym2612"
    },
    {
      "channel": 3,
      "note": 57,
      "start": 41.4643,
      "duration": 0.13,
      "velocity": 94,
      "chip": "ym2612"
    },
    {
      "channel": 3,
      "note": 67,
      "start": 41.6474,
      "duration": 0.1469,
      "velocity": 94,
      "chip": "ym2612"
    },
    {
      "channel": 1,
      "note": 57,
      "start": 41.651,
      "duration": 0.1265,
      "velocity": 98,
      "chip": "ym2612"
    },
    {
      "channel": 3,
      "note": 57,
      "start": 41.8307,
      "duration": 0.0302,
      "velocity": 94,
      "chip": "ym2612"
    },
    {
      "channel": 4,
      "note": 40,
      "start": 41.8339,
      "duration": 1.4603,
      "velocity": 93,
      "chip": "ym2612"
    },
    {
      "channel": 1,
      "note": 67,
      "start": 41.8373,
      "duration": 0.1569,
      "velocity": 98,
      "chip": "ym2612"
    },
    {
      "channel": 3,
      "note": 57,
      "start": 41.9998,
      "duration": 0.1111,
      "velocity": 94,
      "chip": "ym2612"
    },
    {
      "channel": 1,
      "note": 57,
      "start": 42.0033,
      "duration": 0.0409,
      "velocity": 98,
      "chip": "ym2612"
    },
    {
      "channel": 1,
      "note": 57,
      "start": 42.1817,
      "duration": 0.1126,
      "velocity": 98,
      "chip": "ym2612"
    },
    {
      "channel": 3,
      "note": 57,
      "start": 42.3646,
      "duration": 0.0818,
      "velocity": 94,
      "chip": "ym2612"
    },
    {
      "channel": 3,
      "note": 64,
      "start": 42.5473,
      "duration": 0.1136,
      "velocity": 94,
      "chip": "ym2612"
    },
    {
      "channel": 1,
      "note": 57,
      "start": 42.5509,
      "duration": 0.0933,
      "velocity": 98,
      "chip": "ym2612"
    },
    {
      "channel": 3,
      "note": 57,
      "start": 42.7308,
      "duration": 0.0468,
      "velocity": 94,
      "chip": "ym2612"
    },
    {
      "channel": 1,
      "note": 64,
      "start": 42.7347,
      "duration": 0.1262,
      "velocity": 98,
      "chip": "ym2612"
    },
    {
      "channel": 3,
      "note": 57,
      "start": 42.8996,
      "duration": 0.1635,
      "velocity": 94,
      "chip": "ym2612"
    },
    {
      "channel": 1,
      "note": 57,
      "start": 42.9032,
      "duration": 0.0578,
      "velocity": 98,
      "chip": "ym2612"
    },
    {
      "channel": 3,
      "note": 67,
      "start": 43.081,
      "duration": 0.13,
      "velocity": 94,
      "chip": "ym2612"
    },
    {
      "channel": 1,
      "note": 57,
      "start": 43.0844,
      "duration": 0.1764,
      "velocity": 98,
      "chip": "ym2612"
    },
    {
      "channel": 5,
      "note": 39,
      "start": 43.2643,
      "duration": 1.4134,
      "velocity": 93,
      "chip": "ym2612"
    },
    {
      "channel": 0,
      "note": 84,
      "start": 43.2673,
      "duration": 0.5101,
      "velocity": 86,
      "chip": "ym2612"
    },
    {
      "channel": 1,
      "note": 67,
      "start": 43.2708,
      "duration": 0.1068,
      "velocity": 98,
      "chip": "ym2612"
    },
    {
      "channel": 3,
      "note": 57,
      "start": 43.631,
      "duration": 0.0466,
      "velocity": 94,
      "chip": "ym2612"
    },
    {
      "channel": 3,
      "note": 57,
      "start": 43.8144,
      "duration": 0.0798,
      "velocity": 94,
      "chip": "ym2612"
    },
    {
      "channel": 0,
      "note": 81,
      "start": 43.8175,
      "duration": 2.21,
      "velocity": 86,
      "chip": "ym2612"
    },
    {
      "channel": 1,
      "note": 57,
      "start": 43.821,
      "duration": 0.0565,
      "velocity": 98,
      "chip": "ym2612"
    },
    {
      "channel": 3,
      "note": 64,
      "start": 43.9806,
      "duration": 0.0969,
      "velocity": 94,
      "chip": "ym2612"
    },
    {
      "channel": 1,
      "note": 57,
      "start": 43.9841,
      "duration": 0.1101,
      "velocity": 98,
      "chip": "ym2612"
    },
    {
      "channel": 3,
      "note": 57,
      "start": 44.1641,
      "duration": 0.0636,
      "velocity": 94,
      "chip": "ym2612"
    },
    {
      "channel": 2,
      "note": 48,
      "start": 44.1671,
      "duration": 0.0607,
      "velocity": 114,
      "chip": "ym2612"
    },
    {
      "channel": 1,
      "note": 64,
      "start": 44.1702,
      "duration": 0.1072,
      "velocity": 98,
      "chip": "ym2612"
    },
    {
      "channel": 3,
      "note": 57,
      "start": 44.3475,
      "duration": 0.0968,
      "velocity": 94,
      "chip": "ym2612"
    },
    {
      "channel": 2,
      "note": 48,
      "start": 44.3505,
      "duration": 0.0439,
      "velocity": 114,
      "chip": "ym2612"
    },
    {
      "channel": 1,
      "note": 57,
      "start": 44.3537,
      "duration": 0.0739,
      "velocity": 98,
      "chip": "ym2612"
    },
    {
      "channel": 3,
      "note": 66,
      "start": 44.5307,
      "duration": 0.0969,
      "velocity": 94,
      "chip": "ym2612"
    },
    {
      "channel": 2,
      "note": 48,
      "start": 44.5336,
      "duration": 0.0442,
      "velocity": 114,
      "chip": "ym2612"
    },
    {
      "channel": 1,
      "note": 57,
      "start": 44.5371,
      "duration": 0.1071,
      "velocity": 98,
      "chip": "ym2612"
    },
    {
      "channel": 4,
      "note": 38,
      "start": 44.714,
      "duration": 1.4302,
      "velocity": 93,
      "chip": "ym2612"
    },
    {
      "channel": 2,
      "note": 48,
      "start": 44.7173,
      "duration": 0.0604,
      "velocity": 114,
      "chip": "ym2612"
    },
    {
      "channel": 1,
      "note": 66,
      "start": 44.7206,
      "duration": 0.0903,
      "velocity": 98,
      "chip": "ym2612"
    },
    {
      "channel": 3,
      "note": 57,
      "start": 44.8829,
      "duration": 0.1114,
      "velocity": 94,
      "chip": "ym2612"
    },
    {
      "channel": 2,
      "note": 50,
      "start": 44.8859,
      "duration": 0.0585,
      "velocity": 114,
      "chip": "ym2612"
    },
    {
      "channel": 2,
      "note": 45,
      "start": 45.0643,
      "duration": 0.0468,
      "velocity": 114,
      "chip": "ym2612"
    },
    {
      "channel": 1,
      "note": 57,
      "start": 45.0673,
      "duration": 0.1102,
      "velocity": 98,
      "chip": "ym2612"
    },
    {
      "channel": 3,
      "note": 57,
      "start": 45.2474,
      "duration": 0.099,
      "velocity": 94,
      "chip": "ym2612"
    },
    {
      "channel": 2,
      "note": 45,
      "start": 45.2504,
      "duration": 0.0606,
      "velocity": 114,
      "chip": "ym2612"
    },
    {
      "channel": 3,
      "note": 62,
      "start": 45.4307,
      "duration": 0.1135,
      "velocity": 94,
      "chip": "ym2612"
    },
    {
      "channel": 2,
      "note": 48,
      "start": 45.4338,
      "duration": 0.0773,
      "velocity": 114,
      "chip": "ym2612"
    },
    {
      "channel": 1,
      "note": 57,
      "start": 45.437,
      "duration": 0.0905,
      "velocity": 98,
      "chip": "ym2612"
    },
    {
      "channel": 3,
      "note": 57,
      "start": 45.6143,
      "duration": 0.0799,
      "velocity": 94,
      "chip": "ym2612"
    },
    {
      "channel": 5,
      "note": 57,
      "start": 45.6176,
      "duration": 0.0767,
      "velocity": 94,
      "chip": "ym2612"
    },
    {
      "channel": 2,
      "note": 50,
      "start": 45.6206,
      "duration": 0.0571,
      "velocity": 114,
      "chip": "ym2612"
    },
    {
      "channel": 1,
      "note": 62,
      "start": 45.6238,
      "duration": 0.1204,
      "velocity": 98,
      "chip": "ym2612"
    },
    {
      "channel": 3,
      "note": 62,
      "start": 45.7976,
      "duration": 0.0467,
      "velocity": 94,
      "chip": "ym2612"
    },
    {
      "channel": 2,
      "note": 45,
      "start": 45.8006,
      "duration": 0.0439,
      "velocity": 114,
      "chip": "ym2612"
    },
    {
      "channel": 1,
      "note": 57,
      "start": 45.8039,
      "duration": 0.0903,
      "velocity": 98,
      "chip": "ym2612"
    },
    {
      "channel": 5,
      "note": 57,
      "start": 45.8068,
      "duration": 0.0876,
      "velocity": 98,
      "chip": "ym2612"
    },
    {
      "channel": 2,
      "note": 45,
      "start": 45.9643,
      "duration": 0.0468,
      "velocity": 114,
      "chip": "ym2612"
    },
    {
      "channel": 1,
      "note": 62,
      "start": 45.9678,
      "duration": 0.0763,
      "velocity": 98,
      "chip": "ym2612"
    },
    {
      "channel": 0,
      "note": 93,
      "start": 46.1488,
      "duration": 0.4287,
      "velocity": 86,
      "chip": "ym2612"
    },
    {
      "channel": 3,
      "note": 33,
      "start": 46.1535,
      "duration": 0.024,
      "velocity": 113,
      "chip": "ym2612"
    },
    {
      "channel": 5,
      "note": 33,
      "start": 46.1573,
      "duration": 0.1704,
      "velocity": 117,
      "chip": "ym2612"
    },
    {
      "channel": 2,
      "note": 57,
      "start": 46.5145,
      "duration": 0.0798,
      "velocity": 94,
      "chip": "ym2612"
    },
    {
      "channel": 5,
      "note": 33,
      "start": 46.5182,
      "duration": 0.1928,
      "velocity": 117,
      "chip": "ym2612"
    },
    {
      "channel": 1,
      "note": 84,
      "start": 46.5224,
      "duration": 0.1385,
      "velocity": 127,
      "chip": "ym2612"
    },
    {
      "channel": 2,
      "note": 57,
      "start": 46.6977,
      "duration": 0.0968,
      "velocity": 94,
      "chip": "ym2612"
    },
    {
      "channel": 0,
      "note": 91,
      "start": 46.701,
      "duration": 2.2097,
      "velocity": 86,
      "chip": "ym2612"
    },
    {
      "channel": 4,
      "note": 57,
      "start": 46.7047,
      "duration": 0.0895,
      "velocity": 98,
      "chip": "ym2612"
    },
    {
      "channel": 2,
      "note": 69,
      "start": 46.8666,
      "duration": 0.1611,
      "velocity": 94,
      "chip": "ym2612"
    },
    {
      "channel": 3,
      "note": 33,
      "start": 46.8698,
      "duration": 0.0244,
      "velocity": 113,
      "chip": "ym2612"
    },
    {
      "channel": 5,
      "note": 33,
      "start": 46.8726,
      "duration": 0.1884,
      "velocity": 117,
      "chip": "ym2612"
    },
    {
      "channel": 4,
      "note": 57,
      "start": 46.8757,
      "duration": 0.1187,
      "velocity": 98,
      "chip": "ym2612"
    },
    {
      "channel": 2,
      "note": 57,
      "start": 47.048,
      "duration": 0.063,
      "velocity": 94,
      "chip": "ym2612"
    },
    {
      "channel": 4,
      "note": 69,
      "start": 47.0516,
      "duration": 0.176,
      "velocity": 98,
      "chip": "ym2612"
    },
    {
      "channel": 2,
      "note": 57,
      "start": 47.2311,
      "duration": 0.1133,
      "velocity": 94,
      "chip": "ym2612"
    },
    {
      "channel": 5,
      "note": 33,
      "start": 47.2346,
      "duration": 0.0954,
      "velocity": 117,
      "chip": "ym2612"
    },
    {
      "channel": 4,
      "note": 57,
      "start": 47.2376,
      "duration": 0.0568,
      "velocity": 98,
      "chip": "ym2612"
    },
    {
      "channel": 1,
      "note": 84,
      "start": 47.24,
      "duration": 0.1375,
      "velocity": 127,
      "chip": "ym2612"
    },
    {
      "channel": 2,
      "note": 67,
      "start": 47.4145,
      "duration": 0.0966,
      "velocity": 94,
      "chip": "ym2612"
    },
    {
      "channel": 3,
      "note": 33,
      "start": 47.4173,
      "duration": 0.027,
      "velocity": 113,
      "chip": "ym2612"
    },
    {
      "channel": 5,
      "note": 45,
      "start": 47.4204,
      "duration": 0.1074,
      "velocity": 117,
      "chip": "ym2612"
    },
    {
      "channel": 4,
      "note": 57,
      "start": 47.4234,
      "duration": 0.1043,
      "velocity": 98,
      "chip": "ym2612"
    },
    {
      "channel": 3,
      "note": 33,
      "start": 47.5974,
      "duration": 0.0302,
      "velocity": 113,
      "chip": "ym2612"
    },
    {
      "channel": 5,
      "note": 33,
      "start": 47.6005,
      "duration": 0.1772,
      "velocity": 117,
      "chip": "ym2612"
    },
    {
      "channel": 4,
      "note": 67,
      "start": 47.6042,
      "duration": 0.0901,
      "velocity": 98,
      "chip": "ym2612"
    },
    {
      "channel": 2,
      "note": 57,
      "start": 47.781,
      "duration": 0.0968,
      "velocity": 94,
      "chip": "ym2612"
    },
    {
      "channel": 5,
      "note": 33,
      "start": 47.9479,
      "duration": 0.1964,
      "velocity": 117,
      "chip": "ym2612"
    },
    {
      "channel": 4,
      "note": 57,
      "start": 47.951,
      "duration": 0.1267,
      "velocity": 98,
      "chip": "ym2612"
    },
    {
      "channel": 1,
      "note": 84,
      "start": 47.9535,
      "duration": 0.174,
      "velocity": 127,
      "chip": "ym2612"
    },
    {
      "channel": 2,
      "note": 57,
      "start": 48.1311,
      "duration": 0.0989,
      "velocity": 94,
      "chip": "ym2612"
    },
    {
      "channel": 2,
      "note": 64,
      "start": 48.3144,
      "duration": 0.1133,
      "velocity": 94,
      "chip": "ym2612"
    },
    {
      "channel": 3,
      "note": 57,
      "start": 48.3176,
      "duration": 0.2289,
      "velocity": 94,
      "chip": "ym2612"
    },
    {
      "channel": 4,
      "note": 33,
      "start": 48.3205,
      "duration": 0.0239,
      "velocity": 113,
      "chip": "ym2612"
    },
    {
      "channel": 5,
      "note": 33,
      "start": 48.3232,
      "duration": 0.1877,
      "velocity": 117,
      "chip": "ym2612"
    },
    {
      "channel": 1,
      "note": 57,
      "start": 48.3266,
      "duration": 0.0842,
      "velocity": 98,
      "chip": "ym2612"
    },
    {
      "channel": 1,
      "note": 64,
      "start": 48.4983,
      "duration": 0.1293,
      "velocity": 98,
      "chip": "ym2612"
    },
    {
      "channel": 4,
      "note": 57,
      "start": 48.5013,
      "duration": 0.2431,
      "velocity": 98,
      "chip": "ym2612"
    },
    {
      "channel": 3,
      "note": 64,
      "start": 48.6813,
      "duration": 0.0797,
      "velocity": 94,
      "chip": "ym2612"
    },
    {
      "channel": 5,
      "note": 33,
      "start": 48.6845,
      "duration": 0.1765,
      "velocity": 117,
      "chip": "ym2612"
    },
    {
      "channel": 2,
      "note": 84,
      "start": 48.6875,
      "duration": 0.1236,
      "velocity": 127,
      "chip": "ym2612"
    },
    {
      "channel": 3,
      "note": 67,
      "start": 48.8496,
      "duration": 0.0947,
      "velocity": 94,
      "chip": "ym2612"
    },
    {
      "channel": 1,
      "note": 64,
      "start": 48.8535,
      "duration": 0.1074,
      "velocity": 98,
      "chip": "ym2612"
    },
    {
      "channel": 0,
      "note": 86,
      "start": 49.0307,
      "duration": 0.4801,
      "velocity": 86,
      "chip": "ym2612"
    },
    {
      "channel": 4,
      "note": 33,
      "start": 49.0334,
      "duration": 0.0276,
      "velocity": 113,
      "chip": "ym2612"
    },
    {
      "channel": 5,
      "note": 36,
      "start": 49.0364,
      "duration": 0.2413,
      "velocity": 117,
      "chip": "ym2612"
    },
    {
      "channel": 1,
      "note": 67,
      "start": 49.0394,
      "duration": 0.1048,
      "velocity": 98,
      "chip": "ym2612"
    },
    {
      "channel": 3,
      "note": 57,
      "start": 49.3974,
      "duration": 0.0802,
      "velocity": 94,
      "chip": "ym2612"
    },
    {
      "channel": 2,
      "note": 57,
      "start": 49.4004,
      "duration": 0.0774,
      "velocity": 94,
      "chip": "ym2612"
    },
    {
      "channel": 5,
      "note": 36,
      "start": 49.4042,
      "duration": 0.209,
      "velocity": 117,
      "chip": "ym2612"
    },
    {
      "channel": 4,
      "note": 84,
      "start": 49.4084,
      "duration": 0.1359,
      "velocity": 127,
      "chip": "ym2612"
    },
    {
      "channel": 0,
      "note": 88,
      "start": 49.581,
      "duration": 2.2298,
      "velocity": 86,
      "chip": "ym2612"
    },
    {
      "channel": 1,
      "note": 57,
      "start": 49.5844,
      "duration": 0.0598,
      "velocity": 98,
      "chip": "ym2612"
    },
    {
      "channel": 3,
      "note": 57,
      "start": 49.5876,
      "duration": 0.09,
      "velocity": 98,
      "chip": "ym2612"
    },
    {
      "channel": 2,
      "note": 64,
      "start": 49.7644,
      "duration": 0.0966,
      "velocity": 94,
      "chip": "ym2612"
    },
    {
      "channel": 4,
      "note": 57,
      "start": 49.7676,
      "duration": 0.0433,
      "velocity": 94,
      "chip": "ym2612"
    },
    {
      "channel": 5,
      "note": 33,
      "start": 49.7706,
      "duration": 0.0074,
      "velocity": 113,
      "chip": "ym2612"
    },
    {
      "channel": 1,
      "note": 36,
      "start": 49.7736,
      "duration": 0.1706,
      "velocity": 117,
      "chip": "ym2612"
    },
    {
      "channel": 3,
      "note": 64,
      "start": 49.9315,
      "duration": 0.1295,
      "velocity": 98,
      "chip": "ym2612"
    },
    {
      "channel": 5,
      "note": 57,
      "start": 49.9346,
      "duration": 0.0598,
      "velocity": 98,
      "chip": "ym2612"
    },
    {
      "channel": 4,
      "note": 57,
      "start": 50.1146,
      "duration": 0.0964,
      "velocity": 94,
      "chip": "ym2612"
    },
    {
      "channel": 1,
      "note": 36,
      "start": 50.118,
      "duration": 0.1595,
      "velocity": 117,
      "chip": "ym2612"
    },
    {
      "channel": 2,
      "note": 84,
      "start": 50.1208,
      "duration": 0.1402,
      "velocity": 127,
      "chip": "ym2612"
    },
    {
      "channel": 4,
      "note": 66,
      "start": 50.2975,
      "duration": 0.1301,
      "velocity": 94,
      "chip": "ym2612"
    },
    {
      "channel": 5,
      "note": 33,
      "start": 50.3005,
      "duration": 0.0272,
      "velocity": 113,
      "chip": "ym2612"
    },
    {
      "channel": 1,
      "note": 40,
      "start": 50.3033,
      "duration": 0.0742,
      "velocity": 117,
      "chip": "ym2612"
    },
    {
      "channel": 3,
      "note": 57,
      "start": 50.3069,
      "duration": 0.0708,
      "velocity": 98,
      "chip": "ym2612"
    },
    {
      "channel": 4,
      "note": 57,
      "start": 50.481,
      "duration": 0.0966,
      "velocity": 94,
      "chip": "ym2612"
    },
    {
      "channel": 5,
      "note": 33,
      "start": 50.484,
      "duration": 0.027,
      "velocity": 113,
      "chip": "ym2612"
    },
    {
      "channel": 1,
      "note": 38,
      "start": 50.487,
      "duration": 0.2073,
      "velocity": 117,
      "chip": "ym2612"
    },
    {
      "channel": 3,
      "note": 66,
      "start": 50.49,
      "duration": 0.1377,
      "velocity": 98,
      "chip": "ym2612"
    },
    {
      "channel": 3,
      "note": 57,
      "start": 50.6649,
      "duration": 0.0961,
      "velocity": 98,
      "chip": "ym2612"
    },
    {
      "channel": 4,
      "note": 57,
      "start": 50.833,
      "duration": 0.1446,
      "velocity": 94,
      "chip": "ym2612"
    },
    {
      "channel": 1,
      "note": 38,
      "start": 50.8362,
      "duration": 0.1747,
      "velocity": 117,
      "chip": "ym2612"
    },
    {
      "channel": 2,
      "note": 84,
      "start": 50.8393,
      "duration": 0.172,
      "velocity": 127,
      "chip": "ym2612"
    },
    {
      "channel": 3,
      "note": 57,
      "start": 51.015,
      "duration": 0.1292,
      "velocity": 98,
      "chip": "ym2612"
    },
    {
      "channel": 4,
      "note": 62,
      "start": 51.1977,
      "duration": 0.0966,
      "velocity": 94,
      "chip": "ym2612"
    },
    {
      "channel": 5,
      "note": 57,
      "start": 51.2008,
      "duration": 0.0436,
      "velocity": 94,
      "chip": "ym2612"
    },
    {
      "channel": 1,
      "note": 33,
      "start": 51.2037,
      "duration": 0.0239,
      "velocity": 113,
      "chip": "ym2612"
    },
    {
      "channel": 2,
      "note": 38,
      "start": 51.2068,
      "duration": 0.1543,
      "velocity": 117,
      "chip": "ym2612"
    },
    {
      "channel": 4,
      "note": 57,
      "start": 51.3814,
      "duration": 0.0962,
      "velocity": 94,
      "chip": "ym2612"
    },
    {
      "channel": 3,
      "note": 62,
      "start": 51.3851,
      "duration": 0.1092,
      "velocity": 98,
      "chip": "ym2612"
    },
    {
      "channel": 1,
      "note": 57,
      "start": 51.3881,
      "duration": 0.0416,
      "velocity": 98,
      "chip": "ym2612"
    },
    {
      "channel": 2,
      "note": 38,
      "start": 51.565,
      "duration": 0.2127,
      "velocity": 117,
      "chip": "ym2612"
    },
    {
      "channel": 1,
      "note": 57,
      "start": 51.5685,
      "duration": 0.109,
      "velocity": 98,
      "chip": "ym2612"
    },
    {
      "channel": 5,
      "note": 84,
      "start": 51.5713,
      "duration": 0.123,
      "velocity": 127,
      "chip": "ym2612"
    },
    {
      "channel": 4,
      "note": 64,
      "start": 51.7476,
      "duration": 0.0635,
      "velocity": 94,
      "chip": "ym2612"
    },
    {
      "channel": 0,
      "note": 93,
      "start": 51.914,
      "duration": 0.4801,
      "velocity": 86,
      "chip": "ym2612"
    },
    {
      "channel": 3,
      "note": 33,
      "start": 51.918,
      "duration": 0.0262,
      "velocity": 113,
      "chip": "ym2612"
    },
    {
      "channel": 2,
      "note": 33,
      "start": 51.9211,
      "duration": 0.2066,
      "velocity": 117,
      "chip": "ym2612"
    },
    {
      "channel": 1,
      "note": 64,
      "start": 51.9242,
      "duration": 0.0867,
      "velocity": 98,
      "chip": "ym2612"
    },
    {
      "channel": 4,
      "note": 57,
      "start": 52.2808,
      "duration": 0.0656,
      "velocity": 94,
      "chip": "ym2612"
    },
    {
      "channel": 2,
      "note": 33,
      "start": 52.2841,
      "duration": 0.2102,
      "velocity": 117,
      "chip": "ym2612"
    },
    {
      "channel": 5,
      "note": 84,
      "start": 52.2879,
      "duration": 0.1398,
      "velocity": 127,
      "chip": "ym2612"
    },
    {
      "channel": 4,
      "note": 57,
      "start": 52.4641,
      "duration": 0.0968,
      "velocity": 94,
      "chip": "ym2612"
    },
    {
      "channel": 0,
      "note": 91,
      "start": 52.4675,
      "duration": 2.2433,
      "velocity": 86,
      "chip": "ym2612"
    },
    {
      "channel": 1,
      "note": 57,
      "start": 52.471,
      "duration": 0.0566,
      "velocity": 98,
      "chip": "ym2612"
    },
    {
      "channel": 4,
      "note": 69,
      "start": 52.6474,
      "duration": 0.0969,
      "velocity": 94,
      "chip": "ym2612"
    },
    {
      "channel": 3,
      "note": 57,
      "start": 52.6506,
      "duration": 0.077,
      "velocity": 94,
      "chip": "ym2612"
    },
    {
      "channel": 5,
      "note": 33,
      "start": 52.6536,
      "duration": 0.0103,
      "velocity": 113,
      "chip": "ym2612"
    },
    {
      "channel": 2,
      "note": 33,
      "start": 52.6568,
      "duration": 0.1209,
      "velocity": 117,
      "chip": "ym2612"
    },
    {
      "channel": 1,
      "note": 57,
      "start": 52.6598,
      "duration": 0.1011,
      "velocity": 98,
      "chip": "ym2612"
    },
    {
      "channel": 2,
      "note": 45,
      "start": 52.817,
      "duration": 0.1275,
      "velocity": 117,
      "chip": "ym2612"
    },
    {
      "channel": 1,
      "note": 69,
      "start": 52.8199,
      "duration": 0.1243,
      "velocity": 98,
      "chip": "ym2612"
    },
    {
      "channel": 5,
      "note": 57,
      "start": 52.823,
      "duration": 0.1046,
      "velocity": 98,
      "chip": "ym2612"
    },
    {
      "channel": 3,
      "note": 57,
      "start": 52.9979,
      "duration": 0.1152,
      "velocity": 94,
      "chip": "ym2612"
    },
    {
      "channel": 2,
      "note": 33,
      "start": 53.0014,
      "duration": 0.1263,
      "velocity": 117,
      "chip": "ym2612"
    },
    {
      "channel": 4,
      "note": 84,
      "start": 53.0042,
      "duration": 0.1401,
      "velocity": 127,
      "chip": "ym2612"
    },
    {
      "channel": 3,
      "note": 67,
      "start": 53.1808,
      "duration": 0.1135,
      "velocity": 94,
      "chip": "ym2612"
    },
    {
      "channel": 5,
      "note": 33,
      "start": 53.1838,
      "duration": 0.0273,
      "velocity": 113,
      "chip": "ym2612"
    },
    {
      "channel": 2,
      "note": 45,
      "start": 53.1869,
      "duration": 0.0908,
      "velocity": 117,
      "chip": "ym2612"
    },
    {
      "channel": 1,
      "note": 57,
      "start": 53.1904,
      "duration": 0.1038,
      "velocity": 98,
      "chip": "ym2612"
    },
    {
      "channel": 5,
      "note": 33,
      "start": 53.3643,
      "duration": 0.03,
      "velocity": 113,
      "chip": "ym2612"
    },
    {
      "channel": 2,
      "note": 33,
      "start": 53.3678,
      "duration": 0.1932,
      "velocity": 117,
      "chip": "ym2612"
    },
    {
      "channel": 1,
      "note": 67,
      "start": 53.371,
      "duration": 0.1233,
      "velocity": 98,
      "chip": "ym2612"
    },
    {
      "channel": 3,
      "note": 57,
      "start": 53.5474,
      "duration": 0.0968,
      "velocity": 94,
      "chip": "ym2612"
    },
    {
      "channel": 2,
      "note": 33,
      "start": 53.7313,
      "duration": 0.1798,
      "velocity": 117,
      "chip": "ym2612"
    },
    {
      "channel": 1,
      "note": 57,
      "start": 53.7342,
      "duration": 0.0934,
      "velocity": 98,
      "chip": "ym2612"
    },
    {
      "channel": 4,
      "note": 84,
      "start": 53.7369,
      "duration": 0.1574,
      "velocity": 127,
      "chip": "ym2612"
    },
    {
      "channel": 3,
      "note": 57,
      "start": 53.8976,
      "duration": 0.1322,
      "velocity": 94,
      "chip": "ym2612"
    },
    {
      "channel": 3,
      "note": 64,
      "start": 54.0807,
      "duration": 0.1135,
      "velocity": 94,
      "chip": "ym2612"
    },
    {
      "channel": 5,
      "note": 33,
      "start": 54.0836,
      "duration": 0.0274,
      "velocity": 113,
      "chip": "ym2612"
    },
    {
      "channel": 2,
      "note": 33,
      "start": 54.0866,
      "duration": 0.2078,
      "velocity": 117,
      "chip": "ym2612"
    },
    {
      "channel": 1,
      "note": 57,
      "start": 54.0897,
      "duration": 0.1378,
      "velocity": 98,
      "chip": "ym2612"
    },
    {
      "channel": 3,
      "note": 57,
      "start": 54.2641,
      "duration": 0.0468,
      "velocity": 94,
      "chip": "ym2612"
    },
    {
      "channel": 1,
      "note": 64,
      "start": 54.2675,
      "duration": 0.11,
      "velocity": 98,
      "chip": "ym2612"
    },
    {
      "channel": 3,
      "note": 57,
      "start": 54.4473,
      "duration": 0.1302,
      "velocity": 94,
      "chip": "ym2612"
    },
    {
      "channel": 2,
      "note": 33,
      "start": 54.4508,
      "duration": 0.2102,
      "velocity": 117,
      "chip": "ym2612"
    },
    {
      "channel": 1,
      "note": 57,
      "start": 54.4538,
      "duration": 0.0404,
      "velocity": 98,
      "chip": "ym2612"
    },
    {
      "channel": 4,
      "note": 84,
      "start": 54.4564,
      "duration": 0.1213,
      "velocity": 127,
      "chip": "ym2612"
    },
    {
      "channel": 3,
      "note": 67,
      "start": 54.6313,
      "duration": 0.063,
      "velocity": 94,
      "chip": "ym2612"
    },
    {
      "channel": 1,
      "note": 57,
      "start": 54.6348,
      "duration": 0.1261,
      "velocity": 98,
      "chip": "ym2612"
    },
    {
      "channel": 0,
      "note": 84,
      "start": 54.7995,
      "duration": 0.4469,
      "velocity": 86,
      "chip": "ym2612"
    },
    {
      "channel": 5,
      "note": 33,
      "start": 54.8022,
      "duration": 0.0255,
      "velocity": 113,
      "chip": "ym2612"
    },
    {
      "channel": 2,
      "note": 36,
      "start": 54.8051,
      "duration": 0.2226,
      "velocity": 117,
      "chip": "ym2612"
    },
    {
      "channel": 1,
      "note": 67,
      "start": 54.8086,
      "duration": 0.0856,
      "velocity": 98,
      "chip": "ym2612"
    },
    {
      "channel": 3,
      "note": 57,
      "start": 55.1642,
      "duration": 0.0466,
      "velocity": 94,
      "chip": "ym2612"
    },
    {
      "channel": 2,
      "note": 36,
      "start": 55.1675,
      "duration": 0.2269,
      "velocity": 117,
      "chip": "ym2612"
    },
    {
      "channel": 4,
      "note": 84,
      "start": 55.1713,
      "duration": 0.1396,
      "velocity": 127,
      "chip": "ym2612"
    },
    {
      "channel": 3,
      "note": 57,
      "start": 55.3474,
      "duration": 0.0634,
      "velocity": 94,
      "chip": "ym2612"
    },
    {
      "channel": 0,
      "note": 86,
      "start": 55.3505,
      "duration": 2.1936,
      "velocity": 86,
      "chip": "ym2612"
    },
    {
      "channel": 1,
      "note": 57,
      "start": 55.3539,
      "duration": 0.0426,
      "velocity": 98,
      "chip": "ym2612"
    },
    {
      "channel": 3,
      "note": 57,
      "start": 55.5307,
      "duration": 0.0636,
      "velocity": 94,
      "chip": "ym2612"
    },
    {
      "channel": 5,
      "note": 33,
      "start": 55.5336,
      "duration": 0.0129,
      "velocity": 113,
      "chip": "ym2612"
    },
    {
      "channel": 2,
      "note": 36,
      "start": 55.5366,
      "duration": 0.2079,
      "velocity": 117,
      "chip": "ym2612"
    },
    {
      "channel": 1,
      "note": 57,
      "start": 55.5395,
      "duration": 0.0714,
      "velocity": 98,
      "chip": "ym2612"
    },
    {
      "channel": 3,
      "note": 57,
      "start": 55.6995,
      "duration": 0.0781,
      "velocity": 94,
      "chip": "ym2612"
    },
    {
      "channel": 1,
      "note": 57,
      "start": 55.7028,
      "duration": 0.0914,
      "velocity": 98,
      "chip": "ym2612"
    },
    {
      "channel": 3,
      "note": 57,
      "start": 55.8807,
      "duration": 0.0968,
      "velocity": 94,
      "chip": "ym2612"
    },
    {
      "channel": 2,
      "note": 36,
      "start": 55.8842,
      "duration": 0.2793,
      "velocity": 117,
      "chip": "ym2612"
    },
    {
      "channel": 1,
      "note": 57,
      "start": 55.8872,
      "duration": 0.0737,
      "velocity": 98,
      "chip": "ym2612"
    },
    {
      "channel": 4,
      "note": 84,
      "start": 55.8897,
      "duration": 0.1379,
      "velocity": 127,
      "chip": "ym2612"
    },
    {
      "channel": 3,
      "note": 66,
      "start": 56.0643,
      "duration": 0.099,
      "velocity": 94,
      "chip": "ym2612"
    },
    {
      "channel": 5,
      "note": 33,
      "start": 56.0676,
      "duration": 0.0267,
      "velocity": 113,
      "chip": "ym2612"
    },
    {
      "channel": 1,
      "note": 57,
      "start": 56.0707,
      "duration": 0.0924,
      "velocity": 98,
      "chip": "ym2612"
    },
    {
      "channel": 5,
      "note": 33,
      "start": 56.2476,
      "duration": 0.0302,
      "velocity": 113,
      "chip": "ym2612"
    },
    {
      "channel": 2,
      "note": 38,
      "start": 56.2506,
      "duration": 0.2271,
      "velocity": 117,
      "chip": "ym2612"
    },
    {
      "channel": 1,
      "note": 66,
      "start": 56.2537,
      "duration": 0.1071,
      "velocity": 98,
      "chip": "ym2612"
    },
    {
      "channel": 3,
      "note": 57,
      "start": 56.4308,
      "duration": 0.0802,
      "velocity": 94,
      "chip": "ym2612"
    },
    {
      "channel": 2,
      "note": 38,
      "start": 56.6147,
      "duration": 0.1963,
      "velocity": 117,
      "chip": "ym2612"
    },
    {
      "channel": 1,
      "note": 57,
      "start": 56.6181,
      "duration": 0.0761,
      "velocity": 98,
      "chip": "ym2612"
    },
    {
      "channel": 4,
      "note": 84,
      "start": 56.6207,
      "duration": 0.1569,
      "velocity": 127,
      "chip": "ym2612"
    },
    {
      "channel": 3,
      "note": 57,
      "start": 56.7813,
      "duration": 0.113,
      "velocity": 94,
      "chip": "ym2612"
    },
    {
      "channel": 3,
      "note": 62,
      "start": 56.9642,
      "duration": 0.0968,
      "velocity": 94,
      "chip": "ym2612"
    },
    {
      "channel": 5,
      "note": 33,
      "start": 56.967,
      "duration": 0.0273,
      "velocity": 113,
      "chip": "ym2612"
    },
    {
      "channel": 2,
      "note": 38,
      "start": 56.9699,
      "duration": 0.2077,
      "velocity": 117,
      "chip": "ym2612"
    },
    {
      "channel": 1,
      "note": 57,
      "start": 56.9731,
      "duration": 0.1066,
      "velocity": 98,
      "chip": "ym2612"
    },
    {
      "channel": 1,
      "note": 62,
      "start": 57.1482,
      "duration": 0.0959,
      "velocity": 98,
      "chip": "ym2612"
    },
    {
      "channel": 3,
      "note": 57,
      "start": 57.3309,
      "duration": 0.0633,
      "velocity": 94,
      "chip": "ym2612"
    },
    {
      "channel": 2,
      "note": 38,
      "start": 57.3348,
      "duration": 0.1429,
      "velocity": 117,
      "chip": "ym2612"
    },
    {
      "channel": 4,
      "note": 84,
      "start": 57.3378,
      "duration": 0.1232,
      "velocity": 127,
      "chip": "ym2612"
    },
    {
      "channel": 3,
      "note": 64,
      "start": 57.5141,
      "duration": 0.0635,
      "velocity": 94,
      "chip": "ym2612"
    },
    {
      "channel": 2,
      "note": 40,
      "start": 57.5176,
      "duration": 0.1101,
      "velocity": 117,
      "chip": "ym2612"
    },
    {
      "channel": 1,
      "note": 57,
      "start": 57.5207,
      "duration": 0.0568,
      "velocity": 98,
      "chip": "ym2612"
    },
    {
      "channel": 0,
      "note": 93,
      "start": 57.6829,
      "duration": 0.4635,
      "velocity": 86,
      "chip": "ym2612"
    },
    {
      "channel": 5,
      "note": 33,
      "start": 57.6869,
      "duration": 0.0242,
      "velocity": 113,
      "chip": "ym2612"
    },
    {
      "channel": 2,
      "note": 33,
      "start": 57.6901,
      "duration": 0.2043,
      "velocity": 117,
      "chip": "ym2612"
    },
    {
      "channel": 1,
      "note": 64,
      "start": 57.6932,
      "duration": 0.0844,
      "velocity": 98,
      "chip": "ym2612"
    },
    {
      "channel": 3,
      "note": 57,
      "start": 58.0476,
      "duration": 0.03,
      "velocity": 94,
      "chip": "ym2612"
    },
    {
      "channel": 2,
      "note": 33,
      "start": 58.0509,
      "duration": 0.2102,
      "velocity": 117,
      "chip": "ym2612"
    },
    {
      "channel": 4,
      "note": 84,
      "start": 58.0546,
      "duration": 0.1397,
      "velocity": 127,
      "chip": "ym2612"
    },
    {
      "channel": 3,
      "note": 57,
      "start": 58.2308,
      "duration": 0.0656,
      "velocity": 94,
      "chip": "ym2612"
    },
    {
      "channel": 0,
      "note": 91,
      "start": 58.2343,
      "duration": 2.2099,
      "velocity": 86,
      "chip": "ym2612"
    },
    {
      "channel": 1,
      "note": 57,
      "start": 58.238,
      "duration": 0.0394,
      "velocity": 98,
      "chip": "ym2612"
    },
    {
      "channel": 3,
      "note": 69,
      "start": 58.4146,
      "duration": 0.113,
      "velocity": 94,
      "chip": "ym2612"
    },
    {
      "channel": 5,
      "note": 57,
      "start": 58.4177,
      "duration": 0.0433,
      "velocity": 94,
      "chip": "ym2612"
    },
    {
      "channel": 4,
      "note": 33,
      "start": 58.4208,
      "duration": 0.0235,
      "velocity": 113,
      "chip": "ym2612"
    },
    {
      "channel": 2,
      "note": 33,
      "start": 58.4239,
      "duration": 0.1204,
      "velocity": 117,
      "chip": "ym2612"
    },
    {
      "channel": 1,
      "note": 57,
      "start": 58.4269,
      "duration": 0.0673,
      "velocity": 98,
      "chip": "ym2612"
    },
    {
      "channel": 2,
      "note": 45,
      "start": 58.598,
      "duration": 0.0964,
      "velocity": 117,
      "chip": "ym2612"
    },
    {
      "channel": 1,
      "note": 69,
      "start": 58.6011,
      "duration": 0.1098,
      "velocity": 98,
      "chip": "ym2612"
    },
    {
      "channel": 4,
      "note": 57,
      "start": 58.6042,
      "duration": 0.0567,
      "velocity": 98,
      "chip": "ym2612"
    },
    {
      "channel": 3,
      "note": 57,
      "start": 58.7642,
      "duration": 0.1134,
      "velocity": 94,
      "chip": "ym2612"
    },
    {
      "channel": 2,
      "note": 33,
      "start": 58.7676,
      "duration": 0.1267,
      "velocity": 117,
      "chip": "ym2612"
    },
    {
      "channel": 5,
      "note": 84,
      "start": 58.7705,
      "duration": 0.1405,
      "velocity": 127,
      "chip": "ym2612"
    },
    {
      "channel": 3,
      "note": 67,
      "start": 58.9476,
      "duration": 0.1467,
      "velocity": 94,
      "chip": "ym2612"
    },
    {
      "channel": 4,
      "note": 33,
      "start": 58.9506,
      "duration": 0.027,
      "velocity": 113,
      "chip": "ym2612"
    },
    {
      "channel": 2,
      "note": 45,
      "start": 58.954,
      "duration": 0.1237,
      "velocity": 117,
      "chip": "ym2612"
    },
    {
      "channel": 1,
      "note": 57,
      "start": 58.9571,
      "duration": 0.106,
      "velocity": 98,
      "chip": "ym2612"
    },
    {
      "channel": 4,
      "note": 33,
      "start": 59.1309,
      "duration": 0.0302,
      "velocity": 113,
      "chip": "ym2612"
    },
    {
      "channel": 2,
      "note": 33,
      "start": 59.1341,
      "duration": 0.227,
      "velocity": 117,
      "chip": "ym2612"
    },
    {
      "channel": 1,
      "note": 67,
      "start": 59.1372,
      "duration": 0.1404,
      "velocity": 98,
      "chip": "ym2612"
    },
    {
      "channel": 3,
      "note": 57,
      "start": 59.3141,
      "duration": 0.0802,
      "velocity": 94,
      "chip": "ym2612"
    },
    {
      "channel": 2,
      "note": 33,
      "start": 59.498,
      "duration": 0.1963,
      "velocity": 117,
      "chip": "ym2612"
    },
    {
      "channel": 1,
      "note": 57,
      "start": 59.5014,
      "duration": 0.0929,
      "velocity": 98,
      "chip": "ym2612"
    },
    {
      "channel": 5,
      "note": 84,
      "start": 59.5041,
      "duration": 0.1591,
      "velocity": 127,
      "chip": "ym2612"
    },
    {
      "channel": 3,
      "note": 57,
      "start": 59.6665,
      "duration": 0.1111,
      "velocity": 94,
      "chip": "ym2612"
    },
    {
      "channel": 3,
      "note": 62,
      "start": 59.8479,
      "duration": 0.1152,
      "velocity": 94,
      "chip": "ym2612"
    },
    {
      "channel": 4,
      "note": 57,
      "start": 59.851,
      "duration": 0.0433,
      "velocity": 94,
      "chip": "ym2612"
    },
    {
      "channel": 1,
      "note": 33,
      "start": 59.854,
      "duration": 0.0236,
      "velocity": 113,
      "chip": "ym2612"
    },
    {
      "channel": 2,
      "note": 33,
      "start": 59.8571,
      "duration": 0.1372,
      "velocity": 117,
      "chip": "ym2612"
    },
    {
      "channel": 5,
      "note": 57,
      "start": 59.8605,
      "duration": 0.1027,
      "velocity": 98,
      "chip": "ym2612"
    },
    {
      "channel": 2,
      "note": 45,
      "start": 60.0315,
      "duration": 0.0985,
      "velocity": 117,
      "chip": "ym2612"
    },
    {
      "channel": 5,
      "note": 62,
      "start": 60.0347,
      "duration": 0.1263,
      "velocity": 98,
      "chip": "ym2612"
    },
    {
      "channel": 1,
      "note": 57,
      "start": 60.0378,
      "duration": 0.0398,
      "velocity": 98,
      "chip": "ym2612"
    },
    {
      "channel": 3,
      "note": 57,
      "start": 60.2143,
      "duration": 0.1133,
      "velocity": 94,
      "chip": "ym2612"
    },
    {
      "channel": 2,
      "note": 33,
      "start": 60.2178,
      "duration": 0.1433,
      "velocity": 117,
      "chip": "ym2612"
    },
    {
      "channel": 4,
      "note": 84,
      "start": 60.2208,
      "duration": 0.1235,
      "velocity": 127,
      "chip": "ym2612"
    },
    {
      "channel": 3,
      "note": 64,
      "start": 60.3976,
      "duration": 0.08,
      "velocity": 94,
      "chip": "ym2612"
    },
    {
      "channel": 2,
      "note": 45,
      "start": 60.4011,
      "duration": 0.1266,
      "velocity": 117,
      "chip": "ym2612"
    },
    {
      "channel": 1,
      "note": 57,
      "start": 60.4042,
      "duration": 0.1067,
      "velocity": 98,
      "chip": "ym2612"
    },
    {
      "channel": 0,
      "note": 86,
      "start": 60.5807,
      "duration": 0.48,
      "velocity": 86,
      "chip": "ym2612"
    },
    {
      "channel": 5,
      "note": 33,
      "start": 60.5835,
      "duration": 0.0109,
      "velocity": 113,
      "chip": "ym2612"
    },
    {
      "channel": 2,
      "note": 36,
      "start": 60.5871,
      "duration": 0.224,
      "velocity": 117,
      "chip": "ym2612"
    },
    {
      "channel": 1,
      "note": 64,
      "start": 60.5902,
      "duration": 0.0874,
      "velocity": 98,
      "chip": "ym2612"
    },
    {
      "channel": 3,
      "note": 57,
      "start": 60.931,
      "duration": 0.03,
      "velocity": 94,
      "chip": "ym2612"
    },
    {
      "channel": 2,
      "note": 36,
      "start": 60.9344,
      "duration": 0.2268,
      "velocity": 117,
      "chip": "ym2612"
    },
    {
      "channel": 4,
      "note": 84,
      "start": 60.9382,
      "duration": 0.1394,
      "velocity": 127,
      "chip": "ym2612"
    },
    {
      "channel": 3,
      "note": 57,
      "start": 61.1145,
      "duration": 0.0464,
      "velocity": 94,
      "chip": "ym2612"
    },
    {
      "channel": 0,
      "note": 88,
      "start": 61.1176,
      "duration": 2.2432,
      "velocity": 86,
      "chip": "ym2612"
    },
    {
      "channel": 1,
      "note": 57,
      "start": 61.1213,
      "duration": 0.0395,
      "velocity": 98,
      "chip": "ym2612"
    },
    {
      "channel": 3,
      "note": 64,
      "start": 61.2976,
      "duration": 0.0966,
      "velocity": 94,
      "chip": "ym2612"
    },
    {
      "channel": 5,
      "note": 33,
      "start": 61.3005,
      "duration": 0.0272,
      "velocity": 113,
      "chip": "ym2612"
    },
    {
      "channel": 2,
      "note": 36,
      "start": 61.3036,
      "duration": 0.1742,
      "velocity": 117,
      "chip": "ym2612"
    },
    {
      "channel": 1,
      "note": 57,
      "start": 61.3066,
      "duration": 0.0398,
      "velocity": 98,
      "chip": "ym2612"
    },
    {
      "channel": 1,
      "note": 64,
      "start": 61.4817,
      "duration": 0.0959,
      "velocity": 98,
      "chip": "ym2612"
    },
    {
      "channel": 3,
      "note": 57,
      "start": 61.6498,
      "duration": 0.0611,
      "velocity": 94,
      "chip": "ym2612"
    },
    {
      "channel": 2,
      "note": 36,
      "start": 61.6534,
      "duration": 0.1433,
      "velocity": 117,
      "chip": "ym2612"
    },
    {
      "channel": 4,
      "note": 84,
      "start": 61.6561,
      "duration": 0.1403,
      "velocity": 127,
      "chip": "ym2612"
    },
    {
      "channel": 3,
      "note": 62,
      "start": 61.8309,
      "duration": 0.1156,
      "velocity": 94,
      "chip": "ym2612"
    },
    {
      "channel": 5,
      "note": 33,
      "start": 61.8342,
      "duration": 0.0269,
      "velocity": 113,
      "chip": "ym2612"
    },
    {
      "channel": 2,
      "note": 40,
      "start": 61.8372,
      "duration": 0.1238,
      "velocity": 117,
      "chip": "ym2612"
    },
    {
      "channel": 1,
      "note": 57,
      "start": 61.8404,
      "duration": 0.0705,
      "velocity": 98,
      "chip": "ym2612"
    },
    {
      "channel": 5,
      "note": 33,
      "start": 62.0141,
      "duration": 0.0303,
      "velocity": 113,
      "chip": "ym2612"
    },
    {
      "channel": 2,
      "note": 38,
      "start": 62.0174,
      "duration": 0.2459,
      "velocity": 117,
      "chip": "ym2612"
    },
    {
      "channel": 1,
      "note": 62,
      "start": 62.0205,
      "duration": 0.1071,
      "velocity": 98,
      "chip": "ym2612"
    },
    {
      "channel": 3,
      "note": 57,
      "start": 62.1975,
      "duration": 0.0968,
      "velocity": 94,
      "chip": "ym2612"
    },
    {
      "channel": 2,
      "note": 38,
      "start": 62.3818,
      "duration": 0.1845,
      "velocity": 117,
      "chip": "ym2612"
    },
    {
      "channel": 1,
      "note": 57,
      "start": 62.3848,
      "duration": 0.0927,
      "velocity": 98,
      "chip": "ym2612"
    },
    {
      "channel": 4,
      "note": 84,
      "start": 62.3874,
      "duration": 0.1735,
      "velocity": 127,
      "chip": "ym2612"
    },
    {
      "channel": 3,
      "note": 57,
      "start": 62.5643,
      "duration": 0.08,
      "velocity": 94,
      "chip": "ym2612"
    },
    {
      "channel": 3,
      "note": 62,
      "start": 62.7313,
      "duration": 0.1131,
      "velocity": 94,
      "chip": "ym2612"
    },
    {
      "channel": 5,
      "note": 33,
      "start": 62.7341,
      "duration": 0.027,
      "velocity": 113,
      "chip": "ym2612"
    },
    {
      "channel": 2,
      "note": 38,
      "start": 62.737,
      "duration": 0.1908,
      "velocity": 117,
      "chip": "ym2612"
    },
    {
      "channel": 1,
      "note": 57,
      "start": 62.7403,
      "duration": 0.1039,
      "velocity": 98,
      "chip": "ym2612"
    },
    {
      "channel": 1,
      "note": 62,
      "start": 62.9149,
      "duration": 0.1126,
      "velocity": 98,
      "chip": "ym2612"
    },
    {
      "channel": 3,
      "note": 57,
      "start": 63.0974,
      "duration": 0.0968,
      "velocity": 94,
      "chip": "ym2612"
    },
    {
      "channel": 2,
      "note": 38,
      "start": 63.1007,
      "duration": 0.1937,
      "velocity": 117,
      "chip": "ym2612"
    },
    {
      "channel": 4,
      "note": 84,
      "start": 63.1036,
      "duration": 0.1241,
      "velocity": 127,
      "chip": "ym2612"
    },
    {
      "channel": 3,
      "note": 64,
      "start": 63.2807,
      "duration": 0.0968,
      "velocity": 94,
      "chip": "ym2612"
    },
    {
      "channel": 1,
      "note": 57,
      "start": 63.2843,
      "duration": 0.1099,
      "velocity": 98,
      "chip": "ym2612"
    },
    {
      "channel": 0,
      "note": 88,
      "start": 63.464,
      "duration": 0.4658,
      "velocity": 86,
      "chip": "ym2612"
    },
    {
      "channel": 5,
      "note": 33,
      "start": 63.468,
      "duration": 0.0119,
      "velocity": 113,
      "chip": "ym2612"
    },
    {
      "channel": 2,
      "note": 41,
      "start": 63.471,
      "duration": 0.19,
      "velocity": 117,
      "chip": "ym2612"
    },
    {
      "channel": 1,
      "note": 64,
      "start": 63.474,
      "duration": 0.1036,
      "velocity": 98,
      "chip": "ym2612"
    },
    {
      "channel": 2,
      "note": 41,
      "start": 63.8147,
      "duration": 0.2297,
      "velocity": 117,
      "chip": "ym2612"
    },
    {
      "channel": 4,
      "note": 84,
      "start": 63.8185,
      "duration": 0.1424,
      "velocity": 127,
      "chip": "ym2612"
    },
    {
      "channel": 3,
      "note": 57,
      "start": 63.9976,
      "duration": 0.08,
      "velocity": 94,
      "chip": "ym2612"
    },
    {
      "channel": 0,
      "note": 86,
      "start": 64.001,
      "duration": 2.212,
      "velocity": 86,
      "chip": "ym2612"
    },
    {
      "channel": 3,
      "note": 69,
      "start": 64.181,
      "duration": 0.1133,
      "velocity": 94,
      "chip": "ym2612"
    },
    {
      "channel": 5,
      "note": 57,
      "start": 64.1841,
      "duration": 0.0458,
      "velocity": 94,
      "chip": "ym2612"
    },
    {
      "channel": 1,
      "note": 33,
      "start": 64.1871,
      "duration": 0.0239,
      "velocity": 113,
      "chip": "ym2612"
    },
    {
      "channel": 2,
      "note": 41,
      "start": 64.19,
      "duration": 0.2066,
      "velocity": 117,
      "chip": "ym2612"
    },
    {
      "channel": 4,
      "note": 57,
      "start": 64.1933,
      "duration": 0.051,
      "velocity": 98,
      "chip": "ym2612"
    },
    {
      "channel": 4,
      "note": 69,
      "start": 64.365,
      "duration": 0.1125,
      "velocity": 98,
      "chip": "ym2612"
    },
    {
      "channel": 1,
      "note": 57,
      "start": 64.3685,
      "duration": 0.0591,
      "velocity": 98,
      "chip": "ym2612"
    },
    {
      "channel": 3,
      "note": 57,
      "start": 64.5479,
      "duration": 0.1297,
      "velocity": 94,
      "chip": "ym2612"
    },
    {
      "channel": 2,
      "note": 41,
      "start": 64.5513,
      "duration": 0.2265,
      "velocity": 117,
      "chip": "ym2612"
    },
    {
      "channel": 5,
      "note": 84,
      "start": 64.5542,
      "duration": 0.1401,
      "velocity": 127,
      "chip": "ym2612"
    },
    {
      "channel": 3,
      "note": 67,
      "start": 64.7141,
      "duration": 0.1468,
      "velocity": 94,
      "chip": "ym2612"
    },
    {
      "channel": 1,
      "note": 33,
      "start": 64.7171,
      "duration": 0.0272,
      "velocity": 113,
      "chip": "ym2612"
    },
    {
      "channel": 4,
      "note": 57,
      "start": 64.7204,
      "duration": 0.1261,
      "velocity": 98,
      "chip": "ym2612"
    },
    {
      "channel": 3,
      "note": 57,
      "start": 64.8974,
      "duration": 0.0469,
      "velocity": 94,
      "chip": "ym2612"
    },
    {
      "channel": 1,
      "note": 33,
      "start": 64.9002,
      "duration": 0.0273,
      "velocity": 113,
      "chip": "ym2612"
    },
    {
      "channel": 2,
      "note": 40,
      "start": 64.9033,
      "duration": 0.1912,
      "velocity": 117,
      "chip": "ym2612"
    },
    {
      "channel": 4,
      "note": 67,
      "start": 64.9063,
      "duration": 0.1546,
      "velocity": 98,
      "chip": "ym2612"
    },
    {
      "channel": 3,
      "note": 57,
      "start": 65.0809,
      "duration": 0.0968,
      "velocity": 94,
      "chip": "ym2612"
    },
    {
      "channel": 4,
      "note": 57,
      "start": 65.0844,
      "duration": 0.0432,
      "velocity": 98,
      "chip": "ym2612"
    },
    {
      "channel": 2,
      "note": 40,
      "start": 65.2645,
      "duration": 0.1966,
      "velocity": 117,
      "chip": "ym2612"
    },
    {
      "channel": 4,
      "note": 57,
      "start": 65.2678,
      "duration": 0.0933,
      "velocity": 98,
      "chip": "ym2612"
    },
    {
      "channel": 5,
      "note": 84,
      "start": 65.2705,
      "duration": 0.1739,
      "velocity": 127,
      "chip": "ym2612"
    },
    {
      "channel": 3,
      "note": 57,
      "start": 65.4477,
      "duration": 0.08,
      "velocity": 94,
      "chip": "ym2612"
    },
    {
      "channel": 3,
      "note": 64,
      "start": 65.6164,
      "duration": 0.1279,
      "velocity": 94,
      "chip": "ym2612"
    },
    {
      "channel": 1,
      "note": 33,
      "start": 65.619,
      "duration": 0.0251,
      "velocity": 113,
      "chip": "ym2612"
    },
    {
      "channel": 2,
      "note": 40,
      "start": 65.6219,
      "duration": 0.1891,
      "velocity": 117,
      "chip": "ym2612"
    },
    {
      "channel": 4,
      "note": 57,
      "start": 65.625,
      "duration": 0.1027,
      "velocity": 98,
      "chip": "ym2612"
    },
    {
      "channel": 3,
      "note": 57,
      "start": 65.7975,
      "duration": 0.0634,
      "velocity": 94,
      "chip": "ym2612"
    },
    {
      "channel": 4,
      "note": 64,
      "start": 65.801,
      "duration": 0.1265,
      "velocity": 98,
      "chip": "ym2612"
    },
    {
      "channel": 3,
      "note": 57,
      "start": 65.9811,
      "duration": 0.1632,
      "velocity": 94,
      "chip": "ym2612"
    },
    {
      "channel": 2,
      "note": 40,
      "start": 65.9846,
      "duration": 0.2287,
      "velocity": 117,
      "chip": "ym2612"
    },
    {
      "channel": 4,
      "note": 57,
      "start": 65.988,
      "duration": 0.0564,
      "velocity": 98,
      "chip": "ym2612"
    },
    {
      "channel": 5,
      "note": 84,
      "start": 65.9907,
      "duration": 0.1203,
      "velocity": 127,
      "chip": "ym2612"
    },
    {
      "channel": 3,
      "note": 67,
      "start": 66.1643,
      "duration": 0.1133,
      "velocity": 94,
      "chip": "ym2612"
    },
    {
      "channel": 4,
      "note": 57,
      "start": 66.1678,
      "duration": 0.1764,
      "velocity": 98,
      "chip": "ym2612"
    },
    {
      "channel": 0,
      "note": 84,
      "start": 66.3474,
      "duration": 0.4967,
      "velocity": 86,
      "chip": "ym2612"
    },
    {
      "channel": 1,
      "note": 33,
      "start": 66.3499,
      "duration": 0.0131,
      "velocity": 113,
      "chip": "ym2612"
    },
    {
      "channel": 2,
      "note": 39,
      "start": 66.3533,
      "duration": 0.2077,
      "velocity": 117,
      "chip": "ym2612"
    },
    {
      "channel": 4,
      "note": 67,
      "start": 66.3566,
      "duration": 0.1043,
      "velocity": 98,
      "chip": "ym2612"
    },
    {
      "channel": 3,
      "note": 57,
      "start": 66.6976,
      "duration": 0.0634,
      "velocity": 94,
      "chip": "ym2612"
    },
    {
      "channel": 2,
      "note": 39,
      "start": 66.701,
      "duration": 0.2101,
      "velocity": 117,
      "chip": "ym2612"
    },
    {
      "channel": 5,
      "note": 84,
      "start": 66.7047,
      "duration": 0.1397,
      "velocity": 127,
      "chip": "ym2612"
    },
    {
      "channel": 3,
      "note": 57,
      "start": 66.8807,
      "duration": 0.0969,
      "velocity": 94,
      "chip": "ym2612"
    },
    {
      "channel": 0,
      "note": 81,
      "start": 66.8838,
      "duration": 2.2271,
      "velocity": 86,
      "chip": "ym2612"
    },
    {
      "channel": 4,
      "note": 57,
      "start": 66.8873,
      "duration": 0.0737,
      "velocity": 98,
      "chip": "ym2612"
    },
    {
      "channel": 3,
      "note": 64,
      "start": 67.064,
      "duration": 0.0802,
      "velocity": 94,
      "chip": "ym2612"
    },
    {
      "channel": 1,
      "note": 33,
      "start": 67.0668,
      "duration": 0.0273,
      "velocity": 113,
      "chip": "ym2612"
    },
    {
      "channel": 2,
      "note": 39,
      "start": 67.0698,
      "duration": 0.208,
      "velocity": 117,
      "chip": "ym2612"
    },
    {
      "channel": 4,
      "note": 57,
      "start": 67.0728,
      "duration": 0.0882,
      "velocity": 98,
      "chip": "ym2612"
    },
    {
      "channel": 3,
      "note": 57,
      "start": 67.2474,
      "duration": 0.0469,
      "velocity": 94,
      "chip": "ym2612"
    },
    {
      "channel": 4,
      "note": 64,
      "start": 67.2508,
      "duration": 0.0935,
      "velocity": 98,
      "chip": "ym2612"
    },
    {
      "channel": 3,
      "note": 57,
      "start": 67.4307,
      "duration": 0.0969,
      "velocity": 94,
      "chip": "ym2612"
    },
    {
      "channel": 2,
      "note": 39,
      "start": 67.4342,
      "duration": 0.2269,
      "velocity": 117,
      "chip": "ym2612"
    },
    {
      "channel": 4,
      "note": 57,
      "start": 67.4372,
      "duration": 0.0571,
      "velocity": 98,
      "chip": "ym2612"
    },
    {
      "channel": 5,
      "note": 84,
      "start": 67.4398,
      "duration": 0.1379,
      "velocity": 127,
      "chip": "ym2612"
    },
    {
      "channel": 3,
      "note": 66,
      "start": 67.6,
      "duration": 0.1109,
      "velocity": 94,
      "chip": "ym2612"
    },
    {
      "channel": 1,
      "note": 33,
      "start": 67.6032,
      "duration": 0.0244,
      "velocity": 113,
      "chip": "ym2612"
    },
    {
      "channel": 4,
      "note": 57,
      "start": 67.6068,
      "duration": 0.1209,
      "velocity": 98,
      "chip": "ym2612"
    },
    {
      "channel": 1,
      "note": 33,
      "start": 67.7808,
      "duration": 0.03,
      "velocity": 113,
      "chip": "ym2612"
    },
    {
      "channel": 2,
      "note": 38,
      "start": 67.7837,
      "duration": 0.244,
      "velocity": 117,
      "chip": "ym2612"
    },
    {
      "channel": 4,
      "note": 66,
      "start": 67.7869,
      "duration": 0.1073,
      "velocity": 98,
      "chip": "ym2612"
    },
    {
      "channel": 3,
      "note": 57,
      "start": 67.964,
      "duration": 0.097,
      "velocity": 94,
      "chip": "ym2612"
    },
    {
      "channel": 2,
      "note": 38,
      "start": 68.148,
      "duration": 0.1986,
      "velocity": 117,
      "chip": "ym2612"
    },
    {
      "channel": 4,
      "note": 57,
      "start": 68.1509,
      "duration": 0.0933,
      "velocity": 98,
      "chip": "ym2612"
    },
    {
      "channel": 5,
      "note": 84,
      "start": 68.1537,
      "duration": 0.174,
      "velocity": 127,
      "chip": "ym2612"
    },
    {
      "channel": 3,
      "note": 57,
      "start": 68.3308,
      "duration": 0.0968,
      "velocity": 94,
      "chip": "ym2612"
    },
    {
      "channel": 3,
      "note": 62,
      "start": 68.4996,
      "duration": 0.128,
      "velocity": 94,
      "chip": "ym2612"
    },
    {
      "channel": 1,
      "note": 33,
      "start": 68.5023,
      "duration": 0.0253,
      "velocity": 113,
      "chip": "ym2612"
    },
    {
      "channel": 2,
      "note": 38,
      "start": 68.5054,
      "duration": 0.1578,
      "velocity": 117,
      "chip": "ym2612"
    },
    {
      "channel": 4,
      "note": 57,
      "start": 68.5084,
      "duration": 0.1027,
      "velocity": 98,
      "chip": "ym2612"
    },
    {
      "channel": 3,
      "note": 57,
      "start": 68.6808,
      "duration": 0.0968,
      "velocity": 94,
      "chip": "ym2612"
    },
    {
      "channel": 5,
      "note": 57,
      "start": 68.6838,
      "duration": 0.0939,
      "velocity": 94,
      "chip": "ym2612"
    },
    {
      "channel": 4,
      "note": 62,
      "start": 68.6874,
      "duration": 0.1258,
      "velocity": 98,
      "chip": "ym2612"
    },
    {
      "channel": 3,
      "note": 62,
      "start": 68.8643,
      "duration": 0.0633,
      "velocity": 94,
      "chip": "ym2612"
    },
    {
      "channel": 2,
      "note": 38,
      "start": 68.8679,
      "duration": 0.1265,
      "velocity": 117,
      "chip": "ym2612"
    },
    {
      "channel": 4,
      "note": 57,
      "start": 68.8711,
      "duration": 0.0898,
      "velocity": 98,
      "chip": "ym2612"
    },
    {
      "channel": 1,
      "note": 57,
      "start": 68.8741,
      "duration": 0.089,
      "velocity": 98,
      "chip": "ym2612"
    },
    {
      "channel": 5,
      "note": 84,
      "start": 68.8769,
      "duration": 0.1174,
      "velocity": 127,
      "chip": "ym2612"
    },
    {
      "channel": 2,
      "note": 40,
      "start": 69.0484,
      "duration": 0.0959,
      "velocity": 117,
      "chip": "ym2612"
    },
    {
      "channel": 1,
      "note": 62,
      "start": 69.0519,
      "duration": 0.0613,
      "velocity": 98,
      "chip": "ym2612"
    },
    {
      "channel": 0,
      "note": 93,
      "start": 69.2307,
      "duration": 0.4301,
      "velocity": 86,
      "chip": "ym2612"
    },
    {
      "channel": 3,
      "note": 33,
      "start": 69.2348,
      "duration": 0.0261,
      "velocity": 113,
      "chip": "ym2612"
    },
    {
      "channel": 2,
      "note": 33,
      "start": 69.2379,
      "duration": 0.1897,
      "velocity": 117,
      "chip": "ym2612"
    },
    {
      "channel": 4,
      "note": 57,
      "start": 69.5815,
      "duration": 0.0961,
      "velocity": 94,
      "chip": "ym2612"
    },
    {
      "channel": 2,
      "note": 33,
      "start": 69.5849,
      "duration": 0.1761,
      "velocity": 117,
      "chip": "ym2612"
    },
    {
      "channel": 5,
      "note": 84,
      "start": 69.5886,
      "duration": 0.1412,
      "velocity": 127,
      "chip": "ym2612"
    },
    {
      "channel": 4,
      "note": 57,
      "start": 69.7642,
      "duration": 0.1135,
      "velocity": 94,
      "chip": "ym2612"
    },
    {
      "channel": 0,
      "note": 91,
      "start": 69.7676,
      "duration": 2.2266,
      "velocity": 86,
      "chip": "ym2612"
    },
    {
      "channel": 1,
      "note": 57,
      "start": 69.771,
      "duration": 0.1066,
      "velocity": 98,
      "chip": "ym2612"
    },
    {
      "channel": 4,
      "note": 69,
      "start": 69.9476,
      "duration": 0.1635,
      "velocity": 94,
      "chip": "ym2612"
    },
    {
      "channel": 3,
      "note": 33,
      "start": 69.9504,
      "duration": 0.0272,
      "velocity": 113,
      "chip": "ym2612"
    },
    {
      "channel": 2,
      "note": 33,
      "start": 69.9535,
      "duration": 0.1909,
      "velocity": 117,
      "chip": "ym2612"
    },
    {
      "channel": 1,
      "note": 57,
      "start": 69.9565,
      "duration": 0.1044,
      "velocity": 98,
      "chip": "ym2612"
    },
    {
      "channel": 4,
      "note": 57,
      "start": 70.1309,
      "duration": 0.049,
      "velocity": 94,
      "chip": "ym2612"
    },
    {
      "channel": 5,
      "note": 48,
      "start": 70.134,
      "duration": 0.0461,
      "velocity": 114,
      "chip": "ym2612"
    },
    {
      "channel": 1,
      "note": 69,
      "start": 70.1372,
      "duration": 0.1737,
      "velocity": 98,
      "chip": "ym2612"
    },
    {
      "channel": 4,
      "note": 57,
      "start": 70.3143,
      "duration": 0.1133,
      "velocity": 94,
      "chip": "ym2612"
    },
    {
      "channel": 5,
      "note": 48,
      "start": 70.3172,
      "duration": 0.0272,
      "velocity": 114,
      "chip": "ym2612"
    },
    {
      "channel": 2,
      "note": 33,
      "start": 70.3205,
      "duration": 0.1407,
      "velocity": 117,
      "chip": "ym2612"
    },
    {
      "channel": 1,
      "note": 57,
      "start": 70.3235,
      "duration": 0.0374,
      "velocity": 98,
      "chip": "ym2612"
    },
    {
      "channel": 3,
      "note": 84,
      "start": 70.3261,
      "duration": 0.1349,
      "velocity": 127,
      "chip": "ym2612"
    },
    {
      "channel": 4,
      "note": 67,
      "start": 70.4832,
      "duration": 0.1112,
      "velocity": 94,
      "chip": "ym2612"
    },
    {
      "channel": 5,
      "note": 48,
      "start": 70.4859,
      "duration": 0.0418,
      "velocity": 114,
      "chip": "ym2612"
    },
    {
      "channel": 1,
      "note": 33,
      "start": 70.4886,
      "duration": 0.0222,
      "velocity": 113,
      "chip": "ym2612"
    },
    {
      "channel": 2,
      "note": 45,
      "start": 70.4917,
      "duration": 0.1193,
      "velocity": 117,
      "chip": "ym2612"
    },
    {
      "channel": 3,
      "note": 57,
      "start": 70.4951,
      "duration": 0.1158,
      "velocity": 98,
      "chip": "ym2612"
    },
    {
      "channel": 5,
      "note": 48,
      "start": 70.6642,
      "duration": 0.0802,
      "velocity": 114,
      "chip": "ym2612"
    },
    {
      "channel": 1,
      "note": 33,
      "start": 70.6667,
      "duration": 0.0275,
      "velocity": 113,
      "chip": "ym2612"
    },
    {
      "channel": 2,
      "note": 33,
      "start": 70.6699,
      "duration": 0.2078,
      "velocity": 117,
      "chip": "ym2612"
    },
    {
      "channel": 3,
      "note": 67,
      "start": 70.6731,
      "duration": 0.1046,
      "velocity": 98,
      "chip": "ym2612"
    },
    {
      "channel": 4,
      "note": 57,
      "start": 70.8474,
      "duration": 0.099,
      "velocity": 94,
      "chip": "ym2612"
    },
    {
      "channel": 5,
      "note": 50,
      "start": 70.8503,
      "duration": 0.0608,
      "velocity": 114,
      "chip": "ym2612"
    },
    {
      "channel": 5,
      "note": 45,
      "start": 71.0307,
      "duration": 0.0469,
      "velocity": 114,
      "chip": "ym2612"
    },
    {
      "channel": 2,
      "note": 33,
      "start": 71.0343,
      "duration": 0.1768,
      "velocity": 117,
      "chip": "ym2612"
    },
    {
      "channel": 3,
      "note": 57,
      "start": 71.0377,
      "duration": 0.1066,
      "velocity": 98,
      "chip": "ym2612"
    },
    {
      "channel": 1,
      "note": 84,
      "start": 71.0404,
      "duration": 0.1704,
      "velocity": 127,
      "chip": "ym2612"
    },
    {
      "channel": 4,
      "note": 57,
      "start": 71.2143,
      "duration": 0.0967,
      "velocity": 94,
      "chip": "ym2612"
    },
    {
      "channel": 5,
      "note": 45,
      "start": 71.2178,
      "duration": 0.0431,
      "velocity": 114,
      "chip": "ym2612"
    },
    {
      "channel": 4,
      "note": 64,
      "start": 71.398,
      "duration": 0.1129,
      "velocity": 94,
      "chip": "ym2612"
    },
    {
      "channel": 3,
      "note": 57,
      "start": 71.4012,
      "duration": 0.2264,
      "velocity": 94,
      "chip": "ym2612"
    },
    {
      "channel": 1,
      "note": 33,
      "start": 71.404,
      "duration": 0.0105,
      "velocity": 113,
      "chip": "ym2612"
    },
    {
      "channel": 2,
      "note": 33,
      "start": 71.4072,
      "duration": 0.1372,
      "velocity": 117,
      "chip": "ym2612"
    },
    {
      "channel": 5,
      "note": 57,
      "start": 71.4108,
      "duration": 0.0837,
      "velocity": 98,
      "chip": "ym2612"
    },
    {
      "channel": 2,
      "note": 45,
      "start": 71.5647,
      "duration": 0.113,
      "velocity": 117,
      "chip": "ym2612"
    },
    {
      "channel": 5,
      "note": 64,
      "start": 71.568,
      "duration": 0.1286,
      "velocity": 98,
      "chip": "ym2612"
    },
    {
      "channel": 1,
      "note": 57,
      "start": 71.571,
      "duration": 0.2565,
      "velocity": 98,
      "chip": "ym2612"
    },
    {
      "channel": 3,
      "note": 64,
      "start": 71.7476,
      "duration": 0.0967,
      "velocity": 94,
      "chip": "ym2612"
    },
    {
      "channel": 2,
      "note": 33,
      "start": 71.751,
      "duration": 0.1433,
      "velocity": 117,
      "chip": "ym2612"
    },
    {
      "channel": 4,
      "note": 84,
      "start": 71.754,
      "duration": 0.1236,
      "velocity": 127,
      "chip": "ym2612"
    },
    {
      "channel": 3,
      "note": 67,
      "start": 71.9307,
      "duration": 0.0824,
      "velocity": 94,
      "chip": "ym2612"
    },
    {
      "channel": 2,
      "note": 45,
      "start": 71.9342,
      "duration": 0.1268,
      "velocity": 117,
      "chip": "ym2612"
    },
    {
      "channel": 1,
      "note": 64,
      "start": 71.9373,
      "duration": 0.0903,
      "velocity": 98,
      "chip": "ym2612"
    },
    {
      "channel": 0,
      "note": 86,
      "start": 72.114,
      "duration": 0.4801,
      "velocity": 86,
      "chip": "ym2612"
    },
    {
      "channel": 5,
      "note": 33,
      "start": 72.1168,
      "duration": 0.0276,
      "velocity": 113,
      "chip": "ym2612"
    },
    {
      "channel": 2,
      "note": 36,
      "start": 72.12,
      "duration": 0.1933,
      "velocity": 117,
      "chip": "ym2612"
    },
    {
      "channel": 1,
      "note": 67,
      "start": 72.123,
      "duration": 0.0879,
      "velocity": 98,
      "chip": "ym2612"
    },
    {
      "channel": 3,
      "note": 57,
      "start": 72.4662,
      "duration": 0.0947,
      "velocity": 94,
      "chip": "ym2612"
    },
    {
      "channel": 4,
      "note": 57,
      "start": 72.4692,
      "duration": 0.0919,
      "velocity": 94,
      "chip": "ym2612"
    },
    {
      "channel": 2,
      "note": 36,
      "start": 72.4726,
      "duration": 0.2218,
      "velocity": 117,
      "chip": "ym2612"
    },
    {
      "channel": 5,
      "note": 84,
      "start": 72.4765,
      "duration": 0.1366,
      "velocity": 127,
      "chip": "ym2612"
    },
    {
      "channel": 0,
      "note": 88,
      "start": 72.6476,
      "duration": 2.2466,
      "velocity": 86,
      "chip": "ym2612"
    },
    {
      "channel": 1,
      "note": 57,
      "start": 72.6514,
      "duration": 0.0761,
      "velocity": 98,
      "chip": "ym2612"
    },
    {
      "channel": 3,
      "note": 57,
      "start": 72.6545,
      "duration": 0.1065,
      "velocity": 98,
      "chip": "ym2612"
    },
    {
      "channel": 4,
      "note": 64,
      "start": 72.8313,
      "duration": 0.0985,
      "velocity": 94,
      "chip": "ym2612"
    },
    {
      "channel": 5,
      "note": 57,
      "start": 72.8344,
      "duration": 0.0599,
      "velocity": 94,
      "chip": "ym2612"
    },
    {
      "channel": 2,
      "note": 33,
      "start": 72.8376,
      "duration": 0.0235,
      "velocity": 113,
      "chip": "ym2612"
    },
    {
      "channel": 1,
      "note": 36,
      "start": 72.8409,
      "duration": 0.2033,
      "velocity": 117,
      "chip": "ym2612"
    },
    {
      "channel": 3,
      "note": 64,
      "start": 73.0149,
      "duration": 0.1127,
      "velocity": 98,
      "chip": "ym2612"
    },
    {
      "channel": 2,
      "note": 57,
      "start": 73.018,
      "duration": 0.0598,
      "velocity": 98,
      "chip": "ym2612"
    },
    {
      "channel": 4,
      "note": 57,
      "start": 73.1976,
      "duration": 0.08,
      "velocity": 94,
      "chip": "ym2612"
    },
    {
      "channel": 1,
      "note": 36,
      "start": 73.2009,
      "duration": 0.1433,
      "velocity": 117,
      "chip": "ym2612"
    },
    {
      "channel": 5,
      "note": 84,
      "start": 73.2038,
      "duration": 0.1406,
      "velocity": 127,
      "chip": "ym2612"
    },
    {
      "channel": 4,
      "note": 66,
      "start": 73.3808,
      "duration": 0.1302,
      "velocity": 94,
      "chip": "ym2612"
    },
    {
      "channel": 2,
      "note": 33,
      "start": 73.3843,
      "duration": 0.0101,
      "velocity": 113,
      "chip": "ym2612"
    },
    {
      "channel": 1,
      "note": 40,
      "start": 73.3871,
      "duration": 0.1071,
      "velocity": 117,
      "chip": "ym2612"
    },
    {
      "channel": 3,
      "note": 57,
      "start": 73.3902,
      "duration": 0.0707,
      "velocity": 98,
      "chip": "ym2612"
    },
    {
      "channel": 4,
      "note": 57,
      "start": 73.5476,
      "duration": 0.1135,
      "velocity": 94,
      "chip": "ym2612"
    },
    {
      "channel": 2,
      "note": 33,
      "start": 73.5507,
      "duration": 0.0271,
      "velocity": 113,
      "chip": "ym2612"
    },
    {
      "channel": 1,
      "note": 38,
      "start": 73.5536,
      "duration": 0.2073,
      "velocity": 117,
      "chip": "ym2612"
    },
    {
      "channel": 3,
      "note": 66,
      "start": 73.557,
      "duration": 0.1372,
      "velocity": 98,
      "chip": "ym2612"
    },
    {
      "channel": 3,
      "note": 57,
      "start": 73.7316,
      "duration": 0.0982,
      "velocity": 98,
      "chip": "ym2612"
    },
    {
      "channel": 4,
      "note": 57,
      "start": 73.9142,
      "duration": 0.1302,
      "velocity": 94,
      "chip": "ym2612"
    },
    {
      "channel": 1,
      "note": 38,
      "start": 73.9174,
      "duration": 0.1934,
      "velocity": 117,
      "chip": "ym2612"
    },
    {
      "channel": 5,
      "note": 84,
      "start": 73.9203,
      "duration": 0.1741,
      "velocity": 127,
      "chip": "ym2612"
    },
    {
      "channel": 3,
      "note": 57,
      "start": 74.0983,
      "duration": 0.1293,
      "velocity": 98,
      "chip": "ym2612"
    },
    {
      "channel": 4,
      "note": 62,
      "start": 74.2814,
      "duration": 0.0963,
      "velocity": 94,
      "chip": "ym2612"
    },
    {
      "channel": 2,
      "note": 57,
      "start": 74.2846,
      "duration": 0.0265,
      "velocity": 94,
      "chip": "ym2612"
    },
    {
      "channel": 5,
      "note": 33,
      "start": 74.2874,
      "duration": 0.0091,
      "velocity": 113,
      "chip": "ym2612"
    },
    {
      "channel": 1,
      "note": 38,
      "start": 74.2903,
      "duration": 0.1562,
      "velocity": 117,
      "chip": "ym2612"
    },
    {
      "channel": 4,
      "note": 57,
      "start": 74.45,
      "duration": 0.111,
      "velocity": 94,
      "chip": "ym2612"
    },
    {
      "channel": 3,
      "note": 62,
      "start": 74.4537,
      "duration": 0.1239,
      "velocity": 98,
      "chip": "ym2612"
    },
    {
      "channel": 5,
      "note": 57,
      "start": 74.4567,
      "duration": 0.0543,
      "velocity": 98,
      "chip": "ym2612"
    },
    {
      "channel": 1,
      "note": 38,
      "start": 74.6317,
      "duration": 0.1625,
      "velocity": 117,
      "chip": "ym2612"
    },
    {
      "channel": 3,
      "note": 57,
      "start": 74.6348,
      "duration": 0.1117,
      "velocity": 98,
      "chip": "ym2612"
    },
    {
      "channel": 2,
      "note": 84,
      "start": 74.6377,
      "duration": 0.1234,
      "velocity": 127,
      "chip": "ym2612"
    },
    {
      "channel": 4,
      "note": 64,
      "start": 74.8143,
      "duration": 0.0801,
      "velocity": 94,
      "chip": "ym2612"
    },
    {
      "channel": 1,
      "note": 40,
      "start": 74.8175,
      "duration": 0.0933,
      "velocity": 117,
      "chip": "ym2612"
    },
    {
      "channel": 0,
      "note": 93,
      "start": 74.9974,
      "duration": 0.4802,
      "velocity": 86,
      "chip": "ym2612"
    },
    {
      "channel": 5,
      "note": 33,
      "start": 75.0015,
      "duration": 0.0262,
      "velocity": 113,
      "chip": "ym2612"
    },
    {
      "channel": 1,
      "note": 33,
      "start": 75.0045,
      "duration": 0.2086,
      "velocity": 117,
      "chip": "ym2612"
    },
    {
      "channel": 3,
      "note": 64,
      "start": 75.008,
      "duration": 0.0696,
      "velocity": 98,
      "chip": "ym2612"
    },
    {
      "channel": 4,
      "note": 57,
      "start": 75.3642,
      "duration": 0.0635,
      "velocity": 94,
      "chip": "ym2612"
    },
    {
      "channel": 1,
      "note": 33,
      "start": 75.3675,
      "duration": 0.16,
      "velocity": 117,
      "chip": "ym2612"
    },
    {
      "channel": 2,
      "note": 84,
      "start": 75.3713,
      "duration": 0.1397,
      "velocity": 127,
      "chip": "ym2612"
    },
    {
      "channel": 4,
      "note": 57,
      "start": 75.5308,
      "duration": 0.1134,
      "velocity": 94,
      "chip": "ym2612"
    },
    {
      "channel": 0,
      "note": 91,
      "start": 75.5343,
      "duration": 2.2598,
      "velocity": 86,
      "chip": "ym2612"
    },
    {
      "channel": 3,
      "note": 57,
      "start": 75.5377,
      "duration": 0.0733,
      "velocity": 98,
      "chip": "ym2612"
    },
    {
      "channel": 4,
      "note": 69,
      "start": 75.7142,
      "duration": 0.099,
      "velocity": 94,
      "chip": "ym2612"
    },
    {
      "channel": 5,
      "note": 57,
      "start": 75.7177,
      "duration": 0.0933,
      "velocity": 94,
      "chip": "ym2612"
    },
    {
      "channel": 2,
      "note": 33,
      "start": 75.7208,
      "duration": 0.0237,
      "velocity": 113,
      "chip": "ym2612"
    },
    {
      "channel": 1,
      "note": 33,
      "start": 75.7238,
      "duration": 0.1371,
      "velocity": 117,
      "chip": "ym2612"
    },
    {
      "channel": 3,
      "note": 57,
      "start": 75.7268,
      "duration": 0.1008,
      "velocity": 98,
      "chip": "ym2612"
    },
    {
      "channel": 2,
      "note": 48,
      "start": 75.8976,
      "duration": 0.0634,
      "velocity": 114,
      "chip": "ym2612"
    },
    {
      "channel": 1,
      "note": 45,
      "start": 75.9006,
      "duration": 0.1103,
      "velocity": 117,
      "chip": "ym2612"
    },
    {
      "channel": 3,
      "note": 69,
      "start": 75.9036,
      "duration": 0.1075,
      "velocity": 98,
      "chip": "ym2612"
    },
    {
      "channel": 5,
      "note": 57,
      "start": 75.9066,
      "duration": 0.0877,
      "velocity": 98,
      "chip": "ym2612"
    },
    {
      "channel": 4,
      "note": 57,
      "start": 76.081,
      "duration": 0.1134,
      "velocity": 94,
      "chip": "ym2612"
    },
    {
      "channel": 2,
      "note": 48,
      "start": 76.0839,
      "duration": 0.0438,
      "velocity": 114,
      "chip": "ym2612"
    },
    {
      "channel": 1,
      "note": 33,
      "start": 76.0869,
      "duration": 0.1406,
      "velocity": 117,
      "chip": "ym2612"
    },
    {
      "channel": 5,
      "note": 84,
      "start": 76.0898,
      "duration": 0.138,
      "velocity": 127,
      "chip": "ym2612"
    },
    {
      "channel": 4,
      "note": 67,
      "start": 76.2641,
      "duration": 0.1136,
      "velocity": 94,
      "chip": "ym2612"
    },
    {
      "channel": 2,
      "note": 48,
      "start": 76.267,
      "duration": 0.0274,
      "velocity": 114,
      "chip": "ym2612"
    },
    {
      "channel": 3,
      "note": 33,
      "start": 76.2698,
      "duration": 0.0106,
      "velocity": 113,
      "chip": "ym2612"
    },
    {
      "channel": 1,
      "note": 45,
      "start": 76.273,
      "duration": 0.1045,
      "velocity": 117,
      "chip": "ym2612"
    },
    {
      "channel": 5,
      "note": 57,
      "start": 76.2763,
      "duration": 0.1015,
      "velocity": 98,
      "chip": "ym2612"
    },
    {
      "channel": 2,
      "note": 48,
      "start": 76.4332,
      "duration": 0.0779,
      "velocity": 114,
      "chip": "ym2612"
    },
    {
      "channel": 3,
      "note": 33,
      "start": 76.4357,
      "duration": 0.0252,
      "velocity": 113,
      "chip": "ym2612"
    },
    {
      "channel": 1,
      "note": 33,
      "start": 76.4387,
      "duration": 0.2221,
      "velocity": 117,
      "chip": "ym2612"
    },
    {
      "channel": 5,
      "note": 67,
      "start": 76.4423,
      "duration": 0.1354,
      "velocity": 98,
      "chip": "ym2612"
    },
    {
      "channel": 4,
      "note": 57,
      "start": 76.6141,
      "duration": 0.1135,
      "velocity": 94,
      "chip": "ym2612"
    },
    {
      "channel": 2,
      "note": 50,
      "start": 76.617,
      "duration": 0.0607,
      "velocity": 114,
      "chip": "ym2612"
    },
    {
      "channel": 2,
      "note": 45,
      "start": 76.7976,
      "duration": 0.0468,
      "velocity": 114,
      "chip": "ym2612"
    },
    {
      "channel": 1,
      "note": 33,
      "start": 76.8006,
      "duration": 0.1603,
      "velocity": 117,
      "chip": "ym2612"
    },
    {
      "channel": 5,
      "note": 57,
      "start": 76.8037,
      "duration": 0.0906,
      "velocity": 98,
      "chip": "ym2612"
    },
    {
      "channel": 3,
      "note": 84,
      "start": 76.8065,
      "duration": 0.1712,
      "velocity": 127,
      "chip": "ym2612"
    },
    {
      "channel": 4,
      "note": 57,
      "start": 76.9811,
      "duration": 0.1298,
      "velocity": 94,
      "chip": "ym2612"
    },
    {
      "channel": 2,
      "note": 45,
      "start": 76.9844,
      "duration": 0.0456,
      "velocity": 114,
      "chip": "ym2612"
    },
    {
      "channel": 4,
      "note": 64,
      "start": 77.1641,
      "duration": 0.1136,
      "velocity": 94,
      "chip": "ym2612"
    },
    {
      "channel": 2,
      "note": 45,
      "start": 77.1674,
      "duration": 0.0293,
      "velocity": 114,
      "chip": "ym2612"
    },
    {
      "channel": 5,
      "note": 33,
      "start": 77.17,
      "duration": 0.0244,
      "velocity": 113,
      "chip": "ym2612"
    },
    {
      "channel": 1,
      "note": 33,
      "start": 77.1728,
      "duration": 0.1797,
      "velocity": 117,
      "chip": "ym2612"
    },
    {
      "channel": 3,
      "note": 57,
      "start": 77.1761,
      "duration": 0.1348,
      "velocity": 98,
      "chip": "ym2612"
    },
    {
      "channel": 4,
      "note": 57,
      "start": 77.3479,
      "duration": 0.0298,
      "velocity": 94,
      "chip": "ym2612"
    },
    {
      "channel": 3,
      "note": 64,
      "start": 77.3514,
      "duration": 0.1096,
      "velocity": 98,
      "chip": "ym2612"
    },
    {
      "channel": 4,
      "note": 57,
      "start": 77.5141,
      "duration": 0.1325,
      "velocity": 94,
      "chip": "ym2612"
    },
    {
      "channel": 1,
      "note": 33,
      "start": 77.5175,
      "duration": 0.1768,
      "velocity": 117,
      "chip": "ym2612"
    },
    {
      "channel": 3,
      "note": 57,
      "start": 77.5205,
      "duration": 0.0571,
      "velocity": 98,
      "chip": "ym2612"
    },
    {
      "channel": 5,
      "note": 84,
      "start": 77.5232,
      "duration": 0.1235,
      "velocity": 127,
      "chip": "ym2612"
    },
    {
      "channel": 4,
      "note": 67,
      "start": 77.6978,
      "duration": 0.0798,
      "velocity": 94,
      "chip": "ym2612"
    },
    {
      "channel": 1,
      "note": 45,
      "start": 77.701,
      "duration": 0.1099,
      "velocity": 117,
      "chip": "ym2612"
    },
    {
      "channel": 3,
      "note": 57,
      "start": 77.704,
      "duration": 0.1236,
      "velocity": 98,
      "chip": "ym2612"
    },
    {
      "channel": 0,
      "note": 84,
      "start": 77.8807,
      "duration": 0.4468,
      "velocity": 86,
      "chip": "ym2612"
    },
    {
      "channel": 2,
      "note": 33,
      "start": 77.8835,
      "duration": 0.0276,
      "velocity": 113,
      "chip": "ym2612"
    },
    {
      "channel": 1,
      "note": 36,
      "start": 77.8865,
      "duration": 0.21,
      "velocity": 117,
      "chip": "ym2612"
    },
    {
      "channel": 3,
      "note": 67,
      "start": 77.8896,
      "duration": 0.0713,
      "velocity": 98,
      "chip": "ym2612"
    },
    {
      "channel": 4,
      "note": 57,
      "start": 78.2476,
      "duration": 0.0301,
      "velocity": 94,
      "chip": "ym2612"
    },
    {
      "channel": 1,
      "note": 36,
      "start": 78.2512,
      "duration": 0.1763,
      "velocity": 117,
      "chip": "ym2612"
    },
    {
      "channel": 5,
      "note": 84,
      "start": 78.2549,
      "duration": 0.1395,
      "velocity": 127,
      "chip": "ym2612"
    },
    {
      "channel": 4,
      "note": 57,
      "start": 78.4164,
      "duration": 0.0779,
      "velocity": 94,
      "chip": "ym2612"
    },
    {
      "channel": 0,
      "note": 86,
      "start": 78.4194,
      "duration": 2.2081,
      "velocity": 86,
      "chip": "ym2612"
    },
    {
      "channel": 3,
      "note": 57,
      "start": 78.4232,
      "duration": 0.0544,
      "velocity": 98,
      "chip": "ym2612"
    },
    {
      "channel": 4,
      "note": 57,
      "start": 78.5974,
      "duration": 0.0803,
      "velocity": 94,
      "chip": "ym2612"
    },
    {
      "channel": 2,
      "note": 33,
      "start": 78.6005,
      "duration": 0.0273,
      "velocity": 113,
      "chip": "ym2612"
    },
    {
      "channel": 1,
      "note": 36,
      "start": 78.6033,
      "duration": 0.2075,
      "velocity": 117,
      "chip": "ym2612"
    },
    {
      "channel": 3,
      "note": 57,
      "start": 78.6063,
      "duration": 0.088,
      "velocity": 98,
      "chip": "ym2612"
    },
    {
      "channel": 4,
      "note": 57,
      "start": 78.7807,
      "duration": 0.0803,
      "velocity": 94,
      "chip": "ym2612"
    },
    {
      "channel": 3,
      "note": 57,
      "start": 78.7841,
      "duration": 0.0791,
      "velocity": 98,
      "chip": "ym2612"
    },
    {
      "channel": 4,
      "note": 57,
      "start": 78.9641,
      "duration": 0.0802,
      "velocity": 94,
      "chip": "ym2612"
    },
    {
      "channel": 1,
      "note": 36,
      "start": 78.9675,
      "duration": 0.1266,
      "velocity": 117,
      "chip": "ym2612"
    },
    {
      "channel": 3,
      "note": 57,
      "start": 78.9705,
      "duration": 0.0571,
      "velocity": 98,
      "chip": "ym2612"
    },
    {
      "channel": 5,
      "note": 84,
      "start": 78.973,
      "duration": 0.138,
      "velocity": 127,
      "chip": "ym2612"
    },
    {
      "channel": 4,
      "note": 66,
      "start": 79.148,
      "duration": 0.0964,
      "velocity": 94,
      "chip": "ym2612"
    },
    {
      "channel": 2,
      "note": 33,
      "start": 79.1514,
      "duration": 0.0119,
      "velocity": 113,
      "chip": "ym2612"
    },
    {
      "channel": 1,
      "note": 40,
      "start": 79.1542,
      "duration": 0.1067,
      "velocity": 117,
      "chip": "ym2612"
    },
    {
      "channel": 3,
      "note": 57,
      "start": 79.1572,
      "duration": 0.0871,
      "velocity": 98,
      "chip": "ym2612"
    },
    {
      "channel": 2,
      "note": 33,
      "start": 79.331,
      "duration": 0.0134,
      "velocity": 113,
      "chip": "ym2612"
    },
    {
      "channel": 1,
      "note": 38,
      "start": 79.334,
      "duration": 0.1936,
      "velocity": 117,
      "chip": "ym2612"
    },
    {
      "channel": 3,
      "note": 66,
      "start": 79.3372,
      "duration": 0.1071,
      "velocity": 98,
      "chip": "ym2612"
    },
    {
      "channel": 4,
      "note": 57,
      "start": 79.4975,
      "duration": 0.0969,
      "velocity": 94,
      "chip": "ym2612"
    },
    {
      "channel": 1,
      "note": 38,
      "start": 79.6811,
      "duration": 0.2297,
      "velocity": 117,
      "chip": "ym2612"
    },
    {
      "channel": 3,
      "note": 57,
      "start": 79.6841,
      "duration": 0.0935,
      "velocity": 98,
      "chip": "ym2612"
    },
    {
      "channel": 5,
      "note": 84,
      "start": 79.6869,
      "duration": 0.1741,
      "velocity": 127,
      "chip": "ym2612"
    },
    {
      "channel": 4,
      "note": 57,
      "start": 79.8644,
      "duration": 0.0966,
      "velocity": 94,
      "chip": "ym2612"
    },
    {
      "channel": 4,
      "note": 62,
      "start": 80.0476,
      "duration": 0.0801,
      "velocity": 94,
      "chip": "ym2612"
    },
    {
      "channel": 2,
      "note": 33,
      "start": 80.0505,
      "duration": 0.0273,
      "velocity": 113,
      "chip": "ym2612"
    },
    {
      "channel": 1,
      "note": 38,
      "start": 80.0533,
      "duration": 0.1909,
      "velocity": 117,
      "chip": "ym2612"
    },
    {
      "channel": 3,
      "note": 57,
      "start": 80.0569,
      "duration": 0.104,
      "velocity": 98,
      "chip": "ym2612"
    },
    {
      "channel": 3,
      "note": 62,
      "start": 80.2316,
      "duration": 0.096,
      "velocity": 98,
      "chip": "ym2612"
    },
    {
      "channel": 4,
      "note": 57,
      "start": 80.3998,
      "duration": 0.0779,
      "velocity": 94,
      "chip": "ym2612"
    },
    {
      "channel": 1,
      "note": 38,
      "start": 80.4035,
      "duration": 0.1574,
      "velocity": 117,
      "chip": "ym2612"
    },
    {
      "channel": 5,
      "note": 84,
      "start": 80.4064,
      "duration": 0.1379,
      "velocity": 127,
      "chip": "ym2612"
    },
    {
      "channel": 4,
      "note": 64,
      "start": 80.5808,
      "duration": 0.0803,
      "velocity": 94,
      "chip": "ym2612"
    },
    {
      "channel": 1,
      "note": 40,
      "start": 80.584,
      "duration": 0.1269,
      "velocity": 117,
      "chip": "ym2612"
    },
    {
      "channel": 3,
      "note": 57,
      "start": 80.5872,
      "duration": 0.0738,
      "velocity": 98,
      "chip": "ym2612"
    },
    {
      "channel": 0,
      "note": 93,
      "start": 80.764,
      "duration": 0.4635,
      "velocity": 86,
      "chip": "ym2612"
    },
    {
      "channel": 2,
      "note": 33,
      "start": 80.7681,
      "duration": 0.0263,
      "velocity": 113,
      "chip": "ym2612"
    },
    {
      "channel": 1,
      "note": 33,
      "start": 80.771,
      "duration": 0.2232,
      "velocity": 117,
      "chip": "ym2612"
    },
    {
      "channel": 3,
      "note": 64,
      "start": 80.7742,
      "duration": 0.0723,
      "velocity": 98,
      "chip": "ym2612"
    },
    {
      "channel": 4,
      "note": 57,
      "start": 81.1313,
      "duration": 0.0152,
      "velocity": 94,
      "chip": "ym2612"
    },
    {
      "channel": 1,
      "note": 33,
      "start": 81.1345,
      "duration": 0.1763,
      "velocity": 117,
      "chip": "ym2612"
    },
    {
      "channel": 5,
      "note": 84,
      "start": 81.1383,
      "duration": 0.1394,
      "velocity": 127,
      "chip": "ym2612"
    },
    {
      "channel": 4,
      "note": 57,
      "start": 81.2998,
      "duration": 0.0778,
      "velocity": 94,
      "chip": "ym2612"
    },
    {
      "channel": 0,
      "note": 91,
      "start": 81.3032,
      "duration": 2.2244,
      "velocity": 86,
      "chip": "ym2612"
    },
    {
      "channel": 3,
      "note": 57,
      "start": 81.3066,
      "duration": 0.0377,
      "velocity": 98,
      "chip": "ym2612"
    },
    {
      "channel": 4,
      "note": 69,
      "start": 81.481,
      "duration": 0.1301,
      "velocity": 94,
      "chip": "ym2612"
    },
    {
      "channel": 2,
      "note": 57,
      "start": 81.4841,
      "duration": 0.0603,
      "velocity": 94,
      "chip": "ym2612"
    },
    {
      "channel": 5,
      "note": 33,
      "start": 81.4872,
      "duration": 0.0238,
      "velocity": 113,
      "chip": "ym2612"
    },
    {
      "channel": 1,
      "note": 33,
      "start": 81.4902,
      "duration": 0.1374,
      "velocity": 117,
      "chip": "ym2612"
    },
    {
      "channel": 3,
      "note": 57,
      "start": 81.4932,
      "duration": 0.0844,
      "velocity": 98,
      "chip": "ym2612"
    },
    {
      "channel": 5,
      "note": 48,
      "start": 81.6645,
      "duration": 0.0632,
      "velocity": 114,
      "chip": "ym2612"
    },
    {
      "channel": 1,
      "note": 45,
      "start": 81.6674,
      "duration": 0.1268,
      "velocity": 117,
      "chip": "ym2612"
    },
    {
      "channel": 3,
      "note": 69,
      "start": 81.6709,
      "duration": 0.1068,
      "velocity": 98,
      "chip": "ym2612"
    },
    {
      "channel": 2,
      "note": 57,
      "start": 81.674,
      "duration": 0.0704,
      "velocity": 98,
      "chip": "ym2612"
    },
    {
      "channel": 4,
      "note": 57,
      "start": 81.8476,
      "duration": 0.0968,
      "velocity": 94,
      "chip": "ym2612"
    },
    {
      "channel": 5,
      "note": 48,
      "start": 81.8505,
      "duration": 0.0439,
      "velocity": 114,
      "chip": "ym2612"
    },
    {
      "channel": 1,
      "note": 33,
      "start": 81.8538,
      "duration": 0.1405,
      "velocity": 117,
      "chip": "ym2612"
    },
    {
      "channel": 2,
      "note": 84,
      "start": 81.8566,
      "duration": 0.1379,
      "velocity": 127,
      "chip": "ym2612"
    },
    {
      "channel": 4,
      "note": 67,
      "start": 82.031,
      "duration": 0.1468,
      "velocity": 94,
      "chip": "ym2612"
    },
    {
      "channel": 5,
      "note": 48,
      "start": 82.0337,
      "duration": 0.0296,
      "velocity": 114,
      "chip": "ym2612"
    },
    {
      "channel": 3,
      "note": 33,
      "start": 82.0365,
      "duration": 0.0244,
      "velocity": 113,
      "chip": "ym2612"
    },
    {
      "channel": 1,
      "note": 45,
      "start": 82.0392,
      "duration": 0.1384,
      "velocity": 117,
      "chip": "ym2612"
    },
    {
      "channel": 2,
      "note": 57,
      "start": 82.0425,
      "duration": 0.1019,
      "velocity": 98,
      "chip": "ym2612"
    },
    {
      "channel": 5,
      "note": 48,
      "start": 82.2142,
      "duration": 0.0634,
      "velocity": 114,
      "chip": "ym2612"
    },
    {
      "channel": 3,
      "note": 33,
      "start": 82.2168,
      "duration": 0.0107,
      "velocity": 113,
      "chip": "ym2612"
    },
    {
      "channel": 1,
      "note": 33,
      "start": 82.2198,
      "duration": 0.1745,
      "velocity": 117,
      "chip": "ym2612"
    },
    {
      "channel": 2,
      "note": 67,
      "start": 82.2231,
      "duration": 0.138,
      "velocity": 98,
      "chip": "ym2612"
    },
    {
      "channel": 4,
      "note": 57,
      "start": 82.3811,
      "duration": 0.0964,
      "velocity": 94,
      "chip": "ym2612"
    },
    {
      "channel": 5,
      "note": 50,
      "start": 82.384,
      "duration": 0.0604,
      "velocity": 114,
      "chip": "ym2612"
    },
    {
      "channel": 5,
      "note": 45,
      "start": 82.5645,
      "duration": 0.0466,
      "velocity": 114,
      "chip": "ym2612"
    },
    {
      "channel": 1,
      "note": 33,
      "start": 82.5673,
      "duration": 0.1936,
      "velocity": 117,
      "chip": "ym2612"
    },
    {
      "channel": 2,
      "note": 57,
      "start": 82.5705,
      "duration": 0.1073,
      "velocity": 98,
      "chip": "ym2612"
    },
    {
      "channel": 3,
      "note": 84,
      "start": 82.5732,
      "duration": 0.1711,
      "velocity": 127,
      "chip": "ym2612"
    },
    {
      "channel": 4,
      "note": 57,
      "start": 82.7477,
      "duration": 0.0965,
      "velocity": 94,
      "chip": "ym2612"
    },
    {
      "channel": 5,
      "note": 45,
      "start": 82.7509,
      "duration": 0.0601,
      "velocity": 114,
      "chip": "ym2612"
    },
    {
      "channel": 4,
      "note": 62,
      "start": 82.931,
      "duration": 0.1133,
      "velocity": 94,
      "chip": "ym2612"
    },
    {
      "channel": 2,
      "note": 57,
      "start": 82.9341,
      "duration": 0.0436,
      "velocity": 94,
      "chip": "ym2612"
    },
    {
      "channel": 3,
      "note": 33,
      "start": 82.937,
      "duration": 0.024,
      "velocity": 113,
      "chip": "ym2612"
    },
    {
      "channel": 1,
      "note": 33,
      "start": 82.94,
      "duration": 0.1209,
      "velocity": 117,
      "chip": "ym2612"
    },
    {
      "channel": 5,
      "note": 57,
      "start": 82.9437,
      "duration": 0.1007,
      "velocity": 98,
      "chip": "ym2612"
    },
    {
      "channel": 1,
      "note": 45,
      "start": 83.1143,
      "duration": 0.1298,
      "velocity": 117,
      "chip": "ym2612"
    },
    {
      "channel": 5,
      "note": 62,
      "start": 83.1176,
      "duration": 0.1268,
      "velocity": 98,
      "chip": "ym2612"
    },
    {
      "channel": 3,
      "note": 57,
      "start": 83.1206,
      "duration": 0.0237,
      "velocity": 98,
      "chip": "ym2612"
    },
    {
      "channel": 4,
      "note": 57,
      "start": 83.2832,
      "duration": 0.1278,
      "velocity": 94,
      "chip": "ym2612"
    },
    {
      "channel": 1,
      "note": 33,
      "start": 83.2864,
      "duration": 0.1433,
      "velocity": 117,
      "chip": "ym2612"
    },
    {
      "channel": 2,
      "note": 84,
      "start": 83.2895,
      "duration": 0.1382,
      "velocity": 127,
      "chip": "ym2612"
    },
    {
      "channel": 4,
      "note": 64,
      "start": 83.4647,
      "duration": 0.0963,
      "velocity": 94,
      "chip": "ym2612"
    },
    {
      "channel": 1,
      "note": 45,
      "start": 83.4679,
      "duration": 0.1286,
      "velocity": 117,
      "chip": "ym2612"
    },
    {
      "channel": 3,
      "note": 57,
      "start": 83.4711,
      "duration": 0.1232,
      "velocity": 98,
      "chip": "ym2612"
    },
    {
      "channel": 0,
      "note": 86,
      "start": 83.6473,
      "duration": 0.4969,
      "velocity": 86,
      "chip": "ym2612"
    },
    {
      "channel": 5,
      "note": 33,
      "start": 83.65,
      "duration": 0.0276,
      "velocity": 113,
      "chip": "ym2612"
    },
    {
      "channel": 1,
      "note": 36,
      "start": 83.6534,
      "duration": 0.2075,
      "velocity": 117,
      "chip": "ym2612"
    },
    {
      "channel": 3,
      "note": 64,
      "start": 83.6565,
      "duration": 0.09,
      "velocity": 98,
      "chip": "ym2612"
    },
    {
      "channel": 4,
      "note": 57,
      "start": 84.0143,
      "duration": 0.03,
      "velocity": 94,
      "chip": "ym2612"
    },
    {
      "channel": 1,
      "note": 36,
      "start": 84.0174,
      "duration": 0.1934,
      "velocity": 117,
      "chip": "ym2612"
    },
    {
      "channel": 2,
      "note": 84,
      "start": 84.0213,
      "duration": 0.1398,
      "velocity": 127,
      "chip": "ym2612"
    },
    {
      "channel": 4,
      "note": 57,
      "start": 84.1975,
      "duration": 0.0302,
      "velocity": 94,
      "chip": "ym2612"
    },
    {
      "channel": 0,
      "note": 88,
      "start": 84.2005,
      "duration": 2.2436,
      "velocity": 86,
      "chip": "ym2612"
    },
    {
      "channel": 3,
      "note": 57,
      "start": 84.204,
      "duration": 0.0236,
      "velocity": 98,
      "chip": "ym2612"
    },
    {
      "channel": 4,
      "note": 64,
      "start": 84.3642,
      "duration": 0.1134,
      "velocity": 94,
      "chip": "ym2612"
    },
    {
      "channel": 5,
      "note": 33,
      "start": 84.3672,
      "duration": 0.0272,
      "velocity": 113,
      "chip": "ym2612"
    },
    {
      "channel": 1,
      "note": 36,
      "start": 84.3701,
      "duration": 0.1742,
      "velocity": 117,
      "chip": "ym2612"
    },
    {
      "channel": 3,
      "note": 57,
      "start": 84.3734,
      "duration": 0.0541,
      "velocity": 98,
      "chip": "ym2612"
    },
    {
      "channel": 3,
      "note": 64,
      "start": 84.5484,
      "duration": 0.1125,
      "velocity": 98,
      "chip": "ym2612"
    },
    {
      "channel": 4,
      "note": 57,
      "start": 84.731,
      "duration": 0.0633,
      "velocity": 94,
      "chip": "ym2612"
    },
    {
      "channel": 1,
      "note": 36,
      "start": 84.7343,
      "duration": 0.1599,
      "velocity": 117,
      "chip": "ym2612"
    },
    {
      "channel": 2,
      "note": 84,
      "start": 84.7371,
      "duration": 0.1406,
      "velocity": 127,
      "chip": "ym2612"
    },
    {
      "channel": 4,
      "note": 62,
      "start": 84.9143,
      "duration": 0.1134,
      "velocity": 94,
      "chip": "ym2612"
    },
    {
      "channel": 5,
      "note": 33,
      "start": 84.9176,
      "duration": 0.0267,
      "velocity": 113,
      "chip": "ym2612"
    },
    {
      "channel": 3,
      "note": 57,
      "start": 84.9209,
      "duration": 0.0566,
      "velocity": 98,
      "chip": "ym2612"
    },
    {
      "channel": 5,
      "note": 33,
      "start": 85.0976,
      "duration": 0.0156,
      "velocity": 113,
      "chip": "ym2612"
    },
    {
      "channel": 1,
      "note": 38,
      "start": 85.1004,
      "duration": 0.2104,
      "velocity": 117,
      "chip": "ym2612"
    },
    {
      "channel": 3,
      "note": 62,
      "start": 85.1035,
      "duration": 0.1074,
      "velocity": 98,
      "chip": "ym2612"
    },
    {
      "channel": 4,
      "note": 57,
      "start": 85.2667,
      "duration": 0.111,
      "velocity": 94,
      "chip": "ym2612"
    },
    {
      "channel": 1,
      "note": 38,
      "start": 85.4478,
      "duration": 0.2464,
      "velocity": 117,
      "chip": "ym2612"
    },
    {
      "channel": 3,
      "note": 57,
      "start": 85.4508,
      "duration": 0.1102,
      "velocity": 98,
      "chip": "ym2612"
    },
    {
      "channel": 2,
      "note": 84,
      "start": 85.4536,
      "duration": 0.1741,
      "velocity": 127,
      "chip": "ym2612"
    },
    {
      "channel": 4,
      "note": 57,
      "start": 85.631,
      "duration": 0.0966,
      "velocity": 94,
      "chip": "ym2612"
    },
    {
      "channel": 4,
      "note": 62,
      "start": 85.8143,
      "duration": 0.0967,
      "velocity": 94,
      "chip": "ym2612"
    },
    {
      "channel": 5,
      "note": 33,
      "start": 85.8172,
      "duration": 0.0272,
      "velocity": 113,
      "chip": "ym2612"
    },
    {
      "channel": 1,
      "note": 38,
      "start": 85.82,
      "duration": 0.1742,
      "velocity": 117,
      "chip": "ym2612"
    },
    {
      "channel": 3,
      "note": 57,
      "start": 85.823,
      "duration": 0.0879,
      "velocity": 98,
      "chip": "ym2612"
    },
    {
      "channel": 3,
      "note": 62,
      "start": 85.9988,
      "duration": 0.1122,
      "velocity": 98,
      "chip": "ym2612"
    },
    {
      "channel": 4,
      "note": 57,
      "start": 86.1808,
      "duration": 0.0969,
      "velocity": 94,
      "chip": "ym2612"
    },
    {
      "channel": 1,
      "note": 38,
      "start": 86.1842,
      "duration": 0.1434,
      "velocity": 117,
      "chip": "ym2612"
    },
    {
      "channel": 2,
      "note": 84,
      "start": 86.1872,
      "duration": 0.1239,
      "velocity": 127,
      "chip": "ym2612"
    },
    {
      "channel": 4,
      "note": 64,
      "start": 86.3474,
      "duration": 0.1136,
      "velocity": 94,
      "chip": "ym2612"
    },
    {
      "channel": 1,
      "note": 40,
      "start": 86.3505,
      "duration": 0.1436,
      "velocity": 117,
      "chip": "ym2612"
    },
    {
      "channel": 3,
      "note": 57,
      "start": 86.3535,
      "duration": 0.1241,
      "velocity": 98,
      "chip": "ym2612"
    },
    {
      "channel": 0,
      "note": 88,
      "start": 86.5306,
      "duration": 0.4802,
      "velocity": 86,
      "chip": "ym2612"
    },
    {
      "channel": 5,
      "note": 33,
      "start": 86.5346,
      "duration": 0.0264,
      "velocity": 113,
      "chip": "ym2612"
    },
    {
      "channel": 1,
      "note": 41,
      "start": 86.538,
      "duration": 0.2395,
      "velocity": 117,
      "chip": "ym2612"
    },
    {
      "channel": 3,
      "note": 64,
      "start": 86.541,
      "duration": 0.1032,
      "velocity": 98,
      "chip": "ym2612"
    },
    {
      "channel": 1,
      "note": 41,
      "start": 86.8977,
      "duration": 0.2298,
      "velocity": 117,
      "chip": "ym2612"
    },
    {
      "channel": 2,
      "note": 84,
      "start": 86.9016,
      "duration": 0.1428,
      "velocity": 127,
      "chip": "ym2612"
    },
    {
      "channel": 4,
      "note": 57,
      "start": 87.081,
      "duration": 0.0634,
      "velocity": 94,
      "chip": "ym2612"
    },
    {
      "channel": 0,
      "note": 86,
      "start": 87.0844,
      "duration": 2.2098,
      "velocity": 86,
      "chip": "ym2612"
    },
    {
      "channel": 4,
      "note": 69,
      "start": 87.2502,
      "duration": 0.1274,
      "velocity": 94,
      "chip": "ym2612"
    },
    {
      "channel": 5,
      "note": 57,
      "start": 87.2534,
      "duration": 0.0576,
      "velocity": 94,
      "chip": "ym2612"
    },
    {
      "channel": 3,
      "note": 33,
      "start": 87.2564,
      "duration": 0.0211,
      "velocity": 113,
      "chip": "ym2612"
    },
    {
      "channel": 1,
      "note": 41,
      "start": 87.2591,
      "duration": 0.2351,
      "velocity": 117,
      "chip": "ym2612"
    },
    {
      "channel": 2,
      "note": 57,
      "start": 87.2627,
      "duration": 0.065,
      "velocity": 98,
      "chip": "ym2612"
    },
    {
      "channel": 2,
      "note": 69,
      "start": 87.4318,
      "duration": 0.1148,
      "velocity": 98,
      "chip": "ym2612"
    },
    {
      "channel": 3,
      "note": 57,
      "start": 87.4348,
      "duration": 0.076,
      "velocity": 98,
      "chip": "ym2612"
    },
    {
      "channel": 4,
      "note": 57,
      "start": 87.6143,
      "duration": 0.1301,
      "velocity": 94,
      "chip": "ym2612"
    },
    {
      "channel": 1,
      "note": 41,
      "start": 87.6175,
      "duration": 0.21,
      "velocity": 117,
      "chip": "ym2612"
    },
    {
      "channel": 5,
      "note": 84,
      "start": 87.6203,
      "duration": 0.1407,
      "velocity": 127,
      "chip": "ym2612"
    },
    {
      "channel": 4,
      "note": 67,
      "start": 87.7974,
      "duration": 0.1469,
      "velocity": 94,
      "chip": "ym2612"
    },
    {
      "channel": 3,
      "note": 33,
      "start": 87.8005,
      "duration": 0.0272,
      "velocity": 113,
      "chip": "ym2612"
    },
    {
      "channel": 2,
      "note": 57,
      "start": 87.8043,
      "duration": 0.1235,
      "velocity": 98,
      "chip": "ym2612"
    },
    {
      "channel": 4,
      "note": 57,
      "start": 87.9809,
      "duration": 0.0324,
      "velocity": 94,
      "chip": "ym2612"
    },
    {
      "channel": 3,
      "note": 33,
      "start": 87.9837,
      "duration": 0.0272,
      "velocity": 113,
      "chip": "ym2612"
    },
    {
      "channel": 1,
      "note": 40,
      "start": 87.9866,
      "duration": 0.241,
      "velocity": 117,
      "chip": "ym2612"
    },
    {
      "channel": 2,
      "note": 67,
      "start": 87.9897,
      "duration": 0.1546,
      "velocity": 98,
      "chip": "ym2612"
    },
    {
      "channel": 4,
      "note": 57,
      "start": 88.1643,
      "duration": 0.0966,
      "velocity": 94,
      "chip": "ym2612"
    },
    {
      "channel": 2,
      "note": 57,
      "start": 88.168,
      "duration": 0.0264,
      "velocity": 98,
      "chip": "ym2612"
    },
    {
      "channel": 1,
      "note": 40,
      "start": 88.3312,
      "duration": 0.2464,
      "velocity": 117,
      "chip": "ym2612"
    },
    {
      "channel": 2,
      "note": 57,
      "start": 88.3345,
      "duration": 0.1099,
      "velocity": 98,
      "chip": "ym2612"
    },
    {
      "channel": 5,
      "note": 84,
      "start": 88.3372,
      "duration": 0.1739,
      "velocity": 127,
      "chip": "ym2612"
    },
    {
      "channel": 4,
      "note": 57,
      "start": 88.5148,
      "duration": 0.0961,
      "velocity": 94,
      "chip": "ym2612"
    },
    {
      "channel": 4,
      "note": 64,
      "start": 88.6975,
      "duration": 0.1135,
      "velocity": 94,
      "chip": "ym2612"
    },
    {
      "channel": 3,
      "note": 33,
      "start": 88.7002,
      "duration": 0.0275,
      "velocity": 113,
      "chip": "ym2612"
    },
    {
      "channel": 1,
      "note": 40,
      "start": 88.703,
      "duration": 0.2246,
      "velocity": 117,
      "chip": "ym2612"
    },
    {
      "channel": 2,
      "note": 57,
      "start": 88.7062,
      "duration": 0.0882,
      "velocity": 98,
      "chip": "ym2612"
    },
    {
      "channel": 4,
      "note": 57,
      "start": 88.8808,
      "duration": 0.0492,
      "velocity": 94,
      "chip": "ym2612"
    },
    {
      "channel": 2,
      "note": 64,
      "start": 88.8844,
      "duration": 0.1266,
      "velocity": 98,
      "chip": "ym2612"
    },
    {
      "channel": 4,
      "note": 57,
      "start": 89.0641,
      "duration": 0.1635,
      "velocity": 94,
      "chip": "ym2612"
    },
    {
      "channel": 1,
      "note": 40,
      "start": 89.0674,
      "duration": 0.2768,
      "velocity": 117,
      "chip": "ym2612"
    },
    {
      "channel": 2,
      "note": 57,
      "start": 89.0706,
      "duration": 0.0405,
      "velocity": 98,
      "chip": "ym2612"
    },
    {
      "channel": 5,
      "note": 84,
      "start": 89.0732,
      "duration": 0.1211,
      "velocity": 127,
      "chip": "ym2612"
    },
    {
      "channel": 4,
      "note": 67,
      "start": 89.2333,
      "duration": 0.1277,
      "velocity": 94,
      "chip": "ym2612"
    },
    {
      "channel": 2,
      "note": 57,
      "start": 89.2373,
      "duration": 0.1737,
      "velocity": 98,
      "chip": "ym2612"
    },
    {
      "channel": 0,
      "note": 84,
      "start": 89.414,
      "duration": 0.5135,
      "velocity": 86,
      "chip": "ym2612"
    },
    {
      "channel": 3,
      "note": 33,
      "start": 89.4166,
      "duration": 0.0277,
      "velocity": 113,
      "chip": "ym2612"
    },
    {
      "channel": 1,
      "note": 39,
      "start": 89.4198,
      "duration": 0.241,
      "velocity": 117,
      "chip": "ym2612"
    },
    {
      "channel": 2,
      "note": 67,
      "start": 89.4231,
      "duration": 0.1069,
      "velocity": 98,
      "chip": "ym2612"
    },
    {
      "channel": 4,
      "note": 57,
      "start": 89.781,
      "duration": 0.0489,
      "velocity": 94,
      "chip": "ym2612"
    },
    {
      "channel": 1,
      "note": 39,
      "start": 89.7842,
      "duration": 0.21,
      "velocity": 117,
      "chip": "ym2612"
    },
    {
      "channel": 5,
      "note": 84,
      "start": 89.788,
      "duration": 0.1398,
      "velocity": 127,
      "chip": "ym2612"
    },
    {
      "channel": 4,
      "note": 57,
      "start": 89.9641,
      "duration": 0.0802,
      "velocity": 94,
      "chip": "ym2612"
    },
    {
      "channel": 0,
      "note": 81,
      "start": 89.9672,
      "duration": 1.995,
      "velocity": 86,
      "chip": "ym2612"
    },
    {
      "channel": 2,
      "note": 57,
      "start": 89.9708,
      "duration": 0.0569,
      "velocity": 98,
      "chip": "ym2612"
    },
    {
      "channel": 4,
      "note": 64,
      "start": 90.1473,
      "duration": 0.0803,
      "velocity": 94,
      "chip": "ym2612"
    },
    {
      "channel": 3,
      "note": 33,
      "start": 90.1502,
      "duration": 0.0107,
      "velocity": 113,
      "chip": "ym2612"
    },
    {
      "channel": 1,
      "note": 39,
      "start": 90.1528,
      "duration": 0.1913,
      "velocity": 117,
      "chip": "ym2612"
    },
    {
      "channel": 2,
      "note": 57,
      "start": 90.156,
      "duration": 0.0884,
      "velocity": 98,
      "chip": "ym2612"
    },
    {
      "channel": 4,
      "note": 57,
      "start": 90.3145,
      "duration": 0.0632,
      "velocity": 94,
      "chip": "ym2612"
    },
    {
      "channel": 5,
      "note": 48,
      "start": 90.3175,
      "duration": 0.0604,
      "velocity": 114,
      "chip": "ym2612"
    },
    {
      "channel": 2,
      "note": 64,
      "start": 90.3207,
      "duration": 0.107,
      "velocity": 98,
      "chip": "ym2612"
    },
    {
      "channel": 4,
      "note": 57,
      "start": 90.4975,
      "duration": 0.099,
      "velocity": 94,
      "chip": "ym2612"
    },
    {
      "channel": 5,
      "note": 48,
      "start": 90.5003,
      "duration": 0.044,
      "velocity": 114,
      "chip": "ym2612"
    },
    {
      "channel": 1,
      "note": 39,
      "start": 90.5033,
      "duration": 0.2243,
      "velocity": 117,
      "chip": "ym2612"
    },
    {
      "channel": 2,
      "note": 57,
      "start": 90.5065,
      "duration": 0.0712,
      "velocity": 98,
      "chip": "ym2612"
    },
    {
      "channel": 3,
      "note": 84,
      "start": 90.5091,
      "duration": 0.1352,
      "velocity": 127,
      "chip": "ym2612"
    },
    {
      "channel": 4,
      "note": 66,
      "start": 90.6809,
      "duration": 0.0968,
      "velocity": 94,
      "chip": "ym2612"
    },
    {
      "channel": 5,
      "note": 48,
      "start": 90.6836,
      "duration": 0.0442,
      "velocity": 114,
      "chip": "ym2612"
    },
    {
      "channel": 2,
      "note": 33,
      "start": 90.6867,
      "duration": 0.0244,
      "velocity": 113,
      "chip": "ym2612"
    },
    {
      "channel": 3,
      "note": 57,
      "start": 90.69,
      "duration": 0.1043,
      "velocity": 98,
      "chip": "ym2612"
    },
    {
      "channel": 5,
      "note": 48,
      "start": 90.8642,
      "duration": 0.0635,
      "velocity": 114,
      "chip": "ym2612"
    },
    {
      "channel": 2,
      "note": 33,
      "start": 90.867,
      "duration": 0.0275,
      "velocity": 113,
      "chip": "ym2612"
    },
    {
      "channel": 1,
      "note": 38,
      "start": 90.8698,
      "duration": 0.241,
      "velocity": 117,
      "chip": "ym2612"
    },
    {
      "channel": 3,
      "note": 66,
      "start": 90.8743,
      "duration": 0.0866,
      "velocity": 98,
      "chip": "ym2612"
    },
    {
      "channel": 4,
      "note": 57,
      "start": 91.0473,
      "duration": 0.097,
      "velocity": 94,
      "chip": "ym2612"
    },
    {
      "channel": 5,
      "note": 50,
      "start": 91.0502,
      "duration": 0.0441,
      "velocity": 114,
      "chip": "ym2612"
    },
    {
      "channel": 5,
      "note": 45,
      "start": 91.2163,
      "duration": 0.0448,
      "velocity": 114,
      "chip": "ym2612"
    },
    {
      "channel": 1,
      "note": 38,
      "start": 91.2193,
      "duration": 0.2415,
      "velocity": 117,
      "chip": "ym2612"
    },
    {
      "channel": 3,
      "note": 57,
      "start": 91.2222,
      "duration": 0.1054,
      "velocity": 98,
      "chip": "ym2612"
    },
    {
      "channel": 2,
      "note": 84,
      "start": 91.225,
      "duration": 0.1695,
      "velocity": 127,
      "chip": "ym2612"
    },
    {
      "channel": 4,
      "note": 57,
      "start": 91.3976,
      "duration": 0.1134,
      "velocity": 94,
      "chip": "ym2612"
    },
    {
      "channel": 5,
      "note": 45,
      "start": 91.4009,
      "duration": 0.0602,
      "velocity": 114,
      "chip": "ym2612"
    },
    {
      "channel": 4,
      "note": 62,
      "start": 91.5808,
      "duration": 0.1135,
      "velocity": 94,
      "chip": "ym2612"
    },
    {
      "channel": 5,
      "note": 48,
      "start": 91.5837,
      "duration": 0.0796,
      "velocity": 114,
      "chip": "ym2612"
    },
    {
      "channel": 3,
      "note": 33,
      "start": 91.5863,
      "duration": 0.0246,
      "velocity": 113,
      "chip": "ym2612"
    },
    {
      "channel": 1,
      "note": 38,
      "start": 91.5892,
      "duration": 0.2216,
      "velocity": 117,
      "chip": "ym2612"
    },
    {
      "channel": 2,
      "note": 57,
      "start": 91.5929,
      "duration": 0.0849,
      "velocity": 98,
      "chip": "ym2612"
    },
    {
      "channel": 4,
      "note": 57,
      "start": 91.7643,
      "duration": 0.0801,
      "velocity": 94,
      "chip": "ym2612"
    },
    {
      "channel": 3,
      "note": 57,
      "start": 91.7672,
      "duration": 0.077,
      "velocity": 94,
      "chip": "ym2612"
    },
    {
      "channel": 5,
      "note": 50,
      "start": 91.7701,
      "duration": 0.0576,
      "velocity": 114,
      "chip": "ym2612"
    },
    {
      "channel": 2,
      "note": 62,
      "start": 91.7743,
      "duration": 0.1201,
      "velocity": 98,
      "chip": "ym2612"
    },
    {
      "channel": 3,
      "note": 62,
      "start": 91.9481,
      "duration": 0.0462,
      "velocity": 94,
      "chip": "ym2612"
    },
    {
      "channel": 5,
      "note": 45,
      "start": 91.951,
      "duration": 0.0435,
      "velocity": 114,
      "chip": "ym2612"
    },
    {
      "channel": 1,
      "note": 38,
      "start": 91.954,
      "duration": 0.1068,
      "velocity": 117,
      "chip": "ym2612"
    },
    {
      "channel": 2,
      "note": 57,
      "start": 91.958,
      "duration": 0.0697,
      "velocity": 98,
      "chip": "ym2612"
    },
    {
      "channel": 4,
      "note": 57,
      "start": 91.9613,
      "duration": 0.083,
      "velocity": 98,
      "chip": "ym2612"
    },
    {
      "channel": 0,
      "note": 84,
      "start": 91.9641,
      "duration": 0.1134,
      "velocity": 127,
      "chip": "ym2612"
    },
    {
      "channel": 5,
      "note": 45,
      "start": 92.1308,
      "duration": 0.0302,
      "velocity": 114,
      "chip": "ym2612"
    },
    {
      "channel": 1,
      "note": 40,
      "start": 92.1343,
      "duration": 0.1598,
      "velocity": 117,
      "chip": "ym2612"
    },
    {
      "channel": 4,
      "note": 62,
      "start": 92.1377,
      "duration": 0.0566,
      "velocity": 98,
      "chip": "ym2612"
    },
    {
      "channel": 3,
      "note": 91,
      "start": 92.2976,
      "duration": 0.0634,
      "velocity": 86,
      "chip": "ym2612"
    },
    {
      "channel": 5,
      "note": 43,
      "start": 92.3002,
      "duration": 0.0441,
      "velocity": 114,
      "chip": "ym2612"
    },
    {
      "channel": 2,
      "note": 33,
      "start": 92.3042,
      "duration": 0.0236,
      "velocity": 113,
      "chip": "ym2612"
    },
    {
      "channel": 0,
      "note": 46,
      "start": 92.3077,
      "duration": 0.053,
      "velocity": 97,
      "chip": "ym2612"
    },
    {
      "channel": 4,
      "note": 53,
      "start": 92.311,
      "duration": 0.0666,
      "velocity": 97,
      "chip": "ym2612"
    },
    {
      "channel": 1,
      "note": 31,
      "start": 92.3163,
      "duration": 0.2446,
      "velocity": 117,
      "chip": "ym2612"
    },
    {
      "channel": 3,
      "note": 86,
      "start": 92.4806,
      "duration": 0.0304,
      "velocity": 86,
      "chip": "ym2612"
    },
    {
      "channel": 5,
      "note": 43,
      "start": 92.4834,
      "duration": 0.0943,
      "velocity": 114,
      "chip": "ym2612"
    },
    {
      "channel": 0,
      "note": 46,
      "start": 92.4865,
      "duration": 0.0909,
      "velocity": 97,
      "chip": "ym2612"
    },
    {
      "channel": 4,
      "note": 53,
      "start": 92.4893,
      "duration": 0.0906,
      "velocity": 97,
      "chip": "ym2612"
    },
    {
      "channel": 3,
      "note": 86,
      "start": 92.6638,
      "duration": 0.0304,
      "velocity": 86,
      "chip": "ym2612"
    },
    {
      "channel": 2,
      "note": 84,
      "start": 92.6681,
      "duration": 0.143,
      "velocity": 127,
      "chip": "ym2612"
    },
    {
      "channel": 1,
      "note": 31,
      "start": 92.8148,
      "duration": 0.1961,
      "velocity": 117,
      "chip": "ym2612"
    },
    {
      "channel": 3,
      "note": 91,
      "start": 92.8476,
      "duration": 0.0301,
      "velocity": 86,
      "chip": "ym2612"
    },
    {
      "channel": 5,
      "note": 41,
      "start": 92.8503,
      "duration": 0.0773,
      "velocity": 114,
      "chip": "ym2612"
    },
    {
      "channel": 0,
      "note": 46,
      "start": 92.8535,
      "duration": 1.6574,
      "velocity": 97,
      "chip": "ym2612"
    },
    {
      "channel": 4,
      "note": 53,
      "start": 92.8561,
      "duration": 1.655,
      "velocity": 97,
      "chip": "ym2612"
    },
    {
      "channel": 3,
      "note": 86,
      "start": 93.0304,
      "duration": 0.0138,
      "velocity": 86,
      "chip": "ym2612"
    },
    {
      "channel": 5,
      "note": 43,
      "start": 93.0337,
      "duration": 0.094,
      "velocity": 114,
      "chip": "ym2612"
    },
    {
      "channel": 2,
      "note": 33,
      "start": 93.0364,
      "duration": 0.0081,
      "velocity": 113,
      "chip": "ym2612"
    },
    {
      "channel": 3,
      "note": 86,
      "start": 93.2021,
      "duration": 0.0254,
      "velocity": 86,
      "chip": "ym2612"
    },
    {
      "channel": 3,
      "note": 91,
      "start": 93.3805,
      "duration": 0.0304,
      "velocity": 86,
      "chip": "ym2612"
    },
    {
      "channel": 1,
      "note": 84,
      "start": 93.3836,
      "duration": 0.1439,
      "velocity": 127,
      "chip": "ym2612"
    },
    {
      "channel": 3,
      "note": 86,
      "start": 93.5638,
      "duration": 0.0305,
      "velocity": 86,
      "chip": "ym2612"
    },
    {
      "channel": 2,
      "note": 33,
      "start": 93.5667,
      "duration": 0.0278,
      "velocity": 113,
      "chip": "ym2612"
    },
    {
      "channel": 5,
      "note": 31,
      "start": 93.7317,
      "duration": 0.296,
      "velocity": 117,
      "chip": "ym2612"
    },
    {
      "channel": 3,
      "note": 91,
      "start": 93.7472,
      "duration": 0.0304,
      "velocity": 86,
      "chip": "ym2612"
    },
    {
      "channel": 2,
      "note": 33,
      "start": 93.75,
      "duration": 0.0279,
      "velocity": 113,
      "chip": "ym2612"
    },
    {
      "channel": 3,
      "note": 86,
      "start": 93.9306,
      "duration": 0.016,
      "velocity": 86,
      "chip": "ym2612"
    },
    {
      "channel": 1,
      "note": 41,
      "start": 93.9334,
      "duration": 0.0774,
      "velocity": 114,
      "chip": "ym2612"
    },
    {
      "channel": 3,
      "note": 93,
      "start": 94.0994,
      "duration": 0.0283,
      "velocity": 86,
      "chip": "ym2612"
    },
    {
      "channel": 1,
      "note": 43,
      "start": 94.1019,
      "duration": 0.1256,
      "velocity": 114,
      "chip": "ym2612"
    },
    {
      "channel": 2,
      "note": 84,
      "start": 94.1052,
      "duration": 0.1725,
      "velocity": 127,
      "chip": "ym2612"
    },
    {
      "channel": 3,
      "note": 86,
      "start": 94.2806,
      "duration": 0.0304,
      "velocity": 86,
      "chip": "ym2612"
    },
    {
      "channel": 1,
      "note": 41,
      "start": 94.2831,
      "duration": 0.0611,
      "velocity": 114,
      "chip": "ym2612"
    },
    {
      "channel": 3,
      "note": 94,
      "start": 94.4638,
      "duration": 0.0304,
      "velocity": 86,
      "chip": "ym2612"
    },
    {
      "channel": 1,
      "note": 46,
      "start": 94.4664,
      "duration": 0.0778,
      "velocity": 114,
      "chip": "ym2612"
    },
    {
      "channel": 5,
      "note": 33,
      "start": 94.469,
      "duration": 0.0254,
      "velocity": 113,
      "chip": "ym2612"
    },
    {
      "channel": 3,
      "note": 86,
      "start": 94.6472,
      "duration": 0.0305,
      "velocity": 86,
      "chip": "ym2612"
    },
    {
      "channel": 1,
      "note": 46,
      "start": 94.6497,
      "duration": 0.0945,
      "velocity": 114,
      "chip": "ym2612"
    },
    {
      "channel": 3,
      "note": 93,
      "start": 94.8305,
      "duration": 0.0305,
      "velocity": 86,
      "chip": "ym2612"
    },
    {
      "channel": 1,
      "note": 43,
      "start": 94.8336,
      "duration": 0.0296,
      "velocity": 114,
      "chip": "ym2612"
    },
    {
      "channel": 2,
      "note": 84,
      "start": 94.8368,
      "duration": 0.1242,
      "velocity": 127,
      "chip": "ym2612"
    },
    {
      "channel": 5,
      "note": 41,
      "start": 94.8483,
      "duration": 0.1709,
      "velocity": 117,
      "chip": "ym2612"
    },
    {
      "channel": 3,
      "note": 86,
      "start": 95.0138,
      "duration": 0.0137,
      "velocity": 86,
      "chip": "ym2612"
    },
    {
      "channel": 0,
      "note": 36,
      "start": 95.0176,
      "duration": 0.1454,
      "velocity": 117,
      "chip": "ym2612"
    },
    {
      "channel": 3,
      "note": 91,
      "start": 95.1804,
      "duration": 0.0305,
      "velocity": 86,
      "chip": "ym2612"
    },
    {
      "channel": 1,
      "note": 43,
      "start": 95.183,
      "duration": 0.0445,
      "velocity": 114,
      "chip": "ym2612"
    },
    {
      "channel": 4,
      "note": 33,
      "start": 95.1856,
      "duration": 0.0254,
      "velocity": 113,
      "chip": "ym2612"
    },
    {
      "channel": 0,
      "note": 31,
      "start": 95.1979,
      "duration": 0.2796,
      "velocity": 117,
      "chip": "ym2612"
    },
    {
      "channel": 3,
      "note": 84,
      "start": 95.3638,
      "duration": 0.0305,
      "velocity": 86,
      "chip": "ym2612"
    },
    {
      "channel": 1,
      "note": 43,
      "start": 95.3665,
      "duration": 0.0943,
      "velocity": 114,
      "chip": "ym2612"
    },
    {
      "channel": 2,
      "note": 46,
      "start": 95.3702,
      "duration": 0.0408,
      "velocity": 97,
      "chip": "ym2612"
    },
    {
      "channel": 2,
      "note": 46,
      "start": 95.4647,
      "duration": 0.0297,
      "velocity": 97,
      "chip": "ym2612"
    },
    {
      "channel": 3,
      "note": 84,
      "start": 95.5472,
      "duration": 0.0303,
      "velocity": 86,
      "chip": "ym2612"
    },
    {
      "channel": 2,
      "note": 46,
      "start": 95.5503,
      "duration": 0.044,
      "velocity": 97,
      "chip": "ym2612"
    },
    {
      "channel": 5,
      "note": 84,
      "start": 95.5542,
      "duration": 0.1402,
      "velocity": 127,
      "chip": "ym2612"
    },
    {
      "channel": 2,
      "note": 46,
      "start": 95.6334,
      "duration": 0.0443,
      "velocity": 97,
      "chip": "ym2612"
    },
    {
      "channel": 3,
      "note": 91,
      "start": 95.7309,
      "duration": 0.0301,
      "velocity": 86,
      "chip": "ym2612"
    },
    {
      "channel": 1,
      "note": 41,
      "start": 95.7336,
      "duration": 0.1106,
      "velocity": 114,
      "chip": "ym2612"
    },
    {
      "channel": 0,
      "note": 31,
      "start": 95.7367,
      "duration": 0.2075,
      "velocity": 117,
      "chip": "ym2612"
    },
    {
      "channel": 2,
      "note": 46,
      "start": 95.7397,
      "duration": 0.1214,
      "velocity": 97,
      "chip": "ym2612"
    },
    {
      "channel": 3,
      "note": 84,
      "start": 95.9138,
      "duration": 0.016,
      "velocity": 86,
      "chip": "ym2612"
    },
    {
      "channel": 1,
      "note": 43,
      "start": 95.9165,
      "duration": 0.0944,
      "velocity": 114,
      "chip": "ym2612"
    },
    {
      "channel": 4,
      "note": 33,
      "start": 95.9191,
      "duration": 0.0108,
      "velocity": 113,
      "chip": "ym2612"
    },
    {
      "channel": 2,
      "note": 53,
      "start": 95.9222,
      "duration": 0.089,
      "velocity": 97,
      "chip": "ym2612"
    },
    {
      "channel": 3,
      "note": 84,
      "start": 96.0826,
      "duration": 0.0283,
      "velocity": 86,
      "chip": "ym2612"
    },
    {
      "channel": 2,
      "note": 46,
      "start": 96.0859,
      "duration": 0.0418,
      "velocity": 97,
      "chip": "ym2612"
    },
    {
      "channel": 3,
      "note": 94,
      "start": 96.2638,
      "duration": 0.0305,
      "velocity": 86,
      "chip": "ym2612"
    },
    {
      "channel": 2,
      "note": 46,
      "start": 96.2671,
      "duration": 0.0607,
      "velocity": 97,
      "chip": "ym2612"
    },
    {
      "channel": 5,
      "note": 84,
      "start": 96.2698,
      "duration": 0.1413,
      "velocity": 127,
      "chip": "ym2612"
    },
    {
      "channel": 3,
      "note": 84,
      "start": 96.4472,
      "duration": 0.0304,
      "velocity": 86,
      "chip": "ym2612"
    },
    {
      "channel": 4,
      "note": 33,
      "start": 96.4503,
      "duration": 0.0274,
      "velocity": 113,
      "chip": "ym2612"
    },
    {
      "channel": 0,
      "note": 36,
      "start": 96.4533,
      "duration": 0.1408,
      "velocity": 117,
      "chip": "ym2612"
    },
    {
      "channel": 2,
      "note": 53,
      "start": 96.4562,
      "duration": 0.0882,
      "velocity": 97,
      "chip": "ym2612"
    },
    {
      "channel": 0,
      "note": 31,
      "start": 96.6145,
      "duration": 0.1963,
      "velocity": 117,
      "chip": "ym2612"
    },
    {
      "channel": 3,
      "note": 93,
      "start": 96.6306,
      "duration": 0.0303,
      "velocity": 86,
      "chip": "ym2612"
    },
    {
      "channel": 4,
      "note": 33,
      "start": 96.6333,
      "duration": 0.0277,
      "velocity": 113,
      "chip": "ym2612"
    },
    {
      "channel": 2,
      "note": 46,
      "start": 96.6367,
      "duration": 0.0245,
      "velocity": 97,
      "chip": "ym2612"
    },
    {
      "channel": 1,
      "note": 36,
      "start": 96.7986,
      "duration": 0.2289,
      "velocity": 117,
      "chip": "ym2612"
    },
    {
      "channel": 3,
      "note": 84,
      "start": 96.814,
      "duration": 0.0303,
      "velocity": 86,
      "chip": "ym2612"
    },
    {
      "channel": 5,
      "note": 48,
      "start": 96.8169,
      "duration": 0.1441,
      "velocity": 114,
      "chip": "ym2612"
    },
    {
      "channel": 2,
      "note": 46,
      "start": 96.8201,
      "duration": 0.0266,
      "velocity": 97,
      "chip": "ym2612"
    },
    {
      "channel": 3,
      "note": 89,
      "start": 96.9972,
      "duration": 0.0137,
      "velocity": 86,
      "chip": "ym2612"
    },
    {
      "channel": 5,
      "note": 43,
      "start": 97.0002,
      "duration": 0.0775,
      "velocity": 114,
      "chip": "ym2612"
    },
    {
      "channel": 2,
      "note": 48,
      "start": 97.0035,
      "duration": 0.0408,
      "velocity": 97,
      "chip": "ym2612"
    },
    {
      "channel": 4,
      "note": 84,
      "start": 97.0065,
      "duration": 0.1545,
      "velocity": 127,
      "chip": "ym2612"
    },
    {
      "channel": 3,
      "note": 84,
      "start": 97.1639,
      "duration": 0.0304,
      "velocity": 86,
      "chip": "ym2612"
    },
    {
      "channel": 5,
      "note": 46,
      "start": 97.1668,
      "duration": 0.0776,
      "velocity": 114,
      "chip": "ym2612"
    },
    {
      "channel": 3,
      "note": 91,
      "start": 97.3472,
      "duration": 0.0305,
      "velocity": 86,
      "chip": "ym2612"
    },
    {
      "channel": 0,
      "note": 33,
      "start": 97.3498,
      "duration": 0.0277,
      "velocity": 113,
      "chip": "ym2612"
    },
    {
      "channel": 2,
      "note": 48,
      "start": 97.3531,
      "duration": 0.108,
      "velocity": 97,
      "chip": "ym2612"
    },
    {
      "channel": 1,
      "note": 36,
      "start": 97.3647,
      "duration": 0.1794,
      "velocity": 117,
      "chip": "ym2612"
    },
    {
      "channel": 3,
      "note": 84,
      "start": 97.5304,
      "duration": 0.0304,
      "velocity": 86,
      "chip": "ym2612"
    },
    {
      "channel": 5,
      "note": 46,
      "start": 97.5333,
      "duration": 0.08,
      "velocity": 114,
      "chip": "ym2612"
    },
    {
      "channel": 2,
      "note": 50,
      "start": 97.5366,
      "duration": 0.0768,
      "velocity": 97,
      "chip": "ym2612"
    },
    {
      "channel": 3,
      "note": 84,
      "start": 97.7138,
      "duration": 0.0304,
      "velocity": 86,
      "chip": "ym2612"
    },
    {
      "channel": 5,
      "note": 43,
      "start": 97.7165,
      "duration": 0.1445,
      "velocity": 114,
      "chip": "ym2612"
    },
    {
      "channel": 4,
      "note": 84,
      "start": 97.7196,
      "duration": 0.1247,
      "velocity": 127,
      "chip": "ym2612"
    },
    {
      "channel": 3,
      "note": 84,
      "start": 97.8972,
      "duration": 0.016,
      "velocity": 86,
      "chip": "ym2612"
    },
    {
      "channel": 5,
      "note": 41,
      "start": 97.8998,
      "duration": 0.0778,
      "velocity": 114,
      "chip": "ym2612"
    },
    {
      "channel": 3,
      "note": 91,
      "start": 98.0659,
      "duration": 0.0284,
      "velocity": 86,
      "chip": "ym2612"
    },
    {
      "channel": 5,
      "note": 43,
      "start": 98.0687,
      "duration": 0.0757,
      "velocity": 114,
      "chip": "ym2612"
    },
    {
      "channel": 0,
      "note": 33,
      "start": 98.0724,
      "duration": 0.0218,
      "velocity": 113,
      "chip": "ym2612"
    },
    {
      "channel": 2,
      "note": 46,
      "start": 98.0755,
      "duration": 0.069,
      "velocity": 97,
      "chip": "ym2612"
    },
    {
      "channel": 1,
      "note": 53,
      "start": 98.079,
      "duration": 0.0485,
      "velocity": 97,
      "chip": "ym2612"
    },
    {
      "channel": 4,
      "note": 31,
      "start": 98.0846,
      "duration": 0.2762,
      "velocity": 117,
      "chip": "ym2612"
    },
    {
      "channel": 3,
      "note": 86,
      "start": 98.2472,
      "duration": 0.0304,
      "velocity": 86,
      "chip": "ym2612"
    },
    {
      "channel": 5,
      "note": 43,
      "start": 98.25,
      "duration": 0.0943,
      "velocity": 114,
      "chip": "ym2612"
    },
    {
      "channel": 1,
      "note": 53,
      "start": 98.2531,
      "duration": 0.0744,
      "velocity": 97,
      "chip": "ym2612"
    },
    {
      "channel": 2,
      "note": 46,
      "start": 98.2561,
      "duration": 0.0883,
      "velocity": 97,
      "chip": "ym2612"
    },
    {
      "channel": 3,
      "note": 86,
      "start": 98.4304,
      "duration": 0.0305,
      "velocity": 86,
      "chip": "ym2612"
    },
    {
      "channel": 0,
      "note": 84,
      "start": 98.4346,
      "duration": 0.1429,
      "velocity": 127,
      "chip": "ym2612"
    },
    {
      "channel": 3,
      "note": 91,
      "start": 98.6141,
      "duration": 0.03,
      "velocity": 86,
      "chip": "ym2612"
    },
    {
      "channel": 5,
      "note": 41,
      "start": 98.6174,
      "duration": 0.0602,
      "velocity": 114,
      "chip": "ym2612"
    },
    {
      "channel": 3,
      "note": 86,
      "start": 98.7971,
      "duration": 0.0306,
      "velocity": 86,
      "chip": "ym2612"
    },
    {
      "channel": 5,
      "note": 43,
      "start": 98.8,
      "duration": 0.0943,
      "velocity": 114,
      "chip": "ym2612"
    },
    {
      "channel": 1,
      "note": 33,
      "start": 98.8028,
      "duration": 0.0248,
      "velocity": 113,
      "chip": "ym2612"
    },
    {
      "channel": 4,
      "note": 31,
      "start": 98.8058,
      "duration": 0.0551,
      "velocity": 117,
      "chip": "ym2612"
    },
    {
      "channel": 2,
      "note": 46,
      "start": 98.8091,
      "duration": 1.3876,
      "velocity": 97,
      "chip": "ym2612"
    },
    {
      "channel": 0,
      "note": 53,
      "start": 98.8121,
      "duration": 1.3843,
      "velocity": 97,
      "chip": "ym2612"
    },
    {
      "channel": 3,
      "note": 86,
      "start": 98.9806,
      "duration": 0.0137,
      "velocity": 86,
      "chip": "ym2612"
    },
    {
      "channel": 4,
      "note": 31,
      "start": 98.9838,
      "duration": 0.2272,
      "velocity": 117,
      "chip": "ym2612"
    },
    {
      "channel": 3,
      "note": 86,
      "start": 99.1472,
      "duration": 0.0303,
      "velocity": 86,
      "chip": "ym2612"
    },
    {
      "channel": 1,
      "note": 84,
      "start": 99.1503,
      "duration": 0.1439,
      "velocity": 127,
      "chip": "ym2612"
    },
    {
      "channel": 5,
      "note": 41,
      "start": 99.1649,
      "duration": 0.1628,
      "velocity": 117,
      "chip": "ym2612"
    },
    {
      "channel": 3,
      "note": 86,
      "start": 99.3306,
      "duration": 0.0303,
      "velocity": 86,
      "chip": "ym2612"
    },
    {
      "channel": 4,
      "note": 33,
      "start": 99.3334,
      "duration": 0.0276,
      "velocity": 113,
      "chip": "ym2612"
    },
    {
      "channel": 5,
      "note": 38,
      "start": 99.3369,
      "duration": 0.1908,
      "velocity": 117,
      "chip": "ym2612"
    },
    {
      "channel": 3,
      "note": 91,
      "start": 99.5138,
      "duration": 0.0305,
      "velocity": 86,
      "chip": "ym2612"
    },
    {
      "channel": 4,
      "note": 33,
      "start": 99.5166,
      "duration": 0.0278,
      "velocity": 113,
      "chip": "ym2612"
    },
    {
      "channel": 1,
      "note": 31,
      "start": 99.5199,
      "duration": 0.2244,
      "velocity": 117,
      "chip": "ym2612"
    },
    {
      "channel": 3,
      "note": 86,
      "start": 99.6972,
      "duration": 0.0303,
      "velocity": 86,
      "chip": "ym2612"
    },
    {
      "channel": 5,
      "note": 41,
      "start": 99.6999,
      "duration": 0.0945,
      "velocity": 114,
      "chip": "ym2612"
    },
    {
      "channel": 3,
      "note": 93,
      "start": 99.8804,
      "duration": 0.0161,
      "velocity": 86,
      "chip": "ym2612"
    },
    {
      "channel": 5,
      "note": 43,
      "start": 99.883,
      "duration": 0.0946,
      "velocity": 114,
      "chip": "ym2612"
    },
    {
      "channel": 4,
      "note": 84,
      "start": 99.8862,
      "duration": 0.1623,
      "velocity": 127,
      "chip": "ym2612"
    },
    {
      "channel": 3,
      "note": 86,
      "start": 100.0515,
      "duration": 0.0261,
      "velocity": 86,
      "chip": "ym2612"
    },
    {
      "channel": 5,
      "note": 41,
      "start": 100.0542,
      "duration": 0.0901,
      "velocity": 114,
      "chip": "ym2612"
    },
    {
      "channel": 3,
      "note": 94,
      "start": 100.2305,
      "duration": 0.0305,
      "velocity": 86,
      "chip": "ym2612"
    },
    {
      "channel": 5,
      "note": 46,
      "start": 100.2332,
      "duration": 0.0778,
      "velocity": 114,
      "chip": "ym2612"
    },
    {
      "channel": 1,
      "note": 33,
      "start": 100.2359,
      "duration": 0.025,
      "velocity": 113,
      "chip": "ym2612"
    },
    {
      "channel": 3,
      "note": 86,
      "start": 100.4138,
      "duration": 0.0304,
      "velocity": 86,
      "chip": "ym2612"
    },
    {
      "channel": 5,
      "note": 46,
      "start": 100.4166,
      "duration": 0.0943,
      "velocity": 114,
      "chip": "ym2612"
    },
    {
      "channel": 3,
      "note": 91,
      "start": 100.5972,
      "duration": 0.0304,
      "velocity": 86,
      "chip": "ym2612"
    },
    {
      "channel": 5,
      "note": 43,
      "start": 100.5998,
      "duration": 0.0946,
      "velocity": 114,
      "chip": "ym2612"
    },
    {
      "channel": 4,
      "note": 84,
      "start": 100.6029,
      "duration": 0.1247,
      "velocity": 127,
      "chip": "ym2612"
    },
    {
      "channel": 0,
      "note": 38,
      "start": 100.7649,
      "duration": 0.1459,
      "velocity": 117,
      "chip": "ym2612"
    },
    {
      "channel": 3,
      "note": 86,
      "start": 100.7804,
      "duration": 0.0305,
      "velocity": 86,
      "chip": "ym2612"
    },
    {
      "channel": 5,
      "note": 41,
      "start": 100.7835,
      "duration": 0.0298,
      "velocity": 114,
      "chip": "ym2612"
    },
    {
      "channel": 0,
      "note": 31,
      "start": 100.9479,
      "duration": 0.213,
      "velocity": 117,
      "chip": "ym2612"
    },
    {
      "channel": 3,
      "note": 91,
      "start": 100.9638,
      "duration": 0.0139,
      "velocity": 86,
      "chip": "ym2612"
    },
    {
      "channel": 5,
      "note": 43,
      "start": 100.9663,
      "duration": 0.0281,
      "velocity": 114,
      "chip": "ym2612"
    },
    {
      "channel": 1,
      "note": 33,
      "start": 100.9687,
      "duration": 0.0088,
      "velocity": 113,
      "chip": "ym2612"
    },
    {
      "channel": 3,
      "note": 84,
      "start": 101.1305,
      "duration": 0.0305,
      "velocity": 86,
      "chip": "ym2612"
    },
    {
      "channel": 5,
      "note": 43,
      "start": 101.1334,
      "duration": 0.0776,
      "velocity": 114,
      "chip": "ym2612"
    },
    {
      "channel": 2,
      "note": 58,
      "start": 101.1371,
      "duration": 0.0573,
      "velocity": 97,
      "chip": "ym2612"
    },
    {
      "channel": 4,
      "note": 65,
      "start": 101.14,
      "duration": 0.0876,
      "velocity": 97,
      "chip": "ym2612"
    },
    {
      "channel": 3,
      "note": 84,
      "start": 101.3139,
      "duration": 0.0303,
      "velocity": 86,
      "chip": "ym2612"
    },
    {
      "channel": 1,
      "note": 84,
      "start": 101.3181,
      "duration": 0.1428,
      "velocity": 127,
      "chip": "ym2612"
    },
    {
      "channel": 3,
      "note": 91,
      "start": 101.4976,
      "duration": 0.03,
      "velocity": 86,
      "chip": "ym2612"
    },
    {
      "channel": 5,
      "note": 41,
      "start": 101.5004,
      "duration": 0.0939,
      "velocity": 114,
      "chip": "ym2612"
    },
    {
      "channel": 0,
      "note": 31,
      "start": 101.5035,
      "duration": 0.174,
      "velocity": 117,
      "chip": "ym2612"
    },
    {
      "channel": 4,
      "note": 58,
      "start": 101.5066,
      "duration": 1.1377,
      "velocity": 97,
      "chip": "ym2612"
    },
    {
      "channel": 2,
      "note": 65,
      "start": 101.5096,
      "duration": 1.1681,
      "velocity": 97,
      "chip": "ym2612"
    },
    {
      "channel": 3,
      "note": 84,
      "start": 101.6806,
      "duration": 0.0305,
      "velocity": 86,
      "chip": "ym2612"
    },
    {
      "channel": 5,
      "note": 43,
      "start": 101.6834,
      "duration": 0.061,
      "velocity": 114,
      "chip": "ym2612"
    },
    {
      "channel": 1,
      "note": 33,
      "start": 101.6862,
      "duration": 0.0247,
      "velocity": 113,
      "chip": "ym2612"
    },
    {
      "channel": 3,
      "note": 84,
      "start": 101.8639,
      "duration": 0.0159,
      "velocity": 86,
      "chip": "ym2612"
    },
    {
      "channel": 0,
      "note": 31,
      "start": 101.8674,
      "duration": 0.1934,
      "velocity": 117,
      "chip": "ym2612"
    },
    {
      "channel": 1,
      "note": 41,
      "start": 102.0315,
      "duration": 0.1482,
      "velocity": 117,
      "chip": "ym2612"
    },
    {
      "channel": 3,
      "note": 94,
      "start": 102.0359,
      "duration": 0.0251,
      "velocity": 86,
      "chip": "ym2612"
    },
    {
      "channel": 5,
      "note": 84,
      "start": 102.0391,
      "duration": 0.1408,
      "velocity": 127,
      "chip": "ym2612"
    },
    {
      "channel": 3,
      "note": 84,
      "start": 102.1975,
      "duration": 0.0469,
      "velocity": 86,
      "chip": "ym2612"
    },
    {
      "channel": 0,
      "note": 38,
      "start": 102.2005,
      "duration": 0.127,
      "velocity": 117,
      "chip": "ym2612"
    },
    {
      "channel": 1,
      "note": 33,
      "start": 102.2146,
      "duration": 0.0296,
      "velocity": 113,
      "chip": "ym2612"
    },
    {
      "channel": 0,
      "note": 31,
      "start": 102.3812,
      "duration": 0.1296,
      "velocity": 117,
      "chip": "ym2612"
    },
    {
      "channel": 3,
      "note": 93,
      "start": 102.3975,
      "duration": 0.0302,
      "velocity": 86,
      "chip": "ym2612"
    },
    {
      "channel": 1,
      "note": 33,
      "start": 102.4002,
      "duration": 0.0274,
      "velocity": 113,
      "chip": "ym2612"
    },
    {
      "channel": 0,
      "note": 34,
      "start": 102.5313,
      "duration": 0.7151,
      "velocity": 117,
      "chip": "ym2612"
    },
    {
      "channel": 3,
      "note": 84,
      "start": 102.5804,
      "duration": 0.0305,
      "velocity": 86,
      "chip": "ym2612"
    },
    {
      "channel": 5,
      "note": 41,
      "start": 102.5834,
      "duration": 0.0776,
      "velocity": 114,
      "chip": "ym2612"
    },
    {
      "channel": 3,
      "note": 89,
      "start": 102.7638,
      "duration": 0.0305,
      "velocity": 86,
      "chip": "ym2612"
    },
    {
      "channel": 5,
      "note": 46,
      "start": 102.7668,
      "duration": 0.1108,
      "velocity": 114,
      "chip": "ym2612"
    },
    {
      "channel": 1,
      "note": 84,
      "start": 102.7701,
      "duration": 0.1742,
      "velocity": 127,
      "chip": "ym2612"
    },
    {
      "channel": 3,
      "note": 84,
      "start": 102.9473,
      "duration": 0.0136,
      "velocity": 86,
      "chip": "ym2612"
    },
    {
      "channel": 5,
      "note": 41,
      "start": 102.95,
      "duration": 0.0778,
      "velocity": 114,
      "chip": "ym2612"
    },
    {
      "channel": 3,
      "note": 91,
      "start": 103.1138,
      "duration": 0.0304,
      "velocity": 86,
      "chip": "ym2612"
    },
    {
      "channel": 5,
      "note": 48,
      "start": 103.1165,
      "duration": 0.0779,
      "velocity": 114,
      "chip": "ym2612"
    },
    {
      "channel": 4,
      "note": 33,
      "start": 103.1191,
      "duration": 0.0253,
      "velocity": 113,
      "chip": "ym2612"
    },
    {
      "channel": 0,
      "note": 36,
      "start": 103.2817,
      "duration": 0.5624,
      "velocity": 117,
      "chip": "ym2612"
    },
    {
      "channel": 3,
      "note": 84,
      "start": 103.2971,
      "duration": 0.0305,
      "velocity": 86,
      "chip": "ym2612"
    },
    {
      "channel": 5,
      "note": 48,
      "start": 103.2998,
      "duration": 0.0968,
      "velocity": 114,
      "chip": "ym2612"
    },
    {
      "channel": 3,
      "note": 84,
      "start": 103.4809,
      "duration": 0.03,
      "velocity": 86,
      "chip": "ym2612"
    },
    {
      "channel": 5,
      "note": 46,
      "start": 103.4836,
      "duration": 0.0774,
      "velocity": 114,
      "chip": "ym2612"
    },
    {
      "channel": 1,
      "note": 84,
      "start": 103.4866,
      "duration": 0.1243,
      "velocity": 127,
      "chip": "ym2612"
    },
    {
      "channel": 3,
      "note": 84,
      "start": 103.6638,
      "duration": 0.0304,
      "velocity": 86,
      "chip": "ym2612"
    },
    {
      "channel": 5,
      "note": 41,
      "start": 103.6666,
      "duration": 0.0611,
      "velocity": 114,
      "chip": "ym2612"
    },
    {
      "channel": 3,
      "note": 91,
      "start": 103.8472,
      "duration": 0.0187,
      "velocity": 86,
      "chip": "ym2612"
    },
    {
      "channel": 5,
      "note": 43,
      "start": 103.85,
      "duration": 0.0444,
      "velocity": 114,
      "chip": "ym2612"
    },
    {
      "channel": 4,
      "note": 33,
      "start": 103.8538,
      "duration": 0.0123,
      "velocity": 113,
      "chip": "ym2612"
    },
    {
      "channel": 0,
      "note": 31,
      "start": 103.8646,
      "duration": 0.2462,
      "velocity": 117,
      "chip": "ym2612"
    },
    {
      "channel": 3,
      "note": 86,
      "start": 104.0161,
      "duration": 0.0282,
      "velocity": 86,
      "chip": "ym2612"
    },
    {
      "channel": 5,
      "note": 43,
      "start": 104.0189,
      "duration": 0.0922,
      "velocity": 114,
      "chip": "ym2612"
    },
    {
      "channel": 2,
      "note": 53,
      "start": 104.0225,
      "duration": 0.0888,
      "velocity": 97,
      "chip": "ym2612"
    },
    {
      "channel": 1,
      "note": 46,
      "start": 104.0255,
      "duration": 0.052,
      "velocity": 97,
      "chip": "ym2612"
    },
    {
      "channel": 3,
      "note": 86,
      "start": 104.1972,
      "duration": 0.0304,
      "velocity": 86,
      "chip": "ym2612"
    },
    {
      "channel": 4,
      "note": 84,
      "start": 104.2014,
      "duration": 0.143,
      "velocity": 127,
      "chip": "ym2612"
    },
    {
      "channel": 3,
      "note": 91,
      "start": 104.3804,
      "duration": 0.0305,
      "velocity": 86,
      "chip": "ym2612"
    },
    {
      "channel": 5,
      "note": 41,
      "start": 104.3837,
      "duration": 0.0773,
      "velocity": 114,
      "chip": "ym2612"
    },
    {
      "channel": 0,
      "note": 31,
      "start": 104.548,
      "duration": 0.065,
      "velocity": 117,
      "chip": "ym2612"
    },
    {
      "channel": 3,
      "note": 86,
      "start": 104.5638,
      "duration": 0.0305,
      "velocity": 86,
      "chip": "ym2612"
    },
    {
      "channel": 5,
      "note": 43,
      "start": 104.5667,
      "duration": 0.0943,
      "velocity": 114,
      "chip": "ym2612"
    },
    {
      "channel": 1,
      "note": 33,
      "start": 104.5694,
      "duration": 0.0248,
      "velocity": 113,
      "chip": "ym2612"
    },
    {
      "channel": 2,
      "note": 46,
      "start": 104.5726,
      "duration": 0.0718,
      "velocity": 97,
      "chip": "ym2612"
    },
    {
      "channel": 4,
      "note": 53,
      "start": 104.5755,
      "duration": 0.0378,
      "velocity": 97,
      "chip": "ym2612"
    },
    {
      "channel": 0,
      "note": 31,
      "start": 104.7312,
      "duration": 0.2296,
      "velocity": 117,
      "chip": "ym2612"
    },
    {
      "channel": 3,
      "note": 86,
      "start": 104.7472,
      "duration": 0.016,
      "velocity": 86,
      "chip": "ym2612"
    },
    {
      "channel": 4,
      "note": 48,
      "start": 104.7505,
      "duration": 0.0605,
      "velocity": 97,
      "chip": "ym2612"
    },
    {
      "channel": 2,
      "note": 53,
      "start": 104.7539,
      "duration": 0.0739,
      "velocity": 97,
      "chip": "ym2612"
    },
    {
      "channel": 3,
      "note": 93,
      "start": 104.9305,
      "duration": 0.0138,
      "velocity": 86,
      "chip": "ym2612"
    },
    {
      "channel": 1,
      "note": 41,
      "start": 104.9339,
      "duration": 0.1459,
      "velocity": 117,
      "chip": "ym2612"
    },
    {
      "channel": 5,
      "note": 84,
      "start": 104.9368,
      "duration": 0.1409,
      "velocity": 127,
      "chip": "ym2612"
    },
    {
      "channel": 3,
      "note": 86,
      "start": 105.0972,
      "duration": 0.0303,
      "velocity": 86,
      "chip": "ym2612"
    },
    {
      "channel": 4,
      "note": 33,
      "start": 105.1001,
      "duration": 0.0276,
      "velocity": 113,
      "chip": "ym2612"
    },
    {
      "channel": 0,
      "note": 38,
      "start": 105.1029,
      "duration": 0.1746,
      "velocity": 117,
      "chip": "ym2612"
    },
    {
      "channel": 2,
      "note": 46,
      "start": 105.1059,
      "duration": 0.7719,
      "velocity": 97,
      "chip": "ym2612"
    },
    {
      "channel": 5,
      "note": 53,
      "start": 105.1088,
      "duration": 0.769,
      "velocity": 97,
      "chip": "ym2612"
    },
    {
      "channel": 3,
      "note": 94,
      "start": 105.2806,
      "duration": 0.0302,
      "velocity": 86,
      "chip": "ym2612"
    },
    {
      "channel": 4,
      "note": 33,
      "start": 105.2834,
      "duration": 0.0276,
      "velocity": 113,
      "chip": "ym2612"
    },
    {
      "channel": 0,
      "note": 31,
      "start": 105.2869,
      "duration": 0.2239,
      "velocity": 117,
      "chip": "ym2612"
    },
    {
      "channel": 3,
      "note": 86,
      "start": 105.4638,
      "duration": 0.0303,
      "velocity": 86,
      "chip": "ym2612"
    },
    {
      "channel": 1,
      "note": 41,
      "start": 105.4668,
      "duration": 0.0629,
      "velocity": 114,
      "chip": "ym2612"
    },
    {
      "channel": 3,
      "note": 98,
      "start": 105.6472,
      "duration": 0.0303,
      "velocity": 86,
      "chip": "ym2612"
    },
    {
      "channel": 1,
      "note": 43,
      "start": 105.6497,
      "duration": 0.1111,
      "velocity": 114,
      "chip": "ym2612"
    },
    {
      "channel": 4,
      "note": 84,
      "start": 105.6529,
      "duration": 0.1747,
      "velocity": 127,
      "chip": "ym2612"
    },
    {
      "channel": 3,
      "note": 86,
      "start": 105.8306,
      "duration": 0.0137,
      "velocity": 86,
      "chip": "ym2612"
    },
    {
      "channel": 1,
      "note": 41,
      "start": 105.8331,
      "duration": 0.0777,
      "velocity": 114,
      "chip": "ym2612"
    },
    {
      "channel": 3,
      "note": 96,
      "start": 105.9993,
      "duration": 0.0284,
      "velocity": 86,
      "chip": "ym2612"
    },
    {
      "channel": 1,
      "note": 46,
      "start": 106.0018,
      "duration": 0.059,
      "velocity": 114,
      "chip": "ym2612"
    },
    {
      "channel": 0,
      "note": 33,
      "start": 106.0044,
      "duration": 0.023,
      "velocity": 113,
      "chip": "ym2612"
    },
    {
      "channel": 3,
      "note": 86,
      "start": 106.1804,
      "duration": 0.0305,
      "velocity": 86,
      "chip": "ym2612"
    },
    {
      "channel": 1,
      "note": 46,
      "start": 106.1834,
      "duration": 0.0941,
      "velocity": 114,
      "chip": "ym2612"
    },
    {
      "channel": 3,
      "note": 94,
      "start": 106.3642,
      "duration": 0.03,
      "velocity": 86,
      "chip": "ym2612"
    },
    {
      "channel": 1,
      "note": 43,
      "start": 106.3668,
      "duration": 0.0441,
      "velocity": 114,
      "chip": "ym2612"
    },
    {
      "channel": 4,
      "note": 84,
      "start": 106.3699,
      "duration": 0.1244,
      "velocity": 127,
      "chip": "ym2612"
    },
    {
      "channel": 3,
      "note": 86,
      "start": 106.5472,
      "duration": 0.0305,
      "velocity": 86,
      "chip": "ym2612"
    },
    {
      "channel": 1,
      "note": 41,
      "start": 106.5497,
      "duration": 0.0612,
      "velocity": 114,
      "chip": "ym2612"
    },
    {
      "channel": 5,
      "note": 38,
      "start": 106.5649,
      "duration": 0.1461,
      "velocity": 117,
      "chip": "ym2612"
    },
    {
      "channel": 3,
      "note": 96,
      "start": 106.7304,
      "duration": 0.0161,
      "velocity": 86,
      "chip": "ym2612"
    },
    {
      "channel": 1,
      "note": 43,
      "start": 106.733,
      "duration": 0.0445,
      "velocity": 114,
      "chip": "ym2612"
    },
    {
      "channel": 0,
      "note": 33,
      "start": 106.7353,
      "duration": 0.011,
      "velocity": 113,
      "chip": "ym2612"
    },
    {
      "channel": 5,
      "note": 31,
      "start": 106.7385,
      "duration": 0.2559,
      "velocity": 117,
      "chip": "ym2612"
    },
    {
      "channel": 3,
      "note": 84,
      "start": 106.8994,
      "duration": 0.0283,
      "velocity": 86,
      "chip": "ym2612"
    },
    {
      "channel": 1,
      "note": 43,
      "start": 106.9021,
      "duration": 0.0754,
      "velocity": 114,
      "chip": "ym2612"
    },
    {
      "channel": 2,
      "note": 48,
      "start": 106.9054,
      "duration": 0.0224,
      "velocity": 97,
      "chip": "ym2612"
    },
    {
      "channel": 2,
      "note": 48,
      "start": 106.9981,
      "duration": 0.0463,
      "velocity": 97,
      "chip": "ym2612"
    },
    {
      "channel": 3,
      "note": 84,
      "start": 107.0805,
      "duration": 0.0304,
      "velocity": 86,
      "chip": "ym2612"
    },
    {
      "channel": 2,
      "note": 48,
      "start": 107.0837,
      "duration": 0.0274,
      "velocity": 97,
      "chip": "ym2612"
    },
    {
      "channel": 4,
      "note": 84,
      "start": 107.0874,
      "duration": 0.1402,
      "velocity": 127,
      "chip": "ym2612"
    },
    {
      "channel": 2,
      "note": 48,
      "start": 107.1812,
      "duration": 0.0298,
      "velocity": 97,
      "chip": "ym2612"
    },
    {
      "channel": 3,
      "note": 94,
      "start": 107.2638,
      "duration": 0.0305,
      "velocity": 86,
      "chip": "ym2612"
    },
    {
      "channel": 1,
      "note": 41,
      "start": 107.2665,
      "duration": 0.0944,
      "velocity": 114,
      "chip": "ym2612"
    },
    {
      "channel": 2,
      "note": 48,
      "start": 107.2696,
      "duration": 0.0414,
      "velocity": 97,
      "chip": "ym2612"
    },
    {
      "channel": 2,
      "note": 48,
      "start": 107.3652,
      "duration": 0.0458,
      "velocity": 97,
      "chip": "ym2612"
    },
    {
      "channel": 3,
      "note": 84,
      "start": 107.4472,
      "duration": 0.0305,
      "velocity": 86,
      "chip": "ym2612"
    },
    {
      "channel": 1,
      "note": 43,
      "start": 107.4497,
      "duration": 0.0778,
      "velocity": 114,
      "chip": "ym2612"
    },
    {
      "channel": 0,
      "note": 33,
      "start": 107.4522,
      "duration": 0.0252,
      "velocity": 113,
      "chip": "ym2612"
    },
    {
      "channel": 5,
      "note": 31,
      "start": 107.4553,
      "duration": 0.0579,
      "velocity": 117,
      "chip": "ym2612"
    },
    {
      "channel": 2,
      "note": 48,
      "start": 107.4584,
      "duration": 0.0859,
      "velocity": 97,
      "chip": "ym2612"
    },
    {
      "channel": 3,
      "note": 84,
      "start": 107.6304,
      "duration": 0.0305,
      "velocity": 86,
      "chip": "ym2612"
    },
    {
      "channel": 5,
      "note": 31,
      "start": 107.6338,
      "duration": 0.2272,
      "velocity": 117,
      "chip": "ym2612"
    },
    {
      "channel": 2,
      "note": 50,
      "start": 107.6369,
      "duration": 0.0574,
      "velocity": 97,
      "chip": "ym2612"
    },
    {
      "channel": 3,
      "note": 93,
      "start": 107.8138,
      "duration": 0.0138,
      "velocity": 86,
      "chip": "ym2612"
    },
    {
      "channel": 4,
      "note": 84,
      "start": 107.8169,
      "duration": 0.1441,
      "velocity": 127,
      "chip": "ym2612"
    },
    {
      "channel": 0,
      "note": 41,
      "start": 107.8223,
      "duration": 0.1408,
      "velocity": 117,
      "chip": "ym2612"
    },
    {
      "channel": 3,
      "note": 84,
      "start": 107.9804,
      "duration": 0.0305,
      "velocity": 86,
      "chip": "ym2612"
    },
    {
      "channel": 1,
      "note": 33,
      "start": 107.9837,
      "duration": 0.0272,
      "velocity": 113,
      "chip": "ym2612"
    },
    {
      "channel": 0,
      "note": 38,
      "start": 107.9978,
      "duration": 0.1319,
      "velocity": 117,
      "chip": "ym2612"
    },
    {
      "channel": 3,
      "note": 89,
      "start": 108.1638,
      "duration": 0.0305,
      "velocity": 86,
      "chip": "ym2612"
    },
    {
      "channel": 1,
      "note": 33,
      "start": 108.1665,
      "duration": 0.0277,
      "velocity": 113,
      "chip": "ym2612"
    },
    {
      "channel": 0,
      "note": 31,
      "start": 108.1811,
      "duration": 0.163,
      "velocity": 117,
      "chip": "ym2612"
    },
    {
      "channel": 3,
      "note": 84,
      "start": 108.3472,
      "duration": 0.0304,
      "velocity": 86,
      "chip": "ym2612"
    },
    {
      "channel": 2,
      "note": 41,
      "start": 108.3506,
      "duration": 0.1105,
      "velocity": 114,
      "chip": "ym2612"
    },
    {
      "channel": 5,
      "note": 46,
      "start": 108.3539,
      "duration": 0.0405,
      "velocity": 97,
      "chip": "ym2612"
    },
    {
      "channel": 0,
      "note": 34,
      "start": 108.3647,
      "duration": 0.6649,
      "velocity": 117,
      "chip": "ym2612"
    },
    {
      "channel": 5,
      "note": 46,
      "start": 108.4333,
      "duration": 0.0444,
      "velocity": 97,
      "chip": "ym2612"
    },
    {
      "channel": 3,
      "note": 91,
      "start": 108.5305,
      "duration": 0.0305,
      "velocity": 86,
      "chip": "ym2612"
    },
    {
      "channel": 2,
      "note": 43,
      "start": 108.5331,
      "duration": 0.1113,
      "velocity": 114,
      "chip": "ym2612"
    },
    {
      "channel": 5,
      "note": 46,
      "start": 108.536,
      "duration": 0.0416,
      "velocity": 97,
      "chip": "ym2612"
    },
    {
      "channel": 4,
      "note": 84,
      "start": 108.5388,
      "duration": 0.1721,
      "velocity": 127,
      "chip": "ym2612"
    },
    {
      "channel": 5,
      "note": 46,
      "start": 108.6145,
      "duration": 0.0465,
      "velocity": 97,
      "chip": "ym2612"
    },
    {
      "channel": 3,
      "note": 84,
      "start": 108.7139,
      "duration": 0.0159,
      "velocity": 86,
      "chip": "ym2612"
    },
    {
      "channel": 2,
      "note": 41,
      "start": 108.7166,
      "duration": 0.0778,
      "velocity": 114,
      "chip": "ym2612"
    },
    {
      "channel": 5,
      "note": 46,
      "start": 108.7196,
      "duration": 0.0247,
      "velocity": 97,
      "chip": "ym2612"
    },
    {
      "channel": 5,
      "note": 46,
      "start": 108.7986,
      "duration": 0.1291,
      "velocity": 97,
      "chip": "ym2612"
    },
    {
      "channel": 3,
      "note": 86,
      "start": 108.8827,
      "duration": 0.0283,
      "velocity": 86,
      "chip": "ym2612"
    },
    {
      "channel": 2,
      "note": 48,
      "start": 108.8855,
      "duration": 0.0756,
      "velocity": 114,
      "chip": "ym2612"
    },
    {
      "channel": 1,
      "note": 33,
      "start": 108.8878,
      "duration": 0.0229,
      "velocity": 113,
      "chip": "ym2612"
    },
    {
      "channel": 3,
      "note": 84,
      "start": 109.0638,
      "duration": 0.0305,
      "velocity": 86,
      "chip": "ym2612"
    },
    {
      "channel": 2,
      "note": 48,
      "start": 109.0666,
      "duration": 0.1278,
      "velocity": 114,
      "chip": "ym2612"
    },
    {
      "channel": 0,
      "note": 36,
      "start": 109.0697,
      "duration": 0.5412,
      "velocity": 117,
      "chip": "ym2612"
    },
    {
      "channel": 3,
      "note": 84,
      "start": 109.2476,
      "duration": 0.03,
      "velocity": 86,
      "chip": "ym2612"
    },
    {
      "channel": 2,
      "note": 46,
      "start": 109.2503,
      "duration": 0.0963,
      "velocity": 114,
      "chip": "ym2612"
    },
    {
      "channel": 4,
      "note": 84,
      "start": 109.2534,
      "duration": 0.1242,
      "velocity": 127,
      "chip": "ym2612"
    },
    {
      "channel": 3,
      "note": 84,
      "start": 109.4304,
      "duration": 0.0305,
      "velocity": 86,
      "chip": "ym2612"
    },
    {
      "channel": 2,
      "note": 41,
      "start": 109.4332,
      "duration": 0.0633,
      "velocity": 114,
      "chip": "ym2612"
    },
    {
      "channel": 3,
      "note": 91,
      "start": 109.6139,
      "duration": 0.0304,
      "velocity": 86,
      "chip": "ym2612"
    },
    {
      "channel": 2,
      "note": 43,
      "start": 109.6166,
      "duration": 0.0612,
      "velocity": 114,
      "chip": "ym2612"
    },
    {
      "channel": 1,
      "note": 33,
      "start": 109.6203,
      "duration": 0.0239,
      "velocity": 113,
      "chip": "ym2612"
    },
    {
      "channel": 0,
      "note": 31,
      "start": 109.6233,
      "duration": 0.2541,
      "velocity": 117,
      "chip": "ym2612"
    },
    {
      "channel": 5,
      "note": 46,
      "start": 109.6263,
      "duration": 0.0513,
      "velocity": 97,
      "chip": "ym2612"
    },
    {
      "channel": 4,
      "note": 53,
      "start": 109.6295,
      "duration": 0.0172,
      "velocity": 97,
      "chip": "ym2612"
    },
    {
      "channel": 3,
      "note": 86,
      "start": 109.7972,
      "duration": 0.0137,
      "velocity": 86,
      "chip": "ym2612"
    },
    {
      "channel": 2,
      "note": 43,
      "start": 109.8005,
      "duration": 0.0773,
      "velocity": 114,
      "chip": "ym2612"
    },
    {
      "channel": 4,
      "note": 46,
      "start": 109.8037,
      "duration": 0.0573,
      "velocity": 97,
      "chip": "ym2612"
    },
    {
      "channel": 5,
      "note": 53,
      "start": 109.8064,
      "duration": 0.0548,
      "velocity": 97,
      "chip": "ym2612"
    },
    {
      "channel": 3,
      "note": 86,
      "start": 109.9638,
      "duration": 0.0305,
      "velocity": 86,
      "chip": "ym2612"
    },
    {
      "channel": 1,
      "note": 84,
      "start": 109.968,
      "duration": 0.1428,
      "velocity": 127,
      "chip": "ym2612"
    },
    {
      "channel": 3,
      "note": 91,
      "start": 110.1472,
      "duration": 0.0305,
      "velocity": 86,
      "chip": "ym2612"
    },
    {
      "channel": 2,
      "note": 41,
      "start": 110.1501,
      "duration": 0.0776,
      "velocity": 114,
      "chip": "ym2612"
    },
    {
      "channel": 3,
      "note": 86,
      "start": 110.3304,
      "duration": 0.0305,
      "velocity": 86,
      "chip": "ym2612"
    },
    {
      "channel": 2,
      "note": 43,
      "start": 110.3334,
      "duration": 0.08,
      "velocity": 114,
      "chip": "ym2612"
    },
    {
      "channel": 4,
      "note": 33,
      "start": 110.3362,
      "duration": 0.0249,
      "velocity": 113,
      "chip": "ym2612"
    },
    {
      "channel": 0,
      "note": 31,
      "start": 110.3395,
      "duration": 0.0713,
      "velocity": 117,
      "chip": "ym2612"
    },
    {
      "channel": 5,
      "note": 46,
      "start": 110.3424,
      "duration": 0.0852,
      "velocity": 97,
      "chip": "ym2612"
    },
    {
      "channel": 1,
      "note": 53,
      "start": 110.346,
      "duration": 0.0649,
      "velocity": 97,
      "chip": "ym2612"
    },
    {
      "channel": 3,
      "note": 86,
      "start": 110.5138,
      "duration": 0.0305,
      "velocity": 86,
      "chip": "ym2612"
    },
    {
      "channel": 0,
      "note": 31,
      "start": 110.517,
      "duration": 0.2106,
      "velocity": 117,
      "chip": "ym2612"
    },
    {
      "channel": 1,
      "note": 48,
      "start": 110.5196,
      "duration": 0.0578,
      "velocity": 97,
      "chip": "ym2612"
    },
    {
      "channel": 5,
      "note": 53,
      "start": 110.5225,
      "duration": 0.0719,
      "velocity": 97,
      "chip": "ym2612"
    },
    {
      "channel": 3,
      "note": 94,
      "start": 110.6971,
      "duration": 0.0192,
      "velocity": 86,
      "chip": "ym2612"
    },
    {
      "channel": 4,
      "note": 84,
      "start": 110.7003,
      "duration": 0.1439,
      "velocity": 127,
      "chip": "ym2612"
    },
    {
      "channel": 2,
      "note": 41,
      "start": 110.7149,
      "duration": 0.1295,
      "velocity": 117,
      "chip": "ym2612"
    },
    {
      "channel": 3,
      "note": 86,
      "start": 110.866,
      "duration": 0.0283,
      "velocity": 86,
      "chip": "ym2612"
    },
    {
      "channel": 1,
      "note": 33,
      "start": 110.8689,
      "duration": 0.0252,
      "velocity": 113,
      "chip": "ym2612"
    },
    {
      "channel": 0,
      "note": 38,
      "start": 110.8719,
      "duration": 0.1412,
      "velocity": 117,
      "chip": "ym2612"
    },
    {
      "channel": 5,
      "note": 48,
      "start": 110.875,
      "duration": 1.4527,
      "velocity": 97,
      "chip": "ym2612"
    },
    {
      "channel": 4,
      "note": 53,
      "start": 110.8783,
      "duration": 1.4327,
      "velocity": 97,
      "chip": "ym2612"
    },
    {
      "channel": 3,
      "note": 93,
      "start": 111.0472,
      "duration": 0.0305,
      "velocity": 86,
      "chip": "ym2612"
    },
    {
      "channel": 1,
      "note": 33,
      "start": 111.0498,
      "duration": 0.0278,
      "velocity": 113,
      "chip": "ym2612"
    },
    {
      "channel": 0,
      "note": 31,
      "start": 111.0529,
      "duration": 0.2245,
      "velocity": 117,
      "chip": "ym2612"
    },
    {
      "channel": 3,
      "note": 86,
      "start": 111.2305,
      "duration": 0.0305,
      "velocity": 86,
      "chip": "ym2612"
    },
    {
      "channel": 2,
      "note": 41,
      "start": 111.2333,
      "duration": 0.0945,
      "velocity": 114,
      "chip": "ym2612"
    },
    {
      "channel": 3,
      "note": 96,
      "start": 111.4138,
      "duration": 0.0304,
      "velocity": 86,
      "chip": "ym2612"
    },
    {
      "channel": 2,
      "note": 43,
      "start": 111.4166,
      "duration": 0.1111,
      "velocity": 114,
      "chip": "ym2612"
    },
    {
      "channel": 1,
      "note": 84,
      "start": 111.421,
      "duration": 0.1733,
      "velocity": 127,
      "chip": "ym2612"
    },
    {
      "channel": 3,
      "note": 86,
      "start": 111.5973,
      "duration": 0.0303,
      "velocity": 86,
      "chip": "ym2612"
    },
    {
      "channel": 2,
      "note": 41,
      "start": 111.6001,
      "duration": 0.0776,
      "velocity": 114,
      "chip": "ym2612"
    },
    {
      "channel": 3,
      "note": 94,
      "start": 111.7805,
      "duration": 0.0138,
      "velocity": 86,
      "chip": "ym2612"
    },
    {
      "channel": 2,
      "note": 46,
      "start": 111.7833,
      "duration": 0.0444,
      "velocity": 114,
      "chip": "ym2612"
    },
    {
      "channel": 0,
      "note": 33,
      "start": 111.7859,
      "duration": 0.0083,
      "velocity": 113,
      "chip": "ym2612"
    },
    {
      "channel": 3,
      "note": 86,
      "start": 111.9472,
      "duration": 0.0304,
      "velocity": 86,
      "chip": "ym2612"
    },
    {
      "channel": 2,
      "note": 46,
      "start": 111.9503,
      "duration": 0.1107,
      "velocity": 114,
      "chip": "ym2612"
    },
    {
      "channel": 3,
      "note": 93,
      "start": 112.1309,
      "duration": 0.0301,
      "velocity": 86,
      "chip": "ym2612"
    },
    {
      "channel": 2,
      "note": 43,
      "start": 112.1337,
      "duration": 0.1274,
      "velocity": 114,
      "chip": "ym2612"
    },
    {
      "channel": 1,
      "note": 84,
      "start": 112.1367,
      "duration": 0.1241,
      "velocity": 127,
      "chip": "ym2612"
    },
    {
      "channel": 3,
      "note": 86,
      "start": 112.314,
      "duration": 0.0302,
      "velocity": 86,
      "chip": "ym2612"
    },
    {
      "channel": 2,
      "note": 41,
      "start": 112.3167,
      "duration": 0.0799,
      "velocity": 114,
      "chip": "ym2612"
    },
    {
      "channel": 3,
      "note": 91,
      "start": 112.4972,
      "duration": 0.0305,
      "velocity": 86,
      "chip": "ym2612"
    },
    {
      "channel": 2,
      "note": 43,
      "start": 112.5,
      "duration": 0.0467,
      "velocity": 114,
      "chip": "ym2612"
    },
    {
      "channel": 0,
      "note": 33,
      "start": 112.5023,
      "duration": 0.0251,
      "velocity": 113,
      "chip": "ym2612"
    },
    {
      "channel": 1,
      "note": 31,
      "start": 112.5059,
      "duration": 0.2717,
      "velocity": 117,
      "chip": "ym2612"
    },
    {
      "channel": 3,
      "note": 84,
      "start": 112.6805,
      "duration": 0.016,
      "velocity": 86,
      "chip": "ym2612"
    },
    {
      "channel": 2,
      "note": 43,
      "start": 112.6835,
      "duration": 0.0609,
      "velocity": 114,
      "chip": "ym2612"
    },
    {
      "channel": 3,
      "note": 84,
      "start": 112.8493,
      "duration": 0.0283,
      "velocity": 86,
      "chip": "ym2612"
    },
    {
      "channel": 4,
      "note": 84,
      "start": 112.8535,
      "duration": 0.1429,
      "velocity": 127,
      "chip": "ym2612"
    },
    {
      "channel": 3,
      "note": 91,
      "start": 113.0305,
      "duration": 0.0305,
      "velocity": 86,
      "chip": "ym2612"
    },
    {
      "channel": 2,
      "note": 41,
      "start": 113.0333,
      "duration": 0.0778,
      "velocity": 114,
      "chip": "ym2612"
    },
    {
      "channel": 3,
      "note": 84,
      "start": 113.2138,
      "duration": 0.0305,
      "velocity": 86,
      "chip": "ym2612"
    },
    {
      "channel": 2,
      "note": 43,
      "start": 113.2168,
      "duration": 0.0799,
      "velocity": 114,
      "chip": "ym2612"
    },
    {
      "channel": 0,
      "note": 33,
      "start": 113.2193,
      "duration": 0.0248,
      "velocity": 113,
      "chip": "ym2612"
    },
    {
      "channel": 1,
      "note": 31,
      "start": 113.2314,
      "duration": 0.065,
      "velocity": 117,
      "chip": "ym2612"
    },
    {
      "channel": 3,
      "note": 84,
      "start": 113.3971,
      "duration": 0.0305,
      "velocity": 86,
      "chip": "ym2612"
    },
    {
      "channel": 1,
      "note": 31,
      "start": 113.4003,
      "duration": 0.2273,
      "velocity": 117,
      "chip": "ym2612"
    },
    {
      "channel": 5,
      "note": 46,
      "start": 113.4037,
      "duration": 0.0573,
      "velocity": 97,
      "chip": "ym2612"
    },
    {
      "channel": 4,
      "note": 53,
      "start": 113.4066,
      "duration": 0.0709,
      "velocity": 97,
      "chip": "ym2612"
    },
    {
      "channel": 3,
      "note": 94,
      "start": 113.5805,
      "duration": 0.0305,
      "velocity": 86,
      "chip": "ym2612"
    },
    {
      "channel": 0,
      "note": 84,
      "start": 113.5837,
      "duration": 0.1438,
      "velocity": 127,
      "chip": "ym2612"
    },
    {
      "channel": 2,
      "note": 41,
      "start": 113.5983,
      "duration": 0.1628,
      "velocity": 117,
      "chip": "ym2612"
    },
    {
      "channel": 3,
      "note": 84,
      "start": 113.7638,
      "duration": 0.0137,
      "velocity": 86,
      "chip": "ym2612"
    },
    {
      "channel": 5,
      "note": 33,
      "start": 113.7671,
      "duration": 0.0106,
      "velocity": 113,
      "chip": "ym2612"
    },
    {
      "channel": 1,
      "note": 38,
      "start": 113.7699,
      "duration": 0.1431,
      "velocity": 117,
      "chip": "ym2612"
    },
    {
      "channel": 3,
      "note": 93,
      "start": 113.9305,
      "duration": 0.0305,
      "velocity": 86,
      "chip": "ym2612"
    },
    {
      "channel": 5,
      "note": 33,
      "start": 113.9333,
      "duration": 0.0279,
      "velocity": 113,
      "chip": "ym2612"
    },
    {
      "channel": 4,
      "note": 46,
      "start": 113.9363,
      "duration": 0.108,
      "velocity": 97,
      "chip": "ym2612"
    },
    {
      "channel": 0,
      "note": 53,
      "start": 113.9393,
      "duration": 0.0882,
      "velocity": 97,
      "chip": "ym2612"
    },
    {
      "channel": 1,
      "note": 31,
      "start": 113.948,
      "duration": 0.1295,
      "velocity": 117,
      "chip": "ym2612"
    },
    {
      "channel": 3,
      "note": 84,
      "start": 114.1138,
      "duration": 0.0304,
      "velocity": 86,
      "chip": "ym2612"
    },
    {
      "channel": 2,
      "note": 41,
      "start": 114.117,
      "duration": 0.094,
      "velocity": 114,
      "chip": "ym2612"
    },
    {
      "channel": 1,
      "note": 36,
      "start": 114.1205,
      "duration": 0.7403,
      "velocity": 117,
      "chip": "ym2612"
    },
    {
      "channel": 0,
      "note": 46,
      "start": 114.1233,
      "duration": 0.0708,
      "velocity": 97,
      "chip": "ym2612"
    },
    {
      "channel": 4,
      "note": 53,
      "start": 114.126,
      "duration": 0.0684,
      "velocity": 97,
      "chip": "ym2612"
    },
    {
      "channel": 3,
      "note": 91,
      "start": 114.2972,
      "duration": 0.0304,
      "velocity": 86,
      "chip": "ym2612"
    },
    {
      "channel": 2,
      "note": 48,
      "start": 114.3,
      "duration": 0.1111,
      "velocity": 114,
      "chip": "ym2612"
    },
    {
      "channel": 5,
      "note": 84,
      "start": 114.3032,
      "duration": 0.1746,
      "velocity": 127,
      "chip": "ym2612"
    },
    {
      "channel": 3,
      "note": 84,
      "start": 114.4806,
      "duration": 0.0303,
      "velocity": 86,
      "chip": "ym2612"
    },
    {
      "channel": 2,
      "note": 41,
      "start": 114.4834,
      "duration": 0.0609,
      "velocity": 114,
      "chip": "ym2612"
    },
    {
      "channel": 3,
      "note": 86,
      "start": 114.6638,
      "duration": 0.0161,
      "velocity": 86,
      "chip": "ym2612"
    },
    {
      "channel": 2,
      "note": 46,
      "start": 114.6666,
      "duration": 0.1111,
      "velocity": 114,
      "chip": "ym2612"
    },
    {
      "channel": 0,
      "note": 33,
      "start": 114.6692,
      "duration": 0.0105,
      "velocity": 113,
      "chip": "ym2612"
    },
    {
      "channel": 4,
      "note": 46,
      "start": 114.6726,
      "duration": 0.0718,
      "velocity": 97,
      "chip": "ym2612"
    },
    {
      "channel": 5,
      "note": 53,
      "start": 114.6754,
      "duration": 0.0691,
      "velocity": 97,
      "chip": "ym2612"
    },
    {
      "channel": 3,
      "note": 84,
      "start": 114.8326,
      "duration": 0.0284,
      "velocity": 86,
      "chip": "ym2612"
    },
    {
      "channel": 2,
      "note": 41,
      "start": 114.8354,
      "duration": 0.0924,
      "velocity": 114,
      "chip": "ym2612"
    },
    {
      "channel": 0,
      "note": 34,
      "start": 114.8387,
      "duration": 0.5388,
      "velocity": 117,
      "chip": "ym2612"
    },
    {
      "channel": 4,
      "note": 43,
      "start": 114.8417,
      "duration": 0.136,
      "velocity": 97,
      "chip": "ym2612"
    },
    {
      "channel": 5,
      "note": 53,
      "start": 114.8447,
      "duration": 0.083,
      "velocity": 97,
      "chip": "ym2612"
    },
    {
      "channel": 3,
      "note": 89,
      "start": 115.0142,
      "duration": 0.0301,
      "velocity": 86,
      "chip": "ym2612"
    },
    {
      "channel": 2,
      "note": 43,
      "start": 115.0169,
      "duration": 0.0941,
      "velocity": 114,
      "chip": "ym2612"
    },
    {
      "channel": 1,
      "note": 84,
      "start": 115.0201,
      "duration": 0.1242,
      "velocity": 127,
      "chip": "ym2612"
    },
    {
      "channel": 3,
      "note": 84,
      "start": 115.1971,
      "duration": 0.0305,
      "velocity": 86,
      "chip": "ym2612"
    },
    {
      "channel": 2,
      "note": 41,
      "start": 115.1999,
      "duration": 0.0778,
      "velocity": 114,
      "chip": "ym2612"
    },
    {
      "channel": 4,
      "note": 43,
      "start": 115.2031,
      "duration": 0.1747,
      "velocity": 97,
      "chip": "ym2612"
    },
    {
      "channel": 5,
      "note": 53,
      "start": 115.2059,
      "duration": 0.1384,
      "velocity": 97,
      "chip": "ym2612"
    },
    {
      "channel": 3,
      "note": 91,
      "start": 115.3807,
      "duration": 0.0304,
      "velocity": 86,
      "chip": "ym2612"
    },
    {
      "channel": 2,
      "note": 43,
      "start": 115.3836,
      "duration": 0.0441,
      "velocity": 114,
      "chip": "ym2612"
    },
    {
      "channel": 1,
      "note": 33,
      "start": 115.3875,
      "duration": 0.0234,
      "velocity": 113,
      "chip": "ym2612"
    },
    {
      "channel": 0,
      "note": 31,
      "start": 115.3904,
      "duration": 0.2538,
      "velocity": 117,
      "chip": "ym2612"
    },
    {
      "channel": 3,
      "note": 86,
      "start": 115.5638,
      "duration": 0.0304,
      "velocity": 86,
      "chip": "ym2612"
    },
    {
      "channel": 2,
      "note": 43,
      "start": 115.5671,
      "duration": 0.0773,
      "velocity": 114,
      "chip": "ym2612"
    },
    {
      "channel": 3,
      "note": 86,
      "start": 115.7472,
      "duration": 0.0138,
      "velocity": 86,
      "chip": "ym2612"
    },
    {
      "channel": 5,
      "note": 84,
      "start": 115.7514,
      "duration": 0.1429,
      "velocity": 127,
      "chip": "ym2612"
    },
    {
      "channel": 3,
      "note": 91,
      "start": 115.9138,
      "duration": 0.0305,
      "velocity": 86,
      "chip": "ym2612"
    },
    {
      "channel": 2,
      "note": 41,
      "start": 115.9166,
      "duration": 0.0945,
      "velocity": 114,
      "chip": "ym2612"
    },
    {
      "channel": 3,
      "note": 86,
      "start": 116.0972,
      "duration": 0.0305,
      "velocity": 86,
      "chip": "ym2612"
    },
    {
      "channel": 2,
      "note": 43,
      "start": 116.1001,
      "duration": 0.0965,
      "velocity": 114,
      "chip": "ym2612"
    },
    {
      "channel": 1,
      "note": 33,
      "start": 116.1026,
      "duration": 0.0249,
      "velocity": 113,
      "chip": "ym2612"
    },
    {
      "channel": 0,
      "note": 31,
      "start": 116.1056,
      "duration": 0.0718,
      "velocity": 117,
      "chip": "ym2612"
    },
    {
      "channel": 4,
      "note": 65,
      "start": 116.1089,
      "duration": 0.0521,
      "velocity": 97,
      "chip": "ym2612"
    },
    {
      "channel": 5,
      "note": 58,
      "start": 116.1119,
      "duration": 0.0492,
      "velocity": 97,
      "chip": "ym2612"
    },
    {
      "channel": 3,
      "note": 86,
      "start": 116.2805,
      "duration": 0.0304,
      "velocity": 86,
      "chip": "ym2612"
    },
    {
      "channel": 4,
      "note": 65,
      "start": 116.2836,
      "duration": 0.0607,
      "velocity": 97,
      "chip": "ym2612"
    },
    {
      "channel": 5,
      "note": 58,
      "start": 116.2866,
      "duration": 0.0745,
      "velocity": 97,
      "chip": "ym2612"
    },
    {
      "channel": 0,
      "note": 31,
      "start": 116.2979,
      "duration": 0.2129,
      "velocity": 117,
      "chip": "ym2612"
    },
    {
      "channel": 3,
      "note": 91,
      "start": 116.4638,
      "duration": 0.0305,
      "velocity": 86,
      "chip": "ym2612"
    },
    {
      "channel": 1,
      "note": 84,
      "start": 116.467,
      "duration": 0.1439,
      "velocity": 127,
      "chip": "ym2612"
    },
    {
      "channel": 2,
      "note": 41,
      "start": 116.4818,
      "duration": 0.1625,
      "velocity": 117,
      "chip": "ym2612"
    },
    {
      "channel": 3,
      "note": 86,
      "start": 116.6472,
      "duration": 0.0164,
      "velocity": 86,
      "chip": "ym2612"
    },
    {
      "channel": 4,
      "note": 33,
      "start": 116.65,
      "duration": 0.0137,
      "velocity": 113,
      "chip": "ym2612"
    },
    {
      "channel": 0,
      "note": 38,
      "start": 116.6528,
      "duration": 0.158,
      "velocity": 117,
      "chip": "ym2612"
    },
    {
      "channel": 5,
      "note": 65,
      "start": 116.656,
      "duration": 1.6217,
      "velocity": 97,
      "chip": "ym2612"
    },
    {
      "channel": 1,
      "note": 58,
      "start": 116.6594,
      "duration": 1.6349,
      "velocity": 97,
      "chip": "ym2612"
    },
    {
      "channel": 3,
      "note": 91,
      "start": 116.8162,
      "duration": 0.0281,
      "velocity": 86,
      "chip": "ym2612"
    },
    {
      "channel": 4,
      "note": 33,
      "start": 116.8189,
      "duration": 0.0255,
      "velocity": 113,
      "chip": "ym2612"
    },
    {
      "channel": 0,
      "note": 31,
      "start": 116.8219,
      "duration": 0.289,
      "velocity": 117,
      "chip": "ym2612"
    },
    {
      "channel": 3,
      "note": 86,
      "start": 116.9972,
      "duration": 0.0304,
      "velocity": 86,
      "chip": "ym2612"
    },
    {
      "channel": 2,
      "note": 41,
      "start": 117.0001,
      "duration": 0.0943,
      "velocity": 114,
      "chip": "ym2612"
    },
    {
      "channel": 3,
      "note": 93,
      "start": 117.1805,
      "duration": 0.0304,
      "velocity": 86,
      "chip": "ym2612"
    },
    {
      "channel": 2,
      "note": 43,
      "start": 117.1833,
      "duration": 0.1111,
      "velocity": 114,
      "chip": "ym2612"
    },
    {
      "channel": 4,
      "note": 84,
      "start": 117.1876,
      "duration": 0.1733,
      "velocity": 127,
      "chip": "ym2612"
    },
    {
      "channel": 3,
      "note": 86,
      "start": 117.3639,
      "duration": 0.0303,
      "velocity": 86,
      "chip": "ym2612"
    },
    {
      "channel": 2,
      "note": 41,
      "start": 117.3666,
      "duration": 0.0466,
      "velocity": 114,
      "chip": "ym2612"
    },
    {
      "channel": 3,
      "note": 94,
      "start": 117.5473,
      "duration": 0.0184,
      "velocity": 86,
      "chip": "ym2612"
    },
    {
      "channel": 2,
      "note": 46,
      "start": 117.5501,
      "duration": 0.061,
      "velocity": 114,
      "chip": "ym2612"
    },
    {
      "channel": 0,
      "note": 33,
      "start": 117.5527,
      "duration": 0.0129,
      "velocity": 113,
      "chip": "ym2612"
    },
    {
      "channel": 3,
      "note": 86,
      "start": 117.7144,
      "duration": 0.0298,
      "velocity": 86,
      "chip": "ym2612"
    },
    {
      "channel": 4,
      "note": 34,
      "start": 117.7178,
      "duration": 0.5431,
      "velocity": 117,
      "chip": "ym2612"
    },
    {
      "channel": 2,
      "note": 46,
      "start": 117.7313,
      "duration": 0.0964,
      "velocity": 114,
      "chip": "ym2612"
    },
    {
      "channel": 3,
      "note": 93,
      "start": 117.8975,
      "duration": 0.0301,
      "velocity": 86,
      "chip": "ym2612"
    },
    {
      "channel": 2,
      "note": 43,
      "start": 117.9004,
      "duration": 0.044,
      "velocity": 114,
      "chip": "ym2612"
    },
    {
      "channel": 0,
      "note": 84,
      "start": 117.9047,
      "duration": 0.1249,
      "velocity": 127,
      "chip": "ym2612"
    },
    {
      "channel": 3,
      "note": 86,
      "start": 118.0805,
      "duration": 0.0304,
      "velocity": 86,
      "chip": "ym2612"
    },
    {
      "channel": 3,
      "note": 91,
      "start": 118.2639,
      "duration": 0.0306,
      "velocity": 86,
      "chip": "ym2612"
    },
    {
      "channel": 2,
      "note": 43,
      "start": 118.2666,
      "duration": 0.0444,
      "velocity": 114,
      "chip": "ym2612"
    },
    {
      "channel": 0,
      "note": 33,
      "start": 118.2692,
      "duration": 0.0249,
      "velocity": 113,
      "chip": "ym2612"
    },
    {
      "channel": 4,
      "note": 31,
      "start": 118.2815,
      "duration": 0.3128,
      "velocity": 117,
      "chip": "ym2612"
    },
    {
      "channel": 3,
      "note": 84,
      "start": 118.4471,
      "duration": 0.0305,
      "velocity": 86,
      "chip": "ym2612"
    },
    {
      "channel": 2,
      "note": 43,
      "start": 118.4501,
      "duration": 0.0776,
      "velocity": 114,
      "chip": "ym2612"
    },
    {
      "channel": 3,
      "note": 84,
      "start": 118.6305,
      "duration": 0.0137,
      "velocity": 86,
      "chip": "ym2612"
    },
    {
      "channel": 5,
      "note": 84,
      "start": 118.6346,
      "duration": 0.1431,
      "velocity": 127,
      "chip": "ym2612"
    },
    {
      "channel": 3,
      "note": 91,
      "start": 118.7994,
      "duration": 0.0283,
      "velocity": 86,
      "chip": "ym2612"
    },
    {
      "channel": 2,
      "note": 41,
      "start": 118.8023,
      "duration": 0.1254,
      "velocity": 114,
      "chip": "ym2612"
    },
    {
      "channel": 3,
      "note": 84,
      "start": 118.9805,
      "duration": 0.0305,
      "velocity": 86,
      "chip": "ym2612"
    },
    {
      "channel": 2,
      "note": 43,
      "start": 118.9834,
      "duration": 0.111,
      "velocity": 114,
      "chip": "ym2612"
    },
    {
      "channel": 0,
      "note": 33,
      "start": 118.9859,
      "duration": 0.025,
      "velocity": 113,
      "chip": "ym2612"
    },
    {
      "channel": 4,
      "note": 31,
      "start": 118.989,
      "duration": 0.072,
      "velocity": 117,
      "chip": "ym2612"
    },
    {
      "channel": 1,
      "note": 58,
      "start": 118.9919,
      "duration": 0.1046,
      "velocity": 97,
      "chip": "ym2612"
    },
    {
      "channel": 5,
      "note": 65,
      "start": 118.9949,
      "duration": 0.1017,
      "velocity": 97,
      "chip": "ym2612"
    },
    {
      "channel": 4,
      "note": 31,
      "start": 119.1484,
      "duration": 0.2293,
      "velocity": 117,
      "chip": "ym2612"
    },
    {
      "channel": 3,
      "note": 84,
      "start": 119.1638,
      "duration": 0.0305,
      "velocity": 86,
      "chip": "ym2612"
    },
    {
      "channel": 1,
      "note": 65,
      "start": 119.167,
      "duration": 0.0794,
      "velocity": 97,
      "chip": "ym2612"
    },
    {
      "channel": 5,
      "note": 62,
      "start": 119.1699,
      "duration": 0.0412,
      "velocity": 97,
      "chip": "ym2612"
    },
    {
      "channel": 3,
      "note": 94,
      "start": 119.3472,
      "duration": 0.0305,
      "velocity": 86,
      "chip": "ym2612"
    },
    {
      "channel": 0,
      "note": 41,
      "start": 119.3506,
      "duration": 0.1436,
      "velocity": 117,
      "chip": "ym2612"
    },
    {
      "channel": 2,
      "note": 84,
      "start": 119.3535,
      "duration": 0.141,
      "velocity": 127,
      "chip": "ym2612"
    },
    {
      "channel": 3,
      "note": 84,
      "start": 119.5305,
      "duration": 0.0165,
      "velocity": 86,
      "chip": "ym2612"
    },
    {
      "channel": 5,
      "note": 33,
      "start": 119.5337,
      "duration": 0.0134,
      "velocity": 113,
      "chip": "ym2612"
    },
    {
      "channel": 0,
      "note": 38,
      "start": 119.5367,
      "duration": 0.1596,
      "velocity": 117,
      "chip": "ym2612"
    },
    {
      "channel": 1,
      "note": 60,
      "start": 119.5399,
      "duration": 0.5209,
      "velocity": 97,
      "chip": "ym2612"
    },
    {
      "channel": 4,
      "note": 65,
      "start": 119.5428,
      "duration": 0.3683,
      "velocity": 97,
      "chip": "ym2612"
    },
    {
      "channel": 3,
      "note": 93,
      "start": 119.6994,
      "duration": 0.0282,
      "velocity": 86,
      "chip": "ym2612"
    },
    {
      "channel": 5,
      "note": 33,
      "start": 119.7021,
      "duration": 0.0256,
      "velocity": 113,
      "chip": "ym2612"
    },
    {
      "channel": 0,
      "note": 31,
      "start": 119.7146,
      "duration": 0.2795,
      "velocity": 117,
      "chip": "ym2612"
    },
    {
      "channel": 3,
      "note": 84,
      "start": 119.8809,
      "duration": 0.0301,
      "velocity": 86,
      "chip": "ym2612"
    },
    {
      "channel": 2,
      "note": 48,
      "start": 119.8842,
      "duration": 0.1436,
      "velocity": 114,
      "chip": "ym2612"
    },
    {
      "channel": 3,
      "note": 89,
      "start": 120.0639,
      "duration": 0.0303,
      "velocity": 86,
      "chip": "ym2612"
    },
    {
      "channel": 2,
      "note": 43,
      "start": 120.0667,
      "duration": 0.0944,
      "velocity": 114,
      "chip": "ym2612"
    },
    {
      "channel": 1,
      "note": 58,
      "start": 120.0698,
      "duration": 0.0744,
      "velocity": 97,
      "chip": "ym2612"
    },
    {
      "channel": 4,
      "note": 65,
      "start": 120.0726,
      "duration": 0.0551,
      "velocity": 97,
      "chip": "ym2612"
    },
    {
      "channel": 5,
      "note": 84,
      "start": 120.0755,
      "duration": 0.1689,
      "velocity": 127,
      "chip": "ym2612"
    },
    {
      "channel": 3,
      "note": 84,
      "start": 120.2472,
      "duration": 0.0303,
      "velocity": 86,
      "chip": "ym2612"
    },
    {
      "channel": 2,
      "note": 46,
      "start": 120.2502,
      "duration": 0.0631,
      "velocity": 114,
      "chip": "ym2612"
    },
    {
      "channel": 3,
      "note": 91,
      "start": 120.4305,
      "duration": 0.0305,
      "velocity": 86,
      "chip": "ym2612"
    },
    {
      "channel": 0,
      "note": 33,
      "start": 120.4332,
      "duration": 0.0276,
      "velocity": 113,
      "chip": "ym2612"
    },
    {
      "channel": 1,
      "note": 55,
      "start": 120.436,
      "duration": 0.0415,
      "velocity": 97,
      "chip": "ym2612"
    },
    {
      "channel": 4,
      "note": 65,
      "start": 120.4392,
      "duration": 0.0551,
      "velocity": 97,
      "chip": "ym2612"
    },
    {
      "channel": 3,
      "note": 84,
      "start": 120.6138,
      "duration": 0.0159,
      "velocity": 86,
      "chip": "ym2612"
    },
    {
      "channel": 2,
      "note": 46,
      "start": 120.6167,
      "duration": 0.0777,
      "velocity": 114,
      "chip": "ym2612"
    },
    {
      "channel": 5,
      "note": 36,
      "start": 120.6201,
      "duration": 0.5076,
      "velocity": 117,
      "chip": "ym2612"
    },
    {
      "channel": 1,
      "note": 58,
      "start": 120.6229,
      "duration": 0.0879,
      "velocity": 97,
      "chip": "ym2612"
    },
    {
      "channel": 4,
      "note": 65,
      "start": 120.6256,
      "duration": 0.0854,
      "velocity": 97,
      "chip": "ym2612"
    },
    {
      "channel": 3,
      "note": 84,
      "start": 120.7805,
      "duration": 0.0303,
      "velocity": 86,
      "chip": "ym2612"
    },
    {
      "channel": 2,
      "note": 43,
      "start": 120.7833,
      "duration": 0.1468,
      "velocity": 114,
      "chip": "ym2612"
    },
    {
      "channel": 0,
      "note": 84,
      "start": 120.7865,
      "duration": 0.1411,
      "velocity": 127,
      "chip": "ym2612"
    },
    {
      "channel": 3,
      "note": 84,
      "start": 120.9638,
      "duration": 0.0305,
      "velocity": 86,
      "chip": "ym2612"
    },
    {
      "channel": 2,
      "note": 41,
      "start": 120.9666,
      "duration": 0.0945,
      "velocity": 114,
      "chip": "ym2612"
    },
    {
      "channel": 1,
      "note": 31,
      "start": 121.1152,
      "duration": 0.4123,
      "velocity": 117,
      "chip": "ym2612"
    },
    {
      "channel": 3,
      "note": 91,
      "start": 121.1472,
      "duration": 0.0305,
      "velocity": 86,
      "chip": "ym2612"
    },
    {
      "channel": 2,
      "note": 43,
      "start": 121.1499,
      "duration": 0.0778,
      "velocity": 114,
      "chip": "ym2612"
    },
    {
      "channel": 4,
      "note": 33,
      "start": 121.1539,
      "duration": 0.0239,
      "velocity": 113,
      "chip": "ym2612"
    },
    {
      "channel": 3,
      "note": 86,
      "start": 121.3304,
      "duration": 0.0305,
      "velocity": 86,
      "chip": "ym2612"
    },
    {
      "channel": 2,
      "note": 43,
      "start": 121.3337,
      "duration": 0.0774,
      "velocity": 114,
      "chip": "ym2612"
    },
    {
      "channel": 0,
      "note": 46,
      "start": 121.3371,
      "duration": 0.0738,
      "velocity": 97,
      "chip": "ym2612"
    },
    {
      "channel": 5,
      "note": 53,
      "start": 121.34,
      "duration": 0.0399,
      "velocity": 97,
      "chip": "ym2612"
    },
    {
      "channel": 3,
      "note": 86,
      "start": 121.5138,
      "duration": 0.016,
      "velocity": 86,
      "chip": "ym2612"
    },
    {
      "channel": 4,
      "note": 84,
      "start": 121.518,
      "duration": 0.1429,
      "velocity": 127,
      "chip": "ym2612"
    },
    {
      "channel": 3,
      "note": 91,
      "start": 121.6826,
      "duration": 0.0282,
      "velocity": 86,
      "chip": "ym2612"
    },
    {
      "channel": 2,
      "note": 41,
      "start": 121.6855,
      "duration": 0.0588,
      "velocity": 114,
      "chip": "ym2612"
    },
    {
      "channel": 1,
      "note": 31,
      "start": 121.8479,
      "duration": 0.0796,
      "velocity": 117,
      "chip": "ym2612"
    },
    {
      "channel": 3,
      "note": 86,
      "start": 121.8638,
      "duration": 0.0304,
      "velocity": 86,
      "chip": "ym2612"
    },
    {
      "channel": 2,
      "note": 43,
      "start": 121.8668,
      "duration": 0.111,
      "velocity": 114,
      "chip": "ym2612"
    },
    {
      "channel": 5,
      "note": 33,
      "start": 121.8695,
      "duration": 0.0249,
      "velocity": 113,
      "chip": "ym2612"
    },
    {
      "channel": 0,
      "note": 46,
      "start": 121.8724,
      "duration": 0.0717,
      "velocity": 97,
      "chip": "ym2612"
    },
    {
      "channel": 4,
      "note": 53,
      "start": 121.8757,
      "duration": 0.052,
      "velocity": 97,
      "chip": "ym2612"
    },
    {
      "channel": 3,
      "note": 86,
      "start": 122.0472,
      "duration": 0.0303,
      "velocity": 86,
      "chip": "ym2612"
    },
    {
      "channel": 1,
      "note": 31,
      "start": 122.0504,
      "duration": 0.2272,
      "velocity": 117,
      "chip": "ym2612"
    },
    {
      "channel": 0,
      "note": 53,
      "start": 122.0532,
      "duration": 0.0742,
      "velocity": 97,
      "chip": "ym2612"
    },
    {
      "channel": 4,
      "note": 46,
      "start": 122.056,
      "duration": 0.0905,
      "velocity": 97,
      "chip": "ym2612"
    },
    {
      "channel": 3,
      "note": 86,
      "start": 122.2305,
      "duration": 0.0304,
      "velocity": 86,
      "chip": "ym2612"
    },
    {
      "channel": 5,
      "note": 41,
      "start": 122.2339,
      "duration": 0.1437,
      "velocity": 117,
      "chip": "ym2612"
    },
    {
      "channel": 2,
      "note": 84,
      "start": 122.2368,
      "duration": 0.141,
      "velocity": 127,
      "chip": "ym2612"
    },
    {
      "channel": 1,
      "note": 38,
      "start": 122.398,
      "duration": 0.1795,
      "velocity": 117,
      "chip": "ym2612"
    },
    {
      "channel": 3,
      "note": 86,
      "start": 122.4139,
      "duration": 0.0305,
      "velocity": 86,
      "chip": "ym2612"
    },
    {
      "channel": 0,
      "note": 33,
      "start": 122.4168,
      "duration": 0.0274,
      "velocity": 113,
      "chip": "ym2612"
    },
    {
      "channel": 4,
      "note": 46,
      "start": 122.4199,
      "duration": 1.0744,
      "velocity": 97,
      "chip": "ym2612"
    },
    {
      "channel": 5,
      "note": 53,
      "start": 122.423,
      "duration": 1.2047,
      "velocity": 97,
      "chip": "ym2612"
    },
    {
      "channel": 3,
      "note": 91,
      "start": 122.5972,
      "duration": 0.0139,
      "velocity": 86,
      "chip": "ym2612"
    },
    {
      "channel": 0,
      "note": 33,
      "start": 122.5997,
      "duration": 0.0111,
      "velocity": 113,
      "chip": "ym2612"
    },
    {
      "channel": 1,
      "note": 31,
      "start": 122.6031,
      "duration": 0.2911,
      "velocity": 117,
      "chip": "ym2612"
    },
    {
      "channel": 3,
      "note": 86,
      "start": 122.7641,
      "duration": 0.0301,
      "velocity": 86,
      "chip": "ym2612"
    },
    {
      "channel": 2,
      "note": 41,
      "start": 122.767,
      "duration": 0.1107,
      "velocity": 114,
      "chip": "ym2612"
    },
    {
      "channel": 3,
      "note": 93,
      "start": 122.9472,
      "duration": 0.0305,
      "velocity": 86,
      "chip": "ym2612"
    },
    {
      "channel": 2,
      "note": 43,
      "start": 122.9498,
      "duration": 0.1112,
      "velocity": 114,
      "chip": "ym2612"
    },
    {
      "channel": 0,
      "note": 84,
      "start": 122.9545,
      "duration": 0.1729,
      "velocity": 127,
      "chip": "ym2612"
    },
    {
      "channel": 3,
      "note": 86,
      "start": 123.1306,
      "duration": 0.0303,
      "velocity": 86,
      "chip": "ym2612"
    },
    {
      "channel": 2,
      "note": 41,
      "start": 123.1334,
      "duration": 0.0799,
      "velocity": 114,
      "chip": "ym2612"
    },
    {
      "channel": 3,
      "note": 94,
      "start": 123.3138,
      "duration": 0.0305,
      "velocity": 86,
      "chip": "ym2612"
    },
    {
      "channel": 2,
      "note": 46,
      "start": 123.3166,
      "duration": 0.0611,
      "velocity": 114,
      "chip": "ym2612"
    },
    {
      "channel": 1,
      "note": 33,
      "start": 123.3192,
      "duration": 0.0249,
      "velocity": 113,
      "chip": "ym2612"
    },
    {
      "channel": 0,
      "note": 34,
      "start": 123.4816,
      "duration": 0.5626,
      "velocity": 117,
      "chip": "ym2612"
    },
    {
      "channel": 3,
      "note": 86,
      "start": 123.4973,
      "duration": 0.0159,
      "velocity": 86,
      "chip": "ym2612"
    },
    {
      "channel": 2,
      "note": 46,
      "start": 123.5004,
      "duration": 0.094,
      "velocity": 114,
      "chip": "ym2612"
    },
    {
      "channel": 3,
      "note": 91,
      "start": 123.666,
      "duration": 0.0283,
      "velocity": 86,
      "chip": "ym2612"
    },
    {
      "channel": 2,
      "note": 43,
      "start": 123.6686,
      "duration": 0.1091,
      "velocity": 114,
      "chip": "ym2612"
    },
    {
      "channel": 1,
      "note": 84,
      "start": 123.6724,
      "duration": 0.1385,
      "velocity": 127,
      "chip": "ym2612"
    },
    {
      "channel": 3,
      "note": 86,
      "start": 123.8472,
      "duration": 0.0303,
      "velocity": 86,
      "chip": "ym2612"
    },
    {
      "channel": 2,
      "note": 41,
      "start": 123.85,
      "duration": 0.0444,
      "velocity": 114,
      "chip": "ym2612"
    },
    {
      "channel": 3,
      "note": 91,
      "start": 124.0305,
      "duration": 0.0305,
      "velocity": 86,
      "chip": "ym2612"
    },
    {
      "channel": 2,
      "note": 43,
      "start": 124.0331,
      "duration": 0.0446,
      "velocity": 114,
      "chip": "ym2612"
    },
    {
      "channel": 4,
      "note": 33,
      "start": 124.0357,
      "duration": 0.0254,
      "velocity": 113,
      "chip": "ym2612"
    },
    {
      "channel": 5,
      "note": 36,
      "start": 124.039,
      "duration": 0.3387,
      "velocity": 117,
      "chip": "ym2612"
    },
    {
      "channel": 3,
      "note": 84,
      "start": 124.2139,
      "duration": 0.0303,
      "velocity": 86,
      "chip": "ym2612"
    },
    {
      "channel": 2,
      "note": 43,
      "start": 124.2168,
      "duration": 0.063,
      "velocity": 114,
      "chip": "ym2612"
    },
    {
      "channel": 1,
      "note": 65,
      "start": 124.2206,
      "duration": 1.2569,
      "velocity": 97,
      "chip": "ym2612"
    },
    {
      "channel": 0,
      "note": 58,
      "start": 124.2237,
      "duration": 1.2371,
      "velocity": 97,
      "chip": "ym2612"
    },
    {
      "channel": 3,
      "note": 84,
      "start": 124.3971,
      "duration": 0.0305,
      "velocity": 86,
      "chip": "ym2612"
    },
    {
      "channel": 4,
      "note": 84,
      "start": 124.4013,
      "duration": 0.1431,
      "velocity": 127,
      "chip": "ym2612"
    },
    {
      "channel": 3,
      "note": 91,
      "start": 124.5805,
      "duration": 0.0137,
      "velocity": 86,
      "chip": "ym2612"
    },
    {
      "channel": 2,
      "note": 41,
      "start": 124.5834,
      "duration": 0.0943,
      "velocity": 114,
      "chip": "ym2612"
    },
    {
      "channel": 3,
      "note": 84,
      "start": 124.747,
      "duration": 0.0305,
      "velocity": 86,
      "chip": "ym2612"
    },
    {
      "channel": 2,
      "note": 43,
      "start": 124.75,
      "duration": 0.0779,
      "velocity": 114,
      "chip": "ym2612"
    },
    {
      "channel": 5,
      "note": 33,
      "start": 124.7528,
      "duration": 0.025,
      "velocity": 113,
      "chip": "ym2612"
    },
    {
      "channel": 4,
      "note": 36,
      "start": 124.7648,
      "duration": 0.0629,
      "velocity": 117,
      "chip": "ym2612"
    },
    {
      "channel": 3,
      "note": 84,
      "start": 124.9305,
      "duration": 0.0304,
      "velocity": 86,
      "chip": "ym2612"
    },
    {
      "channel": 4,
      "note": 36,
      "start": 124.9481,
      "duration": 0.2795,
      "velocity": 117,
      "chip": "ym2612"
    },
    {
      "channel": 3,
      "note": 94,
      "start": 125.1139,
      "duration": 0.0303,
      "velocity": 86,
      "chip": "ym2612"
    },
    {
      "channel": 5,
      "note": 84,
      "start": 125.1171,
      "duration": 0.144,
      "velocity": 127,
      "chip": "ym2612"
    },
    {
      "channel": 3,
      "note": 84,
      "start": 125.2812,
      "duration": 0.0464,
      "velocity": 86,
      "chip": "ym2612"
    },
    {
      "channel": 2,
      "note": 33,
      "start": 125.298,
      "duration": 0.0298,
      "velocity": 113,
      "chip": "ym2612"
    },
    {
      "channel": 3,
      "note": 93,
      "start": 125.4808,
      "duration": 0.0156,
      "velocity": 86,
      "chip": "ym2612"
    },
    {
      "channel": 2,
      "note": 33,
      "start": 125.4837,
      "duration": 0.0129,
      "velocity": 113,
      "chip": "ym2612"
    },
    {
      "channel": 4,
      "note": 36,
      "start": 125.4867,
      "duration": 0.2243,
      "velocity": 117,
      "chip": "ym2612"
    },
    {
      "channel": 3,
      "note": 84,
      "start": 125.6493,
      "duration": 0.0282,
      "velocity": 86,
      "chip": "ym2612"
    },
    {
      "channel": 5,
      "note": 41,
      "start": 125.6526,
      "duration": 0.0917,
      "velocity": 114,
      "chip": "ym2612"
    },
    {
      "channel": 3,
      "note": 89,
      "start": 125.8304,
      "duration": 0.0304,
      "velocity": 86,
      "chip": "ym2612"
    },
    {
      "channel": 5,
      "note": 46,
      "start": 125.8332,
      "duration": 0.1134,
      "velocity": 114,
      "chip": "ym2612"
    },
    {
      "channel": 0,
      "note": 84,
      "start": 125.8363,
      "duration": 0.1745,
      "velocity": 127,
      "chip": "ym2612"
    },
    {
      "channel": 4,
      "note": 34,
      "start": 125.9985,
      "duration": 0.9124,
      "velocity": 117,
      "chip": "ym2612"
    },
    {
      "channel": 3,
      "note": 84,
      "start": 126.0139,
      "duration": 0.0304,
      "velocity": 86,
      "chip": "ym2612"
    },
    {
      "channel": 5,
      "note": 41,
      "start": 126.0166,
      "duration": 0.08,
      "velocity": 114,
      "chip": "ym2612"
    },
    {
      "channel": 3,
      "note": 91,
      "start": 126.1971,
      "duration": 0.0305,
      "velocity": 86,
      "chip": "ym2612"
    },
    {
      "channel": 5,
      "note": 48,
      "start": 126.1998,
      "duration": 0.0636,
      "velocity": 114,
      "chip": "ym2612"
    },
    {
      "channel": 2,
      "note": 33,
      "start": 126.2024,
      "duration": 0.0254,
      "velocity": 113,
      "chip": "ym2612"
    },
    {
      "channel": 1,
      "note": 65,
      "start": 126.2054,
      "duration": 0.0578,
      "velocity": 97,
      "chip": "ym2612"
    },
    {
      "channel": 0,
      "note": 58,
      "start": 126.2082,
      "duration": 0.0548,
      "velocity": 97,
      "chip": "ym2612"
    },
    {
      "channel": 3,
      "note": 84,
      "start": 126.3806,
      "duration": 0.0304,
      "velocity": 86,
      "chip": "ym2612"
    },
    {
      "channel": 5,
      "note": 48,
      "start": 126.3832,
      "duration": 0.0944,
      "velocity": 114,
      "chip": "ym2612"
    },
    {
      "channel": 0,
      "note": 65,
      "start": 126.3863,
      "duration": 0.2078,
      "velocity": 97,
      "chip": "ym2612"
    },
    {
      "channel": 1,
      "note": 58,
      "start": 126.3894,
      "duration": 0.1882,
      "velocity": 97,
      "chip": "ym2612"
    },
    {
      "channel": 3,
      "note": 84,
      "start": 126.5638,
      "duration": 0.0139,
      "velocity": 86,
      "chip": "ym2612"
    },
    {
      "channel": 5,
      "note": 46,
      "start": 126.5664,
      "duration": 0.0779,
      "velocity": 114,
      "chip": "ym2612"
    },
    {
      "channel": 2,
      "note": 84,
      "start": 126.5696,
      "duration": 0.1247,
      "velocity": 127,
      "chip": "ym2612"
    },
    {
      "channel": 3,
      "note": 84,
      "start": 126.7304,
      "duration": 0.0305,
      "velocity": 86,
      "chip": "ym2612"
    },
    {
      "channel": 5,
      "note": 41,
      "start": 126.7331,
      "duration": 0.0779,
      "velocity": 114,
      "chip": "ym2612"
    },
    {
      "channel": 3,
      "note": 93,
      "start": 126.9163,
      "duration": 0.3652,
      "velocity": 86,
      "chip": "ym2612"
    },
    {
      "channel": 1,
      "note": 33,
      "start": 126.9216,
      "duration": 0.0226,
      "velocity": 113,
      "chip": "ym2612"
    },
    {
      "channel": 4,
      "note": 33,
      "start": 126.9257,
      "duration": 0.1685,
      "velocity": 117,
      "chip": "ym2612"
    },
    {
      "channel": 0,
      "note": 57,
      "start": 127.2811,
      "duration": 0.0004,
      "velocity": 94,
      "chip": "ym2612"
    }
  ]
}