{
  "track_name": "05 - Mischief",
  "duration_sec": 38.66,
  "sample_rate": 44100,
  "note_count": 529,
  "unique_pitches": 64,
  "pitch_range": 63,
  "avg_note_duration": 0.3526,
  "reconstruction_stats": {
    "notes_reconstructed": 529,
    "keyon_events": 529,
    "keyoff_events": 524,
    "orphan_keyons": 5,
    "unique_pitches": 64,
    "pitch_range": 63,
    "avg_duration_sec": 0.3526
  },
  "metadata": {
    "source": "P\\Pac-Man 2 - The New Adventures\\05 - Mischief.vgz"
  },
  "notes": [
    {
      "channel": 0,
      "note": 53,
      "start": 0.0,
      "duration": 0.2585,
      "velocity": 95,
      "chip": "ym2612"
    },
    {
      "channel": 1,
      "note": 47,
      "start": 0.0019,
      "duration": 0.391,
      "velocity": 116,
      "chip": "ym2612"
    },
    {
      "channel": 2,
      "note": 64,
      "start": 0.0085,
      "duration": 0.252,
      "velocity": 94,
      "chip": "ym2612"
    },
    {
      "channel": 3,
      "note": 47,
      "start": 0.0135,
      "duration": 0.7814,
      "velocity": 92,
      "chip": "ym2612"
    },
    {
      "channel": 4,
      "note": 80,
      "start": 0.0185,
      "duration": 0.2439,
      "velocity": 81,
      "chip": "ym2612"
    },
    {
      "channel": 0,
      "note": 64,
      "start": 0.2585,
      "duration": 0.1333,
      "velocity": 95,
      "chip": "ym2612"
    },
    {
      "channel": 2,
      "note": 64,
      "start": 0.2605,
      "duration": 0.1333,
      "velocity": 94,
      "chip": "ym2612"
    },
    {
      "channel": 4,
      "note": 88,
      "start": 0.2624,
      "duration": 0.1333,
      "velocity": 81,
      "chip": "ym2612"
    },
    {
      "channel": 0,
      "note": 67,
      "start": 0.3919,
      "duration": 0.3998,
      "velocity": 95,
      "chip": "ym2612"
    },
    {
      "channel": 1,
      "note": 47,
      "start": 0.3929,
      "duration": 0.3999,
      "velocity": 116,
      "chip": "ym2612"
    },
    {
      "channel": 2,
      "note": 64,
      "start": 0.3939,
      "duration": 0.1328,
      "velocity": 94,
      "chip": "ym2612"
    },
    {
      "channel": 4,
      "note": 91,
      "start": 0.3959,
      "duration": 0.4,
      "velocity": 81,
      "chip": "ym2612"
    },
    {
      "channel": 2,
      "note": 64,
      "start": 0.5267,
      "duration": 0.1335,
      "velocity": 94,
      "chip": "ym2612"
    },
    {
      "channel": 2,
      "note": 64,
      "start": 0.6602,
      "duration": 0.1337,
      "velocity": 94,
      "chip": "ym2612"
    },
    {
      "channel": 1,
      "note": 46,
      "start": 0.7928,
      "duration": 0.8041,
      "velocity": 116,
      "chip": "ym2612"
    },
    {
      "channel": 2,
      "note": 63,
      "start": 0.7939,
      "duration": 0.2704,
      "velocity": 94,
      "chip": "ym2612"
    },
    {
      "channel": 3,
      "note": 42,
      "start": 0.7949,
      "duration": 0.8041,
      "velocity": 92,
      "chip": "ym2612"
    },
    {
      "channel": 0,
      "note": 58,
      "start": 1.0624,
      "duration": 0.3959,
      "velocity": 74,
      "chip": "ym2612"
    },
    {
      "channel": 2,
      "note": 63,
      "start": 1.0643,
      "duration": 0.129,
      "velocity": 94,
      "chip": "ym2612"
    },
    {
      "channel": 4,
      "note": 64,
      "start": 1.0703,
      "duration": 0.3919,
      "velocity": 94,
      "chip": "ym2612"
    },
    {
      "channel": 2,
      "note": 63,
      "start": 1.1933,
      "duration": 0.2669,
      "velocity": 94,
      "chip": "ym2612"
    },
    {
      "channel": 0,
      "note": 54,
      "start": 1.4584,
      "duration": 0.1329,
      "velocity": 74,
      "chip": "ym2612"
    },
    {
      "channel": 2,
      "note": 63,
      "start": 1.4602,
      "duration": 0.1377,
      "velocity": 94,
      "chip": "ym2612"
    },
    {
      "channel": 4,
      "note": 54,
      "start": 1.4622,
      "duration": 0.1372,
      "velocity": 94,
      "chip": "ym2612"
    },
    {
      "channel": 0,
      "note": 67,
      "start": 1.5959,
      "duration": 0.2625,
      "velocity": 95,
      "chip": "ym2612"
    },
    {
      "channel": 1,
      "note": 45,
      "start": 1.5969,
      "duration": 0.3959,
      "velocity": 116,
      "chip": "ym2612"
    },
    {
      "channel": 2,
      "note": 62,
      "start": 1.598,
      "duration": 0.2624,
      "velocity": 94,
      "chip": "ym2612"
    },
    {
      "channel": 3,
      "note": 47,
      "start": 1.599,
      "duration": 0.6624,
      "velocity": 92,
      "chip": "ym2612"
    },
    {
      "channel": 4,
      "note": 39,
      "start": 1.606,
      "duration": 0.2564,
      "velocity": 116,
      "chip": "ym2612"
    },
    {
      "channel": 0,
      "note": 67,
      "start": 1.8584,
      "duration": 0.1334,
      "velocity": 95,
      "chip": "ym2612"
    },
    {
      "channel": 2,
      "note": 62,
      "start": 1.8604,
      "duration": 0.1334,
      "velocity": 94,
      "chip": "ym2612"
    },
    {
      "channel": 4,
      "note": 31,
      "start": 1.8623,
      "duration": 0.1334,
      "velocity": 116,
      "chip": "ym2612"
    },
    {
      "channel": 0,
      "note": 67,
      "start": 1.9918,
      "duration": 0.4,
      "velocity": 95,
      "chip": "ym2612"
    },
    {
      "channel": 1,
      "note": 45,
      "start": 1.9928,
      "duration": 0.4,
      "velocity": 116,
      "chip": "ym2612"
    },
    {
      "channel": 2,
      "note": 62,
      "start": 1.9937,
      "duration": 0.133,
      "velocity": 94,
      "chip": "ym2612"
    },
    {
      "channel": 4,
      "note": 31,
      "start": 1.9957,
      "duration": 0.6741,
      "velocity": 116,
      "chip": "ym2612"
    },
    {
      "channel": 2,
      "note": 62,
      "start": 2.1267,
      "duration": 0.1337,
      "velocity": 94,
      "chip": "ym2612"
    },
    {
      "channel": 2,
      "note": 62,
      "start": 2.2604,
      "duration": 0.1335,
      "velocity": 94,
      "chip": "ym2612"
    },
    {
      "channel": 3,
      "note": 44,
      "start": 2.2614,
      "duration": 0.4034,
      "velocity": 92,
      "chip": "ym2612"
    },
    {
      "channel": 1,
      "note": 46,
      "start": 2.3929,
      "duration": 0.2707,
      "velocity": 116,
      "chip": "ym2612"
    },
    {
      "channel": 2,
      "note": 63,
      "start": 2.3939,
      "duration": 0.2705,
      "velocity": 94,
      "chip": "ym2612"
    },
    {
      "channel": 0,
      "note": 68,
      "start": 2.6627,
      "duration": 0.329,
      "velocity": 103,
      "chip": "ym2612"
    },
    {
      "channel": 1,
      "note": 46,
      "start": 2.6635,
      "duration": 0.5335,
      "velocity": 116,
      "chip": "ym2612"
    },
    {
      "channel": 2,
      "note": 63,
      "start": 2.6645,
      "duration": 0.1289,
      "velocity": 94,
      "chip": "ym2612"
    },
    {
      "channel": 3,
      "note": 42,
      "start": 2.6695,
      "duration": 0.3249,
      "velocity": 103,
      "chip": "ym2612"
    },
    {
      "channel": 4,
      "note": 55,
      "start": 2.6761,
      "duration": 0.3193,
      "velocity": 100,
      "chip": "ym2612"
    },
    {
      "channel": 2,
      "note": 63,
      "start": 2.7934,
      "duration": 0.267,
      "velocity": 94,
      "chip": "ym2612"
    },
    {
      "channel": 0,
      "note": 66,
      "start": 3.0585,
      "duration": 0.1329,
      "velocity": 103,
      "chip": "ym2612"
    },
    {
      "channel": 2,
      "note": 63,
      "start": 3.0604,
      "duration": 0.1377,
      "velocity": 94,
      "chip": "ym2612"
    },
    {
      "channel": 3,
      "note": 42,
      "start": 3.0653,
      "duration": 0.1332,
      "velocity": 100,
      "chip": "ym2612"
    },
    {
      "channel": 4,
      "note": 54,
      "start": 3.0663,
      "duration": 0.1372,
      "velocity": 100,
      "chip": "ym2612"
    },
    {
      "channel": 0,
      "note": 60,
      "start": 3.196,
      "duration": 0.2624,
      "velocity": 95,
      "chip": "ym2612"
    },
    {
      "channel": 1,
      "note": 47,
      "start": 3.1971,
      "duration": 0.3958,
      "velocity": 116,
      "chip": "ym2612"
    },
    {
      "channel": 2,
      "note": 64,
      "start": 3.1981,
      "duration": 0.2622,
      "velocity": 94,
      "chip": "ym2612"
    },
    {
      "channel": 3,
      "note": 47,
      "start": 3.2032,
      "duration": 0.7918,
      "velocity": 92,
      "chip": "ym2612"
    },
    {
      "channel": 4,
      "note": 81,
      "start": 3.2097,
      "duration": 0.2526,
      "velocity": 81,
      "chip": "ym2612"
    },
    {
      "channel": 0,
      "note": 55,
      "start": 3.4584,
      "duration": 0.1333,
      "velocity": 95,
      "chip": "ym2612"
    },
    {
      "channel": 2,
      "note": 64,
      "start": 3.4604,
      "duration": 0.1333,
      "velocity": 94,
      "chip": "ym2612"
    },
    {
      "channel": 4,
      "note": 88,
      "start": 3.4624,
      "duration": 0.1333,
      "velocity": 81,
      "chip": "ym2612"
    },
    {
      "channel": 0,
      "note": 55,
      "start": 3.5918,
      "duration": 0.4,
      "velocity": 95,
      "chip": "ym2612"
    },
    {
      "channel": 1,
      "note": 47,
      "start": 3.5929,
      "duration": 0.4,
      "velocity": 116,
      "chip": "ym2612"
    },
    {
      "channel": 2,
      "note": 64,
      "start": 3.5937,
      "duration": 0.133,
      "velocity": 94,
      "chip": "ym2612"
    },
    {
      "channel": 4,
      "note": 91,
      "start": 3.5957,
      "duration": 0.4001,
      "velocity": 81,
      "chip": "ym2612"
    },
    {
      "channel": 2,
      "note": 64,
      "start": 3.7268,
      "duration": 0.1333,
      "velocity": 94,
      "chip": "ym2612"
    },
    {
      "channel": 2,
      "note": 64,
      "start": 3.8602,
      "duration": 0.1337,
      "velocity": 94,
      "chip": "ym2612"
    },
    {
      "channel": 1,
      "note": 46,
      "start": 3.9929,
      "duration": 0.8041,
      "velocity": 116,
      "chip": "ym2612"
    },
    {
      "channel": 2,
      "note": 63,
      "start": 3.9939,
      "duration": 0.2705,
      "velocity": 94,
      "chip": "ym2612"
    },
    {
      "channel": 3,
      "note": 42,
      "start": 3.995,
      "duration": 0.8041,
      "velocity": 92,
      "chip": "ym2612"
    },
    {
      "channel": 0,
      "note": 56,
      "start": 4.2625,
      "duration": 0.3959,
      "velocity": 74,
      "chip": "ym2612"
    },
    {
      "channel": 2,
      "note": 63,
      "start": 4.2644,
      "duration": 0.129,
      "velocity": 94,
      "chip": "ym2612"
    },
    {
      "channel": 4,
      "note": 64,
      "start": 4.2703,
      "duration": 0.392,
      "velocity": 94,
      "chip": "ym2612"
    },
    {
      "channel": 2,
      "note": 63,
      "start": 4.3934,
      "duration": 0.2669,
      "velocity": 94,
      "chip": "ym2612"
    },
    {
      "channel": 0,
      "note": 54,
      "start": 4.6584,
      "duration": 0.1329,
      "velocity": 74,
      "chip": "ym2612"
    },
    {
      "channel": 2,
      "note": 63,
      "start": 4.6603,
      "duration": 0.1377,
      "velocity": 94,
      "chip": "ym2612"
    },
    {
      "channel": 4,
      "note": 54,
      "start": 4.6623,
      "duration": 0.1371,
      "velocity": 94,
      "chip": "ym2612"
    },
    {
      "channel": 0,
      "note": 67,
      "start": 4.7959,
      "duration": 0.2625,
      "velocity": 95,
      "chip": "ym2612"
    },
    {
      "channel": 1,
      "note": 45,
      "start": 4.7969,
      "duration": 0.3959,
      "velocity": 116,
      "chip": "ym2612"
    },
    {
      "channel": 2,
      "note": 62,
      "start": 4.798,
      "duration": 0.2624,
      "velocity": 94,
      "chip": "ym2612"
    },
    {
      "channel": 3,
      "note": 47,
      "start": 4.799,
      "duration": 0.6622,
      "velocity": 92,
      "chip": "ym2612"
    },
    {
      "channel": 4,
      "note": 39,
      "start": 4.806,
      "duration": 0.2563,
      "velocity": 116,
      "chip": "ym2612"
    },
    {
      "channel": 0,
      "note": 67,
      "start": 5.0584,
      "duration": 0.1333,
      "velocity": 95,
      "chip": "ym2612"
    },
    {
      "channel": 2,
      "note": 62,
      "start": 5.0604,
      "duration": 0.1334,
      "velocity": 94,
      "chip": "ym2612"
    },
    {
      "channel": 4,
      "note": 31,
      "start": 5.0624,
      "duration": 0.1333,
      "velocity": 116,
      "chip": "ym2612"
    },
    {
      "channel": 0,
      "note": 67,
      "start": 5.1918,
      "duration": 0.3998,
      "velocity": 95,
      "chip": "ym2612"
    },
    {
      "channel": 1,
      "note": 45,
      "start": 5.1929,
      "duration": 0.3999,
      "velocity": 116,
      "chip": "ym2612"
    },
    {
      "channel": 2,
      "note": 62,
      "start": 5.1938,
      "duration": 0.1329,
      "velocity": 94,
      "chip": "ym2612"
    },
    {
      "channel": 4,
      "note": 31,
      "start": 5.1958,
      "duration": 0.6741,
      "velocity": 116,
      "chip": "ym2612"
    },
    {
      "channel": 2,
      "note": 62,
      "start": 5.3268,
      "duration": 0.1334,
      "velocity": 94,
      "chip": "ym2612"
    },
    {
      "channel": 2,
      "note": 62,
      "start": 5.4602,
      "duration": 0.1337,
      "velocity": 94,
      "chip": "ym2612"
    },
    {
      "channel": 3,
      "note": 44,
      "start": 5.4612,
      "duration": 0.4037,
      "velocity": 92,
      "chip": "ym2612"
    },
    {
      "channel": 1,
      "note": 46,
      "start": 5.5927,
      "duration": 0.2709,
      "velocity": 116,
      "chip": "ym2612"
    },
    {
      "channel": 2,
      "note": 63,
      "start": 5.5938,
      "duration": 0.2707,
      "velocity": 94,
      "chip": "ym2612"
    },
    {
      "channel": 0,
      "note": 68,
      "start": 5.8627,
      "duration": 0.329,
      "velocity": 103,
      "chip": "ym2612"
    },
    {
      "channel": 1,
      "note": 46,
      "start": 5.8636,
      "duration": 0.534,
      "velocity": 116,
      "chip": "ym2612"
    },
    {
      "channel": 2,
      "note": 63,
      "start": 5.8645,
      "duration": 0.1289,
      "velocity": 94,
      "chip": "ym2612"
    },
    {
      "channel": 3,
      "note": 42,
      "start": 5.8695,
      "duration": 0.3249,
      "velocity": 103,
      "chip": "ym2612"
    },
    {
      "channel": 4,
      "note": 55,
      "start": 5.8761,
      "duration": 0.3193,
      "velocity": 100,
      "chip": "ym2612"
    },
    {
      "channel": 2,
      "note": 63,
      "start": 5.9934,
      "duration": 0.2669,
      "velocity": 94,
      "chip": "ym2612"
    },
    {
      "channel": 0,
      "note": 66,
      "start": 6.2584,
      "duration": 0.1335,
      "velocity": 103,
      "chip": "ym2612"
    },
    {
      "channel": 2,
      "note": 63,
      "start": 6.2603,
      "duration": 0.1377,
      "velocity": 94,
      "chip": "ym2612"
    },
    {
      "channel": 3,
      "note": 42,
      "start": 6.2612,
      "duration": 0.1418,
      "velocity": 103,
      "chip": "ym2612"
    },
    {
      "channel": 4,
      "note": 54,
      "start": 6.2623,
      "duration": 0.1473,
      "velocity": 100,
      "chip": "ym2612"
    },
    {
      "channel": 0,
      "note": 82,
      "start": 6.3966,
      "duration": 0.5951,
      "velocity": 81,
      "chip": "ym2612"
    },
    {
      "channel": 1,
      "note": 47,
      "start": 6.3976,
      "duration": 0.3951,
      "velocity": 116,
      "chip": "ym2612"
    },
    {
      "channel": 2,
      "note": 64,
      "start": 6.4027,
      "duration": 0.7909,
      "velocity": 83,
      "chip": "ym2612"
    },
    {
      "channel": 3,
      "note": 47,
      "start": 6.4093,
      "duration": 0.7853,
      "velocity": 92,
      "chip": "ym2612"
    },
    {
      "channel": 4,
      "note": 63,
      "start": 6.4142,
      "duration": 1.5818,
      "velocity": 83,
      "chip": "ym2612"
    },
    {
      "channel": 1,
      "note": 47,
      "start": 6.7928,
      "duration": 0.3997,
      "velocity": 116,
      "chip": "ym2612"
    },
    {
      "channel": 0,
      "note": 84,
      "start": 6.9917,
      "duration": 0.5332,
      "velocity": 81,
      "chip": "ym2612"
    },
    {
      "channel": 1,
      "note": 47,
      "start": 7.1925,
      "duration": 0.2668,
      "velocity": 116,
      "chip": "ym2612"
    },
    {
      "channel": 2,
      "note": 67,
      "start": 7.1936,
      "duration": 0.8004,
      "velocity": 83,
      "chip": "ym2612"
    },
    {
      "channel": 3,
      "note": 42,
      "start": 7.1946,
      "duration": 0.8004,
      "velocity": 92,
      "chip": "ym2612"
    },
    {
      "channel": 1,
      "note": 47,
      "start": 7.4593,
      "duration": 0.5337,
      "velocity": 116,
      "chip": "ym2612"
    },
    {
      "channel": 0,
      "note": 86,
      "start": 7.5917,
      "duration": 0.4001,
      "velocity": 81,
      "chip": "ym2612"
    },
    {
      "channel": 0,
      "note": 88,
      "start": 7.9918,
      "duration": 0.5999,
      "velocity": 81,
      "chip": "ym2612"
    },
    {
      "channel": 1,
      "note": 52,
      "start": 7.9929,
      "duration": 0.3999,
      "velocity": 116,
      "chip": "ym2612"
    },
    {
      "channel": 2,
      "note": 68,
      "start": 7.9939,
      "duration": 0.7998,
      "velocity": 83,
      "chip": "ym2612"
    },
    {
      "channel": 3,
      "note": 49,
      "start": 7.995,
      "duration": 0.5997,
      "velocity": 92,
      "chip": "ym2612"
    },
    {
      "channel": 4,
      "note": 64,
      "start": 7.9961,
      "duration": 1.6098,
      "velocity": 83,
      "chip": "ym2612"
    },
    {
      "channel": 1,
      "note": 52,
      "start": 8.3928,
      "duration": 0.3999,
      "velocity": 116,
      "chip": "ym2612"
    },
    {
      "channel": 0,
      "note": 85,
      "start": 8.5917,
      "duration": 0.5333,
      "velocity": 81,
      "chip": "ym2612"
    },
    {
      "channel": 3,
      "note": 44,
      "start": 8.5948,
      "duration": 0.2,
      "velocity": 92,
      "chip": "ym2612"
    },
    {
      "channel": 1,
      "note": 52,
      "start": 8.7927,
      "duration": 0.2662,
      "velocity": 116,
      "chip": "ym2612"
    },
    {
      "channel": 2,
      "note": 67,
      "start": 8.7937,
      "duration": 0.8043,
      "velocity": 83,
      "chip": "ym2612"
    },
    {
      "channel": 3,
      "note": 44,
      "start": 8.7948,
      "duration": 0.27,
      "velocity": 92,
      "chip": "ym2612"
    },
    {
      "channel": 1,
      "note": 61,
      "start": 9.0635,
      "duration": 0.1288,
      "velocity": 116,
      "chip": "ym2612"
    },
    {
      "channel": 3,
      "note": 40,
      "start": 9.0695,
      "duration": 0.1289,
      "velocity": 103,
      "chip": "ym2612"
    },
    {
      "channel": 0,
      "note": 87,
      "start": 9.1919,
      "duration": 0.4001,
      "velocity": 81,
      "chip": "ym2612"
    },
    {
      "channel": 1,
      "note": 52,
      "start": 9.1969,
      "duration": 0.2625,
      "velocity": 116,
      "chip": "ym2612"
    },
    {
      "channel": 3,
      "note": 49,
      "start": 9.203,
      "duration": 0.3955,
      "velocity": 100,
      "chip": "ym2612"
    },
    {
      "channel": 1,
      "note": 47,
      "start": 9.4594,
      "duration": 0.133,
      "velocity": 116,
      "chip": "ym2612"
    },
    {
      "channel": 0,
      "note": 89,
      "start": 9.592,
      "duration": 0.3997,
      "velocity": 81,
      "chip": "ym2612"
    },
    {
      "channel": 1,
      "note": 54,
      "start": 9.5971,
      "duration": 0.3957,
      "velocity": 116,
      "chip": "ym2612"
    },
    {
      "channel": 2,
      "note": 66,
      "start": 9.5981,
      "duration": 0.7959,
      "velocity": 83,
      "chip": "ym2612"
    },
    {
      "channel": 3,
      "note": 39,
      "start": 9.6031,
      "duration": 0.7919,
      "velocity": 92,
      "chip": "ym2612"
    },
    {
      "channel": 4,
      "note": 63,
      "start": 9.606,
      "duration": 0.7901,
      "velocity": 83,
      "chip": "ym2612"
    },
    {
      "channel": 0,
      "note": 90,
      "start": 9.9918,
      "duration": 0.4001,
      "velocity": 81,
      "chip": "ym2612"
    },
    {
      "channel": 1,
      "note": 54,
      "start": 9.9928,
      "duration": 0.4001,
      "velocity": 116,
      "chip": "ym2612"
    },
    {
      "channel": 0,
      "note": 93,
      "start": 10.3919,
      "duration": 0.3999,
      "velocity": 81,
      "chip": "ym2612"
    },
    {
      "channel": 1,
      "note": 51,
      "start": 10.3929,
      "duration": 0.3999,
      "velocity": 116,
      "chip": "ym2612"
    },
    {
      "channel": 2,
      "note": 65,
      "start": 10.394,
      "duration": 0.8,
      "velocity": 83,
      "chip": "ym2612"
    },
    {
      "channel": 3,
      "note": 38,
      "start": 10.3951,
      "duration": 0.8,
      "velocity": 92,
      "chip": "ym2612"
    },
    {
      "channel": 4,
      "note": 62,
      "start": 10.3961,
      "duration": 0.8,
      "velocity": 83,
      "chip": "ym2612"
    },
    {
      "channel": 0,
      "note": 93,
      "start": 10.7918,
      "duration": 0.4001,
      "velocity": 81,
      "chip": "ym2612"
    },
    {
      "channel": 1,
      "note": 53,
      "start": 10.7929,
      "duration": 0.4001,
      "velocity": 116,
      "chip": "ym2612"
    },
    {
      "channel": 0,
      "note": 92,
      "start": 11.1919,
      "duration": 0.3999,
      "velocity": 81,
      "chip": "ym2612"
    },
    {
      "channel": 1,
      "note": 52,
      "start": 11.193,
      "duration": 0.3999,
      "velocity": 116,
      "chip": "ym2612"
    },
    {
      "channel": 2,
      "note": 64,
      "start": 11.194,
      "duration": 0.8038,
      "velocity": 83,
      "chip": "ym2612"
    },
    {
      "channel": 3,
      "note": 37,
      "start": 11.1951,
      "duration": 0.5998,
      "velocity": 92,
      "chip": "ym2612"
    },
    {
      "channel": 4,
      "note": 61,
      "start": 11.1961,
      "duration": 1.3328,
      "velocity": 83,
      "chip": "ym2612"
    },
    {
      "channel": 0,
      "note": 91,
      "start": 11.5918,
      "duration": 0.3333,
      "velocity": 81,
      "chip": "ym2612"
    },
    {
      "channel": 1,
      "note": 52,
      "start": 11.5929,
      "duration": 0.3993,
      "velocity": 116,
      "chip": "ym2612"
    },
    {
      "channel": 3,
      "note": 49,
      "start": 11.7948,
      "duration": 0.2041,
      "velocity": 92,
      "chip": "ym2612"
    },
    {
      "channel": 0,
      "note": 90,
      "start": 11.9251,
      "duration": 0.4,
      "velocity": 81,
      "chip": "ym2612"
    },
    {
      "channel": 1,
      "note": 63,
      "start": 11.9968,
      "duration": 0.2622,
      "velocity": 116,
      "chip": "ym2612"
    },
    {
      "channel": 2,
      "note": 65,
      "start": 11.9978,
      "duration": 0.5292,
      "velocity": 83,
      "chip": "ym2612"
    },
    {
      "channel": 3,
      "note": 49,
      "start": 11.9989,
      "duration": 0.266,
      "velocity": 92,
      "chip": "ym2612"
    },
    {
      "channel": 1,
      "note": 54,
      "start": 12.2636,
      "duration": 0.5294,
      "velocity": 116,
      "chip": "ym2612"
    },
    {
      "channel": 3,
      "note": 40,
      "start": 12.2695,
      "duration": 0.1246,
      "velocity": 103,
      "chip": "ym2612"
    },
    {
      "channel": 3,
      "note": 52,
      "start": 12.3988,
      "duration": 0.2622,
      "velocity": 100,
      "chip": "ym2612"
    },
    {
      "channel": 3,
      "note": 42,
      "start": 12.6656,
      "duration": 0.1295,
      "velocity": 92,
      "chip": "ym2612"
    },
    {
      "channel": 0,
      "note": 87,
      "start": 12.792,
      "duration": 0.5997,
      "velocity": 81,
      "chip": "ym2612"
    },
    {
      "channel": 1,
      "note": 47,
      "start": 12.793,
      "duration": 0.3998,
      "velocity": 116,
      "chip": "ym2612"
    },
    {
      "channel": 2,
      "note": 66,
      "start": 12.7941,
      "duration": 0.7996,
      "velocity": 83,
      "chip": "ym2612"
    },
    {
      "channel": 3,
      "note": 47,
      "start": 12.7951,
      "duration": 0.7996,
      "velocity": 92,
      "chip": "ym2612"
    },
    {
      "channel": 4,
      "note": 62,
      "start": 12.7962,
      "duration": 1.6,
      "velocity": 83,
      "chip": "ym2612"
    },
    {
      "channel": 1,
      "note": 47,
      "start": 13.1927,
      "duration": 0.3999,
      "velocity": 116,
      "chip": "ym2612"
    },
    {
      "channel": 0,
      "note": 84,
      "start": 13.3917,
      "duration": 0.5333,
      "velocity": 81,
      "chip": "ym2612"
    },
    {
      "channel": 1,
      "note": 47,
      "start": 13.5926,
      "duration": 0.2666,
      "velocity": 116,
      "chip": "ym2612"
    },
    {
      "channel": 2,
      "note": 67,
      "start": 13.5937,
      "duration": 0.8004,
      "velocity": 83,
      "chip": "ym2612"
    },
    {
      "channel": 3,
      "note": 42,
      "start": 13.5947,
      "duration": 0.8004,
      "velocity": 92,
      "chip": "ym2612"
    },
    {
      "channel": 1,
      "note": 47,
      "start": 13.8592,
      "duration": 0.5338,
      "velocity": 116,
      "chip": "ym2612"
    },
    {
      "channel": 0,
      "note": 86,
      "start": 13.9917,
      "duration": 0.4002,
      "velocity": 81,
      "chip": "ym2612"
    },
    {
      "channel": 0,
      "note": 88,
      "start": 14.392,
      "duration": 0.5998,
      "velocity": 81,
      "chip": "ym2612"
    },
    {
      "channel": 1,
      "note": 52,
      "start": 14.393,
      "duration": 0.3998,
      "velocity": 116,
      "chip": "ym2612"
    },
    {
      "channel": 2,
      "note": 68,
      "start": 14.3941,
      "duration": 0.7996,
      "velocity": 83,
      "chip": "ym2612"
    },
    {
      "channel": 3,
      "note": 49,
      "start": 14.3951,
      "duration": 0.666,
      "velocity": 92,
      "chip": "ym2612"
    },
    {
      "channel": 4,
      "note": 64,
      "start": 14.3962,
      "duration": 2.0032,
      "velocity": 83,
      "chip": "ym2612"
    },
    {
      "channel": 1,
      "note": 52,
      "start": 14.7927,
      "duration": 0.3999,
      "velocity": 116,
      "chip": "ym2612"
    },
    {
      "channel": 0,
      "note": 85,
      "start": 14.9917,
      "duration": 0.5332,
      "velocity": 81,
      "chip": "ym2612"
    },
    {
      "channel": 3,
      "note": 44,
      "start": 15.0612,
      "duration": 0.1335,
      "velocity": 92,
      "chip": "ym2612"
    },
    {
      "channel": 1,
      "note": 52,
      "start": 15.1926,
      "duration": 0.2669,
      "velocity": 116,
      "chip": "ym2612"
    },
    {
      "channel": 2,
      "note": 67,
      "start": 15.1937,
      "duration": 1.1997,
      "velocity": 83,
      "chip": "ym2612"
    },
    {
      "channel": 3,
      "note": 44,
      "start": 15.1948,
      "duration": 0.266,
      "velocity": 92,
      "chip": "ym2612"
    },
    {
      "channel": 1,
      "note": 55,
      "start": 15.4595,
      "duration": 0.9335,
      "velocity": 116,
      "chip": "ym2612"
    },
    {
      "channel": 3,
      "note": 40,
      "start": 15.4654,
      "duration": 0.1288,
      "velocity": 103,
      "chip": "ym2612"
    },
    {
      "channel": 0,
      "note": 90,
      "start": 15.5918,
      "duration": 0.6665,
      "velocity": 81,
      "chip": "ym2612"
    },
    {
      "channel": 3,
      "note": 49,
      "start": 15.5988,
      "duration": 0.3954,
      "velocity": 100,
      "chip": "ym2612"
    },
    {
      "channel": 3,
      "note": 40,
      "start": 15.9988,
      "duration": 0.8001,
      "velocity": 92,
      "chip": "ym2612"
    },
    {
      "channel": 0,
      "note": 91,
      "start": 16.2584,
      "duration": 0.1337,
      "velocity": 81,
      "chip": "ym2612"
    },
    {
      "channel": 0,
      "note": 90,
      "start": 16.3921,
      "duration": 0.2664,
      "velocity": 81,
      "chip": "ym2612"
    },
    {
      "channel": 1,
      "note": 55,
      "start": 16.3931,
      "duration": 0.2665,
      "velocity": 116,
      "chip": "ym2612"
    },
    {
      "channel": 2,
      "note": 51,
      "start": 16.3981,
      "duration": 0.2625,
      "velocity": 74,
      "chip": "ym2612"
    },
    {
      "channel": 4,
      "note": 60,
      "start": 16.4059,
      "duration": 0.2567,
      "velocity": 95,
      "chip": "ym2612"
    },
    {
      "channel": 0,
      "note": 87,
      "start": 16.6585,
      "duration": 0.1333,
      "velocity": 81,
      "chip": "ym2612"
    },
    {
      "channel": 1,
      "note": 56,
      "start": 16.6595,
      "duration": 0.1327,
      "velocity": 116,
      "chip": "ym2612"
    },
    {
      "channel": 2,
      "note": 48,
      "start": 16.6606,
      "duration": 0.1373,
      "velocity": 74,
      "chip": "ym2612"
    },
    {
      "channel": 4,
      "note": 60,
      "start": 16.6626,
      "duration": 0.1374,
      "velocity": 95,
      "chip": "ym2612"
    },
    {
      "channel": 0,
      "note": 83,
      "start": 16.7918,
      "duration": 0.2667,
      "velocity": 81,
      "chip": "ym2612"
    },
    {
      "channel": 1,
      "note": 45,
      "start": 16.7969,
      "duration": 0.2627,
      "velocity": 116,
      "chip": "ym2612"
    },
    {
      "channel": 2,
      "note": 47,
      "start": 16.798,
      "duration": 0.2627,
      "velocity": 74,
      "chip": "ym2612"
    },
    {
      "channel": 3,
      "note": 43,
      "start": 16.799,
      "duration": 0.8001,
      "velocity": 92,
      "chip": "ym2612"
    },
    {
      "channel": 4,
      "note": 59,
      "start": 16.8,
      "duration": 0.2625,
      "velocity": 95,
      "chip": "ym2612"
    },
    {
      "channel": 0,
      "note": 81,
      "start": 17.0585,
      "duration": 0.1333,
      "velocity": 81,
      "chip": "ym2612"
    },
    {
      "channel": 1,
      "note": 47,
      "start": 17.0595,
      "duration": 0.1334,
      "velocity": 116,
      "chip": "ym2612"
    },
    {
      "channel": 2,
      "note": 48,
      "start": 17.0606,
      "duration": 0.1333,
      "velocity": 74,
      "chip": "ym2612"
    },
    {
      "channel": 4,
      "note": 60,
      "start": 17.0626,
      "duration": 0.1334,
      "velocity": 95,
      "chip": "ym2612"
    },
    {
      "channel": 0,
      "note": 79,
      "start": 17.1919,
      "duration": 0.2666,
      "velocity": 81,
      "chip": "ym2612"
    },
    {
      "channel": 1,
      "note": 43,
      "start": 17.1929,
      "duration": 0.2666,
      "velocity": 116,
      "chip": "ym2612"
    },
    {
      "channel": 2,
      "note": 47,
      "start": 17.194,
      "duration": 0.2665,
      "velocity": 74,
      "chip": "ym2612"
    },
    {
      "channel": 4,
      "note": 59,
      "start": 17.196,
      "duration": 0.2663,
      "velocity": 95,
      "chip": "ym2612"
    },
    {
      "channel": 0,
      "note": 78,
      "start": 17.4585,
      "duration": 0.1335,
      "velocity": 81,
      "chip": "ym2612"
    },
    {
      "channel": 1,
      "note": 42,
      "start": 17.4595,
      "duration": 0.1329,
      "velocity": 116,
      "chip": "ym2612"
    },
    {
      "channel": 2,
      "note": 47,
      "start": 17.4605,
      "duration": 0.1376,
      "velocity": 74,
      "chip": "ym2612"
    },
    {
      "channel": 4,
      "note": 59,
      "start": 17.4623,
      "duration": 0.1378,
      "velocity": 95,
      "chip": "ym2612"
    },
    {
      "channel": 0,
      "note": 84,
      "start": 17.592,
      "duration": 0.3998,
      "velocity": 81,
      "chip": "ym2612"
    },
    {
      "channel": 1,
      "note": 55,
      "start": 17.5971,
      "duration": 0.3959,
      "velocity": 116,
      "chip": "ym2612"
    },
    {
      "channel": 2,
      "note": 51,
      "start": 17.5981,
      "duration": 0.3124,
      "velocity": 74,
      "chip": "ym2612"
    },
    {
      "channel": 3,
      "note": 42,
      "start": 17.5991,
      "duration": 0.6665,
      "velocity": 92,
      "chip": "ym2612"
    },
    {
      "channel": 4,
      "note": 63,
      "start": 17.6002,
      "duration": 0.3122,
      "velocity": 95,
      "chip": "ym2612"
    },
    {
      "channel": 0,
      "note": 85,
      "start": 17.9919,
      "duration": 0.2666,
      "velocity": 81,
      "chip": "ym2612"
    },
    {
      "channel": 1,
      "note": 55,
      "start": 17.9929,
      "duration": 0.266,
      "velocity": 116,
      "chip": "ym2612"
    },
    {
      "channel": 2,
      "note": 53,
      "start": 17.994,
      "duration": 0.2705,
      "velocity": 74,
      "chip": "ym2612"
    },
    {
      "channel": 4,
      "note": 65,
      "start": 17.996,
      "duration": 0.2707,
      "velocity": 95,
      "chip": "ym2612"
    },
    {
      "channel": 0,
      "note": 83,
      "start": 18.2585,
      "duration": 0.7333,
      "velocity": 81,
      "chip": "ym2612"
    },
    {
      "channel": 1,
      "note": 54,
      "start": 18.2635,
      "duration": 0.1286,
      "velocity": 116,
      "chip": "ym2612"
    },
    {
      "channel": 2,
      "note": 52,
      "start": 18.2646,
      "duration": 0.1333,
      "velocity": 74,
      "chip": "ym2612"
    },
    {
      "channel": 3,
      "note": 35,
      "start": 18.2656,
      "duration": 0.3952,
      "velocity": 92,
      "chip": "ym2612"
    },
    {
      "channel": 4,
      "note": 64,
      "start": 18.2666,
      "duration": 0.1332,
      "velocity": 95,
      "chip": "ym2612"
    },
    {
      "channel": 1,
      "note": 59,
      "start": 18.3968,
      "duration": 0.2627,
      "velocity": 116,
      "chip": "ym2612"
    },
    {
      "channel": 2,
      "note": 51,
      "start": 18.3978,
      "duration": 0.2627,
      "velocity": 74,
      "chip": "ym2612"
    },
    {
      "channel": 4,
      "note": 63,
      "start": 18.3998,
      "duration": 0.2666,
      "velocity": 95,
      "chip": "ym2612"
    },
    {
      "channel": 1,
      "note": 59,
      "start": 18.6595,
      "duration": 0.5381,
      "velocity": 116,
      "chip": "ym2612"
    },
    {
      "channel": 2,
      "note": 53,
      "start": 18.6605,
      "duration": 0.3333,
      "velocity": 74,
      "chip": "ym2612"
    },
    {
      "channel": 3,
      "note": 35,
      "start": 18.6654,
      "duration": 0.1286,
      "velocity": 103,
      "chip": "ym2612"
    },
    {
      "channel": 4,
      "note": 65,
      "start": 18.6664,
      "duration": 0.3292,
      "velocity": 95,
      "chip": "ym2612"
    },
    {
      "channel": 3,
      "note": 59,
      "start": 18.7986,
      "duration": 0.4043,
      "velocity": 100,
      "chip": "ym2612"
    },
    {
      "channel": 0,
      "note": 64,
      "start": 19.1966,
      "duration": 0.2618,
      "velocity": 95,
      "chip": "ym2612"
    },
    {
      "channel": 1,
      "note": 47,
      "start": 19.1976,
      "duration": 0.3952,
      "velocity": 116,
      "chip": "ym2612"
    },
    {
      "channel": 2,
      "note": 63,
      "start": 19.2026,
      "duration": 0.2578,
      "velocity": 94,
      "chip": "ym2612"
    },
    {
      "channel": 3,
      "note": 47,
      "start": 19.2092,
      "duration": 0.7858,
      "velocity": 92,
      "chip": "ym2612"
    },
    {
      "channel": 4,
      "note": 81,
      "start": 19.2142,
      "duration": 0.2482,
      "velocity": 81,
      "chip": "ym2612"
    },
    {
      "channel": 0,
      "note": 64,
      "start": 19.4584,
      "duration": 0.1334,
      "velocity": 95,
      "chip": "ym2612"
    },
    {
      "channel": 2,
      "note": 64,
      "start": 19.4604,
      "duration": 0.1334,
      "velocity": 94,
      "chip": "ym2612"
    },
    {
      "channel": 4,
      "note": 88,
      "start": 19.4623,
      "duration": 0.1334,
      "velocity": 81,
      "chip": "ym2612"
    },
    {
      "channel": 0,
      "note": 67,
      "start": 19.5918,
      "duration": 0.4,
      "velocity": 95,
      "chip": "ym2612"
    },
    {
      "channel": 1,
      "note": 47,
      "start": 19.5929,
      "duration": 0.4,
      "velocity": 116,
      "chip": "ym2612"
    },
    {
      "channel": 2,
      "note": 64,
      "start": 19.5937,
      "duration": 0.133,
      "velocity": 94,
      "chip": "ym2612"
    },
    {
      "channel": 4,
      "note": 91,
      "start": 19.5957,
      "duration": 0.4001,
      "velocity": 81,
      "chip": "ym2612"
    },
    {
      "channel": 2,
      "note": 64,
      "start": 19.7268,
      "duration": 0.1335,
      "velocity": 94,
      "chip": "ym2612"
    },
    {
      "channel": 2,
      "note": 64,
      "start": 19.8602,
      "duration": 0.1337,
      "velocity": 94,
      "chip": "ym2612"
    },
    {
      "channel": 1,
      "note": 46,
      "start": 19.9929,
      "duration": 0.8041,
      "velocity": 116,
      "chip": "ym2612"
    },
    {
      "channel": 2,
      "note": 63,
      "start": 19.9939,
      "duration": 0.2704,
      "velocity": 94,
      "chip": "ym2612"
    },
    {
      "channel": 3,
      "note": 42,
      "start": 19.995,
      "duration": 0.8041,
      "velocity": 92,
      "chip": "ym2612"
    },
    {
      "channel": 0,
      "note": 58,
      "start": 20.2625,
      "duration": 0.3959,
      "velocity": 74,
      "chip": "ym2612"
    },
    {
      "channel": 2,
      "note": 63,
      "start": 20.2644,
      "duration": 0.129,
      "velocity": 94,
      "chip": "ym2612"
    },
    {
      "channel": 4,
      "note": 64,
      "start": 20.2703,
      "duration": 0.3919,
      "velocity": 94,
      "chip": "ym2612"
    },
    {
      "channel": 2,
      "note": 63,
      "start": 20.3934,
      "duration": 0.2668,
      "velocity": 94,
      "chip": "ym2612"
    },
    {
      "channel": 0,
      "note": 54,
      "start": 20.6584,
      "duration": 0.1329,
      "velocity": 74,
      "chip": "ym2612"
    },
    {
      "channel": 2,
      "note": 63,
      "start": 20.6603,
      "duration": 0.1377,
      "velocity": 94,
      "chip": "ym2612"
    },
    {
      "channel": 4,
      "note": 54,
      "start": 20.6623,
      "duration": 0.1371,
      "velocity": 94,
      "chip": "ym2612"
    },
    {
      "channel": 0,
      "note": 67,
      "start": 20.7959,
      "duration": 0.2625,
      "velocity": 95,
      "chip": "ym2612"
    },
    {
      "channel": 1,
      "note": 45,
      "start": 20.7969,
      "duration": 0.3959,
      "velocity": 116,
      "chip": "ym2612"
    },
    {
      "channel": 2,
      "note": 62,
      "start": 20.798,
      "duration": 0.2624,
      "velocity": 94,
      "chip": "ym2612"
    },
    {
      "channel": 3,
      "note": 47,
      "start": 20.799,
      "duration": 0.6624,
      "velocity": 92,
      "chip": "ym2612"
    },
    {
      "channel": 4,
      "note": 39,
      "start": 20.806,
      "duration": 0.2564,
      "velocity": 116,
      "chip": "ym2612"
    },
    {
      "channel": 0,
      "note": 67,
      "start": 21.0584,
      "duration": 0.1333,
      "velocity": 95,
      "chip": "ym2612"
    },
    {
      "channel": 2,
      "note": 62,
      "start": 21.0604,
      "duration": 0.1333,
      "velocity": 94,
      "chip": "ym2612"
    },
    {
      "channel": 4,
      "note": 31,
      "start": 21.0624,
      "duration": 0.1333,
      "velocity": 116,
      "chip": "ym2612"
    },
    {
      "channel": 0,
      "note": 67,
      "start": 21.1918,
      "duration": 0.4,
      "velocity": 95,
      "chip": "ym2612"
    },
    {
      "channel": 1,
      "note": 45,
      "start": 21.1929,
      "duration": 0.4,
      "velocity": 116,
      "chip": "ym2612"
    },
    {
      "channel": 2,
      "note": 62,
      "start": 21.1937,
      "duration": 0.133,
      "velocity": 94,
      "chip": "ym2612"
    },
    {
      "channel": 4,
      "note": 31,
      "start": 21.1958,
      "duration": 0.6741,
      "velocity": 116,
      "chip": "ym2612"
    },
    {
      "channel": 2,
      "note": 62,
      "start": 21.3268,
      "duration": 0.1337,
      "velocity": 94,
      "chip": "ym2612"
    },
    {
      "channel": 2,
      "note": 62,
      "start": 21.4604,
      "duration": 0.1335,
      "velocity": 94,
      "chip": "ym2612"
    },
    {
      "channel": 3,
      "note": 44,
      "start": 21.4614,
      "duration": 0.4034,
      "velocity": 92,
      "chip": "ym2612"
    },
    {
      "channel": 1,
      "note": 46,
      "start": 21.5929,
      "duration": 0.2707,
      "velocity": 116,
      "chip": "ym2612"
    },
    {
      "channel": 2,
      "note": 63,
      "start": 21.5939,
      "duration": 0.2705,
      "velocity": 94,
      "chip": "ym2612"
    },
    {
      "channel": 0,
      "note": 68,
      "start": 21.8627,
      "duration": 0.329,
      "velocity": 103,
      "chip": "ym2612"
    },
    {
      "channel": 1,
      "note": 46,
      "start": 21.8636,
      "duration": 0.5334,
      "velocity": 116,
      "chip": "ym2612"
    },
    {
      "channel": 2,
      "note": 63,
      "start": 21.8645,
      "duration": 0.1289,
      "velocity": 94,
      "chip": "ym2612"
    },
    {
      "channel": 3,
      "note": 42,
      "start": 21.8695,
      "duration": 0.3249,
      "velocity": 103,
      "chip": "ym2612"
    },
    {
      "channel": 4,
      "note": 55,
      "start": 21.8761,
      "duration": 0.3192,
      "velocity": 100,
      "chip": "ym2612"
    },
    {
      "channel": 2,
      "note": 63,
      "start": 21.9934,
      "duration": 0.267,
      "velocity": 94,
      "chip": "ym2612"
    },
    {
      "channel": 0,
      "note": 66,
      "start": 22.2586,
      "duration": 0.1329,
      "velocity": 103,
      "chip": "ym2612"
    },
    {
      "channel": 2,
      "note": 63,
      "start": 22.2604,
      "duration": 0.1377,
      "velocity": 94,
      "chip": "ym2612"
    },
    {
      "channel": 3,
      "note": 42,
      "start": 22.2653,
      "duration": 0.1332,
      "velocity": 100,
      "chip": "ym2612"
    },
    {
      "channel": 4,
      "note": 54,
      "start": 22.2663,
      "duration": 0.1372,
      "velocity": 100,
      "chip": "ym2612"
    },
    {
      "channel": 0,
      "note": 60,
      "start": 22.396,
      "duration": 0.2624,
      "velocity": 95,
      "chip": "ym2612"
    },
    {
      "channel": 1,
      "note": 47,
      "start": 22.3971,
      "duration": 0.3957,
      "velocity": 116,
      "chip": "ym2612"
    },
    {
      "channel": 2,
      "note": 64,
      "start": 22.3981,
      "duration": 0.2623,
      "velocity": 94,
      "chip": "ym2612"
    },
    {
      "channel": 3,
      "note": 47,
      "start": 22.4032,
      "duration": 0.7918,
      "velocity": 92,
      "chip": "ym2612"
    },
    {
      "channel": 4,
      "note": 81,
      "start": 22.4098,
      "duration": 0.2526,
      "velocity": 81,
      "chip": "ym2612"
    },
    {
      "channel": 0,
      "note": 55,
      "start": 22.6584,
      "duration": 0.1334,
      "velocity": 95,
      "chip": "ym2612"
    },
    {
      "channel": 2,
      "note": 64,
      "start": 22.6604,
      "duration": 0.1334,
      "velocity": 94,
      "chip": "ym2612"
    },
    {
      "channel": 4,
      "note": 88,
      "start": 22.6624,
      "duration": 0.1334,
      "velocity": 81,
      "chip": "ym2612"
    },
    {
      "channel": 0,
      "note": 55,
      "start": 22.7918,
      "duration": 0.4,
      "velocity": 95,
      "chip": "ym2612"
    },
    {
      "channel": 1,
      "note": 47,
      "start": 22.7929,
      "duration": 0.4,
      "velocity": 116,
      "chip": "ym2612"
    },
    {
      "channel": 2,
      "note": 64,
      "start": 22.7938,
      "duration": 0.1328,
      "velocity": 94,
      "chip": "ym2612"
    },
    {
      "channel": 4,
      "note": 91,
      "start": 22.7958,
      "duration": 0.4001,
      "velocity": 81,
      "chip": "ym2612"
    },
    {
      "channel": 2,
      "note": 64,
      "start": 22.9266,
      "duration": 0.1335,
      "velocity": 94,
      "chip": "ym2612"
    },
    {
      "channel": 2,
      "note": 64,
      "start": 23.0602,
      "duration": 0.1338,
      "velocity": 94,
      "chip": "ym2612"
    },
    {
      "channel": 1,
      "note": 46,
      "start": 23.1929,
      "duration": 0.8041,
      "velocity": 116,
      "chip": "ym2612"
    },
    {
      "channel": 2,
      "note": 63,
      "start": 23.1939,
      "duration": 0.2704,
      "velocity": 94,
      "chip": "ym2612"
    },
    {
      "channel": 3,
      "note": 42,
      "start": 23.195,
      "duration": 0.8041,
      "velocity": 92,
      "chip": "ym2612"
    },
    {
      "channel": 0,
      "note": 56,
      "start": 23.4626,
      "duration": 0.3959,
      "velocity": 74,
      "chip": "ym2612"
    },
    {
      "channel": 2,
      "note": 63,
      "start": 23.4644,
      "duration": 0.1291,
      "velocity": 94,
      "chip": "ym2612"
    },
    {
      "channel": 4,
      "note": 64,
      "start": 23.4703,
      "duration": 0.3919,
      "velocity": 94,
      "chip": "ym2612"
    },
    {
      "channel": 2,
      "note": 63,
      "start": 23.5934,
      "duration": 0.2669,
      "velocity": 94,
      "chip": "ym2612"
    },
    {
      "channel": 0,
      "note": 54,
      "start": 23.8584,
      "duration": 0.1329,
      "velocity": 74,
      "chip": "ym2612"
    },
    {
      "channel": 2,
      "note": 63,
      "start": 23.8603,
      "duration": 0.1377,
      "velocity": 94,
      "chip": "ym2612"
    },
    {
      "channel": 4,
      "note": 54,
      "start": 23.8623,
      "duration": 0.1372,
      "velocity": 94,
      "chip": "ym2612"
    },
    {
      "channel": 0,
      "note": 67,
      "start": 23.996,
      "duration": 0.2624,
      "velocity": 95,
      "chip": "ym2612"
    },
    {
      "channel": 1,
      "note": 45,
      "start": 23.997,
      "duration": 0.3959,
      "velocity": 116,
      "chip": "ym2612"
    },
    {
      "channel": 2,
      "note": 62,
      "start": 23.998,
      "duration": 0.2624,
      "velocity": 94,
      "chip": "ym2612"
    },
    {
      "channel": 3,
      "note": 47,
      "start": 23.9991,
      "duration": 0.6622,
      "velocity": 92,
      "chip": "ym2612"
    },
    {
      "channel": 4,
      "note": 39,
      "start": 24.006,
      "duration": 0.2563,
      "velocity": 116,
      "chip": "ym2612"
    },
    {
      "channel": 0,
      "note": 67,
      "start": 24.2585,
      "duration": 0.1333,
      "velocity": 95,
      "chip": "ym2612"
    },
    {
      "channel": 2,
      "note": 62,
      "start": 24.2605,
      "duration": 0.1333,
      "velocity": 94,
      "chip": "ym2612"
    },
    {
      "channel": 4,
      "note": 31,
      "start": 24.2624,
      "duration": 0.1333,
      "velocity": 116,
      "chip": "ym2612"
    },
    {
      "channel": 0,
      "note": 67,
      "start": 24.3918,
      "duration": 0.3999,
      "velocity": 95,
      "chip": "ym2612"
    },
    {
      "channel": 1,
      "note": 45,
      "start": 24.3929,
      "duration": 0.3999,
      "velocity": 116,
      "chip": "ym2612"
    },
    {
      "channel": 2,
      "note": 62,
      "start": 24.3938,
      "duration": 0.1329,
      "velocity": 94,
      "chip": "ym2612"
    },
    {
      "channel": 4,
      "note": 31,
      "start": 24.3958,
      "duration": 0.6741,
      "velocity": 116,
      "chip": "ym2612"
    },
    {
      "channel": 2,
      "note": 62,
      "start": 24.5267,
      "duration": 0.1334,
      "velocity": 94,
      "chip": "ym2612"
    },
    {
      "channel": 2,
      "note": 62,
      "start": 24.6602,
      "duration": 0.1336,
      "velocity": 94,
      "chip": "ym2612"
    },
    {
      "channel": 3,
      "note": 44,
      "start": 24.6612,
      "duration": 0.4036,
      "velocity": 92,
      "chip": "ym2612"
    },
    {
      "channel": 1,
      "note": 46,
      "start": 24.7928,
      "duration": 0.2707,
      "velocity": 116,
      "chip": "ym2612"
    },
    {
      "channel": 2,
      "note": 63,
      "start": 24.7938,
      "duration": 0.2706,
      "velocity": 94,
      "chip": "ym2612"
    },
    {
      "channel": 0,
      "note": 68,
      "start": 25.0626,
      "duration": 0.3291,
      "velocity": 103,
      "chip": "ym2612"
    },
    {
      "channel": 1,
      "note": 46,
      "start": 25.0635,
      "duration": 0.534,
      "velocity": 116,
      "chip": "ym2612"
    },
    {
      "channel": 2,
      "note": 63,
      "start": 25.0644,
      "duration": 0.129,
      "velocity": 94,
      "chip": "ym2612"
    },
    {
      "channel": 3,
      "note": 42,
      "start": 25.0695,
      "duration": 0.3251,
      "velocity": 103,
      "chip": "ym2612"
    },
    {
      "channel": 4,
      "note": 55,
      "start": 25.076,
      "duration": 0.3194,
      "velocity": 100,
      "chip": "ym2612"
    },
    {
      "channel": 2,
      "note": 63,
      "start": 25.1934,
      "duration": 0.2669,
      "velocity": 94,
      "chip": "ym2612"
    },
    {
      "channel": 0,
      "note": 66,
      "start": 25.4585,
      "duration": 0.1334,
      "velocity": 103,
      "chip": "ym2612"
    },
    {
      "channel": 2,
      "note": 63,
      "start": 25.4604,
      "duration": 0.1376,
      "velocity": 94,
      "chip": "ym2612"
    },
    {
      "channel": 3,
      "note": 42,
      "start": 25.4612,
      "duration": 0.1423,
      "velocity": 103,
      "chip": "ym2612"
    },
    {
      "channel": 4,
      "note": 54,
      "start": 25.4623,
      "duration": 0.1435,
      "velocity": 100,
      "chip": "ym2612"
    },
    {
      "channel": 0,
      "note": 69,
      "start": 25.5965,
      "duration": 0.262,
      "velocity": 100,
      "chip": "ym2612"
    },
    {
      "channel": 1,
      "note": 57,
      "start": 25.5976,
      "duration": 0.3954,
      "velocity": 116,
      "chip": "ym2612"
    },
    {
      "channel": 2,
      "note": 63,
      "start": 25.6026,
      "duration": 0.258,
      "velocity": 95,
      "chip": "ym2612"
    },
    {
      "channel": 3,
      "note": 43,
      "start": 25.6036,
      "duration": 0.3914,
      "velocity": 103,
      "chip": "ym2612"
    },
    {
      "channel": 4,
      "note": 73,
      "start": 25.6104,
      "duration": 0.2521,
      "velocity": 119,
      "chip": "ym2612"
    },
    {
      "channel": 0,
      "note": 74,
      "start": 25.8585,
      "duration": 0.1333,
      "velocity": 100,
      "chip": "ym2612"
    },
    {
      "channel": 2,
      "note": 65,
      "start": 25.8606,
      "duration": 0.1333,
      "velocity": 95,
      "chip": "ym2612"
    },
    {
      "channel": 4,
      "note": 73,
      "start": 25.8624,
      "duration": 0.1335,
      "velocity": 119,
      "chip": "ym2612"
    },
    {
      "channel": 0,
      "note": 75,
      "start": 25.9919,
      "duration": 0.2665,
      "velocity": 100,
      "chip": "ym2612"
    },
    {
      "channel": 1,
      "note": 56,
      "start": 25.9929,
      "duration": 0.4,
      "velocity": 116,
      "chip": "ym2612"
    },
    {
      "channel": 2,
      "note": 66,
      "start": 25.994,
      "duration": 0.2665,
      "velocity": 95,
      "chip": "ym2612"
    },
    {
      "channel": 3,
      "note": 42,
      "start": 25.995,
      "duration": 0.4,
      "velocity": 103,
      "chip": "ym2612"
    },
    {
      "channel": 4,
      "note": 73,
      "start": 25.996,
      "duration": 0.4,
      "velocity": 119,
      "chip": "ym2612"
    },
    {
      "channel": 0,
      "note": 77,
      "start": 26.2584,
      "duration": 0.1334,
      "velocity": 100,
      "chip": "ym2612"
    },
    {
      "channel": 2,
      "note": 68,
      "start": 26.2605,
      "duration": 0.1335,
      "velocity": 95,
      "chip": "ym2612"
    },
    {
      "channel": 0,
      "note": 72,
      "start": 26.3919,
      "duration": 0.3994,
      "velocity": 100,
      "chip": "ym2612"
    },
    {
      "channel": 1,
      "note": 55,
      "start": 26.3929,
      "duration": 0.4039,
      "velocity": 116,
      "chip": "ym2612"
    },
    {
      "channel": 2,
      "note": 68,
      "start": 26.394,
      "duration": 0.4033,
      "velocity": 95,
      "chip": "ym2612"
    },
    {
      "channel": 3,
      "note": 41,
      "start": 26.395,
      "duration": 0.4079,
      "velocity": 103,
      "chip": "ym2612"
    },
    {
      "channel": 4,
      "note": 73,
      "start": 26.396,
      "duration": 0.2663,
      "velocity": 119,
      "chip": "ym2612"
    },
    {
      "channel": 4,
      "note": 73,
      "start": 26.6623,
      "duration": 0.1415,
      "velocity": 119,
      "chip": "ym2612"
    },
    {
      "channel": 0,
      "note": 70,
      "start": 26.7959,
      "duration": 0.2627,
      "velocity": 74,
      "chip": "ym2612"
    },
    {
      "channel": 1,
      "note": 54,
      "start": 26.7969,
      "duration": 0.262,
      "velocity": 116,
      "chip": "ym2612"
    },
    {
      "channel": 2,
      "note": 55,
      "start": 26.802,
      "duration": 0.2626,
      "velocity": 99,
      "chip": "ym2612"
    },
    {
      "channel": 3,
      "note": 40,
      "start": 26.803,
      "duration": 0.3961,
      "velocity": 103,
      "chip": "ym2612"
    },
    {
      "channel": 4,
      "note": 73,
      "start": 26.8039,
      "duration": 0.3961,
      "velocity": 119,
      "chip": "ym2612"
    },
    {
      "channel": 0,
      "note": 71,
      "start": 27.0585,
      "duration": 0.1334,
      "velocity": 74,
      "chip": "ym2612"
    },
    {
      "channel": 1,
      "note": 47,
      "start": 27.0635,
      "duration": 0.1288,
      "velocity": 116,
      "chip": "ym2612"
    },
    {
      "channel": 2,
      "note": 53,
      "start": 27.0646,
      "duration": 0.1334,
      "velocity": 99,
      "chip": "ym2612"
    },
    {
      "channel": 0,
      "note": 72,
      "start": 27.1919,
      "duration": 0.2666,
      "velocity": 74,
      "chip": "ym2612"
    },
    {
      "channel": 1,
      "note": 53,
      "start": 27.1969,
      "duration": 0.2627,
      "velocity": 116,
      "chip": "ym2612"
    },
    {
      "channel": 2,
      "note": 54,
      "start": 27.198,
      "duration": 0.2627,
      "velocity": 99,
      "chip": "ym2612"
    },
    {
      "channel": 3,
      "note": 39,
      "start": 27.199,
      "duration": 0.3959,
      "velocity": 103,
      "chip": "ym2612"
    },
    {
      "channel": 4,
      "note": 73,
      "start": 27.1999,
      "duration": 0.2625,
      "velocity": 119,
      "chip": "ym2612"
    },
    {
      "channel": 0,
      "note": 74,
      "start": 27.4585,
      "duration": 0.1333,
      "velocity": 74,
      "chip": "ym2612"
    },
    {
      "channel": 1,
      "note": 53,
      "start": 27.4596,
      "duration": 0.1332,
      "velocity": 116,
      "chip": "ym2612"
    },
    {
      "channel": 2,
      "note": 57,
      "start": 27.4606,
      "duration": 0.1333,
      "velocity": 99,
      "chip": "ym2612"
    },
    {
      "channel": 4,
      "note": 73,
      "start": 27.4624,
      "duration": 0.1334,
      "velocity": 119,
      "chip": "ym2612"
    },
    {
      "channel": 0,
      "note": 69,
      "start": 27.5918,
      "duration": 0.7996,
      "velocity": 74,
      "chip": "ym2612"
    },
    {
      "channel": 1,
      "note": 52,
      "start": 27.5929,
      "duration": 0.4001,
      "velocity": 116,
      "chip": "ym2612"
    },
    {
      "channel": 2,
      "note": 52,
      "start": 27.5939,
      "duration": 0.8036,
      "velocity": 99,
      "chip": "ym2612"
    },
    {
      "channel": 3,
      "note": 38,
      "start": 27.595,
      "duration": 0.4001,
      "velocity": 103,
      "chip": "ym2612"
    },
    {
      "channel": 4,
      "note": 73,
      "start": 27.5959,
      "duration": 0.4001,
      "velocity": 119,
      "chip": "ym2612"
    },
    {
      "channel": 1,
      "note": 51,
      "start": 27.993,
      "duration": 0.4041,
      "velocity": 116,
      "chip": "ym2612"
    },
    {
      "channel": 3,
      "note": 37,
      "start": 27.9951,
      "duration": 0.408,
      "velocity": 103,
      "chip": "ym2612"
    },
    {
      "channel": 4,
      "note": 73,
      "start": 27.996,
      "duration": 0.2665,
      "velocity": 119,
      "chip": "ym2612"
    },
    {
      "channel": 4,
      "note": 73,
      "start": 28.2625,
      "duration": 0.1433,
      "velocity": 119,
      "chip": "ym2612"
    },
    {
      "channel": 0,
      "note": 76,
      "start": 28.3959,
      "duration": 0.2625,
      "velocity": 81,
      "chip": "ym2612"
    },
    {
      "channel": 1,
      "note": 50,
      "start": 28.3971,
      "duration": 0.2618,
      "velocity": 116,
      "chip": "ym2612"
    },
    {
      "channel": 2,
      "note": 71,
      "start": 28.4021,
      "duration": 0.2623,
      "velocity": 127,
      "chip": "ym2612"
    },
    {
      "channel": 3,
      "note": 36,
      "start": 28.4031,
      "duration": 0.3959,
      "velocity": 103,
      "chip": "ym2612"
    },
    {
      "channel": 4,
      "note": 73,
      "start": 28.4059,
      "duration": 0.394,
      "velocity": 119,
      "chip": "ym2612"
    },
    {
      "channel": 0,
      "note": 79,
      "start": 28.6584,
      "duration": 0.1335,
      "velocity": 81,
      "chip": "ym2612"
    },
    {
      "channel": 1,
      "note": 43,
      "start": 28.6635,
      "duration": 0.1288,
      "velocity": 116,
      "chip": "ym2612"
    },
    {
      "channel": 2,
      "note": 78,
      "start": 28.6645,
      "duration": 0.1335,
      "velocity": 127,
      "chip": "ym2612"
    },
    {
      "channel": 0,
      "note": 80,
      "start": 28.7919,
      "duration": 0.3994,
      "velocity": 81,
      "chip": "ym2612"
    },
    {
      "channel": 1,
      "note": 49,
      "start": 28.7969,
      "duration": 0.2625,
      "velocity": 116,
      "chip": "ym2612"
    },
    {
      "channel": 2,
      "note": 76,
      "start": 28.798,
      "duration": 0.3994,
      "velocity": 127,
      "chip": "ym2612"
    },
    {
      "channel": 3,
      "note": 35,
      "start": 28.799,
      "duration": 0.4041,
      "velocity": 103,
      "chip": "ym2612"
    },
    {
      "channel": 4,
      "note": 73,
      "start": 28.8,
      "duration": 0.2624,
      "velocity": 119,
      "chip": "ym2612"
    },
    {
      "channel": 1,
      "note": 49,
      "start": 29.0595,
      "duration": 0.1376,
      "velocity": 116,
      "chip": "ym2612"
    },
    {
      "channel": 4,
      "note": 73,
      "start": 29.0624,
      "duration": 0.1434,
      "velocity": 119,
      "chip": "ym2612"
    },
    {
      "channel": 0,
      "note": 67,
      "start": 29.1959,
      "duration": 0.2625,
      "velocity": 94,
      "chip": "ym2612"
    },
    {
      "channel": 1,
      "note": 48,
      "start": 29.1971,
      "duration": 0.3959,
      "velocity": 116,
      "chip": "ym2612"
    },
    {
      "channel": 2,
      "note": 47,
      "start": 29.2021,
      "duration": 0.2585,
      "velocity": 108,
      "chip": "ym2612"
    },
    {
      "channel": 3,
      "note": 34,
      "start": 29.2031,
      "duration": 0.3959,
      "velocity": 103,
      "chip": "ym2612"
    },
    {
      "channel": 4,
      "note": 73,
      "start": 29.2059,
      "duration": 0.3941,
      "velocity": 119,
      "chip": "ym2612"
    },
    {
      "channel": 0,
      "note": 65,
      "start": 29.4584,
      "duration": 0.1335,
      "velocity": 94,
      "chip": "ym2612"
    },
    {
      "channel": 2,
      "note": 40,
      "start": 29.4605,
      "duration": 0.1328,
      "velocity": 108,
      "chip": "ym2612"
    },
    {
      "channel": 0,
      "note": 66,
      "start": 29.592,
      "duration": 0.3993,
      "velocity": 94,
      "chip": "ym2612"
    },
    {
      "channel": 1,
      "note": 47,
      "start": 29.593,
      "duration": 0.4039,
      "velocity": 116,
      "chip": "ym2612"
    },
    {
      "channel": 2,
      "note": 38,
      "start": 29.598,
      "duration": 0.3993,
      "velocity": 57,
      "chip": "ym2612"
    },
    {
      "channel": 3,
      "note": 33,
      "start": 29.599,
      "duration": 0.4039,
      "velocity": 103,
      "chip": "ym2612"
    },
    {
      "channel": 4,
      "note": 73,
      "start": 29.6,
      "duration": 0.2624,
      "velocity": 119,
      "chip": "ym2612"
    },
    {
      "channel": 4,
      "note": 73,
      "start": 29.8624,
      "duration": 0.1434,
      "velocity": 119,
      "chip": "ym2612"
    },
    {
      "channel": 0,
      "note": 68,
      "start": 29.9959,
      "duration": 0.2625,
      "velocity": 94,
      "chip": "ym2612"
    },
    {
      "channel": 1,
      "note": 46,
      "start": 29.9969,
      "duration": 0.2619,
      "velocity": 116,
      "chip": "ym2612"
    },
    {
      "channel": 2,
      "note": 56,
      "start": 30.002,
      "duration": 0.2625,
      "velocity": 106,
      "chip": "ym2612"
    },
    {
      "channel": 3,
      "note": 32,
      "start": 30.003,
      "duration": 0.3959,
      "velocity": 103,
      "chip": "ym2612"
    },
    {
      "channel": 4,
      "note": 73,
      "start": 30.0058,
      "duration": 0.394,
      "velocity": 119,
      "chip": "ym2612"
    },
    {
      "channel": 0,
      "note": 68,
      "start": 30.2584,
      "duration": 0.1333,
      "velocity": 94,
      "chip": "ym2612"
    },
    {
      "channel": 1,
      "note": 34,
      "start": 30.2635,
      "duration": 0.1288,
      "velocity": 116,
      "chip": "ym2612"
    },
    {
      "channel": 2,
      "note": 62,
      "start": 30.2645,
      "duration": 0.1334,
      "velocity": 106,
      "chip": "ym2612"
    },
    {
      "channel": 0,
      "note": 69,
      "start": 30.3918,
      "duration": 0.3996,
      "velocity": 94,
      "chip": "ym2612"
    },
    {
      "channel": 1,
      "note": 45,
      "start": 30.3969,
      "duration": 0.3995,
      "velocity": 116,
      "chip": "ym2612"
    },
    {
      "channel": 2,
      "note": 60,
      "start": 30.3979,
      "duration": 0.4036,
      "velocity": 106,
      "chip": "ym2612"
    },
    {
      "channel": 3,
      "note": 31,
      "start": 30.3989,
      "duration": 0.4099,
      "velocity": 103,
      "chip": "ym2612"
    },
    {
      "channel": 4,
      "note": 73,
      "start": 30.3999,
      "duration": 0.2625,
      "velocity": 119,
      "chip": "ym2612"
    },
    {
      "channel": 4,
      "note": 73,
      "start": 30.6624,
      "duration": 0.1473,
      "velocity": 119,
      "chip": "ym2612"
    },
    {
      "channel": 0,
      "note": 71,
      "start": 30.796,
      "duration": 0.2624,
      "velocity": 93,
      "chip": "ym2612"
    },
    {
      "channel": 1,
      "note": 44,
      "start": 30.8011,
      "duration": 0.2578,
      "velocity": 116,
      "chip": "ym2612"
    },
    {
      "channel": 2,
      "note": 77,
      "start": 30.8078,
      "duration": 0.2567,
      "velocity": 89,
      "chip": "ym2612"
    },
    {
      "channel": 3,
      "note": 30,
      "start": 30.8088,
      "duration": 0.3855,
      "velocity": 103,
      "chip": "ym2612"
    },
    {
      "channel": 4,
      "note": 73,
      "start": 30.8097,
      "duration": 0.3901,
      "velocity": 119,
      "chip": "ym2612"
    },
    {
      "channel": 0,
      "note": 74,
      "start": 31.0584,
      "duration": 0.1334,
      "velocity": 93,
      "chip": "ym2612"
    },
    {
      "channel": 1,
      "note": 38,
      "start": 31.0635,
      "duration": 0.1294,
      "velocity": 116,
      "chip": "ym2612"
    },
    {
      "channel": 2,
      "note": 79,
      "start": 31.0645,
      "duration": 0.1295,
      "velocity": 89,
      "chip": "ym2612"
    },
    {
      "channel": 0,
      "note": 75,
      "start": 31.1918,
      "duration": 0.4,
      "velocity": 93,
      "chip": "ym2612"
    },
    {
      "channel": 1,
      "note": 34,
      "start": 31.1929,
      "duration": 0.3994,
      "velocity": 116,
      "chip": "ym2612"
    },
    {
      "channel": 2,
      "note": 75,
      "start": 31.1939,
      "duration": 0.4039,
      "velocity": 89,
      "chip": "ym2612"
    },
    {
      "channel": 3,
      "note": 42,
      "start": 31.199,
      "duration": 0.3993,
      "velocity": 100,
      "chip": "ym2612"
    },
    {
      "channel": 4,
      "note": 73,
      "start": 31.1999,
      "duration": 0.1288,
      "velocity": 119,
      "chip": "ym2612"
    },
    {
      "channel": 4,
      "note": 73,
      "start": 31.3286,
      "duration": 0.1337,
      "velocity": 119,
      "chip": "ym2612"
    },
    {
      "channel": 4,
      "note": 73,
      "start": 31.4623,
      "duration": 0.1414,
      "velocity": 119,
      "chip": "ym2612"
    },
    {
      "channel": 0,
      "note": 76,
      "start": 31.5918,
      "duration": 0.2666,
      "velocity": 93,
      "chip": "ym2612"
    },
    {
      "channel": 1,
      "note": 44,
      "start": 31.5969,
      "duration": 0.396,
      "velocity": 116,
      "chip": "ym2612"
    },
    {
      "channel": 2,
      "note": 73,
      "start": 31.5979,
      "duration": 0.4,
      "velocity": 89,
      "chip": "ym2612"
    },
    {
      "channel": 3,
      "note": 42,
      "start": 31.6028,
      "duration": 0.4007,
      "velocity": 92,
      "chip": "ym2612"
    },
    {
      "channel": 4,
      "note": 73,
      "start": 31.6037,
      "duration": 0.2587,
      "velocity": 119,
      "chip": "ym2612"
    },
    {
      "channel": 0,
      "note": 77,
      "start": 31.8584,
      "duration": 0.134,
      "velocity": 93,
      "chip": "ym2612"
    },
    {
      "channel": 4,
      "note": 73,
      "start": 31.8624,
      "duration": 0.1434,
      "velocity": 119,
      "chip": "ym2612"
    },
    {
      "channel": 0,
      "note": 78,
      "start": 31.9925,
      "duration": 2.7993,
      "velocity": 93,
      "chip": "ym2612"
    },
    {
      "channel": 1,
      "note": 59,
      "start": 31.9976,
      "duration": 0.3952,
      "velocity": 116,
      "chip": "ym2612"
    },
    {
      "channel": 2,
      "note": 67,
      "start": 32.0025,
      "duration": 0.2578,
      "velocity": 94,
      "chip": "ym2612"
    },
    {
      "channel": 3,
      "note": 47,
      "start": 32.0035,
      "duration": 0.7914,
      "velocity": 92,
      "chip": "ym2612"
    },
    {
      "channel": 4,
      "note": 75,
      "start": 32.0103,
      "duration": 2.7853,
      "velocity": 89,
      "chip": "ym2612"
    },
    {
      "channel": 2,
      "note": 64,
      "start": 32.2603,
      "duration": 0.1334,
      "velocity": 94,
      "chip": "ym2612"
    },
    {
      "channel": 1,
      "note": 59,
      "start": 32.3928,
      "duration": 0.4,
      "velocity": 116,
      "chip": "ym2612"
    },
    {
      "channel": 2,
      "note": 64,
      "start": 32.3937,
      "duration": 0.1331,
      "velocity": 94,
      "chip": "ym2612"
    },
    {
      "channel": 2,
      "note": 64,
      "start": 32.5268,
      "duration": 0.1333,
      "velocity": 94,
      "chip": "ym2612"
    },
    {
      "channel": 2,
      "note": 64,
      "start": 32.6602,
      "duration": 0.1337,
      "velocity": 94,
      "chip": "ym2612"
    },
    {
      "channel": 1,
      "note": 58,
      "start": 32.7928,
      "duration": 0.8,
      "velocity": 116,
      "chip": "ym2612"
    },
    {
      "channel": 2,
      "note": 63,
      "start": 32.7938,
      "duration": 0.2663,
      "velocity": 94,
      "chip": "ym2612"
    },
    {
      "channel": 3,
      "note": 42,
      "start": 32.7949,
      "duration": 0.8,
      "velocity": 92,
      "chip": "ym2612"
    },
    {
      "channel": 2,
      "note": 63,
      "start": 33.0602,
      "duration": 0.1332,
      "velocity": 94,
      "chip": "ym2612"
    },
    {
      "channel": 2,
      "note": 63,
      "start": 33.1934,
      "duration": 0.2666,
      "velocity": 94,
      "chip": "ym2612"
    },
    {
      "channel": 2,
      "note": 63,
      "start": 33.4601,
      "duration": 0.1337,
      "velocity": 94,
      "chip": "ym2612"
    },
    {
      "channel": 1,
      "note": 57,
      "start": 33.5928,
      "duration": 0.3999,
      "velocity": 116,
      "chip": "ym2612"
    },
    {
      "channel": 2,
      "note": 62,
      "start": 33.5938,
      "duration": 0.2664,
      "velocity": 94,
      "chip": "ym2612"
    },
    {
      "channel": 3,
      "note": 47,
      "start": 33.5949,
      "duration": 0.6663,
      "velocity": 92,
      "chip": "ym2612"
    },
    {
      "channel": 2,
      "note": 62,
      "start": 33.8602,
      "duration": 0.1333,
      "velocity": 94,
      "chip": "ym2612"
    },
    {
      "channel": 1,
      "note": 57,
      "start": 33.9927,
      "duration": 0.4001,
      "velocity": 116,
      "chip": "ym2612"
    },
    {
      "channel": 2,
      "note": 62,
      "start": 33.9936,
      "duration": 0.1333,
      "velocity": 94,
      "chip": "ym2612"
    },
    {
      "channel": 2,
      "note": 62,
      "start": 34.1268,
      "duration": 0.1334,
      "velocity": 94,
      "chip": "ym2612"
    },
    {
      "channel": 2,
      "note": 62,
      "start": 34.2602,
      "duration": 0.1337,
      "velocity": 94,
      "chip": "ym2612"
    },
    {
      "channel": 3,
      "note": 44,
      "start": 34.2612,
      "duration": 0.3995,
      "velocity": 92,
      "chip": "ym2612"
    },
    {
      "channel": 1,
      "note": 58,
      "start": 34.3928,
      "duration": 0.2666,
      "velocity": 116,
      "chip": "ym2612"
    },
    {
      "channel": 2,
      "note": 63,
      "start": 34.3939,
      "duration": 0.2665,
      "velocity": 94,
      "chip": "ym2612"
    },
    {
      "channel": 1,
      "note": 58,
      "start": 34.6594,
      "duration": 0.5335,
      "velocity": 116,
      "chip": "ym2612"
    },
    {
      "channel": 2,
      "note": 63,
      "start": 34.6604,
      "duration": 0.1332,
      "velocity": 94,
      "chip": "ym2612"
    },
    {
      "channel": 3,
      "note": 42,
      "start": 34.6654,
      "duration": 0.3954,
      "velocity": 103,
      "chip": "ym2612"
    },
    {
      "channel": 0,
      "note": 82,
      "start": 34.7918,
      "duration": 0.2667,
      "velocity": 93,
      "chip": "ym2612"
    },
    {
      "channel": 2,
      "note": 63,
      "start": 34.7936,
      "duration": 0.2667,
      "velocity": 94,
      "chip": "ym2612"
    },
    {
      "channel": 4,
      "note": 77,
      "start": 34.7956,
      "duration": 0.2707,
      "velocity": 89,
      "chip": "ym2612"
    },
    {
      "channel": 0,
      "note": 79,
      "start": 35.0585,
      "duration": 0.1334,
      "velocity": 93,
      "chip": "ym2612"
    },
    {
      "channel": 2,
      "note": 63,
      "start": 35.0604,
      "duration": 0.1337,
      "velocity": 94,
      "chip": "ym2612"
    },
    {
      "channel": 3,
      "note": 42,
      "start": 35.0653,
      "duration": 0.1291,
      "velocity": 100,
      "chip": "ym2612"
    },
    {
      "channel": 4,
      "note": 75,
      "start": 35.0663,
      "duration": 0.1338,
      "velocity": 89,
      "chip": "ym2612"
    },
    {
      "channel": 0,
      "note": 79,
      "start": 35.1919,
      "duration": 0.2666,
      "velocity": 93,
      "chip": "ym2612"
    },
    {
      "channel": 1,
      "note": 59,
      "start": 35.1929,
      "duration": 0.3998,
      "velocity": 116,
      "chip": "ym2612"
    },
    {
      "channel": 2,
      "note": 64,
      "start": 35.194,
      "duration": 0.2665,
      "velocity": 94,
      "chip": "ym2612"
    },
    {
      "channel": 3,
      "note": 47,
      "start": 35.199,
      "duration": 0.7959,
      "velocity": 92,
      "chip": "ym2612"
    },
    {
      "channel": 4,
      "note": 76,
      "start": 35.2,
      "duration": 0.2624,
      "velocity": 89,
      "chip": "ym2612"
    },
    {
      "channel": 0,
      "note": 78,
      "start": 35.4585,
      "duration": 2.8666,
      "velocity": 93,
      "chip": "ym2612"
    },
    {
      "channel": 2,
      "note": 64,
      "start": 35.4605,
      "duration": 0.1332,
      "velocity": 94,
      "chip": "ym2612"
    },
    {
      "channel": 4,
      "note": 75,
      "start": 35.4624,
      "duration": 2.8663,
      "velocity": 89,
      "chip": "ym2612"
    },
    {
      "channel": 1,
      "note": 59,
      "start": 35.5927,
      "duration": 0.4001,
      "velocity": 116,
      "chip": "ym2612"
    },
    {
      "channel": 2,
      "note": 64,
      "start": 35.5936,
      "duration": 0.1332,
      "velocity": 94,
      "chip": "ym2612"
    },
    {
      "channel": 2,
      "note": 64,
      "start": 35.7268,
      "duration": 0.1334,
      "velocity": 94,
      "chip": "ym2612"
    },
    {
      "channel": 2,
      "note": 64,
      "start": 35.8602,
      "duration": 0.1337,
      "velocity": 94,
      "chip": "ym2612"
    },
    {
      "channel": 1,
      "note": 58,
      "start": 35.9929,
      "duration": 0.8,
      "velocity": 116,
      "chip": "ym2612"
    },
    {
      "channel": 2,
      "note": 63,
      "start": 35.9939,
      "duration": 0.2663,
      "velocity": 94,
      "chip": "ym2612"
    },
    {
      "channel": 3,
      "note": 42,
      "start": 35.995,
      "duration": 0.8,
      "velocity": 92,
      "chip": "ym2612"
    },
    {
      "channel": 2,
      "note": 63,
      "start": 36.2602,
      "duration": 0.1333,
      "velocity": 94,
      "chip": "ym2612"
    },
    {
      "channel": 2,
      "note": 63,
      "start": 36.3935,
      "duration": 0.2666,
      "velocity": 94,
      "chip": "ym2612"
    },
    {
      "channel": 2,
      "note": 63,
      "start": 36.6601,
      "duration": 0.1338,
      "velocity": 94,
      "chip": "ym2612"
    },
    {
      "channel": 1,
      "note": 57,
      "start": 36.7929,
      "duration": 0.3998,
      "velocity": 116,
      "chip": "ym2612"
    },
    {
      "channel": 2,
      "note": 62,
      "start": 36.7939,
      "duration": 0.2665,
      "velocity": 94,
      "chip": "ym2612"
    },
    {
      "channel": 3,
      "note": 47,
      "start": 36.795,
      "duration": 0.6663,
      "velocity": 92,
      "chip": "ym2612"
    },
    {
      "channel": 2,
      "note": 62,
      "start": 37.0604,
      "duration": 0.1332,
      "velocity": 94,
      "chip": "ym2612"
    },
    {
      "channel": 1,
      "note": 57,
      "start": 37.1927,
      "duration": 0.4002,
      "velocity": 116,
      "chip": "ym2612"
    },
    {
      "channel": 2,
      "note": 62,
      "start": 37.1936,
      "duration": 0.1333,
      "velocity": 94,
      "chip": "ym2612"
    },
    {
      "channel": 2,
      "note": 62,
      "start": 37.3269,
      "duration": 0.1333,
      "velocity": 94,
      "chip": "ym2612"
    },
    {
      "channel": 2,
      "note": 62,
      "start": 37.4603,
      "duration": 0.1337,
      "velocity": 94,
      "chip": "ym2612"
    },
    {
      "channel": 3,
      "note": 44,
      "start": 37.4613,
      "duration": 0.3994,
      "velocity": 92,
      "chip": "ym2612"
    },
    {
      "channel": 1,
      "note": 58,
      "start": 37.593,
      "duration": 0.2663,
      "velocity": 116,
      "chip": "ym2612"
    },
    {
      "channel": 2,
      "note": 63,
      "start": 37.5941,
      "duration": 0.2662,
      "velocity": 94,
      "chip": "ym2612"
    },
    {
      "channel": 1,
      "note": 58,
      "start": 37.8593,
      "duration": 0.5382,
      "velocity": 116,
      "chip": "ym2612"
    },
    {
      "channel": 2,
      "note": 63,
      "start": 37.8603,
      "duration": 0.1334,
      "velocity": 94,
      "chip": "ym2612"
    },
    {
      "channel": 3,
      "note": 42,
      "start": 37.8653,
      "duration": 0.3954,
      "velocity": 103,
      "chip": "ym2612"
    },
    {
      "channel": 2,
      "note": 63,
      "start": 37.9937,
      "duration": 0.2666,
      "velocity": 94,
      "chip": "ym2612"
    },
    {
      "channel": 2,
      "note": 63,
      "start": 38.2603,
      "duration": 0.1383,
      "velocity": 94,
      "chip": "ym2612"
    },
    {
      "channel": 3,
      "note": 42,
      "start": 38.2652,
      "duration": 0.1338,
      "velocity": 100,
      "chip": "ym2612"
    },
    {
      "channel": 0,
      "note": 65,
      "start": 38.3966,
      "duration": 0.2619,
      "velocity": 95,
      "chip": "ym2612"
    },
    {
      "channel": 1,
      "note": 47,
      "start": 38.3976,
      "duration": 0.2628,
      "velocity": 116,
      "chip": "ym2612"
    },
    {
      "channel": 2,
      "note": 64,
      "start": 38.3986,
      "duration": 0.2618,
      "velocity": 94,
      "chip": "ym2612"
    },
    {
      "channel": 3,
      "note": 47,
      "start": 38.4037,
      "duration": 0.2568,
      "velocity": 92,
      "chip": "ym2612"
    },
    {
      "channel": 4,
      "note": 82,
      "start": 38.4103,
      "duration": 0.2501,
      "velocity": 81,
      "chip": "ym2612"
    },
    {
      "channel": 0,
      "note": 64,
      "start": 38.6584,
      "duration": 0.002,
      "velocity": 95,
      "chip": "ym2612"
    },
    {
      "channel": 2,
      "note": 64,
      "start": 38.6604,
      "duration": 0.0,
      "velocity": 94,
      "chip": "ym2612"
    }
  ]
}