{
  "track_name": "05 - RAX's Stage",
  "duration_sec": 63.788,
  "sample_rate": 44100,
  "note_count": 1663,
  "unique_pitches": 38,
  "pitch_range": 46,
  "avg_note_duration": 0.1314,
  "reconstruction_stats": {
    "notes_reconstructed": 1663,
    "keyon_events": 1663,
    "keyoff_events": 1663,
    "orphan_keyons": 0,
    "unique_pitches": 38,
    "pitch_range": 46,
    "avg_duration_sec": 0.1314
  },
  "metadata": {
    "source": "E\\Eternal Champions\\05 - RAX's Stage.vgz"
  },
  "notes": [
    {
      "channel": 0,
      "note": 54,
      "start": 0.0,
      "duration": 0.1254,
      "velocity": 106,
      "chip": "ym2612"
    },
    {
      "channel": 1,
      "note": 61,
      "start": 0.0027,
      "duration": 0.1228,
      "velocity": 106,
      "chip": "ym2612"
    },
    {
      "channel": 5,
      "note": 54,
      "start": 0.0106,
      "duration": 0.0983,
      "velocity": 108,
      "chip": "ym2612"
    },
    {
      "channel": 2,
      "note": 84,
      "start": 0.0315,
      "duration": 0.0221,
      "velocity": 124,
      "chip": "ym2612"
    },
    {
      "channel": 3,
      "note": 46,
      "start": 0.0433,
      "duration": 0.0102,
      "velocity": 117,
      "chip": "ym2612"
    },
    {
      "channel": 0,
      "note": 54,
      "start": 0.2783,
      "duration": 0.1305,
      "velocity": 106,
      "chip": "ym2612"
    },
    {
      "channel": 1,
      "note": 61,
      "start": 0.2808,
      "duration": 0.128,
      "velocity": 106,
      "chip": "ym2612"
    },
    {
      "channel": 5,
      "note": 54,
      "start": 0.2836,
      "duration": 0.1085,
      "velocity": 108,
      "chip": "ym2612"
    },
    {
      "channel": 2,
      "note": 84,
      "start": 0.2867,
      "duration": 0.0389,
      "velocity": 124,
      "chip": "ym2612"
    },
    {
      "channel": 3,
      "note": 46,
      "start": 0.2894,
      "duration": 0.036,
      "velocity": 117,
      "chip": "ym2612"
    },
    {
      "channel": 0,
      "note": 54,
      "start": 0.4118,
      "duration": 0.1302,
      "velocity": 106,
      "chip": "ym2612"
    },
    {
      "channel": 1,
      "note": 61,
      "start": 0.4144,
      "duration": 0.1277,
      "velocity": 106,
      "chip": "ym2612"
    },
    {
      "channel": 5,
      "note": 54,
      "start": 0.4172,
      "duration": 0.1084,
      "velocity": 108,
      "chip": "ym2612"
    },
    {
      "channel": 2,
      "note": 84,
      "start": 0.4202,
      "duration": 0.0389,
      "velocity": 124,
      "chip": "ym2612"
    },
    {
      "channel": 0,
      "note": 54,
      "start": 0.5451,
      "duration": 0.1469,
      "velocity": 106,
      "chip": "ym2612"
    },
    {
      "channel": 1,
      "note": 61,
      "start": 0.5476,
      "duration": 0.1445,
      "velocity": 106,
      "chip": "ym2612"
    },
    {
      "channel": 2,
      "note": 84,
      "start": 0.5507,
      "duration": 0.0582,
      "velocity": 124,
      "chip": "ym2612"
    },
    {
      "channel": 0,
      "note": 54,
      "start": 0.6956,
      "duration": 0.1298,
      "velocity": 106,
      "chip": "ym2612"
    },
    {
      "channel": 1,
      "note": 61,
      "start": 0.6981,
      "duration": 0.1274,
      "velocity": 106,
      "chip": "ym2612"
    },
    {
      "channel": 5,
      "note": 54,
      "start": 0.701,
      "duration": 0.1078,
      "velocity": 108,
      "chip": "ym2612"
    },
    {
      "channel": 2,
      "note": 84,
      "start": 0.7039,
      "duration": 0.0384,
      "velocity": 124,
      "chip": "ym2612"
    },
    {
      "channel": 3,
      "note": 46,
      "start": 0.7066,
      "duration": 0.0355,
      "velocity": 117,
      "chip": "ym2612"
    },
    {
      "channel": 0,
      "note": 52,
      "start": 0.8287,
      "duration": 0.28,
      "velocity": 106,
      "chip": "ym2612"
    },
    {
      "channel": 1,
      "note": 59,
      "start": 0.8312,
      "duration": 0.2776,
      "velocity": 106,
      "chip": "ym2612"
    },
    {
      "channel": 5,
      "note": 54,
      "start": 0.8341,
      "duration": 0.1081,
      "velocity": 108,
      "chip": "ym2612"
    },
    {
      "channel": 2,
      "note": 84,
      "start": 0.8371,
      "duration": 0.0385,
      "velocity": 124,
      "chip": "ym2612"
    },
    {
      "channel": 3,
      "note": 46,
      "start": 0.8399,
      "duration": 0.0356,
      "velocity": 117,
      "chip": "ym2612"
    },
    {
      "channel": 0,
      "note": 49,
      "start": 1.1118,
      "duration": 0.2802,
      "velocity": 106,
      "chip": "ym2612"
    },
    {
      "channel": 1,
      "note": 56,
      "start": 1.1144,
      "duration": 0.2778,
      "velocity": 106,
      "chip": "ym2612"
    },
    {
      "channel": 5,
      "note": 54,
      "start": 1.1172,
      "duration": 0.1082,
      "velocity": 108,
      "chip": "ym2612"
    },
    {
      "channel": 2,
      "note": 84,
      "start": 1.1203,
      "duration": 0.0387,
      "velocity": 124,
      "chip": "ym2612"
    },
    {
      "channel": 3,
      "note": 46,
      "start": 1.123,
      "duration": 0.0357,
      "velocity": 117,
      "chip": "ym2612"
    },
    {
      "channel": 5,
      "note": 54,
      "start": 1.2454,
      "duration": 0.1302,
      "velocity": 108,
      "chip": "ym2612"
    },
    {
      "channel": 2,
      "note": 84,
      "start": 1.2483,
      "duration": 0.0441,
      "velocity": 124,
      "chip": "ym2612"
    },
    {
      "channel": 0,
      "note": 52,
      "start": 1.3952,
      "duration": 0.2635,
      "velocity": 106,
      "chip": "ym2612"
    },
    {
      "channel": 1,
      "note": 59,
      "start": 1.3981,
      "duration": 0.2607,
      "velocity": 106,
      "chip": "ym2612"
    },
    {
      "channel": 2,
      "note": 84,
      "start": 1.4012,
      "duration": 0.0412,
      "velocity": 124,
      "chip": "ym2612"
    },
    {
      "channel": 5,
      "note": 54,
      "start": 1.5286,
      "duration": 0.1136,
      "velocity": 108,
      "chip": "ym2612"
    },
    {
      "channel": 2,
      "note": 84,
      "start": 1.5316,
      "duration": 0.0441,
      "velocity": 124,
      "chip": "ym2612"
    },
    {
      "channel": 3,
      "note": 46,
      "start": 1.5343,
      "duration": 0.0412,
      "velocity": 117,
      "chip": "ym2612"
    },
    {
      "channel": 0,
      "note": 54,
      "start": 1.662,
      "duration": 0.1467,
      "velocity": 106,
      "chip": "ym2612"
    },
    {
      "channel": 1,
      "note": 61,
      "start": 1.6645,
      "duration": 0.1443,
      "velocity": 106,
      "chip": "ym2612"
    },
    {
      "channel": 5,
      "note": 54,
      "start": 1.6678,
      "duration": 0.1245,
      "velocity": 108,
      "chip": "ym2612"
    },
    {
      "channel": 2,
      "note": 84,
      "start": 1.6709,
      "duration": 0.0381,
      "velocity": 124,
      "chip": "ym2612"
    },
    {
      "channel": 3,
      "note": 46,
      "start": 1.6735,
      "duration": 0.0352,
      "velocity": 117,
      "chip": "ym2612"
    },
    {
      "channel": 0,
      "note": 54,
      "start": 1.9449,
      "duration": 0.1305,
      "velocity": 106,
      "chip": "ym2612"
    },
    {
      "channel": 1,
      "note": 61,
      "start": 1.9475,
      "duration": 0.128,
      "velocity": 106,
      "chip": "ym2612"
    },
    {
      "channel": 5,
      "note": 54,
      "start": 1.9503,
      "duration": 0.1085,
      "velocity": 108,
      "chip": "ym2612"
    },
    {
      "channel": 2,
      "note": 84,
      "start": 1.9538,
      "duration": 0.0385,
      "velocity": 124,
      "chip": "ym2612"
    },
    {
      "channel": 3,
      "note": 46,
      "start": 1.9565,
      "duration": 0.0356,
      "velocity": 117,
      "chip": "ym2612"
    },
    {
      "channel": 0,
      "note": 54,
      "start": 2.0785,
      "duration": 0.1469,
      "velocity": 106,
      "chip": "ym2612"
    },
    {
      "channel": 1,
      "note": 61,
      "start": 2.081,
      "duration": 0.1445,
      "velocity": 106,
      "chip": "ym2612"
    },
    {
      "channel": 5,
      "note": 54,
      "start": 2.0839,
      "duration": 0.1249,
      "velocity": 108,
      "chip": "ym2612"
    },
    {
      "channel": 2,
      "note": 84,
      "start": 2.0868,
      "duration": 0.0554,
      "velocity": 124,
      "chip": "ym2612"
    },
    {
      "channel": 0,
      "note": 54,
      "start": 2.2285,
      "duration": 0.1302,
      "velocity": 106,
      "chip": "ym2612"
    },
    {
      "channel": 1,
      "note": 61,
      "start": 2.2314,
      "duration": 0.1274,
      "velocity": 106,
      "chip": "ym2612"
    },
    {
      "channel": 2,
      "note": 84,
      "start": 2.2345,
      "duration": 0.0412,
      "velocity": 124,
      "chip": "ym2612"
    },
    {
      "channel": 0,
      "note": 54,
      "start": 2.3618,
      "duration": 0.1302,
      "velocity": 106,
      "chip": "ym2612"
    },
    {
      "channel": 1,
      "note": 61,
      "start": 2.3644,
      "duration": 0.1278,
      "velocity": 106,
      "chip": "ym2612"
    },
    {
      "channel": 5,
      "note": 54,
      "start": 2.3672,
      "duration": 0.1083,
      "velocity": 108,
      "chip": "ym2612"
    },
    {
      "channel": 2,
      "note": 84,
      "start": 2.3701,
      "duration": 0.0389,
      "velocity": 124,
      "chip": "ym2612"
    },
    {
      "channel": 3,
      "note": 46,
      "start": 2.3732,
      "duration": 0.0355,
      "velocity": 117,
      "chip": "ym2612"
    },
    {
      "channel": 0,
      "note": 57,
      "start": 2.4954,
      "duration": 0.28,
      "velocity": 106,
      "chip": "ym2612"
    },
    {
      "channel": 1,
      "note": 64,
      "start": 2.4979,
      "duration": 0.2775,
      "velocity": 106,
      "chip": "ym2612"
    },
    {
      "channel": 5,
      "note": 54,
      "start": 2.5008,
      "duration": 0.1247,
      "velocity": 108,
      "chip": "ym2612"
    },
    {
      "channel": 2,
      "note": 84,
      "start": 2.5038,
      "duration": 0.0552,
      "velocity": 124,
      "chip": "ym2612"
    },
    {
      "channel": 3,
      "note": 46,
      "start": 2.5066,
      "duration": 0.0522,
      "velocity": 117,
      "chip": "ym2612"
    },
    {
      "channel": 0,
      "note": 59,
      "start": 2.7784,
      "duration": 0.2803,
      "velocity": 106,
      "chip": "ym2612"
    },
    {
      "channel": 1,
      "note": 66,
      "start": 2.781,
      "duration": 0.2779,
      "velocity": 106,
      "chip": "ym2612"
    },
    {
      "channel": 5,
      "note": 54,
      "start": 2.7839,
      "duration": 0.1084,
      "velocity": 108,
      "chip": "ym2612"
    },
    {
      "channel": 2,
      "note": 84,
      "start": 2.7869,
      "duration": 0.0388,
      "velocity": 124,
      "chip": "ym2612"
    },
    {
      "channel": 3,
      "note": 46,
      "start": 2.7896,
      "duration": 0.0358,
      "velocity": 117,
      "chip": "ym2612"
    },
    {
      "channel": 5,
      "note": 54,
      "start": 2.9286,
      "duration": 0.1136,
      "velocity": 108,
      "chip": "ym2612"
    },
    {
      "channel": 2,
      "note": 84,
      "start": 2.9316,
      "duration": 0.0441,
      "velocity": 124,
      "chip": "ym2612"
    },
    {
      "channel": 0,
      "note": 57,
      "start": 3.0622,
      "duration": 0.2798,
      "velocity": 106,
      "chip": "ym2612"
    },
    {
      "channel": 1,
      "note": 64,
      "start": 3.0648,
      "duration": 0.2774,
      "velocity": 106,
      "chip": "ym2612"
    },
    {
      "channel": 2,
      "note": 84,
      "start": 3.0678,
      "duration": 0.0412,
      "velocity": 124,
      "chip": "ym2612"
    },
    {
      "channel": 5,
      "note": 54,
      "start": 3.1953,
      "duration": 0.1303,
      "velocity": 108,
      "chip": "ym2612"
    },
    {
      "channel": 2,
      "note": 84,
      "start": 3.1982,
      "duration": 0.0441,
      "velocity": 124,
      "chip": "ym2612"
    },
    {
      "channel": 3,
      "note": 46,
      "start": 3.201,
      "duration": 0.0411,
      "velocity": 117,
      "chip": "ym2612"
    },
    {
      "channel": 0,
      "note": 54,
      "start": 3.3454,
      "duration": 0.13,
      "velocity": 106,
      "chip": "ym2612"
    },
    {
      "channel": 1,
      "note": 61,
      "start": 3.3478,
      "duration": 0.1277,
      "velocity": 106,
      "chip": "ym2612"
    },
    {
      "channel": 5,
      "note": 54,
      "start": 3.3511,
      "duration": 0.1077,
      "velocity": 108,
      "chip": "ym2612"
    },
    {
      "channel": 2,
      "note": 84,
      "start": 3.3542,
      "duration": 0.0381,
      "velocity": 124,
      "chip": "ym2612"
    },
    {
      "channel": 3,
      "note": 46,
      "start": 3.3569,
      "duration": 0.0352,
      "velocity": 117,
      "chip": "ym2612"
    },
    {
      "channel": 0,
      "note": 54,
      "start": 3.6116,
      "duration": 0.1471,
      "velocity": 106,
      "chip": "ym2612"
    },
    {
      "channel": 1,
      "note": 61,
      "start": 3.6141,
      "duration": 0.1447,
      "velocity": 106,
      "chip": "ym2612"
    },
    {
      "channel": 5,
      "note": 54,
      "start": 3.617,
      "duration": 0.1251,
      "velocity": 108,
      "chip": "ym2612"
    },
    {
      "channel": 2,
      "note": 84,
      "start": 3.62,
      "duration": 0.0389,
      "velocity": 124,
      "chip": "ym2612"
    },
    {
      "channel": 3,
      "note": 46,
      "start": 3.6228,
      "duration": 0.0359,
      "velocity": 117,
      "chip": "ym2612"
    },
    {
      "channel": 0,
      "note": 54,
      "start": 3.7618,
      "duration": 0.1303,
      "velocity": 106,
      "chip": "ym2612"
    },
    {
      "channel": 1,
      "note": 61,
      "start": 3.7644,
      "duration": 0.1279,
      "velocity": 106,
      "chip": "ym2612"
    },
    {
      "channel": 5,
      "note": 54,
      "start": 3.7672,
      "duration": 0.1083,
      "velocity": 108,
      "chip": "ym2612"
    },
    {
      "channel": 2,
      "note": 84,
      "start": 3.7702,
      "duration": 0.0389,
      "velocity": 124,
      "chip": "ym2612"
    },
    {
      "channel": 0,
      "note": 54,
      "start": 3.8956,
      "duration": 0.1298,
      "velocity": 106,
      "chip": "ym2612"
    },
    {
      "channel": 1,
      "note": 61,
      "start": 3.8982,
      "duration": 0.1274,
      "velocity": 106,
      "chip": "ym2612"
    },
    {
      "channel": 2,
      "note": 84,
      "start": 3.9017,
      "duration": 0.0406,
      "velocity": 124,
      "chip": "ym2612"
    },
    {
      "channel": 0,
      "note": 54,
      "start": 4.0286,
      "duration": 0.1468,
      "velocity": 106,
      "chip": "ym2612"
    },
    {
      "channel": 1,
      "note": 61,
      "start": 4.0311,
      "duration": 0.1444,
      "velocity": 106,
      "chip": "ym2612"
    },
    {
      "channel": 5,
      "note": 54,
      "start": 4.034,
      "duration": 0.1249,
      "velocity": 108,
      "chip": "ym2612"
    },
    {
      "channel": 2,
      "note": 84,
      "start": 4.0369,
      "duration": 0.0555,
      "velocity": 124,
      "chip": "ym2612"
    },
    {
      "channel": 3,
      "note": 46,
      "start": 4.0396,
      "duration": 0.0525,
      "velocity": 117,
      "chip": "ym2612"
    },
    {
      "channel": 0,
      "note": 52,
      "start": 4.1787,
      "duration": 0.2634,
      "velocity": 106,
      "chip": "ym2612"
    },
    {
      "channel": 1,
      "note": 59,
      "start": 4.1812,
      "duration": 0.261,
      "velocity": 106,
      "chip": "ym2612"
    },
    {
      "channel": 5,
      "note": 54,
      "start": 4.184,
      "duration": 0.1081,
      "velocity": 108,
      "chip": "ym2612"
    },
    {
      "channel": 2,
      "note": 84,
      "start": 4.1871,
      "duration": 0.0385,
      "velocity": 124,
      "chip": "ym2612"
    },
    {
      "channel": 3,
      "note": 46,
      "start": 4.1898,
      "duration": 0.0356,
      "velocity": 117,
      "chip": "ym2612"
    },
    {
      "channel": 0,
      "note": 49,
      "start": 4.4452,
      "duration": 0.2802,
      "velocity": 106,
      "chip": "ym2612"
    },
    {
      "channel": 1,
      "note": 56,
      "start": 4.4481,
      "duration": 0.2773,
      "velocity": 106,
      "chip": "ym2612"
    },
    {
      "channel": 5,
      "note": 54,
      "start": 4.451,
      "duration": 0.1246,
      "velocity": 108,
      "chip": "ym2612"
    },
    {
      "channel": 2,
      "note": 84,
      "start": 4.454,
      "duration": 0.055,
      "velocity": 124,
      "chip": "ym2612"
    },
    {
      "channel": 3,
      "note": 46,
      "start": 4.4571,
      "duration": 0.0517,
      "velocity": 117,
      "chip": "ym2612"
    },
    {
      "channel": 5,
      "note": 54,
      "start": 4.5953,
      "duration": 0.1137,
      "velocity": 108,
      "chip": "ym2612"
    },
    {
      "channel": 2,
      "note": 84,
      "start": 4.5982,
      "duration": 0.0441,
      "velocity": 124,
      "chip": "ym2612"
    },
    {
      "channel": 0,
      "note": 52,
      "start": 4.7284,
      "duration": 0.2803,
      "velocity": 106,
      "chip": "ym2612"
    },
    {
      "channel": 1,
      "note": 59,
      "start": 4.731,
      "duration": 0.2779,
      "velocity": 106,
      "chip": "ym2612"
    },
    {
      "channel": 2,
      "note": 84,
      "start": 4.734,
      "duration": 0.0417,
      "velocity": 124,
      "chip": "ym2612"
    },
    {
      "channel": 5,
      "note": 54,
      "start": 4.8787,
      "duration": 0.1134,
      "velocity": 108,
      "chip": "ym2612"
    },
    {
      "channel": 2,
      "note": 84,
      "start": 4.8816,
      "duration": 0.044,
      "velocity": 124,
      "chip": "ym2612"
    },
    {
      "channel": 3,
      "note": 46,
      "start": 4.8844,
      "duration": 0.041,
      "velocity": 117,
      "chip": "ym2612"
    },
    {
      "channel": 0,
      "note": 54,
      "start": 5.012,
      "duration": 0.13,
      "velocity": 106,
      "chip": "ym2612"
    },
    {
      "channel": 1,
      "note": 61,
      "start": 5.0146,
      "duration": 0.1276,
      "velocity": 106,
      "chip": "ym2612"
    },
    {
      "channel": 5,
      "note": 54,
      "start": 5.0178,
      "duration": 0.1078,
      "velocity": 108,
      "chip": "ym2612"
    },
    {
      "channel": 2,
      "note": 84,
      "start": 5.0209,
      "duration": 0.0382,
      "velocity": 124,
      "chip": "ym2612"
    },
    {
      "channel": 3,
      "note": 46,
      "start": 5.0236,
      "duration": 0.0352,
      "velocity": 117,
      "chip": "ym2612"
    },
    {
      "channel": 0,
      "note": 54,
      "start": 5.2949,
      "duration": 0.1305,
      "velocity": 106,
      "chip": "ym2612"
    },
    {
      "channel": 1,
      "note": 61,
      "start": 5.2975,
      "duration": 0.128,
      "velocity": 106,
      "chip": "ym2612"
    },
    {
      "channel": 5,
      "note": 54,
      "start": 5.3003,
      "duration": 0.1085,
      "velocity": 108,
      "chip": "ym2612"
    },
    {
      "channel": 2,
      "note": 84,
      "start": 5.3034,
      "duration": 0.0389,
      "velocity": 124,
      "chip": "ym2612"
    },
    {
      "channel": 3,
      "note": 46,
      "start": 5.3061,
      "duration": 0.0359,
      "velocity": 117,
      "chip": "ym2612"
    },
    {
      "channel": 0,
      "note": 52,
      "start": 5.4285,
      "duration": 0.1302,
      "velocity": 106,
      "chip": "ym2612"
    },
    {
      "channel": 1,
      "note": 59,
      "start": 5.4315,
      "duration": 0.1273,
      "velocity": 106,
      "chip": "ym2612"
    },
    {
      "channel": 5,
      "note": 54,
      "start": 5.4343,
      "duration": 0.108,
      "velocity": 108,
      "chip": "ym2612"
    },
    {
      "channel": 2,
      "note": 84,
      "start": 5.4372,
      "duration": 0.0385,
      "velocity": 124,
      "chip": "ym2612"
    },
    {
      "channel": 0,
      "note": 49,
      "start": 5.5618,
      "duration": 0.147,
      "velocity": 106,
      "chip": "ym2612"
    },
    {
      "channel": 1,
      "note": 56,
      "start": 5.5643,
      "duration": 0.1446,
      "velocity": 106,
      "chip": "ym2612"
    },
    {
      "channel": 2,
      "note": 84,
      "start": 5.5674,
      "duration": 0.0417,
      "velocity": 124,
      "chip": "ym2612"
    },
    {
      "channel": 0,
      "note": 52,
      "start": 5.7119,
      "duration": 0.1301,
      "velocity": 106,
      "chip": "ym2612"
    },
    {
      "channel": 1,
      "note": 59,
      "start": 5.7144,
      "duration": 0.1277,
      "velocity": 106,
      "chip": "ym2612"
    },
    {
      "channel": 5,
      "note": 54,
      "start": 5.7173,
      "duration": 0.1081,
      "velocity": 108,
      "chip": "ym2612"
    },
    {
      "channel": 2,
      "note": 84,
      "start": 5.7202,
      "duration": 0.0388,
      "velocity": 124,
      "chip": "ym2612"
    },
    {
      "channel": 3,
      "note": 46,
      "start": 5.7229,
      "duration": 0.0358,
      "velocity": 117,
      "chip": "ym2612"
    },
    {
      "channel": 0,
      "note": 54,
      "start": 5.8452,
      "duration": 0.1302,
      "velocity": 106,
      "chip": "ym2612"
    },
    {
      "channel": 1,
      "note": 61,
      "start": 5.8477,
      "duration": 0.1278,
      "velocity": 106,
      "chip": "ym2612"
    },
    {
      "channel": 5,
      "note": 49,
      "start": 5.8507,
      "duration": 0.3914,
      "velocity": 108,
      "chip": "ym2612"
    },
    {
      "channel": 2,
      "note": 84,
      "start": 5.8542,
      "duration": 0.0381,
      "velocity": 124,
      "chip": "ym2612"
    },
    {
      "channel": 3,
      "note": 46,
      "start": 5.8569,
      "duration": 0.0352,
      "velocity": 117,
      "chip": "ym2612"
    },
    {
      "channel": 0,
      "note": 54,
      "start": 6.1283,
      "duration": 0.1304,
      "velocity": 106,
      "chip": "ym2612"
    },
    {
      "channel": 1,
      "note": 61,
      "start": 6.1312,
      "duration": 0.1276,
      "velocity": 106,
      "chip": "ym2612"
    },
    {
      "channel": 2,
      "note": 84,
      "start": 6.1345,
      "duration": 0.0412,
      "velocity": 124,
      "chip": "ym2612"
    },
    {
      "channel": 3,
      "note": 46,
      "start": 6.1371,
      "duration": 0.0382,
      "velocity": 117,
      "chip": "ym2612"
    },
    {
      "channel": 0,
      "note": 52,
      "start": 6.2618,
      "duration": 0.1469,
      "velocity": 106,
      "chip": "ym2612"
    },
    {
      "channel": 1,
      "note": 59,
      "start": 6.2644,
      "duration": 0.1445,
      "velocity": 106,
      "chip": "ym2612"
    },
    {
      "channel": 5,
      "note": 52,
      "start": 6.2671,
      "duration": 0.3919,
      "velocity": 108,
      "chip": "ym2612"
    },
    {
      "channel": 2,
      "note": 84,
      "start": 6.27,
      "duration": 0.039,
      "velocity": 124,
      "chip": "ym2612"
    },
    {
      "channel": 0,
      "note": 49,
      "start": 6.4118,
      "duration": 0.1302,
      "velocity": 106,
      "chip": "ym2612"
    },
    {
      "channel": 1,
      "note": 56,
      "start": 6.4144,
      "duration": 0.1278,
      "velocity": 106,
      "chip": "ym2612"
    },
    {
      "channel": 2,
      "note": 84,
      "start": 6.4174,
      "duration": 0.0415,
      "velocity": 124,
      "chip": "ym2612"
    },
    {
      "channel": 0,
      "note": 52,
      "start": 6.5452,
      "duration": 0.1302,
      "velocity": 106,
      "chip": "ym2612"
    },
    {
      "channel": 1,
      "note": 59,
      "start": 6.5477,
      "duration": 0.1278,
      "velocity": 106,
      "chip": "ym2612"
    },
    {
      "channel": 2,
      "note": 84,
      "start": 6.5507,
      "duration": 0.0417,
      "velocity": 124,
      "chip": "ym2612"
    },
    {
      "channel": 3,
      "note": 46,
      "start": 6.5534,
      "duration": 0.0387,
      "velocity": 117,
      "chip": "ym2612"
    },
    {
      "channel": 0,
      "note": 54,
      "start": 6.6785,
      "duration": 0.1468,
      "velocity": 106,
      "chip": "ym2612"
    },
    {
      "channel": 1,
      "note": 61,
      "start": 6.6814,
      "duration": 0.144,
      "velocity": 106,
      "chip": "ym2612"
    },
    {
      "channel": 5,
      "note": 54,
      "start": 6.6844,
      "duration": 0.1244,
      "velocity": 108,
      "chip": "ym2612"
    },
    {
      "channel": 4,
      "note": 73,
      "start": 6.6883,
      "duration": 2.0873,
      "velocity": 107,
      "chip": "ym2612"
    },
    {
      "channel": 2,
      "note": 84,
      "start": 6.6914,
      "duration": 0.0343,
      "velocity": 124,
      "chip": "ym2612"
    },
    {
      "channel": 3,
      "note": 46,
      "start": 6.6949,
      "duration": 0.0305,
      "velocity": 117,
      "chip": "ym2612"
    },
    {
      "channel": 0,
      "note": 54,
      "start": 6.9616,
      "duration": 0.1304,
      "velocity": 106,
      "chip": "ym2612"
    },
    {
      "channel": 1,
      "note": 61,
      "start": 6.9642,
      "duration": 0.1279,
      "velocity": 106,
      "chip": "ym2612"
    },
    {
      "channel": 5,
      "note": 54,
      "start": 6.967,
      "duration": 0.1085,
      "velocity": 108,
      "chip": "ym2612"
    },
    {
      "channel": 2,
      "note": 84,
      "start": 6.9701,
      "duration": 0.0389,
      "velocity": 124,
      "chip": "ym2612"
    },
    {
      "channel": 3,
      "note": 46,
      "start": 6.9726,
      "duration": 0.0361,
      "velocity": 117,
      "chip": "ym2612"
    },
    {
      "channel": 0,
      "note": 54,
      "start": 7.0951,
      "duration": 0.1469,
      "velocity": 106,
      "chip": "ym2612"
    },
    {
      "channel": 1,
      "note": 61,
      "start": 7.0976,
      "duration": 0.1445,
      "velocity": 106,
      "chip": "ym2612"
    },
    {
      "channel": 5,
      "note": 54,
      "start": 7.1007,
      "duration": 0.1249,
      "velocity": 108,
      "chip": "ym2612"
    },
    {
      "channel": 2,
      "note": 84,
      "start": 7.1036,
      "duration": 0.0387,
      "velocity": 124,
      "chip": "ym2612"
    },
    {
      "channel": 0,
      "note": 54,
      "start": 7.2451,
      "duration": 0.1303,
      "velocity": 106,
      "chip": "ym2612"
    },
    {
      "channel": 1,
      "note": 61,
      "start": 7.2476,
      "duration": 0.1279,
      "velocity": 106,
      "chip": "ym2612"
    },
    {
      "channel": 5,
      "note": 54,
      "start": 7.2503,
      "duration": 0.1086,
      "velocity": 108,
      "chip": "ym2612"
    },
    {
      "channel": 2,
      "note": 84,
      "start": 7.2532,
      "duration": 0.0391,
      "velocity": 124,
      "chip": "ym2612"
    },
    {
      "channel": 3,
      "note": 46,
      "start": 7.2559,
      "duration": 0.0362,
      "velocity": 117,
      "chip": "ym2612"
    },
    {
      "channel": 0,
      "note": 54,
      "start": 7.3786,
      "duration": 0.1301,
      "velocity": 106,
      "chip": "ym2612"
    },
    {
      "channel": 1,
      "note": 61,
      "start": 7.3815,
      "duration": 0.1273,
      "velocity": 106,
      "chip": "ym2612"
    },
    {
      "channel": 5,
      "note": 54,
      "start": 7.3842,
      "duration": 0.1081,
      "velocity": 108,
      "chip": "ym2612"
    },
    {
      "channel": 2,
      "note": 84,
      "start": 7.3871,
      "duration": 0.0385,
      "velocity": 124,
      "chip": "ym2612"
    },
    {
      "channel": 3,
      "note": 46,
      "start": 7.3896,
      "duration": 0.0358,
      "velocity": 117,
      "chip": "ym2612"
    },
    {
      "channel": 0,
      "note": 52,
      "start": 7.512,
      "duration": 0.28,
      "velocity": 106,
      "chip": "ym2612"
    },
    {
      "channel": 1,
      "note": 59,
      "start": 7.5146,
      "duration": 0.2776,
      "velocity": 106,
      "chip": "ym2612"
    },
    {
      "channel": 5,
      "note": 54,
      "start": 7.5174,
      "duration": 0.1248,
      "velocity": 108,
      "chip": "ym2612"
    },
    {
      "channel": 2,
      "note": 84,
      "start": 7.5205,
      "duration": 0.0552,
      "velocity": 124,
      "chip": "ym2612"
    },
    {
      "channel": 3,
      "note": 46,
      "start": 7.5232,
      "duration": 0.0522,
      "velocity": 117,
      "chip": "ym2612"
    },
    {
      "channel": 0,
      "note": 49,
      "start": 7.7952,
      "duration": 0.2802,
      "velocity": 106,
      "chip": "ym2612"
    },
    {
      "channel": 1,
      "note": 56,
      "start": 7.7977,
      "duration": 0.2778,
      "velocity": 106,
      "chip": "ym2612"
    },
    {
      "channel": 5,
      "note": 54,
      "start": 7.8005,
      "duration": 0.1083,
      "velocity": 108,
      "chip": "ym2612"
    },
    {
      "channel": 2,
      "note": 84,
      "start": 7.804,
      "duration": 0.0383,
      "velocity": 124,
      "chip": "ym2612"
    },
    {
      "channel": 3,
      "note": 46,
      "start": 7.8066,
      "duration": 0.0356,
      "velocity": 117,
      "chip": "ym2612"
    },
    {
      "channel": 5,
      "note": 54,
      "start": 7.9284,
      "duration": 0.1306,
      "velocity": 108,
      "chip": "ym2612"
    },
    {
      "channel": 2,
      "note": 84,
      "start": 7.9313,
      "duration": 0.0611,
      "velocity": 124,
      "chip": "ym2612"
    },
    {
      "channel": 0,
      "note": 52,
      "start": 8.0785,
      "duration": 0.2802,
      "velocity": 106,
      "chip": "ym2612"
    },
    {
      "channel": 1,
      "note": 59,
      "start": 8.081,
      "duration": 0.2778,
      "velocity": 106,
      "chip": "ym2612"
    },
    {
      "channel": 5,
      "note": 54,
      "start": 8.0837,
      "duration": 0.1086,
      "velocity": 108,
      "chip": "ym2612"
    },
    {
      "channel": 2,
      "note": 84,
      "start": 8.0866,
      "duration": 0.0391,
      "velocity": 124,
      "chip": "ym2612"
    },
    {
      "channel": 3,
      "note": 46,
      "start": 8.0893,
      "duration": 0.0362,
      "velocity": 117,
      "chip": "ym2612"
    },
    {
      "channel": 5,
      "note": 54,
      "start": 8.2118,
      "duration": 0.1137,
      "velocity": 108,
      "chip": "ym2612"
    },
    {
      "channel": 2,
      "note": 84,
      "start": 8.2148,
      "duration": 0.0443,
      "velocity": 124,
      "chip": "ym2612"
    },
    {
      "channel": 3,
      "note": 46,
      "start": 8.2173,
      "duration": 0.0415,
      "velocity": 117,
      "chip": "ym2612"
    },
    {
      "channel": 0,
      "note": 54,
      "start": 8.3624,
      "duration": 0.1296,
      "velocity": 106,
      "chip": "ym2612"
    },
    {
      "channel": 1,
      "note": 61,
      "start": 8.3649,
      "duration": 0.1272,
      "velocity": 106,
      "chip": "ym2612"
    },
    {
      "channel": 5,
      "note": 54,
      "start": 8.3678,
      "duration": 0.1078,
      "velocity": 108,
      "chip": "ym2612"
    },
    {
      "channel": 2,
      "note": 84,
      "start": 8.3709,
      "duration": 0.0381,
      "velocity": 124,
      "chip": "ym2612"
    },
    {
      "channel": 3,
      "note": 46,
      "start": 8.3735,
      "duration": 0.0352,
      "velocity": 117,
      "chip": "ym2612"
    },
    {
      "channel": 0,
      "note": 54,
      "start": 8.6283,
      "duration": 0.147,
      "velocity": 106,
      "chip": "ym2612"
    },
    {
      "channel": 1,
      "note": 61,
      "start": 8.6309,
      "duration": 0.1446,
      "velocity": 106,
      "chip": "ym2612"
    },
    {
      "channel": 5,
      "note": 54,
      "start": 8.6337,
      "duration": 0.1252,
      "velocity": 108,
      "chip": "ym2612"
    },
    {
      "channel": 2,
      "note": 84,
      "start": 8.6368,
      "duration": 0.0389,
      "velocity": 124,
      "chip": "ym2612"
    },
    {
      "channel": 3,
      "note": 46,
      "start": 8.6393,
      "duration": 0.0361,
      "velocity": 117,
      "chip": "ym2612"
    },
    {
      "channel": 0,
      "note": 54,
      "start": 8.7785,
      "duration": 0.1302,
      "velocity": 106,
      "chip": "ym2612"
    },
    {
      "channel": 1,
      "note": 61,
      "start": 8.781,
      "duration": 0.1278,
      "velocity": 106,
      "chip": "ym2612"
    },
    {
      "channel": 5,
      "note": 54,
      "start": 8.7837,
      "duration": 0.1085,
      "velocity": 108,
      "chip": "ym2612"
    },
    {
      "channel": 2,
      "note": 84,
      "start": 8.7866,
      "duration": 0.039,
      "velocity": 124,
      "chip": "ym2612"
    },
    {
      "channel": 0,
      "note": 54,
      "start": 8.9118,
      "duration": 0.1303,
      "velocity": 106,
      "chip": "ym2612"
    },
    {
      "channel": 1,
      "note": 61,
      "start": 8.9144,
      "duration": 0.1279,
      "velocity": 106,
      "chip": "ym2612"
    },
    {
      "channel": 5,
      "note": 54,
      "start": 8.9171,
      "duration": 0.1085,
      "velocity": 108,
      "chip": "ym2612"
    },
    {
      "channel": 2,
      "note": 84,
      "start": 8.92,
      "duration": 0.0391,
      "velocity": 124,
      "chip": "ym2612"
    },
    {
      "channel": 3,
      "note": 46,
      "start": 8.9227,
      "duration": 0.0362,
      "velocity": 117,
      "chip": "ym2612"
    },
    {
      "channel": 0,
      "note": 54,
      "start": 9.0456,
      "duration": 0.1464,
      "velocity": 106,
      "chip": "ym2612"
    },
    {
      "channel": 1,
      "note": 61,
      "start": 9.0482,
      "duration": 0.1439,
      "velocity": 106,
      "chip": "ym2612"
    },
    {
      "channel": 5,
      "note": 54,
      "start": 9.0512,
      "duration": 0.1243,
      "velocity": 108,
      "chip": "ym2612"
    },
    {
      "channel": 2,
      "note": 84,
      "start": 9.0541,
      "duration": 0.0382,
      "velocity": 124,
      "chip": "ym2612"
    },
    {
      "channel": 3,
      "note": 46,
      "start": 9.0571,
      "duration": 0.035,
      "velocity": 117,
      "chip": "ym2612"
    },
    {
      "channel": 0,
      "note": 57,
      "start": 9.1953,
      "duration": 0.2634,
      "velocity": 106,
      "chip": "ym2612"
    },
    {
      "channel": 1,
      "note": 64,
      "start": 9.1978,
      "duration": 0.261,
      "velocity": 106,
      "chip": "ym2612"
    },
    {
      "channel": 5,
      "note": 54,
      "start": 9.2006,
      "duration": 0.1082,
      "velocity": 108,
      "chip": "ym2612"
    },
    {
      "channel": 4,
      "note": 72,
      "start": 9.2036,
      "duration": 0.3885,
      "velocity": 107,
      "chip": "ym2612"
    },
    {
      "channel": 2,
      "note": 84,
      "start": 9.2066,
      "duration": 0.0358,
      "velocity": 124,
      "chip": "ym2612"
    },
    {
      "channel": 3,
      "note": 46,
      "start": 9.2097,
      "duration": 0.0324,
      "velocity": 117,
      "chip": "ym2612"
    },
    {
      "channel": 0,
      "note": 59,
      "start": 9.4618,
      "duration": 0.2802,
      "velocity": 106,
      "chip": "ym2612"
    },
    {
      "channel": 1,
      "note": 66,
      "start": 9.4644,
      "duration": 0.2778,
      "velocity": 106,
      "chip": "ym2612"
    },
    {
      "channel": 5,
      "note": 54,
      "start": 9.4672,
      "duration": 0.1251,
      "velocity": 108,
      "chip": "ym2612"
    },
    {
      "channel": 2,
      "note": 84,
      "start": 9.4703,
      "duration": 0.0554,
      "velocity": 124,
      "chip": "ym2612"
    },
    {
      "channel": 3,
      "note": 46,
      "start": 9.4728,
      "duration": 0.0527,
      "velocity": 117,
      "chip": "ym2612"
    },
    {
      "channel": 5,
      "note": 54,
      "start": 9.6118,
      "duration": 0.1139,
      "velocity": 108,
      "chip": "ym2612"
    },
    {
      "channel": 4,
      "note": 76,
      "start": 9.6144,
      "duration": 0.3945,
      "velocity": 107,
      "chip": "ym2612"
    },
    {
      "channel": 2,
      "note": 84,
      "start": 9.6176,
      "duration": 0.0414,
      "velocity": 124,
      "chip": "ym2612"
    },
    {
      "channel": 0,
      "note": 57,
      "start": 9.7452,
      "duration": 0.2802,
      "velocity": 106,
      "chip": "ym2612"
    },
    {
      "channel": 1,
      "note": 64,
      "start": 9.7481,
      "duration": 0.2773,
      "velocity": 106,
      "chip": "ym2612"
    },
    {
      "channel": 5,
      "note": 54,
      "start": 9.7508,
      "duration": 0.1082,
      "velocity": 108,
      "chip": "ym2612"
    },
    {
      "channel": 2,
      "note": 84,
      "start": 9.7537,
      "duration": 0.0387,
      "velocity": 124,
      "chip": "ym2612"
    },
    {
      "channel": 3,
      "note": 46,
      "start": 9.7564,
      "duration": 0.0358,
      "velocity": 117,
      "chip": "ym2612"
    },
    {
      "channel": 5,
      "note": 54,
      "start": 9.8784,
      "duration": 0.1306,
      "velocity": 108,
      "chip": "ym2612"
    },
    {
      "channel": 2,
      "note": 84,
      "start": 9.8814,
      "duration": 0.061,
      "velocity": 124,
      "chip": "ym2612"
    },
    {
      "channel": 3,
      "note": 46,
      "start": 9.8839,
      "duration": 0.0582,
      "velocity": 117,
      "chip": "ym2612"
    },
    {
      "channel": 0,
      "note": 54,
      "start": 10.0286,
      "duration": 0.13,
      "velocity": 106,
      "chip": "ym2612"
    },
    {
      "channel": 1,
      "note": 61,
      "start": 10.0312,
      "duration": 0.1276,
      "velocity": 106,
      "chip": "ym2612"
    },
    {
      "channel": 5,
      "note": 54,
      "start": 10.034,
      "duration": 0.1082,
      "velocity": 108,
      "chip": "ym2612"
    },
    {
      "channel": 4,
      "note": 73,
      "start": 10.0373,
      "duration": 2.0717,
      "velocity": 107,
      "chip": "ym2612"
    },
    {
      "channel": 2,
      "note": 84,
      "start": 10.0403,
      "duration": 0.0354,
      "velocity": 124,
      "chip": "ym2612"
    },
    {
      "channel": 3,
      "note": 46,
      "start": 10.0434,
      "duration": 0.0321,
      "velocity": 117,
      "chip": "ym2612"
    },
    {
      "channel": 0,
      "note": 54,
      "start": 10.3116,
      "duration": 0.1304,
      "velocity": 106,
      "chip": "ym2612"
    },
    {
      "channel": 1,
      "note": 61,
      "start": 10.3142,
      "duration": 0.1279,
      "velocity": 106,
      "chip": "ym2612"
    },
    {
      "channel": 5,
      "note": 54,
      "start": 10.317,
      "duration": 0.1085,
      "velocity": 108,
      "chip": "ym2612"
    },
    {
      "channel": 2,
      "note": 84,
      "start": 10.3201,
      "duration": 0.0389,
      "velocity": 124,
      "chip": "ym2612"
    },
    {
      "channel": 3,
      "note": 46,
      "start": 10.3226,
      "duration": 0.0361,
      "velocity": 117,
      "chip": "ym2612"
    },
    {
      "channel": 0,
      "note": 54,
      "start": 10.4451,
      "duration": 0.1303,
      "velocity": 106,
      "chip": "ym2612"
    },
    {
      "channel": 1,
      "note": 61,
      "start": 10.4476,
      "duration": 0.1279,
      "velocity": 106,
      "chip": "ym2612"
    },
    {
      "channel": 5,
      "note": 54,
      "start": 10.4503,
      "duration": 0.1086,
      "velocity": 108,
      "chip": "ym2612"
    },
    {
      "channel": 2,
      "note": 84,
      "start": 10.4532,
      "duration": 0.0391,
      "velocity": 124,
      "chip": "ym2612"
    },
    {
      "channel": 0,
      "note": 54,
      "start": 10.5786,
      "duration": 0.1468,
      "velocity": 106,
      "chip": "ym2612"
    },
    {
      "channel": 1,
      "note": 61,
      "start": 10.5815,
      "duration": 0.144,
      "velocity": 106,
      "chip": "ym2612"
    },
    {
      "channel": 5,
      "note": 54,
      "start": 10.5842,
      "duration": 0.1247,
      "velocity": 108,
      "chip": "ym2612"
    },
    {
      "channel": 2,
      "note": 84,
      "start": 10.5871,
      "duration": 0.0387,
      "velocity": 124,
      "chip": "ym2612"
    },
    {
      "channel": 3,
      "note": 46,
      "start": 10.5898,
      "duration": 0.0358,
      "velocity": 117,
      "chip": "ym2612"
    },
    {
      "channel": 0,
      "note": 54,
      "start": 10.7285,
      "duration": 0.1302,
      "velocity": 106,
      "chip": "ym2612"
    },
    {
      "channel": 1,
      "note": 61,
      "start": 10.731,
      "duration": 0.1277,
      "velocity": 106,
      "chip": "ym2612"
    },
    {
      "channel": 5,
      "note": 54,
      "start": 10.7337,
      "duration": 0.1085,
      "velocity": 108,
      "chip": "ym2612"
    },
    {
      "channel": 2,
      "note": 84,
      "start": 10.7366,
      "duration": 0.039,
      "velocity": 124,
      "chip": "ym2612"
    },
    {
      "channel": 3,
      "note": 46,
      "start": 10.7391,
      "duration": 0.0363,
      "velocity": 117,
      "chip": "ym2612"
    },
    {
      "channel": 0,
      "note": 52,
      "start": 10.862,
      "duration": 0.28,
      "velocity": 106,
      "chip": "ym2612"
    },
    {
      "channel": 1,
      "note": 59,
      "start": 10.8645,
      "duration": 0.2776,
      "velocity": 106,
      "chip": "ym2612"
    },
    {
      "channel": 5,
      "note": 54,
      "start": 10.8677,
      "duration": 0.1079,
      "velocity": 108,
      "chip": "ym2612"
    },
    {
      "channel": 2,
      "note": 84,
      "start": 10.8708,
      "duration": 0.0382,
      "velocity": 124,
      "chip": "ym2612"
    },
    {
      "channel": 3,
      "note": 46,
      "start": 10.8735,
      "duration": 0.0353,
      "velocity": 117,
      "chip": "ym2612"
    },
    {
      "channel": 0,
      "note": 49,
      "start": 11.1451,
      "duration": 0.2637,
      "velocity": 106,
      "chip": "ym2612"
    },
    {
      "channel": 1,
      "note": 56,
      "start": 11.1476,
      "duration": 0.2613,
      "velocity": 106,
      "chip": "ym2612"
    },
    {
      "channel": 5,
      "note": 54,
      "start": 11.1505,
      "duration": 0.1084,
      "velocity": 108,
      "chip": "ym2612"
    },
    {
      "channel": 2,
      "note": 84,
      "start": 11.1535,
      "duration": 0.0388,
      "velocity": 124,
      "chip": "ym2612"
    },
    {
      "channel": 3,
      "note": 46,
      "start": 11.1561,
      "duration": 0.036,
      "velocity": 117,
      "chip": "ym2612"
    },
    {
      "channel": 5,
      "note": 54,
      "start": 11.2784,
      "duration": 0.1139,
      "velocity": 108,
      "chip": "ym2612"
    },
    {
      "channel": 2,
      "note": 84,
      "start": 11.2813,
      "duration": 0.0444,
      "velocity": 124,
      "chip": "ym2612"
    },
    {
      "channel": 0,
      "note": 52,
      "start": 11.4123,
      "duration": 0.2798,
      "velocity": 106,
      "chip": "ym2612"
    },
    {
      "channel": 1,
      "note": 59,
      "start": 11.4148,
      "duration": 0.2773,
      "velocity": 106,
      "chip": "ym2612"
    },
    {
      "channel": 5,
      "note": 54,
      "start": 11.4175,
      "duration": 0.1247,
      "velocity": 108,
      "chip": "ym2612"
    },
    {
      "channel": 2,
      "note": 84,
      "start": 11.4204,
      "duration": 0.0553,
      "velocity": 124,
      "chip": "ym2612"
    },
    {
      "channel": 3,
      "note": 46,
      "start": 11.4235,
      "duration": 0.0521,
      "velocity": 117,
      "chip": "ym2612"
    },
    {
      "channel": 5,
      "note": 54,
      "start": 11.5618,
      "duration": 0.1137,
      "velocity": 108,
      "chip": "ym2612"
    },
    {
      "channel": 2,
      "note": 84,
      "start": 11.5651,
      "duration": 0.0438,
      "velocity": 124,
      "chip": "ym2612"
    },
    {
      "channel": 3,
      "note": 46,
      "start": 11.5677,
      "duration": 0.041,
      "velocity": 117,
      "chip": "ym2612"
    },
    {
      "channel": 0,
      "note": 54,
      "start": 11.6954,
      "duration": 0.1466,
      "velocity": 106,
      "chip": "ym2612"
    },
    {
      "channel": 1,
      "note": 61,
      "start": 11.6979,
      "duration": 0.1442,
      "velocity": 106,
      "chip": "ym2612"
    },
    {
      "channel": 5,
      "note": 54,
      "start": 11.7007,
      "duration": 0.1081,
      "velocity": 108,
      "chip": "ym2612"
    },
    {
      "channel": 2,
      "note": 84,
      "start": 11.7038,
      "duration": 0.0385,
      "velocity": 124,
      "chip": "ym2612"
    },
    {
      "channel": 3,
      "note": 46,
      "start": 11.7063,
      "duration": 0.0357,
      "velocity": 117,
      "chip": "ym2612"
    },
    {
      "channel": 3,
      "note": 46,
      "start": 11.8457,
      "duration": 0.0465,
      "velocity": 117,
      "chip": "ym2612"
    },
    {
      "channel": 0,
      "note": 54,
      "start": 11.9783,
      "duration": 0.1304,
      "velocity": 106,
      "chip": "ym2612"
    },
    {
      "channel": 1,
      "note": 61,
      "start": 11.9809,
      "duration": 0.128,
      "velocity": 106,
      "chip": "ym2612"
    },
    {
      "channel": 5,
      "note": 54,
      "start": 11.9837,
      "duration": 0.1086,
      "velocity": 108,
      "chip": "ym2612"
    },
    {
      "channel": 2,
      "note": 84,
      "start": 11.9868,
      "duration": 0.0389,
      "velocity": 124,
      "chip": "ym2612"
    },
    {
      "channel": 3,
      "note": 46,
      "start": 11.9894,
      "duration": 0.036,
      "velocity": 117,
      "chip": "ym2612"
    },
    {
      "channel": 0,
      "note": 52,
      "start": 12.1119,
      "duration": 0.1468,
      "velocity": 106,
      "chip": "ym2612"
    },
    {
      "channel": 1,
      "note": 59,
      "start": 12.1144,
      "duration": 0.1444,
      "velocity": 106,
      "chip": "ym2612"
    },
    {
      "channel": 5,
      "note": 54,
      "start": 12.1171,
      "duration": 0.1251,
      "velocity": 108,
      "chip": "ym2612"
    },
    {
      "channel": 2,
      "note": 84,
      "start": 12.12,
      "duration": 0.039,
      "velocity": 124,
      "chip": "ym2612"
    },
    {
      "channel": 0,
      "note": 49,
      "start": 12.2622,
      "duration": 0.1298,
      "velocity": 106,
      "chip": "ym2612"
    },
    {
      "channel": 1,
      "note": 56,
      "start": 12.2648,
      "duration": 0.1274,
      "velocity": 106,
      "chip": "ym2612"
    },
    {
      "channel": 5,
      "note": 54,
      "start": 12.2674,
      "duration": 0.1081,
      "velocity": 108,
      "chip": "ym2612"
    },
    {
      "channel": 2,
      "note": 84,
      "start": 12.2704,
      "duration": 0.0387,
      "velocity": 124,
      "chip": "ym2612"
    },
    {
      "channel": 3,
      "note": 46,
      "start": 12.273,
      "duration": 0.0357,
      "velocity": 117,
      "chip": "ym2612"
    },
    {
      "channel": 0,
      "note": 52,
      "start": 12.3952,
      "duration": 0.1302,
      "velocity": 106,
      "chip": "ym2612"
    },
    {
      "channel": 1,
      "note": 59,
      "start": 12.3977,
      "duration": 0.1278,
      "velocity": 106,
      "chip": "ym2612"
    },
    {
      "channel": 5,
      "note": 54,
      "start": 12.4004,
      "duration": 0.1084,
      "velocity": 108,
      "chip": "ym2612"
    },
    {
      "channel": 2,
      "note": 84,
      "start": 12.4033,
      "duration": 0.039,
      "velocity": 124,
      "chip": "ym2612"
    },
    {
      "channel": 3,
      "note": 46,
      "start": 12.4059,
      "duration": 0.0362,
      "velocity": 117,
      "chip": "ym2612"
    },
    {
      "channel": 0,
      "note": 54,
      "start": 12.5285,
      "duration": 0.1468,
      "velocity": 106,
      "chip": "ym2612"
    },
    {
      "channel": 1,
      "note": 61,
      "start": 12.531,
      "duration": 0.1444,
      "velocity": 106,
      "chip": "ym2612"
    },
    {
      "channel": 5,
      "note": 49,
      "start": 12.5337,
      "duration": 0.1251,
      "velocity": 108,
      "chip": "ym2612"
    },
    {
      "channel": 4,
      "note": 69,
      "start": 12.5371,
      "duration": 0.3884,
      "velocity": 107,
      "chip": "ym2612"
    },
    {
      "channel": 2,
      "note": 84,
      "start": 12.5401,
      "duration": 0.0356,
      "velocity": 124,
      "chip": "ym2612"
    },
    {
      "channel": 3,
      "note": 46,
      "start": 12.543,
      "duration": 0.0324,
      "velocity": 117,
      "chip": "ym2612"
    },
    {
      "channel": 5,
      "note": 49,
      "start": 12.6786,
      "duration": 0.1136,
      "velocity": 108,
      "chip": "ym2612"
    },
    {
      "channel": 3,
      "note": 46,
      "start": 12.6816,
      "duration": 0.0439,
      "velocity": 117,
      "chip": "ym2612"
    },
    {
      "channel": 0,
      "note": 54,
      "start": 12.8116,
      "duration": 0.1303,
      "velocity": 106,
      "chip": "ym2612"
    },
    {
      "channel": 1,
      "note": 61,
      "start": 12.8142,
      "duration": 0.1279,
      "velocity": 106,
      "chip": "ym2612"
    },
    {
      "channel": 5,
      "note": 49,
      "start": 12.8168,
      "duration": 0.1088,
      "velocity": 108,
      "chip": "ym2612"
    },
    {
      "channel": 2,
      "note": 84,
      "start": 12.8199,
      "duration": 0.0391,
      "velocity": 124,
      "chip": "ym2612"
    },
    {
      "channel": 3,
      "note": 46,
      "start": 12.8226,
      "duration": 0.0361,
      "velocity": 117,
      "chip": "ym2612"
    },
    {
      "channel": 0,
      "note": 52,
      "start": 12.9455,
      "duration": 0.1466,
      "velocity": 106,
      "chip": "ym2612"
    },
    {
      "channel": 1,
      "note": 59,
      "start": 12.948,
      "duration": 0.1441,
      "velocity": 106,
      "chip": "ym2612"
    },
    {
      "channel": 5,
      "note": 52,
      "start": 12.9511,
      "duration": 0.1246,
      "velocity": 108,
      "chip": "ym2612"
    },
    {
      "channel": 4,
      "note": 73,
      "start": 12.9537,
      "duration": 0.3885,
      "velocity": 107,
      "chip": "ym2612"
    },
    {
      "channel": 2,
      "note": 84,
      "start": 12.9565,
      "duration": 0.0525,
      "velocity": 124,
      "chip": "ym2612"
    },
    {
      "channel": 0,
      "note": 49,
      "start": 13.0952,
      "duration": 0.1302,
      "velocity": 106,
      "chip": "ym2612"
    },
    {
      "channel": 1,
      "note": 56,
      "start": 13.0977,
      "duration": 0.1277,
      "velocity": 106,
      "chip": "ym2612"
    },
    {
      "channel": 5,
      "note": 52,
      "start": 13.1004,
      "duration": 0.1086,
      "velocity": 108,
      "chip": "ym2612"
    },
    {
      "channel": 2,
      "note": 84,
      "start": 13.1033,
      "duration": 0.0391,
      "velocity": 124,
      "chip": "ym2612"
    },
    {
      "channel": 3,
      "note": 46,
      "start": 13.106,
      "duration": 0.0362,
      "velocity": 117,
      "chip": "ym2612"
    },
    {
      "channel": 0,
      "note": 52,
      "start": 13.2284,
      "duration": 0.1302,
      "velocity": 106,
      "chip": "ym2612"
    },
    {
      "channel": 1,
      "note": 59,
      "start": 13.231,
      "duration": 0.1278,
      "velocity": 106,
      "chip": "ym2612"
    },
    {
      "channel": 5,
      "note": 52,
      "start": 13.2337,
      "duration": 0.1087,
      "velocity": 108,
      "chip": "ym2612"
    },
    {
      "channel": 2,
      "note": 84,
      "start": 13.2366,
      "duration": 0.0391,
      "velocity": 124,
      "chip": "ym2612"
    },
    {
      "channel": 3,
      "note": 46,
      "start": 13.2395,
      "duration": 0.0359,
      "velocity": 117,
      "chip": "ym2612"
    },
    {
      "channel": 0,
      "note": 54,
      "start": 13.3618,
      "duration": 0.1469,
      "velocity": 106,
      "chip": "ym2612"
    },
    {
      "channel": 1,
      "note": 61,
      "start": 13.3643,
      "duration": 0.1445,
      "velocity": 106,
      "chip": "ym2612"
    },
    {
      "channel": 5,
      "note": 54,
      "start": 13.3671,
      "duration": 0.1251,
      "velocity": 108,
      "chip": "ym2612"
    },
    {
      "channel": 4,
      "note": 75,
      "start": 13.3704,
      "duration": 2.0886,
      "velocity": 107,
      "chip": "ym2612"
    },
    {
      "channel": 2,
      "note": 84,
      "start": 13.3739,
      "duration": 0.0518,
      "velocity": 124,
      "chip": "ym2612"
    },
    {
      "channel": 3,
      "note": 46,
      "start": 13.377,
      "duration": 0.0485,
      "velocity": 117,
      "chip": "ym2612"
    },
    {
      "channel": 0,
      "note": 54,
      "start": 13.6454,
      "duration": 0.1466,
      "velocity": 106,
      "chip": "ym2612"
    },
    {
      "channel": 1,
      "note": 61,
      "start": 13.6479,
      "duration": 0.1442,
      "velocity": 106,
      "chip": "ym2612"
    },
    {
      "channel": 5,
      "note": 54,
      "start": 13.6507,
      "duration": 0.1248,
      "velocity": 108,
      "chip": "ym2612"
    },
    {
      "channel": 2,
      "note": 84,
      "start": 13.6538,
      "duration": 0.0385,
      "velocity": 124,
      "chip": "ym2612"
    },
    {
      "channel": 3,
      "note": 46,
      "start": 13.6563,
      "duration": 0.0357,
      "velocity": 117,
      "chip": "ym2612"
    },
    {
      "channel": 0,
      "note": 54,
      "start": 13.7951,
      "duration": 0.1303,
      "velocity": 106,
      "chip": "ym2612"
    },
    {
      "channel": 1,
      "note": 61,
      "start": 13.7976,
      "duration": 0.1279,
      "velocity": 106,
      "chip": "ym2612"
    },
    {
      "channel": 5,
      "note": 54,
      "start": 13.8002,
      "duration": 0.1087,
      "velocity": 108,
      "chip": "ym2612"
    },
    {
      "channel": 2,
      "note": 84,
      "start": 13.8032,
      "duration": 0.0392,
      "velocity": 124,
      "chip": "ym2612"
    },
    {
      "channel": 0,
      "note": 54,
      "start": 13.9285,
      "duration": 0.1302,
      "velocity": 106,
      "chip": "ym2612"
    },
    {
      "channel": 1,
      "note": 61,
      "start": 13.931,
      "duration": 0.1278,
      "velocity": 106,
      "chip": "ym2612"
    },
    {
      "channel": 5,
      "note": 54,
      "start": 13.9337,
      "duration": 0.1086,
      "velocity": 108,
      "chip": "ym2612"
    },
    {
      "channel": 2,
      "note": 84,
      "start": 13.9366,
      "duration": 0.0391,
      "velocity": 124,
      "chip": "ym2612"
    },
    {
      "channel": 3,
      "note": 46,
      "start": 13.9393,
      "duration": 0.0362,
      "velocity": 117,
      "chip": "ym2612"
    },
    {
      "channel": 0,
      "note": 54,
      "start": 14.0618,
      "duration": 0.1468,
      "velocity": 106,
      "chip": "ym2612"
    },
    {
      "channel": 1,
      "note": 61,
      "start": 14.0644,
      "duration": 0.1444,
      "velocity": 106,
      "chip": "ym2612"
    },
    {
      "channel": 5,
      "note": 54,
      "start": 14.067,
      "duration": 0.1252,
      "velocity": 108,
      "chip": "ym2612"
    },
    {
      "channel": 2,
      "note": 84,
      "start": 14.0699,
      "duration": 0.0391,
      "velocity": 124,
      "chip": "ym2612"
    },
    {
      "channel": 3,
      "note": 46,
      "start": 14.0724,
      "duration": 0.0363,
      "velocity": 117,
      "chip": "ym2612"
    },
    {
      "channel": 0,
      "note": 52,
      "start": 14.2123,
      "duration": 0.2629,
      "velocity": 106,
      "chip": "ym2612"
    },
    {
      "channel": 1,
      "note": 59,
      "start": 14.2149,
      "duration": 0.2605,
      "velocity": 106,
      "chip": "ym2612"
    },
    {
      "channel": 5,
      "note": 54,
      "start": 14.2177,
      "duration": 0.1079,
      "velocity": 108,
      "chip": "ym2612"
    },
    {
      "channel": 2,
      "note": 84,
      "start": 14.2208,
      "duration": 0.0382,
      "velocity": 124,
      "chip": "ym2612"
    },
    {
      "channel": 3,
      "note": 46,
      "start": 14.2235,
      "duration": 0.0353,
      "velocity": 117,
      "chip": "ym2612"
    },
    {
      "channel": 0,
      "note": 49,
      "start": 14.4784,
      "duration": 0.2802,
      "velocity": 106,
      "chip": "ym2612"
    },
    {
      "channel": 1,
      "note": 56,
      "start": 14.481,
      "duration": 0.2778,
      "velocity": 106,
      "chip": "ym2612"
    },
    {
      "channel": 5,
      "note": 54,
      "start": 14.4838,
      "duration": 0.1251,
      "velocity": 108,
      "chip": "ym2612"
    },
    {
      "channel": 2,
      "note": 84,
      "start": 14.4868,
      "duration": 0.0388,
      "velocity": 124,
      "chip": "ym2612"
    },
    {
      "channel": 3,
      "note": 46,
      "start": 14.4894,
      "duration": 0.036,
      "velocity": 117,
      "chip": "ym2612"
    },
    {
      "channel": 5,
      "note": 54,
      "start": 14.6284,
      "duration": 0.1139,
      "velocity": 108,
      "chip": "ym2612"
    },
    {
      "channel": 2,
      "note": 84,
      "start": 14.6313,
      "duration": 0.0444,
      "velocity": 124,
      "chip": "ym2612"
    },
    {
      "channel": 0,
      "note": 52,
      "start": 14.7618,
      "duration": 0.2802,
      "velocity": 106,
      "chip": "ym2612"
    },
    {
      "channel": 1,
      "note": 59,
      "start": 14.7643,
      "duration": 0.2778,
      "velocity": 106,
      "chip": "ym2612"
    },
    {
      "channel": 5,
      "note": 54,
      "start": 14.767,
      "duration": 0.1086,
      "velocity": 108,
      "chip": "ym2612"
    },
    {
      "channel": 2,
      "note": 84,
      "start": 14.7699,
      "duration": 0.0391,
      "velocity": 124,
      "chip": "ym2612"
    },
    {
      "channel": 3,
      "note": 46,
      "start": 14.7726,
      "duration": 0.0362,
      "velocity": 117,
      "chip": "ym2612"
    },
    {
      "channel": 5,
      "note": 54,
      "start": 14.8956,
      "duration": 0.13,
      "velocity": 108,
      "chip": "ym2612"
    },
    {
      "channel": 2,
      "note": 84,
      "start": 14.8985,
      "duration": 0.0605,
      "velocity": 124,
      "chip": "ym2612"
    },
    {
      "channel": 3,
      "note": 46,
      "start": 14.901,
      "duration": 0.0578,
      "velocity": 117,
      "chip": "ym2612"
    },
    {
      "channel": 0,
      "note": 54,
      "start": 15.0453,
      "duration": 0.1301,
      "velocity": 106,
      "chip": "ym2612"
    },
    {
      "channel": 1,
      "note": 61,
      "start": 15.0482,
      "duration": 0.1273,
      "velocity": 106,
      "chip": "ym2612"
    },
    {
      "channel": 5,
      "note": 54,
      "start": 15.051,
      "duration": 0.1079,
      "velocity": 108,
      "chip": "ym2612"
    },
    {
      "channel": 2,
      "note": 84,
      "start": 15.0541,
      "duration": 0.0382,
      "velocity": 124,
      "chip": "ym2612"
    },
    {
      "channel": 3,
      "note": 46,
      "start": 15.0568,
      "duration": 0.0353,
      "velocity": 117,
      "chip": "ym2612"
    },
    {
      "channel": 0,
      "note": 54,
      "start": 15.3283,
      "duration": 0.1305,
      "velocity": 106,
      "chip": "ym2612"
    },
    {
      "channel": 1,
      "note": 61,
      "start": 15.3308,
      "duration": 0.128,
      "velocity": 106,
      "chip": "ym2612"
    },
    {
      "channel": 5,
      "note": 54,
      "start": 15.3336,
      "duration": 0.1087,
      "velocity": 108,
      "chip": "ym2612"
    },
    {
      "channel": 2,
      "note": 84,
      "start": 15.3371,
      "duration": 0.0386,
      "velocity": 124,
      "chip": "ym2612"
    },
    {
      "channel": 3,
      "note": 46,
      "start": 15.3396,
      "duration": 0.0359,
      "velocity": 117,
      "chip": "ym2612"
    },
    {
      "channel": 0,
      "note": 54,
      "start": 15.4619,
      "duration": 0.1301,
      "velocity": 106,
      "chip": "ym2612"
    },
    {
      "channel": 1,
      "note": 61,
      "start": 15.4644,
      "duration": 0.1277,
      "velocity": 106,
      "chip": "ym2612"
    },
    {
      "channel": 5,
      "note": 54,
      "start": 15.4671,
      "duration": 0.1085,
      "velocity": 108,
      "chip": "ym2612"
    },
    {
      "channel": 2,
      "note": 84,
      "start": 15.47,
      "duration": 0.039,
      "velocity": 124,
      "chip": "ym2612"
    },
    {
      "channel": 0,
      "note": 54,
      "start": 15.5951,
      "duration": 0.1469,
      "velocity": 106,
      "chip": "ym2612"
    },
    {
      "channel": 1,
      "note": 61,
      "start": 15.5976,
      "duration": 0.1445,
      "velocity": 106,
      "chip": "ym2612"
    },
    {
      "channel": 5,
      "note": 54,
      "start": 15.6003,
      "duration": 0.1252,
      "velocity": 108,
      "chip": "ym2612"
    },
    {
      "channel": 2,
      "note": 84,
      "start": 15.6032,
      "duration": 0.0392,
      "velocity": 124,
      "chip": "ym2612"
    },
    {
      "channel": 3,
      "note": 46,
      "start": 15.6063,
      "duration": 0.0359,
      "velocity": 117,
      "chip": "ym2612"
    },
    {
      "channel": 0,
      "note": 54,
      "start": 15.7452,
      "duration": 0.1302,
      "velocity": 106,
      "chip": "ym2612"
    },
    {
      "channel": 1,
      "note": 61,
      "start": 15.7481,
      "duration": 0.1274,
      "velocity": 106,
      "chip": "ym2612"
    },
    {
      "channel": 5,
      "note": 54,
      "start": 15.7508,
      "duration": 0.108,
      "velocity": 108,
      "chip": "ym2612"
    },
    {
      "channel": 2,
      "note": 84,
      "start": 15.7537,
      "duration": 0.0386,
      "velocity": 124,
      "chip": "ym2612"
    },
    {
      "channel": 3,
      "note": 46,
      "start": 15.7562,
      "duration": 0.0358,
      "velocity": 117,
      "chip": "ym2612"
    },
    {
      "channel": 0,
      "note": 57,
      "start": 15.8787,
      "duration": 0.28,
      "velocity": 106,
      "chip": "ym2612"
    },
    {
      "channel": 1,
      "note": 64,
      "start": 15.8812,
      "duration": 0.2776,
      "velocity": 106,
      "chip": "ym2612"
    },
    {
      "channel": 5,
      "note": 54,
      "start": 15.8841,
      "duration": 0.1081,
      "velocity": 108,
      "chip": "ym2612"
    },
    {
      "channel": 4,
      "note": 76,
      "start": 15.887,
      "duration": 0.3884,
      "velocity": 107,
      "chip": "ym2612"
    },
    {
      "channel": 2,
      "note": 84,
      "start": 15.89,
      "duration": 0.0357,
      "velocity": 124,
      "chip": "ym2612"
    },
    {
      "channel": 3,
      "note": 46,
      "start": 15.8931,
      "duration": 0.0324,
      "velocity": 117,
      "chip": "ym2612"
    },
    {
      "channel": 0,
      "note": 59,
      "start": 16.1618,
      "duration": 0.2635,
      "velocity": 106,
      "chip": "ym2612"
    },
    {
      "channel": 1,
      "note": 66,
      "start": 16.1644,
      "duration": 0.2611,
      "velocity": 106,
      "chip": "ym2612"
    },
    {
      "channel": 5,
      "note": 54,
      "start": 16.1672,
      "duration": 0.1084,
      "velocity": 108,
      "chip": "ym2612"
    },
    {
      "channel": 2,
      "note": 84,
      "start": 16.1703,
      "duration": 0.0387,
      "velocity": 124,
      "chip": "ym2612"
    },
    {
      "channel": 3,
      "note": 46,
      "start": 16.1728,
      "duration": 0.036,
      "velocity": 117,
      "chip": "ym2612"
    },
    {
      "channel": 5,
      "note": 54,
      "start": 16.2951,
      "duration": 0.1139,
      "velocity": 108,
      "chip": "ym2612"
    },
    {
      "channel": 4,
      "note": 75,
      "start": 16.2977,
      "duration": 0.3945,
      "velocity": 107,
      "chip": "ym2612"
    },
    {
      "channel": 2,
      "note": 84,
      "start": 16.3005,
      "duration": 0.0418,
      "velocity": 124,
      "chip": "ym2612"
    },
    {
      "channel": 0,
      "note": 57,
      "start": 16.4285,
      "duration": 0.2801,
      "velocity": 106,
      "chip": "ym2612"
    },
    {
      "channel": 1,
      "note": 64,
      "start": 16.431,
      "duration": 0.2777,
      "velocity": 106,
      "chip": "ym2612"
    },
    {
      "channel": 5,
      "note": 54,
      "start": 16.4337,
      "duration": 0.1253,
      "velocity": 108,
      "chip": "ym2612"
    },
    {
      "channel": 2,
      "note": 84,
      "start": 16.4366,
      "duration": 0.0559,
      "velocity": 124,
      "chip": "ym2612"
    },
    {
      "channel": 3,
      "note": 46,
      "start": 16.4393,
      "duration": 0.0529,
      "velocity": 117,
      "chip": "ym2612"
    },
    {
      "channel": 5,
      "note": 54,
      "start": 16.5785,
      "duration": 0.1138,
      "velocity": 108,
      "chip": "ym2612"
    },
    {
      "channel": 2,
      "note": 84,
      "start": 16.5814,
      "duration": 0.0443,
      "velocity": 124,
      "chip": "ym2612"
    },
    {
      "channel": 3,
      "note": 46,
      "start": 16.584,
      "duration": 0.0415,
      "velocity": 117,
      "chip": "ym2612"
    },
    {
      "channel": 0,
      "note": 54,
      "start": 16.7123,
      "duration": 0.1297,
      "velocity": 106,
      "chip": "ym2612"
    },
    {
      "channel": 1,
      "note": 61,
      "start": 16.7149,
      "duration": 0.1273,
      "velocity": 106,
      "chip": "ym2612"
    },
    {
      "channel": 5,
      "note": 54,
      "start": 16.7181,
      "duration": 0.1074,
      "velocity": 108,
      "chip": "ym2612"
    },
    {
      "channel": 4,
      "note": 72,
      "start": 16.721,
      "duration": 0.6546,
      "velocity": 107,
      "chip": "ym2612"
    },
    {
      "channel": 2,
      "note": 84,
      "start": 16.724,
      "duration": 0.035,
      "velocity": 124,
      "chip": "ym2612"
    },
    {
      "channel": 3,
      "note": 46,
      "start": 16.7272,
      "duration": 0.0316,
      "velocity": 117,
      "chip": "ym2612"
    },
    {
      "channel": 0,
      "note": 54,
      "start": 16.995,
      "duration": 0.1304,
      "velocity": 106,
      "chip": "ym2612"
    },
    {
      "channel": 1,
      "note": 61,
      "start": 16.9975,
      "duration": 0.1279,
      "velocity": 106,
      "chip": "ym2612"
    },
    {
      "channel": 5,
      "note": 54,
      "start": 17.0003,
      "duration": 0.1085,
      "velocity": 108,
      "chip": "ym2612"
    },
    {
      "channel": 2,
      "note": 84,
      "start": 17.0034,
      "duration": 0.0389,
      "velocity": 124,
      "chip": "ym2612"
    },
    {
      "channel": 3,
      "note": 46,
      "start": 17.0059,
      "duration": 0.0361,
      "velocity": 117,
      "chip": "ym2612"
    },
    {
      "channel": 0,
      "note": 54,
      "start": 17.1284,
      "duration": 0.147,
      "velocity": 106,
      "chip": "ym2612"
    },
    {
      "channel": 1,
      "note": 61,
      "start": 17.131,
      "duration": 0.1447,
      "velocity": 106,
      "chip": "ym2612"
    },
    {
      "channel": 5,
      "note": 54,
      "start": 17.1337,
      "duration": 0.1086,
      "velocity": 108,
      "chip": "ym2612"
    },
    {
      "channel": 2,
      "note": 84,
      "start": 17.1366,
      "duration": 0.0391,
      "velocity": 124,
      "chip": "ym2612"
    },
    {
      "channel": 0,
      "note": 54,
      "start": 17.2786,
      "duration": 0.1301,
      "velocity": 106,
      "chip": "ym2612"
    },
    {
      "channel": 1,
      "note": 61,
      "start": 17.2812,
      "duration": 0.1277,
      "velocity": 106,
      "chip": "ym2612"
    },
    {
      "channel": 5,
      "note": 54,
      "start": 17.2838,
      "duration": 0.1084,
      "velocity": 108,
      "chip": "ym2612"
    },
    {
      "channel": 2,
      "note": 84,
      "start": 17.2871,
      "duration": 0.0385,
      "velocity": 124,
      "chip": "ym2612"
    },
    {
      "channel": 3,
      "note": 46,
      "start": 17.2898,
      "duration": 0.0356,
      "velocity": 117,
      "chip": "ym2612"
    },
    {
      "channel": 0,
      "note": 54,
      "start": 17.4122,
      "duration": 0.1298,
      "velocity": 106,
      "chip": "ym2612"
    },
    {
      "channel": 1,
      "note": 61,
      "start": 17.4148,
      "duration": 0.1273,
      "velocity": 106,
      "chip": "ym2612"
    },
    {
      "channel": 5,
      "note": 54,
      "start": 17.4174,
      "duration": 0.1082,
      "velocity": 108,
      "chip": "ym2612"
    },
    {
      "channel": 4,
      "note": 75,
      "start": 17.4207,
      "duration": 0.1048,
      "velocity": 107,
      "chip": "ym2612"
    },
    {
      "channel": 2,
      "note": 84,
      "start": 17.4236,
      "duration": 0.0354,
      "velocity": 124,
      "chip": "ym2612"
    },
    {
      "channel": 3,
      "note": 46,
      "start": 17.4266,
      "duration": 0.0321,
      "velocity": 117,
      "chip": "ym2612"
    },
    {
      "channel": 0,
      "note": 52,
      "start": 17.5453,
      "duration": 0.28,
      "velocity": 106,
      "chip": "ym2612"
    },
    {
      "channel": 1,
      "note": 59,
      "start": 17.5478,
      "duration": 0.2777,
      "velocity": 106,
      "chip": "ym2612"
    },
    {
      "channel": 5,
      "note": 54,
      "start": 17.5506,
      "duration": 0.1249,
      "velocity": 108,
      "chip": "ym2612"
    },
    {
      "channel": 4,
      "note": 73,
      "start": 17.5539,
      "duration": 2.0884,
      "velocity": 107,
      "chip": "ym2612"
    },
    {
      "channel": 2,
      "note": 84,
      "start": 17.5569,
      "duration": 0.0354,
      "velocity": 124,
      "chip": "ym2612"
    },
    {
      "channel": 3,
      "note": 46,
      "start": 17.5605,
      "duration": 0.0316,
      "velocity": 117,
      "chip": "ym2612"
    },
    {
      "channel": 0,
      "note": 49,
      "start": 17.8284,
      "duration": 0.2802,
      "velocity": 106,
      "chip": "ym2612"
    },
    {
      "channel": 1,
      "note": 56,
      "start": 17.831,
      "duration": 0.2778,
      "velocity": 106,
      "chip": "ym2612"
    },
    {
      "channel": 5,
      "note": 54,
      "start": 17.8338,
      "duration": 0.1084,
      "velocity": 108,
      "chip": "ym2612"
    },
    {
      "channel": 2,
      "note": 84,
      "start": 17.8369,
      "duration": 0.0388,
      "velocity": 124,
      "chip": "ym2612"
    },
    {
      "channel": 3,
      "note": 46,
      "start": 17.8394,
      "duration": 0.036,
      "velocity": 117,
      "chip": "ym2612"
    },
    {
      "channel": 5,
      "note": 54,
      "start": 17.9617,
      "duration": 0.1306,
      "velocity": 108,
      "chip": "ym2612"
    },
    {
      "channel": 2,
      "note": 84,
      "start": 17.9646,
      "duration": 0.0444,
      "velocity": 124,
      "chip": "ym2612"
    },
    {
      "channel": 0,
      "note": 52,
      "start": 18.1118,
      "duration": 0.2636,
      "velocity": 106,
      "chip": "ym2612"
    },
    {
      "channel": 1,
      "note": 59,
      "start": 18.1148,
      "duration": 0.2607,
      "velocity": 106,
      "chip": "ym2612"
    },
    {
      "channel": 5,
      "note": 54,
      "start": 18.1174,
      "duration": 0.1082,
      "velocity": 108,
      "chip": "ym2612"
    },
    {
      "channel": 2,
      "note": 84,
      "start": 18.1203,
      "duration": 0.0389,
      "velocity": 124,
      "chip": "ym2612"
    },
    {
      "channel": 3,
      "note": 46,
      "start": 18.123,
      "duration": 0.0359,
      "velocity": 117,
      "chip": "ym2612"
    },
    {
      "channel": 5,
      "note": 54,
      "start": 18.2453,
      "duration": 0.1136,
      "velocity": 108,
      "chip": "ym2612"
    },
    {
      "channel": 2,
      "note": 84,
      "start": 18.2482,
      "duration": 0.0441,
      "velocity": 124,
      "chip": "ym2612"
    },
    {
      "channel": 3,
      "note": 46,
      "start": 18.2508,
      "duration": 0.0413,
      "velocity": 117,
      "chip": "ym2612"
    },
    {
      "channel": 0,
      "note": 54,
      "start": 18.3787,
      "duration": 0.1467,
      "velocity": 106,
      "chip": "ym2612"
    },
    {
      "channel": 1,
      "note": 61,
      "start": 18.3812,
      "duration": 0.1443,
      "velocity": 106,
      "chip": "ym2612"
    },
    {
      "channel": 2,
      "note": 84,
      "start": 18.3845,
      "duration": 0.0579,
      "velocity": 124,
      "chip": "ym2612"
    },
    {
      "channel": 3,
      "note": 46,
      "start": 18.387,
      "duration": 0.0552,
      "velocity": 117,
      "chip": "ym2612"
    },
    {
      "channel": 5,
      "note": 54,
      "start": 18.4125,
      "duration": 0.4132,
      "velocity": 108,
      "chip": "ym2612"
    },
    {
      "channel": 3,
      "note": 46,
      "start": 18.5291,
      "duration": 0.0464,
      "velocity": 117,
      "chip": "ym2612"
    },
    {
      "channel": 0,
      "note": 54,
      "start": 18.6616,
      "duration": 0.1305,
      "velocity": 106,
      "chip": "ym2612"
    },
    {
      "channel": 1,
      "note": 61,
      "start": 18.6641,
      "duration": 0.128,
      "velocity": 106,
      "chip": "ym2612"
    },
    {
      "channel": 2,
      "note": 84,
      "start": 18.6674,
      "duration": 0.0417,
      "velocity": 124,
      "chip": "ym2612"
    },
    {
      "channel": 3,
      "note": 46,
      "start": 18.67,
      "duration": 0.0388,
      "velocity": 117,
      "chip": "ym2612"
    },
    {
      "channel": 0,
      "note": 52,
      "start": 18.7952,
      "duration": 0.1469,
      "velocity": 106,
      "chip": "ym2612"
    },
    {
      "channel": 1,
      "note": 59,
      "start": 18.7977,
      "duration": 0.1445,
      "velocity": 106,
      "chip": "ym2612"
    },
    {
      "channel": 2,
      "note": 84,
      "start": 18.8008,
      "duration": 0.0582,
      "velocity": 124,
      "chip": "ym2612"
    },
    {
      "channel": 5,
      "note": 47,
      "start": 18.8286,
      "duration": 0.3971,
      "velocity": 108,
      "chip": "ym2612"
    },
    {
      "channel": 0,
      "note": 49,
      "start": 18.9452,
      "duration": 0.1303,
      "velocity": 106,
      "chip": "ym2612"
    },
    {
      "channel": 1,
      "note": 56,
      "start": 18.9481,
      "duration": 0.1275,
      "velocity": 106,
      "chip": "ym2612"
    },
    {
      "channel": 2,
      "note": 84,
      "start": 18.9512,
      "duration": 0.0413,
      "velocity": 124,
      "chip": "ym2612"
    },
    {
      "channel": 3,
      "note": 46,
      "start": 18.9538,
      "duration": 0.0384,
      "velocity": 117,
      "chip": "ym2612"
    },
    {
      "channel": 0,
      "note": 52,
      "start": 19.0786,
      "duration": 0.1468,
      "velocity": 106,
      "chip": "ym2612"
    },
    {
      "channel": 1,
      "note": 59,
      "start": 19.0811,
      "duration": 0.1443,
      "velocity": 106,
      "chip": "ym2612"
    },
    {
      "channel": 2,
      "note": 84,
      "start": 19.0842,
      "duration": 0.0415,
      "velocity": 124,
      "chip": "ym2612"
    },
    {
      "channel": 3,
      "note": 46,
      "start": 19.0866,
      "duration": 0.0387,
      "velocity": 117,
      "chip": "ym2612"
    },
    {
      "channel": 0,
      "note": 54,
      "start": 19.2285,
      "duration": 0.1302,
      "velocity": 106,
      "chip": "ym2612"
    },
    {
      "channel": 1,
      "note": 61,
      "start": 19.231,
      "duration": 0.1278,
      "velocity": 106,
      "chip": "ym2612"
    },
    {
      "channel": 5,
      "note": 49,
      "start": 19.2339,
      "duration": 0.3917,
      "velocity": 108,
      "chip": "ym2612"
    },
    {
      "channel": 2,
      "note": 84,
      "start": 19.2373,
      "duration": 0.0383,
      "velocity": 124,
      "chip": "ym2612"
    },
    {
      "channel": 3,
      "note": 46,
      "start": 19.2399,
      "duration": 0.0356,
      "velocity": 117,
      "chip": "ym2612"
    },
    {
      "channel": 3,
      "note": 46,
      "start": 19.3624,
      "duration": 0.0464,
      "velocity": 117,
      "chip": "ym2612"
    },
    {
      "channel": 0,
      "note": 54,
      "start": 19.4949,
      "duration": 0.1471,
      "velocity": 106,
      "chip": "ym2612"
    },
    {
      "channel": 1,
      "note": 61,
      "start": 19.4975,
      "duration": 0.1447,
      "velocity": 106,
      "chip": "ym2612"
    },
    {
      "channel": 2,
      "note": 84,
      "start": 19.5007,
      "duration": 0.0417,
      "velocity": 124,
      "chip": "ym2612"
    },
    {
      "channel": 3,
      "note": 46,
      "start": 19.5034,
      "duration": 0.0388,
      "velocity": 117,
      "chip": "ym2612"
    },
    {
      "channel": 0,
      "note": 52,
      "start": 19.6453,
      "duration": 0.13,
      "velocity": 106,
      "chip": "ym2612"
    },
    {
      "channel": 1,
      "note": 59,
      "start": 19.6482,
      "duration": 0.1273,
      "velocity": 106,
      "chip": "ym2612"
    },
    {
      "channel": 5,
      "note": 52,
      "start": 19.6509,
      "duration": 0.3914,
      "velocity": 108,
      "chip": "ym2612"
    },
    {
      "channel": 0,
      "note": 49,
      "start": 19.7785,
      "duration": 0.1303,
      "velocity": 106,
      "chip": "ym2612"
    },
    {
      "channel": 1,
      "note": 56,
      "start": 19.781,
      "duration": 0.1279,
      "velocity": 106,
      "chip": "ym2612"
    },
    {
      "channel": 0,
      "note": 52,
      "start": 19.9119,
      "duration": 0.1469,
      "velocity": 106,
      "chip": "ym2612"
    },
    {
      "channel": 1,
      "note": 59,
      "start": 19.9144,
      "duration": 0.1445,
      "velocity": 106,
      "chip": "ym2612"
    },
    {
      "channel": 0,
      "note": 54,
      "start": 20.0621,
      "duration": 0.2466,
      "velocity": 106,
      "chip": "ym2612"
    },
    {
      "channel": 1,
      "note": 61,
      "start": 20.0646,
      "duration": 0.2442,
      "velocity": 106,
      "chip": "ym2612"
    },
    {
      "channel": 5,
      "note": 54,
      "start": 20.0676,
      "duration": 0.2415,
      "velocity": 108,
      "chip": "ym2612"
    },
    {
      "channel": 4,
      "note": 73,
      "start": 20.0705,
      "duration": 1.6549,
      "velocity": 107,
      "chip": "ym2612"
    },
    {
      "channel": 3,
      "note": 46,
      "start": 20.074,
      "duration": 0.0348,
      "velocity": 117,
      "chip": "ym2612"
    },
    {
      "channel": 3,
      "note": 46,
      "start": 20.1956,
      "duration": 0.0465,
      "velocity": 117,
      "chip": "ym2612"
    },
    {
      "channel": 0,
      "note": 61,
      "start": 20.3286,
      "duration": 0.2634,
      "velocity": 106,
      "chip": "ym2612"
    },
    {
      "channel": 1,
      "note": 54,
      "start": 20.3312,
      "duration": 0.261,
      "velocity": 106,
      "chip": "ym2612"
    },
    {
      "channel": 5,
      "note": 54,
      "start": 20.3339,
      "duration": 0.2586,
      "velocity": 108,
      "chip": "ym2612"
    },
    {
      "channel": 2,
      "note": 84,
      "start": 20.3369,
      "duration": 0.0555,
      "velocity": 124,
      "chip": "ym2612"
    },
    {
      "channel": 3,
      "note": 46,
      "start": 20.3396,
      "duration": 0.0525,
      "velocity": 117,
      "chip": "ym2612"
    },
    {
      "channel": 2,
      "note": 84,
      "start": 20.4788,
      "duration": 0.0469,
      "velocity": 124,
      "chip": "ym2612"
    },
    {
      "channel": 0,
      "note": 54,
      "start": 20.6119,
      "duration": 0.1135,
      "velocity": 106,
      "chip": "ym2612"
    },
    {
      "channel": 1,
      "note": 61,
      "start": 20.6144,
      "duration": 0.1111,
      "velocity": 106,
      "chip": "ym2612"
    },
    {
      "channel": 5,
      "note": 54,
      "start": 20.6174,
      "duration": 0.1084,
      "velocity": 108,
      "chip": "ym2612"
    },
    {
      "channel": 2,
      "note": 84,
      "start": 20.6204,
      "duration": 0.0387,
      "velocity": 124,
      "chip": "ym2612"
    },
    {
      "channel": 3,
      "note": 46,
      "start": 20.623,
      "duration": 0.0358,
      "velocity": 117,
      "chip": "ym2612"
    },
    {
      "channel": 0,
      "note": 54,
      "start": 20.7617,
      "duration": 0.1137,
      "velocity": 106,
      "chip": "ym2612"
    },
    {
      "channel": 1,
      "note": 61,
      "start": 20.7642,
      "duration": 0.1113,
      "velocity": 106,
      "chip": "ym2612"
    },
    {
      "channel": 5,
      "note": 54,
      "start": 20.7669,
      "duration": 0.1088,
      "velocity": 108,
      "chip": "ym2612"
    },
    {
      "channel": 2,
      "note": 84,
      "start": 20.7698,
      "duration": 0.0392,
      "velocity": 124,
      "chip": "ym2612"
    },
    {
      "channel": 3,
      "note": 46,
      "start": 20.7723,
      "duration": 0.0364,
      "velocity": 117,
      "chip": "ym2612"
    },
    {
      "channel": 0,
      "note": 52,
      "start": 20.895,
      "duration": 0.2636,
      "velocity": 106,
      "chip": "ym2612"
    },
    {
      "channel": 1,
      "note": 59,
      "start": 20.898,
      "duration": 0.2607,
      "velocity": 106,
      "chip": "ym2612"
    },
    {
      "channel": 5,
      "note": 52,
      "start": 20.901,
      "duration": 0.258,
      "velocity": 108,
      "chip": "ym2612"
    },
    {
      "channel": 3,
      "note": 78,
      "start": 20.9041,
      "duration": 0.388,
      "velocity": 1,
      "chip": "ym2612"
    },
    {
      "channel": 2,
      "note": 84,
      "start": 20.9069,
      "duration": 0.001,
      "velocity": 124,
      "chip": "ym2612"
    },
    {
      "channel": 2,
      "note": 46,
      "start": 20.9101,
      "duration": 0.0321,
      "velocity": 117,
      "chip": "ym2612"
    },
    {
      "channel": 2,
      "note": 46,
      "start": 21.029,
      "duration": 0.0466,
      "velocity": 117,
      "chip": "ym2612"
    },
    {
      "channel": 0,
      "note": 49,
      "start": 21.1783,
      "duration": 0.2471,
      "velocity": 106,
      "chip": "ym2612"
    },
    {
      "channel": 1,
      "note": 56,
      "start": 21.1808,
      "duration": 0.2447,
      "velocity": 106,
      "chip": "ym2612"
    },
    {
      "channel": 5,
      "note": 49,
      "start": 21.1839,
      "duration": 0.2418,
      "velocity": 108,
      "chip": "ym2612"
    },
    {
      "channel": 2,
      "note": 84,
      "start": 21.1869,
      "duration": 0.001,
      "velocity": 124,
      "chip": "ym2612"
    },
    {
      "channel": 2,
      "note": 46,
      "start": 21.1898,
      "duration": 0.0358,
      "velocity": 117,
      "chip": "ym2612"
    },
    {
      "channel": 3,
      "note": 85,
      "start": 21.3118,
      "duration": 0.3971,
      "velocity": 1,
      "chip": "ym2612"
    },
    {
      "channel": 2,
      "note": 84,
      "start": 21.3146,
      "duration": 0.0444,
      "velocity": 124,
      "chip": "ym2612"
    },
    {
      "channel": 0,
      "note": 52,
      "start": 21.445,
      "duration": 0.2637,
      "velocity": 106,
      "chip": "ym2612"
    },
    {
      "channel": 1,
      "note": 59,
      "start": 21.4476,
      "duration": 0.2613,
      "velocity": 106,
      "chip": "ym2612"
    },
    {
      "channel": 5,
      "note": 52,
      "start": 21.4506,
      "duration": 0.1251,
      "velocity": 108,
      "chip": "ym2612"
    },
    {
      "channel": 2,
      "note": 84,
      "start": 21.4534,
      "duration": 0.001,
      "velocity": 124,
      "chip": "ym2612"
    },
    {
      "channel": 2,
      "note": 46,
      "start": 21.4564,
      "duration": 0.036,
      "velocity": 117,
      "chip": "ym2612"
    },
    {
      "channel": 5,
      "note": 52,
      "start": 21.5951,
      "duration": 0.1141,
      "velocity": 108,
      "chip": "ym2612"
    },
    {
      "channel": 2,
      "note": 84,
      "start": 21.598,
      "duration": 0.0008,
      "velocity": 124,
      "chip": "ym2612"
    },
    {
      "channel": 2,
      "note": 46,
      "start": 21.6008,
      "duration": 0.0415,
      "velocity": 117,
      "chip": "ym2612"
    },
    {
      "channel": 0,
      "note": 54,
      "start": 21.7284,
      "duration": 0.2637,
      "velocity": 106,
      "chip": "ym2612"
    },
    {
      "channel": 1,
      "note": 61,
      "start": 21.7309,
      "duration": 0.2613,
      "velocity": 106,
      "chip": "ym2612"
    },
    {
      "channel": 5,
      "note": 54,
      "start": 21.7336,
      "duration": 0.1086,
      "velocity": 108,
      "chip": "ym2612"
    },
    {
      "channel": 3,
      "note": 84,
      "start": 21.7372,
      "duration": 2.9048,
      "velocity": 1,
      "chip": "ym2612"
    },
    {
      "channel": 2,
      "note": 84,
      "start": 21.7405,
      "duration": 0.0351,
      "velocity": 124,
      "chip": "ym2612"
    },
    {
      "channel": 4,
      "note": 46,
      "start": 21.7437,
      "duration": 0.0317,
      "velocity": 117,
      "chip": "ym2612"
    },
    {
      "channel": 5,
      "note": 54,
      "start": 21.8617,
      "duration": 0.1307,
      "velocity": 108,
      "chip": "ym2612"
    },
    {
      "channel": 4,
      "note": 46,
      "start": 21.8651,
      "duration": 0.0603,
      "velocity": 117,
      "chip": "ym2612"
    },
    {
      "channel": 0,
      "note": 61,
      "start": 22.0116,
      "duration": 0.2471,
      "velocity": 106,
      "chip": "ym2612"
    },
    {
      "channel": 1,
      "note": 54,
      "start": 22.0145,
      "duration": 0.2443,
      "velocity": 106,
      "chip": "ym2612"
    },
    {
      "channel": 5,
      "note": 54,
      "start": 22.0172,
      "duration": 0.1083,
      "velocity": 108,
      "chip": "ym2612"
    },
    {
      "channel": 2,
      "note": 84,
      "start": 22.0202,
      "duration": 0.0388,
      "velocity": 124,
      "chip": "ym2612"
    },
    {
      "channel": 4,
      "note": 46,
      "start": 22.023,
      "duration": 0.0358,
      "velocity": 117,
      "chip": "ym2612"
    },
    {
      "channel": 5,
      "note": 54,
      "start": 22.145,
      "duration": 0.1141,
      "velocity": 108,
      "chip": "ym2612"
    },
    {
      "channel": 2,
      "note": 84,
      "start": 22.148,
      "duration": 0.0444,
      "velocity": 124,
      "chip": "ym2612"
    },
    {
      "channel": 0,
      "note": 54,
      "start": 22.2786,
      "duration": 0.1302,
      "velocity": 106,
      "chip": "ym2612"
    },
    {
      "channel": 1,
      "note": 61,
      "start": 22.2811,
      "duration": 0.1278,
      "velocity": 106,
      "chip": "ym2612"
    },
    {
      "channel": 5,
      "note": 54,
      "start": 22.2838,
      "duration": 0.1254,
      "velocity": 108,
      "chip": "ym2612"
    },
    {
      "channel": 2,
      "note": 84,
      "start": 22.2867,
      "duration": 0.0557,
      "velocity": 124,
      "chip": "ym2612"
    },
    {
      "channel": 4,
      "note": 46,
      "start": 22.2894,
      "duration": 0.0528,
      "velocity": 117,
      "chip": "ym2612"
    },
    {
      "channel": 0,
      "note": 54,
      "start": 22.4283,
      "duration": 0.1136,
      "velocity": 106,
      "chip": "ym2612"
    },
    {
      "channel": 1,
      "note": 61,
      "start": 22.4309,
      "duration": 0.1112,
      "velocity": 106,
      "chip": "ym2612"
    },
    {
      "channel": 5,
      "note": 54,
      "start": 22.4335,
      "duration": 0.1088,
      "velocity": 108,
      "chip": "ym2612"
    },
    {
      "channel": 2,
      "note": 84,
      "start": 22.4364,
      "duration": 0.0393,
      "velocity": 124,
      "chip": "ym2612"
    },
    {
      "channel": 4,
      "note": 46,
      "start": 22.439,
      "duration": 0.0365,
      "velocity": 117,
      "chip": "ym2612"
    },
    {
      "channel": 0,
      "note": 57,
      "start": 22.5618,
      "duration": 0.2636,
      "velocity": 106,
      "chip": "ym2612"
    },
    {
      "channel": 1,
      "note": 64,
      "start": 22.5643,
      "duration": 0.2612,
      "velocity": 106,
      "chip": "ym2612"
    },
    {
      "channel": 5,
      "note": 54,
      "start": 22.5669,
      "duration": 0.1087,
      "velocity": 108,
      "chip": "ym2612"
    },
    {
      "channel": 4,
      "note": 72,
      "start": 22.57,
      "duration": 0.3888,
      "velocity": 107,
      "chip": "ym2612"
    },
    {
      "channel": 2,
      "note": 84,
      "start": 22.573,
      "duration": 0.0008,
      "velocity": 124,
      "chip": "ym2612"
    },
    {
      "channel": 2,
      "note": 46,
      "start": 22.5761,
      "duration": 0.0328,
      "velocity": 117,
      "chip": "ym2612"
    },
    {
      "channel": 5,
      "note": 54,
      "start": 22.7118,
      "duration": 0.114,
      "velocity": 108,
      "chip": "ym2612"
    },
    {
      "channel": 2,
      "note": 46,
      "start": 22.7149,
      "duration": 0.044,
      "velocity": 117,
      "chip": "ym2612"
    },
    {
      "channel": 0,
      "note": 59,
      "start": 22.8454,
      "duration": 0.2634,
      "velocity": 106,
      "chip": "ym2612"
    },
    {
      "channel": 1,
      "note": 66,
      "start": 22.848,
      "duration": 0.261,
      "velocity": 106,
      "chip": "ym2612"
    },
    {
      "channel": 5,
      "note": 54,
      "start": 22.8506,
      "duration": 0.1083,
      "velocity": 108,
      "chip": "ym2612"
    },
    {
      "channel": 2,
      "note": 84,
      "start": 22.8537,
      "duration": 0.001,
      "velocity": 124,
      "chip": "ym2612"
    },
    {
      "channel": 2,
      "note": 46,
      "start": 22.8566,
      "duration": 0.0356,
      "velocity": 117,
      "chip": "ym2612"
    },
    {
      "channel": 5,
      "note": 54,
      "start": 22.9784,
      "duration": 0.1307,
      "velocity": 108,
      "chip": "ym2612"
    },
    {
      "channel": 4,
      "note": 76,
      "start": 22.981,
      "duration": 0.3946,
      "velocity": 107,
      "chip": "ym2612"
    },
    {
      "channel": 2,
      "note": 84,
      "start": 22.9839,
      "duration": 0.0418,
      "velocity": 124,
      "chip": "ym2612"
    },
    {
      "channel": 0,
      "note": 57,
      "start": 23.1283,
      "duration": 0.247,
      "velocity": 106,
      "chip": "ym2612"
    },
    {
      "channel": 1,
      "note": 64,
      "start": 23.1309,
      "duration": 0.2446,
      "velocity": 106,
      "chip": "ym2612"
    },
    {
      "channel": 5,
      "note": 54,
      "start": 23.1335,
      "duration": 0.1088,
      "velocity": 108,
      "chip": "ym2612"
    },
    {
      "channel": 2,
      "note": 84,
      "start": 23.1364,
      "duration": 0.001,
      "velocity": 124,
      "chip": "ym2612"
    },
    {
      "channel": 2,
      "note": 46,
      "start": 23.1393,
      "duration": 0.0364,
      "velocity": 117,
      "chip": "ym2612"
    },
    {
      "channel": 5,
      "note": 54,
      "start": 23.2622,
      "duration": 0.1135,
      "velocity": 108,
      "chip": "ym2612"
    },
    {
      "channel": 2,
      "note": 84,
      "start": 23.2652,
      "duration": 0.0008,
      "velocity": 124,
      "chip": "ym2612"
    },
    {
      "channel": 2,
      "note": 46,
      "start": 23.2679,
      "duration": 0.041,
      "velocity": 117,
      "chip": "ym2612"
    },
    {
      "channel": 0,
      "note": 54,
      "start": 23.3949,
      "duration": 0.2637,
      "velocity": 106,
      "chip": "ym2612"
    },
    {
      "channel": 1,
      "note": 61,
      "start": 23.3975,
      "duration": 0.2613,
      "velocity": 106,
      "chip": "ym2612"
    },
    {
      "channel": 5,
      "note": 54,
      "start": 23.4001,
      "duration": 0.1254,
      "velocity": 108,
      "chip": "ym2612"
    },
    {
      "channel": 4,
      "note": 73,
      "start": 23.4038,
      "duration": 1.6717,
      "velocity": 107,
      "chip": "ym2612"
    },
    {
      "channel": 2,
      "note": 84,
      "start": 23.4067,
      "duration": 0.001,
      "velocity": 124,
      "chip": "ym2612"
    },
    {
      "channel": 2,
      "note": 46,
      "start": 23.4099,
      "duration": 0.0323,
      "velocity": 117,
      "chip": "ym2612"
    },
    {
      "channel": 5,
      "note": 54,
      "start": 23.545,
      "duration": 0.1139,
      "velocity": 108,
      "chip": "ym2612"
    },
    {
      "channel": 2,
      "note": 46,
      "start": 23.5482,
      "duration": 0.0441,
      "velocity": 117,
      "chip": "ym2612"
    },
    {
      "channel": 0,
      "note": 61,
      "start": 23.6783,
      "duration": 0.2639,
      "velocity": 106,
      "chip": "ym2612"
    },
    {
      "channel": 1,
      "note": 54,
      "start": 23.6808,
      "duration": 0.2615,
      "velocity": 106,
      "chip": "ym2612"
    },
    {
      "channel": 5,
      "note": 54,
      "start": 23.6834,
      "duration": 0.1088,
      "velocity": 108,
      "chip": "ym2612"
    },
    {
      "channel": 2,
      "note": 84,
      "start": 23.6869,
      "duration": 0.0015,
      "velocity": 124,
      "chip": "ym2612"
    },
    {
      "channel": 2,
      "note": 46,
      "start": 23.6903,
      "duration": 0.0353,
      "velocity": 117,
      "chip": "ym2612"
    },
    {
      "channel": 5,
      "note": 54,
      "start": 23.8118,
      "duration": 0.1307,
      "velocity": 108,
      "chip": "ym2612"
    },
    {
      "channel": 2,
      "note": 84,
      "start": 23.8147,
      "duration": 0.0611,
      "velocity": 124,
      "chip": "ym2612"
    },
    {
      "channel": 0,
      "note": 54,
      "start": 23.9623,
      "duration": 0.1131,
      "velocity": 106,
      "chip": "ym2612"
    },
    {
      "channel": 1,
      "note": 61,
      "start": 23.9648,
      "duration": 0.1107,
      "velocity": 106,
      "chip": "ym2612"
    },
    {
      "channel": 5,
      "note": 54,
      "start": 23.9674,
      "duration": 0.1083,
      "velocity": 108,
      "chip": "ym2612"
    },
    {
      "channel": 2,
      "note": 84,
      "start": 23.9703,
      "duration": 0.001,
      "velocity": 124,
      "chip": "ym2612"
    },
    {
      "channel": 2,
      "note": 46,
      "start": 23.9732,
      "duration": 0.0358,
      "velocity": 117,
      "chip": "ym2612"
    },
    {
      "channel": 0,
      "note": 54,
      "start": 24.095,
      "duration": 0.1137,
      "velocity": 106,
      "chip": "ym2612"
    },
    {
      "channel": 1,
      "note": 61,
      "start": 24.0975,
      "duration": 0.1113,
      "velocity": 106,
      "chip": "ym2612"
    },
    {
      "channel": 5,
      "note": 54,
      "start": 24.1001,
      "duration": 0.109,
      "velocity": 108,
      "chip": "ym2612"
    },
    {
      "channel": 2,
      "note": 84,
      "start": 24.1031,
      "duration": 0.0008,
      "velocity": 124,
      "chip": "ym2612"
    },
    {
      "channel": 2,
      "note": 46,
      "start": 24.1058,
      "duration": 0.0365,
      "velocity": 117,
      "chip": "ym2612"
    },
    {
      "channel": 0,
      "note": 52,
      "start": 24.2285,
      "duration": 0.2635,
      "velocity": 106,
      "chip": "ym2612"
    },
    {
      "channel": 1,
      "note": 59,
      "start": 24.231,
      "duration": 0.2611,
      "velocity": 106,
      "chip": "ym2612"
    },
    {
      "channel": 5,
      "note": 52,
      "start": 24.234,
      "duration": 0.2584,
      "velocity": 108,
      "chip": "ym2612"
    },
    {
      "channel": 2,
      "note": 84,
      "start": 24.2371,
      "duration": 0.0009,
      "velocity": 124,
      "chip": "ym2612"
    },
    {
      "channel": 2,
      "note": 46,
      "start": 24.2399,
      "duration": 0.0524,
      "velocity": 117,
      "chip": "ym2612"
    },
    {
      "channel": 2,
      "note": 46,
      "start": 24.379,
      "duration": 0.0467,
      "velocity": 117,
      "chip": "ym2612"
    },
    {
      "channel": 0,
      "note": 49,
      "start": 24.5117,
      "duration": 0.2636,
      "velocity": 106,
      "chip": "ym2612"
    },
    {
      "channel": 1,
      "note": 56,
      "start": 24.5146,
      "duration": 0.2609,
      "velocity": 106,
      "chip": "ym2612"
    },
    {
      "channel": 5,
      "note": 49,
      "start": 24.5172,
      "duration": 0.2585,
      "velocity": 108,
      "chip": "ym2612"
    },
    {
      "channel": 2,
      "note": 84,
      "start": 24.5204,
      "duration": 0.001,
      "velocity": 124,
      "chip": "ym2612"
    },
    {
      "channel": 2,
      "note": 46,
      "start": 24.5233,
      "duration": 0.0356,
      "velocity": 117,
      "chip": "ym2612"
    },
    {
      "channel": 3,
      "note": 81,
      "start": 24.6621,
      "duration": 0.3969,
      "velocity": 1,
      "chip": "ym2612"
    },
    {
      "channel": 2,
      "note": 84,
      "start": 24.6648,
      "duration": 0.0442,
      "velocity": 124,
      "chip": "ym2612"
    },
    {
      "channel": 0,
      "note": 52,
      "start": 24.795,
      "duration": 0.2637,
      "velocity": 106,
      "chip": "ym2612"
    },
    {
      "channel": 1,
      "note": 59,
      "start": 24.7976,
      "duration": 0.2613,
      "velocity": 106,
      "chip": "ym2612"
    },
    {
      "channel": 5,
      "note": 52,
      "start": 24.8006,
      "duration": 0.1083,
      "velocity": 108,
      "chip": "ym2612"
    },
    {
      "channel": 2,
      "note": 84,
      "start": 24.8034,
      "duration": 0.001,
      "velocity": 124,
      "chip": "ym2612"
    },
    {
      "channel": 2,
      "note": 46,
      "start": 24.8064,
      "duration": 0.036,
      "velocity": 117,
      "chip": "ym2612"
    },
    {
      "channel": 5,
      "note": 52,
      "start": 24.9285,
      "duration": 0.1307,
      "velocity": 108,
      "chip": "ym2612"
    },
    {
      "channel": 2,
      "note": 84,
      "start": 24.9314,
      "duration": 0.0009,
      "velocity": 124,
      "chip": "ym2612"
    },
    {
      "channel": 2,
      "note": 46,
      "start": 24.9342,
      "duration": 0.0415,
      "velocity": 117,
      "chip": "ym2612"
    },
    {
      "channel": 0,
      "note": 54,
      "start": 25.0786,
      "duration": 0.1134,
      "velocity": 106,
      "chip": "ym2612"
    },
    {
      "channel": 1,
      "note": 61,
      "start": 25.0811,
      "duration": 0.111,
      "velocity": 106,
      "chip": "ym2612"
    },
    {
      "channel": 5,
      "note": 54,
      "start": 25.0843,
      "duration": 0.1081,
      "velocity": 108,
      "chip": "ym2612"
    },
    {
      "channel": 3,
      "note": 92,
      "start": 25.0872,
      "duration": 0.8051,
      "velocity": 1,
      "chip": "ym2612"
    },
    {
      "channel": 2,
      "note": 84,
      "start": 25.0901,
      "duration": 0.0356,
      "velocity": 124,
      "chip": "ym2612"
    },
    {
      "channel": 4,
      "note": 46,
      "start": 25.0933,
      "duration": 0.0322,
      "velocity": 117,
      "chip": "ym2612"
    },
    {
      "channel": 4,
      "note": 46,
      "start": 25.2123,
      "duration": 0.0465,
      "velocity": 117,
      "chip": "ym2612"
    },
    {
      "channel": 0,
      "note": 54,
      "start": 25.3449,
      "duration": 0.1304,
      "velocity": 106,
      "chip": "ym2612"
    },
    {
      "channel": 1,
      "note": 61,
      "start": 25.3475,
      "duration": 0.128,
      "velocity": 106,
      "chip": "ym2612"
    },
    {
      "channel": 5,
      "note": 54,
      "start": 25.3502,
      "duration": 0.1254,
      "velocity": 108,
      "chip": "ym2612"
    },
    {
      "channel": 2,
      "note": 84,
      "start": 25.3534,
      "duration": 0.0389,
      "velocity": 124,
      "chip": "ym2612"
    },
    {
      "channel": 4,
      "note": 46,
      "start": 25.3561,
      "duration": 0.036,
      "velocity": 117,
      "chip": "ym2612"
    },
    {
      "channel": 0,
      "note": 52,
      "start": 25.495,
      "duration": 0.1137,
      "velocity": 106,
      "chip": "ym2612"
    },
    {
      "channel": 1,
      "note": 59,
      "start": 25.4979,
      "duration": 0.1109,
      "velocity": 106,
      "chip": "ym2612"
    },
    {
      "channel": 5,
      "note": 52,
      "start": 25.5006,
      "duration": 0.1085,
      "velocity": 108,
      "chip": "ym2612"
    },
    {
      "channel": 2,
      "note": 84,
      "start": 25.5039,
      "duration": 0.0385,
      "velocity": 124,
      "chip": "ym2612"
    },
    {
      "channel": 0,
      "note": 49,
      "start": 25.6284,
      "duration": 0.1137,
      "velocity": 106,
      "chip": "ym2612"
    },
    {
      "channel": 1,
      "note": 56,
      "start": 25.6309,
      "duration": 0.1113,
      "velocity": 106,
      "chip": "ym2612"
    },
    {
      "channel": 5,
      "note": 49,
      "start": 25.6336,
      "duration": 0.1089,
      "velocity": 108,
      "chip": "ym2612"
    },
    {
      "channel": 2,
      "note": 84,
      "start": 25.6365,
      "duration": 0.0393,
      "velocity": 124,
      "chip": "ym2612"
    },
    {
      "channel": 4,
      "note": 46,
      "start": 25.6396,
      "duration": 0.0359,
      "velocity": 117,
      "chip": "ym2612"
    },
    {
      "channel": 0,
      "note": 52,
      "start": 25.7616,
      "duration": 0.1304,
      "velocity": 106,
      "chip": "ym2612"
    },
    {
      "channel": 1,
      "note": 59,
      "start": 25.7642,
      "duration": 0.1279,
      "velocity": 106,
      "chip": "ym2612"
    },
    {
      "channel": 5,
      "note": 52,
      "start": 25.7668,
      "duration": 0.1256,
      "velocity": 108,
      "chip": "ym2612"
    },
    {
      "channel": 2,
      "note": 84,
      "start": 25.7697,
      "duration": 0.0559,
      "velocity": 124,
      "chip": "ym2612"
    },
    {
      "channel": 4,
      "note": 46,
      "start": 25.7723,
      "duration": 0.0531,
      "velocity": 117,
      "chip": "ym2612"
    },
    {
      "channel": 0,
      "note": 54,
      "start": 25.9116,
      "duration": 0.1137,
      "velocity": 106,
      "chip": "ym2612"
    },
    {
      "channel": 1,
      "note": 61,
      "start": 25.9141,
      "duration": 0.1113,
      "velocity": 106,
      "chip": "ym2612"
    },
    {
      "channel": 5,
      "note": 54,
      "start": 25.9168,
      "duration": 0.1089,
      "velocity": 108,
      "chip": "ym2612"
    },
    {
      "channel": 4,
      "note": 69,
      "start": 25.9198,
      "duration": 0.3891,
      "velocity": 107,
      "chip": "ym2612"
    },
    {
      "channel": 3,
      "note": 89,
      "start": 25.923,
      "duration": 2.8858,
      "velocity": 1,
      "chip": "ym2612"
    },
    {
      "channel": 2,
      "note": 84,
      "start": 25.9263,
      "duration": 0.0009,
      "velocity": 124,
      "chip": "ym2612"
    },
    {
      "channel": 2,
      "note": 46,
      "start": 25.9291,
      "duration": 0.0298,
      "velocity": 117,
      "chip": "ym2612"
    },
    {
      "channel": 5,
      "note": 54,
      "start": 26.0451,
      "duration": 0.1137,
      "velocity": 108,
      "chip": "ym2612"
    },
    {
      "channel": 2,
      "note": 46,
      "start": 26.0483,
      "duration": 0.044,
      "velocity": 117,
      "chip": "ym2612"
    },
    {
      "channel": 0,
      "note": 54,
      "start": 26.1949,
      "duration": 0.1137,
      "velocity": 106,
      "chip": "ym2612"
    },
    {
      "channel": 1,
      "note": 61,
      "start": 26.1978,
      "duration": 0.1109,
      "velocity": 106,
      "chip": "ym2612"
    },
    {
      "channel": 5,
      "note": 54,
      "start": 26.2005,
      "duration": 0.1086,
      "velocity": 108,
      "chip": "ym2612"
    },
    {
      "channel": 2,
      "note": 84,
      "start": 26.2036,
      "duration": 0.001,
      "velocity": 124,
      "chip": "ym2612"
    },
    {
      "channel": 2,
      "note": 46,
      "start": 26.2065,
      "duration": 0.0358,
      "velocity": 117,
      "chip": "ym2612"
    },
    {
      "channel": 0,
      "note": 52,
      "start": 26.3284,
      "duration": 0.1137,
      "velocity": 106,
      "chip": "ym2612"
    },
    {
      "channel": 1,
      "note": 59,
      "start": 26.3309,
      "duration": 0.1113,
      "velocity": 106,
      "chip": "ym2612"
    },
    {
      "channel": 5,
      "note": 52,
      "start": 26.3335,
      "duration": 0.109,
      "velocity": 108,
      "chip": "ym2612"
    },
    {
      "channel": 4,
      "note": 73,
      "start": 26.3361,
      "duration": 0.3895,
      "velocity": 107,
      "chip": "ym2612"
    },
    {
      "channel": 2,
      "note": 84,
      "start": 26.3389,
      "duration": 0.0367,
      "velocity": 124,
      "chip": "ym2612"
    },
    {
      "channel": 0,
      "note": 49,
      "start": 26.4616,
      "duration": 0.1305,
      "velocity": 106,
      "chip": "ym2612"
    },
    {
      "channel": 1,
      "note": 56,
      "start": 26.4642,
      "duration": 0.128,
      "velocity": 106,
      "chip": "ym2612"
    },
    {
      "channel": 5,
      "note": 49,
      "start": 26.4668,
      "duration": 0.1257,
      "velocity": 108,
      "chip": "ym2612"
    },
    {
      "channel": 2,
      "note": 84,
      "start": 26.4697,
      "duration": 0.001,
      "velocity": 124,
      "chip": "ym2612"
    },
    {
      "channel": 2,
      "note": 46,
      "start": 26.4727,
      "duration": 0.0364,
      "velocity": 117,
      "chip": "ym2612"
    },
    {
      "channel": 0,
      "note": 52,
      "start": 26.6116,
      "duration": 0.1137,
      "velocity": 106,
      "chip": "ym2612"
    },
    {
      "channel": 1,
      "note": 59,
      "start": 26.6142,
      "duration": 0.1112,
      "velocity": 106,
      "chip": "ym2612"
    },
    {
      "channel": 5,
      "note": 52,
      "start": 26.6168,
      "duration": 0.109,
      "velocity": 108,
      "chip": "ym2612"
    },
    {
      "channel": 2,
      "note": 84,
      "start": 26.6198,
      "duration": 0.0008,
      "velocity": 124,
      "chip": "ym2612"
    },
    {
      "channel": 2,
      "note": 46,
      "start": 26.6225,
      "duration": 0.0364,
      "velocity": 117,
      "chip": "ym2612"
    },
    {
      "channel": 0,
      "note": 54,
      "start": 26.7455,
      "duration": 0.2632,
      "velocity": 106,
      "chip": "ym2612"
    },
    {
      "channel": 1,
      "note": 61,
      "start": 26.748,
      "duration": 0.2607,
      "velocity": 106,
      "chip": "ym2612"
    },
    {
      "channel": 5,
      "note": 54,
      "start": 26.751,
      "duration": 0.2245,
      "velocity": 108,
      "chip": "ym2612"
    },
    {
      "channel": 4,
      "note": 72,
      "start": 26.7543,
      "duration": 1.2378,
      "velocity": 107,
      "chip": "ym2612"
    },
    {
      "channel": 2,
      "note": 84,
      "start": 26.7573,
      "duration": 0.0013,
      "velocity": 124,
      "chip": "ym2612"
    },
    {
      "channel": 2,
      "note": 46,
      "start": 26.7606,
      "duration": 0.0317,
      "velocity": 117,
      "chip": "ym2612"
    },
    {
      "channel": 2,
      "note": 46,
      "start": 26.879,
      "duration": 0.0466,
      "velocity": 117,
      "chip": "ym2612"
    },
    {
      "channel": 0,
      "note": 61,
      "start": 27.0283,
      "duration": 0.2471,
      "velocity": 106,
      "chip": "ym2612"
    },
    {
      "channel": 1,
      "note": 54,
      "start": 27.0309,
      "duration": 0.2447,
      "velocity": 106,
      "chip": "ym2612"
    },
    {
      "channel": 5,
      "note": 54,
      "start": 27.0335,
      "duration": 0.2088,
      "velocity": 108,
      "chip": "ym2612"
    },
    {
      "channel": 2,
      "note": 84,
      "start": 27.0366,
      "duration": 0.001,
      "velocity": 124,
      "chip": "ym2612"
    },
    {
      "channel": 2,
      "note": 46,
      "start": 27.0395,
      "duration": 0.0361,
      "velocity": 117,
      "chip": "ym2612"
    },
    {
      "channel": 2,
      "note": 84,
      "start": 27.1622,
      "duration": 0.0469,
      "velocity": 124,
      "chip": "ym2612"
    },
    {
      "channel": 0,
      "note": 54,
      "start": 27.2952,
      "duration": 0.1302,
      "velocity": 106,
      "chip": "ym2612"
    },
    {
      "channel": 1,
      "note": 61,
      "start": 27.2978,
      "duration": 0.1278,
      "velocity": 106,
      "chip": "ym2612"
    },
    {
      "channel": 5,
      "note": 54,
      "start": 27.3012,
      "duration": 0.1247,
      "velocity": 108,
      "chip": "ym2612"
    },
    {
      "channel": 2,
      "note": 84,
      "start": 27.304,
      "duration": 0.001,
      "velocity": 124,
      "chip": "ym2612"
    },
    {
      "channel": 2,
      "note": 46,
      "start": 27.3069,
      "duration": 0.0522,
      "velocity": 117,
      "chip": "ym2612"
    },
    {
      "channel": 0,
      "note": 54,
      "start": 27.445,
      "duration": 0.1136,
      "velocity": 106,
      "chip": "ym2612"
    },
    {
      "channel": 1,
      "note": 61,
      "start": 27.4475,
      "duration": 0.1112,
      "velocity": 106,
      "chip": "ym2612"
    },
    {
      "channel": 5,
      "note": 54,
      "start": 27.4501,
      "duration": 0.1088,
      "velocity": 108,
      "chip": "ym2612"
    },
    {
      "channel": 2,
      "note": 84,
      "start": 27.4535,
      "duration": 0.0009,
      "velocity": 124,
      "chip": "ym2612"
    },
    {
      "channel": 2,
      "note": 46,
      "start": 27.4562,
      "duration": 0.036,
      "velocity": 117,
      "chip": "ym2612"
    },
    {
      "channel": 0,
      "note": 52,
      "start": 27.5789,
      "duration": 0.2631,
      "velocity": 106,
      "chip": "ym2612"
    },
    {
      "channel": 1,
      "note": 59,
      "start": 27.5814,
      "duration": 0.2607,
      "velocity": 106,
      "chip": "ym2612"
    },
    {
      "channel": 5,
      "note": 52,
      "start": 27.5844,
      "duration": 0.1912,
      "velocity": 108,
      "chip": "ym2612"
    },
    {
      "channel": 2,
      "note": 84,
      "start": 27.5875,
      "duration": 0.0013,
      "velocity": 124,
      "chip": "ym2612"
    },
    {
      "channel": 2,
      "note": 46,
      "start": 27.5907,
      "duration": 0.0349,
      "velocity": 117,
      "chip": "ym2612"
    },
    {
      "channel": 2,
      "note": 46,
      "start": 27.7123,
      "duration": 0.0633,
      "velocity": 117,
      "chip": "ym2612"
    },
    {
      "channel": 0,
      "note": 49,
      "start": 27.8616,
      "duration": 0.2638,
      "velocity": 106,
      "chip": "ym2612"
    },
    {
      "channel": 1,
      "note": 56,
      "start": 27.8641,
      "duration": 0.2614,
      "velocity": 106,
      "chip": "ym2612"
    },
    {
      "channel": 5,
      "note": 49,
      "start": 27.8671,
      "duration": 0.1085,
      "velocity": 108,
      "chip": "ym2612"
    },
    {
      "channel": 2,
      "note": 84,
      "start": 27.8702,
      "duration": 0.001,
      "velocity": 124,
      "chip": "ym2612"
    },
    {
      "channel": 2,
      "note": 46,
      "start": 27.8731,
      "duration": 0.0359,
      "velocity": 117,
      "chip": "ym2612"
    },
    {
      "channel": 5,
      "note": 49,
      "start": 27.9952,
      "duration": 0.1305,
      "velocity": 108,
      "chip": "ym2612"
    },
    {
      "channel": 2,
      "note": 84,
      "start": 27.9982,
      "duration": 0.0442,
      "velocity": 124,
      "chip": "ym2612"
    },
    {
      "channel": 0,
      "note": 52,
      "start": 28.1451,
      "duration": 0.2469,
      "velocity": 106,
      "chip": "ym2612"
    },
    {
      "channel": 1,
      "note": 59,
      "start": 28.1476,
      "duration": 0.2445,
      "velocity": 106,
      "chip": "ym2612"
    },
    {
      "channel": 5,
      "note": 52,
      "start": 28.1506,
      "duration": 0.2249,
      "velocity": 108,
      "chip": "ym2612"
    },
    {
      "channel": 2,
      "note": 84,
      "start": 28.1535,
      "duration": 0.0389,
      "velocity": 124,
      "chip": "ym2612"
    },
    {
      "channel": 4,
      "note": 46,
      "start": 28.1564,
      "duration": 0.0359,
      "velocity": 117,
      "chip": "ym2612"
    },
    {
      "channel": 2,
      "note": 84,
      "start": 28.2789,
      "duration": 0.0468,
      "velocity": 124,
      "chip": "ym2612"
    },
    {
      "channel": 4,
      "note": 46,
      "start": 28.2815,
      "duration": 0.044,
      "velocity": 117,
      "chip": "ym2612"
    },
    {
      "channel": 0,
      "note": 54,
      "start": 28.4116,
      "duration": 0.2637,
      "velocity": 106,
      "chip": "ym2612"
    },
    {
      "channel": 1,
      "note": 61,
      "start": 28.4145,
      "duration": 0.2609,
      "velocity": 106,
      "chip": "ym2612"
    },
    {
      "channel": 5,
      "note": 54,
      "start": 28.4179,
      "duration": 0.1243,
      "velocity": 108,
      "chip": "ym2612"
    },
    {
      "channel": 2,
      "note": 84,
      "start": 28.421,
      "duration": 0.038,
      "velocity": 124,
      "chip": "ym2612"
    },
    {
      "channel": 4,
      "note": 46,
      "start": 28.4235,
      "duration": 0.0352,
      "velocity": 117,
      "chip": "ym2612"
    },
    {
      "channel": 5,
      "note": 54,
      "start": 28.5617,
      "duration": 0.1139,
      "velocity": 108,
      "chip": "ym2612"
    },
    {
      "channel": 4,
      "note": 46,
      "start": 28.5647,
      "duration": 0.0441,
      "velocity": 117,
      "chip": "ym2612"
    },
    {
      "channel": 0,
      "note": 61,
      "start": 28.6949,
      "duration": 0.2638,
      "velocity": 106,
      "chip": "ym2612"
    },
    {
      "channel": 1,
      "note": 54,
      "start": 28.6975,
      "duration": 0.2614,
      "velocity": 106,
      "chip": "ym2612"
    },
    {
      "channel": 5,
      "note": 54,
      "start": 28.7001,
      "duration": 0.1089,
      "velocity": 108,
      "chip": "ym2612"
    },
    {
      "channel": 2,
      "note": 84,
      "start": 28.7032,
      "duration": 0.0392,
      "velocity": 124,
      "chip": "ym2612"
    },
    {
      "channel": 4,
      "note": 46,
      "start": 28.7059,
      "duration": 0.0363,
      "velocity": 117,
      "chip": "ym2612"
    },
    {
      "channel": 5,
      "note": 54,
      "start": 28.8284,
      "duration": 0.1307,
      "velocity": 108,
      "chip": "ym2612"
    },
    {
      "channel": 3,
      "note": 78,
      "start": 28.8313,
      "duration": 0.3944,
      "velocity": 1,
      "chip": "ym2612"
    },
    {
      "channel": 2,
      "note": 84,
      "start": 28.834,
      "duration": 0.0417,
      "velocity": 124,
      "chip": "ym2612"
    },
    {
      "channel": 0,
      "note": 54,
      "start": 28.9786,
      "duration": 0.1135,
      "velocity": 106,
      "chip": "ym2612"
    },
    {
      "channel": 1,
      "note": 61,
      "start": 28.9811,
      "duration": 0.1111,
      "velocity": 106,
      "chip": "ym2612"
    },
    {
      "channel": 5,
      "note": 54,
      "start": 28.9838,
      "duration": 0.1086,
      "velocity": 108,
      "chip": "ym2612"
    },
    {
      "channel": 2,
      "note": 84,
      "start": 28.9866,
      "duration": 0.039,
      "velocity": 124,
      "chip": "ym2612"
    },
    {
      "channel": 4,
      "note": 46,
      "start": 28.9894,
      "duration": 0.0361,
      "velocity": 117,
      "chip": "ym2612"
    },
    {
      "channel": 0,
      "note": 54,
      "start": 29.1118,
      "duration": 0.1136,
      "velocity": 106,
      "chip": "ym2612"
    },
    {
      "channel": 1,
      "note": 61,
      "start": 29.1143,
      "duration": 0.1112,
      "velocity": 106,
      "chip": "ym2612"
    },
    {
      "channel": 5,
      "note": 54,
      "start": 29.1169,
      "duration": 0.1089,
      "velocity": 108,
      "chip": "ym2612"
    },
    {
      "channel": 2,
      "note": 84,
      "start": 29.1198,
      "duration": 0.0392,
      "velocity": 124,
      "chip": "ym2612"
    },
    {
      "channel": 4,
      "note": 46,
      "start": 29.1224,
      "duration": 0.0364,
      "velocity": 117,
      "chip": "ym2612"
    },
    {
      "channel": 0,
      "note": 57,
      "start": 29.2456,
      "duration": 0.2632,
      "velocity": 106,
      "chip": "ym2612"
    },
    {
      "channel": 1,
      "note": 64,
      "start": 29.2481,
      "duration": 0.2607,
      "velocity": 106,
      "chip": "ym2612"
    },
    {
      "channel": 5,
      "note": 57,
      "start": 29.2511,
      "duration": 0.258,
      "velocity": 108,
      "chip": "ym2612"
    },
    {
      "channel": 4,
      "note": 69,
      "start": 29.2542,
      "duration": 0.3879,
      "velocity": 107,
      "chip": "ym2612"
    },
    {
      "channel": 3,
      "note": 89,
      "start": 29.2574,
      "duration": 0.618,
      "velocity": 1,
      "chip": "ym2612"
    },
    {
      "channel": 2,
      "note": 84,
      "start": 29.2611,
      "duration": 0.0009,
      "velocity": 124,
      "chip": "ym2612"
    },
    {
      "channel": 2,
      "note": 46,
      "start": 29.2639,
      "duration": 0.0451,
      "velocity": 117,
      "chip": "ym2612"
    },
    {
      "channel": 2,
      "note": 46,
      "start": 29.3956,
      "duration": 0.0467,
      "velocity": 117,
      "chip": "ym2612"
    },
    {
      "channel": 0,
      "note": 59,
      "start": 29.5284,
      "duration": 0.2636,
      "velocity": 106,
      "chip": "ym2612"
    },
    {
      "channel": 1,
      "note": 66,
      "start": 29.5309,
      "duration": 0.2613,
      "velocity": 106,
      "chip": "ym2612"
    },
    {
      "channel": 5,
      "note": 59,
      "start": 29.5335,
      "duration": 0.2588,
      "velocity": 108,
      "chip": "ym2612"
    },
    {
      "channel": 2,
      "note": 84,
      "start": 29.5366,
      "duration": 0.0015,
      "velocity": 124,
      "chip": "ym2612"
    },
    {
      "channel": 2,
      "note": 46,
      "start": 29.54,
      "duration": 0.0356,
      "velocity": 117,
      "chip": "ym2612"
    },
    {
      "channel": 4,
      "note": 68,
      "start": 29.6618,
      "duration": 0.4139,
      "velocity": 107,
      "chip": "ym2612"
    },
    {
      "channel": 2,
      "note": 84,
      "start": 29.6646,
      "duration": 0.0611,
      "velocity": 124,
      "chip": "ym2612"
    },
    {
      "channel": 0,
      "note": 57,
      "start": 29.8117,
      "duration": 0.2637,
      "velocity": 106,
      "chip": "ym2612"
    },
    {
      "channel": 1,
      "note": 64,
      "start": 29.8142,
      "duration": 0.2613,
      "velocity": 106,
      "chip": "ym2612"
    },
    {
      "channel": 5,
      "note": 57,
      "start": 29.8168,
      "duration": 0.259,
      "velocity": 108,
      "chip": "ym2612"
    },
    {
      "channel": 2,
      "note": 84,
      "start": 29.8198,
      "duration": 0.001,
      "velocity": 124,
      "chip": "ym2612"
    },
    {
      "channel": 2,
      "note": 46,
      "start": 29.8227,
      "duration": 0.0363,
      "velocity": 117,
      "chip": "ym2612"
    },
    {
      "channel": 3,
      "note": 86,
      "start": 29.8789,
      "duration": 0.8133,
      "velocity": 1,
      "chip": "ym2612"
    },
    {
      "channel": 2,
      "note": 84,
      "start": 29.9456,
      "duration": 0.0008,
      "velocity": 124,
      "chip": "ym2612"
    },
    {
      "channel": 2,
      "note": 46,
      "start": 29.9483,
      "duration": 0.044,
      "velocity": 117,
      "chip": "ym2612"
    },
    {
      "channel": 0,
      "note": 54,
      "start": 30.095,
      "duration": 0.2471,
      "velocity": 106,
      "chip": "ym2612"
    },
    {
      "channel": 1,
      "note": 61,
      "start": 30.0975,
      "duration": 0.2446,
      "velocity": 106,
      "chip": "ym2612"
    },
    {
      "channel": 5,
      "note": 54,
      "start": 30.1005,
      "duration": 0.1084,
      "velocity": 108,
      "chip": "ym2612"
    },
    {
      "channel": 4,
      "note": 65,
      "start": 30.1038,
      "duration": 0.6384,
      "velocity": 107,
      "chip": "ym2612"
    },
    {
      "channel": 2,
      "note": 84,
      "start": 30.1068,
      "duration": 0.0009,
      "velocity": 124,
      "chip": "ym2612"
    },
    {
      "channel": 2,
      "note": 46,
      "start": 30.11,
      "duration": 0.0322,
      "velocity": 117,
      "chip": "ym2612"
    },
    {
      "channel": 5,
      "note": 54,
      "start": 30.2284,
      "duration": 0.114,
      "velocity": 108,
      "chip": "ym2612"
    },
    {
      "channel": 2,
      "note": 46,
      "start": 30.2316,
      "duration": 0.044,
      "velocity": 117,
      "chip": "ym2612"
    },
    {
      "channel": 0,
      "note": 61,
      "start": 30.3621,
      "duration": 0.2632,
      "velocity": 106,
      "chip": "ym2612"
    },
    {
      "channel": 1,
      "note": 54,
      "start": 30.3646,
      "duration": 0.2609,
      "velocity": 106,
      "chip": "ym2612"
    },
    {
      "channel": 5,
      "note": 54,
      "start": 30.3672,
      "duration": 0.125,
      "velocity": 108,
      "chip": "ym2612"
    },
    {
      "channel": 2,
      "note": 84,
      "start": 30.3704,
      "duration": 0.001,
      "velocity": 124,
      "chip": "ym2612"
    },
    {
      "channel": 2,
      "note": 46,
      "start": 30.3733,
      "duration": 0.0356,
      "velocity": 117,
      "chip": "ym2612"
    },
    {
      "channel": 5,
      "note": 54,
      "start": 30.5122,
      "duration": 0.1135,
      "velocity": 108,
      "chip": "ym2612"
    },
    {
      "channel": 2,
      "note": 84,
      "start": 30.5151,
      "duration": 0.0439,
      "velocity": 124,
      "chip": "ym2612"
    },
    {
      "channel": 0,
      "note": 54,
      "start": 30.6452,
      "duration": 0.1135,
      "velocity": 106,
      "chip": "ym2612"
    },
    {
      "channel": 1,
      "note": 61,
      "start": 30.6478,
      "duration": 0.1111,
      "velocity": 106,
      "chip": "ym2612"
    },
    {
      "channel": 5,
      "note": 54,
      "start": 30.6504,
      "duration": 0.1088,
      "velocity": 108,
      "chip": "ym2612"
    },
    {
      "channel": 2,
      "note": 84,
      "start": 30.6533,
      "duration": 0.001,
      "velocity": 124,
      "chip": "ym2612"
    },
    {
      "channel": 2,
      "note": 46,
      "start": 30.6562,
      "duration": 0.0362,
      "velocity": 117,
      "chip": "ym2612"
    },
    {
      "channel": 3,
      "note": 85,
      "start": 30.7124,
      "duration": 2.913,
      "velocity": 1,
      "chip": "ym2612"
    },
    {
      "channel": 0,
      "note": 54,
      "start": 30.7783,
      "duration": 0.1304,
      "velocity": 106,
      "chip": "ym2612"
    },
    {
      "channel": 1,
      "note": 61,
      "start": 30.7809,
      "duration": 0.1279,
      "velocity": 106,
      "chip": "ym2612"
    },
    {
      "channel": 5,
      "note": 54,
      "start": 30.7835,
      "duration": 0.1256,
      "velocity": 108,
      "chip": "ym2612"
    },
    {
      "channel": 4,
      "note": 68,
      "start": 30.7865,
      "duration": 0.1225,
      "velocity": 107,
      "chip": "ym2612"
    },
    {
      "channel": 2,
      "note": 84,
      "start": 30.7893,
      "duration": 0.0009,
      "velocity": 124,
      "chip": "ym2612"
    },
    {
      "channel": 2,
      "note": 46,
      "start": 30.7924,
      "duration": 0.0498,
      "velocity": 117,
      "chip": "ym2612"
    },
    {
      "channel": 0,
      "note": 52,
      "start": 30.9284,
      "duration": 0.247,
      "velocity": 106,
      "chip": "ym2612"
    },
    {
      "channel": 1,
      "note": 59,
      "start": 30.9314,
      "duration": 0.2441,
      "velocity": 106,
      "chip": "ym2612"
    },
    {
      "channel": 5,
      "note": 52,
      "start": 30.9344,
      "duration": 0.2245,
      "velocity": 108,
      "chip": "ym2612"
    },
    {
      "channel": 4,
      "note": 66,
      "start": 30.9376,
      "duration": 1.5546,
      "velocity": 107,
      "chip": "ym2612"
    },
    {
      "channel": 2,
      "note": 84,
      "start": 30.9406,
      "duration": 0.0013,
      "velocity": 124,
      "chip": "ym2612"
    },
    {
      "channel": 2,
      "note": 46,
      "start": 30.9438,
      "duration": 0.0318,
      "velocity": 117,
      "chip": "ym2612"
    },
    {
      "channel": 2,
      "note": 46,
      "start": 31.0623,
      "duration": 0.0467,
      "velocity": 117,
      "chip": "ym2612"
    },
    {
      "channel": 0,
      "note": 49,
      "start": 31.195,
      "duration": 0.2638,
      "velocity": 106,
      "chip": "ym2612"
    },
    {
      "channel": 1,
      "note": 56,
      "start": 31.1975,
      "duration": 0.2614,
      "velocity": 106,
      "chip": "ym2612"
    },
    {
      "channel": 5,
      "note": 49,
      "start": 31.2005,
      "duration": 0.1251,
      "velocity": 108,
      "chip": "ym2612"
    },
    {
      "channel": 2,
      "note": 84,
      "start": 31.204,
      "duration": 0.001,
      "velocity": 124,
      "chip": "ym2612"
    },
    {
      "channel": 2,
      "note": 46,
      "start": 31.2069,
      "duration": 0.052,
      "velocity": 117,
      "chip": "ym2612"
    },
    {
      "channel": 5,
      "note": 49,
      "start": 31.3451,
      "duration": 0.1141,
      "velocity": 108,
      "chip": "ym2612"
    },
    {
      "channel": 2,
      "note": 84,
      "start": 31.348,
      "duration": 0.0444,
      "velocity": 124,
      "chip": "ym2612"
    },
    {
      "channel": 0,
      "note": 52,
      "start": 31.4783,
      "duration": 0.2637,
      "velocity": 106,
      "chip": "ym2612"
    },
    {
      "channel": 1,
      "note": 59,
      "start": 31.4809,
      "duration": 0.2613,
      "velocity": 106,
      "chip": "ym2612"
    },
    {
      "channel": 5,
      "note": 52,
      "start": 31.4835,
      "duration": 0.1088,
      "velocity": 108,
      "chip": "ym2612"
    },
    {
      "channel": 2,
      "note": 84,
      "start": 31.4864,
      "duration": 0.0015,
      "velocity": 124,
      "chip": "ym2612"
    },
    {
      "channel": 2,
      "note": 46,
      "start": 31.4897,
      "duration": 0.036,
      "velocity": 117,
      "chip": "ym2612"
    },
    {
      "channel": 5,
      "note": 52,
      "start": 31.6284,
      "duration": 0.114,
      "velocity": 108,
      "chip": "ym2612"
    },
    {
      "channel": 2,
      "note": 84,
      "start": 31.6314,
      "duration": 0.0008,
      "velocity": 124,
      "chip": "ym2612"
    },
    {
      "channel": 2,
      "note": 46,
      "start": 31.6341,
      "duration": 0.0415,
      "velocity": 117,
      "chip": "ym2612"
    },
    {
      "channel": 0,
      "note": 54,
      "start": 31.7618,
      "duration": 0.1135,
      "velocity": 106,
      "chip": "ym2612"
    },
    {
      "channel": 1,
      "note": 61,
      "start": 31.7644,
      "duration": 0.1111,
      "velocity": 106,
      "chip": "ym2612"
    },
    {
      "channel": 5,
      "note": 54,
      "start": 31.7672,
      "duration": 0.1086,
      "velocity": 108,
      "chip": "ym2612"
    },
    {
      "channel": 2,
      "note": 84,
      "start": 31.7705,
      "duration": 0.0008,
      "velocity": 124,
      "chip": "ym2612"
    },
    {
      "channel": 2,
      "note": 46,
      "start": 31.7732,
      "duration": 0.0358,
      "velocity": 117,
      "chip": "ym2612"
    },
    {
      "channel": 2,
      "note": 46,
      "start": 31.8967,
      "duration": 0.0457,
      "velocity": 117,
      "chip": "ym2612"
    },
    {
      "channel": 0,
      "note": 54,
      "start": 32.045,
      "duration": 0.1138,
      "velocity": 106,
      "chip": "ym2612"
    },
    {
      "channel": 1,
      "note": 61,
      "start": 32.0479,
      "duration": 0.111,
      "velocity": 106,
      "chip": "ym2612"
    },
    {
      "channel": 5,
      "note": 54,
      "start": 32.0507,
      "duration": 0.1085,
      "velocity": 108,
      "chip": "ym2612"
    },
    {
      "channel": 2,
      "note": 46,
      "start": 32.0546,
      "duration": 0.0378,
      "velocity": 117,
      "chip": "ym2612"
    },
    {
      "channel": 0,
      "note": 52,
      "start": 32.1783,
      "duration": 0.1137,
      "velocity": 106,
      "chip": "ym2612"
    },
    {
      "channel": 1,
      "note": 59,
      "start": 32.1809,
      "duration": 0.1113,
      "velocity": 106,
      "chip": "ym2612"
    },
    {
      "channel": 5,
      "note": 52,
      "start": 32.1839,
      "duration": 0.1085,
      "velocity": 108,
      "chip": "ym2612"
    },
    {
      "channel": 2,
      "note": 46,
      "start": 32.1882,
      "duration": 0.0375,
      "velocity": 117,
      "chip": "ym2612"
    },
    {
      "channel": 0,
      "note": 49,
      "start": 32.3117,
      "duration": 0.1303,
      "velocity": 106,
      "chip": "ym2612"
    },
    {
      "channel": 1,
      "note": 56,
      "start": 32.3142,
      "duration": 0.1279,
      "velocity": 106,
      "chip": "ym2612"
    },
    {
      "channel": 5,
      "note": 49,
      "start": 32.3168,
      "duration": 0.1256,
      "velocity": 108,
      "chip": "ym2612"
    },
    {
      "channel": 2,
      "note": 46,
      "start": 32.3208,
      "duration": 0.0382,
      "velocity": 117,
      "chip": "ym2612"
    },
    {
      "channel": 0,
      "note": 52,
      "start": 32.4616,
      "duration": 0.1137,
      "velocity": 106,
      "chip": "ym2612"
    },
    {
      "channel": 1,
      "note": 59,
      "start": 32.4642,
      "duration": 0.1113,
      "velocity": 106,
      "chip": "ym2612"
    },
    {
      "channel": 5,
      "note": 52,
      "start": 32.4668,
      "duration": 0.109,
      "velocity": 108,
      "chip": "ym2612"
    },
    {
      "channel": 2,
      "note": 46,
      "start": 32.4707,
      "duration": 0.0383,
      "velocity": 117,
      "chip": "ym2612"
    },
    {
      "channel": 0,
      "note": 49,
      "start": 32.5957,
      "duration": 0.263,
      "velocity": 106,
      "chip": "ym2612"
    },
    {
      "channel": 1,
      "note": 54,
      "start": 32.5982,
      "duration": 0.2606,
      "velocity": 106,
      "chip": "ym2612"
    },
    {
      "channel": 5,
      "note": 54,
      "start": 32.6008,
      "duration": 0.1081,
      "velocity": 108,
      "chip": "ym2612"
    },
    {
      "channel": 4,
      "note": 69,
      "start": 32.6038,
      "duration": 0.3884,
      "velocity": 107,
      "chip": "ym2612"
    },
    {
      "channel": 2,
      "note": 46,
      "start": 32.6076,
      "duration": 0.0347,
      "velocity": 117,
      "chip": "ym2612"
    },
    {
      "channel": 5,
      "note": 54,
      "start": 32.7284,
      "duration": 0.1307,
      "velocity": 108,
      "chip": "ym2612"
    },
    {
      "channel": 2,
      "note": 46,
      "start": 32.7323,
      "duration": 0.06,
      "velocity": 117,
      "chip": "ym2612"
    },
    {
      "channel": 0,
      "note": 52,
      "start": 32.8783,
      "duration": 0.247,
      "velocity": 106,
      "chip": "ym2612"
    },
    {
      "channel": 1,
      "note": 57,
      "start": 32.8809,
      "duration": 0.2446,
      "velocity": 106,
      "chip": "ym2612"
    },
    {
      "channel": 5,
      "note": 57,
      "start": 32.8835,
      "duration": 0.1088,
      "velocity": 108,
      "chip": "ym2612"
    },
    {
      "channel": 2,
      "note": 46,
      "start": 32.8873,
      "duration": 0.0383,
      "velocity": 117,
      "chip": "ym2612"
    },
    {
      "channel": 5,
      "note": 57,
      "start": 33.0118,
      "duration": 0.1139,
      "velocity": 108,
      "chip": "ym2612"
    },
    {
      "channel": 4,
      "note": 73,
      "start": 33.0144,
      "duration": 0.3946,
      "velocity": 107,
      "chip": "ym2612"
    },
    {
      "channel": 2,
      "note": 46,
      "start": 33.0181,
      "duration": 0.0409,
      "velocity": 117,
      "chip": "ym2612"
    },
    {
      "channel": 0,
      "note": 54,
      "start": 33.145,
      "duration": 0.2636,
      "velocity": 106,
      "chip": "ym2612"
    },
    {
      "channel": 1,
      "note": 59,
      "start": 33.1476,
      "duration": 0.2613,
      "velocity": 106,
      "chip": "ym2612"
    },
    {
      "channel": 5,
      "note": 59,
      "start": 33.1502,
      "duration": 0.1255,
      "velocity": 108,
      "chip": "ym2612"
    },
    {
      "channel": 2,
      "note": 46,
      "start": 33.1541,
      "duration": 0.055,
      "velocity": 117,
      "chip": "ym2612"
    },
    {
      "channel": 5,
      "note": 59,
      "start": 33.2951,
      "duration": 0.1141,
      "velocity": 108,
      "chip": "ym2612"
    },
    {
      "channel": 2,
      "note": 46,
      "start": 33.2991,
      "duration": 0.0432,
      "velocity": 117,
      "chip": "ym2612"
    },
    {
      "channel": 0,
      "note": 60,
      "start": 33.4287,
      "duration": 1.2467,
      "velocity": 106,
      "chip": "ym2612"
    },
    {
      "channel": 1,
      "note": 55,
      "start": 33.4318,
      "duration": 1.2437,
      "velocity": 106,
      "chip": "ym2612"
    },
    {
      "channel": 5,
      "note": 60,
      "start": 33.4346,
      "duration": 0.1243,
      "velocity": 108,
      "chip": "ym2612"
    },
    {
      "channel": 4,
      "note": 72,
      "start": 33.4384,
      "duration": 1.5538,
      "velocity": 107,
      "chip": "ym2612"
    },
    {
      "channel": 2,
      "note": 46,
      "start": 33.4414,
      "duration": 0.0342,
      "velocity": 117,
      "chip": "ym2612"
    },
    {
      "channel": 2,
      "note": 46,
      "start": 33.5795,
      "duration": 0.0462,
      "velocity": 117,
      "chip": "ym2612"
    },
    {
      "channel": 5,
      "note": 60,
      "start": 33.712,
      "duration": 0.1136,
      "velocity": 108,
      "chip": "ym2612"
    },
    {
      "channel": 3,
      "note": 84,
      "start": 33.7151,
      "duration": 0.0437,
      "velocity": 124,
      "chip": "ym2612"
    },
    {
      "channel": 2,
      "note": 46,
      "start": 33.7179,
      "duration": 0.0411,
      "velocity": 117,
      "chip": "ym2612"
    },
    {
      "channel": 5,
      "note": 60,
      "start": 33.8451,
      "duration": 0.1305,
      "velocity": 108,
      "chip": "ym2612"
    },
    {
      "channel": 3,
      "note": 84,
      "start": 33.8479,
      "duration": 0.0443,
      "velocity": 124,
      "chip": "ym2612"
    },
    {
      "channel": 5,
      "note": 60,
      "start": 33.9952,
      "duration": 0.1137,
      "velocity": 108,
      "chip": "ym2612"
    },
    {
      "channel": 3,
      "note": 84,
      "start": 33.998,
      "duration": 0.0441,
      "velocity": 124,
      "chip": "ym2612"
    },
    {
      "channel": 2,
      "note": 46,
      "start": 34.0008,
      "duration": 0.0415,
      "velocity": 117,
      "chip": "ym2612"
    },
    {
      "channel": 5,
      "note": 60,
      "start": 34.1285,
      "duration": 0.1137,
      "velocity": 108,
      "chip": "ym2612"
    },
    {
      "channel": 3,
      "note": 84,
      "start": 34.1313,
      "duration": 0.0441,
      "velocity": 124,
      "chip": "ym2612"
    },
    {
      "channel": 2,
      "note": 46,
      "start": 34.134,
      "duration": 0.0417,
      "velocity": 117,
      "chip": "ym2612"
    },
    {
      "channel": 5,
      "note": 60,
      "start": 34.2624,
      "duration": 0.1298,
      "velocity": 108,
      "chip": "ym2612"
    },
    {
      "channel": 3,
      "note": 84,
      "start": 34.2653,
      "duration": 0.0436,
      "velocity": 124,
      "chip": "ym2612"
    },
    {
      "channel": 2,
      "note": 46,
      "start": 34.268,
      "duration": 0.041,
      "velocity": 117,
      "chip": "ym2612"
    },
    {
      "channel": 2,
      "note": 46,
      "start": 34.4124,
      "duration": 0.0466,
      "velocity": 117,
      "chip": "ym2612"
    },
    {
      "channel": 5,
      "note": 60,
      "start": 34.545,
      "duration": 0.1139,
      "velocity": 108,
      "chip": "ym2612"
    },
    {
      "channel": 3,
      "note": 84,
      "start": 34.548,
      "duration": 0.0441,
      "velocity": 124,
      "chip": "ym2612"
    },
    {
      "channel": 2,
      "note": 46,
      "start": 34.5508,
      "duration": 0.0415,
      "velocity": 117,
      "chip": "ym2612"
    },
    {
      "channel": 0,
      "note": 60,
      "start": 34.6787,
      "duration": 0.43,
      "velocity": 106,
      "chip": "ym2612"
    },
    {
      "channel": 1,
      "note": 55,
      "start": 34.6812,
      "duration": 0.4276,
      "velocity": 106,
      "chip": "ym2612"
    },
    {
      "channel": 3,
      "note": 84,
      "start": 34.6845,
      "duration": 0.0577,
      "velocity": 124,
      "chip": "ym2612"
    },
    {
      "channel": 5,
      "note": 60,
      "start": 34.8286,
      "duration": 0.1137,
      "velocity": 108,
      "chip": "ym2612"
    },
    {
      "channel": 3,
      "note": 84,
      "start": 34.8314,
      "duration": 0.0441,
      "velocity": 124,
      "chip": "ym2612"
    },
    {
      "channel": 2,
      "note": 46,
      "start": 34.8342,
      "duration": 0.0415,
      "velocity": 117,
      "chip": "ym2612"
    },
    {
      "channel": 5,
      "note": 60,
      "start": 34.9618,
      "duration": 0.1138,
      "velocity": 108,
      "chip": "ym2612"
    },
    {
      "channel": 3,
      "note": 84,
      "start": 34.9646,
      "duration": 0.0442,
      "velocity": 124,
      "chip": "ym2612"
    },
    {
      "channel": 2,
      "note": 46,
      "start": 34.9672,
      "duration": 0.0418,
      "velocity": 117,
      "chip": "ym2612"
    },
    {
      "channel": 0,
      "note": 59,
      "start": 35.112,
      "duration": 0.2634,
      "velocity": 106,
      "chip": "ym2612"
    },
    {
      "channel": 1,
      "note": 54,
      "start": 35.1148,
      "duration": 0.2607,
      "velocity": 106,
      "chip": "ym2612"
    },
    {
      "channel": 5,
      "note": 59,
      "start": 35.1176,
      "duration": 0.108,
      "velocity": 108,
      "chip": "ym2612"
    },
    {
      "channel": 4,
      "note": 71,
      "start": 35.1207,
      "duration": 0.255,
      "velocity": 107,
      "chip": "ym2612"
    },
    {
      "channel": 3,
      "note": 84,
      "start": 35.1235,
      "duration": 0.0352,
      "velocity": 124,
      "chip": "ym2612"
    },
    {
      "channel": 2,
      "note": 46,
      "start": 35.1266,
      "duration": 0.0324,
      "velocity": 117,
      "chip": "ym2612"
    },
    {
      "channel": 2,
      "note": 46,
      "start": 35.2457,
      "duration": 0.0465,
      "velocity": 117,
      "chip": "ym2612"
    },
    {
      "channel": 5,
      "note": 59,
      "start": 35.379,
      "duration": 0.13,
      "velocity": 108,
      "chip": "ym2612"
    },
    {
      "channel": 2,
      "note": 46,
      "start": 35.3821,
      "duration": 0.0435,
      "velocity": 117,
      "chip": "ym2612"
    },
    {
      "channel": 5,
      "note": 59,
      "start": 35.5287,
      "duration": 0.1136,
      "velocity": 108,
      "chip": "ym2612"
    },
    {
      "channel": 2,
      "note": 46,
      "start": 35.5333,
      "duration": 0.0423,
      "velocity": 117,
      "chip": "ym2612"
    },
    {
      "channel": 2,
      "note": 46,
      "start": 35.6632,
      "duration": 0.0457,
      "velocity": 117,
      "chip": "ym2612"
    },
    {
      "channel": 5,
      "note": 59,
      "start": 35.7954,
      "duration": 0.1302,
      "velocity": 108,
      "chip": "ym2612"
    },
    {
      "channel": 2,
      "note": 46,
      "start": 35.7995,
      "duration": 0.0428,
      "velocity": 117,
      "chip": "ym2612"
    },
    {
      "channel": 5,
      "note": 59,
      "start": 35.9454,
      "duration": 0.1136,
      "velocity": 108,
      "chip": "ym2612"
    },
    {
      "channel": 3,
      "note": 84,
      "start": 35.9483,
      "duration": 0.0439,
      "velocity": 124,
      "chip": "ym2612"
    },
    {
      "channel": 2,
      "note": 46,
      "start": 36.079,
      "duration": 0.0466,
      "velocity": 117,
      "chip": "ym2612"
    },
    {
      "channel": 0,
      "note": 59,
      "start": 36.2119,
      "duration": 0.1468,
      "velocity": 106,
      "chip": "ym2612"
    },
    {
      "channel": 1,
      "note": 64,
      "start": 36.2148,
      "duration": 0.1439,
      "velocity": 106,
      "chip": "ym2612"
    },
    {
      "channel": 5,
      "note": 52,
      "start": 36.2181,
      "duration": 0.1242,
      "velocity": 108,
      "chip": "ym2612"
    },
    {
      "channel": 3,
      "note": 84,
      "start": 36.2208,
      "duration": 0.0548,
      "velocity": 124,
      "chip": "ym2612"
    },
    {
      "channel": 0,
      "note": 62,
      "start": 36.3618,
      "duration": 0.1303,
      "velocity": 106,
      "chip": "ym2612"
    },
    {
      "channel": 1,
      "note": 67,
      "start": 36.3643,
      "duration": 0.1279,
      "velocity": 106,
      "chip": "ym2612"
    },
    {
      "channel": 5,
      "note": 55,
      "start": 36.367,
      "duration": 0.1086,
      "velocity": 108,
      "chip": "ym2612"
    },
    {
      "channel": 2,
      "note": 46,
      "start": 36.3701,
      "duration": 0.0388,
      "velocity": 117,
      "chip": "ym2612"
    },
    {
      "channel": 0,
      "note": 59,
      "start": 36.4952,
      "duration": 0.1302,
      "velocity": 106,
      "chip": "ym2612"
    },
    {
      "channel": 1,
      "note": 64,
      "start": 36.4978,
      "duration": 0.1278,
      "velocity": 106,
      "chip": "ym2612"
    },
    {
      "channel": 5,
      "note": 52,
      "start": 36.5005,
      "duration": 0.1085,
      "velocity": 108,
      "chip": "ym2612"
    },
    {
      "channel": 3,
      "note": 84,
      "start": 36.5032,
      "duration": 0.0391,
      "velocity": 124,
      "chip": "ym2612"
    },
    {
      "channel": 0,
      "note": 62,
      "start": 36.6286,
      "duration": 0.1468,
      "velocity": 106,
      "chip": "ym2612"
    },
    {
      "channel": 1,
      "note": 67,
      "start": 36.6311,
      "duration": 0.1443,
      "velocity": 106,
      "chip": "ym2612"
    },
    {
      "channel": 5,
      "note": 55,
      "start": 36.6338,
      "duration": 0.1252,
      "velocity": 108,
      "chip": "ym2612"
    },
    {
      "channel": 2,
      "note": 46,
      "start": 36.638,
      "duration": 0.0543,
      "velocity": 117,
      "chip": "ym2612"
    },
    {
      "channel": 0,
      "note": 67,
      "start": 36.779,
      "duration": 0.2797,
      "velocity": 106,
      "chip": "ym2612"
    },
    {
      "channel": 1,
      "note": 60,
      "start": 36.7816,
      "duration": 0.2773,
      "velocity": 106,
      "chip": "ym2612"
    },
    {
      "channel": 5,
      "note": 60,
      "start": 36.7845,
      "duration": 0.2409,
      "velocity": 108,
      "chip": "ym2612"
    },
    {
      "channel": 3,
      "note": 84,
      "start": 36.7875,
      "duration": 0.0381,
      "velocity": 124,
      "chip": "ym2612"
    },
    {
      "channel": 2,
      "note": 46,
      "start": 36.7902,
      "duration": 0.0356,
      "velocity": 117,
      "chip": "ym2612"
    },
    {
      "channel": 3,
      "note": 84,
      "start": 36.912,
      "duration": 0.0467,
      "velocity": 124,
      "chip": "ym2612"
    },
    {
      "channel": 2,
      "note": 46,
      "start": 36.9148,
      "duration": 0.0442,
      "velocity": 117,
      "chip": "ym2612"
    },
    {
      "channel": 0,
      "note": 66,
      "start": 37.0618,
      "duration": 0.2635,
      "velocity": 106,
      "chip": "ym2612"
    },
    {
      "channel": 1,
      "note": 59,
      "start": 37.0644,
      "duration": 0.2611,
      "velocity": 106,
      "chip": "ym2612"
    },
    {
      "channel": 5,
      "note": 59,
      "start": 37.0671,
      "duration": 0.2418,
      "velocity": 108,
      "chip": "ym2612"
    },
    {
      "channel": 3,
      "note": 84,
      "start": 37.0698,
      "duration": 0.039,
      "velocity": 124,
      "chip": "ym2612"
    },
    {
      "channel": 2,
      "note": 46,
      "start": 37.0727,
      "duration": 0.0364,
      "velocity": 117,
      "chip": "ym2612"
    },
    {
      "channel": 3,
      "note": 84,
      "start": 37.1954,
      "duration": 0.0468,
      "velocity": 124,
      "chip": "ym2612"
    },
    {
      "channel": 0,
      "note": 65,
      "start": 37.3285,
      "duration": 0.2802,
      "velocity": 106,
      "chip": "ym2612"
    },
    {
      "channel": 1,
      "note": 58,
      "start": 37.331,
      "duration": 0.2778,
      "velocity": 106,
      "chip": "ym2612"
    },
    {
      "channel": 5,
      "note": 58,
      "start": 37.3337,
      "duration": 0.2584,
      "velocity": 108,
      "chip": "ym2612"
    },
    {
      "channel": 3,
      "note": 84,
      "start": 37.3365,
      "duration": 0.039,
      "velocity": 124,
      "chip": "ym2612"
    },
    {
      "channel": 2,
      "note": 46,
      "start": 37.3393,
      "duration": 0.0364,
      "velocity": 117,
      "chip": "ym2612"
    },
    {
      "channel": 3,
      "note": 84,
      "start": 37.4787,
      "duration": 0.0467,
      "velocity": 124,
      "chip": "ym2612"
    },
    {
      "channel": 2,
      "note": 46,
      "start": 37.4814,
      "duration": 0.0442,
      "velocity": 117,
      "chip": "ym2612"
    },
    {
      "channel": 0,
      "note": 57,
      "start": 37.6118,
      "duration": 0.2802,
      "velocity": 106,
      "chip": "ym2612"
    },
    {
      "channel": 1,
      "note": 64,
      "start": 37.6144,
      "duration": 0.2778,
      "velocity": 106,
      "chip": "ym2612"
    },
    {
      "channel": 5,
      "note": 57,
      "start": 37.6171,
      "duration": 0.2584,
      "velocity": 108,
      "chip": "ym2612"
    },
    {
      "channel": 3,
      "note": 84,
      "start": 37.6202,
      "duration": 0.0385,
      "velocity": 124,
      "chip": "ym2612"
    },
    {
      "channel": 2,
      "note": 46,
      "start": 37.6229,
      "duration": 0.0361,
      "velocity": 117,
      "chip": "ym2612"
    },
    {
      "channel": 3,
      "note": 84,
      "start": 37.7453,
      "duration": 0.0468,
      "velocity": 124,
      "chip": "ym2612"
    },
    {
      "channel": 2,
      "note": 46,
      "start": 37.7484,
      "duration": 0.0439,
      "velocity": 117,
      "chip": "ym2612"
    },
    {
      "channel": 0,
      "note": 59,
      "start": 37.8956,
      "duration": 0.2632,
      "velocity": 106,
      "chip": "ym2612"
    },
    {
      "channel": 1,
      "note": 64,
      "start": 37.8982,
      "duration": 0.2607,
      "velocity": 106,
      "chip": "ym2612"
    },
    {
      "channel": 5,
      "note": 52,
      "start": 37.9008,
      "duration": 0.2414,
      "velocity": 108,
      "chip": "ym2612"
    },
    {
      "channel": 3,
      "note": 84,
      "start": 37.9036,
      "duration": 0.0386,
      "velocity": 124,
      "chip": "ym2612"
    },
    {
      "channel": 2,
      "note": 46,
      "start": 37.9064,
      "duration": 0.0359,
      "velocity": 117,
      "chip": "ym2612"
    },
    {
      "channel": 3,
      "note": 84,
      "start": 38.0287,
      "duration": 0.0468,
      "velocity": 124,
      "chip": "ym2612"
    },
    {
      "channel": 0,
      "note": 67,
      "start": 38.1619,
      "duration": 0.2801,
      "velocity": 106,
      "chip": "ym2612"
    },
    {
      "channel": 1,
      "note": 62,
      "start": 38.1644,
      "duration": 0.2777,
      "velocity": 106,
      "chip": "ym2612"
    },
    {
      "channel": 5,
      "note": 55,
      "start": 38.1671,
      "duration": 0.2583,
      "velocity": 108,
      "chip": "ym2612"
    },
    {
      "channel": 3,
      "note": 84,
      "start": 38.1698,
      "duration": 0.0556,
      "velocity": 124,
      "chip": "ym2612"
    },
    {
      "channel": 2,
      "note": 46,
      "start": 38.1727,
      "duration": 0.053,
      "velocity": 117,
      "chip": "ym2612"
    },
    {
      "channel": 3,
      "note": 84,
      "start": 38.312,
      "duration": 0.0467,
      "velocity": 124,
      "chip": "ym2612"
    },
    {
      "channel": 2,
      "note": 46,
      "start": 38.3148,
      "duration": 0.0442,
      "velocity": 117,
      "chip": "ym2612"
    },
    {
      "channel": 0,
      "note": 69,
      "start": 38.4452,
      "duration": 0.2802,
      "velocity": 106,
      "chip": "ym2612"
    },
    {
      "channel": 1,
      "note": 64,
      "start": 38.4479,
      "duration": 0.2776,
      "velocity": 106,
      "chip": "ym2612"
    },
    {
      "channel": 5,
      "note": 57,
      "start": 38.4508,
      "duration": 0.108,
      "velocity": 108,
      "chip": "ym2612"
    },
    {
      "channel": 3,
      "note": 84,
      "start": 38.4536,
      "duration": 0.0384,
      "velocity": 124,
      "chip": "ym2612"
    },
    {
      "channel": 2,
      "note": 46,
      "start": 38.4564,
      "duration": 0.0359,
      "velocity": 117,
      "chip": "ym2612"
    },
    {
      "channel": 2,
      "note": 46,
      "start": 38.5791,
      "duration": 0.0631,
      "velocity": 117,
      "chip": "ym2612"
    },
    {
      "channel": 5,
      "note": 57,
      "start": 38.7293,
      "duration": 0.1129,
      "velocity": 108,
      "chip": "ym2612"
    },
    {
      "channel": 3,
      "note": 84,
      "start": 38.7322,
      "duration": 0.0432,
      "velocity": 124,
      "chip": "ym2612"
    },
    {
      "channel": 2,
      "note": 46,
      "start": 38.7351,
      "duration": 0.0406,
      "velocity": 117,
      "chip": "ym2612"
    },
    {
      "channel": 5,
      "note": 55,
      "start": 38.8618,
      "duration": 0.1304,
      "velocity": 108,
      "chip": "ym2612"
    },
    {
      "channel": 3,
      "note": 84,
      "start": 38.8646,
      "duration": 0.0443,
      "velocity": 124,
      "chip": "ym2612"
    },
    {
      "channel": 5,
      "note": 52,
      "start": 39.0119,
      "duration": 0.1137,
      "velocity": 108,
      "chip": "ym2612"
    },
    {
      "channel": 3,
      "note": 84,
      "start": 39.0146,
      "duration": 0.0442,
      "velocity": 124,
      "chip": "ym2612"
    },
    {
      "channel": 2,
      "note": 46,
      "start": 39.0176,
      "duration": 0.0415,
      "velocity": 117,
      "chip": "ym2612"
    },
    {
      "channel": 5,
      "note": 55,
      "start": 39.1452,
      "duration": 0.1137,
      "velocity": 108,
      "chip": "ym2612"
    },
    {
      "channel": 3,
      "note": 84,
      "start": 39.1479,
      "duration": 0.0442,
      "velocity": 124,
      "chip": "ym2612"
    },
    {
      "channel": 2,
      "note": 46,
      "start": 39.1506,
      "duration": 0.0417,
      "velocity": 117,
      "chip": "ym2612"
    },
    {
      "channel": 5,
      "note": 57,
      "start": 39.2784,
      "duration": 0.1305,
      "velocity": 108,
      "chip": "ym2612"
    },
    {
      "channel": 3,
      "note": 84,
      "start": 39.2813,
      "duration": 0.0441,
      "velocity": 124,
      "chip": "ym2612"
    },
    {
      "channel": 2,
      "note": 46,
      "start": 39.284,
      "duration": 0.0416,
      "velocity": 117,
      "chip": "ym2612"
    },
    {
      "channel": 5,
      "note": 55,
      "start": 39.4284,
      "duration": 0.1138,
      "velocity": 108,
      "chip": "ym2612"
    },
    {
      "channel": 2,
      "note": 46,
      "start": 39.4316,
      "duration": 0.044,
      "velocity": 117,
      "chip": "ym2612"
    },
    {
      "channel": 0,
      "note": 59,
      "start": 39.5618,
      "duration": 0.1302,
      "velocity": 106,
      "chip": "ym2612"
    },
    {
      "channel": 1,
      "note": 64,
      "start": 39.5648,
      "duration": 0.1274,
      "velocity": 106,
      "chip": "ym2612"
    },
    {
      "channel": 5,
      "note": 52,
      "start": 39.5674,
      "duration": 0.1081,
      "velocity": 108,
      "chip": "ym2612"
    },
    {
      "channel": 3,
      "note": 84,
      "start": 39.5707,
      "duration": 0.038,
      "velocity": 124,
      "chip": "ym2612"
    },
    {
      "channel": 2,
      "note": 46,
      "start": 39.5741,
      "duration": 0.035,
      "velocity": 117,
      "chip": "ym2612"
    },
    {
      "channel": 0,
      "note": 62,
      "start": 39.6952,
      "duration": 0.1469,
      "velocity": 106,
      "chip": "ym2612"
    },
    {
      "channel": 1,
      "note": 67,
      "start": 39.6977,
      "duration": 0.1445,
      "velocity": 106,
      "chip": "ym2612"
    },
    {
      "channel": 5,
      "note": 55,
      "start": 39.7004,
      "duration": 0.1253,
      "velocity": 108,
      "chip": "ym2612"
    },
    {
      "channel": 3,
      "note": 84,
      "start": 39.7031,
      "duration": 0.039,
      "velocity": 124,
      "chip": "ym2612"
    },
    {
      "channel": 0,
      "note": 59,
      "start": 39.8452,
      "duration": 0.1301,
      "velocity": 106,
      "chip": "ym2612"
    },
    {
      "channel": 1,
      "note": 64,
      "start": 39.8478,
      "duration": 0.1277,
      "velocity": 106,
      "chip": "ym2612"
    },
    {
      "channel": 5,
      "note": 52,
      "start": 39.8505,
      "duration": 0.1085,
      "velocity": 108,
      "chip": "ym2612"
    },
    {
      "channel": 3,
      "note": 84,
      "start": 39.8532,
      "duration": 0.0391,
      "velocity": 124,
      "chip": "ym2612"
    },
    {
      "channel": 2,
      "note": 46,
      "start": 39.8561,
      "duration": 0.0364,
      "velocity": 117,
      "chip": "ym2612"
    },
    {
      "channel": 0,
      "note": 62,
      "start": 39.9784,
      "duration": 0.1303,
      "velocity": 106,
      "chip": "ym2612"
    },
    {
      "channel": 1,
      "note": 67,
      "start": 39.9812,
      "duration": 0.1277,
      "velocity": 106,
      "chip": "ym2612"
    },
    {
      "channel": 5,
      "note": 55,
      "start": 39.9839,
      "duration": 0.1083,
      "velocity": 108,
      "chip": "ym2612"
    },
    {
      "channel": 3,
      "note": 84,
      "start": 39.9866,
      "duration": 0.0388,
      "velocity": 124,
      "chip": "ym2612"
    },
    {
      "channel": 2,
      "note": 46,
      "start": 39.9893,
      "duration": 0.0363,
      "velocity": 117,
      "chip": "ym2612"
    },
    {
      "channel": 5,
      "note": 60,
      "start": 40.1122,
      "duration": 0.1301,
      "velocity": 108,
      "chip": "ym2612"
    },
    {
      "channel": 4,
      "note": 79,
      "start": 40.1159,
      "duration": 0.1263,
      "velocity": 106,
      "chip": "ym2612"
    },
    {
      "channel": 3,
      "note": 84,
      "start": 40.1187,
      "duration": 0.1233,
      "velocity": 106,
      "chip": "ym2612"
    },
    {
      "channel": 2,
      "note": 84,
      "start": 40.1215,
      "duration": 0.0541,
      "velocity": 124,
      "chip": "ym2612"
    },
    {
      "channel": 0,
      "note": 46,
      "start": 40.1243,
      "duration": 0.051,
      "velocity": 117,
      "chip": "ym2612"
    },
    {
      "channel": 3,
      "note": 76,
      "start": 40.2459,
      "duration": 0.0461,
      "velocity": 106,
      "chip": "ym2612"
    },
    {
      "channel": 4,
      "note": 79,
      "start": 40.2486,
      "duration": 0.0436,
      "velocity": 106,
      "chip": "ym2612"
    },
    {
      "channel": 0,
      "note": 46,
      "start": 40.2621,
      "duration": 0.0466,
      "velocity": 117,
      "chip": "ym2612"
    },
    {
      "channel": 3,
      "note": 84,
      "start": 40.2958,
      "duration": 0.0296,
      "velocity": 106,
      "chip": "ym2612"
    },
    {
      "channel": 4,
      "note": 81,
      "start": 40.2985,
      "duration": 0.0271,
      "velocity": 106,
      "chip": "ym2612"
    },
    {
      "channel": 3,
      "note": 76,
      "start": 40.3459,
      "duration": 0.0295,
      "velocity": 106,
      "chip": "ym2612"
    },
    {
      "channel": 4,
      "note": 79,
      "start": 40.3485,
      "duration": 0.027,
      "velocity": 106,
      "chip": "ym2612"
    },
    {
      "channel": 5,
      "note": 60,
      "start": 40.3953,
      "duration": 0.1137,
      "velocity": 108,
      "chip": "ym2612"
    },
    {
      "channel": 3,
      "note": 76,
      "start": 40.3984,
      "duration": 0.1104,
      "velocity": 106,
      "chip": "ym2612"
    },
    {
      "channel": 4,
      "note": 72,
      "start": 40.4011,
      "duration": 0.1078,
      "velocity": 106,
      "chip": "ym2612"
    },
    {
      "channel": 2,
      "note": 84,
      "start": 40.4039,
      "duration": 0.0384,
      "velocity": 124,
      "chip": "ym2612"
    },
    {
      "channel": 0,
      "note": 46,
      "start": 40.4065,
      "duration": 0.0354,
      "velocity": 117,
      "chip": "ym2612"
    },
    {
      "channel": 5,
      "note": 60,
      "start": 40.5451,
      "duration": 0.1141,
      "velocity": 108,
      "chip": "ym2612"
    },
    {
      "channel": 3,
      "note": 72,
      "start": 40.548,
      "duration": 0.1108,
      "velocity": 106,
      "chip": "ym2612"
    },
    {
      "channel": 4,
      "note": 67,
      "start": 40.5507,
      "duration": 0.1083,
      "velocity": 106,
      "chip": "ym2612"
    },
    {
      "channel": 2,
      "note": 84,
      "start": 40.5533,
      "duration": 0.039,
      "velocity": 124,
      "chip": "ym2612"
    },
    {
      "channel": 5,
      "note": 60,
      "start": 40.6785,
      "duration": 0.1139,
      "velocity": 108,
      "chip": "ym2612"
    },
    {
      "channel": 3,
      "note": 67,
      "start": 40.6814,
      "duration": 0.1107,
      "velocity": 106,
      "chip": "ym2612"
    },
    {
      "channel": 4,
      "note": 64,
      "start": 40.6841,
      "duration": 0.1082,
      "velocity": 106,
      "chip": "ym2612"
    },
    {
      "channel": 2,
      "note": 84,
      "start": 40.6867,
      "duration": 0.039,
      "velocity": 124,
      "chip": "ym2612"
    },
    {
      "channel": 0,
      "note": 46,
      "start": 40.6893,
      "duration": 0.0361,
      "velocity": 117,
      "chip": "ym2612"
    },
    {
      "channel": 5,
      "note": 60,
      "start": 40.8122,
      "duration": 0.1303,
      "velocity": 108,
      "chip": "ym2612"
    },
    {
      "channel": 3,
      "note": 64,
      "start": 40.8155,
      "duration": 0.1266,
      "velocity": 106,
      "chip": "ym2612"
    },
    {
      "channel": 4,
      "note": 60,
      "start": 40.8182,
      "duration": 0.1241,
      "velocity": 106,
      "chip": "ym2612"
    },
    {
      "channel": 2,
      "note": 84,
      "start": 40.8208,
      "duration": 0.0382,
      "velocity": 124,
      "chip": "ym2612"
    },
    {
      "channel": 0,
      "note": 46,
      "start": 40.8233,
      "duration": 0.0354,
      "velocity": 117,
      "chip": "ym2612"
    },
    {
      "channel": 5,
      "note": 60,
      "start": 40.962,
      "duration": 0.1137,
      "velocity": 108,
      "chip": "ym2612"
    },
    {
      "channel": 3,
      "note": 64,
      "start": 40.9649,
      "duration": 0.1104,
      "velocity": 106,
      "chip": "ym2612"
    },
    {
      "channel": 4,
      "note": 67,
      "start": 40.9676,
      "duration": 0.108,
      "velocity": 106,
      "chip": "ym2612"
    },
    {
      "channel": 2,
      "note": 84,
      "start": 40.9704,
      "duration": 0.0385,
      "velocity": 124,
      "chip": "ym2612"
    },
    {
      "channel": 0,
      "note": 46,
      "start": 40.9728,
      "duration": 0.0358,
      "velocity": 117,
      "chip": "ym2612"
    },
    {
      "channel": 3,
      "note": 67,
      "start": 41.0955,
      "duration": 0.1133,
      "velocity": 106,
      "chip": "ym2612"
    },
    {
      "channel": 4,
      "note": 72,
      "start": 41.0982,
      "duration": 0.1107,
      "velocity": 106,
      "chip": "ym2612"
    },
    {
      "channel": 0,
      "note": 46,
      "start": 41.1007,
      "duration": 0.0412,
      "velocity": 117,
      "chip": "ym2612"
    },
    {
      "channel": 5,
      "note": 60,
      "start": 41.2284,
      "duration": 0.1307,
      "velocity": 108,
      "chip": "ym2612"
    },
    {
      "channel": 3,
      "note": 72,
      "start": 41.2314,
      "duration": 0.1273,
      "velocity": 106,
      "chip": "ym2612"
    },
    {
      "channel": 4,
      "note": 76,
      "start": 41.234,
      "duration": 0.1249,
      "velocity": 106,
      "chip": "ym2612"
    },
    {
      "channel": 2,
      "note": 84,
      "start": 41.2368,
      "duration": 0.0389,
      "velocity": 124,
      "chip": "ym2612"
    },
    {
      "channel": 0,
      "note": 46,
      "start": 41.2394,
      "duration": 0.0359,
      "velocity": 117,
      "chip": "ym2612"
    },
    {
      "channel": 3,
      "note": 76,
      "start": 41.3792,
      "duration": 0.113,
      "velocity": 106,
      "chip": "ym2612"
    },
    {
      "channel": 4,
      "note": 79,
      "start": 41.3819,
      "duration": 0.1104,
      "velocity": 106,
      "chip": "ym2612"
    },
    {
      "channel": 2,
      "note": 84,
      "start": 41.3845,
      "duration": 0.0412,
      "velocity": 124,
      "chip": "ym2612"
    },
    {
      "channel": 5,
      "note": 60,
      "start": 41.512,
      "duration": 0.1138,
      "velocity": 108,
      "chip": "ym2612"
    },
    {
      "channel": 3,
      "note": 78,
      "start": 41.5149,
      "duration": 0.1106,
      "velocity": 106,
      "chip": "ym2612"
    },
    {
      "channel": 4,
      "note": 81,
      "start": 41.5176,
      "duration": 0.108,
      "velocity": 106,
      "chip": "ym2612"
    },
    {
      "channel": 2,
      "note": 84,
      "start": 41.5206,
      "duration": 0.0385,
      "velocity": 124,
      "chip": "ym2612"
    },
    {
      "channel": 0,
      "note": 46,
      "start": 41.5237,
      "duration": 0.0351,
      "velocity": 117,
      "chip": "ym2612"
    },
    {
      "channel": 5,
      "note": 60,
      "start": 41.6451,
      "duration": 0.1306,
      "velocity": 108,
      "chip": "ym2612"
    },
    {
      "channel": 3,
      "note": 84,
      "start": 41.6481,
      "duration": 0.1273,
      "velocity": 106,
      "chip": "ym2612"
    },
    {
      "channel": 4,
      "note": 79,
      "start": 41.6507,
      "duration": 0.1248,
      "velocity": 106,
      "chip": "ym2612"
    },
    {
      "channel": 2,
      "note": 84,
      "start": 41.6533,
      "duration": 0.0557,
      "velocity": 124,
      "chip": "ym2612"
    },
    {
      "channel": 0,
      "note": 46,
      "start": 41.6558,
      "duration": 0.0528,
      "velocity": 117,
      "chip": "ym2612"
    },
    {
      "channel": 5,
      "note": 59,
      "start": 41.7951,
      "duration": 0.1139,
      "velocity": 108,
      "chip": "ym2612"
    },
    {
      "channel": 3,
      "note": 78,
      "start": 41.8003,
      "duration": 0.4086,
      "velocity": 106,
      "chip": "ym2612"
    },
    {
      "channel": 4,
      "note": 83,
      "start": 41.8032,
      "duration": 0.4059,
      "velocity": 106,
      "chip": "ym2612"
    },
    {
      "channel": 2,
      "note": 84,
      "start": 41.8059,
      "duration": 0.0366,
      "velocity": 124,
      "chip": "ym2612"
    },
    {
      "channel": 0,
      "note": 46,
      "start": 41.8088,
      "duration": 0.0333,
      "velocity": 117,
      "chip": "ym2612"
    },
    {
      "channel": 5,
      "note": 55,
      "start": 41.9286,
      "duration": 0.1137,
      "velocity": 108,
      "chip": "ym2612"
    },
    {
      "channel": 0,
      "note": 46,
      "start": 41.9314,
      "duration": 0.0441,
      "velocity": 117,
      "chip": "ym2612"
    },
    {
      "channel": 5,
      "note": 52,
      "start": 42.0619,
      "duration": 0.1304,
      "velocity": 108,
      "chip": "ym2612"
    },
    {
      "channel": 2,
      "note": 84,
      "start": 42.0649,
      "duration": 0.0608,
      "velocity": 124,
      "chip": "ym2612"
    },
    {
      "channel": 0,
      "note": 46,
      "start": 42.0676,
      "duration": 0.0579,
      "velocity": 117,
      "chip": "ym2612"
    },
    {
      "channel": 5,
      "note": 47,
      "start": 42.2121,
      "duration": 0.1136,
      "velocity": 108,
      "chip": "ym2612"
    },
    {
      "channel": 2,
      "note": 84,
      "start": 42.2151,
      "duration": 0.0439,
      "velocity": 124,
      "chip": "ym2612"
    },
    {
      "channel": 5,
      "note": 52,
      "start": 42.3451,
      "duration": 0.1138,
      "velocity": 108,
      "chip": "ym2612"
    },
    {
      "channel": 2,
      "note": 84,
      "start": 42.348,
      "duration": 0.0444,
      "velocity": 124,
      "chip": "ym2612"
    },
    {
      "channel": 0,
      "note": 46,
      "start": 42.3506,
      "duration": 0.0415,
      "velocity": 117,
      "chip": "ym2612"
    },
    {
      "channel": 5,
      "note": 55,
      "start": 42.4952,
      "duration": 0.1137,
      "velocity": 108,
      "chip": "ym2612"
    },
    {
      "channel": 2,
      "note": 84,
      "start": 42.4982,
      "duration": 0.0442,
      "velocity": 124,
      "chip": "ym2612"
    },
    {
      "channel": 0,
      "note": 46,
      "start": 42.5006,
      "duration": 0.0415,
      "velocity": 117,
      "chip": "ym2612"
    },
    {
      "channel": 5,
      "note": 59,
      "start": 42.6284,
      "duration": 0.1138,
      "velocity": 108,
      "chip": "ym2612"
    },
    {
      "channel": 2,
      "note": 84,
      "start": 42.6316,
      "duration": 0.0441,
      "velocity": 124,
      "chip": "ym2612"
    },
    {
      "channel": 0,
      "note": 46,
      "start": 42.634,
      "duration": 0.0412,
      "velocity": 117,
      "chip": "ym2612"
    },
    {
      "channel": 5,
      "note": 55,
      "start": 42.7618,
      "duration": 0.1304,
      "velocity": 108,
      "chip": "ym2612"
    },
    {
      "channel": 0,
      "note": 46,
      "start": 42.7646,
      "duration": 0.044,
      "velocity": 117,
      "chip": "ym2612"
    },
    {
      "channel": 1,
      "note": 59,
      "start": 42.9117,
      "duration": 0.1303,
      "velocity": 106,
      "chip": "ym2612"
    },
    {
      "channel": 3,
      "note": 64,
      "start": 42.9149,
      "duration": 0.1272,
      "velocity": 106,
      "chip": "ym2612"
    },
    {
      "channel": 5,
      "note": 52,
      "start": 42.9176,
      "duration": 0.108,
      "velocity": 108,
      "chip": "ym2612"
    },
    {
      "channel": 2,
      "note": 84,
      "start": 42.9207,
      "duration": 0.0383,
      "velocity": 124,
      "chip": "ym2612"
    },
    {
      "channel": 0,
      "note": 46,
      "start": 42.9233,
      "duration": 0.0353,
      "velocity": 117,
      "chip": "ym2612"
    },
    {
      "channel": 1,
      "note": 62,
      "start": 43.0452,
      "duration": 0.1302,
      "velocity": 106,
      "chip": "ym2612"
    },
    {
      "channel": 3,
      "note": 67,
      "start": 43.0478,
      "duration": 0.1277,
      "velocity": 106,
      "chip": "ym2612"
    },
    {
      "channel": 5,
      "note": 55,
      "start": 43.0508,
      "duration": 0.1081,
      "velocity": 108,
      "chip": "ym2612"
    },
    {
      "channel": 2,
      "note": 84,
      "start": 43.0538,
      "duration": 0.0386,
      "velocity": 124,
      "chip": "ym2612"
    },
    {
      "channel": 1,
      "note": 59,
      "start": 43.1786,
      "duration": 0.1469,
      "velocity": 106,
      "chip": "ym2612"
    },
    {
      "channel": 3,
      "note": 64,
      "start": 43.1812,
      "duration": 0.1444,
      "velocity": 106,
      "chip": "ym2612"
    },
    {
      "channel": 5,
      "note": 59,
      "start": 43.1838,
      "duration": 0.1251,
      "velocity": 108,
      "chip": "ym2612"
    },
    {
      "channel": 2,
      "note": 84,
      "start": 43.1867,
      "duration": 0.039,
      "velocity": 124,
      "chip": "ym2612"
    },
    {
      "channel": 0,
      "note": 46,
      "start": 43.1893,
      "duration": 0.0361,
      "velocity": 117,
      "chip": "ym2612"
    },
    {
      "channel": 1,
      "note": 62,
      "start": 43.3286,
      "duration": 0.1301,
      "velocity": 106,
      "chip": "ym2612"
    },
    {
      "channel": 3,
      "note": 67,
      "start": 43.3312,
      "duration": 0.1277,
      "velocity": 106,
      "chip": "ym2612"
    },
    {
      "channel": 5,
      "note": 64,
      "start": 43.3339,
      "duration": 0.1084,
      "velocity": 108,
      "chip": "ym2612"
    },
    {
      "channel": 2,
      "note": 84,
      "start": 43.3368,
      "duration": 0.0389,
      "velocity": 124,
      "chip": "ym2612"
    },
    {
      "channel": 0,
      "note": 46,
      "start": 43.3393,
      "duration": 0.0361,
      "velocity": 117,
      "chip": "ym2612"
    },
    {
      "channel": 1,
      "note": 67,
      "start": 43.4625,
      "duration": 0.2796,
      "velocity": 106,
      "chip": "ym2612"
    },
    {
      "channel": 3,
      "note": 60,
      "start": 43.4651,
      "duration": 0.2772,
      "velocity": 106,
      "chip": "ym2612"
    },
    {
      "channel": 5,
      "note": 60,
      "start": 43.4681,
      "duration": 0.2575,
      "velocity": 108,
      "chip": "ym2612"
    },
    {
      "channel": 2,
      "note": 84,
      "start": 43.4714,
      "duration": 0.0376,
      "velocity": 124,
      "chip": "ym2612"
    },
    {
      "channel": 0,
      "note": 46,
      "start": 43.4743,
      "duration": 0.0343,
      "velocity": 117,
      "chip": "ym2612"
    },
    {
      "channel": 2,
      "note": 84,
      "start": 43.5956,
      "duration": 0.0635,
      "velocity": 124,
      "chip": "ym2612"
    },
    {
      "channel": 0,
      "note": 46,
      "start": 43.598,
      "duration": 0.0607,
      "velocity": 117,
      "chip": "ym2612"
    },
    {
      "channel": 1,
      "note": 66,
      "start": 43.7452,
      "duration": 0.2635,
      "velocity": 106,
      "chip": "ym2612"
    },
    {
      "channel": 3,
      "note": 59,
      "start": 43.7478,
      "duration": 0.261,
      "velocity": 106,
      "chip": "ym2612"
    },
    {
      "channel": 5,
      "note": 59,
      "start": 43.7505,
      "duration": 0.2419,
      "velocity": 108,
      "chip": "ym2612"
    },
    {
      "channel": 2,
      "note": 84,
      "start": 43.7534,
      "duration": 0.039,
      "velocity": 124,
      "chip": "ym2612"
    },
    {
      "channel": 0,
      "note": 46,
      "start": 43.756,
      "duration": 0.0361,
      "velocity": 117,
      "chip": "ym2612"
    },
    {
      "channel": 2,
      "note": 84,
      "start": 43.8788,
      "duration": 0.0469,
      "velocity": 124,
      "chip": "ym2612"
    },
    {
      "channel": 1,
      "note": 65,
      "start": 44.0118,
      "duration": 0.2803,
      "velocity": 106,
      "chip": "ym2612"
    },
    {
      "channel": 3,
      "note": 58,
      "start": 44.0144,
      "duration": 0.2778,
      "velocity": 106,
      "chip": "ym2612"
    },
    {
      "channel": 5,
      "note": 58,
      "start": 44.0171,
      "duration": 0.2584,
      "velocity": 108,
      "chip": "ym2612"
    },
    {
      "channel": 2,
      "note": 84,
      "start": 44.02,
      "duration": 0.0557,
      "velocity": 124,
      "chip": "ym2612"
    },
    {
      "channel": 0,
      "note": 46,
      "start": 44.0227,
      "duration": 0.0528,
      "velocity": 117,
      "chip": "ym2612"
    },
    {
      "channel": 2,
      "note": 84,
      "start": 44.1622,
      "duration": 0.0468,
      "velocity": 124,
      "chip": "ym2612"
    },
    {
      "channel": 0,
      "note": 46,
      "start": 44.1647,
      "duration": 0.044,
      "velocity": 117,
      "chip": "ym2612"
    },
    {
      "channel": 1,
      "note": 57,
      "start": 44.2952,
      "duration": 0.2801,
      "velocity": 106,
      "chip": "ym2612"
    },
    {
      "channel": 3,
      "note": 64,
      "start": 44.2978,
      "duration": 0.2777,
      "velocity": 106,
      "chip": "ym2612"
    },
    {
      "channel": 5,
      "note": 57,
      "start": 44.3005,
      "duration": 0.2584,
      "velocity": 108,
      "chip": "ym2612"
    },
    {
      "channel": 2,
      "note": 84,
      "start": 44.3034,
      "duration": 0.0389,
      "velocity": 124,
      "chip": "ym2612"
    },
    {
      "channel": 0,
      "note": 46,
      "start": 44.3059,
      "duration": 0.0361,
      "velocity": 117,
      "chip": "ym2612"
    },
    {
      "channel": 2,
      "note": 84,
      "start": 44.4455,
      "duration": 0.0469,
      "velocity": 124,
      "chip": "ym2612"
    },
    {
      "channel": 0,
      "note": 46,
      "start": 44.4479,
      "duration": 0.0441,
      "velocity": 117,
      "chip": "ym2612"
    },
    {
      "channel": 1,
      "note": 59,
      "start": 44.579,
      "duration": 0.2798,
      "velocity": 106,
      "chip": "ym2612"
    },
    {
      "channel": 3,
      "note": 64,
      "start": 44.5816,
      "duration": 0.2773,
      "velocity": 106,
      "chip": "ym2612"
    },
    {
      "channel": 5,
      "note": 52,
      "start": 44.5842,
      "duration": 0.2581,
      "velocity": 108,
      "chip": "ym2612"
    },
    {
      "channel": 2,
      "note": 84,
      "start": 44.5871,
      "duration": 0.0385,
      "velocity": 124,
      "chip": "ym2612"
    },
    {
      "channel": 0,
      "note": 46,
      "start": 44.5898,
      "duration": 0.0356,
      "velocity": 117,
      "chip": "ym2612"
    },
    {
      "channel": 2,
      "note": 84,
      "start": 44.7122,
      "duration": 0.0468,
      "velocity": 124,
      "chip": "ym2612"
    },
    {
      "channel": 1,
      "note": 67,
      "start": 44.8618,
      "duration": 0.2635,
      "velocity": 106,
      "chip": "ym2612"
    },
    {
      "channel": 3,
      "note": 62,
      "start": 44.8644,
      "duration": 0.2611,
      "velocity": 106,
      "chip": "ym2612"
    },
    {
      "channel": 5,
      "note": 55,
      "start": 44.8671,
      "duration": 0.2418,
      "velocity": 108,
      "chip": "ym2612"
    },
    {
      "channel": 2,
      "note": 84,
      "start": 44.87,
      "duration": 0.039,
      "velocity": 124,
      "chip": "ym2612"
    },
    {
      "channel": 0,
      "note": 46,
      "start": 44.8727,
      "duration": 0.0361,
      "velocity": 117,
      "chip": "ym2612"
    },
    {
      "channel": 2,
      "note": 84,
      "start": 44.9956,
      "duration": 0.0468,
      "velocity": 124,
      "chip": "ym2612"
    },
    {
      "channel": 0,
      "note": 46,
      "start": 44.998,
      "duration": 0.044,
      "velocity": 117,
      "chip": "ym2612"
    },
    {
      "channel": 1,
      "note": 69,
      "start": 45.1286,
      "duration": 0.2801,
      "velocity": 106,
      "chip": "ym2612"
    },
    {
      "channel": 3,
      "note": 64,
      "start": 45.1314,
      "duration": 0.2775,
      "velocity": 106,
      "chip": "ym2612"
    },
    {
      "channel": 5,
      "note": 57,
      "start": 45.1342,
      "duration": 0.1247,
      "velocity": 108,
      "chip": "ym2612"
    },
    {
      "channel": 2,
      "note": 84,
      "start": 45.1373,
      "duration": 0.055,
      "velocity": 124,
      "chip": "ym2612"
    },
    {
      "channel": 0,
      "note": 46,
      "start": 45.1397,
      "duration": 0.0523,
      "velocity": 117,
      "chip": "ym2612"
    },
    {
      "channel": 0,
      "note": 46,
      "start": 45.2787,
      "duration": 0.0467,
      "velocity": 117,
      "chip": "ym2612"
    },
    {
      "channel": 5,
      "note": 57,
      "start": 45.4121,
      "duration": 0.1134,
      "velocity": 108,
      "chip": "ym2612"
    },
    {
      "channel": 2,
      "note": 84,
      "start": 45.4152,
      "duration": 0.0438,
      "velocity": 124,
      "chip": "ym2612"
    },
    {
      "channel": 0,
      "note": 46,
      "start": 45.4183,
      "duration": 0.0404,
      "velocity": 117,
      "chip": "ym2612"
    },
    {
      "channel": 5,
      "note": 55,
      "start": 45.545,
      "duration": 0.1305,
      "velocity": 108,
      "chip": "ym2612"
    },
    {
      "channel": 2,
      "note": 84,
      "start": 45.5484,
      "duration": 0.0606,
      "velocity": 124,
      "chip": "ym2612"
    },
    {
      "channel": 5,
      "note": 52,
      "start": 45.6956,
      "duration": 0.1134,
      "velocity": 108,
      "chip": "ym2612"
    },
    {
      "channel": 2,
      "note": 84,
      "start": 45.6989,
      "duration": 0.0434,
      "velocity": 124,
      "chip": "ym2612"
    },
    {
      "channel": 0,
      "note": 46,
      "start": 45.7015,
      "duration": 0.0405,
      "velocity": 117,
      "chip": "ym2612"
    },
    {
      "channel": 5,
      "note": 55,
      "start": 45.8284,
      "duration": 0.1138,
      "velocity": 108,
      "chip": "ym2612"
    },
    {
      "channel": 0,
      "note": 46,
      "start": 45.8322,
      "duration": 0.0432,
      "velocity": 117,
      "chip": "ym2612"
    },
    {
      "channel": 5,
      "note": 57,
      "start": 45.9786,
      "duration": 0.1137,
      "velocity": 108,
      "chip": "ym2612"
    },
    {
      "channel": 0,
      "note": 46,
      "start": 45.9822,
      "duration": 0.0432,
      "velocity": 117,
      "chip": "ym2612"
    },
    {
      "channel": 5,
      "note": 55,
      "start": 46.1118,
      "duration": 0.1139,
      "velocity": 108,
      "chip": "ym2612"
    },
    {
      "channel": 0,
      "note": 46,
      "start": 46.1154,
      "duration": 0.0433,
      "velocity": 117,
      "chip": "ym2612"
    },
    {
      "channel": 1,
      "note": 59,
      "start": 46.2452,
      "duration": 0.1469,
      "velocity": 106,
      "chip": "ym2612"
    },
    {
      "channel": 3,
      "note": 64,
      "start": 46.2482,
      "duration": 0.1441,
      "velocity": 106,
      "chip": "ym2612"
    },
    {
      "channel": 5,
      "note": 52,
      "start": 46.2508,
      "duration": 0.1247,
      "velocity": 108,
      "chip": "ym2612"
    },
    {
      "channel": 0,
      "note": 46,
      "start": 46.2549,
      "duration": 0.0372,
      "velocity": 117,
      "chip": "ym2612"
    },
    {
      "channel": 1,
      "note": 62,
      "start": 46.3952,
      "duration": 0.1301,
      "velocity": 106,
      "chip": "ym2612"
    },
    {
      "channel": 3,
      "note": 67,
      "start": 46.3978,
      "duration": 0.1277,
      "velocity": 106,
      "chip": "ym2612"
    },
    {
      "channel": 5,
      "note": 55,
      "start": 46.4005,
      "duration": 0.1085,
      "velocity": 108,
      "chip": "ym2612"
    },
    {
      "channel": 0,
      "note": 46,
      "start": 46.4041,
      "duration": 0.0379,
      "velocity": 117,
      "chip": "ym2612"
    },
    {
      "channel": 1,
      "note": 59,
      "start": 46.5285,
      "duration": 0.1303,
      "velocity": 106,
      "chip": "ym2612"
    },
    {
      "channel": 3,
      "note": 64,
      "start": 46.5311,
      "duration": 0.1278,
      "velocity": 106,
      "chip": "ym2612"
    },
    {
      "channel": 5,
      "note": 52,
      "start": 46.5338,
      "duration": 0.1084,
      "velocity": 108,
      "chip": "ym2612"
    },
    {
      "channel": 0,
      "note": 46,
      "start": 46.5374,
      "duration": 0.038,
      "velocity": 117,
      "chip": "ym2612"
    },
    {
      "channel": 1,
      "note": 62,
      "start": 46.6619,
      "duration": 0.1469,
      "velocity": 106,
      "chip": "ym2612"
    },
    {
      "channel": 3,
      "note": 67,
      "start": 46.6647,
      "duration": 0.1443,
      "velocity": 106,
      "chip": "ym2612"
    },
    {
      "channel": 5,
      "note": 55,
      "start": 46.6674,
      "duration": 0.1249,
      "velocity": 108,
      "chip": "ym2612"
    },
    {
      "channel": 0,
      "note": 46,
      "start": 46.6712,
      "duration": 0.0376,
      "velocity": 117,
      "chip": "ym2612"
    },
    {
      "channel": 5,
      "note": 60,
      "start": 46.8122,
      "duration": 0.1133,
      "velocity": 108,
      "chip": "ym2612"
    },
    {
      "channel": 4,
      "note": 64,
      "start": 46.8154,
      "duration": 0.2434,
      "velocity": 106,
      "chip": "ym2612"
    },
    {
      "channel": 2,
      "note": 67,
      "start": 46.8182,
      "duration": 0.2407,
      "velocity": 106,
      "chip": "ym2612"
    },
    {
      "channel": 0,
      "note": 46,
      "start": 46.8207,
      "duration": 0.038,
      "velocity": 117,
      "chip": "ym2612"
    },
    {
      "channel": 0,
      "note": 46,
      "start": 46.9454,
      "duration": 0.0466,
      "velocity": 117,
      "chip": "ym2612"
    },
    {
      "channel": 5,
      "note": 60,
      "start": 47.0786,
      "duration": 0.1304,
      "velocity": 108,
      "chip": "ym2612"
    },
    {
      "channel": 4,
      "note": 64,
      "start": 47.0818,
      "duration": 0.0604,
      "velocity": 106,
      "chip": "ym2612"
    },
    {
      "channel": 2,
      "note": 60,
      "start": 47.0846,
      "duration": 0.0578,
      "velocity": 106,
      "chip": "ym2612"
    },
    {
      "channel": 1,
      "note": 84,
      "start": 47.0873,
      "duration": 0.0548,
      "velocity": 124,
      "chip": "ym2612"
    },
    {
      "channel": 0,
      "note": 46,
      "start": 47.09,
      "duration": 0.052,
      "velocity": 117,
      "chip": "ym2612"
    },
    {
      "channel": 4,
      "note": 67,
      "start": 47.1627,
      "duration": 0.0461,
      "velocity": 106,
      "chip": "ym2612"
    },
    {
      "channel": 2,
      "note": 64,
      "start": 47.1655,
      "duration": 0.0437,
      "velocity": 106,
      "chip": "ym2612"
    },
    {
      "channel": 5,
      "note": 60,
      "start": 47.2285,
      "duration": 0.1138,
      "velocity": 108,
      "chip": "ym2612"
    },
    {
      "channel": 4,
      "note": 72,
      "start": 47.2317,
      "duration": 0.2439,
      "velocity": 106,
      "chip": "ym2612"
    },
    {
      "channel": 2,
      "note": 67,
      "start": 47.2345,
      "duration": 0.2413,
      "velocity": 106,
      "chip": "ym2612"
    },
    {
      "channel": 1,
      "note": 84,
      "start": 47.2369,
      "duration": 0.0385,
      "velocity": 124,
      "chip": "ym2612"
    },
    {
      "channel": 5,
      "note": 60,
      "start": 47.3618,
      "duration": 0.1139,
      "velocity": 108,
      "chip": "ym2612"
    },
    {
      "channel": 1,
      "note": 84,
      "start": 47.3645,
      "duration": 0.0443,
      "velocity": 124,
      "chip": "ym2612"
    },
    {
      "channel": 0,
      "note": 46,
      "start": 47.3675,
      "duration": 0.0412,
      "velocity": 117,
      "chip": "ym2612"
    },
    {
      "channel": 5,
      "note": 60,
      "start": 47.4951,
      "duration": 0.1305,
      "velocity": 108,
      "chip": "ym2612"
    },
    {
      "channel": 4,
      "note": 67,
      "start": 47.4983,
      "duration": 0.0606,
      "velocity": 106,
      "chip": "ym2612"
    },
    {
      "channel": 2,
      "note": 64,
      "start": 47.5011,
      "duration": 0.058,
      "velocity": 106,
      "chip": "ym2612"
    },
    {
      "channel": 1,
      "note": 84,
      "start": 47.5035,
      "duration": 0.0553,
      "velocity": 124,
      "chip": "ym2612"
    },
    {
      "channel": 0,
      "note": 46,
      "start": 47.5059,
      "duration": 0.0527,
      "velocity": 117,
      "chip": "ym2612"
    },
    {
      "channel": 4,
      "note": 72,
      "start": 47.579,
      "duration": 0.0466,
      "velocity": 106,
      "chip": "ym2612"
    },
    {
      "channel": 2,
      "note": 67,
      "start": 47.5821,
      "duration": 0.0437,
      "velocity": 106,
      "chip": "ym2612"
    },
    {
      "channel": 5,
      "note": 60,
      "start": 47.6457,
      "duration": 0.1132,
      "velocity": 108,
      "chip": "ym2612"
    },
    {
      "channel": 4,
      "note": 76,
      "start": 47.6489,
      "duration": 0.2599,
      "velocity": 106,
      "chip": "ym2612"
    },
    {
      "channel": 2,
      "note": 72,
      "start": 47.6517,
      "duration": 0.2573,
      "velocity": 106,
      "chip": "ym2612"
    },
    {
      "channel": 1,
      "note": 84,
      "start": 47.6543,
      "duration": 0.0379,
      "velocity": 124,
      "chip": "ym2612"
    },
    {
      "channel": 0,
      "note": 46,
      "start": 47.6567,
      "duration": 0.0354,
      "velocity": 117,
      "chip": "ym2612"
    },
    {
      "channel": 0,
      "note": 46,
      "start": 47.7788,
      "duration": 0.0466,
      "velocity": 117,
      "chip": "ym2612"
    },
    {
      "channel": 5,
      "note": 60,
      "start": 47.9286,
      "duration": 0.247,
      "velocity": 108,
      "chip": "ym2612"
    },
    {
      "channel": 4,
      "note": 72,
      "start": 47.9318,
      "duration": 0.0439,
      "velocity": 106,
      "chip": "ym2612"
    },
    {
      "channel": 2,
      "note": 67,
      "start": 47.9346,
      "duration": 0.0413,
      "velocity": 106,
      "chip": "ym2612"
    },
    {
      "channel": 1,
      "note": 84,
      "start": 47.9371,
      "duration": 0.0384,
      "velocity": 124,
      "chip": "ym2612"
    },
    {
      "channel": 0,
      "note": 46,
      "start": 47.9398,
      "duration": 0.0356,
      "velocity": 117,
      "chip": "ym2612"
    },
    {
      "channel": 4,
      "note": 76,
      "start": 47.9956,
      "duration": 0.0466,
      "velocity": 106,
      "chip": "ym2612"
    },
    {
      "channel": 2,
      "note": 72,
      "start": 47.9983,
      "duration": 0.044,
      "velocity": 106,
      "chip": "ym2612"
    },
    {
      "channel": 4,
      "note": 79,
      "start": 48.0627,
      "duration": 0.2629,
      "velocity": 106,
      "chip": "ym2612"
    },
    {
      "channel": 2,
      "note": 76,
      "start": 48.0655,
      "duration": 0.2603,
      "velocity": 106,
      "chip": "ym2612"
    },
    {
      "channel": 1,
      "note": 84,
      "start": 48.0679,
      "duration": 0.0409,
      "velocity": 124,
      "chip": "ym2612"
    },
    {
      "channel": 5,
      "note": 60,
      "start": 48.1955,
      "duration": 0.1302,
      "velocity": 108,
      "chip": "ym2612"
    },
    {
      "channel": 1,
      "note": 84,
      "start": 48.1982,
      "duration": 0.0439,
      "velocity": 124,
      "chip": "ym2612"
    },
    {
      "channel": 0,
      "note": 46,
      "start": 48.2008,
      "duration": 0.0412,
      "velocity": 117,
      "chip": "ym2612"
    },
    {
      "channel": 5,
      "note": 60,
      "start": 48.3451,
      "duration": 0.1139,
      "velocity": 108,
      "chip": "ym2612"
    },
    {
      "channel": 4,
      "note": 81,
      "start": 48.3483,
      "duration": 0.0441,
      "velocity": 106,
      "chip": "ym2612"
    },
    {
      "channel": 2,
      "note": 78,
      "start": 48.3511,
      "duration": 0.0415,
      "velocity": 106,
      "chip": "ym2612"
    },
    {
      "channel": 1,
      "note": 84,
      "start": 48.3535,
      "duration": 0.0387,
      "velocity": 124,
      "chip": "ym2612"
    },
    {
      "channel": 0,
      "note": 46,
      "start": 48.3559,
      "duration": 0.0361,
      "velocity": 117,
      "chip": "ym2612"
    },
    {
      "channel": 4,
      "note": 79,
      "start": 48.4122,
      "duration": 0.0466,
      "velocity": 106,
      "chip": "ym2612"
    },
    {
      "channel": 2,
      "note": 76,
      "start": 48.415,
      "duration": 0.0441,
      "velocity": 106,
      "chip": "ym2612"
    },
    {
      "channel": 5,
      "note": 59,
      "start": 48.4785,
      "duration": 0.1137,
      "velocity": 108,
      "chip": "ym2612"
    },
    {
      "channel": 4,
      "note": 78,
      "start": 48.4834,
      "duration": 0.3921,
      "velocity": 106,
      "chip": "ym2612"
    },
    {
      "channel": 2,
      "note": 75,
      "start": 48.4864,
      "duration": 0.3894,
      "velocity": 106,
      "chip": "ym2612"
    },
    {
      "channel": 1,
      "note": 84,
      "start": 48.4893,
      "duration": 0.0362,
      "velocity": 124,
      "chip": "ym2612"
    },
    {
      "channel": 0,
      "note": 46,
      "start": 48.4922,
      "duration": 0.0331,
      "velocity": 117,
      "chip": "ym2612"
    },
    {
      "channel": 5,
      "note": 52,
      "start": 48.6118,
      "duration": 0.1305,
      "velocity": 108,
      "chip": "ym2612"
    },
    {
      "channel": 0,
      "note": 46,
      "start": 48.6147,
      "duration": 0.044,
      "velocity": 117,
      "chip": "ym2612"
    },
    {
      "channel": 5,
      "note": 55,
      "start": 48.7619,
      "duration": 0.1137,
      "velocity": 108,
      "chip": "ym2612"
    },
    {
      "channel": 1,
      "note": 84,
      "start": 48.7648,
      "duration": 0.0441,
      "velocity": 124,
      "chip": "ym2612"
    },
    {
      "channel": 0,
      "note": 46,
      "start": 48.7674,
      "duration": 0.0414,
      "velocity": 117,
      "chip": "ym2612"
    },
    {
      "channel": 5,
      "note": 59,
      "start": 48.8952,
      "duration": 0.1137,
      "velocity": 108,
      "chip": "ym2612"
    },
    {
      "channel": 1,
      "note": 84,
      "start": 48.898,
      "duration": 0.0441,
      "velocity": 124,
      "chip": "ym2612"
    },
    {
      "channel": 5,
      "note": 64,
      "start": 49.0284,
      "duration": 0.1305,
      "velocity": 108,
      "chip": "ym2612"
    },
    {
      "channel": 1,
      "note": 84,
      "start": 49.0312,
      "duration": 0.061,
      "velocity": 124,
      "chip": "ym2612"
    },
    {
      "channel": 0,
      "note": 46,
      "start": 49.0338,
      "duration": 0.0583,
      "velocity": 117,
      "chip": "ym2612"
    },
    {
      "channel": 5,
      "note": 67,
      "start": 49.1784,
      "duration": 0.1138,
      "velocity": 108,
      "chip": "ym2612"
    },
    {
      "channel": 1,
      "note": 84,
      "start": 49.1812,
      "duration": 0.0443,
      "velocity": 124,
      "chip": "ym2612"
    },
    {
      "channel": 0,
      "note": 46,
      "start": 49.1836,
      "duration": 0.0417,
      "velocity": 117,
      "chip": "ym2612"
    },
    {
      "channel": 5,
      "note": 71,
      "start": 49.3118,
      "duration": 0.1138,
      "velocity": 108,
      "chip": "ym2612"
    },
    {
      "channel": 1,
      "note": 84,
      "start": 49.3147,
      "duration": 0.0441,
      "velocity": 124,
      "chip": "ym2612"
    },
    {
      "channel": 0,
      "note": 46,
      "start": 49.3175,
      "duration": 0.0411,
      "velocity": 117,
      "chip": "ym2612"
    },
    {
      "channel": 5,
      "note": 70,
      "start": 49.4618,
      "duration": 0.1137,
      "velocity": 108,
      "chip": "ym2612"
    },
    {
      "channel": 0,
      "note": 46,
      "start": 49.4646,
      "duration": 0.044,
      "velocity": 117,
      "chip": "ym2612"
    },
    {
      "channel": 3,
      "note": 59,
      "start": 49.5951,
      "duration": 0.1303,
      "velocity": 106,
      "chip": "ym2612"
    },
    {
      "channel": 4,
      "note": 64,
      "start": 49.5983,
      "duration": 0.1273,
      "velocity": 106,
      "chip": "ym2612"
    },
    {
      "channel": 5,
      "note": 69,
      "start": 49.6015,
      "duration": 0.1074,
      "velocity": 108,
      "chip": "ym2612"
    },
    {
      "channel": 1,
      "note": 84,
      "start": 49.6044,
      "duration": 0.0378,
      "velocity": 124,
      "chip": "ym2612"
    },
    {
      "channel": 0,
      "note": 46,
      "start": 49.607,
      "duration": 0.035,
      "velocity": 117,
      "chip": "ym2612"
    },
    {
      "channel": 3,
      "note": 62,
      "start": 49.7286,
      "duration": 0.1469,
      "velocity": 106,
      "chip": "ym2612"
    },
    {
      "channel": 4,
      "note": 67,
      "start": 49.7312,
      "duration": 0.1444,
      "velocity": 106,
      "chip": "ym2612"
    },
    {
      "channel": 1,
      "note": 84,
      "start": 49.7341,
      "duration": 0.0414,
      "velocity": 124,
      "chip": "ym2612"
    },
    {
      "channel": 3,
      "note": 59,
      "start": 49.8787,
      "duration": 0.1302,
      "velocity": 106,
      "chip": "ym2612"
    },
    {
      "channel": 4,
      "note": 64,
      "start": 49.8813,
      "duration": 0.1277,
      "velocity": 106,
      "chip": "ym2612"
    },
    {
      "channel": 5,
      "note": 62,
      "start": 49.8841,
      "duration": 0.1081,
      "velocity": 108,
      "chip": "ym2612"
    },
    {
      "channel": 1,
      "note": 84,
      "start": 49.8868,
      "duration": 0.0387,
      "velocity": 124,
      "chip": "ym2612"
    },
    {
      "channel": 0,
      "note": 46,
      "start": 49.8894,
      "duration": 0.0359,
      "velocity": 117,
      "chip": "ym2612"
    },
    {
      "channel": 3,
      "note": 62,
      "start": 50.012,
      "duration": 0.1301,
      "velocity": 106,
      "chip": "ym2612"
    },
    {
      "channel": 4,
      "note": 67,
      "start": 50.0146,
      "duration": 0.1276,
      "velocity": 106,
      "chip": "ym2612"
    },
    {
      "channel": 5,
      "note": 61,
      "start": 50.0173,
      "duration": 0.1083,
      "velocity": 108,
      "chip": "ym2612"
    },
    {
      "channel": 1,
      "note": 84,
      "start": 50.02,
      "duration": 0.0388,
      "velocity": 124,
      "chip": "ym2612"
    },
    {
      "channel": 0,
      "note": 46,
      "start": 50.0224,
      "duration": 0.0363,
      "velocity": 117,
      "chip": "ym2612"
    },
    {
      "channel": 3,
      "note": 67,
      "start": 50.1459,
      "duration": 0.2795,
      "velocity": 106,
      "chip": "ym2612"
    },
    {
      "channel": 4,
      "note": 60,
      "start": 50.1485,
      "duration": 0.277,
      "velocity": 106,
      "chip": "ym2612"
    },
    {
      "channel": 5,
      "note": 60,
      "start": 50.1515,
      "duration": 0.2574,
      "velocity": 108,
      "chip": "ym2612"
    },
    {
      "channel": 1,
      "note": 84,
      "start": 50.1542,
      "duration": 0.0379,
      "velocity": 124,
      "chip": "ym2612"
    },
    {
      "channel": 0,
      "note": 46,
      "start": 50.1567,
      "duration": 0.0353,
      "velocity": 117,
      "chip": "ym2612"
    },
    {
      "channel": 1,
      "note": 84,
      "start": 50.2953,
      "duration": 0.0468,
      "velocity": 124,
      "chip": "ym2612"
    },
    {
      "channel": 0,
      "note": 46,
      "start": 50.2978,
      "duration": 0.0441,
      "velocity": 117,
      "chip": "ym2612"
    },
    {
      "channel": 3,
      "note": 66,
      "start": 50.4286,
      "duration": 0.2803,
      "velocity": 106,
      "chip": "ym2612"
    },
    {
      "channel": 4,
      "note": 59,
      "start": 50.4312,
      "duration": 0.2778,
      "velocity": 106,
      "chip": "ym2612"
    },
    {
      "channel": 5,
      "note": 59,
      "start": 50.4339,
      "duration": 0.2584,
      "velocity": 108,
      "chip": "ym2612"
    },
    {
      "channel": 1,
      "note": 84,
      "start": 50.437,
      "duration": 0.0385,
      "velocity": 124,
      "chip": "ym2612"
    },
    {
      "channel": 0,
      "note": 46,
      "start": 50.4396,
      "duration": 0.0358,
      "velocity": 117,
      "chip": "ym2612"
    },
    {
      "channel": 1,
      "note": 84,
      "start": 50.562,
      "duration": 0.0634,
      "velocity": 124,
      "chip": "ym2612"
    },
    {
      "channel": 3,
      "note": 65,
      "start": 50.712,
      "duration": 0.2634,
      "velocity": 106,
      "chip": "ym2612"
    },
    {
      "channel": 4,
      "note": 58,
      "start": 50.7146,
      "duration": 0.2609,
      "velocity": 106,
      "chip": "ym2612"
    },
    {
      "channel": 5,
      "note": 58,
      "start": 50.7172,
      "duration": 0.2416,
      "velocity": 108,
      "chip": "ym2612"
    },
    {
      "channel": 1,
      "note": 84,
      "start": 50.72,
      "duration": 0.0389,
      "velocity": 124,
      "chip": "ym2612"
    },
    {
      "channel": 0,
      "note": 46,
      "start": 50.7226,
      "duration": 0.0362,
      "velocity": 117,
      "chip": "ym2612"
    },
    {
      "channel": 1,
      "note": 84,
      "start": 50.8454,
      "duration": 0.0468,
      "velocity": 124,
      "chip": "ym2612"
    },
    {
      "channel": 0,
      "note": 46,
      "start": 50.8478,
      "duration": 0.0441,
      "velocity": 117,
      "chip": "ym2612"
    },
    {
      "channel": 3,
      "note": 57,
      "start": 50.9785,
      "duration": 0.2802,
      "velocity": 106,
      "chip": "ym2612"
    },
    {
      "channel": 4,
      "note": 64,
      "start": 50.9812,
      "duration": 0.2777,
      "velocity": 106,
      "chip": "ym2612"
    },
    {
      "channel": 5,
      "note": 57,
      "start": 50.9838,
      "duration": 0.2584,
      "velocity": 108,
      "chip": "ym2612"
    },
    {
      "channel": 1,
      "note": 84,
      "start": 50.9865,
      "duration": 0.0556,
      "velocity": 124,
      "chip": "ym2612"
    },
    {
      "channel": 0,
      "note": 46,
      "start": 50.989,
      "duration": 0.0529,
      "velocity": 117,
      "chip": "ym2612"
    },
    {
      "channel": 1,
      "note": 84,
      "start": 51.1286,
      "duration": 0.0468,
      "velocity": 124,
      "chip": "ym2612"
    },
    {
      "channel": 0,
      "note": 46,
      "start": 51.131,
      "duration": 0.0442,
      "velocity": 117,
      "chip": "ym2612"
    },
    {
      "channel": 3,
      "note": 59,
      "start": 51.2623,
      "duration": 0.2798,
      "velocity": 106,
      "chip": "ym2612"
    },
    {
      "channel": 4,
      "note": 64,
      "start": 51.2649,
      "duration": 0.2773,
      "velocity": 106,
      "chip": "ym2612"
    },
    {
      "channel": 5,
      "note": 52,
      "start": 51.2676,
      "duration": 0.2581,
      "velocity": 108,
      "chip": "ym2612"
    },
    {
      "channel": 1,
      "note": 84,
      "start": 51.2703,
      "duration": 0.0385,
      "velocity": 124,
      "chip": "ym2612"
    },
    {
      "channel": 0,
      "note": 46,
      "start": 51.2733,
      "duration": 0.0353,
      "velocity": 117,
      "chip": "ym2612"
    },
    {
      "channel": 1,
      "note": 84,
      "start": 51.4119,
      "duration": 0.0469,
      "velocity": 124,
      "chip": "ym2612"
    },
    {
      "channel": 3,
      "note": 67,
      "start": 51.5452,
      "duration": 0.2801,
      "velocity": 106,
      "chip": "ym2612"
    },
    {
      "channel": 4,
      "note": 62,
      "start": 51.5479,
      "duration": 0.2776,
      "velocity": 106,
      "chip": "ym2612"
    },
    {
      "channel": 5,
      "note": 55,
      "start": 51.5505,
      "duration": 0.2583,
      "velocity": 108,
      "chip": "ym2612"
    },
    {
      "channel": 1,
      "note": 84,
      "start": 51.5532,
      "duration": 0.0389,
      "velocity": 124,
      "chip": "ym2612"
    },
    {
      "channel": 0,
      "note": 46,
      "start": 51.5559,
      "duration": 0.0362,
      "velocity": 117,
      "chip": "ym2612"
    },
    {
      "channel": 1,
      "note": 84,
      "start": 51.6786,
      "duration": 0.0468,
      "velocity": 124,
      "chip": "ym2612"
    },
    {
      "channel": 0,
      "note": 46,
      "start": 51.681,
      "duration": 0.0442,
      "velocity": 117,
      "chip": "ym2612"
    },
    {
      "channel": 3,
      "note": 64,
      "start": 51.8288,
      "duration": 0.13,
      "velocity": 106,
      "chip": "ym2612"
    },
    {
      "channel": 4,
      "note": 69,
      "start": 51.8314,
      "duration": 0.1275,
      "velocity": 106,
      "chip": "ym2612"
    },
    {
      "channel": 5,
      "note": 57,
      "start": 51.8342,
      "duration": 0.108,
      "velocity": 108,
      "chip": "ym2612"
    },
    {
      "channel": 1,
      "note": 84,
      "start": 51.8371,
      "duration": 0.0383,
      "velocity": 124,
      "chip": "ym2612"
    },
    {
      "channel": 0,
      "note": 46,
      "start": 51.8395,
      "duration": 0.0358,
      "velocity": 117,
      "chip": "ym2612"
    },
    {
      "channel": 0,
      "note": 46,
      "start": 51.9622,
      "duration": 0.0465,
      "velocity": 117,
      "chip": "ym2612"
    },
    {
      "channel": 3,
      "note": 64,
      "start": 52.0951,
      "duration": 0.1469,
      "velocity": 106,
      "chip": "ym2612"
    },
    {
      "channel": 4,
      "note": 69,
      "start": 52.0978,
      "duration": 0.1444,
      "velocity": 106,
      "chip": "ym2612"
    },
    {
      "channel": 5,
      "note": 57,
      "start": 52.1006,
      "duration": 0.1249,
      "velocity": 108,
      "chip": "ym2612"
    },
    {
      "channel": 1,
      "note": 84,
      "start": 52.1035,
      "duration": 0.0386,
      "velocity": 124,
      "chip": "ym2612"
    },
    {
      "channel": 0,
      "note": 46,
      "start": 52.1061,
      "duration": 0.0358,
      "velocity": 117,
      "chip": "ym2612"
    },
    {
      "channel": 3,
      "note": 62,
      "start": 52.2456,
      "duration": 0.1298,
      "velocity": 106,
      "chip": "ym2612"
    },
    {
      "channel": 4,
      "note": 67,
      "start": 52.2482,
      "duration": 0.1273,
      "velocity": 106,
      "chip": "ym2612"
    },
    {
      "channel": 5,
      "note": 55,
      "start": 52.2513,
      "duration": 0.1077,
      "velocity": 108,
      "chip": "ym2612"
    },
    {
      "channel": 1,
      "note": 84,
      "start": 52.254,
      "duration": 0.0381,
      "velocity": 124,
      "chip": "ym2612"
    },
    {
      "channel": 3,
      "note": 59,
      "start": 52.3786,
      "duration": 0.1303,
      "velocity": 106,
      "chip": "ym2612"
    },
    {
      "channel": 4,
      "note": 64,
      "start": 52.3812,
      "duration": 0.1277,
      "velocity": 106,
      "chip": "ym2612"
    },
    {
      "channel": 5,
      "note": 52,
      "start": 52.3839,
      "duration": 0.1084,
      "velocity": 108,
      "chip": "ym2612"
    },
    {
      "channel": 1,
      "note": 84,
      "start": 52.3866,
      "duration": 0.0389,
      "velocity": 124,
      "chip": "ym2612"
    },
    {
      "channel": 0,
      "note": 46,
      "start": 52.3892,
      "duration": 0.0362,
      "velocity": 117,
      "chip": "ym2612"
    },
    {
      "channel": 3,
      "note": 62,
      "start": 52.512,
      "duration": 0.1467,
      "velocity": 106,
      "chip": "ym2612"
    },
    {
      "channel": 4,
      "note": 67,
      "start": 52.5146,
      "duration": 0.1442,
      "velocity": 106,
      "chip": "ym2612"
    },
    {
      "channel": 5,
      "note": 55,
      "start": 52.5173,
      "duration": 0.1249,
      "velocity": 108,
      "chip": "ym2612"
    },
    {
      "channel": 1,
      "note": 84,
      "start": 52.5204,
      "duration": 0.055,
      "velocity": 124,
      "chip": "ym2612"
    },
    {
      "channel": 0,
      "note": 46,
      "start": 52.5228,
      "duration": 0.0524,
      "velocity": 117,
      "chip": "ym2612"
    },
    {
      "channel": 3,
      "note": 64,
      "start": 52.6618,
      "duration": 0.1302,
      "velocity": 106,
      "chip": "ym2612"
    },
    {
      "channel": 4,
      "note": 69,
      "start": 52.6645,
      "duration": 0.1277,
      "velocity": 106,
      "chip": "ym2612"
    },
    {
      "channel": 5,
      "note": 57,
      "start": 52.6671,
      "duration": 0.1084,
      "velocity": 108,
      "chip": "ym2612"
    },
    {
      "channel": 1,
      "note": 84,
      "start": 52.67,
      "duration": 0.0387,
      "velocity": 124,
      "chip": "ym2612"
    },
    {
      "channel": 0,
      "note": 46,
      "start": 52.6724,
      "duration": 0.0361,
      "velocity": 117,
      "chip": "ym2612"
    },
    {
      "channel": 5,
      "note": 55,
      "start": 52.7952,
      "duration": 0.1136,
      "velocity": 108,
      "chip": "ym2612"
    },
    {
      "channel": 0,
      "note": 46,
      "start": 52.7981,
      "duration": 0.0439,
      "velocity": 117,
      "chip": "ym2612"
    },
    {
      "channel": 3,
      "note": 59,
      "start": 52.9289,
      "duration": 0.1466,
      "velocity": 106,
      "chip": "ym2612"
    },
    {
      "channel": 4,
      "note": 64,
      "start": 52.9315,
      "duration": 0.1441,
      "velocity": 106,
      "chip": "ym2612"
    },
    {
      "channel": 5,
      "note": 52,
      "start": 52.9342,
      "duration": 0.1247,
      "velocity": 108,
      "chip": "ym2612"
    },
    {
      "channel": 1,
      "note": 84,
      "start": 52.937,
      "duration": 0.0551,
      "velocity": 124,
      "chip": "ym2612"
    },
    {
      "channel": 0,
      "note": 46,
      "start": 52.9395,
      "duration": 0.0525,
      "velocity": 117,
      "chip": "ym2612"
    },
    {
      "channel": 3,
      "note": 62,
      "start": 53.0786,
      "duration": 0.1302,
      "velocity": 106,
      "chip": "ym2612"
    },
    {
      "channel": 4,
      "note": 67,
      "start": 53.0812,
      "duration": 0.1277,
      "velocity": 106,
      "chip": "ym2612"
    },
    {
      "channel": 5,
      "note": 55,
      "start": 53.0839,
      "duration": 0.1083,
      "velocity": 108,
      "chip": "ym2612"
    },
    {
      "channel": 0,
      "note": 46,
      "start": 53.0877,
      "duration": 0.0377,
      "velocity": 117,
      "chip": "ym2612"
    },
    {
      "channel": 3,
      "note": 59,
      "start": 53.212,
      "duration": 0.1469,
      "velocity": 106,
      "chip": "ym2612"
    },
    {
      "channel": 4,
      "note": 64,
      "start": 53.2146,
      "duration": 0.1444,
      "velocity": 106,
      "chip": "ym2612"
    },
    {
      "channel": 5,
      "note": 52,
      "start": 53.2172,
      "duration": 0.125,
      "velocity": 108,
      "chip": "ym2612"
    },
    {
      "channel": 0,
      "note": 46,
      "start": 53.2213,
      "duration": 0.0375,
      "velocity": 117,
      "chip": "ym2612"
    },
    {
      "channel": 3,
      "note": 62,
      "start": 53.362,
      "duration": 0.1301,
      "velocity": 106,
      "chip": "ym2612"
    },
    {
      "channel": 4,
      "note": 67,
      "start": 53.3653,
      "duration": 0.127,
      "velocity": 106,
      "chip": "ym2612"
    },
    {
      "channel": 5,
      "note": 55,
      "start": 53.3679,
      "duration": 0.1078,
      "velocity": 108,
      "chip": "ym2612"
    },
    {
      "channel": 0,
      "note": 46,
      "start": 53.3721,
      "duration": 0.0366,
      "velocity": 117,
      "chip": "ym2612"
    },
    {
      "channel": 5,
      "note": 60,
      "start": 53.4955,
      "duration": 0.1135,
      "velocity": 108,
      "chip": "ym2612"
    },
    {
      "channel": 2,
      "note": 84,
      "start": 53.4988,
      "duration": 0.077,
      "velocity": 106,
      "chip": "ym2612"
    },
    {
      "channel": 1,
      "note": 76,
      "start": 53.5015,
      "duration": 0.0739,
      "velocity": 106,
      "chip": "ym2612"
    },
    {
      "channel": 0,
      "note": 46,
      "start": 53.5041,
      "duration": 0.038,
      "velocity": 117,
      "chip": "ym2612"
    },
    {
      "channel": 1,
      "note": 76,
      "start": 53.5791,
      "duration": 0.0798,
      "velocity": 106,
      "chip": "ym2612"
    },
    {
      "channel": 2,
      "note": 67,
      "start": 53.5819,
      "duration": 0.0772,
      "velocity": 106,
      "chip": "ym2612"
    },
    {
      "channel": 0,
      "note": 46,
      "start": 53.6288,
      "duration": 0.0466,
      "velocity": 117,
      "chip": "ym2612"
    },
    {
      "channel": 1,
      "note": 79,
      "start": 53.6628,
      "duration": 0.096,
      "velocity": 106,
      "chip": "ym2612"
    },
    {
      "channel": 2,
      "note": 72,
      "start": 53.6655,
      "duration": 0.0935,
      "velocity": 106,
      "chip": "ym2612"
    },
    {
      "channel": 1,
      "note": 86,
      "start": 53.7623,
      "duration": 0.0797,
      "velocity": 106,
      "chip": "ym2612"
    },
    {
      "channel": 2,
      "note": 78,
      "start": 53.7651,
      "duration": 0.0772,
      "velocity": 106,
      "chip": "ym2612"
    },
    {
      "channel": 5,
      "note": 60,
      "start": 53.7786,
      "duration": 0.1137,
      "velocity": 108,
      "chip": "ym2612"
    },
    {
      "channel": 3,
      "note": 84,
      "start": 53.7817,
      "duration": 0.0438,
      "velocity": 124,
      "chip": "ym2612"
    },
    {
      "channel": 0,
      "note": 46,
      "start": 53.7843,
      "duration": 0.041,
      "velocity": 117,
      "chip": "ym2612"
    },
    {
      "channel": 1,
      "note": 76,
      "start": 53.8622,
      "duration": 0.08,
      "velocity": 106,
      "chip": "ym2612"
    },
    {
      "channel": 2,
      "note": 67,
      "start": 53.8649,
      "duration": 0.0774,
      "velocity": 106,
      "chip": "ym2612"
    },
    {
      "channel": 5,
      "note": 60,
      "start": 53.912,
      "duration": 0.1137,
      "velocity": 108,
      "chip": "ym2612"
    },
    {
      "channel": 3,
      "note": 84,
      "start": 53.9148,
      "duration": 0.0441,
      "velocity": 124,
      "chip": "ym2612"
    },
    {
      "channel": 1,
      "note": 79,
      "start": 53.9457,
      "duration": 0.0798,
      "velocity": 106,
      "chip": "ym2612"
    },
    {
      "channel": 2,
      "note": 72,
      "start": 53.9485,
      "duration": 0.0774,
      "velocity": 106,
      "chip": "ym2612"
    },
    {
      "channel": 1,
      "note": 84,
      "start": 54.0296,
      "duration": 0.0959,
      "velocity": 106,
      "chip": "ym2612"
    },
    {
      "channel": 2,
      "note": 76,
      "start": 54.0324,
      "duration": 0.0933,
      "velocity": 106,
      "chip": "ym2612"
    },
    {
      "channel": 3,
      "note": 84,
      "start": 54.0454,
      "duration": 0.0468,
      "velocity": 124,
      "chip": "ym2612"
    },
    {
      "channel": 0,
      "note": 46,
      "start": 54.048,
      "duration": 0.044,
      "velocity": 117,
      "chip": "ym2612"
    },
    {
      "channel": 1,
      "note": 76,
      "start": 54.1455,
      "duration": 0.08,
      "velocity": 106,
      "chip": "ym2612"
    },
    {
      "channel": 2,
      "note": 67,
      "start": 54.1483,
      "duration": 0.0774,
      "velocity": 106,
      "chip": "ym2612"
    },
    {
      "channel": 5,
      "note": 60,
      "start": 54.1958,
      "duration": 0.1132,
      "velocity": 108,
      "chip": "ym2612"
    },
    {
      "channel": 3,
      "note": 84,
      "start": 54.1985,
      "duration": 0.0437,
      "velocity": 124,
      "chip": "ym2612"
    },
    {
      "channel": 0,
      "note": 46,
      "start": 54.201,
      "duration": 0.041,
      "velocity": 117,
      "chip": "ym2612"
    },
    {
      "channel": 1,
      "note": 79,
      "start": 54.229,
      "duration": 0.0798,
      "velocity": 106,
      "chip": "ym2612"
    },
    {
      "channel": 2,
      "note": 72,
      "start": 54.2317,
      "duration": 0.0774,
      "velocity": 106,
      "chip": "ym2612"
    },
    {
      "channel": 1,
      "note": 86,
      "start": 54.3124,
      "duration": 0.0796,
      "velocity": 106,
      "chip": "ym2612"
    },
    {
      "channel": 2,
      "note": 78,
      "start": 54.3152,
      "duration": 0.0771,
      "velocity": 106,
      "chip": "ym2612"
    },
    {
      "channel": 5,
      "note": 60,
      "start": 54.3286,
      "duration": 0.1136,
      "velocity": 108,
      "chip": "ym2612"
    },
    {
      "channel": 3,
      "note": 84,
      "start": 54.3316,
      "duration": 0.0439,
      "velocity": 124,
      "chip": "ym2612"
    },
    {
      "channel": 0,
      "note": 46,
      "start": 54.334,
      "duration": 0.0413,
      "velocity": 117,
      "chip": "ym2612"
    },
    {
      "channel": 1,
      "note": 76,
      "start": 54.4125,
      "duration": 0.0963,
      "velocity": 106,
      "chip": "ym2612"
    },
    {
      "channel": 2,
      "note": 67,
      "start": 54.4153,
      "duration": 0.0938,
      "velocity": 106,
      "chip": "ym2612"
    },
    {
      "channel": 0,
      "note": 46,
      "start": 54.462,
      "duration": 0.0633,
      "velocity": 117,
      "chip": "ym2612"
    },
    {
      "channel": 1,
      "note": 79,
      "start": 54.5123,
      "duration": 0.0798,
      "velocity": 106,
      "chip": "ym2612"
    },
    {
      "channel": 2,
      "note": 72,
      "start": 54.5151,
      "duration": 0.0773,
      "velocity": 106,
      "chip": "ym2612"
    },
    {
      "channel": 1,
      "note": 84,
      "start": 54.5957,
      "duration": 0.0797,
      "velocity": 106,
      "chip": "ym2612"
    },
    {
      "channel": 2,
      "note": 76,
      "start": 54.5985,
      "duration": 0.0772,
      "velocity": 106,
      "chip": "ym2612"
    },
    {
      "channel": 5,
      "note": 60,
      "start": 54.6117,
      "duration": 0.1139,
      "velocity": 108,
      "chip": "ym2612"
    },
    {
      "channel": 3,
      "note": 84,
      "start": 54.6147,
      "duration": 0.0442,
      "velocity": 124,
      "chip": "ym2612"
    },
    {
      "channel": 0,
      "note": 46,
      "start": 54.6173,
      "duration": 0.0414,
      "velocity": 117,
      "chip": "ym2612"
    },
    {
      "channel": 1,
      "note": 76,
      "start": 54.679,
      "duration": 0.0798,
      "velocity": 106,
      "chip": "ym2612"
    },
    {
      "channel": 2,
      "note": 67,
      "start": 54.6817,
      "duration": 0.0773,
      "velocity": 106,
      "chip": "ym2612"
    },
    {
      "channel": 3,
      "note": 84,
      "start": 54.7454,
      "duration": 0.0469,
      "velocity": 124,
      "chip": "ym2612"
    },
    {
      "channel": 1,
      "note": 79,
      "start": 54.7793,
      "duration": 0.0796,
      "velocity": 106,
      "chip": "ym2612"
    },
    {
      "channel": 2,
      "note": 72,
      "start": 54.7821,
      "duration": 0.077,
      "velocity": 106,
      "chip": "ym2612"
    },
    {
      "channel": 1,
      "note": 86,
      "start": 54.8624,
      "duration": 0.0964,
      "velocity": 106,
      "chip": "ym2612"
    },
    {
      "channel": 2,
      "note": 78,
      "start": 54.8652,
      "duration": 0.0939,
      "velocity": 106,
      "chip": "ym2612"
    },
    {
      "channel": 5,
      "note": 60,
      "start": 54.8954,
      "duration": 0.1136,
      "velocity": 108,
      "chip": "ym2612"
    },
    {
      "channel": 3,
      "note": 84,
      "start": 54.8982,
      "duration": 0.0441,
      "velocity": 124,
      "chip": "ym2612"
    },
    {
      "channel": 0,
      "note": 46,
      "start": 54.9008,
      "duration": 0.0413,
      "velocity": 117,
      "chip": "ym2612"
    },
    {
      "channel": 1,
      "note": 76,
      "start": 54.9624,
      "duration": 0.0798,
      "velocity": 106,
      "chip": "ym2612"
    },
    {
      "channel": 2,
      "note": 67,
      "start": 54.9652,
      "duration": 0.0773,
      "velocity": 106,
      "chip": "ym2612"
    },
    {
      "channel": 5,
      "note": 60,
      "start": 55.0284,
      "duration": 0.1139,
      "velocity": 108,
      "chip": "ym2612"
    },
    {
      "channel": 3,
      "note": 84,
      "start": 55.0316,
      "duration": 0.0439,
      "velocity": 124,
      "chip": "ym2612"
    },
    {
      "channel": 0,
      "note": 46,
      "start": 55.0341,
      "duration": 0.0412,
      "velocity": 117,
      "chip": "ym2612"
    },
    {
      "channel": 1,
      "note": 79,
      "start": 55.0621,
      "duration": 0.08,
      "velocity": 106,
      "chip": "ym2612"
    },
    {
      "channel": 2,
      "note": 72,
      "start": 55.0648,
      "duration": 0.0776,
      "velocity": 106,
      "chip": "ym2612"
    },
    {
      "channel": 5,
      "note": 59,
      "start": 55.1618,
      "duration": 0.1305,
      "velocity": 108,
      "chip": "ym2612"
    },
    {
      "channel": 1,
      "note": 83,
      "start": 55.1665,
      "duration": 0.5256,
      "velocity": 106,
      "chip": "ym2612"
    },
    {
      "channel": 2,
      "note": 75,
      "start": 55.1695,
      "duration": 0.5229,
      "velocity": 106,
      "chip": "ym2612"
    },
    {
      "channel": 3,
      "note": 84,
      "start": 55.1721,
      "duration": 0.0368,
      "velocity": 124,
      "chip": "ym2612"
    },
    {
      "channel": 0,
      "note": 46,
      "start": 55.1754,
      "duration": 0.0333,
      "velocity": 117,
      "chip": "ym2612"
    },
    {
      "channel": 5,
      "note": 52,
      "start": 55.3119,
      "duration": 0.1138,
      "velocity": 108,
      "chip": "ym2612"
    },
    {
      "channel": 0,
      "note": 46,
      "start": 55.3148,
      "duration": 0.044,
      "velocity": 117,
      "chip": "ym2612"
    },
    {
      "channel": 5,
      "note": 55,
      "start": 55.4453,
      "duration": 0.1136,
      "velocity": 108,
      "chip": "ym2612"
    },
    {
      "channel": 3,
      "note": 84,
      "start": 55.4482,
      "duration": 0.0441,
      "velocity": 124,
      "chip": "ym2612"
    },
    {
      "channel": 0,
      "note": 46,
      "start": 55.4508,
      "duration": 0.0413,
      "velocity": 117,
      "chip": "ym2612"
    },
    {
      "channel": 5,
      "note": 59,
      "start": 55.5786,
      "duration": 0.1304,
      "velocity": 108,
      "chip": "ym2612"
    },
    {
      "channel": 3,
      "note": 84,
      "start": 55.5814,
      "duration": 0.0442,
      "velocity": 124,
      "chip": "ym2612"
    },
    {
      "channel": 5,
      "note": 64,
      "start": 55.7286,
      "duration": 0.1137,
      "velocity": 108,
      "chip": "ym2612"
    },
    {
      "channel": 3,
      "note": 84,
      "start": 55.7313,
      "duration": 0.0443,
      "velocity": 124,
      "chip": "ym2612"
    },
    {
      "channel": 0,
      "note": 46,
      "start": 55.7339,
      "duration": 0.0415,
      "velocity": 117,
      "chip": "ym2612"
    },
    {
      "channel": 5,
      "note": 67,
      "start": 55.8618,
      "duration": 0.1138,
      "velocity": 108,
      "chip": "ym2612"
    },
    {
      "channel": 3,
      "note": 84,
      "start": 55.8646,
      "duration": 0.0443,
      "velocity": 124,
      "chip": "ym2612"
    },
    {
      "channel": 0,
      "note": 46,
      "start": 55.867,
      "duration": 0.0417,
      "velocity": 117,
      "chip": "ym2612"
    },
    {
      "channel": 5,
      "note": 71,
      "start": 55.9953,
      "duration": 0.1303,
      "velocity": 108,
      "chip": "ym2612"
    },
    {
      "channel": 3,
      "note": 84,
      "start": 55.9983,
      "duration": 0.0605,
      "velocity": 124,
      "chip": "ym2612"
    },
    {
      "channel": 0,
      "note": 46,
      "start": 56.0007,
      "duration": 0.0579,
      "velocity": 117,
      "chip": "ym2612"
    },
    {
      "channel": 0,
      "note": 46,
      "start": 56.1454,
      "duration": 0.0466,
      "velocity": 117,
      "chip": "ym2612"
    },
    {
      "channel": 4,
      "note": 58,
      "start": 56.2785,
      "duration": 0.1304,
      "velocity": 106,
      "chip": "ym2612"
    },
    {
      "channel": 1,
      "note": 64,
      "start": 56.2812,
      "duration": 0.1275,
      "velocity": 106,
      "chip": "ym2612"
    },
    {
      "channel": 5,
      "note": 70,
      "start": 56.2839,
      "duration": 0.1083,
      "velocity": 108,
      "chip": "ym2612"
    },
    {
      "channel": 3,
      "note": 84,
      "start": 56.2868,
      "duration": 0.0387,
      "velocity": 124,
      "chip": "ym2612"
    },
    {
      "channel": 0,
      "note": 46,
      "start": 56.2894,
      "duration": 0.0359,
      "velocity": 117,
      "chip": "ym2612"
    },
    {
      "channel": 1,
      "note": 62,
      "start": 56.4119,
      "duration": 0.1469,
      "velocity": 106,
      "chip": "ym2612"
    },
    {
      "channel": 4,
      "note": 67,
      "start": 56.4145,
      "duration": 0.1445,
      "velocity": 106,
      "chip": "ym2612"
    },
    {
      "channel": 3,
      "note": 84,
      "start": 56.4174,
      "duration": 0.0581,
      "velocity": 124,
      "chip": "ym2612"
    },
    {
      "channel": 1,
      "note": 59,
      "start": 56.562,
      "duration": 0.1302,
      "velocity": 106,
      "chip": "ym2612"
    },
    {
      "channel": 4,
      "note": 64,
      "start": 56.5646,
      "duration": 0.1277,
      "velocity": 106,
      "chip": "ym2612"
    },
    {
      "channel": 5,
      "note": 69,
      "start": 56.5678,
      "duration": 0.1078,
      "velocity": 108,
      "chip": "ym2612"
    },
    {
      "channel": 3,
      "note": 84,
      "start": 56.5705,
      "duration": 0.0384,
      "velocity": 124,
      "chip": "ym2612"
    },
    {
      "channel": 0,
      "note": 46,
      "start": 56.5732,
      "duration": 0.0355,
      "velocity": 117,
      "chip": "ym2612"
    },
    {
      "channel": 1,
      "note": 62,
      "start": 56.6953,
      "duration": 0.1468,
      "velocity": 106,
      "chip": "ym2612"
    },
    {
      "channel": 4,
      "note": 67,
      "start": 56.6983,
      "duration": 0.1439,
      "velocity": 106,
      "chip": "ym2612"
    },
    {
      "channel": 5,
      "note": 67,
      "start": 56.701,
      "duration": 0.108,
      "velocity": 108,
      "chip": "ym2612"
    },
    {
      "channel": 3,
      "note": 84,
      "start": 56.7038,
      "duration": 0.0385,
      "velocity": 124,
      "chip": "ym2612"
    },
    {
      "channel": 0,
      "note": 46,
      "start": 56.7062,
      "duration": 0.0358,
      "velocity": 117,
      "chip": "ym2612"
    },
    {
      "channel": 1,
      "note": 60,
      "start": 56.8454,
      "duration": 0.2633,
      "velocity": 106,
      "chip": "ym2612"
    },
    {
      "channel": 4,
      "note": 67,
      "start": 56.848,
      "duration": 0.2609,
      "velocity": 106,
      "chip": "ym2612"
    },
    {
      "channel": 5,
      "note": 60,
      "start": 56.851,
      "duration": 0.2412,
      "velocity": 108,
      "chip": "ym2612"
    },
    {
      "channel": 3,
      "note": 84,
      "start": 56.8538,
      "duration": 0.0384,
      "velocity": 124,
      "chip": "ym2612"
    },
    {
      "channel": 0,
      "note": 46,
      "start": 56.8563,
      "duration": 0.0357,
      "velocity": 117,
      "chip": "ym2612"
    },
    {
      "channel": 3,
      "note": 84,
      "start": 56.9791,
      "duration": 0.0464,
      "velocity": 124,
      "chip": "ym2612"
    },
    {
      "channel": 0,
      "note": 46,
      "start": 56.9816,
      "duration": 0.0438,
      "velocity": 117,
      "chip": "ym2612"
    },
    {
      "channel": 1,
      "note": 59,
      "start": 57.1119,
      "duration": 0.2802,
      "velocity": 106,
      "chip": "ym2612"
    },
    {
      "channel": 4,
      "note": 66,
      "start": 57.1145,
      "duration": 0.2778,
      "velocity": 106,
      "chip": "ym2612"
    },
    {
      "channel": 5,
      "note": 59,
      "start": 57.1172,
      "duration": 0.2584,
      "velocity": 108,
      "chip": "ym2612"
    },
    {
      "channel": 3,
      "note": 84,
      "start": 57.1199,
      "duration": 0.039,
      "velocity": 124,
      "chip": "ym2612"
    },
    {
      "channel": 0,
      "note": 46,
      "start": 57.123,
      "duration": 0.0357,
      "velocity": 117,
      "chip": "ym2612"
    },
    {
      "channel": 3,
      "note": 84,
      "start": 57.262,
      "duration": 0.0468,
      "velocity": 124,
      "chip": "ym2612"
    },
    {
      "channel": 1,
      "note": 58,
      "start": 57.3953,
      "duration": 0.28,
      "velocity": 106,
      "chip": "ym2612"
    },
    {
      "channel": 4,
      "note": 65,
      "start": 57.3979,
      "duration": 0.2776,
      "velocity": 106,
      "chip": "ym2612"
    },
    {
      "channel": 5,
      "note": 58,
      "start": 57.4006,
      "duration": 0.2583,
      "velocity": 108,
      "chip": "ym2612"
    },
    {
      "channel": 3,
      "note": 84,
      "start": 57.4033,
      "duration": 0.0389,
      "velocity": 124,
      "chip": "ym2612"
    },
    {
      "channel": 0,
      "note": 46,
      "start": 57.4059,
      "duration": 0.0361,
      "velocity": 117,
      "chip": "ym2612"
    },
    {
      "channel": 3,
      "note": 84,
      "start": 57.5288,
      "duration": 0.0467,
      "velocity": 124,
      "chip": "ym2612"
    },
    {
      "channel": 0,
      "note": 46,
      "start": 57.5312,
      "duration": 0.044,
      "velocity": 117,
      "chip": "ym2612"
    },
    {
      "channel": 1,
      "note": 57,
      "start": 57.6785,
      "duration": 0.2635,
      "velocity": 106,
      "chip": "ym2612"
    },
    {
      "channel": 4,
      "note": 64,
      "start": 57.6816,
      "duration": 0.2607,
      "velocity": 106,
      "chip": "ym2612"
    },
    {
      "channel": 5,
      "note": 57,
      "start": 57.6842,
      "duration": 0.2414,
      "velocity": 108,
      "chip": "ym2612"
    },
    {
      "channel": 3,
      "note": 84,
      "start": 57.687,
      "duration": 0.0385,
      "velocity": 124,
      "chip": "ym2612"
    },
    {
      "channel": 0,
      "note": 46,
      "start": 57.6894,
      "duration": 0.0358,
      "velocity": 117,
      "chip": "ym2612"
    },
    {
      "channel": 3,
      "note": 84,
      "start": 57.812,
      "duration": 0.0469,
      "velocity": 124,
      "chip": "ym2612"
    },
    {
      "channel": 0,
      "note": 46,
      "start": 57.8145,
      "duration": 0.0442,
      "velocity": 117,
      "chip": "ym2612"
    },
    {
      "channel": 1,
      "note": 56,
      "start": 57.9452,
      "duration": 0.2801,
      "velocity": 106,
      "chip": "ym2612"
    },
    {
      "channel": 4,
      "note": 63,
      "start": 57.9478,
      "duration": 0.2777,
      "velocity": 106,
      "chip": "ym2612"
    },
    {
      "channel": 5,
      "note": 56,
      "start": 57.9505,
      "duration": 0.2585,
      "velocity": 108,
      "chip": "ym2612"
    },
    {
      "channel": 3,
      "note": 84,
      "start": 57.9532,
      "duration": 0.0556,
      "velocity": 124,
      "chip": "ym2612"
    },
    {
      "channel": 0,
      "note": 46,
      "start": 57.9559,
      "duration": 0.0528,
      "velocity": 117,
      "chip": "ym2612"
    },
    {
      "channel": 3,
      "note": 84,
      "start": 58.0954,
      "duration": 0.0468,
      "velocity": 124,
      "chip": "ym2612"
    },
    {
      "channel": 1,
      "note": 55,
      "start": 58.2285,
      "duration": 0.2802,
      "velocity": 106,
      "chip": "ym2612"
    },
    {
      "channel": 4,
      "note": 62,
      "start": 58.2312,
      "duration": 0.2777,
      "velocity": 106,
      "chip": "ym2612"
    },
    {
      "channel": 5,
      "note": 55,
      "start": 58.2338,
      "duration": 0.2584,
      "velocity": 108,
      "chip": "ym2612"
    },
    {
      "channel": 3,
      "note": 84,
      "start": 58.2366,
      "duration": 0.039,
      "velocity": 124,
      "chip": "ym2612"
    },
    {
      "channel": 0,
      "note": 46,
      "start": 58.2392,
      "duration": 0.0362,
      "velocity": 117,
      "chip": "ym2612"
    },
    {
      "channel": 3,
      "note": 84,
      "start": 58.3621,
      "duration": 0.0634,
      "velocity": 124,
      "chip": "ym2612"
    },
    {
      "channel": 0,
      "note": 46,
      "start": 58.3646,
      "duration": 0.0607,
      "velocity": 117,
      "chip": "ym2612"
    },
    {
      "channel": 1,
      "note": 54,
      "start": 58.5118,
      "duration": 0.2802,
      "velocity": 106,
      "chip": "ym2612"
    },
    {
      "channel": 4,
      "note": 61,
      "start": 58.5144,
      "duration": 0.2777,
      "velocity": 106,
      "chip": "ym2612"
    },
    {
      "channel": 5,
      "note": 54,
      "start": 58.5171,
      "duration": 0.2584,
      "velocity": 108,
      "chip": "ym2612"
    },
    {
      "channel": 3,
      "note": 84,
      "start": 58.5198,
      "duration": 0.0389,
      "velocity": 124,
      "chip": "ym2612"
    },
    {
      "channel": 0,
      "note": 46,
      "start": 58.5223,
      "duration": 0.0363,
      "velocity": 117,
      "chip": "ym2612"
    },
    {
      "channel": 3,
      "note": 84,
      "start": 58.6453,
      "duration": 0.0468,
      "velocity": 124,
      "chip": "ym2612"
    },
    {
      "channel": 0,
      "note": 46,
      "start": 58.6478,
      "duration": 0.0441,
      "velocity": 117,
      "chip": "ym2612"
    },
    {
      "channel": 1,
      "note": 53,
      "start": 58.7952,
      "duration": 0.2635,
      "velocity": 106,
      "chip": "ym2612"
    },
    {
      "channel": 4,
      "note": 60,
      "start": 58.7982,
      "duration": 0.2607,
      "velocity": 106,
      "chip": "ym2612"
    },
    {
      "channel": 5,
      "note": 53,
      "start": 58.8012,
      "duration": 0.1078,
      "velocity": 108,
      "chip": "ym2612"
    },
    {
      "channel": 3,
      "note": 84,
      "start": 58.8039,
      "duration": 0.0383,
      "velocity": 124,
      "chip": "ym2612"
    },
    {
      "channel": 0,
      "note": 46,
      "start": 58.8066,
      "duration": 0.0355,
      "velocity": 117,
      "chip": "ym2612"
    },
    {
      "channel": 5,
      "note": 53,
      "start": 58.9284,
      "duration": 0.1139,
      "velocity": 108,
      "chip": "ym2612"
    },
    {
      "channel": 3,
      "note": 84,
      "start": 58.9312,
      "duration": 0.0443,
      "velocity": 124,
      "chip": "ym2612"
    },
    {
      "channel": 1,
      "note": 52,
      "start": 59.0618,
      "duration": 0.2802,
      "velocity": 106,
      "chip": "ym2612"
    },
    {
      "channel": 4,
      "note": 59,
      "start": 59.0645,
      "duration": 0.2777,
      "velocity": 106,
      "chip": "ym2612"
    },
    {
      "channel": 5,
      "note": 52,
      "start": 59.0679,
      "duration": 0.2576,
      "velocity": 108,
      "chip": "ym2612"
    },
    {
      "channel": 3,
      "note": 84,
      "start": 59.0707,
      "duration": 0.0383,
      "velocity": 124,
      "chip": "ym2612"
    },
    {
      "channel": 0,
      "note": 46,
      "start": 59.0737,
      "duration": 0.0351,
      "velocity": 117,
      "chip": "ym2612"
    },
    {
      "channel": 3,
      "note": 84,
      "start": 59.2125,
      "duration": 0.0462,
      "velocity": 124,
      "chip": "ym2612"
    },
    {
      "channel": 0,
      "note": 46,
      "start": 59.215,
      "duration": 0.0436,
      "velocity": 117,
      "chip": "ym2612"
    },
    {
      "channel": 1,
      "note": 51,
      "start": 59.3452,
      "duration": 0.2802,
      "velocity": 106,
      "chip": "ym2612"
    },
    {
      "channel": 4,
      "note": 58,
      "start": 59.3478,
      "duration": 0.2777,
      "velocity": 106,
      "chip": "ym2612"
    },
    {
      "channel": 5,
      "note": 51,
      "start": 59.3505,
      "duration": 0.2584,
      "velocity": 108,
      "chip": "ym2612"
    },
    {
      "channel": 3,
      "note": 84,
      "start": 59.3532,
      "duration": 0.0389,
      "velocity": 124,
      "chip": "ym2612"
    },
    {
      "channel": 0,
      "note": 46,
      "start": 59.3557,
      "duration": 0.0363,
      "velocity": 117,
      "chip": "ym2612"
    },
    {
      "channel": 3,
      "note": 84,
      "start": 59.4786,
      "duration": 0.0468,
      "velocity": 124,
      "chip": "ym2612"
    },
    {
      "channel": 0,
      "note": 46,
      "start": 59.4811,
      "duration": 0.0441,
      "velocity": 117,
      "chip": "ym2612"
    },
    {
      "channel": 1,
      "note": 50,
      "start": 59.6285,
      "duration": 0.2635,
      "velocity": 106,
      "chip": "ym2612"
    },
    {
      "channel": 4,
      "note": 57,
      "start": 59.6311,
      "duration": 0.2611,
      "velocity": 106,
      "chip": "ym2612"
    },
    {
      "channel": 5,
      "note": 50,
      "start": 59.6338,
      "duration": 0.2419,
      "velocity": 108,
      "chip": "ym2612"
    },
    {
      "channel": 3,
      "note": 84,
      "start": 59.6365,
      "duration": 0.0389,
      "velocity": 124,
      "chip": "ym2612"
    },
    {
      "channel": 0,
      "note": 46,
      "start": 59.6391,
      "duration": 0.0361,
      "velocity": 117,
      "chip": "ym2612"
    },
    {
      "channel": 3,
      "note": 84,
      "start": 59.762,
      "duration": 0.0468,
      "velocity": 124,
      "chip": "ym2612"
    },
    {
      "channel": 1,
      "note": 49,
      "start": 59.8952,
      "duration": 0.2802,
      "velocity": 106,
      "chip": "ym2612"
    },
    {
      "channel": 4,
      "note": 56,
      "start": 59.8982,
      "duration": 0.2773,
      "velocity": 106,
      "chip": "ym2612"
    },
    {
      "channel": 5,
      "note": 49,
      "start": 59.9009,
      "duration": 0.258,
      "velocity": 108,
      "chip": "ym2612"
    },
    {
      "channel": 3,
      "note": 84,
      "start": 59.9036,
      "duration": 0.0554,
      "velocity": 124,
      "chip": "ym2612"
    },
    {
      "channel": 0,
      "note": 46,
      "start": 59.9062,
      "duration": 0.0525,
      "velocity": 117,
      "chip": "ym2612"
    },
    {
      "channel": 3,
      "note": 84,
      "start": 60.0454,
      "duration": 0.0468,
      "velocity": 124,
      "chip": "ym2612"
    },
    {
      "channel": 0,
      "note": 46,
      "start": 60.048,
      "duration": 0.044,
      "velocity": 117,
      "chip": "ym2612"
    },
    {
      "channel": 1,
      "note": 59,
      "start": 60.1786,
      "duration": 0.2801,
      "velocity": 106,
      "chip": "ym2612"
    },
    {
      "channel": 4,
      "note": 66,
      "start": 60.1812,
      "duration": 0.2777,
      "velocity": 106,
      "chip": "ym2612"
    },
    {
      "channel": 5,
      "note": 59,
      "start": 60.1839,
      "duration": 0.2585,
      "velocity": 108,
      "chip": "ym2612"
    },
    {
      "channel": 3,
      "note": 84,
      "start": 60.1868,
      "duration": 0.0387,
      "velocity": 124,
      "chip": "ym2612"
    },
    {
      "channel": 0,
      "note": 46,
      "start": 60.3288,
      "duration": 0.0466,
      "velocity": 117,
      "chip": "ym2612"
    },
    {
      "channel": 1,
      "note": 58,
      "start": 60.4618,
      "duration": 0.2802,
      "velocity": 106,
      "chip": "ym2612"
    },
    {
      "channel": 4,
      "note": 65,
      "start": 60.4645,
      "duration": 0.2777,
      "velocity": 106,
      "chip": "ym2612"
    },
    {
      "channel": 5,
      "note": 58,
      "start": 60.4672,
      "duration": 0.2585,
      "velocity": 108,
      "chip": "ym2612"
    },
    {
      "channel": 3,
      "note": 84,
      "start": 60.4699,
      "duration": 0.0389,
      "velocity": 124,
      "chip": "ym2612"
    },
    {
      "channel": 0,
      "note": 46,
      "start": 60.5956,
      "duration": 0.0464,
      "velocity": 117,
      "chip": "ym2612"
    },
    {
      "channel": 1,
      "note": 57,
      "start": 60.7452,
      "duration": 0.2636,
      "velocity": 106,
      "chip": "ym2612"
    },
    {
      "channel": 4,
      "note": 64,
      "start": 60.7478,
      "duration": 0.2611,
      "velocity": 106,
      "chip": "ym2612"
    },
    {
      "channel": 5,
      "note": 57,
      "start": 60.7505,
      "duration": 0.2417,
      "velocity": 108,
      "chip": "ym2612"
    },
    {
      "channel": 3,
      "note": 84,
      "start": 60.7532,
      "duration": 0.0389,
      "velocity": 124,
      "chip": "ym2612"
    },
    {
      "channel": 0,
      "note": 46,
      "start": 60.8789,
      "duration": 0.0464,
      "velocity": 117,
      "chip": "ym2612"
    },
    {
      "channel": 1,
      "note": 56,
      "start": 61.012,
      "duration": 0.2802,
      "velocity": 106,
      "chip": "ym2612"
    },
    {
      "channel": 4,
      "note": 63,
      "start": 61.015,
      "duration": 0.2773,
      "velocity": 106,
      "chip": "ym2612"
    },
    {
      "channel": 5,
      "note": 56,
      "start": 61.0176,
      "duration": 0.258,
      "velocity": 108,
      "chip": "ym2612"
    },
    {
      "channel": 3,
      "note": 84,
      "start": 61.0204,
      "duration": 0.0384,
      "velocity": 124,
      "chip": "ym2612"
    },
    {
      "channel": 0,
      "note": 46,
      "start": 61.1622,
      "duration": 0.0464,
      "velocity": 117,
      "chip": "ym2612"
    },
    {
      "channel": 1,
      "note": 55,
      "start": 61.2953,
      "duration": 0.2801,
      "velocity": 106,
      "chip": "ym2612"
    },
    {
      "channel": 4,
      "note": 62,
      "start": 61.2979,
      "duration": 0.2777,
      "velocity": 106,
      "chip": "ym2612"
    },
    {
      "channel": 5,
      "note": 55,
      "start": 61.3006,
      "duration": 0.2584,
      "velocity": 108,
      "chip": "ym2612"
    },
    {
      "channel": 3,
      "note": 84,
      "start": 61.3033,
      "duration": 0.0389,
      "velocity": 124,
      "chip": "ym2612"
    },
    {
      "channel": 0,
      "note": 46,
      "start": 61.4288,
      "duration": 0.0634,
      "velocity": 117,
      "chip": "ym2612"
    },
    {
      "channel": 1,
      "note": 54,
      "start": 61.5785,
      "duration": 0.2636,
      "velocity": 106,
      "chip": "ym2612"
    },
    {
      "channel": 4,
      "note": 61,
      "start": 61.5812,
      "duration": 0.2611,
      "velocity": 106,
      "chip": "ym2612"
    },
    {
      "channel": 5,
      "note": 54,
      "start": 61.5839,
      "duration": 0.2417,
      "velocity": 108,
      "chip": "ym2612"
    },
    {
      "channel": 3,
      "note": 84,
      "start": 61.587,
      "duration": 0.0385,
      "velocity": 124,
      "chip": "ym2612"
    },
    {
      "channel": 0,
      "note": 46,
      "start": 61.7127,
      "duration": 0.0461,
      "velocity": 117,
      "chip": "ym2612"
    },
    {
      "channel": 1,
      "note": 53,
      "start": 61.8453,
      "duration": 0.2801,
      "velocity": 106,
      "chip": "ym2612"
    },
    {
      "channel": 4,
      "note": 60,
      "start": 61.8479,
      "duration": 0.2777,
      "velocity": 106,
      "chip": "ym2612"
    },
    {
      "channel": 5,
      "note": 53,
      "start": 61.8506,
      "duration": 0.2584,
      "velocity": 108,
      "chip": "ym2612"
    },
    {
      "channel": 0,
      "note": 46,
      "start": 61.8544,
      "duration": 0.0544,
      "velocity": 117,
      "chip": "ym2612"
    },
    {
      "channel": 0,
      "note": 46,
      "start": 61.9963,
      "duration": 0.0458,
      "velocity": 117,
      "chip": "ym2612"
    },
    {
      "channel": 1,
      "note": 52,
      "start": 62.1285,
      "duration": 0.2803,
      "velocity": 106,
      "chip": "ym2612"
    },
    {
      "channel": 4,
      "note": 59,
      "start": 62.1316,
      "duration": 0.2774,
      "velocity": 106,
      "chip": "ym2612"
    },
    {
      "channel": 5,
      "note": 52,
      "start": 62.1342,
      "duration": 0.258,
      "velocity": 108,
      "chip": "ym2612"
    },
    {
      "channel": 0,
      "note": 46,
      "start": 62.1379,
      "duration": 0.0375,
      "velocity": 117,
      "chip": "ym2612"
    },
    {
      "channel": 0,
      "note": 46,
      "start": 62.2796,
      "duration": 0.0458,
      "velocity": 117,
      "chip": "ym2612"
    },
    {
      "channel": 1,
      "note": 51,
      "start": 62.412,
      "duration": 0.2801,
      "velocity": 106,
      "chip": "ym2612"
    },
    {
      "channel": 4,
      "note": 58,
      "start": 62.4146,
      "duration": 0.2777,
      "velocity": 106,
      "chip": "ym2612"
    },
    {
      "channel": 5,
      "note": 51,
      "start": 62.4172,
      "duration": 0.2584,
      "velocity": 108,
      "chip": "ym2612"
    },
    {
      "channel": 0,
      "note": 46,
      "start": 62.4209,
      "duration": 0.0379,
      "velocity": 117,
      "chip": "ym2612"
    },
    {
      "channel": 0,
      "note": 46,
      "start": 62.5463,
      "duration": 0.0458,
      "velocity": 117,
      "chip": "ym2612"
    },
    {
      "channel": 1,
      "note": 50,
      "start": 62.6952,
      "duration": 0.2636,
      "velocity": 106,
      "chip": "ym2612"
    },
    {
      "channel": 4,
      "note": 57,
      "start": 62.6978,
      "duration": 0.2611,
      "velocity": 106,
      "chip": "ym2612"
    },
    {
      "channel": 5,
      "note": 50,
      "start": 62.7005,
      "duration": 0.2417,
      "velocity": 108,
      "chip": "ym2612"
    },
    {
      "channel": 0,
      "note": 46,
      "start": 62.7041,
      "duration": 0.0379,
      "velocity": 117,
      "chip": "ym2612"
    },
    {
      "channel": 0,
      "note": 46,
      "start": 62.8296,
      "duration": 0.0458,
      "velocity": 117,
      "chip": "ym2612"
    },
    {
      "channel": 1,
      "note": 49,
      "start": 62.9621,
      "duration": 0.1466,
      "velocity": 106,
      "chip": "ym2612"
    },
    {
      "channel": 4,
      "note": 56,
      "start": 62.9648,
      "duration": 0.1441,
      "velocity": 106,
      "chip": "ym2612"
    },
    {
      "channel": 5,
      "note": 49,
      "start": 62.9681,
      "duration": 0.1242,
      "velocity": 108,
      "chip": "ym2612"
    },
    {
      "channel": 0,
      "note": 46,
      "start": 62.9718,
      "duration": 0.0369,
      "velocity": 117,
      "chip": "ym2612"
    },
    {
      "channel": 1,
      "note": 52,
      "start": 63.1123,
      "duration": 0.1298,
      "velocity": 106,
      "chip": "ym2612"
    },
    {
      "channel": 4,
      "note": 59,
      "start": 63.1149,
      "duration": 0.1274,
      "velocity": 106,
      "chip": "ym2612"
    },
    {
      "channel": 5,
      "note": 52,
      "start": 63.1176,
      "duration": 0.108,
      "velocity": 108,
      "chip": "ym2612"
    },
    {
      "channel": 0,
      "note": 46,
      "start": 63.1212,
      "duration": 0.0375,
      "velocity": 117,
      "chip": "ym2612"
    },
    {
      "channel": 1,
      "note": 49,
      "start": 63.2453,
      "duration": 0.1301,
      "velocity": 106,
      "chip": "ym2612"
    },
    {
      "channel": 4,
      "note": 56,
      "start": 63.2479,
      "duration": 0.1277,
      "velocity": 106,
      "chip": "ym2612"
    },
    {
      "channel": 5,
      "note": 49,
      "start": 63.2506,
      "duration": 0.1084,
      "velocity": 108,
      "chip": "ym2612"
    },
    {
      "channel": 0,
      "note": 46,
      "start": 63.2542,
      "duration": 0.0379,
      "velocity": 117,
      "chip": "ym2612"
    },
    {
      "channel": 1,
      "note": 52,
      "start": 63.3785,
      "duration": 0.1469,
      "velocity": 106,
      "chip": "ym2612"
    },
    {
      "channel": 4,
      "note": 59,
      "start": 63.3812,
      "duration": 0.1444,
      "velocity": 106,
      "chip": "ym2612"
    },
    {
      "channel": 5,
      "note": 52,
      "start": 63.3839,
      "duration": 0.1251,
      "velocity": 108,
      "chip": "ym2612"
    },
    {
      "channel": 0,
      "note": 46,
      "start": 63.3875,
      "duration": 0.0546,
      "velocity": 117,
      "chip": "ym2612"
    },
    {
      "channel": 1,
      "note": 54,
      "start": 63.5332,
      "duration": 0.1256,
      "velocity": 106,
      "chip": "ym2612"
    },
    {
      "channel": 4,
      "note": 61,
      "start": 63.5362,
      "duration": 0.1227,
      "velocity": 106,
      "chip": "ym2612"
    },
    {
      "channel": 5,
      "note": 54,
      "start": 63.5438,
      "duration": 0.0985,
      "velocity": 108,
      "chip": "ym2612"
    },
    {
      "channel": 3,
      "note": 84,
      "start": 63.5646,
      "duration": 0.0224,
      "velocity": 124,
      "chip": "ym2612"
    },
    {
      "channel": 0,
      "note": 46,
      "start": 63.5767,
      "duration": 0.0102,
      "velocity": 117,
      "chip": "ym2612"
    }
  ]
}