{
  "track_name": "05 - Hawaii",
  "duration_sec": 176.256,
  "sample_rate": 44100,
  "note_count": 3340,
  "unique_pitches": 54,
  "pitch_range": 88,
  "avg_note_duration": 0.1329,
  "reconstruction_stats": {
    "notes_reconstructed": 3340,
    "keyon_events": 3340,
    "keyoff_events": 3340,
    "orphan_keyons": 0,
    "unique_pitches": 54,
    "pitch_range": 88,
    "avg_duration_sec": 0.1329
  },
  "metadata": {
    "source": "R\\Road Rash II\\05 - Hawaii.vgz"
  },
  "notes": [
    {
      "channel": 0,
      "note": 33,
      "start": 0.0,
      "duration": 0.1128,
      "velocity": 102,
      "chip": "ym2612"
    },
    {
      "channel": 1,
      "note": 49,
      "start": 0.0,
      "duration": 0.1129,
      "velocity": 88,
      "chip": "ym2612"
    },
    {
      "channel": 2,
      "note": 90,
      "start": 0.0015,
      "duration": 0.1115,
      "velocity": 102,
      "chip": "ym2612"
    },
    {
      "channel": 0,
      "note": 102,
      "start": 0.1296,
      "duration": 0.1165,
      "velocity": 102,
      "chip": "ym2612"
    },
    {
      "channel": 1,
      "note": 69,
      "start": 0.1298,
      "duration": 0.1164,
      "velocity": 88,
      "chip": "ym2612"
    },
    {
      "channel": 2,
      "note": 109,
      "start": 0.1301,
      "duration": 0.1163,
      "velocity": 102,
      "chip": "ym2612"
    },
    {
      "channel": 0,
      "note": 102,
      "start": 0.2629,
      "duration": 0.1165,
      "velocity": 102,
      "chip": "ym2612"
    },
    {
      "channel": 1,
      "note": 69,
      "start": 0.2632,
      "duration": 0.1164,
      "velocity": 88,
      "chip": "ym2612"
    },
    {
      "channel": 2,
      "note": 107,
      "start": 0.2634,
      "duration": 0.1163,
      "velocity": 102,
      "chip": "ym2612"
    },
    {
      "channel": 0,
      "note": 100,
      "start": 0.3962,
      "duration": 0.1165,
      "velocity": 102,
      "chip": "ym2612"
    },
    {
      "channel": 1,
      "note": 66,
      "start": 0.3965,
      "duration": 0.1164,
      "velocity": 88,
      "chip": "ym2612"
    },
    {
      "channel": 2,
      "note": 105,
      "start": 0.3967,
      "duration": 0.1162,
      "velocity": 102,
      "chip": "ym2612"
    },
    {
      "channel": 0,
      "note": 97,
      "start": 0.5297,
      "duration": 0.1164,
      "velocity": 102,
      "chip": "ym2612"
    },
    {
      "channel": 1,
      "note": 64,
      "start": 0.53,
      "duration": 0.1163,
      "velocity": 88,
      "chip": "ym2612"
    },
    {
      "channel": 2,
      "note": 102,
      "start": 0.5302,
      "duration": 0.1161,
      "velocity": 102,
      "chip": "ym2612"
    },
    {
      "channel": 0,
      "note": 102,
      "start": 0.663,
      "duration": 0.1164,
      "velocity": 102,
      "chip": "ym2612"
    },
    {
      "channel": 1,
      "note": 69,
      "start": 0.6633,
      "duration": 0.1163,
      "velocity": 88,
      "chip": "ym2612"
    },
    {
      "channel": 2,
      "note": 107,
      "start": 0.6635,
      "duration": 0.1161,
      "velocity": 102,
      "chip": "ym2612"
    },
    {
      "channel": 0,
      "note": 100,
      "start": 0.7963,
      "duration": 0.1164,
      "velocity": 102,
      "chip": "ym2612"
    },
    {
      "channel": 1,
      "note": 66,
      "start": 0.7966,
      "duration": 0.1163,
      "velocity": 88,
      "chip": "ym2612"
    },
    {
      "channel": 2,
      "note": 105,
      "start": 0.7969,
      "duration": 0.1161,
      "velocity": 102,
      "chip": "ym2612"
    },
    {
      "channel": 0,
      "note": 97,
      "start": 0.9297,
      "duration": 0.1164,
      "velocity": 102,
      "chip": "ym2612"
    },
    {
      "channel": 1,
      "note": 64,
      "start": 0.93,
      "duration": 0.1163,
      "velocity": 88,
      "chip": "ym2612"
    },
    {
      "channel": 2,
      "note": 102,
      "start": 0.9302,
      "duration": 0.1161,
      "velocity": 102,
      "chip": "ym2612"
    },
    {
      "channel": 0,
      "note": 93,
      "start": 1.063,
      "duration": 0.1164,
      "velocity": 102,
      "chip": "ym2612"
    },
    {
      "channel": 1,
      "note": 61,
      "start": 1.0633,
      "duration": 0.1163,
      "velocity": 88,
      "chip": "ym2612"
    },
    {
      "channel": 2,
      "note": 100,
      "start": 1.0635,
      "duration": 0.1161,
      "velocity": 102,
      "chip": "ym2612"
    },
    {
      "channel": 0,
      "note": 100,
      "start": 1.1962,
      "duration": 0.1165,
      "velocity": 102,
      "chip": "ym2612"
    },
    {
      "channel": 1,
      "note": 66,
      "start": 1.1965,
      "duration": 0.1164,
      "velocity": 88,
      "chip": "ym2612"
    },
    {
      "channel": 2,
      "note": 105,
      "start": 1.1967,
      "duration": 0.1162,
      "velocity": 102,
      "chip": "ym2612"
    },
    {
      "channel": 0,
      "note": 97,
      "start": 1.3297,
      "duration": 0.1164,
      "velocity": 102,
      "chip": "ym2612"
    },
    {
      "channel": 1,
      "note": 64,
      "start": 1.33,
      "duration": 0.1163,
      "velocity": 88,
      "chip": "ym2612"
    },
    {
      "channel": 2,
      "note": 102,
      "start": 1.3302,
      "duration": 0.1161,
      "velocity": 102,
      "chip": "ym2612"
    },
    {
      "channel": 0,
      "note": 93,
      "start": 1.4629,
      "duration": 0.1165,
      "velocity": 102,
      "chip": "ym2612"
    },
    {
      "channel": 1,
      "note": 61,
      "start": 1.4632,
      "duration": 0.1164,
      "velocity": 88,
      "chip": "ym2612"
    },
    {
      "channel": 2,
      "note": 100,
      "start": 1.4634,
      "duration": 0.1162,
      "velocity": 102,
      "chip": "ym2612"
    },
    {
      "channel": 0,
      "note": 90,
      "start": 1.5963,
      "duration": 0.1164,
      "velocity": 102,
      "chip": "ym2612"
    },
    {
      "channel": 1,
      "note": 57,
      "start": 1.5966,
      "duration": 0.1163,
      "velocity": 88,
      "chip": "ym2612"
    },
    {
      "channel": 2,
      "note": 97,
      "start": 1.5969,
      "duration": 0.1161,
      "velocity": 102,
      "chip": "ym2612"
    },
    {
      "channel": 0,
      "note": 97,
      "start": 1.7297,
      "duration": 0.1164,
      "velocity": 102,
      "chip": "ym2612"
    },
    {
      "channel": 1,
      "note": 64,
      "start": 1.73,
      "duration": 0.1163,
      "velocity": 88,
      "chip": "ym2612"
    },
    {
      "channel": 2,
      "note": 102,
      "start": 1.7302,
      "duration": 0.1161,
      "velocity": 102,
      "chip": "ym2612"
    },
    {
      "channel": 0,
      "note": 93,
      "start": 1.863,
      "duration": 0.1164,
      "velocity": 102,
      "chip": "ym2612"
    },
    {
      "channel": 1,
      "note": 61,
      "start": 1.8633,
      "duration": 0.1163,
      "velocity": 88,
      "chip": "ym2612"
    },
    {
      "channel": 2,
      "note": 100,
      "start": 1.8635,
      "duration": 0.1161,
      "velocity": 102,
      "chip": "ym2612"
    },
    {
      "channel": 0,
      "note": 90,
      "start": 1.9963,
      "duration": 0.1164,
      "velocity": 102,
      "chip": "ym2612"
    },
    {
      "channel": 1,
      "note": 57,
      "start": 1.9966,
      "duration": 0.1163,
      "velocity": 88,
      "chip": "ym2612"
    },
    {
      "channel": 2,
      "note": 97,
      "start": 1.9969,
      "duration": 0.1161,
      "velocity": 102,
      "chip": "ym2612"
    },
    {
      "channel": 0,
      "note": 90,
      "start": 2.1297,
      "duration": 0.1164,
      "velocity": 102,
      "chip": "ym2612"
    },
    {
      "channel": 1,
      "note": 57,
      "start": 2.13,
      "duration": 0.1163,
      "velocity": 88,
      "chip": "ym2612"
    },
    {
      "channel": 2,
      "note": 95,
      "start": 2.1302,
      "duration": 0.1161,
      "velocity": 102,
      "chip": "ym2612"
    },
    {
      "channel": 0,
      "note": 93,
      "start": 2.263,
      "duration": 0.1164,
      "velocity": 102,
      "chip": "ym2612"
    },
    {
      "channel": 1,
      "note": 61,
      "start": 2.2633,
      "duration": 0.1163,
      "velocity": 88,
      "chip": "ym2612"
    },
    {
      "channel": 2,
      "note": 100,
      "start": 2.2635,
      "duration": 0.1161,
      "velocity": 102,
      "chip": "ym2612"
    },
    {
      "channel": 0,
      "note": 90,
      "start": 2.3963,
      "duration": 0.1164,
      "velocity": 102,
      "chip": "ym2612"
    },
    {
      "channel": 1,
      "note": 57,
      "start": 2.3966,
      "duration": 0.1163,
      "velocity": 88,
      "chip": "ym2612"
    },
    {
      "channel": 2,
      "note": 97,
      "start": 2.3969,
      "duration": 0.1161,
      "velocity": 102,
      "chip": "ym2612"
    },
    {
      "channel": 0,
      "note": 90,
      "start": 2.5296,
      "duration": 0.1165,
      "velocity": 102,
      "chip": "ym2612"
    },
    {
      "channel": 1,
      "note": 57,
      "start": 2.5298,
      "duration": 0.1164,
      "velocity": 88,
      "chip": "ym2612"
    },
    {
      "channel": 2,
      "note": 95,
      "start": 2.5301,
      "duration": 0.1162,
      "velocity": 102,
      "chip": "ym2612"
    },
    {
      "channel": 0,
      "note": 88,
      "start": 2.663,
      "duration": 0.1164,
      "velocity": 102,
      "chip": "ym2612"
    },
    {
      "channel": 1,
      "note": 54,
      "start": 2.6633,
      "duration": 0.1163,
      "velocity": 88,
      "chip": "ym2612"
    },
    {
      "channel": 2,
      "note": 93,
      "start": 2.6635,
      "duration": 0.1161,
      "velocity": 102,
      "chip": "ym2612"
    },
    {
      "channel": 0,
      "note": 90,
      "start": 2.7962,
      "duration": 0.1165,
      "velocity": 102,
      "chip": "ym2612"
    },
    {
      "channel": 1,
      "note": 57,
      "start": 2.7965,
      "duration": 0.1164,
      "velocity": 88,
      "chip": "ym2612"
    },
    {
      "channel": 2,
      "note": 97,
      "start": 2.7967,
      "duration": 0.1162,
      "velocity": 102,
      "chip": "ym2612"
    },
    {
      "channel": 0,
      "note": 90,
      "start": 2.9297,
      "duration": 0.1164,
      "velocity": 102,
      "chip": "ym2612"
    },
    {
      "channel": 1,
      "note": 57,
      "start": 2.93,
      "duration": 0.1163,
      "velocity": 88,
      "chip": "ym2612"
    },
    {
      "channel": 2,
      "note": 95,
      "start": 2.9302,
      "duration": 0.1161,
      "velocity": 102,
      "chip": "ym2612"
    },
    {
      "channel": 0,
      "note": 88,
      "start": 3.063,
      "duration": 0.1164,
      "velocity": 102,
      "chip": "ym2612"
    },
    {
      "channel": 1,
      "note": 54,
      "start": 3.0633,
      "duration": 0.1163,
      "velocity": 88,
      "chip": "ym2612"
    },
    {
      "channel": 2,
      "note": 93,
      "start": 3.0635,
      "duration": 0.1161,
      "velocity": 102,
      "chip": "ym2612"
    },
    {
      "channel": 0,
      "note": 85,
      "start": 3.1981,
      "duration": 0.3814,
      "velocity": 107,
      "chip": "ym2612"
    },
    {
      "channel": 0,
      "note": 33,
      "start": 3.5962,
      "duration": 0.3832,
      "velocity": 107,
      "chip": "ym2612"
    },
    {
      "channel": 0,
      "note": 33,
      "start": 3.9962,
      "duration": 0.3832,
      "velocity": 107,
      "chip": "ym2612"
    },
    {
      "channel": 0,
      "note": 33,
      "start": 4.3962,
      "duration": 0.3832,
      "velocity": 107,
      "chip": "ym2612"
    },
    {
      "channel": 0,
      "note": 33,
      "start": 4.7962,
      "duration": 0.3833,
      "velocity": 107,
      "chip": "ym2612"
    },
    {
      "channel": 0,
      "note": 33,
      "start": 5.1962,
      "duration": 0.3833,
      "velocity": 107,
      "chip": "ym2612"
    },
    {
      "channel": 0,
      "note": 33,
      "start": 5.5962,
      "duration": 0.3833,
      "velocity": 107,
      "chip": "ym2612"
    },
    {
      "channel": 0,
      "note": 33,
      "start": 5.9962,
      "duration": 0.3833,
      "velocity": 107,
      "chip": "ym2612"
    },
    {
      "channel": 0,
      "note": 33,
      "start": 6.3962,
      "duration": 0.3832,
      "velocity": 107,
      "chip": "ym2612"
    },
    {
      "channel": 1,
      "note": 52,
      "start": 6.3965,
      "duration": 0.0496,
      "velocity": 127,
      "chip": "ym2612"
    },
    {
      "channel": 1,
      "note": 49,
      "start": 6.4629,
      "duration": 0.0499,
      "velocity": 127,
      "chip": "ym2612"
    },
    {
      "channel": 1,
      "note": 49,
      "start": 6.5296,
      "duration": 0.1166,
      "velocity": 127,
      "chip": "ym2612"
    },
    {
      "channel": 1,
      "note": 49,
      "start": 6.663,
      "duration": 0.1166,
      "velocity": 127,
      "chip": "ym2612"
    },
    {
      "channel": 0,
      "note": 33,
      "start": 6.7963,
      "duration": 0.3832,
      "velocity": 107,
      "chip": "ym2612"
    },
    {
      "channel": 1,
      "note": 49,
      "start": 6.7966,
      "duration": 0.0496,
      "velocity": 127,
      "chip": "ym2612"
    },
    {
      "channel": 1,
      "note": 49,
      "start": 6.863,
      "duration": 0.0499,
      "velocity": 127,
      "chip": "ym2612"
    },
    {
      "channel": 1,
      "note": 49,
      "start": 6.9296,
      "duration": 0.1166,
      "velocity": 127,
      "chip": "ym2612"
    },
    {
      "channel": 1,
      "note": 49,
      "start": 7.0628,
      "duration": 0.1168,
      "velocity": 127,
      "chip": "ym2612"
    },
    {
      "channel": 0,
      "note": 33,
      "start": 7.1962,
      "duration": 0.3832,
      "velocity": 107,
      "chip": "ym2612"
    },
    {
      "channel": 1,
      "note": 49,
      "start": 7.1965,
      "duration": 0.1163,
      "velocity": 127,
      "chip": "ym2612"
    },
    {
      "channel": 1,
      "note": 49,
      "start": 7.3296,
      "duration": 0.1166,
      "velocity": 127,
      "chip": "ym2612"
    },
    {
      "channel": 1,
      "note": 49,
      "start": 7.463,
      "duration": 0.0499,
      "velocity": 127,
      "chip": "ym2612"
    },
    {
      "channel": 1,
      "note": 49,
      "start": 7.5296,
      "duration": 0.0499,
      "velocity": 127,
      "chip": "ym2612"
    },
    {
      "channel": 0,
      "note": 33,
      "start": 7.5963,
      "duration": 0.3833,
      "velocity": 107,
      "chip": "ym2612"
    },
    {
      "channel": 1,
      "note": 49,
      "start": 7.5966,
      "duration": 0.1163,
      "velocity": 127,
      "chip": "ym2612"
    },
    {
      "channel": 1,
      "note": 49,
      "start": 7.7295,
      "duration": 0.1167,
      "velocity": 127,
      "chip": "ym2612"
    },
    {
      "channel": 1,
      "note": 49,
      "start": 7.8629,
      "duration": 0.1168,
      "velocity": 127,
      "chip": "ym2612"
    },
    {
      "channel": 0,
      "note": 33,
      "start": 7.9962,
      "duration": 0.3833,
      "velocity": 107,
      "chip": "ym2612"
    },
    {
      "channel": 1,
      "note": 49,
      "start": 7.9964,
      "duration": 0.1163,
      "velocity": 127,
      "chip": "ym2612"
    },
    {
      "channel": 1,
      "note": 49,
      "start": 8.1296,
      "duration": 0.1166,
      "velocity": 127,
      "chip": "ym2612"
    },
    {
      "channel": 1,
      "note": 49,
      "start": 8.263,
      "duration": 0.1166,
      "velocity": 127,
      "chip": "ym2612"
    },
    {
      "channel": 0,
      "note": 33,
      "start": 8.3963,
      "duration": 0.3832,
      "velocity": 107,
      "chip": "ym2612"
    },
    {
      "channel": 1,
      "note": 49,
      "start": 8.3966,
      "duration": 0.0496,
      "velocity": 127,
      "chip": "ym2612"
    },
    {
      "channel": 1,
      "note": 49,
      "start": 8.463,
      "duration": 0.0499,
      "velocity": 127,
      "chip": "ym2612"
    },
    {
      "channel": 1,
      "note": 49,
      "start": 8.5296,
      "duration": 0.1166,
      "velocity": 127,
      "chip": "ym2612"
    },
    {
      "channel": 1,
      "note": 49,
      "start": 8.6628,
      "duration": 0.1168,
      "velocity": 127,
      "chip": "ym2612"
    },
    {
      "channel": 0,
      "note": 33,
      "start": 8.7962,
      "duration": 0.3833,
      "velocity": 107,
      "chip": "ym2612"
    },
    {
      "channel": 1,
      "note": 49,
      "start": 8.7965,
      "duration": 0.0498,
      "velocity": 127,
      "chip": "ym2612"
    },
    {
      "channel": 1,
      "note": 49,
      "start": 8.8628,
      "duration": 0.0501,
      "velocity": 127,
      "chip": "ym2612"
    },
    {
      "channel": 1,
      "note": 49,
      "start": 8.9297,
      "duration": 0.1166,
      "velocity": 127,
      "chip": "ym2612"
    },
    {
      "channel": 1,
      "note": 49,
      "start": 9.0629,
      "duration": 0.1167,
      "velocity": 127,
      "chip": "ym2612"
    },
    {
      "channel": 0,
      "note": 33,
      "start": 9.1963,
      "duration": 0.3831,
      "velocity": 107,
      "chip": "ym2612"
    },
    {
      "channel": 1,
      "note": 49,
      "start": 9.1966,
      "duration": 0.1163,
      "velocity": 127,
      "chip": "ym2612"
    },
    {
      "channel": 1,
      "note": 49,
      "start": 9.3296,
      "duration": 0.1165,
      "velocity": 127,
      "chip": "ym2612"
    },
    {
      "channel": 1,
      "note": 49,
      "start": 9.463,
      "duration": 0.0499,
      "velocity": 127,
      "chip": "ym2612"
    },
    {
      "channel": 1,
      "note": 49,
      "start": 9.5296,
      "duration": 0.0499,
      "velocity": 127,
      "chip": "ym2612"
    },
    {
      "channel": 0,
      "note": 33,
      "start": 9.5962,
      "duration": 0.3833,
      "velocity": 107,
      "chip": "ym2612"
    },
    {
      "channel": 1,
      "note": 49,
      "start": 9.5965,
      "duration": 0.1163,
      "velocity": 127,
      "chip": "ym2612"
    },
    {
      "channel": 1,
      "note": 49,
      "start": 9.7296,
      "duration": 0.1165,
      "velocity": 127,
      "chip": "ym2612"
    },
    {
      "channel": 1,
      "note": 49,
      "start": 9.863,
      "duration": 0.1167,
      "velocity": 127,
      "chip": "ym2612"
    },
    {
      "channel": 0,
      "note": 33,
      "start": 9.9962,
      "duration": 0.3832,
      "velocity": 107,
      "chip": "ym2612"
    },
    {
      "channel": 1,
      "note": 49,
      "start": 9.9965,
      "duration": 0.1164,
      "velocity": 127,
      "chip": "ym2612"
    },
    {
      "channel": 1,
      "note": 49,
      "start": 10.1296,
      "duration": 0.1167,
      "velocity": 127,
      "chip": "ym2612"
    },
    {
      "channel": 1,
      "note": 49,
      "start": 10.2629,
      "duration": 0.1166,
      "velocity": 127,
      "chip": "ym2612"
    },
    {
      "channel": 0,
      "note": 33,
      "start": 10.3963,
      "duration": 0.3831,
      "velocity": 107,
      "chip": "ym2612"
    },
    {
      "channel": 1,
      "note": 49,
      "start": 10.3966,
      "duration": 0.0495,
      "velocity": 127,
      "chip": "ym2612"
    },
    {
      "channel": 1,
      "note": 49,
      "start": 10.4629,
      "duration": 0.0499,
      "velocity": 127,
      "chip": "ym2612"
    },
    {
      "channel": 1,
      "note": 49,
      "start": 10.5296,
      "duration": 0.1166,
      "velocity": 127,
      "chip": "ym2612"
    },
    {
      "channel": 1,
      "note": 49,
      "start": 10.663,
      "duration": 0.1166,
      "velocity": 127,
      "chip": "ym2612"
    },
    {
      "channel": 0,
      "note": 33,
      "start": 10.7963,
      "duration": 0.3832,
      "velocity": 107,
      "chip": "ym2612"
    },
    {
      "channel": 1,
      "note": 49,
      "start": 10.7966,
      "duration": 0.0496,
      "velocity": 127,
      "chip": "ym2612"
    },
    {
      "channel": 1,
      "note": 49,
      "start": 10.863,
      "duration": 0.0499,
      "velocity": 127,
      "chip": "ym2612"
    },
    {
      "channel": 1,
      "note": 49,
      "start": 10.9296,
      "duration": 0.1166,
      "velocity": 127,
      "chip": "ym2612"
    },
    {
      "channel": 1,
      "note": 49,
      "start": 11.0628,
      "duration": 0.1168,
      "velocity": 127,
      "chip": "ym2612"
    },
    {
      "channel": 0,
      "note": 33,
      "start": 11.1963,
      "duration": 0.3832,
      "velocity": 107,
      "chip": "ym2612"
    },
    {
      "channel": 1,
      "note": 49,
      "start": 11.1966,
      "duration": 0.1163,
      "velocity": 127,
      "chip": "ym2612"
    },
    {
      "channel": 1,
      "note": 49,
      "start": 11.3295,
      "duration": 0.1167,
      "velocity": 127,
      "chip": "ym2612"
    },
    {
      "channel": 1,
      "note": 49,
      "start": 11.4629,
      "duration": 0.05,
      "velocity": 127,
      "chip": "ym2612"
    },
    {
      "channel": 1,
      "note": 49,
      "start": 11.5296,
      "duration": 0.0501,
      "velocity": 127,
      "chip": "ym2612"
    },
    {
      "channel": 0,
      "note": 33,
      "start": 11.5962,
      "duration": 0.3832,
      "velocity": 107,
      "chip": "ym2612"
    },
    {
      "channel": 1,
      "note": 49,
      "start": 11.5965,
      "duration": 0.1164,
      "velocity": 127,
      "chip": "ym2612"
    },
    {
      "channel": 1,
      "note": 49,
      "start": 11.7296,
      "duration": 0.1165,
      "velocity": 127,
      "chip": "ym2612"
    },
    {
      "channel": 1,
      "note": 49,
      "start": 11.8629,
      "duration": 0.1167,
      "velocity": 127,
      "chip": "ym2612"
    },
    {
      "channel": 0,
      "note": 33,
      "start": 11.9963,
      "duration": 0.3832,
      "velocity": 107,
      "chip": "ym2612"
    },
    {
      "channel": 1,
      "note": 49,
      "start": 11.9966,
      "duration": 0.1163,
      "velocity": 127,
      "chip": "ym2612"
    },
    {
      "channel": 1,
      "note": 49,
      "start": 12.1296,
      "duration": 0.1166,
      "velocity": 127,
      "chip": "ym2612"
    },
    {
      "channel": 1,
      "note": 49,
      "start": 12.2628,
      "duration": 0.1168,
      "velocity": 127,
      "chip": "ym2612"
    },
    {
      "channel": 0,
      "note": 33,
      "start": 12.3962,
      "duration": 0.3832,
      "velocity": 107,
      "chip": "ym2612"
    },
    {
      "channel": 1,
      "note": 49,
      "start": 12.3965,
      "duration": 0.3831,
      "velocity": 127,
      "chip": "ym2612"
    },
    {
      "channel": 2,
      "note": 90,
      "start": 12.5296,
      "duration": 0.1165,
      "velocity": 127,
      "chip": "ym2612"
    },
    {
      "channel": 2,
      "note": 79,
      "start": 12.663,
      "duration": 0.1167,
      "velocity": 127,
      "chip": "ym2612"
    },
    {
      "channel": 0,
      "note": 33,
      "start": 12.7963,
      "duration": 0.3832,
      "velocity": 107,
      "chip": "ym2612"
    },
    {
      "channel": 1,
      "note": 49,
      "start": 12.7966,
      "duration": 0.0495,
      "velocity": 127,
      "chip": "ym2612"
    },
    {
      "channel": 2,
      "note": 79,
      "start": 12.7969,
      "duration": 0.116,
      "velocity": 127,
      "chip": "ym2612"
    },
    {
      "channel": 1,
      "note": 49,
      "start": 12.863,
      "duration": 0.0499,
      "velocity": 127,
      "chip": "ym2612"
    },
    {
      "channel": 1,
      "note": 49,
      "start": 12.9296,
      "duration": 0.1165,
      "velocity": 127,
      "chip": "ym2612"
    },
    {
      "channel": 2,
      "note": 79,
      "start": 12.9299,
      "duration": 0.1164,
      "velocity": 127,
      "chip": "ym2612"
    },
    {
      "channel": 1,
      "note": 49,
      "start": 13.063,
      "duration": 0.1166,
      "velocity": 127,
      "chip": "ym2612"
    },
    {
      "channel": 2,
      "note": 67,
      "start": 13.0633,
      "duration": 0.1164,
      "velocity": 127,
      "chip": "ym2612"
    },
    {
      "channel": 0,
      "note": 33,
      "start": 13.1963,
      "duration": 0.3832,
      "velocity": 107,
      "chip": "ym2612"
    },
    {
      "channel": 1,
      "note": 49,
      "start": 13.1966,
      "duration": 0.0495,
      "velocity": 127,
      "chip": "ym2612"
    },
    {
      "channel": 2,
      "note": 79,
      "start": 13.1969,
      "duration": 0.1161,
      "velocity": 127,
      "chip": "ym2612"
    },
    {
      "channel": 1,
      "note": 49,
      "start": 13.263,
      "duration": 0.0499,
      "velocity": 127,
      "chip": "ym2612"
    },
    {
      "channel": 1,
      "note": 49,
      "start": 13.3297,
      "duration": 0.1165,
      "velocity": 127,
      "chip": "ym2612"
    },
    {
      "channel": 2,
      "note": 67,
      "start": 13.33,
      "duration": 0.1163,
      "velocity": 127,
      "chip": "ym2612"
    },
    {
      "channel": 1,
      "note": 49,
      "start": 13.4629,
      "duration": 0.1167,
      "velocity": 127,
      "chip": "ym2612"
    },
    {
      "channel": 2,
      "note": 79,
      "start": 13.4632,
      "duration": 0.1165,
      "velocity": 127,
      "chip": "ym2612"
    },
    {
      "channel": 0,
      "note": 33,
      "start": 13.5962,
      "duration": 0.3833,
      "velocity": 107,
      "chip": "ym2612"
    },
    {
      "channel": 1,
      "note": 49,
      "start": 13.5965,
      "duration": 0.1163,
      "velocity": 127,
      "chip": "ym2612"
    },
    {
      "channel": 2,
      "note": 79,
      "start": 13.5967,
      "duration": 0.1162,
      "velocity": 127,
      "chip": "ym2612"
    },
    {
      "channel": 1,
      "note": 49,
      "start": 13.7296,
      "duration": 0.1167,
      "velocity": 127,
      "chip": "ym2612"
    },
    {
      "channel": 2,
      "note": 67,
      "start": 13.7298,
      "duration": 0.1165,
      "velocity": 127,
      "chip": "ym2612"
    },
    {
      "channel": 1,
      "note": 49,
      "start": 13.8631,
      "duration": 0.0498,
      "velocity": 127,
      "chip": "ym2612"
    },
    {
      "channel": 2,
      "note": 79,
      "start": 13.8633,
      "duration": 0.1163,
      "velocity": 127,
      "chip": "ym2612"
    },
    {
      "channel": 1,
      "note": 49,
      "start": 13.9295,
      "duration": 0.0501,
      "velocity": 127,
      "chip": "ym2612"
    },
    {
      "channel": 0,
      "note": 33,
      "start": 13.9963,
      "duration": 0.3833,
      "velocity": 107,
      "chip": "ym2612"
    },
    {
      "channel": 1,
      "note": 49,
      "start": 13.9966,
      "duration": 0.1163,
      "velocity": 127,
      "chip": "ym2612"
    },
    {
      "channel": 2,
      "note": 67,
      "start": 13.9968,
      "duration": 0.1162,
      "velocity": 127,
      "chip": "ym2612"
    },
    {
      "channel": 1,
      "note": 49,
      "start": 14.1296,
      "duration": 0.1166,
      "velocity": 127,
      "chip": "ym2612"
    },
    {
      "channel": 2,
      "note": 79,
      "start": 14.1299,
      "duration": 0.1165,
      "velocity": 127,
      "chip": "ym2612"
    },
    {
      "channel": 1,
      "note": 49,
      "start": 14.263,
      "duration": 0.1167,
      "velocity": 127,
      "chip": "ym2612"
    },
    {
      "channel": 2,
      "note": 67,
      "start": 14.2632,
      "duration": 0.1165,
      "velocity": 127,
      "chip": "ym2612"
    },
    {
      "channel": 0,
      "note": 33,
      "start": 14.3963,
      "duration": 0.3832,
      "velocity": 107,
      "chip": "ym2612"
    },
    {
      "channel": 1,
      "note": 49,
      "start": 14.3966,
      "duration": 0.1162,
      "velocity": 127,
      "chip": "ym2612"
    },
    {
      "channel": 2,
      "note": 79,
      "start": 14.3968,
      "duration": 0.1161,
      "velocity": 127,
      "chip": "ym2612"
    },
    {
      "channel": 1,
      "note": 49,
      "start": 14.5296,
      "duration": 0.1165,
      "velocity": 127,
      "chip": "ym2612"
    },
    {
      "channel": 2,
      "note": 79,
      "start": 14.5299,
      "duration": 0.1164,
      "velocity": 127,
      "chip": "ym2612"
    },
    {
      "channel": 1,
      "note": 49,
      "start": 14.663,
      "duration": 0.1166,
      "velocity": 127,
      "chip": "ym2612"
    },
    {
      "channel": 2,
      "note": 67,
      "start": 14.6633,
      "duration": 0.1164,
      "velocity": 127,
      "chip": "ym2612"
    },
    {
      "channel": 0,
      "note": 33,
      "start": 14.7963,
      "duration": 0.3832,
      "velocity": 107,
      "chip": "ym2612"
    },
    {
      "channel": 1,
      "note": 49,
      "start": 14.7966,
      "duration": 0.0495,
      "velocity": 127,
      "chip": "ym2612"
    },
    {
      "channel": 2,
      "note": 79,
      "start": 14.7969,
      "duration": 0.1161,
      "velocity": 127,
      "chip": "ym2612"
    },
    {
      "channel": 1,
      "note": 49,
      "start": 14.863,
      "duration": 0.0499,
      "velocity": 127,
      "chip": "ym2612"
    },
    {
      "channel": 1,
      "note": 49,
      "start": 14.9297,
      "duration": 0.1166,
      "velocity": 127,
      "chip": "ym2612"
    },
    {
      "channel": 2,
      "note": 67,
      "start": 14.93,
      "duration": 0.1163,
      "velocity": 127,
      "chip": "ym2612"
    },
    {
      "channel": 1,
      "note": 49,
      "start": 15.0629,
      "duration": 0.1167,
      "velocity": 127,
      "chip": "ym2612"
    },
    {
      "channel": 2,
      "note": 79,
      "start": 15.0632,
      "duration": 0.1165,
      "velocity": 127,
      "chip": "ym2612"
    },
    {
      "channel": 0,
      "note": 33,
      "start": 15.1963,
      "duration": 0.3832,
      "velocity": 107,
      "chip": "ym2612"
    },
    {
      "channel": 1,
      "note": 49,
      "start": 15.1966,
      "duration": 0.0497,
      "velocity": 127,
      "chip": "ym2612"
    },
    {
      "channel": 2,
      "note": 79,
      "start": 15.1968,
      "duration": 0.1162,
      "velocity": 127,
      "chip": "ym2612"
    },
    {
      "channel": 1,
      "note": 49,
      "start": 15.2628,
      "duration": 0.0501,
      "velocity": 127,
      "chip": "ym2612"
    },
    {
      "channel": 1,
      "note": 49,
      "start": 15.3298,
      "duration": 0.1165,
      "velocity": 127,
      "chip": "ym2612"
    },
    {
      "channel": 2,
      "note": 67,
      "start": 15.33,
      "duration": 0.1163,
      "velocity": 127,
      "chip": "ym2612"
    },
    {
      "channel": 1,
      "note": 49,
      "start": 15.4629,
      "duration": 0.1167,
      "velocity": 127,
      "chip": "ym2612"
    },
    {
      "channel": 2,
      "note": 79,
      "start": 15.4632,
      "duration": 0.1166,
      "velocity": 127,
      "chip": "ym2612"
    },
    {
      "channel": 0,
      "note": 33,
      "start": 15.5963,
      "duration": 0.3832,
      "velocity": 107,
      "chip": "ym2612"
    },
    {
      "channel": 1,
      "note": 49,
      "start": 15.5966,
      "duration": 0.1163,
      "velocity": 127,
      "chip": "ym2612"
    },
    {
      "channel": 2,
      "note": 67,
      "start": 15.5968,
      "duration": 0.1162,
      "velocity": 127,
      "chip": "ym2612"
    },
    {
      "channel": 1,
      "note": 49,
      "start": 15.7296,
      "duration": 0.1165,
      "velocity": 127,
      "chip": "ym2612"
    },
    {
      "channel": 2,
      "note": 79,
      "start": 15.7299,
      "duration": 0.1163,
      "velocity": 127,
      "chip": "ym2612"
    },
    {
      "channel": 1,
      "note": 49,
      "start": 15.863,
      "duration": 0.0498,
      "velocity": 127,
      "chip": "ym2612"
    },
    {
      "channel": 2,
      "note": 67,
      "start": 15.8632,
      "duration": 0.1165,
      "velocity": 127,
      "chip": "ym2612"
    },
    {
      "channel": 1,
      "note": 49,
      "start": 15.9296,
      "duration": 0.0501,
      "velocity": 127,
      "chip": "ym2612"
    },
    {
      "channel": 0,
      "note": 33,
      "start": 15.9963,
      "duration": 0.3831,
      "velocity": 107,
      "chip": "ym2612"
    },
    {
      "channel": 1,
      "note": 49,
      "start": 15.9966,
      "duration": 0.1164,
      "velocity": 127,
      "chip": "ym2612"
    },
    {
      "channel": 2,
      "note": 79,
      "start": 15.9968,
      "duration": 0.1162,
      "velocity": 127,
      "chip": "ym2612"
    },
    {
      "channel": 1,
      "note": 49,
      "start": 16.1296,
      "duration": 0.1165,
      "velocity": 127,
      "chip": "ym2612"
    },
    {
      "channel": 2,
      "note": 79,
      "start": 16.1299,
      "duration": 0.1163,
      "velocity": 127,
      "chip": "ym2612"
    },
    {
      "channel": 1,
      "note": 49,
      "start": 16.263,
      "duration": 0.1166,
      "velocity": 127,
      "chip": "ym2612"
    },
    {
      "channel": 2,
      "note": 67,
      "start": 16.2632,
      "duration": 0.1164,
      "velocity": 127,
      "chip": "ym2612"
    },
    {
      "channel": 0,
      "note": 33,
      "start": 16.3963,
      "duration": 0.3832,
      "velocity": 107,
      "chip": "ym2612"
    },
    {
      "channel": 1,
      "note": 49,
      "start": 16.3966,
      "duration": 0.1162,
      "velocity": 127,
      "chip": "ym2612"
    },
    {
      "channel": 2,
      "note": 79,
      "start": 16.3969,
      "duration": 0.116,
      "velocity": 127,
      "chip": "ym2612"
    },
    {
      "channel": 1,
      "note": 49,
      "start": 16.5297,
      "duration": 0.1165,
      "velocity": 127,
      "chip": "ym2612"
    },
    {
      "channel": 2,
      "note": 67,
      "start": 16.53,
      "duration": 0.1163,
      "velocity": 127,
      "chip": "ym2612"
    },
    {
      "channel": 1,
      "note": 49,
      "start": 16.6629,
      "duration": 0.1167,
      "velocity": 127,
      "chip": "ym2612"
    },
    {
      "channel": 2,
      "note": 79,
      "start": 16.6632,
      "duration": 0.1165,
      "velocity": 127,
      "chip": "ym2612"
    },
    {
      "channel": 0,
      "note": 33,
      "start": 16.7963,
      "duration": 0.3832,
      "velocity": 107,
      "chip": "ym2612"
    },
    {
      "channel": 1,
      "note": 49,
      "start": 16.7966,
      "duration": 0.0495,
      "velocity": 127,
      "chip": "ym2612"
    },
    {
      "channel": 2,
      "note": 79,
      "start": 16.7969,
      "duration": 0.1161,
      "velocity": 127,
      "chip": "ym2612"
    },
    {
      "channel": 1,
      "note": 49,
      "start": 16.863,
      "duration": 0.0499,
      "velocity": 127,
      "chip": "ym2612"
    },
    {
      "channel": 1,
      "note": 49,
      "start": 16.9297,
      "duration": 0.1166,
      "velocity": 127,
      "chip": "ym2612"
    },
    {
      "channel": 2,
      "note": 67,
      "start": 16.93,
      "duration": 0.1163,
      "velocity": 127,
      "chip": "ym2612"
    },
    {
      "channel": 1,
      "note": 49,
      "start": 17.0629,
      "duration": 0.1167,
      "velocity": 127,
      "chip": "ym2612"
    },
    {
      "channel": 2,
      "note": 79,
      "start": 17.0632,
      "duration": 0.1166,
      "velocity": 127,
      "chip": "ym2612"
    },
    {
      "channel": 0,
      "note": 33,
      "start": 17.1963,
      "duration": 0.3832,
      "velocity": 107,
      "chip": "ym2612"
    },
    {
      "channel": 1,
      "note": 49,
      "start": 17.1966,
      "duration": 0.0497,
      "velocity": 127,
      "chip": "ym2612"
    },
    {
      "channel": 2,
      "note": 67,
      "start": 17.1968,
      "duration": 0.1162,
      "velocity": 127,
      "chip": "ym2612"
    },
    {
      "channel": 1,
      "note": 49,
      "start": 17.2628,
      "duration": 0.0501,
      "velocity": 127,
      "chip": "ym2612"
    },
    {
      "channel": 1,
      "note": 49,
      "start": 17.3298,
      "duration": 0.1165,
      "velocity": 127,
      "chip": "ym2612"
    },
    {
      "channel": 2,
      "note": 79,
      "start": 17.33,
      "duration": 0.1163,
      "velocity": 127,
      "chip": "ym2612"
    },
    {
      "channel": 1,
      "note": 49,
      "start": 17.463,
      "duration": 0.1167,
      "velocity": 127,
      "chip": "ym2612"
    },
    {
      "channel": 2,
      "note": 67,
      "start": 17.4632,
      "duration": 0.1165,
      "velocity": 127,
      "chip": "ym2612"
    },
    {
      "channel": 0,
      "note": 33,
      "start": 17.5963,
      "duration": 0.3831,
      "velocity": 107,
      "chip": "ym2612"
    },
    {
      "channel": 1,
      "note": 49,
      "start": 17.5966,
      "duration": 0.1163,
      "velocity": 127,
      "chip": "ym2612"
    },
    {
      "channel": 2,
      "note": 79,
      "start": 17.5968,
      "duration": 0.1162,
      "velocity": 127,
      "chip": "ym2612"
    },
    {
      "channel": 1,
      "note": 49,
      "start": 17.7296,
      "duration": 0.1165,
      "velocity": 127,
      "chip": "ym2612"
    },
    {
      "channel": 2,
      "note": 79,
      "start": 17.7299,
      "duration": 0.1163,
      "velocity": 127,
      "chip": "ym2612"
    },
    {
      "channel": 1,
      "note": 49,
      "start": 17.863,
      "duration": 0.0498,
      "velocity": 127,
      "chip": "ym2612"
    },
    {
      "channel": 2,
      "note": 67,
      "start": 17.8632,
      "duration": 0.1164,
      "velocity": 127,
      "chip": "ym2612"
    },
    {
      "channel": 1,
      "note": 49,
      "start": 17.9296,
      "duration": 0.0499,
      "velocity": 127,
      "chip": "ym2612"
    },
    {
      "channel": 0,
      "note": 33,
      "start": 17.9963,
      "duration": 0.3832,
      "velocity": 107,
      "chip": "ym2612"
    },
    {
      "channel": 1,
      "note": 49,
      "start": 17.9966,
      "duration": 0.1162,
      "velocity": 127,
      "chip": "ym2612"
    },
    {
      "channel": 2,
      "note": 79,
      "start": 17.9969,
      "duration": 0.116,
      "velocity": 127,
      "chip": "ym2612"
    },
    {
      "channel": 1,
      "note": 49,
      "start": 18.1297,
      "duration": 0.1165,
      "velocity": 127,
      "chip": "ym2612"
    },
    {
      "channel": 2,
      "note": 67,
      "start": 18.13,
      "duration": 0.1163,
      "velocity": 127,
      "chip": "ym2612"
    },
    {
      "channel": 1,
      "note": 49,
      "start": 18.263,
      "duration": 0.1166,
      "velocity": 127,
      "chip": "ym2612"
    },
    {
      "channel": 2,
      "note": 79,
      "start": 18.2633,
      "duration": 0.1164,
      "velocity": 127,
      "chip": "ym2612"
    },
    {
      "channel": 0,
      "note": 33,
      "start": 18.3962,
      "duration": 0.3833,
      "velocity": 107,
      "chip": "ym2612"
    },
    {
      "channel": 1,
      "note": 49,
      "start": 18.3965,
      "duration": 0.1163,
      "velocity": 127,
      "chip": "ym2612"
    },
    {
      "channel": 2,
      "note": 79,
      "start": 18.3967,
      "duration": 0.1162,
      "velocity": 127,
      "chip": "ym2612"
    },
    {
      "channel": 1,
      "note": 49,
      "start": 18.5297,
      "duration": 0.1165,
      "velocity": 127,
      "chip": "ym2612"
    },
    {
      "channel": 2,
      "note": 67,
      "start": 18.53,
      "duration": 0.1163,
      "velocity": 127,
      "chip": "ym2612"
    },
    {
      "channel": 1,
      "note": 49,
      "start": 18.6629,
      "duration": 0.1167,
      "velocity": 127,
      "chip": "ym2612"
    },
    {
      "channel": 2,
      "note": 79,
      "start": 18.6632,
      "duration": 0.1165,
      "velocity": 127,
      "chip": "ym2612"
    },
    {
      "channel": 0,
      "note": 33,
      "start": 18.7963,
      "duration": 0.3833,
      "velocity": 107,
      "chip": "ym2612"
    },
    {
      "channel": 1,
      "note": 49,
      "start": 18.7966,
      "duration": 0.3831,
      "velocity": 127,
      "chip": "ym2612"
    },
    {
      "channel": 2,
      "note": 67,
      "start": 18.7968,
      "duration": 0.1161,
      "velocity": 127,
      "chip": "ym2612"
    },
    {
      "channel": 2,
      "note": 79,
      "start": 18.9296,
      "duration": 0.1167,
      "velocity": 127,
      "chip": "ym2612"
    },
    {
      "channel": 2,
      "note": 67,
      "start": 19.063,
      "duration": 0.1168,
      "velocity": 127,
      "chip": "ym2612"
    },
    {
      "channel": 0,
      "note": 33,
      "start": 19.1963,
      "duration": 0.3831,
      "velocity": 107,
      "chip": "ym2612"
    },
    {
      "channel": 1,
      "note": 49,
      "start": 19.1966,
      "duration": 0.0496,
      "velocity": 127,
      "chip": "ym2612"
    },
    {
      "channel": 2,
      "note": 79,
      "start": 19.1969,
      "duration": 0.116,
      "velocity": 127,
      "chip": "ym2612"
    },
    {
      "channel": 1,
      "note": 49,
      "start": 19.2629,
      "duration": 0.0499,
      "velocity": 127,
      "chip": "ym2612"
    },
    {
      "channel": 1,
      "note": 49,
      "start": 19.3296,
      "duration": 0.1165,
      "velocity": 127,
      "chip": "ym2612"
    },
    {
      "channel": 2,
      "note": 79,
      "start": 19.3299,
      "duration": 0.1163,
      "velocity": 127,
      "chip": "ym2612"
    },
    {
      "channel": 1,
      "note": 49,
      "start": 19.463,
      "duration": 0.1166,
      "velocity": 127,
      "chip": "ym2612"
    },
    {
      "channel": 2,
      "note": 67,
      "start": 19.4633,
      "duration": 0.1164,
      "velocity": 127,
      "chip": "ym2612"
    },
    {
      "channel": 0,
      "note": 33,
      "start": 19.5963,
      "duration": 0.3831,
      "velocity": 107,
      "chip": "ym2612"
    },
    {
      "channel": 1,
      "note": 49,
      "start": 19.5966,
      "duration": 0.0495,
      "velocity": 127,
      "chip": "ym2612"
    },
    {
      "channel": 2,
      "note": 79,
      "start": 19.5969,
      "duration": 0.116,
      "velocity": 127,
      "chip": "ym2612"
    },
    {
      "channel": 1,
      "note": 49,
      "start": 19.6629,
      "duration": 0.0499,
      "velocity": 127,
      "chip": "ym2612"
    },
    {
      "channel": 1,
      "note": 49,
      "start": 19.7296,
      "duration": 0.1165,
      "velocity": 127,
      "chip": "ym2612"
    },
    {
      "channel": 2,
      "note": 67,
      "start": 19.7299,
      "duration": 0.1164,
      "velocity": 127,
      "chip": "ym2612"
    },
    {
      "channel": 1,
      "note": 49,
      "start": 19.863,
      "duration": 0.1166,
      "velocity": 127,
      "chip": "ym2612"
    },
    {
      "channel": 2,
      "note": 79,
      "start": 19.8633,
      "duration": 0.1164,
      "velocity": 127,
      "chip": "ym2612"
    },
    {
      "channel": 0,
      "note": 33,
      "start": 19.9962,
      "duration": 0.3832,
      "velocity": 107,
      "chip": "ym2612"
    },
    {
      "channel": 1,
      "note": 49,
      "start": 19.9965,
      "duration": 0.1163,
      "velocity": 127,
      "chip": "ym2612"
    },
    {
      "channel": 2,
      "note": 79,
      "start": 19.9967,
      "duration": 0.1162,
      "velocity": 127,
      "chip": "ym2612"
    },
    {
      "channel": 1,
      "note": 49,
      "start": 20.1297,
      "duration": 0.1165,
      "velocity": 127,
      "chip": "ym2612"
    },
    {
      "channel": 2,
      "note": 67,
      "start": 20.13,
      "duration": 0.1163,
      "velocity": 127,
      "chip": "ym2612"
    },
    {
      "channel": 1,
      "note": 49,
      "start": 20.263,
      "duration": 0.0498,
      "velocity": 127,
      "chip": "ym2612"
    },
    {
      "channel": 2,
      "note": 79,
      "start": 20.2633,
      "duration": 0.1164,
      "velocity": 127,
      "chip": "ym2612"
    },
    {
      "channel": 1,
      "note": 49,
      "start": 20.3296,
      "duration": 0.0499,
      "velocity": 127,
      "chip": "ym2612"
    },
    {
      "channel": 0,
      "note": 33,
      "start": 20.3963,
      "duration": 0.3832,
      "velocity": 107,
      "chip": "ym2612"
    },
    {
      "channel": 1,
      "note": 49,
      "start": 20.3966,
      "duration": 0.1162,
      "velocity": 127,
      "chip": "ym2612"
    },
    {
      "channel": 2,
      "note": 67,
      "start": 20.3969,
      "duration": 0.1161,
      "velocity": 127,
      "chip": "ym2612"
    },
    {
      "channel": 1,
      "note": 49,
      "start": 20.5296,
      "duration": 0.1166,
      "velocity": 127,
      "chip": "ym2612"
    },
    {
      "channel": 2,
      "note": 79,
      "start": 20.5298,
      "duration": 0.1165,
      "velocity": 127,
      "chip": "ym2612"
    },
    {
      "channel": 1,
      "note": 49,
      "start": 20.6629,
      "duration": 0.1167,
      "velocity": 127,
      "chip": "ym2612"
    },
    {
      "channel": 2,
      "note": 67,
      "start": 20.6632,
      "duration": 0.1165,
      "velocity": 127,
      "chip": "ym2612"
    },
    {
      "channel": 0,
      "note": 33,
      "start": 20.7963,
      "duration": 0.3833,
      "velocity": 107,
      "chip": "ym2612"
    },
    {
      "channel": 1,
      "note": 49,
      "start": 20.7966,
      "duration": 0.1163,
      "velocity": 127,
      "chip": "ym2612"
    },
    {
      "channel": 2,
      "note": 79,
      "start": 20.7968,
      "duration": 0.1162,
      "velocity": 127,
      "chip": "ym2612"
    },
    {
      "channel": 1,
      "note": 49,
      "start": 20.9296,
      "duration": 0.1166,
      "velocity": 127,
      "chip": "ym2612"
    },
    {
      "channel": 2,
      "note": 79,
      "start": 20.9299,
      "duration": 0.1165,
      "velocity": 127,
      "chip": "ym2612"
    },
    {
      "channel": 1,
      "note": 49,
      "start": 21.063,
      "duration": 0.1167,
      "velocity": 127,
      "chip": "ym2612"
    },
    {
      "channel": 2,
      "note": 67,
      "start": 21.0632,
      "duration": 0.1165,
      "velocity": 127,
      "chip": "ym2612"
    },
    {
      "channel": 0,
      "note": 33,
      "start": 21.1963,
      "duration": 0.3831,
      "velocity": 107,
      "chip": "ym2612"
    },
    {
      "channel": 1,
      "note": 49,
      "start": 21.1966,
      "duration": 0.0495,
      "velocity": 127,
      "chip": "ym2612"
    },
    {
      "channel": 2,
      "note": 79,
      "start": 21.1969,
      "duration": 0.1161,
      "velocity": 127,
      "chip": "ym2612"
    },
    {
      "channel": 1,
      "note": 49,
      "start": 21.2629,
      "duration": 0.05,
      "velocity": 127,
      "chip": "ym2612"
    },
    {
      "channel": 1,
      "note": 49,
      "start": 21.3296,
      "duration": 0.1165,
      "velocity": 127,
      "chip": "ym2612"
    },
    {
      "channel": 2,
      "note": 67,
      "start": 21.3299,
      "duration": 0.1163,
      "velocity": 127,
      "chip": "ym2612"
    },
    {
      "channel": 1,
      "note": 49,
      "start": 21.463,
      "duration": 0.1166,
      "velocity": 127,
      "chip": "ym2612"
    },
    {
      "channel": 2,
      "note": 79,
      "start": 21.4632,
      "duration": 0.1164,
      "velocity": 127,
      "chip": "ym2612"
    },
    {
      "channel": 0,
      "note": 33,
      "start": 21.5963,
      "duration": 0.3831,
      "velocity": 107,
      "chip": "ym2612"
    },
    {
      "channel": 1,
      "note": 49,
      "start": 21.5966,
      "duration": 0.0495,
      "velocity": 127,
      "chip": "ym2612"
    },
    {
      "channel": 2,
      "note": 79,
      "start": 21.5969,
      "duration": 0.116,
      "velocity": 127,
      "chip": "ym2612"
    },
    {
      "channel": 1,
      "note": 49,
      "start": 21.6629,
      "duration": 0.0499,
      "velocity": 127,
      "chip": "ym2612"
    },
    {
      "channel": 1,
      "note": 49,
      "start": 21.7296,
      "duration": 0.1165,
      "velocity": 127,
      "chip": "ym2612"
    },
    {
      "channel": 2,
      "note": 67,
      "start": 21.7299,
      "duration": 0.1164,
      "velocity": 127,
      "chip": "ym2612"
    },
    {
      "channel": 1,
      "note": 49,
      "start": 21.863,
      "duration": 0.1166,
      "velocity": 127,
      "chip": "ym2612"
    },
    {
      "channel": 2,
      "note": 79,
      "start": 21.8633,
      "duration": 0.1164,
      "velocity": 127,
      "chip": "ym2612"
    },
    {
      "channel": 0,
      "note": 33,
      "start": 21.9962,
      "duration": 0.3832,
      "velocity": 107,
      "chip": "ym2612"
    },
    {
      "channel": 1,
      "note": 49,
      "start": 21.9965,
      "duration": 0.1163,
      "velocity": 127,
      "chip": "ym2612"
    },
    {
      "channel": 2,
      "note": 67,
      "start": 21.9967,
      "duration": 0.1162,
      "velocity": 127,
      "chip": "ym2612"
    },
    {
      "channel": 1,
      "note": 49,
      "start": 22.1297,
      "duration": 0.1165,
      "velocity": 127,
      "chip": "ym2612"
    },
    {
      "channel": 2,
      "note": 79,
      "start": 22.13,
      "duration": 0.1163,
      "velocity": 127,
      "chip": "ym2612"
    },
    {
      "channel": 1,
      "note": 49,
      "start": 22.263,
      "duration": 0.0498,
      "velocity": 127,
      "chip": "ym2612"
    },
    {
      "channel": 2,
      "note": 67,
      "start": 22.2633,
      "duration": 0.1164,
      "velocity": 127,
      "chip": "ym2612"
    },
    {
      "channel": 1,
      "note": 49,
      "start": 22.3296,
      "duration": 0.0499,
      "velocity": 127,
      "chip": "ym2612"
    },
    {
      "channel": 0,
      "note": 33,
      "start": 22.3963,
      "duration": 0.3832,
      "velocity": 107,
      "chip": "ym2612"
    },
    {
      "channel": 1,
      "note": 49,
      "start": 22.3966,
      "duration": 0.1162,
      "velocity": 127,
      "chip": "ym2612"
    },
    {
      "channel": 2,
      "note": 79,
      "start": 22.3969,
      "duration": 0.1161,
      "velocity": 127,
      "chip": "ym2612"
    },
    {
      "channel": 1,
      "note": 49,
      "start": 22.5296,
      "duration": 0.1166,
      "velocity": 127,
      "chip": "ym2612"
    },
    {
      "channel": 2,
      "note": 79,
      "start": 22.5298,
      "duration": 0.1165,
      "velocity": 127,
      "chip": "ym2612"
    },
    {
      "channel": 1,
      "note": 49,
      "start": 22.6629,
      "duration": 0.1167,
      "velocity": 127,
      "chip": "ym2612"
    },
    {
      "channel": 2,
      "note": 67,
      "start": 22.6632,
      "duration": 0.1165,
      "velocity": 127,
      "chip": "ym2612"
    },
    {
      "channel": 0,
      "note": 33,
      "start": 22.7962,
      "duration": 0.3833,
      "velocity": 107,
      "chip": "ym2612"
    },
    {
      "channel": 1,
      "note": 49,
      "start": 22.7965,
      "duration": 0.1163,
      "velocity": 127,
      "chip": "ym2612"
    },
    {
      "channel": 2,
      "note": 79,
      "start": 22.7967,
      "duration": 0.1162,
      "velocity": 127,
      "chip": "ym2612"
    },
    {
      "channel": 1,
      "note": 49,
      "start": 22.9296,
      "duration": 0.1167,
      "velocity": 127,
      "chip": "ym2612"
    },
    {
      "channel": 2,
      "note": 67,
      "start": 22.9298,
      "duration": 0.1165,
      "velocity": 127,
      "chip": "ym2612"
    },
    {
      "channel": 1,
      "note": 49,
      "start": 23.0629,
      "duration": 0.1167,
      "velocity": 127,
      "chip": "ym2612"
    },
    {
      "channel": 2,
      "note": 79,
      "start": 23.0632,
      "duration": 0.1166,
      "velocity": 127,
      "chip": "ym2612"
    },
    {
      "channel": 0,
      "note": 33,
      "start": 23.1963,
      "duration": 0.3832,
      "velocity": 107,
      "chip": "ym2612"
    },
    {
      "channel": 1,
      "note": 49,
      "start": 23.1966,
      "duration": 0.0497,
      "velocity": 127,
      "chip": "ym2612"
    },
    {
      "channel": 2,
      "note": 79,
      "start": 23.1968,
      "duration": 0.1162,
      "velocity": 127,
      "chip": "ym2612"
    },
    {
      "channel": 1,
      "note": 49,
      "start": 23.2628,
      "duration": 0.0501,
      "velocity": 127,
      "chip": "ym2612"
    },
    {
      "channel": 1,
      "note": 49,
      "start": 23.3298,
      "duration": 0.1165,
      "velocity": 127,
      "chip": "ym2612"
    },
    {
      "channel": 2,
      "note": 67,
      "start": 23.33,
      "duration": 0.1163,
      "velocity": 127,
      "chip": "ym2612"
    },
    {
      "channel": 1,
      "note": 49,
      "start": 23.463,
      "duration": 0.1167,
      "velocity": 127,
      "chip": "ym2612"
    },
    {
      "channel": 2,
      "note": 79,
      "start": 23.4632,
      "duration": 0.1165,
      "velocity": 127,
      "chip": "ym2612"
    },
    {
      "channel": 0,
      "note": 33,
      "start": 23.5963,
      "duration": 0.3832,
      "velocity": 107,
      "chip": "ym2612"
    },
    {
      "channel": 1,
      "note": 49,
      "start": 23.5966,
      "duration": 0.0497,
      "velocity": 127,
      "chip": "ym2612"
    },
    {
      "channel": 2,
      "note": 67,
      "start": 23.5968,
      "duration": 0.1162,
      "velocity": 127,
      "chip": "ym2612"
    },
    {
      "channel": 1,
      "note": 49,
      "start": 23.6628,
      "duration": 0.0501,
      "velocity": 127,
      "chip": "ym2612"
    },
    {
      "channel": 1,
      "note": 49,
      "start": 23.7298,
      "duration": 0.1165,
      "velocity": 127,
      "chip": "ym2612"
    },
    {
      "channel": 2,
      "note": 79,
      "start": 23.73,
      "duration": 0.1163,
      "velocity": 127,
      "chip": "ym2612"
    },
    {
      "channel": 1,
      "note": 49,
      "start": 23.863,
      "duration": 0.1167,
      "velocity": 127,
      "chip": "ym2612"
    },
    {
      "channel": 2,
      "note": 67,
      "start": 23.8632,
      "duration": 0.1165,
      "velocity": 127,
      "chip": "ym2612"
    },
    {
      "channel": 0,
      "note": 33,
      "start": 23.9963,
      "duration": 0.3832,
      "velocity": 107,
      "chip": "ym2612"
    },
    {
      "channel": 1,
      "note": 49,
      "start": 23.9966,
      "duration": 0.1163,
      "velocity": 127,
      "chip": "ym2612"
    },
    {
      "channel": 2,
      "note": 79,
      "start": 23.9968,
      "duration": 0.1162,
      "velocity": 127,
      "chip": "ym2612"
    },
    {
      "channel": 1,
      "note": 49,
      "start": 24.1296,
      "duration": 0.1166,
      "velocity": 127,
      "chip": "ym2612"
    },
    {
      "channel": 2,
      "note": 79,
      "start": 24.1299,
      "duration": 0.1165,
      "velocity": 127,
      "chip": "ym2612"
    },
    {
      "channel": 1,
      "note": 49,
      "start": 24.263,
      "duration": 0.0499,
      "velocity": 127,
      "chip": "ym2612"
    },
    {
      "channel": 2,
      "note": 67,
      "start": 24.2632,
      "duration": 0.1165,
      "velocity": 127,
      "chip": "ym2612"
    },
    {
      "channel": 1,
      "note": 49,
      "start": 24.3296,
      "duration": 0.0501,
      "velocity": 127,
      "chip": "ym2612"
    },
    {
      "channel": 0,
      "note": 33,
      "start": 24.3963,
      "duration": 0.3832,
      "velocity": 107,
      "chip": "ym2612"
    },
    {
      "channel": 1,
      "note": 49,
      "start": 24.3966,
      "duration": 0.1163,
      "velocity": 127,
      "chip": "ym2612"
    },
    {
      "channel": 2,
      "note": 79,
      "start": 24.3968,
      "duration": 0.1162,
      "velocity": 127,
      "chip": "ym2612"
    },
    {
      "channel": 1,
      "note": 49,
      "start": 24.5296,
      "duration": 0.1166,
      "velocity": 127,
      "chip": "ym2612"
    },
    {
      "channel": 2,
      "note": 79,
      "start": 24.5299,
      "duration": 0.1165,
      "velocity": 127,
      "chip": "ym2612"
    },
    {
      "channel": 1,
      "note": 49,
      "start": 24.663,
      "duration": 0.1167,
      "velocity": 127,
      "chip": "ym2612"
    },
    {
      "channel": 2,
      "note": 67,
      "start": 24.6632,
      "duration": 0.1165,
      "velocity": 127,
      "chip": "ym2612"
    },
    {
      "channel": 0,
      "note": 33,
      "start": 24.7963,
      "duration": 0.3831,
      "velocity": 107,
      "chip": "ym2612"
    },
    {
      "channel": 1,
      "note": 49,
      "start": 24.7966,
      "duration": 0.1164,
      "velocity": 127,
      "chip": "ym2612"
    },
    {
      "channel": 2,
      "note": 79,
      "start": 24.7968,
      "duration": 0.1162,
      "velocity": 127,
      "chip": "ym2612"
    },
    {
      "channel": 1,
      "note": 49,
      "start": 24.9296,
      "duration": 0.1165,
      "velocity": 127,
      "chip": "ym2612"
    },
    {
      "channel": 2,
      "note": 79,
      "start": 24.9299,
      "duration": 0.1163,
      "velocity": 127,
      "chip": "ym2612"
    },
    {
      "channel": 1,
      "note": 49,
      "start": 25.063,
      "duration": 0.1166,
      "velocity": 127,
      "chip": "ym2612"
    },
    {
      "channel": 2,
      "note": 67,
      "start": 25.0632,
      "duration": 0.1164,
      "velocity": 127,
      "chip": "ym2612"
    },
    {
      "channel": 0,
      "note": 33,
      "start": 25.1963,
      "duration": 0.3832,
      "velocity": 107,
      "chip": "ym2612"
    },
    {
      "channel": 1,
      "note": 49,
      "start": 25.1966,
      "duration": 0.383,
      "velocity": 127,
      "chip": "ym2612"
    },
    {
      "channel": 2,
      "note": 79,
      "start": 25.1969,
      "duration": 0.116,
      "velocity": 127,
      "chip": "ym2612"
    },
    {
      "channel": 2,
      "note": 79,
      "start": 25.3297,
      "duration": 0.1166,
      "velocity": 127,
      "chip": "ym2612"
    },
    {
      "channel": 2,
      "note": 67,
      "start": 25.463,
      "duration": 0.1167,
      "velocity": 127,
      "chip": "ym2612"
    },
    {
      "channel": 0,
      "note": 33,
      "start": 25.5964,
      "duration": 0.2498,
      "velocity": 107,
      "chip": "ym2612"
    },
    {
      "channel": 1,
      "note": 49,
      "start": 25.5967,
      "duration": 0.0495,
      "velocity": 127,
      "chip": "ym2612"
    },
    {
      "channel": 2,
      "note": 79,
      "start": 25.5969,
      "duration": 0.0494,
      "velocity": 127,
      "chip": "ym2612"
    },
    {
      "channel": 1,
      "note": 49,
      "start": 25.6629,
      "duration": 0.0499,
      "velocity": 127,
      "chip": "ym2612"
    },
    {
      "channel": 2,
      "note": 79,
      "start": 25.6632,
      "duration": 0.0498,
      "velocity": 127,
      "chip": "ym2612"
    },
    {
      "channel": 1,
      "note": 49,
      "start": 25.7297,
      "duration": 0.1166,
      "velocity": 127,
      "chip": "ym2612"
    },
    {
      "channel": 2,
      "note": 79,
      "start": 25.73,
      "duration": 0.1165,
      "velocity": 127,
      "chip": "ym2612"
    },
    {
      "channel": 0,
      "note": 33,
      "start": 25.863,
      "duration": 0.1165,
      "velocity": 107,
      "chip": "ym2612"
    },
    {
      "channel": 1,
      "note": 49,
      "start": 25.8632,
      "duration": 0.1164,
      "velocity": 127,
      "chip": "ym2612"
    },
    {
      "channel": 2,
      "note": 79,
      "start": 25.8635,
      "duration": 0.1163,
      "velocity": 127,
      "chip": "ym2612"
    },
    {
      "channel": 0,
      "note": 33,
      "start": 25.9964,
      "duration": 0.3831,
      "velocity": 107,
      "chip": "ym2612"
    },
    {
      "channel": 1,
      "note": 49,
      "start": 25.9967,
      "duration": 0.0496,
      "velocity": 127,
      "chip": "ym2612"
    },
    {
      "channel": 2,
      "note": 79,
      "start": 25.9969,
      "duration": 0.0494,
      "velocity": 127,
      "chip": "ym2612"
    },
    {
      "channel": 1,
      "note": 49,
      "start": 26.0629,
      "duration": 0.0499,
      "velocity": 127,
      "chip": "ym2612"
    },
    {
      "channel": 2,
      "note": 79,
      "start": 26.0632,
      "duration": 0.0498,
      "velocity": 127,
      "chip": "ym2612"
    },
    {
      "channel": 1,
      "note": 49,
      "start": 26.1297,
      "duration": 0.1166,
      "velocity": 127,
      "chip": "ym2612"
    },
    {
      "channel": 2,
      "note": 79,
      "start": 26.13,
      "duration": 0.1164,
      "velocity": 127,
      "chip": "ym2612"
    },
    {
      "channel": 1,
      "note": 49,
      "start": 26.263,
      "duration": 0.1167,
      "velocity": 127,
      "chip": "ym2612"
    },
    {
      "channel": 2,
      "note": 79,
      "start": 26.2632,
      "duration": 0.1165,
      "velocity": 127,
      "chip": "ym2612"
    },
    {
      "channel": 0,
      "note": 33,
      "start": 26.3963,
      "duration": 0.1166,
      "velocity": 107,
      "chip": "ym2612"
    },
    {
      "channel": 1,
      "note": 49,
      "start": 26.3966,
      "duration": 0.1165,
      "velocity": 127,
      "chip": "ym2612"
    },
    {
      "channel": 2,
      "note": 79,
      "start": 26.3968,
      "duration": 0.1163,
      "velocity": 127,
      "chip": "ym2612"
    },
    {
      "channel": 0,
      "note": 33,
      "start": 26.5296,
      "duration": 0.1165,
      "velocity": 107,
      "chip": "ym2612"
    },
    {
      "channel": 1,
      "note": 54,
      "start": 26.5299,
      "duration": 0.1163,
      "velocity": 127,
      "chip": "ym2612"
    },
    {
      "channel": 2,
      "note": 67,
      "start": 26.5301,
      "duration": 0.1162,
      "velocity": 127,
      "chip": "ym2612"
    },
    {
      "channel": 0,
      "note": 33,
      "start": 26.663,
      "duration": 0.1164,
      "velocity": 107,
      "chip": "ym2612"
    },
    {
      "channel": 1,
      "note": 54,
      "start": 26.6633,
      "duration": 0.1163,
      "velocity": 127,
      "chip": "ym2612"
    },
    {
      "channel": 2,
      "note": 67,
      "start": 26.6635,
      "duration": 0.1161,
      "velocity": 127,
      "chip": "ym2612"
    },
    {
      "channel": 0,
      "note": 33,
      "start": 26.7963,
      "duration": 0.1164,
      "velocity": 107,
      "chip": "ym2612"
    },
    {
      "channel": 1,
      "note": 54,
      "start": 26.7966,
      "duration": 0.1163,
      "velocity": 127,
      "chip": "ym2612"
    },
    {
      "channel": 2,
      "note": 67,
      "start": 26.7969,
      "duration": 0.1161,
      "velocity": 127,
      "chip": "ym2612"
    },
    {
      "channel": 0,
      "note": 33,
      "start": 26.9297,
      "duration": 0.1164,
      "velocity": 107,
      "chip": "ym2612"
    },
    {
      "channel": 1,
      "note": 54,
      "start": 26.93,
      "duration": 0.1163,
      "velocity": 127,
      "chip": "ym2612"
    },
    {
      "channel": 2,
      "note": 67,
      "start": 26.9302,
      "duration": 0.1161,
      "velocity": 127,
      "chip": "ym2612"
    },
    {
      "channel": 0,
      "note": 33,
      "start": 27.063,
      "duration": 0.1164,
      "velocity": 107,
      "chip": "ym2612"
    },
    {
      "channel": 1,
      "note": 54,
      "start": 27.0633,
      "duration": 0.1163,
      "velocity": 127,
      "chip": "ym2612"
    },
    {
      "channel": 2,
      "note": 67,
      "start": 27.0635,
      "duration": 0.1161,
      "velocity": 127,
      "chip": "ym2612"
    },
    {
      "channel": 0,
      "note": 33,
      "start": 27.1963,
      "duration": 0.2498,
      "velocity": 107,
      "chip": "ym2612"
    },
    {
      "channel": 1,
      "note": 54,
      "start": 27.1966,
      "duration": 0.2496,
      "velocity": 127,
      "chip": "ym2612"
    },
    {
      "channel": 2,
      "note": 67,
      "start": 27.1969,
      "duration": 0.2495,
      "velocity": 127,
      "chip": "ym2612"
    },
    {
      "channel": 0,
      "note": 33,
      "start": 27.4629,
      "duration": 0.2499,
      "velocity": 107,
      "chip": "ym2612"
    },
    {
      "channel": 1,
      "note": 49,
      "start": 27.4632,
      "duration": 0.2498,
      "velocity": 127,
      "chip": "ym2612"
    },
    {
      "channel": 2,
      "note": 79,
      "start": 27.4634,
      "duration": 0.2497,
      "velocity": 127,
      "chip": "ym2612"
    },
    {
      "channel": 0,
      "note": 33,
      "start": 27.7298,
      "duration": 0.1165,
      "velocity": 107,
      "chip": "ym2612"
    },
    {
      "channel": 1,
      "note": 49,
      "start": 27.73,
      "duration": 0.1163,
      "velocity": 127,
      "chip": "ym2612"
    },
    {
      "channel": 2,
      "note": 79,
      "start": 27.7303,
      "duration": 0.1161,
      "velocity": 127,
      "chip": "ym2612"
    },
    {
      "channel": 0,
      "note": 33,
      "start": 27.863,
      "duration": 0.1164,
      "velocity": 107,
      "chip": "ym2612"
    },
    {
      "channel": 1,
      "note": 49,
      "start": 27.8633,
      "duration": 0.1162,
      "velocity": 127,
      "chip": "ym2612"
    },
    {
      "channel": 2,
      "note": 79,
      "start": 27.8635,
      "duration": 0.1161,
      "velocity": 127,
      "chip": "ym2612"
    },
    {
      "channel": 0,
      "note": 33,
      "start": 27.9963,
      "duration": 0.1164,
      "velocity": 107,
      "chip": "ym2612"
    },
    {
      "channel": 1,
      "note": 49,
      "start": 27.9966,
      "duration": 0.1163,
      "velocity": 127,
      "chip": "ym2612"
    },
    {
      "channel": 2,
      "note": 79,
      "start": 27.9969,
      "duration": 0.1161,
      "velocity": 127,
      "chip": "ym2612"
    },
    {
      "channel": 0,
      "note": 33,
      "start": 28.1297,
      "duration": 0.1164,
      "velocity": 107,
      "chip": "ym2612"
    },
    {
      "channel": 1,
      "note": 54,
      "start": 28.13,
      "duration": 0.1163,
      "velocity": 127,
      "chip": "ym2612"
    },
    {
      "channel": 2,
      "note": 67,
      "start": 28.1302,
      "duration": 0.1161,
      "velocity": 127,
      "chip": "ym2612"
    },
    {
      "channel": 0,
      "note": 33,
      "start": 28.2629,
      "duration": 0.1165,
      "velocity": 107,
      "chip": "ym2612"
    },
    {
      "channel": 1,
      "note": 54,
      "start": 28.2632,
      "duration": 0.1164,
      "velocity": 127,
      "chip": "ym2612"
    },
    {
      "channel": 2,
      "note": 67,
      "start": 28.2634,
      "duration": 0.1162,
      "velocity": 127,
      "chip": "ym2612"
    },
    {
      "channel": 0,
      "note": 33,
      "start": 28.3963,
      "duration": 0.3832,
      "velocity": 107,
      "chip": "ym2612"
    },
    {
      "channel": 1,
      "note": 54,
      "start": 28.3966,
      "duration": 0.3831,
      "velocity": 127,
      "chip": "ym2612"
    },
    {
      "channel": 2,
      "note": 67,
      "start": 28.3969,
      "duration": 0.3829,
      "velocity": 127,
      "chip": "ym2612"
    },
    {
      "channel": 0,
      "note": 33,
      "start": 28.7965,
      "duration": 0.2497,
      "velocity": 107,
      "chip": "ym2612"
    },
    {
      "channel": 1,
      "note": 54,
      "start": 28.7967,
      "duration": 0.0495,
      "velocity": 127,
      "chip": "ym2612"
    },
    {
      "channel": 2,
      "note": 67,
      "start": 28.797,
      "duration": 0.116,
      "velocity": 127,
      "chip": "ym2612"
    },
    {
      "channel": 1,
      "note": 49,
      "start": 28.8629,
      "duration": 0.05,
      "velocity": 127,
      "chip": "ym2612"
    },
    {
      "channel": 1,
      "note": 49,
      "start": 28.9296,
      "duration": 0.1167,
      "velocity": 127,
      "chip": "ym2612"
    },
    {
      "channel": 2,
      "note": 79,
      "start": 28.9299,
      "duration": 0.1165,
      "velocity": 127,
      "chip": "ym2612"
    },
    {
      "channel": 0,
      "note": 33,
      "start": 29.063,
      "duration": 0.1166,
      "velocity": 107,
      "chip": "ym2612"
    },
    {
      "channel": 1,
      "note": 49,
      "start": 29.0632,
      "duration": 0.1165,
      "velocity": 127,
      "chip": "ym2612"
    },
    {
      "channel": 2,
      "note": 67,
      "start": 29.0635,
      "duration": 0.1163,
      "velocity": 127,
      "chip": "ym2612"
    },
    {
      "channel": 0,
      "note": 33,
      "start": 29.1963,
      "duration": 0.2499,
      "velocity": 107,
      "chip": "ym2612"
    },
    {
      "channel": 1,
      "note": 49,
      "start": 29.1966,
      "duration": 0.0497,
      "velocity": 127,
      "chip": "ym2612"
    },
    {
      "channel": 2,
      "note": 79,
      "start": 29.1968,
      "duration": 0.1162,
      "velocity": 127,
      "chip": "ym2612"
    },
    {
      "channel": 1,
      "note": 49,
      "start": 29.2629,
      "duration": 0.05,
      "velocity": 127,
      "chip": "ym2612"
    },
    {
      "channel": 1,
      "note": 49,
      "start": 29.3296,
      "duration": 0.1167,
      "velocity": 127,
      "chip": "ym2612"
    },
    {
      "channel": 2,
      "note": 67,
      "start": 29.3299,
      "duration": 0.1165,
      "velocity": 127,
      "chip": "ym2612"
    },
    {
      "channel": 0,
      "note": 33,
      "start": 29.463,
      "duration": 0.1166,
      "velocity": 107,
      "chip": "ym2612"
    },
    {
      "channel": 1,
      "note": 49,
      "start": 29.4632,
      "duration": 0.1165,
      "velocity": 127,
      "chip": "ym2612"
    },
    {
      "channel": 2,
      "note": 79,
      "start": 29.4635,
      "duration": 0.1163,
      "velocity": 127,
      "chip": "ym2612"
    },
    {
      "channel": 0,
      "note": 33,
      "start": 29.5963,
      "duration": 0.2498,
      "velocity": 107,
      "chip": "ym2612"
    },
    {
      "channel": 1,
      "note": 49,
      "start": 29.5966,
      "duration": 0.1162,
      "velocity": 127,
      "chip": "ym2612"
    },
    {
      "channel": 2,
      "note": 79,
      "start": 29.5969,
      "duration": 0.116,
      "velocity": 127,
      "chip": "ym2612"
    },
    {
      "channel": 1,
      "note": 49,
      "start": 29.7296,
      "duration": 0.1166,
      "velocity": 127,
      "chip": "ym2612"
    },
    {
      "channel": 2,
      "note": 67,
      "start": 29.7299,
      "duration": 0.1164,
      "velocity": 127,
      "chip": "ym2612"
    },
    {
      "channel": 0,
      "note": 33,
      "start": 29.863,
      "duration": 0.1166,
      "velocity": 107,
      "chip": "ym2612"
    },
    {
      "channel": 1,
      "note": 49,
      "start": 29.8633,
      "duration": 0.0495,
      "velocity": 127,
      "chip": "ym2612"
    },
    {
      "channel": 2,
      "note": 79,
      "start": 29.8635,
      "duration": 0.1162,
      "velocity": 127,
      "chip": "ym2612"
    },
    {
      "channel": 1,
      "note": 49,
      "start": 29.9296,
      "duration": 0.0501,
      "velocity": 127,
      "chip": "ym2612"
    },
    {
      "channel": 0,
      "note": 33,
      "start": 29.9963,
      "duration": 0.2498,
      "velocity": 107,
      "chip": "ym2612"
    },
    {
      "channel": 1,
      "note": 49,
      "start": 29.9966,
      "duration": 0.1162,
      "velocity": 127,
      "chip": "ym2612"
    },
    {
      "channel": 2,
      "note": 67,
      "start": 29.9968,
      "duration": 0.1161,
      "velocity": 127,
      "chip": "ym2612"
    },
    {
      "channel": 1,
      "note": 49,
      "start": 30.1296,
      "duration": 0.1165,
      "velocity": 127,
      "chip": "ym2612"
    },
    {
      "channel": 2,
      "note": 79,
      "start": 30.1299,
      "duration": 0.1164,
      "velocity": 127,
      "chip": "ym2612"
    },
    {
      "channel": 0,
      "note": 33,
      "start": 30.263,
      "duration": 0.1166,
      "velocity": 107,
      "chip": "ym2612"
    },
    {
      "channel": 1,
      "note": 49,
      "start": 30.2633,
      "duration": 0.1164,
      "velocity": 127,
      "chip": "ym2612"
    },
    {
      "channel": 2,
      "note": 67,
      "start": 30.2635,
      "duration": 0.1162,
      "velocity": 127,
      "chip": "ym2612"
    },
    {
      "channel": 0,
      "note": 33,
      "start": 30.3963,
      "duration": 0.2498,
      "velocity": 107,
      "chip": "ym2612"
    },
    {
      "channel": 1,
      "note": 49,
      "start": 30.3966,
      "duration": 0.1162,
      "velocity": 127,
      "chip": "ym2612"
    },
    {
      "channel": 2,
      "note": 79,
      "start": 30.3969,
      "duration": 0.116,
      "velocity": 127,
      "chip": "ym2612"
    },
    {
      "channel": 1,
      "note": 49,
      "start": 30.5296,
      "duration": 0.1166,
      "velocity": 127,
      "chip": "ym2612"
    },
    {
      "channel": 2,
      "note": 79,
      "start": 30.5299,
      "duration": 0.1165,
      "velocity": 127,
      "chip": "ym2612"
    },
    {
      "channel": 0,
      "note": 33,
      "start": 30.663,
      "duration": 0.1164,
      "velocity": 107,
      "chip": "ym2612"
    },
    {
      "channel": 1,
      "note": 49,
      "start": 30.6633,
      "duration": 0.1163,
      "velocity": 127,
      "chip": "ym2612"
    },
    {
      "channel": 2,
      "note": 67,
      "start": 30.6635,
      "duration": 0.1161,
      "velocity": 127,
      "chip": "ym2612"
    },
    {
      "channel": 0,
      "note": 33,
      "start": 30.7963,
      "duration": 0.2498,
      "velocity": 107,
      "chip": "ym2612"
    },
    {
      "channel": 1,
      "note": 49,
      "start": 30.7966,
      "duration": 0.0495,
      "velocity": 127,
      "chip": "ym2612"
    },
    {
      "channel": 2,
      "note": 79,
      "start": 30.7969,
      "duration": 0.116,
      "velocity": 127,
      "chip": "ym2612"
    },
    {
      "channel": 1,
      "note": 49,
      "start": 30.8629,
      "duration": 0.0499,
      "velocity": 127,
      "chip": "ym2612"
    },
    {
      "channel": 1,
      "note": 49,
      "start": 30.9296,
      "duration": 0.1166,
      "velocity": 127,
      "chip": "ym2612"
    },
    {
      "channel": 2,
      "note": 67,
      "start": 30.9299,
      "duration": 0.1164,
      "velocity": 127,
      "chip": "ym2612"
    },
    {
      "channel": 0,
      "note": 33,
      "start": 31.063,
      "duration": 0.1164,
      "velocity": 107,
      "chip": "ym2612"
    },
    {
      "channel": 1,
      "note": 49,
      "start": 31.0633,
      "duration": 0.1163,
      "velocity": 127,
      "chip": "ym2612"
    },
    {
      "channel": 2,
      "note": 79,
      "start": 31.0635,
      "duration": 0.1161,
      "velocity": 127,
      "chip": "ym2612"
    },
    {
      "channel": 0,
      "note": 33,
      "start": 31.1963,
      "duration": 0.2498,
      "velocity": 107,
      "chip": "ym2612"
    },
    {
      "channel": 1,
      "note": 49,
      "start": 31.1966,
      "duration": 0.0495,
      "velocity": 127,
      "chip": "ym2612"
    },
    {
      "channel": 2,
      "note": 79,
      "start": 31.1969,
      "duration": 0.116,
      "velocity": 127,
      "chip": "ym2612"
    },
    {
      "channel": 1,
      "note": 49,
      "start": 31.2629,
      "duration": 0.0499,
      "velocity": 127,
      "chip": "ym2612"
    },
    {
      "channel": 1,
      "note": 49,
      "start": 31.3296,
      "duration": 0.1166,
      "velocity": 127,
      "chip": "ym2612"
    },
    {
      "channel": 2,
      "note": 67,
      "start": 31.3299,
      "duration": 0.1165,
      "velocity": 127,
      "chip": "ym2612"
    },
    {
      "channel": 0,
      "note": 33,
      "start": 31.463,
      "duration": 0.1164,
      "velocity": 107,
      "chip": "ym2612"
    },
    {
      "channel": 1,
      "note": 49,
      "start": 31.4633,
      "duration": 0.1163,
      "velocity": 127,
      "chip": "ym2612"
    },
    {
      "channel": 2,
      "note": 79,
      "start": 31.4635,
      "duration": 0.1161,
      "velocity": 127,
      "chip": "ym2612"
    },
    {
      "channel": 0,
      "note": 33,
      "start": 31.5963,
      "duration": 0.2498,
      "velocity": 107,
      "chip": "ym2612"
    },
    {
      "channel": 1,
      "note": 49,
      "start": 31.5966,
      "duration": 0.1162,
      "velocity": 127,
      "chip": "ym2612"
    },
    {
      "channel": 2,
      "note": 67,
      "start": 31.5969,
      "duration": 0.1161,
      "velocity": 127,
      "chip": "ym2612"
    },
    {
      "channel": 1,
      "note": 49,
      "start": 31.7297,
      "duration": 0.1166,
      "velocity": 127,
      "chip": "ym2612"
    },
    {
      "channel": 2,
      "note": 79,
      "start": 31.73,
      "duration": 0.1164,
      "velocity": 127,
      "chip": "ym2612"
    },
    {
      "channel": 0,
      "note": 33,
      "start": 31.863,
      "duration": 0.1164,
      "velocity": 107,
      "chip": "ym2612"
    },
    {
      "channel": 1,
      "note": 49,
      "start": 31.8633,
      "duration": 0.0495,
      "velocity": 127,
      "chip": "ym2612"
    },
    {
      "channel": 2,
      "note": 67,
      "start": 31.8635,
      "duration": 0.1161,
      "velocity": 127,
      "chip": "ym2612"
    },
    {
      "channel": 1,
      "note": 49,
      "start": 31.9296,
      "duration": 0.0499,
      "velocity": 127,
      "chip": "ym2612"
    },
    {
      "channel": 0,
      "note": 33,
      "start": 31.9963,
      "duration": 0.2498,
      "velocity": 107,
      "chip": "ym2612"
    },
    {
      "channel": 1,
      "note": 49,
      "start": 31.9966,
      "duration": 0.1162,
      "velocity": 127,
      "chip": "ym2612"
    },
    {
      "channel": 2,
      "note": 79,
      "start": 31.9969,
      "duration": 0.116,
      "velocity": 127,
      "chip": "ym2612"
    },
    {
      "channel": 1,
      "note": 49,
      "start": 32.1297,
      "duration": 0.1166,
      "velocity": 127,
      "chip": "ym2612"
    },
    {
      "channel": 2,
      "note": 79,
      "start": 32.13,
      "duration": 0.1164,
      "velocity": 127,
      "chip": "ym2612"
    },
    {
      "channel": 0,
      "note": 33,
      "start": 32.263,
      "duration": 0.1164,
      "velocity": 107,
      "chip": "ym2612"
    },
    {
      "channel": 1,
      "note": 49,
      "start": 32.2633,
      "duration": 0.1163,
      "velocity": 127,
      "chip": "ym2612"
    },
    {
      "channel": 2,
      "note": 67,
      "start": 32.2635,
      "duration": 0.1161,
      "velocity": 127,
      "chip": "ym2612"
    },
    {
      "channel": 0,
      "note": 33,
      "start": 32.3963,
      "duration": 0.2498,
      "velocity": 107,
      "chip": "ym2612"
    },
    {
      "channel": 1,
      "note": 49,
      "start": 32.3966,
      "duration": 0.1162,
      "velocity": 127,
      "chip": "ym2612"
    },
    {
      "channel": 2,
      "note": 79,
      "start": 32.3969,
      "duration": 0.1161,
      "velocity": 127,
      "chip": "ym2612"
    },
    {
      "channel": 1,
      "note": 49,
      "start": 32.5297,
      "duration": 0.1166,
      "velocity": 127,
      "chip": "ym2612"
    },
    {
      "channel": 2,
      "note": 67,
      "start": 32.53,
      "duration": 0.1164,
      "velocity": 127,
      "chip": "ym2612"
    },
    {
      "channel": 0,
      "note": 33,
      "start": 32.663,
      "duration": 0.1165,
      "velocity": 107,
      "chip": "ym2612"
    },
    {
      "channel": 1,
      "note": 49,
      "start": 32.6633,
      "duration": 0.1163,
      "velocity": 127,
      "chip": "ym2612"
    },
    {
      "channel": 2,
      "note": 79,
      "start": 32.6635,
      "duration": 0.1161,
      "velocity": 127,
      "chip": "ym2612"
    },
    {
      "channel": 0,
      "note": 33,
      "start": 32.7963,
      "duration": 0.2498,
      "velocity": 107,
      "chip": "ym2612"
    },
    {
      "channel": 1,
      "note": 49,
      "start": 32.7966,
      "duration": 0.0495,
      "velocity": 127,
      "chip": "ym2612"
    },
    {
      "channel": 2,
      "note": 79,
      "start": 32.7969,
      "duration": 0.1161,
      "velocity": 127,
      "chip": "ym2612"
    },
    {
      "channel": 1,
      "note": 49,
      "start": 32.863,
      "duration": 0.0499,
      "velocity": 127,
      "chip": "ym2612"
    },
    {
      "channel": 1,
      "note": 49,
      "start": 32.9297,
      "duration": 0.1166,
      "velocity": 127,
      "chip": "ym2612"
    },
    {
      "channel": 2,
      "note": 67,
      "start": 32.93,
      "duration": 0.1164,
      "velocity": 127,
      "chip": "ym2612"
    },
    {
      "channel": 0,
      "note": 33,
      "start": 33.063,
      "duration": 0.1164,
      "velocity": 107,
      "chip": "ym2612"
    },
    {
      "channel": 1,
      "note": 49,
      "start": 33.0633,
      "duration": 0.1163,
      "velocity": 127,
      "chip": "ym2612"
    },
    {
      "channel": 2,
      "note": 79,
      "start": 33.0635,
      "duration": 0.1161,
      "velocity": 127,
      "chip": "ym2612"
    },
    {
      "channel": 0,
      "note": 33,
      "start": 33.1963,
      "duration": 0.2498,
      "velocity": 107,
      "chip": "ym2612"
    },
    {
      "channel": 1,
      "note": 49,
      "start": 33.1966,
      "duration": 0.0495,
      "velocity": 127,
      "chip": "ym2612"
    },
    {
      "channel": 2,
      "note": 67,
      "start": 33.1969,
      "duration": 0.116,
      "velocity": 127,
      "chip": "ym2612"
    },
    {
      "channel": 1,
      "note": 49,
      "start": 33.2629,
      "duration": 0.0499,
      "velocity": 127,
      "chip": "ym2612"
    },
    {
      "channel": 1,
      "note": 49,
      "start": 33.3296,
      "duration": 0.1166,
      "velocity": 127,
      "chip": "ym2612"
    },
    {
      "channel": 2,
      "note": 79,
      "start": 33.3299,
      "duration": 0.1165,
      "velocity": 127,
      "chip": "ym2612"
    },
    {
      "channel": 0,
      "note": 33,
      "start": 33.463,
      "duration": 0.1164,
      "velocity": 107,
      "chip": "ym2612"
    },
    {
      "channel": 1,
      "note": 49,
      "start": 33.4633,
      "duration": 0.1163,
      "velocity": 127,
      "chip": "ym2612"
    },
    {
      "channel": 2,
      "note": 67,
      "start": 33.4635,
      "duration": 0.1161,
      "velocity": 127,
      "chip": "ym2612"
    },
    {
      "channel": 0,
      "note": 33,
      "start": 33.5963,
      "duration": 0.2498,
      "velocity": 107,
      "chip": "ym2612"
    },
    {
      "channel": 1,
      "note": 49,
      "start": 33.5966,
      "duration": 0.1162,
      "velocity": 127,
      "chip": "ym2612"
    },
    {
      "channel": 2,
      "note": 79,
      "start": 33.5969,
      "duration": 0.1161,
      "velocity": 127,
      "chip": "ym2612"
    },
    {
      "channel": 1,
      "note": 49,
      "start": 33.7297,
      "duration": 0.1166,
      "velocity": 127,
      "chip": "ym2612"
    },
    {
      "channel": 2,
      "note": 79,
      "start": 33.73,
      "duration": 0.1164,
      "velocity": 127,
      "chip": "ym2612"
    },
    {
      "channel": 0,
      "note": 33,
      "start": 33.863,
      "duration": 0.1164,
      "velocity": 107,
      "chip": "ym2612"
    },
    {
      "channel": 1,
      "note": 49,
      "start": 33.8633,
      "duration": 0.0495,
      "velocity": 127,
      "chip": "ym2612"
    },
    {
      "channel": 2,
      "note": 67,
      "start": 33.8635,
      "duration": 0.1161,
      "velocity": 127,
      "chip": "ym2612"
    },
    {
      "channel": 1,
      "note": 49,
      "start": 33.9296,
      "duration": 0.0499,
      "velocity": 127,
      "chip": "ym2612"
    },
    {
      "channel": 0,
      "note": 33,
      "start": 33.9963,
      "duration": 0.2498,
      "velocity": 107,
      "chip": "ym2612"
    },
    {
      "channel": 1,
      "note": 49,
      "start": 33.9966,
      "duration": 0.1161,
      "velocity": 127,
      "chip": "ym2612"
    },
    {
      "channel": 2,
      "note": 79,
      "start": 33.9969,
      "duration": 0.116,
      "velocity": 127,
      "chip": "ym2612"
    },
    {
      "channel": 1,
      "note": 49,
      "start": 34.1296,
      "duration": 0.1166,
      "velocity": 127,
      "chip": "ym2612"
    },
    {
      "channel": 2,
      "note": 67,
      "start": 34.1299,
      "duration": 0.1164,
      "velocity": 127,
      "chip": "ym2612"
    },
    {
      "channel": 0,
      "note": 33,
      "start": 34.263,
      "duration": 0.1164,
      "velocity": 107,
      "chip": "ym2612"
    },
    {
      "channel": 1,
      "note": 49,
      "start": 34.2633,
      "duration": 0.1163,
      "velocity": 127,
      "chip": "ym2612"
    },
    {
      "channel": 2,
      "note": 79,
      "start": 34.2635,
      "duration": 0.1161,
      "velocity": 127,
      "chip": "ym2612"
    },
    {
      "channel": 0,
      "note": 33,
      "start": 34.3963,
      "duration": 0.2498,
      "velocity": 107,
      "chip": "ym2612"
    },
    {
      "channel": 1,
      "note": 49,
      "start": 34.3966,
      "duration": 0.1162,
      "velocity": 127,
      "chip": "ym2612"
    },
    {
      "channel": 2,
      "note": 79,
      "start": 34.3969,
      "duration": 0.1161,
      "velocity": 127,
      "chip": "ym2612"
    },
    {
      "channel": 1,
      "note": 49,
      "start": 34.5297,
      "duration": 0.1166,
      "velocity": 127,
      "chip": "ym2612"
    },
    {
      "channel": 2,
      "note": 67,
      "start": 34.53,
      "duration": 0.1164,
      "velocity": 127,
      "chip": "ym2612"
    },
    {
      "channel": 0,
      "note": 33,
      "start": 34.663,
      "duration": 0.1165,
      "velocity": 107,
      "chip": "ym2612"
    },
    {
      "channel": 1,
      "note": 49,
      "start": 34.6633,
      "duration": 0.1163,
      "velocity": 127,
      "chip": "ym2612"
    },
    {
      "channel": 2,
      "note": 79,
      "start": 34.6635,
      "duration": 0.1161,
      "velocity": 127,
      "chip": "ym2612"
    },
    {
      "channel": 0,
      "note": 33,
      "start": 34.7964,
      "duration": 0.2498,
      "velocity": 107,
      "chip": "ym2612"
    },
    {
      "channel": 1,
      "note": 49,
      "start": 34.7967,
      "duration": 0.383,
      "velocity": 127,
      "chip": "ym2612"
    },
    {
      "channel": 2,
      "note": 67,
      "start": 34.7969,
      "duration": 0.116,
      "velocity": 127,
      "chip": "ym2612"
    },
    {
      "channel": 2,
      "note": 79,
      "start": 34.9296,
      "duration": 0.1168,
      "velocity": 127,
      "chip": "ym2612"
    },
    {
      "channel": 0,
      "note": 33,
      "start": 35.0629,
      "duration": 0.1166,
      "velocity": 107,
      "chip": "ym2612"
    },
    {
      "channel": 2,
      "note": 67,
      "start": 35.0632,
      "duration": 0.1165,
      "velocity": 127,
      "chip": "ym2612"
    },
    {
      "channel": 0,
      "note": 33,
      "start": 35.1963,
      "duration": 0.2499,
      "velocity": 107,
      "chip": "ym2612"
    },
    {
      "channel": 1,
      "note": 49,
      "start": 35.1966,
      "duration": 0.0497,
      "velocity": 127,
      "chip": "ym2612"
    },
    {
      "channel": 2,
      "note": 79,
      "start": 35.1968,
      "duration": 0.1162,
      "velocity": 127,
      "chip": "ym2612"
    },
    {
      "channel": 1,
      "note": 49,
      "start": 35.2629,
      "duration": 0.05,
      "velocity": 127,
      "chip": "ym2612"
    },
    {
      "channel": 1,
      "note": 49,
      "start": 35.3296,
      "duration": 0.1167,
      "velocity": 127,
      "chip": "ym2612"
    },
    {
      "channel": 2,
      "note": 79,
      "start": 35.3299,
      "duration": 0.1165,
      "velocity": 127,
      "chip": "ym2612"
    },
    {
      "channel": 0,
      "note": 33,
      "start": 35.463,
      "duration": 0.1165,
      "velocity": 107,
      "chip": "ym2612"
    },
    {
      "channel": 1,
      "note": 49,
      "start": 35.4632,
      "duration": 0.1164,
      "velocity": 127,
      "chip": "ym2612"
    },
    {
      "channel": 2,
      "note": 67,
      "start": 35.4635,
      "duration": 0.1163,
      "velocity": 127,
      "chip": "ym2612"
    },
    {
      "channel": 0,
      "note": 33,
      "start": 35.5963,
      "duration": 0.2499,
      "velocity": 107,
      "chip": "ym2612"
    },
    {
      "channel": 1,
      "note": 49,
      "start": 35.5966,
      "duration": 0.0497,
      "velocity": 127,
      "chip": "ym2612"
    },
    {
      "channel": 2,
      "note": 79,
      "start": 35.5968,
      "duration": 0.1162,
      "velocity": 127,
      "chip": "ym2612"
    },
    {
      "channel": 1,
      "note": 49,
      "start": 35.6629,
      "duration": 0.05,
      "velocity": 127,
      "chip": "ym2612"
    },
    {
      "channel": 1,
      "note": 49,
      "start": 35.7296,
      "duration": 0.1167,
      "velocity": 127,
      "chip": "ym2612"
    },
    {
      "channel": 2,
      "note": 67,
      "start": 35.7298,
      "duration": 0.1166,
      "velocity": 127,
      "chip": "ym2612"
    },
    {
      "channel": 0,
      "note": 33,
      "start": 35.863,
      "duration": 0.1165,
      "velocity": 107,
      "chip": "ym2612"
    },
    {
      "channel": 1,
      "note": 49,
      "start": 35.8632,
      "duration": 0.1164,
      "velocity": 127,
      "chip": "ym2612"
    },
    {
      "channel": 2,
      "note": 79,
      "start": 35.8635,
      "duration": 0.1163,
      "velocity": 127,
      "chip": "ym2612"
    },
    {
      "channel": 0,
      "note": 33,
      "start": 35.9963,
      "duration": 0.2499,
      "velocity": 107,
      "chip": "ym2612"
    },
    {
      "channel": 1,
      "note": 49,
      "start": 35.9966,
      "duration": 0.1163,
      "velocity": 127,
      "chip": "ym2612"
    },
    {
      "channel": 2,
      "note": 79,
      "start": 35.9968,
      "duration": 0.1162,
      "velocity": 127,
      "chip": "ym2612"
    },
    {
      "channel": 1,
      "note": 49,
      "start": 36.1296,
      "duration": 0.1167,
      "velocity": 127,
      "chip": "ym2612"
    },
    {
      "channel": 2,
      "note": 67,
      "start": 36.1299,
      "duration": 0.1165,
      "velocity": 127,
      "chip": "ym2612"
    },
    {
      "channel": 0,
      "note": 33,
      "start": 36.263,
      "duration": 0.1165,
      "velocity": 107,
      "chip": "ym2612"
    },
    {
      "channel": 1,
      "note": 49,
      "start": 36.2632,
      "duration": 0.0497,
      "velocity": 127,
      "chip": "ym2612"
    },
    {
      "channel": 2,
      "note": 79,
      "start": 36.2635,
      "duration": 0.1163,
      "velocity": 127,
      "chip": "ym2612"
    },
    {
      "channel": 1,
      "note": 49,
      "start": 36.3296,
      "duration": 0.0501,
      "velocity": 127,
      "chip": "ym2612"
    },
    {
      "channel": 0,
      "note": 33,
      "start": 36.3963,
      "duration": 0.2499,
      "velocity": 107,
      "chip": "ym2612"
    },
    {
      "channel": 1,
      "note": 49,
      "start": 36.3966,
      "duration": 0.1163,
      "velocity": 127,
      "chip": "ym2612"
    },
    {
      "channel": 2,
      "note": 67,
      "start": 36.3968,
      "duration": 0.1162,
      "velocity": 127,
      "chip": "ym2612"
    },
    {
      "channel": 1,
      "note": 49,
      "start": 36.5296,
      "duration": 0.1167,
      "velocity": 127,
      "chip": "ym2612"
    },
    {
      "channel": 2,
      "note": 79,
      "start": 36.5299,
      "duration": 0.1165,
      "velocity": 127,
      "chip": "ym2612"
    },
    {
      "channel": 0,
      "note": 33,
      "start": 36.663,
      "duration": 0.1166,
      "velocity": 107,
      "chip": "ym2612"
    },
    {
      "channel": 1,
      "note": 49,
      "start": 36.6633,
      "duration": 0.1164,
      "velocity": 127,
      "chip": "ym2612"
    },
    {
      "channel": 2,
      "note": 67,
      "start": 36.6635,
      "duration": 0.1162,
      "velocity": 127,
      "chip": "ym2612"
    },
    {
      "channel": 0,
      "note": 33,
      "start": 36.7963,
      "duration": 0.2498,
      "velocity": 107,
      "chip": "ym2612"
    },
    {
      "channel": 1,
      "note": 49,
      "start": 36.7966,
      "duration": 0.1162,
      "velocity": 127,
      "chip": "ym2612"
    },
    {
      "channel": 2,
      "note": 79,
      "start": 36.7969,
      "duration": 0.116,
      "velocity": 127,
      "chip": "ym2612"
    },
    {
      "channel": 1,
      "note": 49,
      "start": 36.9297,
      "duration": 0.1166,
      "velocity": 127,
      "chip": "ym2612"
    },
    {
      "channel": 2,
      "note": 79,
      "start": 36.93,
      "duration": 0.1163,
      "velocity": 127,
      "chip": "ym2612"
    },
    {
      "channel": 0,
      "note": 33,
      "start": 37.063,
      "duration": 0.1164,
      "velocity": 107,
      "chip": "ym2612"
    },
    {
      "channel": 1,
      "note": 49,
      "start": 37.0633,
      "duration": 0.1163,
      "velocity": 127,
      "chip": "ym2612"
    },
    {
      "channel": 2,
      "note": 67,
      "start": 37.0635,
      "duration": 0.1161,
      "velocity": 127,
      "chip": "ym2612"
    },
    {
      "channel": 0,
      "note": 33,
      "start": 37.1963,
      "duration": 0.2498,
      "velocity": 107,
      "chip": "ym2612"
    },
    {
      "channel": 1,
      "note": 49,
      "start": 37.1966,
      "duration": 0.0495,
      "velocity": 127,
      "chip": "ym2612"
    },
    {
      "channel": 2,
      "note": 79,
      "start": 37.1969,
      "duration": 0.116,
      "velocity": 127,
      "chip": "ym2612"
    },
    {
      "channel": 1,
      "note": 49,
      "start": 37.2629,
      "duration": 0.0499,
      "velocity": 127,
      "chip": "ym2612"
    },
    {
      "channel": 1,
      "note": 49,
      "start": 37.3296,
      "duration": 0.1166,
      "velocity": 127,
      "chip": "ym2612"
    },
    {
      "channel": 2,
      "note": 67,
      "start": 37.3299,
      "duration": 0.1164,
      "velocity": 127,
      "chip": "ym2612"
    },
    {
      "channel": 0,
      "note": 33,
      "start": 37.463,
      "duration": 0.1164,
      "velocity": 107,
      "chip": "ym2612"
    },
    {
      "channel": 1,
      "note": 49,
      "start": 37.4633,
      "duration": 0.1163,
      "velocity": 127,
      "chip": "ym2612"
    },
    {
      "channel": 2,
      "note": 79,
      "start": 37.4635,
      "duration": 0.1161,
      "velocity": 127,
      "chip": "ym2612"
    },
    {
      "channel": 0,
      "note": 33,
      "start": 37.5963,
      "duration": 0.2498,
      "velocity": 107,
      "chip": "ym2612"
    },
    {
      "channel": 1,
      "note": 49,
      "start": 37.5966,
      "duration": 0.0495,
      "velocity": 127,
      "chip": "ym2612"
    },
    {
      "channel": 2,
      "note": 79,
      "start": 37.5969,
      "duration": 0.116,
      "velocity": 127,
      "chip": "ym2612"
    },
    {
      "channel": 1,
      "note": 49,
      "start": 37.6629,
      "duration": 0.0499,
      "velocity": 127,
      "chip": "ym2612"
    },
    {
      "channel": 1,
      "note": 49,
      "start": 37.7296,
      "duration": 0.1166,
      "velocity": 127,
      "chip": "ym2612"
    },
    {
      "channel": 2,
      "note": 67,
      "start": 37.7299,
      "duration": 0.1164,
      "velocity": 127,
      "chip": "ym2612"
    },
    {
      "channel": 0,
      "note": 33,
      "start": 37.863,
      "duration": 0.1164,
      "velocity": 107,
      "chip": "ym2612"
    },
    {
      "channel": 1,
      "note": 49,
      "start": 37.8633,
      "duration": 0.1163,
      "velocity": 127,
      "chip": "ym2612"
    },
    {
      "channel": 2,
      "note": 79,
      "start": 37.8635,
      "duration": 0.1161,
      "velocity": 127,
      "chip": "ym2612"
    },
    {
      "channel": 0,
      "note": 33,
      "start": 37.9963,
      "duration": 0.2498,
      "velocity": 107,
      "chip": "ym2612"
    },
    {
      "channel": 1,
      "note": 49,
      "start": 37.9966,
      "duration": 0.1162,
      "velocity": 127,
      "chip": "ym2612"
    },
    {
      "channel": 2,
      "note": 67,
      "start": 37.9969,
      "duration": 0.1161,
      "velocity": 127,
      "chip": "ym2612"
    },
    {
      "channel": 1,
      "note": 49,
      "start": 38.1297,
      "duration": 0.1166,
      "velocity": 127,
      "chip": "ym2612"
    },
    {
      "channel": 2,
      "note": 79,
      "start": 38.13,
      "duration": 0.1164,
      "velocity": 127,
      "chip": "ym2612"
    },
    {
      "channel": 0,
      "note": 33,
      "start": 38.263,
      "duration": 0.1164,
      "velocity": 107,
      "chip": "ym2612"
    },
    {
      "channel": 1,
      "note": 49,
      "start": 38.2633,
      "duration": 0.0495,
      "velocity": 127,
      "chip": "ym2612"
    },
    {
      "channel": 2,
      "note": 67,
      "start": 38.2635,
      "duration": 0.1161,
      "velocity": 127,
      "chip": "ym2612"
    },
    {
      "channel": 1,
      "note": 49,
      "start": 38.3296,
      "duration": 0.0499,
      "velocity": 127,
      "chip": "ym2612"
    },
    {
      "channel": 0,
      "note": 33,
      "start": 38.3963,
      "duration": 0.2498,
      "velocity": 107,
      "chip": "ym2612"
    },
    {
      "channel": 1,
      "note": 49,
      "start": 38.3966,
      "duration": 0.1162,
      "velocity": 127,
      "chip": "ym2612"
    },
    {
      "channel": 2,
      "note": 79,
      "start": 38.3969,
      "duration": 0.1161,
      "velocity": 127,
      "chip": "ym2612"
    },
    {
      "channel": 1,
      "note": 49,
      "start": 38.5297,
      "duration": 0.1166,
      "velocity": 127,
      "chip": "ym2612"
    },
    {
      "channel": 2,
      "note": 79,
      "start": 38.53,
      "duration": 0.1164,
      "velocity": 127,
      "chip": "ym2612"
    },
    {
      "channel": 0,
      "note": 33,
      "start": 38.663,
      "duration": 0.1165,
      "velocity": 107,
      "chip": "ym2612"
    },
    {
      "channel": 1,
      "note": 49,
      "start": 38.6633,
      "duration": 0.1163,
      "velocity": 127,
      "chip": "ym2612"
    },
    {
      "channel": 2,
      "note": 67,
      "start": 38.6635,
      "duration": 0.1161,
      "velocity": 127,
      "chip": "ym2612"
    },
    {
      "channel": 0,
      "note": 33,
      "start": 38.7963,
      "duration": 0.2498,
      "velocity": 107,
      "chip": "ym2612"
    },
    {
      "channel": 1,
      "note": 49,
      "start": 38.7966,
      "duration": 0.1163,
      "velocity": 127,
      "chip": "ym2612"
    },
    {
      "channel": 2,
      "note": 79,
      "start": 38.7969,
      "duration": 0.1161,
      "velocity": 127,
      "chip": "ym2612"
    },
    {
      "channel": 1,
      "note": 49,
      "start": 38.9296,
      "duration": 0.1167,
      "velocity": 127,
      "chip": "ym2612"
    },
    {
      "channel": 2,
      "note": 67,
      "start": 38.9298,
      "duration": 0.1165,
      "velocity": 127,
      "chip": "ym2612"
    },
    {
      "channel": 0,
      "note": 33,
      "start": 39.063,
      "duration": 0.1165,
      "velocity": 107,
      "chip": "ym2612"
    },
    {
      "channel": 1,
      "note": 49,
      "start": 39.0632,
      "duration": 0.1164,
      "velocity": 127,
      "chip": "ym2612"
    },
    {
      "channel": 2,
      "note": 79,
      "start": 39.0635,
      "duration": 0.1163,
      "velocity": 127,
      "chip": "ym2612"
    },
    {
      "channel": 0,
      "note": 33,
      "start": 39.1964,
      "duration": 0.2498,
      "velocity": 107,
      "chip": "ym2612"
    },
    {
      "channel": 1,
      "note": 49,
      "start": 39.1967,
      "duration": 0.0496,
      "velocity": 127,
      "chip": "ym2612"
    },
    {
      "channel": 2,
      "note": 79,
      "start": 39.1969,
      "duration": 0.116,
      "velocity": 127,
      "chip": "ym2612"
    },
    {
      "channel": 1,
      "note": 49,
      "start": 39.2628,
      "duration": 0.0501,
      "velocity": 127,
      "chip": "ym2612"
    },
    {
      "channel": 1,
      "note": 49,
      "start": 39.3298,
      "duration": 0.1166,
      "velocity": 127,
      "chip": "ym2612"
    },
    {
      "channel": 2,
      "note": 67,
      "start": 39.33,
      "duration": 0.1164,
      "velocity": 127,
      "chip": "ym2612"
    },
    {
      "channel": 0,
      "note": 33,
      "start": 39.463,
      "duration": 0.1165,
      "velocity": 107,
      "chip": "ym2612"
    },
    {
      "channel": 1,
      "note": 49,
      "start": 39.4632,
      "duration": 0.1164,
      "velocity": 127,
      "chip": "ym2612"
    },
    {
      "channel": 2,
      "note": 79,
      "start": 39.4635,
      "duration": 0.1163,
      "velocity": 127,
      "chip": "ym2612"
    },
    {
      "channel": 0,
      "note": 33,
      "start": 39.5964,
      "duration": 0.2498,
      "velocity": 107,
      "chip": "ym2612"
    },
    {
      "channel": 1,
      "note": 49,
      "start": 39.5967,
      "duration": 0.0495,
      "velocity": 127,
      "chip": "ym2612"
    },
    {
      "channel": 2,
      "note": 67,
      "start": 39.5969,
      "duration": 0.116,
      "velocity": 127,
      "chip": "ym2612"
    },
    {
      "channel": 1,
      "note": 49,
      "start": 39.6628,
      "duration": 0.0501,
      "velocity": 127,
      "chip": "ym2612"
    },
    {
      "channel": 1,
      "note": 49,
      "start": 39.7298,
      "duration": 0.1166,
      "velocity": 127,
      "chip": "ym2612"
    },
    {
      "channel": 2,
      "note": 79,
      "start": 39.73,
      "duration": 0.1164,
      "velocity": 127,
      "chip": "ym2612"
    },
    {
      "channel": 0,
      "note": 33,
      "start": 39.863,
      "duration": 0.1165,
      "velocity": 107,
      "chip": "ym2612"
    },
    {
      "channel": 1,
      "note": 49,
      "start": 39.8632,
      "duration": 0.1164,
      "velocity": 127,
      "chip": "ym2612"
    },
    {
      "channel": 2,
      "note": 67,
      "start": 39.8635,
      "duration": 0.1163,
      "velocity": 127,
      "chip": "ym2612"
    },
    {
      "channel": 0,
      "note": 33,
      "start": 39.9963,
      "duration": 0.2499,
      "velocity": 107,
      "chip": "ym2612"
    },
    {
      "channel": 1,
      "note": 49,
      "start": 39.9966,
      "duration": 0.1163,
      "velocity": 127,
      "chip": "ym2612"
    },
    {
      "channel": 2,
      "note": 79,
      "start": 39.9968,
      "duration": 0.1162,
      "velocity": 127,
      "chip": "ym2612"
    },
    {
      "channel": 1,
      "note": 49,
      "start": 40.1296,
      "duration": 0.1167,
      "velocity": 127,
      "chip": "ym2612"
    },
    {
      "channel": 2,
      "note": 79,
      "start": 40.1299,
      "duration": 0.1165,
      "velocity": 127,
      "chip": "ym2612"
    },
    {
      "channel": 0,
      "note": 33,
      "start": 40.263,
      "duration": 0.1165,
      "velocity": 107,
      "chip": "ym2612"
    },
    {
      "channel": 1,
      "note": 49,
      "start": 40.2632,
      "duration": 0.0497,
      "velocity": 127,
      "chip": "ym2612"
    },
    {
      "channel": 2,
      "note": 67,
      "start": 40.2635,
      "duration": 0.1163,
      "velocity": 127,
      "chip": "ym2612"
    },
    {
      "channel": 1,
      "note": 49,
      "start": 40.3296,
      "duration": 0.0501,
      "velocity": 127,
      "chip": "ym2612"
    },
    {
      "channel": 0,
      "note": 33,
      "start": 40.3963,
      "duration": 0.2499,
      "velocity": 107,
      "chip": "ym2612"
    },
    {
      "channel": 1,
      "note": 49,
      "start": 40.3966,
      "duration": 0.1163,
      "velocity": 127,
      "chip": "ym2612"
    },
    {
      "channel": 2,
      "note": 79,
      "start": 40.3968,
      "duration": 0.1162,
      "velocity": 127,
      "chip": "ym2612"
    },
    {
      "channel": 1,
      "note": 49,
      "start": 40.5296,
      "duration": 0.1167,
      "velocity": 127,
      "chip": "ym2612"
    },
    {
      "channel": 2,
      "note": 79,
      "start": 40.5299,
      "duration": 0.1165,
      "velocity": 127,
      "chip": "ym2612"
    },
    {
      "channel": 0,
      "note": 33,
      "start": 40.663,
      "duration": 0.1166,
      "velocity": 107,
      "chip": "ym2612"
    },
    {
      "channel": 1,
      "note": 49,
      "start": 40.6633,
      "duration": 0.1164,
      "velocity": 127,
      "chip": "ym2612"
    },
    {
      "channel": 2,
      "note": 67,
      "start": 40.6635,
      "duration": 0.1162,
      "velocity": 127,
      "chip": "ym2612"
    },
    {
      "channel": 0,
      "note": 33,
      "start": 40.7963,
      "duration": 0.2498,
      "velocity": 107,
      "chip": "ym2612"
    },
    {
      "channel": 1,
      "note": 49,
      "start": 40.7966,
      "duration": 0.1162,
      "velocity": 127,
      "chip": "ym2612"
    },
    {
      "channel": 2,
      "note": 79,
      "start": 40.7969,
      "duration": 0.116,
      "velocity": 127,
      "chip": "ym2612"
    },
    {
      "channel": 1,
      "note": 49,
      "start": 40.9296,
      "duration": 0.1166,
      "velocity": 127,
      "chip": "ym2612"
    },
    {
      "channel": 2,
      "note": 79,
      "start": 40.9299,
      "duration": 0.1165,
      "velocity": 127,
      "chip": "ym2612"
    },
    {
      "channel": 0,
      "note": 33,
      "start": 41.063,
      "duration": 0.1164,
      "velocity": 107,
      "chip": "ym2612"
    },
    {
      "channel": 1,
      "note": 49,
      "start": 41.0633,
      "duration": 0.1163,
      "velocity": 127,
      "chip": "ym2612"
    },
    {
      "channel": 2,
      "note": 67,
      "start": 41.0635,
      "duration": 0.1161,
      "velocity": 127,
      "chip": "ym2612"
    },
    {
      "channel": 0,
      "note": 33,
      "start": 41.1963,
      "duration": 0.2498,
      "velocity": 107,
      "chip": "ym2612"
    },
    {
      "channel": 1,
      "note": 49,
      "start": 41.1966,
      "duration": 0.3829,
      "velocity": 127,
      "chip": "ym2612"
    },
    {
      "channel": 2,
      "note": 79,
      "start": 41.1969,
      "duration": 0.116,
      "velocity": 127,
      "chip": "ym2612"
    },
    {
      "channel": 2,
      "note": 79,
      "start": 41.3297,
      "duration": 0.1166,
      "velocity": 127,
      "chip": "ym2612"
    },
    {
      "channel": 0,
      "note": 33,
      "start": 41.463,
      "duration": 0.1165,
      "velocity": 107,
      "chip": "ym2612"
    },
    {
      "channel": 2,
      "note": 67,
      "start": 41.4633,
      "duration": 0.1164,
      "velocity": 127,
      "chip": "ym2612"
    },
    {
      "channel": 0,
      "note": 33,
      "start": 41.5964,
      "duration": 0.2498,
      "velocity": 107,
      "chip": "ym2612"
    },
    {
      "channel": 1,
      "note": 49,
      "start": 41.5967,
      "duration": 0.2496,
      "velocity": 127,
      "chip": "ym2612"
    },
    {
      "channel": 2,
      "note": 79,
      "start": 41.5969,
      "duration": 0.2495,
      "velocity": 127,
      "chip": "ym2612"
    },
    {
      "channel": 0,
      "note": 33,
      "start": 41.863,
      "duration": 0.2498,
      "velocity": 107,
      "chip": "ym2612"
    },
    {
      "channel": 1,
      "note": 49,
      "start": 41.8632,
      "duration": 0.2497,
      "velocity": 127,
      "chip": "ym2612"
    },
    {
      "channel": 2,
      "note": 79,
      "start": 41.8635,
      "duration": 0.2495,
      "velocity": 127,
      "chip": "ym2612"
    },
    {
      "channel": 0,
      "note": 33,
      "start": 42.1297,
      "duration": 0.1165,
      "velocity": 107,
      "chip": "ym2612"
    },
    {
      "channel": 1,
      "note": 49,
      "start": 42.13,
      "duration": 0.1163,
      "velocity": 127,
      "chip": "ym2612"
    },
    {
      "channel": 2,
      "note": 79,
      "start": 42.1302,
      "duration": 0.1161,
      "velocity": 127,
      "chip": "ym2612"
    },
    {
      "channel": 0,
      "note": 33,
      "start": 42.2629,
      "duration": 0.1165,
      "velocity": 107,
      "chip": "ym2612"
    },
    {
      "channel": 1,
      "note": 49,
      "start": 42.2632,
      "duration": 0.1164,
      "velocity": 127,
      "chip": "ym2612"
    },
    {
      "channel": 2,
      "note": 79,
      "start": 42.2634,
      "duration": 0.1163,
      "velocity": 127,
      "chip": "ym2612"
    },
    {
      "channel": 0,
      "note": 33,
      "start": 42.3962,
      "duration": 0.1165,
      "velocity": 107,
      "chip": "ym2612"
    },
    {
      "channel": 1,
      "note": 49,
      "start": 42.3965,
      "duration": 0.1164,
      "velocity": 127,
      "chip": "ym2612"
    },
    {
      "channel": 2,
      "note": 79,
      "start": 42.3967,
      "duration": 0.1163,
      "velocity": 127,
      "chip": "ym2612"
    },
    {
      "channel": 0,
      "note": 33,
      "start": 42.5296,
      "duration": 0.1165,
      "velocity": 107,
      "chip": "ym2612"
    },
    {
      "channel": 1,
      "note": 54,
      "start": 42.5298,
      "duration": 0.1164,
      "velocity": 127,
      "chip": "ym2612"
    },
    {
      "channel": 2,
      "note": 67,
      "start": 42.5301,
      "duration": 0.1163,
      "velocity": 127,
      "chip": "ym2612"
    },
    {
      "channel": 0,
      "note": 33,
      "start": 42.6629,
      "duration": 0.1165,
      "velocity": 107,
      "chip": "ym2612"
    },
    {
      "channel": 1,
      "note": 54,
      "start": 42.6632,
      "duration": 0.1164,
      "velocity": 127,
      "chip": "ym2612"
    },
    {
      "channel": 2,
      "note": 67,
      "start": 42.6634,
      "duration": 0.1162,
      "velocity": 127,
      "chip": "ym2612"
    },
    {
      "channel": 0,
      "note": 33,
      "start": 42.7963,
      "duration": 0.3832,
      "velocity": 107,
      "chip": "ym2612"
    },
    {
      "channel": 1,
      "note": 54,
      "start": 42.7966,
      "duration": 0.3831,
      "velocity": 127,
      "chip": "ym2612"
    },
    {
      "channel": 2,
      "note": 67,
      "start": 42.7969,
      "duration": 0.3829,
      "velocity": 127,
      "chip": "ym2612"
    },
    {
      "channel": 0,
      "note": 33,
      "start": 43.1965,
      "duration": 0.2498,
      "velocity": 107,
      "chip": "ym2612"
    },
    {
      "channel": 1,
      "note": 54,
      "start": 43.1967,
      "duration": 0.0495,
      "velocity": 127,
      "chip": "ym2612"
    },
    {
      "channel": 2,
      "note": 67,
      "start": 43.197,
      "duration": 0.0494,
      "velocity": 127,
      "chip": "ym2612"
    },
    {
      "channel": 1,
      "note": 49,
      "start": 43.263,
      "duration": 0.0499,
      "velocity": 127,
      "chip": "ym2612"
    },
    {
      "channel": 2,
      "note": 79,
      "start": 43.2632,
      "duration": 0.0498,
      "velocity": 127,
      "chip": "ym2612"
    },
    {
      "channel": 1,
      "note": 49,
      "start": 43.3298,
      "duration": 0.1166,
      "velocity": 127,
      "chip": "ym2612"
    },
    {
      "channel": 2,
      "note": 79,
      "start": 43.33,
      "duration": 0.1164,
      "velocity": 127,
      "chip": "ym2612"
    },
    {
      "channel": 0,
      "note": 33,
      "start": 43.463,
      "duration": 0.1166,
      "velocity": 107,
      "chip": "ym2612"
    },
    {
      "channel": 1,
      "note": 49,
      "start": 43.4633,
      "duration": 0.1164,
      "velocity": 127,
      "chip": "ym2612"
    },
    {
      "channel": 2,
      "note": 79,
      "start": 43.4635,
      "duration": 0.1162,
      "velocity": 127,
      "chip": "ym2612"
    },
    {
      "channel": 0,
      "note": 33,
      "start": 43.5965,
      "duration": 0.2498,
      "velocity": 107,
      "chip": "ym2612"
    },
    {
      "channel": 1,
      "note": 49,
      "start": 43.5967,
      "duration": 0.0495,
      "velocity": 127,
      "chip": "ym2612"
    },
    {
      "channel": 2,
      "note": 79,
      "start": 43.597,
      "duration": 0.0494,
      "velocity": 127,
      "chip": "ym2612"
    },
    {
      "channel": 1,
      "note": 49,
      "start": 43.663,
      "duration": 0.0499,
      "velocity": 127,
      "chip": "ym2612"
    },
    {
      "channel": 2,
      "note": 79,
      "start": 43.6632,
      "duration": 0.0498,
      "velocity": 127,
      "chip": "ym2612"
    },
    {
      "channel": 1,
      "note": 49,
      "start": 43.7298,
      "duration": 0.1166,
      "velocity": 127,
      "chip": "ym2612"
    },
    {
      "channel": 2,
      "note": 79,
      "start": 43.73,
      "duration": 0.1164,
      "velocity": 127,
      "chip": "ym2612"
    },
    {
      "channel": 0,
      "note": 33,
      "start": 43.863,
      "duration": 0.1166,
      "velocity": 107,
      "chip": "ym2612"
    },
    {
      "channel": 1,
      "note": 49,
      "start": 43.8633,
      "duration": 0.1164,
      "velocity": 127,
      "chip": "ym2612"
    },
    {
      "channel": 2,
      "note": 79,
      "start": 43.8635,
      "duration": 0.1162,
      "velocity": 127,
      "chip": "ym2612"
    },
    {
      "channel": 0,
      "note": 33,
      "start": 43.9963,
      "duration": 0.1166,
      "velocity": 107,
      "chip": "ym2612"
    },
    {
      "channel": 1,
      "note": 49,
      "start": 43.9966,
      "duration": 0.1165,
      "velocity": 127,
      "chip": "ym2612"
    },
    {
      "channel": 2,
      "note": 79,
      "start": 43.9968,
      "duration": 0.1163,
      "velocity": 127,
      "chip": "ym2612"
    },
    {
      "channel": 0,
      "note": 33,
      "start": 44.1296,
      "duration": 0.1166,
      "velocity": 107,
      "chip": "ym2612"
    },
    {
      "channel": 1,
      "note": 54,
      "start": 44.1299,
      "duration": 0.1165,
      "velocity": 127,
      "chip": "ym2612"
    },
    {
      "channel": 2,
      "note": 67,
      "start": 44.1301,
      "duration": 0.1163,
      "velocity": 127,
      "chip": "ym2612"
    },
    {
      "channel": 0,
      "note": 33,
      "start": 44.263,
      "duration": 0.1165,
      "velocity": 107,
      "chip": "ym2612"
    },
    {
      "channel": 1,
      "note": 54,
      "start": 44.2632,
      "duration": 0.1163,
      "velocity": 127,
      "chip": "ym2612"
    },
    {
      "channel": 2,
      "note": 67,
      "start": 44.2635,
      "duration": 0.1162,
      "velocity": 127,
      "chip": "ym2612"
    },
    {
      "channel": 0,
      "note": 33,
      "start": 44.3963,
      "duration": 0.1164,
      "velocity": 107,
      "chip": "ym2612"
    },
    {
      "channel": 1,
      "note": 54,
      "start": 44.3966,
      "duration": 0.1163,
      "velocity": 127,
      "chip": "ym2612"
    },
    {
      "channel": 2,
      "note": 67,
      "start": 44.3969,
      "duration": 0.1161,
      "velocity": 127,
      "chip": "ym2612"
    },
    {
      "channel": 0,
      "note": 33,
      "start": 44.5297,
      "duration": 0.1164,
      "velocity": 107,
      "chip": "ym2612"
    },
    {
      "channel": 1,
      "note": 54,
      "start": 44.53,
      "duration": 0.1163,
      "velocity": 127,
      "chip": "ym2612"
    },
    {
      "channel": 2,
      "note": 67,
      "start": 44.5302,
      "duration": 0.1161,
      "velocity": 127,
      "chip": "ym2612"
    },
    {
      "channel": 0,
      "note": 33,
      "start": 44.663,
      "duration": 0.1164,
      "velocity": 107,
      "chip": "ym2612"
    },
    {
      "channel": 1,
      "note": 54,
      "start": 44.6633,
      "duration": 0.1163,
      "velocity": 127,
      "chip": "ym2612"
    },
    {
      "channel": 2,
      "note": 67,
      "start": 44.6635,
      "duration": 0.1161,
      "velocity": 127,
      "chip": "ym2612"
    },
    {
      "channel": 0,
      "note": 33,
      "start": 44.7982,
      "duration": 0.1147,
      "velocity": 107,
      "chip": "ym2612"
    },
    {
      "channel": 1,
      "note": 54,
      "start": 44.7999,
      "duration": 0.1131,
      "velocity": 88,
      "chip": "ym2612"
    },
    {
      "channel": 2,
      "note": 67,
      "start": 44.8016,
      "duration": 0.6449,
      "velocity": 83,
      "chip": "ym2612"
    },
    {
      "channel": 0,
      "note": 33,
      "start": 44.931,
      "duration": 0.1151,
      "velocity": 127,
      "chip": "ym2612"
    },
    {
      "channel": 1,
      "note": 47,
      "start": 44.9313,
      "duration": 0.115,
      "velocity": 88,
      "chip": "ym2612"
    },
    {
      "channel": 0,
      "note": 78,
      "start": 45.063,
      "duration": 0.1165,
      "velocity": 127,
      "chip": "ym2612"
    },
    {
      "channel": 1,
      "note": 47,
      "start": 45.0633,
      "duration": 0.1163,
      "velocity": 88,
      "chip": "ym2612"
    },
    {
      "channel": 0,
      "note": 78,
      "start": 45.1978,
      "duration": 0.115,
      "velocity": 107,
      "chip": "ym2612"
    },
    {
      "channel": 1,
      "note": 47,
      "start": 45.198,
      "duration": 0.1149,
      "velocity": 88,
      "chip": "ym2612"
    },
    {
      "channel": 0,
      "note": 33,
      "start": 45.331,
      "duration": 0.1151,
      "velocity": 127,
      "chip": "ym2612"
    },
    {
      "channel": 1,
      "note": 47,
      "start": 45.3313,
      "duration": 0.115,
      "velocity": 88,
      "chip": "ym2612"
    },
    {
      "channel": 0,
      "note": 78,
      "start": 45.463,
      "duration": 0.1166,
      "velocity": 127,
      "chip": "ym2612"
    },
    {
      "channel": 1,
      "note": 47,
      "start": 45.4632,
      "duration": 0.1165,
      "velocity": 88,
      "chip": "ym2612"
    },
    {
      "channel": 2,
      "note": 77,
      "start": 45.4635,
      "duration": 0.5162,
      "velocity": 83,
      "chip": "ym2612"
    },
    {
      "channel": 0,
      "note": 78,
      "start": 45.5977,
      "duration": 0.1151,
      "velocity": 127,
      "chip": "ym2612"
    },
    {
      "channel": 1,
      "note": 47,
      "start": 45.598,
      "duration": 0.115,
      "velocity": 88,
      "chip": "ym2612"
    },
    {
      "channel": 0,
      "note": 42,
      "start": 45.7311,
      "duration": 0.115,
      "velocity": 127,
      "chip": "ym2612"
    },
    {
      "channel": 1,
      "note": 47,
      "start": 45.7313,
      "duration": 0.1149,
      "velocity": 88,
      "chip": "ym2612"
    },
    {
      "channel": 0,
      "note": 78,
      "start": 45.863,
      "duration": 0.1165,
      "velocity": 127,
      "chip": "ym2612"
    },
    {
      "channel": 1,
      "note": 47,
      "start": 45.8632,
      "duration": 0.1163,
      "velocity": 88,
      "chip": "ym2612"
    },
    {
      "channel": 0,
      "note": 78,
      "start": 45.9978,
      "duration": 0.1151,
      "velocity": 107,
      "chip": "ym2612"
    },
    {
      "channel": 1,
      "note": 47,
      "start": 45.998,
      "duration": 0.115,
      "velocity": 88,
      "chip": "ym2612"
    },
    {
      "channel": 2,
      "note": 74,
      "start": 45.9983,
      "duration": 0.2481,
      "velocity": 83,
      "chip": "ym2612"
    },
    {
      "channel": 0,
      "note": 33,
      "start": 46.131,
      "duration": 0.1151,
      "velocity": 127,
      "chip": "ym2612"
    },
    {
      "channel": 1,
      "note": 54,
      "start": 46.1313,
      "duration": 0.115,
      "velocity": 88,
      "chip": "ym2612"
    },
    {
      "channel": 0,
      "note": 78,
      "start": 46.263,
      "duration": 0.1165,
      "velocity": 127,
      "chip": "ym2612"
    },
    {
      "channel": 1,
      "note": 47,
      "start": 46.2632,
      "duration": 0.1163,
      "velocity": 88,
      "chip": "ym2612"
    },
    {
      "channel": 2,
      "note": 71,
      "start": 46.2635,
      "duration": 1.7163,
      "velocity": 83,
      "chip": "ym2612"
    },
    {
      "channel": 0,
      "note": 78,
      "start": 46.3977,
      "duration": 0.1151,
      "velocity": 107,
      "chip": "ym2612"
    },
    {
      "channel": 1,
      "note": 59,
      "start": 46.398,
      "duration": 0.115,
      "velocity": 88,
      "chip": "ym2612"
    },
    {
      "channel": 0,
      "note": 33,
      "start": 46.5311,
      "duration": 0.115,
      "velocity": 127,
      "chip": "ym2612"
    },
    {
      "channel": 1,
      "note": 47,
      "start": 46.5313,
      "duration": 0.1149,
      "velocity": 88,
      "chip": "ym2612"
    },
    {
      "channel": 0,
      "note": 78,
      "start": 46.663,
      "duration": 0.1165,
      "velocity": 127,
      "chip": "ym2612"
    },
    {
      "channel": 1,
      "note": 47,
      "start": 46.6632,
      "duration": 0.1163,
      "velocity": 88,
      "chip": "ym2612"
    },
    {
      "channel": 0,
      "note": 78,
      "start": 46.7977,
      "duration": 0.1151,
      "velocity": 107,
      "chip": "ym2612"
    },
    {
      "channel": 1,
      "note": 47,
      "start": 46.798,
      "duration": 0.115,
      "velocity": 88,
      "chip": "ym2612"
    },
    {
      "channel": 0,
      "note": 33,
      "start": 46.9311,
      "duration": 0.115,
      "velocity": 127,
      "chip": "ym2612"
    },
    {
      "channel": 1,
      "note": 44,
      "start": 46.9313,
      "duration": 0.1149,
      "velocity": 88,
      "chip": "ym2612"
    },
    {
      "channel": 0,
      "note": 78,
      "start": 47.0629,
      "duration": 0.1165,
      "velocity": 127,
      "chip": "ym2612"
    },
    {
      "channel": 1,
      "note": 56,
      "start": 47.0632,
      "duration": 0.1164,
      "velocity": 88,
      "chip": "ym2612"
    },
    {
      "channel": 0,
      "note": 78,
      "start": 47.1977,
      "duration": 0.1151,
      "velocity": 127,
      "chip": "ym2612"
    },
    {
      "channel": 1,
      "note": 44,
      "start": 47.198,
      "duration": 0.115,
      "velocity": 88,
      "chip": "ym2612"
    },
    {
      "channel": 0,
      "note": 42,
      "start": 47.3312,
      "duration": 0.1149,
      "velocity": 127,
      "chip": "ym2612"
    },
    {
      "channel": 1,
      "note": 45,
      "start": 47.3314,
      "duration": 0.1148,
      "velocity": 88,
      "chip": "ym2612"
    },
    {
      "channel": 0,
      "note": 78,
      "start": 47.463,
      "duration": 0.1165,
      "velocity": 127,
      "chip": "ym2612"
    },
    {
      "channel": 1,
      "note": 57,
      "start": 47.4632,
      "duration": 0.1163,
      "velocity": 88,
      "chip": "ym2612"
    },
    {
      "channel": 0,
      "note": 78,
      "start": 47.5978,
      "duration": 0.1151,
      "velocity": 107,
      "chip": "ym2612"
    },
    {
      "channel": 1,
      "note": 45,
      "start": 47.598,
      "duration": 0.115,
      "velocity": 88,
      "chip": "ym2612"
    },
    {
      "channel": 0,
      "note": 33,
      "start": 47.7311,
      "duration": 0.1151,
      "velocity": 127,
      "chip": "ym2612"
    },
    {
      "channel": 1,
      "note": 46,
      "start": 47.7313,
      "duration": 0.1149,
      "velocity": 88,
      "chip": "ym2612"
    },
    {
      "channel": 0,
      "note": 78,
      "start": 47.8644,
      "duration": 0.1151,
      "velocity": 127,
      "chip": "ym2612"
    },
    {
      "channel": 1,
      "note": 58,
      "start": 47.8647,
      "duration": 0.115,
      "velocity": 88,
      "chip": "ym2612"
    },
    {
      "channel": 0,
      "note": 42,
      "start": 47.9978,
      "duration": 0.1151,
      "velocity": 107,
      "chip": "ym2612"
    },
    {
      "channel": 1,
      "note": 46,
      "start": 47.998,
      "duration": 0.115,
      "velocity": 88,
      "chip": "ym2612"
    },
    {
      "channel": 2,
      "note": 74,
      "start": 47.9983,
      "duration": 0.6481,
      "velocity": 83,
      "chip": "ym2612"
    },
    {
      "channel": 0,
      "note": 33,
      "start": 48.1311,
      "duration": 0.1151,
      "velocity": 127,
      "chip": "ym2612"
    },
    {
      "channel": 1,
      "note": 47,
      "start": 48.1313,
      "duration": 0.115,
      "velocity": 88,
      "chip": "ym2612"
    },
    {
      "channel": 0,
      "note": 78,
      "start": 48.2629,
      "duration": 0.1165,
      "velocity": 127,
      "chip": "ym2612"
    },
    {
      "channel": 1,
      "note": 47,
      "start": 48.2632,
      "duration": 0.1164,
      "velocity": 88,
      "chip": "ym2612"
    },
    {
      "channel": 0,
      "note": 78,
      "start": 48.3977,
      "duration": 0.1151,
      "velocity": 107,
      "chip": "ym2612"
    },
    {
      "channel": 1,
      "note": 47,
      "start": 48.398,
      "duration": 0.115,
      "velocity": 88,
      "chip": "ym2612"
    },
    {
      "channel": 0,
      "note": 33,
      "start": 48.5312,
      "duration": 0.1149,
      "velocity": 127,
      "chip": "ym2612"
    },
    {
      "channel": 1,
      "note": 47,
      "start": 48.5314,
      "duration": 0.1148,
      "velocity": 88,
      "chip": "ym2612"
    },
    {
      "channel": 0,
      "note": 78,
      "start": 48.663,
      "duration": 0.1165,
      "velocity": 127,
      "chip": "ym2612"
    },
    {
      "channel": 1,
      "note": 47,
      "start": 48.6633,
      "duration": 0.1163,
      "velocity": 88,
      "chip": "ym2612"
    },
    {
      "channel": 2,
      "note": 77,
      "start": 48.6635,
      "duration": 0.5161,
      "velocity": 83,
      "chip": "ym2612"
    },
    {
      "channel": 0,
      "note": 78,
      "start": 48.7977,
      "duration": 0.1151,
      "velocity": 127,
      "chip": "ym2612"
    },
    {
      "channel": 1,
      "note": 47,
      "start": 48.798,
      "duration": 0.115,
      "velocity": 88,
      "chip": "ym2612"
    },
    {
      "channel": 0,
      "note": 42,
      "start": 48.9311,
      "duration": 0.115,
      "velocity": 127,
      "chip": "ym2612"
    },
    {
      "channel": 1,
      "note": 47,
      "start": 48.9313,
      "duration": 0.1149,
      "velocity": 88,
      "chip": "ym2612"
    },
    {
      "channel": 0,
      "note": 78,
      "start": 49.063,
      "duration": 0.1165,
      "velocity": 127,
      "chip": "ym2612"
    },
    {
      "channel": 1,
      "note": 47,
      "start": 49.0632,
      "duration": 0.1163,
      "velocity": 88,
      "chip": "ym2612"
    },
    {
      "channel": 0,
      "note": 78,
      "start": 49.1978,
      "duration": 0.115,
      "velocity": 107,
      "chip": "ym2612"
    },
    {
      "channel": 1,
      "note": 47,
      "start": 49.198,
      "duration": 0.1149,
      "velocity": 88,
      "chip": "ym2612"
    },
    {
      "channel": 2,
      "note": 74,
      "start": 49.1983,
      "duration": 0.2481,
      "velocity": 83,
      "chip": "ym2612"
    },
    {
      "channel": 0,
      "note": 33,
      "start": 49.331,
      "duration": 0.1151,
      "velocity": 127,
      "chip": "ym2612"
    },
    {
      "channel": 1,
      "note": 54,
      "start": 49.3313,
      "duration": 0.115,
      "velocity": 88,
      "chip": "ym2612"
    },
    {
      "channel": 0,
      "note": 78,
      "start": 49.463,
      "duration": 0.1165,
      "velocity": 127,
      "chip": "ym2612"
    },
    {
      "channel": 1,
      "note": 47,
      "start": 49.4632,
      "duration": 0.1164,
      "velocity": 88,
      "chip": "ym2612"
    },
    {
      "channel": 2,
      "note": 71,
      "start": 49.4635,
      "duration": 1.7163,
      "velocity": 83,
      "chip": "ym2612"
    },
    {
      "channel": 0,
      "note": 78,
      "start": 49.5978,
      "duration": 0.1151,
      "velocity": 107,
      "chip": "ym2612"
    },
    {
      "channel": 1,
      "note": 57,
      "start": 49.598,
      "duration": 0.115,
      "velocity": 88,
      "chip": "ym2612"
    },
    {
      "channel": 0,
      "note": 33,
      "start": 49.731,
      "duration": 0.1151,
      "velocity": 127,
      "chip": "ym2612"
    },
    {
      "channel": 1,
      "note": 47,
      "start": 49.7313,
      "duration": 0.115,
      "velocity": 88,
      "chip": "ym2612"
    },
    {
      "channel": 0,
      "note": 78,
      "start": 49.8644,
      "duration": 0.1151,
      "velocity": 127,
      "chip": "ym2612"
    },
    {
      "channel": 1,
      "note": 47,
      "start": 49.8647,
      "duration": 0.115,
      "velocity": 88,
      "chip": "ym2612"
    },
    {
      "channel": 0,
      "note": 42,
      "start": 49.9977,
      "duration": 0.1151,
      "velocity": 107,
      "chip": "ym2612"
    },
    {
      "channel": 1,
      "note": 47,
      "start": 49.998,
      "duration": 0.115,
      "velocity": 88,
      "chip": "ym2612"
    },
    {
      "channel": 0,
      "note": 33,
      "start": 50.1311,
      "duration": 0.1151,
      "velocity": 127,
      "chip": "ym2612"
    },
    {
      "channel": 1,
      "note": 44,
      "start": 50.1313,
      "duration": 0.115,
      "velocity": 88,
      "chip": "ym2612"
    },
    {
      "channel": 0,
      "note": 78,
      "start": 50.2629,
      "duration": 0.1167,
      "velocity": 127,
      "chip": "ym2612"
    },
    {
      "channel": 1,
      "note": 56,
      "start": 50.2632,
      "duration": 0.1165,
      "velocity": 88,
      "chip": "ym2612"
    },
    {
      "channel": 0,
      "note": 78,
      "start": 50.3977,
      "duration": 0.1151,
      "velocity": 127,
      "chip": "ym2612"
    },
    {
      "channel": 1,
      "note": 44,
      "start": 50.398,
      "duration": 0.115,
      "velocity": 88,
      "chip": "ym2612"
    },
    {
      "channel": 0,
      "note": 42,
      "start": 50.5311,
      "duration": 0.115,
      "velocity": 127,
      "chip": "ym2612"
    },
    {
      "channel": 1,
      "note": 45,
      "start": 50.5313,
      "duration": 0.1149,
      "velocity": 88,
      "chip": "ym2612"
    },
    {
      "channel": 0,
      "note": 78,
      "start": 50.6629,
      "duration": 0.1165,
      "velocity": 127,
      "chip": "ym2612"
    },
    {
      "channel": 1,
      "note": 57,
      "start": 50.6632,
      "duration": 0.1164,
      "velocity": 88,
      "chip": "ym2612"
    },
    {
      "channel": 0,
      "note": 78,
      "start": 50.7977,
      "duration": 0.1151,
      "velocity": 107,
      "chip": "ym2612"
    },
    {
      "channel": 1,
      "note": 45,
      "start": 50.798,
      "duration": 0.115,
      "velocity": 88,
      "chip": "ym2612"
    },
    {
      "channel": 0,
      "note": 33,
      "start": 50.9311,
      "duration": 0.1151,
      "velocity": 127,
      "chip": "ym2612"
    },
    {
      "channel": 1,
      "note": 46,
      "start": 50.9313,
      "duration": 0.1149,
      "velocity": 88,
      "chip": "ym2612"
    },
    {
      "channel": 0,
      "note": 78,
      "start": 51.0644,
      "duration": 0.1151,
      "velocity": 127,
      "chip": "ym2612"
    },
    {
      "channel": 1,
      "note": 58,
      "start": 51.0646,
      "duration": 0.115,
      "velocity": 88,
      "chip": "ym2612"
    },
    {
      "channel": 0,
      "note": 42,
      "start": 51.1978,
      "duration": 0.1149,
      "velocity": 107,
      "chip": "ym2612"
    },
    {
      "channel": 1,
      "note": 46,
      "start": 51.1981,
      "duration": 0.1148,
      "velocity": 88,
      "chip": "ym2612"
    },
    {
      "channel": 2,
      "note": 70,
      "start": 51.1983,
      "duration": 0.6481,
      "velocity": 83,
      "chip": "ym2612"
    },
    {
      "channel": 0,
      "note": 33,
      "start": 51.331,
      "duration": 0.1151,
      "velocity": 127,
      "chip": "ym2612"
    },
    {
      "channel": 1,
      "note": 47,
      "start": 51.3313,
      "duration": 0.115,
      "velocity": 88,
      "chip": "ym2612"
    },
    {
      "channel": 0,
      "note": 78,
      "start": 51.463,
      "duration": 0.1165,
      "velocity": 127,
      "chip": "ym2612"
    },
    {
      "channel": 1,
      "note": 47,
      "start": 51.4633,
      "duration": 0.1163,
      "velocity": 88,
      "chip": "ym2612"
    },
    {
      "channel": 0,
      "note": 78,
      "start": 51.5978,
      "duration": 0.115,
      "velocity": 107,
      "chip": "ym2612"
    },
    {
      "channel": 1,
      "note": 47,
      "start": 51.598,
      "duration": 0.1149,
      "velocity": 88,
      "chip": "ym2612"
    },
    {
      "channel": 0,
      "note": 33,
      "start": 51.731,
      "duration": 0.1151,
      "velocity": 127,
      "chip": "ym2612"
    },
    {
      "channel": 1,
      "note": 47,
      "start": 51.7313,
      "duration": 0.115,
      "velocity": 88,
      "chip": "ym2612"
    },
    {
      "channel": 0,
      "note": 78,
      "start": 51.863,
      "duration": 0.1166,
      "velocity": 127,
      "chip": "ym2612"
    },
    {
      "channel": 1,
      "note": 47,
      "start": 51.8632,
      "duration": 0.1165,
      "velocity": 88,
      "chip": "ym2612"
    },
    {
      "channel": 2,
      "note": 77,
      "start": 51.8635,
      "duration": 0.5162,
      "velocity": 83,
      "chip": "ym2612"
    },
    {
      "channel": 0,
      "note": 78,
      "start": 51.9977,
      "duration": 0.1151,
      "velocity": 127,
      "chip": "ym2612"
    },
    {
      "channel": 1,
      "note": 47,
      "start": 51.998,
      "duration": 0.115,
      "velocity": 88,
      "chip": "ym2612"
    },
    {
      "channel": 0,
      "note": 42,
      "start": 52.1311,
      "duration": 0.115,
      "velocity": 127,
      "chip": "ym2612"
    },
    {
      "channel": 1,
      "note": 47,
      "start": 52.1313,
      "duration": 0.1149,
      "velocity": 88,
      "chip": "ym2612"
    },
    {
      "channel": 0,
      "note": 78,
      "start": 52.263,
      "duration": 0.1165,
      "velocity": 127,
      "chip": "ym2612"
    },
    {
      "channel": 1,
      "note": 47,
      "start": 52.2632,
      "duration": 0.1163,
      "velocity": 88,
      "chip": "ym2612"
    },
    {
      "channel": 0,
      "note": 78,
      "start": 52.3978,
      "duration": 0.1151,
      "velocity": 107,
      "chip": "ym2612"
    },
    {
      "channel": 1,
      "note": 47,
      "start": 52.398,
      "duration": 0.115,
      "velocity": 88,
      "chip": "ym2612"
    },
    {
      "channel": 2,
      "note": 74,
      "start": 52.3983,
      "duration": 0.2481,
      "velocity": 83,
      "chip": "ym2612"
    },
    {
      "channel": 0,
      "note": 33,
      "start": 52.531,
      "duration": 0.1151,
      "velocity": 127,
      "chip": "ym2612"
    },
    {
      "channel": 1,
      "note": 54,
      "start": 52.5313,
      "duration": 0.115,
      "velocity": 88,
      "chip": "ym2612"
    },
    {
      "channel": 0,
      "note": 78,
      "start": 52.663,
      "duration": 0.1165,
      "velocity": 127,
      "chip": "ym2612"
    },
    {
      "channel": 1,
      "note": 47,
      "start": 52.6633,
      "duration": 0.1163,
      "velocity": 88,
      "chip": "ym2612"
    },
    {
      "channel": 2,
      "note": 71,
      "start": 52.6635,
      "duration": 1.5829,
      "velocity": 83,
      "chip": "ym2612"
    },
    {
      "channel": 0,
      "note": 78,
      "start": 52.7978,
      "duration": 0.115,
      "velocity": 107,
      "chip": "ym2612"
    },
    {
      "channel": 1,
      "note": 56,
      "start": 52.798,
      "duration": 0.1149,
      "velocity": 88,
      "chip": "ym2612"
    },
    {
      "channel": 0,
      "note": 33,
      "start": 52.931,
      "duration": 0.1151,
      "velocity": 127,
      "chip": "ym2612"
    },
    {
      "channel": 1,
      "note": 47,
      "start": 52.9313,
      "duration": 0.115,
      "velocity": 88,
      "chip": "ym2612"
    },
    {
      "channel": 0,
      "note": 78,
      "start": 53.063,
      "duration": 0.1165,
      "velocity": 127,
      "chip": "ym2612"
    },
    {
      "channel": 1,
      "note": 47,
      "start": 53.0633,
      "duration": 0.1163,
      "velocity": 88,
      "chip": "ym2612"
    },
    {
      "channel": 0,
      "note": 78,
      "start": 53.1978,
      "duration": 0.115,
      "velocity": 107,
      "chip": "ym2612"
    },
    {
      "channel": 1,
      "note": 47,
      "start": 53.198,
      "duration": 0.1149,
      "velocity": 88,
      "chip": "ym2612"
    },
    {
      "channel": 0,
      "note": 33,
      "start": 53.331,
      "duration": 0.1151,
      "velocity": 127,
      "chip": "ym2612"
    },
    {
      "channel": 1,
      "note": 44,
      "start": 53.3313,
      "duration": 0.115,
      "velocity": 88,
      "chip": "ym2612"
    },
    {
      "channel": 0,
      "note": 78,
      "start": 53.463,
      "duration": 0.1165,
      "velocity": 127,
      "chip": "ym2612"
    },
    {
      "channel": 1,
      "note": 56,
      "start": 53.4633,
      "duration": 0.1163,
      "velocity": 88,
      "chip": "ym2612"
    },
    {
      "channel": 0,
      "note": 78,
      "start": 53.5978,
      "duration": 0.115,
      "velocity": 127,
      "chip": "ym2612"
    },
    {
      "channel": 1,
      "note": 44,
      "start": 53.598,
      "duration": 0.1149,
      "velocity": 88,
      "chip": "ym2612"
    },
    {
      "channel": 0,
      "note": 42,
      "start": 53.731,
      "duration": 0.1151,
      "velocity": 127,
      "chip": "ym2612"
    },
    {
      "channel": 1,
      "note": 45,
      "start": 53.7313,
      "duration": 0.115,
      "velocity": 88,
      "chip": "ym2612"
    },
    {
      "channel": 0,
      "note": 78,
      "start": 53.863,
      "duration": 0.1165,
      "velocity": 127,
      "chip": "ym2612"
    },
    {
      "channel": 1,
      "note": 57,
      "start": 53.8633,
      "duration": 0.1163,
      "velocity": 88,
      "chip": "ym2612"
    },
    {
      "channel": 0,
      "note": 78,
      "start": 53.9978,
      "duration": 0.115,
      "velocity": 107,
      "chip": "ym2612"
    },
    {
      "channel": 1,
      "note": 45,
      "start": 53.998,
      "duration": 0.1149,
      "velocity": 88,
      "chip": "ym2612"
    },
    {
      "channel": 0,
      "note": 33,
      "start": 54.1311,
      "duration": 0.1151,
      "velocity": 127,
      "chip": "ym2612"
    },
    {
      "channel": 1,
      "note": 46,
      "start": 54.1313,
      "duration": 0.115,
      "velocity": 88,
      "chip": "ym2612"
    },
    {
      "channel": 0,
      "note": 78,
      "start": 54.2645,
      "duration": 0.115,
      "velocity": 127,
      "chip": "ym2612"
    },
    {
      "channel": 1,
      "note": 58,
      "start": 54.2647,
      "duration": 0.1149,
      "velocity": 88,
      "chip": "ym2612"
    },
    {
      "channel": 2,
      "note": 74,
      "start": 54.265,
      "duration": 0.1148,
      "velocity": 83,
      "chip": "ym2612"
    },
    {
      "channel": 0,
      "note": 42,
      "start": 54.3978,
      "duration": 0.1149,
      "velocity": 107,
      "chip": "ym2612"
    },
    {
      "channel": 1,
      "note": 46,
      "start": 54.3981,
      "duration": 0.1148,
      "velocity": 88,
      "chip": "ym2612"
    },
    {
      "channel": 2,
      "note": 74,
      "start": 54.3983,
      "duration": 0.1147,
      "velocity": 83,
      "chip": "ym2612"
    },
    {
      "channel": 0,
      "note": 33,
      "start": 54.5311,
      "duration": 0.115,
      "velocity": 127,
      "chip": "ym2612"
    },
    {
      "channel": 1,
      "note": 50,
      "start": 54.5313,
      "duration": 0.1149,
      "velocity": 88,
      "chip": "ym2612"
    },
    {
      "channel": 2,
      "note": 78,
      "start": 54.5316,
      "duration": 0.0481,
      "velocity": 83,
      "chip": "ym2612"
    },
    {
      "channel": 2,
      "note": 76,
      "start": 54.5963,
      "duration": 0.05,
      "velocity": 83,
      "chip": "ym2612"
    },
    {
      "channel": 0,
      "note": 78,
      "start": 54.663,
      "duration": 0.1165,
      "velocity": 127,
      "chip": "ym2612"
    },
    {
      "channel": 1,
      "note": 50,
      "start": 54.6633,
      "duration": 0.1163,
      "velocity": 88,
      "chip": "ym2612"
    },
    {
      "channel": 2,
      "note": 74,
      "start": 54.6635,
      "duration": 0.1161,
      "velocity": 83,
      "chip": "ym2612"
    },
    {
      "channel": 0,
      "note": 78,
      "start": 54.7978,
      "duration": 0.1149,
      "velocity": 107,
      "chip": "ym2612"
    },
    {
      "channel": 1,
      "note": 50,
      "start": 54.7981,
      "duration": 0.1148,
      "velocity": 88,
      "chip": "ym2612"
    },
    {
      "channel": 2,
      "note": 71,
      "start": 54.7983,
      "duration": 0.1147,
      "velocity": 83,
      "chip": "ym2612"
    },
    {
      "channel": 0,
      "note": 33,
      "start": 54.9311,
      "duration": 0.115,
      "velocity": 127,
      "chip": "ym2612"
    },
    {
      "channel": 1,
      "note": 47,
      "start": 54.9313,
      "duration": 0.1149,
      "velocity": 88,
      "chip": "ym2612"
    },
    {
      "channel": 2,
      "note": 78,
      "start": 54.9316,
      "duration": 0.0481,
      "velocity": 83,
      "chip": "ym2612"
    },
    {
      "channel": 2,
      "note": 76,
      "start": 54.9963,
      "duration": 0.05,
      "velocity": 83,
      "chip": "ym2612"
    },
    {
      "channel": 0,
      "note": 78,
      "start": 55.063,
      "duration": 0.1165,
      "velocity": 127,
      "chip": "ym2612"
    },
    {
      "channel": 1,
      "note": 47,
      "start": 55.0633,
      "duration": 0.1163,
      "velocity": 88,
      "chip": "ym2612"
    },
    {
      "channel": 2,
      "note": 74,
      "start": 55.0635,
      "duration": 0.1161,
      "velocity": 83,
      "chip": "ym2612"
    },
    {
      "channel": 0,
      "note": 78,
      "start": 55.1977,
      "duration": 0.1151,
      "velocity": 127,
      "chip": "ym2612"
    },
    {
      "channel": 1,
      "note": 47,
      "start": 55.198,
      "duration": 0.1149,
      "velocity": 88,
      "chip": "ym2612"
    },
    {
      "channel": 2,
      "note": 71,
      "start": 55.1982,
      "duration": 0.1148,
      "velocity": 83,
      "chip": "ym2612"
    },
    {
      "channel": 0,
      "note": 42,
      "start": 55.3311,
      "duration": 0.115,
      "velocity": 127,
      "chip": "ym2612"
    },
    {
      "channel": 1,
      "note": 48,
      "start": 55.3313,
      "duration": 0.1149,
      "velocity": 88,
      "chip": "ym2612"
    },
    {
      "channel": 2,
      "note": 78,
      "start": 55.3316,
      "duration": 0.0481,
      "velocity": 83,
      "chip": "ym2612"
    },
    {
      "channel": 2,
      "note": 76,
      "start": 55.3963,
      "duration": 0.05,
      "velocity": 83,
      "chip": "ym2612"
    },
    {
      "channel": 0,
      "note": 78,
      "start": 55.463,
      "duration": 0.1165,
      "velocity": 127,
      "chip": "ym2612"
    },
    {
      "channel": 1,
      "note": 48,
      "start": 55.4633,
      "duration": 0.1163,
      "velocity": 88,
      "chip": "ym2612"
    },
    {
      "channel": 2,
      "note": 74,
      "start": 55.4635,
      "duration": 0.1161,
      "velocity": 83,
      "chip": "ym2612"
    },
    {
      "channel": 0,
      "note": 78,
      "start": 55.5978,
      "duration": 0.1149,
      "velocity": 107,
      "chip": "ym2612"
    },
    {
      "channel": 1,
      "note": 48,
      "start": 55.5981,
      "duration": 0.1148,
      "velocity": 88,
      "chip": "ym2612"
    },
    {
      "channel": 2,
      "note": 71,
      "start": 55.5983,
      "duration": 0.1147,
      "velocity": 83,
      "chip": "ym2612"
    },
    {
      "channel": 0,
      "note": 33,
      "start": 55.7311,
      "duration": 0.1151,
      "velocity": 127,
      "chip": "ym2612"
    },
    {
      "channel": 1,
      "note": 50,
      "start": 55.7313,
      "duration": 0.1149,
      "velocity": 88,
      "chip": "ym2612"
    },
    {
      "channel": 2,
      "note": 78,
      "start": 55.7316,
      "duration": 0.0479,
      "velocity": 83,
      "chip": "ym2612"
    },
    {
      "channel": 2,
      "note": 76,
      "start": 55.7963,
      "duration": 0.05,
      "velocity": 83,
      "chip": "ym2612"
    },
    {
      "channel": 0,
      "note": 78,
      "start": 55.863,
      "duration": 0.1165,
      "velocity": 127,
      "chip": "ym2612"
    },
    {
      "channel": 1,
      "note": 50,
      "start": 55.8633,
      "duration": 0.1163,
      "velocity": 88,
      "chip": "ym2612"
    },
    {
      "channel": 2,
      "note": 74,
      "start": 55.8635,
      "duration": 0.1161,
      "velocity": 83,
      "chip": "ym2612"
    },
    {
      "channel": 0,
      "note": 78,
      "start": 55.9978,
      "duration": 0.115,
      "velocity": 107,
      "chip": "ym2612"
    },
    {
      "channel": 1,
      "note": 50,
      "start": 55.9981,
      "duration": 0.1148,
      "velocity": 88,
      "chip": "ym2612"
    },
    {
      "channel": 2,
      "note": 71,
      "start": 55.9983,
      "duration": 0.0479,
      "velocity": 83,
      "chip": "ym2612"
    },
    {
      "channel": 2,
      "note": 81,
      "start": 56.063,
      "duration": 0.05,
      "velocity": 83,
      "chip": "ym2612"
    },
    {
      "channel": 0,
      "note": 33,
      "start": 56.1312,
      "duration": 0.115,
      "velocity": 127,
      "chip": "ym2612"
    },
    {
      "channel": 1,
      "note": 52,
      "start": 56.1314,
      "duration": 0.1149,
      "velocity": 88,
      "chip": "ym2612"
    },
    {
      "channel": 2,
      "note": 78,
      "start": 56.1317,
      "duration": 0.0479,
      "velocity": 83,
      "chip": "ym2612"
    },
    {
      "channel": 2,
      "note": 76,
      "start": 56.1963,
      "duration": 0.05,
      "velocity": 83,
      "chip": "ym2612"
    },
    {
      "channel": 0,
      "note": 78,
      "start": 56.2644,
      "duration": 0.1151,
      "velocity": 127,
      "chip": "ym2612"
    },
    {
      "channel": 1,
      "note": 52,
      "start": 56.2646,
      "duration": 0.115,
      "velocity": 88,
      "chip": "ym2612"
    },
    {
      "channel": 2,
      "note": 74,
      "start": 56.2649,
      "duration": 0.048,
      "velocity": 83,
      "chip": "ym2612"
    },
    {
      "channel": 2,
      "note": 71,
      "start": 56.3296,
      "duration": 0.05,
      "velocity": 83,
      "chip": "ym2612"
    },
    {
      "channel": 0,
      "note": 42,
      "start": 56.3977,
      "duration": 0.1151,
      "velocity": 107,
      "chip": "ym2612"
    },
    {
      "channel": 1,
      "note": 52,
      "start": 56.398,
      "duration": 0.115,
      "velocity": 88,
      "chip": "ym2612"
    },
    {
      "channel": 2,
      "note": 81,
      "start": 56.3982,
      "duration": 0.048,
      "velocity": 83,
      "chip": "ym2612"
    },
    {
      "channel": 2,
      "note": 78,
      "start": 56.463,
      "duration": 0.05,
      "velocity": 83,
      "chip": "ym2612"
    },
    {
      "channel": 0,
      "note": 33,
      "start": 56.5312,
      "duration": 0.115,
      "velocity": 127,
      "chip": "ym2612"
    },
    {
      "channel": 1,
      "note": 49,
      "start": 56.5314,
      "duration": 0.1149,
      "velocity": 88,
      "chip": "ym2612"
    },
    {
      "channel": 2,
      "note": 76,
      "start": 56.5317,
      "duration": 0.0479,
      "velocity": 83,
      "chip": "ym2612"
    },
    {
      "channel": 2,
      "note": 74,
      "start": 56.5963,
      "duration": 0.0501,
      "velocity": 83,
      "chip": "ym2612"
    },
    {
      "channel": 0,
      "note": 78,
      "start": 56.6629,
      "duration": 0.1167,
      "velocity": 127,
      "chip": "ym2612"
    },
    {
      "channel": 1,
      "note": 61,
      "start": 56.6632,
      "duration": 0.1165,
      "velocity": 88,
      "chip": "ym2612"
    },
    {
      "channel": 2,
      "note": 71,
      "start": 56.6634,
      "duration": 0.0496,
      "velocity": 83,
      "chip": "ym2612"
    },
    {
      "channel": 2,
      "note": 81,
      "start": 56.7296,
      "duration": 0.0502,
      "velocity": 83,
      "chip": "ym2612"
    },
    {
      "channel": 0,
      "note": 78,
      "start": 56.7978,
      "duration": 0.1151,
      "velocity": 127,
      "chip": "ym2612"
    },
    {
      "channel": 1,
      "note": 49,
      "start": 56.798,
      "duration": 0.115,
      "velocity": 88,
      "chip": "ym2612"
    },
    {
      "channel": 2,
      "note": 78,
      "start": 56.7983,
      "duration": 0.048,
      "velocity": 83,
      "chip": "ym2612"
    },
    {
      "channel": 2,
      "note": 76,
      "start": 56.8629,
      "duration": 0.0502,
      "velocity": 83,
      "chip": "ym2612"
    },
    {
      "channel": 0,
      "note": 42,
      "start": 56.9311,
      "duration": 0.1151,
      "velocity": 127,
      "chip": "ym2612"
    },
    {
      "channel": 1,
      "note": 50,
      "start": 56.9313,
      "duration": 0.115,
      "velocity": 88,
      "chip": "ym2612"
    },
    {
      "channel": 2,
      "note": 74,
      "start": 56.9316,
      "duration": 0.048,
      "velocity": 83,
      "chip": "ym2612"
    },
    {
      "channel": 2,
      "note": 71,
      "start": 56.9962,
      "duration": 0.0502,
      "velocity": 83,
      "chip": "ym2612"
    },
    {
      "channel": 0,
      "note": 78,
      "start": 57.063,
      "duration": 0.1165,
      "velocity": 127,
      "chip": "ym2612"
    },
    {
      "channel": 1,
      "note": 62,
      "start": 57.0632,
      "duration": 0.1163,
      "velocity": 88,
      "chip": "ym2612"
    },
    {
      "channel": 2,
      "note": 81,
      "start": 57.0635,
      "duration": 0.0494,
      "velocity": 83,
      "chip": "ym2612"
    },
    {
      "channel": 2,
      "note": 78,
      "start": 57.1296,
      "duration": 0.05,
      "velocity": 83,
      "chip": "ym2612"
    },
    {
      "channel": 0,
      "note": 78,
      "start": 57.1978,
      "duration": 0.115,
      "velocity": 107,
      "chip": "ym2612"
    },
    {
      "channel": 1,
      "note": 50,
      "start": 57.1981,
      "duration": 0.1149,
      "velocity": 88,
      "chip": "ym2612"
    },
    {
      "channel": 2,
      "note": 76,
      "start": 57.1983,
      "duration": 0.0479,
      "velocity": 83,
      "chip": "ym2612"
    },
    {
      "channel": 2,
      "note": 74,
      "start": 57.263,
      "duration": 0.05,
      "velocity": 83,
      "chip": "ym2612"
    },
    {
      "channel": 0,
      "note": 33,
      "start": 57.331,
      "duration": 0.1151,
      "velocity": 127,
      "chip": "ym2612"
    },
    {
      "channel": 1,
      "note": 52,
      "start": 57.3313,
      "duration": 0.1149,
      "velocity": 88,
      "chip": "ym2612"
    },
    {
      "channel": 2,
      "note": 71,
      "start": 57.3315,
      "duration": 0.048,
      "velocity": 83,
      "chip": "ym2612"
    },
    {
      "channel": 2,
      "note": 81,
      "start": 57.3963,
      "duration": 0.05,
      "velocity": 83,
      "chip": "ym2612"
    },
    {
      "channel": 0,
      "note": 78,
      "start": 57.4645,
      "duration": 0.115,
      "velocity": 127,
      "chip": "ym2612"
    },
    {
      "channel": 1,
      "note": 64,
      "start": 57.4647,
      "duration": 0.1149,
      "velocity": 88,
      "chip": "ym2612"
    },
    {
      "channel": 2,
      "note": 78,
      "start": 57.465,
      "duration": 0.0479,
      "velocity": 83,
      "chip": "ym2612"
    },
    {
      "channel": 2,
      "note": 76,
      "start": 57.5296,
      "duration": 0.05,
      "velocity": 83,
      "chip": "ym2612"
    },
    {
      "channel": 0,
      "note": 42,
      "start": 57.5978,
      "duration": 0.1151,
      "velocity": 107,
      "chip": "ym2612"
    },
    {
      "channel": 1,
      "note": 52,
      "start": 57.5981,
      "duration": 0.1149,
      "velocity": 88,
      "chip": "ym2612"
    },
    {
      "channel": 2,
      "note": 74,
      "start": 57.5983,
      "duration": 0.6481,
      "velocity": 83,
      "chip": "ym2612"
    },
    {
      "channel": 0,
      "note": 33,
      "start": 57.731,
      "duration": 0.1151,
      "velocity": 127,
      "chip": "ym2612"
    },
    {
      "channel": 1,
      "note": 50,
      "start": 57.7313,
      "duration": 0.115,
      "velocity": 88,
      "chip": "ym2612"
    },
    {
      "channel": 0,
      "note": 78,
      "start": 57.863,
      "duration": 0.1165,
      "velocity": 127,
      "chip": "ym2612"
    },
    {
      "channel": 1,
      "note": 50,
      "start": 57.8633,
      "duration": 0.1163,
      "velocity": 88,
      "chip": "ym2612"
    },
    {
      "channel": 0,
      "note": 78,
      "start": 57.9978,
      "duration": 0.1151,
      "velocity": 107,
      "chip": "ym2612"
    },
    {
      "channel": 1,
      "note": 50,
      "start": 57.998,
      "duration": 0.1149,
      "velocity": 88,
      "chip": "ym2612"
    },
    {
      "channel": 0,
      "note": 33,
      "start": 58.131,
      "duration": 0.1151,
      "velocity": 127,
      "chip": "ym2612"
    },
    {
      "channel": 1,
      "note": 50,
      "start": 58.1313,
      "duration": 0.115,
      "velocity": 88,
      "chip": "ym2612"
    },
    {
      "channel": 0,
      "note": 78,
      "start": 58.263,
      "duration": 0.1165,
      "velocity": 127,
      "chip": "ym2612"
    },
    {
      "channel": 1,
      "note": 50,
      "start": 58.2632,
      "duration": 0.1163,
      "velocity": 88,
      "chip": "ym2612"
    },
    {
      "channel": 2,
      "note": 77,
      "start": 58.2635,
      "duration": 0.5163,
      "velocity": 83,
      "chip": "ym2612"
    },
    {
      "channel": 0,
      "note": 78,
      "start": 58.3977,
      "duration": 0.1151,
      "velocity": 127,
      "chip": "ym2612"
    },
    {
      "channel": 1,
      "note": 50,
      "start": 58.398,
      "duration": 0.115,
      "velocity": 88,
      "chip": "ym2612"
    },
    {
      "channel": 0,
      "note": 42,
      "start": 58.5311,
      "duration": 0.115,
      "velocity": 127,
      "chip": "ym2612"
    },
    {
      "channel": 1,
      "note": 50,
      "start": 58.5313,
      "duration": 0.1149,
      "velocity": 88,
      "chip": "ym2612"
    },
    {
      "channel": 0,
      "note": 78,
      "start": 58.663,
      "duration": 0.1166,
      "velocity": 127,
      "chip": "ym2612"
    },
    {
      "channel": 1,
      "note": 50,
      "start": 58.6632,
      "duration": 0.1165,
      "velocity": 88,
      "chip": "ym2612"
    },
    {
      "channel": 0,
      "note": 78,
      "start": 58.7978,
      "duration": 0.1151,
      "velocity": 107,
      "chip": "ym2612"
    },
    {
      "channel": 1,
      "note": 50,
      "start": 58.798,
      "duration": 0.115,
      "velocity": 88,
      "chip": "ym2612"
    },
    {
      "channel": 2,
      "note": 74,
      "start": 58.7983,
      "duration": 0.2481,
      "velocity": 83,
      "chip": "ym2612"
    },
    {
      "channel": 0,
      "note": 33,
      "start": 58.9311,
      "duration": 0.115,
      "velocity": 127,
      "chip": "ym2612"
    },
    {
      "channel": 1,
      "note": 50,
      "start": 58.9313,
      "duration": 0.1149,
      "velocity": 88,
      "chip": "ym2612"
    },
    {
      "channel": 0,
      "note": 78,
      "start": 59.063,
      "duration": 0.1165,
      "velocity": 127,
      "chip": "ym2612"
    },
    {
      "channel": 1,
      "note": 50,
      "start": 59.0633,
      "duration": 0.1163,
      "velocity": 88,
      "chip": "ym2612"
    },
    {
      "channel": 2,
      "note": 71,
      "start": 59.0635,
      "duration": 1.7161,
      "velocity": 83,
      "chip": "ym2612"
    },
    {
      "channel": 0,
      "note": 78,
      "start": 59.1978,
      "duration": 0.115,
      "velocity": 107,
      "chip": "ym2612"
    },
    {
      "channel": 1,
      "note": 50,
      "start": 59.198,
      "duration": 0.1149,
      "velocity": 88,
      "chip": "ym2612"
    },
    {
      "channel": 0,
      "note": 33,
      "start": 59.331,
      "duration": 0.1151,
      "velocity": 127,
      "chip": "ym2612"
    },
    {
      "channel": 1,
      "note": 50,
      "start": 59.3313,
      "duration": 0.115,
      "velocity": 88,
      "chip": "ym2612"
    },
    {
      "channel": 0,
      "note": 78,
      "start": 59.463,
      "duration": 0.1165,
      "velocity": 127,
      "chip": "ym2612"
    },
    {
      "channel": 1,
      "note": 50,
      "start": 59.4633,
      "duration": 0.1163,
      "velocity": 88,
      "chip": "ym2612"
    },
    {
      "channel": 0,
      "note": 78,
      "start": 59.5978,
      "duration": 0.115,
      "velocity": 107,
      "chip": "ym2612"
    },
    {
      "channel": 1,
      "note": 50,
      "start": 59.598,
      "duration": 0.1149,
      "velocity": 88,
      "chip": "ym2612"
    },
    {
      "channel": 0,
      "note": 33,
      "start": 59.731,
      "duration": 0.1151,
      "velocity": 127,
      "chip": "ym2612"
    },
    {
      "channel": 1,
      "note": 50,
      "start": 59.7313,
      "duration": 0.115,
      "velocity": 88,
      "chip": "ym2612"
    },
    {
      "channel": 0,
      "note": 78,
      "start": 59.863,
      "duration": 0.1165,
      "velocity": 127,
      "chip": "ym2612"
    },
    {
      "channel": 1,
      "note": 50,
      "start": 59.8633,
      "duration": 0.1163,
      "velocity": 88,
      "chip": "ym2612"
    },
    {
      "channel": 0,
      "note": 78,
      "start": 59.9978,
      "duration": 0.115,
      "velocity": 127,
      "chip": "ym2612"
    },
    {
      "channel": 1,
      "note": 50,
      "start": 59.998,
      "duration": 0.1149,
      "velocity": 88,
      "chip": "ym2612"
    },
    {
      "channel": 0,
      "note": 42,
      "start": 60.131,
      "duration": 0.1151,
      "velocity": 127,
      "chip": "ym2612"
    },
    {
      "channel": 1,
      "note": 50,
      "start": 60.1313,
      "duration": 0.115,
      "velocity": 88,
      "chip": "ym2612"
    },
    {
      "channel": 0,
      "note": 78,
      "start": 60.263,
      "duration": 0.1165,
      "velocity": 127,
      "chip": "ym2612"
    },
    {
      "channel": 1,
      "note": 50,
      "start": 60.2633,
      "duration": 0.1163,
      "velocity": 88,
      "chip": "ym2612"
    },
    {
      "channel": 0,
      "note": 78,
      "start": 60.3978,
      "duration": 0.115,
      "velocity": 107,
      "chip": "ym2612"
    },
    {
      "channel": 1,
      "note": 50,
      "start": 60.398,
      "duration": 0.1149,
      "velocity": 88,
      "chip": "ym2612"
    },
    {
      "channel": 0,
      "note": 33,
      "start": 60.531,
      "duration": 0.1151,
      "velocity": 127,
      "chip": "ym2612"
    },
    {
      "channel": 1,
      "note": 50,
      "start": 60.5313,
      "duration": 0.115,
      "velocity": 88,
      "chip": "ym2612"
    },
    {
      "channel": 0,
      "note": 78,
      "start": 60.6644,
      "duration": 0.115,
      "velocity": 127,
      "chip": "ym2612"
    },
    {
      "channel": 1,
      "note": 50,
      "start": 60.6647,
      "duration": 0.1149,
      "velocity": 88,
      "chip": "ym2612"
    },
    {
      "channel": 0,
      "note": 42,
      "start": 60.7978,
      "duration": 0.1151,
      "velocity": 107,
      "chip": "ym2612"
    },
    {
      "channel": 1,
      "note": 50,
      "start": 60.798,
      "duration": 0.115,
      "velocity": 88,
      "chip": "ym2612"
    },
    {
      "channel": 2,
      "note": 74,
      "start": 60.7983,
      "duration": 0.6481,
      "velocity": 83,
      "chip": "ym2612"
    },
    {
      "channel": 0,
      "note": 33,
      "start": 60.9312,
      "duration": 0.115,
      "velocity": 127,
      "chip": "ym2612"
    },
    {
      "channel": 1,
      "note": 50,
      "start": 60.9314,
      "duration": 0.1148,
      "velocity": 88,
      "chip": "ym2612"
    },
    {
      "channel": 0,
      "note": 78,
      "start": 61.063,
      "duration": 0.1165,
      "velocity": 127,
      "chip": "ym2612"
    },
    {
      "channel": 1,
      "note": 50,
      "start": 61.0632,
      "duration": 0.1163,
      "velocity": 88,
      "chip": "ym2612"
    },
    {
      "channel": 0,
      "note": 78,
      "start": 61.1977,
      "duration": 0.1151,
      "velocity": 107,
      "chip": "ym2612"
    },
    {
      "channel": 1,
      "note": 50,
      "start": 61.198,
      "duration": 0.115,
      "velocity": 88,
      "chip": "ym2612"
    },
    {
      "channel": 0,
      "note": 33,
      "start": 61.3311,
      "duration": 0.115,
      "velocity": 127,
      "chip": "ym2612"
    },
    {
      "channel": 1,
      "note": 50,
      "start": 61.3313,
      "duration": 0.1149,
      "velocity": 88,
      "chip": "ym2612"
    },
    {
      "channel": 0,
      "note": 78,
      "start": 61.463,
      "duration": 0.1165,
      "velocity": 127,
      "chip": "ym2612"
    },
    {
      "channel": 1,
      "note": 50,
      "start": 61.4633,
      "duration": 0.1163,
      "velocity": 88,
      "chip": "ym2612"
    },
    {
      "channel": 2,
      "note": 77,
      "start": 61.4635,
      "duration": 0.5161,
      "velocity": 83,
      "chip": "ym2612"
    },
    {
      "channel": 0,
      "note": 78,
      "start": 61.5978,
      "duration": 0.115,
      "velocity": 127,
      "chip": "ym2612"
    },
    {
      "channel": 1,
      "note": 50,
      "start": 61.598,
      "duration": 0.1149,
      "velocity": 88,
      "chip": "ym2612"
    },
    {
      "channel": 0,
      "note": 42,
      "start": 61.731,
      "duration": 0.1151,
      "velocity": 127,
      "chip": "ym2612"
    },
    {
      "channel": 1,
      "note": 50,
      "start": 61.7313,
      "duration": 0.115,
      "velocity": 88,
      "chip": "ym2612"
    },
    {
      "channel": 0,
      "note": 78,
      "start": 61.863,
      "duration": 0.1165,
      "velocity": 127,
      "chip": "ym2612"
    },
    {
      "channel": 1,
      "note": 50,
      "start": 61.8633,
      "duration": 0.1163,
      "velocity": 88,
      "chip": "ym2612"
    },
    {
      "channel": 0,
      "note": 78,
      "start": 61.9978,
      "duration": 0.1149,
      "velocity": 107,
      "chip": "ym2612"
    },
    {
      "channel": 1,
      "note": 50,
      "start": 61.9981,
      "duration": 0.1148,
      "velocity": 88,
      "chip": "ym2612"
    },
    {
      "channel": 2,
      "note": 74,
      "start": 61.9983,
      "duration": 0.2481,
      "velocity": 83,
      "chip": "ym2612"
    },
    {
      "channel": 0,
      "note": 33,
      "start": 62.131,
      "duration": 0.1151,
      "velocity": 127,
      "chip": "ym2612"
    },
    {
      "channel": 1,
      "note": 50,
      "start": 62.1313,
      "duration": 0.115,
      "velocity": 88,
      "chip": "ym2612"
    },
    {
      "channel": 0,
      "note": 78,
      "start": 62.2631,
      "duration": 0.1164,
      "velocity": 127,
      "chip": "ym2612"
    },
    {
      "channel": 1,
      "note": 50,
      "start": 62.2633,
      "duration": 0.1163,
      "velocity": 88,
      "chip": "ym2612"
    },
    {
      "channel": 2,
      "note": 71,
      "start": 62.2636,
      "duration": 1.7161,
      "velocity": 83,
      "chip": "ym2612"
    },
    {
      "channel": 0,
      "note": 78,
      "start": 62.3978,
      "duration": 0.1151,
      "velocity": 107,
      "chip": "ym2612"
    },
    {
      "channel": 1,
      "note": 50,
      "start": 62.398,
      "duration": 0.115,
      "velocity": 88,
      "chip": "ym2612"
    },
    {
      "channel": 0,
      "note": 33,
      "start": 62.531,
      "duration": 0.1151,
      "velocity": 127,
      "chip": "ym2612"
    },
    {
      "channel": 1,
      "note": 50,
      "start": 62.5313,
      "duration": 0.115,
      "velocity": 88,
      "chip": "ym2612"
    },
    {
      "channel": 0,
      "note": 78,
      "start": 62.6644,
      "duration": 0.1151,
      "velocity": 127,
      "chip": "ym2612"
    },
    {
      "channel": 1,
      "note": 50,
      "start": 62.6647,
      "duration": 0.115,
      "velocity": 88,
      "chip": "ym2612"
    },
    {
      "channel": 0,
      "note": 42,
      "start": 62.7977,
      "duration": 0.1151,
      "velocity": 107,
      "chip": "ym2612"
    },
    {
      "channel": 1,
      "note": 50,
      "start": 62.798,
      "duration": 0.115,
      "velocity": 88,
      "chip": "ym2612"
    },
    {
      "channel": 0,
      "note": 33,
      "start": 62.9311,
      "duration": 0.1151,
      "velocity": 127,
      "chip": "ym2612"
    },
    {
      "channel": 1,
      "note": 47,
      "start": 62.9313,
      "duration": 0.115,
      "velocity": 88,
      "chip": "ym2612"
    },
    {
      "channel": 0,
      "note": 78,
      "start": 63.0629,
      "duration": 0.1167,
      "velocity": 127,
      "chip": "ym2612"
    },
    {
      "channel": 1,
      "note": 59,
      "start": 63.0632,
      "duration": 0.1165,
      "velocity": 88,
      "chip": "ym2612"
    },
    {
      "channel": 0,
      "note": 78,
      "start": 63.1977,
      "duration": 0.1151,
      "velocity": 127,
      "chip": "ym2612"
    },
    {
      "channel": 1,
      "note": 47,
      "start": 63.198,
      "duration": 0.115,
      "velocity": 88,
      "chip": "ym2612"
    },
    {
      "channel": 0,
      "note": 42,
      "start": 63.3311,
      "duration": 0.115,
      "velocity": 127,
      "chip": "ym2612"
    },
    {
      "channel": 1,
      "note": 48,
      "start": 63.3313,
      "duration": 0.1149,
      "velocity": 88,
      "chip": "ym2612"
    },
    {
      "channel": 0,
      "note": 78,
      "start": 63.4629,
      "duration": 0.1165,
      "velocity": 127,
      "chip": "ym2612"
    },
    {
      "channel": 1,
      "note": 60,
      "start": 63.4632,
      "duration": 0.1164,
      "velocity": 88,
      "chip": "ym2612"
    },
    {
      "channel": 0,
      "note": 78,
      "start": 63.5977,
      "duration": 0.1151,
      "velocity": 107,
      "chip": "ym2612"
    },
    {
      "channel": 1,
      "note": 48,
      "start": 63.598,
      "duration": 0.115,
      "velocity": 88,
      "chip": "ym2612"
    },
    {
      "channel": 0,
      "note": 33,
      "start": 63.7311,
      "duration": 0.115,
      "velocity": 127,
      "chip": "ym2612"
    },
    {
      "channel": 1,
      "note": 49,
      "start": 63.7313,
      "duration": 0.1149,
      "velocity": 88,
      "chip": "ym2612"
    },
    {
      "channel": 0,
      "note": 78,
      "start": 63.8644,
      "duration": 0.1151,
      "velocity": 127,
      "chip": "ym2612"
    },
    {
      "channel": 1,
      "note": 61,
      "start": 63.8646,
      "duration": 0.115,
      "velocity": 88,
      "chip": "ym2612"
    },
    {
      "channel": 0,
      "note": 42,
      "start": 63.9978,
      "duration": 0.1149,
      "velocity": 107,
      "chip": "ym2612"
    },
    {
      "channel": 1,
      "note": 49,
      "start": 63.9981,
      "duration": 0.1148,
      "velocity": 88,
      "chip": "ym2612"
    },
    {
      "channel": 2,
      "note": 70,
      "start": 63.9983,
      "duration": 0.6481,
      "velocity": 83,
      "chip": "ym2612"
    },
    {
      "channel": 0,
      "note": 33,
      "start": 64.131,
      "duration": 0.1151,
      "velocity": 127,
      "chip": "ym2612"
    },
    {
      "channel": 1,
      "note": 47,
      "start": 64.1313,
      "duration": 0.115,
      "velocity": 88,
      "chip": "ym2612"
    },
    {
      "channel": 0,
      "note": 78,
      "start": 64.263,
      "duration": 0.1165,
      "velocity": 127,
      "chip": "ym2612"
    },
    {
      "channel": 1,
      "note": 47,
      "start": 64.2633,
      "duration": 0.1163,
      "velocity": 88,
      "chip": "ym2612"
    },
    {
      "channel": 0,
      "note": 78,
      "start": 64.3978,
      "duration": 0.115,
      "velocity": 107,
      "chip": "ym2612"
    },
    {
      "channel": 1,
      "note": 47,
      "start": 64.398,
      "duration": 0.1149,
      "velocity": 88,
      "chip": "ym2612"
    },
    {
      "channel": 0,
      "note": 33,
      "start": 64.531,
      "duration": 0.1151,
      "velocity": 127,
      "chip": "ym2612"
    },
    {
      "channel": 1,
      "note": 47,
      "start": 64.5313,
      "duration": 0.115,
      "velocity": 88,
      "chip": "ym2612"
    },
    {
      "channel": 0,
      "note": 78,
      "start": 64.6629,
      "duration": 0.1167,
      "velocity": 127,
      "chip": "ym2612"
    },
    {
      "channel": 1,
      "note": 47,
      "start": 64.6632,
      "duration": 0.1165,
      "velocity": 88,
      "chip": "ym2612"
    },
    {
      "channel": 2,
      "note": 83,
      "start": 64.6634,
      "duration": 0.5163,
      "velocity": 83,
      "chip": "ym2612"
    },
    {
      "channel": 0,
      "note": 78,
      "start": 64.7977,
      "duration": 0.1151,
      "velocity": 127,
      "chip": "ym2612"
    },
    {
      "channel": 1,
      "note": 47,
      "start": 64.798,
      "duration": 0.115,
      "velocity": 88,
      "chip": "ym2612"
    },
    {
      "channel": 0,
      "note": 42,
      "start": 64.9311,
      "duration": 0.115,
      "velocity": 127,
      "chip": "ym2612"
    },
    {
      "channel": 1,
      "note": 47,
      "start": 64.9313,
      "duration": 0.1149,
      "velocity": 88,
      "chip": "ym2612"
    },
    {
      "channel": 0,
      "note": 78,
      "start": 65.0629,
      "duration": 0.1165,
      "velocity": 127,
      "chip": "ym2612"
    },
    {
      "channel": 1,
      "note": 47,
      "start": 65.0632,
      "duration": 0.1164,
      "velocity": 88,
      "chip": "ym2612"
    },
    {
      "channel": 0,
      "note": 78,
      "start": 65.1978,
      "duration": 0.115,
      "velocity": 107,
      "chip": "ym2612"
    },
    {
      "channel": 1,
      "note": 47,
      "start": 65.198,
      "duration": 0.1149,
      "velocity": 88,
      "chip": "ym2612"
    },
    {
      "channel": 2,
      "note": 74,
      "start": 65.1983,
      "duration": 0.2481,
      "velocity": 83,
      "chip": "ym2612"
    },
    {
      "channel": 0,
      "note": 33,
      "start": 65.331,
      "duration": 0.1151,
      "velocity": 127,
      "chip": "ym2612"
    },
    {
      "channel": 1,
      "note": 54,
      "start": 65.3313,
      "duration": 0.115,
      "velocity": 88,
      "chip": "ym2612"
    },
    {
      "channel": 0,
      "note": 78,
      "start": 65.463,
      "duration": 0.1165,
      "velocity": 127,
      "chip": "ym2612"
    },
    {
      "channel": 1,
      "note": 47,
      "start": 65.4633,
      "duration": 0.1163,
      "velocity": 88,
      "chip": "ym2612"
    },
    {
      "channel": 2,
      "note": 71,
      "start": 65.4635,
      "duration": 1.5828,
      "velocity": 83,
      "chip": "ym2612"
    },
    {
      "channel": 0,
      "note": 78,
      "start": 65.5978,
      "duration": 0.115,
      "velocity": 107,
      "chip": "ym2612"
    },
    {
      "channel": 1,
      "note": 56,
      "start": 65.598,
      "duration": 0.1149,
      "velocity": 88,
      "chip": "ym2612"
    },
    {
      "channel": 0,
      "note": 33,
      "start": 65.731,
      "duration": 0.1151,
      "velocity": 127,
      "chip": "ym2612"
    },
    {
      "channel": 1,
      "note": 47,
      "start": 65.7313,
      "duration": 0.115,
      "velocity": 88,
      "chip": "ym2612"
    },
    {
      "channel": 0,
      "note": 78,
      "start": 65.863,
      "duration": 0.1165,
      "velocity": 127,
      "chip": "ym2612"
    },
    {
      "channel": 1,
      "note": 47,
      "start": 65.8633,
      "duration": 0.1163,
      "velocity": 88,
      "chip": "ym2612"
    },
    {
      "channel": 0,
      "note": 78,
      "start": 65.9978,
      "duration": 0.115,
      "velocity": 107,
      "chip": "ym2612"
    },
    {
      "channel": 1,
      "note": 47,
      "start": 65.998,
      "duration": 0.1149,
      "velocity": 88,
      "chip": "ym2612"
    },
    {
      "channel": 0,
      "note": 33,
      "start": 66.131,
      "duration": 0.1151,
      "velocity": 127,
      "chip": "ym2612"
    },
    {
      "channel": 1,
      "note": 44,
      "start": 66.1313,
      "duration": 0.115,
      "velocity": 88,
      "chip": "ym2612"
    },
    {
      "channel": 0,
      "note": 78,
      "start": 66.263,
      "duration": 0.1165,
      "velocity": 127,
      "chip": "ym2612"
    },
    {
      "channel": 1,
      "note": 56,
      "start": 66.2633,
      "duration": 0.1163,
      "velocity": 88,
      "chip": "ym2612"
    },
    {
      "channel": 0,
      "note": 78,
      "start": 66.3978,
      "duration": 0.1151,
      "velocity": 127,
      "chip": "ym2612"
    },
    {
      "channel": 1,
      "note": 44,
      "start": 66.398,
      "duration": 0.1149,
      "velocity": 88,
      "chip": "ym2612"
    },
    {
      "channel": 0,
      "note": 42,
      "start": 66.5311,
      "duration": 0.115,
      "velocity": 127,
      "chip": "ym2612"
    },
    {
      "channel": 1,
      "note": 45,
      "start": 66.5313,
      "duration": 0.1149,
      "velocity": 88,
      "chip": "ym2612"
    },
    {
      "channel": 0,
      "note": 78,
      "start": 66.663,
      "duration": 0.1165,
      "velocity": 127,
      "chip": "ym2612"
    },
    {
      "channel": 1,
      "note": 57,
      "start": 66.6632,
      "duration": 0.1163,
      "velocity": 88,
      "chip": "ym2612"
    },
    {
      "channel": 0,
      "note": 78,
      "start": 66.7978,
      "duration": 0.1151,
      "velocity": 107,
      "chip": "ym2612"
    },
    {
      "channel": 1,
      "note": 45,
      "start": 66.798,
      "duration": 0.115,
      "velocity": 88,
      "chip": "ym2612"
    },
    {
      "channel": 0,
      "note": 33,
      "start": 66.9311,
      "duration": 0.1151,
      "velocity": 127,
      "chip": "ym2612"
    },
    {
      "channel": 1,
      "note": 46,
      "start": 66.9313,
      "duration": 0.1149,
      "velocity": 88,
      "chip": "ym2612"
    },
    {
      "channel": 0,
      "note": 78,
      "start": 67.0644,
      "duration": 0.115,
      "velocity": 127,
      "chip": "ym2612"
    },
    {
      "channel": 1,
      "note": 58,
      "start": 67.0647,
      "duration": 0.1149,
      "velocity": 88,
      "chip": "ym2612"
    },
    {
      "channel": 2,
      "note": 74,
      "start": 67.0649,
      "duration": 0.1147,
      "velocity": 83,
      "chip": "ym2612"
    },
    {
      "channel": 0,
      "note": 42,
      "start": 67.1978,
      "duration": 0.1151,
      "velocity": 107,
      "chip": "ym2612"
    },
    {
      "channel": 1,
      "note": 46,
      "start": 67.198,
      "duration": 0.115,
      "velocity": 88,
      "chip": "ym2612"
    },
    {
      "channel": 2,
      "note": 74,
      "start": 67.1983,
      "duration": 0.1149,
      "velocity": 83,
      "chip": "ym2612"
    },
    {
      "channel": 0,
      "note": 33,
      "start": 67.3311,
      "duration": 0.1151,
      "velocity": 127,
      "chip": "ym2612"
    },
    {
      "channel": 1,
      "note": 52,
      "start": 67.3313,
      "duration": 0.115,
      "velocity": 88,
      "chip": "ym2612"
    },
    {
      "channel": 2,
      "note": 83,
      "start": 67.3316,
      "duration": 0.048,
      "velocity": 83,
      "chip": "ym2612"
    },
    {
      "channel": 2,
      "note": 78,
      "start": 67.3962,
      "duration": 0.0502,
      "velocity": 83,
      "chip": "ym2612"
    },
    {
      "channel": 0,
      "note": 78,
      "start": 67.463,
      "duration": 0.1165,
      "velocity": 127,
      "chip": "ym2612"
    },
    {
      "channel": 1,
      "note": 52,
      "start": 67.4633,
      "duration": 0.1163,
      "velocity": 88,
      "chip": "ym2612"
    },
    {
      "channel": 2,
      "note": 77,
      "start": 67.4635,
      "duration": 0.1161,
      "velocity": 83,
      "chip": "ym2612"
    },
    {
      "channel": 0,
      "note": 78,
      "start": 67.5978,
      "duration": 0.115,
      "velocity": 107,
      "chip": "ym2612"
    },
    {
      "channel": 1,
      "note": 52,
      "start": 67.5981,
      "duration": 0.1148,
      "velocity": 88,
      "chip": "ym2612"
    },
    {
      "channel": 2,
      "note": 76,
      "start": 67.5983,
      "duration": 0.1147,
      "velocity": 83,
      "chip": "ym2612"
    },
    {
      "channel": 0,
      "note": 33,
      "start": 67.7311,
      "duration": 0.1151,
      "velocity": 127,
      "chip": "ym2612"
    },
    {
      "channel": 1,
      "note": 49,
      "start": 67.7313,
      "duration": 0.1149,
      "velocity": 88,
      "chip": "ym2612"
    },
    {
      "channel": 2,
      "note": 86,
      "start": 67.7316,
      "duration": 0.0479,
      "velocity": 83,
      "chip": "ym2612"
    },
    {
      "channel": 2,
      "note": 83,
      "start": 67.7963,
      "duration": 0.05,
      "velocity": 83,
      "chip": "ym2612"
    },
    {
      "channel": 0,
      "note": 78,
      "start": 67.863,
      "duration": 0.1165,
      "velocity": 127,
      "chip": "ym2612"
    },
    {
      "channel": 1,
      "note": 49,
      "start": 67.8633,
      "duration": 0.1163,
      "velocity": 88,
      "chip": "ym2612"
    },
    {
      "channel": 2,
      "note": 81,
      "start": 67.8635,
      "duration": 0.1161,
      "velocity": 83,
      "chip": "ym2612"
    },
    {
      "channel": 0,
      "note": 78,
      "start": 67.9977,
      "duration": 0.1151,
      "velocity": 127,
      "chip": "ym2612"
    },
    {
      "channel": 1,
      "note": 49,
      "start": 67.998,
      "duration": 0.1149,
      "velocity": 88,
      "chip": "ym2612"
    },
    {
      "channel": 2,
      "note": 78,
      "start": 67.9982,
      "duration": 0.1148,
      "velocity": 83,
      "chip": "ym2612"
    },
    {
      "channel": 0,
      "note": 42,
      "start": 68.1311,
      "duration": 0.1151,
      "velocity": 127,
      "chip": "ym2612"
    },
    {
      "channel": 1,
      "note": 50,
      "start": 68.1313,
      "duration": 0.1149,
      "velocity": 88,
      "chip": "ym2612"
    },
    {
      "channel": 2,
      "note": 83,
      "start": 68.1316,
      "duration": 0.0479,
      "velocity": 83,
      "chip": "ym2612"
    },
    {
      "channel": 2,
      "note": 76,
      "start": 68.1963,
      "duration": 0.05,
      "velocity": 83,
      "chip": "ym2612"
    },
    {
      "channel": 0,
      "note": 78,
      "start": 68.263,
      "duration": 0.1165,
      "velocity": 127,
      "chip": "ym2612"
    },
    {
      "channel": 1,
      "note": 50,
      "start": 68.2633,
      "duration": 0.1163,
      "velocity": 88,
      "chip": "ym2612"
    },
    {
      "channel": 2,
      "note": 78,
      "start": 68.2635,
      "duration": 0.1161,
      "velocity": 83,
      "chip": "ym2612"
    },
    {
      "channel": 0,
      "note": 78,
      "start": 68.3978,
      "duration": 0.1149,
      "velocity": 107,
      "chip": "ym2612"
    },
    {
      "channel": 1,
      "note": 50,
      "start": 68.3981,
      "duration": 0.1148,
      "velocity": 88,
      "chip": "ym2612"
    },
    {
      "channel": 2,
      "note": 74,
      "start": 68.3983,
      "duration": 0.1147,
      "velocity": 83,
      "chip": "ym2612"
    },
    {
      "channel": 0,
      "note": 33,
      "start": 68.5311,
      "duration": 0.1151,
      "velocity": 127,
      "chip": "ym2612"
    },
    {
      "channel": 1,
      "note": 52,
      "start": 68.5313,
      "duration": 0.115,
      "velocity": 88,
      "chip": "ym2612"
    },
    {
      "channel": 2,
      "note": 78,
      "start": 68.5316,
      "duration": 0.0479,
      "velocity": 83,
      "chip": "ym2612"
    },
    {
      "channel": 2,
      "note": 76,
      "start": 68.5963,
      "duration": 0.05,
      "velocity": 83,
      "chip": "ym2612"
    },
    {
      "channel": 0,
      "note": 78,
      "start": 68.663,
      "duration": 0.1165,
      "velocity": 127,
      "chip": "ym2612"
    },
    {
      "channel": 1,
      "note": 52,
      "start": 68.6633,
      "duration": 0.1163,
      "velocity": 88,
      "chip": "ym2612"
    },
    {
      "channel": 2,
      "note": 74,
      "start": 68.6635,
      "duration": 0.1162,
      "velocity": 83,
      "chip": "ym2612"
    },
    {
      "channel": 0,
      "note": 78,
      "start": 68.7978,
      "duration": 0.115,
      "velocity": 107,
      "chip": "ym2612"
    },
    {
      "channel": 1,
      "note": 52,
      "start": 68.7981,
      "duration": 0.1149,
      "velocity": 88,
      "chip": "ym2612"
    },
    {
      "channel": 2,
      "note": 71,
      "start": 68.7983,
      "duration": 0.0479,
      "velocity": 83,
      "chip": "ym2612"
    },
    {
      "channel": 2,
      "note": 88,
      "start": 68.863,
      "duration": 0.05,
      "velocity": 83,
      "chip": "ym2612"
    },
    {
      "channel": 0,
      "note": 33,
      "start": 68.931,
      "duration": 0.1151,
      "velocity": 127,
      "chip": "ym2612"
    },
    {
      "channel": 1,
      "note": 54,
      "start": 68.9313,
      "duration": 0.1149,
      "velocity": 88,
      "chip": "ym2612"
    },
    {
      "channel": 2,
      "note": 83,
      "start": 68.9315,
      "duration": 0.048,
      "velocity": 83,
      "chip": "ym2612"
    },
    {
      "channel": 2,
      "note": 86,
      "start": 68.9963,
      "duration": 0.05,
      "velocity": 83,
      "chip": "ym2612"
    },
    {
      "channel": 0,
      "note": 78,
      "start": 69.0645,
      "duration": 0.115,
      "velocity": 127,
      "chip": "ym2612"
    },
    {
      "channel": 1,
      "note": 54,
      "start": 69.0647,
      "duration": 0.1148,
      "velocity": 88,
      "chip": "ym2612"
    },
    {
      "channel": 2,
      "note": 81,
      "start": 69.065,
      "duration": 0.0479,
      "velocity": 83,
      "chip": "ym2612"
    },
    {
      "channel": 2,
      "note": 83,
      "start": 69.1296,
      "duration": 0.05,
      "velocity": 83,
      "chip": "ym2612"
    },
    {
      "channel": 0,
      "note": 42,
      "start": 69.1978,
      "duration": 0.1149,
      "velocity": 107,
      "chip": "ym2612"
    },
    {
      "channel": 1,
      "note": 54,
      "start": 69.1981,
      "duration": 0.1148,
      "velocity": 88,
      "chip": "ym2612"
    },
    {
      "channel": 2,
      "note": 78,
      "start": 69.1983,
      "duration": 0.048,
      "velocity": 83,
      "chip": "ym2612"
    },
    {
      "channel": 2,
      "note": 81,
      "start": 69.263,
      "duration": 0.05,
      "velocity": 83,
      "chip": "ym2612"
    },
    {
      "channel": 0,
      "note": 33,
      "start": 69.3311,
      "duration": 0.1151,
      "velocity": 127,
      "chip": "ym2612"
    },
    {
      "channel": 1,
      "note": 51,
      "start": 69.3313,
      "duration": 0.1149,
      "velocity": 88,
      "chip": "ym2612"
    },
    {
      "channel": 2,
      "note": 76,
      "start": 69.3316,
      "duration": 0.048,
      "velocity": 83,
      "chip": "ym2612"
    },
    {
      "channel": 2,
      "note": 78,
      "start": 69.3963,
      "duration": 0.05,
      "velocity": 83,
      "chip": "ym2612"
    },
    {
      "channel": 0,
      "note": 78,
      "start": 69.4629,
      "duration": 0.1167,
      "velocity": 127,
      "chip": "ym2612"
    },
    {
      "channel": 1,
      "note": 63,
      "start": 69.4632,
      "duration": 0.1165,
      "velocity": 88,
      "chip": "ym2612"
    },
    {
      "channel": 2,
      "note": 74,
      "start": 69.4634,
      "duration": 0.0496,
      "velocity": 83,
      "chip": "ym2612"
    },
    {
      "channel": 2,
      "note": 76,
      "start": 69.5296,
      "duration": 0.0502,
      "velocity": 83,
      "chip": "ym2612"
    },
    {
      "channel": 0,
      "note": 78,
      "start": 69.5977,
      "duration": 0.1152,
      "velocity": 127,
      "chip": "ym2612"
    },
    {
      "channel": 1,
      "note": 51,
      "start": 69.598,
      "duration": 0.1151,
      "velocity": 88,
      "chip": "ym2612"
    },
    {
      "channel": 2,
      "note": 71,
      "start": 69.5982,
      "duration": 0.0481,
      "velocity": 83,
      "chip": "ym2612"
    },
    {
      "channel": 2,
      "note": 74,
      "start": 69.6629,
      "duration": 0.0502,
      "velocity": 83,
      "chip": "ym2612"
    },
    {
      "channel": 0,
      "note": 42,
      "start": 69.7311,
      "duration": 0.1151,
      "velocity": 127,
      "chip": "ym2612"
    },
    {
      "channel": 1,
      "note": 52,
      "start": 69.7313,
      "duration": 0.115,
      "velocity": 88,
      "chip": "ym2612"
    },
    {
      "channel": 2,
      "note": 71,
      "start": 69.7316,
      "duration": 0.048,
      "velocity": 83,
      "chip": "ym2612"
    },
    {
      "channel": 2,
      "note": 74,
      "start": 69.7962,
      "duration": 0.0502,
      "velocity": 83,
      "chip": "ym2612"
    },
    {
      "channel": 0,
      "note": 78,
      "start": 69.863,
      "duration": 0.1165,
      "velocity": 127,
      "chip": "ym2612"
    },
    {
      "channel": 1,
      "note": 64,
      "start": 69.8632,
      "duration": 0.1163,
      "velocity": 88,
      "chip": "ym2612"
    },
    {
      "channel": 2,
      "note": 78,
      "start": 69.8635,
      "duration": 0.0494,
      "velocity": 83,
      "chip": "ym2612"
    },
    {
      "channel": 2,
      "note": 76,
      "start": 69.9296,
      "duration": 0.05,
      "velocity": 83,
      "chip": "ym2612"
    },
    {
      "channel": 0,
      "note": 78,
      "start": 69.9978,
      "duration": 0.115,
      "velocity": 107,
      "chip": "ym2612"
    },
    {
      "channel": 1,
      "note": 52,
      "start": 69.9981,
      "duration": 0.1149,
      "velocity": 88,
      "chip": "ym2612"
    },
    {
      "channel": 2,
      "note": 81,
      "start": 69.9983,
      "duration": 0.0478,
      "velocity": 83,
      "chip": "ym2612"
    },
    {
      "channel": 2,
      "note": 83,
      "start": 70.063,
      "duration": 0.05,
      "velocity": 83,
      "chip": "ym2612"
    },
    {
      "channel": 0,
      "note": 33,
      "start": 70.131,
      "duration": 0.1151,
      "velocity": 127,
      "chip": "ym2612"
    },
    {
      "channel": 1,
      "note": 54,
      "start": 70.1313,
      "duration": 0.115,
      "velocity": 88,
      "chip": "ym2612"
    },
    {
      "channel": 2,
      "note": 86,
      "start": 70.1315,
      "duration": 0.048,
      "velocity": 83,
      "chip": "ym2612"
    },
    {
      "channel": 2,
      "note": 88,
      "start": 70.1963,
      "duration": 0.05,
      "velocity": 83,
      "chip": "ym2612"
    },
    {
      "channel": 0,
      "note": 78,
      "start": 70.2644,
      "duration": 0.1151,
      "velocity": 127,
      "chip": "ym2612"
    },
    {
      "channel": 1,
      "note": 66,
      "start": 70.2646,
      "duration": 0.1149,
      "velocity": 88,
      "chip": "ym2612"
    },
    {
      "channel": 2,
      "note": 89,
      "start": 70.2649,
      "duration": 0.048,
      "velocity": 83,
      "chip": "ym2612"
    },
    {
      "channel": 2,
      "note": 83,
      "start": 70.3296,
      "duration": 0.05,
      "velocity": 83,
      "chip": "ym2612"
    },
    {
      "channel": 0,
      "note": 42,
      "start": 70.3982,
      "duration": 0.1147,
      "velocity": 107,
      "chip": "ym2612"
    },
    {
      "channel": 1,
      "note": 54,
      "start": 70.3999,
      "duration": 0.1131,
      "velocity": 88,
      "chip": "ym2612"
    },
    {
      "channel": 2,
      "note": 76,
      "start": 70.4016,
      "duration": 0.6449,
      "velocity": 83,
      "chip": "ym2612"
    },
    {
      "channel": 0,
      "note": 33,
      "start": 70.531,
      "duration": 0.1151,
      "velocity": 127,
      "chip": "ym2612"
    },
    {
      "channel": 1,
      "note": 47,
      "start": 70.5313,
      "duration": 0.115,
      "velocity": 88,
      "chip": "ym2612"
    },
    {
      "channel": 0,
      "note": 78,
      "start": 70.663,
      "duration": 0.1165,
      "velocity": 127,
      "chip": "ym2612"
    },
    {
      "channel": 1,
      "note": 47,
      "start": 70.6633,
      "duration": 0.1163,
      "velocity": 88,
      "chip": "ym2612"
    },
    {
      "channel": 0,
      "note": 78,
      "start": 70.7978,
      "duration": 0.115,
      "velocity": 107,
      "chip": "ym2612"
    },
    {
      "channel": 1,
      "note": 47,
      "start": 70.798,
      "duration": 0.1149,
      "velocity": 88,
      "chip": "ym2612"
    },
    {
      "channel": 0,
      "note": 33,
      "start": 70.931,
      "duration": 0.1151,
      "velocity": 127,
      "chip": "ym2612"
    },
    {
      "channel": 1,
      "note": 47,
      "start": 70.9313,
      "duration": 0.115,
      "velocity": 88,
      "chip": "ym2612"
    },
    {
      "channel": 0,
      "note": 78,
      "start": 71.063,
      "duration": 0.1165,
      "velocity": 127,
      "chip": "ym2612"
    },
    {
      "channel": 1,
      "note": 47,
      "start": 71.0632,
      "duration": 0.1163,
      "velocity": 88,
      "chip": "ym2612"
    },
    {
      "channel": 2,
      "note": 77,
      "start": 71.0635,
      "duration": 0.5162,
      "velocity": 83,
      "chip": "ym2612"
    },
    {
      "channel": 0,
      "note": 78,
      "start": 71.1977,
      "duration": 0.1151,
      "velocity": 127,
      "chip": "ym2612"
    },
    {
      "channel": 1,
      "note": 47,
      "start": 71.198,
      "duration": 0.115,
      "velocity": 88,
      "chip": "ym2612"
    },
    {
      "channel": 0,
      "note": 42,
      "start": 71.3311,
      "duration": 0.1151,
      "velocity": 127,
      "chip": "ym2612"
    },
    {
      "channel": 1,
      "note": 47,
      "start": 71.3313,
      "duration": 0.1149,
      "velocity": 88,
      "chip": "ym2612"
    },
    {
      "channel": 0,
      "note": 78,
      "start": 71.463,
      "duration": 0.1165,
      "velocity": 127,
      "chip": "ym2612"
    },
    {
      "channel": 1,
      "note": 47,
      "start": 71.4632,
      "duration": 0.1163,
      "velocity": 88,
      "chip": "ym2612"
    },
    {
      "channel": 0,
      "note": 78,
      "start": 71.5978,
      "duration": 0.1151,
      "velocity": 107,
      "chip": "ym2612"
    },
    {
      "channel": 1,
      "note": 47,
      "start": 71.598,
      "duration": 0.115,
      "velocity": 88,
      "chip": "ym2612"
    },
    {
      "channel": 2,
      "note": 74,
      "start": 71.5983,
      "duration": 0.2481,
      "velocity": 83,
      "chip": "ym2612"
    },
    {
      "channel": 0,
      "note": 33,
      "start": 71.731,
      "duration": 0.1151,
      "velocity": 127,
      "chip": "ym2612"
    },
    {
      "channel": 1,
      "note": 54,
      "start": 71.7313,
      "duration": 0.115,
      "velocity": 88,
      "chip": "ym2612"
    },
    {
      "channel": 0,
      "note": 78,
      "start": 71.863,
      "duration": 0.1166,
      "velocity": 127,
      "chip": "ym2612"
    },
    {
      "channel": 1,
      "note": 47,
      "start": 71.8632,
      "duration": 0.1165,
      "velocity": 88,
      "chip": "ym2612"
    },
    {
      "channel": 2,
      "note": 71,
      "start": 71.8635,
      "duration": 1.7163,
      "velocity": 83,
      "chip": "ym2612"
    },
    {
      "channel": 0,
      "note": 78,
      "start": 71.9977,
      "duration": 0.1151,
      "velocity": 107,
      "chip": "ym2612"
    },
    {
      "channel": 1,
      "note": 59,
      "start": 71.998,
      "duration": 0.115,
      "velocity": 88,
      "chip": "ym2612"
    },
    {
      "channel": 0,
      "note": 33,
      "start": 72.1311,
      "duration": 0.115,
      "velocity": 127,
      "chip": "ym2612"
    },
    {
      "channel": 1,
      "note": 47,
      "start": 72.1313,
      "duration": 0.1149,
      "velocity": 88,
      "chip": "ym2612"
    },
    {
      "channel": 0,
      "note": 78,
      "start": 72.263,
      "duration": 0.1165,
      "velocity": 127,
      "chip": "ym2612"
    },
    {
      "channel": 1,
      "note": 47,
      "start": 72.2632,
      "duration": 0.1163,
      "velocity": 88,
      "chip": "ym2612"
    },
    {
      "channel": 0,
      "note": 78,
      "start": 72.3977,
      "duration": 0.1151,
      "velocity": 107,
      "chip": "ym2612"
    },
    {
      "channel": 1,
      "note": 47,
      "start": 72.398,
      "duration": 0.115,
      "velocity": 88,
      "chip": "ym2612"
    },
    {
      "channel": 0,
      "note": 33,
      "start": 72.5311,
      "duration": 0.1151,
      "velocity": 127,
      "chip": "ym2612"
    },
    {
      "channel": 1,
      "note": 44,
      "start": 72.5313,
      "duration": 0.115,
      "velocity": 88,
      "chip": "ym2612"
    },
    {
      "channel": 0,
      "note": 78,
      "start": 72.663,
      "duration": 0.1165,
      "velocity": 127,
      "chip": "ym2612"
    },
    {
      "channel": 1,
      "note": 56,
      "start": 72.6632,
      "duration": 0.1164,
      "velocity": 88,
      "chip": "ym2612"
    },
    {
      "channel": 0,
      "note": 78,
      "start": 72.7978,
      "duration": 0.1151,
      "velocity": 127,
      "chip": "ym2612"
    },
    {
      "channel": 1,
      "note": 44,
      "start": 72.798,
      "duration": 0.1149,
      "velocity": 88,
      "chip": "ym2612"
    },
    {
      "channel": 0,
      "note": 42,
      "start": 72.9311,
      "duration": 0.115,
      "velocity": 127,
      "chip": "ym2612"
    },
    {
      "channel": 1,
      "note": 45,
      "start": 72.9313,
      "duration": 0.1149,
      "velocity": 88,
      "chip": "ym2612"
    },
    {
      "channel": 0,
      "note": 78,
      "start": 73.063,
      "duration": 0.1165,
      "velocity": 127,
      "chip": "ym2612"
    },
    {
      "channel": 1,
      "note": 57,
      "start": 73.0632,
      "duration": 0.1163,
      "velocity": 88,
      "chip": "ym2612"
    },
    {
      "channel": 0,
      "note": 78,
      "start": 73.1977,
      "duration": 0.1151,
      "velocity": 107,
      "chip": "ym2612"
    },
    {
      "channel": 1,
      "note": 45,
      "start": 73.198,
      "duration": 0.115,
      "velocity": 88,
      "chip": "ym2612"
    },
    {
      "channel": 0,
      "note": 33,
      "start": 73.3311,
      "duration": 0.115,
      "velocity": 127,
      "chip": "ym2612"
    },
    {
      "channel": 1,
      "note": 46,
      "start": 73.3313,
      "duration": 0.1149,
      "velocity": 88,
      "chip": "ym2612"
    },
    {
      "channel": 0,
      "note": 78,
      "start": 73.4644,
      "duration": 0.1151,
      "velocity": 127,
      "chip": "ym2612"
    },
    {
      "channel": 1,
      "note": 58,
      "start": 73.4646,
      "duration": 0.115,
      "velocity": 88,
      "chip": "ym2612"
    },
    {
      "channel": 0,
      "note": 42,
      "start": 73.5978,
      "duration": 0.115,
      "velocity": 107,
      "chip": "ym2612"
    },
    {
      "channel": 1,
      "note": 46,
      "start": 73.5981,
      "duration": 0.1148,
      "velocity": 88,
      "chip": "ym2612"
    },
    {
      "channel": 2,
      "note": 74,
      "start": 73.5983,
      "duration": 0.648,
      "velocity": 83,
      "chip": "ym2612"
    },
    {
      "channel": 0,
      "note": 33,
      "start": 73.7311,
      "duration": 0.1151,
      "velocity": 127,
      "chip": "ym2612"
    },
    {
      "channel": 1,
      "note": 47,
      "start": 73.7313,
      "duration": 0.115,
      "velocity": 88,
      "chip": "ym2612"
    },
    {
      "channel": 0,
      "note": 78,
      "start": 73.863,
      "duration": 0.1165,
      "velocity": 127,
      "chip": "ym2612"
    },
    {
      "channel": 1,
      "note": 47,
      "start": 73.8633,
      "duration": 0.1163,
      "velocity": 88,
      "chip": "ym2612"
    },
    {
      "channel": 0,
      "note": 78,
      "start": 73.9978,
      "duration": 0.115,
      "velocity": 107,
      "chip": "ym2612"
    },
    {
      "channel": 1,
      "note": 47,
      "start": 73.998,
      "duration": 0.1149,
      "velocity": 88,
      "chip": "ym2612"
    },
    {
      "channel": 0,
      "note": 33,
      "start": 74.131,
      "duration": 0.1151,
      "velocity": 127,
      "chip": "ym2612"
    },
    {
      "channel": 1,
      "note": 47,
      "start": 74.1313,
      "duration": 0.115,
      "velocity": 88,
      "chip": "ym2612"
    },
    {
      "channel": 0,
      "note": 78,
      "start": 74.263,
      "duration": 0.1165,
      "velocity": 127,
      "chip": "ym2612"
    },
    {
      "channel": 1,
      "note": 47,
      "start": 74.2633,
      "duration": 0.1163,
      "velocity": 88,
      "chip": "ym2612"
    },
    {
      "channel": 2,
      "note": 77,
      "start": 74.2635,
      "duration": 0.5161,
      "velocity": 83,
      "chip": "ym2612"
    },
    {
      "channel": 0,
      "note": 78,
      "start": 74.3978,
      "duration": 0.115,
      "velocity": 127,
      "chip": "ym2612"
    },
    {
      "channel": 1,
      "note": 47,
      "start": 74.398,
      "duration": 0.1149,
      "velocity": 88,
      "chip": "ym2612"
    },
    {
      "channel": 0,
      "note": 42,
      "start": 74.531,
      "duration": 0.1151,
      "velocity": 127,
      "chip": "ym2612"
    },
    {
      "channel": 1,
      "note": 47,
      "start": 74.5313,
      "duration": 0.115,
      "velocity": 88,
      "chip": "ym2612"
    },
    {
      "channel": 0,
      "note": 78,
      "start": 74.663,
      "duration": 0.1165,
      "velocity": 127,
      "chip": "ym2612"
    },
    {
      "channel": 1,
      "note": 47,
      "start": 74.6633,
      "duration": 0.1163,
      "velocity": 88,
      "chip": "ym2612"
    },
    {
      "channel": 0,
      "note": 78,
      "start": 74.7978,
      "duration": 0.115,
      "velocity": 107,
      "chip": "ym2612"
    },
    {
      "channel": 1,
      "note": 47,
      "start": 74.7981,
      "duration": 0.1149,
      "velocity": 88,
      "chip": "ym2612"
    },
    {
      "channel": 2,
      "note": 74,
      "start": 74.7983,
      "duration": 0.248,
      "velocity": 83,
      "chip": "ym2612"
    },
    {
      "channel": 0,
      "note": 33,
      "start": 74.9311,
      "duration": 0.115,
      "velocity": 127,
      "chip": "ym2612"
    },
    {
      "channel": 1,
      "note": 54,
      "start": 74.9313,
      "duration": 0.1149,
      "velocity": 88,
      "chip": "ym2612"
    },
    {
      "channel": 0,
      "note": 78,
      "start": 75.063,
      "duration": 0.1164,
      "velocity": 127,
      "chip": "ym2612"
    },
    {
      "channel": 1,
      "note": 47,
      "start": 75.0633,
      "duration": 0.1163,
      "velocity": 88,
      "chip": "ym2612"
    },
    {
      "channel": 2,
      "note": 71,
      "start": 75.0635,
      "duration": 1.7163,
      "velocity": 83,
      "chip": "ym2612"
    },
    {
      "channel": 0,
      "note": 78,
      "start": 75.1977,
      "duration": 0.1151,
      "velocity": 107,
      "chip": "ym2612"
    },
    {
      "channel": 1,
      "note": 57,
      "start": 75.198,
      "duration": 0.115,
      "velocity": 88,
      "chip": "ym2612"
    },
    {
      "channel": 0,
      "note": 33,
      "start": 75.3311,
      "duration": 0.1151,
      "velocity": 127,
      "chip": "ym2612"
    },
    {
      "channel": 1,
      "note": 47,
      "start": 75.3313,
      "duration": 0.115,
      "velocity": 88,
      "chip": "ym2612"
    },
    {
      "channel": 0,
      "note": 78,
      "start": 75.4644,
      "duration": 0.1151,
      "velocity": 127,
      "chip": "ym2612"
    },
    {
      "channel": 1,
      "note": 47,
      "start": 75.4646,
      "duration": 0.115,
      "velocity": 88,
      "chip": "ym2612"
    },
    {
      "channel": 0,
      "note": 42,
      "start": 75.5978,
      "duration": 0.1151,
      "velocity": 107,
      "chip": "ym2612"
    },
    {
      "channel": 1,
      "note": 47,
      "start": 75.598,
      "duration": 0.115,
      "velocity": 88,
      "chip": "ym2612"
    },
    {
      "channel": 0,
      "note": 33,
      "start": 75.731,
      "duration": 0.1151,
      "velocity": 127,
      "chip": "ym2612"
    },
    {
      "channel": 1,
      "note": 44,
      "start": 75.7313,
      "duration": 0.115,
      "velocity": 88,
      "chip": "ym2612"
    },
    {
      "channel": 0,
      "note": 78,
      "start": 75.863,
      "duration": 0.1165,
      "velocity": 127,
      "chip": "ym2612"
    },
    {
      "channel": 1,
      "note": 56,
      "start": 75.8633,
      "duration": 0.1163,
      "velocity": 88,
      "chip": "ym2612"
    },
    {
      "channel": 0,
      "note": 78,
      "start": 75.9978,
      "duration": 0.115,
      "velocity": 127,
      "chip": "ym2612"
    },
    {
      "channel": 1,
      "note": 44,
      "start": 75.998,
      "duration": 0.1149,
      "velocity": 88,
      "chip": "ym2612"
    },
    {
      "channel": 0,
      "note": 42,
      "start": 76.131,
      "duration": 0.1151,
      "velocity": 127,
      "chip": "ym2612"
    },
    {
      "channel": 1,
      "note": 45,
      "start": 76.1313,
      "duration": 0.115,
      "velocity": 88,
      "chip": "ym2612"
    },
    {
      "channel": 0,
      "note": 78,
      "start": 76.263,
      "duration": 0.1165,
      "velocity": 127,
      "chip": "ym2612"
    },
    {
      "channel": 1,
      "note": 57,
      "start": 76.2633,
      "duration": 0.1163,
      "velocity": 88,
      "chip": "ym2612"
    },
    {
      "channel": 0,
      "note": 78,
      "start": 76.3978,
      "duration": 0.115,
      "velocity": 107,
      "chip": "ym2612"
    },
    {
      "channel": 1,
      "note": 45,
      "start": 76.398,
      "duration": 0.1149,
      "velocity": 88,
      "chip": "ym2612"
    },
    {
      "channel": 0,
      "note": 33,
      "start": 76.531,
      "duration": 0.1151,
      "velocity": 127,
      "chip": "ym2612"
    },
    {
      "channel": 1,
      "note": 46,
      "start": 76.5313,
      "duration": 0.115,
      "velocity": 88,
      "chip": "ym2612"
    },
    {
      "channel": 0,
      "note": 78,
      "start": 76.6645,
      "duration": 0.1151,
      "velocity": 127,
      "chip": "ym2612"
    },
    {
      "channel": 1,
      "note": 58,
      "start": 76.6647,
      "duration": 0.1149,
      "velocity": 88,
      "chip": "ym2612"
    },
    {
      "channel": 0,
      "note": 42,
      "start": 76.7979,
      "duration": 0.1149,
      "velocity": 107,
      "chip": "ym2612"
    },
    {
      "channel": 1,
      "note": 46,
      "start": 76.7981,
      "duration": 0.1148,
      "velocity": 88,
      "chip": "ym2612"
    },
    {
      "channel": 2,
      "note": 70,
      "start": 76.7984,
      "duration": 0.648,
      "velocity": 83,
      "chip": "ym2612"
    },
    {
      "channel": 0,
      "note": 33,
      "start": 76.9311,
      "duration": 0.1151,
      "velocity": 127,
      "chip": "ym2612"
    },
    {
      "channel": 1,
      "note": 47,
      "start": 76.9313,
      "duration": 0.115,
      "velocity": 88,
      "chip": "ym2612"
    },
    {
      "channel": 0,
      "note": 78,
      "start": 77.0629,
      "duration": 0.1165,
      "velocity": 127,
      "chip": "ym2612"
    },
    {
      "channel": 1,
      "note": 47,
      "start": 77.0632,
      "duration": 0.1164,
      "velocity": 88,
      "chip": "ym2612"
    },
    {
      "channel": 0,
      "note": 78,
      "start": 77.1977,
      "duration": 0.1151,
      "velocity": 107,
      "chip": "ym2612"
    },
    {
      "channel": 1,
      "note": 47,
      "start": 77.198,
      "duration": 0.115,
      "velocity": 88,
      "chip": "ym2612"
    },
    {
      "channel": 0,
      "note": 33,
      "start": 77.3311,
      "duration": 0.1151,
      "velocity": 127,
      "chip": "ym2612"
    },
    {
      "channel": 1,
      "note": 47,
      "start": 77.3313,
      "duration": 0.1149,
      "velocity": 88,
      "chip": "ym2612"
    },
    {
      "channel": 0,
      "note": 78,
      "start": 77.463,
      "duration": 0.1165,
      "velocity": 127,
      "chip": "ym2612"
    },
    {
      "channel": 1,
      "note": 47,
      "start": 77.4633,
      "duration": 0.1163,
      "velocity": 88,
      "chip": "ym2612"
    },
    {
      "channel": 2,
      "note": 77,
      "start": 77.4635,
      "duration": 0.5161,
      "velocity": 83,
      "chip": "ym2612"
    },
    {
      "channel": 0,
      "note": 78,
      "start": 77.5978,
      "duration": 0.115,
      "velocity": 127,
      "chip": "ym2612"
    },
    {
      "channel": 1,
      "note": 47,
      "start": 77.598,
      "duration": 0.1149,
      "velocity": 88,
      "chip": "ym2612"
    },
    {
      "channel": 0,
      "note": 42,
      "start": 77.731,
      "duration": 0.1151,
      "velocity": 127,
      "chip": "ym2612"
    },
    {
      "channel": 1,
      "note": 47,
      "start": 77.7313,
      "duration": 0.115,
      "velocity": 88,
      "chip": "ym2612"
    },
    {
      "channel": 0,
      "note": 78,
      "start": 77.863,
      "duration": 0.1165,
      "velocity": 127,
      "chip": "ym2612"
    },
    {
      "channel": 1,
      "note": 47,
      "start": 77.8633,
      "duration": 0.1163,
      "velocity": 88,
      "chip": "ym2612"
    },
    {
      "channel": 0,
      "note": 78,
      "start": 77.9978,
      "duration": 0.1149,
      "velocity": 107,
      "chip": "ym2612"
    },
    {
      "channel": 1,
      "note": 47,
      "start": 77.9981,
      "duration": 0.1148,
      "velocity": 88,
      "chip": "ym2612"
    },
    {
      "channel": 2,
      "note": 74,
      "start": 77.9983,
      "duration": 0.2481,
      "velocity": 83,
      "chip": "ym2612"
    },
    {
      "channel": 0,
      "note": 33,
      "start": 78.131,
      "duration": 0.1151,
      "velocity": 127,
      "chip": "ym2612"
    },
    {
      "channel": 1,
      "note": 54,
      "start": 78.1313,
      "duration": 0.115,
      "velocity": 88,
      "chip": "ym2612"
    },
    {
      "channel": 0,
      "note": 78,
      "start": 78.263,
      "duration": 0.1165,
      "velocity": 127,
      "chip": "ym2612"
    },
    {
      "channel": 1,
      "note": 47,
      "start": 78.2632,
      "duration": 0.1163,
      "velocity": 88,
      "chip": "ym2612"
    },
    {
      "channel": 2,
      "note": 71,
      "start": 78.2635,
      "duration": 1.5829,
      "velocity": 83,
      "chip": "ym2612"
    },
    {
      "channel": 0,
      "note": 78,
      "start": 78.3977,
      "duration": 0.1151,
      "velocity": 107,
      "chip": "ym2612"
    },
    {
      "channel": 1,
      "note": 56,
      "start": 78.398,
      "duration": 0.115,
      "velocity": 88,
      "chip": "ym2612"
    },
    {
      "channel": 0,
      "note": 33,
      "start": 78.5311,
      "duration": 0.115,
      "velocity": 127,
      "chip": "ym2612"
    },
    {
      "channel": 1,
      "note": 47,
      "start": 78.5313,
      "duration": 0.1149,
      "velocity": 88,
      "chip": "ym2612"
    },
    {
      "channel": 0,
      "note": 78,
      "start": 78.663,
      "duration": 0.1165,
      "velocity": 127,
      "chip": "ym2612"
    },
    {
      "channel": 1,
      "note": 47,
      "start": 78.6632,
      "duration": 0.1163,
      "velocity": 88,
      "chip": "ym2612"
    },
    {
      "channel": 0,
      "note": 78,
      "start": 78.7978,
      "duration": 0.1151,
      "velocity": 107,
      "chip": "ym2612"
    },
    {
      "channel": 1,
      "note": 47,
      "start": 78.798,
      "duration": 0.115,
      "velocity": 88,
      "chip": "ym2612"
    },
    {
      "channel": 0,
      "note": 33,
      "start": 78.9311,
      "duration": 0.115,
      "velocity": 127,
      "chip": "ym2612"
    },
    {
      "channel": 1,
      "note": 44,
      "start": 78.9313,
      "duration": 0.1149,
      "velocity": 88,
      "chip": "ym2612"
    },
    {
      "channel": 0,
      "note": 78,
      "start": 79.063,
      "duration": 0.1165,
      "velocity": 127,
      "chip": "ym2612"
    },
    {
      "channel": 1,
      "note": 56,
      "start": 79.0632,
      "duration": 0.1163,
      "velocity": 88,
      "chip": "ym2612"
    },
    {
      "channel": 0,
      "note": 78,
      "start": 79.1977,
      "duration": 0.1151,
      "velocity": 127,
      "chip": "ym2612"
    },
    {
      "channel": 1,
      "note": 44,
      "start": 79.198,
      "duration": 0.115,
      "velocity": 88,
      "chip": "ym2612"
    },
    {
      "channel": 0,
      "note": 42,
      "start": 79.3312,
      "duration": 0.1149,
      "velocity": 127,
      "chip": "ym2612"
    },
    {
      "channel": 1,
      "note": 45,
      "start": 79.3314,
      "duration": 0.1148,
      "velocity": 88,
      "chip": "ym2612"
    },
    {
      "channel": 0,
      "note": 78,
      "start": 79.463,
      "duration": 0.1165,
      "velocity": 127,
      "chip": "ym2612"
    },
    {
      "channel": 1,
      "note": 57,
      "start": 79.4632,
      "duration": 0.1163,
      "velocity": 88,
      "chip": "ym2612"
    },
    {
      "channel": 0,
      "note": 78,
      "start": 79.5977,
      "duration": 0.1151,
      "velocity": 107,
      "chip": "ym2612"
    },
    {
      "channel": 1,
      "note": 45,
      "start": 79.598,
      "duration": 0.115,
      "velocity": 88,
      "chip": "ym2612"
    },
    {
      "channel": 0,
      "note": 33,
      "start": 79.7312,
      "duration": 0.1149,
      "velocity": 127,
      "chip": "ym2612"
    },
    {
      "channel": 1,
      "note": 46,
      "start": 79.7314,
      "duration": 0.1148,
      "velocity": 88,
      "chip": "ym2612"
    },
    {
      "channel": 0,
      "note": 78,
      "start": 79.8644,
      "duration": 0.115,
      "velocity": 127,
      "chip": "ym2612"
    },
    {
      "channel": 1,
      "note": 58,
      "start": 79.8647,
      "duration": 0.1149,
      "velocity": 88,
      "chip": "ym2612"
    },
    {
      "channel": 2,
      "note": 74,
      "start": 79.8649,
      "duration": 0.1147,
      "velocity": 83,
      "chip": "ym2612"
    },
    {
      "channel": 0,
      "note": 42,
      "start": 79.9978,
      "duration": 0.1151,
      "velocity": 107,
      "chip": "ym2612"
    },
    {
      "channel": 1,
      "note": 46,
      "start": 79.998,
      "duration": 0.115,
      "velocity": 88,
      "chip": "ym2612"
    },
    {
      "channel": 2,
      "note": 74,
      "start": 79.9983,
      "duration": 0.1149,
      "velocity": 83,
      "chip": "ym2612"
    },
    {
      "channel": 0,
      "note": 33,
      "start": 80.1311,
      "duration": 0.1151,
      "velocity": 127,
      "chip": "ym2612"
    },
    {
      "channel": 1,
      "note": 50,
      "start": 80.1313,
      "duration": 0.115,
      "velocity": 88,
      "chip": "ym2612"
    },
    {
      "channel": 2,
      "note": 78,
      "start": 80.1316,
      "duration": 0.048,
      "velocity": 83,
      "chip": "ym2612"
    },
    {
      "channel": 2,
      "note": 76,
      "start": 80.1962,
      "duration": 0.0502,
      "velocity": 83,
      "chip": "ym2612"
    },
    {
      "channel": 0,
      "note": 78,
      "start": 80.263,
      "duration": 0.1165,
      "velocity": 127,
      "chip": "ym2612"
    },
    {
      "channel": 1,
      "note": 50,
      "start": 80.2633,
      "duration": 0.1163,
      "velocity": 88,
      "chip": "ym2612"
    },
    {
      "channel": 2,
      "note": 74,
      "start": 80.2635,
      "duration": 0.1161,
      "velocity": 83,
      "chip": "ym2612"
    },
    {
      "channel": 0,
      "note": 78,
      "start": 80.3978,
      "duration": 0.1151,
      "velocity": 107,
      "chip": "ym2612"
    },
    {
      "channel": 1,
      "note": 50,
      "start": 80.3981,
      "duration": 0.1149,
      "velocity": 88,
      "chip": "ym2612"
    },
    {
      "channel": 2,
      "note": 71,
      "start": 80.3983,
      "duration": 0.1148,
      "velocity": 83,
      "chip": "ym2612"
    },
    {
      "channel": 0,
      "note": 33,
      "start": 80.5311,
      "duration": 0.1151,
      "velocity": 127,
      "chip": "ym2612"
    },
    {
      "channel": 1,
      "note": 47,
      "start": 80.5313,
      "duration": 0.115,
      "velocity": 88,
      "chip": "ym2612"
    },
    {
      "channel": 2,
      "note": 78,
      "start": 80.5316,
      "duration": 0.048,
      "velocity": 83,
      "chip": "ym2612"
    },
    {
      "channel": 2,
      "note": 76,
      "start": 80.5962,
      "duration": 0.0502,
      "velocity": 83,
      "chip": "ym2612"
    },
    {
      "channel": 0,
      "note": 78,
      "start": 80.663,
      "duration": 0.1165,
      "velocity": 127,
      "chip": "ym2612"
    },
    {
      "channel": 1,
      "note": 47,
      "start": 80.6632,
      "duration": 0.1163,
      "velocity": 88,
      "chip": "ym2612"
    },
    {
      "channel": 2,
      "note": 74,
      "start": 80.6635,
      "duration": 0.1162,
      "velocity": 83,
      "chip": "ym2612"
    },
    {
      "channel": 0,
      "note": 78,
      "start": 80.7978,
      "duration": 0.115,
      "velocity": 127,
      "chip": "ym2612"
    },
    {
      "channel": 1,
      "note": 47,
      "start": 80.798,
      "duration": 0.1149,
      "velocity": 88,
      "chip": "ym2612"
    },
    {
      "channel": 2,
      "note": 71,
      "start": 80.7983,
      "duration": 0.1147,
      "velocity": 83,
      "chip": "ym2612"
    },
    {
      "channel": 0,
      "note": 42,
      "start": 80.9311,
      "duration": 0.115,
      "velocity": 127,
      "chip": "ym2612"
    },
    {
      "channel": 1,
      "note": 48,
      "start": 80.9313,
      "duration": 0.1149,
      "velocity": 88,
      "chip": "ym2612"
    },
    {
      "channel": 2,
      "note": 78,
      "start": 80.9316,
      "duration": 0.0481,
      "velocity": 83,
      "chip": "ym2612"
    },
    {
      "channel": 2,
      "note": 76,
      "start": 80.9963,
      "duration": 0.05,
      "velocity": 83,
      "chip": "ym2612"
    },
    {
      "channel": 0,
      "note": 78,
      "start": 81.063,
      "duration": 0.1165,
      "velocity": 127,
      "chip": "ym2612"
    },
    {
      "channel": 1,
      "note": 48,
      "start": 81.0633,
      "duration": 0.1163,
      "velocity": 88,
      "chip": "ym2612"
    },
    {
      "channel": 2,
      "note": 74,
      "start": 81.0635,
      "duration": 0.1161,
      "velocity": 83,
      "chip": "ym2612"
    },
    {
      "channel": 0,
      "note": 78,
      "start": 81.1978,
      "duration": 0.115,
      "velocity": 107,
      "chip": "ym2612"
    },
    {
      "channel": 1,
      "note": 48,
      "start": 81.1981,
      "duration": 0.1148,
      "velocity": 88,
      "chip": "ym2612"
    },
    {
      "channel": 2,
      "note": 71,
      "start": 81.1983,
      "duration": 0.1147,
      "velocity": 83,
      "chip": "ym2612"
    },
    {
      "channel": 0,
      "note": 33,
      "start": 81.3311,
      "duration": 0.115,
      "velocity": 127,
      "chip": "ym2612"
    },
    {
      "channel": 1,
      "note": 50,
      "start": 81.3313,
      "duration": 0.1149,
      "velocity": 88,
      "chip": "ym2612"
    },
    {
      "channel": 2,
      "note": 78,
      "start": 81.3316,
      "duration": 0.0481,
      "velocity": 83,
      "chip": "ym2612"
    },
    {
      "channel": 2,
      "note": 76,
      "start": 81.3963,
      "duration": 0.05,
      "velocity": 83,
      "chip": "ym2612"
    },
    {
      "channel": 0,
      "note": 78,
      "start": 81.463,
      "duration": 0.1165,
      "velocity": 127,
      "chip": "ym2612"
    },
    {
      "channel": 1,
      "note": 50,
      "start": 81.4633,
      "duration": 0.1163,
      "velocity": 88,
      "chip": "ym2612"
    },
    {
      "channel": 2,
      "note": 74,
      "start": 81.4635,
      "duration": 0.1161,
      "velocity": 83,
      "chip": "ym2612"
    },
    {
      "channel": 0,
      "note": 78,
      "start": 81.5978,
      "duration": 0.115,
      "velocity": 107,
      "chip": "ym2612"
    },
    {
      "channel": 1,
      "note": 50,
      "start": 81.5981,
      "duration": 0.1148,
      "velocity": 88,
      "chip": "ym2612"
    },
    {
      "channel": 2,
      "note": 71,
      "start": 81.5983,
      "duration": 0.0479,
      "velocity": 83,
      "chip": "ym2612"
    },
    {
      "channel": 2,
      "note": 81,
      "start": 81.663,
      "duration": 0.05,
      "velocity": 83,
      "chip": "ym2612"
    },
    {
      "channel": 0,
      "note": 33,
      "start": 81.7312,
      "duration": 0.115,
      "velocity": 127,
      "chip": "ym2612"
    },
    {
      "channel": 1,
      "note": 52,
      "start": 81.7314,
      "duration": 0.1148,
      "velocity": 88,
      "chip": "ym2612"
    },
    {
      "channel": 2,
      "note": 78,
      "start": 81.7317,
      "duration": 0.048,
      "velocity": 83,
      "chip": "ym2612"
    },
    {
      "channel": 2,
      "note": 76,
      "start": 81.7963,
      "duration": 0.05,
      "velocity": 83,
      "chip": "ym2612"
    },
    {
      "channel": 0,
      "note": 78,
      "start": 81.8645,
      "duration": 0.1149,
      "velocity": 127,
      "chip": "ym2612"
    },
    {
      "channel": 1,
      "note": 52,
      "start": 81.8647,
      "duration": 0.1148,
      "velocity": 88,
      "chip": "ym2612"
    },
    {
      "channel": 2,
      "note": 74,
      "start": 81.865,
      "duration": 0.048,
      "velocity": 83,
      "chip": "ym2612"
    },
    {
      "channel": 2,
      "note": 71,
      "start": 81.9296,
      "duration": 0.05,
      "velocity": 83,
      "chip": "ym2612"
    },
    {
      "channel": 0,
      "note": 42,
      "start": 81.9978,
      "duration": 0.1151,
      "velocity": 107,
      "chip": "ym2612"
    },
    {
      "channel": 1,
      "note": 52,
      "start": 81.998,
      "duration": 0.115,
      "velocity": 88,
      "chip": "ym2612"
    },
    {
      "channel": 2,
      "note": 81,
      "start": 81.9983,
      "duration": 0.0479,
      "velocity": 83,
      "chip": "ym2612"
    },
    {
      "channel": 2,
      "note": 78,
      "start": 82.063,
      "duration": 0.05,
      "velocity": 83,
      "chip": "ym2612"
    },
    {
      "channel": 0,
      "note": 33,
      "start": 82.1312,
      "duration": 0.115,
      "velocity": 127,
      "chip": "ym2612"
    },
    {
      "channel": 1,
      "note": 49,
      "start": 82.1314,
      "duration": 0.1149,
      "velocity": 88,
      "chip": "ym2612"
    },
    {
      "channel": 2,
      "note": 76,
      "start": 82.1317,
      "duration": 0.0479,
      "velocity": 83,
      "chip": "ym2612"
    },
    {
      "channel": 2,
      "note": 74,
      "start": 82.1963,
      "duration": 0.05,
      "velocity": 83,
      "chip": "ym2612"
    },
    {
      "channel": 0,
      "note": 78,
      "start": 82.2629,
      "duration": 0.1167,
      "velocity": 127,
      "chip": "ym2612"
    },
    {
      "channel": 1,
      "note": 61,
      "start": 82.2632,
      "duration": 0.1165,
      "velocity": 88,
      "chip": "ym2612"
    },
    {
      "channel": 2,
      "note": 71,
      "start": 82.2634,
      "duration": 0.0495,
      "velocity": 83,
      "chip": "ym2612"
    },
    {
      "channel": 2,
      "note": 81,
      "start": 82.3297,
      "duration": 0.0501,
      "velocity": 83,
      "chip": "ym2612"
    },
    {
      "channel": 0,
      "note": 78,
      "start": 82.3978,
      "duration": 0.1151,
      "velocity": 127,
      "chip": "ym2612"
    },
    {
      "channel": 1,
      "note": 49,
      "start": 82.398,
      "duration": 0.115,
      "velocity": 88,
      "chip": "ym2612"
    },
    {
      "channel": 2,
      "note": 78,
      "start": 82.3983,
      "duration": 0.048,
      "velocity": 83,
      "chip": "ym2612"
    },
    {
      "channel": 2,
      "note": 76,
      "start": 82.4629,
      "duration": 0.0502,
      "velocity": 83,
      "chip": "ym2612"
    },
    {
      "channel": 0,
      "note": 42,
      "start": 82.5311,
      "duration": 0.1151,
      "velocity": 127,
      "chip": "ym2612"
    },
    {
      "channel": 1,
      "note": 50,
      "start": 82.5313,
      "duration": 0.115,
      "velocity": 88,
      "chip": "ym2612"
    },
    {
      "channel": 2,
      "note": 74,
      "start": 82.5316,
      "duration": 0.048,
      "velocity": 83,
      "chip": "ym2612"
    },
    {
      "channel": 2,
      "note": 71,
      "start": 82.5962,
      "duration": 0.0502,
      "velocity": 83,
      "chip": "ym2612"
    },
    {
      "channel": 0,
      "note": 78,
      "start": 82.663,
      "duration": 0.1165,
      "velocity": 127,
      "chip": "ym2612"
    },
    {
      "channel": 1,
      "note": 62,
      "start": 82.6632,
      "duration": 0.1163,
      "velocity": 88,
      "chip": "ym2612"
    },
    {
      "channel": 2,
      "note": 81,
      "start": 82.6635,
      "duration": 0.0494,
      "velocity": 83,
      "chip": "ym2612"
    },
    {
      "channel": 2,
      "note": 78,
      "start": 82.7296,
      "duration": 0.05,
      "velocity": 83,
      "chip": "ym2612"
    },
    {
      "channel": 0,
      "note": 78,
      "start": 82.7978,
      "duration": 0.115,
      "velocity": 107,
      "chip": "ym2612"
    },
    {
      "channel": 1,
      "note": 50,
      "start": 82.7981,
      "duration": 0.1148,
      "velocity": 88,
      "chip": "ym2612"
    },
    {
      "channel": 2,
      "note": 76,
      "start": 82.7983,
      "duration": 0.0478,
      "velocity": 83,
      "chip": "ym2612"
    },
    {
      "channel": 2,
      "note": 74,
      "start": 82.863,
      "duration": 0.05,
      "velocity": 83,
      "chip": "ym2612"
    },
    {
      "channel": 0,
      "note": 33,
      "start": 82.9312,
      "duration": 0.115,
      "velocity": 127,
      "chip": "ym2612"
    },
    {
      "channel": 1,
      "note": 52,
      "start": 82.9314,
      "duration": 0.1149,
      "velocity": 88,
      "chip": "ym2612"
    },
    {
      "channel": 2,
      "note": 71,
      "start": 82.9317,
      "duration": 0.0478,
      "velocity": 83,
      "chip": "ym2612"
    },
    {
      "channel": 2,
      "note": 81,
      "start": 82.9963,
      "duration": 0.05,
      "velocity": 83,
      "chip": "ym2612"
    },
    {
      "channel": 0,
      "note": 78,
      "start": 83.0645,
      "duration": 0.115,
      "velocity": 127,
      "chip": "ym2612"
    },
    {
      "channel": 1,
      "note": 64,
      "start": 83.0647,
      "duration": 0.1148,
      "velocity": 88,
      "chip": "ym2612"
    },
    {
      "channel": 2,
      "note": 78,
      "start": 83.065,
      "duration": 0.0479,
      "velocity": 83,
      "chip": "ym2612"
    },
    {
      "channel": 2,
      "note": 76,
      "start": 83.1296,
      "duration": 0.05,
      "velocity": 83,
      "chip": "ym2612"
    },
    {
      "channel": 0,
      "note": 42,
      "start": 83.198,
      "duration": 0.1149,
      "velocity": 107,
      "chip": "ym2612"
    },
    {
      "channel": 1,
      "note": 52,
      "start": 83.1982,
      "duration": 0.1148,
      "velocity": 88,
      "chip": "ym2612"
    },
    {
      "channel": 2,
      "note": 74,
      "start": 83.1985,
      "duration": 0.6479,
      "velocity": 83,
      "chip": "ym2612"
    },
    {
      "channel": 0,
      "note": 33,
      "start": 83.3312,
      "duration": 0.1151,
      "velocity": 127,
      "chip": "ym2612"
    },
    {
      "channel": 1,
      "note": 50,
      "start": 83.3314,
      "duration": 0.1149,
      "velocity": 88,
      "chip": "ym2612"
    },
    {
      "channel": 0,
      "note": 78,
      "start": 83.463,
      "duration": 0.1165,
      "velocity": 127,
      "chip": "ym2612"
    },
    {
      "channel": 1,
      "note": 50,
      "start": 83.4632,
      "duration": 0.1163,
      "velocity": 88,
      "chip": "ym2612"
    },
    {
      "channel": 0,
      "note": 78,
      "start": 83.5977,
      "duration": 0.1151,
      "velocity": 107,
      "chip": "ym2612"
    },
    {
      "channel": 1,
      "note": 50,
      "start": 83.598,
      "duration": 0.115,
      "velocity": 88,
      "chip": "ym2612"
    },
    {
      "channel": 0,
      "note": 33,
      "start": 83.7311,
      "duration": 0.115,
      "velocity": 127,
      "chip": "ym2612"
    },
    {
      "channel": 1,
      "note": 50,
      "start": 83.7313,
      "duration": 0.1149,
      "velocity": 88,
      "chip": "ym2612"
    },
    {
      "channel": 0,
      "note": 78,
      "start": 83.863,
      "duration": 0.1165,
      "velocity": 127,
      "chip": "ym2612"
    },
    {
      "channel": 1,
      "note": 50,
      "start": 83.8633,
      "duration": 0.1163,
      "velocity": 88,
      "chip": "ym2612"
    },
    {
      "channel": 2,
      "note": 77,
      "start": 83.8635,
      "duration": 0.5161,
      "velocity": 83,
      "chip": "ym2612"
    },
    {
      "channel": 0,
      "note": 78,
      "start": 83.9977,
      "duration": 0.1151,
      "velocity": 127,
      "chip": "ym2612"
    },
    {
      "channel": 1,
      "note": 50,
      "start": 83.998,
      "duration": 0.115,
      "velocity": 88,
      "chip": "ym2612"
    },
    {
      "channel": 0,
      "note": 42,
      "start": 84.1312,
      "duration": 0.1149,
      "velocity": 127,
      "chip": "ym2612"
    },
    {
      "channel": 1,
      "note": 50,
      "start": 84.1314,
      "duration": 0.1148,
      "velocity": 88,
      "chip": "ym2612"
    },
    {
      "channel": 0,
      "note": 78,
      "start": 84.263,
      "duration": 0.1165,
      "velocity": 127,
      "chip": "ym2612"
    },
    {
      "channel": 1,
      "note": 50,
      "start": 84.2632,
      "duration": 0.1163,
      "velocity": 88,
      "chip": "ym2612"
    },
    {
      "channel": 0,
      "note": 78,
      "start": 84.3978,
      "duration": 0.115,
      "velocity": 107,
      "chip": "ym2612"
    },
    {
      "channel": 1,
      "note": 50,
      "start": 84.398,
      "duration": 0.1149,
      "velocity": 88,
      "chip": "ym2612"
    },
    {
      "channel": 2,
      "note": 74,
      "start": 84.3983,
      "duration": 0.2481,
      "velocity": 83,
      "chip": "ym2612"
    },
    {
      "channel": 0,
      "note": 33,
      "start": 84.531,
      "duration": 0.1151,
      "velocity": 127,
      "chip": "ym2612"
    },
    {
      "channel": 1,
      "note": 50,
      "start": 84.5313,
      "duration": 0.115,
      "velocity": 88,
      "chip": "ym2612"
    },
    {
      "channel": 0,
      "note": 78,
      "start": 84.663,
      "duration": 0.1165,
      "velocity": 127,
      "chip": "ym2612"
    },
    {
      "channel": 1,
      "note": 50,
      "start": 84.6632,
      "duration": 0.1163,
      "velocity": 88,
      "chip": "ym2612"
    },
    {
      "channel": 2,
      "note": 71,
      "start": 84.6635,
      "duration": 1.7163,
      "velocity": 83,
      "chip": "ym2612"
    },
    {
      "channel": 0,
      "note": 78,
      "start": 84.7977,
      "duration": 0.1151,
      "velocity": 107,
      "chip": "ym2612"
    },
    {
      "channel": 1,
      "note": 50,
      "start": 84.798,
      "duration": 0.115,
      "velocity": 88,
      "chip": "ym2612"
    },
    {
      "channel": 0,
      "note": 33,
      "start": 84.9311,
      "duration": 0.115,
      "velocity": 127,
      "chip": "ym2612"
    },
    {
      "channel": 1,
      "note": 50,
      "start": 84.9313,
      "duration": 0.1149,
      "velocity": 88,
      "chip": "ym2612"
    },
    {
      "channel": 0,
      "note": 78,
      "start": 85.063,
      "duration": 0.1165,
      "velocity": 127,
      "chip": "ym2612"
    },
    {
      "channel": 1,
      "note": 50,
      "start": 85.0632,
      "duration": 0.1163,
      "velocity": 88,
      "chip": "ym2612"
    },
    {
      "channel": 0,
      "note": 78,
      "start": 85.1977,
      "duration": 0.1151,
      "velocity": 107,
      "chip": "ym2612"
    },
    {
      "channel": 1,
      "note": 50,
      "start": 85.198,
      "duration": 0.115,
      "velocity": 88,
      "chip": "ym2612"
    },
    {
      "channel": 0,
      "note": 33,
      "start": 85.3311,
      "duration": 0.115,
      "velocity": 127,
      "chip": "ym2612"
    },
    {
      "channel": 1,
      "note": 50,
      "start": 85.3313,
      "duration": 0.1149,
      "velocity": 88,
      "chip": "ym2612"
    },
    {
      "channel": 0,
      "note": 78,
      "start": 85.463,
      "duration": 0.1165,
      "velocity": 127,
      "chip": "ym2612"
    },
    {
      "channel": 1,
      "note": 50,
      "start": 85.4632,
      "duration": 0.1163,
      "velocity": 88,
      "chip": "ym2612"
    },
    {
      "channel": 0,
      "note": 78,
      "start": 85.5977,
      "duration": 0.1151,
      "velocity": 127,
      "chip": "ym2612"
    },
    {
      "channel": 1,
      "note": 50,
      "start": 85.598,
      "duration": 0.115,
      "velocity": 88,
      "chip": "ym2612"
    },
    {
      "channel": 0,
      "note": 42,
      "start": 85.7311,
      "duration": 0.115,
      "velocity": 127,
      "chip": "ym2612"
    },
    {
      "channel": 1,
      "note": 50,
      "start": 85.7313,
      "duration": 0.1149,
      "velocity": 88,
      "chip": "ym2612"
    },
    {
      "channel": 0,
      "note": 78,
      "start": 85.863,
      "duration": 0.1165,
      "velocity": 127,
      "chip": "ym2612"
    },
    {
      "channel": 1,
      "note": 50,
      "start": 85.8632,
      "duration": 0.1163,
      "velocity": 88,
      "chip": "ym2612"
    },
    {
      "channel": 0,
      "note": 78,
      "start": 85.9977,
      "duration": 0.1151,
      "velocity": 107,
      "chip": "ym2612"
    },
    {
      "channel": 1,
      "note": 50,
      "start": 85.998,
      "duration": 0.115,
      "velocity": 88,
      "chip": "ym2612"
    },
    {
      "channel": 0,
      "note": 33,
      "start": 86.1311,
      "duration": 0.115,
      "velocity": 127,
      "chip": "ym2612"
    },
    {
      "channel": 1,
      "note": 50,
      "start": 86.1313,
      "duration": 0.1149,
      "velocity": 88,
      "chip": "ym2612"
    },
    {
      "channel": 0,
      "note": 78,
      "start": 86.2644,
      "duration": 0.1151,
      "velocity": 127,
      "chip": "ym2612"
    },
    {
      "channel": 1,
      "note": 50,
      "start": 86.2646,
      "duration": 0.115,
      "velocity": 88,
      "chip": "ym2612"
    },
    {
      "channel": 0,
      "note": 42,
      "start": 86.3978,
      "duration": 0.1149,
      "velocity": 107,
      "chip": "ym2612"
    },
    {
      "channel": 1,
      "note": 50,
      "start": 86.3981,
      "duration": 0.1148,
      "velocity": 88,
      "chip": "ym2612"
    },
    {
      "channel": 2,
      "note": 74,
      "start": 86.3983,
      "duration": 0.6481,
      "velocity": 83,
      "chip": "ym2612"
    },
    {
      "channel": 0,
      "note": 33,
      "start": 86.531,
      "duration": 0.1151,
      "velocity": 127,
      "chip": "ym2612"
    },
    {
      "channel": 1,
      "note": 50,
      "start": 86.5313,
      "duration": 0.115,
      "velocity": 88,
      "chip": "ym2612"
    },
    {
      "channel": 0,
      "note": 78,
      "start": 86.663,
      "duration": 0.1165,
      "velocity": 127,
      "chip": "ym2612"
    },
    {
      "channel": 1,
      "note": 50,
      "start": 86.6633,
      "duration": 0.1163,
      "velocity": 88,
      "chip": "ym2612"
    },
    {
      "channel": 0,
      "note": 78,
      "start": 86.7978,
      "duration": 0.115,
      "velocity": 107,
      "chip": "ym2612"
    },
    {
      "channel": 1,
      "note": 50,
      "start": 86.798,
      "duration": 0.1149,
      "velocity": 88,
      "chip": "ym2612"
    },
    {
      "channel": 0,
      "note": 33,
      "start": 86.931,
      "duration": 0.1151,
      "velocity": 127,
      "chip": "ym2612"
    },
    {
      "channel": 1,
      "note": 50,
      "start": 86.9313,
      "duration": 0.115,
      "velocity": 88,
      "chip": "ym2612"
    },
    {
      "channel": 0,
      "note": 78,
      "start": 87.063,
      "duration": 0.1165,
      "velocity": 127,
      "chip": "ym2612"
    },
    {
      "channel": 1,
      "note": 50,
      "start": 87.0632,
      "duration": 0.1163,
      "velocity": 88,
      "chip": "ym2612"
    },
    {
      "channel": 2,
      "note": 77,
      "start": 87.0635,
      "duration": 0.5162,
      "velocity": 83,
      "chip": "ym2612"
    },
    {
      "channel": 0,
      "note": 78,
      "start": 87.1977,
      "duration": 0.1151,
      "velocity": 127,
      "chip": "ym2612"
    },
    {
      "channel": 1,
      "note": 50,
      "start": 87.198,
      "duration": 0.115,
      "velocity": 88,
      "chip": "ym2612"
    },
    {
      "channel": 0,
      "note": 42,
      "start": 87.3311,
      "duration": 0.115,
      "velocity": 127,
      "chip": "ym2612"
    },
    {
      "channel": 1,
      "note": 50,
      "start": 87.3313,
      "duration": 0.1149,
      "velocity": 88,
      "chip": "ym2612"
    },
    {
      "channel": 0,
      "note": 78,
      "start": 87.4629,
      "duration": 0.1165,
      "velocity": 127,
      "chip": "ym2612"
    },
    {
      "channel": 1,
      "note": 50,
      "start": 87.4632,
      "duration": 0.1164,
      "velocity": 88,
      "chip": "ym2612"
    },
    {
      "channel": 0,
      "note": 78,
      "start": 87.5978,
      "duration": 0.115,
      "velocity": 107,
      "chip": "ym2612"
    },
    {
      "channel": 1,
      "note": 50,
      "start": 87.598,
      "duration": 0.1149,
      "velocity": 88,
      "chip": "ym2612"
    },
    {
      "channel": 2,
      "note": 74,
      "start": 87.5983,
      "duration": 0.2481,
      "velocity": 83,
      "chip": "ym2612"
    },
    {
      "channel": 0,
      "note": 33,
      "start": 87.731,
      "duration": 0.1151,
      "velocity": 127,
      "chip": "ym2612"
    },
    {
      "channel": 1,
      "note": 50,
      "start": 87.7313,
      "duration": 0.115,
      "velocity": 88,
      "chip": "ym2612"
    },
    {
      "channel": 0,
      "note": 78,
      "start": 87.863,
      "duration": 0.1165,
      "velocity": 127,
      "chip": "ym2612"
    },
    {
      "channel": 1,
      "note": 50,
      "start": 87.8633,
      "duration": 0.1163,
      "velocity": 88,
      "chip": "ym2612"
    },
    {
      "channel": 2,
      "note": 71,
      "start": 87.8635,
      "duration": 1.7161,
      "velocity": 83,
      "chip": "ym2612"
    },
    {
      "channel": 0,
      "note": 78,
      "start": 87.9978,
      "duration": 0.1151,
      "velocity": 107,
      "chip": "ym2612"
    },
    {
      "channel": 1,
      "note": 50,
      "start": 87.998,
      "duration": 0.115,
      "velocity": 88,
      "chip": "ym2612"
    },
    {
      "channel": 0,
      "note": 33,
      "start": 88.131,
      "duration": 0.1151,
      "velocity": 127,
      "chip": "ym2612"
    },
    {
      "channel": 1,
      "note": 50,
      "start": 88.1313,
      "duration": 0.115,
      "velocity": 88,
      "chip": "ym2612"
    },
    {
      "channel": 0,
      "note": 78,
      "start": 88.2644,
      "duration": 0.1151,
      "velocity": 127,
      "chip": "ym2612"
    },
    {
      "channel": 1,
      "note": 50,
      "start": 88.2647,
      "duration": 0.115,
      "velocity": 88,
      "chip": "ym2612"
    },
    {
      "channel": 0,
      "note": 42,
      "start": 88.3977,
      "duration": 0.1151,
      "velocity": 107,
      "chip": "ym2612"
    },
    {
      "channel": 1,
      "note": 50,
      "start": 88.398,
      "duration": 0.115,
      "velocity": 88,
      "chip": "ym2612"
    },
    {
      "channel": 0,
      "note": 33,
      "start": 88.5311,
      "duration": 0.1151,
      "velocity": 127,
      "chip": "ym2612"
    },
    {
      "channel": 1,
      "note": 47,
      "start": 88.5313,
      "duration": 0.115,
      "velocity": 88,
      "chip": "ym2612"
    },
    {
      "channel": 0,
      "note": 78,
      "start": 88.663,
      "duration": 0.1166,
      "velocity": 127,
      "chip": "ym2612"
    },
    {
      "channel": 1,
      "note": 59,
      "start": 88.6632,
      "duration": 0.1165,
      "velocity": 88,
      "chip": "ym2612"
    },
    {
      "channel": 0,
      "note": 78,
      "start": 88.7977,
      "duration": 0.1151,
      "velocity": 127,
      "chip": "ym2612"
    },
    {
      "channel": 1,
      "note": 47,
      "start": 88.798,
      "duration": 0.115,
      "velocity": 88,
      "chip": "ym2612"
    },
    {
      "channel": 0,
      "note": 42,
      "start": 88.9311,
      "duration": 0.1151,
      "velocity": 127,
      "chip": "ym2612"
    },
    {
      "channel": 1,
      "note": 48,
      "start": 88.9313,
      "duration": 0.1149,
      "velocity": 88,
      "chip": "ym2612"
    },
    {
      "channel": 0,
      "note": 78,
      "start": 89.063,
      "duration": 0.1165,
      "velocity": 127,
      "chip": "ym2612"
    },
    {
      "channel": 1,
      "note": 60,
      "start": 89.0632,
      "duration": 0.1164,
      "velocity": 88,
      "chip": "ym2612"
    },
    {
      "channel": 0,
      "note": 78,
      "start": 89.1978,
      "duration": 0.115,
      "velocity": 107,
      "chip": "ym2612"
    },
    {
      "channel": 1,
      "note": 48,
      "start": 89.198,
      "duration": 0.1149,
      "velocity": 88,
      "chip": "ym2612"
    },
    {
      "channel": 0,
      "note": 33,
      "start": 89.331,
      "duration": 0.1151,
      "velocity": 127,
      "chip": "ym2612"
    },
    {
      "channel": 1,
      "note": 49,
      "start": 89.3313,
      "duration": 0.115,
      "velocity": 88,
      "chip": "ym2612"
    },
    {
      "channel": 0,
      "note": 78,
      "start": 89.4644,
      "duration": 0.115,
      "velocity": 127,
      "chip": "ym2612"
    },
    {
      "channel": 1,
      "note": 61,
      "start": 89.4647,
      "duration": 0.1149,
      "velocity": 88,
      "chip": "ym2612"
    },
    {
      "channel": 0,
      "note": 42,
      "start": 89.598,
      "duration": 0.1149,
      "velocity": 107,
      "chip": "ym2612"
    },
    {
      "channel": 1,
      "note": 49,
      "start": 89.5982,
      "duration": 0.1148,
      "velocity": 88,
      "chip": "ym2612"
    },
    {
      "channel": 2,
      "note": 70,
      "start": 89.5985,
      "duration": 0.6479,
      "velocity": 83,
      "chip": "ym2612"
    },
    {
      "channel": 0,
      "note": 33,
      "start": 89.7312,
      "duration": 0.1149,
      "velocity": 127,
      "chip": "ym2612"
    },
    {
      "channel": 1,
      "note": 47,
      "start": 89.7314,
      "duration": 0.1148,
      "velocity": 88,
      "chip": "ym2612"
    },
    {
      "channel": 0,
      "note": 78,
      "start": 89.863,
      "duration": 0.1165,
      "velocity": 127,
      "chip": "ym2612"
    },
    {
      "channel": 1,
      "note": 47,
      "start": 89.8632,
      "duration": 0.1163,
      "velocity": 88,
      "chip": "ym2612"
    },
    {
      "channel": 0,
      "note": 78,
      "start": 89.9977,
      "duration": 0.1151,
      "velocity": 107,
      "chip": "ym2612"
    },
    {
      "channel": 1,
      "note": 47,
      "start": 89.998,
      "duration": 0.115,
      "velocity": 88,
      "chip": "ym2612"
    },
    {
      "channel": 0,
      "note": 33,
      "start": 90.1311,
      "duration": 0.115,
      "velocity": 127,
      "chip": "ym2612"
    },
    {
      "channel": 1,
      "note": 47,
      "start": 90.1313,
      "duration": 0.1149,
      "velocity": 88,
      "chip": "ym2612"
    },
    {
      "channel": 0,
      "note": 78,
      "start": 90.263,
      "duration": 0.1165,
      "velocity": 127,
      "chip": "ym2612"
    },
    {
      "channel": 1,
      "note": 47,
      "start": 90.2633,
      "duration": 0.1163,
      "velocity": 88,
      "chip": "ym2612"
    },
    {
      "channel": 2,
      "note": 83,
      "start": 90.2635,
      "duration": 0.5161,
      "velocity": 83,
      "chip": "ym2612"
    },
    {
      "channel": 0,
      "note": 78,
      "start": 90.3978,
      "duration": 0.115,
      "velocity": 127,
      "chip": "ym2612"
    },
    {
      "channel": 1,
      "note": 47,
      "start": 90.398,
      "duration": 0.1149,
      "velocity": 88,
      "chip": "ym2612"
    },
    {
      "channel": 0,
      "note": 42,
      "start": 90.531,
      "duration": 0.1151,
      "velocity": 127,
      "chip": "ym2612"
    },
    {
      "channel": 1,
      "note": 47,
      "start": 90.5313,
      "duration": 0.115,
      "velocity": 88,
      "chip": "ym2612"
    },
    {
      "channel": 0,
      "note": 78,
      "start": 90.663,
      "duration": 0.1165,
      "velocity": 127,
      "chip": "ym2612"
    },
    {
      "channel": 1,
      "note": 47,
      "start": 90.6633,
      "duration": 0.1163,
      "velocity": 88,
      "chip": "ym2612"
    },
    {
      "channel": 0,
      "note": 78,
      "start": 90.7978,
      "duration": 0.1149,
      "velocity": 107,
      "chip": "ym2612"
    },
    {
      "channel": 1,
      "note": 47,
      "start": 90.7981,
      "duration": 0.1148,
      "velocity": 88,
      "chip": "ym2612"
    },
    {
      "channel": 2,
      "note": 74,
      "start": 90.7983,
      "duration": 0.248,
      "velocity": 83,
      "chip": "ym2612"
    },
    {
      "channel": 0,
      "note": 33,
      "start": 90.931,
      "duration": 0.1151,
      "velocity": 127,
      "chip": "ym2612"
    },
    {
      "channel": 1,
      "note": 54,
      "start": 90.9313,
      "duration": 0.115,
      "velocity": 88,
      "chip": "ym2612"
    },
    {
      "channel": 0,
      "note": 78,
      "start": 91.063,
      "duration": 0.1165,
      "velocity": 127,
      "chip": "ym2612"
    },
    {
      "channel": 1,
      "note": 47,
      "start": 91.0633,
      "duration": 0.1163,
      "velocity": 88,
      "chip": "ym2612"
    },
    {
      "channel": 2,
      "note": 71,
      "start": 91.0635,
      "duration": 1.5829,
      "velocity": 83,
      "chip": "ym2612"
    },
    {
      "channel": 0,
      "note": 78,
      "start": 91.1978,
      "duration": 0.115,
      "velocity": 107,
      "chip": "ym2612"
    },
    {
      "channel": 1,
      "note": 56,
      "start": 91.198,
      "duration": 0.1149,
      "velocity": 88,
      "chip": "ym2612"
    },
    {
      "channel": 0,
      "note": 33,
      "start": 91.331,
      "duration": 0.1151,
      "velocity": 127,
      "chip": "ym2612"
    },
    {
      "channel": 1,
      "note": 47,
      "start": 91.3313,
      "duration": 0.115,
      "velocity": 88,
      "chip": "ym2612"
    },
    {
      "channel": 0,
      "note": 78,
      "start": 91.463,
      "duration": 0.1165,
      "velocity": 127,
      "chip": "ym2612"
    },
    {
      "channel": 1,
      "note": 47,
      "start": 91.4633,
      "duration": 0.1163,
      "velocity": 88,
      "chip": "ym2612"
    },
    {
      "channel": 0,
      "note": 78,
      "start": 91.5978,
      "duration": 0.115,
      "velocity": 107,
      "chip": "ym2612"
    },
    {
      "channel": 1,
      "note": 47,
      "start": 91.598,
      "duration": 0.1149,
      "velocity": 88,
      "chip": "ym2612"
    },
    {
      "channel": 0,
      "note": 33,
      "start": 91.7311,
      "duration": 0.1151,
      "velocity": 127,
      "chip": "ym2612"
    },
    {
      "channel": 1,
      "note": 44,
      "start": 91.7313,
      "duration": 0.115,
      "velocity": 88,
      "chip": "ym2612"
    },
    {
      "channel": 0,
      "note": 78,
      "start": 91.863,
      "duration": 0.1165,
      "velocity": 127,
      "chip": "ym2612"
    },
    {
      "channel": 1,
      "note": 56,
      "start": 91.8633,
      "duration": 0.1163,
      "velocity": 88,
      "chip": "ym2612"
    },
    {
      "channel": 0,
      "note": 78,
      "start": 91.9978,
      "duration": 0.115,
      "velocity": 127,
      "chip": "ym2612"
    },
    {
      "channel": 1,
      "note": 44,
      "start": 91.998,
      "duration": 0.1149,
      "velocity": 88,
      "chip": "ym2612"
    },
    {
      "channel": 0,
      "note": 42,
      "start": 92.131,
      "duration": 0.1151,
      "velocity": 127,
      "chip": "ym2612"
    },
    {
      "channel": 1,
      "note": 45,
      "start": 92.1313,
      "duration": 0.115,
      "velocity": 88,
      "chip": "ym2612"
    },
    {
      "channel": 0,
      "note": 78,
      "start": 92.263,
      "duration": 0.1165,
      "velocity": 127,
      "chip": "ym2612"
    },
    {
      "channel": 1,
      "note": 57,
      "start": 92.2633,
      "duration": 0.1163,
      "velocity": 88,
      "chip": "ym2612"
    },
    {
      "channel": 0,
      "note": 78,
      "start": 92.3978,
      "duration": 0.115,
      "velocity": 107,
      "chip": "ym2612"
    },
    {
      "channel": 1,
      "note": 45,
      "start": 92.398,
      "duration": 0.1149,
      "velocity": 88,
      "chip": "ym2612"
    },
    {
      "channel": 0,
      "note": 33,
      "start": 92.531,
      "duration": 0.1151,
      "velocity": 127,
      "chip": "ym2612"
    },
    {
      "channel": 1,
      "note": 46,
      "start": 92.5313,
      "duration": 0.115,
      "velocity": 88,
      "chip": "ym2612"
    },
    {
      "channel": 0,
      "note": 78,
      "start": 92.6645,
      "duration": 0.115,
      "velocity": 127,
      "chip": "ym2612"
    },
    {
      "channel": 1,
      "note": 58,
      "start": 92.6647,
      "duration": 0.1148,
      "velocity": 88,
      "chip": "ym2612"
    },
    {
      "channel": 2,
      "note": 74,
      "start": 92.665,
      "duration": 0.1147,
      "velocity": 83,
      "chip": "ym2612"
    },
    {
      "channel": 0,
      "note": 42,
      "start": 92.7978,
      "duration": 0.1151,
      "velocity": 107,
      "chip": "ym2612"
    },
    {
      "channel": 1,
      "note": 46,
      "start": 92.7981,
      "duration": 0.1149,
      "velocity": 88,
      "chip": "ym2612"
    },
    {
      "channel": 2,
      "note": 74,
      "start": 92.7983,
      "duration": 0.1148,
      "velocity": 83,
      "chip": "ym2612"
    },
    {
      "channel": 0,
      "note": 33,
      "start": 92.9311,
      "duration": 0.1151,
      "velocity": 127,
      "chip": "ym2612"
    },
    {
      "channel": 1,
      "note": 52,
      "start": 92.9313,
      "duration": 0.115,
      "velocity": 88,
      "chip": "ym2612"
    },
    {
      "channel": 2,
      "note": 83,
      "start": 92.9316,
      "duration": 0.048,
      "velocity": 83,
      "chip": "ym2612"
    },
    {
      "channel": 2,
      "note": 78,
      "start": 92.9962,
      "duration": 0.0502,
      "velocity": 83,
      "chip": "ym2612"
    },
    {
      "channel": 0,
      "note": 78,
      "start": 93.063,
      "duration": 0.1165,
      "velocity": 127,
      "chip": "ym2612"
    },
    {
      "channel": 1,
      "note": 52,
      "start": 93.0633,
      "duration": 0.1163,
      "velocity": 88,
      "chip": "ym2612"
    },
    {
      "channel": 2,
      "note": 77,
      "start": 93.0635,
      "duration": 0.1161,
      "velocity": 83,
      "chip": "ym2612"
    },
    {
      "channel": 0,
      "note": 78,
      "start": 93.1977,
      "duration": 0.1151,
      "velocity": 107,
      "chip": "ym2612"
    },
    {
      "channel": 1,
      "note": 52,
      "start": 93.198,
      "duration": 0.1149,
      "velocity": 88,
      "chip": "ym2612"
    },
    {
      "channel": 2,
      "note": 76,
      "start": 93.1982,
      "duration": 0.1148,
      "velocity": 83,
      "chip": "ym2612"
    },
    {
      "channel": 0,
      "note": 33,
      "start": 93.3311,
      "duration": 0.1151,
      "velocity": 127,
      "chip": "ym2612"
    },
    {
      "channel": 1,
      "note": 49,
      "start": 93.3313,
      "duration": 0.1149,
      "velocity": 88,
      "chip": "ym2612"
    },
    {
      "channel": 2,
      "note": 86,
      "start": 93.3316,
      "duration": 0.048,
      "velocity": 83,
      "chip": "ym2612"
    },
    {
      "channel": 2,
      "note": 83,
      "start": 93.3963,
      "duration": 0.05,
      "velocity": 83,
      "chip": "ym2612"
    },
    {
      "channel": 0,
      "note": 78,
      "start": 93.463,
      "duration": 0.1165,
      "velocity": 127,
      "chip": "ym2612"
    },
    {
      "channel": 1,
      "note": 49,
      "start": 93.4633,
      "duration": 0.1163,
      "velocity": 88,
      "chip": "ym2612"
    },
    {
      "channel": 2,
      "note": 81,
      "start": 93.4635,
      "duration": 0.1161,
      "velocity": 83,
      "chip": "ym2612"
    },
    {
      "channel": 0,
      "note": 78,
      "start": 93.5977,
      "duration": 0.1151,
      "velocity": 127,
      "chip": "ym2612"
    },
    {
      "channel": 1,
      "note": 49,
      "start": 93.598,
      "duration": 0.1149,
      "velocity": 88,
      "chip": "ym2612"
    },
    {
      "channel": 2,
      "note": 78,
      "start": 93.5982,
      "duration": 0.1148,
      "velocity": 83,
      "chip": "ym2612"
    },
    {
      "channel": 0,
      "note": 42,
      "start": 93.7311,
      "duration": 0.1151,
      "velocity": 127,
      "chip": "ym2612"
    },
    {
      "channel": 1,
      "note": 50,
      "start": 93.7313,
      "duration": 0.1149,
      "velocity": 88,
      "chip": "ym2612"
    },
    {
      "channel": 2,
      "note": 83,
      "start": 93.7316,
      "duration": 0.0479,
      "velocity": 83,
      "chip": "ym2612"
    },
    {
      "channel": 2,
      "note": 76,
      "start": 93.7963,
      "duration": 0.05,
      "velocity": 83,
      "chip": "ym2612"
    },
    {
      "channel": 0,
      "note": 78,
      "start": 93.863,
      "duration": 0.1165,
      "velocity": 127,
      "chip": "ym2612"
    },
    {
      "channel": 1,
      "note": 50,
      "start": 93.8633,
      "duration": 0.1163,
      "velocity": 88,
      "chip": "ym2612"
    },
    {
      "channel": 2,
      "note": 78,
      "start": 93.8635,
      "duration": 0.1161,
      "velocity": 83,
      "chip": "ym2612"
    },
    {
      "channel": 0,
      "note": 78,
      "start": 93.9978,
      "duration": 0.1149,
      "velocity": 107,
      "chip": "ym2612"
    },
    {
      "channel": 1,
      "note": 50,
      "start": 93.9981,
      "duration": 0.1148,
      "velocity": 88,
      "chip": "ym2612"
    },
    {
      "channel": 2,
      "note": 74,
      "start": 93.9983,
      "duration": 0.1147,
      "velocity": 83,
      "chip": "ym2612"
    },
    {
      "channel": 0,
      "note": 33,
      "start": 94.1311,
      "duration": 0.1151,
      "velocity": 127,
      "chip": "ym2612"
    },
    {
      "channel": 1,
      "note": 52,
      "start": 94.1313,
      "duration": 0.1149,
      "velocity": 88,
      "chip": "ym2612"
    },
    {
      "channel": 2,
      "note": 78,
      "start": 94.1316,
      "duration": 0.048,
      "velocity": 83,
      "chip": "ym2612"
    },
    {
      "channel": 2,
      "note": 76,
      "start": 94.1963,
      "duration": 0.05,
      "velocity": 83,
      "chip": "ym2612"
    },
    {
      "channel": 0,
      "note": 78,
      "start": 94.263,
      "duration": 0.1165,
      "velocity": 127,
      "chip": "ym2612"
    },
    {
      "channel": 1,
      "note": 52,
      "start": 94.2633,
      "duration": 0.1163,
      "velocity": 88,
      "chip": "ym2612"
    },
    {
      "channel": 2,
      "note": 74,
      "start": 94.2635,
      "duration": 0.1161,
      "velocity": 83,
      "chip": "ym2612"
    },
    {
      "channel": 0,
      "note": 78,
      "start": 94.3978,
      "duration": 0.115,
      "velocity": 107,
      "chip": "ym2612"
    },
    {
      "channel": 1,
      "note": 52,
      "start": 94.3981,
      "duration": 0.1149,
      "velocity": 88,
      "chip": "ym2612"
    },
    {
      "channel": 2,
      "note": 71,
      "start": 94.3983,
      "duration": 0.0479,
      "velocity": 83,
      "chip": "ym2612"
    },
    {
      "channel": 2,
      "note": 88,
      "start": 94.463,
      "duration": 0.05,
      "velocity": 83,
      "chip": "ym2612"
    },
    {
      "channel": 0,
      "note": 33,
      "start": 94.531,
      "duration": 0.1151,
      "velocity": 127,
      "chip": "ym2612"
    },
    {
      "channel": 1,
      "note": 54,
      "start": 94.5313,
      "duration": 0.115,
      "velocity": 88,
      "chip": "ym2612"
    },
    {
      "channel": 2,
      "note": 83,
      "start": 94.5315,
      "duration": 0.048,
      "velocity": 83,
      "chip": "ym2612"
    },
    {
      "channel": 2,
      "note": 86,
      "start": 94.5963,
      "duration": 0.0501,
      "velocity": 83,
      "chip": "ym2612"
    },
    {
      "channel": 0,
      "note": 78,
      "start": 94.6644,
      "duration": 0.1151,
      "velocity": 127,
      "chip": "ym2612"
    },
    {
      "channel": 1,
      "note": 54,
      "start": 94.6646,
      "duration": 0.115,
      "velocity": 88,
      "chip": "ym2612"
    },
    {
      "channel": 2,
      "note": 81,
      "start": 94.6649,
      "duration": 0.048,
      "velocity": 83,
      "chip": "ym2612"
    },
    {
      "channel": 2,
      "note": 83,
      "start": 94.7296,
      "duration": 0.05,
      "velocity": 83,
      "chip": "ym2612"
    },
    {
      "channel": 0,
      "note": 42,
      "start": 94.7977,
      "duration": 0.1151,
      "velocity": 107,
      "chip": "ym2612"
    },
    {
      "channel": 1,
      "note": 54,
      "start": 94.798,
      "duration": 0.115,
      "velocity": 88,
      "chip": "ym2612"
    },
    {
      "channel": 2,
      "note": 78,
      "start": 94.7982,
      "duration": 0.048,
      "velocity": 83,
      "chip": "ym2612"
    },
    {
      "channel": 2,
      "note": 81,
      "start": 94.863,
      "duration": 0.0501,
      "velocity": 83,
      "chip": "ym2612"
    },
    {
      "channel": 0,
      "note": 33,
      "start": 94.931,
      "duration": 0.1151,
      "velocity": 127,
      "chip": "ym2612"
    },
    {
      "channel": 1,
      "note": 51,
      "start": 94.9313,
      "duration": 0.115,
      "velocity": 88,
      "chip": "ym2612"
    },
    {
      "channel": 2,
      "note": 76,
      "start": 94.9315,
      "duration": 0.048,
      "velocity": 83,
      "chip": "ym2612"
    },
    {
      "channel": 2,
      "note": 78,
      "start": 94.9963,
      "duration": 0.05,
      "velocity": 83,
      "chip": "ym2612"
    },
    {
      "channel": 0,
      "note": 78,
      "start": 95.0629,
      "duration": 0.1167,
      "velocity": 127,
      "chip": "ym2612"
    },
    {
      "channel": 1,
      "note": 63,
      "start": 95.0632,
      "duration": 0.1165,
      "velocity": 88,
      "chip": "ym2612"
    },
    {
      "channel": 2,
      "note": 74,
      "start": 95.0634,
      "duration": 0.0496,
      "velocity": 83,
      "chip": "ym2612"
    },
    {
      "channel": 2,
      "note": 76,
      "start": 95.1296,
      "duration": 0.0502,
      "velocity": 83,
      "chip": "ym2612"
    },
    {
      "channel": 0,
      "note": 78,
      "start": 95.1978,
      "duration": 0.1151,
      "velocity": 127,
      "chip": "ym2612"
    },
    {
      "channel": 1,
      "note": 51,
      "start": 95.198,
      "duration": 0.115,
      "velocity": 88,
      "chip": "ym2612"
    },
    {
      "channel": 2,
      "note": 71,
      "start": 95.1983,
      "duration": 0.048,
      "velocity": 83,
      "chip": "ym2612"
    },
    {
      "channel": 2,
      "note": 74,
      "start": 95.2629,
      "duration": 0.0502,
      "velocity": 83,
      "chip": "ym2612"
    },
    {
      "channel": 0,
      "note": 42,
      "start": 95.3311,
      "duration": 0.1151,
      "velocity": 127,
      "chip": "ym2612"
    },
    {
      "channel": 1,
      "note": 52,
      "start": 95.3313,
      "duration": 0.115,
      "velocity": 88,
      "chip": "ym2612"
    },
    {
      "channel": 2,
      "note": 71,
      "start": 95.3316,
      "duration": 0.048,
      "velocity": 83,
      "chip": "ym2612"
    },
    {
      "channel": 2,
      "note": 74,
      "start": 95.3962,
      "duration": 0.0502,
      "velocity": 83,
      "chip": "ym2612"
    },
    {
      "channel": 0,
      "note": 78,
      "start": 95.463,
      "duration": 0.1165,
      "velocity": 127,
      "chip": "ym2612"
    },
    {
      "channel": 1,
      "note": 64,
      "start": 95.4632,
      "duration": 0.1163,
      "velocity": 88,
      "chip": "ym2612"
    },
    {
      "channel": 2,
      "note": 78,
      "start": 95.4635,
      "duration": 0.0494,
      "velocity": 83,
      "chip": "ym2612"
    },
    {
      "channel": 2,
      "note": 76,
      "start": 95.5296,
      "duration": 0.05,
      "velocity": 83,
      "chip": "ym2612"
    },
    {
      "channel": 0,
      "note": 78,
      "start": 95.5978,
      "duration": 0.1149,
      "velocity": 107,
      "chip": "ym2612"
    },
    {
      "channel": 1,
      "note": 52,
      "start": 95.5981,
      "duration": 0.1148,
      "velocity": 88,
      "chip": "ym2612"
    },
    {
      "channel": 2,
      "note": 81,
      "start": 95.5983,
      "duration": 0.048,
      "velocity": 83,
      "chip": "ym2612"
    },
    {
      "channel": 2,
      "note": 83,
      "start": 95.663,
      "duration": 0.05,
      "velocity": 83,
      "chip": "ym2612"
    },
    {
      "channel": 0,
      "note": 33,
      "start": 95.7311,
      "duration": 0.115,
      "velocity": 127,
      "chip": "ym2612"
    },
    {
      "channel": 1,
      "note": 54,
      "start": 95.7313,
      "duration": 0.1149,
      "velocity": 88,
      "chip": "ym2612"
    },
    {
      "channel": 2,
      "note": 86,
      "start": 95.7316,
      "duration": 0.0481,
      "velocity": 83,
      "chip": "ym2612"
    },
    {
      "channel": 2,
      "note": 88,
      "start": 95.7963,
      "duration": 0.05,
      "velocity": 83,
      "chip": "ym2612"
    },
    {
      "channel": 0,
      "note": 78,
      "start": 95.8644,
      "duration": 0.1151,
      "velocity": 127,
      "chip": "ym2612"
    },
    {
      "channel": 1,
      "note": 66,
      "start": 95.8647,
      "duration": 0.1149,
      "velocity": 88,
      "chip": "ym2612"
    },
    {
      "channel": 2,
      "note": 89,
      "start": 95.8649,
      "duration": 0.0479,
      "velocity": 83,
      "chip": "ym2612"
    },
    {
      "channel": 2,
      "note": 83,
      "start": 95.9296,
      "duration": 0.05,
      "velocity": 83,
      "chip": "ym2612"
    },
    {
      "channel": 1,
      "note": 54,
      "start": 95.9982,
      "duration": 0.1147,
      "velocity": 107,
      "chip": "ym2612"
    },
    {
      "channel": 2,
      "note": 76,
      "start": 95.9999,
      "duration": 0.1132,
      "velocity": 127,
      "chip": "ym2612"
    },
    {
      "channel": 1,
      "note": 33,
      "start": 96.1312,
      "duration": 0.1151,
      "velocity": 98,
      "chip": "ym2612"
    },
    {
      "channel": 2,
      "note": 78,
      "start": 96.1314,
      "duration": 0.1149,
      "velocity": 127,
      "chip": "ym2612"
    },
    {
      "channel": 1,
      "note": 57,
      "start": 96.2645,
      "duration": 0.1151,
      "velocity": 127,
      "chip": "ym2612"
    },
    {
      "channel": 2,
      "note": 66,
      "start": 96.2647,
      "duration": 0.1149,
      "velocity": 127,
      "chip": "ym2612"
    },
    {
      "channel": 1,
      "note": 64,
      "start": 96.3978,
      "duration": 0.1151,
      "velocity": 107,
      "chip": "ym2612"
    },
    {
      "channel": 2,
      "note": 78,
      "start": 96.3981,
      "duration": 0.1149,
      "velocity": 127,
      "chip": "ym2612"
    },
    {
      "channel": 1,
      "note": 33,
      "start": 96.5312,
      "duration": 0.1151,
      "velocity": 98,
      "chip": "ym2612"
    },
    {
      "channel": 2,
      "note": 66,
      "start": 96.5314,
      "duration": 0.1149,
      "velocity": 127,
      "chip": "ym2612"
    },
    {
      "channel": 1,
      "note": 57,
      "start": 96.6645,
      "duration": 0.1151,
      "velocity": 127,
      "chip": "ym2612"
    },
    {
      "channel": 2,
      "note": 78,
      "start": 96.6647,
      "duration": 0.1149,
      "velocity": 127,
      "chip": "ym2612"
    },
    {
      "channel": 1,
      "note": 64,
      "start": 96.7978,
      "duration": 0.115,
      "velocity": 107,
      "chip": "ym2612"
    },
    {
      "channel": 2,
      "note": 78,
      "start": 96.7995,
      "duration": 0.1134,
      "velocity": 127,
      "chip": "ym2612"
    },
    {
      "channel": 1,
      "note": 33,
      "start": 96.9311,
      "duration": 0.1151,
      "velocity": 98,
      "chip": "ym2612"
    },
    {
      "channel": 2,
      "note": 42,
      "start": 96.9328,
      "duration": 0.1135,
      "velocity": 127,
      "chip": "ym2612"
    },
    {
      "channel": 1,
      "note": 57,
      "start": 97.0645,
      "duration": 0.115,
      "velocity": 127,
      "chip": "ym2612"
    },
    {
      "channel": 2,
      "note": 78,
      "start": 97.0647,
      "duration": 0.1149,
      "velocity": 127,
      "chip": "ym2612"
    },
    {
      "channel": 1,
      "note": 64,
      "start": 97.1978,
      "duration": 0.1151,
      "velocity": 107,
      "chip": "ym2612"
    },
    {
      "channel": 2,
      "note": 66,
      "start": 97.198,
      "duration": 0.115,
      "velocity": 127,
      "chip": "ym2612"
    },
    {
      "channel": 1,
      "note": 33,
      "start": 97.3311,
      "duration": 0.1151,
      "velocity": 98,
      "chip": "ym2612"
    },
    {
      "channel": 2,
      "note": 78,
      "start": 97.3313,
      "duration": 0.115,
      "velocity": 127,
      "chip": "ym2612"
    },
    {
      "channel": 1,
      "note": 57,
      "start": 97.4644,
      "duration": 0.1153,
      "velocity": 127,
      "chip": "ym2612"
    },
    {
      "channel": 2,
      "note": 66,
      "start": 97.4647,
      "duration": 0.1151,
      "velocity": 127,
      "chip": "ym2612"
    },
    {
      "channel": 1,
      "note": 64,
      "start": 97.598,
      "duration": 0.1148,
      "velocity": 107,
      "chip": "ym2612"
    },
    {
      "channel": 2,
      "note": 78,
      "start": 97.5997,
      "duration": 0.1133,
      "velocity": 127,
      "chip": "ym2612"
    },
    {
      "channel": 1,
      "note": 33,
      "start": 97.7311,
      "duration": 0.1151,
      "velocity": 127,
      "chip": "ym2612"
    },
    {
      "channel": 2,
      "note": 78,
      "start": 97.7313,
      "duration": 0.1149,
      "velocity": 127,
      "chip": "ym2612"
    },
    {
      "channel": 1,
      "note": 64,
      "start": 97.8644,
      "duration": 0.1151,
      "velocity": 98,
      "chip": "ym2612"
    },
    {
      "channel": 2,
      "note": 66,
      "start": 97.8647,
      "duration": 0.115,
      "velocity": 127,
      "chip": "ym2612"
    },
    {
      "channel": 1,
      "note": 57,
      "start": 97.9978,
      "duration": 0.1151,
      "velocity": 107,
      "chip": "ym2612"
    },
    {
      "channel": 2,
      "note": 78,
      "start": 97.9981,
      "duration": 0.1149,
      "velocity": 127,
      "chip": "ym2612"
    },
    {
      "channel": 1,
      "note": 33,
      "start": 98.1312,
      "duration": 0.1151,
      "velocity": 98,
      "chip": "ym2612"
    },
    {
      "channel": 2,
      "note": 66,
      "start": 98.1314,
      "duration": 0.1149,
      "velocity": 127,
      "chip": "ym2612"
    },
    {
      "channel": 1,
      "note": 57,
      "start": 98.2645,
      "duration": 0.1151,
      "velocity": 127,
      "chip": "ym2612"
    },
    {
      "channel": 2,
      "note": 78,
      "start": 98.2647,
      "duration": 0.1149,
      "velocity": 127,
      "chip": "ym2612"
    },
    {
      "channel": 1,
      "note": 64,
      "start": 98.3978,
      "duration": 0.115,
      "velocity": 107,
      "chip": "ym2612"
    },
    {
      "channel": 2,
      "note": 78,
      "start": 98.3995,
      "duration": 0.1134,
      "velocity": 127,
      "chip": "ym2612"
    },
    {
      "channel": 1,
      "note": 33,
      "start": 98.5311,
      "duration": 0.1151,
      "velocity": 98,
      "chip": "ym2612"
    },
    {
      "channel": 2,
      "note": 42,
      "start": 98.5328,
      "duration": 0.1135,
      "velocity": 127,
      "chip": "ym2612"
    },
    {
      "channel": 1,
      "note": 57,
      "start": 98.6645,
      "duration": 0.1151,
      "velocity": 127,
      "chip": "ym2612"
    },
    {
      "channel": 2,
      "note": 78,
      "start": 98.6647,
      "duration": 0.1149,
      "velocity": 127,
      "chip": "ym2612"
    },
    {
      "channel": 1,
      "note": 64,
      "start": 98.7978,
      "duration": 0.1151,
      "velocity": 107,
      "chip": "ym2612"
    },
    {
      "channel": 2,
      "note": 66,
      "start": 98.7981,
      "duration": 0.1149,
      "velocity": 127,
      "chip": "ym2612"
    },
    {
      "channel": 1,
      "note": 33,
      "start": 98.9312,
      "duration": 0.1151,
      "velocity": 98,
      "chip": "ym2612"
    },
    {
      "channel": 2,
      "note": 78,
      "start": 98.9314,
      "duration": 0.1149,
      "velocity": 127,
      "chip": "ym2612"
    },
    {
      "channel": 1,
      "note": 57,
      "start": 99.0645,
      "duration": 0.1151,
      "velocity": 127,
      "chip": "ym2612"
    },
    {
      "channel": 2,
      "note": 66,
      "start": 99.0647,
      "duration": 0.1149,
      "velocity": 127,
      "chip": "ym2612"
    },
    {
      "channel": 1,
      "note": 64,
      "start": 99.198,
      "duration": 0.1149,
      "velocity": 107,
      "chip": "ym2612"
    },
    {
      "channel": 2,
      "note": 78,
      "start": 99.1996,
      "duration": 0.1134,
      "velocity": 127,
      "chip": "ym2612"
    },
    {
      "channel": 1,
      "note": 33,
      "start": 99.331,
      "duration": 0.1151,
      "velocity": 98,
      "chip": "ym2612"
    },
    {
      "channel": 2,
      "note": 78,
      "start": 99.3313,
      "duration": 0.115,
      "velocity": 127,
      "chip": "ym2612"
    },
    {
      "channel": 1,
      "note": 57,
      "start": 99.4644,
      "duration": 0.1151,
      "velocity": 127,
      "chip": "ym2612"
    },
    {
      "channel": 2,
      "note": 66,
      "start": 99.4647,
      "duration": 0.115,
      "velocity": 127,
      "chip": "ym2612"
    },
    {
      "channel": 1,
      "note": 64,
      "start": 99.5978,
      "duration": 0.1151,
      "velocity": 107,
      "chip": "ym2612"
    },
    {
      "channel": 2,
      "note": 78,
      "start": 99.598,
      "duration": 0.115,
      "velocity": 127,
      "chip": "ym2612"
    },
    {
      "channel": 1,
      "note": 33,
      "start": 99.7311,
      "duration": 0.1151,
      "velocity": 98,
      "chip": "ym2612"
    },
    {
      "channel": 2,
      "note": 66,
      "start": 99.7313,
      "duration": 0.115,
      "velocity": 127,
      "chip": "ym2612"
    },
    {
      "channel": 1,
      "note": 57,
      "start": 99.8644,
      "duration": 0.1151,
      "velocity": 127,
      "chip": "ym2612"
    },
    {
      "channel": 2,
      "note": 78,
      "start": 99.8647,
      "duration": 0.115,
      "velocity": 127,
      "chip": "ym2612"
    },
    {
      "channel": 1,
      "note": 64,
      "start": 99.9978,
      "duration": 0.1151,
      "velocity": 107,
      "chip": "ym2612"
    },
    {
      "channel": 2,
      "note": 78,
      "start": 99.9995,
      "duration": 0.1135,
      "velocity": 127,
      "chip": "ym2612"
    },
    {
      "channel": 1,
      "note": 33,
      "start": 100.1312,
      "duration": 0.1151,
      "velocity": 98,
      "chip": "ym2612"
    },
    {
      "channel": 2,
      "note": 42,
      "start": 100.1329,
      "duration": 0.1135,
      "velocity": 127,
      "chip": "ym2612"
    },
    {
      "channel": 1,
      "note": 57,
      "start": 100.2644,
      "duration": 0.1151,
      "velocity": 127,
      "chip": "ym2612"
    },
    {
      "channel": 2,
      "note": 78,
      "start": 100.2647,
      "duration": 0.115,
      "velocity": 127,
      "chip": "ym2612"
    },
    {
      "channel": 1,
      "note": 64,
      "start": 100.3978,
      "duration": 0.1151,
      "velocity": 107,
      "chip": "ym2612"
    },
    {
      "channel": 2,
      "note": 66,
      "start": 100.3981,
      "duration": 0.1149,
      "velocity": 127,
      "chip": "ym2612"
    },
    {
      "channel": 1,
      "note": 33,
      "start": 100.5312,
      "duration": 0.1151,
      "velocity": 98,
      "chip": "ym2612"
    },
    {
      "channel": 2,
      "note": 78,
      "start": 100.5314,
      "duration": 0.1149,
      "velocity": 127,
      "chip": "ym2612"
    },
    {
      "channel": 1,
      "note": 57,
      "start": 100.6645,
      "duration": 0.1151,
      "velocity": 127,
      "chip": "ym2612"
    },
    {
      "channel": 2,
      "note": 66,
      "start": 100.6647,
      "duration": 0.1149,
      "velocity": 127,
      "chip": "ym2612"
    },
    {
      "channel": 1,
      "note": 64,
      "start": 100.798,
      "duration": 0.1149,
      "velocity": 107,
      "chip": "ym2612"
    },
    {
      "channel": 2,
      "note": 78,
      "start": 100.7996,
      "duration": 0.1134,
      "velocity": 127,
      "chip": "ym2612"
    },
    {
      "channel": 1,
      "note": 33,
      "start": 100.9312,
      "duration": 0.1151,
      "velocity": 127,
      "chip": "ym2612"
    },
    {
      "channel": 2,
      "note": 78,
      "start": 100.9314,
      "duration": 0.1149,
      "velocity": 127,
      "chip": "ym2612"
    },
    {
      "channel": 1,
      "note": 64,
      "start": 101.0645,
      "duration": 0.1151,
      "velocity": 98,
      "chip": "ym2612"
    },
    {
      "channel": 2,
      "note": 66,
      "start": 101.0647,
      "duration": 0.1149,
      "velocity": 127,
      "chip": "ym2612"
    },
    {
      "channel": 1,
      "note": 57,
      "start": 101.1978,
      "duration": 0.1151,
      "velocity": 107,
      "chip": "ym2612"
    },
    {
      "channel": 2,
      "note": 78,
      "start": 101.1981,
      "duration": 0.1149,
      "velocity": 127,
      "chip": "ym2612"
    },
    {
      "channel": 1,
      "note": 33,
      "start": 101.3312,
      "duration": 0.1151,
      "velocity": 98,
      "chip": "ym2612"
    },
    {
      "channel": 2,
      "note": 66,
      "start": 101.3314,
      "duration": 0.1149,
      "velocity": 127,
      "chip": "ym2612"
    },
    {
      "channel": 1,
      "note": 57,
      "start": 101.4645,
      "duration": 0.115,
      "velocity": 127,
      "chip": "ym2612"
    },
    {
      "channel": 2,
      "note": 78,
      "start": 101.4647,
      "duration": 0.1149,
      "velocity": 127,
      "chip": "ym2612"
    },
    {
      "channel": 1,
      "note": 64,
      "start": 101.5978,
      "duration": 0.1151,
      "velocity": 107,
      "chip": "ym2612"
    },
    {
      "channel": 2,
      "note": 66,
      "start": 101.5995,
      "duration": 0.1135,
      "velocity": 127,
      "chip": "ym2612"
    },
    {
      "channel": 1,
      "note": 33,
      "start": 101.7311,
      "duration": 0.1151,
      "velocity": 98,
      "chip": "ym2612"
    },
    {
      "channel": 2,
      "note": 42,
      "start": 101.7328,
      "duration": 0.1135,
      "velocity": 127,
      "chip": "ym2612"
    },
    {
      "channel": 1,
      "note": 57,
      "start": 101.8645,
      "duration": 0.1151,
      "velocity": 127,
      "chip": "ym2612"
    },
    {
      "channel": 2,
      "note": 78,
      "start": 101.8647,
      "duration": 0.1149,
      "velocity": 127,
      "chip": "ym2612"
    },
    {
      "channel": 1,
      "note": 64,
      "start": 101.9978,
      "duration": 0.1151,
      "velocity": 107,
      "chip": "ym2612"
    },
    {
      "channel": 2,
      "note": 66,
      "start": 101.9981,
      "duration": 0.1149,
      "velocity": 127,
      "chip": "ym2612"
    },
    {
      "channel": 1,
      "note": 33,
      "start": 102.1312,
      "duration": 0.115,
      "velocity": 98,
      "chip": "ym2612"
    },
    {
      "channel": 2,
      "note": 78,
      "start": 102.1314,
      "duration": 0.1149,
      "velocity": 127,
      "chip": "ym2612"
    },
    {
      "channel": 1,
      "note": 57,
      "start": 102.2644,
      "duration": 0.1151,
      "velocity": 127,
      "chip": "ym2612"
    },
    {
      "channel": 2,
      "note": 78,
      "start": 102.2647,
      "duration": 0.115,
      "velocity": 127,
      "chip": "ym2612"
    },
    {
      "channel": 1,
      "note": 64,
      "start": 102.398,
      "duration": 0.1149,
      "velocity": 107,
      "chip": "ym2612"
    },
    {
      "channel": 2,
      "note": 66,
      "start": 102.3997,
      "duration": 0.1133,
      "velocity": 127,
      "chip": "ym2612"
    },
    {
      "channel": 1,
      "note": 33,
      "start": 102.5312,
      "duration": 0.1151,
      "velocity": 98,
      "chip": "ym2612"
    },
    {
      "channel": 2,
      "note": 78,
      "start": 102.5314,
      "duration": 0.1149,
      "velocity": 127,
      "chip": "ym2612"
    },
    {
      "channel": 1,
      "note": 57,
      "start": 102.6645,
      "duration": 0.1151,
      "velocity": 127,
      "chip": "ym2612"
    },
    {
      "channel": 2,
      "note": 66,
      "start": 102.6647,
      "duration": 0.1149,
      "velocity": 127,
      "chip": "ym2612"
    },
    {
      "channel": 1,
      "note": 64,
      "start": 102.7978,
      "duration": 0.1151,
      "velocity": 107,
      "chip": "ym2612"
    },
    {
      "channel": 2,
      "note": 78,
      "start": 102.7981,
      "duration": 0.1149,
      "velocity": 127,
      "chip": "ym2612"
    },
    {
      "channel": 1,
      "note": 33,
      "start": 102.9312,
      "duration": 0.1151,
      "velocity": 98,
      "chip": "ym2612"
    },
    {
      "channel": 2,
      "note": 66,
      "start": 102.9314,
      "duration": 0.1149,
      "velocity": 127,
      "chip": "ym2612"
    },
    {
      "channel": 1,
      "note": 57,
      "start": 103.0645,
      "duration": 0.115,
      "velocity": 127,
      "chip": "ym2612"
    },
    {
      "channel": 2,
      "note": 78,
      "start": 103.0647,
      "duration": 0.1149,
      "velocity": 127,
      "chip": "ym2612"
    },
    {
      "channel": 1,
      "note": 64,
      "start": 103.1978,
      "duration": 0.1151,
      "velocity": 107,
      "chip": "ym2612"
    },
    {
      "channel": 2,
      "note": 78,
      "start": 103.1995,
      "duration": 0.1135,
      "velocity": 127,
      "chip": "ym2612"
    },
    {
      "channel": 1,
      "note": 33,
      "start": 103.3312,
      "duration": 0.115,
      "velocity": 98,
      "chip": "ym2612"
    },
    {
      "channel": 2,
      "note": 42,
      "start": 103.3329,
      "duration": 0.1134,
      "velocity": 127,
      "chip": "ym2612"
    },
    {
      "channel": 1,
      "note": 57,
      "start": 103.4644,
      "duration": 0.1151,
      "velocity": 127,
      "chip": "ym2612"
    },
    {
      "channel": 2,
      "note": 78,
      "start": 103.4647,
      "duration": 0.115,
      "velocity": 127,
      "chip": "ym2612"
    },
    {
      "channel": 1,
      "note": 64,
      "start": 103.5977,
      "duration": 0.1151,
      "velocity": 107,
      "chip": "ym2612"
    },
    {
      "channel": 2,
      "note": 66,
      "start": 103.598,
      "duration": 0.115,
      "velocity": 127,
      "chip": "ym2612"
    },
    {
      "channel": 1,
      "note": 33,
      "start": 103.7311,
      "duration": 0.1151,
      "velocity": 98,
      "chip": "ym2612"
    },
    {
      "channel": 2,
      "note": 78,
      "start": 103.7313,
      "duration": 0.115,
      "velocity": 127,
      "chip": "ym2612"
    },
    {
      "channel": 1,
      "note": 57,
      "start": 103.8644,
      "duration": 0.1151,
      "velocity": 127,
      "chip": "ym2612"
    },
    {
      "channel": 2,
      "note": 66,
      "start": 103.8647,
      "duration": 0.115,
      "velocity": 127,
      "chip": "ym2612"
    },
    {
      "channel": 1,
      "note": 64,
      "start": 103.9979,
      "duration": 0.1149,
      "velocity": 107,
      "chip": "ym2612"
    },
    {
      "channel": 2,
      "note": 78,
      "start": 103.9995,
      "duration": 0.1134,
      "velocity": 127,
      "chip": "ym2612"
    },
    {
      "channel": 1,
      "note": 33,
      "start": 104.1311,
      "duration": 0.1152,
      "velocity": 127,
      "chip": "ym2612"
    },
    {
      "channel": 2,
      "note": 78,
      "start": 104.1313,
      "duration": 0.1151,
      "velocity": 127,
      "chip": "ym2612"
    },
    {
      "channel": 1,
      "note": 64,
      "start": 104.2644,
      "duration": 0.1151,
      "velocity": 98,
      "chip": "ym2612"
    },
    {
      "channel": 2,
      "note": 66,
      "start": 104.2647,
      "duration": 0.115,
      "velocity": 127,
      "chip": "ym2612"
    },
    {
      "channel": 1,
      "note": 57,
      "start": 104.3978,
      "duration": 0.115,
      "velocity": 107,
      "chip": "ym2612"
    },
    {
      "channel": 2,
      "note": 78,
      "start": 104.3981,
      "duration": 0.1149,
      "velocity": 127,
      "chip": "ym2612"
    },
    {
      "channel": 1,
      "note": 33,
      "start": 104.5311,
      "duration": 0.1151,
      "velocity": 98,
      "chip": "ym2612"
    },
    {
      "channel": 2,
      "note": 66,
      "start": 104.5313,
      "duration": 0.115,
      "velocity": 127,
      "chip": "ym2612"
    },
    {
      "channel": 1,
      "note": 57,
      "start": 104.6644,
      "duration": 0.1151,
      "velocity": 127,
      "chip": "ym2612"
    },
    {
      "channel": 2,
      "note": 78,
      "start": 104.6647,
      "duration": 0.115,
      "velocity": 127,
      "chip": "ym2612"
    },
    {
      "channel": 1,
      "note": 64,
      "start": 104.7978,
      "duration": 0.1151,
      "velocity": 107,
      "chip": "ym2612"
    },
    {
      "channel": 2,
      "note": 78,
      "start": 104.7995,
      "duration": 0.1135,
      "velocity": 127,
      "chip": "ym2612"
    },
    {
      "channel": 1,
      "note": 33,
      "start": 104.9312,
      "duration": 0.115,
      "velocity": 98,
      "chip": "ym2612"
    },
    {
      "channel": 2,
      "note": 42,
      "start": 104.9329,
      "duration": 0.1134,
      "velocity": 127,
      "chip": "ym2612"
    },
    {
      "channel": 1,
      "note": 57,
      "start": 105.0644,
      "duration": 0.1151,
      "velocity": 127,
      "chip": "ym2612"
    },
    {
      "channel": 2,
      "note": 78,
      "start": 105.0647,
      "duration": 0.115,
      "velocity": 127,
      "chip": "ym2612"
    },
    {
      "channel": 1,
      "note": 64,
      "start": 105.1978,
      "duration": 0.1151,
      "velocity": 107,
      "chip": "ym2612"
    },
    {
      "channel": 2,
      "note": 66,
      "start": 105.198,
      "duration": 0.115,
      "velocity": 127,
      "chip": "ym2612"
    },
    {
      "channel": 1,
      "note": 33,
      "start": 105.3311,
      "duration": 0.1152,
      "velocity": 98,
      "chip": "ym2612"
    },
    {
      "channel": 2,
      "note": 78,
      "start": 105.3313,
      "duration": 0.115,
      "velocity": 127,
      "chip": "ym2612"
    },
    {
      "channel": 1,
      "note": 57,
      "start": 105.4644,
      "duration": 0.1152,
      "velocity": 127,
      "chip": "ym2612"
    },
    {
      "channel": 2,
      "note": 66,
      "start": 105.4647,
      "duration": 0.115,
      "velocity": 127,
      "chip": "ym2612"
    },
    {
      "channel": 1,
      "note": 64,
      "start": 105.598,
      "duration": 0.1149,
      "velocity": 107,
      "chip": "ym2612"
    },
    {
      "channel": 2,
      "note": 78,
      "start": 105.5996,
      "duration": 0.1134,
      "velocity": 127,
      "chip": "ym2612"
    },
    {
      "channel": 1,
      "note": 33,
      "start": 105.7312,
      "duration": 0.115,
      "velocity": 98,
      "chip": "ym2612"
    },
    {
      "channel": 2,
      "note": 78,
      "start": 105.7314,
      "duration": 0.1149,
      "velocity": 127,
      "chip": "ym2612"
    },
    {
      "channel": 1,
      "note": 57,
      "start": 105.8644,
      "duration": 0.1151,
      "velocity": 127,
      "chip": "ym2612"
    },
    {
      "channel": 2,
      "note": 66,
      "start": 105.8647,
      "duration": 0.115,
      "velocity": 127,
      "chip": "ym2612"
    },
    {
      "channel": 1,
      "note": 64,
      "start": 105.9978,
      "duration": 0.1151,
      "velocity": 107,
      "chip": "ym2612"
    },
    {
      "channel": 2,
      "note": 78,
      "start": 105.998,
      "duration": 0.115,
      "velocity": 127,
      "chip": "ym2612"
    },
    {
      "channel": 1,
      "note": 33,
      "start": 106.1311,
      "duration": 0.1151,
      "velocity": 98,
      "chip": "ym2612"
    },
    {
      "channel": 2,
      "note": 66,
      "start": 106.1313,
      "duration": 0.115,
      "velocity": 127,
      "chip": "ym2612"
    },
    {
      "channel": 1,
      "note": 57,
      "start": 106.2644,
      "duration": 0.1151,
      "velocity": 127,
      "chip": "ym2612"
    },
    {
      "channel": 2,
      "note": 78,
      "start": 106.2647,
      "duration": 0.115,
      "velocity": 127,
      "chip": "ym2612"
    },
    {
      "channel": 1,
      "note": 64,
      "start": 106.3978,
      "duration": 0.1151,
      "velocity": 107,
      "chip": "ym2612"
    },
    {
      "channel": 2,
      "note": 78,
      "start": 106.3995,
      "duration": 0.1135,
      "velocity": 127,
      "chip": "ym2612"
    },
    {
      "channel": 1,
      "note": 33,
      "start": 106.5312,
      "duration": 0.115,
      "velocity": 98,
      "chip": "ym2612"
    },
    {
      "channel": 2,
      "note": 42,
      "start": 106.5329,
      "duration": 0.1134,
      "velocity": 127,
      "chip": "ym2612"
    },
    {
      "channel": 1,
      "note": 57,
      "start": 106.6644,
      "duration": 0.1151,
      "velocity": 127,
      "chip": "ym2612"
    },
    {
      "channel": 2,
      "note": 78,
      "start": 106.6647,
      "duration": 0.115,
      "velocity": 127,
      "chip": "ym2612"
    },
    {
      "channel": 1,
      "note": 64,
      "start": 106.7978,
      "duration": 0.1152,
      "velocity": 107,
      "chip": "ym2612"
    },
    {
      "channel": 2,
      "note": 66,
      "start": 106.798,
      "duration": 0.1151,
      "velocity": 127,
      "chip": "ym2612"
    },
    {
      "channel": 1,
      "note": 33,
      "start": 106.9311,
      "duration": 0.1151,
      "velocity": 98,
      "chip": "ym2612"
    },
    {
      "channel": 2,
      "note": 78,
      "start": 106.9313,
      "duration": 0.115,
      "velocity": 127,
      "chip": "ym2612"
    },
    {
      "channel": 1,
      "note": 57,
      "start": 107.0645,
      "duration": 0.1151,
      "velocity": 127,
      "chip": "ym2612"
    },
    {
      "channel": 2,
      "note": 66,
      "start": 107.0647,
      "duration": 0.1149,
      "velocity": 127,
      "chip": "ym2612"
    },
    {
      "channel": 1,
      "note": 64,
      "start": 107.198,
      "duration": 0.1149,
      "velocity": 107,
      "chip": "ym2612"
    },
    {
      "channel": 2,
      "note": 78,
      "start": 107.1996,
      "duration": 0.1134,
      "velocity": 127,
      "chip": "ym2612"
    },
    {
      "channel": 1,
      "note": 33,
      "start": 107.3312,
      "duration": 0.115,
      "velocity": 127,
      "chip": "ym2612"
    },
    {
      "channel": 2,
      "note": 78,
      "start": 107.3314,
      "duration": 0.1149,
      "velocity": 127,
      "chip": "ym2612"
    },
    {
      "channel": 1,
      "note": 64,
      "start": 107.4644,
      "duration": 0.1151,
      "velocity": 98,
      "chip": "ym2612"
    },
    {
      "channel": 2,
      "note": 66,
      "start": 107.4661,
      "duration": 0.1135,
      "velocity": 127,
      "chip": "ym2612"
    },
    {
      "channel": 1,
      "note": 57,
      "start": 107.5978,
      "duration": 0.1151,
      "velocity": 107,
      "chip": "ym2612"
    },
    {
      "channel": 2,
      "note": 42,
      "start": 107.5995,
      "duration": 0.1135,
      "velocity": 127,
      "chip": "ym2612"
    },
    {
      "channel": 1,
      "note": 33,
      "start": 107.7311,
      "duration": 0.1151,
      "velocity": 98,
      "chip": "ym2612"
    },
    {
      "channel": 2,
      "note": 66,
      "start": 107.7313,
      "duration": 0.115,
      "velocity": 127,
      "chip": "ym2612"
    },
    {
      "channel": 1,
      "note": 57,
      "start": 107.8645,
      "duration": 0.1151,
      "velocity": 127,
      "chip": "ym2612"
    },
    {
      "channel": 2,
      "note": 78,
      "start": 107.8647,
      "duration": 0.1149,
      "velocity": 127,
      "chip": "ym2612"
    },
    {
      "channel": 1,
      "note": 64,
      "start": 107.9978,
      "duration": 0.115,
      "velocity": 107,
      "chip": "ym2612"
    },
    {
      "channel": 2,
      "note": 66,
      "start": 107.9995,
      "duration": 0.1134,
      "velocity": 127,
      "chip": "ym2612"
    },
    {
      "channel": 1,
      "note": 33,
      "start": 108.1311,
      "duration": 0.1151,
      "velocity": 98,
      "chip": "ym2612"
    },
    {
      "channel": 2,
      "note": 42,
      "start": 108.1328,
      "duration": 0.1135,
      "velocity": 127,
      "chip": "ym2612"
    },
    {
      "channel": 1,
      "note": 57,
      "start": 108.2645,
      "duration": 0.115,
      "velocity": 127,
      "chip": "ym2612"
    },
    {
      "channel": 2,
      "note": 78,
      "start": 108.2647,
      "duration": 0.1149,
      "velocity": 127,
      "chip": "ym2612"
    },
    {
      "channel": 1,
      "note": 64,
      "start": 108.3978,
      "duration": 0.1151,
      "velocity": 107,
      "chip": "ym2612"
    },
    {
      "channel": 2,
      "note": 66,
      "start": 108.398,
      "duration": 0.115,
      "velocity": 127,
      "chip": "ym2612"
    },
    {
      "channel": 1,
      "note": 33,
      "start": 108.5311,
      "duration": 0.1151,
      "velocity": 98,
      "chip": "ym2612"
    },
    {
      "channel": 2,
      "note": 78,
      "start": 108.5313,
      "duration": 0.115,
      "velocity": 127,
      "chip": "ym2612"
    },
    {
      "channel": 1,
      "note": 57,
      "start": 108.6644,
      "duration": 0.1152,
      "velocity": 127,
      "chip": "ym2612"
    },
    {
      "channel": 2,
      "note": 78,
      "start": 108.6661,
      "duration": 0.1135,
      "velocity": 127,
      "chip": "ym2612"
    },
    {
      "channel": 0,
      "note": 42,
      "start": 108.798,
      "duration": 0.2481,
      "velocity": 88,
      "chip": "ym2612"
    },
    {
      "channel": 1,
      "note": 64,
      "start": 108.7997,
      "duration": 0.1132,
      "velocity": 107,
      "chip": "ym2612"
    },
    {
      "channel": 2,
      "note": 42,
      "start": 108.8014,
      "duration": 0.1116,
      "velocity": 127,
      "chip": "ym2612"
    },
    {
      "channel": 1,
      "note": 33,
      "start": 108.9311,
      "duration": 0.1151,
      "velocity": 98,
      "chip": "ym2612"
    },
    {
      "channel": 2,
      "note": 78,
      "start": 108.9313,
      "duration": 0.115,
      "velocity": 127,
      "chip": "ym2612"
    },
    {
      "channel": 0,
      "note": 54,
      "start": 109.063,
      "duration": 0.2498,
      "velocity": 88,
      "chip": "ym2612"
    },
    {
      "channel": 1,
      "note": 57,
      "start": 109.0647,
      "duration": 0.1148,
      "velocity": 127,
      "chip": "ym2612"
    },
    {
      "channel": 2,
      "note": 66,
      "start": 109.0649,
      "duration": 0.1147,
      "velocity": 127,
      "chip": "ym2612"
    },
    {
      "channel": 1,
      "note": 64,
      "start": 109.1978,
      "duration": 0.1151,
      "velocity": 107,
      "chip": "ym2612"
    },
    {
      "channel": 2,
      "note": 78,
      "start": 109.198,
      "duration": 0.115,
      "velocity": 127,
      "chip": "ym2612"
    },
    {
      "channel": 0,
      "note": 54,
      "start": 109.3297,
      "duration": 0.2499,
      "velocity": 88,
      "chip": "ym2612"
    },
    {
      "channel": 1,
      "note": 33,
      "start": 109.3313,
      "duration": 0.1148,
      "velocity": 98,
      "chip": "ym2612"
    },
    {
      "channel": 2,
      "note": 66,
      "start": 109.3316,
      "duration": 0.1147,
      "velocity": 127,
      "chip": "ym2612"
    },
    {
      "channel": 1,
      "note": 57,
      "start": 109.4644,
      "duration": 0.1153,
      "velocity": 127,
      "chip": "ym2612"
    },
    {
      "channel": 2,
      "note": 78,
      "start": 109.4647,
      "duration": 0.1151,
      "velocity": 127,
      "chip": "ym2612"
    },
    {
      "channel": 0,
      "note": 54,
      "start": 109.5964,
      "duration": 0.3831,
      "velocity": 88,
      "chip": "ym2612"
    },
    {
      "channel": 1,
      "note": 64,
      "start": 109.5981,
      "duration": 0.1147,
      "velocity": 107,
      "chip": "ym2612"
    },
    {
      "channel": 2,
      "note": 78,
      "start": 109.5999,
      "duration": 0.1131,
      "velocity": 127,
      "chip": "ym2612"
    },
    {
      "channel": 1,
      "note": 33,
      "start": 109.7311,
      "duration": 0.1151,
      "velocity": 98,
      "chip": "ym2612"
    },
    {
      "channel": 2,
      "note": 42,
      "start": 109.7328,
      "duration": 0.1135,
      "velocity": 127,
      "chip": "ym2612"
    },
    {
      "channel": 1,
      "note": 57,
      "start": 109.8645,
      "duration": 0.1151,
      "velocity": 127,
      "chip": "ym2612"
    },
    {
      "channel": 2,
      "note": 78,
      "start": 109.8647,
      "duration": 0.115,
      "velocity": 127,
      "chip": "ym2612"
    },
    {
      "channel": 0,
      "note": 57,
      "start": 109.9964,
      "duration": 0.2498,
      "velocity": 88,
      "chip": "ym2612"
    },
    {
      "channel": 1,
      "note": 64,
      "start": 109.9981,
      "duration": 0.1148,
      "velocity": 107,
      "chip": "ym2612"
    },
    {
      "channel": 2,
      "note": 66,
      "start": 109.9983,
      "duration": 0.1147,
      "velocity": 127,
      "chip": "ym2612"
    },
    {
      "channel": 1,
      "note": 33,
      "start": 110.1312,
      "duration": 0.1151,
      "velocity": 98,
      "chip": "ym2612"
    },
    {
      "channel": 2,
      "note": 78,
      "start": 110.1314,
      "duration": 0.1149,
      "velocity": 127,
      "chip": "ym2612"
    },
    {
      "channel": 0,
      "note": 59,
      "start": 110.263,
      "duration": 0.1166,
      "velocity": 88,
      "chip": "ym2612"
    },
    {
      "channel": 1,
      "note": 57,
      "start": 110.2647,
      "duration": 0.115,
      "velocity": 127,
      "chip": "ym2612"
    },
    {
      "channel": 2,
      "note": 66,
      "start": 110.2649,
      "duration": 0.1148,
      "velocity": 127,
      "chip": "ym2612"
    },
    {
      "channel": 0,
      "note": 54,
      "start": 110.3979,
      "duration": 0.0483,
      "velocity": 127,
      "chip": "ym2612"
    },
    {
      "channel": 1,
      "note": 64,
      "start": 110.3996,
      "duration": 0.1134,
      "velocity": 107,
      "chip": "ym2612"
    },
    {
      "channel": 2,
      "note": 78,
      "start": 110.4012,
      "duration": 0.1118,
      "velocity": 127,
      "chip": "ym2612"
    },
    {
      "channel": 0,
      "note": 40,
      "start": 110.463,
      "duration": 0.0499,
      "velocity": 127,
      "chip": "ym2612"
    },
    {
      "channel": 0,
      "note": 40,
      "start": 110.5298,
      "duration": 0.1164,
      "velocity": 127,
      "chip": "ym2612"
    },
    {
      "channel": 1,
      "note": 33,
      "start": 110.5314,
      "duration": 0.1148,
      "velocity": 127,
      "chip": "ym2612"
    },
    {
      "channel": 2,
      "note": 78,
      "start": 110.5317,
      "duration": 0.1147,
      "velocity": 127,
      "chip": "ym2612"
    },
    {
      "channel": 0,
      "note": 40,
      "start": 110.663,
      "duration": 0.1166,
      "velocity": 127,
      "chip": "ym2612"
    },
    {
      "channel": 1,
      "note": 64,
      "start": 110.6647,
      "duration": 0.1149,
      "velocity": 98,
      "chip": "ym2612"
    },
    {
      "channel": 2,
      "note": 66,
      "start": 110.665,
      "duration": 0.1148,
      "velocity": 127,
      "chip": "ym2612"
    },
    {
      "channel": 0,
      "note": 40,
      "start": 110.7963,
      "duration": 0.1166,
      "velocity": 127,
      "chip": "ym2612"
    },
    {
      "channel": 1,
      "note": 57,
      "start": 110.798,
      "duration": 0.115,
      "velocity": 107,
      "chip": "ym2612"
    },
    {
      "channel": 2,
      "note": 78,
      "start": 110.7983,
      "duration": 0.1149,
      "velocity": 127,
      "chip": "ym2612"
    },
    {
      "channel": 0,
      "note": 40,
      "start": 110.9296,
      "duration": 0.1165,
      "velocity": 127,
      "chip": "ym2612"
    },
    {
      "channel": 1,
      "note": 33,
      "start": 110.9313,
      "duration": 0.1149,
      "velocity": 98,
      "chip": "ym2612"
    },
    {
      "channel": 2,
      "note": 66,
      "start": 110.9316,
      "duration": 0.1147,
      "velocity": 127,
      "chip": "ym2612"
    },
    {
      "channel": 0,
      "note": 40,
      "start": 111.063,
      "duration": 0.2498,
      "velocity": 127,
      "chip": "ym2612"
    },
    {
      "channel": 1,
      "note": 57,
      "start": 111.0647,
      "duration": 0.1148,
      "velocity": 127,
      "chip": "ym2612"
    },
    {
      "channel": 2,
      "note": 78,
      "start": 111.0649,
      "duration": 0.1147,
      "velocity": 127,
      "chip": "ym2612"
    },
    {
      "channel": 1,
      "note": 64,
      "start": 111.1978,
      "duration": 0.1152,
      "velocity": 107,
      "chip": "ym2612"
    },
    {
      "channel": 2,
      "note": 78,
      "start": 111.1995,
      "duration": 0.1135,
      "velocity": 127,
      "chip": "ym2612"
    },
    {
      "channel": 0,
      "note": 40,
      "start": 111.3297,
      "duration": 0.2498,
      "velocity": 127,
      "chip": "ym2612"
    },
    {
      "channel": 1,
      "note": 33,
      "start": 111.3314,
      "duration": 0.1148,
      "velocity": 98,
      "chip": "ym2612"
    },
    {
      "channel": 2,
      "note": 42,
      "start": 111.3331,
      "duration": 0.1132,
      "velocity": 127,
      "chip": "ym2612"
    },
    {
      "channel": 1,
      "note": 57,
      "start": 111.4645,
      "duration": 0.1151,
      "velocity": 127,
      "chip": "ym2612"
    },
    {
      "channel": 2,
      "note": 78,
      "start": 111.4647,
      "duration": 0.1149,
      "velocity": 127,
      "chip": "ym2612"
    },
    {
      "channel": 0,
      "note": 45,
      "start": 111.5963,
      "duration": 0.1164,
      "velocity": 127,
      "chip": "ym2612"
    },
    {
      "channel": 1,
      "note": 64,
      "start": 111.5981,
      "duration": 0.1148,
      "velocity": 107,
      "chip": "ym2612"
    },
    {
      "channel": 2,
      "note": 66,
      "start": 111.5983,
      "duration": 0.1147,
      "velocity": 127,
      "chip": "ym2612"
    },
    {
      "channel": 0,
      "note": 45,
      "start": 111.7297,
      "duration": 0.1164,
      "velocity": 127,
      "chip": "ym2612"
    },
    {
      "channel": 1,
      "note": 33,
      "start": 111.7313,
      "duration": 0.1149,
      "velocity": 98,
      "chip": "ym2612"
    },
    {
      "channel": 2,
      "note": 78,
      "start": 111.7316,
      "duration": 0.1147,
      "velocity": 127,
      "chip": "ym2612"
    },
    {
      "channel": 0,
      "note": 45,
      "start": 111.863,
      "duration": 0.1166,
      "velocity": 127,
      "chip": "ym2612"
    },
    {
      "channel": 1,
      "note": 57,
      "start": 111.8647,
      "duration": 0.115,
      "velocity": 127,
      "chip": "ym2612"
    },
    {
      "channel": 2,
      "note": 66,
      "start": 111.8649,
      "duration": 0.1149,
      "velocity": 127,
      "chip": "ym2612"
    },
    {
      "channel": 0,
      "note": 40,
      "start": 111.9979,
      "duration": 0.2483,
      "velocity": 88,
      "chip": "ym2612"
    },
    {
      "channel": 1,
      "note": 64,
      "start": 111.9996,
      "duration": 0.1132,
      "velocity": 107,
      "chip": "ym2612"
    },
    {
      "channel": 2,
      "note": 78,
      "start": 112.0013,
      "duration": 0.1116,
      "velocity": 127,
      "chip": "ym2612"
    },
    {
      "channel": 1,
      "note": 33,
      "start": 112.1311,
      "duration": 0.1152,
      "velocity": 98,
      "chip": "ym2612"
    },
    {
      "channel": 2,
      "note": 78,
      "start": 112.1313,
      "duration": 0.1151,
      "velocity": 127,
      "chip": "ym2612"
    },
    {
      "channel": 0,
      "note": 50,
      "start": 112.2629,
      "duration": 0.2499,
      "velocity": 88,
      "chip": "ym2612"
    },
    {
      "channel": 1,
      "note": 57,
      "start": 112.2646,
      "duration": 0.1149,
      "velocity": 127,
      "chip": "ym2612"
    },
    {
      "channel": 2,
      "note": 66,
      "start": 112.2649,
      "duration": 0.1148,
      "velocity": 127,
      "chip": "ym2612"
    },
    {
      "channel": 1,
      "note": 64,
      "start": 112.3978,
      "duration": 0.1151,
      "velocity": 107,
      "chip": "ym2612"
    },
    {
      "channel": 2,
      "note": 78,
      "start": 112.3981,
      "duration": 0.115,
      "velocity": 127,
      "chip": "ym2612"
    },
    {
      "channel": 0,
      "note": 50,
      "start": 112.5296,
      "duration": 0.2499,
      "velocity": 88,
      "chip": "ym2612"
    },
    {
      "channel": 1,
      "note": 33,
      "start": 112.5313,
      "duration": 0.1149,
      "velocity": 98,
      "chip": "ym2612"
    },
    {
      "channel": 2,
      "note": 66,
      "start": 112.5315,
      "duration": 0.1148,
      "velocity": 127,
      "chip": "ym2612"
    },
    {
      "channel": 1,
      "note": 57,
      "start": 112.6645,
      "duration": 0.1151,
      "velocity": 127,
      "chip": "ym2612"
    },
    {
      "channel": 2,
      "note": 78,
      "start": 112.6647,
      "duration": 0.1149,
      "velocity": 127,
      "chip": "ym2612"
    },
    {
      "channel": 0,
      "note": 50,
      "start": 112.7963,
      "duration": 0.3832,
      "velocity": 88,
      "chip": "ym2612"
    },
    {
      "channel": 1,
      "note": 64,
      "start": 112.7981,
      "duration": 0.1148,
      "velocity": 107,
      "chip": "ym2612"
    },
    {
      "channel": 2,
      "note": 78,
      "start": 112.7998,
      "duration": 0.1132,
      "velocity": 127,
      "chip": "ym2612"
    },
    {
      "channel": 1,
      "note": 33,
      "start": 112.9312,
      "duration": 0.1151,
      "velocity": 98,
      "chip": "ym2612"
    },
    {
      "channel": 2,
      "note": 42,
      "start": 112.9329,
      "duration": 0.1135,
      "velocity": 127,
      "chip": "ym2612"
    },
    {
      "channel": 1,
      "note": 57,
      "start": 113.0644,
      "duration": 0.1152,
      "velocity": 127,
      "chip": "ym2612"
    },
    {
      "channel": 2,
      "note": 78,
      "start": 113.0647,
      "duration": 0.1151,
      "velocity": 127,
      "chip": "ym2612"
    },
    {
      "channel": 0,
      "note": 50,
      "start": 113.1964,
      "duration": 0.2498,
      "velocity": 88,
      "chip": "ym2612"
    },
    {
      "channel": 1,
      "note": 64,
      "start": 113.1981,
      "duration": 0.1148,
      "velocity": 107,
      "chip": "ym2612"
    },
    {
      "channel": 2,
      "note": 66,
      "start": 113.1983,
      "duration": 0.1147,
      "velocity": 127,
      "chip": "ym2612"
    },
    {
      "channel": 1,
      "note": 33,
      "start": 113.3312,
      "duration": 0.1151,
      "velocity": 98,
      "chip": "ym2612"
    },
    {
      "channel": 2,
      "note": 78,
      "start": 113.3314,
      "duration": 0.1149,
      "velocity": 127,
      "chip": "ym2612"
    },
    {
      "channel": 0,
      "note": 48,
      "start": 113.463,
      "duration": 0.1165,
      "velocity": 88,
      "chip": "ym2612"
    },
    {
      "channel": 1,
      "note": 57,
      "start": 113.4647,
      "duration": 0.1149,
      "velocity": 127,
      "chip": "ym2612"
    },
    {
      "channel": 2,
      "note": 66,
      "start": 113.465,
      "duration": 0.1147,
      "velocity": 127,
      "chip": "ym2612"
    },
    {
      "channel": 0,
      "note": 50,
      "start": 113.598,
      "duration": 0.0482,
      "velocity": 127,
      "chip": "ym2612"
    },
    {
      "channel": 1,
      "note": 64,
      "start": 113.5997,
      "duration": 0.1133,
      "velocity": 107,
      "chip": "ym2612"
    },
    {
      "channel": 2,
      "note": 78,
      "start": 113.6014,
      "duration": 0.1116,
      "velocity": 127,
      "chip": "ym2612"
    },
    {
      "channel": 0,
      "note": 40,
      "start": 113.6629,
      "duration": 0.0499,
      "velocity": 127,
      "chip": "ym2612"
    },
    {
      "channel": 0,
      "note": 40,
      "start": 113.7297,
      "duration": 0.1164,
      "velocity": 127,
      "chip": "ym2612"
    },
    {
      "channel": 1,
      "note": 33,
      "start": 113.7314,
      "duration": 0.1148,
      "velocity": 127,
      "chip": "ym2612"
    },
    {
      "channel": 2,
      "note": 78,
      "start": 113.7317,
      "duration": 0.1147,
      "velocity": 127,
      "chip": "ym2612"
    },
    {
      "channel": 0,
      "note": 40,
      "start": 113.863,
      "duration": 0.1164,
      "velocity": 127,
      "chip": "ym2612"
    },
    {
      "channel": 1,
      "note": 64,
      "start": 113.8647,
      "duration": 0.1149,
      "velocity": 98,
      "chip": "ym2612"
    },
    {
      "channel": 2,
      "note": 66,
      "start": 113.8649,
      "duration": 0.1147,
      "velocity": 127,
      "chip": "ym2612"
    },
    {
      "channel": 0,
      "note": 40,
      "start": 113.9963,
      "duration": 0.1166,
      "velocity": 127,
      "chip": "ym2612"
    },
    {
      "channel": 1,
      "note": 57,
      "start": 113.998,
      "duration": 0.115,
      "velocity": 107,
      "chip": "ym2612"
    },
    {
      "channel": 2,
      "note": 78,
      "start": 113.9983,
      "duration": 0.1149,
      "velocity": 127,
      "chip": "ym2612"
    },
    {
      "channel": 0,
      "note": 40,
      "start": 114.1296,
      "duration": 0.0499,
      "velocity": 127,
      "chip": "ym2612"
    },
    {
      "channel": 1,
      "note": 33,
      "start": 114.1313,
      "duration": 0.115,
      "velocity": 98,
      "chip": "ym2612"
    },
    {
      "channel": 2,
      "note": 66,
      "start": 114.1316,
      "duration": 0.1149,
      "velocity": 127,
      "chip": "ym2612"
    },
    {
      "channel": 0,
      "note": 40,
      "start": 114.1962,
      "duration": 0.0501,
      "velocity": 127,
      "chip": "ym2612"
    },
    {
      "channel": 0,
      "note": 40,
      "start": 114.263,
      "duration": 0.1165,
      "velocity": 127,
      "chip": "ym2612"
    },
    {
      "channel": 1,
      "note": 57,
      "start": 114.2647,
      "duration": 0.115,
      "velocity": 127,
      "chip": "ym2612"
    },
    {
      "channel": 2,
      "note": 78,
      "start": 114.2649,
      "duration": 0.1148,
      "velocity": 127,
      "chip": "ym2612"
    },
    {
      "channel": 0,
      "note": 40,
      "start": 114.3964,
      "duration": 0.1165,
      "velocity": 127,
      "chip": "ym2612"
    },
    {
      "channel": 1,
      "note": 64,
      "start": 114.3981,
      "duration": 0.1149,
      "velocity": 107,
      "chip": "ym2612"
    },
    {
      "channel": 2,
      "note": 66,
      "start": 114.3998,
      "duration": 0.1133,
      "velocity": 127,
      "chip": "ym2612"
    },
    {
      "channel": 0,
      "note": 45,
      "start": 114.5296,
      "duration": 0.1165,
      "velocity": 127,
      "chip": "ym2612"
    },
    {
      "channel": 1,
      "note": 33,
      "start": 114.5313,
      "duration": 0.1149,
      "velocity": 98,
      "chip": "ym2612"
    },
    {
      "channel": 2,
      "note": 42,
      "start": 114.533,
      "duration": 0.1134,
      "velocity": 127,
      "chip": "ym2612"
    },
    {
      "channel": 0,
      "note": 45,
      "start": 114.663,
      "duration": 0.1164,
      "velocity": 127,
      "chip": "ym2612"
    },
    {
      "channel": 1,
      "note": 57,
      "start": 114.6647,
      "duration": 0.1149,
      "velocity": 127,
      "chip": "ym2612"
    },
    {
      "channel": 2,
      "note": 78,
      "start": 114.6649,
      "duration": 0.1147,
      "velocity": 127,
      "chip": "ym2612"
    },
    {
      "channel": 0,
      "note": 45,
      "start": 114.7963,
      "duration": 0.1166,
      "velocity": 127,
      "chip": "ym2612"
    },
    {
      "channel": 1,
      "note": 64,
      "start": 114.798,
      "duration": 0.115,
      "velocity": 107,
      "chip": "ym2612"
    },
    {
      "channel": 2,
      "note": 66,
      "start": 114.7983,
      "duration": 0.1149,
      "velocity": 127,
      "chip": "ym2612"
    },
    {
      "channel": 0,
      "note": 45,
      "start": 114.9297,
      "duration": 0.1166,
      "velocity": 127,
      "chip": "ym2612"
    },
    {
      "channel": 1,
      "note": 33,
      "start": 114.9313,
      "duration": 0.115,
      "velocity": 98,
      "chip": "ym2612"
    },
    {
      "channel": 2,
      "note": 78,
      "start": 114.9316,
      "duration": 0.1149,
      "velocity": 127,
      "chip": "ym2612"
    },
    {
      "channel": 0,
      "note": 45,
      "start": 115.063,
      "duration": 0.1166,
      "velocity": 127,
      "chip": "ym2612"
    },
    {
      "channel": 1,
      "note": 57,
      "start": 115.0647,
      "duration": 0.115,
      "velocity": 127,
      "chip": "ym2612"
    },
    {
      "channel": 2,
      "note": 78,
      "start": 115.0649,
      "duration": 0.1149,
      "velocity": 127,
      "chip": "ym2612"
    },
    {
      "channel": 0,
      "note": 45,
      "start": 115.1979,
      "duration": 0.2483,
      "velocity": 88,
      "chip": "ym2612"
    },
    {
      "channel": 1,
      "note": 64,
      "start": 115.1996,
      "duration": 0.1134,
      "velocity": 107,
      "chip": "ym2612"
    },
    {
      "channel": 2,
      "note": 66,
      "start": 115.2013,
      "duration": 0.1117,
      "velocity": 127,
      "chip": "ym2612"
    },
    {
      "channel": 1,
      "note": 33,
      "start": 115.3311,
      "duration": 0.1152,
      "velocity": 98,
      "chip": "ym2612"
    },
    {
      "channel": 2,
      "note": 78,
      "start": 115.3313,
      "duration": 0.115,
      "velocity": 127,
      "chip": "ym2612"
    },
    {
      "channel": 0,
      "note": 54,
      "start": 115.4629,
      "duration": 0.25,
      "velocity": 88,
      "chip": "ym2612"
    },
    {
      "channel": 1,
      "note": 57,
      "start": 115.4646,
      "duration": 0.1149,
      "velocity": 127,
      "chip": "ym2612"
    },
    {
      "channel": 2,
      "note": 66,
      "start": 115.4649,
      "duration": 0.1148,
      "velocity": 127,
      "chip": "ym2612"
    },
    {
      "channel": 1,
      "note": 64,
      "start": 115.5978,
      "duration": 0.1153,
      "velocity": 107,
      "chip": "ym2612"
    },
    {
      "channel": 2,
      "note": 78,
      "start": 115.598,
      "duration": 0.1151,
      "velocity": 127,
      "chip": "ym2612"
    },
    {
      "channel": 0,
      "note": 54,
      "start": 115.7296,
      "duration": 0.2499,
      "velocity": 88,
      "chip": "ym2612"
    },
    {
      "channel": 1,
      "note": 33,
      "start": 115.7313,
      "duration": 0.1148,
      "velocity": 98,
      "chip": "ym2612"
    },
    {
      "channel": 2,
      "note": 66,
      "start": 115.7316,
      "duration": 0.1146,
      "velocity": 127,
      "chip": "ym2612"
    },
    {
      "channel": 1,
      "note": 57,
      "start": 115.8644,
      "duration": 0.1153,
      "velocity": 127,
      "chip": "ym2612"
    },
    {
      "channel": 2,
      "note": 78,
      "start": 115.8647,
      "duration": 0.1151,
      "velocity": 127,
      "chip": "ym2612"
    },
    {
      "channel": 0,
      "note": 54,
      "start": 115.9963,
      "duration": 0.3832,
      "velocity": 88,
      "chip": "ym2612"
    },
    {
      "channel": 1,
      "note": 64,
      "start": 115.998,
      "duration": 0.1149,
      "velocity": 107,
      "chip": "ym2612"
    },
    {
      "channel": 2,
      "note": 78,
      "start": 115.9997,
      "duration": 0.1133,
      "velocity": 127,
      "chip": "ym2612"
    },
    {
      "channel": 1,
      "note": 33,
      "start": 116.1312,
      "duration": 0.115,
      "velocity": 98,
      "chip": "ym2612"
    },
    {
      "channel": 2,
      "note": 42,
      "start": 116.1329,
      "duration": 0.1134,
      "velocity": 127,
      "chip": "ym2612"
    },
    {
      "channel": 1,
      "note": 57,
      "start": 116.2644,
      "duration": 0.1153,
      "velocity": 127,
      "chip": "ym2612"
    },
    {
      "channel": 2,
      "note": 78,
      "start": 116.2647,
      "duration": 0.1151,
      "velocity": 127,
      "chip": "ym2612"
    },
    {
      "channel": 0,
      "note": 57,
      "start": 116.3963,
      "duration": 0.2499,
      "velocity": 88,
      "chip": "ym2612"
    },
    {
      "channel": 1,
      "note": 64,
      "start": 116.398,
      "duration": 0.1149,
      "velocity": 107,
      "chip": "ym2612"
    },
    {
      "channel": 2,
      "note": 66,
      "start": 116.3983,
      "duration": 0.1147,
      "velocity": 127,
      "chip": "ym2612"
    },
    {
      "channel": 1,
      "note": 33,
      "start": 116.5312,
      "duration": 0.1151,
      "velocity": 98,
      "chip": "ym2612"
    },
    {
      "channel": 2,
      "note": 78,
      "start": 116.5314,
      "duration": 0.1149,
      "velocity": 127,
      "chip": "ym2612"
    },
    {
      "channel": 0,
      "note": 59,
      "start": 116.663,
      "duration": 0.1165,
      "velocity": 88,
      "chip": "ym2612"
    },
    {
      "channel": 1,
      "note": 57,
      "start": 116.6647,
      "duration": 0.1148,
      "velocity": 127,
      "chip": "ym2612"
    },
    {
      "channel": 2,
      "note": 66,
      "start": 116.665,
      "duration": 0.1147,
      "velocity": 127,
      "chip": "ym2612"
    },
    {
      "channel": 0,
      "note": 54,
      "start": 116.798,
      "duration": 0.1149,
      "velocity": 127,
      "chip": "ym2612"
    },
    {
      "channel": 1,
      "note": 64,
      "start": 116.7996,
      "duration": 0.1134,
      "velocity": 107,
      "chip": "ym2612"
    },
    {
      "channel": 2,
      "note": 78,
      "start": 116.8013,
      "duration": 0.1118,
      "velocity": 127,
      "chip": "ym2612"
    },
    {
      "channel": 0,
      "note": 40,
      "start": 116.9296,
      "duration": 0.0499,
      "velocity": 127,
      "chip": "ym2612"
    },
    {
      "channel": 1,
      "note": 33,
      "start": 116.9313,
      "duration": 0.115,
      "velocity": 127,
      "chip": "ym2612"
    },
    {
      "channel": 2,
      "note": 78,
      "start": 116.9316,
      "duration": 0.1149,
      "velocity": 127,
      "chip": "ym2612"
    },
    {
      "channel": 0,
      "note": 40,
      "start": 116.9963,
      "duration": 0.0499,
      "velocity": 127,
      "chip": "ym2612"
    },
    {
      "channel": 0,
      "note": 40,
      "start": 117.063,
      "duration": 0.1165,
      "velocity": 127,
      "chip": "ym2612"
    },
    {
      "channel": 1,
      "note": 64,
      "start": 117.0647,
      "duration": 0.115,
      "velocity": 98,
      "chip": "ym2612"
    },
    {
      "channel": 2,
      "note": 66,
      "start": 117.0649,
      "duration": 0.1148,
      "velocity": 127,
      "chip": "ym2612"
    },
    {
      "channel": 0,
      "note": 40,
      "start": 117.1962,
      "duration": 0.1166,
      "velocity": 127,
      "chip": "ym2612"
    },
    {
      "channel": 1,
      "note": 57,
      "start": 117.198,
      "duration": 0.1149,
      "velocity": 107,
      "chip": "ym2612"
    },
    {
      "channel": 2,
      "note": 78,
      "start": 117.1982,
      "duration": 0.1148,
      "velocity": 127,
      "chip": "ym2612"
    },
    {
      "channel": 0,
      "note": 45,
      "start": 117.3297,
      "duration": 0.0498,
      "velocity": 127,
      "chip": "ym2612"
    },
    {
      "channel": 1,
      "note": 33,
      "start": 117.3314,
      "duration": 0.1148,
      "velocity": 98,
      "chip": "ym2612"
    },
    {
      "channel": 2,
      "note": 66,
      "start": 117.3317,
      "duration": 0.1147,
      "velocity": 127,
      "chip": "ym2612"
    },
    {
      "channel": 0,
      "note": 45,
      "start": 117.3962,
      "duration": 0.0499,
      "velocity": 127,
      "chip": "ym2612"
    },
    {
      "channel": 0,
      "note": 45,
      "start": 117.463,
      "duration": 0.1166,
      "velocity": 127,
      "chip": "ym2612"
    },
    {
      "channel": 1,
      "note": 57,
      "start": 117.4647,
      "duration": 0.115,
      "velocity": 127,
      "chip": "ym2612"
    },
    {
      "channel": 2,
      "note": 78,
      "start": 117.4649,
      "duration": 0.1149,
      "velocity": 127,
      "chip": "ym2612"
    },
    {
      "channel": 0,
      "note": 45,
      "start": 117.5963,
      "duration": 0.1165,
      "velocity": 127,
      "chip": "ym2612"
    },
    {
      "channel": 1,
      "note": 64,
      "start": 117.598,
      "duration": 0.1149,
      "velocity": 107,
      "chip": "ym2612"
    },
    {
      "channel": 2,
      "note": 78,
      "start": 117.5997,
      "duration": 0.1134,
      "velocity": 127,
      "chip": "ym2612"
    },
    {
      "channel": 0,
      "note": 40,
      "start": 117.7297,
      "duration": 0.0498,
      "velocity": 127,
      "chip": "ym2612"
    },
    {
      "channel": 1,
      "note": 33,
      "start": 117.7313,
      "duration": 0.1149,
      "velocity": 98,
      "chip": "ym2612"
    },
    {
      "channel": 2,
      "note": 42,
      "start": 117.7331,
      "duration": 0.1133,
      "velocity": 127,
      "chip": "ym2612"
    },
    {
      "channel": 0,
      "note": 40,
      "start": 117.7962,
      "duration": 0.0499,
      "velocity": 127,
      "chip": "ym2612"
    },
    {
      "channel": 0,
      "note": 40,
      "start": 117.863,
      "duration": 0.1164,
      "velocity": 127,
      "chip": "ym2612"
    },
    {
      "channel": 1,
      "note": 57,
      "start": 117.8647,
      "duration": 0.1148,
      "velocity": 127,
      "chip": "ym2612"
    },
    {
      "channel": 2,
      "note": 78,
      "start": 117.865,
      "duration": 0.1147,
      "velocity": 127,
      "chip": "ym2612"
    },
    {
      "channel": 0,
      "note": 40,
      "start": 117.9963,
      "duration": 0.1166,
      "velocity": 127,
      "chip": "ym2612"
    },
    {
      "channel": 1,
      "note": 64,
      "start": 117.998,
      "duration": 0.115,
      "velocity": 107,
      "chip": "ym2612"
    },
    {
      "channel": 2,
      "note": 66,
      "start": 117.9983,
      "duration": 0.1149,
      "velocity": 127,
      "chip": "ym2612"
    },
    {
      "channel": 0,
      "note": 45,
      "start": 118.1296,
      "duration": 0.0499,
      "velocity": 127,
      "chip": "ym2612"
    },
    {
      "channel": 1,
      "note": 33,
      "start": 118.1313,
      "duration": 0.115,
      "velocity": 98,
      "chip": "ym2612"
    },
    {
      "channel": 2,
      "note": 78,
      "start": 118.1316,
      "duration": 0.1148,
      "velocity": 127,
      "chip": "ym2612"
    },
    {
      "channel": 0,
      "note": 45,
      "start": 118.1962,
      "duration": 0.0501,
      "velocity": 127,
      "chip": "ym2612"
    },
    {
      "channel": 0,
      "note": 45,
      "start": 118.263,
      "duration": 0.1165,
      "velocity": 127,
      "chip": "ym2612"
    },
    {
      "channel": 1,
      "note": 57,
      "start": 118.2647,
      "duration": 0.115,
      "velocity": 127,
      "chip": "ym2612"
    },
    {
      "channel": 2,
      "note": 66,
      "start": 118.2649,
      "duration": 0.1148,
      "velocity": 127,
      "chip": "ym2612"
    },
    {
      "channel": 0,
      "note": 45,
      "start": 118.398,
      "duration": 0.2481,
      "velocity": 88,
      "chip": "ym2612"
    },
    {
      "channel": 1,
      "note": 64,
      "start": 118.3997,
      "duration": 0.1132,
      "velocity": 107,
      "chip": "ym2612"
    },
    {
      "channel": 2,
      "note": 78,
      "start": 118.4014,
      "duration": 0.1116,
      "velocity": 127,
      "chip": "ym2612"
    },
    {
      "channel": 1,
      "note": 33,
      "start": 118.5311,
      "duration": 0.1151,
      "velocity": 98,
      "chip": "ym2612"
    },
    {
      "channel": 2,
      "note": 78,
      "start": 118.5313,
      "duration": 0.115,
      "velocity": 127,
      "chip": "ym2612"
    },
    {
      "channel": 0,
      "note": 50,
      "start": 118.663,
      "duration": 0.2499,
      "velocity": 88,
      "chip": "ym2612"
    },
    {
      "channel": 1,
      "note": 57,
      "start": 118.6647,
      "duration": 0.1148,
      "velocity": 127,
      "chip": "ym2612"
    },
    {
      "channel": 2,
      "note": 66,
      "start": 118.6649,
      "duration": 0.1147,
      "velocity": 127,
      "chip": "ym2612"
    },
    {
      "channel": 1,
      "note": 64,
      "start": 118.7978,
      "duration": 0.1153,
      "velocity": 107,
      "chip": "ym2612"
    },
    {
      "channel": 2,
      "note": 78,
      "start": 118.798,
      "duration": 0.1151,
      "velocity": 127,
      "chip": "ym2612"
    },
    {
      "channel": 0,
      "note": 50,
      "start": 118.9297,
      "duration": 0.2499,
      "velocity": 88,
      "chip": "ym2612"
    },
    {
      "channel": 1,
      "note": 33,
      "start": 118.9313,
      "duration": 0.1148,
      "velocity": 98,
      "chip": "ym2612"
    },
    {
      "channel": 2,
      "note": 66,
      "start": 118.9316,
      "duration": 0.1147,
      "velocity": 127,
      "chip": "ym2612"
    },
    {
      "channel": 1,
      "note": 57,
      "start": 119.0644,
      "duration": 0.1153,
      "velocity": 127,
      "chip": "ym2612"
    },
    {
      "channel": 2,
      "note": 78,
      "start": 119.0647,
      "duration": 0.1151,
      "velocity": 127,
      "chip": "ym2612"
    },
    {
      "channel": 0,
      "note": 50,
      "start": 119.1963,
      "duration": 0.3832,
      "velocity": 88,
      "chip": "ym2612"
    },
    {
      "channel": 1,
      "note": 64,
      "start": 119.198,
      "duration": 0.1149,
      "velocity": 107,
      "chip": "ym2612"
    },
    {
      "channel": 2,
      "note": 78,
      "start": 119.1997,
      "duration": 0.1132,
      "velocity": 127,
      "chip": "ym2612"
    },
    {
      "channel": 1,
      "note": 33,
      "start": 119.3312,
      "duration": 0.1151,
      "velocity": 98,
      "chip": "ym2612"
    },
    {
      "channel": 2,
      "note": 42,
      "start": 119.3329,
      "duration": 0.1135,
      "velocity": 127,
      "chip": "ym2612"
    },
    {
      "channel": 1,
      "note": 57,
      "start": 119.4644,
      "duration": 0.1152,
      "velocity": 127,
      "chip": "ym2612"
    },
    {
      "channel": 2,
      "note": 78,
      "start": 119.4647,
      "duration": 0.1151,
      "velocity": 127,
      "chip": "ym2612"
    },
    {
      "channel": 0,
      "note": 50,
      "start": 119.5964,
      "duration": 0.2498,
      "velocity": 88,
      "chip": "ym2612"
    },
    {
      "channel": 1,
      "note": 64,
      "start": 119.5981,
      "duration": 0.1148,
      "velocity": 107,
      "chip": "ym2612"
    },
    {
      "channel": 2,
      "note": 66,
      "start": 119.5983,
      "duration": 0.1146,
      "velocity": 127,
      "chip": "ym2612"
    },
    {
      "channel": 1,
      "note": 33,
      "start": 119.7311,
      "duration": 0.1151,
      "velocity": 98,
      "chip": "ym2612"
    },
    {
      "channel": 2,
      "note": 78,
      "start": 119.7313,
      "duration": 0.115,
      "velocity": 127,
      "chip": "ym2612"
    },
    {
      "channel": 0,
      "note": 48,
      "start": 119.863,
      "duration": 0.1166,
      "velocity": 88,
      "chip": "ym2612"
    },
    {
      "channel": 1,
      "note": 57,
      "start": 119.8647,
      "duration": 0.115,
      "velocity": 127,
      "chip": "ym2612"
    },
    {
      "channel": 2,
      "note": 66,
      "start": 119.8649,
      "duration": 0.1149,
      "velocity": 127,
      "chip": "ym2612"
    },
    {
      "channel": 0,
      "note": 50,
      "start": 119.9979,
      "duration": 0.0483,
      "velocity": 127,
      "chip": "ym2612"
    },
    {
      "channel": 1,
      "note": 64,
      "start": 119.9996,
      "duration": 0.1134,
      "velocity": 107,
      "chip": "ym2612"
    },
    {
      "channel": 2,
      "note": 78,
      "start": 120.0013,
      "duration": 0.1118,
      "velocity": 127,
      "chip": "ym2612"
    },
    {
      "channel": 0,
      "note": 40,
      "start": 120.0628,
      "duration": 0.0501,
      "velocity": 127,
      "chip": "ym2612"
    },
    {
      "channel": 0,
      "note": 40,
      "start": 120.1296,
      "duration": 0.0499,
      "velocity": 127,
      "chip": "ym2612"
    },
    {
      "channel": 1,
      "note": 33,
      "start": 120.1313,
      "duration": 0.115,
      "velocity": 127,
      "chip": "ym2612"
    },
    {
      "channel": 2,
      "note": 78,
      "start": 120.1316,
      "duration": 0.1148,
      "velocity": 127,
      "chip": "ym2612"
    },
    {
      "channel": 0,
      "note": 40,
      "start": 120.1962,
      "duration": 0.0501,
      "velocity": 127,
      "chip": "ym2612"
    },
    {
      "channel": 0,
      "note": 40,
      "start": 120.263,
      "duration": 0.0498,
      "velocity": 127,
      "chip": "ym2612"
    },
    {
      "channel": 1,
      "note": 64,
      "start": 120.2646,
      "duration": 0.1151,
      "velocity": 98,
      "chip": "ym2612"
    },
    {
      "channel": 2,
      "note": 66,
      "start": 120.2663,
      "duration": 0.1135,
      "velocity": 127,
      "chip": "ym2612"
    },
    {
      "channel": 0,
      "note": 40,
      "start": 120.3295,
      "duration": 0.0501,
      "velocity": 127,
      "chip": "ym2612"
    },
    {
      "channel": 0,
      "note": 40,
      "start": 120.3963,
      "duration": 0.0498,
      "velocity": 127,
      "chip": "ym2612"
    },
    {
      "channel": 1,
      "note": 57,
      "start": 120.398,
      "duration": 0.115,
      "velocity": 107,
      "chip": "ym2612"
    },
    {
      "channel": 2,
      "note": 42,
      "start": 120.3997,
      "duration": 0.1134,
      "velocity": 127,
      "chip": "ym2612"
    },
    {
      "channel": 0,
      "note": 40,
      "start": 120.4629,
      "duration": 0.05,
      "velocity": 127,
      "chip": "ym2612"
    },
    {
      "channel": 0,
      "note": 40,
      "start": 120.5296,
      "duration": 0.0499,
      "velocity": 127,
      "chip": "ym2612"
    },
    {
      "channel": 1,
      "note": 33,
      "start": 120.5313,
      "duration": 0.115,
      "velocity": 98,
      "chip": "ym2612"
    },
    {
      "channel": 2,
      "note": 66,
      "start": 120.5316,
      "duration": 0.1148,
      "velocity": 127,
      "chip": "ym2612"
    },
    {
      "channel": 0,
      "note": 40,
      "start": 120.5962,
      "duration": 0.0501,
      "velocity": 127,
      "chip": "ym2612"
    },
    {
      "channel": 0,
      "note": 40,
      "start": 120.663,
      "duration": 0.0499,
      "velocity": 127,
      "chip": "ym2612"
    },
    {
      "channel": 1,
      "note": 57,
      "start": 120.6647,
      "duration": 0.115,
      "velocity": 127,
      "chip": "ym2612"
    },
    {
      "channel": 2,
      "note": 78,
      "start": 120.6649,
      "duration": 0.1147,
      "velocity": 127,
      "chip": "ym2612"
    },
    {
      "channel": 0,
      "note": 40,
      "start": 120.7296,
      "duration": 0.0499,
      "velocity": 127,
      "chip": "ym2612"
    },
    {
      "channel": 0,
      "note": 40,
      "start": 120.7978,
      "duration": 0.1149,
      "velocity": 88,
      "chip": "ym2612"
    },
    {
      "channel": 1,
      "note": 64,
      "start": 120.7995,
      "duration": 0.1134,
      "velocity": 107,
      "chip": "ym2612"
    },
    {
      "channel": 2,
      "note": 66,
      "start": 120.8012,
      "duration": 0.1118,
      "velocity": 127,
      "chip": "ym2612"
    },
    {
      "channel": 0,
      "note": 60,
      "start": 120.9297,
      "duration": 0.1165,
      "velocity": 88,
      "chip": "ym2612"
    },
    {
      "channel": 1,
      "note": 33,
      "start": 120.9313,
      "duration": 0.115,
      "velocity": 98,
      "chip": "ym2612"
    },
    {
      "channel": 2,
      "note": 42,
      "start": 120.9331,
      "duration": 0.1133,
      "velocity": 127,
      "chip": "ym2612"
    },
    {
      "channel": 0,
      "note": 59,
      "start": 121.0629,
      "duration": 0.1166,
      "velocity": 88,
      "chip": "ym2612"
    },
    {
      "channel": 1,
      "note": 57,
      "start": 121.0646,
      "duration": 0.1149,
      "velocity": 127,
      "chip": "ym2612"
    },
    {
      "channel": 2,
      "note": 78,
      "start": 121.0649,
      "duration": 0.1148,
      "velocity": 127,
      "chip": "ym2612"
    },
    {
      "channel": 0,
      "note": 54,
      "start": 121.1963,
      "duration": 0.2499,
      "velocity": 88,
      "chip": "ym2612"
    },
    {
      "channel": 1,
      "note": 64,
      "start": 121.1981,
      "duration": 0.1148,
      "velocity": 107,
      "chip": "ym2612"
    },
    {
      "channel": 2,
      "note": 66,
      "start": 121.1983,
      "duration": 0.1146,
      "velocity": 127,
      "chip": "ym2612"
    },
    {
      "channel": 1,
      "note": 33,
      "start": 121.3311,
      "duration": 0.1153,
      "velocity": 98,
      "chip": "ym2612"
    },
    {
      "channel": 2,
      "note": 78,
      "start": 121.3313,
      "duration": 0.1151,
      "velocity": 127,
      "chip": "ym2612"
    },
    {
      "channel": 0,
      "note": 59,
      "start": 121.463,
      "duration": 0.1165,
      "velocity": 88,
      "chip": "ym2612"
    },
    {
      "channel": 1,
      "note": 57,
      "start": 121.4647,
      "duration": 0.1149,
      "velocity": 127,
      "chip": "ym2612"
    },
    {
      "channel": 2,
      "note": 78,
      "start": 121.4664,
      "duration": 0.1133,
      "velocity": 127,
      "chip": "ym2612"
    },
    {
      "channel": 0,
      "note": 57,
      "start": 121.5981,
      "duration": 0.2482,
      "velocity": 88,
      "chip": "ym2612"
    },
    {
      "channel": 1,
      "note": 64,
      "start": 121.5997,
      "duration": 0.1131,
      "velocity": 107,
      "chip": "ym2612"
    },
    {
      "channel": 1,
      "note": 33,
      "start": 121.7311,
      "duration": 0.1153,
      "velocity": 98,
      "chip": "ym2612"
    },
    {
      "channel": 2,
      "note": 42,
      "start": 121.7313,
      "duration": 0.1151,
      "velocity": 99,
      "chip": "ym2612"
    },
    {
      "channel": 0,
      "note": 54,
      "start": 121.863,
      "duration": 0.2499,
      "velocity": 88,
      "chip": "ym2612"
    },
    {
      "channel": 1,
      "note": 57,
      "start": 121.8647,
      "duration": 0.1149,
      "velocity": 127,
      "chip": "ym2612"
    },
    {
      "channel": 2,
      "note": 88,
      "start": 121.8649,
      "duration": 0.1147,
      "velocity": 99,
      "chip": "ym2612"
    },
    {
      "channel": 1,
      "note": 64,
      "start": 121.9977,
      "duration": 0.1152,
      "velocity": 107,
      "chip": "ym2612"
    },
    {
      "channel": 2,
      "note": 90,
      "start": 121.998,
      "duration": 0.1151,
      "velocity": 99,
      "chip": "ym2612"
    },
    {
      "channel": 0,
      "note": 54,
      "start": 122.1297,
      "duration": 0.2499,
      "velocity": 88,
      "chip": "ym2612"
    },
    {
      "channel": 1,
      "note": 33,
      "start": 122.1313,
      "duration": 0.1148,
      "velocity": 98,
      "chip": "ym2612"
    },
    {
      "channel": 2,
      "note": 88,
      "start": 122.1316,
      "duration": 0.1147,
      "velocity": 99,
      "chip": "ym2612"
    },
    {
      "channel": 1,
      "note": 57,
      "start": 122.2644,
      "duration": 0.1153,
      "velocity": 127,
      "chip": "ym2612"
    },
    {
      "channel": 2,
      "note": 85,
      "start": 122.2647,
      "duration": 0.1151,
      "velocity": 99,
      "chip": "ym2612"
    },
    {
      "channel": 0,
      "note": 54,
      "start": 122.3963,
      "duration": 0.3832,
      "velocity": 88,
      "chip": "ym2612"
    },
    {
      "channel": 1,
      "note": 64,
      "start": 122.398,
      "duration": 0.115,
      "velocity": 107,
      "chip": "ym2612"
    },
    {
      "channel": 2,
      "note": 83,
      "start": 122.3983,
      "duration": 0.1148,
      "velocity": 99,
      "chip": "ym2612"
    },
    {
      "channel": 1,
      "note": 33,
      "start": 122.5311,
      "duration": 0.1151,
      "velocity": 98,
      "chip": "ym2612"
    },
    {
      "channel": 2,
      "note": 88,
      "start": 122.5313,
      "duration": 0.115,
      "velocity": 99,
      "chip": "ym2612"
    },
    {
      "channel": 1,
      "note": 57,
      "start": 122.6644,
      "duration": 0.1153,
      "velocity": 127,
      "chip": "ym2612"
    },
    {
      "channel": 2,
      "note": 90,
      "start": 122.6646,
      "duration": 0.1151,
      "velocity": 99,
      "chip": "ym2612"
    },
    {
      "channel": 0,
      "note": 57,
      "start": 122.7964,
      "duration": 0.2498,
      "velocity": 88,
      "chip": "ym2612"
    },
    {
      "channel": 1,
      "note": 64,
      "start": 122.7981,
      "duration": 0.1148,
      "velocity": 107,
      "chip": "ym2612"
    },
    {
      "channel": 2,
      "note": 88,
      "start": 122.7983,
      "duration": 0.1147,
      "velocity": 99,
      "chip": "ym2612"
    },
    {
      "channel": 1,
      "note": 33,
      "start": 122.9312,
      "duration": 0.1151,
      "velocity": 98,
      "chip": "ym2612"
    },
    {
      "channel": 2,
      "note": 85,
      "start": 122.9314,
      "duration": 0.115,
      "velocity": 99,
      "chip": "ym2612"
    },
    {
      "channel": 0,
      "note": 59,
      "start": 123.0631,
      "duration": 0.1163,
      "velocity": 88,
      "chip": "ym2612"
    },
    {
      "channel": 1,
      "note": 57,
      "start": 123.0647,
      "duration": 0.1148,
      "velocity": 127,
      "chip": "ym2612"
    },
    {
      "channel": 2,
      "note": 83,
      "start": 123.065,
      "duration": 0.1147,
      "velocity": 99,
      "chip": "ym2612"
    },
    {
      "channel": 0,
      "note": 54,
      "start": 123.1979,
      "duration": 0.0483,
      "velocity": 127,
      "chip": "ym2612"
    },
    {
      "channel": 1,
      "note": 64,
      "start": 123.1996,
      "duration": 0.1133,
      "velocity": 107,
      "chip": "ym2612"
    },
    {
      "channel": 2,
      "note": 88,
      "start": 123.1999,
      "duration": 0.1132,
      "velocity": 99,
      "chip": "ym2612"
    },
    {
      "channel": 0,
      "note": 40,
      "start": 123.2629,
      "duration": 0.0499,
      "velocity": 127,
      "chip": "ym2612"
    },
    {
      "channel": 0,
      "note": 40,
      "start": 123.3297,
      "duration": 0.1166,
      "velocity": 127,
      "chip": "ym2612"
    },
    {
      "channel": 1,
      "note": 33,
      "start": 123.3313,
      "duration": 0.115,
      "velocity": 127,
      "chip": "ym2612"
    },
    {
      "channel": 2,
      "note": 90,
      "start": 123.3316,
      "duration": 0.1148,
      "velocity": 99,
      "chip": "ym2612"
    },
    {
      "channel": 0,
      "note": 40,
      "start": 123.463,
      "duration": 0.1165,
      "velocity": 127,
      "chip": "ym2612"
    },
    {
      "channel": 1,
      "note": 64,
      "start": 123.4647,
      "duration": 0.115,
      "velocity": 98,
      "chip": "ym2612"
    },
    {
      "channel": 2,
      "note": 88,
      "start": 123.4649,
      "duration": 0.1148,
      "velocity": 99,
      "chip": "ym2612"
    },
    {
      "channel": 0,
      "note": 40,
      "start": 123.5963,
      "duration": 0.1165,
      "velocity": 127,
      "chip": "ym2612"
    },
    {
      "channel": 1,
      "note": 57,
      "start": 123.598,
      "duration": 0.115,
      "velocity": 107,
      "chip": "ym2612"
    },
    {
      "channel": 2,
      "note": 85,
      "start": 123.5982,
      "duration": 0.1148,
      "velocity": 99,
      "chip": "ym2612"
    },
    {
      "channel": 0,
      "note": 40,
      "start": 123.7296,
      "duration": 0.1165,
      "velocity": 127,
      "chip": "ym2612"
    },
    {
      "channel": 1,
      "note": 33,
      "start": 123.7313,
      "duration": 0.1149,
      "velocity": 98,
      "chip": "ym2612"
    },
    {
      "channel": 2,
      "note": 83,
      "start": 123.7315,
      "duration": 0.1148,
      "velocity": 99,
      "chip": "ym2612"
    },
    {
      "channel": 0,
      "note": 40,
      "start": 123.863,
      "duration": 0.2499,
      "velocity": 127,
      "chip": "ym2612"
    },
    {
      "channel": 1,
      "note": 57,
      "start": 123.8647,
      "duration": 0.1148,
      "velocity": 127,
      "chip": "ym2612"
    },
    {
      "channel": 2,
      "note": 88,
      "start": 123.8649,
      "duration": 0.1147,
      "velocity": 99,
      "chip": "ym2612"
    },
    {
      "channel": 1,
      "note": 64,
      "start": 123.9978,
      "duration": 0.1153,
      "velocity": 107,
      "chip": "ym2612"
    },
    {
      "channel": 2,
      "note": 90,
      "start": 123.998,
      "duration": 0.1151,
      "velocity": 99,
      "chip": "ym2612"
    },
    {
      "channel": 0,
      "note": 40,
      "start": 124.1296,
      "duration": 0.2499,
      "velocity": 127,
      "chip": "ym2612"
    },
    {
      "channel": 1,
      "note": 33,
      "start": 124.1313,
      "duration": 0.1149,
      "velocity": 98,
      "chip": "ym2612"
    },
    {
      "channel": 2,
      "note": 88,
      "start": 124.1316,
      "duration": 0.1147,
      "velocity": 99,
      "chip": "ym2612"
    },
    {
      "channel": 1,
      "note": 57,
      "start": 124.2644,
      "duration": 0.1152,
      "velocity": 127,
      "chip": "ym2612"
    },
    {
      "channel": 2,
      "note": 85,
      "start": 124.2646,
      "duration": 0.1151,
      "velocity": 99,
      "chip": "ym2612"
    },
    {
      "channel": 0,
      "note": 45,
      "start": 124.3963,
      "duration": 0.1164,
      "velocity": 127,
      "chip": "ym2612"
    },
    {
      "channel": 1,
      "note": 64,
      "start": 124.398,
      "duration": 0.1149,
      "velocity": 107,
      "chip": "ym2612"
    },
    {
      "channel": 2,
      "note": 83,
      "start": 124.3983,
      "duration": 0.1147,
      "velocity": 99,
      "chip": "ym2612"
    },
    {
      "channel": 0,
      "note": 45,
      "start": 124.5297,
      "duration": 0.1166,
      "velocity": 127,
      "chip": "ym2612"
    },
    {
      "channel": 1,
      "note": 33,
      "start": 124.5313,
      "duration": 0.115,
      "velocity": 98,
      "chip": "ym2612"
    },
    {
      "channel": 2,
      "note": 88,
      "start": 124.5316,
      "duration": 0.1149,
      "velocity": 99,
      "chip": "ym2612"
    },
    {
      "channel": 0,
      "note": 45,
      "start": 124.663,
      "duration": 0.1166,
      "velocity": 127,
      "chip": "ym2612"
    },
    {
      "channel": 1,
      "note": 57,
      "start": 124.6647,
      "duration": 0.115,
      "velocity": 127,
      "chip": "ym2612"
    },
    {
      "channel": 2,
      "note": 90,
      "start": 124.6649,
      "duration": 0.1148,
      "velocity": 99,
      "chip": "ym2612"
    },
    {
      "channel": 0,
      "note": 40,
      "start": 124.7979,
      "duration": 0.2483,
      "velocity": 88,
      "chip": "ym2612"
    },
    {
      "channel": 1,
      "note": 64,
      "start": 124.7996,
      "duration": 0.1132,
      "velocity": 107,
      "chip": "ym2612"
    },
    {
      "channel": 2,
      "note": 84,
      "start": 124.7999,
      "duration": 0.1131,
      "velocity": 99,
      "chip": "ym2612"
    },
    {
      "channel": 1,
      "note": 33,
      "start": 124.9311,
      "duration": 0.1153,
      "velocity": 98,
      "chip": "ym2612"
    },
    {
      "channel": 2,
      "note": 83,
      "start": 124.9313,
      "duration": 0.1151,
      "velocity": 99,
      "chip": "ym2612"
    },
    {
      "channel": 0,
      "note": 50,
      "start": 125.063,
      "duration": 0.2499,
      "velocity": 88,
      "chip": "ym2612"
    },
    {
      "channel": 1,
      "note": 57,
      "start": 125.0647,
      "duration": 0.1148,
      "velocity": 127,
      "chip": "ym2612"
    },
    {
      "channel": 2,
      "note": 84,
      "start": 125.0649,
      "duration": 0.1147,
      "velocity": 99,
      "chip": "ym2612"
    },
    {
      "channel": 1,
      "note": 64,
      "start": 125.1978,
      "duration": 0.1153,
      "velocity": 107,
      "chip": "ym2612"
    },
    {
      "channel": 2,
      "note": 88,
      "start": 125.198,
      "duration": 0.1151,
      "velocity": 99,
      "chip": "ym2612"
    },
    {
      "channel": 0,
      "note": 50,
      "start": 125.3297,
      "duration": 0.2498,
      "velocity": 88,
      "chip": "ym2612"
    },
    {
      "channel": 1,
      "note": 33,
      "start": 125.3313,
      "duration": 0.1149,
      "velocity": 98,
      "chip": "ym2612"
    },
    {
      "channel": 2,
      "note": 90,
      "start": 125.3316,
      "duration": 0.1147,
      "velocity": 99,
      "chip": "ym2612"
    },
    {
      "channel": 1,
      "note": 57,
      "start": 125.4644,
      "duration": 0.1152,
      "velocity": 127,
      "chip": "ym2612"
    },
    {
      "channel": 2,
      "note": 93,
      "start": 125.4647,
      "duration": 0.115,
      "velocity": 99,
      "chip": "ym2612"
    },
    {
      "channel": 0,
      "note": 50,
      "start": 125.5963,
      "duration": 0.3832,
      "velocity": 88,
      "chip": "ym2612"
    },
    {
      "channel": 1,
      "note": 64,
      "start": 125.5981,
      "duration": 0.1148,
      "velocity": 107,
      "chip": "ym2612"
    },
    {
      "channel": 2,
      "note": 95,
      "start": 125.5983,
      "duration": 0.248,
      "velocity": 99,
      "chip": "ym2612"
    },
    {
      "channel": 1,
      "note": 33,
      "start": 125.731,
      "duration": 0.1151,
      "velocity": 98,
      "chip": "ym2612"
    },
    {
      "channel": 1,
      "note": 57,
      "start": 125.8644,
      "duration": 0.1153,
      "velocity": 127,
      "chip": "ym2612"
    },
    {
      "channel": 2,
      "note": 96,
      "start": 125.8647,
      "duration": 0.1151,
      "velocity": 99,
      "chip": "ym2612"
    },
    {
      "channel": 0,
      "note": 50,
      "start": 125.9963,
      "duration": 0.2499,
      "velocity": 88,
      "chip": "ym2612"
    },
    {
      "channel": 1,
      "note": 64,
      "start": 125.998,
      "duration": 0.1149,
      "velocity": 107,
      "chip": "ym2612"
    },
    {
      "channel": 2,
      "note": 96,
      "start": 125.9983,
      "duration": 0.1147,
      "velocity": 99,
      "chip": "ym2612"
    },
    {
      "channel": 1,
      "note": 33,
      "start": 126.1312,
      "duration": 0.1151,
      "velocity": 98,
      "chip": "ym2612"
    },
    {
      "channel": 2,
      "note": 95,
      "start": 126.1314,
      "duration": 0.1149,
      "velocity": 99,
      "chip": "ym2612"
    },
    {
      "channel": 0,
      "note": 48,
      "start": 126.263,
      "duration": 0.1164,
      "velocity": 88,
      "chip": "ym2612"
    },
    {
      "channel": 1,
      "note": 57,
      "start": 126.2647,
      "duration": 0.1148,
      "velocity": 127,
      "chip": "ym2612"
    },
    {
      "channel": 2,
      "note": 93,
      "start": 126.265,
      "duration": 0.1147,
      "velocity": 99,
      "chip": "ym2612"
    },
    {
      "channel": 0,
      "note": 50,
      "start": 126.3979,
      "duration": 0.0483,
      "velocity": 127,
      "chip": "ym2612"
    },
    {
      "channel": 1,
      "note": 64,
      "start": 126.3996,
      "duration": 0.1134,
      "velocity": 107,
      "chip": "ym2612"
    },
    {
      "channel": 2,
      "note": 90,
      "start": 126.3999,
      "duration": 0.2465,
      "velocity": 99,
      "chip": "ym2612"
    },
    {
      "channel": 0,
      "note": 40,
      "start": 126.463,
      "duration": 0.0499,
      "velocity": 127,
      "chip": "ym2612"
    },
    {
      "channel": 0,
      "note": 40,
      "start": 126.5297,
      "duration": 0.1164,
      "velocity": 127,
      "chip": "ym2612"
    },
    {
      "channel": 1,
      "note": 33,
      "start": 126.5313,
      "duration": 0.1149,
      "velocity": 127,
      "chip": "ym2612"
    },
    {
      "channel": 0,
      "note": 40,
      "start": 126.663,
      "duration": 0.1166,
      "velocity": 127,
      "chip": "ym2612"
    },
    {
      "channel": 1,
      "note": 64,
      "start": 126.6647,
      "duration": 0.115,
      "velocity": 98,
      "chip": "ym2612"
    },
    {
      "channel": 2,
      "note": 95,
      "start": 126.6649,
      "duration": 0.1149,
      "velocity": 99,
      "chip": "ym2612"
    },
    {
      "channel": 0,
      "note": 40,
      "start": 126.7963,
      "duration": 0.1166,
      "velocity": 127,
      "chip": "ym2612"
    },
    {
      "channel": 1,
      "note": 57,
      "start": 126.798,
      "duration": 0.115,
      "velocity": 107,
      "chip": "ym2612"
    },
    {
      "channel": 2,
      "note": 95,
      "start": 126.7983,
      "duration": 0.1149,
      "velocity": 99,
      "chip": "ym2612"
    },
    {
      "channel": 0,
      "note": 40,
      "start": 126.9296,
      "duration": 0.0499,
      "velocity": 127,
      "chip": "ym2612"
    },
    {
      "channel": 1,
      "note": 33,
      "start": 126.9313,
      "duration": 0.115,
      "velocity": 98,
      "chip": "ym2612"
    },
    {
      "channel": 2,
      "note": 93,
      "start": 126.9316,
      "duration": 0.1148,
      "velocity": 99,
      "chip": "ym2612"
    },
    {
      "channel": 0,
      "note": 40,
      "start": 126.9963,
      "duration": 0.0499,
      "velocity": 127,
      "chip": "ym2612"
    },
    {
      "channel": 0,
      "note": 40,
      "start": 127.063,
      "duration": 0.1165,
      "velocity": 127,
      "chip": "ym2612"
    },
    {
      "channel": 1,
      "note": 57,
      "start": 127.0647,
      "duration": 0.115,
      "velocity": 127,
      "chip": "ym2612"
    },
    {
      "channel": 2,
      "note": 88,
      "start": 127.0649,
      "duration": 0.1147,
      "velocity": 99,
      "chip": "ym2612"
    },
    {
      "channel": 0,
      "note": 40,
      "start": 127.1962,
      "duration": 0.1165,
      "velocity": 127,
      "chip": "ym2612"
    },
    {
      "channel": 1,
      "note": 64,
      "start": 127.198,
      "duration": 0.1149,
      "velocity": 107,
      "chip": "ym2612"
    },
    {
      "channel": 2,
      "note": 90,
      "start": 127.1982,
      "duration": 0.1148,
      "velocity": 99,
      "chip": "ym2612"
    },
    {
      "channel": 0,
      "note": 45,
      "start": 127.3297,
      "duration": 0.1164,
      "velocity": 127,
      "chip": "ym2612"
    },
    {
      "channel": 1,
      "note": 33,
      "start": 127.3313,
      "duration": 0.1149,
      "velocity": 98,
      "chip": "ym2612"
    },
    {
      "channel": 2,
      "note": 93,
      "start": 127.3316,
      "duration": 0.1147,
      "velocity": 99,
      "chip": "ym2612"
    },
    {
      "channel": 0,
      "note": 45,
      "start": 127.463,
      "duration": 0.1166,
      "velocity": 127,
      "chip": "ym2612"
    },
    {
      "channel": 1,
      "note": 57,
      "start": 127.4647,
      "duration": 0.115,
      "velocity": 127,
      "chip": "ym2612"
    },
    {
      "channel": 2,
      "note": 95,
      "start": 127.4649,
      "duration": 0.1149,
      "velocity": 99,
      "chip": "ym2612"
    },
    {
      "channel": 0,
      "note": 45,
      "start": 127.5963,
      "duration": 0.1166,
      "velocity": 127,
      "chip": "ym2612"
    },
    {
      "channel": 1,
      "note": 64,
      "start": 127.598,
      "duration": 0.115,
      "velocity": 107,
      "chip": "ym2612"
    },
    {
      "channel": 2,
      "note": 93,
      "start": 127.5983,
      "duration": 0.1149,
      "velocity": 99,
      "chip": "ym2612"
    },
    {
      "channel": 0,
      "note": 45,
      "start": 127.7296,
      "duration": 0.1166,
      "velocity": 127,
      "chip": "ym2612"
    },
    {
      "channel": 1,
      "note": 33,
      "start": 127.7313,
      "duration": 0.115,
      "velocity": 98,
      "chip": "ym2612"
    },
    {
      "channel": 2,
      "note": 88,
      "start": 127.7316,
      "duration": 0.1148,
      "velocity": 99,
      "chip": "ym2612"
    },
    {
      "channel": 0,
      "note": 45,
      "start": 127.863,
      "duration": 0.1165,
      "velocity": 127,
      "chip": "ym2612"
    },
    {
      "channel": 1,
      "note": 57,
      "start": 127.8647,
      "duration": 0.115,
      "velocity": 127,
      "chip": "ym2612"
    },
    {
      "channel": 2,
      "note": 93,
      "start": 127.8649,
      "duration": 0.1147,
      "velocity": 99,
      "chip": "ym2612"
    },
    {
      "channel": 0,
      "note": 45,
      "start": 127.9978,
      "duration": 0.2483,
      "velocity": 88,
      "chip": "ym2612"
    },
    {
      "channel": 1,
      "note": 64,
      "start": 127.9995,
      "duration": 0.1134,
      "velocity": 107,
      "chip": "ym2612"
    },
    {
      "channel": 2,
      "note": 95,
      "start": 127.9998,
      "duration": 0.1132,
      "velocity": 99,
      "chip": "ym2612"
    },
    {
      "channel": 1,
      "note": 33,
      "start": 128.1312,
      "duration": 0.1151,
      "velocity": 98,
      "chip": "ym2612"
    },
    {
      "channel": 2,
      "note": 97,
      "start": 128.1314,
      "duration": 0.1149,
      "velocity": 99,
      "chip": "ym2612"
    },
    {
      "channel": 0,
      "note": 54,
      "start": 128.2629,
      "duration": 0.2499,
      "velocity": 88,
      "chip": "ym2612"
    },
    {
      "channel": 1,
      "note": 57,
      "start": 128.2646,
      "duration": 0.1149,
      "velocity": 127,
      "chip": "ym2612"
    },
    {
      "channel": 2,
      "note": 95,
      "start": 128.2649,
      "duration": 0.1148,
      "velocity": 99,
      "chip": "ym2612"
    },
    {
      "channel": 1,
      "note": 64,
      "start": 128.3978,
      "duration": 0.1151,
      "velocity": 107,
      "chip": "ym2612"
    },
    {
      "channel": 2,
      "note": 93,
      "start": 128.398,
      "duration": 0.115,
      "velocity": 99,
      "chip": "ym2612"
    },
    {
      "channel": 0,
      "note": 54,
      "start": 128.5297,
      "duration": 0.2498,
      "velocity": 88,
      "chip": "ym2612"
    },
    {
      "channel": 1,
      "note": 33,
      "start": 128.5313,
      "duration": 0.1148,
      "velocity": 98,
      "chip": "ym2612"
    },
    {
      "channel": 2,
      "note": 90,
      "start": 128.5316,
      "duration": 0.1147,
      "velocity": 99,
      "chip": "ym2612"
    },
    {
      "channel": 1,
      "note": 57,
      "start": 128.6644,
      "duration": 0.1151,
      "velocity": 127,
      "chip": "ym2612"
    },
    {
      "channel": 2,
      "note": 95,
      "start": 128.6647,
      "duration": 0.115,
      "velocity": 99,
      "chip": "ym2612"
    },
    {
      "channel": 0,
      "note": 54,
      "start": 128.7963,
      "duration": 0.3832,
      "velocity": 88,
      "chip": "ym2612"
    },
    {
      "channel": 1,
      "note": 64,
      "start": 128.798,
      "duration": 0.1148,
      "velocity": 107,
      "chip": "ym2612"
    },
    {
      "channel": 2,
      "note": 93,
      "start": 128.7983,
      "duration": 0.1147,
      "velocity": 99,
      "chip": "ym2612"
    },
    {
      "channel": 1,
      "note": 33,
      "start": 128.9311,
      "duration": 0.1151,
      "velocity": 98,
      "chip": "ym2612"
    },
    {
      "channel": 2,
      "note": 88,
      "start": 128.9313,
      "duration": 0.1149,
      "velocity": 99,
      "chip": "ym2612"
    },
    {
      "channel": 1,
      "note": 57,
      "start": 129.0644,
      "duration": 0.1153,
      "velocity": 127,
      "chip": "ym2612"
    },
    {
      "channel": 2,
      "note": 90,
      "start": 129.0647,
      "duration": 0.1151,
      "velocity": 99,
      "chip": "ym2612"
    },
    {
      "channel": 0,
      "note": 57,
      "start": 129.1963,
      "duration": 0.2499,
      "velocity": 88,
      "chip": "ym2612"
    },
    {
      "channel": 1,
      "note": 64,
      "start": 129.198,
      "duration": 0.1148,
      "velocity": 107,
      "chip": "ym2612"
    },
    {
      "channel": 2,
      "note": 95,
      "start": 129.1983,
      "duration": 0.1147,
      "velocity": 99,
      "chip": "ym2612"
    },
    {
      "channel": 1,
      "note": 33,
      "start": 129.3311,
      "duration": 0.1153,
      "velocity": 98,
      "chip": "ym2612"
    },
    {
      "channel": 2,
      "note": 93,
      "start": 129.3313,
      "duration": 0.1151,
      "velocity": 99,
      "chip": "ym2612"
    },
    {
      "channel": 0,
      "note": 59,
      "start": 129.463,
      "duration": 0.1165,
      "velocity": 88,
      "chip": "ym2612"
    },
    {
      "channel": 1,
      "note": 57,
      "start": 129.4647,
      "duration": 0.115,
      "velocity": 127,
      "chip": "ym2612"
    },
    {
      "channel": 2,
      "note": 90,
      "start": 129.4649,
      "duration": 0.1148,
      "velocity": 99,
      "chip": "ym2612"
    },
    {
      "channel": 0,
      "note": 54,
      "start": 129.5978,
      "duration": 0.1149,
      "velocity": 127,
      "chip": "ym2612"
    },
    {
      "channel": 1,
      "note": 64,
      "start": 129.5995,
      "duration": 0.1134,
      "velocity": 107,
      "chip": "ym2612"
    },
    {
      "channel": 2,
      "note": 93,
      "start": 129.5998,
      "duration": 0.1132,
      "velocity": 99,
      "chip": "ym2612"
    },
    {
      "channel": 0,
      "note": 40,
      "start": 129.7297,
      "duration": 0.0499,
      "velocity": 127,
      "chip": "ym2612"
    },
    {
      "channel": 1,
      "note": 33,
      "start": 129.7313,
      "duration": 0.115,
      "velocity": 127,
      "chip": "ym2612"
    },
    {
      "channel": 2,
      "note": 88,
      "start": 129.7316,
      "duration": 0.1149,
      "velocity": 99,
      "chip": "ym2612"
    },
    {
      "channel": 0,
      "note": 40,
      "start": 129.7962,
      "duration": 0.0501,
      "velocity": 127,
      "chip": "ym2612"
    },
    {
      "channel": 0,
      "note": 40,
      "start": 129.863,
      "duration": 0.1165,
      "velocity": 127,
      "chip": "ym2612"
    },
    {
      "channel": 1,
      "note": 64,
      "start": 129.8647,
      "duration": 0.115,
      "velocity": 98,
      "chip": "ym2612"
    },
    {
      "channel": 2,
      "note": 90,
      "start": 129.8649,
      "duration": 0.1148,
      "velocity": 99,
      "chip": "ym2612"
    },
    {
      "channel": 0,
      "note": 40,
      "start": 129.9963,
      "duration": 0.1165,
      "velocity": 127,
      "chip": "ym2612"
    },
    {
      "channel": 1,
      "note": 57,
      "start": 129.998,
      "duration": 0.115,
      "velocity": 107,
      "chip": "ym2612"
    },
    {
      "channel": 2,
      "note": 85,
      "start": 129.9982,
      "duration": 0.1149,
      "velocity": 99,
      "chip": "ym2612"
    },
    {
      "channel": 0,
      "note": 45,
      "start": 130.1298,
      "duration": 0.0498,
      "velocity": 127,
      "chip": "ym2612"
    },
    {
      "channel": 1,
      "note": 33,
      "start": 130.1314,
      "duration": 0.1148,
      "velocity": 98,
      "chip": "ym2612"
    },
    {
      "channel": 2,
      "note": 88,
      "start": 130.1317,
      "duration": 0.1147,
      "velocity": 99,
      "chip": "ym2612"
    },
    {
      "channel": 0,
      "note": 45,
      "start": 130.1962,
      "duration": 0.0499,
      "velocity": 127,
      "chip": "ym2612"
    },
    {
      "channel": 0,
      "note": 45,
      "start": 130.263,
      "duration": 0.1166,
      "velocity": 127,
      "chip": "ym2612"
    },
    {
      "channel": 1,
      "note": 57,
      "start": 130.2647,
      "duration": 0.115,
      "velocity": 127,
      "chip": "ym2612"
    },
    {
      "channel": 2,
      "note": 83,
      "start": 130.2649,
      "duration": 0.1149,
      "velocity": 99,
      "chip": "ym2612"
    },
    {
      "channel": 0,
      "note": 45,
      "start": 130.3963,
      "duration": 0.1166,
      "velocity": 127,
      "chip": "ym2612"
    },
    {
      "channel": 1,
      "note": 64,
      "start": 130.398,
      "duration": 0.115,
      "velocity": 107,
      "chip": "ym2612"
    },
    {
      "channel": 2,
      "note": 85,
      "start": 130.3983,
      "duration": 0.1149,
      "velocity": 99,
      "chip": "ym2612"
    },
    {
      "channel": 0,
      "note": 40,
      "start": 130.5296,
      "duration": 0.0499,
      "velocity": 127,
      "chip": "ym2612"
    },
    {
      "channel": 1,
      "note": 33,
      "start": 130.5313,
      "duration": 0.115,
      "velocity": 98,
      "chip": "ym2612"
    },
    {
      "channel": 2,
      "note": 81,
      "start": 130.5316,
      "duration": 0.1148,
      "velocity": 99,
      "chip": "ym2612"
    },
    {
      "channel": 0,
      "note": 40,
      "start": 130.5963,
      "duration": 0.0499,
      "velocity": 127,
      "chip": "ym2612"
    },
    {
      "channel": 0,
      "note": 40,
      "start": 130.663,
      "duration": 0.1165,
      "velocity": 127,
      "chip": "ym2612"
    },
    {
      "channel": 1,
      "note": 57,
      "start": 130.6647,
      "duration": 0.115,
      "velocity": 127,
      "chip": "ym2612"
    },
    {
      "channel": 2,
      "note": 83,
      "start": 130.6649,
      "duration": 0.1147,
      "velocity": 99,
      "chip": "ym2612"
    },
    {
      "channel": 0,
      "note": 40,
      "start": 130.7962,
      "duration": 0.1165,
      "velocity": 127,
      "chip": "ym2612"
    },
    {
      "channel": 1,
      "note": 64,
      "start": 130.798,
      "duration": 0.1149,
      "velocity": 107,
      "chip": "ym2612"
    },
    {
      "channel": 2,
      "note": 85,
      "start": 130.7982,
      "duration": 0.1148,
      "velocity": 99,
      "chip": "ym2612"
    },
    {
      "channel": 0,
      "note": 45,
      "start": 130.9297,
      "duration": 0.0499,
      "velocity": 127,
      "chip": "ym2612"
    },
    {
      "channel": 1,
      "note": 33,
      "start": 130.9313,
      "duration": 0.115,
      "velocity": 98,
      "chip": "ym2612"
    },
    {
      "channel": 2,
      "note": 88,
      "start": 130.9316,
      "duration": 0.1148,
      "velocity": 99,
      "chip": "ym2612"
    },
    {
      "channel": 0,
      "note": 45,
      "start": 130.9962,
      "duration": 0.0501,
      "velocity": 127,
      "chip": "ym2612"
    },
    {
      "channel": 0,
      "note": 45,
      "start": 131.063,
      "duration": 0.1165,
      "velocity": 127,
      "chip": "ym2612"
    },
    {
      "channel": 1,
      "note": 57,
      "start": 131.0647,
      "duration": 0.115,
      "velocity": 127,
      "chip": "ym2612"
    },
    {
      "channel": 2,
      "note": 90,
      "start": 131.0649,
      "duration": 0.1148,
      "velocity": 99,
      "chip": "ym2612"
    },
    {
      "channel": 0,
      "note": 45,
      "start": 131.1978,
      "duration": 0.2484,
      "velocity": 88,
      "chip": "ym2612"
    },
    {
      "channel": 1,
      "note": 64,
      "start": 131.1995,
      "duration": 0.1133,
      "velocity": 107,
      "chip": "ym2612"
    },
    {
      "channel": 2,
      "note": 93,
      "start": 131.1998,
      "duration": 0.1131,
      "velocity": 99,
      "chip": "ym2612"
    },
    {
      "channel": 1,
      "note": 33,
      "start": 131.3311,
      "duration": 0.1153,
      "velocity": 98,
      "chip": "ym2612"
    },
    {
      "channel": 2,
      "note": 95,
      "start": 131.3313,
      "duration": 0.1151,
      "velocity": 99,
      "chip": "ym2612"
    },
    {
      "channel": 0,
      "note": 50,
      "start": 131.463,
      "duration": 0.2499,
      "velocity": 88,
      "chip": "ym2612"
    },
    {
      "channel": 1,
      "note": 57,
      "start": 131.4647,
      "duration": 0.1148,
      "velocity": 127,
      "chip": "ym2612"
    },
    {
      "channel": 2,
      "note": 96,
      "start": 131.4649,
      "duration": 0.1147,
      "velocity": 99,
      "chip": "ym2612"
    },
    {
      "channel": 1,
      "note": 64,
      "start": 131.5978,
      "duration": 0.1153,
      "velocity": 107,
      "chip": "ym2612"
    },
    {
      "channel": 2,
      "note": 95,
      "start": 131.598,
      "duration": 0.1151,
      "velocity": 99,
      "chip": "ym2612"
    },
    {
      "channel": 0,
      "note": 50,
      "start": 131.7297,
      "duration": 0.2498,
      "velocity": 88,
      "chip": "ym2612"
    },
    {
      "channel": 1,
      "note": 33,
      "start": 131.7313,
      "duration": 0.115,
      "velocity": 98,
      "chip": "ym2612"
    },
    {
      "channel": 2,
      "note": 93,
      "start": 131.7316,
      "duration": 0.1147,
      "velocity": 99,
      "chip": "ym2612"
    },
    {
      "channel": 1,
      "note": 57,
      "start": 131.8644,
      "duration": 0.1152,
      "velocity": 127,
      "chip": "ym2612"
    },
    {
      "channel": 2,
      "note": 95,
      "start": 131.8647,
      "duration": 0.115,
      "velocity": 99,
      "chip": "ym2612"
    },
    {
      "channel": 0,
      "note": 50,
      "start": 131.9963,
      "duration": 0.3831,
      "velocity": 88,
      "chip": "ym2612"
    },
    {
      "channel": 1,
      "note": 64,
      "start": 131.9981,
      "duration": 0.1148,
      "velocity": 107,
      "chip": "ym2612"
    },
    {
      "channel": 2,
      "note": 96,
      "start": 131.9983,
      "duration": 0.1146,
      "velocity": 99,
      "chip": "ym2612"
    },
    {
      "channel": 1,
      "note": 33,
      "start": 132.1311,
      "duration": 0.1151,
      "velocity": 98,
      "chip": "ym2612"
    },
    {
      "channel": 2,
      "note": 98,
      "start": 132.1313,
      "duration": 0.115,
      "velocity": 99,
      "chip": "ym2612"
    },
    {
      "channel": 1,
      "note": 57,
      "start": 132.2644,
      "duration": 0.1151,
      "velocity": 127,
      "chip": "ym2612"
    },
    {
      "channel": 2,
      "note": 96,
      "start": 132.2647,
      "duration": 0.115,
      "velocity": 99,
      "chip": "ym2612"
    },
    {
      "channel": 0,
      "note": 50,
      "start": 132.3963,
      "duration": 0.2499,
      "velocity": 88,
      "chip": "ym2612"
    },
    {
      "channel": 1,
      "note": 64,
      "start": 132.398,
      "duration": 0.1148,
      "velocity": 107,
      "chip": "ym2612"
    },
    {
      "channel": 2,
      "note": 95,
      "start": 132.3983,
      "duration": 0.1147,
      "velocity": 99,
      "chip": "ym2612"
    },
    {
      "channel": 1,
      "note": 33,
      "start": 132.5311,
      "duration": 0.1153,
      "velocity": 98,
      "chip": "ym2612"
    },
    {
      "channel": 2,
      "note": 93,
      "start": 132.5313,
      "duration": 0.1151,
      "velocity": 99,
      "chip": "ym2612"
    },
    {
      "channel": 0,
      "note": 48,
      "start": 132.663,
      "duration": 0.1166,
      "velocity": 88,
      "chip": "ym2612"
    },
    {
      "channel": 1,
      "note": 57,
      "start": 132.6647,
      "duration": 0.115,
      "velocity": 127,
      "chip": "ym2612"
    },
    {
      "channel": 2,
      "note": 95,
      "start": 132.6649,
      "duration": 0.1149,
      "velocity": 99,
      "chip": "ym2612"
    },
    {
      "channel": 0,
      "note": 50,
      "start": 132.7979,
      "duration": 0.0483,
      "velocity": 127,
      "chip": "ym2612"
    },
    {
      "channel": 1,
      "note": 64,
      "start": 132.7996,
      "duration": 0.1134,
      "velocity": 107,
      "chip": "ym2612"
    },
    {
      "channel": 2,
      "note": 96,
      "start": 132.7999,
      "duration": 0.1132,
      "velocity": 99,
      "chip": "ym2612"
    },
    {
      "channel": 0,
      "note": 40,
      "start": 132.8629,
      "duration": 0.0499,
      "velocity": 127,
      "chip": "ym2612"
    },
    {
      "channel": 0,
      "note": 40,
      "start": 132.9297,
      "duration": 0.0498,
      "velocity": 127,
      "chip": "ym2612"
    },
    {
      "channel": 1,
      "note": 33,
      "start": 132.9314,
      "duration": 0.1148,
      "velocity": 127,
      "chip": "ym2612"
    },
    {
      "channel": 2,
      "note": 100,
      "start": 132.9317,
      "duration": 0.1147,
      "velocity": 99,
      "chip": "ym2612"
    },
    {
      "channel": 0,
      "note": 40,
      "start": 132.9962,
      "duration": 0.0499,
      "velocity": 127,
      "chip": "ym2612"
    },
    {
      "channel": 0,
      "note": 40,
      "start": 133.063,
      "duration": 0.0499,
      "velocity": 127,
      "chip": "ym2612"
    },
    {
      "channel": 1,
      "note": 64,
      "start": 133.0647,
      "duration": 0.115,
      "velocity": 98,
      "chip": "ym2612"
    },
    {
      "channel": 2,
      "note": 98,
      "start": 133.0649,
      "duration": 0.1148,
      "velocity": 99,
      "chip": "ym2612"
    },
    {
      "channel": 0,
      "note": 40,
      "start": 133.1295,
      "duration": 0.0501,
      "velocity": 127,
      "chip": "ym2612"
    },
    {
      "channel": 0,
      "note": 40,
      "start": 133.1963,
      "duration": 0.0499,
      "velocity": 127,
      "chip": "ym2612"
    },
    {
      "channel": 1,
      "note": 57,
      "start": 133.198,
      "duration": 0.115,
      "velocity": 107,
      "chip": "ym2612"
    },
    {
      "channel": 2,
      "note": 96,
      "start": 133.1983,
      "duration": 0.1147,
      "velocity": 99,
      "chip": "ym2612"
    },
    {
      "channel": 0,
      "note": 40,
      "start": 133.263,
      "duration": 0.0499,
      "velocity": 127,
      "chip": "ym2612"
    },
    {
      "channel": 0,
      "note": 40,
      "start": 133.3296,
      "duration": 0.0499,
      "velocity": 127,
      "chip": "ym2612"
    },
    {
      "channel": 1,
      "note": 33,
      "start": 133.3313,
      "duration": 0.1149,
      "velocity": 98,
      "chip": "ym2612"
    },
    {
      "channel": 2,
      "note": 95,
      "start": 133.3315,
      "duration": 0.1148,
      "velocity": 99,
      "chip": "ym2612"
    },
    {
      "channel": 0,
      "note": 40,
      "start": 133.3962,
      "duration": 0.0499,
      "velocity": 127,
      "chip": "ym2612"
    },
    {
      "channel": 0,
      "note": 40,
      "start": 133.463,
      "duration": 0.0498,
      "velocity": 127,
      "chip": "ym2612"
    },
    {
      "channel": 1,
      "note": 57,
      "start": 133.4647,
      "duration": 0.1149,
      "velocity": 127,
      "chip": "ym2612"
    },
    {
      "channel": 2,
      "note": 96,
      "start": 133.4649,
      "duration": 0.1147,
      "velocity": 99,
      "chip": "ym2612"
    },
    {
      "channel": 0,
      "note": 40,
      "start": 133.5296,
      "duration": 0.0499,
      "velocity": 127,
      "chip": "ym2612"
    },
    {
      "channel": 0,
      "note": 40,
      "start": 133.5978,
      "duration": 0.1151,
      "velocity": 88,
      "chip": "ym2612"
    },
    {
      "channel": 1,
      "note": 64,
      "start": 133.5995,
      "duration": 0.1135,
      "velocity": 107,
      "chip": "ym2612"
    },
    {
      "channel": 2,
      "note": 95,
      "start": 133.5997,
      "duration": 0.1133,
      "velocity": 99,
      "chip": "ym2612"
    },
    {
      "channel": 0,
      "note": 60,
      "start": 133.7296,
      "duration": 0.1165,
      "velocity": 88,
      "chip": "ym2612"
    },
    {
      "channel": 1,
      "note": 33,
      "start": 133.7313,
      "duration": 0.1149,
      "velocity": 98,
      "chip": "ym2612"
    },
    {
      "channel": 2,
      "note": 93,
      "start": 133.7315,
      "duration": 0.1148,
      "velocity": 99,
      "chip": "ym2612"
    },
    {
      "channel": 0,
      "note": 59,
      "start": 133.863,
      "duration": 0.1166,
      "velocity": 88,
      "chip": "ym2612"
    },
    {
      "channel": 1,
      "note": 57,
      "start": 133.8647,
      "duration": 0.115,
      "velocity": 127,
      "chip": "ym2612"
    },
    {
      "channel": 2,
      "note": 90,
      "start": 133.8649,
      "duration": 0.1149,
      "velocity": 99,
      "chip": "ym2612"
    },
    {
      "channel": 0,
      "note": 54,
      "start": 133.9963,
      "duration": 0.2499,
      "velocity": 88,
      "chip": "ym2612"
    },
    {
      "channel": 1,
      "note": 64,
      "start": 133.998,
      "duration": 0.1148,
      "velocity": 107,
      "chip": "ym2612"
    },
    {
      "channel": 2,
      "note": 86,
      "start": 133.9983,
      "duration": 0.1147,
      "velocity": 99,
      "chip": "ym2612"
    },
    {
      "channel": 1,
      "note": 33,
      "start": 134.1311,
      "duration": 0.1153,
      "velocity": 98,
      "chip": "ym2612"
    },
    {
      "channel": 2,
      "note": 81,
      "start": 134.1313,
      "duration": 0.1151,
      "velocity": 99,
      "chip": "ym2612"
    },
    {
      "channel": 0,
      "note": 59,
      "start": 134.263,
      "duration": 0.1165,
      "velocity": 88,
      "chip": "ym2612"
    },
    {
      "channel": 1,
      "note": 57,
      "start": 134.2647,
      "duration": 0.115,
      "velocity": 127,
      "chip": "ym2612"
    },
    {
      "channel": 2,
      "note": 83,
      "start": 134.2649,
      "duration": 0.1148,
      "velocity": 99,
      "chip": "ym2612"
    },
    {
      "channel": 0,
      "note": 57,
      "start": 134.398,
      "duration": 0.2482,
      "velocity": 88,
      "chip": "ym2612"
    },
    {
      "channel": 1,
      "note": 64,
      "start": 134.3997,
      "duration": 0.1132,
      "velocity": 107,
      "chip": "ym2612"
    },
    {
      "channel": 2,
      "note": 86,
      "start": 134.3999,
      "duration": 0.2465,
      "velocity": 99,
      "chip": "ym2612"
    },
    {
      "channel": 1,
      "note": 33,
      "start": 134.531,
      "duration": 0.1153,
      "velocity": 98,
      "chip": "ym2612"
    },
    {
      "channel": 0,
      "note": 54,
      "start": 134.6631,
      "duration": 0.2498,
      "velocity": 88,
      "chip": "ym2612"
    },
    {
      "channel": 1,
      "note": 57,
      "start": 134.6648,
      "duration": 0.1148,
      "velocity": 127,
      "chip": "ym2612"
    },
    {
      "channel": 2,
      "note": 90,
      "start": 134.6651,
      "duration": 0.1146,
      "velocity": 99,
      "chip": "ym2612"
    },
    {
      "channel": 1,
      "note": 64,
      "start": 134.7978,
      "duration": 0.1151,
      "velocity": 107,
      "chip": "ym2612"
    },
    {
      "channel": 2,
      "note": 90,
      "start": 134.7981,
      "duration": 0.115,
      "velocity": 99,
      "chip": "ym2612"
    },
    {
      "channel": 0,
      "note": 54,
      "start": 134.9296,
      "duration": 0.2499,
      "velocity": 88,
      "chip": "ym2612"
    },
    {
      "channel": 1,
      "note": 33,
      "start": 134.9313,
      "duration": 0.1149,
      "velocity": 98,
      "chip": "ym2612"
    },
    {
      "channel": 2,
      "note": 88,
      "start": 134.9315,
      "duration": 0.1148,
      "velocity": 99,
      "chip": "ym2612"
    },
    {
      "channel": 1,
      "note": 57,
      "start": 135.0645,
      "duration": 0.1151,
      "velocity": 127,
      "chip": "ym2612"
    },
    {
      "channel": 2,
      "note": 90,
      "start": 135.0647,
      "duration": 0.1149,
      "velocity": 99,
      "chip": "ym2612"
    },
    {
      "channel": 0,
      "note": 54,
      "start": 135.1963,
      "duration": 0.3831,
      "velocity": 88,
      "chip": "ym2612"
    },
    {
      "channel": 1,
      "note": 64,
      "start": 135.1981,
      "duration": 0.1148,
      "velocity": 107,
      "chip": "ym2612"
    },
    {
      "channel": 2,
      "note": 93,
      "start": 135.1983,
      "duration": 0.1146,
      "velocity": 99,
      "chip": "ym2612"
    },
    {
      "channel": 1,
      "note": 33,
      "start": 135.3311,
      "duration": 0.1151,
      "velocity": 98,
      "chip": "ym2612"
    },
    {
      "channel": 2,
      "note": 90,
      "start": 135.3313,
      "duration": 0.115,
      "velocity": 99,
      "chip": "ym2612"
    },
    {
      "channel": 1,
      "note": 57,
      "start": 135.4644,
      "duration": 0.1151,
      "velocity": 127,
      "chip": "ym2612"
    },
    {
      "channel": 2,
      "note": 88,
      "start": 135.4647,
      "duration": 0.115,
      "velocity": 99,
      "chip": "ym2612"
    },
    {
      "channel": 0,
      "note": 57,
      "start": 135.5963,
      "duration": 0.2498,
      "velocity": 88,
      "chip": "ym2612"
    },
    {
      "channel": 1,
      "note": 64,
      "start": 135.598,
      "duration": 0.1148,
      "velocity": 107,
      "chip": "ym2612"
    },
    {
      "channel": 2,
      "note": 95,
      "start": 135.5983,
      "duration": 0.1146,
      "velocity": 99,
      "chip": "ym2612"
    },
    {
      "channel": 1,
      "note": 33,
      "start": 135.7311,
      "duration": 0.1152,
      "velocity": 98,
      "chip": "ym2612"
    },
    {
      "channel": 2,
      "note": 88,
      "start": 135.7313,
      "duration": 0.1151,
      "velocity": 99,
      "chip": "ym2612"
    },
    {
      "channel": 0,
      "note": 59,
      "start": 135.8631,
      "duration": 0.1164,
      "velocity": 88,
      "chip": "ym2612"
    },
    {
      "channel": 1,
      "note": 57,
      "start": 135.8647,
      "duration": 0.1149,
      "velocity": 127,
      "chip": "ym2612"
    },
    {
      "channel": 2,
      "note": 93,
      "start": 135.865,
      "duration": 0.1147,
      "velocity": 99,
      "chip": "ym2612"
    },
    {
      "channel": 0,
      "note": 54,
      "start": 135.9978,
      "duration": 0.0483,
      "velocity": 127,
      "chip": "ym2612"
    },
    {
      "channel": 1,
      "note": 64,
      "start": 135.9995,
      "duration": 0.1134,
      "velocity": 107,
      "chip": "ym2612"
    },
    {
      "channel": 2,
      "note": 88,
      "start": 135.9998,
      "duration": 0.1132,
      "velocity": 99,
      "chip": "ym2612"
    },
    {
      "channel": 0,
      "note": 40,
      "start": 136.063,
      "duration": 0.0499,
      "velocity": 127,
      "chip": "ym2612"
    },
    {
      "channel": 0,
      "note": 40,
      "start": 136.1297,
      "duration": 0.1165,
      "velocity": 127,
      "chip": "ym2612"
    },
    {
      "channel": 1,
      "note": 33,
      "start": 136.1314,
      "duration": 0.1148,
      "velocity": 127,
      "chip": "ym2612"
    },
    {
      "channel": 2,
      "note": 90,
      "start": 136.1317,
      "duration": 0.1147,
      "velocity": 99,
      "chip": "ym2612"
    },
    {
      "channel": 0,
      "note": 40,
      "start": 136.263,
      "duration": 0.1166,
      "velocity": 127,
      "chip": "ym2612"
    },
    {
      "channel": 1,
      "note": 64,
      "start": 136.2647,
      "duration": 0.115,
      "velocity": 98,
      "chip": "ym2612"
    },
    {
      "channel": 2,
      "note": 88,
      "start": 136.2649,
      "duration": 0.1149,
      "velocity": 99,
      "chip": "ym2612"
    },
    {
      "channel": 0,
      "note": 40,
      "start": 136.3963,
      "duration": 0.1166,
      "velocity": 127,
      "chip": "ym2612"
    },
    {
      "channel": 1,
      "note": 57,
      "start": 136.398,
      "duration": 0.115,
      "velocity": 107,
      "chip": "ym2612"
    },
    {
      "channel": 2,
      "note": 93,
      "start": 136.3983,
      "duration": 0.1148,
      "velocity": 99,
      "chip": "ym2612"
    },
    {
      "channel": 0,
      "note": 40,
      "start": 136.5296,
      "duration": 0.1165,
      "velocity": 127,
      "chip": "ym2612"
    },
    {
      "channel": 1,
      "note": 33,
      "start": 136.5313,
      "duration": 0.115,
      "velocity": 98,
      "chip": "ym2612"
    },
    {
      "channel": 2,
      "note": 88,
      "start": 136.5316,
      "duration": 0.1148,
      "velocity": 99,
      "chip": "ym2612"
    },
    {
      "channel": 0,
      "note": 40,
      "start": 136.6631,
      "duration": 0.2497,
      "velocity": 127,
      "chip": "ym2612"
    },
    {
      "channel": 1,
      "note": 57,
      "start": 136.6647,
      "duration": 0.1148,
      "velocity": 127,
      "chip": "ym2612"
    },
    {
      "channel": 2,
      "note": 95,
      "start": 136.665,
      "duration": 0.1146,
      "velocity": 99,
      "chip": "ym2612"
    },
    {
      "channel": 1,
      "note": 64,
      "start": 136.7978,
      "duration": 0.1151,
      "velocity": 107,
      "chip": "ym2612"
    },
    {
      "channel": 2,
      "note": 88,
      "start": 136.798,
      "duration": 0.115,
      "velocity": 99,
      "chip": "ym2612"
    },
    {
      "channel": 0,
      "note": 40,
      "start": 136.9297,
      "duration": 0.2498,
      "velocity": 127,
      "chip": "ym2612"
    },
    {
      "channel": 1,
      "note": 33,
      "start": 136.9313,
      "duration": 0.1148,
      "velocity": 98,
      "chip": "ym2612"
    },
    {
      "channel": 2,
      "note": 93,
      "start": 136.9316,
      "duration": 0.1146,
      "velocity": 99,
      "chip": "ym2612"
    },
    {
      "channel": 1,
      "note": 57,
      "start": 137.0644,
      "duration": 0.1152,
      "velocity": 127,
      "chip": "ym2612"
    },
    {
      "channel": 2,
      "note": 88,
      "start": 137.0647,
      "duration": 0.1151,
      "velocity": 99,
      "chip": "ym2612"
    },
    {
      "channel": 0,
      "note": 45,
      "start": 137.1964,
      "duration": 0.1164,
      "velocity": 127,
      "chip": "ym2612"
    },
    {
      "channel": 1,
      "note": 64,
      "start": 137.1981,
      "duration": 0.1148,
      "velocity": 107,
      "chip": "ym2612"
    },
    {
      "channel": 2,
      "note": 90,
      "start": 137.1983,
      "duration": 0.1147,
      "velocity": 99,
      "chip": "ym2612"
    },
    {
      "channel": 0,
      "note": 45,
      "start": 137.3297,
      "duration": 0.1166,
      "velocity": 127,
      "chip": "ym2612"
    },
    {
      "channel": 1,
      "note": 33,
      "start": 137.3314,
      "duration": 0.1149,
      "velocity": 98,
      "chip": "ym2612"
    },
    {
      "channel": 2,
      "note": 88,
      "start": 137.3317,
      "duration": 0.1148,
      "velocity": 99,
      "chip": "ym2612"
    },
    {
      "channel": 0,
      "note": 45,
      "start": 137.463,
      "duration": 0.1165,
      "velocity": 127,
      "chip": "ym2612"
    },
    {
      "channel": 1,
      "note": 57,
      "start": 137.4647,
      "duration": 0.1149,
      "velocity": 127,
      "chip": "ym2612"
    },
    {
      "channel": 2,
      "note": 93,
      "start": 137.4649,
      "duration": 0.1147,
      "velocity": 99,
      "chip": "ym2612"
    },
    {
      "channel": 0,
      "note": 40,
      "start": 137.598,
      "duration": 0.2482,
      "velocity": 88,
      "chip": "ym2612"
    },
    {
      "channel": 1,
      "note": 64,
      "start": 137.5996,
      "duration": 0.1133,
      "velocity": 107,
      "chip": "ym2612"
    },
    {
      "channel": 2,
      "note": 88,
      "start": 137.5999,
      "duration": 0.1132,
      "velocity": 99,
      "chip": "ym2612"
    },
    {
      "channel": 1,
      "note": 33,
      "start": 137.7312,
      "duration": 0.1151,
      "velocity": 98,
      "chip": "ym2612"
    },
    {
      "channel": 2,
      "note": 95,
      "start": 137.7314,
      "duration": 0.1149,
      "velocity": 99,
      "chip": "ym2612"
    },
    {
      "channel": 0,
      "note": 50,
      "start": 137.863,
      "duration": 0.2498,
      "velocity": 88,
      "chip": "ym2612"
    },
    {
      "channel": 1,
      "note": 57,
      "start": 137.8647,
      "duration": 0.1148,
      "velocity": 127,
      "chip": "ym2612"
    },
    {
      "channel": 2,
      "note": 88,
      "start": 137.865,
      "duration": 0.1146,
      "velocity": 99,
      "chip": "ym2612"
    },
    {
      "channel": 1,
      "note": 64,
      "start": 137.9978,
      "duration": 0.1151,
      "velocity": 107,
      "chip": "ym2612"
    },
    {
      "channel": 2,
      "note": 96,
      "start": 137.998,
      "duration": 0.115,
      "velocity": 99,
      "chip": "ym2612"
    },
    {
      "channel": 0,
      "note": 50,
      "start": 138.1297,
      "duration": 0.2498,
      "velocity": 88,
      "chip": "ym2612"
    },
    {
      "channel": 1,
      "note": 33,
      "start": 138.1313,
      "duration": 0.1148,
      "velocity": 98,
      "chip": "ym2612"
    },
    {
      "channel": 2,
      "note": 88,
      "start": 138.1316,
      "duration": 0.1147,
      "velocity": 99,
      "chip": "ym2612"
    },
    {
      "channel": 1,
      "note": 57,
      "start": 138.2644,
      "duration": 0.1151,
      "velocity": 127,
      "chip": "ym2612"
    },
    {
      "channel": 2,
      "note": 95,
      "start": 138.2647,
      "duration": 0.115,
      "velocity": 99,
      "chip": "ym2612"
    },
    {
      "channel": 0,
      "note": 50,
      "start": 138.3963,
      "duration": 0.3832,
      "velocity": 88,
      "chip": "ym2612"
    },
    {
      "channel": 1,
      "note": 64,
      "start": 138.398,
      "duration": 0.115,
      "velocity": 107,
      "chip": "ym2612"
    },
    {
      "channel": 2,
      "note": 88,
      "start": 138.3983,
      "duration": 0.1147,
      "velocity": 99,
      "chip": "ym2612"
    },
    {
      "channel": 1,
      "note": 33,
      "start": 138.5311,
      "duration": 0.1151,
      "velocity": 98,
      "chip": "ym2612"
    },
    {
      "channel": 2,
      "note": 93,
      "start": 138.5313,
      "duration": 0.115,
      "velocity": 99,
      "chip": "ym2612"
    },
    {
      "channel": 1,
      "note": 57,
      "start": 138.6645,
      "duration": 0.1151,
      "velocity": 127,
      "chip": "ym2612"
    },
    {
      "channel": 2,
      "note": 88,
      "start": 138.6647,
      "duration": 0.1149,
      "velocity": 99,
      "chip": "ym2612"
    },
    {
      "channel": 0,
      "note": 50,
      "start": 138.7963,
      "duration": 0.2498,
      "velocity": 88,
      "chip": "ym2612"
    },
    {
      "channel": 1,
      "note": 64,
      "start": 138.7981,
      "duration": 0.1148,
      "velocity": 107,
      "chip": "ym2612"
    },
    {
      "channel": 2,
      "note": 93,
      "start": 138.7983,
      "duration": 0.1147,
      "velocity": 99,
      "chip": "ym2612"
    },
    {
      "channel": 1,
      "note": 33,
      "start": 138.9312,
      "duration": 0.1151,
      "velocity": 98,
      "chip": "ym2612"
    },
    {
      "channel": 2,
      "note": 88,
      "start": 138.9314,
      "duration": 0.1149,
      "velocity": 99,
      "chip": "ym2612"
    },
    {
      "channel": 0,
      "note": 48,
      "start": 139.063,
      "duration": 0.1164,
      "velocity": 88,
      "chip": "ym2612"
    },
    {
      "channel": 1,
      "note": 57,
      "start": 139.0647,
      "duration": 0.1148,
      "velocity": 127,
      "chip": "ym2612"
    },
    {
      "channel": 2,
      "note": 95,
      "start": 139.065,
      "duration": 0.1147,
      "velocity": 99,
      "chip": "ym2612"
    },
    {
      "channel": 0,
      "note": 50,
      "start": 139.1979,
      "duration": 0.0483,
      "velocity": 127,
      "chip": "ym2612"
    },
    {
      "channel": 1,
      "note": 64,
      "start": 139.1996,
      "duration": 0.1133,
      "velocity": 107,
      "chip": "ym2612"
    },
    {
      "channel": 2,
      "note": 88,
      "start": 139.1999,
      "duration": 0.1132,
      "velocity": 99,
      "chip": "ym2612"
    },
    {
      "channel": 0,
      "note": 40,
      "start": 139.2629,
      "duration": 0.0499,
      "velocity": 127,
      "chip": "ym2612"
    },
    {
      "channel": 0,
      "note": 40,
      "start": 139.3297,
      "duration": 0.1164,
      "velocity": 127,
      "chip": "ym2612"
    },
    {
      "channel": 1,
      "note": 33,
      "start": 139.3313,
      "duration": 0.1149,
      "velocity": 127,
      "chip": "ym2612"
    },
    {
      "channel": 2,
      "note": 98,
      "start": 139.3316,
      "duration": 0.1147,
      "velocity": 99,
      "chip": "ym2612"
    },
    {
      "channel": 0,
      "note": 40,
      "start": 139.463,
      "duration": 0.1164,
      "velocity": 127,
      "chip": "ym2612"
    },
    {
      "channel": 1,
      "note": 64,
      "start": 139.4647,
      "duration": 0.1149,
      "velocity": 98,
      "chip": "ym2612"
    },
    {
      "channel": 2,
      "note": 88,
      "start": 139.4649,
      "duration": 0.1147,
      "velocity": 99,
      "chip": "ym2612"
    },
    {
      "channel": 0,
      "note": 40,
      "start": 139.5963,
      "duration": 0.1166,
      "velocity": 127,
      "chip": "ym2612"
    },
    {
      "channel": 1,
      "note": 57,
      "start": 139.598,
      "duration": 0.115,
      "velocity": 107,
      "chip": "ym2612"
    },
    {
      "channel": 2,
      "note": 95,
      "start": 139.5983,
      "duration": 0.1149,
      "velocity": 99,
      "chip": "ym2612"
    },
    {
      "channel": 0,
      "note": 40,
      "start": 139.7296,
      "duration": 0.0499,
      "velocity": 127,
      "chip": "ym2612"
    },
    {
      "channel": 1,
      "note": 33,
      "start": 139.7313,
      "duration": 0.115,
      "velocity": 98,
      "chip": "ym2612"
    },
    {
      "channel": 2,
      "note": 88,
      "start": 139.7316,
      "duration": 0.1149,
      "velocity": 99,
      "chip": "ym2612"
    },
    {
      "channel": 0,
      "note": 40,
      "start": 139.7962,
      "duration": 0.0501,
      "velocity": 127,
      "chip": "ym2612"
    },
    {
      "channel": 0,
      "note": 40,
      "start": 139.863,
      "duration": 0.1165,
      "velocity": 127,
      "chip": "ym2612"
    },
    {
      "channel": 1,
      "note": 57,
      "start": 139.8647,
      "duration": 0.115,
      "velocity": 127,
      "chip": "ym2612"
    },
    {
      "channel": 2,
      "note": 93,
      "start": 139.8649,
      "duration": 0.1148,
      "velocity": 99,
      "chip": "ym2612"
    },
    {
      "channel": 0,
      "note": 40,
      "start": 139.9962,
      "duration": 0.1166,
      "velocity": 127,
      "chip": "ym2612"
    },
    {
      "channel": 1,
      "note": 64,
      "start": 139.998,
      "duration": 0.115,
      "velocity": 107,
      "chip": "ym2612"
    },
    {
      "channel": 2,
      "note": 88,
      "start": 139.9982,
      "duration": 0.1148,
      "velocity": 99,
      "chip": "ym2612"
    },
    {
      "channel": 0,
      "note": 45,
      "start": 140.1296,
      "duration": 0.1165,
      "velocity": 127,
      "chip": "ym2612"
    },
    {
      "channel": 1,
      "note": 33,
      "start": 140.1313,
      "duration": 0.1149,
      "velocity": 98,
      "chip": "ym2612"
    },
    {
      "channel": 2,
      "note": 96,
      "start": 140.1315,
      "duration": 0.1148,
      "velocity": 99,
      "chip": "ym2612"
    },
    {
      "channel": 0,
      "note": 45,
      "start": 140.263,
      "duration": 0.1166,
      "velocity": 127,
      "chip": "ym2612"
    },
    {
      "channel": 1,
      "note": 57,
      "start": 140.2647,
      "duration": 0.115,
      "velocity": 127,
      "chip": "ym2612"
    },
    {
      "channel": 2,
      "note": 88,
      "start": 140.2649,
      "duration": 0.1149,
      "velocity": 99,
      "chip": "ym2612"
    },
    {
      "channel": 0,
      "note": 45,
      "start": 140.3963,
      "duration": 0.1166,
      "velocity": 127,
      "chip": "ym2612"
    },
    {
      "channel": 1,
      "note": 64,
      "start": 140.398,
      "duration": 0.115,
      "velocity": 107,
      "chip": "ym2612"
    },
    {
      "channel": 2,
      "note": 98,
      "start": 140.3983,
      "duration": 0.1148,
      "velocity": 99,
      "chip": "ym2612"
    },
    {
      "channel": 0,
      "note": 45,
      "start": 140.5296,
      "duration": 0.1165,
      "velocity": 127,
      "chip": "ym2612"
    },
    {
      "channel": 1,
      "note": 33,
      "start": 140.5313,
      "duration": 0.115,
      "velocity": 98,
      "chip": "ym2612"
    },
    {
      "channel": 2,
      "note": 88,
      "start": 140.5316,
      "duration": 0.1148,
      "velocity": 99,
      "chip": "ym2612"
    },
    {
      "channel": 0,
      "note": 45,
      "start": 140.6629,
      "duration": 0.1166,
      "velocity": 127,
      "chip": "ym2612"
    },
    {
      "channel": 1,
      "note": 57,
      "start": 140.6646,
      "duration": 0.115,
      "velocity": 127,
      "chip": "ym2612"
    },
    {
      "channel": 2,
      "note": 96,
      "start": 140.6649,
      "duration": 0.1149,
      "velocity": 99,
      "chip": "ym2612"
    },
    {
      "channel": 0,
      "note": 45,
      "start": 140.7978,
      "duration": 0.2483,
      "velocity": 88,
      "chip": "ym2612"
    },
    {
      "channel": 1,
      "note": 64,
      "start": 140.7995,
      "duration": 0.1133,
      "velocity": 107,
      "chip": "ym2612"
    },
    {
      "channel": 2,
      "note": 88,
      "start": 140.7998,
      "duration": 0.1132,
      "velocity": 99,
      "chip": "ym2612"
    },
    {
      "channel": 1,
      "note": 33,
      "start": 140.9311,
      "duration": 0.1151,
      "velocity": 98,
      "chip": "ym2612"
    },
    {
      "channel": 2,
      "note": 97,
      "start": 140.9313,
      "duration": 0.115,
      "velocity": 99,
      "chip": "ym2612"
    },
    {
      "channel": 0,
      "note": 54,
      "start": 141.063,
      "duration": 0.2498,
      "velocity": 88,
      "chip": "ym2612"
    },
    {
      "channel": 1,
      "note": 57,
      "start": 141.0647,
      "duration": 0.115,
      "velocity": 127,
      "chip": "ym2612"
    },
    {
      "channel": 2,
      "note": 88,
      "start": 141.0649,
      "duration": 0.1148,
      "velocity": 99,
      "chip": "ym2612"
    },
    {
      "channel": 1,
      "note": 64,
      "start": 141.1978,
      "duration": 0.1152,
      "velocity": 107,
      "chip": "ym2612"
    },
    {
      "channel": 2,
      "note": 95,
      "start": 141.198,
      "duration": 0.1151,
      "velocity": 99,
      "chip": "ym2612"
    },
    {
      "channel": 0,
      "note": 54,
      "start": 141.3296,
      "duration": 0.2499,
      "velocity": 88,
      "chip": "ym2612"
    },
    {
      "channel": 1,
      "note": 33,
      "start": 141.3313,
      "duration": 0.1149,
      "velocity": 98,
      "chip": "ym2612"
    },
    {
      "channel": 2,
      "note": 93,
      "start": 141.3315,
      "duration": 0.1148,
      "velocity": 99,
      "chip": "ym2612"
    },
    {
      "channel": 1,
      "note": 57,
      "start": 141.4645,
      "duration": 0.1151,
      "velocity": 127,
      "chip": "ym2612"
    },
    {
      "channel": 2,
      "note": 90,
      "start": 141.4647,
      "duration": 0.1149,
      "velocity": 99,
      "chip": "ym2612"
    },
    {
      "channel": 0,
      "note": 54,
      "start": 141.5963,
      "duration": 0.3832,
      "velocity": 88,
      "chip": "ym2612"
    },
    {
      "channel": 1,
      "note": 64,
      "start": 141.5981,
      "duration": 0.1148,
      "velocity": 107,
      "chip": "ym2612"
    },
    {
      "channel": 2,
      "note": 93,
      "start": 141.5983,
      "duration": 0.248,
      "velocity": 99,
      "chip": "ym2612"
    },
    {
      "channel": 1,
      "note": 33,
      "start": 141.731,
      "duration": 0.1152,
      "velocity": 98,
      "chip": "ym2612"
    },
    {
      "channel": 1,
      "note": 57,
      "start": 141.8645,
      "duration": 0.1151,
      "velocity": 127,
      "chip": "ym2612"
    },
    {
      "channel": 2,
      "note": 90,
      "start": 141.8647,
      "duration": 0.1149,
      "velocity": 99,
      "chip": "ym2612"
    },
    {
      "channel": 0,
      "note": 57,
      "start": 141.9963,
      "duration": 0.2499,
      "velocity": 88,
      "chip": "ym2612"
    },
    {
      "channel": 1,
      "note": 64,
      "start": 141.9981,
      "duration": 0.1148,
      "velocity": 107,
      "chip": "ym2612"
    },
    {
      "channel": 2,
      "note": 88,
      "start": 141.9983,
      "duration": 0.1146,
      "velocity": 99,
      "chip": "ym2612"
    },
    {
      "channel": 1,
      "note": 33,
      "start": 142.1311,
      "duration": 0.1153,
      "velocity": 98,
      "chip": "ym2612"
    },
    {
      "channel": 2,
      "note": 90,
      "start": 142.1313,
      "duration": 0.1151,
      "velocity": 99,
      "chip": "ym2612"
    },
    {
      "channel": 0,
      "note": 59,
      "start": 142.263,
      "duration": 0.1165,
      "velocity": 88,
      "chip": "ym2612"
    },
    {
      "channel": 1,
      "note": 57,
      "start": 142.2647,
      "duration": 0.115,
      "velocity": 127,
      "chip": "ym2612"
    },
    {
      "channel": 2,
      "note": 90,
      "start": 142.2649,
      "duration": 0.1148,
      "velocity": 99,
      "chip": "ym2612"
    },
    {
      "channel": 0,
      "note": 54,
      "start": 142.3978,
      "duration": 0.1151,
      "velocity": 127,
      "chip": "ym2612"
    },
    {
      "channel": 1,
      "note": 64,
      "start": 142.3995,
      "duration": 0.1135,
      "velocity": 107,
      "chip": "ym2612"
    },
    {
      "channel": 2,
      "note": 88,
      "start": 142.3998,
      "duration": 0.1133,
      "velocity": 99,
      "chip": "ym2612"
    },
    {
      "channel": 0,
      "note": 40,
      "start": 142.5296,
      "duration": 0.0499,
      "velocity": 127,
      "chip": "ym2612"
    },
    {
      "channel": 1,
      "note": 33,
      "start": 142.5313,
      "duration": 0.115,
      "velocity": 127,
      "chip": "ym2612"
    },
    {
      "channel": 2,
      "note": 90,
      "start": 142.5316,
      "duration": 0.1147,
      "velocity": 99,
      "chip": "ym2612"
    },
    {
      "channel": 0,
      "note": 40,
      "start": 142.5963,
      "duration": 0.0499,
      "velocity": 127,
      "chip": "ym2612"
    },
    {
      "channel": 0,
      "note": 40,
      "start": 142.663,
      "duration": 0.1165,
      "velocity": 127,
      "chip": "ym2612"
    },
    {
      "channel": 1,
      "note": 64,
      "start": 142.6647,
      "duration": 0.1148,
      "velocity": 98,
      "chip": "ym2612"
    },
    {
      "channel": 2,
      "note": 93,
      "start": 142.665,
      "duration": 0.1147,
      "velocity": 99,
      "chip": "ym2612"
    },
    {
      "channel": 0,
      "note": 40,
      "start": 142.7963,
      "duration": 0.1166,
      "velocity": 127,
      "chip": "ym2612"
    },
    {
      "channel": 1,
      "note": 57,
      "start": 142.7981,
      "duration": 0.1149,
      "velocity": 107,
      "chip": "ym2612"
    },
    {
      "channel": 2,
      "note": 97,
      "start": 142.7983,
      "duration": 0.1148,
      "velocity": 99,
      "chip": "ym2612"
    },
    {
      "channel": 0,
      "note": 45,
      "start": 142.9296,
      "duration": 0.0499,
      "velocity": 127,
      "chip": "ym2612"
    },
    {
      "channel": 1,
      "note": 33,
      "start": 142.9313,
      "duration": 0.115,
      "velocity": 98,
      "chip": "ym2612"
    },
    {
      "channel": 2,
      "note": 93,
      "start": 142.9316,
      "duration": 0.1148,
      "velocity": 99,
      "chip": "ym2612"
    },
    {
      "channel": 0,
      "note": 45,
      "start": 142.9963,
      "duration": 0.0499,
      "velocity": 127,
      "chip": "ym2612"
    },
    {
      "channel": 0,
      "note": 45,
      "start": 143.0631,
      "duration": 0.1163,
      "velocity": 127,
      "chip": "ym2612"
    },
    {
      "channel": 1,
      "note": 57,
      "start": 143.0647,
      "duration": 0.1148,
      "velocity": 127,
      "chip": "ym2612"
    },
    {
      "channel": 2,
      "note": 97,
      "start": 143.065,
      "duration": 0.1147,
      "velocity": 99,
      "chip": "ym2612"
    },
    {
      "channel": 0,
      "note": 45,
      "start": 143.1963,
      "duration": 0.1164,
      "velocity": 127,
      "chip": "ym2612"
    },
    {
      "channel": 1,
      "note": 64,
      "start": 143.198,
      "duration": 0.1149,
      "velocity": 107,
      "chip": "ym2612"
    },
    {
      "channel": 2,
      "note": 100,
      "start": 143.1983,
      "duration": 0.1147,
      "velocity": 99,
      "chip": "ym2612"
    },
    {
      "channel": 0,
      "note": 40,
      "start": 143.3297,
      "duration": 0.0499,
      "velocity": 127,
      "chip": "ym2612"
    },
    {
      "channel": 1,
      "note": 33,
      "start": 143.3313,
      "duration": 0.115,
      "velocity": 98,
      "chip": "ym2612"
    },
    {
      "channel": 2,
      "note": 97,
      "start": 143.3316,
      "duration": 0.1148,
      "velocity": 99,
      "chip": "ym2612"
    },
    {
      "channel": 0,
      "note": 40,
      "start": 143.3962,
      "duration": 0.0501,
      "velocity": 127,
      "chip": "ym2612"
    },
    {
      "channel": 0,
      "note": 40,
      "start": 143.463,
      "duration": 0.1165,
      "velocity": 127,
      "chip": "ym2612"
    },
    {
      "channel": 1,
      "note": 57,
      "start": 143.4647,
      "duration": 0.115,
      "velocity": 127,
      "chip": "ym2612"
    },
    {
      "channel": 2,
      "note": 102,
      "start": 143.4649,
      "duration": 0.1147,
      "velocity": 99,
      "chip": "ym2612"
    },
    {
      "channel": 0,
      "note": 40,
      "start": 143.5962,
      "duration": 0.1165,
      "velocity": 127,
      "chip": "ym2612"
    },
    {
      "channel": 1,
      "note": 64,
      "start": 143.598,
      "duration": 0.1149,
      "velocity": 107,
      "chip": "ym2612"
    },
    {
      "channel": 2,
      "note": 105,
      "start": 143.5982,
      "duration": 0.1148,
      "velocity": 99,
      "chip": "ym2612"
    },
    {
      "channel": 0,
      "note": 45,
      "start": 143.7297,
      "duration": 0.0499,
      "velocity": 127,
      "chip": "ym2612"
    },
    {
      "channel": 1,
      "note": 33,
      "start": 143.7313,
      "duration": 0.115,
      "velocity": 98,
      "chip": "ym2612"
    },
    {
      "channel": 2,
      "note": 102,
      "start": 143.7316,
      "duration": 0.1149,
      "velocity": 99,
      "chip": "ym2612"
    },
    {
      "channel": 0,
      "note": 45,
      "start": 143.7962,
      "duration": 0.0501,
      "velocity": 127,
      "chip": "ym2612"
    },
    {
      "channel": 0,
      "note": 45,
      "start": 143.863,
      "duration": 0.1165,
      "velocity": 127,
      "chip": "ym2612"
    },
    {
      "channel": 1,
      "note": 57,
      "start": 143.8647,
      "duration": 0.115,
      "velocity": 127,
      "chip": "ym2612"
    },
    {
      "channel": 2,
      "note": 105,
      "start": 143.8649,
      "duration": 0.1148,
      "velocity": 99,
      "chip": "ym2612"
    },
    {
      "channel": 0,
      "note": 45,
      "start": 143.998,
      "duration": 0.2482,
      "velocity": 88,
      "chip": "ym2612"
    },
    {
      "channel": 1,
      "note": 64,
      "start": 143.9997,
      "duration": 0.1132,
      "velocity": 107,
      "chip": "ym2612"
    },
    {
      "channel": 2,
      "note": 107,
      "start": 143.9999,
      "duration": 0.2465,
      "velocity": 99,
      "chip": "ym2612"
    },
    {
      "channel": 1,
      "note": 33,
      "start": 144.131,
      "duration": 0.1153,
      "velocity": 98,
      "chip": "ym2612"
    },
    {
      "channel": 0,
      "note": 50,
      "start": 144.2631,
      "duration": 0.2498,
      "velocity": 88,
      "chip": "ym2612"
    },
    {
      "channel": 1,
      "note": 57,
      "start": 144.2647,
      "duration": 0.1148,
      "velocity": 127,
      "chip": "ym2612"
    },
    {
      "channel": 2,
      "note": 108,
      "start": 144.265,
      "duration": 0.1147,
      "velocity": 99,
      "chip": "ym2612"
    },
    {
      "channel": 1,
      "note": 64,
      "start": 144.3978,
      "duration": 0.1151,
      "velocity": 107,
      "chip": "ym2612"
    },
    {
      "channel": 2,
      "note": 108,
      "start": 144.3981,
      "duration": 0.1149,
      "velocity": 99,
      "chip": "ym2612"
    },
    {
      "channel": 0,
      "note": 50,
      "start": 144.5297,
      "duration": 0.2498,
      "velocity": 88,
      "chip": "ym2612"
    },
    {
      "channel": 1,
      "note": 33,
      "start": 144.5314,
      "duration": 0.1148,
      "velocity": 98,
      "chip": "ym2612"
    },
    {
      "channel": 2,
      "note": 107,
      "start": 144.5317,
      "duration": 0.1147,
      "velocity": 99,
      "chip": "ym2612"
    },
    {
      "channel": 1,
      "note": 57,
      "start": 144.6645,
      "duration": 0.1151,
      "velocity": 127,
      "chip": "ym2612"
    },
    {
      "channel": 2,
      "note": 105,
      "start": 144.6647,
      "duration": 0.1149,
      "velocity": 99,
      "chip": "ym2612"
    },
    {
      "channel": 0,
      "note": 50,
      "start": 144.7963,
      "duration": 0.3831,
      "velocity": 88,
      "chip": "ym2612"
    },
    {
      "channel": 1,
      "note": 64,
      "start": 144.7981,
      "duration": 0.1148,
      "velocity": 107,
      "chip": "ym2612"
    },
    {
      "channel": 2,
      "note": 102,
      "start": 144.7983,
      "duration": 0.1146,
      "velocity": 99,
      "chip": "ym2612"
    },
    {
      "channel": 1,
      "note": 33,
      "start": 144.9311,
      "duration": 0.1151,
      "velocity": 98,
      "chip": "ym2612"
    },
    {
      "channel": 2,
      "note": 105,
      "start": 144.9313,
      "duration": 0.115,
      "velocity": 99,
      "chip": "ym2612"
    },
    {
      "channel": 1,
      "note": 57,
      "start": 145.0644,
      "duration": 0.1151,
      "velocity": 127,
      "chip": "ym2612"
    },
    {
      "channel": 2,
      "note": 102,
      "start": 145.0647,
      "duration": 0.115,
      "velocity": 99,
      "chip": "ym2612"
    },
    {
      "channel": 0,
      "note": 50,
      "start": 145.1963,
      "duration": 0.2499,
      "velocity": 88,
      "chip": "ym2612"
    },
    {
      "channel": 1,
      "note": 64,
      "start": 145.198,
      "duration": 0.115,
      "velocity": 107,
      "chip": "ym2612"
    },
    {
      "channel": 2,
      "note": 100,
      "start": 145.1983,
      "duration": 0.1148,
      "velocity": 99,
      "chip": "ym2612"
    },
    {
      "channel": 1,
      "note": 33,
      "start": 145.3311,
      "duration": 0.1152,
      "velocity": 98,
      "chip": "ym2612"
    },
    {
      "channel": 2,
      "note": 102,
      "start": 145.3313,
      "duration": 0.1151,
      "velocity": 99,
      "chip": "ym2612"
    },
    {
      "channel": 0,
      "note": 48,
      "start": 145.4631,
      "duration": 0.1164,
      "velocity": 88,
      "chip": "ym2612"
    },
    {
      "channel": 1,
      "note": 57,
      "start": 145.4647,
      "duration": 0.1149,
      "velocity": 127,
      "chip": "ym2612"
    },
    {
      "channel": 2,
      "note": 100,
      "start": 145.465,
      "duration": 0.1148,
      "velocity": 99,
      "chip": "ym2612"
    },
    {
      "channel": 0,
      "note": 50,
      "start": 145.5978,
      "duration": 0.0484,
      "velocity": 127,
      "chip": "ym2612"
    },
    {
      "channel": 1,
      "note": 64,
      "start": 145.5995,
      "duration": 0.1135,
      "velocity": 107,
      "chip": "ym2612"
    },
    {
      "channel": 2,
      "note": 97,
      "start": 145.5998,
      "duration": 0.1134,
      "velocity": 99,
      "chip": "ym2612"
    },
    {
      "channel": 0,
      "note": 40,
      "start": 145.6628,
      "duration": 0.0501,
      "velocity": 127,
      "chip": "ym2612"
    },
    {
      "channel": 0,
      "note": 40,
      "start": 145.7297,
      "duration": 0.0499,
      "velocity": 127,
      "chip": "ym2612"
    },
    {
      "channel": 1,
      "note": 33,
      "start": 145.7313,
      "duration": 0.115,
      "velocity": 127,
      "chip": "ym2612"
    },
    {
      "channel": 2,
      "note": 100,
      "start": 145.7316,
      "duration": 0.1149,
      "velocity": 99,
      "chip": "ym2612"
    },
    {
      "channel": 0,
      "note": 40,
      "start": 145.7962,
      "duration": 0.0501,
      "velocity": 127,
      "chip": "ym2612"
    },
    {
      "channel": 0,
      "note": 40,
      "start": 145.863,
      "duration": 0.0499,
      "velocity": 127,
      "chip": "ym2612"
    },
    {
      "channel": 1,
      "note": 64,
      "start": 145.8647,
      "duration": 0.115,
      "velocity": 98,
      "chip": "ym2612"
    },
    {
      "channel": 2,
      "note": 102,
      "start": 145.8649,
      "duration": 0.1148,
      "velocity": 99,
      "chip": "ym2612"
    },
    {
      "channel": 0,
      "note": 40,
      "start": 145.9296,
      "duration": 0.0499,
      "velocity": 127,
      "chip": "ym2612"
    },
    {
      "channel": 0,
      "note": 40,
      "start": 145.9963,
      "duration": 0.0499,
      "velocity": 127,
      "chip": "ym2612"
    },
    {
      "channel": 1,
      "note": 57,
      "start": 145.998,
      "duration": 0.1149,
      "velocity": 107,
      "chip": "ym2612"
    },
    {
      "channel": 2,
      "note": 105,
      "start": 145.9982,
      "duration": 0.1148,
      "velocity": 99,
      "chip": "ym2612"
    },
    {
      "channel": 0,
      "note": 40,
      "start": 146.0629,
      "duration": 0.0499,
      "velocity": 127,
      "chip": "ym2612"
    },
    {
      "channel": 0,
      "note": 40,
      "start": 146.1297,
      "duration": 0.0498,
      "velocity": 127,
      "chip": "ym2612"
    },
    {
      "channel": 1,
      "note": 33,
      "start": 146.1314,
      "duration": 0.1148,
      "velocity": 98,
      "chip": "ym2612"
    },
    {
      "channel": 2,
      "note": 107,
      "start": 146.1317,
      "duration": 0.1147,
      "velocity": 99,
      "chip": "ym2612"
    },
    {
      "channel": 0,
      "note": 40,
      "start": 146.1962,
      "duration": 0.0499,
      "velocity": 127,
      "chip": "ym2612"
    },
    {
      "channel": 0,
      "note": 40,
      "start": 146.263,
      "duration": 0.0499,
      "velocity": 127,
      "chip": "ym2612"
    },
    {
      "channel": 1,
      "note": 57,
      "start": 146.2647,
      "duration": 0.115,
      "velocity": 127,
      "chip": "ym2612"
    },
    {
      "channel": 2,
      "note": 108,
      "start": 146.2649,
      "duration": 0.1148,
      "velocity": 99,
      "chip": "ym2612"
    },
    {
      "channel": 0,
      "note": 40,
      "start": 146.3295,
      "duration": 0.0501,
      "velocity": 127,
      "chip": "ym2612"
    },
    {
      "channel": 0,
      "note": 40,
      "start": 146.3979,
      "duration": 0.115,
      "velocity": 88,
      "chip": "ym2612"
    },
    {
      "channel": 1,
      "note": 64,
      "start": 146.3996,
      "duration": 0.1134,
      "velocity": 107,
      "chip": "ym2612"
    },
    {
      "channel": 2,
      "note": 112,
      "start": 146.3999,
      "duration": 0.1133,
      "velocity": 99,
      "chip": "ym2612"
    },
    {
      "channel": 0,
      "note": 60,
      "start": 146.5296,
      "duration": 0.1166,
      "velocity": 88,
      "chip": "ym2612"
    },
    {
      "channel": 1,
      "note": 33,
      "start": 146.5313,
      "duration": 0.115,
      "velocity": 98,
      "chip": "ym2612"
    },
    {
      "channel": 2,
      "note": 114,
      "start": 146.5316,
      "duration": 0.1149,
      "velocity": 99,
      "chip": "ym2612"
    },
    {
      "channel": 0,
      "note": 59,
      "start": 146.663,
      "duration": 0.1165,
      "velocity": 88,
      "chip": "ym2612"
    },
    {
      "channel": 1,
      "note": 57,
      "start": 146.6647,
      "duration": 0.1149,
      "velocity": 127,
      "chip": "ym2612"
    },
    {
      "channel": 2,
      "note": 112,
      "start": 146.6649,
      "duration": 0.1147,
      "velocity": 99,
      "chip": "ym2612"
    },
    {
      "channel": 0,
      "note": 54,
      "start": 146.7963,
      "duration": 0.2498,
      "velocity": 88,
      "chip": "ym2612"
    },
    {
      "channel": 1,
      "note": 64,
      "start": 146.798,
      "duration": 0.115,
      "velocity": 107,
      "chip": "ym2612"
    },
    {
      "channel": 2,
      "note": 114,
      "start": 146.7983,
      "duration": 0.1147,
      "velocity": 99,
      "chip": "ym2612"
    },
    {
      "channel": 1,
      "note": 33,
      "start": 146.9311,
      "duration": 0.1152,
      "velocity": 98,
      "chip": "ym2612"
    },
    {
      "channel": 2,
      "note": 112,
      "start": 146.9313,
      "duration": 0.1151,
      "velocity": 99,
      "chip": "ym2612"
    },
    {
      "channel": 0,
      "note": 59,
      "start": 147.0631,
      "duration": 0.1163,
      "velocity": 88,
      "chip": "ym2612"
    },
    {
      "channel": 1,
      "note": 57,
      "start": 147.0647,
      "duration": 0.1148,
      "velocity": 127,
      "chip": "ym2612"
    },
    {
      "channel": 2,
      "note": 114,
      "start": 147.065,
      "duration": 0.1146,
      "velocity": 99,
      "chip": "ym2612"
    },
    {
      "channel": 0,
      "note": 57,
      "start": 147.1982,
      "duration": 0.1147,
      "velocity": 102,
      "chip": "ym2612"
    },
    {
      "channel": 1,
      "note": 64,
      "start": 147.1999,
      "duration": 0.113,
      "velocity": 88,
      "chip": "ym2612"
    },
    {
      "channel": 2,
      "note": 121,
      "start": 147.2016,
      "duration": 0.1115,
      "velocity": 102,
      "chip": "ym2612"
    },
    {
      "channel": 0,
      "note": 102,
      "start": 147.3296,
      "duration": 0.1165,
      "velocity": 102,
      "chip": "ym2612"
    },
    {
      "channel": 1,
      "note": 69,
      "start": 147.3299,
      "duration": 0.1163,
      "velocity": 88,
      "chip": "ym2612"
    },
    {
      "channel": 2,
      "note": 109,
      "start": 147.3301,
      "duration": 0.1162,
      "velocity": 102,
      "chip": "ym2612"
    },
    {
      "channel": 0,
      "note": 102,
      "start": 147.463,
      "duration": 0.1166,
      "velocity": 102,
      "chip": "ym2612"
    },
    {
      "channel": 1,
      "note": 69,
      "start": 147.4633,
      "duration": 0.1164,
      "velocity": 88,
      "chip": "ym2612"
    },
    {
      "channel": 2,
      "note": 107,
      "start": 147.4635,
      "duration": 0.1162,
      "velocity": 102,
      "chip": "ym2612"
    },
    {
      "channel": 0,
      "note": 100,
      "start": 147.5963,
      "duration": 0.1166,
      "velocity": 102,
      "chip": "ym2612"
    },
    {
      "channel": 1,
      "note": 66,
      "start": 147.5966,
      "duration": 0.1165,
      "velocity": 88,
      "chip": "ym2612"
    },
    {
      "channel": 2,
      "note": 105,
      "start": 147.5968,
      "duration": 0.1163,
      "velocity": 102,
      "chip": "ym2612"
    },
    {
      "channel": 0,
      "note": 97,
      "start": 147.7296,
      "duration": 0.1166,
      "velocity": 102,
      "chip": "ym2612"
    },
    {
      "channel": 1,
      "note": 64,
      "start": 147.7299,
      "duration": 0.1165,
      "velocity": 88,
      "chip": "ym2612"
    },
    {
      "channel": 2,
      "note": 102,
      "start": 147.7301,
      "duration": 0.1163,
      "velocity": 102,
      "chip": "ym2612"
    },
    {
      "channel": 0,
      "note": 102,
      "start": 147.863,
      "duration": 0.1165,
      "velocity": 102,
      "chip": "ym2612"
    },
    {
      "channel": 1,
      "note": 69,
      "start": 147.8632,
      "duration": 0.1163,
      "velocity": 88,
      "chip": "ym2612"
    },
    {
      "channel": 2,
      "note": 107,
      "start": 147.8635,
      "duration": 0.1162,
      "velocity": 102,
      "chip": "ym2612"
    },
    {
      "channel": 0,
      "note": 100,
      "start": 147.9963,
      "duration": 0.1164,
      "velocity": 102,
      "chip": "ym2612"
    },
    {
      "channel": 1,
      "note": 66,
      "start": 147.9966,
      "duration": 0.1162,
      "velocity": 88,
      "chip": "ym2612"
    },
    {
      "channel": 2,
      "note": 105,
      "start": 147.9969,
      "duration": 0.1161,
      "velocity": 102,
      "chip": "ym2612"
    },
    {
      "channel": 0,
      "note": 97,
      "start": 148.1297,
      "duration": 0.1166,
      "velocity": 102,
      "chip": "ym2612"
    },
    {
      "channel": 1,
      "note": 64,
      "start": 148.13,
      "duration": 0.1164,
      "velocity": 88,
      "chip": "ym2612"
    },
    {
      "channel": 2,
      "note": 102,
      "start": 148.1302,
      "duration": 0.1162,
      "velocity": 102,
      "chip": "ym2612"
    },
    {
      "channel": 0,
      "note": 93,
      "start": 148.263,
      "duration": 0.1164,
      "velocity": 102,
      "chip": "ym2612"
    },
    {
      "channel": 1,
      "note": 61,
      "start": 148.2633,
      "duration": 0.1162,
      "velocity": 88,
      "chip": "ym2612"
    },
    {
      "channel": 2,
      "note": 100,
      "start": 148.2635,
      "duration": 0.1161,
      "velocity": 102,
      "chip": "ym2612"
    },
    {
      "channel": 0,
      "note": 100,
      "start": 148.3963,
      "duration": 0.1164,
      "velocity": 102,
      "chip": "ym2612"
    },
    {
      "channel": 1,
      "note": 66,
      "start": 148.3966,
      "duration": 0.1162,
      "velocity": 88,
      "chip": "ym2612"
    },
    {
      "channel": 2,
      "note": 105,
      "start": 148.3969,
      "duration": 0.1161,
      "velocity": 102,
      "chip": "ym2612"
    },
    {
      "channel": 0,
      "note": 97,
      "start": 148.5297,
      "duration": 0.1164,
      "velocity": 102,
      "chip": "ym2612"
    },
    {
      "channel": 1,
      "note": 64,
      "start": 148.53,
      "duration": 0.1162,
      "velocity": 88,
      "chip": "ym2612"
    },
    {
      "channel": 2,
      "note": 102,
      "start": 148.5302,
      "duration": 0.1161,
      "velocity": 102,
      "chip": "ym2612"
    },
    {
      "channel": 0,
      "note": 93,
      "start": 148.663,
      "duration": 0.1166,
      "velocity": 102,
      "chip": "ym2612"
    },
    {
      "channel": 1,
      "note": 61,
      "start": 148.6633,
      "duration": 0.1164,
      "velocity": 88,
      "chip": "ym2612"
    },
    {
      "channel": 2,
      "note": 100,
      "start": 148.6635,
      "duration": 0.1162,
      "velocity": 102,
      "chip": "ym2612"
    },
    {
      "channel": 0,
      "note": 90,
      "start": 148.7963,
      "duration": 0.1166,
      "velocity": 102,
      "chip": "ym2612"
    },
    {
      "channel": 1,
      "note": 57,
      "start": 148.7966,
      "duration": 0.1165,
      "velocity": 88,
      "chip": "ym2612"
    },
    {
      "channel": 2,
      "note": 97,
      "start": 148.7968,
      "duration": 0.1163,
      "velocity": 102,
      "chip": "ym2612"
    },
    {
      "channel": 0,
      "note": 97,
      "start": 148.9296,
      "duration": 0.1166,
      "velocity": 102,
      "chip": "ym2612"
    },
    {
      "channel": 1,
      "note": 64,
      "start": 148.9299,
      "duration": 0.1165,
      "velocity": 88,
      "chip": "ym2612"
    },
    {
      "channel": 2,
      "note": 102,
      "start": 148.9301,
      "duration": 0.1163,
      "velocity": 102,
      "chip": "ym2612"
    },
    {
      "channel": 0,
      "note": 93,
      "start": 149.063,
      "duration": 0.1164,
      "velocity": 102,
      "chip": "ym2612"
    },
    {
      "channel": 1,
      "note": 61,
      "start": 149.0633,
      "duration": 0.1163,
      "velocity": 88,
      "chip": "ym2612"
    },
    {
      "channel": 2,
      "note": 100,
      "start": 149.0635,
      "duration": 0.1161,
      "velocity": 102,
      "chip": "ym2612"
    },
    {
      "channel": 0,
      "note": 90,
      "start": 149.1963,
      "duration": 0.1164,
      "velocity": 102,
      "chip": "ym2612"
    },
    {
      "channel": 1,
      "note": 57,
      "start": 149.1966,
      "duration": 0.1162,
      "velocity": 88,
      "chip": "ym2612"
    },
    {
      "channel": 2,
      "note": 97,
      "start": 149.1969,
      "duration": 0.1161,
      "velocity": 102,
      "chip": "ym2612"
    },
    {
      "channel": 0,
      "note": 90,
      "start": 149.3297,
      "duration": 0.1164,
      "velocity": 102,
      "chip": "ym2612"
    },
    {
      "channel": 1,
      "note": 57,
      "start": 149.33,
      "duration": 0.1163,
      "velocity": 88,
      "chip": "ym2612"
    },
    {
      "channel": 2,
      "note": 95,
      "start": 149.3302,
      "duration": 0.1161,
      "velocity": 102,
      "chip": "ym2612"
    },
    {
      "channel": 0,
      "note": 93,
      "start": 149.463,
      "duration": 0.1164,
      "velocity": 102,
      "chip": "ym2612"
    },
    {
      "channel": 1,
      "note": 61,
      "start": 149.4633,
      "duration": 0.1163,
      "velocity": 88,
      "chip": "ym2612"
    },
    {
      "channel": 2,
      "note": 100,
      "start": 149.4635,
      "duration": 0.1161,
      "velocity": 102,
      "chip": "ym2612"
    },
    {
      "channel": 0,
      "note": 90,
      "start": 149.5963,
      "duration": 0.1166,
      "velocity": 102,
      "chip": "ym2612"
    },
    {
      "channel": 1,
      "note": 57,
      "start": 149.5966,
      "duration": 0.1164,
      "velocity": 88,
      "chip": "ym2612"
    },
    {
      "channel": 2,
      "note": 97,
      "start": 149.5969,
      "duration": 0.1162,
      "velocity": 102,
      "chip": "ym2612"
    },
    {
      "channel": 0,
      "note": 90,
      "start": 149.7296,
      "duration": 0.1165,
      "velocity": 102,
      "chip": "ym2612"
    },
    {
      "channel": 1,
      "note": 57,
      "start": 149.7299,
      "duration": 0.1163,
      "velocity": 88,
      "chip": "ym2612"
    },
    {
      "channel": 2,
      "note": 95,
      "start": 149.7301,
      "duration": 0.1162,
      "velocity": 102,
      "chip": "ym2612"
    },
    {
      "channel": 0,
      "note": 88,
      "start": 149.863,
      "duration": 0.1166,
      "velocity": 102,
      "chip": "ym2612"
    },
    {
      "channel": 1,
      "note": 54,
      "start": 149.8633,
      "duration": 0.1164,
      "velocity": 88,
      "chip": "ym2612"
    },
    {
      "channel": 2,
      "note": 93,
      "start": 149.8635,
      "duration": 0.1162,
      "velocity": 102,
      "chip": "ym2612"
    },
    {
      "channel": 0,
      "note": 90,
      "start": 149.9963,
      "duration": 0.1166,
      "velocity": 102,
      "chip": "ym2612"
    },
    {
      "channel": 1,
      "note": 57,
      "start": 149.9966,
      "duration": 0.1165,
      "velocity": 88,
      "chip": "ym2612"
    },
    {
      "channel": 2,
      "note": 97,
      "start": 149.9968,
      "duration": 0.1163,
      "velocity": 102,
      "chip": "ym2612"
    },
    {
      "channel": 0,
      "note": 90,
      "start": 150.1296,
      "duration": 0.1165,
      "velocity": 102,
      "chip": "ym2612"
    },
    {
      "channel": 1,
      "note": 57,
      "start": 150.1299,
      "duration": 0.1163,
      "velocity": 88,
      "chip": "ym2612"
    },
    {
      "channel": 2,
      "note": 95,
      "start": 150.1301,
      "duration": 0.1162,
      "velocity": 102,
      "chip": "ym2612"
    },
    {
      "channel": 0,
      "note": 88,
      "start": 150.263,
      "duration": 0.1164,
      "velocity": 102,
      "chip": "ym2612"
    },
    {
      "channel": 1,
      "note": 54,
      "start": 150.2633,
      "duration": 0.1163,
      "velocity": 88,
      "chip": "ym2612"
    },
    {
      "channel": 2,
      "note": 93,
      "start": 150.2635,
      "duration": 0.1161,
      "velocity": 102,
      "chip": "ym2612"
    },
    {
      "channel": 0,
      "note": 85,
      "start": 150.3982,
      "duration": 0.1147,
      "velocity": 107,
      "chip": "ym2612"
    },
    {
      "channel": 1,
      "note": 52,
      "start": 150.3999,
      "duration": 0.1131,
      "velocity": 88,
      "chip": "ym2612"
    },
    {
      "channel": 2,
      "note": 90,
      "start": 150.4016,
      "duration": 0.6448,
      "velocity": 83,
      "chip": "ym2612"
    },
    {
      "channel": 0,
      "note": 33,
      "start": 150.531,
      "duration": 0.1151,
      "velocity": 127,
      "chip": "ym2612"
    },
    {
      "channel": 1,
      "note": 47,
      "start": 150.5313,
      "duration": 0.115,
      "velocity": 88,
      "chip": "ym2612"
    },
    {
      "channel": 0,
      "note": 78,
      "start": 150.663,
      "duration": 0.1165,
      "velocity": 127,
      "chip": "ym2612"
    },
    {
      "channel": 1,
      "note": 47,
      "start": 150.6633,
      "duration": 0.1163,
      "velocity": 88,
      "chip": "ym2612"
    },
    {
      "channel": 0,
      "note": 78,
      "start": 150.7978,
      "duration": 0.1151,
      "velocity": 107,
      "chip": "ym2612"
    },
    {
      "channel": 1,
      "note": 47,
      "start": 150.798,
      "duration": 0.1149,
      "velocity": 88,
      "chip": "ym2612"
    },
    {
      "channel": 0,
      "note": 33,
      "start": 150.9311,
      "duration": 0.115,
      "velocity": 127,
      "chip": "ym2612"
    },
    {
      "channel": 1,
      "note": 47,
      "start": 150.9313,
      "duration": 0.1149,
      "velocity": 88,
      "chip": "ym2612"
    },
    {
      "channel": 0,
      "note": 78,
      "start": 151.063,
      "duration": 0.1165,
      "velocity": 127,
      "chip": "ym2612"
    },
    {
      "channel": 1,
      "note": 47,
      "start": 151.0633,
      "duration": 0.1163,
      "velocity": 88,
      "chip": "ym2612"
    },
    {
      "channel": 2,
      "note": 77,
      "start": 151.0635,
      "duration": 0.5161,
      "velocity": 83,
      "chip": "ym2612"
    },
    {
      "channel": 0,
      "note": 78,
      "start": 151.1978,
      "duration": 0.115,
      "velocity": 127,
      "chip": "ym2612"
    },
    {
      "channel": 1,
      "note": 47,
      "start": 151.198,
      "duration": 0.1149,
      "velocity": 88,
      "chip": "ym2612"
    },
    {
      "channel": 0,
      "note": 42,
      "start": 151.331,
      "duration": 0.1151,
      "velocity": 127,
      "chip": "ym2612"
    },
    {
      "channel": 1,
      "note": 47,
      "start": 151.3313,
      "duration": 0.115,
      "velocity": 88,
      "chip": "ym2612"
    },
    {
      "channel": 0,
      "note": 78,
      "start": 151.463,
      "duration": 0.1165,
      "velocity": 127,
      "chip": "ym2612"
    },
    {
      "channel": 1,
      "note": 47,
      "start": 151.4633,
      "duration": 0.1163,
      "velocity": 88,
      "chip": "ym2612"
    },
    {
      "channel": 0,
      "note": 78,
      "start": 151.5978,
      "duration": 0.115,
      "velocity": 107,
      "chip": "ym2612"
    },
    {
      "channel": 1,
      "note": 47,
      "start": 151.5981,
      "duration": 0.1148,
      "velocity": 88,
      "chip": "ym2612"
    },
    {
      "channel": 2,
      "note": 74,
      "start": 151.5983,
      "duration": 0.2481,
      "velocity": 83,
      "chip": "ym2612"
    },
    {
      "channel": 0,
      "note": 33,
      "start": 151.7311,
      "duration": 0.1151,
      "velocity": 127,
      "chip": "ym2612"
    },
    {
      "channel": 1,
      "note": 54,
      "start": 151.7313,
      "duration": 0.115,
      "velocity": 88,
      "chip": "ym2612"
    },
    {
      "channel": 0,
      "note": 78,
      "start": 151.863,
      "duration": 0.1165,
      "velocity": 127,
      "chip": "ym2612"
    },
    {
      "channel": 1,
      "note": 47,
      "start": 151.8632,
      "duration": 0.1163,
      "velocity": 88,
      "chip": "ym2612"
    },
    {
      "channel": 2,
      "note": 71,
      "start": 151.8635,
      "duration": 1.7162,
      "velocity": 83,
      "chip": "ym2612"
    },
    {
      "channel": 0,
      "note": 78,
      "start": 151.9977,
      "duration": 0.1151,
      "velocity": 107,
      "chip": "ym2612"
    },
    {
      "channel": 1,
      "note": 59,
      "start": 151.998,
      "duration": 0.115,
      "velocity": 88,
      "chip": "ym2612"
    },
    {
      "channel": 0,
      "note": 33,
      "start": 152.1311,
      "duration": 0.115,
      "velocity": 127,
      "chip": "ym2612"
    },
    {
      "channel": 1,
      "note": 47,
      "start": 152.1313,
      "duration": 0.1149,
      "velocity": 88,
      "chip": "ym2612"
    },
    {
      "channel": 0,
      "note": 78,
      "start": 152.263,
      "duration": 0.1165,
      "velocity": 127,
      "chip": "ym2612"
    },
    {
      "channel": 1,
      "note": 47,
      "start": 152.2632,
      "duration": 0.1163,
      "velocity": 88,
      "chip": "ym2612"
    },
    {
      "channel": 0,
      "note": 78,
      "start": 152.3978,
      "duration": 0.115,
      "velocity": 107,
      "chip": "ym2612"
    },
    {
      "channel": 1,
      "note": 47,
      "start": 152.398,
      "duration": 0.1149,
      "velocity": 88,
      "chip": "ym2612"
    },
    {
      "channel": 0,
      "note": 33,
      "start": 152.531,
      "duration": 0.1151,
      "velocity": 127,
      "chip": "ym2612"
    },
    {
      "channel": 1,
      "note": 44,
      "start": 152.5313,
      "duration": 0.115,
      "velocity": 88,
      "chip": "ym2612"
    },
    {
      "channel": 0,
      "note": 78,
      "start": 152.663,
      "duration": 0.1165,
      "velocity": 127,
      "chip": "ym2612"
    },
    {
      "channel": 1,
      "note": 56,
      "start": 152.6633,
      "duration": 0.1163,
      "velocity": 88,
      "chip": "ym2612"
    },
    {
      "channel": 0,
      "note": 78,
      "start": 152.7978,
      "duration": 0.115,
      "velocity": 127,
      "chip": "ym2612"
    },
    {
      "channel": 1,
      "note": 44,
      "start": 152.798,
      "duration": 0.1149,
      "velocity": 88,
      "chip": "ym2612"
    },
    {
      "channel": 0,
      "note": 42,
      "start": 152.931,
      "duration": 0.1151,
      "velocity": 127,
      "chip": "ym2612"
    },
    {
      "channel": 1,
      "note": 45,
      "start": 152.9313,
      "duration": 0.115,
      "velocity": 88,
      "chip": "ym2612"
    },
    {
      "channel": 0,
      "note": 78,
      "start": 153.063,
      "duration": 0.1165,
      "velocity": 127,
      "chip": "ym2612"
    },
    {
      "channel": 1,
      "note": 57,
      "start": 153.0633,
      "duration": 0.1163,
      "velocity": 88,
      "chip": "ym2612"
    },
    {
      "channel": 0,
      "note": 78,
      "start": 153.1978,
      "duration": 0.115,
      "velocity": 107,
      "chip": "ym2612"
    },
    {
      "channel": 1,
      "note": 45,
      "start": 153.198,
      "duration": 0.1149,
      "velocity": 88,
      "chip": "ym2612"
    },
    {
      "channel": 0,
      "note": 33,
      "start": 153.331,
      "duration": 0.1151,
      "velocity": 127,
      "chip": "ym2612"
    },
    {
      "channel": 1,
      "note": 46,
      "start": 153.3313,
      "duration": 0.115,
      "velocity": 88,
      "chip": "ym2612"
    },
    {
      "channel": 0,
      "note": 78,
      "start": 153.4644,
      "duration": 0.115,
      "velocity": 127,
      "chip": "ym2612"
    },
    {
      "channel": 1,
      "note": 58,
      "start": 153.4647,
      "duration": 0.1149,
      "velocity": 88,
      "chip": "ym2612"
    },
    {
      "channel": 0,
      "note": 42,
      "start": 153.5978,
      "duration": 0.1151,
      "velocity": 107,
      "chip": "ym2612"
    },
    {
      "channel": 1,
      "note": 46,
      "start": 153.598,
      "duration": 0.115,
      "velocity": 88,
      "chip": "ym2612"
    },
    {
      "channel": 2,
      "note": 74,
      "start": 153.5983,
      "duration": 0.6481,
      "velocity": 83,
      "chip": "ym2612"
    },
    {
      "channel": 0,
      "note": 33,
      "start": 153.7312,
      "duration": 0.1149,
      "velocity": 127,
      "chip": "ym2612"
    },
    {
      "channel": 1,
      "note": 47,
      "start": 153.7314,
      "duration": 0.1148,
      "velocity": 88,
      "chip": "ym2612"
    },
    {
      "channel": 0,
      "note": 78,
      "start": 153.863,
      "duration": 0.1165,
      "velocity": 127,
      "chip": "ym2612"
    },
    {
      "channel": 1,
      "note": 47,
      "start": 153.8632,
      "duration": 0.1163,
      "velocity": 88,
      "chip": "ym2612"
    },
    {
      "channel": 0,
      "note": 78,
      "start": 153.9977,
      "duration": 0.1151,
      "velocity": 107,
      "chip": "ym2612"
    },
    {
      "channel": 1,
      "note": 47,
      "start": 153.998,
      "duration": 0.115,
      "velocity": 88,
      "chip": "ym2612"
    },
    {
      "channel": 0,
      "note": 33,
      "start": 154.1311,
      "duration": 0.115,
      "velocity": 127,
      "chip": "ym2612"
    },
    {
      "channel": 1,
      "note": 47,
      "start": 154.1313,
      "duration": 0.1149,
      "velocity": 88,
      "chip": "ym2612"
    },
    {
      "channel": 0,
      "note": 78,
      "start": 154.263,
      "duration": 0.1165,
      "velocity": 127,
      "chip": "ym2612"
    },
    {
      "channel": 1,
      "note": 47,
      "start": 154.2633,
      "duration": 0.1163,
      "velocity": 88,
      "chip": "ym2612"
    },
    {
      "channel": 2,
      "note": 77,
      "start": 154.2635,
      "duration": 0.5162,
      "velocity": 83,
      "chip": "ym2612"
    },
    {
      "channel": 0,
      "note": 78,
      "start": 154.3978,
      "duration": 0.115,
      "velocity": 127,
      "chip": "ym2612"
    },
    {
      "channel": 1,
      "note": 47,
      "start": 154.398,
      "duration": 0.1149,
      "velocity": 88,
      "chip": "ym2612"
    },
    {
      "channel": 0,
      "note": 42,
      "start": 154.531,
      "duration": 0.1151,
      "velocity": 127,
      "chip": "ym2612"
    },
    {
      "channel": 1,
      "note": 47,
      "start": 154.5313,
      "duration": 0.115,
      "velocity": 88,
      "chip": "ym2612"
    },
    {
      "channel": 0,
      "note": 78,
      "start": 154.663,
      "duration": 0.1165,
      "velocity": 127,
      "chip": "ym2612"
    },
    {
      "channel": 1,
      "note": 47,
      "start": 154.6633,
      "duration": 0.1163,
      "velocity": 88,
      "chip": "ym2612"
    },
    {
      "channel": 0,
      "note": 78,
      "start": 154.7978,
      "duration": 0.115,
      "velocity": 107,
      "chip": "ym2612"
    },
    {
      "channel": 1,
      "note": 47,
      "start": 154.7981,
      "duration": 0.1149,
      "velocity": 88,
      "chip": "ym2612"
    },
    {
      "channel": 2,
      "note": 74,
      "start": 154.7983,
      "duration": 0.248,
      "velocity": 83,
      "chip": "ym2612"
    },
    {
      "channel": 0,
      "note": 33,
      "start": 154.9311,
      "duration": 0.115,
      "velocity": 127,
      "chip": "ym2612"
    },
    {
      "channel": 1,
      "note": 54,
      "start": 154.9313,
      "duration": 0.1149,
      "velocity": 88,
      "chip": "ym2612"
    },
    {
      "channel": 0,
      "note": 78,
      "start": 155.063,
      "duration": 0.1164,
      "velocity": 127,
      "chip": "ym2612"
    },
    {
      "channel": 1,
      "note": 47,
      "start": 155.0633,
      "duration": 0.1163,
      "velocity": 88,
      "chip": "ym2612"
    },
    {
      "channel": 2,
      "note": 71,
      "start": 155.0635,
      "duration": 1.7162,
      "velocity": 83,
      "chip": "ym2612"
    },
    {
      "channel": 0,
      "note": 78,
      "start": 155.1977,
      "duration": 0.1151,
      "velocity": 107,
      "chip": "ym2612"
    },
    {
      "channel": 1,
      "note": 57,
      "start": 155.198,
      "duration": 0.115,
      "velocity": 88,
      "chip": "ym2612"
    },
    {
      "channel": 0,
      "note": 33,
      "start": 155.3311,
      "duration": 0.1151,
      "velocity": 127,
      "chip": "ym2612"
    },
    {
      "channel": 1,
      "note": 47,
      "start": 155.3313,
      "duration": 0.115,
      "velocity": 88,
      "chip": "ym2612"
    },
    {
      "channel": 0,
      "note": 78,
      "start": 155.4644,
      "duration": 0.1151,
      "velocity": 127,
      "chip": "ym2612"
    },
    {
      "channel": 1,
      "note": 47,
      "start": 155.4646,
      "duration": 0.115,
      "velocity": 88,
      "chip": "ym2612"
    },
    {
      "channel": 0,
      "note": 42,
      "start": 155.5978,
      "duration": 0.1151,
      "velocity": 107,
      "chip": "ym2612"
    },
    {
      "channel": 1,
      "note": 47,
      "start": 155.598,
      "duration": 0.115,
      "velocity": 88,
      "chip": "ym2612"
    },
    {
      "channel": 0,
      "note": 33,
      "start": 155.731,
      "duration": 0.1151,
      "velocity": 127,
      "chip": "ym2612"
    },
    {
      "channel": 1,
      "note": 44,
      "start": 155.7313,
      "duration": 0.115,
      "velocity": 88,
      "chip": "ym2612"
    },
    {
      "channel": 0,
      "note": 78,
      "start": 155.863,
      "duration": 0.1164,
      "velocity": 127,
      "chip": "ym2612"
    },
    {
      "channel": 1,
      "note": 56,
      "start": 155.8633,
      "duration": 0.1163,
      "velocity": 88,
      "chip": "ym2612"
    },
    {
      "channel": 0,
      "note": 78,
      "start": 155.9977,
      "duration": 0.1151,
      "velocity": 127,
      "chip": "ym2612"
    },
    {
      "channel": 1,
      "note": 44,
      "start": 155.998,
      "duration": 0.115,
      "velocity": 88,
      "chip": "ym2612"
    },
    {
      "channel": 0,
      "note": 42,
      "start": 156.1311,
      "duration": 0.115,
      "velocity": 127,
      "chip": "ym2612"
    },
    {
      "channel": 1,
      "note": 45,
      "start": 156.1313,
      "duration": 0.1149,
      "velocity": 88,
      "chip": "ym2612"
    },
    {
      "channel": 0,
      "note": 78,
      "start": 156.263,
      "duration": 0.1165,
      "velocity": 127,
      "chip": "ym2612"
    },
    {
      "channel": 1,
      "note": 57,
      "start": 156.2632,
      "duration": 0.1163,
      "velocity": 88,
      "chip": "ym2612"
    },
    {
      "channel": 0,
      "note": 78,
      "start": 156.3977,
      "duration": 0.1151,
      "velocity": 107,
      "chip": "ym2612"
    },
    {
      "channel": 1,
      "note": 45,
      "start": 156.398,
      "duration": 0.115,
      "velocity": 88,
      "chip": "ym2612"
    },
    {
      "channel": 0,
      "note": 33,
      "start": 156.5312,
      "duration": 0.115,
      "velocity": 127,
      "chip": "ym2612"
    },
    {
      "channel": 1,
      "note": 46,
      "start": 156.5314,
      "duration": 0.1148,
      "velocity": 88,
      "chip": "ym2612"
    },
    {
      "channel": 0,
      "note": 78,
      "start": 156.6644,
      "duration": 0.1151,
      "velocity": 127,
      "chip": "ym2612"
    },
    {
      "channel": 1,
      "note": 58,
      "start": 156.6647,
      "duration": 0.115,
      "velocity": 88,
      "chip": "ym2612"
    },
    {
      "channel": 0,
      "note": 42,
      "start": 156.7978,
      "duration": 0.1149,
      "velocity": 107,
      "chip": "ym2612"
    },
    {
      "channel": 1,
      "note": 46,
      "start": 156.7981,
      "duration": 0.1148,
      "velocity": 88,
      "chip": "ym2612"
    },
    {
      "channel": 2,
      "note": 70,
      "start": 156.7983,
      "duration": 0.6481,
      "velocity": 83,
      "chip": "ym2612"
    },
    {
      "channel": 0,
      "note": 33,
      "start": 156.931,
      "duration": 0.1151,
      "velocity": 127,
      "chip": "ym2612"
    },
    {
      "channel": 1,
      "note": 47,
      "start": 156.9313,
      "duration": 0.115,
      "velocity": 88,
      "chip": "ym2612"
    },
    {
      "channel": 0,
      "note": 78,
      "start": 157.063,
      "duration": 0.1165,
      "velocity": 127,
      "chip": "ym2612"
    },
    {
      "channel": 1,
      "note": 47,
      "start": 157.0633,
      "duration": 0.1163,
      "velocity": 88,
      "chip": "ym2612"
    },
    {
      "channel": 0,
      "note": 78,
      "start": 157.1978,
      "duration": 0.115,
      "velocity": 107,
      "chip": "ym2612"
    },
    {
      "channel": 1,
      "note": 47,
      "start": 157.198,
      "duration": 0.1149,
      "velocity": 88,
      "chip": "ym2612"
    },
    {
      "channel": 0,
      "note": 33,
      "start": 157.331,
      "duration": 0.1151,
      "velocity": 127,
      "chip": "ym2612"
    },
    {
      "channel": 1,
      "note": 47,
      "start": 157.3313,
      "duration": 0.115,
      "velocity": 88,
      "chip": "ym2612"
    },
    {
      "channel": 0,
      "note": 78,
      "start": 157.463,
      "duration": 0.1165,
      "velocity": 127,
      "chip": "ym2612"
    },
    {
      "channel": 1,
      "note": 47,
      "start": 157.4632,
      "duration": 0.1163,
      "velocity": 88,
      "chip": "ym2612"
    },
    {
      "channel": 2,
      "note": 77,
      "start": 157.4635,
      "duration": 0.5162,
      "velocity": 83,
      "chip": "ym2612"
    },
    {
      "channel": 0,
      "note": 78,
      "start": 157.5977,
      "duration": 0.1151,
      "velocity": 127,
      "chip": "ym2612"
    },
    {
      "channel": 1,
      "note": 47,
      "start": 157.598,
      "duration": 0.115,
      "velocity": 88,
      "chip": "ym2612"
    },
    {
      "channel": 0,
      "note": 42,
      "start": 157.7311,
      "duration": 0.115,
      "velocity": 127,
      "chip": "ym2612"
    },
    {
      "channel": 1,
      "note": 47,
      "start": 157.7313,
      "duration": 0.1149,
      "velocity": 88,
      "chip": "ym2612"
    },
    {
      "channel": 0,
      "note": 78,
      "start": 157.863,
      "duration": 0.1165,
      "velocity": 127,
      "chip": "ym2612"
    },
    {
      "channel": 1,
      "note": 47,
      "start": 157.8632,
      "duration": 0.1163,
      "velocity": 88,
      "chip": "ym2612"
    },
    {
      "channel": 0,
      "note": 78,
      "start": 157.9978,
      "duration": 0.1151,
      "velocity": 107,
      "chip": "ym2612"
    },
    {
      "channel": 1,
      "note": 47,
      "start": 157.998,
      "duration": 0.115,
      "velocity": 88,
      "chip": "ym2612"
    },
    {
      "channel": 2,
      "note": 74,
      "start": 157.9983,
      "duration": 0.2481,
      "velocity": 83,
      "chip": "ym2612"
    },
    {
      "channel": 0,
      "note": 33,
      "start": 158.131,
      "duration": 0.1151,
      "velocity": 127,
      "chip": "ym2612"
    },
    {
      "channel": 1,
      "note": 54,
      "start": 158.1313,
      "duration": 0.115,
      "velocity": 88,
      "chip": "ym2612"
    },
    {
      "channel": 0,
      "note": 78,
      "start": 158.263,
      "duration": 0.1165,
      "velocity": 127,
      "chip": "ym2612"
    },
    {
      "channel": 1,
      "note": 47,
      "start": 158.2632,
      "duration": 0.1163,
      "velocity": 88,
      "chip": "ym2612"
    },
    {
      "channel": 2,
      "note": 71,
      "start": 158.2635,
      "duration": 1.5829,
      "velocity": 83,
      "chip": "ym2612"
    },
    {
      "channel": 0,
      "note": 78,
      "start": 158.3977,
      "duration": 0.1151,
      "velocity": 107,
      "chip": "ym2612"
    },
    {
      "channel": 1,
      "note": 56,
      "start": 158.398,
      "duration": 0.115,
      "velocity": 88,
      "chip": "ym2612"
    },
    {
      "channel": 0,
      "note": 33,
      "start": 158.5311,
      "duration": 0.115,
      "velocity": 127,
      "chip": "ym2612"
    },
    {
      "channel": 1,
      "note": 47,
      "start": 158.5313,
      "duration": 0.1149,
      "velocity": 88,
      "chip": "ym2612"
    },
    {
      "channel": 0,
      "note": 78,
      "start": 158.6629,
      "duration": 0.1165,
      "velocity": 127,
      "chip": "ym2612"
    },
    {
      "channel": 1,
      "note": 47,
      "start": 158.6632,
      "duration": 0.1164,
      "velocity": 88,
      "chip": "ym2612"
    },
    {
      "channel": 0,
      "note": 78,
      "start": 158.7977,
      "duration": 0.1151,
      "velocity": 107,
      "chip": "ym2612"
    },
    {
      "channel": 1,
      "note": 47,
      "start": 158.798,
      "duration": 0.115,
      "velocity": 88,
      "chip": "ym2612"
    },
    {
      "channel": 0,
      "note": 33,
      "start": 158.9311,
      "duration": 0.115,
      "velocity": 127,
      "chip": "ym2612"
    },
    {
      "channel": 1,
      "note": 44,
      "start": 158.9313,
      "duration": 0.1149,
      "velocity": 88,
      "chip": "ym2612"
    },
    {
      "channel": 0,
      "note": 78,
      "start": 159.063,
      "duration": 0.1165,
      "velocity": 127,
      "chip": "ym2612"
    },
    {
      "channel": 1,
      "note": 56,
      "start": 159.0632,
      "duration": 0.1163,
      "velocity": 88,
      "chip": "ym2612"
    },
    {
      "channel": 0,
      "note": 78,
      "start": 159.1977,
      "duration": 0.1151,
      "velocity": 127,
      "chip": "ym2612"
    },
    {
      "channel": 1,
      "note": 44,
      "start": 159.198,
      "duration": 0.115,
      "velocity": 88,
      "chip": "ym2612"
    },
    {
      "channel": 0,
      "note": 42,
      "start": 159.3312,
      "duration": 0.1149,
      "velocity": 127,
      "chip": "ym2612"
    },
    {
      "channel": 1,
      "note": 45,
      "start": 159.3314,
      "duration": 0.1148,
      "velocity": 88,
      "chip": "ym2612"
    },
    {
      "channel": 0,
      "note": 78,
      "start": 159.4629,
      "duration": 0.1165,
      "velocity": 127,
      "chip": "ym2612"
    },
    {
      "channel": 1,
      "note": 57,
      "start": 159.4632,
      "duration": 0.1164,
      "velocity": 88,
      "chip": "ym2612"
    },
    {
      "channel": 0,
      "note": 78,
      "start": 159.5977,
      "duration": 0.1151,
      "velocity": 107,
      "chip": "ym2612"
    },
    {
      "channel": 1,
      "note": 45,
      "start": 159.598,
      "duration": 0.115,
      "velocity": 88,
      "chip": "ym2612"
    },
    {
      "channel": 0,
      "note": 33,
      "start": 159.7311,
      "duration": 0.115,
      "velocity": 127,
      "chip": "ym2612"
    },
    {
      "channel": 1,
      "note": 46,
      "start": 159.7313,
      "duration": 0.1149,
      "velocity": 88,
      "chip": "ym2612"
    },
    {
      "channel": 0,
      "note": 78,
      "start": 159.8644,
      "duration": 0.115,
      "velocity": 127,
      "chip": "ym2612"
    },
    {
      "channel": 1,
      "note": 58,
      "start": 159.8647,
      "duration": 0.1149,
      "velocity": 88,
      "chip": "ym2612"
    },
    {
      "channel": 2,
      "note": 74,
      "start": 159.8649,
      "duration": 0.1147,
      "velocity": 83,
      "chip": "ym2612"
    },
    {
      "channel": 0,
      "note": 42,
      "start": 159.9978,
      "duration": 0.1151,
      "velocity": 107,
      "chip": "ym2612"
    },
    {
      "channel": 1,
      "note": 46,
      "start": 159.998,
      "duration": 0.115,
      "velocity": 88,
      "chip": "ym2612"
    },
    {
      "channel": 2,
      "note": 74,
      "start": 159.9983,
      "duration": 0.1148,
      "velocity": 83,
      "chip": "ym2612"
    },
    {
      "channel": 0,
      "note": 33,
      "start": 160.1311,
      "duration": 0.1151,
      "velocity": 127,
      "chip": "ym2612"
    },
    {
      "channel": 1,
      "note": 50,
      "start": 160.1313,
      "duration": 0.115,
      "velocity": 88,
      "chip": "ym2612"
    },
    {
      "channel": 2,
      "note": 78,
      "start": 160.1316,
      "duration": 0.048,
      "velocity": 83,
      "chip": "ym2612"
    },
    {
      "channel": 2,
      "note": 76,
      "start": 160.1962,
      "duration": 0.0502,
      "velocity": 83,
      "chip": "ym2612"
    },
    {
      "channel": 0,
      "note": 78,
      "start": 160.263,
      "duration": 0.1165,
      "velocity": 127,
      "chip": "ym2612"
    },
    {
      "channel": 1,
      "note": 50,
      "start": 160.2632,
      "duration": 0.1163,
      "velocity": 88,
      "chip": "ym2612"
    },
    {
      "channel": 2,
      "note": 74,
      "start": 160.2635,
      "duration": 0.1162,
      "velocity": 83,
      "chip": "ym2612"
    },
    {
      "channel": 0,
      "note": 78,
      "start": 160.3978,
      "duration": 0.1151,
      "velocity": 107,
      "chip": "ym2612"
    },
    {
      "channel": 1,
      "note": 50,
      "start": 160.398,
      "duration": 0.115,
      "velocity": 88,
      "chip": "ym2612"
    },
    {
      "channel": 2,
      "note": 71,
      "start": 160.3983,
      "duration": 0.1149,
      "velocity": 83,
      "chip": "ym2612"
    },
    {
      "channel": 0,
      "note": 33,
      "start": 160.5311,
      "duration": 0.1151,
      "velocity": 127,
      "chip": "ym2612"
    },
    {
      "channel": 1,
      "note": 47,
      "start": 160.5313,
      "duration": 0.115,
      "velocity": 88,
      "chip": "ym2612"
    },
    {
      "channel": 2,
      "note": 78,
      "start": 160.5316,
      "duration": 0.048,
      "velocity": 83,
      "chip": "ym2612"
    },
    {
      "channel": 2,
      "note": 76,
      "start": 160.5962,
      "duration": 0.0502,
      "velocity": 83,
      "chip": "ym2612"
    },
    {
      "channel": 0,
      "note": 78,
      "start": 160.663,
      "duration": 0.1165,
      "velocity": 127,
      "chip": "ym2612"
    },
    {
      "channel": 1,
      "note": 47,
      "start": 160.6632,
      "duration": 0.1163,
      "velocity": 88,
      "chip": "ym2612"
    },
    {
      "channel": 2,
      "note": 74,
      "start": 160.6635,
      "duration": 0.1162,
      "velocity": 83,
      "chip": "ym2612"
    },
    {
      "channel": 0,
      "note": 78,
      "start": 160.7978,
      "duration": 0.115,
      "velocity": 127,
      "chip": "ym2612"
    },
    {
      "channel": 1,
      "note": 47,
      "start": 160.798,
      "duration": 0.1149,
      "velocity": 88,
      "chip": "ym2612"
    },
    {
      "channel": 2,
      "note": 71,
      "start": 160.7983,
      "duration": 0.1147,
      "velocity": 83,
      "chip": "ym2612"
    },
    {
      "channel": 0,
      "note": 42,
      "start": 160.9311,
      "duration": 0.115,
      "velocity": 127,
      "chip": "ym2612"
    },
    {
      "channel": 1,
      "note": 48,
      "start": 160.9313,
      "duration": 0.1149,
      "velocity": 88,
      "chip": "ym2612"
    },
    {
      "channel": 2,
      "note": 78,
      "start": 160.9316,
      "duration": 0.0481,
      "velocity": 83,
      "chip": "ym2612"
    },
    {
      "channel": 2,
      "note": 76,
      "start": 160.9963,
      "duration": 0.05,
      "velocity": 83,
      "chip": "ym2612"
    },
    {
      "channel": 0,
      "note": 78,
      "start": 161.063,
      "duration": 0.1165,
      "velocity": 127,
      "chip": "ym2612"
    },
    {
      "channel": 1,
      "note": 48,
      "start": 161.0633,
      "duration": 0.1163,
      "velocity": 88,
      "chip": "ym2612"
    },
    {
      "channel": 2,
      "note": 74,
      "start": 161.0635,
      "duration": 0.1161,
      "velocity": 83,
      "chip": "ym2612"
    },
    {
      "channel": 0,
      "note": 78,
      "start": 161.1978,
      "duration": 0.1149,
      "velocity": 107,
      "chip": "ym2612"
    },
    {
      "channel": 1,
      "note": 48,
      "start": 161.1981,
      "duration": 0.1148,
      "velocity": 88,
      "chip": "ym2612"
    },
    {
      "channel": 2,
      "note": 71,
      "start": 161.1983,
      "duration": 0.1147,
      "velocity": 83,
      "chip": "ym2612"
    },
    {
      "channel": 0,
      "note": 33,
      "start": 161.3311,
      "duration": 0.1151,
      "velocity": 127,
      "chip": "ym2612"
    },
    {
      "channel": 1,
      "note": 50,
      "start": 161.3313,
      "duration": 0.1149,
      "velocity": 88,
      "chip": "ym2612"
    },
    {
      "channel": 2,
      "note": 78,
      "start": 161.3316,
      "duration": 0.048,
      "velocity": 83,
      "chip": "ym2612"
    },
    {
      "channel": 2,
      "note": 76,
      "start": 161.3963,
      "duration": 0.05,
      "velocity": 83,
      "chip": "ym2612"
    },
    {
      "channel": 0,
      "note": 78,
      "start": 161.463,
      "duration": 0.1165,
      "velocity": 127,
      "chip": "ym2612"
    },
    {
      "channel": 1,
      "note": 50,
      "start": 161.4633,
      "duration": 0.1163,
      "velocity": 88,
      "chip": "ym2612"
    },
    {
      "channel": 2,
      "note": 74,
      "start": 161.4635,
      "duration": 0.1161,
      "velocity": 83,
      "chip": "ym2612"
    },
    {
      "channel": 0,
      "note": 78,
      "start": 161.5978,
      "duration": 0.115,
      "velocity": 107,
      "chip": "ym2612"
    },
    {
      "channel": 1,
      "note": 50,
      "start": 161.5981,
      "duration": 0.1148,
      "velocity": 88,
      "chip": "ym2612"
    },
    {
      "channel": 2,
      "note": 71,
      "start": 161.5983,
      "duration": 0.0479,
      "velocity": 83,
      "chip": "ym2612"
    },
    {
      "channel": 2,
      "note": 81,
      "start": 161.663,
      "duration": 0.05,
      "velocity": 83,
      "chip": "ym2612"
    },
    {
      "channel": 0,
      "note": 33,
      "start": 161.7312,
      "duration": 0.1149,
      "velocity": 127,
      "chip": "ym2612"
    },
    {
      "channel": 1,
      "note": 52,
      "start": 161.7314,
      "duration": 0.1148,
      "velocity": 88,
      "chip": "ym2612"
    },
    {
      "channel": 2,
      "note": 78,
      "start": 161.7317,
      "duration": 0.048,
      "velocity": 83,
      "chip": "ym2612"
    },
    {
      "channel": 2,
      "note": 76,
      "start": 161.7963,
      "duration": 0.05,
      "velocity": 83,
      "chip": "ym2612"
    },
    {
      "channel": 0,
      "note": 78,
      "start": 161.8644,
      "duration": 0.1151,
      "velocity": 127,
      "chip": "ym2612"
    },
    {
      "channel": 1,
      "note": 52,
      "start": 161.8647,
      "duration": 0.1149,
      "velocity": 88,
      "chip": "ym2612"
    },
    {
      "channel": 2,
      "note": 74,
      "start": 161.8649,
      "duration": 0.0479,
      "velocity": 83,
      "chip": "ym2612"
    },
    {
      "channel": 2,
      "note": 71,
      "start": 161.9296,
      "duration": 0.05,
      "velocity": 83,
      "chip": "ym2612"
    },
    {
      "channel": 0,
      "note": 42,
      "start": 161.9978,
      "duration": 0.1149,
      "velocity": 107,
      "chip": "ym2612"
    },
    {
      "channel": 1,
      "note": 52,
      "start": 161.9981,
      "duration": 0.1148,
      "velocity": 88,
      "chip": "ym2612"
    },
    {
      "channel": 2,
      "note": 81,
      "start": 161.9983,
      "duration": 0.048,
      "velocity": 83,
      "chip": "ym2612"
    },
    {
      "channel": 2,
      "note": 78,
      "start": 162.063,
      "duration": 0.05,
      "velocity": 83,
      "chip": "ym2612"
    },
    {
      "channel": 0,
      "note": 33,
      "start": 162.1311,
      "duration": 0.115,
      "velocity": 127,
      "chip": "ym2612"
    },
    {
      "channel": 1,
      "note": 49,
      "start": 162.1313,
      "duration": 0.1149,
      "velocity": 88,
      "chip": "ym2612"
    },
    {
      "channel": 2,
      "note": 76,
      "start": 162.1316,
      "duration": 0.0481,
      "velocity": 83,
      "chip": "ym2612"
    },
    {
      "channel": 2,
      "note": 74,
      "start": 162.1963,
      "duration": 0.05,
      "velocity": 83,
      "chip": "ym2612"
    },
    {
      "channel": 0,
      "note": 78,
      "start": 162.263,
      "duration": 0.1165,
      "velocity": 127,
      "chip": "ym2612"
    },
    {
      "channel": 1,
      "note": 61,
      "start": 162.2633,
      "duration": 0.1163,
      "velocity": 88,
      "chip": "ym2612"
    },
    {
      "channel": 2,
      "note": 71,
      "start": 162.2635,
      "duration": 0.0494,
      "velocity": 83,
      "chip": "ym2612"
    },
    {
      "channel": 2,
      "note": 81,
      "start": 162.3296,
      "duration": 0.05,
      "velocity": 83,
      "chip": "ym2612"
    },
    {
      "channel": 0,
      "note": 78,
      "start": 162.3977,
      "duration": 0.1151,
      "velocity": 127,
      "chip": "ym2612"
    },
    {
      "channel": 1,
      "note": 49,
      "start": 162.398,
      "duration": 0.1149,
      "velocity": 88,
      "chip": "ym2612"
    },
    {
      "channel": 2,
      "note": 78,
      "start": 162.3982,
      "duration": 0.048,
      "velocity": 83,
      "chip": "ym2612"
    },
    {
      "channel": 2,
      "note": 76,
      "start": 162.463,
      "duration": 0.05,
      "velocity": 83,
      "chip": "ym2612"
    },
    {
      "channel": 0,
      "note": 42,
      "start": 162.5312,
      "duration": 0.115,
      "velocity": 127,
      "chip": "ym2612"
    },
    {
      "channel": 1,
      "note": 50,
      "start": 162.5314,
      "duration": 0.1149,
      "velocity": 88,
      "chip": "ym2612"
    },
    {
      "channel": 2,
      "note": 74,
      "start": 162.5317,
      "duration": 0.0479,
      "velocity": 83,
      "chip": "ym2612"
    },
    {
      "channel": 2,
      "note": 71,
      "start": 162.5963,
      "duration": 0.05,
      "velocity": 83,
      "chip": "ym2612"
    },
    {
      "channel": 0,
      "note": 78,
      "start": 162.6629,
      "duration": 0.1167,
      "velocity": 127,
      "chip": "ym2612"
    },
    {
      "channel": 1,
      "note": 62,
      "start": 162.6632,
      "duration": 0.1165,
      "velocity": 88,
      "chip": "ym2612"
    },
    {
      "channel": 2,
      "note": 81,
      "start": 162.6634,
      "duration": 0.0496,
      "velocity": 83,
      "chip": "ym2612"
    },
    {
      "channel": 2,
      "note": 78,
      "start": 162.7296,
      "duration": 0.0502,
      "velocity": 83,
      "chip": "ym2612"
    },
    {
      "channel": 0,
      "note": 78,
      "start": 162.7978,
      "duration": 0.1151,
      "velocity": 107,
      "chip": "ym2612"
    },
    {
      "channel": 1,
      "note": 50,
      "start": 162.798,
      "duration": 0.115,
      "velocity": 88,
      "chip": "ym2612"
    },
    {
      "channel": 2,
      "note": 76,
      "start": 162.7983,
      "duration": 0.048,
      "velocity": 83,
      "chip": "ym2612"
    },
    {
      "channel": 2,
      "note": 74,
      "start": 162.8629,
      "duration": 0.0502,
      "velocity": 83,
      "chip": "ym2612"
    },
    {
      "channel": 0,
      "note": 33,
      "start": 162.9311,
      "duration": 0.1151,
      "velocity": 127,
      "chip": "ym2612"
    },
    {
      "channel": 1,
      "note": 52,
      "start": 162.9313,
      "duration": 0.115,
      "velocity": 88,
      "chip": "ym2612"
    },
    {
      "channel": 2,
      "note": 71,
      "start": 162.9316,
      "duration": 0.048,
      "velocity": 83,
      "chip": "ym2612"
    },
    {
      "channel": 2,
      "note": 81,
      "start": 162.9962,
      "duration": 0.0502,
      "velocity": 83,
      "chip": "ym2612"
    },
    {
      "channel": 0,
      "note": 78,
      "start": 163.0644,
      "duration": 0.1151,
      "velocity": 127,
      "chip": "ym2612"
    },
    {
      "channel": 1,
      "note": 64,
      "start": 163.0647,
      "duration": 0.115,
      "velocity": 88,
      "chip": "ym2612"
    },
    {
      "channel": 2,
      "note": 78,
      "start": 163.0649,
      "duration": 0.048,
      "velocity": 83,
      "chip": "ym2612"
    },
    {
      "channel": 2,
      "note": 76,
      "start": 163.1296,
      "duration": 0.0502,
      "velocity": 83,
      "chip": "ym2612"
    },
    {
      "channel": 0,
      "note": 42,
      "start": 163.1979,
      "duration": 0.1149,
      "velocity": 107,
      "chip": "ym2612"
    },
    {
      "channel": 1,
      "note": 52,
      "start": 163.1981,
      "duration": 0.1148,
      "velocity": 88,
      "chip": "ym2612"
    },
    {
      "channel": 2,
      "note": 74,
      "start": 163.1984,
      "duration": 0.648,
      "velocity": 83,
      "chip": "ym2612"
    },
    {
      "channel": 0,
      "note": 33,
      "start": 163.3311,
      "duration": 0.1151,
      "velocity": 127,
      "chip": "ym2612"
    },
    {
      "channel": 1,
      "note": 50,
      "start": 163.3313,
      "duration": 0.115,
      "velocity": 88,
      "chip": "ym2612"
    },
    {
      "channel": 0,
      "note": 78,
      "start": 163.463,
      "duration": 0.1165,
      "velocity": 127,
      "chip": "ym2612"
    },
    {
      "channel": 1,
      "note": 50,
      "start": 163.4632,
      "duration": 0.1163,
      "velocity": 88,
      "chip": "ym2612"
    },
    {
      "channel": 0,
      "note": 78,
      "start": 163.5977,
      "duration": 0.1151,
      "velocity": 107,
      "chip": "ym2612"
    },
    {
      "channel": 1,
      "note": 50,
      "start": 163.598,
      "duration": 0.115,
      "velocity": 88,
      "chip": "ym2612"
    },
    {
      "channel": 0,
      "note": 33,
      "start": 163.7311,
      "duration": 0.115,
      "velocity": 127,
      "chip": "ym2612"
    },
    {
      "channel": 1,
      "note": 50,
      "start": 163.7313,
      "duration": 0.1149,
      "velocity": 88,
      "chip": "ym2612"
    },
    {
      "channel": 0,
      "note": 78,
      "start": 163.863,
      "duration": 0.1165,
      "velocity": 127,
      "chip": "ym2612"
    },
    {
      "channel": 1,
      "note": 50,
      "start": 163.8633,
      "duration": 0.1163,
      "velocity": 88,
      "chip": "ym2612"
    },
    {
      "channel": 2,
      "note": 77,
      "start": 163.8635,
      "duration": 0.5161,
      "velocity": 83,
      "chip": "ym2612"
    },
    {
      "channel": 0,
      "note": 78,
      "start": 163.9977,
      "duration": 0.1151,
      "velocity": 127,
      "chip": "ym2612"
    },
    {
      "channel": 1,
      "note": 50,
      "start": 163.998,
      "duration": 0.115,
      "velocity": 88,
      "chip": "ym2612"
    },
    {
      "channel": 0,
      "note": 42,
      "start": 164.1311,
      "duration": 0.115,
      "velocity": 127,
      "chip": "ym2612"
    },
    {
      "channel": 1,
      "note": 50,
      "start": 164.1313,
      "duration": 0.1149,
      "velocity": 88,
      "chip": "ym2612"
    },
    {
      "channel": 0,
      "note": 78,
      "start": 164.263,
      "duration": 0.1165,
      "velocity": 127,
      "chip": "ym2612"
    },
    {
      "channel": 1,
      "note": 50,
      "start": 164.2632,
      "duration": 0.1163,
      "velocity": 88,
      "chip": "ym2612"
    },
    {
      "channel": 0,
      "note": 78,
      "start": 164.3978,
      "duration": 0.115,
      "velocity": 107,
      "chip": "ym2612"
    },
    {
      "channel": 1,
      "note": 50,
      "start": 164.398,
      "duration": 0.1149,
      "velocity": 88,
      "chip": "ym2612"
    },
    {
      "channel": 2,
      "note": 74,
      "start": 164.3983,
      "duration": 0.2481,
      "velocity": 83,
      "chip": "ym2612"
    },
    {
      "channel": 0,
      "note": 33,
      "start": 164.531,
      "duration": 0.1151,
      "velocity": 127,
      "chip": "ym2612"
    },
    {
      "channel": 1,
      "note": 50,
      "start": 164.5313,
      "duration": 0.115,
      "velocity": 88,
      "chip": "ym2612"
    },
    {
      "channel": 0,
      "note": 78,
      "start": 164.6629,
      "duration": 0.1167,
      "velocity": 127,
      "chip": "ym2612"
    },
    {
      "channel": 1,
      "note": 50,
      "start": 164.6632,
      "duration": 0.1165,
      "velocity": 88,
      "chip": "ym2612"
    },
    {
      "channel": 2,
      "note": 71,
      "start": 164.6634,
      "duration": 1.7163,
      "velocity": 83,
      "chip": "ym2612"
    },
    {
      "channel": 0,
      "note": 78,
      "start": 164.7977,
      "duration": 0.1151,
      "velocity": 107,
      "chip": "ym2612"
    },
    {
      "channel": 1,
      "note": 50,
      "start": 164.798,
      "duration": 0.115,
      "velocity": 88,
      "chip": "ym2612"
    },
    {
      "channel": 0,
      "note": 33,
      "start": 164.9311,
      "duration": 0.115,
      "velocity": 127,
      "chip": "ym2612"
    },
    {
      "channel": 1,
      "note": 50,
      "start": 164.9313,
      "duration": 0.1149,
      "velocity": 88,
      "chip": "ym2612"
    },
    {
      "channel": 0,
      "note": 78,
      "start": 165.063,
      "duration": 0.1165,
      "velocity": 127,
      "chip": "ym2612"
    },
    {
      "channel": 1,
      "note": 50,
      "start": 165.0632,
      "duration": 0.1163,
      "velocity": 88,
      "chip": "ym2612"
    },
    {
      "channel": 0,
      "note": 78,
      "start": 165.1977,
      "duration": 0.1151,
      "velocity": 107,
      "chip": "ym2612"
    },
    {
      "channel": 1,
      "note": 50,
      "start": 165.198,
      "duration": 0.115,
      "velocity": 88,
      "chip": "ym2612"
    },
    {
      "channel": 0,
      "note": 33,
      "start": 165.3311,
      "duration": 0.115,
      "velocity": 127,
      "chip": "ym2612"
    },
    {
      "channel": 1,
      "note": 50,
      "start": 165.3313,
      "duration": 0.1149,
      "velocity": 88,
      "chip": "ym2612"
    },
    {
      "channel": 0,
      "note": 78,
      "start": 165.463,
      "duration": 0.1165,
      "velocity": 127,
      "chip": "ym2612"
    },
    {
      "channel": 1,
      "note": 50,
      "start": 165.4632,
      "duration": 0.1163,
      "velocity": 88,
      "chip": "ym2612"
    },
    {
      "channel": 0,
      "note": 78,
      "start": 165.5978,
      "duration": 0.1151,
      "velocity": 127,
      "chip": "ym2612"
    },
    {
      "channel": 1,
      "note": 50,
      "start": 165.598,
      "duration": 0.115,
      "velocity": 88,
      "chip": "ym2612"
    },
    {
      "channel": 0,
      "note": 42,
      "start": 165.7311,
      "duration": 0.115,
      "velocity": 127,
      "chip": "ym2612"
    },
    {
      "channel": 1,
      "note": 50,
      "start": 165.7313,
      "duration": 0.1149,
      "velocity": 88,
      "chip": "ym2612"
    },
    {
      "channel": 0,
      "note": 78,
      "start": 165.863,
      "duration": 0.1165,
      "velocity": 127,
      "chip": "ym2612"
    },
    {
      "channel": 1,
      "note": 50,
      "start": 165.8632,
      "duration": 0.1163,
      "velocity": 88,
      "chip": "ym2612"
    },
    {
      "channel": 0,
      "note": 78,
      "start": 165.9977,
      "duration": 0.1151,
      "velocity": 107,
      "chip": "ym2612"
    },
    {
      "channel": 1,
      "note": 50,
      "start": 165.998,
      "duration": 0.115,
      "velocity": 88,
      "chip": "ym2612"
    },
    {
      "channel": 0,
      "note": 33,
      "start": 166.1311,
      "duration": 0.115,
      "velocity": 127,
      "chip": "ym2612"
    },
    {
      "channel": 1,
      "note": 50,
      "start": 166.1313,
      "duration": 0.1149,
      "velocity": 88,
      "chip": "ym2612"
    },
    {
      "channel": 0,
      "note": 78,
      "start": 166.2644,
      "duration": 0.1151,
      "velocity": 127,
      "chip": "ym2612"
    },
    {
      "channel": 1,
      "note": 50,
      "start": 166.2646,
      "duration": 0.115,
      "velocity": 88,
      "chip": "ym2612"
    },
    {
      "channel": 0,
      "note": 42,
      "start": 166.3978,
      "duration": 0.115,
      "velocity": 107,
      "chip": "ym2612"
    },
    {
      "channel": 1,
      "note": 50,
      "start": 166.3981,
      "duration": 0.1148,
      "velocity": 88,
      "chip": "ym2612"
    },
    {
      "channel": 2,
      "note": 74,
      "start": 166.3983,
      "duration": 0.6481,
      "velocity": 83,
      "chip": "ym2612"
    },
    {
      "channel": 0,
      "note": 33,
      "start": 166.5311,
      "duration": 0.1151,
      "velocity": 127,
      "chip": "ym2612"
    },
    {
      "channel": 1,
      "note": 50,
      "start": 166.5313,
      "duration": 0.115,
      "velocity": 88,
      "chip": "ym2612"
    },
    {
      "channel": 0,
      "note": 78,
      "start": 166.663,
      "duration": 0.1165,
      "velocity": 127,
      "chip": "ym2612"
    },
    {
      "channel": 1,
      "note": 50,
      "start": 166.6633,
      "duration": 0.1163,
      "velocity": 88,
      "chip": "ym2612"
    },
    {
      "channel": 0,
      "note": 78,
      "start": 166.7978,
      "duration": 0.115,
      "velocity": 107,
      "chip": "ym2612"
    },
    {
      "channel": 1,
      "note": 50,
      "start": 166.798,
      "duration": 0.1149,
      "velocity": 88,
      "chip": "ym2612"
    },
    {
      "channel": 0,
      "note": 33,
      "start": 166.931,
      "duration": 0.1151,
      "velocity": 127,
      "chip": "ym2612"
    },
    {
      "channel": 1,
      "note": 50,
      "start": 166.9313,
      "duration": 0.115,
      "velocity": 88,
      "chip": "ym2612"
    },
    {
      "channel": 0,
      "note": 78,
      "start": 167.063,
      "duration": 0.1165,
      "velocity": 127,
      "chip": "ym2612"
    },
    {
      "channel": 1,
      "note": 50,
      "start": 167.0632,
      "duration": 0.1163,
      "velocity": 88,
      "chip": "ym2612"
    },
    {
      "channel": 2,
      "note": 77,
      "start": 167.0635,
      "duration": 0.5162,
      "velocity": 83,
      "chip": "ym2612"
    },
    {
      "channel": 0,
      "note": 78,
      "start": 167.1977,
      "duration": 0.1151,
      "velocity": 127,
      "chip": "ym2612"
    },
    {
      "channel": 1,
      "note": 50,
      "start": 167.198,
      "duration": 0.115,
      "velocity": 88,
      "chip": "ym2612"
    },
    {
      "channel": 0,
      "note": 42,
      "start": 167.3311,
      "duration": 0.1151,
      "velocity": 127,
      "chip": "ym2612"
    },
    {
      "channel": 1,
      "note": 50,
      "start": 167.3313,
      "duration": 0.115,
      "velocity": 88,
      "chip": "ym2612"
    },
    {
      "channel": 0,
      "note": 78,
      "start": 167.463,
      "duration": 0.1165,
      "velocity": 127,
      "chip": "ym2612"
    },
    {
      "channel": 1,
      "note": 50,
      "start": 167.4632,
      "duration": 0.1163,
      "velocity": 88,
      "chip": "ym2612"
    },
    {
      "channel": 0,
      "note": 78,
      "start": 167.5978,
      "duration": 0.115,
      "velocity": 107,
      "chip": "ym2612"
    },
    {
      "channel": 1,
      "note": 50,
      "start": 167.5981,
      "duration": 0.1148,
      "velocity": 88,
      "chip": "ym2612"
    },
    {
      "channel": 2,
      "note": 74,
      "start": 167.5983,
      "duration": 0.2481,
      "velocity": 83,
      "chip": "ym2612"
    },
    {
      "channel": 0,
      "note": 33,
      "start": 167.731,
      "duration": 0.1151,
      "velocity": 127,
      "chip": "ym2612"
    },
    {
      "channel": 1,
      "note": 50,
      "start": 167.7313,
      "duration": 0.115,
      "velocity": 88,
      "chip": "ym2612"
    },
    {
      "channel": 0,
      "note": 78,
      "start": 167.863,
      "duration": 0.1165,
      "velocity": 127,
      "chip": "ym2612"
    },
    {
      "channel": 1,
      "note": 50,
      "start": 167.8632,
      "duration": 0.1164,
      "velocity": 88,
      "chip": "ym2612"
    },
    {
      "channel": 2,
      "note": 71,
      "start": 167.8635,
      "duration": 1.7163,
      "velocity": 83,
      "chip": "ym2612"
    },
    {
      "channel": 0,
      "note": 78,
      "start": 167.9978,
      "duration": 0.1151,
      "velocity": 107,
      "chip": "ym2612"
    },
    {
      "channel": 1,
      "note": 50,
      "start": 167.998,
      "duration": 0.115,
      "velocity": 88,
      "chip": "ym2612"
    },
    {
      "channel": 0,
      "note": 33,
      "start": 168.131,
      "duration": 0.1151,
      "velocity": 127,
      "chip": "ym2612"
    },
    {
      "channel": 1,
      "note": 50,
      "start": 168.1313,
      "duration": 0.115,
      "velocity": 88,
      "chip": "ym2612"
    },
    {
      "channel": 0,
      "note": 78,
      "start": 168.2644,
      "duration": 0.1151,
      "velocity": 127,
      "chip": "ym2612"
    },
    {
      "channel": 1,
      "note": 50,
      "start": 168.2647,
      "duration": 0.115,
      "velocity": 88,
      "chip": "ym2612"
    },
    {
      "channel": 0,
      "note": 42,
      "start": 168.3977,
      "duration": 0.1151,
      "velocity": 107,
      "chip": "ym2612"
    },
    {
      "channel": 1,
      "note": 50,
      "start": 168.398,
      "duration": 0.115,
      "velocity": 88,
      "chip": "ym2612"
    },
    {
      "channel": 0,
      "note": 33,
      "start": 168.5311,
      "duration": 0.1151,
      "velocity": 127,
      "chip": "ym2612"
    },
    {
      "channel": 1,
      "note": 47,
      "start": 168.5313,
      "duration": 0.115,
      "velocity": 88,
      "chip": "ym2612"
    },
    {
      "channel": 0,
      "note": 78,
      "start": 168.6629,
      "duration": 0.1167,
      "velocity": 127,
      "chip": "ym2612"
    },
    {
      "channel": 1,
      "note": 59,
      "start": 168.6632,
      "duration": 0.1165,
      "velocity": 88,
      "chip": "ym2612"
    },
    {
      "channel": 0,
      "note": 78,
      "start": 168.7977,
      "duration": 0.1151,
      "velocity": 127,
      "chip": "ym2612"
    },
    {
      "channel": 1,
      "note": 47,
      "start": 168.798,
      "duration": 0.115,
      "velocity": 88,
      "chip": "ym2612"
    },
    {
      "channel": 0,
      "note": 42,
      "start": 168.9311,
      "duration": 0.115,
      "velocity": 127,
      "chip": "ym2612"
    },
    {
      "channel": 1,
      "note": 48,
      "start": 168.9313,
      "duration": 0.1149,
      "velocity": 88,
      "chip": "ym2612"
    },
    {
      "channel": 0,
      "note": 78,
      "start": 169.063,
      "duration": 0.1165,
      "velocity": 127,
      "chip": "ym2612"
    },
    {
      "channel": 1,
      "note": 60,
      "start": 169.0632,
      "duration": 0.1163,
      "velocity": 88,
      "chip": "ym2612"
    },
    {
      "channel": 0,
      "note": 78,
      "start": 169.1977,
      "duration": 0.1151,
      "velocity": 107,
      "chip": "ym2612"
    },
    {
      "channel": 1,
      "note": 48,
      "start": 169.198,
      "duration": 0.115,
      "velocity": 88,
      "chip": "ym2612"
    },
    {
      "channel": 0,
      "note": 33,
      "start": 169.3311,
      "duration": 0.115,
      "velocity": 127,
      "chip": "ym2612"
    },
    {
      "channel": 1,
      "note": 49,
      "start": 169.3313,
      "duration": 0.1149,
      "velocity": 88,
      "chip": "ym2612"
    },
    {
      "channel": 0,
      "note": 78,
      "start": 169.4644,
      "duration": 0.1151,
      "velocity": 127,
      "chip": "ym2612"
    },
    {
      "channel": 1,
      "note": 61,
      "start": 169.4646,
      "duration": 0.115,
      "velocity": 88,
      "chip": "ym2612"
    },
    {
      "channel": 0,
      "note": 42,
      "start": 169.5978,
      "duration": 0.115,
      "velocity": 107,
      "chip": "ym2612"
    },
    {
      "channel": 1,
      "note": 49,
      "start": 169.5981,
      "duration": 0.1148,
      "velocity": 88,
      "chip": "ym2612"
    },
    {
      "channel": 2,
      "note": 70,
      "start": 169.5983,
      "duration": 0.6481,
      "velocity": 83,
      "chip": "ym2612"
    },
    {
      "channel": 0,
      "note": 33,
      "start": 169.7311,
      "duration": 0.1151,
      "velocity": 127,
      "chip": "ym2612"
    },
    {
      "channel": 1,
      "note": 47,
      "start": 169.7313,
      "duration": 0.115,
      "velocity": 88,
      "chip": "ym2612"
    },
    {
      "channel": 0,
      "note": 78,
      "start": 169.863,
      "duration": 0.1165,
      "velocity": 127,
      "chip": "ym2612"
    },
    {
      "channel": 1,
      "note": 47,
      "start": 169.8633,
      "duration": 0.1163,
      "velocity": 88,
      "chip": "ym2612"
    },
    {
      "channel": 0,
      "note": 78,
      "start": 169.9978,
      "duration": 0.115,
      "velocity": 107,
      "chip": "ym2612"
    },
    {
      "channel": 1,
      "note": 47,
      "start": 169.998,
      "duration": 0.1149,
      "velocity": 88,
      "chip": "ym2612"
    },
    {
      "channel": 0,
      "note": 33,
      "start": 170.131,
      "duration": 0.1151,
      "velocity": 127,
      "chip": "ym2612"
    },
    {
      "channel": 1,
      "note": 47,
      "start": 170.1313,
      "duration": 0.115,
      "velocity": 88,
      "chip": "ym2612"
    },
    {
      "channel": 0,
      "note": 78,
      "start": 170.263,
      "duration": 0.1165,
      "velocity": 127,
      "chip": "ym2612"
    },
    {
      "channel": 1,
      "note": 47,
      "start": 170.2632,
      "duration": 0.1163,
      "velocity": 88,
      "chip": "ym2612"
    },
    {
      "channel": 2,
      "note": 83,
      "start": 170.2635,
      "duration": 0.5162,
      "velocity": 83,
      "chip": "ym2612"
    },
    {
      "channel": 0,
      "note": 78,
      "start": 170.3977,
      "duration": 0.1151,
      "velocity": 127,
      "chip": "ym2612"
    },
    {
      "channel": 1,
      "note": 47,
      "start": 170.398,
      "duration": 0.115,
      "velocity": 88,
      "chip": "ym2612"
    },
    {
      "channel": 0,
      "note": 42,
      "start": 170.5311,
      "duration": 0.115,
      "velocity": 127,
      "chip": "ym2612"
    },
    {
      "channel": 1,
      "note": 47,
      "start": 170.5313,
      "duration": 0.1149,
      "velocity": 88,
      "chip": "ym2612"
    },
    {
      "channel": 0,
      "note": 78,
      "start": 170.663,
      "duration": 0.1165,
      "velocity": 127,
      "chip": "ym2612"
    },
    {
      "channel": 1,
      "note": 47,
      "start": 170.6632,
      "duration": 0.1163,
      "velocity": 88,
      "chip": "ym2612"
    },
    {
      "channel": 0,
      "note": 78,
      "start": 170.7978,
      "duration": 0.1151,
      "velocity": 107,
      "chip": "ym2612"
    },
    {
      "channel": 1,
      "note": 47,
      "start": 170.798,
      "duration": 0.115,
      "velocity": 88,
      "chip": "ym2612"
    },
    {
      "channel": 2,
      "note": 74,
      "start": 170.7983,
      "duration": 0.2481,
      "velocity": 83,
      "chip": "ym2612"
    },
    {
      "channel": 0,
      "note": 33,
      "start": 170.931,
      "duration": 0.1151,
      "velocity": 127,
      "chip": "ym2612"
    },
    {
      "channel": 1,
      "note": 54,
      "start": 170.9313,
      "duration": 0.115,
      "velocity": 88,
      "chip": "ym2612"
    },
    {
      "channel": 0,
      "note": 78,
      "start": 171.063,
      "duration": 0.1165,
      "velocity": 127,
      "chip": "ym2612"
    },
    {
      "channel": 1,
      "note": 47,
      "start": 171.0633,
      "duration": 0.1163,
      "velocity": 88,
      "chip": "ym2612"
    },
    {
      "channel": 2,
      "note": 71,
      "start": 171.0635,
      "duration": 1.5829,
      "velocity": 83,
      "chip": "ym2612"
    },
    {
      "channel": 0,
      "note": 78,
      "start": 171.1978,
      "duration": 0.115,
      "velocity": 107,
      "chip": "ym2612"
    },
    {
      "channel": 1,
      "note": 56,
      "start": 171.198,
      "duration": 0.1149,
      "velocity": 88,
      "chip": "ym2612"
    },
    {
      "channel": 0,
      "note": 33,
      "start": 171.331,
      "duration": 0.1151,
      "velocity": 127,
      "chip": "ym2612"
    },
    {
      "channel": 1,
      "note": 47,
      "start": 171.3313,
      "duration": 0.115,
      "velocity": 88,
      "chip": "ym2612"
    },
    {
      "channel": 0,
      "note": 78,
      "start": 171.463,
      "duration": 0.1165,
      "velocity": 127,
      "chip": "ym2612"
    },
    {
      "channel": 1,
      "note": 47,
      "start": 171.4633,
      "duration": 0.1163,
      "velocity": 88,
      "chip": "ym2612"
    },
    {
      "channel": 0,
      "note": 78,
      "start": 171.5978,
      "duration": 0.115,
      "velocity": 107,
      "chip": "ym2612"
    },
    {
      "channel": 1,
      "note": 47,
      "start": 171.598,
      "duration": 0.1149,
      "velocity": 88,
      "chip": "ym2612"
    },
    {
      "channel": 0,
      "note": 33,
      "start": 171.731,
      "duration": 0.1151,
      "velocity": 127,
      "chip": "ym2612"
    },
    {
      "channel": 1,
      "note": 44,
      "start": 171.7313,
      "duration": 0.115,
      "velocity": 88,
      "chip": "ym2612"
    },
    {
      "channel": 0,
      "note": 78,
      "start": 171.863,
      "duration": 0.1165,
      "velocity": 127,
      "chip": "ym2612"
    },
    {
      "channel": 1,
      "note": 56,
      "start": 171.8633,
      "duration": 0.1163,
      "velocity": 88,
      "chip": "ym2612"
    },
    {
      "channel": 0,
      "note": 78,
      "start": 171.9978,
      "duration": 0.1151,
      "velocity": 127,
      "chip": "ym2612"
    },
    {
      "channel": 1,
      "note": 44,
      "start": 171.998,
      "duration": 0.1149,
      "velocity": 88,
      "chip": "ym2612"
    },
    {
      "channel": 0,
      "note": 42,
      "start": 172.131,
      "duration": 0.1151,
      "velocity": 127,
      "chip": "ym2612"
    },
    {
      "channel": 1,
      "note": 45,
      "start": 172.1313,
      "duration": 0.115,
      "velocity": 88,
      "chip": "ym2612"
    },
    {
      "channel": 0,
      "note": 78,
      "start": 172.263,
      "duration": 0.1165,
      "velocity": 127,
      "chip": "ym2612"
    },
    {
      "channel": 1,
      "note": 57,
      "start": 172.2633,
      "duration": 0.1163,
      "velocity": 88,
      "chip": "ym2612"
    },
    {
      "channel": 0,
      "note": 78,
      "start": 172.3978,
      "duration": 0.115,
      "velocity": 107,
      "chip": "ym2612"
    },
    {
      "channel": 1,
      "note": 45,
      "start": 172.398,
      "duration": 0.1149,
      "velocity": 88,
      "chip": "ym2612"
    },
    {
      "channel": 0,
      "note": 33,
      "start": 172.531,
      "duration": 0.1151,
      "velocity": 127,
      "chip": "ym2612"
    },
    {
      "channel": 1,
      "note": 46,
      "start": 172.5313,
      "duration": 0.115,
      "velocity": 88,
      "chip": "ym2612"
    },
    {
      "channel": 0,
      "note": 78,
      "start": 172.6645,
      "duration": 0.115,
      "velocity": 127,
      "chip": "ym2612"
    },
    {
      "channel": 1,
      "note": 58,
      "start": 172.6647,
      "duration": 0.1149,
      "velocity": 88,
      "chip": "ym2612"
    },
    {
      "channel": 2,
      "note": 74,
      "start": 172.665,
      "duration": 0.1148,
      "velocity": 83,
      "chip": "ym2612"
    },
    {
      "channel": 0,
      "note": 42,
      "start": 172.7978,
      "duration": 0.115,
      "velocity": 107,
      "chip": "ym2612"
    },
    {
      "channel": 1,
      "note": 46,
      "start": 172.7981,
      "duration": 0.1148,
      "velocity": 88,
      "chip": "ym2612"
    },
    {
      "channel": 2,
      "note": 74,
      "start": 172.7983,
      "duration": 0.1147,
      "velocity": 83,
      "chip": "ym2612"
    },
    {
      "channel": 0,
      "note": 33,
      "start": 172.9312,
      "duration": 0.1149,
      "velocity": 127,
      "chip": "ym2612"
    },
    {
      "channel": 1,
      "note": 52,
      "start": 172.9314,
      "duration": 0.1148,
      "velocity": 88,
      "chip": "ym2612"
    },
    {
      "channel": 2,
      "note": 83,
      "start": 172.9317,
      "duration": 0.048,
      "velocity": 83,
      "chip": "ym2612"
    },
    {
      "channel": 2,
      "note": 78,
      "start": 172.9963,
      "duration": 0.05,
      "velocity": 83,
      "chip": "ym2612"
    },
    {
      "channel": 0,
      "note": 78,
      "start": 173.063,
      "duration": 0.1165,
      "velocity": 127,
      "chip": "ym2612"
    },
    {
      "channel": 1,
      "note": 52,
      "start": 173.0633,
      "duration": 0.1163,
      "velocity": 88,
      "chip": "ym2612"
    },
    {
      "channel": 2,
      "note": 77,
      "start": 173.0635,
      "duration": 0.1161,
      "velocity": 83,
      "chip": "ym2612"
    },
    {
      "channel": 0,
      "note": 78,
      "start": 173.1978,
      "duration": 0.1149,
      "velocity": 107,
      "chip": "ym2612"
    },
    {
      "channel": 1,
      "note": 52,
      "start": 173.1981,
      "duration": 0.1148,
      "velocity": 88,
      "chip": "ym2612"
    },
    {
      "channel": 2,
      "note": 76,
      "start": 173.1983,
      "duration": 0.1147,
      "velocity": 83,
      "chip": "ym2612"
    },
    {
      "channel": 0,
      "note": 33,
      "start": 173.3311,
      "duration": 0.115,
      "velocity": 127,
      "chip": "ym2612"
    },
    {
      "channel": 1,
      "note": 49,
      "start": 173.3313,
      "duration": 0.1149,
      "velocity": 88,
      "chip": "ym2612"
    },
    {
      "channel": 2,
      "note": 86,
      "start": 173.3316,
      "duration": 0.0481,
      "velocity": 83,
      "chip": "ym2612"
    },
    {
      "channel": 2,
      "note": 83,
      "start": 173.3963,
      "duration": 0.05,
      "velocity": 83,
      "chip": "ym2612"
    },
    {
      "channel": 0,
      "note": 78,
      "start": 173.463,
      "duration": 0.1165,
      "velocity": 127,
      "chip": "ym2612"
    },
    {
      "channel": 1,
      "note": 49,
      "start": 173.4633,
      "duration": 0.1163,
      "velocity": 88,
      "chip": "ym2612"
    },
    {
      "channel": 2,
      "note": 81,
      "start": 173.4635,
      "duration": 0.1161,
      "velocity": 83,
      "chip": "ym2612"
    },
    {
      "channel": 0,
      "note": 78,
      "start": 173.5978,
      "duration": 0.1151,
      "velocity": 127,
      "chip": "ym2612"
    },
    {
      "channel": 1,
      "note": 49,
      "start": 173.5981,
      "duration": 0.1149,
      "velocity": 88,
      "chip": "ym2612"
    },
    {
      "channel": 2,
      "note": 78,
      "start": 173.5983,
      "duration": 0.1148,
      "velocity": 83,
      "chip": "ym2612"
    },
    {
      "channel": 0,
      "note": 42,
      "start": 173.7311,
      "duration": 0.1151,
      "velocity": 127,
      "chip": "ym2612"
    },
    {
      "channel": 1,
      "note": 50,
      "start": 173.7313,
      "duration": 0.115,
      "velocity": 88,
      "chip": "ym2612"
    },
    {
      "channel": 2,
      "note": 83,
      "start": 173.7316,
      "duration": 0.048,
      "velocity": 83,
      "chip": "ym2612"
    },
    {
      "channel": 2,
      "note": 76,
      "start": 173.7962,
      "duration": 0.0502,
      "velocity": 83,
      "chip": "ym2612"
    },
    {
      "channel": 0,
      "note": 78,
      "start": 173.863,
      "duration": 0.1165,
      "velocity": 127,
      "chip": "ym2612"
    },
    {
      "channel": 1,
      "note": 50,
      "start": 173.8632,
      "duration": 0.1163,
      "velocity": 88,
      "chip": "ym2612"
    },
    {
      "channel": 2,
      "note": 78,
      "start": 173.8635,
      "duration": 0.1162,
      "velocity": 83,
      "chip": "ym2612"
    },
    {
      "channel": 0,
      "note": 78,
      "start": 173.9978,
      "duration": 0.1151,
      "velocity": 107,
      "chip": "ym2612"
    },
    {
      "channel": 1,
      "note": 50,
      "start": 173.998,
      "duration": 0.115,
      "velocity": 88,
      "chip": "ym2612"
    },
    {
      "channel": 2,
      "note": 74,
      "start": 173.9983,
      "duration": 0.1149,
      "velocity": 83,
      "chip": "ym2612"
    },
    {
      "channel": 0,
      "note": 33,
      "start": 174.1311,
      "duration": 0.1151,
      "velocity": 127,
      "chip": "ym2612"
    },
    {
      "channel": 1,
      "note": 52,
      "start": 174.1313,
      "duration": 0.115,
      "velocity": 88,
      "chip": "ym2612"
    },
    {
      "channel": 2,
      "note": 78,
      "start": 174.1316,
      "duration": 0.048,
      "velocity": 83,
      "chip": "ym2612"
    },
    {
      "channel": 2,
      "note": 76,
      "start": 174.1962,
      "duration": 0.0502,
      "velocity": 83,
      "chip": "ym2612"
    },
    {
      "channel": 0,
      "note": 78,
      "start": 174.263,
      "duration": 0.1165,
      "velocity": 127,
      "chip": "ym2612"
    },
    {
      "channel": 1,
      "note": 52,
      "start": 174.2632,
      "duration": 0.1163,
      "velocity": 88,
      "chip": "ym2612"
    },
    {
      "channel": 2,
      "note": 74,
      "start": 174.2635,
      "duration": 0.1162,
      "velocity": 83,
      "chip": "ym2612"
    },
    {
      "channel": 0,
      "note": 78,
      "start": 174.3978,
      "duration": 0.1149,
      "velocity": 107,
      "chip": "ym2612"
    },
    {
      "channel": 1,
      "note": 52,
      "start": 174.3981,
      "duration": 0.1148,
      "velocity": 88,
      "chip": "ym2612"
    },
    {
      "channel": 2,
      "note": 71,
      "start": 174.3983,
      "duration": 0.048,
      "velocity": 83,
      "chip": "ym2612"
    },
    {
      "channel": 2,
      "note": 88,
      "start": 174.463,
      "duration": 0.05,
      "velocity": 83,
      "chip": "ym2612"
    },
    {
      "channel": 0,
      "note": 33,
      "start": 174.5311,
      "duration": 0.1151,
      "velocity": 127,
      "chip": "ym2612"
    },
    {
      "channel": 1,
      "note": 54,
      "start": 174.5313,
      "duration": 0.1149,
      "velocity": 88,
      "chip": "ym2612"
    },
    {
      "channel": 2,
      "note": 83,
      "start": 174.5316,
      "duration": 0.0479,
      "velocity": 83,
      "chip": "ym2612"
    },
    {
      "channel": 2,
      "note": 86,
      "start": 174.5963,
      "duration": 0.05,
      "velocity": 83,
      "chip": "ym2612"
    },
    {
      "channel": 0,
      "note": 78,
      "start": 174.6645,
      "duration": 0.115,
      "velocity": 127,
      "chip": "ym2612"
    },
    {
      "channel": 1,
      "note": 54,
      "start": 174.6647,
      "duration": 0.1148,
      "velocity": 88,
      "chip": "ym2612"
    },
    {
      "channel": 2,
      "note": 81,
      "start": 174.665,
      "duration": 0.0478,
      "velocity": 83,
      "chip": "ym2612"
    },
    {
      "channel": 2,
      "note": 83,
      "start": 174.7296,
      "duration": 0.05,
      "velocity": 83,
      "chip": "ym2612"
    },
    {
      "channel": 0,
      "note": 42,
      "start": 174.7978,
      "duration": 0.115,
      "velocity": 107,
      "chip": "ym2612"
    },
    {
      "channel": 1,
      "note": 54,
      "start": 174.7981,
      "duration": 0.1149,
      "velocity": 88,
      "chip": "ym2612"
    },
    {
      "channel": 2,
      "note": 78,
      "start": 174.7983,
      "duration": 0.0479,
      "velocity": 83,
      "chip": "ym2612"
    },
    {
      "channel": 2,
      "note": 81,
      "start": 174.863,
      "duration": 0.05,
      "velocity": 83,
      "chip": "ym2612"
    },
    {
      "channel": 0,
      "note": 33,
      "start": 174.9312,
      "duration": 0.115,
      "velocity": 127,
      "chip": "ym2612"
    },
    {
      "channel": 1,
      "note": 51,
      "start": 174.9314,
      "duration": 0.1148,
      "velocity": 88,
      "chip": "ym2612"
    },
    {
      "channel": 2,
      "note": 76,
      "start": 174.9317,
      "duration": 0.0479,
      "velocity": 83,
      "chip": "ym2612"
    },
    {
      "channel": 2,
      "note": 78,
      "start": 174.9963,
      "duration": 0.05,
      "velocity": 83,
      "chip": "ym2612"
    },
    {
      "channel": 0,
      "note": 78,
      "start": 175.063,
      "duration": 0.1165,
      "velocity": 127,
      "chip": "ym2612"
    },
    {
      "channel": 1,
      "note": 63,
      "start": 175.0633,
      "duration": 0.1163,
      "velocity": 88,
      "chip": "ym2612"
    },
    {
      "channel": 2,
      "note": 74,
      "start": 175.0635,
      "duration": 0.0494,
      "velocity": 83,
      "chip": "ym2612"
    },
    {
      "channel": 2,
      "note": 76,
      "start": 175.1296,
      "duration": 0.05,
      "velocity": 83,
      "chip": "ym2612"
    },
    {
      "channel": 0,
      "note": 78,
      "start": 175.1977,
      "duration": 0.1151,
      "velocity": 127,
      "chip": "ym2612"
    },
    {
      "channel": 1,
      "note": 51,
      "start": 175.198,
      "duration": 0.115,
      "velocity": 88,
      "chip": "ym2612"
    },
    {
      "channel": 2,
      "note": 71,
      "start": 175.1982,
      "duration": 0.048,
      "velocity": 83,
      "chip": "ym2612"
    },
    {
      "channel": 2,
      "note": 74,
      "start": 175.263,
      "duration": 0.05,
      "velocity": 83,
      "chip": "ym2612"
    },
    {
      "channel": 0,
      "note": 42,
      "start": 175.3312,
      "duration": 0.115,
      "velocity": 127,
      "chip": "ym2612"
    },
    {
      "channel": 1,
      "note": 52,
      "start": 175.3314,
      "duration": 0.1148,
      "velocity": 88,
      "chip": "ym2612"
    },
    {
      "channel": 2,
      "note": 71,
      "start": 175.3317,
      "duration": 0.0479,
      "velocity": 83,
      "chip": "ym2612"
    },
    {
      "channel": 2,
      "note": 74,
      "start": 175.3963,
      "duration": 0.05,
      "velocity": 83,
      "chip": "ym2612"
    },
    {
      "channel": 0,
      "note": 78,
      "start": 175.463,
      "duration": 0.1165,
      "velocity": 127,
      "chip": "ym2612"
    },
    {
      "channel": 1,
      "note": 64,
      "start": 175.4633,
      "duration": 0.1163,
      "velocity": 88,
      "chip": "ym2612"
    },
    {
      "channel": 2,
      "note": 78,
      "start": 175.4635,
      "duration": 0.0494,
      "velocity": 83,
      "chip": "ym2612"
    },
    {
      "channel": 2,
      "note": 76,
      "start": 175.5296,
      "duration": 0.05,
      "velocity": 83,
      "chip": "ym2612"
    },
    {
      "channel": 0,
      "note": 78,
      "start": 175.5977,
      "duration": 0.1151,
      "velocity": 107,
      "chip": "ym2612"
    },
    {
      "channel": 1,
      "note": 52,
      "start": 175.598,
      "duration": 0.1149,
      "velocity": 88,
      "chip": "ym2612"
    },
    {
      "channel": 2,
      "note": 81,
      "start": 175.5982,
      "duration": 0.048,
      "velocity": 83,
      "chip": "ym2612"
    },
    {
      "channel": 2,
      "note": 83,
      "start": 175.663,
      "duration": 0.05,
      "velocity": 83,
      "chip": "ym2612"
    },
    {
      "channel": 0,
      "note": 33,
      "start": 175.7312,
      "duration": 0.1149,
      "velocity": 127,
      "chip": "ym2612"
    },
    {
      "channel": 1,
      "note": 54,
      "start": 175.7314,
      "duration": 0.1148,
      "velocity": 88,
      "chip": "ym2612"
    },
    {
      "channel": 2,
      "note": 86,
      "start": 175.7317,
      "duration": 0.048,
      "velocity": 83,
      "chip": "ym2612"
    },
    {
      "channel": 2,
      "note": 88,
      "start": 175.7963,
      "duration": 0.05,
      "velocity": 83,
      "chip": "ym2612"
    },
    {
      "channel": 0,
      "note": 78,
      "start": 175.8644,
      "duration": 0.1151,
      "velocity": 127,
      "chip": "ym2612"
    },
    {
      "channel": 1,
      "note": 66,
      "start": 175.8647,
      "duration": 0.115,
      "velocity": 88,
      "chip": "ym2612"
    },
    {
      "channel": 2,
      "note": 89,
      "start": 175.8649,
      "duration": 0.0481,
      "velocity": 83,
      "chip": "ym2612"
    },
    {
      "channel": 2,
      "note": 83,
      "start": 175.9296,
      "duration": 0.05,
      "velocity": 83,
      "chip": "ym2612"
    },
    {
      "channel": 0,
      "note": 42,
      "start": 175.9982,
      "duration": 0.1146,
      "velocity": 102,
      "chip": "ym2612"
    },
    {
      "channel": 1,
      "note": 54,
      "start": 175.9999,
      "duration": 0.113,
      "velocity": 88,
      "chip": "ym2612"
    },
    {
      "channel": 2,
      "note": 76,
      "start": 176.0016,
      "duration": 0.1114,
      "velocity": 102,
      "chip": "ym2612"
    },
    {
      "channel": 0,
      "note": 102,
      "start": 176.1297,
      "duration": 0.1165,
      "velocity": 102,
      "chip": "ym2612"
    },
    {
      "channel": 1,
      "note": 69,
      "start": 176.13,
      "duration": 0.1163,
      "velocity": 88,
      "chip": "ym2612"
    },
    {
      "channel": 2,
      "note": 109,
      "start": 176.1302,
      "duration": 0.1161,
      "velocity": 102,
      "chip": "ym2612"
    }
  ]
}