{
  "track_name": "05 - Biff",
  "duration_sec": 65.197,
  "sample_rate": 44100,
  "note_count": 1410,
  "unique_pitches": 92,
  "pitch_range": 95,
  "avg_note_duration": 0.2282,
  "reconstruction_stats": {
    "notes_reconstructed": 1410,
    "keyon_events": 1410,
    "keyoff_events": 545,
    "orphan_keyons": 5,
    "unique_pitches": 92,
    "pitch_range": 95,
    "avg_duration_sec": 0.2282
  },
  "metadata": {
    "source": "S\\Street Racer\\05 - Biff.vgz"
  },
  "notes": [
    {
      "channel": 0,
      "note": -1,
      "start": 0.0,
      "duration": 65.1966,
      "velocity": 1,
      "chip": "ym2612"
    },
    {
      "channel": 1,
      "note": 38,
      "start": 0.0,
      "duration": 0.4421,
      "velocity": 98,
      "chip": "ym2612"
    },
    {
      "channel": 1,
      "note": 38,
      "start": 0.4423,
      "duration": 0.046,
      "velocity": 98,
      "chip": "ym2612"
    },
    {
      "channel": 1,
      "note": 41,
      "start": 0.4885,
      "duration": 0.0009,
      "velocity": 98,
      "chip": "ym2612"
    },
    {
      "channel": 1,
      "note": 41,
      "start": 0.4896,
      "duration": 0.2446,
      "velocity": 98,
      "chip": "ym2612"
    },
    {
      "channel": 1,
      "note": 38,
      "start": 0.7344,
      "duration": 0.1116,
      "velocity": 98,
      "chip": "ym2612"
    },
    {
      "channel": 1,
      "note": 38,
      "start": 0.8462,
      "duration": 0.1164,
      "velocity": 98,
      "chip": "ym2612"
    },
    {
      "channel": 1,
      "note": 41,
      "start": 0.9628,
      "duration": 0.0984,
      "velocity": 98,
      "chip": "ym2612"
    },
    {
      "channel": 1,
      "note": 43,
      "start": 1.0613,
      "duration": 0.0469,
      "velocity": 98,
      "chip": "ym2612"
    },
    {
      "channel": 1,
      "note": 41,
      "start": 1.1084,
      "duration": 0.1117,
      "velocity": 98,
      "chip": "ym2612"
    },
    {
      "channel": 1,
      "note": 38,
      "start": 1.2203,
      "duration": 0.2495,
      "velocity": 98,
      "chip": "ym2612"
    },
    {
      "channel": 4,
      "note": 50,
      "start": 1.2229,
      "duration": 1.0251,
      "velocity": 74,
      "chip": "ym2612"
    },
    {
      "channel": 2,
      "note": 79,
      "start": 1.468,
      "duration": 0.0008,
      "velocity": 74,
      "chip": "ym2612"
    },
    {
      "channel": 2,
      "note": 79,
      "start": 1.4688,
      "duration": 0.0001,
      "velocity": 74,
      "chip": "ym2612"
    },
    {
      "channel": 2,
      "note": 79,
      "start": 1.4689,
      "duration": 0.0002,
      "velocity": 74,
      "chip": "ym2612"
    },
    {
      "channel": 2,
      "note": 79,
      "start": 1.4691,
      "duration": 0.0002,
      "velocity": 74,
      "chip": "ym2612"
    },
    {
      "channel": 2,
      "note": 79,
      "start": 1.4693,
      "duration": 0.0002,
      "velocity": 74,
      "chip": "ym2612"
    },
    {
      "channel": 2,
      "note": 80,
      "start": 1.4695,
      "duration": 0.0006,
      "velocity": 74,
      "chip": "ym2612"
    },
    {
      "channel": 1,
      "note": 38,
      "start": 1.47,
      "duration": 0.1105,
      "velocity": 98,
      "chip": "ym2612"
    },
    {
      "channel": 2,
      "note": 81,
      "start": 1.4703,
      "duration": 0.1108,
      "velocity": 74,
      "chip": "ym2612"
    },
    {
      "channel": 3,
      "note": 79,
      "start": 1.4824,
      "duration": 0.0998,
      "velocity": 74,
      "chip": "ym2612"
    },
    {
      "channel": 1,
      "note": 41,
      "start": 1.5807,
      "duration": 0.0462,
      "velocity": 98,
      "chip": "ym2612"
    },
    {
      "channel": 2,
      "note": 77,
      "start": 1.5814,
      "duration": 0.0462,
      "velocity": 74,
      "chip": "ym2612"
    },
    {
      "channel": 3,
      "note": 79,
      "start": 1.5822,
      "duration": 0.0002,
      "velocity": 74,
      "chip": "ym2612"
    },
    {
      "channel": 3,
      "note": 79,
      "start": 1.5824,
      "duration": 0.0002,
      "velocity": 74,
      "chip": "ym2612"
    },
    {
      "channel": 3,
      "note": 79,
      "start": 1.5826,
      "duration": 0.0002,
      "velocity": 74,
      "chip": "ym2612"
    },
    {
      "channel": 3,
      "note": 79,
      "start": 1.5828,
      "duration": 0.0002,
      "velocity": 74,
      "chip": "ym2612"
    },
    {
      "channel": 3,
      "note": 80,
      "start": 1.583,
      "duration": 0.0002,
      "velocity": 74,
      "chip": "ym2612"
    },
    {
      "channel": 3,
      "note": 81,
      "start": 1.5833,
      "duration": 0.0453,
      "velocity": 74,
      "chip": "ym2612"
    },
    {
      "channel": 1,
      "note": 41,
      "start": 1.6271,
      "duration": 0.0479,
      "velocity": 98,
      "chip": "ym2612"
    },
    {
      "channel": 2,
      "note": 74,
      "start": 1.6278,
      "duration": 0.0454,
      "velocity": 74,
      "chip": "ym2612"
    },
    {
      "channel": 3,
      "note": 77,
      "start": 1.6288,
      "duration": 0.0456,
      "velocity": 74,
      "chip": "ym2612"
    },
    {
      "channel": 2,
      "note": 72,
      "start": 1.6735,
      "duration": 0.0019,
      "velocity": 74,
      "chip": "ym2612"
    },
    {
      "channel": 3,
      "note": 74,
      "start": 1.6745,
      "duration": 0.0134,
      "velocity": 74,
      "chip": "ym2612"
    },
    {
      "channel": 1,
      "note": 38,
      "start": 1.6752,
      "duration": 0.1588,
      "velocity": 98,
      "chip": "ym2612"
    },
    {
      "channel": 2,
      "note": 74,
      "start": 1.6756,
      "duration": 0.259,
      "velocity": 74,
      "chip": "ym2612"
    },
    {
      "channel": 3,
      "note": 72,
      "start": 1.6881,
      "duration": 0.1001,
      "velocity": 74,
      "chip": "ym2612"
    },
    {
      "channel": 3,
      "note": 74,
      "start": 1.7884,
      "duration": 0.249,
      "velocity": 74,
      "chip": "ym2612"
    },
    {
      "channel": 1,
      "note": 38,
      "start": 1.8343,
      "duration": 0.1998,
      "velocity": 98,
      "chip": "ym2612"
    },
    {
      "channel": 2,
      "note": 73,
      "start": 1.9346,
      "duration": 0.0157,
      "velocity": 74,
      "chip": "ym2612"
    },
    {
      "channel": 2,
      "note": 72,
      "start": 1.9503,
      "duration": 0.0167,
      "velocity": 74,
      "chip": "ym2612"
    },
    {
      "channel": 2,
      "note": 70,
      "start": 1.967,
      "duration": 0.0167,
      "velocity": 74,
      "chip": "ym2612"
    },
    {
      "channel": 2,
      "note": 69,
      "start": 1.9836,
      "duration": 0.0167,
      "velocity": 74,
      "chip": "ym2612"
    },
    {
      "channel": 2,
      "note": 68,
      "start": 2.0003,
      "duration": 0.0349,
      "velocity": 74,
      "chip": "ym2612"
    },
    {
      "channel": 1,
      "note": 41,
      "start": 2.0343,
      "duration": 0.1149,
      "velocity": 98,
      "chip": "ym2612"
    },
    {
      "channel": 2,
      "note": 67,
      "start": 2.0352,
      "duration": 0.0002,
      "velocity": 74,
      "chip": "ym2612"
    },
    {
      "channel": 2,
      "note": 66,
      "start": 2.0354,
      "duration": 0.0002,
      "velocity": 74,
      "chip": "ym2612"
    },
    {
      "channel": 2,
      "note": 65,
      "start": 2.0356,
      "duration": 0.0002,
      "velocity": 74,
      "chip": "ym2612"
    },
    {
      "channel": 2,
      "note": 64,
      "start": 2.0358,
      "duration": 0.0003,
      "velocity": 74,
      "chip": "ym2612"
    },
    {
      "channel": 2,
      "note": 63,
      "start": 2.0361,
      "duration": 0.0002,
      "velocity": 74,
      "chip": "ym2612"
    },
    {
      "channel": 2,
      "note": 62,
      "start": 2.0362,
      "duration": 0.0002,
      "velocity": 74,
      "chip": "ym2612"
    },
    {
      "channel": 2,
      "note": 61,
      "start": 2.0364,
      "duration": 0.0002,
      "velocity": 74,
      "chip": "ym2612"
    },
    {
      "channel": 2,
      "note": 60,
      "start": 2.0366,
      "duration": 0.0002,
      "velocity": 74,
      "chip": "ym2612"
    },
    {
      "channel": 2,
      "note": 58,
      "start": 2.0368,
      "duration": 0.0002,
      "velocity": 74,
      "chip": "ym2612"
    },
    {
      "channel": 2,
      "note": 57,
      "start": 2.037,
      "duration": 0.0002,
      "velocity": 74,
      "chip": "ym2612"
    },
    {
      "channel": 2,
      "note": 56,
      "start": 2.0372,
      "duration": 0.0004,
      "velocity": 74,
      "chip": "ym2612"
    },
    {
      "channel": 3,
      "note": 73,
      "start": 2.0373,
      "duration": 0.0004,
      "velocity": 74,
      "chip": "ym2612"
    },
    {
      "channel": 2,
      "note": 55,
      "start": 2.0376,
      "duration": 0.0004,
      "velocity": 74,
      "chip": "ym2612"
    },
    {
      "channel": 3,
      "note": 72,
      "start": 2.0378,
      "duration": 0.0004,
      "velocity": 74,
      "chip": "ym2612"
    },
    {
      "channel": 2,
      "note": 54,
      "start": 2.038,
      "duration": 0.0004,
      "velocity": 74,
      "chip": "ym2612"
    },
    {
      "channel": 3,
      "note": 70,
      "start": 2.0381,
      "duration": 0.0005,
      "velocity": 74,
      "chip": "ym2612"
    },
    {
      "channel": 2,
      "note": 53,
      "start": 2.0384,
      "duration": 0.0004,
      "velocity": 74,
      "chip": "ym2612"
    },
    {
      "channel": 3,
      "note": 69,
      "start": 2.0386,
      "duration": 0.0004,
      "velocity": 74,
      "chip": "ym2612"
    },
    {
      "channel": 2,
      "note": 52,
      "start": 2.0388,
      "duration": 0.0107,
      "velocity": 74,
      "chip": "ym2612"
    },
    {
      "channel": 3,
      "note": 68,
      "start": 2.039,
      "duration": 0.0109,
      "velocity": 74,
      "chip": "ym2612"
    },
    {
      "channel": 2,
      "note": 51,
      "start": 2.0495,
      "duration": 0.0159,
      "velocity": 74,
      "chip": "ym2612"
    },
    {
      "channel": 3,
      "note": 67,
      "start": 2.0499,
      "duration": 0.0159,
      "velocity": 74,
      "chip": "ym2612"
    },
    {
      "channel": 2,
      "note": 50,
      "start": 2.0654,
      "duration": 0.0166,
      "velocity": 74,
      "chip": "ym2612"
    },
    {
      "channel": 3,
      "note": 66,
      "start": 2.0657,
      "duration": 0.0167,
      "velocity": 74,
      "chip": "ym2612"
    },
    {
      "channel": 2,
      "note": 49,
      "start": 2.082,
      "duration": 0.0167,
      "velocity": 74,
      "chip": "ym2612"
    },
    {
      "channel": 3,
      "note": 65,
      "start": 2.0824,
      "duration": 0.0167,
      "velocity": 74,
      "chip": "ym2612"
    },
    {
      "channel": 2,
      "note": 48,
      "start": 2.0988,
      "duration": 0.0166,
      "velocity": 74,
      "chip": "ym2612"
    },
    {
      "channel": 3,
      "note": 64,
      "start": 2.0991,
      "duration": 0.0167,
      "velocity": 74,
      "chip": "ym2612"
    },
    {
      "channel": 2,
      "note": 46,
      "start": 2.1154,
      "duration": 0.0349,
      "velocity": 74,
      "chip": "ym2612"
    },
    {
      "channel": 3,
      "note": 63,
      "start": 2.1157,
      "duration": 0.0347,
      "velocity": 74,
      "chip": "ym2612"
    },
    {
      "channel": 1,
      "note": 43,
      "start": 2.1494,
      "duration": 0.0932,
      "velocity": 98,
      "chip": "ym2612"
    },
    {
      "channel": 2,
      "note": 45,
      "start": 2.1503,
      "duration": 0.0003,
      "velocity": 74,
      "chip": "ym2612"
    },
    {
      "channel": 3,
      "note": 62,
      "start": 2.1504,
      "duration": 0.0004,
      "velocity": 74,
      "chip": "ym2612"
    },
    {
      "channel": 2,
      "note": 44,
      "start": 2.1506,
      "duration": 0.0004,
      "velocity": 74,
      "chip": "ym2612"
    },
    {
      "channel": 3,
      "note": 61,
      "start": 2.1508,
      "duration": 0.0003,
      "velocity": 74,
      "chip": "ym2612"
    },
    {
      "channel": 2,
      "note": 43,
      "start": 2.151,
      "duration": 0.0003,
      "velocity": 74,
      "chip": "ym2612"
    },
    {
      "channel": 3,
      "note": 60,
      "start": 2.1511,
      "duration": 0.0003,
      "velocity": 74,
      "chip": "ym2612"
    },
    {
      "channel": 2,
      "note": 42,
      "start": 2.1513,
      "duration": 0.0003,
      "velocity": 74,
      "chip": "ym2612"
    },
    {
      "channel": 3,
      "note": 58,
      "start": 2.1514,
      "duration": 0.0003,
      "velocity": 74,
      "chip": "ym2612"
    },
    {
      "channel": 2,
      "note": 41,
      "start": 2.1516,
      "duration": 0.0003,
      "velocity": 74,
      "chip": "ym2612"
    },
    {
      "channel": 3,
      "note": 57,
      "start": 2.1517,
      "duration": 0.0004,
      "velocity": 74,
      "chip": "ym2612"
    },
    {
      "channel": 2,
      "note": 40,
      "start": 2.1519,
      "duration": 0.0003,
      "velocity": 74,
      "chip": "ym2612"
    },
    {
      "channel": 3,
      "note": 56,
      "start": 2.1521,
      "duration": 0.0003,
      "velocity": 74,
      "chip": "ym2612"
    },
    {
      "channel": 2,
      "note": 39,
      "start": 2.1523,
      "duration": 0.0003,
      "velocity": 74,
      "chip": "ym2612"
    },
    {
      "channel": 3,
      "note": 55,
      "start": 2.1524,
      "duration": 0.0003,
      "velocity": 74,
      "chip": "ym2612"
    },
    {
      "channel": 2,
      "note": 38,
      "start": 2.1526,
      "duration": 0.0003,
      "velocity": 74,
      "chip": "ym2612"
    },
    {
      "channel": 3,
      "note": 54,
      "start": 2.1528,
      "duration": 0.0003,
      "velocity": 74,
      "chip": "ym2612"
    },
    {
      "channel": 2,
      "note": 37,
      "start": 2.1529,
      "duration": 0.0091,
      "velocity": 74,
      "chip": "ym2612"
    },
    {
      "channel": 3,
      "note": 53,
      "start": 2.1531,
      "duration": 0.0092,
      "velocity": 74,
      "chip": "ym2612"
    },
    {
      "channel": 2,
      "note": 36,
      "start": 2.162,
      "duration": 0.0342,
      "velocity": 74,
      "chip": "ym2612"
    },
    {
      "channel": 3,
      "note": 52,
      "start": 2.1624,
      "duration": 0.0342,
      "velocity": 74,
      "chip": "ym2612"
    },
    {
      "channel": 2,
      "note": 34,
      "start": 2.1963,
      "duration": 0.0004,
      "velocity": 74,
      "chip": "ym2612"
    },
    {
      "channel": 3,
      "note": 51,
      "start": 2.1965,
      "duration": 0.0003,
      "velocity": 74,
      "chip": "ym2612"
    },
    {
      "channel": 2,
      "note": 33,
      "start": 2.1967,
      "duration": 0.0003,
      "velocity": 74,
      "chip": "ym2612"
    },
    {
      "channel": 3,
      "note": 50,
      "start": 2.1969,
      "duration": 0.0003,
      "velocity": 74,
      "chip": "ym2612"
    },
    {
      "channel": 2,
      "note": 32,
      "start": 2.197,
      "duration": 0.0003,
      "velocity": 74,
      "chip": "ym2612"
    },
    {
      "channel": 3,
      "note": 49,
      "start": 2.1971,
      "duration": 0.0003,
      "velocity": 74,
      "chip": "ym2612"
    },
    {
      "channel": 2,
      "note": 31,
      "start": 2.1973,
      "duration": 0.0003,
      "velocity": 74,
      "chip": "ym2612"
    },
    {
      "channel": 3,
      "note": 48,
      "start": 2.1975,
      "duration": 0.0003,
      "velocity": 74,
      "chip": "ym2612"
    },
    {
      "channel": 2,
      "note": 30,
      "start": 2.1977,
      "duration": 0.0003,
      "velocity": 74,
      "chip": "ym2612"
    },
    {
      "channel": 3,
      "note": 46,
      "start": 2.1978,
      "duration": 0.0003,
      "velocity": 74,
      "chip": "ym2612"
    },
    {
      "channel": 2,
      "note": 29,
      "start": 2.198,
      "duration": 0.0003,
      "velocity": 74,
      "chip": "ym2612"
    },
    {
      "channel": 3,
      "note": 45,
      "start": 2.1981,
      "duration": 0.0004,
      "velocity": 74,
      "chip": "ym2612"
    },
    {
      "channel": 2,
      "note": 28,
      "start": 2.1983,
      "duration": 0.0004,
      "velocity": 74,
      "chip": "ym2612"
    },
    {
      "channel": 3,
      "note": 44,
      "start": 2.1985,
      "duration": 0.0003,
      "velocity": 74,
      "chip": "ym2612"
    },
    {
      "channel": 2,
      "note": 27,
      "start": 2.1987,
      "duration": 0.0004,
      "velocity": 74,
      "chip": "ym2612"
    },
    {
      "channel": 3,
      "note": 43,
      "start": 2.1989,
      "duration": 0.0003,
      "velocity": 74,
      "chip": "ym2612"
    },
    {
      "channel": 2,
      "note": 26,
      "start": 2.1991,
      "duration": 0.0097,
      "velocity": 74,
      "chip": "ym2612"
    },
    {
      "channel": 3,
      "note": 42,
      "start": 2.1992,
      "duration": 0.0099,
      "velocity": 74,
      "chip": "ym2612"
    },
    {
      "channel": 2,
      "note": 25,
      "start": 2.2088,
      "duration": 0.0349,
      "velocity": 74,
      "chip": "ym2612"
    },
    {
      "channel": 3,
      "note": 41,
      "start": 2.2091,
      "duration": 0.0348,
      "velocity": 74,
      "chip": "ym2612"
    },
    {
      "channel": 1,
      "note": 41,
      "start": 2.2428,
      "duration": 0.1155,
      "velocity": 98,
      "chip": "ym2612"
    },
    {
      "channel": 2,
      "note": 24,
      "start": 2.2437,
      "duration": 0.0008,
      "velocity": 74,
      "chip": "ym2612"
    },
    {
      "channel": 3,
      "note": 40,
      "start": 2.2439,
      "duration": 0.0008,
      "velocity": 74,
      "chip": "ym2612"
    },
    {
      "channel": 2,
      "note": 22,
      "start": 2.2445,
      "duration": 0.0004,
      "velocity": 74,
      "chip": "ym2612"
    },
    {
      "channel": 3,
      "note": 39,
      "start": 2.2447,
      "duration": 0.0003,
      "velocity": 74,
      "chip": "ym2612"
    },
    {
      "channel": 2,
      "note": 21,
      "start": 2.2449,
      "duration": 0.0004,
      "velocity": 74,
      "chip": "ym2612"
    },
    {
      "channel": 3,
      "note": 38,
      "start": 2.245,
      "duration": 0.0004,
      "velocity": 74,
      "chip": "ym2612"
    },
    {
      "channel": 2,
      "note": 116,
      "start": 2.2452,
      "duration": 0.0003,
      "velocity": 74,
      "chip": "ym2612"
    },
    {
      "channel": 3,
      "note": 37,
      "start": 2.2454,
      "duration": 0.0004,
      "velocity": 74,
      "chip": "ym2612"
    },
    {
      "channel": 2,
      "note": 115,
      "start": 2.2456,
      "duration": 0.0005,
      "velocity": 74,
      "chip": "ym2612"
    },
    {
      "channel": 3,
      "note": 36,
      "start": 2.2458,
      "duration": 0.0004,
      "velocity": 74,
      "chip": "ym2612"
    },
    {
      "channel": 2,
      "note": 114,
      "start": 2.246,
      "duration": 0.0004,
      "velocity": 74,
      "chip": "ym2612"
    },
    {
      "channel": 3,
      "note": 34,
      "start": 2.2462,
      "duration": 0.0004,
      "velocity": 74,
      "chip": "ym2612"
    },
    {
      "channel": 2,
      "note": 113,
      "start": 2.2464,
      "duration": 0.0005,
      "velocity": 74,
      "chip": "ym2612"
    },
    {
      "channel": 3,
      "note": 33,
      "start": 2.2466,
      "duration": 0.0005,
      "velocity": 74,
      "chip": "ym2612"
    },
    {
      "channel": 2,
      "note": 112,
      "start": 2.2469,
      "duration": 0.0003,
      "velocity": 74,
      "chip": "ym2612"
    },
    {
      "channel": 3,
      "note": 32,
      "start": 2.2471,
      "duration": 0.0003,
      "velocity": 74,
      "chip": "ym2612"
    },
    {
      "channel": 2,
      "note": 111,
      "start": 2.2472,
      "duration": 0.0004,
      "velocity": 74,
      "chip": "ym2612"
    },
    {
      "channel": 3,
      "note": 31,
      "start": 2.2474,
      "duration": 0.0004,
      "velocity": 74,
      "chip": "ym2612"
    },
    {
      "channel": 2,
      "note": 110,
      "start": 2.2476,
      "duration": 0.0008,
      "velocity": 74,
      "chip": "ym2612"
    },
    {
      "channel": 3,
      "note": 30,
      "start": 2.2478,
      "duration": 0.0008,
      "velocity": 74,
      "chip": "ym2612"
    },
    {
      "channel": 4,
      "note": 48,
      "start": 2.2482,
      "duration": 0.1109,
      "velocity": 74,
      "chip": "ym2612"
    },
    {
      "channel": 2,
      "note": 109,
      "start": 2.2485,
      "duration": 0.0004,
      "velocity": 74,
      "chip": "ym2612"
    },
    {
      "channel": 3,
      "note": 29,
      "start": 2.2487,
      "duration": 0.0003,
      "velocity": 74,
      "chip": "ym2612"
    },
    {
      "channel": 2,
      "note": 108,
      "start": 2.2488,
      "duration": 0.0003,
      "velocity": 74,
      "chip": "ym2612"
    },
    {
      "channel": 3,
      "note": 28,
      "start": 2.249,
      "duration": 0.0004,
      "velocity": 74,
      "chip": "ym2612"
    },
    {
      "channel": 2,
      "note": 106,
      "start": 2.2492,
      "duration": 0.0004,
      "velocity": 74,
      "chip": "ym2612"
    },
    {
      "channel": 3,
      "note": 27,
      "start": 2.2494,
      "duration": 0.0004,
      "velocity": 74,
      "chip": "ym2612"
    },
    {
      "channel": 2,
      "note": 105,
      "start": 2.2496,
      "duration": 0.0004,
      "velocity": 74,
      "chip": "ym2612"
    },
    {
      "channel": 3,
      "note": 26,
      "start": 2.2498,
      "duration": 0.0004,
      "velocity": 74,
      "chip": "ym2612"
    },
    {
      "channel": 2,
      "note": 104,
      "start": 2.25,
      "duration": 0.0086,
      "velocity": 74,
      "chip": "ym2612"
    },
    {
      "channel": 3,
      "note": 25,
      "start": 2.2502,
      "duration": 0.0088,
      "velocity": 74,
      "chip": "ym2612"
    },
    {
      "channel": 2,
      "note": 103,
      "start": 2.2586,
      "duration": 0.0159,
      "velocity": 74,
      "chip": "ym2612"
    },
    {
      "channel": 3,
      "note": 24,
      "start": 2.2589,
      "duration": 0.0159,
      "velocity": 74,
      "chip": "ym2612"
    },
    {
      "channel": 2,
      "note": 102,
      "start": 2.2745,
      "duration": 0.0166,
      "velocity": 74,
      "chip": "ym2612"
    },
    {
      "channel": 3,
      "note": 22,
      "start": 2.2748,
      "duration": 0.0167,
      "velocity": 74,
      "chip": "ym2612"
    },
    {
      "channel": 2,
      "note": 101,
      "start": 2.2911,
      "duration": 0.0167,
      "velocity": 74,
      "chip": "ym2612"
    },
    {
      "channel": 3,
      "note": 21,
      "start": 2.2915,
      "duration": 0.0167,
      "velocity": 74,
      "chip": "ym2612"
    },
    {
      "channel": 2,
      "note": 100,
      "start": 2.3078,
      "duration": 0.0166,
      "velocity": 74,
      "chip": "ym2612"
    },
    {
      "channel": 3,
      "note": 116,
      "start": 2.3081,
      "duration": 0.0167,
      "velocity": 74,
      "chip": "ym2612"
    },
    {
      "channel": 2,
      "note": 99,
      "start": 2.3244,
      "duration": 0.0356,
      "velocity": 74,
      "chip": "ym2612"
    },
    {
      "channel": 3,
      "note": 115,
      "start": 2.3248,
      "duration": 0.0353,
      "velocity": 74,
      "chip": "ym2612"
    },
    {
      "channel": 1,
      "note": 38,
      "start": 2.3584,
      "duration": 0.2505,
      "velocity": 98,
      "chip": "ym2612"
    },
    {
      "channel": 4,
      "note": 50,
      "start": 2.3593,
      "duration": 1.0911,
      "velocity": 74,
      "chip": "ym2612"
    },
    {
      "channel": 2,
      "note": 98,
      "start": 2.36,
      "duration": 0.0002,
      "velocity": 74,
      "chip": "ym2612"
    },
    {
      "channel": 3,
      "note": 114,
      "start": 2.3601,
      "duration": 0.0003,
      "velocity": 74,
      "chip": "ym2612"
    },
    {
      "channel": 2,
      "note": 97,
      "start": 2.3602,
      "duration": 0.0003,
      "velocity": 74,
      "chip": "ym2612"
    },
    {
      "channel": 3,
      "note": 113,
      "start": 2.3604,
      "duration": 0.0003,
      "velocity": 74,
      "chip": "ym2612"
    },
    {
      "channel": 2,
      "note": 96,
      "start": 2.3606,
      "duration": 0.0003,
      "velocity": 74,
      "chip": "ym2612"
    },
    {
      "channel": 3,
      "note": 112,
      "start": 2.3607,
      "duration": 0.0003,
      "velocity": 74,
      "chip": "ym2612"
    },
    {
      "channel": 2,
      "note": 94,
      "start": 2.3609,
      "duration": 0.0003,
      "velocity": 74,
      "chip": "ym2612"
    },
    {
      "channel": 3,
      "note": 111,
      "start": 2.3611,
      "duration": 0.0003,
      "velocity": 74,
      "chip": "ym2612"
    },
    {
      "channel": 2,
      "note": 93,
      "start": 2.3612,
      "duration": 0.0004,
      "velocity": 74,
      "chip": "ym2612"
    },
    {
      "channel": 3,
      "note": 110,
      "start": 2.3614,
      "duration": 0.0004,
      "velocity": 74,
      "chip": "ym2612"
    },
    {
      "channel": 2,
      "note": 92,
      "start": 2.3616,
      "duration": 0.0005,
      "velocity": 74,
      "chip": "ym2612"
    },
    {
      "channel": 3,
      "note": 109,
      "start": 2.3618,
      "duration": 0.0004,
      "velocity": 74,
      "chip": "ym2612"
    },
    {
      "channel": 2,
      "note": 91,
      "start": 2.3621,
      "duration": 0.0003,
      "velocity": 74,
      "chip": "ym2612"
    },
    {
      "channel": 3,
      "note": 108,
      "start": 2.3622,
      "duration": 0.0003,
      "velocity": 74,
      "chip": "ym2612"
    },
    {
      "channel": 2,
      "note": 90,
      "start": 2.3624,
      "duration": 0.0002,
      "velocity": 74,
      "chip": "ym2612"
    },
    {
      "channel": 3,
      "note": 106,
      "start": 2.3625,
      "duration": 0.0003,
      "velocity": 74,
      "chip": "ym2612"
    },
    {
      "channel": 2,
      "note": 89,
      "start": 2.3627,
      "duration": 0.0084,
      "velocity": 74,
      "chip": "ym2612"
    },
    {
      "channel": 3,
      "note": 105,
      "start": 2.3628,
      "duration": 0.0085,
      "velocity": 74,
      "chip": "ym2612"
    },
    {
      "channel": 2,
      "note": 88,
      "start": 2.3711,
      "duration": 0.0341,
      "velocity": 74,
      "chip": "ym2612"
    },
    {
      "channel": 3,
      "note": 104,
      "start": 2.3714,
      "duration": 0.0341,
      "velocity": 74,
      "chip": "ym2612"
    },
    {
      "channel": 2,
      "note": 87,
      "start": 2.4052,
      "duration": 0.0159,
      "velocity": 74,
      "chip": "ym2612"
    },
    {
      "channel": 3,
      "note": 103,
      "start": 2.4055,
      "duration": 0.0159,
      "velocity": 74,
      "chip": "ym2612"
    },
    {
      "channel": 2,
      "note": 86,
      "start": 2.4211,
      "duration": 0.0166,
      "velocity": 74,
      "chip": "ym2612"
    },
    {
      "channel": 3,
      "note": 102,
      "start": 2.4214,
      "duration": 0.0167,
      "velocity": 74,
      "chip": "ym2612"
    },
    {
      "channel": 2,
      "note": 85,
      "start": 2.4377,
      "duration": 0.0167,
      "velocity": 74,
      "chip": "ym2612"
    },
    {
      "channel": 3,
      "note": 101,
      "start": 2.438,
      "duration": 0.0167,
      "velocity": 74,
      "chip": "ym2612"
    },
    {
      "channel": 2,
      "note": 84,
      "start": 2.4544,
      "duration": 0.0166,
      "velocity": 74,
      "chip": "ym2612"
    },
    {
      "channel": 3,
      "note": 100,
      "start": 2.4547,
      "duration": 0.0167,
      "velocity": 74,
      "chip": "ym2612"
    },
    {
      "channel": 2,
      "note": 82,
      "start": 2.471,
      "duration": 0.0342,
      "velocity": 74,
      "chip": "ym2612"
    },
    {
      "channel": 3,
      "note": 99,
      "start": 2.4714,
      "duration": 0.0341,
      "velocity": 74,
      "chip": "ym2612"
    },
    {
      "channel": 2,
      "note": 81,
      "start": 2.5052,
      "duration": 0.0159,
      "velocity": 74,
      "chip": "ym2612"
    },
    {
      "channel": 3,
      "note": 98,
      "start": 2.5055,
      "duration": 0.0159,
      "velocity": 74,
      "chip": "ym2612"
    },
    {
      "channel": 2,
      "note": 80,
      "start": 2.5211,
      "duration": 0.0166,
      "velocity": 74,
      "chip": "ym2612"
    },
    {
      "channel": 3,
      "note": 97,
      "start": 2.5214,
      "duration": 0.0167,
      "velocity": 74,
      "chip": "ym2612"
    },
    {
      "channel": 2,
      "note": 79,
      "start": 2.5377,
      "duration": 0.0167,
      "velocity": 74,
      "chip": "ym2612"
    },
    {
      "channel": 3,
      "note": 96,
      "start": 2.538,
      "duration": 0.0167,
      "velocity": 74,
      "chip": "ym2612"
    },
    {
      "channel": 2,
      "note": 78,
      "start": 2.5544,
      "duration": 0.0166,
      "velocity": 74,
      "chip": "ym2612"
    },
    {
      "channel": 3,
      "note": 94,
      "start": 2.5547,
      "duration": 0.0167,
      "velocity": 74,
      "chip": "ym2612"
    },
    {
      "channel": 2,
      "note": 77,
      "start": 2.571,
      "duration": 0.0339,
      "velocity": 74,
      "chip": "ym2612"
    },
    {
      "channel": 3,
      "note": 93,
      "start": 2.5714,
      "duration": 0.0346,
      "velocity": 74,
      "chip": "ym2612"
    },
    {
      "channel": 2,
      "note": 79,
      "start": 2.6051,
      "duration": 0.0018,
      "velocity": 74,
      "chip": "ym2612"
    },
    {
      "channel": 3,
      "note": 92,
      "start": 2.6059,
      "duration": 0.0001,
      "velocity": 74,
      "chip": "ym2612"
    },
    {
      "channel": 3,
      "note": 91,
      "start": 2.6061,
      "duration": 0.0002,
      "velocity": 74,
      "chip": "ym2612"
    },
    {
      "channel": 3,
      "note": 90,
      "start": 2.6062,
      "duration": 0.0003,
      "velocity": 74,
      "chip": "ym2612"
    },
    {
      "channel": 3,
      "note": 89,
      "start": 2.6065,
      "duration": 0.0002,
      "velocity": 74,
      "chip": "ym2612"
    },
    {
      "channel": 3,
      "note": 88,
      "start": 2.6067,
      "duration": 0.0004,
      "velocity": 74,
      "chip": "ym2612"
    },
    {
      "channel": 2,
      "note": 79,
      "start": 2.6069,
      "duration": 0.0005,
      "velocity": 74,
      "chip": "ym2612"
    },
    {
      "channel": 3,
      "note": 87,
      "start": 2.6071,
      "duration": 0.0005,
      "velocity": 74,
      "chip": "ym2612"
    },
    {
      "channel": 2,
      "note": 79,
      "start": 2.6074,
      "duration": 0.0003,
      "velocity": 74,
      "chip": "ym2612"
    },
    {
      "channel": 3,
      "note": 86,
      "start": 2.6076,
      "duration": 0.0004,
      "velocity": 74,
      "chip": "ym2612"
    },
    {
      "channel": 2,
      "note": 79,
      "start": 2.6078,
      "duration": 0.0004,
      "velocity": 74,
      "chip": "ym2612"
    },
    {
      "channel": 3,
      "note": 85,
      "start": 2.608,
      "duration": 0.0004,
      "velocity": 74,
      "chip": "ym2612"
    },
    {
      "channel": 2,
      "note": 79,
      "start": 2.6081,
      "duration": 0.0004,
      "velocity": 74,
      "chip": "ym2612"
    },
    {
      "channel": 3,
      "note": 84,
      "start": 2.6084,
      "duration": 0.0004,
      "velocity": 74,
      "chip": "ym2612"
    },
    {
      "channel": 2,
      "note": 80,
      "start": 2.6085,
      "duration": 0.0007,
      "velocity": 74,
      "chip": "ym2612"
    },
    {
      "channel": 3,
      "note": 82,
      "start": 2.6088,
      "duration": 0.0009,
      "velocity": 74,
      "chip": "ym2612"
    },
    {
      "channel": 1,
      "note": 38,
      "start": 2.6091,
      "duration": 0.1107,
      "velocity": 98,
      "chip": "ym2612"
    },
    {
      "channel": 2,
      "note": 81,
      "start": 2.6095,
      "duration": 0.111,
      "velocity": 74,
      "chip": "ym2612"
    },
    {
      "channel": 3,
      "note": 81,
      "start": 2.6096,
      "duration": 0.0002,
      "velocity": 74,
      "chip": "ym2612"
    },
    {
      "channel": 3,
      "note": 80,
      "start": 2.6098,
      "duration": 0.0002,
      "velocity": 74,
      "chip": "ym2612"
    },
    {
      "channel": 3,
      "note": 79,
      "start": 2.61,
      "duration": 0.0002,
      "velocity": 74,
      "chip": "ym2612"
    },
    {
      "channel": 3,
      "note": 78,
      "start": 2.6102,
      "duration": 0.0002,
      "velocity": 74,
      "chip": "ym2612"
    },
    {
      "channel": 3,
      "note": 77,
      "start": 2.6104,
      "duration": 0.0095,
      "velocity": 74,
      "chip": "ym2612"
    },
    {
      "channel": 3,
      "note": 79,
      "start": 2.6201,
      "duration": 0.1015,
      "velocity": 74,
      "chip": "ym2612"
    },
    {
      "channel": 1,
      "note": 41,
      "start": 2.72,
      "duration": 0.0462,
      "velocity": 98,
      "chip": "ym2612"
    },
    {
      "channel": 2,
      "note": 84,
      "start": 2.7207,
      "duration": 0.0462,
      "velocity": 74,
      "chip": "ym2612"
    },
    {
      "channel": 3,
      "note": 79,
      "start": 2.7215,
      "duration": 0.0002,
      "velocity": 74,
      "chip": "ym2612"
    },
    {
      "channel": 3,
      "note": 79,
      "start": 2.7217,
      "duration": 0.0002,
      "velocity": 74,
      "chip": "ym2612"
    },
    {
      "channel": 3,
      "note": 79,
      "start": 2.7219,
      "duration": 0.0002,
      "velocity": 74,
      "chip": "ym2612"
    },
    {
      "channel": 3,
      "note": 79,
      "start": 2.7221,
      "duration": 0.0002,
      "velocity": 74,
      "chip": "ym2612"
    },
    {
      "channel": 3,
      "note": 80,
      "start": 2.7222,
      "duration": 0.0002,
      "velocity": 74,
      "chip": "ym2612"
    },
    {
      "channel": 3,
      "note": 81,
      "start": 2.7226,
      "duration": 0.0453,
      "velocity": 74,
      "chip": "ym2612"
    },
    {
      "channel": 1,
      "note": 41,
      "start": 2.7664,
      "duration": 0.0479,
      "velocity": 98,
      "chip": "ym2612"
    },
    {
      "channel": 2,
      "note": 81,
      "start": 2.7671,
      "duration": 0.0454,
      "velocity": 74,
      "chip": "ym2612"
    },
    {
      "channel": 3,
      "note": 84,
      "start": 2.768,
      "duration": 0.0456,
      "velocity": 74,
      "chip": "ym2612"
    },
    {
      "channel": 2,
      "note": 88,
      "start": 2.8128,
      "duration": 0.0019,
      "velocity": 74,
      "chip": "ym2612"
    },
    {
      "channel": 3,
      "note": 81,
      "start": 2.8138,
      "duration": 0.0134,
      "velocity": 74,
      "chip": "ym2612"
    },
    {
      "channel": 1,
      "note": 38,
      "start": 2.8145,
      "duration": 0.1588,
      "velocity": 98,
      "chip": "ym2612"
    },
    {
      "channel": 2,
      "note": 86,
      "start": 2.8149,
      "duration": 0.1607,
      "velocity": 74,
      "chip": "ym2612"
    },
    {
      "channel": 3,
      "note": 88,
      "start": 2.8274,
      "duration": 0.1018,
      "velocity": 74,
      "chip": "ym2612"
    },
    {
      "channel": 3,
      "note": 86,
      "start": 2.9293,
      "duration": 0.2473,
      "velocity": 74,
      "chip": "ym2612"
    },
    {
      "channel": 1,
      "note": 38,
      "start": 2.9734,
      "duration": 0.1999,
      "velocity": 98,
      "chip": "ym2612"
    },
    {
      "channel": 2,
      "note": 84,
      "start": 2.9758,
      "duration": 0.1982,
      "velocity": 74,
      "chip": "ym2612"
    },
    {
      "channel": 1,
      "note": 41,
      "start": 3.1735,
      "duration": 0.0039,
      "velocity": 98,
      "chip": "ym2612"
    },
    {
      "channel": 2,
      "note": 81,
      "start": 3.1742,
      "duration": 0.0037,
      "velocity": 74,
      "chip": "ym2612"
    },
    {
      "channel": 3,
      "note": 84,
      "start": 3.1768,
      "duration": 0.0024,
      "velocity": 74,
      "chip": "ym2612"
    },
    {
      "channel": 1,
      "note": 38,
      "start": 3.1776,
      "duration": 0.0451,
      "velocity": 98,
      "chip": "ym2612"
    },
    {
      "channel": 2,
      "note": 80,
      "start": 3.1782,
      "duration": 0.0453,
      "velocity": 74,
      "chip": "ym2612"
    },
    {
      "channel": 3,
      "note": 81,
      "start": 3.1794,
      "duration": 0.045,
      "velocity": 74,
      "chip": "ym2612"
    },
    {
      "channel": 1,
      "note": 43,
      "start": 3.223,
      "duration": 0.0654,
      "velocity": 98,
      "chip": "ym2612"
    },
    {
      "channel": 2,
      "note": 79,
      "start": 3.2237,
      "duration": 0.0654,
      "velocity": 74,
      "chip": "ym2612"
    },
    {
      "channel": 3,
      "note": 80,
      "start": 3.2246,
      "duration": 0.0654,
      "velocity": 74,
      "chip": "ym2612"
    },
    {
      "channel": 1,
      "note": 38,
      "start": 3.2885,
      "duration": 0.0461,
      "velocity": 98,
      "chip": "ym2612"
    },
    {
      "channel": 2,
      "note": 77,
      "start": 3.2892,
      "duration": 0.0461,
      "velocity": 74,
      "chip": "ym2612"
    },
    {
      "channel": 3,
      "note": 79,
      "start": 3.2902,
      "duration": 0.0466,
      "velocity": 74,
      "chip": "ym2612"
    },
    {
      "channel": 1,
      "note": 44,
      "start": 3.3349,
      "duration": 0.0024,
      "velocity": 98,
      "chip": "ym2612"
    },
    {
      "channel": 2,
      "note": 72,
      "start": 3.3356,
      "duration": 0.002,
      "velocity": 74,
      "chip": "ym2612"
    },
    {
      "channel": 3,
      "note": 77,
      "start": 3.337,
      "duration": 0.0124,
      "velocity": 74,
      "chip": "ym2612"
    },
    {
      "channel": 1,
      "note": 36,
      "start": 3.3374,
      "duration": 0.1121,
      "velocity": 98,
      "chip": "ym2612"
    },
    {
      "channel": 2,
      "note": 74,
      "start": 3.3378,
      "duration": 0.3579,
      "velocity": 74,
      "chip": "ym2612"
    },
    {
      "channel": 3,
      "note": 72,
      "start": 3.3497,
      "duration": 0.1016,
      "velocity": 74,
      "chip": "ym2612"
    },
    {
      "channel": 1,
      "note": 38,
      "start": 3.4497,
      "duration": 0.2482,
      "velocity": 98,
      "chip": "ym2612"
    },
    {
      "channel": 4,
      "note": 50,
      "start": 3.4507,
      "duration": 1.0273,
      "velocity": 74,
      "chip": "ym2612"
    },
    {
      "channel": 3,
      "note": 74,
      "start": 3.4515,
      "duration": 0.2592,
      "velocity": 74,
      "chip": "ym2612"
    },
    {
      "channel": 2,
      "note": 79,
      "start": 3.6959,
      "duration": 0.0008,
      "velocity": 74,
      "chip": "ym2612"
    },
    {
      "channel": 2,
      "note": 79,
      "start": 3.6967,
      "duration": 0.0003,
      "velocity": 74,
      "chip": "ym2612"
    },
    {
      "channel": 2,
      "note": 79,
      "start": 3.697,
      "duration": 0.0002,
      "velocity": 74,
      "chip": "ym2612"
    },
    {
      "channel": 2,
      "note": 79,
      "start": 3.6972,
      "duration": 0.0002,
      "velocity": 74,
      "chip": "ym2612"
    },
    {
      "channel": 2,
      "note": 79,
      "start": 3.6974,
      "duration": 0.0002,
      "velocity": 74,
      "chip": "ym2612"
    },
    {
      "channel": 2,
      "note": 80,
      "start": 3.6976,
      "duration": 0.0006,
      "velocity": 74,
      "chip": "ym2612"
    },
    {
      "channel": 1,
      "note": 38,
      "start": 3.698,
      "duration": 0.1124,
      "velocity": 98,
      "chip": "ym2612"
    },
    {
      "channel": 2,
      "note": 81,
      "start": 3.6984,
      "duration": 0.1127,
      "velocity": 74,
      "chip": "ym2612"
    },
    {
      "channel": 3,
      "note": 79,
      "start": 3.7109,
      "duration": 0.1014,
      "velocity": 74,
      "chip": "ym2612"
    },
    {
      "channel": 1,
      "note": 41,
      "start": 3.8107,
      "duration": 0.0462,
      "velocity": 98,
      "chip": "ym2612"
    },
    {
      "channel": 2,
      "note": 77,
      "start": 3.8114,
      "duration": 0.0462,
      "velocity": 74,
      "chip": "ym2612"
    },
    {
      "channel": 3,
      "note": 79,
      "start": 3.8122,
      "duration": 0.0002,
      "velocity": 74,
      "chip": "ym2612"
    },
    {
      "channel": 3,
      "note": 79,
      "start": 3.8124,
      "duration": 0.0002,
      "velocity": 74,
      "chip": "ym2612"
    },
    {
      "channel": 3,
      "note": 79,
      "start": 3.8126,
      "duration": 0.0002,
      "velocity": 74,
      "chip": "ym2612"
    },
    {
      "channel": 3,
      "note": 79,
      "start": 3.8128,
      "duration": 0.0002,
      "velocity": 74,
      "chip": "ym2612"
    },
    {
      "channel": 3,
      "note": 80,
      "start": 3.813,
      "duration": 0.0002,
      "velocity": 74,
      "chip": "ym2612"
    },
    {
      "channel": 3,
      "note": 81,
      "start": 3.8133,
      "duration": 0.0453,
      "velocity": 74,
      "chip": "ym2612"
    },
    {
      "channel": 1,
      "note": 41,
      "start": 3.8571,
      "duration": 0.0479,
      "velocity": 98,
      "chip": "ym2612"
    },
    {
      "channel": 2,
      "note": 74,
      "start": 3.8578,
      "duration": 0.0454,
      "velocity": 74,
      "chip": "ym2612"
    },
    {
      "channel": 3,
      "note": 77,
      "start": 3.8588,
      "duration": 0.0456,
      "velocity": 74,
      "chip": "ym2612"
    },
    {
      "channel": 2,
      "note": 72,
      "start": 3.9035,
      "duration": 0.0019,
      "velocity": 74,
      "chip": "ym2612"
    },
    {
      "channel": 3,
      "note": 74,
      "start": 3.9045,
      "duration": 0.0134,
      "velocity": 74,
      "chip": "ym2612"
    },
    {
      "channel": 1,
      "note": 38,
      "start": 3.9052,
      "duration": 0.1588,
      "velocity": 98,
      "chip": "ym2612"
    },
    {
      "channel": 2,
      "note": 74,
      "start": 3.9056,
      "duration": 0.259,
      "velocity": 74,
      "chip": "ym2612"
    },
    {
      "channel": 3,
      "note": 72,
      "start": 3.9181,
      "duration": 0.1001,
      "velocity": 74,
      "chip": "ym2612"
    },
    {
      "channel": 3,
      "note": 74,
      "start": 4.0184,
      "duration": 0.249,
      "velocity": 74,
      "chip": "ym2612"
    },
    {
      "channel": 1,
      "note": 38,
      "start": 4.0643,
      "duration": 0.1998,
      "velocity": 98,
      "chip": "ym2612"
    },
    {
      "channel": 2,
      "note": 73,
      "start": 4.1646,
      "duration": 0.0157,
      "velocity": 74,
      "chip": "ym2612"
    },
    {
      "channel": 2,
      "note": 72,
      "start": 4.1803,
      "duration": 0.0167,
      "velocity": 74,
      "chip": "ym2612"
    },
    {
      "channel": 2,
      "note": 70,
      "start": 4.197,
      "duration": 0.0167,
      "velocity": 74,
      "chip": "ym2612"
    },
    {
      "channel": 2,
      "note": 69,
      "start": 4.2136,
      "duration": 0.0167,
      "velocity": 74,
      "chip": "ym2612"
    },
    {
      "channel": 2,
      "note": 68,
      "start": 4.2303,
      "duration": 0.0349,
      "velocity": 74,
      "chip": "ym2612"
    },
    {
      "channel": 1,
      "note": 41,
      "start": 4.2643,
      "duration": 0.1149,
      "velocity": 98,
      "chip": "ym2612"
    },
    {
      "channel": 2,
      "note": 67,
      "start": 4.2652,
      "duration": 0.0002,
      "velocity": 74,
      "chip": "ym2612"
    },
    {
      "channel": 2,
      "note": 66,
      "start": 4.2654,
      "duration": 0.0002,
      "velocity": 74,
      "chip": "ym2612"
    },
    {
      "channel": 2,
      "note": 65,
      "start": 4.2656,
      "duration": 0.0002,
      "velocity": 74,
      "chip": "ym2612"
    },
    {
      "channel": 2,
      "note": 64,
      "start": 4.2658,
      "duration": 0.0003,
      "velocity": 74,
      "chip": "ym2612"
    },
    {
      "channel": 2,
      "note": 63,
      "start": 4.2661,
      "duration": 0.0002,
      "velocity": 74,
      "chip": "ym2612"
    },
    {
      "channel": 2,
      "note": 62,
      "start": 4.2662,
      "duration": 0.0002,
      "velocity": 74,
      "chip": "ym2612"
    },
    {
      "channel": 2,
      "note": 61,
      "start": 4.2664,
      "duration": 0.0002,
      "velocity": 74,
      "chip": "ym2612"
    },
    {
      "channel": 2,
      "note": 60,
      "start": 4.2666,
      "duration": 0.0002,
      "velocity": 74,
      "chip": "ym2612"
    },
    {
      "channel": 2,
      "note": 58,
      "start": 4.2668,
      "duration": 0.0002,
      "velocity": 74,
      "chip": "ym2612"
    },
    {
      "channel": 2,
      "note": 57,
      "start": 4.267,
      "duration": 0.0002,
      "velocity": 74,
      "chip": "ym2612"
    },
    {
      "channel": 2,
      "note": 56,
      "start": 4.2672,
      "duration": 0.0004,
      "velocity": 74,
      "chip": "ym2612"
    },
    {
      "channel": 3,
      "note": 73,
      "start": 4.2673,
      "duration": 0.0004,
      "velocity": 74,
      "chip": "ym2612"
    },
    {
      "channel": 2,
      "note": 55,
      "start": 4.2676,
      "duration": 0.0004,
      "velocity": 74,
      "chip": "ym2612"
    },
    {
      "channel": 3,
      "note": 72,
      "start": 4.2678,
      "duration": 0.0004,
      "velocity": 74,
      "chip": "ym2612"
    },
    {
      "channel": 2,
      "note": 54,
      "start": 4.268,
      "duration": 0.0004,
      "velocity": 74,
      "chip": "ym2612"
    },
    {
      "channel": 3,
      "note": 70,
      "start": 4.2681,
      "duration": 0.0005,
      "velocity": 74,
      "chip": "ym2612"
    },
    {
      "channel": 2,
      "note": 53,
      "start": 4.2684,
      "duration": 0.0004,
      "velocity": 74,
      "chip": "ym2612"
    },
    {
      "channel": 3,
      "note": 69,
      "start": 4.2686,
      "duration": 0.0004,
      "velocity": 74,
      "chip": "ym2612"
    },
    {
      "channel": 2,
      "note": 52,
      "start": 4.2688,
      "duration": 0.0107,
      "velocity": 74,
      "chip": "ym2612"
    },
    {
      "channel": 3,
      "note": 68,
      "start": 4.269,
      "duration": 0.0109,
      "velocity": 74,
      "chip": "ym2612"
    },
    {
      "channel": 2,
      "note": 51,
      "start": 4.2795,
      "duration": 0.0159,
      "velocity": 74,
      "chip": "ym2612"
    },
    {
      "channel": 3,
      "note": 67,
      "start": 4.2799,
      "duration": 0.0159,
      "velocity": 74,
      "chip": "ym2612"
    },
    {
      "channel": 2,
      "note": 50,
      "start": 4.2954,
      "duration": 0.0166,
      "velocity": 74,
      "chip": "ym2612"
    },
    {
      "channel": 3,
      "note": 66,
      "start": 4.2957,
      "duration": 0.0167,
      "velocity": 74,
      "chip": "ym2612"
    },
    {
      "channel": 2,
      "note": 49,
      "start": 4.312,
      "duration": 0.0167,
      "velocity": 74,
      "chip": "ym2612"
    },
    {
      "channel": 3,
      "note": 65,
      "start": 4.3124,
      "duration": 0.0167,
      "velocity": 74,
      "chip": "ym2612"
    },
    {
      "channel": 2,
      "note": 48,
      "start": 4.3288,
      "duration": 0.0166,
      "velocity": 74,
      "chip": "ym2612"
    },
    {
      "channel": 3,
      "note": 64,
      "start": 4.3291,
      "duration": 0.0167,
      "velocity": 74,
      "chip": "ym2612"
    },
    {
      "channel": 2,
      "note": 46,
      "start": 4.3454,
      "duration": 0.0349,
      "velocity": 74,
      "chip": "ym2612"
    },
    {
      "channel": 3,
      "note": 63,
      "start": 4.3457,
      "duration": 0.0347,
      "velocity": 74,
      "chip": "ym2612"
    },
    {
      "channel": 1,
      "note": 43,
      "start": 4.3794,
      "duration": 0.0932,
      "velocity": 98,
      "chip": "ym2612"
    },
    {
      "channel": 2,
      "note": 45,
      "start": 4.3803,
      "duration": 0.0003,
      "velocity": 74,
      "chip": "ym2612"
    },
    {
      "channel": 3,
      "note": 62,
      "start": 4.3804,
      "duration": 0.0004,
      "velocity": 74,
      "chip": "ym2612"
    },
    {
      "channel": 2,
      "note": 44,
      "start": 4.3806,
      "duration": 0.0004,
      "velocity": 74,
      "chip": "ym2612"
    },
    {
      "channel": 3,
      "note": 61,
      "start": 4.3808,
      "duration": 0.0003,
      "velocity": 74,
      "chip": "ym2612"
    },
    {
      "channel": 2,
      "note": 43,
      "start": 4.381,
      "duration": 0.0003,
      "velocity": 74,
      "chip": "ym2612"
    },
    {
      "channel": 3,
      "note": 60,
      "start": 4.3811,
      "duration": 0.0003,
      "velocity": 74,
      "chip": "ym2612"
    },
    {
      "channel": 2,
      "note": 42,
      "start": 4.3813,
      "duration": 0.0003,
      "velocity": 74,
      "chip": "ym2612"
    },
    {
      "channel": 3,
      "note": 58,
      "start": 4.3814,
      "duration": 0.0003,
      "velocity": 74,
      "chip": "ym2612"
    },
    {
      "channel": 2,
      "note": 41,
      "start": 4.3816,
      "duration": 0.0003,
      "velocity": 74,
      "chip": "ym2612"
    },
    {
      "channel": 3,
      "note": 57,
      "start": 4.3817,
      "duration": 0.0004,
      "velocity": 74,
      "chip": "ym2612"
    },
    {
      "channel": 2,
      "note": 40,
      "start": 4.3819,
      "duration": 0.0003,
      "velocity": 74,
      "chip": "ym2612"
    },
    {
      "channel": 3,
      "note": 56,
      "start": 4.3821,
      "duration": 0.0003,
      "velocity": 74,
      "chip": "ym2612"
    },
    {
      "channel": 2,
      "note": 39,
      "start": 4.3823,
      "duration": 0.0003,
      "velocity": 74,
      "chip": "ym2612"
    },
    {
      "channel": 3,
      "note": 55,
      "start": 4.3824,
      "duration": 0.0003,
      "velocity": 74,
      "chip": "ym2612"
    },
    {
      "channel": 2,
      "note": 38,
      "start": 4.3826,
      "duration": 0.0003,
      "velocity": 74,
      "chip": "ym2612"
    },
    {
      "channel": 3,
      "note": 54,
      "start": 4.3828,
      "duration": 0.0003,
      "velocity": 74,
      "chip": "ym2612"
    },
    {
      "channel": 2,
      "note": 37,
      "start": 4.3829,
      "duration": 0.0091,
      "velocity": 74,
      "chip": "ym2612"
    },
    {
      "channel": 3,
      "note": 53,
      "start": 4.3831,
      "duration": 0.0092,
      "velocity": 74,
      "chip": "ym2612"
    },
    {
      "channel": 2,
      "note": 36,
      "start": 4.392,
      "duration": 0.0342,
      "velocity": 74,
      "chip": "ym2612"
    },
    {
      "channel": 3,
      "note": 52,
      "start": 4.3924,
      "duration": 0.0342,
      "velocity": 74,
      "chip": "ym2612"
    },
    {
      "channel": 2,
      "note": 34,
      "start": 4.4263,
      "duration": 0.0004,
      "velocity": 74,
      "chip": "ym2612"
    },
    {
      "channel": 3,
      "note": 51,
      "start": 4.4265,
      "duration": 0.0003,
      "velocity": 74,
      "chip": "ym2612"
    },
    {
      "channel": 2,
      "note": 33,
      "start": 4.4267,
      "duration": 0.0003,
      "velocity": 74,
      "chip": "ym2612"
    },
    {
      "channel": 3,
      "note": 50,
      "start": 4.4269,
      "duration": 0.0003,
      "velocity": 74,
      "chip": "ym2612"
    },
    {
      "channel": 2,
      "note": 32,
      "start": 4.427,
      "duration": 0.0003,
      "velocity": 74,
      "chip": "ym2612"
    },
    {
      "channel": 3,
      "note": 49,
      "start": 4.4271,
      "duration": 0.0003,
      "velocity": 74,
      "chip": "ym2612"
    },
    {
      "channel": 2,
      "note": 31,
      "start": 4.4273,
      "duration": 0.0003,
      "velocity": 74,
      "chip": "ym2612"
    },
    {
      "channel": 3,
      "note": 48,
      "start": 4.4275,
      "duration": 0.0003,
      "velocity": 74,
      "chip": "ym2612"
    },
    {
      "channel": 2,
      "note": 30,
      "start": 4.4277,
      "duration": 0.0003,
      "velocity": 74,
      "chip": "ym2612"
    },
    {
      "channel": 3,
      "note": 46,
      "start": 4.4278,
      "duration": 0.0003,
      "velocity": 74,
      "chip": "ym2612"
    },
    {
      "channel": 2,
      "note": 29,
      "start": 4.428,
      "duration": 0.0003,
      "velocity": 74,
      "chip": "ym2612"
    },
    {
      "channel": 3,
      "note": 45,
      "start": 4.4281,
      "duration": 0.0004,
      "velocity": 74,
      "chip": "ym2612"
    },
    {
      "channel": 2,
      "note": 28,
      "start": 4.4283,
      "duration": 0.0004,
      "velocity": 74,
      "chip": "ym2612"
    },
    {
      "channel": 3,
      "note": 44,
      "start": 4.4285,
      "duration": 0.0003,
      "velocity": 74,
      "chip": "ym2612"
    },
    {
      "channel": 2,
      "note": 27,
      "start": 4.4287,
      "duration": 0.0004,
      "velocity": 74,
      "chip": "ym2612"
    },
    {
      "channel": 3,
      "note": 43,
      "start": 4.4289,
      "duration": 0.0003,
      "velocity": 74,
      "chip": "ym2612"
    },
    {
      "channel": 2,
      "note": 26,
      "start": 4.4291,
      "duration": 0.0097,
      "velocity": 74,
      "chip": "ym2612"
    },
    {
      "channel": 3,
      "note": 42,
      "start": 4.4292,
      "duration": 0.0099,
      "velocity": 74,
      "chip": "ym2612"
    },
    {
      "channel": 2,
      "note": 25,
      "start": 4.4388,
      "duration": 0.0349,
      "velocity": 74,
      "chip": "ym2612"
    },
    {
      "channel": 3,
      "note": 41,
      "start": 4.4391,
      "duration": 0.0348,
      "velocity": 74,
      "chip": "ym2612"
    },
    {
      "channel": 1,
      "note": 41,
      "start": 4.4728,
      "duration": 0.1155,
      "velocity": 98,
      "chip": "ym2612"
    },
    {
      "channel": 2,
      "note": 24,
      "start": 4.4737,
      "duration": 0.0008,
      "velocity": 74,
      "chip": "ym2612"
    },
    {
      "channel": 3,
      "note": 40,
      "start": 4.4739,
      "duration": 0.0008,
      "velocity": 74,
      "chip": "ym2612"
    },
    {
      "channel": 2,
      "note": 22,
      "start": 4.4745,
      "duration": 0.0004,
      "velocity": 74,
      "chip": "ym2612"
    },
    {
      "channel": 3,
      "note": 39,
      "start": 4.4747,
      "duration": 0.0003,
      "velocity": 74,
      "chip": "ym2612"
    },
    {
      "channel": 2,
      "note": 21,
      "start": 4.4749,
      "duration": 0.0004,
      "velocity": 74,
      "chip": "ym2612"
    },
    {
      "channel": 3,
      "note": 38,
      "start": 4.475,
      "duration": 0.0004,
      "velocity": 74,
      "chip": "ym2612"
    },
    {
      "channel": 2,
      "note": 116,
      "start": 4.4752,
      "duration": 0.0003,
      "velocity": 74,
      "chip": "ym2612"
    },
    {
      "channel": 3,
      "note": 37,
      "start": 4.4754,
      "duration": 0.0004,
      "velocity": 74,
      "chip": "ym2612"
    },
    {
      "channel": 2,
      "note": 115,
      "start": 4.4756,
      "duration": 0.0005,
      "velocity": 74,
      "chip": "ym2612"
    },
    {
      "channel": 3,
      "note": 36,
      "start": 4.4758,
      "duration": 0.0004,
      "velocity": 74,
      "chip": "ym2612"
    },
    {
      "channel": 2,
      "note": 114,
      "start": 4.476,
      "duration": 0.0004,
      "velocity": 74,
      "chip": "ym2612"
    },
    {
      "channel": 3,
      "note": 34,
      "start": 4.4762,
      "duration": 0.0004,
      "velocity": 74,
      "chip": "ym2612"
    },
    {
      "channel": 2,
      "note": 113,
      "start": 4.4764,
      "duration": 0.0005,
      "velocity": 74,
      "chip": "ym2612"
    },
    {
      "channel": 3,
      "note": 33,
      "start": 4.4766,
      "duration": 0.0005,
      "velocity": 74,
      "chip": "ym2612"
    },
    {
      "channel": 2,
      "note": 112,
      "start": 4.4769,
      "duration": 0.0003,
      "velocity": 74,
      "chip": "ym2612"
    },
    {
      "channel": 3,
      "note": 32,
      "start": 4.4771,
      "duration": 0.0003,
      "velocity": 74,
      "chip": "ym2612"
    },
    {
      "channel": 2,
      "note": 111,
      "start": 4.4772,
      "duration": 0.0004,
      "velocity": 74,
      "chip": "ym2612"
    },
    {
      "channel": 3,
      "note": 31,
      "start": 4.4774,
      "duration": 0.0004,
      "velocity": 74,
      "chip": "ym2612"
    },
    {
      "channel": 2,
      "note": 110,
      "start": 4.4776,
      "duration": 0.0008,
      "velocity": 74,
      "chip": "ym2612"
    },
    {
      "channel": 3,
      "note": 30,
      "start": 4.4778,
      "duration": 0.0008,
      "velocity": 74,
      "chip": "ym2612"
    },
    {
      "channel": 4,
      "note": 48,
      "start": 4.4782,
      "duration": 0.1109,
      "velocity": 74,
      "chip": "ym2612"
    },
    {
      "channel": 2,
      "note": 109,
      "start": 4.4785,
      "duration": 0.0004,
      "velocity": 74,
      "chip": "ym2612"
    },
    {
      "channel": 3,
      "note": 29,
      "start": 4.4787,
      "duration": 0.0003,
      "velocity": 74,
      "chip": "ym2612"
    },
    {
      "channel": 2,
      "note": 108,
      "start": 4.4788,
      "duration": 0.0003,
      "velocity": 74,
      "chip": "ym2612"
    },
    {
      "channel": 3,
      "note": 28,
      "start": 4.479,
      "duration": 0.0004,
      "velocity": 74,
      "chip": "ym2612"
    },
    {
      "channel": 2,
      "note": 106,
      "start": 4.4792,
      "duration": 0.0004,
      "velocity": 74,
      "chip": "ym2612"
    },
    {
      "channel": 3,
      "note": 27,
      "start": 4.4794,
      "duration": 0.0004,
      "velocity": 74,
      "chip": "ym2612"
    },
    {
      "channel": 2,
      "note": 105,
      "start": 4.4796,
      "duration": 0.0004,
      "velocity": 74,
      "chip": "ym2612"
    },
    {
      "channel": 3,
      "note": 26,
      "start": 4.4798,
      "duration": 0.0004,
      "velocity": 74,
      "chip": "ym2612"
    },
    {
      "channel": 2,
      "note": 104,
      "start": 4.48,
      "duration": 0.0086,
      "velocity": 74,
      "chip": "ym2612"
    },
    {
      "channel": 3,
      "note": 25,
      "start": 4.4802,
      "duration": 0.0088,
      "velocity": 74,
      "chip": "ym2612"
    },
    {
      "channel": 2,
      "note": 103,
      "start": 4.4886,
      "duration": 0.0159,
      "velocity": 74,
      "chip": "ym2612"
    },
    {
      "channel": 3,
      "note": 24,
      "start": 4.4889,
      "duration": 0.0159,
      "velocity": 74,
      "chip": "ym2612"
    },
    {
      "channel": 2,
      "note": 102,
      "start": 4.5045,
      "duration": 0.0166,
      "velocity": 74,
      "chip": "ym2612"
    },
    {
      "channel": 3,
      "note": 22,
      "start": 4.5048,
      "duration": 0.0167,
      "velocity": 74,
      "chip": "ym2612"
    },
    {
      "channel": 2,
      "note": 101,
      "start": 4.5211,
      "duration": 0.0167,
      "velocity": 74,
      "chip": "ym2612"
    },
    {
      "channel": 3,
      "note": 21,
      "start": 4.5215,
      "duration": 0.0167,
      "velocity": 74,
      "chip": "ym2612"
    },
    {
      "channel": 2,
      "note": 100,
      "start": 4.5378,
      "duration": 0.0166,
      "velocity": 74,
      "chip": "ym2612"
    },
    {
      "channel": 3,
      "note": 116,
      "start": 4.5381,
      "duration": 0.0167,
      "velocity": 74,
      "chip": "ym2612"
    },
    {
      "channel": 2,
      "note": 99,
      "start": 4.5544,
      "duration": 0.0356,
      "velocity": 74,
      "chip": "ym2612"
    },
    {
      "channel": 3,
      "note": 115,
      "start": 4.5548,
      "duration": 0.0353,
      "velocity": 74,
      "chip": "ym2612"
    },
    {
      "channel": 1,
      "note": 38,
      "start": 4.5884,
      "duration": 0.2505,
      "velocity": 98,
      "chip": "ym2612"
    },
    {
      "channel": 4,
      "note": 50,
      "start": 4.5893,
      "duration": 1.094,
      "velocity": 74,
      "chip": "ym2612"
    },
    {
      "channel": 2,
      "note": 98,
      "start": 4.59,
      "duration": 0.0002,
      "velocity": 74,
      "chip": "ym2612"
    },
    {
      "channel": 3,
      "note": 114,
      "start": 4.5901,
      "duration": 0.0003,
      "velocity": 74,
      "chip": "ym2612"
    },
    {
      "channel": 2,
      "note": 97,
      "start": 4.5902,
      "duration": 0.0003,
      "velocity": 74,
      "chip": "ym2612"
    },
    {
      "channel": 3,
      "note": 113,
      "start": 4.5904,
      "duration": 0.0003,
      "velocity": 74,
      "chip": "ym2612"
    },
    {
      "channel": 2,
      "note": 96,
      "start": 4.5906,
      "duration": 0.0003,
      "velocity": 74,
      "chip": "ym2612"
    },
    {
      "channel": 3,
      "note": 112,
      "start": 4.5907,
      "duration": 0.0003,
      "velocity": 74,
      "chip": "ym2612"
    },
    {
      "channel": 2,
      "note": 94,
      "start": 4.5909,
      "duration": 0.0003,
      "velocity": 74,
      "chip": "ym2612"
    },
    {
      "channel": 3,
      "note": 111,
      "start": 4.5911,
      "duration": 0.0003,
      "velocity": 74,
      "chip": "ym2612"
    },
    {
      "channel": 2,
      "note": 93,
      "start": 4.5912,
      "duration": 0.0004,
      "velocity": 74,
      "chip": "ym2612"
    },
    {
      "channel": 3,
      "note": 110,
      "start": 4.5914,
      "duration": 0.0004,
      "velocity": 74,
      "chip": "ym2612"
    },
    {
      "channel": 2,
      "note": 92,
      "start": 4.5916,
      "duration": 0.0005,
      "velocity": 74,
      "chip": "ym2612"
    },
    {
      "channel": 3,
      "note": 109,
      "start": 4.5918,
      "duration": 0.0004,
      "velocity": 74,
      "chip": "ym2612"
    },
    {
      "channel": 2,
      "note": 91,
      "start": 4.5921,
      "duration": 0.0003,
      "velocity": 74,
      "chip": "ym2612"
    },
    {
      "channel": 3,
      "note": 108,
      "start": 4.5922,
      "duration": 0.0003,
      "velocity": 74,
      "chip": "ym2612"
    },
    {
      "channel": 2,
      "note": 90,
      "start": 4.5924,
      "duration": 0.0002,
      "velocity": 74,
      "chip": "ym2612"
    },
    {
      "channel": 3,
      "note": 106,
      "start": 4.5925,
      "duration": 0.0003,
      "velocity": 74,
      "chip": "ym2612"
    },
    {
      "channel": 2,
      "note": 89,
      "start": 4.5927,
      "duration": 0.0084,
      "velocity": 74,
      "chip": "ym2612"
    },
    {
      "channel": 3,
      "note": 105,
      "start": 4.5928,
      "duration": 0.0085,
      "velocity": 74,
      "chip": "ym2612"
    },
    {
      "channel": 2,
      "note": 88,
      "start": 4.6011,
      "duration": 0.0341,
      "velocity": 74,
      "chip": "ym2612"
    },
    {
      "channel": 3,
      "note": 104,
      "start": 4.6014,
      "duration": 0.0341,
      "velocity": 74,
      "chip": "ym2612"
    },
    {
      "channel": 2,
      "note": 87,
      "start": 4.6352,
      "duration": 0.0159,
      "velocity": 74,
      "chip": "ym2612"
    },
    {
      "channel": 3,
      "note": 103,
      "start": 4.6355,
      "duration": 0.0159,
      "velocity": 74,
      "chip": "ym2612"
    },
    {
      "channel": 2,
      "note": 86,
      "start": 4.6511,
      "duration": 0.0166,
      "velocity": 74,
      "chip": "ym2612"
    },
    {
      "channel": 3,
      "note": 102,
      "start": 4.6514,
      "duration": 0.0167,
      "velocity": 74,
      "chip": "ym2612"
    },
    {
      "channel": 2,
      "note": 85,
      "start": 4.6677,
      "duration": 0.0167,
      "velocity": 74,
      "chip": "ym2612"
    },
    {
      "channel": 3,
      "note": 101,
      "start": 4.668,
      "duration": 0.0167,
      "velocity": 74,
      "chip": "ym2612"
    },
    {
      "channel": 2,
      "note": 84,
      "start": 4.6844,
      "duration": 0.0166,
      "velocity": 74,
      "chip": "ym2612"
    },
    {
      "channel": 3,
      "note": 100,
      "start": 4.6847,
      "duration": 0.0167,
      "velocity": 74,
      "chip": "ym2612"
    },
    {
      "channel": 2,
      "note": 82,
      "start": 4.701,
      "duration": 0.0342,
      "velocity": 74,
      "chip": "ym2612"
    },
    {
      "channel": 3,
      "note": 99,
      "start": 4.7014,
      "duration": 0.0341,
      "velocity": 74,
      "chip": "ym2612"
    },
    {
      "channel": 2,
      "note": 81,
      "start": 4.7352,
      "duration": 0.0159,
      "velocity": 74,
      "chip": "ym2612"
    },
    {
      "channel": 3,
      "note": 98,
      "start": 4.7355,
      "duration": 0.0159,
      "velocity": 74,
      "chip": "ym2612"
    },
    {
      "channel": 2,
      "note": 80,
      "start": 4.7511,
      "duration": 0.0166,
      "velocity": 74,
      "chip": "ym2612"
    },
    {
      "channel": 3,
      "note": 97,
      "start": 4.7514,
      "duration": 0.0167,
      "velocity": 74,
      "chip": "ym2612"
    },
    {
      "channel": 2,
      "note": 79,
      "start": 4.7677,
      "duration": 0.0167,
      "velocity": 74,
      "chip": "ym2612"
    },
    {
      "channel": 3,
      "note": 96,
      "start": 4.768,
      "duration": 0.0167,
      "velocity": 74,
      "chip": "ym2612"
    },
    {
      "channel": 2,
      "note": 78,
      "start": 4.7844,
      "duration": 0.0166,
      "velocity": 74,
      "chip": "ym2612"
    },
    {
      "channel": 3,
      "note": 94,
      "start": 4.7847,
      "duration": 0.0167,
      "velocity": 74,
      "chip": "ym2612"
    },
    {
      "channel": 2,
      "note": 77,
      "start": 4.801,
      "duration": 0.0339,
      "velocity": 74,
      "chip": "ym2612"
    },
    {
      "channel": 3,
      "note": 93,
      "start": 4.8014,
      "duration": 0.0346,
      "velocity": 74,
      "chip": "ym2612"
    },
    {
      "channel": 2,
      "note": 79,
      "start": 4.8351,
      "duration": 0.0018,
      "velocity": 74,
      "chip": "ym2612"
    },
    {
      "channel": 3,
      "note": 92,
      "start": 4.8359,
      "duration": 0.0001,
      "velocity": 74,
      "chip": "ym2612"
    },
    {
      "channel": 3,
      "note": 91,
      "start": 4.8361,
      "duration": 0.0002,
      "velocity": 74,
      "chip": "ym2612"
    },
    {
      "channel": 3,
      "note": 90,
      "start": 4.8362,
      "duration": 0.0003,
      "velocity": 74,
      "chip": "ym2612"
    },
    {
      "channel": 3,
      "note": 89,
      "start": 4.8365,
      "duration": 0.0002,
      "velocity": 74,
      "chip": "ym2612"
    },
    {
      "channel": 3,
      "note": 88,
      "start": 4.8367,
      "duration": 0.0004,
      "velocity": 74,
      "chip": "ym2612"
    },
    {
      "channel": 2,
      "note": 79,
      "start": 4.8369,
      "duration": 0.0005,
      "velocity": 74,
      "chip": "ym2612"
    },
    {
      "channel": 3,
      "note": 87,
      "start": 4.8371,
      "duration": 0.0005,
      "velocity": 74,
      "chip": "ym2612"
    },
    {
      "channel": 2,
      "note": 79,
      "start": 4.8374,
      "duration": 0.0003,
      "velocity": 74,
      "chip": "ym2612"
    },
    {
      "channel": 3,
      "note": 86,
      "start": 4.8376,
      "duration": 0.0004,
      "velocity": 74,
      "chip": "ym2612"
    },
    {
      "channel": 2,
      "note": 79,
      "start": 4.8378,
      "duration": 0.0004,
      "velocity": 74,
      "chip": "ym2612"
    },
    {
      "channel": 3,
      "note": 85,
      "start": 4.838,
      "duration": 0.0004,
      "velocity": 74,
      "chip": "ym2612"
    },
    {
      "channel": 2,
      "note": 79,
      "start": 4.8381,
      "duration": 0.0004,
      "velocity": 74,
      "chip": "ym2612"
    },
    {
      "channel": 3,
      "note": 84,
      "start": 4.8384,
      "duration": 0.0004,
      "velocity": 74,
      "chip": "ym2612"
    },
    {
      "channel": 2,
      "note": 80,
      "start": 4.8385,
      "duration": 0.0007,
      "velocity": 74,
      "chip": "ym2612"
    },
    {
      "channel": 3,
      "note": 82,
      "start": 4.8388,
      "duration": 0.0009,
      "velocity": 74,
      "chip": "ym2612"
    },
    {
      "channel": 1,
      "note": 38,
      "start": 4.8391,
      "duration": 0.1107,
      "velocity": 98,
      "chip": "ym2612"
    },
    {
      "channel": 2,
      "note": 81,
      "start": 4.8395,
      "duration": 0.111,
      "velocity": 74,
      "chip": "ym2612"
    },
    {
      "channel": 3,
      "note": 81,
      "start": 4.8396,
      "duration": 0.0002,
      "velocity": 74,
      "chip": "ym2612"
    },
    {
      "channel": 3,
      "note": 80,
      "start": 4.8398,
      "duration": 0.0002,
      "velocity": 74,
      "chip": "ym2612"
    },
    {
      "channel": 3,
      "note": 79,
      "start": 4.84,
      "duration": 0.0002,
      "velocity": 74,
      "chip": "ym2612"
    },
    {
      "channel": 3,
      "note": 78,
      "start": 4.8402,
      "duration": 0.0002,
      "velocity": 74,
      "chip": "ym2612"
    },
    {
      "channel": 3,
      "note": 77,
      "start": 4.8404,
      "duration": 0.0095,
      "velocity": 74,
      "chip": "ym2612"
    },
    {
      "channel": 3,
      "note": 79,
      "start": 4.8501,
      "duration": 0.1015,
      "velocity": 74,
      "chip": "ym2612"
    },
    {
      "channel": 1,
      "note": 41,
      "start": 4.95,
      "duration": 0.0462,
      "velocity": 98,
      "chip": "ym2612"
    },
    {
      "channel": 2,
      "note": 84,
      "start": 4.9507,
      "duration": 0.0462,
      "velocity": 74,
      "chip": "ym2612"
    },
    {
      "channel": 3,
      "note": 79,
      "start": 4.9515,
      "duration": 0.0002,
      "velocity": 74,
      "chip": "ym2612"
    },
    {
      "channel": 3,
      "note": 79,
      "start": 4.9517,
      "duration": 0.0002,
      "velocity": 74,
      "chip": "ym2612"
    },
    {
      "channel": 3,
      "note": 79,
      "start": 4.9519,
      "duration": 0.0002,
      "velocity": 74,
      "chip": "ym2612"
    },
    {
      "channel": 3,
      "note": 79,
      "start": 4.9521,
      "duration": 0.0002,
      "velocity": 74,
      "chip": "ym2612"
    },
    {
      "channel": 3,
      "note": 80,
      "start": 4.9522,
      "duration": 0.0002,
      "velocity": 74,
      "chip": "ym2612"
    },
    {
      "channel": 3,
      "note": 81,
      "start": 4.9526,
      "duration": 0.0453,
      "velocity": 74,
      "chip": "ym2612"
    },
    {
      "channel": 1,
      "note": 41,
      "start": 4.9964,
      "duration": 0.0479,
      "velocity": 98,
      "chip": "ym2612"
    },
    {
      "channel": 2,
      "note": 81,
      "start": 4.9971,
      "duration": 0.0454,
      "velocity": 74,
      "chip": "ym2612"
    },
    {
      "channel": 3,
      "note": 84,
      "start": 4.998,
      "duration": 0.0456,
      "velocity": 74,
      "chip": "ym2612"
    },
    {
      "channel": 2,
      "note": 88,
      "start": 5.0428,
      "duration": 0.0019,
      "velocity": 74,
      "chip": "ym2612"
    },
    {
      "channel": 3,
      "note": 81,
      "start": 5.0438,
      "duration": 0.0134,
      "velocity": 74,
      "chip": "ym2612"
    },
    {
      "channel": 1,
      "note": 38,
      "start": 5.0445,
      "duration": 0.1588,
      "velocity": 98,
      "chip": "ym2612"
    },
    {
      "channel": 2,
      "note": 86,
      "start": 5.0449,
      "duration": 0.1607,
      "velocity": 74,
      "chip": "ym2612"
    },
    {
      "channel": 3,
      "note": 88,
      "start": 5.0574,
      "duration": 0.1018,
      "velocity": 74,
      "chip": "ym2612"
    },
    {
      "channel": 3,
      "note": 86,
      "start": 5.1593,
      "duration": 0.2473,
      "velocity": 74,
      "chip": "ym2612"
    },
    {
      "channel": 1,
      "note": 38,
      "start": 5.2034,
      "duration": 0.1999,
      "velocity": 98,
      "chip": "ym2612"
    },
    {
      "channel": 2,
      "note": 84,
      "start": 5.2058,
      "duration": 0.1982,
      "velocity": 74,
      "chip": "ym2612"
    },
    {
      "channel": 1,
      "note": 41,
      "start": 5.4035,
      "duration": 0.0039,
      "velocity": 98,
      "chip": "ym2612"
    },
    {
      "channel": 2,
      "note": 81,
      "start": 5.4042,
      "duration": 0.0037,
      "velocity": 74,
      "chip": "ym2612"
    },
    {
      "channel": 3,
      "note": 84,
      "start": 5.4068,
      "duration": 0.0024,
      "velocity": 74,
      "chip": "ym2612"
    },
    {
      "channel": 1,
      "note": 38,
      "start": 5.4076,
      "duration": 0.0451,
      "velocity": 98,
      "chip": "ym2612"
    },
    {
      "channel": 2,
      "note": 80,
      "start": 5.4082,
      "duration": 0.0453,
      "velocity": 74,
      "chip": "ym2612"
    },
    {
      "channel": 3,
      "note": 81,
      "start": 5.4094,
      "duration": 0.045,
      "velocity": 74,
      "chip": "ym2612"
    },
    {
      "channel": 1,
      "note": 43,
      "start": 5.453,
      "duration": 0.0654,
      "velocity": 98,
      "chip": "ym2612"
    },
    {
      "channel": 2,
      "note": 79,
      "start": 5.4537,
      "duration": 0.0654,
      "velocity": 74,
      "chip": "ym2612"
    },
    {
      "channel": 3,
      "note": 80,
      "start": 5.4546,
      "duration": 0.0654,
      "velocity": 74,
      "chip": "ym2612"
    },
    {
      "channel": 1,
      "note": 38,
      "start": 5.5185,
      "duration": 0.0461,
      "velocity": 98,
      "chip": "ym2612"
    },
    {
      "channel": 2,
      "note": 77,
      "start": 5.5192,
      "duration": 0.0461,
      "velocity": 74,
      "chip": "ym2612"
    },
    {
      "channel": 3,
      "note": 79,
      "start": 5.5202,
      "duration": 0.0466,
      "velocity": 74,
      "chip": "ym2612"
    },
    {
      "channel": 1,
      "note": 44,
      "start": 5.5649,
      "duration": 0.0024,
      "velocity": 98,
      "chip": "ym2612"
    },
    {
      "channel": 2,
      "note": 72,
      "start": 5.5656,
      "duration": 0.002,
      "velocity": 74,
      "chip": "ym2612"
    },
    {
      "channel": 3,
      "note": 77,
      "start": 5.567,
      "duration": 0.0124,
      "velocity": 74,
      "chip": "ym2612"
    },
    {
      "channel": 1,
      "note": 36,
      "start": 5.5674,
      "duration": 0.1121,
      "velocity": 98,
      "chip": "ym2612"
    },
    {
      "channel": 2,
      "note": 74,
      "start": 5.5678,
      "duration": 0.1124,
      "velocity": 74,
      "chip": "ym2612"
    },
    {
      "channel": 3,
      "note": 72,
      "start": 5.5797,
      "duration": 0.1029,
      "velocity": 74,
      "chip": "ym2612"
    },
    {
      "channel": 1,
      "note": 43,
      "start": 5.6797,
      "duration": 0.1817,
      "velocity": 98,
      "chip": "ym2612"
    },
    {
      "channel": 2,
      "note": 79,
      "start": 5.6804,
      "duration": 0.1833,
      "velocity": 74,
      "chip": "ym2612"
    },
    {
      "channel": 3,
      "note": 74,
      "start": 5.6828,
      "duration": 0.1833,
      "velocity": 74,
      "chip": "ym2612"
    },
    {
      "channel": 4,
      "note": 55,
      "start": 5.6836,
      "duration": 0.1833,
      "velocity": 74,
      "chip": "ym2612"
    },
    {
      "channel": 1,
      "note": 43,
      "start": 5.8616,
      "duration": 0.0486,
      "velocity": 98,
      "chip": "ym2612"
    },
    {
      "channel": 2,
      "note": 77,
      "start": 5.864,
      "duration": 0.0437,
      "velocity": 74,
      "chip": "ym2612"
    },
    {
      "channel": 3,
      "note": 72,
      "start": 5.8663,
      "duration": 0.0421,
      "velocity": 74,
      "chip": "ym2612"
    },
    {
      "channel": 4,
      "note": 55,
      "start": 5.867,
      "duration": 0.0443,
      "velocity": 74,
      "chip": "ym2612"
    },
    {
      "channel": 2,
      "note": 74,
      "start": 5.908,
      "duration": 0.0026,
      "velocity": 74,
      "chip": "ym2612"
    },
    {
      "channel": 3,
      "note": 69,
      "start": 5.9086,
      "duration": 0.0023,
      "velocity": 74,
      "chip": "ym2612"
    },
    {
      "channel": 1,
      "note": 43,
      "start": 5.9104,
      "duration": 0.1128,
      "velocity": 98,
      "chip": "ym2612"
    },
    {
      "channel": 2,
      "note": 79,
      "start": 5.9107,
      "duration": 0.1132,
      "velocity": 74,
      "chip": "ym2612"
    },
    {
      "channel": 3,
      "note": 74,
      "start": 5.9111,
      "duration": 0.1135,
      "velocity": 74,
      "chip": "ym2612"
    },
    {
      "channel": 4,
      "note": 55,
      "start": 5.9114,
      "duration": 0.1139,
      "velocity": 74,
      "chip": "ym2612"
    },
    {
      "channel": 1,
      "note": 38,
      "start": 6.0234,
      "duration": 0.0461,
      "velocity": 98,
      "chip": "ym2612"
    },
    {
      "channel": 2,
      "note": 74,
      "start": 6.0241,
      "duration": 0.0461,
      "velocity": 74,
      "chip": "ym2612"
    },
    {
      "channel": 3,
      "note": 69,
      "start": 6.0248,
      "duration": 0.0461,
      "velocity": 74,
      "chip": "ym2612"
    },
    {
      "channel": 4,
      "note": 50,
      "start": 6.0255,
      "duration": 0.0461,
      "velocity": 74,
      "chip": "ym2612"
    },
    {
      "channel": 1,
      "note": 44,
      "start": 6.0697,
      "duration": 0.0652,
      "velocity": 98,
      "chip": "ym2612"
    },
    {
      "channel": 2,
      "note": 80,
      "start": 6.0704,
      "duration": 0.0652,
      "velocity": 74,
      "chip": "ym2612"
    },
    {
      "channel": 3,
      "note": 75,
      "start": 6.0711,
      "duration": 0.0652,
      "velocity": 74,
      "chip": "ym2612"
    },
    {
      "channel": 4,
      "note": 56,
      "start": 6.0718,
      "duration": 0.0652,
      "velocity": 74,
      "chip": "ym2612"
    },
    {
      "channel": 1,
      "note": 45,
      "start": 6.1351,
      "duration": 0.9148,
      "velocity": 98,
      "chip": "ym2612"
    },
    {
      "channel": 2,
      "note": 81,
      "start": 6.1358,
      "duration": 1.1654,
      "velocity": 74,
      "chip": "ym2612"
    },
    {
      "channel": 3,
      "note": 76,
      "start": 6.1365,
      "duration": 1.1792,
      "velocity": 74,
      "chip": "ym2612"
    },
    {
      "channel": 4,
      "note": 57,
      "start": 6.1372,
      "duration": 0.3118,
      "velocity": 74,
      "chip": "ym2612"
    },
    {
      "channel": 4,
      "note": 45,
      "start": 6.4491,
      "duration": 0.6089,
      "velocity": 91,
      "chip": "ym2612"
    },
    {
      "channel": 1,
      "note": 45,
      "start": 7.05,
      "duration": 0.0034,
      "velocity": 98,
      "chip": "ym2612"
    },
    {
      "channel": 1,
      "note": 44,
      "start": 7.0534,
      "duration": 0.0002,
      "velocity": 98,
      "chip": "ym2612"
    },
    {
      "channel": 1,
      "note": 43,
      "start": 7.0537,
      "duration": 0.0002,
      "velocity": 98,
      "chip": "ym2612"
    },
    {
      "channel": 1,
      "note": 42,
      "start": 7.0539,
      "duration": 0.0002,
      "velocity": 98,
      "chip": "ym2612"
    },
    {
      "channel": 1,
      "note": 41,
      "start": 7.0541,
      "duration": 0.0002,
      "velocity": 98,
      "chip": "ym2612"
    },
    {
      "channel": 1,
      "note": 40,
      "start": 7.0543,
      "duration": 0.001,
      "velocity": 98,
      "chip": "ym2612"
    },
    {
      "channel": 1,
      "note": 39,
      "start": 7.0553,
      "duration": 0.0002,
      "velocity": 98,
      "chip": "ym2612"
    },
    {
      "channel": 1,
      "note": 38,
      "start": 7.0555,
      "duration": 0.0002,
      "velocity": 98,
      "chip": "ym2612"
    },
    {
      "channel": 1,
      "note": 37,
      "start": 7.0557,
      "duration": 0.0002,
      "velocity": 98,
      "chip": "ym2612"
    },
    {
      "channel": 1,
      "note": 36,
      "start": 7.0559,
      "duration": 0.0002,
      "velocity": 98,
      "chip": "ym2612"
    },
    {
      "channel": 1,
      "note": 34,
      "start": 7.0561,
      "duration": 0.0002,
      "velocity": 98,
      "chip": "ym2612"
    },
    {
      "channel": 1,
      "note": 38,
      "start": 7.0564,
      "duration": 0.2468,
      "velocity": 98,
      "chip": "ym2612"
    },
    {
      "channel": 4,
      "note": 74,
      "start": 7.0582,
      "duration": 0.4036,
      "velocity": 91,
      "chip": "ym2612"
    },
    {
      "channel": 2,
      "note": 79,
      "start": 7.3014,
      "duration": 0.0008,
      "velocity": 74,
      "chip": "ym2612"
    },
    {
      "channel": 2,
      "note": 79,
      "start": 7.3022,
      "duration": 0.0001,
      "velocity": 74,
      "chip": "ym2612"
    },
    {
      "channel": 2,
      "note": 79,
      "start": 7.3023,
      "duration": 0.0002,
      "velocity": 74,
      "chip": "ym2612"
    },
    {
      "channel": 2,
      "note": 79,
      "start": 7.3025,
      "duration": 0.0002,
      "velocity": 74,
      "chip": "ym2612"
    },
    {
      "channel": 2,
      "note": 79,
      "start": 7.3027,
      "duration": 0.0002,
      "velocity": 74,
      "chip": "ym2612"
    },
    {
      "channel": 2,
      "note": 80,
      "start": 7.303,
      "duration": 0.0006,
      "velocity": 74,
      "chip": "ym2612"
    },
    {
      "channel": 1,
      "note": 38,
      "start": 7.3034,
      "duration": 0.1105,
      "velocity": 98,
      "chip": "ym2612"
    },
    {
      "channel": 2,
      "note": 81,
      "start": 7.3038,
      "duration": 0.1108,
      "velocity": 74,
      "chip": "ym2612"
    },
    {
      "channel": 3,
      "note": 79,
      "start": 7.3159,
      "duration": 0.0998,
      "velocity": 74,
      "chip": "ym2612"
    },
    {
      "channel": 1,
      "note": 41,
      "start": 7.4141,
      "duration": 0.0462,
      "velocity": 98,
      "chip": "ym2612"
    },
    {
      "channel": 2,
      "note": 77,
      "start": 7.4148,
      "duration": 0.0462,
      "velocity": 74,
      "chip": "ym2612"
    },
    {
      "channel": 3,
      "note": 79,
      "start": 7.4157,
      "duration": 0.0002,
      "velocity": 74,
      "chip": "ym2612"
    },
    {
      "channel": 3,
      "note": 79,
      "start": 7.4159,
      "duration": 0.0002,
      "velocity": 74,
      "chip": "ym2612"
    },
    {
      "channel": 3,
      "note": 79,
      "start": 7.416,
      "duration": 0.0002,
      "velocity": 74,
      "chip": "ym2612"
    },
    {
      "channel": 3,
      "note": 79,
      "start": 7.4162,
      "duration": 0.0002,
      "velocity": 74,
      "chip": "ym2612"
    },
    {
      "channel": 3,
      "note": 80,
      "start": 7.4164,
      "duration": 0.0002,
      "velocity": 74,
      "chip": "ym2612"
    },
    {
      "channel": 3,
      "note": 81,
      "start": 7.4167,
      "duration": 0.0459,
      "velocity": 74,
      "chip": "ym2612"
    },
    {
      "channel": 1,
      "note": 41,
      "start": 7.4605,
      "duration": 0.0493,
      "velocity": 98,
      "chip": "ym2612"
    },
    {
      "channel": 2,
      "note": 74,
      "start": 7.4612,
      "duration": 0.0456,
      "velocity": 74,
      "chip": "ym2612"
    },
    {
      "channel": 4,
      "note": 77,
      "start": 7.462,
      "duration": 0.0456,
      "velocity": 91,
      "chip": "ym2612"
    },
    {
      "channel": 3,
      "note": 77,
      "start": 7.4628,
      "duration": 0.046,
      "velocity": 74,
      "chip": "ym2612"
    },
    {
      "channel": 2,
      "note": 72,
      "start": 7.5071,
      "duration": 0.0032,
      "velocity": 74,
      "chip": "ym2612"
    },
    {
      "channel": 4,
      "note": 79,
      "start": 7.5078,
      "duration": 0.0027,
      "velocity": 91,
      "chip": "ym2612"
    },
    {
      "channel": 3,
      "note": 74,
      "start": 7.5091,
      "duration": 0.0132,
      "velocity": 74,
      "chip": "ym2612"
    },
    {
      "channel": 1,
      "note": 38,
      "start": 7.51,
      "duration": 0.1584,
      "velocity": 98,
      "chip": "ym2612"
    },
    {
      "channel": 2,
      "note": 74,
      "start": 7.5104,
      "duration": 0.2585,
      "velocity": 74,
      "chip": "ym2612"
    },
    {
      "channel": 4,
      "note": 80,
      "start": 7.5108,
      "duration": 0.0122,
      "velocity": 91,
      "chip": "ym2612"
    },
    {
      "channel": 3,
      "note": 72,
      "start": 7.5225,
      "duration": 0.1001,
      "velocity": 74,
      "chip": "ym2612"
    },
    {
      "channel": 4,
      "note": 81,
      "start": 7.5232,
      "duration": 0.1461,
      "velocity": 91,
      "chip": "ym2612"
    },
    {
      "channel": 3,
      "note": 74,
      "start": 7.6227,
      "duration": 0.2494,
      "velocity": 74,
      "chip": "ym2612"
    },
    {
      "channel": 1,
      "note": 38,
      "start": 7.6686,
      "duration": 0.1998,
      "velocity": 98,
      "chip": "ym2612"
    },
    {
      "channel": 4,
      "note": 84,
      "start": 7.6695,
      "duration": 0.202,
      "velocity": 91,
      "chip": "ym2612"
    },
    {
      "channel": 2,
      "note": 73,
      "start": 7.7689,
      "duration": 0.0157,
      "velocity": 74,
      "chip": "ym2612"
    },
    {
      "channel": 2,
      "note": 72,
      "start": 7.7846,
      "duration": 0.0167,
      "velocity": 74,
      "chip": "ym2612"
    },
    {
      "channel": 2,
      "note": 70,
      "start": 7.8013,
      "duration": 0.0167,
      "velocity": 74,
      "chip": "ym2612"
    },
    {
      "channel": 2,
      "note": 69,
      "start": 7.818,
      "duration": 0.0167,
      "velocity": 74,
      "chip": "ym2612"
    },
    {
      "channel": 2,
      "note": 68,
      "start": 7.8346,
      "duration": 0.0349,
      "velocity": 74,
      "chip": "ym2612"
    },
    {
      "channel": 1,
      "note": 41,
      "start": 7.8686,
      "duration": 0.1151,
      "velocity": 98,
      "chip": "ym2612"
    },
    {
      "channel": 2,
      "note": 67,
      "start": 7.8695,
      "duration": 0.0002,
      "velocity": 74,
      "chip": "ym2612"
    },
    {
      "channel": 2,
      "note": 66,
      "start": 7.8697,
      "duration": 0.0002,
      "velocity": 74,
      "chip": "ym2612"
    },
    {
      "channel": 2,
      "note": 65,
      "start": 7.8699,
      "duration": 0.0002,
      "velocity": 74,
      "chip": "ym2612"
    },
    {
      "channel": 2,
      "note": 64,
      "start": 7.8701,
      "duration": 0.0003,
      "velocity": 74,
      "chip": "ym2612"
    },
    {
      "channel": 2,
      "note": 63,
      "start": 7.8704,
      "duration": 0.0002,
      "velocity": 74,
      "chip": "ym2612"
    },
    {
      "channel": 2,
      "note": 62,
      "start": 7.8705,
      "duration": 0.0002,
      "velocity": 74,
      "chip": "ym2612"
    },
    {
      "channel": 2,
      "note": 61,
      "start": 7.8707,
      "duration": 0.0002,
      "velocity": 74,
      "chip": "ym2612"
    },
    {
      "channel": 2,
      "note": 60,
      "start": 7.871,
      "duration": 0.0002,
      "velocity": 74,
      "chip": "ym2612"
    },
    {
      "channel": 2,
      "note": 58,
      "start": 7.8711,
      "duration": 0.0002,
      "velocity": 74,
      "chip": "ym2612"
    },
    {
      "channel": 2,
      "note": 57,
      "start": 7.8713,
      "duration": 0.0006,
      "velocity": 74,
      "chip": "ym2612"
    },
    {
      "channel": 4,
      "note": 80,
      "start": 7.8718,
      "duration": 0.0121,
      "velocity": 91,
      "chip": "ym2612"
    },
    {
      "channel": 2,
      "note": 56,
      "start": 7.872,
      "duration": 0.0003,
      "velocity": 74,
      "chip": "ym2612"
    },
    {
      "channel": 3,
      "note": 73,
      "start": 7.8721,
      "duration": 0.0003,
      "velocity": 74,
      "chip": "ym2612"
    },
    {
      "channel": 2,
      "note": 55,
      "start": 7.8723,
      "duration": 0.0004,
      "velocity": 74,
      "chip": "ym2612"
    },
    {
      "channel": 3,
      "note": 72,
      "start": 7.8725,
      "duration": 0.0004,
      "velocity": 74,
      "chip": "ym2612"
    },
    {
      "channel": 2,
      "note": 54,
      "start": 7.8727,
      "duration": 0.0004,
      "velocity": 74,
      "chip": "ym2612"
    },
    {
      "channel": 3,
      "note": 70,
      "start": 7.8729,
      "duration": 0.0004,
      "velocity": 74,
      "chip": "ym2612"
    },
    {
      "channel": 2,
      "note": 53,
      "start": 7.8731,
      "duration": 0.0004,
      "velocity": 74,
      "chip": "ym2612"
    },
    {
      "channel": 3,
      "note": 69,
      "start": 7.8733,
      "duration": 0.0005,
      "velocity": 74,
      "chip": "ym2612"
    },
    {
      "channel": 2,
      "note": 52,
      "start": 7.8735,
      "duration": 0.0111,
      "velocity": 74,
      "chip": "ym2612"
    },
    {
      "channel": 3,
      "note": 68,
      "start": 7.8737,
      "duration": 0.0112,
      "velocity": 74,
      "chip": "ym2612"
    },
    {
      "channel": 4,
      "note": 81,
      "start": 7.8841,
      "duration": 0.1463,
      "velocity": 91,
      "chip": "ym2612"
    },
    {
      "channel": 2,
      "note": 51,
      "start": 7.8846,
      "duration": 0.0152,
      "velocity": 74,
      "chip": "ym2612"
    },
    {
      "channel": 3,
      "note": 67,
      "start": 7.885,
      "duration": 0.0152,
      "velocity": 74,
      "chip": "ym2612"
    },
    {
      "channel": 2,
      "note": 50,
      "start": 7.8999,
      "duration": 0.0166,
      "velocity": 74,
      "chip": "ym2612"
    },
    {
      "channel": 3,
      "note": 66,
      "start": 7.9002,
      "duration": 0.0167,
      "velocity": 74,
      "chip": "ym2612"
    },
    {
      "channel": 2,
      "note": 49,
      "start": 7.9165,
      "duration": 0.0167,
      "velocity": 74,
      "chip": "ym2612"
    },
    {
      "channel": 3,
      "note": 65,
      "start": 7.9168,
      "duration": 0.0167,
      "velocity": 74,
      "chip": "ym2612"
    },
    {
      "channel": 2,
      "note": 48,
      "start": 7.9332,
      "duration": 0.0166,
      "velocity": 74,
      "chip": "ym2612"
    },
    {
      "channel": 3,
      "note": 64,
      "start": 7.9335,
      "duration": 0.0167,
      "velocity": 74,
      "chip": "ym2612"
    },
    {
      "channel": 2,
      "note": 46,
      "start": 7.9498,
      "duration": 0.0349,
      "velocity": 74,
      "chip": "ym2612"
    },
    {
      "channel": 3,
      "note": 63,
      "start": 7.9502,
      "duration": 0.0346,
      "velocity": 74,
      "chip": "ym2612"
    },
    {
      "channel": 1,
      "note": 43,
      "start": 7.9838,
      "duration": 0.0929,
      "velocity": 98,
      "chip": "ym2612"
    },
    {
      "channel": 2,
      "note": 45,
      "start": 7.9847,
      "duration": 0.0003,
      "velocity": 74,
      "chip": "ym2612"
    },
    {
      "channel": 3,
      "note": 62,
      "start": 7.9848,
      "duration": 0.0003,
      "velocity": 74,
      "chip": "ym2612"
    },
    {
      "channel": 2,
      "note": 44,
      "start": 7.9849,
      "duration": 0.0003,
      "velocity": 74,
      "chip": "ym2612"
    },
    {
      "channel": 3,
      "note": 61,
      "start": 7.9851,
      "duration": 0.0003,
      "velocity": 74,
      "chip": "ym2612"
    },
    {
      "channel": 2,
      "note": 43,
      "start": 7.9853,
      "duration": 0.0003,
      "velocity": 74,
      "chip": "ym2612"
    },
    {
      "channel": 3,
      "note": 60,
      "start": 7.9854,
      "duration": 0.0003,
      "velocity": 74,
      "chip": "ym2612"
    },
    {
      "channel": 2,
      "note": 42,
      "start": 7.9856,
      "duration": 0.0003,
      "velocity": 74,
      "chip": "ym2612"
    },
    {
      "channel": 3,
      "note": 58,
      "start": 7.9858,
      "duration": 0.0003,
      "velocity": 74,
      "chip": "ym2612"
    },
    {
      "channel": 2,
      "note": 41,
      "start": 7.986,
      "duration": 0.0003,
      "velocity": 74,
      "chip": "ym2612"
    },
    {
      "channel": 3,
      "note": 57,
      "start": 7.9861,
      "duration": 0.0003,
      "velocity": 74,
      "chip": "ym2612"
    },
    {
      "channel": 2,
      "note": 40,
      "start": 7.9863,
      "duration": 0.0003,
      "velocity": 74,
      "chip": "ym2612"
    },
    {
      "channel": 3,
      "note": 56,
      "start": 7.9864,
      "duration": 0.0003,
      "velocity": 74,
      "chip": "ym2612"
    },
    {
      "channel": 2,
      "note": 39,
      "start": 7.9866,
      "duration": 0.0003,
      "velocity": 74,
      "chip": "ym2612"
    },
    {
      "channel": 3,
      "note": 55,
      "start": 7.9868,
      "duration": 0.0003,
      "velocity": 74,
      "chip": "ym2612"
    },
    {
      "channel": 2,
      "note": 38,
      "start": 7.9869,
      "duration": 0.0003,
      "velocity": 74,
      "chip": "ym2612"
    },
    {
      "channel": 3,
      "note": 54,
      "start": 7.9871,
      "duration": 0.0003,
      "velocity": 74,
      "chip": "ym2612"
    },
    {
      "channel": 2,
      "note": 37,
      "start": 7.9873,
      "duration": 0.0091,
      "velocity": 74,
      "chip": "ym2612"
    },
    {
      "channel": 3,
      "note": 53,
      "start": 7.9875,
      "duration": 0.0092,
      "velocity": 74,
      "chip": "ym2612"
    },
    {
      "channel": 2,
      "note": 36,
      "start": 7.9964,
      "duration": 0.0349,
      "velocity": 74,
      "chip": "ym2612"
    },
    {
      "channel": 3,
      "note": 52,
      "start": 7.9967,
      "duration": 0.0347,
      "velocity": 74,
      "chip": "ym2612"
    },
    {
      "channel": 4,
      "note": 84,
      "start": 8.0306,
      "duration": 0.047,
      "velocity": 91,
      "chip": "ym2612"
    },
    {
      "channel": 2,
      "note": 34,
      "start": 8.0312,
      "duration": 0.0003,
      "velocity": 74,
      "chip": "ym2612"
    },
    {
      "channel": 3,
      "note": 51,
      "start": 8.0314,
      "duration": 0.0004,
      "velocity": 74,
      "chip": "ym2612"
    },
    {
      "channel": 2,
      "note": 33,
      "start": 8.0316,
      "duration": 0.0003,
      "velocity": 74,
      "chip": "ym2612"
    },
    {
      "channel": 3,
      "note": 50,
      "start": 8.0317,
      "duration": 0.0003,
      "velocity": 74,
      "chip": "ym2612"
    },
    {
      "channel": 2,
      "note": 32,
      "start": 8.0318,
      "duration": 0.0003,
      "velocity": 74,
      "chip": "ym2612"
    },
    {
      "channel": 3,
      "note": 49,
      "start": 8.032,
      "duration": 0.0003,
      "velocity": 74,
      "chip": "ym2612"
    },
    {
      "channel": 2,
      "note": 31,
      "start": 8.0322,
      "duration": 0.0003,
      "velocity": 74,
      "chip": "ym2612"
    },
    {
      "channel": 3,
      "note": 48,
      "start": 8.0323,
      "duration": 0.0003,
      "velocity": 74,
      "chip": "ym2612"
    },
    {
      "channel": 2,
      "note": 30,
      "start": 8.0325,
      "duration": 0.0003,
      "velocity": 74,
      "chip": "ym2612"
    },
    {
      "channel": 3,
      "note": 46,
      "start": 8.0327,
      "duration": 0.0003,
      "velocity": 74,
      "chip": "ym2612"
    },
    {
      "channel": 2,
      "note": 29,
      "start": 8.0329,
      "duration": 0.0002,
      "velocity": 74,
      "chip": "ym2612"
    },
    {
      "channel": 3,
      "note": 45,
      "start": 8.033,
      "duration": 0.0004,
      "velocity": 74,
      "chip": "ym2612"
    },
    {
      "channel": 2,
      "note": 28,
      "start": 8.0331,
      "duration": 0.0004,
      "velocity": 74,
      "chip": "ym2612"
    },
    {
      "channel": 3,
      "note": 44,
      "start": 8.0333,
      "duration": 0.0003,
      "velocity": 74,
      "chip": "ym2612"
    },
    {
      "channel": 2,
      "note": 27,
      "start": 8.0335,
      "duration": 0.0003,
      "velocity": 74,
      "chip": "ym2612"
    },
    {
      "channel": 3,
      "note": 43,
      "start": 8.0337,
      "duration": 0.0003,
      "velocity": 74,
      "chip": "ym2612"
    },
    {
      "channel": 2,
      "note": 26,
      "start": 8.0338,
      "duration": 0.0091,
      "velocity": 74,
      "chip": "ym2612"
    },
    {
      "channel": 3,
      "note": 42,
      "start": 8.034,
      "duration": 0.0092,
      "velocity": 74,
      "chip": "ym2612"
    },
    {
      "channel": 2,
      "note": 25,
      "start": 8.0429,
      "duration": 0.0355,
      "velocity": 74,
      "chip": "ym2612"
    },
    {
      "channel": 3,
      "note": 41,
      "start": 8.0432,
      "duration": 0.0354,
      "velocity": 74,
      "chip": "ym2612"
    },
    {
      "channel": 1,
      "note": 41,
      "start": 8.0769,
      "duration": 0.1159,
      "velocity": 98,
      "chip": "ym2612"
    },
    {
      "channel": 4,
      "note": 81,
      "start": 8.0778,
      "duration": 0.0031,
      "velocity": 91,
      "chip": "ym2612"
    },
    {
      "channel": 2,
      "note": 24,
      "start": 8.0784,
      "duration": 0.0008,
      "velocity": 74,
      "chip": "ym2612"
    },
    {
      "channel": 3,
      "note": 40,
      "start": 8.0786,
      "duration": 0.0008,
      "velocity": 74,
      "chip": "ym2612"
    },
    {
      "channel": 2,
      "note": 22,
      "start": 8.0792,
      "duration": 0.0004,
      "velocity": 74,
      "chip": "ym2612"
    },
    {
      "channel": 3,
      "note": 39,
      "start": 8.0795,
      "duration": 0.0004,
      "velocity": 74,
      "chip": "ym2612"
    },
    {
      "channel": 2,
      "note": 21,
      "start": 8.0796,
      "duration": 0.0004,
      "velocity": 74,
      "chip": "ym2612"
    },
    {
      "channel": 3,
      "note": 38,
      "start": 8.0798,
      "duration": 0.0004,
      "velocity": 74,
      "chip": "ym2612"
    },
    {
      "channel": 2,
      "note": 116,
      "start": 8.08,
      "duration": 0.0004,
      "velocity": 74,
      "chip": "ym2612"
    },
    {
      "channel": 3,
      "note": 37,
      "start": 8.0802,
      "duration": 0.0005,
      "velocity": 74,
      "chip": "ym2612"
    },
    {
      "channel": 2,
      "note": 115,
      "start": 8.0805,
      "duration": 0.0008,
      "velocity": 74,
      "chip": "ym2612"
    },
    {
      "channel": 3,
      "note": 36,
      "start": 8.0807,
      "duration": 0.0008,
      "velocity": 74,
      "chip": "ym2612"
    },
    {
      "channel": 4,
      "note": 80,
      "start": 8.0811,
      "duration": 0.0021,
      "velocity": 91,
      "chip": "ym2612"
    },
    {
      "channel": 2,
      "note": 114,
      "start": 8.0813,
      "duration": 0.0004,
      "velocity": 74,
      "chip": "ym2612"
    },
    {
      "channel": 3,
      "note": 34,
      "start": 8.0815,
      "duration": 0.0004,
      "velocity": 74,
      "chip": "ym2612"
    },
    {
      "channel": 2,
      "note": 113,
      "start": 8.0817,
      "duration": 0.0004,
      "velocity": 74,
      "chip": "ym2612"
    },
    {
      "channel": 3,
      "note": 33,
      "start": 8.0818,
      "duration": 0.0004,
      "velocity": 74,
      "chip": "ym2612"
    },
    {
      "channel": 2,
      "note": 112,
      "start": 8.0821,
      "duration": 0.0003,
      "velocity": 74,
      "chip": "ym2612"
    },
    {
      "channel": 3,
      "note": 32,
      "start": 8.0822,
      "duration": 0.0004,
      "velocity": 74,
      "chip": "ym2612"
    },
    {
      "channel": 2,
      "note": 111,
      "start": 8.0824,
      "duration": 0.0004,
      "velocity": 74,
      "chip": "ym2612"
    },
    {
      "channel": 3,
      "note": 31,
      "start": 8.0826,
      "duration": 0.0005,
      "velocity": 74,
      "chip": "ym2612"
    },
    {
      "channel": 2,
      "note": 110,
      "start": 8.0828,
      "duration": 0.0009,
      "velocity": 74,
      "chip": "ym2612"
    },
    {
      "channel": 3,
      "note": 30,
      "start": 8.0831,
      "duration": 0.0008,
      "velocity": 74,
      "chip": "ym2612"
    },
    {
      "channel": 4,
      "note": 79,
      "start": 8.0835,
      "duration": 0.0095,
      "velocity": 91,
      "chip": "ym2612"
    },
    {
      "channel": 2,
      "note": 109,
      "start": 8.0837,
      "duration": 0.0004,
      "velocity": 74,
      "chip": "ym2612"
    },
    {
      "channel": 3,
      "note": 29,
      "start": 8.0839,
      "duration": 0.0004,
      "velocity": 74,
      "chip": "ym2612"
    },
    {
      "channel": 2,
      "note": 108,
      "start": 8.0841,
      "duration": 0.0003,
      "velocity": 74,
      "chip": "ym2612"
    },
    {
      "channel": 3,
      "note": 28,
      "start": 8.0843,
      "duration": 0.0004,
      "velocity": 74,
      "chip": "ym2612"
    },
    {
      "channel": 2,
      "note": 106,
      "start": 8.0845,
      "duration": 0.0004,
      "velocity": 74,
      "chip": "ym2612"
    },
    {
      "channel": 3,
      "note": 27,
      "start": 8.0846,
      "duration": 0.0004,
      "velocity": 74,
      "chip": "ym2612"
    },
    {
      "channel": 2,
      "note": 105,
      "start": 8.0849,
      "duration": 0.0005,
      "velocity": 74,
      "chip": "ym2612"
    },
    {
      "channel": 3,
      "note": 26,
      "start": 8.0851,
      "duration": 0.0004,
      "velocity": 74,
      "chip": "ym2612"
    },
    {
      "channel": 2,
      "note": 104,
      "start": 8.0853,
      "duration": 0.0084,
      "velocity": 74,
      "chip": "ym2612"
    },
    {
      "channel": 3,
      "note": 25,
      "start": 8.0855,
      "duration": 0.0085,
      "velocity": 74,
      "chip": "ym2612"
    },
    {
      "channel": 4,
      "note": 77,
      "start": 8.0931,
      "duration": 0.1005,
      "velocity": 91,
      "chip": "ym2612"
    },
    {
      "channel": 2,
      "note": 103,
      "start": 8.0937,
      "duration": 0.0153,
      "velocity": 74,
      "chip": "ym2612"
    },
    {
      "channel": 3,
      "note": 24,
      "start": 8.094,
      "duration": 0.0153,
      "velocity": 74,
      "chip": "ym2612"
    },
    {
      "channel": 2,
      "note": 102,
      "start": 8.109,
      "duration": 0.0167,
      "velocity": 74,
      "chip": "ym2612"
    },
    {
      "channel": 3,
      "note": 22,
      "start": 8.1093,
      "duration": 0.0167,
      "velocity": 74,
      "chip": "ym2612"
    },
    {
      "channel": 2,
      "note": 101,
      "start": 8.1256,
      "duration": 0.0166,
      "velocity": 74,
      "chip": "ym2612"
    },
    {
      "channel": 3,
      "note": 21,
      "start": 8.126,
      "duration": 0.0167,
      "velocity": 74,
      "chip": "ym2612"
    },
    {
      "channel": 2,
      "note": 100,
      "start": 8.1422,
      "duration": 0.0167,
      "velocity": 74,
      "chip": "ym2612"
    },
    {
      "channel": 3,
      "note": 116,
      "start": 8.1426,
      "duration": 0.0167,
      "velocity": 74,
      "chip": "ym2612"
    },
    {
      "channel": 2,
      "note": 99,
      "start": 8.159,
      "duration": 0.0355,
      "velocity": 74,
      "chip": "ym2612"
    },
    {
      "channel": 3,
      "note": 115,
      "start": 8.1593,
      "duration": 0.0353,
      "velocity": 74,
      "chip": "ym2612"
    },
    {
      "channel": 1,
      "note": 38,
      "start": 8.1929,
      "duration": 0.2509,
      "velocity": 98,
      "chip": "ym2612"
    },
    {
      "channel": 4,
      "note": 74,
      "start": 8.1938,
      "duration": 0.2507,
      "velocity": 91,
      "chip": "ym2612"
    },
    {
      "channel": 2,
      "note": 98,
      "start": 8.1945,
      "duration": 0.0002,
      "velocity": 74,
      "chip": "ym2612"
    },
    {
      "channel": 3,
      "note": 114,
      "start": 8.1946,
      "duration": 0.0003,
      "velocity": 74,
      "chip": "ym2612"
    },
    {
      "channel": 2,
      "note": 97,
      "start": 8.1947,
      "duration": 0.0003,
      "velocity": 74,
      "chip": "ym2612"
    },
    {
      "channel": 3,
      "note": 113,
      "start": 8.1949,
      "duration": 0.0003,
      "velocity": 74,
      "chip": "ym2612"
    },
    {
      "channel": 2,
      "note": 96,
      "start": 8.1951,
      "duration": 0.0003,
      "velocity": 74,
      "chip": "ym2612"
    },
    {
      "channel": 3,
      "note": 112,
      "start": 8.1953,
      "duration": 0.0003,
      "velocity": 74,
      "chip": "ym2612"
    },
    {
      "channel": 2,
      "note": 94,
      "start": 8.1954,
      "duration": 0.0003,
      "velocity": 74,
      "chip": "ym2612"
    },
    {
      "channel": 3,
      "note": 111,
      "start": 8.1956,
      "duration": 0.0003,
      "velocity": 74,
      "chip": "ym2612"
    },
    {
      "channel": 2,
      "note": 93,
      "start": 8.1958,
      "duration": 0.0004,
      "velocity": 74,
      "chip": "ym2612"
    },
    {
      "channel": 3,
      "note": 110,
      "start": 8.1959,
      "duration": 0.0004,
      "velocity": 74,
      "chip": "ym2612"
    },
    {
      "channel": 2,
      "note": 92,
      "start": 8.1961,
      "duration": 0.0005,
      "velocity": 74,
      "chip": "ym2612"
    },
    {
      "channel": 3,
      "note": 109,
      "start": 8.1963,
      "duration": 0.0004,
      "velocity": 74,
      "chip": "ym2612"
    },
    {
      "channel": 2,
      "note": 91,
      "start": 8.1966,
      "duration": 0.0003,
      "velocity": 74,
      "chip": "ym2612"
    },
    {
      "channel": 3,
      "note": 108,
      "start": 8.1967,
      "duration": 0.0003,
      "velocity": 74,
      "chip": "ym2612"
    },
    {
      "channel": 2,
      "note": 90,
      "start": 8.1969,
      "duration": 0.0002,
      "velocity": 74,
      "chip": "ym2612"
    },
    {
      "channel": 3,
      "note": 106,
      "start": 8.197,
      "duration": 0.0003,
      "velocity": 74,
      "chip": "ym2612"
    },
    {
      "channel": 2,
      "note": 89,
      "start": 8.1972,
      "duration": 0.0084,
      "velocity": 74,
      "chip": "ym2612"
    },
    {
      "channel": 3,
      "note": 105,
      "start": 8.1973,
      "duration": 0.0085,
      "velocity": 74,
      "chip": "ym2612"
    },
    {
      "channel": 2,
      "note": 88,
      "start": 8.2056,
      "duration": 0.0341,
      "velocity": 74,
      "chip": "ym2612"
    },
    {
      "channel": 3,
      "note": 104,
      "start": 8.2059,
      "duration": 0.0341,
      "velocity": 74,
      "chip": "ym2612"
    },
    {
      "channel": 2,
      "note": 87,
      "start": 8.2397,
      "duration": 0.0159,
      "velocity": 74,
      "chip": "ym2612"
    },
    {
      "channel": 3,
      "note": 103,
      "start": 8.24,
      "duration": 0.0159,
      "velocity": 74,
      "chip": "ym2612"
    },
    {
      "channel": 2,
      "note": 86,
      "start": 8.2556,
      "duration": 0.0166,
      "velocity": 74,
      "chip": "ym2612"
    },
    {
      "channel": 3,
      "note": 102,
      "start": 8.2559,
      "duration": 0.0167,
      "velocity": 74,
      "chip": "ym2612"
    },
    {
      "channel": 2,
      "note": 85,
      "start": 8.2722,
      "duration": 0.0167,
      "velocity": 74,
      "chip": "ym2612"
    },
    {
      "channel": 3,
      "note": 101,
      "start": 8.2726,
      "duration": 0.0167,
      "velocity": 74,
      "chip": "ym2612"
    },
    {
      "channel": 2,
      "note": 84,
      "start": 8.2889,
      "duration": 0.0166,
      "velocity": 74,
      "chip": "ym2612"
    },
    {
      "channel": 3,
      "note": 100,
      "start": 8.2892,
      "duration": 0.0167,
      "velocity": 74,
      "chip": "ym2612"
    },
    {
      "channel": 2,
      "note": 82,
      "start": 8.3055,
      "duration": 0.0342,
      "velocity": 74,
      "chip": "ym2612"
    },
    {
      "channel": 3,
      "note": 99,
      "start": 8.3059,
      "duration": 0.0341,
      "velocity": 74,
      "chip": "ym2612"
    },
    {
      "channel": 2,
      "note": 81,
      "start": 8.3397,
      "duration": 0.0159,
      "velocity": 74,
      "chip": "ym2612"
    },
    {
      "channel": 3,
      "note": 98,
      "start": 8.34,
      "duration": 0.0159,
      "velocity": 74,
      "chip": "ym2612"
    },
    {
      "channel": 2,
      "note": 80,
      "start": 8.3556,
      "duration": 0.0166,
      "velocity": 74,
      "chip": "ym2612"
    },
    {
      "channel": 3,
      "note": 97,
      "start": 8.3559,
      "duration": 0.0167,
      "velocity": 74,
      "chip": "ym2612"
    },
    {
      "channel": 2,
      "note": 79,
      "start": 8.3722,
      "duration": 0.0167,
      "velocity": 74,
      "chip": "ym2612"
    },
    {
      "channel": 3,
      "note": 96,
      "start": 8.3726,
      "duration": 0.0167,
      "velocity": 74,
      "chip": "ym2612"
    },
    {
      "channel": 2,
      "note": 78,
      "start": 8.3889,
      "duration": 0.0166,
      "velocity": 74,
      "chip": "ym2612"
    },
    {
      "channel": 3,
      "note": 94,
      "start": 8.3892,
      "duration": 0.0167,
      "velocity": 74,
      "chip": "ym2612"
    },
    {
      "channel": 2,
      "note": 77,
      "start": 8.4055,
      "duration": 0.0339,
      "velocity": 74,
      "chip": "ym2612"
    },
    {
      "channel": 3,
      "note": 93,
      "start": 8.4059,
      "duration": 0.0346,
      "velocity": 74,
      "chip": "ym2612"
    },
    {
      "channel": 2,
      "note": 79,
      "start": 8.4396,
      "duration": 0.0018,
      "velocity": 74,
      "chip": "ym2612"
    },
    {
      "channel": 3,
      "note": 92,
      "start": 8.4405,
      "duration": 0.0001,
      "velocity": 74,
      "chip": "ym2612"
    },
    {
      "channel": 3,
      "note": 91,
      "start": 8.4406,
      "duration": 0.0002,
      "velocity": 74,
      "chip": "ym2612"
    },
    {
      "channel": 3,
      "note": 90,
      "start": 8.4407,
      "duration": 0.0003,
      "velocity": 74,
      "chip": "ym2612"
    },
    {
      "channel": 3,
      "note": 89,
      "start": 8.441,
      "duration": 0.0002,
      "velocity": 74,
      "chip": "ym2612"
    },
    {
      "channel": 3,
      "note": 88,
      "start": 8.4412,
      "duration": 0.0004,
      "velocity": 74,
      "chip": "ym2612"
    },
    {
      "channel": 2,
      "note": 79,
      "start": 8.4415,
      "duration": 0.0005,
      "velocity": 74,
      "chip": "ym2612"
    },
    {
      "channel": 3,
      "note": 87,
      "start": 8.4417,
      "duration": 0.0005,
      "velocity": 74,
      "chip": "ym2612"
    },
    {
      "channel": 2,
      "note": 79,
      "start": 8.442,
      "duration": 0.0003,
      "velocity": 74,
      "chip": "ym2612"
    },
    {
      "channel": 3,
      "note": 86,
      "start": 8.4421,
      "duration": 0.0004,
      "velocity": 74,
      "chip": "ym2612"
    },
    {
      "channel": 2,
      "note": 79,
      "start": 8.4423,
      "duration": 0.0004,
      "velocity": 74,
      "chip": "ym2612"
    },
    {
      "channel": 3,
      "note": 85,
      "start": 8.4425,
      "duration": 0.0004,
      "velocity": 74,
      "chip": "ym2612"
    },
    {
      "channel": 2,
      "note": 79,
      "start": 8.4427,
      "duration": 0.0004,
      "velocity": 74,
      "chip": "ym2612"
    },
    {
      "channel": 3,
      "note": 84,
      "start": 8.4429,
      "duration": 0.0004,
      "velocity": 74,
      "chip": "ym2612"
    },
    {
      "channel": 2,
      "note": 80,
      "start": 8.4431,
      "duration": 0.0011,
      "velocity": 74,
      "chip": "ym2612"
    },
    {
      "channel": 3,
      "note": 82,
      "start": 8.4433,
      "duration": 0.0016,
      "velocity": 74,
      "chip": "ym2612"
    },
    {
      "channel": 1,
      "note": 38,
      "start": 8.444,
      "duration": 0.1112,
      "velocity": 98,
      "chip": "ym2612"
    },
    {
      "channel": 2,
      "note": 81,
      "start": 8.4444,
      "duration": 0.1116,
      "velocity": 74,
      "chip": "ym2612"
    },
    {
      "channel": 4,
      "note": 72,
      "start": 8.4447,
      "duration": 0.1584,
      "velocity": 91,
      "chip": "ym2612"
    },
    {
      "channel": 3,
      "note": 81,
      "start": 8.4449,
      "duration": 0.0001,
      "velocity": 74,
      "chip": "ym2612"
    },
    {
      "channel": 3,
      "note": 80,
      "start": 8.445,
      "duration": 0.0002,
      "velocity": 74,
      "chip": "ym2612"
    },
    {
      "channel": 3,
      "note": 79,
      "start": 8.4452,
      "duration": 0.0003,
      "velocity": 74,
      "chip": "ym2612"
    },
    {
      "channel": 3,
      "note": 78,
      "start": 8.4455,
      "duration": 0.0002,
      "velocity": 74,
      "chip": "ym2612"
    },
    {
      "channel": 3,
      "note": 77,
      "start": 8.4457,
      "duration": 0.0097,
      "velocity": 74,
      "chip": "ym2612"
    },
    {
      "channel": 3,
      "note": 79,
      "start": 8.4556,
      "duration": 0.1015,
      "velocity": 74,
      "chip": "ym2612"
    },
    {
      "channel": 1,
      "note": 41,
      "start": 8.5554,
      "duration": 0.0462,
      "velocity": 98,
      "chip": "ym2612"
    },
    {
      "channel": 2,
      "note": 84,
      "start": 8.5561,
      "duration": 0.0462,
      "velocity": 74,
      "chip": "ym2612"
    },
    {
      "channel": 3,
      "note": 79,
      "start": 8.557,
      "duration": 0.0002,
      "velocity": 74,
      "chip": "ym2612"
    },
    {
      "channel": 3,
      "note": 79,
      "start": 8.5572,
      "duration": 0.0002,
      "velocity": 74,
      "chip": "ym2612"
    },
    {
      "channel": 3,
      "note": 79,
      "start": 8.5574,
      "duration": 0.0002,
      "velocity": 74,
      "chip": "ym2612"
    },
    {
      "channel": 3,
      "note": 79,
      "start": 8.5576,
      "duration": 0.0002,
      "velocity": 74,
      "chip": "ym2612"
    },
    {
      "channel": 3,
      "note": 80,
      "start": 8.5577,
      "duration": 0.0002,
      "velocity": 74,
      "chip": "ym2612"
    },
    {
      "channel": 3,
      "note": 81,
      "start": 8.5581,
      "duration": 0.0459,
      "velocity": 74,
      "chip": "ym2612"
    },
    {
      "channel": 1,
      "note": 41,
      "start": 8.6019,
      "duration": 0.0493,
      "velocity": 98,
      "chip": "ym2612"
    },
    {
      "channel": 2,
      "note": 81,
      "start": 8.6026,
      "duration": 0.0456,
      "velocity": 74,
      "chip": "ym2612"
    },
    {
      "channel": 4,
      "note": 68,
      "start": 8.6033,
      "duration": 0.0456,
      "velocity": 91,
      "chip": "ym2612"
    },
    {
      "channel": 3,
      "note": 84,
      "start": 8.6042,
      "duration": 0.046,
      "velocity": 74,
      "chip": "ym2612"
    },
    {
      "channel": 2,
      "note": 88,
      "start": 8.6484,
      "duration": 0.0032,
      "velocity": 74,
      "chip": "ym2612"
    },
    {
      "channel": 4,
      "note": 69,
      "start": 8.6491,
      "duration": 0.0027,
      "velocity": 91,
      "chip": "ym2612"
    },
    {
      "channel": 3,
      "note": 81,
      "start": 8.6504,
      "duration": 0.0132,
      "velocity": 74,
      "chip": "ym2612"
    },
    {
      "channel": 1,
      "note": 38,
      "start": 8.6513,
      "duration": 0.1583,
      "velocity": 98,
      "chip": "ym2612"
    },
    {
      "channel": 2,
      "note": 86,
      "start": 8.6517,
      "duration": 0.1603,
      "velocity": 74,
      "chip": "ym2612"
    },
    {
      "channel": 4,
      "note": 77,
      "start": 8.6521,
      "duration": 0.1606,
      "velocity": 91,
      "chip": "ym2612"
    },
    {
      "channel": 3,
      "note": 88,
      "start": 8.6638,
      "duration": 0.1017,
      "velocity": 74,
      "chip": "ym2612"
    },
    {
      "channel": 3,
      "note": 86,
      "start": 8.7657,
      "duration": 0.2478,
      "velocity": 74,
      "chip": "ym2612"
    },
    {
      "channel": 1,
      "note": 38,
      "start": 8.8099,
      "duration": 0.1998,
      "velocity": 98,
      "chip": "ym2612"
    },
    {
      "channel": 2,
      "note": 84,
      "start": 8.8122,
      "duration": 0.1982,
      "velocity": 74,
      "chip": "ym2612"
    },
    {
      "channel": 4,
      "note": 74,
      "start": 8.813,
      "duration": 0.1982,
      "velocity": 91,
      "chip": "ym2612"
    },
    {
      "channel": 1,
      "note": 41,
      "start": 9.0099,
      "duration": 0.004,
      "velocity": 98,
      "chip": "ym2612"
    },
    {
      "channel": 2,
      "note": 81,
      "start": 9.0106,
      "duration": 0.0036,
      "velocity": 74,
      "chip": "ym2612"
    },
    {
      "channel": 4,
      "note": 80,
      "start": 9.0113,
      "duration": 0.0037,
      "velocity": 91,
      "chip": "ym2612"
    },
    {
      "channel": 3,
      "note": 84,
      "start": 9.0137,
      "duration": 0.0024,
      "velocity": 74,
      "chip": "ym2612"
    },
    {
      "channel": 1,
      "note": 38,
      "start": 9.014,
      "duration": 0.0447,
      "velocity": 98,
      "chip": "ym2612"
    },
    {
      "channel": 2,
      "note": 80,
      "start": 9.0144,
      "duration": 0.0449,
      "velocity": 74,
      "chip": "ym2612"
    },
    {
      "channel": 4,
      "note": 81,
      "start": 9.0154,
      "duration": 0.0447,
      "velocity": 91,
      "chip": "ym2612"
    },
    {
      "channel": 3,
      "note": 81,
      "start": 9.0163,
      "duration": 0.0447,
      "velocity": 74,
      "chip": "ym2612"
    },
    {
      "channel": 1,
      "note": 43,
      "start": 9.0589,
      "duration": 0.0654,
      "velocity": 98,
      "chip": "ym2612"
    },
    {
      "channel": 2,
      "note": 79,
      "start": 9.0596,
      "duration": 0.0654,
      "velocity": 74,
      "chip": "ym2612"
    },
    {
      "channel": 4,
      "note": 86,
      "start": 9.0603,
      "duration": 0.0654,
      "velocity": 91,
      "chip": "ym2612"
    },
    {
      "channel": 3,
      "note": 80,
      "start": 9.0611,
      "duration": 0.0654,
      "velocity": 74,
      "chip": "ym2612"
    },
    {
      "channel": 1,
      "note": 38,
      "start": 9.1244,
      "duration": 0.0461,
      "velocity": 98,
      "chip": "ym2612"
    },
    {
      "channel": 2,
      "note": 77,
      "start": 9.1251,
      "duration": 0.0461,
      "velocity": 74,
      "chip": "ym2612"
    },
    {
      "channel": 4,
      "note": 80,
      "start": 9.1259,
      "duration": 0.0461,
      "velocity": 91,
      "chip": "ym2612"
    },
    {
      "channel": 3,
      "note": 79,
      "start": 9.1267,
      "duration": 0.0466,
      "velocity": 74,
      "chip": "ym2612"
    },
    {
      "channel": 1,
      "note": 44,
      "start": 9.1707,
      "duration": 0.0033,
      "velocity": 98,
      "chip": "ym2612"
    },
    {
      "channel": 2,
      "note": 72,
      "start": 9.1715,
      "duration": 0.0031,
      "velocity": 74,
      "chip": "ym2612"
    },
    {
      "channel": 4,
      "note": 81,
      "start": 9.1722,
      "duration": 0.0028,
      "velocity": 91,
      "chip": "ym2612"
    },
    {
      "channel": 3,
      "note": 77,
      "start": 9.1734,
      "duration": 0.0127,
      "velocity": 74,
      "chip": "ym2612"
    },
    {
      "channel": 1,
      "note": 36,
      "start": 9.1743,
      "duration": 0.1117,
      "velocity": 98,
      "chip": "ym2612"
    },
    {
      "channel": 2,
      "note": 74,
      "start": 9.1748,
      "duration": 0.3575,
      "velocity": 74,
      "chip": "ym2612"
    },
    {
      "channel": 4,
      "note": 84,
      "start": 9.1752,
      "duration": 0.1118,
      "velocity": 91,
      "chip": "ym2612"
    },
    {
      "channel": 3,
      "note": 72,
      "start": 9.1863,
      "duration": 0.1016,
      "velocity": 74,
      "chip": "ym2612"
    },
    {
      "channel": 1,
      "note": 38,
      "start": 9.2862,
      "duration": 0.2488,
      "velocity": 98,
      "chip": "ym2612"
    },
    {
      "channel": 4,
      "note": 89,
      "start": 9.2872,
      "duration": 0.2459,
      "velocity": 91,
      "chip": "ym2612"
    },
    {
      "channel": 3,
      "note": 74,
      "start": 9.288,
      "duration": 0.259,
      "velocity": 74,
      "chip": "ym2612"
    },
    {
      "channel": 2,
      "note": 79,
      "start": 9.5325,
      "duration": 0.0014,
      "velocity": 74,
      "chip": "ym2612"
    },
    {
      "channel": 4,
      "note": 88,
      "start": 9.5333,
      "duration": 0.004,
      "velocity": 91,
      "chip": "ym2612"
    },
    {
      "channel": 2,
      "note": 79,
      "start": 9.534,
      "duration": 0.0002,
      "velocity": 74,
      "chip": "ym2612"
    },
    {
      "channel": 2,
      "note": 79,
      "start": 9.5342,
      "duration": 0.0002,
      "velocity": 74,
      "chip": "ym2612"
    },
    {
      "channel": 2,
      "note": 79,
      "start": 9.5344,
      "duration": 0.0002,
      "velocity": 74,
      "chip": "ym2612"
    },
    {
      "channel": 2,
      "note": 79,
      "start": 9.5346,
      "duration": 0.0002,
      "velocity": 74,
      "chip": "ym2612"
    },
    {
      "channel": 2,
      "note": 80,
      "start": 9.5348,
      "duration": 0.0006,
      "velocity": 74,
      "chip": "ym2612"
    },
    {
      "channel": 1,
      "note": 38,
      "start": 9.5352,
      "duration": 0.1116,
      "velocity": 98,
      "chip": "ym2612"
    },
    {
      "channel": 2,
      "note": 81,
      "start": 9.5356,
      "duration": 0.1119,
      "velocity": 74,
      "chip": "ym2612"
    },
    {
      "channel": 4,
      "note": 84,
      "start": 9.5376,
      "duration": 0.1571,
      "velocity": 91,
      "chip": "ym2612"
    },
    {
      "channel": 3,
      "note": 79,
      "start": 9.5472,
      "duration": 0.1014,
      "velocity": 74,
      "chip": "ym2612"
    },
    {
      "channel": 1,
      "note": 41,
      "start": 9.647,
      "duration": 0.0462,
      "velocity": 98,
      "chip": "ym2612"
    },
    {
      "channel": 2,
      "note": 77,
      "start": 9.6477,
      "duration": 0.0462,
      "velocity": 74,
      "chip": "ym2612"
    },
    {
      "channel": 3,
      "note": 79,
      "start": 9.6486,
      "duration": 0.0002,
      "velocity": 74,
      "chip": "ym2612"
    },
    {
      "channel": 3,
      "note": 79,
      "start": 9.6488,
      "duration": 0.0002,
      "velocity": 74,
      "chip": "ym2612"
    },
    {
      "channel": 3,
      "note": 79,
      "start": 9.649,
      "duration": 0.0002,
      "velocity": 74,
      "chip": "ym2612"
    },
    {
      "channel": 3,
      "note": 79,
      "start": 9.6491,
      "duration": 0.0002,
      "velocity": 74,
      "chip": "ym2612"
    },
    {
      "channel": 3,
      "note": 80,
      "start": 9.6493,
      "duration": 0.0002,
      "velocity": 74,
      "chip": "ym2612"
    },
    {
      "channel": 3,
      "note": 81,
      "start": 9.6497,
      "duration": 0.0459,
      "velocity": 74,
      "chip": "ym2612"
    },
    {
      "channel": 1,
      "note": 41,
      "start": 9.6935,
      "duration": 0.0503,
      "velocity": 98,
      "chip": "ym2612"
    },
    {
      "channel": 2,
      "note": 74,
      "start": 9.6942,
      "duration": 0.0457,
      "velocity": 74,
      "chip": "ym2612"
    },
    {
      "channel": 4,
      "note": 85,
      "start": 9.6949,
      "duration": 0.001,
      "velocity": 91,
      "chip": "ym2612"
    },
    {
      "channel": 3,
      "note": 77,
      "start": 9.6958,
      "duration": 0.0477,
      "velocity": 74,
      "chip": "ym2612"
    },
    {
      "channel": 4,
      "note": 86,
      "start": 9.6961,
      "duration": 0.0462,
      "velocity": 1,
      "chip": "ym2612"
    },
    {
      "channel": 2,
      "note": 72,
      "start": 9.7401,
      "duration": 0.0041,
      "velocity": 74,
      "chip": "ym2612"
    },
    {
      "channel": 4,
      "note": 79,
      "start": 9.7425,
      "duration": 0.1605,
      "velocity": 91,
      "chip": "ym2612"
    },
    {
      "channel": 3,
      "note": 74,
      "start": 9.7436,
      "duration": 0.0107,
      "velocity": 74,
      "chip": "ym2612"
    },
    {
      "channel": 1,
      "note": 38,
      "start": 9.744,
      "duration": 0.1566,
      "velocity": 98,
      "chip": "ym2612"
    },
    {
      "channel": 2,
      "note": 74,
      "start": 9.7443,
      "duration": 0.2567,
      "velocity": 74,
      "chip": "ym2612"
    },
    {
      "channel": 3,
      "note": 72,
      "start": 9.7546,
      "duration": 0.1001,
      "velocity": 74,
      "chip": "ym2612"
    },
    {
      "channel": 3,
      "note": 74,
      "start": 9.8548,
      "duration": 0.2504,
      "velocity": 74,
      "chip": "ym2612"
    },
    {
      "channel": 1,
      "note": 38,
      "start": 9.9007,
      "duration": 0.1998,
      "velocity": 98,
      "chip": "ym2612"
    },
    {
      "channel": 4,
      "note": 74,
      "start": 9.9032,
      "duration": 0.1982,
      "velocity": 91,
      "chip": "ym2612"
    },
    {
      "channel": 2,
      "note": 73,
      "start": 10.001,
      "duration": 0.0157,
      "velocity": 74,
      "chip": "ym2612"
    },
    {
      "channel": 2,
      "note": 72,
      "start": 10.0167,
      "duration": 0.0167,
      "velocity": 74,
      "chip": "ym2612"
    },
    {
      "channel": 2,
      "note": 70,
      "start": 10.0334,
      "duration": 0.0167,
      "velocity": 74,
      "chip": "ym2612"
    },
    {
      "channel": 2,
      "note": 69,
      "start": 10.0501,
      "duration": 0.0167,
      "velocity": 74,
      "chip": "ym2612"
    },
    {
      "channel": 2,
      "note": 68,
      "start": 10.0667,
      "duration": 0.0355,
      "velocity": 74,
      "chip": "ym2612"
    },
    {
      "channel": 1,
      "note": 41,
      "start": 10.1008,
      "duration": 0.115,
      "velocity": 98,
      "chip": "ym2612"
    },
    {
      "channel": 4,
      "note": 77,
      "start": 10.1016,
      "duration": 0.0031,
      "velocity": 91,
      "chip": "ym2612"
    },
    {
      "channel": 2,
      "note": 67,
      "start": 10.1022,
      "duration": 0.0002,
      "velocity": 74,
      "chip": "ym2612"
    },
    {
      "channel": 2,
      "note": 66,
      "start": 10.1024,
      "duration": 0.0002,
      "velocity": 74,
      "chip": "ym2612"
    },
    {
      "channel": 2,
      "note": 65,
      "start": 10.1026,
      "duration": 0.0002,
      "velocity": 74,
      "chip": "ym2612"
    },
    {
      "channel": 2,
      "note": 64,
      "start": 10.1029,
      "duration": 0.0002,
      "velocity": 74,
      "chip": "ym2612"
    },
    {
      "channel": 2,
      "note": 63,
      "start": 10.103,
      "duration": 0.0006,
      "velocity": 74,
      "chip": "ym2612"
    },
    {
      "channel": 2,
      "note": 62,
      "start": 10.1036,
      "duration": 0.0003,
      "velocity": 74,
      "chip": "ym2612"
    },
    {
      "channel": 2,
      "note": 61,
      "start": 10.1039,
      "duration": 0.0002,
      "velocity": 74,
      "chip": "ym2612"
    },
    {
      "channel": 2,
      "note": 60,
      "start": 10.1041,
      "duration": 0.0002,
      "velocity": 74,
      "chip": "ym2612"
    },
    {
      "channel": 2,
      "note": 58,
      "start": 10.1043,
      "duration": 0.0002,
      "velocity": 74,
      "chip": "ym2612"
    },
    {
      "channel": 2,
      "note": 57,
      "start": 10.1045,
      "duration": 0.0005,
      "velocity": 74,
      "chip": "ym2612"
    },
    {
      "channel": 4,
      "note": 71,
      "start": 10.1049,
      "duration": 0.1117,
      "velocity": 91,
      "chip": "ym2612"
    },
    {
      "channel": 2,
      "note": 56,
      "start": 10.105,
      "duration": 0.0004,
      "velocity": 74,
      "chip": "ym2612"
    },
    {
      "channel": 3,
      "note": 73,
      "start": 10.1052,
      "duration": 0.0004,
      "velocity": 74,
      "chip": "ym2612"
    },
    {
      "channel": 2,
      "note": 55,
      "start": 10.1054,
      "duration": 0.0004,
      "velocity": 74,
      "chip": "ym2612"
    },
    {
      "channel": 3,
      "note": 72,
      "start": 10.1056,
      "duration": 0.0004,
      "velocity": 74,
      "chip": "ym2612"
    },
    {
      "channel": 2,
      "note": 54,
      "start": 10.1058,
      "duration": 0.0004,
      "velocity": 74,
      "chip": "ym2612"
    },
    {
      "channel": 3,
      "note": 70,
      "start": 10.106,
      "duration": 0.0005,
      "velocity": 74,
      "chip": "ym2612"
    },
    {
      "channel": 2,
      "note": 53,
      "start": 10.1063,
      "duration": 0.0004,
      "velocity": 74,
      "chip": "ym2612"
    },
    {
      "channel": 3,
      "note": 69,
      "start": 10.1065,
      "duration": 0.0003,
      "velocity": 74,
      "chip": "ym2612"
    },
    {
      "channel": 2,
      "note": 52,
      "start": 10.1066,
      "duration": 0.0095,
      "velocity": 74,
      "chip": "ym2612"
    },
    {
      "channel": 3,
      "note": 68,
      "start": 10.1068,
      "duration": 0.0096,
      "velocity": 74,
      "chip": "ym2612"
    },
    {
      "channel": 2,
      "note": 51,
      "start": 10.1161,
      "duration": 0.0159,
      "velocity": 74,
      "chip": "ym2612"
    },
    {
      "channel": 3,
      "note": 67,
      "start": 10.1164,
      "duration": 0.0159,
      "velocity": 74,
      "chip": "ym2612"
    },
    {
      "channel": 2,
      "note": 50,
      "start": 10.132,
      "duration": 0.0166,
      "velocity": 74,
      "chip": "ym2612"
    },
    {
      "channel": 3,
      "note": 66,
      "start": 10.1323,
      "duration": 0.0167,
      "velocity": 74,
      "chip": "ym2612"
    },
    {
      "channel": 2,
      "note": 49,
      "start": 10.1485,
      "duration": 0.0167,
      "velocity": 74,
      "chip": "ym2612"
    },
    {
      "channel": 3,
      "note": 65,
      "start": 10.1489,
      "duration": 0.0167,
      "velocity": 74,
      "chip": "ym2612"
    },
    {
      "channel": 2,
      "note": 48,
      "start": 10.1653,
      "duration": 0.0166,
      "velocity": 74,
      "chip": "ym2612"
    },
    {
      "channel": 3,
      "note": 64,
      "start": 10.1656,
      "duration": 0.0167,
      "velocity": 74,
      "chip": "ym2612"
    },
    {
      "channel": 2,
      "note": 46,
      "start": 10.1819,
      "duration": 0.0356,
      "velocity": 74,
      "chip": "ym2612"
    },
    {
      "channel": 3,
      "note": 63,
      "start": 10.1823,
      "duration": 0.0353,
      "velocity": 74,
      "chip": "ym2612"
    },
    {
      "channel": 1,
      "note": 43,
      "start": 10.2159,
      "duration": 0.0933,
      "velocity": 98,
      "chip": "ym2612"
    },
    {
      "channel": 4,
      "note": 79,
      "start": 10.2168,
      "duration": 0.0458,
      "velocity": 91,
      "chip": "ym2612"
    },
    {
      "channel": 2,
      "note": 45,
      "start": 10.2175,
      "duration": 0.0002,
      "velocity": 74,
      "chip": "ym2612"
    },
    {
      "channel": 3,
      "note": 62,
      "start": 10.2176,
      "duration": 0.0004,
      "velocity": 74,
      "chip": "ym2612"
    },
    {
      "channel": 2,
      "note": 44,
      "start": 10.2177,
      "duration": 0.0004,
      "velocity": 74,
      "chip": "ym2612"
    },
    {
      "channel": 3,
      "note": 61,
      "start": 10.2179,
      "duration": 0.0003,
      "velocity": 74,
      "chip": "ym2612"
    },
    {
      "channel": 2,
      "note": 43,
      "start": 10.2181,
      "duration": 0.0003,
      "velocity": 74,
      "chip": "ym2612"
    },
    {
      "channel": 3,
      "note": 60,
      "start": 10.2183,
      "duration": 0.0003,
      "velocity": 74,
      "chip": "ym2612"
    },
    {
      "channel": 2,
      "note": 42,
      "start": 10.2184,
      "duration": 0.0003,
      "velocity": 74,
      "chip": "ym2612"
    },
    {
      "channel": 3,
      "note": 58,
      "start": 10.2186,
      "duration": 0.0003,
      "velocity": 74,
      "chip": "ym2612"
    },
    {
      "channel": 2,
      "note": 41,
      "start": 10.2188,
      "duration": 0.0003,
      "velocity": 74,
      "chip": "ym2612"
    },
    {
      "channel": 3,
      "note": 57,
      "start": 10.219,
      "duration": 0.0004,
      "velocity": 74,
      "chip": "ym2612"
    },
    {
      "channel": 2,
      "note": 40,
      "start": 10.2191,
      "duration": 0.0005,
      "velocity": 74,
      "chip": "ym2612"
    },
    {
      "channel": 3,
      "note": 56,
      "start": 10.2193,
      "duration": 0.0004,
      "velocity": 74,
      "chip": "ym2612"
    },
    {
      "channel": 2,
      "note": 39,
      "start": 10.2196,
      "duration": 0.0003,
      "velocity": 74,
      "chip": "ym2612"
    },
    {
      "channel": 3,
      "note": 55,
      "start": 10.2197,
      "duration": 0.0003,
      "velocity": 74,
      "chip": "ym2612"
    },
    {
      "channel": 2,
      "note": 38,
      "start": 10.2199,
      "duration": 0.0003,
      "velocity": 74,
      "chip": "ym2612"
    },
    {
      "channel": 3,
      "note": 54,
      "start": 10.22,
      "duration": 0.0003,
      "velocity": 74,
      "chip": "ym2612"
    },
    {
      "channel": 2,
      "note": 37,
      "start": 10.2202,
      "duration": 0.0083,
      "velocity": 74,
      "chip": "ym2612"
    },
    {
      "channel": 3,
      "note": 53,
      "start": 10.2203,
      "duration": 0.0086,
      "velocity": 74,
      "chip": "ym2612"
    },
    {
      "channel": 2,
      "note": 36,
      "start": 10.2285,
      "duration": 0.0349,
      "velocity": 74,
      "chip": "ym2612"
    },
    {
      "channel": 3,
      "note": 52,
      "start": 10.2289,
      "duration": 0.0347,
      "velocity": 74,
      "chip": "ym2612"
    },
    {
      "channel": 4,
      "note": 70,
      "start": 10.2628,
      "duration": 0.0473,
      "velocity": 91,
      "chip": "ym2612"
    },
    {
      "channel": 2,
      "note": 34,
      "start": 10.2635,
      "duration": 0.0003,
      "velocity": 74,
      "chip": "ym2612"
    },
    {
      "channel": 3,
      "note": 51,
      "start": 10.2636,
      "duration": 0.0004,
      "velocity": 74,
      "chip": "ym2612"
    },
    {
      "channel": 2,
      "note": 33,
      "start": 10.2638,
      "duration": 0.0004,
      "velocity": 74,
      "chip": "ym2612"
    },
    {
      "channel": 3,
      "note": 50,
      "start": 10.264,
      "duration": 0.0004,
      "velocity": 74,
      "chip": "ym2612"
    },
    {
      "channel": 2,
      "note": 32,
      "start": 10.2641,
      "duration": 0.0004,
      "velocity": 74,
      "chip": "ym2612"
    },
    {
      "channel": 3,
      "note": 49,
      "start": 10.2644,
      "duration": 0.0003,
      "velocity": 74,
      "chip": "ym2612"
    },
    {
      "channel": 2,
      "note": 31,
      "start": 10.2645,
      "duration": 0.0003,
      "velocity": 74,
      "chip": "ym2612"
    },
    {
      "channel": 3,
      "note": 48,
      "start": 10.2647,
      "duration": 0.0003,
      "velocity": 74,
      "chip": "ym2612"
    },
    {
      "channel": 2,
      "note": 30,
      "start": 10.2649,
      "duration": 0.0003,
      "velocity": 74,
      "chip": "ym2612"
    },
    {
      "channel": 3,
      "note": 46,
      "start": 10.2651,
      "duration": 0.0003,
      "velocity": 74,
      "chip": "ym2612"
    },
    {
      "channel": 2,
      "note": 29,
      "start": 10.2652,
      "duration": 0.0003,
      "velocity": 74,
      "chip": "ym2612"
    },
    {
      "channel": 3,
      "note": 45,
      "start": 10.2654,
      "duration": 0.0004,
      "velocity": 74,
      "chip": "ym2612"
    },
    {
      "channel": 2,
      "note": 28,
      "start": 10.2656,
      "duration": 0.0004,
      "velocity": 74,
      "chip": "ym2612"
    },
    {
      "channel": 3,
      "note": 44,
      "start": 10.2658,
      "duration": 0.0003,
      "velocity": 74,
      "chip": "ym2612"
    },
    {
      "channel": 2,
      "note": 27,
      "start": 10.2659,
      "duration": 0.0003,
      "velocity": 74,
      "chip": "ym2612"
    },
    {
      "channel": 3,
      "note": 43,
      "start": 10.2661,
      "duration": 0.0003,
      "velocity": 74,
      "chip": "ym2612"
    },
    {
      "channel": 2,
      "note": 26,
      "start": 10.2663,
      "duration": 0.0091,
      "velocity": 74,
      "chip": "ym2612"
    },
    {
      "channel": 3,
      "note": 42,
      "start": 10.2664,
      "duration": 0.0093,
      "velocity": 74,
      "chip": "ym2612"
    },
    {
      "channel": 2,
      "note": 25,
      "start": 10.2754,
      "duration": 0.0355,
      "velocity": 74,
      "chip": "ym2612"
    },
    {
      "channel": 3,
      "note": 41,
      "start": 10.2757,
      "duration": 0.0354,
      "velocity": 74,
      "chip": "ym2612"
    },
    {
      "channel": 1,
      "note": 41,
      "start": 10.3094,
      "duration": 0.1159,
      "velocity": 98,
      "chip": "ym2612"
    },
    {
      "channel": 4,
      "note": 77,
      "start": 10.3102,
      "duration": 0.0051,
      "velocity": 91,
      "chip": "ym2612"
    },
    {
      "channel": 2,
      "note": 24,
      "start": 10.3109,
      "duration": 0.0008,
      "velocity": 74,
      "chip": "ym2612"
    },
    {
      "channel": 3,
      "note": 40,
      "start": 10.3111,
      "duration": 0.0008,
      "velocity": 74,
      "chip": "ym2612"
    },
    {
      "channel": 2,
      "note": 22,
      "start": 10.3117,
      "duration": 0.0004,
      "velocity": 74,
      "chip": "ym2612"
    },
    {
      "channel": 3,
      "note": 39,
      "start": 10.3119,
      "duration": 0.0004,
      "velocity": 74,
      "chip": "ym2612"
    },
    {
      "channel": 2,
      "note": 21,
      "start": 10.3121,
      "duration": 0.0004,
      "velocity": 74,
      "chip": "ym2612"
    },
    {
      "channel": 3,
      "note": 38,
      "start": 10.3123,
      "duration": 0.0004,
      "velocity": 74,
      "chip": "ym2612"
    },
    {
      "channel": 2,
      "note": 116,
      "start": 10.3125,
      "duration": 0.0004,
      "velocity": 74,
      "chip": "ym2612"
    },
    {
      "channel": 3,
      "note": 37,
      "start": 10.3127,
      "duration": 0.0005,
      "velocity": 74,
      "chip": "ym2612"
    },
    {
      "channel": 2,
      "note": 115,
      "start": 10.3129,
      "duration": 0.0004,
      "velocity": 74,
      "chip": "ym2612"
    },
    {
      "channel": 3,
      "note": 36,
      "start": 10.3132,
      "duration": 0.0003,
      "velocity": 74,
      "chip": "ym2612"
    },
    {
      "channel": 2,
      "note": 114,
      "start": 10.3133,
      "duration": 0.0004,
      "velocity": 74,
      "chip": "ym2612"
    },
    {
      "channel": 3,
      "note": 34,
      "start": 10.3135,
      "duration": 0.0004,
      "velocity": 74,
      "chip": "ym2612"
    },
    {
      "channel": 2,
      "note": 113,
      "start": 10.3137,
      "duration": 0.0003,
      "velocity": 74,
      "chip": "ym2612"
    },
    {
      "channel": 3,
      "note": 33,
      "start": 10.3139,
      "duration": 0.0004,
      "velocity": 74,
      "chip": "ym2612"
    },
    {
      "channel": 2,
      "note": 112,
      "start": 10.3141,
      "duration": 0.0004,
      "velocity": 74,
      "chip": "ym2612"
    },
    {
      "channel": 3,
      "note": 32,
      "start": 10.3143,
      "duration": 0.0004,
      "velocity": 74,
      "chip": "ym2612"
    },
    {
      "channel": 2,
      "note": 111,
      "start": 10.3145,
      "duration": 0.0005,
      "velocity": 74,
      "chip": "ym2612"
    },
    {
      "channel": 3,
      "note": 31,
      "start": 10.3147,
      "duration": 0.0004,
      "velocity": 74,
      "chip": "ym2612"
    },
    {
      "channel": 2,
      "note": 110,
      "start": 10.3149,
      "duration": 0.0009,
      "velocity": 74,
      "chip": "ym2612"
    },
    {
      "channel": 3,
      "note": 30,
      "start": 10.3151,
      "duration": 0.0009,
      "velocity": 74,
      "chip": "ym2612"
    },
    {
      "channel": 4,
      "note": 82,
      "start": 10.3156,
      "duration": 0.1106,
      "velocity": 91,
      "chip": "ym2612"
    },
    {
      "channel": 2,
      "note": 109,
      "start": 10.3158,
      "duration": 0.0004,
      "velocity": 74,
      "chip": "ym2612"
    },
    {
      "channel": 3,
      "note": 29,
      "start": 10.316,
      "duration": 0.0005,
      "velocity": 74,
      "chip": "ym2612"
    },
    {
      "channel": 2,
      "note": 108,
      "start": 10.3163,
      "duration": 0.0005,
      "velocity": 74,
      "chip": "ym2612"
    },
    {
      "channel": 3,
      "note": 28,
      "start": 10.3165,
      "duration": 0.0004,
      "velocity": 74,
      "chip": "ym2612"
    },
    {
      "channel": 2,
      "note": 106,
      "start": 10.3167,
      "duration": 0.0004,
      "velocity": 74,
      "chip": "ym2612"
    },
    {
      "channel": 3,
      "note": 27,
      "start": 10.3169,
      "duration": 0.0004,
      "velocity": 74,
      "chip": "ym2612"
    },
    {
      "channel": 2,
      "note": 105,
      "start": 10.3171,
      "duration": 0.0004,
      "velocity": 74,
      "chip": "ym2612"
    },
    {
      "channel": 3,
      "note": 26,
      "start": 10.3173,
      "duration": 0.0004,
      "velocity": 74,
      "chip": "ym2612"
    },
    {
      "channel": 2,
      "note": 104,
      "start": 10.3175,
      "duration": 0.0081,
      "velocity": 74,
      "chip": "ym2612"
    },
    {
      "channel": 3,
      "note": 25,
      "start": 10.3178,
      "duration": 0.0082,
      "velocity": 74,
      "chip": "ym2612"
    },
    {
      "channel": 2,
      "note": 103,
      "start": 10.3256,
      "duration": 0.0158,
      "velocity": 74,
      "chip": "ym2612"
    },
    {
      "channel": 3,
      "note": 24,
      "start": 10.3259,
      "duration": 0.0159,
      "velocity": 74,
      "chip": "ym2612"
    },
    {
      "channel": 2,
      "note": 102,
      "start": 10.3415,
      "duration": 0.0167,
      "velocity": 74,
      "chip": "ym2612"
    },
    {
      "channel": 3,
      "note": 22,
      "start": 10.3418,
      "duration": 0.0167,
      "velocity": 74,
      "chip": "ym2612"
    },
    {
      "channel": 2,
      "note": 101,
      "start": 10.3582,
      "duration": 0.0166,
      "velocity": 74,
      "chip": "ym2612"
    },
    {
      "channel": 3,
      "note": 21,
      "start": 10.3585,
      "duration": 0.0167,
      "velocity": 74,
      "chip": "ym2612"
    },
    {
      "channel": 2,
      "note": 100,
      "start": 10.3748,
      "duration": 0.0167,
      "velocity": 74,
      "chip": "ym2612"
    },
    {
      "channel": 3,
      "note": 116,
      "start": 10.3752,
      "duration": 0.0167,
      "velocity": 74,
      "chip": "ym2612"
    },
    {
      "channel": 2,
      "note": 99,
      "start": 10.3915,
      "duration": 0.0355,
      "velocity": 74,
      "chip": "ym2612"
    },
    {
      "channel": 3,
      "note": 115,
      "start": 10.3918,
      "duration": 0.0353,
      "velocity": 74,
      "chip": "ym2612"
    },
    {
      "channel": 1,
      "note": 38,
      "start": 10.4255,
      "duration": 0.2527,
      "velocity": 98,
      "chip": "ym2612"
    },
    {
      "channel": 4,
      "note": 81,
      "start": 10.4264,
      "duration": 0.1474,
      "velocity": 1,
      "chip": "ym2612"
    },
    {
      "channel": 2,
      "note": 98,
      "start": 10.427,
      "duration": 0.0002,
      "velocity": 74,
      "chip": "ym2612"
    },
    {
      "channel": 3,
      "note": 114,
      "start": 10.4271,
      "duration": 0.0003,
      "velocity": 74,
      "chip": "ym2612"
    },
    {
      "channel": 2,
      "note": 97,
      "start": 10.4273,
      "duration": 0.0003,
      "velocity": 74,
      "chip": "ym2612"
    },
    {
      "channel": 3,
      "note": 113,
      "start": 10.4275,
      "duration": 0.0003,
      "velocity": 74,
      "chip": "ym2612"
    },
    {
      "channel": 2,
      "note": 96,
      "start": 10.4276,
      "duration": 0.0003,
      "velocity": 74,
      "chip": "ym2612"
    },
    {
      "channel": 3,
      "note": 112,
      "start": 10.4278,
      "duration": 0.0003,
      "velocity": 74,
      "chip": "ym2612"
    },
    {
      "channel": 2,
      "note": 94,
      "start": 10.428,
      "duration": 0.0003,
      "velocity": 74,
      "chip": "ym2612"
    },
    {
      "channel": 3,
      "note": 111,
      "start": 10.4281,
      "duration": 0.0003,
      "velocity": 74,
      "chip": "ym2612"
    },
    {
      "channel": 2,
      "note": 93,
      "start": 10.4283,
      "duration": 0.0004,
      "velocity": 74,
      "chip": "ym2612"
    },
    {
      "channel": 3,
      "note": 110,
      "start": 10.4285,
      "duration": 0.0004,
      "velocity": 74,
      "chip": "ym2612"
    },
    {
      "channel": 2,
      "note": 92,
      "start": 10.4287,
      "duration": 0.0005,
      "velocity": 74,
      "chip": "ym2612"
    },
    {
      "channel": 3,
      "note": 109,
      "start": 10.4289,
      "duration": 0.0004,
      "velocity": 74,
      "chip": "ym2612"
    },
    {
      "channel": 2,
      "note": 91,
      "start": 10.4291,
      "duration": 0.0003,
      "velocity": 74,
      "chip": "ym2612"
    },
    {
      "channel": 3,
      "note": 108,
      "start": 10.4293,
      "duration": 0.0003,
      "velocity": 74,
      "chip": "ym2612"
    },
    {
      "channel": 2,
      "note": 90,
      "start": 10.4295,
      "duration": 0.0002,
      "velocity": 74,
      "chip": "ym2612"
    },
    {
      "channel": 3,
      "note": 106,
      "start": 10.4296,
      "duration": 0.0003,
      "velocity": 74,
      "chip": "ym2612"
    },
    {
      "channel": 2,
      "note": 89,
      "start": 10.4297,
      "duration": 0.0084,
      "velocity": 74,
      "chip": "ym2612"
    },
    {
      "channel": 3,
      "note": 105,
      "start": 10.4299,
      "duration": 0.0085,
      "velocity": 74,
      "chip": "ym2612"
    },
    {
      "channel": 2,
      "note": 88,
      "start": 10.4381,
      "duration": 0.0341,
      "velocity": 74,
      "chip": "ym2612"
    },
    {
      "channel": 3,
      "note": 104,
      "start": 10.4384,
      "duration": 0.0341,
      "velocity": 74,
      "chip": "ym2612"
    },
    {
      "channel": 2,
      "note": 87,
      "start": 10.4722,
      "duration": 0.0159,
      "velocity": 74,
      "chip": "ym2612"
    },
    {
      "channel": 3,
      "note": 103,
      "start": 10.4725,
      "duration": 0.0159,
      "velocity": 74,
      "chip": "ym2612"
    },
    {
      "channel": 2,
      "note": 86,
      "start": 10.4881,
      "duration": 0.0166,
      "velocity": 74,
      "chip": "ym2612"
    },
    {
      "channel": 3,
      "note": 102,
      "start": 10.4884,
      "duration": 0.0167,
      "velocity": 74,
      "chip": "ym2612"
    },
    {
      "channel": 2,
      "note": 85,
      "start": 10.5047,
      "duration": 0.0167,
      "velocity": 74,
      "chip": "ym2612"
    },
    {
      "channel": 3,
      "note": 101,
      "start": 10.5051,
      "duration": 0.0167,
      "velocity": 74,
      "chip": "ym2612"
    },
    {
      "channel": 2,
      "note": 84,
      "start": 10.5215,
      "duration": 0.0166,
      "velocity": 74,
      "chip": "ym2612"
    },
    {
      "channel": 3,
      "note": 100,
      "start": 10.5218,
      "duration": 0.0167,
      "velocity": 74,
      "chip": "ym2612"
    },
    {
      "channel": 2,
      "note": 82,
      "start": 10.538,
      "duration": 0.0365,
      "velocity": 74,
      "chip": "ym2612"
    },
    {
      "channel": 3,
      "note": 99,
      "start": 10.5384,
      "duration": 0.0364,
      "velocity": 74,
      "chip": "ym2612"
    },
    {
      "channel": 4,
      "note": 79,
      "start": 10.5739,
      "duration": 0.1005,
      "velocity": 91,
      "chip": "ym2612"
    },
    {
      "channel": 2,
      "note": 81,
      "start": 10.5745,
      "duration": 0.0136,
      "velocity": 74,
      "chip": "ym2612"
    },
    {
      "channel": 3,
      "note": 98,
      "start": 10.5748,
      "duration": 0.0136,
      "velocity": 74,
      "chip": "ym2612"
    },
    {
      "channel": 2,
      "note": 80,
      "start": 10.5881,
      "duration": 0.0166,
      "velocity": 74,
      "chip": "ym2612"
    },
    {
      "channel": 3,
      "note": 97,
      "start": 10.5884,
      "duration": 0.0167,
      "velocity": 74,
      "chip": "ym2612"
    },
    {
      "channel": 2,
      "note": 79,
      "start": 10.6047,
      "duration": 0.0167,
      "velocity": 74,
      "chip": "ym2612"
    },
    {
      "channel": 3,
      "note": 96,
      "start": 10.6051,
      "duration": 0.0167,
      "velocity": 74,
      "chip": "ym2612"
    },
    {
      "channel": 2,
      "note": 78,
      "start": 10.6215,
      "duration": 0.0166,
      "velocity": 74,
      "chip": "ym2612"
    },
    {
      "channel": 3,
      "note": 94,
      "start": 10.6218,
      "duration": 0.0167,
      "velocity": 74,
      "chip": "ym2612"
    },
    {
      "channel": 2,
      "note": 77,
      "start": 10.638,
      "duration": 0.0339,
      "velocity": 74,
      "chip": "ym2612"
    },
    {
      "channel": 3,
      "note": 93,
      "start": 10.6384,
      "duration": 0.0368,
      "velocity": 74,
      "chip": "ym2612"
    },
    {
      "channel": 2,
      "note": 79,
      "start": 10.6722,
      "duration": 0.0039,
      "velocity": 74,
      "chip": "ym2612"
    },
    {
      "channel": 4,
      "note": 81,
      "start": 10.6746,
      "duration": 0.0044,
      "velocity": 91,
      "chip": "ym2612"
    },
    {
      "channel": 3,
      "note": 92,
      "start": 10.6752,
      "duration": 0.0002,
      "velocity": 74,
      "chip": "ym2612"
    },
    {
      "channel": 3,
      "note": 91,
      "start": 10.6754,
      "duration": 0.0002,
      "velocity": 74,
      "chip": "ym2612"
    },
    {
      "channel": 3,
      "note": 90,
      "start": 10.6756,
      "duration": 0.0002,
      "velocity": 74,
      "chip": "ym2612"
    },
    {
      "channel": 3,
      "note": 89,
      "start": 10.6757,
      "duration": 0.0002,
      "velocity": 74,
      "chip": "ym2612"
    },
    {
      "channel": 3,
      "note": 88,
      "start": 10.6759,
      "duration": 0.0005,
      "velocity": 74,
      "chip": "ym2612"
    },
    {
      "channel": 2,
      "note": 79,
      "start": 10.6762,
      "duration": 0.0004,
      "velocity": 74,
      "chip": "ym2612"
    },
    {
      "channel": 3,
      "note": 87,
      "start": 10.6764,
      "duration": 0.0004,
      "velocity": 74,
      "chip": "ym2612"
    },
    {
      "channel": 2,
      "note": 79,
      "start": 10.6765,
      "duration": 0.0005,
      "velocity": 74,
      "chip": "ym2612"
    },
    {
      "channel": 3,
      "note": 86,
      "start": 10.6768,
      "duration": 0.0004,
      "velocity": 74,
      "chip": "ym2612"
    },
    {
      "channel": 2,
      "note": 79,
      "start": 10.677,
      "duration": 0.0004,
      "velocity": 74,
      "chip": "ym2612"
    },
    {
      "channel": 3,
      "note": 85,
      "start": 10.6772,
      "duration": 0.0005,
      "velocity": 74,
      "chip": "ym2612"
    },
    {
      "channel": 2,
      "note": 79,
      "start": 10.6774,
      "duration": 0.0004,
      "velocity": 74,
      "chip": "ym2612"
    },
    {
      "channel": 3,
      "note": 84,
      "start": 10.6776,
      "duration": 0.0003,
      "velocity": 74,
      "chip": "ym2612"
    },
    {
      "channel": 2,
      "note": 80,
      "start": 10.6778,
      "duration": 0.0007,
      "velocity": 74,
      "chip": "ym2612"
    },
    {
      "channel": 3,
      "note": 82,
      "start": 10.678,
      "duration": 0.0015,
      "velocity": 74,
      "chip": "ym2612"
    },
    {
      "channel": 1,
      "note": 38,
      "start": 10.6784,
      "duration": 0.1091,
      "velocity": 98,
      "chip": "ym2612"
    },
    {
      "channel": 2,
      "note": 81,
      "start": 10.6788,
      "duration": 0.1093,
      "velocity": 74,
      "chip": "ym2612"
    },
    {
      "channel": 4,
      "note": 84,
      "start": 10.6793,
      "duration": 0.1561,
      "velocity": 91,
      "chip": "ym2612"
    },
    {
      "channel": 3,
      "note": 81,
      "start": 10.6795,
      "duration": 0.0001,
      "velocity": 74,
      "chip": "ym2612"
    },
    {
      "channel": 3,
      "note": 80,
      "start": 10.6796,
      "duration": 0.0003,
      "velocity": 74,
      "chip": "ym2612"
    },
    {
      "channel": 3,
      "note": 79,
      "start": 10.6799,
      "duration": 0.0002,
      "velocity": 74,
      "chip": "ym2612"
    },
    {
      "channel": 3,
      "note": 78,
      "start": 10.6801,
      "duration": 0.0002,
      "velocity": 74,
      "chip": "ym2612"
    },
    {
      "channel": 3,
      "note": 77,
      "start": 10.6803,
      "duration": 0.0073,
      "velocity": 74,
      "chip": "ym2612"
    },
    {
      "channel": 3,
      "note": 79,
      "start": 10.6878,
      "duration": 0.1014,
      "velocity": 74,
      "chip": "ym2612"
    },
    {
      "channel": 1,
      "note": 41,
      "start": 10.7877,
      "duration": 0.0462,
      "velocity": 98,
      "chip": "ym2612"
    },
    {
      "channel": 2,
      "note": 84,
      "start": 10.7884,
      "duration": 0.0462,
      "velocity": 74,
      "chip": "ym2612"
    },
    {
      "channel": 3,
      "note": 79,
      "start": 10.7892,
      "duration": 0.0002,
      "velocity": 74,
      "chip": "ym2612"
    },
    {
      "channel": 3,
      "note": 79,
      "start": 10.7894,
      "duration": 0.0002,
      "velocity": 74,
      "chip": "ym2612"
    },
    {
      "channel": 3,
      "note": 79,
      "start": 10.7896,
      "duration": 0.0002,
      "velocity": 74,
      "chip": "ym2612"
    },
    {
      "channel": 3,
      "note": 79,
      "start": 10.7898,
      "duration": 0.0002,
      "velocity": 74,
      "chip": "ym2612"
    },
    {
      "channel": 3,
      "note": 80,
      "start": 10.79,
      "duration": 0.0002,
      "velocity": 74,
      "chip": "ym2612"
    },
    {
      "channel": 3,
      "note": 81,
      "start": 10.7903,
      "duration": 0.0459,
      "velocity": 74,
      "chip": "ym2612"
    },
    {
      "channel": 1,
      "note": 41,
      "start": 10.8341,
      "duration": 0.0503,
      "velocity": 98,
      "chip": "ym2612"
    },
    {
      "channel": 2,
      "note": 81,
      "start": 10.8348,
      "duration": 0.0457,
      "velocity": 74,
      "chip": "ym2612"
    },
    {
      "channel": 4,
      "note": 85,
      "start": 10.8356,
      "duration": 0.001,
      "velocity": 91,
      "chip": "ym2612"
    },
    {
      "channel": 3,
      "note": 84,
      "start": 10.8364,
      "duration": 0.0477,
      "velocity": 74,
      "chip": "ym2612"
    },
    {
      "channel": 4,
      "note": 86,
      "start": 10.8368,
      "duration": 0.0462,
      "velocity": 1,
      "chip": "ym2612"
    },
    {
      "channel": 2,
      "note": 88,
      "start": 10.8807,
      "duration": 0.0041,
      "velocity": 74,
      "chip": "ym2612"
    },
    {
      "channel": 4,
      "note": 79,
      "start": 10.8831,
      "duration": 0.1153,
      "velocity": 91,
      "chip": "ym2612"
    },
    {
      "channel": 3,
      "note": 81,
      "start": 10.8843,
      "duration": 0.0107,
      "velocity": 74,
      "chip": "ym2612"
    },
    {
      "channel": 1,
      "note": 38,
      "start": 10.8846,
      "duration": 0.157,
      "velocity": 98,
      "chip": "ym2612"
    },
    {
      "channel": 2,
      "note": 86,
      "start": 10.885,
      "duration": 0.159,
      "velocity": 74,
      "chip": "ym2612"
    },
    {
      "channel": 3,
      "note": 88,
      "start": 10.8952,
      "duration": 0.104,
      "velocity": 74,
      "chip": "ym2612"
    },
    {
      "channel": 4,
      "note": 85,
      "start": 10.9986,
      "duration": 0.001,
      "velocity": 91,
      "chip": "ym2612"
    },
    {
      "channel": 3,
      "note": 86,
      "start": 10.9994,
      "duration": 0.246,
      "velocity": 74,
      "chip": "ym2612"
    },
    {
      "channel": 4,
      "note": 86,
      "start": 10.9997,
      "duration": 0.2434,
      "velocity": 91,
      "chip": "ym2612"
    },
    {
      "channel": 1,
      "note": 38,
      "start": 11.0418,
      "duration": 0.1998,
      "velocity": 98,
      "chip": "ym2612"
    },
    {
      "channel": 2,
      "note": 84,
      "start": 11.0442,
      "duration": 0.1981,
      "velocity": 74,
      "chip": "ym2612"
    },
    {
      "channel": 1,
      "note": 41,
      "start": 11.2418,
      "duration": 0.0044,
      "velocity": 98,
      "chip": "ym2612"
    },
    {
      "channel": 2,
      "note": 81,
      "start": 11.2425,
      "duration": 0.0042,
      "velocity": 74,
      "chip": "ym2612"
    },
    {
      "channel": 4,
      "note": 85,
      "start": 11.2433,
      "duration": 0.0025,
      "velocity": 91,
      "chip": "ym2612"
    },
    {
      "channel": 3,
      "note": 84,
      "start": 11.2456,
      "duration": 0.0018,
      "velocity": 74,
      "chip": "ym2612"
    },
    {
      "channel": 4,
      "note": 86,
      "start": 11.2461,
      "duration": 0.0462,
      "velocity": 91,
      "chip": "ym2612"
    },
    {
      "channel": 1,
      "note": 38,
      "start": 11.2466,
      "duration": 0.0443,
      "velocity": 98,
      "chip": "ym2612"
    },
    {
      "channel": 2,
      "note": 80,
      "start": 11.247,
      "duration": 0.0446,
      "velocity": 74,
      "chip": "ym2612"
    },
    {
      "channel": 3,
      "note": 81,
      "start": 11.2476,
      "duration": 0.0455,
      "velocity": 74,
      "chip": "ym2612"
    },
    {
      "channel": 1,
      "note": 43,
      "start": 11.291,
      "duration": 0.0654,
      "velocity": 98,
      "chip": "ym2612"
    },
    {
      "channel": 2,
      "note": 79,
      "start": 11.2917,
      "duration": 0.0654,
      "velocity": 74,
      "chip": "ym2612"
    },
    {
      "channel": 4,
      "note": 81,
      "start": 11.2925,
      "duration": 0.001,
      "velocity": 91,
      "chip": "ym2612"
    },
    {
      "channel": 3,
      "note": 80,
      "start": 11.2933,
      "duration": 0.0655,
      "velocity": 74,
      "chip": "ym2612"
    },
    {
      "channel": 4,
      "note": 79,
      "start": 11.2937,
      "duration": 0.0643,
      "velocity": 91,
      "chip": "ym2612"
    },
    {
      "channel": 1,
      "note": 38,
      "start": 11.3567,
      "duration": 0.0461,
      "velocity": 98,
      "chip": "ym2612"
    },
    {
      "channel": 2,
      "note": 77,
      "start": 11.3574,
      "duration": 0.0461,
      "velocity": 74,
      "chip": "ym2612"
    },
    {
      "channel": 4,
      "note": 77,
      "start": 11.3581,
      "duration": 0.0461,
      "velocity": 91,
      "chip": "ym2612"
    },
    {
      "channel": 3,
      "note": 79,
      "start": 11.359,
      "duration": 0.0466,
      "velocity": 74,
      "chip": "ym2612"
    },
    {
      "channel": 1,
      "note": 44,
      "start": 11.403,
      "duration": 0.0033,
      "velocity": 98,
      "chip": "ym2612"
    },
    {
      "channel": 2,
      "note": 72,
      "start": 11.4037,
      "duration": 0.0031,
      "velocity": 74,
      "chip": "ym2612"
    },
    {
      "channel": 4,
      "note": 74,
      "start": 11.4045,
      "duration": 0.0028,
      "velocity": 91,
      "chip": "ym2612"
    },
    {
      "channel": 3,
      "note": 77,
      "start": 11.4057,
      "duration": 0.0127,
      "velocity": 74,
      "chip": "ym2612"
    },
    {
      "channel": 1,
      "note": 36,
      "start": 11.4066,
      "duration": 0.1117,
      "velocity": 98,
      "chip": "ym2612"
    },
    {
      "channel": 2,
      "note": 74,
      "start": 11.407,
      "duration": 0.112,
      "velocity": 74,
      "chip": "ym2612"
    },
    {
      "channel": 4,
      "note": 72,
      "start": 11.4074,
      "duration": 0.1163,
      "velocity": 74,
      "chip": "ym2612"
    },
    {
      "channel": 3,
      "note": 72,
      "start": 11.4185,
      "duration": 0.1029,
      "velocity": 74,
      "chip": "ym2612"
    },
    {
      "channel": 1,
      "note": 43,
      "start": 11.5185,
      "duration": 0.1818,
      "velocity": 98,
      "chip": "ym2612"
    },
    {
      "channel": 2,
      "note": 79,
      "start": 11.5193,
      "duration": 0.1834,
      "velocity": 74,
      "chip": "ym2612"
    },
    {
      "channel": 3,
      "note": 74,
      "start": 11.5216,
      "duration": 0.1834,
      "velocity": 74,
      "chip": "ym2612"
    },
    {
      "channel": 4,
      "note": 55,
      "start": 11.524,
      "duration": 0.1817,
      "velocity": 74,
      "chip": "ym2612"
    },
    {
      "channel": 1,
      "note": 43,
      "start": 11.7005,
      "duration": 0.0486,
      "velocity": 98,
      "chip": "ym2612"
    },
    {
      "channel": 2,
      "note": 77,
      "start": 11.7028,
      "duration": 0.0437,
      "velocity": 74,
      "chip": "ym2612"
    },
    {
      "channel": 3,
      "note": 72,
      "start": 11.7051,
      "duration": 0.0421,
      "velocity": 74,
      "chip": "ym2612"
    },
    {
      "channel": 4,
      "note": 55,
      "start": 11.7059,
      "duration": 0.0443,
      "velocity": 74,
      "chip": "ym2612"
    },
    {
      "channel": 2,
      "note": 74,
      "start": 11.7468,
      "duration": 0.0026,
      "velocity": 74,
      "chip": "ym2612"
    },
    {
      "channel": 3,
      "note": 69,
      "start": 11.7475,
      "duration": 0.0023,
      "velocity": 74,
      "chip": "ym2612"
    },
    {
      "channel": 1,
      "note": 43,
      "start": 11.7492,
      "duration": 0.1128,
      "velocity": 98,
      "chip": "ym2612"
    },
    {
      "channel": 2,
      "note": 79,
      "start": 11.7496,
      "duration": 0.1132,
      "velocity": 74,
      "chip": "ym2612"
    },
    {
      "channel": 3,
      "note": 74,
      "start": 11.75,
      "duration": 0.1135,
      "velocity": 74,
      "chip": "ym2612"
    },
    {
      "channel": 4,
      "note": 55,
      "start": 11.7503,
      "duration": 0.1139,
      "velocity": 74,
      "chip": "ym2612"
    },
    {
      "channel": 1,
      "note": 38,
      "start": 11.8623,
      "duration": 0.0461,
      "velocity": 98,
      "chip": "ym2612"
    },
    {
      "channel": 2,
      "note": 74,
      "start": 11.863,
      "duration": 0.0461,
      "velocity": 74,
      "chip": "ym2612"
    },
    {
      "channel": 3,
      "note": 69,
      "start": 11.8637,
      "duration": 0.0461,
      "velocity": 74,
      "chip": "ym2612"
    },
    {
      "channel": 4,
      "note": 50,
      "start": 11.8644,
      "duration": 0.0461,
      "velocity": 74,
      "chip": "ym2612"
    },
    {
      "channel": 1,
      "note": 44,
      "start": 11.9085,
      "duration": 0.0652,
      "velocity": 98,
      "chip": "ym2612"
    },
    {
      "channel": 2,
      "note": 80,
      "start": 11.9092,
      "duration": 0.0652,
      "velocity": 74,
      "chip": "ym2612"
    },
    {
      "channel": 3,
      "note": 75,
      "start": 11.9099,
      "duration": 0.0652,
      "velocity": 74,
      "chip": "ym2612"
    },
    {
      "channel": 4,
      "note": 56,
      "start": 11.9106,
      "duration": 0.0652,
      "velocity": 74,
      "chip": "ym2612"
    },
    {
      "channel": 1,
      "note": 45,
      "start": 11.9739,
      "duration": 0.9148,
      "velocity": 98,
      "chip": "ym2612"
    },
    {
      "channel": 2,
      "note": 81,
      "start": 11.9746,
      "duration": 0.9224,
      "velocity": 74,
      "chip": "ym2612"
    },
    {
      "channel": 3,
      "note": 76,
      "start": 11.9753,
      "duration": 0.9236,
      "velocity": 74,
      "chip": "ym2612"
    },
    {
      "channel": 4,
      "note": 57,
      "start": 11.976,
      "duration": 0.3118,
      "velocity": 74,
      "chip": "ym2612"
    },
    {
      "channel": 4,
      "note": 45,
      "start": 12.288,
      "duration": 0.6114,
      "velocity": 74,
      "chip": "ym2612"
    },
    {
      "channel": 1,
      "note": 45,
      "start": 12.8889,
      "duration": 0.0034,
      "velocity": 98,
      "chip": "ym2612"
    },
    {
      "channel": 1,
      "note": 44,
      "start": 12.8923,
      "duration": 0.0002,
      "velocity": 98,
      "chip": "ym2612"
    },
    {
      "channel": 1,
      "note": 43,
      "start": 12.8925,
      "duration": 0.0002,
      "velocity": 98,
      "chip": "ym2612"
    },
    {
      "channel": 1,
      "note": 42,
      "start": 12.8927,
      "duration": 0.0002,
      "velocity": 98,
      "chip": "ym2612"
    },
    {
      "channel": 1,
      "note": 41,
      "start": 12.8929,
      "duration": 0.0002,
      "velocity": 98,
      "chip": "ym2612"
    },
    {
      "channel": 1,
      "note": 40,
      "start": 12.8931,
      "duration": 0.001,
      "velocity": 98,
      "chip": "ym2612"
    },
    {
      "channel": 1,
      "note": 39,
      "start": 12.8941,
      "duration": 0.0002,
      "velocity": 98,
      "chip": "ym2612"
    },
    {
      "channel": 1,
      "note": 38,
      "start": 12.8943,
      "duration": 0.0002,
      "velocity": 98,
      "chip": "ym2612"
    },
    {
      "channel": 1,
      "note": 37,
      "start": 12.8945,
      "duration": 0.0002,
      "velocity": 98,
      "chip": "ym2612"
    },
    {
      "channel": 1,
      "note": 36,
      "start": 12.8947,
      "duration": 0.0002,
      "velocity": 98,
      "chip": "ym2612"
    },
    {
      "channel": 1,
      "note": 34,
      "start": 12.8949,
      "duration": 0.0002,
      "velocity": 98,
      "chip": "ym2612"
    },
    {
      "channel": 1,
      "note": 43,
      "start": 12.8953,
      "duration": 0.1776,
      "velocity": 98,
      "chip": "ym2612"
    },
    {
      "channel": 2,
      "note": 79,
      "start": 12.8972,
      "duration": 0.178,
      "velocity": 74,
      "chip": "ym2612"
    },
    {
      "channel": 3,
      "note": 74,
      "start": 12.8992,
      "duration": 0.1784,
      "velocity": 74,
      "chip": "ym2612"
    },
    {
      "channel": 4,
      "note": 55,
      "start": 12.8995,
      "duration": 0.1788,
      "velocity": 74,
      "chip": "ym2612"
    },
    {
      "channel": 1,
      "note": 43,
      "start": 13.0731,
      "duration": 0.0486,
      "velocity": 98,
      "chip": "ym2612"
    },
    {
      "channel": 2,
      "note": 77,
      "start": 13.0754,
      "duration": 0.0437,
      "velocity": 74,
      "chip": "ym2612"
    },
    {
      "channel": 3,
      "note": 72,
      "start": 13.0778,
      "duration": 0.0421,
      "velocity": 74,
      "chip": "ym2612"
    },
    {
      "channel": 4,
      "note": 55,
      "start": 13.0785,
      "duration": 0.0443,
      "velocity": 74,
      "chip": "ym2612"
    },
    {
      "channel": 2,
      "note": 74,
      "start": 13.1194,
      "duration": 0.0026,
      "velocity": 74,
      "chip": "ym2612"
    },
    {
      "channel": 3,
      "note": 69,
      "start": 13.1201,
      "duration": 0.0023,
      "velocity": 74,
      "chip": "ym2612"
    },
    {
      "channel": 1,
      "note": 43,
      "start": 13.1219,
      "duration": 0.1128,
      "velocity": 98,
      "chip": "ym2612"
    },
    {
      "channel": 2,
      "note": 79,
      "start": 13.1222,
      "duration": 0.1132,
      "velocity": 74,
      "chip": "ym2612"
    },
    {
      "channel": 3,
      "note": 74,
      "start": 13.1226,
      "duration": 0.1135,
      "velocity": 74,
      "chip": "ym2612"
    },
    {
      "channel": 4,
      "note": 55,
      "start": 13.1229,
      "duration": 0.1139,
      "velocity": 74,
      "chip": "ym2612"
    },
    {
      "channel": 1,
      "note": 38,
      "start": 13.2349,
      "duration": 0.0461,
      "velocity": 98,
      "chip": "ym2612"
    },
    {
      "channel": 2,
      "note": 74,
      "start": 13.2356,
      "duration": 0.0461,
      "velocity": 74,
      "chip": "ym2612"
    },
    {
      "channel": 3,
      "note": 69,
      "start": 13.2363,
      "duration": 0.0461,
      "velocity": 74,
      "chip": "ym2612"
    },
    {
      "channel": 4,
      "note": 50,
      "start": 13.237,
      "duration": 0.0461,
      "velocity": 74,
      "chip": "ym2612"
    },
    {
      "channel": 1,
      "note": 44,
      "start": 13.2812,
      "duration": 0.0652,
      "velocity": 98,
      "chip": "ym2612"
    },
    {
      "channel": 2,
      "note": 80,
      "start": 13.2819,
      "duration": 0.0652,
      "velocity": 74,
      "chip": "ym2612"
    },
    {
      "channel": 3,
      "note": 75,
      "start": 13.2826,
      "duration": 0.0652,
      "velocity": 74,
      "chip": "ym2612"
    },
    {
      "channel": 4,
      "note": 56,
      "start": 13.2832,
      "duration": 0.0652,
      "velocity": 74,
      "chip": "ym2612"
    },
    {
      "channel": 1,
      "note": 45,
      "start": 13.3466,
      "duration": 0.9148,
      "velocity": 98,
      "chip": "ym2612"
    },
    {
      "channel": 2,
      "note": 81,
      "start": 13.3473,
      "duration": 0.9224,
      "velocity": 78,
      "chip": "ym2612"
    },
    {
      "channel": 3,
      "note": 76,
      "start": 13.348,
      "duration": 0.9237,
      "velocity": 1,
      "chip": "ym2612"
    },
    {
      "channel": 4,
      "note": 57,
      "start": 13.3486,
      "duration": 0.3118,
      "velocity": 74,
      "chip": "ym2612"
    },
    {
      "channel": 4,
      "note": 45,
      "start": 13.6606,
      "duration": 0.6129,
      "velocity": 1,
      "chip": "ym2612"
    },
    {
      "channel": 1,
      "note": 45,
      "start": 14.2615,
      "duration": 0.0034,
      "velocity": 98,
      "chip": "ym2612"
    },
    {
      "channel": 1,
      "note": 44,
      "start": 14.2649,
      "duration": 0.0002,
      "velocity": 98,
      "chip": "ym2612"
    },
    {
      "channel": 1,
      "note": 43,
      "start": 14.2651,
      "duration": 0.0002,
      "velocity": 98,
      "chip": "ym2612"
    },
    {
      "channel": 1,
      "note": 42,
      "start": 14.2653,
      "duration": 0.0002,
      "velocity": 98,
      "chip": "ym2612"
    },
    {
      "channel": 1,
      "note": 41,
      "start": 14.2655,
      "duration": 0.0002,
      "velocity": 98,
      "chip": "ym2612"
    },
    {
      "channel": 1,
      "note": 40,
      "start": 14.2657,
      "duration": 0.001,
      "velocity": 98,
      "chip": "ym2612"
    },
    {
      "channel": 1,
      "note": 39,
      "start": 14.2667,
      "duration": 0.0002,
      "velocity": 98,
      "chip": "ym2612"
    },
    {
      "channel": 1,
      "note": 38,
      "start": 14.267,
      "duration": 0.0002,
      "velocity": 98,
      "chip": "ym2612"
    },
    {
      "channel": 1,
      "note": 37,
      "start": 14.2672,
      "duration": 0.0002,
      "velocity": 98,
      "chip": "ym2612"
    },
    {
      "channel": 1,
      "note": 36,
      "start": 14.2674,
      "duration": 0.0002,
      "velocity": 98,
      "chip": "ym2612"
    },
    {
      "channel": 1,
      "note": 34,
      "start": 14.2676,
      "duration": 0.0002,
      "velocity": 98,
      "chip": "ym2612"
    },
    {
      "channel": 1,
      "note": 40,
      "start": 14.2679,
      "duration": 0.4729,
      "velocity": 98,
      "chip": "ym2612"
    },
    {
      "channel": 2,
      "note": 21,
      "start": 14.2699,
      "duration": 0.0405,
      "velocity": 78,
      "chip": "ym2612"
    },
    {
      "channel": 3,
      "note": 55,
      "start": 14.2718,
      "duration": 1.0398,
      "velocity": 1,
      "chip": "ym2612"
    },
    {
      "channel": 4,
      "note": 55,
      "start": 14.2736,
      "duration": 1.0388,
      "velocity": 1,
      "chip": "ym2612"
    },
    {
      "channel": 2,
      "note": 33,
      "start": 14.3105,
      "duration": 0.0017,
      "velocity": 78,
      "chip": "ym2612"
    },
    {
      "channel": 2,
      "note": 33,
      "start": 14.3125,
      "duration": 0.0618,
      "velocity": 78,
      "chip": "ym2612"
    },
    {
      "channel": 2,
      "note": 33,
      "start": 14.3745,
      "duration": 0.2182,
      "velocity": 78,
      "chip": "ym2612"
    },
    {
      "channel": 2,
      "note": 33,
      "start": 14.5929,
      "duration": 0.046,
      "velocity": 78,
      "chip": "ym2612"
    },
    {
      "channel": 2,
      "note": 21,
      "start": 14.6391,
      "duration": 0.0463,
      "velocity": 78,
      "chip": "ym2612"
    },
    {
      "channel": 2,
      "note": 33,
      "start": 14.6856,
      "duration": 0.0017,
      "velocity": 78,
      "chip": "ym2612"
    },
    {
      "channel": 2,
      "note": 33,
      "start": 14.6876,
      "duration": 0.0172,
      "velocity": 78,
      "chip": "ym2612"
    },
    {
      "channel": 2,
      "note": 33,
      "start": 14.7051,
      "duration": 0.0173,
      "velocity": 78,
      "chip": "ym2612"
    },
    {
      "channel": 2,
      "note": 21,
      "start": 14.7226,
      "duration": 0.0013,
      "velocity": 78,
      "chip": "ym2612"
    },
    {
      "channel": 2,
      "note": 33,
      "start": 14.7243,
      "duration": 0.0156,
      "velocity": 78,
      "chip": "ym2612"
    },
    {
      "channel": 2,
      "note": 33,
      "start": 14.74,
      "duration": 0.0012,
      "velocity": 78,
      "chip": "ym2612"
    },
    {
      "channel": 1,
      "note": 38,
      "start": 14.741,
      "duration": 0.0015,
      "velocity": 98,
      "chip": "ym2612"
    },
    {
      "channel": 2,
      "note": 21,
      "start": 14.7415,
      "duration": 0.0168,
      "velocity": 78,
      "chip": "ym2612"
    },
    {
      "channel": 1,
      "note": 38,
      "start": 14.7428,
      "duration": 0.0149,
      "velocity": 98,
      "chip": "ym2612"
    },
    {
      "channel": 1,
      "note": 40,
      "start": 14.7578,
      "duration": 0.5352,
      "velocity": 98,
      "chip": "ym2612"
    },
    {
      "channel": 2,
      "note": 21,
      "start": 14.7585,
      "duration": 0.0456,
      "velocity": 78,
      "chip": "ym2612"
    },
    {
      "channel": 2,
      "note": 33,
      "start": 14.8044,
      "duration": 0.0017,
      "velocity": 78,
      "chip": "ym2612"
    },
    {
      "channel": 2,
      "note": 33,
      "start": 14.8063,
      "duration": 0.0618,
      "velocity": 78,
      "chip": "ym2612"
    },
    {
      "channel": 2,
      "note": 33,
      "start": 14.8683,
      "duration": 0.2182,
      "velocity": 78,
      "chip": "ym2612"
    },
    {
      "channel": 2,
      "note": 33,
      "start": 15.0867,
      "duration": 0.046,
      "velocity": 78,
      "chip": "ym2612"
    },
    {
      "channel": 2,
      "note": 21,
      "start": 15.1329,
      "duration": 0.017,
      "velocity": 78,
      "chip": "ym2612"
    },
    {
      "channel": 2,
      "note": 33,
      "start": 15.1501,
      "duration": 0.0462,
      "velocity": 78,
      "chip": "ym2612"
    },
    {
      "channel": 2,
      "note": 33,
      "start": 15.1964,
      "duration": 0.0612,
      "velocity": 78,
      "chip": "ym2612"
    },
    {
      "channel": 2,
      "note": 33,
      "start": 15.2579,
      "duration": 0.0168,
      "velocity": 78,
      "chip": "ym2612"
    },
    {
      "channel": 2,
      "note": 21,
      "start": 15.2749,
      "duration": 0.0013,
      "velocity": 78,
      "chip": "ym2612"
    },
    {
      "channel": 2,
      "note": 33,
      "start": 15.2765,
      "duration": 0.0156,
      "velocity": 78,
      "chip": "ym2612"
    },
    {
      "channel": 2,
      "note": 33,
      "start": 15.2923,
      "duration": 0.0012,
      "velocity": 78,
      "chip": "ym2612"
    },
    {
      "channel": 1,
      "note": 40,
      "start": 15.2933,
      "duration": 0.0015,
      "velocity": 98,
      "chip": "ym2612"
    },
    {
      "channel": 2,
      "note": 21,
      "start": 15.2938,
      "duration": 0.0171,
      "velocity": 78,
      "chip": "ym2612"
    },
    {
      "channel": 1,
      "note": 40,
      "start": 15.295,
      "duration": 0.0151,
      "velocity": 98,
      "chip": "ym2612"
    },
    {
      "channel": 1,
      "note": 42,
      "start": 15.3103,
      "duration": 0.4766,
      "velocity": 98,
      "chip": "ym2612"
    },
    {
      "channel": 2,
      "note": 21,
      "start": 15.311,
      "duration": 0.0454,
      "velocity": 78,
      "chip": "ym2612"
    },
    {
      "channel": 3,
      "note": 55,
      "start": 15.3118,
      "duration": 1.0497,
      "velocity": 1,
      "chip": "ym2612"
    },
    {
      "channel": 4,
      "note": 55,
      "start": 15.3126,
      "duration": 1.0498,
      "velocity": 1,
      "chip": "ym2612"
    },
    {
      "channel": 2,
      "note": 33,
      "start": 15.3566,
      "duration": 0.0017,
      "velocity": 78,
      "chip": "ym2612"
    },
    {
      "channel": 2,
      "note": 33,
      "start": 15.3586,
      "duration": 0.0618,
      "velocity": 78,
      "chip": "ym2612"
    },
    {
      "channel": 2,
      "note": 33,
      "start": 15.4206,
      "duration": 0.2182,
      "velocity": 78,
      "chip": "ym2612"
    },
    {
      "channel": 2,
      "note": 33,
      "start": 15.639,
      "duration": 0.046,
      "velocity": 78,
      "chip": "ym2612"
    },
    {
      "channel": 2,
      "note": 21,
      "start": 15.6852,
      "duration": 0.0463,
      "velocity": 78,
      "chip": "ym2612"
    },
    {
      "channel": 2,
      "note": 33,
      "start": 15.7317,
      "duration": 0.0017,
      "velocity": 78,
      "chip": "ym2612"
    },
    {
      "channel": 2,
      "note": 33,
      "start": 15.7337,
      "duration": 0.0172,
      "velocity": 78,
      "chip": "ym2612"
    },
    {
      "channel": 2,
      "note": 33,
      "start": 15.7512,
      "duration": 0.0173,
      "velocity": 78,
      "chip": "ym2612"
    },
    {
      "channel": 2,
      "note": 21,
      "start": 15.7687,
      "duration": 0.0013,
      "velocity": 78,
      "chip": "ym2612"
    },
    {
      "channel": 2,
      "note": 33,
      "start": 15.7704,
      "duration": 0.0156,
      "velocity": 78,
      "chip": "ym2612"
    },
    {
      "channel": 2,
      "note": 33,
      "start": 15.7861,
      "duration": 0.0012,
      "velocity": 78,
      "chip": "ym2612"
    },
    {
      "channel": 1,
      "note": 40,
      "start": 15.7871,
      "duration": 0.0015,
      "velocity": 98,
      "chip": "ym2612"
    },
    {
      "channel": 2,
      "note": 21,
      "start": 15.7876,
      "duration": 0.0168,
      "velocity": 78,
      "chip": "ym2612"
    },
    {
      "channel": 1,
      "note": 40,
      "start": 15.7889,
      "duration": 0.0149,
      "velocity": 98,
      "chip": "ym2612"
    },
    {
      "channel": 1,
      "note": 42,
      "start": 15.8039,
      "duration": 0.0641,
      "velocity": 98,
      "chip": "ym2612"
    },
    {
      "channel": 2,
      "note": 21,
      "start": 15.8046,
      "duration": 0.0456,
      "velocity": 78,
      "chip": "ym2612"
    },
    {
      "channel": 2,
      "note": 33,
      "start": 15.8505,
      "duration": 0.0017,
      "velocity": 78,
      "chip": "ym2612"
    },
    {
      "channel": 2,
      "note": 33,
      "start": 15.8524,
      "duration": 0.0618,
      "velocity": 78,
      "chip": "ym2612"
    },
    {
      "channel": 1,
      "note": 43,
      "start": 15.8682,
      "duration": 0.2476,
      "velocity": 98,
      "chip": "ym2612"
    },
    {
      "channel": 2,
      "note": 33,
      "start": 15.9144,
      "duration": 0.2191,
      "velocity": 78,
      "chip": "ym2612"
    },
    {
      "channel": 1,
      "note": 44,
      "start": 16.1162,
      "duration": 0.0804,
      "velocity": 98,
      "chip": "ym2612"
    },
    {
      "channel": 2,
      "note": 33,
      "start": 16.1337,
      "duration": 0.046,
      "velocity": 78,
      "chip": "ym2612"
    },
    {
      "channel": 2,
      "note": 21,
      "start": 16.18,
      "duration": 0.0177,
      "velocity": 78,
      "chip": "ym2612"
    },
    {
      "channel": 1,
      "note": 45,
      "start": 16.1968,
      "duration": 0.108,
      "velocity": 98,
      "chip": "ym2612"
    },
    {
      "channel": 2,
      "note": 33,
      "start": 16.1978,
      "duration": 0.0455,
      "velocity": 78,
      "chip": "ym2612"
    },
    {
      "channel": 2,
      "note": 33,
      "start": 16.2435,
      "duration": 0.0619,
      "velocity": 78,
      "chip": "ym2612"
    },
    {
      "channel": 1,
      "note": 48,
      "start": 16.3049,
      "duration": 0.0181,
      "velocity": 98,
      "chip": "ym2612"
    },
    {
      "channel": 2,
      "note": 33,
      "start": 16.3056,
      "duration": 0.0181,
      "velocity": 78,
      "chip": "ym2612"
    },
    {
      "channel": 1,
      "note": 45,
      "start": 16.3232,
      "duration": 0.0027,
      "velocity": 98,
      "chip": "ym2612"
    },
    {
      "channel": 2,
      "note": 21,
      "start": 16.3239,
      "duration": 0.0024,
      "velocity": 78,
      "chip": "ym2612"
    },
    {
      "channel": 1,
      "note": 48,
      "start": 16.3261,
      "duration": 0.0145,
      "velocity": 98,
      "chip": "ym2612"
    },
    {
      "channel": 2,
      "note": 33,
      "start": 16.3265,
      "duration": 0.0148,
      "velocity": 78,
      "chip": "ym2612"
    },
    {
      "channel": 1,
      "note": 49,
      "start": 16.3408,
      "duration": 0.0015,
      "velocity": 98,
      "chip": "ym2612"
    },
    {
      "channel": 2,
      "note": 33,
      "start": 16.3415,
      "duration": 0.0012,
      "velocity": 78,
      "chip": "ym2612"
    },
    {
      "channel": 1,
      "note": 50,
      "start": 16.3425,
      "duration": 0.0176,
      "velocity": 98,
      "chip": "ym2612"
    },
    {
      "channel": 2,
      "note": 21,
      "start": 16.3429,
      "duration": 0.0179,
      "velocity": 78,
      "chip": "ym2612"
    },
    {
      "channel": 1,
      "note": 40,
      "start": 16.3602,
      "duration": 0.4766,
      "velocity": 98,
      "chip": "ym2612"
    },
    {
      "channel": 2,
      "note": 21,
      "start": 16.361,
      "duration": 0.0454,
      "velocity": 78,
      "chip": "ym2612"
    },
    {
      "channel": 3,
      "note": 55,
      "start": 16.3617,
      "duration": 1.0459,
      "velocity": 1,
      "chip": "ym2612"
    },
    {
      "channel": 4,
      "note": 55,
      "start": 16.3625,
      "duration": 1.0459,
      "velocity": 1,
      "chip": "ym2612"
    },
    {
      "channel": 2,
      "note": 33,
      "start": 16.4066,
      "duration": 0.0017,
      "velocity": 78,
      "chip": "ym2612"
    },
    {
      "channel": 2,
      "note": 33,
      "start": 16.4085,
      "duration": 0.0618,
      "velocity": 78,
      "chip": "ym2612"
    },
    {
      "channel": 2,
      "note": 33,
      "start": 16.4705,
      "duration": 0.2182,
      "velocity": 78,
      "chip": "ym2612"
    },
    {
      "channel": 2,
      "note": 33,
      "start": 16.6889,
      "duration": 0.046,
      "velocity": 78,
      "chip": "ym2612"
    },
    {
      "channel": 2,
      "note": 21,
      "start": 16.7352,
      "duration": 0.0463,
      "velocity": 78,
      "chip": "ym2612"
    },
    {
      "channel": 2,
      "note": 33,
      "start": 16.7816,
      "duration": 0.0017,
      "velocity": 78,
      "chip": "ym2612"
    },
    {
      "channel": 2,
      "note": 33,
      "start": 16.7836,
      "duration": 0.0172,
      "velocity": 78,
      "chip": "ym2612"
    },
    {
      "channel": 2,
      "note": 33,
      "start": 16.8012,
      "duration": 0.0173,
      "velocity": 78,
      "chip": "ym2612"
    },
    {
      "channel": 2,
      "note": 21,
      "start": 16.8187,
      "duration": 0.0013,
      "velocity": 78,
      "chip": "ym2612"
    },
    {
      "channel": 2,
      "note": 33,
      "start": 16.8203,
      "duration": 0.0156,
      "velocity": 78,
      "chip": "ym2612"
    },
    {
      "channel": 2,
      "note": 33,
      "start": 16.8361,
      "duration": 0.0012,
      "velocity": 78,
      "chip": "ym2612"
    },
    {
      "channel": 1,
      "note": 38,
      "start": 16.8371,
      "duration": 0.0015,
      "velocity": 98,
      "chip": "ym2612"
    },
    {
      "channel": 2,
      "note": 21,
      "start": 16.8376,
      "duration": 0.0168,
      "velocity": 78,
      "chip": "ym2612"
    },
    {
      "channel": 1,
      "note": 38,
      "start": 16.8388,
      "duration": 0.0149,
      "velocity": 98,
      "chip": "ym2612"
    },
    {
      "channel": 1,
      "note": 40,
      "start": 16.8539,
      "duration": 0.5352,
      "velocity": 98,
      "chip": "ym2612"
    },
    {
      "channel": 2,
      "note": 21,
      "start": 16.8546,
      "duration": 0.0456,
      "velocity": 78,
      "chip": "ym2612"
    },
    {
      "channel": 2,
      "note": 33,
      "start": 16.9004,
      "duration": 0.0017,
      "velocity": 78,
      "chip": "ym2612"
    },
    {
      "channel": 2,
      "note": 33,
      "start": 16.9024,
      "duration": 0.0618,
      "velocity": 78,
      "chip": "ym2612"
    },
    {
      "channel": 2,
      "note": 33,
      "start": 16.9643,
      "duration": 0.2182,
      "velocity": 78,
      "chip": "ym2612"
    },
    {
      "channel": 2,
      "note": 33,
      "start": 17.1827,
      "duration": 0.046,
      "velocity": 78,
      "chip": "ym2612"
    },
    {
      "channel": 2,
      "note": 21,
      "start": 17.229,
      "duration": 0.017,
      "velocity": 78,
      "chip": "ym2612"
    },
    {
      "channel": 2,
      "note": 33,
      "start": 17.2461,
      "duration": 0.0462,
      "velocity": 78,
      "chip": "ym2612"
    },
    {
      "channel": 2,
      "note": 33,
      "start": 17.2925,
      "duration": 0.0612,
      "velocity": 78,
      "chip": "ym2612"
    },
    {
      "channel": 2,
      "note": 33,
      "start": 17.3539,
      "duration": 0.0168,
      "velocity": 78,
      "chip": "ym2612"
    },
    {
      "channel": 2,
      "note": 21,
      "start": 17.3709,
      "duration": 0.0013,
      "velocity": 78,
      "chip": "ym2612"
    },
    {
      "channel": 2,
      "note": 33,
      "start": 17.3726,
      "duration": 0.0156,
      "velocity": 78,
      "chip": "ym2612"
    },
    {
      "channel": 2,
      "note": 33,
      "start": 17.3883,
      "duration": 0.0012,
      "velocity": 78,
      "chip": "ym2612"
    },
    {
      "channel": 1,
      "note": 40,
      "start": 17.3893,
      "duration": 0.0015,
      "velocity": 98,
      "chip": "ym2612"
    },
    {
      "channel": 2,
      "note": 21,
      "start": 17.3898,
      "duration": 0.0171,
      "velocity": 78,
      "chip": "ym2612"
    },
    {
      "channel": 1,
      "note": 40,
      "start": 17.391,
      "duration": 0.0151,
      "velocity": 98,
      "chip": "ym2612"
    },
    {
      "channel": 1,
      "note": 42,
      "start": 17.4063,
      "duration": 0.4764,
      "velocity": 98,
      "chip": "ym2612"
    },
    {
      "channel": 2,
      "note": 21,
      "start": 17.4071,
      "duration": 0.0454,
      "velocity": 78,
      "chip": "ym2612"
    },
    {
      "channel": 3,
      "note": 55,
      "start": 17.4078,
      "duration": 1.3144,
      "velocity": 74,
      "chip": "ym2612"
    },
    {
      "channel": 4,
      "note": 55,
      "start": 17.4086,
      "duration": 1.0533,
      "velocity": 74,
      "chip": "ym2612"
    },
    {
      "channel": 2,
      "note": 33,
      "start": 17.4527,
      "duration": 0.0017,
      "velocity": 78,
      "chip": "ym2612"
    },
    {
      "channel": 2,
      "note": 33,
      "start": 17.4546,
      "duration": 0.0618,
      "velocity": 78,
      "chip": "ym2612"
    },
    {
      "channel": 2,
      "note": 33,
      "start": 17.5166,
      "duration": 0.2182,
      "velocity": 78,
      "chip": "ym2612"
    },
    {
      "channel": 2,
      "note": 33,
      "start": 17.735,
      "duration": 0.046,
      "velocity": 78,
      "chip": "ym2612"
    },
    {
      "channel": 2,
      "note": 21,
      "start": 17.7813,
      "duration": 0.0463,
      "velocity": 78,
      "chip": "ym2612"
    },
    {
      "channel": 2,
      "note": 33,
      "start": 17.8277,
      "duration": 0.0017,
      "velocity": 78,
      "chip": "ym2612"
    },
    {
      "channel": 2,
      "note": 33,
      "start": 17.8297,
      "duration": 0.0172,
      "velocity": 78,
      "chip": "ym2612"
    },
    {
      "channel": 2,
      "note": 33,
      "start": 17.8473,
      "duration": 0.0359,
      "velocity": 78,
      "chip": "ym2612"
    },
    {
      "channel": 1,
      "note": 40,
      "start": 17.8829,
      "duration": 0.0009,
      "velocity": 98,
      "chip": "ym2612"
    },
    {
      "channel": 2,
      "note": 33,
      "start": 17.8834,
      "duration": 0.0162,
      "velocity": 78,
      "chip": "ym2612"
    },
    {
      "channel": 1,
      "note": 40,
      "start": 17.884,
      "duration": 0.0149,
      "velocity": 98,
      "chip": "ym2612"
    },
    {
      "channel": 1,
      "note": 42,
      "start": 17.8991,
      "duration": 0.0641,
      "velocity": 98,
      "chip": "ym2612"
    },
    {
      "channel": 2,
      "note": 21,
      "start": 17.8998,
      "duration": 0.0456,
      "velocity": 78,
      "chip": "ym2612"
    },
    {
      "channel": 2,
      "note": 33,
      "start": 17.9456,
      "duration": 0.0017,
      "velocity": 78,
      "chip": "ym2612"
    },
    {
      "channel": 2,
      "note": 33,
      "start": 17.9476,
      "duration": 0.0618,
      "velocity": 78,
      "chip": "ym2612"
    },
    {
      "channel": 1,
      "note": 43,
      "start": 17.9634,
      "duration": 0.2474,
      "velocity": 98,
      "chip": "ym2612"
    },
    {
      "channel": 2,
      "note": 33,
      "start": 18.0096,
      "duration": 0.0998,
      "velocity": 78,
      "chip": "ym2612"
    },
    {
      "channel": 2,
      "note": 33,
      "start": 18.1096,
      "duration": 0.1002,
      "velocity": 78,
      "chip": "ym2612"
    },
    {
      "channel": 2,
      "note": 33,
      "start": 18.2099,
      "duration": 0.0017,
      "velocity": 78,
      "chip": "ym2612"
    },
    {
      "channel": 1,
      "note": 44,
      "start": 18.211,
      "duration": 0.0796,
      "velocity": 98,
      "chip": "ym2612"
    },
    {
      "channel": 2,
      "note": 33,
      "start": 18.212,
      "duration": 0.0156,
      "velocity": 78,
      "chip": "ym2612"
    },
    {
      "channel": 2,
      "note": 21,
      "start": 18.2277,
      "duration": 0.0461,
      "velocity": 78,
      "chip": "ym2612"
    },
    {
      "channel": 2,
      "note": 21,
      "start": 18.274,
      "duration": 0.0177,
      "velocity": 78,
      "chip": "ym2612"
    },
    {
      "channel": 1,
      "note": 45,
      "start": 18.2908,
      "duration": 0.108,
      "velocity": 98,
      "chip": "ym2612"
    },
    {
      "channel": 2,
      "note": 33,
      "start": 18.2919,
      "duration": 0.0455,
      "velocity": 78,
      "chip": "ym2612"
    },
    {
      "channel": 2,
      "note": 33,
      "start": 18.3375,
      "duration": 0.0635,
      "velocity": 127,
      "chip": "ym2612"
    },
    {
      "channel": 1,
      "note": 48,
      "start": 18.3989,
      "duration": 0.0199,
      "velocity": 98,
      "chip": "ym2612"
    },
    {
      "channel": 2,
      "note": 71,
      "start": 18.4013,
      "duration": 0.0008,
      "velocity": 127,
      "chip": "ym2612"
    },
    {
      "channel": 2,
      "note": 70,
      "start": 18.4021,
      "duration": 0.0002,
      "velocity": 127,
      "chip": "ym2612"
    },
    {
      "channel": 2,
      "note": 68,
      "start": 18.4023,
      "duration": 0.0001,
      "velocity": 127,
      "chip": "ym2612"
    },
    {
      "channel": 2,
      "note": 67,
      "start": 18.4024,
      "duration": 0.0002,
      "velocity": 127,
      "chip": "ym2612"
    },
    {
      "channel": 2,
      "note": 66,
      "start": 18.4026,
      "duration": 0.0002,
      "velocity": 127,
      "chip": "ym2612"
    },
    {
      "channel": 2,
      "note": 66,
      "start": 18.4027,
      "duration": 0.0002,
      "velocity": 127,
      "chip": "ym2612"
    },
    {
      "channel": 2,
      "note": 71,
      "start": 18.4031,
      "duration": 0.0012,
      "velocity": 127,
      "chip": "ym2612"
    },
    {
      "channel": 2,
      "note": 70,
      "start": 18.4043,
      "duration": 0.0002,
      "velocity": 127,
      "chip": "ym2612"
    },
    {
      "channel": 2,
      "note": 68,
      "start": 18.4045,
      "duration": 0.0001,
      "velocity": 127,
      "chip": "ym2612"
    },
    {
      "channel": 2,
      "note": 67,
      "start": 18.4046,
      "duration": 0.0002,
      "velocity": 127,
      "chip": "ym2612"
    },
    {
      "channel": 2,
      "note": 66,
      "start": 18.4048,
      "duration": 0.0002,
      "velocity": 127,
      "chip": "ym2612"
    },
    {
      "channel": 2,
      "note": 66,
      "start": 18.405,
      "duration": 0.0145,
      "velocity": 127,
      "chip": "ym2612"
    },
    {
      "channel": 1,
      "note": 45,
      "start": 18.419,
      "duration": 0.0035,
      "velocity": 98,
      "chip": "ym2612"
    },
    {
      "channel": 2,
      "note": 71,
      "start": 18.4198,
      "duration": 0.0007,
      "velocity": 127,
      "chip": "ym2612"
    },
    {
      "channel": 2,
      "note": 70,
      "start": 18.4205,
      "duration": 0.0002,
      "velocity": 127,
      "chip": "ym2612"
    },
    {
      "channel": 2,
      "note": 68,
      "start": 18.4207,
      "duration": 0.0002,
      "velocity": 127,
      "chip": "ym2612"
    },
    {
      "channel": 2,
      "note": 67,
      "start": 18.4209,
      "duration": 0.0002,
      "velocity": 127,
      "chip": "ym2612"
    },
    {
      "channel": 2,
      "note": 66,
      "start": 18.4211,
      "duration": 0.0002,
      "velocity": 127,
      "chip": "ym2612"
    },
    {
      "channel": 2,
      "note": 66,
      "start": 18.4213,
      "duration": 0.0005,
      "velocity": 127,
      "chip": "ym2612"
    },
    {
      "channel": 2,
      "note": 65,
      "start": 18.4217,
      "duration": 0.0002,
      "velocity": 127,
      "chip": "ym2612"
    },
    {
      "channel": 2,
      "note": 64,
      "start": 18.4219,
      "duration": 0.0002,
      "velocity": 127,
      "chip": "ym2612"
    },
    {
      "channel": 2,
      "note": 63,
      "start": 18.4221,
      "duration": 0.0002,
      "velocity": 127,
      "chip": "ym2612"
    },
    {
      "channel": 2,
      "note": 61,
      "start": 18.4222,
      "duration": 0.0002,
      "velocity": 127,
      "chip": "ym2612"
    },
    {
      "channel": 2,
      "note": 60,
      "start": 18.4224,
      "duration": 0.0006,
      "velocity": 127,
      "chip": "ym2612"
    },
    {
      "channel": 1,
      "note": 48,
      "start": 18.4227,
      "duration": 0.0157,
      "velocity": 98,
      "chip": "ym2612"
    },
    {
      "channel": 2,
      "note": 67,
      "start": 18.4233,
      "duration": 0.0011,
      "velocity": 127,
      "chip": "ym2612"
    },
    {
      "channel": 2,
      "note": 66,
      "start": 18.4244,
      "duration": 0.0006,
      "velocity": 127,
      "chip": "ym2612"
    },
    {
      "channel": 2,
      "note": 65,
      "start": 18.425,
      "duration": 0.0002,
      "velocity": 127,
      "chip": "ym2612"
    },
    {
      "channel": 2,
      "note": 64,
      "start": 18.4252,
      "duration": 0.0002,
      "velocity": 127,
      "chip": "ym2612"
    },
    {
      "channel": 2,
      "note": 63,
      "start": 18.4254,
      "duration": 0.0002,
      "velocity": 127,
      "chip": "ym2612"
    },
    {
      "channel": 2,
      "note": 62,
      "start": 18.4256,
      "duration": 0.0134,
      "velocity": 127,
      "chip": "ym2612"
    },
    {
      "channel": 1,
      "note": 49,
      "start": 18.4385,
      "duration": 0.0025,
      "velocity": 98,
      "chip": "ym2612"
    },
    {
      "channel": 2,
      "note": 67,
      "start": 18.4393,
      "duration": 0.0007,
      "velocity": 127,
      "chip": "ym2612"
    },
    {
      "channel": 2,
      "note": 66,
      "start": 18.4401,
      "duration": 0.0002,
      "velocity": 127,
      "chip": "ym2612"
    },
    {
      "channel": 2,
      "note": 65,
      "start": 18.4403,
      "duration": 0.0002,
      "velocity": 127,
      "chip": "ym2612"
    },
    {
      "channel": 2,
      "note": 64,
      "start": 18.4405,
      "duration": 0.0002,
      "velocity": 127,
      "chip": "ym2612"
    },
    {
      "channel": 2,
      "note": 63,
      "start": 18.4407,
      "duration": 0.0002,
      "velocity": 127,
      "chip": "ym2612"
    },
    {
      "channel": 2,
      "note": 62,
      "start": 18.4409,
      "duration": 0.0005,
      "velocity": 127,
      "chip": "ym2612"
    },
    {
      "channel": 1,
      "note": 50,
      "start": 18.4412,
      "duration": 0.0181,
      "velocity": 98,
      "chip": "ym2612"
    },
    {
      "channel": 2,
      "note": 67,
      "start": 18.4416,
      "duration": 0.0009,
      "velocity": 127,
      "chip": "ym2612"
    },
    {
      "channel": 2,
      "note": 66,
      "start": 18.4425,
      "duration": 0.0002,
      "velocity": 127,
      "chip": "ym2612"
    },
    {
      "channel": 2,
      "note": 65,
      "start": 18.4427,
      "duration": 0.0002,
      "velocity": 127,
      "chip": "ym2612"
    },
    {
      "channel": 2,
      "note": 64,
      "start": 18.4429,
      "duration": 0.0002,
      "velocity": 127,
      "chip": "ym2612"
    },
    {
      "channel": 2,
      "note": 63,
      "start": 18.4431,
      "duration": 0.0002,
      "velocity": 127,
      "chip": "ym2612"
    },
    {
      "channel": 2,
      "note": 62,
      "start": 18.4432,
      "duration": 0.0005,
      "velocity": 127,
      "chip": "ym2612"
    },
    {
      "channel": 2,
      "note": 61,
      "start": 18.4437,
      "duration": 0.0002,
      "velocity": 127,
      "chip": "ym2612"
    },
    {
      "channel": 2,
      "note": 60,
      "start": 18.4439,
      "duration": 0.0002,
      "velocity": 127,
      "chip": "ym2612"
    },
    {
      "channel": 2,
      "note": 59,
      "start": 18.4441,
      "duration": 0.0002,
      "velocity": 127,
      "chip": "ym2612"
    },
    {
      "channel": 2,
      "note": 57,
      "start": 18.4443,
      "duration": 0.0001,
      "velocity": 127,
      "chip": "ym2612"
    },
    {
      "channel": 2,
      "note": 56,
      "start": 18.4444,
      "duration": 0.0183,
      "velocity": 127,
      "chip": "ym2612"
    },
    {
      "channel": 1,
      "note": 38,
      "start": 18.4595,
      "duration": 0.2502,
      "velocity": 98,
      "chip": "ym2612"
    },
    {
      "channel": 4,
      "note": 50,
      "start": 18.4621,
      "duration": 46.7345,
      "velocity": 74,
      "chip": "ym2612"
    },
    {
      "channel": 2,
      "note": 55,
      "start": 18.4627,
      "duration": 0.0002,
      "velocity": 127,
      "chip": "ym2612"
    },
    {
      "channel": 2,
      "note": 54,
      "start": 18.4629,
      "duration": 0.0002,
      "velocity": 127,
      "chip": "ym2612"
    },
    {
      "channel": 2,
      "note": 53,
      "start": 18.4631,
      "duration": 0.0002,
      "velocity": 127,
      "chip": "ym2612"
    },
    {
      "channel": 2,
      "note": 52,
      "start": 18.4633,
      "duration": 0.0002,
      "velocity": 127,
      "chip": "ym2612"
    },
    {
      "channel": 2,
      "note": 51,
      "start": 18.4635,
      "duration": 0.0002,
      "velocity": 127,
      "chip": "ym2612"
    },
    {
      "channel": 2,
      "note": 50,
      "start": 18.4637,
      "duration": 0.0002,
      "velocity": 127,
      "chip": "ym2612"
    },
    {
      "channel": 2,
      "note": 49,
      "start": 18.4639,
      "duration": 0.0002,
      "velocity": 127,
      "chip": "ym2612"
    },
    {
      "channel": 2,
      "note": 48,
      "start": 18.464,
      "duration": 0.0006,
      "velocity": 127,
      "chip": "ym2612"
    },
    {
      "channel": 2,
      "note": 47,
      "start": 18.4646,
      "duration": 0.0077,
      "velocity": 127,
      "chip": "ym2612"
    },
    {
      "channel": 2,
      "note": 45,
      "start": 18.4723,
      "duration": 0.0341,
      "velocity": 127,
      "chip": "ym2612"
    },
    {
      "channel": 2,
      "note": 44,
      "start": 18.5064,
      "duration": 0.0159,
      "velocity": 127,
      "chip": "ym2612"
    },
    {
      "channel": 2,
      "note": 43,
      "start": 18.5223,
      "duration": 0.0167,
      "velocity": 127,
      "chip": "ym2612"
    },
    {
      "channel": 2,
      "note": 42,
      "start": 18.539,
      "duration": 0.0167,
      "velocity": 127,
      "chip": "ym2612"
    },
    {
      "channel": 2,
      "note": 41,
      "start": 18.5556,
      "duration": 0.0167,
      "velocity": 127,
      "chip": "ym2612"
    },
    {
      "channel": 2,
      "note": 40,
      "start": 18.5723,
      "duration": 0.0341,
      "velocity": 127,
      "chip": "ym2612"
    },
    {
      "channel": 2,
      "note": 39,
      "start": 18.6064,
      "duration": 0.0159,
      "velocity": 127,
      "chip": "ym2612"
    },
    {
      "channel": 2,
      "note": 38,
      "start": 18.6223,
      "duration": 0.0167,
      "velocity": 127,
      "chip": "ym2612"
    },
    {
      "channel": 2,
      "note": 37,
      "start": 18.639,
      "duration": 0.0167,
      "velocity": 127,
      "chip": "ym2612"
    },
    {
      "channel": 2,
      "note": 36,
      "start": 18.6556,
      "duration": 0.0167,
      "velocity": 127,
      "chip": "ym2612"
    },
    {
      "channel": 2,
      "note": 35,
      "start": 18.6723,
      "duration": 0.0355,
      "velocity": 74,
      "chip": "ym2612"
    },
    {
      "channel": 2,
      "note": 79,
      "start": 18.708,
      "duration": 0.0008,
      "velocity": 74,
      "chip": "ym2612"
    },
    {
      "channel": 2,
      "note": 79,
      "start": 18.7088,
      "duration": 0.0001,
      "velocity": 74,
      "chip": "ym2612"
    },
    {
      "channel": 2,
      "note": 79,
      "start": 18.7089,
      "duration": 0.0002,
      "velocity": 74,
      "chip": "ym2612"
    },
    {
      "channel": 2,
      "note": 79,
      "start": 18.7091,
      "duration": 0.0002,
      "velocity": 74,
      "chip": "ym2612"
    },
    {
      "channel": 2,
      "note": 79,
      "start": 18.7093,
      "duration": 0.0002,
      "velocity": 74,
      "chip": "ym2612"
    },
    {
      "channel": 2,
      "note": 80,
      "start": 18.7095,
      "duration": 0.0006,
      "velocity": 74,
      "chip": "ym2612"
    },
    {
      "channel": 1,
      "note": 38,
      "start": 18.71,
      "duration": 0.1105,
      "velocity": 98,
      "chip": "ym2612"
    },
    {
      "channel": 2,
      "note": 81,
      "start": 18.7103,
      "duration": 0.1108,
      "velocity": 74,
      "chip": "ym2612"
    },
    {
      "channel": 3,
      "note": 79,
      "start": 18.7224,
      "duration": 0.0998,
      "velocity": 74,
      "chip": "ym2612"
    },
    {
      "channel": 1,
      "note": 41,
      "start": 18.8207,
      "duration": 0.0462,
      "velocity": 98,
      "chip": "ym2612"
    },
    {
      "channel": 2,
      "note": 77,
      "start": 18.8214,
      "duration": 0.0462,
      "velocity": 74,
      "chip": "ym2612"
    },
    {
      "channel": 3,
      "note": 79,
      "start": 18.8222,
      "duration": 0.0002,
      "velocity": 74,
      "chip": "ym2612"
    },
    {
      "channel": 3,
      "note": 79,
      "start": 18.8224,
      "duration": 0.0002,
      "velocity": 74,
      "chip": "ym2612"
    },
    {
      "channel": 3,
      "note": 79,
      "start": 18.8226,
      "duration": 0.0002,
      "velocity": 74,
      "chip": "ym2612"
    },
    {
      "channel": 3,
      "note": 79,
      "start": 18.8228,
      "duration": 0.0002,
      "velocity": 74,
      "chip": "ym2612"
    },
    {
      "channel": 3,
      "note": 80,
      "start": 18.823,
      "duration": 0.0002,
      "velocity": 74,
      "chip": "ym2612"
    },
    {
      "channel": 3,
      "note": 81,
      "start": 18.8233,
      "duration": 0.0453,
      "velocity": 74,
      "chip": "ym2612"
    },
    {
      "channel": 1,
      "note": 41,
      "start": 18.8671,
      "duration": 46.3295,
      "velocity": 98,
      "chip": "ym2612"
    },
    {
      "channel": 2,
      "note": 74,
      "start": 18.8678,
      "duration": 0.0454,
      "velocity": 74,
      "chip": "ym2612"
    },
    {
      "channel": 3,
      "note": 77,
      "start": 18.8688,
      "duration": 46.3278,
      "velocity": 74,
      "chip": "ym2612"
    },
    {
      "channel": 2,
      "note": 72,
      "start": 18.9135,
      "duration": 46.2831,
      "velocity": 74,
      "chip": "ym2612"
    }
  ]
}