{
  "track_name": "05 - Tightrope",
  "duration_sec": 39.797,
  "sample_rate": 44100,
  "note_count": 447,
  "unique_pitches": 31,
  "pitch_range": 50,
  "avg_note_duration": 0.2395,
  "reconstruction_stats": {
    "notes_reconstructed": 447,
    "keyon_events": 447,
    "keyoff_events": 423,
    "orphan_keyons": 4,
    "unique_pitches": 31,
    "pitch_range": 50,
    "avg_duration_sec": 0.2395
  },
  "metadata": {
    "source": "M\\Minnesota Fats - Pool Legend\\05 - Tightrope.vgz"
  },
  "notes": [
    {
      "channel": 4,
      "note": 53,
      "start": 0.0,
      "duration": 0.3982,
      "velocity": 94,
      "chip": "ym2612"
    },
    {
      "channel": 1,
      "note": 77,
      "start": 0.174,
      "duration": 0.0046,
      "velocity": 97,
      "chip": "ym2612"
    },
    {
      "channel": 2,
      "note": 72,
      "start": 0.1741,
      "duration": 0.0045,
      "velocity": 97,
      "chip": "ym2612"
    },
    {
      "channel": 3,
      "note": 68,
      "start": 0.1744,
      "duration": 0.0043,
      "velocity": 97,
      "chip": "ym2612"
    },
    {
      "channel": 1,
      "note": 77,
      "start": 0.3913,
      "duration": 0.0046,
      "velocity": 97,
      "chip": "ym2612"
    },
    {
      "channel": 2,
      "note": 72,
      "start": 0.3915,
      "duration": 0.0046,
      "velocity": 97,
      "chip": "ym2612"
    },
    {
      "channel": 3,
      "note": 68,
      "start": 0.3917,
      "duration": 0.0044,
      "velocity": 97,
      "chip": "ym2612"
    },
    {
      "channel": 4,
      "note": 53,
      "start": 0.4003,
      "duration": 0.2362,
      "velocity": 94,
      "chip": "ym2612"
    },
    {
      "channel": 1,
      "note": 79,
      "start": 0.6699,
      "duration": 0.0047,
      "velocity": 97,
      "chip": "ym2612"
    },
    {
      "channel": 2,
      "note": 72,
      "start": 0.67,
      "duration": 0.0047,
      "velocity": 97,
      "chip": "ym2612"
    },
    {
      "channel": 3,
      "note": 68,
      "start": 0.6703,
      "duration": 0.0045,
      "velocity": 97,
      "chip": "ym2612"
    },
    {
      "channel": 4,
      "note": 52,
      "start": 0.6705,
      "duration": 0.4108,
      "velocity": 94,
      "chip": "ym2612"
    },
    {
      "channel": 1,
      "note": 77,
      "start": 0.9395,
      "duration": 0.1018,
      "velocity": 97,
      "chip": "ym2612"
    },
    {
      "channel": 2,
      "note": 72,
      "start": 0.9397,
      "duration": 0.1017,
      "velocity": 97,
      "chip": "ym2612"
    },
    {
      "channel": 3,
      "note": 68,
      "start": 0.94,
      "duration": 0.1015,
      "velocity": 97,
      "chip": "ym2612"
    },
    {
      "channel": 4,
      "note": 51,
      "start": 1.1148,
      "duration": 0.4186,
      "velocity": 94,
      "chip": "ym2612"
    },
    {
      "channel": 1,
      "note": 77,
      "start": 1.3088,
      "duration": 0.0046,
      "velocity": 97,
      "chip": "ym2612"
    },
    {
      "channel": 2,
      "note": 72,
      "start": 1.309,
      "duration": 0.0046,
      "velocity": 97,
      "chip": "ym2612"
    },
    {
      "channel": 3,
      "note": 68,
      "start": 1.3093,
      "duration": 0.0044,
      "velocity": 97,
      "chip": "ym2612"
    },
    {
      "channel": 1,
      "note": 77,
      "start": 1.5266,
      "duration": 0.0046,
      "velocity": 97,
      "chip": "ym2612"
    },
    {
      "channel": 2,
      "note": 72,
      "start": 1.5267,
      "duration": 0.0046,
      "velocity": 97,
      "chip": "ym2612"
    },
    {
      "channel": 3,
      "note": 68,
      "start": 1.527,
      "duration": 0.0044,
      "velocity": 97,
      "chip": "ym2612"
    },
    {
      "channel": 4,
      "note": 51,
      "start": 1.5357,
      "duration": 0.2362,
      "velocity": 94,
      "chip": "ym2612"
    },
    {
      "channel": 1,
      "note": 80,
      "start": 1.8052,
      "duration": 0.0047,
      "velocity": 97,
      "chip": "ym2612"
    },
    {
      "channel": 2,
      "note": 77,
      "start": 1.8054,
      "duration": 0.0047,
      "velocity": 97,
      "chip": "ym2612"
    },
    {
      "channel": 3,
      "note": 72,
      "start": 1.8056,
      "duration": 0.0045,
      "velocity": 97,
      "chip": "ym2612"
    },
    {
      "channel": 4,
      "note": 50,
      "start": 1.8059,
      "duration": 0.3354,
      "velocity": 94,
      "chip": "ym2612"
    },
    {
      "channel": 1,
      "note": 77,
      "start": 2.0749,
      "duration": 0.1019,
      "velocity": 97,
      "chip": "ym2612"
    },
    {
      "channel": 2,
      "note": 72,
      "start": 2.0751,
      "duration": 0.1019,
      "velocity": 97,
      "chip": "ym2612"
    },
    {
      "channel": 3,
      "note": 68,
      "start": 2.0753,
      "duration": 0.1017,
      "velocity": 97,
      "chip": "ym2612"
    },
    {
      "channel": 4,
      "note": 52,
      "start": 2.1747,
      "duration": 0.042,
      "velocity": 94,
      "chip": "ym2612"
    },
    {
      "channel": 4,
      "note": 53,
      "start": 2.2503,
      "duration": 0.4182,
      "velocity": 94,
      "chip": "ym2612"
    },
    {
      "channel": 1,
      "note": 77,
      "start": 2.4442,
      "duration": 0.0046,
      "velocity": 97,
      "chip": "ym2612"
    },
    {
      "channel": 2,
      "note": 72,
      "start": 2.4444,
      "duration": 0.0046,
      "velocity": 97,
      "chip": "ym2612"
    },
    {
      "channel": 3,
      "note": 68,
      "start": 2.4446,
      "duration": 0.0044,
      "velocity": 97,
      "chip": "ym2612"
    },
    {
      "channel": 1,
      "note": 77,
      "start": 2.6616,
      "duration": 0.0046,
      "velocity": 97,
      "chip": "ym2612"
    },
    {
      "channel": 2,
      "note": 72,
      "start": 2.6618,
      "duration": 0.0046,
      "velocity": 97,
      "chip": "ym2612"
    },
    {
      "channel": 3,
      "note": 68,
      "start": 2.662,
      "duration": 0.0044,
      "velocity": 97,
      "chip": "ym2612"
    },
    {
      "channel": 4,
      "note": 53,
      "start": 2.6706,
      "duration": 0.2362,
      "velocity": 94,
      "chip": "ym2612"
    },
    {
      "channel": 1,
      "note": 79,
      "start": 2.9401,
      "duration": 0.0047,
      "velocity": 97,
      "chip": "ym2612"
    },
    {
      "channel": 2,
      "note": 72,
      "start": 2.9403,
      "duration": 0.0047,
      "velocity": 97,
      "chip": "ym2612"
    },
    {
      "channel": 3,
      "note": 68,
      "start": 2.9405,
      "duration": 0.0045,
      "velocity": 97,
      "chip": "ym2612"
    },
    {
      "channel": 4,
      "note": 52,
      "start": 2.9407,
      "duration": 0.4108,
      "velocity": 94,
      "chip": "ym2612"
    },
    {
      "channel": 1,
      "note": 77,
      "start": 3.2098,
      "duration": 0.1009,
      "velocity": 97,
      "chip": "ym2612"
    },
    {
      "channel": 2,
      "note": 72,
      "start": 3.2099,
      "duration": 0.1008,
      "velocity": 97,
      "chip": "ym2612"
    },
    {
      "channel": 3,
      "note": 68,
      "start": 3.2102,
      "duration": 0.1006,
      "velocity": 97,
      "chip": "ym2612"
    },
    {
      "channel": 4,
      "note": 51,
      "start": 3.385,
      "duration": 0.4344,
      "velocity": 94,
      "chip": "ym2612"
    },
    {
      "channel": 1,
      "note": 77,
      "start": 3.579,
      "duration": 0.0046,
      "velocity": 97,
      "chip": "ym2612"
    },
    {
      "channel": 2,
      "note": 72,
      "start": 3.5792,
      "duration": 0.0046,
      "velocity": 97,
      "chip": "ym2612"
    },
    {
      "channel": 3,
      "note": 68,
      "start": 3.5795,
      "duration": 0.0044,
      "velocity": 97,
      "chip": "ym2612"
    },
    {
      "channel": 1,
      "note": 77,
      "start": 3.8125,
      "duration": 0.0046,
      "velocity": 97,
      "chip": "ym2612"
    },
    {
      "channel": 2,
      "note": 72,
      "start": 3.8127,
      "duration": 0.0046,
      "velocity": 97,
      "chip": "ym2612"
    },
    {
      "channel": 3,
      "note": 68,
      "start": 3.813,
      "duration": 0.0044,
      "velocity": 97,
      "chip": "ym2612"
    },
    {
      "channel": 4,
      "note": 51,
      "start": 3.8217,
      "duration": 0.2361,
      "velocity": 94,
      "chip": "ym2612"
    },
    {
      "channel": 1,
      "note": 80,
      "start": 4.0911,
      "duration": 0.0047,
      "velocity": 97,
      "chip": "ym2612"
    },
    {
      "channel": 2,
      "note": 77,
      "start": 4.0913,
      "duration": 0.0047,
      "velocity": 97,
      "chip": "ym2612"
    },
    {
      "channel": 3,
      "note": 72,
      "start": 4.0916,
      "duration": 0.0045,
      "velocity": 97,
      "chip": "ym2612"
    },
    {
      "channel": 4,
      "note": 50,
      "start": 4.0918,
      "duration": 0.3354,
      "velocity": 94,
      "chip": "ym2612"
    },
    {
      "channel": 1,
      "note": 77,
      "start": 4.3607,
      "duration": 0.0853,
      "velocity": 97,
      "chip": "ym2612"
    },
    {
      "channel": 2,
      "note": 72,
      "start": 4.3609,
      "duration": 0.0852,
      "velocity": 97,
      "chip": "ym2612"
    },
    {
      "channel": 3,
      "note": 68,
      "start": 4.3612,
      "duration": 0.085,
      "velocity": 97,
      "chip": "ym2612"
    },
    {
      "channel": 4,
      "note": 52,
      "start": 4.4439,
      "duration": 0.0586,
      "velocity": 94,
      "chip": "ym2612"
    },
    {
      "channel": 4,
      "note": 53,
      "start": 4.5362,
      "duration": 0.4344,
      "velocity": 94,
      "chip": "ym2612"
    },
    {
      "channel": 1,
      "note": 77,
      "start": 4.7301,
      "duration": 0.0046,
      "velocity": 97,
      "chip": "ym2612"
    },
    {
      "channel": 2,
      "note": 72,
      "start": 4.7303,
      "duration": 0.0046,
      "velocity": 97,
      "chip": "ym2612"
    },
    {
      "channel": 3,
      "note": 68,
      "start": 4.7305,
      "duration": 0.0044,
      "velocity": 97,
      "chip": "ym2612"
    },
    {
      "channel": 0,
      "note": 84,
      "start": 4.7385,
      "duration": 0.1916,
      "velocity": 95,
      "chip": "ym2612"
    },
    {
      "channel": 0,
      "note": 89,
      "start": 4.9635,
      "duration": 0.0068,
      "velocity": 95,
      "chip": "ym2612"
    },
    {
      "channel": 1,
      "note": 77,
      "start": 4.9637,
      "duration": 0.0046,
      "velocity": 97,
      "chip": "ym2612"
    },
    {
      "channel": 2,
      "note": 72,
      "start": 4.964,
      "duration": 0.0045,
      "velocity": 97,
      "chip": "ym2612"
    },
    {
      "channel": 3,
      "note": 68,
      "start": 4.9642,
      "duration": 0.0043,
      "velocity": 97,
      "chip": "ym2612"
    },
    {
      "channel": 0,
      "note": 91,
      "start": 4.9725,
      "duration": 0.1441,
      "velocity": 95,
      "chip": "ym2612"
    },
    {
      "channel": 4,
      "note": 53,
      "start": 4.973,
      "duration": 0.236,
      "velocity": 94,
      "chip": "ym2612"
    },
    {
      "channel": 0,
      "note": 92,
      "start": 5.1501,
      "duration": 0.0586,
      "velocity": 95,
      "chip": "ym2612"
    },
    {
      "channel": 0,
      "note": 91,
      "start": 5.2422,
      "duration": 0.1441,
      "velocity": 95,
      "chip": "ym2612"
    },
    {
      "channel": 1,
      "note": 79,
      "start": 5.2424,
      "duration": 0.0048,
      "velocity": 97,
      "chip": "ym2612"
    },
    {
      "channel": 2,
      "note": 72,
      "start": 5.2427,
      "duration": 0.0047,
      "velocity": 97,
      "chip": "ym2612"
    },
    {
      "channel": 3,
      "note": 68,
      "start": 5.2429,
      "duration": 0.0045,
      "velocity": 97,
      "chip": "ym2612"
    },
    {
      "channel": 4,
      "note": 52,
      "start": 5.243,
      "duration": 0.4107,
      "velocity": 94,
      "chip": "ym2612"
    },
    {
      "channel": 0,
      "note": 89,
      "start": 5.4198,
      "duration": 0.0586,
      "velocity": 95,
      "chip": "ym2612"
    },
    {
      "channel": 0,
      "note": 84,
      "start": 5.5119,
      "duration": 0.0495,
      "velocity": 95,
      "chip": "ym2612"
    },
    {
      "channel": 1,
      "note": 77,
      "start": 5.5121,
      "duration": 0.0851,
      "velocity": 97,
      "chip": "ym2612"
    },
    {
      "channel": 2,
      "note": 72,
      "start": 5.5123,
      "duration": 0.085,
      "velocity": 97,
      "chip": "ym2612"
    },
    {
      "channel": 3,
      "note": 68,
      "start": 5.5125,
      "duration": 0.0849,
      "velocity": 97,
      "chip": "ym2612"
    },
    {
      "channel": 0,
      "note": 82,
      "start": 5.5949,
      "duration": 0.0586,
      "velocity": 95,
      "chip": "ym2612"
    },
    {
      "channel": 0,
      "note": 84,
      "start": 5.687,
      "duration": 0.1608,
      "velocity": 95,
      "chip": "ym2612"
    },
    {
      "channel": 4,
      "note": 51,
      "start": 5.6874,
      "duration": 0.4344,
      "velocity": 94,
      "chip": "ym2612"
    },
    {
      "channel": 1,
      "note": 77,
      "start": 5.8813,
      "duration": 0.0037,
      "velocity": 97,
      "chip": "ym2612"
    },
    {
      "channel": 2,
      "note": 72,
      "start": 5.8815,
      "duration": 0.0037,
      "velocity": 97,
      "chip": "ym2612"
    },
    {
      "channel": 3,
      "note": 68,
      "start": 5.8817,
      "duration": 0.0035,
      "velocity": 97,
      "chip": "ym2612"
    },
    {
      "channel": 0,
      "note": 84,
      "start": 5.8893,
      "duration": 0.192,
      "velocity": 95,
      "chip": "ym2612"
    },
    {
      "channel": 0,
      "note": 80,
      "start": 6.1148,
      "duration": 0.0068,
      "velocity": 95,
      "chip": "ym2612"
    },
    {
      "channel": 1,
      "note": 77,
      "start": 6.1149,
      "duration": 0.0046,
      "velocity": 97,
      "chip": "ym2612"
    },
    {
      "channel": 2,
      "note": 72,
      "start": 6.1152,
      "duration": 0.0045,
      "velocity": 97,
      "chip": "ym2612"
    },
    {
      "channel": 3,
      "note": 68,
      "start": 6.1154,
      "duration": 0.0043,
      "velocity": 97,
      "chip": "ym2612"
    },
    {
      "channel": 4,
      "note": 51,
      "start": 6.124,
      "duration": 0.2362,
      "velocity": 94,
      "chip": "ym2612"
    },
    {
      "channel": 0,
      "note": 77,
      "start": 6.3013,
      "duration": 0.0586,
      "velocity": 95,
      "chip": "ym2612"
    },
    {
      "channel": 0,
      "note": 79,
      "start": 6.3934,
      "duration": 0.2361,
      "velocity": 95,
      "chip": "ym2612"
    },
    {
      "channel": 1,
      "note": 80,
      "start": 6.3936,
      "duration": 0.0048,
      "velocity": 97,
      "chip": "ym2612"
    },
    {
      "channel": 2,
      "note": 77,
      "start": 6.3938,
      "duration": 0.0047,
      "velocity": 97,
      "chip": "ym2612"
    },
    {
      "channel": 3,
      "note": 72,
      "start": 6.394,
      "duration": 0.0045,
      "velocity": 97,
      "chip": "ym2612"
    },
    {
      "channel": 4,
      "note": 50,
      "start": 6.3942,
      "duration": 0.3185,
      "velocity": 94,
      "chip": "ym2612"
    },
    {
      "channel": 0,
      "note": 80,
      "start": 6.663,
      "duration": 0.1416,
      "velocity": 95,
      "chip": "ym2612"
    },
    {
      "channel": 1,
      "note": 77,
      "start": 6.6632,
      "duration": 0.0851,
      "velocity": 97,
      "chip": "ym2612"
    },
    {
      "channel": 2,
      "note": 72,
      "start": 6.6634,
      "duration": 0.085,
      "velocity": 97,
      "chip": "ym2612"
    },
    {
      "channel": 3,
      "note": 68,
      "start": 6.6636,
      "duration": 0.0849,
      "velocity": 97,
      "chip": "ym2612"
    },
    {
      "channel": 4,
      "note": 52,
      "start": 6.7462,
      "duration": 0.0586,
      "velocity": 94,
      "chip": "ym2612"
    },
    {
      "channel": 0,
      "note": 82,
      "start": 6.8381,
      "duration": 0.0274,
      "velocity": 95,
      "chip": "ym2612"
    },
    {
      "channel": 4,
      "note": 53,
      "start": 6.8386,
      "duration": 0.4334,
      "velocity": 94,
      "chip": "ym2612"
    },
    {
      "channel": 0,
      "note": 84,
      "start": 6.899,
      "duration": 0.0999,
      "velocity": 95,
      "chip": "ym2612"
    },
    {
      "channel": 0,
      "note": 82,
      "start": 7.0323,
      "duration": 0.006,
      "velocity": 95,
      "chip": "ym2612"
    },
    {
      "channel": 1,
      "note": 77,
      "start": 7.0325,
      "duration": 0.0038,
      "velocity": 97,
      "chip": "ym2612"
    },
    {
      "channel": 2,
      "note": 72,
      "start": 7.0328,
      "duration": 0.0037,
      "velocity": 97,
      "chip": "ym2612"
    },
    {
      "channel": 3,
      "note": 68,
      "start": 7.033,
      "duration": 0.0035,
      "velocity": 97,
      "chip": "ym2612"
    },
    {
      "channel": 0,
      "note": 77,
      "start": 7.0405,
      "duration": 0.4863,
      "velocity": 95,
      "chip": "ym2612"
    },
    {
      "channel": 1,
      "note": 77,
      "start": 7.266,
      "duration": 0.0046,
      "velocity": 97,
      "chip": "ym2612"
    },
    {
      "channel": 2,
      "note": 72,
      "start": 7.2662,
      "duration": 0.0045,
      "velocity": 97,
      "chip": "ym2612"
    },
    {
      "channel": 3,
      "note": 68,
      "start": 7.2664,
      "duration": 0.0043,
      "velocity": 97,
      "chip": "ym2612"
    },
    {
      "channel": 4,
      "note": 53,
      "start": 7.2742,
      "duration": 0.2527,
      "velocity": 94,
      "chip": "ym2612"
    },
    {
      "channel": 1,
      "note": 79,
      "start": 7.5603,
      "duration": 0.0039,
      "velocity": 97,
      "chip": "ym2612"
    },
    {
      "channel": 2,
      "note": 72,
      "start": 7.5605,
      "duration": 0.0039,
      "velocity": 97,
      "chip": "ym2612"
    },
    {
      "channel": 3,
      "note": 68,
      "start": 7.5607,
      "duration": 0.0037,
      "velocity": 97,
      "chip": "ym2612"
    },
    {
      "channel": 4,
      "note": 52,
      "start": 7.5609,
      "duration": 0.4109,
      "velocity": 94,
      "chip": "ym2612"
    },
    {
      "channel": 0,
      "note": 76,
      "start": 7.6044,
      "duration": 0.0999,
      "velocity": 95,
      "chip": "ym2612"
    },
    {
      "channel": 0,
      "note": 77,
      "start": 7.7378,
      "duration": 0.0586,
      "velocity": 95,
      "chip": "ym2612"
    },
    {
      "channel": 0,
      "note": 79,
      "start": 7.8299,
      "duration": 0.0068,
      "velocity": 95,
      "chip": "ym2612"
    },
    {
      "channel": 1,
      "note": 77,
      "start": 7.8301,
      "duration": 0.0851,
      "velocity": 97,
      "chip": "ym2612"
    },
    {
      "channel": 2,
      "note": 72,
      "start": 7.8303,
      "duration": 0.085,
      "velocity": 97,
      "chip": "ym2612"
    },
    {
      "channel": 3,
      "note": 68,
      "start": 7.8305,
      "duration": 0.0849,
      "velocity": 97,
      "chip": "ym2612"
    },
    {
      "channel": 0,
      "note": 80,
      "start": 7.8389,
      "duration": 0.0405,
      "velocity": 95,
      "chip": "ym2612"
    },
    {
      "channel": 0,
      "note": 82,
      "start": 7.9129,
      "duration": 0.0586,
      "velocity": 95,
      "chip": "ym2612"
    },
    {
      "channel": 0,
      "note": 83,
      "start": 8.005,
      "duration": 0.0274,
      "velocity": 95,
      "chip": "ym2612"
    },
    {
      "channel": 4,
      "note": 51,
      "start": 8.0054,
      "duration": 0.4176,
      "velocity": 94,
      "chip": "ym2612"
    },
    {
      "channel": 0,
      "note": 84,
      "start": 8.0659,
      "duration": 0.0999,
      "velocity": 95,
      "chip": "ym2612"
    },
    {
      "channel": 0,
      "note": 89,
      "start": 8.1826,
      "duration": 0.0068,
      "velocity": 95,
      "chip": "ym2612"
    },
    {
      "channel": 1,
      "note": 77,
      "start": 8.1827,
      "duration": 0.0046,
      "velocity": 97,
      "chip": "ym2612"
    },
    {
      "channel": 2,
      "note": 72,
      "start": 8.183,
      "duration": 0.0045,
      "velocity": 97,
      "chip": "ym2612"
    },
    {
      "channel": 3,
      "note": 68,
      "start": 8.1832,
      "duration": 0.0043,
      "velocity": 97,
      "chip": "ym2612"
    },
    {
      "channel": 0,
      "note": 91,
      "start": 8.1916,
      "duration": 0.0584,
      "velocity": 95,
      "chip": "ym2612"
    },
    {
      "channel": 0,
      "note": 92,
      "start": 8.2834,
      "duration": 0.0999,
      "velocity": 95,
      "chip": "ym2612"
    },
    {
      "channel": 0,
      "note": 91,
      "start": 8.4168,
      "duration": 0.006,
      "velocity": 95,
      "chip": "ym2612"
    },
    {
      "channel": 1,
      "note": 77,
      "start": 8.4169,
      "duration": 0.0038,
      "velocity": 97,
      "chip": "ym2612"
    },
    {
      "channel": 2,
      "note": 72,
      "start": 8.4172,
      "duration": 0.0037,
      "velocity": 97,
      "chip": "ym2612"
    },
    {
      "channel": 3,
      "note": 68,
      "start": 8.4174,
      "duration": 0.0035,
      "velocity": 97,
      "chip": "ym2612"
    },
    {
      "channel": 0,
      "note": 89,
      "start": 8.4249,
      "duration": 0.0274,
      "velocity": 95,
      "chip": "ym2612"
    },
    {
      "channel": 4,
      "note": 51,
      "start": 8.4254,
      "duration": 0.2527,
      "velocity": 94,
      "chip": "ym2612"
    },
    {
      "channel": 0,
      "note": 84,
      "start": 8.4858,
      "duration": 0.0999,
      "velocity": 95,
      "chip": "ym2612"
    },
    {
      "channel": 0,
      "note": 82,
      "start": 8.6192,
      "duration": 0.0586,
      "velocity": 95,
      "chip": "ym2612"
    },
    {
      "channel": 0,
      "note": 84,
      "start": 8.7113,
      "duration": 0.0107,
      "velocity": 95,
      "chip": "ym2612"
    },
    {
      "channel": 1,
      "note": 80,
      "start": 8.7115,
      "duration": 0.0039,
      "velocity": 97,
      "chip": "ym2612"
    },
    {
      "channel": 2,
      "note": 77,
      "start": 8.7117,
      "duration": 0.0038,
      "velocity": 97,
      "chip": "ym2612"
    },
    {
      "channel": 3,
      "note": 72,
      "start": 8.7119,
      "duration": 0.0037,
      "velocity": 97,
      "chip": "ym2612"
    },
    {
      "channel": 4,
      "note": 50,
      "start": 8.7121,
      "duration": 0.3186,
      "velocity": 94,
      "chip": "ym2612"
    },
    {
      "channel": 0,
      "note": 80,
      "start": 8.7555,
      "duration": 0.0999,
      "velocity": 95,
      "chip": "ym2612"
    },
    {
      "channel": 0,
      "note": 79,
      "start": 8.8888,
      "duration": 0.0586,
      "velocity": 95,
      "chip": "ym2612"
    },
    {
      "channel": 0,
      "note": 77,
      "start": 8.9809,
      "duration": 0.01,
      "velocity": 95,
      "chip": "ym2612"
    },
    {
      "channel": 1,
      "note": 77,
      "start": 8.9811,
      "duration": 0.0851,
      "velocity": 97,
      "chip": "ym2612"
    },
    {
      "channel": 2,
      "note": 72,
      "start": 8.9814,
      "duration": 0.085,
      "velocity": 97,
      "chip": "ym2612"
    },
    {
      "channel": 3,
      "note": 68,
      "start": 8.9816,
      "duration": 0.0849,
      "velocity": 97,
      "chip": "ym2612"
    },
    {
      "channel": 4,
      "note": 52,
      "start": 9.0642,
      "duration": 0.0586,
      "velocity": 94,
      "chip": "ym2612"
    },
    {
      "channel": 4,
      "note": 53,
      "start": 9.1564,
      "duration": 0.4178,
      "velocity": 94,
      "chip": "ym2612"
    },
    {
      "channel": 1,
      "note": 77,
      "start": 9.3336,
      "duration": 0.0046,
      "velocity": 97,
      "chip": "ym2612"
    },
    {
      "channel": 2,
      "note": 72,
      "start": 9.3338,
      "duration": 0.0046,
      "velocity": 97,
      "chip": "ym2612"
    },
    {
      "channel": 3,
      "note": 68,
      "start": 9.3341,
      "duration": 0.0044,
      "velocity": 97,
      "chip": "ym2612"
    },
    {
      "channel": 0,
      "note": 84,
      "start": 9.3425,
      "duration": 0.192,
      "velocity": 95,
      "chip": "ym2612"
    },
    {
      "channel": 0,
      "note": 89,
      "start": 9.568,
      "duration": 0.006,
      "velocity": 95,
      "chip": "ym2612"
    },
    {
      "channel": 1,
      "note": 77,
      "start": 9.5682,
      "duration": 0.0038,
      "velocity": 97,
      "chip": "ym2612"
    },
    {
      "channel": 2,
      "note": 72,
      "start": 9.5684,
      "duration": 0.0037,
      "velocity": 97,
      "chip": "ym2612"
    },
    {
      "channel": 3,
      "note": 68,
      "start": 9.5686,
      "duration": 0.0035,
      "velocity": 97,
      "chip": "ym2612"
    },
    {
      "channel": 0,
      "note": 91,
      "start": 9.5762,
      "duration": 0.1605,
      "velocity": 95,
      "chip": "ym2612"
    },
    {
      "channel": 4,
      "note": 53,
      "start": 9.5766,
      "duration": 0.2524,
      "velocity": 94,
      "chip": "ym2612"
    },
    {
      "channel": 0,
      "note": 92,
      "start": 9.7702,
      "duration": 0.0586,
      "velocity": 95,
      "chip": "ym2612"
    },
    {
      "channel": 0,
      "note": 94,
      "start": 9.8456,
      "duration": 0.1607,
      "velocity": 95,
      "chip": "ym2612"
    },
    {
      "channel": 1,
      "note": 79,
      "start": 9.8458,
      "duration": 0.0048,
      "velocity": 97,
      "chip": "ym2612"
    },
    {
      "channel": 2,
      "note": 72,
      "start": 9.8461,
      "duration": 0.0047,
      "velocity": 97,
      "chip": "ym2612"
    },
    {
      "channel": 3,
      "note": 68,
      "start": 9.8463,
      "duration": 0.0045,
      "velocity": 97,
      "chip": "ym2612"
    },
    {
      "channel": 4,
      "note": 52,
      "start": 9.8465,
      "duration": 0.4274,
      "velocity": 94,
      "chip": "ym2612"
    },
    {
      "channel": 0,
      "note": 92,
      "start": 10.0399,
      "duration": 0.0586,
      "velocity": 95,
      "chip": "ym2612"
    },
    {
      "channel": 0,
      "note": 91,
      "start": 10.132,
      "duration": 0.0495,
      "velocity": 95,
      "chip": "ym2612"
    },
    {
      "channel": 1,
      "note": 77,
      "start": 10.1322,
      "duration": 0.0851,
      "velocity": 97,
      "chip": "ym2612"
    },
    {
      "channel": 2,
      "note": 72,
      "start": 10.1324,
      "duration": 0.085,
      "velocity": 97,
      "chip": "ym2612"
    },
    {
      "channel": 3,
      "note": 68,
      "start": 10.1326,
      "duration": 0.0849,
      "velocity": 97,
      "chip": "ym2612"
    },
    {
      "channel": 0,
      "note": 92,
      "start": 10.215,
      "duration": 0.0586,
      "velocity": 95,
      "chip": "ym2612"
    },
    {
      "channel": 0,
      "note": 91,
      "start": 10.3071,
      "duration": 0.1441,
      "velocity": 95,
      "chip": "ym2612"
    },
    {
      "channel": 4,
      "note": 51,
      "start": 10.3075,
      "duration": 0.4018,
      "velocity": 94,
      "chip": "ym2612"
    },
    {
      "channel": 0,
      "note": 89,
      "start": 10.4846,
      "duration": 0.0068,
      "velocity": 95,
      "chip": "ym2612"
    },
    {
      "channel": 1,
      "note": 77,
      "start": 10.4848,
      "duration": 0.0046,
      "velocity": 97,
      "chip": "ym2612"
    },
    {
      "channel": 2,
      "note": 72,
      "start": 10.4851,
      "duration": 0.0045,
      "velocity": 97,
      "chip": "ym2612"
    },
    {
      "channel": 3,
      "note": 68,
      "start": 10.4853,
      "duration": 0.0043,
      "velocity": 97,
      "chip": "ym2612"
    },
    {
      "channel": 0,
      "note": 84,
      "start": 10.7022,
      "duration": 0.0068,
      "velocity": 95,
      "chip": "ym2612"
    },
    {
      "channel": 1,
      "note": 77,
      "start": 10.7024,
      "duration": 0.0046,
      "velocity": 97,
      "chip": "ym2612"
    },
    {
      "channel": 2,
      "note": 72,
      "start": 10.7027,
      "duration": 0.0045,
      "velocity": 97,
      "chip": "ym2612"
    },
    {
      "channel": 3,
      "note": 68,
      "start": 10.7029,
      "duration": 0.0043,
      "velocity": 97,
      "chip": "ym2612"
    },
    {
      "channel": 0,
      "note": 82,
      "start": 10.7112,
      "duration": 0.1608,
      "velocity": 95,
      "chip": "ym2612"
    },
    {
      "channel": 4,
      "note": 51,
      "start": 10.7117,
      "duration": 0.236,
      "velocity": 94,
      "chip": "ym2612"
    },
    {
      "channel": 0,
      "note": 80,
      "start": 10.9055,
      "duration": 0.042,
      "velocity": 95,
      "chip": "ym2612"
    },
    {
      "channel": 0,
      "note": 79,
      "start": 10.9809,
      "duration": 0.2529,
      "velocity": 95,
      "chip": "ym2612"
    },
    {
      "channel": 1,
      "note": 80,
      "start": 10.9811,
      "duration": 0.0048,
      "velocity": 97,
      "chip": "ym2612"
    },
    {
      "channel": 2,
      "note": 77,
      "start": 10.9814,
      "duration": 0.0047,
      "velocity": 97,
      "chip": "ym2612"
    },
    {
      "channel": 3,
      "note": 72,
      "start": 10.9816,
      "duration": 0.0045,
      "velocity": 97,
      "chip": "ym2612"
    },
    {
      "channel": 4,
      "note": 50,
      "start": 10.9817,
      "duration": 0.3353,
      "velocity": 94,
      "chip": "ym2612"
    },
    {
      "channel": 0,
      "note": 80,
      "start": 11.2673,
      "duration": 0.1416,
      "velocity": 95,
      "chip": "ym2612"
    },
    {
      "channel": 1,
      "note": 77,
      "start": 11.2674,
      "duration": 0.0851,
      "velocity": 97,
      "chip": "ym2612"
    },
    {
      "channel": 2,
      "note": 72,
      "start": 11.2677,
      "duration": 0.085,
      "velocity": 97,
      "chip": "ym2612"
    },
    {
      "channel": 3,
      "note": 68,
      "start": 11.2679,
      "duration": 0.0849,
      "velocity": 97,
      "chip": "ym2612"
    },
    {
      "channel": 4,
      "note": 52,
      "start": 11.3505,
      "duration": 0.0586,
      "velocity": 94,
      "chip": "ym2612"
    },
    {
      "channel": 0,
      "note": 82,
      "start": 11.4423,
      "duration": 0.0274,
      "velocity": 95,
      "chip": "ym2612"
    },
    {
      "channel": 4,
      "note": 53,
      "start": 11.4428,
      "duration": 0.4015,
      "velocity": 94,
      "chip": "ym2612"
    },
    {
      "channel": 0,
      "note": 84,
      "start": 11.4866,
      "duration": 0.0999,
      "velocity": 95,
      "chip": "ym2612"
    },
    {
      "channel": 0,
      "note": 85,
      "start": 11.6199,
      "duration": 0.0068,
      "velocity": 95,
      "chip": "ym2612"
    },
    {
      "channel": 1,
      "note": 77,
      "start": 11.6201,
      "duration": 0.0046,
      "velocity": 97,
      "chip": "ym2612"
    },
    {
      "channel": 2,
      "note": 72,
      "start": 11.6203,
      "duration": 0.0045,
      "velocity": 97,
      "chip": "ym2612"
    },
    {
      "channel": 3,
      "note": 68,
      "start": 11.6205,
      "duration": 0.0043,
      "velocity": 97,
      "chip": "ym2612"
    },
    {
      "channel": 0,
      "note": 84,
      "start": 11.6289,
      "duration": 0.4537,
      "velocity": 95,
      "chip": "ym2612"
    },
    {
      "channel": 1,
      "note": 77,
      "start": 11.8375,
      "duration": 0.0046,
      "velocity": 97,
      "chip": "ym2612"
    },
    {
      "channel": 2,
      "note": 72,
      "start": 11.8377,
      "duration": 0.0045,
      "velocity": 97,
      "chip": "ym2612"
    },
    {
      "channel": 3,
      "note": 68,
      "start": 11.8379,
      "duration": 0.0043,
      "velocity": 97,
      "chip": "ym2612"
    },
    {
      "channel": 4,
      "note": 53,
      "start": 11.8466,
      "duration": 0.2362,
      "velocity": 94,
      "chip": "ym2612"
    },
    {
      "channel": 1,
      "note": 79,
      "start": 12.1161,
      "duration": 0.0047,
      "velocity": 97,
      "chip": "ym2612"
    },
    {
      "channel": 2,
      "note": 72,
      "start": 12.1163,
      "duration": 0.0047,
      "velocity": 97,
      "chip": "ym2612"
    },
    {
      "channel": 3,
      "note": 68,
      "start": 12.1166,
      "duration": 0.0045,
      "velocity": 97,
      "chip": "ym2612"
    },
    {
      "channel": 4,
      "note": 52,
      "start": 12.1168,
      "duration": 0.4275,
      "velocity": 94,
      "chip": "ym2612"
    },
    {
      "channel": 0,
      "note": 88,
      "start": 12.177,
      "duration": 0.0999,
      "velocity": 95,
      "chip": "ym2612"
    },
    {
      "channel": 0,
      "note": 89,
      "start": 12.3103,
      "duration": 0.0586,
      "velocity": 95,
      "chip": "ym2612"
    },
    {
      "channel": 0,
      "note": 91,
      "start": 12.4024,
      "duration": 0.006,
      "velocity": 95,
      "chip": "ym2612"
    },
    {
      "channel": 1,
      "note": 77,
      "start": 12.4026,
      "duration": 0.0851,
      "velocity": 97,
      "chip": "ym2612"
    },
    {
      "channel": 2,
      "note": 72,
      "start": 12.4028,
      "duration": 0.085,
      "velocity": 97,
      "chip": "ym2612"
    },
    {
      "channel": 3,
      "note": 68,
      "start": 12.403,
      "duration": 0.0849,
      "velocity": 97,
      "chip": "ym2612"
    },
    {
      "channel": 0,
      "note": 92,
      "start": 12.4105,
      "duration": 0.0414,
      "velocity": 95,
      "chip": "ym2612"
    },
    {
      "channel": 0,
      "note": 91,
      "start": 12.4854,
      "duration": 0.0586,
      "velocity": 95,
      "chip": "ym2612"
    },
    {
      "channel": 0,
      "note": 92,
      "start": 12.5775,
      "duration": 0.0108,
      "velocity": 95,
      "chip": "ym2612"
    },
    {
      "channel": 4,
      "note": 51,
      "start": 12.5779,
      "duration": 0.4017,
      "velocity": 94,
      "chip": "ym2612"
    },
    {
      "channel": 0,
      "note": 94,
      "start": 12.6217,
      "duration": 0.0999,
      "velocity": 95,
      "chip": "ym2612"
    },
    {
      "channel": 0,
      "note": 92,
      "start": 12.7551,
      "duration": 0.0068,
      "velocity": 95,
      "chip": "ym2612"
    },
    {
      "channel": 1,
      "note": 77,
      "start": 12.7553,
      "duration": 0.0046,
      "velocity": 97,
      "chip": "ym2612"
    },
    {
      "channel": 2,
      "note": 72,
      "start": 12.7555,
      "duration": 0.0045,
      "velocity": 97,
      "chip": "ym2612"
    },
    {
      "channel": 3,
      "note": 68,
      "start": 12.7557,
      "duration": 0.0043,
      "velocity": 97,
      "chip": "ym2612"
    },
    {
      "channel": 0,
      "note": 91,
      "start": 12.7641,
      "duration": 0.0584,
      "velocity": 95,
      "chip": "ym2612"
    },
    {
      "channel": 0,
      "note": 89,
      "start": 12.8559,
      "duration": 0.0832,
      "velocity": 95,
      "chip": "ym2612"
    },
    {
      "channel": 0,
      "note": 84,
      "start": 12.9726,
      "duration": 0.0068,
      "velocity": 95,
      "chip": "ym2612"
    },
    {
      "channel": 1,
      "note": 77,
      "start": 12.9728,
      "duration": 0.0046,
      "velocity": 97,
      "chip": "ym2612"
    },
    {
      "channel": 2,
      "note": 72,
      "start": 12.973,
      "duration": 0.0045,
      "velocity": 97,
      "chip": "ym2612"
    },
    {
      "channel": 3,
      "note": 68,
      "start": 12.9732,
      "duration": 0.0043,
      "velocity": 97,
      "chip": "ym2612"
    },
    {
      "channel": 0,
      "note": 82,
      "start": 12.9816,
      "duration": 0.0274,
      "velocity": 95,
      "chip": "ym2612"
    },
    {
      "channel": 4,
      "note": 51,
      "start": 12.9821,
      "duration": 0.2361,
      "velocity": 94,
      "chip": "ym2612"
    },
    {
      "channel": 0,
      "note": 84,
      "start": 13.0425,
      "duration": 0.0999,
      "velocity": 95,
      "chip": "ym2612"
    },
    {
      "channel": 0,
      "note": 82,
      "start": 13.1759,
      "duration": 0.042,
      "velocity": 95,
      "chip": "ym2612"
    },
    {
      "channel": 0,
      "note": 80,
      "start": 13.2513,
      "duration": 0.0274,
      "velocity": 95,
      "chip": "ym2612"
    },
    {
      "channel": 1,
      "note": 80,
      "start": 13.2515,
      "duration": 0.0048,
      "velocity": 97,
      "chip": "ym2612"
    },
    {
      "channel": 2,
      "note": 77,
      "start": 13.2518,
      "duration": 0.0047,
      "velocity": 97,
      "chip": "ym2612"
    },
    {
      "channel": 3,
      "note": 72,
      "start": 13.252,
      "duration": 0.0045,
      "velocity": 97,
      "chip": "ym2612"
    },
    {
      "channel": 4,
      "note": 50,
      "start": 13.2522,
      "duration": 0.3353,
      "velocity": 94,
      "chip": "ym2612"
    },
    {
      "channel": 0,
      "note": 79,
      "start": 13.3122,
      "duration": 0.0999,
      "velocity": 95,
      "chip": "ym2612"
    },
    {
      "channel": 0,
      "note": 77,
      "start": 13.4456,
      "duration": 0.0586,
      "velocity": 95,
      "chip": "ym2612"
    },
    {
      "channel": 0,
      "note": 72,
      "start": 13.521,
      "duration": 0.0108,
      "velocity": 95,
      "chip": "ym2612"
    },
    {
      "channel": 1,
      "note": 77,
      "start": 13.5212,
      "duration": 0.1018,
      "velocity": 97,
      "chip": "ym2612"
    },
    {
      "channel": 2,
      "note": 72,
      "start": 13.5214,
      "duration": 0.1017,
      "velocity": 97,
      "chip": "ym2612"
    },
    {
      "channel": 3,
      "note": 68,
      "start": 13.5216,
      "duration": 0.1015,
      "velocity": 97,
      "chip": "ym2612"
    },
    {
      "channel": 4,
      "note": 52,
      "start": 13.6209,
      "duration": 0.0586,
      "velocity": 94,
      "chip": "ym2612"
    },
    {
      "channel": 0,
      "note": 77,
      "start": 13.7132,
      "duration": 0.4015,
      "velocity": 97,
      "chip": "ym2612"
    },
    {
      "channel": 4,
      "note": 49,
      "start": 13.7137,
      "duration": 0.4012,
      "velocity": 94,
      "chip": "ym2612"
    },
    {
      "channel": 1,
      "note": 77,
      "start": 13.8904,
      "duration": 0.0046,
      "velocity": 97,
      "chip": "ym2612"
    },
    {
      "channel": 2,
      "note": 72,
      "start": 13.8905,
      "duration": 0.0046,
      "velocity": 97,
      "chip": "ym2612"
    },
    {
      "channel": 3,
      "note": 68,
      "start": 13.8908,
      "duration": 0.0044,
      "velocity": 97,
      "chip": "ym2612"
    },
    {
      "channel": 1,
      "note": 77,
      "start": 14.1081,
      "duration": 0.0046,
      "velocity": 97,
      "chip": "ym2612"
    },
    {
      "channel": 2,
      "note": 72,
      "start": 14.1083,
      "duration": 0.0046,
      "velocity": 97,
      "chip": "ym2612"
    },
    {
      "channel": 3,
      "note": 68,
      "start": 14.1085,
      "duration": 0.0044,
      "velocity": 97,
      "chip": "ym2612"
    },
    {
      "channel": 0,
      "note": 76,
      "start": 14.117,
      "duration": 0.1608,
      "velocity": 97,
      "chip": "ym2612"
    },
    {
      "channel": 4,
      "note": 49,
      "start": 14.1174,
      "duration": 0.236,
      "velocity": 94,
      "chip": "ym2612"
    },
    {
      "channel": 0,
      "note": 77,
      "start": 14.2946,
      "duration": 0.0586,
      "velocity": 97,
      "chip": "ym2612"
    },
    {
      "channel": 0,
      "note": 79,
      "start": 14.3867,
      "duration": 0.1608,
      "velocity": 97,
      "chip": "ym2612"
    },
    {
      "channel": 1,
      "note": 79,
      "start": 14.3869,
      "duration": 0.0047,
      "velocity": 97,
      "chip": "ym2612"
    },
    {
      "channel": 2,
      "note": 75,
      "start": 14.3871,
      "duration": 0.0047,
      "velocity": 97,
      "chip": "ym2612"
    },
    {
      "channel": 3,
      "note": 70,
      "start": 14.3873,
      "duration": 0.0045,
      "velocity": 97,
      "chip": "ym2612"
    },
    {
      "channel": 4,
      "note": 49,
      "start": 14.3876,
      "duration": 0.4273,
      "velocity": 94,
      "chip": "ym2612"
    },
    {
      "channel": 0,
      "note": 80,
      "start": 14.5809,
      "duration": 0.042,
      "velocity": 97,
      "chip": "ym2612"
    },
    {
      "channel": 1,
      "note": 79,
      "start": 14.6564,
      "duration": 0.1019,
      "velocity": 97,
      "chip": "ym2612"
    },
    {
      "channel": 2,
      "note": 75,
      "start": 14.6566,
      "duration": 0.1019,
      "velocity": 97,
      "chip": "ym2612"
    },
    {
      "channel": 3,
      "note": 70,
      "start": 14.6568,
      "duration": 0.1017,
      "velocity": 97,
      "chip": "ym2612"
    },
    {
      "channel": 0,
      "note": 82,
      "start": 14.756,
      "duration": 0.0586,
      "velocity": 97,
      "chip": "ym2612"
    },
    {
      "channel": 0,
      "note": 75,
      "start": 14.8481,
      "duration": 0.0775,
      "velocity": 97,
      "chip": "ym2612"
    },
    {
      "channel": 4,
      "note": 48,
      "start": 14.8485,
      "duration": 0.4018,
      "velocity": 94,
      "chip": "ym2612"
    },
    {
      "channel": 1,
      "note": 79,
      "start": 15.0258,
      "duration": 0.0046,
      "velocity": 97,
      "chip": "ym2612"
    },
    {
      "channel": 2,
      "note": 75,
      "start": 15.0259,
      "duration": 0.0046,
      "velocity": 97,
      "chip": "ym2612"
    },
    {
      "channel": 3,
      "note": 70,
      "start": 15.0262,
      "duration": 0.0044,
      "velocity": 97,
      "chip": "ym2612"
    },
    {
      "channel": 0,
      "note": 85,
      "start": 15.0346,
      "duration": 0.4541,
      "velocity": 97,
      "chip": "ym2612"
    },
    {
      "channel": 1,
      "note": 79,
      "start": 15.2435,
      "duration": 0.0046,
      "velocity": 97,
      "chip": "ym2612"
    },
    {
      "channel": 2,
      "note": 75,
      "start": 15.2437,
      "duration": 0.0046,
      "velocity": 97,
      "chip": "ym2612"
    },
    {
      "channel": 3,
      "note": 70,
      "start": 15.2439,
      "duration": 0.0044,
      "velocity": 97,
      "chip": "ym2612"
    },
    {
      "channel": 4,
      "note": 48,
      "start": 15.2527,
      "duration": 0.2362,
      "velocity": 94,
      "chip": "ym2612"
    },
    {
      "channel": 0,
      "note": 85,
      "start": 15.5221,
      "duration": 0.0609,
      "velocity": 97,
      "chip": "ym2612"
    },
    {
      "channel": 1,
      "note": 79,
      "start": 15.5224,
      "duration": 0.0047,
      "velocity": 97,
      "chip": "ym2612"
    },
    {
      "channel": 2,
      "note": 75,
      "start": 15.5226,
      "duration": 0.0047,
      "velocity": 97,
      "chip": "ym2612"
    },
    {
      "channel": 3,
      "note": 69,
      "start": 15.5228,
      "duration": 0.0045,
      "velocity": 97,
      "chip": "ym2612"
    },
    {
      "channel": 4,
      "note": 53,
      "start": 15.523,
      "duration": 0.3352,
      "velocity": 94,
      "chip": "ym2612"
    },
    {
      "channel": 0,
      "note": 84,
      "start": 15.583,
      "duration": 0.1333,
      "velocity": 97,
      "chip": "ym2612"
    },
    {
      "channel": 0,
      "note": 82,
      "start": 15.7163,
      "duration": 0.0754,
      "velocity": 97,
      "chip": "ym2612"
    },
    {
      "channel": 0,
      "note": 81,
      "start": 15.7918,
      "duration": 0.009,
      "velocity": 97,
      "chip": "ym2612"
    },
    {
      "channel": 1,
      "note": 79,
      "start": 15.792,
      "duration": 0.1019,
      "velocity": 97,
      "chip": "ym2612"
    },
    {
      "channel": 2,
      "note": 75,
      "start": 15.7922,
      "duration": 0.1018,
      "velocity": 97,
      "chip": "ym2612"
    },
    {
      "channel": 3,
      "note": 69,
      "start": 15.7924,
      "duration": 0.1017,
      "velocity": 97,
      "chip": "ym2612"
    },
    {
      "channel": 0,
      "note": 82,
      "start": 15.8008,
      "duration": 0.0907,
      "velocity": 97,
      "chip": "ym2612"
    },
    {
      "channel": 0,
      "note": 84,
      "start": 15.8915,
      "duration": 0.0586,
      "velocity": 97,
      "chip": "ym2612"
    },
    {
      "channel": 4,
      "note": 45,
      "start": 15.8918,
      "duration": 0.0585,
      "velocity": 94,
      "chip": "ym2612"
    },
    {
      "channel": 0,
      "note": 84,
      "start": 15.9668,
      "duration": 0.1942,
      "velocity": 97,
      "chip": "ym2612"
    },
    {
      "channel": 4,
      "note": 46,
      "start": 15.9673,
      "duration": 0.4185,
      "velocity": 94,
      "chip": "ym2612"
    },
    {
      "channel": 0,
      "note": 77,
      "start": 16.1611,
      "duration": 0.0068,
      "velocity": 97,
      "chip": "ym2612"
    },
    {
      "channel": 1,
      "note": 77,
      "start": 16.1613,
      "duration": 0.0046,
      "velocity": 97,
      "chip": "ym2612"
    },
    {
      "channel": 2,
      "note": 73,
      "start": 16.1615,
      "duration": 0.0045,
      "velocity": 97,
      "chip": "ym2612"
    },
    {
      "channel": 3,
      "note": 68,
      "start": 16.1617,
      "duration": 0.0043,
      "velocity": 97,
      "chip": "ym2612"
    },
    {
      "channel": 0,
      "note": 79,
      "start": 16.3787,
      "duration": 0.0068,
      "velocity": 97,
      "chip": "ym2612"
    },
    {
      "channel": 1,
      "note": 77,
      "start": 16.3789,
      "duration": 0.0045,
      "velocity": 97,
      "chip": "ym2612"
    },
    {
      "channel": 2,
      "note": 73,
      "start": 16.3791,
      "duration": 0.0045,
      "velocity": 97,
      "chip": "ym2612"
    },
    {
      "channel": 3,
      "note": 68,
      "start": 16.3793,
      "duration": 0.0043,
      "velocity": 97,
      "chip": "ym2612"
    },
    {
      "channel": 4,
      "note": 46,
      "start": 16.388,
      "duration": 0.2362,
      "velocity": 94,
      "chip": "ym2612"
    },
    {
      "channel": 0,
      "note": 80,
      "start": 16.5653,
      "duration": 0.0586,
      "velocity": 97,
      "chip": "ym2612"
    },
    {
      "channel": 0,
      "note": 82,
      "start": 16.6574,
      "duration": 0.2763,
      "velocity": 97,
      "chip": "ym2612"
    },
    {
      "channel": 1,
      "note": 76,
      "start": 16.6576,
      "duration": 0.0047,
      "velocity": 97,
      "chip": "ym2612"
    },
    {
      "channel": 2,
      "note": 73,
      "start": 16.6578,
      "duration": 0.0047,
      "velocity": 97,
      "chip": "ym2612"
    },
    {
      "channel": 3,
      "note": 67,
      "start": 16.658,
      "duration": 0.0045,
      "velocity": 97,
      "chip": "ym2612"
    },
    {
      "channel": 4,
      "note": 51,
      "start": 16.6583,
      "duration": 0.4107,
      "velocity": 94,
      "chip": "ym2612"
    },
    {
      "channel": 1,
      "note": 76,
      "start": 16.9271,
      "duration": 0.102,
      "velocity": 97,
      "chip": "ym2612"
    },
    {
      "channel": 2,
      "note": 73,
      "start": 16.9273,
      "duration": 0.1019,
      "velocity": 97,
      "chip": "ym2612"
    },
    {
      "channel": 3,
      "note": 67,
      "start": 16.9276,
      "duration": 0.1017,
      "velocity": 97,
      "chip": "ym2612"
    },
    {
      "channel": 0,
      "note": 84,
      "start": 16.9359,
      "duration": 0.0573,
      "velocity": 97,
      "chip": "ym2612"
    },
    {
      "channel": 0,
      "note": 85,
      "start": 17.0267,
      "duration": 0.042,
      "velocity": 97,
      "chip": "ym2612"
    },
    {
      "channel": 0,
      "note": 87,
      "start": 17.1022,
      "duration": 0.7181,
      "velocity": 97,
      "chip": "ym2612"
    },
    {
      "channel": 4,
      "note": 44,
      "start": 17.1026,
      "duration": 0.4185,
      "velocity": 94,
      "chip": "ym2612"
    },
    {
      "channel": 1,
      "note": 75,
      "start": 17.2965,
      "duration": 0.0046,
      "velocity": 97,
      "chip": "ym2612"
    },
    {
      "channel": 2,
      "note": 72,
      "start": 17.2967,
      "duration": 0.0046,
      "velocity": 97,
      "chip": "ym2612"
    },
    {
      "channel": 3,
      "note": 67,
      "start": 17.2969,
      "duration": 0.0044,
      "velocity": 97,
      "chip": "ym2612"
    },
    {
      "channel": 1,
      "note": 75,
      "start": 17.5142,
      "duration": 0.0046,
      "velocity": 97,
      "chip": "ym2612"
    },
    {
      "channel": 2,
      "note": 72,
      "start": 17.5144,
      "duration": 0.0046,
      "velocity": 97,
      "chip": "ym2612"
    },
    {
      "channel": 3,
      "note": 67,
      "start": 17.5146,
      "duration": 0.0044,
      "velocity": 97,
      "chip": "ym2612"
    },
    {
      "channel": 4,
      "note": 44,
      "start": 17.5234,
      "duration": 0.2362,
      "velocity": 94,
      "chip": "ym2612"
    },
    {
      "channel": 1,
      "note": 76,
      "start": 17.7929,
      "duration": 0.0047,
      "velocity": 97,
      "chip": "ym2612"
    },
    {
      "channel": 2,
      "note": 70,
      "start": 17.7931,
      "duration": 0.0047,
      "velocity": 97,
      "chip": "ym2612"
    },
    {
      "channel": 3,
      "note": 67,
      "start": 17.7933,
      "duration": 0.0045,
      "velocity": 97,
      "chip": "ym2612"
    },
    {
      "channel": 4,
      "note": 48,
      "start": 17.7935,
      "duration": 0.3354,
      "velocity": 94,
      "chip": "ym2612"
    },
    {
      "channel": 0,
      "note": 85,
      "start": 17.8537,
      "duration": 0.1167,
      "velocity": 97,
      "chip": "ym2612"
    },
    {
      "channel": 0,
      "note": 84,
      "start": 17.9704,
      "duration": 0.0921,
      "velocity": 97,
      "chip": "ym2612"
    },
    {
      "channel": 0,
      "note": 82,
      "start": 18.0625,
      "duration": 0.009,
      "velocity": 97,
      "chip": "ym2612"
    },
    {
      "channel": 1,
      "note": 76,
      "start": 18.0627,
      "duration": 0.1019,
      "velocity": 97,
      "chip": "ym2612"
    },
    {
      "channel": 2,
      "note": 70,
      "start": 18.0629,
      "duration": 0.1018,
      "velocity": 97,
      "chip": "ym2612"
    },
    {
      "channel": 3,
      "note": 67,
      "start": 18.0631,
      "duration": 0.1017,
      "velocity": 97,
      "chip": "ym2612"
    },
    {
      "channel": 0,
      "note": 84,
      "start": 18.0715,
      "duration": 0.0907,
      "velocity": 97,
      "chip": "ym2612"
    },
    {
      "channel": 0,
      "note": 79,
      "start": 18.1622,
      "duration": 0.0754,
      "velocity": 97,
      "chip": "ym2612"
    },
    {
      "channel": 4,
      "note": 50,
      "start": 18.1625,
      "duration": 0.0418,
      "velocity": 94,
      "chip": "ym2612"
    },
    {
      "channel": 0,
      "note": 77,
      "start": 18.2376,
      "duration": 0.421,
      "velocity": 97,
      "chip": "ym2612"
    },
    {
      "channel": 4,
      "note": 49,
      "start": 18.238,
      "duration": 0.4185,
      "velocity": 94,
      "chip": "ym2612"
    },
    {
      "channel": 1,
      "note": 77,
      "start": 18.4319,
      "duration": 0.0046,
      "velocity": 97,
      "chip": "ym2612"
    },
    {
      "channel": 2,
      "note": 72,
      "start": 18.4321,
      "duration": 0.0046,
      "velocity": 97,
      "chip": "ym2612"
    },
    {
      "channel": 3,
      "note": 68,
      "start": 18.4323,
      "duration": 0.0044,
      "velocity": 97,
      "chip": "ym2612"
    },
    {
      "channel": 1,
      "note": 77,
      "start": 18.6496,
      "duration": 0.0046,
      "velocity": 97,
      "chip": "ym2612"
    },
    {
      "channel": 2,
      "note": 72,
      "start": 18.6498,
      "duration": 0.0046,
      "velocity": 97,
      "chip": "ym2612"
    },
    {
      "channel": 3,
      "note": 68,
      "start": 18.65,
      "duration": 0.0044,
      "velocity": 97,
      "chip": "ym2612"
    },
    {
      "channel": 0,
      "note": 76,
      "start": 18.6585,
      "duration": 0.1441,
      "velocity": 97,
      "chip": "ym2612"
    },
    {
      "channel": 4,
      "note": 49,
      "start": 18.6589,
      "duration": 0.2361,
      "velocity": 94,
      "chip": "ym2612"
    },
    {
      "channel": 0,
      "note": 77,
      "start": 18.8361,
      "duration": 0.0586,
      "velocity": 97,
      "chip": "ym2612"
    },
    {
      "channel": 0,
      "note": 79,
      "start": 18.9282,
      "duration": 0.1441,
      "velocity": 97,
      "chip": "ym2612"
    },
    {
      "channel": 1,
      "note": 79,
      "start": 18.9285,
      "duration": 0.0047,
      "velocity": 97,
      "chip": "ym2612"
    },
    {
      "channel": 2,
      "note": 75,
      "start": 18.9286,
      "duration": 0.0047,
      "velocity": 97,
      "chip": "ym2612"
    },
    {
      "channel": 3,
      "note": 70,
      "start": 18.9288,
      "duration": 0.0045,
      "velocity": 97,
      "chip": "ym2612"
    },
    {
      "channel": 4,
      "note": 49,
      "start": 18.9291,
      "duration": 0.4107,
      "velocity": 94,
      "chip": "ym2612"
    },
    {
      "channel": 0,
      "note": 80,
      "start": 19.1058,
      "duration": 0.0586,
      "velocity": 97,
      "chip": "ym2612"
    },
    {
      "channel": 1,
      "note": 79,
      "start": 19.198,
      "duration": 0.101,
      "velocity": 97,
      "chip": "ym2612"
    },
    {
      "channel": 2,
      "note": 75,
      "start": 19.1981,
      "duration": 0.101,
      "velocity": 97,
      "chip": "ym2612"
    },
    {
      "channel": 3,
      "note": 70,
      "start": 19.1984,
      "duration": 0.1008,
      "velocity": 97,
      "chip": "ym2612"
    },
    {
      "channel": 0,
      "note": 82,
      "start": 19.2976,
      "duration": 0.042,
      "velocity": 97,
      "chip": "ym2612"
    },
    {
      "channel": 0,
      "note": 75,
      "start": 19.373,
      "duration": 0.0942,
      "velocity": 97,
      "chip": "ym2612"
    },
    {
      "channel": 4,
      "note": 48,
      "start": 19.3734,
      "duration": 0.4343,
      "velocity": 94,
      "chip": "ym2612"
    },
    {
      "channel": 1,
      "note": 79,
      "start": 19.5673,
      "duration": 0.0046,
      "velocity": 97,
      "chip": "ym2612"
    },
    {
      "channel": 2,
      "note": 75,
      "start": 19.5675,
      "duration": 0.0046,
      "velocity": 97,
      "chip": "ym2612"
    },
    {
      "channel": 3,
      "note": 70,
      "start": 19.5677,
      "duration": 0.0044,
      "velocity": 97,
      "chip": "ym2612"
    },
    {
      "channel": 0,
      "note": 85,
      "start": 19.5752,
      "duration": 0.4707,
      "velocity": 97,
      "chip": "ym2612"
    },
    {
      "channel": 1,
      "note": 79,
      "start": 19.8008,
      "duration": 0.0046,
      "velocity": 97,
      "chip": "ym2612"
    },
    {
      "channel": 2,
      "note": 75,
      "start": 19.801,
      "duration": 0.0046,
      "velocity": 97,
      "chip": "ym2612"
    },
    {
      "channel": 3,
      "note": 70,
      "start": 19.8012,
      "duration": 0.0044,
      "velocity": 97,
      "chip": "ym2612"
    },
    {
      "channel": 4,
      "note": 48,
      "start": 19.81,
      "duration": 0.2362,
      "velocity": 94,
      "chip": "ym2612"
    },
    {
      "channel": 0,
      "note": 85,
      "start": 20.0794,
      "duration": 0.0609,
      "velocity": 97,
      "chip": "ym2612"
    },
    {
      "channel": 1,
      "note": 79,
      "start": 20.0797,
      "duration": 0.0047,
      "velocity": 97,
      "chip": "ym2612"
    },
    {
      "channel": 2,
      "note": 75,
      "start": 20.0798,
      "duration": 0.0047,
      "velocity": 97,
      "chip": "ym2612"
    },
    {
      "channel": 3,
      "note": 69,
      "start": 20.08,
      "duration": 0.0045,
      "velocity": 97,
      "chip": "ym2612"
    },
    {
      "channel": 4,
      "note": 53,
      "start": 20.0803,
      "duration": 0.3352,
      "velocity": 94,
      "chip": "ym2612"
    },
    {
      "channel": 0,
      "note": 84,
      "start": 20.1403,
      "duration": 0.1167,
      "velocity": 97,
      "chip": "ym2612"
    },
    {
      "channel": 0,
      "note": 82,
      "start": 20.257,
      "duration": 0.0921,
      "velocity": 97,
      "chip": "ym2612"
    },
    {
      "channel": 0,
      "note": 81,
      "start": 20.3491,
      "duration": 0.009,
      "velocity": 97,
      "chip": "ym2612"
    },
    {
      "channel": 1,
      "note": 79,
      "start": 20.3493,
      "duration": 0.0853,
      "velocity": 97,
      "chip": "ym2612"
    },
    {
      "channel": 2,
      "note": 75,
      "start": 20.3495,
      "duration": 0.0851,
      "velocity": 97,
      "chip": "ym2612"
    },
    {
      "channel": 3,
      "note": 69,
      "start": 20.3497,
      "duration": 0.085,
      "velocity": 97,
      "chip": "ym2612"
    },
    {
      "channel": 0,
      "note": 82,
      "start": 20.358,
      "duration": 0.074,
      "velocity": 97,
      "chip": "ym2612"
    },
    {
      "channel": 0,
      "note": 84,
      "start": 20.4321,
      "duration": 0.0586,
      "velocity": 97,
      "chip": "ym2612"
    },
    {
      "channel": 4,
      "note": 45,
      "start": 20.4324,
      "duration": 0.0585,
      "velocity": 94,
      "chip": "ym2612"
    },
    {
      "channel": 0,
      "note": 84,
      "start": 20.5241,
      "duration": 0.1942,
      "velocity": 97,
      "chip": "ym2612"
    },
    {
      "channel": 4,
      "note": 46,
      "start": 20.5246,
      "duration": 0.4344,
      "velocity": 94,
      "chip": "ym2612"
    },
    {
      "channel": 0,
      "note": 77,
      "start": 20.7184,
      "duration": 0.006,
      "velocity": 97,
      "chip": "ym2612"
    },
    {
      "channel": 1,
      "note": 77,
      "start": 20.7185,
      "duration": 0.0046,
      "velocity": 97,
      "chip": "ym2612"
    },
    {
      "channel": 2,
      "note": 73,
      "start": 20.7188,
      "duration": 0.0045,
      "velocity": 97,
      "chip": "ym2612"
    },
    {
      "channel": 3,
      "note": 68,
      "start": 20.719,
      "duration": 0.0043,
      "velocity": 97,
      "chip": "ym2612"
    },
    {
      "channel": 0,
      "note": 79,
      "start": 20.9519,
      "duration": 0.0068,
      "velocity": 97,
      "chip": "ym2612"
    },
    {
      "channel": 1,
      "note": 77,
      "start": 20.9521,
      "duration": 0.0045,
      "velocity": 97,
      "chip": "ym2612"
    },
    {
      "channel": 2,
      "note": 73,
      "start": 20.9523,
      "duration": 0.0045,
      "velocity": 97,
      "chip": "ym2612"
    },
    {
      "channel": 3,
      "note": 68,
      "start": 20.9525,
      "duration": 0.0043,
      "velocity": 97,
      "chip": "ym2612"
    },
    {
      "channel": 4,
      "note": 46,
      "start": 20.9612,
      "duration": 0.2362,
      "velocity": 94,
      "chip": "ym2612"
    },
    {
      "channel": 0,
      "note": 80,
      "start": 21.1385,
      "duration": 0.0586,
      "velocity": 97,
      "chip": "ym2612"
    },
    {
      "channel": 0,
      "note": 82,
      "start": 21.2306,
      "duration": 0.2362,
      "velocity": 97,
      "chip": "ym2612"
    },
    {
      "channel": 1,
      "note": 76,
      "start": 21.2309,
      "duration": 0.0047,
      "velocity": 97,
      "chip": "ym2612"
    },
    {
      "channel": 2,
      "note": 73,
      "start": 21.231,
      "duration": 0.0047,
      "velocity": 97,
      "chip": "ym2612"
    },
    {
      "channel": 3,
      "note": 67,
      "start": 21.2312,
      "duration": 0.0045,
      "velocity": 97,
      "chip": "ym2612"
    },
    {
      "channel": 4,
      "note": 51,
      "start": 21.2315,
      "duration": 0.3185,
      "velocity": 94,
      "chip": "ym2612"
    },
    {
      "channel": 0,
      "note": 79,
      "start": 21.5003,
      "duration": 0.1416,
      "velocity": 97,
      "chip": "ym2612"
    },
    {
      "channel": 1,
      "note": 76,
      "start": 21.5005,
      "duration": 0.0851,
      "velocity": 97,
      "chip": "ym2612"
    },
    {
      "channel": 2,
      "note": 73,
      "start": 21.5007,
      "duration": 0.085,
      "velocity": 97,
      "chip": "ym2612"
    },
    {
      "channel": 3,
      "note": 67,
      "start": 21.5009,
      "duration": 0.0849,
      "velocity": 97,
      "chip": "ym2612"
    },
    {
      "channel": 4,
      "note": 45,
      "start": 21.5835,
      "duration": 0.0586,
      "velocity": 94,
      "chip": "ym2612"
    },
    {
      "channel": 0,
      "note": 82,
      "start": 21.6754,
      "duration": 0.1608,
      "velocity": 97,
      "chip": "ym2612"
    },
    {
      "channel": 4,
      "note": 44,
      "start": 21.6758,
      "duration": 0.4343,
      "velocity": 94,
      "chip": "ym2612"
    },
    {
      "channel": 0,
      "note": 80,
      "start": 21.8696,
      "duration": 0.7642,
      "velocity": 97,
      "chip": "ym2612"
    },
    {
      "channel": 1,
      "note": 75,
      "start": 21.8698,
      "duration": 0.0037,
      "velocity": 97,
      "chip": "ym2612"
    },
    {
      "channel": 2,
      "note": 72,
      "start": 21.87,
      "duration": 0.0037,
      "velocity": 97,
      "chip": "ym2612"
    },
    {
      "channel": 3,
      "note": 67,
      "start": 21.8702,
      "duration": 0.0035,
      "velocity": 97,
      "chip": "ym2612"
    },
    {
      "channel": 1,
      "note": 75,
      "start": 22.1032,
      "duration": 0.0046,
      "velocity": 97,
      "chip": "ym2612"
    },
    {
      "channel": 2,
      "note": 72,
      "start": 22.1034,
      "duration": 0.0046,
      "velocity": 97,
      "chip": "ym2612"
    },
    {
      "channel": 3,
      "note": 67,
      "start": 22.1037,
      "duration": 0.0044,
      "velocity": 97,
      "chip": "ym2612"
    },
    {
      "channel": 4,
      "note": 44,
      "start": 22.1115,
      "duration": 0.2529,
      "velocity": 94,
      "chip": "ym2612"
    },
    {
      "channel": 1,
      "note": 76,
      "start": 22.3977,
      "duration": 0.0047,
      "velocity": 97,
      "chip": "ym2612"
    },
    {
      "channel": 2,
      "note": 70,
      "start": 22.3978,
      "duration": 0.0047,
      "velocity": 97,
      "chip": "ym2612"
    },
    {
      "channel": 3,
      "note": 67,
      "start": 22.3981,
      "duration": 0.0045,
      "velocity": 97,
      "chip": "ym2612"
    },
    {
      "channel": 4,
      "note": 48,
      "start": 22.3983,
      "duration": 0.3188,
      "velocity": 94,
      "chip": "ym2612"
    },
    {
      "channel": 0,
      "note": 79,
      "start": 22.6673,
      "duration": 0.083,
      "velocity": 97,
      "chip": "ym2612"
    },
    {
      "channel": 1,
      "note": 76,
      "start": 22.6675,
      "duration": 0.0852,
      "velocity": 97,
      "chip": "ym2612"
    },
    {
      "channel": 2,
      "note": 70,
      "start": 22.6677,
      "duration": 0.0852,
      "velocity": 97,
      "chip": "ym2612"
    },
    {
      "channel": 3,
      "note": 67,
      "start": 22.6679,
      "duration": 0.085,
      "velocity": 97,
      "chip": "ym2612"
    },
    {
      "channel": 0,
      "note": 80,
      "start": 22.7503,
      "duration": 0.0921,
      "velocity": 97,
      "chip": "ym2612"
    },
    {
      "channel": 4,
      "note": 52,
      "start": 22.7507,
      "duration": 0.0585,
      "velocity": 94,
      "chip": "ym2612"
    },
    {
      "channel": 0,
      "note": 77,
      "start": 22.8424,
      "duration": 16.9546,
      "velocity": 97,
      "chip": "ym2612"
    },
    {
      "channel": 4,
      "note": 53,
      "start": 22.843,
      "duration": 0.4332,
      "velocity": 94,
      "chip": "ym2612"
    },
    {
      "channel": 1,
      "note": 77,
      "start": 23.0367,
      "duration": 0.0037,
      "velocity": 97,
      "chip": "ym2612"
    },
    {
      "channel": 2,
      "note": 72,
      "start": 23.0369,
      "duration": 0.0037,
      "velocity": 97,
      "chip": "ym2612"
    },
    {
      "channel": 3,
      "note": 68,
      "start": 23.0371,
      "duration": 0.0035,
      "velocity": 97,
      "chip": "ym2612"
    },
    {
      "channel": 1,
      "note": 77,
      "start": 23.2702,
      "duration": 0.0046,
      "velocity": 97,
      "chip": "ym2612"
    },
    {
      "channel": 2,
      "note": 72,
      "start": 23.2704,
      "duration": 0.0046,
      "velocity": 97,
      "chip": "ym2612"
    },
    {
      "channel": 3,
      "note": 68,
      "start": 23.2707,
      "duration": 0.0044,
      "velocity": 97,
      "chip": "ym2612"
    },
    {
      "channel": 4,
      "note": 53,
      "start": 23.2785,
      "duration": 0.2529,
      "velocity": 94,
      "chip": "ym2612"
    },
    {
      "channel": 1,
      "note": 79,
      "start": 23.5647,
      "duration": 16.2323,
      "velocity": 97,
      "chip": "ym2612"
    },
    {
      "channel": 2,
      "note": 72,
      "start": 23.5649,
      "duration": 16.2321,
      "velocity": 97,
      "chip": "ym2612"
    },
    {
      "channel": 3,
      "note": 68,
      "start": 23.5651,
      "duration": 16.2319,
      "velocity": 97,
      "chip": "ym2612"
    }
  ]
}