{
  "track_name": "05 - Scoreboard Groove",
  "duration_sec": 24.082,
  "sample_rate": 44100,
  "note_count": 435,
  "unique_pitches": 15,
  "pitch_range": 48,
  "avg_note_duration": 0.0786,
  "reconstruction_stats": {
    "notes_reconstructed": 435,
    "keyon_events": 435,
    "keyoff_events": 435,
    "orphan_keyons": 0,
    "unique_pitches": 15,
    "pitch_range": 48,
    "avg_duration_sec": 0.0786
  },
  "metadata": {
    "source": "N\\NFL '95\\05 - Scoreboard Groove.vgz"
  },
  "notes": [
    {
      "channel": 1,
      "note": 45,
      "start": 0.0075,
      "duration": 0.0411,
      "velocity": 88,
      "chip": "ym2612"
    },
    {
      "channel": 3,
      "note": 93,
      "start": 0.0133,
      "duration": 0.0298,
      "velocity": 103,
      "chip": "ym2612"
    },
    {
      "channel": 4,
      "note": 57,
      "start": 0.0217,
      "duration": 0.2822,
      "velocity": 110,
      "chip": "ym2612"
    },
    {
      "channel": 2,
      "note": 57,
      "start": 0.0281,
      "duration": 0.276,
      "velocity": 110,
      "chip": "ym2612"
    },
    {
      "channel": 0,
      "note": 93,
      "start": 0.0813,
      "duration": 0.0177,
      "velocity": 103,
      "chip": "ym2612"
    },
    {
      "channel": 3,
      "note": 93,
      "start": 0.1172,
      "duration": 0.0367,
      "velocity": 103,
      "chip": "ym2612"
    },
    {
      "channel": 0,
      "note": 93,
      "start": 0.2734,
      "duration": 0.047,
      "velocity": 103,
      "chip": "ym2612"
    },
    {
      "channel": 3,
      "note": 93,
      "start": 0.3601,
      "duration": 0.021,
      "velocity": 103,
      "chip": "ym2612"
    },
    {
      "channel": 4,
      "note": 55,
      "start": 0.3627,
      "duration": 0.3407,
      "velocity": 110,
      "chip": "ym2612"
    },
    {
      "channel": 2,
      "note": 55,
      "start": 0.3658,
      "duration": 0.3377,
      "velocity": 110,
      "chip": "ym2612"
    },
    {
      "channel": 0,
      "note": 93,
      "start": 0.4345,
      "duration": 0.0346,
      "velocity": 103,
      "chip": "ym2612"
    },
    {
      "channel": 3,
      "note": 93,
      "start": 0.5053,
      "duration": 0.0637,
      "velocity": 103,
      "chip": "ym2612"
    },
    {
      "channel": 1,
      "note": 45,
      "start": 0.6755,
      "duration": 0.045,
      "velocity": 88,
      "chip": "ym2612"
    },
    {
      "channel": 0,
      "note": 93,
      "start": 0.6776,
      "duration": 0.0257,
      "velocity": 103,
      "chip": "ym2612"
    },
    {
      "channel": 3,
      "note": 93,
      "start": 0.7122,
      "duration": 0.0293,
      "velocity": 103,
      "chip": "ym2612"
    },
    {
      "channel": 4,
      "note": 54,
      "start": 0.7151,
      "duration": 0.2512,
      "velocity": 110,
      "chip": "ym2612"
    },
    {
      "channel": 2,
      "note": 54,
      "start": 0.719,
      "duration": 0.2472,
      "velocity": 110,
      "chip": "ym2612"
    },
    {
      "channel": 0,
      "note": 93,
      "start": 0.7882,
      "duration": 0.0548,
      "velocity": 103,
      "chip": "ym2612"
    },
    {
      "channel": 1,
      "note": 45,
      "start": 0.8661,
      "duration": 0.0415,
      "velocity": 88,
      "chip": "ym2612"
    },
    {
      "channel": 3,
      "note": 93,
      "start": 0.8684,
      "duration": 0.0253,
      "velocity": 103,
      "chip": "ym2612"
    },
    {
      "channel": 0,
      "note": 93,
      "start": 0.939,
      "duration": 0.0271,
      "velocity": 103,
      "chip": "ym2612"
    },
    {
      "channel": 3,
      "note": 93,
      "start": 0.9813,
      "duration": 0.0251,
      "velocity": 103,
      "chip": "ym2612"
    },
    {
      "channel": 4,
      "note": 52,
      "start": 0.9841,
      "duration": 0.2178,
      "velocity": 110,
      "chip": "ym2612"
    },
    {
      "channel": 2,
      "note": 52,
      "start": 0.987,
      "duration": 0.2151,
      "velocity": 110,
      "chip": "ym2612"
    },
    {
      "channel": 0,
      "note": 93,
      "start": 1.0531,
      "duration": 0.0487,
      "velocity": 103,
      "chip": "ym2612"
    },
    {
      "channel": 3,
      "note": 93,
      "start": 1.1215,
      "duration": 0.0638,
      "velocity": 103,
      "chip": "ym2612"
    },
    {
      "channel": 0,
      "note": 93,
      "start": 1.2881,
      "duration": 0.0637,
      "velocity": 103,
      "chip": "ym2612"
    },
    {
      "channel": 4,
      "note": 45,
      "start": 1.2912,
      "duration": 0.0775,
      "velocity": 110,
      "chip": "ym2612"
    },
    {
      "channel": 2,
      "note": 45,
      "start": 1.2943,
      "duration": 0.0745,
      "velocity": 110,
      "chip": "ym2612"
    },
    {
      "channel": 1,
      "note": 45,
      "start": 1.3753,
      "duration": 0.0407,
      "velocity": 88,
      "chip": "ym2612"
    },
    {
      "channel": 3,
      "note": 93,
      "start": 1.3775,
      "duration": 0.0253,
      "velocity": 103,
      "chip": "ym2612"
    },
    {
      "channel": 0,
      "note": 93,
      "start": 1.4483,
      "duration": 0.029,
      "velocity": 103,
      "chip": "ym2612"
    },
    {
      "channel": 4,
      "note": 57,
      "start": 1.4509,
      "duration": 0.0265,
      "velocity": 110,
      "chip": "ym2612"
    },
    {
      "channel": 2,
      "note": 57,
      "start": 1.4535,
      "duration": 0.0239,
      "velocity": 110,
      "chip": "ym2612"
    },
    {
      "channel": 3,
      "note": 93,
      "start": 1.4881,
      "duration": 0.0545,
      "velocity": 103,
      "chip": "ym2612"
    },
    {
      "channel": 0,
      "note": 93,
      "start": 1.6455,
      "duration": 0.0637,
      "velocity": 103,
      "chip": "ym2612"
    },
    {
      "channel": 4,
      "note": 57,
      "start": 1.6485,
      "duration": 0.0441,
      "velocity": 110,
      "chip": "ym2612"
    },
    {
      "channel": 2,
      "note": 57,
      "start": 1.6517,
      "duration": 0.0412,
      "velocity": 110,
      "chip": "ym2612"
    },
    {
      "channel": 3,
      "note": 93,
      "start": 1.7322,
      "duration": 0.0283,
      "velocity": 103,
      "chip": "ym2612"
    },
    {
      "channel": 4,
      "note": 55,
      "start": 1.7351,
      "duration": 0.0329,
      "velocity": 110,
      "chip": "ym2612"
    },
    {
      "channel": 2,
      "note": 55,
      "start": 1.7381,
      "duration": 0.0301,
      "velocity": 110,
      "chip": "ym2612"
    },
    {
      "channel": 0,
      "note": 93,
      "start": 1.8068,
      "duration": 0.0514,
      "velocity": 103,
      "chip": "ym2612"
    },
    {
      "channel": 3,
      "note": 93,
      "start": 1.8778,
      "duration": 0.0637,
      "velocity": 103,
      "chip": "ym2612"
    },
    {
      "channel": 4,
      "note": 55,
      "start": 1.8807,
      "duration": 0.0777,
      "velocity": 110,
      "chip": "ym2612"
    },
    {
      "channel": 2,
      "note": 55,
      "start": 1.8835,
      "duration": 0.075,
      "velocity": 110,
      "chip": "ym2612"
    },
    {
      "channel": 1,
      "note": 45,
      "start": 2.0478,
      "duration": 0.0514,
      "velocity": 88,
      "chip": "ym2612"
    },
    {
      "channel": 0,
      "note": 93,
      "start": 2.0501,
      "duration": 0.0259,
      "velocity": 103,
      "chip": "ym2612"
    },
    {
      "channel": 3,
      "note": 93,
      "start": 2.085,
      "duration": 0.0291,
      "velocity": 103,
      "chip": "ym2612"
    },
    {
      "channel": 4,
      "note": 54,
      "start": 2.0881,
      "duration": 0.2216,
      "velocity": 110,
      "chip": "ym2612"
    },
    {
      "channel": 2,
      "note": 54,
      "start": 2.0922,
      "duration": 0.2177,
      "velocity": 110,
      "chip": "ym2612"
    },
    {
      "channel": 1,
      "note": 45,
      "start": 2.1652,
      "duration": 0.0175,
      "velocity": 88,
      "chip": "ym2612"
    },
    {
      "channel": 0,
      "note": 93,
      "start": 2.1676,
      "duration": 0.0222,
      "velocity": 103,
      "chip": "ym2612"
    },
    {
      "channel": 1,
      "note": 45,
      "start": 2.2011,
      "duration": 0.0555,
      "velocity": 88,
      "chip": "ym2612"
    },
    {
      "channel": 3,
      "note": 93,
      "start": 2.2035,
      "duration": 0.0239,
      "velocity": 103,
      "chip": "ym2612"
    },
    {
      "channel": 0,
      "note": 93,
      "start": 2.2735,
      "duration": 0.0526,
      "velocity": 103,
      "chip": "ym2612"
    },
    {
      "channel": 3,
      "note": 93,
      "start": 2.3493,
      "duration": 0.0273,
      "velocity": 103,
      "chip": "ym2612"
    },
    {
      "channel": 4,
      "note": 52,
      "start": 2.352,
      "duration": 0.188,
      "velocity": 110,
      "chip": "ym2612"
    },
    {
      "channel": 2,
      "note": 52,
      "start": 2.355,
      "duration": 0.1852,
      "velocity": 110,
      "chip": "ym2612"
    },
    {
      "channel": 0,
      "note": 93,
      "start": 2.4226,
      "duration": 0.0506,
      "velocity": 103,
      "chip": "ym2612"
    },
    {
      "channel": 3,
      "note": 93,
      "start": 2.4937,
      "duration": 0.0628,
      "velocity": 103,
      "chip": "ym2612"
    },
    {
      "channel": 0,
      "note": 93,
      "start": 2.6595,
      "duration": 0.0637,
      "velocity": 103,
      "chip": "ym2612"
    },
    {
      "channel": 1,
      "note": 45,
      "start": 2.7631,
      "duration": 0.0505,
      "velocity": 88,
      "chip": "ym2612"
    },
    {
      "channel": 3,
      "note": 93,
      "start": 2.7654,
      "duration": 0.019,
      "velocity": 103,
      "chip": "ym2612"
    },
    {
      "channel": 4,
      "note": 57,
      "start": 2.7681,
      "duration": 0.2294,
      "velocity": 110,
      "chip": "ym2612"
    },
    {
      "channel": 2,
      "note": 57,
      "start": 2.771,
      "duration": 0.2266,
      "velocity": 110,
      "chip": "ym2612"
    },
    {
      "channel": 0,
      "note": 93,
      "start": 2.8391,
      "duration": 0.0198,
      "velocity": 103,
      "chip": "ym2612"
    },
    {
      "channel": 3,
      "note": 93,
      "start": 2.8769,
      "duration": 0.0373,
      "velocity": 103,
      "chip": "ym2612"
    },
    {
      "channel": 0,
      "note": 93,
      "start": 3.0337,
      "duration": 0.0471,
      "velocity": 103,
      "chip": "ym2612"
    },
    {
      "channel": 3,
      "note": 93,
      "start": 3.1207,
      "duration": 0.0206,
      "velocity": 103,
      "chip": "ym2612"
    },
    {
      "channel": 4,
      "note": 55,
      "start": 3.1233,
      "duration": 0.3173,
      "velocity": 110,
      "chip": "ym2612"
    },
    {
      "channel": 2,
      "note": 55,
      "start": 3.1263,
      "duration": 0.3144,
      "velocity": 110,
      "chip": "ym2612"
    },
    {
      "channel": 0,
      "note": 93,
      "start": 3.1947,
      "duration": 0.0344,
      "velocity": 103,
      "chip": "ym2612"
    },
    {
      "channel": 3,
      "note": 93,
      "start": 3.2655,
      "duration": 0.0471,
      "velocity": 103,
      "chip": "ym2612"
    },
    {
      "channel": 1,
      "note": 45,
      "start": 3.4354,
      "duration": 0.0519,
      "velocity": 88,
      "chip": "ym2612"
    },
    {
      "channel": 0,
      "note": 93,
      "start": 3.4378,
      "duration": 0.0177,
      "velocity": 103,
      "chip": "ym2612"
    },
    {
      "channel": 3,
      "note": 93,
      "start": 3.4724,
      "duration": 0.0293,
      "velocity": 103,
      "chip": "ym2612"
    },
    {
      "channel": 4,
      "note": 54,
      "start": 3.475,
      "duration": 0.2373,
      "velocity": 110,
      "chip": "ym2612"
    },
    {
      "channel": 2,
      "note": 54,
      "start": 3.4788,
      "duration": 0.2337,
      "velocity": 110,
      "chip": "ym2612"
    },
    {
      "channel": 0,
      "note": 93,
      "start": 3.5484,
      "duration": 0.0549,
      "velocity": 103,
      "chip": "ym2612"
    },
    {
      "channel": 1,
      "note": 45,
      "start": 3.6266,
      "duration": 0.0408,
      "velocity": 88,
      "chip": "ym2612"
    },
    {
      "channel": 3,
      "note": 93,
      "start": 3.6289,
      "duration": 0.0252,
      "velocity": 103,
      "chip": "ym2612"
    },
    {
      "channel": 0,
      "note": 93,
      "start": 3.699,
      "duration": 0.0266,
      "velocity": 103,
      "chip": "ym2612"
    },
    {
      "channel": 3,
      "note": 93,
      "start": 3.7407,
      "duration": 0.0263,
      "velocity": 103,
      "chip": "ym2612"
    },
    {
      "channel": 4,
      "note": 52,
      "start": 3.7436,
      "duration": 0.3186,
      "velocity": 110,
      "chip": "ym2612"
    },
    {
      "channel": 2,
      "note": 52,
      "start": 3.7463,
      "duration": 0.316,
      "velocity": 110,
      "chip": "ym2612"
    },
    {
      "channel": 0,
      "note": 93,
      "start": 3.8135,
      "duration": 0.0486,
      "velocity": 103,
      "chip": "ym2612"
    },
    {
      "channel": 3,
      "note": 93,
      "start": 3.8817,
      "duration": 0.0637,
      "velocity": 103,
      "chip": "ym2612"
    },
    {
      "channel": 0,
      "note": 93,
      "start": 4.0484,
      "duration": 0.0636,
      "velocity": 103,
      "chip": "ym2612"
    },
    {
      "channel": 1,
      "note": 45,
      "start": 4.1356,
      "duration": 0.0577,
      "velocity": 88,
      "chip": "ym2612"
    },
    {
      "channel": 3,
      "note": 93,
      "start": 4.1377,
      "duration": 0.0264,
      "velocity": 103,
      "chip": "ym2612"
    },
    {
      "channel": 4,
      "note": 57,
      "start": 4.1408,
      "duration": 0.0311,
      "velocity": 110,
      "chip": "ym2612"
    },
    {
      "channel": 2,
      "note": 57,
      "start": 4.1435,
      "duration": 0.0286,
      "velocity": 110,
      "chip": "ym2612"
    },
    {
      "channel": 0,
      "note": 93,
      "start": 4.2114,
      "duration": 0.0283,
      "velocity": 103,
      "chip": "ym2612"
    },
    {
      "channel": 4,
      "note": 48,
      "start": 4.2145,
      "duration": 0.4861,
      "velocity": 110,
      "chip": "ym2612"
    },
    {
      "channel": 2,
      "note": 48,
      "start": 4.2188,
      "duration": 0.4819,
      "velocity": 110,
      "chip": "ym2612"
    },
    {
      "channel": 3,
      "note": 93,
      "start": 4.2495,
      "duration": 0.0537,
      "velocity": 103,
      "chip": "ym2612"
    },
    {
      "channel": 0,
      "note": 93,
      "start": 4.4061,
      "duration": 0.0637,
      "velocity": 103,
      "chip": "ym2612"
    },
    {
      "channel": 3,
      "note": 93,
      "start": 4.4928,
      "duration": 0.0252,
      "velocity": 103,
      "chip": "ym2612"
    },
    {
      "channel": 0,
      "note": 93,
      "start": 4.5638,
      "duration": 0.0532,
      "velocity": 103,
      "chip": "ym2612"
    },
    {
      "channel": 3,
      "note": 93,
      "start": 4.6367,
      "duration": 0.0638,
      "velocity": 103,
      "chip": "ym2612"
    },
    {
      "channel": 1,
      "note": 45,
      "start": 4.8068,
      "duration": 0.0217,
      "velocity": 88,
      "chip": "ym2612"
    },
    {
      "channel": 0,
      "note": 93,
      "start": 4.8092,
      "duration": 0.0266,
      "velocity": 103,
      "chip": "ym2612"
    },
    {
      "channel": 4,
      "note": 48,
      "start": 4.812,
      "duration": 0.0239,
      "velocity": 110,
      "chip": "ym2612"
    },
    {
      "channel": 2,
      "note": 48,
      "start": 4.815,
      "duration": 0.021,
      "velocity": 110,
      "chip": "ym2612"
    },
    {
      "channel": 3,
      "note": 93,
      "start": 4.8462,
      "duration": 0.0288,
      "velocity": 103,
      "chip": "ym2612"
    },
    {
      "channel": 4,
      "note": 50,
      "start": 4.8492,
      "duration": 0.0331,
      "velocity": 110,
      "chip": "ym2612"
    },
    {
      "channel": 2,
      "note": 50,
      "start": 4.8521,
      "duration": 0.0302,
      "velocity": 110,
      "chip": "ym2612"
    },
    {
      "channel": 1,
      "note": 45,
      "start": 4.9203,
      "duration": 0.0707,
      "velocity": 88,
      "chip": "ym2612"
    },
    {
      "channel": 0,
      "note": 93,
      "start": 4.9236,
      "duration": 0.0507,
      "velocity": 103,
      "chip": "ym2612"
    },
    {
      "channel": 3,
      "note": 93,
      "start": 4.9973,
      "duration": 0.0284,
      "velocity": 103,
      "chip": "ym2612"
    },
    {
      "channel": 4,
      "note": 50,
      "start": 5.0,
      "duration": 0.0552,
      "velocity": 110,
      "chip": "ym2612"
    },
    {
      "channel": 2,
      "note": 50,
      "start": 5.003,
      "duration": 0.0523,
      "velocity": 110,
      "chip": "ym2612"
    },
    {
      "channel": 1,
      "note": 45,
      "start": 5.073,
      "duration": 0.022,
      "velocity": 88,
      "chip": "ym2612"
    },
    {
      "channel": 0,
      "note": 93,
      "start": 5.0753,
      "duration": 0.0267,
      "velocity": 103,
      "chip": "ym2612"
    },
    {
      "channel": 4,
      "note": 48,
      "start": 5.078,
      "duration": 0.0244,
      "velocity": 110,
      "chip": "ym2612"
    },
    {
      "channel": 2,
      "note": 48,
      "start": 5.0818,
      "duration": 0.0207,
      "velocity": 110,
      "chip": "ym2612"
    },
    {
      "channel": 1,
      "note": 45,
      "start": 5.1173,
      "duration": 0.0493,
      "velocity": 88,
      "chip": "ym2612"
    },
    {
      "channel": 3,
      "note": 93,
      "start": 5.1195,
      "duration": 0.0255,
      "velocity": 103,
      "chip": "ym2612"
    },
    {
      "channel": 4,
      "note": 50,
      "start": 5.1226,
      "duration": 0.0519,
      "velocity": 110,
      "chip": "ym2612"
    },
    {
      "channel": 2,
      "note": 50,
      "start": 5.1257,
      "duration": 0.049,
      "velocity": 110,
      "chip": "ym2612"
    },
    {
      "channel": 0,
      "note": 93,
      "start": 5.1926,
      "duration": 0.0476,
      "velocity": 103,
      "chip": "ym2612"
    },
    {
      "channel": 4,
      "note": 48,
      "start": 5.1953,
      "duration": 0.0451,
      "velocity": 110,
      "chip": "ym2612"
    },
    {
      "channel": 2,
      "note": 48,
      "start": 5.1983,
      "duration": 0.0423,
      "velocity": 110,
      "chip": "ym2612"
    },
    {
      "channel": 3,
      "note": 93,
      "start": 5.2599,
      "duration": 0.0637,
      "velocity": 103,
      "chip": "ym2612"
    },
    {
      "channel": 4,
      "note": 45,
      "start": 5.2631,
      "duration": 0.1273,
      "velocity": 110,
      "chip": "ym2612"
    },
    {
      "channel": 2,
      "note": 45,
      "start": 5.2662,
      "duration": 0.1077,
      "velocity": 110,
      "chip": "ym2612"
    },
    {
      "channel": 0,
      "note": 93,
      "start": 5.4267,
      "duration": 0.0637,
      "velocity": 103,
      "chip": "ym2612"
    },
    {
      "channel": 1,
      "note": 45,
      "start": 5.5148,
      "duration": 0.0491,
      "velocity": 88,
      "chip": "ym2612"
    },
    {
      "channel": 3,
      "note": 93,
      "start": 5.5183,
      "duration": 0.0243,
      "velocity": 103,
      "chip": "ym2612"
    },
    {
      "channel": 4,
      "note": 57,
      "start": 5.5232,
      "duration": 0.3081,
      "velocity": 110,
      "chip": "ym2612"
    },
    {
      "channel": 2,
      "note": 57,
      "start": 5.5265,
      "duration": 0.305,
      "velocity": 110,
      "chip": "ym2612"
    },
    {
      "channel": 0,
      "note": 93,
      "start": 5.59,
      "duration": 0.0254,
      "velocity": 103,
      "chip": "ym2612"
    },
    {
      "channel": 3,
      "note": 93,
      "start": 5.6341,
      "duration": 0.0472,
      "velocity": 103,
      "chip": "ym2612"
    },
    {
      "channel": 1,
      "note": 67,
      "start": 5.6376,
      "duration": 0.0435,
      "velocity": 79,
      "chip": "ym2612"
    },
    {
      "channel": 0,
      "note": 93,
      "start": 5.8007,
      "duration": 0.047,
      "velocity": 103,
      "chip": "ym2612"
    },
    {
      "channel": 3,
      "note": 93,
      "start": 5.8874,
      "duration": 0.0204,
      "velocity": 103,
      "chip": "ym2612"
    },
    {
      "channel": 4,
      "note": 55,
      "start": 5.8902,
      "duration": 0.3313,
      "velocity": 110,
      "chip": "ym2612"
    },
    {
      "channel": 2,
      "note": 55,
      "start": 5.8936,
      "duration": 0.328,
      "velocity": 110,
      "chip": "ym2612"
    },
    {
      "channel": 0,
      "note": 93,
      "start": 5.9608,
      "duration": 0.0346,
      "velocity": 103,
      "chip": "ym2612"
    },
    {
      "channel": 1,
      "note": 67,
      "start": 5.9639,
      "duration": 0.0315,
      "velocity": 79,
      "chip": "ym2612"
    },
    {
      "channel": 3,
      "note": 93,
      "start": 6.0317,
      "duration": 0.0469,
      "velocity": 103,
      "chip": "ym2612"
    },
    {
      "channel": 0,
      "note": 45,
      "start": 6.202,
      "duration": 0.0467,
      "velocity": 88,
      "chip": "ym2612"
    },
    {
      "channel": 1,
      "note": 93,
      "start": 6.2044,
      "duration": 0.017,
      "velocity": 103,
      "chip": "ym2612"
    },
    {
      "channel": 3,
      "note": 93,
      "start": 6.239,
      "duration": 0.0233,
      "velocity": 103,
      "chip": "ym2612"
    },
    {
      "channel": 4,
      "note": 54,
      "start": 6.2415,
      "duration": 0.2522,
      "velocity": 110,
      "chip": "ym2612"
    },
    {
      "channel": 2,
      "note": 54,
      "start": 6.245,
      "duration": 0.2487,
      "velocity": 110,
      "chip": "ym2612"
    },
    {
      "channel": 1,
      "note": 67,
      "start": 6.2475,
      "duration": 0.0147,
      "velocity": 79,
      "chip": "ym2612"
    },
    {
      "channel": 0,
      "note": 93,
      "start": 6.3161,
      "duration": 0.0368,
      "velocity": 103,
      "chip": "ym2612"
    },
    {
      "channel": 1,
      "note": 45,
      "start": 6.3927,
      "duration": 0.0411,
      "velocity": 88,
      "chip": "ym2612"
    },
    {
      "channel": 3,
      "note": 93,
      "start": 6.395,
      "duration": 0.025,
      "velocity": 103,
      "chip": "ym2612"
    },
    {
      "channel": 0,
      "note": 93,
      "start": 6.4655,
      "duration": 0.028,
      "velocity": 103,
      "chip": "ym2612"
    },
    {
      "channel": 3,
      "note": 67,
      "start": 6.4685,
      "duration": 0.0251,
      "velocity": 79,
      "chip": "ym2612"
    },
    {
      "channel": 1,
      "note": 93,
      "start": 6.5088,
      "duration": 0.0265,
      "velocity": 103,
      "chip": "ym2612"
    },
    {
      "channel": 4,
      "note": 52,
      "start": 6.5118,
      "duration": 0.2195,
      "velocity": 110,
      "chip": "ym2612"
    },
    {
      "channel": 2,
      "note": 52,
      "start": 6.5148,
      "duration": 0.2166,
      "velocity": 110,
      "chip": "ym2612"
    },
    {
      "channel": 0,
      "note": 93,
      "start": 6.5832,
      "duration": 0.0479,
      "velocity": 103,
      "chip": "ym2612"
    },
    {
      "channel": 1,
      "note": 93,
      "start": 6.6506,
      "duration": 0.0639,
      "velocity": 103,
      "chip": "ym2612"
    },
    {
      "channel": 3,
      "note": 67,
      "start": 6.6539,
      "duration": 0.094,
      "velocity": 79,
      "chip": "ym2612"
    },
    {
      "channel": 0,
      "note": 93,
      "start": 6.8173,
      "duration": 0.0637,
      "velocity": 103,
      "chip": "ym2612"
    },
    {
      "channel": 4,
      "note": 45,
      "start": 6.8204,
      "duration": 0.0776,
      "velocity": 110,
      "chip": "ym2612"
    },
    {
      "channel": 2,
      "note": 45,
      "start": 6.8235,
      "duration": 0.0746,
      "velocity": 110,
      "chip": "ym2612"
    },
    {
      "channel": 5,
      "note": 67,
      "start": 6.8265,
      "duration": 0.0549,
      "velocity": 79,
      "chip": "ym2612"
    },
    {
      "channel": 1,
      "note": 45,
      "start": 6.9047,
      "duration": 0.0411,
      "velocity": 88,
      "chip": "ym2612"
    },
    {
      "channel": 3,
      "note": 93,
      "start": 6.9074,
      "duration": 0.0252,
      "velocity": 103,
      "chip": "ym2612"
    },
    {
      "channel": 0,
      "note": 93,
      "start": 6.9766,
      "duration": 0.0294,
      "velocity": 103,
      "chip": "ym2612"
    },
    {
      "channel": 4,
      "note": 57,
      "start": 6.9791,
      "duration": 0.0271,
      "velocity": 110,
      "chip": "ym2612"
    },
    {
      "channel": 2,
      "note": 57,
      "start": 6.9818,
      "duration": 0.0245,
      "velocity": 110,
      "chip": "ym2612"
    },
    {
      "channel": 3,
      "note": 67,
      "start": 6.9853,
      "duration": 0.028,
      "velocity": 79,
      "chip": "ym2612"
    },
    {
      "channel": 1,
      "note": 93,
      "start": 7.0174,
      "duration": 0.053,
      "velocity": 103,
      "chip": "ym2612"
    },
    {
      "channel": 0,
      "note": 93,
      "start": 7.1732,
      "duration": 0.0637,
      "velocity": 103,
      "chip": "ym2612"
    },
    {
      "channel": 4,
      "note": 57,
      "start": 7.1763,
      "duration": 0.0441,
      "velocity": 110,
      "chip": "ym2612"
    },
    {
      "channel": 2,
      "note": 57,
      "start": 7.1795,
      "duration": 0.0411,
      "velocity": 110,
      "chip": "ym2612"
    },
    {
      "channel": 1,
      "note": 93,
      "start": 7.26,
      "duration": 0.0285,
      "velocity": 103,
      "chip": "ym2612"
    },
    {
      "channel": 4,
      "note": 55,
      "start": 7.2628,
      "duration": 0.0337,
      "velocity": 110,
      "chip": "ym2612"
    },
    {
      "channel": 2,
      "note": 55,
      "start": 7.2659,
      "duration": 0.0307,
      "velocity": 110,
      "chip": "ym2612"
    },
    {
      "channel": 3,
      "note": 67,
      "start": 7.2688,
      "duration": 0.0276,
      "velocity": 79,
      "chip": "ym2612"
    },
    {
      "channel": 0,
      "note": 93,
      "start": 7.336,
      "duration": 0.0499,
      "velocity": 103,
      "chip": "ym2612"
    },
    {
      "channel": 1,
      "note": 93,
      "start": 7.4054,
      "duration": 0.0638,
      "velocity": 103,
      "chip": "ym2612"
    },
    {
      "channel": 4,
      "note": 55,
      "start": 7.4086,
      "duration": 0.0774,
      "velocity": 110,
      "chip": "ym2612"
    },
    {
      "channel": 2,
      "note": 55,
      "start": 7.4118,
      "duration": 0.0743,
      "velocity": 110,
      "chip": "ym2612"
    },
    {
      "channel": 3,
      "note": 45,
      "start": 7.5756,
      "duration": 0.0468,
      "velocity": 88,
      "chip": "ym2612"
    },
    {
      "channel": 0,
      "note": 93,
      "start": 7.578,
      "duration": 0.0245,
      "velocity": 103,
      "chip": "ym2612"
    },
    {
      "channel": 1,
      "note": 93,
      "start": 7.6118,
      "duration": 0.0302,
      "velocity": 103,
      "chip": "ym2612"
    },
    {
      "channel": 4,
      "note": 54,
      "start": 7.6146,
      "duration": 0.2243,
      "velocity": 110,
      "chip": "ym2612"
    },
    {
      "channel": 2,
      "note": 54,
      "start": 7.6187,
      "duration": 0.2203,
      "velocity": 110,
      "chip": "ym2612"
    },
    {
      "channel": 0,
      "note": 67,
      "start": 7.6212,
      "duration": 0.028,
      "velocity": 79,
      "chip": "ym2612"
    },
    {
      "channel": 3,
      "note": 45,
      "start": 7.6928,
      "duration": 0.0177,
      "velocity": 88,
      "chip": "ym2612"
    },
    {
      "channel": 1,
      "note": 93,
      "start": 7.6956,
      "duration": 0.0224,
      "velocity": 103,
      "chip": "ym2612"
    },
    {
      "channel": 3,
      "note": 45,
      "start": 7.7299,
      "duration": 0.0552,
      "velocity": 88,
      "chip": "ym2612"
    },
    {
      "channel": 0,
      "note": 93,
      "start": 7.7323,
      "duration": 0.0234,
      "velocity": 103,
      "chip": "ym2612"
    },
    {
      "channel": 1,
      "note": 93,
      "start": 7.8022,
      "duration": 0.0532,
      "velocity": 103,
      "chip": "ym2612"
    },
    {
      "channel": 0,
      "note": 67,
      "start": 7.8061,
      "duration": 0.066,
      "velocity": 79,
      "chip": "ym2612"
    },
    {
      "channel": 3,
      "note": 93,
      "start": 7.8792,
      "duration": 0.0276,
      "velocity": 103,
      "chip": "ym2612"
    },
    {
      "channel": 4,
      "note": 52,
      "start": 7.8818,
      "duration": 0.1889,
      "velocity": 110,
      "chip": "ym2612"
    },
    {
      "channel": 2,
      "note": 52,
      "start": 7.8846,
      "duration": 0.1862,
      "velocity": 110,
      "chip": "ym2612"
    },
    {
      "channel": 1,
      "note": 93,
      "start": 7.9536,
      "duration": 0.0503,
      "velocity": 103,
      "chip": "ym2612"
    },
    {
      "channel": 3,
      "note": 93,
      "start": 8.0244,
      "duration": 0.0628,
      "velocity": 103,
      "chip": "ym2612"
    },
    {
      "channel": 0,
      "note": 67,
      "start": 8.0274,
      "duration": 0.0765,
      "velocity": 79,
      "chip": "ym2612"
    },
    {
      "channel": 1,
      "note": 93,
      "start": 8.1902,
      "duration": 0.0637,
      "velocity": 103,
      "chip": "ym2612"
    },
    {
      "channel": 5,
      "note": 67,
      "start": 8.1933,
      "duration": 0.0774,
      "velocity": 79,
      "chip": "ym2612"
    },
    {
      "channel": 4,
      "note": 45,
      "start": 8.2775,
      "duration": 0.0564,
      "velocity": 88,
      "chip": "ym2612"
    },
    {
      "channel": 3,
      "note": 93,
      "start": 8.2801,
      "duration": 0.0249,
      "velocity": 103,
      "chip": "ym2612"
    },
    {
      "channel": 2,
      "note": 57,
      "start": 8.2831,
      "duration": 0.2421,
      "velocity": 110,
      "chip": "ym2612"
    },
    {
      "channel": 0,
      "note": 57,
      "start": 8.2859,
      "duration": 0.239,
      "velocity": 110,
      "chip": "ym2612"
    },
    {
      "channel": 1,
      "note": 93,
      "start": 8.3524,
      "duration": 0.0266,
      "velocity": 103,
      "chip": "ym2612"
    },
    {
      "channel": 3,
      "note": 67,
      "start": 8.3552,
      "duration": 0.0315,
      "velocity": 79,
      "chip": "ym2612"
    },
    {
      "channel": 4,
      "note": 93,
      "start": 8.3907,
      "duration": 0.0511,
      "velocity": 103,
      "chip": "ym2612"
    },
    {
      "channel": 1,
      "note": 93,
      "start": 8.5447,
      "duration": 0.0636,
      "velocity": 103,
      "chip": "ym2612"
    },
    {
      "channel": 4,
      "note": 93,
      "start": 8.6486,
      "duration": 0.0214,
      "velocity": 103,
      "chip": "ym2612"
    },
    {
      "channel": 2,
      "note": 55,
      "start": 8.6515,
      "duration": 0.318,
      "velocity": 110,
      "chip": "ym2612"
    },
    {
      "channel": 0,
      "note": 55,
      "start": 8.6542,
      "duration": 0.3151,
      "velocity": 110,
      "chip": "ym2612"
    },
    {
      "channel": 3,
      "note": 67,
      "start": 8.6569,
      "duration": 0.0284,
      "velocity": 79,
      "chip": "ym2612"
    },
    {
      "channel": 1,
      "note": 93,
      "start": 8.7244,
      "duration": 0.0332,
      "velocity": 103,
      "chip": "ym2612"
    },
    {
      "channel": 4,
      "note": 93,
      "start": 8.7939,
      "duration": 0.0471,
      "velocity": 103,
      "chip": "ym2612"
    },
    {
      "channel": 3,
      "note": 45,
      "start": 8.9644,
      "duration": 0.0519,
      "velocity": 88,
      "chip": "ym2612"
    },
    {
      "channel": 1,
      "note": 93,
      "start": 8.9669,
      "duration": 0.0176,
      "velocity": 103,
      "chip": "ym2612"
    },
    {
      "channel": 4,
      "note": 93,
      "start": 9.0011,
      "duration": 0.0233,
      "velocity": 103,
      "chip": "ym2612"
    },
    {
      "channel": 2,
      "note": 54,
      "start": 9.0037,
      "duration": 0.2379,
      "velocity": 110,
      "chip": "ym2612"
    },
    {
      "channel": 0,
      "note": 54,
      "start": 9.0072,
      "duration": 0.2342,
      "velocity": 110,
      "chip": "ym2612"
    },
    {
      "channel": 1,
      "note": 67,
      "start": 9.0099,
      "duration": 0.028,
      "velocity": 79,
      "chip": "ym2612"
    },
    {
      "channel": 3,
      "note": 93,
      "start": 9.0774,
      "duration": 0.0371,
      "velocity": 103,
      "chip": "ym2612"
    },
    {
      "channel": 4,
      "note": 45,
      "start": 9.1545,
      "duration": 0.0412,
      "velocity": 88,
      "chip": "ym2612"
    },
    {
      "channel": 1,
      "note": 93,
      "start": 9.1569,
      "duration": 0.0169,
      "velocity": 103,
      "chip": "ym2612"
    },
    {
      "channel": 3,
      "note": 93,
      "start": 9.2273,
      "duration": 0.0215,
      "velocity": 103,
      "chip": "ym2612"
    },
    {
      "channel": 1,
      "note": 67,
      "start": 9.2304,
      "duration": 0.0337,
      "velocity": 79,
      "chip": "ym2612"
    },
    {
      "channel": 4,
      "note": 93,
      "start": 9.271,
      "duration": 0.0263,
      "velocity": 103,
      "chip": "ym2612"
    },
    {
      "channel": 2,
      "note": 52,
      "start": 9.2739,
      "duration": 0.318,
      "velocity": 110,
      "chip": "ym2612"
    },
    {
      "channel": 0,
      "note": 52,
      "start": 9.2765,
      "duration": 0.3149,
      "velocity": 110,
      "chip": "ym2612"
    },
    {
      "channel": 3,
      "note": 93,
      "start": 9.3436,
      "duration": 0.048,
      "velocity": 103,
      "chip": "ym2612"
    },
    {
      "channel": 4,
      "note": 93,
      "start": 9.4112,
      "duration": 0.0638,
      "velocity": 103,
      "chip": "ym2612"
    },
    {
      "channel": 1,
      "note": 67,
      "start": 9.4146,
      "duration": 0.0769,
      "velocity": 79,
      "chip": "ym2612"
    },
    {
      "channel": 3,
      "note": 93,
      "start": 9.578,
      "duration": 0.0635,
      "velocity": 103,
      "chip": "ym2612"
    },
    {
      "channel": 1,
      "note": 69,
      "start": 9.5809,
      "duration": 0.0953,
      "velocity": 79,
      "chip": "ym2612"
    },
    {
      "channel": 5,
      "note": 67,
      "start": 9.5842,
      "duration": 0.0242,
      "velocity": 79,
      "chip": "ym2612"
    },
    {
      "channel": 4,
      "note": 45,
      "start": 9.6648,
      "duration": 0.0508,
      "velocity": 88,
      "chip": "ym2612"
    },
    {
      "channel": 0,
      "note": 93,
      "start": 9.6673,
      "duration": 0.026,
      "velocity": 103,
      "chip": "ym2612"
    },
    {
      "channel": 2,
      "note": 57,
      "start": 9.6707,
      "duration": 0.0305,
      "velocity": 110,
      "chip": "ym2612"
    },
    {
      "channel": 3,
      "note": 57,
      "start": 9.6749,
      "duration": 0.0262,
      "velocity": 110,
      "chip": "ym2612"
    },
    {
      "channel": 1,
      "note": 93,
      "start": 9.7402,
      "duration": 0.0299,
      "velocity": 103,
      "chip": "ym2612"
    },
    {
      "channel": 2,
      "note": 48,
      "start": 9.743,
      "duration": 0.4871,
      "velocity": 110,
      "chip": "ym2612"
    },
    {
      "channel": 3,
      "note": 48,
      "start": 9.7459,
      "duration": 0.484,
      "velocity": 110,
      "chip": "ym2612"
    },
    {
      "channel": 0,
      "note": 60,
      "start": 9.7498,
      "duration": 0.4633,
      "velocity": 79,
      "chip": "ym2612"
    },
    {
      "channel": 4,
      "note": 93,
      "start": 9.7793,
      "duration": 0.0529,
      "velocity": 103,
      "chip": "ym2612"
    },
    {
      "channel": 1,
      "note": 93,
      "start": 9.9351,
      "duration": 0.0636,
      "velocity": 103,
      "chip": "ym2612"
    },
    {
      "channel": 4,
      "note": 93,
      "start": 10.0217,
      "duration": 0.026,
      "velocity": 103,
      "chip": "ym2612"
    },
    {
      "channel": 1,
      "note": 93,
      "start": 10.0927,
      "duration": 0.0539,
      "velocity": 103,
      "chip": "ym2612"
    },
    {
      "channel": 4,
      "note": 93,
      "start": 10.1663,
      "duration": 0.0637,
      "velocity": 103,
      "chip": "ym2612"
    },
    {
      "channel": 1,
      "note": 45,
      "start": 10.3365,
      "duration": 0.022,
      "velocity": 88,
      "chip": "ym2612"
    },
    {
      "channel": 0,
      "note": 93,
      "start": 10.3392,
      "duration": 0.0263,
      "velocity": 103,
      "chip": "ym2612"
    },
    {
      "channel": 2,
      "note": 48,
      "start": 10.3421,
      "duration": 0.0237,
      "velocity": 110,
      "chip": "ym2612"
    },
    {
      "channel": 3,
      "note": 48,
      "start": 10.3449,
      "duration": 0.0207,
      "velocity": 110,
      "chip": "ym2612"
    },
    {
      "channel": 4,
      "note": 60,
      "start": 10.3487,
      "duration": 0.0171,
      "velocity": 79,
      "chip": "ym2612"
    },
    {
      "channel": 1,
      "note": 93,
      "start": 10.3768,
      "duration": 0.0297,
      "velocity": 103,
      "chip": "ym2612"
    },
    {
      "channel": 2,
      "note": 50,
      "start": 10.3797,
      "duration": 0.0334,
      "velocity": 110,
      "chip": "ym2612"
    },
    {
      "channel": 3,
      "note": 50,
      "start": 10.3826,
      "duration": 0.0304,
      "velocity": 110,
      "chip": "ym2612"
    },
    {
      "channel": 0,
      "note": 62,
      "start": 10.3865,
      "duration": 0.0264,
      "velocity": 79,
      "chip": "ym2612"
    },
    {
      "channel": 4,
      "note": 45,
      "start": 10.4519,
      "duration": 0.0689,
      "velocity": 88,
      "chip": "ym2612"
    },
    {
      "channel": 1,
      "note": 93,
      "start": 10.4543,
      "duration": 0.0498,
      "velocity": 103,
      "chip": "ym2612"
    },
    {
      "channel": 0,
      "note": 93,
      "start": 10.5273,
      "duration": 0.0287,
      "velocity": 103,
      "chip": "ym2612"
    },
    {
      "channel": 2,
      "note": 50,
      "start": 10.5303,
      "duration": 0.0551,
      "velocity": 110,
      "chip": "ym2612"
    },
    {
      "channel": 3,
      "note": 50,
      "start": 10.5333,
      "duration": 0.0519,
      "velocity": 110,
      "chip": "ym2612"
    },
    {
      "channel": 1,
      "note": 62,
      "start": 10.5361,
      "duration": 0.0348,
      "velocity": 79,
      "chip": "ym2612"
    },
    {
      "channel": 4,
      "note": 45,
      "start": 10.6039,
      "duration": 0.0224,
      "velocity": 88,
      "chip": "ym2612"
    },
    {
      "channel": 0,
      "note": 93,
      "start": 10.6066,
      "duration": 0.027,
      "velocity": 103,
      "chip": "ym2612"
    },
    {
      "channel": 2,
      "note": 48,
      "start": 10.6094,
      "duration": 0.0244,
      "velocity": 110,
      "chip": "ym2612"
    },
    {
      "channel": 3,
      "note": 48,
      "start": 10.6132,
      "duration": 0.0205,
      "velocity": 110,
      "chip": "ym2612"
    },
    {
      "channel": 1,
      "note": 60,
      "start": 10.6159,
      "duration": 0.0178,
      "velocity": 79,
      "chip": "ym2612"
    },
    {
      "channel": 4,
      "note": 45,
      "start": 10.6479,
      "duration": 0.0437,
      "velocity": 88,
      "chip": "ym2612"
    },
    {
      "channel": 0,
      "note": 93,
      "start": 10.6503,
      "duration": 0.0267,
      "velocity": 103,
      "chip": "ym2612"
    },
    {
      "channel": 2,
      "note": 50,
      "start": 10.6534,
      "duration": 0.0537,
      "velocity": 110,
      "chip": "ym2612"
    },
    {
      "channel": 3,
      "note": 50,
      "start": 10.6575,
      "duration": 0.0495,
      "velocity": 110,
      "chip": "ym2612"
    },
    {
      "channel": 1,
      "note": 62,
      "start": 10.66,
      "duration": 0.0469,
      "velocity": 79,
      "chip": "ym2612"
    },
    {
      "channel": 0,
      "note": 93,
      "start": 10.7242,
      "duration": 0.0477,
      "velocity": 103,
      "chip": "ym2612"
    },
    {
      "channel": 2,
      "note": 48,
      "start": 10.7271,
      "duration": 0.0452,
      "velocity": 110,
      "chip": "ym2612"
    },
    {
      "channel": 3,
      "note": 48,
      "start": 10.73,
      "duration": 0.0421,
      "velocity": 110,
      "chip": "ym2612"
    },
    {
      "channel": 4,
      "note": 60,
      "start": 10.7329,
      "duration": 0.0393,
      "velocity": 79,
      "chip": "ym2612"
    },
    {
      "channel": 1,
      "note": 93,
      "start": 10.7917,
      "duration": 0.0635,
      "velocity": 103,
      "chip": "ym2612"
    },
    {
      "channel": 2,
      "note": 45,
      "start": 10.795,
      "duration": 0.1105,
      "velocity": 110,
      "chip": "ym2612"
    },
    {
      "channel": 3,
      "note": 45,
      "start": 10.798,
      "duration": 0.1241,
      "velocity": 110,
      "chip": "ym2612"
    },
    {
      "channel": 5,
      "note": 57,
      "start": 10.8007,
      "duration": 0.1215,
      "velocity": 79,
      "chip": "ym2612"
    },
    {
      "channel": 0,
      "note": 93,
      "start": 10.9585,
      "duration": 0.0469,
      "velocity": 103,
      "chip": "ym2612"
    },
    {
      "channel": 4,
      "note": 45,
      "start": 11.0451,
      "duration": 0.0499,
      "velocity": 88,
      "chip": "ym2612"
    },
    {
      "channel": 1,
      "note": 93,
      "start": 11.0477,
      "duration": 0.0258,
      "velocity": 103,
      "chip": "ym2612"
    },
    {
      "channel": 2,
      "note": 57,
      "start": 11.0507,
      "duration": 0.3124,
      "velocity": 110,
      "chip": "ym2612"
    },
    {
      "channel": 3,
      "note": 57,
      "start": 11.0535,
      "duration": 0.3094,
      "velocity": 110,
      "chip": "ym2612"
    },
    {
      "channel": 0,
      "note": 93,
      "start": 11.1207,
      "duration": 0.0258,
      "velocity": 103,
      "chip": "ym2612"
    },
    {
      "channel": 1,
      "note": 93,
      "start": 11.158,
      "duration": 0.0548,
      "velocity": 103,
      "chip": "ym2612"
    },
    {
      "channel": 4,
      "note": 67,
      "start": 11.1613,
      "duration": 0.0517,
      "velocity": 79,
      "chip": "ym2612"
    },
    {
      "channel": 0,
      "note": 93,
      "start": 11.3157,
      "duration": 0.0636,
      "velocity": 103,
      "chip": "ym2612"
    },
    {
      "channel": 1,
      "note": 93,
      "start": 11.4027,
      "duration": 0.0278,
      "velocity": 103,
      "chip": "ym2612"
    },
    {
      "channel": 2,
      "note": 55,
      "start": 11.4057,
      "duration": 0.3485,
      "velocity": 110,
      "chip": "ym2612"
    },
    {
      "channel": 3,
      "note": 55,
      "start": 11.4084,
      "duration": 0.3456,
      "velocity": 110,
      "chip": "ym2612"
    },
    {
      "channel": 0,
      "note": 93,
      "start": 11.477,
      "duration": 0.0505,
      "velocity": 103,
      "chip": "ym2612"
    },
    {
      "channel": 4,
      "note": 67,
      "start": 11.4799,
      "duration": 0.0478,
      "velocity": 79,
      "chip": "ym2612"
    },
    {
      "channel": 1,
      "note": 93,
      "start": 11.5638,
      "duration": 0.0471,
      "velocity": 103,
      "chip": "ym2612"
    },
    {
      "channel": 0,
      "note": 45,
      "start": 11.7341,
      "duration": 0.0468,
      "velocity": 88,
      "chip": "ym2612"
    },
    {
      "channel": 4,
      "note": 93,
      "start": 11.7366,
      "duration": 0.0175,
      "velocity": 103,
      "chip": "ym2612"
    },
    {
      "channel": 1,
      "note": 93,
      "start": 11.7709,
      "duration": 0.0242,
      "velocity": 103,
      "chip": "ym2612"
    },
    {
      "channel": 2,
      "note": 54,
      "start": 11.7736,
      "duration": 0.2469,
      "velocity": 110,
      "chip": "ym2612"
    },
    {
      "channel": 3,
      "note": 54,
      "start": 11.7771,
      "duration": 0.2433,
      "velocity": 110,
      "chip": "ym2612"
    },
    {
      "channel": 4,
      "note": 67,
      "start": 11.7796,
      "duration": 0.0155,
      "velocity": 79,
      "chip": "ym2612"
    },
    {
      "channel": 0,
      "note": 93,
      "start": 11.849,
      "duration": 0.0371,
      "velocity": 103,
      "chip": "ym2612"
    },
    {
      "channel": 1,
      "note": 45,
      "start": 11.9259,
      "duration": 0.0415,
      "velocity": 88,
      "chip": "ym2612"
    },
    {
      "channel": 4,
      "note": 93,
      "start": 11.9283,
      "duration": 0.0169,
      "velocity": 103,
      "chip": "ym2612"
    },
    {
      "channel": 0,
      "note": 93,
      "start": 11.999,
      "duration": 0.0212,
      "velocity": 103,
      "chip": "ym2612"
    },
    {
      "channel": 4,
      "note": 67,
      "start": 12.0023,
      "duration": 0.0181,
      "velocity": 79,
      "chip": "ym2612"
    },
    {
      "channel": 1,
      "note": 93,
      "start": 12.0429,
      "duration": 0.0187,
      "velocity": 103,
      "chip": "ym2612"
    },
    {
      "channel": 2,
      "note": 52,
      "start": 12.0461,
      "duration": 0.2181,
      "velocity": 110,
      "chip": "ym2612"
    },
    {
      "channel": 3,
      "note": 52,
      "start": 12.0491,
      "duration": 0.2149,
      "velocity": 110,
      "chip": "ym2612"
    },
    {
      "channel": 0,
      "note": 93,
      "start": 12.1159,
      "duration": 0.0313,
      "velocity": 103,
      "chip": "ym2612"
    },
    {
      "channel": 1,
      "note": 93,
      "start": 12.1835,
      "duration": 0.0637,
      "velocity": 103,
      "chip": "ym2612"
    },
    {
      "channel": 4,
      "note": 67,
      "start": 12.1868,
      "duration": 0.094,
      "velocity": 79,
      "chip": "ym2612"
    },
    {
      "channel": 0,
      "note": 93,
      "start": 12.3501,
      "duration": 0.0637,
      "velocity": 103,
      "chip": "ym2612"
    },
    {
      "channel": 2,
      "note": 45,
      "start": 12.3533,
      "duration": 0.0775,
      "velocity": 110,
      "chip": "ym2612"
    },
    {
      "channel": 3,
      "note": 45,
      "start": 12.3563,
      "duration": 0.0744,
      "velocity": 110,
      "chip": "ym2612"
    },
    {
      "channel": 5,
      "note": 67,
      "start": 12.3592,
      "duration": 0.055,
      "velocity": 79,
      "chip": "ym2612"
    },
    {
      "channel": 1,
      "note": 45,
      "start": 12.4371,
      "duration": 0.0424,
      "velocity": 88,
      "chip": "ym2612"
    },
    {
      "channel": 4,
      "note": 93,
      "start": 12.4398,
      "duration": 0.0258,
      "velocity": 103,
      "chip": "ym2612"
    },
    {
      "channel": 0,
      "note": 93,
      "start": 12.5116,
      "duration": 0.0306,
      "velocity": 103,
      "chip": "ym2612"
    },
    {
      "channel": 2,
      "note": 57,
      "start": 12.5144,
      "duration": 0.028,
      "velocity": 110,
      "chip": "ym2612"
    },
    {
      "channel": 3,
      "note": 57,
      "start": 12.5181,
      "duration": 0.0243,
      "velocity": 110,
      "chip": "ym2612"
    },
    {
      "channel": 4,
      "note": 67,
      "start": 12.521,
      "duration": 0.0285,
      "velocity": 79,
      "chip": "ym2612"
    },
    {
      "channel": 1,
      "note": 93,
      "start": 12.5534,
      "duration": 0.0533,
      "velocity": 103,
      "chip": "ym2612"
    },
    {
      "channel": 0,
      "note": 93,
      "start": 12.7096,
      "duration": 0.0637,
      "velocity": 103,
      "chip": "ym2612"
    },
    {
      "channel": 2,
      "note": 57,
      "start": 12.7128,
      "duration": 0.0275,
      "velocity": 110,
      "chip": "ym2612"
    },
    {
      "channel": 3,
      "note": 57,
      "start": 12.7158,
      "duration": 0.0243,
      "velocity": 110,
      "chip": "ym2612"
    },
    {
      "channel": 1,
      "note": 93,
      "start": 12.7962,
      "duration": 0.0288,
      "velocity": 103,
      "chip": "ym2612"
    },
    {
      "channel": 2,
      "note": 55,
      "start": 12.7991,
      "duration": 0.0339,
      "velocity": 110,
      "chip": "ym2612"
    },
    {
      "channel": 3,
      "note": 55,
      "start": 12.8019,
      "duration": 0.0309,
      "velocity": 110,
      "chip": "ym2612"
    },
    {
      "channel": 4,
      "note": 67,
      "start": 12.805,
      "duration": 0.028,
      "velocity": 79,
      "chip": "ym2612"
    },
    {
      "channel": 0,
      "note": 93,
      "start": 12.8728,
      "duration": 0.0496,
      "velocity": 103,
      "chip": "ym2612"
    },
    {
      "channel": 1,
      "note": 93,
      "start": 12.9419,
      "duration": 0.0637,
      "velocity": 103,
      "chip": "ym2612"
    },
    {
      "channel": 2,
      "note": 55,
      "start": 12.9449,
      "duration": 0.0778,
      "velocity": 110,
      "chip": "ym2612"
    },
    {
      "channel": 3,
      "note": 55,
      "start": 12.9475,
      "duration": 0.0748,
      "velocity": 110,
      "chip": "ym2612"
    },
    {
      "channel": 4,
      "note": 45,
      "start": 13.1124,
      "duration": 0.0477,
      "velocity": 88,
      "chip": "ym2612"
    },
    {
      "channel": 0,
      "note": 93,
      "start": 13.1148,
      "duration": 0.0244,
      "velocity": 103,
      "chip": "ym2612"
    },
    {
      "channel": 1,
      "note": 93,
      "start": 13.1485,
      "duration": 0.0298,
      "velocity": 103,
      "chip": "ym2612"
    },
    {
      "channel": 2,
      "note": 54,
      "start": 13.1519,
      "duration": 0.2232,
      "velocity": 110,
      "chip": "ym2612"
    },
    {
      "channel": 3,
      "note": 54,
      "start": 13.1561,
      "duration": 0.2188,
      "velocity": 110,
      "chip": "ym2612"
    },
    {
      "channel": 0,
      "note": 67,
      "start": 13.1588,
      "duration": 0.0266,
      "velocity": 79,
      "chip": "ym2612"
    },
    {
      "channel": 4,
      "note": 45,
      "start": 13.2291,
      "duration": 0.0171,
      "velocity": 88,
      "chip": "ym2612"
    },
    {
      "channel": 1,
      "note": 93,
      "start": 13.2319,
      "duration": 0.0214,
      "velocity": 103,
      "chip": "ym2612"
    },
    {
      "channel": 4,
      "note": 45,
      "start": 13.2647,
      "duration": 0.0559,
      "velocity": 88,
      "chip": "ym2612"
    },
    {
      "channel": 0,
      "note": 93,
      "start": 13.2672,
      "duration": 0.0241,
      "velocity": 103,
      "chip": "ym2612"
    },
    {
      "channel": 1,
      "note": 93,
      "start": 13.3377,
      "duration": 0.0538,
      "velocity": 103,
      "chip": "ym2612"
    },
    {
      "channel": 0,
      "note": 67,
      "start": 13.3416,
      "duration": 0.0666,
      "velocity": 79,
      "chip": "ym2612"
    },
    {
      "channel": 4,
      "note": 93,
      "start": 13.4153,
      "duration": 0.0278,
      "velocity": 103,
      "chip": "ym2612"
    },
    {
      "channel": 2,
      "note": 52,
      "start": 13.418,
      "duration": 0.1896,
      "velocity": 110,
      "chip": "ym2612"
    },
    {
      "channel": 3,
      "note": 52,
      "start": 13.4209,
      "duration": 0.1865,
      "velocity": 110,
      "chip": "ym2612"
    },
    {
      "channel": 1,
      "note": 93,
      "start": 13.4895,
      "duration": 0.0512,
      "velocity": 103,
      "chip": "ym2612"
    },
    {
      "channel": 4,
      "note": 93,
      "start": 13.5612,
      "duration": 0.0629,
      "velocity": 103,
      "chip": "ym2612"
    },
    {
      "channel": 0,
      "note": 67,
      "start": 13.5643,
      "duration": 0.0763,
      "velocity": 79,
      "chip": "ym2612"
    },
    {
      "channel": 1,
      "note": 93,
      "start": 13.7271,
      "duration": 0.0637,
      "velocity": 103,
      "chip": "ym2612"
    },
    {
      "channel": 5,
      "note": 67,
      "start": 13.7302,
      "duration": 0.0773,
      "velocity": 79,
      "chip": "ym2612"
    },
    {
      "channel": 3,
      "note": 45,
      "start": 13.8141,
      "duration": 0.0564,
      "velocity": 88,
      "chip": "ym2612"
    },
    {
      "channel": 4,
      "note": 93,
      "start": 13.8166,
      "duration": 0.0252,
      "velocity": 103,
      "chip": "ym2612"
    },
    {
      "channel": 2,
      "note": 57,
      "start": 13.8195,
      "duration": 0.2444,
      "velocity": 110,
      "chip": "ym2612"
    },
    {
      "channel": 0,
      "note": 57,
      "start": 13.8222,
      "duration": 0.2414,
      "velocity": 110,
      "chip": "ym2612"
    },
    {
      "channel": 1,
      "note": 93,
      "start": 13.8892,
      "duration": 0.0265,
      "velocity": 103,
      "chip": "ym2612"
    },
    {
      "channel": 4,
      "note": 67,
      "start": 13.892,
      "duration": 0.031,
      "velocity": 79,
      "chip": "ym2612"
    },
    {
      "channel": 3,
      "note": 93,
      "start": 13.9268,
      "duration": 0.0536,
      "velocity": 103,
      "chip": "ym2612"
    },
    {
      "channel": 1,
      "note": 93,
      "start": 14.0833,
      "duration": 0.0636,
      "velocity": 103,
      "chip": "ym2612"
    },
    {
      "channel": 3,
      "note": 93,
      "start": 14.17,
      "duration": 0.0288,
      "velocity": 103,
      "chip": "ym2612"
    },
    {
      "channel": 2,
      "note": 55,
      "start": 14.1728,
      "duration": 0.3251,
      "velocity": 110,
      "chip": "ym2612"
    },
    {
      "channel": 0,
      "note": 55,
      "start": 14.1756,
      "duration": 0.3221,
      "velocity": 110,
      "chip": "ym2612"
    },
    {
      "channel": 4,
      "note": 67,
      "start": 14.1782,
      "duration": 0.0283,
      "velocity": 79,
      "chip": "ym2612"
    },
    {
      "channel": 1,
      "note": 93,
      "start": 14.2463,
      "duration": 0.0495,
      "velocity": 103,
      "chip": "ym2612"
    },
    {
      "channel": 3,
      "note": 93,
      "start": 14.3153,
      "duration": 0.0638,
      "velocity": 103,
      "chip": "ym2612"
    },
    {
      "channel": 4,
      "note": 45,
      "start": 14.4856,
      "duration": 0.0608,
      "velocity": 88,
      "chip": "ym2612"
    },
    {
      "channel": 1,
      "note": 93,
      "start": 14.4881,
      "duration": 0.0254,
      "velocity": 103,
      "chip": "ym2612"
    },
    {
      "channel": 3,
      "note": 93,
      "start": 14.5308,
      "duration": 0.0217,
      "velocity": 103,
      "chip": "ym2612"
    },
    {
      "channel": 2,
      "note": 54,
      "start": 14.5336,
      "duration": 0.2469,
      "velocity": 110,
      "chip": "ym2612"
    },
    {
      "channel": 0,
      "note": 54,
      "start": 14.5361,
      "duration": 0.2441,
      "velocity": 110,
      "chip": "ym2612"
    },
    {
      "channel": 1,
      "note": 67,
      "start": 14.5391,
      "duration": 0.0276,
      "velocity": 79,
      "chip": "ym2612"
    },
    {
      "channel": 4,
      "note": 93,
      "start": 14.6067,
      "duration": 0.0468,
      "velocity": 103,
      "chip": "ym2612"
    },
    {
      "channel": 3,
      "note": 45,
      "start": 14.6934,
      "duration": 0.0415,
      "velocity": 88,
      "chip": "ym2612"
    },
    {
      "channel": 1,
      "note": 93,
      "start": 14.6958,
      "duration": 0.0171,
      "velocity": 103,
      "chip": "ym2612"
    },
    {
      "channel": 4,
      "note": 93,
      "start": 14.7668,
      "duration": 0.0209,
      "velocity": 103,
      "chip": "ym2612"
    },
    {
      "channel": 1,
      "note": 67,
      "start": 14.7697,
      "duration": 0.0334,
      "velocity": 79,
      "chip": "ym2612"
    },
    {
      "channel": 3,
      "note": 93,
      "start": 14.8102,
      "duration": 0.0192,
      "velocity": 103,
      "chip": "ym2612"
    },
    {
      "channel": 2,
      "note": 52,
      "start": 14.8133,
      "duration": 0.3185,
      "velocity": 110,
      "chip": "ym2612"
    },
    {
      "channel": 0,
      "note": 52,
      "start": 14.8159,
      "duration": 0.3155,
      "velocity": 110,
      "chip": "ym2612"
    },
    {
      "channel": 4,
      "note": 93,
      "start": 14.8836,
      "duration": 0.0313,
      "velocity": 103,
      "chip": "ym2612"
    },
    {
      "channel": 3,
      "note": 93,
      "start": 14.9512,
      "duration": 0.047,
      "velocity": 103,
      "chip": "ym2612"
    },
    {
      "channel": 1,
      "note": 67,
      "start": 14.9542,
      "duration": 0.0773,
      "velocity": 79,
      "chip": "ym2612"
    },
    {
      "channel": 4,
      "note": 93,
      "start": 15.118,
      "duration": 0.0469,
      "velocity": 103,
      "chip": "ym2612"
    },
    {
      "channel": 1,
      "note": 69,
      "start": 15.1207,
      "duration": 0.0774,
      "velocity": 79,
      "chip": "ym2612"
    },
    {
      "channel": 5,
      "note": 67,
      "start": 15.124,
      "duration": 0.0244,
      "velocity": 79,
      "chip": "ym2612"
    },
    {
      "channel": 3,
      "note": 45,
      "start": 15.205,
      "duration": 0.0497,
      "velocity": 88,
      "chip": "ym2612"
    },
    {
      "channel": 0,
      "note": 93,
      "start": 15.2073,
      "duration": 0.0256,
      "velocity": 103,
      "chip": "ym2612"
    },
    {
      "channel": 2,
      "note": 57,
      "start": 15.2105,
      "duration": 0.0373,
      "velocity": 110,
      "chip": "ym2612"
    },
    {
      "channel": 4,
      "note": 57,
      "start": 15.2146,
      "duration": 0.033,
      "velocity": 110,
      "chip": "ym2612"
    },
    {
      "channel": 1,
      "note": 93,
      "start": 15.28,
      "duration": 0.0254,
      "velocity": 103,
      "chip": "ym2612"
    },
    {
      "channel": 0,
      "note": 93,
      "start": 15.3172,
      "duration": 0.0543,
      "velocity": 103,
      "chip": "ym2612"
    },
    {
      "channel": 2,
      "note": 45,
      "start": 15.32,
      "duration": 0.1019,
      "velocity": 110,
      "chip": "ym2612"
    },
    {
      "channel": 4,
      "note": 45,
      "start": 15.3226,
      "duration": 0.099,
      "velocity": 110,
      "chip": "ym2612"
    },
    {
      "channel": 3,
      "note": 57,
      "start": 15.3257,
      "duration": 0.146,
      "velocity": 79,
      "chip": "ym2612"
    },
    {
      "channel": 1,
      "note": 93,
      "start": 15.4747,
      "duration": 0.0635,
      "velocity": 103,
      "chip": "ym2612"
    },
    {
      "channel": 0,
      "note": 93,
      "start": 15.5622,
      "duration": 0.0273,
      "velocity": 103,
      "chip": "ym2612"
    },
    {
      "channel": 2,
      "note": 48,
      "start": 15.5652,
      "duration": 0.0394,
      "velocity": 110,
      "chip": "ym2612"
    },
    {
      "channel": 4,
      "note": 48,
      "start": 15.5679,
      "duration": 0.0366,
      "velocity": 110,
      "chip": "ym2612"
    },
    {
      "channel": 3,
      "note": 60,
      "start": 15.5707,
      "duration": 0.0266,
      "velocity": 79,
      "chip": "ym2612"
    },
    {
      "channel": 1,
      "note": 93,
      "start": 15.6372,
      "duration": 0.0498,
      "velocity": 103,
      "chip": "ym2612"
    },
    {
      "channel": 0,
      "note": 93,
      "start": 15.7064,
      "duration": 0.0639,
      "velocity": 103,
      "chip": "ym2612"
    },
    {
      "channel": 2,
      "note": 48,
      "start": 15.7094,
      "duration": 0.0946,
      "velocity": 110,
      "chip": "ym2612"
    },
    {
      "channel": 4,
      "note": 48,
      "start": 15.7121,
      "duration": 0.0917,
      "velocity": 110,
      "chip": "ym2612"
    },
    {
      "channel": 3,
      "note": 60,
      "start": 15.715,
      "duration": 0.0887,
      "velocity": 79,
      "chip": "ym2612"
    },
    {
      "channel": 1,
      "note": 45,
      "start": 15.8769,
      "duration": 0.0123,
      "velocity": 88,
      "chip": "ym2612"
    },
    {
      "channel": 0,
      "note": 93,
      "start": 15.8795,
      "duration": 0.0247,
      "velocity": 103,
      "chip": "ym2612"
    },
    {
      "channel": 3,
      "note": 93,
      "start": 15.9137,
      "duration": 0.0297,
      "velocity": 103,
      "chip": "ym2612"
    },
    {
      "channel": 2,
      "note": 50,
      "start": 15.9166,
      "duration": 0.0344,
      "velocity": 110,
      "chip": "ym2612"
    },
    {
      "channel": 4,
      "note": 50,
      "start": 15.9205,
      "duration": 0.0303,
      "velocity": 110,
      "chip": "ym2612"
    },
    {
      "channel": 1,
      "note": 62,
      "start": 15.923,
      "duration": 0.0278,
      "velocity": 79,
      "chip": "ym2612"
    },
    {
      "channel": 0,
      "note": 45,
      "start": 15.9914,
      "duration": 0.0691,
      "velocity": 88,
      "chip": "ym2612"
    },
    {
      "channel": 3,
      "note": 93,
      "start": 15.9941,
      "duration": 0.0497,
      "velocity": 103,
      "chip": "ym2612"
    },
    {
      "channel": 1,
      "note": 93,
      "start": 16.0671,
      "duration": 0.0283,
      "velocity": 103,
      "chip": "ym2612"
    },
    {
      "channel": 2,
      "note": 50,
      "start": 16.0697,
      "duration": 0.0339,
      "velocity": 110,
      "chip": "ym2612"
    },
    {
      "channel": 4,
      "note": 50,
      "start": 16.0723,
      "duration": 0.0312,
      "velocity": 110,
      "chip": "ym2612"
    },
    {
      "channel": 3,
      "note": 62,
      "start": 16.0749,
      "duration": 0.0355,
      "velocity": 79,
      "chip": "ym2612"
    },
    {
      "channel": 0,
      "note": 45,
      "start": 16.1431,
      "duration": 0.0199,
      "velocity": 88,
      "chip": "ym2612"
    },
    {
      "channel": 1,
      "note": 93,
      "start": 16.1458,
      "duration": 0.0249,
      "velocity": 103,
      "chip": "ym2612"
    },
    {
      "channel": 0,
      "note": 45,
      "start": 16.1856,
      "duration": 0.0424,
      "velocity": 88,
      "chip": "ym2612"
    },
    {
      "channel": 4,
      "note": 93,
      "start": 16.1882,
      "duration": 0.0251,
      "velocity": 103,
      "chip": "ym2612"
    },
    {
      "channel": 2,
      "note": 51,
      "start": 16.1911,
      "duration": 0.0372,
      "velocity": 110,
      "chip": "ym2612"
    },
    {
      "channel": 3,
      "note": 51,
      "start": 16.1939,
      "duration": 0.0342,
      "velocity": 110,
      "chip": "ym2612"
    },
    {
      "channel": 1,
      "note": 63,
      "start": 16.1975,
      "duration": 0.0306,
      "velocity": 79,
      "chip": "ym2612"
    },
    {
      "channel": 4,
      "note": 93,
      "start": 16.2592,
      "duration": 0.0473,
      "velocity": 103,
      "chip": "ym2612"
    },
    {
      "channel": 2,
      "note": 52,
      "start": 16.263,
      "duration": 0.0271,
      "velocity": 110,
      "chip": "ym2612"
    },
    {
      "channel": 3,
      "note": 52,
      "start": 16.2658,
      "duration": 0.0241,
      "velocity": 110,
      "chip": "ym2612"
    },
    {
      "channel": 0,
      "note": 64,
      "start": 16.2689,
      "duration": 0.0208,
      "velocity": 79,
      "chip": "ym2612"
    },
    {
      "channel": 1,
      "note": 93,
      "start": 16.3261,
      "duration": 0.0635,
      "velocity": 103,
      "chip": "ym2612"
    },
    {
      "channel": 2,
      "note": 55,
      "start": 16.3295,
      "duration": 0.1272,
      "velocity": 110,
      "chip": "ym2612"
    },
    {
      "channel": 3,
      "note": 55,
      "start": 16.3324,
      "duration": 0.124,
      "velocity": 110,
      "chip": "ym2612"
    },
    {
      "channel": 5,
      "note": 67,
      "start": 16.3351,
      "duration": 0.0882,
      "velocity": 79,
      "chip": "ym2612"
    },
    {
      "channel": 4,
      "note": 93,
      "start": 16.4931,
      "duration": 0.0467,
      "velocity": 103,
      "chip": "ym2612"
    }
  ]
}