{
  "track_name": "05 - Peabo's Party Jam",
  "duration_sec": 49.655,
  "sample_rate": 44100,
  "note_count": 840,
  "unique_pitches": 57,
  "pitch_range": 72,
  "avg_note_duration": 0.1003,
  "reconstruction_stats": {
    "notes_reconstructed": 840,
    "keyon_events": 840,
    "keyoff_events": 839,
    "orphan_keyons": 1,
    "unique_pitches": 57,
    "pitch_range": 72,
    "avg_duration_sec": 0.1003
  },
  "metadata": {
    "source": "T\\ToeJam & Earl in Panic on Funkotron\\05 - Peabo's Party Jam.vgz"
  },
  "notes": [
    {
      "channel": 0,
      "note": 59,
      "start": 0.0,
      "duration": 0.0366,
      "velocity": 125,
      "chip": "ym2612"
    },
    {
      "channel": 1,
      "note": 49,
      "start": 0.0124,
      "duration": 0.2574,
      "velocity": 127,
      "chip": "ym2612"
    },
    {
      "channel": 0,
      "note": 61,
      "start": 0.1239,
      "duration": 0.0959,
      "velocity": 125,
      "chip": "ym2612"
    },
    {
      "channel": 3,
      "note": 61,
      "start": 0.1571,
      "duration": 0.0628,
      "velocity": 125,
      "chip": "ym2612"
    },
    {
      "channel": 4,
      "note": 45,
      "start": 0.2734,
      "duration": 0.1799,
      "velocity": 122,
      "chip": "ym2612"
    },
    {
      "channel": 0,
      "note": 59,
      "start": 0.278,
      "duration": 0.0752,
      "velocity": 125,
      "chip": "ym2612"
    },
    {
      "channel": 0,
      "note": 61,
      "start": 0.4404,
      "duration": 0.0961,
      "velocity": 125,
      "chip": "ym2612"
    },
    {
      "channel": 5,
      "note": 61,
      "start": 0.5901,
      "duration": 0.0007,
      "velocity": 125,
      "chip": "ym2612"
    },
    {
      "channel": 2,
      "note": 58,
      "start": 0.5975,
      "duration": 0.0127,
      "velocity": 98,
      "chip": "ym2612"
    },
    {
      "channel": 2,
      "note": 59,
      "start": 0.7219,
      "duration": 0.045,
      "velocity": 98,
      "chip": "ym2612"
    },
    {
      "channel": 0,
      "note": 61,
      "start": 0.8705,
      "duration": 0.1295,
      "velocity": 125,
      "chip": "ym2612"
    },
    {
      "channel": 3,
      "note": 61,
      "start": 0.8875,
      "duration": 0.0459,
      "velocity": 125,
      "chip": "ym2612"
    },
    {
      "channel": 1,
      "note": 61,
      "start": 1.0222,
      "duration": 0.0778,
      "velocity": 127,
      "chip": "ym2612"
    },
    {
      "channel": 0,
      "note": 61,
      "start": 1.1715,
      "duration": 0.1119,
      "velocity": 125,
      "chip": "ym2612"
    },
    {
      "channel": 1,
      "note": 59,
      "start": 1.1743,
      "duration": 0.0758,
      "velocity": 127,
      "chip": "ym2612"
    },
    {
      "channel": 4,
      "note": 45,
      "start": 1.3371,
      "duration": 0.0631,
      "velocity": 122,
      "chip": "ym2612"
    },
    {
      "channel": 4,
      "note": 45,
      "start": 1.4867,
      "duration": 0.097,
      "velocity": 122,
      "chip": "ym2612"
    },
    {
      "channel": 0,
      "note": 59,
      "start": 1.4899,
      "duration": 0.0935,
      "velocity": 125,
      "chip": "ym2612"
    },
    {
      "channel": 1,
      "note": 56,
      "start": 1.4927,
      "duration": 0.0908,
      "velocity": 127,
      "chip": "ym2612"
    },
    {
      "channel": 5,
      "note": 61,
      "start": 1.6366,
      "duration": 0.0005,
      "velocity": 125,
      "chip": "ym2612"
    },
    {
      "channel": 1,
      "note": 55,
      "start": 1.6943,
      "duration": 0.0301,
      "velocity": 127,
      "chip": "ym2612"
    },
    {
      "channel": 1,
      "note": 54,
      "start": 1.7445,
      "duration": 0.0843,
      "velocity": 127,
      "chip": "ym2612"
    },
    {
      "channel": 3,
      "note": 61,
      "start": 1.8492,
      "duration": 0.0296,
      "velocity": 125,
      "chip": "ym2612"
    },
    {
      "channel": 3,
      "note": 61,
      "start": 1.8988,
      "duration": 0.03,
      "velocity": 125,
      "chip": "ym2612"
    },
    {
      "channel": 3,
      "note": 61,
      "start": 1.9656,
      "duration": 0.0132,
      "velocity": 125,
      "chip": "ym2612"
    },
    {
      "channel": 0,
      "note": 59,
      "start": 2.0172,
      "duration": 0.0949,
      "velocity": 125,
      "chip": "ym2612"
    },
    {
      "channel": 2,
      "note": 40,
      "start": 2.0219,
      "duration": 0.2239,
      "velocity": 111,
      "chip": "ym2612"
    },
    {
      "channel": 3,
      "note": 61,
      "start": 2.1658,
      "duration": 0.0464,
      "velocity": 125,
      "chip": "ym2612"
    },
    {
      "channel": 0,
      "note": 61,
      "start": 2.1695,
      "duration": 0.0926,
      "velocity": 125,
      "chip": "ym2612"
    },
    {
      "channel": 4,
      "note": 45,
      "start": 2.3154,
      "duration": 0.1634,
      "velocity": 122,
      "chip": "ym2612"
    },
    {
      "channel": 2,
      "note": 81,
      "start": 2.32,
      "duration": 0.2757,
      "velocity": 104,
      "chip": "ym2612"
    },
    {
      "channel": 0,
      "note": 59,
      "start": 2.3228,
      "duration": 0.0893,
      "velocity": 125,
      "chip": "ym2612"
    },
    {
      "channel": 0,
      "note": 61,
      "start": 2.4826,
      "duration": 0.0962,
      "velocity": 125,
      "chip": "ym2612"
    },
    {
      "channel": 5,
      "note": 52,
      "start": 2.4857,
      "duration": 0.0933,
      "velocity": 111,
      "chip": "ym2612"
    },
    {
      "channel": 1,
      "note": 61,
      "start": 2.6326,
      "duration": 0.0822,
      "velocity": 125,
      "chip": "ym2612"
    },
    {
      "channel": 3,
      "note": 64,
      "start": 2.6879,
      "duration": 0.0061,
      "velocity": 98,
      "chip": "ym2612"
    },
    {
      "channel": 4,
      "note": 61,
      "start": 2.9123,
      "duration": 0.0466,
      "velocity": 125,
      "chip": "ym2612"
    },
    {
      "channel": 0,
      "note": 61,
      "start": 2.9163,
      "duration": 0.1256,
      "velocity": 125,
      "chip": "ym2612"
    },
    {
      "channel": 3,
      "note": 58,
      "start": 2.9192,
      "duration": 0.0396,
      "velocity": 98,
      "chip": "ym2612"
    },
    {
      "channel": 2,
      "note": 52,
      "start": 3.0642,
      "duration": 0.1446,
      "velocity": 127,
      "chip": "ym2612"
    },
    {
      "channel": 0,
      "note": 61,
      "start": 3.2139,
      "duration": 0.1115,
      "velocity": 125,
      "chip": "ym2612"
    },
    {
      "channel": 2,
      "note": 54,
      "start": 3.2169,
      "duration": 0.1587,
      "velocity": 127,
      "chip": "ym2612"
    },
    {
      "channel": 1,
      "note": 45,
      "start": 3.3789,
      "duration": 0.0632,
      "velocity": 122,
      "chip": "ym2612"
    },
    {
      "channel": 1,
      "note": 45,
      "start": 3.5285,
      "duration": 0.0969,
      "velocity": 122,
      "chip": "ym2612"
    },
    {
      "channel": 0,
      "note": 59,
      "start": 3.5317,
      "duration": 0.0936,
      "velocity": 125,
      "chip": "ym2612"
    },
    {
      "channel": 2,
      "note": 55,
      "start": 3.5352,
      "duration": 0.1237,
      "velocity": 127,
      "chip": "ym2612"
    },
    {
      "channel": 5,
      "note": 61,
      "start": 3.6786,
      "duration": 0.0007,
      "velocity": 125,
      "chip": "ym2612"
    },
    {
      "channel": 2,
      "note": 56,
      "start": 3.8112,
      "duration": 0.0291,
      "velocity": 127,
      "chip": "ym2612"
    },
    {
      "channel": 2,
      "note": 59,
      "start": 3.8609,
      "duration": 0.0546,
      "velocity": 127,
      "chip": "ym2612"
    },
    {
      "channel": 0,
      "note": 64,
      "start": 4.0206,
      "duration": 0.0951,
      "velocity": 125,
      "chip": "ym2612"
    },
    {
      "channel": 3,
      "note": 52,
      "start": 4.0255,
      "duration": 0.1069,
      "velocity": 111,
      "chip": "ym2612"
    },
    {
      "channel": 0,
      "note": 66,
      "start": 4.1693,
      "duration": 0.0964,
      "velocity": 125,
      "chip": "ym2612"
    },
    {
      "channel": 3,
      "note": 54,
      "start": 4.1723,
      "duration": 0.1434,
      "velocity": 111,
      "chip": "ym2612"
    },
    {
      "channel": 4,
      "note": 61,
      "start": 4.1861,
      "duration": 0.0798,
      "velocity": 125,
      "chip": "ym2612"
    },
    {
      "channel": 1,
      "note": 45,
      "start": 4.3193,
      "duration": 0.1797,
      "velocity": 122,
      "chip": "ym2612"
    },
    {
      "channel": 0,
      "note": 64,
      "start": 4.3236,
      "duration": 0.0923,
      "velocity": 125,
      "chip": "ym2612"
    },
    {
      "channel": 0,
      "note": 66,
      "start": 4.4695,
      "duration": 0.1129,
      "velocity": 125,
      "chip": "ym2612"
    },
    {
      "channel": 2,
      "note": 52,
      "start": 4.6361,
      "duration": 0.0827,
      "velocity": 88,
      "chip": "ym2612"
    },
    {
      "channel": 5,
      "note": 61,
      "start": 4.6392,
      "duration": 0.0006,
      "velocity": 125,
      "chip": "ym2612"
    },
    {
      "channel": 2,
      "note": 54,
      "start": 4.7483,
      "duration": 0.1634,
      "velocity": 88,
      "chip": "ym2612"
    },
    {
      "channel": 0,
      "note": 58,
      "start": 4.9157,
      "duration": 0.0959,
      "velocity": 125,
      "chip": "ym2612"
    },
    {
      "channel": 4,
      "note": 61,
      "start": 4.9324,
      "duration": 0.0459,
      "velocity": 125,
      "chip": "ym2612"
    },
    {
      "channel": 3,
      "note": 63,
      "start": 5.0682,
      "duration": 0.0767,
      "velocity": 98,
      "chip": "ym2612"
    },
    {
      "channel": 0,
      "note": 61,
      "start": 5.2161,
      "duration": 0.112,
      "velocity": 125,
      "chip": "ym2612"
    },
    {
      "channel": 3,
      "note": 64,
      "start": 5.2194,
      "duration": 0.109,
      "velocity": 98,
      "chip": "ym2612"
    },
    {
      "channel": 1,
      "note": 45,
      "start": 5.3815,
      "duration": 0.0635,
      "velocity": 122,
      "chip": "ym2612"
    },
    {
      "channel": 1,
      "note": 45,
      "start": 5.5315,
      "duration": 0.0968,
      "velocity": 122,
      "chip": "ym2612"
    },
    {
      "channel": 0,
      "note": 61,
      "start": 5.5346,
      "duration": 0.0935,
      "velocity": 125,
      "chip": "ym2612"
    },
    {
      "channel": 5,
      "note": 64,
      "start": 5.538,
      "duration": 0.0905,
      "velocity": 127,
      "chip": "ym2612"
    },
    {
      "channel": 2,
      "note": 61,
      "start": 5.6815,
      "duration": 0.0947,
      "velocity": 125,
      "chip": "ym2612"
    },
    {
      "channel": 4,
      "note": 61,
      "start": 5.7401,
      "duration": 0.0359,
      "velocity": 127,
      "chip": "ym2612"
    },
    {
      "channel": 3,
      "note": 47,
      "start": 5.8125,
      "duration": 0.2469,
      "velocity": 88,
      "chip": "ym2612"
    },
    {
      "channel": 4,
      "note": 59,
      "start": 5.8181,
      "duration": 0.1413,
      "velocity": 127,
      "chip": "ym2612"
    },
    {
      "channel": 0,
      "note": 61,
      "start": 5.9632,
      "duration": 0.0293,
      "velocity": 125,
      "chip": "ym2612"
    },
    {
      "channel": 0,
      "note": 61,
      "start": 6.0125,
      "duration": 0.0302,
      "velocity": 125,
      "chip": "ym2612"
    },
    {
      "channel": 0,
      "note": 61,
      "start": 6.0628,
      "duration": 0.0297,
      "velocity": 125,
      "chip": "ym2612"
    },
    {
      "channel": 1,
      "note": 61,
      "start": 6.1309,
      "duration": 0.095,
      "velocity": 125,
      "chip": "ym2612"
    },
    {
      "channel": 5,
      "note": 49,
      "start": 6.1357,
      "duration": 0.1071,
      "velocity": 111,
      "chip": "ym2612"
    },
    {
      "channel": 0,
      "note": 61,
      "start": 6.2795,
      "duration": 0.0464,
      "velocity": 125,
      "chip": "ym2612"
    },
    {
      "channel": 1,
      "note": 61,
      "start": 6.2833,
      "duration": 0.0926,
      "velocity": 125,
      "chip": "ym2612"
    },
    {
      "channel": 2,
      "note": 45,
      "start": 6.4295,
      "duration": 0.1468,
      "velocity": 122,
      "chip": "ym2612"
    },
    {
      "channel": 1,
      "note": 61,
      "start": 6.4342,
      "duration": 0.0917,
      "velocity": 125,
      "chip": "ym2612"
    },
    {
      "channel": 1,
      "note": 61,
      "start": 6.5799,
      "duration": 0.1126,
      "velocity": 125,
      "chip": "ym2612"
    },
    {
      "channel": 5,
      "note": 49,
      "start": 6.5829,
      "duration": 0.0264,
      "velocity": 111,
      "chip": "ym2612"
    },
    {
      "channel": 3,
      "note": 47,
      "start": 6.7457,
      "duration": 0.0682,
      "velocity": 88,
      "chip": "ym2612"
    },
    {
      "channel": 4,
      "note": 61,
      "start": 6.7488,
      "duration": 0.0813,
      "velocity": 125,
      "chip": "ym2612"
    },
    {
      "channel": 0,
      "note": 59,
      "start": 6.7571,
      "duration": 0.0354,
      "velocity": 98,
      "chip": "ym2612"
    },
    {
      "channel": 3,
      "note": 49,
      "start": 6.8593,
      "duration": 0.1802,
      "velocity": 88,
      "chip": "ym2612"
    },
    {
      "channel": 0,
      "note": 58,
      "start": 6.8638,
      "duration": 0.109,
      "velocity": 98,
      "chip": "ym2612"
    },
    {
      "channel": 2,
      "note": 61,
      "start": 7.0266,
      "duration": 0.0464,
      "velocity": 125,
      "chip": "ym2612"
    },
    {
      "channel": 1,
      "note": 61,
      "start": 7.0304,
      "duration": 0.0923,
      "velocity": 125,
      "chip": "ym2612"
    },
    {
      "channel": 0,
      "note": 68,
      "start": 7.1773,
      "duration": 0.0954,
      "velocity": 98,
      "chip": "ym2612"
    },
    {
      "channel": 4,
      "note": 71,
      "start": 7.1807,
      "duration": 0.0756,
      "velocity": 83,
      "chip": "ym2612"
    },
    {
      "channel": 1,
      "note": 61,
      "start": 7.3274,
      "duration": 0.112,
      "velocity": 125,
      "chip": "ym2612"
    },
    {
      "channel": 5,
      "note": 45,
      "start": 7.4928,
      "duration": 0.0635,
      "velocity": 122,
      "chip": "ym2612"
    },
    {
      "channel": 0,
      "note": 61,
      "start": 7.4973,
      "duration": 0.1088,
      "velocity": 98,
      "chip": "ym2612"
    },
    {
      "channel": 4,
      "note": 64,
      "start": 7.5002,
      "duration": 0.0895,
      "velocity": 83,
      "chip": "ym2612"
    },
    {
      "channel": 5,
      "note": 45,
      "start": 7.6427,
      "duration": 0.0969,
      "velocity": 122,
      "chip": "ym2612"
    },
    {
      "channel": 1,
      "note": 61,
      "start": 7.6465,
      "duration": 0.1263,
      "velocity": 125,
      "chip": "ym2612"
    },
    {
      "channel": 0,
      "note": 66,
      "start": 7.649,
      "duration": 0.1237,
      "velocity": 98,
      "chip": "ym2612"
    },
    {
      "channel": 4,
      "note": 70,
      "start": 7.6517,
      "duration": 0.1214,
      "velocity": 83,
      "chip": "ym2612"
    },
    {
      "channel": 3,
      "note": 61,
      "start": 7.7927,
      "duration": 0.0974,
      "velocity": 125,
      "chip": "ym2612"
    },
    {
      "channel": 0,
      "note": 64,
      "start": 7.8001,
      "duration": 0.0306,
      "velocity": 98,
      "chip": "ym2612"
    },
    {
      "channel": 4,
      "note": 68,
      "start": 7.8024,
      "duration": 0.0284,
      "velocity": 83,
      "chip": "ym2612"
    },
    {
      "channel": 2,
      "note": 54,
      "start": 7.805,
      "duration": 0.0366,
      "velocity": 127,
      "chip": "ym2612"
    },
    {
      "channel": 0,
      "note": 61,
      "start": 7.8603,
      "duration": 0.0342,
      "velocity": 98,
      "chip": "ym2612"
    },
    {
      "channel": 4,
      "note": 64,
      "start": 7.8625,
      "duration": 0.0276,
      "velocity": 83,
      "chip": "ym2612"
    },
    {
      "channel": 2,
      "note": 55,
      "start": 7.8647,
      "duration": 0.0299,
      "velocity": 127,
      "chip": "ym2612"
    },
    {
      "channel": 1,
      "note": 54,
      "start": 7.908,
      "duration": 0.0791,
      "velocity": 88,
      "chip": "ym2612"
    },
    {
      "channel": 0,
      "note": 59,
      "start": 7.9165,
      "duration": 0.059,
      "velocity": 98,
      "chip": "ym2612"
    },
    {
      "channel": 4,
      "note": 63,
      "start": 7.9188,
      "duration": 0.0234,
      "velocity": 83,
      "chip": "ym2612"
    },
    {
      "channel": 2,
      "note": 56,
      "start": 7.9213,
      "duration": 0.0317,
      "velocity": 127,
      "chip": "ym2612"
    },
    {
      "channel": 3,
      "note": 61,
      "start": 7.9625,
      "duration": 0.0076,
      "velocity": 125,
      "chip": "ym2612"
    },
    {
      "channel": 3,
      "note": 61,
      "start": 7.9784,
      "duration": 0.0089,
      "velocity": 125,
      "chip": "ym2612"
    },
    {
      "channel": 3,
      "note": 61,
      "start": 7.9963,
      "duration": 0.008,
      "velocity": 125,
      "chip": "ym2612"
    },
    {
      "channel": 4,
      "note": 59,
      "start": 8.0141,
      "duration": 0.0411,
      "velocity": 125,
      "chip": "ym2612"
    },
    {
      "channel": 4,
      "note": 61,
      "start": 8.1088,
      "duration": 0.0965,
      "velocity": 125,
      "chip": "ym2612"
    },
    {
      "channel": 3,
      "note": 61,
      "start": 8.1255,
      "duration": 0.0797,
      "velocity": 125,
      "chip": "ym2612"
    },
    {
      "channel": 2,
      "note": 45,
      "start": 8.2589,
      "duration": 0.1798,
      "velocity": 122,
      "chip": "ym2612"
    },
    {
      "channel": 4,
      "note": 59,
      "start": 8.2635,
      "duration": 0.0751,
      "velocity": 125,
      "chip": "ym2612"
    },
    {
      "channel": 1,
      "note": 49,
      "start": 8.5749,
      "duration": 0.0629,
      "velocity": 88,
      "chip": "ym2612"
    },
    {
      "channel": 0,
      "note": 61,
      "start": 8.5778,
      "duration": 0.0929,
      "velocity": 125,
      "chip": "ym2612"
    },
    {
      "channel": 1,
      "note": 49,
      "start": 8.6885,
      "duration": 0.1802,
      "velocity": 88,
      "chip": "ym2612"
    },
    {
      "channel": 3,
      "note": 49,
      "start": 8.6937,
      "duration": 0.0418,
      "velocity": 83,
      "chip": "ym2612"
    },
    {
      "channel": 4,
      "note": 59,
      "start": 8.8561,
      "duration": 0.0959,
      "velocity": 125,
      "chip": "ym2612"
    },
    {
      "channel": 2,
      "note": 49,
      "start": 8.8594,
      "duration": 0.0595,
      "velocity": 127,
      "chip": "ym2612"
    },
    {
      "channel": 5,
      "note": 61,
      "start": 8.8727,
      "duration": 0.0461,
      "velocity": 125,
      "chip": "ym2612"
    },
    {
      "channel": 3,
      "note": 71,
      "start": 8.8759,
      "duration": 0.0262,
      "velocity": 83,
      "chip": "ym2612"
    },
    {
      "channel": 0,
      "note": 71,
      "start": 8.8786,
      "duration": 0.0234,
      "velocity": 83,
      "chip": "ym2612"
    },
    {
      "channel": 1,
      "note": 84,
      "start": 9.0072,
      "duration": 0.0949,
      "velocity": 83,
      "chip": "ym2612"
    },
    {
      "channel": 0,
      "note": 82,
      "start": 9.0102,
      "duration": 0.0919,
      "velocity": 83,
      "chip": "ym2612"
    },
    {
      "channel": 3,
      "note": 91,
      "start": 9.0128,
      "duration": 0.0895,
      "velocity": 83,
      "chip": "ym2612"
    },
    {
      "channel": 5,
      "note": 82,
      "start": 9.0163,
      "duration": 0.0861,
      "velocity": 83,
      "chip": "ym2612"
    },
    {
      "channel": 2,
      "note": 84,
      "start": 9.0191,
      "duration": 0.0835,
      "velocity": 83,
      "chip": "ym2612"
    },
    {
      "channel": 4,
      "note": 61,
      "start": 9.022,
      "duration": 0.1134,
      "velocity": 127,
      "chip": "ym2612"
    },
    {
      "channel": 0,
      "note": 61,
      "start": 9.1576,
      "duration": 0.0408,
      "velocity": 125,
      "chip": "ym2612"
    },
    {
      "channel": 4,
      "note": 59,
      "start": 9.1611,
      "duration": 0.0912,
      "velocity": 127,
      "chip": "ym2612"
    },
    {
      "channel": 1,
      "note": 92,
      "start": 9.1892,
      "duration": 0.0961,
      "velocity": 83,
      "chip": "ym2612"
    },
    {
      "channel": 3,
      "note": 83,
      "start": 9.1915,
      "duration": 0.0939,
      "velocity": 83,
      "chip": "ym2612"
    },
    {
      "channel": 5,
      "note": 85,
      "start": 9.1943,
      "duration": 0.0913,
      "velocity": 83,
      "chip": "ym2612"
    },
    {
      "channel": 2,
      "note": 73,
      "start": 9.1976,
      "duration": 0.0549,
      "velocity": 83,
      "chip": "ym2612"
    },
    {
      "channel": 0,
      "note": 71,
      "start": 9.2004,
      "duration": 0.0517,
      "velocity": 83,
      "chip": "ym2612"
    },
    {
      "channel": 0,
      "note": 45,
      "start": 9.3221,
      "duration": 0.0633,
      "velocity": 122,
      "chip": "ym2612"
    },
    {
      "channel": 4,
      "note": 59,
      "start": 9.3266,
      "duration": 0.0924,
      "velocity": 125,
      "chip": "ym2612"
    },
    {
      "channel": 2,
      "note": 61,
      "start": 9.3298,
      "duration": 0.006,
      "velocity": 83,
      "chip": "ym2612"
    },
    {
      "channel": 0,
      "note": 45,
      "start": 9.4718,
      "duration": 0.0968,
      "velocity": 122,
      "chip": "ym2612"
    },
    {
      "channel": 4,
      "note": 59,
      "start": 9.4756,
      "duration": 0.0933,
      "velocity": 125,
      "chip": "ym2612"
    },
    {
      "channel": 1,
      "note": 56,
      "start": 9.4788,
      "duration": 0.1233,
      "velocity": 127,
      "chip": "ym2612"
    },
    {
      "channel": 2,
      "note": 56,
      "start": 9.4896,
      "duration": 0.0627,
      "velocity": 83,
      "chip": "ym2612"
    },
    {
      "channel": 3,
      "note": 61,
      "start": 9.6219,
      "duration": 0.0951,
      "velocity": 125,
      "chip": "ym2612"
    },
    {
      "channel": 2,
      "note": 68,
      "start": 9.6286,
      "duration": 0.0398,
      "velocity": 83,
      "chip": "ym2612"
    },
    {
      "channel": 0,
      "note": 73,
      "start": 9.6309,
      "duration": 0.0373,
      "velocity": 83,
      "chip": "ym2612"
    },
    {
      "channel": 1,
      "note": 55,
      "start": 9.688,
      "duration": 0.0395,
      "velocity": 127,
      "chip": "ym2612"
    },
    {
      "channel": 0,
      "note": 66,
      "start": 9.7315,
      "duration": 0.0985,
      "velocity": 83,
      "chip": "ym2612"
    },
    {
      "channel": 2,
      "note": 73,
      "start": 9.7348,
      "duration": 0.1454,
      "velocity": 83,
      "chip": "ym2612"
    },
    {
      "channel": 1,
      "note": 54,
      "start": 9.7371,
      "duration": 0.0761,
      "velocity": 127,
      "chip": "ym2612"
    },
    {
      "channel": 4,
      "note": 61,
      "start": 9.8339,
      "duration": 0.0295,
      "velocity": 125,
      "chip": "ym2612"
    },
    {
      "channel": 1,
      "note": 52,
      "start": 9.838,
      "duration": 0.1252,
      "velocity": 127,
      "chip": "ym2612"
    },
    {
      "channel": 0,
      "note": 64,
      "start": 9.8674,
      "duration": 0.1125,
      "velocity": 83,
      "chip": "ym2612"
    },
    {
      "channel": 4,
      "note": 61,
      "start": 9.8835,
      "duration": 0.0298,
      "velocity": 125,
      "chip": "ym2612"
    },
    {
      "channel": 4,
      "note": 61,
      "start": 9.9337,
      "duration": 0.0298,
      "velocity": 125,
      "chip": "ym2612"
    },
    {
      "channel": 3,
      "note": 59,
      "start": 9.9851,
      "duration": 0.1116,
      "velocity": 125,
      "chip": "ym2612"
    },
    {
      "channel": 4,
      "note": 61,
      "start": 10.1507,
      "duration": 0.0461,
      "velocity": 125,
      "chip": "ym2612"
    },
    {
      "channel": 3,
      "note": 61,
      "start": 10.1545,
      "duration": 0.0921,
      "velocity": 125,
      "chip": "ym2612"
    },
    {
      "channel": 5,
      "note": 45,
      "start": 10.3,
      "duration": 0.1467,
      "velocity": 122,
      "chip": "ym2612"
    },
    {
      "channel": 2,
      "note": 81,
      "start": 10.3038,
      "duration": 0.2763,
      "velocity": 104,
      "chip": "ym2612"
    },
    {
      "channel": 3,
      "note": 59,
      "start": 10.3066,
      "duration": 0.0901,
      "velocity": 125,
      "chip": "ym2612"
    },
    {
      "channel": 1,
      "note": 52,
      "start": 10.6166,
      "duration": 0.0786,
      "velocity": 88,
      "chip": "ym2612"
    },
    {
      "channel": 0,
      "note": 61,
      "start": 10.6196,
      "duration": 0.0808,
      "velocity": 125,
      "chip": "ym2612"
    },
    {
      "channel": 1,
      "note": 52,
      "start": 10.7298,
      "duration": 0.1804,
      "velocity": 88,
      "chip": "ym2612"
    },
    {
      "channel": 4,
      "note": 52,
      "start": 10.7352,
      "duration": 0.0251,
      "velocity": 83,
      "chip": "ym2612"
    },
    {
      "channel": 3,
      "note": 61,
      "start": 10.8972,
      "duration": 0.0464,
      "velocity": 125,
      "chip": "ym2612"
    },
    {
      "channel": 2,
      "note": 59,
      "start": 10.9013,
      "duration": 0.0923,
      "velocity": 125,
      "chip": "ym2612"
    },
    {
      "channel": 4,
      "note": 71,
      "start": 10.9145,
      "duration": 0.0459,
      "velocity": 83,
      "chip": "ym2612"
    },
    {
      "channel": 0,
      "note": 73,
      "start": 10.9172,
      "duration": 0.0429,
      "velocity": 83,
      "chip": "ym2612"
    },
    {
      "channel": 5,
      "note": 52,
      "start": 11.0488,
      "duration": 0.0949,
      "velocity": 127,
      "chip": "ym2612"
    },
    {
      "channel": 2,
      "note": 61,
      "start": 11.1984,
      "duration": 0.0954,
      "velocity": 125,
      "chip": "ym2612"
    },
    {
      "channel": 5,
      "note": 54,
      "start": 11.2014,
      "duration": 0.0923,
      "velocity": 127,
      "chip": "ym2612"
    },
    {
      "channel": 0,
      "note": 73,
      "start": 11.2312,
      "duration": 0.0956,
      "velocity": 83,
      "chip": "ym2612"
    },
    {
      "channel": 4,
      "note": 71,
      "start": 11.2339,
      "duration": 0.0597,
      "velocity": 83,
      "chip": "ym2612"
    },
    {
      "channel": 1,
      "note": 45,
      "start": 11.3469,
      "duration": 0.0801,
      "velocity": 122,
      "chip": "ym2612"
    },
    {
      "channel": 2,
      "note": 59,
      "start": 11.3514,
      "duration": 0.1256,
      "velocity": 125,
      "chip": "ym2612"
    },
    {
      "channel": 0,
      "note": 59,
      "start": 11.3541,
      "duration": 0.0727,
      "velocity": 83,
      "chip": "ym2612"
    },
    {
      "channel": 1,
      "note": 45,
      "start": 11.5137,
      "duration": 0.0965,
      "velocity": 122,
      "chip": "ym2612"
    },
    {
      "channel": 2,
      "note": 59,
      "start": 11.5174,
      "duration": 0.0931,
      "velocity": 125,
      "chip": "ym2612"
    },
    {
      "channel": 5,
      "note": 55,
      "start": 11.5208,
      "duration": 0.1228,
      "velocity": 127,
      "chip": "ym2612"
    },
    {
      "channel": 0,
      "note": 52,
      "start": 11.5306,
      "duration": 0.0795,
      "velocity": 83,
      "chip": "ym2612"
    },
    {
      "channel": 3,
      "note": 61,
      "start": 11.6633,
      "duration": 0.1915,
      "velocity": 125,
      "chip": "ym2612"
    },
    {
      "channel": 4,
      "note": 89,
      "start": 11.6669,
      "duration": 0.1268,
      "velocity": 83,
      "chip": "ym2612"
    },
    {
      "channel": 0,
      "note": 96,
      "start": 11.6694,
      "duration": 0.124,
      "velocity": 83,
      "chip": "ym2612"
    },
    {
      "channel": 1,
      "note": 87,
      "start": 11.6723,
      "duration": 0.1377,
      "velocity": 83,
      "chip": "ym2612"
    },
    {
      "channel": 2,
      "note": 73,
      "start": 11.6754,
      "duration": 0.1186,
      "velocity": 83,
      "chip": "ym2612"
    },
    {
      "channel": 5,
      "note": 68,
      "start": 11.6781,
      "duration": 0.1156,
      "velocity": 83,
      "chip": "ym2612"
    },
    {
      "channel": 0,
      "note": 56,
      "start": 11.8174,
      "duration": 0.0373,
      "velocity": 127,
      "chip": "ym2612"
    },
    {
      "channel": 1,
      "note": 86,
      "start": 11.8293,
      "duration": 0.0559,
      "velocity": 83,
      "chip": "ym2612"
    },
    {
      "channel": 4,
      "note": 88,
      "start": 11.8315,
      "duration": 0.0392,
      "velocity": 83,
      "chip": "ym2612"
    },
    {
      "channel": 2,
      "note": 95,
      "start": 11.8349,
      "duration": 0.0359,
      "velocity": 83,
      "chip": "ym2612"
    },
    {
      "channel": 0,
      "note": 56,
      "start": 11.8744,
      "duration": 0.0481,
      "velocity": 88,
      "chip": "ym2612"
    },
    {
      "channel": 3,
      "note": 73,
      "start": 11.8793,
      "duration": 0.0324,
      "velocity": 83,
      "chip": "ym2612"
    },
    {
      "channel": 4,
      "note": 66,
      "start": 11.8818,
      "duration": 0.0245,
      "velocity": 83,
      "chip": "ym2612"
    },
    {
      "channel": 2,
      "note": 59,
      "start": 11.8842,
      "duration": 0.0277,
      "velocity": 127,
      "chip": "ym2612"
    },
    {
      "channel": 2,
      "note": 54,
      "start": 11.9271,
      "duration": 0.0781,
      "velocity": 127,
      "chip": "ym2612"
    },
    {
      "channel": 3,
      "note": 56,
      "start": 11.9373,
      "duration": 0.0676,
      "velocity": 83,
      "chip": "ym2612"
    },
    {
      "channel": 1,
      "note": 64,
      "start": 12.0275,
      "duration": 0.1108,
      "velocity": 125,
      "chip": "ym2612"
    },
    {
      "channel": 3,
      "note": 65,
      "start": 12.0305,
      "duration": 0.1578,
      "velocity": 83,
      "chip": "ym2612"
    },
    {
      "channel": 1,
      "note": 66,
      "start": 12.192,
      "duration": 0.0963,
      "velocity": 125,
      "chip": "ym2612"
    },
    {
      "channel": 4,
      "note": 61,
      "start": 12.2088,
      "duration": 0.0798,
      "velocity": 125,
      "chip": "ym2612"
    },
    {
      "channel": 3,
      "note": 66,
      "start": 12.2121,
      "duration": 0.0763,
      "velocity": 83,
      "chip": "ym2612"
    },
    {
      "channel": 0,
      "note": 45,
      "start": 12.3417,
      "duration": 0.1798,
      "velocity": 122,
      "chip": "ym2612"
    },
    {
      "channel": 1,
      "note": 64,
      "start": 12.3458,
      "duration": 0.0926,
      "velocity": 125,
      "chip": "ym2612"
    },
    {
      "channel": 1,
      "note": 61,
      "start": 12.492,
      "duration": 0.0962,
      "velocity": 125,
      "chip": "ym2612"
    },
    {
      "channel": 5,
      "note": 54,
      "start": 12.6586,
      "duration": 0.0041,
      "velocity": 88,
      "chip": "ym2612"
    },
    {
      "channel": 2,
      "note": 61,
      "start": 12.662,
      "duration": 0.0915,
      "velocity": 125,
      "chip": "ym2612"
    },
    {
      "channel": 3,
      "note": 54,
      "start": 12.7709,
      "duration": 0.1798,
      "velocity": 88,
      "chip": "ym2612"
    },
    {
      "channel": 1,
      "note": 59,
      "start": 12.938,
      "duration": 0.1127,
      "velocity": 125,
      "chip": "ym2612"
    },
    {
      "channel": 4,
      "note": 61,
      "start": 12.9546,
      "duration": 0.0464,
      "velocity": 125,
      "chip": "ym2612"
    },
    {
      "channel": 0,
      "note": 78,
      "start": 12.958,
      "duration": 0.0427,
      "velocity": 83,
      "chip": "ym2612"
    },
    {
      "channel": 5,
      "note": 73,
      "start": 12.9611,
      "duration": 0.04,
      "velocity": 83,
      "chip": "ym2612"
    },
    {
      "channel": 2,
      "note": 64,
      "start": 13.0893,
      "duration": 0.1282,
      "velocity": 127,
      "chip": "ym2612"
    },
    {
      "channel": 1,
      "note": 61,
      "start": 13.2389,
      "duration": 0.0954,
      "velocity": 125,
      "chip": "ym2612"
    },
    {
      "channel": 2,
      "note": 66,
      "start": 13.2422,
      "duration": 0.0756,
      "velocity": 127,
      "chip": "ym2612"
    },
    {
      "channel": 0,
      "note": 78,
      "start": 13.2716,
      "duration": 0.0959,
      "velocity": 83,
      "chip": "ym2612"
    },
    {
      "channel": 5,
      "note": 73,
      "start": 13.2742,
      "duration": 0.0935,
      "velocity": 83,
      "chip": "ym2612"
    },
    {
      "channel": 3,
      "note": 45,
      "start": 13.3876,
      "duration": 0.08,
      "velocity": 122,
      "chip": "ym2612"
    },
    {
      "channel": 0,
      "note": 66,
      "start": 13.392,
      "duration": 0.0587,
      "velocity": 83,
      "chip": "ym2612"
    },
    {
      "channel": 3,
      "note": 45,
      "start": 13.5541,
      "duration": 0.0968,
      "velocity": 122,
      "chip": "ym2612"
    },
    {
      "channel": 1,
      "note": 59,
      "start": 13.5574,
      "duration": 0.0934,
      "velocity": 125,
      "chip": "ym2612"
    },
    {
      "channel": 2,
      "note": 64,
      "start": 13.5604,
      "duration": 0.0907,
      "velocity": 127,
      "chip": "ym2612"
    },
    {
      "channel": 0,
      "note": 70,
      "start": 13.5714,
      "duration": 0.0293,
      "velocity": 83,
      "chip": "ym2612"
    },
    {
      "channel": 4,
      "note": 61,
      "start": 13.704,
      "duration": 0.0951,
      "velocity": 125,
      "chip": "ym2612"
    },
    {
      "channel": 1,
      "note": 61,
      "start": 13.7103,
      "duration": 0.04,
      "velocity": 125,
      "chip": "ym2612"
    },
    {
      "channel": 0,
      "note": 76,
      "start": 13.7126,
      "duration": 0.0376,
      "velocity": 83,
      "chip": "ym2612"
    },
    {
      "channel": 3,
      "note": 66,
      "start": 13.7151,
      "duration": 0.0352,
      "velocity": 83,
      "chip": "ym2612"
    },
    {
      "channel": 2,
      "note": 61,
      "start": 13.76,
      "duration": 0.0337,
      "velocity": 127,
      "chip": "ym2612"
    },
    {
      "channel": 0,
      "note": 66,
      "start": 13.8141,
      "duration": 0.0968,
      "velocity": 83,
      "chip": "ym2612"
    },
    {
      "channel": 3,
      "note": 76,
      "start": 13.8173,
      "duration": 0.0602,
      "velocity": 83,
      "chip": "ym2612"
    },
    {
      "channel": 2,
      "note": 59,
      "start": 13.82,
      "duration": 0.0578,
      "velocity": 127,
      "chip": "ym2612"
    },
    {
      "channel": 1,
      "note": 61,
      "start": 13.9149,
      "duration": 0.0294,
      "velocity": 125,
      "chip": "ym2612"
    },
    {
      "channel": 1,
      "note": 61,
      "start": 13.9643,
      "duration": 0.03,
      "velocity": 125,
      "chip": "ym2612"
    },
    {
      "channel": 1,
      "note": 61,
      "start": 14.0148,
      "duration": 0.0294,
      "velocity": 125,
      "chip": "ym2612"
    },
    {
      "channel": 4,
      "note": 61,
      "start": 14.0664,
      "duration": 0.1112,
      "velocity": 125,
      "chip": "ym2612"
    },
    {
      "channel": 0,
      "note": 64,
      "start": 14.0693,
      "duration": 0.1583,
      "velocity": 83,
      "chip": "ym2612"
    },
    {
      "channel": 1,
      "note": 61,
      "start": 14.2314,
      "duration": 0.0463,
      "velocity": 125,
      "chip": "ym2612"
    },
    {
      "channel": 4,
      "note": 61,
      "start": 14.2354,
      "duration": 0.0923,
      "velocity": 125,
      "chip": "ym2612"
    },
    {
      "channel": 0,
      "note": 65,
      "start": 14.2483,
      "duration": 0.0791,
      "velocity": 83,
      "chip": "ym2612"
    },
    {
      "channel": 5,
      "note": 45,
      "start": 14.381,
      "duration": 0.1468,
      "velocity": 122,
      "chip": "ym2612"
    },
    {
      "channel": 2,
      "note": 81,
      "start": 14.3851,
      "duration": 0.2762,
      "velocity": 104,
      "chip": "ym2612"
    },
    {
      "channel": 0,
      "note": 71,
      "start": 14.3878,
      "duration": 0.0732,
      "velocity": 83,
      "chip": "ym2612"
    },
    {
      "channel": 4,
      "note": 61,
      "start": 14.5317,
      "duration": 0.1293,
      "velocity": 125,
      "chip": "ym2612"
    },
    {
      "channel": 3,
      "note": 49,
      "start": 14.6976,
      "duration": 0.0737,
      "velocity": 88,
      "chip": "ym2612"
    },
    {
      "channel": 1,
      "note": 61,
      "start": 14.7006,
      "duration": 0.0812,
      "velocity": 125,
      "chip": "ym2612"
    },
    {
      "channel": 0,
      "note": 73,
      "start": 14.7076,
      "duration": 0.0423,
      "velocity": 83,
      "chip": "ym2612"
    },
    {
      "channel": 3,
      "note": 49,
      "start": 14.8082,
      "duration": 0.1469,
      "velocity": 88,
      "chip": "ym2612"
    },
    {
      "channel": 4,
      "note": 61,
      "start": 14.9589,
      "duration": 0.063,
      "velocity": 125,
      "chip": "ym2612"
    },
    {
      "channel": 2,
      "note": 61,
      "start": 14.9636,
      "duration": 0.1083,
      "velocity": 125,
      "chip": "ym2612"
    },
    {
      "channel": 0,
      "note": 85,
      "start": 15.1266,
      "duration": 0.1284,
      "velocity": 83,
      "chip": "ym2612"
    },
    {
      "channel": 1,
      "note": 83,
      "start": 15.1294,
      "duration": 0.1258,
      "velocity": 83,
      "chip": "ym2612"
    },
    {
      "channel": 5,
      "note": 67,
      "start": 15.1322,
      "duration": 0.1232,
      "velocity": 127,
      "chip": "ym2612"
    },
    {
      "channel": 2,
      "note": 61,
      "start": 15.2768,
      "duration": 0.1284,
      "velocity": 125,
      "chip": "ym2612"
    },
    {
      "channel": 3,
      "note": 45,
      "start": 15.4254,
      "duration": 0.0798,
      "velocity": 122,
      "chip": "ym2612"
    },
    {
      "channel": 2,
      "note": 61,
      "start": 15.4299,
      "duration": 0.1086,
      "velocity": 125,
      "chip": "ym2612"
    },
    {
      "channel": 0,
      "note": 85,
      "start": 15.4326,
      "duration": 0.1224,
      "velocity": 83,
      "chip": "ym2612"
    },
    {
      "channel": 1,
      "note": 82,
      "start": 15.4351,
      "duration": 0.1201,
      "velocity": 83,
      "chip": "ym2612"
    },
    {
      "channel": 5,
      "note": 66,
      "start": 15.438,
      "duration": 0.1506,
      "velocity": 127,
      "chip": "ym2612"
    },
    {
      "channel": 3,
      "note": 45,
      "start": 15.5917,
      "duration": 0.0967,
      "velocity": 122,
      "chip": "ym2612"
    },
    {
      "channel": 2,
      "note": 61,
      "start": 15.5956,
      "duration": 0.0931,
      "velocity": 125,
      "chip": "ym2612"
    },
    {
      "channel": 4,
      "note": 61,
      "start": 15.7416,
      "duration": 0.1479,
      "velocity": 125,
      "chip": "ym2612"
    },
    {
      "channel": 0,
      "note": 83,
      "start": 15.748,
      "duration": 0.098,
      "velocity": 83,
      "chip": "ym2612"
    },
    {
      "channel": 1,
      "note": 80,
      "start": 15.7503,
      "duration": 0.0958,
      "velocity": 83,
      "chip": "ym2612"
    },
    {
      "channel": 3,
      "note": 64,
      "start": 15.7529,
      "duration": 0.0764,
      "velocity": 127,
      "chip": "ym2612"
    },
    {
      "channel": 3,
      "note": 61,
      "start": 15.8529,
      "duration": 0.0419,
      "velocity": 127,
      "chip": "ym2612"
    },
    {
      "channel": 0,
      "note": 80,
      "start": 15.8652,
      "duration": 0.0241,
      "velocity": 83,
      "chip": "ym2612"
    },
    {
      "channel": 1,
      "note": 76,
      "start": 15.8672,
      "duration": 0.0221,
      "velocity": 83,
      "chip": "ym2612"
    },
    {
      "channel": 2,
      "note": 50,
      "start": 15.9086,
      "duration": 0.048,
      "velocity": 88,
      "chip": "ym2612"
    },
    {
      "channel": 0,
      "note": 68,
      "start": 15.9158,
      "duration": 0.0307,
      "velocity": 83,
      "chip": "ym2612"
    },
    {
      "channel": 2,
      "note": 55,
      "start": 15.9594,
      "duration": 0.0257,
      "velocity": 88,
      "chip": "ym2612"
    },
    {
      "channel": 0,
      "note": 66,
      "start": 15.9675,
      "duration": 0.033,
      "velocity": 83,
      "chip": "ym2612"
    },
    {
      "channel": 1,
      "note": 45,
      "start": 16.0086,
      "duration": 0.0157,
      "velocity": 122,
      "chip": "ym2612"
    },
    {
      "channel": 4,
      "note": 76,
      "start": 16.0123,
      "duration": 0.6081,
      "velocity": 103,
      "chip": "ym2612"
    },
    {
      "channel": 3,
      "note": 65,
      "start": 16.0149,
      "duration": 0.5276,
      "velocity": 103,
      "chip": "ym2612"
    },
    {
      "channel": 2,
      "note": 71,
      "start": 16.0173,
      "duration": 0.5254,
      "velocity": 103,
      "chip": "ym2612"
    },
    {
      "channel": 0,
      "note": 85,
      "start": 16.02,
      "duration": 0.6069,
      "velocity": 103,
      "chip": "ym2612"
    },
    {
      "channel": 1,
      "note": 37,
      "start": 16.0263,
      "duration": 0.003,
      "velocity": 111,
      "chip": "ym2612"
    },
    {
      "channel": 1,
      "note": 49,
      "start": 16.0312,
      "duration": 0.0779,
      "velocity": 127,
      "chip": "ym2612"
    },
    {
      "channel": 1,
      "note": 61,
      "start": 16.1139,
      "duration": 0.1117,
      "velocity": 127,
      "chip": "ym2612"
    },
    {
      "channel": 5,
      "note": 49,
      "start": 16.1303,
      "duration": 0.0956,
      "velocity": 111,
      "chip": "ym2612"
    },
    {
      "channel": 5,
      "note": 37,
      "start": 16.2636,
      "duration": 0.1789,
      "velocity": 111,
      "chip": "ym2612"
    },
    {
      "channel": 1,
      "note": 49,
      "start": 16.2667,
      "duration": 0.1423,
      "velocity": 127,
      "chip": "ym2612"
    },
    {
      "channel": 1,
      "note": 45,
      "start": 16.4123,
      "duration": 0.1659,
      "velocity": 122,
      "chip": "ym2612"
    },
    {
      "channel": 5,
      "note": 49,
      "start": 16.5625,
      "duration": 0.0036,
      "velocity": 88,
      "chip": "ym2612"
    },
    {
      "channel": 3,
      "note": 49,
      "start": 16.5654,
      "duration": 0.0549,
      "velocity": 125,
      "chip": "ym2612"
    },
    {
      "channel": 2,
      "note": 49,
      "start": 16.572,
      "duration": 0.0503,
      "velocity": 111,
      "chip": "ym2612"
    },
    {
      "channel": 2,
      "note": 81,
      "start": 16.6243,
      "duration": 0.0134,
      "velocity": 121,
      "chip": "ym2612"
    },
    {
      "channel": 1,
      "note": 49,
      "start": 16.6922,
      "duration": 0.18,
      "velocity": 88,
      "chip": "ym2612"
    },
    {
      "channel": 2,
      "note": 81,
      "start": 16.6954,
      "duration": 0.3104,
      "velocity": 104,
      "chip": "ym2612"
    },
    {
      "channel": 3,
      "note": 49,
      "start": 16.8765,
      "duration": 0.1292,
      "velocity": 111,
      "chip": "ym2612"
    },
    {
      "channel": 2,
      "note": 81,
      "start": 17.0092,
      "duration": 0.0466,
      "velocity": 121,
      "chip": "ym2612"
    },
    {
      "channel": 4,
      "note": 61,
      "start": 17.0129,
      "duration": 0.0593,
      "velocity": 83,
      "chip": "ym2612"
    },
    {
      "channel": 0,
      "note": 83,
      "start": 17.0156,
      "duration": 0.1064,
      "velocity": 83,
      "chip": "ym2612"
    },
    {
      "channel": 5,
      "note": 91,
      "start": 17.0183,
      "duration": 0.104,
      "velocity": 83,
      "chip": "ym2612"
    },
    {
      "channel": 2,
      "note": 81,
      "start": 17.1586,
      "duration": 0.0471,
      "velocity": 121,
      "chip": "ym2612"
    },
    {
      "channel": 3,
      "note": 47,
      "start": 17.1928,
      "duration": 0.1961,
      "velocity": 111,
      "chip": "ym2612"
    },
    {
      "channel": 1,
      "note": 45,
      "start": 17.3088,
      "duration": 0.08,
      "velocity": 122,
      "chip": "ym2612"
    },
    {
      "channel": 2,
      "note": 81,
      "start": 17.3115,
      "duration": 0.0441,
      "velocity": 121,
      "chip": "ym2612"
    },
    {
      "channel": 0,
      "note": 90,
      "start": 17.3144,
      "duration": 0.1244,
      "velocity": 83,
      "chip": "ym2612"
    },
    {
      "channel": 4,
      "note": 82,
      "start": 17.3169,
      "duration": 0.1052,
      "velocity": 83,
      "chip": "ym2612"
    },
    {
      "channel": 5,
      "note": 87,
      "start": 17.3197,
      "duration": 0.0192,
      "velocity": 83,
      "chip": "ym2612"
    },
    {
      "channel": 1,
      "note": 45,
      "start": 17.4753,
      "duration": 0.0968,
      "velocity": 122,
      "chip": "ym2612"
    },
    {
      "channel": 2,
      "note": 81,
      "start": 17.478,
      "duration": 0.0443,
      "velocity": 121,
      "chip": "ym2612"
    },
    {
      "channel": 5,
      "note": 49,
      "start": 17.6254,
      "duration": 0.0009,
      "velocity": 125,
      "chip": "ym2612"
    },
    {
      "channel": 2,
      "note": 81,
      "start": 17.6318,
      "duration": 0.0147,
      "velocity": 121,
      "chip": "ym2612"
    },
    {
      "channel": 0,
      "note": 85,
      "start": 17.6343,
      "duration": 0.056,
      "velocity": 83,
      "chip": "ym2612"
    },
    {
      "channel": 4,
      "note": 80,
      "start": 17.637,
      "duration": 0.0417,
      "velocity": 83,
      "chip": "ym2612"
    },
    {
      "channel": 2,
      "note": 81,
      "start": 17.6822,
      "duration": 0.0144,
      "velocity": 121,
      "chip": "ym2612"
    },
    {
      "channel": 0,
      "note": 83,
      "start": 17.6944,
      "duration": 0.0394,
      "velocity": 83,
      "chip": "ym2612"
    },
    {
      "channel": 2,
      "note": 81,
      "start": 17.7376,
      "duration": 0.2457,
      "velocity": 104,
      "chip": "ym2612"
    },
    {
      "channel": 3,
      "note": 43,
      "start": 17.74,
      "duration": 0.0933,
      "velocity": 111,
      "chip": "ym2612"
    },
    {
      "channel": 0,
      "note": 80,
      "start": 17.7424,
      "duration": 0.0907,
      "velocity": 83,
      "chip": "ym2612"
    },
    {
      "channel": 3,
      "note": 42,
      "start": 17.8543,
      "duration": 0.1123,
      "velocity": 111,
      "chip": "ym2612"
    },
    {
      "channel": 0,
      "note": 78,
      "start": 17.8571,
      "duration": 0.076,
      "velocity": 83,
      "chip": "ym2612"
    },
    {
      "channel": 2,
      "note": 81,
      "start": 17.9876,
      "duration": 0.0458,
      "velocity": 121,
      "chip": "ym2612"
    },
    {
      "channel": 3,
      "note": 40,
      "start": 17.9907,
      "duration": 0.2259,
      "velocity": 111,
      "chip": "ym2612"
    },
    {
      "channel": 0,
      "note": 70,
      "start": 17.9934,
      "duration": 0.173,
      "velocity": 83,
      "chip": "ym2612"
    },
    {
      "channel": 1,
      "note": 66,
      "start": 18.1371,
      "duration": 0.0627,
      "velocity": 103,
      "chip": "ym2612"
    },
    {
      "channel": 4,
      "note": 74,
      "start": 18.1399,
      "duration": 0.0601,
      "velocity": 103,
      "chip": "ym2612"
    },
    {
      "channel": 5,
      "note": 78,
      "start": 18.1428,
      "duration": 0.0573,
      "velocity": 103,
      "chip": "ym2612"
    },
    {
      "channel": 2,
      "note": 81,
      "start": 18.1452,
      "duration": 0.0551,
      "velocity": 121,
      "chip": "ym2612"
    },
    {
      "channel": 0,
      "note": 71,
      "start": 18.171,
      "duration": 0.0955,
      "velocity": 83,
      "chip": "ym2612"
    },
    {
      "channel": 1,
      "note": 45,
      "start": 18.3036,
      "duration": 0.1462,
      "velocity": 122,
      "chip": "ym2612"
    },
    {
      "channel": 2,
      "note": 81,
      "start": 18.3064,
      "duration": 0.0437,
      "velocity": 121,
      "chip": "ym2612"
    },
    {
      "channel": 0,
      "note": 74,
      "start": 18.3092,
      "duration": 0.0906,
      "velocity": 83,
      "chip": "ym2612"
    },
    {
      "channel": 4,
      "note": 78,
      "start": 18.3118,
      "duration": 0.0882,
      "velocity": 83,
      "chip": "ym2612"
    },
    {
      "channel": 5,
      "note": 85,
      "start": 18.3145,
      "duration": 0.0857,
      "velocity": 83,
      "chip": "ym2612"
    },
    {
      "channel": 2,
      "note": 81,
      "start": 18.4533,
      "duration": 0.0466,
      "velocity": 121,
      "chip": "ym2612"
    },
    {
      "channel": 3,
      "note": 52,
      "start": 18.6031,
      "duration": 0.0166,
      "velocity": 88,
      "chip": "ym2612"
    },
    {
      "channel": 0,
      "note": 49,
      "start": 18.606,
      "duration": 0.0164,
      "velocity": 125,
      "chip": "ym2612"
    },
    {
      "channel": 4,
      "note": 78,
      "start": 18.6123,
      "duration": 0.0368,
      "velocity": 103,
      "chip": "ym2612"
    },
    {
      "channel": 1,
      "note": 74,
      "start": 18.615,
      "duration": 0.0341,
      "velocity": 103,
      "chip": "ym2612"
    },
    {
      "channel": 2,
      "note": 68,
      "start": 18.6179,
      "duration": 0.0313,
      "velocity": 103,
      "chip": "ym2612"
    },
    {
      "channel": 3,
      "note": 76,
      "start": 18.6216,
      "duration": 0.0654,
      "velocity": 83,
      "chip": "ym2612"
    },
    {
      "channel": 0,
      "note": 85,
      "start": 18.6242,
      "duration": 0.0529,
      "velocity": 83,
      "chip": "ym2612"
    },
    {
      "channel": 1,
      "note": 45,
      "start": 18.6676,
      "duration": 0.0068,
      "velocity": 122,
      "chip": "ym2612"
    },
    {
      "channel": 4,
      "note": 71,
      "start": 18.6703,
      "duration": 0.0168,
      "velocity": 103,
      "chip": "ym2612"
    },
    {
      "channel": 2,
      "note": 78,
      "start": 18.6738,
      "duration": 0.0134,
      "velocity": 103,
      "chip": "ym2612"
    },
    {
      "channel": 1,
      "note": 74,
      "start": 18.6765,
      "duration": 0.0105,
      "velocity": 103,
      "chip": "ym2612"
    },
    {
      "channel": 0,
      "note": 68,
      "start": 18.6791,
      "duration": 0.0078,
      "velocity": 103,
      "chip": "ym2612"
    },
    {
      "channel": 0,
      "note": 52,
      "start": 18.7326,
      "duration": 0.18,
      "velocity": 88,
      "chip": "ym2612"
    },
    {
      "channel": 1,
      "note": 70,
      "start": 18.7359,
      "duration": 0.0934,
      "velocity": 103,
      "chip": "ym2612"
    },
    {
      "channel": 4,
      "note": 67,
      "start": 18.7385,
      "duration": 0.0911,
      "velocity": 103,
      "chip": "ym2612"
    },
    {
      "channel": 2,
      "note": 77,
      "start": 18.7414,
      "duration": 0.0885,
      "velocity": 103,
      "chip": "ym2612"
    },
    {
      "channel": 3,
      "note": 73,
      "start": 18.7443,
      "duration": 0.0852,
      "velocity": 103,
      "chip": "ym2612"
    },
    {
      "channel": 5,
      "note": 74,
      "start": 18.7482,
      "duration": 0.1312,
      "velocity": 83,
      "chip": "ym2612"
    },
    {
      "channel": 1,
      "note": 71,
      "start": 18.8834,
      "duration": 0.3959,
      "velocity": 103,
      "chip": "ym2612"
    },
    {
      "channel": 3,
      "note": 68,
      "start": 18.886,
      "duration": 0.3934,
      "velocity": 103,
      "chip": "ym2612"
    },
    {
      "channel": 4,
      "note": 74,
      "start": 18.8887,
      "duration": 0.3909,
      "velocity": 103,
      "chip": "ym2612"
    },
    {
      "channel": 2,
      "note": 78,
      "start": 18.8916,
      "duration": 0.3882,
      "velocity": 103,
      "chip": "ym2612"
    },
    {
      "channel": 5,
      "note": 40,
      "start": 19.2337,
      "duration": 0.0043,
      "velocity": 111,
      "chip": "ym2612"
    },
    {
      "channel": 0,
      "note": 79,
      "start": 19.2371,
      "duration": 0.0589,
      "velocity": 83,
      "chip": "ym2612"
    },
    {
      "channel": 5,
      "note": 85,
      "start": 19.2398,
      "duration": 0.0565,
      "velocity": 83,
      "chip": "ym2612"
    },
    {
      "channel": 1,
      "note": 45,
      "start": 19.3495,
      "duration": 0.08,
      "velocity": 122,
      "chip": "ym2612"
    },
    {
      "channel": 2,
      "note": 81,
      "start": 19.3522,
      "duration": 0.0441,
      "velocity": 121,
      "chip": "ym2612"
    },
    {
      "channel": 3,
      "note": 52,
      "start": 19.3555,
      "duration": 0.2072,
      "velocity": 111,
      "chip": "ym2612"
    },
    {
      "channel": 0,
      "note": 67,
      "start": 19.3583,
      "duration": 0.0878,
      "velocity": 83,
      "chip": "ym2612"
    },
    {
      "channel": 1,
      "note": 45,
      "start": 19.5158,
      "duration": 0.0969,
      "velocity": 122,
      "chip": "ym2612"
    },
    {
      "channel": 2,
      "note": 81,
      "start": 19.519,
      "duration": 0.0439,
      "velocity": 121,
      "chip": "ym2612"
    },
    {
      "channel": 0,
      "note": 78,
      "start": 19.5333,
      "duration": 0.1293,
      "velocity": 83,
      "chip": "ym2612"
    },
    {
      "channel": 5,
      "note": 85,
      "start": 19.5359,
      "duration": 0.127,
      "velocity": 83,
      "chip": "ym2612"
    },
    {
      "channel": 4,
      "note": 49,
      "start": 19.6661,
      "duration": 0.1069,
      "velocity": 125,
      "chip": "ym2612"
    },
    {
      "channel": 3,
      "note": 40,
      "start": 19.6724,
      "duration": 0.1494,
      "velocity": 111,
      "chip": "ym2612"
    },
    {
      "channel": 0,
      "note": 66,
      "start": 19.6746,
      "duration": 0.0316,
      "velocity": 83,
      "chip": "ym2612"
    },
    {
      "channel": 2,
      "note": 81,
      "start": 19.7796,
      "duration": 0.0175,
      "velocity": 121,
      "chip": "ym2612"
    },
    {
      "channel": 0,
      "note": 85,
      "start": 19.7926,
      "duration": 0.0397,
      "velocity": 83,
      "chip": "ym2612"
    },
    {
      "channel": 1,
      "note": 76,
      "start": 19.7949,
      "duration": 0.0375,
      "velocity": 83,
      "chip": "ym2612"
    },
    {
      "channel": 4,
      "note": 56,
      "start": 19.8361,
      "duration": 0.0483,
      "velocity": 88,
      "chip": "ym2612"
    },
    {
      "channel": 2,
      "note": 81,
      "start": 19.8391,
      "duration": 0.1449,
      "velocity": 104,
      "chip": "ym2612"
    },
    {
      "channel": 3,
      "note": 52,
      "start": 19.8426,
      "duration": 0.0312,
      "velocity": 111,
      "chip": "ym2612"
    },
    {
      "channel": 0,
      "note": 64,
      "start": 19.845,
      "duration": 0.0234,
      "velocity": 83,
      "chip": "ym2612"
    },
    {
      "channel": 0,
      "note": 73,
      "start": 19.8933,
      "duration": 0.0903,
      "velocity": 83,
      "chip": "ym2612"
    },
    {
      "channel": 1,
      "note": 85,
      "start": 19.8954,
      "duration": 0.0883,
      "velocity": 83,
      "chip": "ym2612"
    },
    {
      "channel": 3,
      "note": 45,
      "start": 19.9874,
      "duration": 0.1797,
      "velocity": 122,
      "chip": "ym2612"
    },
    {
      "channel": 2,
      "note": 81,
      "start": 19.9902,
      "duration": 0.0438,
      "velocity": 121,
      "chip": "ym2612"
    },
    {
      "channel": 4,
      "note": 42,
      "start": 19.9944,
      "duration": 0.1228,
      "velocity": 111,
      "chip": "ym2612"
    },
    {
      "channel": 0,
      "note": 61,
      "start": 19.9994,
      "duration": 0.0843,
      "velocity": 83,
      "chip": "ym2612"
    },
    {
      "channel": 5,
      "note": 54,
      "start": 20.0025,
      "duration": 0.1148,
      "velocity": 127,
      "chip": "ym2612"
    },
    {
      "channel": 2,
      "note": 81,
      "start": 20.137,
      "duration": 0.0636,
      "velocity": 121,
      "chip": "ym2612"
    },
    {
      "channel": 5,
      "note": 66,
      "start": 20.1403,
      "duration": 0.1102,
      "velocity": 127,
      "chip": "ym2612"
    },
    {
      "channel": 4,
      "note": 54,
      "start": 20.1712,
      "duration": 0.0959,
      "velocity": 111,
      "chip": "ym2612"
    },
    {
      "channel": 1,
      "note": 68,
      "start": 20.3044,
      "duration": 0.1294,
      "velocity": 103,
      "chip": "ym2612"
    },
    {
      "channel": 0,
      "note": 32,
      "start": 20.3074,
      "duration": 0.1263,
      "velocity": 103,
      "chip": "ym2612"
    },
    {
      "channel": 2,
      "note": 81,
      "start": 20.3097,
      "duration": 0.0408,
      "velocity": 121,
      "chip": "ym2612"
    },
    {
      "channel": 4,
      "note": 42,
      "start": 20.3128,
      "duration": 0.1212,
      "velocity": 111,
      "chip": "ym2612"
    },
    {
      "channel": 3,
      "note": 68,
      "start": 20.3157,
      "duration": 0.1182,
      "velocity": 101,
      "chip": "ym2612"
    },
    {
      "channel": 5,
      "note": 54,
      "start": 20.3189,
      "duration": 0.1317,
      "velocity": 127,
      "chip": "ym2612"
    },
    {
      "channel": 2,
      "note": 45,
      "start": 20.4538,
      "duration": 0.169,
      "velocity": 122,
      "chip": "ym2612"
    },
    {
      "channel": 0,
      "note": 69,
      "start": 20.4573,
      "duration": 0.0431,
      "velocity": 103,
      "chip": "ym2612"
    },
    {
      "channel": 1,
      "note": 33,
      "start": 20.46,
      "duration": 0.0405,
      "velocity": 103,
      "chip": "ym2612"
    },
    {
      "channel": 3,
      "note": 69,
      "start": 20.4636,
      "duration": 0.037,
      "velocity": 101,
      "chip": "ym2612"
    },
    {
      "channel": 4,
      "note": 54,
      "start": 20.6037,
      "duration": 0.0873,
      "velocity": 88,
      "chip": "ym2612"
    },
    {
      "channel": 5,
      "note": 49,
      "start": 20.6066,
      "duration": 0.0006,
      "velocity": 125,
      "chip": "ym2612"
    },
    {
      "channel": 0,
      "note": 70,
      "start": 20.6127,
      "duration": 0.0152,
      "velocity": 103,
      "chip": "ym2612"
    },
    {
      "channel": 1,
      "note": 34,
      "start": 20.6155,
      "duration": 0.0229,
      "velocity": 103,
      "chip": "ym2612"
    },
    {
      "channel": 3,
      "note": 54,
      "start": 20.618,
      "duration": 0.0007,
      "velocity": 111,
      "chip": "ym2612"
    },
    {
      "channel": 3,
      "note": 70,
      "start": 20.6207,
      "duration": 0.0177,
      "velocity": 101,
      "chip": "ym2612"
    },
    {
      "channel": 0,
      "note": 73,
      "start": 20.6676,
      "duration": 0.0232,
      "velocity": 103,
      "chip": "ym2612"
    },
    {
      "channel": 1,
      "note": 37,
      "start": 20.6701,
      "duration": 0.0208,
      "velocity": 103,
      "chip": "ym2612"
    },
    {
      "channel": 2,
      "note": 81,
      "start": 20.6732,
      "duration": 0.0125,
      "velocity": 121,
      "chip": "ym2612"
    },
    {
      "channel": 3,
      "note": 73,
      "start": 20.6757,
      "duration": 0.0152,
      "velocity": 101,
      "chip": "ym2612"
    },
    {
      "channel": 4,
      "note": 54,
      "start": 20.7329,
      "duration": 0.18,
      "velocity": 88,
      "chip": "ym2612"
    },
    {
      "channel": 0,
      "note": 78,
      "start": 20.7362,
      "duration": 0.1267,
      "velocity": 103,
      "chip": "ym2612"
    },
    {
      "channel": 1,
      "note": 42,
      "start": 20.7393,
      "duration": 0.1237,
      "velocity": 103,
      "chip": "ym2612"
    },
    {
      "channel": 2,
      "note": 81,
      "start": 20.7419,
      "duration": 0.2212,
      "velocity": 104,
      "chip": "ym2612"
    },
    {
      "channel": 3,
      "note": 42,
      "start": 20.7454,
      "duration": 0.1341,
      "velocity": 111,
      "chip": "ym2612"
    },
    {
      "channel": 5,
      "note": 78,
      "start": 20.7484,
      "duration": 0.1148,
      "velocity": 101,
      "chip": "ym2612"
    },
    {
      "channel": 0,
      "note": 76,
      "start": 20.8833,
      "duration": 0.0461,
      "velocity": 103,
      "chip": "ym2612"
    },
    {
      "channel": 1,
      "note": 40,
      "start": 20.8859,
      "duration": 0.0436,
      "velocity": 103,
      "chip": "ym2612"
    },
    {
      "channel": 5,
      "note": 30,
      "start": 20.889,
      "duration": 0.324,
      "velocity": 103,
      "chip": "ym2612"
    },
    {
      "channel": 3,
      "note": 76,
      "start": 20.8922,
      "duration": 0.0375,
      "velocity": 101,
      "chip": "ym2612"
    },
    {
      "channel": 4,
      "note": 54,
      "start": 20.9171,
      "duration": 0.0959,
      "velocity": 111,
      "chip": "ym2612"
    },
    {
      "channel": 2,
      "note": 81,
      "start": 21.0496,
      "duration": 0.0469,
      "velocity": 121,
      "chip": "ym2612"
    },
    {
      "channel": 4,
      "note": 42,
      "start": 21.0527,
      "duration": 0.0436,
      "velocity": 111,
      "chip": "ym2612"
    },
    {
      "channel": 3,
      "note": 54,
      "start": 21.0555,
      "duration": 0.1075,
      "velocity": 101,
      "chip": "ym2612"
    },
    {
      "channel": 0,
      "note": 54,
      "start": 21.0589,
      "duration": 0.1039,
      "velocity": 127,
      "chip": "ym2612"
    },
    {
      "channel": 2,
      "note": 81,
      "start": 21.1994,
      "duration": 0.047,
      "velocity": 121,
      "chip": "ym2612"
    },
    {
      "channel": 3,
      "note": 54,
      "start": 21.2028,
      "duration": 0.0434,
      "velocity": 101,
      "chip": "ym2612"
    },
    {
      "channel": 4,
      "note": 54,
      "start": 21.2171,
      "duration": 0.1125,
      "velocity": 111,
      "chip": "ym2612"
    },
    {
      "channel": 1,
      "note": 45,
      "start": 21.35,
      "duration": 0.0795,
      "velocity": 122,
      "chip": "ym2612"
    },
    {
      "channel": 5,
      "note": 28,
      "start": 21.3536,
      "duration": 0.1762,
      "velocity": 103,
      "chip": "ym2612"
    },
    {
      "channel": 2,
      "note": 81,
      "start": 21.3559,
      "duration": 0.013,
      "velocity": 121,
      "chip": "ym2612"
    },
    {
      "channel": 4,
      "note": 42,
      "start": 21.359,
      "duration": 0.0072,
      "velocity": 111,
      "chip": "ym2612"
    },
    {
      "channel": 3,
      "note": 52,
      "start": 21.3622,
      "duration": 0.1173,
      "velocity": 101,
      "chip": "ym2612"
    },
    {
      "channel": 0,
      "note": 87,
      "start": 21.3656,
      "duration": 0.2972,
      "velocity": 83,
      "chip": "ym2612"
    },
    {
      "channel": 4,
      "note": 82,
      "start": 21.3681,
      "duration": 0.2949,
      "velocity": 83,
      "chip": "ym2612"
    },
    {
      "channel": 2,
      "note": 76,
      "start": 21.3709,
      "duration": 0.2923,
      "velocity": 83,
      "chip": "ym2612"
    },
    {
      "channel": 1,
      "note": 45,
      "start": 21.5161,
      "duration": 0.0968,
      "velocity": 122,
      "chip": "ym2612"
    },
    {
      "channel": 3,
      "note": 54,
      "start": 21.5207,
      "duration": 0.0924,
      "velocity": 127,
      "chip": "ym2612"
    },
    {
      "channel": 5,
      "note": 49,
      "start": 21.6663,
      "duration": 0.1467,
      "velocity": 125,
      "chip": "ym2612"
    },
    {
      "channel": 2,
      "note": 81,
      "start": 21.669,
      "duration": 0.0442,
      "velocity": 121,
      "chip": "ym2612"
    },
    {
      "channel": 1,
      "note": 54,
      "start": 21.6718,
      "duration": 0.2744,
      "velocity": 111,
      "chip": "ym2612"
    },
    {
      "channel": 0,
      "note": 85,
      "start": 21.6747,
      "duration": 0.3165,
      "velocity": 83,
      "chip": "ym2612"
    },
    {
      "channel": 4,
      "note": 80,
      "start": 21.6772,
      "duration": 0.3029,
      "velocity": 83,
      "chip": "ym2612"
    },
    {
      "channel": 3,
      "note": 76,
      "start": 21.6802,
      "duration": 0.2999,
      "velocity": 83,
      "chip": "ym2612"
    },
    {
      "channel": 2,
      "note": 81,
      "start": 21.8164,
      "duration": 0.0466,
      "velocity": 121,
      "chip": "ym2612"
    },
    {
      "channel": 5,
      "note": 54,
      "start": 21.8198,
      "duration": 0.0765,
      "velocity": 127,
      "chip": "ym2612"
    },
    {
      "channel": 2,
      "note": 81,
      "start": 21.9699,
      "duration": 0.1222,
      "velocity": 104,
      "chip": "ym2612"
    },
    {
      "channel": 1,
      "note": 42,
      "start": 21.9725,
      "duration": 0.001,
      "velocity": 111,
      "chip": "ym2612"
    },
    {
      "channel": 1,
      "note": 66,
      "start": 21.9754,
      "duration": 0.0526,
      "velocity": 127,
      "chip": "ym2612"
    },
    {
      "channel": 2,
      "note": 81,
      "start": 22.0954,
      "duration": 0.0468,
      "velocity": 121,
      "chip": "ym2612"
    },
    {
      "channel": 3,
      "note": 37,
      "start": 22.0998,
      "duration": 0.1422,
      "velocity": 111,
      "chip": "ym2612"
    },
    {
      "channel": 2,
      "note": 81,
      "start": 22.2453,
      "duration": 0.047,
      "velocity": 121,
      "chip": "ym2612"
    },
    {
      "channel": 3,
      "note": 49,
      "start": 22.2793,
      "duration": 0.0961,
      "velocity": 111,
      "chip": "ym2612"
    },
    {
      "channel": 4,
      "note": 45,
      "start": 22.4121,
      "duration": 0.1468,
      "velocity": 122,
      "chip": "ym2612"
    },
    {
      "channel": 2,
      "note": 81,
      "start": 22.4149,
      "duration": 0.0441,
      "velocity": 121,
      "chip": "ym2612"
    },
    {
      "channel": 3,
      "note": 37,
      "start": 22.4179,
      "duration": 0.1741,
      "velocity": 111,
      "chip": "ym2612"
    },
    {
      "channel": 2,
      "note": 81,
      "start": 22.562,
      "duration": 0.0468,
      "velocity": 121,
      "chip": "ym2612"
    },
    {
      "channel": 0,
      "note": 49,
      "start": 22.712,
      "duration": 0.0836,
      "velocity": 88,
      "chip": "ym2612"
    },
    {
      "channel": 1,
      "note": 49,
      "start": 22.7148,
      "duration": 0.0566,
      "velocity": 125,
      "chip": "ym2612"
    },
    {
      "channel": 2,
      "note": 81,
      "start": 22.7207,
      "duration": 0.0132,
      "velocity": 121,
      "chip": "ym2612"
    },
    {
      "channel": 3,
      "note": 49,
      "start": 22.7233,
      "duration": 0.0557,
      "velocity": 111,
      "chip": "ym2612"
    },
    {
      "channel": 4,
      "note": 45,
      "start": 22.7748,
      "duration": 0.0642,
      "velocity": 122,
      "chip": "ym2612"
    },
    {
      "channel": 2,
      "note": 81,
      "start": 22.7774,
      "duration": 0.0127,
      "velocity": 121,
      "chip": "ym2612"
    },
    {
      "channel": 0,
      "note": 49,
      "start": 22.8422,
      "duration": 0.1467,
      "velocity": 88,
      "chip": "ym2612"
    },
    {
      "channel": 1,
      "note": 71,
      "start": 22.8458,
      "duration": 0.1266,
      "velocity": 103,
      "chip": "ym2612"
    },
    {
      "channel": 3,
      "note": 35,
      "start": 22.8493,
      "duration": 0.1398,
      "velocity": 103,
      "chip": "ym2612"
    },
    {
      "channel": 2,
      "note": 81,
      "start": 22.9924,
      "duration": 0.0468,
      "velocity": 121,
      "chip": "ym2612"
    },
    {
      "channel": 1,
      "note": 72,
      "start": 23.026,
      "duration": 0.1296,
      "velocity": 103,
      "chip": "ym2612"
    },
    {
      "channel": 3,
      "note": 36,
      "start": 23.0288,
      "duration": 0.127,
      "velocity": 103,
      "chip": "ym2612"
    },
    {
      "channel": 5,
      "note": 37,
      "start": 23.0324,
      "duration": 0.04,
      "velocity": 111,
      "chip": "ym2612"
    },
    {
      "channel": 1,
      "note": 73,
      "start": 23.1596,
      "duration": 0.0628,
      "velocity": 103,
      "chip": "ym2612"
    },
    {
      "channel": 3,
      "note": 37,
      "start": 23.1624,
      "duration": 0.0601,
      "velocity": 103,
      "chip": "ym2612"
    },
    {
      "channel": 2,
      "note": 81,
      "start": 23.1647,
      "duration": 0.0411,
      "velocity": 121,
      "chip": "ym2612"
    },
    {
      "channel": 5,
      "note": 55,
      "start": 23.1678,
      "duration": 0.1046,
      "velocity": 111,
      "chip": "ym2612"
    },
    {
      "channel": 4,
      "note": 54,
      "start": 23.1711,
      "duration": 0.0846,
      "velocity": 127,
      "chip": "ym2612"
    },
    {
      "channel": 2,
      "note": 81,
      "start": 23.3089,
      "duration": 0.047,
      "velocity": 121,
      "chip": "ym2612"
    },
    {
      "channel": 1,
      "note": 76,
      "start": 23.3261,
      "duration": 0.1296,
      "velocity": 103,
      "chip": "ym2612"
    },
    {
      "channel": 3,
      "note": 40,
      "start": 23.3294,
      "duration": 0.1596,
      "velocity": 103,
      "chip": "ym2612"
    },
    {
      "channel": 5,
      "note": 54,
      "start": 23.3326,
      "duration": 0.1065,
      "velocity": 111,
      "chip": "ym2612"
    },
    {
      "channel": 0,
      "note": 45,
      "start": 23.4592,
      "duration": 0.0797,
      "velocity": 122,
      "chip": "ym2612"
    },
    {
      "channel": 2,
      "note": 81,
      "start": 23.4622,
      "duration": 0.0436,
      "velocity": 121,
      "chip": "ym2612"
    },
    {
      "channel": 5,
      "note": 52,
      "start": 23.4654,
      "duration": 0.1404,
      "velocity": 111,
      "chip": "ym2612"
    },
    {
      "channel": 4,
      "note": 64,
      "start": 23.4685,
      "duration": 0.1372,
      "velocity": 127,
      "chip": "ym2612"
    },
    {
      "channel": 0,
      "note": 45,
      "start": 23.6089,
      "duration": 0.1133,
      "velocity": 122,
      "chip": "ym2612"
    },
    {
      "channel": 2,
      "note": 81,
      "start": 23.6118,
      "duration": 0.0607,
      "velocity": 121,
      "chip": "ym2612"
    },
    {
      "channel": 1,
      "note": 73,
      "start": 23.6427,
      "duration": 0.0796,
      "velocity": 103,
      "chip": "ym2612"
    },
    {
      "channel": 3,
      "note": 37,
      "start": 23.6458,
      "duration": 0.0932,
      "velocity": 103,
      "chip": "ym2612"
    },
    {
      "channel": 5,
      "note": 49,
      "start": 23.6489,
      "duration": 0.0903,
      "velocity": 111,
      "chip": "ym2612"
    },
    {
      "channel": 4,
      "note": 49,
      "start": 23.7756,
      "duration": 0.0515,
      "velocity": 125,
      "chip": "ym2612"
    },
    {
      "channel": 2,
      "note": 52,
      "start": 23.7833,
      "duration": 0.0439,
      "velocity": 111,
      "chip": "ym2612"
    },
    {
      "channel": 2,
      "note": 81,
      "start": 23.8341,
      "duration": 0.0205,
      "velocity": 121,
      "chip": "ym2612"
    },
    {
      "channel": 0,
      "note": 54,
      "start": 23.845,
      "duration": 0.0322,
      "velocity": 111,
      "chip": "ym2612"
    },
    {
      "channel": 1,
      "note": 71,
      "start": 23.8477,
      "duration": 0.013,
      "velocity": 101,
      "chip": "ym2612"
    },
    {
      "channel": 3,
      "note": 68,
      "start": 23.8501,
      "duration": 0.0106,
      "velocity": 101,
      "chip": "ym2612"
    },
    {
      "channel": 4,
      "note": 76,
      "start": 23.8526,
      "duration": 0.0083,
      "velocity": 101,
      "chip": "ym2612"
    },
    {
      "channel": 2,
      "note": 81,
      "start": 23.8882,
      "duration": 0.1025,
      "velocity": 104,
      "chip": "ym2612"
    },
    {
      "channel": 0,
      "note": 49,
      "start": 23.8907,
      "duration": 0.0377,
      "velocity": 111,
      "chip": "ym2612"
    },
    {
      "channel": 0,
      "note": 47,
      "start": 23.9484,
      "duration": 0.042,
      "velocity": 111,
      "chip": "ym2612"
    },
    {
      "channel": 1,
      "note": 76,
      "start": 23.9507,
      "duration": 0.0146,
      "velocity": 101,
      "chip": "ym2612"
    },
    {
      "channel": 3,
      "note": 71,
      "start": 23.9529,
      "duration": 0.0125,
      "velocity": 101,
      "chip": "ym2612"
    },
    {
      "channel": 4,
      "note": 68,
      "start": 23.9562,
      "duration": 0.0092,
      "velocity": 101,
      "chip": "ym2612"
    },
    {
      "channel": 1,
      "note": 45,
      "start": 23.9946,
      "duration": 0.1273,
      "velocity": 122,
      "chip": "ym2612"
    },
    {
      "channel": 2,
      "note": 81,
      "start": 23.997,
      "duration": 0.012,
      "velocity": 121,
      "chip": "ym2612"
    },
    {
      "channel": 0,
      "note": 37,
      "start": 23.9998,
      "duration": 0.0065,
      "velocity": 111,
      "chip": "ym2612"
    },
    {
      "channel": 3,
      "note": 82,
      "start": 24.0033,
      "duration": 0.0853,
      "velocity": 83,
      "chip": "ym2612"
    },
    {
      "channel": 4,
      "note": 77,
      "start": 24.0056,
      "duration": 0.0832,
      "velocity": 83,
      "chip": "ym2612"
    },
    {
      "channel": 0,
      "note": 71,
      "start": 24.008,
      "duration": 0.0638,
      "velocity": 83,
      "chip": "ym2612"
    },
    {
      "channel": 2,
      "note": 47,
      "start": 24.0109,
      "duration": 0.0278,
      "velocity": 127,
      "chip": "ym2612"
    },
    {
      "channel": 2,
      "note": 81,
      "start": 24.092,
      "duration": 0.0468,
      "velocity": 121,
      "chip": "ym2612"
    },
    {
      "channel": 5,
      "note": 49,
      "start": 24.0956,
      "duration": 0.0765,
      "velocity": 127,
      "chip": "ym2612"
    },
    {
      "channel": 0,
      "note": 73,
      "start": 24.1259,
      "duration": 0.1293,
      "velocity": 83,
      "chip": "ym2612"
    },
    {
      "channel": 3,
      "note": 78,
      "start": 24.1282,
      "duration": 0.1272,
      "velocity": 83,
      "chip": "ym2612"
    },
    {
      "channel": 4,
      "note": 83,
      "start": 24.1308,
      "duration": 0.1247,
      "velocity": 83,
      "chip": "ym2612"
    },
    {
      "channel": 2,
      "note": 81,
      "start": 24.2587,
      "duration": 0.0467,
      "velocity": 121,
      "chip": "ym2612"
    },
    {
      "channel": 1,
      "note": 49,
      "start": 24.2617,
      "duration": 0.1102,
      "velocity": 111,
      "chip": "ym2612"
    },
    {
      "channel": 5,
      "note": 45,
      "start": 24.4085,
      "duration": 0.1539,
      "velocity": 122,
      "chip": "ym2612"
    },
    {
      "channel": 2,
      "note": 81,
      "start": 24.4114,
      "duration": 0.044,
      "velocity": 121,
      "chip": "ym2612"
    },
    {
      "channel": 0,
      "note": 73,
      "start": 24.4593,
      "duration": 0.0292,
      "velocity": 83,
      "chip": "ym2612"
    },
    {
      "channel": 3,
      "note": 49,
      "start": 24.5589,
      "duration": 0.0679,
      "velocity": 88,
      "chip": "ym2612"
    },
    {
      "channel": 4,
      "note": 49,
      "start": 24.5618,
      "duration": 0.0585,
      "velocity": 125,
      "chip": "ym2612"
    },
    {
      "channel": 1,
      "note": 37,
      "start": 24.568,
      "duration": 0.0069,
      "velocity": 111,
      "chip": "ym2612"
    },
    {
      "channel": 2,
      "note": 100,
      "start": 24.571,
      "duration": 0.0283,
      "velocity": 101,
      "chip": "ym2612"
    },
    {
      "channel": 0,
      "note": 83,
      "start": 24.5733,
      "duration": 0.0258,
      "velocity": 83,
      "chip": "ym2612"
    },
    {
      "channel": 1,
      "note": 88,
      "start": 24.5769,
      "duration": 0.0222,
      "velocity": 83,
      "chip": "ym2612"
    },
    {
      "channel": 2,
      "note": 81,
      "start": 24.6229,
      "duration": 0.0146,
      "velocity": 121,
      "chip": "ym2612"
    },
    {
      "channel": 3,
      "note": 49,
      "start": 24.6878,
      "duration": 0.1802,
      "velocity": 88,
      "chip": "ym2612"
    },
    {
      "channel": 0,
      "note": 49,
      "start": 24.6919,
      "duration": 0.0098,
      "velocity": 111,
      "chip": "ym2612"
    },
    {
      "channel": 1,
      "note": 99,
      "start": 24.6947,
      "duration": 0.09,
      "velocity": 101,
      "chip": "ym2612"
    },
    {
      "channel": 4,
      "note": 82,
      "start": 24.6976,
      "duration": 0.0873,
      "velocity": 83,
      "chip": "ym2612"
    },
    {
      "channel": 2,
      "note": 87,
      "start": 24.7003,
      "duration": 0.0847,
      "velocity": 83,
      "chip": "ym2612"
    },
    {
      "channel": 2,
      "note": 81,
      "start": 24.8381,
      "duration": 0.0468,
      "velocity": 121,
      "chip": "ym2612"
    },
    {
      "channel": 0,
      "note": 37,
      "start": 24.872,
      "duration": 0.1127,
      "velocity": 111,
      "chip": "ym2612"
    },
    {
      "channel": 2,
      "note": 81,
      "start": 24.9881,
      "duration": 0.0635,
      "velocity": 121,
      "chip": "ym2612"
    },
    {
      "channel": 1,
      "note": 97,
      "start": 24.9911,
      "duration": 0.1268,
      "velocity": 101,
      "chip": "ym2612"
    },
    {
      "channel": 4,
      "note": 80,
      "start": 24.9941,
      "duration": 0.1241,
      "velocity": 83,
      "chip": "ym2612"
    },
    {
      "channel": 5,
      "note": 85,
      "start": 24.9968,
      "duration": 0.1215,
      "velocity": 83,
      "chip": "ym2612"
    },
    {
      "channel": 2,
      "note": 81,
      "start": 25.1546,
      "duration": 0.0471,
      "velocity": 121,
      "chip": "ym2612"
    },
    {
      "channel": 0,
      "note": 61,
      "start": 25.1719,
      "duration": 0.1128,
      "velocity": 111,
      "chip": "ym2612"
    },
    {
      "channel": 1,
      "note": 95,
      "start": 25.1748,
      "duration": 0.0766,
      "velocity": 101,
      "chip": "ym2612"
    },
    {
      "channel": 4,
      "note": 77,
      "start": 25.1776,
      "duration": 0.074,
      "velocity": 83,
      "chip": "ym2612"
    },
    {
      "channel": 5,
      "note": 83,
      "start": 25.1802,
      "duration": 0.0715,
      "velocity": 83,
      "chip": "ym2612"
    },
    {
      "channel": 3,
      "note": 45,
      "start": 25.3047,
      "duration": 0.08,
      "velocity": 122,
      "chip": "ym2612"
    },
    {
      "channel": 2,
      "note": 81,
      "start": 25.3079,
      "duration": 0.0437,
      "velocity": 121,
      "chip": "ym2612"
    },
    {
      "channel": 0,
      "note": 49,
      "start": 25.3108,
      "duration": 0.2572,
      "velocity": 111,
      "chip": "ym2612"
    },
    {
      "channel": 4,
      "note": 76,
      "start": 25.3141,
      "duration": 0.1373,
      "velocity": 83,
      "chip": "ym2612"
    },
    {
      "channel": 5,
      "note": 64,
      "start": 25.3167,
      "duration": 0.1349,
      "velocity": 83,
      "chip": "ym2612"
    },
    {
      "channel": 3,
      "note": 45,
      "start": 25.4548,
      "duration": 0.1134,
      "velocity": 122,
      "chip": "ym2612"
    },
    {
      "channel": 2,
      "note": 81,
      "start": 25.4576,
      "duration": 0.0606,
      "velocity": 121,
      "chip": "ym2612"
    },
    {
      "channel": 4,
      "note": 77,
      "start": 25.489,
      "duration": 0.1292,
      "velocity": 83,
      "chip": "ym2612"
    },
    {
      "channel": 5,
      "note": 65,
      "start": 25.4916,
      "duration": 0.1267,
      "velocity": 83,
      "chip": "ym2612"
    },
    {
      "channel": 1,
      "note": 49,
      "start": 25.6215,
      "duration": 0.1466,
      "velocity": 125,
      "chip": "ym2612"
    },
    {
      "channel": 0,
      "note": 61,
      "start": 25.6246,
      "duration": 0.179,
      "velocity": 111,
      "chip": "ym2612"
    },
    {
      "channel": 4,
      "note": 73,
      "start": 25.6275,
      "duration": 0.1073,
      "velocity": 83,
      "chip": "ym2612"
    },
    {
      "channel": 5,
      "note": 85,
      "start": 25.6299,
      "duration": 0.105,
      "velocity": 83,
      "chip": "ym2612"
    },
    {
      "channel": 2,
      "note": 49,
      "start": 25.6328,
      "duration": 0.0354,
      "velocity": 83,
      "chip": "ym2612"
    },
    {
      "channel": 2,
      "note": 81,
      "start": 25.7748,
      "duration": 0.0172,
      "velocity": 121,
      "chip": "ym2612"
    },
    {
      "channel": 4,
      "note": 61,
      "start": 25.7874,
      "duration": 0.0164,
      "velocity": 83,
      "chip": "ym2612"
    },
    {
      "channel": 3,
      "note": 49,
      "start": 25.7898,
      "duration": 0.019,
      "velocity": 83,
      "chip": "ym2612"
    },
    {
      "channel": 1,
      "note": 83,
      "start": 25.7949,
      "duration": 0.0239,
      "velocity": 83,
      "chip": "ym2612"
    },
    {
      "channel": 2,
      "note": 71,
      "start": 25.7975,
      "duration": 0.0215,
      "velocity": 83,
      "chip": "ym2612"
    },
    {
      "channel": 2,
      "note": 81,
      "start": 25.828,
      "duration": 0.2195,
      "velocity": 104,
      "chip": "ym2612"
    },
    {
      "channel": 0,
      "note": 49,
      "start": 25.8305,
      "duration": 0.1669,
      "velocity": 111,
      "chip": "ym2612"
    },
    {
      "channel": 2,
      "note": 81,
      "start": 26.0509,
      "duration": 0.0468,
      "velocity": 121,
      "chip": "ym2612"
    },
    {
      "channel": 0,
      "note": 40,
      "start": 26.0541,
      "duration": 0.1432,
      "velocity": 111,
      "chip": "ym2612"
    },
    {
      "channel": 1,
      "note": 79,
      "start": 26.0582,
      "duration": 0.1393,
      "velocity": 83,
      "chip": "ym2612"
    },
    {
      "channel": 3,
      "note": 84,
      "start": 26.0606,
      "duration": 0.137,
      "velocity": 83,
      "chip": "ym2612"
    },
    {
      "channel": 4,
      "note": 75,
      "start": 26.0631,
      "duration": 0.1346,
      "velocity": 83,
      "chip": "ym2612"
    },
    {
      "channel": 2,
      "note": 81,
      "start": 26.2009,
      "duration": 0.0468,
      "velocity": 121,
      "chip": "ym2612"
    },
    {
      "channel": 0,
      "note": 52,
      "start": 26.2346,
      "duration": 0.1295,
      "velocity": 111,
      "chip": "ym2612"
    },
    {
      "channel": 1,
      "note": 85,
      "start": 26.2377,
      "duration": 0.1431,
      "velocity": 83,
      "chip": "ym2612"
    },
    {
      "channel": 3,
      "note": 80,
      "start": 26.24,
      "duration": 0.1409,
      "velocity": 83,
      "chip": "ym2612"
    },
    {
      "channel": 4,
      "note": 74,
      "start": 26.2428,
      "duration": 0.1383,
      "velocity": 83,
      "chip": "ym2612"
    },
    {
      "channel": 5,
      "note": 45,
      "start": 26.3676,
      "duration": 0.1467,
      "velocity": 122,
      "chip": "ym2612"
    },
    {
      "channel": 2,
      "note": 81,
      "start": 26.3703,
      "duration": 0.0439,
      "velocity": 121,
      "chip": "ym2612"
    },
    {
      "channel": 0,
      "note": 40,
      "start": 26.3732,
      "duration": 0.1408,
      "velocity": 111,
      "chip": "ym2612"
    },
    {
      "channel": 2,
      "note": 81,
      "start": 26.5174,
      "duration": 0.0468,
      "velocity": 121,
      "chip": "ym2612"
    },
    {
      "channel": 1,
      "note": 52,
      "start": 26.6674,
      "duration": 0.0839,
      "velocity": 88,
      "chip": "ym2612"
    },
    {
      "channel": 3,
      "note": 49,
      "start": 26.6707,
      "duration": 0.056,
      "velocity": 125,
      "chip": "ym2612"
    },
    {
      "channel": 2,
      "note": 81,
      "start": 26.6766,
      "duration": 0.0132,
      "velocity": 121,
      "chip": "ym2612"
    },
    {
      "channel": 0,
      "note": 52,
      "start": 26.6791,
      "duration": 0.0822,
      "velocity": 111,
      "chip": "ym2612"
    },
    {
      "channel": 4,
      "note": 45,
      "start": 26.7295,
      "duration": 0.0642,
      "velocity": 122,
      "chip": "ym2612"
    },
    {
      "channel": 2,
      "note": 81,
      "start": 26.7328,
      "duration": 0.0124,
      "velocity": 121,
      "chip": "ym2612"
    },
    {
      "channel": 1,
      "note": 52,
      "start": 26.7967,
      "duration": 0.1801,
      "velocity": 88,
      "chip": "ym2612"
    },
    {
      "channel": 0,
      "note": 40,
      "start": 26.8002,
      "duration": 0.0599,
      "velocity": 111,
      "chip": "ym2612"
    },
    {
      "channel": 3,
      "note": 80,
      "start": 26.8032,
      "duration": 0.1737,
      "velocity": 110,
      "chip": "ym2612"
    },
    {
      "channel": 2,
      "note": 76,
      "start": 26.808,
      "duration": 0.1191,
      "velocity": 110,
      "chip": "ym2612"
    },
    {
      "channel": 2,
      "note": 81,
      "start": 26.9469,
      "duration": 0.0469,
      "velocity": 121,
      "chip": "ym2612"
    },
    {
      "channel": 0,
      "note": 52,
      "start": 26.9807,
      "duration": 0.0628,
      "velocity": 111,
      "chip": "ym2612"
    },
    {
      "channel": 3,
      "note": 78,
      "start": 26.984,
      "duration": 0.0929,
      "velocity": 110,
      "chip": "ym2612"
    },
    {
      "channel": 5,
      "note": 74,
      "start": 26.9873,
      "duration": 0.1065,
      "velocity": 110,
      "chip": "ym2612"
    },
    {
      "channel": 2,
      "note": 81,
      "start": 27.0969,
      "duration": 0.0635,
      "velocity": 121,
      "chip": "ym2612"
    },
    {
      "channel": 0,
      "note": 40,
      "start": 27.1002,
      "duration": 0.0599,
      "velocity": 111,
      "chip": "ym2612"
    },
    {
      "channel": 3,
      "note": 80,
      "start": 27.1031,
      "duration": 0.1738,
      "velocity": 110,
      "chip": "ym2612"
    },
    {
      "channel": 5,
      "note": 76,
      "start": 27.1062,
      "duration": 0.1543,
      "velocity": 110,
      "chip": "ym2612"
    },
    {
      "channel": 2,
      "note": 81,
      "start": 27.2639,
      "duration": 0.0464,
      "velocity": 121,
      "chip": "ym2612"
    },
    {
      "channel": 0,
      "note": 52,
      "start": 27.2808,
      "duration": 0.1127,
      "velocity": 111,
      "chip": "ym2612"
    },
    {
      "channel": 3,
      "note": 70,
      "start": 27.2837,
      "duration": 0.11,
      "velocity": 110,
      "chip": "ym2612"
    },
    {
      "channel": 5,
      "note": 73,
      "start": 27.2868,
      "duration": 0.1071,
      "velocity": 110,
      "chip": "ym2612"
    },
    {
      "channel": 4,
      "note": 45,
      "start": 27.4139,
      "duration": 0.0798,
      "velocity": 122,
      "chip": "ym2612"
    },
    {
      "channel": 2,
      "note": 81,
      "start": 27.4165,
      "duration": 0.0438,
      "velocity": 121,
      "chip": "ym2612"
    },
    {
      "channel": 0,
      "note": 40,
      "start": 27.4195,
      "duration": 0.2741,
      "velocity": 111,
      "chip": "ym2612"
    },
    {
      "channel": 3,
      "note": 69,
      "start": 27.4223,
      "duration": 0.138,
      "velocity": 110,
      "chip": "ym2612"
    },
    {
      "channel": 5,
      "note": 72,
      "start": 27.4253,
      "duration": 0.1183,
      "velocity": 110,
      "chip": "ym2612"
    },
    {
      "channel": 4,
      "note": 45,
      "start": 27.5636,
      "duration": 0.1133,
      "velocity": 122,
      "chip": "ym2612"
    },
    {
      "channel": 2,
      "note": 81,
      "start": 27.5665,
      "duration": 0.0439,
      "velocity": 121,
      "chip": "ym2612"
    },
    {
      "channel": 3,
      "note": 68,
      "start": 27.5976,
      "duration": 0.4128,
      "velocity": 110,
      "chip": "ym2612"
    },
    {
      "channel": 5,
      "note": 71,
      "start": 27.6006,
      "duration": 0.41,
      "velocity": 110,
      "chip": "ym2612"
    },
    {
      "channel": 1,
      "note": 49,
      "start": 27.7301,
      "duration": 0.1468,
      "velocity": 125,
      "chip": "ym2612"
    },
    {
      "channel": 0,
      "note": 52,
      "start": 27.7335,
      "duration": 0.2434,
      "velocity": 111,
      "chip": "ym2612"
    },
    {
      "channel": 2,
      "note": 52,
      "start": 27.7383,
      "duration": 0.0555,
      "velocity": 83,
      "chip": "ym2612"
    },
    {
      "channel": 2,
      "note": 81,
      "start": 27.8805,
      "duration": 0.0468,
      "velocity": 121,
      "chip": "ym2612"
    },
    {
      "channel": 4,
      "note": 64,
      "start": 27.9147,
      "duration": 0.1123,
      "velocity": 83,
      "chip": "ym2612"
    },
    {
      "channel": 1,
      "note": 52,
      "start": 27.9176,
      "duration": 0.1593,
      "velocity": 83,
      "chip": "ym2612"
    },
    {
      "channel": 2,
      "note": 56,
      "start": 28.0304,
      "duration": 0.001,
      "velocity": 88,
      "chip": "ym2612"
    },
    {
      "channel": 2,
      "note": 81,
      "start": 28.0334,
      "duration": 0.3102,
      "velocity": 104,
      "chip": "ym2612"
    },
    {
      "channel": 0,
      "note": 40,
      "start": 28.036,
      "duration": 0.2075,
      "velocity": 111,
      "chip": "ym2612"
    },
    {
      "channel": 1,
      "note": 64,
      "start": 28.2147,
      "duration": 0.0955,
      "velocity": 83,
      "chip": "ym2612"
    },
    {
      "channel": 3,
      "note": 45,
      "start": 28.347,
      "duration": 0.18,
      "velocity": 122,
      "chip": "ym2612"
    },
    {
      "channel": 2,
      "note": 81,
      "start": 28.3499,
      "duration": 0.044,
      "velocity": 121,
      "chip": "ym2612"
    },
    {
      "channel": 0,
      "note": 42,
      "start": 28.3527,
      "duration": 0.1407,
      "velocity": 111,
      "chip": "ym2612"
    },
    {
      "channel": 1,
      "note": 83,
      "start": 28.3568,
      "duration": 0.1201,
      "velocity": 83,
      "chip": "ym2612"
    },
    {
      "channel": 4,
      "note": 88,
      "start": 28.3595,
      "duration": 0.1342,
      "velocity": 83,
      "chip": "ym2612"
    },
    {
      "channel": 5,
      "note": 78,
      "start": 28.3622,
      "duration": 0.1316,
      "velocity": 83,
      "chip": "ym2612"
    },
    {
      "channel": 2,
      "note": 81,
      "start": 28.497,
      "duration": 0.0467,
      "velocity": 121,
      "chip": "ym2612"
    },
    {
      "channel": 0,
      "note": 54,
      "start": 28.5312,
      "duration": 0.0622,
      "velocity": 111,
      "chip": "ym2612"
    },
    {
      "channel": 1,
      "note": 82,
      "start": 28.534,
      "duration": 0.1429,
      "velocity": 83,
      "chip": "ym2612"
    },
    {
      "channel": 4,
      "note": 76,
      "start": 28.5365,
      "duration": 0.1737,
      "velocity": 83,
      "chip": "ym2612"
    },
    {
      "channel": 5,
      "note": 87,
      "start": 28.5393,
      "duration": 0.1377,
      "velocity": 83,
      "chip": "ym2612"
    },
    {
      "channel": 2,
      "note": 81,
      "start": 28.6634,
      "duration": 0.047,
      "velocity": 121,
      "chip": "ym2612"
    },
    {
      "channel": 0,
      "note": 42,
      "start": 28.6663,
      "duration": 0.1438,
      "velocity": 111,
      "chip": "ym2612"
    },
    {
      "channel": 3,
      "note": 45,
      "start": 28.8134,
      "duration": 0.1658,
      "velocity": 122,
      "chip": "ym2612"
    },
    {
      "channel": 2,
      "note": 81,
      "start": 28.8162,
      "duration": 0.0441,
      "velocity": 121,
      "chip": "ym2612"
    },
    {
      "channel": 1,
      "note": 54,
      "start": 28.9639,
      "duration": 0.0832,
      "velocity": 88,
      "chip": "ym2612"
    },
    {
      "channel": 5,
      "note": 49,
      "start": 28.9667,
      "duration": 0.0007,
      "velocity": 125,
      "chip": "ym2612"
    },
    {
      "channel": 0,
      "note": 54,
      "start": 28.9729,
      "duration": 0.0625,
      "velocity": 111,
      "chip": "ym2612"
    },
    {
      "channel": 2,
      "note": 81,
      "start": 29.0197,
      "duration": 0.0224,
      "velocity": 121,
      "chip": "ym2612"
    },
    {
      "channel": 4,
      "note": 82,
      "start": 29.0323,
      "duration": 0.0255,
      "velocity": 101,
      "chip": "ym2612"
    },
    {
      "channel": 3,
      "note": 87,
      "start": 29.0348,
      "duration": 0.0284,
      "velocity": 101,
      "chip": "ym2612"
    },
    {
      "channel": 0,
      "note": 90,
      "start": 29.0374,
      "duration": 0.0202,
      "velocity": 101,
      "chip": "ym2612"
    },
    {
      "channel": 1,
      "note": 54,
      "start": 29.0928,
      "duration": 0.1801,
      "velocity": 88,
      "chip": "ym2612"
    },
    {
      "channel": 2,
      "note": 42,
      "start": 29.0966,
      "duration": 0.1265,
      "velocity": 111,
      "chip": "ym2612"
    },
    {
      "channel": 2,
      "note": 81,
      "start": 29.2429,
      "duration": 0.047,
      "velocity": 121,
      "chip": "ym2612"
    },
    {
      "channel": 0,
      "note": 54,
      "start": 29.2772,
      "duration": 0.0624,
      "velocity": 111,
      "chip": "ym2612"
    },
    {
      "channel": 3,
      "note": 82,
      "start": 29.28,
      "duration": 0.0598,
      "velocity": 101,
      "chip": "ym2612"
    },
    {
      "channel": 4,
      "note": 87,
      "start": 29.2825,
      "duration": 0.0574,
      "velocity": 101,
      "chip": "ym2612"
    },
    {
      "channel": 5,
      "note": 90,
      "start": 29.2858,
      "duration": 0.0372,
      "velocity": 101,
      "chip": "ym2612"
    },
    {
      "channel": 2,
      "note": 81,
      "start": 29.3928,
      "duration": 0.0471,
      "velocity": 121,
      "chip": "ym2612"
    },
    {
      "channel": 0,
      "note": 42,
      "start": 29.3961,
      "duration": 0.1101,
      "velocity": 111,
      "chip": "ym2612"
    },
    {
      "channel": 2,
      "note": 81,
      "start": 29.5599,
      "duration": 0.0466,
      "velocity": 121,
      "chip": "ym2612"
    },
    {
      "channel": 0,
      "note": 54,
      "start": 29.5767,
      "duration": 0.0963,
      "velocity": 111,
      "chip": "ym2612"
    },
    {
      "channel": 3,
      "note": 90,
      "start": 29.5796,
      "duration": 0.0767,
      "velocity": 101,
      "chip": "ym2612"
    },
    {
      "channel": 4,
      "note": 82,
      "start": 29.5823,
      "duration": 0.0908,
      "velocity": 101,
      "chip": "ym2612"
    },
    {
      "channel": 5,
      "note": 87,
      "start": 29.5849,
      "duration": 0.0883,
      "velocity": 101,
      "chip": "ym2612"
    },
    {
      "channel": 1,
      "note": 45,
      "start": 29.7098,
      "duration": 0.0798,
      "velocity": 122,
      "chip": "ym2612"
    },
    {
      "channel": 2,
      "note": 81,
      "start": 29.7124,
      "duration": 0.044,
      "velocity": 121,
      "chip": "ym2612"
    },
    {
      "channel": 0,
      "note": 42,
      "start": 29.7154,
      "duration": 0.1851,
      "velocity": 111,
      "chip": "ym2612"
    },
    {
      "channel": 3,
      "note": 80,
      "start": 29.7191,
      "duration": 0.0873,
      "velocity": 103,
      "chip": "ym2612"
    },
    {
      "channel": 4,
      "note": 85,
      "start": 29.7216,
      "duration": 0.0849,
      "velocity": 103,
      "chip": "ym2612"
    },
    {
      "channel": 5,
      "note": 76,
      "start": 29.7248,
      "duration": 0.0819,
      "velocity": 103,
      "chip": "ym2612"
    },
    {
      "channel": 1,
      "note": 45,
      "start": 29.8598,
      "duration": 0.1132,
      "velocity": 122,
      "chip": "ym2612"
    },
    {
      "channel": 2,
      "note": 81,
      "start": 29.8624,
      "duration": 0.0441,
      "velocity": 121,
      "chip": "ym2612"
    },
    {
      "channel": 3,
      "note": 82,
      "start": 29.8937,
      "duration": 0.0794,
      "velocity": 103,
      "chip": "ym2612"
    },
    {
      "channel": 4,
      "note": 87,
      "start": 29.8962,
      "duration": 0.077,
      "velocity": 103,
      "chip": "ym2612"
    },
    {
      "channel": 5,
      "note": 78,
      "start": 29.899,
      "duration": 0.0907,
      "velocity": 103,
      "chip": "ym2612"
    },
    {
      "channel": 0,
      "note": 52,
      "start": 29.9024,
      "duration": 0.0038,
      "velocity": 83,
      "chip": "ym2612"
    },
    {
      "channel": 0,
      "note": 49,
      "start": 30.0261,
      "duration": 0.0227,
      "velocity": 125,
      "chip": "ym2612"
    },
    {
      "channel": 2,
      "note": 81,
      "start": 30.0287,
      "duration": 0.0172,
      "velocity": 121,
      "chip": "ym2612"
    },
    {
      "channel": 1,
      "note": 54,
      "start": 30.0318,
      "duration": 0.0106,
      "velocity": 111,
      "chip": "ym2612"
    },
    {
      "channel": 3,
      "note": 80,
      "start": 30.0357,
      "duration": 0.1039,
      "velocity": 101,
      "chip": "ym2612"
    },
    {
      "channel": 4,
      "note": 73,
      "start": 30.0382,
      "duration": 0.1016,
      "velocity": 101,
      "chip": "ym2612"
    },
    {
      "channel": 5,
      "note": 76,
      "start": 30.041,
      "duration": 0.0114,
      "velocity": 101,
      "chip": "ym2612"
    },
    {
      "channel": 1,
      "note": 76,
      "start": 30.0444,
      "duration": 0.0952,
      "velocity": 101,
      "chip": "ym2612"
    },
    {
      "channel": 2,
      "note": 83,
      "start": 30.0479,
      "duration": 0.1252,
      "velocity": 83,
      "chip": "ym2612"
    },
    {
      "channel": 0,
      "note": 79,
      "start": 30.0508,
      "duration": 0.0013,
      "velocity": 83,
      "chip": "ym2612"
    },
    {
      "channel": 0,
      "note": 78,
      "start": 30.1269,
      "duration": 0.0825,
      "velocity": 83,
      "chip": "ym2612"
    },
    {
      "channel": 2,
      "note": 81,
      "start": 30.1796,
      "duration": 0.0138,
      "velocity": 121,
      "chip": "ym2612"
    },
    {
      "channel": 1,
      "note": 78,
      "start": 30.1867,
      "duration": 0.0228,
      "velocity": 101,
      "chip": "ym2612"
    },
    {
      "channel": 3,
      "note": 75,
      "start": 30.1889,
      "duration": 0.0207,
      "velocity": 101,
      "chip": "ym2612"
    },
    {
      "channel": 4,
      "note": 82,
      "start": 30.1913,
      "duration": 0.0183,
      "velocity": 101,
      "chip": "ym2612"
    },
    {
      "channel": 2,
      "note": 76,
      "start": 30.1953,
      "duration": 0.029,
      "velocity": 83,
      "chip": "ym2612"
    },
    {
      "channel": 2,
      "note": 81,
      "start": 30.2323,
      "duration": 0.2198,
      "velocity": 104,
      "chip": "ym2612"
    },
    {
      "channel": 0,
      "note": 42,
      "start": 30.2356,
      "duration": 0.0089,
      "velocity": 111,
      "chip": "ym2612"
    },
    {
      "channel": 1,
      "note": 66,
      "start": 30.238,
      "duration": 0.0401,
      "velocity": 103,
      "chip": "ym2612"
    },
    {
      "channel": 3,
      "note": 70,
      "start": 30.2403,
      "duration": 0.0378,
      "velocity": 103,
      "chip": "ym2612"
    },
    {
      "channel": 4,
      "note": 75,
      "start": 30.2429,
      "duration": 0.0354,
      "velocity": 103,
      "chip": "ym2612"
    },
    {
      "channel": 0,
      "note": 73,
      "start": 30.2463,
      "duration": 0.1055,
      "velocity": 83,
      "chip": "ym2612"
    },
    {
      "channel": 1,
      "note": 73,
      "start": 30.3226,
      "duration": 0.046,
      "velocity": 103,
      "chip": "ym2612"
    },
    {
      "channel": 3,
      "note": 68,
      "start": 30.325,
      "duration": 0.0437,
      "velocity": 103,
      "chip": "ym2612"
    },
    {
      "channel": 4,
      "note": 64,
      "start": 30.3277,
      "duration": 0.0412,
      "velocity": 103,
      "chip": "ym2612"
    },
    {
      "channel": 2,
      "note": 81,
      "start": 30.4553,
      "duration": 0.0468,
      "velocity": 121,
      "chip": "ym2612"
    },
    {
      "channel": 5,
      "note": 37,
      "start": 30.4585,
      "duration": 0.1435,
      "velocity": 111,
      "chip": "ym2612"
    },
    {
      "channel": 2,
      "note": 81,
      "start": 30.6052,
      "duration": 0.0469,
      "velocity": 121,
      "chip": "ym2612"
    },
    {
      "channel": 5,
      "note": 49,
      "start": 30.6393,
      "duration": 0.0463,
      "velocity": 111,
      "chip": "ym2612"
    },
    {
      "channel": 0,
      "note": 68,
      "start": 30.6421,
      "duration": 0.0597,
      "velocity": 83,
      "chip": "ym2612"
    },
    {
      "channel": 1,
      "note": 78,
      "start": 30.6447,
      "duration": 0.0572,
      "velocity": 83,
      "chip": "ym2612"
    },
    {
      "channel": 3,
      "note": 73,
      "start": 30.6475,
      "duration": 0.0378,
      "velocity": 83,
      "chip": "ym2612"
    },
    {
      "channel": 4,
      "note": 45,
      "start": 30.7553,
      "duration": 0.1634,
      "velocity": 122,
      "chip": "ym2612"
    },
    {
      "channel": 2,
      "note": 81,
      "start": 30.758,
      "duration": 0.0607,
      "velocity": 121,
      "chip": "ym2612"
    },
    {
      "channel": 5,
      "note": 37,
      "start": 30.7615,
      "duration": 0.1573,
      "velocity": 111,
      "chip": "ym2612"
    },
    {
      "channel": 2,
      "note": 81,
      "start": 30.9221,
      "duration": 0.0466,
      "velocity": 121,
      "chip": "ym2612"
    },
    {
      "channel": 3,
      "note": 56,
      "start": 30.9256,
      "duration": 0.0929,
      "velocity": 127,
      "chip": "ym2612"
    },
    {
      "channel": 0,
      "note": 78,
      "start": 30.9394,
      "duration": 0.0458,
      "velocity": 83,
      "chip": "ym2612"
    },
    {
      "channel": 1,
      "note": 68,
      "start": 30.9417,
      "duration": 0.0436,
      "velocity": 83,
      "chip": "ym2612"
    },
    {
      "channel": 4,
      "note": 73,
      "start": 30.9444,
      "duration": 0.0411,
      "velocity": 83,
      "chip": "ym2612"
    },
    {
      "channel": 5,
      "note": 49,
      "start": 31.0719,
      "duration": 0.0036,
      "velocity": 88,
      "chip": "ym2612"
    },
    {
      "channel": 2,
      "note": 49,
      "start": 31.0748,
      "duration": 0.05,
      "velocity": 125,
      "chip": "ym2612"
    },
    {
      "channel": 0,
      "note": 49,
      "start": 31.0815,
      "duration": 0.0632,
      "velocity": 111,
      "chip": "ym2612"
    },
    {
      "channel": 1,
      "note": 45,
      "start": 31.1284,
      "duration": 0.0699,
      "velocity": 122,
      "chip": "ym2612"
    },
    {
      "channel": 2,
      "note": 81,
      "start": 31.1308,
      "duration": 0.0204,
      "velocity": 121,
      "chip": "ym2612"
    },
    {
      "channel": 4,
      "note": 73,
      "start": 31.1418,
      "duration": 0.0253,
      "velocity": 83,
      "chip": "ym2612"
    },
    {
      "channel": 3,
      "note": 78,
      "start": 31.1441,
      "duration": 0.0283,
      "velocity": 83,
      "chip": "ym2612"
    },
    {
      "channel": 0,
      "note": 68,
      "start": 31.1464,
      "duration": 0.0259,
      "velocity": 83,
      "chip": "ym2612"
    },
    {
      "channel": 2,
      "note": 49,
      "start": 31.2019,
      "duration": 0.1465,
      "velocity": 88,
      "chip": "ym2612"
    },
    {
      "channel": 0,
      "note": 76,
      "start": 31.2055,
      "duration": 0.0594,
      "velocity": 83,
      "chip": "ym2612"
    },
    {
      "channel": 3,
      "note": 66,
      "start": 31.2085,
      "duration": 0.0566,
      "velocity": 83,
      "chip": "ym2612"
    },
    {
      "channel": 4,
      "note": 56,
      "start": 31.2118,
      "duration": 0.0365,
      "velocity": 127,
      "chip": "ym2612"
    },
    {
      "channel": 2,
      "note": 81,
      "start": 31.3517,
      "duration": 0.0467,
      "velocity": 121,
      "chip": "ym2612"
    },
    {
      "channel": 5,
      "note": 37,
      "start": 31.3858,
      "duration": 0.0624,
      "velocity": 111,
      "chip": "ym2612"
    },
    {
      "channel": 2,
      "note": 81,
      "start": 31.5015,
      "duration": 0.0469,
      "velocity": 121,
      "chip": "ym2612"
    },
    {
      "channel": 5,
      "note": 61,
      "start": 31.5046,
      "duration": 0.1604,
      "velocity": 111,
      "chip": "ym2612"
    },
    {
      "channel": 2,
      "note": 81,
      "start": 31.6686,
      "duration": 0.0465,
      "velocity": 121,
      "chip": "ym2612"
    },
    {
      "channel": 1,
      "note": 80,
      "start": 31.6855,
      "duration": 0.0795,
      "velocity": 103,
      "chip": "ym2612"
    },
    {
      "channel": 4,
      "note": 83,
      "start": 31.6884,
      "duration": 0.0768,
      "velocity": 103,
      "chip": "ym2612"
    },
    {
      "channel": 5,
      "note": 59,
      "start": 31.6917,
      "duration": 0.09,
      "velocity": 111,
      "chip": "ym2612"
    },
    {
      "channel": 0,
      "note": 88,
      "start": 31.6947,
      "duration": 0.0702,
      "velocity": 103,
      "chip": "ym2612"
    },
    {
      "channel": 3,
      "note": 45,
      "start": 31.8183,
      "duration": 0.08,
      "velocity": 122,
      "chip": "ym2612"
    },
    {
      "channel": 2,
      "note": 81,
      "start": 31.821,
      "duration": 0.0441,
      "velocity": 121,
      "chip": "ym2612"
    },
    {
      "channel": 5,
      "note": 56,
      "start": 31.8245,
      "duration": 0.1239,
      "velocity": 111,
      "chip": "ym2612"
    },
    {
      "channel": 3,
      "note": 45,
      "start": 31.9682,
      "duration": 0.0968,
      "velocity": 122,
      "chip": "ym2612"
    },
    {
      "channel": 2,
      "note": 81,
      "start": 31.971,
      "duration": 0.0441,
      "velocity": 121,
      "chip": "ym2612"
    },
    {
      "channel": 1,
      "note": 81,
      "start": 32.0025,
      "duration": 0.0957,
      "velocity": 103,
      "chip": "ym2612"
    },
    {
      "channel": 4,
      "note": 72,
      "start": 32.0055,
      "duration": 0.0597,
      "velocity": 103,
      "chip": "ym2612"
    },
    {
      "channel": 5,
      "note": 54,
      "start": 32.0087,
      "duration": 0.0899,
      "velocity": 111,
      "chip": "ym2612"
    },
    {
      "channel": 0,
      "note": 89,
      "start": 32.0113,
      "duration": 0.0868,
      "velocity": 103,
      "chip": "ym2612"
    },
    {
      "channel": 2,
      "note": 49,
      "start": 32.1349,
      "duration": 0.1468,
      "velocity": 125,
      "chip": "ym2612"
    },
    {
      "channel": 5,
      "note": 52,
      "start": 32.1384,
      "duration": 0.11,
      "velocity": 111,
      "chip": "ym2612"
    },
    {
      "channel": 3,
      "note": 45,
      "start": 32.2849,
      "duration": 0.0545,
      "velocity": 122,
      "chip": "ym2612"
    },
    {
      "channel": 1,
      "note": 82,
      "start": 32.2967,
      "duration": 0.1026,
      "velocity": 103,
      "chip": "ym2612"
    },
    {
      "channel": 4,
      "note": 73,
      "start": 32.2993,
      "duration": 0.1001,
      "velocity": 103,
      "chip": "ym2612"
    },
    {
      "channel": 0,
      "note": 49,
      "start": 32.3021,
      "duration": 0.0317,
      "velocity": 111,
      "chip": "ym2612"
    },
    {
      "channel": 2,
      "note": 90,
      "start": 32.3057,
      "duration": 0.0938,
      "velocity": 103,
      "chip": "ym2612"
    },
    {
      "channel": 0,
      "note": 47,
      "start": 32.3436,
      "duration": 0.0714,
      "velocity": 111,
      "chip": "ym2612"
    },
    {
      "channel": 3,
      "note": 45,
      "start": 32.4983,
      "duration": 0.1799,
      "velocity": 122,
      "chip": "ym2612"
    },
    {
      "channel": 0,
      "note": 59,
      "start": 32.5027,
      "duration": 0.0922,
      "velocity": 125,
      "chip": "ym2612"
    },
    {
      "channel": 2,
      "note": 49,
      "start": 32.507,
      "duration": 0.138,
      "velocity": 111,
      "chip": "ym2612"
    },
    {
      "channel": 0,
      "note": 61,
      "start": 32.6485,
      "duration": 0.0963,
      "velocity": 125,
      "chip": "ym2612"
    },
    {
      "channel": 2,
      "note": 47,
      "start": 32.6513,
      "duration": 0.1436,
      "velocity": 111,
      "chip": "ym2612"
    },
    {
      "channel": 1,
      "note": 61,
      "start": 32.6823,
      "duration": 0.0626,
      "velocity": 125,
      "chip": "ym2612"
    },
    {
      "channel": 0,
      "note": 59,
      "start": 32.8002,
      "duration": 0.0779,
      "velocity": 125,
      "chip": "ym2612"
    },
    {
      "channel": 2,
      "note": 49,
      "start": 32.8031,
      "duration": 0.1585,
      "velocity": 111,
      "chip": "ym2612"
    },
    {
      "channel": 3,
      "note": 45,
      "start": 32.9646,
      "duration": 0.1632,
      "velocity": 122,
      "chip": "ym2612"
    },
    {
      "channel": 2,
      "note": 58,
      "start": 32.9703,
      "duration": 0.0413,
      "velocity": 98,
      "chip": "ym2612"
    },
    {
      "channel": 4,
      "note": 61,
      "start": 33.1149,
      "duration": 0.0932,
      "velocity": 125,
      "chip": "ym2612"
    },
    {
      "channel": 2,
      "note": 59,
      "start": 33.1686,
      "duration": 0.0128,
      "velocity": 98,
      "chip": "ym2612"
    },
    {
      "channel": 0,
      "note": 59,
      "start": 33.3955,
      "duration": 0.0957,
      "velocity": 125,
      "chip": "ym2612"
    },
    {
      "channel": 1,
      "note": 61,
      "start": 33.4283,
      "duration": 0.0464,
      "velocity": 125,
      "chip": "ym2612"
    },
    {
      "channel": 3,
      "note": 61,
      "start": 33.5466,
      "duration": 0.078,
      "velocity": 127,
      "chip": "ym2612"
    },
    {
      "channel": 0,
      "note": 61,
      "start": 33.7129,
      "duration": 0.1119,
      "velocity": 125,
      "chip": "ym2612"
    },
    {
      "channel": 3,
      "note": 59,
      "start": 33.716,
      "duration": 0.092,
      "velocity": 127,
      "chip": "ym2612"
    },
    {
      "channel": 2,
      "note": 45,
      "start": 33.8615,
      "duration": 0.0802,
      "velocity": 122,
      "chip": "ym2612"
    },
    {
      "channel": 0,
      "note": 59,
      "start": 33.8656,
      "duration": 0.0924,
      "velocity": 125,
      "chip": "ym2612"
    },
    {
      "channel": 2,
      "note": 45,
      "start": 34.0114,
      "duration": 0.0969,
      "velocity": 122,
      "chip": "ym2612"
    },
    {
      "channel": 0,
      "note": 59,
      "start": 34.0146,
      "duration": 0.0933,
      "velocity": 125,
      "chip": "ym2612"
    },
    {
      "channel": 4,
      "note": 61,
      "start": 34.1777,
      "duration": 0.0916,
      "velocity": 125,
      "chip": "ym2612"
    },
    {
      "channel": 1,
      "note": 61,
      "start": 34.3738,
      "duration": 0.0298,
      "velocity": 125,
      "chip": "ym2612"
    },
    {
      "channel": 1,
      "note": 61,
      "start": 34.4402,
      "duration": 0.0134,
      "velocity": 125,
      "chip": "ym2612"
    },
    {
      "channel": 1,
      "note": 61,
      "start": 34.4903,
      "duration": 0.0132,
      "velocity": 125,
      "chip": "ym2612"
    },
    {
      "channel": 0,
      "note": 59,
      "start": 34.5414,
      "duration": 0.0954,
      "velocity": 125,
      "chip": "ym2612"
    },
    {
      "channel": 3,
      "note": 49,
      "start": 34.5462,
      "duration": 0.1406,
      "velocity": 111,
      "chip": "ym2612"
    },
    {
      "channel": 1,
      "note": 61,
      "start": 34.6905,
      "duration": 0.0464,
      "velocity": 125,
      "chip": "ym2612"
    },
    {
      "channel": 0,
      "note": 61,
      "start": 34.6942,
      "duration": 0.0927,
      "velocity": 125,
      "chip": "ym2612"
    },
    {
      "channel": 3,
      "note": 47,
      "start": 34.6972,
      "duration": 0.1396,
      "velocity": 111,
      "chip": "ym2612"
    },
    {
      "channel": 2,
      "note": 45,
      "start": 34.8403,
      "duration": 0.1634,
      "velocity": 122,
      "chip": "ym2612"
    },
    {
      "channel": 0,
      "note": 59,
      "start": 34.8454,
      "duration": 0.108,
      "velocity": 125,
      "chip": "ym2612"
    },
    {
      "channel": 3,
      "note": 49,
      "start": 34.848,
      "duration": 0.1555,
      "velocity": 111,
      "chip": "ym2612"
    },
    {
      "channel": 3,
      "note": 58,
      "start": 35.0093,
      "duration": 0.0442,
      "velocity": 98,
      "chip": "ym2612"
    },
    {
      "channel": 4,
      "note": 61,
      "start": 35.1567,
      "duration": 0.0884,
      "velocity": 125,
      "chip": "ym2612"
    },
    {
      "channel": 3,
      "note": 59,
      "start": 35.2098,
      "duration": 0.0133,
      "velocity": 98,
      "chip": "ym2612"
    },
    {
      "channel": 3,
      "note": 52,
      "start": 35.2895,
      "duration": 0.3784,
      "velocity": 98,
      "chip": "ym2612"
    },
    {
      "channel": 1,
      "note": 61,
      "start": 35.4383,
      "duration": 0.0461,
      "velocity": 125,
      "chip": "ym2612"
    },
    {
      "channel": 0,
      "note": 56,
      "start": 35.4421,
      "duration": 0.0922,
      "velocity": 125,
      "chip": "ym2612"
    },
    {
      "channel": 0,
      "note": 58,
      "start": 35.7561,
      "duration": 0.095,
      "velocity": 125,
      "chip": "ym2612"
    },
    {
      "channel": 2,
      "note": 54,
      "start": 35.7593,
      "duration": 0.1419,
      "velocity": 127,
      "chip": "ym2612"
    },
    {
      "channel": 4,
      "note": 45,
      "start": 35.9046,
      "duration": 0.0633,
      "velocity": 122,
      "chip": "ym2612"
    },
    {
      "channel": 0,
      "note": 56,
      "start": 35.9091,
      "duration": 0.1251,
      "velocity": 125,
      "chip": "ym2612"
    },
    {
      "channel": 4,
      "note": 45,
      "start": 36.0546,
      "duration": 0.0964,
      "velocity": 122,
      "chip": "ym2612"
    },
    {
      "channel": 0,
      "note": 64,
      "start": 36.058,
      "duration": 0.0929,
      "velocity": 125,
      "chip": "ym2612"
    },
    {
      "channel": 2,
      "note": 55,
      "start": 36.0611,
      "duration": 0.1233,
      "velocity": 127,
      "chip": "ym2612"
    },
    {
      "channel": 5,
      "note": 61,
      "start": 36.2042,
      "duration": 0.1648,
      "velocity": 125,
      "chip": "ym2612"
    },
    {
      "channel": 2,
      "note": 56,
      "start": 36.3753,
      "duration": 0.0396,
      "velocity": 127,
      "chip": "ym2612"
    },
    {
      "channel": 4,
      "note": 45,
      "start": 36.5826,
      "duration": 0.0972,
      "velocity": 122,
      "chip": "ym2612"
    },
    {
      "channel": 0,
      "note": 59,
      "start": 36.5869,
      "duration": 0.0926,
      "velocity": 125,
      "chip": "ym2612"
    },
    {
      "channel": 3,
      "note": 49,
      "start": 36.5914,
      "duration": 0.1382,
      "velocity": 111,
      "chip": "ym2612"
    },
    {
      "channel": 0,
      "note": 61,
      "start": 36.7332,
      "duration": 0.0963,
      "velocity": 125,
      "chip": "ym2612"
    },
    {
      "channel": 1,
      "note": 61,
      "start": 36.7665,
      "duration": 0.0631,
      "velocity": 125,
      "chip": "ym2612"
    },
    {
      "channel": 0,
      "note": 59,
      "start": 36.8841,
      "duration": 0.112,
      "velocity": 125,
      "chip": "ym2612"
    },
    {
      "channel": 0,
      "note": 61,
      "start": 37.0499,
      "duration": 0.0963,
      "velocity": 125,
      "chip": "ym2612"
    },
    {
      "channel": 3,
      "note": 49,
      "start": 37.0548,
      "duration": 0.0081,
      "velocity": 98,
      "chip": "ym2612"
    },
    {
      "channel": 2,
      "note": 61,
      "start": 37.1997,
      "duration": 0.0955,
      "velocity": 125,
      "chip": "ym2612"
    },
    {
      "channel": 3,
      "note": 58,
      "start": 37.2068,
      "duration": 0.0122,
      "velocity": 98,
      "chip": "ym2612"
    },
    {
      "channel": 4,
      "note": 45,
      "start": 37.2542,
      "duration": 0.0294,
      "velocity": 122,
      "chip": "ym2612"
    },
    {
      "channel": 3,
      "note": 59,
      "start": 37.3315,
      "duration": 0.0451,
      "velocity": 98,
      "chip": "ym2612"
    },
    {
      "channel": 0,
      "note": 59,
      "start": 37.4805,
      "duration": 0.1294,
      "velocity": 125,
      "chip": "ym2612"
    },
    {
      "channel": 1,
      "note": 61,
      "start": 37.497,
      "duration": 0.063,
      "velocity": 125,
      "chip": "ym2612"
    },
    {
      "channel": 0,
      "note": 61,
      "start": 37.7818,
      "duration": 0.1115,
      "velocity": 125,
      "chip": "ym2612"
    },
    {
      "channel": 4,
      "note": 45,
      "start": 37.9467,
      "duration": 0.0635,
      "velocity": 122,
      "chip": "ym2612"
    },
    {
      "channel": 4,
      "note": 45,
      "start": 38.0966,
      "duration": 0.0969,
      "velocity": 122,
      "chip": "ym2612"
    },
    {
      "channel": 0,
      "note": 59,
      "start": 38.0997,
      "duration": 0.0937,
      "velocity": 125,
      "chip": "ym2612"
    },
    {
      "channel": 5,
      "note": 61,
      "start": 38.1029,
      "duration": 0.0907,
      "velocity": 127,
      "chip": "ym2612"
    },
    {
      "channel": 2,
      "note": 61,
      "start": 38.2466,
      "duration": 0.094,
      "velocity": 125,
      "chip": "ym2612"
    },
    {
      "channel": 0,
      "note": 66,
      "start": 38.3044,
      "duration": 0.036,
      "velocity": 125,
      "chip": "ym2612"
    },
    {
      "channel": 3,
      "note": 59,
      "start": 38.307,
      "duration": 0.028,
      "velocity": 127,
      "chip": "ym2612"
    },
    {
      "channel": 1,
      "note": 61,
      "start": 38.4585,
      "duration": 0.0298,
      "velocity": 125,
      "chip": "ym2612"
    },
    {
      "channel": 1,
      "note": 61,
      "start": 38.5083,
      "duration": 0.03,
      "velocity": 125,
      "chip": "ym2612"
    },
    {
      "channel": 1,
      "note": 61,
      "start": 38.5751,
      "duration": 0.0131,
      "velocity": 125,
      "chip": "ym2612"
    },
    {
      "channel": 0,
      "note": 61,
      "start": 38.6264,
      "duration": 0.0951,
      "velocity": 125,
      "chip": "ym2612"
    },
    {
      "channel": 1,
      "note": 61,
      "start": 38.7752,
      "duration": 0.0464,
      "velocity": 125,
      "chip": "ym2612"
    },
    {
      "channel": 0,
      "note": 61,
      "start": 38.7791,
      "duration": 0.0926,
      "velocity": 125,
      "chip": "ym2612"
    },
    {
      "channel": 4,
      "note": 49,
      "start": 38.7822,
      "duration": 0.1228,
      "velocity": 111,
      "chip": "ym2612"
    },
    {
      "channel": 3,
      "note": 45,
      "start": 38.925,
      "duration": 0.1633,
      "velocity": 122,
      "chip": "ym2612"
    },
    {
      "channel": 2,
      "note": 81,
      "start": 38.9295,
      "duration": 0.2757,
      "velocity": 104,
      "chip": "ym2612"
    },
    {
      "channel": 0,
      "note": 61,
      "start": 39.0923,
      "duration": 0.1126,
      "velocity": 125,
      "chip": "ym2612"
    },
    {
      "channel": 4,
      "note": 49,
      "start": 39.0953,
      "duration": 0.0097,
      "velocity": 111,
      "chip": "ym2612"
    },
    {
      "channel": 5,
      "note": 61,
      "start": 39.242,
      "duration": 0.0005,
      "velocity": 125,
      "chip": "ym2612"
    },
    {
      "channel": 4,
      "note": 59,
      "start": 39.2959,
      "duration": 0.0129,
      "velocity": 98,
      "chip": "ym2612"
    },
    {
      "channel": 1,
      "note": 64,
      "start": 39.358,
      "duration": 0.0613,
      "velocity": 83,
      "chip": "ym2612"
    },
    {
      "channel": 3,
      "note": 61,
      "start": 39.5234,
      "duration": 0.046,
      "velocity": 125,
      "chip": "ym2612"
    },
    {
      "channel": 0,
      "note": 61,
      "start": 39.5274,
      "duration": 0.0918,
      "velocity": 125,
      "chip": "ym2612"
    },
    {
      "channel": 4,
      "note": 58,
      "start": 39.53,
      "duration": 0.0395,
      "velocity": 98,
      "chip": "ym2612"
    },
    {
      "channel": 1,
      "note": 63,
      "start": 39.674,
      "duration": 0.0454,
      "velocity": 83,
      "chip": "ym2612"
    },
    {
      "channel": 0,
      "note": 61,
      "start": 39.8244,
      "duration": 0.1282,
      "velocity": 125,
      "chip": "ym2612"
    },
    {
      "channel": 4,
      "note": 54,
      "start": 39.8272,
      "duration": 0.0588,
      "velocity": 98,
      "chip": "ym2612"
    },
    {
      "channel": 2,
      "note": 45,
      "start": 39.9894,
      "duration": 0.0634,
      "velocity": 122,
      "chip": "ym2612"
    },
    {
      "channel": 0,
      "note": 61,
      "start": 39.9937,
      "duration": 0.0922,
      "velocity": 125,
      "chip": "ym2612"
    },
    {
      "channel": 1,
      "note": 66,
      "start": 39.9968,
      "duration": 0.0392,
      "velocity": 83,
      "chip": "ym2612"
    },
    {
      "channel": 2,
      "note": 45,
      "start": 40.1398,
      "duration": 0.0964,
      "velocity": 122,
      "chip": "ym2612"
    },
    {
      "channel": 1,
      "note": 52,
      "start": 40.1444,
      "duration": 0.4516,
      "velocity": 83,
      "chip": "ym2612"
    },
    {
      "channel": 5,
      "note": 59,
      "start": 40.1471,
      "duration": 0.1433,
      "velocity": 83,
      "chip": "ym2612"
    },
    {
      "channel": 3,
      "note": 61,
      "start": 40.2894,
      "duration": 0.188,
      "velocity": 125,
      "chip": "ym2612"
    },
    {
      "channel": 4,
      "note": 61,
      "start": 40.5822,
      "duration": 0.0088,
      "velocity": 125,
      "chip": "ym2612"
    },
    {
      "channel": 4,
      "note": 61,
      "start": 40.599,
      "duration": 0.0089,
      "velocity": 125,
      "chip": "ym2612"
    },
    {
      "channel": 4,
      "note": 61,
      "start": 40.6167,
      "duration": 0.008,
      "velocity": 125,
      "chip": "ym2612"
    },
    {
      "channel": 0,
      "note": 59,
      "start": 40.6474,
      "duration": 9.0076,
      "velocity": 125,
      "chip": "ym2612"
    }
  ]
}