{
  "track_name": "05 - War- Field Operation",
  "duration_sec": 59.13,
  "sample_rate": 44100,
  "note_count": 630,
  "unique_pitches": 32,
  "pitch_range": 46,
  "avg_note_duration": 0.1414,
  "reconstruction_stats": {
    "notes_reconstructed": 630,
    "keyon_events": 630,
    "keyoff_events": 630,
    "orphan_keyons": 0,
    "unique_pitches": 32,
    "pitch_range": 46,
    "avg_duration_sec": 0.1414
  },
  "metadata": {
    "source": "T\\Taikou Risshiden\\05 - War- Field Operation.vgm"
  },
  "notes": [
    {
      "channel": 0,
      "note": 60,
      "start": 0.0175,
      "duration": 0.0999,
      "velocity": 99,
      "chip": "ym2612"
    },
    {
      "channel": 1,
      "note": 76,
      "start": 0.0218,
      "duration": 0.0958,
      "velocity": 86,
      "chip": "ym2612"
    },
    {
      "channel": 2,
      "note": 88,
      "start": 0.026,
      "duration": 0.1434,
      "velocity": 127,
      "chip": "ym2612"
    },
    {
      "channel": 3,
      "note": 76,
      "start": 0.0305,
      "duration": 0.0873,
      "velocity": 86,
      "chip": "ym2612"
    },
    {
      "channel": 0,
      "note": 60,
      "start": 0.2345,
      "duration": 0.0998,
      "velocity": 99,
      "chip": "ym2612"
    },
    {
      "channel": 1,
      "note": 76,
      "start": 0.2351,
      "duration": 0.0994,
      "velocity": 86,
      "chip": "ym2612"
    },
    {
      "channel": 2,
      "note": 88,
      "start": 0.2363,
      "duration": 0.1436,
      "velocity": 127,
      "chip": "ym2612"
    },
    {
      "channel": 3,
      "note": 76,
      "start": 0.237,
      "duration": 0.0978,
      "velocity": 86,
      "chip": "ym2612"
    },
    {
      "channel": 0,
      "note": 60,
      "start": 1.7361,
      "duration": 0.098,
      "velocity": 99,
      "chip": "ym2612"
    },
    {
      "channel": 1,
      "note": 76,
      "start": 1.7368,
      "duration": 0.0975,
      "velocity": 86,
      "chip": "ym2612"
    },
    {
      "channel": 2,
      "note": 88,
      "start": 1.7375,
      "duration": 0.1424,
      "velocity": 127,
      "chip": "ym2612"
    },
    {
      "channel": 3,
      "note": 76,
      "start": 1.7382,
      "duration": 0.0963,
      "velocity": 86,
      "chip": "ym2612"
    },
    {
      "channel": 0,
      "note": 60,
      "start": 1.9513,
      "duration": 0.0952,
      "velocity": 99,
      "chip": "ym2612"
    },
    {
      "channel": 1,
      "note": 76,
      "start": 1.9519,
      "duration": 0.0948,
      "velocity": 86,
      "chip": "ym2612"
    },
    {
      "channel": 2,
      "note": 88,
      "start": 1.9525,
      "duration": 0.1441,
      "velocity": 127,
      "chip": "ym2612"
    },
    {
      "channel": 3,
      "note": 76,
      "start": 1.9531,
      "duration": 0.0938,
      "velocity": 86,
      "chip": "ym2612"
    },
    {
      "channel": 0,
      "note": 60,
      "start": 3.4527,
      "duration": 0.0937,
      "velocity": 99,
      "chip": "ym2612"
    },
    {
      "channel": 1,
      "note": 80,
      "start": 3.4536,
      "duration": 0.0978,
      "velocity": 86,
      "chip": "ym2612"
    },
    {
      "channel": 2,
      "note": 49,
      "start": 3.4579,
      "duration": 0.0937,
      "velocity": 102,
      "chip": "ym2612"
    },
    {
      "channel": 3,
      "note": 64,
      "start": 3.4587,
      "duration": 0.093,
      "velocity": 86,
      "chip": "ym2612"
    },
    {
      "channel": 0,
      "note": 70,
      "start": 3.6636,
      "duration": 0.0995,
      "velocity": 99,
      "chip": "ym2612"
    },
    {
      "channel": 2,
      "note": 49,
      "start": 3.6642,
      "duration": 0.1036,
      "velocity": 102,
      "chip": "ym2612"
    },
    {
      "channel": 0,
      "note": 60,
      "start": 3.8802,
      "duration": 0.0995,
      "velocity": 99,
      "chip": "ym2612"
    },
    {
      "channel": 2,
      "note": 49,
      "start": 3.8809,
      "duration": 0.1062,
      "velocity": 102,
      "chip": "ym2612"
    },
    {
      "channel": 0,
      "note": 70,
      "start": 4.0969,
      "duration": 0.0871,
      "velocity": 99,
      "chip": "ym2612"
    },
    {
      "channel": 1,
      "note": 76,
      "start": 4.0976,
      "duration": 0.099,
      "velocity": 86,
      "chip": "ym2612"
    },
    {
      "channel": 2,
      "note": 49,
      "start": 4.0982,
      "duration": 0.0987,
      "velocity": 102,
      "chip": "ym2612"
    },
    {
      "channel": 3,
      "note": 68,
      "start": 4.099,
      "duration": 0.0981,
      "velocity": 86,
      "chip": "ym2612"
    },
    {
      "channel": 2,
      "note": 49,
      "start": 4.3012,
      "duration": 0.1121,
      "velocity": 102,
      "chip": "ym2612"
    },
    {
      "channel": 0,
      "note": 60,
      "start": 4.5194,
      "duration": 0.0982,
      "velocity": 99,
      "chip": "ym2612"
    },
    {
      "channel": 1,
      "note": 76,
      "start": 4.52,
      "duration": 0.11,
      "velocity": 86,
      "chip": "ym2612"
    },
    {
      "channel": 2,
      "note": 49,
      "start": 4.5206,
      "duration": 0.1096,
      "velocity": 102,
      "chip": "ym2612"
    },
    {
      "channel": 3,
      "note": 68,
      "start": 4.5212,
      "duration": 0.1092,
      "velocity": 86,
      "chip": "ym2612"
    },
    {
      "channel": 0,
      "note": 63,
      "start": 4.7345,
      "duration": 0.0953,
      "velocity": 99,
      "chip": "ym2612"
    },
    {
      "channel": 1,
      "note": 79,
      "start": 4.7352,
      "duration": 0.1115,
      "velocity": 86,
      "chip": "ym2612"
    },
    {
      "channel": 2,
      "note": 49,
      "start": 4.7358,
      "duration": 0.1111,
      "velocity": 102,
      "chip": "ym2612"
    },
    {
      "channel": 3,
      "note": 71,
      "start": 4.7366,
      "duration": 0.1105,
      "velocity": 86,
      "chip": "ym2612"
    },
    {
      "channel": 0,
      "note": 73,
      "start": 4.9469,
      "duration": 0.0995,
      "velocity": 99,
      "chip": "ym2612"
    },
    {
      "channel": 2,
      "note": 64,
      "start": 4.9513,
      "duration": 0.0998,
      "velocity": 122,
      "chip": "ym2612"
    },
    {
      "channel": 0,
      "note": 60,
      "start": 5.1636,
      "duration": 0.0995,
      "velocity": 99,
      "chip": "ym2612"
    },
    {
      "channel": 2,
      "note": 49,
      "start": 5.1679,
      "duration": 0.1024,
      "velocity": 102,
      "chip": "ym2612"
    },
    {
      "channel": 0,
      "note": 70,
      "start": 5.3802,
      "duration": 0.0995,
      "velocity": 99,
      "chip": "ym2612"
    },
    {
      "channel": 1,
      "note": 76,
      "start": 5.381,
      "duration": 0.1037,
      "velocity": 86,
      "chip": "ym2612"
    },
    {
      "channel": 2,
      "note": 49,
      "start": 5.3816,
      "duration": 0.1033,
      "velocity": 102,
      "chip": "ym2612"
    },
    {
      "channel": 3,
      "note": 68,
      "start": 5.3823,
      "duration": 0.1027,
      "velocity": 86,
      "chip": "ym2612"
    },
    {
      "channel": 0,
      "note": 63,
      "start": 5.5969,
      "duration": 0.0874,
      "velocity": 99,
      "chip": "ym2612"
    },
    {
      "channel": 1,
      "note": 79,
      "start": 5.5976,
      "duration": 0.099,
      "velocity": 86,
      "chip": "ym2612"
    },
    {
      "channel": 2,
      "note": 49,
      "start": 5.5982,
      "duration": 0.0987,
      "velocity": 102,
      "chip": "ym2612"
    },
    {
      "channel": 3,
      "note": 71,
      "start": 5.599,
      "duration": 0.0981,
      "velocity": 86,
      "chip": "ym2612"
    },
    {
      "channel": 0,
      "note": 73,
      "start": 5.8012,
      "duration": 0.0995,
      "velocity": 99,
      "chip": "ym2612"
    },
    {
      "channel": 2,
      "note": 49,
      "start": 5.8018,
      "duration": 0.1116,
      "velocity": 102,
      "chip": "ym2612"
    },
    {
      "channel": 0,
      "note": 67,
      "start": 6.0197,
      "duration": 0.0977,
      "velocity": 99,
      "chip": "ym2612"
    },
    {
      "channel": 1,
      "note": 87,
      "start": 6.0204,
      "duration": 0.1096,
      "velocity": 86,
      "chip": "ym2612"
    },
    {
      "channel": 2,
      "note": 64,
      "start": 6.0245,
      "duration": 0.1057,
      "velocity": 122,
      "chip": "ym2612"
    },
    {
      "channel": 3,
      "note": 71,
      "start": 6.0251,
      "duration": 0.1053,
      "velocity": 86,
      "chip": "ym2612"
    },
    {
      "channel": 0,
      "note": 77,
      "start": 6.2345,
      "duration": 0.0953,
      "velocity": 99,
      "chip": "ym2612"
    },
    {
      "channel": 2,
      "note": 49,
      "start": 6.2386,
      "duration": 0.0959,
      "velocity": 102,
      "chip": "ym2612"
    },
    {
      "channel": 0,
      "note": 60,
      "start": 6.4469,
      "duration": 0.0995,
      "velocity": 99,
      "chip": "ym2612"
    },
    {
      "channel": 1,
      "note": 80,
      "start": 6.4476,
      "duration": 0.1037,
      "velocity": 86,
      "chip": "ym2612"
    },
    {
      "channel": 2,
      "note": 49,
      "start": 6.4482,
      "duration": 0.1033,
      "velocity": 102,
      "chip": "ym2612"
    },
    {
      "channel": 3,
      "note": 64,
      "start": 6.449,
      "duration": 0.1027,
      "velocity": 86,
      "chip": "ym2612"
    },
    {
      "channel": 0,
      "note": 70,
      "start": 6.6636,
      "duration": 0.0995,
      "velocity": 99,
      "chip": "ym2612"
    },
    {
      "channel": 2,
      "note": 49,
      "start": 6.6642,
      "duration": 0.1036,
      "velocity": 102,
      "chip": "ym2612"
    },
    {
      "channel": 0,
      "note": 60,
      "start": 6.8802,
      "duration": 0.0897,
      "velocity": 99,
      "chip": "ym2612"
    },
    {
      "channel": 2,
      "note": 49,
      "start": 6.8812,
      "duration": 0.0988,
      "velocity": 102,
      "chip": "ym2612"
    },
    {
      "channel": 0,
      "note": 70,
      "start": 7.0873,
      "duration": 0.0967,
      "velocity": 99,
      "chip": "ym2612"
    },
    {
      "channel": 1,
      "note": 76,
      "start": 7.0881,
      "duration": 0.1086,
      "velocity": 86,
      "chip": "ym2612"
    },
    {
      "channel": 2,
      "note": 49,
      "start": 7.0887,
      "duration": 0.1082,
      "velocity": 102,
      "chip": "ym2612"
    },
    {
      "channel": 3,
      "note": 68,
      "start": 7.0895,
      "duration": 0.1076,
      "velocity": 86,
      "chip": "ym2612"
    },
    {
      "channel": 2,
      "note": 49,
      "start": 7.3013,
      "duration": 0.1119,
      "velocity": 102,
      "chip": "ym2612"
    },
    {
      "channel": 0,
      "note": 60,
      "start": 7.5194,
      "duration": 0.0937,
      "velocity": 99,
      "chip": "ym2612"
    },
    {
      "channel": 1,
      "note": 76,
      "start": 7.52,
      "duration": 0.11,
      "velocity": 86,
      "chip": "ym2612"
    },
    {
      "channel": 2,
      "note": 49,
      "start": 7.5206,
      "duration": 0.1096,
      "velocity": 102,
      "chip": "ym2612"
    },
    {
      "channel": 3,
      "note": 68,
      "start": 7.5212,
      "duration": 0.1092,
      "velocity": 86,
      "chip": "ym2612"
    },
    {
      "channel": 0,
      "note": 63,
      "start": 7.7302,
      "duration": 0.0995,
      "velocity": 99,
      "chip": "ym2612"
    },
    {
      "channel": 1,
      "note": 79,
      "start": 7.731,
      "duration": 0.1034,
      "velocity": 86,
      "chip": "ym2612"
    },
    {
      "channel": 2,
      "note": 49,
      "start": 7.7316,
      "duration": 0.103,
      "velocity": 102,
      "chip": "ym2612"
    },
    {
      "channel": 3,
      "note": 71,
      "start": 7.7323,
      "duration": 0.1025,
      "velocity": 86,
      "chip": "ym2612"
    },
    {
      "channel": 0,
      "note": 73,
      "start": 7.9469,
      "duration": 0.0995,
      "velocity": 99,
      "chip": "ym2612"
    },
    {
      "channel": 2,
      "note": 64,
      "start": 7.9513,
      "duration": 0.1786,
      "velocity": 122,
      "chip": "ym2612"
    },
    {
      "channel": 0,
      "note": 60,
      "start": 8.1636,
      "duration": 0.0995,
      "velocity": 99,
      "chip": "ym2612"
    },
    {
      "channel": 2,
      "note": 49,
      "start": 8.1679,
      "duration": 0.1025,
      "velocity": 102,
      "chip": "ym2612"
    },
    {
      "channel": 0,
      "note": 70,
      "start": 8.3802,
      "duration": 0.0871,
      "velocity": 99,
      "chip": "ym2612"
    },
    {
      "channel": 1,
      "note": 76,
      "start": 8.381,
      "duration": 0.0991,
      "velocity": 86,
      "chip": "ym2612"
    },
    {
      "channel": 2,
      "note": 49,
      "start": 8.3816,
      "duration": 0.0987,
      "velocity": 102,
      "chip": "ym2612"
    },
    {
      "channel": 3,
      "note": 68,
      "start": 8.3823,
      "duration": 0.0981,
      "velocity": 86,
      "chip": "ym2612"
    },
    {
      "channel": 0,
      "note": 63,
      "start": 8.5845,
      "duration": 0.0998,
      "velocity": 99,
      "chip": "ym2612"
    },
    {
      "channel": 1,
      "note": 79,
      "start": 8.5852,
      "duration": 0.1115,
      "velocity": 86,
      "chip": "ym2612"
    },
    {
      "channel": 2,
      "note": 49,
      "start": 8.5858,
      "duration": 0.1111,
      "velocity": 102,
      "chip": "ym2612"
    },
    {
      "channel": 3,
      "note": 71,
      "start": 8.5865,
      "duration": 0.1105,
      "velocity": 86,
      "chip": "ym2612"
    },
    {
      "channel": 0,
      "note": 67,
      "start": 8.8012,
      "duration": 0.0995,
      "velocity": 99,
      "chip": "ym2612"
    },
    {
      "channel": 1,
      "note": 83,
      "start": 8.8019,
      "duration": 0.1115,
      "velocity": 86,
      "chip": "ym2612"
    },
    {
      "channel": 2,
      "note": 49,
      "start": 8.8025,
      "duration": 0.1111,
      "velocity": 102,
      "chip": "ym2612"
    },
    {
      "channel": 3,
      "note": 75,
      "start": 8.8032,
      "duration": 0.1105,
      "velocity": 86,
      "chip": "ym2612"
    },
    {
      "channel": 2,
      "note": 49,
      "start": 9.0183,
      "duration": 0.0993,
      "velocity": 102,
      "chip": "ym2612"
    },
    {
      "channel": 3,
      "note": 68,
      "start": 9.019,
      "duration": 0.0987,
      "velocity": 86,
      "chip": "ym2612"
    },
    {
      "channel": 0,
      "note": 66,
      "start": 9.2302,
      "duration": 0.0995,
      "velocity": 99,
      "chip": "ym2612"
    },
    {
      "channel": 1,
      "note": 82,
      "start": 9.231,
      "duration": 0.1034,
      "velocity": 86,
      "chip": "ym2612"
    },
    {
      "channel": 2,
      "note": 49,
      "start": 9.2316,
      "duration": 0.103,
      "velocity": 102,
      "chip": "ym2612"
    },
    {
      "channel": 3,
      "note": 74,
      "start": 9.2323,
      "duration": 0.1025,
      "velocity": 86,
      "chip": "ym2612"
    },
    {
      "channel": 0,
      "note": 65,
      "start": 9.4469,
      "duration": 0.0995,
      "velocity": 99,
      "chip": "ym2612"
    },
    {
      "channel": 1,
      "note": 81,
      "start": 9.4476,
      "duration": 0.1037,
      "velocity": 86,
      "chip": "ym2612"
    },
    {
      "channel": 2,
      "note": 64,
      "start": 9.4517,
      "duration": 0.166,
      "velocity": 122,
      "chip": "ym2612"
    },
    {
      "channel": 3,
      "note": 73,
      "start": 9.4525,
      "duration": 0.0992,
      "velocity": 86,
      "chip": "ym2612"
    },
    {
      "channel": 2,
      "note": 49,
      "start": 9.6671,
      "duration": 0.1005,
      "velocity": 102,
      "chip": "ym2612"
    },
    {
      "channel": 0,
      "note": 60,
      "start": 9.8694,
      "duration": 0.098,
      "velocity": 99,
      "chip": "ym2612"
    },
    {
      "channel": 1,
      "note": 76,
      "start": 9.8702,
      "duration": 0.1098,
      "velocity": 86,
      "chip": "ym2612"
    },
    {
      "channel": 2,
      "note": 49,
      "start": 9.8744,
      "duration": 0.1059,
      "velocity": 102,
      "chip": "ym2612"
    },
    {
      "channel": 3,
      "note": 68,
      "start": 9.8751,
      "duration": 0.1053,
      "velocity": 86,
      "chip": "ym2612"
    },
    {
      "channel": 0,
      "note": 70,
      "start": 10.0847,
      "duration": 0.0993,
      "velocity": 99,
      "chip": "ym2612"
    },
    {
      "channel": 2,
      "note": 49,
      "start": 10.0854,
      "duration": 0.1115,
      "velocity": 102,
      "chip": "ym2612"
    },
    {
      "channel": 0,
      "note": 60,
      "start": 10.3027,
      "duration": 0.1005,
      "velocity": 99,
      "chip": "ym2612"
    },
    {
      "channel": 2,
      "note": 49,
      "start": 10.3036,
      "duration": 0.1099,
      "velocity": 102,
      "chip": "ym2612"
    },
    {
      "channel": 0,
      "note": 70,
      "start": 10.5136,
      "duration": 0.0995,
      "velocity": 99,
      "chip": "ym2612"
    },
    {
      "channel": 1,
      "note": 80,
      "start": 10.5143,
      "duration": 0.1037,
      "velocity": 86,
      "chip": "ym2612"
    },
    {
      "channel": 2,
      "note": 49,
      "start": 10.5149,
      "duration": 0.1033,
      "velocity": 102,
      "chip": "ym2612"
    },
    {
      "channel": 3,
      "note": 64,
      "start": 10.5156,
      "duration": 0.1027,
      "velocity": 86,
      "chip": "ym2612"
    },
    {
      "channel": 2,
      "note": 49,
      "start": 10.7304,
      "duration": 0.1038,
      "velocity": 102,
      "chip": "ym2612"
    },
    {
      "channel": 0,
      "note": 60,
      "start": 10.9469,
      "duration": 0.0995,
      "velocity": 99,
      "chip": "ym2612"
    },
    {
      "channel": 1,
      "note": 80,
      "start": 10.9475,
      "duration": 0.1036,
      "velocity": 86,
      "chip": "ym2612"
    },
    {
      "channel": 2,
      "note": 49,
      "start": 10.9483,
      "duration": 0.1029,
      "velocity": 102,
      "chip": "ym2612"
    },
    {
      "channel": 3,
      "note": 64,
      "start": 10.9489,
      "duration": 0.1025,
      "velocity": 86,
      "chip": "ym2612"
    },
    {
      "channel": 0,
      "note": 63,
      "start": 11.1636,
      "duration": 0.0871,
      "velocity": 99,
      "chip": "ym2612"
    },
    {
      "channel": 1,
      "note": 83,
      "start": 11.1643,
      "duration": 0.099,
      "velocity": 86,
      "chip": "ym2612"
    },
    {
      "channel": 2,
      "note": 49,
      "start": 11.1649,
      "duration": 0.0987,
      "velocity": 102,
      "chip": "ym2612"
    },
    {
      "channel": 3,
      "note": 67,
      "start": 11.1656,
      "duration": 0.0981,
      "velocity": 86,
      "chip": "ym2612"
    },
    {
      "channel": 0,
      "note": 73,
      "start": 11.3678,
      "duration": 0.0995,
      "velocity": 99,
      "chip": "ym2612"
    },
    {
      "channel": 2,
      "note": 64,
      "start": 11.372,
      "duration": 0.1082,
      "velocity": 122,
      "chip": "ym2612"
    },
    {
      "channel": 0,
      "note": 60,
      "start": 11.5861,
      "duration": 0.1007,
      "velocity": 99,
      "chip": "ym2612"
    },
    {
      "channel": 2,
      "note": 49,
      "start": 11.5905,
      "duration": 0.1063,
      "velocity": 102,
      "chip": "ym2612"
    },
    {
      "channel": 0,
      "note": 70,
      "start": 11.8038,
      "duration": 0.0927,
      "velocity": 99,
      "chip": "ym2612"
    },
    {
      "channel": 1,
      "note": 76,
      "start": 11.8045,
      "duration": 0.1089,
      "velocity": 86,
      "chip": "ym2612"
    },
    {
      "channel": 2,
      "note": 49,
      "start": 11.805,
      "duration": 0.1085,
      "velocity": 102,
      "chip": "ym2612"
    },
    {
      "channel": 3,
      "note": 68,
      "start": 11.8058,
      "duration": 0.1079,
      "velocity": 86,
      "chip": "ym2612"
    },
    {
      "channel": 0,
      "note": 63,
      "start": 12.0136,
      "duration": 0.0995,
      "velocity": 99,
      "chip": "ym2612"
    },
    {
      "channel": 1,
      "note": 79,
      "start": 12.0143,
      "duration": 0.1034,
      "velocity": 86,
      "chip": "ym2612"
    },
    {
      "channel": 2,
      "note": 49,
      "start": 12.0151,
      "duration": 0.1028,
      "velocity": 102,
      "chip": "ym2612"
    },
    {
      "channel": 3,
      "note": 71,
      "start": 12.0159,
      "duration": 0.1022,
      "velocity": 86,
      "chip": "ym2612"
    },
    {
      "channel": 0,
      "note": 73,
      "start": 12.2302,
      "duration": 0.0995,
      "velocity": 99,
      "chip": "ym2612"
    },
    {
      "channel": 2,
      "note": 49,
      "start": 12.2309,
      "duration": 0.1036,
      "velocity": 102,
      "chip": "ym2612"
    },
    {
      "channel": 0,
      "note": 67,
      "start": 12.4469,
      "duration": 0.0995,
      "velocity": 99,
      "chip": "ym2612"
    },
    {
      "channel": 1,
      "note": 87,
      "start": 12.4476,
      "duration": 0.1037,
      "velocity": 86,
      "chip": "ym2612"
    },
    {
      "channel": 2,
      "note": 64,
      "start": 12.4517,
      "duration": 0.0998,
      "velocity": 122,
      "chip": "ym2612"
    },
    {
      "channel": 3,
      "note": 71,
      "start": 12.4524,
      "duration": 0.0994,
      "velocity": 86,
      "chip": "ym2612"
    },
    {
      "channel": 0,
      "note": 77,
      "start": 12.6512,
      "duration": 0.0998,
      "velocity": 99,
      "chip": "ym2612"
    },
    {
      "channel": 2,
      "note": 49,
      "start": 12.6553,
      "duration": 0.1082,
      "velocity": 102,
      "chip": "ym2612"
    },
    {
      "channel": 0,
      "note": 60,
      "start": 12.8694,
      "duration": 0.098,
      "velocity": 99,
      "chip": "ym2612"
    },
    {
      "channel": 1,
      "note": 76,
      "start": 12.8702,
      "duration": 0.1098,
      "velocity": 86,
      "chip": "ym2612"
    },
    {
      "channel": 2,
      "note": 49,
      "start": 12.8707,
      "duration": 0.1095,
      "velocity": 102,
      "chip": "ym2612"
    },
    {
      "channel": 3,
      "note": 68,
      "start": 12.8715,
      "duration": 0.1089,
      "velocity": 86,
      "chip": "ym2612"
    },
    {
      "channel": 0,
      "note": 70,
      "start": 13.0847,
      "duration": 0.0993,
      "velocity": 99,
      "chip": "ym2612"
    },
    {
      "channel": 2,
      "note": 49,
      "start": 13.0854,
      "duration": 0.1114,
      "velocity": 102,
      "chip": "ym2612"
    },
    {
      "channel": 0,
      "note": 60,
      "start": 13.2969,
      "duration": 0.0995,
      "velocity": 99,
      "chip": "ym2612"
    },
    {
      "channel": 2,
      "note": 49,
      "start": 13.2978,
      "duration": 0.1059,
      "velocity": 102,
      "chip": "ym2612"
    },
    {
      "channel": 0,
      "note": 70,
      "start": 13.5136,
      "duration": 0.0995,
      "velocity": 99,
      "chip": "ym2612"
    },
    {
      "channel": 1,
      "note": 76,
      "start": 13.5142,
      "duration": 0.1038,
      "velocity": 86,
      "chip": "ym2612"
    },
    {
      "channel": 2,
      "note": 49,
      "start": 13.5148,
      "duration": 0.1034,
      "velocity": 102,
      "chip": "ym2612"
    },
    {
      "channel": 3,
      "note": 68,
      "start": 13.5153,
      "duration": 0.1031,
      "velocity": 86,
      "chip": "ym2612"
    },
    {
      "channel": 2,
      "note": 49,
      "start": 13.7304,
      "duration": 0.1038,
      "velocity": 102,
      "chip": "ym2612"
    },
    {
      "channel": 0,
      "note": 60,
      "start": 13.9469,
      "duration": 0.0871,
      "velocity": 99,
      "chip": "ym2612"
    },
    {
      "channel": 1,
      "note": 76,
      "start": 13.9475,
      "duration": 0.0992,
      "velocity": 86,
      "chip": "ym2612"
    },
    {
      "channel": 2,
      "note": 49,
      "start": 13.9483,
      "duration": 0.0985,
      "velocity": 102,
      "chip": "ym2612"
    },
    {
      "channel": 3,
      "note": 68,
      "start": 13.9489,
      "duration": 0.0981,
      "velocity": 86,
      "chip": "ym2612"
    },
    {
      "channel": 0,
      "note": 63,
      "start": 14.1514,
      "duration": 0.0993,
      "velocity": 99,
      "chip": "ym2612"
    },
    {
      "channel": 1,
      "note": 79,
      "start": 14.1522,
      "duration": 0.1112,
      "velocity": 86,
      "chip": "ym2612"
    },
    {
      "channel": 2,
      "note": 49,
      "start": 14.1527,
      "duration": 0.1108,
      "velocity": 102,
      "chip": "ym2612"
    },
    {
      "channel": 3,
      "note": 71,
      "start": 14.1535,
      "duration": 0.1102,
      "velocity": 86,
      "chip": "ym2612"
    },
    {
      "channel": 0,
      "note": 73,
      "start": 14.3678,
      "duration": 0.0953,
      "velocity": 99,
      "chip": "ym2612"
    },
    {
      "channel": 2,
      "note": 64,
      "start": 14.372,
      "duration": 0.1746,
      "velocity": 122,
      "chip": "ym2612"
    },
    {
      "channel": 0,
      "note": 60,
      "start": 14.5861,
      "duration": 0.0937,
      "velocity": 99,
      "chip": "ym2612"
    },
    {
      "channel": 2,
      "note": 49,
      "start": 14.5905,
      "duration": 0.1064,
      "velocity": 102,
      "chip": "ym2612"
    },
    {
      "channel": 0,
      "note": 70,
      "start": 14.7969,
      "duration": 0.0995,
      "velocity": 99,
      "chip": "ym2612"
    },
    {
      "channel": 1,
      "note": 80,
      "start": 14.7976,
      "duration": 0.1034,
      "velocity": 86,
      "chip": "ym2612"
    },
    {
      "channel": 2,
      "note": 49,
      "start": 14.7982,
      "duration": 0.103,
      "velocity": 102,
      "chip": "ym2612"
    },
    {
      "channel": 3,
      "note": 64,
      "start": 14.799,
      "duration": 0.1025,
      "velocity": 86,
      "chip": "ym2612"
    },
    {
      "channel": 0,
      "note": 63,
      "start": 15.0136,
      "duration": 0.0995,
      "velocity": 99,
      "chip": "ym2612"
    },
    {
      "channel": 1,
      "note": 79,
      "start": 15.0143,
      "duration": 0.1034,
      "velocity": 86,
      "chip": "ym2612"
    },
    {
      "channel": 2,
      "note": 49,
      "start": 15.0151,
      "duration": 0.1028,
      "velocity": 102,
      "chip": "ym2612"
    },
    {
      "channel": 3,
      "note": 71,
      "start": 15.0159,
      "duration": 0.1022,
      "velocity": 86,
      "chip": "ym2612"
    },
    {
      "channel": 0,
      "note": 67,
      "start": 15.2302,
      "duration": 0.0995,
      "velocity": 99,
      "chip": "ym2612"
    },
    {
      "channel": 1,
      "note": 83,
      "start": 15.231,
      "duration": 0.1034,
      "velocity": 86,
      "chip": "ym2612"
    },
    {
      "channel": 2,
      "note": 49,
      "start": 15.2316,
      "duration": 0.103,
      "velocity": 102,
      "chip": "ym2612"
    },
    {
      "channel": 3,
      "note": 75,
      "start": 15.2323,
      "duration": 0.1025,
      "velocity": 86,
      "chip": "ym2612"
    },
    {
      "channel": 2,
      "note": 49,
      "start": 15.4347,
      "duration": 0.1119,
      "velocity": 102,
      "chip": "ym2612"
    },
    {
      "channel": 0,
      "note": 66,
      "start": 15.6527,
      "duration": 0.0937,
      "velocity": 99,
      "chip": "ym2612"
    },
    {
      "channel": 1,
      "note": 82,
      "start": 15.6535,
      "duration": 0.1098,
      "velocity": 86,
      "chip": "ym2612"
    },
    {
      "channel": 2,
      "note": 49,
      "start": 15.6541,
      "duration": 0.1095,
      "velocity": 102,
      "chip": "ym2612"
    },
    {
      "channel": 3,
      "note": 74,
      "start": 15.6548,
      "duration": 0.1089,
      "velocity": 86,
      "chip": "ym2612"
    },
    {
      "channel": 0,
      "note": 65,
      "start": 15.8678,
      "duration": 0.0953,
      "velocity": 99,
      "chip": "ym2612"
    },
    {
      "channel": 1,
      "note": 85,
      "start": 15.8686,
      "duration": 0.1115,
      "velocity": 86,
      "chip": "ym2612"
    },
    {
      "channel": 2,
      "note": 64,
      "start": 15.8727,
      "duration": 0.1739,
      "velocity": 122,
      "chip": "ym2612"
    },
    {
      "channel": 3,
      "note": 69,
      "start": 15.8734,
      "duration": 0.1069,
      "velocity": 86,
      "chip": "ym2612"
    },
    {
      "channel": 2,
      "note": 49,
      "start": 16.084,
      "duration": 0.1002,
      "velocity": 102,
      "chip": "ym2612"
    },
    {
      "channel": 0,
      "note": 60,
      "start": 16.2969,
      "duration": 0.0875,
      "velocity": 99,
      "chip": "ym2612"
    },
    {
      "channel": 2,
      "note": 49,
      "start": 16.2982,
      "duration": 0.1032,
      "velocity": 102,
      "chip": "ym2612"
    },
    {
      "channel": 3,
      "note": 72,
      "start": 16.3027,
      "duration": 0.4106,
      "velocity": 102,
      "chip": "ym2612"
    },
    {
      "channel": 0,
      "note": 70,
      "start": 16.5136,
      "duration": 0.0875,
      "velocity": 99,
      "chip": "ym2612"
    },
    {
      "channel": 2,
      "note": 49,
      "start": 16.5143,
      "duration": 0.1041,
      "velocity": 102,
      "chip": "ym2612"
    },
    {
      "channel": 2,
      "note": 49,
      "start": 16.7302,
      "duration": 0.0997,
      "velocity": 102,
      "chip": "ym2612"
    },
    {
      "channel": 3,
      "note": 68,
      "start": 16.731,
      "duration": 0.1869,
      "velocity": 102,
      "chip": "ym2612"
    },
    {
      "channel": 0,
      "note": 70,
      "start": 16.9347,
      "duration": 0.0997,
      "velocity": 99,
      "chip": "ym2612"
    },
    {
      "channel": 2,
      "note": 49,
      "start": 16.9353,
      "duration": 0.1115,
      "velocity": 102,
      "chip": "ym2612"
    },
    {
      "channel": 3,
      "note": 70,
      "start": 16.9361,
      "duration": 0.1985,
      "velocity": 102,
      "chip": "ym2612"
    },
    {
      "channel": 0,
      "note": 60,
      "start": 17.1517,
      "duration": 0.0993,
      "velocity": 99,
      "chip": "ym2612"
    },
    {
      "channel": 2,
      "note": 49,
      "start": 17.1524,
      "duration": 0.1111,
      "velocity": 102,
      "chip": "ym2612"
    },
    {
      "channel": 0,
      "note": 70,
      "start": 17.3681,
      "duration": 0.095,
      "velocity": 99,
      "chip": "ym2612"
    },
    {
      "channel": 2,
      "note": 49,
      "start": 17.3688,
      "duration": 0.1114,
      "velocity": 102,
      "chip": "ym2612"
    },
    {
      "channel": 3,
      "note": 76,
      "start": 17.3695,
      "duration": 1.2846,
      "velocity": 102,
      "chip": "ym2612"
    },
    {
      "channel": 0,
      "note": 60,
      "start": 17.5802,
      "duration": 0.0995,
      "velocity": 99,
      "chip": "ym2612"
    },
    {
      "channel": 2,
      "note": 49,
      "start": 17.5809,
      "duration": 0.1042,
      "velocity": 102,
      "chip": "ym2612"
    },
    {
      "channel": 0,
      "note": 70,
      "start": 17.7969,
      "duration": 0.0995,
      "velocity": 99,
      "chip": "ym2612"
    },
    {
      "channel": 2,
      "note": 64,
      "start": 17.8011,
      "duration": 0.1004,
      "velocity": 122,
      "chip": "ym2612"
    },
    {
      "channel": 0,
      "note": 60,
      "start": 18.0136,
      "duration": 0.0995,
      "velocity": 99,
      "chip": "ym2612"
    },
    {
      "channel": 2,
      "note": 49,
      "start": 18.0182,
      "duration": 0.1017,
      "velocity": 102,
      "chip": "ym2612"
    },
    {
      "channel": 0,
      "note": 70,
      "start": 18.2201,
      "duration": 0.1002,
      "velocity": 99,
      "chip": "ym2612"
    },
    {
      "channel": 2,
      "note": 49,
      "start": 18.2207,
      "duration": 0.1094,
      "velocity": 102,
      "chip": "ym2612"
    },
    {
      "channel": 0,
      "note": 80,
      "start": 18.4373,
      "duration": 0.0997,
      "velocity": 99,
      "chip": "ym2612"
    },
    {
      "channel": 2,
      "note": 49,
      "start": 18.438,
      "duration": 0.1088,
      "velocity": 102,
      "chip": "ym2612"
    },
    {
      "channel": 0,
      "note": 70,
      "start": 18.6532,
      "duration": 0.0998,
      "velocity": 99,
      "chip": "ym2612"
    },
    {
      "channel": 2,
      "note": 49,
      "start": 18.6538,
      "duration": 0.1096,
      "velocity": 102,
      "chip": "ym2612"
    },
    {
      "channel": 0,
      "note": 60,
      "start": 18.8699,
      "duration": 0.0932,
      "velocity": 99,
      "chip": "ym2612"
    },
    {
      "channel": 1,
      "note": 76,
      "start": 18.8741,
      "duration": 0.2065,
      "velocity": 79,
      "chip": "ym2612"
    },
    {
      "channel": 2,
      "note": 49,
      "start": 18.8747,
      "duration": 0.0964,
      "velocity": 102,
      "chip": "ym2612"
    },
    {
      "channel": 3,
      "note": 76,
      "start": 18.879,
      "duration": 0.2032,
      "velocity": 79,
      "chip": "ym2612"
    },
    {
      "channel": 0,
      "note": 70,
      "start": 19.0802,
      "duration": 0.0995,
      "velocity": 99,
      "chip": "ym2612"
    },
    {
      "channel": 1,
      "note": 75,
      "start": 19.081,
      "duration": 0.2163,
      "velocity": 79,
      "chip": "ym2612"
    },
    {
      "channel": 2,
      "note": 49,
      "start": 19.0818,
      "duration": 0.1059,
      "velocity": 102,
      "chip": "ym2612"
    },
    {
      "channel": 3,
      "note": 75,
      "start": 19.0826,
      "duration": 0.2195,
      "velocity": 79,
      "chip": "ym2612"
    },
    {
      "channel": 0,
      "note": 63,
      "start": 19.2969,
      "duration": 0.0995,
      "velocity": 99,
      "chip": "ym2612"
    },
    {
      "channel": 1,
      "note": 74,
      "start": 19.2976,
      "duration": 0.2163,
      "velocity": 79,
      "chip": "ym2612"
    },
    {
      "channel": 2,
      "note": 64,
      "start": 19.3017,
      "duration": 0.1027,
      "velocity": 122,
      "chip": "ym2612"
    },
    {
      "channel": 3,
      "note": 74,
      "start": 19.3025,
      "duration": 0.2163,
      "velocity": 79,
      "chip": "ym2612"
    },
    {
      "channel": 0,
      "note": 73,
      "start": 19.5136,
      "duration": 0.0904,
      "velocity": 99,
      "chip": "ym2612"
    },
    {
      "channel": 1,
      "note": 73,
      "start": 19.5143,
      "duration": 0.207,
      "velocity": 79,
      "chip": "ym2612"
    },
    {
      "channel": 2,
      "note": 49,
      "start": 19.5184,
      "duration": 0.0951,
      "velocity": 102,
      "chip": "ym2612"
    },
    {
      "channel": 3,
      "note": 73,
      "start": 19.5192,
      "duration": 0.206,
      "velocity": 79,
      "chip": "ym2612"
    },
    {
      "channel": 0,
      "note": 60,
      "start": 19.7211,
      "duration": 0.0983,
      "velocity": 99,
      "chip": "ym2612"
    },
    {
      "channel": 2,
      "note": 49,
      "start": 19.7248,
      "duration": 0.1054,
      "velocity": 102,
      "chip": "ym2612"
    },
    {
      "channel": 3,
      "note": 72,
      "start": 19.7291,
      "duration": 0.425,
      "velocity": 102,
      "chip": "ym2612"
    },
    {
      "channel": 0,
      "note": 70,
      "start": 19.9362,
      "duration": 0.0996,
      "velocity": 99,
      "chip": "ym2612"
    },
    {
      "channel": 2,
      "note": 49,
      "start": 19.9369,
      "duration": 0.1099,
      "velocity": 102,
      "chip": "ym2612"
    },
    {
      "channel": 0,
      "note": 80,
      "start": 20.1531,
      "duration": 0.0933,
      "velocity": 99,
      "chip": "ym2612"
    },
    {
      "channel": 2,
      "note": 49,
      "start": 20.1538,
      "duration": 0.1096,
      "velocity": 102,
      "chip": "ym2612"
    },
    {
      "channel": 3,
      "note": 68,
      "start": 20.1545,
      "duration": 0.2101,
      "velocity": 102,
      "chip": "ym2612"
    },
    {
      "channel": 0,
      "note": 70,
      "start": 20.3636,
      "duration": 0.0995,
      "velocity": 99,
      "chip": "ym2612"
    },
    {
      "channel": 2,
      "note": 49,
      "start": 20.3642,
      "duration": 0.1054,
      "velocity": 102,
      "chip": "ym2612"
    },
    {
      "channel": 3,
      "note": 70,
      "start": 20.3649,
      "duration": 0.2228,
      "velocity": 102,
      "chip": "ym2612"
    },
    {
      "channel": 0,
      "note": 60,
      "start": 20.5802,
      "duration": 0.0995,
      "velocity": 99,
      "chip": "ym2612"
    },
    {
      "channel": 2,
      "note": 49,
      "start": 20.5809,
      "duration": 0.1056,
      "velocity": 102,
      "chip": "ym2612"
    },
    {
      "channel": 0,
      "note": 70,
      "start": 20.7969,
      "duration": 0.0995,
      "velocity": 99,
      "chip": "ym2612"
    },
    {
      "channel": 2,
      "note": 49,
      "start": 20.7976,
      "duration": 0.1053,
      "velocity": 102,
      "chip": "ym2612"
    },
    {
      "channel": 3,
      "note": 76,
      "start": 20.7983,
      "duration": 0.8484,
      "velocity": 102,
      "chip": "ym2612"
    },
    {
      "channel": 0,
      "note": 60,
      "start": 21.0136,
      "duration": 0.0889,
      "velocity": 99,
      "chip": "ym2612"
    },
    {
      "channel": 2,
      "note": 64,
      "start": 21.018,
      "duration": 0.0954,
      "velocity": 122,
      "chip": "ym2612"
    },
    {
      "channel": 0,
      "note": 70,
      "start": 21.2198,
      "duration": 0.0993,
      "velocity": 99,
      "chip": "ym2612"
    },
    {
      "channel": 2,
      "note": 49,
      "start": 21.2239,
      "duration": 0.1062,
      "velocity": 102,
      "chip": "ym2612"
    },
    {
      "channel": 0,
      "note": 60,
      "start": 21.4389,
      "duration": 0.0986,
      "velocity": 99,
      "chip": "ym2612"
    },
    {
      "channel": 2,
      "note": 49,
      "start": 21.4398,
      "duration": 0.1071,
      "velocity": 102,
      "chip": "ym2612"
    },
    {
      "channel": 0,
      "note": 70,
      "start": 21.6545,
      "duration": 0.0919,
      "velocity": 99,
      "chip": "ym2612"
    },
    {
      "channel": 1,
      "note": 80,
      "start": 21.6587,
      "duration": 0.0927,
      "velocity": 85,
      "chip": "ym2612"
    },
    {
      "channel": 2,
      "note": 49,
      "start": 21.6592,
      "duration": 0.0923,
      "velocity": 102,
      "chip": "ym2612"
    },
    {
      "channel": 3,
      "note": 80,
      "start": 21.6638,
      "duration": 0.0879,
      "velocity": 85,
      "chip": "ym2612"
    },
    {
      "channel": 0,
      "note": 80,
      "start": 21.8636,
      "duration": 0.0995,
      "velocity": 99,
      "chip": "ym2612"
    },
    {
      "channel": 1,
      "note": 86,
      "start": 21.8643,
      "duration": 0.1034,
      "velocity": 85,
      "chip": "ym2612"
    },
    {
      "channel": 2,
      "note": 49,
      "start": 21.8649,
      "duration": 0.103,
      "velocity": 102,
      "chip": "ym2612"
    },
    {
      "channel": 3,
      "note": 86,
      "start": 21.8656,
      "duration": 0.1025,
      "velocity": 85,
      "chip": "ym2612"
    },
    {
      "channel": 0,
      "note": 70,
      "start": 22.0802,
      "duration": 0.0995,
      "velocity": 99,
      "chip": "ym2612"
    },
    {
      "channel": 1,
      "note": 92,
      "start": 22.081,
      "duration": 1.0664,
      "velocity": 85,
      "chip": "ym2612"
    },
    {
      "channel": 2,
      "note": 49,
      "start": 22.0818,
      "duration": 0.1027,
      "velocity": 102,
      "chip": "ym2612"
    },
    {
      "channel": 3,
      "note": 92,
      "start": 22.0826,
      "duration": 1.0664,
      "velocity": 85,
      "chip": "ym2612"
    },
    {
      "channel": 0,
      "note": 60,
      "start": 22.2969,
      "duration": 0.0871,
      "velocity": 99,
      "chip": "ym2612"
    },
    {
      "channel": 2,
      "note": 49,
      "start": 22.2976,
      "duration": 0.0992,
      "velocity": 102,
      "chip": "ym2612"
    },
    {
      "channel": 0,
      "note": 70,
      "start": 22.5012,
      "duration": 0.0995,
      "velocity": 99,
      "chip": "ym2612"
    },
    {
      "channel": 2,
      "note": 49,
      "start": 22.5019,
      "duration": 0.1116,
      "velocity": 102,
      "chip": "ym2612"
    },
    {
      "channel": 0,
      "note": 60,
      "start": 22.7178,
      "duration": 0.0998,
      "velocity": 99,
      "chip": "ym2612"
    },
    {
      "channel": 2,
      "note": 49,
      "start": 22.7185,
      "duration": 0.1116,
      "velocity": 102,
      "chip": "ym2612"
    },
    {
      "channel": 0,
      "note": 70,
      "start": 22.9345,
      "duration": 0.0953,
      "velocity": 99,
      "chip": "ym2612"
    },
    {
      "channel": 2,
      "note": 49,
      "start": 22.9352,
      "duration": 0.1116,
      "velocity": 102,
      "chip": "ym2612"
    },
    {
      "channel": 0,
      "note": 60,
      "start": 23.1469,
      "duration": 0.0995,
      "velocity": 99,
      "chip": "ym2612"
    },
    {
      "channel": 2,
      "note": 49,
      "start": 23.1483,
      "duration": 0.1029,
      "velocity": 102,
      "chip": "ym2612"
    },
    {
      "channel": 3,
      "note": 72,
      "start": 23.1529,
      "duration": 0.4148,
      "velocity": 102,
      "chip": "ym2612"
    },
    {
      "channel": 0,
      "note": 70,
      "start": 23.3636,
      "duration": 0.0995,
      "velocity": 99,
      "chip": "ym2612"
    },
    {
      "channel": 2,
      "note": 49,
      "start": 23.3642,
      "duration": 0.1037,
      "velocity": 102,
      "chip": "ym2612"
    },
    {
      "channel": 0,
      "note": 80,
      "start": 23.5802,
      "duration": 0.0995,
      "velocity": 99,
      "chip": "ym2612"
    },
    {
      "channel": 2,
      "note": 49,
      "start": 23.5809,
      "duration": 0.104,
      "velocity": 102,
      "chip": "ym2612"
    },
    {
      "channel": 3,
      "note": 68,
      "start": 23.5816,
      "duration": 0.1861,
      "velocity": 102,
      "chip": "ym2612"
    },
    {
      "channel": 0,
      "note": 70,
      "start": 23.7969,
      "duration": 0.0875,
      "velocity": 99,
      "chip": "ym2612"
    },
    {
      "channel": 2,
      "note": 49,
      "start": 23.7975,
      "duration": 0.0992,
      "velocity": 102,
      "chip": "ym2612"
    },
    {
      "channel": 3,
      "note": 70,
      "start": 23.7983,
      "duration": 0.1861,
      "velocity": 102,
      "chip": "ym2612"
    },
    {
      "channel": 0,
      "note": 60,
      "start": 24.0013,
      "duration": 0.0996,
      "velocity": 99,
      "chip": "ym2612"
    },
    {
      "channel": 2,
      "note": 49,
      "start": 24.0019,
      "duration": 0.1116,
      "velocity": 102,
      "chip": "ym2612"
    },
    {
      "channel": 0,
      "note": 70,
      "start": 24.2182,
      "duration": 0.0993,
      "velocity": 99,
      "chip": "ym2612"
    },
    {
      "channel": 2,
      "note": 49,
      "start": 24.2188,
      "duration": 0.1113,
      "velocity": 102,
      "chip": "ym2612"
    },
    {
      "channel": 3,
      "note": 76,
      "start": 24.2196,
      "duration": 1.2843,
      "velocity": 102,
      "chip": "ym2612"
    },
    {
      "channel": 0,
      "note": 60,
      "start": 24.4346,
      "duration": 0.0952,
      "velocity": 99,
      "chip": "ym2612"
    },
    {
      "channel": 2,
      "note": 49,
      "start": 24.4352,
      "duration": 0.0994,
      "velocity": 102,
      "chip": "ym2612"
    },
    {
      "channel": 0,
      "note": 70,
      "start": 24.6469,
      "duration": 0.0995,
      "velocity": 99,
      "chip": "ym2612"
    },
    {
      "channel": 2,
      "note": 64,
      "start": 24.6511,
      "duration": 0.1005,
      "velocity": 122,
      "chip": "ym2612"
    },
    {
      "channel": 0,
      "note": 60,
      "start": 24.8636,
      "duration": 0.0995,
      "velocity": 99,
      "chip": "ym2612"
    },
    {
      "channel": 2,
      "note": 49,
      "start": 24.8679,
      "duration": 0.1017,
      "velocity": 102,
      "chip": "ym2612"
    },
    {
      "channel": 0,
      "note": 70,
      "start": 25.0802,
      "duration": 0.09,
      "velocity": 99,
      "chip": "ym2612"
    },
    {
      "channel": 2,
      "note": 49,
      "start": 25.0809,
      "duration": 0.0992,
      "velocity": 102,
      "chip": "ym2612"
    },
    {
      "channel": 0,
      "note": 80,
      "start": 25.2874,
      "duration": 0.0994,
      "velocity": 99,
      "chip": "ym2612"
    },
    {
      "channel": 2,
      "note": 49,
      "start": 25.288,
      "duration": 0.1088,
      "velocity": 102,
      "chip": "ym2612"
    },
    {
      "channel": 0,
      "note": 70,
      "start": 25.503,
      "duration": 0.0995,
      "velocity": 99,
      "chip": "ym2612"
    },
    {
      "channel": 2,
      "note": 49,
      "start": 25.5036,
      "duration": 0.1099,
      "velocity": 102,
      "chip": "ym2612"
    },
    {
      "channel": 0,
      "note": 60,
      "start": 25.7197,
      "duration": 0.0934,
      "velocity": 99,
      "chip": "ym2612"
    },
    {
      "channel": 1,
      "note": 76,
      "start": 25.7239,
      "duration": 0.2067,
      "velocity": 79,
      "chip": "ym2612"
    },
    {
      "channel": 2,
      "note": 49,
      "start": 25.7245,
      "duration": 0.1057,
      "velocity": 102,
      "chip": "ym2612"
    },
    {
      "channel": 3,
      "note": 76,
      "start": 25.7288,
      "duration": 0.2031,
      "velocity": 79,
      "chip": "ym2612"
    },
    {
      "channel": 0,
      "note": 70,
      "start": 25.9302,
      "duration": 0.0995,
      "velocity": 99,
      "chip": "ym2612"
    },
    {
      "channel": 1,
      "note": 75,
      "start": 25.931,
      "duration": 0.2163,
      "velocity": 79,
      "chip": "ym2612"
    },
    {
      "channel": 2,
      "note": 49,
      "start": 25.9316,
      "duration": 0.1062,
      "velocity": 102,
      "chip": "ym2612"
    },
    {
      "channel": 3,
      "note": 75,
      "start": 25.9323,
      "duration": 0.22,
      "velocity": 79,
      "chip": "ym2612"
    },
    {
      "channel": 0,
      "note": 63,
      "start": 26.1469,
      "duration": 0.0995,
      "velocity": 99,
      "chip": "ym2612"
    },
    {
      "channel": 1,
      "note": 74,
      "start": 26.1476,
      "duration": 0.2163,
      "velocity": 79,
      "chip": "ym2612"
    },
    {
      "channel": 2,
      "note": 64,
      "start": 26.152,
      "duration": 0.1024,
      "velocity": 122,
      "chip": "ym2612"
    },
    {
      "channel": 3,
      "note": 74,
      "start": 26.1527,
      "duration": 0.216,
      "velocity": 79,
      "chip": "ym2612"
    },
    {
      "channel": 0,
      "note": 73,
      "start": 26.3636,
      "duration": 0.0995,
      "velocity": 99,
      "chip": "ym2612"
    },
    {
      "channel": 1,
      "note": 73,
      "start": 26.3643,
      "duration": 0.2162,
      "velocity": 79,
      "chip": "ym2612"
    },
    {
      "channel": 2,
      "note": 49,
      "start": 26.3684,
      "duration": 0.1027,
      "velocity": 102,
      "chip": "ym2612"
    },
    {
      "channel": 3,
      "note": 73,
      "start": 26.3692,
      "duration": 0.2153,
      "velocity": 79,
      "chip": "ym2612"
    },
    {
      "channel": 0,
      "note": 60,
      "start": 26.5802,
      "duration": 0.0889,
      "velocity": 99,
      "chip": "ym2612"
    },
    {
      "channel": 2,
      "note": 49,
      "start": 26.584,
      "duration": 0.0961,
      "velocity": 102,
      "chip": "ym2612"
    },
    {
      "channel": 3,
      "note": 72,
      "start": 26.5884,
      "duration": 0.4149,
      "velocity": 102,
      "chip": "ym2612"
    },
    {
      "channel": 0,
      "note": 70,
      "start": 26.7863,
      "duration": 0.0998,
      "velocity": 99,
      "chip": "ym2612"
    },
    {
      "channel": 2,
      "note": 49,
      "start": 26.7869,
      "duration": 0.1099,
      "velocity": 102,
      "chip": "ym2612"
    },
    {
      "channel": 2,
      "note": 49,
      "start": 27.0029,
      "duration": 0.1104,
      "velocity": 102,
      "chip": "ym2612"
    },
    {
      "channel": 3,
      "note": 68,
      "start": 27.0036,
      "duration": 0.2171,
      "velocity": 102,
      "chip": "ym2612"
    },
    {
      "channel": 0,
      "note": 70,
      "start": 27.2197,
      "duration": 0.0934,
      "velocity": 99,
      "chip": "ym2612"
    },
    {
      "channel": 2,
      "note": 49,
      "start": 27.2203,
      "duration": 0.0993,
      "velocity": 102,
      "chip": "ym2612"
    },
    {
      "channel": 3,
      "note": 70,
      "start": 27.2211,
      "duration": 0.2167,
      "velocity": 102,
      "chip": "ym2612"
    },
    {
      "channel": 0,
      "note": 60,
      "start": 27.4302,
      "duration": 0.0995,
      "velocity": 99,
      "chip": "ym2612"
    },
    {
      "channel": 2,
      "note": 49,
      "start": 27.4309,
      "duration": 0.1054,
      "velocity": 102,
      "chip": "ym2612"
    },
    {
      "channel": 0,
      "note": 70,
      "start": 27.6469,
      "duration": 0.0995,
      "velocity": 99,
      "chip": "ym2612"
    },
    {
      "channel": 2,
      "note": 49,
      "start": 27.6475,
      "duration": 0.1057,
      "velocity": 102,
      "chip": "ym2612"
    },
    {
      "channel": 3,
      "note": 76,
      "start": 27.6483,
      "duration": 0.8484,
      "velocity": 102,
      "chip": "ym2612"
    },
    {
      "channel": 0,
      "note": 60,
      "start": 27.8636,
      "duration": 0.0995,
      "velocity": 99,
      "chip": "ym2612"
    },
    {
      "channel": 2,
      "note": 64,
      "start": 27.8678,
      "duration": 0.1018,
      "velocity": 122,
      "chip": "ym2612"
    },
    {
      "channel": 0,
      "note": 70,
      "start": 28.0696,
      "duration": 0.0995,
      "velocity": 99,
      "chip": "ym2612"
    },
    {
      "channel": 2,
      "note": 49,
      "start": 28.0737,
      "duration": 0.1064,
      "velocity": 102,
      "chip": "ym2612"
    },
    {
      "channel": 0,
      "note": 60,
      "start": 28.2892,
      "duration": 0.0983,
      "velocity": 99,
      "chip": "ym2612"
    },
    {
      "channel": 2,
      "note": 49,
      "start": 28.29,
      "duration": 0.1068,
      "velocity": 102,
      "chip": "ym2612"
    },
    {
      "channel": 0,
      "note": 70,
      "start": 28.5046,
      "duration": 0.0961,
      "velocity": 99,
      "chip": "ym2612"
    },
    {
      "channel": 1,
      "note": 80,
      "start": 28.5087,
      "duration": 0.1047,
      "velocity": 85,
      "chip": "ym2612"
    },
    {
      "channel": 2,
      "note": 49,
      "start": 28.5093,
      "duration": 0.1043,
      "velocity": 102,
      "chip": "ym2612"
    },
    {
      "channel": 3,
      "note": 80,
      "start": 28.5139,
      "duration": 0.0999,
      "velocity": 85,
      "chip": "ym2612"
    },
    {
      "channel": 1,
      "note": 86,
      "start": 28.7136,
      "duration": 0.1041,
      "velocity": 85,
      "chip": "ym2612"
    },
    {
      "channel": 2,
      "note": 49,
      "start": 28.7142,
      "duration": 0.1037,
      "velocity": 102,
      "chip": "ym2612"
    },
    {
      "channel": 3,
      "note": 86,
      "start": 28.7149,
      "duration": 0.1031,
      "velocity": 85,
      "chip": "ym2612"
    },
    {
      "channel": 0,
      "note": 70,
      "start": 28.9301,
      "duration": 0.0997,
      "velocity": 99,
      "chip": "ym2612"
    },
    {
      "channel": 1,
      "note": 92,
      "start": 28.9309,
      "duration": 1.0707,
      "velocity": 85,
      "chip": "ym2612"
    },
    {
      "channel": 2,
      "note": 49,
      "start": 28.9314,
      "duration": 0.1031,
      "velocity": 102,
      "chip": "ym2612"
    },
    {
      "channel": 3,
      "note": 92,
      "start": 28.9322,
      "duration": 1.0742,
      "velocity": 85,
      "chip": "ym2612"
    },
    {
      "channel": 0,
      "note": 60,
      "start": 29.1469,
      "duration": 0.0995,
      "velocity": 99,
      "chip": "ym2612"
    },
    {
      "channel": 2,
      "note": 49,
      "start": 29.1476,
      "duration": 0.1036,
      "velocity": 102,
      "chip": "ym2612"
    },
    {
      "channel": 0,
      "note": 70,
      "start": 29.3636,
      "duration": 0.0871,
      "velocity": 99,
      "chip": "ym2612"
    },
    {
      "channel": 2,
      "note": 49,
      "start": 29.3643,
      "duration": 0.0992,
      "velocity": 102,
      "chip": "ym2612"
    },
    {
      "channel": 0,
      "note": 60,
      "start": 29.5678,
      "duration": 0.0995,
      "velocity": 99,
      "chip": "ym2612"
    },
    {
      "channel": 2,
      "note": 49,
      "start": 29.5685,
      "duration": 0.1116,
      "velocity": 102,
      "chip": "ym2612"
    },
    {
      "channel": 0,
      "note": 70,
      "start": 29.7845,
      "duration": 0.0998,
      "velocity": 99,
      "chip": "ym2612"
    },
    {
      "channel": 2,
      "note": 49,
      "start": 29.7852,
      "duration": 0.1116,
      "velocity": 102,
      "chip": "ym2612"
    },
    {
      "channel": 0,
      "note": 63,
      "start": 30.0012,
      "duration": 0.0953,
      "velocity": 99,
      "chip": "ym2612"
    },
    {
      "channel": 2,
      "note": 49,
      "start": 30.0059,
      "duration": 0.1076,
      "velocity": 102,
      "chip": "ym2612"
    },
    {
      "channel": 3,
      "note": 75,
      "start": 30.0103,
      "duration": 0.4076,
      "velocity": 102,
      "chip": "ym2612"
    },
    {
      "channel": 0,
      "note": 73,
      "start": 30.2136,
      "duration": 0.0995,
      "velocity": 99,
      "chip": "ym2612"
    },
    {
      "channel": 2,
      "note": 49,
      "start": 30.2143,
      "duration": 0.1037,
      "velocity": 102,
      "chip": "ym2612"
    },
    {
      "channel": 2,
      "note": 49,
      "start": 30.4302,
      "duration": 0.1041,
      "velocity": 102,
      "chip": "ym2612"
    },
    {
      "channel": 3,
      "note": 71,
      "start": 30.431,
      "duration": 0.2034,
      "velocity": 102,
      "chip": "ym2612"
    },
    {
      "channel": 0,
      "note": 73,
      "start": 30.6468,
      "duration": 0.0997,
      "velocity": 99,
      "chip": "ym2612"
    },
    {
      "channel": 2,
      "note": 49,
      "start": 30.6474,
      "duration": 0.1041,
      "velocity": 102,
      "chip": "ym2612"
    },
    {
      "channel": 3,
      "note": 73,
      "start": 30.6482,
      "duration": 0.204,
      "velocity": 102,
      "chip": "ym2612"
    },
    {
      "channel": 0,
      "note": 63,
      "start": 30.8513,
      "duration": 0.0998,
      "velocity": 99,
      "chip": "ym2612"
    },
    {
      "channel": 2,
      "note": 49,
      "start": 30.8519,
      "duration": 0.1115,
      "velocity": 102,
      "chip": "ym2612"
    },
    {
      "channel": 0,
      "note": 73,
      "start": 31.0679,
      "duration": 0.0996,
      "velocity": 99,
      "chip": "ym2612"
    },
    {
      "channel": 2,
      "note": 49,
      "start": 31.0686,
      "duration": 0.1116,
      "velocity": 102,
      "chip": "ym2612"
    },
    {
      "channel": 3,
      "note": 79,
      "start": 31.0693,
      "duration": 1.2847,
      "velocity": 102,
      "chip": "ym2612"
    },
    {
      "channel": 0,
      "note": 63,
      "start": 31.2849,
      "duration": 0.0993,
      "velocity": 99,
      "chip": "ym2612"
    },
    {
      "channel": 2,
      "note": 49,
      "start": 31.2855,
      "duration": 0.1113,
      "velocity": 102,
      "chip": "ym2612"
    },
    {
      "channel": 0,
      "note": 73,
      "start": 31.4969,
      "duration": 0.0995,
      "velocity": 99,
      "chip": "ym2612"
    },
    {
      "channel": 2,
      "note": 64,
      "start": 31.5011,
      "duration": 0.1002,
      "velocity": 122,
      "chip": "ym2612"
    },
    {
      "channel": 0,
      "note": 63,
      "start": 31.7136,
      "duration": 0.0995,
      "velocity": 99,
      "chip": "ym2612"
    },
    {
      "channel": 2,
      "note": 49,
      "start": 31.7179,
      "duration": 0.102,
      "velocity": 102,
      "chip": "ym2612"
    },
    {
      "channel": 0,
      "note": 73,
      "start": 31.9302,
      "duration": 0.0995,
      "velocity": 99,
      "chip": "ym2612"
    },
    {
      "channel": 2,
      "note": 49,
      "start": 31.9309,
      "duration": 0.1055,
      "velocity": 102,
      "chip": "ym2612"
    },
    {
      "channel": 2,
      "note": 49,
      "start": 32.1469,
      "duration": 0.0997,
      "velocity": 102,
      "chip": "ym2612"
    },
    {
      "channel": 0,
      "note": 73,
      "start": 32.3531,
      "duration": 0.0994,
      "velocity": 99,
      "chip": "ym2612"
    },
    {
      "channel": 2,
      "note": 49,
      "start": 32.3538,
      "duration": 0.1097,
      "velocity": 102,
      "chip": "ym2612"
    },
    {
      "channel": 0,
      "note": 63,
      "start": 32.5697,
      "duration": 0.101,
      "velocity": 99,
      "chip": "ym2612"
    },
    {
      "channel": 1,
      "note": 79,
      "start": 32.5739,
      "duration": 0.2141,
      "velocity": 79,
      "chip": "ym2612"
    },
    {
      "channel": 2,
      "note": 49,
      "start": 32.5745,
      "duration": 0.1057,
      "velocity": 102,
      "chip": "ym2612"
    },
    {
      "channel": 3,
      "note": 79,
      "start": 32.5788,
      "duration": 0.2106,
      "velocity": 79,
      "chip": "ym2612"
    },
    {
      "channel": 0,
      "note": 73,
      "start": 32.7877,
      "duration": 0.092,
      "velocity": 99,
      "chip": "ym2612"
    },
    {
      "channel": 1,
      "note": 78,
      "start": 32.7884,
      "duration": 0.2088,
      "velocity": 79,
      "chip": "ym2612"
    },
    {
      "channel": 2,
      "note": 49,
      "start": 32.789,
      "duration": 0.1078,
      "velocity": 102,
      "chip": "ym2612"
    },
    {
      "channel": 3,
      "note": 78,
      "start": 32.7898,
      "duration": 0.2123,
      "velocity": 79,
      "chip": "ym2612"
    },
    {
      "channel": 0,
      "note": 67,
      "start": 32.9969,
      "duration": 0.0995,
      "velocity": 99,
      "chip": "ym2612"
    },
    {
      "channel": 1,
      "note": 77,
      "start": 32.9976,
      "duration": 0.2163,
      "velocity": 79,
      "chip": "ym2612"
    },
    {
      "channel": 2,
      "note": 64,
      "start": 33.0017,
      "duration": 0.1027,
      "velocity": 122,
      "chip": "ym2612"
    },
    {
      "channel": 3,
      "note": 77,
      "start": 33.0025,
      "duration": 0.2165,
      "velocity": 79,
      "chip": "ym2612"
    },
    {
      "channel": 0,
      "note": 77,
      "start": 33.2136,
      "duration": 0.0995,
      "velocity": 99,
      "chip": "ym2612"
    },
    {
      "channel": 1,
      "note": 76,
      "start": 33.2143,
      "duration": 0.2162,
      "velocity": 79,
      "chip": "ym2612"
    },
    {
      "channel": 2,
      "note": 49,
      "start": 33.2186,
      "duration": 0.1024,
      "velocity": 102,
      "chip": "ym2612"
    },
    {
      "channel": 3,
      "note": 76,
      "start": 33.2194,
      "duration": 0.2121,
      "velocity": 79,
      "chip": "ym2612"
    },
    {
      "channel": 0,
      "note": 63,
      "start": 33.4302,
      "duration": 0.0995,
      "velocity": 99,
      "chip": "ym2612"
    },
    {
      "channel": 2,
      "note": 49,
      "start": 33.4311,
      "duration": 0.1051,
      "velocity": 102,
      "chip": "ym2612"
    },
    {
      "channel": 3,
      "note": 75,
      "start": 33.4354,
      "duration": 0.4112,
      "velocity": 102,
      "chip": "ym2612"
    },
    {
      "channel": 0,
      "note": 73,
      "start": 33.6362,
      "duration": 0.0996,
      "velocity": 99,
      "chip": "ym2612"
    },
    {
      "channel": 2,
      "note": 49,
      "start": 33.6369,
      "duration": 0.1099,
      "velocity": 102,
      "chip": "ym2612"
    },
    {
      "channel": 2,
      "note": 49,
      "start": 33.853,
      "duration": 0.1102,
      "velocity": 102,
      "chip": "ym2612"
    },
    {
      "channel": 3,
      "note": 71,
      "start": 33.8538,
      "duration": 0.2095,
      "velocity": 102,
      "chip": "ym2612"
    },
    {
      "channel": 0,
      "note": 73,
      "start": 34.0695,
      "duration": 0.0996,
      "velocity": 99,
      "chip": "ym2612"
    },
    {
      "channel": 2,
      "note": 49,
      "start": 34.0702,
      "duration": 0.1099,
      "velocity": 102,
      "chip": "ym2612"
    },
    {
      "channel": 3,
      "note": 73,
      "start": 34.0709,
      "duration": 0.2257,
      "velocity": 102,
      "chip": "ym2612"
    },
    {
      "channel": 0,
      "note": 63,
      "start": 34.2802,
      "duration": 0.0995,
      "velocity": 99,
      "chip": "ym2612"
    },
    {
      "channel": 2,
      "note": 49,
      "start": 34.2809,
      "duration": 0.1054,
      "velocity": 102,
      "chip": "ym2612"
    },
    {
      "channel": 0,
      "note": 73,
      "start": 34.4969,
      "duration": 0.0995,
      "velocity": 99,
      "chip": "ym2612"
    },
    {
      "channel": 2,
      "note": 49,
      "start": 34.4975,
      "duration": 0.1054,
      "velocity": 102,
      "chip": "ym2612"
    },
    {
      "channel": 3,
      "note": 79,
      "start": 34.4983,
      "duration": 0.8394,
      "velocity": 102,
      "chip": "ym2612"
    },
    {
      "channel": 0,
      "note": 63,
      "start": 34.7136,
      "duration": 0.0995,
      "velocity": 99,
      "chip": "ym2612"
    },
    {
      "channel": 2,
      "note": 49,
      "start": 34.7142,
      "duration": 0.1057,
      "velocity": 102,
      "chip": "ym2612"
    },
    {
      "channel": 0,
      "note": 73,
      "start": 34.9302,
      "duration": 0.0891,
      "velocity": 99,
      "chip": "ym2612"
    },
    {
      "channel": 2,
      "note": 64,
      "start": 34.9344,
      "duration": 0.0957,
      "velocity": 122,
      "chip": "ym2612"
    },
    {
      "channel": 0,
      "note": 63,
      "start": 35.1389,
      "duration": 0.0985,
      "velocity": 99,
      "chip": "ym2612"
    },
    {
      "channel": 2,
      "note": 49,
      "start": 35.1433,
      "duration": 0.1034,
      "velocity": 102,
      "chip": "ym2612"
    },
    {
      "channel": 0,
      "note": 73,
      "start": 35.3547,
      "duration": 0.096,
      "velocity": 99,
      "chip": "ym2612"
    },
    {
      "channel": 1,
      "note": 83,
      "start": 35.3588,
      "duration": 0.1046,
      "velocity": 85,
      "chip": "ym2612"
    },
    {
      "channel": 2,
      "note": 49,
      "start": 35.3594,
      "duration": 0.1042,
      "velocity": 102,
      "chip": "ym2612"
    },
    {
      "channel": 3,
      "note": 83,
      "start": 35.364,
      "duration": 0.0998,
      "velocity": 85,
      "chip": "ym2612"
    },
    {
      "channel": 1,
      "note": 89,
      "start": 35.5679,
      "duration": 0.112,
      "velocity": 85,
      "chip": "ym2612"
    },
    {
      "channel": 2,
      "note": 49,
      "start": 35.5685,
      "duration": 0.1116,
      "velocity": 102,
      "chip": "ym2612"
    },
    {
      "channel": 3,
      "note": 89,
      "start": 35.5692,
      "duration": 0.111,
      "velocity": 85,
      "chip": "ym2612"
    },
    {
      "channel": 0,
      "note": 73,
      "start": 35.7801,
      "duration": 0.0997,
      "velocity": 99,
      "chip": "ym2612"
    },
    {
      "channel": 1,
      "note": 95,
      "start": 35.7809,
      "duration": 1.0706,
      "velocity": 85,
      "chip": "ym2612"
    },
    {
      "channel": 2,
      "note": 49,
      "start": 35.7814,
      "duration": 0.1034,
      "velocity": 102,
      "chip": "ym2612"
    },
    {
      "channel": 3,
      "note": 95,
      "start": 35.7822,
      "duration": 1.0739,
      "velocity": 85,
      "chip": "ym2612"
    },
    {
      "channel": 0,
      "note": 63,
      "start": 35.9969,
      "duration": 0.0995,
      "velocity": 99,
      "chip": "ym2612"
    },
    {
      "channel": 2,
      "note": 49,
      "start": 35.9975,
      "duration": 0.1037,
      "velocity": 102,
      "chip": "ym2612"
    },
    {
      "channel": 0,
      "note": 73,
      "start": 36.2136,
      "duration": 0.0995,
      "velocity": 99,
      "chip": "ym2612"
    },
    {
      "channel": 2,
      "note": 49,
      "start": 36.2143,
      "duration": 0.1036,
      "velocity": 102,
      "chip": "ym2612"
    },
    {
      "channel": 0,
      "note": 63,
      "start": 36.4181,
      "duration": 0.0993,
      "velocity": 99,
      "chip": "ym2612"
    },
    {
      "channel": 2,
      "note": 49,
      "start": 36.4188,
      "duration": 0.1114,
      "velocity": 102,
      "chip": "ym2612"
    },
    {
      "channel": 0,
      "note": 73,
      "start": 36.6345,
      "duration": 0.0995,
      "velocity": 99,
      "chip": "ym2612"
    },
    {
      "channel": 2,
      "note": 52,
      "start": 36.6387,
      "duration": 0.1081,
      "velocity": 122,
      "chip": "ym2612"
    },
    {
      "channel": 0,
      "note": 63,
      "start": 36.8512,
      "duration": 0.0999,
      "velocity": 99,
      "chip": "ym2612"
    },
    {
      "channel": 2,
      "note": 49,
      "start": 36.8557,
      "duration": 0.1078,
      "velocity": 102,
      "chip": "ym2612"
    },
    {
      "channel": 3,
      "note": 75,
      "start": 36.86,
      "duration": 0.4077,
      "velocity": 102,
      "chip": "ym2612"
    },
    {
      "channel": 0,
      "note": 73,
      "start": 37.0679,
      "duration": 0.0952,
      "velocity": 99,
      "chip": "ym2612"
    },
    {
      "channel": 2,
      "note": 49,
      "start": 37.0686,
      "duration": 0.0994,
      "velocity": 102,
      "chip": "ym2612"
    },
    {
      "channel": 2,
      "note": 49,
      "start": 37.2802,
      "duration": 0.1041,
      "velocity": 102,
      "chip": "ym2612"
    },
    {
      "channel": 3,
      "note": 71,
      "start": 37.281,
      "duration": 0.2036,
      "velocity": 102,
      "chip": "ym2612"
    },
    {
      "channel": 0,
      "note": 73,
      "start": 37.4968,
      "duration": 0.0997,
      "velocity": 99,
      "chip": "ym2612"
    },
    {
      "channel": 2,
      "note": 49,
      "start": 37.4974,
      "duration": 0.1039,
      "velocity": 102,
      "chip": "ym2612"
    },
    {
      "channel": 3,
      "note": 73,
      "start": 37.4982,
      "duration": 0.2163,
      "velocity": 102,
      "chip": "ym2612"
    },
    {
      "channel": 0,
      "note": 63,
      "start": 37.7136,
      "duration": 0.0873,
      "velocity": 99,
      "chip": "ym2612"
    },
    {
      "channel": 2,
      "note": 49,
      "start": 37.7142,
      "duration": 0.0992,
      "velocity": 102,
      "chip": "ym2612"
    },
    {
      "channel": 0,
      "note": 73,
      "start": 37.9179,
      "duration": 0.0998,
      "velocity": 99,
      "chip": "ym2612"
    },
    {
      "channel": 2,
      "note": 49,
      "start": 37.9186,
      "duration": 0.1115,
      "velocity": 102,
      "chip": "ym2612"
    },
    {
      "channel": 3,
      "note": 79,
      "start": 37.9193,
      "duration": 1.303,
      "velocity": 102,
      "chip": "ym2612"
    },
    {
      "channel": 0,
      "note": 63,
      "start": 38.1346,
      "duration": 0.0996,
      "velocity": 99,
      "chip": "ym2612"
    },
    {
      "channel": 2,
      "note": 49,
      "start": 38.1352,
      "duration": 0.1116,
      "velocity": 102,
      "chip": "ym2612"
    },
    {
      "channel": 0,
      "note": 73,
      "start": 38.3515,
      "duration": 0.0949,
      "velocity": 99,
      "chip": "ym2612"
    },
    {
      "channel": 2,
      "note": 64,
      "start": 38.3557,
      "duration": 0.1078,
      "velocity": 122,
      "chip": "ym2612"
    },
    {
      "channel": 0,
      "note": 63,
      "start": 38.5636,
      "duration": 0.0995,
      "velocity": 99,
      "chip": "ym2612"
    },
    {
      "channel": 2,
      "note": 49,
      "start": 38.5679,
      "duration": 0.1017,
      "velocity": 102,
      "chip": "ym2612"
    },
    {
      "channel": 0,
      "note": 73,
      "start": 38.7802,
      "duration": 0.0995,
      "velocity": 99,
      "chip": "ym2612"
    },
    {
      "channel": 2,
      "note": 49,
      "start": 38.7809,
      "duration": 0.1057,
      "velocity": 102,
      "chip": "ym2612"
    },
    {
      "channel": 2,
      "note": 49,
      "start": 38.9969,
      "duration": 0.1068,
      "velocity": 102,
      "chip": "ym2612"
    },
    {
      "channel": 0,
      "note": 73,
      "start": 39.2134,
      "duration": 0.0891,
      "velocity": 99,
      "chip": "ym2612"
    },
    {
      "channel": 2,
      "note": 49,
      "start": 39.2141,
      "duration": 0.0994,
      "velocity": 102,
      "chip": "ym2612"
    },
    {
      "channel": 0,
      "note": 63,
      "start": 39.4199,
      "duration": 0.1007,
      "velocity": 99,
      "chip": "ym2612"
    },
    {
      "channel": 1,
      "note": 79,
      "start": 39.424,
      "duration": 0.2059,
      "velocity": 79,
      "chip": "ym2612"
    },
    {
      "channel": 2,
      "note": 49,
      "start": 39.4246,
      "duration": 0.1055,
      "velocity": 102,
      "chip": "ym2612"
    },
    {
      "channel": 3,
      "note": 79,
      "start": 39.429,
      "duration": 0.2011,
      "velocity": 79,
      "chip": "ym2612"
    },
    {
      "channel": 0,
      "note": 73,
      "start": 39.638,
      "duration": 0.0993,
      "velocity": 99,
      "chip": "ym2612"
    },
    {
      "channel": 1,
      "note": 78,
      "start": 39.6387,
      "duration": 0.2078,
      "velocity": 79,
      "chip": "ym2612"
    },
    {
      "channel": 2,
      "note": 49,
      "start": 39.6393,
      "duration": 0.1076,
      "velocity": 102,
      "chip": "ym2612"
    },
    {
      "channel": 3,
      "note": 78,
      "start": 39.64,
      "duration": 0.2067,
      "velocity": 79,
      "chip": "ym2612"
    },
    {
      "channel": 0,
      "note": 67,
      "start": 39.8546,
      "duration": 0.0919,
      "velocity": 99,
      "chip": "ym2612"
    },
    {
      "channel": 1,
      "note": 77,
      "start": 39.8553,
      "duration": 0.1987,
      "velocity": 79,
      "chip": "ym2612"
    },
    {
      "channel": 2,
      "note": 64,
      "start": 39.8594,
      "duration": 0.0952,
      "velocity": 122,
      "chip": "ym2612"
    },
    {
      "channel": 3,
      "note": 77,
      "start": 39.8601,
      "duration": 0.1941,
      "velocity": 79,
      "chip": "ym2612"
    },
    {
      "channel": 0,
      "note": 77,
      "start": 40.0636,
      "duration": 0.0995,
      "velocity": 99,
      "chip": "ym2612"
    },
    {
      "channel": 1,
      "note": 76,
      "start": 40.0643,
      "duration": 0.2162,
      "velocity": 79,
      "chip": "ym2612"
    },
    {
      "channel": 2,
      "note": 49,
      "start": 40.0684,
      "duration": 0.1027,
      "velocity": 102,
      "chip": "ym2612"
    },
    {
      "channel": 3,
      "note": 76,
      "start": 40.0692,
      "duration": 0.2126,
      "velocity": 79,
      "chip": "ym2612"
    },
    {
      "channel": 0,
      "note": 63,
      "start": 40.2802,
      "duration": 0.0995,
      "velocity": 99,
      "chip": "ym2612"
    },
    {
      "channel": 2,
      "note": 49,
      "start": 40.2812,
      "duration": 0.1049,
      "velocity": 102,
      "chip": "ym2612"
    },
    {
      "channel": 3,
      "note": 75,
      "start": 40.2857,
      "duration": 0.411,
      "velocity": 102,
      "chip": "ym2612"
    },
    {
      "channel": 0,
      "note": 73,
      "start": 40.4969,
      "duration": 0.0889,
      "velocity": 99,
      "chip": "ym2612"
    },
    {
      "channel": 2,
      "note": 49,
      "start": 40.4975,
      "duration": 0.0992,
      "velocity": 102,
      "chip": "ym2612"
    },
    {
      "channel": 2,
      "note": 49,
      "start": 40.703,
      "duration": 0.1102,
      "velocity": 102,
      "chip": "ym2612"
    },
    {
      "channel": 3,
      "note": 71,
      "start": 40.7037,
      "duration": 0.2096,
      "velocity": 102,
      "chip": "ym2612"
    },
    {
      "channel": 0,
      "note": 73,
      "start": 40.9195,
      "duration": 0.0998,
      "velocity": 99,
      "chip": "ym2612"
    },
    {
      "channel": 2,
      "note": 49,
      "start": 40.9202,
      "duration": 0.11,
      "velocity": 102,
      "chip": "ym2612"
    },
    {
      "channel": 3,
      "note": 73,
      "start": 40.9209,
      "duration": 0.2258,
      "velocity": 102,
      "chip": "ym2612"
    },
    {
      "channel": 0,
      "note": 63,
      "start": 41.1362,
      "duration": 0.0936,
      "velocity": 99,
      "chip": "ym2612"
    },
    {
      "channel": 2,
      "note": 49,
      "start": 41.1369,
      "duration": 0.1099,
      "velocity": 102,
      "chip": "ym2612"
    },
    {
      "channel": 0,
      "note": 73,
      "start": 41.3469,
      "duration": 0.0995,
      "velocity": 99,
      "chip": "ym2612"
    },
    {
      "channel": 2,
      "note": 49,
      "start": 41.3475,
      "duration": 0.1054,
      "velocity": 102,
      "chip": "ym2612"
    },
    {
      "channel": 3,
      "note": 79,
      "start": 41.3485,
      "duration": 0.8225,
      "velocity": 102,
      "chip": "ym2612"
    },
    {
      "channel": 0,
      "note": 63,
      "start": 41.5636,
      "duration": 0.0995,
      "velocity": 99,
      "chip": "ym2612"
    },
    {
      "channel": 2,
      "note": 49,
      "start": 41.5642,
      "duration": 0.1054,
      "velocity": 102,
      "chip": "ym2612"
    },
    {
      "channel": 0,
      "note": 73,
      "start": 41.7802,
      "duration": 0.0995,
      "velocity": 99,
      "chip": "ym2612"
    },
    {
      "channel": 2,
      "note": 64,
      "start": 41.7844,
      "duration": 0.1021,
      "velocity": 122,
      "chip": "ym2612"
    },
    {
      "channel": 0,
      "note": 63,
      "start": 41.9969,
      "duration": 0.0908,
      "velocity": 99,
      "chip": "ym2612"
    },
    {
      "channel": 2,
      "note": 49,
      "start": 42.0013,
      "duration": 0.0955,
      "velocity": 102,
      "chip": "ym2612"
    },
    {
      "channel": 0,
      "note": 73,
      "start": 42.2045,
      "duration": 0.0962,
      "velocity": 99,
      "chip": "ym2612"
    },
    {
      "channel": 1,
      "note": 83,
      "start": 42.2085,
      "duration": 0.1048,
      "velocity": 85,
      "chip": "ym2612"
    },
    {
      "channel": 2,
      "note": 49,
      "start": 42.2091,
      "duration": 0.1045,
      "velocity": 102,
      "chip": "ym2612"
    },
    {
      "channel": 3,
      "note": 83,
      "start": 42.2137,
      "duration": 0.1,
      "velocity": 85,
      "chip": "ym2612"
    },
    {
      "channel": 1,
      "note": 89,
      "start": 42.4181,
      "duration": 0.195,
      "velocity": 85,
      "chip": "ym2612"
    },
    {
      "channel": 2,
      "note": 49,
      "start": 42.4188,
      "duration": 0.1111,
      "velocity": 102,
      "chip": "ym2612"
    },
    {
      "channel": 3,
      "note": 89,
      "start": 42.4195,
      "duration": 0.1106,
      "velocity": 85,
      "chip": "ym2612"
    },
    {
      "channel": 0,
      "note": 73,
      "start": 42.6344,
      "duration": 0.0954,
      "velocity": 99,
      "chip": "ym2612"
    },
    {
      "channel": 1,
      "note": 95,
      "start": 42.6351,
      "duration": 1.0698,
      "velocity": 85,
      "chip": "ym2612"
    },
    {
      "channel": 2,
      "note": 49,
      "start": 42.6357,
      "duration": 0.0989,
      "velocity": 102,
      "chip": "ym2612"
    },
    {
      "channel": 3,
      "note": 95,
      "start": 42.6365,
      "duration": 1.0769,
      "velocity": 85,
      "chip": "ym2612"
    },
    {
      "channel": 0,
      "note": 63,
      "start": 42.8469,
      "duration": 0.0995,
      "velocity": 99,
      "chip": "ym2612"
    },
    {
      "channel": 2,
      "note": 49,
      "start": 42.8475,
      "duration": 0.1039,
      "velocity": 102,
      "chip": "ym2612"
    },
    {
      "channel": 0,
      "note": 73,
      "start": 43.0636,
      "duration": 0.0995,
      "velocity": 99,
      "chip": "ym2612"
    },
    {
      "channel": 2,
      "note": 49,
      "start": 43.0643,
      "duration": 0.1036,
      "velocity": 102,
      "chip": "ym2612"
    },
    {
      "channel": 0,
      "note": 63,
      "start": 43.2802,
      "duration": 0.0871,
      "velocity": 99,
      "chip": "ym2612"
    },
    {
      "channel": 2,
      "note": 49,
      "start": 43.2809,
      "duration": 0.0992,
      "velocity": 102,
      "chip": "ym2612"
    },
    {
      "channel": 0,
      "note": 73,
      "start": 43.4847,
      "duration": 0.0993,
      "velocity": 99,
      "chip": "ym2612"
    },
    {
      "channel": 2,
      "note": 52,
      "start": 43.4889,
      "duration": 0.1079,
      "velocity": 122,
      "chip": "ym2612"
    },
    {
      "channel": 0,
      "note": 64,
      "start": 43.7045,
      "duration": 0.0919,
      "velocity": 99,
      "chip": "ym2612"
    },
    {
      "channel": 2,
      "note": 86,
      "start": 43.7126,
      "duration": 0.155,
      "velocity": 127,
      "chip": "ym2612"
    },
    {
      "channel": 1,
      "note": 70,
      "start": 43.9179,
      "duration": 0.1119,
      "velocity": 86,
      "chip": "ym2612"
    },
    {
      "channel": 3,
      "note": 64,
      "start": 43.9188,
      "duration": 0.0945,
      "velocity": 86,
      "chip": "ym2612"
    },
    {
      "channel": 0,
      "note": 60,
      "start": 44.1302,
      "duration": 0.0878,
      "velocity": 99,
      "chip": "ym2612"
    },
    {
      "channel": 2,
      "note": 86,
      "start": 44.1311,
      "duration": 0.1727,
      "velocity": 127,
      "chip": "ym2612"
    },
    {
      "channel": 1,
      "note": 80,
      "start": 44.347,
      "duration": 0.1044,
      "velocity": 86,
      "chip": "ym2612"
    },
    {
      "channel": 3,
      "note": 62,
      "start": 44.348,
      "duration": 0.0986,
      "velocity": 86,
      "chip": "ym2612"
    },
    {
      "channel": 0,
      "note": 64,
      "start": 44.9875,
      "duration": 0.0923,
      "velocity": 99,
      "chip": "ym2612"
    },
    {
      "channel": 2,
      "note": 86,
      "start": 44.9881,
      "duration": 0.1751,
      "velocity": 127,
      "chip": "ym2612"
    },
    {
      "channel": 1,
      "note": 70,
      "start": 45.2031,
      "duration": 0.11,
      "velocity": 86,
      "chip": "ym2612"
    },
    {
      "channel": 3,
      "note": 64,
      "start": 45.2039,
      "duration": 0.0974,
      "velocity": 86,
      "chip": "ym2612"
    },
    {
      "channel": 0,
      "note": 60,
      "start": 45.4185,
      "duration": 0.0826,
      "velocity": 99,
      "chip": "ym2612"
    },
    {
      "channel": 2,
      "note": 86,
      "start": 45.4195,
      "duration": 0.1677,
      "velocity": 127,
      "chip": "ym2612"
    },
    {
      "channel": 1,
      "note": 80,
      "start": 45.6303,
      "duration": 0.1044,
      "velocity": 86,
      "chip": "ym2612"
    },
    {
      "channel": 3,
      "note": 62,
      "start": 45.6311,
      "duration": 0.0989,
      "velocity": 86,
      "chip": "ym2612"
    },
    {
      "channel": 0,
      "note": 64,
      "start": 45.8469,
      "duration": 0.0875,
      "velocity": 99,
      "chip": "ym2612"
    },
    {
      "channel": 2,
      "note": 86,
      "start": 45.8478,
      "duration": 0.1655,
      "velocity": 127,
      "chip": "ym2612"
    },
    {
      "channel": 1,
      "note": 70,
      "start": 46.0636,
      "duration": 0.1044,
      "velocity": 86,
      "chip": "ym2612"
    },
    {
      "channel": 3,
      "note": 64,
      "start": 46.0644,
      "duration": 0.0989,
      "velocity": 86,
      "chip": "ym2612"
    },
    {
      "channel": 0,
      "note": 60,
      "start": 46.2682,
      "duration": 0.0949,
      "velocity": 99,
      "chip": "ym2612"
    },
    {
      "channel": 2,
      "note": 86,
      "start": 46.2691,
      "duration": 0.1775,
      "velocity": 127,
      "chip": "ym2612"
    },
    {
      "channel": 1,
      "note": 80,
      "start": 46.4868,
      "duration": 0.1097,
      "velocity": 86,
      "chip": "ym2612"
    },
    {
      "channel": 3,
      "note": 62,
      "start": 46.4877,
      "duration": 0.097,
      "velocity": 86,
      "chip": "ym2612"
    },
    {
      "channel": 0,
      "note": 64,
      "start": 47.1302,
      "duration": 0.0893,
      "velocity": 99,
      "chip": "ym2612"
    },
    {
      "channel": 2,
      "note": 86,
      "start": 47.1311,
      "duration": 0.1655,
      "velocity": 127,
      "chip": "ym2612"
    },
    {
      "channel": 1,
      "note": 70,
      "start": 47.347,
      "duration": 0.1044,
      "velocity": 86,
      "chip": "ym2612"
    },
    {
      "channel": 3,
      "note": 64,
      "start": 47.348,
      "duration": 0.0986,
      "velocity": 86,
      "chip": "ym2612"
    },
    {
      "channel": 0,
      "note": 60,
      "start": 47.5636,
      "duration": 0.0829,
      "velocity": 99,
      "chip": "ym2612"
    },
    {
      "channel": 2,
      "note": 86,
      "start": 47.5644,
      "duration": 0.1655,
      "velocity": 127,
      "chip": "ym2612"
    },
    {
      "channel": 1,
      "note": 80,
      "start": 47.7699,
      "duration": 0.1099,
      "velocity": 86,
      "chip": "ym2612"
    },
    {
      "channel": 3,
      "note": 62,
      "start": 47.7707,
      "duration": 0.0973,
      "velocity": 86,
      "chip": "ym2612"
    },
    {
      "channel": 0,
      "note": 64,
      "start": 48.4136,
      "duration": 0.089,
      "velocity": 99,
      "chip": "ym2612"
    },
    {
      "channel": 2,
      "note": 86,
      "start": 48.4143,
      "duration": 0.1729,
      "velocity": 127,
      "chip": "ym2612"
    },
    {
      "channel": 1,
      "note": 70,
      "start": 48.6303,
      "duration": 0.1044,
      "velocity": 86,
      "chip": "ym2612"
    },
    {
      "channel": 3,
      "note": 64,
      "start": 48.6311,
      "duration": 0.0989,
      "velocity": 86,
      "chip": "ym2612"
    },
    {
      "channel": 0,
      "note": 60,
      "start": 48.8469,
      "duration": 0.0995,
      "velocity": 99,
      "chip": "ym2612"
    },
    {
      "channel": 2,
      "note": 86,
      "start": 48.8479,
      "duration": 0.1653,
      "velocity": 127,
      "chip": "ym2612"
    },
    {
      "channel": 1,
      "note": 80,
      "start": 49.0532,
      "duration": 0.1099,
      "velocity": 86,
      "chip": "ym2612"
    },
    {
      "channel": 3,
      "note": 62,
      "start": 49.0541,
      "duration": 0.0975,
      "velocity": 86,
      "chip": "ym2612"
    },
    {
      "channel": 0,
      "note": 64,
      "start": 49.2682,
      "duration": 0.0995,
      "velocity": 99,
      "chip": "ym2612"
    },
    {
      "channel": 2,
      "note": 86,
      "start": 49.2691,
      "duration": 0.1681,
      "velocity": 127,
      "chip": "ym2612"
    },
    {
      "channel": 1,
      "note": 70,
      "start": 49.4868,
      "duration": 0.1097,
      "velocity": 86,
      "chip": "ym2612"
    },
    {
      "channel": 3,
      "note": 64,
      "start": 49.4876,
      "duration": 0.0971,
      "velocity": 86,
      "chip": "ym2612"
    },
    {
      "channel": 0,
      "note": 60,
      "start": 49.6969,
      "duration": 0.0995,
      "velocity": 99,
      "chip": "ym2612"
    },
    {
      "channel": 2,
      "note": 86,
      "start": 49.6978,
      "duration": 0.1727,
      "velocity": 127,
      "chip": "ym2612"
    },
    {
      "channel": 1,
      "note": 80,
      "start": 49.9136,
      "duration": 0.1046,
      "velocity": 86,
      "chip": "ym2612"
    },
    {
      "channel": 3,
      "note": 62,
      "start": 49.9144,
      "duration": 0.0989,
      "velocity": 86,
      "chip": "ym2612"
    },
    {
      "channel": 0,
      "note": 64,
      "start": 50.5544,
      "duration": 0.092,
      "velocity": 99,
      "chip": "ym2612"
    },
    {
      "channel": 2,
      "note": 86,
      "start": 50.5553,
      "duration": 0.1746,
      "velocity": 127,
      "chip": "ym2612"
    },
    {
      "channel": 1,
      "note": 70,
      "start": 50.7698,
      "duration": 0.11,
      "velocity": 86,
      "chip": "ym2612"
    },
    {
      "channel": 3,
      "note": 64,
      "start": 50.7706,
      "duration": 0.0974,
      "velocity": 86,
      "chip": "ym2612"
    },
    {
      "channel": 0,
      "note": 60,
      "start": 50.9849,
      "duration": 0.0829,
      "velocity": 99,
      "chip": "ym2612"
    },
    {
      "channel": 2,
      "note": 86,
      "start": 50.9858,
      "duration": 0.1683,
      "velocity": 127,
      "chip": "ym2612"
    },
    {
      "channel": 1,
      "note": 80,
      "start": 51.197,
      "duration": 0.1044,
      "velocity": 86,
      "chip": "ym2612"
    },
    {
      "channel": 3,
      "note": 62,
      "start": 51.1978,
      "duration": 0.0989,
      "velocity": 86,
      "chip": "ym2612"
    },
    {
      "channel": 0,
      "note": 64,
      "start": 51.8375,
      "duration": 0.0923,
      "velocity": 99,
      "chip": "ym2612"
    },
    {
      "channel": 2,
      "note": 86,
      "start": 51.8381,
      "duration": 0.1751,
      "velocity": 127,
      "chip": "ym2612"
    },
    {
      "channel": 1,
      "note": 70,
      "start": 52.0531,
      "duration": 0.11,
      "velocity": 86,
      "chip": "ym2612"
    },
    {
      "channel": 3,
      "note": 64,
      "start": 52.0539,
      "duration": 0.0976,
      "velocity": 86,
      "chip": "ym2612"
    },
    {
      "channel": 0,
      "note": 60,
      "start": 52.2682,
      "duration": 0.0949,
      "velocity": 99,
      "chip": "ym2612"
    },
    {
      "channel": 2,
      "note": 86,
      "start": 52.2692,
      "duration": 0.168,
      "velocity": 127,
      "chip": "ym2612"
    },
    {
      "channel": 1,
      "note": 80,
      "start": 52.4803,
      "duration": 0.1044,
      "velocity": 86,
      "chip": "ym2612"
    },
    {
      "channel": 3,
      "note": 62,
      "start": 52.4812,
      "duration": 0.0987,
      "velocity": 86,
      "chip": "ym2612"
    },
    {
      "channel": 0,
      "note": 64,
      "start": 52.6969,
      "duration": 0.0875,
      "velocity": 99,
      "chip": "ym2612"
    },
    {
      "channel": 2,
      "note": 86,
      "start": 52.6978,
      "duration": 0.1726,
      "velocity": 127,
      "chip": "ym2612"
    },
    {
      "channel": 1,
      "note": 70,
      "start": 52.9136,
      "duration": 0.1046,
      "velocity": 86,
      "chip": "ym2612"
    },
    {
      "channel": 3,
      "note": 64,
      "start": 52.9144,
      "duration": 0.0989,
      "velocity": 86,
      "chip": "ym2612"
    },
    {
      "channel": 0,
      "note": 60,
      "start": 53.1302,
      "duration": 0.0829,
      "velocity": 99,
      "chip": "ym2612"
    },
    {
      "channel": 2,
      "note": 86,
      "start": 53.1311,
      "duration": 0.1655,
      "velocity": 127,
      "chip": "ym2612"
    },
    {
      "channel": 1,
      "note": 80,
      "start": 53.3366,
      "duration": 0.1099,
      "velocity": 86,
      "chip": "ym2612"
    },
    {
      "channel": 3,
      "note": 62,
      "start": 53.3373,
      "duration": 0.0973,
      "velocity": 86,
      "chip": "ym2612"
    },
    {
      "channel": 0,
      "note": 64,
      "start": 53.9802,
      "duration": 0.089,
      "velocity": 99,
      "chip": "ym2612"
    },
    {
      "channel": 2,
      "note": 86,
      "start": 53.9811,
      "duration": 0.173,
      "velocity": 127,
      "chip": "ym2612"
    },
    {
      "channel": 1,
      "note": 70,
      "start": 54.197,
      "duration": 0.1044,
      "velocity": 86,
      "chip": "ym2612"
    },
    {
      "channel": 3,
      "note": 64,
      "start": 54.1978,
      "duration": 0.0989,
      "velocity": 86,
      "chip": "ym2612"
    },
    {
      "channel": 0,
      "note": 60,
      "start": 54.4136,
      "duration": 0.0829,
      "velocity": 99,
      "chip": "ym2612"
    },
    {
      "channel": 2,
      "note": 86,
      "start": 54.4147,
      "duration": 0.1652,
      "velocity": 127,
      "chip": "ym2612"
    },
    {
      "channel": 1,
      "note": 80,
      "start": 54.6202,
      "duration": 0.1097,
      "velocity": 86,
      "chip": "ym2612"
    },
    {
      "channel": 3,
      "note": 62,
      "start": 54.6209,
      "duration": 0.0971,
      "velocity": 86,
      "chip": "ym2612"
    },
    {
      "channel": 0,
      "note": 64,
      "start": 55.2708,
      "duration": 0.082,
      "velocity": 99,
      "chip": "ym2612"
    },
    {
      "channel": 2,
      "note": 86,
      "start": 55.2715,
      "duration": 0.1656,
      "velocity": 127,
      "chip": "ym2612"
    },
    {
      "channel": 1,
      "note": 70,
      "start": 55.4803,
      "duration": 0.1044,
      "velocity": 86,
      "chip": "ym2612"
    },
    {
      "channel": 3,
      "note": 64,
      "start": 55.4814,
      "duration": 0.0986,
      "velocity": 86,
      "chip": "ym2612"
    },
    {
      "channel": 0,
      "note": 60,
      "start": 55.6969,
      "duration": 0.0875,
      "velocity": 99,
      "chip": "ym2612"
    },
    {
      "channel": 2,
      "note": 86,
      "start": 55.6979,
      "duration": 0.1653,
      "velocity": 127,
      "chip": "ym2612"
    },
    {
      "channel": 1,
      "note": 80,
      "start": 55.9136,
      "duration": 0.0995,
      "velocity": 86,
      "chip": "ym2612"
    },
    {
      "channel": 3,
      "note": 62,
      "start": 55.9144,
      "duration": 0.0869,
      "velocity": 86,
      "chip": "ym2612"
    },
    {
      "channel": 0,
      "note": 64,
      "start": 56.1182,
      "duration": 0.0949,
      "velocity": 99,
      "chip": "ym2612"
    },
    {
      "channel": 2,
      "note": 86,
      "start": 56.1191,
      "duration": 0.1775,
      "velocity": 127,
      "chip": "ym2612"
    },
    {
      "channel": 1,
      "note": 70,
      "start": 56.3366,
      "duration": 0.1099,
      "velocity": 86,
      "chip": "ym2612"
    },
    {
      "channel": 3,
      "note": 64,
      "start": 56.3373,
      "duration": 0.0973,
      "velocity": 86,
      "chip": "ym2612"
    },
    {
      "channel": 0,
      "note": 60,
      "start": 56.5518,
      "duration": 0.0826,
      "velocity": 99,
      "chip": "ym2612"
    },
    {
      "channel": 2,
      "note": 86,
      "start": 56.5527,
      "duration": 0.1678,
      "velocity": 127,
      "chip": "ym2612"
    },
    {
      "channel": 1,
      "note": 80,
      "start": 56.7636,
      "duration": 0.1044,
      "velocity": 86,
      "chip": "ym2612"
    },
    {
      "channel": 3,
      "note": 62,
      "start": 56.7644,
      "duration": 0.0989,
      "velocity": 86,
      "chip": "ym2612"
    },
    {
      "channel": 0,
      "note": 60,
      "start": 57.4181,
      "duration": 0.095,
      "velocity": 99,
      "chip": "ym2612"
    },
    {
      "channel": 1,
      "note": 76,
      "start": 57.4228,
      "duration": 0.0905,
      "velocity": 86,
      "chip": "ym2612"
    },
    {
      "channel": 2,
      "note": 88,
      "start": 57.4274,
      "duration": 0.1358,
      "velocity": 127,
      "chip": "ym2612"
    },
    {
      "channel": 3,
      "note": 76,
      "start": 57.4325,
      "duration": 0.081,
      "velocity": 86,
      "chip": "ym2612"
    },
    {
      "channel": 0,
      "note": 60,
      "start": 57.6301,
      "duration": 0.0997,
      "velocity": 99,
      "chip": "ym2612"
    },
    {
      "channel": 1,
      "note": 76,
      "start": 57.6307,
      "duration": 0.0993,
      "velocity": 86,
      "chip": "ym2612"
    },
    {
      "channel": 2,
      "note": 88,
      "start": 57.6313,
      "duration": 0.1362,
      "velocity": 127,
      "chip": "ym2612"
    },
    {
      "channel": 3,
      "note": 76,
      "start": 57.632,
      "duration": 0.0983,
      "velocity": 86,
      "chip": "ym2612"
    }
  ]
}