{
  "track_name": "05 - Strange Shackles of Sorrow",
  "duration_sec": 45.347,
  "sample_rate": 44100,
  "note_count": 873,
  "unique_pitches": 46,
  "pitch_range": 100,
  "avg_note_duration": 0.1421,
  "reconstruction_stats": {
    "notes_reconstructed": 873,
    "keyon_events": 873,
    "keyoff_events": 872,
    "orphan_keyons": 1,
    "unique_pitches": 46,
    "pitch_range": 100,
    "avg_duration_sec": 0.1421
  },
  "metadata": {
    "source": "R\\Rent-a-Hero\\05 - Strange Shackles of Sorrow.vgz"
  },
  "notes": [
    {
      "channel": 5,
      "note": 5,
      "start": 0.0,
      "duration": 0.2622,
      "velocity": 99,
      "chip": "ym2612"
    },
    {
      "channel": 0,
      "note": 50,
      "start": 0.2598,
      "duration": 2.9998,
      "velocity": 86,
      "chip": "ym2612"
    },
    {
      "channel": 1,
      "note": 49,
      "start": 0.2601,
      "duration": 2.9998,
      "velocity": 86,
      "chip": "ym2612"
    },
    {
      "channel": 2,
      "note": 80,
      "start": 0.2604,
      "duration": 0.0827,
      "velocity": 100,
      "chip": "ym2612"
    },
    {
      "channel": 2,
      "note": 73,
      "start": 0.3765,
      "duration": 0.0832,
      "velocity": 100,
      "chip": "ym2612"
    },
    {
      "channel": 2,
      "note": 79,
      "start": 0.5099,
      "duration": 0.0832,
      "velocity": 100,
      "chip": "ym2612"
    },
    {
      "channel": 4,
      "note": 72,
      "start": 0.5102,
      "duration": 0.083,
      "velocity": 109,
      "chip": "ym2612"
    },
    {
      "channel": 5,
      "note": 72,
      "start": 0.56,
      "duration": 0.0831,
      "velocity": 99,
      "chip": "ym2612"
    },
    {
      "channel": 2,
      "note": 75,
      "start": 0.6265,
      "duration": 0.0832,
      "velocity": 100,
      "chip": "ym2612"
    },
    {
      "channel": 4,
      "note": 63,
      "start": 0.6268,
      "duration": 0.083,
      "velocity": 109,
      "chip": "ym2612"
    },
    {
      "channel": 5,
      "note": 63,
      "start": 0.6933,
      "duration": 0.0831,
      "velocity": 99,
      "chip": "ym2612"
    },
    {
      "channel": 2,
      "note": 78,
      "start": 0.7599,
      "duration": 0.0832,
      "velocity": 100,
      "chip": "ym2612"
    },
    {
      "channel": 4,
      "note": 64,
      "start": 0.7602,
      "duration": 0.083,
      "velocity": 109,
      "chip": "ym2612"
    },
    {
      "channel": 5,
      "note": 64,
      "start": 0.81,
      "duration": 0.0831,
      "velocity": 99,
      "chip": "ym2612"
    },
    {
      "channel": 2,
      "note": 74,
      "start": 0.8765,
      "duration": 0.0832,
      "velocity": 100,
      "chip": "ym2612"
    },
    {
      "channel": 4,
      "note": 73,
      "start": 0.8768,
      "duration": 0.083,
      "velocity": 109,
      "chip": "ym2612"
    },
    {
      "channel": 5,
      "note": 73,
      "start": 0.9433,
      "duration": 0.0831,
      "velocity": 99,
      "chip": "ym2612"
    },
    {
      "channel": 4,
      "note": 65,
      "start": 1.0099,
      "duration": 0.0831,
      "velocity": 109,
      "chip": "ym2612"
    },
    {
      "channel": 5,
      "note": 65,
      "start": 1.06,
      "duration": 0.0831,
      "velocity": 99,
      "chip": "ym2612"
    },
    {
      "channel": 4,
      "note": 66,
      "start": 1.1266,
      "duration": 0.0831,
      "velocity": 109,
      "chip": "ym2612"
    },
    {
      "channel": 5,
      "note": 66,
      "start": 1.1933,
      "duration": 0.0831,
      "velocity": 99,
      "chip": "ym2612"
    },
    {
      "channel": 4,
      "note": 79,
      "start": 1.2601,
      "duration": 0.0829,
      "velocity": 109,
      "chip": "ym2612"
    },
    {
      "channel": 5,
      "note": 79,
      "start": 1.31,
      "duration": 0.0831,
      "velocity": 99,
      "chip": "ym2612"
    },
    {
      "channel": 2,
      "note": 80,
      "start": 2.26,
      "duration": 0.083,
      "velocity": 100,
      "chip": "ym2612"
    },
    {
      "channel": 2,
      "note": 73,
      "start": 2.3765,
      "duration": 0.0832,
      "velocity": 100,
      "chip": "ym2612"
    },
    {
      "channel": 2,
      "note": 79,
      "start": 2.5099,
      "duration": 0.0832,
      "velocity": 100,
      "chip": "ym2612"
    },
    {
      "channel": 2,
      "note": 75,
      "start": 2.6265,
      "duration": 0.0832,
      "velocity": 100,
      "chip": "ym2612"
    },
    {
      "channel": 2,
      "note": 78,
      "start": 2.7599,
      "duration": 0.0832,
      "velocity": 100,
      "chip": "ym2612"
    },
    {
      "channel": 2,
      "note": 74,
      "start": 2.8765,
      "duration": 0.0832,
      "velocity": 100,
      "chip": "ym2612"
    },
    {
      "channel": 4,
      "note": 97,
      "start": 2.8768,
      "duration": 0.083,
      "velocity": 109,
      "chip": "ym2612"
    },
    {
      "channel": 5,
      "note": 97,
      "start": 2.9433,
      "duration": 0.0831,
      "velocity": 99,
      "chip": "ym2612"
    },
    {
      "channel": 4,
      "note": 91,
      "start": 3.0099,
      "duration": 0.0831,
      "velocity": 109,
      "chip": "ym2612"
    },
    {
      "channel": 5,
      "note": 91,
      "start": 3.06,
      "duration": 0.0831,
      "velocity": 99,
      "chip": "ym2612"
    },
    {
      "channel": 4,
      "note": 75,
      "start": 3.1266,
      "duration": 0.0831,
      "velocity": 109,
      "chip": "ym2612"
    },
    {
      "channel": 5,
      "note": 75,
      "start": 3.1933,
      "duration": 0.0831,
      "velocity": 99,
      "chip": "ym2612"
    },
    {
      "channel": 0,
      "note": 56,
      "start": 3.2598,
      "duration": 0.1165,
      "velocity": 86,
      "chip": "ym2612"
    },
    {
      "channel": 1,
      "note": 57,
      "start": 3.2601,
      "duration": 0.1163,
      "velocity": 86,
      "chip": "ym2612"
    },
    {
      "channel": 2,
      "note": 85,
      "start": 3.2604,
      "duration": 0.0826,
      "velocity": 100,
      "chip": "ym2612"
    },
    {
      "channel": 4,
      "note": 80,
      "start": 3.2622,
      "duration": 0.081,
      "velocity": 100,
      "chip": "ym2612"
    },
    {
      "channel": 5,
      "note": 80,
      "start": 3.3114,
      "duration": 0.0817,
      "velocity": 100,
      "chip": "ym2612"
    },
    {
      "channel": 0,
      "note": 56,
      "start": 3.6265,
      "duration": 0.1332,
      "velocity": 86,
      "chip": "ym2612"
    },
    {
      "channel": 1,
      "note": 57,
      "start": 3.6268,
      "duration": 0.133,
      "velocity": 86,
      "chip": "ym2612"
    },
    {
      "channel": 2,
      "note": 80,
      "start": 3.627,
      "duration": 0.0827,
      "velocity": 100,
      "chip": "ym2612"
    },
    {
      "channel": 4,
      "note": 85,
      "start": 3.6273,
      "duration": 0.0825,
      "velocity": 100,
      "chip": "ym2612"
    },
    {
      "channel": 5,
      "note": 85,
      "start": 3.6933,
      "duration": 0.0831,
      "velocity": 100,
      "chip": "ym2612"
    },
    {
      "channel": 0,
      "note": 53,
      "start": 3.8765,
      "duration": 0.1332,
      "velocity": 86,
      "chip": "ym2612"
    },
    {
      "channel": 0,
      "note": 54,
      "start": 4.1265,
      "duration": 0.1332,
      "velocity": 86,
      "chip": "ym2612"
    },
    {
      "channel": 2,
      "note": 80,
      "start": 4.2602,
      "duration": 0.0828,
      "velocity": 100,
      "chip": "ym2612"
    },
    {
      "channel": 2,
      "note": 73,
      "start": 4.3765,
      "duration": 0.0832,
      "velocity": 100,
      "chip": "ym2612"
    },
    {
      "channel": 2,
      "note": 79,
      "start": 4.5099,
      "duration": 0.0832,
      "velocity": 100,
      "chip": "ym2612"
    },
    {
      "channel": 0,
      "note": 59,
      "start": 4.6265,
      "duration": 0.1332,
      "velocity": 86,
      "chip": "ym2612"
    },
    {
      "channel": 2,
      "note": 75,
      "start": 4.6268,
      "duration": 0.0829,
      "velocity": 100,
      "chip": "ym2612"
    },
    {
      "channel": 4,
      "note": 93,
      "start": 4.6271,
      "duration": 0.0828,
      "velocity": 109,
      "chip": "ym2612"
    },
    {
      "channel": 5,
      "note": 93,
      "start": 4.6933,
      "duration": 0.0831,
      "velocity": 99,
      "chip": "ym2612"
    },
    {
      "channel": 0,
      "note": 60,
      "start": 4.7598,
      "duration": 0.0832,
      "velocity": 86,
      "chip": "ym2612"
    },
    {
      "channel": 2,
      "note": 78,
      "start": 4.7601,
      "duration": 0.083,
      "velocity": 100,
      "chip": "ym2612"
    },
    {
      "channel": 4,
      "note": 89,
      "start": 4.7604,
      "duration": 0.0829,
      "velocity": 109,
      "chip": "ym2612"
    },
    {
      "channel": 5,
      "note": 89,
      "start": 4.81,
      "duration": 0.0831,
      "velocity": 99,
      "chip": "ym2612"
    },
    {
      "channel": 0,
      "note": 61,
      "start": 4.8765,
      "duration": 0.2498,
      "velocity": 86,
      "chip": "ym2612"
    },
    {
      "channel": 2,
      "note": 74,
      "start": 4.8768,
      "duration": 0.0829,
      "velocity": 100,
      "chip": "ym2612"
    },
    {
      "channel": 4,
      "note": 72,
      "start": 4.8771,
      "duration": 0.0828,
      "velocity": 109,
      "chip": "ym2612"
    },
    {
      "channel": 5,
      "note": 72,
      "start": 4.9433,
      "duration": 0.0831,
      "velocity": 99,
      "chip": "ym2612"
    },
    {
      "channel": 4,
      "note": 74,
      "start": 5.0099,
      "duration": 0.0831,
      "velocity": 109,
      "chip": "ym2612"
    },
    {
      "channel": 5,
      "note": 74,
      "start": 5.06,
      "duration": 0.0831,
      "velocity": 99,
      "chip": "ym2612"
    },
    {
      "channel": 0,
      "note": 49,
      "start": 5.1265,
      "duration": 1.6332,
      "velocity": 86,
      "chip": "ym2612"
    },
    {
      "channel": 1,
      "note": 50,
      "start": 5.1268,
      "duration": 1.6332,
      "velocity": 86,
      "chip": "ym2612"
    },
    {
      "channel": 4,
      "note": 81,
      "start": 5.1271,
      "duration": 0.0826,
      "velocity": 109,
      "chip": "ym2612"
    },
    {
      "channel": 5,
      "note": 81,
      "start": 5.1933,
      "duration": 0.0831,
      "velocity": 99,
      "chip": "ym2612"
    },
    {
      "channel": 4,
      "note": 75,
      "start": 5.2601,
      "duration": 0.0829,
      "velocity": 109,
      "chip": "ym2612"
    },
    {
      "channel": 5,
      "note": 75,
      "start": 5.31,
      "duration": 0.0831,
      "velocity": 99,
      "chip": "ym2612"
    },
    {
      "channel": 4,
      "note": 76,
      "start": 5.3766,
      "duration": 0.0831,
      "velocity": 109,
      "chip": "ym2612"
    },
    {
      "channel": 5,
      "note": 76,
      "start": 5.4433,
      "duration": 0.0831,
      "velocity": 99,
      "chip": "ym2612"
    },
    {
      "channel": 4,
      "note": 92,
      "start": 6.1266,
      "duration": 0.0831,
      "velocity": 109,
      "chip": "ym2612"
    },
    {
      "channel": 5,
      "note": 92,
      "start": 6.1933,
      "duration": 0.0831,
      "velocity": 99,
      "chip": "ym2612"
    },
    {
      "channel": 2,
      "note": 80,
      "start": 6.26,
      "duration": 0.083,
      "velocity": 100,
      "chip": "ym2612"
    },
    {
      "channel": 4,
      "note": 92,
      "start": 6.2602,
      "duration": 0.0829,
      "velocity": 109,
      "chip": "ym2612"
    },
    {
      "channel": 5,
      "note": 92,
      "start": 6.3099,
      "duration": 0.0833,
      "velocity": 99,
      "chip": "ym2612"
    },
    {
      "channel": 2,
      "note": 73,
      "start": 6.3765,
      "duration": 0.0832,
      "velocity": 100,
      "chip": "ym2612"
    },
    {
      "channel": 2,
      "note": 79,
      "start": 6.5099,
      "duration": 0.0832,
      "velocity": 100,
      "chip": "ym2612"
    },
    {
      "channel": 2,
      "note": 75,
      "start": 6.6265,
      "duration": 0.0832,
      "velocity": 100,
      "chip": "ym2612"
    },
    {
      "channel": 0,
      "note": 67,
      "start": 6.7598,
      "duration": 0.1165,
      "velocity": 86,
      "chip": "ym2612"
    },
    {
      "channel": 2,
      "note": 78,
      "start": 6.7602,
      "duration": 0.0828,
      "velocity": 100,
      "chip": "ym2612"
    },
    {
      "channel": 0,
      "note": 66,
      "start": 6.8765,
      "duration": 0.1332,
      "velocity": 86,
      "chip": "ym2612"
    },
    {
      "channel": 2,
      "note": 74,
      "start": 6.8768,
      "duration": 0.0829,
      "velocity": 100,
      "chip": "ym2612"
    },
    {
      "channel": 0,
      "note": 73,
      "start": 7.1265,
      "duration": 0.1332,
      "velocity": 86,
      "chip": "ym2612"
    },
    {
      "channel": 2,
      "note": 85,
      "start": 7.26,
      "duration": 0.1166,
      "velocity": 100,
      "chip": "ym2612"
    },
    {
      "channel": 0,
      "note": 72,
      "start": 7.3765,
      "duration": 0.1332,
      "velocity": 86,
      "chip": "ym2612"
    },
    {
      "channel": 2,
      "note": 84,
      "start": 7.4265,
      "duration": 0.1165,
      "velocity": 100,
      "chip": "ym2612"
    },
    {
      "channel": 4,
      "note": 97,
      "start": 7.51,
      "duration": 0.0833,
      "velocity": 109,
      "chip": "ym2612"
    },
    {
      "channel": 5,
      "note": 97,
      "start": 7.56,
      "duration": 0.0831,
      "velocity": 99,
      "chip": "ym2612"
    },
    {
      "channel": 2,
      "note": 83,
      "start": 7.5932,
      "duration": 0.1165,
      "velocity": 100,
      "chip": "ym2612"
    },
    {
      "channel": 0,
      "note": 64,
      "start": 7.6265,
      "duration": 0.1332,
      "velocity": 86,
      "chip": "ym2612"
    },
    {
      "channel": 1,
      "note": 66,
      "start": 7.6267,
      "duration": 0.1331,
      "velocity": 86,
      "chip": "ym2612"
    },
    {
      "channel": 4,
      "note": 101,
      "start": 7.6271,
      "duration": 0.0828,
      "velocity": 109,
      "chip": "ym2612"
    },
    {
      "channel": 5,
      "note": 101,
      "start": 7.6933,
      "duration": 0.0831,
      "velocity": 99,
      "chip": "ym2612"
    },
    {
      "channel": 2,
      "note": 82,
      "start": 7.7601,
      "duration": 0.0829,
      "velocity": 100,
      "chip": "ym2612"
    },
    {
      "channel": 4,
      "note": 97,
      "start": 7.7605,
      "duration": 0.0827,
      "velocity": 109,
      "chip": "ym2612"
    },
    {
      "channel": 5,
      "note": 97,
      "start": 7.81,
      "duration": 0.0831,
      "velocity": 99,
      "chip": "ym2612"
    },
    {
      "channel": 0,
      "note": 73,
      "start": 7.8765,
      "duration": 0.1332,
      "velocity": 86,
      "chip": "ym2612"
    },
    {
      "channel": 4,
      "note": 105,
      "start": 7.8768,
      "duration": 0.0829,
      "velocity": 109,
      "chip": "ym2612"
    },
    {
      "channel": 5,
      "note": 105,
      "start": 7.9433,
      "duration": 0.0831,
      "velocity": 99,
      "chip": "ym2612"
    },
    {
      "channel": 4,
      "note": 101,
      "start": 8.01,
      "duration": 0.083,
      "velocity": 109,
      "chip": "ym2612"
    },
    {
      "channel": 5,
      "note": 101,
      "start": 8.06,
      "duration": 0.0831,
      "velocity": 99,
      "chip": "ym2612"
    },
    {
      "channel": 0,
      "note": 61,
      "start": 8.1265,
      "duration": 0.1332,
      "velocity": 86,
      "chip": "ym2612"
    },
    {
      "channel": 1,
      "note": 62,
      "start": 8.1267,
      "duration": 0.1333,
      "velocity": 86,
      "chip": "ym2612"
    },
    {
      "channel": 4,
      "note": 97,
      "start": 8.1271,
      "duration": 0.0826,
      "velocity": 109,
      "chip": "ym2612"
    },
    {
      "channel": 5,
      "note": 97,
      "start": 8.1933,
      "duration": 0.0831,
      "velocity": 99,
      "chip": "ym2612"
    },
    {
      "channel": 0,
      "note": 50,
      "start": 8.2598,
      "duration": 2.9998,
      "velocity": 86,
      "chip": "ym2612"
    },
    {
      "channel": 1,
      "note": 49,
      "start": 8.2601,
      "duration": 2.9998,
      "velocity": 86,
      "chip": "ym2612"
    },
    {
      "channel": 2,
      "note": 80,
      "start": 8.2605,
      "duration": 0.0825,
      "velocity": 100,
      "chip": "ym2612"
    },
    {
      "channel": 4,
      "note": 96,
      "start": 8.2608,
      "duration": 0.0824,
      "velocity": 109,
      "chip": "ym2612"
    },
    {
      "channel": 5,
      "note": 96,
      "start": 8.31,
      "duration": 0.0831,
      "velocity": 99,
      "chip": "ym2612"
    },
    {
      "channel": 2,
      "note": 73,
      "start": 8.3765,
      "duration": 0.0832,
      "velocity": 100,
      "chip": "ym2612"
    },
    {
      "channel": 4,
      "note": 93,
      "start": 8.3768,
      "duration": 0.083,
      "velocity": 109,
      "chip": "ym2612"
    },
    {
      "channel": 5,
      "note": 93,
      "start": 8.4433,
      "duration": 0.0831,
      "velocity": 99,
      "chip": "ym2612"
    },
    {
      "channel": 2,
      "note": 79,
      "start": 8.5099,
      "duration": 0.0832,
      "velocity": 100,
      "chip": "ym2612"
    },
    {
      "channel": 4,
      "note": 100,
      "start": 8.5102,
      "duration": 0.083,
      "velocity": 109,
      "chip": "ym2612"
    },
    {
      "channel": 5,
      "note": 100,
      "start": 8.56,
      "duration": 0.0831,
      "velocity": 99,
      "chip": "ym2612"
    },
    {
      "channel": 2,
      "note": 75,
      "start": 8.6265,
      "duration": 0.0832,
      "velocity": 100,
      "chip": "ym2612"
    },
    {
      "channel": 2,
      "note": 78,
      "start": 8.7599,
      "duration": 0.0832,
      "velocity": 100,
      "chip": "ym2612"
    },
    {
      "channel": 2,
      "note": 74,
      "start": 8.8765,
      "duration": 0.0832,
      "velocity": 100,
      "chip": "ym2612"
    },
    {
      "channel": 4,
      "note": 72,
      "start": 9.5099,
      "duration": 0.0831,
      "velocity": 109,
      "chip": "ym2612"
    },
    {
      "channel": 5,
      "note": 72,
      "start": 9.56,
      "duration": 0.0831,
      "velocity": 99,
      "chip": "ym2612"
    },
    {
      "channel": 4,
      "note": 73,
      "start": 9.6266,
      "duration": 0.0831,
      "velocity": 109,
      "chip": "ym2612"
    },
    {
      "channel": 5,
      "note": 73,
      "start": 9.6933,
      "duration": 0.0831,
      "velocity": 99,
      "chip": "ym2612"
    },
    {
      "channel": 4,
      "note": 93,
      "start": 9.7599,
      "duration": 0.0831,
      "velocity": 109,
      "chip": "ym2612"
    },
    {
      "channel": 5,
      "note": 93,
      "start": 9.81,
      "duration": 0.0831,
      "velocity": 99,
      "chip": "ym2612"
    },
    {
      "channel": 4,
      "note": 87,
      "start": 9.8766,
      "duration": 0.0831,
      "velocity": 109,
      "chip": "ym2612"
    },
    {
      "channel": 5,
      "note": 87,
      "start": 9.9433,
      "duration": 0.0831,
      "velocity": 99,
      "chip": "ym2612"
    },
    {
      "channel": 4,
      "note": 85,
      "start": 10.0099,
      "duration": 0.0831,
      "velocity": 109,
      "chip": "ym2612"
    },
    {
      "channel": 5,
      "note": 85,
      "start": 10.06,
      "duration": 0.0831,
      "velocity": 99,
      "chip": "ym2612"
    },
    {
      "channel": 2,
      "note": 80,
      "start": 10.26,
      "duration": 0.083,
      "velocity": 100,
      "chip": "ym2612"
    },
    {
      "channel": 4,
      "note": 69,
      "start": 10.2603,
      "duration": 0.0829,
      "velocity": 109,
      "chip": "ym2612"
    },
    {
      "channel": 5,
      "note": 69,
      "start": 10.31,
      "duration": 0.0831,
      "velocity": 99,
      "chip": "ym2612"
    },
    {
      "channel": 2,
      "note": 73,
      "start": 10.3765,
      "duration": 0.0832,
      "velocity": 100,
      "chip": "ym2612"
    },
    {
      "channel": 2,
      "note": 79,
      "start": 10.5099,
      "duration": 0.0832,
      "velocity": 100,
      "chip": "ym2612"
    },
    {
      "channel": 4,
      "note": 78,
      "start": 10.5102,
      "duration": 0.083,
      "velocity": 109,
      "chip": "ym2612"
    },
    {
      "channel": 5,
      "note": 78,
      "start": 10.56,
      "duration": 0.0831,
      "velocity": 99,
      "chip": "ym2612"
    },
    {
      "channel": 2,
      "note": 75,
      "start": 10.6265,
      "duration": 0.0832,
      "velocity": 100,
      "chip": "ym2612"
    },
    {
      "channel": 2,
      "note": 78,
      "start": 10.7599,
      "duration": 0.0832,
      "velocity": 100,
      "chip": "ym2612"
    },
    {
      "channel": 4,
      "note": 77,
      "start": 10.7602,
      "duration": 0.083,
      "velocity": 109,
      "chip": "ym2612"
    },
    {
      "channel": 5,
      "note": 77,
      "start": 10.81,
      "duration": 0.0831,
      "velocity": 99,
      "chip": "ym2612"
    },
    {
      "channel": 2,
      "note": 74,
      "start": 10.8765,
      "duration": 0.0832,
      "velocity": 100,
      "chip": "ym2612"
    },
    {
      "channel": 4,
      "note": 59,
      "start": 11.1266,
      "duration": 0.1354,
      "velocity": 100,
      "chip": "ym2612"
    },
    {
      "channel": 5,
      "note": 59,
      "start": 11.1933,
      "duration": 0.1179,
      "velocity": 100,
      "chip": "ym2612"
    },
    {
      "channel": 0,
      "note": 56,
      "start": 11.2598,
      "duration": 0.1165,
      "velocity": 86,
      "chip": "ym2612"
    },
    {
      "channel": 1,
      "note": 57,
      "start": 11.2601,
      "duration": 0.1163,
      "velocity": 86,
      "chip": "ym2612"
    },
    {
      "channel": 2,
      "note": 85,
      "start": 11.2604,
      "duration": 0.0826,
      "velocity": 100,
      "chip": "ym2612"
    },
    {
      "channel": 4,
      "note": 80,
      "start": 11.2622,
      "duration": 0.081,
      "velocity": 100,
      "chip": "ym2612"
    },
    {
      "channel": 5,
      "note": 80,
      "start": 11.3114,
      "duration": 0.0817,
      "velocity": 100,
      "chip": "ym2612"
    },
    {
      "channel": 0,
      "note": 56,
      "start": 11.6265,
      "duration": 0.1332,
      "velocity": 86,
      "chip": "ym2612"
    },
    {
      "channel": 1,
      "note": 57,
      "start": 11.6268,
      "duration": 0.133,
      "velocity": 86,
      "chip": "ym2612"
    },
    {
      "channel": 2,
      "note": 80,
      "start": 11.627,
      "duration": 0.0827,
      "velocity": 100,
      "chip": "ym2612"
    },
    {
      "channel": 4,
      "note": 85,
      "start": 11.6273,
      "duration": 0.0825,
      "velocity": 100,
      "chip": "ym2612"
    },
    {
      "channel": 5,
      "note": 85,
      "start": 11.6933,
      "duration": 0.0831,
      "velocity": 100,
      "chip": "ym2612"
    },
    {
      "channel": 0,
      "note": 53,
      "start": 11.8765,
      "duration": 0.1332,
      "velocity": 86,
      "chip": "ym2612"
    },
    {
      "channel": 0,
      "note": 54,
      "start": 12.1265,
      "duration": 0.1332,
      "velocity": 86,
      "chip": "ym2612"
    },
    {
      "channel": 2,
      "note": 80,
      "start": 12.2602,
      "duration": 0.0828,
      "velocity": 100,
      "chip": "ym2612"
    },
    {
      "channel": 2,
      "note": 73,
      "start": 12.3765,
      "duration": 0.0832,
      "velocity": 100,
      "chip": "ym2612"
    },
    {
      "channel": 2,
      "note": 79,
      "start": 12.5099,
      "duration": 0.0832,
      "velocity": 100,
      "chip": "ym2612"
    },
    {
      "channel": 0,
      "note": 59,
      "start": 12.6265,
      "duration": 0.1332,
      "velocity": 86,
      "chip": "ym2612"
    },
    {
      "channel": 2,
      "note": 75,
      "start": 12.6268,
      "duration": 0.0829,
      "velocity": 100,
      "chip": "ym2612"
    },
    {
      "channel": 4,
      "note": 92,
      "start": 12.6271,
      "duration": 0.0828,
      "velocity": 109,
      "chip": "ym2612"
    },
    {
      "channel": 5,
      "note": 92,
      "start": 12.6933,
      "duration": 0.0831,
      "velocity": 99,
      "chip": "ym2612"
    },
    {
      "channel": 0,
      "note": 60,
      "start": 12.7598,
      "duration": 0.0832,
      "velocity": 86,
      "chip": "ym2612"
    },
    {
      "channel": 2,
      "note": 78,
      "start": 12.7601,
      "duration": 0.083,
      "velocity": 100,
      "chip": "ym2612"
    },
    {
      "channel": 4,
      "note": 84,
      "start": 12.7604,
      "duration": 0.0829,
      "velocity": 109,
      "chip": "ym2612"
    },
    {
      "channel": 5,
      "note": 84,
      "start": 12.81,
      "duration": 0.0831,
      "velocity": 99,
      "chip": "ym2612"
    },
    {
      "channel": 0,
      "note": 61,
      "start": 12.8765,
      "duration": 0.2498,
      "velocity": 86,
      "chip": "ym2612"
    },
    {
      "channel": 2,
      "note": 74,
      "start": 12.8768,
      "duration": 0.0829,
      "velocity": 100,
      "chip": "ym2612"
    },
    {
      "channel": 4,
      "note": 67,
      "start": 12.8771,
      "duration": 0.0828,
      "velocity": 109,
      "chip": "ym2612"
    },
    {
      "channel": 5,
      "note": 67,
      "start": 12.9433,
      "duration": 0.0831,
      "velocity": 99,
      "chip": "ym2612"
    },
    {
      "channel": 4,
      "note": 68,
      "start": 13.0099,
      "duration": 0.0831,
      "velocity": 109,
      "chip": "ym2612"
    },
    {
      "channel": 5,
      "note": 68,
      "start": 13.06,
      "duration": 0.0831,
      "velocity": 99,
      "chip": "ym2612"
    },
    {
      "channel": 0,
      "note": 49,
      "start": 13.1265,
      "duration": 1.6332,
      "velocity": 86,
      "chip": "ym2612"
    },
    {
      "channel": 1,
      "note": 50,
      "start": 13.1268,
      "duration": 1.6332,
      "velocity": 86,
      "chip": "ym2612"
    },
    {
      "channel": 4,
      "note": 78,
      "start": 13.1271,
      "duration": 0.0826,
      "velocity": 109,
      "chip": "ym2612"
    },
    {
      "channel": 5,
      "note": 78,
      "start": 13.1933,
      "duration": 0.0831,
      "velocity": 99,
      "chip": "ym2612"
    },
    {
      "channel": 4,
      "note": 79,
      "start": 13.2601,
      "duration": 0.0829,
      "velocity": 109,
      "chip": "ym2612"
    },
    {
      "channel": 5,
      "note": 79,
      "start": 13.31,
      "duration": 0.0831,
      "velocity": 99,
      "chip": "ym2612"
    },
    {
      "channel": 4,
      "note": 70,
      "start": 14.0099,
      "duration": 0.0831,
      "velocity": 109,
      "chip": "ym2612"
    },
    {
      "channel": 5,
      "note": 70,
      "start": 14.06,
      "duration": 0.0831,
      "velocity": 99,
      "chip": "ym2612"
    },
    {
      "channel": 4,
      "note": 73,
      "start": 14.1266,
      "duration": 0.0831,
      "velocity": 109,
      "chip": "ym2612"
    },
    {
      "channel": 5,
      "note": 73,
      "start": 14.1933,
      "duration": 0.0831,
      "velocity": 99,
      "chip": "ym2612"
    },
    {
      "channel": 2,
      "note": 80,
      "start": 14.26,
      "duration": 0.083,
      "velocity": 100,
      "chip": "ym2612"
    },
    {
      "channel": 4,
      "note": 95,
      "start": 14.2603,
      "duration": 0.0829,
      "velocity": 109,
      "chip": "ym2612"
    },
    {
      "channel": 5,
      "note": 95,
      "start": 14.31,
      "duration": 0.0831,
      "velocity": 99,
      "chip": "ym2612"
    },
    {
      "channel": 2,
      "note": 73,
      "start": 14.3765,
      "duration": 0.0832,
      "velocity": 100,
      "chip": "ym2612"
    },
    {
      "channel": 4,
      "note": 85,
      "start": 14.3768,
      "duration": 0.083,
      "velocity": 109,
      "chip": "ym2612"
    },
    {
      "channel": 5,
      "note": 85,
      "start": 14.4433,
      "duration": 0.0831,
      "velocity": 99,
      "chip": "ym2612"
    },
    {
      "channel": 2,
      "note": 79,
      "start": 14.5099,
      "duration": 0.0832,
      "velocity": 100,
      "chip": "ym2612"
    },
    {
      "channel": 4,
      "note": 89,
      "start": 14.5102,
      "duration": 0.083,
      "velocity": 109,
      "chip": "ym2612"
    },
    {
      "channel": 5,
      "note": 89,
      "start": 14.56,
      "duration": 0.0831,
      "velocity": 99,
      "chip": "ym2612"
    },
    {
      "channel": 2,
      "note": 75,
      "start": 14.6265,
      "duration": 0.0832,
      "velocity": 100,
      "chip": "ym2612"
    },
    {
      "channel": 4,
      "note": 72,
      "start": 14.6268,
      "duration": 0.083,
      "velocity": 109,
      "chip": "ym2612"
    },
    {
      "channel": 5,
      "note": 72,
      "start": 14.6933,
      "duration": 0.0831,
      "velocity": 99,
      "chip": "ym2612"
    },
    {
      "channel": 0,
      "note": 67,
      "start": 14.7598,
      "duration": 0.1165,
      "velocity": 86,
      "chip": "ym2612"
    },
    {
      "channel": 2,
      "note": 78,
      "start": 14.7602,
      "duration": 0.0828,
      "velocity": 100,
      "chip": "ym2612"
    },
    {
      "channel": 4,
      "note": 74,
      "start": 14.7606,
      "duration": 0.0826,
      "velocity": 109,
      "chip": "ym2612"
    },
    {
      "channel": 5,
      "note": 74,
      "start": 14.81,
      "duration": 0.0831,
      "velocity": 99,
      "chip": "ym2612"
    },
    {
      "channel": 0,
      "note": 66,
      "start": 14.8765,
      "duration": 0.1332,
      "velocity": 86,
      "chip": "ym2612"
    },
    {
      "channel": 2,
      "note": 74,
      "start": 14.8768,
      "duration": 0.0829,
      "velocity": 100,
      "chip": "ym2612"
    },
    {
      "channel": 4,
      "note": 80,
      "start": 14.8771,
      "duration": 0.0828,
      "velocity": 109,
      "chip": "ym2612"
    },
    {
      "channel": 5,
      "note": 80,
      "start": 14.9433,
      "duration": 0.0831,
      "velocity": 99,
      "chip": "ym2612"
    },
    {
      "channel": 4,
      "note": 83,
      "start": 15.01,
      "duration": 0.083,
      "velocity": 109,
      "chip": "ym2612"
    },
    {
      "channel": 5,
      "note": 83,
      "start": 15.06,
      "duration": 0.0831,
      "velocity": 99,
      "chip": "ym2612"
    },
    {
      "channel": 0,
      "note": 73,
      "start": 15.1265,
      "duration": 0.1332,
      "velocity": 86,
      "chip": "ym2612"
    },
    {
      "channel": 2,
      "note": 85,
      "start": 15.26,
      "duration": 0.1166,
      "velocity": 100,
      "chip": "ym2612"
    },
    {
      "channel": 0,
      "note": 72,
      "start": 15.3765,
      "duration": 0.1332,
      "velocity": 86,
      "chip": "ym2612"
    },
    {
      "channel": 2,
      "note": 84,
      "start": 15.4265,
      "duration": 0.1165,
      "velocity": 100,
      "chip": "ym2612"
    },
    {
      "channel": 4,
      "note": 75,
      "start": 15.51,
      "duration": 0.0833,
      "velocity": 109,
      "chip": "ym2612"
    },
    {
      "channel": 5,
      "note": 75,
      "start": 15.56,
      "duration": 0.0831,
      "velocity": 99,
      "chip": "ym2612"
    },
    {
      "channel": 2,
      "note": 83,
      "start": 15.5932,
      "duration": 0.1165,
      "velocity": 100,
      "chip": "ym2612"
    },
    {
      "channel": 0,
      "note": 64,
      "start": 15.6265,
      "duration": 0.1332,
      "velocity": 86,
      "chip": "ym2612"
    },
    {
      "channel": 1,
      "note": 66,
      "start": 15.6267,
      "duration": 0.1331,
      "velocity": 86,
      "chip": "ym2612"
    },
    {
      "channel": 4,
      "note": 76,
      "start": 15.6271,
      "duration": 0.0828,
      "velocity": 109,
      "chip": "ym2612"
    },
    {
      "channel": 5,
      "note": 76,
      "start": 15.6933,
      "duration": 0.0831,
      "velocity": 99,
      "chip": "ym2612"
    },
    {
      "channel": 2,
      "note": 82,
      "start": 15.7601,
      "duration": 0.0829,
      "velocity": 100,
      "chip": "ym2612"
    },
    {
      "channel": 4,
      "note": 102,
      "start": 15.7604,
      "duration": 0.0828,
      "velocity": 109,
      "chip": "ym2612"
    },
    {
      "channel": 5,
      "note": 102,
      "start": 15.81,
      "duration": 0.0831,
      "velocity": 99,
      "chip": "ym2612"
    },
    {
      "channel": 0,
      "note": 73,
      "start": 15.8765,
      "duration": 0.1332,
      "velocity": 86,
      "chip": "ym2612"
    },
    {
      "channel": 4,
      "note": 96,
      "start": 15.8768,
      "duration": 0.0829,
      "velocity": 109,
      "chip": "ym2612"
    },
    {
      "channel": 5,
      "note": 96,
      "start": 15.9433,
      "duration": 0.0831,
      "velocity": 99,
      "chip": "ym2612"
    },
    {
      "channel": 4,
      "note": 92,
      "start": 16.01,
      "duration": 0.083,
      "velocity": 109,
      "chip": "ym2612"
    },
    {
      "channel": 5,
      "note": 92,
      "start": 16.06,
      "duration": 0.0831,
      "velocity": 99,
      "chip": "ym2612"
    },
    {
      "channel": 0,
      "note": 61,
      "start": 16.1265,
      "duration": 0.1332,
      "velocity": 86,
      "chip": "ym2612"
    },
    {
      "channel": 1,
      "note": 62,
      "start": 16.1267,
      "duration": 0.1333,
      "velocity": 86,
      "chip": "ym2612"
    },
    {
      "channel": 4,
      "note": 96,
      "start": 16.1271,
      "duration": 0.0826,
      "velocity": 109,
      "chip": "ym2612"
    },
    {
      "channel": 5,
      "note": 96,
      "start": 16.1933,
      "duration": 0.0831,
      "velocity": 99,
      "chip": "ym2612"
    },
    {
      "channel": 0,
      "note": 50,
      "start": 16.2598,
      "duration": 2.9998,
      "velocity": 86,
      "chip": "ym2612"
    },
    {
      "channel": 1,
      "note": 49,
      "start": 16.2602,
      "duration": 2.9998,
      "velocity": 86,
      "chip": "ym2612"
    },
    {
      "channel": 2,
      "note": 80,
      "start": 16.2605,
      "duration": 0.0825,
      "velocity": 100,
      "chip": "ym2612"
    },
    {
      "channel": 2,
      "note": 73,
      "start": 16.3765,
      "duration": 0.0832,
      "velocity": 100,
      "chip": "ym2612"
    },
    {
      "channel": 2,
      "note": 79,
      "start": 16.5099,
      "duration": 0.0832,
      "velocity": 100,
      "chip": "ym2612"
    },
    {
      "channel": 4,
      "note": 72,
      "start": 16.5102,
      "duration": 0.083,
      "velocity": 109,
      "chip": "ym2612"
    },
    {
      "channel": 5,
      "note": 72,
      "start": 16.56,
      "duration": 0.0831,
      "velocity": 99,
      "chip": "ym2612"
    },
    {
      "channel": 2,
      "note": 75,
      "start": 16.6265,
      "duration": 0.0832,
      "velocity": 100,
      "chip": "ym2612"
    },
    {
      "channel": 4,
      "note": 63,
      "start": 16.6268,
      "duration": 0.083,
      "velocity": 109,
      "chip": "ym2612"
    },
    {
      "channel": 5,
      "note": 63,
      "start": 16.6933,
      "duration": 0.0831,
      "velocity": 99,
      "chip": "ym2612"
    },
    {
      "channel": 2,
      "note": 78,
      "start": 16.7599,
      "duration": 0.0832,
      "velocity": 100,
      "chip": "ym2612"
    },
    {
      "channel": 4,
      "note": 64,
      "start": 16.7602,
      "duration": 0.083,
      "velocity": 109,
      "chip": "ym2612"
    },
    {
      "channel": 5,
      "note": 64,
      "start": 16.81,
      "duration": 0.0831,
      "velocity": 99,
      "chip": "ym2612"
    },
    {
      "channel": 2,
      "note": 74,
      "start": 16.8765,
      "duration": 0.0832,
      "velocity": 100,
      "chip": "ym2612"
    },
    {
      "channel": 4,
      "note": 73,
      "start": 16.8768,
      "duration": 0.083,
      "velocity": 109,
      "chip": "ym2612"
    },
    {
      "channel": 5,
      "note": 73,
      "start": 16.9433,
      "duration": 0.0831,
      "velocity": 99,
      "chip": "ym2612"
    },
    {
      "channel": 4,
      "note": 65,
      "start": 17.0099,
      "duration": 0.0831,
      "velocity": 109,
      "chip": "ym2612"
    },
    {
      "channel": 5,
      "note": 65,
      "start": 17.06,
      "duration": 0.0831,
      "velocity": 99,
      "chip": "ym2612"
    },
    {
      "channel": 4,
      "note": 66,
      "start": 17.1266,
      "duration": 0.0831,
      "velocity": 109,
      "chip": "ym2612"
    },
    {
      "channel": 5,
      "note": 66,
      "start": 17.1933,
      "duration": 0.0831,
      "velocity": 99,
      "chip": "ym2612"
    },
    {
      "channel": 4,
      "note": 79,
      "start": 17.2601,
      "duration": 0.0829,
      "velocity": 109,
      "chip": "ym2612"
    },
    {
      "channel": 5,
      "note": 79,
      "start": 17.31,
      "duration": 0.0831,
      "velocity": 99,
      "chip": "ym2612"
    },
    {
      "channel": 2,
      "note": 80,
      "start": 18.26,
      "duration": 0.083,
      "velocity": 100,
      "chip": "ym2612"
    },
    {
      "channel": 2,
      "note": 73,
      "start": 18.3765,
      "duration": 0.0832,
      "velocity": 100,
      "chip": "ym2612"
    },
    {
      "channel": 2,
      "note": 79,
      "start": 18.5099,
      "duration": 0.0832,
      "velocity": 100,
      "chip": "ym2612"
    },
    {
      "channel": 2,
      "note": 75,
      "start": 18.6265,
      "duration": 0.0832,
      "velocity": 100,
      "chip": "ym2612"
    },
    {
      "channel": 2,
      "note": 78,
      "start": 18.7599,
      "duration": 0.0832,
      "velocity": 100,
      "chip": "ym2612"
    },
    {
      "channel": 2,
      "note": 74,
      "start": 18.8765,
      "duration": 0.0832,
      "velocity": 100,
      "chip": "ym2612"
    },
    {
      "channel": 4,
      "note": 97,
      "start": 18.8768,
      "duration": 0.083,
      "velocity": 109,
      "chip": "ym2612"
    },
    {
      "channel": 5,
      "note": 97,
      "start": 18.9433,
      "duration": 0.0831,
      "velocity": 99,
      "chip": "ym2612"
    },
    {
      "channel": 4,
      "note": 91,
      "start": 19.0099,
      "duration": 0.0831,
      "velocity": 109,
      "chip": "ym2612"
    },
    {
      "channel": 5,
      "note": 91,
      "start": 19.06,
      "duration": 0.0831,
      "velocity": 99,
      "chip": "ym2612"
    },
    {
      "channel": 4,
      "note": 75,
      "start": 19.1266,
      "duration": 0.0831,
      "velocity": 109,
      "chip": "ym2612"
    },
    {
      "channel": 5,
      "note": 75,
      "start": 19.1933,
      "duration": 0.0831,
      "velocity": 99,
      "chip": "ym2612"
    },
    {
      "channel": 0,
      "note": 56,
      "start": 19.2598,
      "duration": 0.1165,
      "velocity": 86,
      "chip": "ym2612"
    },
    {
      "channel": 1,
      "note": 57,
      "start": 19.2601,
      "duration": 0.1163,
      "velocity": 86,
      "chip": "ym2612"
    },
    {
      "channel": 2,
      "note": 85,
      "start": 19.2604,
      "duration": 0.0826,
      "velocity": 100,
      "chip": "ym2612"
    },
    {
      "channel": 4,
      "note": 80,
      "start": 19.2622,
      "duration": 0.081,
      "velocity": 100,
      "chip": "ym2612"
    },
    {
      "channel": 5,
      "note": 80,
      "start": 19.3114,
      "duration": 0.0817,
      "velocity": 100,
      "chip": "ym2612"
    },
    {
      "channel": 0,
      "note": 56,
      "start": 19.6265,
      "duration": 0.1332,
      "velocity": 86,
      "chip": "ym2612"
    },
    {
      "channel": 1,
      "note": 57,
      "start": 19.6268,
      "duration": 0.133,
      "velocity": 86,
      "chip": "ym2612"
    },
    {
      "channel": 2,
      "note": 80,
      "start": 19.627,
      "duration": 0.0827,
      "velocity": 100,
      "chip": "ym2612"
    },
    {
      "channel": 4,
      "note": 85,
      "start": 19.6273,
      "duration": 0.0825,
      "velocity": 100,
      "chip": "ym2612"
    },
    {
      "channel": 5,
      "note": 85,
      "start": 19.6933,
      "duration": 0.0831,
      "velocity": 100,
      "chip": "ym2612"
    },
    {
      "channel": 0,
      "note": 53,
      "start": 19.8765,
      "duration": 0.1332,
      "velocity": 86,
      "chip": "ym2612"
    },
    {
      "channel": 0,
      "note": 54,
      "start": 20.1265,
      "duration": 0.1332,
      "velocity": 86,
      "chip": "ym2612"
    },
    {
      "channel": 2,
      "note": 80,
      "start": 20.2602,
      "duration": 0.0828,
      "velocity": 100,
      "chip": "ym2612"
    },
    {
      "channel": 2,
      "note": 73,
      "start": 20.3765,
      "duration": 0.0832,
      "velocity": 100,
      "chip": "ym2612"
    },
    {
      "channel": 2,
      "note": 79,
      "start": 20.5099,
      "duration": 0.0832,
      "velocity": 100,
      "chip": "ym2612"
    },
    {
      "channel": 0,
      "note": 59,
      "start": 20.6265,
      "duration": 0.1332,
      "velocity": 86,
      "chip": "ym2612"
    },
    {
      "channel": 2,
      "note": 75,
      "start": 20.6268,
      "duration": 0.0829,
      "velocity": 100,
      "chip": "ym2612"
    },
    {
      "channel": 4,
      "note": 93,
      "start": 20.6271,
      "duration": 0.0828,
      "velocity": 109,
      "chip": "ym2612"
    },
    {
      "channel": 5,
      "note": 93,
      "start": 20.6933,
      "duration": 0.0831,
      "velocity": 99,
      "chip": "ym2612"
    },
    {
      "channel": 0,
      "note": 60,
      "start": 20.7598,
      "duration": 0.0832,
      "velocity": 86,
      "chip": "ym2612"
    },
    {
      "channel": 2,
      "note": 78,
      "start": 20.7601,
      "duration": 0.083,
      "velocity": 100,
      "chip": "ym2612"
    },
    {
      "channel": 4,
      "note": 89,
      "start": 20.7604,
      "duration": 0.0829,
      "velocity": 109,
      "chip": "ym2612"
    },
    {
      "channel": 5,
      "note": 89,
      "start": 20.81,
      "duration": 0.0831,
      "velocity": 99,
      "chip": "ym2612"
    },
    {
      "channel": 0,
      "note": 61,
      "start": 20.8765,
      "duration": 0.2498,
      "velocity": 86,
      "chip": "ym2612"
    },
    {
      "channel": 2,
      "note": 74,
      "start": 20.8768,
      "duration": 0.0829,
      "velocity": 100,
      "chip": "ym2612"
    },
    {
      "channel": 4,
      "note": 72,
      "start": 20.8771,
      "duration": 0.0828,
      "velocity": 109,
      "chip": "ym2612"
    },
    {
      "channel": 5,
      "note": 72,
      "start": 20.9433,
      "duration": 0.0831,
      "velocity": 99,
      "chip": "ym2612"
    },
    {
      "channel": 4,
      "note": 74,
      "start": 21.0099,
      "duration": 0.0831,
      "velocity": 109,
      "chip": "ym2612"
    },
    {
      "channel": 5,
      "note": 74,
      "start": 21.06,
      "duration": 0.0831,
      "velocity": 99,
      "chip": "ym2612"
    },
    {
      "channel": 0,
      "note": 49,
      "start": 21.1265,
      "duration": 1.6332,
      "velocity": 86,
      "chip": "ym2612"
    },
    {
      "channel": 1,
      "note": 50,
      "start": 21.1268,
      "duration": 1.6332,
      "velocity": 86,
      "chip": "ym2612"
    },
    {
      "channel": 4,
      "note": 81,
      "start": 21.1271,
      "duration": 0.0826,
      "velocity": 109,
      "chip": "ym2612"
    },
    {
      "channel": 5,
      "note": 81,
      "start": 21.1933,
      "duration": 0.0833,
      "velocity": 99,
      "chip": "ym2612"
    },
    {
      "channel": 3,
      "note": 62,
      "start": 21.26,
      "duration": 0.0331,
      "velocity": 110,
      "chip": "ym2612"
    },
    {
      "channel": 4,
      "note": 75,
      "start": 21.2602,
      "duration": 0.083,
      "velocity": 109,
      "chip": "ym2612"
    },
    {
      "channel": 3,
      "note": 63,
      "start": 21.2933,
      "duration": 0.0831,
      "velocity": 110,
      "chip": "ym2612"
    },
    {
      "channel": 5,
      "note": 75,
      "start": 21.3102,
      "duration": 0.0831,
      "velocity": 99,
      "chip": "ym2612"
    },
    {
      "channel": 3,
      "note": 62,
      "start": 21.3767,
      "duration": 0.0497,
      "velocity": 110,
      "chip": "ym2612"
    },
    {
      "channel": 4,
      "note": 76,
      "start": 21.3769,
      "duration": 0.083,
      "velocity": 109,
      "chip": "ym2612"
    },
    {
      "channel": 3,
      "note": 63,
      "start": 21.4266,
      "duration": 0.0831,
      "velocity": 110,
      "chip": "ym2612"
    },
    {
      "channel": 5,
      "note": 76,
      "start": 21.4435,
      "duration": 0.0831,
      "velocity": 99,
      "chip": "ym2612"
    },
    {
      "channel": 3,
      "note": 62,
      "start": 21.51,
      "duration": 0.0331,
      "velocity": 110,
      "chip": "ym2612"
    },
    {
      "channel": 3,
      "note": 63,
      "start": 21.5433,
      "duration": 0.0831,
      "velocity": 110,
      "chip": "ym2612"
    },
    {
      "channel": 3,
      "note": 62,
      "start": 21.6267,
      "duration": 0.0497,
      "velocity": 110,
      "chip": "ym2612"
    },
    {
      "channel": 3,
      "note": 63,
      "start": 21.6766,
      "duration": 0.0831,
      "velocity": 110,
      "chip": "ym2612"
    },
    {
      "channel": 3,
      "note": 62,
      "start": 21.76,
      "duration": 0.0331,
      "velocity": 110,
      "chip": "ym2612"
    },
    {
      "channel": 3,
      "note": 63,
      "start": 21.7933,
      "duration": 0.0831,
      "velocity": 110,
      "chip": "ym2612"
    },
    {
      "channel": 3,
      "note": 62,
      "start": 21.8767,
      "duration": 0.0497,
      "velocity": 110,
      "chip": "ym2612"
    },
    {
      "channel": 3,
      "note": 63,
      "start": 21.9266,
      "duration": 0.0831,
      "velocity": 110,
      "chip": "ym2612"
    },
    {
      "channel": 3,
      "note": 62,
      "start": 22.01,
      "duration": 0.0331,
      "velocity": 110,
      "chip": "ym2612"
    },
    {
      "channel": 3,
      "note": 63,
      "start": 22.0433,
      "duration": 0.0831,
      "velocity": 110,
      "chip": "ym2612"
    },
    {
      "channel": 3,
      "note": 62,
      "start": 22.1267,
      "duration": 0.0497,
      "velocity": 110,
      "chip": "ym2612"
    },
    {
      "channel": 4,
      "note": 92,
      "start": 22.1269,
      "duration": 0.083,
      "velocity": 109,
      "chip": "ym2612"
    },
    {
      "channel": 3,
      "note": 63,
      "start": 22.1766,
      "duration": 0.0835,
      "velocity": 110,
      "chip": "ym2612"
    },
    {
      "channel": 5,
      "note": 92,
      "start": 22.1935,
      "duration": 0.0831,
      "velocity": 99,
      "chip": "ym2612"
    },
    {
      "channel": 2,
      "note": 80,
      "start": 22.26,
      "duration": 0.083,
      "velocity": 100,
      "chip": "ym2612"
    },
    {
      "channel": 3,
      "note": 62,
      "start": 22.2603,
      "duration": 0.0327,
      "velocity": 110,
      "chip": "ym2612"
    },
    {
      "channel": 4,
      "note": 92,
      "start": 22.2606,
      "duration": 0.0828,
      "velocity": 109,
      "chip": "ym2612"
    },
    {
      "channel": 3,
      "note": 63,
      "start": 22.2933,
      "duration": 0.0834,
      "velocity": 110,
      "chip": "ym2612"
    },
    {
      "channel": 5,
      "note": 92,
      "start": 22.31,
      "duration": 0.0832,
      "velocity": 99,
      "chip": "ym2612"
    },
    {
      "channel": 2,
      "note": 73,
      "start": 22.3765,
      "duration": 0.0832,
      "velocity": 100,
      "chip": "ym2612"
    },
    {
      "channel": 3,
      "note": 62,
      "start": 22.3769,
      "duration": 0.0495,
      "velocity": 110,
      "chip": "ym2612"
    },
    {
      "channel": 3,
      "note": 63,
      "start": 22.4266,
      "duration": 0.0834,
      "velocity": 110,
      "chip": "ym2612"
    },
    {
      "channel": 2,
      "note": 79,
      "start": 22.5099,
      "duration": 0.0832,
      "velocity": 100,
      "chip": "ym2612"
    },
    {
      "channel": 3,
      "note": 62,
      "start": 22.5102,
      "duration": 0.0328,
      "velocity": 110,
      "chip": "ym2612"
    },
    {
      "channel": 3,
      "note": 63,
      "start": 22.5433,
      "duration": 0.0834,
      "velocity": 110,
      "chip": "ym2612"
    },
    {
      "channel": 2,
      "note": 75,
      "start": 22.6265,
      "duration": 0.0832,
      "velocity": 100,
      "chip": "ym2612"
    },
    {
      "channel": 3,
      "note": 62,
      "start": 22.6269,
      "duration": 0.0495,
      "velocity": 110,
      "chip": "ym2612"
    },
    {
      "channel": 3,
      "note": 63,
      "start": 22.6766,
      "duration": 0.0838,
      "velocity": 110,
      "chip": "ym2612"
    },
    {
      "channel": 0,
      "note": 67,
      "start": 22.7598,
      "duration": 0.1165,
      "velocity": 86,
      "chip": "ym2612"
    },
    {
      "channel": 2,
      "note": 78,
      "start": 22.7602,
      "duration": 0.0828,
      "velocity": 100,
      "chip": "ym2612"
    },
    {
      "channel": 3,
      "note": 62,
      "start": 22.7606,
      "duration": 0.0324,
      "velocity": 110,
      "chip": "ym2612"
    },
    {
      "channel": 3,
      "note": 63,
      "start": 22.7933,
      "duration": 0.0837,
      "velocity": 110,
      "chip": "ym2612"
    },
    {
      "channel": 0,
      "note": 66,
      "start": 22.8765,
      "duration": 0.1332,
      "velocity": 86,
      "chip": "ym2612"
    },
    {
      "channel": 2,
      "note": 74,
      "start": 22.8768,
      "duration": 0.0829,
      "velocity": 100,
      "chip": "ym2612"
    },
    {
      "channel": 3,
      "note": 62,
      "start": 22.8772,
      "duration": 0.0492,
      "velocity": 110,
      "chip": "ym2612"
    },
    {
      "channel": 3,
      "note": 63,
      "start": 22.9266,
      "duration": 0.0833,
      "velocity": 110,
      "chip": "ym2612"
    },
    {
      "channel": 3,
      "note": 62,
      "start": 23.0101,
      "duration": 0.0329,
      "velocity": 110,
      "chip": "ym2612"
    },
    {
      "channel": 3,
      "note": 63,
      "start": 23.0433,
      "duration": 0.0834,
      "velocity": 110,
      "chip": "ym2612"
    },
    {
      "channel": 0,
      "note": 73,
      "start": 23.1265,
      "duration": 0.1332,
      "velocity": 86,
      "chip": "ym2612"
    },
    {
      "channel": 3,
      "note": 62,
      "start": 23.1269,
      "duration": 0.0495,
      "velocity": 110,
      "chip": "ym2612"
    },
    {
      "channel": 3,
      "note": 63,
      "start": 23.1766,
      "duration": 0.0835,
      "velocity": 110,
      "chip": "ym2612"
    },
    {
      "channel": 2,
      "note": 85,
      "start": 23.26,
      "duration": 0.1166,
      "velocity": 100,
      "chip": "ym2612"
    },
    {
      "channel": 3,
      "note": 62,
      "start": 23.2604,
      "duration": 0.0327,
      "velocity": 110,
      "chip": "ym2612"
    },
    {
      "channel": 3,
      "note": 63,
      "start": 23.2933,
      "duration": 0.0835,
      "velocity": 110,
      "chip": "ym2612"
    },
    {
      "channel": 0,
      "note": 72,
      "start": 23.3765,
      "duration": 0.1332,
      "velocity": 86,
      "chip": "ym2612"
    },
    {
      "channel": 3,
      "note": 62,
      "start": 23.377,
      "duration": 0.0496,
      "velocity": 110,
      "chip": "ym2612"
    },
    {
      "channel": 2,
      "note": 84,
      "start": 23.4265,
      "duration": 0.1165,
      "velocity": 100,
      "chip": "ym2612"
    },
    {
      "channel": 3,
      "note": 63,
      "start": 23.4268,
      "duration": 0.083,
      "velocity": 110,
      "chip": "ym2612"
    },
    {
      "channel": 3,
      "note": 62,
      "start": 23.5101,
      "duration": 0.0331,
      "velocity": 110,
      "chip": "ym2612"
    },
    {
      "channel": 4,
      "note": 97,
      "start": 23.5104,
      "duration": 0.0832,
      "velocity": 109,
      "chip": "ym2612"
    },
    {
      "channel": 3,
      "note": 63,
      "start": 23.5434,
      "duration": 0.0835,
      "velocity": 110,
      "chip": "ym2612"
    },
    {
      "channel": 5,
      "note": 97,
      "start": 23.5602,
      "duration": 0.0831,
      "velocity": 99,
      "chip": "ym2612"
    },
    {
      "channel": 2,
      "note": 83,
      "start": 23.5932,
      "duration": 0.1165,
      "velocity": 100,
      "chip": "ym2612"
    },
    {
      "channel": 0,
      "note": 64,
      "start": 23.6265,
      "duration": 0.1332,
      "velocity": 86,
      "chip": "ym2612"
    },
    {
      "channel": 1,
      "note": 66,
      "start": 23.6267,
      "duration": 0.1331,
      "velocity": 86,
      "chip": "ym2612"
    },
    {
      "channel": 3,
      "note": 62,
      "start": 23.6272,
      "duration": 0.0492,
      "velocity": 110,
      "chip": "ym2612"
    },
    {
      "channel": 4,
      "note": 101,
      "start": 23.6274,
      "duration": 0.0826,
      "velocity": 109,
      "chip": "ym2612"
    },
    {
      "channel": 3,
      "note": 63,
      "start": 23.6766,
      "duration": 0.0837,
      "velocity": 110,
      "chip": "ym2612"
    },
    {
      "channel": 5,
      "note": 101,
      "start": 23.6935,
      "duration": 0.0831,
      "velocity": 99,
      "chip": "ym2612"
    },
    {
      "channel": 2,
      "note": 82,
      "start": 23.7601,
      "duration": 0.0829,
      "velocity": 100,
      "chip": "ym2612"
    },
    {
      "channel": 3,
      "note": 62,
      "start": 23.7605,
      "duration": 0.0326,
      "velocity": 110,
      "chip": "ym2612"
    },
    {
      "channel": 4,
      "note": 97,
      "start": 23.7608,
      "duration": 0.0826,
      "velocity": 109,
      "chip": "ym2612"
    },
    {
      "channel": 3,
      "note": 63,
      "start": 23.7933,
      "duration": 0.0834,
      "velocity": 110,
      "chip": "ym2612"
    },
    {
      "channel": 5,
      "note": 97,
      "start": 23.8102,
      "duration": 0.0831,
      "velocity": 99,
      "chip": "ym2612"
    },
    {
      "channel": 0,
      "note": 73,
      "start": 23.8765,
      "duration": 0.1332,
      "velocity": 86,
      "chip": "ym2612"
    },
    {
      "channel": 3,
      "note": 62,
      "start": 23.8769,
      "duration": 0.0495,
      "velocity": 110,
      "chip": "ym2612"
    },
    {
      "channel": 4,
      "note": 105,
      "start": 23.8772,
      "duration": 0.0828,
      "velocity": 109,
      "chip": "ym2612"
    },
    {
      "channel": 3,
      "note": 63,
      "start": 23.9266,
      "duration": 0.0833,
      "velocity": 110,
      "chip": "ym2612"
    },
    {
      "channel": 5,
      "note": 105,
      "start": 23.9435,
      "duration": 0.0831,
      "velocity": 99,
      "chip": "ym2612"
    },
    {
      "channel": 3,
      "note": 62,
      "start": 24.0101,
      "duration": 0.0329,
      "velocity": 110,
      "chip": "ym2612"
    },
    {
      "channel": 4,
      "note": 101,
      "start": 24.0104,
      "duration": 0.0829,
      "velocity": 109,
      "chip": "ym2612"
    },
    {
      "channel": 3,
      "note": 63,
      "start": 24.0433,
      "duration": 0.0837,
      "velocity": 110,
      "chip": "ym2612"
    },
    {
      "channel": 5,
      "note": 101,
      "start": 24.0602,
      "duration": 0.0831,
      "velocity": 99,
      "chip": "ym2612"
    },
    {
      "channel": 0,
      "note": 61,
      "start": 24.1265,
      "duration": 0.1332,
      "velocity": 86,
      "chip": "ym2612"
    },
    {
      "channel": 1,
      "note": 62,
      "start": 24.1267,
      "duration": 0.1333,
      "velocity": 86,
      "chip": "ym2612"
    },
    {
      "channel": 3,
      "note": 62,
      "start": 24.1272,
      "duration": 0.0492,
      "velocity": 110,
      "chip": "ym2612"
    },
    {
      "channel": 4,
      "note": 97,
      "start": 24.1274,
      "duration": 0.0825,
      "velocity": 109,
      "chip": "ym2612"
    },
    {
      "channel": 3,
      "note": 63,
      "start": 24.1766,
      "duration": 0.084,
      "velocity": 110,
      "chip": "ym2612"
    },
    {
      "channel": 5,
      "note": 97,
      "start": 24.1935,
      "duration": 0.0831,
      "velocity": 99,
      "chip": "ym2612"
    },
    {
      "channel": 0,
      "note": 50,
      "start": 24.2598,
      "duration": 2.9998,
      "velocity": 86,
      "chip": "ym2612"
    },
    {
      "channel": 1,
      "note": 49,
      "start": 24.2601,
      "duration": 2.9998,
      "velocity": 86,
      "chip": "ym2612"
    },
    {
      "channel": 2,
      "note": 80,
      "start": 24.2605,
      "duration": 0.0825,
      "velocity": 100,
      "chip": "ym2612"
    },
    {
      "channel": 3,
      "note": 62,
      "start": 24.2608,
      "duration": 0.0322,
      "velocity": 110,
      "chip": "ym2612"
    },
    {
      "channel": 4,
      "note": 96,
      "start": 24.2611,
      "duration": 0.0822,
      "velocity": 109,
      "chip": "ym2612"
    },
    {
      "channel": 3,
      "note": 63,
      "start": 24.2933,
      "duration": 0.0834,
      "velocity": 110,
      "chip": "ym2612"
    },
    {
      "channel": 5,
      "note": 96,
      "start": 24.3102,
      "duration": 0.0831,
      "velocity": 99,
      "chip": "ym2612"
    },
    {
      "channel": 2,
      "note": 73,
      "start": 24.3765,
      "duration": 0.0832,
      "velocity": 100,
      "chip": "ym2612"
    },
    {
      "channel": 3,
      "note": 62,
      "start": 24.3769,
      "duration": 0.0495,
      "velocity": 110,
      "chip": "ym2612"
    },
    {
      "channel": 4,
      "note": 93,
      "start": 24.3772,
      "duration": 0.0829,
      "velocity": 109,
      "chip": "ym2612"
    },
    {
      "channel": 3,
      "note": 63,
      "start": 24.4266,
      "duration": 0.0834,
      "velocity": 110,
      "chip": "ym2612"
    },
    {
      "channel": 5,
      "note": 93,
      "start": 24.4435,
      "duration": 0.0831,
      "velocity": 99,
      "chip": "ym2612"
    },
    {
      "channel": 2,
      "note": 79,
      "start": 24.5099,
      "duration": 0.0832,
      "velocity": 100,
      "chip": "ym2612"
    },
    {
      "channel": 3,
      "note": 62,
      "start": 24.5102,
      "duration": 0.0328,
      "velocity": 110,
      "chip": "ym2612"
    },
    {
      "channel": 4,
      "note": 100,
      "start": 24.5105,
      "duration": 0.0829,
      "velocity": 109,
      "chip": "ym2612"
    },
    {
      "channel": 3,
      "note": 63,
      "start": 24.5433,
      "duration": 0.0834,
      "velocity": 110,
      "chip": "ym2612"
    },
    {
      "channel": 5,
      "note": 100,
      "start": 24.5602,
      "duration": 0.0831,
      "velocity": 99,
      "chip": "ym2612"
    },
    {
      "channel": 2,
      "note": 75,
      "start": 24.6265,
      "duration": 0.0832,
      "velocity": 100,
      "chip": "ym2612"
    },
    {
      "channel": 3,
      "note": 62,
      "start": 24.6269,
      "duration": 0.0495,
      "velocity": 110,
      "chip": "ym2612"
    },
    {
      "channel": 3,
      "note": 63,
      "start": 24.6766,
      "duration": 0.0834,
      "velocity": 110,
      "chip": "ym2612"
    },
    {
      "channel": 2,
      "note": 78,
      "start": 24.7599,
      "duration": 0.0832,
      "velocity": 100,
      "chip": "ym2612"
    },
    {
      "channel": 3,
      "note": 62,
      "start": 24.7602,
      "duration": 0.0328,
      "velocity": 110,
      "chip": "ym2612"
    },
    {
      "channel": 3,
      "note": 63,
      "start": 24.7933,
      "duration": 0.0834,
      "velocity": 110,
      "chip": "ym2612"
    },
    {
      "channel": 2,
      "note": 74,
      "start": 24.8765,
      "duration": 0.0832,
      "velocity": 100,
      "chip": "ym2612"
    },
    {
      "channel": 3,
      "note": 62,
      "start": 24.8769,
      "duration": 0.0495,
      "velocity": 110,
      "chip": "ym2612"
    },
    {
      "channel": 3,
      "note": 63,
      "start": 24.9266,
      "duration": 0.0831,
      "velocity": 110,
      "chip": "ym2612"
    },
    {
      "channel": 3,
      "note": 62,
      "start": 25.01,
      "duration": 0.0331,
      "velocity": 110,
      "chip": "ym2612"
    },
    {
      "channel": 3,
      "note": 63,
      "start": 25.0433,
      "duration": 0.0831,
      "velocity": 110,
      "chip": "ym2612"
    },
    {
      "channel": 3,
      "note": 62,
      "start": 25.1267,
      "duration": 0.0497,
      "velocity": 110,
      "chip": "ym2612"
    },
    {
      "channel": 3,
      "note": 63,
      "start": 25.1766,
      "duration": 0.0831,
      "velocity": 110,
      "chip": "ym2612"
    },
    {
      "channel": 3,
      "note": 62,
      "start": 25.26,
      "duration": 0.0331,
      "velocity": 110,
      "chip": "ym2612"
    },
    {
      "channel": 3,
      "note": 63,
      "start": 25.2933,
      "duration": 0.0831,
      "velocity": 110,
      "chip": "ym2612"
    },
    {
      "channel": 3,
      "note": 62,
      "start": 25.3767,
      "duration": 0.0497,
      "velocity": 110,
      "chip": "ym2612"
    },
    {
      "channel": 3,
      "note": 63,
      "start": 25.4266,
      "duration": 0.0831,
      "velocity": 110,
      "chip": "ym2612"
    },
    {
      "channel": 3,
      "note": 62,
      "start": 25.51,
      "duration": 0.0331,
      "velocity": 110,
      "chip": "ym2612"
    },
    {
      "channel": 4,
      "note": 72,
      "start": 25.5102,
      "duration": 0.083,
      "velocity": 109,
      "chip": "ym2612"
    },
    {
      "channel": 3,
      "note": 63,
      "start": 25.5433,
      "duration": 0.0831,
      "velocity": 110,
      "chip": "ym2612"
    },
    {
      "channel": 5,
      "note": 72,
      "start": 25.5602,
      "duration": 0.0831,
      "velocity": 99,
      "chip": "ym2612"
    },
    {
      "channel": 3,
      "note": 62,
      "start": 25.6267,
      "duration": 0.0497,
      "velocity": 110,
      "chip": "ym2612"
    },
    {
      "channel": 4,
      "note": 73,
      "start": 25.6269,
      "duration": 0.083,
      "velocity": 109,
      "chip": "ym2612"
    },
    {
      "channel": 3,
      "note": 63,
      "start": 25.6766,
      "duration": 0.0831,
      "velocity": 110,
      "chip": "ym2612"
    },
    {
      "channel": 5,
      "note": 73,
      "start": 25.6935,
      "duration": 0.0831,
      "velocity": 99,
      "chip": "ym2612"
    },
    {
      "channel": 3,
      "note": 62,
      "start": 25.76,
      "duration": 0.0331,
      "velocity": 110,
      "chip": "ym2612"
    },
    {
      "channel": 4,
      "note": 93,
      "start": 25.7602,
      "duration": 0.083,
      "velocity": 109,
      "chip": "ym2612"
    },
    {
      "channel": 3,
      "note": 63,
      "start": 25.7933,
      "duration": 0.0831,
      "velocity": 110,
      "chip": "ym2612"
    },
    {
      "channel": 5,
      "note": 93,
      "start": 25.8102,
      "duration": 0.0831,
      "velocity": 99,
      "chip": "ym2612"
    },
    {
      "channel": 3,
      "note": 62,
      "start": 25.8767,
      "duration": 0.0497,
      "velocity": 110,
      "chip": "ym2612"
    },
    {
      "channel": 4,
      "note": 87,
      "start": 25.8769,
      "duration": 0.083,
      "velocity": 109,
      "chip": "ym2612"
    },
    {
      "channel": 3,
      "note": 63,
      "start": 25.9266,
      "duration": 0.0831,
      "velocity": 110,
      "chip": "ym2612"
    },
    {
      "channel": 5,
      "note": 87,
      "start": 25.9435,
      "duration": 0.0831,
      "velocity": 99,
      "chip": "ym2612"
    },
    {
      "channel": 3,
      "note": 62,
      "start": 26.01,
      "duration": 0.0331,
      "velocity": 110,
      "chip": "ym2612"
    },
    {
      "channel": 4,
      "note": 85,
      "start": 26.0102,
      "duration": 0.083,
      "velocity": 109,
      "chip": "ym2612"
    },
    {
      "channel": 3,
      "note": 63,
      "start": 26.0433,
      "duration": 0.0831,
      "velocity": 110,
      "chip": "ym2612"
    },
    {
      "channel": 5,
      "note": 85,
      "start": 26.0602,
      "duration": 0.0831,
      "velocity": 99,
      "chip": "ym2612"
    },
    {
      "channel": 3,
      "note": 62,
      "start": 26.1267,
      "duration": 0.0497,
      "velocity": 110,
      "chip": "ym2612"
    },
    {
      "channel": 3,
      "note": 63,
      "start": 26.1766,
      "duration": 0.0835,
      "velocity": 110,
      "chip": "ym2612"
    },
    {
      "channel": 2,
      "note": 80,
      "start": 26.26,
      "duration": 0.083,
      "velocity": 100,
      "chip": "ym2612"
    },
    {
      "channel": 3,
      "note": 62,
      "start": 26.2603,
      "duration": 0.0327,
      "velocity": 110,
      "chip": "ym2612"
    },
    {
      "channel": 4,
      "note": 69,
      "start": 26.2606,
      "duration": 0.0827,
      "velocity": 109,
      "chip": "ym2612"
    },
    {
      "channel": 3,
      "note": 63,
      "start": 26.2933,
      "duration": 0.0834,
      "velocity": 110,
      "chip": "ym2612"
    },
    {
      "channel": 5,
      "note": 69,
      "start": 26.3102,
      "duration": 0.0831,
      "velocity": 99,
      "chip": "ym2612"
    },
    {
      "channel": 2,
      "note": 73,
      "start": 26.3765,
      "duration": 0.0832,
      "velocity": 100,
      "chip": "ym2612"
    },
    {
      "channel": 3,
      "note": 62,
      "start": 26.3769,
      "duration": 0.0495,
      "velocity": 110,
      "chip": "ym2612"
    },
    {
      "channel": 3,
      "note": 63,
      "start": 26.4266,
      "duration": 0.0834,
      "velocity": 110,
      "chip": "ym2612"
    },
    {
      "channel": 2,
      "note": 79,
      "start": 26.5099,
      "duration": 0.0832,
      "velocity": 100,
      "chip": "ym2612"
    },
    {
      "channel": 3,
      "note": 62,
      "start": 26.5102,
      "duration": 0.0328,
      "velocity": 110,
      "chip": "ym2612"
    },
    {
      "channel": 4,
      "note": 78,
      "start": 26.5105,
      "duration": 0.0829,
      "velocity": 109,
      "chip": "ym2612"
    },
    {
      "channel": 3,
      "note": 63,
      "start": 26.5433,
      "duration": 0.0834,
      "velocity": 110,
      "chip": "ym2612"
    },
    {
      "channel": 5,
      "note": 78,
      "start": 26.5602,
      "duration": 0.0831,
      "velocity": 99,
      "chip": "ym2612"
    },
    {
      "channel": 2,
      "note": 75,
      "start": 26.6265,
      "duration": 0.0832,
      "velocity": 100,
      "chip": "ym2612"
    },
    {
      "channel": 3,
      "note": 62,
      "start": 26.6269,
      "duration": 0.0495,
      "velocity": 110,
      "chip": "ym2612"
    },
    {
      "channel": 3,
      "note": 63,
      "start": 26.6766,
      "duration": 0.0834,
      "velocity": 110,
      "chip": "ym2612"
    },
    {
      "channel": 2,
      "note": 78,
      "start": 26.7599,
      "duration": 0.0832,
      "velocity": 100,
      "chip": "ym2612"
    },
    {
      "channel": 3,
      "note": 62,
      "start": 26.7602,
      "duration": 0.0328,
      "velocity": 110,
      "chip": "ym2612"
    },
    {
      "channel": 4,
      "note": 77,
      "start": 26.7605,
      "duration": 0.0829,
      "velocity": 109,
      "chip": "ym2612"
    },
    {
      "channel": 3,
      "note": 63,
      "start": 26.7933,
      "duration": 0.0834,
      "velocity": 110,
      "chip": "ym2612"
    },
    {
      "channel": 5,
      "note": 77,
      "start": 26.8102,
      "duration": 0.0831,
      "velocity": 99,
      "chip": "ym2612"
    },
    {
      "channel": 2,
      "note": 74,
      "start": 26.8765,
      "duration": 0.0832,
      "velocity": 100,
      "chip": "ym2612"
    },
    {
      "channel": 3,
      "note": 62,
      "start": 26.8769,
      "duration": 0.0495,
      "velocity": 110,
      "chip": "ym2612"
    },
    {
      "channel": 3,
      "note": 63,
      "start": 26.9266,
      "duration": 0.0831,
      "velocity": 110,
      "chip": "ym2612"
    },
    {
      "channel": 3,
      "note": 62,
      "start": 27.01,
      "duration": 0.0331,
      "velocity": 110,
      "chip": "ym2612"
    },
    {
      "channel": 3,
      "note": 63,
      "start": 27.0433,
      "duration": 0.0831,
      "velocity": 110,
      "chip": "ym2612"
    },
    {
      "channel": 3,
      "note": 62,
      "start": 27.1267,
      "duration": 0.0497,
      "velocity": 110,
      "chip": "ym2612"
    },
    {
      "channel": 4,
      "note": 59,
      "start": 27.1269,
      "duration": 0.1354,
      "velocity": 100,
      "chip": "ym2612"
    },
    {
      "channel": 3,
      "note": 63,
      "start": 27.1766,
      "duration": 0.084,
      "velocity": 110,
      "chip": "ym2612"
    },
    {
      "channel": 5,
      "note": 59,
      "start": 27.1935,
      "duration": 0.1178,
      "velocity": 100,
      "chip": "ym2612"
    },
    {
      "channel": 0,
      "note": 56,
      "start": 27.2598,
      "duration": 0.1165,
      "velocity": 86,
      "chip": "ym2612"
    },
    {
      "channel": 1,
      "note": 57,
      "start": 27.2601,
      "duration": 0.1163,
      "velocity": 86,
      "chip": "ym2612"
    },
    {
      "channel": 2,
      "note": 85,
      "start": 27.2604,
      "duration": 0.0826,
      "velocity": 100,
      "chip": "ym2612"
    },
    {
      "channel": 3,
      "note": 62,
      "start": 27.2608,
      "duration": 0.0322,
      "velocity": 110,
      "chip": "ym2612"
    },
    {
      "channel": 4,
      "note": 80,
      "start": 27.2625,
      "duration": 0.0809,
      "velocity": 100,
      "chip": "ym2612"
    },
    {
      "channel": 3,
      "note": 63,
      "start": 27.2933,
      "duration": 0.0834,
      "velocity": 110,
      "chip": "ym2612"
    },
    {
      "channel": 5,
      "note": 80,
      "start": 27.3116,
      "duration": 0.0817,
      "velocity": 100,
      "chip": "ym2612"
    },
    {
      "channel": 3,
      "note": 62,
      "start": 27.3769,
      "duration": 0.0495,
      "velocity": 110,
      "chip": "ym2612"
    },
    {
      "channel": 3,
      "note": 63,
      "start": 27.4266,
      "duration": 0.0831,
      "velocity": 110,
      "chip": "ym2612"
    },
    {
      "channel": 3,
      "note": 62,
      "start": 27.51,
      "duration": 0.0331,
      "velocity": 110,
      "chip": "ym2612"
    },
    {
      "channel": 3,
      "note": 63,
      "start": 27.5433,
      "duration": 0.0839,
      "velocity": 110,
      "chip": "ym2612"
    },
    {
      "channel": 0,
      "note": 56,
      "start": 27.6265,
      "duration": 0.1332,
      "velocity": 86,
      "chip": "ym2612"
    },
    {
      "channel": 1,
      "note": 57,
      "start": 27.6268,
      "duration": 0.133,
      "velocity": 86,
      "chip": "ym2612"
    },
    {
      "channel": 2,
      "note": 80,
      "start": 27.627,
      "duration": 0.0827,
      "velocity": 100,
      "chip": "ym2612"
    },
    {
      "channel": 3,
      "note": 62,
      "start": 27.6274,
      "duration": 0.049,
      "velocity": 110,
      "chip": "ym2612"
    },
    {
      "channel": 4,
      "note": 85,
      "start": 27.6277,
      "duration": 0.0824,
      "velocity": 100,
      "chip": "ym2612"
    },
    {
      "channel": 3,
      "note": 63,
      "start": 27.6766,
      "duration": 0.0834,
      "velocity": 110,
      "chip": "ym2612"
    },
    {
      "channel": 5,
      "note": 85,
      "start": 27.6935,
      "duration": 0.0831,
      "velocity": 100,
      "chip": "ym2612"
    },
    {
      "channel": 3,
      "note": 62,
      "start": 27.7602,
      "duration": 0.0328,
      "velocity": 110,
      "chip": "ym2612"
    },
    {
      "channel": 3,
      "note": 63,
      "start": 27.7933,
      "duration": 0.0834,
      "velocity": 110,
      "chip": "ym2612"
    },
    {
      "channel": 0,
      "note": 53,
      "start": 27.8765,
      "duration": 0.1332,
      "velocity": 86,
      "chip": "ym2612"
    },
    {
      "channel": 3,
      "note": 62,
      "start": 27.8769,
      "duration": 0.0495,
      "velocity": 110,
      "chip": "ym2612"
    },
    {
      "channel": 3,
      "note": 63,
      "start": 27.9266,
      "duration": 0.0833,
      "velocity": 110,
      "chip": "ym2612"
    },
    {
      "channel": 3,
      "note": 62,
      "start": 28.0101,
      "duration": 0.0329,
      "velocity": 110,
      "chip": "ym2612"
    },
    {
      "channel": 3,
      "note": 63,
      "start": 28.0433,
      "duration": 0.0834,
      "velocity": 110,
      "chip": "ym2612"
    },
    {
      "channel": 0,
      "note": 54,
      "start": 28.1265,
      "duration": 0.1332,
      "velocity": 86,
      "chip": "ym2612"
    },
    {
      "channel": 3,
      "note": 62,
      "start": 28.1269,
      "duration": 0.0495,
      "velocity": 110,
      "chip": "ym2612"
    },
    {
      "channel": 3,
      "note": 63,
      "start": 28.1766,
      "duration": 0.0837,
      "velocity": 110,
      "chip": "ym2612"
    },
    {
      "channel": 2,
      "note": 80,
      "start": 28.2602,
      "duration": 0.0828,
      "velocity": 100,
      "chip": "ym2612"
    },
    {
      "channel": 3,
      "note": 62,
      "start": 28.2606,
      "duration": 0.0325,
      "velocity": 110,
      "chip": "ym2612"
    },
    {
      "channel": 3,
      "note": 63,
      "start": 28.2933,
      "duration": 0.0834,
      "velocity": 110,
      "chip": "ym2612"
    },
    {
      "channel": 2,
      "note": 73,
      "start": 28.3765,
      "duration": 0.0832,
      "velocity": 100,
      "chip": "ym2612"
    },
    {
      "channel": 3,
      "note": 62,
      "start": 28.3769,
      "duration": 0.0495,
      "velocity": 110,
      "chip": "ym2612"
    },
    {
      "channel": 3,
      "note": 63,
      "start": 28.4266,
      "duration": 0.0834,
      "velocity": 110,
      "chip": "ym2612"
    },
    {
      "channel": 2,
      "note": 79,
      "start": 28.5099,
      "duration": 0.0832,
      "velocity": 100,
      "chip": "ym2612"
    },
    {
      "channel": 3,
      "note": 62,
      "start": 28.5102,
      "duration": 0.0328,
      "velocity": 110,
      "chip": "ym2612"
    },
    {
      "channel": 3,
      "note": 63,
      "start": 28.5433,
      "duration": 0.0837,
      "velocity": 110,
      "chip": "ym2612"
    },
    {
      "channel": 0,
      "note": 59,
      "start": 28.6265,
      "duration": 0.1332,
      "velocity": 86,
      "chip": "ym2612"
    },
    {
      "channel": 2,
      "note": 75,
      "start": 28.6268,
      "duration": 0.0829,
      "velocity": 100,
      "chip": "ym2612"
    },
    {
      "channel": 3,
      "note": 62,
      "start": 28.6272,
      "duration": 0.0492,
      "velocity": 110,
      "chip": "ym2612"
    },
    {
      "channel": 4,
      "note": 92,
      "start": 28.6274,
      "duration": 0.0826,
      "velocity": 109,
      "chip": "ym2612"
    },
    {
      "channel": 3,
      "note": 63,
      "start": 28.6766,
      "duration": 0.0837,
      "velocity": 110,
      "chip": "ym2612"
    },
    {
      "channel": 5,
      "note": 92,
      "start": 28.6935,
      "duration": 0.0831,
      "velocity": 99,
      "chip": "ym2612"
    },
    {
      "channel": 0,
      "note": 60,
      "start": 28.7598,
      "duration": 0.0832,
      "velocity": 86,
      "chip": "ym2612"
    },
    {
      "channel": 2,
      "note": 78,
      "start": 28.7601,
      "duration": 0.083,
      "velocity": 100,
      "chip": "ym2612"
    },
    {
      "channel": 3,
      "note": 62,
      "start": 28.7605,
      "duration": 0.0326,
      "velocity": 110,
      "chip": "ym2612"
    },
    {
      "channel": 4,
      "note": 84,
      "start": 28.7607,
      "duration": 0.0828,
      "velocity": 109,
      "chip": "ym2612"
    },
    {
      "channel": 3,
      "note": 63,
      "start": 28.7933,
      "duration": 0.0837,
      "velocity": 110,
      "chip": "ym2612"
    },
    {
      "channel": 5,
      "note": 84,
      "start": 28.8102,
      "duration": 0.0831,
      "velocity": 99,
      "chip": "ym2612"
    },
    {
      "channel": 0,
      "note": 61,
      "start": 28.8765,
      "duration": 0.2498,
      "velocity": 86,
      "chip": "ym2612"
    },
    {
      "channel": 2,
      "note": 74,
      "start": 28.8768,
      "duration": 0.0829,
      "velocity": 100,
      "chip": "ym2612"
    },
    {
      "channel": 3,
      "note": 62,
      "start": 28.8772,
      "duration": 0.0492,
      "velocity": 110,
      "chip": "ym2612"
    },
    {
      "channel": 4,
      "note": 67,
      "start": 28.8774,
      "duration": 0.0826,
      "velocity": 109,
      "chip": "ym2612"
    },
    {
      "channel": 3,
      "note": 63,
      "start": 28.9266,
      "duration": 0.0831,
      "velocity": 110,
      "chip": "ym2612"
    },
    {
      "channel": 5,
      "note": 67,
      "start": 28.9435,
      "duration": 0.0831,
      "velocity": 99,
      "chip": "ym2612"
    },
    {
      "channel": 3,
      "note": 62,
      "start": 29.01,
      "duration": 0.0331,
      "velocity": 110,
      "chip": "ym2612"
    },
    {
      "channel": 4,
      "note": 68,
      "start": 29.0102,
      "duration": 0.083,
      "velocity": 109,
      "chip": "ym2612"
    },
    {
      "channel": 3,
      "note": 63,
      "start": 29.0433,
      "duration": 0.0837,
      "velocity": 110,
      "chip": "ym2612"
    },
    {
      "channel": 5,
      "note": 68,
      "start": 29.0602,
      "duration": 0.0831,
      "velocity": 99,
      "chip": "ym2612"
    },
    {
      "channel": 0,
      "note": 49,
      "start": 29.1265,
      "duration": 1.6332,
      "velocity": 86,
      "chip": "ym2612"
    },
    {
      "channel": 1,
      "note": 50,
      "start": 29.1268,
      "duration": 1.6332,
      "velocity": 86,
      "chip": "ym2612"
    },
    {
      "channel": 3,
      "note": 62,
      "start": 29.1272,
      "duration": 0.0492,
      "velocity": 110,
      "chip": "ym2612"
    },
    {
      "channel": 4,
      "note": 78,
      "start": 29.1274,
      "duration": 0.0825,
      "velocity": 109,
      "chip": "ym2612"
    },
    {
      "channel": 3,
      "note": 63,
      "start": 29.1766,
      "duration": 0.0831,
      "velocity": 110,
      "chip": "ym2612"
    },
    {
      "channel": 5,
      "note": 78,
      "start": 29.1935,
      "duration": 0.0831,
      "velocity": 99,
      "chip": "ym2612"
    },
    {
      "channel": 3,
      "note": 58,
      "start": 29.26,
      "duration": 0.0331,
      "velocity": 110,
      "chip": "ym2612"
    },
    {
      "channel": 4,
      "note": 79,
      "start": 29.2602,
      "duration": 0.083,
      "velocity": 109,
      "chip": "ym2612"
    },
    {
      "channel": 3,
      "note": 59,
      "start": 29.2933,
      "duration": 0.0831,
      "velocity": 110,
      "chip": "ym2612"
    },
    {
      "channel": 5,
      "note": 79,
      "start": 29.3102,
      "duration": 0.0831,
      "velocity": 99,
      "chip": "ym2612"
    },
    {
      "channel": 3,
      "note": 58,
      "start": 29.3767,
      "duration": 0.0497,
      "velocity": 110,
      "chip": "ym2612"
    },
    {
      "channel": 3,
      "note": 59,
      "start": 29.4266,
      "duration": 0.0831,
      "velocity": 110,
      "chip": "ym2612"
    },
    {
      "channel": 3,
      "note": 58,
      "start": 29.51,
      "duration": 0.0331,
      "velocity": 110,
      "chip": "ym2612"
    },
    {
      "channel": 3,
      "note": 59,
      "start": 29.5433,
      "duration": 0.0831,
      "velocity": 110,
      "chip": "ym2612"
    },
    {
      "channel": 3,
      "note": 58,
      "start": 29.6267,
      "duration": 0.0497,
      "velocity": 110,
      "chip": "ym2612"
    },
    {
      "channel": 3,
      "note": 59,
      "start": 29.6766,
      "duration": 0.0831,
      "velocity": 110,
      "chip": "ym2612"
    },
    {
      "channel": 3,
      "note": 58,
      "start": 29.76,
      "duration": 0.0331,
      "velocity": 110,
      "chip": "ym2612"
    },
    {
      "channel": 3,
      "note": 59,
      "start": 29.7933,
      "duration": 0.0831,
      "velocity": 110,
      "chip": "ym2612"
    },
    {
      "channel": 3,
      "note": 58,
      "start": 29.8767,
      "duration": 0.0497,
      "velocity": 110,
      "chip": "ym2612"
    },
    {
      "channel": 3,
      "note": 59,
      "start": 29.9266,
      "duration": 0.0831,
      "velocity": 110,
      "chip": "ym2612"
    },
    {
      "channel": 3,
      "note": 58,
      "start": 30.01,
      "duration": 0.0331,
      "velocity": 110,
      "chip": "ym2612"
    },
    {
      "channel": 4,
      "note": 70,
      "start": 30.0102,
      "duration": 0.083,
      "velocity": 109,
      "chip": "ym2612"
    },
    {
      "channel": 3,
      "note": 59,
      "start": 30.0433,
      "duration": 0.0831,
      "velocity": 110,
      "chip": "ym2612"
    },
    {
      "channel": 5,
      "note": 70,
      "start": 30.0602,
      "duration": 0.0831,
      "velocity": 99,
      "chip": "ym2612"
    },
    {
      "channel": 3,
      "note": 58,
      "start": 30.1267,
      "duration": 0.0497,
      "velocity": 110,
      "chip": "ym2612"
    },
    {
      "channel": 4,
      "note": 73,
      "start": 30.1269,
      "duration": 0.083,
      "velocity": 109,
      "chip": "ym2612"
    },
    {
      "channel": 3,
      "note": 59,
      "start": 30.1766,
      "duration": 0.0835,
      "velocity": 110,
      "chip": "ym2612"
    },
    {
      "channel": 5,
      "note": 73,
      "start": 30.1935,
      "duration": 0.0831,
      "velocity": 99,
      "chip": "ym2612"
    },
    {
      "channel": 2,
      "note": 80,
      "start": 30.26,
      "duration": 0.083,
      "velocity": 100,
      "chip": "ym2612"
    },
    {
      "channel": 3,
      "note": 58,
      "start": 30.2603,
      "duration": 0.0327,
      "velocity": 110,
      "chip": "ym2612"
    },
    {
      "channel": 4,
      "note": 95,
      "start": 30.2606,
      "duration": 0.0827,
      "velocity": 109,
      "chip": "ym2612"
    },
    {
      "channel": 3,
      "note": 59,
      "start": 30.2933,
      "duration": 0.0834,
      "velocity": 110,
      "chip": "ym2612"
    },
    {
      "channel": 5,
      "note": 95,
      "start": 30.3102,
      "duration": 0.0831,
      "velocity": 99,
      "chip": "ym2612"
    },
    {
      "channel": 2,
      "note": 73,
      "start": 30.3765,
      "duration": 0.0832,
      "velocity": 100,
      "chip": "ym2612"
    },
    {
      "channel": 3,
      "note": 58,
      "start": 30.3769,
      "duration": 0.0495,
      "velocity": 110,
      "chip": "ym2612"
    },
    {
      "channel": 4,
      "note": 85,
      "start": 30.3772,
      "duration": 0.0829,
      "velocity": 109,
      "chip": "ym2612"
    },
    {
      "channel": 3,
      "note": 59,
      "start": 30.4266,
      "duration": 0.0834,
      "velocity": 110,
      "chip": "ym2612"
    },
    {
      "channel": 5,
      "note": 85,
      "start": 30.4435,
      "duration": 0.0831,
      "velocity": 99,
      "chip": "ym2612"
    },
    {
      "channel": 2,
      "note": 79,
      "start": 30.5099,
      "duration": 0.0832,
      "velocity": 100,
      "chip": "ym2612"
    },
    {
      "channel": 3,
      "note": 58,
      "start": 30.5102,
      "duration": 0.0328,
      "velocity": 110,
      "chip": "ym2612"
    },
    {
      "channel": 4,
      "note": 89,
      "start": 30.5105,
      "duration": 0.0829,
      "velocity": 109,
      "chip": "ym2612"
    },
    {
      "channel": 3,
      "note": 59,
      "start": 30.5433,
      "duration": 0.0834,
      "velocity": 110,
      "chip": "ym2612"
    },
    {
      "channel": 5,
      "note": 89,
      "start": 30.5602,
      "duration": 0.0831,
      "velocity": 99,
      "chip": "ym2612"
    },
    {
      "channel": 2,
      "note": 75,
      "start": 30.6265,
      "duration": 0.0832,
      "velocity": 100,
      "chip": "ym2612"
    },
    {
      "channel": 3,
      "note": 58,
      "start": 30.6269,
      "duration": 0.0495,
      "velocity": 110,
      "chip": "ym2612"
    },
    {
      "channel": 4,
      "note": 72,
      "start": 30.6272,
      "duration": 0.0829,
      "velocity": 109,
      "chip": "ym2612"
    },
    {
      "channel": 3,
      "note": 59,
      "start": 30.6766,
      "duration": 0.0838,
      "velocity": 110,
      "chip": "ym2612"
    },
    {
      "channel": 5,
      "note": 72,
      "start": 30.6935,
      "duration": 0.0831,
      "velocity": 99,
      "chip": "ym2612"
    },
    {
      "channel": 0,
      "note": 67,
      "start": 30.7598,
      "duration": 0.1165,
      "velocity": 86,
      "chip": "ym2612"
    },
    {
      "channel": 2,
      "note": 78,
      "start": 30.7602,
      "duration": 0.0828,
      "velocity": 100,
      "chip": "ym2612"
    },
    {
      "channel": 3,
      "note": 58,
      "start": 30.7606,
      "duration": 0.0324,
      "velocity": 110,
      "chip": "ym2612"
    },
    {
      "channel": 4,
      "note": 74,
      "start": 30.7609,
      "duration": 0.0825,
      "velocity": 109,
      "chip": "ym2612"
    },
    {
      "channel": 3,
      "note": 59,
      "start": 30.7933,
      "duration": 0.0837,
      "velocity": 110,
      "chip": "ym2612"
    },
    {
      "channel": 5,
      "note": 74,
      "start": 30.8102,
      "duration": 0.0831,
      "velocity": 99,
      "chip": "ym2612"
    },
    {
      "channel": 0,
      "note": 66,
      "start": 30.8765,
      "duration": 0.1332,
      "velocity": 86,
      "chip": "ym2612"
    },
    {
      "channel": 2,
      "note": 74,
      "start": 30.8768,
      "duration": 0.0829,
      "velocity": 100,
      "chip": "ym2612"
    },
    {
      "channel": 3,
      "note": 58,
      "start": 30.8772,
      "duration": 0.0492,
      "velocity": 110,
      "chip": "ym2612"
    },
    {
      "channel": 4,
      "note": 80,
      "start": 30.8774,
      "duration": 0.0826,
      "velocity": 109,
      "chip": "ym2612"
    },
    {
      "channel": 3,
      "note": 59,
      "start": 30.9266,
      "duration": 0.0833,
      "velocity": 110,
      "chip": "ym2612"
    },
    {
      "channel": 5,
      "note": 80,
      "start": 30.9435,
      "duration": 0.0831,
      "velocity": 99,
      "chip": "ym2612"
    },
    {
      "channel": 3,
      "note": 58,
      "start": 31.0101,
      "duration": 0.0329,
      "velocity": 110,
      "chip": "ym2612"
    },
    {
      "channel": 4,
      "note": 83,
      "start": 31.0104,
      "duration": 0.0829,
      "velocity": 109,
      "chip": "ym2612"
    },
    {
      "channel": 3,
      "note": 59,
      "start": 31.0433,
      "duration": 0.0834,
      "velocity": 110,
      "chip": "ym2612"
    },
    {
      "channel": 5,
      "note": 83,
      "start": 31.0602,
      "duration": 0.0831,
      "velocity": 99,
      "chip": "ym2612"
    },
    {
      "channel": 0,
      "note": 73,
      "start": 31.1265,
      "duration": 0.1332,
      "velocity": 86,
      "chip": "ym2612"
    },
    {
      "channel": 3,
      "note": 58,
      "start": 31.1269,
      "duration": 0.0495,
      "velocity": 110,
      "chip": "ym2612"
    },
    {
      "channel": 3,
      "note": 59,
      "start": 31.1766,
      "duration": 0.0835,
      "velocity": 110,
      "chip": "ym2612"
    },
    {
      "channel": 2,
      "note": 85,
      "start": 31.26,
      "duration": 0.1166,
      "velocity": 100,
      "chip": "ym2612"
    },
    {
      "channel": 3,
      "note": 58,
      "start": 31.2604,
      "duration": 0.0327,
      "velocity": 110,
      "chip": "ym2612"
    },
    {
      "channel": 3,
      "note": 59,
      "start": 31.2933,
      "duration": 0.0835,
      "velocity": 110,
      "chip": "ym2612"
    },
    {
      "channel": 0,
      "note": 72,
      "start": 31.3765,
      "duration": 0.1332,
      "velocity": 86,
      "chip": "ym2612"
    },
    {
      "channel": 3,
      "note": 58,
      "start": 31.377,
      "duration": 0.0496,
      "velocity": 110,
      "chip": "ym2612"
    },
    {
      "channel": 2,
      "note": 84,
      "start": 31.4265,
      "duration": 0.1165,
      "velocity": 100,
      "chip": "ym2612"
    },
    {
      "channel": 3,
      "note": 59,
      "start": 31.4268,
      "duration": 0.083,
      "velocity": 110,
      "chip": "ym2612"
    },
    {
      "channel": 3,
      "note": 58,
      "start": 31.5101,
      "duration": 0.0331,
      "velocity": 110,
      "chip": "ym2612"
    },
    {
      "channel": 4,
      "note": 75,
      "start": 31.5104,
      "duration": 0.0832,
      "velocity": 109,
      "chip": "ym2612"
    },
    {
      "channel": 3,
      "note": 59,
      "start": 31.5434,
      "duration": 0.0835,
      "velocity": 110,
      "chip": "ym2612"
    },
    {
      "channel": 5,
      "note": 75,
      "start": 31.5602,
      "duration": 0.0831,
      "velocity": 99,
      "chip": "ym2612"
    },
    {
      "channel": 2,
      "note": 83,
      "start": 31.5932,
      "duration": 0.1165,
      "velocity": 100,
      "chip": "ym2612"
    },
    {
      "channel": 0,
      "note": 64,
      "start": 31.6265,
      "duration": 0.1332,
      "velocity": 86,
      "chip": "ym2612"
    },
    {
      "channel": 1,
      "note": 66,
      "start": 31.6267,
      "duration": 0.1331,
      "velocity": 86,
      "chip": "ym2612"
    },
    {
      "channel": 3,
      "note": 58,
      "start": 31.6272,
      "duration": 0.0492,
      "velocity": 110,
      "chip": "ym2612"
    },
    {
      "channel": 4,
      "note": 76,
      "start": 31.6274,
      "duration": 0.0826,
      "velocity": 109,
      "chip": "ym2612"
    },
    {
      "channel": 3,
      "note": 59,
      "start": 31.6766,
      "duration": 0.0837,
      "velocity": 110,
      "chip": "ym2612"
    },
    {
      "channel": 5,
      "note": 76,
      "start": 31.6935,
      "duration": 0.0831,
      "velocity": 99,
      "chip": "ym2612"
    },
    {
      "channel": 2,
      "note": 82,
      "start": 31.7601,
      "duration": 0.0829,
      "velocity": 100,
      "chip": "ym2612"
    },
    {
      "channel": 3,
      "note": 58,
      "start": 31.7605,
      "duration": 0.0326,
      "velocity": 110,
      "chip": "ym2612"
    },
    {
      "channel": 4,
      "note": 102,
      "start": 31.7607,
      "duration": 0.0826,
      "velocity": 109,
      "chip": "ym2612"
    },
    {
      "channel": 3,
      "note": 59,
      "start": 31.7933,
      "duration": 0.0834,
      "velocity": 110,
      "chip": "ym2612"
    },
    {
      "channel": 5,
      "note": 102,
      "start": 31.8102,
      "duration": 0.0831,
      "velocity": 99,
      "chip": "ym2612"
    },
    {
      "channel": 0,
      "note": 73,
      "start": 31.8765,
      "duration": 0.1332,
      "velocity": 86,
      "chip": "ym2612"
    },
    {
      "channel": 3,
      "note": 58,
      "start": 31.8769,
      "duration": 0.0495,
      "velocity": 110,
      "chip": "ym2612"
    },
    {
      "channel": 4,
      "note": 96,
      "start": 31.8772,
      "duration": 0.0828,
      "velocity": 109,
      "chip": "ym2612"
    },
    {
      "channel": 3,
      "note": 59,
      "start": 31.9266,
      "duration": 0.0833,
      "velocity": 110,
      "chip": "ym2612"
    },
    {
      "channel": 5,
      "note": 96,
      "start": 31.9435,
      "duration": 0.0831,
      "velocity": 99,
      "chip": "ym2612"
    },
    {
      "channel": 3,
      "note": 58,
      "start": 32.0101,
      "duration": 0.0329,
      "velocity": 110,
      "chip": "ym2612"
    },
    {
      "channel": 4,
      "note": 92,
      "start": 32.0104,
      "duration": 0.0829,
      "velocity": 109,
      "chip": "ym2612"
    },
    {
      "channel": 3,
      "note": 59,
      "start": 32.0433,
      "duration": 0.0837,
      "velocity": 110,
      "chip": "ym2612"
    },
    {
      "channel": 5,
      "note": 92,
      "start": 32.0602,
      "duration": 0.0831,
      "velocity": 99,
      "chip": "ym2612"
    },
    {
      "channel": 0,
      "note": 61,
      "start": 32.1265,
      "duration": 0.1332,
      "velocity": 86,
      "chip": "ym2612"
    },
    {
      "channel": 1,
      "note": 62,
      "start": 32.1267,
      "duration": 0.1333,
      "velocity": 86,
      "chip": "ym2612"
    },
    {
      "channel": 3,
      "note": 58,
      "start": 32.1272,
      "duration": 0.0492,
      "velocity": 110,
      "chip": "ym2612"
    },
    {
      "channel": 4,
      "note": 96,
      "start": 32.1274,
      "duration": 0.0825,
      "velocity": 109,
      "chip": "ym2612"
    },
    {
      "channel": 3,
      "note": 59,
      "start": 32.1766,
      "duration": 0.084,
      "velocity": 110,
      "chip": "ym2612"
    },
    {
      "channel": 5,
      "note": 96,
      "start": 32.1935,
      "duration": 0.0831,
      "velocity": 99,
      "chip": "ym2612"
    },
    {
      "channel": 0,
      "note": 50,
      "start": 32.2599,
      "duration": 2.9998,
      "velocity": 86,
      "chip": "ym2612"
    },
    {
      "channel": 1,
      "note": 49,
      "start": 32.2602,
      "duration": 2.9998,
      "velocity": 86,
      "chip": "ym2612"
    },
    {
      "channel": 2,
      "note": 80,
      "start": 32.2605,
      "duration": 0.0825,
      "velocity": 100,
      "chip": "ym2612"
    },
    {
      "channel": 3,
      "note": 58,
      "start": 32.2608,
      "duration": 0.0322,
      "velocity": 110,
      "chip": "ym2612"
    },
    {
      "channel": 3,
      "note": 59,
      "start": 32.2933,
      "duration": 0.0834,
      "velocity": 110,
      "chip": "ym2612"
    },
    {
      "channel": 2,
      "note": 73,
      "start": 32.3765,
      "duration": 0.0832,
      "velocity": 100,
      "chip": "ym2612"
    },
    {
      "channel": 3,
      "note": 58,
      "start": 32.3769,
      "duration": 0.0495,
      "velocity": 110,
      "chip": "ym2612"
    },
    {
      "channel": 3,
      "note": 59,
      "start": 32.4266,
      "duration": 0.0834,
      "velocity": 110,
      "chip": "ym2612"
    },
    {
      "channel": 2,
      "note": 79,
      "start": 32.5099,
      "duration": 0.0832,
      "velocity": 100,
      "chip": "ym2612"
    },
    {
      "channel": 3,
      "note": 58,
      "start": 32.5102,
      "duration": 0.0328,
      "velocity": 110,
      "chip": "ym2612"
    },
    {
      "channel": 4,
      "note": 72,
      "start": 32.5105,
      "duration": 0.0829,
      "velocity": 109,
      "chip": "ym2612"
    },
    {
      "channel": 3,
      "note": 59,
      "start": 32.5433,
      "duration": 0.0834,
      "velocity": 110,
      "chip": "ym2612"
    },
    {
      "channel": 5,
      "note": 72,
      "start": 32.5602,
      "duration": 0.0831,
      "velocity": 99,
      "chip": "ym2612"
    },
    {
      "channel": 2,
      "note": 75,
      "start": 32.6265,
      "duration": 0.0832,
      "velocity": 100,
      "chip": "ym2612"
    },
    {
      "channel": 3,
      "note": 58,
      "start": 32.6269,
      "duration": 0.0495,
      "velocity": 110,
      "chip": "ym2612"
    },
    {
      "channel": 4,
      "note": 63,
      "start": 32.6272,
      "duration": 0.0829,
      "velocity": 109,
      "chip": "ym2612"
    },
    {
      "channel": 3,
      "note": 59,
      "start": 32.6766,
      "duration": 0.0834,
      "velocity": 110,
      "chip": "ym2612"
    },
    {
      "channel": 5,
      "note": 63,
      "start": 32.6935,
      "duration": 0.0831,
      "velocity": 99,
      "chip": "ym2612"
    },
    {
      "channel": 2,
      "note": 78,
      "start": 32.7599,
      "duration": 0.0832,
      "velocity": 100,
      "chip": "ym2612"
    },
    {
      "channel": 3,
      "note": 58,
      "start": 32.7602,
      "duration": 0.0328,
      "velocity": 110,
      "chip": "ym2612"
    },
    {
      "channel": 4,
      "note": 64,
      "start": 32.7605,
      "duration": 0.0829,
      "velocity": 109,
      "chip": "ym2612"
    },
    {
      "channel": 3,
      "note": 59,
      "start": 32.7933,
      "duration": 0.0834,
      "velocity": 110,
      "chip": "ym2612"
    },
    {
      "channel": 5,
      "note": 64,
      "start": 32.8102,
      "duration": 0.0831,
      "velocity": 99,
      "chip": "ym2612"
    },
    {
      "channel": 2,
      "note": 74,
      "start": 32.8765,
      "duration": 0.0832,
      "velocity": 100,
      "chip": "ym2612"
    },
    {
      "channel": 3,
      "note": 58,
      "start": 32.8769,
      "duration": 0.0495,
      "velocity": 110,
      "chip": "ym2612"
    },
    {
      "channel": 4,
      "note": 73,
      "start": 32.8772,
      "duration": 0.0829,
      "velocity": 109,
      "chip": "ym2612"
    },
    {
      "channel": 3,
      "note": 59,
      "start": 32.9266,
      "duration": 0.0831,
      "velocity": 110,
      "chip": "ym2612"
    },
    {
      "channel": 5,
      "note": 73,
      "start": 32.9435,
      "duration": 0.0831,
      "velocity": 99,
      "chip": "ym2612"
    },
    {
      "channel": 3,
      "note": 58,
      "start": 33.01,
      "duration": 0.0331,
      "velocity": 110,
      "chip": "ym2612"
    },
    {
      "channel": 4,
      "note": 65,
      "start": 33.0102,
      "duration": 0.083,
      "velocity": 109,
      "chip": "ym2612"
    },
    {
      "channel": 3,
      "note": 59,
      "start": 33.0433,
      "duration": 0.0831,
      "velocity": 110,
      "chip": "ym2612"
    },
    {
      "channel": 5,
      "note": 65,
      "start": 33.0602,
      "duration": 0.0831,
      "velocity": 99,
      "chip": "ym2612"
    },
    {
      "channel": 3,
      "note": 58,
      "start": 33.1267,
      "duration": 0.0497,
      "velocity": 110,
      "chip": "ym2612"
    },
    {
      "channel": 4,
      "note": 66,
      "start": 33.1269,
      "duration": 0.083,
      "velocity": 109,
      "chip": "ym2612"
    },
    {
      "channel": 3,
      "note": 59,
      "start": 33.1766,
      "duration": 0.0831,
      "velocity": 110,
      "chip": "ym2612"
    },
    {
      "channel": 5,
      "note": 66,
      "start": 33.1935,
      "duration": 0.0831,
      "velocity": 99,
      "chip": "ym2612"
    },
    {
      "channel": 3,
      "note": 58,
      "start": 33.26,
      "duration": 0.0331,
      "velocity": 110,
      "chip": "ym2612"
    },
    {
      "channel": 4,
      "note": 79,
      "start": 33.2602,
      "duration": 0.083,
      "velocity": 109,
      "chip": "ym2612"
    },
    {
      "channel": 3,
      "note": 59,
      "start": 33.2933,
      "duration": 0.0831,
      "velocity": 110,
      "chip": "ym2612"
    },
    {
      "channel": 5,
      "note": 79,
      "start": 33.3102,
      "duration": 0.0831,
      "velocity": 99,
      "chip": "ym2612"
    },
    {
      "channel": 3,
      "note": 58,
      "start": 33.3767,
      "duration": 0.0497,
      "velocity": 110,
      "chip": "ym2612"
    },
    {
      "channel": 3,
      "note": 59,
      "start": 33.4266,
      "duration": 0.0831,
      "velocity": 110,
      "chip": "ym2612"
    },
    {
      "channel": 3,
      "note": 58,
      "start": 33.51,
      "duration": 0.0331,
      "velocity": 110,
      "chip": "ym2612"
    },
    {
      "channel": 3,
      "note": 59,
      "start": 33.5433,
      "duration": 0.0831,
      "velocity": 110,
      "chip": "ym2612"
    },
    {
      "channel": 3,
      "note": 58,
      "start": 33.6267,
      "duration": 0.0497,
      "velocity": 110,
      "chip": "ym2612"
    },
    {
      "channel": 3,
      "note": 59,
      "start": 33.6766,
      "duration": 0.0831,
      "velocity": 110,
      "chip": "ym2612"
    },
    {
      "channel": 3,
      "note": 58,
      "start": 33.76,
      "duration": 0.0331,
      "velocity": 110,
      "chip": "ym2612"
    },
    {
      "channel": 3,
      "note": 59,
      "start": 33.7933,
      "duration": 0.0831,
      "velocity": 110,
      "chip": "ym2612"
    },
    {
      "channel": 3,
      "note": 58,
      "start": 33.8767,
      "duration": 0.0497,
      "velocity": 110,
      "chip": "ym2612"
    },
    {
      "channel": 3,
      "note": 59,
      "start": 33.9266,
      "duration": 0.0831,
      "velocity": 110,
      "chip": "ym2612"
    },
    {
      "channel": 3,
      "note": 58,
      "start": 34.01,
      "duration": 0.0331,
      "velocity": 110,
      "chip": "ym2612"
    },
    {
      "channel": 3,
      "note": 59,
      "start": 34.0433,
      "duration": 0.0831,
      "velocity": 110,
      "chip": "ym2612"
    },
    {
      "channel": 3,
      "note": 58,
      "start": 34.1267,
      "duration": 0.0497,
      "velocity": 110,
      "chip": "ym2612"
    },
    {
      "channel": 3,
      "note": 59,
      "start": 34.1766,
      "duration": 0.0835,
      "velocity": 110,
      "chip": "ym2612"
    },
    {
      "channel": 2,
      "note": 80,
      "start": 34.26,
      "duration": 0.083,
      "velocity": 100,
      "chip": "ym2612"
    },
    {
      "channel": 3,
      "note": 58,
      "start": 34.2603,
      "duration": 0.0327,
      "velocity": 110,
      "chip": "ym2612"
    },
    {
      "channel": 3,
      "note": 59,
      "start": 34.2933,
      "duration": 0.0834,
      "velocity": 110,
      "chip": "ym2612"
    },
    {
      "channel": 2,
      "note": 73,
      "start": 34.3765,
      "duration": 0.0832,
      "velocity": 100,
      "chip": "ym2612"
    },
    {
      "channel": 3,
      "note": 58,
      "start": 34.3769,
      "duration": 0.0495,
      "velocity": 110,
      "chip": "ym2612"
    },
    {
      "channel": 3,
      "note": 59,
      "start": 34.4266,
      "duration": 0.0834,
      "velocity": 110,
      "chip": "ym2612"
    },
    {
      "channel": 2,
      "note": 79,
      "start": 34.5099,
      "duration": 0.0832,
      "velocity": 100,
      "chip": "ym2612"
    },
    {
      "channel": 3,
      "note": 58,
      "start": 34.5102,
      "duration": 0.0328,
      "velocity": 110,
      "chip": "ym2612"
    },
    {
      "channel": 3,
      "note": 59,
      "start": 34.5433,
      "duration": 0.0834,
      "velocity": 110,
      "chip": "ym2612"
    },
    {
      "channel": 2,
      "note": 75,
      "start": 34.6265,
      "duration": 0.0832,
      "velocity": 100,
      "chip": "ym2612"
    },
    {
      "channel": 3,
      "note": 58,
      "start": 34.6269,
      "duration": 0.0495,
      "velocity": 110,
      "chip": "ym2612"
    },
    {
      "channel": 3,
      "note": 59,
      "start": 34.6766,
      "duration": 0.0834,
      "velocity": 110,
      "chip": "ym2612"
    },
    {
      "channel": 2,
      "note": 78,
      "start": 34.7599,
      "duration": 0.0832,
      "velocity": 100,
      "chip": "ym2612"
    },
    {
      "channel": 3,
      "note": 58,
      "start": 34.7602,
      "duration": 0.0328,
      "velocity": 110,
      "chip": "ym2612"
    },
    {
      "channel": 3,
      "note": 59,
      "start": 34.7933,
      "duration": 0.0834,
      "velocity": 110,
      "chip": "ym2612"
    },
    {
      "channel": 2,
      "note": 74,
      "start": 34.8765,
      "duration": 0.0832,
      "velocity": 100,
      "chip": "ym2612"
    },
    {
      "channel": 3,
      "note": 58,
      "start": 34.8769,
      "duration": 0.0495,
      "velocity": 110,
      "chip": "ym2612"
    },
    {
      "channel": 4,
      "note": 97,
      "start": 34.8772,
      "duration": 0.0829,
      "velocity": 109,
      "chip": "ym2612"
    },
    {
      "channel": 3,
      "note": 59,
      "start": 34.9266,
      "duration": 0.0831,
      "velocity": 110,
      "chip": "ym2612"
    },
    {
      "channel": 5,
      "note": 97,
      "start": 34.9435,
      "duration": 0.0831,
      "velocity": 99,
      "chip": "ym2612"
    },
    {
      "channel": 3,
      "note": 58,
      "start": 35.01,
      "duration": 0.0331,
      "velocity": 110,
      "chip": "ym2612"
    },
    {
      "channel": 4,
      "note": 91,
      "start": 35.0102,
      "duration": 0.083,
      "velocity": 109,
      "chip": "ym2612"
    },
    {
      "channel": 3,
      "note": 59,
      "start": 35.0433,
      "duration": 0.0831,
      "velocity": 110,
      "chip": "ym2612"
    },
    {
      "channel": 5,
      "note": 91,
      "start": 35.0602,
      "duration": 0.0831,
      "velocity": 99,
      "chip": "ym2612"
    },
    {
      "channel": 3,
      "note": 58,
      "start": 35.1267,
      "duration": 0.0497,
      "velocity": 110,
      "chip": "ym2612"
    },
    {
      "channel": 4,
      "note": 75,
      "start": 35.1269,
      "duration": 0.083,
      "velocity": 109,
      "chip": "ym2612"
    },
    {
      "channel": 3,
      "note": 59,
      "start": 35.1766,
      "duration": 0.084,
      "velocity": 110,
      "chip": "ym2612"
    },
    {
      "channel": 5,
      "note": 75,
      "start": 35.1935,
      "duration": 0.0831,
      "velocity": 99,
      "chip": "ym2612"
    },
    {
      "channel": 0,
      "note": 56,
      "start": 35.2598,
      "duration": 0.1165,
      "velocity": 86,
      "chip": "ym2612"
    },
    {
      "channel": 1,
      "note": 57,
      "start": 35.2601,
      "duration": 0.1163,
      "velocity": 86,
      "chip": "ym2612"
    },
    {
      "channel": 2,
      "note": 85,
      "start": 35.2604,
      "duration": 0.0826,
      "velocity": 100,
      "chip": "ym2612"
    },
    {
      "channel": 3,
      "note": 58,
      "start": 35.2608,
      "duration": 0.0322,
      "velocity": 110,
      "chip": "ym2612"
    },
    {
      "channel": 4,
      "note": 80,
      "start": 35.2625,
      "duration": 0.0809,
      "velocity": 100,
      "chip": "ym2612"
    },
    {
      "channel": 3,
      "note": 59,
      "start": 35.2933,
      "duration": 0.0834,
      "velocity": 110,
      "chip": "ym2612"
    },
    {
      "channel": 5,
      "note": 80,
      "start": 35.3116,
      "duration": 0.0817,
      "velocity": 100,
      "chip": "ym2612"
    },
    {
      "channel": 3,
      "note": 58,
      "start": 35.3769,
      "duration": 0.0495,
      "velocity": 110,
      "chip": "ym2612"
    },
    {
      "channel": 3,
      "note": 59,
      "start": 35.4266,
      "duration": 0.0831,
      "velocity": 110,
      "chip": "ym2612"
    },
    {
      "channel": 3,
      "note": 58,
      "start": 35.51,
      "duration": 0.0331,
      "velocity": 110,
      "chip": "ym2612"
    },
    {
      "channel": 3,
      "note": 59,
      "start": 35.5433,
      "duration": 0.0839,
      "velocity": 110,
      "chip": "ym2612"
    },
    {
      "channel": 0,
      "note": 56,
      "start": 35.6265,
      "duration": 0.1332,
      "velocity": 86,
      "chip": "ym2612"
    },
    {
      "channel": 1,
      "note": 57,
      "start": 35.6268,
      "duration": 0.133,
      "velocity": 86,
      "chip": "ym2612"
    },
    {
      "channel": 2,
      "note": 80,
      "start": 35.627,
      "duration": 0.0827,
      "velocity": 100,
      "chip": "ym2612"
    },
    {
      "channel": 3,
      "note": 58,
      "start": 35.6274,
      "duration": 0.049,
      "velocity": 110,
      "chip": "ym2612"
    },
    {
      "channel": 4,
      "note": 85,
      "start": 35.6277,
      "duration": 0.0824,
      "velocity": 100,
      "chip": "ym2612"
    },
    {
      "channel": 3,
      "note": 59,
      "start": 35.6766,
      "duration": 0.0834,
      "velocity": 110,
      "chip": "ym2612"
    },
    {
      "channel": 5,
      "note": 85,
      "start": 35.6935,
      "duration": 0.0831,
      "velocity": 100,
      "chip": "ym2612"
    },
    {
      "channel": 3,
      "note": 58,
      "start": 35.7602,
      "duration": 0.0328,
      "velocity": 110,
      "chip": "ym2612"
    },
    {
      "channel": 3,
      "note": 59,
      "start": 35.7933,
      "duration": 0.0834,
      "velocity": 110,
      "chip": "ym2612"
    },
    {
      "channel": 0,
      "note": 53,
      "start": 35.8765,
      "duration": 0.1332,
      "velocity": 86,
      "chip": "ym2612"
    },
    {
      "channel": 3,
      "note": 58,
      "start": 35.8769,
      "duration": 0.0495,
      "velocity": 110,
      "chip": "ym2612"
    },
    {
      "channel": 3,
      "note": 59,
      "start": 35.9266,
      "duration": 0.0833,
      "velocity": 110,
      "chip": "ym2612"
    },
    {
      "channel": 3,
      "note": 58,
      "start": 36.0101,
      "duration": 0.0329,
      "velocity": 110,
      "chip": "ym2612"
    },
    {
      "channel": 3,
      "note": 59,
      "start": 36.0433,
      "duration": 0.0834,
      "velocity": 110,
      "chip": "ym2612"
    },
    {
      "channel": 0,
      "note": 54,
      "start": 36.1265,
      "duration": 0.1332,
      "velocity": 86,
      "chip": "ym2612"
    },
    {
      "channel": 3,
      "note": 58,
      "start": 36.1269,
      "duration": 0.0495,
      "velocity": 110,
      "chip": "ym2612"
    },
    {
      "channel": 3,
      "note": 59,
      "start": 36.1766,
      "duration": 0.0837,
      "velocity": 110,
      "chip": "ym2612"
    },
    {
      "channel": 2,
      "note": 80,
      "start": 36.2602,
      "duration": 0.0828,
      "velocity": 100,
      "chip": "ym2612"
    },
    {
      "channel": 3,
      "note": 58,
      "start": 36.2606,
      "duration": 0.0325,
      "velocity": 110,
      "chip": "ym2612"
    },
    {
      "channel": 3,
      "note": 59,
      "start": 36.2933,
      "duration": 0.0834,
      "velocity": 110,
      "chip": "ym2612"
    },
    {
      "channel": 2,
      "note": 73,
      "start": 36.3765,
      "duration": 0.0832,
      "velocity": 100,
      "chip": "ym2612"
    },
    {
      "channel": 3,
      "note": 58,
      "start": 36.3769,
      "duration": 0.0495,
      "velocity": 110,
      "chip": "ym2612"
    },
    {
      "channel": 3,
      "note": 59,
      "start": 36.4266,
      "duration": 0.0834,
      "velocity": 110,
      "chip": "ym2612"
    },
    {
      "channel": 2,
      "note": 79,
      "start": 36.5099,
      "duration": 0.0832,
      "velocity": 100,
      "chip": "ym2612"
    },
    {
      "channel": 3,
      "note": 58,
      "start": 36.5102,
      "duration": 0.0328,
      "velocity": 110,
      "chip": "ym2612"
    },
    {
      "channel": 3,
      "note": 59,
      "start": 36.5433,
      "duration": 0.0837,
      "velocity": 110,
      "chip": "ym2612"
    },
    {
      "channel": 0,
      "note": 59,
      "start": 36.6265,
      "duration": 0.1332,
      "velocity": 86,
      "chip": "ym2612"
    },
    {
      "channel": 2,
      "note": 75,
      "start": 36.6268,
      "duration": 0.0829,
      "velocity": 100,
      "chip": "ym2612"
    },
    {
      "channel": 3,
      "note": 58,
      "start": 36.6272,
      "duration": 0.0492,
      "velocity": 110,
      "chip": "ym2612"
    },
    {
      "channel": 4,
      "note": 93,
      "start": 36.6274,
      "duration": 0.0826,
      "velocity": 109,
      "chip": "ym2612"
    },
    {
      "channel": 3,
      "note": 59,
      "start": 36.6766,
      "duration": 0.0837,
      "velocity": 110,
      "chip": "ym2612"
    },
    {
      "channel": 5,
      "note": 93,
      "start": 36.6935,
      "duration": 0.0831,
      "velocity": 99,
      "chip": "ym2612"
    },
    {
      "channel": 0,
      "note": 60,
      "start": 36.7598,
      "duration": 0.0832,
      "velocity": 86,
      "chip": "ym2612"
    },
    {
      "channel": 2,
      "note": 78,
      "start": 36.7601,
      "duration": 0.083,
      "velocity": 100,
      "chip": "ym2612"
    },
    {
      "channel": 3,
      "note": 58,
      "start": 36.7605,
      "duration": 0.0326,
      "velocity": 110,
      "chip": "ym2612"
    },
    {
      "channel": 4,
      "note": 89,
      "start": 36.7607,
      "duration": 0.0828,
      "velocity": 109,
      "chip": "ym2612"
    },
    {
      "channel": 3,
      "note": 59,
      "start": 36.7933,
      "duration": 0.0837,
      "velocity": 110,
      "chip": "ym2612"
    },
    {
      "channel": 5,
      "note": 89,
      "start": 36.8102,
      "duration": 0.0831,
      "velocity": 99,
      "chip": "ym2612"
    },
    {
      "channel": 0,
      "note": 61,
      "start": 36.8765,
      "duration": 0.2498,
      "velocity": 86,
      "chip": "ym2612"
    },
    {
      "channel": 2,
      "note": 74,
      "start": 36.8768,
      "duration": 0.0829,
      "velocity": 100,
      "chip": "ym2612"
    },
    {
      "channel": 3,
      "note": 58,
      "start": 36.8772,
      "duration": 0.0492,
      "velocity": 110,
      "chip": "ym2612"
    },
    {
      "channel": 4,
      "note": 72,
      "start": 36.8774,
      "duration": 0.0826,
      "velocity": 109,
      "chip": "ym2612"
    },
    {
      "channel": 3,
      "note": 59,
      "start": 36.9266,
      "duration": 0.0831,
      "velocity": 110,
      "chip": "ym2612"
    },
    {
      "channel": 5,
      "note": 72,
      "start": 36.9435,
      "duration": 0.0831,
      "velocity": 99,
      "chip": "ym2612"
    },
    {
      "channel": 3,
      "note": 58,
      "start": 37.01,
      "duration": 0.0331,
      "velocity": 110,
      "chip": "ym2612"
    },
    {
      "channel": 4,
      "note": 74,
      "start": 37.0102,
      "duration": 0.083,
      "velocity": 109,
      "chip": "ym2612"
    },
    {
      "channel": 3,
      "note": 59,
      "start": 37.0433,
      "duration": 0.0837,
      "velocity": 110,
      "chip": "ym2612"
    },
    {
      "channel": 5,
      "note": 74,
      "start": 37.0602,
      "duration": 0.0831,
      "velocity": 99,
      "chip": "ym2612"
    },
    {
      "channel": 0,
      "note": 49,
      "start": 37.1265,
      "duration": 1.6332,
      "velocity": 86,
      "chip": "ym2612"
    },
    {
      "channel": 1,
      "note": 50,
      "start": 37.1268,
      "duration": 1.6332,
      "velocity": 86,
      "chip": "ym2612"
    },
    {
      "channel": 3,
      "note": 58,
      "start": 37.1272,
      "duration": 0.0492,
      "velocity": 110,
      "chip": "ym2612"
    },
    {
      "channel": 4,
      "note": 81,
      "start": 37.1274,
      "duration": 0.0825,
      "velocity": 109,
      "chip": "ym2612"
    },
    {
      "channel": 3,
      "note": 59,
      "start": 37.1766,
      "duration": 0.0832,
      "velocity": 110,
      "chip": "ym2612"
    },
    {
      "channel": 5,
      "note": 81,
      "start": 37.1935,
      "duration": 0.0829,
      "velocity": 99,
      "chip": "ym2612"
    },
    {
      "channel": 4,
      "note": 75,
      "start": 37.2601,
      "duration": 0.0829,
      "velocity": 109,
      "chip": "ym2612"
    },
    {
      "channel": 5,
      "note": 75,
      "start": 37.31,
      "duration": 0.0831,
      "velocity": 99,
      "chip": "ym2612"
    },
    {
      "channel": 4,
      "note": 76,
      "start": 37.3766,
      "duration": 0.0831,
      "velocity": 109,
      "chip": "ym2612"
    },
    {
      "channel": 5,
      "note": 76,
      "start": 37.4433,
      "duration": 0.0831,
      "velocity": 99,
      "chip": "ym2612"
    },
    {
      "channel": 4,
      "note": 92,
      "start": 38.1266,
      "duration": 0.0831,
      "velocity": 109,
      "chip": "ym2612"
    },
    {
      "channel": 5,
      "note": 92,
      "start": 38.1933,
      "duration": 0.0831,
      "velocity": 99,
      "chip": "ym2612"
    },
    {
      "channel": 2,
      "note": 80,
      "start": 38.26,
      "duration": 0.083,
      "velocity": 100,
      "chip": "ym2612"
    },
    {
      "channel": 4,
      "note": 92,
      "start": 38.2602,
      "duration": 0.0829,
      "velocity": 109,
      "chip": "ym2612"
    },
    {
      "channel": 5,
      "note": 92,
      "start": 38.3099,
      "duration": 0.0833,
      "velocity": 99,
      "chip": "ym2612"
    },
    {
      "channel": 2,
      "note": 73,
      "start": 38.3765,
      "duration": 0.0832,
      "velocity": 100,
      "chip": "ym2612"
    },
    {
      "channel": 2,
      "note": 79,
      "start": 38.5099,
      "duration": 0.0832,
      "velocity": 100,
      "chip": "ym2612"
    },
    {
      "channel": 2,
      "note": 75,
      "start": 38.6265,
      "duration": 0.0832,
      "velocity": 100,
      "chip": "ym2612"
    },
    {
      "channel": 0,
      "note": 67,
      "start": 38.7598,
      "duration": 0.1165,
      "velocity": 86,
      "chip": "ym2612"
    },
    {
      "channel": 2,
      "note": 78,
      "start": 38.7602,
      "duration": 0.0828,
      "velocity": 100,
      "chip": "ym2612"
    },
    {
      "channel": 0,
      "note": 66,
      "start": 38.8765,
      "duration": 0.1332,
      "velocity": 86,
      "chip": "ym2612"
    },
    {
      "channel": 2,
      "note": 74,
      "start": 38.8768,
      "duration": 0.0829,
      "velocity": 100,
      "chip": "ym2612"
    },
    {
      "channel": 0,
      "note": 73,
      "start": 39.1265,
      "duration": 0.1332,
      "velocity": 86,
      "chip": "ym2612"
    },
    {
      "channel": 2,
      "note": 85,
      "start": 39.26,
      "duration": 0.1166,
      "velocity": 100,
      "chip": "ym2612"
    },
    {
      "channel": 0,
      "note": 72,
      "start": 39.3765,
      "duration": 0.1332,
      "velocity": 86,
      "chip": "ym2612"
    },
    {
      "channel": 2,
      "note": 84,
      "start": 39.4265,
      "duration": 0.1165,
      "velocity": 100,
      "chip": "ym2612"
    },
    {
      "channel": 4,
      "note": 97,
      "start": 39.51,
      "duration": 0.0833,
      "velocity": 109,
      "chip": "ym2612"
    },
    {
      "channel": 5,
      "note": 97,
      "start": 39.56,
      "duration": 0.0831,
      "velocity": 99,
      "chip": "ym2612"
    },
    {
      "channel": 2,
      "note": 83,
      "start": 39.5932,
      "duration": 0.1165,
      "velocity": 100,
      "chip": "ym2612"
    },
    {
      "channel": 0,
      "note": 64,
      "start": 39.6265,
      "duration": 0.1332,
      "velocity": 86,
      "chip": "ym2612"
    },
    {
      "channel": 1,
      "note": 66,
      "start": 39.6267,
      "duration": 0.1331,
      "velocity": 86,
      "chip": "ym2612"
    },
    {
      "channel": 4,
      "note": 101,
      "start": 39.6271,
      "duration": 0.0828,
      "velocity": 109,
      "chip": "ym2612"
    },
    {
      "channel": 5,
      "note": 101,
      "start": 39.6933,
      "duration": 0.0831,
      "velocity": 99,
      "chip": "ym2612"
    },
    {
      "channel": 2,
      "note": 82,
      "start": 39.7601,
      "duration": 0.0829,
      "velocity": 100,
      "chip": "ym2612"
    },
    {
      "channel": 4,
      "note": 97,
      "start": 39.7605,
      "duration": 0.0827,
      "velocity": 109,
      "chip": "ym2612"
    },
    {
      "channel": 5,
      "note": 97,
      "start": 39.81,
      "duration": 0.0831,
      "velocity": 99,
      "chip": "ym2612"
    },
    {
      "channel": 0,
      "note": 73,
      "start": 39.8765,
      "duration": 0.1332,
      "velocity": 86,
      "chip": "ym2612"
    },
    {
      "channel": 4,
      "note": 105,
      "start": 39.8768,
      "duration": 0.0829,
      "velocity": 109,
      "chip": "ym2612"
    },
    {
      "channel": 5,
      "note": 105,
      "start": 39.9433,
      "duration": 0.0831,
      "velocity": 99,
      "chip": "ym2612"
    },
    {
      "channel": 4,
      "note": 101,
      "start": 40.01,
      "duration": 0.083,
      "velocity": 109,
      "chip": "ym2612"
    },
    {
      "channel": 5,
      "note": 101,
      "start": 40.06,
      "duration": 0.0831,
      "velocity": 99,
      "chip": "ym2612"
    },
    {
      "channel": 0,
      "note": 61,
      "start": 40.1265,
      "duration": 0.1332,
      "velocity": 86,
      "chip": "ym2612"
    },
    {
      "channel": 1,
      "note": 62,
      "start": 40.1267,
      "duration": 0.1333,
      "velocity": 86,
      "chip": "ym2612"
    },
    {
      "channel": 4,
      "note": 97,
      "start": 40.1271,
      "duration": 0.0826,
      "velocity": 109,
      "chip": "ym2612"
    },
    {
      "channel": 5,
      "note": 97,
      "start": 40.1933,
      "duration": 0.0831,
      "velocity": 99,
      "chip": "ym2612"
    },
    {
      "channel": 0,
      "note": 50,
      "start": 40.2599,
      "duration": 2.9998,
      "velocity": 86,
      "chip": "ym2612"
    },
    {
      "channel": 1,
      "note": 49,
      "start": 40.2602,
      "duration": 2.9998,
      "velocity": 86,
      "chip": "ym2612"
    },
    {
      "channel": 2,
      "note": 80,
      "start": 40.2605,
      "duration": 0.0825,
      "velocity": 100,
      "chip": "ym2612"
    },
    {
      "channel": 4,
      "note": 96,
      "start": 40.2608,
      "duration": 0.0824,
      "velocity": 109,
      "chip": "ym2612"
    },
    {
      "channel": 5,
      "note": 96,
      "start": 40.31,
      "duration": 0.0831,
      "velocity": 99,
      "chip": "ym2612"
    },
    {
      "channel": 2,
      "note": 73,
      "start": 40.3765,
      "duration": 0.0832,
      "velocity": 100,
      "chip": "ym2612"
    },
    {
      "channel": 4,
      "note": 93,
      "start": 40.3768,
      "duration": 0.083,
      "velocity": 109,
      "chip": "ym2612"
    },
    {
      "channel": 5,
      "note": 93,
      "start": 40.4433,
      "duration": 0.0831,
      "velocity": 99,
      "chip": "ym2612"
    },
    {
      "channel": 2,
      "note": 79,
      "start": 40.5099,
      "duration": 0.0832,
      "velocity": 100,
      "chip": "ym2612"
    },
    {
      "channel": 4,
      "note": 100,
      "start": 40.5102,
      "duration": 0.083,
      "velocity": 109,
      "chip": "ym2612"
    },
    {
      "channel": 5,
      "note": 100,
      "start": 40.56,
      "duration": 0.0831,
      "velocity": 99,
      "chip": "ym2612"
    },
    {
      "channel": 2,
      "note": 75,
      "start": 40.6265,
      "duration": 0.0832,
      "velocity": 100,
      "chip": "ym2612"
    },
    {
      "channel": 2,
      "note": 78,
      "start": 40.7599,
      "duration": 0.0832,
      "velocity": 100,
      "chip": "ym2612"
    },
    {
      "channel": 2,
      "note": 74,
      "start": 40.8765,
      "duration": 0.0832,
      "velocity": 100,
      "chip": "ym2612"
    },
    {
      "channel": 4,
      "note": 72,
      "start": 41.5099,
      "duration": 0.0831,
      "velocity": 109,
      "chip": "ym2612"
    },
    {
      "channel": 5,
      "note": 72,
      "start": 41.56,
      "duration": 0.0831,
      "velocity": 99,
      "chip": "ym2612"
    },
    {
      "channel": 4,
      "note": 73,
      "start": 41.6266,
      "duration": 0.0831,
      "velocity": 109,
      "chip": "ym2612"
    },
    {
      "channel": 5,
      "note": 73,
      "start": 41.6933,
      "duration": 0.0831,
      "velocity": 99,
      "chip": "ym2612"
    },
    {
      "channel": 4,
      "note": 93,
      "start": 41.7599,
      "duration": 0.0831,
      "velocity": 109,
      "chip": "ym2612"
    },
    {
      "channel": 5,
      "note": 93,
      "start": 41.81,
      "duration": 0.0831,
      "velocity": 99,
      "chip": "ym2612"
    },
    {
      "channel": 4,
      "note": 87,
      "start": 41.8766,
      "duration": 0.0831,
      "velocity": 109,
      "chip": "ym2612"
    },
    {
      "channel": 5,
      "note": 87,
      "start": 41.9433,
      "duration": 0.0831,
      "velocity": 99,
      "chip": "ym2612"
    },
    {
      "channel": 4,
      "note": 85,
      "start": 42.0099,
      "duration": 0.0831,
      "velocity": 109,
      "chip": "ym2612"
    },
    {
      "channel": 5,
      "note": 85,
      "start": 42.06,
      "duration": 0.0831,
      "velocity": 99,
      "chip": "ym2612"
    },
    {
      "channel": 2,
      "note": 80,
      "start": 42.26,
      "duration": 0.083,
      "velocity": 100,
      "chip": "ym2612"
    },
    {
      "channel": 4,
      "note": 69,
      "start": 42.2603,
      "duration": 0.0829,
      "velocity": 109,
      "chip": "ym2612"
    },
    {
      "channel": 5,
      "note": 69,
      "start": 42.31,
      "duration": 0.0831,
      "velocity": 99,
      "chip": "ym2612"
    },
    {
      "channel": 2,
      "note": 73,
      "start": 42.3765,
      "duration": 0.0832,
      "velocity": 100,
      "chip": "ym2612"
    },
    {
      "channel": 2,
      "note": 79,
      "start": 42.5099,
      "duration": 0.0832,
      "velocity": 100,
      "chip": "ym2612"
    },
    {
      "channel": 4,
      "note": 78,
      "start": 42.5102,
      "duration": 0.083,
      "velocity": 109,
      "chip": "ym2612"
    },
    {
      "channel": 5,
      "note": 78,
      "start": 42.56,
      "duration": 0.0831,
      "velocity": 99,
      "chip": "ym2612"
    },
    {
      "channel": 2,
      "note": 75,
      "start": 42.6265,
      "duration": 0.0832,
      "velocity": 100,
      "chip": "ym2612"
    },
    {
      "channel": 2,
      "note": 78,
      "start": 42.7599,
      "duration": 0.0832,
      "velocity": 100,
      "chip": "ym2612"
    },
    {
      "channel": 4,
      "note": 77,
      "start": 42.7602,
      "duration": 0.083,
      "velocity": 109,
      "chip": "ym2612"
    },
    {
      "channel": 5,
      "note": 77,
      "start": 42.81,
      "duration": 0.0831,
      "velocity": 99,
      "chip": "ym2612"
    },
    {
      "channel": 2,
      "note": 74,
      "start": 42.8765,
      "duration": 0.0832,
      "velocity": 100,
      "chip": "ym2612"
    },
    {
      "channel": 4,
      "note": 59,
      "start": 43.1266,
      "duration": 0.1354,
      "velocity": 100,
      "chip": "ym2612"
    },
    {
      "channel": 5,
      "note": 59,
      "start": 43.1933,
      "duration": 0.1179,
      "velocity": 100,
      "chip": "ym2612"
    },
    {
      "channel": 0,
      "note": 56,
      "start": 43.2598,
      "duration": 0.1165,
      "velocity": 86,
      "chip": "ym2612"
    },
    {
      "channel": 1,
      "note": 57,
      "start": 43.2601,
      "duration": 0.1163,
      "velocity": 86,
      "chip": "ym2612"
    },
    {
      "channel": 2,
      "note": 85,
      "start": 43.2604,
      "duration": 0.0826,
      "velocity": 100,
      "chip": "ym2612"
    },
    {
      "channel": 4,
      "note": 80,
      "start": 43.2622,
      "duration": 0.081,
      "velocity": 100,
      "chip": "ym2612"
    },
    {
      "channel": 5,
      "note": 80,
      "start": 43.3114,
      "duration": 0.0817,
      "velocity": 100,
      "chip": "ym2612"
    },
    {
      "channel": 0,
      "note": 56,
      "start": 43.6265,
      "duration": 0.1332,
      "velocity": 86,
      "chip": "ym2612"
    },
    {
      "channel": 1,
      "note": 57,
      "start": 43.6268,
      "duration": 0.133,
      "velocity": 86,
      "chip": "ym2612"
    },
    {
      "channel": 2,
      "note": 80,
      "start": 43.627,
      "duration": 0.0827,
      "velocity": 100,
      "chip": "ym2612"
    },
    {
      "channel": 4,
      "note": 85,
      "start": 43.6273,
      "duration": 0.0825,
      "velocity": 100,
      "chip": "ym2612"
    },
    {
      "channel": 5,
      "note": 85,
      "start": 43.6933,
      "duration": 0.0831,
      "velocity": 100,
      "chip": "ym2612"
    },
    {
      "channel": 0,
      "note": 53,
      "start": 43.8765,
      "duration": 0.1332,
      "velocity": 86,
      "chip": "ym2612"
    },
    {
      "channel": 0,
      "note": 54,
      "start": 44.1265,
      "duration": 0.1332,
      "velocity": 86,
      "chip": "ym2612"
    },
    {
      "channel": 2,
      "note": 80,
      "start": 44.2602,
      "duration": 0.0828,
      "velocity": 100,
      "chip": "ym2612"
    },
    {
      "channel": 2,
      "note": 73,
      "start": 44.3765,
      "duration": 0.0832,
      "velocity": 100,
      "chip": "ym2612"
    },
    {
      "channel": 2,
      "note": 79,
      "start": 44.5099,
      "duration": 0.0832,
      "velocity": 100,
      "chip": "ym2612"
    },
    {
      "channel": 0,
      "note": 59,
      "start": 44.6265,
      "duration": 0.7208,
      "velocity": 86,
      "chip": "ym2612"
    }
  ]
}