{
  "track_name": "05 - On Trimaran",
  "duration_sec": 160.8,
  "sample_rate": 44100,
  "note_count": 3862,
  "unique_pitches": 39,
  "pitch_range": 67,
  "avg_note_duration": 0.0726,
  "reconstruction_stats": {
    "notes_reconstructed": 3862,
    "keyon_events": 3862,
    "keyoff_events": 3861,
    "orphan_keyons": 1,
    "unique_pitches": 39,
    "pitch_range": 67,
    "avg_duration_sec": 0.0726
  },
  "metadata": {
    "source": "W\\Waterworld\\Waterworld (Mega Drive, Genesis)\\05 - On Trimaran.vgz"
  },
  "notes": [
    {
      "channel": 0,
      "note": -1,
      "start": 0.0332,
      "duration": 0.0368,
      "velocity": 79,
      "chip": "ym2612"
    },
    {
      "channel": 1,
      "note": -1,
      "start": 0.0359,
      "duration": 0.0953,
      "velocity": 127,
      "chip": "ym2612"
    },
    {
      "channel": 2,
      "note": -1,
      "start": 0.0386,
      "duration": 0.0001,
      "velocity": 1,
      "chip": "ym2612"
    },
    {
      "channel": 3,
      "note": -1,
      "start": 0.0417,
      "duration": 0.113,
      "velocity": 95,
      "chip": "ym2612"
    },
    {
      "channel": 4,
      "note": -1,
      "start": 0.0445,
      "duration": 0.0282,
      "velocity": 127,
      "chip": "ym2612"
    },
    {
      "channel": 2,
      "note": 75,
      "start": 0.1534,
      "duration": 0.0001,
      "velocity": 1,
      "chip": "ym2612"
    },
    {
      "channel": 3,
      "note": 72,
      "start": 0.1565,
      "duration": 0.1229,
      "velocity": 95,
      "chip": "ym2612"
    },
    {
      "channel": 4,
      "note": 58,
      "start": 0.1592,
      "duration": 0.0322,
      "velocity": 127,
      "chip": "ym2612"
    },
    {
      "channel": 0,
      "note": 48,
      "start": 0.2726,
      "duration": 0.0366,
      "velocity": 79,
      "chip": "ym2612"
    },
    {
      "channel": 1,
      "note": 22,
      "start": 0.2753,
      "duration": 0.0948,
      "velocity": 127,
      "chip": "ym2612"
    },
    {
      "channel": 2,
      "note": 75,
      "start": 0.278,
      "duration": 0.0001,
      "velocity": 1,
      "chip": "ym2612"
    },
    {
      "channel": 3,
      "note": 70,
      "start": 0.2811,
      "duration": 0.1098,
      "velocity": 95,
      "chip": "ym2612"
    },
    {
      "channel": 4,
      "note": 58,
      "start": 0.2839,
      "duration": 0.1267,
      "velocity": 127,
      "chip": "ym2612"
    },
    {
      "channel": 3,
      "note": 67,
      "start": 0.3931,
      "duration": 0.1252,
      "velocity": 95,
      "chip": "ym2612"
    },
    {
      "channel": 0,
      "note": 48,
      "start": 0.5117,
      "duration": 0.0368,
      "velocity": 79,
      "chip": "ym2612"
    },
    {
      "channel": 1,
      "note": 22,
      "start": 0.5144,
      "duration": 0.115,
      "velocity": 125,
      "chip": "ym2612"
    },
    {
      "channel": 2,
      "note": 75,
      "start": 0.517,
      "duration": 0.0001,
      "velocity": 1,
      "chip": "ym2612"
    },
    {
      "channel": 4,
      "note": 58,
      "start": 0.5208,
      "duration": 0.0306,
      "velocity": 127,
      "chip": "ym2612"
    },
    {
      "channel": 4,
      "note": 58,
      "start": 0.6334,
      "duration": 0.0367,
      "velocity": 127,
      "chip": "ym2612"
    },
    {
      "channel": 0,
      "note": 60,
      "start": 0.751,
      "duration": 0.0367,
      "velocity": 79,
      "chip": "ym2612"
    },
    {
      "channel": 1,
      "note": 24,
      "start": 0.7537,
      "duration": 0.0951,
      "velocity": 127,
      "chip": "ym2612"
    },
    {
      "channel": 2,
      "note": 75,
      "start": 0.7564,
      "duration": 0.0001,
      "velocity": 1,
      "chip": "ym2612"
    },
    {
      "channel": 4,
      "note": 58,
      "start": 0.7599,
      "duration": 0.1295,
      "velocity": 127,
      "chip": "ym2612"
    },
    {
      "channel": 1,
      "note": 22,
      "start": 0.8707,
      "duration": 0.1203,
      "velocity": 125,
      "chip": "ym2612"
    },
    {
      "channel": 2,
      "note": 75,
      "start": 0.8734,
      "duration": 0.0001,
      "velocity": 1,
      "chip": "ym2612"
    },
    {
      "channel": 0,
      "note": 60,
      "start": 0.9901,
      "duration": 0.0369,
      "velocity": 79,
      "chip": "ym2612"
    },
    {
      "channel": 1,
      "note": 30,
      "start": 0.9927,
      "duration": 0.0957,
      "velocity": 127,
      "chip": "ym2612"
    },
    {
      "channel": 4,
      "note": 58,
      "start": 0.9968,
      "duration": 0.0331,
      "velocity": 127,
      "chip": "ym2612"
    },
    {
      "channel": 0,
      "note": 58,
      "start": 1.1098,
      "duration": 0.0367,
      "velocity": 79,
      "chip": "ym2612"
    },
    {
      "channel": 1,
      "note": 22,
      "start": 1.1125,
      "duration": 0.1151,
      "velocity": 125,
      "chip": "ym2612"
    },
    {
      "channel": 2,
      "note": 75,
      "start": 1.1151,
      "duration": 0.0001,
      "velocity": 1,
      "chip": "ym2612"
    },
    {
      "channel": 4,
      "note": 58,
      "start": 1.1187,
      "duration": 0.0308,
      "velocity": 127,
      "chip": "ym2612"
    },
    {
      "channel": 1,
      "note": 30,
      "start": 1.2298,
      "duration": 0.0973,
      "velocity": 127,
      "chip": "ym2612"
    },
    {
      "channel": 2,
      "note": 75,
      "start": 1.2325,
      "duration": 0.0001,
      "velocity": 1,
      "chip": "ym2612"
    },
    {
      "channel": 4,
      "note": 58,
      "start": 1.236,
      "duration": 0.1316,
      "velocity": 127,
      "chip": "ym2612"
    },
    {
      "channel": 0,
      "note": 58,
      "start": 1.3485,
      "duration": 0.0374,
      "velocity": 79,
      "chip": "ym2612"
    },
    {
      "channel": 1,
      "note": 22,
      "start": 1.4689,
      "duration": 0.1203,
      "velocity": 125,
      "chip": "ym2612"
    },
    {
      "channel": 4,
      "note": 58,
      "start": 1.4728,
      "duration": 0.0353,
      "velocity": 127,
      "chip": "ym2612"
    },
    {
      "channel": 0,
      "note": 58,
      "start": 1.588,
      "duration": 0.037,
      "velocity": 79,
      "chip": "ym2612"
    },
    {
      "channel": 4,
      "note": 58,
      "start": 1.5924,
      "duration": 0.0343,
      "velocity": 127,
      "chip": "ym2612"
    },
    {
      "channel": 0,
      "note": 53,
      "start": 1.7081,
      "duration": 0.0366,
      "velocity": 79,
      "chip": "ym2612"
    },
    {
      "channel": 1,
      "note": 24,
      "start": 1.7107,
      "duration": 0.0949,
      "velocity": 127,
      "chip": "ym2612"
    },
    {
      "channel": 2,
      "note": 75,
      "start": 1.7135,
      "duration": 0.0001,
      "velocity": 1,
      "chip": "ym2612"
    },
    {
      "channel": 3,
      "note": 72,
      "start": 1.7166,
      "duration": 0.1127,
      "velocity": 95,
      "chip": "ym2612"
    },
    {
      "channel": 4,
      "note": 58,
      "start": 1.7193,
      "duration": 0.1267,
      "velocity": 127,
      "chip": "ym2612"
    },
    {
      "channel": 2,
      "note": 75,
      "start": 1.8279,
      "duration": 0.0001,
      "velocity": 1,
      "chip": "ym2612"
    },
    {
      "channel": 3,
      "note": 70,
      "start": 1.831,
      "duration": 0.1231,
      "velocity": 95,
      "chip": "ym2612"
    },
    {
      "channel": 0,
      "note": 55,
      "start": 1.9473,
      "duration": 0.0366,
      "velocity": 79,
      "chip": "ym2612"
    },
    {
      "channel": 1,
      "note": 22,
      "start": 1.95,
      "duration": 0.0951,
      "velocity": 127,
      "chip": "ym2612"
    },
    {
      "channel": 2,
      "note": 75,
      "start": 1.9527,
      "duration": 0.0001,
      "velocity": 1,
      "chip": "ym2612"
    },
    {
      "channel": 3,
      "note": 72,
      "start": 1.9558,
      "duration": 0.1128,
      "velocity": 95,
      "chip": "ym2612"
    },
    {
      "channel": 4,
      "note": 58,
      "start": 1.9586,
      "duration": 0.0282,
      "velocity": 127,
      "chip": "ym2612"
    },
    {
      "channel": 2,
      "note": 75,
      "start": 2.0673,
      "duration": 0.0001,
      "velocity": 1,
      "chip": "ym2612"
    },
    {
      "channel": 3,
      "note": 75,
      "start": 2.0704,
      "duration": 0.1229,
      "velocity": 95,
      "chip": "ym2612"
    },
    {
      "channel": 4,
      "note": 58,
      "start": 2.0732,
      "duration": 0.0322,
      "velocity": 127,
      "chip": "ym2612"
    },
    {
      "channel": 0,
      "note": 48,
      "start": 2.1866,
      "duration": 0.0366,
      "velocity": 79,
      "chip": "ym2612"
    },
    {
      "channel": 1,
      "note": 22,
      "start": 2.1892,
      "duration": 0.0948,
      "velocity": 127,
      "chip": "ym2612"
    },
    {
      "channel": 2,
      "note": 75,
      "start": 2.192,
      "duration": 0.0001,
      "velocity": 1,
      "chip": "ym2612"
    },
    {
      "channel": 3,
      "note": 74,
      "start": 2.1951,
      "duration": 0.1098,
      "velocity": 95,
      "chip": "ym2612"
    },
    {
      "channel": 4,
      "note": 58,
      "start": 2.1978,
      "duration": 0.1267,
      "velocity": 127,
      "chip": "ym2612"
    },
    {
      "channel": 3,
      "note": 70,
      "start": 2.3071,
      "duration": 0.1252,
      "velocity": 95,
      "chip": "ym2612"
    },
    {
      "channel": 0,
      "note": 48,
      "start": 2.4256,
      "duration": 0.0368,
      "velocity": 79,
      "chip": "ym2612"
    },
    {
      "channel": 1,
      "note": 22,
      "start": 2.4283,
      "duration": 0.1151,
      "velocity": 125,
      "chip": "ym2612"
    },
    {
      "channel": 2,
      "note": 75,
      "start": 2.431,
      "duration": 0.0001,
      "velocity": 1,
      "chip": "ym2612"
    },
    {
      "channel": 4,
      "note": 58,
      "start": 2.4347,
      "duration": 0.0306,
      "velocity": 127,
      "chip": "ym2612"
    },
    {
      "channel": 3,
      "note": 75,
      "start": 2.547,
      "duration": 0.1248,
      "velocity": 95,
      "chip": "ym2612"
    },
    {
      "channel": 4,
      "note": 58,
      "start": 2.5498,
      "duration": 0.034,
      "velocity": 127,
      "chip": "ym2612"
    },
    {
      "channel": 0,
      "note": 60,
      "start": 2.665,
      "duration": 0.0366,
      "velocity": 79,
      "chip": "ym2612"
    },
    {
      "channel": 1,
      "note": 24,
      "start": 2.6677,
      "duration": 0.0952,
      "velocity": 127,
      "chip": "ym2612"
    },
    {
      "channel": 2,
      "note": 75,
      "start": 2.6705,
      "duration": 0.0001,
      "velocity": 1,
      "chip": "ym2612"
    },
    {
      "channel": 3,
      "note": 74,
      "start": 2.6735,
      "duration": 0.1152,
      "velocity": 95,
      "chip": "ym2612"
    },
    {
      "channel": 4,
      "note": 58,
      "start": 2.6763,
      "duration": 0.127,
      "velocity": 127,
      "chip": "ym2612"
    },
    {
      "channel": 1,
      "note": 22,
      "start": 2.7848,
      "duration": 0.1202,
      "velocity": 125,
      "chip": "ym2612"
    },
    {
      "channel": 2,
      "note": 75,
      "start": 2.7874,
      "duration": 0.0001,
      "velocity": 1,
      "chip": "ym2612"
    },
    {
      "channel": 3,
      "note": 77,
      "start": 2.7905,
      "duration": 0.1179,
      "velocity": 95,
      "chip": "ym2612"
    },
    {
      "channel": 0,
      "note": 60,
      "start": 2.904,
      "duration": 0.0369,
      "velocity": 79,
      "chip": "ym2612"
    },
    {
      "channel": 1,
      "note": 30,
      "start": 2.9067,
      "duration": 0.0957,
      "velocity": 127,
      "chip": "ym2612"
    },
    {
      "channel": 4,
      "note": 58,
      "start": 2.9109,
      "duration": 0.0329,
      "velocity": 127,
      "chip": "ym2612"
    },
    {
      "channel": 0,
      "note": 58,
      "start": 3.0237,
      "duration": 0.0368,
      "velocity": 79,
      "chip": "ym2612"
    },
    {
      "channel": 1,
      "note": 22,
      "start": 3.0264,
      "duration": 0.1151,
      "velocity": 125,
      "chip": "ym2612"
    },
    {
      "channel": 2,
      "note": 75,
      "start": 3.029,
      "duration": 0.0001,
      "velocity": 1,
      "chip": "ym2612"
    },
    {
      "channel": 4,
      "note": 58,
      "start": 3.0326,
      "duration": 0.031,
      "velocity": 127,
      "chip": "ym2612"
    },
    {
      "channel": 1,
      "note": 30,
      "start": 3.1437,
      "duration": 0.0972,
      "velocity": 127,
      "chip": "ym2612"
    },
    {
      "channel": 2,
      "note": 75,
      "start": 3.1464,
      "duration": 0.0001,
      "velocity": 1,
      "chip": "ym2612"
    },
    {
      "channel": 4,
      "note": 58,
      "start": 3.1499,
      "duration": 0.1316,
      "velocity": 127,
      "chip": "ym2612"
    },
    {
      "channel": 0,
      "note": 58,
      "start": 3.2624,
      "duration": 0.0374,
      "velocity": 79,
      "chip": "ym2612"
    },
    {
      "channel": 1,
      "note": 22,
      "start": 3.3831,
      "duration": 0.12,
      "velocity": 125,
      "chip": "ym2612"
    },
    {
      "channel": 2,
      "note": 75,
      "start": 3.3857,
      "duration": 0.0001,
      "velocity": 1,
      "chip": "ym2612"
    },
    {
      "channel": 3,
      "note": 79,
      "start": 3.3888,
      "duration": 0.1156,
      "velocity": 95,
      "chip": "ym2612"
    },
    {
      "channel": 4,
      "note": 58,
      "start": 3.3916,
      "duration": 0.0305,
      "velocity": 127,
      "chip": "ym2612"
    },
    {
      "channel": 0,
      "note": 58,
      "start": 3.502,
      "duration": 0.037,
      "velocity": 79,
      "chip": "ym2612"
    },
    {
      "channel": 4,
      "note": 58,
      "start": 3.5068,
      "duration": 0.0341,
      "velocity": 127,
      "chip": "ym2612"
    },
    {
      "channel": 0,
      "note": 53,
      "start": 3.622,
      "duration": 0.0366,
      "velocity": 79,
      "chip": "ym2612"
    },
    {
      "channel": 1,
      "note": 24,
      "start": 3.6247,
      "duration": 0.1149,
      "velocity": 125,
      "chip": "ym2612"
    },
    {
      "channel": 2,
      "note": 75,
      "start": 3.6273,
      "duration": 0.0001,
      "velocity": 1,
      "chip": "ym2612"
    },
    {
      "channel": 3,
      "note": 82,
      "start": 3.6304,
      "duration": 0.1154,
      "velocity": 95,
      "chip": "ym2612"
    },
    {
      "channel": 4,
      "note": 58,
      "start": 3.6332,
      "duration": 0.1273,
      "velocity": 127,
      "chip": "ym2612"
    },
    {
      "channel": 1,
      "note": 30,
      "start": 3.7417,
      "duration": 0.0981,
      "velocity": 127,
      "chip": "ym2612"
    },
    {
      "channel": 2,
      "note": 75,
      "start": 3.7445,
      "duration": 0.0001,
      "velocity": 1,
      "chip": "ym2612"
    },
    {
      "channel": 3,
      "note": 77,
      "start": 3.7476,
      "duration": 0.1204,
      "velocity": 95,
      "chip": "ym2612"
    },
    {
      "channel": 0,
      "note": 55,
      "start": 3.8612,
      "duration": 0.0366,
      "velocity": 79,
      "chip": "ym2612"
    },
    {
      "channel": 1,
      "note": 22,
      "start": 3.8639,
      "duration": 0.0951,
      "velocity": 127,
      "chip": "ym2612"
    },
    {
      "channel": 2,
      "note": 74,
      "start": 3.8666,
      "duration": 0.0001,
      "velocity": 1,
      "chip": "ym2612"
    },
    {
      "channel": 3,
      "note": 79,
      "start": 3.8697,
      "duration": 0.1128,
      "velocity": 95,
      "chip": "ym2612"
    },
    {
      "channel": 4,
      "note": 58,
      "start": 3.8725,
      "duration": 0.0282,
      "velocity": 127,
      "chip": "ym2612"
    },
    {
      "channel": 2,
      "note": 74,
      "start": 3.9812,
      "duration": 0.0001,
      "velocity": 1,
      "chip": "ym2612"
    },
    {
      "channel": 3,
      "note": 77,
      "start": 3.9843,
      "duration": 0.1229,
      "velocity": 95,
      "chip": "ym2612"
    },
    {
      "channel": 4,
      "note": 58,
      "start": 3.9871,
      "duration": 0.0322,
      "velocity": 127,
      "chip": "ym2612"
    },
    {
      "channel": 0,
      "note": 46,
      "start": 4.1005,
      "duration": 0.0366,
      "velocity": 79,
      "chip": "ym2612"
    },
    {
      "channel": 1,
      "note": 22,
      "start": 4.1032,
      "duration": 0.0948,
      "velocity": 127,
      "chip": "ym2612"
    },
    {
      "channel": 2,
      "note": 74,
      "start": 4.1059,
      "duration": 0.0001,
      "velocity": 1,
      "chip": "ym2612"
    },
    {
      "channel": 3,
      "note": 75,
      "start": 4.109,
      "duration": 0.1098,
      "velocity": 95,
      "chip": "ym2612"
    },
    {
      "channel": 4,
      "note": 58,
      "start": 4.1117,
      "duration": 0.1267,
      "velocity": 127,
      "chip": "ym2612"
    },
    {
      "channel": 3,
      "note": 74,
      "start": 4.221,
      "duration": 0.1252,
      "velocity": 95,
      "chip": "ym2612"
    },
    {
      "channel": 0,
      "note": 46,
      "start": 4.3396,
      "duration": 0.0367,
      "velocity": 79,
      "chip": "ym2612"
    },
    {
      "channel": 1,
      "note": 22,
      "start": 4.3422,
      "duration": 0.115,
      "velocity": 125,
      "chip": "ym2612"
    },
    {
      "channel": 2,
      "note": 74,
      "start": 4.3449,
      "duration": 0.0001,
      "velocity": 1,
      "chip": "ym2612"
    },
    {
      "channel": 4,
      "note": 58,
      "start": 4.3486,
      "duration": 0.0306,
      "velocity": 127,
      "chip": "ym2612"
    },
    {
      "channel": 4,
      "note": 58,
      "start": 4.4612,
      "duration": 0.0367,
      "velocity": 127,
      "chip": "ym2612"
    },
    {
      "channel": 0,
      "note": 58,
      "start": 4.5788,
      "duration": 0.0368,
      "velocity": 79,
      "chip": "ym2612"
    },
    {
      "channel": 1,
      "note": 24,
      "start": 4.5815,
      "duration": 0.0951,
      "velocity": 127,
      "chip": "ym2612"
    },
    {
      "channel": 2,
      "note": 74,
      "start": 4.5842,
      "duration": 0.0001,
      "velocity": 1,
      "chip": "ym2612"
    },
    {
      "channel": 4,
      "note": 58,
      "start": 4.5878,
      "duration": 0.1295,
      "velocity": 127,
      "chip": "ym2612"
    },
    {
      "channel": 1,
      "note": 22,
      "start": 4.6986,
      "duration": 0.1203,
      "velocity": 125,
      "chip": "ym2612"
    },
    {
      "channel": 2,
      "note": 74,
      "start": 4.7012,
      "duration": 0.0001,
      "velocity": 1,
      "chip": "ym2612"
    },
    {
      "channel": 0,
      "note": 58,
      "start": 4.8179,
      "duration": 0.0369,
      "velocity": 79,
      "chip": "ym2612"
    },
    {
      "channel": 1,
      "note": 30,
      "start": 4.8206,
      "duration": 0.0957,
      "velocity": 127,
      "chip": "ym2612"
    },
    {
      "channel": 4,
      "note": 58,
      "start": 4.8246,
      "duration": 0.0331,
      "velocity": 127,
      "chip": "ym2612"
    },
    {
      "channel": 0,
      "note": 58,
      "start": 4.9377,
      "duration": 0.0367,
      "velocity": 79,
      "chip": "ym2612"
    },
    {
      "channel": 1,
      "note": 22,
      "start": 4.9403,
      "duration": 0.1151,
      "velocity": 125,
      "chip": "ym2612"
    },
    {
      "channel": 2,
      "note": 74,
      "start": 4.943,
      "duration": 0.0001,
      "velocity": 1,
      "chip": "ym2612"
    },
    {
      "channel": 4,
      "note": 58,
      "start": 4.9465,
      "duration": 0.0308,
      "velocity": 127,
      "chip": "ym2612"
    },
    {
      "channel": 1,
      "note": 30,
      "start": 5.0576,
      "duration": 0.0972,
      "velocity": 127,
      "chip": "ym2612"
    },
    {
      "channel": 2,
      "note": 74,
      "start": 5.0603,
      "duration": 0.0001,
      "velocity": 1,
      "chip": "ym2612"
    },
    {
      "channel": 4,
      "note": 58,
      "start": 5.0639,
      "duration": 0.1316,
      "velocity": 127,
      "chip": "ym2612"
    },
    {
      "channel": 0,
      "note": 58,
      "start": 5.1763,
      "duration": 0.0374,
      "velocity": 79,
      "chip": "ym2612"
    },
    {
      "channel": 1,
      "note": 22,
      "start": 5.2967,
      "duration": 0.1203,
      "velocity": 125,
      "chip": "ym2612"
    },
    {
      "channel": 4,
      "note": 58,
      "start": 5.3006,
      "duration": 0.0353,
      "velocity": 127,
      "chip": "ym2612"
    },
    {
      "channel": 0,
      "note": 58,
      "start": 5.4159,
      "duration": 0.037,
      "velocity": 79,
      "chip": "ym2612"
    },
    {
      "channel": 4,
      "note": 58,
      "start": 5.4202,
      "duration": 0.0343,
      "velocity": 127,
      "chip": "ym2612"
    },
    {
      "channel": 0,
      "note": 51,
      "start": 5.5359,
      "duration": 0.0366,
      "velocity": 79,
      "chip": "ym2612"
    },
    {
      "channel": 1,
      "note": 24,
      "start": 5.5386,
      "duration": 0.0951,
      "velocity": 127,
      "chip": "ym2612"
    },
    {
      "channel": 2,
      "note": 74,
      "start": 5.5413,
      "duration": 0.0001,
      "velocity": 1,
      "chip": "ym2612"
    },
    {
      "channel": 3,
      "note": 70,
      "start": 5.5444,
      "duration": 0.1154,
      "velocity": 95,
      "chip": "ym2612"
    },
    {
      "channel": 4,
      "note": 58,
      "start": 5.5472,
      "duration": 0.1272,
      "velocity": 127,
      "chip": "ym2612"
    },
    {
      "channel": 1,
      "note": 22,
      "start": 5.6557,
      "duration": 0.0982,
      "velocity": 127,
      "chip": "ym2612"
    },
    {
      "channel": 2,
      "note": 74,
      "start": 5.6584,
      "duration": 0.0001,
      "velocity": 1,
      "chip": "ym2612"
    },
    {
      "channel": 3,
      "note": 74,
      "start": 5.6615,
      "duration": 0.1204,
      "velocity": 95,
      "chip": "ym2612"
    },
    {
      "channel": 0,
      "note": 53,
      "start": 5.7751,
      "duration": 0.0366,
      "velocity": 79,
      "chip": "ym2612"
    },
    {
      "channel": 1,
      "note": 22,
      "start": 5.7778,
      "duration": 0.0949,
      "velocity": 127,
      "chip": "ym2612"
    },
    {
      "channel": 2,
      "note": 74,
      "start": 5.7805,
      "duration": 0.0001,
      "velocity": 1,
      "chip": "ym2612"
    },
    {
      "channel": 3,
      "note": 75,
      "start": 5.7836,
      "duration": 0.1126,
      "velocity": 95,
      "chip": "ym2612"
    },
    {
      "channel": 4,
      "note": 58,
      "start": 5.7864,
      "duration": 0.0282,
      "velocity": 127,
      "chip": "ym2612"
    },
    {
      "channel": 2,
      "note": 74,
      "start": 5.895,
      "duration": 0.0001,
      "velocity": 1,
      "chip": "ym2612"
    },
    {
      "channel": 4,
      "note": 58,
      "start": 5.8987,
      "duration": 0.0345,
      "velocity": 127,
      "chip": "ym2612"
    },
    {
      "channel": 0,
      "note": 46,
      "start": 6.0142,
      "duration": 0.0367,
      "velocity": 79,
      "chip": "ym2612"
    },
    {
      "channel": 1,
      "note": 22,
      "start": 6.0169,
      "duration": 0.0947,
      "velocity": 127,
      "chip": "ym2612"
    },
    {
      "channel": 2,
      "note": 74,
      "start": 6.0196,
      "duration": 0.0001,
      "velocity": 1,
      "chip": "ym2612"
    },
    {
      "channel": 4,
      "note": 58,
      "start": 6.0232,
      "duration": 0.1292,
      "velocity": 127,
      "chip": "ym2612"
    },
    {
      "channel": 0,
      "note": 46,
      "start": 6.2536,
      "duration": 0.0366,
      "velocity": 79,
      "chip": "ym2612"
    },
    {
      "channel": 1,
      "note": 22,
      "start": 6.2563,
      "duration": 0.1149,
      "velocity": 125,
      "chip": "ym2612"
    },
    {
      "channel": 2,
      "note": 74,
      "start": 6.2589,
      "duration": 0.0001,
      "velocity": 1,
      "chip": "ym2612"
    },
    {
      "channel": 3,
      "note": 78,
      "start": 6.262,
      "duration": 0.1109,
      "velocity": 95,
      "chip": "ym2612"
    },
    {
      "channel": 4,
      "note": 58,
      "start": 6.2648,
      "duration": 0.0283,
      "velocity": 127,
      "chip": "ym2612"
    },
    {
      "channel": 4,
      "note": 58,
      "start": 6.3753,
      "duration": 0.0363,
      "velocity": 127,
      "chip": "ym2612"
    },
    {
      "channel": 0,
      "note": 58,
      "start": 6.4927,
      "duration": 0.0367,
      "velocity": 79,
      "chip": "ym2612"
    },
    {
      "channel": 1,
      "note": 24,
      "start": 6.4954,
      "duration": 0.0951,
      "velocity": 127,
      "chip": "ym2612"
    },
    {
      "channel": 2,
      "note": 74,
      "start": 6.4981,
      "duration": 0.0001,
      "velocity": 1,
      "chip": "ym2612"
    },
    {
      "channel": 4,
      "note": 58,
      "start": 6.5017,
      "duration": 0.1295,
      "velocity": 127,
      "chip": "ym2612"
    },
    {
      "channel": 1,
      "note": 22,
      "start": 6.6125,
      "duration": 0.1205,
      "velocity": 125,
      "chip": "ym2612"
    },
    {
      "channel": 2,
      "note": 74,
      "start": 6.6151,
      "duration": 0.0001,
      "velocity": 1,
      "chip": "ym2612"
    },
    {
      "channel": 0,
      "note": 58,
      "start": 6.732,
      "duration": 0.0367,
      "velocity": 79,
      "chip": "ym2612"
    },
    {
      "channel": 1,
      "note": 30,
      "start": 6.7346,
      "duration": 0.0957,
      "velocity": 127,
      "chip": "ym2612"
    },
    {
      "channel": 3,
      "note": 80,
      "start": 6.7382,
      "duration": 0.1202,
      "velocity": 95,
      "chip": "ym2612"
    },
    {
      "channel": 4,
      "note": 58,
      "start": 6.741,
      "duration": 0.0306,
      "velocity": 127,
      "chip": "ym2612"
    },
    {
      "channel": 0,
      "note": 58,
      "start": 6.8517,
      "duration": 0.0366,
      "velocity": 79,
      "chip": "ym2612"
    },
    {
      "channel": 1,
      "note": 22,
      "start": 6.8544,
      "duration": 0.1151,
      "velocity": 125,
      "chip": "ym2612"
    },
    {
      "channel": 2,
      "note": 74,
      "start": 6.857,
      "duration": 0.0001,
      "velocity": 1,
      "chip": "ym2612"
    },
    {
      "channel": 3,
      "note": 77,
      "start": 6.8601,
      "duration": 0.1156,
      "velocity": 95,
      "chip": "ym2612"
    },
    {
      "channel": 4,
      "note": 58,
      "start": 6.8629,
      "duration": 0.0283,
      "velocity": 127,
      "chip": "ym2612"
    },
    {
      "channel": 1,
      "note": 30,
      "start": 6.9717,
      "duration": 0.0971,
      "velocity": 127,
      "chip": "ym2612"
    },
    {
      "channel": 2,
      "note": 74,
      "start": 6.9744,
      "duration": 0.0001,
      "velocity": 1,
      "chip": "ym2612"
    },
    {
      "channel": 3,
      "note": 75,
      "start": 6.9775,
      "duration": 0.1148,
      "velocity": 95,
      "chip": "ym2612"
    },
    {
      "channel": 4,
      "note": 58,
      "start": 6.9803,
      "duration": 0.1291,
      "velocity": 127,
      "chip": "ym2612"
    },
    {
      "channel": 0,
      "note": 58,
      "start": 7.0902,
      "duration": 0.0374,
      "velocity": 79,
      "chip": "ym2612"
    },
    {
      "channel": 1,
      "note": 22,
      "start": 7.2109,
      "duration": 0.1202,
      "velocity": 125,
      "chip": "ym2612"
    },
    {
      "channel": 2,
      "note": 74,
      "start": 7.2135,
      "duration": 0.0001,
      "velocity": 1,
      "chip": "ym2612"
    },
    {
      "channel": 3,
      "note": 74,
      "start": 7.2166,
      "duration": 0.1158,
      "velocity": 95,
      "chip": "ym2612"
    },
    {
      "channel": 4,
      "note": 58,
      "start": 7.2194,
      "duration": 0.0305,
      "velocity": 127,
      "chip": "ym2612"
    },
    {
      "channel": 0,
      "note": 58,
      "start": 7.3299,
      "duration": 0.0369,
      "velocity": 79,
      "chip": "ym2612"
    },
    {
      "channel": 3,
      "note": 77,
      "start": 7.3341,
      "duration": 0.1223,
      "velocity": 95,
      "chip": "ym2612"
    },
    {
      "channel": 4,
      "note": 58,
      "start": 7.3369,
      "duration": 0.0318,
      "velocity": 127,
      "chip": "ym2612"
    },
    {
      "channel": 0,
      "note": 53,
      "start": 7.4498,
      "duration": 0.0366,
      "velocity": 79,
      "chip": "ym2612"
    },
    {
      "channel": 1,
      "note": 24,
      "start": 7.4525,
      "duration": 0.1176,
      "velocity": 125,
      "chip": "ym2612"
    },
    {
      "channel": 2,
      "note": 77,
      "start": 7.4551,
      "duration": 0.0001,
      "velocity": 1,
      "chip": "ym2612"
    },
    {
      "channel": 3,
      "note": 75,
      "start": 7.4582,
      "duration": 0.1175,
      "velocity": 95,
      "chip": "ym2612"
    },
    {
      "channel": 4,
      "note": 58,
      "start": 7.461,
      "duration": 0.1271,
      "velocity": 127,
      "chip": "ym2612"
    },
    {
      "channel": 0,
      "note": 55,
      "start": 7.5691,
      "duration": 0.0369,
      "velocity": 79,
      "chip": "ym2612"
    },
    {
      "channel": 1,
      "note": 30,
      "start": 7.5718,
      "duration": 0.1182,
      "velocity": 125,
      "chip": "ym2612"
    },
    {
      "channel": 2,
      "note": 77,
      "start": 7.5744,
      "duration": 0.0001,
      "velocity": 1,
      "chip": "ym2612"
    },
    {
      "channel": 0,
      "note": 56,
      "start": 7.6891,
      "duration": 0.0366,
      "velocity": 79,
      "chip": "ym2612"
    },
    {
      "channel": 1,
      "note": 30,
      "start": 7.6917,
      "duration": 0.0951,
      "velocity": 127,
      "chip": "ym2612"
    },
    {
      "channel": 2,
      "note": 75,
      "start": 7.6945,
      "duration": 0.0001,
      "velocity": 1,
      "chip": "ym2612"
    },
    {
      "channel": 3,
      "note": 74,
      "start": 7.6976,
      "duration": 0.1128,
      "velocity": 95,
      "chip": "ym2612"
    },
    {
      "channel": 4,
      "note": 58,
      "start": 7.7003,
      "duration": 0.0282,
      "velocity": 127,
      "chip": "ym2612"
    },
    {
      "channel": 2,
      "note": 75,
      "start": 7.809,
      "duration": 0.0001,
      "velocity": 1,
      "chip": "ym2612"
    },
    {
      "channel": 3,
      "note": 72,
      "start": 7.8121,
      "duration": 0.1229,
      "velocity": 95,
      "chip": "ym2612"
    },
    {
      "channel": 4,
      "note": 58,
      "start": 7.8149,
      "duration": 0.0322,
      "velocity": 127,
      "chip": "ym2612"
    },
    {
      "channel": 0,
      "note": 48,
      "start": 7.9283,
      "duration": 0.0366,
      "velocity": 79,
      "chip": "ym2612"
    },
    {
      "channel": 1,
      "note": 22,
      "start": 7.931,
      "duration": 0.0948,
      "velocity": 127,
      "chip": "ym2612"
    },
    {
      "channel": 2,
      "note": 75,
      "start": 7.9337,
      "duration": 0.0001,
      "velocity": 1,
      "chip": "ym2612"
    },
    {
      "channel": 3,
      "note": 67,
      "start": 7.9368,
      "duration": 0.1098,
      "velocity": 95,
      "chip": "ym2612"
    },
    {
      "channel": 4,
      "note": 58,
      "start": 7.9396,
      "duration": 0.1267,
      "velocity": 127,
      "chip": "ym2612"
    },
    {
      "channel": 3,
      "note": 75,
      "start": 8.0488,
      "duration": 0.1252,
      "velocity": 95,
      "chip": "ym2612"
    },
    {
      "channel": 0,
      "note": 48,
      "start": 8.1674,
      "duration": 0.0368,
      "velocity": 79,
      "chip": "ym2612"
    },
    {
      "channel": 1,
      "note": 22,
      "start": 8.1701,
      "duration": 0.1151,
      "velocity": 125,
      "chip": "ym2612"
    },
    {
      "channel": 2,
      "note": 75,
      "start": 8.1727,
      "duration": 0.0001,
      "velocity": 1,
      "chip": "ym2612"
    },
    {
      "channel": 4,
      "note": 58,
      "start": 8.1764,
      "duration": 0.0306,
      "velocity": 127,
      "chip": "ym2612"
    },
    {
      "channel": 3,
      "note": 74,
      "start": 8.2888,
      "duration": 0.1248,
      "velocity": 95,
      "chip": "ym2612"
    },
    {
      "channel": 4,
      "note": 58,
      "start": 8.2915,
      "duration": 0.034,
      "velocity": 127,
      "chip": "ym2612"
    },
    {
      "channel": 0,
      "note": 60,
      "start": 8.4068,
      "duration": 0.0366,
      "velocity": 79,
      "chip": "ym2612"
    },
    {
      "channel": 1,
      "note": 24,
      "start": 8.4095,
      "duration": 0.0952,
      "velocity": 127,
      "chip": "ym2612"
    },
    {
      "channel": 2,
      "note": 75,
      "start": 8.4122,
      "duration": 0.0001,
      "velocity": 1,
      "chip": "ym2612"
    },
    {
      "channel": 3,
      "note": 70,
      "start": 8.4153,
      "duration": 0.1152,
      "velocity": 95,
      "chip": "ym2612"
    },
    {
      "channel": 4,
      "note": 58,
      "start": 8.418,
      "duration": 0.1271,
      "velocity": 127,
      "chip": "ym2612"
    },
    {
      "channel": 1,
      "note": 22,
      "start": 8.5266,
      "duration": 0.1202,
      "velocity": 125,
      "chip": "ym2612"
    },
    {
      "channel": 2,
      "note": 75,
      "start": 8.5292,
      "duration": 0.0001,
      "velocity": 1,
      "chip": "ym2612"
    },
    {
      "channel": 3,
      "note": 67,
      "start": 8.5323,
      "duration": 0.1179,
      "velocity": 95,
      "chip": "ym2612"
    },
    {
      "channel": 0,
      "note": 60,
      "start": 8.6457,
      "duration": 0.0369,
      "velocity": 79,
      "chip": "ym2612"
    },
    {
      "channel": 1,
      "note": 30,
      "start": 8.6484,
      "duration": 0.0959,
      "velocity": 127,
      "chip": "ym2612"
    },
    {
      "channel": 4,
      "note": 58,
      "start": 8.6526,
      "duration": 0.0329,
      "velocity": 127,
      "chip": "ym2612"
    },
    {
      "channel": 0,
      "note": 58,
      "start": 8.7656,
      "duration": 0.0366,
      "velocity": 79,
      "chip": "ym2612"
    },
    {
      "channel": 1,
      "note": 22,
      "start": 8.7683,
      "duration": 0.1151,
      "velocity": 125,
      "chip": "ym2612"
    },
    {
      "channel": 2,
      "note": 75,
      "start": 8.771,
      "duration": 0.0001,
      "velocity": 1,
      "chip": "ym2612"
    },
    {
      "channel": 3,
      "note": 72,
      "start": 8.774,
      "duration": 0.1156,
      "velocity": 95,
      "chip": "ym2612"
    },
    {
      "channel": 4,
      "note": 58,
      "start": 8.7768,
      "duration": 0.0284,
      "velocity": 127,
      "chip": "ym2612"
    },
    {
      "channel": 1,
      "note": 30,
      "start": 8.8856,
      "duration": 0.0973,
      "velocity": 127,
      "chip": "ym2612"
    },
    {
      "channel": 2,
      "note": 75,
      "start": 8.8883,
      "duration": 0.0001,
      "velocity": 1,
      "chip": "ym2612"
    },
    {
      "channel": 3,
      "note": 67,
      "start": 8.8914,
      "duration": 0.115,
      "velocity": 95,
      "chip": "ym2612"
    },
    {
      "channel": 4,
      "note": 58,
      "start": 8.8942,
      "duration": 0.1291,
      "velocity": 127,
      "chip": "ym2612"
    },
    {
      "channel": 0,
      "note": 58,
      "start": 9.0044,
      "duration": 0.037,
      "velocity": 79,
      "chip": "ym2612"
    },
    {
      "channel": 3,
      "note": 75,
      "start": 9.0081,
      "duration": 0.118,
      "velocity": 95,
      "chip": "ym2612"
    },
    {
      "channel": 1,
      "note": 22,
      "start": 9.1245,
      "duration": 0.1205,
      "velocity": 125,
      "chip": "ym2612"
    },
    {
      "channel": 4,
      "note": 58,
      "start": 9.1287,
      "duration": 0.035,
      "velocity": 127,
      "chip": "ym2612"
    },
    {
      "channel": 0,
      "note": 58,
      "start": 9.2439,
      "duration": 0.0369,
      "velocity": 79,
      "chip": "ym2612"
    },
    {
      "channel": 3,
      "note": 74,
      "start": 9.2477,
      "duration": 0.1227,
      "velocity": 95,
      "chip": "ym2612"
    },
    {
      "channel": 4,
      "note": 58,
      "start": 9.2505,
      "duration": 0.0318,
      "velocity": 127,
      "chip": "ym2612"
    },
    {
      "channel": 0,
      "note": 53,
      "start": 9.3637,
      "duration": 0.0366,
      "velocity": 79,
      "chip": "ym2612"
    },
    {
      "channel": 1,
      "note": 24,
      "start": 9.3664,
      "duration": 0.0947,
      "velocity": 127,
      "chip": "ym2612"
    },
    {
      "channel": 2,
      "note": 75,
      "start": 9.3691,
      "duration": 0.0001,
      "velocity": 1,
      "chip": "ym2612"
    },
    {
      "channel": 3,
      "note": 70,
      "start": 9.3722,
      "duration": 0.1124,
      "velocity": 95,
      "chip": "ym2612"
    },
    {
      "channel": 4,
      "note": 58,
      "start": 9.375,
      "duration": 0.1267,
      "velocity": 127,
      "chip": "ym2612"
    },
    {
      "channel": 2,
      "note": 75,
      "start": 9.4834,
      "duration": 0.0001,
      "velocity": 1,
      "chip": "ym2612"
    },
    {
      "channel": 0,
      "note": 55,
      "start": 9.603,
      "duration": 0.0366,
      "velocity": 79,
      "chip": "ym2612"
    },
    {
      "channel": 1,
      "note": 22,
      "start": 9.6056,
      "duration": 0.0951,
      "velocity": 127,
      "chip": "ym2612"
    },
    {
      "channel": 2,
      "note": 75,
      "start": 9.6084,
      "duration": 0.0001,
      "velocity": 1,
      "chip": "ym2612"
    },
    {
      "channel": 3,
      "note": 67,
      "start": 9.6115,
      "duration": 0.1128,
      "velocity": 95,
      "chip": "ym2612"
    },
    {
      "channel": 4,
      "note": 58,
      "start": 9.6142,
      "duration": 0.0282,
      "velocity": 127,
      "chip": "ym2612"
    },
    {
      "channel": 2,
      "note": 75,
      "start": 9.7229,
      "duration": 0.0001,
      "velocity": 1,
      "chip": "ym2612"
    },
    {
      "channel": 3,
      "note": 77,
      "start": 9.726,
      "duration": 0.1229,
      "velocity": 95,
      "chip": "ym2612"
    },
    {
      "channel": 4,
      "note": 58,
      "start": 9.7288,
      "duration": 0.0322,
      "velocity": 127,
      "chip": "ym2612"
    },
    {
      "channel": 0,
      "note": 48,
      "start": 9.8422,
      "duration": 0.0366,
      "velocity": 79,
      "chip": "ym2612"
    },
    {
      "channel": 1,
      "note": 22,
      "start": 9.8449,
      "duration": 0.0948,
      "velocity": 127,
      "chip": "ym2612"
    },
    {
      "channel": 2,
      "note": 75,
      "start": 9.8476,
      "duration": 0.0001,
      "velocity": 1,
      "chip": "ym2612"
    },
    {
      "channel": 3,
      "note": 79,
      "start": 9.8507,
      "duration": 0.1098,
      "velocity": 95,
      "chip": "ym2612"
    },
    {
      "channel": 4,
      "note": 58,
      "start": 9.8535,
      "duration": 0.1267,
      "velocity": 127,
      "chip": "ym2612"
    },
    {
      "channel": 3,
      "note": 75,
      "start": 9.9627,
      "duration": 0.1252,
      "velocity": 95,
      "chip": "ym2612"
    },
    {
      "channel": 0,
      "note": 48,
      "start": 10.0813,
      "duration": 0.0367,
      "velocity": 79,
      "chip": "ym2612"
    },
    {
      "channel": 1,
      "note": 22,
      "start": 10.084,
      "duration": 0.1151,
      "velocity": 125,
      "chip": "ym2612"
    },
    {
      "channel": 2,
      "note": 75,
      "start": 10.0866,
      "duration": 0.0001,
      "velocity": 1,
      "chip": "ym2612"
    },
    {
      "channel": 4,
      "note": 58,
      "start": 10.0903,
      "duration": 0.0307,
      "velocity": 127,
      "chip": "ym2612"
    },
    {
      "channel": 3,
      "note": 72,
      "start": 10.2027,
      "duration": 0.1248,
      "velocity": 95,
      "chip": "ym2612"
    },
    {
      "channel": 4,
      "note": 58,
      "start": 10.2055,
      "duration": 0.034,
      "velocity": 127,
      "chip": "ym2612"
    },
    {
      "channel": 0,
      "note": 60,
      "start": 10.3207,
      "duration": 0.0366,
      "velocity": 79,
      "chip": "ym2612"
    },
    {
      "channel": 1,
      "note": 24,
      "start": 10.3234,
      "duration": 0.0952,
      "velocity": 127,
      "chip": "ym2612"
    },
    {
      "channel": 2,
      "note": 75,
      "start": 10.3261,
      "duration": 0.0001,
      "velocity": 1,
      "chip": "ym2612"
    },
    {
      "channel": 3,
      "note": 75,
      "start": 10.3292,
      "duration": 0.1152,
      "velocity": 95,
      "chip": "ym2612"
    },
    {
      "channel": 4,
      "note": 58,
      "start": 10.332,
      "duration": 0.1271,
      "velocity": 127,
      "chip": "ym2612"
    },
    {
      "channel": 1,
      "note": 22,
      "start": 10.4405,
      "duration": 0.1202,
      "velocity": 125,
      "chip": "ym2612"
    },
    {
      "channel": 2,
      "note": 75,
      "start": 10.4431,
      "duration": 0.0001,
      "velocity": 1,
      "chip": "ym2612"
    },
    {
      "channel": 3,
      "note": 72,
      "start": 10.4462,
      "duration": 0.1179,
      "velocity": 95,
      "chip": "ym2612"
    },
    {
      "channel": 0,
      "note": 60,
      "start": 10.5596,
      "duration": 0.0369,
      "velocity": 79,
      "chip": "ym2612"
    },
    {
      "channel": 1,
      "note": 30,
      "start": 10.5623,
      "duration": 0.0957,
      "velocity": 127,
      "chip": "ym2612"
    },
    {
      "channel": 4,
      "note": 58,
      "start": 10.5665,
      "duration": 0.0329,
      "velocity": 127,
      "chip": "ym2612"
    },
    {
      "channel": 0,
      "note": 58,
      "start": 10.6794,
      "duration": 0.0367,
      "velocity": 79,
      "chip": "ym2612"
    },
    {
      "channel": 1,
      "note": 22,
      "start": 10.6821,
      "duration": 0.1153,
      "velocity": 125,
      "chip": "ym2612"
    },
    {
      "channel": 2,
      "note": 75,
      "start": 10.6847,
      "duration": 0.0001,
      "velocity": 1,
      "chip": "ym2612"
    },
    {
      "channel": 4,
      "note": 58,
      "start": 10.6883,
      "duration": 0.0311,
      "velocity": 127,
      "chip": "ym2612"
    },
    {
      "channel": 1,
      "note": 30,
      "start": 10.7995,
      "duration": 0.0971,
      "velocity": 127,
      "chip": "ym2612"
    },
    {
      "channel": 2,
      "note": 75,
      "start": 10.8022,
      "duration": 0.0001,
      "velocity": 1,
      "chip": "ym2612"
    },
    {
      "channel": 3,
      "note": 80,
      "start": 10.8053,
      "duration": 0.1148,
      "velocity": 95,
      "chip": "ym2612"
    },
    {
      "channel": 4,
      "note": 58,
      "start": 10.8081,
      "duration": 0.1291,
      "velocity": 127,
      "chip": "ym2612"
    },
    {
      "channel": 0,
      "note": 58,
      "start": 10.918,
      "duration": 0.0374,
      "velocity": 79,
      "chip": "ym2612"
    },
    {
      "channel": 1,
      "note": 22,
      "start": 11.0387,
      "duration": 0.12,
      "velocity": 125,
      "chip": "ym2612"
    },
    {
      "channel": 2,
      "note": 75,
      "start": 11.0413,
      "duration": 0.0001,
      "velocity": 1,
      "chip": "ym2612"
    },
    {
      "channel": 3,
      "note": 79,
      "start": 11.0444,
      "duration": 0.1156,
      "velocity": 95,
      "chip": "ym2612"
    },
    {
      "channel": 4,
      "note": 58,
      "start": 11.0472,
      "duration": 0.0304,
      "velocity": 127,
      "chip": "ym2612"
    },
    {
      "channel": 0,
      "note": 58,
      "start": 11.1576,
      "duration": 0.037,
      "velocity": 79,
      "chip": "ym2612"
    },
    {
      "channel": 4,
      "note": 58,
      "start": 11.1625,
      "duration": 0.0341,
      "velocity": 127,
      "chip": "ym2612"
    },
    {
      "channel": 0,
      "note": 53,
      "start": 11.2776,
      "duration": 0.0366,
      "velocity": 79,
      "chip": "ym2612"
    },
    {
      "channel": 1,
      "note": 24,
      "start": 11.2803,
      "duration": 0.1149,
      "velocity": 125,
      "chip": "ym2612"
    },
    {
      "channel": 2,
      "note": 75,
      "start": 11.2829,
      "duration": 0.0001,
      "velocity": 1,
      "chip": "ym2612"
    },
    {
      "channel": 3,
      "note": 77,
      "start": 11.286,
      "duration": 0.1154,
      "velocity": 95,
      "chip": "ym2612"
    },
    {
      "channel": 4,
      "note": 58,
      "start": 11.2888,
      "duration": 0.1273,
      "velocity": 127,
      "chip": "ym2612"
    },
    {
      "channel": 1,
      "note": 30,
      "start": 11.3974,
      "duration": 0.0982,
      "velocity": 127,
      "chip": "ym2612"
    },
    {
      "channel": 2,
      "note": 75,
      "start": 11.4001,
      "duration": 0.0001,
      "velocity": 1,
      "chip": "ym2612"
    },
    {
      "channel": 3,
      "note": 75,
      "start": 11.4032,
      "duration": 0.1204,
      "velocity": 95,
      "chip": "ym2612"
    },
    {
      "channel": 0,
      "note": 55,
      "start": 11.5169,
      "duration": 0.0366,
      "velocity": 79,
      "chip": "ym2612"
    },
    {
      "channel": 1,
      "note": 22,
      "start": 11.5195,
      "duration": 0.0949,
      "velocity": 127,
      "chip": "ym2612"
    },
    {
      "channel": 2,
      "note": 74,
      "start": 11.5223,
      "duration": 0.0001,
      "velocity": 1,
      "chip": "ym2612"
    },
    {
      "channel": 3,
      "note": 77,
      "start": 11.5254,
      "duration": 0.1126,
      "velocity": 95,
      "chip": "ym2612"
    },
    {
      "channel": 4,
      "note": 58,
      "start": 11.5282,
      "duration": 0.0282,
      "velocity": 127,
      "chip": "ym2612"
    },
    {
      "channel": 2,
      "note": 74,
      "start": 11.6367,
      "duration": 0.0001,
      "velocity": 1,
      "chip": "ym2612"
    },
    {
      "channel": 4,
      "note": 58,
      "start": 11.6404,
      "duration": 0.0345,
      "velocity": 127,
      "chip": "ym2612"
    },
    {
      "channel": 0,
      "note": 46,
      "start": 11.756,
      "duration": 0.0367,
      "velocity": 79,
      "chip": "ym2612"
    },
    {
      "channel": 1,
      "note": 22,
      "start": 11.7587,
      "duration": 0.0947,
      "velocity": 127,
      "chip": "ym2612"
    },
    {
      "channel": 2,
      "note": 74,
      "start": 11.7614,
      "duration": 0.0001,
      "velocity": 1,
      "chip": "ym2612"
    },
    {
      "channel": 4,
      "note": 58,
      "start": 11.7649,
      "duration": 0.1292,
      "velocity": 127,
      "chip": "ym2612"
    },
    {
      "channel": 0,
      "note": 46,
      "start": 11.9952,
      "duration": 0.0368,
      "velocity": 79,
      "chip": "ym2612"
    },
    {
      "channel": 1,
      "note": 22,
      "start": 11.9979,
      "duration": 0.115,
      "velocity": 125,
      "chip": "ym2612"
    },
    {
      "channel": 2,
      "note": 74,
      "start": 12.0005,
      "duration": 0.0001,
      "velocity": 1,
      "chip": "ym2612"
    },
    {
      "channel": 4,
      "note": 58,
      "start": 12.0041,
      "duration": 0.0308,
      "velocity": 127,
      "chip": "ym2612"
    },
    {
      "channel": 4,
      "note": 58,
      "start": 12.1169,
      "duration": 0.0365,
      "velocity": 127,
      "chip": "ym2612"
    },
    {
      "channel": 0,
      "note": 58,
      "start": 12.2345,
      "duration": 0.0367,
      "velocity": 79,
      "chip": "ym2612"
    },
    {
      "channel": 1,
      "note": 24,
      "start": 12.2371,
      "duration": 0.0951,
      "velocity": 127,
      "chip": "ym2612"
    },
    {
      "channel": 2,
      "note": 74,
      "start": 12.2399,
      "duration": 0.0001,
      "velocity": 1,
      "chip": "ym2612"
    },
    {
      "channel": 4,
      "note": 58,
      "start": 12.2434,
      "duration": 0.1295,
      "velocity": 127,
      "chip": "ym2612"
    },
    {
      "channel": 1,
      "note": 22,
      "start": 12.3542,
      "duration": 0.1203,
      "velocity": 125,
      "chip": "ym2612"
    },
    {
      "channel": 2,
      "note": 74,
      "start": 12.3568,
      "duration": 0.0001,
      "velocity": 1,
      "chip": "ym2612"
    },
    {
      "channel": 0,
      "note": 58,
      "start": 12.4736,
      "duration": 0.0369,
      "velocity": 79,
      "chip": "ym2612"
    },
    {
      "channel": 1,
      "note": 30,
      "start": 12.4762,
      "duration": 0.0957,
      "velocity": 127,
      "chip": "ym2612"
    },
    {
      "channel": 4,
      "note": 58,
      "start": 12.4802,
      "duration": 0.0331,
      "velocity": 127,
      "chip": "ym2612"
    },
    {
      "channel": 0,
      "note": 58,
      "start": 12.5933,
      "duration": 0.0368,
      "velocity": 79,
      "chip": "ym2612"
    },
    {
      "channel": 1,
      "note": 22,
      "start": 12.596,
      "duration": 0.1151,
      "velocity": 125,
      "chip": "ym2612"
    },
    {
      "channel": 2,
      "note": 74,
      "start": 12.5986,
      "duration": 0.0001,
      "velocity": 1,
      "chip": "ym2612"
    },
    {
      "channel": 4,
      "note": 58,
      "start": 12.6022,
      "duration": 0.0308,
      "velocity": 127,
      "chip": "ym2612"
    },
    {
      "channel": 1,
      "note": 30,
      "start": 12.7132,
      "duration": 0.0972,
      "velocity": 127,
      "chip": "ym2612"
    },
    {
      "channel": 2,
      "note": 74,
      "start": 12.716,
      "duration": 0.0001,
      "velocity": 1,
      "chip": "ym2612"
    },
    {
      "channel": 4,
      "note": 58,
      "start": 12.7195,
      "duration": 0.1316,
      "velocity": 127,
      "chip": "ym2612"
    },
    {
      "channel": 0,
      "note": 58,
      "start": 12.832,
      "duration": 0.0373,
      "velocity": 79,
      "chip": "ym2612"
    },
    {
      "channel": 1,
      "note": 22,
      "start": 12.9524,
      "duration": 0.1203,
      "velocity": 125,
      "chip": "ym2612"
    },
    {
      "channel": 4,
      "note": 58,
      "start": 12.9563,
      "duration": 0.0353,
      "velocity": 127,
      "chip": "ym2612"
    },
    {
      "channel": 0,
      "note": 58,
      "start": 13.0715,
      "duration": 0.037,
      "velocity": 79,
      "chip": "ym2612"
    },
    {
      "channel": 4,
      "note": 58,
      "start": 13.0759,
      "duration": 0.0343,
      "velocity": 127,
      "chip": "ym2612"
    },
    {
      "channel": 0,
      "note": 51,
      "start": 13.1914,
      "duration": 0.0367,
      "velocity": 79,
      "chip": "ym2612"
    },
    {
      "channel": 1,
      "note": 24,
      "start": 13.1941,
      "duration": 0.0951,
      "velocity": 127,
      "chip": "ym2612"
    },
    {
      "channel": 2,
      "note": 74,
      "start": 13.1968,
      "duration": 0.0001,
      "velocity": 1,
      "chip": "ym2612"
    },
    {
      "channel": 4,
      "note": 58,
      "start": 13.2004,
      "duration": 0.1296,
      "velocity": 127,
      "chip": "ym2612"
    },
    {
      "channel": 1,
      "note": 22,
      "start": 13.3112,
      "duration": 0.0983,
      "velocity": 127,
      "chip": "ym2612"
    },
    {
      "channel": 2,
      "note": 74,
      "start": 13.3139,
      "duration": 0.0001,
      "velocity": 1,
      "chip": "ym2612"
    },
    {
      "channel": 0,
      "note": 53,
      "start": 13.4308,
      "duration": 0.0366,
      "velocity": 79,
      "chip": "ym2612"
    },
    {
      "channel": 1,
      "note": 22,
      "start": 13.4335,
      "duration": 0.0949,
      "velocity": 127,
      "chip": "ym2612"
    },
    {
      "channel": 2,
      "note": 74,
      "start": 13.4362,
      "duration": 0.0001,
      "velocity": 1,
      "chip": "ym2612"
    },
    {
      "channel": 3,
      "note": 73,
      "start": 13.4393,
      "duration": 0.1126,
      "velocity": 95,
      "chip": "ym2612"
    },
    {
      "channel": 4,
      "note": 58,
      "start": 13.4421,
      "duration": 0.0282,
      "velocity": 127,
      "chip": "ym2612"
    },
    {
      "channel": 2,
      "note": 74,
      "start": 13.5506,
      "duration": 0.0001,
      "velocity": 1,
      "chip": "ym2612"
    },
    {
      "channel": 4,
      "note": 58,
      "start": 13.5544,
      "duration": 0.0345,
      "velocity": 127,
      "chip": "ym2612"
    },
    {
      "channel": 0,
      "note": 46,
      "start": 13.6699,
      "duration": 0.0368,
      "velocity": 79,
      "chip": "ym2612"
    },
    {
      "channel": 1,
      "note": 22,
      "start": 13.6726,
      "duration": 0.0947,
      "velocity": 127,
      "chip": "ym2612"
    },
    {
      "channel": 2,
      "note": 74,
      "start": 13.6753,
      "duration": 0.0001,
      "velocity": 1,
      "chip": "ym2612"
    },
    {
      "channel": 4,
      "note": 58,
      "start": 13.6788,
      "duration": 0.1292,
      "velocity": 127,
      "chip": "ym2612"
    },
    {
      "channel": 0,
      "note": 46,
      "start": 13.9093,
      "duration": 0.0366,
      "velocity": 79,
      "chip": "ym2612"
    },
    {
      "channel": 1,
      "note": 22,
      "start": 13.912,
      "duration": 0.1148,
      "velocity": 125,
      "chip": "ym2612"
    },
    {
      "channel": 2,
      "note": 74,
      "start": 13.9146,
      "duration": 0.0001,
      "velocity": 1,
      "chip": "ym2612"
    },
    {
      "channel": 3,
      "note": 71,
      "start": 13.9177,
      "duration": 0.1109,
      "velocity": 95,
      "chip": "ym2612"
    },
    {
      "channel": 4,
      "note": 58,
      "start": 13.9205,
      "duration": 0.0284,
      "velocity": 127,
      "chip": "ym2612"
    },
    {
      "channel": 4,
      "note": 58,
      "start": 14.031,
      "duration": 0.0363,
      "velocity": 127,
      "chip": "ym2612"
    },
    {
      "channel": 0,
      "note": 58,
      "start": 14.1484,
      "duration": 0.0368,
      "velocity": 79,
      "chip": "ym2612"
    },
    {
      "channel": 1,
      "note": 24,
      "start": 14.1511,
      "duration": 0.0951,
      "velocity": 127,
      "chip": "ym2612"
    },
    {
      "channel": 2,
      "note": 74,
      "start": 14.1538,
      "duration": 0.0001,
      "velocity": 1,
      "chip": "ym2612"
    },
    {
      "channel": 4,
      "note": 58,
      "start": 14.1573,
      "duration": 0.1295,
      "velocity": 127,
      "chip": "ym2612"
    },
    {
      "channel": 1,
      "note": 22,
      "start": 14.2681,
      "duration": 0.1205,
      "velocity": 125,
      "chip": "ym2612"
    },
    {
      "channel": 2,
      "note": 74,
      "start": 14.2708,
      "duration": 0.0001,
      "velocity": 1,
      "chip": "ym2612"
    },
    {
      "channel": 0,
      "note": 58,
      "start": 14.3876,
      "duration": 0.0367,
      "velocity": 79,
      "chip": "ym2612"
    },
    {
      "channel": 1,
      "note": 30,
      "start": 14.3903,
      "duration": 0.0956,
      "velocity": 127,
      "chip": "ym2612"
    },
    {
      "channel": 3,
      "note": 73,
      "start": 14.3939,
      "duration": 0.1199,
      "velocity": 95,
      "chip": "ym2612"
    },
    {
      "channel": 4,
      "note": 58,
      "start": 14.3967,
      "duration": 0.0306,
      "velocity": 127,
      "chip": "ym2612"
    },
    {
      "channel": 0,
      "note": 58,
      "start": 14.5072,
      "duration": 0.0368,
      "velocity": 79,
      "chip": "ym2612"
    },
    {
      "channel": 1,
      "note": 22,
      "start": 14.5099,
      "duration": 0.1151,
      "velocity": 125,
      "chip": "ym2612"
    },
    {
      "channel": 2,
      "note": 74,
      "start": 14.5125,
      "duration": 0.0001,
      "velocity": 1,
      "chip": "ym2612"
    },
    {
      "channel": 4,
      "note": 58,
      "start": 14.5163,
      "duration": 0.0306,
      "velocity": 127,
      "chip": "ym2612"
    },
    {
      "channel": 1,
      "note": 30,
      "start": 14.6272,
      "duration": 0.0972,
      "velocity": 127,
      "chip": "ym2612"
    },
    {
      "channel": 2,
      "note": 74,
      "start": 14.6299,
      "duration": 0.0001,
      "velocity": 1,
      "chip": "ym2612"
    },
    {
      "channel": 4,
      "note": 58,
      "start": 14.6334,
      "duration": 0.1316,
      "velocity": 127,
      "chip": "ym2612"
    },
    {
      "channel": 0,
      "note": 58,
      "start": 14.7459,
      "duration": 0.0373,
      "velocity": 79,
      "chip": "ym2612"
    },
    {
      "channel": 1,
      "note": 22,
      "start": 14.8666,
      "duration": 0.1202,
      "velocity": 125,
      "chip": "ym2612"
    },
    {
      "channel": 2,
      "note": 74,
      "start": 14.8692,
      "duration": 0.0001,
      "velocity": 1,
      "chip": "ym2612"
    },
    {
      "channel": 3,
      "note": 76,
      "start": 14.8723,
      "duration": 0.1158,
      "velocity": 95,
      "chip": "ym2612"
    },
    {
      "channel": 4,
      "note": 58,
      "start": 14.8751,
      "duration": 0.0305,
      "velocity": 127,
      "chip": "ym2612"
    },
    {
      "channel": 0,
      "note": 58,
      "start": 14.9856,
      "duration": 0.0369,
      "velocity": 79,
      "chip": "ym2612"
    },
    {
      "channel": 3,
      "note": 74,
      "start": 14.9898,
      "duration": 0.1223,
      "velocity": 95,
      "chip": "ym2612"
    },
    {
      "channel": 4,
      "note": 58,
      "start": 14.9926,
      "duration": 0.0318,
      "velocity": 127,
      "chip": "ym2612"
    },
    {
      "channel": 0,
      "note": 53,
      "start": 15.1055,
      "duration": 0.0366,
      "velocity": 79,
      "chip": "ym2612"
    },
    {
      "channel": 1,
      "note": 24,
      "start": 15.1081,
      "duration": 0.1176,
      "velocity": 125,
      "chip": "ym2612"
    },
    {
      "channel": 2,
      "note": 77,
      "start": 15.1108,
      "duration": 0.0001,
      "velocity": 1,
      "chip": "ym2612"
    },
    {
      "channel": 3,
      "note": 70,
      "start": 15.1139,
      "duration": 0.1175,
      "velocity": 95,
      "chip": "ym2612"
    },
    {
      "channel": 4,
      "note": 58,
      "start": 15.1166,
      "duration": 0.1271,
      "velocity": 127,
      "chip": "ym2612"
    },
    {
      "channel": 0,
      "note": 55,
      "start": 15.2248,
      "duration": 0.0369,
      "velocity": 79,
      "chip": "ym2612"
    },
    {
      "channel": 1,
      "note": 30,
      "start": 15.2275,
      "duration": 0.1182,
      "velocity": 125,
      "chip": "ym2612"
    },
    {
      "channel": 2,
      "note": 77,
      "start": 15.2301,
      "duration": 0.0001,
      "velocity": 1,
      "chip": "ym2612"
    },
    {
      "channel": 0,
      "note": 56,
      "start": 15.3447,
      "duration": 0.0366,
      "velocity": 79,
      "chip": "ym2612"
    },
    {
      "channel": 1,
      "note": 30,
      "start": 15.3474,
      "duration": 0.0949,
      "velocity": 127,
      "chip": "ym2612"
    },
    {
      "channel": 2,
      "note": 72,
      "start": 15.3501,
      "duration": 0.0001,
      "velocity": 1,
      "chip": "ym2612"
    },
    {
      "channel": 3,
      "note": 67,
      "start": 15.3532,
      "duration": 0.1126,
      "velocity": 95,
      "chip": "ym2612"
    },
    {
      "channel": 4,
      "note": 58,
      "start": 15.356,
      "duration": 0.0282,
      "velocity": 127,
      "chip": "ym2612"
    },
    {
      "channel": 2,
      "note": 72,
      "start": 15.4645,
      "duration": 0.0001,
      "velocity": 1,
      "chip": "ym2612"
    },
    {
      "channel": 4,
      "note": 58,
      "start": 15.4683,
      "duration": 0.0345,
      "velocity": 127,
      "chip": "ym2612"
    },
    {
      "channel": 0,
      "note": 44,
      "start": 15.5838,
      "duration": 0.0368,
      "velocity": 79,
      "chip": "ym2612"
    },
    {
      "channel": 1,
      "note": 22,
      "start": 15.5865,
      "duration": 0.0947,
      "velocity": 127,
      "chip": "ym2612"
    },
    {
      "channel": 2,
      "note": 72,
      "start": 15.5892,
      "duration": 0.0001,
      "velocity": 1,
      "chip": "ym2612"
    },
    {
      "channel": 4,
      "note": 58,
      "start": 15.5927,
      "duration": 0.1292,
      "velocity": 127,
      "chip": "ym2612"
    },
    {
      "channel": 0,
      "note": 44,
      "start": 15.8231,
      "duration": 0.0367,
      "velocity": 79,
      "chip": "ym2612"
    },
    {
      "channel": 1,
      "note": 22,
      "start": 15.8257,
      "duration": 0.115,
      "velocity": 125,
      "chip": "ym2612"
    },
    {
      "channel": 2,
      "note": 72,
      "start": 15.8284,
      "duration": 0.0001,
      "velocity": 1,
      "chip": "ym2612"
    },
    {
      "channel": 4,
      "note": 58,
      "start": 15.8319,
      "duration": 0.0308,
      "velocity": 127,
      "chip": "ym2612"
    },
    {
      "channel": 4,
      "note": 58,
      "start": 15.9447,
      "duration": 0.0365,
      "velocity": 127,
      "chip": "ym2612"
    },
    {
      "channel": 0,
      "note": 56,
      "start": 16.0623,
      "duration": 0.0368,
      "velocity": 79,
      "chip": "ym2612"
    },
    {
      "channel": 1,
      "note": 24,
      "start": 16.065,
      "duration": 0.0951,
      "velocity": 127,
      "chip": "ym2612"
    },
    {
      "channel": 2,
      "note": 72,
      "start": 16.0677,
      "duration": 0.0001,
      "velocity": 1,
      "chip": "ym2612"
    },
    {
      "channel": 4,
      "note": 58,
      "start": 16.0712,
      "duration": 0.1295,
      "velocity": 127,
      "chip": "ym2612"
    },
    {
      "channel": 1,
      "note": 22,
      "start": 16.1821,
      "duration": 0.1203,
      "velocity": 125,
      "chip": "ym2612"
    },
    {
      "channel": 2,
      "note": 72,
      "start": 16.1847,
      "duration": 0.0001,
      "velocity": 1,
      "chip": "ym2612"
    },
    {
      "channel": 0,
      "note": 56,
      "start": 16.3014,
      "duration": 0.0369,
      "velocity": 79,
      "chip": "ym2612"
    },
    {
      "channel": 1,
      "note": 30,
      "start": 16.3041,
      "duration": 0.0957,
      "velocity": 127,
      "chip": "ym2612"
    },
    {
      "channel": 4,
      "note": 58,
      "start": 16.3081,
      "duration": 0.0331,
      "velocity": 127,
      "chip": "ym2612"
    },
    {
      "channel": 0,
      "note": 56,
      "start": 16.4212,
      "duration": 0.0367,
      "velocity": 79,
      "chip": "ym2612"
    },
    {
      "channel": 1,
      "note": 22,
      "start": 16.4238,
      "duration": 0.1151,
      "velocity": 125,
      "chip": "ym2612"
    },
    {
      "channel": 2,
      "note": 72,
      "start": 16.4265,
      "duration": 0.0001,
      "velocity": 1,
      "chip": "ym2612"
    },
    {
      "channel": 4,
      "note": 58,
      "start": 16.43,
      "duration": 0.0308,
      "velocity": 127,
      "chip": "ym2612"
    },
    {
      "channel": 1,
      "note": 30,
      "start": 16.5411,
      "duration": 0.0972,
      "velocity": 127,
      "chip": "ym2612"
    },
    {
      "channel": 2,
      "note": 72,
      "start": 16.5438,
      "duration": 0.0001,
      "velocity": 1,
      "chip": "ym2612"
    },
    {
      "channel": 4,
      "note": 58,
      "start": 16.5473,
      "duration": 0.1316,
      "velocity": 127,
      "chip": "ym2612"
    },
    {
      "channel": 0,
      "note": 56,
      "start": 16.6598,
      "duration": 0.0374,
      "velocity": 79,
      "chip": "ym2612"
    },
    {
      "channel": 1,
      "note": 22,
      "start": 16.7803,
      "duration": 0.1202,
      "velocity": 125,
      "chip": "ym2612"
    },
    {
      "channel": 2,
      "note": 72,
      "start": 16.7829,
      "duration": 0.0001,
      "velocity": 1,
      "chip": "ym2612"
    },
    {
      "channel": 4,
      "note": 58,
      "start": 16.7865,
      "duration": 0.033,
      "velocity": 127,
      "chip": "ym2612"
    },
    {
      "channel": 0,
      "note": 56,
      "start": 16.8994,
      "duration": 0.037,
      "velocity": 79,
      "chip": "ym2612"
    },
    {
      "channel": 4,
      "note": 58,
      "start": 16.904,
      "duration": 0.0343,
      "velocity": 127,
      "chip": "ym2612"
    },
    {
      "channel": 0,
      "note": 51,
      "start": 17.0194,
      "duration": 0.0366,
      "velocity": 79,
      "chip": "ym2612"
    },
    {
      "channel": 1,
      "note": 24,
      "start": 17.0221,
      "duration": 0.0949,
      "velocity": 127,
      "chip": "ym2612"
    },
    {
      "channel": 2,
      "note": 72,
      "start": 17.0248,
      "duration": 0.0001,
      "velocity": 1,
      "chip": "ym2612"
    },
    {
      "channel": 3,
      "note": 70,
      "start": 17.0279,
      "duration": 0.1127,
      "velocity": 95,
      "chip": "ym2612"
    },
    {
      "channel": 4,
      "note": 58,
      "start": 17.0307,
      "duration": 0.1267,
      "velocity": 127,
      "chip": "ym2612"
    },
    {
      "channel": 2,
      "note": 72,
      "start": 17.1392,
      "duration": 0.0001,
      "velocity": 1,
      "chip": "ym2612"
    },
    {
      "channel": 3,
      "note": 70,
      "start": 17.1423,
      "duration": 0.1231,
      "velocity": 95,
      "chip": "ym2612"
    },
    {
      "channel": 0,
      "note": 53,
      "start": 17.2586,
      "duration": 0.0366,
      "velocity": 79,
      "chip": "ym2612"
    },
    {
      "channel": 1,
      "note": 22,
      "start": 17.2613,
      "duration": 0.0949,
      "velocity": 127,
      "chip": "ym2612"
    },
    {
      "channel": 2,
      "note": 72,
      "start": 17.264,
      "duration": 0.0001,
      "velocity": 1,
      "chip": "ym2612"
    },
    {
      "channel": 3,
      "note": 72,
      "start": 17.2671,
      "duration": 0.1126,
      "velocity": 95,
      "chip": "ym2612"
    },
    {
      "channel": 4,
      "note": 58,
      "start": 17.2699,
      "duration": 0.0282,
      "velocity": 127,
      "chip": "ym2612"
    },
    {
      "channel": 2,
      "note": 72,
      "start": 17.3785,
      "duration": 0.0001,
      "velocity": 1,
      "chip": "ym2612"
    },
    {
      "channel": 4,
      "note": 58,
      "start": 17.3822,
      "duration": 0.0345,
      "velocity": 127,
      "chip": "ym2612"
    },
    {
      "channel": 0,
      "note": 44,
      "start": 17.4977,
      "duration": 0.0367,
      "velocity": 79,
      "chip": "ym2612"
    },
    {
      "channel": 1,
      "note": 22,
      "start": 17.5004,
      "duration": 0.0947,
      "velocity": 127,
      "chip": "ym2612"
    },
    {
      "channel": 2,
      "note": 72,
      "start": 17.5031,
      "duration": 0.0001,
      "velocity": 1,
      "chip": "ym2612"
    },
    {
      "channel": 4,
      "note": 58,
      "start": 17.5067,
      "duration": 0.1292,
      "velocity": 127,
      "chip": "ym2612"
    },
    {
      "channel": 0,
      "note": 44,
      "start": 17.7371,
      "duration": 0.0366,
      "velocity": 79,
      "chip": "ym2612"
    },
    {
      "channel": 1,
      "note": 22,
      "start": 17.7398,
      "duration": 0.1149,
      "velocity": 125,
      "chip": "ym2612"
    },
    {
      "channel": 2,
      "note": 72,
      "start": 17.7424,
      "duration": 0.0001,
      "velocity": 1,
      "chip": "ym2612"
    },
    {
      "channel": 3,
      "note": 76,
      "start": 17.7455,
      "duration": 0.1109,
      "velocity": 95,
      "chip": "ym2612"
    },
    {
      "channel": 4,
      "note": 58,
      "start": 17.7483,
      "duration": 0.0283,
      "velocity": 127,
      "chip": "ym2612"
    },
    {
      "channel": 4,
      "note": 58,
      "start": 17.8588,
      "duration": 0.0363,
      "velocity": 127,
      "chip": "ym2612"
    },
    {
      "channel": 0,
      "note": 56,
      "start": 17.9762,
      "duration": 0.0367,
      "velocity": 79,
      "chip": "ym2612"
    },
    {
      "channel": 1,
      "note": 24,
      "start": 17.9789,
      "duration": 0.0951,
      "velocity": 127,
      "chip": "ym2612"
    },
    {
      "channel": 2,
      "note": 72,
      "start": 17.9816,
      "duration": 0.0001,
      "velocity": 1,
      "chip": "ym2612"
    },
    {
      "channel": 4,
      "note": 58,
      "start": 17.9851,
      "duration": 0.1295,
      "velocity": 127,
      "chip": "ym2612"
    },
    {
      "channel": 1,
      "note": 22,
      "start": 18.096,
      "duration": 0.1205,
      "velocity": 125,
      "chip": "ym2612"
    },
    {
      "channel": 2,
      "note": 72,
      "start": 18.0986,
      "duration": 0.0001,
      "velocity": 1,
      "chip": "ym2612"
    },
    {
      "channel": 0,
      "note": 56,
      "start": 18.2154,
      "duration": 0.0368,
      "velocity": 79,
      "chip": "ym2612"
    },
    {
      "channel": 1,
      "note": 30,
      "start": 18.2181,
      "duration": 0.0958,
      "velocity": 127,
      "chip": "ym2612"
    },
    {
      "channel": 3,
      "note": 78,
      "start": 18.2217,
      "duration": 0.1202,
      "velocity": 95,
      "chip": "ym2612"
    },
    {
      "channel": 4,
      "note": 58,
      "start": 18.2245,
      "duration": 0.0306,
      "velocity": 127,
      "chip": "ym2612"
    },
    {
      "channel": 0,
      "note": 56,
      "start": 18.3352,
      "duration": 0.0366,
      "velocity": 79,
      "chip": "ym2612"
    },
    {
      "channel": 1,
      "note": 22,
      "start": 18.3379,
      "duration": 0.1151,
      "velocity": 125,
      "chip": "ym2612"
    },
    {
      "channel": 2,
      "note": 72,
      "start": 18.3405,
      "duration": 0.0001,
      "velocity": 1,
      "chip": "ym2612"
    },
    {
      "channel": 3,
      "note": 75,
      "start": 18.3436,
      "duration": 0.1156,
      "velocity": 95,
      "chip": "ym2612"
    },
    {
      "channel": 4,
      "note": 58,
      "start": 18.3464,
      "duration": 0.0283,
      "velocity": 127,
      "chip": "ym2612"
    },
    {
      "channel": 1,
      "note": 30,
      "start": 18.4551,
      "duration": 0.0971,
      "velocity": 127,
      "chip": "ym2612"
    },
    {
      "channel": 2,
      "note": 72,
      "start": 18.4579,
      "duration": 0.0001,
      "velocity": 1,
      "chip": "ym2612"
    },
    {
      "channel": 3,
      "note": 74,
      "start": 18.461,
      "duration": 0.1148,
      "velocity": 95,
      "chip": "ym2612"
    },
    {
      "channel": 4,
      "note": 58,
      "start": 18.4637,
      "duration": 0.1291,
      "velocity": 127,
      "chip": "ym2612"
    },
    {
      "channel": 0,
      "note": 56,
      "start": 18.5737,
      "duration": 0.0373,
      "velocity": 79,
      "chip": "ym2612"
    },
    {
      "channel": 1,
      "note": 22,
      "start": 18.6944,
      "duration": 0.1202,
      "velocity": 125,
      "chip": "ym2612"
    },
    {
      "channel": 2,
      "note": 72,
      "start": 18.697,
      "duration": 0.0001,
      "velocity": 1,
      "chip": "ym2612"
    },
    {
      "channel": 3,
      "note": 75,
      "start": 18.7001,
      "duration": 0.118,
      "velocity": 95,
      "chip": "ym2612"
    },
    {
      "channel": 4,
      "note": 58,
      "start": 18.7029,
      "duration": 0.0304,
      "velocity": 127,
      "chip": "ym2612"
    },
    {
      "channel": 0,
      "note": 56,
      "start": 18.8134,
      "duration": 0.0369,
      "velocity": 79,
      "chip": "ym2612"
    },
    {
      "channel": 2,
      "note": 72,
      "start": 18.8168,
      "duration": 0.0001,
      "velocity": 1,
      "chip": "ym2612"
    },
    {
      "channel": 4,
      "note": 58,
      "start": 18.8205,
      "duration": 0.0317,
      "velocity": 127,
      "chip": "ym2612"
    },
    {
      "channel": 0,
      "note": 51,
      "start": 18.9333,
      "duration": 0.0366,
      "velocity": 79,
      "chip": "ym2612"
    },
    {
      "channel": 1,
      "note": 24,
      "start": 18.936,
      "duration": 0.1178,
      "velocity": 125,
      "chip": "ym2612"
    },
    {
      "channel": 2,
      "note": 72,
      "start": 18.9386,
      "duration": 0.0001,
      "velocity": 1,
      "chip": "ym2612"
    },
    {
      "channel": 3,
      "note": 74,
      "start": 18.9417,
      "duration": 0.1178,
      "velocity": 95,
      "chip": "ym2612"
    },
    {
      "channel": 4,
      "note": 58,
      "start": 18.9445,
      "duration": 0.1273,
      "velocity": 127,
      "chip": "ym2612"
    },
    {
      "channel": 0,
      "note": 53,
      "start": 19.0528,
      "duration": 0.0368,
      "velocity": 79,
      "chip": "ym2612"
    },
    {
      "channel": 1,
      "note": 30,
      "start": 19.0554,
      "duration": 0.0959,
      "velocity": 127,
      "chip": "ym2612"
    },
    {
      "channel": 2,
      "note": 72,
      "start": 19.0582,
      "duration": 0.0001,
      "velocity": 1,
      "chip": "ym2612"
    },
    {
      "channel": 3,
      "note": 70,
      "start": 19.0613,
      "duration": 0.118,
      "velocity": 95,
      "chip": "ym2612"
    },
    {
      "channel": 0,
      "note": 55,
      "start": 19.1725,
      "duration": 0.0366,
      "velocity": 79,
      "chip": "ym2612"
    },
    {
      "channel": 1,
      "note": 22,
      "start": 19.1752,
      "duration": 0.0949,
      "velocity": 127,
      "chip": "ym2612"
    },
    {
      "channel": 2,
      "note": 74,
      "start": 19.178,
      "duration": 0.0001,
      "velocity": 1,
      "chip": "ym2612"
    },
    {
      "channel": 3,
      "note": 72,
      "start": 19.181,
      "duration": 0.1126,
      "velocity": 95,
      "chip": "ym2612"
    },
    {
      "channel": 4,
      "note": 58,
      "start": 19.1838,
      "duration": 0.0282,
      "velocity": 127,
      "chip": "ym2612"
    },
    {
      "channel": 2,
      "note": 74,
      "start": 19.2924,
      "duration": 0.0001,
      "velocity": 1,
      "chip": "ym2612"
    },
    {
      "channel": 4,
      "note": 58,
      "start": 19.2961,
      "duration": 0.0345,
      "velocity": 127,
      "chip": "ym2612"
    },
    {
      "channel": 0,
      "note": 46,
      "start": 19.4116,
      "duration": 0.0368,
      "velocity": 79,
      "chip": "ym2612"
    },
    {
      "channel": 1,
      "note": 22,
      "start": 19.4143,
      "duration": 0.0947,
      "velocity": 127,
      "chip": "ym2612"
    },
    {
      "channel": 2,
      "note": 74,
      "start": 19.4171,
      "duration": 0.0001,
      "velocity": 1,
      "chip": "ym2612"
    },
    {
      "channel": 4,
      "note": 58,
      "start": 19.4206,
      "duration": 0.1292,
      "velocity": 127,
      "chip": "ym2612"
    },
    {
      "channel": 0,
      "note": 46,
      "start": 19.6509,
      "duration": 0.0367,
      "velocity": 79,
      "chip": "ym2612"
    },
    {
      "channel": 1,
      "note": 22,
      "start": 19.6536,
      "duration": 0.115,
      "velocity": 125,
      "chip": "ym2612"
    },
    {
      "channel": 2,
      "note": 74,
      "start": 19.6562,
      "duration": 0.0001,
      "velocity": 1,
      "chip": "ym2612"
    },
    {
      "channel": 4,
      "note": 58,
      "start": 19.6597,
      "duration": 0.0308,
      "velocity": 127,
      "chip": "ym2612"
    },
    {
      "channel": 4,
      "note": 58,
      "start": 19.7725,
      "duration": 0.0365,
      "velocity": 127,
      "chip": "ym2612"
    },
    {
      "channel": 0,
      "note": 58,
      "start": 19.8903,
      "duration": 0.0366,
      "velocity": 79,
      "chip": "ym2612"
    },
    {
      "channel": 1,
      "note": 24,
      "start": 19.8929,
      "duration": 0.095,
      "velocity": 127,
      "chip": "ym2612"
    },
    {
      "channel": 2,
      "note": 74,
      "start": 19.8957,
      "duration": 0.0001,
      "velocity": 1,
      "chip": "ym2612"
    },
    {
      "channel": 3,
      "note": 69,
      "start": 19.8988,
      "duration": 0.115,
      "velocity": 95,
      "chip": "ym2612"
    },
    {
      "channel": 4,
      "note": 58,
      "start": 19.9016,
      "duration": 0.127,
      "velocity": 127,
      "chip": "ym2612"
    },
    {
      "channel": 1,
      "note": 22,
      "start": 20.0099,
      "duration": 0.1203,
      "velocity": 125,
      "chip": "ym2612"
    },
    {
      "channel": 2,
      "note": 74,
      "start": 20.0125,
      "duration": 0.0001,
      "velocity": 1,
      "chip": "ym2612"
    },
    {
      "channel": 0,
      "note": 58,
      "start": 20.1292,
      "duration": 0.0369,
      "velocity": 79,
      "chip": "ym2612"
    },
    {
      "channel": 1,
      "note": 30,
      "start": 20.1319,
      "duration": 0.0957,
      "velocity": 127,
      "chip": "ym2612"
    },
    {
      "channel": 4,
      "note": 58,
      "start": 20.1359,
      "duration": 0.0333,
      "velocity": 127,
      "chip": "ym2612"
    },
    {
      "channel": 0,
      "note": 58,
      "start": 20.249,
      "duration": 0.0368,
      "velocity": 79,
      "chip": "ym2612"
    },
    {
      "channel": 1,
      "note": 22,
      "start": 20.2517,
      "duration": 0.1151,
      "velocity": 125,
      "chip": "ym2612"
    },
    {
      "channel": 2,
      "note": 74,
      "start": 20.2543,
      "duration": 0.0001,
      "velocity": 1,
      "chip": "ym2612"
    },
    {
      "channel": 4,
      "note": 58,
      "start": 20.2578,
      "duration": 0.0308,
      "velocity": 127,
      "chip": "ym2612"
    },
    {
      "channel": 1,
      "note": 30,
      "start": 20.3689,
      "duration": 0.0972,
      "velocity": 127,
      "chip": "ym2612"
    },
    {
      "channel": 2,
      "note": 74,
      "start": 20.3716,
      "duration": 0.0001,
      "velocity": 1,
      "chip": "ym2612"
    },
    {
      "channel": 4,
      "note": 58,
      "start": 20.3752,
      "duration": 0.1316,
      "velocity": 127,
      "chip": "ym2612"
    },
    {
      "channel": 0,
      "note": 58,
      "start": 20.4876,
      "duration": 0.0374,
      "velocity": 79,
      "chip": "ym2612"
    },
    {
      "channel": 1,
      "note": 22,
      "start": 20.6081,
      "duration": 0.1202,
      "velocity": 125,
      "chip": "ym2612"
    },
    {
      "channel": 2,
      "note": 74,
      "start": 20.6108,
      "duration": 0.0001,
      "velocity": 1,
      "chip": "ym2612"
    },
    {
      "channel": 4,
      "note": 58,
      "start": 20.6143,
      "duration": 0.033,
      "velocity": 127,
      "chip": "ym2612"
    },
    {
      "channel": 0,
      "note": 58,
      "start": 20.7272,
      "duration": 0.037,
      "velocity": 79,
      "chip": "ym2612"
    },
    {
      "channel": 4,
      "note": 58,
      "start": 20.7319,
      "duration": 0.0343,
      "velocity": 127,
      "chip": "ym2612"
    },
    {
      "channel": 0,
      "note": 51,
      "start": 20.8471,
      "duration": 0.0368,
      "velocity": 79,
      "chip": "ym2612"
    },
    {
      "channel": 1,
      "note": 24,
      "start": 20.8498,
      "duration": 0.0951,
      "velocity": 127,
      "chip": "ym2612"
    },
    {
      "channel": 2,
      "note": 74,
      "start": 20.8525,
      "duration": 0.0001,
      "velocity": 1,
      "chip": "ym2612"
    },
    {
      "channel": 4,
      "note": 58,
      "start": 20.856,
      "duration": 0.1297,
      "velocity": 127,
      "chip": "ym2612"
    },
    {
      "channel": 1,
      "note": 22,
      "start": 20.9668,
      "duration": 0.0983,
      "velocity": 127,
      "chip": "ym2612"
    },
    {
      "channel": 2,
      "note": 74,
      "start": 20.9696,
      "duration": 0.0001,
      "velocity": 1,
      "chip": "ym2612"
    },
    {
      "channel": 0,
      "note": 53,
      "start": 21.0865,
      "duration": 0.0366,
      "velocity": 79,
      "chip": "ym2612"
    },
    {
      "channel": 1,
      "note": 22,
      "start": 21.0891,
      "duration": 0.0951,
      "velocity": 127,
      "chip": "ym2612"
    },
    {
      "channel": 2,
      "note": 74,
      "start": 21.0919,
      "duration": 0.0001,
      "velocity": 1,
      "chip": "ym2612"
    },
    {
      "channel": 3,
      "note": 78,
      "start": 21.095,
      "duration": 0.1128,
      "velocity": 95,
      "chip": "ym2612"
    },
    {
      "channel": 4,
      "note": 58,
      "start": 21.0977,
      "duration": 0.0282,
      "velocity": 127,
      "chip": "ym2612"
    },
    {
      "channel": 2,
      "note": 74,
      "start": 21.2064,
      "duration": 0.0001,
      "velocity": 1,
      "chip": "ym2612"
    },
    {
      "channel": 3,
      "note": 75,
      "start": 21.2095,
      "duration": 0.1229,
      "velocity": 95,
      "chip": "ym2612"
    },
    {
      "channel": 4,
      "note": 58,
      "start": 21.2123,
      "duration": 0.0322,
      "velocity": 127,
      "chip": "ym2612"
    },
    {
      "channel": 0,
      "note": 46,
      "start": 21.3257,
      "duration": 0.0366,
      "velocity": 79,
      "chip": "ym2612"
    },
    {
      "channel": 1,
      "note": 22,
      "start": 21.3284,
      "duration": 0.0945,
      "velocity": 127,
      "chip": "ym2612"
    },
    {
      "channel": 2,
      "note": 74,
      "start": 21.3311,
      "duration": 0.0001,
      "velocity": 1,
      "chip": "ym2612"
    },
    {
      "channel": 3,
      "note": 74,
      "start": 21.3342,
      "duration": 0.1096,
      "velocity": 95,
      "chip": "ym2612"
    },
    {
      "channel": 4,
      "note": 58,
      "start": 21.337,
      "duration": 0.1267,
      "velocity": 127,
      "chip": "ym2612"
    },
    {
      "channel": 0,
      "note": 46,
      "start": 21.5649,
      "duration": 0.0366,
      "velocity": 79,
      "chip": "ym2612"
    },
    {
      "channel": 1,
      "note": 22,
      "start": 21.5676,
      "duration": 0.115,
      "velocity": 125,
      "chip": "ym2612"
    },
    {
      "channel": 2,
      "note": 74,
      "start": 21.5702,
      "duration": 0.0001,
      "velocity": 1,
      "chip": "ym2612"
    },
    {
      "channel": 3,
      "note": 75,
      "start": 21.5733,
      "duration": 0.1111,
      "velocity": 95,
      "chip": "ym2612"
    },
    {
      "channel": 4,
      "note": 58,
      "start": 21.5761,
      "duration": 0.0283,
      "velocity": 127,
      "chip": "ym2612"
    },
    {
      "channel": 3,
      "note": 74,
      "start": 21.6861,
      "duration": 0.1248,
      "velocity": 95,
      "chip": "ym2612"
    },
    {
      "channel": 4,
      "note": 58,
      "start": 21.6889,
      "duration": 0.034,
      "velocity": 127,
      "chip": "ym2612"
    },
    {
      "channel": 0,
      "note": 58,
      "start": 21.8042,
      "duration": 0.0366,
      "velocity": 79,
      "chip": "ym2612"
    },
    {
      "channel": 1,
      "note": 24,
      "start": 21.8069,
      "duration": 0.095,
      "velocity": 127,
      "chip": "ym2612"
    },
    {
      "channel": 2,
      "note": 74,
      "start": 21.8096,
      "duration": 0.0001,
      "velocity": 1,
      "chip": "ym2612"
    },
    {
      "channel": 3,
      "note": 72,
      "start": 21.8127,
      "duration": 0.115,
      "velocity": 95,
      "chip": "ym2612"
    },
    {
      "channel": 4,
      "note": 58,
      "start": 21.8155,
      "duration": 0.127,
      "velocity": 127,
      "chip": "ym2612"
    },
    {
      "channel": 1,
      "note": 22,
      "start": 21.9238,
      "duration": 0.1205,
      "velocity": 125,
      "chip": "ym2612"
    },
    {
      "channel": 2,
      "note": 74,
      "start": 21.9264,
      "duration": 0.0001,
      "velocity": 1,
      "chip": "ym2612"
    },
    {
      "channel": 0,
      "note": 58,
      "start": 22.0433,
      "duration": 0.0367,
      "velocity": 79,
      "chip": "ym2612"
    },
    {
      "channel": 1,
      "note": 30,
      "start": 22.046,
      "duration": 0.0958,
      "velocity": 127,
      "chip": "ym2612"
    },
    {
      "channel": 3,
      "note": 74,
      "start": 22.0495,
      "duration": 0.1202,
      "velocity": 95,
      "chip": "ym2612"
    },
    {
      "channel": 4,
      "note": 58,
      "start": 22.0523,
      "duration": 0.0306,
      "velocity": 127,
      "chip": "ym2612"
    },
    {
      "channel": 0,
      "note": 58,
      "start": 22.163,
      "duration": 0.0366,
      "velocity": 79,
      "chip": "ym2612"
    },
    {
      "channel": 1,
      "note": 22,
      "start": 22.1657,
      "duration": 0.1151,
      "velocity": 125,
      "chip": "ym2612"
    },
    {
      "channel": 2,
      "note": 74,
      "start": 22.1683,
      "duration": 0.0001,
      "velocity": 1,
      "chip": "ym2612"
    },
    {
      "channel": 3,
      "note": 72,
      "start": 22.1714,
      "duration": 0.1156,
      "velocity": 95,
      "chip": "ym2612"
    },
    {
      "channel": 4,
      "note": 58,
      "start": 22.1742,
      "duration": 0.0283,
      "velocity": 127,
      "chip": "ym2612"
    },
    {
      "channel": 1,
      "note": 30,
      "start": 22.283,
      "duration": 0.0971,
      "velocity": 127,
      "chip": "ym2612"
    },
    {
      "channel": 2,
      "note": 74,
      "start": 22.2857,
      "duration": 0.0001,
      "velocity": 1,
      "chip": "ym2612"
    },
    {
      "channel": 3,
      "note": 70,
      "start": 22.2888,
      "duration": 0.1148,
      "velocity": 95,
      "chip": "ym2612"
    },
    {
      "channel": 4,
      "note": 58,
      "start": 22.2916,
      "duration": 0.1291,
      "velocity": 127,
      "chip": "ym2612"
    },
    {
      "channel": 0,
      "note": 58,
      "start": 22.4015,
      "duration": 0.0374,
      "velocity": 79,
      "chip": "ym2612"
    },
    {
      "channel": 1,
      "note": 22,
      "start": 22.5222,
      "duration": 0.1202,
      "velocity": 125,
      "chip": "ym2612"
    },
    {
      "channel": 2,
      "note": 75,
      "start": 22.5248,
      "duration": 0.0001,
      "velocity": 1,
      "chip": "ym2612"
    },
    {
      "channel": 3,
      "note": 72,
      "start": 22.5279,
      "duration": 0.1158,
      "velocity": 95,
      "chip": "ym2612"
    },
    {
      "channel": 4,
      "note": 58,
      "start": 22.5307,
      "duration": 0.0305,
      "velocity": 127,
      "chip": "ym2612"
    },
    {
      "channel": 0,
      "note": 58,
      "start": 22.6413,
      "duration": 0.0368,
      "velocity": 79,
      "chip": "ym2612"
    },
    {
      "channel": 3,
      "note": 70,
      "start": 22.6455,
      "duration": 0.1223,
      "velocity": 95,
      "chip": "ym2612"
    },
    {
      "channel": 4,
      "note": 58,
      "start": 22.6483,
      "duration": 0.0318,
      "velocity": 127,
      "chip": "ym2612"
    },
    {
      "channel": 0,
      "note": 51,
      "start": 22.7611,
      "duration": 0.0366,
      "velocity": 79,
      "chip": "ym2612"
    },
    {
      "channel": 1,
      "note": 24,
      "start": 22.7638,
      "duration": 0.1178,
      "velocity": 125,
      "chip": "ym2612"
    },
    {
      "channel": 2,
      "note": 75,
      "start": 22.7664,
      "duration": 0.0001,
      "velocity": 1,
      "chip": "ym2612"
    },
    {
      "channel": 3,
      "note": 72,
      "start": 22.7695,
      "duration": 0.1177,
      "velocity": 95,
      "chip": "ym2612"
    },
    {
      "channel": 4,
      "note": 58,
      "start": 22.7723,
      "duration": 0.1271,
      "velocity": 127,
      "chip": "ym2612"
    },
    {
      "channel": 0,
      "note": 53,
      "start": 22.8806,
      "duration": 0.0368,
      "velocity": 79,
      "chip": "ym2612"
    },
    {
      "channel": 1,
      "note": 30,
      "start": 22.8833,
      "duration": 0.1181,
      "velocity": 125,
      "chip": "ym2612"
    },
    {
      "channel": 2,
      "note": 74,
      "start": 22.8859,
      "duration": 0.0001,
      "velocity": 1,
      "chip": "ym2612"
    },
    {
      "channel": 3,
      "note": 75,
      "start": 22.889,
      "duration": 0.1181,
      "velocity": 95,
      "chip": "ym2612"
    },
    {
      "channel": 0,
      "note": 55,
      "start": 23.0004,
      "duration": 0.0366,
      "velocity": 79,
      "chip": "ym2612"
    },
    {
      "channel": 1,
      "note": 30,
      "start": 23.003,
      "duration": 0.0951,
      "velocity": 127,
      "chip": "ym2612"
    },
    {
      "channel": 2,
      "note": 72,
      "start": 23.0058,
      "duration": 0.0001,
      "velocity": 1,
      "chip": "ym2612"
    },
    {
      "channel": 3,
      "note": 74,
      "start": 23.0089,
      "duration": 0.1128,
      "velocity": 95,
      "chip": "ym2612"
    },
    {
      "channel": 4,
      "note": 58,
      "start": 23.0117,
      "duration": 0.0282,
      "velocity": 127,
      "chip": "ym2612"
    },
    {
      "channel": 2,
      "note": 72,
      "start": 23.1204,
      "duration": 0.0001,
      "velocity": 1,
      "chip": "ym2612"
    },
    {
      "channel": 3,
      "note": 79,
      "start": 23.1234,
      "duration": 0.1229,
      "velocity": 95,
      "chip": "ym2612"
    },
    {
      "channel": 4,
      "note": 58,
      "start": 23.1262,
      "duration": 0.0322,
      "velocity": 127,
      "chip": "ym2612"
    },
    {
      "channel": 0,
      "note": 44,
      "start": 23.2396,
      "duration": 0.0366,
      "velocity": 79,
      "chip": "ym2612"
    },
    {
      "channel": 1,
      "note": 22,
      "start": 23.2423,
      "duration": 0.0945,
      "velocity": 127,
      "chip": "ym2612"
    },
    {
      "channel": 2,
      "note": 72,
      "start": 23.245,
      "duration": 0.0001,
      "velocity": 1,
      "chip": "ym2612"
    },
    {
      "channel": 3,
      "note": 75,
      "start": 23.2481,
      "duration": 0.1096,
      "velocity": 95,
      "chip": "ym2612"
    },
    {
      "channel": 4,
      "note": 58,
      "start": 23.2509,
      "duration": 0.1267,
      "velocity": 127,
      "chip": "ym2612"
    },
    {
      "channel": 0,
      "note": 44,
      "start": 23.4787,
      "duration": 0.0368,
      "velocity": 79,
      "chip": "ym2612"
    },
    {
      "channel": 1,
      "note": 22,
      "start": 23.4814,
      "duration": 0.115,
      "velocity": 125,
      "chip": "ym2612"
    },
    {
      "channel": 2,
      "note": 72,
      "start": 23.484,
      "duration": 0.0001,
      "velocity": 1,
      "chip": "ym2612"
    },
    {
      "channel": 4,
      "note": 58,
      "start": 23.4876,
      "duration": 0.031,
      "velocity": 127,
      "chip": "ym2612"
    },
    {
      "channel": 4,
      "note": 58,
      "start": 23.6004,
      "duration": 0.0365,
      "velocity": 127,
      "chip": "ym2612"
    },
    {
      "channel": 0,
      "note": 56,
      "start": 23.718,
      "duration": 0.0367,
      "velocity": 79,
      "chip": "ym2612"
    },
    {
      "channel": 1,
      "note": 24,
      "start": 23.7206,
      "duration": 0.0951,
      "velocity": 127,
      "chip": "ym2612"
    },
    {
      "channel": 2,
      "note": 72,
      "start": 23.7234,
      "duration": 0.0001,
      "velocity": 1,
      "chip": "ym2612"
    },
    {
      "channel": 4,
      "note": 58,
      "start": 23.7269,
      "duration": 0.1295,
      "velocity": 127,
      "chip": "ym2612"
    },
    {
      "channel": 1,
      "note": 22,
      "start": 23.8377,
      "duration": 0.1203,
      "velocity": 125,
      "chip": "ym2612"
    },
    {
      "channel": 2,
      "note": 72,
      "start": 23.8403,
      "duration": 0.0001,
      "velocity": 1,
      "chip": "ym2612"
    },
    {
      "channel": 0,
      "note": 56,
      "start": 23.9571,
      "duration": 0.0369,
      "velocity": 79,
      "chip": "ym2612"
    },
    {
      "channel": 1,
      "note": 30,
      "start": 23.9597,
      "duration": 0.0957,
      "velocity": 127,
      "chip": "ym2612"
    },
    {
      "channel": 4,
      "note": 58,
      "start": 23.9637,
      "duration": 0.0331,
      "velocity": 127,
      "chip": "ym2612"
    },
    {
      "channel": 0,
      "note": 56,
      "start": 24.0768,
      "duration": 0.0368,
      "velocity": 79,
      "chip": "ym2612"
    },
    {
      "channel": 1,
      "note": 22,
      "start": 24.0795,
      "duration": 0.1151,
      "velocity": 125,
      "chip": "ym2612"
    },
    {
      "channel": 2,
      "note": 72,
      "start": 24.0821,
      "duration": 0.0001,
      "velocity": 1,
      "chip": "ym2612"
    },
    {
      "channel": 4,
      "note": 58,
      "start": 24.0856,
      "duration": 0.0308,
      "velocity": 127,
      "chip": "ym2612"
    },
    {
      "channel": 1,
      "note": 30,
      "start": 24.1967,
      "duration": 0.0972,
      "velocity": 127,
      "chip": "ym2612"
    },
    {
      "channel": 2,
      "note": 72,
      "start": 24.1995,
      "duration": 0.0001,
      "velocity": 1,
      "chip": "ym2612"
    },
    {
      "channel": 4,
      "note": 58,
      "start": 24.203,
      "duration": 0.1316,
      "velocity": 127,
      "chip": "ym2612"
    },
    {
      "channel": 0,
      "note": 56,
      "start": 24.3154,
      "duration": 0.0373,
      "velocity": 79,
      "chip": "ym2612"
    },
    {
      "channel": 1,
      "note": 22,
      "start": 24.436,
      "duration": 0.1203,
      "velocity": 125,
      "chip": "ym2612"
    },
    {
      "channel": 2,
      "note": 72,
      "start": 24.4386,
      "duration": 0.0001,
      "velocity": 1,
      "chip": "ym2612"
    },
    {
      "channel": 4,
      "note": 58,
      "start": 24.4421,
      "duration": 0.033,
      "velocity": 127,
      "chip": "ym2612"
    },
    {
      "channel": 0,
      "note": 56,
      "start": 24.5552,
      "duration": 0.0369,
      "velocity": 79,
      "chip": "ym2612"
    },
    {
      "channel": 3,
      "note": 72,
      "start": 24.5594,
      "duration": 0.1224,
      "velocity": 95,
      "chip": "ym2612"
    },
    {
      "channel": 4,
      "note": 58,
      "start": 24.5622,
      "duration": 0.0318,
      "velocity": 127,
      "chip": "ym2612"
    },
    {
      "channel": 0,
      "note": 51,
      "start": 24.6751,
      "duration": 0.0366,
      "velocity": 79,
      "chip": "ym2612"
    },
    {
      "channel": 1,
      "note": 24,
      "start": 24.6777,
      "duration": 0.0949,
      "velocity": 127,
      "chip": "ym2612"
    },
    {
      "channel": 2,
      "note": 72,
      "start": 24.6805,
      "duration": 0.0001,
      "velocity": 1,
      "chip": "ym2612"
    },
    {
      "channel": 3,
      "note": 72,
      "start": 24.6835,
      "duration": 0.1127,
      "velocity": 95,
      "chip": "ym2612"
    },
    {
      "channel": 4,
      "note": 58,
      "start": 24.6863,
      "duration": 0.1267,
      "velocity": 127,
      "chip": "ym2612"
    },
    {
      "channel": 2,
      "note": 72,
      "start": 24.7949,
      "duration": 0.0001,
      "velocity": 1,
      "chip": "ym2612"
    },
    {
      "channel": 3,
      "note": 75,
      "start": 24.7979,
      "duration": 0.1231,
      "velocity": 95,
      "chip": "ym2612"
    },
    {
      "channel": 0,
      "note": 53,
      "start": 24.9143,
      "duration": 0.0366,
      "velocity": 79,
      "chip": "ym2612"
    },
    {
      "channel": 1,
      "note": 22,
      "start": 24.917,
      "duration": 0.0949,
      "velocity": 127,
      "chip": "ym2612"
    },
    {
      "channel": 2,
      "note": 72,
      "start": 24.9197,
      "duration": 0.0001,
      "velocity": 1,
      "chip": "ym2612"
    },
    {
      "channel": 3,
      "note": 72,
      "start": 24.9228,
      "duration": 0.1126,
      "velocity": 95,
      "chip": "ym2612"
    },
    {
      "channel": 4,
      "note": 58,
      "start": 24.9256,
      "duration": 0.0282,
      "velocity": 127,
      "chip": "ym2612"
    },
    {
      "channel": 2,
      "note": 72,
      "start": 25.0341,
      "duration": 0.0001,
      "velocity": 1,
      "chip": "ym2612"
    },
    {
      "channel": 4,
      "note": 58,
      "start": 25.0378,
      "duration": 0.0345,
      "velocity": 127,
      "chip": "ym2612"
    },
    {
      "channel": 0,
      "note": 44,
      "start": 25.1534,
      "duration": 0.0368,
      "velocity": 79,
      "chip": "ym2612"
    },
    {
      "channel": 1,
      "note": 22,
      "start": 25.1561,
      "duration": 0.0947,
      "velocity": 127,
      "chip": "ym2612"
    },
    {
      "channel": 2,
      "note": 72,
      "start": 25.1588,
      "duration": 0.0001,
      "velocity": 1,
      "chip": "ym2612"
    },
    {
      "channel": 4,
      "note": 58,
      "start": 25.1623,
      "duration": 0.1292,
      "velocity": 127,
      "chip": "ym2612"
    },
    {
      "channel": 0,
      "note": 44,
      "start": 25.3928,
      "duration": 0.0366,
      "velocity": 79,
      "chip": "ym2612"
    },
    {
      "channel": 1,
      "note": 22,
      "start": 25.3955,
      "duration": 0.1148,
      "velocity": 125,
      "chip": "ym2612"
    },
    {
      "channel": 2,
      "note": 72,
      "start": 25.3981,
      "duration": 0.0001,
      "velocity": 1,
      "chip": "ym2612"
    },
    {
      "channel": 3,
      "note": 81,
      "start": 25.4012,
      "duration": 0.1109,
      "velocity": 95,
      "chip": "ym2612"
    },
    {
      "channel": 4,
      "note": 58,
      "start": 25.4039,
      "duration": 0.0284,
      "velocity": 127,
      "chip": "ym2612"
    },
    {
      "channel": 4,
      "note": 58,
      "start": 25.5145,
      "duration": 0.0363,
      "velocity": 127,
      "chip": "ym2612"
    },
    {
      "channel": 0,
      "note": 56,
      "start": 25.6319,
      "duration": 0.0368,
      "velocity": 79,
      "chip": "ym2612"
    },
    {
      "channel": 1,
      "note": 24,
      "start": 25.6346,
      "duration": 0.0951,
      "velocity": 127,
      "chip": "ym2612"
    },
    {
      "channel": 2,
      "note": 72,
      "start": 25.6373,
      "duration": 0.0001,
      "velocity": 1,
      "chip": "ym2612"
    },
    {
      "channel": 4,
      "note": 58,
      "start": 25.6408,
      "duration": 0.1295,
      "velocity": 127,
      "chip": "ym2612"
    },
    {
      "channel": 1,
      "note": 22,
      "start": 25.7516,
      "duration": 0.1205,
      "velocity": 125,
      "chip": "ym2612"
    },
    {
      "channel": 2,
      "note": 72,
      "start": 25.7543,
      "duration": 0.0001,
      "velocity": 1,
      "chip": "ym2612"
    },
    {
      "channel": 0,
      "note": 56,
      "start": 25.8711,
      "duration": 0.0367,
      "velocity": 79,
      "chip": "ym2612"
    },
    {
      "channel": 1,
      "note": 30,
      "start": 25.8738,
      "duration": 0.0957,
      "velocity": 127,
      "chip": "ym2612"
    },
    {
      "channel": 3,
      "note": 80,
      "start": 25.8774,
      "duration": 0.1202,
      "velocity": 95,
      "chip": "ym2612"
    },
    {
      "channel": 4,
      "note": 58,
      "start": 25.8801,
      "duration": 0.0306,
      "velocity": 127,
      "chip": "ym2612"
    },
    {
      "channel": 0,
      "note": 56,
      "start": 25.9909,
      "duration": 0.0366,
      "velocity": 79,
      "chip": "ym2612"
    },
    {
      "channel": 1,
      "note": 22,
      "start": 25.9936,
      "duration": 0.1151,
      "velocity": 125,
      "chip": "ym2612"
    },
    {
      "channel": 2,
      "note": 72,
      "start": 25.9962,
      "duration": 0.0001,
      "velocity": 1,
      "chip": "ym2612"
    },
    {
      "channel": 3,
      "note": 77,
      "start": 25.9993,
      "duration": 0.1156,
      "velocity": 95,
      "chip": "ym2612"
    },
    {
      "channel": 4,
      "note": 58,
      "start": 26.0021,
      "duration": 0.0283,
      "velocity": 127,
      "chip": "ym2612"
    },
    {
      "channel": 1,
      "note": 30,
      "start": 26.1108,
      "duration": 0.0971,
      "velocity": 127,
      "chip": "ym2612"
    },
    {
      "channel": 2,
      "note": 72,
      "start": 26.1135,
      "duration": 0.0001,
      "velocity": 1,
      "chip": "ym2612"
    },
    {
      "channel": 3,
      "note": 79,
      "start": 26.1166,
      "duration": 0.1148,
      "velocity": 95,
      "chip": "ym2612"
    },
    {
      "channel": 4,
      "note": 58,
      "start": 26.1194,
      "duration": 0.1291,
      "velocity": 127,
      "chip": "ym2612"
    },
    {
      "channel": 0,
      "note": 56,
      "start": 26.2293,
      "duration": 0.0374,
      "velocity": 79,
      "chip": "ym2612"
    },
    {
      "channel": 1,
      "note": 22,
      "start": 26.35,
      "duration": 0.1203,
      "velocity": 125,
      "chip": "ym2612"
    },
    {
      "channel": 2,
      "note": 72,
      "start": 26.3527,
      "duration": 0.0001,
      "velocity": 1,
      "chip": "ym2612"
    },
    {
      "channel": 3,
      "note": 80,
      "start": 26.3558,
      "duration": 0.1182,
      "velocity": 95,
      "chip": "ym2612"
    },
    {
      "channel": 4,
      "note": 58,
      "start": 26.3585,
      "duration": 0.0305,
      "velocity": 127,
      "chip": "ym2612"
    },
    {
      "channel": 0,
      "note": 56,
      "start": 26.4692,
      "duration": 0.0367,
      "velocity": 79,
      "chip": "ym2612"
    },
    {
      "channel": 2,
      "note": 72,
      "start": 26.4726,
      "duration": 0.0001,
      "velocity": 1,
      "chip": "ym2612"
    },
    {
      "channel": 3,
      "note": 80,
      "start": 26.4757,
      "duration": 0.1199,
      "velocity": 95,
      "chip": "ym2612"
    },
    {
      "channel": 4,
      "note": 58,
      "start": 26.4785,
      "duration": 0.0295,
      "velocity": 127,
      "chip": "ym2612"
    },
    {
      "channel": 0,
      "note": 51,
      "start": 26.589,
      "duration": 0.0366,
      "velocity": 79,
      "chip": "ym2612"
    },
    {
      "channel": 1,
      "note": 24,
      "start": 26.5916,
      "duration": 0.1178,
      "velocity": 125,
      "chip": "ym2612"
    },
    {
      "channel": 2,
      "note": 72,
      "start": 26.5943,
      "duration": 0.0001,
      "velocity": 1,
      "chip": "ym2612"
    },
    {
      "channel": 3,
      "note": 79,
      "start": 26.5973,
      "duration": 0.1178,
      "velocity": 95,
      "chip": "ym2612"
    },
    {
      "channel": 4,
      "note": 58,
      "start": 26.6001,
      "duration": 0.1273,
      "velocity": 127,
      "chip": "ym2612"
    },
    {
      "channel": 0,
      "note": 53,
      "start": 26.7084,
      "duration": 0.0368,
      "velocity": 79,
      "chip": "ym2612"
    },
    {
      "channel": 1,
      "note": 30,
      "start": 26.7111,
      "duration": 0.0959,
      "velocity": 127,
      "chip": "ym2612"
    },
    {
      "channel": 2,
      "note": 72,
      "start": 26.7138,
      "duration": 0.0001,
      "velocity": 1,
      "chip": "ym2612"
    },
    {
      "channel": 3,
      "note": 77,
      "start": 26.7169,
      "duration": 0.118,
      "velocity": 95,
      "chip": "ym2612"
    },
    {
      "channel": 0,
      "note": 55,
      "start": 26.8282,
      "duration": 0.0366,
      "velocity": 79,
      "chip": "ym2612"
    },
    {
      "channel": 1,
      "note": 22,
      "start": 26.8309,
      "duration": 0.0949,
      "velocity": 127,
      "chip": "ym2612"
    },
    {
      "channel": 2,
      "note": 74,
      "start": 26.8336,
      "duration": 0.0001,
      "velocity": 1,
      "chip": "ym2612"
    },
    {
      "channel": 3,
      "note": 75,
      "start": 26.8367,
      "duration": 0.1126,
      "velocity": 95,
      "chip": "ym2612"
    },
    {
      "channel": 4,
      "note": 58,
      "start": 26.8395,
      "duration": 0.0282,
      "velocity": 127,
      "chip": "ym2612"
    },
    {
      "channel": 2,
      "note": 74,
      "start": 26.948,
      "duration": 0.0001,
      "velocity": 1,
      "chip": "ym2612"
    },
    {
      "channel": 4,
      "note": 58,
      "start": 26.9518,
      "duration": 0.0345,
      "velocity": 127,
      "chip": "ym2612"
    },
    {
      "channel": 0,
      "note": 46,
      "start": 27.0673,
      "duration": 0.0368,
      "velocity": 79,
      "chip": "ym2612"
    },
    {
      "channel": 1,
      "note": 22,
      "start": 27.07,
      "duration": 0.0947,
      "velocity": 127,
      "chip": "ym2612"
    },
    {
      "channel": 2,
      "note": 74,
      "start": 27.0727,
      "duration": 0.0001,
      "velocity": 1,
      "chip": "ym2612"
    },
    {
      "channel": 4,
      "note": 58,
      "start": 27.0762,
      "duration": 0.1292,
      "velocity": 127,
      "chip": "ym2612"
    },
    {
      "channel": 0,
      "note": 46,
      "start": 27.3065,
      "duration": 0.0368,
      "velocity": 79,
      "chip": "ym2612"
    },
    {
      "channel": 1,
      "note": 22,
      "start": 27.3092,
      "duration": 0.115,
      "velocity": 125,
      "chip": "ym2612"
    },
    {
      "channel": 2,
      "note": 74,
      "start": 27.3118,
      "duration": 0.0001,
      "velocity": 1,
      "chip": "ym2612"
    },
    {
      "channel": 4,
      "note": 58,
      "start": 27.3154,
      "duration": 0.0308,
      "velocity": 127,
      "chip": "ym2612"
    },
    {
      "channel": 4,
      "note": 58,
      "start": 27.4282,
      "duration": 0.0365,
      "velocity": 127,
      "chip": "ym2612"
    },
    {
      "channel": 0,
      "note": 58,
      "start": 27.5458,
      "duration": 0.0367,
      "velocity": 79,
      "chip": "ym2612"
    },
    {
      "channel": 1,
      "note": 24,
      "start": 27.5485,
      "duration": 0.0951,
      "velocity": 127,
      "chip": "ym2612"
    },
    {
      "channel": 2,
      "note": 74,
      "start": 27.5512,
      "duration": 0.0001,
      "velocity": 1,
      "chip": "ym2612"
    },
    {
      "channel": 4,
      "note": 58,
      "start": 27.5547,
      "duration": 0.1295,
      "velocity": 127,
      "chip": "ym2612"
    },
    {
      "channel": 1,
      "note": 22,
      "start": 27.6656,
      "duration": 0.1203,
      "velocity": 125,
      "chip": "ym2612"
    },
    {
      "channel": 2,
      "note": 74,
      "start": 27.6682,
      "duration": 0.0001,
      "velocity": 1,
      "chip": "ym2612"
    },
    {
      "channel": 0,
      "note": 58,
      "start": 27.7849,
      "duration": 0.0369,
      "velocity": 79,
      "chip": "ym2612"
    },
    {
      "channel": 1,
      "note": 30,
      "start": 27.7876,
      "duration": 0.0957,
      "velocity": 127,
      "chip": "ym2612"
    },
    {
      "channel": 4,
      "note": 58,
      "start": 27.7916,
      "duration": 0.0331,
      "velocity": 127,
      "chip": "ym2612"
    },
    {
      "channel": 0,
      "note": 58,
      "start": 27.9046,
      "duration": 0.0367,
      "velocity": 79,
      "chip": "ym2612"
    },
    {
      "channel": 1,
      "note": 22,
      "start": 27.9073,
      "duration": 0.1151,
      "velocity": 125,
      "chip": "ym2612"
    },
    {
      "channel": 2,
      "note": 74,
      "start": 27.91,
      "duration": 0.0001,
      "velocity": 1,
      "chip": "ym2612"
    },
    {
      "channel": 4,
      "note": 58,
      "start": 27.9135,
      "duration": 0.0308,
      "velocity": 127,
      "chip": "ym2612"
    },
    {
      "channel": 1,
      "note": 30,
      "start": 28.0246,
      "duration": 0.0972,
      "velocity": 127,
      "chip": "ym2612"
    },
    {
      "channel": 2,
      "note": 74,
      "start": 28.0273,
      "duration": 0.0001,
      "velocity": 1,
      "chip": "ym2612"
    },
    {
      "channel": 4,
      "note": 58,
      "start": 28.0308,
      "duration": 0.1316,
      "velocity": 127,
      "chip": "ym2612"
    },
    {
      "channel": 0,
      "note": 58,
      "start": 28.1433,
      "duration": 0.0374,
      "velocity": 79,
      "chip": "ym2612"
    },
    {
      "channel": 1,
      "note": 22,
      "start": 28.2638,
      "duration": 0.1202,
      "velocity": 125,
      "chip": "ym2612"
    },
    {
      "channel": 2,
      "note": 74,
      "start": 28.2664,
      "duration": 0.0001,
      "velocity": 1,
      "chip": "ym2612"
    },
    {
      "channel": 4,
      "note": 58,
      "start": 28.27,
      "duration": 0.033,
      "velocity": 127,
      "chip": "ym2612"
    },
    {
      "channel": 0,
      "note": 58,
      "start": 28.3829,
      "duration": 0.037,
      "velocity": 79,
      "chip": "ym2612"
    },
    {
      "channel": 4,
      "note": 58,
      "start": 28.3875,
      "duration": 0.0343,
      "velocity": 127,
      "chip": "ym2612"
    },
    {
      "channel": 0,
      "note": 51,
      "start": 28.5027,
      "duration": 0.0367,
      "velocity": 79,
      "chip": "ym2612"
    },
    {
      "channel": 1,
      "note": 24,
      "start": 28.5054,
      "duration": 0.0951,
      "velocity": 127,
      "chip": "ym2612"
    },
    {
      "channel": 2,
      "note": 74,
      "start": 28.5081,
      "duration": 0.0001,
      "velocity": 1,
      "chip": "ym2612"
    },
    {
      "channel": 4,
      "note": 58,
      "start": 28.5117,
      "duration": 0.1297,
      "velocity": 127,
      "chip": "ym2612"
    },
    {
      "channel": 1,
      "note": 22,
      "start": 28.6225,
      "duration": 0.0984,
      "velocity": 127,
      "chip": "ym2612"
    },
    {
      "channel": 2,
      "note": 74,
      "start": 28.6252,
      "duration": 0.0001,
      "velocity": 1,
      "chip": "ym2612"
    },
    {
      "channel": 0,
      "note": 53,
      "start": 28.7421,
      "duration": 0.0366,
      "velocity": 79,
      "chip": "ym2612"
    },
    {
      "channel": 1,
      "note": 22,
      "start": 28.7448,
      "duration": 0.0951,
      "velocity": 127,
      "chip": "ym2612"
    },
    {
      "channel": 2,
      "note": 74,
      "start": 28.7475,
      "duration": 0.0001,
      "velocity": 1,
      "chip": "ym2612"
    },
    {
      "channel": 3,
      "note": 80,
      "start": 28.7507,
      "duration": 0.1127,
      "velocity": 105,
      "chip": "ym2612"
    },
    {
      "channel": 4,
      "note": 58,
      "start": 28.7535,
      "duration": 0.0281,
      "velocity": 127,
      "chip": "ym2612"
    },
    {
      "channel": 2,
      "note": 74,
      "start": 28.8621,
      "duration": 0.0001,
      "velocity": 1,
      "chip": "ym2612"
    },
    {
      "channel": 3,
      "note": 72,
      "start": 28.8653,
      "duration": 0.1228,
      "velocity": 105,
      "chip": "ym2612"
    },
    {
      "channel": 4,
      "note": 58,
      "start": 28.8681,
      "duration": 0.0321,
      "velocity": 127,
      "chip": "ym2612"
    },
    {
      "channel": 0,
      "note": 46,
      "start": 28.9814,
      "duration": 0.0366,
      "velocity": 79,
      "chip": "ym2612"
    },
    {
      "channel": 1,
      "note": 22,
      "start": 28.984,
      "duration": 0.0947,
      "velocity": 127,
      "chip": "ym2612"
    },
    {
      "channel": 2,
      "note": 74,
      "start": 28.9868,
      "duration": 0.0001,
      "velocity": 1,
      "chip": "ym2612"
    },
    {
      "channel": 3,
      "note": 70,
      "start": 28.99,
      "duration": 0.1097,
      "velocity": 105,
      "chip": "ym2612"
    },
    {
      "channel": 4,
      "note": 58,
      "start": 28.9927,
      "duration": 0.1266,
      "velocity": 127,
      "chip": "ym2612"
    },
    {
      "channel": 3,
      "note": 67,
      "start": 29.102,
      "duration": 0.1253,
      "velocity": 105,
      "chip": "ym2612"
    },
    {
      "channel": 0,
      "note": 46,
      "start": 29.2206,
      "duration": 0.0366,
      "velocity": 79,
      "chip": "ym2612"
    },
    {
      "channel": 1,
      "note": 22,
      "start": 29.2233,
      "duration": 0.115,
      "velocity": 125,
      "chip": "ym2612"
    },
    {
      "channel": 2,
      "note": 74,
      "start": 29.2259,
      "duration": 0.0001,
      "velocity": 1,
      "chip": "ym2612"
    },
    {
      "channel": 3,
      "note": 72,
      "start": 29.2291,
      "duration": 0.111,
      "velocity": 105,
      "chip": "ym2612"
    },
    {
      "channel": 4,
      "note": 58,
      "start": 29.2319,
      "duration": 0.0283,
      "velocity": 127,
      "chip": "ym2612"
    },
    {
      "channel": 3,
      "note": 70,
      "start": 29.3419,
      "duration": 0.1247,
      "velocity": 105,
      "chip": "ym2612"
    },
    {
      "channel": 4,
      "note": 58,
      "start": 29.3447,
      "duration": 0.0339,
      "velocity": 127,
      "chip": "ym2612"
    },
    {
      "channel": 0,
      "note": 58,
      "start": 29.4598,
      "duration": 0.0366,
      "velocity": 79,
      "chip": "ym2612"
    },
    {
      "channel": 1,
      "note": 24,
      "start": 29.4625,
      "duration": 0.0952,
      "velocity": 127,
      "chip": "ym2612"
    },
    {
      "channel": 2,
      "note": 74,
      "start": 29.4653,
      "duration": 0.0001,
      "velocity": 1,
      "chip": "ym2612"
    },
    {
      "channel": 3,
      "note": 67,
      "start": 29.4685,
      "duration": 0.1151,
      "velocity": 105,
      "chip": "ym2612"
    },
    {
      "channel": 4,
      "note": 58,
      "start": 29.4712,
      "duration": 0.1269,
      "velocity": 127,
      "chip": "ym2612"
    },
    {
      "channel": 1,
      "note": 22,
      "start": 29.5796,
      "duration": 0.1203,
      "velocity": 125,
      "chip": "ym2612"
    },
    {
      "channel": 2,
      "note": 74,
      "start": 29.5822,
      "duration": 0.0001,
      "velocity": 1,
      "chip": "ym2612"
    },
    {
      "channel": 3,
      "note": 72,
      "start": 29.5854,
      "duration": 0.118,
      "velocity": 105,
      "chip": "ym2612"
    },
    {
      "channel": 0,
      "note": 58,
      "start": 29.699,
      "duration": 0.0367,
      "velocity": 79,
      "chip": "ym2612"
    },
    {
      "channel": 1,
      "note": 30,
      "start": 29.7016,
      "duration": 0.0957,
      "velocity": 127,
      "chip": "ym2612"
    },
    {
      "channel": 3,
      "note": 70,
      "start": 29.7053,
      "duration": 0.12,
      "velocity": 105,
      "chip": "ym2612"
    },
    {
      "channel": 4,
      "note": 58,
      "start": 29.7081,
      "duration": 0.0305,
      "velocity": 127,
      "chip": "ym2612"
    },
    {
      "channel": 0,
      "note": 58,
      "start": 29.8187,
      "duration": 0.0366,
      "velocity": 79,
      "chip": "ym2612"
    },
    {
      "channel": 1,
      "note": 22,
      "start": 29.8214,
      "duration": 0.1151,
      "velocity": 125,
      "chip": "ym2612"
    },
    {
      "channel": 2,
      "note": 74,
      "start": 29.824,
      "duration": 0.0001,
      "velocity": 1,
      "chip": "ym2612"
    },
    {
      "channel": 3,
      "note": 67,
      "start": 29.8272,
      "duration": 0.1155,
      "velocity": 105,
      "chip": "ym2612"
    },
    {
      "channel": 4,
      "note": 58,
      "start": 29.83,
      "duration": 0.0283,
      "velocity": 127,
      "chip": "ym2612"
    },
    {
      "channel": 1,
      "note": 30,
      "start": 29.9386,
      "duration": 0.0973,
      "velocity": 127,
      "chip": "ym2612"
    },
    {
      "channel": 2,
      "note": 74,
      "start": 29.9414,
      "duration": 0.0001,
      "velocity": 1,
      "chip": "ym2612"
    },
    {
      "channel": 3,
      "note": 72,
      "start": 29.9446,
      "duration": 0.1149,
      "velocity": 105,
      "chip": "ym2612"
    },
    {
      "channel": 4,
      "note": 58,
      "start": 29.9473,
      "duration": 0.129,
      "velocity": 127,
      "chip": "ym2612"
    },
    {
      "channel": 0,
      "note": 58,
      "start": 30.0575,
      "duration": 0.037,
      "velocity": 79,
      "chip": "ym2612"
    },
    {
      "channel": 3,
      "note": 70,
      "start": 30.0613,
      "duration": 0.1205,
      "velocity": 105,
      "chip": "ym2612"
    },
    {
      "channel": 1,
      "note": 22,
      "start": 30.1779,
      "duration": 0.1202,
      "velocity": 125,
      "chip": "ym2612"
    },
    {
      "channel": 2,
      "note": 75,
      "start": 30.1805,
      "duration": 0.0001,
      "velocity": 1,
      "chip": "ym2612"
    },
    {
      "channel": 3,
      "note": 67,
      "start": 30.1837,
      "duration": 0.1157,
      "velocity": 105,
      "chip": "ym2612"
    },
    {
      "channel": 4,
      "note": 58,
      "start": 30.1865,
      "duration": 0.0304,
      "velocity": 127,
      "chip": "ym2612"
    },
    {
      "channel": 0,
      "note": 58,
      "start": 30.2969,
      "duration": 0.0369,
      "velocity": 79,
      "chip": "ym2612"
    },
    {
      "channel": 3,
      "note": 72,
      "start": 30.3012,
      "duration": 0.1222,
      "velocity": 105,
      "chip": "ym2612"
    },
    {
      "channel": 4,
      "note": 58,
      "start": 30.304,
      "duration": 0.0317,
      "velocity": 127,
      "chip": "ym2612"
    },
    {
      "channel": 0,
      "note": 51,
      "start": 30.4168,
      "duration": 0.0366,
      "velocity": 79,
      "chip": "ym2612"
    },
    {
      "channel": 1,
      "note": 24,
      "start": 30.4195,
      "duration": 0.1178,
      "velocity": 125,
      "chip": "ym2612"
    },
    {
      "channel": 2,
      "note": 75,
      "start": 30.4221,
      "duration": 0.0001,
      "velocity": 1,
      "chip": "ym2612"
    },
    {
      "channel": 3,
      "note": 70,
      "start": 30.4253,
      "duration": 0.1176,
      "velocity": 105,
      "chip": "ym2612"
    },
    {
      "channel": 4,
      "note": 58,
      "start": 30.4281,
      "duration": 0.127,
      "velocity": 127,
      "chip": "ym2612"
    },
    {
      "channel": 0,
      "note": 53,
      "start": 30.5363,
      "duration": 0.0368,
      "velocity": 79,
      "chip": "ym2612"
    },
    {
      "channel": 1,
      "note": 30,
      "start": 30.5389,
      "duration": 0.1181,
      "velocity": 125,
      "chip": "ym2612"
    },
    {
      "channel": 2,
      "note": 74,
      "start": 30.5415,
      "duration": 0.0001,
      "velocity": 1,
      "chip": "ym2612"
    },
    {
      "channel": 3,
      "note": 67,
      "start": 30.5448,
      "duration": 0.1176,
      "velocity": 105,
      "chip": "ym2612"
    },
    {
      "channel": 0,
      "note": 55,
      "start": 30.656,
      "duration": 0.0366,
      "velocity": 79,
      "chip": "ym2612"
    },
    {
      "channel": 1,
      "note": 30,
      "start": 30.6587,
      "duration": 0.0947,
      "velocity": 127,
      "chip": "ym2612"
    },
    {
      "channel": 2,
      "note": 60,
      "start": 30.6613,
      "duration": 0.0722,
      "velocity": 91,
      "chip": "ym2612"
    },
    {
      "channel": 3,
      "note": 70,
      "start": 30.6642,
      "duration": 0.3294,
      "velocity": 105,
      "chip": "ym2612"
    },
    {
      "channel": 4,
      "note": 58,
      "start": 30.667,
      "duration": 0.0276,
      "velocity": 127,
      "chip": "ym2612"
    },
    {
      "channel": 4,
      "note": 58,
      "start": 30.7763,
      "duration": 0.037,
      "velocity": 127,
      "chip": "ym2612"
    },
    {
      "channel": 0,
      "note": 48,
      "start": 30.8951,
      "duration": 0.0368,
      "velocity": 79,
      "chip": "ym2612"
    },
    {
      "channel": 1,
      "note": 22,
      "start": 30.8978,
      "duration": 0.0947,
      "velocity": 127,
      "chip": "ym2612"
    },
    {
      "channel": 2,
      "note": 60,
      "start": 30.9004,
      "duration": 0.0724,
      "velocity": 91,
      "chip": "ym2612"
    },
    {
      "channel": 4,
      "note": 58,
      "start": 30.9036,
      "duration": 0.129,
      "velocity": 127,
      "chip": "ym2612"
    },
    {
      "channel": 0,
      "note": 48,
      "start": 31.1344,
      "duration": 0.0367,
      "velocity": 79,
      "chip": "ym2612"
    },
    {
      "channel": 1,
      "note": 22,
      "start": 31.1371,
      "duration": 0.115,
      "velocity": 125,
      "chip": "ym2612"
    },
    {
      "channel": 2,
      "note": 60,
      "start": 31.1396,
      "duration": 0.0725,
      "velocity": 91,
      "chip": "ym2612"
    },
    {
      "channel": 4,
      "note": 58,
      "start": 31.1427,
      "duration": 0.0303,
      "velocity": 127,
      "chip": "ym2612"
    },
    {
      "channel": 4,
      "note": 58,
      "start": 31.2553,
      "duration": 0.0365,
      "velocity": 127,
      "chip": "ym2612"
    },
    {
      "channel": 0,
      "note": 60,
      "start": 31.3736,
      "duration": 0.0368,
      "velocity": 79,
      "chip": "ym2612"
    },
    {
      "channel": 1,
      "note": 24,
      "start": 31.3763,
      "duration": 0.0949,
      "velocity": 127,
      "chip": "ym2612"
    },
    {
      "channel": 2,
      "note": 48,
      "start": 31.3789,
      "duration": 0.0724,
      "velocity": 91,
      "chip": "ym2612"
    },
    {
      "channel": 4,
      "note": 58,
      "start": 31.3821,
      "duration": 0.1294,
      "velocity": 127,
      "chip": "ym2612"
    },
    {
      "channel": 1,
      "note": 22,
      "start": 31.4932,
      "duration": 0.1206,
      "velocity": 125,
      "chip": "ym2612"
    },
    {
      "channel": 0,
      "note": 60,
      "start": 31.6129,
      "duration": 0.0367,
      "velocity": 79,
      "chip": "ym2612"
    },
    {
      "channel": 1,
      "note": 30,
      "start": 31.6155,
      "duration": 0.0956,
      "velocity": 127,
      "chip": "ym2612"
    },
    {
      "channel": 2,
      "note": 48,
      "start": 31.6182,
      "duration": 0.0724,
      "velocity": 91,
      "chip": "ym2612"
    },
    {
      "channel": 4,
      "note": 58,
      "start": 31.6213,
      "duration": 0.0302,
      "velocity": 127,
      "chip": "ym2612"
    },
    {
      "channel": 0,
      "note": 58,
      "start": 31.7325,
      "duration": 0.0367,
      "velocity": 79,
      "chip": "ym2612"
    },
    {
      "channel": 1,
      "note": 22,
      "start": 31.7351,
      "duration": 0.115,
      "velocity": 125,
      "chip": "ym2612"
    },
    {
      "channel": 2,
      "note": 60,
      "start": 31.7377,
      "duration": 0.0725,
      "velocity": 91,
      "chip": "ym2612"
    },
    {
      "channel": 4,
      "note": 58,
      "start": 31.7408,
      "duration": 0.0303,
      "velocity": 127,
      "chip": "ym2612"
    },
    {
      "channel": 1,
      "note": 30,
      "start": 31.8523,
      "duration": 0.0976,
      "velocity": 127,
      "chip": "ym2612"
    },
    {
      "channel": 4,
      "note": 58,
      "start": 31.8556,
      "duration": 0.1343,
      "velocity": 127,
      "chip": "ym2612"
    },
    {
      "channel": 0,
      "note": 58,
      "start": 31.9714,
      "duration": 0.037,
      "velocity": 79,
      "chip": "ym2612"
    },
    {
      "channel": 2,
      "note": 60,
      "start": 31.9742,
      "duration": 0.0748,
      "velocity": 91,
      "chip": "ym2612"
    },
    {
      "channel": 1,
      "note": 22,
      "start": 32.0915,
      "duration": 0.1205,
      "velocity": 125,
      "chip": "ym2612"
    },
    {
      "channel": 4,
      "note": 58,
      "start": 32.0947,
      "duration": 0.0349,
      "velocity": 127,
      "chip": "ym2612"
    },
    {
      "channel": 0,
      "note": 58,
      "start": 32.2108,
      "duration": 0.0369,
      "velocity": 79,
      "chip": "ym2612"
    },
    {
      "channel": 2,
      "note": 48,
      "start": 32.2141,
      "duration": 0.0741,
      "velocity": 91,
      "chip": "ym2612"
    },
    {
      "channel": 4,
      "note": 58,
      "start": 32.2173,
      "duration": 0.0319,
      "velocity": 127,
      "chip": "ym2612"
    },
    {
      "channel": 0,
      "note": 53,
      "start": 32.3306,
      "duration": 0.0367,
      "velocity": 79,
      "chip": "ym2612"
    },
    {
      "channel": 1,
      "note": 24,
      "start": 32.3332,
      "duration": 0.0949,
      "velocity": 127,
      "chip": "ym2612"
    },
    {
      "channel": 2,
      "note": 48,
      "start": 32.3359,
      "duration": 0.0724,
      "velocity": 91,
      "chip": "ym2612"
    },
    {
      "channel": 4,
      "note": 58,
      "start": 32.339,
      "duration": 0.1292,
      "velocity": 127,
      "chip": "ym2612"
    },
    {
      "channel": 2,
      "note": 60,
      "start": 32.4503,
      "duration": 0.0771,
      "velocity": 91,
      "chip": "ym2612"
    },
    {
      "channel": 0,
      "note": 55,
      "start": 32.5698,
      "duration": 0.0368,
      "velocity": 79,
      "chip": "ym2612"
    },
    {
      "channel": 1,
      "note": 22,
      "start": 32.5725,
      "duration": 0.0949,
      "velocity": 127,
      "chip": "ym2612"
    },
    {
      "channel": 2,
      "note": 48,
      "start": 32.5751,
      "duration": 0.0724,
      "velocity": 91,
      "chip": "ym2612"
    },
    {
      "channel": 4,
      "note": 58,
      "start": 32.5783,
      "duration": 0.0302,
      "velocity": 127,
      "chip": "ym2612"
    },
    {
      "channel": 4,
      "note": 58,
      "start": 32.6902,
      "duration": 0.037,
      "velocity": 127,
      "chip": "ym2612"
    },
    {
      "channel": 0,
      "note": 48,
      "start": 32.809,
      "duration": 0.0367,
      "velocity": 79,
      "chip": "ym2612"
    },
    {
      "channel": 1,
      "note": 22,
      "start": 32.8117,
      "duration": 0.0947,
      "velocity": 127,
      "chip": "ym2612"
    },
    {
      "channel": 2,
      "note": 60,
      "start": 32.8144,
      "duration": 0.0724,
      "velocity": 91,
      "chip": "ym2612"
    },
    {
      "channel": 4,
      "note": 58,
      "start": 32.8175,
      "duration": 0.1291,
      "velocity": 127,
      "chip": "ym2612"
    },
    {
      "channel": 0,
      "note": 48,
      "start": 33.0483,
      "duration": 0.0368,
      "velocity": 79,
      "chip": "ym2612"
    },
    {
      "channel": 1,
      "note": 22,
      "start": 33.051,
      "duration": 0.115,
      "velocity": 125,
      "chip": "ym2612"
    },
    {
      "channel": 2,
      "note": 60,
      "start": 33.0535,
      "duration": 0.0725,
      "velocity": 91,
      "chip": "ym2612"
    },
    {
      "channel": 4,
      "note": 58,
      "start": 33.0566,
      "duration": 0.0303,
      "velocity": 127,
      "chip": "ym2612"
    },
    {
      "channel": 4,
      "note": 58,
      "start": 33.1693,
      "duration": 0.0365,
      "velocity": 127,
      "chip": "ym2612"
    },
    {
      "channel": 0,
      "note": 60,
      "start": 33.2875,
      "duration": 0.0367,
      "velocity": 79,
      "chip": "ym2612"
    },
    {
      "channel": 1,
      "note": 24,
      "start": 33.2902,
      "duration": 0.0949,
      "velocity": 127,
      "chip": "ym2612"
    },
    {
      "channel": 2,
      "note": 48,
      "start": 33.2928,
      "duration": 0.0724,
      "velocity": 91,
      "chip": "ym2612"
    },
    {
      "channel": 4,
      "note": 58,
      "start": 33.296,
      "duration": 0.1294,
      "velocity": 127,
      "chip": "ym2612"
    },
    {
      "channel": 1,
      "note": 22,
      "start": 33.4072,
      "duration": 0.1206,
      "velocity": 125,
      "chip": "ym2612"
    },
    {
      "channel": 0,
      "note": 60,
      "start": 33.5268,
      "duration": 0.0368,
      "velocity": 79,
      "chip": "ym2612"
    },
    {
      "channel": 1,
      "note": 30,
      "start": 33.5295,
      "duration": 0.0956,
      "velocity": 127,
      "chip": "ym2612"
    },
    {
      "channel": 2,
      "note": 48,
      "start": 33.5321,
      "duration": 0.0724,
      "velocity": 91,
      "chip": "ym2612"
    },
    {
      "channel": 4,
      "note": 58,
      "start": 33.5352,
      "duration": 0.0301,
      "velocity": 127,
      "chip": "ym2612"
    },
    {
      "channel": 0,
      "note": 58,
      "start": 33.6464,
      "duration": 0.0368,
      "velocity": 79,
      "chip": "ym2612"
    },
    {
      "channel": 1,
      "note": 22,
      "start": 33.6491,
      "duration": 0.115,
      "velocity": 125,
      "chip": "ym2612"
    },
    {
      "channel": 2,
      "note": 60,
      "start": 33.6516,
      "duration": 0.0725,
      "velocity": 91,
      "chip": "ym2612"
    },
    {
      "channel": 4,
      "note": 58,
      "start": 33.6547,
      "duration": 0.0303,
      "velocity": 127,
      "chip": "ym2612"
    },
    {
      "channel": 1,
      "note": 30,
      "start": 33.7662,
      "duration": 0.0976,
      "velocity": 127,
      "chip": "ym2612"
    },
    {
      "channel": 4,
      "note": 58,
      "start": 33.7695,
      "duration": 0.1342,
      "velocity": 127,
      "chip": "ym2612"
    },
    {
      "channel": 0,
      "note": 58,
      "start": 33.8853,
      "duration": 0.0371,
      "velocity": 79,
      "chip": "ym2612"
    },
    {
      "channel": 2,
      "note": 60,
      "start": 33.8881,
      "duration": 0.0748,
      "velocity": 91,
      "chip": "ym2612"
    },
    {
      "channel": 1,
      "note": 22,
      "start": 34.0054,
      "duration": 0.1204,
      "velocity": 125,
      "chip": "ym2612"
    },
    {
      "channel": 4,
      "note": 58,
      "start": 34.0086,
      "duration": 0.0349,
      "velocity": 127,
      "chip": "ym2612"
    },
    {
      "channel": 0,
      "note": 58,
      "start": 34.1247,
      "duration": 0.0369,
      "velocity": 79,
      "chip": "ym2612"
    },
    {
      "channel": 2,
      "note": 48,
      "start": 34.128,
      "duration": 0.0741,
      "velocity": 91,
      "chip": "ym2612"
    },
    {
      "channel": 4,
      "note": 58,
      "start": 34.1312,
      "duration": 0.0319,
      "velocity": 127,
      "chip": "ym2612"
    },
    {
      "channel": 0,
      "note": 53,
      "start": 34.2445,
      "duration": 0.0368,
      "velocity": 79,
      "chip": "ym2612"
    },
    {
      "channel": 1,
      "note": 24,
      "start": 34.2471,
      "duration": 0.1149,
      "velocity": 125,
      "chip": "ym2612"
    },
    {
      "channel": 2,
      "note": 48,
      "start": 34.2497,
      "duration": 0.0725,
      "velocity": 91,
      "chip": "ym2612"
    },
    {
      "channel": 4,
      "note": 58,
      "start": 34.2528,
      "duration": 0.1298,
      "velocity": 127,
      "chip": "ym2612"
    },
    {
      "channel": 1,
      "note": 30,
      "start": 34.3642,
      "duration": 0.0981,
      "velocity": 127,
      "chip": "ym2612"
    },
    {
      "channel": 2,
      "note": 60,
      "start": 34.3669,
      "duration": 0.0749,
      "velocity": 91,
      "chip": "ym2612"
    },
    {
      "channel": 0,
      "note": 55,
      "start": 34.4837,
      "duration": 0.0368,
      "velocity": 79,
      "chip": "ym2612"
    },
    {
      "channel": 1,
      "note": 22,
      "start": 34.4864,
      "duration": 0.0949,
      "velocity": 127,
      "chip": "ym2612"
    },
    {
      "channel": 2,
      "note": 48,
      "start": 34.489,
      "duration": 0.0724,
      "velocity": 91,
      "chip": "ym2612"
    },
    {
      "channel": 4,
      "note": 58,
      "start": 34.4922,
      "duration": 0.0301,
      "velocity": 127,
      "chip": "ym2612"
    },
    {
      "channel": 4,
      "note": 58,
      "start": 34.6041,
      "duration": 0.037,
      "velocity": 127,
      "chip": "ym2612"
    },
    {
      "channel": 0,
      "note": 48,
      "start": 34.7229,
      "duration": 0.0368,
      "velocity": 79,
      "chip": "ym2612"
    },
    {
      "channel": 1,
      "note": 22,
      "start": 34.7256,
      "duration": 0.0947,
      "velocity": 127,
      "chip": "ym2612"
    },
    {
      "channel": 2,
      "note": 60,
      "start": 34.7283,
      "duration": 0.0724,
      "velocity": 91,
      "chip": "ym2612"
    },
    {
      "channel": 4,
      "note": 58,
      "start": 34.7314,
      "duration": 0.1291,
      "velocity": 127,
      "chip": "ym2612"
    },
    {
      "channel": 0,
      "note": 48,
      "start": 34.9622,
      "duration": 0.0368,
      "velocity": 79,
      "chip": "ym2612"
    },
    {
      "channel": 1,
      "note": 22,
      "start": 34.9649,
      "duration": 0.115,
      "velocity": 125,
      "chip": "ym2612"
    },
    {
      "channel": 2,
      "note": 60,
      "start": 34.9674,
      "duration": 0.0725,
      "velocity": 91,
      "chip": "ym2612"
    },
    {
      "channel": 4,
      "note": 58,
      "start": 34.9705,
      "duration": 0.0303,
      "velocity": 127,
      "chip": "ym2612"
    },
    {
      "channel": 4,
      "note": 58,
      "start": 35.0832,
      "duration": 0.0365,
      "velocity": 127,
      "chip": "ym2612"
    },
    {
      "channel": 0,
      "note": 60,
      "start": 35.2014,
      "duration": 0.0368,
      "velocity": 79,
      "chip": "ym2612"
    },
    {
      "channel": 1,
      "note": 24,
      "start": 35.2041,
      "duration": 0.0949,
      "velocity": 127,
      "chip": "ym2612"
    },
    {
      "channel": 2,
      "note": 48,
      "start": 35.2068,
      "duration": 0.0724,
      "velocity": 91,
      "chip": "ym2612"
    },
    {
      "channel": 4,
      "note": 58,
      "start": 35.2099,
      "duration": 0.1294,
      "velocity": 127,
      "chip": "ym2612"
    },
    {
      "channel": 1,
      "note": 22,
      "start": 35.3211,
      "duration": 0.1206,
      "velocity": 125,
      "chip": "ym2612"
    },
    {
      "channel": 0,
      "note": 60,
      "start": 35.4407,
      "duration": 0.0367,
      "velocity": 79,
      "chip": "ym2612"
    },
    {
      "channel": 1,
      "note": 30,
      "start": 35.4434,
      "duration": 0.0954,
      "velocity": 127,
      "chip": "ym2612"
    },
    {
      "channel": 2,
      "note": 48,
      "start": 35.446,
      "duration": 0.0724,
      "velocity": 91,
      "chip": "ym2612"
    },
    {
      "channel": 4,
      "note": 58,
      "start": 35.4491,
      "duration": 0.0302,
      "velocity": 127,
      "chip": "ym2612"
    },
    {
      "channel": 0,
      "note": 58,
      "start": 35.5602,
      "duration": 0.0369,
      "velocity": 79,
      "chip": "ym2612"
    },
    {
      "channel": 1,
      "note": 22,
      "start": 35.5628,
      "duration": 0.1152,
      "velocity": 125,
      "chip": "ym2612"
    },
    {
      "channel": 4,
      "note": 58,
      "start": 35.566,
      "duration": 0.0328,
      "velocity": 127,
      "chip": "ym2612"
    },
    {
      "channel": 1,
      "note": 30,
      "start": 35.6802,
      "duration": 0.0975,
      "velocity": 127,
      "chip": "ym2612"
    },
    {
      "channel": 2,
      "note": 60,
      "start": 35.6829,
      "duration": 0.0747,
      "velocity": 91,
      "chip": "ym2612"
    },
    {
      "channel": 4,
      "note": 58,
      "start": 35.6861,
      "duration": 0.1316,
      "velocity": 127,
      "chip": "ym2612"
    },
    {
      "channel": 0,
      "note": 58,
      "start": 35.7993,
      "duration": 0.037,
      "velocity": 79,
      "chip": "ym2612"
    },
    {
      "channel": 2,
      "note": 60,
      "start": 35.802,
      "duration": 0.0748,
      "velocity": 91,
      "chip": "ym2612"
    },
    {
      "channel": 1,
      "note": 22,
      "start": 35.9193,
      "duration": 0.1204,
      "velocity": 125,
      "chip": "ym2612"
    },
    {
      "channel": 4,
      "note": 58,
      "start": 35.9225,
      "duration": 0.0349,
      "velocity": 127,
      "chip": "ym2612"
    },
    {
      "channel": 0,
      "note": 58,
      "start": 36.0386,
      "duration": 0.0369,
      "velocity": 79,
      "chip": "ym2612"
    },
    {
      "channel": 2,
      "note": 48,
      "start": 36.042,
      "duration": 0.0741,
      "velocity": 91,
      "chip": "ym2612"
    },
    {
      "channel": 4,
      "note": 58,
      "start": 36.0451,
      "duration": 0.0319,
      "velocity": 127,
      "chip": "ym2612"
    },
    {
      "channel": 0,
      "note": 53,
      "start": 36.1584,
      "duration": 0.0368,
      "velocity": 79,
      "chip": "ym2612"
    },
    {
      "channel": 1,
      "note": 24,
      "start": 36.1611,
      "duration": 0.0951,
      "velocity": 127,
      "chip": "ym2612"
    },
    {
      "channel": 2,
      "note": 48,
      "start": 36.1637,
      "duration": 0.0724,
      "velocity": 91,
      "chip": "ym2612"
    },
    {
      "channel": 4,
      "note": 58,
      "start": 36.1668,
      "duration": 0.1297,
      "velocity": 127,
      "chip": "ym2612"
    },
    {
      "channel": 1,
      "note": 22,
      "start": 36.2781,
      "duration": 0.0982,
      "velocity": 127,
      "chip": "ym2612"
    },
    {
      "channel": 2,
      "note": 60,
      "start": 36.2808,
      "duration": 0.0749,
      "velocity": 91,
      "chip": "ym2612"
    },
    {
      "channel": 0,
      "note": 55,
      "start": 36.3976,
      "duration": 0.0367,
      "velocity": 79,
      "chip": "ym2612"
    },
    {
      "channel": 1,
      "note": 22,
      "start": 36.4003,
      "duration": 0.0949,
      "velocity": 127,
      "chip": "ym2612"
    },
    {
      "channel": 2,
      "note": 48,
      "start": 36.4029,
      "duration": 0.0724,
      "velocity": 91,
      "chip": "ym2612"
    },
    {
      "channel": 4,
      "note": 58,
      "start": 36.4061,
      "duration": 0.0301,
      "velocity": 127,
      "chip": "ym2612"
    },
    {
      "channel": 4,
      "note": 58,
      "start": 36.518,
      "duration": 0.037,
      "velocity": 127,
      "chip": "ym2612"
    },
    {
      "channel": 0,
      "note": 48,
      "start": 36.6369,
      "duration": 0.0368,
      "velocity": 79,
      "chip": "ym2612"
    },
    {
      "channel": 1,
      "note": 22,
      "start": 36.6395,
      "duration": 0.0947,
      "velocity": 127,
      "chip": "ym2612"
    },
    {
      "channel": 2,
      "note": 60,
      "start": 36.6422,
      "duration": 0.0724,
      "velocity": 91,
      "chip": "ym2612"
    },
    {
      "channel": 4,
      "note": 58,
      "start": 36.6453,
      "duration": 0.1291,
      "velocity": 127,
      "chip": "ym2612"
    },
    {
      "channel": 0,
      "note": 48,
      "start": 36.8761,
      "duration": 0.0367,
      "velocity": 79,
      "chip": "ym2612"
    },
    {
      "channel": 1,
      "note": 22,
      "start": 36.8788,
      "duration": 0.115,
      "velocity": 125,
      "chip": "ym2612"
    },
    {
      "channel": 2,
      "note": 60,
      "start": 36.8813,
      "duration": 0.0725,
      "velocity": 91,
      "chip": "ym2612"
    },
    {
      "channel": 4,
      "note": 58,
      "start": 36.8845,
      "duration": 0.0302,
      "velocity": 127,
      "chip": "ym2612"
    },
    {
      "channel": 4,
      "note": 58,
      "start": 36.9971,
      "duration": 0.0365,
      "velocity": 127,
      "chip": "ym2612"
    },
    {
      "channel": 0,
      "note": 60,
      "start": 37.1154,
      "duration": 0.0368,
      "velocity": 79,
      "chip": "ym2612"
    },
    {
      "channel": 1,
      "note": 24,
      "start": 37.118,
      "duration": 0.0949,
      "velocity": 127,
      "chip": "ym2612"
    },
    {
      "channel": 2,
      "note": 48,
      "start": 37.1207,
      "duration": 0.0724,
      "velocity": 91,
      "chip": "ym2612"
    },
    {
      "channel": 4,
      "note": 58,
      "start": 37.1238,
      "duration": 0.1294,
      "velocity": 127,
      "chip": "ym2612"
    },
    {
      "channel": 1,
      "note": 22,
      "start": 37.235,
      "duration": 0.1206,
      "velocity": 125,
      "chip": "ym2612"
    },
    {
      "channel": 0,
      "note": 60,
      "start": 37.3546,
      "duration": 0.0368,
      "velocity": 79,
      "chip": "ym2612"
    },
    {
      "channel": 1,
      "note": 30,
      "start": 37.3573,
      "duration": 0.0954,
      "velocity": 127,
      "chip": "ym2612"
    },
    {
      "channel": 2,
      "note": 48,
      "start": 37.3599,
      "duration": 0.0724,
      "velocity": 91,
      "chip": "ym2612"
    },
    {
      "channel": 4,
      "note": 58,
      "start": 37.363,
      "duration": 0.0302,
      "velocity": 127,
      "chip": "ym2612"
    },
    {
      "channel": 0,
      "note": 53,
      "start": 37.4741,
      "duration": 0.0369,
      "velocity": 79,
      "chip": "ym2612"
    },
    {
      "channel": 1,
      "note": 22,
      "start": 37.4767,
      "duration": 0.1152,
      "velocity": 125,
      "chip": "ym2612"
    },
    {
      "channel": 4,
      "note": 58,
      "start": 37.48,
      "duration": 0.0327,
      "velocity": 127,
      "chip": "ym2612"
    },
    {
      "channel": 1,
      "note": 30,
      "start": 37.5941,
      "duration": 0.0975,
      "velocity": 127,
      "chip": "ym2612"
    },
    {
      "channel": 2,
      "note": 60,
      "start": 37.5968,
      "duration": 0.0747,
      "velocity": 91,
      "chip": "ym2612"
    },
    {
      "channel": 4,
      "note": 58,
      "start": 37.5999,
      "duration": 0.1316,
      "velocity": 127,
      "chip": "ym2612"
    },
    {
      "channel": 0,
      "note": 53,
      "start": 37.7132,
      "duration": 0.037,
      "velocity": 79,
      "chip": "ym2612"
    },
    {
      "channel": 2,
      "note": 60,
      "start": 37.7159,
      "duration": 0.0748,
      "velocity": 91,
      "chip": "ym2612"
    },
    {
      "channel": 1,
      "note": 22,
      "start": 37.8332,
      "duration": 0.1205,
      "velocity": 125,
      "chip": "ym2612"
    },
    {
      "channel": 4,
      "note": 58,
      "start": 37.8364,
      "duration": 0.035,
      "velocity": 127,
      "chip": "ym2612"
    },
    {
      "channel": 0,
      "note": 53,
      "start": 37.9526,
      "duration": 0.0369,
      "velocity": 79,
      "chip": "ym2612"
    },
    {
      "channel": 2,
      "note": 48,
      "start": 37.9559,
      "duration": 0.0741,
      "velocity": 91,
      "chip": "ym2612"
    },
    {
      "channel": 4,
      "note": 58,
      "start": 37.959,
      "duration": 0.0319,
      "velocity": 127,
      "chip": "ym2612"
    },
    {
      "channel": 0,
      "note": 55,
      "start": 38.0723,
      "duration": 0.0367,
      "velocity": 79,
      "chip": "ym2612"
    },
    {
      "channel": 1,
      "note": 24,
      "start": 38.075,
      "duration": 0.1149,
      "velocity": 125,
      "chip": "ym2612"
    },
    {
      "channel": 2,
      "note": 48,
      "start": 38.0775,
      "duration": 0.0725,
      "velocity": 91,
      "chip": "ym2612"
    },
    {
      "channel": 4,
      "note": 58,
      "start": 38.0807,
      "duration": 0.1296,
      "velocity": 127,
      "chip": "ym2612"
    },
    {
      "channel": 1,
      "note": 30,
      "start": 38.1921,
      "duration": 0.1206,
      "velocity": 125,
      "chip": "ym2612"
    },
    {
      "channel": 2,
      "note": 60,
      "start": 38.1946,
      "duration": 0.075,
      "velocity": 91,
      "chip": "ym2612"
    },
    {
      "channel": 0,
      "note": 51,
      "start": 38.3117,
      "duration": 0.0366,
      "velocity": 79,
      "chip": "ym2612"
    },
    {
      "channel": 1,
      "note": 30,
      "start": 38.3144,
      "duration": 0.0947,
      "velocity": 127,
      "chip": "ym2612"
    },
    {
      "channel": 2,
      "note": 61,
      "start": 38.317,
      "duration": 0.0722,
      "velocity": 91,
      "chip": "ym2612"
    },
    {
      "channel": 3,
      "note": 72,
      "start": 38.3198,
      "duration": 0.3294,
      "velocity": 105,
      "chip": "ym2612"
    },
    {
      "channel": 4,
      "note": 58,
      "start": 38.3226,
      "duration": 0.0276,
      "velocity": 127,
      "chip": "ym2612"
    },
    {
      "channel": 4,
      "note": 58,
      "start": 38.432,
      "duration": 0.037,
      "velocity": 127,
      "chip": "ym2612"
    },
    {
      "channel": 0,
      "note": 48,
      "start": 38.5508,
      "duration": 0.0367,
      "velocity": 79,
      "chip": "ym2612"
    },
    {
      "channel": 1,
      "note": 22,
      "start": 38.5534,
      "duration": 0.0947,
      "velocity": 127,
      "chip": "ym2612"
    },
    {
      "channel": 2,
      "note": 60,
      "start": 38.5561,
      "duration": 0.0724,
      "velocity": 91,
      "chip": "ym2612"
    },
    {
      "channel": 4,
      "note": 58,
      "start": 38.5593,
      "duration": 0.1291,
      "velocity": 127,
      "chip": "ym2612"
    },
    {
      "channel": 0,
      "note": 48,
      "start": 38.79,
      "duration": 0.0368,
      "velocity": 79,
      "chip": "ym2612"
    },
    {
      "channel": 1,
      "note": 22,
      "start": 38.7927,
      "duration": 0.115,
      "velocity": 125,
      "chip": "ym2612"
    },
    {
      "channel": 2,
      "note": 60,
      "start": 38.7952,
      "duration": 0.0725,
      "velocity": 91,
      "chip": "ym2612"
    },
    {
      "channel": 4,
      "note": 58,
      "start": 38.7984,
      "duration": 0.0303,
      "velocity": 127,
      "chip": "ym2612"
    },
    {
      "channel": 4,
      "note": 58,
      "start": 38.911,
      "duration": 0.0365,
      "velocity": 127,
      "chip": "ym2612"
    },
    {
      "channel": 0,
      "note": 60,
      "start": 39.0293,
      "duration": 0.0367,
      "velocity": 79,
      "chip": "ym2612"
    },
    {
      "channel": 1,
      "note": 24,
      "start": 39.032,
      "duration": 0.0949,
      "velocity": 127,
      "chip": "ym2612"
    },
    {
      "channel": 2,
      "note": 48,
      "start": 39.0346,
      "duration": 0.0724,
      "velocity": 91,
      "chip": "ym2612"
    },
    {
      "channel": 4,
      "note": 58,
      "start": 39.0377,
      "duration": 0.1294,
      "velocity": 127,
      "chip": "ym2612"
    },
    {
      "channel": 1,
      "note": 22,
      "start": 39.1489,
      "duration": 0.1206,
      "velocity": 125,
      "chip": "ym2612"
    },
    {
      "channel": 0,
      "note": 60,
      "start": 39.2685,
      "duration": 0.0368,
      "velocity": 79,
      "chip": "ym2612"
    },
    {
      "channel": 1,
      "note": 30,
      "start": 39.2712,
      "duration": 0.0956,
      "velocity": 127,
      "chip": "ym2612"
    },
    {
      "channel": 2,
      "note": 48,
      "start": 39.2738,
      "duration": 0.0724,
      "velocity": 91,
      "chip": "ym2612"
    },
    {
      "channel": 4,
      "note": 58,
      "start": 39.277,
      "duration": 0.0302,
      "velocity": 127,
      "chip": "ym2612"
    },
    {
      "channel": 0,
      "note": 58,
      "start": 39.3881,
      "duration": 0.0368,
      "velocity": 79,
      "chip": "ym2612"
    },
    {
      "channel": 1,
      "note": 22,
      "start": 39.3908,
      "duration": 0.115,
      "velocity": 125,
      "chip": "ym2612"
    },
    {
      "channel": 2,
      "note": 60,
      "start": 39.3933,
      "duration": 0.0725,
      "velocity": 91,
      "chip": "ym2612"
    },
    {
      "channel": 4,
      "note": 58,
      "start": 39.3965,
      "duration": 0.0303,
      "velocity": 127,
      "chip": "ym2612"
    },
    {
      "channel": 1,
      "note": 30,
      "start": 39.5079,
      "duration": 0.0976,
      "velocity": 127,
      "chip": "ym2612"
    },
    {
      "channel": 4,
      "note": 58,
      "start": 39.5112,
      "duration": 0.1343,
      "velocity": 127,
      "chip": "ym2612"
    },
    {
      "channel": 0,
      "note": 58,
      "start": 39.6271,
      "duration": 0.037,
      "velocity": 79,
      "chip": "ym2612"
    },
    {
      "channel": 2,
      "note": 60,
      "start": 39.6298,
      "duration": 0.0748,
      "velocity": 91,
      "chip": "ym2612"
    },
    {
      "channel": 1,
      "note": 22,
      "start": 39.7472,
      "duration": 0.1204,
      "velocity": 125,
      "chip": "ym2612"
    },
    {
      "channel": 4,
      "note": 58,
      "start": 39.7504,
      "duration": 0.0349,
      "velocity": 127,
      "chip": "ym2612"
    },
    {
      "channel": 0,
      "note": 58,
      "start": 39.8665,
      "duration": 0.0369,
      "velocity": 79,
      "chip": "ym2612"
    },
    {
      "channel": 2,
      "note": 48,
      "start": 39.8698,
      "duration": 0.0741,
      "velocity": 91,
      "chip": "ym2612"
    },
    {
      "channel": 4,
      "note": 58,
      "start": 39.8729,
      "duration": 0.0318,
      "velocity": 127,
      "chip": "ym2612"
    },
    {
      "channel": 0,
      "note": 53,
      "start": 39.9862,
      "duration": 0.0368,
      "velocity": 79,
      "chip": "ym2612"
    },
    {
      "channel": 1,
      "note": 24,
      "start": 39.9889,
      "duration": 0.0949,
      "velocity": 127,
      "chip": "ym2612"
    },
    {
      "channel": 2,
      "note": 48,
      "start": 39.9915,
      "duration": 0.0724,
      "velocity": 91,
      "chip": "ym2612"
    },
    {
      "channel": 4,
      "note": 58,
      "start": 39.9947,
      "duration": 0.1292,
      "velocity": 127,
      "chip": "ym2612"
    },
    {
      "channel": 2,
      "note": 60,
      "start": 40.1059,
      "duration": 0.0771,
      "velocity": 91,
      "chip": "ym2612"
    },
    {
      "channel": 0,
      "note": 55,
      "start": 40.2255,
      "duration": 0.0368,
      "velocity": 79,
      "chip": "ym2612"
    },
    {
      "channel": 1,
      "note": 22,
      "start": 40.2281,
      "duration": 0.0949,
      "velocity": 127,
      "chip": "ym2612"
    },
    {
      "channel": 2,
      "note": 48,
      "start": 40.2308,
      "duration": 0.0724,
      "velocity": 91,
      "chip": "ym2612"
    },
    {
      "channel": 4,
      "note": 58,
      "start": 40.2339,
      "duration": 0.0302,
      "velocity": 127,
      "chip": "ym2612"
    },
    {
      "channel": 4,
      "note": 58,
      "start": 40.3459,
      "duration": 0.037,
      "velocity": 127,
      "chip": "ym2612"
    },
    {
      "channel": 0,
      "note": 48,
      "start": 40.4647,
      "duration": 0.0368,
      "velocity": 79,
      "chip": "ym2612"
    },
    {
      "channel": 1,
      "note": 22,
      "start": 40.4674,
      "duration": 0.0947,
      "velocity": 127,
      "chip": "ym2612"
    },
    {
      "channel": 2,
      "note": 60,
      "start": 40.47,
      "duration": 0.0724,
      "velocity": 91,
      "chip": "ym2612"
    },
    {
      "channel": 4,
      "note": 58,
      "start": 40.4732,
      "duration": 0.1291,
      "velocity": 127,
      "chip": "ym2612"
    },
    {
      "channel": 0,
      "note": 48,
      "start": 40.7039,
      "duration": 0.0368,
      "velocity": 79,
      "chip": "ym2612"
    },
    {
      "channel": 1,
      "note": 22,
      "start": 40.7066,
      "duration": 0.115,
      "velocity": 125,
      "chip": "ym2612"
    },
    {
      "channel": 2,
      "note": 60,
      "start": 40.7092,
      "duration": 0.0725,
      "velocity": 91,
      "chip": "ym2612"
    },
    {
      "channel": 4,
      "note": 58,
      "start": 40.7123,
      "duration": 0.0303,
      "velocity": 127,
      "chip": "ym2612"
    },
    {
      "channel": 4,
      "note": 58,
      "start": 40.8249,
      "duration": 0.0365,
      "velocity": 127,
      "chip": "ym2612"
    },
    {
      "channel": 0,
      "note": 60,
      "start": 40.9432,
      "duration": 0.0368,
      "velocity": 79,
      "chip": "ym2612"
    },
    {
      "channel": 1,
      "note": 24,
      "start": 40.9459,
      "duration": 0.0949,
      "velocity": 127,
      "chip": "ym2612"
    },
    {
      "channel": 2,
      "note": 48,
      "start": 40.9485,
      "duration": 0.0724,
      "velocity": 91,
      "chip": "ym2612"
    },
    {
      "channel": 4,
      "note": 58,
      "start": 40.9517,
      "duration": 0.1294,
      "velocity": 127,
      "chip": "ym2612"
    },
    {
      "channel": 1,
      "note": 22,
      "start": 41.0628,
      "duration": 0.1206,
      "velocity": 125,
      "chip": "ym2612"
    },
    {
      "channel": 0,
      "note": 60,
      "start": 41.1824,
      "duration": 0.0367,
      "velocity": 79,
      "chip": "ym2612"
    },
    {
      "channel": 1,
      "note": 30,
      "start": 41.1851,
      "duration": 0.0956,
      "velocity": 127,
      "chip": "ym2612"
    },
    {
      "channel": 2,
      "note": 48,
      "start": 41.1877,
      "duration": 0.0724,
      "velocity": 91,
      "chip": "ym2612"
    },
    {
      "channel": 4,
      "note": 58,
      "start": 41.1909,
      "duration": 0.0301,
      "velocity": 127,
      "chip": "ym2612"
    },
    {
      "channel": 0,
      "note": 58,
      "start": 41.302,
      "duration": 0.0368,
      "velocity": 79,
      "chip": "ym2612"
    },
    {
      "channel": 1,
      "note": 22,
      "start": 41.3047,
      "duration": 0.115,
      "velocity": 125,
      "chip": "ym2612"
    },
    {
      "channel": 2,
      "note": 60,
      "start": 41.3073,
      "duration": 0.0725,
      "velocity": 91,
      "chip": "ym2612"
    },
    {
      "channel": 4,
      "note": 58,
      "start": 41.3104,
      "duration": 0.0303,
      "velocity": 127,
      "chip": "ym2612"
    },
    {
      "channel": 1,
      "note": 30,
      "start": 41.4218,
      "duration": 0.0976,
      "velocity": 127,
      "chip": "ym2612"
    },
    {
      "channel": 4,
      "note": 58,
      "start": 41.4251,
      "duration": 0.1342,
      "velocity": 127,
      "chip": "ym2612"
    },
    {
      "channel": 0,
      "note": 58,
      "start": 41.541,
      "duration": 0.037,
      "velocity": 79,
      "chip": "ym2612"
    },
    {
      "channel": 2,
      "note": 60,
      "start": 41.5438,
      "duration": 0.0748,
      "velocity": 91,
      "chip": "ym2612"
    },
    {
      "channel": 1,
      "note": 22,
      "start": 41.6611,
      "duration": 0.1205,
      "velocity": 125,
      "chip": "ym2612"
    },
    {
      "channel": 4,
      "note": 58,
      "start": 41.6643,
      "duration": 0.0349,
      "velocity": 127,
      "chip": "ym2612"
    },
    {
      "channel": 0,
      "note": 58,
      "start": 41.7804,
      "duration": 0.0369,
      "velocity": 79,
      "chip": "ym2612"
    },
    {
      "channel": 2,
      "note": 48,
      "start": 41.7837,
      "duration": 0.0741,
      "velocity": 91,
      "chip": "ym2612"
    },
    {
      "channel": 4,
      "note": 58,
      "start": 41.7868,
      "duration": 0.0319,
      "velocity": 127,
      "chip": "ym2612"
    },
    {
      "channel": 0,
      "note": 53,
      "start": 41.9001,
      "duration": 0.0368,
      "velocity": 79,
      "chip": "ym2612"
    },
    {
      "channel": 1,
      "note": 24,
      "start": 41.9028,
      "duration": 0.1149,
      "velocity": 125,
      "chip": "ym2612"
    },
    {
      "channel": 2,
      "note": 48,
      "start": 41.9053,
      "duration": 0.0725,
      "velocity": 91,
      "chip": "ym2612"
    },
    {
      "channel": 4,
      "note": 58,
      "start": 41.9085,
      "duration": 0.1298,
      "velocity": 127,
      "chip": "ym2612"
    },
    {
      "channel": 1,
      "note": 30,
      "start": 42.0199,
      "duration": 0.0982,
      "velocity": 127,
      "chip": "ym2612"
    },
    {
      "channel": 2,
      "note": 60,
      "start": 42.0225,
      "duration": 0.0749,
      "velocity": 91,
      "chip": "ym2612"
    },
    {
      "channel": 0,
      "note": 55,
      "start": 42.1394,
      "duration": 0.0367,
      "velocity": 79,
      "chip": "ym2612"
    },
    {
      "channel": 1,
      "note": 22,
      "start": 42.142,
      "duration": 0.0949,
      "velocity": 127,
      "chip": "ym2612"
    },
    {
      "channel": 2,
      "note": 48,
      "start": 42.1447,
      "duration": 0.0724,
      "velocity": 91,
      "chip": "ym2612"
    },
    {
      "channel": 4,
      "note": 58,
      "start": 42.1478,
      "duration": 0.0301,
      "velocity": 127,
      "chip": "ym2612"
    },
    {
      "channel": 4,
      "note": 58,
      "start": 42.2598,
      "duration": 0.037,
      "velocity": 127,
      "chip": "ym2612"
    },
    {
      "channel": 0,
      "note": 48,
      "start": 42.3786,
      "duration": 0.0368,
      "velocity": 79,
      "chip": "ym2612"
    },
    {
      "channel": 1,
      "note": 22,
      "start": 42.3813,
      "duration": 0.0947,
      "velocity": 127,
      "chip": "ym2612"
    },
    {
      "channel": 2,
      "note": 60,
      "start": 42.3839,
      "duration": 0.0724,
      "velocity": 91,
      "chip": "ym2612"
    },
    {
      "channel": 4,
      "note": 58,
      "start": 42.3871,
      "duration": 0.1291,
      "velocity": 127,
      "chip": "ym2612"
    },
    {
      "channel": 0,
      "note": 48,
      "start": 42.6179,
      "duration": 0.0367,
      "velocity": 79,
      "chip": "ym2612"
    },
    {
      "channel": 1,
      "note": 22,
      "start": 42.6205,
      "duration": 0.115,
      "velocity": 125,
      "chip": "ym2612"
    },
    {
      "channel": 2,
      "note": 60,
      "start": 42.6231,
      "duration": 0.0725,
      "velocity": 91,
      "chip": "ym2612"
    },
    {
      "channel": 4,
      "note": 58,
      "start": 42.6262,
      "duration": 0.0303,
      "velocity": 127,
      "chip": "ym2612"
    },
    {
      "channel": 4,
      "note": 58,
      "start": 42.7388,
      "duration": 0.0365,
      "velocity": 127,
      "chip": "ym2612"
    },
    {
      "channel": 0,
      "note": 60,
      "start": 42.8571,
      "duration": 0.0367,
      "velocity": 79,
      "chip": "ym2612"
    },
    {
      "channel": 1,
      "note": 24,
      "start": 42.8598,
      "duration": 0.0949,
      "velocity": 127,
      "chip": "ym2612"
    },
    {
      "channel": 2,
      "note": 48,
      "start": 42.8624,
      "duration": 0.0724,
      "velocity": 91,
      "chip": "ym2612"
    },
    {
      "channel": 4,
      "note": 58,
      "start": 42.8655,
      "duration": 0.1294,
      "velocity": 127,
      "chip": "ym2612"
    },
    {
      "channel": 1,
      "note": 22,
      "start": 42.9767,
      "duration": 0.1206,
      "velocity": 125,
      "chip": "ym2612"
    },
    {
      "channel": 0,
      "note": 60,
      "start": 43.0963,
      "duration": 0.0368,
      "velocity": 79,
      "chip": "ym2612"
    },
    {
      "channel": 1,
      "note": 30,
      "start": 43.099,
      "duration": 0.0953,
      "velocity": 127,
      "chip": "ym2612"
    },
    {
      "channel": 2,
      "note": 48,
      "start": 43.1017,
      "duration": 0.0724,
      "velocity": 91,
      "chip": "ym2612"
    },
    {
      "channel": 4,
      "note": 58,
      "start": 43.1048,
      "duration": 0.0302,
      "velocity": 127,
      "chip": "ym2612"
    },
    {
      "channel": 0,
      "note": 58,
      "start": 43.2158,
      "duration": 0.0369,
      "velocity": 79,
      "chip": "ym2612"
    },
    {
      "channel": 1,
      "note": 22,
      "start": 43.2185,
      "duration": 0.1152,
      "velocity": 125,
      "chip": "ym2612"
    },
    {
      "channel": 4,
      "note": 58,
      "start": 43.2217,
      "duration": 0.0328,
      "velocity": 127,
      "chip": "ym2612"
    },
    {
      "channel": 1,
      "note": 30,
      "start": 43.3359,
      "duration": 0.0975,
      "velocity": 127,
      "chip": "ym2612"
    },
    {
      "channel": 2,
      "note": 60,
      "start": 43.3385,
      "duration": 0.0747,
      "velocity": 91,
      "chip": "ym2612"
    },
    {
      "channel": 4,
      "note": 58,
      "start": 43.3417,
      "duration": 0.1316,
      "velocity": 127,
      "chip": "ym2612"
    },
    {
      "channel": 0,
      "note": 58,
      "start": 43.4549,
      "duration": 0.037,
      "velocity": 79,
      "chip": "ym2612"
    },
    {
      "channel": 2,
      "note": 60,
      "start": 43.4577,
      "duration": 0.0748,
      "velocity": 91,
      "chip": "ym2612"
    },
    {
      "channel": 1,
      "note": 22,
      "start": 43.575,
      "duration": 0.1205,
      "velocity": 125,
      "chip": "ym2612"
    },
    {
      "channel": 4,
      "note": 58,
      "start": 43.5782,
      "duration": 0.0349,
      "velocity": 127,
      "chip": "ym2612"
    },
    {
      "channel": 0,
      "note": 58,
      "start": 43.6943,
      "duration": 0.0369,
      "velocity": 79,
      "chip": "ym2612"
    },
    {
      "channel": 2,
      "note": 48,
      "start": 43.6976,
      "duration": 0.0741,
      "velocity": 91,
      "chip": "ym2612"
    },
    {
      "channel": 4,
      "note": 58,
      "start": 43.7007,
      "duration": 0.0319,
      "velocity": 127,
      "chip": "ym2612"
    },
    {
      "channel": 0,
      "note": 53,
      "start": 43.8141,
      "duration": 0.0367,
      "velocity": 79,
      "chip": "ym2612"
    },
    {
      "channel": 1,
      "note": 24,
      "start": 43.8167,
      "duration": 0.0951,
      "velocity": 127,
      "chip": "ym2612"
    },
    {
      "channel": 2,
      "note": 48,
      "start": 43.8194,
      "duration": 0.0724,
      "velocity": 91,
      "chip": "ym2612"
    },
    {
      "channel": 4,
      "note": 58,
      "start": 43.8225,
      "duration": 0.1297,
      "velocity": 127,
      "chip": "ym2612"
    },
    {
      "channel": 1,
      "note": 22,
      "start": 43.9338,
      "duration": 0.0982,
      "velocity": 127,
      "chip": "ym2612"
    },
    {
      "channel": 2,
      "note": 60,
      "start": 43.9364,
      "duration": 0.0749,
      "velocity": 91,
      "chip": "ym2612"
    },
    {
      "channel": 0,
      "note": 55,
      "start": 44.0533,
      "duration": 0.0368,
      "velocity": 79,
      "chip": "ym2612"
    },
    {
      "channel": 1,
      "note": 22,
      "start": 44.056,
      "duration": 0.0949,
      "velocity": 127,
      "chip": "ym2612"
    },
    {
      "channel": 2,
      "note": 48,
      "start": 44.0586,
      "duration": 0.0724,
      "velocity": 91,
      "chip": "ym2612"
    },
    {
      "channel": 4,
      "note": 58,
      "start": 44.0617,
      "duration": 0.0302,
      "velocity": 127,
      "chip": "ym2612"
    },
    {
      "channel": 4,
      "note": 58,
      "start": 44.1737,
      "duration": 0.037,
      "velocity": 127,
      "chip": "ym2612"
    },
    {
      "channel": 0,
      "note": 48,
      "start": 44.2925,
      "duration": 0.0367,
      "velocity": 79,
      "chip": "ym2612"
    },
    {
      "channel": 1,
      "note": 22,
      "start": 44.2952,
      "duration": 0.0947,
      "velocity": 127,
      "chip": "ym2612"
    },
    {
      "channel": 2,
      "note": 60,
      "start": 44.2978,
      "duration": 0.0724,
      "velocity": 91,
      "chip": "ym2612"
    },
    {
      "channel": 4,
      "note": 58,
      "start": 44.301,
      "duration": 0.1291,
      "velocity": 127,
      "chip": "ym2612"
    },
    {
      "channel": 0,
      "note": 48,
      "start": 44.5318,
      "duration": 0.0368,
      "velocity": 79,
      "chip": "ym2612"
    },
    {
      "channel": 1,
      "note": 22,
      "start": 44.5344,
      "duration": 0.115,
      "velocity": 125,
      "chip": "ym2612"
    },
    {
      "channel": 2,
      "note": 60,
      "start": 44.537,
      "duration": 0.0725,
      "velocity": 91,
      "chip": "ym2612"
    },
    {
      "channel": 4,
      "note": 58,
      "start": 44.5401,
      "duration": 0.0302,
      "velocity": 127,
      "chip": "ym2612"
    },
    {
      "channel": 4,
      "note": 58,
      "start": 44.6527,
      "duration": 0.0365,
      "velocity": 127,
      "chip": "ym2612"
    },
    {
      "channel": 0,
      "note": 60,
      "start": 44.771,
      "duration": 0.0368,
      "velocity": 79,
      "chip": "ym2612"
    },
    {
      "channel": 1,
      "note": 24,
      "start": 44.7737,
      "duration": 0.0949,
      "velocity": 127,
      "chip": "ym2612"
    },
    {
      "channel": 2,
      "note": 48,
      "start": 44.7763,
      "duration": 0.0724,
      "velocity": 91,
      "chip": "ym2612"
    },
    {
      "channel": 4,
      "note": 58,
      "start": 44.7795,
      "duration": 0.1294,
      "velocity": 127,
      "chip": "ym2612"
    },
    {
      "channel": 1,
      "note": 22,
      "start": 44.8906,
      "duration": 0.1206,
      "velocity": 125,
      "chip": "ym2612"
    },
    {
      "channel": 0,
      "note": 60,
      "start": 45.0102,
      "duration": 0.0368,
      "velocity": 79,
      "chip": "ym2612"
    },
    {
      "channel": 1,
      "note": 30,
      "start": 45.0129,
      "duration": 0.0953,
      "velocity": 127,
      "chip": "ym2612"
    },
    {
      "channel": 2,
      "note": 48,
      "start": 45.0156,
      "duration": 0.0724,
      "velocity": 91,
      "chip": "ym2612"
    },
    {
      "channel": 4,
      "note": 58,
      "start": 45.0187,
      "duration": 0.0302,
      "velocity": 127,
      "chip": "ym2612"
    },
    {
      "channel": 0,
      "note": 53,
      "start": 45.1297,
      "duration": 0.0369,
      "velocity": 79,
      "chip": "ym2612"
    },
    {
      "channel": 1,
      "note": 22,
      "start": 45.1324,
      "duration": 0.1152,
      "velocity": 125,
      "chip": "ym2612"
    },
    {
      "channel": 4,
      "note": 58,
      "start": 45.1356,
      "duration": 0.0327,
      "velocity": 127,
      "chip": "ym2612"
    },
    {
      "channel": 1,
      "note": 30,
      "start": 45.2498,
      "duration": 0.0975,
      "velocity": 127,
      "chip": "ym2612"
    },
    {
      "channel": 2,
      "note": 60,
      "start": 45.2524,
      "duration": 0.0747,
      "velocity": 91,
      "chip": "ym2612"
    },
    {
      "channel": 4,
      "note": 58,
      "start": 45.2556,
      "duration": 0.1316,
      "velocity": 127,
      "chip": "ym2612"
    },
    {
      "channel": 0,
      "note": 53,
      "start": 45.3688,
      "duration": 0.037,
      "velocity": 79,
      "chip": "ym2612"
    },
    {
      "channel": 2,
      "note": 60,
      "start": 45.3716,
      "duration": 0.0748,
      "velocity": 91,
      "chip": "ym2612"
    },
    {
      "channel": 1,
      "note": 22,
      "start": 45.4889,
      "duration": 0.1205,
      "velocity": 125,
      "chip": "ym2612"
    },
    {
      "channel": 4,
      "note": 58,
      "start": 45.4921,
      "duration": 0.035,
      "velocity": 127,
      "chip": "ym2612"
    },
    {
      "channel": 0,
      "note": 53,
      "start": 45.6082,
      "duration": 0.0369,
      "velocity": 79,
      "chip": "ym2612"
    },
    {
      "channel": 2,
      "note": 48,
      "start": 45.6115,
      "duration": 0.0741,
      "velocity": 91,
      "chip": "ym2612"
    },
    {
      "channel": 4,
      "note": 58,
      "start": 45.6146,
      "duration": 0.0318,
      "velocity": 127,
      "chip": "ym2612"
    },
    {
      "channel": 0,
      "note": 55,
      "start": 45.728,
      "duration": 0.0368,
      "velocity": 79,
      "chip": "ym2612"
    },
    {
      "channel": 1,
      "note": 24,
      "start": 45.7306,
      "duration": 0.1149,
      "velocity": 125,
      "chip": "ym2612"
    },
    {
      "channel": 2,
      "note": 48,
      "start": 45.7332,
      "duration": 0.0725,
      "velocity": 91,
      "chip": "ym2612"
    },
    {
      "channel": 4,
      "note": 58,
      "start": 45.7363,
      "duration": 0.1296,
      "velocity": 127,
      "chip": "ym2612"
    },
    {
      "channel": 1,
      "note": 30,
      "start": 45.8477,
      "duration": 0.1206,
      "velocity": 125,
      "chip": "ym2612"
    },
    {
      "channel": 2,
      "note": 60,
      "start": 45.8502,
      "duration": 0.075,
      "velocity": 91,
      "chip": "ym2612"
    },
    {
      "channel": 0,
      "note": 51,
      "start": 45.9673,
      "duration": 0.0366,
      "velocity": 79,
      "chip": "ym2612"
    },
    {
      "channel": 1,
      "note": 30,
      "start": 45.97,
      "duration": 0.0951,
      "velocity": 127,
      "chip": "ym2612"
    },
    {
      "channel": 2,
      "note": 61,
      "start": 45.9728,
      "duration": 0.1124,
      "velocity": 106,
      "chip": "ym2612"
    },
    {
      "channel": 3,
      "note": 60,
      "start": 45.9755,
      "duration": 0.1128,
      "velocity": 105,
      "chip": "ym2612"
    },
    {
      "channel": 4,
      "note": 58,
      "start": 45.9783,
      "duration": 0.0278,
      "velocity": 127,
      "chip": "ym2612"
    },
    {
      "channel": 2,
      "note": 72,
      "start": 46.0873,
      "duration": 0.123,
      "velocity": 106,
      "chip": "ym2612"
    },
    {
      "channel": 3,
      "note": 72,
      "start": 46.0901,
      "duration": 0.1229,
      "velocity": 105,
      "chip": "ym2612"
    },
    {
      "channel": 4,
      "note": 58,
      "start": 46.0928,
      "duration": 0.0322,
      "velocity": 127,
      "chip": "ym2612"
    },
    {
      "channel": 0,
      "note": 48,
      "start": 46.2066,
      "duration": 0.0366,
      "velocity": 79,
      "chip": "ym2612"
    },
    {
      "channel": 1,
      "note": 22,
      "start": 46.2093,
      "duration": 0.095,
      "velocity": 127,
      "chip": "ym2612"
    },
    {
      "channel": 2,
      "note": 67,
      "start": 46.212,
      "duration": 0.1123,
      "velocity": 106,
      "chip": "ym2612"
    },
    {
      "channel": 3,
      "note": 67,
      "start": 46.2148,
      "duration": 0.1127,
      "velocity": 105,
      "chip": "ym2612"
    },
    {
      "channel": 4,
      "note": 58,
      "start": 46.2176,
      "duration": 0.1268,
      "velocity": 127,
      "chip": "ym2612"
    },
    {
      "channel": 2,
      "note": 75,
      "start": 46.3264,
      "duration": 0.2378,
      "velocity": 106,
      "chip": "ym2612"
    },
    {
      "channel": 3,
      "note": 75,
      "start": 46.3292,
      "duration": 0.1204,
      "velocity": 105,
      "chip": "ym2612"
    },
    {
      "channel": 0,
      "note": 48,
      "start": 46.4456,
      "duration": 0.0369,
      "velocity": 79,
      "chip": "ym2612"
    },
    {
      "channel": 1,
      "note": 22,
      "start": 46.4482,
      "duration": 0.1154,
      "velocity": 125,
      "chip": "ym2612"
    },
    {
      "channel": 4,
      "note": 58,
      "start": 46.452,
      "duration": 0.0326,
      "velocity": 127,
      "chip": "ym2612"
    },
    {
      "channel": 2,
      "note": 74,
      "start": 46.5664,
      "duration": 0.1224,
      "velocity": 106,
      "chip": "ym2612"
    },
    {
      "channel": 3,
      "note": 74,
      "start": 46.5691,
      "duration": 0.1224,
      "velocity": 105,
      "chip": "ym2612"
    },
    {
      "channel": 4,
      "note": 58,
      "start": 46.5719,
      "duration": 0.0316,
      "velocity": 127,
      "chip": "ym2612"
    },
    {
      "channel": 0,
      "note": 60,
      "start": 46.6851,
      "duration": 0.0366,
      "velocity": 79,
      "chip": "ym2612"
    },
    {
      "channel": 1,
      "note": 24,
      "start": 46.6878,
      "duration": 0.0952,
      "velocity": 127,
      "chip": "ym2612"
    },
    {
      "channel": 2,
      "note": 70,
      "start": 46.6905,
      "duration": 0.1153,
      "velocity": 106,
      "chip": "ym2612"
    },
    {
      "channel": 3,
      "note": 70,
      "start": 46.6932,
      "duration": 0.1152,
      "velocity": 105,
      "chip": "ym2612"
    },
    {
      "channel": 4,
      "note": 58,
      "start": 46.696,
      "duration": 0.1272,
      "velocity": 127,
      "chip": "ym2612"
    },
    {
      "channel": 1,
      "note": 22,
      "start": 46.8049,
      "duration": 0.1202,
      "velocity": 125,
      "chip": "ym2612"
    },
    {
      "channel": 2,
      "note": 67,
      "start": 46.8075,
      "duration": 0.2401,
      "velocity": 106,
      "chip": "ym2612"
    },
    {
      "channel": 3,
      "note": 67,
      "start": 46.8102,
      "duration": 0.1179,
      "velocity": 105,
      "chip": "ym2612"
    },
    {
      "channel": 0,
      "note": 60,
      "start": 46.924,
      "duration": 0.0369,
      "velocity": 79,
      "chip": "ym2612"
    },
    {
      "channel": 1,
      "note": 30,
      "start": 46.9267,
      "duration": 0.0959,
      "velocity": 127,
      "chip": "ym2612"
    },
    {
      "channel": 4,
      "note": 58,
      "start": 46.9306,
      "duration": 0.0324,
      "velocity": 127,
      "chip": "ym2612"
    },
    {
      "channel": 0,
      "note": 58,
      "start": 47.0439,
      "duration": 0.0366,
      "velocity": 79,
      "chip": "ym2612"
    },
    {
      "channel": 1,
      "note": 22,
      "start": 47.0466,
      "duration": 0.1151,
      "velocity": 125,
      "chip": "ym2612"
    },
    {
      "channel": 2,
      "note": 72,
      "start": 47.0493,
      "duration": 0.1157,
      "velocity": 106,
      "chip": "ym2612"
    },
    {
      "channel": 3,
      "note": 72,
      "start": 47.052,
      "duration": 0.1156,
      "velocity": 105,
      "chip": "ym2612"
    },
    {
      "channel": 4,
      "note": 58,
      "start": 47.0548,
      "duration": 0.0279,
      "velocity": 127,
      "chip": "ym2612"
    },
    {
      "channel": 1,
      "note": 30,
      "start": 47.1639,
      "duration": 0.0976,
      "velocity": 127,
      "chip": "ym2612"
    },
    {
      "channel": 2,
      "note": 67,
      "start": 47.1666,
      "duration": 0.1175,
      "velocity": 106,
      "chip": "ym2612"
    },
    {
      "channel": 3,
      "note": 67,
      "start": 47.1694,
      "duration": 0.1174,
      "velocity": 105,
      "chip": "ym2612"
    },
    {
      "channel": 4,
      "note": 58,
      "start": 47.1721,
      "duration": 0.1292,
      "velocity": 127,
      "chip": "ym2612"
    },
    {
      "channel": 0,
      "note": 58,
      "start": 47.2829,
      "duration": 0.0369,
      "velocity": 79,
      "chip": "ym2612"
    },
    {
      "channel": 2,
      "note": 75,
      "start": 47.2857,
      "duration": 0.2383,
      "velocity": 106,
      "chip": "ym2612"
    },
    {
      "channel": 3,
      "note": 75,
      "start": 47.2885,
      "duration": 0.1156,
      "velocity": 105,
      "chip": "ym2612"
    },
    {
      "channel": 1,
      "note": 22,
      "start": 47.4028,
      "duration": 0.1206,
      "velocity": 125,
      "chip": "ym2612"
    },
    {
      "channel": 4,
      "note": 58,
      "start": 47.4066,
      "duration": 0.0347,
      "velocity": 127,
      "chip": "ym2612"
    },
    {
      "channel": 0,
      "note": 58,
      "start": 47.5223,
      "duration": 0.0367,
      "velocity": 79,
      "chip": "ym2612"
    },
    {
      "channel": 2,
      "note": 74,
      "start": 47.5257,
      "duration": 0.1201,
      "velocity": 106,
      "chip": "ym2612"
    },
    {
      "channel": 3,
      "note": 74,
      "start": 47.5284,
      "duration": 0.12,
      "velocity": 105,
      "chip": "ym2612"
    },
    {
      "channel": 4,
      "note": 58,
      "start": 47.5312,
      "duration": 0.0295,
      "velocity": 127,
      "chip": "ym2612"
    },
    {
      "channel": 0,
      "note": 53,
      "start": 47.642,
      "duration": 0.0366,
      "velocity": 79,
      "chip": "ym2612"
    },
    {
      "channel": 1,
      "note": 24,
      "start": 47.6447,
      "duration": 0.0945,
      "velocity": 127,
      "chip": "ym2612"
    },
    {
      "channel": 2,
      "note": 70,
      "start": 47.6474,
      "duration": 0.2376,
      "velocity": 106,
      "chip": "ym2612"
    },
    {
      "channel": 3,
      "note": 70,
      "start": 47.6502,
      "duration": 0.1096,
      "velocity": 105,
      "chip": "ym2612"
    },
    {
      "channel": 4,
      "note": 58,
      "start": 47.6529,
      "duration": 0.1268,
      "velocity": 127,
      "chip": "ym2612"
    },
    {
      "channel": 0,
      "note": 55,
      "start": 47.8813,
      "duration": 0.0366,
      "velocity": 79,
      "chip": "ym2612"
    },
    {
      "channel": 1,
      "note": 22,
      "start": 47.8839,
      "duration": 0.0951,
      "velocity": 127,
      "chip": "ym2612"
    },
    {
      "channel": 2,
      "note": 67,
      "start": 47.8867,
      "duration": 0.1124,
      "velocity": 106,
      "chip": "ym2612"
    },
    {
      "channel": 3,
      "note": 67,
      "start": 47.8894,
      "duration": 0.1128,
      "velocity": 105,
      "chip": "ym2612"
    },
    {
      "channel": 4,
      "note": 58,
      "start": 47.8922,
      "duration": 0.0278,
      "velocity": 127,
      "chip": "ym2612"
    },
    {
      "channel": 2,
      "note": 72,
      "start": 48.0012,
      "duration": 0.123,
      "velocity": 106,
      "chip": "ym2612"
    },
    {
      "channel": 3,
      "note": 72,
      "start": 48.004,
      "duration": 0.1229,
      "velocity": 105,
      "chip": "ym2612"
    },
    {
      "channel": 4,
      "note": 58,
      "start": 48.0068,
      "duration": 0.0322,
      "velocity": 127,
      "chip": "ym2612"
    },
    {
      "channel": 0,
      "note": 48,
      "start": 48.1205,
      "duration": 0.0366,
      "velocity": 79,
      "chip": "ym2612"
    },
    {
      "channel": 1,
      "note": 22,
      "start": 48.1232,
      "duration": 0.095,
      "velocity": 127,
      "chip": "ym2612"
    },
    {
      "channel": 2,
      "note": 67,
      "start": 48.1259,
      "duration": 0.1123,
      "velocity": 106,
      "chip": "ym2612"
    },
    {
      "channel": 3,
      "note": 67,
      "start": 48.1287,
      "duration": 0.1127,
      "velocity": 105,
      "chip": "ym2612"
    },
    {
      "channel": 4,
      "note": 58,
      "start": 48.1315,
      "duration": 0.1268,
      "velocity": 127,
      "chip": "ym2612"
    },
    {
      "channel": 2,
      "note": 75,
      "start": 48.2403,
      "duration": 0.2378,
      "velocity": 106,
      "chip": "ym2612"
    },
    {
      "channel": 3,
      "note": 75,
      "start": 48.2431,
      "duration": 0.1204,
      "velocity": 105,
      "chip": "ym2612"
    },
    {
      "channel": 0,
      "note": 48,
      "start": 48.3595,
      "duration": 0.0369,
      "velocity": 79,
      "chip": "ym2612"
    },
    {
      "channel": 1,
      "note": 22,
      "start": 48.3622,
      "duration": 0.1154,
      "velocity": 125,
      "chip": "ym2612"
    },
    {
      "channel": 4,
      "note": 58,
      "start": 48.3659,
      "duration": 0.0326,
      "velocity": 127,
      "chip": "ym2612"
    },
    {
      "channel": 2,
      "note": 74,
      "start": 48.4803,
      "duration": 0.1224,
      "velocity": 106,
      "chip": "ym2612"
    },
    {
      "channel": 3,
      "note": 74,
      "start": 48.483,
      "duration": 0.1224,
      "velocity": 105,
      "chip": "ym2612"
    },
    {
      "channel": 4,
      "note": 58,
      "start": 48.4858,
      "duration": 0.0317,
      "velocity": 127,
      "chip": "ym2612"
    },
    {
      "channel": 0,
      "note": 60,
      "start": 48.599,
      "duration": 0.0366,
      "velocity": 79,
      "chip": "ym2612"
    },
    {
      "channel": 1,
      "note": 24,
      "start": 48.6017,
      "duration": 0.0952,
      "velocity": 127,
      "chip": "ym2612"
    },
    {
      "channel": 2,
      "note": 70,
      "start": 48.6044,
      "duration": 0.1153,
      "velocity": 106,
      "chip": "ym2612"
    },
    {
      "channel": 3,
      "note": 70,
      "start": 48.6071,
      "duration": 0.1153,
      "velocity": 105,
      "chip": "ym2612"
    },
    {
      "channel": 4,
      "note": 58,
      "start": 48.6099,
      "duration": 0.1272,
      "velocity": 127,
      "chip": "ym2612"
    },
    {
      "channel": 1,
      "note": 22,
      "start": 48.7188,
      "duration": 0.1202,
      "velocity": 125,
      "chip": "ym2612"
    },
    {
      "channel": 2,
      "note": 67,
      "start": 48.7214,
      "duration": 0.2401,
      "velocity": 106,
      "chip": "ym2612"
    },
    {
      "channel": 3,
      "note": 67,
      "start": 48.7241,
      "duration": 0.1179,
      "velocity": 105,
      "chip": "ym2612"
    },
    {
      "channel": 0,
      "note": 60,
      "start": 48.8379,
      "duration": 0.0369,
      "velocity": 79,
      "chip": "ym2612"
    },
    {
      "channel": 1,
      "note": 30,
      "start": 48.8406,
      "duration": 0.0959,
      "velocity": 127,
      "chip": "ym2612"
    },
    {
      "channel": 4,
      "note": 58,
      "start": 48.8445,
      "duration": 0.0324,
      "velocity": 127,
      "chip": "ym2612"
    },
    {
      "channel": 0,
      "note": 58,
      "start": 48.9578,
      "duration": 0.0366,
      "velocity": 79,
      "chip": "ym2612"
    },
    {
      "channel": 1,
      "note": 22,
      "start": 48.9605,
      "duration": 0.1151,
      "velocity": 125,
      "chip": "ym2612"
    },
    {
      "channel": 2,
      "note": 72,
      "start": 48.9632,
      "duration": 0.1157,
      "velocity": 106,
      "chip": "ym2612"
    },
    {
      "channel": 3,
      "note": 72,
      "start": 48.9659,
      "duration": 0.1156,
      "velocity": 105,
      "chip": "ym2612"
    },
    {
      "channel": 4,
      "note": 58,
      "start": 48.9687,
      "duration": 0.0279,
      "velocity": 127,
      "chip": "ym2612"
    },
    {
      "channel": 1,
      "note": 30,
      "start": 49.0778,
      "duration": 0.0976,
      "velocity": 127,
      "chip": "ym2612"
    },
    {
      "channel": 2,
      "note": 67,
      "start": 49.0805,
      "duration": 0.1175,
      "velocity": 106,
      "chip": "ym2612"
    },
    {
      "channel": 3,
      "note": 67,
      "start": 49.0833,
      "duration": 0.1174,
      "velocity": 105,
      "chip": "ym2612"
    },
    {
      "channel": 4,
      "note": 58,
      "start": 49.0861,
      "duration": 0.1292,
      "velocity": 127,
      "chip": "ym2612"
    },
    {
      "channel": 0,
      "note": 58,
      "start": 49.1968,
      "duration": 0.0369,
      "velocity": 79,
      "chip": "ym2612"
    },
    {
      "channel": 2,
      "note": 75,
      "start": 49.1997,
      "duration": 0.2383,
      "velocity": 106,
      "chip": "ym2612"
    },
    {
      "channel": 3,
      "note": 75,
      "start": 49.2024,
      "duration": 0.1156,
      "velocity": 105,
      "chip": "ym2612"
    },
    {
      "channel": 1,
      "note": 22,
      "start": 49.3167,
      "duration": 0.1206,
      "velocity": 125,
      "chip": "ym2612"
    },
    {
      "channel": 4,
      "note": 58,
      "start": 49.3205,
      "duration": 0.0347,
      "velocity": 127,
      "chip": "ym2612"
    },
    {
      "channel": 0,
      "note": 58,
      "start": 49.4362,
      "duration": 0.0367,
      "velocity": 79,
      "chip": "ym2612"
    },
    {
      "channel": 2,
      "note": 74,
      "start": 49.4396,
      "duration": 0.12,
      "velocity": 106,
      "chip": "ym2612"
    },
    {
      "channel": 3,
      "note": 74,
      "start": 49.4424,
      "duration": 0.1199,
      "velocity": 105,
      "chip": "ym2612"
    },
    {
      "channel": 4,
      "note": 58,
      "start": 49.4451,
      "duration": 0.0295,
      "velocity": 127,
      "chip": "ym2612"
    },
    {
      "channel": 0,
      "note": 53,
      "start": 49.5559,
      "duration": 0.0366,
      "velocity": 79,
      "chip": "ym2612"
    },
    {
      "channel": 1,
      "note": 24,
      "start": 49.5586,
      "duration": 0.1149,
      "velocity": 125,
      "chip": "ym2612"
    },
    {
      "channel": 2,
      "note": 70,
      "start": 49.5612,
      "duration": 0.1155,
      "velocity": 106,
      "chip": "ym2612"
    },
    {
      "channel": 3,
      "note": 70,
      "start": 49.564,
      "duration": 0.1155,
      "velocity": 105,
      "chip": "ym2612"
    },
    {
      "channel": 4,
      "note": 58,
      "start": 49.5668,
      "duration": 0.1274,
      "velocity": 127,
      "chip": "ym2612"
    },
    {
      "channel": 1,
      "note": 30,
      "start": 49.6757,
      "duration": 0.0982,
      "velocity": 127,
      "chip": "ym2612"
    },
    {
      "channel": 2,
      "note": 67,
      "start": 49.6784,
      "duration": 0.1205,
      "velocity": 106,
      "chip": "ym2612"
    },
    {
      "channel": 3,
      "note": 67,
      "start": 49.6812,
      "duration": 0.1204,
      "velocity": 105,
      "chip": "ym2612"
    },
    {
      "channel": 0,
      "note": 55,
      "start": 49.7952,
      "duration": 0.0366,
      "velocity": 79,
      "chip": "ym2612"
    },
    {
      "channel": 1,
      "note": 22,
      "start": 49.7978,
      "duration": 0.0951,
      "velocity": 127,
      "chip": "ym2612"
    },
    {
      "channel": 2,
      "note": 70,
      "start": 49.8006,
      "duration": 0.1124,
      "velocity": 106,
      "chip": "ym2612"
    },
    {
      "channel": 3,
      "note": 70,
      "start": 49.8034,
      "duration": 0.1128,
      "velocity": 105,
      "chip": "ym2612"
    },
    {
      "channel": 4,
      "note": 58,
      "start": 49.8061,
      "duration": 0.0278,
      "velocity": 127,
      "chip": "ym2612"
    },
    {
      "channel": 2,
      "note": 72,
      "start": 49.9151,
      "duration": 0.123,
      "velocity": 106,
      "chip": "ym2612"
    },
    {
      "channel": 3,
      "note": 72,
      "start": 49.9179,
      "duration": 0.1229,
      "velocity": 105,
      "chip": "ym2612"
    },
    {
      "channel": 4,
      "note": 58,
      "start": 49.9207,
      "duration": 0.0322,
      "velocity": 127,
      "chip": "ym2612"
    },
    {
      "channel": 0,
      "note": 48,
      "start": 50.0344,
      "duration": 0.0366,
      "velocity": 79,
      "chip": "ym2612"
    },
    {
      "channel": 1,
      "note": 22,
      "start": 50.0371,
      "duration": 0.095,
      "velocity": 127,
      "chip": "ym2612"
    },
    {
      "channel": 2,
      "note": 67,
      "start": 50.0398,
      "duration": 0.1123,
      "velocity": 106,
      "chip": "ym2612"
    },
    {
      "channel": 3,
      "note": 67,
      "start": 50.0426,
      "duration": 0.1127,
      "velocity": 105,
      "chip": "ym2612"
    },
    {
      "channel": 4,
      "note": 58,
      "start": 50.0454,
      "duration": 0.1268,
      "velocity": 127,
      "chip": "ym2612"
    },
    {
      "channel": 2,
      "note": 75,
      "start": 50.1542,
      "duration": 0.2378,
      "velocity": 106,
      "chip": "ym2612"
    },
    {
      "channel": 3,
      "note": 75,
      "start": 50.157,
      "duration": 0.1204,
      "velocity": 105,
      "chip": "ym2612"
    },
    {
      "channel": 0,
      "note": 48,
      "start": 50.2734,
      "duration": 0.0369,
      "velocity": 79,
      "chip": "ym2612"
    },
    {
      "channel": 1,
      "note": 22,
      "start": 50.2761,
      "duration": 0.1154,
      "velocity": 125,
      "chip": "ym2612"
    },
    {
      "channel": 4,
      "note": 58,
      "start": 50.2798,
      "duration": 0.0326,
      "velocity": 127,
      "chip": "ym2612"
    },
    {
      "channel": 2,
      "note": 74,
      "start": 50.3942,
      "duration": 0.1224,
      "velocity": 106,
      "chip": "ym2612"
    },
    {
      "channel": 3,
      "note": 74,
      "start": 50.397,
      "duration": 0.1224,
      "velocity": 105,
      "chip": "ym2612"
    },
    {
      "channel": 4,
      "note": 58,
      "start": 50.3997,
      "duration": 0.0317,
      "velocity": 127,
      "chip": "ym2612"
    },
    {
      "channel": 0,
      "note": 60,
      "start": 50.5129,
      "duration": 0.0366,
      "velocity": 79,
      "chip": "ym2612"
    },
    {
      "channel": 1,
      "note": 24,
      "start": 50.5156,
      "duration": 0.0952,
      "velocity": 127,
      "chip": "ym2612"
    },
    {
      "channel": 2,
      "note": 70,
      "start": 50.5183,
      "duration": 0.1153,
      "velocity": 106,
      "chip": "ym2612"
    },
    {
      "channel": 3,
      "note": 70,
      "start": 50.5211,
      "duration": 0.1152,
      "velocity": 105,
      "chip": "ym2612"
    },
    {
      "channel": 4,
      "note": 58,
      "start": 50.5238,
      "duration": 0.1272,
      "velocity": 127,
      "chip": "ym2612"
    },
    {
      "channel": 1,
      "note": 22,
      "start": 50.6327,
      "duration": 0.1202,
      "velocity": 125,
      "chip": "ym2612"
    },
    {
      "channel": 2,
      "note": 67,
      "start": 50.6353,
      "duration": 0.2401,
      "velocity": 106,
      "chip": "ym2612"
    },
    {
      "channel": 3,
      "note": 67,
      "start": 50.638,
      "duration": 0.1179,
      "velocity": 105,
      "chip": "ym2612"
    },
    {
      "channel": 0,
      "note": 60,
      "start": 50.7519,
      "duration": 0.0369,
      "velocity": 79,
      "chip": "ym2612"
    },
    {
      "channel": 1,
      "note": 30,
      "start": 50.7545,
      "duration": 0.0959,
      "velocity": 127,
      "chip": "ym2612"
    },
    {
      "channel": 4,
      "note": 58,
      "start": 50.7584,
      "duration": 0.0324,
      "velocity": 127,
      "chip": "ym2612"
    },
    {
      "channel": 0,
      "note": 58,
      "start": 50.8718,
      "duration": 0.0366,
      "velocity": 79,
      "chip": "ym2612"
    },
    {
      "channel": 1,
      "note": 22,
      "start": 50.8744,
      "duration": 0.1151,
      "velocity": 125,
      "chip": "ym2612"
    },
    {
      "channel": 2,
      "note": 72,
      "start": 50.8771,
      "duration": 0.1157,
      "velocity": 106,
      "chip": "ym2612"
    },
    {
      "channel": 3,
      "note": 72,
      "start": 50.8798,
      "duration": 0.1156,
      "velocity": 105,
      "chip": "ym2612"
    },
    {
      "channel": 4,
      "note": 58,
      "start": 50.8826,
      "duration": 0.0279,
      "velocity": 127,
      "chip": "ym2612"
    },
    {
      "channel": 1,
      "note": 30,
      "start": 50.9917,
      "duration": 0.0976,
      "velocity": 127,
      "chip": "ym2612"
    },
    {
      "channel": 2,
      "note": 67,
      "start": 50.9944,
      "duration": 0.1175,
      "velocity": 106,
      "chip": "ym2612"
    },
    {
      "channel": 3,
      "note": 67,
      "start": 50.9972,
      "duration": 0.1174,
      "velocity": 105,
      "chip": "ym2612"
    },
    {
      "channel": 4,
      "note": 58,
      "start": 51.0,
      "duration": 0.1292,
      "velocity": 127,
      "chip": "ym2612"
    },
    {
      "channel": 0,
      "note": 58,
      "start": 51.1107,
      "duration": 0.0369,
      "velocity": 79,
      "chip": "ym2612"
    },
    {
      "channel": 2,
      "note": 75,
      "start": 51.1136,
      "duration": 0.2383,
      "velocity": 106,
      "chip": "ym2612"
    },
    {
      "channel": 3,
      "note": 75,
      "start": 51.1163,
      "duration": 0.1156,
      "velocity": 105,
      "chip": "ym2612"
    },
    {
      "channel": 1,
      "note": 22,
      "start": 51.2307,
      "duration": 0.1206,
      "velocity": 125,
      "chip": "ym2612"
    },
    {
      "channel": 4,
      "note": 58,
      "start": 51.2344,
      "duration": 0.0347,
      "velocity": 127,
      "chip": "ym2612"
    },
    {
      "channel": 0,
      "note": 58,
      "start": 51.3501,
      "duration": 0.0367,
      "velocity": 79,
      "chip": "ym2612"
    },
    {
      "channel": 2,
      "note": 74,
      "start": 51.3535,
      "duration": 0.1201,
      "velocity": 106,
      "chip": "ym2612"
    },
    {
      "channel": 3,
      "note": 74,
      "start": 51.3563,
      "duration": 0.12,
      "velocity": 105,
      "chip": "ym2612"
    },
    {
      "channel": 4,
      "note": 58,
      "start": 51.359,
      "duration": 0.0295,
      "velocity": 127,
      "chip": "ym2612"
    },
    {
      "channel": 0,
      "note": 53,
      "start": 51.4699,
      "duration": 0.0366,
      "velocity": 79,
      "chip": "ym2612"
    },
    {
      "channel": 1,
      "note": 24,
      "start": 51.4725,
      "duration": 0.0947,
      "velocity": 127,
      "chip": "ym2612"
    },
    {
      "channel": 2,
      "note": 70,
      "start": 51.4753,
      "duration": 0.2376,
      "velocity": 106,
      "chip": "ym2612"
    },
    {
      "channel": 3,
      "note": 70,
      "start": 51.478,
      "duration": 0.1127,
      "velocity": 105,
      "chip": "ym2612"
    },
    {
      "channel": 4,
      "note": 58,
      "start": 51.4808,
      "duration": 0.1273,
      "velocity": 127,
      "chip": "ym2612"
    },
    {
      "channel": 1,
      "note": 22,
      "start": 51.5893,
      "duration": 0.0985,
      "velocity": 127,
      "chip": "ym2612"
    },
    {
      "channel": 0,
      "note": 55,
      "start": 51.7091,
      "duration": 0.0366,
      "velocity": 79,
      "chip": "ym2612"
    },
    {
      "channel": 1,
      "note": 22,
      "start": 51.7118,
      "duration": 0.0951,
      "velocity": 127,
      "chip": "ym2612"
    },
    {
      "channel": 2,
      "note": 67,
      "start": 51.7145,
      "duration": 0.1124,
      "velocity": 106,
      "chip": "ym2612"
    },
    {
      "channel": 3,
      "note": 67,
      "start": 51.7173,
      "duration": 0.1128,
      "velocity": 105,
      "chip": "ym2612"
    },
    {
      "channel": 4,
      "note": 58,
      "start": 51.72,
      "duration": 0.0278,
      "velocity": 127,
      "chip": "ym2612"
    },
    {
      "channel": 2,
      "note": 72,
      "start": 51.8291,
      "duration": 0.123,
      "velocity": 106,
      "chip": "ym2612"
    },
    {
      "channel": 3,
      "note": 72,
      "start": 51.8318,
      "duration": 0.1229,
      "velocity": 105,
      "chip": "ym2612"
    },
    {
      "channel": 4,
      "note": 58,
      "start": 51.8346,
      "duration": 0.0322,
      "velocity": 127,
      "chip": "ym2612"
    },
    {
      "channel": 0,
      "note": 48,
      "start": 51.9483,
      "duration": 0.0366,
      "velocity": 79,
      "chip": "ym2612"
    },
    {
      "channel": 1,
      "note": 22,
      "start": 51.951,
      "duration": 0.095,
      "velocity": 127,
      "chip": "ym2612"
    },
    {
      "channel": 2,
      "note": 67,
      "start": 51.9537,
      "duration": 0.1123,
      "velocity": 106,
      "chip": "ym2612"
    },
    {
      "channel": 3,
      "note": 67,
      "start": 51.9565,
      "duration": 0.1127,
      "velocity": 105,
      "chip": "ym2612"
    },
    {
      "channel": 4,
      "note": 58,
      "start": 51.9593,
      "duration": 0.1268,
      "velocity": 127,
      "chip": "ym2612"
    },
    {
      "channel": 2,
      "note": 75,
      "start": 52.0681,
      "duration": 0.2378,
      "velocity": 106,
      "chip": "ym2612"
    },
    {
      "channel": 3,
      "note": 75,
      "start": 52.0709,
      "duration": 0.1204,
      "velocity": 105,
      "chip": "ym2612"
    },
    {
      "channel": 0,
      "note": 48,
      "start": 52.1873,
      "duration": 0.0369,
      "velocity": 79,
      "chip": "ym2612"
    },
    {
      "channel": 1,
      "note": 22,
      "start": 52.19,
      "duration": 0.1154,
      "velocity": 125,
      "chip": "ym2612"
    },
    {
      "channel": 4,
      "note": 58,
      "start": 52.1937,
      "duration": 0.0326,
      "velocity": 127,
      "chip": "ym2612"
    },
    {
      "channel": 2,
      "note": 74,
      "start": 52.3081,
      "duration": 0.1225,
      "velocity": 106,
      "chip": "ym2612"
    },
    {
      "channel": 3,
      "note": 74,
      "start": 52.3109,
      "duration": 0.1224,
      "velocity": 105,
      "chip": "ym2612"
    },
    {
      "channel": 4,
      "note": 58,
      "start": 52.3137,
      "duration": 0.0316,
      "velocity": 127,
      "chip": "ym2612"
    },
    {
      "channel": 0,
      "note": 60,
      "start": 52.4268,
      "duration": 0.0366,
      "velocity": 79,
      "chip": "ym2612"
    },
    {
      "channel": 1,
      "note": 24,
      "start": 52.4295,
      "duration": 0.0952,
      "velocity": 127,
      "chip": "ym2612"
    },
    {
      "channel": 2,
      "note": 70,
      "start": 52.4322,
      "duration": 0.1153,
      "velocity": 106,
      "chip": "ym2612"
    },
    {
      "channel": 3,
      "note": 70,
      "start": 52.435,
      "duration": 0.1152,
      "velocity": 105,
      "chip": "ym2612"
    },
    {
      "channel": 4,
      "note": 58,
      "start": 52.4378,
      "duration": 0.1272,
      "velocity": 127,
      "chip": "ym2612"
    },
    {
      "channel": 1,
      "note": 22,
      "start": 52.5466,
      "duration": 0.1202,
      "velocity": 125,
      "chip": "ym2612"
    },
    {
      "channel": 2,
      "note": 67,
      "start": 52.5492,
      "duration": 0.2401,
      "velocity": 106,
      "chip": "ym2612"
    },
    {
      "channel": 3,
      "note": 67,
      "start": 52.552,
      "duration": 0.1179,
      "velocity": 105,
      "chip": "ym2612"
    },
    {
      "channel": 0,
      "note": 60,
      "start": 52.6658,
      "duration": 0.0369,
      "velocity": 79,
      "chip": "ym2612"
    },
    {
      "channel": 1,
      "note": 30,
      "start": 52.6684,
      "duration": 0.096,
      "velocity": 127,
      "chip": "ym2612"
    },
    {
      "channel": 4,
      "note": 58,
      "start": 52.6723,
      "duration": 0.0324,
      "velocity": 127,
      "chip": "ym2612"
    },
    {
      "channel": 0,
      "note": 53,
      "start": 52.7857,
      "duration": 0.0366,
      "velocity": 79,
      "chip": "ym2612"
    },
    {
      "channel": 1,
      "note": 22,
      "start": 52.7883,
      "duration": 0.1151,
      "velocity": 125,
      "chip": "ym2612"
    },
    {
      "channel": 2,
      "note": 72,
      "start": 52.791,
      "duration": 0.1157,
      "velocity": 106,
      "chip": "ym2612"
    },
    {
      "channel": 3,
      "note": 72,
      "start": 52.7937,
      "duration": 0.1156,
      "velocity": 105,
      "chip": "ym2612"
    },
    {
      "channel": 4,
      "note": 58,
      "start": 52.7965,
      "duration": 0.0279,
      "velocity": 127,
      "chip": "ym2612"
    },
    {
      "channel": 1,
      "note": 30,
      "start": 52.9056,
      "duration": 0.0976,
      "velocity": 127,
      "chip": "ym2612"
    },
    {
      "channel": 2,
      "note": 67,
      "start": 52.9083,
      "duration": 0.1175,
      "velocity": 106,
      "chip": "ym2612"
    },
    {
      "channel": 3,
      "note": 67,
      "start": 52.9111,
      "duration": 0.1174,
      "velocity": 105,
      "chip": "ym2612"
    },
    {
      "channel": 4,
      "note": 58,
      "start": 52.9139,
      "duration": 0.1292,
      "velocity": 127,
      "chip": "ym2612"
    },
    {
      "channel": 0,
      "note": 53,
      "start": 53.0246,
      "duration": 0.0369,
      "velocity": 79,
      "chip": "ym2612"
    },
    {
      "channel": 2,
      "note": 75,
      "start": 53.0275,
      "duration": 0.2383,
      "velocity": 106,
      "chip": "ym2612"
    },
    {
      "channel": 3,
      "note": 75,
      "start": 53.0302,
      "duration": 0.1156,
      "velocity": 105,
      "chip": "ym2612"
    },
    {
      "channel": 1,
      "note": 22,
      "start": 53.1446,
      "duration": 0.1206,
      "velocity": 125,
      "chip": "ym2612"
    },
    {
      "channel": 4,
      "note": 58,
      "start": 53.1483,
      "duration": 0.0347,
      "velocity": 127,
      "chip": "ym2612"
    },
    {
      "channel": 0,
      "note": 53,
      "start": 53.264,
      "duration": 0.0367,
      "velocity": 79,
      "chip": "ym2612"
    },
    {
      "channel": 2,
      "note": 74,
      "start": 53.2674,
      "duration": 0.12,
      "velocity": 106,
      "chip": "ym2612"
    },
    {
      "channel": 3,
      "note": 74,
      "start": 53.2702,
      "duration": 0.1199,
      "velocity": 105,
      "chip": "ym2612"
    },
    {
      "channel": 4,
      "note": 58,
      "start": 53.273,
      "duration": 0.0295,
      "velocity": 127,
      "chip": "ym2612"
    },
    {
      "channel": 0,
      "note": 55,
      "start": 53.3838,
      "duration": 0.0366,
      "velocity": 79,
      "chip": "ym2612"
    },
    {
      "channel": 1,
      "note": 24,
      "start": 53.3864,
      "duration": 0.1149,
      "velocity": 125,
      "chip": "ym2612"
    },
    {
      "channel": 2,
      "note": 70,
      "start": 53.3891,
      "duration": 0.1154,
      "velocity": 106,
      "chip": "ym2612"
    },
    {
      "channel": 3,
      "note": 70,
      "start": 53.3918,
      "duration": 0.1153,
      "velocity": 105,
      "chip": "ym2612"
    },
    {
      "channel": 4,
      "note": 58,
      "start": 53.3946,
      "duration": 0.1273,
      "velocity": 127,
      "chip": "ym2612"
    },
    {
      "channel": 1,
      "note": 30,
      "start": 53.5035,
      "duration": 0.1205,
      "velocity": 125,
      "chip": "ym2612"
    },
    {
      "channel": 2,
      "note": 77,
      "start": 53.5062,
      "duration": 0.1206,
      "velocity": 106,
      "chip": "ym2612"
    },
    {
      "channel": 3,
      "note": 77,
      "start": 53.5089,
      "duration": 0.1205,
      "velocity": 105,
      "chip": "ym2612"
    },
    {
      "channel": 0,
      "note": 51,
      "start": 53.623,
      "duration": 0.0366,
      "velocity": 79,
      "chip": "ym2612"
    },
    {
      "channel": 1,
      "note": 30,
      "start": 53.6257,
      "duration": 0.0951,
      "velocity": 127,
      "chip": "ym2612"
    },
    {
      "channel": 2,
      "note": 75,
      "start": 53.6284,
      "duration": 0.1124,
      "velocity": 106,
      "chip": "ym2612"
    },
    {
      "channel": 3,
      "note": 75,
      "start": 53.6312,
      "duration": 0.1128,
      "velocity": 105,
      "chip": "ym2612"
    },
    {
      "channel": 4,
      "note": 58,
      "start": 53.634,
      "duration": 0.0278,
      "velocity": 127,
      "chip": "ym2612"
    },
    {
      "channel": 2,
      "note": 84,
      "start": 53.743,
      "duration": 0.123,
      "velocity": 106,
      "chip": "ym2612"
    },
    {
      "channel": 3,
      "note": 84,
      "start": 53.7457,
      "duration": 0.1229,
      "velocity": 105,
      "chip": "ym2612"
    },
    {
      "channel": 4,
      "note": 58,
      "start": 53.7485,
      "duration": 0.0322,
      "velocity": 127,
      "chip": "ym2612"
    },
    {
      "channel": 0,
      "note": 48,
      "start": 53.8622,
      "duration": 0.0366,
      "velocity": 79,
      "chip": "ym2612"
    },
    {
      "channel": 1,
      "note": 22,
      "start": 53.8649,
      "duration": 0.095,
      "velocity": 127,
      "chip": "ym2612"
    },
    {
      "channel": 2,
      "note": 79,
      "start": 53.8677,
      "duration": 0.1123,
      "velocity": 106,
      "chip": "ym2612"
    },
    {
      "channel": 3,
      "note": 79,
      "start": 53.8704,
      "duration": 0.1127,
      "velocity": 105,
      "chip": "ym2612"
    },
    {
      "channel": 4,
      "note": 58,
      "start": 53.8732,
      "duration": 0.1268,
      "velocity": 127,
      "chip": "ym2612"
    },
    {
      "channel": 2,
      "note": 87,
      "start": 53.9821,
      "duration": 0.2378,
      "velocity": 106,
      "chip": "ym2612"
    },
    {
      "channel": 3,
      "note": 87,
      "start": 53.9848,
      "duration": 0.1204,
      "velocity": 105,
      "chip": "ym2612"
    },
    {
      "channel": 0,
      "note": 48,
      "start": 54.1012,
      "duration": 0.0369,
      "velocity": 79,
      "chip": "ym2612"
    },
    {
      "channel": 1,
      "note": 22,
      "start": 54.1039,
      "duration": 0.1154,
      "velocity": 125,
      "chip": "ym2612"
    },
    {
      "channel": 4,
      "note": 58,
      "start": 54.1077,
      "duration": 0.0326,
      "velocity": 127,
      "chip": "ym2612"
    },
    {
      "channel": 2,
      "note": 86,
      "start": 54.222,
      "duration": 0.1224,
      "velocity": 106,
      "chip": "ym2612"
    },
    {
      "channel": 3,
      "note": 86,
      "start": 54.2248,
      "duration": 0.1224,
      "velocity": 105,
      "chip": "ym2612"
    },
    {
      "channel": 4,
      "note": 58,
      "start": 54.2276,
      "duration": 0.0316,
      "velocity": 127,
      "chip": "ym2612"
    },
    {
      "channel": 0,
      "note": 60,
      "start": 54.3407,
      "duration": 0.0366,
      "velocity": 79,
      "chip": "ym2612"
    },
    {
      "channel": 1,
      "note": 24,
      "start": 54.3434,
      "duration": 0.0952,
      "velocity": 127,
      "chip": "ym2612"
    },
    {
      "channel": 2,
      "note": 82,
      "start": 54.3461,
      "duration": 0.1153,
      "velocity": 106,
      "chip": "ym2612"
    },
    {
      "channel": 3,
      "note": 82,
      "start": 54.3489,
      "duration": 0.1152,
      "velocity": 105,
      "chip": "ym2612"
    },
    {
      "channel": 4,
      "note": 58,
      "start": 54.3517,
      "duration": 0.1272,
      "velocity": 127,
      "chip": "ym2612"
    },
    {
      "channel": 1,
      "note": 22,
      "start": 54.4605,
      "duration": 0.1202,
      "velocity": 125,
      "chip": "ym2612"
    },
    {
      "channel": 2,
      "note": 79,
      "start": 54.4631,
      "duration": 0.2401,
      "velocity": 106,
      "chip": "ym2612"
    },
    {
      "channel": 3,
      "note": 79,
      "start": 54.4659,
      "duration": 0.1179,
      "velocity": 105,
      "chip": "ym2612"
    },
    {
      "channel": 0,
      "note": 60,
      "start": 54.5797,
      "duration": 0.0369,
      "velocity": 79,
      "chip": "ym2612"
    },
    {
      "channel": 1,
      "note": 30,
      "start": 54.5824,
      "duration": 0.096,
      "velocity": 127,
      "chip": "ym2612"
    },
    {
      "channel": 4,
      "note": 58,
      "start": 54.5863,
      "duration": 0.0324,
      "velocity": 127,
      "chip": "ym2612"
    },
    {
      "channel": 0,
      "note": 58,
      "start": 54.6996,
      "duration": 0.0366,
      "velocity": 79,
      "chip": "ym2612"
    },
    {
      "channel": 1,
      "note": 22,
      "start": 54.7023,
      "duration": 0.1151,
      "velocity": 125,
      "chip": "ym2612"
    },
    {
      "channel": 2,
      "note": 84,
      "start": 54.7049,
      "duration": 0.1157,
      "velocity": 106,
      "chip": "ym2612"
    },
    {
      "channel": 3,
      "note": 84,
      "start": 54.7077,
      "duration": 0.1156,
      "velocity": 105,
      "chip": "ym2612"
    },
    {
      "channel": 4,
      "note": 58,
      "start": 54.7105,
      "duration": 0.0279,
      "velocity": 127,
      "chip": "ym2612"
    },
    {
      "channel": 1,
      "note": 30,
      "start": 54.8195,
      "duration": 0.0976,
      "velocity": 127,
      "chip": "ym2612"
    },
    {
      "channel": 2,
      "note": 79,
      "start": 54.8222,
      "duration": 0.1175,
      "velocity": 106,
      "chip": "ym2612"
    },
    {
      "channel": 3,
      "note": 79,
      "start": 54.825,
      "duration": 0.1174,
      "velocity": 105,
      "chip": "ym2612"
    },
    {
      "channel": 4,
      "note": 58,
      "start": 54.8278,
      "duration": 0.1292,
      "velocity": 127,
      "chip": "ym2612"
    },
    {
      "channel": 0,
      "note": 58,
      "start": 54.9385,
      "duration": 0.0369,
      "velocity": 79,
      "chip": "ym2612"
    },
    {
      "channel": 2,
      "note": 87,
      "start": 54.9414,
      "duration": 0.2383,
      "velocity": 106,
      "chip": "ym2612"
    },
    {
      "channel": 3,
      "note": 87,
      "start": 54.9442,
      "duration": 0.1156,
      "velocity": 105,
      "chip": "ym2612"
    },
    {
      "channel": 1,
      "note": 22,
      "start": 55.0585,
      "duration": 0.1206,
      "velocity": 125,
      "chip": "ym2612"
    },
    {
      "channel": 4,
      "note": 58,
      "start": 55.0623,
      "duration": 0.0347,
      "velocity": 127,
      "chip": "ym2612"
    },
    {
      "channel": 0,
      "note": 58,
      "start": 55.1779,
      "duration": 0.0367,
      "velocity": 79,
      "chip": "ym2612"
    },
    {
      "channel": 2,
      "note": 86,
      "start": 55.1813,
      "duration": 0.1201,
      "velocity": 106,
      "chip": "ym2612"
    },
    {
      "channel": 3,
      "note": 86,
      "start": 55.1841,
      "duration": 0.12,
      "velocity": 105,
      "chip": "ym2612"
    },
    {
      "channel": 4,
      "note": 58,
      "start": 55.1869,
      "duration": 0.0295,
      "velocity": 127,
      "chip": "ym2612"
    },
    {
      "channel": 0,
      "note": 53,
      "start": 55.2977,
      "duration": 0.0366,
      "velocity": 79,
      "chip": "ym2612"
    },
    {
      "channel": 1,
      "note": 24,
      "start": 55.3004,
      "duration": 0.0945,
      "velocity": 127,
      "chip": "ym2612"
    },
    {
      "channel": 2,
      "note": 82,
      "start": 55.3031,
      "duration": 0.2376,
      "velocity": 106,
      "chip": "ym2612"
    },
    {
      "channel": 3,
      "note": 82,
      "start": 55.3059,
      "duration": 0.1096,
      "velocity": 105,
      "chip": "ym2612"
    },
    {
      "channel": 4,
      "note": 58,
      "start": 55.3086,
      "duration": 0.1268,
      "velocity": 127,
      "chip": "ym2612"
    },
    {
      "channel": 0,
      "note": 55,
      "start": 55.5369,
      "duration": 0.0366,
      "velocity": 79,
      "chip": "ym2612"
    },
    {
      "channel": 1,
      "note": 22,
      "start": 55.5396,
      "duration": 0.0951,
      "velocity": 127,
      "chip": "ym2612"
    },
    {
      "channel": 2,
      "note": 79,
      "start": 55.5423,
      "duration": 0.1124,
      "velocity": 106,
      "chip": "ym2612"
    },
    {
      "channel": 3,
      "note": 79,
      "start": 55.5451,
      "duration": 0.1128,
      "velocity": 105,
      "chip": "ym2612"
    },
    {
      "channel": 4,
      "note": 58,
      "start": 55.5479,
      "duration": 0.0278,
      "velocity": 127,
      "chip": "ym2612"
    },
    {
      "channel": 2,
      "note": 84,
      "start": 55.6569,
      "duration": 0.123,
      "velocity": 106,
      "chip": "ym2612"
    },
    {
      "channel": 3,
      "note": 84,
      "start": 55.6597,
      "duration": 0.1229,
      "velocity": 105,
      "chip": "ym2612"
    },
    {
      "channel": 4,
      "note": 58,
      "start": 55.6624,
      "duration": 0.0322,
      "velocity": 127,
      "chip": "ym2612"
    },
    {
      "channel": 0,
      "note": 48,
      "start": 55.7762,
      "duration": 0.0366,
      "velocity": 79,
      "chip": "ym2612"
    },
    {
      "channel": 1,
      "note": 22,
      "start": 55.7788,
      "duration": 0.095,
      "velocity": 127,
      "chip": "ym2612"
    },
    {
      "channel": 2,
      "note": 79,
      "start": 55.7816,
      "duration": 0.1123,
      "velocity": 106,
      "chip": "ym2612"
    },
    {
      "channel": 3,
      "note": 79,
      "start": 55.7844,
      "duration": 0.1127,
      "velocity": 105,
      "chip": "ym2612"
    },
    {
      "channel": 4,
      "note": 58,
      "start": 55.7871,
      "duration": 0.1268,
      "velocity": 127,
      "chip": "ym2612"
    },
    {
      "channel": 2,
      "note": 87,
      "start": 55.896,
      "duration": 0.2378,
      "velocity": 106,
      "chip": "ym2612"
    },
    {
      "channel": 3,
      "note": 87,
      "start": 55.8988,
      "duration": 0.1204,
      "velocity": 105,
      "chip": "ym2612"
    },
    {
      "channel": 0,
      "note": 48,
      "start": 56.0151,
      "duration": 0.0369,
      "velocity": 79,
      "chip": "ym2612"
    },
    {
      "channel": 1,
      "note": 22,
      "start": 56.0178,
      "duration": 0.1154,
      "velocity": 125,
      "chip": "ym2612"
    },
    {
      "channel": 4,
      "note": 58,
      "start": 56.0216,
      "duration": 0.0326,
      "velocity": 127,
      "chip": "ym2612"
    },
    {
      "channel": 2,
      "note": 86,
      "start": 56.1359,
      "duration": 0.1224,
      "velocity": 106,
      "chip": "ym2612"
    },
    {
      "channel": 3,
      "note": 86,
      "start": 56.1387,
      "duration": 0.1224,
      "velocity": 105,
      "chip": "ym2612"
    },
    {
      "channel": 4,
      "note": 58,
      "start": 56.1415,
      "duration": 0.0317,
      "velocity": 127,
      "chip": "ym2612"
    },
    {
      "channel": 0,
      "note": 60,
      "start": 56.2546,
      "duration": 0.0366,
      "velocity": 79,
      "chip": "ym2612"
    },
    {
      "channel": 1,
      "note": 24,
      "start": 56.2573,
      "duration": 0.0952,
      "velocity": 127,
      "chip": "ym2612"
    },
    {
      "channel": 2,
      "note": 82,
      "start": 56.2601,
      "duration": 0.1153,
      "velocity": 106,
      "chip": "ym2612"
    },
    {
      "channel": 3,
      "note": 82,
      "start": 56.2628,
      "duration": 0.1152,
      "velocity": 105,
      "chip": "ym2612"
    },
    {
      "channel": 4,
      "note": 58,
      "start": 56.2656,
      "duration": 0.1272,
      "velocity": 127,
      "chip": "ym2612"
    },
    {
      "channel": 1,
      "note": 22,
      "start": 56.3744,
      "duration": 0.1202,
      "velocity": 125,
      "chip": "ym2612"
    },
    {
      "channel": 2,
      "note": 79,
      "start": 56.3771,
      "duration": 0.2401,
      "velocity": 106,
      "chip": "ym2612"
    },
    {
      "channel": 3,
      "note": 79,
      "start": 56.3798,
      "duration": 0.1179,
      "velocity": 105,
      "chip": "ym2612"
    },
    {
      "channel": 0,
      "note": 60,
      "start": 56.4936,
      "duration": 0.0369,
      "velocity": 79,
      "chip": "ym2612"
    },
    {
      "channel": 1,
      "note": 30,
      "start": 56.4963,
      "duration": 0.0959,
      "velocity": 127,
      "chip": "ym2612"
    },
    {
      "channel": 4,
      "note": 58,
      "start": 56.5002,
      "duration": 0.0324,
      "velocity": 127,
      "chip": "ym2612"
    },
    {
      "channel": 0,
      "note": 58,
      "start": 56.6135,
      "duration": 0.0366,
      "velocity": 79,
      "chip": "ym2612"
    },
    {
      "channel": 1,
      "note": 22,
      "start": 56.6162,
      "duration": 0.1151,
      "velocity": 125,
      "chip": "ym2612"
    },
    {
      "channel": 2,
      "note": 84,
      "start": 56.6188,
      "duration": 0.1157,
      "velocity": 106,
      "chip": "ym2612"
    },
    {
      "channel": 3,
      "note": 84,
      "start": 56.6216,
      "duration": 0.1156,
      "velocity": 105,
      "chip": "ym2612"
    },
    {
      "channel": 4,
      "note": 58,
      "start": 56.6244,
      "duration": 0.0279,
      "velocity": 127,
      "chip": "ym2612"
    },
    {
      "channel": 1,
      "note": 30,
      "start": 56.7334,
      "duration": 0.0976,
      "velocity": 127,
      "chip": "ym2612"
    },
    {
      "channel": 2,
      "note": 79,
      "start": 56.7362,
      "duration": 0.1175,
      "velocity": 106,
      "chip": "ym2612"
    },
    {
      "channel": 3,
      "note": 79,
      "start": 56.7389,
      "duration": 0.1174,
      "velocity": 105,
      "chip": "ym2612"
    },
    {
      "channel": 4,
      "note": 58,
      "start": 56.7417,
      "duration": 0.1292,
      "velocity": 127,
      "chip": "ym2612"
    },
    {
      "channel": 0,
      "note": 58,
      "start": 56.8524,
      "duration": 0.0369,
      "velocity": 79,
      "chip": "ym2612"
    },
    {
      "channel": 2,
      "note": 87,
      "start": 56.8553,
      "duration": 0.2383,
      "velocity": 106,
      "chip": "ym2612"
    },
    {
      "channel": 3,
      "note": 87,
      "start": 56.8581,
      "duration": 0.1156,
      "velocity": 105,
      "chip": "ym2612"
    },
    {
      "channel": 1,
      "note": 22,
      "start": 56.9724,
      "duration": 0.1206,
      "velocity": 125,
      "chip": "ym2612"
    },
    {
      "channel": 4,
      "note": 58,
      "start": 56.9762,
      "duration": 0.0347,
      "velocity": 127,
      "chip": "ym2612"
    },
    {
      "channel": 0,
      "note": 58,
      "start": 57.0919,
      "duration": 0.0367,
      "velocity": 79,
      "chip": "ym2612"
    },
    {
      "channel": 2,
      "note": 86,
      "start": 57.0953,
      "duration": 0.12,
      "velocity": 106,
      "chip": "ym2612"
    },
    {
      "channel": 3,
      "note": 86,
      "start": 57.098,
      "duration": 0.1199,
      "velocity": 105,
      "chip": "ym2612"
    },
    {
      "channel": 4,
      "note": 58,
      "start": 57.1008,
      "duration": 0.0295,
      "velocity": 127,
      "chip": "ym2612"
    },
    {
      "channel": 0,
      "note": 53,
      "start": 57.2116,
      "duration": 0.0366,
      "velocity": 79,
      "chip": "ym2612"
    },
    {
      "channel": 1,
      "note": 24,
      "start": 57.2143,
      "duration": 0.1149,
      "velocity": 125,
      "chip": "ym2612"
    },
    {
      "channel": 2,
      "note": 82,
      "start": 57.2169,
      "duration": 0.1155,
      "velocity": 106,
      "chip": "ym2612"
    },
    {
      "channel": 3,
      "note": 82,
      "start": 57.2197,
      "duration": 0.1155,
      "velocity": 105,
      "chip": "ym2612"
    },
    {
      "channel": 4,
      "note": 58,
      "start": 57.2224,
      "duration": 0.1274,
      "velocity": 127,
      "chip": "ym2612"
    },
    {
      "channel": 1,
      "note": 30,
      "start": 57.3314,
      "duration": 0.0981,
      "velocity": 127,
      "chip": "ym2612"
    },
    {
      "channel": 2,
      "note": 79,
      "start": 57.3341,
      "duration": 0.1205,
      "velocity": 106,
      "chip": "ym2612"
    },
    {
      "channel": 3,
      "note": 79,
      "start": 57.3369,
      "duration": 0.1204,
      "velocity": 105,
      "chip": "ym2612"
    },
    {
      "channel": 0,
      "note": 55,
      "start": 57.4508,
      "duration": 0.0366,
      "velocity": 79,
      "chip": "ym2612"
    },
    {
      "channel": 1,
      "note": 22,
      "start": 57.4535,
      "duration": 0.0951,
      "velocity": 127,
      "chip": "ym2612"
    },
    {
      "channel": 2,
      "note": 82,
      "start": 57.4563,
      "duration": 0.1124,
      "velocity": 106,
      "chip": "ym2612"
    },
    {
      "channel": 3,
      "note": 82,
      "start": 57.459,
      "duration": 0.1128,
      "velocity": 105,
      "chip": "ym2612"
    },
    {
      "channel": 4,
      "note": 58,
      "start": 57.4618,
      "duration": 0.0278,
      "velocity": 127,
      "chip": "ym2612"
    },
    {
      "channel": 2,
      "note": 84,
      "start": 57.5708,
      "duration": 0.123,
      "velocity": 106,
      "chip": "ym2612"
    },
    {
      "channel": 3,
      "note": 84,
      "start": 57.5736,
      "duration": 0.1229,
      "velocity": 105,
      "chip": "ym2612"
    },
    {
      "channel": 4,
      "note": 58,
      "start": 57.5763,
      "duration": 0.0322,
      "velocity": 127,
      "chip": "ym2612"
    },
    {
      "channel": 0,
      "note": 48,
      "start": 57.6901,
      "duration": 0.0366,
      "velocity": 79,
      "chip": "ym2612"
    },
    {
      "channel": 1,
      "note": 22,
      "start": 57.6927,
      "duration": 0.095,
      "velocity": 127,
      "chip": "ym2612"
    },
    {
      "channel": 2,
      "note": 79,
      "start": 57.6955,
      "duration": 0.1123,
      "velocity": 106,
      "chip": "ym2612"
    },
    {
      "channel": 3,
      "note": 79,
      "start": 57.6983,
      "duration": 0.1127,
      "velocity": 105,
      "chip": "ym2612"
    },
    {
      "channel": 4,
      "note": 58,
      "start": 57.7011,
      "duration": 0.1268,
      "velocity": 127,
      "chip": "ym2612"
    },
    {
      "channel": 2,
      "note": 87,
      "start": 57.8099,
      "duration": 0.2378,
      "velocity": 106,
      "chip": "ym2612"
    },
    {
      "channel": 3,
      "note": 87,
      "start": 57.8127,
      "duration": 0.1204,
      "velocity": 105,
      "chip": "ym2612"
    },
    {
      "channel": 0,
      "note": 48,
      "start": 57.929,
      "duration": 0.0369,
      "velocity": 79,
      "chip": "ym2612"
    },
    {
      "channel": 1,
      "note": 22,
      "start": 57.9317,
      "duration": 0.1154,
      "velocity": 125,
      "chip": "ym2612"
    },
    {
      "channel": 4,
      "note": 58,
      "start": 57.9355,
      "duration": 0.0326,
      "velocity": 127,
      "chip": "ym2612"
    },
    {
      "channel": 2,
      "note": 86,
      "start": 58.0499,
      "duration": 0.1224,
      "velocity": 106,
      "chip": "ym2612"
    },
    {
      "channel": 3,
      "note": 86,
      "start": 58.0526,
      "duration": 0.1224,
      "velocity": 105,
      "chip": "ym2612"
    },
    {
      "channel": 4,
      "note": 58,
      "start": 58.0554,
      "duration": 0.0316,
      "velocity": 127,
      "chip": "ym2612"
    },
    {
      "channel": 0,
      "note": 60,
      "start": 58.1686,
      "duration": 0.0366,
      "velocity": 79,
      "chip": "ym2612"
    },
    {
      "channel": 1,
      "note": 24,
      "start": 58.1712,
      "duration": 0.0952,
      "velocity": 127,
      "chip": "ym2612"
    },
    {
      "channel": 2,
      "note": 82,
      "start": 58.174,
      "duration": 0.1153,
      "velocity": 106,
      "chip": "ym2612"
    },
    {
      "channel": 3,
      "note": 82,
      "start": 58.1767,
      "duration": 0.1153,
      "velocity": 105,
      "chip": "ym2612"
    },
    {
      "channel": 4,
      "note": 58,
      "start": 58.1795,
      "duration": 0.1272,
      "velocity": 127,
      "chip": "ym2612"
    },
    {
      "channel": 1,
      "note": 22,
      "start": 58.2883,
      "duration": 0.1202,
      "velocity": 125,
      "chip": "ym2612"
    },
    {
      "channel": 2,
      "note": 79,
      "start": 58.291,
      "duration": 0.2401,
      "velocity": 106,
      "chip": "ym2612"
    },
    {
      "channel": 3,
      "note": 79,
      "start": 58.2937,
      "duration": 0.1179,
      "velocity": 105,
      "chip": "ym2612"
    },
    {
      "channel": 0,
      "note": 60,
      "start": 58.4075,
      "duration": 0.0369,
      "velocity": 79,
      "chip": "ym2612"
    },
    {
      "channel": 1,
      "note": 30,
      "start": 58.4102,
      "duration": 0.0959,
      "velocity": 127,
      "chip": "ym2612"
    },
    {
      "channel": 4,
      "note": 58,
      "start": 58.4141,
      "duration": 0.0324,
      "velocity": 127,
      "chip": "ym2612"
    },
    {
      "channel": 0,
      "note": 58,
      "start": 58.5274,
      "duration": 0.0366,
      "velocity": 79,
      "chip": "ym2612"
    },
    {
      "channel": 1,
      "note": 22,
      "start": 58.5301,
      "duration": 0.1151,
      "velocity": 125,
      "chip": "ym2612"
    },
    {
      "channel": 2,
      "note": 84,
      "start": 58.5327,
      "duration": 0.1157,
      "velocity": 106,
      "chip": "ym2612"
    },
    {
      "channel": 3,
      "note": 84,
      "start": 58.5355,
      "duration": 0.1156,
      "velocity": 105,
      "chip": "ym2612"
    },
    {
      "channel": 4,
      "note": 58,
      "start": 58.5383,
      "duration": 0.0279,
      "velocity": 127,
      "chip": "ym2612"
    },
    {
      "channel": 1,
      "note": 30,
      "start": 58.6473,
      "duration": 0.0976,
      "velocity": 127,
      "chip": "ym2612"
    },
    {
      "channel": 2,
      "note": 79,
      "start": 58.6501,
      "duration": 0.1175,
      "velocity": 106,
      "chip": "ym2612"
    },
    {
      "channel": 3,
      "note": 79,
      "start": 58.6529,
      "duration": 0.1174,
      "velocity": 105,
      "chip": "ym2612"
    },
    {
      "channel": 4,
      "note": 58,
      "start": 58.6556,
      "duration": 0.1292,
      "velocity": 127,
      "chip": "ym2612"
    },
    {
      "channel": 0,
      "note": 58,
      "start": 58.7664,
      "duration": 0.0369,
      "velocity": 79,
      "chip": "ym2612"
    },
    {
      "channel": 2,
      "note": 87,
      "start": 58.7692,
      "duration": 0.2383,
      "velocity": 106,
      "chip": "ym2612"
    },
    {
      "channel": 3,
      "note": 87,
      "start": 58.772,
      "duration": 0.1156,
      "velocity": 105,
      "chip": "ym2612"
    },
    {
      "channel": 1,
      "note": 22,
      "start": 58.8863,
      "duration": 0.1206,
      "velocity": 125,
      "chip": "ym2612"
    },
    {
      "channel": 4,
      "note": 58,
      "start": 58.8901,
      "duration": 0.0347,
      "velocity": 127,
      "chip": "ym2612"
    },
    {
      "channel": 0,
      "note": 58,
      "start": 59.0058,
      "duration": 0.0367,
      "velocity": 79,
      "chip": "ym2612"
    },
    {
      "channel": 2,
      "note": 86,
      "start": 59.0092,
      "duration": 0.1201,
      "velocity": 106,
      "chip": "ym2612"
    },
    {
      "channel": 3,
      "note": 86,
      "start": 59.012,
      "duration": 0.12,
      "velocity": 105,
      "chip": "ym2612"
    },
    {
      "channel": 4,
      "note": 58,
      "start": 59.0147,
      "duration": 0.0295,
      "velocity": 127,
      "chip": "ym2612"
    },
    {
      "channel": 0,
      "note": 53,
      "start": 59.1255,
      "duration": 0.0366,
      "velocity": 79,
      "chip": "ym2612"
    },
    {
      "channel": 1,
      "note": 24,
      "start": 59.1282,
      "duration": 0.0947,
      "velocity": 127,
      "chip": "ym2612"
    },
    {
      "channel": 2,
      "note": 82,
      "start": 59.1309,
      "duration": 0.2376,
      "velocity": 106,
      "chip": "ym2612"
    },
    {
      "channel": 3,
      "note": 82,
      "start": 59.1337,
      "duration": 0.1127,
      "velocity": 105,
      "chip": "ym2612"
    },
    {
      "channel": 4,
      "note": 58,
      "start": 59.1365,
      "duration": 0.1273,
      "velocity": 127,
      "chip": "ym2612"
    },
    {
      "channel": 1,
      "note": 22,
      "start": 59.245,
      "duration": 0.0985,
      "velocity": 127,
      "chip": "ym2612"
    },
    {
      "channel": 0,
      "note": 55,
      "start": 59.3648,
      "duration": 0.0366,
      "velocity": 79,
      "chip": "ym2612"
    },
    {
      "channel": 1,
      "note": 22,
      "start": 59.3674,
      "duration": 0.0951,
      "velocity": 127,
      "chip": "ym2612"
    },
    {
      "channel": 2,
      "note": 79,
      "start": 59.3702,
      "duration": 0.1124,
      "velocity": 106,
      "chip": "ym2612"
    },
    {
      "channel": 3,
      "note": 79,
      "start": 59.3729,
      "duration": 0.1128,
      "velocity": 105,
      "chip": "ym2612"
    },
    {
      "channel": 4,
      "note": 58,
      "start": 59.3757,
      "duration": 0.0278,
      "velocity": 127,
      "chip": "ym2612"
    },
    {
      "channel": 2,
      "note": 84,
      "start": 59.4847,
      "duration": 0.123,
      "velocity": 106,
      "chip": "ym2612"
    },
    {
      "channel": 3,
      "note": 84,
      "start": 59.4875,
      "duration": 0.1229,
      "velocity": 105,
      "chip": "ym2612"
    },
    {
      "channel": 4,
      "note": 58,
      "start": 59.4903,
      "duration": 0.0322,
      "velocity": 127,
      "chip": "ym2612"
    },
    {
      "channel": 0,
      "note": 48,
      "start": 59.604,
      "duration": 0.0366,
      "velocity": 79,
      "chip": "ym2612"
    },
    {
      "channel": 1,
      "note": 22,
      "start": 59.6067,
      "duration": 0.095,
      "velocity": 127,
      "chip": "ym2612"
    },
    {
      "channel": 2,
      "note": 79,
      "start": 59.6094,
      "duration": 0.1123,
      "velocity": 106,
      "chip": "ym2612"
    },
    {
      "channel": 3,
      "note": 79,
      "start": 59.6122,
      "duration": 0.1127,
      "velocity": 105,
      "chip": "ym2612"
    },
    {
      "channel": 4,
      "note": 58,
      "start": 59.615,
      "duration": 0.1268,
      "velocity": 127,
      "chip": "ym2612"
    },
    {
      "channel": 2,
      "note": 87,
      "start": 59.7238,
      "duration": 0.2378,
      "velocity": 106,
      "chip": "ym2612"
    },
    {
      "channel": 3,
      "note": 87,
      "start": 59.7266,
      "duration": 0.1204,
      "velocity": 105,
      "chip": "ym2612"
    },
    {
      "channel": 0,
      "note": 48,
      "start": 59.8429,
      "duration": 0.0369,
      "velocity": 79,
      "chip": "ym2612"
    },
    {
      "channel": 1,
      "note": 22,
      "start": 59.8456,
      "duration": 0.1154,
      "velocity": 125,
      "chip": "ym2612"
    },
    {
      "channel": 4,
      "note": 58,
      "start": 59.8494,
      "duration": 0.0326,
      "velocity": 127,
      "chip": "ym2612"
    },
    {
      "channel": 2,
      "note": 86,
      "start": 59.9638,
      "duration": 0.1224,
      "velocity": 106,
      "chip": "ym2612"
    },
    {
      "channel": 3,
      "note": 86,
      "start": 59.9666,
      "duration": 0.1224,
      "velocity": 105,
      "chip": "ym2612"
    },
    {
      "channel": 4,
      "note": 58,
      "start": 59.9693,
      "duration": 0.0316,
      "velocity": 127,
      "chip": "ym2612"
    },
    {
      "channel": 0,
      "note": 60,
      "start": 60.0825,
      "duration": 0.0366,
      "velocity": 79,
      "chip": "ym2612"
    },
    {
      "channel": 1,
      "note": 24,
      "start": 60.0851,
      "duration": 0.0953,
      "velocity": 127,
      "chip": "ym2612"
    },
    {
      "channel": 2,
      "note": 82,
      "start": 60.0879,
      "duration": 0.1153,
      "velocity": 106,
      "chip": "ym2612"
    },
    {
      "channel": 3,
      "note": 82,
      "start": 60.0907,
      "duration": 0.1152,
      "velocity": 105,
      "chip": "ym2612"
    },
    {
      "channel": 4,
      "note": 58,
      "start": 60.0934,
      "duration": 0.1272,
      "velocity": 127,
      "chip": "ym2612"
    },
    {
      "channel": 1,
      "note": 22,
      "start": 60.2022,
      "duration": 0.1202,
      "velocity": 125,
      "chip": "ym2612"
    },
    {
      "channel": 2,
      "note": 79,
      "start": 60.2049,
      "duration": 0.2401,
      "velocity": 106,
      "chip": "ym2612"
    },
    {
      "channel": 3,
      "note": 79,
      "start": 60.2076,
      "duration": 0.1179,
      "velocity": 105,
      "chip": "ym2612"
    },
    {
      "channel": 0,
      "note": 60,
      "start": 60.3214,
      "duration": 0.0369,
      "velocity": 79,
      "chip": "ym2612"
    },
    {
      "channel": 1,
      "note": 30,
      "start": 60.3241,
      "duration": 0.0959,
      "velocity": 127,
      "chip": "ym2612"
    },
    {
      "channel": 4,
      "note": 58,
      "start": 60.328,
      "duration": 0.0324,
      "velocity": 127,
      "chip": "ym2612"
    },
    {
      "channel": 0,
      "note": 53,
      "start": 60.4413,
      "duration": 0.0366,
      "velocity": 79,
      "chip": "ym2612"
    },
    {
      "channel": 1,
      "note": 22,
      "start": 60.444,
      "duration": 0.1151,
      "velocity": 125,
      "chip": "ym2612"
    },
    {
      "channel": 2,
      "note": 84,
      "start": 60.4466,
      "duration": 0.1157,
      "velocity": 106,
      "chip": "ym2612"
    },
    {
      "channel": 3,
      "note": 84,
      "start": 60.4494,
      "duration": 0.1156,
      "velocity": 105,
      "chip": "ym2612"
    },
    {
      "channel": 4,
      "note": 58,
      "start": 60.4522,
      "duration": 0.0279,
      "velocity": 127,
      "chip": "ym2612"
    },
    {
      "channel": 1,
      "note": 30,
      "start": 60.5612,
      "duration": 0.0976,
      "velocity": 127,
      "chip": "ym2612"
    },
    {
      "channel": 2,
      "note": 79,
      "start": 60.564,
      "duration": 0.1175,
      "velocity": 106,
      "chip": "ym2612"
    },
    {
      "channel": 3,
      "note": 79,
      "start": 60.5668,
      "duration": 0.1174,
      "velocity": 105,
      "chip": "ym2612"
    },
    {
      "channel": 4,
      "note": 58,
      "start": 60.5695,
      "duration": 0.1292,
      "velocity": 127,
      "chip": "ym2612"
    },
    {
      "channel": 0,
      "note": 53,
      "start": 60.6803,
      "duration": 0.0369,
      "velocity": 79,
      "chip": "ym2612"
    },
    {
      "channel": 2,
      "note": 87,
      "start": 60.6831,
      "duration": 0.2383,
      "velocity": 106,
      "chip": "ym2612"
    },
    {
      "channel": 3,
      "note": 87,
      "start": 60.6859,
      "duration": 0.1156,
      "velocity": 105,
      "chip": "ym2612"
    },
    {
      "channel": 1,
      "note": 22,
      "start": 60.8002,
      "duration": 0.1206,
      "velocity": 125,
      "chip": "ym2612"
    },
    {
      "channel": 4,
      "note": 58,
      "start": 60.804,
      "duration": 0.0347,
      "velocity": 127,
      "chip": "ym2612"
    },
    {
      "channel": 0,
      "note": 53,
      "start": 60.9197,
      "duration": 0.0367,
      "velocity": 79,
      "chip": "ym2612"
    },
    {
      "channel": 2,
      "note": 86,
      "start": 60.9231,
      "duration": 0.12,
      "velocity": 106,
      "chip": "ym2612"
    },
    {
      "channel": 3,
      "note": 86,
      "start": 60.9259,
      "duration": 0.1199,
      "velocity": 105,
      "chip": "ym2612"
    },
    {
      "channel": 4,
      "note": 58,
      "start": 60.9287,
      "duration": 0.0295,
      "velocity": 127,
      "chip": "ym2612"
    },
    {
      "channel": 0,
      "note": 55,
      "start": 61.0394,
      "duration": 0.0366,
      "velocity": 79,
      "chip": "ym2612"
    },
    {
      "channel": 1,
      "note": 24,
      "start": 61.0421,
      "duration": 0.1149,
      "velocity": 125,
      "chip": "ym2612"
    },
    {
      "channel": 2,
      "note": 82,
      "start": 61.0447,
      "duration": 0.1154,
      "velocity": 106,
      "chip": "ym2612"
    },
    {
      "channel": 3,
      "note": 82,
      "start": 61.0475,
      "duration": 0.1154,
      "velocity": 105,
      "chip": "ym2612"
    },
    {
      "channel": 4,
      "note": 58,
      "start": 61.0503,
      "duration": 0.1273,
      "velocity": 127,
      "chip": "ym2612"
    },
    {
      "channel": 1,
      "note": 30,
      "start": 61.1592,
      "duration": 0.1205,
      "velocity": 125,
      "chip": "ym2612"
    },
    {
      "channel": 2,
      "note": 89,
      "start": 61.1618,
      "duration": 0.1206,
      "velocity": 106,
      "chip": "ym2612"
    },
    {
      "channel": 3,
      "note": 89,
      "start": 61.1646,
      "duration": 0.1208,
      "velocity": 105,
      "chip": "ym2612"
    },
    {
      "channel": 0,
      "note": 51,
      "start": 61.2787,
      "duration": 0.0366,
      "velocity": 79,
      "chip": "ym2612"
    },
    {
      "channel": 1,
      "note": 30,
      "start": 61.2813,
      "duration": 0.0951,
      "velocity": 127,
      "chip": "ym2612"
    },
    {
      "channel": 2,
      "note": 87,
      "start": 61.2841,
      "duration": 0.0001,
      "velocity": 1,
      "chip": "ym2612"
    },
    {
      "channel": 3,
      "note": 87,
      "start": 61.2872,
      "duration": 0.1128,
      "velocity": 95,
      "chip": "ym2612"
    },
    {
      "channel": 4,
      "note": 58,
      "start": 61.29,
      "duration": 0.0282,
      "velocity": 127,
      "chip": "ym2612"
    },
    {
      "channel": 2,
      "note": 75,
      "start": 61.3986,
      "duration": 0.0001,
      "velocity": 1,
      "chip": "ym2612"
    },
    {
      "channel": 3,
      "note": 75,
      "start": 61.4017,
      "duration": 0.1229,
      "velocity": 95,
      "chip": "ym2612"
    },
    {
      "channel": 4,
      "note": 58,
      "start": 61.4045,
      "duration": 0.0322,
      "velocity": 127,
      "chip": "ym2612"
    },
    {
      "channel": 0,
      "note": 51,
      "start": 61.5179,
      "duration": 0.0366,
      "velocity": 79,
      "chip": "ym2612"
    },
    {
      "channel": 1,
      "note": 22,
      "start": 61.5206,
      "duration": 0.0948,
      "velocity": 127,
      "chip": "ym2612"
    },
    {
      "channel": 2,
      "note": 75,
      "start": 61.5233,
      "duration": 0.0001,
      "velocity": 1,
      "chip": "ym2612"
    },
    {
      "channel": 3,
      "note": 73,
      "start": 61.5264,
      "duration": 0.1098,
      "velocity": 95,
      "chip": "ym2612"
    },
    {
      "channel": 4,
      "note": 58,
      "start": 61.5292,
      "duration": 0.1267,
      "velocity": 127,
      "chip": "ym2612"
    },
    {
      "channel": 3,
      "note": 70,
      "start": 61.6384,
      "duration": 0.1252,
      "velocity": 95,
      "chip": "ym2612"
    },
    {
      "channel": 0,
      "note": 51,
      "start": 61.757,
      "duration": 0.0367,
      "velocity": 79,
      "chip": "ym2612"
    },
    {
      "channel": 1,
      "note": 22,
      "start": 61.7597,
      "duration": 0.115,
      "velocity": 125,
      "chip": "ym2612"
    },
    {
      "channel": 2,
      "note": 75,
      "start": 61.7623,
      "duration": 0.0001,
      "velocity": 1,
      "chip": "ym2612"
    },
    {
      "channel": 4,
      "note": 58,
      "start": 61.7661,
      "duration": 0.0306,
      "velocity": 127,
      "chip": "ym2612"
    },
    {
      "channel": 4,
      "note": 58,
      "start": 61.8787,
      "duration": 0.0367,
      "velocity": 127,
      "chip": "ym2612"
    },
    {
      "channel": 0,
      "note": 63,
      "start": 61.9962,
      "duration": 0.0368,
      "velocity": 79,
      "chip": "ym2612"
    },
    {
      "channel": 1,
      "note": 24,
      "start": 61.9989,
      "duration": 0.0951,
      "velocity": 127,
      "chip": "ym2612"
    },
    {
      "channel": 2,
      "note": 75,
      "start": 62.0017,
      "duration": 0.0001,
      "velocity": 1,
      "chip": "ym2612"
    },
    {
      "channel": 4,
      "note": 58,
      "start": 62.0052,
      "duration": 0.1295,
      "velocity": 127,
      "chip": "ym2612"
    },
    {
      "channel": 1,
      "note": 22,
      "start": 62.116,
      "duration": 0.1203,
      "velocity": 125,
      "chip": "ym2612"
    },
    {
      "channel": 2,
      "note": 75,
      "start": 62.1186,
      "duration": 0.0001,
      "velocity": 1,
      "chip": "ym2612"
    },
    {
      "channel": 0,
      "note": 63,
      "start": 62.2354,
      "duration": 0.0369,
      "velocity": 79,
      "chip": "ym2612"
    },
    {
      "channel": 1,
      "note": 30,
      "start": 62.238,
      "duration": 0.0957,
      "velocity": 127,
      "chip": "ym2612"
    },
    {
      "channel": 4,
      "note": 58,
      "start": 62.242,
      "duration": 0.0331,
      "velocity": 127,
      "chip": "ym2612"
    },
    {
      "channel": 0,
      "note": 61,
      "start": 62.3551,
      "duration": 0.0368,
      "velocity": 79,
      "chip": "ym2612"
    },
    {
      "channel": 1,
      "note": 22,
      "start": 62.3578,
      "duration": 0.1151,
      "velocity": 125,
      "chip": "ym2612"
    },
    {
      "channel": 2,
      "note": 75,
      "start": 62.3604,
      "duration": 0.0001,
      "velocity": 1,
      "chip": "ym2612"
    },
    {
      "channel": 4,
      "note": 58,
      "start": 62.3639,
      "duration": 0.0308,
      "velocity": 127,
      "chip": "ym2612"
    },
    {
      "channel": 1,
      "note": 30,
      "start": 62.475,
      "duration": 0.0972,
      "velocity": 127,
      "chip": "ym2612"
    },
    {
      "channel": 2,
      "note": 75,
      "start": 62.4778,
      "duration": 0.0001,
      "velocity": 1,
      "chip": "ym2612"
    },
    {
      "channel": 4,
      "note": 58,
      "start": 62.4813,
      "duration": 0.1316,
      "velocity": 127,
      "chip": "ym2612"
    },
    {
      "channel": 0,
      "note": 61,
      "start": 62.5937,
      "duration": 0.0374,
      "velocity": 79,
      "chip": "ym2612"
    },
    {
      "channel": 1,
      "note": 22,
      "start": 62.7141,
      "duration": 0.1203,
      "velocity": 125,
      "chip": "ym2612"
    },
    {
      "channel": 4,
      "note": 58,
      "start": 62.7181,
      "duration": 0.0352,
      "velocity": 127,
      "chip": "ym2612"
    },
    {
      "channel": 0,
      "note": 61,
      "start": 62.8333,
      "duration": 0.037,
      "velocity": 79,
      "chip": "ym2612"
    },
    {
      "channel": 4,
      "note": 58,
      "start": 62.8377,
      "duration": 0.0343,
      "velocity": 127,
      "chip": "ym2612"
    },
    {
      "channel": 0,
      "note": 56,
      "start": 62.9534,
      "duration": 0.0366,
      "velocity": 79,
      "chip": "ym2612"
    },
    {
      "channel": 1,
      "note": 24,
      "start": 62.956,
      "duration": 0.0949,
      "velocity": 127,
      "chip": "ym2612"
    },
    {
      "channel": 2,
      "note": 78,
      "start": 62.9588,
      "duration": 0.0001,
      "velocity": 1,
      "chip": "ym2612"
    },
    {
      "channel": 3,
      "note": 75,
      "start": 62.9619,
      "duration": 0.1127,
      "velocity": 95,
      "chip": "ym2612"
    },
    {
      "channel": 4,
      "note": 58,
      "start": 62.9646,
      "duration": 0.1267,
      "velocity": 127,
      "chip": "ym2612"
    },
    {
      "channel": 2,
      "note": 75,
      "start": 63.0732,
      "duration": 0.0001,
      "velocity": 1,
      "chip": "ym2612"
    },
    {
      "channel": 3,
      "note": 73,
      "start": 63.0763,
      "duration": 0.1231,
      "velocity": 95,
      "chip": "ym2612"
    },
    {
      "channel": 0,
      "note": 58,
      "start": 63.1926,
      "duration": 0.0366,
      "velocity": 79,
      "chip": "ym2612"
    },
    {
      "channel": 1,
      "note": 22,
      "start": 63.1953,
      "duration": 0.0951,
      "velocity": 127,
      "chip": "ym2612"
    },
    {
      "channel": 2,
      "note": 75,
      "start": 63.198,
      "duration": 0.0001,
      "velocity": 1,
      "chip": "ym2612"
    },
    {
      "channel": 3,
      "note": 75,
      "start": 63.2011,
      "duration": 0.1128,
      "velocity": 95,
      "chip": "ym2612"
    },
    {
      "channel": 4,
      "note": 58,
      "start": 63.2039,
      "duration": 0.0282,
      "velocity": 127,
      "chip": "ym2612"
    },
    {
      "channel": 2,
      "note": 75,
      "start": 63.3126,
      "duration": 0.0001,
      "velocity": 1,
      "chip": "ym2612"
    },
    {
      "channel": 3,
      "note": 78,
      "start": 63.3156,
      "duration": 0.1229,
      "velocity": 95,
      "chip": "ym2612"
    },
    {
      "channel": 4,
      "note": 58,
      "start": 63.3184,
      "duration": 0.0322,
      "velocity": 127,
      "chip": "ym2612"
    },
    {
      "channel": 0,
      "note": 51,
      "start": 63.4318,
      "duration": 0.0366,
      "velocity": 79,
      "chip": "ym2612"
    },
    {
      "channel": 1,
      "note": 22,
      "start": 63.4345,
      "duration": 0.0948,
      "velocity": 127,
      "chip": "ym2612"
    },
    {
      "channel": 2,
      "note": 75,
      "start": 63.4372,
      "duration": 0.0001,
      "velocity": 1,
      "chip": "ym2612"
    },
    {
      "channel": 3,
      "note": 77,
      "start": 63.4403,
      "duration": 0.1098,
      "velocity": 95,
      "chip": "ym2612"
    },
    {
      "channel": 4,
      "note": 58,
      "start": 63.4431,
      "duration": 0.1267,
      "velocity": 127,
      "chip": "ym2612"
    },
    {
      "channel": 3,
      "note": 73,
      "start": 63.5523,
      "duration": 0.1252,
      "velocity": 95,
      "chip": "ym2612"
    },
    {
      "channel": 0,
      "note": 51,
      "start": 63.6709,
      "duration": 0.0367,
      "velocity": 79,
      "chip": "ym2612"
    },
    {
      "channel": 1,
      "note": 22,
      "start": 63.6736,
      "duration": 0.1151,
      "velocity": 125,
      "chip": "ym2612"
    },
    {
      "channel": 2,
      "note": 75,
      "start": 63.6762,
      "duration": 0.0001,
      "velocity": 1,
      "chip": "ym2612"
    },
    {
      "channel": 4,
      "note": 58,
      "start": 63.68,
      "duration": 0.0306,
      "velocity": 127,
      "chip": "ym2612"
    },
    {
      "channel": 3,
      "note": 78,
      "start": 63.7923,
      "duration": 0.1248,
      "velocity": 95,
      "chip": "ym2612"
    },
    {
      "channel": 4,
      "note": 58,
      "start": 63.7951,
      "duration": 0.034,
      "velocity": 127,
      "chip": "ym2612"
    },
    {
      "channel": 0,
      "note": 63,
      "start": 63.9103,
      "duration": 0.0366,
      "velocity": 79,
      "chip": "ym2612"
    },
    {
      "channel": 1,
      "note": 24,
      "start": 63.913,
      "duration": 0.0952,
      "velocity": 127,
      "chip": "ym2612"
    },
    {
      "channel": 2,
      "note": 75,
      "start": 63.9157,
      "duration": 0.0001,
      "velocity": 1,
      "chip": "ym2612"
    },
    {
      "channel": 3,
      "note": 77,
      "start": 63.9188,
      "duration": 0.1152,
      "velocity": 95,
      "chip": "ym2612"
    },
    {
      "channel": 4,
      "note": 58,
      "start": 63.9216,
      "duration": 0.1271,
      "velocity": 127,
      "chip": "ym2612"
    },
    {
      "channel": 1,
      "note": 22,
      "start": 64.0301,
      "duration": 0.1202,
      "velocity": 125,
      "chip": "ym2612"
    },
    {
      "channel": 2,
      "note": 75,
      "start": 64.0327,
      "duration": 0.0001,
      "velocity": 1,
      "chip": "ym2612"
    },
    {
      "channel": 3,
      "note": 80,
      "start": 64.0358,
      "duration": 0.1179,
      "velocity": 95,
      "chip": "ym2612"
    },
    {
      "channel": 0,
      "note": 63,
      "start": 64.1493,
      "duration": 0.0369,
      "velocity": 79,
      "chip": "ym2612"
    },
    {
      "channel": 1,
      "note": 30,
      "start": 64.152,
      "duration": 0.0957,
      "velocity": 127,
      "chip": "ym2612"
    },
    {
      "channel": 4,
      "note": 58,
      "start": 64.1562,
      "duration": 0.0329,
      "velocity": 127,
      "chip": "ym2612"
    },
    {
      "channel": 0,
      "note": 61,
      "start": 64.269,
      "duration": 0.0367,
      "velocity": 79,
      "chip": "ym2612"
    },
    {
      "channel": 1,
      "note": 22,
      "start": 64.2717,
      "duration": 0.1151,
      "velocity": 125,
      "chip": "ym2612"
    },
    {
      "channel": 2,
      "note": 75,
      "start": 64.2743,
      "duration": 0.0001,
      "velocity": 1,
      "chip": "ym2612"
    },
    {
      "channel": 4,
      "note": 58,
      "start": 64.2779,
      "duration": 0.031,
      "velocity": 127,
      "chip": "ym2612"
    },
    {
      "channel": 1,
      "note": 30,
      "start": 64.389,
      "duration": 0.0972,
      "velocity": 127,
      "chip": "ym2612"
    },
    {
      "channel": 2,
      "note": 75,
      "start": 64.3917,
      "duration": 0.0001,
      "velocity": 1,
      "chip": "ym2612"
    },
    {
      "channel": 4,
      "note": 58,
      "start": 64.3952,
      "duration": 0.1315,
      "velocity": 127,
      "chip": "ym2612"
    },
    {
      "channel": 0,
      "note": 61,
      "start": 64.5076,
      "duration": 0.0374,
      "velocity": 79,
      "chip": "ym2612"
    },
    {
      "channel": 1,
      "note": 22,
      "start": 64.6283,
      "duration": 0.1201,
      "velocity": 125,
      "chip": "ym2612"
    },
    {
      "channel": 2,
      "note": 75,
      "start": 64.631,
      "duration": 0.0001,
      "velocity": 1,
      "chip": "ym2612"
    },
    {
      "channel": 3,
      "note": 82,
      "start": 64.634,
      "duration": 0.1156,
      "velocity": 95,
      "chip": "ym2612"
    },
    {
      "channel": 4,
      "note": 58,
      "start": 64.6368,
      "duration": 0.0305,
      "velocity": 127,
      "chip": "ym2612"
    },
    {
      "channel": 0,
      "note": 61,
      "start": 64.7472,
      "duration": 0.037,
      "velocity": 79,
      "chip": "ym2612"
    },
    {
      "channel": 4,
      "note": 58,
      "start": 64.7521,
      "duration": 0.0341,
      "velocity": 127,
      "chip": "ym2612"
    },
    {
      "channel": 0,
      "note": 56,
      "start": 64.8673,
      "duration": 0.0366,
      "velocity": 79,
      "chip": "ym2612"
    },
    {
      "channel": 1,
      "note": 24,
      "start": 64.87,
      "duration": 0.1149,
      "velocity": 125,
      "chip": "ym2612"
    },
    {
      "channel": 2,
      "note": 75,
      "start": 64.8726,
      "duration": 0.0001,
      "velocity": 1,
      "chip": "ym2612"
    },
    {
      "channel": 3,
      "note": 85,
      "start": 64.8757,
      "duration": 0.1154,
      "velocity": 95,
      "chip": "ym2612"
    },
    {
      "channel": 4,
      "note": 58,
      "start": 64.8785,
      "duration": 0.1275,
      "velocity": 127,
      "chip": "ym2612"
    },
    {
      "channel": 1,
      "note": 30,
      "start": 64.987,
      "duration": 0.0981,
      "velocity": 127,
      "chip": "ym2612"
    },
    {
      "channel": 2,
      "note": 75,
      "start": 64.9898,
      "duration": 0.0001,
      "velocity": 1,
      "chip": "ym2612"
    },
    {
      "channel": 3,
      "note": 80,
      "start": 64.9929,
      "duration": 0.1204,
      "velocity": 95,
      "chip": "ym2612"
    },
    {
      "channel": 0,
      "note": 58,
      "start": 65.1065,
      "duration": 0.0366,
      "velocity": 79,
      "chip": "ym2612"
    },
    {
      "channel": 1,
      "note": 22,
      "start": 65.1092,
      "duration": 0.0951,
      "velocity": 127,
      "chip": "ym2612"
    },
    {
      "channel": 2,
      "note": 74,
      "start": 65.1119,
      "duration": 0.0001,
      "velocity": 1,
      "chip": "ym2612"
    },
    {
      "channel": 3,
      "note": 82,
      "start": 65.115,
      "duration": 0.1128,
      "velocity": 95,
      "chip": "ym2612"
    },
    {
      "channel": 4,
      "note": 58,
      "start": 65.1178,
      "duration": 0.0282,
      "velocity": 127,
      "chip": "ym2612"
    },
    {
      "channel": 2,
      "note": 74,
      "start": 65.2265,
      "duration": 0.0001,
      "velocity": 1,
      "chip": "ym2612"
    },
    {
      "channel": 3,
      "note": 80,
      "start": 65.2296,
      "duration": 0.1229,
      "velocity": 95,
      "chip": "ym2612"
    },
    {
      "channel": 4,
      "note": 58,
      "start": 65.2323,
      "duration": 0.0322,
      "velocity": 127,
      "chip": "ym2612"
    },
    {
      "channel": 0,
      "note": 49,
      "start": 65.3457,
      "duration": 0.0366,
      "velocity": 79,
      "chip": "ym2612"
    },
    {
      "channel": 1,
      "note": 22,
      "start": 65.3484,
      "duration": 0.0948,
      "velocity": 127,
      "chip": "ym2612"
    },
    {
      "channel": 2,
      "note": 74,
      "start": 65.3512,
      "duration": 0.0001,
      "velocity": 1,
      "chip": "ym2612"
    },
    {
      "channel": 3,
      "note": 78,
      "start": 65.3542,
      "duration": 0.1098,
      "velocity": 95,
      "chip": "ym2612"
    },
    {
      "channel": 4,
      "note": 58,
      "start": 65.357,
      "duration": 0.1268,
      "velocity": 127,
      "chip": "ym2612"
    },
    {
      "channel": 3,
      "note": 77,
      "start": 65.4662,
      "duration": 0.1252,
      "velocity": 95,
      "chip": "ym2612"
    },
    {
      "channel": 0,
      "note": 49,
      "start": 65.5848,
      "duration": 0.0368,
      "velocity": 79,
      "chip": "ym2612"
    },
    {
      "channel": 1,
      "note": 22,
      "start": 65.5875,
      "duration": 0.115,
      "velocity": 125,
      "chip": "ym2612"
    },
    {
      "channel": 2,
      "note": 74,
      "start": 65.5901,
      "duration": 0.0001,
      "velocity": 1,
      "chip": "ym2612"
    },
    {
      "channel": 4,
      "note": 58,
      "start": 65.5939,
      "duration": 0.0306,
      "velocity": 127,
      "chip": "ym2612"
    },
    {
      "channel": 4,
      "note": 58,
      "start": 65.7065,
      "duration": 0.0367,
      "velocity": 127,
      "chip": "ym2612"
    },
    {
      "channel": 0,
      "note": 61,
      "start": 65.8241,
      "duration": 0.0367,
      "velocity": 79,
      "chip": "ym2612"
    },
    {
      "channel": 1,
      "note": 24,
      "start": 65.8268,
      "duration": 0.0951,
      "velocity": 127,
      "chip": "ym2612"
    },
    {
      "channel": 2,
      "note": 74,
      "start": 65.8295,
      "duration": 0.0001,
      "velocity": 1,
      "chip": "ym2612"
    },
    {
      "channel": 4,
      "note": 58,
      "start": 65.833,
      "duration": 0.1295,
      "velocity": 127,
      "chip": "ym2612"
    },
    {
      "channel": 1,
      "note": 22,
      "start": 65.9439,
      "duration": 0.1203,
      "velocity": 125,
      "chip": "ym2612"
    },
    {
      "channel": 2,
      "note": 74,
      "start": 65.9465,
      "duration": 0.0001,
      "velocity": 1,
      "chip": "ym2612"
    },
    {
      "channel": 0,
      "note": 61,
      "start": 66.0632,
      "duration": 0.0369,
      "velocity": 79,
      "chip": "ym2612"
    },
    {
      "channel": 1,
      "note": 30,
      "start": 66.0659,
      "duration": 0.0957,
      "velocity": 127,
      "chip": "ym2612"
    },
    {
      "channel": 4,
      "note": 58,
      "start": 66.0699,
      "duration": 0.0331,
      "velocity": 127,
      "chip": "ym2612"
    },
    {
      "channel": 0,
      "note": 61,
      "start": 66.1829,
      "duration": 0.0368,
      "velocity": 79,
      "chip": "ym2612"
    },
    {
      "channel": 1,
      "note": 22,
      "start": 66.1856,
      "duration": 0.1151,
      "velocity": 125,
      "chip": "ym2612"
    },
    {
      "channel": 2,
      "note": 74,
      "start": 66.1882,
      "duration": 0.0001,
      "velocity": 1,
      "chip": "ym2612"
    },
    {
      "channel": 4,
      "note": 58,
      "start": 66.1918,
      "duration": 0.0308,
      "velocity": 127,
      "chip": "ym2612"
    },
    {
      "channel": 1,
      "note": 30,
      "start": 66.3029,
      "duration": 0.0972,
      "velocity": 127,
      "chip": "ym2612"
    },
    {
      "channel": 2,
      "note": 74,
      "start": 66.3056,
      "duration": 0.0001,
      "velocity": 1,
      "chip": "ym2612"
    },
    {
      "channel": 4,
      "note": 58,
      "start": 66.3091,
      "duration": 0.1316,
      "velocity": 127,
      "chip": "ym2612"
    },
    {
      "channel": 0,
      "note": 61,
      "start": 66.4216,
      "duration": 0.0373,
      "velocity": 79,
      "chip": "ym2612"
    },
    {
      "channel": 1,
      "note": 22,
      "start": 66.542,
      "duration": 0.1203,
      "velocity": 125,
      "chip": "ym2612"
    },
    {
      "channel": 4,
      "note": 58,
      "start": 66.5459,
      "duration": 0.0353,
      "velocity": 127,
      "chip": "ym2612"
    },
    {
      "channel": 0,
      "note": 61,
      "start": 66.6612,
      "duration": 0.037,
      "velocity": 79,
      "chip": "ym2612"
    },
    {
      "channel": 4,
      "note": 58,
      "start": 66.6655,
      "duration": 0.0343,
      "velocity": 127,
      "chip": "ym2612"
    },
    {
      "channel": 0,
      "note": 54,
      "start": 66.7812,
      "duration": 0.0366,
      "velocity": 79,
      "chip": "ym2612"
    },
    {
      "channel": 1,
      "note": 24,
      "start": 66.7839,
      "duration": 0.0951,
      "velocity": 127,
      "chip": "ym2612"
    },
    {
      "channel": 2,
      "note": 77,
      "start": 66.7866,
      "duration": 0.0001,
      "velocity": 1,
      "chip": "ym2612"
    },
    {
      "channel": 3,
      "note": 73,
      "start": 66.7897,
      "duration": 0.1154,
      "velocity": 95,
      "chip": "ym2612"
    },
    {
      "channel": 4,
      "note": 58,
      "start": 66.7925,
      "duration": 0.1272,
      "velocity": 127,
      "chip": "ym2612"
    },
    {
      "channel": 1,
      "note": 22,
      "start": 66.901,
      "duration": 0.0982,
      "velocity": 127,
      "chip": "ym2612"
    },
    {
      "channel": 2,
      "note": 74,
      "start": 66.9037,
      "duration": 0.0001,
      "velocity": 1,
      "chip": "ym2612"
    },
    {
      "channel": 3,
      "note": 77,
      "start": 66.9068,
      "duration": 0.1204,
      "velocity": 95,
      "chip": "ym2612"
    },
    {
      "channel": 0,
      "note": 56,
      "start": 67.0204,
      "duration": 0.0366,
      "velocity": 79,
      "chip": "ym2612"
    },
    {
      "channel": 1,
      "note": 22,
      "start": 67.0231,
      "duration": 0.0949,
      "velocity": 127,
      "chip": "ym2612"
    },
    {
      "channel": 2,
      "note": 74,
      "start": 67.0258,
      "duration": 0.0001,
      "velocity": 1,
      "chip": "ym2612"
    },
    {
      "channel": 3,
      "note": 78,
      "start": 67.0289,
      "duration": 0.1126,
      "velocity": 95,
      "chip": "ym2612"
    },
    {
      "channel": 4,
      "note": 58,
      "start": 67.0317,
      "duration": 0.0282,
      "velocity": 127,
      "chip": "ym2612"
    },
    {
      "channel": 2,
      "note": 74,
      "start": 67.1402,
      "duration": 0.0001,
      "velocity": 1,
      "chip": "ym2612"
    },
    {
      "channel": 4,
      "note": 58,
      "start": 67.144,
      "duration": 0.0345,
      "velocity": 127,
      "chip": "ym2612"
    },
    {
      "channel": 0,
      "note": 49,
      "start": 67.2595,
      "duration": 0.0368,
      "velocity": 79,
      "chip": "ym2612"
    },
    {
      "channel": 1,
      "note": 22,
      "start": 67.2622,
      "duration": 0.0947,
      "velocity": 127,
      "chip": "ym2612"
    },
    {
      "channel": 2,
      "note": 74,
      "start": 67.2649,
      "duration": 0.0001,
      "velocity": 1,
      "chip": "ym2612"
    },
    {
      "channel": 4,
      "note": 58,
      "start": 67.2684,
      "duration": 0.1292,
      "velocity": 127,
      "chip": "ym2612"
    },
    {
      "channel": 0,
      "note": 49,
      "start": 67.4989,
      "duration": 0.0366,
      "velocity": 79,
      "chip": "ym2612"
    },
    {
      "channel": 1,
      "note": 22,
      "start": 67.5016,
      "duration": 0.1148,
      "velocity": 125,
      "chip": "ym2612"
    },
    {
      "channel": 2,
      "note": 74,
      "start": 67.5042,
      "duration": 0.0001,
      "velocity": 1,
      "chip": "ym2612"
    },
    {
      "channel": 3,
      "note": 81,
      "start": 67.5073,
      "duration": 0.1109,
      "velocity": 95,
      "chip": "ym2612"
    },
    {
      "channel": 4,
      "note": 58,
      "start": 67.5101,
      "duration": 0.0283,
      "velocity": 127,
      "chip": "ym2612"
    },
    {
      "channel": 4,
      "note": 58,
      "start": 67.6206,
      "duration": 0.0363,
      "velocity": 127,
      "chip": "ym2612"
    },
    {
      "channel": 0,
      "note": 61,
      "start": 67.738,
      "duration": 0.0368,
      "velocity": 79,
      "chip": "ym2612"
    },
    {
      "channel": 1,
      "note": 24,
      "start": 67.7407,
      "duration": 0.0951,
      "velocity": 127,
      "chip": "ym2612"
    },
    {
      "channel": 2,
      "note": 74,
      "start": 67.7434,
      "duration": 0.0001,
      "velocity": 1,
      "chip": "ym2612"
    },
    {
      "channel": 4,
      "note": 58,
      "start": 67.747,
      "duration": 0.1295,
      "velocity": 127,
      "chip": "ym2612"
    },
    {
      "channel": 1,
      "note": 22,
      "start": 67.8578,
      "duration": 0.1205,
      "velocity": 125,
      "chip": "ym2612"
    },
    {
      "channel": 2,
      "note": 74,
      "start": 67.8604,
      "duration": 0.0001,
      "velocity": 1,
      "chip": "ym2612"
    },
    {
      "channel": 0,
      "note": 61,
      "start": 67.9772,
      "duration": 0.0367,
      "velocity": 79,
      "chip": "ym2612"
    },
    {
      "channel": 1,
      "note": 30,
      "start": 67.9799,
      "duration": 0.0958,
      "velocity": 127,
      "chip": "ym2612"
    },
    {
      "channel": 3,
      "note": 83,
      "start": 67.9835,
      "duration": 0.1202,
      "velocity": 95,
      "chip": "ym2612"
    },
    {
      "channel": 4,
      "note": 58,
      "start": 67.9863,
      "duration": 0.0306,
      "velocity": 127,
      "chip": "ym2612"
    },
    {
      "channel": 0,
      "note": 61,
      "start": 68.097,
      "duration": 0.0366,
      "velocity": 79,
      "chip": "ym2612"
    },
    {
      "channel": 1,
      "note": 22,
      "start": 68.0997,
      "duration": 0.1151,
      "velocity": 125,
      "chip": "ym2612"
    },
    {
      "channel": 2,
      "note": 74,
      "start": 68.1023,
      "duration": 0.0001,
      "velocity": 1,
      "chip": "ym2612"
    },
    {
      "channel": 3,
      "note": 80,
      "start": 68.1054,
      "duration": 0.1156,
      "velocity": 95,
      "chip": "ym2612"
    },
    {
      "channel": 4,
      "note": 58,
      "start": 68.1082,
      "duration": 0.0283,
      "velocity": 127,
      "chip": "ym2612"
    },
    {
      "channel": 1,
      "note": 30,
      "start": 68.2169,
      "duration": 0.0971,
      "velocity": 127,
      "chip": "ym2612"
    },
    {
      "channel": 2,
      "note": 74,
      "start": 68.2197,
      "duration": 0.0001,
      "velocity": 1,
      "chip": "ym2612"
    },
    {
      "channel": 3,
      "note": 78,
      "start": 68.2227,
      "duration": 0.1148,
      "velocity": 95,
      "chip": "ym2612"
    },
    {
      "channel": 4,
      "note": 58,
      "start": 68.2255,
      "duration": 0.1291,
      "velocity": 127,
      "chip": "ym2612"
    },
    {
      "channel": 0,
      "note": 61,
      "start": 68.3355,
      "duration": 0.0374,
      "velocity": 79,
      "chip": "ym2612"
    },
    {
      "channel": 1,
      "note": 22,
      "start": 68.4562,
      "duration": 0.1202,
      "velocity": 125,
      "chip": "ym2612"
    },
    {
      "channel": 2,
      "note": 74,
      "start": 68.4588,
      "duration": 0.0001,
      "velocity": 1,
      "chip": "ym2612"
    },
    {
      "channel": 3,
      "note": 77,
      "start": 68.4619,
      "duration": 0.1158,
      "velocity": 95,
      "chip": "ym2612"
    },
    {
      "channel": 4,
      "note": 58,
      "start": 68.4647,
      "duration": 0.0305,
      "velocity": 127,
      "chip": "ym2612"
    },
    {
      "channel": 0,
      "note": 61,
      "start": 68.5752,
      "duration": 0.0369,
      "velocity": 79,
      "chip": "ym2612"
    },
    {
      "channel": 3,
      "note": 80,
      "start": 68.5795,
      "duration": 0.1223,
      "velocity": 95,
      "chip": "ym2612"
    },
    {
      "channel": 4,
      "note": 58,
      "start": 68.5822,
      "duration": 0.0318,
      "velocity": 127,
      "chip": "ym2612"
    },
    {
      "channel": 0,
      "note": 56,
      "start": 68.6951,
      "duration": 0.0366,
      "velocity": 79,
      "chip": "ym2612"
    },
    {
      "channel": 1,
      "note": 24,
      "start": 68.6978,
      "duration": 0.1176,
      "velocity": 125,
      "chip": "ym2612"
    },
    {
      "channel": 2,
      "note": 77,
      "start": 68.7004,
      "duration": 0.0001,
      "velocity": 1,
      "chip": "ym2612"
    },
    {
      "channel": 3,
      "note": 78,
      "start": 68.7035,
      "duration": 0.1175,
      "velocity": 95,
      "chip": "ym2612"
    },
    {
      "channel": 4,
      "note": 58,
      "start": 68.7063,
      "duration": 0.1271,
      "velocity": 127,
      "chip": "ym2612"
    },
    {
      "channel": 0,
      "note": 58,
      "start": 68.8144,
      "duration": 0.0369,
      "velocity": 79,
      "chip": "ym2612"
    },
    {
      "channel": 1,
      "note": 30,
      "start": 68.8171,
      "duration": 0.1182,
      "velocity": 125,
      "chip": "ym2612"
    },
    {
      "channel": 2,
      "note": 77,
      "start": 68.8197,
      "duration": 0.0001,
      "velocity": 1,
      "chip": "ym2612"
    },
    {
      "channel": 0,
      "note": 59,
      "start": 68.9343,
      "duration": 0.0366,
      "velocity": 79,
      "chip": "ym2612"
    },
    {
      "channel": 1,
      "note": 30,
      "start": 68.937,
      "duration": 0.0951,
      "velocity": 127,
      "chip": "ym2612"
    },
    {
      "channel": 2,
      "note": 75,
      "start": 68.9397,
      "duration": 0.0001,
      "velocity": 1,
      "chip": "ym2612"
    },
    {
      "channel": 3,
      "note": 77,
      "start": 68.9428,
      "duration": 0.1128,
      "velocity": 95,
      "chip": "ym2612"
    },
    {
      "channel": 4,
      "note": 58,
      "start": 68.9456,
      "duration": 0.0282,
      "velocity": 127,
      "chip": "ym2612"
    },
    {
      "channel": 2,
      "note": 75,
      "start": 69.0543,
      "duration": 0.0001,
      "velocity": 1,
      "chip": "ym2612"
    },
    {
      "channel": 3,
      "note": 75,
      "start": 69.0574,
      "duration": 0.1229,
      "velocity": 95,
      "chip": "ym2612"
    },
    {
      "channel": 4,
      "note": 58,
      "start": 69.0602,
      "duration": 0.0322,
      "velocity": 127,
      "chip": "ym2612"
    },
    {
      "channel": 0,
      "note": 51,
      "start": 69.1736,
      "duration": 0.0366,
      "velocity": 79,
      "chip": "ym2612"
    },
    {
      "channel": 1,
      "note": 22,
      "start": 69.1762,
      "duration": 0.0948,
      "velocity": 127,
      "chip": "ym2612"
    },
    {
      "channel": 2,
      "note": 75,
      "start": 69.179,
      "duration": 0.0001,
      "velocity": 1,
      "chip": "ym2612"
    },
    {
      "channel": 3,
      "note": 70,
      "start": 69.1821,
      "duration": 0.1098,
      "velocity": 95,
      "chip": "ym2612"
    },
    {
      "channel": 4,
      "note": 58,
      "start": 69.1849,
      "duration": 0.1267,
      "velocity": 127,
      "chip": "ym2612"
    },
    {
      "channel": 3,
      "note": 78,
      "start": 69.2941,
      "duration": 0.1252,
      "velocity": 95,
      "chip": "ym2612"
    },
    {
      "channel": 0,
      "note": 51,
      "start": 69.4127,
      "duration": 0.0368,
      "velocity": 79,
      "chip": "ym2612"
    },
    {
      "channel": 1,
      "note": 22,
      "start": 69.4154,
      "duration": 0.1151,
      "velocity": 125,
      "chip": "ym2612"
    },
    {
      "channel": 2,
      "note": 75,
      "start": 69.418,
      "duration": 0.0001,
      "velocity": 1,
      "chip": "ym2612"
    },
    {
      "channel": 4,
      "note": 58,
      "start": 69.4217,
      "duration": 0.0306,
      "velocity": 127,
      "chip": "ym2612"
    },
    {
      "channel": 3,
      "note": 77,
      "start": 69.534,
      "duration": 0.1248,
      "velocity": 95,
      "chip": "ym2612"
    },
    {
      "channel": 4,
      "note": 58,
      "start": 69.5368,
      "duration": 0.034,
      "velocity": 127,
      "chip": "ym2612"
    },
    {
      "channel": 0,
      "note": 63,
      "start": 69.6521,
      "duration": 0.0366,
      "velocity": 79,
      "chip": "ym2612"
    },
    {
      "channel": 1,
      "note": 24,
      "start": 69.6547,
      "duration": 0.0952,
      "velocity": 127,
      "chip": "ym2612"
    },
    {
      "channel": 2,
      "note": 75,
      "start": 69.6575,
      "duration": 0.0001,
      "velocity": 1,
      "chip": "ym2612"
    },
    {
      "channel": 3,
      "note": 73,
      "start": 69.6606,
      "duration": 0.1152,
      "velocity": 95,
      "chip": "ym2612"
    },
    {
      "channel": 4,
      "note": 58,
      "start": 69.6633,
      "duration": 0.1271,
      "velocity": 127,
      "chip": "ym2612"
    },
    {
      "channel": 1,
      "note": 22,
      "start": 69.7718,
      "duration": 0.1202,
      "velocity": 125,
      "chip": "ym2612"
    },
    {
      "channel": 2,
      "note": 75,
      "start": 69.7744,
      "duration": 0.0001,
      "velocity": 1,
      "chip": "ym2612"
    },
    {
      "channel": 3,
      "note": 70,
      "start": 69.7775,
      "duration": 0.1179,
      "velocity": 95,
      "chip": "ym2612"
    },
    {
      "channel": 0,
      "note": 63,
      "start": 69.891,
      "duration": 0.0369,
      "velocity": 79,
      "chip": "ym2612"
    },
    {
      "channel": 1,
      "note": 30,
      "start": 69.8937,
      "duration": 0.0959,
      "velocity": 127,
      "chip": "ym2612"
    },
    {
      "channel": 4,
      "note": 58,
      "start": 69.8979,
      "duration": 0.0329,
      "velocity": 127,
      "chip": "ym2612"
    },
    {
      "channel": 0,
      "note": 61,
      "start": 70.0109,
      "duration": 0.0366,
      "velocity": 79,
      "chip": "ym2612"
    },
    {
      "channel": 1,
      "note": 22,
      "start": 70.0136,
      "duration": 0.1151,
      "velocity": 125,
      "chip": "ym2612"
    },
    {
      "channel": 2,
      "note": 75,
      "start": 70.0162,
      "duration": 0.0001,
      "velocity": 1,
      "chip": "ym2612"
    },
    {
      "channel": 3,
      "note": 75,
      "start": 70.0193,
      "duration": 0.1156,
      "velocity": 95,
      "chip": "ym2612"
    },
    {
      "channel": 4,
      "note": 58,
      "start": 70.0221,
      "duration": 0.0284,
      "velocity": 127,
      "chip": "ym2612"
    },
    {
      "channel": 1,
      "note": 30,
      "start": 70.1308,
      "duration": 0.0973,
      "velocity": 127,
      "chip": "ym2612"
    },
    {
      "channel": 2,
      "note": 75,
      "start": 70.1336,
      "duration": 0.0001,
      "velocity": 1,
      "chip": "ym2612"
    },
    {
      "channel": 3,
      "note": 70,
      "start": 70.1367,
      "duration": 0.115,
      "velocity": 95,
      "chip": "ym2612"
    },
    {
      "channel": 4,
      "note": 58,
      "start": 70.1394,
      "duration": 0.1291,
      "velocity": 127,
      "chip": "ym2612"
    },
    {
      "channel": 0,
      "note": 61,
      "start": 70.2497,
      "duration": 0.037,
      "velocity": 79,
      "chip": "ym2612"
    },
    {
      "channel": 3,
      "note": 78,
      "start": 70.2534,
      "duration": 0.118,
      "velocity": 95,
      "chip": "ym2612"
    },
    {
      "channel": 1,
      "note": 22,
      "start": 70.3698,
      "duration": 0.1205,
      "velocity": 125,
      "chip": "ym2612"
    },
    {
      "channel": 4,
      "note": 58,
      "start": 70.3739,
      "duration": 0.0351,
      "velocity": 127,
      "chip": "ym2612"
    },
    {
      "channel": 0,
      "note": 61,
      "start": 70.4891,
      "duration": 0.0368,
      "velocity": 79,
      "chip": "ym2612"
    },
    {
      "channel": 3,
      "note": 77,
      "start": 70.493,
      "duration": 0.1227,
      "velocity": 95,
      "chip": "ym2612"
    },
    {
      "channel": 4,
      "note": 58,
      "start": 70.4958,
      "duration": 0.0318,
      "velocity": 127,
      "chip": "ym2612"
    },
    {
      "channel": 0,
      "note": 56,
      "start": 70.609,
      "duration": 0.0366,
      "velocity": 79,
      "chip": "ym2612"
    },
    {
      "channel": 1,
      "note": 24,
      "start": 70.6117,
      "duration": 0.0947,
      "velocity": 127,
      "chip": "ym2612"
    },
    {
      "channel": 2,
      "note": 78,
      "start": 70.6144,
      "duration": 0.0001,
      "velocity": 1,
      "chip": "ym2612"
    },
    {
      "channel": 3,
      "note": 73,
      "start": 70.6175,
      "duration": 0.1124,
      "velocity": 95,
      "chip": "ym2612"
    },
    {
      "channel": 4,
      "note": 58,
      "start": 70.6203,
      "duration": 0.1267,
      "velocity": 127,
      "chip": "ym2612"
    },
    {
      "channel": 2,
      "note": 75,
      "start": 70.7287,
      "duration": 0.0001,
      "velocity": 1,
      "chip": "ym2612"
    },
    {
      "channel": 0,
      "note": 58,
      "start": 70.8483,
      "duration": 0.0366,
      "velocity": 79,
      "chip": "ym2612"
    },
    {
      "channel": 1,
      "note": 22,
      "start": 70.8509,
      "duration": 0.0951,
      "velocity": 127,
      "chip": "ym2612"
    },
    {
      "channel": 2,
      "note": 75,
      "start": 70.8537,
      "duration": 0.0001,
      "velocity": 1,
      "chip": "ym2612"
    },
    {
      "channel": 3,
      "note": 70,
      "start": 70.8567,
      "duration": 0.1128,
      "velocity": 95,
      "chip": "ym2612"
    },
    {
      "channel": 4,
      "note": 58,
      "start": 70.8595,
      "duration": 0.0282,
      "velocity": 127,
      "chip": "ym2612"
    },
    {
      "channel": 2,
      "note": 75,
      "start": 70.9682,
      "duration": 0.0001,
      "velocity": 1,
      "chip": "ym2612"
    },
    {
      "channel": 3,
      "note": 80,
      "start": 70.9713,
      "duration": 0.1229,
      "velocity": 95,
      "chip": "ym2612"
    },
    {
      "channel": 4,
      "note": 58,
      "start": 70.9741,
      "duration": 0.0322,
      "velocity": 127,
      "chip": "ym2612"
    },
    {
      "channel": 0,
      "note": 51,
      "start": 71.0875,
      "duration": 0.0366,
      "velocity": 79,
      "chip": "ym2612"
    },
    {
      "channel": 1,
      "note": 22,
      "start": 71.0902,
      "duration": 0.0948,
      "velocity": 127,
      "chip": "ym2612"
    },
    {
      "channel": 2,
      "note": 75,
      "start": 71.0929,
      "duration": 0.0001,
      "velocity": 1,
      "chip": "ym2612"
    },
    {
      "channel": 3,
      "note": 82,
      "start": 71.096,
      "duration": 0.1098,
      "velocity": 95,
      "chip": "ym2612"
    },
    {
      "channel": 4,
      "note": 58,
      "start": 71.0988,
      "duration": 0.1267,
      "velocity": 127,
      "chip": "ym2612"
    },
    {
      "channel": 3,
      "note": 78,
      "start": 71.208,
      "duration": 0.1252,
      "velocity": 95,
      "chip": "ym2612"
    },
    {
      "channel": 0,
      "note": 51,
      "start": 71.3266,
      "duration": 0.0368,
      "velocity": 79,
      "chip": "ym2612"
    },
    {
      "channel": 1,
      "note": 22,
      "start": 71.3293,
      "duration": 0.1151,
      "velocity": 125,
      "chip": "ym2612"
    },
    {
      "channel": 2,
      "note": 75,
      "start": 71.3319,
      "duration": 0.0001,
      "velocity": 1,
      "chip": "ym2612"
    },
    {
      "channel": 4,
      "note": 58,
      "start": 71.3356,
      "duration": 0.0306,
      "velocity": 127,
      "chip": "ym2612"
    },
    {
      "channel": 3,
      "note": 75,
      "start": 71.4479,
      "duration": 0.1248,
      "velocity": 95,
      "chip": "ym2612"
    },
    {
      "channel": 4,
      "note": 58,
      "start": 71.4507,
      "duration": 0.034,
      "velocity": 127,
      "chip": "ym2612"
    },
    {
      "channel": 0,
      "note": 63,
      "start": 71.566,
      "duration": 0.0366,
      "velocity": 79,
      "chip": "ym2612"
    },
    {
      "channel": 1,
      "note": 24,
      "start": 71.5686,
      "duration": 0.0952,
      "velocity": 127,
      "chip": "ym2612"
    },
    {
      "channel": 2,
      "note": 75,
      "start": 71.5714,
      "duration": 0.0001,
      "velocity": 1,
      "chip": "ym2612"
    },
    {
      "channel": 3,
      "note": 78,
      "start": 71.5745,
      "duration": 0.1152,
      "velocity": 95,
      "chip": "ym2612"
    },
    {
      "channel": 4,
      "note": 58,
      "start": 71.5773,
      "duration": 0.1271,
      "velocity": 127,
      "chip": "ym2612"
    },
    {
      "channel": 1,
      "note": 22,
      "start": 71.6857,
      "duration": 0.1202,
      "velocity": 125,
      "chip": "ym2612"
    },
    {
      "channel": 2,
      "note": 75,
      "start": 71.6884,
      "duration": 0.0001,
      "velocity": 1,
      "chip": "ym2612"
    },
    {
      "channel": 3,
      "note": 75,
      "start": 71.6915,
      "duration": 0.1179,
      "velocity": 95,
      "chip": "ym2612"
    },
    {
      "channel": 0,
      "note": 63,
      "start": 71.8049,
      "duration": 0.0369,
      "velocity": 79,
      "chip": "ym2612"
    },
    {
      "channel": 1,
      "note": 30,
      "start": 71.8076,
      "duration": 0.0957,
      "velocity": 127,
      "chip": "ym2612"
    },
    {
      "channel": 4,
      "note": 58,
      "start": 71.8118,
      "duration": 0.0329,
      "velocity": 127,
      "chip": "ym2612"
    },
    {
      "channel": 0,
      "note": 61,
      "start": 71.9247,
      "duration": 0.0368,
      "velocity": 79,
      "chip": "ym2612"
    },
    {
      "channel": 1,
      "note": 22,
      "start": 71.9274,
      "duration": 0.1152,
      "velocity": 125,
      "chip": "ym2612"
    },
    {
      "channel": 2,
      "note": 75,
      "start": 71.93,
      "duration": 0.0001,
      "velocity": 1,
      "chip": "ym2612"
    },
    {
      "channel": 4,
      "note": 58,
      "start": 71.9335,
      "duration": 0.031,
      "velocity": 127,
      "chip": "ym2612"
    },
    {
      "channel": 1,
      "note": 30,
      "start": 72.0448,
      "duration": 0.0971,
      "velocity": 127,
      "chip": "ym2612"
    },
    {
      "channel": 2,
      "note": 75,
      "start": 72.0475,
      "duration": 0.0001,
      "velocity": 1,
      "chip": "ym2612"
    },
    {
      "channel": 3,
      "note": 83,
      "start": 72.0506,
      "duration": 0.1148,
      "velocity": 95,
      "chip": "ym2612"
    },
    {
      "channel": 4,
      "note": 58,
      "start": 72.0534,
      "duration": 0.1291,
      "velocity": 127,
      "chip": "ym2612"
    },
    {
      "channel": 0,
      "note": 61,
      "start": 72.1633,
      "duration": 0.0373,
      "velocity": 79,
      "chip": "ym2612"
    },
    {
      "channel": 1,
      "note": 22,
      "start": 72.284,
      "duration": 0.12,
      "velocity": 125,
      "chip": "ym2612"
    },
    {
      "channel": 2,
      "note": 75,
      "start": 72.2866,
      "duration": 0.0001,
      "velocity": 1,
      "chip": "ym2612"
    },
    {
      "channel": 3,
      "note": 82,
      "start": 72.2897,
      "duration": 0.1156,
      "velocity": 95,
      "chip": "ym2612"
    },
    {
      "channel": 4,
      "note": 58,
      "start": 72.2925,
      "duration": 0.0305,
      "velocity": 127,
      "chip": "ym2612"
    },
    {
      "channel": 0,
      "note": 61,
      "start": 72.4029,
      "duration": 0.037,
      "velocity": 79,
      "chip": "ym2612"
    },
    {
      "channel": 4,
      "note": 58,
      "start": 72.4078,
      "duration": 0.0341,
      "velocity": 127,
      "chip": "ym2612"
    },
    {
      "channel": 0,
      "note": 56,
      "start": 72.5229,
      "duration": 0.0366,
      "velocity": 79,
      "chip": "ym2612"
    },
    {
      "channel": 1,
      "note": 24,
      "start": 72.5256,
      "duration": 0.1149,
      "velocity": 125,
      "chip": "ym2612"
    },
    {
      "channel": 2,
      "note": 75,
      "start": 72.5282,
      "duration": 0.0001,
      "velocity": 1,
      "chip": "ym2612"
    },
    {
      "channel": 3,
      "note": 80,
      "start": 72.5313,
      "duration": 0.1154,
      "velocity": 95,
      "chip": "ym2612"
    },
    {
      "channel": 4,
      "note": 58,
      "start": 72.5341,
      "duration": 0.1276,
      "velocity": 127,
      "chip": "ym2612"
    },
    {
      "channel": 1,
      "note": 30,
      "start": 72.6427,
      "duration": 0.0982,
      "velocity": 127,
      "chip": "ym2612"
    },
    {
      "channel": 2,
      "note": 75,
      "start": 72.6454,
      "duration": 0.0001,
      "velocity": 1,
      "chip": "ym2612"
    },
    {
      "channel": 3,
      "note": 78,
      "start": 72.6485,
      "duration": 0.1204,
      "velocity": 95,
      "chip": "ym2612"
    },
    {
      "channel": 0,
      "note": 58,
      "start": 72.7622,
      "duration": 0.0366,
      "velocity": 79,
      "chip": "ym2612"
    },
    {
      "channel": 1,
      "note": 22,
      "start": 72.7648,
      "duration": 0.0949,
      "velocity": 127,
      "chip": "ym2612"
    },
    {
      "channel": 2,
      "note": 74,
      "start": 72.7676,
      "duration": 0.0001,
      "velocity": 1,
      "chip": "ym2612"
    },
    {
      "channel": 3,
      "note": 80,
      "start": 72.7707,
      "duration": 0.1126,
      "velocity": 95,
      "chip": "ym2612"
    },
    {
      "channel": 4,
      "note": 58,
      "start": 72.7734,
      "duration": 0.0282,
      "velocity": 127,
      "chip": "ym2612"
    },
    {
      "channel": 2,
      "note": 74,
      "start": 72.882,
      "duration": 0.0001,
      "velocity": 1,
      "chip": "ym2612"
    },
    {
      "channel": 4,
      "note": 58,
      "start": 72.8857,
      "duration": 0.0345,
      "velocity": 127,
      "chip": "ym2612"
    },
    {
      "channel": 0,
      "note": 49,
      "start": 73.0012,
      "duration": 0.0368,
      "velocity": 79,
      "chip": "ym2612"
    },
    {
      "channel": 1,
      "note": 22,
      "start": 73.0039,
      "duration": 0.0947,
      "velocity": 127,
      "chip": "ym2612"
    },
    {
      "channel": 2,
      "note": 74,
      "start": 73.0067,
      "duration": 0.0001,
      "velocity": 1,
      "chip": "ym2612"
    },
    {
      "channel": 4,
      "note": 58,
      "start": 73.0102,
      "duration": 0.1292,
      "velocity": 127,
      "chip": "ym2612"
    },
    {
      "channel": 0,
      "note": 49,
      "start": 73.2405,
      "duration": 0.0367,
      "velocity": 79,
      "chip": "ym2612"
    },
    {
      "channel": 1,
      "note": 22,
      "start": 73.2432,
      "duration": 0.115,
      "velocity": 125,
      "chip": "ym2612"
    },
    {
      "channel": 2,
      "note": 74,
      "start": 73.2458,
      "duration": 0.0001,
      "velocity": 1,
      "chip": "ym2612"
    },
    {
      "channel": 4,
      "note": 58,
      "start": 73.2493,
      "duration": 0.0308,
      "velocity": 127,
      "chip": "ym2612"
    },
    {
      "channel": 4,
      "note": 58,
      "start": 73.3622,
      "duration": 0.0365,
      "velocity": 127,
      "chip": "ym2612"
    },
    {
      "channel": 0,
      "note": 61,
      "start": 73.4797,
      "duration": 0.0368,
      "velocity": 79,
      "chip": "ym2612"
    },
    {
      "channel": 1,
      "note": 24,
      "start": 73.4824,
      "duration": 0.0951,
      "velocity": 127,
      "chip": "ym2612"
    },
    {
      "channel": 2,
      "note": 74,
      "start": 73.4851,
      "duration": 0.0001,
      "velocity": 1,
      "chip": "ym2612"
    },
    {
      "channel": 4,
      "note": 58,
      "start": 73.4887,
      "duration": 0.1295,
      "velocity": 127,
      "chip": "ym2612"
    },
    {
      "channel": 1,
      "note": 22,
      "start": 73.5995,
      "duration": 0.1203,
      "velocity": 125,
      "chip": "ym2612"
    },
    {
      "channel": 2,
      "note": 74,
      "start": 73.6021,
      "duration": 0.0001,
      "velocity": 1,
      "chip": "ym2612"
    },
    {
      "channel": 0,
      "note": 61,
      "start": 73.7188,
      "duration": 0.0369,
      "velocity": 79,
      "chip": "ym2612"
    },
    {
      "channel": 1,
      "note": 30,
      "start": 73.7215,
      "duration": 0.0957,
      "velocity": 127,
      "chip": "ym2612"
    },
    {
      "channel": 4,
      "note": 58,
      "start": 73.7255,
      "duration": 0.0331,
      "velocity": 127,
      "chip": "ym2612"
    },
    {
      "channel": 0,
      "note": 61,
      "start": 73.8386,
      "duration": 0.0368,
      "velocity": 79,
      "chip": "ym2612"
    },
    {
      "channel": 1,
      "note": 22,
      "start": 73.8413,
      "duration": 0.1151,
      "velocity": 125,
      "chip": "ym2612"
    },
    {
      "channel": 2,
      "note": 74,
      "start": 73.8439,
      "duration": 0.0001,
      "velocity": 1,
      "chip": "ym2612"
    },
    {
      "channel": 4,
      "note": 58,
      "start": 73.8474,
      "duration": 0.0308,
      "velocity": 127,
      "chip": "ym2612"
    },
    {
      "channel": 1,
      "note": 30,
      "start": 73.9585,
      "duration": 0.0972,
      "velocity": 127,
      "chip": "ym2612"
    },
    {
      "channel": 2,
      "note": 74,
      "start": 73.9612,
      "duration": 0.0001,
      "velocity": 1,
      "chip": "ym2612"
    },
    {
      "channel": 4,
      "note": 58,
      "start": 73.9648,
      "duration": 0.1316,
      "velocity": 127,
      "chip": "ym2612"
    },
    {
      "channel": 0,
      "note": 61,
      "start": 74.0772,
      "duration": 0.0374,
      "velocity": 79,
      "chip": "ym2612"
    },
    {
      "channel": 1,
      "note": 22,
      "start": 74.1976,
      "duration": 0.1203,
      "velocity": 125,
      "chip": "ym2612"
    },
    {
      "channel": 4,
      "note": 58,
      "start": 74.2015,
      "duration": 0.0353,
      "velocity": 127,
      "chip": "ym2612"
    },
    {
      "channel": 0,
      "note": 61,
      "start": 74.3168,
      "duration": 0.037,
      "velocity": 79,
      "chip": "ym2612"
    },
    {
      "channel": 4,
      "note": 58,
      "start": 74.3211,
      "duration": 0.0343,
      "velocity": 127,
      "chip": "ym2612"
    },
    {
      "channel": 0,
      "note": 54,
      "start": 74.4367,
      "duration": 0.0368,
      "velocity": 79,
      "chip": "ym2612"
    },
    {
      "channel": 1,
      "note": 24,
      "start": 74.4394,
      "duration": 0.0951,
      "velocity": 127,
      "chip": "ym2612"
    },
    {
      "channel": 2,
      "note": 77,
      "start": 74.4421,
      "duration": 0.0001,
      "velocity": 1,
      "chip": "ym2612"
    },
    {
      "channel": 4,
      "note": 58,
      "start": 74.4456,
      "duration": 0.1296,
      "velocity": 127,
      "chip": "ym2612"
    },
    {
      "channel": 1,
      "note": 22,
      "start": 74.5565,
      "duration": 0.0983,
      "velocity": 127,
      "chip": "ym2612"
    },
    {
      "channel": 2,
      "note": 74,
      "start": 74.5592,
      "duration": 0.0001,
      "velocity": 1,
      "chip": "ym2612"
    },
    {
      "channel": 0,
      "note": 56,
      "start": 74.6761,
      "duration": 0.0366,
      "velocity": 79,
      "chip": "ym2612"
    },
    {
      "channel": 1,
      "note": 22,
      "start": 74.6788,
      "duration": 0.0949,
      "velocity": 127,
      "chip": "ym2612"
    },
    {
      "channel": 2,
      "note": 74,
      "start": 74.6815,
      "duration": 0.0001,
      "velocity": 1,
      "chip": "ym2612"
    },
    {
      "channel": 3,
      "note": 76,
      "start": 74.6846,
      "duration": 0.1126,
      "velocity": 95,
      "chip": "ym2612"
    },
    {
      "channel": 4,
      "note": 58,
      "start": 74.6873,
      "duration": 0.0282,
      "velocity": 127,
      "chip": "ym2612"
    },
    {
      "channel": 2,
      "note": 74,
      "start": 74.7959,
      "duration": 0.0001,
      "velocity": 1,
      "chip": "ym2612"
    },
    {
      "channel": 4,
      "note": 58,
      "start": 74.7996,
      "duration": 0.0345,
      "velocity": 127,
      "chip": "ym2612"
    },
    {
      "channel": 0,
      "note": 49,
      "start": 74.9152,
      "duration": 0.0368,
      "velocity": 79,
      "chip": "ym2612"
    },
    {
      "channel": 1,
      "note": 22,
      "start": 74.9178,
      "duration": 0.0947,
      "velocity": 127,
      "chip": "ym2612"
    },
    {
      "channel": 2,
      "note": 74,
      "start": 74.9206,
      "duration": 0.0001,
      "velocity": 1,
      "chip": "ym2612"
    },
    {
      "channel": 4,
      "note": 58,
      "start": 74.9241,
      "duration": 0.1292,
      "velocity": 127,
      "chip": "ym2612"
    },
    {
      "channel": 0,
      "note": 49,
      "start": 75.1546,
      "duration": 0.0366,
      "velocity": 79,
      "chip": "ym2612"
    },
    {
      "channel": 1,
      "note": 22,
      "start": 75.1572,
      "duration": 0.1149,
      "velocity": 125,
      "chip": "ym2612"
    },
    {
      "channel": 2,
      "note": 74,
      "start": 75.1599,
      "duration": 0.0001,
      "velocity": 1,
      "chip": "ym2612"
    },
    {
      "channel": 3,
      "note": 74,
      "start": 75.1629,
      "duration": 0.1109,
      "velocity": 95,
      "chip": "ym2612"
    },
    {
      "channel": 4,
      "note": 58,
      "start": 75.1657,
      "duration": 0.0283,
      "velocity": 127,
      "chip": "ym2612"
    },
    {
      "channel": 4,
      "note": 58,
      "start": 75.2763,
      "duration": 0.0363,
      "velocity": 127,
      "chip": "ym2612"
    },
    {
      "channel": 0,
      "note": 61,
      "start": 75.3937,
      "duration": 0.0367,
      "velocity": 79,
      "chip": "ym2612"
    },
    {
      "channel": 1,
      "note": 24,
      "start": 75.3963,
      "duration": 0.0951,
      "velocity": 127,
      "chip": "ym2612"
    },
    {
      "channel": 2,
      "note": 74,
      "start": 75.3991,
      "duration": 0.0001,
      "velocity": 1,
      "chip": "ym2612"
    },
    {
      "channel": 4,
      "note": 58,
      "start": 75.4026,
      "duration": 0.1295,
      "velocity": 127,
      "chip": "ym2612"
    },
    {
      "channel": 1,
      "note": 22,
      "start": 75.5134,
      "duration": 0.1205,
      "velocity": 125,
      "chip": "ym2612"
    },
    {
      "channel": 2,
      "note": 74,
      "start": 75.5161,
      "duration": 0.0001,
      "velocity": 1,
      "chip": "ym2612"
    },
    {
      "channel": 0,
      "note": 61,
      "start": 75.6329,
      "duration": 0.0367,
      "velocity": 79,
      "chip": "ym2612"
    },
    {
      "channel": 1,
      "note": 30,
      "start": 75.6356,
      "duration": 0.0956,
      "velocity": 127,
      "chip": "ym2612"
    },
    {
      "channel": 3,
      "note": 76,
      "start": 75.6391,
      "duration": 0.12,
      "velocity": 95,
      "chip": "ym2612"
    },
    {
      "channel": 4,
      "note": 58,
      "start": 75.6419,
      "duration": 0.0306,
      "velocity": 127,
      "chip": "ym2612"
    },
    {
      "channel": 0,
      "note": 61,
      "start": 75.7525,
      "duration": 0.0368,
      "velocity": 79,
      "chip": "ym2612"
    },
    {
      "channel": 1,
      "note": 22,
      "start": 75.7552,
      "duration": 0.1151,
      "velocity": 125,
      "chip": "ym2612"
    },
    {
      "channel": 2,
      "note": 74,
      "start": 75.7578,
      "duration": 0.0001,
      "velocity": 1,
      "chip": "ym2612"
    },
    {
      "channel": 4,
      "note": 58,
      "start": 75.7615,
      "duration": 0.0306,
      "velocity": 127,
      "chip": "ym2612"
    },
    {
      "channel": 1,
      "note": 30,
      "start": 75.8724,
      "duration": 0.0972,
      "velocity": 127,
      "chip": "ym2612"
    },
    {
      "channel": 2,
      "note": 74,
      "start": 75.8752,
      "duration": 0.0001,
      "velocity": 1,
      "chip": "ym2612"
    },
    {
      "channel": 4,
      "note": 58,
      "start": 75.8787,
      "duration": 0.1316,
      "velocity": 127,
      "chip": "ym2612"
    },
    {
      "channel": 0,
      "note": 61,
      "start": 75.9911,
      "duration": 0.0374,
      "velocity": 79,
      "chip": "ym2612"
    },
    {
      "channel": 1,
      "note": 22,
      "start": 76.1118,
      "duration": 0.1202,
      "velocity": 125,
      "chip": "ym2612"
    },
    {
      "channel": 2,
      "note": 74,
      "start": 76.1144,
      "duration": 0.0001,
      "velocity": 1,
      "chip": "ym2612"
    },
    {
      "channel": 3,
      "note": 79,
      "start": 76.1175,
      "duration": 0.1158,
      "velocity": 95,
      "chip": "ym2612"
    },
    {
      "channel": 4,
      "note": 58,
      "start": 76.1203,
      "duration": 0.0305,
      "velocity": 127,
      "chip": "ym2612"
    },
    {
      "channel": 0,
      "note": 61,
      "start": 76.2309,
      "duration": 0.0369,
      "velocity": 79,
      "chip": "ym2612"
    },
    {
      "channel": 3,
      "note": 77,
      "start": 76.2351,
      "duration": 0.1223,
      "velocity": 95,
      "chip": "ym2612"
    },
    {
      "channel": 4,
      "note": 58,
      "start": 76.2379,
      "duration": 0.0318,
      "velocity": 127,
      "chip": "ym2612"
    },
    {
      "channel": 0,
      "note": 56,
      "start": 76.3507,
      "duration": 0.0366,
      "velocity": 79,
      "chip": "ym2612"
    },
    {
      "channel": 1,
      "note": 24,
      "start": 76.3534,
      "duration": 0.1176,
      "velocity": 125,
      "chip": "ym2612"
    },
    {
      "channel": 2,
      "note": 77,
      "start": 76.3561,
      "duration": 0.0001,
      "velocity": 1,
      "chip": "ym2612"
    },
    {
      "channel": 3,
      "note": 73,
      "start": 76.3592,
      "duration": 0.1175,
      "velocity": 95,
      "chip": "ym2612"
    },
    {
      "channel": 4,
      "note": 58,
      "start": 76.362,
      "duration": 0.1271,
      "velocity": 127,
      "chip": "ym2612"
    },
    {
      "channel": 0,
      "note": 58,
      "start": 76.4701,
      "duration": 0.0369,
      "velocity": 79,
      "chip": "ym2612"
    },
    {
      "channel": 1,
      "note": 30,
      "start": 76.4727,
      "duration": 0.1182,
      "velocity": 125,
      "chip": "ym2612"
    },
    {
      "channel": 2,
      "note": 77,
      "start": 76.4754,
      "duration": 0.0001,
      "velocity": 1,
      "chip": "ym2612"
    },
    {
      "channel": 0,
      "note": 59,
      "start": 76.59,
      "duration": 0.0366,
      "velocity": 79,
      "chip": "ym2612"
    },
    {
      "channel": 1,
      "note": 30,
      "start": 76.5927,
      "duration": 0.0949,
      "velocity": 127,
      "chip": "ym2612"
    },
    {
      "channel": 2,
      "note": 72,
      "start": 76.5954,
      "duration": 0.0001,
      "velocity": 1,
      "chip": "ym2612"
    },
    {
      "channel": 3,
      "note": 70,
      "start": 76.5985,
      "duration": 0.1126,
      "velocity": 95,
      "chip": "ym2612"
    },
    {
      "channel": 4,
      "note": 58,
      "start": 76.6013,
      "duration": 0.0282,
      "velocity": 127,
      "chip": "ym2612"
    },
    {
      "channel": 2,
      "note": 72,
      "start": 76.7098,
      "duration": 0.0001,
      "velocity": 1,
      "chip": "ym2612"
    },
    {
      "channel": 4,
      "note": 58,
      "start": 76.7135,
      "duration": 0.0345,
      "velocity": 127,
      "chip": "ym2612"
    },
    {
      "channel": 0,
      "note": 47,
      "start": 76.8291,
      "duration": 0.0367,
      "velocity": 79,
      "chip": "ym2612"
    },
    {
      "channel": 1,
      "note": 22,
      "start": 76.8317,
      "duration": 0.0947,
      "velocity": 127,
      "chip": "ym2612"
    },
    {
      "channel": 2,
      "note": 72,
      "start": 76.8345,
      "duration": 0.0001,
      "velocity": 1,
      "chip": "ym2612"
    },
    {
      "channel": 4,
      "note": 58,
      "start": 76.838,
      "duration": 0.1292,
      "velocity": 127,
      "chip": "ym2612"
    },
    {
      "channel": 0,
      "note": 47,
      "start": 77.0683,
      "duration": 0.0368,
      "velocity": 79,
      "chip": "ym2612"
    },
    {
      "channel": 1,
      "note": 22,
      "start": 77.071,
      "duration": 0.115,
      "velocity": 125,
      "chip": "ym2612"
    },
    {
      "channel": 2,
      "note": 72,
      "start": 77.0736,
      "duration": 0.0001,
      "velocity": 1,
      "chip": "ym2612"
    },
    {
      "channel": 4,
      "note": 58,
      "start": 77.0772,
      "duration": 0.0308,
      "velocity": 127,
      "chip": "ym2612"
    },
    {
      "channel": 4,
      "note": 58,
      "start": 77.19,
      "duration": 0.0365,
      "velocity": 127,
      "chip": "ym2612"
    },
    {
      "channel": 0,
      "note": 59,
      "start": 77.3076,
      "duration": 0.0368,
      "velocity": 79,
      "chip": "ym2612"
    },
    {
      "channel": 1,
      "note": 24,
      "start": 77.3102,
      "duration": 0.0951,
      "velocity": 127,
      "chip": "ym2612"
    },
    {
      "channel": 2,
      "note": 72,
      "start": 77.313,
      "duration": 0.0001,
      "velocity": 1,
      "chip": "ym2612"
    },
    {
      "channel": 4,
      "note": 58,
      "start": 77.3165,
      "duration": 0.1295,
      "velocity": 127,
      "chip": "ym2612"
    },
    {
      "channel": 1,
      "note": 22,
      "start": 77.4273,
      "duration": 0.1203,
      "velocity": 125,
      "chip": "ym2612"
    },
    {
      "channel": 2,
      "note": 72,
      "start": 77.43,
      "duration": 0.0001,
      "velocity": 1,
      "chip": "ym2612"
    },
    {
      "channel": 0,
      "note": 59,
      "start": 77.5467,
      "duration": 0.0369,
      "velocity": 79,
      "chip": "ym2612"
    },
    {
      "channel": 1,
      "note": 30,
      "start": 77.5493,
      "duration": 0.0957,
      "velocity": 127,
      "chip": "ym2612"
    },
    {
      "channel": 4,
      "note": 58,
      "start": 77.5534,
      "duration": 0.0331,
      "velocity": 127,
      "chip": "ym2612"
    },
    {
      "channel": 0,
      "note": 59,
      "start": 77.6664,
      "duration": 0.0368,
      "velocity": 79,
      "chip": "ym2612"
    },
    {
      "channel": 1,
      "note": 22,
      "start": 77.6691,
      "duration": 0.1151,
      "velocity": 125,
      "chip": "ym2612"
    },
    {
      "channel": 2,
      "note": 72,
      "start": 77.6717,
      "duration": 0.0001,
      "velocity": 1,
      "chip": "ym2612"
    },
    {
      "channel": 4,
      "note": 58,
      "start": 77.6753,
      "duration": 0.0308,
      "velocity": 127,
      "chip": "ym2612"
    },
    {
      "channel": 1,
      "note": 30,
      "start": 77.7863,
      "duration": 0.0972,
      "velocity": 127,
      "chip": "ym2612"
    },
    {
      "channel": 2,
      "note": 72,
      "start": 77.7891,
      "duration": 0.0001,
      "velocity": 1,
      "chip": "ym2612"
    },
    {
      "channel": 4,
      "note": 58,
      "start": 77.7926,
      "duration": 0.1316,
      "velocity": 127,
      "chip": "ym2612"
    },
    {
      "channel": 0,
      "note": 59,
      "start": 77.9051,
      "duration": 0.0373,
      "velocity": 79,
      "chip": "ym2612"
    },
    {
      "channel": 1,
      "note": 22,
      "start": 78.0256,
      "duration": 0.1202,
      "velocity": 125,
      "chip": "ym2612"
    },
    {
      "channel": 2,
      "note": 72,
      "start": 78.0282,
      "duration": 0.0001,
      "velocity": 1,
      "chip": "ym2612"
    },
    {
      "channel": 4,
      "note": 58,
      "start": 78.0317,
      "duration": 0.033,
      "velocity": 127,
      "chip": "ym2612"
    },
    {
      "channel": 0,
      "note": 59,
      "start": 78.1446,
      "duration": 0.037,
      "velocity": 79,
      "chip": "ym2612"
    },
    {
      "channel": 4,
      "note": 58,
      "start": 78.1493,
      "duration": 0.0343,
      "velocity": 127,
      "chip": "ym2612"
    },
    {
      "channel": 0,
      "note": 54,
      "start": 78.2647,
      "duration": 0.0366,
      "velocity": 79,
      "chip": "ym2612"
    },
    {
      "channel": 1,
      "note": 24,
      "start": 78.2673,
      "duration": 0.0949,
      "velocity": 127,
      "chip": "ym2612"
    },
    {
      "channel": 2,
      "note": 72,
      "start": 78.2701,
      "duration": 0.0001,
      "velocity": 1,
      "chip": "ym2612"
    },
    {
      "channel": 3,
      "note": 73,
      "start": 78.2732,
      "duration": 0.1127,
      "velocity": 95,
      "chip": "ym2612"
    },
    {
      "channel": 4,
      "note": 58,
      "start": 78.276,
      "duration": 0.1267,
      "velocity": 127,
      "chip": "ym2612"
    },
    {
      "channel": 2,
      "note": 72,
      "start": 78.3845,
      "duration": 0.0001,
      "velocity": 1,
      "chip": "ym2612"
    },
    {
      "channel": 3,
      "note": 73,
      "start": 78.3876,
      "duration": 0.1231,
      "velocity": 95,
      "chip": "ym2612"
    },
    {
      "channel": 0,
      "note": 56,
      "start": 78.5039,
      "duration": 0.0366,
      "velocity": 79,
      "chip": "ym2612"
    },
    {
      "channel": 1,
      "note": 22,
      "start": 78.5066,
      "duration": 0.0949,
      "velocity": 127,
      "chip": "ym2612"
    },
    {
      "channel": 2,
      "note": 72,
      "start": 78.5093,
      "duration": 0.0001,
      "velocity": 1,
      "chip": "ym2612"
    },
    {
      "channel": 3,
      "note": 75,
      "start": 78.5124,
      "duration": 0.1126,
      "velocity": 95,
      "chip": "ym2612"
    },
    {
      "channel": 4,
      "note": 58,
      "start": 78.5152,
      "duration": 0.0282,
      "velocity": 127,
      "chip": "ym2612"
    },
    {
      "channel": 2,
      "note": 72,
      "start": 78.6237,
      "duration": 0.0001,
      "velocity": 1,
      "chip": "ym2612"
    },
    {
      "channel": 4,
      "note": 58,
      "start": 78.6275,
      "duration": 0.0345,
      "velocity": 127,
      "chip": "ym2612"
    },
    {
      "channel": 0,
      "note": 47,
      "start": 78.743,
      "duration": 0.0368,
      "velocity": 79,
      "chip": "ym2612"
    },
    {
      "channel": 1,
      "note": 22,
      "start": 78.7457,
      "duration": 0.0947,
      "velocity": 127,
      "chip": "ym2612"
    },
    {
      "channel": 2,
      "note": 72,
      "start": 78.7484,
      "duration": 0.0001,
      "velocity": 1,
      "chip": "ym2612"
    },
    {
      "channel": 4,
      "note": 58,
      "start": 78.7519,
      "duration": 0.1292,
      "velocity": 127,
      "chip": "ym2612"
    },
    {
      "channel": 0,
      "note": 47,
      "start": 78.9824,
      "duration": 0.0366,
      "velocity": 79,
      "chip": "ym2612"
    },
    {
      "channel": 1,
      "note": 22,
      "start": 78.9851,
      "duration": 0.1148,
      "velocity": 125,
      "chip": "ym2612"
    },
    {
      "channel": 2,
      "note": 72,
      "start": 78.9877,
      "duration": 0.0001,
      "velocity": 1,
      "chip": "ym2612"
    },
    {
      "channel": 3,
      "note": 79,
      "start": 78.9908,
      "duration": 0.1109,
      "velocity": 95,
      "chip": "ym2612"
    },
    {
      "channel": 4,
      "note": 58,
      "start": 78.9936,
      "duration": 0.0283,
      "velocity": 127,
      "chip": "ym2612"
    },
    {
      "channel": 4,
      "note": 58,
      "start": 79.1041,
      "duration": 0.0363,
      "velocity": 127,
      "chip": "ym2612"
    },
    {
      "channel": 0,
      "note": 59,
      "start": 79.2215,
      "duration": 0.0368,
      "velocity": 79,
      "chip": "ym2612"
    },
    {
      "channel": 1,
      "note": 24,
      "start": 79.2241,
      "duration": 0.0951,
      "velocity": 127,
      "chip": "ym2612"
    },
    {
      "channel": 2,
      "note": 72,
      "start": 79.2269,
      "duration": 0.0001,
      "velocity": 1,
      "chip": "ym2612"
    },
    {
      "channel": 4,
      "note": 58,
      "start": 79.2304,
      "duration": 0.1295,
      "velocity": 127,
      "chip": "ym2612"
    },
    {
      "channel": 1,
      "note": 22,
      "start": 79.3412,
      "duration": 0.1205,
      "velocity": 125,
      "chip": "ym2612"
    },
    {
      "channel": 2,
      "note": 72,
      "start": 79.3439,
      "duration": 0.0001,
      "velocity": 1,
      "chip": "ym2612"
    },
    {
      "channel": 0,
      "note": 59,
      "start": 79.4607,
      "duration": 0.0367,
      "velocity": 79,
      "chip": "ym2612"
    },
    {
      "channel": 1,
      "note": 30,
      "start": 79.4634,
      "duration": 0.0958,
      "velocity": 127,
      "chip": "ym2612"
    },
    {
      "channel": 3,
      "note": 81,
      "start": 79.467,
      "duration": 0.1202,
      "velocity": 95,
      "chip": "ym2612"
    },
    {
      "channel": 4,
      "note": 58,
      "start": 79.4698,
      "duration": 0.0306,
      "velocity": 127,
      "chip": "ym2612"
    },
    {
      "channel": 0,
      "note": 59,
      "start": 79.5805,
      "duration": 0.0366,
      "velocity": 79,
      "chip": "ym2612"
    },
    {
      "channel": 1,
      "note": 22,
      "start": 79.5832,
      "duration": 0.1151,
      "velocity": 125,
      "chip": "ym2612"
    },
    {
      "channel": 2,
      "note": 72,
      "start": 79.5858,
      "duration": 0.0001,
      "velocity": 1,
      "chip": "ym2612"
    },
    {
      "channel": 3,
      "note": 78,
      "start": 79.5889,
      "duration": 0.1156,
      "velocity": 95,
      "chip": "ym2612"
    },
    {
      "channel": 4,
      "note": 58,
      "start": 79.5917,
      "duration": 0.0284,
      "velocity": 127,
      "chip": "ym2612"
    },
    {
      "channel": 1,
      "note": 30,
      "start": 79.7004,
      "duration": 0.0971,
      "velocity": 127,
      "chip": "ym2612"
    },
    {
      "channel": 2,
      "note": 72,
      "start": 79.7032,
      "duration": 0.0001,
      "velocity": 1,
      "chip": "ym2612"
    },
    {
      "channel": 3,
      "note": 77,
      "start": 79.7062,
      "duration": 0.1148,
      "velocity": 95,
      "chip": "ym2612"
    },
    {
      "channel": 4,
      "note": 58,
      "start": 79.709,
      "duration": 0.1291,
      "velocity": 127,
      "chip": "ym2612"
    },
    {
      "channel": 0,
      "note": 59,
      "start": 79.819,
      "duration": 0.0374,
      "velocity": 79,
      "chip": "ym2612"
    },
    {
      "channel": 1,
      "note": 22,
      "start": 79.9397,
      "duration": 0.1202,
      "velocity": 125,
      "chip": "ym2612"
    },
    {
      "channel": 2,
      "note": 72,
      "start": 79.9423,
      "duration": 0.0001,
      "velocity": 1,
      "chip": "ym2612"
    },
    {
      "channel": 3,
      "note": 78,
      "start": 79.9454,
      "duration": 0.118,
      "velocity": 95,
      "chip": "ym2612"
    },
    {
      "channel": 4,
      "note": 58,
      "start": 79.9481,
      "duration": 0.0304,
      "velocity": 127,
      "chip": "ym2612"
    },
    {
      "channel": 0,
      "note": 59,
      "start": 80.0587,
      "duration": 0.0369,
      "velocity": 79,
      "chip": "ym2612"
    },
    {
      "channel": 2,
      "note": 72,
      "start": 80.0621,
      "duration": 0.0001,
      "velocity": 1,
      "chip": "ym2612"
    },
    {
      "channel": 4,
      "note": 58,
      "start": 80.0658,
      "duration": 0.0318,
      "velocity": 127,
      "chip": "ym2612"
    },
    {
      "channel": 0,
      "note": 54,
      "start": 80.1786,
      "duration": 0.0366,
      "velocity": 79,
      "chip": "ym2612"
    },
    {
      "channel": 1,
      "note": 24,
      "start": 80.1813,
      "duration": 0.1178,
      "velocity": 125,
      "chip": "ym2612"
    },
    {
      "channel": 2,
      "note": 72,
      "start": 80.1839,
      "duration": 0.0001,
      "velocity": 1,
      "chip": "ym2612"
    },
    {
      "channel": 3,
      "note": 77,
      "start": 80.187,
      "duration": 0.1178,
      "velocity": 95,
      "chip": "ym2612"
    },
    {
      "channel": 4,
      "note": 58,
      "start": 80.1898,
      "duration": 0.1273,
      "velocity": 127,
      "chip": "ym2612"
    },
    {
      "channel": 0,
      "note": 56,
      "start": 80.298,
      "duration": 0.0368,
      "velocity": 79,
      "chip": "ym2612"
    },
    {
      "channel": 1,
      "note": 30,
      "start": 80.3007,
      "duration": 0.0959,
      "velocity": 127,
      "chip": "ym2612"
    },
    {
      "channel": 2,
      "note": 72,
      "start": 80.3034,
      "duration": 0.0001,
      "velocity": 1,
      "chip": "ym2612"
    },
    {
      "channel": 3,
      "note": 73,
      "start": 80.3066,
      "duration": 0.118,
      "velocity": 95,
      "chip": "ym2612"
    },
    {
      "channel": 0,
      "note": 58,
      "start": 80.4178,
      "duration": 0.0366,
      "velocity": 79,
      "chip": "ym2612"
    },
    {
      "channel": 1,
      "note": 22,
      "start": 80.4205,
      "duration": 0.0949,
      "velocity": 127,
      "chip": "ym2612"
    },
    {
      "channel": 2,
      "note": 74,
      "start": 80.4232,
      "duration": 0.0001,
      "velocity": 1,
      "chip": "ym2612"
    },
    {
      "channel": 3,
      "note": 75,
      "start": 80.4263,
      "duration": 0.1126,
      "velocity": 95,
      "chip": "ym2612"
    },
    {
      "channel": 4,
      "note": 58,
      "start": 80.4291,
      "duration": 0.0282,
      "velocity": 127,
      "chip": "ym2612"
    },
    {
      "channel": 2,
      "note": 74,
      "start": 80.5376,
      "duration": 0.0001,
      "velocity": 1,
      "chip": "ym2612"
    },
    {
      "channel": 4,
      "note": 58,
      "start": 80.5414,
      "duration": 0.0345,
      "velocity": 127,
      "chip": "ym2612"
    },
    {
      "channel": 0,
      "note": 49,
      "start": 80.6569,
      "duration": 0.0367,
      "velocity": 79,
      "chip": "ym2612"
    },
    {
      "channel": 1,
      "note": 22,
      "start": 80.6596,
      "duration": 0.0946,
      "velocity": 127,
      "chip": "ym2612"
    },
    {
      "channel": 2,
      "note": 74,
      "start": 80.6623,
      "duration": 0.0001,
      "velocity": 1,
      "chip": "ym2612"
    },
    {
      "channel": 4,
      "note": 58,
      "start": 80.6659,
      "duration": 0.1292,
      "velocity": 127,
      "chip": "ym2612"
    },
    {
      "channel": 0,
      "note": 49,
      "start": 80.8961,
      "duration": 0.0367,
      "velocity": 79,
      "chip": "ym2612"
    },
    {
      "channel": 1,
      "note": 22,
      "start": 80.8988,
      "duration": 0.115,
      "velocity": 125,
      "chip": "ym2612"
    },
    {
      "channel": 2,
      "note": 74,
      "start": 80.9015,
      "duration": 0.0001,
      "velocity": 1,
      "chip": "ym2612"
    },
    {
      "channel": 4,
      "note": 58,
      "start": 80.905,
      "duration": 0.0308,
      "velocity": 127,
      "chip": "ym2612"
    },
    {
      "channel": 4,
      "note": 58,
      "start": 81.0178,
      "duration": 0.0365,
      "velocity": 127,
      "chip": "ym2612"
    },
    {
      "channel": 0,
      "note": 61,
      "start": 81.1355,
      "duration": 0.0366,
      "velocity": 79,
      "chip": "ym2612"
    },
    {
      "channel": 1,
      "note": 24,
      "start": 81.1382,
      "duration": 0.095,
      "velocity": 127,
      "chip": "ym2612"
    },
    {
      "channel": 2,
      "note": 74,
      "start": 81.1409,
      "duration": 0.0001,
      "velocity": 1,
      "chip": "ym2612"
    },
    {
      "channel": 3,
      "note": 72,
      "start": 81.144,
      "duration": 0.115,
      "velocity": 95,
      "chip": "ym2612"
    },
    {
      "channel": 4,
      "note": 58,
      "start": 81.1468,
      "duration": 0.127,
      "velocity": 127,
      "chip": "ym2612"
    },
    {
      "channel": 1,
      "note": 22,
      "start": 81.2551,
      "duration": 0.1203,
      "velocity": 125,
      "chip": "ym2612"
    },
    {
      "channel": 2,
      "note": 74,
      "start": 81.2578,
      "duration": 0.0001,
      "velocity": 1,
      "chip": "ym2612"
    },
    {
      "channel": 0,
      "note": 61,
      "start": 81.3745,
      "duration": 0.0369,
      "velocity": 79,
      "chip": "ym2612"
    },
    {
      "channel": 1,
      "note": 30,
      "start": 81.3772,
      "duration": 0.0957,
      "velocity": 127,
      "chip": "ym2612"
    },
    {
      "channel": 4,
      "note": 58,
      "start": 81.3812,
      "duration": 0.0333,
      "velocity": 127,
      "chip": "ym2612"
    },
    {
      "channel": 0,
      "note": 61,
      "start": 81.4942,
      "duration": 0.0367,
      "velocity": 79,
      "chip": "ym2612"
    },
    {
      "channel": 1,
      "note": 22,
      "start": 81.4969,
      "duration": 0.1151,
      "velocity": 125,
      "chip": "ym2612"
    },
    {
      "channel": 2,
      "note": 74,
      "start": 81.4995,
      "duration": 0.0001,
      "velocity": 1,
      "chip": "ym2612"
    },
    {
      "channel": 4,
      "note": 58,
      "start": 81.5031,
      "duration": 0.0308,
      "velocity": 127,
      "chip": "ym2612"
    },
    {
      "channel": 1,
      "note": 30,
      "start": 81.6142,
      "duration": 0.0972,
      "velocity": 127,
      "chip": "ym2612"
    },
    {
      "channel": 2,
      "note": 74,
      "start": 81.6169,
      "duration": 0.0001,
      "velocity": 1,
      "chip": "ym2612"
    },
    {
      "channel": 4,
      "note": 58,
      "start": 81.6205,
      "duration": 0.1316,
      "velocity": 127,
      "chip": "ym2612"
    },
    {
      "channel": 0,
      "note": 61,
      "start": 81.7329,
      "duration": 0.0374,
      "velocity": 79,
      "chip": "ym2612"
    },
    {
      "channel": 1,
      "note": 22,
      "start": 81.8534,
      "duration": 0.1202,
      "velocity": 125,
      "chip": "ym2612"
    },
    {
      "channel": 2,
      "note": 74,
      "start": 81.856,
      "duration": 0.0001,
      "velocity": 1,
      "chip": "ym2612"
    },
    {
      "channel": 4,
      "note": 58,
      "start": 81.8596,
      "duration": 0.033,
      "velocity": 127,
      "chip": "ym2612"
    },
    {
      "channel": 0,
      "note": 61,
      "start": 81.9724,
      "duration": 0.037,
      "velocity": 79,
      "chip": "ym2612"
    },
    {
      "channel": 4,
      "note": 58,
      "start": 81.9771,
      "duration": 0.0343,
      "velocity": 127,
      "chip": "ym2612"
    },
    {
      "channel": 0,
      "note": 54,
      "start": 82.0923,
      "duration": 0.0367,
      "velocity": 79,
      "chip": "ym2612"
    },
    {
      "channel": 1,
      "note": 24,
      "start": 82.095,
      "duration": 0.0951,
      "velocity": 127,
      "chip": "ym2612"
    },
    {
      "channel": 2,
      "note": 74,
      "start": 82.0978,
      "duration": 0.0001,
      "velocity": 1,
      "chip": "ym2612"
    },
    {
      "channel": 4,
      "note": 58,
      "start": 82.1013,
      "duration": 0.1299,
      "velocity": 127,
      "chip": "ym2612"
    },
    {
      "channel": 1,
      "note": 22,
      "start": 82.2121,
      "duration": 0.0983,
      "velocity": 127,
      "chip": "ym2612"
    },
    {
      "channel": 2,
      "note": 74,
      "start": 82.2148,
      "duration": 0.0001,
      "velocity": 1,
      "chip": "ym2612"
    },
    {
      "channel": 0,
      "note": 56,
      "start": 82.3317,
      "duration": 0.0366,
      "velocity": 79,
      "chip": "ym2612"
    },
    {
      "channel": 1,
      "note": 22,
      "start": 82.3344,
      "duration": 0.0951,
      "velocity": 127,
      "chip": "ym2612"
    },
    {
      "channel": 2,
      "note": 74,
      "start": 82.3371,
      "duration": 0.0001,
      "velocity": 1,
      "chip": "ym2612"
    },
    {
      "channel": 3,
      "note": 82,
      "start": 82.3402,
      "duration": 0.1128,
      "velocity": 95,
      "chip": "ym2612"
    },
    {
      "channel": 4,
      "note": 58,
      "start": 82.343,
      "duration": 0.0282,
      "velocity": 127,
      "chip": "ym2612"
    },
    {
      "channel": 2,
      "note": 74,
      "start": 82.4517,
      "duration": 0.0001,
      "velocity": 1,
      "chip": "ym2612"
    },
    {
      "channel": 3,
      "note": 78,
      "start": 82.4548,
      "duration": 0.1229,
      "velocity": 95,
      "chip": "ym2612"
    },
    {
      "channel": 4,
      "note": 58,
      "start": 82.4576,
      "duration": 0.0322,
      "velocity": 127,
      "chip": "ym2612"
    },
    {
      "channel": 0,
      "note": 49,
      "start": 82.571,
      "duration": 0.0366,
      "velocity": 79,
      "chip": "ym2612"
    },
    {
      "channel": 1,
      "note": 22,
      "start": 82.5736,
      "duration": 0.0945,
      "velocity": 127,
      "chip": "ym2612"
    },
    {
      "channel": 2,
      "note": 74,
      "start": 82.5764,
      "duration": 0.0001,
      "velocity": 1,
      "chip": "ym2612"
    },
    {
      "channel": 3,
      "note": 77,
      "start": 82.5795,
      "duration": 0.1096,
      "velocity": 95,
      "chip": "ym2612"
    },
    {
      "channel": 4,
      "note": 58,
      "start": 82.5822,
      "duration": 0.1267,
      "velocity": 127,
      "chip": "ym2612"
    },
    {
      "channel": 0,
      "note": 49,
      "start": 82.8102,
      "duration": 0.0366,
      "velocity": 79,
      "chip": "ym2612"
    },
    {
      "channel": 1,
      "note": 22,
      "start": 82.8129,
      "duration": 0.115,
      "velocity": 125,
      "chip": "ym2612"
    },
    {
      "channel": 2,
      "note": 74,
      "start": 82.8155,
      "duration": 0.0001,
      "velocity": 1,
      "chip": "ym2612"
    },
    {
      "channel": 3,
      "note": 78,
      "start": 82.8186,
      "duration": 0.1111,
      "velocity": 95,
      "chip": "ym2612"
    },
    {
      "channel": 4,
      "note": 58,
      "start": 82.8214,
      "duration": 0.0283,
      "velocity": 127,
      "chip": "ym2612"
    },
    {
      "channel": 3,
      "note": 77,
      "start": 82.9314,
      "duration": 0.1248,
      "velocity": 95,
      "chip": "ym2612"
    },
    {
      "channel": 4,
      "note": 58,
      "start": 82.9342,
      "duration": 0.034,
      "velocity": 127,
      "chip": "ym2612"
    },
    {
      "channel": 0,
      "note": 61,
      "start": 83.0494,
      "duration": 0.0366,
      "velocity": 79,
      "chip": "ym2612"
    },
    {
      "channel": 1,
      "note": 24,
      "start": 83.0521,
      "duration": 0.095,
      "velocity": 127,
      "chip": "ym2612"
    },
    {
      "channel": 2,
      "note": 74,
      "start": 83.0549,
      "duration": 0.0001,
      "velocity": 1,
      "chip": "ym2612"
    },
    {
      "channel": 3,
      "note": 75,
      "start": 83.0579,
      "duration": 0.115,
      "velocity": 95,
      "chip": "ym2612"
    },
    {
      "channel": 4,
      "note": 58,
      "start": 83.0607,
      "duration": 0.127,
      "velocity": 127,
      "chip": "ym2612"
    },
    {
      "channel": 1,
      "note": 22,
      "start": 83.169,
      "duration": 0.1205,
      "velocity": 125,
      "chip": "ym2612"
    },
    {
      "channel": 2,
      "note": 74,
      "start": 83.1717,
      "duration": 0.0001,
      "velocity": 1,
      "chip": "ym2612"
    },
    {
      "channel": 0,
      "note": 61,
      "start": 83.2885,
      "duration": 0.0367,
      "velocity": 79,
      "chip": "ym2612"
    },
    {
      "channel": 1,
      "note": 30,
      "start": 83.2912,
      "duration": 0.0958,
      "velocity": 127,
      "chip": "ym2612"
    },
    {
      "channel": 3,
      "note": 77,
      "start": 83.2948,
      "duration": 0.1202,
      "velocity": 95,
      "chip": "ym2612"
    },
    {
      "channel": 4,
      "note": 58,
      "start": 83.2976,
      "duration": 0.0306,
      "velocity": 127,
      "chip": "ym2612"
    },
    {
      "channel": 0,
      "note": 61,
      "start": 83.4083,
      "duration": 0.0366,
      "velocity": 79,
      "chip": "ym2612"
    },
    {
      "channel": 1,
      "note": 22,
      "start": 83.411,
      "duration": 0.1151,
      "velocity": 125,
      "chip": "ym2612"
    },
    {
      "channel": 2,
      "note": 74,
      "start": 83.4136,
      "duration": 0.0001,
      "velocity": 1,
      "chip": "ym2612"
    },
    {
      "channel": 3,
      "note": 75,
      "start": 83.4167,
      "duration": 0.1156,
      "velocity": 95,
      "chip": "ym2612"
    },
    {
      "channel": 4,
      "note": 58,
      "start": 83.4195,
      "duration": 0.0283,
      "velocity": 127,
      "chip": "ym2612"
    },
    {
      "channel": 1,
      "note": 30,
      "start": 83.5282,
      "duration": 0.0971,
      "velocity": 127,
      "chip": "ym2612"
    },
    {
      "channel": 2,
      "note": 74,
      "start": 83.531,
      "duration": 0.0001,
      "velocity": 1,
      "chip": "ym2612"
    },
    {
      "channel": 3,
      "note": 73,
      "start": 83.5341,
      "duration": 0.1148,
      "velocity": 95,
      "chip": "ym2612"
    },
    {
      "channel": 4,
      "note": 58,
      "start": 83.5368,
      "duration": 0.1291,
      "velocity": 127,
      "chip": "ym2612"
    },
    {
      "channel": 0,
      "note": 61,
      "start": 83.6468,
      "duration": 0.0373,
      "velocity": 79,
      "chip": "ym2612"
    },
    {
      "channel": 1,
      "note": 22,
      "start": 83.7675,
      "duration": 0.1202,
      "velocity": 125,
      "chip": "ym2612"
    },
    {
      "channel": 2,
      "note": 75,
      "start": 83.7701,
      "duration": 0.0001,
      "velocity": 1,
      "chip": "ym2612"
    },
    {
      "channel": 3,
      "note": 75,
      "start": 83.7732,
      "duration": 0.1158,
      "velocity": 95,
      "chip": "ym2612"
    },
    {
      "channel": 4,
      "note": 58,
      "start": 83.776,
      "duration": 0.0305,
      "velocity": 127,
      "chip": "ym2612"
    },
    {
      "channel": 0,
      "note": 61,
      "start": 83.8865,
      "duration": 0.0369,
      "velocity": 79,
      "chip": "ym2612"
    },
    {
      "channel": 3,
      "note": 73,
      "start": 83.8907,
      "duration": 0.1223,
      "velocity": 95,
      "chip": "ym2612"
    },
    {
      "channel": 4,
      "note": 58,
      "start": 83.8935,
      "duration": 0.0318,
      "velocity": 127,
      "chip": "ym2612"
    },
    {
      "channel": 0,
      "note": 54,
      "start": 84.0064,
      "duration": 0.0366,
      "velocity": 79,
      "chip": "ym2612"
    },
    {
      "channel": 1,
      "note": 24,
      "start": 84.0091,
      "duration": 0.1178,
      "velocity": 125,
      "chip": "ym2612"
    },
    {
      "channel": 2,
      "note": 75,
      "start": 84.0117,
      "duration": 0.0001,
      "velocity": 1,
      "chip": "ym2612"
    },
    {
      "channel": 3,
      "note": 75,
      "start": 84.0148,
      "duration": 0.1177,
      "velocity": 95,
      "chip": "ym2612"
    },
    {
      "channel": 4,
      "note": 58,
      "start": 84.0176,
      "duration": 0.1271,
      "velocity": 127,
      "chip": "ym2612"
    },
    {
      "channel": 0,
      "note": 56,
      "start": 84.1259,
      "duration": 0.0368,
      "velocity": 79,
      "chip": "ym2612"
    },
    {
      "channel": 1,
      "note": 30,
      "start": 84.1285,
      "duration": 0.1181,
      "velocity": 125,
      "chip": "ym2612"
    },
    {
      "channel": 2,
      "note": 74,
      "start": 84.1312,
      "duration": 0.0001,
      "velocity": 1,
      "chip": "ym2612"
    },
    {
      "channel": 3,
      "note": 78,
      "start": 84.1342,
      "duration": 0.1181,
      "velocity": 95,
      "chip": "ym2612"
    },
    {
      "channel": 0,
      "note": 58,
      "start": 84.2456,
      "duration": 0.0366,
      "velocity": 79,
      "chip": "ym2612"
    },
    {
      "channel": 1,
      "note": 30,
      "start": 84.2483,
      "duration": 0.0951,
      "velocity": 127,
      "chip": "ym2612"
    },
    {
      "channel": 2,
      "note": 72,
      "start": 84.251,
      "duration": 0.0001,
      "velocity": 1,
      "chip": "ym2612"
    },
    {
      "channel": 3,
      "note": 77,
      "start": 84.2541,
      "duration": 0.1128,
      "velocity": 95,
      "chip": "ym2612"
    },
    {
      "channel": 4,
      "note": 58,
      "start": 84.2569,
      "duration": 0.0282,
      "velocity": 127,
      "chip": "ym2612"
    },
    {
      "channel": 2,
      "note": 72,
      "start": 84.3656,
      "duration": 0.0001,
      "velocity": 1,
      "chip": "ym2612"
    },
    {
      "channel": 3,
      "note": 82,
      "start": 84.3687,
      "duration": 0.1229,
      "velocity": 95,
      "chip": "ym2612"
    },
    {
      "channel": 4,
      "note": 58,
      "start": 84.3715,
      "duration": 0.0322,
      "velocity": 127,
      "chip": "ym2612"
    },
    {
      "channel": 0,
      "note": 47,
      "start": 84.4849,
      "duration": 0.0366,
      "velocity": 79,
      "chip": "ym2612"
    },
    {
      "channel": 1,
      "note": 22,
      "start": 84.4876,
      "duration": 0.0945,
      "velocity": 127,
      "chip": "ym2612"
    },
    {
      "channel": 2,
      "note": 72,
      "start": 84.4903,
      "duration": 0.0001,
      "velocity": 1,
      "chip": "ym2612"
    },
    {
      "channel": 3,
      "note": 78,
      "start": 84.4934,
      "duration": 0.1096,
      "velocity": 95,
      "chip": "ym2612"
    },
    {
      "channel": 4,
      "note": 58,
      "start": 84.4961,
      "duration": 0.1267,
      "velocity": 127,
      "chip": "ym2612"
    },
    {
      "channel": 0,
      "note": 47,
      "start": 84.724,
      "duration": 0.0368,
      "velocity": 79,
      "chip": "ym2612"
    },
    {
      "channel": 1,
      "note": 22,
      "start": 84.7266,
      "duration": 0.115,
      "velocity": 125,
      "chip": "ym2612"
    },
    {
      "channel": 2,
      "note": 72,
      "start": 84.7293,
      "duration": 0.0001,
      "velocity": 1,
      "chip": "ym2612"
    },
    {
      "channel": 4,
      "note": 58,
      "start": 84.7328,
      "duration": 0.031,
      "velocity": 127,
      "chip": "ym2612"
    },
    {
      "channel": 4,
      "note": 58,
      "start": 84.8456,
      "duration": 0.0365,
      "velocity": 127,
      "chip": "ym2612"
    },
    {
      "channel": 0,
      "note": 59,
      "start": 84.9632,
      "duration": 0.0368,
      "velocity": 79,
      "chip": "ym2612"
    },
    {
      "channel": 1,
      "note": 24,
      "start": 84.9659,
      "duration": 0.0951,
      "velocity": 127,
      "chip": "ym2612"
    },
    {
      "channel": 2,
      "note": 72,
      "start": 84.9686,
      "duration": 0.0001,
      "velocity": 1,
      "chip": "ym2612"
    },
    {
      "channel": 4,
      "note": 58,
      "start": 84.9722,
      "duration": 0.1295,
      "velocity": 127,
      "chip": "ym2612"
    },
    {
      "channel": 1,
      "note": 22,
      "start": 85.083,
      "duration": 0.1203,
      "velocity": 125,
      "chip": "ym2612"
    },
    {
      "channel": 2,
      "note": 72,
      "start": 85.0856,
      "duration": 0.0001,
      "velocity": 1,
      "chip": "ym2612"
    },
    {
      "channel": 0,
      "note": 59,
      "start": 85.2023,
      "duration": 0.0369,
      "velocity": 79,
      "chip": "ym2612"
    },
    {
      "channel": 1,
      "note": 30,
      "start": 85.205,
      "duration": 0.0957,
      "velocity": 127,
      "chip": "ym2612"
    },
    {
      "channel": 4,
      "note": 58,
      "start": 85.209,
      "duration": 0.0331,
      "velocity": 127,
      "chip": "ym2612"
    },
    {
      "channel": 0,
      "note": 59,
      "start": 85.3221,
      "duration": 0.0368,
      "velocity": 79,
      "chip": "ym2612"
    },
    {
      "channel": 1,
      "note": 22,
      "start": 85.3247,
      "duration": 0.1151,
      "velocity": 125,
      "chip": "ym2612"
    },
    {
      "channel": 2,
      "note": 72,
      "start": 85.3274,
      "duration": 0.0001,
      "velocity": 1,
      "chip": "ym2612"
    },
    {
      "channel": 4,
      "note": 58,
      "start": 85.3309,
      "duration": 0.0308,
      "velocity": 127,
      "chip": "ym2612"
    },
    {
      "channel": 1,
      "note": 30,
      "start": 85.442,
      "duration": 0.0972,
      "velocity": 127,
      "chip": "ym2612"
    },
    {
      "channel": 2,
      "note": 72,
      "start": 85.4447,
      "duration": 0.0001,
      "velocity": 1,
      "chip": "ym2612"
    },
    {
      "channel": 4,
      "note": 58,
      "start": 85.4483,
      "duration": 0.1316,
      "velocity": 127,
      "chip": "ym2612"
    },
    {
      "channel": 0,
      "note": 59,
      "start": 85.5607,
      "duration": 0.0374,
      "velocity": 79,
      "chip": "ym2612"
    },
    {
      "channel": 1,
      "note": 22,
      "start": 85.6812,
      "duration": 0.1203,
      "velocity": 125,
      "chip": "ym2612"
    },
    {
      "channel": 2,
      "note": 72,
      "start": 85.6839,
      "duration": 0.0001,
      "velocity": 1,
      "chip": "ym2612"
    },
    {
      "channel": 4,
      "note": 58,
      "start": 85.6874,
      "duration": 0.0329,
      "velocity": 127,
      "chip": "ym2612"
    },
    {
      "channel": 0,
      "note": 59,
      "start": 85.8004,
      "duration": 0.0369,
      "velocity": 79,
      "chip": "ym2612"
    },
    {
      "channel": 3,
      "note": 75,
      "start": 85.8046,
      "duration": 0.1224,
      "velocity": 95,
      "chip": "ym2612"
    },
    {
      "channel": 4,
      "note": 58,
      "start": 85.8074,
      "duration": 0.0318,
      "velocity": 127,
      "chip": "ym2612"
    },
    {
      "channel": 0,
      "note": 54,
      "start": 85.9203,
      "duration": 0.0366,
      "velocity": 79,
      "chip": "ym2612"
    },
    {
      "channel": 1,
      "note": 24,
      "start": 85.923,
      "duration": 0.0949,
      "velocity": 127,
      "chip": "ym2612"
    },
    {
      "channel": 2,
      "note": 72,
      "start": 85.9257,
      "duration": 0.0001,
      "velocity": 1,
      "chip": "ym2612"
    },
    {
      "channel": 3,
      "note": 75,
      "start": 85.9288,
      "duration": 0.1127,
      "velocity": 95,
      "chip": "ym2612"
    },
    {
      "channel": 4,
      "note": 58,
      "start": 85.9316,
      "duration": 0.1267,
      "velocity": 127,
      "chip": "ym2612"
    },
    {
      "channel": 2,
      "note": 72,
      "start": 86.0401,
      "duration": 0.0001,
      "velocity": 1,
      "chip": "ym2612"
    },
    {
      "channel": 3,
      "note": 78,
      "start": 86.0432,
      "duration": 0.1231,
      "velocity": 95,
      "chip": "ym2612"
    },
    {
      "channel": 0,
      "note": 56,
      "start": 86.1595,
      "duration": 0.0366,
      "velocity": 79,
      "chip": "ym2612"
    },
    {
      "channel": 1,
      "note": 22,
      "start": 86.1622,
      "duration": 0.0949,
      "velocity": 127,
      "chip": "ym2612"
    },
    {
      "channel": 2,
      "note": 72,
      "start": 86.1649,
      "duration": 0.0001,
      "velocity": 1,
      "chip": "ym2612"
    },
    {
      "channel": 3,
      "note": 75,
      "start": 86.168,
      "duration": 0.1126,
      "velocity": 95,
      "chip": "ym2612"
    },
    {
      "channel": 4,
      "note": 58,
      "start": 86.1708,
      "duration": 0.0282,
      "velocity": 127,
      "chip": "ym2612"
    },
    {
      "channel": 2,
      "note": 72,
      "start": 86.2794,
      "duration": 0.0001,
      "velocity": 1,
      "chip": "ym2612"
    },
    {
      "channel": 4,
      "note": 58,
      "start": 86.2831,
      "duration": 0.0345,
      "velocity": 127,
      "chip": "ym2612"
    },
    {
      "channel": 0,
      "note": 47,
      "start": 86.3986,
      "duration": 0.0368,
      "velocity": 79,
      "chip": "ym2612"
    },
    {
      "channel": 1,
      "note": 22,
      "start": 86.4013,
      "duration": 0.0947,
      "velocity": 127,
      "chip": "ym2612"
    },
    {
      "channel": 2,
      "note": 72,
      "start": 86.404,
      "duration": 0.0001,
      "velocity": 1,
      "chip": "ym2612"
    },
    {
      "channel": 4,
      "note": 58,
      "start": 86.4076,
      "duration": 0.1292,
      "velocity": 127,
      "chip": "ym2612"
    },
    {
      "channel": 0,
      "note": 47,
      "start": 86.638,
      "duration": 0.0366,
      "velocity": 79,
      "chip": "ym2612"
    },
    {
      "channel": 1,
      "note": 22,
      "start": 86.6407,
      "duration": 0.1149,
      "velocity": 125,
      "chip": "ym2612"
    },
    {
      "channel": 2,
      "note": 72,
      "start": 86.6433,
      "duration": 0.0001,
      "velocity": 1,
      "chip": "ym2612"
    },
    {
      "channel": 3,
      "note": 84,
      "start": 86.6464,
      "duration": 0.1109,
      "velocity": 95,
      "chip": "ym2612"
    },
    {
      "channel": 4,
      "note": 58,
      "start": 86.6492,
      "duration": 0.0283,
      "velocity": 127,
      "chip": "ym2612"
    },
    {
      "channel": 4,
      "note": 58,
      "start": 86.7598,
      "duration": 0.0363,
      "velocity": 127,
      "chip": "ym2612"
    },
    {
      "channel": 0,
      "note": 59,
      "start": 86.8771,
      "duration": 0.0368,
      "velocity": 79,
      "chip": "ym2612"
    },
    {
      "channel": 1,
      "note": 24,
      "start": 86.8798,
      "duration": 0.0951,
      "velocity": 127,
      "chip": "ym2612"
    },
    {
      "channel": 2,
      "note": 72,
      "start": 86.8825,
      "duration": 0.0001,
      "velocity": 1,
      "chip": "ym2612"
    },
    {
      "channel": 4,
      "note": 58,
      "start": 86.8861,
      "duration": 0.1295,
      "velocity": 127,
      "chip": "ym2612"
    },
    {
      "channel": 1,
      "note": 22,
      "start": 86.9969,
      "duration": 0.1205,
      "velocity": 125,
      "chip": "ym2612"
    },
    {
      "channel": 2,
      "note": 72,
      "start": 86.9995,
      "duration": 0.0001,
      "velocity": 1,
      "chip": "ym2612"
    },
    {
      "channel": 0,
      "note": 59,
      "start": 87.1164,
      "duration": 0.0367,
      "velocity": 79,
      "chip": "ym2612"
    },
    {
      "channel": 1,
      "note": 30,
      "start": 87.119,
      "duration": 0.0958,
      "velocity": 127,
      "chip": "ym2612"
    },
    {
      "channel": 3,
      "note": 83,
      "start": 87.1226,
      "duration": 0.1202,
      "velocity": 95,
      "chip": "ym2612"
    },
    {
      "channel": 4,
      "note": 58,
      "start": 87.1254,
      "duration": 0.0306,
      "velocity": 127,
      "chip": "ym2612"
    },
    {
      "channel": 0,
      "note": 59,
      "start": 87.2361,
      "duration": 0.0366,
      "velocity": 79,
      "chip": "ym2612"
    },
    {
      "channel": 1,
      "note": 22,
      "start": 87.2388,
      "duration": 0.1151,
      "velocity": 125,
      "chip": "ym2612"
    },
    {
      "channel": 2,
      "note": 72,
      "start": 87.2414,
      "duration": 0.0001,
      "velocity": 1,
      "chip": "ym2612"
    },
    {
      "channel": 3,
      "note": 80,
      "start": 87.2445,
      "duration": 0.1156,
      "velocity": 95,
      "chip": "ym2612"
    },
    {
      "channel": 4,
      "note": 58,
      "start": 87.2473,
      "duration": 0.0283,
      "velocity": 127,
      "chip": "ym2612"
    },
    {
      "channel": 1,
      "note": 30,
      "start": 87.3561,
      "duration": 0.0971,
      "velocity": 127,
      "chip": "ym2612"
    },
    {
      "channel": 2,
      "note": 72,
      "start": 87.3588,
      "duration": 0.0001,
      "velocity": 1,
      "chip": "ym2612"
    },
    {
      "channel": 3,
      "note": 82,
      "start": 87.3619,
      "duration": 0.1148,
      "velocity": 95,
      "chip": "ym2612"
    },
    {
      "channel": 4,
      "note": 58,
      "start": 87.3647,
      "duration": 0.1291,
      "velocity": 127,
      "chip": "ym2612"
    },
    {
      "channel": 0,
      "note": 59,
      "start": 87.4746,
      "duration": 0.0374,
      "velocity": 79,
      "chip": "ym2612"
    },
    {
      "channel": 1,
      "note": 22,
      "start": 87.5953,
      "duration": 0.1203,
      "velocity": 125,
      "chip": "ym2612"
    },
    {
      "channel": 2,
      "note": 72,
      "start": 87.5979,
      "duration": 0.0001,
      "velocity": 1,
      "chip": "ym2612"
    },
    {
      "channel": 3,
      "note": 83,
      "start": 87.601,
      "duration": 0.1182,
      "velocity": 95,
      "chip": "ym2612"
    },
    {
      "channel": 4,
      "note": 58,
      "start": 87.6038,
      "duration": 0.0305,
      "velocity": 127,
      "chip": "ym2612"
    },
    {
      "channel": 0,
      "note": 59,
      "start": 87.7145,
      "duration": 0.0367,
      "velocity": 79,
      "chip": "ym2612"
    },
    {
      "channel": 2,
      "note": 72,
      "start": 87.7179,
      "duration": 0.0001,
      "velocity": 1,
      "chip": "ym2612"
    },
    {
      "channel": 3,
      "note": 83,
      "start": 87.721,
      "duration": 0.1199,
      "velocity": 95,
      "chip": "ym2612"
    },
    {
      "channel": 4,
      "note": 58,
      "start": 87.7238,
      "duration": 0.0295,
      "velocity": 127,
      "chip": "ym2612"
    },
    {
      "channel": 0,
      "note": 54,
      "start": 87.8342,
      "duration": 0.0366,
      "velocity": 79,
      "chip": "ym2612"
    },
    {
      "channel": 1,
      "note": 24,
      "start": 87.8369,
      "duration": 0.1178,
      "velocity": 125,
      "chip": "ym2612"
    },
    {
      "channel": 2,
      "note": 72,
      "start": 87.8395,
      "duration": 0.0001,
      "velocity": 1,
      "chip": "ym2612"
    },
    {
      "channel": 3,
      "note": 82,
      "start": 87.8426,
      "duration": 0.1178,
      "velocity": 95,
      "chip": "ym2612"
    },
    {
      "channel": 4,
      "note": 58,
      "start": 87.8454,
      "duration": 0.1273,
      "velocity": 127,
      "chip": "ym2612"
    },
    {
      "channel": 0,
      "note": 56,
      "start": 87.9537,
      "duration": 0.0368,
      "velocity": 79,
      "chip": "ym2612"
    },
    {
      "channel": 1,
      "note": 30,
      "start": 87.9564,
      "duration": 0.0959,
      "velocity": 127,
      "chip": "ym2612"
    },
    {
      "channel": 2,
      "note": 72,
      "start": 87.9591,
      "duration": 0.0001,
      "velocity": 1,
      "chip": "ym2612"
    },
    {
      "channel": 3,
      "note": 80,
      "start": 87.9622,
      "duration": 0.118,
      "velocity": 95,
      "chip": "ym2612"
    },
    {
      "channel": 0,
      "note": 58,
      "start": 88.0735,
      "duration": 0.0366,
      "velocity": 79,
      "chip": "ym2612"
    },
    {
      "channel": 1,
      "note": 22,
      "start": 88.0761,
      "duration": 0.0949,
      "velocity": 127,
      "chip": "ym2612"
    },
    {
      "channel": 2,
      "note": 74,
      "start": 88.0789,
      "duration": 0.0001,
      "velocity": 1,
      "chip": "ym2612"
    },
    {
      "channel": 3,
      "note": 78,
      "start": 88.082,
      "duration": 0.1126,
      "velocity": 95,
      "chip": "ym2612"
    },
    {
      "channel": 4,
      "note": 58,
      "start": 88.0848,
      "duration": 0.0282,
      "velocity": 127,
      "chip": "ym2612"
    },
    {
      "channel": 2,
      "note": 74,
      "start": 88.1933,
      "duration": 0.0001,
      "velocity": 1,
      "chip": "ym2612"
    },
    {
      "channel": 4,
      "note": 58,
      "start": 88.197,
      "duration": 0.0345,
      "velocity": 127,
      "chip": "ym2612"
    },
    {
      "channel": 0,
      "note": 49,
      "start": 88.3126,
      "duration": 0.0367,
      "velocity": 79,
      "chip": "ym2612"
    },
    {
      "channel": 1,
      "note": 22,
      "start": 88.3152,
      "duration": 0.0947,
      "velocity": 127,
      "chip": "ym2612"
    },
    {
      "channel": 2,
      "note": 74,
      "start": 88.318,
      "duration": 0.0001,
      "velocity": 1,
      "chip": "ym2612"
    },
    {
      "channel": 4,
      "note": 58,
      "start": 88.3215,
      "duration": 0.1292,
      "velocity": 127,
      "chip": "ym2612"
    },
    {
      "channel": 0,
      "note": 49,
      "start": 88.5518,
      "duration": 0.0368,
      "velocity": 79,
      "chip": "ym2612"
    },
    {
      "channel": 1,
      "note": 22,
      "start": 88.5545,
      "duration": 0.115,
      "velocity": 125,
      "chip": "ym2612"
    },
    {
      "channel": 2,
      "note": 74,
      "start": 88.5571,
      "duration": 0.0001,
      "velocity": 1,
      "chip": "ym2612"
    },
    {
      "channel": 4,
      "note": 58,
      "start": 88.5607,
      "duration": 0.0308,
      "velocity": 127,
      "chip": "ym2612"
    },
    {
      "channel": 4,
      "note": 58,
      "start": 88.6735,
      "duration": 0.0365,
      "velocity": 127,
      "chip": "ym2612"
    },
    {
      "channel": 0,
      "note": 61,
      "start": 88.791,
      "duration": 0.0367,
      "velocity": 79,
      "chip": "ym2612"
    },
    {
      "channel": 1,
      "note": 24,
      "start": 88.7937,
      "duration": 0.0951,
      "velocity": 127,
      "chip": "ym2612"
    },
    {
      "channel": 2,
      "note": 74,
      "start": 88.7964,
      "duration": 0.0001,
      "velocity": 1,
      "chip": "ym2612"
    },
    {
      "channel": 4,
      "note": 58,
      "start": 88.8,
      "duration": 0.1295,
      "velocity": 127,
      "chip": "ym2612"
    },
    {
      "channel": 1,
      "note": 22,
      "start": 88.9108,
      "duration": 0.1203,
      "velocity": 125,
      "chip": "ym2612"
    },
    {
      "channel": 2,
      "note": 74,
      "start": 88.9134,
      "duration": 0.0001,
      "velocity": 1,
      "chip": "ym2612"
    },
    {
      "channel": 0,
      "note": 61,
      "start": 89.0301,
      "duration": 0.0369,
      "velocity": 79,
      "chip": "ym2612"
    },
    {
      "channel": 1,
      "note": 30,
      "start": 89.0328,
      "duration": 0.0957,
      "velocity": 127,
      "chip": "ym2612"
    },
    {
      "channel": 4,
      "note": 58,
      "start": 89.0368,
      "duration": 0.0331,
      "velocity": 127,
      "chip": "ym2612"
    },
    {
      "channel": 0,
      "note": 61,
      "start": 89.1499,
      "duration": 0.0368,
      "velocity": 79,
      "chip": "ym2612"
    },
    {
      "channel": 1,
      "note": 22,
      "start": 89.1526,
      "duration": 0.1151,
      "velocity": 125,
      "chip": "ym2612"
    },
    {
      "channel": 2,
      "note": 74,
      "start": 89.1552,
      "duration": 0.0001,
      "velocity": 1,
      "chip": "ym2612"
    },
    {
      "channel": 4,
      "note": 58,
      "start": 89.1588,
      "duration": 0.0308,
      "velocity": 127,
      "chip": "ym2612"
    },
    {
      "channel": 1,
      "note": 30,
      "start": 89.2698,
      "duration": 0.0972,
      "velocity": 127,
      "chip": "ym2612"
    },
    {
      "channel": 2,
      "note": 74,
      "start": 89.2726,
      "duration": 0.0001,
      "velocity": 1,
      "chip": "ym2612"
    },
    {
      "channel": 4,
      "note": 58,
      "start": 89.2761,
      "duration": 0.1316,
      "velocity": 127,
      "chip": "ym2612"
    },
    {
      "channel": 0,
      "note": 61,
      "start": 89.3885,
      "duration": 0.0373,
      "velocity": 79,
      "chip": "ym2612"
    },
    {
      "channel": 1,
      "note": 22,
      "start": 89.5091,
      "duration": 0.1202,
      "velocity": 125,
      "chip": "ym2612"
    },
    {
      "channel": 2,
      "note": 74,
      "start": 89.5117,
      "duration": 0.0001,
      "velocity": 1,
      "chip": "ym2612"
    },
    {
      "channel": 4,
      "note": 58,
      "start": 89.5152,
      "duration": 0.033,
      "velocity": 127,
      "chip": "ym2612"
    },
    {
      "channel": 0,
      "note": 61,
      "start": 89.6281,
      "duration": 0.037,
      "velocity": 79,
      "chip": "ym2612"
    },
    {
      "channel": 4,
      "note": 58,
      "start": 89.6328,
      "duration": 0.0343,
      "velocity": 127,
      "chip": "ym2612"
    },
    {
      "channel": 0,
      "note": 54,
      "start": 89.748,
      "duration": 0.0368,
      "velocity": 79,
      "chip": "ym2612"
    },
    {
      "channel": 1,
      "note": 24,
      "start": 89.7507,
      "duration": 0.095,
      "velocity": 127,
      "chip": "ym2612"
    },
    {
      "channel": 2,
      "note": 74,
      "start": 89.7534,
      "duration": 0.0001,
      "velocity": 1,
      "chip": "ym2612"
    },
    {
      "channel": 4,
      "note": 58,
      "start": 89.757,
      "duration": 0.1299,
      "velocity": 127,
      "chip": "ym2612"
    },
    {
      "channel": 1,
      "note": 22,
      "start": 89.8678,
      "duration": 0.0984,
      "velocity": 127,
      "chip": "ym2612"
    },
    {
      "channel": 2,
      "note": 74,
      "start": 89.8705,
      "duration": 0.0001,
      "velocity": 1,
      "chip": "ym2612"
    },
    {
      "channel": 0,
      "note": 56,
      "start": 89.9874,
      "duration": 0.0366,
      "velocity": 79,
      "chip": "ym2612"
    },
    {
      "channel": 1,
      "note": 22,
      "start": 89.99,
      "duration": 0.0951,
      "velocity": 127,
      "chip": "ym2612"
    },
    {
      "channel": 2,
      "note": 74,
      "start": 89.9928,
      "duration": 0.0001,
      "velocity": 1,
      "chip": "ym2612"
    },
    {
      "channel": 3,
      "note": 83,
      "start": 89.996,
      "duration": 0.1127,
      "velocity": 105,
      "chip": "ym2612"
    },
    {
      "channel": 4,
      "note": 58,
      "start": 89.9988,
      "duration": 0.0281,
      "velocity": 127,
      "chip": "ym2612"
    },
    {
      "channel": 2,
      "note": 74,
      "start": 90.1073,
      "duration": 0.0001,
      "velocity": 1,
      "chip": "ym2612"
    },
    {
      "channel": 3,
      "note": 75,
      "start": 90.1105,
      "duration": 0.1228,
      "velocity": 105,
      "chip": "ym2612"
    },
    {
      "channel": 4,
      "note": 58,
      "start": 90.1133,
      "duration": 0.0321,
      "velocity": 127,
      "chip": "ym2612"
    },
    {
      "channel": 0,
      "note": 49,
      "start": 90.2266,
      "duration": 0.0366,
      "velocity": 79,
      "chip": "ym2612"
    },
    {
      "channel": 1,
      "note": 22,
      "start": 90.2293,
      "duration": 0.0947,
      "velocity": 127,
      "chip": "ym2612"
    },
    {
      "channel": 2,
      "note": 74,
      "start": 90.232,
      "duration": 0.0001,
      "velocity": 1,
      "chip": "ym2612"
    },
    {
      "channel": 3,
      "note": 73,
      "start": 90.2352,
      "duration": 0.1097,
      "velocity": 105,
      "chip": "ym2612"
    },
    {
      "channel": 4,
      "note": 58,
      "start": 90.238,
      "duration": 0.1266,
      "velocity": 127,
      "chip": "ym2612"
    },
    {
      "channel": 3,
      "note": 70,
      "start": 90.3472,
      "duration": 0.1253,
      "velocity": 105,
      "chip": "ym2612"
    },
    {
      "channel": 0,
      "note": 49,
      "start": 90.4659,
      "duration": 0.0366,
      "velocity": 79,
      "chip": "ym2612"
    },
    {
      "channel": 1,
      "note": 22,
      "start": 90.4685,
      "duration": 0.115,
      "velocity": 125,
      "chip": "ym2612"
    },
    {
      "channel": 2,
      "note": 74,
      "start": 90.4712,
      "duration": 0.0001,
      "velocity": 1,
      "chip": "ym2612"
    },
    {
      "channel": 3,
      "note": 75,
      "start": 90.4744,
      "duration": 0.111,
      "velocity": 105,
      "chip": "ym2612"
    },
    {
      "channel": 4,
      "note": 58,
      "start": 90.4772,
      "duration": 0.0283,
      "velocity": 127,
      "chip": "ym2612"
    },
    {
      "channel": 3,
      "note": 73,
      "start": 90.5872,
      "duration": 0.1247,
      "velocity": 105,
      "chip": "ym2612"
    },
    {
      "channel": 4,
      "note": 58,
      "start": 90.59,
      "duration": 0.0339,
      "velocity": 127,
      "chip": "ym2612"
    },
    {
      "channel": 0,
      "note": 61,
      "start": 90.7051,
      "duration": 0.0366,
      "velocity": 79,
      "chip": "ym2612"
    },
    {
      "channel": 1,
      "note": 24,
      "start": 90.7078,
      "duration": 0.0952,
      "velocity": 127,
      "chip": "ym2612"
    },
    {
      "channel": 2,
      "note": 74,
      "start": 90.7105,
      "duration": 0.0001,
      "velocity": 1,
      "chip": "ym2612"
    },
    {
      "channel": 3,
      "note": 70,
      "start": 90.7137,
      "duration": 0.1151,
      "velocity": 105,
      "chip": "ym2612"
    },
    {
      "channel": 4,
      "note": 58,
      "start": 90.7165,
      "duration": 0.1269,
      "velocity": 127,
      "chip": "ym2612"
    },
    {
      "channel": 1,
      "note": 22,
      "start": 90.8249,
      "duration": 0.1203,
      "velocity": 125,
      "chip": "ym2612"
    },
    {
      "channel": 2,
      "note": 74,
      "start": 90.8275,
      "duration": 0.0001,
      "velocity": 1,
      "chip": "ym2612"
    },
    {
      "channel": 3,
      "note": 75,
      "start": 90.8307,
      "duration": 0.118,
      "velocity": 105,
      "chip": "ym2612"
    },
    {
      "channel": 0,
      "note": 61,
      "start": 90.9442,
      "duration": 0.0367,
      "velocity": 79,
      "chip": "ym2612"
    },
    {
      "channel": 1,
      "note": 30,
      "start": 90.9469,
      "duration": 0.0958,
      "velocity": 127,
      "chip": "ym2612"
    },
    {
      "channel": 3,
      "note": 73,
      "start": 90.9505,
      "duration": 0.1201,
      "velocity": 105,
      "chip": "ym2612"
    },
    {
      "channel": 4,
      "note": 58,
      "start": 90.9533,
      "duration": 0.0305,
      "velocity": 127,
      "chip": "ym2612"
    },
    {
      "channel": 0,
      "note": 61,
      "start": 91.0639,
      "duration": 0.0366,
      "velocity": 79,
      "chip": "ym2612"
    },
    {
      "channel": 1,
      "note": 22,
      "start": 91.0666,
      "duration": 0.1151,
      "velocity": 125,
      "chip": "ym2612"
    },
    {
      "channel": 2,
      "note": 74,
      "start": 91.0693,
      "duration": 0.0001,
      "velocity": 1,
      "chip": "ym2612"
    },
    {
      "channel": 3,
      "note": 70,
      "start": 91.0725,
      "duration": 0.1155,
      "velocity": 105,
      "chip": "ym2612"
    },
    {
      "channel": 4,
      "note": 58,
      "start": 91.0753,
      "duration": 0.0283,
      "velocity": 127,
      "chip": "ym2612"
    },
    {
      "channel": 1,
      "note": 30,
      "start": 91.1839,
      "duration": 0.0973,
      "velocity": 127,
      "chip": "ym2612"
    },
    {
      "channel": 2,
      "note": 74,
      "start": 91.1866,
      "duration": 0.0001,
      "velocity": 1,
      "chip": "ym2612"
    },
    {
      "channel": 3,
      "note": 75,
      "start": 91.1898,
      "duration": 0.1149,
      "velocity": 105,
      "chip": "ym2612"
    },
    {
      "channel": 4,
      "note": 58,
      "start": 91.1926,
      "duration": 0.129,
      "velocity": 127,
      "chip": "ym2612"
    },
    {
      "channel": 0,
      "note": 61,
      "start": 91.3028,
      "duration": 0.037,
      "velocity": 79,
      "chip": "ym2612"
    },
    {
      "channel": 3,
      "note": 73,
      "start": 91.3066,
      "duration": 0.1205,
      "velocity": 105,
      "chip": "ym2612"
    },
    {
      "channel": 1,
      "note": 22,
      "start": 91.4231,
      "duration": 0.1202,
      "velocity": 125,
      "chip": "ym2612"
    },
    {
      "channel": 2,
      "note": 75,
      "start": 91.4258,
      "duration": 0.0001,
      "velocity": 1,
      "chip": "ym2612"
    },
    {
      "channel": 3,
      "note": 70,
      "start": 91.429,
      "duration": 0.1157,
      "velocity": 105,
      "chip": "ym2612"
    },
    {
      "channel": 4,
      "note": 58,
      "start": 91.4317,
      "duration": 0.0304,
      "velocity": 127,
      "chip": "ym2612"
    },
    {
      "channel": 0,
      "note": 61,
      "start": 91.5422,
      "duration": 0.0369,
      "velocity": 79,
      "chip": "ym2612"
    },
    {
      "channel": 3,
      "note": 75,
      "start": 91.5465,
      "duration": 0.1222,
      "velocity": 105,
      "chip": "ym2612"
    },
    {
      "channel": 4,
      "note": 58,
      "start": 91.5493,
      "duration": 0.0317,
      "velocity": 127,
      "chip": "ym2612"
    },
    {
      "channel": 0,
      "note": 54,
      "start": 91.6621,
      "duration": 0.0366,
      "velocity": 79,
      "chip": "ym2612"
    },
    {
      "channel": 1,
      "note": 24,
      "start": 91.6647,
      "duration": 0.1178,
      "velocity": 125,
      "chip": "ym2612"
    },
    {
      "channel": 2,
      "note": 75,
      "start": 91.6674,
      "duration": 0.0001,
      "velocity": 1,
      "chip": "ym2612"
    },
    {
      "channel": 3,
      "note": 73,
      "start": 91.6706,
      "duration": 0.1176,
      "velocity": 105,
      "chip": "ym2612"
    },
    {
      "channel": 4,
      "note": 58,
      "start": 91.6734,
      "duration": 0.127,
      "velocity": 127,
      "chip": "ym2612"
    },
    {
      "channel": 0,
      "note": 56,
      "start": 91.7815,
      "duration": 0.0368,
      "velocity": 79,
      "chip": "ym2612"
    },
    {
      "channel": 1,
      "note": 30,
      "start": 91.7842,
      "duration": 0.1181,
      "velocity": 125,
      "chip": "ym2612"
    },
    {
      "channel": 2,
      "note": 74,
      "start": 91.7868,
      "duration": 0.0001,
      "velocity": 1,
      "chip": "ym2612"
    },
    {
      "channel": 3,
      "note": 70,
      "start": 91.79,
      "duration": 0.118,
      "velocity": 105,
      "chip": "ym2612"
    },
    {
      "channel": 0,
      "note": 58,
      "start": 91.9013,
      "duration": 0.0366,
      "velocity": 79,
      "chip": "ym2612"
    },
    {
      "channel": 1,
      "note": 30,
      "start": 91.904,
      "duration": 0.0949,
      "velocity": 127,
      "chip": "ym2612"
    },
    {
      "channel": 2,
      "note": 72,
      "start": 91.9067,
      "duration": 0.0001,
      "velocity": 1,
      "chip": "ym2612"
    },
    {
      "channel": 3,
      "note": 73,
      "start": 91.9098,
      "duration": 0.1126,
      "velocity": 95,
      "chip": "ym2612"
    },
    {
      "channel": 4,
      "note": 58,
      "start": 91.9126,
      "duration": 0.0282,
      "velocity": 127,
      "chip": "ym2612"
    },
    {
      "channel": 2,
      "note": 72,
      "start": 92.0211,
      "duration": 0.0001,
      "velocity": 1,
      "chip": "ym2612"
    },
    {
      "channel": 4,
      "note": 58,
      "start": 92.0249,
      "duration": 0.0345,
      "velocity": 127,
      "chip": "ym2612"
    },
    {
      "channel": 0,
      "note": 47,
      "start": 92.1404,
      "duration": 0.0368,
      "velocity": 79,
      "chip": "ym2612"
    },
    {
      "channel": 1,
      "note": 22,
      "start": 92.1431,
      "duration": 0.0947,
      "velocity": 127,
      "chip": "ym2612"
    },
    {
      "channel": 2,
      "note": 72,
      "start": 92.1458,
      "duration": 0.0001,
      "velocity": 1,
      "chip": "ym2612"
    },
    {
      "channel": 4,
      "note": 58,
      "start": 92.1493,
      "duration": 0.1292,
      "velocity": 127,
      "chip": "ym2612"
    },
    {
      "channel": 0,
      "note": 47,
      "start": 92.3796,
      "duration": 0.0368,
      "velocity": 79,
      "chip": "ym2612"
    },
    {
      "channel": 1,
      "note": 22,
      "start": 92.3823,
      "duration": 0.115,
      "velocity": 125,
      "chip": "ym2612"
    },
    {
      "channel": 2,
      "note": 72,
      "start": 92.3849,
      "duration": 0.0001,
      "velocity": 1,
      "chip": "ym2612"
    },
    {
      "channel": 4,
      "note": 58,
      "start": 92.3885,
      "duration": 0.0308,
      "velocity": 127,
      "chip": "ym2612"
    },
    {
      "channel": 4,
      "note": 58,
      "start": 92.5013,
      "duration": 0.0365,
      "velocity": 127,
      "chip": "ym2612"
    },
    {
      "channel": 0,
      "note": 59,
      "start": 92.6189,
      "duration": 0.0367,
      "velocity": 79,
      "chip": "ym2612"
    },
    {
      "channel": 1,
      "note": 24,
      "start": 92.6215,
      "duration": 0.0951,
      "velocity": 127,
      "chip": "ym2612"
    },
    {
      "channel": 2,
      "note": 72,
      "start": 92.6243,
      "duration": 0.0001,
      "velocity": 1,
      "chip": "ym2612"
    },
    {
      "channel": 4,
      "note": 58,
      "start": 92.6278,
      "duration": 0.1295,
      "velocity": 127,
      "chip": "ym2612"
    },
    {
      "channel": 1,
      "note": 22,
      "start": 92.7386,
      "duration": 0.1203,
      "velocity": 125,
      "chip": "ym2612"
    },
    {
      "channel": 2,
      "note": 72,
      "start": 92.7413,
      "duration": 0.0001,
      "velocity": 1,
      "chip": "ym2612"
    },
    {
      "channel": 0,
      "note": 59,
      "start": 92.858,
      "duration": 0.0369,
      "velocity": 79,
      "chip": "ym2612"
    },
    {
      "channel": 1,
      "note": 30,
      "start": 92.8607,
      "duration": 0.0957,
      "velocity": 127,
      "chip": "ym2612"
    },
    {
      "channel": 4,
      "note": 58,
      "start": 92.8646,
      "duration": 0.0331,
      "velocity": 127,
      "chip": "ym2612"
    },
    {
      "channel": 0,
      "note": 59,
      "start": 92.9777,
      "duration": 0.0367,
      "velocity": 79,
      "chip": "ym2612"
    },
    {
      "channel": 1,
      "note": 22,
      "start": 92.9804,
      "duration": 0.1151,
      "velocity": 125,
      "chip": "ym2612"
    },
    {
      "channel": 2,
      "note": 72,
      "start": 92.983,
      "duration": 0.0001,
      "velocity": 1,
      "chip": "ym2612"
    },
    {
      "channel": 4,
      "note": 58,
      "start": 92.9866,
      "duration": 0.0308,
      "velocity": 127,
      "chip": "ym2612"
    },
    {
      "channel": 1,
      "note": 30,
      "start": 93.0976,
      "duration": 0.0973,
      "velocity": 127,
      "chip": "ym2612"
    },
    {
      "channel": 2,
      "note": 72,
      "start": 93.1004,
      "duration": 0.0001,
      "velocity": 1,
      "chip": "ym2612"
    },
    {
      "channel": 4,
      "note": 58,
      "start": 93.1039,
      "duration": 0.1316,
      "velocity": 127,
      "chip": "ym2612"
    },
    {
      "channel": 0,
      "note": 59,
      "start": 93.2163,
      "duration": 0.0374,
      "velocity": 79,
      "chip": "ym2612"
    },
    {
      "channel": 1,
      "note": 22,
      "start": 93.3369,
      "duration": 0.1202,
      "velocity": 125,
      "chip": "ym2612"
    },
    {
      "channel": 2,
      "note": 72,
      "start": 93.3395,
      "duration": 0.0001,
      "velocity": 1,
      "chip": "ym2612"
    },
    {
      "channel": 4,
      "note": 58,
      "start": 93.3431,
      "duration": 0.033,
      "velocity": 127,
      "chip": "ym2612"
    },
    {
      "channel": 0,
      "note": 59,
      "start": 93.4559,
      "duration": 0.037,
      "velocity": 79,
      "chip": "ym2612"
    },
    {
      "channel": 4,
      "note": 58,
      "start": 93.4606,
      "duration": 0.0343,
      "velocity": 127,
      "chip": "ym2612"
    },
    {
      "channel": 0,
      "note": 54,
      "start": 93.576,
      "duration": 0.0366,
      "velocity": 79,
      "chip": "ym2612"
    },
    {
      "channel": 1,
      "note": 24,
      "start": 93.5787,
      "duration": 0.0949,
      "velocity": 127,
      "chip": "ym2612"
    },
    {
      "channel": 2,
      "note": 72,
      "start": 93.5814,
      "duration": 0.0001,
      "velocity": 1,
      "chip": "ym2612"
    },
    {
      "channel": 3,
      "note": 73,
      "start": 93.5845,
      "duration": 0.1127,
      "velocity": 95,
      "chip": "ym2612"
    },
    {
      "channel": 4,
      "note": 58,
      "start": 93.5873,
      "duration": 0.1267,
      "velocity": 127,
      "chip": "ym2612"
    },
    {
      "channel": 2,
      "note": 72,
      "start": 93.6958,
      "duration": 0.0001,
      "velocity": 1,
      "chip": "ym2612"
    },
    {
      "channel": 3,
      "note": 73,
      "start": 93.6989,
      "duration": 0.1231,
      "velocity": 95,
      "chip": "ym2612"
    },
    {
      "channel": 0,
      "note": 56,
      "start": 93.8152,
      "duration": 0.0366,
      "velocity": 79,
      "chip": "ym2612"
    },
    {
      "channel": 1,
      "note": 22,
      "start": 93.8179,
      "duration": 0.0949,
      "velocity": 127,
      "chip": "ym2612"
    },
    {
      "channel": 2,
      "note": 72,
      "start": 93.8206,
      "duration": 0.0001,
      "velocity": 1,
      "chip": "ym2612"
    },
    {
      "channel": 3,
      "note": 75,
      "start": 93.8237,
      "duration": 0.1126,
      "velocity": 95,
      "chip": "ym2612"
    },
    {
      "channel": 4,
      "note": 58,
      "start": 93.8265,
      "duration": 0.0282,
      "velocity": 127,
      "chip": "ym2612"
    },
    {
      "channel": 2,
      "note": 72,
      "start": 93.935,
      "duration": 0.0001,
      "velocity": 1,
      "chip": "ym2612"
    },
    {
      "channel": 4,
      "note": 58,
      "start": 93.9388,
      "duration": 0.0345,
      "velocity": 127,
      "chip": "ym2612"
    },
    {
      "channel": 0,
      "note": 47,
      "start": 94.0543,
      "duration": 0.0367,
      "velocity": 79,
      "chip": "ym2612"
    },
    {
      "channel": 1,
      "note": 22,
      "start": 94.057,
      "duration": 0.0947,
      "velocity": 127,
      "chip": "ym2612"
    },
    {
      "channel": 2,
      "note": 72,
      "start": 94.0597,
      "duration": 0.0001,
      "velocity": 1,
      "chip": "ym2612"
    },
    {
      "channel": 4,
      "note": 58,
      "start": 94.0632,
      "duration": 0.1292,
      "velocity": 127,
      "chip": "ym2612"
    },
    {
      "channel": 0,
      "note": 47,
      "start": 94.2937,
      "duration": 0.0366,
      "velocity": 79,
      "chip": "ym2612"
    },
    {
      "channel": 1,
      "note": 22,
      "start": 94.2964,
      "duration": 0.1149,
      "velocity": 125,
      "chip": "ym2612"
    },
    {
      "channel": 2,
      "note": 72,
      "start": 94.299,
      "duration": 0.0001,
      "velocity": 1,
      "chip": "ym2612"
    },
    {
      "channel": 3,
      "note": 79,
      "start": 94.3021,
      "duration": 0.1109,
      "velocity": 95,
      "chip": "ym2612"
    },
    {
      "channel": 4,
      "note": 58,
      "start": 94.3049,
      "duration": 0.0284,
      "velocity": 127,
      "chip": "ym2612"
    },
    {
      "channel": 4,
      "note": 58,
      "start": 94.4154,
      "duration": 0.0363,
      "velocity": 127,
      "chip": "ym2612"
    },
    {
      "channel": 0,
      "note": 59,
      "start": 94.5328,
      "duration": 0.0368,
      "velocity": 79,
      "chip": "ym2612"
    },
    {
      "channel": 1,
      "note": 24,
      "start": 94.5355,
      "duration": 0.0951,
      "velocity": 127,
      "chip": "ym2612"
    },
    {
      "channel": 2,
      "note": 72,
      "start": 94.5382,
      "duration": 0.0001,
      "velocity": 1,
      "chip": "ym2612"
    },
    {
      "channel": 4,
      "note": 58,
      "start": 94.5417,
      "duration": 0.1295,
      "velocity": 127,
      "chip": "ym2612"
    },
    {
      "channel": 1,
      "note": 22,
      "start": 94.6526,
      "duration": 0.1205,
      "velocity": 125,
      "chip": "ym2612"
    },
    {
      "channel": 2,
      "note": 72,
      "start": 94.6552,
      "duration": 0.0001,
      "velocity": 1,
      "chip": "ym2612"
    },
    {
      "channel": 0,
      "note": 59,
      "start": 94.772,
      "duration": 0.0368,
      "velocity": 79,
      "chip": "ym2612"
    },
    {
      "channel": 1,
      "note": 30,
      "start": 94.7747,
      "duration": 0.0957,
      "velocity": 127,
      "chip": "ym2612"
    },
    {
      "channel": 3,
      "note": 81,
      "start": 94.7783,
      "duration": 0.1202,
      "velocity": 95,
      "chip": "ym2612"
    },
    {
      "channel": 4,
      "note": 58,
      "start": 94.781,
      "duration": 0.0306,
      "velocity": 127,
      "chip": "ym2612"
    },
    {
      "channel": 0,
      "note": 59,
      "start": 94.8918,
      "duration": 0.0366,
      "velocity": 79,
      "chip": "ym2612"
    },
    {
      "channel": 1,
      "note": 22,
      "start": 94.8945,
      "duration": 0.1151,
      "velocity": 125,
      "chip": "ym2612"
    },
    {
      "channel": 2,
      "note": 72,
      "start": 94.8971,
      "duration": 0.0001,
      "velocity": 1,
      "chip": "ym2612"
    },
    {
      "channel": 3,
      "note": 78,
      "start": 94.9002,
      "duration": 0.1156,
      "velocity": 95,
      "chip": "ym2612"
    },
    {
      "channel": 4,
      "note": 58,
      "start": 94.903,
      "duration": 0.0283,
      "velocity": 127,
      "chip": "ym2612"
    },
    {
      "channel": 1,
      "note": 30,
      "start": 95.0117,
      "duration": 0.0971,
      "velocity": 127,
      "chip": "ym2612"
    },
    {
      "channel": 2,
      "note": 72,
      "start": 95.0144,
      "duration": 0.0001,
      "velocity": 1,
      "chip": "ym2612"
    },
    {
      "channel": 3,
      "note": 77,
      "start": 95.0175,
      "duration": 0.1148,
      "velocity": 95,
      "chip": "ym2612"
    },
    {
      "channel": 4,
      "note": 58,
      "start": 95.0203,
      "duration": 0.1291,
      "velocity": 127,
      "chip": "ym2612"
    },
    {
      "channel": 0,
      "note": 59,
      "start": 95.1303,
      "duration": 0.0373,
      "velocity": 79,
      "chip": "ym2612"
    },
    {
      "channel": 1,
      "note": 22,
      "start": 95.251,
      "duration": 0.1202,
      "velocity": 125,
      "chip": "ym2612"
    },
    {
      "channel": 2,
      "note": 72,
      "start": 95.2536,
      "duration": 0.0001,
      "velocity": 1,
      "chip": "ym2612"
    },
    {
      "channel": 3,
      "note": 78,
      "start": 95.2567,
      "duration": 0.118,
      "velocity": 95,
      "chip": "ym2612"
    },
    {
      "channel": 4,
      "note": 58,
      "start": 95.2595,
      "duration": 0.0304,
      "velocity": 127,
      "chip": "ym2612"
    },
    {
      "channel": 0,
      "note": 59,
      "start": 95.37,
      "duration": 0.0369,
      "velocity": 79,
      "chip": "ym2612"
    },
    {
      "channel": 2,
      "note": 72,
      "start": 95.3734,
      "duration": 0.0001,
      "velocity": 1,
      "chip": "ym2612"
    },
    {
      "channel": 4,
      "note": 58,
      "start": 95.3771,
      "duration": 0.0317,
      "velocity": 127,
      "chip": "ym2612"
    },
    {
      "channel": 0,
      "note": 54,
      "start": 95.4899,
      "duration": 0.0366,
      "velocity": 79,
      "chip": "ym2612"
    },
    {
      "channel": 1,
      "note": 24,
      "start": 95.4926,
      "duration": 0.1178,
      "velocity": 125,
      "chip": "ym2612"
    },
    {
      "channel": 2,
      "note": 72,
      "start": 95.4952,
      "duration": 0.0001,
      "velocity": 1,
      "chip": "ym2612"
    },
    {
      "channel": 3,
      "note": 77,
      "start": 95.4983,
      "duration": 0.1178,
      "velocity": 95,
      "chip": "ym2612"
    },
    {
      "channel": 4,
      "note": 58,
      "start": 95.5011,
      "duration": 0.1273,
      "velocity": 127,
      "chip": "ym2612"
    },
    {
      "channel": 0,
      "note": 56,
      "start": 95.6093,
      "duration": 0.0368,
      "velocity": 79,
      "chip": "ym2612"
    },
    {
      "channel": 1,
      "note": 30,
      "start": 95.612,
      "duration": 0.0959,
      "velocity": 127,
      "chip": "ym2612"
    },
    {
      "channel": 2,
      "note": 72,
      "start": 95.6148,
      "duration": 0.0001,
      "velocity": 1,
      "chip": "ym2612"
    },
    {
      "channel": 3,
      "note": 73,
      "start": 95.6178,
      "duration": 0.118,
      "velocity": 95,
      "chip": "ym2612"
    },
    {
      "channel": 0,
      "note": 58,
      "start": 95.7291,
      "duration": 0.0366,
      "velocity": 79,
      "chip": "ym2612"
    },
    {
      "channel": 1,
      "note": 22,
      "start": 95.7318,
      "duration": 0.0949,
      "velocity": 127,
      "chip": "ym2612"
    },
    {
      "channel": 2,
      "note": 74,
      "start": 95.7345,
      "duration": 0.0001,
      "velocity": 1,
      "chip": "ym2612"
    },
    {
      "channel": 3,
      "note": 75,
      "start": 95.7376,
      "duration": 0.1126,
      "velocity": 95,
      "chip": "ym2612"
    },
    {
      "channel": 4,
      "note": 58,
      "start": 95.7404,
      "duration": 0.0282,
      "velocity": 127,
      "chip": "ym2612"
    },
    {
      "channel": 2,
      "note": 74,
      "start": 95.8489,
      "duration": 0.0001,
      "velocity": 1,
      "chip": "ym2612"
    },
    {
      "channel": 4,
      "note": 58,
      "start": 95.8527,
      "duration": 0.0345,
      "velocity": 127,
      "chip": "ym2612"
    },
    {
      "channel": 0,
      "note": 49,
      "start": 95.9682,
      "duration": 0.0368,
      "velocity": 79,
      "chip": "ym2612"
    },
    {
      "channel": 1,
      "note": 22,
      "start": 95.9709,
      "duration": 0.0947,
      "velocity": 127,
      "chip": "ym2612"
    },
    {
      "channel": 2,
      "note": 74,
      "start": 95.9736,
      "duration": 0.0001,
      "velocity": 1,
      "chip": "ym2612"
    },
    {
      "channel": 4,
      "note": 58,
      "start": 95.9771,
      "duration": 0.1292,
      "velocity": 127,
      "chip": "ym2612"
    },
    {
      "channel": 0,
      "note": 49,
      "start": 96.2075,
      "duration": 0.0367,
      "velocity": 79,
      "chip": "ym2612"
    },
    {
      "channel": 1,
      "note": 22,
      "start": 96.2101,
      "duration": 0.115,
      "velocity": 125,
      "chip": "ym2612"
    },
    {
      "channel": 2,
      "note": 74,
      "start": 96.2128,
      "duration": 0.0001,
      "velocity": 1,
      "chip": "ym2612"
    },
    {
      "channel": 4,
      "note": 58,
      "start": 96.2163,
      "duration": 0.0308,
      "velocity": 127,
      "chip": "ym2612"
    },
    {
      "channel": 4,
      "note": 58,
      "start": 96.3291,
      "duration": 0.0365,
      "velocity": 127,
      "chip": "ym2612"
    },
    {
      "channel": 0,
      "note": 61,
      "start": 96.4468,
      "duration": 0.0366,
      "velocity": 79,
      "chip": "ym2612"
    },
    {
      "channel": 1,
      "note": 24,
      "start": 96.4495,
      "duration": 0.095,
      "velocity": 127,
      "chip": "ym2612"
    },
    {
      "channel": 2,
      "note": 74,
      "start": 96.4523,
      "duration": 0.0001,
      "velocity": 1,
      "chip": "ym2612"
    },
    {
      "channel": 3,
      "note": 72,
      "start": 96.4554,
      "duration": 0.115,
      "velocity": 95,
      "chip": "ym2612"
    },
    {
      "channel": 4,
      "note": 58,
      "start": 96.4581,
      "duration": 0.127,
      "velocity": 127,
      "chip": "ym2612"
    },
    {
      "channel": 1,
      "note": 22,
      "start": 96.5665,
      "duration": 0.1203,
      "velocity": 125,
      "chip": "ym2612"
    },
    {
      "channel": 2,
      "note": 74,
      "start": 96.5691,
      "duration": 0.0001,
      "velocity": 1,
      "chip": "ym2612"
    },
    {
      "channel": 0,
      "note": 61,
      "start": 96.6858,
      "duration": 0.0369,
      "velocity": 79,
      "chip": "ym2612"
    },
    {
      "channel": 1,
      "note": 30,
      "start": 96.6885,
      "duration": 0.0957,
      "velocity": 127,
      "chip": "ym2612"
    },
    {
      "channel": 4,
      "note": 58,
      "start": 96.6925,
      "duration": 0.0333,
      "velocity": 127,
      "chip": "ym2612"
    },
    {
      "channel": 0,
      "note": 61,
      "start": 96.8056,
      "duration": 0.0367,
      "velocity": 79,
      "chip": "ym2612"
    },
    {
      "channel": 1,
      "note": 22,
      "start": 96.8082,
      "duration": 0.1151,
      "velocity": 125,
      "chip": "ym2612"
    },
    {
      "channel": 2,
      "note": 74,
      "start": 96.8109,
      "duration": 0.0001,
      "velocity": 1,
      "chip": "ym2612"
    },
    {
      "channel": 4,
      "note": 58,
      "start": 96.8144,
      "duration": 0.0308,
      "velocity": 127,
      "chip": "ym2612"
    },
    {
      "channel": 1,
      "note": 30,
      "start": 96.9255,
      "duration": 0.0972,
      "velocity": 127,
      "chip": "ym2612"
    },
    {
      "channel": 2,
      "note": 74,
      "start": 96.9282,
      "duration": 0.0001,
      "velocity": 1,
      "chip": "ym2612"
    },
    {
      "channel": 4,
      "note": 58,
      "start": 96.9318,
      "duration": 0.1316,
      "velocity": 127,
      "chip": "ym2612"
    },
    {
      "channel": 0,
      "note": 61,
      "start": 97.0442,
      "duration": 0.0374,
      "velocity": 79,
      "chip": "ym2612"
    },
    {
      "channel": 1,
      "note": 22,
      "start": 97.1647,
      "duration": 0.1202,
      "velocity": 125,
      "chip": "ym2612"
    },
    {
      "channel": 2,
      "note": 74,
      "start": 97.1673,
      "duration": 0.0001,
      "velocity": 1,
      "chip": "ym2612"
    },
    {
      "channel": 4,
      "note": 58,
      "start": 97.1709,
      "duration": 0.033,
      "velocity": 127,
      "chip": "ym2612"
    },
    {
      "channel": 0,
      "note": 61,
      "start": 97.2838,
      "duration": 0.037,
      "velocity": 79,
      "chip": "ym2612"
    },
    {
      "channel": 4,
      "note": 58,
      "start": 97.2884,
      "duration": 0.0343,
      "velocity": 127,
      "chip": "ym2612"
    },
    {
      "channel": 0,
      "note": 54,
      "start": 97.4037,
      "duration": 0.0368,
      "velocity": 79,
      "chip": "ym2612"
    },
    {
      "channel": 1,
      "note": 24,
      "start": 97.4063,
      "duration": 0.0951,
      "velocity": 127,
      "chip": "ym2612"
    },
    {
      "channel": 2,
      "note": 74,
      "start": 97.4091,
      "duration": 0.0001,
      "velocity": 1,
      "chip": "ym2612"
    },
    {
      "channel": 4,
      "note": 58,
      "start": 97.4126,
      "duration": 0.1299,
      "velocity": 127,
      "chip": "ym2612"
    },
    {
      "channel": 1,
      "note": 22,
      "start": 97.5234,
      "duration": 0.0983,
      "velocity": 127,
      "chip": "ym2612"
    },
    {
      "channel": 2,
      "note": 74,
      "start": 97.5262,
      "duration": 0.0001,
      "velocity": 1,
      "chip": "ym2612"
    },
    {
      "channel": 0,
      "note": 56,
      "start": 97.643,
      "duration": 0.0366,
      "velocity": 79,
      "chip": "ym2612"
    },
    {
      "channel": 1,
      "note": 22,
      "start": 97.6457,
      "duration": 0.0951,
      "velocity": 127,
      "chip": "ym2612"
    },
    {
      "channel": 2,
      "note": 74,
      "start": 97.6484,
      "duration": 0.0001,
      "velocity": 1,
      "chip": "ym2612"
    },
    {
      "channel": 3,
      "note": 82,
      "start": 97.6515,
      "duration": 0.1128,
      "velocity": 95,
      "chip": "ym2612"
    },
    {
      "channel": 4,
      "note": 58,
      "start": 97.6543,
      "duration": 0.0282,
      "velocity": 127,
      "chip": "ym2612"
    },
    {
      "channel": 2,
      "note": 74,
      "start": 97.763,
      "duration": 0.0001,
      "velocity": 1,
      "chip": "ym2612"
    },
    {
      "channel": 3,
      "note": 78,
      "start": 97.7661,
      "duration": 0.1229,
      "velocity": 95,
      "chip": "ym2612"
    },
    {
      "channel": 4,
      "note": 58,
      "start": 97.7689,
      "duration": 0.0322,
      "velocity": 127,
      "chip": "ym2612"
    },
    {
      "channel": 0,
      "note": 49,
      "start": 97.8823,
      "duration": 0.0366,
      "velocity": 79,
      "chip": "ym2612"
    },
    {
      "channel": 1,
      "note": 22,
      "start": 97.8849,
      "duration": 0.0945,
      "velocity": 127,
      "chip": "ym2612"
    },
    {
      "channel": 2,
      "note": 74,
      "start": 97.8877,
      "duration": 0.0001,
      "velocity": 1,
      "chip": "ym2612"
    },
    {
      "channel": 3,
      "note": 77,
      "start": 97.8908,
      "duration": 0.1096,
      "velocity": 95,
      "chip": "ym2612"
    },
    {
      "channel": 4,
      "note": 58,
      "start": 97.8936,
      "duration": 0.1267,
      "velocity": 127,
      "chip": "ym2612"
    },
    {
      "channel": 0,
      "note": 49,
      "start": 98.1215,
      "duration": 0.0366,
      "velocity": 79,
      "chip": "ym2612"
    },
    {
      "channel": 1,
      "note": 22,
      "start": 98.1242,
      "duration": 0.115,
      "velocity": 125,
      "chip": "ym2612"
    },
    {
      "channel": 2,
      "note": 74,
      "start": 98.1268,
      "duration": 0.0001,
      "velocity": 1,
      "chip": "ym2612"
    },
    {
      "channel": 3,
      "note": 78,
      "start": 98.1299,
      "duration": 0.1111,
      "velocity": 95,
      "chip": "ym2612"
    },
    {
      "channel": 4,
      "note": 58,
      "start": 98.1327,
      "duration": 0.0283,
      "velocity": 127,
      "chip": "ym2612"
    },
    {
      "channel": 3,
      "note": 77,
      "start": 98.2427,
      "duration": 0.1248,
      "velocity": 95,
      "chip": "ym2612"
    },
    {
      "channel": 4,
      "note": 58,
      "start": 98.2455,
      "duration": 0.034,
      "velocity": 127,
      "chip": "ym2612"
    },
    {
      "channel": 0,
      "note": 61,
      "start": 98.3607,
      "duration": 0.0366,
      "velocity": 79,
      "chip": "ym2612"
    },
    {
      "channel": 1,
      "note": 24,
      "start": 98.3634,
      "duration": 0.095,
      "velocity": 127,
      "chip": "ym2612"
    },
    {
      "channel": 2,
      "note": 74,
      "start": 98.3662,
      "duration": 0.0001,
      "velocity": 1,
      "chip": "ym2612"
    },
    {
      "channel": 3,
      "note": 75,
      "start": 98.3693,
      "duration": 0.115,
      "velocity": 95,
      "chip": "ym2612"
    },
    {
      "channel": 4,
      "note": 58,
      "start": 98.372,
      "duration": 0.127,
      "velocity": 127,
      "chip": "ym2612"
    },
    {
      "channel": 1,
      "note": 22,
      "start": 98.4804,
      "duration": 0.1205,
      "velocity": 125,
      "chip": "ym2612"
    },
    {
      "channel": 2,
      "note": 74,
      "start": 98.483,
      "duration": 0.0001,
      "velocity": 1,
      "chip": "ym2612"
    },
    {
      "channel": 0,
      "note": 61,
      "start": 98.5999,
      "duration": 0.0367,
      "velocity": 79,
      "chip": "ym2612"
    },
    {
      "channel": 1,
      "note": 30,
      "start": 98.6025,
      "duration": 0.0958,
      "velocity": 127,
      "chip": "ym2612"
    },
    {
      "channel": 3,
      "note": 77,
      "start": 98.6061,
      "duration": 0.1202,
      "velocity": 95,
      "chip": "ym2612"
    },
    {
      "channel": 4,
      "note": 58,
      "start": 98.6089,
      "duration": 0.0306,
      "velocity": 127,
      "chip": "ym2612"
    },
    {
      "channel": 0,
      "note": 61,
      "start": 98.7196,
      "duration": 0.0366,
      "velocity": 79,
      "chip": "ym2612"
    },
    {
      "channel": 1,
      "note": 22,
      "start": 98.7223,
      "duration": 0.1151,
      "velocity": 125,
      "chip": "ym2612"
    },
    {
      "channel": 2,
      "note": 74,
      "start": 98.7249,
      "duration": 0.0001,
      "velocity": 1,
      "chip": "ym2612"
    },
    {
      "channel": 3,
      "note": 75,
      "start": 98.728,
      "duration": 0.1156,
      "velocity": 95,
      "chip": "ym2612"
    },
    {
      "channel": 4,
      "note": 58,
      "start": 98.7308,
      "duration": 0.0283,
      "velocity": 127,
      "chip": "ym2612"
    },
    {
      "channel": 1,
      "note": 30,
      "start": 98.8395,
      "duration": 0.0971,
      "velocity": 127,
      "chip": "ym2612"
    },
    {
      "channel": 2,
      "note": 74,
      "start": 98.8423,
      "duration": 0.0001,
      "velocity": 1,
      "chip": "ym2612"
    },
    {
      "channel": 3,
      "note": 73,
      "start": 98.8454,
      "duration": 0.1148,
      "velocity": 95,
      "chip": "ym2612"
    },
    {
      "channel": 4,
      "note": 58,
      "start": 98.8481,
      "duration": 0.1291,
      "velocity": 127,
      "chip": "ym2612"
    },
    {
      "channel": 0,
      "note": 61,
      "start": 98.9581,
      "duration": 0.0374,
      "velocity": 79,
      "chip": "ym2612"
    },
    {
      "channel": 1,
      "note": 22,
      "start": 99.0788,
      "duration": 0.1202,
      "velocity": 125,
      "chip": "ym2612"
    },
    {
      "channel": 2,
      "note": 75,
      "start": 99.0814,
      "duration": 0.0001,
      "velocity": 1,
      "chip": "ym2612"
    },
    {
      "channel": 3,
      "note": 75,
      "start": 99.0845,
      "duration": 0.1158,
      "velocity": 95,
      "chip": "ym2612"
    },
    {
      "channel": 4,
      "note": 58,
      "start": 99.0873,
      "duration": 0.0304,
      "velocity": 127,
      "chip": "ym2612"
    },
    {
      "channel": 0,
      "note": 61,
      "start": 99.1978,
      "duration": 0.0369,
      "velocity": 79,
      "chip": "ym2612"
    },
    {
      "channel": 3,
      "note": 73,
      "start": 99.202,
      "duration": 0.1223,
      "velocity": 95,
      "chip": "ym2612"
    },
    {
      "channel": 4,
      "note": 58,
      "start": 99.2048,
      "duration": 0.0318,
      "velocity": 127,
      "chip": "ym2612"
    },
    {
      "channel": 0,
      "note": 54,
      "start": 99.3177,
      "duration": 0.0366,
      "velocity": 79,
      "chip": "ym2612"
    },
    {
      "channel": 1,
      "note": 24,
      "start": 99.3204,
      "duration": 0.1178,
      "velocity": 125,
      "chip": "ym2612"
    },
    {
      "channel": 2,
      "note": 75,
      "start": 99.323,
      "duration": 0.0001,
      "velocity": 1,
      "chip": "ym2612"
    },
    {
      "channel": 3,
      "note": 75,
      "start": 99.3261,
      "duration": 0.1177,
      "velocity": 95,
      "chip": "ym2612"
    },
    {
      "channel": 4,
      "note": 58,
      "start": 99.3289,
      "duration": 0.1272,
      "velocity": 127,
      "chip": "ym2612"
    },
    {
      "channel": 0,
      "note": 56,
      "start": 99.4372,
      "duration": 0.0368,
      "velocity": 79,
      "chip": "ym2612"
    },
    {
      "channel": 1,
      "note": 30,
      "start": 99.4399,
      "duration": 0.1181,
      "velocity": 125,
      "chip": "ym2612"
    },
    {
      "channel": 2,
      "note": 74,
      "start": 99.4425,
      "duration": 0.0001,
      "velocity": 1,
      "chip": "ym2612"
    },
    {
      "channel": 3,
      "note": 78,
      "start": 99.4456,
      "duration": 0.1181,
      "velocity": 95,
      "chip": "ym2612"
    },
    {
      "channel": 0,
      "note": 58,
      "start": 99.557,
      "duration": 0.0366,
      "velocity": 79,
      "chip": "ym2612"
    },
    {
      "channel": 1,
      "note": 30,
      "start": 99.5596,
      "duration": 0.0951,
      "velocity": 127,
      "chip": "ym2612"
    },
    {
      "channel": 2,
      "note": 72,
      "start": 99.5624,
      "duration": 0.0001,
      "velocity": 1,
      "chip": "ym2612"
    },
    {
      "channel": 3,
      "note": 77,
      "start": 99.5654,
      "duration": 0.1128,
      "velocity": 95,
      "chip": "ym2612"
    },
    {
      "channel": 4,
      "note": 58,
      "start": 99.5682,
      "duration": 0.0282,
      "velocity": 127,
      "chip": "ym2612"
    },
    {
      "channel": 2,
      "note": 72,
      "start": 99.6769,
      "duration": 0.0001,
      "velocity": 1,
      "chip": "ym2612"
    },
    {
      "channel": 3,
      "note": 82,
      "start": 99.68,
      "duration": 0.1229,
      "velocity": 95,
      "chip": "ym2612"
    },
    {
      "channel": 4,
      "note": 58,
      "start": 99.6828,
      "duration": 0.0322,
      "velocity": 127,
      "chip": "ym2612"
    },
    {
      "channel": 0,
      "note": 47,
      "start": 99.7962,
      "duration": 0.0366,
      "velocity": 79,
      "chip": "ym2612"
    },
    {
      "channel": 1,
      "note": 22,
      "start": 99.7989,
      "duration": 0.0945,
      "velocity": 127,
      "chip": "ym2612"
    },
    {
      "channel": 2,
      "note": 72,
      "start": 99.8016,
      "duration": 0.0001,
      "velocity": 1,
      "chip": "ym2612"
    },
    {
      "channel": 3,
      "note": 78,
      "start": 99.8047,
      "duration": 0.1096,
      "velocity": 95,
      "chip": "ym2612"
    },
    {
      "channel": 4,
      "note": 58,
      "start": 99.8075,
      "duration": 0.1267,
      "velocity": 127,
      "chip": "ym2612"
    },
    {
      "channel": 0,
      "note": 47,
      "start": 100.0353,
      "duration": 0.0368,
      "velocity": 79,
      "chip": "ym2612"
    },
    {
      "channel": 1,
      "note": 22,
      "start": 100.038,
      "duration": 0.115,
      "velocity": 125,
      "chip": "ym2612"
    },
    {
      "channel": 2,
      "note": 72,
      "start": 100.0406,
      "duration": 0.0001,
      "velocity": 1,
      "chip": "ym2612"
    },
    {
      "channel": 4,
      "note": 58,
      "start": 100.0441,
      "duration": 0.031,
      "velocity": 127,
      "chip": "ym2612"
    },
    {
      "channel": 4,
      "note": 58,
      "start": 100.1569,
      "duration": 0.0365,
      "velocity": 127,
      "chip": "ym2612"
    },
    {
      "channel": 0,
      "note": 59,
      "start": 100.2745,
      "duration": 0.0368,
      "velocity": 79,
      "chip": "ym2612"
    },
    {
      "channel": 1,
      "note": 24,
      "start": 100.2772,
      "duration": 0.0951,
      "velocity": 127,
      "chip": "ym2612"
    },
    {
      "channel": 2,
      "note": 72,
      "start": 100.2799,
      "duration": 0.0001,
      "velocity": 1,
      "chip": "ym2612"
    },
    {
      "channel": 4,
      "note": 58,
      "start": 100.2835,
      "duration": 0.1295,
      "velocity": 127,
      "chip": "ym2612"
    },
    {
      "channel": 1,
      "note": 22,
      "start": 100.3943,
      "duration": 0.1203,
      "velocity": 125,
      "chip": "ym2612"
    },
    {
      "channel": 2,
      "note": 72,
      "start": 100.3969,
      "duration": 0.0001,
      "velocity": 1,
      "chip": "ym2612"
    },
    {
      "channel": 0,
      "note": 59,
      "start": 100.5136,
      "duration": 0.0369,
      "velocity": 79,
      "chip": "ym2612"
    },
    {
      "channel": 1,
      "note": 30,
      "start": 100.5163,
      "duration": 0.0957,
      "velocity": 127,
      "chip": "ym2612"
    },
    {
      "channel": 4,
      "note": 58,
      "start": 100.5203,
      "duration": 0.0331,
      "velocity": 127,
      "chip": "ym2612"
    },
    {
      "channel": 0,
      "note": 59,
      "start": 100.6334,
      "duration": 0.0368,
      "velocity": 79,
      "chip": "ym2612"
    },
    {
      "channel": 1,
      "note": 22,
      "start": 100.6361,
      "duration": 0.1151,
      "velocity": 125,
      "chip": "ym2612"
    },
    {
      "channel": 2,
      "note": 72,
      "start": 100.6387,
      "duration": 0.0001,
      "velocity": 1,
      "chip": "ym2612"
    },
    {
      "channel": 4,
      "note": 58,
      "start": 100.6422,
      "duration": 0.0308,
      "velocity": 127,
      "chip": "ym2612"
    },
    {
      "channel": 1,
      "note": 30,
      "start": 100.7533,
      "duration": 0.0972,
      "velocity": 127,
      "chip": "ym2612"
    },
    {
      "channel": 2,
      "note": 72,
      "start": 100.7561,
      "duration": 0.0001,
      "velocity": 1,
      "chip": "ym2612"
    },
    {
      "channel": 4,
      "note": 58,
      "start": 100.7596,
      "duration": 0.1316,
      "velocity": 127,
      "chip": "ym2612"
    },
    {
      "channel": 0,
      "note": 59,
      "start": 100.872,
      "duration": 0.0373,
      "velocity": 79,
      "chip": "ym2612"
    },
    {
      "channel": 1,
      "note": 22,
      "start": 100.9925,
      "duration": 0.1203,
      "velocity": 125,
      "chip": "ym2612"
    },
    {
      "channel": 2,
      "note": 72,
      "start": 100.9952,
      "duration": 0.0001,
      "velocity": 1,
      "chip": "ym2612"
    },
    {
      "channel": 4,
      "note": 58,
      "start": 100.9987,
      "duration": 0.0329,
      "velocity": 127,
      "chip": "ym2612"
    },
    {
      "channel": 0,
      "note": 59,
      "start": 101.1117,
      "duration": 0.0369,
      "velocity": 79,
      "chip": "ym2612"
    },
    {
      "channel": 3,
      "note": 75,
      "start": 101.116,
      "duration": 0.1224,
      "velocity": 95,
      "chip": "ym2612"
    },
    {
      "channel": 4,
      "note": 58,
      "start": 101.1188,
      "duration": 0.0318,
      "velocity": 127,
      "chip": "ym2612"
    },
    {
      "channel": 0,
      "note": 54,
      "start": 101.2316,
      "duration": 0.0366,
      "velocity": 79,
      "chip": "ym2612"
    },
    {
      "channel": 1,
      "note": 24,
      "start": 101.2343,
      "duration": 0.0949,
      "velocity": 127,
      "chip": "ym2612"
    },
    {
      "channel": 2,
      "note": 72,
      "start": 101.2371,
      "duration": 0.0001,
      "velocity": 1,
      "chip": "ym2612"
    },
    {
      "channel": 3,
      "note": 75,
      "start": 101.2401,
      "duration": 0.1127,
      "velocity": 95,
      "chip": "ym2612"
    },
    {
      "channel": 4,
      "note": 58,
      "start": 101.2429,
      "duration": 0.1267,
      "velocity": 127,
      "chip": "ym2612"
    },
    {
      "channel": 2,
      "note": 72,
      "start": 101.3515,
      "duration": 0.0001,
      "velocity": 1,
      "chip": "ym2612"
    },
    {
      "channel": 3,
      "note": 78,
      "start": 101.3545,
      "duration": 0.1231,
      "velocity": 95,
      "chip": "ym2612"
    },
    {
      "channel": 0,
      "note": 56,
      "start": 101.4709,
      "duration": 0.0366,
      "velocity": 79,
      "chip": "ym2612"
    },
    {
      "channel": 1,
      "note": 22,
      "start": 101.4735,
      "duration": 0.0949,
      "velocity": 127,
      "chip": "ym2612"
    },
    {
      "channel": 2,
      "note": 72,
      "start": 101.4763,
      "duration": 0.0001,
      "velocity": 1,
      "chip": "ym2612"
    },
    {
      "channel": 3,
      "note": 75,
      "start": 101.4794,
      "duration": 0.1126,
      "velocity": 95,
      "chip": "ym2612"
    },
    {
      "channel": 4,
      "note": 58,
      "start": 101.4822,
      "duration": 0.0282,
      "velocity": 127,
      "chip": "ym2612"
    },
    {
      "channel": 2,
      "note": 72,
      "start": 101.5907,
      "duration": 0.0001,
      "velocity": 1,
      "chip": "ym2612"
    },
    {
      "channel": 4,
      "note": 58,
      "start": 101.5944,
      "duration": 0.0345,
      "velocity": 127,
      "chip": "ym2612"
    },
    {
      "channel": 0,
      "note": 47,
      "start": 101.71,
      "duration": 0.0368,
      "velocity": 79,
      "chip": "ym2612"
    },
    {
      "channel": 1,
      "note": 22,
      "start": 101.7126,
      "duration": 0.0947,
      "velocity": 127,
      "chip": "ym2612"
    },
    {
      "channel": 2,
      "note": 72,
      "start": 101.7154,
      "duration": 0.0001,
      "velocity": 1,
      "chip": "ym2612"
    },
    {
      "channel": 4,
      "note": 58,
      "start": 101.7189,
      "duration": 0.1292,
      "velocity": 127,
      "chip": "ym2612"
    },
    {
      "channel": 0,
      "note": 47,
      "start": 101.9493,
      "duration": 0.0366,
      "velocity": 79,
      "chip": "ym2612"
    },
    {
      "channel": 1,
      "note": 22,
      "start": 101.952,
      "duration": 0.1149,
      "velocity": 125,
      "chip": "ym2612"
    },
    {
      "channel": 2,
      "note": 72,
      "start": 101.9546,
      "duration": 0.0001,
      "velocity": 1,
      "chip": "ym2612"
    },
    {
      "channel": 3,
      "note": 84,
      "start": 101.9578,
      "duration": 0.1108,
      "velocity": 95,
      "chip": "ym2612"
    },
    {
      "channel": 4,
      "note": 58,
      "start": 101.9605,
      "duration": 0.0283,
      "velocity": 127,
      "chip": "ym2612"
    },
    {
      "channel": 4,
      "note": 58,
      "start": 102.0711,
      "duration": 0.0363,
      "velocity": 127,
      "chip": "ym2612"
    },
    {
      "channel": 0,
      "note": 59,
      "start": 102.1884,
      "duration": 0.0368,
      "velocity": 79,
      "chip": "ym2612"
    },
    {
      "channel": 1,
      "note": 24,
      "start": 102.1911,
      "duration": 0.0952,
      "velocity": 127,
      "chip": "ym2612"
    },
    {
      "channel": 2,
      "note": 72,
      "start": 102.1939,
      "duration": 0.0001,
      "velocity": 1,
      "chip": "ym2612"
    },
    {
      "channel": 4,
      "note": 58,
      "start": 102.1974,
      "duration": 0.1295,
      "velocity": 127,
      "chip": "ym2612"
    },
    {
      "channel": 1,
      "note": 22,
      "start": 102.3082,
      "duration": 0.1205,
      "velocity": 125,
      "chip": "ym2612"
    },
    {
      "channel": 2,
      "note": 72,
      "start": 102.3108,
      "duration": 0.0001,
      "velocity": 1,
      "chip": "ym2612"
    },
    {
      "channel": 0,
      "note": 59,
      "start": 102.4277,
      "duration": 0.0367,
      "velocity": 79,
      "chip": "ym2612"
    },
    {
      "channel": 1,
      "note": 30,
      "start": 102.4304,
      "duration": 0.0958,
      "velocity": 127,
      "chip": "ym2612"
    },
    {
      "channel": 3,
      "note": 83,
      "start": 102.4339,
      "duration": 0.1202,
      "velocity": 95,
      "chip": "ym2612"
    },
    {
      "channel": 4,
      "note": 58,
      "start": 102.4367,
      "duration": 0.0306,
      "velocity": 127,
      "chip": "ym2612"
    },
    {
      "channel": 0,
      "note": 59,
      "start": 102.5474,
      "duration": 0.0366,
      "velocity": 79,
      "chip": "ym2612"
    },
    {
      "channel": 1,
      "note": 22,
      "start": 102.5501,
      "duration": 0.1151,
      "velocity": 125,
      "chip": "ym2612"
    },
    {
      "channel": 2,
      "note": 72,
      "start": 102.5527,
      "duration": 0.0001,
      "velocity": 1,
      "chip": "ym2612"
    },
    {
      "channel": 3,
      "note": 80,
      "start": 102.5559,
      "duration": 0.1156,
      "velocity": 95,
      "chip": "ym2612"
    },
    {
      "channel": 4,
      "note": 58,
      "start": 102.5586,
      "duration": 0.0283,
      "velocity": 127,
      "chip": "ym2612"
    },
    {
      "channel": 1,
      "note": 30,
      "start": 102.6674,
      "duration": 0.0971,
      "velocity": 127,
      "chip": "ym2612"
    },
    {
      "channel": 2,
      "note": 72,
      "start": 102.6701,
      "duration": 0.0001,
      "velocity": 1,
      "chip": "ym2612"
    },
    {
      "channel": 3,
      "note": 82,
      "start": 102.6732,
      "duration": 0.1148,
      "velocity": 95,
      "chip": "ym2612"
    },
    {
      "channel": 4,
      "note": 58,
      "start": 102.676,
      "duration": 0.1291,
      "velocity": 127,
      "chip": "ym2612"
    },
    {
      "channel": 0,
      "note": 59,
      "start": 102.7859,
      "duration": 0.0374,
      "velocity": 79,
      "chip": "ym2612"
    },
    {
      "channel": 1,
      "note": 22,
      "start": 102.9066,
      "duration": 0.1203,
      "velocity": 125,
      "chip": "ym2612"
    },
    {
      "channel": 2,
      "note": 72,
      "start": 102.9092,
      "duration": 0.0001,
      "velocity": 1,
      "chip": "ym2612"
    },
    {
      "channel": 3,
      "note": 83,
      "start": 102.9123,
      "duration": 0.1182,
      "velocity": 95,
      "chip": "ym2612"
    },
    {
      "channel": 4,
      "note": 58,
      "start": 102.9151,
      "duration": 0.0305,
      "velocity": 127,
      "chip": "ym2612"
    },
    {
      "channel": 0,
      "note": 59,
      "start": 103.0258,
      "duration": 0.0367,
      "velocity": 79,
      "chip": "ym2612"
    },
    {
      "channel": 2,
      "note": 72,
      "start": 103.0292,
      "duration": 0.0001,
      "velocity": 1,
      "chip": "ym2612"
    },
    {
      "channel": 3,
      "note": 83,
      "start": 103.0323,
      "duration": 0.1199,
      "velocity": 95,
      "chip": "ym2612"
    },
    {
      "channel": 4,
      "note": 58,
      "start": 103.0351,
      "duration": 0.0295,
      "velocity": 127,
      "chip": "ym2612"
    },
    {
      "channel": 0,
      "note": 54,
      "start": 103.1455,
      "duration": 0.0366,
      "velocity": 79,
      "chip": "ym2612"
    },
    {
      "channel": 1,
      "note": 24,
      "start": 103.1482,
      "duration": 0.1178,
      "velocity": 125,
      "chip": "ym2612"
    },
    {
      "channel": 2,
      "note": 72,
      "start": 103.1509,
      "duration": 0.0001,
      "velocity": 1,
      "chip": "ym2612"
    },
    {
      "channel": 3,
      "note": 82,
      "start": 103.1539,
      "duration": 0.1178,
      "velocity": 95,
      "chip": "ym2612"
    },
    {
      "channel": 4,
      "note": 58,
      "start": 103.1567,
      "duration": 0.1273,
      "velocity": 127,
      "chip": "ym2612"
    },
    {
      "channel": 0,
      "note": 56,
      "start": 103.265,
      "duration": 0.0368,
      "velocity": 79,
      "chip": "ym2612"
    },
    {
      "channel": 1,
      "note": 30,
      "start": 103.2677,
      "duration": 0.0959,
      "velocity": 127,
      "chip": "ym2612"
    },
    {
      "channel": 2,
      "note": 72,
      "start": 103.2704,
      "duration": 0.0001,
      "velocity": 1,
      "chip": "ym2612"
    },
    {
      "channel": 3,
      "note": 80,
      "start": 103.2735,
      "duration": 0.118,
      "velocity": 95,
      "chip": "ym2612"
    },
    {
      "channel": 0,
      "note": 58,
      "start": 103.3848,
      "duration": 0.0366,
      "velocity": 79,
      "chip": "ym2612"
    },
    {
      "channel": 1,
      "note": 22,
      "start": 103.3875,
      "duration": 0.0949,
      "velocity": 127,
      "chip": "ym2612"
    },
    {
      "channel": 2,
      "note": 74,
      "start": 103.3902,
      "duration": 0.0001,
      "velocity": 1,
      "chip": "ym2612"
    },
    {
      "channel": 3,
      "note": 78,
      "start": 103.3933,
      "duration": 0.1126,
      "velocity": 95,
      "chip": "ym2612"
    },
    {
      "channel": 4,
      "note": 58,
      "start": 103.3961,
      "duration": 0.0282,
      "velocity": 127,
      "chip": "ym2612"
    },
    {
      "channel": 2,
      "note": 74,
      "start": 103.5046,
      "duration": 0.0001,
      "velocity": 1,
      "chip": "ym2612"
    },
    {
      "channel": 4,
      "note": 58,
      "start": 103.5083,
      "duration": 0.0345,
      "velocity": 127,
      "chip": "ym2612"
    },
    {
      "channel": 0,
      "note": 49,
      "start": 103.6239,
      "duration": 0.0367,
      "velocity": 79,
      "chip": "ym2612"
    },
    {
      "channel": 1,
      "note": 22,
      "start": 103.6266,
      "duration": 0.0947,
      "velocity": 127,
      "chip": "ym2612"
    },
    {
      "channel": 2,
      "note": 74,
      "start": 103.6293,
      "duration": 0.0001,
      "velocity": 1,
      "chip": "ym2612"
    },
    {
      "channel": 4,
      "note": 58,
      "start": 103.6328,
      "duration": 0.1292,
      "velocity": 127,
      "chip": "ym2612"
    },
    {
      "channel": 0,
      "note": 49,
      "start": 103.8631,
      "duration": 0.0368,
      "velocity": 79,
      "chip": "ym2612"
    },
    {
      "channel": 1,
      "note": 22,
      "start": 103.8658,
      "duration": 0.115,
      "velocity": 125,
      "chip": "ym2612"
    },
    {
      "channel": 2,
      "note": 74,
      "start": 103.8684,
      "duration": 0.0001,
      "velocity": 1,
      "chip": "ym2612"
    },
    {
      "channel": 4,
      "note": 58,
      "start": 103.872,
      "duration": 0.0308,
      "velocity": 127,
      "chip": "ym2612"
    },
    {
      "channel": 4,
      "note": 58,
      "start": 103.9848,
      "duration": 0.0365,
      "velocity": 127,
      "chip": "ym2612"
    },
    {
      "channel": 0,
      "note": 61,
      "start": 104.1024,
      "duration": 0.0367,
      "velocity": 79,
      "chip": "ym2612"
    },
    {
      "channel": 1,
      "note": 24,
      "start": 104.105,
      "duration": 0.0951,
      "velocity": 127,
      "chip": "ym2612"
    },
    {
      "channel": 2,
      "note": 74,
      "start": 104.1078,
      "duration": 0.0001,
      "velocity": 1,
      "chip": "ym2612"
    },
    {
      "channel": 4,
      "note": 58,
      "start": 104.1113,
      "duration": 0.1295,
      "velocity": 127,
      "chip": "ym2612"
    },
    {
      "channel": 1,
      "note": 22,
      "start": 104.2221,
      "duration": 0.1203,
      "velocity": 125,
      "chip": "ym2612"
    },
    {
      "channel": 2,
      "note": 74,
      "start": 104.2247,
      "duration": 0.0001,
      "velocity": 1,
      "chip": "ym2612"
    },
    {
      "channel": 0,
      "note": 61,
      "start": 104.3415,
      "duration": 0.0369,
      "velocity": 79,
      "chip": "ym2612"
    },
    {
      "channel": 1,
      "note": 30,
      "start": 104.3441,
      "duration": 0.0957,
      "velocity": 127,
      "chip": "ym2612"
    },
    {
      "channel": 4,
      "note": 58,
      "start": 104.3482,
      "duration": 0.0331,
      "velocity": 127,
      "chip": "ym2612"
    },
    {
      "channel": 0,
      "note": 61,
      "start": 104.4612,
      "duration": 0.0368,
      "velocity": 79,
      "chip": "ym2612"
    },
    {
      "channel": 1,
      "note": 22,
      "start": 104.4639,
      "duration": 0.1151,
      "velocity": 125,
      "chip": "ym2612"
    },
    {
      "channel": 2,
      "note": 74,
      "start": 104.4665,
      "duration": 0.0001,
      "velocity": 1,
      "chip": "ym2612"
    },
    {
      "channel": 4,
      "note": 58,
      "start": 104.4701,
      "duration": 0.0308,
      "velocity": 127,
      "chip": "ym2612"
    },
    {
      "channel": 1,
      "note": 30,
      "start": 104.5811,
      "duration": 0.0972,
      "velocity": 127,
      "chip": "ym2612"
    },
    {
      "channel": 2,
      "note": 74,
      "start": 104.5839,
      "duration": 0.0001,
      "velocity": 1,
      "chip": "ym2612"
    },
    {
      "channel": 4,
      "note": 58,
      "start": 104.5874,
      "duration": 0.1316,
      "velocity": 127,
      "chip": "ym2612"
    },
    {
      "channel": 0,
      "note": 61,
      "start": 104.6998,
      "duration": 0.0373,
      "velocity": 79,
      "chip": "ym2612"
    },
    {
      "channel": 1,
      "note": 22,
      "start": 104.8204,
      "duration": 0.1202,
      "velocity": 125,
      "chip": "ym2612"
    },
    {
      "channel": 2,
      "note": 74,
      "start": 104.823,
      "duration": 0.0001,
      "velocity": 1,
      "chip": "ym2612"
    },
    {
      "channel": 4,
      "note": 58,
      "start": 104.8266,
      "duration": 0.033,
      "velocity": 127,
      "chip": "ym2612"
    },
    {
      "channel": 0,
      "note": 61,
      "start": 104.9394,
      "duration": 0.037,
      "velocity": 79,
      "chip": "ym2612"
    },
    {
      "channel": 4,
      "note": 58,
      "start": 104.9441,
      "duration": 0.0343,
      "velocity": 127,
      "chip": "ym2612"
    },
    {
      "channel": 0,
      "note": 54,
      "start": 105.0593,
      "duration": 0.0367,
      "velocity": 79,
      "chip": "ym2612"
    },
    {
      "channel": 1,
      "note": 24,
      "start": 105.062,
      "duration": 0.0951,
      "velocity": 127,
      "chip": "ym2612"
    },
    {
      "channel": 2,
      "note": 74,
      "start": 105.0647,
      "duration": 0.0001,
      "velocity": 1,
      "chip": "ym2612"
    },
    {
      "channel": 4,
      "note": 58,
      "start": 105.0683,
      "duration": 0.1299,
      "velocity": 127,
      "chip": "ym2612"
    },
    {
      "channel": 1,
      "note": 22,
      "start": 105.1791,
      "duration": 0.0984,
      "velocity": 127,
      "chip": "ym2612"
    },
    {
      "channel": 2,
      "note": 74,
      "start": 105.1818,
      "duration": 0.0001,
      "velocity": 1,
      "chip": "ym2612"
    },
    {
      "channel": 0,
      "note": 56,
      "start": 105.2987,
      "duration": 0.0366,
      "velocity": 79,
      "chip": "ym2612"
    },
    {
      "channel": 1,
      "note": 22,
      "start": 105.3014,
      "duration": 0.0951,
      "velocity": 127,
      "chip": "ym2612"
    },
    {
      "channel": 2,
      "note": 74,
      "start": 105.3041,
      "duration": 0.0001,
      "velocity": 1,
      "chip": "ym2612"
    },
    {
      "channel": 3,
      "note": 83,
      "start": 105.3073,
      "duration": 0.1127,
      "velocity": 105,
      "chip": "ym2612"
    },
    {
      "channel": 4,
      "note": 58,
      "start": 105.3101,
      "duration": 0.0281,
      "velocity": 127,
      "chip": "ym2612"
    },
    {
      "channel": 2,
      "note": 74,
      "start": 105.4187,
      "duration": 0.0001,
      "velocity": 1,
      "chip": "ym2612"
    },
    {
      "channel": 3,
      "note": 75,
      "start": 105.4219,
      "duration": 0.1228,
      "velocity": 105,
      "chip": "ym2612"
    },
    {
      "channel": 4,
      "note": 58,
      "start": 105.4246,
      "duration": 0.0321,
      "velocity": 127,
      "chip": "ym2612"
    },
    {
      "channel": 0,
      "note": 49,
      "start": 105.5379,
      "duration": 0.0366,
      "velocity": 79,
      "chip": "ym2612"
    },
    {
      "channel": 1,
      "note": 22,
      "start": 105.5406,
      "duration": 0.0947,
      "velocity": 127,
      "chip": "ym2612"
    },
    {
      "channel": 2,
      "note": 74,
      "start": 105.5433,
      "duration": 0.0001,
      "velocity": 1,
      "chip": "ym2612"
    },
    {
      "channel": 3,
      "note": 73,
      "start": 105.5466,
      "duration": 0.1097,
      "velocity": 105,
      "chip": "ym2612"
    },
    {
      "channel": 4,
      "note": 58,
      "start": 105.5493,
      "duration": 0.1266,
      "velocity": 127,
      "chip": "ym2612"
    },
    {
      "channel": 3,
      "note": 70,
      "start": 105.6585,
      "duration": 0.1253,
      "velocity": 105,
      "chip": "ym2612"
    },
    {
      "channel": 0,
      "note": 49,
      "start": 105.7772,
      "duration": 0.0366,
      "velocity": 79,
      "chip": "ym2612"
    },
    {
      "channel": 1,
      "note": 22,
      "start": 105.7799,
      "duration": 0.115,
      "velocity": 125,
      "chip": "ym2612"
    },
    {
      "channel": 2,
      "note": 74,
      "start": 105.7825,
      "duration": 0.0001,
      "velocity": 1,
      "chip": "ym2612"
    },
    {
      "channel": 3,
      "note": 75,
      "start": 105.7857,
      "duration": 0.111,
      "velocity": 105,
      "chip": "ym2612"
    },
    {
      "channel": 4,
      "note": 58,
      "start": 105.7885,
      "duration": 0.0283,
      "velocity": 127,
      "chip": "ym2612"
    },
    {
      "channel": 3,
      "note": 73,
      "start": 105.8985,
      "duration": 0.1247,
      "velocity": 105,
      "chip": "ym2612"
    },
    {
      "channel": 4,
      "note": 58,
      "start": 105.9013,
      "duration": 0.0339,
      "velocity": 127,
      "chip": "ym2612"
    },
    {
      "channel": 0,
      "note": 61,
      "start": 106.0164,
      "duration": 0.0366,
      "velocity": 79,
      "chip": "ym2612"
    },
    {
      "channel": 1,
      "note": 24,
      "start": 106.0191,
      "duration": 0.0952,
      "velocity": 127,
      "chip": "ym2612"
    },
    {
      "channel": 2,
      "note": 74,
      "start": 106.0218,
      "duration": 0.0001,
      "velocity": 1,
      "chip": "ym2612"
    },
    {
      "channel": 3,
      "note": 70,
      "start": 106.025,
      "duration": 0.1151,
      "velocity": 105,
      "chip": "ym2612"
    },
    {
      "channel": 4,
      "note": 58,
      "start": 106.0278,
      "duration": 0.1269,
      "velocity": 127,
      "chip": "ym2612"
    },
    {
      "channel": 1,
      "note": 22,
      "start": 106.1362,
      "duration": 0.1203,
      "velocity": 125,
      "chip": "ym2612"
    },
    {
      "channel": 2,
      "note": 74,
      "start": 106.1388,
      "duration": 0.0001,
      "velocity": 1,
      "chip": "ym2612"
    },
    {
      "channel": 3,
      "note": 75,
      "start": 106.142,
      "duration": 0.118,
      "velocity": 105,
      "chip": "ym2612"
    },
    {
      "channel": 0,
      "note": 61,
      "start": 106.2555,
      "duration": 0.0368,
      "velocity": 79,
      "chip": "ym2612"
    },
    {
      "channel": 1,
      "note": 30,
      "start": 106.2582,
      "duration": 0.0957,
      "velocity": 127,
      "chip": "ym2612"
    },
    {
      "channel": 3,
      "note": 73,
      "start": 106.2619,
      "duration": 0.12,
      "velocity": 105,
      "chip": "ym2612"
    },
    {
      "channel": 4,
      "note": 58,
      "start": 106.2647,
      "duration": 0.0305,
      "velocity": 127,
      "chip": "ym2612"
    },
    {
      "channel": 0,
      "note": 61,
      "start": 106.3753,
      "duration": 0.0366,
      "velocity": 79,
      "chip": "ym2612"
    },
    {
      "channel": 1,
      "note": 22,
      "start": 106.378,
      "duration": 0.1151,
      "velocity": 125,
      "chip": "ym2612"
    },
    {
      "channel": 2,
      "note": 74,
      "start": 106.3806,
      "duration": 0.0001,
      "velocity": 1,
      "chip": "ym2612"
    },
    {
      "channel": 3,
      "note": 70,
      "start": 106.3838,
      "duration": 0.1155,
      "velocity": 105,
      "chip": "ym2612"
    },
    {
      "channel": 4,
      "note": 58,
      "start": 106.3866,
      "duration": 0.0283,
      "velocity": 127,
      "chip": "ym2612"
    },
    {
      "channel": 1,
      "note": 30,
      "start": 106.4952,
      "duration": 0.0973,
      "velocity": 127,
      "chip": "ym2612"
    },
    {
      "channel": 2,
      "note": 74,
      "start": 106.4979,
      "duration": 0.0001,
      "velocity": 1,
      "chip": "ym2612"
    },
    {
      "channel": 3,
      "note": 75,
      "start": 106.5011,
      "duration": 0.1149,
      "velocity": 105,
      "chip": "ym2612"
    },
    {
      "channel": 4,
      "note": 58,
      "start": 106.5039,
      "duration": 0.129,
      "velocity": 127,
      "chip": "ym2612"
    },
    {
      "channel": 0,
      "note": 61,
      "start": 106.6141,
      "duration": 0.037,
      "velocity": 79,
      "chip": "ym2612"
    },
    {
      "channel": 3,
      "note": 73,
      "start": 106.6179,
      "duration": 0.1205,
      "velocity": 105,
      "chip": "ym2612"
    },
    {
      "channel": 1,
      "note": 22,
      "start": 106.7344,
      "duration": 0.1202,
      "velocity": 125,
      "chip": "ym2612"
    },
    {
      "channel": 2,
      "note": 75,
      "start": 106.7371,
      "duration": 0.0001,
      "velocity": 1,
      "chip": "ym2612"
    },
    {
      "channel": 3,
      "note": 70,
      "start": 106.7403,
      "duration": 0.1157,
      "velocity": 105,
      "chip": "ym2612"
    },
    {
      "channel": 4,
      "note": 58,
      "start": 106.7431,
      "duration": 0.0304,
      "velocity": 127,
      "chip": "ym2612"
    },
    {
      "channel": 0,
      "note": 61,
      "start": 106.8535,
      "duration": 0.0369,
      "velocity": 79,
      "chip": "ym2612"
    },
    {
      "channel": 3,
      "note": 75,
      "start": 106.8578,
      "duration": 0.1222,
      "velocity": 105,
      "chip": "ym2612"
    },
    {
      "channel": 4,
      "note": 58,
      "start": 106.8606,
      "duration": 0.0317,
      "velocity": 127,
      "chip": "ym2612"
    },
    {
      "channel": 0,
      "note": 54,
      "start": 106.9734,
      "duration": 0.0366,
      "velocity": 79,
      "chip": "ym2612"
    },
    {
      "channel": 1,
      "note": 24,
      "start": 106.9761,
      "duration": 0.1178,
      "velocity": 125,
      "chip": "ym2612"
    },
    {
      "channel": 2,
      "note": 75,
      "start": 106.9787,
      "duration": 0.0001,
      "velocity": 1,
      "chip": "ym2612"
    },
    {
      "channel": 3,
      "note": 73,
      "start": 106.9819,
      "duration": 0.1176,
      "velocity": 105,
      "chip": "ym2612"
    },
    {
      "channel": 4,
      "note": 58,
      "start": 106.9847,
      "duration": 0.127,
      "velocity": 127,
      "chip": "ym2612"
    },
    {
      "channel": 0,
      "note": 56,
      "start": 107.0928,
      "duration": 0.0368,
      "velocity": 79,
      "chip": "ym2612"
    },
    {
      "channel": 1,
      "note": 30,
      "start": 107.0955,
      "duration": 0.1179,
      "velocity": 125,
      "chip": "ym2612"
    },
    {
      "channel": 2,
      "note": 74,
      "start": 107.0981,
      "duration": 0.0001,
      "velocity": 1,
      "chip": "ym2612"
    },
    {
      "channel": 3,
      "note": 70,
      "start": 107.1013,
      "duration": 0.1157,
      "velocity": 105,
      "chip": "ym2612"
    },
    {
      "channel": 0,
      "note": 58,
      "start": 107.2125,
      "duration": 0.0367,
      "velocity": 79,
      "chip": "ym2612"
    },
    {
      "channel": 1,
      "note": 30,
      "start": 107.2153,
      "duration": 0.334,
      "velocity": 105,
      "chip": "ym2612"
    },
    {
      "channel": 3,
      "note": 73,
      "start": 107.2188,
      "duration": 0.1151,
      "velocity": 95,
      "chip": "ym2612"
    },
    {
      "channel": 4,
      "note": 58,
      "start": 107.2215,
      "duration": 0.0302,
      "velocity": 127,
      "chip": "ym2612"
    },
    {
      "channel": 2,
      "note": 72,
      "start": 107.3328,
      "duration": 0.1203,
      "velocity": 95,
      "chip": "ym2612"
    },
    {
      "channel": 3,
      "note": 75,
      "start": 107.3356,
      "duration": 0.1203,
      "velocity": 95,
      "chip": "ym2612"
    },
    {
      "channel": 4,
      "note": 58,
      "start": 107.3383,
      "duration": 0.0322,
      "velocity": 127,
      "chip": "ym2612"
    },
    {
      "channel": 0,
      "note": 51,
      "start": 107.4517,
      "duration": 0.0367,
      "velocity": 79,
      "chip": "ym2612"
    },
    {
      "channel": 2,
      "note": 75,
      "start": 107.4548,
      "duration": 0.1149,
      "velocity": 95,
      "chip": "ym2612"
    },
    {
      "channel": 3,
      "note": 73,
      "start": 107.4576,
      "duration": 0.1153,
      "velocity": 95,
      "chip": "ym2612"
    },
    {
      "channel": 4,
      "note": 58,
      "start": 107.4604,
      "duration": 0.1295,
      "velocity": 127,
      "chip": "ym2612"
    },
    {
      "channel": 2,
      "note": 73,
      "start": 107.5719,
      "duration": 0.1203,
      "velocity": 95,
      "chip": "ym2612"
    },
    {
      "channel": 3,
      "note": 70,
      "start": 107.5746,
      "duration": 0.1202,
      "velocity": 95,
      "chip": "ym2612"
    },
    {
      "channel": 0,
      "note": 51,
      "start": 107.6908,
      "duration": 0.0369,
      "velocity": 79,
      "chip": "ym2612"
    },
    {
      "channel": 2,
      "note": 70,
      "start": 107.6939,
      "duration": 0.1149,
      "velocity": 95,
      "chip": "ym2612"
    },
    {
      "channel": 4,
      "note": 58,
      "start": 107.6973,
      "duration": 0.0323,
      "velocity": 127,
      "chip": "ym2612"
    },
    {
      "channel": 4,
      "note": 58,
      "start": 107.8122,
      "duration": 0.0371,
      "velocity": 127,
      "chip": "ym2612"
    },
    {
      "channel": 0,
      "note": 63,
      "start": 107.9299,
      "duration": 0.037,
      "velocity": 79,
      "chip": "ym2612"
    },
    {
      "channel": 4,
      "note": 58,
      "start": 107.9339,
      "duration": 0.1344,
      "velocity": 127,
      "chip": "ym2612"
    },
    {
      "channel": 0,
      "note": 63,
      "start": 108.1692,
      "duration": 0.037,
      "velocity": 79,
      "chip": "ym2612"
    },
    {
      "channel": 4,
      "note": 58,
      "start": 108.1732,
      "duration": 0.0349,
      "velocity": 127,
      "chip": "ym2612"
    },
    {
      "channel": 0,
      "note": 61,
      "start": 108.2888,
      "duration": 0.037,
      "velocity": 79,
      "chip": "ym2612"
    },
    {
      "channel": 4,
      "note": 58,
      "start": 108.2928,
      "duration": 0.0349,
      "velocity": 127,
      "chip": "ym2612"
    },
    {
      "channel": 4,
      "note": 58,
      "start": 108.4101,
      "duration": 0.1368,
      "velocity": 127,
      "chip": "ym2612"
    },
    {
      "channel": 0,
      "note": 61,
      "start": 108.5277,
      "duration": 0.0374,
      "velocity": 79,
      "chip": "ym2612"
    },
    {
      "channel": 4,
      "note": 58,
      "start": 108.6493,
      "duration": 0.037,
      "velocity": 127,
      "chip": "ym2612"
    },
    {
      "channel": 0,
      "note": 61,
      "start": 108.7673,
      "duration": 0.037,
      "velocity": 79,
      "chip": "ym2612"
    },
    {
      "channel": 4,
      "note": 58,
      "start": 108.7713,
      "duration": 0.0349,
      "velocity": 127,
      "chip": "ym2612"
    },
    {
      "channel": 0,
      "note": 56,
      "start": 108.887,
      "duration": 0.0369,
      "velocity": 79,
      "chip": "ym2612"
    },
    {
      "channel": 3,
      "note": 75,
      "start": 108.8906,
      "duration": 0.1177,
      "velocity": 95,
      "chip": "ym2612"
    },
    {
      "channel": 4,
      "note": 58,
      "start": 108.8934,
      "duration": 0.132,
      "velocity": 127,
      "chip": "ym2612"
    },
    {
      "channel": 2,
      "note": 75,
      "start": 109.0073,
      "duration": 0.1205,
      "velocity": 95,
      "chip": "ym2612"
    },
    {
      "channel": 3,
      "note": 73,
      "start": 109.0101,
      "duration": 0.1204,
      "velocity": 95,
      "chip": "ym2612"
    },
    {
      "channel": 0,
      "note": 58,
      "start": 109.1264,
      "duration": 0.0367,
      "velocity": 79,
      "chip": "ym2612"
    },
    {
      "channel": 2,
      "note": 73,
      "start": 109.1295,
      "duration": 0.1151,
      "velocity": 95,
      "chip": "ym2612"
    },
    {
      "channel": 3,
      "note": 75,
      "start": 109.1322,
      "duration": 0.1155,
      "velocity": 95,
      "chip": "ym2612"
    },
    {
      "channel": 4,
      "note": 58,
      "start": 109.135,
      "duration": 0.03,
      "velocity": 127,
      "chip": "ym2612"
    },
    {
      "channel": 2,
      "note": 75,
      "start": 109.2468,
      "duration": 0.1203,
      "velocity": 95,
      "chip": "ym2612"
    },
    {
      "channel": 3,
      "note": 78,
      "start": 109.2495,
      "duration": 0.1202,
      "velocity": 95,
      "chip": "ym2612"
    },
    {
      "channel": 4,
      "note": 58,
      "start": 109.2523,
      "duration": 0.0321,
      "velocity": 127,
      "chip": "ym2612"
    },
    {
      "channel": 0,
      "note": 51,
      "start": 109.3656,
      "duration": 0.0367,
      "velocity": 79,
      "chip": "ym2612"
    },
    {
      "channel": 2,
      "note": 78,
      "start": 109.3687,
      "duration": 0.115,
      "velocity": 95,
      "chip": "ym2612"
    },
    {
      "channel": 3,
      "note": 77,
      "start": 109.3715,
      "duration": 0.1153,
      "velocity": 95,
      "chip": "ym2612"
    },
    {
      "channel": 4,
      "note": 58,
      "start": 109.3743,
      "duration": 0.1295,
      "velocity": 127,
      "chip": "ym2612"
    },
    {
      "channel": 2,
      "note": 77,
      "start": 109.4858,
      "duration": 0.1203,
      "velocity": 95,
      "chip": "ym2612"
    },
    {
      "channel": 3,
      "note": 73,
      "start": 109.4885,
      "duration": 0.1202,
      "velocity": 95,
      "chip": "ym2612"
    },
    {
      "channel": 0,
      "note": 51,
      "start": 109.6047,
      "duration": 0.0369,
      "velocity": 79,
      "chip": "ym2612"
    },
    {
      "channel": 2,
      "note": 73,
      "start": 109.6078,
      "duration": 0.1151,
      "velocity": 95,
      "chip": "ym2612"
    },
    {
      "channel": 4,
      "note": 58,
      "start": 109.6112,
      "duration": 0.0323,
      "velocity": 127,
      "chip": "ym2612"
    },
    {
      "channel": 3,
      "note": 78,
      "start": 109.7258,
      "duration": 0.1225,
      "velocity": 95,
      "chip": "ym2612"
    },
    {
      "channel": 4,
      "note": 58,
      "start": 109.7285,
      "duration": 0.0344,
      "velocity": 127,
      "chip": "ym2612"
    },
    {
      "channel": 0,
      "note": 63,
      "start": 109.8441,
      "duration": 0.0367,
      "velocity": 79,
      "chip": "ym2612"
    },
    {
      "channel": 2,
      "note": 78,
      "start": 109.8472,
      "duration": 0.1149,
      "velocity": 95,
      "chip": "ym2612"
    },
    {
      "channel": 3,
      "note": 77,
      "start": 109.85,
      "duration": 0.1153,
      "velocity": 95,
      "chip": "ym2612"
    },
    {
      "channel": 4,
      "note": 58,
      "start": 109.8528,
      "duration": 0.1295,
      "velocity": 127,
      "chip": "ym2612"
    },
    {
      "channel": 2,
      "note": 77,
      "start": 109.9643,
      "duration": 0.1203,
      "velocity": 95,
      "chip": "ym2612"
    },
    {
      "channel": 3,
      "note": 80,
      "start": 109.9671,
      "duration": 0.1202,
      "velocity": 95,
      "chip": "ym2612"
    },
    {
      "channel": 0,
      "note": 63,
      "start": 110.0832,
      "duration": 0.0369,
      "velocity": 79,
      "chip": "ym2612"
    },
    {
      "channel": 2,
      "note": 80,
      "start": 110.0863,
      "duration": 0.1178,
      "velocity": 95,
      "chip": "ym2612"
    },
    {
      "channel": 4,
      "note": 58,
      "start": 110.0897,
      "duration": 0.0323,
      "velocity": 127,
      "chip": "ym2612"
    },
    {
      "channel": 0,
      "note": 61,
      "start": 110.2027,
      "duration": 0.037,
      "velocity": 79,
      "chip": "ym2612"
    },
    {
      "channel": 4,
      "note": 58,
      "start": 110.207,
      "duration": 0.0349,
      "velocity": 127,
      "chip": "ym2612"
    },
    {
      "channel": 4,
      "note": 58,
      "start": 110.324,
      "duration": 0.1368,
      "velocity": 127,
      "chip": "ym2612"
    },
    {
      "channel": 0,
      "note": 61,
      "start": 110.4416,
      "duration": 0.0373,
      "velocity": 79,
      "chip": "ym2612"
    },
    {
      "channel": 3,
      "note": 82,
      "start": 110.5629,
      "duration": 0.1224,
      "velocity": 95,
      "chip": "ym2612"
    },
    {
      "channel": 4,
      "note": 58,
      "start": 110.5657,
      "duration": 0.0346,
      "velocity": 127,
      "chip": "ym2612"
    },
    {
      "channel": 0,
      "note": 61,
      "start": 110.6813,
      "duration": 0.0369,
      "velocity": 79,
      "chip": "ym2612"
    },
    {
      "channel": 2,
      "note": 82,
      "start": 110.6844,
      "duration": 0.1179,
      "velocity": 95,
      "chip": "ym2612"
    },
    {
      "channel": 4,
      "note": 58,
      "start": 110.6878,
      "duration": 0.0323,
      "velocity": 127,
      "chip": "ym2612"
    },
    {
      "channel": 0,
      "note": 56,
      "start": 110.801,
      "duration": 0.0368,
      "velocity": 79,
      "chip": "ym2612"
    },
    {
      "channel": 3,
      "note": 85,
      "start": 110.8047,
      "duration": 0.1175,
      "velocity": 95,
      "chip": "ym2612"
    },
    {
      "channel": 4,
      "note": 58,
      "start": 110.8075,
      "duration": 0.1318,
      "velocity": 127,
      "chip": "ym2612"
    },
    {
      "channel": 2,
      "note": 85,
      "start": 110.9212,
      "duration": 0.1205,
      "velocity": 95,
      "chip": "ym2612"
    },
    {
      "channel": 3,
      "note": 80,
      "start": 110.924,
      "duration": 0.1204,
      "velocity": 95,
      "chip": "ym2612"
    },
    {
      "channel": 0,
      "note": 58,
      "start": 111.0403,
      "duration": 0.0367,
      "velocity": 79,
      "chip": "ym2612"
    },
    {
      "channel": 2,
      "note": 80,
      "start": 111.0434,
      "duration": 0.1151,
      "velocity": 95,
      "chip": "ym2612"
    },
    {
      "channel": 3,
      "note": 82,
      "start": 111.0462,
      "duration": 0.1155,
      "velocity": 95,
      "chip": "ym2612"
    },
    {
      "channel": 4,
      "note": 58,
      "start": 111.049,
      "duration": 0.03,
      "velocity": 127,
      "chip": "ym2612"
    },
    {
      "channel": 2,
      "note": 82,
      "start": 111.1606,
      "duration": 0.1203,
      "velocity": 95,
      "chip": "ym2612"
    },
    {
      "channel": 3,
      "note": 80,
      "start": 111.1634,
      "duration": 0.1202,
      "velocity": 95,
      "chip": "ym2612"
    },
    {
      "channel": 4,
      "note": 58,
      "start": 111.1662,
      "duration": 0.0322,
      "velocity": 127,
      "chip": "ym2612"
    },
    {
      "channel": 0,
      "note": 49,
      "start": 111.2795,
      "duration": 0.0367,
      "velocity": 79,
      "chip": "ym2612"
    },
    {
      "channel": 2,
      "note": 80,
      "start": 111.2826,
      "duration": 0.115,
      "velocity": 95,
      "chip": "ym2612"
    },
    {
      "channel": 3,
      "note": 78,
      "start": 111.2854,
      "duration": 0.1153,
      "velocity": 95,
      "chip": "ym2612"
    },
    {
      "channel": 4,
      "note": 58,
      "start": 111.2882,
      "duration": 0.1296,
      "velocity": 127,
      "chip": "ym2612"
    },
    {
      "channel": 2,
      "note": 78,
      "start": 111.3997,
      "duration": 0.1203,
      "velocity": 95,
      "chip": "ym2612"
    },
    {
      "channel": 3,
      "note": 77,
      "start": 111.4025,
      "duration": 0.1202,
      "velocity": 95,
      "chip": "ym2612"
    },
    {
      "channel": 0,
      "note": 49,
      "start": 111.5186,
      "duration": 0.0369,
      "velocity": 79,
      "chip": "ym2612"
    },
    {
      "channel": 2,
      "note": 77,
      "start": 111.5217,
      "duration": 0.1149,
      "velocity": 95,
      "chip": "ym2612"
    },
    {
      "channel": 4,
      "note": 58,
      "start": 111.5251,
      "duration": 0.0323,
      "velocity": 127,
      "chip": "ym2612"
    },
    {
      "channel": 4,
      "note": 58,
      "start": 111.64,
      "duration": 0.037,
      "velocity": 127,
      "chip": "ym2612"
    },
    {
      "channel": 0,
      "note": 61,
      "start": 111.7578,
      "duration": 0.037,
      "velocity": 79,
      "chip": "ym2612"
    },
    {
      "channel": 4,
      "note": 58,
      "start": 111.7618,
      "duration": 0.1344,
      "velocity": 127,
      "chip": "ym2612"
    },
    {
      "channel": 0,
      "note": 61,
      "start": 111.997,
      "duration": 0.037,
      "velocity": 79,
      "chip": "ym2612"
    },
    {
      "channel": 4,
      "note": 58,
      "start": 112.001,
      "duration": 0.0349,
      "velocity": 127,
      "chip": "ym2612"
    },
    {
      "channel": 0,
      "note": 61,
      "start": 112.1166,
      "duration": 0.037,
      "velocity": 79,
      "chip": "ym2612"
    },
    {
      "channel": 4,
      "note": 58,
      "start": 112.1206,
      "duration": 0.0349,
      "velocity": 127,
      "chip": "ym2612"
    },
    {
      "channel": 4,
      "note": 58,
      "start": 112.2379,
      "duration": 0.1368,
      "velocity": 127,
      "chip": "ym2612"
    },
    {
      "channel": 0,
      "note": 61,
      "start": 112.3555,
      "duration": 0.0373,
      "velocity": 79,
      "chip": "ym2612"
    },
    {
      "channel": 4,
      "note": 58,
      "start": 112.4771,
      "duration": 0.0371,
      "velocity": 127,
      "chip": "ym2612"
    },
    {
      "channel": 0,
      "note": 61,
      "start": 112.5951,
      "duration": 0.037,
      "velocity": 79,
      "chip": "ym2612"
    },
    {
      "channel": 4,
      "note": 58,
      "start": 112.5991,
      "duration": 0.0349,
      "velocity": 127,
      "chip": "ym2612"
    },
    {
      "channel": 0,
      "note": 54,
      "start": 112.7149,
      "duration": 0.0369,
      "velocity": 79,
      "chip": "ym2612"
    },
    {
      "channel": 3,
      "note": 73,
      "start": 112.7184,
      "duration": 0.1178,
      "velocity": 95,
      "chip": "ym2612"
    },
    {
      "channel": 4,
      "note": 58,
      "start": 112.7212,
      "duration": 0.132,
      "velocity": 127,
      "chip": "ym2612"
    },
    {
      "channel": 2,
      "note": 73,
      "start": 112.8352,
      "duration": 0.1204,
      "velocity": 95,
      "chip": "ym2612"
    },
    {
      "channel": 3,
      "note": 77,
      "start": 112.838,
      "duration": 0.1204,
      "velocity": 95,
      "chip": "ym2612"
    },
    {
      "channel": 0,
      "note": 56,
      "start": 112.9542,
      "duration": 0.0367,
      "velocity": 79,
      "chip": "ym2612"
    },
    {
      "channel": 2,
      "note": 77,
      "start": 112.9573,
      "duration": 0.115,
      "velocity": 95,
      "chip": "ym2612"
    },
    {
      "channel": 3,
      "note": 78,
      "start": 112.9601,
      "duration": 0.1153,
      "velocity": 95,
      "chip": "ym2612"
    },
    {
      "channel": 4,
      "note": 58,
      "start": 112.9629,
      "duration": 0.03,
      "velocity": 127,
      "chip": "ym2612"
    },
    {
      "channel": 2,
      "note": 78,
      "start": 113.0744,
      "duration": 0.1201,
      "velocity": 95,
      "chip": "ym2612"
    },
    {
      "channel": 4,
      "note": 58,
      "start": 113.0778,
      "duration": 0.0345,
      "velocity": 127,
      "chip": "ym2612"
    },
    {
      "channel": 0,
      "note": 49,
      "start": 113.1932,
      "duration": 0.037,
      "velocity": 79,
      "chip": "ym2612"
    },
    {
      "channel": 4,
      "note": 58,
      "start": 113.1974,
      "duration": 0.1343,
      "velocity": 127,
      "chip": "ym2612"
    },
    {
      "channel": 0,
      "note": 49,
      "start": 113.4326,
      "duration": 0.0368,
      "velocity": 79,
      "chip": "ym2612"
    },
    {
      "channel": 3,
      "note": 81,
      "start": 113.4362,
      "duration": 0.1177,
      "velocity": 95,
      "chip": "ym2612"
    },
    {
      "channel": 4,
      "note": 58,
      "start": 113.439,
      "duration": 0.0324,
      "velocity": 127,
      "chip": "ym2612"
    },
    {
      "channel": 2,
      "note": 81,
      "start": 113.5529,
      "duration": 0.1201,
      "velocity": 95,
      "chip": "ym2612"
    },
    {
      "channel": 4,
      "note": 58,
      "start": 113.5563,
      "duration": 0.0344,
      "velocity": 127,
      "chip": "ym2612"
    },
    {
      "channel": 0,
      "note": 61,
      "start": 113.6717,
      "duration": 0.037,
      "velocity": 79,
      "chip": "ym2612"
    },
    {
      "channel": 4,
      "note": 58,
      "start": 113.6759,
      "duration": 0.1342,
      "velocity": 127,
      "chip": "ym2612"
    },
    {
      "channel": 0,
      "note": 61,
      "start": 113.911,
      "duration": 0.0369,
      "velocity": 79,
      "chip": "ym2612"
    },
    {
      "channel": 3,
      "note": 83,
      "start": 113.9146,
      "duration": 0.1203,
      "velocity": 95,
      "chip": "ym2612"
    },
    {
      "channel": 4,
      "note": 58,
      "start": 113.9175,
      "duration": 0.0324,
      "velocity": 127,
      "chip": "ym2612"
    },
    {
      "channel": 0,
      "note": 61,
      "start": 114.0308,
      "duration": 0.0367,
      "velocity": 79,
      "chip": "ym2612"
    },
    {
      "channel": 2,
      "note": 83,
      "start": 114.0339,
      "duration": 0.1151,
      "velocity": 95,
      "chip": "ym2612"
    },
    {
      "channel": 3,
      "note": 80,
      "start": 114.0367,
      "duration": 0.1155,
      "velocity": 95,
      "chip": "ym2612"
    },
    {
      "channel": 4,
      "note": 58,
      "start": 114.0395,
      "duration": 0.03,
      "velocity": 127,
      "chip": "ym2612"
    },
    {
      "channel": 2,
      "note": 80,
      "start": 114.1512,
      "duration": 0.12,
      "velocity": 95,
      "chip": "ym2612"
    },
    {
      "channel": 3,
      "note": 78,
      "start": 114.1539,
      "duration": 0.1199,
      "velocity": 95,
      "chip": "ym2612"
    },
    {
      "channel": 4,
      "note": 58,
      "start": 114.1567,
      "duration": 0.1319,
      "velocity": 127,
      "chip": "ym2612"
    },
    {
      "channel": 0,
      "note": 61,
      "start": 114.2698,
      "duration": 0.037,
      "velocity": 79,
      "chip": "ym2612"
    },
    {
      "channel": 2,
      "note": 78,
      "start": 114.2728,
      "duration": 0.1152,
      "velocity": 95,
      "chip": "ym2612"
    },
    {
      "channel": 3,
      "note": 77,
      "start": 114.3909,
      "duration": 0.1225,
      "velocity": 95,
      "chip": "ym2612"
    },
    {
      "channel": 4,
      "note": 58,
      "start": 114.3937,
      "duration": 0.0344,
      "velocity": 127,
      "chip": "ym2612"
    },
    {
      "channel": 0,
      "note": 61,
      "start": 114.5093,
      "duration": 0.0367,
      "velocity": 79,
      "chip": "ym2612"
    },
    {
      "channel": 2,
      "note": 77,
      "start": 114.5124,
      "duration": 0.118,
      "velocity": 95,
      "chip": "ym2612"
    },
    {
      "channel": 3,
      "note": 80,
      "start": 114.5151,
      "duration": 0.1179,
      "velocity": 95,
      "chip": "ym2612"
    },
    {
      "channel": 4,
      "note": 58,
      "start": 114.5179,
      "duration": 0.03,
      "velocity": 127,
      "chip": "ym2612"
    },
    {
      "channel": 0,
      "note": 56,
      "start": 114.6289,
      "duration": 0.0367,
      "velocity": 79,
      "chip": "ym2612"
    },
    {
      "channel": 2,
      "note": 80,
      "start": 114.632,
      "duration": 0.1176,
      "velocity": 95,
      "chip": "ym2612"
    },
    {
      "channel": 3,
      "note": 78,
      "start": 114.6348,
      "duration": 0.1175,
      "velocity": 95,
      "chip": "ym2612"
    },
    {
      "channel": 4,
      "note": 58,
      "start": 114.6376,
      "duration": 0.1295,
      "velocity": 127,
      "chip": "ym2612"
    },
    {
      "channel": 0,
      "note": 58,
      "start": 114.7482,
      "duration": 0.0371,
      "velocity": 79,
      "chip": "ym2612"
    },
    {
      "channel": 2,
      "note": 78,
      "start": 114.7513,
      "duration": 0.118,
      "velocity": 95,
      "chip": "ym2612"
    },
    {
      "channel": 0,
      "note": 59,
      "start": 114.868,
      "duration": 0.0369,
      "velocity": 79,
      "chip": "ym2612"
    },
    {
      "channel": 3,
      "note": 77,
      "start": 114.8718,
      "duration": 0.1177,
      "velocity": 95,
      "chip": "ym2612"
    },
    {
      "channel": 4,
      "note": 58,
      "start": 114.8746,
      "duration": 0.0322,
      "velocity": 127,
      "chip": "ym2612"
    },
    {
      "channel": 2,
      "note": 77,
      "start": 114.9885,
      "duration": 0.1203,
      "velocity": 95,
      "chip": "ym2612"
    },
    {
      "channel": 3,
      "note": 75,
      "start": 114.9912,
      "duration": 0.1202,
      "velocity": 95,
      "chip": "ym2612"
    },
    {
      "channel": 4,
      "note": 58,
      "start": 114.994,
      "duration": 0.0322,
      "velocity": 127,
      "chip": "ym2612"
    },
    {
      "channel": 0,
      "note": 51,
      "start": 115.1074,
      "duration": 0.0367,
      "velocity": 79,
      "chip": "ym2612"
    },
    {
      "channel": 2,
      "note": 75,
      "start": 115.1105,
      "duration": 0.115,
      "velocity": 95,
      "chip": "ym2612"
    },
    {
      "channel": 3,
      "note": 70,
      "start": 115.1132,
      "duration": 0.1154,
      "velocity": 95,
      "chip": "ym2612"
    },
    {
      "channel": 4,
      "note": 58,
      "start": 115.116,
      "duration": 0.1296,
      "velocity": 127,
      "chip": "ym2612"
    },
    {
      "channel": 2,
      "note": 70,
      "start": 115.2276,
      "duration": 0.1203,
      "velocity": 95,
      "chip": "ym2612"
    },
    {
      "channel": 3,
      "note": 78,
      "start": 115.2303,
      "duration": 0.1202,
      "velocity": 95,
      "chip": "ym2612"
    },
    {
      "channel": 0,
      "note": 51,
      "start": 115.3465,
      "duration": 0.0369,
      "velocity": 79,
      "chip": "ym2612"
    },
    {
      "channel": 2,
      "note": 78,
      "start": 115.3496,
      "duration": 0.1151,
      "velocity": 95,
      "chip": "ym2612"
    },
    {
      "channel": 4,
      "note": 58,
      "start": 115.353,
      "duration": 0.0323,
      "velocity": 127,
      "chip": "ym2612"
    },
    {
      "channel": 3,
      "note": 77,
      "start": 115.4675,
      "duration": 0.1224,
      "velocity": 95,
      "chip": "ym2612"
    },
    {
      "channel": 4,
      "note": 58,
      "start": 115.4703,
      "duration": 0.0344,
      "velocity": 127,
      "chip": "ym2612"
    },
    {
      "channel": 0,
      "note": 63,
      "start": 115.5859,
      "duration": 0.0367,
      "velocity": 79,
      "chip": "ym2612"
    },
    {
      "channel": 2,
      "note": 77,
      "start": 115.589,
      "duration": 0.115,
      "velocity": 95,
      "chip": "ym2612"
    },
    {
      "channel": 3,
      "note": 73,
      "start": 115.5917,
      "duration": 0.1154,
      "velocity": 95,
      "chip": "ym2612"
    },
    {
      "channel": 4,
      "note": 58,
      "start": 115.5945,
      "duration": 0.1296,
      "velocity": 127,
      "chip": "ym2612"
    },
    {
      "channel": 2,
      "note": 73,
      "start": 115.706,
      "duration": 0.1204,
      "velocity": 95,
      "chip": "ym2612"
    },
    {
      "channel": 3,
      "note": 70,
      "start": 115.7088,
      "duration": 0.1202,
      "velocity": 95,
      "chip": "ym2612"
    },
    {
      "channel": 0,
      "note": 63,
      "start": 115.8249,
      "duration": 0.0369,
      "velocity": 79,
      "chip": "ym2612"
    },
    {
      "channel": 2,
      "note": 70,
      "start": 115.8281,
      "duration": 0.1179,
      "velocity": 95,
      "chip": "ym2612"
    },
    {
      "channel": 4,
      "note": 58,
      "start": 115.8315,
      "duration": 0.0322,
      "velocity": 127,
      "chip": "ym2612"
    },
    {
      "channel": 0,
      "note": 61,
      "start": 115.9446,
      "duration": 0.0369,
      "velocity": 79,
      "chip": "ym2612"
    },
    {
      "channel": 3,
      "note": 75,
      "start": 115.9484,
      "duration": 0.1177,
      "velocity": 95,
      "chip": "ym2612"
    },
    {
      "channel": 4,
      "note": 58,
      "start": 115.9512,
      "duration": 0.0322,
      "velocity": 127,
      "chip": "ym2612"
    },
    {
      "channel": 2,
      "note": 75,
      "start": 116.0651,
      "duration": 0.1202,
      "velocity": 95,
      "chip": "ym2612"
    },
    {
      "channel": 3,
      "note": 70,
      "start": 116.0678,
      "duration": 0.1201,
      "velocity": 95,
      "chip": "ym2612"
    },
    {
      "channel": 4,
      "note": 58,
      "start": 116.0706,
      "duration": 0.132,
      "velocity": 127,
      "chip": "ym2612"
    },
    {
      "channel": 0,
      "note": 61,
      "start": 116.1838,
      "duration": 0.0369,
      "velocity": 79,
      "chip": "ym2612"
    },
    {
      "channel": 2,
      "note": 70,
      "start": 116.1869,
      "duration": 0.1151,
      "velocity": 95,
      "chip": "ym2612"
    },
    {
      "channel": 3,
      "note": 78,
      "start": 116.1896,
      "duration": 0.1155,
      "velocity": 95,
      "chip": "ym2612"
    },
    {
      "channel": 2,
      "note": 78,
      "start": 116.3041,
      "duration": 0.1203,
      "velocity": 95,
      "chip": "ym2612"
    },
    {
      "channel": 4,
      "note": 58,
      "start": 116.3076,
      "duration": 0.0344,
      "velocity": 127,
      "chip": "ym2612"
    },
    {
      "channel": 0,
      "note": 61,
      "start": 116.4231,
      "duration": 0.0369,
      "velocity": 79,
      "chip": "ym2612"
    },
    {
      "channel": 3,
      "note": 77,
      "start": 116.4269,
      "duration": 0.12,
      "velocity": 95,
      "chip": "ym2612"
    },
    {
      "channel": 4,
      "note": 58,
      "start": 116.4297,
      "duration": 0.0322,
      "velocity": 127,
      "chip": "ym2612"
    },
    {
      "channel": 0,
      "note": 56,
      "start": 116.5428,
      "duration": 0.0367,
      "velocity": 79,
      "chip": "ym2612"
    },
    {
      "channel": 2,
      "note": 77,
      "start": 116.5459,
      "duration": 0.1148,
      "velocity": 95,
      "chip": "ym2612"
    },
    {
      "channel": 3,
      "note": 73,
      "start": 116.5487,
      "duration": 0.1151,
      "velocity": 95,
      "chip": "ym2612"
    },
    {
      "channel": 4,
      "note": 58,
      "start": 116.5515,
      "duration": 0.1295,
      "velocity": 127,
      "chip": "ym2612"
    },
    {
      "channel": 2,
      "note": 73,
      "start": 116.6629,
      "duration": 0.1204,
      "velocity": 95,
      "chip": "ym2612"
    },
    {
      "channel": 0,
      "note": 58,
      "start": 116.7819,
      "duration": 0.0368,
      "velocity": 79,
      "chip": "ym2612"
    },
    {
      "channel": 3,
      "note": 70,
      "start": 116.7857,
      "duration": 0.1177,
      "velocity": 95,
      "chip": "ym2612"
    },
    {
      "channel": 4,
      "note": 58,
      "start": 116.7885,
      "duration": 0.0322,
      "velocity": 127,
      "chip": "ym2612"
    },
    {
      "channel": 2,
      "note": 70,
      "start": 116.9024,
      "duration": 0.1203,
      "velocity": 95,
      "chip": "ym2612"
    },
    {
      "channel": 3,
      "note": 80,
      "start": 116.9051,
      "duration": 0.1203,
      "velocity": 95,
      "chip": "ym2612"
    },
    {
      "channel": 4,
      "note": 58,
      "start": 116.9079,
      "duration": 0.0322,
      "velocity": 127,
      "chip": "ym2612"
    },
    {
      "channel": 0,
      "note": 51,
      "start": 117.0213,
      "duration": 0.0367,
      "velocity": 79,
      "chip": "ym2612"
    },
    {
      "channel": 2,
      "note": 80,
      "start": 117.0244,
      "duration": 0.1149,
      "velocity": 95,
      "chip": "ym2612"
    },
    {
      "channel": 3,
      "note": 82,
      "start": 117.0272,
      "duration": 0.1153,
      "velocity": 95,
      "chip": "ym2612"
    },
    {
      "channel": 4,
      "note": 58,
      "start": 117.03,
      "duration": 0.1295,
      "velocity": 127,
      "chip": "ym2612"
    },
    {
      "channel": 2,
      "note": 82,
      "start": 117.1415,
      "duration": 0.1203,
      "velocity": 95,
      "chip": "ym2612"
    },
    {
      "channel": 3,
      "note": 78,
      "start": 117.1442,
      "duration": 0.1202,
      "velocity": 95,
      "chip": "ym2612"
    },
    {
      "channel": 0,
      "note": 51,
      "start": 117.2604,
      "duration": 0.0369,
      "velocity": 79,
      "chip": "ym2612"
    },
    {
      "channel": 2,
      "note": 78,
      "start": 117.2635,
      "duration": 0.1151,
      "velocity": 95,
      "chip": "ym2612"
    },
    {
      "channel": 4,
      "note": 58,
      "start": 117.2669,
      "duration": 0.0323,
      "velocity": 127,
      "chip": "ym2612"
    },
    {
      "channel": 3,
      "note": 75,
      "start": 117.3814,
      "duration": 0.1224,
      "velocity": 95,
      "chip": "ym2612"
    },
    {
      "channel": 4,
      "note": 58,
      "start": 117.3842,
      "duration": 0.0344,
      "velocity": 127,
      "chip": "ym2612"
    },
    {
      "channel": 0,
      "note": 63,
      "start": 117.4998,
      "duration": 0.0367,
      "velocity": 79,
      "chip": "ym2612"
    },
    {
      "channel": 2,
      "note": 75,
      "start": 117.5029,
      "duration": 0.115,
      "velocity": 95,
      "chip": "ym2612"
    },
    {
      "channel": 3,
      "note": 78,
      "start": 117.5056,
      "duration": 0.1154,
      "velocity": 95,
      "chip": "ym2612"
    },
    {
      "channel": 4,
      "note": 58,
      "start": 117.5084,
      "duration": 0.1296,
      "velocity": 127,
      "chip": "ym2612"
    },
    {
      "channel": 2,
      "note": 78,
      "start": 117.62,
      "duration": 0.1203,
      "velocity": 95,
      "chip": "ym2612"
    },
    {
      "channel": 3,
      "note": 75,
      "start": 117.6227,
      "duration": 0.1202,
      "velocity": 95,
      "chip": "ym2612"
    },
    {
      "channel": 0,
      "note": 63,
      "start": 117.7389,
      "duration": 0.0369,
      "velocity": 79,
      "chip": "ym2612"
    },
    {
      "channel": 2,
      "note": 75,
      "start": 117.742,
      "duration": 0.1178,
      "velocity": 95,
      "chip": "ym2612"
    },
    {
      "channel": 4,
      "note": 58,
      "start": 117.7454,
      "duration": 0.0323,
      "velocity": 127,
      "chip": "ym2612"
    },
    {
      "channel": 0,
      "note": 61,
      "start": 117.8584,
      "duration": 0.037,
      "velocity": 79,
      "chip": "ym2612"
    },
    {
      "channel": 4,
      "note": 58,
      "start": 117.8626,
      "duration": 0.0349,
      "velocity": 127,
      "chip": "ym2612"
    },
    {
      "channel": 3,
      "note": 83,
      "start": 117.9793,
      "duration": 0.1223,
      "velocity": 95,
      "chip": "ym2612"
    },
    {
      "channel": 4,
      "note": 58,
      "start": 117.9821,
      "duration": 0.1344,
      "velocity": 127,
      "chip": "ym2612"
    },
    {
      "channel": 0,
      "note": 61,
      "start": 118.0976,
      "duration": 0.037,
      "velocity": 79,
      "chip": "ym2612"
    },
    {
      "channel": 2,
      "note": 83,
      "start": 118.1007,
      "duration": 0.1153,
      "velocity": 95,
      "chip": "ym2612"
    },
    {
      "channel": 3,
      "note": 82,
      "start": 118.2188,
      "duration": 0.1222,
      "velocity": 95,
      "chip": "ym2612"
    },
    {
      "channel": 4,
      "note": 58,
      "start": 118.2216,
      "duration": 0.0343,
      "velocity": 127,
      "chip": "ym2612"
    },
    {
      "channel": 0,
      "note": 61,
      "start": 118.337,
      "duration": 0.0369,
      "velocity": 79,
      "chip": "ym2612"
    },
    {
      "channel": 2,
      "note": 82,
      "start": 118.3401,
      "duration": 0.1179,
      "velocity": 95,
      "chip": "ym2612"
    },
    {
      "channel": 4,
      "note": 58,
      "start": 118.3435,
      "duration": 0.0323,
      "velocity": 127,
      "chip": "ym2612"
    },
    {
      "channel": 0,
      "note": 56,
      "start": 118.4566,
      "duration": 0.0369,
      "velocity": 79,
      "chip": "ym2612"
    },
    {
      "channel": 3,
      "note": 80,
      "start": 118.4604,
      "duration": 0.1175,
      "velocity": 95,
      "chip": "ym2612"
    },
    {
      "channel": 4,
      "note": 58,
      "start": 118.4632,
      "duration": 0.1318,
      "velocity": 127,
      "chip": "ym2612"
    },
    {
      "channel": 2,
      "note": 80,
      "start": 118.5769,
      "duration": 0.1205,
      "velocity": 95,
      "chip": "ym2612"
    },
    {
      "channel": 3,
      "note": 78,
      "start": 118.5797,
      "duration": 0.1204,
      "velocity": 95,
      "chip": "ym2612"
    },
    {
      "channel": 0,
      "note": 58,
      "start": 118.696,
      "duration": 0.0367,
      "velocity": 79,
      "chip": "ym2612"
    },
    {
      "channel": 2,
      "note": 78,
      "start": 118.699,
      "duration": 0.115,
      "velocity": 95,
      "chip": "ym2612"
    },
    {
      "channel": 3,
      "note": 80,
      "start": 118.7018,
      "duration": 0.1153,
      "velocity": 95,
      "chip": "ym2612"
    },
    {
      "channel": 4,
      "note": 58,
      "start": 118.7046,
      "duration": 0.03,
      "velocity": 127,
      "chip": "ym2612"
    },
    {
      "channel": 2,
      "note": 80,
      "start": 118.8162,
      "duration": 0.1201,
      "velocity": 95,
      "chip": "ym2612"
    },
    {
      "channel": 4,
      "note": 58,
      "start": 118.8196,
      "duration": 0.0344,
      "velocity": 127,
      "chip": "ym2612"
    },
    {
      "channel": 0,
      "note": 49,
      "start": 118.9349,
      "duration": 0.037,
      "velocity": 79,
      "chip": "ym2612"
    },
    {
      "channel": 4,
      "note": 58,
      "start": 118.9391,
      "duration": 0.1343,
      "velocity": 127,
      "chip": "ym2612"
    },
    {
      "channel": 0,
      "note": 49,
      "start": 119.1742,
      "duration": 0.037,
      "velocity": 79,
      "chip": "ym2612"
    },
    {
      "channel": 4,
      "note": 58,
      "start": 119.1782,
      "duration": 0.0349,
      "velocity": 127,
      "chip": "ym2612"
    },
    {
      "channel": 4,
      "note": 58,
      "start": 119.2954,
      "duration": 0.0371,
      "velocity": 127,
      "chip": "ym2612"
    },
    {
      "channel": 0,
      "note": 61,
      "start": 119.4134,
      "duration": 0.037,
      "velocity": 79,
      "chip": "ym2612"
    },
    {
      "channel": 4,
      "note": 58,
      "start": 119.4175,
      "duration": 0.1344,
      "velocity": 127,
      "chip": "ym2612"
    },
    {
      "channel": 0,
      "note": 61,
      "start": 119.6527,
      "duration": 0.037,
      "velocity": 79,
      "chip": "ym2612"
    },
    {
      "channel": 4,
      "note": 58,
      "start": 119.6567,
      "duration": 0.0349,
      "velocity": 127,
      "chip": "ym2612"
    },
    {
      "channel": 0,
      "note": 61,
      "start": 119.7723,
      "duration": 0.037,
      "velocity": 79,
      "chip": "ym2612"
    },
    {
      "channel": 4,
      "note": 58,
      "start": 119.7763,
      "duration": 0.0349,
      "velocity": 127,
      "chip": "ym2612"
    },
    {
      "channel": 4,
      "note": 58,
      "start": 119.8935,
      "duration": 0.1368,
      "velocity": 127,
      "chip": "ym2612"
    },
    {
      "channel": 0,
      "note": 61,
      "start": 120.0112,
      "duration": 0.0374,
      "velocity": 79,
      "chip": "ym2612"
    },
    {
      "channel": 4,
      "note": 58,
      "start": 120.1328,
      "duration": 0.037,
      "velocity": 127,
      "chip": "ym2612"
    },
    {
      "channel": 0,
      "note": 61,
      "start": 120.2507,
      "duration": 0.037,
      "velocity": 79,
      "chip": "ym2612"
    },
    {
      "channel": 4,
      "note": 58,
      "start": 120.2548,
      "duration": 0.0349,
      "velocity": 127,
      "chip": "ym2612"
    },
    {
      "channel": 0,
      "note": 54,
      "start": 120.3704,
      "duration": 0.037,
      "velocity": 79,
      "chip": "ym2612"
    },
    {
      "channel": 4,
      "note": 58,
      "start": 120.374,
      "duration": 0.1344,
      "velocity": 127,
      "chip": "ym2612"
    },
    {
      "channel": 0,
      "note": 56,
      "start": 120.6098,
      "duration": 0.0369,
      "velocity": 79,
      "chip": "ym2612"
    },
    {
      "channel": 3,
      "note": 76,
      "start": 120.6129,
      "duration": 0.1177,
      "velocity": 95,
      "chip": "ym2612"
    },
    {
      "channel": 4,
      "note": 58,
      "start": 120.6157,
      "duration": 0.0324,
      "velocity": 127,
      "chip": "ym2612"
    },
    {
      "channel": 2,
      "note": 76,
      "start": 120.7297,
      "duration": 0.1201,
      "velocity": 95,
      "chip": "ym2612"
    },
    {
      "channel": 4,
      "note": 58,
      "start": 120.7331,
      "duration": 0.0344,
      "velocity": 127,
      "chip": "ym2612"
    },
    {
      "channel": 0,
      "note": 49,
      "start": 120.8488,
      "duration": 0.037,
      "velocity": 79,
      "chip": "ym2612"
    },
    {
      "channel": 4,
      "note": 58,
      "start": 120.8527,
      "duration": 0.1342,
      "velocity": 127,
      "chip": "ym2612"
    },
    {
      "channel": 0,
      "note": 49,
      "start": 121.0882,
      "duration": 0.0369,
      "velocity": 79,
      "chip": "ym2612"
    },
    {
      "channel": 3,
      "note": 74,
      "start": 121.0915,
      "duration": 0.1177,
      "velocity": 95,
      "chip": "ym2612"
    },
    {
      "channel": 4,
      "note": 58,
      "start": 121.0942,
      "duration": 0.0324,
      "velocity": 127,
      "chip": "ym2612"
    },
    {
      "channel": 2,
      "note": 74,
      "start": 121.2082,
      "duration": 0.1201,
      "velocity": 95,
      "chip": "ym2612"
    },
    {
      "channel": 4,
      "note": 58,
      "start": 121.2116,
      "duration": 0.0344,
      "velocity": 127,
      "chip": "ym2612"
    },
    {
      "channel": 0,
      "note": 61,
      "start": 121.3273,
      "duration": 0.037,
      "velocity": 79,
      "chip": "ym2612"
    },
    {
      "channel": 4,
      "note": 58,
      "start": 121.3312,
      "duration": 0.1342,
      "velocity": 127,
      "chip": "ym2612"
    },
    {
      "channel": 0,
      "note": 61,
      "start": 121.5667,
      "duration": 0.0368,
      "velocity": 79,
      "chip": "ym2612"
    },
    {
      "channel": 3,
      "note": 76,
      "start": 121.5699,
      "duration": 0.12,
      "velocity": 95,
      "chip": "ym2612"
    },
    {
      "channel": 4,
      "note": 58,
      "start": 121.5727,
      "duration": 0.0324,
      "velocity": 127,
      "chip": "ym2612"
    },
    {
      "channel": 0,
      "note": 61,
      "start": 121.6863,
      "duration": 0.0369,
      "velocity": 79,
      "chip": "ym2612"
    },
    {
      "channel": 2,
      "note": 76,
      "start": 121.689,
      "duration": 0.1149,
      "velocity": 95,
      "chip": "ym2612"
    },
    {
      "channel": 4,
      "note": 58,
      "start": 121.6924,
      "duration": 0.0323,
      "velocity": 127,
      "chip": "ym2612"
    },
    {
      "channel": 4,
      "note": 58,
      "start": 121.8073,
      "duration": 0.1366,
      "velocity": 127,
      "chip": "ym2612"
    },
    {
      "channel": 0,
      "note": 61,
      "start": 121.9251,
      "duration": 0.0373,
      "velocity": 79,
      "chip": "ym2612"
    },
    {
      "channel": 3,
      "note": 79,
      "start": 122.046,
      "duration": 0.1227,
      "velocity": 95,
      "chip": "ym2612"
    },
    {
      "channel": 4,
      "note": 58,
      "start": 122.0488,
      "duration": 0.0346,
      "velocity": 127,
      "chip": "ym2612"
    },
    {
      "channel": 0,
      "note": 61,
      "start": 122.1649,
      "duration": 0.0367,
      "velocity": 79,
      "chip": "ym2612"
    },
    {
      "channel": 2,
      "note": 79,
      "start": 122.1677,
      "duration": 0.1179,
      "velocity": 95,
      "chip": "ym2612"
    },
    {
      "channel": 3,
      "note": 77,
      "start": 122.1704,
      "duration": 0.1179,
      "velocity": 95,
      "chip": "ym2612"
    },
    {
      "channel": 4,
      "note": 58,
      "start": 122.1732,
      "duration": 0.03,
      "velocity": 127,
      "chip": "ym2612"
    },
    {
      "channel": 0,
      "note": 56,
      "start": 122.2846,
      "duration": 0.0367,
      "velocity": 79,
      "chip": "ym2612"
    },
    {
      "channel": 2,
      "note": 77,
      "start": 122.2873,
      "duration": 0.1176,
      "velocity": 95,
      "chip": "ym2612"
    },
    {
      "channel": 3,
      "note": 73,
      "start": 122.29,
      "duration": 0.1175,
      "velocity": 95,
      "chip": "ym2612"
    },
    {
      "channel": 4,
      "note": 58,
      "start": 122.2928,
      "duration": 0.1295,
      "velocity": 127,
      "chip": "ym2612"
    },
    {
      "channel": 0,
      "note": 58,
      "start": 122.4039,
      "duration": 0.037,
      "velocity": 79,
      "chip": "ym2612"
    },
    {
      "channel": 2,
      "note": 73,
      "start": 122.4066,
      "duration": 0.1209,
      "velocity": 95,
      "chip": "ym2612"
    },
    {
      "channel": 0,
      "note": 59,
      "start": 122.5238,
      "duration": 0.0367,
      "velocity": 79,
      "chip": "ym2612"
    },
    {
      "channel": 1,
      "note": 75,
      "start": 122.5265,
      "duration": 0.0953,
      "velocity": 127,
      "chip": "ym2612"
    },
    {
      "channel": 3,
      "note": 70,
      "start": 122.5299,
      "duration": 0.115,
      "velocity": 95,
      "chip": "ym2612"
    },
    {
      "channel": 4,
      "note": 58,
      "start": 122.5327,
      "duration": 0.03,
      "velocity": 127,
      "chip": "ym2612"
    },
    {
      "channel": 2,
      "note": 70,
      "start": 122.6439,
      "duration": 0.123,
      "velocity": 95,
      "chip": "ym2612"
    },
    {
      "channel": 3,
      "note": 75,
      "start": 122.6466,
      "duration": 0.1229,
      "velocity": 95,
      "chip": "ym2612"
    },
    {
      "channel": 4,
      "note": 58,
      "start": 122.6494,
      "duration": 0.0322,
      "velocity": 127,
      "chip": "ym2612"
    },
    {
      "channel": 0,
      "note": 51,
      "start": 122.7632,
      "duration": 0.0366,
      "velocity": 79,
      "chip": "ym2612"
    },
    {
      "channel": 1,
      "note": 22,
      "start": 122.7658,
      "duration": 0.095,
      "velocity": 127,
      "chip": "ym2612"
    },
    {
      "channel": 2,
      "note": 75,
      "start": 122.7686,
      "duration": 0.1123,
      "velocity": 95,
      "chip": "ym2612"
    },
    {
      "channel": 3,
      "note": 73,
      "start": 122.7713,
      "duration": 0.1127,
      "velocity": 95,
      "chip": "ym2612"
    },
    {
      "channel": 4,
      "note": 58,
      "start": 122.7741,
      "duration": 0.1269,
      "velocity": 127,
      "chip": "ym2612"
    },
    {
      "channel": 2,
      "note": 73,
      "start": 122.883,
      "duration": 0.1229,
      "velocity": 95,
      "chip": "ym2612"
    },
    {
      "channel": 3,
      "note": 70,
      "start": 122.8857,
      "duration": 0.1228,
      "velocity": 95,
      "chip": "ym2612"
    },
    {
      "channel": 0,
      "note": 51,
      "start": 123.0023,
      "duration": 0.0367,
      "velocity": 79,
      "chip": "ym2612"
    },
    {
      "channel": 1,
      "note": 22,
      "start": 123.0049,
      "duration": 0.115,
      "velocity": 125,
      "chip": "ym2612"
    },
    {
      "channel": 2,
      "note": 70,
      "start": 123.0076,
      "duration": 0.1129,
      "velocity": 95,
      "chip": "ym2612"
    },
    {
      "channel": 4,
      "note": 58,
      "start": 123.011,
      "duration": 0.0302,
      "velocity": 127,
      "chip": "ym2612"
    },
    {
      "channel": 4,
      "note": 58,
      "start": 123.1238,
      "duration": 0.0365,
      "velocity": 127,
      "chip": "ym2612"
    },
    {
      "channel": 0,
      "note": 63,
      "start": 123.2414,
      "duration": 0.0369,
      "velocity": 79,
      "chip": "ym2612"
    },
    {
      "channel": 1,
      "note": 24,
      "start": 123.244,
      "duration": 0.0951,
      "velocity": 127,
      "chip": "ym2612"
    },
    {
      "channel": 4,
      "note": 58,
      "start": 123.2477,
      "duration": 0.1321,
      "velocity": 127,
      "chip": "ym2612"
    },
    {
      "channel": 1,
      "note": 22,
      "start": 123.3611,
      "duration": 0.1205,
      "velocity": 125,
      "chip": "ym2612"
    },
    {
      "channel": 0,
      "note": 63,
      "start": 123.4806,
      "duration": 0.0369,
      "velocity": 79,
      "chip": "ym2612"
    },
    {
      "channel": 1,
      "note": 30,
      "start": 123.4833,
      "duration": 0.0955,
      "velocity": 127,
      "chip": "ym2612"
    },
    {
      "channel": 4,
      "note": 58,
      "start": 123.487,
      "duration": 0.0326,
      "velocity": 127,
      "chip": "ym2612"
    },
    {
      "channel": 0,
      "note": 61,
      "start": 123.6002,
      "duration": 0.0369,
      "velocity": 79,
      "chip": "ym2612"
    },
    {
      "channel": 1,
      "note": 22,
      "start": 123.6029,
      "duration": 0.1151,
      "velocity": 125,
      "chip": "ym2612"
    },
    {
      "channel": 4,
      "note": 58,
      "start": 123.6065,
      "duration": 0.0328,
      "velocity": 127,
      "chip": "ym2612"
    },
    {
      "channel": 1,
      "note": 30,
      "start": 123.7202,
      "duration": 0.0974,
      "velocity": 127,
      "chip": "ym2612"
    },
    {
      "channel": 4,
      "note": 58,
      "start": 123.7238,
      "duration": 0.1341,
      "velocity": 127,
      "chip": "ym2612"
    },
    {
      "channel": 0,
      "note": 61,
      "start": 123.839,
      "duration": 0.0374,
      "velocity": 79,
      "chip": "ym2612"
    },
    {
      "channel": 1,
      "note": 22,
      "start": 123.9594,
      "duration": 0.1203,
      "velocity": 125,
      "chip": "ym2612"
    },
    {
      "channel": 4,
      "note": 58,
      "start": 123.9629,
      "duration": 0.0349,
      "velocity": 127,
      "chip": "ym2612"
    },
    {
      "channel": 0,
      "note": 61,
      "start": 124.0786,
      "duration": 0.037,
      "velocity": 79,
      "chip": "ym2612"
    },
    {
      "channel": 4,
      "note": 58,
      "start": 124.0829,
      "duration": 0.0343,
      "velocity": 127,
      "chip": "ym2612"
    },
    {
      "channel": 0,
      "note": 56,
      "start": 124.1985,
      "duration": 0.0367,
      "velocity": 79,
      "chip": "ym2612"
    },
    {
      "channel": 1,
      "note": 24,
      "start": 124.2012,
      "duration": 0.0951,
      "velocity": 127,
      "chip": "ym2612"
    },
    {
      "channel": 3,
      "note": 75,
      "start": 124.2044,
      "duration": 0.1151,
      "velocity": 95,
      "chip": "ym2612"
    },
    {
      "channel": 4,
      "note": 58,
      "start": 124.2072,
      "duration": 0.1293,
      "velocity": 127,
      "chip": "ym2612"
    },
    {
      "channel": 2,
      "note": 75,
      "start": 124.3184,
      "duration": 0.1231,
      "velocity": 95,
      "chip": "ym2612"
    },
    {
      "channel": 3,
      "note": 73,
      "start": 124.3212,
      "duration": 0.1231,
      "velocity": 95,
      "chip": "ym2612"
    },
    {
      "channel": 0,
      "note": 58,
      "start": 124.4378,
      "duration": 0.0366,
      "velocity": 79,
      "chip": "ym2612"
    },
    {
      "channel": 1,
      "note": 22,
      "start": 124.4405,
      "duration": 0.0951,
      "velocity": 127,
      "chip": "ym2612"
    },
    {
      "channel": 2,
      "note": 73,
      "start": 124.4432,
      "duration": 0.1124,
      "velocity": 95,
      "chip": "ym2612"
    },
    {
      "channel": 3,
      "note": 75,
      "start": 124.446,
      "duration": 0.1128,
      "velocity": 95,
      "chip": "ym2612"
    },
    {
      "channel": 4,
      "note": 58,
      "start": 124.4488,
      "duration": 0.0278,
      "velocity": 127,
      "chip": "ym2612"
    },
    {
      "channel": 2,
      "note": 75,
      "start": 124.5578,
      "duration": 0.123,
      "velocity": 95,
      "chip": "ym2612"
    },
    {
      "channel": 3,
      "note": 78,
      "start": 124.5606,
      "duration": 0.1229,
      "velocity": 95,
      "chip": "ym2612"
    },
    {
      "channel": 4,
      "note": 58,
      "start": 124.5634,
      "duration": 0.0322,
      "velocity": 127,
      "chip": "ym2612"
    },
    {
      "channel": 0,
      "note": 51,
      "start": 124.6771,
      "duration": 0.0366,
      "velocity": 79,
      "chip": "ym2612"
    },
    {
      "channel": 1,
      "note": 22,
      "start": 124.6798,
      "duration": 0.0949,
      "velocity": 127,
      "chip": "ym2612"
    },
    {
      "channel": 2,
      "note": 78,
      "start": 124.6825,
      "duration": 0.1123,
      "velocity": 95,
      "chip": "ym2612"
    },
    {
      "channel": 3,
      "note": 77,
      "start": 124.6852,
      "duration": 0.1127,
      "velocity": 95,
      "chip": "ym2612"
    },
    {
      "channel": 4,
      "note": 58,
      "start": 124.688,
      "duration": 0.1269,
      "velocity": 127,
      "chip": "ym2612"
    },
    {
      "channel": 2,
      "note": 77,
      "start": 124.7969,
      "duration": 0.1229,
      "velocity": 95,
      "chip": "ym2612"
    },
    {
      "channel": 3,
      "note": 73,
      "start": 124.7996,
      "duration": 0.1228,
      "velocity": 95,
      "chip": "ym2612"
    },
    {
      "channel": 0,
      "note": 51,
      "start": 124.9162,
      "duration": 0.0368,
      "velocity": 79,
      "chip": "ym2612"
    },
    {
      "channel": 1,
      "note": 22,
      "start": 124.9189,
      "duration": 0.1151,
      "velocity": 125,
      "chip": "ym2612"
    },
    {
      "channel": 2,
      "note": 73,
      "start": 124.9215,
      "duration": 0.113,
      "velocity": 95,
      "chip": "ym2612"
    },
    {
      "channel": 4,
      "note": 58,
      "start": 124.9249,
      "duration": 0.0302,
      "velocity": 127,
      "chip": "ym2612"
    },
    {
      "channel": 3,
      "note": 78,
      "start": 125.0374,
      "duration": 0.1246,
      "velocity": 95,
      "chip": "ym2612"
    },
    {
      "channel": 4,
      "note": 58,
      "start": 125.0402,
      "duration": 0.0338,
      "velocity": 127,
      "chip": "ym2612"
    },
    {
      "channel": 0,
      "note": 63,
      "start": 125.1556,
      "duration": 0.0366,
      "velocity": 79,
      "chip": "ym2612"
    },
    {
      "channel": 1,
      "note": 24,
      "start": 125.1583,
      "duration": 0.0952,
      "velocity": 127,
      "chip": "ym2612"
    },
    {
      "channel": 2,
      "note": 78,
      "start": 125.161,
      "duration": 0.1153,
      "velocity": 95,
      "chip": "ym2612"
    },
    {
      "channel": 3,
      "note": 77,
      "start": 125.1637,
      "duration": 0.1153,
      "velocity": 95,
      "chip": "ym2612"
    },
    {
      "channel": 4,
      "note": 58,
      "start": 125.1665,
      "duration": 0.1272,
      "velocity": 127,
      "chip": "ym2612"
    },
    {
      "channel": 1,
      "note": 22,
      "start": 125.2753,
      "duration": 0.1203,
      "velocity": 125,
      "chip": "ym2612"
    },
    {
      "channel": 2,
      "note": 77,
      "start": 125.278,
      "duration": 0.1204,
      "velocity": 95,
      "chip": "ym2612"
    },
    {
      "channel": 3,
      "note": 80,
      "start": 125.2807,
      "duration": 0.1203,
      "velocity": 95,
      "chip": "ym2612"
    },
    {
      "channel": 0,
      "note": 63,
      "start": 125.3946,
      "duration": 0.0368,
      "velocity": 79,
      "chip": "ym2612"
    },
    {
      "channel": 1,
      "note": 30,
      "start": 125.3973,
      "duration": 0.0953,
      "velocity": 127,
      "chip": "ym2612"
    },
    {
      "channel": 2,
      "note": 80,
      "start": 125.4001,
      "duration": 0.1176,
      "velocity": 95,
      "chip": "ym2612"
    },
    {
      "channel": 4,
      "note": 58,
      "start": 125.4035,
      "duration": 0.03,
      "velocity": 127,
      "chip": "ym2612"
    },
    {
      "channel": 0,
      "note": 61,
      "start": 125.5141,
      "duration": 0.0369,
      "velocity": 79,
      "chip": "ym2612"
    },
    {
      "channel": 1,
      "note": 22,
      "start": 125.5168,
      "duration": 0.1151,
      "velocity": 125,
      "chip": "ym2612"
    },
    {
      "channel": 4,
      "note": 58,
      "start": 125.5206,
      "duration": 0.0332,
      "velocity": 127,
      "chip": "ym2612"
    },
    {
      "channel": 1,
      "note": 30,
      "start": 125.6341,
      "duration": 0.0974,
      "velocity": 127,
      "chip": "ym2612"
    },
    {
      "channel": 4,
      "note": 58,
      "start": 125.6378,
      "duration": 0.1341,
      "velocity": 127,
      "chip": "ym2612"
    },
    {
      "channel": 0,
      "note": 61,
      "start": 125.7529,
      "duration": 0.0374,
      "velocity": 79,
      "chip": "ym2612"
    },
    {
      "channel": 1,
      "note": 22,
      "start": 125.8734,
      "duration": 0.1203,
      "velocity": 125,
      "chip": "ym2612"
    },
    {
      "channel": 3,
      "note": 82,
      "start": 125.8766,
      "duration": 0.1204,
      "velocity": 95,
      "chip": "ym2612"
    },
    {
      "channel": 4,
      "note": 58,
      "start": 125.8794,
      "duration": 0.0324,
      "velocity": 127,
      "chip": "ym2612"
    },
    {
      "channel": 0,
      "note": 61,
      "start": 125.9926,
      "duration": 0.0369,
      "velocity": 79,
      "chip": "ym2612"
    },
    {
      "channel": 2,
      "note": 82,
      "start": 125.996,
      "duration": 0.1199,
      "velocity": 95,
      "chip": "ym2612"
    },
    {
      "channel": 4,
      "note": 58,
      "start": 125.9995,
      "duration": 0.0317,
      "velocity": 127,
      "chip": "ym2612"
    },
    {
      "channel": 0,
      "note": 56,
      "start": 126.1124,
      "duration": 0.0367,
      "velocity": 79,
      "chip": "ym2612"
    },
    {
      "channel": 1,
      "note": 24,
      "start": 126.1151,
      "duration": 0.1151,
      "velocity": 125,
      "chip": "ym2612"
    },
    {
      "channel": 3,
      "note": 85,
      "start": 126.1184,
      "duration": 0.1176,
      "velocity": 95,
      "chip": "ym2612"
    },
    {
      "channel": 4,
      "note": 58,
      "start": 126.1212,
      "duration": 0.1296,
      "velocity": 127,
      "chip": "ym2612"
    },
    {
      "channel": 1,
      "note": 30,
      "start": 126.2323,
      "duration": 0.0981,
      "velocity": 127,
      "chip": "ym2612"
    },
    {
      "channel": 2,
      "note": 85,
      "start": 126.235,
      "duration": 0.1205,
      "velocity": 95,
      "chip": "ym2612"
    },
    {
      "channel": 3,
      "note": 80,
      "start": 126.2378,
      "duration": 0.1204,
      "velocity": 95,
      "chip": "ym2612"
    },
    {
      "channel": 0,
      "note": 58,
      "start": 126.3518,
      "duration": 0.0366,
      "velocity": 79,
      "chip": "ym2612"
    },
    {
      "channel": 1,
      "note": 22,
      "start": 126.3544,
      "duration": 0.0951,
      "velocity": 127,
      "chip": "ym2612"
    },
    {
      "channel": 2,
      "note": 80,
      "start": 126.3572,
      "duration": 0.1124,
      "velocity": 95,
      "chip": "ym2612"
    },
    {
      "channel": 3,
      "note": 82,
      "start": 126.3599,
      "duration": 0.1128,
      "velocity": 95,
      "chip": "ym2612"
    },
    {
      "channel": 4,
      "note": 58,
      "start": 126.3627,
      "duration": 0.0278,
      "velocity": 127,
      "chip": "ym2612"
    },
    {
      "channel": 2,
      "note": 82,
      "start": 126.4717,
      "duration": 0.123,
      "velocity": 95,
      "chip": "ym2612"
    },
    {
      "channel": 3,
      "note": 80,
      "start": 126.4745,
      "duration": 0.1229,
      "velocity": 95,
      "chip": "ym2612"
    },
    {
      "channel": 4,
      "note": 58,
      "start": 126.4773,
      "duration": 0.0322,
      "velocity": 127,
      "chip": "ym2612"
    },
    {
      "channel": 0,
      "note": 49,
      "start": 126.591,
      "duration": 0.0366,
      "velocity": 79,
      "chip": "ym2612"
    },
    {
      "channel": 1,
      "note": 22,
      "start": 126.5937,
      "duration": 0.0949,
      "velocity": 127,
      "chip": "ym2612"
    },
    {
      "channel": 2,
      "note": 80,
      "start": 126.5964,
      "duration": 0.1123,
      "velocity": 95,
      "chip": "ym2612"
    },
    {
      "channel": 3,
      "note": 78,
      "start": 126.5992,
      "duration": 0.1127,
      "velocity": 95,
      "chip": "ym2612"
    },
    {
      "channel": 4,
      "note": 58,
      "start": 126.6019,
      "duration": 0.1269,
      "velocity": 127,
      "chip": "ym2612"
    },
    {
      "channel": 2,
      "note": 78,
      "start": 126.7108,
      "duration": 0.1229,
      "velocity": 95,
      "chip": "ym2612"
    },
    {
      "channel": 3,
      "note": 77,
      "start": 126.7136,
      "duration": 0.1228,
      "velocity": 95,
      "chip": "ym2612"
    },
    {
      "channel": 0,
      "note": 49,
      "start": 126.8301,
      "duration": 0.0368,
      "velocity": 79,
      "chip": "ym2612"
    },
    {
      "channel": 1,
      "note": 22,
      "start": 126.8328,
      "duration": 0.115,
      "velocity": 125,
      "chip": "ym2612"
    },
    {
      "channel": 2,
      "note": 77,
      "start": 126.8354,
      "duration": 0.1129,
      "velocity": 95,
      "chip": "ym2612"
    },
    {
      "channel": 4,
      "note": 58,
      "start": 126.8388,
      "duration": 0.0302,
      "velocity": 127,
      "chip": "ym2612"
    },
    {
      "channel": 4,
      "note": 58,
      "start": 126.9516,
      "duration": 0.0365,
      "velocity": 127,
      "chip": "ym2612"
    },
    {
      "channel": 0,
      "note": 61,
      "start": 127.0692,
      "duration": 0.0369,
      "velocity": 79,
      "chip": "ym2612"
    },
    {
      "channel": 1,
      "note": 24,
      "start": 127.0719,
      "duration": 0.095,
      "velocity": 127,
      "chip": "ym2612"
    },
    {
      "channel": 4,
      "note": 58,
      "start": 127.0756,
      "duration": 0.1321,
      "velocity": 127,
      "chip": "ym2612"
    },
    {
      "channel": 1,
      "note": 22,
      "start": 127.189,
      "duration": 0.1205,
      "velocity": 125,
      "chip": "ym2612"
    },
    {
      "channel": 0,
      "note": 61,
      "start": 127.3084,
      "duration": 0.0369,
      "velocity": 79,
      "chip": "ym2612"
    },
    {
      "channel": 1,
      "note": 30,
      "start": 127.3111,
      "duration": 0.0955,
      "velocity": 127,
      "chip": "ym2612"
    },
    {
      "channel": 4,
      "note": 58,
      "start": 127.3148,
      "duration": 0.0326,
      "velocity": 127,
      "chip": "ym2612"
    },
    {
      "channel": 0,
      "note": 61,
      "start": 127.428,
      "duration": 0.0369,
      "velocity": 79,
      "chip": "ym2612"
    },
    {
      "channel": 1,
      "note": 22,
      "start": 127.4307,
      "duration": 0.1151,
      "velocity": 125,
      "chip": "ym2612"
    },
    {
      "channel": 4,
      "note": 58,
      "start": 127.4343,
      "duration": 0.0328,
      "velocity": 127,
      "chip": "ym2612"
    },
    {
      "channel": 1,
      "note": 30,
      "start": 127.548,
      "duration": 0.0974,
      "velocity": 127,
      "chip": "ym2612"
    },
    {
      "channel": 4,
      "note": 58,
      "start": 127.5517,
      "duration": 0.1341,
      "velocity": 127,
      "chip": "ym2612"
    },
    {
      "channel": 0,
      "note": 61,
      "start": 127.6668,
      "duration": 0.0374,
      "velocity": 79,
      "chip": "ym2612"
    },
    {
      "channel": 1,
      "note": 22,
      "start": 127.7872,
      "duration": 0.1203,
      "velocity": 125,
      "chip": "ym2612"
    },
    {
      "channel": 4,
      "note": 58,
      "start": 127.7908,
      "duration": 0.0349,
      "velocity": 127,
      "chip": "ym2612"
    },
    {
      "channel": 0,
      "note": 61,
      "start": 127.9064,
      "duration": 0.037,
      "velocity": 79,
      "chip": "ym2612"
    },
    {
      "channel": 4,
      "note": 58,
      "start": 127.9107,
      "duration": 0.0343,
      "velocity": 127,
      "chip": "ym2612"
    },
    {
      "channel": 0,
      "note": 54,
      "start": 128.0263,
      "duration": 0.0367,
      "velocity": 79,
      "chip": "ym2612"
    },
    {
      "channel": 1,
      "note": 24,
      "start": 128.029,
      "duration": 0.0953,
      "velocity": 127,
      "chip": "ym2612"
    },
    {
      "channel": 3,
      "note": 73,
      "start": 128.0322,
      "duration": 0.1178,
      "velocity": 95,
      "chip": "ym2612"
    },
    {
      "channel": 4,
      "note": 58,
      "start": 128.035,
      "duration": 0.1298,
      "velocity": 127,
      "chip": "ym2612"
    },
    {
      "channel": 1,
      "note": 22,
      "start": 128.1462,
      "duration": 0.0982,
      "velocity": 127,
      "chip": "ym2612"
    },
    {
      "channel": 2,
      "note": 73,
      "start": 128.1489,
      "duration": 0.1205,
      "velocity": 95,
      "chip": "ym2612"
    },
    {
      "channel": 3,
      "note": 77,
      "start": 128.1517,
      "duration": 0.1204,
      "velocity": 95,
      "chip": "ym2612"
    },
    {
      "channel": 0,
      "note": 56,
      "start": 128.2657,
      "duration": 0.0366,
      "velocity": 79,
      "chip": "ym2612"
    },
    {
      "channel": 1,
      "note": 22,
      "start": 128.2683,
      "duration": 0.0949,
      "velocity": 127,
      "chip": "ym2612"
    },
    {
      "channel": 2,
      "note": 77,
      "start": 128.2711,
      "duration": 0.1123,
      "velocity": 95,
      "chip": "ym2612"
    },
    {
      "channel": 3,
      "note": 78,
      "start": 128.2738,
      "duration": 0.1126,
      "velocity": 95,
      "chip": "ym2612"
    },
    {
      "channel": 4,
      "note": 58,
      "start": 128.2766,
      "duration": 0.0278,
      "velocity": 127,
      "chip": "ym2612"
    },
    {
      "channel": 2,
      "note": 78,
      "start": 128.3855,
      "duration": 0.1228,
      "velocity": 95,
      "chip": "ym2612"
    },
    {
      "channel": 4,
      "note": 58,
      "start": 128.3889,
      "duration": 0.0345,
      "velocity": 127,
      "chip": "ym2612"
    },
    {
      "channel": 0,
      "note": 49,
      "start": 128.5046,
      "duration": 0.0369,
      "velocity": 79,
      "chip": "ym2612"
    },
    {
      "channel": 1,
      "note": 22,
      "start": 128.5073,
      "duration": 0.0948,
      "velocity": 127,
      "chip": "ym2612"
    },
    {
      "channel": 4,
      "note": 58,
      "start": 128.5112,
      "duration": 0.1316,
      "velocity": 127,
      "chip": "ym2612"
    },
    {
      "channel": 0,
      "note": 49,
      "start": 128.744,
      "duration": 0.0367,
      "velocity": 79,
      "chip": "ym2612"
    },
    {
      "channel": 1,
      "note": 22,
      "start": 128.7467,
      "duration": 0.1151,
      "velocity": 125,
      "chip": "ym2612"
    },
    {
      "channel": 3,
      "note": 81,
      "start": 128.7498,
      "duration": 0.1157,
      "velocity": 95,
      "chip": "ym2612"
    },
    {
      "channel": 4,
      "note": 58,
      "start": 128.7526,
      "duration": 0.0303,
      "velocity": 127,
      "chip": "ym2612"
    },
    {
      "channel": 2,
      "note": 81,
      "start": 128.8645,
      "duration": 0.1222,
      "velocity": 95,
      "chip": "ym2612"
    },
    {
      "channel": 4,
      "note": 58,
      "start": 128.868,
      "duration": 0.0339,
      "velocity": 127,
      "chip": "ym2612"
    },
    {
      "channel": 0,
      "note": 61,
      "start": 128.9831,
      "duration": 0.0369,
      "velocity": 79,
      "chip": "ym2612"
    },
    {
      "channel": 1,
      "note": 24,
      "start": 128.9858,
      "duration": 0.0951,
      "velocity": 127,
      "chip": "ym2612"
    },
    {
      "channel": 4,
      "note": 58,
      "start": 128.9897,
      "duration": 0.1319,
      "velocity": 127,
      "chip": "ym2612"
    },
    {
      "channel": 1,
      "note": 22,
      "start": 129.1029,
      "duration": 0.1206,
      "velocity": 125,
      "chip": "ym2612"
    },
    {
      "channel": 0,
      "note": 61,
      "start": 129.2225,
      "duration": 0.0367,
      "velocity": 79,
      "chip": "ym2612"
    },
    {
      "channel": 1,
      "note": 30,
      "start": 129.2252,
      "duration": 0.0958,
      "velocity": 127,
      "chip": "ym2612"
    },
    {
      "channel": 3,
      "note": 83,
      "start": 129.2284,
      "duration": 0.1202,
      "velocity": 95,
      "chip": "ym2612"
    },
    {
      "channel": 4,
      "note": 58,
      "start": 129.2312,
      "duration": 0.0302,
      "velocity": 127,
      "chip": "ym2612"
    },
    {
      "channel": 0,
      "note": 61,
      "start": 129.3422,
      "duration": 0.0366,
      "velocity": 79,
      "chip": "ym2612"
    },
    {
      "channel": 1,
      "note": 22,
      "start": 129.3449,
      "duration": 0.1151,
      "velocity": 125,
      "chip": "ym2612"
    },
    {
      "channel": 2,
      "note": 83,
      "start": 129.3476,
      "duration": 0.1157,
      "velocity": 95,
      "chip": "ym2612"
    },
    {
      "channel": 3,
      "note": 80,
      "start": 129.3503,
      "duration": 0.1156,
      "velocity": 95,
      "chip": "ym2612"
    },
    {
      "channel": 4,
      "note": 58,
      "start": 129.3531,
      "duration": 0.0279,
      "velocity": 127,
      "chip": "ym2612"
    },
    {
      "channel": 1,
      "note": 30,
      "start": 129.4622,
      "duration": 0.0973,
      "velocity": 127,
      "chip": "ym2612"
    },
    {
      "channel": 2,
      "note": 80,
      "start": 129.4649,
      "duration": 0.1173,
      "velocity": 95,
      "chip": "ym2612"
    },
    {
      "channel": 3,
      "note": 78,
      "start": 129.4677,
      "duration": 0.1172,
      "velocity": 95,
      "chip": "ym2612"
    },
    {
      "channel": 4,
      "note": 58,
      "start": 129.4705,
      "duration": 0.1292,
      "velocity": 127,
      "chip": "ym2612"
    },
    {
      "channel": 0,
      "note": 61,
      "start": 129.5811,
      "duration": 0.037,
      "velocity": 79,
      "chip": "ym2612"
    },
    {
      "channel": 2,
      "note": 78,
      "start": 129.5839,
      "duration": 0.1183,
      "velocity": 95,
      "chip": "ym2612"
    },
    {
      "channel": 1,
      "note": 22,
      "start": 129.7013,
      "duration": 0.1205,
      "velocity": 125,
      "chip": "ym2612"
    },
    {
      "channel": 3,
      "note": 77,
      "start": 129.7046,
      "duration": 0.1204,
      "velocity": 95,
      "chip": "ym2612"
    },
    {
      "channel": 4,
      "note": 58,
      "start": 129.7074,
      "duration": 0.0322,
      "velocity": 127,
      "chip": "ym2612"
    },
    {
      "channel": 0,
      "note": 61,
      "start": 129.8206,
      "duration": 0.0367,
      "velocity": 79,
      "chip": "ym2612"
    },
    {
      "channel": 2,
      "note": 77,
      "start": 129.824,
      "duration": 0.12,
      "velocity": 95,
      "chip": "ym2612"
    },
    {
      "channel": 3,
      "note": 80,
      "start": 129.8268,
      "duration": 0.1199,
      "velocity": 95,
      "chip": "ym2612"
    },
    {
      "channel": 4,
      "note": 58,
      "start": 129.8296,
      "duration": 0.0294,
      "velocity": 127,
      "chip": "ym2612"
    },
    {
      "channel": 0,
      "note": 56,
      "start": 129.9403,
      "duration": 0.0366,
      "velocity": 79,
      "chip": "ym2612"
    },
    {
      "channel": 1,
      "note": 24,
      "start": 129.943,
      "duration": 0.1176,
      "velocity": 125,
      "chip": "ym2612"
    },
    {
      "channel": 2,
      "note": 80,
      "start": 129.9457,
      "duration": 0.1176,
      "velocity": 95,
      "chip": "ym2612"
    },
    {
      "channel": 3,
      "note": 78,
      "start": 129.9484,
      "duration": 0.1175,
      "velocity": 95,
      "chip": "ym2612"
    },
    {
      "channel": 4,
      "note": 58,
      "start": 129.9512,
      "duration": 0.1273,
      "velocity": 127,
      "chip": "ym2612"
    },
    {
      "channel": 0,
      "note": 58,
      "start": 130.0597,
      "duration": 0.0369,
      "velocity": 79,
      "chip": "ym2612"
    },
    {
      "channel": 1,
      "note": 30,
      "start": 130.0623,
      "duration": 0.1181,
      "velocity": 125,
      "chip": "ym2612"
    },
    {
      "channel": 2,
      "note": 78,
      "start": 130.065,
      "duration": 0.1181,
      "velocity": 95,
      "chip": "ym2612"
    },
    {
      "channel": 0,
      "note": 59,
      "start": 130.1795,
      "duration": 0.0367,
      "velocity": 79,
      "chip": "ym2612"
    },
    {
      "channel": 1,
      "note": 30,
      "start": 130.1821,
      "duration": 0.0953,
      "velocity": 127,
      "chip": "ym2612"
    },
    {
      "channel": 3,
      "note": 77,
      "start": 130.1855,
      "duration": 0.115,
      "velocity": 95,
      "chip": "ym2612"
    },
    {
      "channel": 4,
      "note": 58,
      "start": 130.1883,
      "duration": 0.03,
      "velocity": 127,
      "chip": "ym2612"
    },
    {
      "channel": 2,
      "note": 77,
      "start": 130.2996,
      "duration": 0.123,
      "velocity": 95,
      "chip": "ym2612"
    },
    {
      "channel": 3,
      "note": 75,
      "start": 130.3023,
      "duration": 0.1229,
      "velocity": 95,
      "chip": "ym2612"
    },
    {
      "channel": 4,
      "note": 58,
      "start": 130.3051,
      "duration": 0.0322,
      "velocity": 127,
      "chip": "ym2612"
    },
    {
      "channel": 0,
      "note": 51,
      "start": 130.4188,
      "duration": 0.0366,
      "velocity": 79,
      "chip": "ym2612"
    },
    {
      "channel": 1,
      "note": 22,
      "start": 130.4215,
      "duration": 0.0949,
      "velocity": 127,
      "chip": "ym2612"
    },
    {
      "channel": 2,
      "note": 75,
      "start": 130.4242,
      "duration": 0.1123,
      "velocity": 95,
      "chip": "ym2612"
    },
    {
      "channel": 3,
      "note": 70,
      "start": 130.427,
      "duration": 0.1127,
      "velocity": 95,
      "chip": "ym2612"
    },
    {
      "channel": 4,
      "note": 58,
      "start": 130.4298,
      "duration": 0.1269,
      "velocity": 127,
      "chip": "ym2612"
    },
    {
      "channel": 2,
      "note": 70,
      "start": 130.5386,
      "duration": 0.1229,
      "velocity": 95,
      "chip": "ym2612"
    },
    {
      "channel": 3,
      "note": 78,
      "start": 130.5414,
      "duration": 0.1228,
      "velocity": 95,
      "chip": "ym2612"
    },
    {
      "channel": 0,
      "note": 51,
      "start": 130.6579,
      "duration": 0.0368,
      "velocity": 79,
      "chip": "ym2612"
    },
    {
      "channel": 1,
      "note": 22,
      "start": 130.6606,
      "duration": 0.1151,
      "velocity": 125,
      "chip": "ym2612"
    },
    {
      "channel": 2,
      "note": 78,
      "start": 130.6632,
      "duration": 0.113,
      "velocity": 95,
      "chip": "ym2612"
    },
    {
      "channel": 4,
      "note": 58,
      "start": 130.6666,
      "duration": 0.0302,
      "velocity": 127,
      "chip": "ym2612"
    },
    {
      "channel": 3,
      "note": 77,
      "start": 130.7791,
      "duration": 0.1246,
      "velocity": 95,
      "chip": "ym2612"
    },
    {
      "channel": 4,
      "note": 58,
      "start": 130.7819,
      "duration": 0.0338,
      "velocity": 127,
      "chip": "ym2612"
    },
    {
      "channel": 0,
      "note": 63,
      "start": 130.8973,
      "duration": 0.0366,
      "velocity": 79,
      "chip": "ym2612"
    },
    {
      "channel": 1,
      "note": 24,
      "start": 130.9,
      "duration": 0.0952,
      "velocity": 127,
      "chip": "ym2612"
    },
    {
      "channel": 2,
      "note": 77,
      "start": 130.9027,
      "duration": 0.1153,
      "velocity": 95,
      "chip": "ym2612"
    },
    {
      "channel": 3,
      "note": 73,
      "start": 130.9055,
      "duration": 0.1152,
      "velocity": 95,
      "chip": "ym2612"
    },
    {
      "channel": 4,
      "note": 58,
      "start": 130.9083,
      "duration": 0.1272,
      "velocity": 127,
      "chip": "ym2612"
    },
    {
      "channel": 1,
      "note": 22,
      "start": 131.0171,
      "duration": 0.1203,
      "velocity": 125,
      "chip": "ym2612"
    },
    {
      "channel": 2,
      "note": 73,
      "start": 131.0197,
      "duration": 0.1204,
      "velocity": 95,
      "chip": "ym2612"
    },
    {
      "channel": 3,
      "note": 70,
      "start": 131.0224,
      "duration": 0.1203,
      "velocity": 95,
      "chip": "ym2612"
    },
    {
      "channel": 0,
      "note": 63,
      "start": 131.1364,
      "duration": 0.0368,
      "velocity": 79,
      "chip": "ym2612"
    },
    {
      "channel": 1,
      "note": 30,
      "start": 131.1391,
      "duration": 0.0956,
      "velocity": 127,
      "chip": "ym2612"
    },
    {
      "channel": 2,
      "note": 70,
      "start": 131.1418,
      "duration": 0.1178,
      "velocity": 95,
      "chip": "ym2612"
    },
    {
      "channel": 4,
      "note": 58,
      "start": 131.1452,
      "duration": 0.03,
      "velocity": 127,
      "chip": "ym2612"
    },
    {
      "channel": 0,
      "note": 61,
      "start": 131.256,
      "duration": 0.0367,
      "velocity": 79,
      "chip": "ym2612"
    },
    {
      "channel": 1,
      "note": 22,
      "start": 131.2587,
      "duration": 0.1152,
      "velocity": 125,
      "chip": "ym2612"
    },
    {
      "channel": 3,
      "note": 75,
      "start": 131.262,
      "duration": 0.1178,
      "velocity": 95,
      "chip": "ym2612"
    },
    {
      "channel": 4,
      "note": 58,
      "start": 131.2648,
      "duration": 0.0301,
      "velocity": 127,
      "chip": "ym2612"
    },
    {
      "channel": 1,
      "note": 30,
      "start": 131.3761,
      "duration": 0.0975,
      "velocity": 127,
      "chip": "ym2612"
    },
    {
      "channel": 2,
      "note": 75,
      "start": 131.3788,
      "duration": 0.1175,
      "velocity": 95,
      "chip": "ym2612"
    },
    {
      "channel": 3,
      "note": 70,
      "start": 131.3816,
      "duration": 0.1174,
      "velocity": 95,
      "chip": "ym2612"
    },
    {
      "channel": 4,
      "note": 58,
      "start": 131.3844,
      "duration": 0.1293,
      "velocity": 127,
      "chip": "ym2612"
    },
    {
      "channel": 0,
      "note": 61,
      "start": 131.4951,
      "duration": 0.0369,
      "velocity": 79,
      "chip": "ym2612"
    },
    {
      "channel": 2,
      "note": 70,
      "start": 131.498,
      "duration": 0.1182,
      "velocity": 95,
      "chip": "ym2612"
    },
    {
      "channel": 3,
      "note": 78,
      "start": 131.5007,
      "duration": 0.118,
      "velocity": 95,
      "chip": "ym2612"
    },
    {
      "channel": 1,
      "note": 22,
      "start": 131.6152,
      "duration": 0.1203,
      "velocity": 125,
      "chip": "ym2612"
    },
    {
      "channel": 2,
      "note": 78,
      "start": 131.6178,
      "duration": 0.1182,
      "velocity": 95,
      "chip": "ym2612"
    },
    {
      "channel": 4,
      "note": 58,
      "start": 131.6212,
      "duration": 0.0323,
      "velocity": 127,
      "chip": "ym2612"
    },
    {
      "channel": 0,
      "note": 61,
      "start": 131.7344,
      "duration": 0.0369,
      "velocity": 79,
      "chip": "ym2612"
    },
    {
      "channel": 3,
      "note": 77,
      "start": 131.7385,
      "duration": 0.1222,
      "velocity": 95,
      "chip": "ym2612"
    },
    {
      "channel": 4,
      "note": 58,
      "start": 131.7413,
      "duration": 0.0316,
      "velocity": 127,
      "chip": "ym2612"
    },
    {
      "channel": 0,
      "note": 56,
      "start": 131.8543,
      "duration": 0.0366,
      "velocity": 79,
      "chip": "ym2612"
    },
    {
      "channel": 1,
      "note": 24,
      "start": 131.8569,
      "duration": 0.0948,
      "velocity": 127,
      "chip": "ym2612"
    },
    {
      "channel": 2,
      "note": 77,
      "start": 131.8597,
      "duration": 0.1121,
      "velocity": 95,
      "chip": "ym2612"
    },
    {
      "channel": 3,
      "note": 73,
      "start": 131.8624,
      "duration": 0.1124,
      "velocity": 95,
      "chip": "ym2612"
    },
    {
      "channel": 4,
      "note": 58,
      "start": 131.8652,
      "duration": 0.1268,
      "velocity": 127,
      "chip": "ym2612"
    },
    {
      "channel": 2,
      "note": 73,
      "start": 131.9739,
      "duration": 0.1231,
      "velocity": 95,
      "chip": "ym2612"
    },
    {
      "channel": 0,
      "note": 58,
      "start": 132.0934,
      "duration": 0.0367,
      "velocity": 79,
      "chip": "ym2612"
    },
    {
      "channel": 1,
      "note": 22,
      "start": 132.096,
      "duration": 0.0953,
      "velocity": 127,
      "chip": "ym2612"
    },
    {
      "channel": 3,
      "note": 70,
      "start": 132.0995,
      "duration": 0.115,
      "velocity": 95,
      "chip": "ym2612"
    },
    {
      "channel": 4,
      "note": 58,
      "start": 132.1023,
      "duration": 0.0299,
      "velocity": 127,
      "chip": "ym2612"
    },
    {
      "channel": 2,
      "note": 70,
      "start": 132.2135,
      "duration": 0.123,
      "velocity": 95,
      "chip": "ym2612"
    },
    {
      "channel": 3,
      "note": 80,
      "start": 132.2162,
      "duration": 0.1229,
      "velocity": 95,
      "chip": "ym2612"
    },
    {
      "channel": 4,
      "note": 58,
      "start": 132.219,
      "duration": 0.0322,
      "velocity": 127,
      "chip": "ym2612"
    },
    {
      "channel": 0,
      "note": 51,
      "start": 132.3327,
      "duration": 0.0366,
      "velocity": 79,
      "chip": "ym2612"
    },
    {
      "channel": 1,
      "note": 22,
      "start": 132.3354,
      "duration": 0.0949,
      "velocity": 127,
      "chip": "ym2612"
    },
    {
      "channel": 2,
      "note": 80,
      "start": 132.3381,
      "duration": 0.1123,
      "velocity": 95,
      "chip": "ym2612"
    },
    {
      "channel": 3,
      "note": 82,
      "start": 132.3409,
      "duration": 0.1127,
      "velocity": 95,
      "chip": "ym2612"
    },
    {
      "channel": 4,
      "note": 58,
      "start": 132.3437,
      "duration": 0.1269,
      "velocity": 127,
      "chip": "ym2612"
    },
    {
      "channel": 2,
      "note": 82,
      "start": 132.4526,
      "duration": 0.1229,
      "velocity": 95,
      "chip": "ym2612"
    },
    {
      "channel": 3,
      "note": 78,
      "start": 132.4553,
      "duration": 0.1228,
      "velocity": 95,
      "chip": "ym2612"
    },
    {
      "channel": 0,
      "note": 51,
      "start": 132.5718,
      "duration": 0.0367,
      "velocity": 79,
      "chip": "ym2612"
    },
    {
      "channel": 1,
      "note": 22,
      "start": 132.5745,
      "duration": 0.1151,
      "velocity": 125,
      "chip": "ym2612"
    },
    {
      "channel": 2,
      "note": 78,
      "start": 132.5771,
      "duration": 0.113,
      "velocity": 95,
      "chip": "ym2612"
    },
    {
      "channel": 4,
      "note": 58,
      "start": 132.5805,
      "duration": 0.0302,
      "velocity": 127,
      "chip": "ym2612"
    },
    {
      "channel": 3,
      "note": 75,
      "start": 132.6931,
      "duration": 0.1246,
      "velocity": 95,
      "chip": "ym2612"
    },
    {
      "channel": 4,
      "note": 58,
      "start": 132.6959,
      "duration": 0.0338,
      "velocity": 127,
      "chip": "ym2612"
    },
    {
      "channel": 0,
      "note": 63,
      "start": 132.8112,
      "duration": 0.0366,
      "velocity": 79,
      "chip": "ym2612"
    },
    {
      "channel": 1,
      "note": 24,
      "start": 132.8139,
      "duration": 0.0952,
      "velocity": 127,
      "chip": "ym2612"
    },
    {
      "channel": 2,
      "note": 75,
      "start": 132.8166,
      "duration": 0.1153,
      "velocity": 95,
      "chip": "ym2612"
    },
    {
      "channel": 3,
      "note": 78,
      "start": 132.8194,
      "duration": 0.1152,
      "velocity": 95,
      "chip": "ym2612"
    },
    {
      "channel": 4,
      "note": 58,
      "start": 132.8222,
      "duration": 0.1272,
      "velocity": 127,
      "chip": "ym2612"
    },
    {
      "channel": 1,
      "note": 22,
      "start": 132.931,
      "duration": 0.1203,
      "velocity": 125,
      "chip": "ym2612"
    },
    {
      "channel": 2,
      "note": 78,
      "start": 132.9336,
      "duration": 0.1204,
      "velocity": 95,
      "chip": "ym2612"
    },
    {
      "channel": 3,
      "note": 75,
      "start": 132.9364,
      "duration": 0.1203,
      "velocity": 95,
      "chip": "ym2612"
    },
    {
      "channel": 0,
      "note": 63,
      "start": 133.0503,
      "duration": 0.0367,
      "velocity": 79,
      "chip": "ym2612"
    },
    {
      "channel": 1,
      "note": 30,
      "start": 133.053,
      "duration": 0.0953,
      "velocity": 127,
      "chip": "ym2612"
    },
    {
      "channel": 2,
      "note": 75,
      "start": 133.0557,
      "duration": 0.1176,
      "velocity": 95,
      "chip": "ym2612"
    },
    {
      "channel": 4,
      "note": 58,
      "start": 133.0592,
      "duration": 0.03,
      "velocity": 127,
      "chip": "ym2612"
    },
    {
      "channel": 0,
      "note": 61,
      "start": 133.1698,
      "duration": 0.0369,
      "velocity": 79,
      "chip": "ym2612"
    },
    {
      "channel": 1,
      "note": 22,
      "start": 133.1725,
      "duration": 0.1153,
      "velocity": 125,
      "chip": "ym2612"
    },
    {
      "channel": 4,
      "note": 58,
      "start": 133.1763,
      "duration": 0.0332,
      "velocity": 127,
      "chip": "ym2612"
    },
    {
      "channel": 1,
      "note": 30,
      "start": 133.2899,
      "duration": 0.0975,
      "velocity": 127,
      "chip": "ym2612"
    },
    {
      "channel": 3,
      "note": 83,
      "start": 133.2931,
      "duration": 0.1196,
      "velocity": 95,
      "chip": "ym2612"
    },
    {
      "channel": 4,
      "note": 58,
      "start": 133.2959,
      "duration": 0.1316,
      "velocity": 127,
      "chip": "ym2612"
    },
    {
      "channel": 0,
      "note": 61,
      "start": 133.4089,
      "duration": 0.037,
      "velocity": 79,
      "chip": "ym2612"
    },
    {
      "channel": 2,
      "note": 83,
      "start": 133.4117,
      "duration": 0.1183,
      "velocity": 95,
      "chip": "ym2612"
    },
    {
      "channel": 1,
      "note": 22,
      "start": 133.5291,
      "duration": 0.1203,
      "velocity": 125,
      "chip": "ym2612"
    },
    {
      "channel": 3,
      "note": 82,
      "start": 133.5324,
      "duration": 0.1202,
      "velocity": 95,
      "chip": "ym2612"
    },
    {
      "channel": 4,
      "note": 58,
      "start": 133.5352,
      "duration": 0.0322,
      "velocity": 127,
      "chip": "ym2612"
    },
    {
      "channel": 0,
      "note": 61,
      "start": 133.6483,
      "duration": 0.0369,
      "velocity": 79,
      "chip": "ym2612"
    },
    {
      "channel": 2,
      "note": 82,
      "start": 133.6517,
      "duration": 0.1199,
      "velocity": 95,
      "chip": "ym2612"
    },
    {
      "channel": 4,
      "note": 58,
      "start": 133.6551,
      "duration": 0.0317,
      "velocity": 127,
      "chip": "ym2612"
    },
    {
      "channel": 0,
      "note": 56,
      "start": 133.768,
      "duration": 0.0367,
      "velocity": 79,
      "chip": "ym2612"
    },
    {
      "channel": 1,
      "note": 24,
      "start": 133.7707,
      "duration": 0.1151,
      "velocity": 125,
      "chip": "ym2612"
    },
    {
      "channel": 3,
      "note": 80,
      "start": 133.774,
      "duration": 0.1177,
      "velocity": 95,
      "chip": "ym2612"
    },
    {
      "channel": 4,
      "note": 58,
      "start": 133.7768,
      "duration": 0.1297,
      "velocity": 127,
      "chip": "ym2612"
    },
    {
      "channel": 1,
      "note": 30,
      "start": 133.888,
      "duration": 0.0982,
      "velocity": 127,
      "chip": "ym2612"
    },
    {
      "channel": 2,
      "note": 80,
      "start": 133.8907,
      "duration": 0.1205,
      "velocity": 95,
      "chip": "ym2612"
    },
    {
      "channel": 3,
      "note": 78,
      "start": 133.8934,
      "duration": 0.1204,
      "velocity": 95,
      "chip": "ym2612"
    },
    {
      "channel": 0,
      "note": 58,
      "start": 134.0074,
      "duration": 0.0366,
      "velocity": 79,
      "chip": "ym2612"
    },
    {
      "channel": 1,
      "note": 22,
      "start": 134.0101,
      "duration": 0.0949,
      "velocity": 127,
      "chip": "ym2612"
    },
    {
      "channel": 2,
      "note": 78,
      "start": 134.0128,
      "duration": 0.1123,
      "velocity": 95,
      "chip": "ym2612"
    },
    {
      "channel": 3,
      "note": 80,
      "start": 134.0156,
      "duration": 0.1126,
      "velocity": 95,
      "chip": "ym2612"
    },
    {
      "channel": 4,
      "note": 58,
      "start": 134.0184,
      "duration": 0.0278,
      "velocity": 127,
      "chip": "ym2612"
    },
    {
      "channel": 2,
      "note": 80,
      "start": 134.1272,
      "duration": 0.1228,
      "velocity": 95,
      "chip": "ym2612"
    },
    {
      "channel": 4,
      "note": 58,
      "start": 134.1306,
      "duration": 0.0344,
      "velocity": 127,
      "chip": "ym2612"
    },
    {
      "channel": 0,
      "note": 49,
      "start": 134.2464,
      "duration": 0.0369,
      "velocity": 79,
      "chip": "ym2612"
    },
    {
      "channel": 1,
      "note": 22,
      "start": 134.249,
      "duration": 0.0948,
      "velocity": 127,
      "chip": "ym2612"
    },
    {
      "channel": 4,
      "note": 58,
      "start": 134.2529,
      "duration": 0.1316,
      "velocity": 127,
      "chip": "ym2612"
    },
    {
      "channel": 0,
      "note": 49,
      "start": 134.4856,
      "duration": 0.0369,
      "velocity": 79,
      "chip": "ym2612"
    },
    {
      "channel": 1,
      "note": 22,
      "start": 134.4883,
      "duration": 0.1151,
      "velocity": 125,
      "chip": "ym2612"
    },
    {
      "channel": 4,
      "note": 58,
      "start": 134.4919,
      "duration": 0.0328,
      "velocity": 127,
      "chip": "ym2612"
    },
    {
      "channel": 4,
      "note": 58,
      "start": 134.6071,
      "duration": 0.0365,
      "velocity": 127,
      "chip": "ym2612"
    },
    {
      "channel": 0,
      "note": 61,
      "start": 134.7249,
      "duration": 0.0369,
      "velocity": 79,
      "chip": "ym2612"
    },
    {
      "channel": 1,
      "note": 24,
      "start": 134.7275,
      "duration": 0.0951,
      "velocity": 127,
      "chip": "ym2612"
    },
    {
      "channel": 4,
      "note": 58,
      "start": 134.7312,
      "duration": 0.1321,
      "velocity": 127,
      "chip": "ym2612"
    },
    {
      "channel": 1,
      "note": 22,
      "start": 134.8446,
      "duration": 0.1205,
      "velocity": 125,
      "chip": "ym2612"
    },
    {
      "channel": 0,
      "note": 61,
      "start": 134.9641,
      "duration": 0.0369,
      "velocity": 79,
      "chip": "ym2612"
    },
    {
      "channel": 1,
      "note": 30,
      "start": 134.9668,
      "duration": 0.0955,
      "velocity": 127,
      "chip": "ym2612"
    },
    {
      "channel": 4,
      "note": 58,
      "start": 134.9705,
      "duration": 0.0326,
      "velocity": 127,
      "chip": "ym2612"
    },
    {
      "channel": 0,
      "note": 61,
      "start": 135.0837,
      "duration": 0.0369,
      "velocity": 79,
      "chip": "ym2612"
    },
    {
      "channel": 1,
      "note": 22,
      "start": 135.0864,
      "duration": 0.1151,
      "velocity": 125,
      "chip": "ym2612"
    },
    {
      "channel": 4,
      "note": 58,
      "start": 135.09,
      "duration": 0.0328,
      "velocity": 127,
      "chip": "ym2612"
    },
    {
      "channel": 1,
      "note": 30,
      "start": 135.2037,
      "duration": 0.0974,
      "velocity": 127,
      "chip": "ym2612"
    },
    {
      "channel": 4,
      "note": 58,
      "start": 135.2073,
      "duration": 0.1341,
      "velocity": 127,
      "chip": "ym2612"
    },
    {
      "channel": 0,
      "note": 61,
      "start": 135.3225,
      "duration": 0.0374,
      "velocity": 79,
      "chip": "ym2612"
    },
    {
      "channel": 1,
      "note": 22,
      "start": 135.4429,
      "duration": 0.1203,
      "velocity": 125,
      "chip": "ym2612"
    },
    {
      "channel": 4,
      "note": 58,
      "start": 135.4464,
      "duration": 0.0349,
      "velocity": 127,
      "chip": "ym2612"
    },
    {
      "channel": 0,
      "note": 61,
      "start": 135.5621,
      "duration": 0.037,
      "velocity": 79,
      "chip": "ym2612"
    },
    {
      "channel": 4,
      "note": 58,
      "start": 135.5664,
      "duration": 0.0343,
      "velocity": 127,
      "chip": "ym2612"
    },
    {
      "channel": 0,
      "note": 54,
      "start": 135.6818,
      "duration": 0.0369,
      "velocity": 79,
      "chip": "ym2612"
    },
    {
      "channel": 1,
      "note": 24,
      "start": 135.6845,
      "duration": 0.095,
      "velocity": 127,
      "chip": "ym2612"
    },
    {
      "channel": 4,
      "note": 58,
      "start": 135.6882,
      "duration": 0.1322,
      "velocity": 127,
      "chip": "ym2612"
    },
    {
      "channel": 1,
      "note": 22,
      "start": 135.8016,
      "duration": 0.0983,
      "velocity": 127,
      "chip": "ym2612"
    },
    {
      "channel": 0,
      "note": 56,
      "start": 135.9212,
      "duration": 0.0368,
      "velocity": 79,
      "chip": "ym2612"
    },
    {
      "channel": 1,
      "note": 22,
      "start": 135.9239,
      "duration": 0.0951,
      "velocity": 127,
      "chip": "ym2612"
    },
    {
      "channel": 3,
      "note": 76,
      "start": 135.9271,
      "duration": 0.115,
      "velocity": 95,
      "chip": "ym2612"
    },
    {
      "channel": 4,
      "note": 58,
      "start": 135.9299,
      "duration": 0.0302,
      "velocity": 127,
      "chip": "ym2612"
    },
    {
      "channel": 2,
      "note": 76,
      "start": 136.0412,
      "duration": 0.1228,
      "velocity": 95,
      "chip": "ym2612"
    },
    {
      "channel": 4,
      "note": 58,
      "start": 136.0445,
      "duration": 0.0345,
      "velocity": 127,
      "chip": "ym2612"
    },
    {
      "channel": 0,
      "note": 49,
      "start": 136.1603,
      "duration": 0.0369,
      "velocity": 79,
      "chip": "ym2612"
    },
    {
      "channel": 1,
      "note": 22,
      "start": 136.1629,
      "duration": 0.0948,
      "velocity": 127,
      "chip": "ym2612"
    },
    {
      "channel": 4,
      "note": 58,
      "start": 136.1668,
      "duration": 0.1316,
      "velocity": 127,
      "chip": "ym2612"
    },
    {
      "channel": 0,
      "note": 49,
      "start": 136.3997,
      "duration": 0.0367,
      "velocity": 79,
      "chip": "ym2612"
    },
    {
      "channel": 1,
      "note": 22,
      "start": 136.4024,
      "duration": 0.1151,
      "velocity": 125,
      "chip": "ym2612"
    },
    {
      "channel": 3,
      "note": 74,
      "start": 136.4055,
      "duration": 0.1157,
      "velocity": 95,
      "chip": "ym2612"
    },
    {
      "channel": 4,
      "note": 58,
      "start": 136.4083,
      "duration": 0.0303,
      "velocity": 127,
      "chip": "ym2612"
    },
    {
      "channel": 2,
      "note": 74,
      "start": 136.5202,
      "duration": 0.1222,
      "velocity": 95,
      "chip": "ym2612"
    },
    {
      "channel": 4,
      "note": 58,
      "start": 136.5236,
      "duration": 0.0339,
      "velocity": 127,
      "chip": "ym2612"
    },
    {
      "channel": 0,
      "note": 61,
      "start": 136.6388,
      "duration": 0.0369,
      "velocity": 79,
      "chip": "ym2612"
    },
    {
      "channel": 1,
      "note": 24,
      "start": 136.6415,
      "duration": 0.0951,
      "velocity": 127,
      "chip": "ym2612"
    },
    {
      "channel": 4,
      "note": 58,
      "start": 136.6453,
      "duration": 0.1319,
      "velocity": 127,
      "chip": "ym2612"
    },
    {
      "channel": 1,
      "note": 22,
      "start": 136.7585,
      "duration": 0.1206,
      "velocity": 125,
      "chip": "ym2612"
    },
    {
      "channel": 0,
      "note": 61,
      "start": 136.8781,
      "duration": 0.0368,
      "velocity": 79,
      "chip": "ym2612"
    },
    {
      "channel": 1,
      "note": 30,
      "start": 136.8808,
      "duration": 0.0955,
      "velocity": 127,
      "chip": "ym2612"
    },
    {
      "channel": 3,
      "note": 76,
      "start": 136.8841,
      "duration": 0.12,
      "velocity": 95,
      "chip": "ym2612"
    },
    {
      "channel": 4,
      "note": 58,
      "start": 136.8868,
      "duration": 0.0301,
      "velocity": 127,
      "chip": "ym2612"
    },
    {
      "channel": 0,
      "note": 61,
      "start": 136.9978,
      "duration": 0.0368,
      "velocity": 79,
      "chip": "ym2612"
    },
    {
      "channel": 1,
      "note": 22,
      "start": 137.0005,
      "duration": 0.115,
      "velocity": 125,
      "chip": "ym2612"
    },
    {
      "channel": 2,
      "note": 76,
      "start": 137.0031,
      "duration": 0.1155,
      "velocity": 95,
      "chip": "ym2612"
    },
    {
      "channel": 4,
      "note": 58,
      "start": 137.0065,
      "duration": 0.0302,
      "velocity": 127,
      "chip": "ym2612"
    },
    {
      "channel": 1,
      "note": 30,
      "start": 137.1176,
      "duration": 0.0974,
      "velocity": 127,
      "chip": "ym2612"
    },
    {
      "channel": 4,
      "note": 58,
      "start": 137.1214,
      "duration": 0.1339,
      "velocity": 127,
      "chip": "ym2612"
    },
    {
      "channel": 0,
      "note": 61,
      "start": 137.2364,
      "duration": 0.0373,
      "velocity": 79,
      "chip": "ym2612"
    },
    {
      "channel": 1,
      "note": 22,
      "start": 137.3569,
      "duration": 0.1205,
      "velocity": 125,
      "chip": "ym2612"
    },
    {
      "channel": 3,
      "note": 79,
      "start": 137.3601,
      "duration": 0.1206,
      "velocity": 95,
      "chip": "ym2612"
    },
    {
      "channel": 4,
      "note": 58,
      "start": 137.3628,
      "duration": 0.0324,
      "velocity": 127,
      "chip": "ym2612"
    },
    {
      "channel": 0,
      "note": 61,
      "start": 137.4763,
      "duration": 0.0367,
      "velocity": 79,
      "chip": "ym2612"
    },
    {
      "channel": 2,
      "note": 79,
      "start": 137.4797,
      "duration": 0.12,
      "velocity": 95,
      "chip": "ym2612"
    },
    {
      "channel": 3,
      "note": 77,
      "start": 137.4824,
      "duration": 0.1199,
      "velocity": 95,
      "chip": "ym2612"
    },
    {
      "channel": 4,
      "note": 58,
      "start": 137.4852,
      "duration": 0.0294,
      "velocity": 127,
      "chip": "ym2612"
    },
    {
      "channel": 0,
      "note": 56,
      "start": 137.596,
      "duration": 0.0366,
      "velocity": 79,
      "chip": "ym2612"
    },
    {
      "channel": 1,
      "note": 24,
      "start": 137.5987,
      "duration": 0.1176,
      "velocity": 125,
      "chip": "ym2612"
    },
    {
      "channel": 2,
      "note": 77,
      "start": 137.6013,
      "duration": 0.1176,
      "velocity": 95,
      "chip": "ym2612"
    },
    {
      "channel": 3,
      "note": 73,
      "start": 137.6041,
      "duration": 0.1175,
      "velocity": 95,
      "chip": "ym2612"
    },
    {
      "channel": 4,
      "note": 58,
      "start": 137.6068,
      "duration": 0.1273,
      "velocity": 127,
      "chip": "ym2612"
    },
    {
      "channel": 0,
      "note": 58,
      "start": 137.7153,
      "duration": 0.0369,
      "velocity": 79,
      "chip": "ym2612"
    },
    {
      "channel": 1,
      "note": 30,
      "start": 137.718,
      "duration": 0.1181,
      "velocity": 125,
      "chip": "ym2612"
    },
    {
      "channel": 2,
      "note": 73,
      "start": 137.7206,
      "duration": 0.1182,
      "velocity": 95,
      "chip": "ym2612"
    },
    {
      "channel": 0,
      "note": 59,
      "start": 137.8351,
      "duration": 0.0368,
      "velocity": 79,
      "chip": "ym2612"
    },
    {
      "channel": 1,
      "note": 30,
      "start": 137.8378,
      "duration": 0.0951,
      "velocity": 127,
      "chip": "ym2612"
    },
    {
      "channel": 2,
      "note": 70,
      "start": 137.8405,
      "duration": 0.1124,
      "velocity": 95,
      "chip": "ym2612"
    },
    {
      "channel": 4,
      "note": 58,
      "start": 137.8437,
      "duration": 0.0309,
      "velocity": 127,
      "chip": "ym2612"
    },
    {
      "channel": 3,
      "note": 70,
      "start": 137.9558,
      "duration": 0.1225,
      "velocity": 95,
      "chip": "ym2612"
    },
    {
      "channel": 4,
      "note": 58,
      "start": 137.9585,
      "duration": 0.0344,
      "velocity": 127,
      "chip": "ym2612"
    },
    {
      "channel": 0,
      "note": 51,
      "start": 138.0742,
      "duration": 0.0369,
      "velocity": 79,
      "chip": "ym2612"
    },
    {
      "channel": 1,
      "note": 22,
      "start": 138.0769,
      "duration": 0.0948,
      "velocity": 127,
      "chip": "ym2612"
    },
    {
      "channel": 4,
      "note": 58,
      "start": 138.0807,
      "duration": 0.1316,
      "velocity": 127,
      "chip": "ym2612"
    },
    {
      "channel": 0,
      "note": 51,
      "start": 138.3134,
      "duration": 0.0369,
      "velocity": 79,
      "chip": "ym2612"
    },
    {
      "channel": 1,
      "note": 22,
      "start": 138.3161,
      "duration": 0.1151,
      "velocity": 125,
      "chip": "ym2612"
    },
    {
      "channel": 4,
      "note": 58,
      "start": 138.3197,
      "duration": 0.0328,
      "velocity": 127,
      "chip": "ym2612"
    },
    {
      "channel": 4,
      "note": 58,
      "start": 138.4349,
      "duration": 0.0365,
      "velocity": 127,
      "chip": "ym2612"
    },
    {
      "channel": 0,
      "note": 63,
      "start": 138.5527,
      "duration": 0.0369,
      "velocity": 79,
      "chip": "ym2612"
    },
    {
      "channel": 1,
      "note": 24,
      "start": 138.5554,
      "duration": 0.095,
      "velocity": 127,
      "chip": "ym2612"
    },
    {
      "channel": 4,
      "note": 58,
      "start": 138.559,
      "duration": 0.1321,
      "velocity": 127,
      "chip": "ym2612"
    },
    {
      "channel": 1,
      "note": 22,
      "start": 138.6724,
      "duration": 0.1205,
      "velocity": 125,
      "chip": "ym2612"
    },
    {
      "channel": 0,
      "note": 63,
      "start": 138.7919,
      "duration": 0.0369,
      "velocity": 79,
      "chip": "ym2612"
    },
    {
      "channel": 1,
      "note": 30,
      "start": 138.7946,
      "duration": 0.0955,
      "velocity": 127,
      "chip": "ym2612"
    },
    {
      "channel": 4,
      "note": 58,
      "start": 138.7983,
      "duration": 0.0326,
      "velocity": 127,
      "chip": "ym2612"
    },
    {
      "channel": 0,
      "note": 61,
      "start": 138.9115,
      "duration": 0.0369,
      "velocity": 79,
      "chip": "ym2612"
    },
    {
      "channel": 1,
      "note": 22,
      "start": 138.9142,
      "duration": 0.1151,
      "velocity": 125,
      "chip": "ym2612"
    },
    {
      "channel": 4,
      "note": 58,
      "start": 138.9178,
      "duration": 0.0328,
      "velocity": 127,
      "chip": "ym2612"
    },
    {
      "channel": 1,
      "note": 30,
      "start": 139.0315,
      "duration": 0.0974,
      "velocity": 127,
      "chip": "ym2612"
    },
    {
      "channel": 4,
      "note": 58,
      "start": 139.0351,
      "duration": 0.1341,
      "velocity": 127,
      "chip": "ym2612"
    },
    {
      "channel": 0,
      "note": 61,
      "start": 139.1503,
      "duration": 0.0374,
      "velocity": 79,
      "chip": "ym2612"
    },
    {
      "channel": 1,
      "note": 22,
      "start": 139.2707,
      "duration": 0.1203,
      "velocity": 125,
      "chip": "ym2612"
    },
    {
      "channel": 4,
      "note": 58,
      "start": 139.2743,
      "duration": 0.0349,
      "velocity": 127,
      "chip": "ym2612"
    },
    {
      "channel": 0,
      "note": 61,
      "start": 139.3899,
      "duration": 0.037,
      "velocity": 79,
      "chip": "ym2612"
    },
    {
      "channel": 4,
      "note": 58,
      "start": 139.3942,
      "duration": 0.0343,
      "velocity": 127,
      "chip": "ym2612"
    },
    {
      "channel": 0,
      "note": 56,
      "start": 139.5096,
      "duration": 0.0369,
      "velocity": 79,
      "chip": "ym2612"
    },
    {
      "channel": 1,
      "note": 24,
      "start": 139.5123,
      "duration": 0.0948,
      "velocity": 127,
      "chip": "ym2612"
    },
    {
      "channel": 4,
      "note": 58,
      "start": 139.516,
      "duration": 0.1317,
      "velocity": 127,
      "chip": "ym2612"
    },
    {
      "channel": 0,
      "note": 58,
      "start": 139.7489,
      "duration": 0.0369,
      "velocity": 79,
      "chip": "ym2612"
    },
    {
      "channel": 1,
      "note": 22,
      "start": 139.7515,
      "duration": 0.095,
      "velocity": 127,
      "chip": "ym2612"
    },
    {
      "channel": 4,
      "note": 58,
      "start": 139.7552,
      "duration": 0.0326,
      "velocity": 127,
      "chip": "ym2612"
    },
    {
      "channel": 4,
      "note": 58,
      "start": 139.8698,
      "duration": 0.0371,
      "velocity": 127,
      "chip": "ym2612"
    },
    {
      "channel": 0,
      "note": 51,
      "start": 139.9881,
      "duration": 0.0369,
      "velocity": 79,
      "chip": "ym2612"
    },
    {
      "channel": 1,
      "note": 22,
      "start": 139.9908,
      "duration": 0.0948,
      "velocity": 127,
      "chip": "ym2612"
    },
    {
      "channel": 4,
      "note": 58,
      "start": 139.9944,
      "duration": 0.1317,
      "velocity": 127,
      "chip": "ym2612"
    },
    {
      "channel": 0,
      "note": 51,
      "start": 140.2273,
      "duration": 0.0369,
      "velocity": 79,
      "chip": "ym2612"
    },
    {
      "channel": 1,
      "note": 22,
      "start": 140.23,
      "duration": 0.1151,
      "velocity": 125,
      "chip": "ym2612"
    },
    {
      "channel": 4,
      "note": 58,
      "start": 140.2336,
      "duration": 0.0327,
      "velocity": 127,
      "chip": "ym2612"
    },
    {
      "channel": 4,
      "note": 58,
      "start": 140.3488,
      "duration": 0.0365,
      "velocity": 127,
      "chip": "ym2612"
    },
    {
      "channel": 0,
      "note": 63,
      "start": 140.4666,
      "duration": 0.0369,
      "velocity": 79,
      "chip": "ym2612"
    },
    {
      "channel": 1,
      "note": 24,
      "start": 140.4693,
      "duration": 0.0951,
      "velocity": 127,
      "chip": "ym2612"
    },
    {
      "channel": 4,
      "note": 58,
      "start": 140.4729,
      "duration": 0.1321,
      "velocity": 127,
      "chip": "ym2612"
    },
    {
      "channel": 1,
      "note": 22,
      "start": 140.5864,
      "duration": 0.1205,
      "velocity": 125,
      "chip": "ym2612"
    },
    {
      "channel": 0,
      "note": 63,
      "start": 140.7058,
      "duration": 0.0369,
      "velocity": 79,
      "chip": "ym2612"
    },
    {
      "channel": 1,
      "note": 30,
      "start": 140.7085,
      "duration": 0.0955,
      "velocity": 127,
      "chip": "ym2612"
    },
    {
      "channel": 4,
      "note": 58,
      "start": 140.7122,
      "duration": 0.0327,
      "velocity": 127,
      "chip": "ym2612"
    },
    {
      "channel": 0,
      "note": 61,
      "start": 140.8254,
      "duration": 0.0369,
      "velocity": 79,
      "chip": "ym2612"
    },
    {
      "channel": 1,
      "note": 22,
      "start": 140.8281,
      "duration": 0.1151,
      "velocity": 125,
      "chip": "ym2612"
    },
    {
      "channel": 4,
      "note": 58,
      "start": 140.8317,
      "duration": 0.0328,
      "velocity": 127,
      "chip": "ym2612"
    },
    {
      "channel": 1,
      "note": 30,
      "start": 140.9454,
      "duration": 0.0974,
      "velocity": 127,
      "chip": "ym2612"
    },
    {
      "channel": 4,
      "note": 58,
      "start": 140.9491,
      "duration": 0.1341,
      "velocity": 127,
      "chip": "ym2612"
    },
    {
      "channel": 0,
      "note": 61,
      "start": 141.0642,
      "duration": 0.0374,
      "velocity": 79,
      "chip": "ym2612"
    },
    {
      "channel": 1,
      "note": 22,
      "start": 141.1846,
      "duration": 0.1203,
      "velocity": 125,
      "chip": "ym2612"
    },
    {
      "channel": 4,
      "note": 58,
      "start": 141.1882,
      "duration": 0.0349,
      "velocity": 127,
      "chip": "ym2612"
    },
    {
      "channel": 0,
      "note": 61,
      "start": 141.3038,
      "duration": 0.037,
      "velocity": 79,
      "chip": "ym2612"
    },
    {
      "channel": 4,
      "note": 58,
      "start": 141.3082,
      "duration": 0.0343,
      "velocity": 127,
      "chip": "ym2612"
    },
    {
      "channel": 0,
      "note": 56,
      "start": 141.4236,
      "duration": 0.0369,
      "velocity": 79,
      "chip": "ym2612"
    },
    {
      "channel": 1,
      "note": 24,
      "start": 141.4262,
      "duration": 0.1149,
      "velocity": 125,
      "chip": "ym2612"
    },
    {
      "channel": 4,
      "note": 58,
      "start": 141.4298,
      "duration": 0.1323,
      "velocity": 127,
      "chip": "ym2612"
    },
    {
      "channel": 1,
      "note": 30,
      "start": 141.5433,
      "duration": 0.098,
      "velocity": 127,
      "chip": "ym2612"
    },
    {
      "channel": 0,
      "note": 58,
      "start": 141.6628,
      "duration": 0.0369,
      "velocity": 79,
      "chip": "ym2612"
    },
    {
      "channel": 1,
      "note": 22,
      "start": 141.6655,
      "duration": 0.095,
      "velocity": 127,
      "chip": "ym2612"
    },
    {
      "channel": 4,
      "note": 58,
      "start": 141.6691,
      "duration": 0.0326,
      "velocity": 127,
      "chip": "ym2612"
    },
    {
      "channel": 4,
      "note": 58,
      "start": 141.7837,
      "duration": 0.0371,
      "velocity": 127,
      "chip": "ym2612"
    },
    {
      "channel": 0,
      "note": 51,
      "start": 141.902,
      "duration": 0.0369,
      "velocity": 79,
      "chip": "ym2612"
    },
    {
      "channel": 1,
      "note": 22,
      "start": 141.9047,
      "duration": 0.0948,
      "velocity": 127,
      "chip": "ym2612"
    },
    {
      "channel": 4,
      "note": 58,
      "start": 141.9084,
      "duration": 0.1317,
      "velocity": 127,
      "chip": "ym2612"
    },
    {
      "channel": 0,
      "note": 51,
      "start": 142.1413,
      "duration": 0.0369,
      "velocity": 79,
      "chip": "ym2612"
    },
    {
      "channel": 1,
      "note": 22,
      "start": 142.1439,
      "duration": 0.1151,
      "velocity": 125,
      "chip": "ym2612"
    },
    {
      "channel": 4,
      "note": 58,
      "start": 142.1475,
      "duration": 0.0327,
      "velocity": 127,
      "chip": "ym2612"
    },
    {
      "channel": 4,
      "note": 58,
      "start": 142.2627,
      "duration": 0.0365,
      "velocity": 127,
      "chip": "ym2612"
    },
    {
      "channel": 0,
      "note": 63,
      "start": 142.3805,
      "duration": 0.0369,
      "velocity": 79,
      "chip": "ym2612"
    },
    {
      "channel": 1,
      "note": 24,
      "start": 142.3832,
      "duration": 0.0951,
      "velocity": 127,
      "chip": "ym2612"
    },
    {
      "channel": 4,
      "note": 58,
      "start": 142.3869,
      "duration": 0.1321,
      "velocity": 127,
      "chip": "ym2612"
    },
    {
      "channel": 1,
      "note": 22,
      "start": 142.5003,
      "duration": 0.1205,
      "velocity": 125,
      "chip": "ym2612"
    },
    {
      "channel": 0,
      "note": 63,
      "start": 142.6198,
      "duration": 0.0369,
      "velocity": 79,
      "chip": "ym2612"
    },
    {
      "channel": 1,
      "note": 30,
      "start": 142.6224,
      "duration": 0.0955,
      "velocity": 127,
      "chip": "ym2612"
    },
    {
      "channel": 4,
      "note": 58,
      "start": 142.6261,
      "duration": 0.0326,
      "velocity": 127,
      "chip": "ym2612"
    },
    {
      "channel": 0,
      "note": 61,
      "start": 142.7394,
      "duration": 0.0369,
      "velocity": 79,
      "chip": "ym2612"
    },
    {
      "channel": 1,
      "note": 22,
      "start": 142.742,
      "duration": 0.1151,
      "velocity": 125,
      "chip": "ym2612"
    },
    {
      "channel": 4,
      "note": 58,
      "start": 142.7456,
      "duration": 0.0328,
      "velocity": 127,
      "chip": "ym2612"
    },
    {
      "channel": 1,
      "note": 30,
      "start": 142.8593,
      "duration": 0.0974,
      "velocity": 127,
      "chip": "ym2612"
    },
    {
      "channel": 4,
      "note": 58,
      "start": 142.863,
      "duration": 0.1341,
      "velocity": 127,
      "chip": "ym2612"
    },
    {
      "channel": 0,
      "note": 61,
      "start": 142.9781,
      "duration": 0.0374,
      "velocity": 79,
      "chip": "ym2612"
    },
    {
      "channel": 1,
      "note": 22,
      "start": 143.0985,
      "duration": 0.1203,
      "velocity": 125,
      "chip": "ym2612"
    },
    {
      "channel": 4,
      "note": 58,
      "start": 143.1021,
      "duration": 0.0349,
      "velocity": 127,
      "chip": "ym2612"
    },
    {
      "channel": 0,
      "note": 61,
      "start": 143.2177,
      "duration": 0.037,
      "velocity": 79,
      "chip": "ym2612"
    },
    {
      "channel": 4,
      "note": 58,
      "start": 143.2221,
      "duration": 0.0343,
      "velocity": 127,
      "chip": "ym2612"
    },
    {
      "channel": 0,
      "note": 56,
      "start": 143.3375,
      "duration": 0.0369,
      "velocity": 79,
      "chip": "ym2612"
    },
    {
      "channel": 1,
      "note": 24,
      "start": 143.3402,
      "duration": 0.095,
      "velocity": 127,
      "chip": "ym2612"
    },
    {
      "channel": 4,
      "note": 58,
      "start": 143.3438,
      "duration": 0.1322,
      "velocity": 127,
      "chip": "ym2612"
    },
    {
      "channel": 1,
      "note": 22,
      "start": 143.4572,
      "duration": 0.098,
      "velocity": 127,
      "chip": "ym2612"
    },
    {
      "channel": 0,
      "note": 58,
      "start": 143.5767,
      "duration": 0.0369,
      "velocity": 79,
      "chip": "ym2612"
    },
    {
      "channel": 1,
      "note": 22,
      "start": 143.5794,
      "duration": 0.095,
      "velocity": 127,
      "chip": "ym2612"
    },
    {
      "channel": 4,
      "note": 58,
      "start": 143.583,
      "duration": 0.0326,
      "velocity": 127,
      "chip": "ym2612"
    },
    {
      "channel": 4,
      "note": 58,
      "start": 143.6976,
      "duration": 0.037,
      "velocity": 127,
      "chip": "ym2612"
    },
    {
      "channel": 0,
      "note": 51,
      "start": 143.8159,
      "duration": 0.0369,
      "velocity": 79,
      "chip": "ym2612"
    },
    {
      "channel": 1,
      "note": 22,
      "start": 143.8186,
      "duration": 0.0948,
      "velocity": 127,
      "chip": "ym2612"
    },
    {
      "channel": 4,
      "note": 58,
      "start": 143.8219,
      "duration": 0.1313,
      "velocity": 127,
      "chip": "ym2612"
    },
    {
      "channel": 0,
      "note": 51,
      "start": 144.0552,
      "duration": 0.0369,
      "velocity": 79,
      "chip": "ym2612"
    },
    {
      "channel": 1,
      "note": 22,
      "start": 144.0579,
      "duration": 0.1151,
      "velocity": 125,
      "chip": "ym2612"
    },
    {
      "channel": 4,
      "note": 58,
      "start": 144.0607,
      "duration": 0.0328,
      "velocity": 127,
      "chip": "ym2612"
    },
    {
      "channel": 4,
      "note": 58,
      "start": 144.1759,
      "duration": 0.0365,
      "velocity": 127,
      "chip": "ym2612"
    },
    {
      "channel": 0,
      "note": 63,
      "start": 144.2944,
      "duration": 0.0369,
      "velocity": 79,
      "chip": "ym2612"
    },
    {
      "channel": 1,
      "note": 24,
      "start": 144.2971,
      "duration": 0.0951,
      "velocity": 127,
      "chip": "ym2612"
    },
    {
      "channel": 4,
      "note": 58,
      "start": 144.3,
      "duration": 0.132,
      "velocity": 127,
      "chip": "ym2612"
    },
    {
      "channel": 1,
      "note": 22,
      "start": 144.4142,
      "duration": 0.1205,
      "velocity": 125,
      "chip": "ym2612"
    },
    {
      "channel": 0,
      "note": 63,
      "start": 144.5337,
      "duration": 0.0369,
      "velocity": 79,
      "chip": "ym2612"
    },
    {
      "channel": 1,
      "note": 30,
      "start": 144.5363,
      "duration": 0.0955,
      "velocity": 127,
      "chip": "ym2612"
    },
    {
      "channel": 4,
      "note": 58,
      "start": 144.5393,
      "duration": 0.0326,
      "velocity": 127,
      "chip": "ym2612"
    },
    {
      "channel": 0,
      "note": 56,
      "start": 144.6533,
      "duration": 0.0369,
      "velocity": 79,
      "chip": "ym2612"
    },
    {
      "channel": 1,
      "note": 22,
      "start": 144.656,
      "duration": 0.1151,
      "velocity": 125,
      "chip": "ym2612"
    },
    {
      "channel": 4,
      "note": 58,
      "start": 144.6588,
      "duration": 0.0327,
      "velocity": 127,
      "chip": "ym2612"
    },
    {
      "channel": 1,
      "note": 30,
      "start": 144.7732,
      "duration": 0.0974,
      "velocity": 127,
      "chip": "ym2612"
    },
    {
      "channel": 4,
      "note": 58,
      "start": 144.7761,
      "duration": 0.1341,
      "velocity": 127,
      "chip": "ym2612"
    },
    {
      "channel": 0,
      "note": 56,
      "start": 144.892,
      "duration": 0.0374,
      "velocity": 79,
      "chip": "ym2612"
    },
    {
      "channel": 1,
      "note": 22,
      "start": 145.0124,
      "duration": 0.1203,
      "velocity": 125,
      "chip": "ym2612"
    },
    {
      "channel": 4,
      "note": 58,
      "start": 145.0153,
      "duration": 0.0349,
      "velocity": 127,
      "chip": "ym2612"
    },
    {
      "channel": 0,
      "note": 56,
      "start": 145.1316,
      "duration": 0.037,
      "velocity": 79,
      "chip": "ym2612"
    },
    {
      "channel": 4,
      "note": 58,
      "start": 145.1352,
      "duration": 0.0343,
      "velocity": 127,
      "chip": "ym2612"
    },
    {
      "channel": 0,
      "note": 58,
      "start": 145.2514,
      "duration": 0.0369,
      "velocity": 79,
      "chip": "ym2612"
    },
    {
      "channel": 1,
      "note": 24,
      "start": 145.2541,
      "duration": 0.1149,
      "velocity": 125,
      "chip": "ym2612"
    },
    {
      "channel": 4,
      "note": 58,
      "start": 145.2569,
      "duration": 0.1322,
      "velocity": 127,
      "chip": "ym2612"
    },
    {
      "channel": 1,
      "note": 30,
      "start": 145.3711,
      "duration": 0.1206,
      "velocity": 125,
      "chip": "ym2612"
    },
    {
      "channel": 0,
      "note": 54,
      "start": 145.4907,
      "duration": 0.0368,
      "velocity": 79,
      "chip": "ym2612"
    },
    {
      "channel": 1,
      "note": 30,
      "start": 145.4934,
      "duration": 0.0949,
      "velocity": 127,
      "chip": "ym2612"
    },
    {
      "channel": 2,
      "note": 76,
      "start": 145.4962,
      "duration": 0.9551,
      "velocity": 106,
      "chip": "ym2612"
    },
    {
      "channel": 4,
      "note": 58,
      "start": 145.499,
      "duration": 0.0302,
      "velocity": 127,
      "chip": "ym2612"
    },
    {
      "channel": 4,
      "note": 58,
      "start": 145.6111,
      "duration": 0.0371,
      "velocity": 127,
      "chip": "ym2612"
    },
    {
      "channel": 0,
      "note": 51,
      "start": 145.73,
      "duration": 0.0368,
      "velocity": 79,
      "chip": "ym2612"
    },
    {
      "channel": 1,
      "note": 22,
      "start": 145.7327,
      "duration": 0.0947,
      "velocity": 127,
      "chip": "ym2612"
    },
    {
      "channel": 3,
      "note": 76,
      "start": 145.7359,
      "duration": 0.9526,
      "velocity": 106,
      "chip": "ym2612"
    },
    {
      "channel": 4,
      "note": 58,
      "start": 145.7387,
      "duration": 0.1292,
      "velocity": 127,
      "chip": "ym2612"
    },
    {
      "channel": 0,
      "note": 51,
      "start": 145.9691,
      "duration": 0.0369,
      "velocity": 79,
      "chip": "ym2612"
    },
    {
      "channel": 1,
      "note": 22,
      "start": 145.9718,
      "duration": 0.1151,
      "velocity": 125,
      "chip": "ym2612"
    },
    {
      "channel": 4,
      "note": 58,
      "start": 145.9756,
      "duration": 0.0326,
      "velocity": 127,
      "chip": "ym2612"
    },
    {
      "channel": 4,
      "note": 58,
      "start": 146.0905,
      "duration": 0.0365,
      "velocity": 127,
      "chip": "ym2612"
    },
    {
      "channel": 0,
      "note": 63,
      "start": 146.2083,
      "duration": 0.0369,
      "velocity": 79,
      "chip": "ym2612"
    },
    {
      "channel": 1,
      "note": 24,
      "start": 146.211,
      "duration": 0.0951,
      "velocity": 127,
      "chip": "ym2612"
    },
    {
      "channel": 4,
      "note": 58,
      "start": 146.2149,
      "duration": 0.1318,
      "velocity": 127,
      "chip": "ym2612"
    },
    {
      "channel": 1,
      "note": 22,
      "start": 146.3281,
      "duration": 0.1205,
      "velocity": 125,
      "chip": "ym2612"
    },
    {
      "channel": 0,
      "note": 63,
      "start": 146.4476,
      "duration": 0.0369,
      "velocity": 79,
      "chip": "ym2612"
    },
    {
      "channel": 1,
      "note": 30,
      "start": 146.4502,
      "duration": 0.0955,
      "velocity": 127,
      "chip": "ym2612"
    },
    {
      "channel": 4,
      "note": 58,
      "start": 146.4541,
      "duration": 0.0324,
      "velocity": 127,
      "chip": "ym2612"
    },
    {
      "channel": 0,
      "note": 61,
      "start": 146.5672,
      "duration": 0.0369,
      "velocity": 79,
      "chip": "ym2612"
    },
    {
      "channel": 1,
      "note": 22,
      "start": 146.5699,
      "duration": 0.1151,
      "velocity": 125,
      "chip": "ym2612"
    },
    {
      "channel": 4,
      "note": 58,
      "start": 146.5734,
      "duration": 0.0328,
      "velocity": 127,
      "chip": "ym2612"
    },
    {
      "channel": 1,
      "note": 30,
      "start": 146.6871,
      "duration": 0.0974,
      "velocity": 127,
      "chip": "ym2612"
    },
    {
      "channel": 4,
      "note": 58,
      "start": 146.691,
      "duration": 0.1339,
      "velocity": 127,
      "chip": "ym2612"
    },
    {
      "channel": 0,
      "note": 61,
      "start": 146.806,
      "duration": 0.0374,
      "velocity": 79,
      "chip": "ym2612"
    },
    {
      "channel": 1,
      "note": 22,
      "start": 146.9264,
      "duration": 0.1203,
      "velocity": 125,
      "chip": "ym2612"
    },
    {
      "channel": 4,
      "note": 58,
      "start": 146.9299,
      "duration": 0.0349,
      "velocity": 127,
      "chip": "ym2612"
    },
    {
      "channel": 0,
      "note": 61,
      "start": 147.0456,
      "duration": 0.037,
      "velocity": 79,
      "chip": "ym2612"
    },
    {
      "channel": 4,
      "note": 58,
      "start": 147.0499,
      "duration": 0.0343,
      "velocity": 127,
      "chip": "ym2612"
    },
    {
      "channel": 0,
      "note": 56,
      "start": 147.1653,
      "duration": 0.0369,
      "velocity": 79,
      "chip": "ym2612"
    },
    {
      "channel": 1,
      "note": 24,
      "start": 147.168,
      "duration": 0.0948,
      "velocity": 127,
      "chip": "ym2612"
    },
    {
      "channel": 4,
      "note": 58,
      "start": 147.1716,
      "duration": 0.1317,
      "velocity": 127,
      "chip": "ym2612"
    },
    {
      "channel": 0,
      "note": 58,
      "start": 147.4045,
      "duration": 0.0369,
      "velocity": 79,
      "chip": "ym2612"
    },
    {
      "channel": 1,
      "note": 22,
      "start": 147.4072,
      "duration": 0.095,
      "velocity": 127,
      "chip": "ym2612"
    },
    {
      "channel": 4,
      "note": 58,
      "start": 147.4109,
      "duration": 0.0326,
      "velocity": 127,
      "chip": "ym2612"
    },
    {
      "channel": 4,
      "note": 58,
      "start": 147.5254,
      "duration": 0.037,
      "velocity": 127,
      "chip": "ym2612"
    },
    {
      "channel": 0,
      "note": 51,
      "start": 147.6438,
      "duration": 0.0369,
      "velocity": 79,
      "chip": "ym2612"
    },
    {
      "channel": 1,
      "note": 22,
      "start": 147.6464,
      "duration": 0.0948,
      "velocity": 127,
      "chip": "ym2612"
    },
    {
      "channel": 4,
      "note": 58,
      "start": 147.6501,
      "duration": 0.1317,
      "velocity": 127,
      "chip": "ym2612"
    },
    {
      "channel": 0,
      "note": 51,
      "start": 147.883,
      "duration": 0.0369,
      "velocity": 79,
      "chip": "ym2612"
    },
    {
      "channel": 1,
      "note": 22,
      "start": 147.8857,
      "duration": 0.1151,
      "velocity": 125,
      "chip": "ym2612"
    },
    {
      "channel": 4,
      "note": 58,
      "start": 147.8892,
      "duration": 0.0328,
      "velocity": 127,
      "chip": "ym2612"
    },
    {
      "channel": 4,
      "note": 58,
      "start": 148.0045,
      "duration": 0.0365,
      "velocity": 127,
      "chip": "ym2612"
    },
    {
      "channel": 0,
      "note": 63,
      "start": 148.1222,
      "duration": 0.0369,
      "velocity": 79,
      "chip": "ym2612"
    },
    {
      "channel": 1,
      "note": 24,
      "start": 148.1249,
      "duration": 0.0951,
      "velocity": 127,
      "chip": "ym2612"
    },
    {
      "channel": 4,
      "note": 58,
      "start": 148.1286,
      "duration": 0.132,
      "velocity": 127,
      "chip": "ym2612"
    },
    {
      "channel": 1,
      "note": 22,
      "start": 148.242,
      "duration": 0.1205,
      "velocity": 125,
      "chip": "ym2612"
    },
    {
      "channel": 0,
      "note": 63,
      "start": 148.3615,
      "duration": 0.0369,
      "velocity": 79,
      "chip": "ym2612"
    },
    {
      "channel": 1,
      "note": 30,
      "start": 148.3642,
      "duration": 0.0955,
      "velocity": 127,
      "chip": "ym2612"
    },
    {
      "channel": 4,
      "note": 58,
      "start": 148.3678,
      "duration": 0.0327,
      "velocity": 127,
      "chip": "ym2612"
    },
    {
      "channel": 0,
      "note": 61,
      "start": 148.4811,
      "duration": 0.0369,
      "velocity": 79,
      "chip": "ym2612"
    },
    {
      "channel": 1,
      "note": 22,
      "start": 148.4838,
      "duration": 0.1151,
      "velocity": 125,
      "chip": "ym2612"
    },
    {
      "channel": 4,
      "note": 58,
      "start": 148.4873,
      "duration": 0.0328,
      "velocity": 127,
      "chip": "ym2612"
    },
    {
      "channel": 1,
      "note": 30,
      "start": 148.601,
      "duration": 0.0974,
      "velocity": 127,
      "chip": "ym2612"
    },
    {
      "channel": 4,
      "note": 58,
      "start": 148.6047,
      "duration": 0.1341,
      "velocity": 127,
      "chip": "ym2612"
    },
    {
      "channel": 0,
      "note": 61,
      "start": 148.7199,
      "duration": 0.0373,
      "velocity": 79,
      "chip": "ym2612"
    },
    {
      "channel": 1,
      "note": 22,
      "start": 148.8403,
      "duration": 0.1203,
      "velocity": 125,
      "chip": "ym2612"
    },
    {
      "channel": 4,
      "note": 58,
      "start": 148.8439,
      "duration": 0.0349,
      "velocity": 127,
      "chip": "ym2612"
    },
    {
      "channel": 0,
      "note": 61,
      "start": 148.9595,
      "duration": 0.037,
      "velocity": 79,
      "chip": "ym2612"
    },
    {
      "channel": 4,
      "note": 58,
      "start": 148.9638,
      "duration": 0.0344,
      "velocity": 127,
      "chip": "ym2612"
    },
    {
      "channel": 0,
      "note": 56,
      "start": 149.0792,
      "duration": 0.0369,
      "velocity": 79,
      "chip": "ym2612"
    },
    {
      "channel": 1,
      "note": 24,
      "start": 149.0819,
      "duration": 0.1149,
      "velocity": 125,
      "chip": "ym2612"
    },
    {
      "channel": 4,
      "note": 58,
      "start": 149.0854,
      "duration": 0.1323,
      "velocity": 127,
      "chip": "ym2612"
    },
    {
      "channel": 1,
      "note": 30,
      "start": 149.199,
      "duration": 0.098,
      "velocity": 127,
      "chip": "ym2612"
    },
    {
      "channel": 0,
      "note": 58,
      "start": 149.3185,
      "duration": 0.0369,
      "velocity": 79,
      "chip": "ym2612"
    },
    {
      "channel": 1,
      "note": 22,
      "start": 149.3211,
      "duration": 0.095,
      "velocity": 127,
      "chip": "ym2612"
    },
    {
      "channel": 4,
      "note": 58,
      "start": 149.3248,
      "duration": 0.0326,
      "velocity": 127,
      "chip": "ym2612"
    },
    {
      "channel": 4,
      "note": 58,
      "start": 149.4394,
      "duration": 0.037,
      "velocity": 127,
      "chip": "ym2612"
    },
    {
      "channel": 0,
      "note": 51,
      "start": 149.5577,
      "duration": 0.0369,
      "velocity": 79,
      "chip": "ym2612"
    },
    {
      "channel": 1,
      "note": 22,
      "start": 149.5604,
      "duration": 0.0948,
      "velocity": 127,
      "chip": "ym2612"
    },
    {
      "channel": 4,
      "note": 58,
      "start": 149.564,
      "duration": 0.1317,
      "velocity": 127,
      "chip": "ym2612"
    },
    {
      "channel": 0,
      "note": 51,
      "start": 149.7969,
      "duration": 0.0369,
      "velocity": 79,
      "chip": "ym2612"
    },
    {
      "channel": 1,
      "note": 22,
      "start": 149.7996,
      "duration": 0.1151,
      "velocity": 125,
      "chip": "ym2612"
    },
    {
      "channel": 4,
      "note": 58,
      "start": 149.8032,
      "duration": 0.0328,
      "velocity": 127,
      "chip": "ym2612"
    },
    {
      "channel": 4,
      "note": 58,
      "start": 149.9184,
      "duration": 0.0365,
      "velocity": 127,
      "chip": "ym2612"
    },
    {
      "channel": 0,
      "note": 63,
      "start": 150.0362,
      "duration": 0.0369,
      "velocity": 79,
      "chip": "ym2612"
    },
    {
      "channel": 1,
      "note": 24,
      "start": 150.0388,
      "duration": 0.0951,
      "velocity": 127,
      "chip": "ym2612"
    },
    {
      "channel": 4,
      "note": 58,
      "start": 150.0425,
      "duration": 0.132,
      "velocity": 127,
      "chip": "ym2612"
    },
    {
      "channel": 1,
      "note": 22,
      "start": 150.1559,
      "duration": 0.1205,
      "velocity": 125,
      "chip": "ym2612"
    },
    {
      "channel": 0,
      "note": 63,
      "start": 150.2754,
      "duration": 0.0369,
      "velocity": 79,
      "chip": "ym2612"
    },
    {
      "channel": 1,
      "note": 30,
      "start": 150.2781,
      "duration": 0.0955,
      "velocity": 127,
      "chip": "ym2612"
    },
    {
      "channel": 4,
      "note": 58,
      "start": 150.2817,
      "duration": 0.0327,
      "velocity": 127,
      "chip": "ym2612"
    },
    {
      "channel": 0,
      "note": 61,
      "start": 150.395,
      "duration": 0.0369,
      "velocity": 79,
      "chip": "ym2612"
    },
    {
      "channel": 1,
      "note": 22,
      "start": 150.3977,
      "duration": 0.1151,
      "velocity": 125,
      "chip": "ym2612"
    },
    {
      "channel": 4,
      "note": 58,
      "start": 150.4013,
      "duration": 0.0328,
      "velocity": 127,
      "chip": "ym2612"
    },
    {
      "channel": 1,
      "note": 30,
      "start": 150.515,
      "duration": 0.0974,
      "velocity": 127,
      "chip": "ym2612"
    },
    {
      "channel": 4,
      "note": 58,
      "start": 150.5186,
      "duration": 0.1341,
      "velocity": 127,
      "chip": "ym2612"
    },
    {
      "channel": 0,
      "note": 61,
      "start": 150.6338,
      "duration": 0.0374,
      "velocity": 79,
      "chip": "ym2612"
    },
    {
      "channel": 1,
      "note": 22,
      "start": 150.7542,
      "duration": 0.1203,
      "velocity": 125,
      "chip": "ym2612"
    },
    {
      "channel": 4,
      "note": 58,
      "start": 150.7577,
      "duration": 0.035,
      "velocity": 127,
      "chip": "ym2612"
    },
    {
      "channel": 0,
      "note": 61,
      "start": 150.8734,
      "duration": 0.037,
      "velocity": 79,
      "chip": "ym2612"
    },
    {
      "channel": 4,
      "note": 58,
      "start": 150.8777,
      "duration": 0.0343,
      "velocity": 127,
      "chip": "ym2612"
    },
    {
      "channel": 0,
      "note": 56,
      "start": 150.9931,
      "duration": 0.0369,
      "velocity": 79,
      "chip": "ym2612"
    },
    {
      "channel": 1,
      "note": 24,
      "start": 150.9958,
      "duration": 0.095,
      "velocity": 127,
      "chip": "ym2612"
    },
    {
      "channel": 4,
      "note": 58,
      "start": 150.9995,
      "duration": 0.1322,
      "velocity": 127,
      "chip": "ym2612"
    },
    {
      "channel": 1,
      "note": 22,
      "start": 151.1129,
      "duration": 0.098,
      "velocity": 127,
      "chip": "ym2612"
    },
    {
      "channel": 0,
      "note": 58,
      "start": 151.2324,
      "duration": 0.0369,
      "velocity": 79,
      "chip": "ym2612"
    },
    {
      "channel": 1,
      "note": 22,
      "start": 151.235,
      "duration": 0.095,
      "velocity": 127,
      "chip": "ym2612"
    },
    {
      "channel": 4,
      "note": 58,
      "start": 151.2387,
      "duration": 0.0326,
      "velocity": 127,
      "chip": "ym2612"
    },
    {
      "channel": 4,
      "note": 58,
      "start": 151.3532,
      "duration": 0.0371,
      "velocity": 127,
      "chip": "ym2612"
    },
    {
      "channel": 0,
      "note": 51,
      "start": 151.4716,
      "duration": 0.0369,
      "velocity": 79,
      "chip": "ym2612"
    },
    {
      "channel": 1,
      "note": 22,
      "start": 151.4743,
      "duration": 0.0948,
      "velocity": 127,
      "chip": "ym2612"
    },
    {
      "channel": 4,
      "note": 58,
      "start": 151.4779,
      "duration": 0.1317,
      "velocity": 127,
      "chip": "ym2612"
    },
    {
      "channel": 0,
      "note": 51,
      "start": 151.7108,
      "duration": 0.0369,
      "velocity": 79,
      "chip": "ym2612"
    },
    {
      "channel": 1,
      "note": 22,
      "start": 151.7135,
      "duration": 0.1151,
      "velocity": 125,
      "chip": "ym2612"
    },
    {
      "channel": 4,
      "note": 58,
      "start": 151.7171,
      "duration": 0.0328,
      "velocity": 127,
      "chip": "ym2612"
    },
    {
      "channel": 4,
      "note": 58,
      "start": 151.8323,
      "duration": 0.0365,
      "velocity": 127,
      "chip": "ym2612"
    },
    {
      "channel": 0,
      "note": 63,
      "start": 151.9501,
      "duration": 0.0369,
      "velocity": 79,
      "chip": "ym2612"
    },
    {
      "channel": 1,
      "note": 24,
      "start": 151.9528,
      "duration": 0.0951,
      "velocity": 127,
      "chip": "ym2612"
    },
    {
      "channel": 4,
      "note": 58,
      "start": 151.9564,
      "duration": 0.1321,
      "velocity": 127,
      "chip": "ym2612"
    },
    {
      "channel": 1,
      "note": 22,
      "start": 152.0699,
      "duration": 0.1205,
      "velocity": 125,
      "chip": "ym2612"
    },
    {
      "channel": 0,
      "note": 63,
      "start": 152.1893,
      "duration": 0.0369,
      "velocity": 79,
      "chip": "ym2612"
    },
    {
      "channel": 1,
      "note": 30,
      "start": 152.192,
      "duration": 0.0955,
      "velocity": 127,
      "chip": "ym2612"
    },
    {
      "channel": 4,
      "note": 58,
      "start": 152.1957,
      "duration": 0.0326,
      "velocity": 127,
      "chip": "ym2612"
    },
    {
      "channel": 0,
      "note": 56,
      "start": 152.3089,
      "duration": 0.0369,
      "velocity": 79,
      "chip": "ym2612"
    },
    {
      "channel": 1,
      "note": 22,
      "start": 152.3116,
      "duration": 0.1151,
      "velocity": 125,
      "chip": "ym2612"
    },
    {
      "channel": 4,
      "note": 58,
      "start": 152.3152,
      "duration": 0.0327,
      "velocity": 127,
      "chip": "ym2612"
    },
    {
      "channel": 1,
      "note": 30,
      "start": 152.4289,
      "duration": 0.0974,
      "velocity": 127,
      "chip": "ym2612"
    },
    {
      "channel": 4,
      "note": 58,
      "start": 152.4325,
      "duration": 0.1341,
      "velocity": 127,
      "chip": "ym2612"
    },
    {
      "channel": 0,
      "note": 56,
      "start": 152.5477,
      "duration": 0.0374,
      "velocity": 79,
      "chip": "ym2612"
    },
    {
      "channel": 1,
      "note": 22,
      "start": 152.6681,
      "duration": 0.1203,
      "velocity": 125,
      "chip": "ym2612"
    },
    {
      "channel": 4,
      "note": 58,
      "start": 152.6717,
      "duration": 0.0349,
      "velocity": 127,
      "chip": "ym2612"
    },
    {
      "channel": 0,
      "note": 56,
      "start": 152.7873,
      "duration": 0.037,
      "velocity": 79,
      "chip": "ym2612"
    },
    {
      "channel": 4,
      "note": 58,
      "start": 152.7917,
      "duration": 0.0343,
      "velocity": 127,
      "chip": "ym2612"
    },
    {
      "channel": 0,
      "note": 58,
      "start": 152.9071,
      "duration": 0.0369,
      "velocity": 79,
      "chip": "ym2612"
    },
    {
      "channel": 1,
      "note": 24,
      "start": 152.9097,
      "duration": 0.1149,
      "velocity": 125,
      "chip": "ym2612"
    },
    {
      "channel": 4,
      "note": 58,
      "start": 152.9132,
      "duration": 0.1322,
      "velocity": 127,
      "chip": "ym2612"
    },
    {
      "channel": 1,
      "note": 30,
      "start": 153.0268,
      "duration": 0.1206,
      "velocity": 125,
      "chip": "ym2612"
    },
    {
      "channel": 0,
      "note": 54,
      "start": 153.1464,
      "duration": 0.0368,
      "velocity": 79,
      "chip": "ym2612"
    },
    {
      "channel": 1,
      "note": 30,
      "start": 153.1491,
      "duration": 0.0949,
      "velocity": 127,
      "chip": "ym2612"
    },
    {
      "channel": 2,
      "note": 63,
      "start": 153.1518,
      "duration": 0.9551,
      "velocity": 106,
      "chip": "ym2612"
    },
    {
      "channel": 4,
      "note": 58,
      "start": 153.155,
      "duration": 0.0302,
      "velocity": 127,
      "chip": "ym2612"
    },
    {
      "channel": 4,
      "note": 58,
      "start": 153.2671,
      "duration": 0.0371,
      "velocity": 127,
      "chip": "ym2612"
    },
    {
      "channel": 0,
      "note": 51,
      "start": 153.3857,
      "duration": 0.0367,
      "velocity": 79,
      "chip": "ym2612"
    },
    {
      "channel": 1,
      "note": 22,
      "start": 153.3883,
      "duration": 0.0946,
      "velocity": 127,
      "chip": "ym2612"
    },
    {
      "channel": 3,
      "note": 63,
      "start": 153.3916,
      "duration": 0.9526,
      "velocity": 106,
      "chip": "ym2612"
    },
    {
      "channel": 4,
      "note": 58,
      "start": 153.3943,
      "duration": 0.1292,
      "velocity": 127,
      "chip": "ym2612"
    },
    {
      "channel": 0,
      "note": 51,
      "start": 153.6248,
      "duration": 0.0369,
      "velocity": 79,
      "chip": "ym2612"
    },
    {
      "channel": 1,
      "note": 22,
      "start": 153.6274,
      "duration": 0.1151,
      "velocity": 125,
      "chip": "ym2612"
    },
    {
      "channel": 4,
      "note": 58,
      "start": 153.6312,
      "duration": 0.0326,
      "velocity": 127,
      "chip": "ym2612"
    },
    {
      "channel": 4,
      "note": 58,
      "start": 153.7462,
      "duration": 0.0365,
      "velocity": 127,
      "chip": "ym2612"
    },
    {
      "channel": 0,
      "note": 63,
      "start": 153.864,
      "duration": 0.0369,
      "velocity": 79,
      "chip": "ym2612"
    },
    {
      "channel": 1,
      "note": 24,
      "start": 153.8667,
      "duration": 0.095,
      "velocity": 127,
      "chip": "ym2612"
    },
    {
      "channel": 4,
      "note": 58,
      "start": 153.8705,
      "duration": 0.1318,
      "velocity": 127,
      "chip": "ym2612"
    },
    {
      "channel": 1,
      "note": 22,
      "start": 153.9838,
      "duration": 0.1205,
      "velocity": 125,
      "chip": "ym2612"
    },
    {
      "channel": 0,
      "note": 63,
      "start": 154.1032,
      "duration": 0.0369,
      "velocity": 79,
      "chip": "ym2612"
    },
    {
      "channel": 1,
      "note": 30,
      "start": 154.1059,
      "duration": 0.0955,
      "velocity": 127,
      "chip": "ym2612"
    },
    {
      "channel": 4,
      "note": 58,
      "start": 154.1098,
      "duration": 0.0324,
      "velocity": 127,
      "chip": "ym2612"
    },
    {
      "channel": 0,
      "note": 61,
      "start": 154.2229,
      "duration": 0.0369,
      "velocity": 79,
      "chip": "ym2612"
    },
    {
      "channel": 1,
      "note": 22,
      "start": 154.2255,
      "duration": 0.1151,
      "velocity": 125,
      "chip": "ym2612"
    },
    {
      "channel": 4,
      "note": 58,
      "start": 154.229,
      "duration": 0.0328,
      "velocity": 127,
      "chip": "ym2612"
    },
    {
      "channel": 1,
      "note": 30,
      "start": 154.3428,
      "duration": 0.0974,
      "velocity": 127,
      "chip": "ym2612"
    },
    {
      "channel": 4,
      "note": 58,
      "start": 154.3466,
      "duration": 0.1339,
      "velocity": 127,
      "chip": "ym2612"
    },
    {
      "channel": 0,
      "note": 61,
      "start": 154.4616,
      "duration": 0.0374,
      "velocity": 79,
      "chip": "ym2612"
    },
    {
      "channel": 1,
      "note": 22,
      "start": 154.582,
      "duration": 0.1203,
      "velocity": 125,
      "chip": "ym2612"
    },
    {
      "channel": 4,
      "note": 58,
      "start": 154.5855,
      "duration": 0.0349,
      "velocity": 127,
      "chip": "ym2612"
    },
    {
      "channel": 0,
      "note": 61,
      "start": 154.7012,
      "duration": 0.037,
      "velocity": 79,
      "chip": "ym2612"
    },
    {
      "channel": 4,
      "note": 58,
      "start": 154.7055,
      "duration": 0.0343,
      "velocity": 127,
      "chip": "ym2612"
    },
    {
      "channel": 0,
      "note": 56,
      "start": 154.821,
      "duration": 0.0369,
      "velocity": 79,
      "chip": "ym2612"
    },
    {
      "channel": 1,
      "note": 24,
      "start": 154.8236,
      "duration": 0.0948,
      "velocity": 127,
      "chip": "ym2612"
    },
    {
      "channel": 4,
      "note": 58,
      "start": 154.8273,
      "duration": 0.1317,
      "velocity": 127,
      "chip": "ym2612"
    },
    {
      "channel": 0,
      "note": 58,
      "start": 155.0602,
      "duration": 0.0369,
      "velocity": 79,
      "chip": "ym2612"
    },
    {
      "channel": 1,
      "note": 22,
      "start": 155.0629,
      "duration": 0.095,
      "velocity": 127,
      "chip": "ym2612"
    },
    {
      "channel": 4,
      "note": 58,
      "start": 155.0665,
      "duration": 0.0326,
      "velocity": 127,
      "chip": "ym2612"
    },
    {
      "channel": 4,
      "note": 58,
      "start": 155.181,
      "duration": 0.037,
      "velocity": 127,
      "chip": "ym2612"
    },
    {
      "channel": 0,
      "note": 51,
      "start": 155.2994,
      "duration": 0.0369,
      "velocity": 79,
      "chip": "ym2612"
    },
    {
      "channel": 1,
      "note": 22,
      "start": 155.3021,
      "duration": 0.0948,
      "velocity": 127,
      "chip": "ym2612"
    },
    {
      "channel": 4,
      "note": 58,
      "start": 155.3057,
      "duration": 0.1317,
      "velocity": 127,
      "chip": "ym2612"
    },
    {
      "channel": 0,
      "note": 51,
      "start": 155.5387,
      "duration": 0.0369,
      "velocity": 79,
      "chip": "ym2612"
    },
    {
      "channel": 1,
      "note": 22,
      "start": 155.5414,
      "duration": 0.1151,
      "velocity": 125,
      "chip": "ym2612"
    },
    {
      "channel": 4,
      "note": 58,
      "start": 155.5449,
      "duration": 0.0328,
      "velocity": 127,
      "chip": "ym2612"
    },
    {
      "channel": 4,
      "note": 58,
      "start": 155.6601,
      "duration": 0.0365,
      "velocity": 127,
      "chip": "ym2612"
    },
    {
      "channel": 0,
      "note": 63,
      "start": 155.7779,
      "duration": 0.0369,
      "velocity": 79,
      "chip": "ym2612"
    },
    {
      "channel": 1,
      "note": 24,
      "start": 155.7806,
      "duration": 0.0951,
      "velocity": 127,
      "chip": "ym2612"
    },
    {
      "channel": 4,
      "note": 58,
      "start": 155.7842,
      "duration": 0.132,
      "velocity": 127,
      "chip": "ym2612"
    },
    {
      "channel": 1,
      "note": 22,
      "start": 155.8977,
      "duration": 0.1205,
      "velocity": 125,
      "chip": "ym2612"
    },
    {
      "channel": 0,
      "note": 63,
      "start": 156.0171,
      "duration": 0.0369,
      "velocity": 79,
      "chip": "ym2612"
    },
    {
      "channel": 1,
      "note": 30,
      "start": 156.0198,
      "duration": 0.0955,
      "velocity": 127,
      "chip": "ym2612"
    },
    {
      "channel": 4,
      "note": 58,
      "start": 156.0234,
      "duration": 0.0327,
      "velocity": 127,
      "chip": "ym2612"
    },
    {
      "channel": 0,
      "note": 61,
      "start": 156.1368,
      "duration": 0.0369,
      "velocity": 79,
      "chip": "ym2612"
    },
    {
      "channel": 1,
      "note": 22,
      "start": 156.1395,
      "duration": 0.1151,
      "velocity": 125,
      "chip": "ym2612"
    },
    {
      "channel": 4,
      "note": 58,
      "start": 156.143,
      "duration": 0.0327,
      "velocity": 127,
      "chip": "ym2612"
    },
    {
      "channel": 1,
      "note": 30,
      "start": 156.2567,
      "duration": 0.0974,
      "velocity": 127,
      "chip": "ym2612"
    },
    {
      "channel": 4,
      "note": 58,
      "start": 156.2603,
      "duration": 0.1341,
      "velocity": 127,
      "chip": "ym2612"
    },
    {
      "channel": 0,
      "note": 61,
      "start": 156.3755,
      "duration": 0.0374,
      "velocity": 79,
      "chip": "ym2612"
    },
    {
      "channel": 1,
      "note": 22,
      "start": 156.4959,
      "duration": 0.1203,
      "velocity": 125,
      "chip": "ym2612"
    },
    {
      "channel": 4,
      "note": 58,
      "start": 156.4995,
      "duration": 0.0349,
      "velocity": 127,
      "chip": "ym2612"
    },
    {
      "channel": 0,
      "note": 61,
      "start": 156.6151,
      "duration": 0.037,
      "velocity": 79,
      "chip": "ym2612"
    },
    {
      "channel": 4,
      "note": 58,
      "start": 156.6194,
      "duration": 0.0344,
      "velocity": 127,
      "chip": "ym2612"
    },
    {
      "channel": 0,
      "note": 56,
      "start": 156.7349,
      "duration": 0.0369,
      "velocity": 79,
      "chip": "ym2612"
    },
    {
      "channel": 1,
      "note": 24,
      "start": 156.7376,
      "duration": 0.1149,
      "velocity": 125,
      "chip": "ym2612"
    },
    {
      "channel": 4,
      "note": 58,
      "start": 156.7411,
      "duration": 0.1323,
      "velocity": 127,
      "chip": "ym2612"
    },
    {
      "channel": 1,
      "note": 30,
      "start": 156.8546,
      "duration": 0.098,
      "velocity": 127,
      "chip": "ym2612"
    },
    {
      "channel": 0,
      "note": 58,
      "start": 156.9741,
      "duration": 0.0369,
      "velocity": 79,
      "chip": "ym2612"
    },
    {
      "channel": 1,
      "note": 22,
      "start": 156.9768,
      "duration": 0.095,
      "velocity": 127,
      "chip": "ym2612"
    },
    {
      "channel": 4,
      "note": 58,
      "start": 156.9804,
      "duration": 0.0327,
      "velocity": 127,
      "chip": "ym2612"
    },
    {
      "channel": 4,
      "note": 58,
      "start": 157.095,
      "duration": 0.037,
      "velocity": 127,
      "chip": "ym2612"
    },
    {
      "channel": 0,
      "note": 51,
      "start": 157.2134,
      "duration": 0.0369,
      "velocity": 79,
      "chip": "ym2612"
    },
    {
      "channel": 1,
      "note": 22,
      "start": 157.216,
      "duration": 0.0948,
      "velocity": 127,
      "chip": "ym2612"
    },
    {
      "channel": 4,
      "note": 58,
      "start": 157.2196,
      "duration": 0.1317,
      "velocity": 127,
      "chip": "ym2612"
    },
    {
      "channel": 0,
      "note": 51,
      "start": 157.4526,
      "duration": 0.0369,
      "velocity": 79,
      "chip": "ym2612"
    },
    {
      "channel": 1,
      "note": 22,
      "start": 157.4553,
      "duration": 0.1151,
      "velocity": 125,
      "chip": "ym2612"
    },
    {
      "channel": 4,
      "note": 58,
      "start": 157.4588,
      "duration": 0.0328,
      "velocity": 127,
      "chip": "ym2612"
    },
    {
      "channel": 4,
      "note": 58,
      "start": 157.574,
      "duration": 0.0365,
      "velocity": 127,
      "chip": "ym2612"
    },
    {
      "channel": 0,
      "note": 63,
      "start": 157.6918,
      "duration": 0.0369,
      "velocity": 79,
      "chip": "ym2612"
    },
    {
      "channel": 1,
      "note": 24,
      "start": 157.6945,
      "duration": 0.0951,
      "velocity": 127,
      "chip": "ym2612"
    },
    {
      "channel": 4,
      "note": 58,
      "start": 157.6982,
      "duration": 0.132,
      "velocity": 127,
      "chip": "ym2612"
    },
    {
      "channel": 1,
      "note": 22,
      "start": 157.8116,
      "duration": 0.1205,
      "velocity": 125,
      "chip": "ym2612"
    },
    {
      "channel": 0,
      "note": 63,
      "start": 157.9311,
      "duration": 0.0369,
      "velocity": 79,
      "chip": "ym2612"
    },
    {
      "channel": 1,
      "note": 30,
      "start": 157.9337,
      "duration": 0.0955,
      "velocity": 127,
      "chip": "ym2612"
    },
    {
      "channel": 4,
      "note": 58,
      "start": 157.9374,
      "duration": 0.0326,
      "velocity": 127,
      "chip": "ym2612"
    },
    {
      "channel": 0,
      "note": 61,
      "start": 158.0507,
      "duration": 0.0369,
      "velocity": 79,
      "chip": "ym2612"
    },
    {
      "channel": 1,
      "note": 22,
      "start": 158.0534,
      "duration": 0.1151,
      "velocity": 125,
      "chip": "ym2612"
    },
    {
      "channel": 4,
      "note": 58,
      "start": 158.0569,
      "duration": 0.0328,
      "velocity": 127,
      "chip": "ym2612"
    },
    {
      "channel": 1,
      "note": 30,
      "start": 158.1706,
      "duration": 0.0974,
      "velocity": 127,
      "chip": "ym2612"
    },
    {
      "channel": 4,
      "note": 58,
      "start": 158.1742,
      "duration": 0.1341,
      "velocity": 127,
      "chip": "ym2612"
    },
    {
      "channel": 0,
      "note": 61,
      "start": 158.2895,
      "duration": 0.0374,
      "velocity": 79,
      "chip": "ym2612"
    },
    {
      "channel": 1,
      "note": 22,
      "start": 158.4099,
      "duration": 0.1203,
      "velocity": 125,
      "chip": "ym2612"
    },
    {
      "channel": 4,
      "note": 58,
      "start": 158.4134,
      "duration": 0.035,
      "velocity": 127,
      "chip": "ym2612"
    },
    {
      "channel": 0,
      "note": 61,
      "start": 158.529,
      "duration": 0.037,
      "velocity": 79,
      "chip": "ym2612"
    },
    {
      "channel": 4,
      "note": 58,
      "start": 158.5333,
      "duration": 0.0343,
      "velocity": 127,
      "chip": "ym2612"
    },
    {
      "channel": 0,
      "note": 56,
      "start": 158.6488,
      "duration": 0.0369,
      "velocity": 79,
      "chip": "ym2612"
    },
    {
      "channel": 1,
      "note": 24,
      "start": 158.6515,
      "duration": 0.095,
      "velocity": 127,
      "chip": "ym2612"
    },
    {
      "channel": 4,
      "note": 58,
      "start": 158.6551,
      "duration": 0.1322,
      "velocity": 127,
      "chip": "ym2612"
    },
    {
      "channel": 1,
      "note": 22,
      "start": 158.7685,
      "duration": 0.098,
      "velocity": 127,
      "chip": "ym2612"
    },
    {
      "channel": 0,
      "note": 58,
      "start": 158.888,
      "duration": 0.0369,
      "velocity": 79,
      "chip": "ym2612"
    },
    {
      "channel": 1,
      "note": 22,
      "start": 158.8907,
      "duration": 0.095,
      "velocity": 127,
      "chip": "ym2612"
    },
    {
      "channel": 4,
      "note": 58,
      "start": 158.8943,
      "duration": 0.0326,
      "velocity": 127,
      "chip": "ym2612"
    },
    {
      "channel": 4,
      "note": 58,
      "start": 159.0089,
      "duration": 0.0371,
      "velocity": 127,
      "chip": "ym2612"
    },
    {
      "channel": 0,
      "note": 51,
      "start": 159.1273,
      "duration": 0.0369,
      "velocity": 79,
      "chip": "ym2612"
    },
    {
      "channel": 1,
      "note": 22,
      "start": 159.1299,
      "duration": 0.0948,
      "velocity": 127,
      "chip": "ym2612"
    },
    {
      "channel": 4,
      "note": 58,
      "start": 159.1335,
      "duration": 0.1317,
      "velocity": 127,
      "chip": "ym2612"
    },
    {
      "channel": 0,
      "note": 51,
      "start": 159.3665,
      "duration": 0.0369,
      "velocity": 79,
      "chip": "ym2612"
    },
    {
      "channel": 1,
      "note": 22,
      "start": 159.3692,
      "duration": 0.1151,
      "velocity": 125,
      "chip": "ym2612"
    },
    {
      "channel": 4,
      "note": 58,
      "start": 159.3727,
      "duration": 0.0327,
      "velocity": 127,
      "chip": "ym2612"
    },
    {
      "channel": 4,
      "note": 58,
      "start": 159.4879,
      "duration": 0.0365,
      "velocity": 127,
      "chip": "ym2612"
    },
    {
      "channel": 0,
      "note": 63,
      "start": 159.6057,
      "duration": 0.0369,
      "velocity": 79,
      "chip": "ym2612"
    },
    {
      "channel": 1,
      "note": 24,
      "start": 159.6084,
      "duration": 0.095,
      "velocity": 127,
      "chip": "ym2612"
    },
    {
      "channel": 4,
      "note": 58,
      "start": 159.612,
      "duration": 0.1321,
      "velocity": 127,
      "chip": "ym2612"
    },
    {
      "channel": 1,
      "note": 22,
      "start": 159.7255,
      "duration": 0.1205,
      "velocity": 125,
      "chip": "ym2612"
    },
    {
      "channel": 0,
      "note": 63,
      "start": 159.845,
      "duration": 0.0369,
      "velocity": 79,
      "chip": "ym2612"
    },
    {
      "channel": 1,
      "note": 30,
      "start": 159.8477,
      "duration": 0.0955,
      "velocity": 127,
      "chip": "ym2612"
    },
    {
      "channel": 4,
      "note": 58,
      "start": 159.8513,
      "duration": 0.0326,
      "velocity": 127,
      "chip": "ym2612"
    },
    {
      "channel": 0,
      "note": 56,
      "start": 159.9646,
      "duration": 0.0369,
      "velocity": 79,
      "chip": "ym2612"
    },
    {
      "channel": 1,
      "note": 22,
      "start": 159.9673,
      "duration": 0.1151,
      "velocity": 125,
      "chip": "ym2612"
    },
    {
      "channel": 4,
      "note": 58,
      "start": 159.9708,
      "duration": 0.0328,
      "velocity": 127,
      "chip": "ym2612"
    },
    {
      "channel": 1,
      "note": 30,
      "start": 160.0845,
      "duration": 0.0974,
      "velocity": 127,
      "chip": "ym2612"
    },
    {
      "channel": 4,
      "note": 58,
      "start": 160.0882,
      "duration": 0.134,
      "velocity": 127,
      "chip": "ym2612"
    },
    {
      "channel": 0,
      "note": 56,
      "start": 160.2034,
      "duration": 0.0374,
      "velocity": 79,
      "chip": "ym2612"
    },
    {
      "channel": 1,
      "note": 22,
      "start": 160.3238,
      "duration": 0.1203,
      "velocity": 125,
      "chip": "ym2612"
    },
    {
      "channel": 4,
      "note": 58,
      "start": 160.3273,
      "duration": 0.0349,
      "velocity": 127,
      "chip": "ym2612"
    },
    {
      "channel": 0,
      "note": 56,
      "start": 160.443,
      "duration": 0.037,
      "velocity": 79,
      "chip": "ym2612"
    },
    {
      "channel": 4,
      "note": 58,
      "start": 160.4473,
      "duration": 0.0343,
      "velocity": 127,
      "chip": "ym2612"
    },
    {
      "channel": 0,
      "note": 58,
      "start": 160.5627,
      "duration": 0.0369,
      "velocity": 79,
      "chip": "ym2612"
    },
    {
      "channel": 1,
      "note": 24,
      "start": 160.5654,
      "duration": 0.1149,
      "velocity": 125,
      "chip": "ym2612"
    },
    {
      "channel": 4,
      "note": 58,
      "start": 160.5689,
      "duration": 0.1321,
      "velocity": 127,
      "chip": "ym2612"
    },
    {
      "channel": 1,
      "note": 30,
      "start": 160.6824,
      "duration": 0.1176,
      "velocity": 125,
      "chip": "ym2612"
    }
  ]
}