{
  "track_name": "05 - Level 20-29 & 70-79",
  "duration_sec": 64.42,
  "sample_rate": 44100,
  "note_count": 1417,
  "unique_pitches": 48,
  "pitch_range": 80,
  "avg_note_duration": 0.2111,
  "reconstruction_stats": {
    "notes_reconstructed": 1417,
    "keyon_events": 1417,
    "keyoff_events": 1411,
    "orphan_keyons": 5,
    "unique_pitches": 48,
    "pitch_range": 80,
    "avg_duration_sec": 0.2111
  },
  "metadata": {
    "source": "S\\SegaSonic Bros\\05 - Level 20-29 & 70-79.vgz"
  },
  "notes": [
    {
      "channel": 0,
      "note": 61,
      "start": 0.0182,
      "duration": 0.6986,
      "velocity": 81,
      "chip": "ym2612"
    },
    {
      "channel": 1,
      "note": 66,
      "start": 0.019,
      "duration": 0.2319,
      "velocity": 95,
      "chip": "ym2612"
    },
    {
      "channel": 2,
      "note": 78,
      "start": 0.0197,
      "duration": 0.2313,
      "velocity": 97,
      "chip": "ym2612"
    },
    {
      "channel": 3,
      "note": 73,
      "start": 0.0206,
      "duration": 0.2307,
      "velocity": 97,
      "chip": "ym2612"
    },
    {
      "channel": 5,
      "note": 24,
      "start": 0.0215,
      "duration": 0.23,
      "velocity": 101,
      "chip": "ym2612"
    },
    {
      "channel": 1,
      "note": 66,
      "start": 0.251,
      "duration": 0.1165,
      "velocity": 95,
      "chip": "ym2612"
    },
    {
      "channel": 2,
      "note": 78,
      "start": 0.2512,
      "duration": 0.4659,
      "velocity": 97,
      "chip": "ym2612"
    },
    {
      "channel": 3,
      "note": 78,
      "start": 0.2515,
      "duration": 0.4659,
      "velocity": 97,
      "chip": "ym2612"
    },
    {
      "channel": 5,
      "note": 24,
      "start": 0.2517,
      "duration": 0.1161,
      "velocity": 117,
      "chip": "ym2612"
    },
    {
      "channel": 1,
      "note": 61,
      "start": 0.3677,
      "duration": 0.1159,
      "velocity": 95,
      "chip": "ym2612"
    },
    {
      "channel": 5,
      "note": 35,
      "start": 0.368,
      "duration": 0.2332,
      "velocity": 117,
      "chip": "ym2612"
    },
    {
      "channel": 1,
      "note": 63,
      "start": 0.4837,
      "duration": 0.1171,
      "velocity": 95,
      "chip": "ym2612"
    },
    {
      "channel": 1,
      "note": 66,
      "start": 0.601,
      "duration": 0.116,
      "velocity": 95,
      "chip": "ym2612"
    },
    {
      "channel": 5,
      "note": 35,
      "start": 0.6013,
      "duration": 0.3502,
      "velocity": 101,
      "chip": "ym2612"
    },
    {
      "channel": 2,
      "note": 78,
      "start": 0.7173,
      "duration": 0.2339,
      "velocity": 97,
      "chip": "ym2612"
    },
    {
      "channel": 3,
      "note": 73,
      "start": 0.7175,
      "duration": 0.2339,
      "velocity": 97,
      "chip": "ym2612"
    },
    {
      "channel": 0,
      "note": 61,
      "start": 0.951,
      "duration": 0.1165,
      "velocity": 81,
      "chip": "ym2612"
    },
    {
      "channel": 1,
      "note": 66,
      "start": 0.9512,
      "duration": 0.1164,
      "velocity": 95,
      "chip": "ym2612"
    },
    {
      "channel": 5,
      "note": 24,
      "start": 0.9517,
      "duration": 0.1166,
      "velocity": 117,
      "chip": "ym2612"
    },
    {
      "channel": 1,
      "note": 61,
      "start": 1.0677,
      "duration": 0.1159,
      "velocity": 95,
      "chip": "ym2612"
    },
    {
      "channel": 2,
      "note": 78,
      "start": 1.068,
      "duration": 0.2327,
      "velocity": 97,
      "chip": "ym2612"
    },
    {
      "channel": 3,
      "note": 74,
      "start": 1.0682,
      "duration": 0.2327,
      "velocity": 97,
      "chip": "ym2612"
    },
    {
      "channel": 5,
      "note": 35,
      "start": 1.0685,
      "duration": 0.3496,
      "velocity": 101,
      "chip": "ym2612"
    },
    {
      "channel": 0,
      "note": 63,
      "start": 1.3004,
      "duration": 0.8171,
      "velocity": 81,
      "chip": "ym2612"
    },
    {
      "channel": 1,
      "note": 61,
      "start": 1.3006,
      "duration": 0.1171,
      "velocity": 95,
      "chip": "ym2612"
    },
    {
      "channel": 2,
      "note": 78,
      "start": 1.3008,
      "duration": 0.3502,
      "velocity": 97,
      "chip": "ym2612"
    },
    {
      "channel": 3,
      "note": 75,
      "start": 1.301,
      "duration": 0.3502,
      "velocity": 97,
      "chip": "ym2612"
    },
    {
      "channel": 1,
      "note": 66,
      "start": 1.4178,
      "duration": 0.233,
      "velocity": 95,
      "chip": "ym2612"
    },
    {
      "channel": 5,
      "note": 24,
      "start": 1.4183,
      "duration": 0.2333,
      "velocity": 101,
      "chip": "ym2612"
    },
    {
      "channel": 1,
      "note": 66,
      "start": 1.651,
      "duration": 0.1165,
      "velocity": 95,
      "chip": "ym2612"
    },
    {
      "channel": 2,
      "note": 78,
      "start": 1.6512,
      "duration": 0.1165,
      "velocity": 97,
      "chip": "ym2612"
    },
    {
      "channel": 3,
      "note": 75,
      "start": 1.6515,
      "duration": 0.1165,
      "velocity": 97,
      "chip": "ym2612"
    },
    {
      "channel": 5,
      "note": 24,
      "start": 1.6517,
      "duration": 0.1165,
      "velocity": 117,
      "chip": "ym2612"
    },
    {
      "channel": 1,
      "note": 61,
      "start": 1.7677,
      "duration": 0.1159,
      "velocity": 95,
      "chip": "ym2612"
    },
    {
      "channel": 2,
      "note": 78,
      "start": 1.7679,
      "duration": 0.2332,
      "velocity": 97,
      "chip": "ym2612"
    },
    {
      "channel": 3,
      "note": 70,
      "start": 1.7681,
      "duration": 0.2332,
      "velocity": 97,
      "chip": "ym2612"
    },
    {
      "channel": 5,
      "note": 35,
      "start": 1.7684,
      "duration": 0.2332,
      "velocity": 117,
      "chip": "ym2612"
    },
    {
      "channel": 1,
      "note": 63,
      "start": 1.8837,
      "duration": 0.1171,
      "velocity": 95,
      "chip": "ym2612"
    },
    {
      "channel": 1,
      "note": 66,
      "start": 2.001,
      "duration": 0.1167,
      "velocity": 95,
      "chip": "ym2612"
    },
    {
      "channel": 2,
      "note": 78,
      "start": 2.0012,
      "duration": 0.1166,
      "velocity": 97,
      "chip": "ym2612"
    },
    {
      "channel": 3,
      "note": 75,
      "start": 2.0015,
      "duration": 0.1165,
      "velocity": 97,
      "chip": "ym2612"
    },
    {
      "channel": 5,
      "note": 35,
      "start": 2.0017,
      "duration": 0.1164,
      "velocity": 101,
      "chip": "ym2612"
    },
    {
      "channel": 0,
      "note": 61,
      "start": 2.1176,
      "duration": 0.2332,
      "velocity": 81,
      "chip": "ym2612"
    },
    {
      "channel": 5,
      "note": 24,
      "start": 2.1183,
      "duration": 0.233,
      "velocity": 101,
      "chip": "ym2612"
    },
    {
      "channel": 0,
      "note": 63,
      "start": 2.351,
      "duration": 0.1165,
      "velocity": 81,
      "chip": "ym2612"
    },
    {
      "channel": 1,
      "note": 66,
      "start": 2.3512,
      "duration": 0.1164,
      "velocity": 95,
      "chip": "ym2612"
    },
    {
      "channel": 5,
      "note": 24,
      "start": 2.3515,
      "duration": 0.1164,
      "velocity": 117,
      "chip": "ym2612"
    },
    {
      "channel": 1,
      "note": 63,
      "start": 2.4677,
      "duration": 0.1159,
      "velocity": 95,
      "chip": "ym2612"
    },
    {
      "channel": 5,
      "note": 35,
      "start": 2.4681,
      "duration": 0.3528,
      "velocity": 101,
      "chip": "ym2612"
    },
    {
      "channel": 1,
      "note": 63,
      "start": 2.7005,
      "duration": 0.1184,
      "velocity": 95,
      "chip": "ym2612"
    },
    {
      "channel": 0,
      "note": 61,
      "start": 2.8183,
      "duration": 0.6986,
      "velocity": 81,
      "chip": "ym2612"
    },
    {
      "channel": 1,
      "note": 66,
      "start": 2.8191,
      "duration": 0.2317,
      "velocity": 95,
      "chip": "ym2612"
    },
    {
      "channel": 2,
      "note": 78,
      "start": 2.8198,
      "duration": 0.2312,
      "velocity": 97,
      "chip": "ym2612"
    },
    {
      "channel": 3,
      "note": 73,
      "start": 2.8207,
      "duration": 0.2305,
      "velocity": 97,
      "chip": "ym2612"
    },
    {
      "channel": 5,
      "note": 24,
      "start": 2.8211,
      "duration": 0.2305,
      "velocity": 101,
      "chip": "ym2612"
    },
    {
      "channel": 1,
      "note": 66,
      "start": 3.051,
      "duration": 0.1165,
      "velocity": 95,
      "chip": "ym2612"
    },
    {
      "channel": 2,
      "note": 78,
      "start": 3.0512,
      "duration": 0.4659,
      "velocity": 97,
      "chip": "ym2612"
    },
    {
      "channel": 3,
      "note": 78,
      "start": 3.0515,
      "duration": 0.4659,
      "velocity": 97,
      "chip": "ym2612"
    },
    {
      "channel": 5,
      "note": 24,
      "start": 3.0517,
      "duration": 0.1161,
      "velocity": 117,
      "chip": "ym2612"
    },
    {
      "channel": 1,
      "note": 61,
      "start": 3.1677,
      "duration": 0.1159,
      "velocity": 95,
      "chip": "ym2612"
    },
    {
      "channel": 5,
      "note": 35,
      "start": 3.168,
      "duration": 0.2332,
      "velocity": 117,
      "chip": "ym2612"
    },
    {
      "channel": 1,
      "note": 63,
      "start": 3.2837,
      "duration": 0.1171,
      "velocity": 95,
      "chip": "ym2612"
    },
    {
      "channel": 1,
      "note": 66,
      "start": 3.401,
      "duration": 0.116,
      "velocity": 95,
      "chip": "ym2612"
    },
    {
      "channel": 5,
      "note": 35,
      "start": 3.4013,
      "duration": 0.3502,
      "velocity": 101,
      "chip": "ym2612"
    },
    {
      "channel": 2,
      "note": 78,
      "start": 3.5173,
      "duration": 0.2339,
      "velocity": 97,
      "chip": "ym2612"
    },
    {
      "channel": 3,
      "note": 73,
      "start": 3.5175,
      "duration": 0.2339,
      "velocity": 97,
      "chip": "ym2612"
    },
    {
      "channel": 0,
      "note": 61,
      "start": 3.751,
      "duration": 0.1165,
      "velocity": 81,
      "chip": "ym2612"
    },
    {
      "channel": 1,
      "note": 66,
      "start": 3.7512,
      "duration": 0.1164,
      "velocity": 95,
      "chip": "ym2612"
    },
    {
      "channel": 5,
      "note": 24,
      "start": 3.7517,
      "duration": 0.1166,
      "velocity": 117,
      "chip": "ym2612"
    },
    {
      "channel": 1,
      "note": 61,
      "start": 3.8677,
      "duration": 0.1159,
      "velocity": 95,
      "chip": "ym2612"
    },
    {
      "channel": 2,
      "note": 78,
      "start": 3.868,
      "duration": 0.2327,
      "velocity": 97,
      "chip": "ym2612"
    },
    {
      "channel": 3,
      "note": 74,
      "start": 3.8682,
      "duration": 0.2327,
      "velocity": 97,
      "chip": "ym2612"
    },
    {
      "channel": 5,
      "note": 35,
      "start": 3.8685,
      "duration": 0.3496,
      "velocity": 101,
      "chip": "ym2612"
    },
    {
      "channel": 0,
      "note": 63,
      "start": 4.1004,
      "duration": 0.8171,
      "velocity": 81,
      "chip": "ym2612"
    },
    {
      "channel": 1,
      "note": 61,
      "start": 4.1006,
      "duration": 0.1171,
      "velocity": 95,
      "chip": "ym2612"
    },
    {
      "channel": 2,
      "note": 78,
      "start": 4.1008,
      "duration": 0.3502,
      "velocity": 97,
      "chip": "ym2612"
    },
    {
      "channel": 3,
      "note": 75,
      "start": 4.101,
      "duration": 0.3502,
      "velocity": 97,
      "chip": "ym2612"
    },
    {
      "channel": 1,
      "note": 66,
      "start": 4.2178,
      "duration": 0.233,
      "velocity": 95,
      "chip": "ym2612"
    },
    {
      "channel": 5,
      "note": 24,
      "start": 4.2183,
      "duration": 0.2333,
      "velocity": 101,
      "chip": "ym2612"
    },
    {
      "channel": 1,
      "note": 66,
      "start": 4.451,
      "duration": 0.1173,
      "velocity": 95,
      "chip": "ym2612"
    },
    {
      "channel": 2,
      "note": 78,
      "start": 4.4512,
      "duration": 0.1173,
      "velocity": 97,
      "chip": "ym2612"
    },
    {
      "channel": 3,
      "note": 75,
      "start": 4.4515,
      "duration": 0.1173,
      "velocity": 97,
      "chip": "ym2612"
    },
    {
      "channel": 5,
      "note": 24,
      "start": 4.4517,
      "duration": 0.1173,
      "velocity": 117,
      "chip": "ym2612"
    },
    {
      "channel": 1,
      "note": 61,
      "start": 4.5685,
      "duration": 0.1151,
      "velocity": 95,
      "chip": "ym2612"
    },
    {
      "channel": 2,
      "note": 78,
      "start": 4.5687,
      "duration": 0.2323,
      "velocity": 97,
      "chip": "ym2612"
    },
    {
      "channel": 3,
      "note": 70,
      "start": 4.569,
      "duration": 0.2323,
      "velocity": 97,
      "chip": "ym2612"
    },
    {
      "channel": 5,
      "note": 35,
      "start": 4.5692,
      "duration": 0.2323,
      "velocity": 117,
      "chip": "ym2612"
    },
    {
      "channel": 1,
      "note": 63,
      "start": 4.6837,
      "duration": 0.1171,
      "velocity": 95,
      "chip": "ym2612"
    },
    {
      "channel": 1,
      "note": 66,
      "start": 4.801,
      "duration": 0.1167,
      "velocity": 95,
      "chip": "ym2612"
    },
    {
      "channel": 2,
      "note": 78,
      "start": 4.8012,
      "duration": 0.1166,
      "velocity": 97,
      "chip": "ym2612"
    },
    {
      "channel": 3,
      "note": 75,
      "start": 4.8015,
      "duration": 0.1165,
      "velocity": 97,
      "chip": "ym2612"
    },
    {
      "channel": 5,
      "note": 35,
      "start": 4.8017,
      "duration": 0.1164,
      "velocity": 101,
      "chip": "ym2612"
    },
    {
      "channel": 0,
      "note": 61,
      "start": 4.9176,
      "duration": 0.2331,
      "velocity": 81,
      "chip": "ym2612"
    },
    {
      "channel": 5,
      "note": 24,
      "start": 4.9183,
      "duration": 0.233,
      "velocity": 101,
      "chip": "ym2612"
    },
    {
      "channel": 0,
      "note": 63,
      "start": 5.151,
      "duration": 0.1165,
      "velocity": 81,
      "chip": "ym2612"
    },
    {
      "channel": 1,
      "note": 66,
      "start": 5.1512,
      "duration": 0.1164,
      "velocity": 95,
      "chip": "ym2612"
    },
    {
      "channel": 5,
      "note": 24,
      "start": 5.1515,
      "duration": 0.1164,
      "velocity": 117,
      "chip": "ym2612"
    },
    {
      "channel": 1,
      "note": 63,
      "start": 5.2677,
      "duration": 0.1159,
      "velocity": 95,
      "chip": "ym2612"
    },
    {
      "channel": 5,
      "note": 35,
      "start": 5.2681,
      "duration": 0.3529,
      "velocity": 101,
      "chip": "ym2612"
    },
    {
      "channel": 1,
      "note": 63,
      "start": 5.5005,
      "duration": 0.1184,
      "velocity": 95,
      "chip": "ym2612"
    },
    {
      "channel": 0,
      "note": 61,
      "start": 5.6183,
      "duration": 0.6986,
      "velocity": 81,
      "chip": "ym2612"
    },
    {
      "channel": 1,
      "note": 66,
      "start": 5.619,
      "duration": 0.2318,
      "velocity": 95,
      "chip": "ym2612"
    },
    {
      "channel": 2,
      "note": 78,
      "start": 5.6198,
      "duration": 0.2312,
      "velocity": 97,
      "chip": "ym2612"
    },
    {
      "channel": 3,
      "note": 73,
      "start": 5.6207,
      "duration": 0.2305,
      "velocity": 97,
      "chip": "ym2612"
    },
    {
      "channel": 4,
      "note": 102,
      "start": 5.621,
      "duration": 0.1129,
      "velocity": 109,
      "chip": "ym2612"
    },
    {
      "channel": 5,
      "note": 24,
      "start": 5.6212,
      "duration": 0.2305,
      "velocity": 101,
      "chip": "ym2612"
    },
    {
      "channel": 4,
      "note": 101,
      "start": 5.734,
      "duration": 0.1175,
      "velocity": 109,
      "chip": "ym2612"
    },
    {
      "channel": 1,
      "note": 66,
      "start": 5.851,
      "duration": 0.1165,
      "velocity": 95,
      "chip": "ym2612"
    },
    {
      "channel": 2,
      "note": 78,
      "start": 5.8512,
      "duration": 0.4659,
      "velocity": 97,
      "chip": "ym2612"
    },
    {
      "channel": 3,
      "note": 78,
      "start": 5.8515,
      "duration": 0.4659,
      "velocity": 97,
      "chip": "ym2612"
    },
    {
      "channel": 4,
      "note": 97,
      "start": 5.8517,
      "duration": 0.1162,
      "velocity": 109,
      "chip": "ym2612"
    },
    {
      "channel": 5,
      "note": 24,
      "start": 5.8519,
      "duration": 0.1162,
      "velocity": 117,
      "chip": "ym2612"
    },
    {
      "channel": 1,
      "note": 61,
      "start": 5.9677,
      "duration": 0.1159,
      "velocity": 95,
      "chip": "ym2612"
    },
    {
      "channel": 4,
      "note": 102,
      "start": 5.9681,
      "duration": 0.1158,
      "velocity": 109,
      "chip": "ym2612"
    },
    {
      "channel": 5,
      "note": 35,
      "start": 5.9683,
      "duration": 0.233,
      "velocity": 117,
      "chip": "ym2612"
    },
    {
      "channel": 1,
      "note": 63,
      "start": 6.0837,
      "duration": 0.1171,
      "velocity": 95,
      "chip": "ym2612"
    },
    {
      "channel": 4,
      "note": 101,
      "start": 6.084,
      "duration": 0.1171,
      "velocity": 109,
      "chip": "ym2612"
    },
    {
      "channel": 1,
      "note": 66,
      "start": 6.201,
      "duration": 0.116,
      "velocity": 95,
      "chip": "ym2612"
    },
    {
      "channel": 4,
      "note": 97,
      "start": 6.2013,
      "duration": 0.1164,
      "velocity": 109,
      "chip": "ym2612"
    },
    {
      "channel": 5,
      "note": 35,
      "start": 6.2015,
      "duration": 0.3502,
      "velocity": 101,
      "chip": "ym2612"
    },
    {
      "channel": 2,
      "note": 78,
      "start": 6.3173,
      "duration": 0.2339,
      "velocity": 97,
      "chip": "ym2612"
    },
    {
      "channel": 3,
      "note": 73,
      "start": 6.3175,
      "duration": 0.2339,
      "velocity": 97,
      "chip": "ym2612"
    },
    {
      "channel": 4,
      "note": 102,
      "start": 6.3179,
      "duration": 0.116,
      "velocity": 109,
      "chip": "ym2612"
    },
    {
      "channel": 4,
      "note": 101,
      "start": 6.434,
      "duration": 0.1175,
      "velocity": 109,
      "chip": "ym2612"
    },
    {
      "channel": 0,
      "note": 61,
      "start": 6.551,
      "duration": 0.1165,
      "velocity": 81,
      "chip": "ym2612"
    },
    {
      "channel": 1,
      "note": 66,
      "start": 6.5512,
      "duration": 0.1164,
      "velocity": 95,
      "chip": "ym2612"
    },
    {
      "channel": 4,
      "note": 97,
      "start": 6.5517,
      "duration": 0.1167,
      "velocity": 109,
      "chip": "ym2612"
    },
    {
      "channel": 5,
      "note": 24,
      "start": 6.5519,
      "duration": 0.1167,
      "velocity": 117,
      "chip": "ym2612"
    },
    {
      "channel": 1,
      "note": 61,
      "start": 6.6677,
      "duration": 0.1159,
      "velocity": 95,
      "chip": "ym2612"
    },
    {
      "channel": 2,
      "note": 78,
      "start": 6.668,
      "duration": 0.2327,
      "velocity": 97,
      "chip": "ym2612"
    },
    {
      "channel": 3,
      "note": 74,
      "start": 6.6682,
      "duration": 0.2327,
      "velocity": 97,
      "chip": "ym2612"
    },
    {
      "channel": 4,
      "note": 102,
      "start": 6.6685,
      "duration": 0.1153,
      "velocity": 109,
      "chip": "ym2612"
    },
    {
      "channel": 5,
      "note": 35,
      "start": 6.6688,
      "duration": 0.3495,
      "velocity": 101,
      "chip": "ym2612"
    },
    {
      "channel": 4,
      "note": 101,
      "start": 6.784,
      "duration": 0.1171,
      "velocity": 109,
      "chip": "ym2612"
    },
    {
      "channel": 0,
      "note": 63,
      "start": 6.9004,
      "duration": 0.8171,
      "velocity": 81,
      "chip": "ym2612"
    },
    {
      "channel": 1,
      "note": 61,
      "start": 6.9006,
      "duration": 0.1171,
      "velocity": 95,
      "chip": "ym2612"
    },
    {
      "channel": 2,
      "note": 78,
      "start": 6.9008,
      "duration": 0.3502,
      "velocity": 97,
      "chip": "ym2612"
    },
    {
      "channel": 3,
      "note": 75,
      "start": 6.901,
      "duration": 0.3502,
      "velocity": 97,
      "chip": "ym2612"
    },
    {
      "channel": 4,
      "note": 97,
      "start": 6.9013,
      "duration": 0.1168,
      "velocity": 109,
      "chip": "ym2612"
    },
    {
      "channel": 1,
      "note": 66,
      "start": 7.0178,
      "duration": 0.233,
      "velocity": 95,
      "chip": "ym2612"
    },
    {
      "channel": 4,
      "note": 102,
      "start": 7.0183,
      "duration": 0.1156,
      "velocity": 109,
      "chip": "ym2612"
    },
    {
      "channel": 5,
      "note": 24,
      "start": 7.0185,
      "duration": 0.2332,
      "velocity": 101,
      "chip": "ym2612"
    },
    {
      "channel": 4,
      "note": 101,
      "start": 7.134,
      "duration": 0.1175,
      "velocity": 109,
      "chip": "ym2612"
    },
    {
      "channel": 1,
      "note": 66,
      "start": 7.251,
      "duration": 0.1165,
      "velocity": 95,
      "chip": "ym2612"
    },
    {
      "channel": 2,
      "note": 78,
      "start": 7.2512,
      "duration": 0.1165,
      "velocity": 97,
      "chip": "ym2612"
    },
    {
      "channel": 3,
      "note": 75,
      "start": 7.2515,
      "duration": 0.1165,
      "velocity": 97,
      "chip": "ym2612"
    },
    {
      "channel": 4,
      "note": 99,
      "start": 7.2517,
      "duration": 0.1166,
      "velocity": 109,
      "chip": "ym2612"
    },
    {
      "channel": 5,
      "note": 24,
      "start": 7.2519,
      "duration": 0.1166,
      "velocity": 117,
      "chip": "ym2612"
    },
    {
      "channel": 1,
      "note": 61,
      "start": 7.3677,
      "duration": 0.1159,
      "velocity": 95,
      "chip": "ym2612"
    },
    {
      "channel": 2,
      "note": 78,
      "start": 7.3679,
      "duration": 0.2332,
      "velocity": 97,
      "chip": "ym2612"
    },
    {
      "channel": 3,
      "note": 70,
      "start": 7.3681,
      "duration": 0.2332,
      "velocity": 97,
      "chip": "ym2612"
    },
    {
      "channel": 4,
      "note": 102,
      "start": 7.3685,
      "duration": 0.1154,
      "velocity": 109,
      "chip": "ym2612"
    },
    {
      "channel": 5,
      "note": 35,
      "start": 7.3687,
      "duration": 0.233,
      "velocity": 117,
      "chip": "ym2612"
    },
    {
      "channel": 1,
      "note": 63,
      "start": 7.4837,
      "duration": 0.1171,
      "velocity": 95,
      "chip": "ym2612"
    },
    {
      "channel": 4,
      "note": 101,
      "start": 7.484,
      "duration": 0.1175,
      "velocity": 109,
      "chip": "ym2612"
    },
    {
      "channel": 1,
      "note": 66,
      "start": 7.601,
      "duration": 0.1167,
      "velocity": 95,
      "chip": "ym2612"
    },
    {
      "channel": 2,
      "note": 78,
      "start": 7.6012,
      "duration": 0.1166,
      "velocity": 97,
      "chip": "ym2612"
    },
    {
      "channel": 3,
      "note": 75,
      "start": 7.6015,
      "duration": 0.1165,
      "velocity": 97,
      "chip": "ym2612"
    },
    {
      "channel": 4,
      "note": 99,
      "start": 7.6017,
      "duration": 0.1165,
      "velocity": 109,
      "chip": "ym2612"
    },
    {
      "channel": 5,
      "note": 35,
      "start": 7.6019,
      "duration": 0.1165,
      "velocity": 101,
      "chip": "ym2612"
    },
    {
      "channel": 0,
      "note": 61,
      "start": 7.7176,
      "duration": 0.2332,
      "velocity": 81,
      "chip": "ym2612"
    },
    {
      "channel": 4,
      "note": 102,
      "start": 7.7183,
      "duration": 0.1156,
      "velocity": 109,
      "chip": "ym2612"
    },
    {
      "channel": 5,
      "note": 24,
      "start": 7.7186,
      "duration": 0.2329,
      "velocity": 101,
      "chip": "ym2612"
    },
    {
      "channel": 4,
      "note": 101,
      "start": 7.8341,
      "duration": 0.1172,
      "velocity": 109,
      "chip": "ym2612"
    },
    {
      "channel": 0,
      "note": 63,
      "start": 7.951,
      "duration": 0.1165,
      "velocity": 81,
      "chip": "ym2612"
    },
    {
      "channel": 1,
      "note": 66,
      "start": 7.9512,
      "duration": 0.1164,
      "velocity": 95,
      "chip": "ym2612"
    },
    {
      "channel": 4,
      "note": 99,
      "start": 7.9515,
      "duration": 0.1165,
      "velocity": 109,
      "chip": "ym2612"
    },
    {
      "channel": 5,
      "note": 24,
      "start": 7.9517,
      "duration": 0.1165,
      "velocity": 117,
      "chip": "ym2612"
    },
    {
      "channel": 1,
      "note": 63,
      "start": 8.0677,
      "duration": 0.1159,
      "velocity": 95,
      "chip": "ym2612"
    },
    {
      "channel": 4,
      "note": 102,
      "start": 8.0682,
      "duration": 0.1157,
      "velocity": 109,
      "chip": "ym2612"
    },
    {
      "channel": 5,
      "note": 35,
      "start": 8.0684,
      "duration": 0.3505,
      "velocity": 101,
      "chip": "ym2612"
    },
    {
      "channel": 4,
      "note": 101,
      "start": 8.184,
      "duration": 0.1166,
      "velocity": 109,
      "chip": "ym2612"
    },
    {
      "channel": 1,
      "note": 63,
      "start": 8.3005,
      "duration": 0.1173,
      "velocity": 95,
      "chip": "ym2612"
    },
    {
      "channel": 4,
      "note": 99,
      "start": 8.3008,
      "duration": 0.1178,
      "velocity": 109,
      "chip": "ym2612"
    },
    {
      "channel": 0,
      "note": 61,
      "start": 8.4177,
      "duration": 0.6992,
      "velocity": 81,
      "chip": "ym2612"
    },
    {
      "channel": 1,
      "note": 66,
      "start": 8.4179,
      "duration": 0.2329,
      "velocity": 95,
      "chip": "ym2612"
    },
    {
      "channel": 2,
      "note": 78,
      "start": 8.4182,
      "duration": 0.2329,
      "velocity": 97,
      "chip": "ym2612"
    },
    {
      "channel": 3,
      "note": 73,
      "start": 8.4184,
      "duration": 0.2328,
      "velocity": 97,
      "chip": "ym2612"
    },
    {
      "channel": 4,
      "note": 102,
      "start": 8.4188,
      "duration": 0.1151,
      "velocity": 109,
      "chip": "ym2612"
    },
    {
      "channel": 5,
      "note": 24,
      "start": 8.419,
      "duration": 0.2327,
      "velocity": 101,
      "chip": "ym2612"
    },
    {
      "channel": 4,
      "note": 101,
      "start": 8.534,
      "duration": 0.1175,
      "velocity": 109,
      "chip": "ym2612"
    },
    {
      "channel": 1,
      "note": 66,
      "start": 8.651,
      "duration": 0.1165,
      "velocity": 95,
      "chip": "ym2612"
    },
    {
      "channel": 2,
      "note": 78,
      "start": 8.6512,
      "duration": 0.4659,
      "velocity": 97,
      "chip": "ym2612"
    },
    {
      "channel": 3,
      "note": 78,
      "start": 8.6515,
      "duration": 0.4659,
      "velocity": 97,
      "chip": "ym2612"
    },
    {
      "channel": 4,
      "note": 97,
      "start": 8.6517,
      "duration": 0.1161,
      "velocity": 109,
      "chip": "ym2612"
    },
    {
      "channel": 5,
      "note": 24,
      "start": 8.6519,
      "duration": 0.1161,
      "velocity": 117,
      "chip": "ym2612"
    },
    {
      "channel": 1,
      "note": 61,
      "start": 8.7677,
      "duration": 0.1159,
      "velocity": 95,
      "chip": "ym2612"
    },
    {
      "channel": 4,
      "note": 102,
      "start": 8.768,
      "duration": 0.1159,
      "velocity": 109,
      "chip": "ym2612"
    },
    {
      "channel": 5,
      "note": 35,
      "start": 8.7682,
      "duration": 0.2332,
      "velocity": 101,
      "chip": "ym2612"
    },
    {
      "channel": 1,
      "note": 63,
      "start": 8.8837,
      "duration": 0.1171,
      "velocity": 95,
      "chip": "ym2612"
    },
    {
      "channel": 4,
      "note": 101,
      "start": 8.884,
      "duration": 0.1171,
      "velocity": 109,
      "chip": "ym2612"
    },
    {
      "channel": 1,
      "note": 66,
      "start": 9.001,
      "duration": 0.116,
      "velocity": 95,
      "chip": "ym2612"
    },
    {
      "channel": 4,
      "note": 97,
      "start": 9.0013,
      "duration": 0.1163,
      "velocity": 109,
      "chip": "ym2612"
    },
    {
      "channel": 5,
      "note": 24,
      "start": 9.0015,
      "duration": 0.2326,
      "velocity": 101,
      "chip": "ym2612"
    },
    {
      "channel": 2,
      "note": 78,
      "start": 9.1173,
      "duration": 0.2339,
      "velocity": 97,
      "chip": "ym2612"
    },
    {
      "channel": 3,
      "note": 73,
      "start": 9.1175,
      "duration": 0.2339,
      "velocity": 97,
      "chip": "ym2612"
    },
    {
      "channel": 4,
      "note": 90,
      "start": 9.1177,
      "duration": 0.1161,
      "velocity": 109,
      "chip": "ym2612"
    },
    {
      "channel": 4,
      "note": 92,
      "start": 9.234,
      "duration": 0.1175,
      "velocity": 109,
      "chip": "ym2612"
    },
    {
      "channel": 0,
      "note": 61,
      "start": 9.351,
      "duration": 0.1165,
      "velocity": 81,
      "chip": "ym2612"
    },
    {
      "channel": 1,
      "note": 66,
      "start": 9.3512,
      "duration": 0.1164,
      "velocity": 95,
      "chip": "ym2612"
    },
    {
      "channel": 4,
      "note": 94,
      "start": 9.3517,
      "duration": 0.1166,
      "velocity": 109,
      "chip": "ym2612"
    },
    {
      "channel": 5,
      "note": 24,
      "start": 9.3519,
      "duration": 0.1166,
      "velocity": 117,
      "chip": "ym2612"
    },
    {
      "channel": 1,
      "note": 61,
      "start": 9.4677,
      "duration": 0.1159,
      "velocity": 95,
      "chip": "ym2612"
    },
    {
      "channel": 2,
      "note": 78,
      "start": 9.468,
      "duration": 0.2333,
      "velocity": 97,
      "chip": "ym2612"
    },
    {
      "channel": 3,
      "note": 74,
      "start": 9.4682,
      "duration": 0.2332,
      "velocity": 97,
      "chip": "ym2612"
    },
    {
      "channel": 4,
      "note": 95,
      "start": 9.4684,
      "duration": 0.1154,
      "velocity": 109,
      "chip": "ym2612"
    },
    {
      "channel": 5,
      "note": 35,
      "start": 9.4687,
      "duration": 0.2333,
      "velocity": 101,
      "chip": "ym2612"
    },
    {
      "channel": 4,
      "note": 97,
      "start": 9.584,
      "duration": 0.1177,
      "velocity": 109,
      "chip": "ym2612"
    },
    {
      "channel": 0,
      "note": 63,
      "start": 9.701,
      "duration": 0.3498,
      "velocity": 81,
      "chip": "ym2612"
    },
    {
      "channel": 1,
      "note": 63,
      "start": 9.7012,
      "duration": 0.3498,
      "velocity": 95,
      "chip": "ym2612"
    },
    {
      "channel": 2,
      "note": 78,
      "start": 9.7014,
      "duration": 0.1165,
      "velocity": 97,
      "chip": "ym2612"
    },
    {
      "channel": 3,
      "note": 70,
      "start": 9.7016,
      "duration": 0.1166,
      "velocity": 97,
      "chip": "ym2612"
    },
    {
      "channel": 4,
      "note": 99,
      "start": 9.7019,
      "duration": 0.1166,
      "velocity": 109,
      "chip": "ym2612"
    },
    {
      "channel": 5,
      "note": 24,
      "start": 9.7021,
      "duration": 0.1166,
      "velocity": 117,
      "chip": "ym2612"
    },
    {
      "channel": 2,
      "note": 78,
      "start": 9.8181,
      "duration": 0.2331,
      "velocity": 97,
      "chip": "ym2612"
    },
    {
      "channel": 3,
      "note": 75,
      "start": 9.8184,
      "duration": 0.233,
      "velocity": 97,
      "chip": "ym2612"
    },
    {
      "channel": 4,
      "note": 102,
      "start": 9.8187,
      "duration": 0.1153,
      "velocity": 109,
      "chip": "ym2612"
    },
    {
      "channel": 5,
      "note": 35,
      "start": 9.8189,
      "duration": 0.233,
      "velocity": 117,
      "chip": "ym2612"
    },
    {
      "channel": 0,
      "note": 63,
      "start": 10.051,
      "duration": 0.1165,
      "velocity": 81,
      "chip": "ym2612"
    },
    {
      "channel": 1,
      "note": 66,
      "start": 10.0512,
      "duration": 0.1165,
      "velocity": 95,
      "chip": "ym2612"
    },
    {
      "channel": 2,
      "note": 78,
      "start": 10.0514,
      "duration": 0.1165,
      "velocity": 97,
      "chip": "ym2612"
    },
    {
      "channel": 3,
      "note": 75,
      "start": 10.0516,
      "duration": 0.1165,
      "velocity": 97,
      "chip": "ym2612"
    },
    {
      "channel": 4,
      "note": 102,
      "start": 10.0519,
      "duration": 0.1165,
      "velocity": 109,
      "chip": "ym2612"
    },
    {
      "channel": 5,
      "note": 35,
      "start": 10.0521,
      "duration": 0.1165,
      "velocity": 117,
      "chip": "ym2612"
    },
    {
      "channel": 0,
      "note": 63,
      "start": 10.1676,
      "duration": 0.2332,
      "velocity": 81,
      "chip": "ym2612"
    },
    {
      "channel": 1,
      "note": 61,
      "start": 10.1678,
      "duration": 0.2332,
      "velocity": 95,
      "chip": "ym2612"
    },
    {
      "channel": 2,
      "note": 78,
      "start": 10.1681,
      "duration": 0.2332,
      "velocity": 97,
      "chip": "ym2612"
    },
    {
      "channel": 3,
      "note": 73,
      "start": 10.1683,
      "duration": 0.2332,
      "velocity": 97,
      "chip": "ym2612"
    },
    {
      "channel": 4,
      "note": 102,
      "start": 10.1685,
      "duration": 0.1155,
      "velocity": 109,
      "chip": "ym2612"
    },
    {
      "channel": 5,
      "note": 35,
      "start": 10.1688,
      "duration": 0.2332,
      "velocity": 117,
      "chip": "ym2612"
    },
    {
      "channel": 0,
      "note": 63,
      "start": 10.401,
      "duration": 0.1159,
      "velocity": 81,
      "chip": "ym2612"
    },
    {
      "channel": 1,
      "note": 66,
      "start": 10.4012,
      "duration": 0.1158,
      "velocity": 95,
      "chip": "ym2612"
    },
    {
      "channel": 2,
      "note": 78,
      "start": 10.4014,
      "duration": 0.1157,
      "velocity": 97,
      "chip": "ym2612"
    },
    {
      "channel": 3,
      "note": 75,
      "start": 10.4016,
      "duration": 0.1156,
      "velocity": 97,
      "chip": "ym2612"
    },
    {
      "channel": 4,
      "note": 102,
      "start": 10.4019,
      "duration": 0.1155,
      "velocity": 109,
      "chip": "ym2612"
    },
    {
      "channel": 5,
      "note": 35,
      "start": 10.4021,
      "duration": 0.349,
      "velocity": 101,
      "chip": "ym2612"
    },
    {
      "channel": 1,
      "note": 66,
      "start": 10.751,
      "duration": 0.1165,
      "velocity": 95,
      "chip": "ym2612"
    },
    {
      "channel": 5,
      "note": 24,
      "start": 10.7513,
      "duration": 0.1165,
      "velocity": 117,
      "chip": "ym2612"
    },
    {
      "channel": 1,
      "note": 61,
      "start": 10.8677,
      "duration": 0.2326,
      "velocity": 95,
      "chip": "ym2612"
    },
    {
      "channel": 5,
      "note": 35,
      "start": 10.868,
      "duration": 0.3531,
      "velocity": 101,
      "chip": "ym2612"
    },
    {
      "channel": 1,
      "note": 63,
      "start": 11.1004,
      "duration": 0.1179,
      "velocity": 95,
      "chip": "ym2612"
    },
    {
      "channel": 0,
      "note": 90,
      "start": 11.2182,
      "duration": 0.2326,
      "velocity": 106,
      "chip": "ym2612"
    },
    {
      "channel": 1,
      "note": 66,
      "start": 11.2184,
      "duration": 0.1153,
      "velocity": 95,
      "chip": "ym2612"
    },
    {
      "channel": 2,
      "note": 61,
      "start": 11.2193,
      "duration": 0.3486,
      "velocity": 81,
      "chip": "ym2612"
    },
    {
      "channel": 3,
      "note": 66,
      "start": 11.2202,
      "duration": 0.3478,
      "velocity": 81,
      "chip": "ym2612"
    },
    {
      "channel": 4,
      "note": 102,
      "start": 11.221,
      "duration": 0.1128,
      "velocity": 109,
      "chip": "ym2612"
    },
    {
      "channel": 5,
      "note": 24,
      "start": 11.2213,
      "duration": 0.2303,
      "velocity": 101,
      "chip": "ym2612"
    },
    {
      "channel": 1,
      "note": 66,
      "start": 11.3337,
      "duration": 0.1173,
      "velocity": 95,
      "chip": "ym2612"
    },
    {
      "channel": 4,
      "note": 99,
      "start": 11.334,
      "duration": 0.1173,
      "velocity": 109,
      "chip": "ym2612"
    },
    {
      "channel": 0,
      "note": 89,
      "start": 11.451,
      "duration": 0.1165,
      "velocity": 106,
      "chip": "ym2612"
    },
    {
      "channel": 1,
      "note": 66,
      "start": 11.4512,
      "duration": 0.1165,
      "velocity": 95,
      "chip": "ym2612"
    },
    {
      "channel": 4,
      "note": 97,
      "start": 11.4515,
      "duration": 0.1166,
      "velocity": 109,
      "chip": "ym2612"
    },
    {
      "channel": 5,
      "note": 24,
      "start": 11.4517,
      "duration": 0.1166,
      "velocity": 117,
      "chip": "ym2612"
    },
    {
      "channel": 0,
      "note": 90,
      "start": 11.5676,
      "duration": 0.1167,
      "velocity": 106,
      "chip": "ym2612"
    },
    {
      "channel": 1,
      "note": 61,
      "start": 11.5678,
      "duration": 0.1166,
      "velocity": 95,
      "chip": "ym2612"
    },
    {
      "channel": 4,
      "note": 99,
      "start": 11.5683,
      "duration": 0.1164,
      "velocity": 109,
      "chip": "ym2612"
    },
    {
      "channel": 5,
      "note": 35,
      "start": 11.5686,
      "duration": 0.2332,
      "velocity": 117,
      "chip": "ym2612"
    },
    {
      "channel": 1,
      "note": 63,
      "start": 11.6846,
      "duration": 0.1163,
      "velocity": 95,
      "chip": "ym2612"
    },
    {
      "channel": 4,
      "note": 97,
      "start": 11.6849,
      "duration": 0.1167,
      "velocity": 109,
      "chip": "ym2612"
    },
    {
      "channel": 1,
      "note": 66,
      "start": 11.8011,
      "duration": 0.116,
      "velocity": 95,
      "chip": "ym2612"
    },
    {
      "channel": 2,
      "note": 61,
      "start": 11.8013,
      "duration": 0.3499,
      "velocity": 81,
      "chip": "ym2612"
    },
    {
      "channel": 3,
      "note": 66,
      "start": 11.8015,
      "duration": 0.3499,
      "velocity": 81,
      "chip": "ym2612"
    },
    {
      "channel": 4,
      "note": 94,
      "start": 11.8018,
      "duration": 0.1155,
      "velocity": 109,
      "chip": "ym2612"
    },
    {
      "channel": 5,
      "note": 35,
      "start": 11.802,
      "duration": 0.3499,
      "velocity": 101,
      "chip": "ym2612"
    },
    {
      "channel": 0,
      "note": 85,
      "start": 11.917,
      "duration": 0.2338,
      "velocity": 106,
      "chip": "ym2612"
    },
    {
      "channel": 4,
      "note": 97,
      "start": 11.9175,
      "duration": 0.2342,
      "velocity": 109,
      "chip": "ym2612"
    },
    {
      "channel": 0,
      "note": 87,
      "start": 12.151,
      "duration": 0.1165,
      "velocity": 106,
      "chip": "ym2612"
    },
    {
      "channel": 1,
      "note": 66,
      "start": 12.1512,
      "duration": 0.1164,
      "velocity": 95,
      "chip": "ym2612"
    },
    {
      "channel": 2,
      "note": 61,
      "start": 12.1514,
      "duration": 0.3492,
      "velocity": 81,
      "chip": "ym2612"
    },
    {
      "channel": 3,
      "note": 66,
      "start": 12.1516,
      "duration": 0.3491,
      "velocity": 81,
      "chip": "ym2612"
    },
    {
      "channel": 4,
      "note": 99,
      "start": 12.1519,
      "duration": 0.116,
      "velocity": 109,
      "chip": "ym2612"
    },
    {
      "channel": 5,
      "note": 24,
      "start": 12.1521,
      "duration": 0.1159,
      "velocity": 117,
      "chip": "ym2612"
    },
    {
      "channel": 1,
      "note": 61,
      "start": 12.2677,
      "duration": 0.1159,
      "velocity": 95,
      "chip": "ym2612"
    },
    {
      "channel": 5,
      "note": 35,
      "start": 12.2682,
      "duration": 0.3511,
      "velocity": 101,
      "chip": "ym2612"
    },
    {
      "channel": 0,
      "note": 82,
      "start": 12.5004,
      "duration": 0.1171,
      "velocity": 106,
      "chip": "ym2612"
    },
    {
      "channel": 1,
      "note": 63,
      "start": 12.5006,
      "duration": 0.1171,
      "velocity": 95,
      "chip": "ym2612"
    },
    {
      "channel": 0,
      "note": 83,
      "start": 12.6176,
      "duration": 0.5832,
      "velocity": 106,
      "chip": "ym2612"
    },
    {
      "channel": 1,
      "note": 63,
      "start": 12.6179,
      "duration": 0.2329,
      "velocity": 95,
      "chip": "ym2612"
    },
    {
      "channel": 2,
      "note": 59,
      "start": 12.6181,
      "duration": 0.3496,
      "velocity": 81,
      "chip": "ym2612"
    },
    {
      "channel": 3,
      "note": 66,
      "start": 12.6183,
      "duration": 0.3495,
      "velocity": 81,
      "chip": "ym2612"
    },
    {
      "channel": 4,
      "note": 102,
      "start": 12.6192,
      "duration": 0.1146,
      "velocity": 109,
      "chip": "ym2612"
    },
    {
      "channel": 5,
      "note": 24,
      "start": 12.6194,
      "duration": 0.2319,
      "velocity": 101,
      "chip": "ym2612"
    },
    {
      "channel": 4,
      "note": 99,
      "start": 12.734,
      "duration": 0.1171,
      "velocity": 109,
      "chip": "ym2612"
    },
    {
      "channel": 1,
      "note": 63,
      "start": 12.851,
      "duration": 0.1165,
      "velocity": 95,
      "chip": "ym2612"
    },
    {
      "channel": 4,
      "note": 97,
      "start": 12.8513,
      "duration": 0.1167,
      "velocity": 109,
      "chip": "ym2612"
    },
    {
      "channel": 5,
      "note": 24,
      "start": 12.8515,
      "duration": 0.1167,
      "velocity": 117,
      "chip": "ym2612"
    },
    {
      "channel": 1,
      "note": 59,
      "start": 12.9677,
      "duration": 0.1159,
      "velocity": 95,
      "chip": "ym2612"
    },
    {
      "channel": 4,
      "note": 99,
      "start": 12.9681,
      "duration": 0.1157,
      "velocity": 109,
      "chip": "ym2612"
    },
    {
      "channel": 5,
      "note": 35,
      "start": 12.9684,
      "duration": 0.2336,
      "velocity": 117,
      "chip": "ym2612"
    },
    {
      "channel": 1,
      "note": 61,
      "start": 13.0837,
      "duration": 0.1173,
      "velocity": 95,
      "chip": "ym2612"
    },
    {
      "channel": 4,
      "note": 97,
      "start": 13.084,
      "duration": 0.1177,
      "velocity": 109,
      "chip": "ym2612"
    },
    {
      "channel": 0,
      "note": 87,
      "start": 13.201,
      "duration": 0.1165,
      "velocity": 106,
      "chip": "ym2612"
    },
    {
      "channel": 1,
      "note": 63,
      "start": 13.2012,
      "duration": 0.1164,
      "velocity": 95,
      "chip": "ym2612"
    },
    {
      "channel": 2,
      "note": 59,
      "start": 13.2014,
      "duration": 0.3496,
      "velocity": 81,
      "chip": "ym2612"
    },
    {
      "channel": 3,
      "note": 66,
      "start": 13.2017,
      "duration": 0.3495,
      "velocity": 81,
      "chip": "ym2612"
    },
    {
      "channel": 4,
      "note": 94,
      "start": 13.2019,
      "duration": 0.1159,
      "velocity": 109,
      "chip": "ym2612"
    },
    {
      "channel": 5,
      "note": 35,
      "start": 13.2021,
      "duration": 0.1159,
      "velocity": 101,
      "chip": "ym2612"
    },
    {
      "channel": 4,
      "note": 97,
      "start": 13.318,
      "duration": 0.2333,
      "velocity": 109,
      "chip": "ym2612"
    },
    {
      "channel": 5,
      "note": 24,
      "start": 13.3182,
      "duration": 0.2333,
      "velocity": 101,
      "chip": "ym2612"
    },
    {
      "channel": 1,
      "note": 63,
      "start": 13.551,
      "duration": 0.1167,
      "velocity": 95,
      "chip": "ym2612"
    },
    {
      "channel": 4,
      "note": 99,
      "start": 13.5515,
      "duration": 0.1169,
      "velocity": 109,
      "chip": "ym2612"
    },
    {
      "channel": 5,
      "note": 24,
      "start": 13.5517,
      "duration": 0.1168,
      "velocity": 117,
      "chip": "ym2612"
    },
    {
      "channel": 0,
      "note": 90,
      "start": 13.6676,
      "duration": 0.2326,
      "velocity": 106,
      "chip": "ym2612"
    },
    {
      "channel": 1,
      "note": 59,
      "start": 13.6678,
      "duration": 0.1157,
      "velocity": 95,
      "chip": "ym2612"
    },
    {
      "channel": 2,
      "note": 59,
      "start": 13.6681,
      "duration": 0.3505,
      "velocity": 81,
      "chip": "ym2612"
    },
    {
      "channel": 3,
      "note": 66,
      "start": 13.6683,
      "duration": 0.3511,
      "velocity": 81,
      "chip": "ym2612"
    },
    {
      "channel": 5,
      "note": 35,
      "start": 13.6687,
      "duration": 0.3519,
      "velocity": 101,
      "chip": "ym2612"
    },
    {
      "channel": 0,
      "note": 89,
      "start": 13.9004,
      "duration": 0.1172,
      "velocity": 106,
      "chip": "ym2612"
    },
    {
      "channel": 1,
      "note": 61,
      "start": 13.9006,
      "duration": 0.1172,
      "velocity": 95,
      "chip": "ym2612"
    },
    {
      "channel": 0,
      "note": 90,
      "start": 14.0177,
      "duration": 0.1158,
      "velocity": 106,
      "chip": "ym2612"
    },
    {
      "channel": 1,
      "note": 66,
      "start": 14.018,
      "duration": 0.2329,
      "velocity": 95,
      "chip": "ym2612"
    },
    {
      "channel": 2,
      "note": 61,
      "start": 14.0188,
      "duration": 0.3491,
      "velocity": 81,
      "chip": "ym2612"
    },
    {
      "channel": 3,
      "note": 66,
      "start": 14.0196,
      "duration": 0.3484,
      "velocity": 81,
      "chip": "ym2612"
    },
    {
      "channel": 4,
      "note": 102,
      "start": 14.0205,
      "duration": 0.1134,
      "velocity": 109,
      "chip": "ym2612"
    },
    {
      "channel": 5,
      "note": 24,
      "start": 14.0207,
      "duration": 0.2307,
      "velocity": 101,
      "chip": "ym2612"
    },
    {
      "channel": 4,
      "note": 99,
      "start": 14.1341,
      "duration": 0.1171,
      "velocity": 109,
      "chip": "ym2612"
    },
    {
      "channel": 1,
      "note": 66,
      "start": 14.2511,
      "duration": 0.1166,
      "velocity": 95,
      "chip": "ym2612"
    },
    {
      "channel": 4,
      "note": 97,
      "start": 14.2514,
      "duration": 0.1168,
      "velocity": 109,
      "chip": "ym2612"
    },
    {
      "channel": 5,
      "note": 24,
      "start": 14.2516,
      "duration": 0.1168,
      "velocity": 117,
      "chip": "ym2612"
    },
    {
      "channel": 0,
      "note": 85,
      "start": 14.3676,
      "duration": 0.1159,
      "velocity": 106,
      "chip": "ym2612"
    },
    {
      "channel": 1,
      "note": 61,
      "start": 14.3678,
      "duration": 0.1158,
      "velocity": 95,
      "chip": "ym2612"
    },
    {
      "channel": 4,
      "note": 99,
      "start": 14.3683,
      "duration": 0.1156,
      "velocity": 109,
      "chip": "ym2612"
    },
    {
      "channel": 5,
      "note": 35,
      "start": 14.3686,
      "duration": 0.2332,
      "velocity": 117,
      "chip": "ym2612"
    },
    {
      "channel": 1,
      "note": 63,
      "start": 14.4838,
      "duration": 0.1171,
      "velocity": 95,
      "chip": "ym2612"
    },
    {
      "channel": 4,
      "note": 97,
      "start": 14.4841,
      "duration": 0.1175,
      "velocity": 109,
      "chip": "ym2612"
    },
    {
      "channel": 1,
      "note": 66,
      "start": 14.6011,
      "duration": 0.116,
      "velocity": 95,
      "chip": "ym2612"
    },
    {
      "channel": 2,
      "note": 61,
      "start": 14.6013,
      "duration": 0.3499,
      "velocity": 81,
      "chip": "ym2612"
    },
    {
      "channel": 3,
      "note": 66,
      "start": 14.6015,
      "duration": 0.3499,
      "velocity": 81,
      "chip": "ym2612"
    },
    {
      "channel": 4,
      "note": 94,
      "start": 14.6018,
      "duration": 0.1155,
      "velocity": 109,
      "chip": "ym2612"
    },
    {
      "channel": 5,
      "note": 35,
      "start": 14.602,
      "duration": 0.3499,
      "velocity": 101,
      "chip": "ym2612"
    },
    {
      "channel": 0,
      "note": 87,
      "start": 14.717,
      "duration": 0.2338,
      "velocity": 106,
      "chip": "ym2612"
    },
    {
      "channel": 4,
      "note": 97,
      "start": 14.7174,
      "duration": 0.2342,
      "velocity": 109,
      "chip": "ym2612"
    },
    {
      "channel": 0,
      "note": 82,
      "start": 14.951,
      "duration": 0.1165,
      "velocity": 106,
      "chip": "ym2612"
    },
    {
      "channel": 1,
      "note": 66,
      "start": 14.9512,
      "duration": 0.1164,
      "velocity": 95,
      "chip": "ym2612"
    },
    {
      "channel": 2,
      "note": 61,
      "start": 14.9514,
      "duration": 0.3492,
      "velocity": 81,
      "chip": "ym2612"
    },
    {
      "channel": 3,
      "note": 66,
      "start": 14.9516,
      "duration": 0.3491,
      "velocity": 81,
      "chip": "ym2612"
    },
    {
      "channel": 4,
      "note": 99,
      "start": 14.9519,
      "duration": 0.116,
      "velocity": 109,
      "chip": "ym2612"
    },
    {
      "channel": 5,
      "note": 24,
      "start": 14.9521,
      "duration": 0.1159,
      "velocity": 117,
      "chip": "ym2612"
    },
    {
      "channel": 1,
      "note": 61,
      "start": 15.0677,
      "duration": 0.1159,
      "velocity": 95,
      "chip": "ym2612"
    },
    {
      "channel": 5,
      "note": 35,
      "start": 15.0682,
      "duration": 0.351,
      "velocity": 101,
      "chip": "ym2612"
    },
    {
      "channel": 0,
      "note": 83,
      "start": 15.3004,
      "duration": 0.1171,
      "velocity": 106,
      "chip": "ym2612"
    },
    {
      "channel": 1,
      "note": 63,
      "start": 15.3006,
      "duration": 0.117,
      "velocity": 95,
      "chip": "ym2612"
    },
    {
      "channel": 1,
      "note": 63,
      "start": 15.4178,
      "duration": 0.2331,
      "velocity": 95,
      "chip": "ym2612"
    },
    {
      "channel": 2,
      "note": 59,
      "start": 15.418,
      "duration": 0.3497,
      "velocity": 81,
      "chip": "ym2612"
    },
    {
      "channel": 3,
      "note": 66,
      "start": 15.4182,
      "duration": 0.3496,
      "velocity": 81,
      "chip": "ym2612"
    },
    {
      "channel": 4,
      "note": 102,
      "start": 15.4191,
      "duration": 0.1147,
      "velocity": 109,
      "chip": "ym2612"
    },
    {
      "channel": 5,
      "note": 24,
      "start": 15.4193,
      "duration": 0.232,
      "velocity": 101,
      "chip": "ym2612"
    },
    {
      "channel": 4,
      "note": 99,
      "start": 15.534,
      "duration": 0.1171,
      "velocity": 109,
      "chip": "ym2612"
    },
    {
      "channel": 1,
      "note": 63,
      "start": 15.651,
      "duration": 0.1165,
      "velocity": 95,
      "chip": "ym2612"
    },
    {
      "channel": 4,
      "note": 97,
      "start": 15.6513,
      "duration": 0.1167,
      "velocity": 109,
      "chip": "ym2612"
    },
    {
      "channel": 5,
      "note": 24,
      "start": 15.6515,
      "duration": 0.1167,
      "velocity": 117,
      "chip": "ym2612"
    },
    {
      "channel": 1,
      "note": 59,
      "start": 15.7677,
      "duration": 0.1159,
      "velocity": 95,
      "chip": "ym2612"
    },
    {
      "channel": 4,
      "note": 99,
      "start": 15.7681,
      "duration": 0.1157,
      "velocity": 109,
      "chip": "ym2612"
    },
    {
      "channel": 5,
      "note": 35,
      "start": 15.7684,
      "duration": 0.2334,
      "velocity": 117,
      "chip": "ym2612"
    },
    {
      "channel": 1,
      "note": 61,
      "start": 15.8837,
      "duration": 0.1171,
      "velocity": 95,
      "chip": "ym2612"
    },
    {
      "channel": 4,
      "note": 97,
      "start": 15.884,
      "duration": 0.1175,
      "velocity": 109,
      "chip": "ym2612"
    },
    {
      "channel": 1,
      "note": 63,
      "start": 16.001,
      "duration": 0.1165,
      "velocity": 95,
      "chip": "ym2612"
    },
    {
      "channel": 2,
      "note": 59,
      "start": 16.0012,
      "duration": 0.35,
      "velocity": 81,
      "chip": "ym2612"
    },
    {
      "channel": 3,
      "note": 66,
      "start": 16.0015,
      "duration": 0.3499,
      "velocity": 81,
      "chip": "ym2612"
    },
    {
      "channel": 4,
      "note": 94,
      "start": 16.0017,
      "duration": 0.116,
      "velocity": 109,
      "chip": "ym2612"
    },
    {
      "channel": 5,
      "note": 35,
      "start": 16.0019,
      "duration": 0.116,
      "velocity": 101,
      "chip": "ym2612"
    },
    {
      "channel": 4,
      "note": 97,
      "start": 16.1178,
      "duration": 0.2337,
      "velocity": 109,
      "chip": "ym2612"
    },
    {
      "channel": 5,
      "note": 24,
      "start": 16.1181,
      "duration": 0.2336,
      "velocity": 101,
      "chip": "ym2612"
    },
    {
      "channel": 0,
      "note": 90,
      "start": 16.351,
      "duration": 0.2326,
      "velocity": 106,
      "chip": "ym2612"
    },
    {
      "channel": 1,
      "note": 63,
      "start": 16.3512,
      "duration": 0.1165,
      "velocity": 95,
      "chip": "ym2612"
    },
    {
      "channel": 4,
      "note": 99,
      "start": 16.3517,
      "duration": 0.1167,
      "velocity": 109,
      "chip": "ym2612"
    },
    {
      "channel": 5,
      "note": 24,
      "start": 16.3519,
      "duration": 0.1166,
      "velocity": 117,
      "chip": "ym2612"
    },
    {
      "channel": 1,
      "note": 59,
      "start": 16.4678,
      "duration": 0.1158,
      "velocity": 95,
      "chip": "ym2612"
    },
    {
      "channel": 2,
      "note": 59,
      "start": 16.468,
      "duration": 0.3505,
      "velocity": 81,
      "chip": "ym2612"
    },
    {
      "channel": 3,
      "note": 66,
      "start": 16.4683,
      "duration": 0.3511,
      "velocity": 81,
      "chip": "ym2612"
    },
    {
      "channel": 5,
      "note": 35,
      "start": 16.4687,
      "duration": 0.3519,
      "velocity": 101,
      "chip": "ym2612"
    },
    {
      "channel": 0,
      "note": 89,
      "start": 16.7004,
      "duration": 0.1172,
      "velocity": 106,
      "chip": "ym2612"
    },
    {
      "channel": 1,
      "note": 61,
      "start": 16.7006,
      "duration": 0.1172,
      "velocity": 95,
      "chip": "ym2612"
    },
    {
      "channel": 0,
      "note": 90,
      "start": 16.8177,
      "duration": 0.1658,
      "velocity": 106,
      "chip": "ym2612"
    },
    {
      "channel": 1,
      "note": 66,
      "start": 16.818,
      "duration": 0.2329,
      "velocity": 95,
      "chip": "ym2612"
    },
    {
      "channel": 2,
      "note": 61,
      "start": 16.8188,
      "duration": 0.3491,
      "velocity": 81,
      "chip": "ym2612"
    },
    {
      "channel": 3,
      "note": 66,
      "start": 16.8196,
      "duration": 0.3484,
      "velocity": 81,
      "chip": "ym2612"
    },
    {
      "channel": 4,
      "note": 102,
      "start": 16.8205,
      "duration": 0.1133,
      "velocity": 109,
      "chip": "ym2612"
    },
    {
      "channel": 5,
      "note": 24,
      "start": 16.8207,
      "duration": 0.2307,
      "velocity": 101,
      "chip": "ym2612"
    },
    {
      "channel": 4,
      "note": 99,
      "start": 16.934,
      "duration": 0.1172,
      "velocity": 109,
      "chip": "ym2612"
    },
    {
      "channel": 1,
      "note": 66,
      "start": 17.0511,
      "duration": 0.1166,
      "velocity": 95,
      "chip": "ym2612"
    },
    {
      "channel": 4,
      "note": 97,
      "start": 17.0514,
      "duration": 0.1168,
      "velocity": 109,
      "chip": "ym2612"
    },
    {
      "channel": 5,
      "note": 24,
      "start": 17.0516,
      "duration": 0.1168,
      "velocity": 117,
      "chip": "ym2612"
    },
    {
      "channel": 0,
      "note": 85,
      "start": 17.1676,
      "duration": 0.1659,
      "velocity": 106,
      "chip": "ym2612"
    },
    {
      "channel": 1,
      "note": 61,
      "start": 17.1678,
      "duration": 0.1157,
      "velocity": 95,
      "chip": "ym2612"
    },
    {
      "channel": 4,
      "note": 99,
      "start": 17.1683,
      "duration": 0.1155,
      "velocity": 109,
      "chip": "ym2612"
    },
    {
      "channel": 5,
      "note": 35,
      "start": 17.1686,
      "duration": 0.2332,
      "velocity": 117,
      "chip": "ym2612"
    },
    {
      "channel": 1,
      "note": 63,
      "start": 17.2837,
      "duration": 0.1172,
      "velocity": 95,
      "chip": "ym2612"
    },
    {
      "channel": 4,
      "note": 97,
      "start": 17.284,
      "duration": 0.1176,
      "velocity": 109,
      "chip": "ym2612"
    },
    {
      "channel": 1,
      "note": 66,
      "start": 17.4011,
      "duration": 0.116,
      "velocity": 95,
      "chip": "ym2612"
    },
    {
      "channel": 2,
      "note": 61,
      "start": 17.4013,
      "duration": 0.3499,
      "velocity": 81,
      "chip": "ym2612"
    },
    {
      "channel": 3,
      "note": 66,
      "start": 17.4015,
      "duration": 0.3499,
      "velocity": 81,
      "chip": "ym2612"
    },
    {
      "channel": 4,
      "note": 94,
      "start": 17.4018,
      "duration": 0.1155,
      "velocity": 109,
      "chip": "ym2612"
    },
    {
      "channel": 5,
      "note": 35,
      "start": 17.402,
      "duration": 0.3499,
      "velocity": 101,
      "chip": "ym2612"
    },
    {
      "channel": 0,
      "note": 87,
      "start": 17.517,
      "duration": 0.2337,
      "velocity": 106,
      "chip": "ym2612"
    },
    {
      "channel": 4,
      "note": 97,
      "start": 17.5174,
      "duration": 0.2342,
      "velocity": 109,
      "chip": "ym2612"
    },
    {
      "channel": 0,
      "note": 82,
      "start": 17.751,
      "duration": 0.1165,
      "velocity": 106,
      "chip": "ym2612"
    },
    {
      "channel": 1,
      "note": 66,
      "start": 17.7512,
      "duration": 0.1164,
      "velocity": 95,
      "chip": "ym2612"
    },
    {
      "channel": 2,
      "note": 61,
      "start": 17.7514,
      "duration": 0.3492,
      "velocity": 81,
      "chip": "ym2612"
    },
    {
      "channel": 3,
      "note": 66,
      "start": 17.7516,
      "duration": 0.3491,
      "velocity": 81,
      "chip": "ym2612"
    },
    {
      "channel": 4,
      "note": 99,
      "start": 17.7519,
      "duration": 0.116,
      "velocity": 109,
      "chip": "ym2612"
    },
    {
      "channel": 5,
      "note": 24,
      "start": 17.7521,
      "duration": 0.1159,
      "velocity": 117,
      "chip": "ym2612"
    },
    {
      "channel": 1,
      "note": 61,
      "start": 17.8677,
      "duration": 0.1159,
      "velocity": 95,
      "chip": "ym2612"
    },
    {
      "channel": 5,
      "note": 35,
      "start": 17.8682,
      "duration": 0.3511,
      "velocity": 101,
      "chip": "ym2612"
    },
    {
      "channel": 0,
      "note": 85,
      "start": 18.1004,
      "duration": 0.1171,
      "velocity": 106,
      "chip": "ym2612"
    },
    {
      "channel": 1,
      "note": 63,
      "start": 18.1006,
      "duration": 0.1171,
      "velocity": 95,
      "chip": "ym2612"
    },
    {
      "channel": 0,
      "note": 83,
      "start": 18.2176,
      "duration": 0.584,
      "velocity": 106,
      "chip": "ym2612"
    },
    {
      "channel": 1,
      "note": 63,
      "start": 18.2179,
      "duration": 0.2329,
      "velocity": 95,
      "chip": "ym2612"
    },
    {
      "channel": 2,
      "note": 59,
      "start": 18.2181,
      "duration": 0.3496,
      "velocity": 81,
      "chip": "ym2612"
    },
    {
      "channel": 3,
      "note": 66,
      "start": 18.2183,
      "duration": 0.3495,
      "velocity": 81,
      "chip": "ym2612"
    },
    {
      "channel": 4,
      "note": 102,
      "start": 18.2192,
      "duration": 0.1146,
      "velocity": 109,
      "chip": "ym2612"
    },
    {
      "channel": 5,
      "note": 24,
      "start": 18.2194,
      "duration": 0.2319,
      "velocity": 101,
      "chip": "ym2612"
    },
    {
      "channel": 4,
      "note": 99,
      "start": 18.334,
      "duration": 0.1171,
      "velocity": 109,
      "chip": "ym2612"
    },
    {
      "channel": 1,
      "note": 63,
      "start": 18.451,
      "duration": 0.1165,
      "velocity": 95,
      "chip": "ym2612"
    },
    {
      "channel": 4,
      "note": 97,
      "start": 18.4513,
      "duration": 0.1167,
      "velocity": 109,
      "chip": "ym2612"
    },
    {
      "channel": 5,
      "note": 24,
      "start": 18.4515,
      "duration": 0.1167,
      "velocity": 117,
      "chip": "ym2612"
    },
    {
      "channel": 1,
      "note": 59,
      "start": 18.5677,
      "duration": 0.1159,
      "velocity": 95,
      "chip": "ym2612"
    },
    {
      "channel": 4,
      "note": 99,
      "start": 18.5681,
      "duration": 0.1157,
      "velocity": 109,
      "chip": "ym2612"
    },
    {
      "channel": 5,
      "note": 35,
      "start": 18.5684,
      "duration": 0.2344,
      "velocity": 117,
      "chip": "ym2612"
    },
    {
      "channel": 1,
      "note": 61,
      "start": 18.6837,
      "duration": 0.1181,
      "velocity": 95,
      "chip": "ym2612"
    },
    {
      "channel": 4,
      "note": 97,
      "start": 18.684,
      "duration": 0.1185,
      "velocity": 109,
      "chip": "ym2612"
    },
    {
      "channel": 0,
      "note": 87,
      "start": 18.8018,
      "duration": 0.1156,
      "velocity": 106,
      "chip": "ym2612"
    },
    {
      "channel": 1,
      "note": 63,
      "start": 18.802,
      "duration": 0.1156,
      "velocity": 95,
      "chip": "ym2612"
    },
    {
      "channel": 2,
      "note": 59,
      "start": 18.8022,
      "duration": 0.349,
      "velocity": 81,
      "chip": "ym2612"
    },
    {
      "channel": 3,
      "note": 66,
      "start": 18.8025,
      "duration": 0.3489,
      "velocity": 81,
      "chip": "ym2612"
    },
    {
      "channel": 4,
      "note": 94,
      "start": 18.8027,
      "duration": 0.1151,
      "velocity": 109,
      "chip": "ym2612"
    },
    {
      "channel": 5,
      "note": 35,
      "start": 18.8029,
      "duration": 0.115,
      "velocity": 101,
      "chip": "ym2612"
    },
    {
      "channel": 4,
      "note": 97,
      "start": 18.9179,
      "duration": 0.2335,
      "velocity": 109,
      "chip": "ym2612"
    },
    {
      "channel": 5,
      "note": 24,
      "start": 18.9182,
      "duration": 0.2335,
      "velocity": 101,
      "chip": "ym2612"
    },
    {
      "channel": 0,
      "note": 90,
      "start": 19.151,
      "duration": 0.1165,
      "velocity": 106,
      "chip": "ym2612"
    },
    {
      "channel": 1,
      "note": 63,
      "start": 19.1512,
      "duration": 0.1165,
      "velocity": 95,
      "chip": "ym2612"
    },
    {
      "channel": 4,
      "note": 99,
      "start": 19.1517,
      "duration": 0.1167,
      "velocity": 109,
      "chip": "ym2612"
    },
    {
      "channel": 5,
      "note": 24,
      "start": 19.1519,
      "duration": 0.1166,
      "velocity": 117,
      "chip": "ym2612"
    },
    {
      "channel": 0,
      "note": 89,
      "start": 19.2676,
      "duration": 0.2326,
      "velocity": 106,
      "chip": "ym2612"
    },
    {
      "channel": 1,
      "note": 59,
      "start": 19.2678,
      "duration": 0.1159,
      "velocity": 95,
      "chip": "ym2612"
    },
    {
      "channel": 2,
      "note": 59,
      "start": 19.2681,
      "duration": 0.3505,
      "velocity": 81,
      "chip": "ym2612"
    },
    {
      "channel": 3,
      "note": 66,
      "start": 19.2683,
      "duration": 0.3511,
      "velocity": 81,
      "chip": "ym2612"
    },
    {
      "channel": 5,
      "note": 35,
      "start": 19.2687,
      "duration": 0.3519,
      "velocity": 101,
      "chip": "ym2612"
    },
    {
      "channel": 0,
      "note": 90,
      "start": 19.5004,
      "duration": 0.1172,
      "velocity": 106,
      "chip": "ym2612"
    },
    {
      "channel": 1,
      "note": 61,
      "start": 19.5006,
      "duration": 0.1172,
      "velocity": 95,
      "chip": "ym2612"
    },
    {
      "channel": 0,
      "note": 85,
      "start": 19.6177,
      "duration": 0.2331,
      "velocity": 106,
      "chip": "ym2612"
    },
    {
      "channel": 1,
      "note": 66,
      "start": 19.618,
      "duration": 0.233,
      "velocity": 95,
      "chip": "ym2612"
    },
    {
      "channel": 2,
      "note": 61,
      "start": 19.6188,
      "duration": 0.349,
      "velocity": 81,
      "chip": "ym2612"
    },
    {
      "channel": 3,
      "note": 66,
      "start": 19.6196,
      "duration": 0.3483,
      "velocity": 81,
      "chip": "ym2612"
    },
    {
      "channel": 4,
      "note": 102,
      "start": 19.6205,
      "duration": 0.1135,
      "velocity": 109,
      "chip": "ym2612"
    },
    {
      "channel": 5,
      "note": 24,
      "start": 19.6207,
      "duration": 0.2308,
      "velocity": 101,
      "chip": "ym2612"
    },
    {
      "channel": 4,
      "note": 99,
      "start": 19.7342,
      "duration": 0.1171,
      "velocity": 109,
      "chip": "ym2612"
    },
    {
      "channel": 0,
      "note": 87,
      "start": 19.851,
      "duration": 0.1165,
      "velocity": 106,
      "chip": "ym2612"
    },
    {
      "channel": 1,
      "note": 66,
      "start": 19.8512,
      "duration": 0.1164,
      "velocity": 95,
      "chip": "ym2612"
    },
    {
      "channel": 4,
      "note": 97,
      "start": 19.8515,
      "duration": 0.1166,
      "velocity": 109,
      "chip": "ym2612"
    },
    {
      "channel": 5,
      "note": 24,
      "start": 19.8517,
      "duration": 0.1166,
      "velocity": 117,
      "chip": "ym2612"
    },
    {
      "channel": 1,
      "note": 61,
      "start": 19.9677,
      "duration": 0.1159,
      "velocity": 95,
      "chip": "ym2612"
    },
    {
      "channel": 4,
      "note": 99,
      "start": 19.9682,
      "duration": 0.1157,
      "velocity": 109,
      "chip": "ym2612"
    },
    {
      "channel": 5,
      "note": 35,
      "start": 19.9685,
      "duration": 0.2335,
      "velocity": 117,
      "chip": "ym2612"
    },
    {
      "channel": 1,
      "note": 63,
      "start": 20.0838,
      "duration": 0.1172,
      "velocity": 95,
      "chip": "ym2612"
    },
    {
      "channel": 4,
      "note": 97,
      "start": 20.0841,
      "duration": 0.1176,
      "velocity": 109,
      "chip": "ym2612"
    },
    {
      "channel": 0,
      "note": 85,
      "start": 20.201,
      "duration": 0.1159,
      "velocity": 106,
      "chip": "ym2612"
    },
    {
      "channel": 1,
      "note": 66,
      "start": 20.2012,
      "duration": 0.1159,
      "velocity": 95,
      "chip": "ym2612"
    },
    {
      "channel": 2,
      "note": 61,
      "start": 20.2014,
      "duration": 0.3498,
      "velocity": 81,
      "chip": "ym2612"
    },
    {
      "channel": 3,
      "note": 66,
      "start": 20.2016,
      "duration": 0.3498,
      "velocity": 81,
      "chip": "ym2612"
    },
    {
      "channel": 4,
      "note": 94,
      "start": 20.2019,
      "duration": 0.1154,
      "velocity": 109,
      "chip": "ym2612"
    },
    {
      "channel": 5,
      "note": 35,
      "start": 20.2021,
      "duration": 0.3498,
      "velocity": 101,
      "chip": "ym2612"
    },
    {
      "channel": 0,
      "note": 87,
      "start": 20.317,
      "duration": 0.2337,
      "velocity": 106,
      "chip": "ym2612"
    },
    {
      "channel": 4,
      "note": 97,
      "start": 20.3174,
      "duration": 0.2342,
      "velocity": 109,
      "chip": "ym2612"
    },
    {
      "channel": 0,
      "note": 87,
      "start": 20.551,
      "duration": 0.1165,
      "velocity": 106,
      "chip": "ym2612"
    },
    {
      "channel": 1,
      "note": 66,
      "start": 20.5512,
      "duration": 0.1165,
      "velocity": 95,
      "chip": "ym2612"
    },
    {
      "channel": 2,
      "note": 61,
      "start": 20.5514,
      "duration": 0.3492,
      "velocity": 81,
      "chip": "ym2612"
    },
    {
      "channel": 3,
      "note": 66,
      "start": 20.5516,
      "duration": 0.3491,
      "velocity": 81,
      "chip": "ym2612"
    },
    {
      "channel": 4,
      "note": 99,
      "start": 20.5519,
      "duration": 0.1161,
      "velocity": 109,
      "chip": "ym2612"
    },
    {
      "channel": 5,
      "note": 24,
      "start": 20.5521,
      "duration": 0.116,
      "velocity": 117,
      "chip": "ym2612"
    },
    {
      "channel": 0,
      "note": 82,
      "start": 20.6676,
      "duration": 0.2326,
      "velocity": 106,
      "chip": "ym2612"
    },
    {
      "channel": 1,
      "note": 61,
      "start": 20.6678,
      "duration": 0.1159,
      "velocity": 95,
      "chip": "ym2612"
    },
    {
      "channel": 5,
      "note": 35,
      "start": 20.6683,
      "duration": 0.3509,
      "velocity": 101,
      "chip": "ym2612"
    },
    {
      "channel": 0,
      "note": 83,
      "start": 20.9004,
      "duration": 0.1171,
      "velocity": 106,
      "chip": "ym2612"
    },
    {
      "channel": 1,
      "note": 63,
      "start": 20.9006,
      "duration": 0.117,
      "velocity": 95,
      "chip": "ym2612"
    },
    {
      "channel": 1,
      "note": 63,
      "start": 21.0178,
      "duration": 0.2331,
      "velocity": 95,
      "chip": "ym2612"
    },
    {
      "channel": 2,
      "note": 59,
      "start": 21.018,
      "duration": 0.3497,
      "velocity": 81,
      "chip": "ym2612"
    },
    {
      "channel": 3,
      "note": 66,
      "start": 21.0182,
      "duration": 0.3496,
      "velocity": 81,
      "chip": "ym2612"
    },
    {
      "channel": 4,
      "note": 102,
      "start": 21.0191,
      "duration": 0.1147,
      "velocity": 109,
      "chip": "ym2612"
    },
    {
      "channel": 5,
      "note": 24,
      "start": 21.0193,
      "duration": 0.232,
      "velocity": 101,
      "chip": "ym2612"
    },
    {
      "channel": 4,
      "note": 99,
      "start": 21.134,
      "duration": 0.1171,
      "velocity": 109,
      "chip": "ym2612"
    },
    {
      "channel": 1,
      "note": 63,
      "start": 21.251,
      "duration": 0.1165,
      "velocity": 95,
      "chip": "ym2612"
    },
    {
      "channel": 4,
      "note": 97,
      "start": 21.2513,
      "duration": 0.1167,
      "velocity": 109,
      "chip": "ym2612"
    },
    {
      "channel": 5,
      "note": 24,
      "start": 21.2515,
      "duration": 0.1167,
      "velocity": 117,
      "chip": "ym2612"
    },
    {
      "channel": 1,
      "note": 59,
      "start": 21.3677,
      "duration": 0.1159,
      "velocity": 95,
      "chip": "ym2612"
    },
    {
      "channel": 4,
      "note": 99,
      "start": 21.3681,
      "duration": 0.1157,
      "velocity": 109,
      "chip": "ym2612"
    },
    {
      "channel": 5,
      "note": 35,
      "start": 21.3684,
      "duration": 0.2334,
      "velocity": 117,
      "chip": "ym2612"
    },
    {
      "channel": 1,
      "note": 61,
      "start": 21.4837,
      "duration": 0.1171,
      "velocity": 95,
      "chip": "ym2612"
    },
    {
      "channel": 4,
      "note": 97,
      "start": 21.484,
      "duration": 0.1175,
      "velocity": 109,
      "chip": "ym2612"
    },
    {
      "channel": 1,
      "note": 63,
      "start": 21.601,
      "duration": 0.1165,
      "velocity": 95,
      "chip": "ym2612"
    },
    {
      "channel": 2,
      "note": 59,
      "start": 21.6012,
      "duration": 0.3498,
      "velocity": 81,
      "chip": "ym2612"
    },
    {
      "channel": 3,
      "note": 66,
      "start": 21.6015,
      "duration": 0.3497,
      "velocity": 81,
      "chip": "ym2612"
    },
    {
      "channel": 4,
      "note": 94,
      "start": 21.6017,
      "duration": 0.116,
      "velocity": 109,
      "chip": "ym2612"
    },
    {
      "channel": 5,
      "note": 35,
      "start": 21.6019,
      "duration": 0.116,
      "velocity": 101,
      "chip": "ym2612"
    },
    {
      "channel": 4,
      "note": 97,
      "start": 21.7178,
      "duration": 0.2334,
      "velocity": 109,
      "chip": "ym2612"
    },
    {
      "channel": 5,
      "note": 24,
      "start": 21.7181,
      "duration": 0.2334,
      "velocity": 101,
      "chip": "ym2612"
    },
    {
      "channel": 1,
      "note": 63,
      "start": 21.951,
      "duration": 0.1165,
      "velocity": 95,
      "chip": "ym2612"
    },
    {
      "channel": 4,
      "note": 99,
      "start": 21.9515,
      "duration": 0.1167,
      "velocity": 109,
      "chip": "ym2612"
    },
    {
      "channel": 5,
      "note": 24,
      "start": 21.9517,
      "duration": 0.1166,
      "velocity": 117,
      "chip": "ym2612"
    },
    {
      "channel": 1,
      "note": 59,
      "start": 22.0677,
      "duration": 0.1159,
      "velocity": 95,
      "chip": "ym2612"
    },
    {
      "channel": 2,
      "note": 59,
      "start": 22.0679,
      "duration": 0.3506,
      "velocity": 97,
      "chip": "ym2612"
    },
    {
      "channel": 3,
      "note": 66,
      "start": 22.0681,
      "duration": 0.3512,
      "velocity": 97,
      "chip": "ym2612"
    },
    {
      "channel": 5,
      "note": 35,
      "start": 22.0685,
      "duration": 0.3519,
      "velocity": 101,
      "chip": "ym2612"
    },
    {
      "channel": 1,
      "note": 61,
      "start": 22.3004,
      "duration": 0.1173,
      "velocity": 95,
      "chip": "ym2612"
    },
    {
      "channel": 0,
      "note": 85,
      "start": 22.4177,
      "duration": 0.2331,
      "velocity": 106,
      "chip": "ym2612"
    },
    {
      "channel": 1,
      "note": 61,
      "start": 22.4179,
      "duration": 0.2331,
      "velocity": 95,
      "chip": "ym2612"
    },
    {
      "channel": 4,
      "note": 61,
      "start": 22.4203,
      "duration": 0.231,
      "velocity": 81,
      "chip": "ym2612"
    },
    {
      "channel": 5,
      "note": 24,
      "start": 22.4205,
      "duration": 0.231,
      "velocity": 101,
      "chip": "ym2612"
    },
    {
      "channel": 0,
      "note": 85,
      "start": 22.6509,
      "duration": 0.1165,
      "velocity": 106,
      "chip": "ym2612"
    },
    {
      "channel": 1,
      "note": 61,
      "start": 22.6512,
      "duration": 0.1165,
      "velocity": 95,
      "chip": "ym2612"
    },
    {
      "channel": 4,
      "note": 61,
      "start": 22.6515,
      "duration": 0.1169,
      "velocity": 81,
      "chip": "ym2612"
    },
    {
      "channel": 5,
      "note": 24,
      "start": 22.6517,
      "duration": 0.1169,
      "velocity": 117,
      "chip": "ym2612"
    },
    {
      "channel": 0,
      "note": 89,
      "start": 22.7676,
      "duration": 0.2332,
      "velocity": 106,
      "chip": "ym2612"
    },
    {
      "channel": 1,
      "note": 53,
      "start": 22.7678,
      "duration": 0.2332,
      "velocity": 95,
      "chip": "ym2612"
    },
    {
      "channel": 2,
      "note": 80,
      "start": 22.7681,
      "duration": 0.1157,
      "velocity": 97,
      "chip": "ym2612"
    },
    {
      "channel": 3,
      "note": 73,
      "start": 22.7683,
      "duration": 0.1156,
      "velocity": 97,
      "chip": "ym2612"
    },
    {
      "channel": 4,
      "note": 63,
      "start": 22.7685,
      "duration": 0.2329,
      "velocity": 81,
      "chip": "ym2612"
    },
    {
      "channel": 5,
      "note": 35,
      "start": 22.7688,
      "duration": 0.2329,
      "velocity": 101,
      "chip": "ym2612"
    },
    {
      "channel": 0,
      "note": 85,
      "start": 23.001,
      "duration": 0.1159,
      "velocity": 106,
      "chip": "ym2612"
    },
    {
      "channel": 1,
      "note": 56,
      "start": 23.0012,
      "duration": 0.3498,
      "velocity": 95,
      "chip": "ym2612"
    },
    {
      "channel": 4,
      "note": 61,
      "start": 23.0017,
      "duration": 0.35,
      "velocity": 81,
      "chip": "ym2612"
    },
    {
      "channel": 5,
      "note": 24,
      "start": 23.0019,
      "duration": 0.2318,
      "velocity": 101,
      "chip": "ym2612"
    },
    {
      "channel": 0,
      "note": 89,
      "start": 23.117,
      "duration": 0.2338,
      "velocity": 106,
      "chip": "ym2612"
    },
    {
      "channel": 2,
      "note": 80,
      "start": 23.1173,
      "duration": 0.1829,
      "velocity": 97,
      "chip": "ym2612"
    },
    {
      "channel": 3,
      "note": 73,
      "start": 23.1175,
      "duration": 0.1828,
      "velocity": 97,
      "chip": "ym2612"
    },
    {
      "channel": 0,
      "note": 90,
      "start": 23.351,
      "duration": 0.1165,
      "velocity": 106,
      "chip": "ym2612"
    },
    {
      "channel": 1,
      "note": 58,
      "start": 23.3512,
      "duration": 0.1164,
      "velocity": 95,
      "chip": "ym2612"
    },
    {
      "channel": 2,
      "note": 80,
      "start": 23.3514,
      "duration": 0.1164,
      "velocity": 97,
      "chip": "ym2612"
    },
    {
      "channel": 3,
      "note": 73,
      "start": 23.3517,
      "duration": 0.1163,
      "velocity": 97,
      "chip": "ym2612"
    },
    {
      "channel": 4,
      "note": 56,
      "start": 23.3519,
      "duration": 0.1161,
      "velocity": 81,
      "chip": "ym2612"
    },
    {
      "channel": 5,
      "note": 24,
      "start": 23.3521,
      "duration": 0.1161,
      "velocity": 117,
      "chip": "ym2612"
    },
    {
      "channel": 1,
      "note": 59,
      "start": 23.4677,
      "duration": 0.2333,
      "velocity": 95,
      "chip": "ym2612"
    },
    {
      "channel": 4,
      "note": 57,
      "start": 23.4682,
      "duration": 0.2331,
      "velocity": 81,
      "chip": "ym2612"
    },
    {
      "channel": 5,
      "note": 35,
      "start": 23.4685,
      "duration": 0.1161,
      "velocity": 101,
      "chip": "ym2612"
    },
    {
      "channel": 5,
      "note": 24,
      "start": 23.5847,
      "duration": 0.1168,
      "velocity": 117,
      "chip": "ym2612"
    },
    {
      "channel": 0,
      "note": 95,
      "start": 23.701,
      "duration": 0.6998,
      "velocity": 106,
      "chip": "ym2612"
    },
    {
      "channel": 1,
      "note": 54,
      "start": 23.7012,
      "duration": 0.3496,
      "velocity": 95,
      "chip": "ym2612"
    },
    {
      "channel": 4,
      "note": 58,
      "start": 23.7015,
      "duration": 0.3496,
      "velocity": 81,
      "chip": "ym2612"
    },
    {
      "channel": 5,
      "note": 35,
      "start": 23.7017,
      "duration": 0.1163,
      "velocity": 101,
      "chip": "ym2612"
    },
    {
      "channel": 2,
      "note": 78,
      "start": 23.8177,
      "duration": 0.4659,
      "velocity": 97,
      "chip": "ym2612"
    },
    {
      "channel": 3,
      "note": 73,
      "start": 23.8179,
      "duration": 0.4658,
      "velocity": 97,
      "chip": "ym2612"
    },
    {
      "channel": 5,
      "note": 24,
      "start": 23.8182,
      "duration": 0.2332,
      "velocity": 101,
      "chip": "ym2612"
    },
    {
      "channel": 1,
      "note": 49,
      "start": 24.051,
      "duration": 0.1165,
      "velocity": 95,
      "chip": "ym2612"
    },
    {
      "channel": 4,
      "note": 58,
      "start": 24.0513,
      "duration": 0.3504,
      "velocity": 81,
      "chip": "ym2612"
    },
    {
      "channel": 5,
      "note": 24,
      "start": 24.0515,
      "duration": 0.1163,
      "velocity": 117,
      "chip": "ym2612"
    },
    {
      "channel": 1,
      "note": 51,
      "start": 24.1677,
      "duration": 0.2334,
      "velocity": 95,
      "chip": "ym2612"
    },
    {
      "channel": 5,
      "note": 35,
      "start": 24.168,
      "duration": 0.2339,
      "velocity": 101,
      "chip": "ym2612"
    },
    {
      "channel": 0,
      "note": 94,
      "start": 24.401,
      "duration": 0.1159,
      "velocity": 106,
      "chip": "ym2612"
    },
    {
      "channel": 1,
      "note": 54,
      "start": 24.4012,
      "duration": 0.3496,
      "velocity": 95,
      "chip": "ym2612"
    },
    {
      "channel": 2,
      "note": 78,
      "start": 24.4014,
      "duration": 0.1156,
      "velocity": 97,
      "chip": "ym2612"
    },
    {
      "channel": 3,
      "note": 73,
      "start": 24.4016,
      "duration": 0.1155,
      "velocity": 97,
      "chip": "ym2612"
    },
    {
      "channel": 4,
      "note": 58,
      "start": 24.4019,
      "duration": 0.3496,
      "velocity": 81,
      "chip": "ym2612"
    },
    {
      "channel": 5,
      "note": 24,
      "start": 24.4021,
      "duration": 0.2318,
      "velocity": 101,
      "chip": "ym2612"
    },
    {
      "channel": 1,
      "note": 51,
      "start": 24.751,
      "duration": 0.1165,
      "velocity": 95,
      "chip": "ym2612"
    },
    {
      "channel": 2,
      "note": 70,
      "start": 24.7512,
      "duration": 0.1165,
      "velocity": 97,
      "chip": "ym2612"
    },
    {
      "channel": 3,
      "note": 70,
      "start": 24.7515,
      "duration": 0.1165,
      "velocity": 97,
      "chip": "ym2612"
    },
    {
      "channel": 4,
      "note": 58,
      "start": 24.7517,
      "duration": 0.35,
      "velocity": 81,
      "chip": "ym2612"
    },
    {
      "channel": 5,
      "note": 35,
      "start": 24.7519,
      "duration": 0.1163,
      "velocity": 101,
      "chip": "ym2612"
    },
    {
      "channel": 1,
      "note": 49,
      "start": 24.8677,
      "duration": 0.2334,
      "velocity": 95,
      "chip": "ym2612"
    },
    {
      "channel": 2,
      "note": 71,
      "start": 24.8679,
      "duration": 0.1157,
      "velocity": 97,
      "chip": "ym2612"
    },
    {
      "channel": 3,
      "note": 71,
      "start": 24.8681,
      "duration": 0.1156,
      "velocity": 97,
      "chip": "ym2612"
    },
    {
      "channel": 5,
      "note": 24,
      "start": 24.8684,
      "duration": 0.2336,
      "velocity": 101,
      "chip": "ym2612"
    },
    {
      "channel": 0,
      "note": 85,
      "start": 25.101,
      "duration": 0.3498,
      "velocity": 106,
      "chip": "ym2612"
    },
    {
      "channel": 1,
      "note": 61,
      "start": 25.1012,
      "duration": 0.3498,
      "velocity": 95,
      "chip": "ym2612"
    },
    {
      "channel": 2,
      "note": 73,
      "start": 25.1014,
      "duration": 0.3498,
      "velocity": 97,
      "chip": "ym2612"
    },
    {
      "channel": 3,
      "note": 73,
      "start": 25.1017,
      "duration": 0.3497,
      "velocity": 97,
      "chip": "ym2612"
    },
    {
      "channel": 4,
      "note": 58,
      "start": 25.1019,
      "duration": 0.1157,
      "velocity": 81,
      "chip": "ym2612"
    },
    {
      "channel": 5,
      "note": 24,
      "start": 25.1021,
      "duration": 0.1157,
      "velocity": 101,
      "chip": "ym2612"
    },
    {
      "channel": 4,
      "note": 61,
      "start": 25.2178,
      "duration": 0.3506,
      "velocity": 81,
      "chip": "ym2612"
    },
    {
      "channel": 5,
      "note": 24,
      "start": 25.218,
      "duration": 0.2335,
      "velocity": 101,
      "chip": "ym2612"
    },
    {
      "channel": 0,
      "note": 85,
      "start": 25.4509,
      "duration": 0.1165,
      "velocity": 106,
      "chip": "ym2612"
    },
    {
      "channel": 1,
      "note": 61,
      "start": 25.4512,
      "duration": 0.1165,
      "velocity": 95,
      "chip": "ym2612"
    },
    {
      "channel": 5,
      "note": 24,
      "start": 25.4517,
      "duration": 0.1169,
      "velocity": 117,
      "chip": "ym2612"
    },
    {
      "channel": 0,
      "note": 89,
      "start": 25.5676,
      "duration": 0.2332,
      "velocity": 106,
      "chip": "ym2612"
    },
    {
      "channel": 1,
      "note": 53,
      "start": 25.5678,
      "duration": 0.2332,
      "velocity": 95,
      "chip": "ym2612"
    },
    {
      "channel": 2,
      "note": 80,
      "start": 25.5681,
      "duration": 0.1157,
      "velocity": 97,
      "chip": "ym2612"
    },
    {
      "channel": 3,
      "note": 73,
      "start": 25.5683,
      "duration": 0.1156,
      "velocity": 97,
      "chip": "ym2612"
    },
    {
      "channel": 4,
      "note": 61,
      "start": 25.5685,
      "duration": 0.2329,
      "velocity": 81,
      "chip": "ym2612"
    },
    {
      "channel": 5,
      "note": 35,
      "start": 25.5688,
      "duration": 0.2329,
      "velocity": 101,
      "chip": "ym2612"
    },
    {
      "channel": 0,
      "note": 85,
      "start": 25.801,
      "duration": 0.1167,
      "velocity": 106,
      "chip": "ym2612"
    },
    {
      "channel": 1,
      "note": 56,
      "start": 25.8012,
      "duration": 0.3498,
      "velocity": 95,
      "chip": "ym2612"
    },
    {
      "channel": 4,
      "note": 56,
      "start": 25.8017,
      "duration": 0.35,
      "velocity": 81,
      "chip": "ym2612"
    },
    {
      "channel": 5,
      "note": 24,
      "start": 25.8019,
      "duration": 0.2318,
      "velocity": 101,
      "chip": "ym2612"
    },
    {
      "channel": 0,
      "note": 90,
      "start": 25.9179,
      "duration": 0.2329,
      "velocity": 106,
      "chip": "ym2612"
    },
    {
      "channel": 2,
      "note": 80,
      "start": 25.9181,
      "duration": 0.1821,
      "velocity": 97,
      "chip": "ym2612"
    },
    {
      "channel": 3,
      "note": 73,
      "start": 25.9184,
      "duration": 0.182,
      "velocity": 97,
      "chip": "ym2612"
    },
    {
      "channel": 0,
      "note": 89,
      "start": 26.151,
      "duration": 0.1165,
      "velocity": 106,
      "chip": "ym2612"
    },
    {
      "channel": 1,
      "note": 58,
      "start": 26.1512,
      "duration": 0.1164,
      "velocity": 95,
      "chip": "ym2612"
    },
    {
      "channel": 2,
      "note": 80,
      "start": 26.1514,
      "duration": 0.1164,
      "velocity": 97,
      "chip": "ym2612"
    },
    {
      "channel": 3,
      "note": 73,
      "start": 26.1517,
      "duration": 0.1163,
      "velocity": 97,
      "chip": "ym2612"
    },
    {
      "channel": 4,
      "note": 56,
      "start": 26.1519,
      "duration": 0.1161,
      "velocity": 81,
      "chip": "ym2612"
    },
    {
      "channel": 5,
      "note": 35,
      "start": 26.1521,
      "duration": 0.1161,
      "velocity": 101,
      "chip": "ym2612"
    },
    {
      "channel": 1,
      "note": 59,
      "start": 26.2677,
      "duration": 0.2333,
      "velocity": 95,
      "chip": "ym2612"
    },
    {
      "channel": 4,
      "note": 57,
      "start": 26.2682,
      "duration": 0.2335,
      "velocity": 81,
      "chip": "ym2612"
    },
    {
      "channel": 5,
      "note": 24,
      "start": 26.2685,
      "duration": 0.2335,
      "velocity": 117,
      "chip": "ym2612"
    },
    {
      "channel": 0,
      "note": 87,
      "start": 26.501,
      "duration": 1.3998,
      "velocity": 106,
      "chip": "ym2612"
    },
    {
      "channel": 1,
      "note": 51,
      "start": 26.5012,
      "duration": 0.3496,
      "velocity": 95,
      "chip": "ym2612"
    },
    {
      "channel": 2,
      "note": 78,
      "start": 26.5014,
      "duration": 1.5163,
      "velocity": 97,
      "chip": "ym2612"
    },
    {
      "channel": 3,
      "note": 78,
      "start": 26.5017,
      "duration": 0.466,
      "velocity": 97,
      "chip": "ym2612"
    },
    {
      "channel": 4,
      "note": 58,
      "start": 26.5019,
      "duration": 0.6994,
      "velocity": 81,
      "chip": "ym2612"
    },
    {
      "channel": 5,
      "note": 35,
      "start": 26.5021,
      "duration": 0.1155,
      "velocity": 101,
      "chip": "ym2612"
    },
    {
      "channel": 5,
      "note": 24,
      "start": 26.6178,
      "duration": 0.2333,
      "velocity": 101,
      "chip": "ym2612"
    },
    {
      "channel": 1,
      "note": 53,
      "start": 26.851,
      "duration": 0.1165,
      "velocity": 95,
      "chip": "ym2612"
    },
    {
      "channel": 5,
      "note": 24,
      "start": 26.8514,
      "duration": 0.1166,
      "velocity": 117,
      "chip": "ym2612"
    },
    {
      "channel": 3,
      "note": 70,
      "start": 26.9678,
      "duration": 0.2333,
      "velocity": 97,
      "chip": "ym2612"
    },
    {
      "channel": 5,
      "note": 35,
      "start": 26.9681,
      "duration": 0.2335,
      "velocity": 101,
      "chip": "ym2612"
    },
    {
      "channel": 1,
      "note": 51,
      "start": 27.201,
      "duration": 0.3498,
      "velocity": 95,
      "chip": "ym2612"
    },
    {
      "channel": 3,
      "note": 70,
      "start": 27.2013,
      "duration": 0.1163,
      "velocity": 97,
      "chip": "ym2612"
    },
    {
      "channel": 4,
      "note": 58,
      "start": 27.2015,
      "duration": 0.3498,
      "velocity": 81,
      "chip": "ym2612"
    },
    {
      "channel": 5,
      "note": 24,
      "start": 27.2017,
      "duration": 0.116,
      "velocity": 101,
      "chip": "ym2612"
    },
    {
      "channel": 5,
      "note": 24,
      "start": 27.3179,
      "duration": 0.2336,
      "velocity": 101,
      "chip": "ym2612"
    },
    {
      "channel": 1,
      "note": 49,
      "start": 27.551,
      "duration": 0.1165,
      "velocity": 95,
      "chip": "ym2612"
    },
    {
      "channel": 3,
      "note": 70,
      "start": 27.5513,
      "duration": 0.1165,
      "velocity": 97,
      "chip": "ym2612"
    },
    {
      "channel": 4,
      "note": 58,
      "start": 27.5515,
      "duration": 0.3498,
      "velocity": 81,
      "chip": "ym2612"
    },
    {
      "channel": 5,
      "note": 24,
      "start": 27.5517,
      "duration": 0.1162,
      "velocity": 117,
      "chip": "ym2612"
    },
    {
      "channel": 1,
      "note": 47,
      "start": 27.6677,
      "duration": 0.2334,
      "velocity": 95,
      "chip": "ym2612"
    },
    {
      "channel": 5,
      "note": 35,
      "start": 27.6681,
      "duration": 0.2333,
      "velocity": 117,
      "chip": "ym2612"
    },
    {
      "channel": 0,
      "note": 85,
      "start": 27.901,
      "duration": 0.3498,
      "velocity": 106,
      "chip": "ym2612"
    },
    {
      "channel": 1,
      "note": 51,
      "start": 27.9012,
      "duration": 0.1163,
      "velocity": 95,
      "chip": "ym2612"
    },
    {
      "channel": 5,
      "note": 35,
      "start": 27.9016,
      "duration": 0.1166,
      "velocity": 101,
      "chip": "ym2612"
    },
    {
      "channel": 1,
      "note": 61,
      "start": 28.0177,
      "duration": 0.2333,
      "velocity": 95,
      "chip": "ym2612"
    },
    {
      "channel": 4,
      "note": 61,
      "start": 28.0182,
      "duration": 0.2331,
      "velocity": 81,
      "chip": "ym2612"
    },
    {
      "channel": 5,
      "note": 24,
      "start": 28.0184,
      "duration": 0.2331,
      "velocity": 101,
      "chip": "ym2612"
    },
    {
      "channel": 0,
      "note": 85,
      "start": 28.2509,
      "duration": 0.1165,
      "velocity": 106,
      "chip": "ym2612"
    },
    {
      "channel": 1,
      "note": 61,
      "start": 28.2512,
      "duration": 0.1165,
      "velocity": 95,
      "chip": "ym2612"
    },
    {
      "channel": 4,
      "note": 61,
      "start": 28.2515,
      "duration": 0.1169,
      "velocity": 81,
      "chip": "ym2612"
    },
    {
      "channel": 5,
      "note": 24,
      "start": 28.2517,
      "duration": 0.1169,
      "velocity": 117,
      "chip": "ym2612"
    },
    {
      "channel": 0,
      "note": 89,
      "start": 28.3676,
      "duration": 0.2332,
      "velocity": 106,
      "chip": "ym2612"
    },
    {
      "channel": 1,
      "note": 53,
      "start": 28.3678,
      "duration": 0.2332,
      "velocity": 95,
      "chip": "ym2612"
    },
    {
      "channel": 2,
      "note": 80,
      "start": 28.3681,
      "duration": 0.1157,
      "velocity": 97,
      "chip": "ym2612"
    },
    {
      "channel": 3,
      "note": 73,
      "start": 28.3683,
      "duration": 0.1156,
      "velocity": 97,
      "chip": "ym2612"
    },
    {
      "channel": 4,
      "note": 63,
      "start": 28.3685,
      "duration": 0.2329,
      "velocity": 81,
      "chip": "ym2612"
    },
    {
      "channel": 5,
      "note": 35,
      "start": 28.3688,
      "duration": 0.2329,
      "velocity": 101,
      "chip": "ym2612"
    },
    {
      "channel": 0,
      "note": 85,
      "start": 28.601,
      "duration": 0.1159,
      "velocity": 106,
      "chip": "ym2612"
    },
    {
      "channel": 1,
      "note": 56,
      "start": 28.6012,
      "duration": 0.3498,
      "velocity": 95,
      "chip": "ym2612"
    },
    {
      "channel": 4,
      "note": 61,
      "start": 28.6017,
      "duration": 0.35,
      "velocity": 81,
      "chip": "ym2612"
    },
    {
      "channel": 5,
      "note": 24,
      "start": 28.6019,
      "duration": 0.2318,
      "velocity": 101,
      "chip": "ym2612"
    },
    {
      "channel": 0,
      "note": 89,
      "start": 28.717,
      "duration": 0.2337,
      "velocity": 106,
      "chip": "ym2612"
    },
    {
      "channel": 2,
      "note": 80,
      "start": 28.7173,
      "duration": 0.1829,
      "velocity": 97,
      "chip": "ym2612"
    },
    {
      "channel": 3,
      "note": 73,
      "start": 28.7175,
      "duration": 0.1828,
      "velocity": 97,
      "chip": "ym2612"
    },
    {
      "channel": 0,
      "note": 90,
      "start": 28.951,
      "duration": 0.1165,
      "velocity": 106,
      "chip": "ym2612"
    },
    {
      "channel": 1,
      "note": 58,
      "start": 28.9512,
      "duration": 0.1164,
      "velocity": 95,
      "chip": "ym2612"
    },
    {
      "channel": 2,
      "note": 80,
      "start": 28.9514,
      "duration": 0.1164,
      "velocity": 97,
      "chip": "ym2612"
    },
    {
      "channel": 3,
      "note": 73,
      "start": 28.9517,
      "duration": 0.1163,
      "velocity": 97,
      "chip": "ym2612"
    },
    {
      "channel": 4,
      "note": 56,
      "start": 28.9519,
      "duration": 0.1161,
      "velocity": 81,
      "chip": "ym2612"
    },
    {
      "channel": 5,
      "note": 24,
      "start": 28.9521,
      "duration": 0.1161,
      "velocity": 117,
      "chip": "ym2612"
    },
    {
      "channel": 1,
      "note": 59,
      "start": 29.0677,
      "duration": 0.2333,
      "velocity": 95,
      "chip": "ym2612"
    },
    {
      "channel": 4,
      "note": 57,
      "start": 29.0682,
      "duration": 0.2335,
      "velocity": 81,
      "chip": "ym2612"
    },
    {
      "channel": 5,
      "note": 35,
      "start": 29.0685,
      "duration": 0.1161,
      "velocity": 101,
      "chip": "ym2612"
    },
    {
      "channel": 5,
      "note": 24,
      "start": 29.1847,
      "duration": 0.1172,
      "velocity": 117,
      "chip": "ym2612"
    },
    {
      "channel": 0,
      "note": 94,
      "start": 29.301,
      "duration": 0.3498,
      "velocity": 106,
      "chip": "ym2612"
    },
    {
      "channel": 1,
      "note": 54,
      "start": 29.3012,
      "duration": 0.3498,
      "velocity": 95,
      "chip": "ym2612"
    },
    {
      "channel": 2,
      "note": 85,
      "start": 29.3014,
      "duration": 0.3498,
      "velocity": 97,
      "chip": "ym2612"
    },
    {
      "channel": 3,
      "note": 78,
      "start": 29.3017,
      "duration": 0.6998,
      "velocity": 97,
      "chip": "ym2612"
    },
    {
      "channel": 4,
      "note": 58,
      "start": 29.3019,
      "duration": 0.3496,
      "velocity": 81,
      "chip": "ym2612"
    },
    {
      "channel": 5,
      "note": 35,
      "start": 29.3021,
      "duration": 0.1155,
      "velocity": 101,
      "chip": "ym2612"
    },
    {
      "channel": 5,
      "note": 24,
      "start": 29.4178,
      "duration": 0.2339,
      "velocity": 101,
      "chip": "ym2612"
    },
    {
      "channel": 0,
      "note": 92,
      "start": 29.651,
      "duration": 0.1165,
      "velocity": 106,
      "chip": "ym2612"
    },
    {
      "channel": 1,
      "note": 49,
      "start": 29.6512,
      "duration": 0.1165,
      "velocity": 95,
      "chip": "ym2612"
    },
    {
      "channel": 2,
      "note": 83,
      "start": 29.6514,
      "duration": 0.0822,
      "velocity": 97,
      "chip": "ym2612"
    },
    {
      "channel": 4,
      "note": 58,
      "start": 29.6517,
      "duration": 0.35,
      "velocity": 81,
      "chip": "ym2612"
    },
    {
      "channel": 5,
      "note": 24,
      "start": 29.6519,
      "duration": 0.1163,
      "velocity": 117,
      "chip": "ym2612"
    },
    {
      "channel": 0,
      "note": 90,
      "start": 29.7676,
      "duration": 0.2332,
      "velocity": 106,
      "chip": "ym2612"
    },
    {
      "channel": 1,
      "note": 51,
      "start": 29.7679,
      "duration": 0.2332,
      "velocity": 95,
      "chip": "ym2612"
    },
    {
      "channel": 2,
      "note": 82,
      "start": 29.7681,
      "duration": 0.2332,
      "velocity": 97,
      "chip": "ym2612"
    },
    {
      "channel": 5,
      "note": 35,
      "start": 29.7684,
      "duration": 0.2335,
      "velocity": 101,
      "chip": "ym2612"
    },
    {
      "channel": 0,
      "note": 89,
      "start": 30.001,
      "duration": 0.1159,
      "velocity": 106,
      "chip": "ym2612"
    },
    {
      "channel": 1,
      "note": 54,
      "start": 30.0012,
      "duration": 0.3498,
      "velocity": 95,
      "chip": "ym2612"
    },
    {
      "channel": 2,
      "note": 80,
      "start": 30.0014,
      "duration": 0.1157,
      "velocity": 97,
      "chip": "ym2612"
    },
    {
      "channel": 3,
      "note": 85,
      "start": 30.0017,
      "duration": 0.6998,
      "velocity": 97,
      "chip": "ym2612"
    },
    {
      "channel": 4,
      "note": 58,
      "start": 30.0019,
      "duration": 0.3496,
      "velocity": 81,
      "chip": "ym2612"
    },
    {
      "channel": 5,
      "note": 24,
      "start": 30.0021,
      "duration": 0.2316,
      "velocity": 101,
      "chip": "ym2612"
    },
    {
      "channel": 0,
      "note": 90,
      "start": 30.117,
      "duration": 0.2338,
      "velocity": 106,
      "chip": "ym2612"
    },
    {
      "channel": 2,
      "note": 82,
      "start": 30.1173,
      "duration": 0.2339,
      "velocity": 97,
      "chip": "ym2612"
    },
    {
      "channel": 0,
      "note": 89,
      "start": 30.351,
      "duration": 0.1159,
      "velocity": 106,
      "chip": "ym2612"
    },
    {
      "channel": 1,
      "note": 51,
      "start": 30.3512,
      "duration": 0.1158,
      "velocity": 95,
      "chip": "ym2612"
    },
    {
      "channel": 2,
      "note": 80,
      "start": 30.3514,
      "duration": 0.1158,
      "velocity": 97,
      "chip": "ym2612"
    },
    {
      "channel": 4,
      "note": 61,
      "start": 30.3517,
      "duration": 0.1156,
      "velocity": 81,
      "chip": "ym2612"
    },
    {
      "channel": 5,
      "note": 24,
      "start": 30.3519,
      "duration": 0.232,
      "velocity": 101,
      "chip": "ym2612"
    },
    {
      "channel": 1,
      "note": 49,
      "start": 30.4671,
      "duration": 0.2339,
      "velocity": 95,
      "chip": "ym2612"
    },
    {
      "channel": 4,
      "note": 58,
      "start": 30.4676,
      "duration": 0.2341,
      "velocity": 81,
      "chip": "ym2612"
    },
    {
      "channel": 0,
      "note": 88,
      "start": 30.701,
      "duration": 2.4498,
      "velocity": 106,
      "chip": "ym2612"
    },
    {
      "channel": 1,
      "note": 59,
      "start": 30.7012,
      "duration": 0.3496,
      "velocity": 95,
      "chip": "ym2612"
    },
    {
      "channel": 2,
      "note": 80,
      "start": 30.7014,
      "duration": 1.5161,
      "velocity": 97,
      "chip": "ym2612"
    },
    {
      "channel": 3,
      "note": 71,
      "start": 30.7017,
      "duration": 0.4661,
      "velocity": 97,
      "chip": "ym2612"
    },
    {
      "channel": 4,
      "note": 59,
      "start": 30.7019,
      "duration": 0.4661,
      "velocity": 81,
      "chip": "ym2612"
    },
    {
      "channel": 5,
      "note": 35,
      "start": 30.7021,
      "duration": 0.1155,
      "velocity": 101,
      "chip": "ym2612"
    },
    {
      "channel": 5,
      "note": 24,
      "start": 30.8178,
      "duration": 0.2333,
      "velocity": 101,
      "chip": "ym2612"
    },
    {
      "channel": 1,
      "note": 52,
      "start": 31.051,
      "duration": 0.1165,
      "velocity": 95,
      "chip": "ym2612"
    },
    {
      "channel": 5,
      "note": 24,
      "start": 31.0514,
      "duration": 0.1169,
      "velocity": 117,
      "chip": "ym2612"
    },
    {
      "channel": 1,
      "note": 56,
      "start": 31.1677,
      "duration": 0.2332,
      "velocity": 95,
      "chip": "ym2612"
    },
    {
      "channel": 3,
      "note": 71,
      "start": 31.1679,
      "duration": 0.2332,
      "velocity": 97,
      "chip": "ym2612"
    },
    {
      "channel": 4,
      "note": 59,
      "start": 31.1682,
      "duration": 0.349,
      "velocity": 81,
      "chip": "ym2612"
    },
    {
      "channel": 5,
      "note": 35,
      "start": 31.1684,
      "duration": 0.2328,
      "velocity": 101,
      "chip": "ym2612"
    },
    {
      "channel": 1,
      "note": 59,
      "start": 31.401,
      "duration": 0.3498,
      "velocity": 95,
      "chip": "ym2612"
    },
    {
      "channel": 5,
      "note": 24,
      "start": 31.4015,
      "duration": 0.2323,
      "velocity": 101,
      "chip": "ym2612"
    },
    {
      "channel": 3,
      "note": 75,
      "start": 31.5171,
      "duration": 0.2339,
      "velocity": 97,
      "chip": "ym2612"
    },
    {
      "channel": 4,
      "note": 59,
      "start": 31.5174,
      "duration": 0.2338,
      "velocity": 81,
      "chip": "ym2612"
    },
    {
      "channel": 1,
      "note": 61,
      "start": 31.751,
      "duration": 0.1165,
      "velocity": 95,
      "chip": "ym2612"
    },
    {
      "channel": 4,
      "note": 59,
      "start": 31.7514,
      "duration": 0.3492,
      "velocity": 81,
      "chip": "ym2612"
    },
    {
      "channel": 5,
      "note": 24,
      "start": 31.7516,
      "duration": 0.1164,
      "velocity": 117,
      "chip": "ym2612"
    },
    {
      "channel": 1,
      "note": 63,
      "start": 31.8677,
      "duration": 0.2326,
      "velocity": 95,
      "chip": "ym2612"
    },
    {
      "channel": 3,
      "note": 76,
      "start": 31.8679,
      "duration": 0.2326,
      "velocity": 97,
      "chip": "ym2612"
    },
    {
      "channel": 5,
      "note": 35,
      "start": 31.8682,
      "duration": 0.3498,
      "velocity": 101,
      "chip": "ym2612"
    },
    {
      "channel": 1,
      "note": 64,
      "start": 32.1004,
      "duration": 0.3504,
      "velocity": 95,
      "chip": "ym2612"
    },
    {
      "channel": 4,
      "note": 59,
      "start": 32.1008,
      "duration": 0.3503,
      "velocity": 81,
      "chip": "ym2612"
    },
    {
      "channel": 2,
      "note": 78,
      "start": 32.2177,
      "duration": 0.6998,
      "velocity": 97,
      "chip": "ym2612"
    },
    {
      "channel": 3,
      "note": 71,
      "start": 32.2179,
      "duration": 0.5832,
      "velocity": 97,
      "chip": "ym2612"
    },
    {
      "channel": 5,
      "note": 24,
      "start": 32.2182,
      "duration": 0.2332,
      "velocity": 101,
      "chip": "ym2612"
    },
    {
      "channel": 1,
      "note": 52,
      "start": 32.451,
      "duration": 0.1165,
      "velocity": 95,
      "chip": "ym2612"
    },
    {
      "channel": 4,
      "note": 59,
      "start": 32.4513,
      "duration": 0.35,
      "velocity": 81,
      "chip": "ym2612"
    },
    {
      "channel": 5,
      "note": 24,
      "start": 32.4515,
      "duration": 0.1163,
      "velocity": 117,
      "chip": "ym2612"
    },
    {
      "channel": 1,
      "note": 56,
      "start": 32.5677,
      "duration": 0.2332,
      "velocity": 95,
      "chip": "ym2612"
    },
    {
      "channel": 5,
      "note": 35,
      "start": 32.568,
      "duration": 0.2334,
      "velocity": 101,
      "chip": "ym2612"
    },
    {
      "channel": 1,
      "note": 59,
      "start": 32.801,
      "duration": 0.35,
      "velocity": 95,
      "chip": "ym2612"
    },
    {
      "channel": 3,
      "note": 83,
      "start": 32.8013,
      "duration": 0.1164,
      "velocity": 97,
      "chip": "ym2612"
    },
    {
      "channel": 5,
      "note": 24,
      "start": 32.8016,
      "duration": 0.1164,
      "velocity": 101,
      "chip": "ym2612"
    },
    {
      "channel": 4,
      "note": 59,
      "start": 32.918,
      "duration": 0.2337,
      "velocity": 81,
      "chip": "ym2612"
    },
    {
      "channel": 5,
      "note": 24,
      "start": 32.9182,
      "duration": 0.2337,
      "velocity": 101,
      "chip": "ym2612"
    },
    {
      "channel": 0,
      "note": 83,
      "start": 33.151,
      "duration": 0.1165,
      "velocity": 106,
      "chip": "ym2612"
    },
    {
      "channel": 1,
      "note": 61,
      "start": 33.1512,
      "duration": 0.1165,
      "velocity": 95,
      "chip": "ym2612"
    },
    {
      "channel": 2,
      "note": 80,
      "start": 33.1514,
      "duration": 0.1165,
      "velocity": 97,
      "chip": "ym2612"
    },
    {
      "channel": 3,
      "note": 71,
      "start": 33.1517,
      "duration": 0.082,
      "velocity": 97,
      "chip": "ym2612"
    },
    {
      "channel": 4,
      "note": 59,
      "start": 33.1519,
      "duration": 0.3495,
      "velocity": 81,
      "chip": "ym2612"
    },
    {
      "channel": 5,
      "note": 24,
      "start": 33.1521,
      "duration": 0.1163,
      "velocity": 117,
      "chip": "ym2612"
    },
    {
      "channel": 0,
      "note": 84,
      "start": 33.2676,
      "duration": 0.2332,
      "velocity": 106,
      "chip": "ym2612"
    },
    {
      "channel": 1,
      "note": 63,
      "start": 33.2679,
      "duration": 0.2332,
      "velocity": 95,
      "chip": "ym2612"
    },
    {
      "channel": 2,
      "note": 80,
      "start": 33.2681,
      "duration": 0.1155,
      "velocity": 97,
      "chip": "ym2612"
    },
    {
      "channel": 3,
      "note": 71,
      "start": 33.2683,
      "duration": 0.082,
      "velocity": 97,
      "chip": "ym2612"
    },
    {
      "channel": 5,
      "note": 35,
      "start": 33.2686,
      "duration": 0.2329,
      "velocity": 101,
      "chip": "ym2612"
    },
    {
      "channel": 0,
      "note": 85,
      "start": 33.501,
      "duration": 2.7998,
      "velocity": 106,
      "chip": "ym2612"
    },
    {
      "channel": 1,
      "note": 61,
      "start": 33.5012,
      "duration": 0.3496,
      "velocity": 95,
      "chip": "ym2612"
    },
    {
      "channel": 5,
      "note": 24,
      "start": 33.5017,
      "duration": 0.1172,
      "velocity": 101,
      "chip": "ym2612"
    },
    {
      "channel": 2,
      "note": 80,
      "start": 33.6177,
      "duration": 0.1825,
      "velocity": 97,
      "chip": "ym2612"
    },
    {
      "channel": 3,
      "note": 73,
      "start": 33.6179,
      "duration": 0.1824,
      "velocity": 97,
      "chip": "ym2612"
    },
    {
      "channel": 4,
      "note": 97,
      "start": 33.6188,
      "duration": 0.1148,
      "velocity": 109,
      "chip": "ym2612"
    },
    {
      "channel": 5,
      "note": 24,
      "start": 33.6191,
      "duration": 0.2322,
      "velocity": 101,
      "chip": "ym2612"
    },
    {
      "channel": 4,
      "note": 92,
      "start": 33.7339,
      "duration": 0.1173,
      "velocity": 109,
      "chip": "ym2612"
    },
    {
      "channel": 1,
      "note": 61,
      "start": 33.851,
      "duration": 0.1165,
      "velocity": 95,
      "chip": "ym2612"
    },
    {
      "channel": 4,
      "note": 89,
      "start": 33.8513,
      "duration": 0.1169,
      "velocity": 109,
      "chip": "ym2612"
    },
    {
      "channel": 5,
      "note": 24,
      "start": 33.8515,
      "duration": 0.1169,
      "velocity": 117,
      "chip": "ym2612"
    },
    {
      "channel": 1,
      "note": 53,
      "start": 33.9677,
      "duration": 0.2332,
      "velocity": 95,
      "chip": "ym2612"
    },
    {
      "channel": 2,
      "note": 80,
      "start": 33.9679,
      "duration": 0.1823,
      "velocity": 97,
      "chip": "ym2612"
    },
    {
      "channel": 3,
      "note": 73,
      "start": 33.9681,
      "duration": 0.1822,
      "velocity": 97,
      "chip": "ym2612"
    },
    {
      "channel": 4,
      "note": 85,
      "start": 33.9684,
      "duration": 0.1153,
      "velocity": 109,
      "chip": "ym2612"
    },
    {
      "channel": 5,
      "note": 35,
      "start": 33.9686,
      "duration": 0.2327,
      "velocity": 101,
      "chip": "ym2612"
    },
    {
      "channel": 4,
      "note": 89,
      "start": 34.0839,
      "duration": 0.1173,
      "velocity": 109,
      "chip": "ym2612"
    },
    {
      "channel": 1,
      "note": 56,
      "start": 34.201,
      "duration": 0.3498,
      "velocity": 95,
      "chip": "ym2612"
    },
    {
      "channel": 4,
      "note": 92,
      "start": 34.2013,
      "duration": 0.1168,
      "velocity": 109,
      "chip": "ym2612"
    },
    {
      "channel": 5,
      "note": 24,
      "start": 34.2015,
      "duration": 0.1168,
      "velocity": 101,
      "chip": "ym2612"
    },
    {
      "channel": 2,
      "note": 80,
      "start": 34.3177,
      "duration": 0.2333,
      "velocity": 97,
      "chip": "ym2612"
    },
    {
      "channel": 3,
      "note": 73,
      "start": 34.3179,
      "duration": 0.2333,
      "velocity": 97,
      "chip": "ym2612"
    },
    {
      "channel": 4,
      "note": 97,
      "start": 34.3183,
      "duration": 0.1154,
      "velocity": 109,
      "chip": "ym2612"
    },
    {
      "channel": 5,
      "note": 24,
      "start": 34.3185,
      "duration": 0.2332,
      "velocity": 101,
      "chip": "ym2612"
    },
    {
      "channel": 4,
      "note": 92,
      "start": 34.4339,
      "duration": 0.1177,
      "velocity": 109,
      "chip": "ym2612"
    },
    {
      "channel": 1,
      "note": 58,
      "start": 34.551,
      "duration": 0.1165,
      "velocity": 95,
      "chip": "ym2612"
    },
    {
      "channel": 2,
      "note": 78,
      "start": 34.5512,
      "duration": 0.0823,
      "velocity": 97,
      "chip": "ym2612"
    },
    {
      "channel": 3,
      "note": 73,
      "start": 34.5515,
      "duration": 0.1165,
      "velocity": 97,
      "chip": "ym2612"
    },
    {
      "channel": 4,
      "note": 89,
      "start": 34.5517,
      "duration": 0.1165,
      "velocity": 109,
      "chip": "ym2612"
    },
    {
      "channel": 5,
      "note": 24,
      "start": 34.5519,
      "duration": 0.1165,
      "velocity": 117,
      "chip": "ym2612"
    },
    {
      "channel": 1,
      "note": 59,
      "start": 34.6677,
      "duration": 0.2333,
      "velocity": 95,
      "chip": "ym2612"
    },
    {
      "channel": 2,
      "note": 80,
      "start": 34.6679,
      "duration": 0.2333,
      "velocity": 97,
      "chip": "ym2612"
    },
    {
      "channel": 3,
      "note": 73,
      "start": 34.6681,
      "duration": 0.2333,
      "velocity": 97,
      "chip": "ym2612"
    },
    {
      "channel": 4,
      "note": 85,
      "start": 34.6684,
      "duration": 0.1153,
      "velocity": 109,
      "chip": "ym2612"
    },
    {
      "channel": 5,
      "note": 35,
      "start": 34.6686,
      "duration": 0.2333,
      "velocity": 101,
      "chip": "ym2612"
    },
    {
      "channel": 4,
      "note": 89,
      "start": 34.7839,
      "duration": 0.1178,
      "velocity": 109,
      "chip": "ym2612"
    },
    {
      "channel": 1,
      "note": 61,
      "start": 34.9011,
      "duration": 0.3497,
      "velocity": 95,
      "chip": "ym2612"
    },
    {
      "channel": 2,
      "note": 78,
      "start": 34.9014,
      "duration": 0.0822,
      "velocity": 97,
      "chip": "ym2612"
    },
    {
      "channel": 3,
      "note": 73,
      "start": 34.9016,
      "duration": 0.0821,
      "velocity": 97,
      "chip": "ym2612"
    },
    {
      "channel": 4,
      "note": 92,
      "start": 34.9018,
      "duration": 0.1161,
      "velocity": 109,
      "chip": "ym2612"
    },
    {
      "channel": 5,
      "note": 24,
      "start": 34.9021,
      "duration": 0.1161,
      "velocity": 101,
      "chip": "ym2612"
    },
    {
      "channel": 4,
      "note": 97,
      "start": 35.0181,
      "duration": 0.1158,
      "velocity": 109,
      "chip": "ym2612"
    },
    {
      "channel": 5,
      "note": 24,
      "start": 35.0183,
      "duration": 0.2334,
      "velocity": 101,
      "chip": "ym2612"
    },
    {
      "channel": 4,
      "note": 92,
      "start": 35.134,
      "duration": 0.1175,
      "velocity": 109,
      "chip": "ym2612"
    },
    {
      "channel": 1,
      "note": 56,
      "start": 35.251,
      "duration": 0.1165,
      "velocity": 95,
      "chip": "ym2612"
    },
    {
      "channel": 2,
      "note": 80,
      "start": 35.2512,
      "duration": 0.1823,
      "velocity": 97,
      "chip": "ym2612"
    },
    {
      "channel": 3,
      "note": 77,
      "start": 35.2515,
      "duration": 0.1822,
      "velocity": 97,
      "chip": "ym2612"
    },
    {
      "channel": 4,
      "note": 89,
      "start": 35.2517,
      "duration": 0.1161,
      "velocity": 109,
      "chip": "ym2612"
    },
    {
      "channel": 5,
      "note": 24,
      "start": 35.2519,
      "duration": 0.1161,
      "velocity": 117,
      "chip": "ym2612"
    },
    {
      "channel": 1,
      "note": 61,
      "start": 35.3677,
      "duration": 0.2332,
      "velocity": 95,
      "chip": "ym2612"
    },
    {
      "channel": 4,
      "note": 85,
      "start": 35.368,
      "duration": 0.1157,
      "velocity": 109,
      "chip": "ym2612"
    },
    {
      "channel": 5,
      "note": 35,
      "start": 35.3682,
      "duration": 0.2335,
      "velocity": 101,
      "chip": "ym2612"
    },
    {
      "channel": 4,
      "note": 89,
      "start": 35.4838,
      "duration": 0.1177,
      "velocity": 109,
      "chip": "ym2612"
    },
    {
      "channel": 1,
      "note": 61,
      "start": 35.601,
      "duration": 0.3498,
      "velocity": 95,
      "chip": "ym2612"
    },
    {
      "channel": 2,
      "note": 80,
      "start": 35.6012,
      "duration": 0.1823,
      "velocity": 97,
      "chip": "ym2612"
    },
    {
      "channel": 3,
      "note": 77,
      "start": 35.6015,
      "duration": 0.1822,
      "velocity": 97,
      "chip": "ym2612"
    },
    {
      "channel": 4,
      "note": 92,
      "start": 35.6017,
      "duration": 0.116,
      "velocity": 109,
      "chip": "ym2612"
    },
    {
      "channel": 5,
      "note": 24,
      "start": 35.6019,
      "duration": 0.116,
      "velocity": 101,
      "chip": "ym2612"
    },
    {
      "channel": 4,
      "note": 97,
      "start": 35.7179,
      "duration": 0.1158,
      "velocity": 109,
      "chip": "ym2612"
    },
    {
      "channel": 5,
      "note": 24,
      "start": 35.7181,
      "duration": 0.2332,
      "velocity": 117,
      "chip": "ym2612"
    },
    {
      "channel": 4,
      "note": 92,
      "start": 35.8338,
      "duration": 0.1173,
      "velocity": 109,
      "chip": "ym2612"
    },
    {
      "channel": 1,
      "note": 59,
      "start": 35.951,
      "duration": 0.1165,
      "velocity": 95,
      "chip": "ym2612"
    },
    {
      "channel": 4,
      "note": 89,
      "start": 35.9513,
      "duration": 0.1165,
      "velocity": 109,
      "chip": "ym2612"
    },
    {
      "channel": 5,
      "note": 35,
      "start": 35.9515,
      "duration": 0.1165,
      "velocity": 117,
      "chip": "ym2612"
    },
    {
      "channel": 1,
      "note": 58,
      "start": 36.0677,
      "duration": 0.2332,
      "velocity": 95,
      "chip": "ym2612"
    },
    {
      "channel": 4,
      "note": 85,
      "start": 36.068,
      "duration": 0.1163,
      "velocity": 109,
      "chip": "ym2612"
    },
    {
      "channel": 5,
      "note": 35,
      "start": 36.0682,
      "duration": 0.1163,
      "velocity": 117,
      "chip": "ym2612"
    },
    {
      "channel": 4,
      "note": 89,
      "start": 36.1844,
      "duration": 0.1168,
      "velocity": 109,
      "chip": "ym2612"
    },
    {
      "channel": 5,
      "note": 35,
      "start": 36.1847,
      "duration": 0.1168,
      "velocity": 117,
      "chip": "ym2612"
    },
    {
      "channel": 1,
      "note": 56,
      "start": 36.3011,
      "duration": 0.1166,
      "velocity": 95,
      "chip": "ym2612"
    },
    {
      "channel": 4,
      "note": 92,
      "start": 36.3014,
      "duration": 0.118,
      "velocity": 81,
      "chip": "ym2612"
    },
    {
      "channel": 5,
      "note": 35,
      "start": 36.3016,
      "duration": 0.1179,
      "velocity": 101,
      "chip": "ym2612"
    },
    {
      "channel": 0,
      "note": 90,
      "start": 36.4176,
      "duration": 0.2332,
      "velocity": 106,
      "chip": "ym2612"
    },
    {
      "channel": 1,
      "note": 66,
      "start": 36.4179,
      "duration": 0.233,
      "velocity": 95,
      "chip": "ym2612"
    },
    {
      "channel": 2,
      "note": 82,
      "start": 36.4182,
      "duration": 0.233,
      "velocity": 97,
      "chip": "ym2612"
    },
    {
      "channel": 3,
      "note": 78,
      "start": 36.4185,
      "duration": 0.2329,
      "velocity": 97,
      "chip": "ym2612"
    },
    {
      "channel": 4,
      "note": 66,
      "start": 36.4195,
      "duration": 0.2321,
      "velocity": 81,
      "chip": "ym2612"
    },
    {
      "channel": 5,
      "note": 24,
      "start": 36.4198,
      "duration": 0.2321,
      "velocity": 101,
      "chip": "ym2612"
    },
    {
      "channel": 1,
      "note": 66,
      "start": 36.6511,
      "duration": 0.1166,
      "velocity": 95,
      "chip": "ym2612"
    },
    {
      "channel": 2,
      "note": 82,
      "start": 36.6513,
      "duration": 0.1166,
      "velocity": 97,
      "chip": "ym2612"
    },
    {
      "channel": 3,
      "note": 78,
      "start": 36.6515,
      "duration": 0.1165,
      "velocity": 97,
      "chip": "ym2612"
    },
    {
      "channel": 4,
      "note": 66,
      "start": 36.6518,
      "duration": 0.3498,
      "velocity": 81,
      "chip": "ym2612"
    },
    {
      "channel": 5,
      "note": 24,
      "start": 36.652,
      "duration": 0.1161,
      "velocity": 117,
      "chip": "ym2612"
    },
    {
      "channel": 0,
      "note": 92,
      "start": 36.7676,
      "duration": 0.1159,
      "velocity": 106,
      "chip": "ym2612"
    },
    {
      "channel": 1,
      "note": 61,
      "start": 36.7678,
      "duration": 0.1158,
      "velocity": 95,
      "chip": "ym2612"
    },
    {
      "channel": 5,
      "note": 35,
      "start": 36.7683,
      "duration": 0.2334,
      "velocity": 101,
      "chip": "ym2612"
    },
    {
      "channel": 1,
      "note": 63,
      "start": 36.8838,
      "duration": 0.1171,
      "velocity": 95,
      "chip": "ym2612"
    },
    {
      "channel": 1,
      "note": 66,
      "start": 37.0011,
      "duration": 0.1166,
      "velocity": 95,
      "chip": "ym2612"
    },
    {
      "channel": 2,
      "note": 82,
      "start": 37.0013,
      "duration": 0.1165,
      "velocity": 97,
      "chip": "ym2612"
    },
    {
      "channel": 3,
      "note": 78,
      "start": 37.0015,
      "duration": 0.1164,
      "velocity": 97,
      "chip": "ym2612"
    },
    {
      "channel": 4,
      "note": 66,
      "start": 37.0017,
      "duration": 0.3499,
      "velocity": 81,
      "chip": "ym2612"
    },
    {
      "channel": 5,
      "note": 24,
      "start": 37.002,
      "duration": 0.1161,
      "velocity": 101,
      "chip": "ym2612"
    },
    {
      "channel": 0,
      "note": 94,
      "start": 37.1176,
      "duration": 0.2332,
      "velocity": 106,
      "chip": "ym2612"
    },
    {
      "channel": 5,
      "note": 24,
      "start": 37.1183,
      "duration": 0.2337,
      "velocity": 101,
      "chip": "ym2612"
    },
    {
      "channel": 0,
      "note": 92,
      "start": 37.351,
      "duration": 0.1165,
      "velocity": 106,
      "chip": "ym2612"
    },
    {
      "channel": 1,
      "note": 66,
      "start": 37.3512,
      "duration": 0.1165,
      "velocity": 95,
      "chip": "ym2612"
    },
    {
      "channel": 2,
      "note": 85,
      "start": 37.3514,
      "duration": 0.1165,
      "velocity": 97,
      "chip": "ym2612"
    },
    {
      "channel": 3,
      "note": 78,
      "start": 37.3516,
      "duration": 0.1165,
      "velocity": 97,
      "chip": "ym2612"
    },
    {
      "channel": 4,
      "note": 68,
      "start": 37.3519,
      "duration": 0.1165,
      "velocity": 81,
      "chip": "ym2612"
    },
    {
      "channel": 5,
      "note": 24,
      "start": 37.3521,
      "duration": 0.1165,
      "velocity": 117,
      "chip": "ym2612"
    },
    {
      "channel": 0,
      "note": 90,
      "start": 37.4676,
      "duration": 0.2332,
      "velocity": 106,
      "chip": "ym2612"
    },
    {
      "channel": 1,
      "note": 61,
      "start": 37.4678,
      "duration": 0.1157,
      "velocity": 95,
      "chip": "ym2612"
    },
    {
      "channel": 2,
      "note": 82,
      "start": 37.4681,
      "duration": 0.1156,
      "velocity": 97,
      "chip": "ym2612"
    },
    {
      "channel": 3,
      "note": 78,
      "start": 37.4683,
      "duration": 0.1155,
      "velocity": 97,
      "chip": "ym2612"
    },
    {
      "channel": 4,
      "note": 66,
      "start": 37.4685,
      "duration": 0.2332,
      "velocity": 81,
      "chip": "ym2612"
    },
    {
      "channel": 5,
      "note": 35,
      "start": 37.4688,
      "duration": 0.2332,
      "velocity": 117,
      "chip": "ym2612"
    },
    {
      "channel": 0,
      "note": 89,
      "start": 37.701,
      "duration": 0.1165,
      "velocity": 106,
      "chip": "ym2612"
    },
    {
      "channel": 1,
      "note": 64,
      "start": 37.7012,
      "duration": 0.3496,
      "velocity": 95,
      "chip": "ym2612"
    },
    {
      "channel": 2,
      "note": 80,
      "start": 37.7014,
      "duration": 0.3496,
      "velocity": 97,
      "chip": "ym2612"
    },
    {
      "channel": 3,
      "note": 76,
      "start": 37.7016,
      "duration": 0.3495,
      "velocity": 97,
      "chip": "ym2612"
    },
    {
      "channel": 4,
      "note": 64,
      "start": 37.7019,
      "duration": 0.3494,
      "velocity": 81,
      "chip": "ym2612"
    },
    {
      "channel": 5,
      "note": 35,
      "start": 37.7021,
      "duration": 0.1163,
      "velocity": 101,
      "chip": "ym2612"
    },
    {
      "channel": 0,
      "note": 95,
      "start": 37.8177,
      "duration": 0.3498,
      "velocity": 106,
      "chip": "ym2612"
    },
    {
      "channel": 5,
      "note": 24,
      "start": 37.8185,
      "duration": 0.2329,
      "velocity": 101,
      "chip": "ym2612"
    },
    {
      "channel": 1,
      "note": 64,
      "start": 38.051,
      "duration": 0.1167,
      "velocity": 95,
      "chip": "ym2612"
    },
    {
      "channel": 4,
      "note": 64,
      "start": 38.0515,
      "duration": 0.3502,
      "velocity": 81,
      "chip": "ym2612"
    },
    {
      "channel": 5,
      "note": 24,
      "start": 38.0517,
      "duration": 0.1167,
      "velocity": 117,
      "chip": "ym2612"
    },
    {
      "channel": 0,
      "note": 97,
      "start": 38.1676,
      "duration": 0.2332,
      "velocity": 106,
      "chip": "ym2612"
    },
    {
      "channel": 1,
      "note": 59,
      "start": 38.1678,
      "duration": 0.1157,
      "velocity": 95,
      "chip": "ym2612"
    },
    {
      "channel": 2,
      "note": 82,
      "start": 38.1681,
      "duration": 0.2332,
      "velocity": 97,
      "chip": "ym2612"
    },
    {
      "channel": 3,
      "note": 76,
      "start": 38.1683,
      "duration": 0.2332,
      "velocity": 97,
      "chip": "ym2612"
    },
    {
      "channel": 5,
      "note": 35,
      "start": 38.1686,
      "duration": 0.2333,
      "velocity": 101,
      "chip": "ym2612"
    },
    {
      "channel": 1,
      "note": 61,
      "start": 38.2837,
      "duration": 0.1173,
      "velocity": 95,
      "chip": "ym2612"
    },
    {
      "channel": 0,
      "note": 95,
      "start": 38.401,
      "duration": 0.1165,
      "velocity": 106,
      "chip": "ym2612"
    },
    {
      "channel": 1,
      "note": 64,
      "start": 38.4012,
      "duration": 0.1164,
      "velocity": 95,
      "chip": "ym2612"
    },
    {
      "channel": 2,
      "note": 80,
      "start": 38.4014,
      "duration": 0.1163,
      "velocity": 97,
      "chip": "ym2612"
    },
    {
      "channel": 3,
      "note": 76,
      "start": 38.4017,
      "duration": 0.1161,
      "velocity": 97,
      "chip": "ym2612"
    },
    {
      "channel": 4,
      "note": 64,
      "start": 38.4019,
      "duration": 0.3498,
      "velocity": 81,
      "chip": "ym2612"
    },
    {
      "channel": 5,
      "note": 24,
      "start": 38.4021,
      "duration": 0.1159,
      "velocity": 101,
      "chip": "ym2612"
    },
    {
      "channel": 5,
      "note": 24,
      "start": 38.5181,
      "duration": 0.2337,
      "velocity": 101,
      "chip": "ym2612"
    },
    {
      "channel": 0,
      "note": 94,
      "start": 38.751,
      "duration": 0.1165,
      "velocity": 106,
      "chip": "ym2612"
    },
    {
      "channel": 1,
      "note": 64,
      "start": 38.7512,
      "duration": 0.1164,
      "velocity": 95,
      "chip": "ym2612"
    },
    {
      "channel": 2,
      "note": 83,
      "start": 38.7514,
      "duration": 0.1164,
      "velocity": 97,
      "chip": "ym2612"
    },
    {
      "channel": 3,
      "note": 76,
      "start": 38.7516,
      "duration": 0.1163,
      "velocity": 97,
      "chip": "ym2612"
    },
    {
      "channel": 5,
      "note": 24,
      "start": 38.752,
      "duration": 0.1161,
      "velocity": 117,
      "chip": "ym2612"
    },
    {
      "channel": 1,
      "note": 59,
      "start": 38.8677,
      "duration": 0.1159,
      "velocity": 95,
      "chip": "ym2612"
    },
    {
      "channel": 5,
      "note": 35,
      "start": 38.8683,
      "duration": 0.2337,
      "velocity": 117,
      "chip": "ym2612"
    },
    {
      "channel": 0,
      "note": 92,
      "start": 39.101,
      "duration": 0.1165,
      "velocity": 106,
      "chip": "ym2612"
    },
    {
      "channel": 1,
      "note": 61,
      "start": 39.1012,
      "duration": 0.1166,
      "velocity": 95,
      "chip": "ym2612"
    },
    {
      "channel": 2,
      "note": 82,
      "start": 39.1014,
      "duration": 0.3497,
      "velocity": 97,
      "chip": "ym2612"
    },
    {
      "channel": 3,
      "note": 78,
      "start": 39.1016,
      "duration": 0.2322,
      "velocity": 97,
      "chip": "ym2612"
    },
    {
      "channel": 4,
      "note": 66,
      "start": 39.1019,
      "duration": 0.4663,
      "velocity": 81,
      "chip": "ym2612"
    },
    {
      "channel": 5,
      "note": 35,
      "start": 39.1021,
      "duration": 0.1165,
      "velocity": 101,
      "chip": "ym2612"
    },
    {
      "channel": 0,
      "note": 90,
      "start": 39.2177,
      "duration": 0.2331,
      "velocity": 106,
      "chip": "ym2612"
    },
    {
      "channel": 1,
      "note": 66,
      "start": 39.2179,
      "duration": 0.233,
      "velocity": 95,
      "chip": "ym2612"
    },
    {
      "channel": 5,
      "note": 24,
      "start": 39.2188,
      "duration": 0.2329,
      "velocity": 101,
      "chip": "ym2612"
    },
    {
      "channel": 1,
      "note": 66,
      "start": 39.4511,
      "duration": 0.1166,
      "velocity": 95,
      "chip": "ym2612"
    },
    {
      "channel": 2,
      "note": 82,
      "start": 39.4513,
      "duration": 0.1166,
      "velocity": 97,
      "chip": "ym2612"
    },
    {
      "channel": 3,
      "note": 78,
      "start": 39.4515,
      "duration": 0.1165,
      "velocity": 97,
      "chip": "ym2612"
    },
    {
      "channel": 5,
      "note": 24,
      "start": 39.4518,
      "duration": 0.1166,
      "velocity": 117,
      "chip": "ym2612"
    },
    {
      "channel": 0,
      "note": 92,
      "start": 39.5676,
      "duration": 0.1159,
      "velocity": 106,
      "chip": "ym2612"
    },
    {
      "channel": 1,
      "note": 61,
      "start": 39.5678,
      "duration": 0.1158,
      "velocity": 95,
      "chip": "ym2612"
    },
    {
      "channel": 4,
      "note": 66,
      "start": 39.5683,
      "duration": 0.3496,
      "velocity": 81,
      "chip": "ym2612"
    },
    {
      "channel": 5,
      "note": 35,
      "start": 39.5685,
      "duration": 0.2331,
      "velocity": 101,
      "chip": "ym2612"
    },
    {
      "channel": 1,
      "note": 63,
      "start": 39.6838,
      "duration": 0.1171,
      "velocity": 95,
      "chip": "ym2612"
    },
    {
      "channel": 1,
      "note": 66,
      "start": 39.8011,
      "duration": 0.1166,
      "velocity": 95,
      "chip": "ym2612"
    },
    {
      "channel": 2,
      "note": 82,
      "start": 39.8013,
      "duration": 0.6999,
      "velocity": 97,
      "chip": "ym2612"
    },
    {
      "channel": 3,
      "note": 78,
      "start": 39.8015,
      "duration": 0.3506,
      "velocity": 97,
      "chip": "ym2612"
    },
    {
      "channel": 5,
      "note": 24,
      "start": 39.8018,
      "duration": 0.1163,
      "velocity": 101,
      "chip": "ym2612"
    },
    {
      "channel": 0,
      "note": 90,
      "start": 39.9176,
      "duration": 0.234,
      "velocity": 106,
      "chip": "ym2612"
    },
    {
      "channel": 4,
      "note": 66,
      "start": 39.918,
      "duration": 0.2343,
      "velocity": 81,
      "chip": "ym2612"
    },
    {
      "channel": 5,
      "note": 24,
      "start": 39.9183,
      "duration": 0.2343,
      "velocity": 101,
      "chip": "ym2612"
    },
    {
      "channel": 0,
      "note": 89,
      "start": 40.1518,
      "duration": 0.1157,
      "velocity": 106,
      "chip": "ym2612"
    },
    {
      "channel": 1,
      "note": 66,
      "start": 40.152,
      "duration": 0.1157,
      "velocity": 95,
      "chip": "ym2612"
    },
    {
      "channel": 3,
      "note": 75,
      "start": 40.1523,
      "duration": 0.1156,
      "velocity": 97,
      "chip": "ym2612"
    },
    {
      "channel": 4,
      "note": 68,
      "start": 40.1525,
      "duration": 0.1156,
      "velocity": 81,
      "chip": "ym2612"
    },
    {
      "channel": 5,
      "note": 24,
      "start": 40.1528,
      "duration": 0.1156,
      "velocity": 117,
      "chip": "ym2612"
    },
    {
      "channel": 0,
      "note": 88,
      "start": 40.2676,
      "duration": 0.2332,
      "velocity": 106,
      "chip": "ym2612"
    },
    {
      "channel": 1,
      "note": 61,
      "start": 40.2678,
      "duration": 0.1157,
      "velocity": 95,
      "chip": "ym2612"
    },
    {
      "channel": 3,
      "note": 73,
      "start": 40.2681,
      "duration": 0.1156,
      "velocity": 97,
      "chip": "ym2612"
    },
    {
      "channel": 4,
      "note": 66,
      "start": 40.2683,
      "duration": 0.3498,
      "velocity": 81,
      "chip": "ym2612"
    },
    {
      "channel": 5,
      "note": 35,
      "start": 40.2686,
      "duration": 0.2332,
      "velocity": 117,
      "chip": "ym2612"
    },
    {
      "channel": 0,
      "note": 85,
      "start": 40.501,
      "duration": 1.3998,
      "velocity": 106,
      "chip": "ym2612"
    },
    {
      "channel": 1,
      "note": 64,
      "start": 40.5012,
      "duration": 0.3496,
      "velocity": 95,
      "chip": "ym2612"
    },
    {
      "channel": 2,
      "note": 82,
      "start": 40.5014,
      "duration": 1.3998,
      "velocity": 97,
      "chip": "ym2612"
    },
    {
      "channel": 3,
      "note": 71,
      "start": 40.5017,
      "duration": 1.3997,
      "velocity": 97,
      "chip": "ym2612"
    },
    {
      "channel": 5,
      "note": 35,
      "start": 40.5019,
      "duration": 0.1165,
      "velocity": 101,
      "chip": "ym2612"
    },
    {
      "channel": 4,
      "note": 64,
      "start": 40.6183,
      "duration": 0.2328,
      "velocity": 81,
      "chip": "ym2612"
    },
    {
      "channel": 5,
      "note": 24,
      "start": 40.6186,
      "duration": 0.2328,
      "velocity": 101,
      "chip": "ym2612"
    },
    {
      "channel": 1,
      "note": 64,
      "start": 40.851,
      "duration": 0.1165,
      "velocity": 95,
      "chip": "ym2612"
    },
    {
      "channel": 4,
      "note": 64,
      "start": 40.8513,
      "duration": 0.3498,
      "velocity": 81,
      "chip": "ym2612"
    },
    {
      "channel": 5,
      "note": 24,
      "start": 40.8515,
      "duration": 0.1163,
      "velocity": 117,
      "chip": "ym2612"
    },
    {
      "channel": 1,
      "note": 59,
      "start": 40.9677,
      "duration": 0.1159,
      "velocity": 95,
      "chip": "ym2612"
    },
    {
      "channel": 5,
      "note": 35,
      "start": 40.968,
      "duration": 0.2333,
      "velocity": 101,
      "chip": "ym2612"
    },
    {
      "channel": 1,
      "note": 61,
      "start": 41.0837,
      "duration": 0.1171,
      "velocity": 95,
      "chip": "ym2612"
    },
    {
      "channel": 1,
      "note": 64,
      "start": 41.201,
      "duration": 0.1165,
      "velocity": 95,
      "chip": "ym2612"
    },
    {
      "channel": 4,
      "note": 64,
      "start": 41.2013,
      "duration": 0.3498,
      "velocity": 81,
      "chip": "ym2612"
    },
    {
      "channel": 5,
      "note": 24,
      "start": 41.2015,
      "duration": 0.1162,
      "velocity": 101,
      "chip": "ym2612"
    },
    {
      "channel": 5,
      "note": 24,
      "start": 41.3179,
      "duration": 0.2333,
      "velocity": 101,
      "chip": "ym2612"
    },
    {
      "channel": 1,
      "note": 64,
      "start": 41.551,
      "duration": 0.1165,
      "velocity": 95,
      "chip": "ym2612"
    },
    {
      "channel": 5,
      "note": 24,
      "start": 41.5514,
      "duration": 0.1164,
      "velocity": 117,
      "chip": "ym2612"
    },
    {
      "channel": 1,
      "note": 59,
      "start": 41.6677,
      "duration": 0.1159,
      "velocity": 95,
      "chip": "ym2612"
    },
    {
      "channel": 5,
      "note": 35,
      "start": 41.668,
      "duration": 0.2335,
      "velocity": 117,
      "chip": "ym2612"
    },
    {
      "channel": 0,
      "note": 90,
      "start": 41.901,
      "duration": 0.3498,
      "velocity": 106,
      "chip": "ym2612"
    },
    {
      "channel": 1,
      "note": 61,
      "start": 41.9012,
      "duration": 0.1165,
      "velocity": 95,
      "chip": "ym2612"
    },
    {
      "channel": 5,
      "note": 35,
      "start": 41.9017,
      "duration": 0.117,
      "velocity": 101,
      "chip": "ym2612"
    },
    {
      "channel": 1,
      "note": 66,
      "start": 42.0179,
      "duration": 0.2331,
      "velocity": 95,
      "chip": "ym2612"
    },
    {
      "channel": 2,
      "note": 82,
      "start": 42.0182,
      "duration": 0.2331,
      "velocity": 97,
      "chip": "ym2612"
    },
    {
      "channel": 3,
      "note": 78,
      "start": 42.0184,
      "duration": 0.2331,
      "velocity": 97,
      "chip": "ym2612"
    },
    {
      "channel": 4,
      "note": 66,
      "start": 42.0187,
      "duration": 0.233,
      "velocity": 81,
      "chip": "ym2612"
    },
    {
      "channel": 5,
      "note": 24,
      "start": 42.0189,
      "duration": 0.233,
      "velocity": 101,
      "chip": "ym2612"
    },
    {
      "channel": 0,
      "note": 90,
      "start": 42.251,
      "duration": 0.1165,
      "velocity": 106,
      "chip": "ym2612"
    },
    {
      "channel": 1,
      "note": 66,
      "start": 42.2512,
      "duration": 0.1165,
      "velocity": 95,
      "chip": "ym2612"
    },
    {
      "channel": 2,
      "note": 82,
      "start": 42.2514,
      "duration": 0.1165,
      "velocity": 97,
      "chip": "ym2612"
    },
    {
      "channel": 3,
      "note": 78,
      "start": 42.2517,
      "duration": 0.1163,
      "velocity": 97,
      "chip": "ym2612"
    },
    {
      "channel": 4,
      "note": 66,
      "start": 42.2519,
      "duration": 0.3497,
      "velocity": 81,
      "chip": "ym2612"
    },
    {
      "channel": 5,
      "note": 24,
      "start": 42.2521,
      "duration": 0.116,
      "velocity": 117,
      "chip": "ym2612"
    },
    {
      "channel": 0,
      "note": 92,
      "start": 42.3676,
      "duration": 0.1159,
      "velocity": 106,
      "chip": "ym2612"
    },
    {
      "channel": 1,
      "note": 61,
      "start": 42.3678,
      "duration": 0.1158,
      "velocity": 95,
      "chip": "ym2612"
    },
    {
      "channel": 5,
      "note": 35,
      "start": 42.3683,
      "duration": 0.2334,
      "velocity": 101,
      "chip": "ym2612"
    },
    {
      "channel": 1,
      "note": 63,
      "start": 42.4838,
      "duration": 0.1171,
      "velocity": 95,
      "chip": "ym2612"
    },
    {
      "channel": 1,
      "note": 66,
      "start": 42.6011,
      "duration": 0.1166,
      "velocity": 95,
      "chip": "ym2612"
    },
    {
      "channel": 2,
      "note": 82,
      "start": 42.6013,
      "duration": 0.1165,
      "velocity": 97,
      "chip": "ym2612"
    },
    {
      "channel": 3,
      "note": 78,
      "start": 42.6015,
      "duration": 0.1164,
      "velocity": 97,
      "chip": "ym2612"
    },
    {
      "channel": 4,
      "note": 66,
      "start": 42.6017,
      "duration": 0.3499,
      "velocity": 81,
      "chip": "ym2612"
    },
    {
      "channel": 5,
      "note": 24,
      "start": 42.602,
      "duration": 0.1161,
      "velocity": 101,
      "chip": "ym2612"
    },
    {
      "channel": 0,
      "note": 94,
      "start": 42.7176,
      "duration": 0.2332,
      "velocity": 106,
      "chip": "ym2612"
    },
    {
      "channel": 5,
      "note": 24,
      "start": 42.7183,
      "duration": 0.2337,
      "velocity": 101,
      "chip": "ym2612"
    },
    {
      "channel": 0,
      "note": 92,
      "start": 42.951,
      "duration": 0.1165,
      "velocity": 106,
      "chip": "ym2612"
    },
    {
      "channel": 1,
      "note": 66,
      "start": 42.9512,
      "duration": 0.1165,
      "velocity": 95,
      "chip": "ym2612"
    },
    {
      "channel": 2,
      "note": 85,
      "start": 42.9514,
      "duration": 0.1165,
      "velocity": 97,
      "chip": "ym2612"
    },
    {
      "channel": 3,
      "note": 78,
      "start": 42.9516,
      "duration": 0.1165,
      "velocity": 97,
      "chip": "ym2612"
    },
    {
      "channel": 4,
      "note": 68,
      "start": 42.9519,
      "duration": 0.1165,
      "velocity": 81,
      "chip": "ym2612"
    },
    {
      "channel": 5,
      "note": 24,
      "start": 42.9521,
      "duration": 0.1165,
      "velocity": 117,
      "chip": "ym2612"
    },
    {
      "channel": 0,
      "note": 90,
      "start": 43.0676,
      "duration": 0.2332,
      "velocity": 106,
      "chip": "ym2612"
    },
    {
      "channel": 1,
      "note": 61,
      "start": 43.0678,
      "duration": 0.1157,
      "velocity": 95,
      "chip": "ym2612"
    },
    {
      "channel": 2,
      "note": 82,
      "start": 43.0681,
      "duration": 0.1156,
      "velocity": 97,
      "chip": "ym2612"
    },
    {
      "channel": 3,
      "note": 78,
      "start": 43.0683,
      "duration": 0.1155,
      "velocity": 97,
      "chip": "ym2612"
    },
    {
      "channel": 4,
      "note": 66,
      "start": 43.0685,
      "duration": 0.2332,
      "velocity": 81,
      "chip": "ym2612"
    },
    {
      "channel": 5,
      "note": 35,
      "start": 43.0688,
      "duration": 0.2332,
      "velocity": 117,
      "chip": "ym2612"
    },
    {
      "channel": 0,
      "note": 89,
      "start": 43.301,
      "duration": 0.1165,
      "velocity": 106,
      "chip": "ym2612"
    },
    {
      "channel": 1,
      "note": 64,
      "start": 43.3012,
      "duration": 0.3498,
      "velocity": 95,
      "chip": "ym2612"
    },
    {
      "channel": 2,
      "note": 80,
      "start": 43.3014,
      "duration": 0.3498,
      "velocity": 97,
      "chip": "ym2612"
    },
    {
      "channel": 3,
      "note": 76,
      "start": 43.3016,
      "duration": 0.3497,
      "velocity": 97,
      "chip": "ym2612"
    },
    {
      "channel": 4,
      "note": 64,
      "start": 43.3019,
      "duration": 0.3496,
      "velocity": 81,
      "chip": "ym2612"
    },
    {
      "channel": 5,
      "note": 35,
      "start": 43.3021,
      "duration": 0.1163,
      "velocity": 101,
      "chip": "ym2612"
    },
    {
      "channel": 0,
      "note": 95,
      "start": 43.4177,
      "duration": 0.2331,
      "velocity": 106,
      "chip": "ym2612"
    },
    {
      "channel": 5,
      "note": 24,
      "start": 43.4185,
      "duration": 0.2332,
      "velocity": 101,
      "chip": "ym2612"
    },
    {
      "channel": 0,
      "note": 97,
      "start": 43.651,
      "duration": 0.1165,
      "velocity": 106,
      "chip": "ym2612"
    },
    {
      "channel": 1,
      "note": 64,
      "start": 43.6512,
      "duration": 0.1164,
      "velocity": 95,
      "chip": "ym2612"
    },
    {
      "channel": 4,
      "note": 64,
      "start": 43.6517,
      "duration": 0.35,
      "velocity": 81,
      "chip": "ym2612"
    },
    {
      "channel": 5,
      "note": 24,
      "start": 43.6519,
      "duration": 0.1164,
      "velocity": 117,
      "chip": "ym2612"
    },
    {
      "channel": 1,
      "note": 59,
      "start": 43.7677,
      "duration": 0.1159,
      "velocity": 95,
      "chip": "ym2612"
    },
    {
      "channel": 2,
      "note": 82,
      "start": 43.768,
      "duration": 0.2332,
      "velocity": 97,
      "chip": "ym2612"
    },
    {
      "channel": 3,
      "note": 76,
      "start": 43.7682,
      "duration": 0.2333,
      "velocity": 97,
      "chip": "ym2612"
    },
    {
      "channel": 5,
      "note": 35,
      "start": 43.7685,
      "duration": 0.2334,
      "velocity": 101,
      "chip": "ym2612"
    },
    {
      "channel": 1,
      "note": 61,
      "start": 43.8838,
      "duration": 0.1172,
      "velocity": 95,
      "chip": "ym2612"
    },
    {
      "channel": 0,
      "note": 95,
      "start": 44.001,
      "duration": 0.3498,
      "velocity": 106,
      "chip": "ym2612"
    },
    {
      "channel": 1,
      "note": 64,
      "start": 44.0012,
      "duration": 0.1163,
      "velocity": 95,
      "chip": "ym2612"
    },
    {
      "channel": 2,
      "note": 80,
      "start": 44.0014,
      "duration": 0.1162,
      "velocity": 97,
      "chip": "ym2612"
    },
    {
      "channel": 3,
      "note": 76,
      "start": 44.0017,
      "duration": 0.1161,
      "velocity": 97,
      "chip": "ym2612"
    },
    {
      "channel": 4,
      "note": 64,
      "start": 44.0019,
      "duration": 0.3498,
      "velocity": 81,
      "chip": "ym2612"
    },
    {
      "channel": 5,
      "note": 24,
      "start": 44.0021,
      "duration": 0.1158,
      "velocity": 101,
      "chip": "ym2612"
    },
    {
      "channel": 5,
      "note": 24,
      "start": 44.1181,
      "duration": 0.2337,
      "velocity": 101,
      "chip": "ym2612"
    },
    {
      "channel": 0,
      "note": 94,
      "start": 44.351,
      "duration": 0.1165,
      "velocity": 106,
      "chip": "ym2612"
    },
    {
      "channel": 1,
      "note": 64,
      "start": 44.3512,
      "duration": 0.1165,
      "velocity": 95,
      "chip": "ym2612"
    },
    {
      "channel": 2,
      "note": 83,
      "start": 44.3514,
      "duration": 0.1165,
      "velocity": 97,
      "chip": "ym2612"
    },
    {
      "channel": 3,
      "note": 76,
      "start": 44.3516,
      "duration": 0.1164,
      "velocity": 97,
      "chip": "ym2612"
    },
    {
      "channel": 5,
      "note": 24,
      "start": 44.352,
      "duration": 0.1162,
      "velocity": 117,
      "chip": "ym2612"
    },
    {
      "channel": 0,
      "note": 92,
      "start": 44.4676,
      "duration": 0.1159,
      "velocity": 106,
      "chip": "ym2612"
    },
    {
      "channel": 1,
      "note": 59,
      "start": 44.4678,
      "duration": 0.1158,
      "velocity": 95,
      "chip": "ym2612"
    },
    {
      "channel": 5,
      "note": 35,
      "start": 44.4683,
      "duration": 0.2336,
      "velocity": 117,
      "chip": "ym2612"
    },
    {
      "channel": 0,
      "note": 90,
      "start": 44.701,
      "duration": 0.3498,
      "velocity": 106,
      "chip": "ym2612"
    },
    {
      "channel": 1,
      "note": 61,
      "start": 44.7012,
      "duration": 0.1164,
      "velocity": 95,
      "chip": "ym2612"
    },
    {
      "channel": 2,
      "note": 82,
      "start": 44.7014,
      "duration": 0.3498,
      "velocity": 97,
      "chip": "ym2612"
    },
    {
      "channel": 3,
      "note": 78,
      "start": 44.7017,
      "duration": 0.2321,
      "velocity": 97,
      "chip": "ym2612"
    },
    {
      "channel": 4,
      "note": 66,
      "start": 44.7019,
      "duration": 0.4661,
      "velocity": 81,
      "chip": "ym2612"
    },
    {
      "channel": 5,
      "note": 35,
      "start": 44.7021,
      "duration": 0.1163,
      "velocity": 101,
      "chip": "ym2612"
    },
    {
      "channel": 1,
      "note": 66,
      "start": 44.8177,
      "duration": 0.2333,
      "velocity": 95,
      "chip": "ym2612"
    },
    {
      "channel": 5,
      "note": 24,
      "start": 44.8186,
      "duration": 0.2331,
      "velocity": 101,
      "chip": "ym2612"
    },
    {
      "channel": 0,
      "note": 92,
      "start": 45.051,
      "duration": 0.1165,
      "velocity": 106,
      "chip": "ym2612"
    },
    {
      "channel": 1,
      "note": 66,
      "start": 45.0512,
      "duration": 0.1164,
      "velocity": 95,
      "chip": "ym2612"
    },
    {
      "channel": 2,
      "note": 82,
      "start": 45.0514,
      "duration": 0.1164,
      "velocity": 97,
      "chip": "ym2612"
    },
    {
      "channel": 3,
      "note": 78,
      "start": 45.0516,
      "duration": 0.1163,
      "velocity": 97,
      "chip": "ym2612"
    },
    {
      "channel": 5,
      "note": 24,
      "start": 45.0519,
      "duration": 0.1163,
      "velocity": 117,
      "chip": "ym2612"
    },
    {
      "channel": 1,
      "note": 61,
      "start": 45.1677,
      "duration": 0.1159,
      "velocity": 95,
      "chip": "ym2612"
    },
    {
      "channel": 4,
      "note": 66,
      "start": 45.1682,
      "duration": 0.3495,
      "velocity": 81,
      "chip": "ym2612"
    },
    {
      "channel": 5,
      "note": 35,
      "start": 45.1684,
      "duration": 0.2333,
      "velocity": 101,
      "chip": "ym2612"
    },
    {
      "channel": 1,
      "note": 63,
      "start": 45.2838,
      "duration": 0.1172,
      "velocity": 95,
      "chip": "ym2612"
    },
    {
      "channel": 0,
      "note": 90,
      "start": 45.401,
      "duration": 0.3498,
      "velocity": 106,
      "chip": "ym2612"
    },
    {
      "channel": 1,
      "note": 66,
      "start": 45.4012,
      "duration": 0.1163,
      "velocity": 95,
      "chip": "ym2612"
    },
    {
      "channel": 2,
      "note": 82,
      "start": 45.4014,
      "duration": 0.6998,
      "velocity": 97,
      "chip": "ym2612"
    },
    {
      "channel": 3,
      "note": 78,
      "start": 45.4017,
      "duration": 0.3496,
      "velocity": 97,
      "chip": "ym2612"
    },
    {
      "channel": 5,
      "note": 24,
      "start": 45.4019,
      "duration": 0.116,
      "velocity": 101,
      "chip": "ym2612"
    },
    {
      "channel": 4,
      "note": 66,
      "start": 45.5179,
      "duration": 0.2336,
      "velocity": 81,
      "chip": "ym2612"
    },
    {
      "channel": 5,
      "note": 24,
      "start": 45.5181,
      "duration": 0.2337,
      "velocity": 101,
      "chip": "ym2612"
    },
    {
      "channel": 0,
      "note": 89,
      "start": 45.751,
      "duration": 0.1165,
      "velocity": 106,
      "chip": "ym2612"
    },
    {
      "channel": 1,
      "note": 66,
      "start": 45.7512,
      "duration": 0.1165,
      "velocity": 95,
      "chip": "ym2612"
    },
    {
      "channel": 3,
      "note": 75,
      "start": 45.7515,
      "duration": 0.1165,
      "velocity": 97,
      "chip": "ym2612"
    },
    {
      "channel": 4,
      "note": 68,
      "start": 45.7517,
      "duration": 0.1165,
      "velocity": 81,
      "chip": "ym2612"
    },
    {
      "channel": 5,
      "note": 24,
      "start": 45.7519,
      "duration": 0.1165,
      "velocity": 117,
      "chip": "ym2612"
    },
    {
      "channel": 0,
      "note": 88,
      "start": 45.8676,
      "duration": 0.2332,
      "velocity": 106,
      "chip": "ym2612"
    },
    {
      "channel": 1,
      "note": 61,
      "start": 45.8678,
      "duration": 0.1157,
      "velocity": 95,
      "chip": "ym2612"
    },
    {
      "channel": 3,
      "note": 73,
      "start": 45.8681,
      "duration": 0.1156,
      "velocity": 97,
      "chip": "ym2612"
    },
    {
      "channel": 4,
      "note": 66,
      "start": 45.8683,
      "duration": 0.3498,
      "velocity": 81,
      "chip": "ym2612"
    },
    {
      "channel": 5,
      "note": 35,
      "start": 45.8686,
      "duration": 0.2332,
      "velocity": 117,
      "chip": "ym2612"
    },
    {
      "channel": 0,
      "note": 85,
      "start": 46.101,
      "duration": 1.5165,
      "velocity": 106,
      "chip": "ym2612"
    },
    {
      "channel": 1,
      "note": 64,
      "start": 46.1012,
      "duration": 0.3496,
      "velocity": 95,
      "chip": "ym2612"
    },
    {
      "channel": 2,
      "note": 82,
      "start": 46.1014,
      "duration": 1.3996,
      "velocity": 97,
      "chip": "ym2612"
    },
    {
      "channel": 3,
      "note": 71,
      "start": 46.1017,
      "duration": 1.3995,
      "velocity": 97,
      "chip": "ym2612"
    },
    {
      "channel": 5,
      "note": 35,
      "start": 46.1019,
      "duration": 0.1165,
      "velocity": 101,
      "chip": "ym2612"
    },
    {
      "channel": 4,
      "note": 64,
      "start": 46.2183,
      "duration": 0.2328,
      "velocity": 81,
      "chip": "ym2612"
    },
    {
      "channel": 5,
      "note": 24,
      "start": 46.2186,
      "duration": 0.2328,
      "velocity": 101,
      "chip": "ym2612"
    },
    {
      "channel": 1,
      "note": 64,
      "start": 46.451,
      "duration": 0.1165,
      "velocity": 95,
      "chip": "ym2612"
    },
    {
      "channel": 4,
      "note": 64,
      "start": 46.4513,
      "duration": 0.3498,
      "velocity": 81,
      "chip": "ym2612"
    },
    {
      "channel": 5,
      "note": 24,
      "start": 46.4515,
      "duration": 0.1163,
      "velocity": 117,
      "chip": "ym2612"
    },
    {
      "channel": 1,
      "note": 59,
      "start": 46.5677,
      "duration": 0.1159,
      "velocity": 95,
      "chip": "ym2612"
    },
    {
      "channel": 5,
      "note": 35,
      "start": 46.568,
      "duration": 0.2333,
      "velocity": 101,
      "chip": "ym2612"
    },
    {
      "channel": 1,
      "note": 61,
      "start": 46.6837,
      "duration": 0.1171,
      "velocity": 95,
      "chip": "ym2612"
    },
    {
      "channel": 1,
      "note": 64,
      "start": 46.801,
      "duration": 0.1165,
      "velocity": 95,
      "chip": "ym2612"
    },
    {
      "channel": 4,
      "note": 64,
      "start": 46.8013,
      "duration": 0.3498,
      "velocity": 81,
      "chip": "ym2612"
    },
    {
      "channel": 5,
      "note": 24,
      "start": 46.8015,
      "duration": 0.1162,
      "velocity": 101,
      "chip": "ym2612"
    },
    {
      "channel": 5,
      "note": 24,
      "start": 46.9179,
      "duration": 0.2333,
      "velocity": 117,
      "chip": "ym2612"
    },
    {
      "channel": 1,
      "note": 64,
      "start": 47.151,
      "duration": 0.1173,
      "velocity": 95,
      "chip": "ym2612"
    },
    {
      "channel": 5,
      "note": 35,
      "start": 47.1514,
      "duration": 0.1172,
      "velocity": 117,
      "chip": "ym2612"
    },
    {
      "channel": 1,
      "note": 59,
      "start": 47.2685,
      "duration": 0.1151,
      "velocity": 95,
      "chip": "ym2612"
    },
    {
      "channel": 5,
      "note": 35,
      "start": 47.2688,
      "duration": 0.2325,
      "velocity": 117,
      "chip": "ym2612"
    },
    {
      "channel": 1,
      "note": 61,
      "start": 47.501,
      "duration": 0.1167,
      "velocity": 95,
      "chip": "ym2612"
    },
    {
      "channel": 5,
      "note": 35,
      "start": 47.5015,
      "duration": 0.1179,
      "velocity": 101,
      "chip": "ym2612"
    },
    {
      "channel": 0,
      "note": 83,
      "start": 47.6177,
      "duration": 0.2331,
      "velocity": 106,
      "chip": "ym2612"
    },
    {
      "channel": 1,
      "note": 59,
      "start": 47.6179,
      "duration": 0.2331,
      "velocity": 95,
      "chip": "ym2612"
    },
    {
      "channel": 2,
      "note": 78,
      "start": 47.6182,
      "duration": 0.2331,
      "velocity": 97,
      "chip": "ym2612"
    },
    {
      "channel": 3,
      "note": 63,
      "start": 47.619,
      "duration": 0.349,
      "velocity": 81,
      "chip": "ym2612"
    },
    {
      "channel": 4,
      "note": 104,
      "start": 47.6194,
      "duration": 0.2321,
      "velocity": 81,
      "chip": "ym2612"
    },
    {
      "channel": 5,
      "note": 24,
      "start": 47.6196,
      "duration": 0.2322,
      "velocity": 101,
      "chip": "ym2612"
    },
    {
      "channel": 0,
      "note": 85,
      "start": 47.851,
      "duration": 0.1165,
      "velocity": 106,
      "chip": "ym2612"
    },
    {
      "channel": 1,
      "note": 59,
      "start": 47.8512,
      "duration": 0.1165,
      "velocity": 95,
      "chip": "ym2612"
    },
    {
      "channel": 2,
      "note": 78,
      "start": 47.8514,
      "duration": 0.1165,
      "velocity": 97,
      "chip": "ym2612"
    },
    {
      "channel": 4,
      "note": 102,
      "start": 47.8517,
      "duration": 0.1165,
      "velocity": 81,
      "chip": "ym2612"
    },
    {
      "channel": 5,
      "note": 24,
      "start": 47.8519,
      "duration": 0.1165,
      "velocity": 117,
      "chip": "ym2612"
    },
    {
      "channel": 0,
      "note": 87,
      "start": 47.9676,
      "duration": 0.2332,
      "velocity": 106,
      "chip": "ym2612"
    },
    {
      "channel": 1,
      "note": 54,
      "start": 47.9678,
      "duration": 0.1157,
      "velocity": 95,
      "chip": "ym2612"
    },
    {
      "channel": 4,
      "note": 99,
      "start": 47.9683,
      "duration": 0.2334,
      "velocity": 81,
      "chip": "ym2612"
    },
    {
      "channel": 5,
      "note": 35,
      "start": 47.9686,
      "duration": 0.2334,
      "velocity": 117,
      "chip": "ym2612"
    },
    {
      "channel": 1,
      "note": 68,
      "start": 48.0837,
      "duration": 0.1173,
      "velocity": 95,
      "chip": "ym2612"
    },
    {
      "channel": 0,
      "note": 92,
      "start": 48.201,
      "duration": 0.3498,
      "velocity": 106,
      "chip": "ym2612"
    },
    {
      "channel": 1,
      "note": 59,
      "start": 48.2012,
      "duration": 0.1157,
      "velocity": 95,
      "chip": "ym2612"
    },
    {
      "channel": 2,
      "note": 80,
      "start": 48.2014,
      "duration": 0.3498,
      "velocity": 97,
      "chip": "ym2612"
    },
    {
      "channel": 3,
      "note": 63,
      "start": 48.2016,
      "duration": 0.1154,
      "velocity": 81,
      "chip": "ym2612"
    },
    {
      "channel": 4,
      "note": 95,
      "start": 48.2019,
      "duration": 0.3498,
      "velocity": 81,
      "chip": "ym2612"
    },
    {
      "channel": 5,
      "note": 35,
      "start": 48.2021,
      "duration": 0.3498,
      "velocity": 101,
      "chip": "ym2612"
    },
    {
      "channel": 0,
      "note": 92,
      "start": 48.551,
      "duration": 0.3492,
      "velocity": 106,
      "chip": "ym2612"
    },
    {
      "channel": 1,
      "note": 59,
      "start": 48.5512,
      "duration": 0.1163,
      "velocity": 95,
      "chip": "ym2612"
    },
    {
      "channel": 2,
      "note": 78,
      "start": 48.5514,
      "duration": 0.3491,
      "velocity": 97,
      "chip": "ym2612"
    },
    {
      "channel": 3,
      "note": 63,
      "start": 48.5516,
      "duration": 0.116,
      "velocity": 81,
      "chip": "ym2612"
    },
    {
      "channel": 4,
      "note": 99,
      "start": 48.5519,
      "duration": 0.1159,
      "velocity": 81,
      "chip": "ym2612"
    },
    {
      "channel": 5,
      "note": 24,
      "start": 48.5521,
      "duration": 0.1159,
      "velocity": 117,
      "chip": "ym2612"
    },
    {
      "channel": 4,
      "note": 102,
      "start": 48.668,
      "duration": 0.3505,
      "velocity": 81,
      "chip": "ym2612"
    },
    {
      "channel": 5,
      "note": 35,
      "start": 48.6682,
      "duration": 0.3505,
      "velocity": 101,
      "chip": "ym2612"
    },
    {
      "channel": 1,
      "note": 59,
      "start": 48.9005,
      "duration": 0.3505,
      "velocity": 95,
      "chip": "ym2612"
    },
    {
      "channel": 3,
      "note": 62,
      "start": 48.9008,
      "duration": 0.4672,
      "velocity": 81,
      "chip": "ym2612"
    },
    {
      "channel": 0,
      "note": 83,
      "start": 49.0176,
      "duration": 0.2332,
      "velocity": 106,
      "chip": "ym2612"
    },
    {
      "channel": 2,
      "note": 78,
      "start": 49.018,
      "duration": 0.2332,
      "velocity": 97,
      "chip": "ym2612"
    },
    {
      "channel": 4,
      "note": 104,
      "start": 49.0186,
      "duration": 0.2329,
      "velocity": 81,
      "chip": "ym2612"
    },
    {
      "channel": 5,
      "note": 24,
      "start": 49.0188,
      "duration": 0.2329,
      "velocity": 101,
      "chip": "ym2612"
    },
    {
      "channel": 0,
      "note": 85,
      "start": 49.251,
      "duration": 0.1165,
      "velocity": 106,
      "chip": "ym2612"
    },
    {
      "channel": 1,
      "note": 59,
      "start": 49.2512,
      "duration": 0.1165,
      "velocity": 95,
      "chip": "ym2612"
    },
    {
      "channel": 2,
      "note": 78,
      "start": 49.2514,
      "duration": 0.1165,
      "velocity": 97,
      "chip": "ym2612"
    },
    {
      "channel": 4,
      "note": 102,
      "start": 49.2517,
      "duration": 0.1165,
      "velocity": 81,
      "chip": "ym2612"
    },
    {
      "channel": 5,
      "note": 24,
      "start": 49.2519,
      "duration": 0.1165,
      "velocity": 117,
      "chip": "ym2612"
    },
    {
      "channel": 0,
      "note": 86,
      "start": 49.3676,
      "duration": 0.2332,
      "velocity": 106,
      "chip": "ym2612"
    },
    {
      "channel": 1,
      "note": 56,
      "start": 49.3678,
      "duration": 0.1157,
      "velocity": 95,
      "chip": "ym2612"
    },
    {
      "channel": 4,
      "note": 98,
      "start": 49.3683,
      "duration": 0.2334,
      "velocity": 81,
      "chip": "ym2612"
    },
    {
      "channel": 5,
      "note": 35,
      "start": 49.3686,
      "duration": 0.2334,
      "velocity": 117,
      "chip": "ym2612"
    },
    {
      "channel": 1,
      "note": 58,
      "start": 49.4837,
      "duration": 0.1173,
      "velocity": 95,
      "chip": "ym2612"
    },
    {
      "channel": 0,
      "note": 90,
      "start": 49.601,
      "duration": 0.3498,
      "velocity": 106,
      "chip": "ym2612"
    },
    {
      "channel": 1,
      "note": 59,
      "start": 49.6012,
      "duration": 0.1163,
      "velocity": 95,
      "chip": "ym2612"
    },
    {
      "channel": 2,
      "note": 80,
      "start": 49.6014,
      "duration": 0.3498,
      "velocity": 97,
      "chip": "ym2612"
    },
    {
      "channel": 3,
      "note": 62,
      "start": 49.6016,
      "duration": 0.116,
      "velocity": 81,
      "chip": "ym2612"
    },
    {
      "channel": 4,
      "note": 95,
      "start": 49.6019,
      "duration": 0.3498,
      "velocity": 81,
      "chip": "ym2612"
    },
    {
      "channel": 5,
      "note": 35,
      "start": 49.6021,
      "duration": 0.1157,
      "velocity": 101,
      "chip": "ym2612"
    },
    {
      "channel": 5,
      "note": 24,
      "start": 49.718,
      "duration": 0.2339,
      "velocity": 101,
      "chip": "ym2612"
    },
    {
      "channel": 0,
      "note": 90,
      "start": 49.951,
      "duration": 0.3492,
      "velocity": 106,
      "chip": "ym2612"
    },
    {
      "channel": 1,
      "note": 59,
      "start": 49.9512,
      "duration": 0.1163,
      "velocity": 95,
      "chip": "ym2612"
    },
    {
      "channel": 2,
      "note": 78,
      "start": 49.9514,
      "duration": 0.3491,
      "velocity": 97,
      "chip": "ym2612"
    },
    {
      "channel": 3,
      "note": 62,
      "start": 49.9516,
      "duration": 0.116,
      "velocity": 81,
      "chip": "ym2612"
    },
    {
      "channel": 4,
      "note": 98,
      "start": 49.9519,
      "duration": 0.1159,
      "velocity": 81,
      "chip": "ym2612"
    },
    {
      "channel": 5,
      "note": 24,
      "start": 49.9521,
      "duration": 0.1159,
      "velocity": 117,
      "chip": "ym2612"
    },
    {
      "channel": 4,
      "note": 102,
      "start": 50.068,
      "duration": 0.3505,
      "velocity": 81,
      "chip": "ym2612"
    },
    {
      "channel": 5,
      "note": 35,
      "start": 50.0682,
      "duration": 0.3505,
      "velocity": 101,
      "chip": "ym2612"
    },
    {
      "channel": 0,
      "note": 82,
      "start": 50.3004,
      "duration": 0.3504,
      "velocity": 106,
      "chip": "ym2612"
    },
    {
      "channel": 2,
      "note": 70,
      "start": 50.3007,
      "duration": 0.3505,
      "velocity": 97,
      "chip": "ym2612"
    },
    {
      "channel": 3,
      "note": 61,
      "start": 50.3009,
      "duration": 0.4672,
      "velocity": 81,
      "chip": "ym2612"
    },
    {
      "channel": 1,
      "note": 58,
      "start": 50.4179,
      "duration": 0.2331,
      "velocity": 95,
      "chip": "ym2612"
    },
    {
      "channel": 4,
      "note": 104,
      "start": 50.4187,
      "duration": 0.2328,
      "velocity": 81,
      "chip": "ym2612"
    },
    {
      "channel": 5,
      "note": 24,
      "start": 50.4189,
      "duration": 0.2329,
      "velocity": 101,
      "chip": "ym2612"
    },
    {
      "channel": 0,
      "note": 83,
      "start": 50.651,
      "duration": 0.1165,
      "velocity": 106,
      "chip": "ym2612"
    },
    {
      "channel": 1,
      "note": 58,
      "start": 50.6512,
      "duration": 0.1165,
      "velocity": 95,
      "chip": "ym2612"
    },
    {
      "channel": 2,
      "note": 83,
      "start": 50.6514,
      "duration": 0.1165,
      "velocity": 97,
      "chip": "ym2612"
    },
    {
      "channel": 4,
      "note": 102,
      "start": 50.6517,
      "duration": 0.1167,
      "velocity": 81,
      "chip": "ym2612"
    },
    {
      "channel": 5,
      "note": 24,
      "start": 50.6519,
      "duration": 0.1167,
      "velocity": 117,
      "chip": "ym2612"
    },
    {
      "channel": 0,
      "note": 85,
      "start": 50.7676,
      "duration": 0.2332,
      "velocity": 106,
      "chip": "ym2612"
    },
    {
      "channel": 1,
      "note": 54,
      "start": 50.7678,
      "duration": 0.1157,
      "velocity": 95,
      "chip": "ym2612"
    },
    {
      "channel": 2,
      "note": 85,
      "start": 50.7681,
      "duration": 0.2332,
      "velocity": 97,
      "chip": "ym2612"
    },
    {
      "channel": 3,
      "note": 61,
      "start": 50.7683,
      "duration": 0.3492,
      "velocity": 81,
      "chip": "ym2612"
    },
    {
      "channel": 4,
      "note": 99,
      "start": 50.7685,
      "duration": 0.1153,
      "velocity": 81,
      "chip": "ym2612"
    },
    {
      "channel": 5,
      "note": 35,
      "start": 50.7688,
      "duration": 0.2329,
      "velocity": 117,
      "chip": "ym2612"
    },
    {
      "channel": 1,
      "note": 56,
      "start": 50.8837,
      "duration": 0.1173,
      "velocity": 95,
      "chip": "ym2612"
    },
    {
      "channel": 4,
      "note": 97,
      "start": 50.884,
      "duration": 0.1175,
      "velocity": 81,
      "chip": "ym2612"
    },
    {
      "channel": 0,
      "note": 87,
      "start": 51.001,
      "duration": 0.1159,
      "velocity": 106,
      "chip": "ym2612"
    },
    {
      "channel": 1,
      "note": 58,
      "start": 51.0012,
      "duration": 0.1159,
      "velocity": 95,
      "chip": "ym2612"
    },
    {
      "channel": 2,
      "note": 87,
      "start": 51.0014,
      "duration": 0.1159,
      "velocity": 97,
      "chip": "ym2612"
    },
    {
      "channel": 4,
      "note": 94,
      "start": 51.0017,
      "duration": 0.1161,
      "velocity": 81,
      "chip": "ym2612"
    },
    {
      "channel": 5,
      "note": 35,
      "start": 51.0019,
      "duration": 0.35,
      "velocity": 101,
      "chip": "ym2612"
    },
    {
      "channel": 0,
      "note": 90,
      "start": 51.117,
      "duration": 0.2337,
      "velocity": 106,
      "chip": "ym2612"
    },
    {
      "channel": 1,
      "note": 58,
      "start": 51.1173,
      "duration": 0.2338,
      "velocity": 95,
      "chip": "ym2612"
    },
    {
      "channel": 2,
      "note": 82,
      "start": 51.1175,
      "duration": 0.2337,
      "velocity": 97,
      "chip": "ym2612"
    },
    {
      "channel": 3,
      "note": 61,
      "start": 51.1177,
      "duration": 0.2338,
      "velocity": 81,
      "chip": "ym2612"
    },
    {
      "channel": 4,
      "note": 97,
      "start": 51.118,
      "duration": 0.2337,
      "velocity": 81,
      "chip": "ym2612"
    },
    {
      "channel": 0,
      "note": 89,
      "start": 51.351,
      "duration": 0.1165,
      "velocity": 106,
      "chip": "ym2612"
    },
    {
      "channel": 1,
      "note": 58,
      "start": 51.3512,
      "duration": 0.1164,
      "velocity": 95,
      "chip": "ym2612"
    },
    {
      "channel": 2,
      "note": 80,
      "start": 51.3514,
      "duration": 0.1163,
      "velocity": 97,
      "chip": "ym2612"
    },
    {
      "channel": 3,
      "note": 61,
      "start": 51.3517,
      "duration": 0.1161,
      "velocity": 81,
      "chip": "ym2612"
    },
    {
      "channel": 4,
      "note": 99,
      "start": 51.3519,
      "duration": 0.1161,
      "velocity": 81,
      "chip": "ym2612"
    },
    {
      "channel": 5,
      "note": 24,
      "start": 51.3521,
      "duration": 0.116,
      "velocity": 117,
      "chip": "ym2612"
    },
    {
      "channel": 4,
      "note": 102,
      "start": 51.4681,
      "duration": 0.233,
      "velocity": 81,
      "chip": "ym2612"
    },
    {
      "channel": 5,
      "note": 35,
      "start": 51.4683,
      "duration": 0.35,
      "velocity": 101,
      "chip": "ym2612"
    },
    {
      "channel": 0,
      "note": 87,
      "start": 51.7004,
      "duration": 0.8171,
      "velocity": 106,
      "chip": "ym2612"
    },
    {
      "channel": 1,
      "note": 63,
      "start": 51.7006,
      "duration": 0.3502,
      "velocity": 95,
      "chip": "ym2612"
    },
    {
      "channel": 2,
      "note": 79,
      "start": 51.7008,
      "duration": 1.3997,
      "velocity": 97,
      "chip": "ym2612"
    },
    {
      "channel": 3,
      "note": 63,
      "start": 51.701,
      "duration": 1.3996,
      "velocity": 81,
      "chip": "ym2612"
    },
    {
      "channel": 4,
      "note": 103,
      "start": 51.7014,
      "duration": 0.3498,
      "velocity": 81,
      "chip": "ym2612"
    },
    {
      "channel": 5,
      "note": 24,
      "start": 51.8185,
      "duration": 0.2329,
      "velocity": 101,
      "chip": "ym2612"
    },
    {
      "channel": 1,
      "note": 61,
      "start": 52.051,
      "duration": 0.1165,
      "velocity": 95,
      "chip": "ym2612"
    },
    {
      "channel": 4,
      "note": 99,
      "start": 52.0513,
      "duration": 0.1165,
      "velocity": 81,
      "chip": "ym2612"
    },
    {
      "channel": 5,
      "note": 24,
      "start": 52.0515,
      "duration": 0.1165,
      "velocity": 117,
      "chip": "ym2612"
    },
    {
      "channel": 1,
      "note": 58,
      "start": 52.1677,
      "duration": 0.2332,
      "velocity": 95,
      "chip": "ym2612"
    },
    {
      "channel": 4,
      "note": 97,
      "start": 52.168,
      "duration": 0.2332,
      "velocity": 81,
      "chip": "ym2612"
    },
    {
      "channel": 5,
      "note": 35,
      "start": 52.1682,
      "duration": 0.2332,
      "velocity": 117,
      "chip": "ym2612"
    },
    {
      "channel": 1,
      "note": 55,
      "start": 52.401,
      "duration": 0.1167,
      "velocity": 95,
      "chip": "ym2612"
    },
    {
      "channel": 4,
      "note": 94,
      "start": 52.4013,
      "duration": 0.35,
      "velocity": 81,
      "chip": "ym2612"
    },
    {
      "channel": 5,
      "note": 35,
      "start": 52.4015,
      "duration": 0.1164,
      "velocity": 101,
      "chip": "ym2612"
    },
    {
      "channel": 0,
      "note": 82,
      "start": 52.5176,
      "duration": 0.2332,
      "velocity": 106,
      "chip": "ym2612"
    },
    {
      "channel": 5,
      "note": 24,
      "start": 52.5181,
      "duration": 0.2334,
      "velocity": 101,
      "chip": "ym2612"
    },
    {
      "channel": 0,
      "note": 85,
      "start": 52.751,
      "duration": 0.1165,
      "velocity": 106,
      "chip": "ym2612"
    },
    {
      "channel": 1,
      "note": 51,
      "start": 52.7512,
      "duration": 0.1164,
      "velocity": 95,
      "chip": "ym2612"
    },
    {
      "channel": 4,
      "note": 97,
      "start": 52.7515,
      "duration": 0.1164,
      "velocity": 81,
      "chip": "ym2612"
    },
    {
      "channel": 5,
      "note": 24,
      "start": 52.7517,
      "duration": 0.1164,
      "velocity": 117,
      "chip": "ym2612"
    },
    {
      "channel": 1,
      "note": 55,
      "start": 52.8677,
      "duration": 0.1159,
      "velocity": 95,
      "chip": "ym2612"
    },
    {
      "channel": 4,
      "note": 99,
      "start": 52.868,
      "duration": 0.351,
      "velocity": 97,
      "chip": "ym2612"
    },
    {
      "channel": 5,
      "note": 35,
      "start": 52.8683,
      "duration": 0.351,
      "velocity": 101,
      "chip": "ym2612"
    },
    {
      "channel": 0,
      "note": 83,
      "start": 53.1004,
      "duration": 0.3504,
      "velocity": 106,
      "chip": "ym2612"
    },
    {
      "channel": 1,
      "note": 59,
      "start": 53.2179,
      "duration": 0.2332,
      "velocity": 95,
      "chip": "ym2612"
    },
    {
      "channel": 2,
      "note": 78,
      "start": 53.2181,
      "duration": 0.2331,
      "velocity": 97,
      "chip": "ym2612"
    },
    {
      "channel": 3,
      "note": 59,
      "start": 53.2183,
      "duration": 0.3498,
      "velocity": 81,
      "chip": "ym2612"
    },
    {
      "channel": 4,
      "note": 75,
      "start": 53.2193,
      "duration": 0.2322,
      "velocity": 97,
      "chip": "ym2612"
    },
    {
      "channel": 5,
      "note": 24,
      "start": 53.2195,
      "duration": 0.2322,
      "velocity": 101,
      "chip": "ym2612"
    },
    {
      "channel": 0,
      "note": 83,
      "start": 53.451,
      "duration": 0.1165,
      "velocity": 106,
      "chip": "ym2612"
    },
    {
      "channel": 1,
      "note": 58,
      "start": 53.4512,
      "duration": 0.1165,
      "velocity": 95,
      "chip": "ym2612"
    },
    {
      "channel": 2,
      "note": 78,
      "start": 53.4514,
      "duration": 0.0822,
      "velocity": 97,
      "chip": "ym2612"
    },
    {
      "channel": 4,
      "note": 75,
      "start": 53.4517,
      "duration": 0.0821,
      "velocity": 97,
      "chip": "ym2612"
    },
    {
      "channel": 5,
      "note": 24,
      "start": 53.4519,
      "duration": 0.1166,
      "velocity": 117,
      "chip": "ym2612"
    },
    {
      "channel": 0,
      "note": 85,
      "start": 53.5676,
      "duration": 0.2332,
      "velocity": 106,
      "chip": "ym2612"
    },
    {
      "channel": 1,
      "note": 56,
      "start": 53.5678,
      "duration": 0.1157,
      "velocity": 95,
      "chip": "ym2612"
    },
    {
      "channel": 2,
      "note": 83,
      "start": 53.5681,
      "duration": 0.1157,
      "velocity": 97,
      "chip": "ym2612"
    },
    {
      "channel": 4,
      "note": 78,
      "start": 53.5684,
      "duration": 0.1155,
      "velocity": 97,
      "chip": "ym2612"
    },
    {
      "channel": 5,
      "note": 35,
      "start": 53.5687,
      "duration": 0.2332,
      "velocity": 117,
      "chip": "ym2612"
    },
    {
      "channel": 1,
      "note": 54,
      "start": 53.6837,
      "duration": 0.1173,
      "velocity": 95,
      "chip": "ym2612"
    },
    {
      "channel": 0,
      "note": 85,
      "start": 53.801,
      "duration": 0.1159,
      "velocity": 106,
      "chip": "ym2612"
    },
    {
      "channel": 1,
      "note": 51,
      "start": 53.8012,
      "duration": 0.1159,
      "velocity": 95,
      "chip": "ym2612"
    },
    {
      "channel": 2,
      "note": 83,
      "start": 53.8014,
      "duration": 0.1159,
      "velocity": 97,
      "chip": "ym2612"
    },
    {
      "channel": 3,
      "note": 59,
      "start": 53.8016,
      "duration": 0.3498,
      "velocity": 81,
      "chip": "ym2612"
    },
    {
      "channel": 4,
      "note": 78,
      "start": 53.8019,
      "duration": 0.1156,
      "velocity": 97,
      "chip": "ym2612"
    },
    {
      "channel": 5,
      "note": 35,
      "start": 53.8021,
      "duration": 0.3498,
      "velocity": 101,
      "chip": "ym2612"
    },
    {
      "channel": 0,
      "note": 87,
      "start": 53.917,
      "duration": 0.2338,
      "velocity": 106,
      "chip": "ym2612"
    },
    {
      "channel": 1,
      "note": 54,
      "start": 53.9173,
      "duration": 0.2338,
      "velocity": 95,
      "chip": "ym2612"
    },
    {
      "channel": 0,
      "note": 87,
      "start": 54.151,
      "duration": 0.1165,
      "velocity": 106,
      "chip": "ym2612"
    },
    {
      "channel": 1,
      "note": 56,
      "start": 54.1512,
      "duration": 0.1165,
      "velocity": 95,
      "chip": "ym2612"
    },
    {
      "channel": 2,
      "note": 87,
      "start": 54.1514,
      "duration": 0.2988,
      "velocity": 97,
      "chip": "ym2612"
    },
    {
      "channel": 3,
      "note": 63,
      "start": 54.1516,
      "duration": 0.3498,
      "velocity": 81,
      "chip": "ym2612"
    },
    {
      "channel": 4,
      "note": 83,
      "start": 54.1519,
      "duration": 0.2985,
      "velocity": 97,
      "chip": "ym2612"
    },
    {
      "channel": 5,
      "note": 24,
      "start": 54.1521,
      "duration": 0.1159,
      "velocity": 117,
      "chip": "ym2612"
    },
    {
      "channel": 0,
      "note": 88,
      "start": 54.2676,
      "duration": 0.2332,
      "velocity": 106,
      "chip": "ym2612"
    },
    {
      "channel": 1,
      "note": 58,
      "start": 54.2678,
      "duration": 0.2332,
      "velocity": 95,
      "chip": "ym2612"
    },
    {
      "channel": 5,
      "note": 35,
      "start": 54.2682,
      "duration": 0.2337,
      "velocity": 101,
      "chip": "ym2612"
    },
    {
      "channel": 0,
      "note": 88,
      "start": 54.501,
      "duration": 0.1165,
      "velocity": 106,
      "chip": "ym2612"
    },
    {
      "channel": 1,
      "note": 63,
      "start": 54.5012,
      "duration": 0.1165,
      "velocity": 95,
      "chip": "ym2612"
    },
    {
      "channel": 2,
      "note": 87,
      "start": 54.5014,
      "duration": 0.0822,
      "velocity": 97,
      "chip": "ym2612"
    },
    {
      "channel": 3,
      "note": 59,
      "start": 54.5017,
      "duration": 0.1165,
      "velocity": 81,
      "chip": "ym2612"
    },
    {
      "channel": 4,
      "note": 83,
      "start": 54.5019,
      "duration": 0.0819,
      "velocity": 97,
      "chip": "ym2612"
    },
    {
      "channel": 5,
      "note": 24,
      "start": 54.5021,
      "duration": 0.1165,
      "velocity": 117,
      "chip": "ym2612"
    },
    {
      "channel": 0,
      "note": 89,
      "start": 54.6176,
      "duration": 0.1159,
      "velocity": 106,
      "chip": "ym2612"
    },
    {
      "channel": 1,
      "note": 61,
      "start": 54.6178,
      "duration": 0.1158,
      "velocity": 95,
      "chip": "ym2612"
    },
    {
      "channel": 2,
      "note": 85,
      "start": 54.6181,
      "duration": 0.1822,
      "velocity": 97,
      "chip": "ym2612"
    },
    {
      "channel": 3,
      "note": 61,
      "start": 54.6183,
      "duration": 0.1653,
      "velocity": 81,
      "chip": "ym2612"
    },
    {
      "channel": 4,
      "note": 89,
      "start": 54.6185,
      "duration": 0.1818,
      "velocity": 97,
      "chip": "ym2612"
    },
    {
      "channel": 5,
      "note": 35,
      "start": 54.6188,
      "duration": 0.3498,
      "velocity": 117,
      "chip": "ym2612"
    },
    {
      "channel": 0,
      "note": 89,
      "start": 54.9676,
      "duration": 0.1159,
      "velocity": 106,
      "chip": "ym2612"
    },
    {
      "channel": 1,
      "note": 61,
      "start": 54.9678,
      "duration": 0.1158,
      "velocity": 95,
      "chip": "ym2612"
    },
    {
      "channel": 2,
      "note": 85,
      "start": 54.9681,
      "duration": 0.1822,
      "velocity": 97,
      "chip": "ym2612"
    },
    {
      "channel": 3,
      "note": 61,
      "start": 54.9683,
      "duration": 0.1653,
      "velocity": 81,
      "chip": "ym2612"
    },
    {
      "channel": 4,
      "note": 89,
      "start": 54.9685,
      "duration": 0.1818,
      "velocity": 97,
      "chip": "ym2612"
    },
    {
      "channel": 5,
      "note": 35,
      "start": 54.9688,
      "duration": 0.6149,
      "velocity": 117,
      "chip": "ym2612"
    },
    {
      "channel": 0,
      "note": 89,
      "start": 55.317,
      "duration": 0.2331,
      "velocity": 106,
      "chip": "ym2612"
    },
    {
      "channel": 0,
      "note": 92,
      "start": 55.5503,
      "duration": 0.1165,
      "velocity": 106,
      "chip": "ym2612"
    },
    {
      "channel": 1,
      "note": 61,
      "start": 55.5506,
      "duration": 0.1165,
      "velocity": 95,
      "chip": "ym2612"
    },
    {
      "channel": 0,
      "note": 89,
      "start": 55.667,
      "duration": 0.2332,
      "velocity": 106,
      "chip": "ym2612"
    },
    {
      "channel": 1,
      "note": 56,
      "start": 55.6672,
      "duration": 0.1163,
      "velocity": 95,
      "chip": "ym2612"
    },
    {
      "channel": 1,
      "note": 54,
      "start": 55.7837,
      "duration": 0.1167,
      "velocity": 95,
      "chip": "ym2612"
    },
    {
      "channel": 0,
      "note": 90,
      "start": 55.9003,
      "duration": 2.9177,
      "velocity": 81,
      "chip": "ym2612"
    },
    {
      "channel": 1,
      "note": 49,
      "start": 55.9006,
      "duration": 0.1171,
      "velocity": 95,
      "chip": "ym2612"
    },
    {
      "channel": 1,
      "note": 54,
      "start": 56.0178,
      "duration": 0.233,
      "velocity": 95,
      "chip": "ym2612"
    },
    {
      "channel": 3,
      "note": 58,
      "start": 56.0182,
      "duration": 0.2329,
      "velocity": 81,
      "chip": "ym2612"
    },
    {
      "channel": 5,
      "note": 24,
      "start": 56.0193,
      "duration": 0.2321,
      "velocity": 101,
      "chip": "ym2612"
    },
    {
      "channel": 1,
      "note": 54,
      "start": 56.251,
      "duration": 0.1159,
      "velocity": 95,
      "chip": "ym2612"
    },
    {
      "channel": 3,
      "note": 61,
      "start": 56.2513,
      "duration": 0.3498,
      "velocity": 81,
      "chip": "ym2612"
    },
    {
      "channel": 5,
      "note": 24,
      "start": 56.2515,
      "duration": 0.2324,
      "velocity": 101,
      "chip": "ym2612"
    },
    {
      "channel": 1,
      "note": 49,
      "start": 56.3671,
      "duration": 0.1165,
      "velocity": 95,
      "chip": "ym2612"
    },
    {
      "channel": 1,
      "note": 51,
      "start": 56.4837,
      "duration": 0.1171,
      "velocity": 95,
      "chip": "ym2612"
    },
    {
      "channel": 1,
      "note": 54,
      "start": 56.601,
      "duration": 0.1159,
      "velocity": 95,
      "chip": "ym2612"
    },
    {
      "channel": 3,
      "note": 61,
      "start": 56.6012,
      "duration": 0.3498,
      "velocity": 81,
      "chip": "ym2612"
    },
    {
      "channel": 5,
      "note": 35,
      "start": 56.6015,
      "duration": 0.3498,
      "velocity": 101,
      "chip": "ym2612"
    },
    {
      "channel": 1,
      "note": 54,
      "start": 56.951,
      "duration": 0.1165,
      "velocity": 95,
      "chip": "ym2612"
    },
    {
      "channel": 3,
      "note": 63,
      "start": 56.9512,
      "duration": 0.3492,
      "velocity": 81,
      "chip": "ym2612"
    },
    {
      "channel": 5,
      "note": 24,
      "start": 56.9515,
      "duration": 0.1163,
      "velocity": 117,
      "chip": "ym2612"
    },
    {
      "channel": 1,
      "note": 49,
      "start": 57.0677,
      "duration": 0.1159,
      "velocity": 95,
      "chip": "ym2612"
    },
    {
      "channel": 5,
      "note": 35,
      "start": 57.068,
      "duration": 0.3503,
      "velocity": 101,
      "chip": "ym2612"
    },
    {
      "channel": 1,
      "note": 49,
      "start": 57.3004,
      "duration": 0.1172,
      "velocity": 95,
      "chip": "ym2612"
    },
    {
      "channel": 3,
      "note": 58,
      "start": 57.3007,
      "duration": 0.1173,
      "velocity": 81,
      "chip": "ym2612"
    },
    {
      "channel": 1,
      "note": 54,
      "start": 57.4178,
      "duration": 0.233,
      "velocity": 95,
      "chip": "ym2612"
    },
    {
      "channel": 3,
      "note": 58,
      "start": 57.4181,
      "duration": 0.2329,
      "velocity": 81,
      "chip": "ym2612"
    },
    {
      "channel": 5,
      "note": 24,
      "start": 57.4185,
      "duration": 0.2328,
      "velocity": 101,
      "chip": "ym2612"
    },
    {
      "channel": 1,
      "note": 54,
      "start": 57.651,
      "duration": 0.1159,
      "velocity": 95,
      "chip": "ym2612"
    },
    {
      "channel": 3,
      "note": 61,
      "start": 57.6513,
      "duration": 0.3498,
      "velocity": 81,
      "chip": "ym2612"
    },
    {
      "channel": 5,
      "note": 24,
      "start": 57.6515,
      "duration": 0.2324,
      "velocity": 101,
      "chip": "ym2612"
    },
    {
      "channel": 1,
      "note": 49,
      "start": 57.7671,
      "duration": 0.1165,
      "velocity": 95,
      "chip": "ym2612"
    },
    {
      "channel": 1,
      "note": 51,
      "start": 57.8837,
      "duration": 0.1171,
      "velocity": 95,
      "chip": "ym2612"
    },
    {
      "channel": 1,
      "note": 54,
      "start": 58.001,
      "duration": 0.1159,
      "velocity": 95,
      "chip": "ym2612"
    },
    {
      "channel": 3,
      "note": 61,
      "start": 58.0012,
      "duration": 0.3498,
      "velocity": 81,
      "chip": "ym2612"
    },
    {
      "channel": 5,
      "note": 35,
      "start": 58.0015,
      "duration": 0.3497,
      "velocity": 117,
      "chip": "ym2612"
    },
    {
      "channel": 1,
      "note": 54,
      "start": 58.351,
      "duration": 0.1165,
      "velocity": 95,
      "chip": "ym2612"
    },
    {
      "channel": 5,
      "note": 35,
      "start": 58.3514,
      "duration": 0.1164,
      "velocity": 117,
      "chip": "ym2612"
    },
    {
      "channel": 1,
      "note": 49,
      "start": 58.4677,
      "duration": 0.1159,
      "velocity": 95,
      "chip": "ym2612"
    },
    {
      "channel": 5,
      "note": 35,
      "start": 58.468,
      "duration": 0.2331,
      "velocity": 117,
      "chip": "ym2612"
    },
    {
      "channel": 1,
      "note": 49,
      "start": 58.701,
      "duration": 0.1173,
      "velocity": 95,
      "chip": "ym2612"
    },
    {
      "channel": 5,
      "note": 35,
      "start": 58.7013,
      "duration": 0.1186,
      "velocity": 101,
      "chip": "ym2612"
    },
    {
      "channel": 0,
      "note": 61,
      "start": 58.8182,
      "duration": 0.6986,
      "velocity": 81,
      "chip": "ym2612"
    },
    {
      "channel": 1,
      "note": 66,
      "start": 58.8184,
      "duration": 0.2324,
      "velocity": 95,
      "chip": "ym2612"
    },
    {
      "channel": 2,
      "note": 78,
      "start": 58.8187,
      "duration": 0.2323,
      "velocity": 97,
      "chip": "ym2612"
    },
    {
      "channel": 3,
      "note": 73,
      "start": 58.8197,
      "duration": 0.2316,
      "velocity": 97,
      "chip": "ym2612"
    },
    {
      "channel": 4,
      "note": 102,
      "start": 58.8199,
      "duration": 0.1139,
      "velocity": 109,
      "chip": "ym2612"
    },
    {
      "channel": 5,
      "note": 24,
      "start": 58.8201,
      "duration": 0.2316,
      "velocity": 101,
      "chip": "ym2612"
    },
    {
      "channel": 4,
      "note": 101,
      "start": 58.934,
      "duration": 0.1175,
      "velocity": 109,
      "chip": "ym2612"
    },
    {
      "channel": 1,
      "note": 66,
      "start": 59.051,
      "duration": 0.1165,
      "velocity": 95,
      "chip": "ym2612"
    },
    {
      "channel": 2,
      "note": 78,
      "start": 59.0512,
      "duration": 0.4659,
      "velocity": 97,
      "chip": "ym2612"
    },
    {
      "channel": 3,
      "note": 78,
      "start": 59.0515,
      "duration": 0.4659,
      "velocity": 97,
      "chip": "ym2612"
    },
    {
      "channel": 4,
      "note": 97,
      "start": 59.0517,
      "duration": 0.1161,
      "velocity": 109,
      "chip": "ym2612"
    },
    {
      "channel": 5,
      "note": 24,
      "start": 59.0519,
      "duration": 0.1161,
      "velocity": 117,
      "chip": "ym2612"
    },
    {
      "channel": 1,
      "note": 61,
      "start": 59.1677,
      "duration": 0.1159,
      "velocity": 95,
      "chip": "ym2612"
    },
    {
      "channel": 4,
      "note": 102,
      "start": 59.168,
      "duration": 0.1159,
      "velocity": 109,
      "chip": "ym2612"
    },
    {
      "channel": 5,
      "note": 35,
      "start": 59.1682,
      "duration": 0.2331,
      "velocity": 117,
      "chip": "ym2612"
    },
    {
      "channel": 1,
      "note": 63,
      "start": 59.2837,
      "duration": 0.1171,
      "velocity": 95,
      "chip": "ym2612"
    },
    {
      "channel": 4,
      "note": 101,
      "start": 59.284,
      "duration": 0.1171,
      "velocity": 109,
      "chip": "ym2612"
    },
    {
      "channel": 1,
      "note": 66,
      "start": 59.401,
      "duration": 0.116,
      "velocity": 95,
      "chip": "ym2612"
    },
    {
      "channel": 4,
      "note": 97,
      "start": 59.4013,
      "duration": 0.1163,
      "velocity": 109,
      "chip": "ym2612"
    },
    {
      "channel": 5,
      "note": 35,
      "start": 59.4015,
      "duration": 0.3502,
      "velocity": 101,
      "chip": "ym2612"
    },
    {
      "channel": 2,
      "note": 78,
      "start": 59.5173,
      "duration": 0.2339,
      "velocity": 97,
      "chip": "ym2612"
    },
    {
      "channel": 3,
      "note": 73,
      "start": 59.5175,
      "duration": 0.2339,
      "velocity": 97,
      "chip": "ym2612"
    },
    {
      "channel": 4,
      "note": 102,
      "start": 59.5178,
      "duration": 0.1161,
      "velocity": 109,
      "chip": "ym2612"
    },
    {
      "channel": 4,
      "note": 101,
      "start": 59.634,
      "duration": 0.1175,
      "velocity": 109,
      "chip": "ym2612"
    },
    {
      "channel": 0,
      "note": 61,
      "start": 59.751,
      "duration": 0.1165,
      "velocity": 81,
      "chip": "ym2612"
    },
    {
      "channel": 1,
      "note": 66,
      "start": 59.7512,
      "duration": 0.1164,
      "velocity": 95,
      "chip": "ym2612"
    },
    {
      "channel": 4,
      "note": 97,
      "start": 59.7517,
      "duration": 0.1166,
      "velocity": 109,
      "chip": "ym2612"
    },
    {
      "channel": 5,
      "note": 24,
      "start": 59.7519,
      "duration": 0.1166,
      "velocity": 117,
      "chip": "ym2612"
    },
    {
      "channel": 1,
      "note": 61,
      "start": 59.8677,
      "duration": 0.1159,
      "velocity": 95,
      "chip": "ym2612"
    },
    {
      "channel": 2,
      "note": 78,
      "start": 59.868,
      "duration": 0.2327,
      "velocity": 97,
      "chip": "ym2612"
    },
    {
      "channel": 3,
      "note": 74,
      "start": 59.8682,
      "duration": 0.2327,
      "velocity": 97,
      "chip": "ym2612"
    },
    {
      "channel": 4,
      "note": 102,
      "start": 59.8685,
      "duration": 0.1154,
      "velocity": 109,
      "chip": "ym2612"
    },
    {
      "channel": 5,
      "note": 35,
      "start": 59.8687,
      "duration": 0.3495,
      "velocity": 101,
      "chip": "ym2612"
    },
    {
      "channel": 4,
      "note": 101,
      "start": 59.984,
      "duration": 0.1171,
      "velocity": 109,
      "chip": "ym2612"
    },
    {
      "channel": 0,
      "note": 63,
      "start": 60.1004,
      "duration": 0.8171,
      "velocity": 81,
      "chip": "ym2612"
    },
    {
      "channel": 1,
      "note": 61,
      "start": 60.1006,
      "duration": 0.1171,
      "velocity": 95,
      "chip": "ym2612"
    },
    {
      "channel": 2,
      "note": 78,
      "start": 60.1008,
      "duration": 0.3502,
      "velocity": 97,
      "chip": "ym2612"
    },
    {
      "channel": 3,
      "note": 75,
      "start": 60.101,
      "duration": 0.3502,
      "velocity": 97,
      "chip": "ym2612"
    },
    {
      "channel": 4,
      "note": 97,
      "start": 60.1013,
      "duration": 0.1167,
      "velocity": 109,
      "chip": "ym2612"
    },
    {
      "channel": 1,
      "note": 66,
      "start": 60.2178,
      "duration": 0.233,
      "velocity": 95,
      "chip": "ym2612"
    },
    {
      "channel": 4,
      "note": 102,
      "start": 60.2182,
      "duration": 0.1157,
      "velocity": 109,
      "chip": "ym2612"
    },
    {
      "channel": 5,
      "note": 24,
      "start": 60.2184,
      "duration": 0.2333,
      "velocity": 101,
      "chip": "ym2612"
    },
    {
      "channel": 4,
      "note": 101,
      "start": 60.334,
      "duration": 0.1175,
      "velocity": 109,
      "chip": "ym2612"
    },
    {
      "channel": 1,
      "note": 66,
      "start": 60.451,
      "duration": 0.1165,
      "velocity": 95,
      "chip": "ym2612"
    },
    {
      "channel": 2,
      "note": 78,
      "start": 60.4512,
      "duration": 0.1165,
      "velocity": 97,
      "chip": "ym2612"
    },
    {
      "channel": 3,
      "note": 75,
      "start": 60.4515,
      "duration": 0.1165,
      "velocity": 97,
      "chip": "ym2612"
    },
    {
      "channel": 4,
      "note": 99,
      "start": 60.4517,
      "duration": 0.1165,
      "velocity": 109,
      "chip": "ym2612"
    },
    {
      "channel": 5,
      "note": 24,
      "start": 60.4519,
      "duration": 0.1165,
      "velocity": 117,
      "chip": "ym2612"
    },
    {
      "channel": 1,
      "note": 61,
      "start": 60.5677,
      "duration": 0.1159,
      "velocity": 95,
      "chip": "ym2612"
    },
    {
      "channel": 2,
      "note": 78,
      "start": 60.5679,
      "duration": 0.2332,
      "velocity": 97,
      "chip": "ym2612"
    },
    {
      "channel": 3,
      "note": 70,
      "start": 60.5681,
      "duration": 0.2332,
      "velocity": 97,
      "chip": "ym2612"
    },
    {
      "channel": 4,
      "note": 102,
      "start": 60.5684,
      "duration": 0.1155,
      "velocity": 109,
      "chip": "ym2612"
    },
    {
      "channel": 5,
      "note": 35,
      "start": 60.5686,
      "duration": 0.2331,
      "velocity": 117,
      "chip": "ym2612"
    },
    {
      "channel": 1,
      "note": 63,
      "start": 60.6837,
      "duration": 0.1171,
      "velocity": 95,
      "chip": "ym2612"
    },
    {
      "channel": 4,
      "note": 101,
      "start": 60.684,
      "duration": 0.1175,
      "velocity": 109,
      "chip": "ym2612"
    },
    {
      "channel": 1,
      "note": 66,
      "start": 60.801,
      "duration": 0.1167,
      "velocity": 95,
      "chip": "ym2612"
    },
    {
      "channel": 2,
      "note": 78,
      "start": 60.8012,
      "duration": 0.1166,
      "velocity": 97,
      "chip": "ym2612"
    },
    {
      "channel": 3,
      "note": 75,
      "start": 60.8015,
      "duration": 0.1165,
      "velocity": 97,
      "chip": "ym2612"
    },
    {
      "channel": 4,
      "note": 99,
      "start": 60.8017,
      "duration": 0.1164,
      "velocity": 109,
      "chip": "ym2612"
    },
    {
      "channel": 5,
      "note": 35,
      "start": 60.8019,
      "duration": 0.1164,
      "velocity": 101,
      "chip": "ym2612"
    },
    {
      "channel": 0,
      "note": 61,
      "start": 60.9176,
      "duration": 0.2332,
      "velocity": 81,
      "chip": "ym2612"
    },
    {
      "channel": 4,
      "note": 102,
      "start": 60.9183,
      "duration": 0.1156,
      "velocity": 109,
      "chip": "ym2612"
    },
    {
      "channel": 5,
      "note": 24,
      "start": 60.9185,
      "duration": 0.233,
      "velocity": 101,
      "chip": "ym2612"
    },
    {
      "channel": 4,
      "note": 101,
      "start": 61.0341,
      "duration": 0.1172,
      "velocity": 109,
      "chip": "ym2612"
    },
    {
      "channel": 0,
      "note": 63,
      "start": 61.151,
      "duration": 0.1165,
      "velocity": 81,
      "chip": "ym2612"
    },
    {
      "channel": 1,
      "note": 66,
      "start": 61.1512,
      "duration": 0.1164,
      "velocity": 95,
      "chip": "ym2612"
    },
    {
      "channel": 4,
      "note": 99,
      "start": 61.1515,
      "duration": 0.1164,
      "velocity": 109,
      "chip": "ym2612"
    },
    {
      "channel": 5,
      "note": 24,
      "start": 61.1517,
      "duration": 0.1164,
      "velocity": 117,
      "chip": "ym2612"
    },
    {
      "channel": 1,
      "note": 63,
      "start": 61.2677,
      "duration": 0.1159,
      "velocity": 95,
      "chip": "ym2612"
    },
    {
      "channel": 4,
      "note": 102,
      "start": 61.2681,
      "duration": 0.1158,
      "velocity": 109,
      "chip": "ym2612"
    },
    {
      "channel": 5,
      "note": 35,
      "start": 61.2683,
      "duration": 0.3517,
      "velocity": 101,
      "chip": "ym2612"
    },
    {
      "channel": 4,
      "note": 101,
      "start": 61.384,
      "duration": 0.1174,
      "velocity": 109,
      "chip": "ym2612"
    },
    {
      "channel": 1,
      "note": 63,
      "start": 61.5013,
      "duration": 0.117,
      "velocity": 95,
      "chip": "ym2612"
    },
    {
      "channel": 4,
      "note": 99,
      "start": 61.5016,
      "duration": 0.1182,
      "velocity": 109,
      "chip": "ym2612"
    },
    {
      "channel": 0,
      "note": 61,
      "start": 61.6183,
      "duration": 0.6986,
      "velocity": 81,
      "chip": "ym2612"
    },
    {
      "channel": 1,
      "note": 66,
      "start": 61.6185,
      "duration": 0.2323,
      "velocity": 95,
      "chip": "ym2612"
    },
    {
      "channel": 2,
      "note": 78,
      "start": 61.6188,
      "duration": 0.2322,
      "velocity": 97,
      "chip": "ym2612"
    },
    {
      "channel": 3,
      "note": 73,
      "start": 61.6197,
      "duration": 0.2316,
      "velocity": 97,
      "chip": "ym2612"
    },
    {
      "channel": 4,
      "note": 102,
      "start": 61.6199,
      "duration": 0.1139,
      "velocity": 109,
      "chip": "ym2612"
    },
    {
      "channel": 5,
      "note": 24,
      "start": 61.6202,
      "duration": 0.2315,
      "velocity": 101,
      "chip": "ym2612"
    },
    {
      "channel": 4,
      "note": 101,
      "start": 61.734,
      "duration": 0.1175,
      "velocity": 109,
      "chip": "ym2612"
    },
    {
      "channel": 1,
      "note": 66,
      "start": 61.851,
      "duration": 0.1165,
      "velocity": 95,
      "chip": "ym2612"
    },
    {
      "channel": 2,
      "note": 78,
      "start": 61.8512,
      "duration": 0.4659,
      "velocity": 97,
      "chip": "ym2612"
    },
    {
      "channel": 3,
      "note": 78,
      "start": 61.8515,
      "duration": 0.4659,
      "velocity": 97,
      "chip": "ym2612"
    },
    {
      "channel": 4,
      "note": 97,
      "start": 61.8517,
      "duration": 0.1161,
      "velocity": 109,
      "chip": "ym2612"
    },
    {
      "channel": 5,
      "note": 24,
      "start": 61.8519,
      "duration": 0.1161,
      "velocity": 117,
      "chip": "ym2612"
    },
    {
      "channel": 1,
      "note": 61,
      "start": 61.9677,
      "duration": 0.1159,
      "velocity": 95,
      "chip": "ym2612"
    },
    {
      "channel": 4,
      "note": 102,
      "start": 61.968,
      "duration": 0.1159,
      "velocity": 109,
      "chip": "ym2612"
    },
    {
      "channel": 5,
      "note": 35,
      "start": 61.9682,
      "duration": 0.2331,
      "velocity": 117,
      "chip": "ym2612"
    },
    {
      "channel": 1,
      "note": 63,
      "start": 62.0837,
      "duration": 0.1171,
      "velocity": 95,
      "chip": "ym2612"
    },
    {
      "channel": 4,
      "note": 101,
      "start": 62.084,
      "duration": 0.1171,
      "velocity": 109,
      "chip": "ym2612"
    },
    {
      "channel": 1,
      "note": 66,
      "start": 62.201,
      "duration": 0.116,
      "velocity": 95,
      "chip": "ym2612"
    },
    {
      "channel": 4,
      "note": 97,
      "start": 62.2013,
      "duration": 0.1163,
      "velocity": 109,
      "chip": "ym2612"
    },
    {
      "channel": 5,
      "note": 35,
      "start": 62.2015,
      "duration": 0.3502,
      "velocity": 101,
      "chip": "ym2612"
    },
    {
      "channel": 2,
      "note": 78,
      "start": 62.3173,
      "duration": 0.2339,
      "velocity": 97,
      "chip": "ym2612"
    },
    {
      "channel": 3,
      "note": 73,
      "start": 62.3175,
      "duration": 0.2339,
      "velocity": 97,
      "chip": "ym2612"
    },
    {
      "channel": 4,
      "note": 102,
      "start": 62.3178,
      "duration": 0.1161,
      "velocity": 109,
      "chip": "ym2612"
    },
    {
      "channel": 4,
      "note": 101,
      "start": 62.434,
      "duration": 0.1175,
      "velocity": 109,
      "chip": "ym2612"
    },
    {
      "channel": 0,
      "note": 61,
      "start": 62.551,
      "duration": 0.1165,
      "velocity": 81,
      "chip": "ym2612"
    },
    {
      "channel": 1,
      "note": 66,
      "start": 62.5512,
      "duration": 0.1164,
      "velocity": 95,
      "chip": "ym2612"
    },
    {
      "channel": 4,
      "note": 97,
      "start": 62.5517,
      "duration": 0.1166,
      "velocity": 109,
      "chip": "ym2612"
    },
    {
      "channel": 5,
      "note": 24,
      "start": 62.5519,
      "duration": 0.1166,
      "velocity": 117,
      "chip": "ym2612"
    },
    {
      "channel": 1,
      "note": 61,
      "start": 62.6677,
      "duration": 0.1159,
      "velocity": 95,
      "chip": "ym2612"
    },
    {
      "channel": 2,
      "note": 78,
      "start": 62.668,
      "duration": 0.2327,
      "velocity": 97,
      "chip": "ym2612"
    },
    {
      "channel": 3,
      "note": 74,
      "start": 62.6682,
      "duration": 0.2327,
      "velocity": 97,
      "chip": "ym2612"
    },
    {
      "channel": 4,
      "note": 102,
      "start": 62.6685,
      "duration": 0.1154,
      "velocity": 109,
      "chip": "ym2612"
    },
    {
      "channel": 5,
      "note": 35,
      "start": 62.6687,
      "duration": 0.3495,
      "velocity": 101,
      "chip": "ym2612"
    },
    {
      "channel": 4,
      "note": 101,
      "start": 62.784,
      "duration": 0.1171,
      "velocity": 109,
      "chip": "ym2612"
    },
    {
      "channel": 0,
      "note": 63,
      "start": 62.9004,
      "duration": 0.8171,
      "velocity": 81,
      "chip": "ym2612"
    },
    {
      "channel": 1,
      "note": 61,
      "start": 62.9006,
      "duration": 0.1171,
      "velocity": 95,
      "chip": "ym2612"
    },
    {
      "channel": 2,
      "note": 78,
      "start": 62.9008,
      "duration": 0.3502,
      "velocity": 97,
      "chip": "ym2612"
    },
    {
      "channel": 3,
      "note": 75,
      "start": 62.901,
      "duration": 0.3502,
      "velocity": 97,
      "chip": "ym2612"
    },
    {
      "channel": 4,
      "note": 97,
      "start": 62.9013,
      "duration": 0.1167,
      "velocity": 109,
      "chip": "ym2612"
    },
    {
      "channel": 1,
      "note": 66,
      "start": 63.0178,
      "duration": 0.233,
      "velocity": 95,
      "chip": "ym2612"
    },
    {
      "channel": 4,
      "note": 102,
      "start": 63.0182,
      "duration": 0.1157,
      "velocity": 109,
      "chip": "ym2612"
    },
    {
      "channel": 5,
      "note": 24,
      "start": 63.0184,
      "duration": 0.2333,
      "velocity": 101,
      "chip": "ym2612"
    },
    {
      "channel": 4,
      "note": 101,
      "start": 63.134,
      "duration": 0.1175,
      "velocity": 109,
      "chip": "ym2612"
    },
    {
      "channel": 1,
      "note": 66,
      "start": 63.251,
      "duration": 0.1165,
      "velocity": 95,
      "chip": "ym2612"
    },
    {
      "channel": 2,
      "note": 78,
      "start": 63.2512,
      "duration": 0.1165,
      "velocity": 97,
      "chip": "ym2612"
    },
    {
      "channel": 3,
      "note": 75,
      "start": 63.2515,
      "duration": 0.1165,
      "velocity": 97,
      "chip": "ym2612"
    },
    {
      "channel": 4,
      "note": 99,
      "start": 63.2517,
      "duration": 0.1165,
      "velocity": 109,
      "chip": "ym2612"
    },
    {
      "channel": 5,
      "note": 24,
      "start": 63.2519,
      "duration": 0.1165,
      "velocity": 117,
      "chip": "ym2612"
    },
    {
      "channel": 1,
      "note": 61,
      "start": 63.3677,
      "duration": 0.1159,
      "velocity": 95,
      "chip": "ym2612"
    },
    {
      "channel": 2,
      "note": 78,
      "start": 63.3679,
      "duration": 0.2332,
      "velocity": 97,
      "chip": "ym2612"
    },
    {
      "channel": 3,
      "note": 70,
      "start": 63.3681,
      "duration": 0.2332,
      "velocity": 97,
      "chip": "ym2612"
    },
    {
      "channel": 4,
      "note": 102,
      "start": 63.3684,
      "duration": 0.1155,
      "velocity": 109,
      "chip": "ym2612"
    },
    {
      "channel": 5,
      "note": 35,
      "start": 63.3686,
      "duration": 0.2331,
      "velocity": 117,
      "chip": "ym2612"
    },
    {
      "channel": 1,
      "note": 63,
      "start": 63.4837,
      "duration": 0.1171,
      "velocity": 95,
      "chip": "ym2612"
    },
    {
      "channel": 4,
      "note": 101,
      "start": 63.484,
      "duration": 0.1175,
      "velocity": 109,
      "chip": "ym2612"
    },
    {
      "channel": 1,
      "note": 66,
      "start": 63.601,
      "duration": 0.1167,
      "velocity": 95,
      "chip": "ym2612"
    },
    {
      "channel": 2,
      "note": 78,
      "start": 63.6012,
      "duration": 0.1166,
      "velocity": 97,
      "chip": "ym2612"
    },
    {
      "channel": 3,
      "note": 75,
      "start": 63.6015,
      "duration": 0.1165,
      "velocity": 97,
      "chip": "ym2612"
    },
    {
      "channel": 4,
      "note": 99,
      "start": 63.6017,
      "duration": 0.1164,
      "velocity": 109,
      "chip": "ym2612"
    },
    {
      "channel": 5,
      "note": 35,
      "start": 63.6019,
      "duration": 0.1164,
      "velocity": 101,
      "chip": "ym2612"
    },
    {
      "channel": 0,
      "note": 61,
      "start": 63.7176,
      "duration": 0.2332,
      "velocity": 81,
      "chip": "ym2612"
    },
    {
      "channel": 4,
      "note": 102,
      "start": 63.7183,
      "duration": 0.1156,
      "velocity": 109,
      "chip": "ym2612"
    },
    {
      "channel": 5,
      "note": 24,
      "start": 63.7185,
      "duration": 0.233,
      "velocity": 101,
      "chip": "ym2612"
    },
    {
      "channel": 4,
      "note": 101,
      "start": 63.8341,
      "duration": 0.1172,
      "velocity": 109,
      "chip": "ym2612"
    },
    {
      "channel": 0,
      "note": 63,
      "start": 63.951,
      "duration": 0.1165,
      "velocity": 81,
      "chip": "ym2612"
    },
    {
      "channel": 1,
      "note": 66,
      "start": 63.9512,
      "duration": 0.1164,
      "velocity": 95,
      "chip": "ym2612"
    },
    {
      "channel": 4,
      "note": 99,
      "start": 63.9515,
      "duration": 0.1164,
      "velocity": 109,
      "chip": "ym2612"
    },
    {
      "channel": 5,
      "note": 24,
      "start": 63.9517,
      "duration": 0.1164,
      "velocity": 117,
      "chip": "ym2612"
    },
    {
      "channel": 1,
      "note": 63,
      "start": 64.0677,
      "duration": 0.1159,
      "velocity": 95,
      "chip": "ym2612"
    },
    {
      "channel": 4,
      "note": 102,
      "start": 64.0681,
      "duration": 0.1158,
      "velocity": 109,
      "chip": "ym2612"
    },
    {
      "channel": 5,
      "note": 35,
      "start": 64.0683,
      "duration": 0.3512,
      "velocity": 101,
      "chip": "ym2612"
    },
    {
      "channel": 4,
      "note": 101,
      "start": 64.184,
      "duration": 0.1166,
      "velocity": 109,
      "chip": "ym2612"
    },
    {
      "channel": 1,
      "note": 63,
      "start": 64.3005,
      "duration": 0.1179,
      "velocity": 95,
      "chip": "ym2612"
    },
    {
      "channel": 4,
      "note": 99,
      "start": 64.3008,
      "duration": 0.1187,
      "velocity": 109,
      "chip": "ym2612"
    },
    {
      "channel": 0,
      "note": 90,
      "start": 64.4183,
      "duration": 0.0012,
      "velocity": 106,
      "chip": "ym2612"
    },
    {
      "channel": 1,
      "note": 66,
      "start": 64.4186,
      "duration": 0.0009,
      "velocity": 95,
      "chip": "ym2612"
    },
    {
      "channel": 2,
      "note": 61,
      "start": 64.4194,
      "duration": 0.0001,
      "velocity": 81,
      "chip": "ym2612"
    }
  ]
}