{
  "track_name": "05 - The Subway",
  "duration_sec": 61.41,
  "sample_rate": 44100,
  "note_count": 958,
  "unique_pitches": 30,
  "pitch_range": 83,
  "avg_note_duration": 0.3026,
  "reconstruction_stats": {
    "notes_reconstructed": 958,
    "keyon_events": 958,
    "keyoff_events": 947,
    "orphan_keyons": 6,
    "unique_pitches": 30,
    "pitch_range": 83,
    "avg_duration_sec": 0.3026
  },
  "metadata": {
    "source": "P\\Predator 2\\05 - The Subway.vgm"
  },
  "notes": [
    {
      "channel": 0,
      "note": 43,
      "start": 0.0,
      "duration": 0.0003,
      "velocity": 94,
      "chip": "ym2612"
    },
    {
      "channel": 1,
      "note": 67,
      "start": 0.0,
      "duration": 7.6841,
      "velocity": 112,
      "chip": "ym2612"
    },
    {
      "channel": 2,
      "note": 34,
      "start": 0.0,
      "duration": 0.0,
      "velocity": 109,
      "chip": "ym2612"
    },
    {
      "channel": 2,
      "note": 34,
      "start": 0.0,
      "duration": 0.0,
      "velocity": 109,
      "chip": "ym2612"
    },
    {
      "channel": 2,
      "note": 34,
      "start": 0.0,
      "duration": 0.0,
      "velocity": 109,
      "chip": "ym2612"
    },
    {
      "channel": 2,
      "note": 34,
      "start": 0.0,
      "duration": 0.0,
      "velocity": 109,
      "chip": "ym2612"
    },
    {
      "channel": 2,
      "note": 34,
      "start": 0.0,
      "duration": 0.0,
      "velocity": 109,
      "chip": "ym2612"
    },
    {
      "channel": 2,
      "note": 34,
      "start": 0.0,
      "duration": 0.0023,
      "velocity": 109,
      "chip": "ym2612"
    },
    {
      "channel": 3,
      "note": 21,
      "start": 0.0,
      "duration": 15.3561,
      "velocity": 127,
      "chip": "ym2612"
    },
    {
      "channel": 0,
      "note": 60,
      "start": 0.0005,
      "duration": 0.1149,
      "velocity": 94,
      "chip": "ym2612"
    },
    {
      "channel": 2,
      "note": 60,
      "start": 0.0024,
      "duration": 0.1135,
      "velocity": 109,
      "chip": "ym2612"
    },
    {
      "channel": 0,
      "note": 67,
      "start": 0.1155,
      "duration": 0.1165,
      "velocity": 94,
      "chip": "ym2612"
    },
    {
      "channel": 2,
      "note": 67,
      "start": 0.1161,
      "duration": 0.1164,
      "velocity": 109,
      "chip": "ym2612"
    },
    {
      "channel": 0,
      "note": 68,
      "start": 0.2322,
      "duration": 0.1165,
      "velocity": 94,
      "chip": "ym2612"
    },
    {
      "channel": 2,
      "note": 68,
      "start": 0.2327,
      "duration": 0.1165,
      "velocity": 109,
      "chip": "ym2612"
    },
    {
      "channel": 0,
      "note": 59,
      "start": 0.3488,
      "duration": 0.7331,
      "velocity": 94,
      "chip": "ym2612"
    },
    {
      "channel": 2,
      "note": 59,
      "start": 0.3494,
      "duration": 0.7346,
      "velocity": 109,
      "chip": "ym2612"
    },
    {
      "channel": 0,
      "note": 60,
      "start": 1.0822,
      "duration": 0.1165,
      "velocity": 94,
      "chip": "ym2612"
    },
    {
      "channel": 2,
      "note": 60,
      "start": 1.0842,
      "duration": 0.115,
      "velocity": 109,
      "chip": "ym2612"
    },
    {
      "channel": 0,
      "note": 67,
      "start": 1.1988,
      "duration": 0.1165,
      "velocity": 94,
      "chip": "ym2612"
    },
    {
      "channel": 2,
      "note": 67,
      "start": 1.1994,
      "duration": 0.1165,
      "velocity": 109,
      "chip": "ym2612"
    },
    {
      "channel": 0,
      "note": 68,
      "start": 1.3155,
      "duration": 0.1165,
      "velocity": 94,
      "chip": "ym2612"
    },
    {
      "channel": 2,
      "note": 68,
      "start": 1.3161,
      "duration": 0.1165,
      "velocity": 109,
      "chip": "ym2612"
    },
    {
      "channel": 0,
      "note": 59,
      "start": 1.4322,
      "duration": 0.4831,
      "velocity": 94,
      "chip": "ym2612"
    },
    {
      "channel": 2,
      "note": 59,
      "start": 1.4327,
      "duration": 0.4846,
      "velocity": 109,
      "chip": "ym2612"
    },
    {
      "channel": 0,
      "note": 60,
      "start": 1.9155,
      "duration": 0.1165,
      "velocity": 94,
      "chip": "ym2612"
    },
    {
      "channel": 2,
      "note": 60,
      "start": 1.9175,
      "duration": 0.115,
      "velocity": 109,
      "chip": "ym2612"
    },
    {
      "channel": 0,
      "note": 67,
      "start": 2.0322,
      "duration": 0.1165,
      "velocity": 94,
      "chip": "ym2612"
    },
    {
      "channel": 2,
      "note": 67,
      "start": 2.0327,
      "duration": 0.1165,
      "velocity": 109,
      "chip": "ym2612"
    },
    {
      "channel": 0,
      "note": 68,
      "start": 2.1488,
      "duration": 0.1332,
      "velocity": 94,
      "chip": "ym2612"
    },
    {
      "channel": 2,
      "note": 68,
      "start": 2.1494,
      "duration": 0.1331,
      "velocity": 109,
      "chip": "ym2612"
    },
    {
      "channel": 0,
      "note": 59,
      "start": 2.2822,
      "duration": 0.7165,
      "velocity": 94,
      "chip": "ym2612"
    },
    {
      "channel": 2,
      "note": 59,
      "start": 2.2827,
      "duration": 0.7179,
      "velocity": 109,
      "chip": "ym2612"
    },
    {
      "channel": 0,
      "note": 60,
      "start": 2.9988,
      "duration": 0.1165,
      "velocity": 94,
      "chip": "ym2612"
    },
    {
      "channel": 2,
      "note": 60,
      "start": 3.0008,
      "duration": 0.115,
      "velocity": 109,
      "chip": "ym2612"
    },
    {
      "channel": 0,
      "note": 67,
      "start": 3.1155,
      "duration": 0.1165,
      "velocity": 94,
      "chip": "ym2612"
    },
    {
      "channel": 2,
      "note": 67,
      "start": 3.1161,
      "duration": 0.1165,
      "velocity": 109,
      "chip": "ym2612"
    },
    {
      "channel": 0,
      "note": 68,
      "start": 3.2322,
      "duration": 0.1165,
      "velocity": 94,
      "chip": "ym2612"
    },
    {
      "channel": 2,
      "note": 68,
      "start": 3.2327,
      "duration": 0.1165,
      "velocity": 109,
      "chip": "ym2612"
    },
    {
      "channel": 0,
      "note": 59,
      "start": 3.3488,
      "duration": 0.4831,
      "velocity": 94,
      "chip": "ym2612"
    },
    {
      "channel": 2,
      "note": 59,
      "start": 3.3494,
      "duration": 0.4846,
      "velocity": 109,
      "chip": "ym2612"
    },
    {
      "channel": 0,
      "note": 62,
      "start": 3.8322,
      "duration": 0.1165,
      "velocity": 94,
      "chip": "ym2612"
    },
    {
      "channel": 2,
      "note": 62,
      "start": 3.8342,
      "duration": 0.115,
      "velocity": 109,
      "chip": "ym2612"
    },
    {
      "channel": 0,
      "note": 69,
      "start": 3.9488,
      "duration": 0.1332,
      "velocity": 94,
      "chip": "ym2612"
    },
    {
      "channel": 2,
      "note": 69,
      "start": 3.9494,
      "duration": 0.1331,
      "velocity": 109,
      "chip": "ym2612"
    },
    {
      "channel": 0,
      "note": 70,
      "start": 4.0822,
      "duration": 0.1165,
      "velocity": 94,
      "chip": "ym2612"
    },
    {
      "channel": 2,
      "note": 70,
      "start": 4.0827,
      "duration": 0.1165,
      "velocity": 109,
      "chip": "ym2612"
    },
    {
      "channel": 0,
      "note": 61,
      "start": 4.1988,
      "duration": 0.7165,
      "velocity": 94,
      "chip": "ym2612"
    },
    {
      "channel": 2,
      "note": 61,
      "start": 4.1994,
      "duration": 0.7179,
      "velocity": 109,
      "chip": "ym2612"
    },
    {
      "channel": 0,
      "note": 62,
      "start": 4.9155,
      "duration": 0.1165,
      "velocity": 94,
      "chip": "ym2612"
    },
    {
      "channel": 2,
      "note": 62,
      "start": 4.9175,
      "duration": 0.115,
      "velocity": 109,
      "chip": "ym2612"
    },
    {
      "channel": 0,
      "note": 69,
      "start": 5.0322,
      "duration": 0.1165,
      "velocity": 94,
      "chip": "ym2612"
    },
    {
      "channel": 2,
      "note": 69,
      "start": 5.0327,
      "duration": 0.1165,
      "velocity": 109,
      "chip": "ym2612"
    },
    {
      "channel": 0,
      "note": 70,
      "start": 5.1488,
      "duration": 0.1332,
      "velocity": 94,
      "chip": "ym2612"
    },
    {
      "channel": 2,
      "note": 70,
      "start": 5.1494,
      "duration": 0.1331,
      "velocity": 109,
      "chip": "ym2612"
    },
    {
      "channel": 0,
      "note": 61,
      "start": 5.2822,
      "duration": 0.4665,
      "velocity": 94,
      "chip": "ym2612"
    },
    {
      "channel": 2,
      "note": 61,
      "start": 5.2827,
      "duration": 0.4679,
      "velocity": 109,
      "chip": "ym2612"
    },
    {
      "channel": 0,
      "note": 62,
      "start": 5.7488,
      "duration": 0.1331,
      "velocity": 94,
      "chip": "ym2612"
    },
    {
      "channel": 2,
      "note": 62,
      "start": 5.7508,
      "duration": 0.1317,
      "velocity": 109,
      "chip": "ym2612"
    },
    {
      "channel": 0,
      "note": 69,
      "start": 5.8822,
      "duration": 0.1165,
      "velocity": 94,
      "chip": "ym2612"
    },
    {
      "channel": 2,
      "note": 69,
      "start": 5.8827,
      "duration": 0.1165,
      "velocity": 109,
      "chip": "ym2612"
    },
    {
      "channel": 0,
      "note": 70,
      "start": 5.9988,
      "duration": 0.1165,
      "velocity": 94,
      "chip": "ym2612"
    },
    {
      "channel": 2,
      "note": 70,
      "start": 5.9994,
      "duration": 0.1165,
      "velocity": 109,
      "chip": "ym2612"
    },
    {
      "channel": 0,
      "note": 61,
      "start": 6.1155,
      "duration": 0.7165,
      "velocity": 94,
      "chip": "ym2612"
    },
    {
      "channel": 2,
      "note": 61,
      "start": 6.1161,
      "duration": 0.7179,
      "velocity": 109,
      "chip": "ym2612"
    },
    {
      "channel": 0,
      "note": 62,
      "start": 6.8322,
      "duration": 0.1165,
      "velocity": 94,
      "chip": "ym2612"
    },
    {
      "channel": 2,
      "note": 62,
      "start": 6.8342,
      "duration": 0.115,
      "velocity": 109,
      "chip": "ym2612"
    },
    {
      "channel": 0,
      "note": 69,
      "start": 6.9488,
      "duration": 0.1332,
      "velocity": 94,
      "chip": "ym2612"
    },
    {
      "channel": 2,
      "note": 69,
      "start": 6.9494,
      "duration": 0.1331,
      "velocity": 109,
      "chip": "ym2612"
    },
    {
      "channel": 0,
      "note": 70,
      "start": 7.0822,
      "duration": 0.1165,
      "velocity": 94,
      "chip": "ym2612"
    },
    {
      "channel": 2,
      "note": 70,
      "start": 7.0827,
      "duration": 0.1165,
      "velocity": 109,
      "chip": "ym2612"
    },
    {
      "channel": 0,
      "note": 61,
      "start": 7.1988,
      "duration": 0.4833,
      "velocity": 94,
      "chip": "ym2612"
    },
    {
      "channel": 2,
      "note": 61,
      "start": 7.1994,
      "duration": 0.4866,
      "velocity": 109,
      "chip": "ym2612"
    },
    {
      "channel": 0,
      "note": 60,
      "start": 7.6823,
      "duration": 0.1163,
      "velocity": 94,
      "chip": "ym2612"
    },
    {
      "channel": 1,
      "note": 87,
      "start": 7.6842,
      "duration": 1.9149,
      "velocity": 112,
      "chip": "ym2612"
    },
    {
      "channel": 2,
      "note": 60,
      "start": 7.6862,
      "duration": 0.113,
      "velocity": 109,
      "chip": "ym2612"
    },
    {
      "channel": 0,
      "note": 67,
      "start": 7.7989,
      "duration": 0.1165,
      "velocity": 94,
      "chip": "ym2612"
    },
    {
      "channel": 2,
      "note": 67,
      "start": 7.7994,
      "duration": 0.1165,
      "velocity": 109,
      "chip": "ym2612"
    },
    {
      "channel": 0,
      "note": 68,
      "start": 7.9155,
      "duration": 0.1165,
      "velocity": 94,
      "chip": "ym2612"
    },
    {
      "channel": 2,
      "note": 68,
      "start": 7.9161,
      "duration": 0.1165,
      "velocity": 109,
      "chip": "ym2612"
    },
    {
      "channel": 0,
      "note": 59,
      "start": 8.0322,
      "duration": 0.7165,
      "velocity": 94,
      "chip": "ym2612"
    },
    {
      "channel": 2,
      "note": 59,
      "start": 8.0327,
      "duration": 0.7179,
      "velocity": 109,
      "chip": "ym2612"
    },
    {
      "channel": 0,
      "note": 60,
      "start": 8.7488,
      "duration": 0.1331,
      "velocity": 94,
      "chip": "ym2612"
    },
    {
      "channel": 2,
      "note": 60,
      "start": 8.7508,
      "duration": 0.1317,
      "velocity": 109,
      "chip": "ym2612"
    },
    {
      "channel": 0,
      "note": 67,
      "start": 8.8822,
      "duration": 0.1165,
      "velocity": 94,
      "chip": "ym2612"
    },
    {
      "channel": 2,
      "note": 67,
      "start": 8.8827,
      "duration": 0.1165,
      "velocity": 109,
      "chip": "ym2612"
    },
    {
      "channel": 0,
      "note": 68,
      "start": 8.9988,
      "duration": 0.1165,
      "velocity": 94,
      "chip": "ym2612"
    },
    {
      "channel": 2,
      "note": 68,
      "start": 8.9994,
      "duration": 0.1165,
      "velocity": 109,
      "chip": "ym2612"
    },
    {
      "channel": 0,
      "note": 59,
      "start": 9.1155,
      "duration": 0.4832,
      "velocity": 94,
      "chip": "ym2612"
    },
    {
      "channel": 2,
      "note": 59,
      "start": 9.1161,
      "duration": 0.4851,
      "velocity": 109,
      "chip": "ym2612"
    },
    {
      "channel": 0,
      "note": 60,
      "start": 9.5989,
      "duration": 0.1165,
      "velocity": 94,
      "chip": "ym2612"
    },
    {
      "channel": 1,
      "note": 86,
      "start": 9.5994,
      "duration": 1.9165,
      "velocity": 112,
      "chip": "ym2612"
    },
    {
      "channel": 2,
      "note": 60,
      "start": 9.6013,
      "duration": 0.1146,
      "velocity": 109,
      "chip": "ym2612"
    },
    {
      "channel": 0,
      "note": 67,
      "start": 9.7155,
      "duration": 0.1165,
      "velocity": 94,
      "chip": "ym2612"
    },
    {
      "channel": 2,
      "note": 67,
      "start": 9.7161,
      "duration": 0.1165,
      "velocity": 109,
      "chip": "ym2612"
    },
    {
      "channel": 0,
      "note": 68,
      "start": 9.8322,
      "duration": 0.1165,
      "velocity": 94,
      "chip": "ym2612"
    },
    {
      "channel": 2,
      "note": 68,
      "start": 9.8327,
      "duration": 0.1165,
      "velocity": 109,
      "chip": "ym2612"
    },
    {
      "channel": 0,
      "note": 59,
      "start": 9.9488,
      "duration": 0.7331,
      "velocity": 94,
      "chip": "ym2612"
    },
    {
      "channel": 2,
      "note": 59,
      "start": 9.9494,
      "duration": 0.7346,
      "velocity": 109,
      "chip": "ym2612"
    },
    {
      "channel": 0,
      "note": 60,
      "start": 10.6822,
      "duration": 0.1165,
      "velocity": 94,
      "chip": "ym2612"
    },
    {
      "channel": 2,
      "note": 60,
      "start": 10.6842,
      "duration": 0.115,
      "velocity": 109,
      "chip": "ym2612"
    },
    {
      "channel": 0,
      "note": 67,
      "start": 10.7988,
      "duration": 0.1165,
      "velocity": 94,
      "chip": "ym2612"
    },
    {
      "channel": 2,
      "note": 67,
      "start": 10.7994,
      "duration": 0.1165,
      "velocity": 109,
      "chip": "ym2612"
    },
    {
      "channel": 0,
      "note": 68,
      "start": 10.9155,
      "duration": 0.1165,
      "velocity": 94,
      "chip": "ym2612"
    },
    {
      "channel": 2,
      "note": 68,
      "start": 10.9161,
      "duration": 0.1165,
      "velocity": 109,
      "chip": "ym2612"
    },
    {
      "channel": 0,
      "note": 59,
      "start": 11.0322,
      "duration": 0.4832,
      "velocity": 94,
      "chip": "ym2612"
    },
    {
      "channel": 2,
      "note": 59,
      "start": 11.0327,
      "duration": 0.4851,
      "velocity": 109,
      "chip": "ym2612"
    },
    {
      "channel": 0,
      "note": 62,
      "start": 11.5155,
      "duration": 0.1165,
      "velocity": 94,
      "chip": "ym2612"
    },
    {
      "channel": 1,
      "note": 85,
      "start": 11.5161,
      "duration": 1.9165,
      "velocity": 112,
      "chip": "ym2612"
    },
    {
      "channel": 2,
      "note": 62,
      "start": 11.518,
      "duration": 0.1146,
      "velocity": 109,
      "chip": "ym2612"
    },
    {
      "channel": 0,
      "note": 69,
      "start": 11.6322,
      "duration": 0.1165,
      "velocity": 94,
      "chip": "ym2612"
    },
    {
      "channel": 2,
      "note": 69,
      "start": 11.6327,
      "duration": 0.1165,
      "velocity": 109,
      "chip": "ym2612"
    },
    {
      "channel": 0,
      "note": 70,
      "start": 11.7488,
      "duration": 0.1332,
      "velocity": 94,
      "chip": "ym2612"
    },
    {
      "channel": 2,
      "note": 70,
      "start": 11.7494,
      "duration": 0.1331,
      "velocity": 109,
      "chip": "ym2612"
    },
    {
      "channel": 0,
      "note": 61,
      "start": 11.8822,
      "duration": 0.7165,
      "velocity": 94,
      "chip": "ym2612"
    },
    {
      "channel": 2,
      "note": 61,
      "start": 11.8827,
      "duration": 0.7179,
      "velocity": 109,
      "chip": "ym2612"
    },
    {
      "channel": 0,
      "note": 62,
      "start": 12.5988,
      "duration": 0.1165,
      "velocity": 94,
      "chip": "ym2612"
    },
    {
      "channel": 2,
      "note": 62,
      "start": 12.6008,
      "duration": 0.115,
      "velocity": 109,
      "chip": "ym2612"
    },
    {
      "channel": 0,
      "note": 69,
      "start": 12.7155,
      "duration": 0.1165,
      "velocity": 94,
      "chip": "ym2612"
    },
    {
      "channel": 2,
      "note": 69,
      "start": 12.7161,
      "duration": 0.1165,
      "velocity": 109,
      "chip": "ym2612"
    },
    {
      "channel": 0,
      "note": 70,
      "start": 12.8322,
      "duration": 0.1165,
      "velocity": 94,
      "chip": "ym2612"
    },
    {
      "channel": 2,
      "note": 70,
      "start": 12.8327,
      "duration": 0.1165,
      "velocity": 109,
      "chip": "ym2612"
    },
    {
      "channel": 0,
      "note": 61,
      "start": 12.9488,
      "duration": 0.4832,
      "velocity": 94,
      "chip": "ym2612"
    },
    {
      "channel": 2,
      "note": 61,
      "start": 12.9494,
      "duration": 0.4851,
      "velocity": 109,
      "chip": "ym2612"
    },
    {
      "channel": 0,
      "note": 62,
      "start": 13.4322,
      "duration": 0.1165,
      "velocity": 94,
      "chip": "ym2612"
    },
    {
      "channel": 1,
      "note": 89,
      "start": 13.4327,
      "duration": 1.9195,
      "velocity": 94,
      "chip": "ym2612"
    },
    {
      "channel": 2,
      "note": 62,
      "start": 13.4346,
      "duration": 0.1146,
      "velocity": 109,
      "chip": "ym2612"
    },
    {
      "channel": 0,
      "note": 69,
      "start": 13.5489,
      "duration": 0.1332,
      "velocity": 94,
      "chip": "ym2612"
    },
    {
      "channel": 2,
      "note": 69,
      "start": 13.5494,
      "duration": 0.1331,
      "velocity": 109,
      "chip": "ym2612"
    },
    {
      "channel": 0,
      "note": 70,
      "start": 13.6822,
      "duration": 0.1165,
      "velocity": 94,
      "chip": "ym2612"
    },
    {
      "channel": 2,
      "note": 70,
      "start": 13.6827,
      "duration": 0.1165,
      "velocity": 109,
      "chip": "ym2612"
    },
    {
      "channel": 0,
      "note": 61,
      "start": 13.7988,
      "duration": 0.7165,
      "velocity": 94,
      "chip": "ym2612"
    },
    {
      "channel": 2,
      "note": 61,
      "start": 13.7994,
      "duration": 0.7179,
      "velocity": 109,
      "chip": "ym2612"
    },
    {
      "channel": 0,
      "note": 62,
      "start": 14.5155,
      "duration": 0.1165,
      "velocity": 94,
      "chip": "ym2612"
    },
    {
      "channel": 2,
      "note": 62,
      "start": 14.5175,
      "duration": 0.115,
      "velocity": 109,
      "chip": "ym2612"
    },
    {
      "channel": 0,
      "note": 69,
      "start": 14.6322,
      "duration": 0.1165,
      "velocity": 94,
      "chip": "ym2612"
    },
    {
      "channel": 2,
      "note": 69,
      "start": 14.6327,
      "duration": 0.1165,
      "velocity": 109,
      "chip": "ym2612"
    },
    {
      "channel": 0,
      "note": 70,
      "start": 14.7488,
      "duration": 0.1332,
      "velocity": 94,
      "chip": "ym2612"
    },
    {
      "channel": 2,
      "note": 70,
      "start": 14.7494,
      "duration": 0.1331,
      "velocity": 109,
      "chip": "ym2612"
    },
    {
      "channel": 0,
      "note": 61,
      "start": 14.8822,
      "duration": 0.468,
      "velocity": 127,
      "chip": "ym2612"
    },
    {
      "channel": 2,
      "note": 61,
      "start": 14.8827,
      "duration": 0.4714,
      "velocity": 109,
      "chip": "ym2612"
    },
    {
      "channel": 0,
      "note": 20,
      "start": 15.3504,
      "duration": 7.0247,
      "velocity": 121,
      "chip": "ym2612"
    },
    {
      "channel": 1,
      "note": 60,
      "start": 15.3523,
      "duration": 0.1189,
      "velocity": 94,
      "chip": "ym2612"
    },
    {
      "channel": 2,
      "note": 60,
      "start": 15.3543,
      "duration": 0.1174,
      "velocity": 109,
      "chip": "ym2612"
    },
    {
      "channel": 3,
      "note": 103,
      "start": 15.3562,
      "duration": 0.116,
      "velocity": 127,
      "chip": "ym2612"
    },
    {
      "channel": 1,
      "note": 67,
      "start": 15.4714,
      "duration": 0.1164,
      "velocity": 94,
      "chip": "ym2612"
    },
    {
      "channel": 2,
      "note": 67,
      "start": 15.4719,
      "duration": 0.1164,
      "velocity": 109,
      "chip": "ym2612"
    },
    {
      "channel": 3,
      "note": 103,
      "start": 15.4724,
      "duration": 0.1164,
      "velocity": 127,
      "chip": "ym2612"
    },
    {
      "channel": 1,
      "note": 68,
      "start": 15.5879,
      "duration": 0.1166,
      "velocity": 94,
      "chip": "ym2612"
    },
    {
      "channel": 2,
      "note": 68,
      "start": 15.5885,
      "duration": 0.1165,
      "velocity": 109,
      "chip": "ym2612"
    },
    {
      "channel": 3,
      "note": 103,
      "start": 15.589,
      "duration": 0.1166,
      "velocity": 127,
      "chip": "ym2612"
    },
    {
      "channel": 1,
      "note": 59,
      "start": 15.7047,
      "duration": 0.6393,
      "velocity": 94,
      "chip": "ym2612"
    },
    {
      "channel": 2,
      "note": 59,
      "start": 15.7052,
      "duration": 0.6408,
      "velocity": 109,
      "chip": "ym2612"
    },
    {
      "channel": 3,
      "note": 103,
      "start": 15.7057,
      "duration": 0.1024,
      "velocity": 127,
      "chip": "ym2612"
    },
    {
      "channel": 3,
      "note": 103,
      "start": 15.8083,
      "duration": 0.0955,
      "velocity": 127,
      "chip": "ym2612"
    },
    {
      "channel": 3,
      "note": 103,
      "start": 15.9039,
      "duration": 0.1093,
      "velocity": 127,
      "chip": "ym2612"
    },
    {
      "channel": 3,
      "note": 103,
      "start": 16.0134,
      "duration": 0.1032,
      "velocity": 127,
      "chip": "ym2612"
    },
    {
      "channel": 3,
      "note": 103,
      "start": 16.1167,
      "duration": 0.1165,
      "velocity": 127,
      "chip": "ym2612"
    },
    {
      "channel": 3,
      "note": 103,
      "start": 16.2334,
      "duration": 0.1131,
      "velocity": 127,
      "chip": "ym2612"
    },
    {
      "channel": 1,
      "note": 60,
      "start": 16.3442,
      "duration": 0.1165,
      "velocity": 94,
      "chip": "ym2612"
    },
    {
      "channel": 2,
      "note": 60,
      "start": 16.3461,
      "duration": 0.1151,
      "velocity": 109,
      "chip": "ym2612"
    },
    {
      "channel": 3,
      "note": 103,
      "start": 16.3466,
      "duration": 0.1151,
      "velocity": 127,
      "chip": "ym2612"
    },
    {
      "channel": 1,
      "note": 67,
      "start": 16.4608,
      "duration": 0.1332,
      "velocity": 94,
      "chip": "ym2612"
    },
    {
      "channel": 2,
      "note": 67,
      "start": 16.4613,
      "duration": 0.1332,
      "velocity": 109,
      "chip": "ym2612"
    },
    {
      "channel": 3,
      "note": 103,
      "start": 16.4618,
      "duration": 0.1332,
      "velocity": 127,
      "chip": "ym2612"
    },
    {
      "channel": 1,
      "note": 68,
      "start": 16.5942,
      "duration": 0.1037,
      "velocity": 94,
      "chip": "ym2612"
    },
    {
      "channel": 2,
      "note": 68,
      "start": 16.5947,
      "duration": 0.1036,
      "velocity": 109,
      "chip": "ym2612"
    },
    {
      "channel": 3,
      "note": 103,
      "start": 16.5952,
      "duration": 0.1037,
      "velocity": 127,
      "chip": "ym2612"
    },
    {
      "channel": 1,
      "note": 59,
      "start": 16.698,
      "duration": 0.4285,
      "velocity": 94,
      "chip": "ym2612"
    },
    {
      "channel": 2,
      "note": 59,
      "start": 16.6985,
      "duration": 0.43,
      "velocity": 109,
      "chip": "ym2612"
    },
    {
      "channel": 3,
      "note": 103,
      "start": 16.699,
      "duration": 0.0948,
      "velocity": 127,
      "chip": "ym2612"
    },
    {
      "channel": 3,
      "note": 103,
      "start": 16.7941,
      "duration": 0.0959,
      "velocity": 127,
      "chip": "ym2612"
    },
    {
      "channel": 3,
      "note": 103,
      "start": 16.8902,
      "duration": 0.1045,
      "velocity": 127,
      "chip": "ym2612"
    },
    {
      "channel": 3,
      "note": 103,
      "start": 16.9949,
      "duration": 0.1356,
      "velocity": 127,
      "chip": "ym2612"
    },
    {
      "channel": 1,
      "note": 60,
      "start": 17.1267,
      "duration": 0.1051,
      "velocity": 94,
      "chip": "ym2612"
    },
    {
      "channel": 2,
      "note": 60,
      "start": 17.1287,
      "duration": 0.1036,
      "velocity": 109,
      "chip": "ym2612"
    },
    {
      "channel": 3,
      "note": 103,
      "start": 17.1306,
      "duration": 0.1022,
      "velocity": 127,
      "chip": "ym2612"
    },
    {
      "channel": 1,
      "note": 67,
      "start": 17.232,
      "duration": 0.1165,
      "velocity": 94,
      "chip": "ym2612"
    },
    {
      "channel": 2,
      "note": 67,
      "start": 17.2325,
      "duration": 0.1165,
      "velocity": 109,
      "chip": "ym2612"
    },
    {
      "channel": 3,
      "note": 103,
      "start": 17.233,
      "duration": 0.1165,
      "velocity": 127,
      "chip": "ym2612"
    },
    {
      "channel": 1,
      "note": 68,
      "start": 17.3487,
      "duration": 0.1165,
      "velocity": 94,
      "chip": "ym2612"
    },
    {
      "channel": 2,
      "note": 68,
      "start": 17.3492,
      "duration": 0.1165,
      "velocity": 109,
      "chip": "ym2612"
    },
    {
      "channel": 3,
      "note": 103,
      "start": 17.3497,
      "duration": 0.1165,
      "velocity": 127,
      "chip": "ym2612"
    },
    {
      "channel": 1,
      "note": 59,
      "start": 17.4653,
      "duration": 0.6404,
      "velocity": 94,
      "chip": "ym2612"
    },
    {
      "channel": 2,
      "note": 59,
      "start": 17.4659,
      "duration": 0.6418,
      "velocity": 109,
      "chip": "ym2612"
    },
    {
      "channel": 3,
      "note": 103,
      "start": 17.4663,
      "duration": 0.1077,
      "velocity": 127,
      "chip": "ym2612"
    },
    {
      "channel": 3,
      "note": 103,
      "start": 17.5743,
      "duration": 0.1093,
      "velocity": 127,
      "chip": "ym2612"
    },
    {
      "channel": 3,
      "note": 103,
      "start": 17.6837,
      "duration": 0.0955,
      "velocity": 127,
      "chip": "ym2612"
    },
    {
      "channel": 3,
      "note": 103,
      "start": 17.7794,
      "duration": 0.1046,
      "velocity": 127,
      "chip": "ym2612"
    },
    {
      "channel": 3,
      "note": 103,
      "start": 17.8841,
      "duration": 0.1165,
      "velocity": 127,
      "chip": "ym2612"
    },
    {
      "channel": 3,
      "note": 103,
      "start": 18.0008,
      "duration": 0.1074,
      "velocity": 127,
      "chip": "ym2612"
    },
    {
      "channel": 1,
      "note": 60,
      "start": 18.1059,
      "duration": 0.1332,
      "velocity": 94,
      "chip": "ym2612"
    },
    {
      "channel": 2,
      "note": 60,
      "start": 18.1078,
      "duration": 0.1317,
      "velocity": 109,
      "chip": "ym2612"
    },
    {
      "channel": 3,
      "note": 103,
      "start": 18.1083,
      "duration": 0.1317,
      "velocity": 127,
      "chip": "ym2612"
    },
    {
      "channel": 1,
      "note": 67,
      "start": 18.2392,
      "duration": 0.1166,
      "velocity": 94,
      "chip": "ym2612"
    },
    {
      "channel": 2,
      "note": 67,
      "start": 18.2397,
      "duration": 0.1165,
      "velocity": 109,
      "chip": "ym2612"
    },
    {
      "channel": 3,
      "note": 103,
      "start": 18.2402,
      "duration": 0.1166,
      "velocity": 127,
      "chip": "ym2612"
    },
    {
      "channel": 1,
      "note": 68,
      "start": 18.3559,
      "duration": 0.1016,
      "velocity": 94,
      "chip": "ym2612"
    },
    {
      "channel": 2,
      "note": 68,
      "start": 18.3564,
      "duration": 0.1016,
      "velocity": 109,
      "chip": "ym2612"
    },
    {
      "channel": 3,
      "note": 103,
      "start": 18.3569,
      "duration": 0.1016,
      "velocity": 127,
      "chip": "ym2612"
    },
    {
      "channel": 1,
      "note": 59,
      "start": 18.4577,
      "duration": 0.4296,
      "velocity": 94,
      "chip": "ym2612"
    },
    {
      "channel": 2,
      "note": 59,
      "start": 18.4582,
      "duration": 0.431,
      "velocity": 109,
      "chip": "ym2612"
    },
    {
      "channel": 3,
      "note": 103,
      "start": 18.4587,
      "duration": 0.0945,
      "velocity": 127,
      "chip": "ym2612"
    },
    {
      "channel": 3,
      "note": 103,
      "start": 18.5534,
      "duration": 0.0957,
      "velocity": 127,
      "chip": "ym2612"
    },
    {
      "channel": 3,
      "note": 103,
      "start": 18.6494,
      "duration": 0.1228,
      "velocity": 127,
      "chip": "ym2612"
    },
    {
      "channel": 3,
      "note": 103,
      "start": 18.7724,
      "duration": 0.1188,
      "velocity": 127,
      "chip": "ym2612"
    },
    {
      "channel": 1,
      "note": 62,
      "start": 18.8875,
      "duration": 0.1026,
      "velocity": 94,
      "chip": "ym2612"
    },
    {
      "channel": 2,
      "note": 62,
      "start": 18.8895,
      "duration": 0.1011,
      "velocity": 109,
      "chip": "ym2612"
    },
    {
      "channel": 3,
      "note": 103,
      "start": 18.8914,
      "duration": 0.0997,
      "velocity": 127,
      "chip": "ym2612"
    },
    {
      "channel": 1,
      "note": 69,
      "start": 18.9902,
      "duration": 0.1165,
      "velocity": 94,
      "chip": "ym2612"
    },
    {
      "channel": 2,
      "note": 69,
      "start": 18.9908,
      "duration": 0.1165,
      "velocity": 109,
      "chip": "ym2612"
    },
    {
      "channel": 3,
      "note": 103,
      "start": 18.9913,
      "duration": 0.1165,
      "velocity": 127,
      "chip": "ym2612"
    },
    {
      "channel": 1,
      "note": 70,
      "start": 19.1069,
      "duration": 0.1165,
      "velocity": 94,
      "chip": "ym2612"
    },
    {
      "channel": 2,
      "note": 70,
      "start": 19.1074,
      "duration": 0.1165,
      "velocity": 109,
      "chip": "ym2612"
    },
    {
      "channel": 3,
      "note": 103,
      "start": 19.1079,
      "duration": 0.1165,
      "velocity": 127,
      "chip": "ym2612"
    },
    {
      "channel": 1,
      "note": 61,
      "start": 19.2236,
      "duration": 0.6596,
      "velocity": 94,
      "chip": "ym2612"
    },
    {
      "channel": 2,
      "note": 61,
      "start": 19.2241,
      "duration": 0.661,
      "velocity": 109,
      "chip": "ym2612"
    },
    {
      "channel": 3,
      "note": 103,
      "start": 19.2246,
      "duration": 0.1205,
      "velocity": 127,
      "chip": "ym2612"
    },
    {
      "channel": 3,
      "note": 103,
      "start": 19.3454,
      "duration": 0.0953,
      "velocity": 127,
      "chip": "ym2612"
    },
    {
      "channel": 3,
      "note": 103,
      "start": 19.4408,
      "duration": 0.0959,
      "velocity": 127,
      "chip": "ym2612"
    },
    {
      "channel": 3,
      "note": 103,
      "start": 19.5369,
      "duration": 0.105,
      "velocity": 127,
      "chip": "ym2612"
    },
    {
      "channel": 3,
      "note": 103,
      "start": 19.6421,
      "duration": 0.1165,
      "velocity": 127,
      "chip": "ym2612"
    },
    {
      "channel": 3,
      "note": 103,
      "start": 19.7587,
      "duration": 0.1269,
      "velocity": 127,
      "chip": "ym2612"
    },
    {
      "channel": 1,
      "note": 62,
      "start": 19.8833,
      "duration": 0.1165,
      "velocity": 94,
      "chip": "ym2612"
    },
    {
      "channel": 2,
      "note": 62,
      "start": 19.8852,
      "duration": 0.1151,
      "velocity": 109,
      "chip": "ym2612"
    },
    {
      "channel": 3,
      "note": 103,
      "start": 19.8858,
      "duration": 0.1151,
      "velocity": 127,
      "chip": "ym2612"
    },
    {
      "channel": 1,
      "note": 69,
      "start": 20.0,
      "duration": 0.1165,
      "velocity": 94,
      "chip": "ym2612"
    },
    {
      "channel": 2,
      "note": 69,
      "start": 20.0005,
      "duration": 0.1165,
      "velocity": 109,
      "chip": "ym2612"
    },
    {
      "channel": 3,
      "note": 103,
      "start": 20.001,
      "duration": 0.1166,
      "velocity": 127,
      "chip": "ym2612"
    },
    {
      "channel": 1,
      "note": 70,
      "start": 20.1167,
      "duration": 0.1011,
      "velocity": 94,
      "chip": "ym2612"
    },
    {
      "channel": 2,
      "note": 70,
      "start": 20.1172,
      "duration": 0.1011,
      "velocity": 109,
      "chip": "ym2612"
    },
    {
      "channel": 3,
      "note": 103,
      "start": 20.1177,
      "duration": 0.1011,
      "velocity": 127,
      "chip": "ym2612"
    },
    {
      "channel": 1,
      "note": 61,
      "start": 20.218,
      "duration": 0.4266,
      "velocity": 94,
      "chip": "ym2612"
    },
    {
      "channel": 2,
      "note": 61,
      "start": 20.2185,
      "duration": 0.428,
      "velocity": 109,
      "chip": "ym2612"
    },
    {
      "channel": 3,
      "note": 103,
      "start": 20.219,
      "duration": 0.0944,
      "velocity": 127,
      "chip": "ym2612"
    },
    {
      "channel": 3,
      "note": 103,
      "start": 20.3137,
      "duration": 0.1091,
      "velocity": 127,
      "chip": "ym2612"
    },
    {
      "channel": 3,
      "note": 103,
      "start": 20.4229,
      "duration": 0.1064,
      "velocity": 127,
      "chip": "ym2612"
    },
    {
      "channel": 3,
      "note": 103,
      "start": 20.5296,
      "duration": 0.1189,
      "velocity": 127,
      "chip": "ym2612"
    },
    {
      "channel": 1,
      "note": 62,
      "start": 20.6448,
      "duration": 0.1037,
      "velocity": 94,
      "chip": "ym2612"
    },
    {
      "channel": 2,
      "note": 62,
      "start": 20.6467,
      "duration": 0.1022,
      "velocity": 109,
      "chip": "ym2612"
    },
    {
      "channel": 3,
      "note": 103,
      "start": 20.6486,
      "duration": 0.1008,
      "velocity": 127,
      "chip": "ym2612"
    },
    {
      "channel": 1,
      "note": 69,
      "start": 20.7485,
      "duration": 0.1165,
      "velocity": 94,
      "chip": "ym2612"
    },
    {
      "channel": 2,
      "note": 69,
      "start": 20.7491,
      "duration": 0.1165,
      "velocity": 109,
      "chip": "ym2612"
    },
    {
      "channel": 3,
      "note": 103,
      "start": 20.7496,
      "duration": 0.1165,
      "velocity": 127,
      "chip": "ym2612"
    },
    {
      "channel": 1,
      "note": 70,
      "start": 20.8651,
      "duration": 0.1332,
      "velocity": 94,
      "chip": "ym2612"
    },
    {
      "channel": 2,
      "note": 70,
      "start": 20.8657,
      "duration": 0.1332,
      "velocity": 109,
      "chip": "ym2612"
    },
    {
      "channel": 3,
      "note": 103,
      "start": 20.8662,
      "duration": 0.1332,
      "velocity": 127,
      "chip": "ym2612"
    },
    {
      "channel": 1,
      "note": 61,
      "start": 20.9985,
      "duration": 0.6414,
      "velocity": 94,
      "chip": "ym2612"
    },
    {
      "channel": 2,
      "note": 61,
      "start": 20.9991,
      "duration": 0.6428,
      "velocity": 109,
      "chip": "ym2612"
    },
    {
      "channel": 3,
      "note": 103,
      "start": 20.9996,
      "duration": 0.1064,
      "velocity": 127,
      "chip": "ym2612"
    },
    {
      "channel": 3,
      "note": 103,
      "start": 21.1061,
      "duration": 0.0954,
      "velocity": 127,
      "chip": "ym2612"
    },
    {
      "channel": 3,
      "note": 103,
      "start": 21.2017,
      "duration": 0.0962,
      "velocity": 127,
      "chip": "ym2612"
    },
    {
      "channel": 3,
      "note": 103,
      "start": 21.2981,
      "duration": 0.1052,
      "velocity": 127,
      "chip": "ym2612"
    },
    {
      "channel": 3,
      "note": 103,
      "start": 21.4035,
      "duration": 0.1332,
      "velocity": 127,
      "chip": "ym2612"
    },
    {
      "channel": 3,
      "note": 103,
      "start": 21.5368,
      "duration": 0.1056,
      "velocity": 127,
      "chip": "ym2612"
    },
    {
      "channel": 1,
      "note": 62,
      "start": 21.6401,
      "duration": 0.1165,
      "velocity": 94,
      "chip": "ym2612"
    },
    {
      "channel": 2,
      "note": 62,
      "start": 21.6421,
      "duration": 0.115,
      "velocity": 109,
      "chip": "ym2612"
    },
    {
      "channel": 3,
      "note": 103,
      "start": 21.6426,
      "duration": 0.115,
      "velocity": 127,
      "chip": "ym2612"
    },
    {
      "channel": 1,
      "note": 69,
      "start": 21.7568,
      "duration": 0.1165,
      "velocity": 94,
      "chip": "ym2612"
    },
    {
      "channel": 2,
      "note": 69,
      "start": 21.7573,
      "duration": 0.1165,
      "velocity": 109,
      "chip": "ym2612"
    },
    {
      "channel": 3,
      "note": 103,
      "start": 21.7578,
      "duration": 0.1165,
      "velocity": 127,
      "chip": "ym2612"
    },
    {
      "channel": 1,
      "note": 70,
      "start": 21.8734,
      "duration": 0.1009,
      "velocity": 94,
      "chip": "ym2612"
    },
    {
      "channel": 2,
      "note": 70,
      "start": 21.8739,
      "duration": 0.1009,
      "velocity": 109,
      "chip": "ym2612"
    },
    {
      "channel": 3,
      "note": 103,
      "start": 21.8744,
      "duration": 0.1009,
      "velocity": 127,
      "chip": "ym2612"
    },
    {
      "channel": 1,
      "note": 61,
      "start": 21.9745,
      "duration": 0.4011,
      "velocity": 94,
      "chip": "ym2612"
    },
    {
      "channel": 2,
      "note": 61,
      "start": 21.9751,
      "duration": 0.4025,
      "velocity": 109,
      "chip": "ym2612"
    },
    {
      "channel": 3,
      "note": 103,
      "start": 21.9756,
      "duration": 0.1092,
      "velocity": 127,
      "chip": "ym2612"
    },
    {
      "channel": 3,
      "note": 103,
      "start": 22.0849,
      "duration": 0.0957,
      "velocity": 127,
      "chip": "ym2612"
    },
    {
      "channel": 3,
      "note": 103,
      "start": 22.1808,
      "duration": 0.0978,
      "velocity": 127,
      "chip": "ym2612"
    },
    {
      "channel": 3,
      "note": 103,
      "start": 22.2788,
      "duration": 0.1007,
      "velocity": 127,
      "chip": "ym2612"
    },
    {
      "channel": 0,
      "note": 72,
      "start": 22.3753,
      "duration": 0.1059,
      "velocity": 121,
      "chip": "ym2612"
    },
    {
      "channel": 1,
      "note": 60,
      "start": 22.3758,
      "duration": 0.1059,
      "velocity": 94,
      "chip": "ym2612"
    },
    {
      "channel": 2,
      "note": 60,
      "start": 22.3778,
      "duration": 0.1044,
      "velocity": 109,
      "chip": "ym2612"
    },
    {
      "channel": 3,
      "note": 103,
      "start": 22.3797,
      "duration": 0.103,
      "velocity": 127,
      "chip": "ym2612"
    },
    {
      "channel": 0,
      "note": 75,
      "start": 22.4813,
      "duration": 0.1331,
      "velocity": 121,
      "chip": "ym2612"
    },
    {
      "channel": 1,
      "note": 67,
      "start": 22.4818,
      "duration": 0.1331,
      "velocity": 94,
      "chip": "ym2612"
    },
    {
      "channel": 2,
      "note": 67,
      "start": 22.4823,
      "duration": 0.1332,
      "velocity": 109,
      "chip": "ym2612"
    },
    {
      "channel": 3,
      "note": 103,
      "start": 22.4828,
      "duration": 0.1331,
      "velocity": 127,
      "chip": "ym2612"
    },
    {
      "channel": 0,
      "note": 79,
      "start": 22.6146,
      "duration": 0.413,
      "velocity": 121,
      "chip": "ym2612"
    },
    {
      "channel": 1,
      "note": 68,
      "start": 22.6151,
      "duration": 0.1161,
      "velocity": 94,
      "chip": "ym2612"
    },
    {
      "channel": 2,
      "note": 68,
      "start": 22.6156,
      "duration": 0.1161,
      "velocity": 109,
      "chip": "ym2612"
    },
    {
      "channel": 3,
      "note": 103,
      "start": 22.6161,
      "duration": 0.1161,
      "velocity": 127,
      "chip": "ym2612"
    },
    {
      "channel": 1,
      "note": 59,
      "start": 22.7313,
      "duration": 0.6402,
      "velocity": 94,
      "chip": "ym2612"
    },
    {
      "channel": 2,
      "note": 59,
      "start": 22.7318,
      "duration": 0.6416,
      "velocity": 109,
      "chip": "ym2612"
    },
    {
      "channel": 3,
      "note": 103,
      "start": 22.7323,
      "duration": 0.1036,
      "velocity": 127,
      "chip": "ym2612"
    },
    {
      "channel": 3,
      "note": 103,
      "start": 22.8362,
      "duration": 0.0952,
      "velocity": 127,
      "chip": "ym2612"
    },
    {
      "channel": 3,
      "note": 103,
      "start": 22.9315,
      "duration": 0.0966,
      "velocity": 127,
      "chip": "ym2612"
    },
    {
      "channel": 0,
      "note": 79,
      "start": 23.0277,
      "duration": 0.2401,
      "velocity": 121,
      "chip": "ym2612"
    },
    {
      "channel": 3,
      "note": 103,
      "start": 23.0283,
      "duration": 0.123,
      "velocity": 127,
      "chip": "ym2612"
    },
    {
      "channel": 3,
      "note": 103,
      "start": 23.1515,
      "duration": 0.117,
      "velocity": 127,
      "chip": "ym2612"
    },
    {
      "channel": 0,
      "note": 82,
      "start": 23.268,
      "duration": 0.4566,
      "velocity": 121,
      "chip": "ym2612"
    },
    {
      "channel": 3,
      "note": 103,
      "start": 23.2686,
      "duration": 0.1053,
      "velocity": 127,
      "chip": "ym2612"
    },
    {
      "channel": 1,
      "note": 60,
      "start": 23.3717,
      "duration": 0.1164,
      "velocity": 94,
      "chip": "ym2612"
    },
    {
      "channel": 2,
      "note": 60,
      "start": 23.3736,
      "duration": 0.115,
      "velocity": 109,
      "chip": "ym2612"
    },
    {
      "channel": 3,
      "note": 103,
      "start": 23.3741,
      "duration": 0.115,
      "velocity": 127,
      "chip": "ym2612"
    },
    {
      "channel": 1,
      "note": 67,
      "start": 23.4883,
      "duration": 0.1165,
      "velocity": 94,
      "chip": "ym2612"
    },
    {
      "channel": 2,
      "note": 67,
      "start": 23.4888,
      "duration": 0.1165,
      "velocity": 109,
      "chip": "ym2612"
    },
    {
      "channel": 3,
      "note": 103,
      "start": 23.4893,
      "duration": 0.1165,
      "velocity": 127,
      "chip": "ym2612"
    },
    {
      "channel": 1,
      "note": 68,
      "start": 23.605,
      "duration": 0.1201,
      "velocity": 94,
      "chip": "ym2612"
    },
    {
      "channel": 2,
      "note": 68,
      "start": 23.6055,
      "duration": 0.1201,
      "velocity": 109,
      "chip": "ym2612"
    },
    {
      "channel": 3,
      "note": 103,
      "start": 23.606,
      "duration": 0.1201,
      "velocity": 127,
      "chip": "ym2612"
    },
    {
      "channel": 0,
      "note": 78,
      "start": 23.7248,
      "duration": 0.4156,
      "velocity": 121,
      "chip": "ym2612"
    },
    {
      "channel": 1,
      "note": 59,
      "start": 23.7253,
      "duration": 0.4155,
      "velocity": 94,
      "chip": "ym2612"
    },
    {
      "channel": 2,
      "note": 59,
      "start": 23.7258,
      "duration": 0.4169,
      "velocity": 109,
      "chip": "ym2612"
    },
    {
      "channel": 3,
      "note": 103,
      "start": 23.7263,
      "duration": 0.0945,
      "velocity": 127,
      "chip": "ym2612"
    },
    {
      "channel": 3,
      "note": 103,
      "start": 23.821,
      "duration": 0.0959,
      "velocity": 127,
      "chip": "ym2612"
    },
    {
      "channel": 3,
      "note": 103,
      "start": 23.9171,
      "duration": 0.1081,
      "velocity": 127,
      "chip": "ym2612"
    },
    {
      "channel": 3,
      "note": 103,
      "start": 24.0254,
      "duration": 0.1194,
      "velocity": 127,
      "chip": "ym2612"
    },
    {
      "channel": 0,
      "note": 72,
      "start": 24.1405,
      "duration": 0.1258,
      "velocity": 121,
      "chip": "ym2612"
    },
    {
      "channel": 1,
      "note": 60,
      "start": 24.1411,
      "duration": 0.1257,
      "velocity": 94,
      "chip": "ym2612"
    },
    {
      "channel": 2,
      "note": 60,
      "start": 24.143,
      "duration": 0.1244,
      "velocity": 109,
      "chip": "ym2612"
    },
    {
      "channel": 3,
      "note": 103,
      "start": 24.1449,
      "duration": 0.1229,
      "velocity": 127,
      "chip": "ym2612"
    },
    {
      "channel": 0,
      "note": 75,
      "start": 24.2665,
      "duration": 0.1164,
      "velocity": 121,
      "chip": "ym2612"
    },
    {
      "channel": 1,
      "note": 67,
      "start": 24.2669,
      "duration": 0.1165,
      "velocity": 94,
      "chip": "ym2612"
    },
    {
      "channel": 2,
      "note": 67,
      "start": 24.2674,
      "duration": 0.1165,
      "velocity": 109,
      "chip": "ym2612"
    },
    {
      "channel": 3,
      "note": 103,
      "start": 24.268,
      "duration": 0.1165,
      "velocity": 127,
      "chip": "ym2612"
    },
    {
      "channel": 0,
      "note": 79,
      "start": 24.3831,
      "duration": 0.425,
      "velocity": 121,
      "chip": "ym2612"
    },
    {
      "channel": 1,
      "note": 68,
      "start": 24.3836,
      "duration": 0.1161,
      "velocity": 94,
      "chip": "ym2612"
    },
    {
      "channel": 2,
      "note": 68,
      "start": 24.3841,
      "duration": 0.1161,
      "velocity": 109,
      "chip": "ym2612"
    },
    {
      "channel": 3,
      "note": 103,
      "start": 24.3846,
      "duration": 0.1161,
      "velocity": 127,
      "chip": "ym2612"
    },
    {
      "channel": 1,
      "note": 59,
      "start": 24.4999,
      "duration": 0.6346,
      "velocity": 94,
      "chip": "ym2612"
    },
    {
      "channel": 2,
      "note": 59,
      "start": 24.5003,
      "duration": 0.636,
      "velocity": 109,
      "chip": "ym2612"
    },
    {
      "channel": 3,
      "note": 103,
      "start": 24.5008,
      "duration": 0.1022,
      "velocity": 127,
      "chip": "ym2612"
    },
    {
      "channel": 3,
      "note": 103,
      "start": 24.6033,
      "duration": 0.0955,
      "velocity": 127,
      "chip": "ym2612"
    },
    {
      "channel": 3,
      "note": 103,
      "start": 24.6989,
      "duration": 0.1098,
      "velocity": 127,
      "chip": "ym2612"
    },
    {
      "channel": 0,
      "note": 79,
      "start": 24.8082,
      "duration": 0.2219,
      "velocity": 121,
      "chip": "ym2612"
    },
    {
      "channel": 3,
      "note": 103,
      "start": 24.8089,
      "duration": 0.1047,
      "velocity": 127,
      "chip": "ym2612"
    },
    {
      "channel": 3,
      "note": 103,
      "start": 24.9137,
      "duration": 0.117,
      "velocity": 127,
      "chip": "ym2612"
    },
    {
      "channel": 0,
      "note": 82,
      "start": 25.0303,
      "duration": 0.4631,
      "velocity": 121,
      "chip": "ym2612"
    },
    {
      "channel": 3,
      "note": 103,
      "start": 25.0309,
      "duration": 0.1059,
      "velocity": 127,
      "chip": "ym2612"
    },
    {
      "channel": 1,
      "note": 60,
      "start": 25.1346,
      "duration": 0.1165,
      "velocity": 94,
      "chip": "ym2612"
    },
    {
      "channel": 2,
      "note": 60,
      "start": 25.1365,
      "duration": 0.115,
      "velocity": 109,
      "chip": "ym2612"
    },
    {
      "channel": 3,
      "note": 103,
      "start": 25.1371,
      "duration": 0.115,
      "velocity": 127,
      "chip": "ym2612"
    },
    {
      "channel": 1,
      "note": 67,
      "start": 25.2512,
      "duration": 0.1332,
      "velocity": 94,
      "chip": "ym2612"
    },
    {
      "channel": 2,
      "note": 67,
      "start": 25.2517,
      "duration": 0.1331,
      "velocity": 109,
      "chip": "ym2612"
    },
    {
      "channel": 3,
      "note": 103,
      "start": 25.2522,
      "duration": 0.1332,
      "velocity": 127,
      "chip": "ym2612"
    },
    {
      "channel": 1,
      "note": 68,
      "start": 25.3846,
      "duration": 0.1093,
      "velocity": 94,
      "chip": "ym2612"
    },
    {
      "channel": 2,
      "note": 68,
      "start": 25.3851,
      "duration": 0.1093,
      "velocity": 109,
      "chip": "ym2612"
    },
    {
      "channel": 3,
      "note": 103,
      "start": 25.3856,
      "duration": 0.1093,
      "velocity": 127,
      "chip": "ym2612"
    },
    {
      "channel": 0,
      "note": 78,
      "start": 25.4935,
      "duration": 0.4286,
      "velocity": 121,
      "chip": "ym2612"
    },
    {
      "channel": 1,
      "note": 59,
      "start": 25.494,
      "duration": 0.4286,
      "velocity": 94,
      "chip": "ym2612"
    },
    {
      "channel": 2,
      "note": 59,
      "start": 25.4945,
      "duration": 0.43,
      "velocity": 109,
      "chip": "ym2612"
    },
    {
      "channel": 3,
      "note": 103,
      "start": 25.495,
      "duration": 0.0943,
      "velocity": 127,
      "chip": "ym2612"
    },
    {
      "channel": 3,
      "note": 103,
      "start": 25.5895,
      "duration": 0.096,
      "velocity": 127,
      "chip": "ym2612"
    },
    {
      "channel": 3,
      "note": 103,
      "start": 25.6857,
      "duration": 0.1045,
      "velocity": 127,
      "chip": "ym2612"
    },
    {
      "channel": 3,
      "note": 103,
      "start": 25.7904,
      "duration": 0.1361,
      "velocity": 127,
      "chip": "ym2612"
    },
    {
      "channel": 0,
      "note": 74,
      "start": 25.9223,
      "duration": 0.1046,
      "velocity": 121,
      "chip": "ym2612"
    },
    {
      "channel": 1,
      "note": 62,
      "start": 25.9228,
      "duration": 0.1046,
      "velocity": 94,
      "chip": "ym2612"
    },
    {
      "channel": 2,
      "note": 62,
      "start": 25.9247,
      "duration": 0.1032,
      "velocity": 109,
      "chip": "ym2612"
    },
    {
      "channel": 3,
      "note": 103,
      "start": 25.9267,
      "duration": 0.1017,
      "velocity": 127,
      "chip": "ym2612"
    },
    {
      "channel": 0,
      "note": 77,
      "start": 26.0271,
      "duration": 0.1165,
      "velocity": 121,
      "chip": "ym2612"
    },
    {
      "channel": 1,
      "note": 69,
      "start": 26.0276,
      "duration": 0.1164,
      "velocity": 94,
      "chip": "ym2612"
    },
    {
      "channel": 2,
      "note": 69,
      "start": 26.0281,
      "duration": 0.1164,
      "velocity": 109,
      "chip": "ym2612"
    },
    {
      "channel": 3,
      "note": 103,
      "start": 26.0286,
      "duration": 0.1165,
      "velocity": 127,
      "chip": "ym2612"
    },
    {
      "channel": 0,
      "note": 81,
      "start": 26.1437,
      "duration": 0.4248,
      "velocity": 121,
      "chip": "ym2612"
    },
    {
      "channel": 1,
      "note": 70,
      "start": 26.1442,
      "duration": 0.1161,
      "velocity": 94,
      "chip": "ym2612"
    },
    {
      "channel": 2,
      "note": 70,
      "start": 26.1447,
      "duration": 0.1161,
      "velocity": 109,
      "chip": "ym2612"
    },
    {
      "channel": 3,
      "note": 103,
      "start": 26.1452,
      "duration": 0.1161,
      "velocity": 127,
      "chip": "ym2612"
    },
    {
      "channel": 1,
      "note": 61,
      "start": 26.2604,
      "duration": 0.6374,
      "velocity": 94,
      "chip": "ym2612"
    },
    {
      "channel": 2,
      "note": 61,
      "start": 26.2609,
      "duration": 0.6388,
      "velocity": 109,
      "chip": "ym2612"
    },
    {
      "channel": 3,
      "note": 103,
      "start": 26.2614,
      "duration": 0.1021,
      "velocity": 127,
      "chip": "ym2612"
    },
    {
      "channel": 3,
      "note": 103,
      "start": 26.3637,
      "duration": 0.1092,
      "velocity": 127,
      "chip": "ym2612"
    },
    {
      "channel": 3,
      "note": 103,
      "start": 26.4731,
      "duration": 0.096,
      "velocity": 127,
      "chip": "ym2612"
    },
    {
      "channel": 0,
      "note": 81,
      "start": 26.5686,
      "duration": 0.2241,
      "velocity": 121,
      "chip": "ym2612"
    },
    {
      "channel": 3,
      "note": 103,
      "start": 26.5693,
      "duration": 0.107,
      "velocity": 127,
      "chip": "ym2612"
    },
    {
      "channel": 3,
      "note": 103,
      "start": 26.6764,
      "duration": 0.117,
      "velocity": 127,
      "chip": "ym2612"
    },
    {
      "channel": 0,
      "note": 84,
      "start": 26.7929,
      "duration": 0.4602,
      "velocity": 121,
      "chip": "ym2612"
    },
    {
      "channel": 3,
      "note": 103,
      "start": 26.7935,
      "duration": 0.1067,
      "velocity": 127,
      "chip": "ym2612"
    },
    {
      "channel": 1,
      "note": 62,
      "start": 26.8979,
      "duration": 0.1332,
      "velocity": 94,
      "chip": "ym2612"
    },
    {
      "channel": 2,
      "note": 62,
      "start": 26.8999,
      "duration": 0.1317,
      "velocity": 109,
      "chip": "ym2612"
    },
    {
      "channel": 3,
      "note": 103,
      "start": 26.9004,
      "duration": 0.1317,
      "velocity": 127,
      "chip": "ym2612"
    },
    {
      "channel": 1,
      "note": 69,
      "start": 27.0312,
      "duration": 0.1165,
      "velocity": 94,
      "chip": "ym2612"
    },
    {
      "channel": 2,
      "note": 69,
      "start": 27.0318,
      "duration": 0.1165,
      "velocity": 109,
      "chip": "ym2612"
    },
    {
      "channel": 3,
      "note": 103,
      "start": 27.0323,
      "duration": 0.1165,
      "velocity": 127,
      "chip": "ym2612"
    },
    {
      "channel": 1,
      "note": 70,
      "start": 27.1479,
      "duration": 0.1057,
      "velocity": 94,
      "chip": "ym2612"
    },
    {
      "channel": 2,
      "note": 70,
      "start": 27.1484,
      "duration": 0.1057,
      "velocity": 109,
      "chip": "ym2612"
    },
    {
      "channel": 3,
      "note": 103,
      "start": 27.1489,
      "duration": 0.1057,
      "velocity": 127,
      "chip": "ym2612"
    },
    {
      "channel": 0,
      "note": 80,
      "start": 27.2533,
      "duration": 0.4275,
      "velocity": 121,
      "chip": "ym2612"
    },
    {
      "channel": 1,
      "note": 61,
      "start": 27.2538,
      "duration": 0.4275,
      "velocity": 94,
      "chip": "ym2612"
    },
    {
      "channel": 2,
      "note": 61,
      "start": 27.2543,
      "duration": 0.4289,
      "velocity": 109,
      "chip": "ym2612"
    },
    {
      "channel": 3,
      "note": 103,
      "start": 27.2548,
      "duration": 0.0941,
      "velocity": 127,
      "chip": "ym2612"
    },
    {
      "channel": 3,
      "note": 103,
      "start": 27.3491,
      "duration": 0.0958,
      "velocity": 127,
      "chip": "ym2612"
    },
    {
      "channel": 3,
      "note": 103,
      "start": 27.4451,
      "duration": 0.1205,
      "velocity": 127,
      "chip": "ym2612"
    },
    {
      "channel": 3,
      "note": 103,
      "start": 27.5658,
      "duration": 0.1193,
      "velocity": 127,
      "chip": "ym2612"
    },
    {
      "channel": 0,
      "note": 74,
      "start": 27.6809,
      "duration": 0.1069,
      "velocity": 121,
      "chip": "ym2612"
    },
    {
      "channel": 1,
      "note": 62,
      "start": 27.6814,
      "duration": 0.1069,
      "velocity": 94,
      "chip": "ym2612"
    },
    {
      "channel": 2,
      "note": 62,
      "start": 27.6834,
      "duration": 0.1055,
      "velocity": 109,
      "chip": "ym2612"
    },
    {
      "channel": 3,
      "note": 103,
      "start": 27.6853,
      "duration": 0.104,
      "velocity": 127,
      "chip": "ym2612"
    },
    {
      "channel": 0,
      "note": 77,
      "start": 27.788,
      "duration": 0.1165,
      "velocity": 121,
      "chip": "ym2612"
    },
    {
      "channel": 1,
      "note": 69,
      "start": 27.7885,
      "duration": 0.1164,
      "velocity": 94,
      "chip": "ym2612"
    },
    {
      "channel": 2,
      "note": 69,
      "start": 27.789,
      "duration": 0.1164,
      "velocity": 109,
      "chip": "ym2612"
    },
    {
      "channel": 3,
      "note": 103,
      "start": 27.7895,
      "duration": 0.1165,
      "velocity": 127,
      "chip": "ym2612"
    },
    {
      "channel": 0,
      "note": 81,
      "start": 27.9046,
      "duration": 0.4266,
      "velocity": 121,
      "chip": "ym2612"
    },
    {
      "channel": 1,
      "note": 70,
      "start": 27.9051,
      "duration": 0.1161,
      "velocity": 94,
      "chip": "ym2612"
    },
    {
      "channel": 2,
      "note": 70,
      "start": 27.9056,
      "duration": 0.1161,
      "velocity": 109,
      "chip": "ym2612"
    },
    {
      "channel": 3,
      "note": 103,
      "start": 27.9061,
      "duration": 0.1161,
      "velocity": 127,
      "chip": "ym2612"
    },
    {
      "channel": 1,
      "note": 61,
      "start": 28.0213,
      "duration": 0.6542,
      "velocity": 94,
      "chip": "ym2612"
    },
    {
      "channel": 2,
      "note": 61,
      "start": 28.0218,
      "duration": 0.6556,
      "velocity": 109,
      "chip": "ym2612"
    },
    {
      "channel": 3,
      "note": 103,
      "start": 28.0223,
      "duration": 0.1172,
      "velocity": 127,
      "chip": "ym2612"
    },
    {
      "channel": 3,
      "note": 103,
      "start": 28.1398,
      "duration": 0.0954,
      "velocity": 127,
      "chip": "ym2612"
    },
    {
      "channel": 3,
      "note": 103,
      "start": 28.2353,
      "duration": 0.0965,
      "velocity": 127,
      "chip": "ym2612"
    },
    {
      "channel": 0,
      "note": 81,
      "start": 28.3314,
      "duration": 0.2217,
      "velocity": 121,
      "chip": "ym2612"
    },
    {
      "channel": 3,
      "note": 103,
      "start": 28.332,
      "duration": 0.1046,
      "velocity": 127,
      "chip": "ym2612"
    },
    {
      "channel": 3,
      "note": 103,
      "start": 28.4367,
      "duration": 0.117,
      "velocity": 127,
      "chip": "ym2612"
    },
    {
      "channel": 0,
      "note": 84,
      "start": 28.5533,
      "duration": 0.4648,
      "velocity": 121,
      "chip": "ym2612"
    },
    {
      "channel": 3,
      "note": 103,
      "start": 28.5539,
      "duration": 0.1241,
      "velocity": 127,
      "chip": "ym2612"
    },
    {
      "channel": 1,
      "note": 62,
      "start": 28.6757,
      "duration": 0.1164,
      "velocity": 94,
      "chip": "ym2612"
    },
    {
      "channel": 2,
      "note": 62,
      "start": 28.6776,
      "duration": 0.115,
      "velocity": 109,
      "chip": "ym2612"
    },
    {
      "channel": 3,
      "note": 103,
      "start": 28.6782,
      "duration": 0.115,
      "velocity": 127,
      "chip": "ym2612"
    },
    {
      "channel": 1,
      "note": 69,
      "start": 28.7923,
      "duration": 0.1165,
      "velocity": 94,
      "chip": "ym2612"
    },
    {
      "channel": 2,
      "note": 69,
      "start": 28.7929,
      "duration": 0.1165,
      "velocity": 109,
      "chip": "ym2612"
    },
    {
      "channel": 3,
      "note": 103,
      "start": 28.7934,
      "duration": 0.1165,
      "velocity": 127,
      "chip": "ym2612"
    },
    {
      "channel": 1,
      "note": 70,
      "start": 28.909,
      "duration": 0.1096,
      "velocity": 94,
      "chip": "ym2612"
    },
    {
      "channel": 2,
      "note": 70,
      "start": 28.9095,
      "duration": 0.1096,
      "velocity": 109,
      "chip": "ym2612"
    },
    {
      "channel": 3,
      "note": 103,
      "start": 28.91,
      "duration": 0.1096,
      "velocity": 127,
      "chip": "ym2612"
    },
    {
      "channel": 0,
      "note": 80,
      "start": 29.0182,
      "duration": 0.3989,
      "velocity": 109,
      "chip": "ym2612"
    },
    {
      "channel": 1,
      "note": 61,
      "start": 29.0187,
      "duration": 0.3989,
      "velocity": 94,
      "chip": "ym2612"
    },
    {
      "channel": 2,
      "note": 61,
      "start": 29.0192,
      "duration": 0.4003,
      "velocity": 112,
      "chip": "ym2612"
    },
    {
      "channel": 3,
      "note": 103,
      "start": 29.0198,
      "duration": 0.094,
      "velocity": 127,
      "chip": "ym2612"
    },
    {
      "channel": 3,
      "note": 103,
      "start": 29.114,
      "duration": 0.1098,
      "velocity": 127,
      "chip": "ym2612"
    },
    {
      "channel": 3,
      "note": 103,
      "start": 29.2239,
      "duration": 0.0968,
      "velocity": 127,
      "chip": "ym2612"
    },
    {
      "channel": 3,
      "note": 103,
      "start": 29.3209,
      "duration": 0.1006,
      "velocity": 127,
      "chip": "ym2612"
    },
    {
      "channel": 0,
      "note": 60,
      "start": 29.4173,
      "duration": 0.103,
      "velocity": 109,
      "chip": "ym2612"
    },
    {
      "channel": 1,
      "note": 60,
      "start": 29.4178,
      "duration": 0.1029,
      "velocity": 94,
      "chip": "ym2612"
    },
    {
      "channel": 2,
      "note": 87,
      "start": 29.4198,
      "duration": 1.7505,
      "velocity": 112,
      "chip": "ym2612"
    },
    {
      "channel": 3,
      "note": 103,
      "start": 29.4217,
      "duration": 0.0996,
      "velocity": 127,
      "chip": "ym2612"
    },
    {
      "channel": 4,
      "note": 72,
      "start": 29.4236,
      "duration": 0.0982,
      "velocity": 121,
      "chip": "ym2612"
    },
    {
      "channel": 0,
      "note": 67,
      "start": 29.5205,
      "duration": 0.1165,
      "velocity": 109,
      "chip": "ym2612"
    },
    {
      "channel": 1,
      "note": 67,
      "start": 29.521,
      "duration": 0.1164,
      "velocity": 94,
      "chip": "ym2612"
    },
    {
      "channel": 3,
      "note": 103,
      "start": 29.5215,
      "duration": 0.1164,
      "velocity": 127,
      "chip": "ym2612"
    },
    {
      "channel": 4,
      "note": 75,
      "start": 29.522,
      "duration": 0.1164,
      "velocity": 121,
      "chip": "ym2612"
    },
    {
      "channel": 0,
      "note": 68,
      "start": 29.6371,
      "duration": 0.1332,
      "velocity": 109,
      "chip": "ym2612"
    },
    {
      "channel": 1,
      "note": 68,
      "start": 29.6376,
      "duration": 0.1332,
      "velocity": 94,
      "chip": "ym2612"
    },
    {
      "channel": 3,
      "note": 103,
      "start": 29.6381,
      "duration": 0.1332,
      "velocity": 127,
      "chip": "ym2612"
    },
    {
      "channel": 4,
      "note": 79,
      "start": 29.6387,
      "duration": 0.4284,
      "velocity": 121,
      "chip": "ym2612"
    },
    {
      "channel": 0,
      "note": 59,
      "start": 29.7705,
      "duration": 0.6359,
      "velocity": 109,
      "chip": "ym2612"
    },
    {
      "channel": 1,
      "note": 59,
      "start": 29.771,
      "duration": 0.6359,
      "velocity": 94,
      "chip": "ym2612"
    },
    {
      "channel": 3,
      "note": 103,
      "start": 29.7715,
      "duration": 0.104,
      "velocity": 127,
      "chip": "ym2612"
    },
    {
      "channel": 3,
      "note": 103,
      "start": 29.8757,
      "duration": 0.0953,
      "velocity": 127,
      "chip": "ym2612"
    },
    {
      "channel": 3,
      "note": 103,
      "start": 29.9712,
      "duration": 0.0954,
      "velocity": 127,
      "chip": "ym2612"
    },
    {
      "channel": 3,
      "note": 103,
      "start": 30.0668,
      "duration": 0.1026,
      "velocity": 127,
      "chip": "ym2612"
    },
    {
      "channel": 4,
      "note": 79,
      "start": 30.0673,
      "duration": 0.2359,
      "velocity": 121,
      "chip": "ym2612"
    },
    {
      "channel": 3,
      "note": 103,
      "start": 30.1695,
      "duration": 0.1332,
      "velocity": 127,
      "chip": "ym2612"
    },
    {
      "channel": 3,
      "note": 103,
      "start": 30.3028,
      "duration": 0.1046,
      "velocity": 127,
      "chip": "ym2612"
    },
    {
      "channel": 4,
      "note": 82,
      "start": 30.3033,
      "duration": 0.4377,
      "velocity": 121,
      "chip": "ym2612"
    },
    {
      "channel": 0,
      "note": 60,
      "start": 30.4066,
      "duration": 0.115,
      "velocity": 109,
      "chip": "ym2612"
    },
    {
      "channel": 1,
      "note": 60,
      "start": 30.4071,
      "duration": 0.115,
      "velocity": 94,
      "chip": "ym2612"
    },
    {
      "channel": 3,
      "note": 103,
      "start": 30.4077,
      "duration": 0.115,
      "velocity": 127,
      "chip": "ym2612"
    },
    {
      "channel": 0,
      "note": 67,
      "start": 30.5218,
      "duration": 0.1165,
      "velocity": 109,
      "chip": "ym2612"
    },
    {
      "channel": 1,
      "note": 67,
      "start": 30.5223,
      "duration": 0.1165,
      "velocity": 94,
      "chip": "ym2612"
    },
    {
      "channel": 3,
      "note": 103,
      "start": 30.5229,
      "duration": 0.1165,
      "velocity": 127,
      "chip": "ym2612"
    },
    {
      "channel": 0,
      "note": 68,
      "start": 30.6385,
      "duration": 0.101,
      "velocity": 109,
      "chip": "ym2612"
    },
    {
      "channel": 1,
      "note": 68,
      "start": 30.639,
      "duration": 0.101,
      "velocity": 94,
      "chip": "ym2612"
    },
    {
      "channel": 3,
      "note": 103,
      "start": 30.6395,
      "duration": 0.101,
      "velocity": 127,
      "chip": "ym2612"
    },
    {
      "channel": 0,
      "note": 59,
      "start": 30.7396,
      "duration": 0.4296,
      "velocity": 109,
      "chip": "ym2612"
    },
    {
      "channel": 1,
      "note": 59,
      "start": 30.7401,
      "duration": 0.4296,
      "velocity": 94,
      "chip": "ym2612"
    },
    {
      "channel": 3,
      "note": 103,
      "start": 30.7406,
      "duration": 0.109,
      "velocity": 127,
      "chip": "ym2612"
    },
    {
      "channel": 4,
      "note": 78,
      "start": 30.7412,
      "duration": 0.4315,
      "velocity": 121,
      "chip": "ym2612"
    },
    {
      "channel": 3,
      "note": 103,
      "start": 30.8498,
      "duration": 0.096,
      "velocity": 127,
      "chip": "ym2612"
    },
    {
      "channel": 3,
      "note": 103,
      "start": 30.9461,
      "duration": 0.1066,
      "velocity": 127,
      "chip": "ym2612"
    },
    {
      "channel": 3,
      "note": 103,
      "start": 31.0528,
      "duration": 0.1194,
      "velocity": 127,
      "chip": "ym2612"
    },
    {
      "channel": 0,
      "note": 60,
      "start": 31.1694,
      "duration": 0.1063,
      "velocity": 109,
      "chip": "ym2612"
    },
    {
      "channel": 1,
      "note": 60,
      "start": 31.1699,
      "duration": 0.1063,
      "velocity": 94,
      "chip": "ym2612"
    },
    {
      "channel": 2,
      "note": 86,
      "start": 31.1705,
      "duration": 1.762,
      "velocity": 112,
      "chip": "ym2612"
    },
    {
      "channel": 3,
      "note": 103,
      "start": 31.1724,
      "duration": 0.1044,
      "velocity": 127,
      "chip": "ym2612"
    },
    {
      "channel": 4,
      "note": 72,
      "start": 31.1729,
      "duration": 0.1044,
      "velocity": 121,
      "chip": "ym2612"
    },
    {
      "channel": 0,
      "note": 67,
      "start": 31.2759,
      "duration": 0.1332,
      "velocity": 109,
      "chip": "ym2612"
    },
    {
      "channel": 1,
      "note": 67,
      "start": 31.2764,
      "duration": 0.1331,
      "velocity": 94,
      "chip": "ym2612"
    },
    {
      "channel": 3,
      "note": 103,
      "start": 31.277,
      "duration": 0.1331,
      "velocity": 127,
      "chip": "ym2612"
    },
    {
      "channel": 4,
      "note": 75,
      "start": 31.2775,
      "duration": 0.1331,
      "velocity": 121,
      "chip": "ym2612"
    },
    {
      "channel": 0,
      "note": 68,
      "start": 31.4092,
      "duration": 0.1166,
      "velocity": 109,
      "chip": "ym2612"
    },
    {
      "channel": 1,
      "note": 68,
      "start": 31.4097,
      "duration": 0.1165,
      "velocity": 94,
      "chip": "ym2612"
    },
    {
      "channel": 3,
      "note": 103,
      "start": 31.4102,
      "duration": 0.1165,
      "velocity": 127,
      "chip": "ym2612"
    },
    {
      "channel": 4,
      "note": 79,
      "start": 31.4108,
      "duration": 0.4145,
      "velocity": 121,
      "chip": "ym2612"
    },
    {
      "channel": 0,
      "note": 59,
      "start": 31.5259,
      "duration": 0.6402,
      "velocity": 109,
      "chip": "ym2612"
    },
    {
      "channel": 1,
      "note": 59,
      "start": 31.5264,
      "duration": 0.6402,
      "velocity": 94,
      "chip": "ym2612"
    },
    {
      "channel": 3,
      "note": 103,
      "start": 31.527,
      "duration": 0.106,
      "velocity": 127,
      "chip": "ym2612"
    },
    {
      "channel": 3,
      "note": 103,
      "start": 31.6332,
      "duration": 0.0953,
      "velocity": 127,
      "chip": "ym2612"
    },
    {
      "channel": 3,
      "note": 103,
      "start": 31.7286,
      "duration": 0.0962,
      "velocity": 127,
      "chip": "ym2612"
    },
    {
      "channel": 3,
      "note": 103,
      "start": 31.825,
      "duration": 0.1214,
      "velocity": 127,
      "chip": "ym2612"
    },
    {
      "channel": 4,
      "note": 79,
      "start": 31.8255,
      "duration": 0.238,
      "velocity": 121,
      "chip": "ym2612"
    },
    {
      "channel": 3,
      "note": 103,
      "start": 31.9465,
      "duration": 0.1165,
      "velocity": 127,
      "chip": "ym2612"
    },
    {
      "channel": 3,
      "note": 103,
      "start": 32.0631,
      "duration": 0.104,
      "velocity": 127,
      "chip": "ym2612"
    },
    {
      "channel": 4,
      "note": 82,
      "start": 32.0636,
      "duration": 0.4558,
      "velocity": 121,
      "chip": "ym2612"
    },
    {
      "channel": 0,
      "note": 60,
      "start": 32.1662,
      "duration": 0.115,
      "velocity": 109,
      "chip": "ym2612"
    },
    {
      "channel": 1,
      "note": 60,
      "start": 32.1667,
      "duration": 0.115,
      "velocity": 94,
      "chip": "ym2612"
    },
    {
      "channel": 3,
      "note": 103,
      "start": 32.1673,
      "duration": 0.115,
      "velocity": 127,
      "chip": "ym2612"
    },
    {
      "channel": 0,
      "note": 67,
      "start": 32.2814,
      "duration": 0.1165,
      "velocity": 109,
      "chip": "ym2612"
    },
    {
      "channel": 1,
      "note": 67,
      "start": 32.2819,
      "duration": 0.1165,
      "velocity": 94,
      "chip": "ym2612"
    },
    {
      "channel": 3,
      "note": 103,
      "start": 32.2825,
      "duration": 0.1165,
      "velocity": 127,
      "chip": "ym2612"
    },
    {
      "channel": 0,
      "note": 68,
      "start": 32.3981,
      "duration": 0.1198,
      "velocity": 109,
      "chip": "ym2612"
    },
    {
      "channel": 1,
      "note": 68,
      "start": 32.3986,
      "duration": 0.1197,
      "velocity": 94,
      "chip": "ym2612"
    },
    {
      "channel": 3,
      "note": 103,
      "start": 32.3992,
      "duration": 0.1197,
      "velocity": 127,
      "chip": "ym2612"
    },
    {
      "channel": 0,
      "note": 59,
      "start": 32.518,
      "duration": 0.4135,
      "velocity": 109,
      "chip": "ym2612"
    },
    {
      "channel": 1,
      "note": 59,
      "start": 32.5185,
      "duration": 0.4135,
      "velocity": 94,
      "chip": "ym2612"
    },
    {
      "channel": 3,
      "note": 103,
      "start": 32.519,
      "duration": 0.0955,
      "velocity": 127,
      "chip": "ym2612"
    },
    {
      "channel": 4,
      "note": 78,
      "start": 32.5196,
      "duration": 0.4153,
      "velocity": 121,
      "chip": "ym2612"
    },
    {
      "channel": 3,
      "note": 103,
      "start": 32.6147,
      "duration": 0.0959,
      "velocity": 127,
      "chip": "ym2612"
    },
    {
      "channel": 3,
      "note": 103,
      "start": 32.7108,
      "duration": 0.1041,
      "velocity": 127,
      "chip": "ym2612"
    },
    {
      "channel": 3,
      "note": 103,
      "start": 32.815,
      "duration": 0.1194,
      "velocity": 127,
      "chip": "ym2612"
    },
    {
      "channel": 0,
      "note": 62,
      "start": 32.9317,
      "duration": 0.1228,
      "velocity": 109,
      "chip": "ym2612"
    },
    {
      "channel": 1,
      "note": 62,
      "start": 32.9322,
      "duration": 0.1228,
      "velocity": 94,
      "chip": "ym2612"
    },
    {
      "channel": 2,
      "note": 85,
      "start": 32.9327,
      "duration": 1.7774,
      "velocity": 112,
      "chip": "ym2612"
    },
    {
      "channel": 3,
      "note": 103,
      "start": 32.9346,
      "duration": 0.121,
      "velocity": 127,
      "chip": "ym2612"
    },
    {
      "channel": 4,
      "note": 74,
      "start": 32.9351,
      "duration": 0.121,
      "velocity": 121,
      "chip": "ym2612"
    },
    {
      "channel": 0,
      "note": 69,
      "start": 33.0547,
      "duration": 0.1164,
      "velocity": 109,
      "chip": "ym2612"
    },
    {
      "channel": 1,
      "note": 69,
      "start": 33.0552,
      "duration": 0.1164,
      "velocity": 94,
      "chip": "ym2612"
    },
    {
      "channel": 3,
      "note": 103,
      "start": 33.0558,
      "duration": 0.1164,
      "velocity": 127,
      "chip": "ym2612"
    },
    {
      "channel": 4,
      "note": 77,
      "start": 33.0563,
      "duration": 0.1164,
      "velocity": 121,
      "chip": "ym2612"
    },
    {
      "channel": 0,
      "note": 70,
      "start": 33.1713,
      "duration": 0.1166,
      "velocity": 109,
      "chip": "ym2612"
    },
    {
      "channel": 1,
      "note": 70,
      "start": 33.1718,
      "duration": 0.1165,
      "velocity": 94,
      "chip": "ym2612"
    },
    {
      "channel": 3,
      "note": 103,
      "start": 33.1724,
      "duration": 0.1165,
      "velocity": 127,
      "chip": "ym2612"
    },
    {
      "channel": 4,
      "note": 81,
      "start": 33.1729,
      "duration": 0.4221,
      "velocity": 121,
      "chip": "ym2612"
    },
    {
      "channel": 0,
      "note": 61,
      "start": 33.288,
      "duration": 0.6335,
      "velocity": 109,
      "chip": "ym2612"
    },
    {
      "channel": 1,
      "note": 61,
      "start": 33.2885,
      "duration": 0.6336,
      "velocity": 94,
      "chip": "ym2612"
    },
    {
      "channel": 3,
      "note": 103,
      "start": 33.289,
      "duration": 0.1002,
      "velocity": 127,
      "chip": "ym2612"
    },
    {
      "channel": 3,
      "note": 103,
      "start": 33.3895,
      "duration": 0.0955,
      "velocity": 127,
      "chip": "ym2612"
    },
    {
      "channel": 3,
      "note": 103,
      "start": 33.4851,
      "duration": 0.1093,
      "velocity": 127,
      "chip": "ym2612"
    },
    {
      "channel": 3,
      "note": 103,
      "start": 33.5946,
      "duration": 0.1032,
      "velocity": 127,
      "chip": "ym2612"
    },
    {
      "channel": 4,
      "note": 81,
      "start": 33.5951,
      "duration": 0.2199,
      "velocity": 121,
      "chip": "ym2612"
    },
    {
      "channel": 3,
      "note": 103,
      "start": 33.698,
      "duration": 0.1165,
      "velocity": 127,
      "chip": "ym2612"
    },
    {
      "channel": 3,
      "note": 103,
      "start": 33.8147,
      "duration": 0.1079,
      "velocity": 127,
      "chip": "ym2612"
    },
    {
      "channel": 4,
      "note": 84,
      "start": 33.8152,
      "duration": 0.4638,
      "velocity": 121,
      "chip": "ym2612"
    },
    {
      "channel": 0,
      "note": 62,
      "start": 33.9217,
      "duration": 0.115,
      "velocity": 109,
      "chip": "ym2612"
    },
    {
      "channel": 1,
      "note": 62,
      "start": 33.9222,
      "duration": 0.115,
      "velocity": 94,
      "chip": "ym2612"
    },
    {
      "channel": 3,
      "note": 103,
      "start": 33.9228,
      "duration": 0.115,
      "velocity": 127,
      "chip": "ym2612"
    },
    {
      "channel": 0,
      "note": 69,
      "start": 34.0369,
      "duration": 0.1332,
      "velocity": 109,
      "chip": "ym2612"
    },
    {
      "channel": 1,
      "note": 69,
      "start": 34.0374,
      "duration": 0.1331,
      "velocity": 94,
      "chip": "ym2612"
    },
    {
      "channel": 3,
      "note": 103,
      "start": 34.038,
      "duration": 0.1332,
      "velocity": 127,
      "chip": "ym2612"
    },
    {
      "channel": 0,
      "note": 70,
      "start": 34.1702,
      "duration": 0.1072,
      "velocity": 109,
      "chip": "ym2612"
    },
    {
      "channel": 1,
      "note": 70,
      "start": 34.1707,
      "duration": 0.1072,
      "velocity": 94,
      "chip": "ym2612"
    },
    {
      "channel": 3,
      "note": 103,
      "start": 34.1713,
      "duration": 0.1072,
      "velocity": 127,
      "chip": "ym2612"
    },
    {
      "channel": 0,
      "note": 61,
      "start": 34.2775,
      "duration": 0.4316,
      "velocity": 109,
      "chip": "ym2612"
    },
    {
      "channel": 1,
      "note": 61,
      "start": 34.278,
      "duration": 0.4316,
      "velocity": 94,
      "chip": "ym2612"
    },
    {
      "channel": 3,
      "note": 103,
      "start": 34.2786,
      "duration": 0.0948,
      "velocity": 127,
      "chip": "ym2612"
    },
    {
      "channel": 4,
      "note": 80,
      "start": 34.2791,
      "duration": 0.4334,
      "velocity": 121,
      "chip": "ym2612"
    },
    {
      "channel": 3,
      "note": 103,
      "start": 34.3737,
      "duration": 0.0959,
      "velocity": 127,
      "chip": "ym2612"
    },
    {
      "channel": 3,
      "note": 103,
      "start": 34.4698,
      "duration": 0.1061,
      "velocity": 127,
      "chip": "ym2612"
    },
    {
      "channel": 3,
      "note": 103,
      "start": 34.576,
      "duration": 0.1361,
      "velocity": 127,
      "chip": "ym2612"
    },
    {
      "channel": 0,
      "note": 62,
      "start": 34.7093,
      "duration": 0.1037,
      "velocity": 109,
      "chip": "ym2612"
    },
    {
      "channel": 1,
      "note": 62,
      "start": 34.7098,
      "duration": 0.1037,
      "velocity": 94,
      "chip": "ym2612"
    },
    {
      "channel": 2,
      "note": 89,
      "start": 34.7103,
      "duration": 1.7296,
      "velocity": 112,
      "chip": "ym2612"
    },
    {
      "channel": 3,
      "note": 103,
      "start": 34.7122,
      "duration": 0.1019,
      "velocity": 127,
      "chip": "ym2612"
    },
    {
      "channel": 4,
      "note": 74,
      "start": 34.7127,
      "duration": 0.1019,
      "velocity": 121,
      "chip": "ym2612"
    },
    {
      "channel": 0,
      "note": 69,
      "start": 34.8132,
      "duration": 0.1164,
      "velocity": 109,
      "chip": "ym2612"
    },
    {
      "channel": 1,
      "note": 69,
      "start": 34.8138,
      "duration": 0.1164,
      "velocity": 94,
      "chip": "ym2612"
    },
    {
      "channel": 3,
      "note": 103,
      "start": 34.8143,
      "duration": 0.1164,
      "velocity": 127,
      "chip": "ym2612"
    },
    {
      "channel": 4,
      "note": 77,
      "start": 34.8148,
      "duration": 0.1164,
      "velocity": 121,
      "chip": "ym2612"
    },
    {
      "channel": 0,
      "note": 70,
      "start": 34.9298,
      "duration": 0.1166,
      "velocity": 109,
      "chip": "ym2612"
    },
    {
      "channel": 1,
      "note": 70,
      "start": 34.9304,
      "duration": 0.1165,
      "velocity": 94,
      "chip": "ym2612"
    },
    {
      "channel": 3,
      "note": 103,
      "start": 34.9309,
      "duration": 0.1165,
      "velocity": 127,
      "chip": "ym2612"
    },
    {
      "channel": 4,
      "note": 81,
      "start": 34.9315,
      "duration": 0.4239,
      "velocity": 121,
      "chip": "ym2612"
    },
    {
      "channel": 0,
      "note": 61,
      "start": 35.0466,
      "duration": 0.6413,
      "velocity": 109,
      "chip": "ym2612"
    },
    {
      "channel": 1,
      "note": 61,
      "start": 35.0471,
      "duration": 0.6413,
      "velocity": 94,
      "chip": "ym2612"
    },
    {
      "channel": 3,
      "note": 103,
      "start": 35.0476,
      "duration": 0.1021,
      "velocity": 127,
      "chip": "ym2612"
    },
    {
      "channel": 3,
      "note": 103,
      "start": 35.1499,
      "duration": 0.1092,
      "velocity": 127,
      "chip": "ym2612"
    },
    {
      "channel": 3,
      "note": 103,
      "start": 35.2593,
      "duration": 0.0956,
      "velocity": 127,
      "chip": "ym2612"
    },
    {
      "channel": 3,
      "note": 103,
      "start": 35.355,
      "duration": 0.1075,
      "velocity": 127,
      "chip": "ym2612"
    },
    {
      "channel": 4,
      "note": 81,
      "start": 35.3555,
      "duration": 0.2241,
      "velocity": 121,
      "chip": "ym2612"
    },
    {
      "channel": 3,
      "note": 103,
      "start": 35.4626,
      "duration": 0.1165,
      "velocity": 127,
      "chip": "ym2612"
    },
    {
      "channel": 3,
      "note": 103,
      "start": 35.5793,
      "duration": 0.1097,
      "velocity": 127,
      "chip": "ym2612"
    },
    {
      "channel": 4,
      "note": 84,
      "start": 35.5798,
      "duration": 0.4613,
      "velocity": 121,
      "chip": "ym2612"
    },
    {
      "channel": 0,
      "note": 62,
      "start": 35.688,
      "duration": 0.1317,
      "velocity": 109,
      "chip": "ym2612"
    },
    {
      "channel": 1,
      "note": 62,
      "start": 35.6885,
      "duration": 0.1317,
      "velocity": 94,
      "chip": "ym2612"
    },
    {
      "channel": 3,
      "note": 103,
      "start": 35.6891,
      "duration": 0.1317,
      "velocity": 127,
      "chip": "ym2612"
    },
    {
      "channel": 0,
      "note": 69,
      "start": 35.8199,
      "duration": 0.1166,
      "velocity": 109,
      "chip": "ym2612"
    },
    {
      "channel": 1,
      "note": 69,
      "start": 35.8204,
      "duration": 0.1165,
      "velocity": 94,
      "chip": "ym2612"
    },
    {
      "channel": 3,
      "note": 103,
      "start": 35.8209,
      "duration": 0.1166,
      "velocity": 127,
      "chip": "ym2612"
    },
    {
      "channel": 0,
      "note": 70,
      "start": 35.9366,
      "duration": 0.1029,
      "velocity": 109,
      "chip": "ym2612"
    },
    {
      "channel": 1,
      "note": 70,
      "start": 35.9371,
      "duration": 0.1029,
      "velocity": 94,
      "chip": "ym2612"
    },
    {
      "channel": 3,
      "note": 103,
      "start": 35.9377,
      "duration": 0.1029,
      "velocity": 127,
      "chip": "ym2612"
    },
    {
      "channel": 0,
      "note": 61,
      "start": 36.0396,
      "duration": 0.3993,
      "velocity": 109,
      "chip": "ym2612"
    },
    {
      "channel": 1,
      "note": 61,
      "start": 36.0401,
      "duration": 0.3993,
      "velocity": 94,
      "chip": "ym2612"
    },
    {
      "channel": 3,
      "note": 103,
      "start": 36.0407,
      "duration": 0.0946,
      "velocity": 127,
      "chip": "ym2612"
    },
    {
      "channel": 4,
      "note": 80,
      "start": 36.0412,
      "duration": 0.4013,
      "velocity": 121,
      "chip": "ym2612"
    },
    {
      "channel": 3,
      "note": 103,
      "start": 36.1354,
      "duration": 0.0962,
      "velocity": 127,
      "chip": "ym2612"
    },
    {
      "channel": 3,
      "note": 103,
      "start": 36.2318,
      "duration": 0.1104,
      "velocity": 127,
      "chip": "ym2612"
    },
    {
      "channel": 3,
      "note": 103,
      "start": 36.3424,
      "duration": 0.0995,
      "velocity": 127,
      "chip": "ym2612"
    },
    {
      "channel": 0,
      "note": 60,
      "start": 36.439,
      "duration": 0.103,
      "velocity": 109,
      "chip": "ym2612"
    },
    {
      "channel": 1,
      "note": 60,
      "start": 36.4396,
      "duration": 0.1028,
      "velocity": 94,
      "chip": "ym2612"
    },
    {
      "channel": 2,
      "note": 87,
      "start": 36.4402,
      "duration": 1.7557,
      "velocity": 112,
      "chip": "ym2612"
    },
    {
      "channel": 3,
      "note": 103,
      "start": 36.4421,
      "duration": 0.1009,
      "velocity": 127,
      "chip": "ym2612"
    },
    {
      "channel": 4,
      "note": 72,
      "start": 36.4427,
      "duration": 0.1009,
      "velocity": 121,
      "chip": "ym2612"
    },
    {
      "channel": 0,
      "note": 67,
      "start": 36.5421,
      "duration": 0.1164,
      "velocity": 109,
      "chip": "ym2612"
    },
    {
      "channel": 1,
      "note": 67,
      "start": 36.5426,
      "duration": 0.1164,
      "velocity": 94,
      "chip": "ym2612"
    },
    {
      "channel": 3,
      "note": 103,
      "start": 36.5432,
      "duration": 0.1164,
      "velocity": 127,
      "chip": "ym2612"
    },
    {
      "channel": 4,
      "note": 75,
      "start": 36.5437,
      "duration": 0.1164,
      "velocity": 121,
      "chip": "ym2612"
    },
    {
      "channel": 0,
      "note": 68,
      "start": 36.6587,
      "duration": 0.1166,
      "velocity": 109,
      "chip": "ym2612"
    },
    {
      "channel": 1,
      "note": 68,
      "start": 36.6592,
      "duration": 0.1165,
      "velocity": 94,
      "chip": "ym2612"
    },
    {
      "channel": 3,
      "note": 103,
      "start": 36.6598,
      "duration": 0.1165,
      "velocity": 127,
      "chip": "ym2612"
    },
    {
      "channel": 4,
      "note": 79,
      "start": 36.6603,
      "duration": 0.4296,
      "velocity": 121,
      "chip": "ym2612"
    },
    {
      "channel": 0,
      "note": 59,
      "start": 36.7754,
      "duration": 0.6535,
      "velocity": 109,
      "chip": "ym2612"
    },
    {
      "channel": 1,
      "note": 59,
      "start": 36.7759,
      "duration": 0.6535,
      "velocity": 94,
      "chip": "ym2612"
    },
    {
      "channel": 3,
      "note": 103,
      "start": 36.7765,
      "duration": 0.1213,
      "velocity": 127,
      "chip": "ym2612"
    },
    {
      "channel": 3,
      "note": 103,
      "start": 36.898,
      "duration": 0.0952,
      "velocity": 127,
      "chip": "ym2612"
    },
    {
      "channel": 3,
      "note": 103,
      "start": 36.9934,
      "duration": 0.096,
      "velocity": 127,
      "chip": "ym2612"
    },
    {
      "channel": 3,
      "note": 103,
      "start": 37.0896,
      "duration": 0.1009,
      "velocity": 127,
      "chip": "ym2612"
    },
    {
      "channel": 4,
      "note": 79,
      "start": 37.0901,
      "duration": 0.2176,
      "velocity": 121,
      "chip": "ym2612"
    },
    {
      "channel": 3,
      "note": 103,
      "start": 37.1906,
      "duration": 0.1165,
      "velocity": 127,
      "chip": "ym2612"
    },
    {
      "channel": 3,
      "note": 103,
      "start": 37.3073,
      "duration": 0.1227,
      "velocity": 127,
      "chip": "ym2612"
    },
    {
      "channel": 4,
      "note": 82,
      "start": 37.3079,
      "duration": 0.4605,
      "velocity": 121,
      "chip": "ym2612"
    },
    {
      "channel": 0,
      "note": 60,
      "start": 37.4291,
      "duration": 0.115,
      "velocity": 109,
      "chip": "ym2612"
    },
    {
      "channel": 1,
      "note": 60,
      "start": 37.4296,
      "duration": 0.115,
      "velocity": 94,
      "chip": "ym2612"
    },
    {
      "channel": 3,
      "note": 103,
      "start": 37.4302,
      "duration": 0.115,
      "velocity": 127,
      "chip": "ym2612"
    },
    {
      "channel": 0,
      "note": 67,
      "start": 37.5443,
      "duration": 0.1166,
      "velocity": 109,
      "chip": "ym2612"
    },
    {
      "channel": 1,
      "note": 67,
      "start": 37.5448,
      "duration": 0.1165,
      "velocity": 94,
      "chip": "ym2612"
    },
    {
      "channel": 3,
      "note": 103,
      "start": 37.5453,
      "duration": 0.1166,
      "velocity": 127,
      "chip": "ym2612"
    },
    {
      "channel": 0,
      "note": 68,
      "start": 37.661,
      "duration": 0.1058,
      "velocity": 109,
      "chip": "ym2612"
    },
    {
      "channel": 1,
      "note": 68,
      "start": 37.6615,
      "duration": 0.1058,
      "velocity": 94,
      "chip": "ym2612"
    },
    {
      "channel": 3,
      "note": 103,
      "start": 37.662,
      "duration": 0.1058,
      "velocity": 127,
      "chip": "ym2612"
    },
    {
      "channel": 0,
      "note": 59,
      "start": 37.7669,
      "duration": 0.428,
      "velocity": 109,
      "chip": "ym2612"
    },
    {
      "channel": 1,
      "note": 59,
      "start": 37.7674,
      "duration": 0.428,
      "velocity": 94,
      "chip": "ym2612"
    },
    {
      "channel": 3,
      "note": 103,
      "start": 37.768,
      "duration": 0.0945,
      "velocity": 127,
      "chip": "ym2612"
    },
    {
      "channel": 4,
      "note": 78,
      "start": 37.7685,
      "duration": 0.4298,
      "velocity": 121,
      "chip": "ym2612"
    },
    {
      "channel": 3,
      "note": 103,
      "start": 37.8627,
      "duration": 0.1089,
      "velocity": 127,
      "chip": "ym2612"
    },
    {
      "channel": 3,
      "note": 103,
      "start": 37.9719,
      "duration": 0.1063,
      "velocity": 127,
      "chip": "ym2612"
    },
    {
      "channel": 3,
      "note": 103,
      "start": 38.0784,
      "duration": 0.1194,
      "velocity": 127,
      "chip": "ym2612"
    },
    {
      "channel": 0,
      "note": 60,
      "start": 38.1951,
      "duration": 0.104,
      "velocity": 109,
      "chip": "ym2612"
    },
    {
      "channel": 1,
      "note": 60,
      "start": 38.1956,
      "duration": 0.104,
      "velocity": 94,
      "chip": "ym2612"
    },
    {
      "channel": 2,
      "note": 86,
      "start": 38.1961,
      "duration": 1.7616,
      "velocity": 112,
      "chip": "ym2612"
    },
    {
      "channel": 3,
      "note": 103,
      "start": 38.198,
      "duration": 0.1022,
      "velocity": 127,
      "chip": "ym2612"
    },
    {
      "channel": 4,
      "note": 72,
      "start": 38.1985,
      "duration": 0.1022,
      "velocity": 121,
      "chip": "ym2612"
    },
    {
      "channel": 0,
      "note": 67,
      "start": 38.2993,
      "duration": 0.1164,
      "velocity": 109,
      "chip": "ym2612"
    },
    {
      "channel": 1,
      "note": 67,
      "start": 38.2998,
      "duration": 0.1164,
      "velocity": 94,
      "chip": "ym2612"
    },
    {
      "channel": 3,
      "note": 103,
      "start": 38.3004,
      "duration": 0.1164,
      "velocity": 127,
      "chip": "ym2612"
    },
    {
      "channel": 4,
      "note": 75,
      "start": 38.3009,
      "duration": 0.1164,
      "velocity": 121,
      "chip": "ym2612"
    },
    {
      "channel": 0,
      "note": 68,
      "start": 38.4159,
      "duration": 0.1332,
      "velocity": 109,
      "chip": "ym2612"
    },
    {
      "channel": 1,
      "note": 68,
      "start": 38.4164,
      "duration": 0.1332,
      "velocity": 94,
      "chip": "ym2612"
    },
    {
      "channel": 3,
      "note": 103,
      "start": 38.417,
      "duration": 0.1332,
      "velocity": 127,
      "chip": "ym2612"
    },
    {
      "channel": 4,
      "note": 79,
      "start": 38.4175,
      "duration": 0.4293,
      "velocity": 121,
      "chip": "ym2612"
    },
    {
      "channel": 0,
      "note": 59,
      "start": 38.5493,
      "duration": 0.642,
      "velocity": 109,
      "chip": "ym2612"
    },
    {
      "channel": 1,
      "note": 59,
      "start": 38.5497,
      "duration": 0.642,
      "velocity": 94,
      "chip": "ym2612"
    },
    {
      "channel": 3,
      "note": 103,
      "start": 38.5503,
      "duration": 0.1039,
      "velocity": 127,
      "chip": "ym2612"
    },
    {
      "channel": 3,
      "note": 103,
      "start": 38.6544,
      "duration": 0.0954,
      "velocity": 127,
      "chip": "ym2612"
    },
    {
      "channel": 3,
      "note": 103,
      "start": 38.75,
      "duration": 0.0963,
      "velocity": 127,
      "chip": "ym2612"
    },
    {
      "channel": 3,
      "note": 103,
      "start": 38.8465,
      "duration": 0.1066,
      "velocity": 127,
      "chip": "ym2612"
    },
    {
      "channel": 4,
      "note": 79,
      "start": 38.847,
      "duration": 0.24,
      "velocity": 121,
      "chip": "ym2612"
    },
    {
      "channel": 3,
      "note": 103,
      "start": 38.9533,
      "duration": 0.1332,
      "velocity": 127,
      "chip": "ym2612"
    },
    {
      "channel": 3,
      "note": 103,
      "start": 39.0866,
      "duration": 0.1056,
      "velocity": 127,
      "chip": "ym2612"
    },
    {
      "channel": 4,
      "note": 82,
      "start": 39.0872,
      "duration": 0.4408,
      "velocity": 121,
      "chip": "ym2612"
    },
    {
      "channel": 0,
      "note": 60,
      "start": 39.1914,
      "duration": 0.115,
      "velocity": 109,
      "chip": "ym2612"
    },
    {
      "channel": 1,
      "note": 60,
      "start": 39.1919,
      "duration": 0.115,
      "velocity": 94,
      "chip": "ym2612"
    },
    {
      "channel": 3,
      "note": 103,
      "start": 39.1924,
      "duration": 0.115,
      "velocity": 127,
      "chip": "ym2612"
    },
    {
      "channel": 0,
      "note": 67,
      "start": 39.3066,
      "duration": 0.1165,
      "velocity": 109,
      "chip": "ym2612"
    },
    {
      "channel": 1,
      "note": 67,
      "start": 39.3071,
      "duration": 0.1165,
      "velocity": 94,
      "chip": "ym2612"
    },
    {
      "channel": 3,
      "note": 103,
      "start": 39.3076,
      "duration": 0.1165,
      "velocity": 127,
      "chip": "ym2612"
    },
    {
      "channel": 0,
      "note": 68,
      "start": 39.4232,
      "duration": 0.1032,
      "velocity": 109,
      "chip": "ym2612"
    },
    {
      "channel": 1,
      "note": 68,
      "start": 39.4237,
      "duration": 0.1032,
      "velocity": 94,
      "chip": "ym2612"
    },
    {
      "channel": 3,
      "note": 103,
      "start": 39.4243,
      "duration": 0.1032,
      "velocity": 127,
      "chip": "ym2612"
    },
    {
      "channel": 0,
      "note": 59,
      "start": 39.5266,
      "duration": 0.4301,
      "velocity": 109,
      "chip": "ym2612"
    },
    {
      "channel": 1,
      "note": 59,
      "start": 39.5271,
      "duration": 0.4301,
      "velocity": 94,
      "chip": "ym2612"
    },
    {
      "channel": 3,
      "note": 103,
      "start": 39.5276,
      "duration": 0.1091,
      "velocity": 127,
      "chip": "ym2612"
    },
    {
      "channel": 4,
      "note": 78,
      "start": 39.5282,
      "duration": 0.432,
      "velocity": 121,
      "chip": "ym2612"
    },
    {
      "channel": 3,
      "note": 103,
      "start": 39.6369,
      "duration": 0.0961,
      "velocity": 127,
      "chip": "ym2612"
    },
    {
      "channel": 3,
      "note": 103,
      "start": 39.7332,
      "duration": 0.1069,
      "velocity": 127,
      "chip": "ym2612"
    },
    {
      "channel": 3,
      "note": 103,
      "start": 39.8402,
      "duration": 0.1194,
      "velocity": 127,
      "chip": "ym2612"
    },
    {
      "channel": 0,
      "note": 62,
      "start": 39.9569,
      "duration": 0.1009,
      "velocity": 109,
      "chip": "ym2612"
    },
    {
      "channel": 1,
      "note": 62,
      "start": 39.9574,
      "duration": 0.1009,
      "velocity": 94,
      "chip": "ym2612"
    },
    {
      "channel": 2,
      "note": 85,
      "start": 39.9579,
      "duration": 1.7572,
      "velocity": 112,
      "chip": "ym2612"
    },
    {
      "channel": 3,
      "note": 103,
      "start": 39.9598,
      "duration": 0.099,
      "velocity": 127,
      "chip": "ym2612"
    },
    {
      "channel": 4,
      "note": 74,
      "start": 39.9603,
      "duration": 0.099,
      "velocity": 121,
      "chip": "ym2612"
    },
    {
      "channel": 0,
      "note": 69,
      "start": 40.058,
      "duration": 0.1332,
      "velocity": 109,
      "chip": "ym2612"
    },
    {
      "channel": 1,
      "note": 69,
      "start": 40.0585,
      "duration": 0.1331,
      "velocity": 94,
      "chip": "ym2612"
    },
    {
      "channel": 3,
      "note": 103,
      "start": 40.0591,
      "duration": 0.1331,
      "velocity": 127,
      "chip": "ym2612"
    },
    {
      "channel": 4,
      "note": 77,
      "start": 40.0596,
      "duration": 0.1331,
      "velocity": 121,
      "chip": "ym2612"
    },
    {
      "channel": 0,
      "note": 70,
      "start": 40.1912,
      "duration": 0.1166,
      "velocity": 109,
      "chip": "ym2612"
    },
    {
      "channel": 1,
      "note": 70,
      "start": 40.1918,
      "duration": 0.1165,
      "velocity": 94,
      "chip": "ym2612"
    },
    {
      "channel": 3,
      "note": 103,
      "start": 40.1923,
      "duration": 0.1165,
      "velocity": 127,
      "chip": "ym2612"
    },
    {
      "channel": 4,
      "note": 81,
      "start": 40.1929,
      "duration": 0.4145,
      "velocity": 121,
      "chip": "ym2612"
    },
    {
      "channel": 0,
      "note": 61,
      "start": 40.308,
      "duration": 0.6419,
      "velocity": 109,
      "chip": "ym2612"
    },
    {
      "channel": 1,
      "note": 61,
      "start": 40.3085,
      "duration": 0.6419,
      "velocity": 94,
      "chip": "ym2612"
    },
    {
      "channel": 3,
      "note": 103,
      "start": 40.3091,
      "duration": 0.106,
      "velocity": 127,
      "chip": "ym2612"
    },
    {
      "channel": 3,
      "note": 103,
      "start": 40.4153,
      "duration": 0.0952,
      "velocity": 127,
      "chip": "ym2612"
    },
    {
      "channel": 3,
      "note": 103,
      "start": 40.5107,
      "duration": 0.0962,
      "velocity": 127,
      "chip": "ym2612"
    },
    {
      "channel": 3,
      "note": 103,
      "start": 40.6071,
      "duration": 0.1214,
      "velocity": 127,
      "chip": "ym2612"
    },
    {
      "channel": 4,
      "note": 81,
      "start": 40.6076,
      "duration": 0.2381,
      "velocity": 121,
      "chip": "ym2612"
    },
    {
      "channel": 3,
      "note": 103,
      "start": 40.7286,
      "duration": 0.1165,
      "velocity": 127,
      "chip": "ym2612"
    },
    {
      "channel": 3,
      "note": 103,
      "start": 40.8453,
      "duration": 0.1056,
      "velocity": 127,
      "chip": "ym2612"
    },
    {
      "channel": 4,
      "note": 84,
      "start": 40.8459,
      "duration": 0.4573,
      "velocity": 121,
      "chip": "ym2612"
    },
    {
      "channel": 0,
      "note": 62,
      "start": 40.95,
      "duration": 0.115,
      "velocity": 109,
      "chip": "ym2612"
    },
    {
      "channel": 1,
      "note": 62,
      "start": 40.9505,
      "duration": 0.115,
      "velocity": 94,
      "chip": "ym2612"
    },
    {
      "channel": 3,
      "note": 103,
      "start": 40.9511,
      "duration": 0.115,
      "velocity": 127,
      "chip": "ym2612"
    },
    {
      "channel": 0,
      "note": 69,
      "start": 41.0652,
      "duration": 0.1165,
      "velocity": 109,
      "chip": "ym2612"
    },
    {
      "channel": 1,
      "note": 69,
      "start": 41.0658,
      "duration": 0.1165,
      "velocity": 94,
      "chip": "ym2612"
    },
    {
      "channel": 3,
      "note": 103,
      "start": 41.0663,
      "duration": 0.1165,
      "velocity": 127,
      "chip": "ym2612"
    },
    {
      "channel": 0,
      "note": 70,
      "start": 41.1819,
      "duration": 0.1197,
      "velocity": 109,
      "chip": "ym2612"
    },
    {
      "channel": 1,
      "note": 70,
      "start": 41.1824,
      "duration": 0.1197,
      "velocity": 94,
      "chip": "ym2612"
    },
    {
      "channel": 3,
      "note": 103,
      "start": 41.183,
      "duration": 0.1197,
      "velocity": 127,
      "chip": "ym2612"
    },
    {
      "channel": 0,
      "note": 61,
      "start": 41.3018,
      "duration": 0.4123,
      "velocity": 109,
      "chip": "ym2612"
    },
    {
      "channel": 1,
      "note": 61,
      "start": 41.3023,
      "duration": 0.4123,
      "velocity": 94,
      "chip": "ym2612"
    },
    {
      "channel": 3,
      "note": 103,
      "start": 41.3028,
      "duration": 0.0955,
      "velocity": 127,
      "chip": "ym2612"
    },
    {
      "channel": 4,
      "note": 80,
      "start": 41.3034,
      "duration": 0.4142,
      "velocity": 121,
      "chip": "ym2612"
    },
    {
      "channel": 3,
      "note": 103,
      "start": 41.3985,
      "duration": 0.096,
      "velocity": 127,
      "chip": "ym2612"
    },
    {
      "channel": 3,
      "note": 103,
      "start": 41.4947,
      "duration": 0.1029,
      "velocity": 127,
      "chip": "ym2612"
    },
    {
      "channel": 3,
      "note": 103,
      "start": 41.5977,
      "duration": 0.1194,
      "velocity": 127,
      "chip": "ym2612"
    },
    {
      "channel": 0,
      "note": 62,
      "start": 41.7143,
      "duration": 0.1166,
      "velocity": 109,
      "chip": "ym2612"
    },
    {
      "channel": 1,
      "note": 62,
      "start": 41.7148,
      "duration": 0.1166,
      "velocity": 94,
      "chip": "ym2612"
    },
    {
      "channel": 2,
      "note": 89,
      "start": 41.7154,
      "duration": 1.7411,
      "velocity": 120,
      "chip": "ym2612"
    },
    {
      "channel": 3,
      "note": 103,
      "start": 41.7173,
      "duration": 0.1147,
      "velocity": 127,
      "chip": "ym2612"
    },
    {
      "channel": 4,
      "note": 74,
      "start": 41.7178,
      "duration": 0.1147,
      "velocity": 121,
      "chip": "ym2612"
    },
    {
      "channel": 0,
      "note": 69,
      "start": 41.831,
      "duration": 0.1164,
      "velocity": 109,
      "chip": "ym2612"
    },
    {
      "channel": 1,
      "note": 69,
      "start": 41.8316,
      "duration": 0.1164,
      "velocity": 94,
      "chip": "ym2612"
    },
    {
      "channel": 3,
      "note": 103,
      "start": 41.8321,
      "duration": 0.1164,
      "velocity": 127,
      "chip": "ym2612"
    },
    {
      "channel": 4,
      "note": 77,
      "start": 41.8326,
      "duration": 0.1164,
      "velocity": 121,
      "chip": "ym2612"
    },
    {
      "channel": 0,
      "note": 70,
      "start": 41.9476,
      "duration": 0.1166,
      "velocity": 109,
      "chip": "ym2612"
    },
    {
      "channel": 1,
      "note": 70,
      "start": 41.9482,
      "duration": 0.1165,
      "velocity": 94,
      "chip": "ym2612"
    },
    {
      "channel": 3,
      "note": 103,
      "start": 41.9487,
      "duration": 0.1165,
      "velocity": 127,
      "chip": "ym2612"
    },
    {
      "channel": 4,
      "note": 81,
      "start": 41.9493,
      "duration": 0.4259,
      "velocity": 121,
      "chip": "ym2612"
    },
    {
      "channel": 0,
      "note": 61,
      "start": 42.0644,
      "duration": 0.6393,
      "velocity": 109,
      "chip": "ym2612"
    },
    {
      "channel": 1,
      "note": 61,
      "start": 42.0648,
      "duration": 0.6393,
      "velocity": 94,
      "chip": "ym2612"
    },
    {
      "channel": 3,
      "note": 103,
      "start": 42.0654,
      "duration": 0.1042,
      "velocity": 127,
      "chip": "ym2612"
    },
    {
      "channel": 3,
      "note": 103,
      "start": 42.1698,
      "duration": 0.0953,
      "velocity": 127,
      "chip": "ym2612"
    },
    {
      "channel": 3,
      "note": 103,
      "start": 42.2653,
      "duration": 0.1093,
      "velocity": 127,
      "chip": "ym2612"
    },
    {
      "channel": 3,
      "note": 103,
      "start": 42.3747,
      "duration": 0.1052,
      "velocity": 127,
      "chip": "ym2612"
    },
    {
      "channel": 4,
      "note": 81,
      "start": 42.3752,
      "duration": 0.2219,
      "velocity": 121,
      "chip": "ym2612"
    },
    {
      "channel": 3,
      "note": 103,
      "start": 42.4801,
      "duration": 0.1165,
      "velocity": 127,
      "chip": "ym2612"
    },
    {
      "channel": 3,
      "note": 103,
      "start": 42.5968,
      "duration": 0.1079,
      "velocity": 127,
      "chip": "ym2612"
    },
    {
      "channel": 4,
      "note": 84,
      "start": 42.5973,
      "duration": 0.4581,
      "velocity": 121,
      "chip": "ym2612"
    },
    {
      "channel": 0,
      "note": 62,
      "start": 42.7038,
      "duration": 0.115,
      "velocity": 109,
      "chip": "ym2612"
    },
    {
      "channel": 1,
      "note": 62,
      "start": 42.7043,
      "duration": 0.115,
      "velocity": 94,
      "chip": "ym2612"
    },
    {
      "channel": 3,
      "note": 103,
      "start": 42.7049,
      "duration": 0.115,
      "velocity": 127,
      "chip": "ym2612"
    },
    {
      "channel": 0,
      "note": 69,
      "start": 42.819,
      "duration": 0.1332,
      "velocity": 109,
      "chip": "ym2612"
    },
    {
      "channel": 1,
      "note": 69,
      "start": 42.8195,
      "duration": 0.1331,
      "velocity": 94,
      "chip": "ym2612"
    },
    {
      "channel": 3,
      "note": 103,
      "start": 42.8201,
      "duration": 0.1332,
      "velocity": 127,
      "chip": "ym2612"
    },
    {
      "channel": 0,
      "note": 70,
      "start": 42.9523,
      "duration": 0.1015,
      "velocity": 109,
      "chip": "ym2612"
    },
    {
      "channel": 1,
      "note": 70,
      "start": 42.9528,
      "duration": 0.1015,
      "velocity": 94,
      "chip": "ym2612"
    },
    {
      "channel": 3,
      "note": 103,
      "start": 42.9534,
      "duration": 0.1015,
      "velocity": 127,
      "chip": "ym2612"
    },
    {
      "channel": 0,
      "note": 61,
      "start": 43.054,
      "duration": 0.3986,
      "velocity": 112,
      "chip": "ym2612"
    },
    {
      "channel": 1,
      "note": 61,
      "start": 43.0544,
      "duration": 0.4001,
      "velocity": 120,
      "chip": "ym2612"
    },
    {
      "channel": 3,
      "note": 103,
      "start": 43.055,
      "duration": 0.0948,
      "velocity": 127,
      "chip": "ym2612"
    },
    {
      "channel": 4,
      "note": 80,
      "start": 43.0555,
      "duration": 0.4035,
      "velocity": 121,
      "chip": "ym2612"
    },
    {
      "channel": 3,
      "note": 103,
      "start": 43.15,
      "duration": 0.0961,
      "velocity": 127,
      "chip": "ym2612"
    },
    {
      "channel": 3,
      "note": 103,
      "start": 43.2463,
      "duration": 0.0967,
      "velocity": 127,
      "chip": "ym2612"
    },
    {
      "channel": 3,
      "note": 103,
      "start": 43.3432,
      "duration": 0.1152,
      "velocity": 127,
      "chip": "ym2612"
    },
    {
      "channel": 0,
      "note": 87,
      "start": 43.4528,
      "duration": 1.759,
      "velocity": 112,
      "chip": "ym2612"
    },
    {
      "channel": 1,
      "note": 84,
      "start": 43.4547,
      "duration": 0.217,
      "velocity": 120,
      "chip": "ym2612"
    },
    {
      "channel": 2,
      "note": 91,
      "start": 43.4566,
      "duration": 0.2155,
      "velocity": 120,
      "chip": "ym2612"
    },
    {
      "channel": 3,
      "note": 103,
      "start": 43.4586,
      "duration": 0.0966,
      "velocity": 127,
      "chip": "ym2612"
    },
    {
      "channel": 4,
      "note": 72,
      "start": 43.4591,
      "duration": 0.0966,
      "velocity": 121,
      "chip": "ym2612"
    },
    {
      "channel": 3,
      "note": 103,
      "start": 43.5554,
      "duration": 0.1173,
      "velocity": 127,
      "chip": "ym2612"
    },
    {
      "channel": 4,
      "note": 75,
      "start": 43.5559,
      "duration": 0.1173,
      "velocity": 121,
      "chip": "ym2612"
    },
    {
      "channel": 1,
      "note": 84,
      "start": 43.6719,
      "duration": 0.2181,
      "velocity": 120,
      "chip": "ym2612"
    },
    {
      "channel": 2,
      "note": 91,
      "start": 43.6724,
      "duration": 0.2181,
      "velocity": 120,
      "chip": "ym2612"
    },
    {
      "channel": 3,
      "note": 103,
      "start": 43.6729,
      "duration": 0.1156,
      "velocity": 127,
      "chip": "ym2612"
    },
    {
      "channel": 4,
      "note": 79,
      "start": 43.6734,
      "duration": 0.4243,
      "velocity": 121,
      "chip": "ym2612"
    },
    {
      "channel": 3,
      "note": 103,
      "start": 43.7887,
      "duration": 0.1024,
      "velocity": 127,
      "chip": "ym2612"
    },
    {
      "channel": 1,
      "note": 84,
      "start": 43.8902,
      "duration": 0.206,
      "velocity": 120,
      "chip": "ym2612"
    },
    {
      "channel": 2,
      "note": 91,
      "start": 43.8907,
      "duration": 0.206,
      "velocity": 120,
      "chip": "ym2612"
    },
    {
      "channel": 3,
      "note": 103,
      "start": 43.8912,
      "duration": 0.109,
      "velocity": 127,
      "chip": "ym2612"
    },
    {
      "channel": 3,
      "note": 103,
      "start": 44.0005,
      "duration": 0.0968,
      "velocity": 127,
      "chip": "ym2612"
    },
    {
      "channel": 1,
      "note": 84,
      "start": 44.0964,
      "duration": 0.2215,
      "velocity": 120,
      "chip": "ym2612"
    },
    {
      "channel": 2,
      "note": 91,
      "start": 44.0969,
      "duration": 0.2215,
      "velocity": 120,
      "chip": "ym2612"
    },
    {
      "channel": 3,
      "note": 103,
      "start": 44.0974,
      "duration": 0.104,
      "velocity": 127,
      "chip": "ym2612"
    },
    {
      "channel": 4,
      "note": 79,
      "start": 44.0979,
      "duration": 0.2215,
      "velocity": 121,
      "chip": "ym2612"
    },
    {
      "channel": 3,
      "note": 103,
      "start": 44.2015,
      "duration": 0.1174,
      "velocity": 127,
      "chip": "ym2612"
    },
    {
      "channel": 1,
      "note": 84,
      "start": 44.318,
      "duration": 0.2367,
      "velocity": 120,
      "chip": "ym2612"
    },
    {
      "channel": 2,
      "note": 91,
      "start": 44.3186,
      "duration": 0.2367,
      "velocity": 120,
      "chip": "ym2612"
    },
    {
      "channel": 3,
      "note": 103,
      "start": 44.3191,
      "duration": 0.1025,
      "velocity": 127,
      "chip": "ym2612"
    },
    {
      "channel": 4,
      "note": 82,
      "start": 44.3196,
      "duration": 0.4623,
      "velocity": 121,
      "chip": "ym2612"
    },
    {
      "channel": 3,
      "note": 103,
      "start": 44.4217,
      "duration": 0.134,
      "velocity": 127,
      "chip": "ym2612"
    },
    {
      "channel": 1,
      "note": 84,
      "start": 44.5549,
      "duration": 0.2255,
      "velocity": 120,
      "chip": "ym2612"
    },
    {
      "channel": 2,
      "note": 91,
      "start": 44.5554,
      "duration": 0.2255,
      "velocity": 120,
      "chip": "ym2612"
    },
    {
      "channel": 3,
      "note": 103,
      "start": 44.5559,
      "duration": 0.1156,
      "velocity": 127,
      "chip": "ym2612"
    },
    {
      "channel": 3,
      "note": 103,
      "start": 44.6717,
      "duration": 0.1096,
      "velocity": 127,
      "chip": "ym2612"
    },
    {
      "channel": 1,
      "note": 84,
      "start": 44.7806,
      "duration": 0.1927,
      "velocity": 120,
      "chip": "ym2612"
    },
    {
      "channel": 2,
      "note": 91,
      "start": 44.781,
      "duration": 0.1927,
      "velocity": 120,
      "chip": "ym2612"
    },
    {
      "channel": 3,
      "note": 103,
      "start": 44.7815,
      "duration": 0.0954,
      "velocity": 127,
      "chip": "ym2612"
    },
    {
      "channel": 4,
      "note": 78,
      "start": 44.7821,
      "duration": 0.4332,
      "velocity": 121,
      "chip": "ym2612"
    },
    {
      "channel": 3,
      "note": 103,
      "start": 44.8771,
      "duration": 0.0972,
      "velocity": 127,
      "chip": "ym2612"
    },
    {
      "channel": 1,
      "note": 84,
      "start": 44.9734,
      "duration": 0.2389,
      "velocity": 120,
      "chip": "ym2612"
    },
    {
      "channel": 2,
      "note": 91,
      "start": 44.9739,
      "duration": 0.2389,
      "velocity": 120,
      "chip": "ym2612"
    },
    {
      "channel": 3,
      "note": 103,
      "start": 44.9745,
      "duration": 0.1223,
      "velocity": 127,
      "chip": "ym2612"
    },
    {
      "channel": 3,
      "note": 103,
      "start": 45.0969,
      "duration": 0.1179,
      "velocity": 127,
      "chip": "ym2612"
    },
    {
      "channel": 0,
      "note": 86,
      "start": 45.212,
      "duration": 1.7602,
      "velocity": 112,
      "chip": "ym2612"
    },
    {
      "channel": 1,
      "note": 83,
      "start": 45.2125,
      "duration": 0.2176,
      "velocity": 120,
      "chip": "ym2612"
    },
    {
      "channel": 2,
      "note": 91,
      "start": 45.213,
      "duration": 0.2176,
      "velocity": 120,
      "chip": "ym2612"
    },
    {
      "channel": 3,
      "note": 103,
      "start": 45.2149,
      "duration": 0.0988,
      "velocity": 127,
      "chip": "ym2612"
    },
    {
      "channel": 4,
      "note": 72,
      "start": 45.2154,
      "duration": 0.0988,
      "velocity": 121,
      "chip": "ym2612"
    },
    {
      "channel": 3,
      "note": 103,
      "start": 45.3139,
      "duration": 0.1173,
      "velocity": 127,
      "chip": "ym2612"
    },
    {
      "channel": 4,
      "note": 75,
      "start": 45.3144,
      "duration": 0.1173,
      "velocity": 121,
      "chip": "ym2612"
    },
    {
      "channel": 1,
      "note": 83,
      "start": 45.4303,
      "duration": 0.2389,
      "velocity": 120,
      "chip": "ym2612"
    },
    {
      "channel": 2,
      "note": 91,
      "start": 45.4309,
      "duration": 0.2389,
      "velocity": 120,
      "chip": "ym2612"
    },
    {
      "channel": 3,
      "note": 103,
      "start": 45.4314,
      "duration": 0.1156,
      "velocity": 127,
      "chip": "ym2612"
    },
    {
      "channel": 4,
      "note": 79,
      "start": 45.4319,
      "duration": 0.4309,
      "velocity": 121,
      "chip": "ym2612"
    },
    {
      "channel": 3,
      "note": 103,
      "start": 45.5471,
      "duration": 0.1231,
      "velocity": 127,
      "chip": "ym2612"
    },
    {
      "channel": 1,
      "note": 83,
      "start": 45.6694,
      "duration": 0.1918,
      "velocity": 120,
      "chip": "ym2612"
    },
    {
      "channel": 2,
      "note": 91,
      "start": 45.6699,
      "duration": 0.1918,
      "velocity": 120,
      "chip": "ym2612"
    },
    {
      "channel": 3,
      "note": 103,
      "start": 45.6704,
      "duration": 0.0944,
      "velocity": 127,
      "chip": "ym2612"
    },
    {
      "channel": 3,
      "note": 103,
      "start": 45.765,
      "duration": 0.0972,
      "velocity": 127,
      "chip": "ym2612"
    },
    {
      "channel": 1,
      "note": 83,
      "start": 45.8614,
      "duration": 0.2243,
      "velocity": 120,
      "chip": "ym2612"
    },
    {
      "channel": 2,
      "note": 91,
      "start": 45.8619,
      "duration": 0.2243,
      "velocity": 120,
      "chip": "ym2612"
    },
    {
      "channel": 3,
      "note": 103,
      "start": 45.8624,
      "duration": 0.1066,
      "velocity": 127,
      "chip": "ym2612"
    },
    {
      "channel": 4,
      "note": 79,
      "start": 45.8629,
      "duration": 0.2243,
      "velocity": 121,
      "chip": "ym2612"
    },
    {
      "channel": 3,
      "note": 103,
      "start": 45.9692,
      "duration": 0.1174,
      "velocity": 127,
      "chip": "ym2612"
    },
    {
      "channel": 1,
      "note": 83,
      "start": 46.0858,
      "duration": 0.2348,
      "velocity": 120,
      "chip": "ym2612"
    },
    {
      "channel": 2,
      "note": 91,
      "start": 46.0863,
      "duration": 0.2348,
      "velocity": 120,
      "chip": "ym2612"
    },
    {
      "channel": 3,
      "note": 103,
      "start": 46.0868,
      "duration": 0.1173,
      "velocity": 127,
      "chip": "ym2612"
    },
    {
      "channel": 4,
      "note": 82,
      "start": 46.0873,
      "duration": 0.4584,
      "velocity": 121,
      "chip": "ym2612"
    },
    {
      "channel": 3,
      "note": 103,
      "start": 46.2042,
      "duration": 0.1174,
      "velocity": 127,
      "chip": "ym2612"
    },
    {
      "channel": 1,
      "note": 83,
      "start": 46.3207,
      "duration": 0.2235,
      "velocity": 120,
      "chip": "ym2612"
    },
    {
      "channel": 2,
      "note": 91,
      "start": 46.3212,
      "duration": 0.2235,
      "velocity": 120,
      "chip": "ym2612"
    },
    {
      "channel": 3,
      "note": 103,
      "start": 46.3217,
      "duration": 0.1156,
      "velocity": 127,
      "chip": "ym2612"
    },
    {
      "channel": 3,
      "note": 103,
      "start": 46.4376,
      "duration": 0.1076,
      "velocity": 127,
      "chip": "ym2612"
    },
    {
      "channel": 1,
      "note": 83,
      "start": 46.5444,
      "duration": 0.2063,
      "velocity": 120,
      "chip": "ym2612"
    },
    {
      "channel": 2,
      "note": 91,
      "start": 46.5448,
      "duration": 0.2063,
      "velocity": 120,
      "chip": "ym2612"
    },
    {
      "channel": 3,
      "note": 103,
      "start": 46.5453,
      "duration": 0.0954,
      "velocity": 127,
      "chip": "ym2612"
    },
    {
      "channel": 4,
      "note": 78,
      "start": 46.5459,
      "duration": 0.4299,
      "velocity": 121,
      "chip": "ym2612"
    },
    {
      "channel": 3,
      "note": 103,
      "start": 46.6409,
      "duration": 0.1108,
      "velocity": 127,
      "chip": "ym2612"
    },
    {
      "channel": 1,
      "note": 83,
      "start": 46.7508,
      "duration": 0.222,
      "velocity": 120,
      "chip": "ym2612"
    },
    {
      "channel": 2,
      "note": 91,
      "start": 46.7513,
      "duration": 0.222,
      "velocity": 120,
      "chip": "ym2612"
    },
    {
      "channel": 3,
      "note": 103,
      "start": 46.7518,
      "duration": 0.1053,
      "velocity": 127,
      "chip": "ym2612"
    },
    {
      "channel": 3,
      "note": 103,
      "start": 46.8573,
      "duration": 0.1179,
      "velocity": 127,
      "chip": "ym2612"
    },
    {
      "channel": 0,
      "note": 85,
      "start": 46.9724,
      "duration": 1.759,
      "velocity": 112,
      "chip": "ym2612"
    },
    {
      "channel": 1,
      "note": 82,
      "start": 46.9729,
      "duration": 0.223,
      "velocity": 120,
      "chip": "ym2612"
    },
    {
      "channel": 2,
      "note": 91,
      "start": 46.9734,
      "duration": 0.223,
      "velocity": 120,
      "chip": "ym2612"
    },
    {
      "channel": 3,
      "note": 103,
      "start": 46.9754,
      "duration": 0.1041,
      "velocity": 127,
      "chip": "ym2612"
    },
    {
      "channel": 4,
      "note": 74,
      "start": 46.9759,
      "duration": 0.1041,
      "velocity": 121,
      "chip": "ym2612"
    },
    {
      "channel": 3,
      "note": 103,
      "start": 47.0797,
      "duration": 0.1173,
      "velocity": 127,
      "chip": "ym2612"
    },
    {
      "channel": 4,
      "note": 77,
      "start": 47.0802,
      "duration": 0.1173,
      "velocity": 121,
      "chip": "ym2612"
    },
    {
      "channel": 1,
      "note": 82,
      "start": 47.1962,
      "duration": 0.2408,
      "velocity": 120,
      "chip": "ym2612"
    },
    {
      "channel": 2,
      "note": 91,
      "start": 47.1967,
      "duration": 0.2408,
      "velocity": 120,
      "chip": "ym2612"
    },
    {
      "channel": 3,
      "note": 103,
      "start": 47.1972,
      "duration": 0.1323,
      "velocity": 127,
      "chip": "ym2612"
    },
    {
      "channel": 4,
      "note": 81,
      "start": 47.1977,
      "duration": 0.4337,
      "velocity": 121,
      "chip": "ym2612"
    },
    {
      "channel": 3,
      "note": 103,
      "start": 47.3296,
      "duration": 0.1084,
      "velocity": 127,
      "chip": "ym2612"
    },
    {
      "channel": 1,
      "note": 82,
      "start": 47.4371,
      "duration": 0.1927,
      "velocity": 120,
      "chip": "ym2612"
    },
    {
      "channel": 2,
      "note": 91,
      "start": 47.4377,
      "duration": 0.1927,
      "velocity": 120,
      "chip": "ym2612"
    },
    {
      "channel": 3,
      "note": 103,
      "start": 47.4382,
      "duration": 0.0953,
      "velocity": 127,
      "chip": "ym2612"
    },
    {
      "channel": 3,
      "note": 103,
      "start": 47.5337,
      "duration": 0.0972,
      "velocity": 127,
      "chip": "ym2612"
    },
    {
      "channel": 1,
      "note": 82,
      "start": 47.6301,
      "duration": 0.2363,
      "velocity": 120,
      "chip": "ym2612"
    },
    {
      "channel": 2,
      "note": 91,
      "start": 47.6306,
      "duration": 0.2363,
      "velocity": 120,
      "chip": "ym2612"
    },
    {
      "channel": 3,
      "note": 103,
      "start": 47.6311,
      "duration": 0.102,
      "velocity": 127,
      "chip": "ym2612"
    },
    {
      "channel": 4,
      "note": 81,
      "start": 47.6316,
      "duration": 0.2363,
      "velocity": 121,
      "chip": "ym2612"
    },
    {
      "channel": 3,
      "note": 103,
      "start": 47.7333,
      "duration": 0.1341,
      "velocity": 127,
      "chip": "ym2612"
    },
    {
      "channel": 1,
      "note": 82,
      "start": 47.8665,
      "duration": 0.2217,
      "velocity": 120,
      "chip": "ym2612"
    },
    {
      "channel": 2,
      "note": 91,
      "start": 47.867,
      "duration": 0.2217,
      "velocity": 120,
      "chip": "ym2612"
    },
    {
      "channel": 3,
      "note": 103,
      "start": 47.8675,
      "duration": 0.1042,
      "velocity": 127,
      "chip": "ym2612"
    },
    {
      "channel": 4,
      "note": 84,
      "start": 47.868,
      "duration": 0.4416,
      "velocity": 121,
      "chip": "ym2612"
    },
    {
      "channel": 3,
      "note": 103,
      "start": 47.9719,
      "duration": 0.1174,
      "velocity": 127,
      "chip": "ym2612"
    },
    {
      "channel": 1,
      "note": 82,
      "start": 48.0884,
      "duration": 0.2197,
      "velocity": 120,
      "chip": "ym2612"
    },
    {
      "channel": 2,
      "note": 91,
      "start": 48.0888,
      "duration": 0.2198,
      "velocity": 120,
      "chip": "ym2612"
    },
    {
      "channel": 3,
      "note": 103,
      "start": 48.0893,
      "duration": 0.1156,
      "velocity": 127,
      "chip": "ym2612"
    },
    {
      "channel": 3,
      "note": 103,
      "start": 48.2052,
      "duration": 0.1039,
      "velocity": 127,
      "chip": "ym2612"
    },
    {
      "channel": 1,
      "note": 82,
      "start": 48.3082,
      "duration": 0.2052,
      "velocity": 120,
      "chip": "ym2612"
    },
    {
      "channel": 2,
      "note": 91,
      "start": 48.3088,
      "duration": 0.2052,
      "velocity": 120,
      "chip": "ym2612"
    },
    {
      "channel": 3,
      "note": 103,
      "start": 48.3093,
      "duration": 0.108,
      "velocity": 127,
      "chip": "ym2612"
    },
    {
      "channel": 4,
      "note": 80,
      "start": 48.3098,
      "duration": 0.4251,
      "velocity": 121,
      "chip": "ym2612"
    },
    {
      "channel": 3,
      "note": 103,
      "start": 48.4175,
      "duration": 0.0969,
      "velocity": 127,
      "chip": "ym2612"
    },
    {
      "channel": 1,
      "note": 82,
      "start": 48.5136,
      "duration": 0.2184,
      "velocity": 120,
      "chip": "ym2612"
    },
    {
      "channel": 2,
      "note": 91,
      "start": 48.5141,
      "duration": 0.2184,
      "velocity": 120,
      "chip": "ym2612"
    },
    {
      "channel": 3,
      "note": 103,
      "start": 48.5146,
      "duration": 0.1017,
      "velocity": 127,
      "chip": "ym2612"
    },
    {
      "channel": 3,
      "note": 103,
      "start": 48.6165,
      "duration": 0.1179,
      "velocity": 127,
      "chip": "ym2612"
    },
    {
      "channel": 0,
      "note": 89,
      "start": 48.7316,
      "duration": 1.7307,
      "velocity": 94,
      "chip": "ym2612"
    },
    {
      "channel": 1,
      "note": 81,
      "start": 48.7321,
      "duration": 0.2366,
      "velocity": 120,
      "chip": "ym2612"
    },
    {
      "channel": 2,
      "note": 91,
      "start": 48.7326,
      "duration": 0.2366,
      "velocity": 120,
      "chip": "ym2612"
    },
    {
      "channel": 3,
      "note": 103,
      "start": 48.7346,
      "duration": 0.101,
      "velocity": 127,
      "chip": "ym2612"
    },
    {
      "channel": 4,
      "note": 74,
      "start": 48.7351,
      "duration": 0.101,
      "velocity": 121,
      "chip": "ym2612"
    },
    {
      "channel": 3,
      "note": 103,
      "start": 48.8358,
      "duration": 0.134,
      "velocity": 127,
      "chip": "ym2612"
    },
    {
      "channel": 4,
      "note": 77,
      "start": 48.8363,
      "duration": 0.134,
      "velocity": 121,
      "chip": "ym2612"
    },
    {
      "channel": 1,
      "note": 81,
      "start": 48.9689,
      "duration": 0.2264,
      "velocity": 120,
      "chip": "ym2612"
    },
    {
      "channel": 2,
      "note": 91,
      "start": 48.9694,
      "duration": 0.2264,
      "velocity": 120,
      "chip": "ym2612"
    },
    {
      "channel": 3,
      "note": 103,
      "start": 48.9699,
      "duration": 0.1156,
      "velocity": 127,
      "chip": "ym2612"
    },
    {
      "channel": 4,
      "note": 81,
      "start": 48.9705,
      "duration": 0.4187,
      "velocity": 121,
      "chip": "ym2612"
    },
    {
      "channel": 3,
      "note": 103,
      "start": 49.0857,
      "duration": 0.1106,
      "velocity": 127,
      "chip": "ym2612"
    },
    {
      "channel": 1,
      "note": 81,
      "start": 49.1955,
      "duration": 0.1921,
      "velocity": 120,
      "chip": "ym2612"
    },
    {
      "channel": 2,
      "note": 91,
      "start": 49.196,
      "duration": 0.1921,
      "velocity": 120,
      "chip": "ym2612"
    },
    {
      "channel": 3,
      "note": 103,
      "start": 49.1965,
      "duration": 0.0952,
      "velocity": 127,
      "chip": "ym2612"
    },
    {
      "channel": 3,
      "note": 103,
      "start": 49.2919,
      "duration": 0.0967,
      "velocity": 127,
      "chip": "ym2612"
    },
    {
      "channel": 1,
      "note": 81,
      "start": 49.3878,
      "duration": 0.2344,
      "velocity": 120,
      "chip": "ym2612"
    },
    {
      "channel": 2,
      "note": 91,
      "start": 49.3883,
      "duration": 0.2344,
      "velocity": 120,
      "chip": "ym2612"
    },
    {
      "channel": 3,
      "note": 103,
      "start": 49.3888,
      "duration": 0.1168,
      "velocity": 127,
      "chip": "ym2612"
    },
    {
      "channel": 4,
      "note": 81,
      "start": 49.3893,
      "duration": 0.2344,
      "velocity": 121,
      "chip": "ym2612"
    },
    {
      "channel": 3,
      "note": 103,
      "start": 49.5058,
      "duration": 0.1174,
      "velocity": 127,
      "chip": "ym2612"
    },
    {
      "channel": 1,
      "note": 81,
      "start": 49.6223,
      "duration": 0.2183,
      "velocity": 120,
      "chip": "ym2612"
    },
    {
      "channel": 2,
      "note": 91,
      "start": 49.6229,
      "duration": 0.2182,
      "velocity": 120,
      "chip": "ym2612"
    },
    {
      "channel": 3,
      "note": 103,
      "start": 49.6234,
      "duration": 0.1007,
      "velocity": 127,
      "chip": "ym2612"
    },
    {
      "channel": 4,
      "note": 84,
      "start": 49.6239,
      "duration": 0.4543,
      "velocity": 121,
      "chip": "ym2612"
    },
    {
      "channel": 3,
      "note": 103,
      "start": 49.7242,
      "duration": 0.1174,
      "velocity": 127,
      "chip": "ym2612"
    },
    {
      "channel": 1,
      "note": 81,
      "start": 49.8408,
      "duration": 0.2359,
      "velocity": 120,
      "chip": "ym2612"
    },
    {
      "channel": 2,
      "note": 91,
      "start": 49.8412,
      "duration": 0.2359,
      "velocity": 120,
      "chip": "ym2612"
    },
    {
      "channel": 3,
      "note": 103,
      "start": 49.8417,
      "duration": 0.1156,
      "velocity": 127,
      "chip": "ym2612"
    },
    {
      "channel": 3,
      "note": 103,
      "start": 49.9576,
      "duration": 0.12,
      "velocity": 127,
      "chip": "ym2612"
    },
    {
      "channel": 1,
      "note": 81,
      "start": 50.0767,
      "duration": 0.1923,
      "velocity": 120,
      "chip": "ym2612"
    },
    {
      "channel": 2,
      "note": 91,
      "start": 50.0773,
      "duration": 0.1922,
      "velocity": 120,
      "chip": "ym2612"
    },
    {
      "channel": 3,
      "note": 103,
      "start": 50.0778,
      "duration": 0.0951,
      "velocity": 127,
      "chip": "ym2612"
    },
    {
      "channel": 4,
      "note": 80,
      "start": 50.0783,
      "duration": 0.3918,
      "velocity": 112,
      "chip": "ym2612"
    },
    {
      "channel": 3,
      "note": 103,
      "start": 50.173,
      "duration": 0.097,
      "velocity": 127,
      "chip": "ym2612"
    },
    {
      "channel": 1,
      "note": 81,
      "start": 50.2692,
      "duration": 0.1951,
      "velocity": 94,
      "chip": "ym2612"
    },
    {
      "channel": 2,
      "note": 91,
      "start": 50.2697,
      "duration": 0.1965,
      "velocity": 109,
      "chip": "ym2612"
    },
    {
      "channel": 3,
      "note": 103,
      "start": 50.2702,
      "duration": 0.0969,
      "velocity": 127,
      "chip": "ym2612"
    },
    {
      "channel": 3,
      "note": 103,
      "start": 50.3673,
      "duration": 0.1008,
      "velocity": 112,
      "chip": "ym2612"
    },
    {
      "channel": 0,
      "note": 48,
      "start": 50.4625,
      "duration": 10.9472,
      "velocity": 94,
      "chip": "ym2612"
    },
    {
      "channel": 1,
      "note": 60,
      "start": 50.4644,
      "duration": 0.1298,
      "velocity": 94,
      "chip": "ym2612"
    },
    {
      "channel": 2,
      "note": 60,
      "start": 50.4664,
      "duration": 0.1283,
      "velocity": 109,
      "chip": "ym2612"
    },
    {
      "channel": 3,
      "note": 48,
      "start": 50.4683,
      "duration": 10.9413,
      "velocity": 112,
      "chip": "ym2612"
    },
    {
      "channel": 4,
      "note": 60,
      "start": 50.4702,
      "duration": 10.9394,
      "velocity": 112,
      "chip": "ym2612"
    },
    {
      "channel": 5,
      "note": 72,
      "start": 50.4722,
      "duration": 10.9375,
      "velocity": 103,
      "chip": "ym2612"
    },
    {
      "channel": 1,
      "note": 67,
      "start": 50.5944,
      "duration": 0.1163,
      "velocity": 94,
      "chip": "ym2612"
    },
    {
      "channel": 2,
      "note": 67,
      "start": 50.5949,
      "duration": 0.1163,
      "velocity": 109,
      "chip": "ym2612"
    },
    {
      "channel": 1,
      "note": 68,
      "start": 50.7109,
      "duration": 0.1165,
      "velocity": 94,
      "chip": "ym2612"
    },
    {
      "channel": 2,
      "note": 68,
      "start": 50.7115,
      "duration": 0.1165,
      "velocity": 109,
      "chip": "ym2612"
    },
    {
      "channel": 1,
      "note": 59,
      "start": 50.8276,
      "duration": 0.7165,
      "velocity": 94,
      "chip": "ym2612"
    },
    {
      "channel": 2,
      "note": 59,
      "start": 50.8281,
      "duration": 0.7179,
      "velocity": 109,
      "chip": "ym2612"
    },
    {
      "channel": 1,
      "note": 60,
      "start": 51.5443,
      "duration": 0.1165,
      "velocity": 94,
      "chip": "ym2612"
    },
    {
      "channel": 2,
      "note": 60,
      "start": 51.5462,
      "duration": 0.115,
      "velocity": 109,
      "chip": "ym2612"
    },
    {
      "channel": 1,
      "note": 67,
      "start": 51.6609,
      "duration": 0.1332,
      "velocity": 94,
      "chip": "ym2612"
    },
    {
      "channel": 2,
      "note": 67,
      "start": 51.6615,
      "duration": 0.1331,
      "velocity": 109,
      "chip": "ym2612"
    },
    {
      "channel": 1,
      "note": 68,
      "start": 51.7943,
      "duration": 0.1165,
      "velocity": 94,
      "chip": "ym2612"
    },
    {
      "channel": 2,
      "note": 68,
      "start": 51.7948,
      "duration": 0.1165,
      "velocity": 109,
      "chip": "ym2612"
    },
    {
      "channel": 1,
      "note": 59,
      "start": 51.9109,
      "duration": 0.4832,
      "velocity": 94,
      "chip": "ym2612"
    },
    {
      "channel": 2,
      "note": 59,
      "start": 51.9115,
      "duration": 0.4846,
      "velocity": 109,
      "chip": "ym2612"
    },
    {
      "channel": 1,
      "note": 60,
      "start": 52.3943,
      "duration": 0.1165,
      "velocity": 94,
      "chip": "ym2612"
    },
    {
      "channel": 2,
      "note": 60,
      "start": 52.3962,
      "duration": 0.115,
      "velocity": 109,
      "chip": "ym2612"
    },
    {
      "channel": 1,
      "note": 67,
      "start": 52.5109,
      "duration": 0.1166,
      "velocity": 94,
      "chip": "ym2612"
    },
    {
      "channel": 2,
      "note": 67,
      "start": 52.5115,
      "duration": 0.1165,
      "velocity": 109,
      "chip": "ym2612"
    },
    {
      "channel": 1,
      "note": 68,
      "start": 52.6276,
      "duration": 0.1165,
      "velocity": 94,
      "chip": "ym2612"
    },
    {
      "channel": 2,
      "note": 68,
      "start": 52.6281,
      "duration": 0.1165,
      "velocity": 109,
      "chip": "ym2612"
    },
    {
      "channel": 1,
      "note": 59,
      "start": 52.7443,
      "duration": 0.7165,
      "velocity": 94,
      "chip": "ym2612"
    },
    {
      "channel": 2,
      "note": 59,
      "start": 52.7448,
      "duration": 0.7179,
      "velocity": 109,
      "chip": "ym2612"
    },
    {
      "channel": 1,
      "note": 60,
      "start": 53.4609,
      "duration": 0.1332,
      "velocity": 94,
      "chip": "ym2612"
    },
    {
      "channel": 2,
      "note": 60,
      "start": 53.4629,
      "duration": 0.1317,
      "velocity": 109,
      "chip": "ym2612"
    },
    {
      "channel": 1,
      "note": 67,
      "start": 53.5943,
      "duration": 0.1165,
      "velocity": 94,
      "chip": "ym2612"
    },
    {
      "channel": 2,
      "note": 67,
      "start": 53.5948,
      "duration": 0.1165,
      "velocity": 109,
      "chip": "ym2612"
    },
    {
      "channel": 1,
      "note": 68,
      "start": 53.7109,
      "duration": 0.1165,
      "velocity": 94,
      "chip": "ym2612"
    },
    {
      "channel": 2,
      "note": 68,
      "start": 53.7115,
      "duration": 0.1165,
      "velocity": 109,
      "chip": "ym2612"
    },
    {
      "channel": 1,
      "note": 59,
      "start": 53.8276,
      "duration": 0.4832,
      "velocity": 94,
      "chip": "ym2612"
    },
    {
      "channel": 2,
      "note": 59,
      "start": 53.8281,
      "duration": 0.4846,
      "velocity": 109,
      "chip": "ym2612"
    },
    {
      "channel": 1,
      "note": 62,
      "start": 54.3109,
      "duration": 0.1165,
      "velocity": 94,
      "chip": "ym2612"
    },
    {
      "channel": 2,
      "note": 62,
      "start": 54.3129,
      "duration": 0.115,
      "velocity": 109,
      "chip": "ym2612"
    },
    {
      "channel": 1,
      "note": 69,
      "start": 54.4276,
      "duration": 0.1165,
      "velocity": 94,
      "chip": "ym2612"
    },
    {
      "channel": 2,
      "note": 69,
      "start": 54.4281,
      "duration": 0.1165,
      "velocity": 109,
      "chip": "ym2612"
    },
    {
      "channel": 1,
      "note": 70,
      "start": 54.5443,
      "duration": 0.1165,
      "velocity": 94,
      "chip": "ym2612"
    },
    {
      "channel": 2,
      "note": 70,
      "start": 54.5448,
      "duration": 0.1165,
      "velocity": 109,
      "chip": "ym2612"
    },
    {
      "channel": 1,
      "note": 61,
      "start": 54.6609,
      "duration": 0.7332,
      "velocity": 94,
      "chip": "ym2612"
    },
    {
      "channel": 2,
      "note": 61,
      "start": 54.6615,
      "duration": 0.7346,
      "velocity": 109,
      "chip": "ym2612"
    },
    {
      "channel": 1,
      "note": 62,
      "start": 55.3943,
      "duration": 0.1165,
      "velocity": 94,
      "chip": "ym2612"
    },
    {
      "channel": 2,
      "note": 62,
      "start": 55.3962,
      "duration": 0.115,
      "velocity": 109,
      "chip": "ym2612"
    },
    {
      "channel": 1,
      "note": 69,
      "start": 55.5109,
      "duration": 0.1166,
      "velocity": 94,
      "chip": "ym2612"
    },
    {
      "channel": 2,
      "note": 69,
      "start": 55.5115,
      "duration": 0.1165,
      "velocity": 109,
      "chip": "ym2612"
    },
    {
      "channel": 1,
      "note": 70,
      "start": 55.6276,
      "duration": 0.1165,
      "velocity": 94,
      "chip": "ym2612"
    },
    {
      "channel": 2,
      "note": 70,
      "start": 55.6281,
      "duration": 0.1165,
      "velocity": 109,
      "chip": "ym2612"
    },
    {
      "channel": 1,
      "note": 61,
      "start": 55.7443,
      "duration": 0.4832,
      "velocity": 94,
      "chip": "ym2612"
    },
    {
      "channel": 2,
      "note": 61,
      "start": 55.7448,
      "duration": 0.4846,
      "velocity": 109,
      "chip": "ym2612"
    },
    {
      "channel": 1,
      "note": 62,
      "start": 56.2276,
      "duration": 0.1165,
      "velocity": 94,
      "chip": "ym2612"
    },
    {
      "channel": 2,
      "note": 62,
      "start": 56.2296,
      "duration": 0.115,
      "velocity": 109,
      "chip": "ym2612"
    },
    {
      "channel": 1,
      "note": 69,
      "start": 56.3443,
      "duration": 0.1166,
      "velocity": 94,
      "chip": "ym2612"
    },
    {
      "channel": 2,
      "note": 69,
      "start": 56.3448,
      "duration": 0.1165,
      "velocity": 109,
      "chip": "ym2612"
    },
    {
      "channel": 1,
      "note": 70,
      "start": 56.4609,
      "duration": 0.1332,
      "velocity": 94,
      "chip": "ym2612"
    },
    {
      "channel": 2,
      "note": 70,
      "start": 56.4615,
      "duration": 0.1331,
      "velocity": 109,
      "chip": "ym2612"
    },
    {
      "channel": 1,
      "note": 61,
      "start": 56.5943,
      "duration": 0.7165,
      "velocity": 94,
      "chip": "ym2612"
    },
    {
      "channel": 2,
      "note": 61,
      "start": 56.5948,
      "duration": 0.7179,
      "velocity": 109,
      "chip": "ym2612"
    },
    {
      "channel": 1,
      "note": 62,
      "start": 57.3109,
      "duration": 0.1165,
      "velocity": 94,
      "chip": "ym2612"
    },
    {
      "channel": 2,
      "note": 62,
      "start": 57.3129,
      "duration": 0.115,
      "velocity": 109,
      "chip": "ym2612"
    },
    {
      "channel": 1,
      "note": 69,
      "start": 57.4276,
      "duration": 0.1165,
      "velocity": 94,
      "chip": "ym2612"
    },
    {
      "channel": 2,
      "note": 69,
      "start": 57.4281,
      "duration": 0.1165,
      "velocity": 109,
      "chip": "ym2612"
    },
    {
      "channel": 1,
      "note": 70,
      "start": 57.5443,
      "duration": 0.1165,
      "velocity": 94,
      "chip": "ym2612"
    },
    {
      "channel": 2,
      "note": 70,
      "start": 57.5448,
      "duration": 0.1165,
      "velocity": 109,
      "chip": "ym2612"
    },
    {
      "channel": 1,
      "note": 61,
      "start": 57.6609,
      "duration": 3.7488,
      "velocity": 94,
      "chip": "ym2612"
    },
    {
      "channel": 2,
      "note": 61,
      "start": 57.6615,
      "duration": 3.7482,
      "velocity": 109,
      "chip": "ym2612"
    }
  ]
}