{
  "track_name": "05 - Funhouse Level 2 ()",
  "duration_sec": 101.071,
  "sample_rate": 44100,
  "note_count": 1519,
  "unique_pitches": 44,
  "pitch_range": 53,
  "avg_note_duration": 0.3049,
  "reconstruction_stats": {
    "notes_reconstructed": 1519,
    "keyon_events": 1519,
    "keyoff_events": 1519,
    "orphan_keyons": 0,
    "unique_pitches": 44,
    "pitch_range": 53,
    "avg_duration_sec": 0.3049
  },
  "metadata": {
    "source": "N\\Nightmare Circus\\05 - Funhouse Level 2 ().vgz"
  },
  "notes": [
    {
      "channel": 0,
      "note": 52,
      "start": 0.0,
      "duration": 1.6575,
      "velocity": 110,
      "chip": "ym2612"
    },
    {
      "channel": 1,
      "note": 59,
      "start": 0.0077,
      "duration": 1.6499,
      "velocity": 110,
      "chip": "ym2612"
    },
    {
      "channel": 3,
      "note": 52,
      "start": 0.0173,
      "duration": 0.2071,
      "velocity": 89,
      "chip": "ym2612"
    },
    {
      "channel": 4,
      "note": 40,
      "start": 0.0251,
      "duration": 6.9494,
      "velocity": 106,
      "chip": "ym2612"
    },
    {
      "channel": 2,
      "note": 49,
      "start": 0.0334,
      "duration": 0.5912,
      "velocity": 95,
      "chip": "ym2612"
    },
    {
      "channel": 3,
      "note": 52,
      "start": 0.2278,
      "duration": 0.1966,
      "velocity": 89,
      "chip": "ym2612"
    },
    {
      "channel": 3,
      "note": 52,
      "start": 0.4444,
      "duration": 0.1967,
      "velocity": 89,
      "chip": "ym2612"
    },
    {
      "channel": 3,
      "note": 52,
      "start": 0.6609,
      "duration": 0.2135,
      "velocity": 89,
      "chip": "ym2612"
    },
    {
      "channel": 3,
      "note": 52,
      "start": 0.8941,
      "duration": 0.1968,
      "velocity": 89,
      "chip": "ym2612"
    },
    {
      "channel": 5,
      "note": 53,
      "start": 0.8991,
      "duration": 0.192,
      "velocity": 127,
      "chip": "ym2612"
    },
    {
      "channel": 3,
      "note": 52,
      "start": 1.1108,
      "duration": 0.1968,
      "velocity": 89,
      "chip": "ym2612"
    },
    {
      "channel": 3,
      "note": 52,
      "start": 1.3275,
      "duration": 0.1968,
      "velocity": 89,
      "chip": "ym2612"
    },
    {
      "channel": 3,
      "note": 52,
      "start": 1.5612,
      "duration": 0.1964,
      "velocity": 89,
      "chip": "ym2612"
    },
    {
      "channel": 2,
      "note": 49,
      "start": 1.5654,
      "duration": 0.109,
      "velocity": 95,
      "chip": "ym2612"
    },
    {
      "channel": 0,
      "note": 53,
      "start": 1.7775,
      "duration": 0.7468,
      "velocity": 110,
      "chip": "ym2612"
    },
    {
      "channel": 1,
      "note": 60,
      "start": 1.7812,
      "duration": 0.7264,
      "velocity": 110,
      "chip": "ym2612"
    },
    {
      "channel": 3,
      "note": 53,
      "start": 1.7839,
      "duration": 0.1905,
      "velocity": 89,
      "chip": "ym2612"
    },
    {
      "channel": 2,
      "note": 49,
      "start": 1.7877,
      "duration": 0.1203,
      "velocity": 95,
      "chip": "ym2612"
    },
    {
      "channel": 3,
      "note": 53,
      "start": 1.9942,
      "duration": 0.1969,
      "velocity": 89,
      "chip": "ym2612"
    },
    {
      "channel": 5,
      "note": 33,
      "start": 1.9988,
      "duration": 0.1925,
      "velocity": 124,
      "chip": "ym2612"
    },
    {
      "channel": 3,
      "note": 53,
      "start": 2.2108,
      "duration": 0.2136,
      "velocity": 89,
      "chip": "ym2612"
    },
    {
      "channel": 3,
      "note": 53,
      "start": 2.4444,
      "duration": 0.1968,
      "velocity": 89,
      "chip": "ym2612"
    },
    {
      "channel": 0,
      "note": 51,
      "start": 2.6606,
      "duration": 0.6971,
      "velocity": 110,
      "chip": "ym2612"
    },
    {
      "channel": 1,
      "note": 58,
      "start": 2.6641,
      "duration": 0.6938,
      "velocity": 110,
      "chip": "ym2612"
    },
    {
      "channel": 3,
      "note": 51,
      "start": 2.6668,
      "duration": 0.191,
      "velocity": 89,
      "chip": "ym2612"
    },
    {
      "channel": 5,
      "note": 53,
      "start": 2.671,
      "duration": 0.1869,
      "velocity": 127,
      "chip": "ym2612"
    },
    {
      "channel": 3,
      "note": 51,
      "start": 2.8775,
      "duration": 0.2135,
      "velocity": 89,
      "chip": "ym2612"
    },
    {
      "channel": 3,
      "note": 51,
      "start": 3.1109,
      "duration": 0.1968,
      "velocity": 89,
      "chip": "ym2612"
    },
    {
      "channel": 3,
      "note": 51,
      "start": 3.3276,
      "duration": 0.1968,
      "velocity": 89,
      "chip": "ym2612"
    },
    {
      "channel": 2,
      "note": 49,
      "start": 3.3315,
      "duration": 0.1597,
      "velocity": 95,
      "chip": "ym2612"
    },
    {
      "channel": 0,
      "note": 52,
      "start": 3.5453,
      "duration": 1.6623,
      "velocity": 110,
      "chip": "ym2612"
    },
    {
      "channel": 1,
      "note": 59,
      "start": 3.5504,
      "duration": 1.6574,
      "velocity": 110,
      "chip": "ym2612"
    },
    {
      "channel": 3,
      "note": 52,
      "start": 3.5531,
      "duration": 0.188,
      "velocity": 89,
      "chip": "ym2612"
    },
    {
      "channel": 2,
      "note": 49,
      "start": 3.5576,
      "duration": 0.1669,
      "velocity": 95,
      "chip": "ym2612"
    },
    {
      "channel": 3,
      "note": 52,
      "start": 3.7777,
      "duration": 0.1968,
      "velocity": 89,
      "chip": "ym2612"
    },
    {
      "channel": 5,
      "note": 33,
      "start": 3.7819,
      "duration": 0.1927,
      "velocity": 124,
      "chip": "ym2612"
    },
    {
      "channel": 3,
      "note": 52,
      "start": 3.9942,
      "duration": 0.1969,
      "velocity": 89,
      "chip": "ym2612"
    },
    {
      "channel": 2,
      "note": 50,
      "start": 3.9978,
      "duration": 0.0008,
      "velocity": 102,
      "chip": "ym2612"
    },
    {
      "channel": 2,
      "note": 49,
      "start": 4.0014,
      "duration": 0.0232,
      "velocity": 106,
      "chip": "ym2612"
    },
    {
      "channel": 5,
      "note": 44,
      "start": 4.029,
      "duration": 0.1457,
      "velocity": 102,
      "chip": "ym2612"
    },
    {
      "channel": 2,
      "note": 49,
      "start": 4.0327,
      "duration": 0.1421,
      "velocity": 106,
      "chip": "ym2612"
    },
    {
      "channel": 3,
      "note": 52,
      "start": 4.211,
      "duration": 0.1968,
      "velocity": 89,
      "chip": "ym2612"
    },
    {
      "channel": 3,
      "note": 52,
      "start": 4.4275,
      "duration": 0.2135,
      "velocity": 89,
      "chip": "ym2612"
    },
    {
      "channel": 5,
      "note": 53,
      "start": 4.4319,
      "duration": 0.2094,
      "velocity": 127,
      "chip": "ym2612"
    },
    {
      "channel": 3,
      "note": 52,
      "start": 4.6609,
      "duration": 0.1968,
      "velocity": 89,
      "chip": "ym2612"
    },
    {
      "channel": 2,
      "note": 44,
      "start": 4.665,
      "duration": 0.0008,
      "velocity": 102,
      "chip": "ym2612"
    },
    {
      "channel": 2,
      "note": 49,
      "start": 4.6684,
      "duration": 0.0229,
      "velocity": 106,
      "chip": "ym2612"
    },
    {
      "channel": 5,
      "note": 38,
      "start": 4.6956,
      "duration": 0.1456,
      "velocity": 102,
      "chip": "ym2612"
    },
    {
      "channel": 2,
      "note": 49,
      "start": 4.6991,
      "duration": 0.1422,
      "velocity": 106,
      "chip": "ym2612"
    },
    {
      "channel": 3,
      "note": 52,
      "start": 4.8775,
      "duration": 0.1969,
      "velocity": 89,
      "chip": "ym2612"
    },
    {
      "channel": 3,
      "note": 52,
      "start": 5.0946,
      "duration": 0.2131,
      "velocity": 89,
      "chip": "ym2612"
    },
    {
      "channel": 2,
      "note": 49,
      "start": 5.0984,
      "duration": 0.1261,
      "velocity": 95,
      "chip": "ym2612"
    },
    {
      "channel": 0,
      "note": 53,
      "start": 5.3274,
      "duration": 0.7469,
      "velocity": 110,
      "chip": "ym2612"
    },
    {
      "channel": 1,
      "note": 60,
      "start": 5.3312,
      "duration": 0.7267,
      "velocity": 110,
      "chip": "ym2612"
    },
    {
      "channel": 3,
      "note": 53,
      "start": 5.3339,
      "duration": 0.1905,
      "velocity": 89,
      "chip": "ym2612"
    },
    {
      "channel": 2,
      "note": 49,
      "start": 5.3382,
      "duration": 0.1864,
      "velocity": 95,
      "chip": "ym2612"
    },
    {
      "channel": 3,
      "note": 53,
      "start": 5.5442,
      "duration": 0.1969,
      "velocity": 89,
      "chip": "ym2612"
    },
    {
      "channel": 5,
      "note": 33,
      "start": 5.5488,
      "duration": 0.1924,
      "velocity": 124,
      "chip": "ym2612"
    },
    {
      "channel": 3,
      "note": 53,
      "start": 5.7608,
      "duration": 0.1969,
      "velocity": 89,
      "chip": "ym2612"
    },
    {
      "channel": 2,
      "note": 50,
      "start": 5.7645,
      "duration": 0.0008,
      "velocity": 102,
      "chip": "ym2612"
    },
    {
      "channel": 2,
      "note": 49,
      "start": 5.768,
      "duration": 0.0233,
      "velocity": 106,
      "chip": "ym2612"
    },
    {
      "channel": 5,
      "note": 44,
      "start": 5.7957,
      "duration": 0.1456,
      "velocity": 102,
      "chip": "ym2612"
    },
    {
      "channel": 2,
      "note": 49,
      "start": 5.7991,
      "duration": 0.1424,
      "velocity": 106,
      "chip": "ym2612"
    },
    {
      "channel": 3,
      "note": 53,
      "start": 5.9944,
      "duration": 0.1968,
      "velocity": 89,
      "chip": "ym2612"
    },
    {
      "channel": 5,
      "note": 44,
      "start": 5.9978,
      "duration": 0.0267,
      "velocity": 102,
      "chip": "ym2612"
    },
    {
      "channel": 2,
      "note": 49,
      "start": 6.0016,
      "duration": 0.0231,
      "velocity": 106,
      "chip": "ym2612"
    },
    {
      "channel": 5,
      "note": 38,
      "start": 6.029,
      "duration": 0.1457,
      "velocity": 102,
      "chip": "ym2612"
    },
    {
      "channel": 2,
      "note": 49,
      "start": 6.0323,
      "duration": 0.1425,
      "velocity": 106,
      "chip": "ym2612"
    },
    {
      "channel": 0,
      "note": 51,
      "start": 6.2106,
      "duration": 0.6971,
      "velocity": 110,
      "chip": "ym2612"
    },
    {
      "channel": 1,
      "note": 58,
      "start": 6.2141,
      "duration": 0.6938,
      "velocity": 110,
      "chip": "ym2612"
    },
    {
      "channel": 3,
      "note": 51,
      "start": 6.2168,
      "duration": 0.191,
      "velocity": 89,
      "chip": "ym2612"
    },
    {
      "channel": 5,
      "note": 53,
      "start": 6.2212,
      "duration": 0.1868,
      "velocity": 127,
      "chip": "ym2612"
    },
    {
      "channel": 3,
      "note": 51,
      "start": 6.4276,
      "duration": 0.1968,
      "velocity": 89,
      "chip": "ym2612"
    },
    {
      "channel": 3,
      "note": 51,
      "start": 6.6442,
      "duration": 0.2135,
      "velocity": 89,
      "chip": "ym2612"
    },
    {
      "channel": 3,
      "note": 51,
      "start": 6.8776,
      "duration": 0.1967,
      "velocity": 89,
      "chip": "ym2612"
    },
    {
      "channel": 2,
      "note": 49,
      "start": 6.8958,
      "duration": 0.0455,
      "velocity": 95,
      "chip": "ym2612"
    },
    {
      "channel": 2,
      "note": 49,
      "start": 6.9624,
      "duration": 0.0288,
      "velocity": 95,
      "chip": "ym2612"
    },
    {
      "channel": 2,
      "note": 49,
      "start": 7.0289,
      "duration": 0.0457,
      "velocity": 95,
      "chip": "ym2612"
    },
    {
      "channel": 0,
      "note": 64,
      "start": 7.0969,
      "duration": 1.6774,
      "velocity": 110,
      "chip": "ym2612"
    },
    {
      "channel": 1,
      "note": 71,
      "start": 7.1032,
      "duration": 1.6713,
      "velocity": 110,
      "chip": "ym2612"
    },
    {
      "channel": 3,
      "note": 52,
      "start": 7.1093,
      "duration": 0.1652,
      "velocity": 89,
      "chip": "ym2612"
    },
    {
      "channel": 2,
      "note": 49,
      "start": 7.1176,
      "duration": 0.3737,
      "velocity": 95,
      "chip": "ym2612"
    },
    {
      "channel": 3,
      "note": 52,
      "start": 7.3112,
      "duration": 0.1798,
      "velocity": 89,
      "chip": "ym2612"
    },
    {
      "channel": 5,
      "note": 75,
      "start": 7.5449,
      "duration": 0.3964,
      "velocity": 118,
      "chip": "ym2612"
    },
    {
      "channel": 3,
      "note": 52,
      "start": 7.5475,
      "duration": 0.1768,
      "velocity": 89,
      "chip": "ym2612"
    },
    {
      "channel": 4,
      "note": 64,
      "start": 7.5504,
      "duration": 0.3741,
      "velocity": 97,
      "chip": "ym2612"
    },
    {
      "channel": 3,
      "note": 52,
      "start": 7.763,
      "duration": 0.1782,
      "velocity": 89,
      "chip": "ym2612"
    },
    {
      "channel": 5,
      "note": 74,
      "start": 7.9776,
      "duration": 0.4136,
      "velocity": 118,
      "chip": "ym2612"
    },
    {
      "channel": 3,
      "note": 52,
      "start": 7.9802,
      "duration": 0.1776,
      "velocity": 89,
      "chip": "ym2612"
    },
    {
      "channel": 4,
      "note": 63,
      "start": 7.9829,
      "duration": 0.3749,
      "velocity": 97,
      "chip": "ym2612"
    },
    {
      "channel": 2,
      "note": 53,
      "start": 7.9861,
      "duration": 0.1884,
      "velocity": 127,
      "chip": "ym2612"
    },
    {
      "channel": 3,
      "note": 52,
      "start": 8.2129,
      "duration": 0.1781,
      "velocity": 89,
      "chip": "ym2612"
    },
    {
      "channel": 5,
      "note": 71,
      "start": 8.4275,
      "duration": 0.397,
      "velocity": 118,
      "chip": "ym2612"
    },
    {
      "channel": 3,
      "note": 52,
      "start": 8.4301,
      "duration": 0.1776,
      "velocity": 89,
      "chip": "ym2612"
    },
    {
      "channel": 4,
      "note": 62,
      "start": 8.4328,
      "duration": 0.3749,
      "velocity": 97,
      "chip": "ym2612"
    },
    {
      "channel": 3,
      "note": 52,
      "start": 8.6459,
      "duration": 0.1784,
      "velocity": 89,
      "chip": "ym2612"
    },
    {
      "channel": 2,
      "note": 49,
      "start": 8.6498,
      "duration": 0.1749,
      "velocity": 95,
      "chip": "ym2612"
    },
    {
      "channel": 0,
      "note": 65,
      "start": 8.8612,
      "duration": 0.7465,
      "velocity": 110,
      "chip": "ym2612"
    },
    {
      "channel": 1,
      "note": 72,
      "start": 8.8654,
      "duration": 0.7258,
      "velocity": 110,
      "chip": "ym2612"
    },
    {
      "channel": 5,
      "note": 72,
      "start": 8.868,
      "duration": 0.4066,
      "velocity": 118,
      "chip": "ym2612"
    },
    {
      "channel": 3,
      "note": 53,
      "start": 8.8708,
      "duration": 0.2037,
      "velocity": 89,
      "chip": "ym2612"
    },
    {
      "channel": 4,
      "note": 61,
      "start": 8.8744,
      "duration": 0.3835,
      "velocity": 97,
      "chip": "ym2612"
    },
    {
      "channel": 2,
      "note": 49,
      "start": 8.8783,
      "duration": 0.1964,
      "velocity": 95,
      "chip": "ym2612"
    },
    {
      "channel": 3,
      "note": 53,
      "start": 9.0959,
      "duration": 0.1952,
      "velocity": 89,
      "chip": "ym2612"
    },
    {
      "channel": 2,
      "note": 33,
      "start": 9.1002,
      "duration": 0.1912,
      "velocity": 124,
      "chip": "ym2612"
    },
    {
      "channel": 5,
      "note": 71,
      "start": 9.311,
      "duration": 0.3969,
      "velocity": 118,
      "chip": "ym2612"
    },
    {
      "channel": 3,
      "note": 53,
      "start": 9.3136,
      "duration": 0.1943,
      "velocity": 89,
      "chip": "ym2612"
    },
    {
      "channel": 4,
      "note": 60,
      "start": 9.3163,
      "duration": 0.3749,
      "velocity": 97,
      "chip": "ym2612"
    },
    {
      "channel": 3,
      "note": 53,
      "start": 9.5292,
      "duration": 0.1953,
      "velocity": 89,
      "chip": "ym2612"
    },
    {
      "channel": 0,
      "note": 63,
      "start": 9.7607,
      "duration": 0.6807,
      "velocity": 110,
      "chip": "ym2612"
    },
    {
      "channel": 1,
      "note": 70,
      "start": 9.7642,
      "duration": 0.6937,
      "velocity": 110,
      "chip": "ym2612"
    },
    {
      "channel": 5,
      "note": 67,
      "start": 9.7669,
      "duration": 0.391,
      "velocity": 118,
      "chip": "ym2612"
    },
    {
      "channel": 3,
      "note": 51,
      "start": 9.7695,
      "duration": 0.1884,
      "velocity": 89,
      "chip": "ym2612"
    },
    {
      "channel": 4,
      "note": 59,
      "start": 9.7722,
      "duration": 0.369,
      "velocity": 97,
      "chip": "ym2612"
    },
    {
      "channel": 2,
      "note": 53,
      "start": 9.776,
      "duration": 0.1821,
      "velocity": 127,
      "chip": "ym2612"
    },
    {
      "channel": 3,
      "note": 51,
      "start": 9.9793,
      "duration": 0.1953,
      "velocity": 89,
      "chip": "ym2612"
    },
    {
      "channel": 5,
      "note": 69,
      "start": 10.1944,
      "duration": 0.4135,
      "velocity": 118,
      "chip": "ym2612"
    },
    {
      "channel": 3,
      "note": 51,
      "start": 10.197,
      "duration": 0.1941,
      "velocity": 89,
      "chip": "ym2612"
    },
    {
      "channel": 4,
      "note": 58,
      "start": 10.1996,
      "duration": 0.375,
      "velocity": 97,
      "chip": "ym2612"
    },
    {
      "channel": 3,
      "note": 51,
      "start": 10.4126,
      "duration": 0.2118,
      "velocity": 89,
      "chip": "ym2612"
    },
    {
      "channel": 2,
      "note": 49,
      "start": 10.4168,
      "duration": 0.1246,
      "velocity": 95,
      "chip": "ym2612"
    },
    {
      "channel": 1,
      "note": 52,
      "start": 10.649,
      "duration": 1.542,
      "velocity": 110,
      "chip": "ym2612"
    },
    {
      "channel": 5,
      "note": 71,
      "start": 10.6522,
      "duration": 0.1893,
      "velocity": 118,
      "chip": "ym2612"
    },
    {
      "channel": 3,
      "note": 52,
      "start": 10.6552,
      "duration": 0.1861,
      "velocity": 89,
      "chip": "ym2612"
    },
    {
      "channel": 4,
      "note": 57,
      "start": 10.6585,
      "duration": 0.3661,
      "velocity": 97,
      "chip": "ym2612"
    },
    {
      "channel": 2,
      "note": 49,
      "start": 10.6623,
      "duration": 0.1793,
      "velocity": 95,
      "chip": "ym2612"
    },
    {
      "channel": 3,
      "note": 52,
      "start": 10.8631,
      "duration": 0.1948,
      "velocity": 89,
      "chip": "ym2612"
    },
    {
      "channel": 0,
      "note": 33,
      "start": 10.8678,
      "duration": 0.19,
      "velocity": 124,
      "chip": "ym2612"
    },
    {
      "channel": 3,
      "note": 52,
      "start": 11.0778,
      "duration": 0.2134,
      "velocity": 89,
      "chip": "ym2612"
    },
    {
      "channel": 4,
      "note": 55,
      "start": 11.0804,
      "duration": 0.3942,
      "velocity": 97,
      "chip": "ym2612"
    },
    {
      "channel": 5,
      "note": 76,
      "start": 11.0854,
      "duration": 0.0392,
      "velocity": 103,
      "chip": "ym2612"
    },
    {
      "channel": 2,
      "note": 39,
      "start": 11.0888,
      "duration": 0.004,
      "velocity": 102,
      "chip": "ym2612"
    },
    {
      "channel": 0,
      "note": 76,
      "start": 11.1278,
      "duration": 0.0632,
      "velocity": 103,
      "chip": "ym2612"
    },
    {
      "channel": 2,
      "note": 33,
      "start": 11.1319,
      "duration": 0.0595,
      "velocity": 102,
      "chip": "ym2612"
    },
    {
      "channel": 3,
      "note": 52,
      "start": 11.311,
      "duration": 0.1969,
      "velocity": 89,
      "chip": "ym2612"
    },
    {
      "channel": 5,
      "note": 79,
      "start": 11.3136,
      "duration": 0.0277,
      "velocity": 103,
      "chip": "ym2612"
    },
    {
      "channel": 2,
      "note": 39,
      "start": 11.3171,
      "duration": 0.0078,
      "velocity": 102,
      "chip": "ym2612"
    },
    {
      "channel": 2,
      "note": 33,
      "start": 11.3297,
      "duration": 0.0784,
      "velocity": 102,
      "chip": "ym2612"
    },
    {
      "channel": 0,
      "note": 79,
      "start": 11.344,
      "duration": 0.0637,
      "velocity": 103,
      "chip": "ym2612"
    },
    {
      "channel": 3,
      "note": 52,
      "start": 11.5275,
      "duration": 0.1969,
      "velocity": 89,
      "chip": "ym2612"
    },
    {
      "channel": 4,
      "note": 54,
      "start": 11.5302,
      "duration": 0.3777,
      "velocity": 97,
      "chip": "ym2612"
    },
    {
      "channel": 5,
      "note": 83,
      "start": 11.533,
      "duration": 0.0247,
      "velocity": 103,
      "chip": "ym2612"
    },
    {
      "channel": 0,
      "note": 53,
      "start": 11.536,
      "duration": 0.1882,
      "velocity": 127,
      "chip": "ym2612"
    },
    {
      "channel": 2,
      "note": 83,
      "start": 11.5614,
      "duration": 0.0798,
      "velocity": 103,
      "chip": "ym2612"
    },
    {
      "channel": 3,
      "note": 52,
      "start": 11.7442,
      "duration": 0.1967,
      "velocity": 89,
      "chip": "ym2612"
    },
    {
      "channel": 2,
      "note": 49,
      "start": 11.7484,
      "duration": 0.0428,
      "velocity": 106,
      "chip": "ym2612"
    },
    {
      "channel": 2,
      "note": 49,
      "start": 11.7963,
      "duration": 0.1283,
      "velocity": 106,
      "chip": "ym2612"
    },
    {
      "channel": 3,
      "note": 52,
      "start": 11.9775,
      "duration": 0.197,
      "velocity": 89,
      "chip": "ym2612"
    },
    {
      "channel": 4,
      "note": 52,
      "start": 11.9802,
      "duration": 0.3776,
      "velocity": 97,
      "chip": "ym2612"
    },
    {
      "channel": 3,
      "note": 52,
      "start": 12.1943,
      "duration": 0.1968,
      "velocity": 89,
      "chip": "ym2612"
    },
    {
      "channel": 2,
      "note": 49,
      "start": 12.2124,
      "duration": 0.0456,
      "velocity": 95,
      "chip": "ym2612"
    },
    {
      "channel": 2,
      "note": 49,
      "start": 12.2791,
      "duration": 0.0454,
      "velocity": 95,
      "chip": "ym2612"
    },
    {
      "channel": 2,
      "note": 49,
      "start": 12.3456,
      "duration": 0.0457,
      "velocity": 95,
      "chip": "ym2612"
    },
    {
      "channel": 1,
      "note": 48,
      "start": 12.4122,
      "duration": 1.6123,
      "velocity": 110,
      "chip": "ym2612"
    },
    {
      "channel": 5,
      "note": 70,
      "start": 12.415,
      "duration": 0.1929,
      "velocity": 118,
      "chip": "ym2612"
    },
    {
      "channel": 3,
      "note": 48,
      "start": 12.4176,
      "duration": 0.1901,
      "velocity": 89,
      "chip": "ym2612"
    },
    {
      "channel": 4,
      "note": 51,
      "start": 12.4202,
      "duration": 0.371,
      "velocity": 97,
      "chip": "ym2612"
    },
    {
      "channel": 2,
      "note": 49,
      "start": 12.4251,
      "duration": 0.1661,
      "velocity": 95,
      "chip": "ym2612"
    },
    {
      "channel": 3,
      "note": 48,
      "start": 12.6293,
      "duration": 0.212,
      "velocity": 89,
      "chip": "ym2612"
    },
    {
      "channel": 0,
      "note": 33,
      "start": 12.6333,
      "duration": 0.2078,
      "velocity": 124,
      "chip": "ym2612"
    },
    {
      "channel": 3,
      "note": 48,
      "start": 12.861,
      "duration": 0.1968,
      "velocity": 89,
      "chip": "ym2612"
    },
    {
      "channel": 4,
      "note": 53,
      "start": 12.8637,
      "duration": 0.3776,
      "velocity": 97,
      "chip": "ym2612"
    },
    {
      "channel": 2,
      "note": 72,
      "start": 12.8666,
      "duration": 0.0247,
      "velocity": 103,
      "chip": "ym2612"
    },
    {
      "channel": 5,
      "note": 39,
      "start": 12.8699,
      "duration": 0.0048,
      "velocity": 102,
      "chip": "ym2612"
    },
    {
      "channel": 0,
      "note": 72,
      "start": 12.8943,
      "duration": 0.0634,
      "velocity": 103,
      "chip": "ym2612"
    },
    {
      "channel": 5,
      "note": 33,
      "start": 12.8983,
      "duration": 0.0597,
      "velocity": 102,
      "chip": "ym2612"
    },
    {
      "channel": 3,
      "note": 48,
      "start": 13.0777,
      "duration": 0.1969,
      "velocity": 89,
      "chip": "ym2612"
    },
    {
      "channel": 2,
      "note": 75,
      "start": 13.0805,
      "duration": 0.0275,
      "velocity": 103,
      "chip": "ym2612"
    },
    {
      "channel": 5,
      "note": 39,
      "start": 13.0838,
      "duration": 0.0076,
      "velocity": 102,
      "chip": "ym2612"
    },
    {
      "channel": 5,
      "note": 33,
      "start": 13.0958,
      "duration": 0.0956,
      "velocity": 102,
      "chip": "ym2612"
    },
    {
      "channel": 0,
      "note": 75,
      "start": 13.1106,
      "duration": 0.0804,
      "velocity": 103,
      "chip": "ym2612"
    },
    {
      "channel": 3,
      "note": 48,
      "start": 13.2942,
      "duration": 0.2136,
      "velocity": 89,
      "chip": "ym2612"
    },
    {
      "channel": 4,
      "note": 55,
      "start": 13.2969,
      "duration": 0.3942,
      "velocity": 97,
      "chip": "ym2612"
    },
    {
      "channel": 2,
      "note": 79,
      "start": 13.2997,
      "duration": 0.0415,
      "velocity": 103,
      "chip": "ym2612"
    },
    {
      "channel": 0,
      "note": 53,
      "start": 13.3031,
      "duration": 0.2046,
      "velocity": 127,
      "chip": "ym2612"
    },
    {
      "channel": 5,
      "note": 79,
      "start": 13.3444,
      "duration": 0.0635,
      "velocity": 103,
      "chip": "ym2612"
    },
    {
      "channel": 3,
      "note": 48,
      "start": 13.5276,
      "duration": 0.1968,
      "velocity": 89,
      "chip": "ym2612"
    },
    {
      "channel": 2,
      "note": 49,
      "start": 13.5321,
      "duration": 0.0258,
      "velocity": 106,
      "chip": "ym2612"
    },
    {
      "channel": 2,
      "note": 49,
      "start": 13.5628,
      "duration": 0.1284,
      "velocity": 106,
      "chip": "ym2612"
    },
    {
      "channel": 3,
      "note": 48,
      "start": 13.7443,
      "duration": 0.1968,
      "velocity": 89,
      "chip": "ym2612"
    },
    {
      "channel": 4,
      "note": 56,
      "start": 13.7469,
      "duration": 0.3776,
      "velocity": 97,
      "chip": "ym2612"
    },
    {
      "channel": 5,
      "note": 39,
      "start": 13.7508,
      "duration": 0.007,
      "velocity": 102,
      "chip": "ym2612"
    },
    {
      "channel": 5,
      "note": 33,
      "start": 13.7788,
      "duration": 0.0789,
      "velocity": 102,
      "chip": "ym2612"
    },
    {
      "channel": 3,
      "note": 48,
      "start": 13.961,
      "duration": 0.1968,
      "velocity": 89,
      "chip": "ym2612"
    },
    {
      "channel": 2,
      "note": 49,
      "start": 13.9648,
      "duration": 0.143,
      "velocity": 95,
      "chip": "ym2612"
    },
    {
      "channel": 1,
      "note": 52,
      "start": 14.1967,
      "duration": 1.5443,
      "velocity": 110,
      "chip": "ym2612"
    },
    {
      "channel": 0,
      "note": 71,
      "start": 14.1995,
      "duration": 0.1915,
      "velocity": 118,
      "chip": "ym2612"
    },
    {
      "channel": 3,
      "note": 52,
      "start": 14.2024,
      "duration": 0.1887,
      "velocity": 89,
      "chip": "ym2612"
    },
    {
      "channel": 4,
      "note": 57,
      "start": 14.2068,
      "duration": 0.3678,
      "velocity": 97,
      "chip": "ym2612"
    },
    {
      "channel": 5,
      "note": 64,
      "start": 14.2102,
      "duration": 0.031,
      "velocity": 103,
      "chip": "ym2612"
    },
    {
      "channel": 2,
      "note": 49,
      "start": 14.2139,
      "duration": 0.1775,
      "velocity": 95,
      "chip": "ym2612"
    },
    {
      "channel": 3,
      "note": 52,
      "start": 14.4126,
      "duration": 0.1952,
      "velocity": 89,
      "chip": "ym2612"
    },
    {
      "channel": 5,
      "note": 71,
      "start": 14.4154,
      "duration": 0.0426,
      "velocity": 103,
      "chip": "ym2612"
    },
    {
      "channel": 0,
      "note": 33,
      "start": 14.4182,
      "duration": 0.1894,
      "velocity": 124,
      "chip": "ym2612"
    },
    {
      "channel": 2,
      "note": 39,
      "start": 14.4215,
      "duration": 0.0038,
      "velocity": 102,
      "chip": "ym2612"
    },
    {
      "channel": 2,
      "note": 33,
      "start": 14.4456,
      "duration": 0.0791,
      "velocity": 102,
      "chip": "ym2612"
    },
    {
      "channel": 3,
      "note": 52,
      "start": 14.6277,
      "duration": 0.1969,
      "velocity": 89,
      "chip": "ym2612"
    },
    {
      "channel": 4,
      "note": 55,
      "start": 14.6311,
      "duration": 0.3768,
      "velocity": 97,
      "chip": "ym2612"
    },
    {
      "channel": 5,
      "note": 76,
      "start": 14.6337,
      "duration": 0.0409,
      "velocity": 103,
      "chip": "ym2612"
    },
    {
      "channel": 2,
      "note": 39,
      "start": 14.6375,
      "duration": 0.004,
      "velocity": 102,
      "chip": "ym2612"
    },
    {
      "channel": 2,
      "note": 33,
      "start": 14.6458,
      "duration": 0.0954,
      "velocity": 102,
      "chip": "ym2612"
    },
    {
      "channel": 3,
      "note": 52,
      "start": 14.8444,
      "duration": 0.2135,
      "velocity": 89,
      "chip": "ym2612"
    },
    {
      "channel": 5,
      "note": 79,
      "start": 14.8471,
      "duration": 0.0609,
      "velocity": 103,
      "chip": "ym2612"
    },
    {
      "channel": 2,
      "note": 49,
      "start": 14.8512,
      "duration": 0.0403,
      "velocity": 106,
      "chip": "ym2612"
    },
    {
      "channel": 2,
      "note": 49,
      "start": 14.8964,
      "duration": 0.145,
      "velocity": 106,
      "chip": "ym2612"
    },
    {
      "channel": 3,
      "note": 52,
      "start": 15.0777,
      "duration": 0.1968,
      "velocity": 89,
      "chip": "ym2612"
    },
    {
      "channel": 4,
      "note": 54,
      "start": 15.0811,
      "duration": 0.3766,
      "velocity": 97,
      "chip": "ym2612"
    },
    {
      "channel": 5,
      "note": 83,
      "start": 15.0837,
      "duration": 0.0409,
      "velocity": 103,
      "chip": "ym2612"
    },
    {
      "channel": 0,
      "note": 53,
      "start": 15.0865,
      "duration": 0.1878,
      "velocity": 127,
      "chip": "ym2612"
    },
    {
      "channel": 2,
      "note": 39,
      "start": 15.0914,
      "duration": 0.0033,
      "velocity": 102,
      "chip": "ym2612"
    },
    {
      "channel": 2,
      "note": 33,
      "start": 15.0991,
      "duration": 0.0756,
      "velocity": 102,
      "chip": "ym2612"
    },
    {
      "channel": 3,
      "note": 52,
      "start": 15.2943,
      "duration": 0.1968,
      "velocity": 89,
      "chip": "ym2612"
    },
    {
      "channel": 5,
      "note": 79,
      "start": 15.297,
      "duration": 0.0442,
      "velocity": 103,
      "chip": "ym2612"
    },
    {
      "channel": 2,
      "note": 49,
      "start": 15.301,
      "duration": 0.0236,
      "velocity": 106,
      "chip": "ym2612"
    },
    {
      "channel": 2,
      "note": 49,
      "start": 15.3295,
      "duration": 0.145,
      "velocity": 106,
      "chip": "ym2612"
    },
    {
      "channel": 3,
      "note": 52,
      "start": 15.5109,
      "duration": 0.2135,
      "velocity": 89,
      "chip": "ym2612"
    },
    {
      "channel": 4,
      "note": 52,
      "start": 15.5146,
      "duration": 0.3932,
      "velocity": 97,
      "chip": "ym2612"
    },
    {
      "channel": 5,
      "note": 76,
      "start": 15.5173,
      "duration": 0.0572,
      "velocity": 103,
      "chip": "ym2612"
    },
    {
      "channel": 0,
      "note": 39,
      "start": 15.5206,
      "duration": 0.0036,
      "velocity": 102,
      "chip": "ym2612"
    },
    {
      "channel": 0,
      "note": 33,
      "start": 15.5286,
      "duration": 0.0957,
      "velocity": 102,
      "chip": "ym2612"
    },
    {
      "channel": 3,
      "note": 52,
      "start": 15.7444,
      "duration": 0.1966,
      "velocity": 89,
      "chip": "ym2612"
    },
    {
      "channel": 5,
      "note": 71,
      "start": 15.747,
      "duration": 0.0441,
      "velocity": 103,
      "chip": "ym2612"
    },
    {
      "channel": 2,
      "note": 49,
      "start": 15.751,
      "duration": 0.0087,
      "velocity": 106,
      "chip": "ym2612"
    },
    {
      "channel": 2,
      "note": 49,
      "start": 15.7625,
      "duration": 0.0455,
      "velocity": 95,
      "chip": "ym2612"
    },
    {
      "channel": 2,
      "note": 49,
      "start": 15.8291,
      "duration": 0.0288,
      "velocity": 95,
      "chip": "ym2612"
    },
    {
      "channel": 2,
      "note": 49,
      "start": 15.8961,
      "duration": 0.0452,
      "velocity": 95,
      "chip": "ym2612"
    },
    {
      "channel": 1,
      "note": 48,
      "start": 15.9619,
      "duration": 1.5959,
      "velocity": 110,
      "chip": "ym2612"
    },
    {
      "channel": 0,
      "note": 70,
      "start": 15.965,
      "duration": 0.1927,
      "velocity": 118,
      "chip": "ym2612"
    },
    {
      "channel": 3,
      "note": 48,
      "start": 15.9675,
      "duration": 0.1904,
      "velocity": 89,
      "chip": "ym2612"
    },
    {
      "channel": 4,
      "note": 51,
      "start": 15.971,
      "duration": 0.3704,
      "velocity": 97,
      "chip": "ym2612"
    },
    {
      "channel": 5,
      "note": 60,
      "start": 15.9742,
      "duration": 0.0338,
      "velocity": 103,
      "chip": "ym2612"
    },
    {
      "channel": 2,
      "note": 49,
      "start": 15.9779,
      "duration": 0.1634,
      "velocity": 95,
      "chip": "ym2612"
    },
    {
      "channel": 3,
      "note": 48,
      "start": 16.1804,
      "duration": 0.0333,
      "velocity": 89,
      "chip": "ym2612"
    },
    {
      "channel": 5,
      "note": 67,
      "start": 16.1832,
      "duration": 0.0581,
      "velocity": 103,
      "chip": "ym2612"
    },
    {
      "channel": 2,
      "note": 33,
      "start": 16.1865,
      "duration": 0.1882,
      "velocity": 124,
      "chip": "ym2612"
    },
    {
      "channel": 0,
      "note": 39,
      "start": 16.1903,
      "duration": 0.0029,
      "velocity": 102,
      "chip": "ym2612"
    },
    {
      "channel": 0,
      "note": 67,
      "start": 16.2113,
      "duration": 0.1299,
      "velocity": 103,
      "chip": "ym2612"
    },
    {
      "channel": 3,
      "note": 33,
      "start": 16.2157,
      "duration": 0.0755,
      "velocity": 102,
      "chip": "ym2612"
    },
    {
      "channel": 5,
      "note": 48,
      "start": 16.4113,
      "duration": 0.1966,
      "velocity": 89,
      "chip": "ym2612"
    },
    {
      "channel": 4,
      "note": 53,
      "start": 16.4147,
      "duration": 0.3766,
      "velocity": 97,
      "chip": "ym2612"
    },
    {
      "channel": 3,
      "note": 72,
      "start": 16.4176,
      "duration": 0.0237,
      "velocity": 103,
      "chip": "ym2612"
    },
    {
      "channel": 0,
      "note": 39,
      "start": 16.421,
      "duration": 0.0038,
      "velocity": 102,
      "chip": "ym2612"
    },
    {
      "channel": 0,
      "note": 33,
      "start": 16.4292,
      "duration": 0.0785,
      "velocity": 102,
      "chip": "ym2612"
    },
    {
      "channel": 2,
      "note": 72,
      "start": 16.4455,
      "duration": 0.1291,
      "velocity": 103,
      "chip": "ym2612"
    },
    {
      "channel": 5,
      "note": 48,
      "start": 16.6278,
      "duration": 0.1969,
      "velocity": 89,
      "chip": "ym2612"
    },
    {
      "channel": 3,
      "note": 75,
      "start": 16.6315,
      "duration": 0.0265,
      "velocity": 103,
      "chip": "ym2612"
    },
    {
      "channel": 2,
      "note": 49,
      "start": 16.6356,
      "duration": 0.0226,
      "velocity": 106,
      "chip": "ym2612"
    },
    {
      "channel": 0,
      "note": 75,
      "start": 16.6619,
      "duration": 0.1293,
      "velocity": 103,
      "chip": "ym2612"
    },
    {
      "channel": 2,
      "note": 49,
      "start": 16.6664,
      "duration": 0.1251,
      "velocity": 106,
      "chip": "ym2612"
    },
    {
      "channel": 5,
      "note": 48,
      "start": 16.8445,
      "duration": 0.1968,
      "velocity": 89,
      "chip": "ym2612"
    },
    {
      "channel": 4,
      "note": 55,
      "start": 16.8483,
      "duration": 0.3761,
      "velocity": 97,
      "chip": "ym2612"
    },
    {
      "channel": 3,
      "note": 79,
      "start": 16.8515,
      "duration": 0.023,
      "velocity": 103,
      "chip": "ym2612"
    },
    {
      "channel": 0,
      "note": 53,
      "start": 16.8545,
      "duration": 0.1864,
      "velocity": 127,
      "chip": "ym2612"
    },
    {
      "channel": 2,
      "note": 49,
      "start": 16.8589,
      "duration": 0.0158,
      "velocity": 106,
      "chip": "ym2612"
    },
    {
      "channel": 3,
      "note": 79,
      "start": 16.8783,
      "duration": 0.1295,
      "velocity": 103,
      "chip": "ym2612"
    },
    {
      "channel": 2,
      "note": 49,
      "start": 16.8829,
      "duration": 0.1251,
      "velocity": 106,
      "chip": "ym2612"
    },
    {
      "channel": 5,
      "note": 48,
      "start": 17.0611,
      "duration": 0.2133,
      "velocity": 89,
      "chip": "ym2612"
    },
    {
      "channel": 3,
      "note": 75,
      "start": 17.0646,
      "duration": 0.0431,
      "velocity": 103,
      "chip": "ym2612"
    },
    {
      "channel": 2,
      "note": 39,
      "start": 17.0684,
      "duration": 0.0229,
      "velocity": 102,
      "chip": "ym2612"
    },
    {
      "channel": 0,
      "note": 75,
      "start": 17.1119,
      "duration": 0.1123,
      "velocity": 103,
      "chip": "ym2612"
    },
    {
      "channel": 2,
      "note": 33,
      "start": 17.1159,
      "duration": 0.0586,
      "velocity": 102,
      "chip": "ym2612"
    },
    {
      "channel": 5,
      "note": 48,
      "start": 17.2942,
      "duration": 0.1969,
      "velocity": 89,
      "chip": "ym2612"
    },
    {
      "channel": 4,
      "note": 57,
      "start": 17.2976,
      "duration": 0.3768,
      "velocity": 97,
      "chip": "ym2612"
    },
    {
      "channel": 3,
      "note": 72,
      "start": 17.3014,
      "duration": 0.0229,
      "velocity": 103,
      "chip": "ym2612"
    },
    {
      "channel": 2,
      "note": 39,
      "start": 17.3059,
      "duration": 0.003,
      "velocity": 102,
      "chip": "ym2612"
    },
    {
      "channel": 0,
      "note": 72,
      "start": 17.3279,
      "duration": 0.1296,
      "velocity": 103,
      "chip": "ym2612"
    },
    {
      "channel": 2,
      "note": 33,
      "start": 17.332,
      "duration": 0.0591,
      "velocity": 102,
      "chip": "ym2612"
    },
    {
      "channel": 5,
      "note": 48,
      "start": 17.511,
      "duration": 0.1969,
      "velocity": 89,
      "chip": "ym2612"
    },
    {
      "channel": 3,
      "note": 53,
      "start": 17.5142,
      "duration": 0.1935,
      "velocity": 127,
      "chip": "ym2612"
    },
    {
      "channel": 2,
      "note": 49,
      "start": 17.5188,
      "duration": 0.0225,
      "velocity": 106,
      "chip": "ym2612"
    },
    {
      "channel": 2,
      "note": 49,
      "start": 17.5468,
      "duration": 0.1277,
      "velocity": 106,
      "chip": "ym2612"
    },
    {
      "channel": 0,
      "note": 64,
      "start": 17.7297,
      "duration": 1.6448,
      "velocity": 110,
      "chip": "ym2612"
    },
    {
      "channel": 1,
      "note": 71,
      "start": 17.7369,
      "duration": 1.6709,
      "velocity": 110,
      "chip": "ym2612"
    },
    {
      "channel": 5,
      "note": 52,
      "start": 17.7407,
      "duration": 0.2005,
      "velocity": 89,
      "chip": "ym2612"
    },
    {
      "channel": 4,
      "note": 59,
      "start": 17.744,
      "duration": 0.3805,
      "velocity": 97,
      "chip": "ym2612"
    },
    {
      "channel": 3,
      "note": 33,
      "start": 17.7469,
      "duration": 0.1941,
      "velocity": 124,
      "chip": "ym2612"
    },
    {
      "channel": 5,
      "note": 52,
      "start": 17.961,
      "duration": 0.1968,
      "velocity": 89,
      "chip": "ym2612"
    },
    {
      "channel": 2,
      "note": 75,
      "start": 18.1785,
      "duration": 0.4129,
      "velocity": 118,
      "chip": "ym2612"
    },
    {
      "channel": 5,
      "note": 52,
      "start": 18.1812,
      "duration": 0.1932,
      "velocity": 89,
      "chip": "ym2612"
    },
    {
      "channel": 4,
      "note": 76,
      "start": 18.1841,
      "duration": 0.4071,
      "velocity": 97,
      "chip": "ym2612"
    },
    {
      "channel": 5,
      "note": 52,
      "start": 18.3964,
      "duration": 0.1949,
      "velocity": 89,
      "chip": "ym2612"
    },
    {
      "channel": 2,
      "note": 74,
      "start": 18.6277,
      "duration": 0.4137,
      "velocity": 118,
      "chip": "ym2612"
    },
    {
      "channel": 5,
      "note": 52,
      "start": 18.6304,
      "duration": 0.1941,
      "velocity": 89,
      "chip": "ym2612"
    },
    {
      "channel": 4,
      "note": 75,
      "start": 18.633,
      "duration": 0.4081,
      "velocity": 97,
      "chip": "ym2612"
    },
    {
      "channel": 3,
      "note": 53,
      "start": 18.6363,
      "duration": 0.188,
      "velocity": 127,
      "chip": "ym2612"
    },
    {
      "channel": 5,
      "note": 52,
      "start": 18.8461,
      "duration": 0.1952,
      "velocity": 89,
      "chip": "ym2612"
    },
    {
      "channel": 2,
      "note": 71,
      "start": 19.061,
      "duration": 0.2195,
      "velocity": 118,
      "chip": "ym2612"
    },
    {
      "channel": 5,
      "note": 52,
      "start": 19.0638,
      "duration": 0.1941,
      "velocity": 89,
      "chip": "ym2612"
    },
    {
      "channel": 4,
      "note": 74,
      "start": 19.0664,
      "duration": 0.4248,
      "velocity": 97,
      "chip": "ym2612"
    },
    {
      "channel": 5,
      "note": 52,
      "start": 19.2793,
      "duration": 0.212,
      "velocity": 89,
      "chip": "ym2612"
    },
    {
      "channel": 2,
      "note": 49,
      "start": 19.2832,
      "duration": 0.1248,
      "velocity": 95,
      "chip": "ym2612"
    },
    {
      "channel": 0,
      "note": 65,
      "start": 19.5108,
      "duration": 0.7301,
      "velocity": 110,
      "chip": "ym2612"
    },
    {
      "channel": 1,
      "note": 72,
      "start": 19.5146,
      "duration": 0.7099,
      "velocity": 110,
      "chip": "ym2612"
    },
    {
      "channel": 3,
      "note": 72,
      "start": 19.5174,
      "duration": 0.4072,
      "velocity": 118,
      "chip": "ym2612"
    },
    {
      "channel": 5,
      "note": 53,
      "start": 19.52,
      "duration": 0.1879,
      "velocity": 89,
      "chip": "ym2612"
    },
    {
      "channel": 4,
      "note": 73,
      "start": 19.523,
      "duration": 0.4017,
      "velocity": 97,
      "chip": "ym2612"
    },
    {
      "channel": 2,
      "note": 49,
      "start": 19.5272,
      "duration": 0.1808,
      "velocity": 95,
      "chip": "ym2612"
    },
    {
      "channel": 5,
      "note": 53,
      "start": 19.7295,
      "duration": 0.1954,
      "velocity": 89,
      "chip": "ym2612"
    },
    {
      "channel": 2,
      "note": 33,
      "start": 19.7326,
      "duration": 0.1924,
      "velocity": 124,
      "chip": "ym2612"
    },
    {
      "channel": 3,
      "note": 71,
      "start": 19.9442,
      "duration": 0.4303,
      "velocity": 118,
      "chip": "ym2612"
    },
    {
      "channel": 5,
      "note": 53,
      "start": 19.9469,
      "duration": 0.2111,
      "velocity": 89,
      "chip": "ym2612"
    },
    {
      "channel": 4,
      "note": 72,
      "start": 19.9496,
      "duration": 0.4251,
      "velocity": 97,
      "chip": "ym2612"
    },
    {
      "channel": 5,
      "note": 53,
      "start": 20.1795,
      "duration": 0.1952,
      "velocity": 89,
      "chip": "ym2612"
    },
    {
      "channel": 0,
      "note": 63,
      "start": 20.3942,
      "duration": 0.6636,
      "velocity": 110,
      "chip": "ym2612"
    },
    {
      "channel": 1,
      "note": 70,
      "start": 20.3977,
      "duration": 0.6936,
      "velocity": 110,
      "chip": "ym2612"
    },
    {
      "channel": 3,
      "note": 67,
      "start": 20.4003,
      "duration": 0.4074,
      "velocity": 118,
      "chip": "ym2612"
    },
    {
      "channel": 5,
      "note": 51,
      "start": 20.4031,
      "duration": 0.1882,
      "velocity": 89,
      "chip": "ym2612"
    },
    {
      "channel": 4,
      "note": 71,
      "start": 20.4057,
      "duration": 0.4022,
      "velocity": 97,
      "chip": "ym2612"
    },
    {
      "channel": 2,
      "note": 53,
      "start": 20.4095,
      "duration": 0.1819,
      "velocity": 127,
      "chip": "ym2612"
    },
    {
      "channel": 5,
      "note": 51,
      "start": 20.6127,
      "duration": 0.1953,
      "velocity": 89,
      "chip": "ym2612"
    },
    {
      "channel": 3,
      "note": 69,
      "start": 20.8443,
      "duration": 0.4135,
      "velocity": 118,
      "chip": "ym2612"
    },
    {
      "channel": 5,
      "note": 51,
      "start": 20.847,
      "duration": 0.1943,
      "velocity": 89,
      "chip": "ym2612"
    },
    {
      "channel": 4,
      "note": 70,
      "start": 20.8496,
      "duration": 0.4083,
      "velocity": 97,
      "chip": "ym2612"
    },
    {
      "channel": 5,
      "note": 51,
      "start": 21.0628,
      "duration": 0.1953,
      "velocity": 89,
      "chip": "ym2612"
    },
    {
      "channel": 2,
      "note": 49,
      "start": 21.0793,
      "duration": 0.0454,
      "velocity": 95,
      "chip": "ym2612"
    },
    {
      "channel": 2,
      "note": 49,
      "start": 21.1463,
      "duration": 0.0451,
      "velocity": 95,
      "chip": "ym2612"
    },
    {
      "channel": 2,
      "note": 49,
      "start": 21.2123,
      "duration": 0.0459,
      "velocity": 95,
      "chip": "ym2612"
    },
    {
      "channel": 1,
      "note": 52,
      "start": 21.2809,
      "duration": 1.5434,
      "velocity": 110,
      "chip": "ym2612"
    },
    {
      "channel": 3,
      "note": 71,
      "start": 21.2841,
      "duration": 1.7404,
      "velocity": 118,
      "chip": "ym2612"
    },
    {
      "channel": 5,
      "note": 52,
      "start": 21.2872,
      "duration": 0.1873,
      "velocity": 89,
      "chip": "ym2612"
    },
    {
      "channel": 4,
      "note": 69,
      "start": 21.2908,
      "duration": 0.3505,
      "velocity": 97,
      "chip": "ym2612"
    },
    {
      "channel": 2,
      "note": 49,
      "start": 21.2946,
      "duration": 0.1634,
      "velocity": 95,
      "chip": "ym2612"
    },
    {
      "channel": 0,
      "note": 57,
      "start": 21.3282,
      "duration": 0.3795,
      "velocity": 97,
      "chip": "ym2612"
    },
    {
      "channel": 5,
      "note": 52,
      "start": 21.4965,
      "duration": 0.2114,
      "velocity": 89,
      "chip": "ym2612"
    },
    {
      "channel": 2,
      "note": 33,
      "start": 21.5001,
      "duration": 0.208,
      "velocity": 124,
      "chip": "ym2612"
    },
    {
      "channel": 5,
      "note": 52,
      "start": 21.7278,
      "duration": 0.1968,
      "velocity": 89,
      "chip": "ym2612"
    },
    {
      "channel": 0,
      "note": 67,
      "start": 21.7308,
      "duration": 0.3602,
      "velocity": 97,
      "chip": "ym2612"
    },
    {
      "channel": 4,
      "note": 39,
      "start": 21.7347,
      "duration": 0.0066,
      "velocity": 102,
      "chip": "ym2612"
    },
    {
      "channel": 4,
      "note": 33,
      "start": 21.7621,
      "duration": 0.0624,
      "velocity": 102,
      "chip": "ym2612"
    },
    {
      "channel": 2,
      "note": 55,
      "start": 21.7783,
      "duration": 0.363,
      "velocity": 97,
      "chip": "ym2612"
    },
    {
      "channel": 5,
      "note": 52,
      "start": 21.9444,
      "duration": 0.1968,
      "velocity": 89,
      "chip": "ym2612"
    },
    {
      "channel": 4,
      "note": 39,
      "start": 21.9479,
      "duration": 0.01,
      "velocity": 102,
      "chip": "ym2612"
    },
    {
      "channel": 4,
      "note": 33,
      "start": 21.9624,
      "duration": 0.0955,
      "velocity": 102,
      "chip": "ym2612"
    },
    {
      "channel": 5,
      "note": 52,
      "start": 22.161,
      "duration": 0.2135,
      "velocity": 89,
      "chip": "ym2612"
    },
    {
      "channel": 0,
      "note": 66,
      "start": 22.1636,
      "duration": 0.3607,
      "velocity": 97,
      "chip": "ym2612"
    },
    {
      "channel": 4,
      "note": 53,
      "start": 22.1668,
      "duration": 0.2076,
      "velocity": 127,
      "chip": "ym2612"
    },
    {
      "channel": 2,
      "note": 54,
      "start": 22.2281,
      "duration": 0.1678,
      "velocity": 97,
      "chip": "ym2612"
    },
    {
      "channel": 5,
      "note": 52,
      "start": 22.3943,
      "duration": 0.1968,
      "velocity": 89,
      "chip": "ym2612"
    },
    {
      "channel": 2,
      "note": 49,
      "start": 22.3985,
      "duration": 0.0261,
      "velocity": 106,
      "chip": "ym2612"
    },
    {
      "channel": 2,
      "note": 49,
      "start": 22.4296,
      "duration": 0.145,
      "velocity": 106,
      "chip": "ym2612"
    },
    {
      "channel": 5,
      "note": 52,
      "start": 22.611,
      "duration": 0.1968,
      "velocity": 89,
      "chip": "ym2612"
    },
    {
      "channel": 0,
      "note": 64,
      "start": 22.6136,
      "duration": 0.3608,
      "velocity": 97,
      "chip": "ym2612"
    },
    {
      "channel": 4,
      "note": 52,
      "start": 22.6615,
      "duration": 0.3631,
      "velocity": 97,
      "chip": "ym2612"
    },
    {
      "channel": 5,
      "note": 52,
      "start": 22.8277,
      "duration": 0.197,
      "velocity": 89,
      "chip": "ym2612"
    },
    {
      "channel": 2,
      "note": 49,
      "start": 22.8316,
      "duration": 0.1597,
      "velocity": 95,
      "chip": "ym2612"
    },
    {
      "channel": 1,
      "note": 48,
      "start": 23.0618,
      "duration": 1.5961,
      "velocity": 110,
      "chip": "ym2612"
    },
    {
      "channel": 3,
      "note": 70,
      "start": 23.0644,
      "duration": 1.7434,
      "velocity": 118,
      "chip": "ym2612"
    },
    {
      "channel": 5,
      "note": 48,
      "start": 23.0671,
      "duration": 0.1908,
      "velocity": 89,
      "chip": "ym2612"
    },
    {
      "channel": 0,
      "note": 63,
      "start": 23.0697,
      "duration": 0.3548,
      "velocity": 97,
      "chip": "ym2612"
    },
    {
      "channel": 2,
      "note": 49,
      "start": 23.0745,
      "duration": 0.1835,
      "velocity": 95,
      "chip": "ym2612"
    },
    {
      "channel": 4,
      "note": 51,
      "start": 23.1115,
      "duration": 0.363,
      "velocity": 97,
      "chip": "ym2612"
    },
    {
      "channel": 5,
      "note": 48,
      "start": 23.2797,
      "duration": 0.1949,
      "velocity": 89,
      "chip": "ym2612"
    },
    {
      "channel": 2,
      "note": 33,
      "start": 23.2829,
      "duration": 0.1919,
      "velocity": 124,
      "chip": "ym2612"
    },
    {
      "channel": 5,
      "note": 48,
      "start": 23.4944,
      "duration": 0.1969,
      "velocity": 89,
      "chip": "ym2612"
    },
    {
      "channel": 0,
      "note": 65,
      "start": 23.4974,
      "duration": 0.3602,
      "velocity": 97,
      "chip": "ym2612"
    },
    {
      "channel": 4,
      "note": 39,
      "start": 23.501,
      "duration": 0.007,
      "velocity": 102,
      "chip": "ym2612"
    },
    {
      "channel": 4,
      "note": 33,
      "start": 23.5292,
      "duration": 0.0786,
      "velocity": 102,
      "chip": "ym2612"
    },
    {
      "channel": 2,
      "note": 53,
      "start": 23.5449,
      "duration": 0.3798,
      "velocity": 97,
      "chip": "ym2612"
    },
    {
      "channel": 5,
      "note": 48,
      "start": 23.7111,
      "duration": 0.2135,
      "velocity": 89,
      "chip": "ym2612"
    },
    {
      "channel": 4,
      "note": 39,
      "start": 23.7146,
      "duration": 0.0267,
      "velocity": 102,
      "chip": "ym2612"
    },
    {
      "channel": 4,
      "note": 33,
      "start": 23.7456,
      "duration": 0.0789,
      "velocity": 102,
      "chip": "ym2612"
    },
    {
      "channel": 5,
      "note": 48,
      "start": 23.9444,
      "duration": 0.1969,
      "velocity": 89,
      "chip": "ym2612"
    },
    {
      "channel": 0,
      "note": 67,
      "start": 23.947,
      "duration": 0.3606,
      "velocity": 97,
      "chip": "ym2612"
    },
    {
      "channel": 4,
      "note": 53,
      "start": 23.9501,
      "duration": 0.191,
      "velocity": 127,
      "chip": "ym2612"
    },
    {
      "channel": 2,
      "note": 55,
      "start": 23.9947,
      "duration": 0.1678,
      "velocity": 97,
      "chip": "ym2612"
    },
    {
      "channel": 5,
      "note": 48,
      "start": 24.161,
      "duration": 0.1969,
      "velocity": 89,
      "chip": "ym2612"
    },
    {
      "channel": 2,
      "note": 49,
      "start": 24.1653,
      "duration": 0.026,
      "velocity": 106,
      "chip": "ym2612"
    },
    {
      "channel": 2,
      "note": 49,
      "start": 24.1961,
      "duration": 0.1284,
      "velocity": 106,
      "chip": "ym2612"
    },
    {
      "channel": 5,
      "note": 48,
      "start": 24.3778,
      "duration": 0.2134,
      "velocity": 89,
      "chip": "ym2612"
    },
    {
      "channel": 0,
      "note": 68,
      "start": 24.3804,
      "duration": 0.3606,
      "velocity": 97,
      "chip": "ym2612"
    },
    {
      "channel": 4,
      "note": 39,
      "start": 24.3839,
      "duration": 0.0072,
      "velocity": 102,
      "chip": "ym2612"
    },
    {
      "channel": 4,
      "note": 33,
      "start": 24.4287,
      "duration": 0.0624,
      "velocity": 102,
      "chip": "ym2612"
    },
    {
      "channel": 2,
      "note": 56,
      "start": 24.4449,
      "duration": 0.1673,
      "velocity": 97,
      "chip": "ym2612"
    },
    {
      "channel": 5,
      "note": 48,
      "start": 24.611,
      "duration": 0.197,
      "velocity": 89,
      "chip": "ym2612"
    },
    {
      "channel": 2,
      "note": 49,
      "start": 24.6149,
      "duration": 0.1097,
      "velocity": 95,
      "chip": "ym2612"
    },
    {
      "channel": 1,
      "note": 52,
      "start": 24.8297,
      "duration": 1.5446,
      "velocity": 110,
      "chip": "ym2612"
    },
    {
      "channel": 3,
      "note": 71,
      "start": 24.8323,
      "duration": 1.7422,
      "velocity": 118,
      "chip": "ym2612"
    },
    {
      "channel": 5,
      "note": 52,
      "start": 24.8353,
      "duration": 0.1892,
      "velocity": 89,
      "chip": "ym2612"
    },
    {
      "channel": 0,
      "note": 69,
      "start": 24.8379,
      "duration": 0.2125,
      "velocity": 97,
      "chip": "ym2612"
    },
    {
      "channel": 2,
      "note": 49,
      "start": 24.8425,
      "duration": 0.1821,
      "velocity": 95,
      "chip": "ym2612"
    },
    {
      "channel": 4,
      "note": 57,
      "start": 24.8782,
      "duration": 0.363,
      "velocity": 97,
      "chip": "ym2612"
    },
    {
      "channel": 5,
      "note": 52,
      "start": 25.0461,
      "duration": 0.1953,
      "velocity": 89,
      "chip": "ym2612"
    },
    {
      "channel": 2,
      "note": 33,
      "start": 25.0493,
      "duration": 0.1923,
      "velocity": 124,
      "chip": "ym2612"
    },
    {
      "channel": 0,
      "note": 39,
      "start": 25.0524,
      "duration": 0.0054,
      "velocity": 102,
      "chip": "ym2612"
    },
    {
      "channel": 0,
      "note": 33,
      "start": 25.0788,
      "duration": 0.0789,
      "velocity": 102,
      "chip": "ym2612"
    },
    {
      "channel": 5,
      "note": 52,
      "start": 25.2778,
      "duration": 0.1968,
      "velocity": 89,
      "chip": "ym2612"
    },
    {
      "channel": 4,
      "note": 67,
      "start": 25.281,
      "duration": 0.3604,
      "velocity": 97,
      "chip": "ym2612"
    },
    {
      "channel": 0,
      "note": 39,
      "start": 25.2842,
      "duration": 0.0069,
      "velocity": 102,
      "chip": "ym2612"
    },
    {
      "channel": 0,
      "note": 33,
      "start": 25.2956,
      "duration": 0.079,
      "velocity": 102,
      "chip": "ym2612"
    },
    {
      "channel": 2,
      "note": 55,
      "start": 25.3283,
      "duration": 0.1677,
      "velocity": 97,
      "chip": "ym2612"
    },
    {
      "channel": 5,
      "note": 52,
      "start": 25.4944,
      "duration": 0.1969,
      "velocity": 89,
      "chip": "ym2612"
    },
    {
      "channel": 2,
      "note": 49,
      "start": 25.4987,
      "duration": 0.0261,
      "velocity": 106,
      "chip": "ym2612"
    },
    {
      "channel": 2,
      "note": 49,
      "start": 25.5297,
      "duration": 0.145,
      "velocity": 106,
      "chip": "ym2612"
    },
    {
      "channel": 5,
      "note": 52,
      "start": 25.711,
      "duration": 0.197,
      "velocity": 89,
      "chip": "ym2612"
    },
    {
      "channel": 4,
      "note": 66,
      "start": 25.7139,
      "duration": 0.0456,
      "velocity": 97,
      "chip": "ym2612"
    },
    {
      "channel": 0,
      "note": 53,
      "start": 25.717,
      "duration": 0.1908,
      "velocity": 127,
      "chip": "ym2612"
    },
    {
      "channel": 2,
      "note": 39,
      "start": 25.721,
      "duration": 0.004,
      "velocity": 102,
      "chip": "ym2612"
    },
    {
      "channel": 2,
      "note": 33,
      "start": 25.7294,
      "duration": 0.0952,
      "velocity": 102,
      "chip": "ym2612"
    },
    {
      "channel": 4,
      "note": 54,
      "start": 25.7616,
      "duration": 0.3795,
      "velocity": 97,
      "chip": "ym2612"
    },
    {
      "channel": 5,
      "note": 52,
      "start": 25.9277,
      "duration": 0.2136,
      "velocity": 89,
      "chip": "ym2612"
    },
    {
      "channel": 2,
      "note": 49,
      "start": 25.9319,
      "duration": 0.0426,
      "velocity": 106,
      "chip": "ym2612"
    },
    {
      "channel": 2,
      "note": 49,
      "start": 25.9795,
      "duration": 0.1284,
      "velocity": 106,
      "chip": "ym2612"
    },
    {
      "channel": 5,
      "note": 52,
      "start": 26.161,
      "duration": 0.1968,
      "velocity": 89,
      "chip": "ym2612"
    },
    {
      "channel": 4,
      "note": 64,
      "start": 26.1639,
      "duration": 0.3606,
      "velocity": 97,
      "chip": "ym2612"
    },
    {
      "channel": 0,
      "note": 39,
      "start": 26.1674,
      "duration": 0.007,
      "velocity": 102,
      "chip": "ym2612"
    },
    {
      "channel": 0,
      "note": 33,
      "start": 26.1791,
      "duration": 0.0785,
      "velocity": 102,
      "chip": "ym2612"
    },
    {
      "channel": 2,
      "note": 52,
      "start": 26.2115,
      "duration": 0.1677,
      "velocity": 97,
      "chip": "ym2612"
    },
    {
      "channel": 5,
      "note": 52,
      "start": 26.3777,
      "duration": 0.1969,
      "velocity": 89,
      "chip": "ym2612"
    },
    {
      "channel": 2,
      "note": 49,
      "start": 26.382,
      "duration": 0.0113,
      "velocity": 106,
      "chip": "ym2612"
    },
    {
      "channel": 2,
      "note": 49,
      "start": 26.3959,
      "duration": 0.0455,
      "velocity": 95,
      "chip": "ym2612"
    },
    {
      "channel": 2,
      "note": 49,
      "start": 26.479,
      "duration": 0.0289,
      "velocity": 95,
      "chip": "ym2612"
    },
    {
      "channel": 2,
      "note": 49,
      "start": 26.5295,
      "duration": 0.0453,
      "velocity": 95,
      "chip": "ym2612"
    },
    {
      "channel": 1,
      "note": 48,
      "start": 26.5951,
      "duration": 1.6127,
      "velocity": 110,
      "chip": "ym2612"
    },
    {
      "channel": 3,
      "note": 70,
      "start": 26.5987,
      "duration": 2.6425,
      "velocity": 118,
      "chip": "ym2612"
    },
    {
      "channel": 5,
      "note": 48,
      "start": 26.6014,
      "duration": 0.1898,
      "velocity": 89,
      "chip": "ym2612"
    },
    {
      "channel": 4,
      "note": 63,
      "start": 26.6042,
      "duration": 0.3537,
      "velocity": 97,
      "chip": "ym2612"
    },
    {
      "channel": 2,
      "note": 49,
      "start": 26.6089,
      "duration": 0.1658,
      "velocity": 95,
      "chip": "ym2612"
    },
    {
      "channel": 0,
      "note": 51,
      "start": 26.6616,
      "duration": 0.1728,
      "velocity": 97,
      "chip": "ym2612"
    },
    {
      "channel": 5,
      "note": 48,
      "start": 26.83,
      "duration": 0.1946,
      "velocity": 89,
      "chip": "ym2612"
    },
    {
      "channel": 2,
      "note": 33,
      "start": 26.8332,
      "duration": 0.1917,
      "velocity": 124,
      "chip": "ym2612"
    },
    {
      "channel": 0,
      "note": 39,
      "start": 26.8363,
      "duration": 0.005,
      "velocity": 102,
      "chip": "ym2612"
    },
    {
      "channel": 0,
      "note": 33,
      "start": 26.8621,
      "duration": 0.0623,
      "velocity": 102,
      "chip": "ym2612"
    },
    {
      "channel": 5,
      "note": 48,
      "start": 27.0445,
      "duration": 0.1969,
      "velocity": 89,
      "chip": "ym2612"
    },
    {
      "channel": 4,
      "note": 65,
      "start": 27.0477,
      "duration": 0.3602,
      "velocity": 97,
      "chip": "ym2612"
    },
    {
      "channel": 0,
      "note": 39,
      "start": 27.0514,
      "duration": 0.0066,
      "velocity": 102,
      "chip": "ym2612"
    },
    {
      "channel": 0,
      "note": 33,
      "start": 27.0623,
      "duration": 0.0954,
      "velocity": 102,
      "chip": "ym2612"
    },
    {
      "channel": 2,
      "note": 53,
      "start": 27.095,
      "duration": 0.1677,
      "velocity": 97,
      "chip": "ym2612"
    },
    {
      "channel": 5,
      "note": 48,
      "start": 27.2612,
      "duration": 0.1969,
      "velocity": 89,
      "chip": "ym2612"
    },
    {
      "channel": 2,
      "note": 49,
      "start": 27.2654,
      "duration": 0.026,
      "velocity": 106,
      "chip": "ym2612"
    },
    {
      "channel": 2,
      "note": 49,
      "start": 27.2963,
      "duration": 0.1284,
      "velocity": 106,
      "chip": "ym2612"
    },
    {
      "channel": 5,
      "note": 48,
      "start": 27.4778,
      "duration": 0.2135,
      "velocity": 89,
      "chip": "ym2612"
    },
    {
      "channel": 4,
      "note": 67,
      "start": 27.4806,
      "duration": 0.0623,
      "velocity": 97,
      "chip": "ym2612"
    },
    {
      "channel": 0,
      "note": 53,
      "start": 27.4837,
      "duration": 0.2072,
      "velocity": 127,
      "chip": "ym2612"
    },
    {
      "channel": 2,
      "note": 49,
      "start": 27.4886,
      "duration": 0.036,
      "velocity": 106,
      "chip": "ym2612"
    },
    {
      "channel": 2,
      "note": 49,
      "start": 27.5295,
      "duration": 0.1118,
      "velocity": 106,
      "chip": "ym2612"
    },
    {
      "channel": 4,
      "note": 55,
      "start": 27.5449,
      "duration": 0.3629,
      "velocity": 97,
      "chip": "ym2612"
    },
    {
      "channel": 5,
      "note": 48,
      "start": 27.7111,
      "duration": 0.1969,
      "velocity": 89,
      "chip": "ym2612"
    },
    {
      "channel": 2,
      "note": 39,
      "start": 27.7148,
      "duration": 0.0098,
      "velocity": 102,
      "chip": "ym2612"
    },
    {
      "channel": 2,
      "note": 33,
      "start": 27.7455,
      "duration": 0.0623,
      "velocity": 102,
      "chip": "ym2612"
    },
    {
      "channel": 5,
      "note": 48,
      "start": 27.9276,
      "duration": 0.1969,
      "velocity": 89,
      "chip": "ym2612"
    },
    {
      "channel": 4,
      "note": 69,
      "start": 27.9304,
      "duration": 0.3607,
      "velocity": 97,
      "chip": "ym2612"
    },
    {
      "channel": 2,
      "note": 39,
      "start": 27.9343,
      "duration": 0.0069,
      "velocity": 102,
      "chip": "ym2612"
    },
    {
      "channel": 2,
      "note": 33,
      "start": 27.9622,
      "duration": 0.0791,
      "velocity": 102,
      "chip": "ym2612"
    },
    {
      "channel": 0,
      "note": 57,
      "start": 27.9781,
      "duration": 0.3795,
      "velocity": 97,
      "chip": "ym2612"
    },
    {
      "channel": 5,
      "note": 48,
      "start": 28.1443,
      "duration": 0.2136,
      "velocity": 89,
      "chip": "ym2612"
    },
    {
      "channel": 2,
      "note": 49,
      "start": 28.1481,
      "duration": 0.1432,
      "velocity": 95,
      "chip": "ym2612"
    },
    {
      "channel": 1,
      "note": 67,
      "start": 28.3783,
      "duration": 3.5127,
      "velocity": 110,
      "chip": "ym2612"
    },
    {
      "channel": 4,
      "note": 74,
      "start": 28.3862,
      "duration": 3.4883,
      "velocity": 110,
      "chip": "ym2612"
    },
    {
      "channel": 5,
      "note": 55,
      "start": 28.3897,
      "duration": 0.1849,
      "velocity": 89,
      "chip": "ym2612"
    },
    {
      "channel": 0,
      "note": 70,
      "start": 28.3929,
      "duration": 0.8314,
      "velocity": 97,
      "chip": "ym2612"
    },
    {
      "channel": 2,
      "note": 49,
      "start": 28.3967,
      "duration": 0.1612,
      "velocity": 95,
      "chip": "ym2612"
    },
    {
      "channel": 5,
      "note": 55,
      "start": 28.5944,
      "duration": 0.1967,
      "velocity": 89,
      "chip": "ym2612"
    },
    {
      "channel": 2,
      "note": 33,
      "start": 28.5975,
      "duration": 0.1937,
      "velocity": 124,
      "chip": "ym2612"
    },
    {
      "channel": 5,
      "note": 55,
      "start": 28.811,
      "duration": 0.1968,
      "velocity": 89,
      "chip": "ym2612"
    },
    {
      "channel": 5,
      "note": 55,
      "start": 29.0443,
      "duration": 0.1971,
      "velocity": 89,
      "chip": "ym2612"
    },
    {
      "channel": 3,
      "note": 74,
      "start": 29.261,
      "duration": 0.8634,
      "velocity": 118,
      "chip": "ym2612"
    },
    {
      "channel": 5,
      "note": 55,
      "start": 29.2638,
      "duration": 0.194,
      "velocity": 89,
      "chip": "ym2612"
    },
    {
      "channel": 0,
      "note": 65,
      "start": 29.2664,
      "duration": 0.7413,
      "velocity": 97,
      "chip": "ym2612"
    },
    {
      "channel": 2,
      "note": 53,
      "start": 29.2695,
      "duration": 0.1884,
      "velocity": 127,
      "chip": "ym2612"
    },
    {
      "channel": 5,
      "note": 55,
      "start": 29.4796,
      "duration": 0.1949,
      "velocity": 89,
      "chip": "ym2612"
    },
    {
      "channel": 5,
      "note": 55,
      "start": 29.6944,
      "duration": 0.2135,
      "velocity": 89,
      "chip": "ym2612"
    },
    {
      "channel": 5,
      "note": 55,
      "start": 29.9277,
      "duration": 0.1969,
      "velocity": 89,
      "chip": "ym2612"
    },
    {
      "channel": 2,
      "note": 49,
      "start": 29.9315,
      "duration": 0.1265,
      "velocity": 95,
      "chip": "ym2612"
    },
    {
      "channel": 3,
      "note": 73,
      "start": 30.1442,
      "duration": 0.8635,
      "velocity": 118,
      "chip": "ym2612"
    },
    {
      "channel": 5,
      "note": 55,
      "start": 30.1469,
      "duration": 0.1944,
      "velocity": 89,
      "chip": "ym2612"
    },
    {
      "channel": 0,
      "note": 64,
      "start": 30.1499,
      "duration": 0.8078,
      "velocity": 97,
      "chip": "ym2612"
    },
    {
      "channel": 2,
      "note": 49,
      "start": 30.1541,
      "duration": 0.1873,
      "velocity": 95,
      "chip": "ym2612"
    },
    {
      "channel": 5,
      "note": 55,
      "start": 30.3626,
      "duration": 0.212,
      "velocity": 89,
      "chip": "ym2612"
    },
    {
      "channel": 2,
      "note": 33,
      "start": 30.3657,
      "duration": 0.209,
      "velocity": 124,
      "chip": "ym2612"
    },
    {
      "channel": 5,
      "note": 55,
      "start": 30.5943,
      "duration": 0.1968,
      "velocity": 89,
      "chip": "ym2612"
    },
    {
      "channel": 5,
      "note": 55,
      "start": 30.811,
      "duration": 0.197,
      "velocity": 89,
      "chip": "ym2612"
    },
    {
      "channel": 3,
      "note": 69,
      "start": 31.0274,
      "duration": 0.8638,
      "velocity": 118,
      "chip": "ym2612"
    },
    {
      "channel": 5,
      "note": 55,
      "start": 31.0301,
      "duration": 0.1944,
      "velocity": 89,
      "chip": "ym2612"
    },
    {
      "channel": 0,
      "note": 61,
      "start": 31.0327,
      "duration": 0.7418,
      "velocity": 97,
      "chip": "ym2612"
    },
    {
      "channel": 2,
      "note": 53,
      "start": 31.0358,
      "duration": 0.1888,
      "velocity": 127,
      "chip": "ym2612"
    },
    {
      "channel": 5,
      "note": 55,
      "start": 31.2625,
      "duration": 0.1954,
      "velocity": 89,
      "chip": "ym2612"
    },
    {
      "channel": 5,
      "note": 55,
      "start": 31.4777,
      "duration": 0.1968,
      "velocity": 89,
      "chip": "ym2612"
    },
    {
      "channel": 5,
      "note": 55,
      "start": 31.6942,
      "duration": 0.1971,
      "velocity": 89,
      "chip": "ym2612"
    },
    {
      "channel": 2,
      "note": 49,
      "start": 31.7124,
      "duration": 0.0624,
      "velocity": 95,
      "chip": "ym2612"
    },
    {
      "channel": 2,
      "note": 49,
      "start": 31.7957,
      "duration": 0.0289,
      "velocity": 95,
      "chip": "ym2612"
    },
    {
      "channel": 2,
      "note": 49,
      "start": 31.8457,
      "duration": 0.0458,
      "velocity": 95,
      "chip": "ym2612"
    },
    {
      "channel": 1,
      "note": 67,
      "start": 31.9106,
      "duration": 3.5304,
      "velocity": 110,
      "chip": "ym2612"
    },
    {
      "channel": 4,
      "note": 74,
      "start": 31.9142,
      "duration": 3.5102,
      "velocity": 110,
      "chip": "ym2612"
    },
    {
      "channel": 3,
      "note": 70,
      "start": 31.9174,
      "duration": 4.407,
      "velocity": 118,
      "chip": "ym2612"
    },
    {
      "channel": 5,
      "note": 55,
      "start": 31.9204,
      "duration": 0.2042,
      "velocity": 89,
      "chip": "ym2612"
    },
    {
      "channel": 0,
      "note": 62,
      "start": 31.9241,
      "duration": 0.7839,
      "velocity": 97,
      "chip": "ym2612"
    },
    {
      "channel": 2,
      "note": 49,
      "start": 31.9279,
      "duration": 0.1801,
      "velocity": 95,
      "chip": "ym2612"
    },
    {
      "channel": 5,
      "note": 55,
      "start": 32.147,
      "duration": 0.1943,
      "velocity": 89,
      "chip": "ym2612"
    },
    {
      "channel": 2,
      "note": 33,
      "start": 32.1501,
      "duration": 0.1912,
      "velocity": 124,
      "chip": "ym2612"
    },
    {
      "channel": 5,
      "note": 55,
      "start": 32.3611,
      "duration": 0.1969,
      "velocity": 89,
      "chip": "ym2612"
    },
    {
      "channel": 2,
      "note": 50,
      "start": 32.3647,
      "duration": 0.0008,
      "velocity": 102,
      "chip": "ym2612"
    },
    {
      "channel": 2,
      "note": 49,
      "start": 32.3683,
      "duration": 0.0232,
      "velocity": 106,
      "chip": "ym2612"
    },
    {
      "channel": 2,
      "note": 44,
      "start": 32.3961,
      "duration": 0.0008,
      "velocity": 102,
      "chip": "ym2612"
    },
    {
      "channel": 2,
      "note": 49,
      "start": 32.3996,
      "duration": 0.1418,
      "velocity": 106,
      "chip": "ym2612"
    },
    {
      "channel": 5,
      "note": 55,
      "start": 32.5779,
      "duration": 0.2135,
      "velocity": 89,
      "chip": "ym2612"
    },
    {
      "channel": 5,
      "note": 55,
      "start": 32.8111,
      "duration": 0.1969,
      "velocity": 89,
      "chip": "ym2612"
    },
    {
      "channel": 2,
      "note": 53,
      "start": 32.8147,
      "duration": 0.1934,
      "velocity": 127,
      "chip": "ym2612"
    },
    {
      "channel": 5,
      "note": 55,
      "start": 33.0277,
      "duration": 0.1968,
      "velocity": 89,
      "chip": "ym2612"
    },
    {
      "channel": 0,
      "note": 44,
      "start": 33.0313,
      "duration": 0.0264,
      "velocity": 102,
      "chip": "ym2612"
    },
    {
      "channel": 2,
      "note": 49,
      "start": 33.0348,
      "duration": 0.0233,
      "velocity": 106,
      "chip": "ym2612"
    },
    {
      "channel": 0,
      "note": 38,
      "start": 33.0622,
      "duration": 0.1455,
      "velocity": 102,
      "chip": "ym2612"
    },
    {
      "channel": 2,
      "note": 49,
      "start": 33.0656,
      "duration": 0.1424,
      "velocity": 106,
      "chip": "ym2612"
    },
    {
      "channel": 5,
      "note": 55,
      "start": 33.2444,
      "duration": 0.1968,
      "velocity": 89,
      "chip": "ym2612"
    },
    {
      "channel": 5,
      "note": 55,
      "start": 33.4776,
      "duration": 0.197,
      "velocity": 89,
      "chip": "ym2612"
    },
    {
      "channel": 2,
      "note": 49,
      "start": 33.4818,
      "duration": 0.1594,
      "velocity": 95,
      "chip": "ym2612"
    },
    {
      "channel": 5,
      "note": 55,
      "start": 33.6943,
      "duration": 0.1968,
      "velocity": 89,
      "chip": "ym2612"
    },
    {
      "channel": 2,
      "note": 49,
      "start": 33.6981,
      "duration": 0.1931,
      "velocity": 95,
      "chip": "ym2612"
    },
    {
      "channel": 5,
      "note": 55,
      "start": 33.911,
      "duration": 0.1967,
      "velocity": 89,
      "chip": "ym2612"
    },
    {
      "channel": 5,
      "note": 55,
      "start": 34.1276,
      "duration": 0.2136,
      "velocity": 89,
      "chip": "ym2612"
    },
    {
      "channel": 0,
      "note": 50,
      "start": 34.131,
      "duration": 0.0434,
      "velocity": 102,
      "chip": "ym2612"
    },
    {
      "channel": 2,
      "note": 49,
      "start": 34.1345,
      "duration": 0.0403,
      "velocity": 106,
      "chip": "ym2612"
    },
    {
      "channel": 0,
      "note": 44,
      "start": 34.1789,
      "duration": 0.1455,
      "velocity": 102,
      "chip": "ym2612"
    },
    {
      "channel": 2,
      "note": 49,
      "start": 34.1827,
      "duration": 0.142,
      "velocity": 106,
      "chip": "ym2612"
    },
    {
      "channel": 5,
      "note": 55,
      "start": 34.361,
      "duration": 0.1969,
      "velocity": 89,
      "chip": "ym2612"
    },
    {
      "channel": 0,
      "note": 44,
      "start": 34.3644,
      "duration": 0.0266,
      "velocity": 102,
      "chip": "ym2612"
    },
    {
      "channel": 2,
      "note": 49,
      "start": 34.3678,
      "duration": 0.0236,
      "velocity": 106,
      "chip": "ym2612"
    },
    {
      "channel": 0,
      "note": 38,
      "start": 34.3959,
      "duration": 0.1451,
      "velocity": 102,
      "chip": "ym2612"
    },
    {
      "channel": 2,
      "note": 49,
      "start": 34.3994,
      "duration": 0.1419,
      "velocity": 106,
      "chip": "ym2612"
    },
    {
      "channel": 5,
      "note": 55,
      "start": 34.5776,
      "duration": 0.197,
      "velocity": 89,
      "chip": "ym2612"
    },
    {
      "channel": 0,
      "note": 33,
      "start": 34.5808,
      "duration": 0.1935,
      "velocity": 124,
      "chip": "ym2612"
    },
    {
      "channel": 2,
      "note": 49,
      "start": 34.5841,
      "duration": 0.1907,
      "velocity": 95,
      "chip": "ym2612"
    },
    {
      "channel": 5,
      "note": 55,
      "start": 34.7943,
      "duration": 0.2137,
      "velocity": 89,
      "chip": "ym2612"
    },
    {
      "channel": 0,
      "note": 53,
      "start": 34.7984,
      "duration": 0.2092,
      "velocity": 127,
      "chip": "ym2612"
    },
    {
      "channel": 5,
      "note": 55,
      "start": 35.0277,
      "duration": 0.1968,
      "velocity": 89,
      "chip": "ym2612"
    },
    {
      "channel": 2,
      "note": 40,
      "start": 35.0314,
      "duration": 0.0266,
      "velocity": 102,
      "chip": "ym2612"
    },
    {
      "channel": 2,
      "note": 34,
      "start": 35.0624,
      "duration": 0.1454,
      "velocity": 102,
      "chip": "ym2612"
    },
    {
      "channel": 5,
      "note": 55,
      "start": 35.2444,
      "duration": 0.1969,
      "velocity": 89,
      "chip": "ym2612"
    },
    {
      "channel": 2,
      "note": 49,
      "start": 35.2481,
      "duration": 0.1265,
      "velocity": 95,
      "chip": "ym2612"
    },
    {
      "channel": 1,
      "note": 67,
      "start": 35.4605,
      "duration": 3.5305,
      "velocity": 110,
      "chip": "ym2612"
    },
    {
      "channel": 4,
      "note": 74,
      "start": 35.464,
      "duration": 3.5105,
      "velocity": 110,
      "chip": "ym2612"
    },
    {
      "channel": 5,
      "note": 55,
      "start": 35.4672,
      "duration": 0.1908,
      "velocity": 89,
      "chip": "ym2612"
    },
    {
      "channel": 2,
      "note": 49,
      "start": 35.4711,
      "duration": 0.187,
      "velocity": 95,
      "chip": "ym2612"
    },
    {
      "channel": 5,
      "note": 55,
      "start": 35.6944,
      "duration": 0.1968,
      "velocity": 89,
      "chip": "ym2612"
    },
    {
      "channel": 0,
      "note": 33,
      "start": 35.6977,
      "duration": 0.1933,
      "velocity": 124,
      "chip": "ym2612"
    },
    {
      "channel": 5,
      "note": 55,
      "start": 35.911,
      "duration": 0.1969,
      "velocity": 89,
      "chip": "ym2612"
    },
    {
      "channel": 5,
      "note": 55,
      "start": 36.1276,
      "duration": 0.197,
      "velocity": 89,
      "chip": "ym2612"
    },
    {
      "channel": 3,
      "note": 74,
      "start": 36.3447,
      "duration": 0.8796,
      "velocity": 118,
      "chip": "ym2612"
    },
    {
      "channel": 5,
      "note": 55,
      "start": 36.3475,
      "duration": 0.2103,
      "velocity": 89,
      "chip": "ym2612"
    },
    {
      "channel": 2,
      "note": 65,
      "start": 36.3504,
      "duration": 0.6765,
      "velocity": 97,
      "chip": "ym2612"
    },
    {
      "channel": 0,
      "note": 53,
      "start": 36.3533,
      "duration": 0.2042,
      "velocity": 127,
      "chip": "ym2612"
    },
    {
      "channel": 5,
      "note": 55,
      "start": 36.5797,
      "duration": 0.1949,
      "velocity": 89,
      "chip": "ym2612"
    },
    {
      "channel": 5,
      "note": 55,
      "start": 36.7944,
      "duration": 0.1968,
      "velocity": 89,
      "chip": "ym2612"
    },
    {
      "channel": 5,
      "note": 55,
      "start": 37.011,
      "duration": 0.2136,
      "velocity": 89,
      "chip": "ym2612"
    },
    {
      "channel": 2,
      "note": 49,
      "start": 37.0296,
      "duration": 0.0617,
      "velocity": 95,
      "chip": "ym2612"
    },
    {
      "channel": 2,
      "note": 49,
      "start": 37.1124,
      "duration": 0.0289,
      "velocity": 95,
      "chip": "ym2612"
    },
    {
      "channel": 2,
      "note": 49,
      "start": 37.1623,
      "duration": 0.0624,
      "velocity": 95,
      "chip": "ym2612"
    },
    {
      "channel": 3,
      "note": 73,
      "start": 37.2442,
      "duration": 0.8635,
      "velocity": 118,
      "chip": "ym2612"
    },
    {
      "channel": 5,
      "note": 55,
      "start": 37.2469,
      "duration": 0.1943,
      "velocity": 89,
      "chip": "ym2612"
    },
    {
      "channel": 0,
      "note": 64,
      "start": 37.2496,
      "duration": 0.7747,
      "velocity": 97,
      "chip": "ym2612"
    },
    {
      "channel": 2,
      "note": 49,
      "start": 37.2534,
      "duration": 0.1712,
      "velocity": 95,
      "chip": "ym2612"
    },
    {
      "channel": 5,
      "note": 55,
      "start": 37.4625,
      "duration": 0.1953,
      "velocity": 89,
      "chip": "ym2612"
    },
    {
      "channel": 2,
      "note": 33,
      "start": 37.4657,
      "duration": 0.1922,
      "velocity": 124,
      "chip": "ym2612"
    },
    {
      "channel": 5,
      "note": 55,
      "start": 37.6777,
      "duration": 0.1968,
      "velocity": 89,
      "chip": "ym2612"
    },
    {
      "channel": 5,
      "note": 55,
      "start": 37.9111,
      "duration": 0.1969,
      "velocity": 89,
      "chip": "ym2612"
    },
    {
      "channel": 3,
      "note": 69,
      "start": 38.1274,
      "duration": 0.8637,
      "velocity": 118,
      "chip": "ym2612"
    },
    {
      "channel": 5,
      "note": 55,
      "start": 38.1302,
      "duration": 0.1943,
      "velocity": 89,
      "chip": "ym2612"
    },
    {
      "channel": 0,
      "note": 61,
      "start": 38.1327,
      "duration": 0.775,
      "velocity": 97,
      "chip": "ym2612"
    },
    {
      "channel": 2,
      "note": 53,
      "start": 38.1357,
      "duration": 0.1889,
      "velocity": 127,
      "chip": "ym2612"
    },
    {
      "channel": 5,
      "note": 55,
      "start": 38.3459,
      "duration": 0.1952,
      "velocity": 89,
      "chip": "ym2612"
    },
    {
      "channel": 5,
      "note": 55,
      "start": 38.5609,
      "duration": 0.2136,
      "velocity": 89,
      "chip": "ym2612"
    },
    {
      "channel": 5,
      "note": 55,
      "start": 38.7949,
      "duration": 0.063,
      "velocity": 89,
      "chip": "ym2612"
    },
    {
      "channel": 2,
      "note": 49,
      "start": 38.7988,
      "duration": 0.1425,
      "velocity": 95,
      "chip": "ym2612"
    },
    {
      "channel": 1,
      "note": 65,
      "start": 39.0112,
      "duration": 1.7466,
      "velocity": 110,
      "chip": "ym2612"
    },
    {
      "channel": 4,
      "note": 74,
      "start": 39.0157,
      "duration": 1.7255,
      "velocity": 110,
      "chip": "ym2612"
    },
    {
      "channel": 3,
      "note": 70,
      "start": 39.0183,
      "duration": 0.8562,
      "velocity": 118,
      "chip": "ym2612"
    },
    {
      "channel": 5,
      "note": 53,
      "start": 39.0211,
      "duration": 0.1868,
      "velocity": 89,
      "chip": "ym2612"
    },
    {
      "channel": 0,
      "note": 62,
      "start": 39.0244,
      "duration": 0.7667,
      "velocity": 97,
      "chip": "ym2612"
    },
    {
      "channel": 2,
      "note": 49,
      "start": 39.0286,
      "duration": 0.1794,
      "velocity": 95,
      "chip": "ym2612"
    },
    {
      "channel": 5,
      "note": 53,
      "start": 39.2293,
      "duration": 0.212,
      "velocity": 89,
      "chip": "ym2612"
    },
    {
      "channel": 2,
      "note": 33,
      "start": 39.2325,
      "duration": 0.209,
      "velocity": 124,
      "chip": "ym2612"
    },
    {
      "channel": 5,
      "note": 53,
      "start": 39.4612,
      "duration": 0.1968,
      "velocity": 89,
      "chip": "ym2612"
    },
    {
      "channel": 5,
      "note": 53,
      "start": 39.6778,
      "duration": 0.1969,
      "velocity": 89,
      "chip": "ym2612"
    },
    {
      "channel": 3,
      "note": 74,
      "start": 39.8942,
      "duration": 0.8636,
      "velocity": 118,
      "chip": "ym2612"
    },
    {
      "channel": 5,
      "note": 53,
      "start": 39.8969,
      "duration": 0.1944,
      "velocity": 89,
      "chip": "ym2612"
    },
    {
      "channel": 0,
      "note": 65,
      "start": 39.8994,
      "duration": 0.775,
      "velocity": 97,
      "chip": "ym2612"
    },
    {
      "channel": 2,
      "note": 53,
      "start": 39.9024,
      "duration": 0.1889,
      "velocity": 127,
      "chip": "ym2612"
    },
    {
      "channel": 5,
      "note": 53,
      "start": 40.1293,
      "duration": 0.1952,
      "velocity": 89,
      "chip": "ym2612"
    },
    {
      "channel": 5,
      "note": 53,
      "start": 40.3442,
      "duration": 0.1969,
      "velocity": 89,
      "chip": "ym2612"
    },
    {
      "channel": 5,
      "note": 53,
      "start": 40.5609,
      "duration": 0.1971,
      "velocity": 89,
      "chip": "ym2612"
    },
    {
      "channel": 2,
      "note": 49,
      "start": 40.5792,
      "duration": 0.0621,
      "velocity": 95,
      "chip": "ym2612"
    },
    {
      "channel": 2,
      "note": 49,
      "start": 40.6624,
      "duration": 0.0289,
      "velocity": 95,
      "chip": "ym2612"
    },
    {
      "channel": 2,
      "note": 49,
      "start": 40.7124,
      "duration": 0.0458,
      "velocity": 95,
      "chip": "ym2612"
    },
    {
      "channel": 1,
      "note": 64,
      "start": 40.7776,
      "duration": 1.5134,
      "velocity": 110,
      "chip": "ym2612"
    },
    {
      "channel": 4,
      "note": 73,
      "start": 40.7814,
      "duration": 1.6432,
      "velocity": 110,
      "chip": "ym2612"
    },
    {
      "channel": 3,
      "note": 73,
      "start": 40.784,
      "duration": 0.8739,
      "velocity": 118,
      "chip": "ym2612"
    },
    {
      "channel": 5,
      "note": 52,
      "start": 40.7867,
      "duration": 0.2046,
      "velocity": 89,
      "chip": "ym2612"
    },
    {
      "channel": 0,
      "note": 64,
      "start": 40.7891,
      "duration": 0.7685,
      "velocity": 97,
      "chip": "ym2612"
    },
    {
      "channel": 2,
      "note": 49,
      "start": 40.7937,
      "duration": 0.1643,
      "velocity": 95,
      "chip": "ym2612"
    },
    {
      "channel": 5,
      "note": 52,
      "start": 41.0126,
      "duration": 0.1953,
      "velocity": 89,
      "chip": "ym2612"
    },
    {
      "channel": 2,
      "note": 33,
      "start": 41.0158,
      "duration": 0.1922,
      "velocity": 124,
      "chip": "ym2612"
    },
    {
      "channel": 5,
      "note": 52,
      "start": 41.2278,
      "duration": 0.1968,
      "velocity": 89,
      "chip": "ym2612"
    },
    {
      "channel": 5,
      "note": 52,
      "start": 41.4445,
      "duration": 0.2135,
      "velocity": 89,
      "chip": "ym2612"
    },
    {
      "channel": 3,
      "note": 69,
      "start": 41.6775,
      "duration": 0.8635,
      "velocity": 118,
      "chip": "ym2612"
    },
    {
      "channel": 5,
      "note": 52,
      "start": 41.6802,
      "duration": 0.1944,
      "velocity": 89,
      "chip": "ym2612"
    },
    {
      "channel": 0,
      "note": 61,
      "start": 41.6832,
      "duration": 0.7411,
      "velocity": 97,
      "chip": "ym2612"
    },
    {
      "channel": 2,
      "note": 53,
      "start": 41.6863,
      "duration": 0.1884,
      "velocity": 127,
      "chip": "ym2612"
    },
    {
      "channel": 5,
      "note": 52,
      "start": 41.896,
      "duration": 0.1951,
      "velocity": 89,
      "chip": "ym2612"
    },
    {
      "channel": 5,
      "note": 52,
      "start": 42.1113,
      "duration": 0.1966,
      "velocity": 89,
      "chip": "ym2612"
    },
    {
      "channel": 5,
      "note": 52,
      "start": 42.3444,
      "duration": 0.1968,
      "velocity": 89,
      "chip": "ym2612"
    },
    {
      "channel": 2,
      "note": 49,
      "start": 42.3486,
      "duration": 0.1259,
      "velocity": 95,
      "chip": "ym2612"
    },
    {
      "channel": 1,
      "note": 62,
      "start": 42.5616,
      "duration": 3.496,
      "velocity": 110,
      "chip": "ym2612"
    },
    {
      "channel": 4,
      "note": 69,
      "start": 42.5654,
      "duration": 1.7256,
      "velocity": 110,
      "chip": "ym2612"
    },
    {
      "channel": 3,
      "note": 69,
      "start": 42.5681,
      "duration": 0.8564,
      "velocity": 118,
      "chip": "ym2612"
    },
    {
      "channel": 5,
      "note": 50,
      "start": 42.5707,
      "duration": 0.1872,
      "velocity": 89,
      "chip": "ym2612"
    },
    {
      "channel": 0,
      "note": 61,
      "start": 42.5741,
      "duration": 0.7671,
      "velocity": 97,
      "chip": "ym2612"
    },
    {
      "channel": 2,
      "note": 49,
      "start": 42.5779,
      "duration": 0.1634,
      "velocity": 95,
      "chip": "ym2612"
    },
    {
      "channel": 5,
      "note": 50,
      "start": 42.7793,
      "duration": 0.1954,
      "velocity": 89,
      "chip": "ym2612"
    },
    {
      "channel": 2,
      "note": 33,
      "start": 42.7825,
      "duration": 0.1923,
      "velocity": 124,
      "chip": "ym2612"
    },
    {
      "channel": 5,
      "note": 50,
      "start": 42.9944,
      "duration": 0.2135,
      "velocity": 89,
      "chip": "ym2612"
    },
    {
      "channel": 5,
      "note": 50,
      "start": 43.2278,
      "duration": 0.1969,
      "velocity": 89,
      "chip": "ym2612"
    },
    {
      "channel": 3,
      "note": 70,
      "start": 43.4442,
      "duration": 0.8636,
      "velocity": 118,
      "chip": "ym2612"
    },
    {
      "channel": 5,
      "note": 50,
      "start": 43.4469,
      "duration": 0.1944,
      "velocity": 89,
      "chip": "ym2612"
    },
    {
      "channel": 0,
      "note": 62,
      "start": 43.4495,
      "duration": 0.8081,
      "velocity": 97,
      "chip": "ym2612"
    },
    {
      "channel": 2,
      "note": 53,
      "start": 43.4526,
      "duration": 0.1887,
      "velocity": 127,
      "chip": "ym2612"
    },
    {
      "channel": 5,
      "note": 50,
      "start": 43.6625,
      "duration": 0.1953,
      "velocity": 89,
      "chip": "ym2612"
    },
    {
      "channel": 5,
      "note": 50,
      "start": 43.8943,
      "duration": 0.1969,
      "velocity": 89,
      "chip": "ym2612"
    },
    {
      "channel": 5,
      "note": 50,
      "start": 44.111,
      "duration": 0.197,
      "velocity": 89,
      "chip": "ym2612"
    },
    {
      "channel": 2,
      "note": 49,
      "start": 44.1149,
      "duration": 0.143,
      "velocity": 95,
      "chip": "ym2612"
    },
    {
      "channel": 4,
      "note": 70,
      "start": 44.3283,
      "duration": 1.7295,
      "velocity": 110,
      "chip": "ym2612"
    },
    {
      "channel": 3,
      "note": 74,
      "start": 44.3309,
      "duration": 0.8602,
      "velocity": 118,
      "chip": "ym2612"
    },
    {
      "channel": 5,
      "note": 50,
      "start": 44.3336,
      "duration": 0.191,
      "velocity": 89,
      "chip": "ym2612"
    },
    {
      "channel": 0,
      "note": 65,
      "start": 44.3363,
      "duration": 0.7548,
      "velocity": 97,
      "chip": "ym2612"
    },
    {
      "channel": 2,
      "note": 49,
      "start": 44.3408,
      "duration": 0.1839,
      "velocity": 95,
      "chip": "ym2612"
    },
    {
      "channel": 5,
      "note": 50,
      "start": 44.546,
      "duration": 0.2119,
      "velocity": 89,
      "chip": "ym2612"
    },
    {
      "channel": 2,
      "note": 33,
      "start": 44.5492,
      "duration": 0.2088,
      "velocity": 124,
      "chip": "ym2612"
    },
    {
      "channel": 5,
      "note": 50,
      "start": 44.7778,
      "duration": 0.1969,
      "velocity": 89,
      "chip": "ym2612"
    },
    {
      "channel": 5,
      "note": 50,
      "start": 44.9945,
      "duration": 0.1968,
      "velocity": 89,
      "chip": "ym2612"
    },
    {
      "channel": 3,
      "note": 77,
      "start": 45.2111,
      "duration": 0.8633,
      "velocity": 118,
      "chip": "ym2612"
    },
    {
      "channel": 5,
      "note": 50,
      "start": 45.2138,
      "duration": 0.2107,
      "velocity": 89,
      "chip": "ym2612"
    },
    {
      "channel": 0,
      "note": 68,
      "start": 45.2164,
      "duration": 0.8247,
      "velocity": 97,
      "chip": "ym2612"
    },
    {
      "channel": 2,
      "note": 53,
      "start": 45.2195,
      "duration": 0.2051,
      "velocity": 127,
      "chip": "ym2612"
    },
    {
      "channel": 5,
      "note": 50,
      "start": 45.4468,
      "duration": 0.1945,
      "velocity": 89,
      "chip": "ym2612"
    },
    {
      "channel": 5,
      "note": 50,
      "start": 45.6613,
      "duration": 0.1965,
      "velocity": 89,
      "chip": "ym2612"
    },
    {
      "channel": 5,
      "note": 50,
      "start": 45.8776,
      "duration": 0.197,
      "velocity": 89,
      "chip": "ym2612"
    },
    {
      "channel": 2,
      "note": 49,
      "start": 45.8961,
      "duration": 0.0618,
      "velocity": 95,
      "chip": "ym2612"
    },
    {
      "channel": 2,
      "note": 49,
      "start": 45.979,
      "duration": 0.0291,
      "velocity": 95,
      "chip": "ym2612"
    },
    {
      "channel": 2,
      "note": 49,
      "start": 46.029,
      "duration": 0.0457,
      "velocity": 95,
      "chip": "ym2612"
    },
    {
      "channel": 4,
      "note": 50,
      "start": 46.1131,
      "duration": 3.4946,
      "velocity": 110,
      "chip": "ym2612"
    },
    {
      "channel": 5,
      "note": 50,
      "start": 46.1169,
      "duration": 0.1912,
      "velocity": 89,
      "chip": "ym2612"
    },
    {
      "channel": 0,
      "note": 57,
      "start": 46.1194,
      "duration": 0.8049,
      "velocity": 97,
      "chip": "ym2612"
    },
    {
      "channel": 1,
      "note": 69,
      "start": 46.1253,
      "duration": 0.0158,
      "velocity": 81,
      "chip": "ym2612"
    },
    {
      "channel": 2,
      "note": 49,
      "start": 46.1295,
      "duration": 0.1618,
      "velocity": 95,
      "chip": "ym2612"
    },
    {
      "channel": 1,
      "note": 81,
      "start": 46.1447,
      "duration": 0.0298,
      "velocity": 81,
      "chip": "ym2612"
    },
    {
      "channel": 1,
      "note": 69,
      "start": 46.1785,
      "duration": 0.0461,
      "velocity": 81,
      "chip": "ym2612"
    },
    {
      "channel": 1,
      "note": 81,
      "start": 46.2285,
      "duration": 0.0459,
      "velocity": 81,
      "chip": "ym2612"
    },
    {
      "channel": 1,
      "note": 69,
      "start": 46.278,
      "duration": 0.0298,
      "velocity": 81,
      "chip": "ym2612"
    },
    {
      "channel": 1,
      "note": 81,
      "start": 46.3117,
      "duration": 0.0295,
      "velocity": 81,
      "chip": "ym2612"
    },
    {
      "channel": 5,
      "note": 50,
      "start": 46.3278,
      "duration": 0.1968,
      "velocity": 89,
      "chip": "ym2612"
    },
    {
      "channel": 3,
      "note": 33,
      "start": 46.3309,
      "duration": 0.1936,
      "velocity": 124,
      "chip": "ym2612"
    },
    {
      "channel": 1,
      "note": 69,
      "start": 46.3618,
      "duration": 0.0292,
      "velocity": 81,
      "chip": "ym2612"
    },
    {
      "channel": 1,
      "note": 81,
      "start": 46.3946,
      "duration": 0.0465,
      "velocity": 81,
      "chip": "ym2612"
    },
    {
      "channel": 1,
      "note": 69,
      "start": 46.4449,
      "duration": 0.0295,
      "velocity": 81,
      "chip": "ym2612"
    },
    {
      "channel": 1,
      "note": 81,
      "start": 46.4947,
      "duration": 0.0296,
      "velocity": 81,
      "chip": "ym2612"
    },
    {
      "channel": 5,
      "note": 50,
      "start": 46.5443,
      "duration": 0.197,
      "velocity": 89,
      "chip": "ym2612"
    },
    {
      "channel": 1,
      "note": 69,
      "start": 46.5472,
      "duration": 0.0273,
      "velocity": 81,
      "chip": "ym2612"
    },
    {
      "channel": 1,
      "note": 81,
      "start": 46.578,
      "duration": 0.0463,
      "velocity": 81,
      "chip": "ym2612"
    },
    {
      "channel": 1,
      "note": 69,
      "start": 46.6286,
      "duration": 0.0458,
      "velocity": 81,
      "chip": "ym2612"
    },
    {
      "channel": 1,
      "note": 81,
      "start": 46.6783,
      "duration": 0.0294,
      "velocity": 81,
      "chip": "ym2612"
    },
    {
      "channel": 1,
      "note": 69,
      "start": 46.7113,
      "duration": 0.0298,
      "velocity": 81,
      "chip": "ym2612"
    },
    {
      "channel": 1,
      "note": 81,
      "start": 46.7449,
      "duration": 0.0461,
      "velocity": 81,
      "chip": "ym2612"
    },
    {
      "channel": 5,
      "note": 50,
      "start": 46.761,
      "duration": 0.2137,
      "velocity": 89,
      "chip": "ym2612"
    },
    {
      "channel": 1,
      "note": 69,
      "start": 46.8114,
      "duration": 0.0296,
      "velocity": 81,
      "chip": "ym2612"
    },
    {
      "channel": 1,
      "note": 81,
      "start": 46.8446,
      "duration": 0.0297,
      "velocity": 81,
      "chip": "ym2612"
    },
    {
      "channel": 1,
      "note": 69,
      "start": 46.8781,
      "duration": 0.0296,
      "velocity": 81,
      "chip": "ym2612"
    },
    {
      "channel": 1,
      "note": 81,
      "start": 46.9285,
      "duration": 0.0459,
      "velocity": 81,
      "chip": "ym2612"
    },
    {
      "channel": 5,
      "note": 50,
      "start": 46.9943,
      "duration": 0.1969,
      "velocity": 89,
      "chip": "ym2612"
    },
    {
      "channel": 0,
      "note": 58,
      "start": 46.9968,
      "duration": 0.8274,
      "velocity": 97,
      "chip": "ym2612"
    },
    {
      "channel": 1,
      "note": 70,
      "start": 46.9995,
      "duration": 0.0248,
      "velocity": 81,
      "chip": "ym2612"
    },
    {
      "channel": 3,
      "note": 53,
      "start": 47.0026,
      "duration": 0.1884,
      "velocity": 127,
      "chip": "ym2612"
    },
    {
      "channel": 1,
      "note": 82,
      "start": 47.0278,
      "duration": 0.0298,
      "velocity": 81,
      "chip": "ym2612"
    },
    {
      "channel": 1,
      "note": 70,
      "start": 47.0615,
      "duration": 0.0627,
      "velocity": 81,
      "chip": "ym2612"
    },
    {
      "channel": 1,
      "note": 82,
      "start": 47.1282,
      "duration": 0.0294,
      "velocity": 81,
      "chip": "ym2612"
    },
    {
      "channel": 1,
      "note": 70,
      "start": 47.1612,
      "duration": 0.0296,
      "velocity": 81,
      "chip": "ym2612"
    },
    {
      "channel": 1,
      "note": 82,
      "start": 47.1959,
      "duration": 0.0283,
      "velocity": 81,
      "chip": "ym2612"
    },
    {
      "channel": 5,
      "note": 50,
      "start": 47.211,
      "duration": 0.1968,
      "velocity": 89,
      "chip": "ym2612"
    },
    {
      "channel": 1,
      "note": 70,
      "start": 47.2446,
      "duration": 0.0463,
      "velocity": 81,
      "chip": "ym2612"
    },
    {
      "channel": 1,
      "note": 82,
      "start": 47.2946,
      "duration": 0.0297,
      "velocity": 81,
      "chip": "ym2612"
    },
    {
      "channel": 1,
      "note": 70,
      "start": 47.328,
      "duration": 0.0296,
      "velocity": 81,
      "chip": "ym2612"
    },
    {
      "channel": 1,
      "note": 82,
      "start": 47.3779,
      "duration": 0.0296,
      "velocity": 81,
      "chip": "ym2612"
    },
    {
      "channel": 5,
      "note": 50,
      "start": 47.4275,
      "duration": 0.2137,
      "velocity": 89,
      "chip": "ym2612"
    },
    {
      "channel": 1,
      "note": 70,
      "start": 47.4304,
      "duration": 0.0439,
      "velocity": 81,
      "chip": "ym2612"
    },
    {
      "channel": 1,
      "note": 82,
      "start": 47.4779,
      "duration": 0.0298,
      "velocity": 81,
      "chip": "ym2612"
    },
    {
      "channel": 1,
      "note": 70,
      "start": 47.5116,
      "duration": 0.046,
      "velocity": 81,
      "chip": "ym2612"
    },
    {
      "channel": 1,
      "note": 82,
      "start": 47.5615,
      "duration": 0.0295,
      "velocity": 81,
      "chip": "ym2612"
    },
    {
      "channel": 1,
      "note": 70,
      "start": 47.5946,
      "duration": 0.0464,
      "velocity": 81,
      "chip": "ym2612"
    },
    {
      "channel": 1,
      "note": 82,
      "start": 47.6458,
      "duration": 0.0285,
      "velocity": 81,
      "chip": "ym2612"
    },
    {
      "channel": 5,
      "note": 50,
      "start": 47.6608,
      "duration": 0.1971,
      "velocity": 89,
      "chip": "ym2612"
    },
    {
      "channel": 2,
      "note": 49,
      "start": 47.6651,
      "duration": 0.1428,
      "velocity": 95,
      "chip": "ym2612"
    },
    {
      "channel": 1,
      "note": 70,
      "start": 47.6946,
      "duration": 0.0298,
      "velocity": 81,
      "chip": "ym2612"
    },
    {
      "channel": 1,
      "note": 82,
      "start": 47.728,
      "duration": 0.0295,
      "velocity": 81,
      "chip": "ym2612"
    },
    {
      "channel": 1,
      "note": 70,
      "start": 47.7613,
      "duration": 0.0463,
      "velocity": 81,
      "chip": "ym2612"
    },
    {
      "channel": 1,
      "note": 82,
      "start": 47.8281,
      "duration": 0.0295,
      "velocity": 81,
      "chip": "ym2612"
    },
    {
      "channel": 5,
      "note": 50,
      "start": 47.8776,
      "duration": 0.1969,
      "velocity": 89,
      "chip": "ym2612"
    },
    {
      "channel": 0,
      "note": 60,
      "start": 47.8801,
      "duration": 0.8274,
      "velocity": 97,
      "chip": "ym2612"
    },
    {
      "channel": 1,
      "note": 72,
      "start": 47.8828,
      "duration": 0.0248,
      "velocity": 81,
      "chip": "ym2612"
    },
    {
      "channel": 2,
      "note": 49,
      "start": 47.8863,
      "duration": 0.1716,
      "velocity": 95,
      "chip": "ym2612"
    },
    {
      "channel": 1,
      "note": 84,
      "start": 47.9112,
      "duration": 0.0296,
      "velocity": 81,
      "chip": "ym2612"
    },
    {
      "channel": 1,
      "note": 72,
      "start": 47.9452,
      "duration": 0.0624,
      "velocity": 81,
      "chip": "ym2612"
    },
    {
      "channel": 1,
      "note": 84,
      "start": 48.0115,
      "duration": 0.0295,
      "velocity": 81,
      "chip": "ym2612"
    },
    {
      "channel": 1,
      "note": 72,
      "start": 48.0446,
      "duration": 0.0297,
      "velocity": 81,
      "chip": "ym2612"
    },
    {
      "channel": 1,
      "note": 84,
      "start": 48.0788,
      "duration": 0.0289,
      "velocity": 81,
      "chip": "ym2612"
    },
    {
      "channel": 5,
      "note": 50,
      "start": 48.0942,
      "duration": 0.1971,
      "velocity": 89,
      "chip": "ym2612"
    },
    {
      "channel": 3,
      "note": 33,
      "start": 48.0972,
      "duration": 0.1939,
      "velocity": 124,
      "chip": "ym2612"
    },
    {
      "channel": 1,
      "note": 72,
      "start": 48.1279,
      "duration": 0.0464,
      "velocity": 81,
      "chip": "ym2612"
    },
    {
      "channel": 1,
      "note": 84,
      "start": 48.1779,
      "duration": 0.0297,
      "velocity": 81,
      "chip": "ym2612"
    },
    {
      "channel": 1,
      "note": 72,
      "start": 48.2117,
      "duration": 0.0292,
      "velocity": 81,
      "chip": "ym2612"
    },
    {
      "channel": 1,
      "note": 84,
      "start": 48.2613,
      "duration": 0.0297,
      "velocity": 81,
      "chip": "ym2612"
    },
    {
      "channel": 5,
      "note": 50,
      "start": 48.3276,
      "duration": 0.1969,
      "velocity": 89,
      "chip": "ym2612"
    },
    {
      "channel": 1,
      "note": 72,
      "start": 48.3304,
      "duration": 0.0272,
      "velocity": 81,
      "chip": "ym2612"
    },
    {
      "channel": 1,
      "note": 84,
      "start": 48.3612,
      "duration": 0.0298,
      "velocity": 81,
      "chip": "ym2612"
    },
    {
      "channel": 1,
      "note": 72,
      "start": 48.3949,
      "duration": 0.0461,
      "velocity": 81,
      "chip": "ym2612"
    },
    {
      "channel": 1,
      "note": 84,
      "start": 48.4449,
      "duration": 0.0461,
      "velocity": 81,
      "chip": "ym2612"
    },
    {
      "channel": 1,
      "note": 72,
      "start": 48.495,
      "duration": 0.0293,
      "velocity": 81,
      "chip": "ym2612"
    },
    {
      "channel": 1,
      "note": 84,
      "start": 48.5287,
      "duration": 0.0289,
      "velocity": 81,
      "chip": "ym2612"
    },
    {
      "channel": 5,
      "note": 50,
      "start": 48.5442,
      "duration": 0.1969,
      "velocity": 89,
      "chip": "ym2612"
    },
    {
      "channel": 1,
      "note": 72,
      "start": 48.578,
      "duration": 0.0296,
      "velocity": 81,
      "chip": "ym2612"
    },
    {
      "channel": 1,
      "note": 84,
      "start": 48.6112,
      "duration": 0.0465,
      "velocity": 81,
      "chip": "ym2612"
    },
    {
      "channel": 1,
      "note": 72,
      "start": 48.6614,
      "duration": 0.0295,
      "velocity": 81,
      "chip": "ym2612"
    },
    {
      "channel": 1,
      "note": 84,
      "start": 48.7113,
      "duration": 0.0296,
      "velocity": 81,
      "chip": "ym2612"
    },
    {
      "channel": 5,
      "note": 50,
      "start": 48.7609,
      "duration": 0.1969,
      "velocity": 89,
      "chip": "ym2612"
    },
    {
      "channel": 0,
      "note": 62,
      "start": 48.7636,
      "duration": 0.8273,
      "velocity": 97,
      "chip": "ym2612"
    },
    {
      "channel": 1,
      "note": 74,
      "start": 48.7664,
      "duration": 0.0246,
      "velocity": 81,
      "chip": "ym2612"
    },
    {
      "channel": 3,
      "note": 53,
      "start": 48.7691,
      "duration": 0.1885,
      "velocity": 127,
      "chip": "ym2612"
    },
    {
      "channel": 1,
      "note": 86,
      "start": 48.7946,
      "duration": 0.0464,
      "velocity": 81,
      "chip": "ym2612"
    },
    {
      "channel": 1,
      "note": 74,
      "start": 48.8449,
      "duration": 0.0461,
      "velocity": 81,
      "chip": "ym2612"
    },
    {
      "channel": 1,
      "note": 86,
      "start": 48.8949,
      "duration": 0.0294,
      "velocity": 81,
      "chip": "ym2612"
    },
    {
      "channel": 1,
      "note": 74,
      "start": 48.9279,
      "duration": 0.0296,
      "velocity": 81,
      "chip": "ym2612"
    },
    {
      "channel": 1,
      "note": 86,
      "start": 48.9625,
      "duration": 0.0452,
      "velocity": 81,
      "chip": "ym2612"
    },
    {
      "channel": 5,
      "note": 50,
      "start": 48.9776,
      "duration": 0.2136,
      "velocity": 89,
      "chip": "ym2612"
    },
    {
      "channel": 2,
      "note": 49,
      "start": 48.9814,
      "duration": 0.1931,
      "velocity": 95,
      "chip": "ym2612"
    },
    {
      "channel": 1,
      "note": 74,
      "start": 49.028,
      "duration": 0.0296,
      "velocity": 81,
      "chip": "ym2612"
    },
    {
      "channel": 1,
      "note": 86,
      "start": 49.0613,
      "duration": 0.0297,
      "velocity": 81,
      "chip": "ym2612"
    },
    {
      "channel": 1,
      "note": 74,
      "start": 49.0947,
      "duration": 0.0296,
      "velocity": 81,
      "chip": "ym2612"
    },
    {
      "channel": 1,
      "note": 86,
      "start": 49.1446,
      "duration": 0.0464,
      "velocity": 81,
      "chip": "ym2612"
    },
    {
      "channel": 5,
      "note": 50,
      "start": 49.2114,
      "duration": 0.1965,
      "velocity": 89,
      "chip": "ym2612"
    },
    {
      "channel": 1,
      "note": 74,
      "start": 49.2142,
      "duration": 0.0268,
      "velocity": 81,
      "chip": "ym2612"
    },
    {
      "channel": 2,
      "note": 49,
      "start": 49.2177,
      "duration": 0.1401,
      "velocity": 95,
      "chip": "ym2612"
    },
    {
      "channel": 1,
      "note": 86,
      "start": 49.2446,
      "duration": 0.0297,
      "velocity": 81,
      "chip": "ym2612"
    },
    {
      "channel": 1,
      "note": 74,
      "start": 49.2786,
      "duration": 0.0624,
      "velocity": 81,
      "chip": "ym2612"
    },
    {
      "channel": 1,
      "note": 86,
      "start": 49.3449,
      "duration": 0.0295,
      "velocity": 81,
      "chip": "ym2612"
    },
    {
      "channel": 1,
      "note": 74,
      "start": 49.3779,
      "duration": 0.0297,
      "velocity": 81,
      "chip": "ym2612"
    },
    {
      "channel": 1,
      "note": 86,
      "start": 49.4115,
      "duration": 0.0295,
      "velocity": 81,
      "chip": "ym2612"
    },
    {
      "channel": 5,
      "note": 50,
      "start": 49.4276,
      "duration": 0.1971,
      "velocity": 89,
      "chip": "ym2612"
    },
    {
      "channel": 3,
      "note": 53,
      "start": 49.4306,
      "duration": 0.1939,
      "velocity": 127,
      "chip": "ym2612"
    },
    {
      "channel": 1,
      "note": 74,
      "start": 49.4613,
      "duration": 0.0297,
      "velocity": 81,
      "chip": "ym2612"
    },
    {
      "channel": 1,
      "note": 86,
      "start": 49.4946,
      "duration": 0.0465,
      "velocity": 81,
      "chip": "ym2612"
    },
    {
      "channel": 1,
      "note": 74,
      "start": 49.5448,
      "duration": 0.0295,
      "velocity": 81,
      "chip": "ym2612"
    },
    {
      "channel": 1,
      "note": 86,
      "start": 49.5947,
      "duration": 0.0297,
      "velocity": 81,
      "chip": "ym2612"
    },
    {
      "channel": 2,
      "note": 64,
      "start": 49.6461,
      "duration": 0.0146,
      "velocity": 110,
      "chip": "ym2612"
    },
    {
      "channel": 4,
      "note": 71,
      "start": 49.6518,
      "duration": 1.6727,
      "velocity": 110,
      "chip": "ym2612"
    },
    {
      "channel": 5,
      "note": 52,
      "start": 49.6548,
      "duration": 0.1698,
      "velocity": 89,
      "chip": "ym2612"
    },
    {
      "channel": 1,
      "note": 74,
      "start": 49.6597,
      "duration": 1.7315,
      "velocity": 81,
      "chip": "ym2612"
    },
    {
      "channel": 2,
      "note": 49,
      "start": 49.6633,
      "duration": 0.3947,
      "velocity": 95,
      "chip": "ym2612"
    },
    {
      "channel": 5,
      "note": 52,
      "start": 49.8778,
      "duration": 0.1802,
      "velocity": 89,
      "chip": "ym2612"
    },
    {
      "channel": 0,
      "note": 75,
      "start": 50.0951,
      "duration": 0.396,
      "velocity": 118,
      "chip": "ym2612"
    },
    {
      "channel": 5,
      "note": 52,
      "start": 50.0977,
      "duration": 0.1768,
      "velocity": 89,
      "chip": "ym2612"
    },
    {
      "channel": 3,
      "note": 64,
      "start": 50.1012,
      "duration": 0.3733,
      "velocity": 97,
      "chip": "ym2612"
    },
    {
      "channel": 5,
      "note": 52,
      "start": 50.3131,
      "duration": 0.1782,
      "velocity": 89,
      "chip": "ym2612"
    },
    {
      "channel": 0,
      "note": 74,
      "start": 50.544,
      "duration": 0.3969,
      "velocity": 118,
      "chip": "ym2612"
    },
    {
      "channel": 5,
      "note": 52,
      "start": 50.5467,
      "duration": 0.1778,
      "velocity": 89,
      "chip": "ym2612"
    },
    {
      "channel": 3,
      "note": 63,
      "start": 50.5493,
      "duration": 0.3751,
      "velocity": 97,
      "chip": "ym2612"
    },
    {
      "channel": 2,
      "note": 53,
      "start": 50.5524,
      "duration": 0.1888,
      "velocity": 127,
      "chip": "ym2612"
    },
    {
      "channel": 5,
      "note": 52,
      "start": 50.7626,
      "duration": 0.1786,
      "velocity": 89,
      "chip": "ym2612"
    },
    {
      "channel": 0,
      "note": 71,
      "start": 50.9774,
      "duration": 0.4137,
      "velocity": 118,
      "chip": "ym2612"
    },
    {
      "channel": 5,
      "note": 52,
      "start": 50.98,
      "duration": 0.1777,
      "velocity": 89,
      "chip": "ym2612"
    },
    {
      "channel": 3,
      "note": 62,
      "start": 50.9827,
      "duration": 0.3751,
      "velocity": 97,
      "chip": "ym2612"
    },
    {
      "channel": 5,
      "note": 52,
      "start": 51.1959,
      "duration": 0.1955,
      "velocity": 89,
      "chip": "ym2612"
    },
    {
      "channel": 2,
      "note": 49,
      "start": 51.1998,
      "duration": 0.1917,
      "velocity": 95,
      "chip": "ym2612"
    },
    {
      "channel": 4,
      "note": 65,
      "start": 51.4278,
      "duration": 0.7302,
      "velocity": 110,
      "chip": "ym2612"
    },
    {
      "channel": 3,
      "note": 72,
      "start": 51.4321,
      "duration": 0.7091,
      "velocity": 110,
      "chip": "ym2612"
    },
    {
      "channel": 0,
      "note": 72,
      "start": 51.4346,
      "duration": 0.3898,
      "velocity": 118,
      "chip": "ym2612"
    },
    {
      "channel": 5,
      "note": 53,
      "start": 51.4375,
      "duration": 0.1871,
      "velocity": 89,
      "chip": "ym2612"
    },
    {
      "channel": 1,
      "note": 61,
      "start": 51.4409,
      "duration": 0.3668,
      "velocity": 97,
      "chip": "ym2612"
    },
    {
      "channel": 2,
      "note": 75,
      "start": 51.446,
      "duration": 0.0014,
      "velocity": 84,
      "chip": "ym2612"
    },
    {
      "channel": 2,
      "note": 49,
      "start": 51.45,
      "duration": 0.1747,
      "velocity": 95,
      "chip": "ym2612"
    },
    {
      "channel": 5,
      "note": 53,
      "start": 51.6461,
      "duration": 0.1952,
      "velocity": 89,
      "chip": "ym2612"
    },
    {
      "channel": 2,
      "note": 33,
      "start": 51.6492,
      "duration": 0.1922,
      "velocity": 124,
      "chip": "ym2612"
    },
    {
      "channel": 0,
      "note": 71,
      "start": 51.8608,
      "duration": 0.4137,
      "velocity": 118,
      "chip": "ym2612"
    },
    {
      "channel": 5,
      "note": 53,
      "start": 51.8634,
      "duration": 0.2111,
      "velocity": 89,
      "chip": "ym2612"
    },
    {
      "channel": 1,
      "note": 60,
      "start": 51.866,
      "duration": 0.3917,
      "velocity": 97,
      "chip": "ym2612"
    },
    {
      "channel": 2,
      "note": 72,
      "start": 51.8688,
      "duration": 0.406,
      "velocity": 84,
      "chip": "ym2612"
    },
    {
      "channel": 5,
      "note": 53,
      "start": 52.0961,
      "duration": 0.1952,
      "velocity": 89,
      "chip": "ym2612"
    },
    {
      "channel": 4,
      "note": 63,
      "start": 52.3108,
      "duration": 0.6807,
      "velocity": 110,
      "chip": "ym2612"
    },
    {
      "channel": 3,
      "note": 70,
      "start": 52.3144,
      "duration": 0.6936,
      "velocity": 110,
      "chip": "ym2612"
    },
    {
      "channel": 0,
      "note": 67,
      "start": 52.3169,
      "duration": 0.3908,
      "velocity": 118,
      "chip": "ym2612"
    },
    {
      "channel": 5,
      "note": 51,
      "start": 52.3199,
      "duration": 0.1881,
      "velocity": 89,
      "chip": "ym2612"
    },
    {
      "channel": 1,
      "note": 59,
      "start": 52.3225,
      "duration": 0.0044,
      "velocity": 97,
      "chip": "ym2612"
    },
    {
      "channel": 2,
      "note": 71,
      "start": 52.326,
      "duration": 0.3821,
      "velocity": 84,
      "chip": "ym2612"
    },
    {
      "channel": 1,
      "note": 53,
      "start": 52.3288,
      "duration": 0.1789,
      "velocity": 127,
      "chip": "ym2612"
    },
    {
      "channel": 5,
      "note": 51,
      "start": 52.5294,
      "duration": 0.1952,
      "velocity": 89,
      "chip": "ym2612"
    },
    {
      "channel": 0,
      "note": 69,
      "start": 52.7608,
      "duration": 0.3969,
      "velocity": 118,
      "chip": "ym2612"
    },
    {
      "channel": 5,
      "note": 51,
      "start": 52.7635,
      "duration": 0.1943,
      "velocity": 89,
      "chip": "ym2612"
    },
    {
      "channel": 1,
      "note": 58,
      "start": 52.7662,
      "duration": 0.3749,
      "velocity": 97,
      "chip": "ym2612"
    },
    {
      "channel": 2,
      "note": 63,
      "start": 52.769,
      "duration": 0.2116,
      "velocity": 84,
      "chip": "ym2612"
    },
    {
      "channel": 5,
      "note": 51,
      "start": 52.9793,
      "duration": 0.1953,
      "velocity": 89,
      "chip": "ym2612"
    },
    {
      "channel": 2,
      "note": 49,
      "start": 52.9833,
      "duration": 0.1249,
      "velocity": 95,
      "chip": "ym2612"
    },
    {
      "channel": 3,
      "note": 52,
      "start": 53.1995,
      "duration": 1.5417,
      "velocity": 110,
      "chip": "ym2612"
    },
    {
      "channel": 0,
      "note": 71,
      "start": 53.2024,
      "duration": 0.1886,
      "velocity": 118,
      "chip": "ym2612"
    },
    {
      "channel": 5,
      "note": 52,
      "start": 53.2051,
      "duration": 0.1863,
      "velocity": 89,
      "chip": "ym2612"
    },
    {
      "channel": 1,
      "note": 57,
      "start": 53.2083,
      "duration": 0.3662,
      "velocity": 97,
      "chip": "ym2612"
    },
    {
      "channel": 4,
      "note": 64,
      "start": 53.212,
      "duration": 0.1792,
      "velocity": 84,
      "chip": "ym2612"
    },
    {
      "channel": 2,
      "note": 49,
      "start": 53.2156,
      "duration": 0.1759,
      "velocity": 95,
      "chip": "ym2612"
    },
    {
      "channel": 5,
      "note": 52,
      "start": 53.4137,
      "duration": 0.2109,
      "velocity": 89,
      "chip": "ym2612"
    },
    {
      "channel": 4,
      "note": 71,
      "start": 53.4178,
      "duration": 0.8734,
      "velocity": 84,
      "chip": "ym2612"
    },
    {
      "channel": 0,
      "note": 33,
      "start": 53.4206,
      "duration": 0.2037,
      "velocity": 124,
      "chip": "ym2612"
    },
    {
      "channel": 5,
      "note": 52,
      "start": 53.6444,
      "duration": 0.1969,
      "velocity": 89,
      "chip": "ym2612"
    },
    {
      "channel": 1,
      "note": 55,
      "start": 53.647,
      "duration": 0.3775,
      "velocity": 97,
      "chip": "ym2612"
    },
    {
      "channel": 2,
      "note": 76,
      "start": 53.6505,
      "duration": 0.0242,
      "velocity": 103,
      "chip": "ym2612"
    },
    {
      "channel": 0,
      "note": 39,
      "start": 53.6542,
      "duration": 0.0037,
      "velocity": 102,
      "chip": "ym2612"
    },
    {
      "channel": 0,
      "note": 76,
      "start": 53.6779,
      "duration": 0.0631,
      "velocity": 103,
      "chip": "ym2612"
    },
    {
      "channel": 2,
      "note": 33,
      "start": 53.682,
      "duration": 0.0594,
      "velocity": 102,
      "chip": "ym2612"
    },
    {
      "channel": 5,
      "note": 52,
      "start": 53.8611,
      "duration": 0.1969,
      "velocity": 89,
      "chip": "ym2612"
    },
    {
      "channel": 0,
      "note": 79,
      "start": 53.8638,
      "duration": 0.0272,
      "velocity": 103,
      "chip": "ym2612"
    },
    {
      "channel": 2,
      "note": 39,
      "start": 53.8673,
      "duration": 0.0075,
      "velocity": 102,
      "chip": "ym2612"
    },
    {
      "channel": 2,
      "note": 33,
      "start": 53.8792,
      "duration": 0.0956,
      "velocity": 102,
      "chip": "ym2612"
    },
    {
      "channel": 0,
      "note": 79,
      "start": 53.8942,
      "duration": 0.0802,
      "velocity": 103,
      "chip": "ym2612"
    },
    {
      "channel": 5,
      "note": 52,
      "start": 54.0776,
      "duration": 0.2136,
      "velocity": 89,
      "chip": "ym2612"
    },
    {
      "channel": 1,
      "note": 54,
      "start": 54.0802,
      "duration": 0.3941,
      "velocity": 97,
      "chip": "ym2612"
    },
    {
      "channel": 0,
      "note": 83,
      "start": 54.0831,
      "duration": 0.0412,
      "velocity": 103,
      "chip": "ym2612"
    },
    {
      "channel": 2,
      "note": 53,
      "start": 54.0861,
      "duration": 0.2052,
      "velocity": 127,
      "chip": "ym2612"
    },
    {
      "channel": 0,
      "note": 83,
      "start": 54.1278,
      "duration": 0.0632,
      "velocity": 103,
      "chip": "ym2612"
    },
    {
      "channel": 5,
      "note": 52,
      "start": 54.3111,
      "duration": 0.1969,
      "velocity": 89,
      "chip": "ym2612"
    },
    {
      "channel": 4,
      "note": 79,
      "start": 54.3148,
      "duration": 0.1931,
      "velocity": 84,
      "chip": "ym2612"
    },
    {
      "channel": 2,
      "note": 49,
      "start": 54.319,
      "duration": 0.0222,
      "velocity": 106,
      "chip": "ym2612"
    },
    {
      "channel": 2,
      "note": 49,
      "start": 54.3462,
      "duration": 0.1451,
      "velocity": 106,
      "chip": "ym2612"
    },
    {
      "channel": 5,
      "note": 52,
      "start": 54.5277,
      "duration": 0.1968,
      "velocity": 89,
      "chip": "ym2612"
    },
    {
      "channel": 1,
      "note": 52,
      "start": 54.5303,
      "duration": 0.3773,
      "velocity": 97,
      "chip": "ym2612"
    },
    {
      "channel": 4,
      "note": 76,
      "start": 54.5329,
      "duration": 0.1915,
      "velocity": 84,
      "chip": "ym2612"
    },
    {
      "channel": 5,
      "note": 52,
      "start": 54.7444,
      "duration": 0.1968,
      "velocity": 89,
      "chip": "ym2612"
    },
    {
      "channel": 4,
      "note": 71,
      "start": 54.7472,
      "duration": 0.1938,
      "velocity": 84,
      "chip": "ym2612"
    },
    {
      "channel": 2,
      "note": 49,
      "start": 54.7624,
      "duration": 0.0622,
      "velocity": 95,
      "chip": "ym2612"
    },
    {
      "channel": 2,
      "note": 49,
      "start": 54.8461,
      "duration": 0.0284,
      "velocity": 95,
      "chip": "ym2612"
    },
    {
      "channel": 2,
      "note": 49,
      "start": 54.8956,
      "duration": 0.0457,
      "velocity": 95,
      "chip": "ym2612"
    },
    {
      "channel": 3,
      "note": 48,
      "start": 54.979,
      "duration": 1.5956,
      "velocity": 110,
      "chip": "ym2612"
    },
    {
      "channel": 0,
      "note": 70,
      "start": 54.9818,
      "duration": 0.1925,
      "velocity": 118,
      "chip": "ym2612"
    },
    {
      "channel": 5,
      "note": 48,
      "start": 54.9844,
      "duration": 0.1903,
      "velocity": 89,
      "chip": "ym2612"
    },
    {
      "channel": 1,
      "note": 51,
      "start": 54.987,
      "duration": 0.3708,
      "velocity": 97,
      "chip": "ym2612"
    },
    {
      "channel": 4,
      "note": 60,
      "start": 54.9914,
      "duration": 0.1832,
      "velocity": 84,
      "chip": "ym2612"
    },
    {
      "channel": 2,
      "note": 49,
      "start": 54.9951,
      "duration": 0.1629,
      "velocity": 95,
      "chip": "ym2612"
    },
    {
      "channel": 5,
      "note": 48,
      "start": 55.196,
      "duration": 0.1952,
      "velocity": 89,
      "chip": "ym2612"
    },
    {
      "channel": 4,
      "note": 74,
      "start": 55.1991,
      "duration": 0.8587,
      "velocity": 84,
      "chip": "ym2612"
    },
    {
      "channel": 2,
      "note": 33,
      "start": 55.2019,
      "duration": 0.1894,
      "velocity": 124,
      "chip": "ym2612"
    },
    {
      "channel": 5,
      "note": 48,
      "start": 55.4111,
      "duration": 0.1968,
      "velocity": 89,
      "chip": "ym2612"
    },
    {
      "channel": 1,
      "note": 53,
      "start": 55.4136,
      "duration": 0.3775,
      "velocity": 97,
      "chip": "ym2612"
    },
    {
      "channel": 0,
      "note": 72,
      "start": 55.4168,
      "duration": 0.0242,
      "velocity": 103,
      "chip": "ym2612"
    },
    {
      "channel": 2,
      "note": 39,
      "start": 55.4202,
      "duration": 0.0044,
      "velocity": 102,
      "chip": "ym2612"
    },
    {
      "channel": 2,
      "note": 72,
      "start": 55.4444,
      "duration": 0.0804,
      "velocity": 103,
      "chip": "ym2612"
    },
    {
      "channel": 0,
      "note": 33,
      "start": 55.4488,
      "duration": 0.0756,
      "velocity": 102,
      "chip": "ym2612"
    },
    {
      "channel": 5,
      "note": 48,
      "start": 55.6278,
      "duration": 0.2134,
      "velocity": 89,
      "chip": "ym2612"
    },
    {
      "channel": 0,
      "note": 75,
      "start": 55.6305,
      "duration": 0.0438,
      "velocity": 103,
      "chip": "ym2612"
    },
    {
      "channel": 2,
      "note": 39,
      "start": 55.6339,
      "duration": 0.0241,
      "velocity": 102,
      "chip": "ym2612"
    },
    {
      "channel": 2,
      "note": 33,
      "start": 55.6624,
      "duration": 0.079,
      "velocity": 102,
      "chip": "ym2612"
    },
    {
      "channel": 0,
      "note": 75,
      "start": 55.6774,
      "duration": 0.0635,
      "velocity": 103,
      "chip": "ym2612"
    },
    {
      "channel": 5,
      "note": 48,
      "start": 55.8614,
      "duration": 0.1965,
      "velocity": 89,
      "chip": "ym2612"
    },
    {
      "channel": 1,
      "note": 55,
      "start": 55.8639,
      "duration": 0.3771,
      "velocity": 97,
      "chip": "ym2612"
    },
    {
      "channel": 0,
      "note": 79,
      "start": 55.8668,
      "duration": 0.0241,
      "velocity": 103,
      "chip": "ym2612"
    },
    {
      "channel": 2,
      "note": 53,
      "start": 55.8698,
      "duration": 0.1882,
      "velocity": 127,
      "chip": "ym2612"
    },
    {
      "channel": 0,
      "note": 79,
      "start": 55.8943,
      "duration": 0.0634,
      "velocity": 103,
      "chip": "ym2612"
    },
    {
      "channel": 5,
      "note": 48,
      "start": 56.0777,
      "duration": 0.1968,
      "velocity": 89,
      "chip": "ym2612"
    },
    {
      "channel": 4,
      "note": 75,
      "start": 56.0814,
      "duration": 0.193,
      "velocity": 84,
      "chip": "ym2612"
    },
    {
      "channel": 2,
      "note": 49,
      "start": 56.0853,
      "duration": 0.0227,
      "velocity": 106,
      "chip": "ym2612"
    },
    {
      "channel": 2,
      "note": 49,
      "start": 56.1127,
      "duration": 0.1286,
      "velocity": 106,
      "chip": "ym2612"
    },
    {
      "channel": 5,
      "note": 48,
      "start": 56.2943,
      "duration": 0.2136,
      "velocity": 89,
      "chip": "ym2612"
    },
    {
      "channel": 1,
      "note": 56,
      "start": 56.2972,
      "duration": 0.3938,
      "velocity": 97,
      "chip": "ym2612"
    },
    {
      "channel": 4,
      "note": 72,
      "start": 56.2998,
      "duration": 0.208,
      "velocity": 84,
      "chip": "ym2612"
    },
    {
      "channel": 0,
      "note": 39,
      "start": 56.3031,
      "duration": 0.0045,
      "velocity": 102,
      "chip": "ym2612"
    },
    {
      "channel": 0,
      "note": 33,
      "start": 56.3452,
      "duration": 0.0624,
      "velocity": 102,
      "chip": "ym2612"
    },
    {
      "channel": 5,
      "note": 48,
      "start": 56.5276,
      "duration": 0.197,
      "velocity": 89,
      "chip": "ym2612"
    },
    {
      "channel": 4,
      "note": 67,
      "start": 56.5307,
      "duration": 0.1937,
      "velocity": 84,
      "chip": "ym2612"
    },
    {
      "channel": 2,
      "note": 49,
      "start": 56.5342,
      "duration": 0.1237,
      "velocity": 95,
      "chip": "ym2612"
    },
    {
      "channel": 3,
      "note": 52,
      "start": 56.7466,
      "duration": 1.5443,
      "velocity": 110,
      "chip": "ym2612"
    },
    {
      "channel": 0,
      "note": 71,
      "start": 56.7494,
      "duration": 0.1915,
      "velocity": 118,
      "chip": "ym2612"
    },
    {
      "channel": 5,
      "note": 52,
      "start": 56.7521,
      "duration": 0.1891,
      "velocity": 89,
      "chip": "ym2612"
    },
    {
      "channel": 1,
      "note": 57,
      "start": 56.7554,
      "duration": 0.369,
      "velocity": 97,
      "chip": "ym2612"
    },
    {
      "channel": 2,
      "note": 64,
      "start": 56.7591,
      "duration": 0.0037,
      "velocity": 103,
      "chip": "ym2612"
    },
    {
      "channel": 4,
      "note": 64,
      "start": 56.7619,
      "duration": 0.1959,
      "velocity": 84,
      "chip": "ym2612"
    },
    {
      "channel": 2,
      "note": 49,
      "start": 56.7655,
      "duration": 0.1759,
      "velocity": 95,
      "chip": "ym2612"
    },
    {
      "channel": 5,
      "note": 52,
      "start": 56.9627,
      "duration": 0.1952,
      "velocity": 89,
      "chip": "ym2612"
    },
    {
      "channel": 0,
      "note": 71,
      "start": 56.9655,
      "duration": 0.0069,
      "velocity": 103,
      "chip": "ym2612"
    },
    {
      "channel": 4,
      "note": 71,
      "start": 56.9683,
      "duration": 0.8729,
      "velocity": 84,
      "chip": "ym2612"
    },
    {
      "channel": 2,
      "note": 33,
      "start": 56.9712,
      "duration": 0.1868,
      "velocity": 124,
      "chip": "ym2612"
    },
    {
      "channel": 0,
      "note": 39,
      "start": 56.9751,
      "duration": 0.0029,
      "velocity": 102,
      "chip": "ym2612"
    },
    {
      "channel": 0,
      "note": 33,
      "start": 56.9954,
      "duration": 0.079,
      "velocity": 102,
      "chip": "ym2612"
    },
    {
      "channel": 5,
      "note": 52,
      "start": 57.1945,
      "duration": 0.1968,
      "velocity": 89,
      "chip": "ym2612"
    },
    {
      "channel": 1,
      "note": 55,
      "start": 57.1978,
      "duration": 0.3768,
      "velocity": 97,
      "chip": "ym2612"
    },
    {
      "channel": 0,
      "note": 76,
      "start": 57.2005,
      "duration": 0.0407,
      "velocity": 103,
      "chip": "ym2612"
    },
    {
      "channel": 2,
      "note": 39,
      "start": 57.2039,
      "duration": 0.0041,
      "velocity": 102,
      "chip": "ym2612"
    },
    {
      "channel": 2,
      "note": 33,
      "start": 57.2124,
      "duration": 0.0789,
      "velocity": 102,
      "chip": "ym2612"
    },
    {
      "channel": 5,
      "note": 52,
      "start": 57.4111,
      "duration": 0.1969,
      "velocity": 89,
      "chip": "ym2612"
    },
    {
      "channel": 0,
      "note": 79,
      "start": 57.4136,
      "duration": 0.0442,
      "velocity": 103,
      "chip": "ym2612"
    },
    {
      "channel": 2,
      "note": 49,
      "start": 57.4176,
      "duration": 0.0238,
      "velocity": 106,
      "chip": "ym2612"
    },
    {
      "channel": 2,
      "note": 49,
      "start": 57.4463,
      "duration": 0.1451,
      "velocity": 106,
      "chip": "ym2612"
    },
    {
      "channel": 5,
      "note": 52,
      "start": 57.6277,
      "duration": 0.1969,
      "velocity": 89,
      "chip": "ym2612"
    },
    {
      "channel": 1,
      "note": 54,
      "start": 57.6315,
      "duration": 0.3762,
      "velocity": 97,
      "chip": "ym2612"
    },
    {
      "channel": 0,
      "note": 83,
      "start": 57.6338,
      "duration": 0.0054,
      "velocity": 103,
      "chip": "ym2612"
    },
    {
      "channel": 2,
      "note": 53,
      "start": 57.6368,
      "duration": 0.1878,
      "velocity": 127,
      "chip": "ym2612"
    },
    {
      "channel": 0,
      "note": 39,
      "start": 57.6418,
      "duration": 0.0031,
      "velocity": 102,
      "chip": "ym2612"
    },
    {
      "channel": 0,
      "note": 33,
      "start": 57.6493,
      "duration": 0.0918,
      "velocity": 102,
      "chip": "ym2612"
    },
    {
      "channel": 5,
      "note": 52,
      "start": 57.8446,
      "duration": 0.2132,
      "velocity": 89,
      "chip": "ym2612"
    },
    {
      "channel": 0,
      "note": 79,
      "start": 57.8473,
      "duration": 0.0604,
      "velocity": 103,
      "chip": "ym2612"
    },
    {
      "channel": 4,
      "note": 79,
      "start": 57.8501,
      "duration": 0.2243,
      "velocity": 84,
      "chip": "ym2612"
    },
    {
      "channel": 2,
      "note": 49,
      "start": 57.854,
      "duration": 0.0373,
      "velocity": 106,
      "chip": "ym2612"
    },
    {
      "channel": 2,
      "note": 49,
      "start": 57.8966,
      "duration": 0.1279,
      "velocity": 106,
      "chip": "ym2612"
    },
    {
      "channel": 5,
      "note": 52,
      "start": 58.0777,
      "duration": 0.1968,
      "velocity": 89,
      "chip": "ym2612"
    },
    {
      "channel": 1,
      "note": 52,
      "start": 58.0811,
      "duration": 0.3767,
      "velocity": 97,
      "chip": "ym2612"
    },
    {
      "channel": 0,
      "note": 76,
      "start": 58.0834,
      "duration": 0.0409,
      "velocity": 103,
      "chip": "ym2612"
    },
    {
      "channel": 4,
      "note": 76,
      "start": 58.086,
      "duration": 0.2051,
      "velocity": 84,
      "chip": "ym2612"
    },
    {
      "channel": 2,
      "note": 39,
      "start": 58.0893,
      "duration": 0.003,
      "velocity": 102,
      "chip": "ym2612"
    },
    {
      "channel": 2,
      "note": 33,
      "start": 58.097,
      "duration": 0.0776,
      "velocity": 102,
      "chip": "ym2612"
    },
    {
      "channel": 5,
      "note": 52,
      "start": 58.2944,
      "duration": 0.1968,
      "velocity": 89,
      "chip": "ym2612"
    },
    {
      "channel": 0,
      "note": 71,
      "start": 58.297,
      "duration": 0.0441,
      "velocity": 103,
      "chip": "ym2612"
    },
    {
      "channel": 4,
      "note": 71,
      "start": 58.2995,
      "duration": 0.2084,
      "velocity": 84,
      "chip": "ym2612"
    },
    {
      "channel": 2,
      "note": 49,
      "start": 58.3033,
      "duration": 0.007,
      "velocity": 106,
      "chip": "ym2612"
    },
    {
      "channel": 2,
      "note": 49,
      "start": 58.313,
      "duration": 0.045,
      "velocity": 95,
      "chip": "ym2612"
    },
    {
      "channel": 2,
      "note": 49,
      "start": 58.3957,
      "duration": 0.0289,
      "velocity": 95,
      "chip": "ym2612"
    },
    {
      "channel": 2,
      "note": 49,
      "start": 58.4456,
      "duration": 0.0457,
      "velocity": 95,
      "chip": "ym2612"
    },
    {
      "channel": 3,
      "note": 48,
      "start": 58.512,
      "duration": 1.6125,
      "velocity": 110,
      "chip": "ym2612"
    },
    {
      "channel": 0,
      "note": 70,
      "start": 58.5151,
      "duration": 0.2093,
      "velocity": 118,
      "chip": "ym2612"
    },
    {
      "channel": 5,
      "note": 48,
      "start": 58.5178,
      "duration": 0.2069,
      "velocity": 89,
      "chip": "ym2612"
    },
    {
      "channel": 1,
      "note": 51,
      "start": 58.5211,
      "duration": 0.2366,
      "velocity": 97,
      "chip": "ym2612"
    },
    {
      "channel": 2,
      "note": 60,
      "start": 58.5244,
      "duration": 0.0036,
      "velocity": 103,
      "chip": "ym2612"
    },
    {
      "channel": 4,
      "note": 60,
      "start": 58.527,
      "duration": 0.2143,
      "velocity": 84,
      "chip": "ym2612"
    },
    {
      "channel": 2,
      "note": 49,
      "start": 58.5306,
      "duration": 0.1606,
      "velocity": 95,
      "chip": "ym2612"
    },
    {
      "channel": 5,
      "note": 48,
      "start": 58.7468,
      "duration": 0.0336,
      "velocity": 89,
      "chip": "ym2612"
    },
    {
      "channel": 2,
      "note": 67,
      "start": 58.75,
      "duration": 0.0415,
      "velocity": 103,
      "chip": "ym2612"
    },
    {
      "channel": 4,
      "note": 74,
      "start": 58.7529,
      "duration": 0.855,
      "velocity": 84,
      "chip": "ym2612"
    },
    {
      "channel": 0,
      "note": 33,
      "start": 58.7557,
      "duration": 0.1854,
      "velocity": 124,
      "chip": "ym2612"
    },
    {
      "channel": 1,
      "note": 39,
      "start": 58.7596,
      "duration": 0.0029,
      "velocity": 102,
      "chip": "ym2612"
    },
    {
      "channel": 1,
      "note": 67,
      "start": 58.7783,
      "duration": 0.1296,
      "velocity": 103,
      "chip": "ym2612"
    },
    {
      "channel": 5,
      "note": 33,
      "start": 58.7823,
      "duration": 0.059,
      "velocity": 102,
      "chip": "ym2612"
    },
    {
      "channel": 2,
      "note": 48,
      "start": 58.9613,
      "duration": 0.1967,
      "velocity": 89,
      "chip": "ym2612"
    },
    {
      "channel": 5,
      "note": 53,
      "start": 58.9651,
      "duration": 0.3763,
      "velocity": 97,
      "chip": "ym2612"
    },
    {
      "channel": 1,
      "note": 72,
      "start": 58.968,
      "duration": 0.023,
      "velocity": 103,
      "chip": "ym2612"
    },
    {
      "channel": 0,
      "note": 39,
      "start": 58.9717,
      "duration": 0.0039,
      "velocity": 102,
      "chip": "ym2612"
    },
    {
      "channel": 0,
      "note": 33,
      "start": 58.98,
      "duration": 0.0944,
      "velocity": 102,
      "chip": "ym2612"
    },
    {
      "channel": 1,
      "note": 72,
      "start": 58.9949,
      "duration": 0.1296,
      "velocity": 103,
      "chip": "ym2612"
    },
    {
      "channel": 2,
      "note": 48,
      "start": 59.1778,
      "duration": 0.0049,
      "velocity": 89,
      "chip": "ym2612"
    },
    {
      "channel": 0,
      "note": 75,
      "start": 59.1814,
      "duration": 0.0265,
      "velocity": 103,
      "chip": "ym2612"
    },
    {
      "channel": 2,
      "note": 49,
      "start": 59.1854,
      "duration": 0.0228,
      "velocity": 106,
      "chip": "ym2612"
    },
    {
      "channel": 1,
      "note": 75,
      "start": 59.2116,
      "duration": 0.1297,
      "velocity": 103,
      "chip": "ym2612"
    },
    {
      "channel": 2,
      "note": 49,
      "start": 59.2162,
      "duration": 0.1254,
      "velocity": 106,
      "chip": "ym2612"
    },
    {
      "channel": 0,
      "note": 48,
      "start": 59.4116,
      "duration": 0.1961,
      "velocity": 89,
      "chip": "ym2612"
    },
    {
      "channel": 5,
      "note": 55,
      "start": 59.415,
      "duration": 0.376,
      "velocity": 97,
      "chip": "ym2612"
    },
    {
      "channel": 1,
      "note": 79,
      "start": 59.4184,
      "duration": 0.0226,
      "velocity": 103,
      "chip": "ym2612"
    },
    {
      "channel": 2,
      "note": 53,
      "start": 59.4218,
      "duration": 0.1863,
      "velocity": 127,
      "chip": "ym2612"
    },
    {
      "channel": 1,
      "note": 79,
      "start": 59.4452,
      "duration": 0.1124,
      "velocity": 103,
      "chip": "ym2612"
    },
    {
      "channel": 0,
      "note": 48,
      "start": 59.6275,
      "duration": 0.1967,
      "velocity": 89,
      "chip": "ym2612"
    },
    {
      "channel": 1,
      "note": 75,
      "start": 59.6314,
      "duration": 0.0262,
      "velocity": 103,
      "chip": "ym2612"
    },
    {
      "channel": 4,
      "note": 75,
      "start": 59.6346,
      "duration": 0.2063,
      "velocity": 84,
      "chip": "ym2612"
    },
    {
      "channel": 2,
      "note": 39,
      "start": 59.6379,
      "duration": 0.0034,
      "velocity": 102,
      "chip": "ym2612"
    },
    {
      "channel": 2,
      "note": 75,
      "start": 59.6615,
      "duration": 0.1297,
      "velocity": 103,
      "chip": "ym2612"
    },
    {
      "channel": 1,
      "note": 33,
      "start": 59.6655,
      "duration": 0.0588,
      "velocity": 102,
      "chip": "ym2612"
    },
    {
      "channel": 0,
      "note": 48,
      "start": 59.8441,
      "duration": 0.1968,
      "velocity": 89,
      "chip": "ym2612"
    },
    {
      "channel": 5,
      "note": 57,
      "start": 59.8479,
      "duration": 0.3767,
      "velocity": 97,
      "chip": "ym2612"
    },
    {
      "channel": 1,
      "note": 72,
      "start": 59.8514,
      "duration": 0.0229,
      "velocity": 103,
      "chip": "ym2612"
    },
    {
      "channel": 4,
      "note": 72,
      "start": 59.854,
      "duration": 0.1871,
      "velocity": 84,
      "chip": "ym2612"
    },
    {
      "channel": 2,
      "note": 39,
      "start": 59.8584,
      "duration": 0.0024,
      "velocity": 102,
      "chip": "ym2612"
    },
    {
      "channel": 2,
      "note": 72,
      "start": 59.8785,
      "duration": 0.1292,
      "velocity": 103,
      "chip": "ym2612"
    },
    {
      "channel": 1,
      "note": 33,
      "start": 59.8827,
      "duration": 0.0748,
      "velocity": 102,
      "chip": "ym2612"
    },
    {
      "channel": 0,
      "note": 48,
      "start": 60.0606,
      "duration": 0.2137,
      "velocity": 89,
      "chip": "ym2612"
    },
    {
      "channel": 4,
      "note": 67,
      "start": 60.0646,
      "duration": 0.2265,
      "velocity": 84,
      "chip": "ym2612"
    },
    {
      "channel": 1,
      "note": 53,
      "start": 60.0675,
      "duration": 0.2069,
      "velocity": 127,
      "chip": "ym2612"
    },
    {
      "channel": 2,
      "note": 49,
      "start": 60.0722,
      "duration": 0.0357,
      "velocity": 106,
      "chip": "ym2612"
    },
    {
      "channel": 2,
      "note": 49,
      "start": 60.1136,
      "duration": 0.1111,
      "velocity": 106,
      "chip": "ym2612"
    },
    {
      "channel": 3,
      "note": 64,
      "start": 60.2964,
      "duration": 1.6281,
      "velocity": 110,
      "chip": "ym2612"
    },
    {
      "channel": 5,
      "note": 71,
      "start": 60.3033,
      "duration": 1.6712,
      "velocity": 110,
      "chip": "ym2612"
    },
    {
      "channel": 0,
      "note": 52,
      "start": 60.3059,
      "duration": 0.185,
      "velocity": 89,
      "chip": "ym2612"
    },
    {
      "channel": 2,
      "note": 59,
      "start": 60.3096,
      "duration": 0.365,
      "velocity": 97,
      "chip": "ym2612"
    },
    {
      "channel": 0,
      "note": 52,
      "start": 60.5108,
      "duration": 0.1969,
      "velocity": 89,
      "chip": "ym2612"
    },
    {
      "channel": 1,
      "note": 33,
      "start": 60.5138,
      "duration": 0.1941,
      "velocity": 124,
      "chip": "ym2612"
    },
    {
      "channel": 4,
      "note": 75,
      "start": 60.7285,
      "duration": 0.4294,
      "velocity": 118,
      "chip": "ym2612"
    },
    {
      "channel": 0,
      "note": 52,
      "start": 60.7309,
      "duration": 0.1933,
      "velocity": 89,
      "chip": "ym2612"
    },
    {
      "channel": 2,
      "note": 76,
      "start": 60.7339,
      "duration": 0.4242,
      "velocity": 97,
      "chip": "ym2612"
    },
    {
      "channel": 0,
      "note": 52,
      "start": 60.9627,
      "duration": 0.1949,
      "velocity": 89,
      "chip": "ym2612"
    },
    {
      "channel": 4,
      "note": 74,
      "start": 61.1776,
      "duration": 0.4137,
      "velocity": 118,
      "chip": "ym2612"
    },
    {
      "channel": 0,
      "note": 52,
      "start": 61.18,
      "duration": 0.1943,
      "velocity": 89,
      "chip": "ym2612"
    },
    {
      "channel": 2,
      "note": 75,
      "start": 61.1828,
      "duration": 0.4086,
      "velocity": 97,
      "chip": "ym2612"
    },
    {
      "channel": 1,
      "note": 53,
      "start": 61.1857,
      "duration": 0.1888,
      "velocity": 127,
      "chip": "ym2612"
    },
    {
      "channel": 0,
      "note": 52,
      "start": 61.3957,
      "duration": 0.1953,
      "velocity": 89,
      "chip": "ym2612"
    },
    {
      "channel": 4,
      "note": 71,
      "start": 61.6108,
      "duration": 0.4305,
      "velocity": 118,
      "chip": "ym2612"
    },
    {
      "channel": 0,
      "note": 52,
      "start": 61.6133,
      "duration": 0.211,
      "velocity": 89,
      "chip": "ym2612"
    },
    {
      "channel": 2,
      "note": 74,
      "start": 61.6161,
      "duration": 0.2309,
      "velocity": 97,
      "chip": "ym2612"
    },
    {
      "channel": 0,
      "note": 52,
      "start": 61.8458,
      "duration": 0.1953,
      "velocity": 89,
      "chip": "ym2612"
    },
    {
      "channel": 2,
      "note": 49,
      "start": 61.8497,
      "duration": 0.1249,
      "velocity": 95,
      "chip": "ym2612"
    },
    {
      "channel": 3,
      "note": 65,
      "start": 62.0612,
      "duration": 0.73,
      "velocity": 110,
      "chip": "ym2612"
    },
    {
      "channel": 5,
      "note": 72,
      "start": 62.0651,
      "duration": 0.7095,
      "velocity": 110,
      "chip": "ym2612"
    },
    {
      "channel": 4,
      "note": 72,
      "start": 62.0678,
      "duration": 0.4236,
      "velocity": 118,
      "chip": "ym2612"
    },
    {
      "channel": 0,
      "note": 52,
      "start": 62.0703,
      "duration": 0.1873,
      "velocity": 89,
      "chip": "ym2612"
    },
    {
      "channel": 1,
      "note": 73,
      "start": 62.0737,
      "duration": 0.4175,
      "velocity": 97,
      "chip": "ym2612"
    },
    {
      "channel": 2,
      "note": 49,
      "start": 62.0779,
      "duration": 0.1801,
      "velocity": 95,
      "chip": "ym2612"
    },
    {
      "channel": 0,
      "note": 52,
      "start": 62.2792,
      "duration": 0.2119,
      "velocity": 89,
      "chip": "ym2612"
    },
    {
      "channel": 2,
      "note": 33,
      "start": 62.2823,
      "duration": 0.2093,
      "velocity": 124,
      "chip": "ym2612"
    },
    {
      "channel": 4,
      "note": 71,
      "start": 62.511,
      "duration": 0.4137,
      "velocity": 118,
      "chip": "ym2612"
    },
    {
      "channel": 0,
      "note": 52,
      "start": 62.5134,
      "duration": 0.1943,
      "velocity": 89,
      "chip": "ym2612"
    },
    {
      "channel": 1,
      "note": 72,
      "start": 62.516,
      "duration": 0.4086,
      "velocity": 97,
      "chip": "ym2612"
    },
    {
      "channel": 0,
      "note": 52,
      "start": 62.7292,
      "duration": 0.1953,
      "velocity": 89,
      "chip": "ym2612"
    },
    {
      "channel": 3,
      "note": 63,
      "start": 62.9444,
      "duration": 0.6636,
      "velocity": 110,
      "chip": "ym2612"
    },
    {
      "channel": 5,
      "note": 70,
      "start": 62.948,
      "duration": 0.6934,
      "velocity": 110,
      "chip": "ym2612"
    },
    {
      "channel": 4,
      "note": 67,
      "start": 62.9507,
      "duration": 0.424,
      "velocity": 118,
      "chip": "ym2612"
    },
    {
      "channel": 0,
      "note": 51,
      "start": 62.9535,
      "duration": 0.1875,
      "velocity": 89,
      "chip": "ym2612"
    },
    {
      "channel": 1,
      "note": 71,
      "start": 62.9564,
      "duration": 0.4181,
      "velocity": 97,
      "chip": "ym2612"
    },
    {
      "channel": 2,
      "note": 53,
      "start": 62.9598,
      "duration": 0.1815,
      "velocity": 127,
      "chip": "ym2612"
    },
    {
      "channel": 0,
      "note": 51,
      "start": 63.1795,
      "duration": 0.1949,
      "velocity": 89,
      "chip": "ym2612"
    },
    {
      "channel": 4,
      "note": 69,
      "start": 63.3942,
      "duration": 0.4138,
      "velocity": 118,
      "chip": "ym2612"
    },
    {
      "channel": 0,
      "note": 51,
      "start": 63.3968,
      "duration": 0.1943,
      "velocity": 89,
      "chip": "ym2612"
    },
    {
      "channel": 1,
      "note": 70,
      "start": 63.3993,
      "duration": 0.4085,
      "velocity": 97,
      "chip": "ym2612"
    },
    {
      "channel": 0,
      "note": 51,
      "start": 63.6125,
      "duration": 0.1952,
      "velocity": 89,
      "chip": "ym2612"
    },
    {
      "channel": 2,
      "note": 49,
      "start": 63.6293,
      "duration": 0.0621,
      "velocity": 95,
      "chip": "ym2612"
    },
    {
      "channel": 2,
      "note": 49,
      "start": 63.7125,
      "duration": 0.0289,
      "velocity": 95,
      "chip": "ym2612"
    },
    {
      "channel": 2,
      "note": 49,
      "start": 63.7625,
      "duration": 0.0457,
      "velocity": 95,
      "chip": "ym2612"
    },
    {
      "channel": 5,
      "note": 52,
      "start": 63.8311,
      "duration": 1.56,
      "velocity": 110,
      "chip": "ym2612"
    },
    {
      "channel": 4,
      "note": 71,
      "start": 63.8343,
      "duration": 1.757,
      "velocity": 118,
      "chip": "ym2612"
    },
    {
      "channel": 0,
      "note": 52,
      "start": 63.8368,
      "duration": 0.2042,
      "velocity": 89,
      "chip": "ym2612"
    },
    {
      "channel": 1,
      "note": 69,
      "start": 63.8405,
      "duration": 0.3838,
      "velocity": 97,
      "chip": "ym2612"
    },
    {
      "channel": 2,
      "note": 49,
      "start": 63.8444,
      "duration": 0.1803,
      "velocity": 95,
      "chip": "ym2612"
    },
    {
      "channel": 0,
      "note": 52,
      "start": 64.0631,
      "duration": 0.1946,
      "velocity": 89,
      "chip": "ym2612"
    },
    {
      "channel": 3,
      "note": 33,
      "start": 64.0662,
      "duration": 0.1917,
      "velocity": 124,
      "chip": "ym2612"
    },
    {
      "channel": 0,
      "note": 52,
      "start": 64.2776,
      "duration": 0.1967,
      "velocity": 89,
      "chip": "ym2612"
    },
    {
      "channel": 1,
      "note": 67,
      "start": 64.2803,
      "duration": 0.4277,
      "velocity": 97,
      "chip": "ym2612"
    },
    {
      "channel": 2,
      "note": 39,
      "start": 64.2839,
      "duration": 0.0076,
      "velocity": 102,
      "chip": "ym2612"
    },
    {
      "channel": 2,
      "note": 33,
      "start": 64.3123,
      "duration": 0.0791,
      "velocity": 102,
      "chip": "ym2612"
    },
    {
      "channel": 0,
      "note": 52,
      "start": 64.4943,
      "duration": 0.2136,
      "velocity": 89,
      "chip": "ym2612"
    },
    {
      "channel": 2,
      "note": 39,
      "start": 64.4983,
      "duration": 0.0099,
      "velocity": 102,
      "chip": "ym2612"
    },
    {
      "channel": 2,
      "note": 33,
      "start": 64.5126,
      "duration": 0.0954,
      "velocity": 102,
      "chip": "ym2612"
    },
    {
      "channel": 0,
      "note": 52,
      "start": 64.7275,
      "duration": 0.1968,
      "velocity": 89,
      "chip": "ym2612"
    },
    {
      "channel": 1,
      "note": 66,
      "start": 64.73,
      "duration": 0.4111,
      "velocity": 97,
      "chip": "ym2612"
    },
    {
      "channel": 3,
      "note": 53,
      "start": 64.7334,
      "duration": 0.1911,
      "velocity": 127,
      "chip": "ym2612"
    },
    {
      "channel": 0,
      "note": 52,
      "start": 64.9441,
      "duration": 0.1968,
      "velocity": 89,
      "chip": "ym2612"
    },
    {
      "channel": 2,
      "note": 49,
      "start": 64.9483,
      "duration": 0.0263,
      "velocity": 106,
      "chip": "ym2612"
    },
    {
      "channel": 2,
      "note": 49,
      "start": 64.98,
      "duration": 0.1445,
      "velocity": 106,
      "chip": "ym2612"
    },
    {
      "channel": 0,
      "note": 52,
      "start": 65.1608,
      "duration": 0.1968,
      "velocity": 89,
      "chip": "ym2612"
    },
    {
      "channel": 1,
      "note": 64,
      "start": 65.1633,
      "duration": 0.4279,
      "velocity": 97,
      "chip": "ym2612"
    },
    {
      "channel": 0,
      "note": 52,
      "start": 65.3942,
      "duration": 0.1969,
      "velocity": 89,
      "chip": "ym2612"
    },
    {
      "channel": 2,
      "note": 49,
      "start": 65.3984,
      "duration": 0.1595,
      "velocity": 95,
      "chip": "ym2612"
    },
    {
      "channel": 5,
      "note": 48,
      "start": 65.612,
      "duration": 1.596,
      "velocity": 110,
      "chip": "ym2612"
    },
    {
      "channel": 4,
      "note": 70,
      "start": 65.6146,
      "duration": 1.7433,
      "velocity": 118,
      "chip": "ym2612"
    },
    {
      "channel": 0,
      "note": 48,
      "start": 65.6171,
      "duration": 0.1905,
      "velocity": 89,
      "chip": "ym2612"
    },
    {
      "channel": 1,
      "note": 63,
      "start": 65.6197,
      "duration": 0.4049,
      "velocity": 97,
      "chip": "ym2612"
    },
    {
      "channel": 2,
      "note": 49,
      "start": 65.6241,
      "duration": 0.1839,
      "velocity": 95,
      "chip": "ym2612"
    },
    {
      "channel": 0,
      "note": 48,
      "start": 65.8292,
      "duration": 0.1952,
      "velocity": 89,
      "chip": "ym2612"
    },
    {
      "channel": 3,
      "note": 33,
      "start": 65.8321,
      "duration": 0.1926,
      "velocity": 124,
      "chip": "ym2612"
    },
    {
      "channel": 0,
      "note": 48,
      "start": 66.0442,
      "duration": 0.2135,
      "velocity": 89,
      "chip": "ym2612"
    },
    {
      "channel": 1,
      "note": 62,
      "start": 66.0468,
      "duration": 0.4278,
      "velocity": 97,
      "chip": "ym2612"
    },
    {
      "channel": 2,
      "note": 39,
      "start": 66.0503,
      "duration": 0.0244,
      "velocity": 102,
      "chip": "ym2612"
    },
    {
      "channel": 2,
      "note": 33,
      "start": 66.0955,
      "duration": 0.0625,
      "velocity": 102,
      "chip": "ym2612"
    },
    {
      "channel": 0,
      "note": 48,
      "start": 66.2776,
      "duration": 0.1968,
      "velocity": 89,
      "chip": "ym2612"
    },
    {
      "channel": 2,
      "note": 39,
      "start": 66.2812,
      "duration": 0.0102,
      "velocity": 102,
      "chip": "ym2612"
    },
    {
      "channel": 2,
      "note": 33,
      "start": 66.2961,
      "duration": 0.0785,
      "velocity": 102,
      "chip": "ym2612"
    },
    {
      "channel": 0,
      "note": 48,
      "start": 66.4946,
      "duration": 0.1964,
      "velocity": 89,
      "chip": "ym2612"
    },
    {
      "channel": 1,
      "note": 60,
      "start": 66.4971,
      "duration": 0.4273,
      "velocity": 97,
      "chip": "ym2612"
    },
    {
      "channel": 3,
      "note": 53,
      "start": 66.5,
      "duration": 0.1911,
      "velocity": 127,
      "chip": "ym2612"
    },
    {
      "channel": 0,
      "note": 48,
      "start": 66.7108,
      "duration": 0.2134,
      "velocity": 89,
      "chip": "ym2612"
    },
    {
      "channel": 2,
      "note": 49,
      "start": 66.715,
      "duration": 0.0429,
      "velocity": 106,
      "chip": "ym2612"
    },
    {
      "channel": 2,
      "note": 49,
      "start": 66.7628,
      "duration": 0.1117,
      "velocity": 106,
      "chip": "ym2612"
    },
    {
      "channel": 0,
      "note": 48,
      "start": 66.944,
      "duration": 0.1969,
      "velocity": 89,
      "chip": "ym2612"
    },
    {
      "channel": 1,
      "note": 58,
      "start": 66.9469,
      "duration": 0.4109,
      "velocity": 97,
      "chip": "ym2612"
    },
    {
      "channel": 3,
      "note": 39,
      "start": 66.9504,
      "duration": 0.0073,
      "velocity": 102,
      "chip": "ym2612"
    },
    {
      "channel": 3,
      "note": 33,
      "start": 66.9787,
      "duration": 0.0623,
      "velocity": 102,
      "chip": "ym2612"
    },
    {
      "channel": 0,
      "note": 48,
      "start": 67.1608,
      "duration": 0.1968,
      "velocity": 89,
      "chip": "ym2612"
    },
    {
      "channel": 2,
      "note": 49,
      "start": 67.1647,
      "duration": 0.1265,
      "velocity": 95,
      "chip": "ym2612"
    },
    {
      "channel": 5,
      "note": 52,
      "start": 67.3799,
      "duration": 1.5446,
      "velocity": 110,
      "chip": "ym2612"
    },
    {
      "channel": 4,
      "note": 71,
      "start": 67.3826,
      "duration": 1.7587,
      "velocity": 118,
      "chip": "ym2612"
    },
    {
      "channel": 0,
      "note": 52,
      "start": 67.3851,
      "duration": 0.1892,
      "velocity": 89,
      "chip": "ym2612"
    },
    {
      "channel": 3,
      "note": 81,
      "start": 67.3909,
      "duration": 0.0503,
      "velocity": 97,
      "chip": "ym2612"
    },
    {
      "channel": 2,
      "note": 49,
      "start": 67.3946,
      "duration": 0.1802,
      "velocity": 95,
      "chip": "ym2612"
    },
    {
      "channel": 3,
      "note": 74,
      "start": 67.4613,
      "duration": 0.0465,
      "velocity": 97,
      "chip": "ym2612"
    },
    {
      "channel": 3,
      "note": 81,
      "start": 67.5279,
      "duration": 0.0466,
      "velocity": 97,
      "chip": "ym2612"
    },
    {
      "channel": 0,
      "note": 52,
      "start": 67.6124,
      "duration": 0.1953,
      "velocity": 89,
      "chip": "ym2612"
    },
    {
      "channel": 3,
      "note": 74,
      "start": 67.6151,
      "duration": 0.0427,
      "velocity": 97,
      "chip": "ym2612"
    },
    {
      "channel": 1,
      "note": 33,
      "start": 67.6183,
      "duration": 0.1896,
      "velocity": 124,
      "chip": "ym2612"
    },
    {
      "channel": 2,
      "note": 39,
      "start": 67.6218,
      "duration": 0.0038,
      "velocity": 102,
      "chip": "ym2612"
    },
    {
      "channel": 2,
      "note": 33,
      "start": 67.6458,
      "duration": 0.0622,
      "velocity": 102,
      "chip": "ym2612"
    },
    {
      "channel": 3,
      "note": 81,
      "start": 67.678,
      "duration": 0.0466,
      "velocity": 97,
      "chip": "ym2612"
    },
    {
      "channel": 3,
      "note": 74,
      "start": 67.7447,
      "duration": 0.0633,
      "velocity": 97,
      "chip": "ym2612"
    },
    {
      "channel": 0,
      "note": 52,
      "start": 67.8276,
      "duration": 0.1967,
      "velocity": 89,
      "chip": "ym2612"
    },
    {
      "channel": 3,
      "note": 79,
      "start": 67.8303,
      "duration": 0.0442,
      "velocity": 97,
      "chip": "ym2612"
    },
    {
      "channel": 2,
      "note": 39,
      "start": 67.8336,
      "duration": 0.0079,
      "velocity": 102,
      "chip": "ym2612"
    },
    {
      "channel": 2,
      "note": 33,
      "start": 67.8458,
      "duration": 0.0955,
      "velocity": 102,
      "chip": "ym2612"
    },
    {
      "channel": 3,
      "note": 71,
      "start": 67.8947,
      "duration": 0.0632,
      "velocity": 97,
      "chip": "ym2612"
    },
    {
      "channel": 3,
      "note": 79,
      "start": 67.978,
      "duration": 0.0465,
      "velocity": 97,
      "chip": "ym2612"
    },
    {
      "channel": 0,
      "note": 52,
      "start": 68.0442,
      "duration": 0.1968,
      "velocity": 89,
      "chip": "ym2612"
    },
    {
      "channel": 3,
      "note": 71,
      "start": 68.047,
      "duration": 0.0444,
      "velocity": 97,
      "chip": "ym2612"
    },
    {
      "channel": 2,
      "note": 49,
      "start": 68.0509,
      "duration": 0.0238,
      "velocity": 106,
      "chip": "ym2612"
    },
    {
      "channel": 2,
      "note": 49,
      "start": 68.0797,
      "duration": 0.145,
      "velocity": 106,
      "chip": "ym2612"
    },
    {
      "channel": 3,
      "note": 79,
      "start": 68.1281,
      "duration": 0.0466,
      "velocity": 97,
      "chip": "ym2612"
    },
    {
      "channel": 3,
      "note": 71,
      "start": 68.1947,
      "duration": 0.0465,
      "velocity": 97,
      "chip": "ym2612"
    },
    {
      "channel": 0,
      "note": 52,
      "start": 68.2609,
      "duration": 0.2135,
      "velocity": 89,
      "chip": "ym2612"
    },
    {
      "channel": 3,
      "note": 78,
      "start": 68.2648,
      "duration": 0.0597,
      "velocity": 97,
      "chip": "ym2612"
    },
    {
      "channel": 1,
      "note": 53,
      "start": 68.2674,
      "duration": 0.2071,
      "velocity": 127,
      "chip": "ym2612"
    },
    {
      "channel": 2,
      "note": 39,
      "start": 68.2721,
      "duration": 0.0193,
      "velocity": 102,
      "chip": "ym2612"
    },
    {
      "channel": 2,
      "note": 33,
      "start": 68.2958,
      "duration": 0.0788,
      "velocity": 102,
      "chip": "ym2612"
    },
    {
      "channel": 3,
      "note": 67,
      "start": 68.3447,
      "duration": 0.0464,
      "velocity": 97,
      "chip": "ym2612"
    },
    {
      "channel": 3,
      "note": 78,
      "start": 68.4114,
      "duration": 0.0633,
      "velocity": 97,
      "chip": "ym2612"
    },
    {
      "channel": 0,
      "note": 52,
      "start": 68.4942,
      "duration": 0.1967,
      "velocity": 89,
      "chip": "ym2612"
    },
    {
      "channel": 3,
      "note": 67,
      "start": 68.497,
      "duration": 0.0441,
      "velocity": 97,
      "chip": "ym2612"
    },
    {
      "channel": 2,
      "note": 49,
      "start": 68.5012,
      "duration": 0.0233,
      "velocity": 106,
      "chip": "ym2612"
    },
    {
      "channel": 2,
      "note": 49,
      "start": 68.5295,
      "duration": 0.145,
      "velocity": 106,
      "chip": "ym2612"
    },
    {
      "channel": 3,
      "note": 78,
      "start": 68.5613,
      "duration": 0.063,
      "velocity": 97,
      "chip": "ym2612"
    },
    {
      "channel": 3,
      "note": 67,
      "start": 68.6446,
      "duration": 0.0465,
      "velocity": 97,
      "chip": "ym2612"
    },
    {
      "channel": 0,
      "note": 52,
      "start": 68.7108,
      "duration": 0.1968,
      "velocity": 89,
      "chip": "ym2612"
    },
    {
      "channel": 3,
      "note": 76,
      "start": 68.7136,
      "duration": 0.0442,
      "velocity": 97,
      "chip": "ym2612"
    },
    {
      "channel": 1,
      "note": 39,
      "start": 68.7168,
      "duration": 0.0076,
      "velocity": 102,
      "chip": "ym2612"
    },
    {
      "channel": 1,
      "note": 33,
      "start": 68.7287,
      "duration": 0.0957,
      "velocity": 102,
      "chip": "ym2612"
    },
    {
      "channel": 3,
      "note": 66,
      "start": 68.778,
      "duration": 0.0632,
      "velocity": 97,
      "chip": "ym2612"
    },
    {
      "channel": 3,
      "note": 76,
      "start": 68.8613,
      "duration": 0.0465,
      "velocity": 97,
      "chip": "ym2612"
    },
    {
      "channel": 0,
      "note": 52,
      "start": 68.9276,
      "duration": 0.2134,
      "velocity": 89,
      "chip": "ym2612"
    },
    {
      "channel": 3,
      "note": 66,
      "start": 68.9303,
      "duration": 0.0609,
      "velocity": 97,
      "chip": "ym2612"
    },
    {
      "channel": 2,
      "note": 49,
      "start": 68.9342,
      "duration": 0.0093,
      "velocity": 106,
      "chip": "ym2612"
    },
    {
      "channel": 2,
      "note": 49,
      "start": 68.9461,
      "duration": 0.0618,
      "velocity": 95,
      "chip": "ym2612"
    },
    {
      "channel": 3,
      "note": 76,
      "start": 69.0114,
      "duration": 0.0464,
      "velocity": 97,
      "chip": "ym2612"
    },
    {
      "channel": 2,
      "note": 49,
      "start": 69.029,
      "duration": 0.029,
      "velocity": 95,
      "chip": "ym2612"
    },
    {
      "channel": 3,
      "note": 66,
      "start": 69.0779,
      "duration": 0.0632,
      "velocity": 97,
      "chip": "ym2612"
    },
    {
      "channel": 2,
      "note": 49,
      "start": 69.0815,
      "duration": 0.06,
      "velocity": 95,
      "chip": "ym2612"
    },
    {
      "channel": 5,
      "note": 48,
      "start": 69.162,
      "duration": 1.596,
      "velocity": 110,
      "chip": "ym2612"
    },
    {
      "channel": 4,
      "note": 70,
      "start": 69.1655,
      "duration": 2.6256,
      "velocity": 118,
      "chip": "ym2612"
    },
    {
      "channel": 0,
      "note": 48,
      "start": 69.1681,
      "duration": 0.1895,
      "velocity": 89,
      "chip": "ym2612"
    },
    {
      "channel": 3,
      "note": 75,
      "start": 69.1721,
      "duration": 0.0072,
      "velocity": 97,
      "chip": "ym2612"
    },
    {
      "channel": 2,
      "note": 49,
      "start": 69.1763,
      "duration": 0.165,
      "velocity": 95,
      "chip": "ym2612"
    },
    {
      "channel": 3,
      "note": 72,
      "start": 69.1947,
      "duration": 0.0131,
      "velocity": 97,
      "chip": "ym2612"
    },
    {
      "channel": 3,
      "note": 67,
      "start": 69.228,
      "duration": 0.0133,
      "velocity": 97,
      "chip": "ym2612"
    },
    {
      "channel": 3,
      "note": 70,
      "start": 69.2613,
      "duration": 0.0133,
      "velocity": 97,
      "chip": "ym2612"
    },
    {
      "channel": 3,
      "note": 75,
      "start": 69.3113,
      "duration": 0.0132,
      "velocity": 97,
      "chip": "ym2612"
    },
    {
      "channel": 3,
      "note": 72,
      "start": 69.3448,
      "duration": 0.013,
      "velocity": 97,
      "chip": "ym2612"
    },
    {
      "channel": 0,
      "note": 48,
      "start": 69.3799,
      "duration": 0.1946,
      "velocity": 89,
      "chip": "ym2612"
    },
    {
      "channel": 3,
      "note": 67,
      "start": 69.3827,
      "duration": 0.0097,
      "velocity": 97,
      "chip": "ym2612"
    },
    {
      "channel": 1,
      "note": 33,
      "start": 69.3854,
      "duration": 0.1892,
      "velocity": 124,
      "chip": "ym2612"
    },
    {
      "channel": 2,
      "note": 39,
      "start": 69.3886,
      "duration": 0.0039,
      "velocity": 102,
      "chip": "ym2612"
    },
    {
      "channel": 3,
      "note": 70,
      "start": 69.4115,
      "duration": 0.0131,
      "velocity": 97,
      "chip": "ym2612"
    },
    {
      "channel": 2,
      "note": 33,
      "start": 69.4148,
      "duration": 0.0765,
      "velocity": 102,
      "chip": "ym2612"
    },
    {
      "channel": 3,
      "note": 75,
      "start": 69.4447,
      "duration": 0.0131,
      "velocity": 97,
      "chip": "ym2612"
    },
    {
      "channel": 3,
      "note": 72,
      "start": 69.4948,
      "duration": 0.0133,
      "velocity": 97,
      "chip": "ym2612"
    },
    {
      "channel": 3,
      "note": 67,
      "start": 69.5281,
      "duration": 0.0132,
      "velocity": 97,
      "chip": "ym2612"
    },
    {
      "channel": 3,
      "note": 70,
      "start": 69.5615,
      "duration": 0.0133,
      "velocity": 97,
      "chip": "ym2612"
    },
    {
      "channel": 0,
      "note": 48,
      "start": 69.5943,
      "duration": 0.1968,
      "velocity": 89,
      "chip": "ym2612"
    },
    {
      "channel": 3,
      "note": 77,
      "start": 69.597,
      "duration": 0.0109,
      "velocity": 97,
      "chip": "ym2612"
    },
    {
      "channel": 2,
      "note": 39,
      "start": 69.6003,
      "duration": 0.008,
      "velocity": 102,
      "chip": "ym2612"
    },
    {
      "channel": 2,
      "note": 33,
      "start": 69.6129,
      "duration": 0.095,
      "velocity": 102,
      "chip": "ym2612"
    },
    {
      "channel": 3,
      "note": 70,
      "start": 69.6284,
      "duration": 0.0295,
      "velocity": 97,
      "chip": "ym2612"
    },
    {
      "channel": 3,
      "note": 67,
      "start": 69.6781,
      "duration": 0.0131,
      "velocity": 97,
      "chip": "ym2612"
    },
    {
      "channel": 3,
      "note": 75,
      "start": 69.7114,
      "duration": 0.0132,
      "velocity": 97,
      "chip": "ym2612"
    },
    {
      "channel": 3,
      "note": 77,
      "start": 69.7447,
      "duration": 0.0131,
      "velocity": 97,
      "chip": "ym2612"
    },
    {
      "channel": 3,
      "note": 70,
      "start": 69.7781,
      "duration": 0.0132,
      "velocity": 97,
      "chip": "ym2612"
    },
    {
      "channel": 0,
      "note": 48,
      "start": 69.8276,
      "duration": 0.1969,
      "velocity": 89,
      "chip": "ym2612"
    },
    {
      "channel": 3,
      "note": 67,
      "start": 69.8304,
      "duration": 0.011,
      "velocity": 97,
      "chip": "ym2612"
    },
    {
      "channel": 2,
      "note": 49,
      "start": 69.8343,
      "duration": 0.0237,
      "velocity": 106,
      "chip": "ym2612"
    },
    {
      "channel": 3,
      "note": 75,
      "start": 69.8615,
      "duration": 0.013,
      "velocity": 97,
      "chip": "ym2612"
    },
    {
      "channel": 2,
      "note": 49,
      "start": 69.8654,
      "duration": 0.1261,
      "velocity": 106,
      "chip": "ym2612"
    },
    {
      "channel": 3,
      "note": 77,
      "start": 69.8948,
      "duration": 0.0131,
      "velocity": 97,
      "chip": "ym2612"
    },
    {
      "channel": 3,
      "note": 70,
      "start": 69.9288,
      "duration": 0.0125,
      "velocity": 97,
      "chip": "ym2612"
    },
    {
      "channel": 3,
      "note": 67,
      "start": 69.9614,
      "duration": 0.0299,
      "velocity": 97,
      "chip": "ym2612"
    },
    {
      "channel": 3,
      "note": 75,
      "start": 70.0114,
      "duration": 0.0133,
      "velocity": 97,
      "chip": "ym2612"
    },
    {
      "channel": 0,
      "note": 48,
      "start": 70.0447,
      "duration": 0.1963,
      "velocity": 89,
      "chip": "ym2612"
    },
    {
      "channel": 3,
      "note": 79,
      "start": 70.0478,
      "duration": 0.0103,
      "velocity": 97,
      "chip": "ym2612"
    },
    {
      "channel": 1,
      "note": 53,
      "start": 70.0505,
      "duration": 0.1907,
      "velocity": 127,
      "chip": "ym2612"
    },
    {
      "channel": 2,
      "note": 49,
      "start": 70.0541,
      "duration": 0.0205,
      "velocity": 106,
      "chip": "ym2612"
    },
    {
      "channel": 3,
      "note": 74,
      "start": 70.0781,
      "duration": 0.0131,
      "velocity": 97,
      "chip": "ym2612"
    },
    {
      "channel": 2,
      "note": 49,
      "start": 70.0823,
      "duration": 0.1257,
      "velocity": 106,
      "chip": "ym2612"
    },
    {
      "channel": 3,
      "note": 70,
      "start": 70.1113,
      "duration": 0.0131,
      "velocity": 97,
      "chip": "ym2612"
    },
    {
      "channel": 3,
      "note": 75,
      "start": 70.1446,
      "duration": 0.0299,
      "velocity": 97,
      "chip": "ym2612"
    },
    {
      "channel": 3,
      "note": 79,
      "start": 70.1946,
      "duration": 0.0132,
      "velocity": 97,
      "chip": "ym2612"
    },
    {
      "channel": 3,
      "note": 74,
      "start": 70.2279,
      "duration": 0.0134,
      "velocity": 97,
      "chip": "ym2612"
    },
    {
      "channel": 0,
      "note": 48,
      "start": 70.2608,
      "duration": 0.1968,
      "velocity": 89,
      "chip": "ym2612"
    },
    {
      "channel": 3,
      "note": 70,
      "start": 70.2635,
      "duration": 0.0109,
      "velocity": 97,
      "chip": "ym2612"
    },
    {
      "channel": 2,
      "note": 39,
      "start": 70.2669,
      "duration": 0.0078,
      "velocity": 102,
      "chip": "ym2612"
    },
    {
      "channel": 3,
      "note": 75,
      "start": 70.2947,
      "duration": 0.013,
      "velocity": 97,
      "chip": "ym2612"
    },
    {
      "channel": 2,
      "note": 33,
      "start": 70.298,
      "duration": 0.0765,
      "velocity": 102,
      "chip": "ym2612"
    },
    {
      "channel": 3,
      "note": 79,
      "start": 70.3447,
      "duration": 0.0129,
      "velocity": 97,
      "chip": "ym2612"
    },
    {
      "channel": 3,
      "note": 74,
      "start": 70.3779,
      "duration": 0.0132,
      "velocity": 97,
      "chip": "ym2612"
    },
    {
      "channel": 3,
      "note": 70,
      "start": 70.4112,
      "duration": 0.0131,
      "velocity": 97,
      "chip": "ym2612"
    },
    {
      "channel": 3,
      "note": 77,
      "start": 70.4449,
      "duration": 0.0128,
      "velocity": 97,
      "chip": "ym2612"
    },
    {
      "channel": 0,
      "note": 48,
      "start": 70.4773,
      "duration": 0.2136,
      "velocity": 89,
      "chip": "ym2612"
    },
    {
      "channel": 3,
      "note": 81,
      "start": 70.48,
      "duration": 0.0276,
      "velocity": 97,
      "chip": "ym2612"
    },
    {
      "channel": 2,
      "note": 39,
      "start": 70.4849,
      "duration": 0.023,
      "velocity": 102,
      "chip": "ym2612"
    },
    {
      "channel": 3,
      "note": 72,
      "start": 70.5278,
      "duration": 0.0131,
      "velocity": 97,
      "chip": "ym2612"
    },
    {
      "channel": 2,
      "note": 33,
      "start": 70.5316,
      "duration": 0.0595,
      "velocity": 102,
      "chip": "ym2612"
    },
    {
      "channel": 3,
      "note": 79,
      "start": 70.5612,
      "duration": 0.0132,
      "velocity": 97,
      "chip": "ym2612"
    },
    {
      "channel": 3,
      "note": 75,
      "start": 70.5946,
      "duration": 0.013,
      "velocity": 97,
      "chip": "ym2612"
    },
    {
      "channel": 3,
      "note": 81,
      "start": 70.6278,
      "duration": 0.0132,
      "velocity": 97,
      "chip": "ym2612"
    },
    {
      "channel": 3,
      "note": 72,
      "start": 70.678,
      "duration": 0.013,
      "velocity": 97,
      "chip": "ym2612"
    },
    {
      "channel": 0,
      "note": 48,
      "start": 70.7108,
      "duration": 0.1969,
      "velocity": 89,
      "chip": "ym2612"
    },
    {
      "channel": 3,
      "note": 79,
      "start": 70.7137,
      "duration": 0.0114,
      "velocity": 97,
      "chip": "ym2612"
    },
    {
      "channel": 1,
      "note": 53,
      "start": 70.7167,
      "duration": 0.1911,
      "velocity": 127,
      "chip": "ym2612"
    },
    {
      "channel": 2,
      "note": 49,
      "start": 70.7201,
      "duration": 0.1377,
      "velocity": 95,
      "chip": "ym2612"
    },
    {
      "channel": 3,
      "note": 75,
      "start": 70.7446,
      "duration": 0.0132,
      "velocity": 97,
      "chip": "ym2612"
    },
    {
      "channel": 3,
      "note": 81,
      "start": 70.7779,
      "duration": 0.0132,
      "velocity": 97,
      "chip": "ym2612"
    },
    {
      "channel": 3,
      "note": 72,
      "start": 70.8112,
      "duration": 0.0132,
      "velocity": 97,
      "chip": "ym2612"
    },
    {
      "channel": 3,
      "note": 79,
      "start": 70.8616,
      "duration": 0.0127,
      "velocity": 97,
      "chip": "ym2612"
    },
    {
      "channel": 3,
      "note": 75,
      "start": 70.8949,
      "duration": 0.013,
      "velocity": 97,
      "chip": "ym2612"
    },
    {
      "channel": 5,
      "note": 67,
      "start": 70.928,
      "duration": 3.53,
      "velocity": 110,
      "chip": "ym2612"
    },
    {
      "channel": 2,
      "note": 74,
      "start": 70.9348,
      "duration": 0.008,
      "velocity": 110,
      "chip": "ym2612"
    },
    {
      "channel": 0,
      "note": 55,
      "start": 70.9374,
      "duration": 0.187,
      "velocity": 89,
      "chip": "ym2612"
    },
    {
      "channel": 1,
      "note": 70,
      "start": 70.9411,
      "duration": 0.8333,
      "velocity": 97,
      "chip": "ym2612"
    },
    {
      "channel": 2,
      "note": 49,
      "start": 70.9454,
      "duration": 0.1626,
      "velocity": 95,
      "chip": "ym2612"
    },
    {
      "channel": 0,
      "note": 55,
      "start": 71.1443,
      "duration": 0.2134,
      "velocity": 89,
      "chip": "ym2612"
    },
    {
      "channel": 3,
      "note": 33,
      "start": 71.1474,
      "duration": 0.2105,
      "velocity": 124,
      "chip": "ym2612"
    },
    {
      "channel": 0,
      "note": 55,
      "start": 71.3777,
      "duration": 0.1967,
      "velocity": 89,
      "chip": "ym2612"
    },
    {
      "channel": 0,
      "note": 55,
      "start": 71.5942,
      "duration": 0.1967,
      "velocity": 89,
      "chip": "ym2612"
    },
    {
      "channel": 4,
      "note": 74,
      "start": 71.8111,
      "duration": 0.8635,
      "velocity": 118,
      "chip": "ym2612"
    },
    {
      "channel": 0,
      "note": 55,
      "start": 71.8136,
      "duration": 0.1939,
      "velocity": 89,
      "chip": "ym2612"
    },
    {
      "channel": 1,
      "note": 65,
      "start": 71.8162,
      "duration": 0.7582,
      "velocity": 97,
      "chip": "ym2612"
    },
    {
      "channel": 3,
      "note": 53,
      "start": 71.8192,
      "duration": 0.1885,
      "velocity": 127,
      "chip": "ym2612"
    },
    {
      "channel": 0,
      "note": 55,
      "start": 72.0465,
      "duration": 0.1944,
      "velocity": 89,
      "chip": "ym2612"
    },
    {
      "channel": 0,
      "note": 55,
      "start": 72.2608,
      "duration": 0.1968,
      "velocity": 89,
      "chip": "ym2612"
    },
    {
      "channel": 0,
      "note": 55,
      "start": 72.4775,
      "duration": 0.1968,
      "velocity": 89,
      "chip": "ym2612"
    },
    {
      "channel": 2,
      "note": 49,
      "start": 72.4814,
      "duration": 0.1265,
      "velocity": 95,
      "chip": "ym2612"
    },
    {
      "channel": 4,
      "note": 73,
      "start": 72.6942,
      "duration": 0.8803,
      "velocity": 118,
      "chip": "ym2612"
    },
    {
      "channel": 0,
      "note": 55,
      "start": 72.6966,
      "duration": 0.211,
      "velocity": 89,
      "chip": "ym2612"
    },
    {
      "channel": 1,
      "note": 64,
      "start": 72.6997,
      "duration": 0.8081,
      "velocity": 97,
      "chip": "ym2612"
    },
    {
      "channel": 2,
      "note": 49,
      "start": 72.7035,
      "duration": 0.2044,
      "velocity": 95,
      "chip": "ym2612"
    },
    {
      "channel": 0,
      "note": 55,
      "start": 72.929,
      "duration": 0.1953,
      "velocity": 89,
      "chip": "ym2612"
    },
    {
      "channel": 3,
      "note": 33,
      "start": 72.9323,
      "duration": 0.1921,
      "velocity": 124,
      "chip": "ym2612"
    },
    {
      "channel": 0,
      "note": 55,
      "start": 73.1442,
      "duration": 0.1968,
      "velocity": 89,
      "chip": "ym2612"
    },
    {
      "channel": 0,
      "note": 55,
      "start": 73.3609,
      "duration": 0.2134,
      "velocity": 89,
      "chip": "ym2612"
    },
    {
      "channel": 4,
      "note": 69,
      "start": 73.5941,
      "duration": 0.8638,
      "velocity": 118,
      "chip": "ym2612"
    },
    {
      "channel": 0,
      "note": 55,
      "start": 73.597,
      "duration": 0.194,
      "velocity": 89,
      "chip": "ym2612"
    },
    {
      "channel": 1,
      "note": 61,
      "start": 73.5997,
      "duration": 0.7247,
      "velocity": 97,
      "chip": "ym2612"
    },
    {
      "channel": 3,
      "note": 53,
      "start": 73.6026,
      "duration": 0.1885,
      "velocity": 127,
      "chip": "ym2612"
    },
    {
      "channel": 0,
      "note": 55,
      "start": 73.8124,
      "duration": 0.1952,
      "velocity": 89,
      "chip": "ym2612"
    },
    {
      "channel": 0,
      "note": 55,
      "start": 74.0275,
      "duration": 0.1968,
      "velocity": 89,
      "chip": "ym2612"
    },
    {
      "channel": 0,
      "note": 55,
      "start": 74.2608,
      "duration": 0.1969,
      "velocity": 89,
      "chip": "ym2612"
    },
    {
      "channel": 2,
      "note": 49,
      "start": 74.2791,
      "duration": 0.0455,
      "velocity": 95,
      "chip": "ym2612"
    },
    {
      "channel": 2,
      "note": 49,
      "start": 74.3458,
      "duration": 0.0289,
      "velocity": 95,
      "chip": "ym2612"
    },
    {
      "channel": 2,
      "note": 49,
      "start": 74.3961,
      "duration": 0.0621,
      "velocity": 95,
      "chip": "ym2612"
    },
    {
      "channel": 5,
      "note": 67,
      "start": 74.4774,
      "duration": 3.5139,
      "velocity": 110,
      "chip": "ym2612"
    },
    {
      "channel": 3,
      "note": 74,
      "start": 74.4811,
      "duration": 3.4932,
      "velocity": 110,
      "chip": "ym2612"
    },
    {
      "channel": 4,
      "note": 70,
      "start": 74.4843,
      "duration": 4.4069,
      "velocity": 118,
      "chip": "ym2612"
    },
    {
      "channel": 0,
      "note": 55,
      "start": 74.4868,
      "duration": 0.1877,
      "velocity": 89,
      "chip": "ym2612"
    },
    {
      "channel": 1,
      "note": 62,
      "start": 74.4905,
      "duration": 0.7676,
      "velocity": 97,
      "chip": "ym2612"
    },
    {
      "channel": 2,
      "note": 49,
      "start": 74.4944,
      "duration": 0.1637,
      "velocity": 95,
      "chip": "ym2612"
    },
    {
      "channel": 0,
      "note": 55,
      "start": 74.6965,
      "duration": 0.1946,
      "velocity": 89,
      "chip": "ym2612"
    },
    {
      "channel": 2,
      "note": 33,
      "start": 74.6996,
      "duration": 0.1918,
      "velocity": 124,
      "chip": "ym2612"
    },
    {
      "channel": 0,
      "note": 55,
      "start": 74.9109,
      "duration": 0.2136,
      "velocity": 89,
      "chip": "ym2612"
    },
    {
      "channel": 2,
      "note": 50,
      "start": 74.9145,
      "duration": 0.0012,
      "velocity": 102,
      "chip": "ym2612"
    },
    {
      "channel": 2,
      "note": 49,
      "start": 74.9185,
      "duration": 0.0396,
      "velocity": 106,
      "chip": "ym2612"
    },
    {
      "channel": 2,
      "note": 44,
      "start": 74.9625,
      "duration": 0.0008,
      "velocity": 102,
      "chip": "ym2612"
    },
    {
      "channel": 2,
      "note": 49,
      "start": 74.966,
      "duration": 0.1254,
      "velocity": 106,
      "chip": "ym2612"
    },
    {
      "channel": 0,
      "note": 55,
      "start": 75.1444,
      "duration": 0.1968,
      "velocity": 89,
      "chip": "ym2612"
    },
    {
      "channel": 0,
      "note": 55,
      "start": 75.3609,
      "duration": 0.1969,
      "velocity": 89,
      "chip": "ym2612"
    },
    {
      "channel": 2,
      "note": 53,
      "start": 75.3641,
      "duration": 0.1939,
      "velocity": 127,
      "chip": "ym2612"
    },
    {
      "channel": 0,
      "note": 55,
      "start": 75.5775,
      "duration": 0.2135,
      "velocity": 89,
      "chip": "ym2612"
    },
    {
      "channel": 1,
      "note": 44,
      "start": 75.5815,
      "duration": 0.0428,
      "velocity": 102,
      "chip": "ym2612"
    },
    {
      "channel": 2,
      "note": 49,
      "start": 75.5849,
      "duration": 0.0397,
      "velocity": 106,
      "chip": "ym2612"
    },
    {
      "channel": 1,
      "note": 38,
      "start": 75.6288,
      "duration": 0.1288,
      "velocity": 102,
      "chip": "ym2612"
    },
    {
      "channel": 2,
      "note": 49,
      "start": 75.6322,
      "duration": 0.1257,
      "velocity": 106,
      "chip": "ym2612"
    },
    {
      "channel": 0,
      "note": 55,
      "start": 75.8107,
      "duration": 0.1969,
      "velocity": 89,
      "chip": "ym2612"
    },
    {
      "channel": 0,
      "note": 55,
      "start": 76.0274,
      "duration": 0.1969,
      "velocity": 89,
      "chip": "ym2612"
    },
    {
      "channel": 2,
      "note": 49,
      "start": 76.0313,
      "duration": 0.1599,
      "velocity": 95,
      "chip": "ym2612"
    },
    {
      "channel": 0,
      "note": 55,
      "start": 76.2441,
      "duration": 0.1968,
      "velocity": 89,
      "chip": "ym2612"
    },
    {
      "channel": 2,
      "note": 49,
      "start": 76.2478,
      "duration": 0.1934,
      "velocity": 95,
      "chip": "ym2612"
    },
    {
      "channel": 0,
      "note": 55,
      "start": 76.4774,
      "duration": 0.1967,
      "velocity": 89,
      "chip": "ym2612"
    },
    {
      "channel": 0,
      "note": 55,
      "start": 76.6941,
      "duration": 0.1969,
      "velocity": 89,
      "chip": "ym2612"
    },
    {
      "channel": 1,
      "note": 50,
      "start": 76.6975,
      "duration": 0.0268,
      "velocity": 102,
      "chip": "ym2612"
    },
    {
      "channel": 2,
      "note": 49,
      "start": 76.701,
      "duration": 0.0237,
      "velocity": 106,
      "chip": "ym2612"
    },
    {
      "channel": 1,
      "note": 44,
      "start": 76.7288,
      "duration": 0.1456,
      "velocity": 102,
      "chip": "ym2612"
    },
    {
      "channel": 2,
      "note": 49,
      "start": 76.7322,
      "duration": 0.1425,
      "velocity": 106,
      "chip": "ym2612"
    },
    {
      "channel": 0,
      "note": 55,
      "start": 76.9108,
      "duration": 0.1969,
      "velocity": 89,
      "chip": "ym2612"
    },
    {
      "channel": 1,
      "note": 44,
      "start": 76.9142,
      "duration": 0.0268,
      "velocity": 102,
      "chip": "ym2612"
    },
    {
      "channel": 2,
      "note": 49,
      "start": 76.918,
      "duration": 0.0233,
      "velocity": 106,
      "chip": "ym2612"
    },
    {
      "channel": 1,
      "note": 38,
      "start": 76.9454,
      "duration": 0.1456,
      "velocity": 102,
      "chip": "ym2612"
    },
    {
      "channel": 2,
      "note": 49,
      "start": 76.9489,
      "duration": 0.1424,
      "velocity": 106,
      "chip": "ym2612"
    },
    {
      "channel": 0,
      "note": 55,
      "start": 77.1278,
      "duration": 0.2132,
      "velocity": 89,
      "chip": "ym2612"
    },
    {
      "channel": 1,
      "note": 33,
      "start": 77.1309,
      "duration": 0.2102,
      "velocity": 124,
      "chip": "ym2612"
    },
    {
      "channel": 2,
      "note": 49,
      "start": 77.1342,
      "duration": 0.2073,
      "velocity": 95,
      "chip": "ym2612"
    },
    {
      "channel": 0,
      "note": 55,
      "start": 77.3608,
      "duration": 0.197,
      "velocity": 89,
      "chip": "ym2612"
    },
    {
      "channel": 1,
      "note": 53,
      "start": 77.3649,
      "duration": 0.193,
      "velocity": 127,
      "chip": "ym2612"
    },
    {
      "channel": 0,
      "note": 55,
      "start": 77.5776,
      "duration": 0.1967,
      "velocity": 89,
      "chip": "ym2612"
    },
    {
      "channel": 2,
      "note": 40,
      "start": 77.5816,
      "duration": 0.0263,
      "velocity": 102,
      "chip": "ym2612"
    },
    {
      "channel": 2,
      "note": 34,
      "start": 77.6124,
      "duration": 0.1456,
      "velocity": 102,
      "chip": "ym2612"
    },
    {
      "channel": 0,
      "note": 55,
      "start": 77.7941,
      "duration": 0.1968,
      "velocity": 89,
      "chip": "ym2612"
    },
    {
      "channel": 2,
      "note": 49,
      "start": 77.7982,
      "duration": 0.1263,
      "velocity": 95,
      "chip": "ym2612"
    },
    {
      "channel": 5,
      "note": 67,
      "start": 78.0273,
      "duration": 3.514,
      "velocity": 110,
      "chip": "ym2612"
    },
    {
      "channel": 3,
      "note": 74,
      "start": 78.0308,
      "duration": 3.4935,
      "velocity": 110,
      "chip": "ym2612"
    },
    {
      "channel": 0,
      "note": 55,
      "start": 78.0334,
      "duration": 0.1908,
      "velocity": 89,
      "chip": "ym2612"
    },
    {
      "channel": 2,
      "note": 49,
      "start": 78.0374,
      "duration": 0.1872,
      "velocity": 95,
      "chip": "ym2612"
    },
    {
      "channel": 0,
      "note": 55,
      "start": 78.2442,
      "duration": 0.1969,
      "velocity": 89,
      "chip": "ym2612"
    },
    {
      "channel": 1,
      "note": 33,
      "start": 78.2471,
      "duration": 0.1941,
      "velocity": 124,
      "chip": "ym2612"
    },
    {
      "channel": 0,
      "note": 55,
      "start": 78.4608,
      "duration": 0.1969,
      "velocity": 89,
      "chip": "ym2612"
    },
    {
      "channel": 0,
      "note": 55,
      "start": 78.6774,
      "duration": 0.2135,
      "velocity": 89,
      "chip": "ym2612"
    },
    {
      "channel": 4,
      "note": 74,
      "start": 78.9115,
      "duration": 0.8632,
      "velocity": 118,
      "chip": "ym2612"
    },
    {
      "channel": 0,
      "note": 55,
      "start": 78.9139,
      "duration": 0.1937,
      "velocity": 89,
      "chip": "ym2612"
    },
    {
      "channel": 2,
      "note": 65,
      "start": 78.9169,
      "duration": 0.6763,
      "velocity": 97,
      "chip": "ym2612"
    },
    {
      "channel": 1,
      "note": 53,
      "start": 78.9198,
      "duration": 0.188,
      "velocity": 127,
      "chip": "ym2612"
    },
    {
      "channel": 0,
      "note": 55,
      "start": 79.1294,
      "duration": 0.1949,
      "velocity": 89,
      "chip": "ym2612"
    },
    {
      "channel": 0,
      "note": 55,
      "start": 79.3442,
      "duration": 0.2134,
      "velocity": 89,
      "chip": "ym2612"
    },
    {
      "channel": 0,
      "note": 55,
      "start": 79.5775,
      "duration": 0.1969,
      "velocity": 89,
      "chip": "ym2612"
    },
    {
      "channel": 2,
      "note": 49,
      "start": 79.5959,
      "duration": 0.0455,
      "velocity": 95,
      "chip": "ym2612"
    },
    {
      "channel": 2,
      "note": 49,
      "start": 79.6624,
      "duration": 0.0289,
      "velocity": 95,
      "chip": "ym2612"
    },
    {
      "channel": 2,
      "note": 49,
      "start": 79.729,
      "duration": 0.0458,
      "velocity": 95,
      "chip": "ym2612"
    },
    {
      "channel": 4,
      "note": 73,
      "start": 79.7942,
      "duration": 0.8637,
      "velocity": 118,
      "chip": "ym2612"
    },
    {
      "channel": 0,
      "note": 55,
      "start": 79.7967,
      "duration": 0.1942,
      "velocity": 89,
      "chip": "ym2612"
    },
    {
      "channel": 1,
      "note": 64,
      "start": 79.7995,
      "duration": 0.7916,
      "velocity": 97,
      "chip": "ym2612"
    },
    {
      "channel": 2,
      "note": 49,
      "start": 79.8037,
      "duration": 0.1709,
      "velocity": 95,
      "chip": "ym2612"
    },
    {
      "channel": 0,
      "note": 55,
      "start": 80.0124,
      "duration": 0.1952,
      "velocity": 89,
      "chip": "ym2612"
    },
    {
      "channel": 2,
      "note": 33,
      "start": 80.0156,
      "duration": 0.1924,
      "velocity": 124,
      "chip": "ym2612"
    },
    {
      "channel": 0,
      "note": 55,
      "start": 80.2442,
      "duration": 0.1969,
      "velocity": 89,
      "chip": "ym2612"
    },
    {
      "channel": 0,
      "note": 55,
      "start": 80.4608,
      "duration": 0.1968,
      "velocity": 89,
      "chip": "ym2612"
    },
    {
      "channel": 4,
      "note": 69,
      "start": 80.6774,
      "duration": 0.8637,
      "velocity": 118,
      "chip": "ym2612"
    },
    {
      "channel": 0,
      "note": 55,
      "start": 80.6803,
      "duration": 0.194,
      "velocity": 89,
      "chip": "ym2612"
    },
    {
      "channel": 1,
      "note": 61,
      "start": 80.6828,
      "duration": 0.7916,
      "velocity": 97,
      "chip": "ym2612"
    },
    {
      "channel": 2,
      "note": 53,
      "start": 80.686,
      "duration": 0.1887,
      "velocity": 127,
      "chip": "ym2612"
    },
    {
      "channel": 0,
      "note": 55,
      "start": 80.8957,
      "duration": 0.212,
      "velocity": 89,
      "chip": "ym2612"
    },
    {
      "channel": 0,
      "note": 55,
      "start": 81.1275,
      "duration": 0.1968,
      "velocity": 89,
      "chip": "ym2612"
    },
    {
      "channel": 0,
      "note": 55,
      "start": 81.3444,
      "duration": 0.08,
      "velocity": 89,
      "chip": "ym2612"
    },
    {
      "channel": 2,
      "note": 49,
      "start": 81.3482,
      "duration": 0.1431,
      "velocity": 95,
      "chip": "ym2612"
    },
    {
      "channel": 5,
      "note": 65,
      "start": 81.5616,
      "duration": 1.7631,
      "velocity": 110,
      "chip": "ym2612"
    },
    {
      "channel": 3,
      "note": 74,
      "start": 81.5661,
      "duration": 1.7417,
      "velocity": 110,
      "chip": "ym2612"
    },
    {
      "channel": 4,
      "note": 70,
      "start": 81.5687,
      "duration": 0.856,
      "velocity": 118,
      "chip": "ym2612"
    },
    {
      "channel": 0,
      "note": 53,
      "start": 81.5713,
      "duration": 0.2032,
      "velocity": 89,
      "chip": "ym2612"
    },
    {
      "channel": 1,
      "note": 62,
      "start": 81.5747,
      "duration": 0.7664,
      "velocity": 97,
      "chip": "ym2612"
    },
    {
      "channel": 2,
      "note": 49,
      "start": 81.5786,
      "duration": 0.1963,
      "velocity": 95,
      "chip": "ym2612"
    },
    {
      "channel": 0,
      "note": 53,
      "start": 81.7958,
      "duration": 0.1951,
      "velocity": 89,
      "chip": "ym2612"
    },
    {
      "channel": 2,
      "note": 33,
      "start": 81.799,
      "duration": 0.1924,
      "velocity": 124,
      "chip": "ym2612"
    },
    {
      "channel": 0,
      "note": 53,
      "start": 82.0109,
      "duration": 0.1967,
      "velocity": 89,
      "chip": "ym2612"
    },
    {
      "channel": 0,
      "note": 53,
      "start": 82.2276,
      "duration": 0.1968,
      "velocity": 89,
      "chip": "ym2612"
    },
    {
      "channel": 4,
      "note": 74,
      "start": 82.4608,
      "duration": 0.8637,
      "velocity": 118,
      "chip": "ym2612"
    },
    {
      "channel": 0,
      "note": 53,
      "start": 82.4633,
      "duration": 0.1943,
      "velocity": 89,
      "chip": "ym2612"
    },
    {
      "channel": 1,
      "note": 65,
      "start": 82.4659,
      "duration": 0.7585,
      "velocity": 97,
      "chip": "ym2612"
    },
    {
      "channel": 2,
      "note": 53,
      "start": 82.469,
      "duration": 0.189,
      "velocity": 127,
      "chip": "ym2612"
    },
    {
      "channel": 0,
      "note": 53,
      "start": 82.6791,
      "duration": 0.1952,
      "velocity": 89,
      "chip": "ym2612"
    },
    {
      "channel": 0,
      "note": 53,
      "start": 82.8942,
      "duration": 0.1967,
      "velocity": 89,
      "chip": "ym2612"
    },
    {
      "channel": 0,
      "note": 53,
      "start": 83.1108,
      "duration": 0.2135,
      "velocity": 89,
      "chip": "ym2612"
    },
    {
      "channel": 2,
      "note": 49,
      "start": 83.1458,
      "duration": 0.0455,
      "velocity": 95,
      "chip": "ym2612"
    },
    {
      "channel": 2,
      "note": 49,
      "start": 83.2124,
      "duration": 0.0289,
      "velocity": 95,
      "chip": "ym2612"
    },
    {
      "channel": 2,
      "note": 49,
      "start": 83.2627,
      "duration": 0.0622,
      "velocity": 95,
      "chip": "ym2612"
    },
    {
      "channel": 5,
      "note": 64,
      "start": 83.3443,
      "duration": 1.5136,
      "velocity": 110,
      "chip": "ym2612"
    },
    {
      "channel": 3,
      "note": 73,
      "start": 83.3481,
      "duration": 1.6265,
      "velocity": 110,
      "chip": "ym2612"
    },
    {
      "channel": 4,
      "note": 73,
      "start": 83.3508,
      "duration": 0.8572,
      "velocity": 118,
      "chip": "ym2612"
    },
    {
      "channel": 0,
      "note": 52,
      "start": 83.3533,
      "duration": 0.1878,
      "velocity": 89,
      "chip": "ym2612"
    },
    {
      "channel": 1,
      "note": 64,
      "start": 83.3558,
      "duration": 0.7519,
      "velocity": 97,
      "chip": "ym2612"
    },
    {
      "channel": 2,
      "note": 49,
      "start": 83.3603,
      "duration": 0.1644,
      "velocity": 95,
      "chip": "ym2612"
    },
    {
      "channel": 0,
      "note": 52,
      "start": 83.5625,
      "duration": 0.1951,
      "velocity": 89,
      "chip": "ym2612"
    },
    {
      "channel": 2,
      "note": 33,
      "start": 83.5657,
      "duration": 0.1923,
      "velocity": 124,
      "chip": "ym2612"
    },
    {
      "channel": 0,
      "note": 52,
      "start": 83.778,
      "duration": 0.2131,
      "velocity": 89,
      "chip": "ym2612"
    },
    {
      "channel": 0,
      "note": 52,
      "start": 84.0109,
      "duration": 0.1968,
      "velocity": 89,
      "chip": "ym2612"
    },
    {
      "channel": 4,
      "note": 69,
      "start": 84.2276,
      "duration": 0.8636,
      "velocity": 118,
      "chip": "ym2612"
    },
    {
      "channel": 0,
      "note": 52,
      "start": 84.23,
      "duration": 0.1942,
      "velocity": 89,
      "chip": "ym2612"
    },
    {
      "channel": 1,
      "note": 61,
      "start": 84.2332,
      "duration": 0.7413,
      "velocity": 97,
      "chip": "ym2612"
    },
    {
      "channel": 2,
      "note": 53,
      "start": 84.2366,
      "duration": 0.188,
      "velocity": 127,
      "chip": "ym2612"
    },
    {
      "channel": 0,
      "note": 52,
      "start": 84.4463,
      "duration": 0.1946,
      "velocity": 89,
      "chip": "ym2612"
    },
    {
      "channel": 0,
      "note": 52,
      "start": 84.6774,
      "duration": 0.1969,
      "velocity": 89,
      "chip": "ym2612"
    },
    {
      "channel": 0,
      "note": 52,
      "start": 84.8942,
      "duration": 0.1968,
      "velocity": 89,
      "chip": "ym2612"
    },
    {
      "channel": 2,
      "note": 49,
      "start": 84.898,
      "duration": 0.1431,
      "velocity": 95,
      "chip": "ym2612"
    },
    {
      "channel": 5,
      "note": 62,
      "start": 85.1113,
      "duration": 3.5132,
      "velocity": 110,
      "chip": "ym2612"
    },
    {
      "channel": 3,
      "note": 69,
      "start": 85.1151,
      "duration": 1.6094,
      "velocity": 110,
      "chip": "ym2612"
    },
    {
      "channel": 4,
      "note": 69,
      "start": 85.1178,
      "duration": 0.8568,
      "velocity": 118,
      "chip": "ym2612"
    },
    {
      "channel": 0,
      "note": 50,
      "start": 85.1203,
      "duration": 0.1875,
      "velocity": 89,
      "chip": "ym2612"
    },
    {
      "channel": 1,
      "note": 61,
      "start": 85.1236,
      "duration": 0.7843,
      "velocity": 97,
      "chip": "ym2612"
    },
    {
      "channel": 2,
      "note": 49,
      "start": 85.1275,
      "duration": 0.1639,
      "velocity": 95,
      "chip": "ym2612"
    },
    {
      "channel": 0,
      "note": 50,
      "start": 85.3292,
      "duration": 0.2118,
      "velocity": 89,
      "chip": "ym2612"
    },
    {
      "channel": 2,
      "note": 33,
      "start": 85.3323,
      "duration": 0.209,
      "velocity": 124,
      "chip": "ym2612"
    },
    {
      "channel": 0,
      "note": 50,
      "start": 85.5609,
      "duration": 0.1967,
      "velocity": 89,
      "chip": "ym2612"
    },
    {
      "channel": 0,
      "note": 50,
      "start": 85.7777,
      "duration": 0.1966,
      "velocity": 89,
      "chip": "ym2612"
    },
    {
      "channel": 4,
      "note": 70,
      "start": 85.9942,
      "duration": 0.8637,
      "velocity": 118,
      "chip": "ym2612"
    },
    {
      "channel": 0,
      "note": 50,
      "start": 85.9967,
      "duration": 0.2108,
      "velocity": 89,
      "chip": "ym2612"
    },
    {
      "channel": 1,
      "note": 62,
      "start": 85.9994,
      "duration": 0.8083,
      "velocity": 97,
      "chip": "ym2612"
    },
    {
      "channel": 2,
      "note": 53,
      "start": 86.0024,
      "duration": 0.2055,
      "velocity": 127,
      "chip": "ym2612"
    },
    {
      "channel": 0,
      "note": 50,
      "start": 86.2291,
      "duration": 0.1951,
      "velocity": 89,
      "chip": "ym2612"
    },
    {
      "channel": 0,
      "note": 50,
      "start": 86.4442,
      "duration": 0.1968,
      "velocity": 89,
      "chip": "ym2612"
    },
    {
      "channel": 0,
      "note": 50,
      "start": 86.6608,
      "duration": 0.1968,
      "velocity": 89,
      "chip": "ym2612"
    },
    {
      "channel": 2,
      "note": 49,
      "start": 86.6646,
      "duration": 0.1433,
      "velocity": 95,
      "chip": "ym2612"
    },
    {
      "channel": 3,
      "note": 70,
      "start": 86.8949,
      "duration": 1.5963,
      "velocity": 110,
      "chip": "ym2612"
    },
    {
      "channel": 4,
      "note": 74,
      "start": 86.8976,
      "duration": 0.8604,
      "velocity": 118,
      "chip": "ym2612"
    },
    {
      "channel": 0,
      "note": 50,
      "start": 86.9001,
      "duration": 0.191,
      "velocity": 89,
      "chip": "ym2612"
    },
    {
      "channel": 1,
      "note": 65,
      "start": 86.9028,
      "duration": 0.7384,
      "velocity": 97,
      "chip": "ym2612"
    },
    {
      "channel": 2,
      "note": 49,
      "start": 86.9076,
      "duration": 0.1837,
      "velocity": 95,
      "chip": "ym2612"
    },
    {
      "channel": 0,
      "note": 50,
      "start": 87.1126,
      "duration": 0.1951,
      "velocity": 89,
      "chip": "ym2612"
    },
    {
      "channel": 2,
      "note": 33,
      "start": 87.1161,
      "duration": 0.192,
      "velocity": 124,
      "chip": "ym2612"
    },
    {
      "channel": 0,
      "note": 50,
      "start": 87.328,
      "duration": 0.1964,
      "velocity": 89,
      "chip": "ym2612"
    },
    {
      "channel": 0,
      "note": 50,
      "start": 87.5442,
      "duration": 0.2135,
      "velocity": 89,
      "chip": "ym2612"
    },
    {
      "channel": 4,
      "note": 77,
      "start": 87.7776,
      "duration": 0.8636,
      "velocity": 118,
      "chip": "ym2612"
    },
    {
      "channel": 0,
      "note": 50,
      "start": 87.7801,
      "duration": 0.1942,
      "velocity": 89,
      "chip": "ym2612"
    },
    {
      "channel": 1,
      "note": 68,
      "start": 87.7828,
      "duration": 0.825,
      "velocity": 97,
      "chip": "ym2612"
    },
    {
      "channel": 2,
      "note": 53,
      "start": 87.7859,
      "duration": 0.1888,
      "velocity": 127,
      "chip": "ym2612"
    },
    {
      "channel": 0,
      "note": 50,
      "start": 87.9957,
      "duration": 0.1952,
      "velocity": 89,
      "chip": "ym2612"
    },
    {
      "channel": 0,
      "note": 50,
      "start": 88.2108,
      "duration": 0.2134,
      "velocity": 89,
      "chip": "ym2612"
    },
    {
      "channel": 0,
      "note": 50,
      "start": 88.4442,
      "duration": 0.1967,
      "velocity": 89,
      "chip": "ym2612"
    },
    {
      "channel": 2,
      "note": 49,
      "start": 88.4624,
      "duration": 0.0455,
      "velocity": 95,
      "chip": "ym2612"
    },
    {
      "channel": 2,
      "note": 49,
      "start": 88.5291,
      "duration": 0.0289,
      "velocity": 95,
      "chip": "ym2612"
    },
    {
      "channel": 2,
      "note": 49,
      "start": 88.5956,
      "duration": 0.0457,
      "velocity": 95,
      "chip": "ym2612"
    },
    {
      "channel": 3,
      "note": 71,
      "start": 88.6619,
      "duration": 1.6959,
      "velocity": 110,
      "chip": "ym2612"
    },
    {
      "channel": 4,
      "note": 80,
      "start": 88.6646,
      "duration": 0.86,
      "velocity": 118,
      "chip": "ym2612"
    },
    {
      "channel": 0,
      "note": 50,
      "start": 88.6671,
      "duration": 0.1906,
      "velocity": 89,
      "chip": "ym2612"
    },
    {
      "channel": 1,
      "note": 71,
      "start": 88.6698,
      "duration": 0.7214,
      "velocity": 97,
      "chip": "ym2612"
    },
    {
      "channel": 2,
      "note": 49,
      "start": 88.6746,
      "duration": 0.1668,
      "velocity": 95,
      "chip": "ym2612"
    },
    {
      "channel": 0,
      "note": 50,
      "start": 88.8792,
      "duration": 0.1951,
      "velocity": 89,
      "chip": "ym2612"
    },
    {
      "channel": 5,
      "note": 33,
      "start": 88.8823,
      "duration": 0.1923,
      "velocity": 124,
      "chip": "ym2612"
    },
    {
      "channel": 0,
      "note": 50,
      "start": 89.111,
      "duration": 0.1967,
      "velocity": 89,
      "chip": "ym2612"
    },
    {
      "channel": 2,
      "note": 39,
      "start": 89.1147,
      "duration": 0.01,
      "velocity": 102,
      "chip": "ym2612"
    },
    {
      "channel": 2,
      "note": 33,
      "start": 89.1456,
      "duration": 0.0624,
      "velocity": 102,
      "chip": "ym2612"
    },
    {
      "channel": 0,
      "note": 50,
      "start": 89.3276,
      "duration": 0.1969,
      "velocity": 89,
      "chip": "ym2612"
    },
    {
      "channel": 2,
      "note": 39,
      "start": 89.3312,
      "duration": 0.0102,
      "velocity": 102,
      "chip": "ym2612"
    },
    {
      "channel": 2,
      "note": 33,
      "start": 89.3463,
      "duration": 0.0783,
      "velocity": 102,
      "chip": "ym2612"
    },
    {
      "channel": 4,
      "note": 77,
      "start": 89.5442,
      "duration": 0.8637,
      "velocity": 118,
      "chip": "ym2612"
    },
    {
      "channel": 0,
      "note": 50,
      "start": 89.5468,
      "duration": 0.1941,
      "velocity": 89,
      "chip": "ym2612"
    },
    {
      "channel": 1,
      "note": 68,
      "start": 89.5495,
      "duration": 0.6918,
      "velocity": 97,
      "chip": "ym2612"
    },
    {
      "channel": 5,
      "note": 53,
      "start": 89.5524,
      "duration": 0.1888,
      "velocity": 127,
      "chip": "ym2612"
    },
    {
      "channel": 0,
      "note": 50,
      "start": 89.7624,
      "duration": 0.2119,
      "velocity": 89,
      "chip": "ym2612"
    },
    {
      "channel": 2,
      "note": 49,
      "start": 89.7666,
      "duration": 0.0415,
      "velocity": 106,
      "chip": "ym2612"
    },
    {
      "channel": 2,
      "note": 49,
      "start": 89.8131,
      "duration": 0.1448,
      "velocity": 106,
      "chip": "ym2612"
    },
    {
      "channel": 0,
      "note": 50,
      "start": 89.9942,
      "duration": 0.1967,
      "velocity": 89,
      "chip": "ym2612"
    },
    {
      "channel": 0,
      "note": 50,
      "start": 90.2109,
      "duration": 0.1968,
      "velocity": 89,
      "chip": "ym2612"
    },
    {
      "channel": 2,
      "note": 49,
      "start": 90.2148,
      "duration": 0.1599,
      "velocity": 95,
      "chip": "ym2612"
    },
    {
      "channel": 3,
      "note": 72,
      "start": 90.4286,
      "duration": 1.7292,
      "velocity": 110,
      "chip": "ym2612"
    },
    {
      "channel": 4,
      "note": 80,
      "start": 90.4312,
      "duration": 0.86,
      "velocity": 118,
      "chip": "ym2612"
    },
    {
      "channel": 0,
      "note": 50,
      "start": 90.4338,
      "duration": 0.2073,
      "velocity": 89,
      "chip": "ym2612"
    },
    {
      "channel": 1,
      "note": 72,
      "start": 90.4365,
      "duration": 0.738,
      "velocity": 97,
      "chip": "ym2612"
    },
    {
      "channel": 2,
      "note": 49,
      "start": 90.441,
      "duration": 0.2003,
      "velocity": 95,
      "chip": "ym2612"
    },
    {
      "channel": 0,
      "note": 50,
      "start": 90.6625,
      "duration": 0.1953,
      "velocity": 89,
      "chip": "ym2612"
    },
    {
      "channel": 5,
      "note": 33,
      "start": 90.6655,
      "duration": 0.1926,
      "velocity": 124,
      "chip": "ym2612"
    },
    {
      "channel": 0,
      "note": 50,
      "start": 90.8779,
      "duration": 0.1964,
      "velocity": 89,
      "chip": "ym2612"
    },
    {
      "channel": 2,
      "note": 39,
      "start": 90.8816,
      "duration": 0.0098,
      "velocity": 102,
      "chip": "ym2612"
    },
    {
      "channel": 2,
      "note": 33,
      "start": 90.9122,
      "duration": 0.0791,
      "velocity": 102,
      "chip": "ym2612"
    },
    {
      "channel": 0,
      "note": 50,
      "start": 91.0942,
      "duration": 0.1969,
      "velocity": 89,
      "chip": "ym2612"
    },
    {
      "channel": 2,
      "note": 39,
      "start": 91.0978,
      "duration": 0.0103,
      "velocity": 102,
      "chip": "ym2612"
    },
    {
      "channel": 2,
      "note": 33,
      "start": 91.1125,
      "duration": 0.0954,
      "velocity": 102,
      "chip": "ym2612"
    },
    {
      "channel": 4,
      "note": 77,
      "start": 91.3276,
      "duration": 0.8637,
      "velocity": 118,
      "chip": "ym2612"
    },
    {
      "channel": 0,
      "note": 50,
      "start": 91.3301,
      "duration": 0.1941,
      "velocity": 89,
      "chip": "ym2612"
    },
    {
      "channel": 1,
      "note": 68,
      "start": 91.3332,
      "duration": 0.6412,
      "velocity": 97,
      "chip": "ym2612"
    },
    {
      "channel": 5,
      "note": 53,
      "start": 91.3361,
      "duration": 0.1884,
      "velocity": 127,
      "chip": "ym2612"
    },
    {
      "channel": 0,
      "note": 50,
      "start": 91.5458,
      "duration": 0.1953,
      "velocity": 89,
      "chip": "ym2612"
    },
    {
      "channel": 2,
      "note": 49,
      "start": 91.5503,
      "duration": 0.0244,
      "velocity": 106,
      "chip": "ym2612"
    },
    {
      "channel": 2,
      "note": 49,
      "start": 91.5797,
      "duration": 0.1282,
      "velocity": 106,
      "chip": "ym2612"
    },
    {
      "channel": 0,
      "note": 50,
      "start": 91.7609,
      "duration": 0.1968,
      "velocity": 89,
      "chip": "ym2612"
    },
    {
      "channel": 5,
      "note": 39,
      "start": 91.7649,
      "duration": 0.0098,
      "velocity": 102,
      "chip": "ym2612"
    },
    {
      "channel": 5,
      "note": 33,
      "start": 91.7956,
      "duration": 0.079,
      "velocity": 102,
      "chip": "ym2612"
    },
    {
      "channel": 0,
      "note": 50,
      "start": 91.9776,
      "duration": 0.2134,
      "velocity": 89,
      "chip": "ym2612"
    },
    {
      "channel": 2,
      "note": 49,
      "start": 91.9815,
      "duration": 0.1266,
      "velocity": 95,
      "chip": "ym2612"
    },
    {
      "channel": 5,
      "note": 61,
      "start": 92.213,
      "duration": 7.045,
      "velocity": 110,
      "chip": "ym2612"
    },
    {
      "channel": 3,
      "note": 71,
      "start": 92.2165,
      "duration": 1.7246,
      "velocity": 110,
      "chip": "ym2612"
    },
    {
      "channel": 4,
      "note": 80,
      "start": 92.2195,
      "duration": 0.8551,
      "velocity": 118,
      "chip": "ym2612"
    },
    {
      "channel": 0,
      "note": 50,
      "start": 92.2221,
      "duration": 0.1856,
      "velocity": 89,
      "chip": "ym2612"
    },
    {
      "channel": 1,
      "note": 73,
      "start": 92.2254,
      "duration": 0.7324,
      "velocity": 97,
      "chip": "ym2612"
    },
    {
      "channel": 2,
      "note": 49,
      "start": 92.2293,
      "duration": 0.1788,
      "velocity": 95,
      "chip": "ym2612"
    },
    {
      "channel": 0,
      "note": 50,
      "start": 92.4292,
      "duration": 0.1952,
      "velocity": 89,
      "chip": "ym2612"
    },
    {
      "channel": 2,
      "note": 33,
      "start": 92.4324,
      "duration": 0.1923,
      "velocity": 124,
      "chip": "ym2612"
    },
    {
      "channel": 0,
      "note": 50,
      "start": 92.6443,
      "duration": 0.2135,
      "velocity": 89,
      "chip": "ym2612"
    },
    {
      "channel": 0,
      "note": 50,
      "start": 92.8776,
      "duration": 0.1968,
      "velocity": 89,
      "chip": "ym2612"
    },
    {
      "channel": 4,
      "note": 77,
      "start": 93.0942,
      "duration": 0.8637,
      "velocity": 118,
      "chip": "ym2612"
    },
    {
      "channel": 0,
      "note": 50,
      "start": 93.0967,
      "duration": 0.1943,
      "velocity": 89,
      "chip": "ym2612"
    },
    {
      "channel": 1,
      "note": 68,
      "start": 93.0994,
      "duration": 0.4915,
      "velocity": 97,
      "chip": "ym2612"
    },
    {
      "channel": 2,
      "note": 53,
      "start": 93.1024,
      "duration": 0.1889,
      "velocity": 127,
      "chip": "ym2612"
    },
    {
      "channel": 0,
      "note": 50,
      "start": 93.3125,
      "duration": 0.1951,
      "velocity": 89,
      "chip": "ym2612"
    },
    {
      "channel": 0,
      "note": 50,
      "start": 93.5442,
      "duration": 0.1967,
      "velocity": 89,
      "chip": "ym2612"
    },
    {
      "channel": 0,
      "note": 50,
      "start": 93.7607,
      "duration": 0.1969,
      "velocity": 89,
      "chip": "ym2612"
    },
    {
      "channel": 2,
      "note": 49,
      "start": 93.7796,
      "duration": 0.045,
      "velocity": 95,
      "chip": "ym2612"
    },
    {
      "channel": 2,
      "note": 49,
      "start": 93.8458,
      "duration": 0.0455,
      "velocity": 95,
      "chip": "ym2612"
    },
    {
      "channel": 2,
      "note": 49,
      "start": 93.9124,
      "duration": 0.0456,
      "velocity": 95,
      "chip": "ym2612"
    },
    {
      "channel": 3,
      "note": 71,
      "start": 93.9792,
      "duration": 5.2786,
      "velocity": 110,
      "chip": "ym2612"
    },
    {
      "channel": 4,
      "note": 80,
      "start": 93.9819,
      "duration": 0.8595,
      "velocity": 118,
      "chip": "ym2612"
    },
    {
      "channel": 0,
      "note": 50,
      "start": 93.9844,
      "duration": 0.1901,
      "velocity": 89,
      "chip": "ym2612"
    },
    {
      "channel": 1,
      "note": 73,
      "start": 93.9871,
      "duration": 0.754,
      "velocity": 97,
      "chip": "ym2612"
    },
    {
      "channel": 2,
      "note": 49,
      "start": 93.9916,
      "duration": 0.1664,
      "velocity": 95,
      "chip": "ym2612"
    },
    {
      "channel": 0,
      "note": 50,
      "start": 94.1959,
      "duration": 0.2118,
      "velocity": 89,
      "chip": "ym2612"
    },
    {
      "channel": 2,
      "note": 33,
      "start": 94.1991,
      "duration": 0.209,
      "velocity": 124,
      "chip": "ym2612"
    },
    {
      "channel": 0,
      "note": 50,
      "start": 94.4279,
      "duration": 0.1965,
      "velocity": 89,
      "chip": "ym2612"
    },
    {
      "channel": 0,
      "note": 50,
      "start": 94.6442,
      "duration": 0.1969,
      "velocity": 89,
      "chip": "ym2612"
    },
    {
      "channel": 4,
      "note": 77,
      "start": 94.8612,
      "duration": 0.8633,
      "velocity": 118,
      "chip": "ym2612"
    },
    {
      "channel": 0,
      "note": 50,
      "start": 94.8638,
      "duration": 0.1939,
      "velocity": 89,
      "chip": "ym2612"
    },
    {
      "channel": 1,
      "note": 68,
      "start": 94.8664,
      "duration": 0.4912,
      "velocity": 97,
      "chip": "ym2612"
    },
    {
      "channel": 2,
      "note": 53,
      "start": 94.8695,
      "duration": 0.1885,
      "velocity": 127,
      "chip": "ym2612"
    },
    {
      "channel": 0,
      "note": 50,
      "start": 95.0965,
      "duration": 0.1944,
      "velocity": 89,
      "chip": "ym2612"
    },
    {
      "channel": 0,
      "note": 50,
      "start": 95.3108,
      "duration": 0.1969,
      "velocity": 89,
      "chip": "ym2612"
    },
    {
      "channel": 0,
      "note": 50,
      "start": 95.5274,
      "duration": 0.1968,
      "velocity": 89,
      "chip": "ym2612"
    },
    {
      "channel": 2,
      "note": 49,
      "start": 95.5313,
      "duration": 0.1433,
      "velocity": 95,
      "chip": "ym2612"
    },
    {
      "channel": 0,
      "note": 50,
      "start": 95.7463,
      "duration": 0.2113,
      "velocity": 89,
      "chip": "ym2612"
    },
    {
      "channel": 1,
      "note": 73,
      "start": 95.7494,
      "duration": 3.5251,
      "velocity": 97,
      "chip": "ym2612"
    },
    {
      "channel": 2,
      "note": 49,
      "start": 95.7536,
      "duration": 0.1876,
      "velocity": 95,
      "chip": "ym2612"
    },
    {
      "channel": 0,
      "note": 50,
      "start": 95.9775,
      "duration": 0.1969,
      "velocity": 89,
      "chip": "ym2612"
    },
    {
      "channel": 4,
      "note": 33,
      "start": 95.9806,
      "duration": 0.194,
      "velocity": 124,
      "chip": "ym2612"
    },
    {
      "channel": 0,
      "note": 50,
      "start": 96.1942,
      "duration": 0.1968,
      "velocity": 89,
      "chip": "ym2612"
    },
    {
      "channel": 2,
      "note": 50,
      "start": 96.1978,
      "duration": 0.0268,
      "velocity": 102,
      "chip": "ym2612"
    },
    {
      "channel": 2,
      "note": 44,
      "start": 96.2293,
      "duration": 0.1454,
      "velocity": 102,
      "chip": "ym2612"
    },
    {
      "channel": 0,
      "note": 50,
      "start": 96.4108,
      "duration": 0.2135,
      "velocity": 89,
      "chip": "ym2612"
    },
    {
      "channel": 0,
      "note": 50,
      "start": 96.6441,
      "duration": 0.1968,
      "velocity": 89,
      "chip": "ym2612"
    },
    {
      "channel": 4,
      "note": 53,
      "start": 96.6472,
      "duration": 0.194,
      "velocity": 127,
      "chip": "ym2612"
    },
    {
      "channel": 0,
      "note": 50,
      "start": 96.8608,
      "duration": 0.1968,
      "velocity": 89,
      "chip": "ym2612"
    },
    {
      "channel": 2,
      "note": 44,
      "start": 96.8644,
      "duration": 0.0267,
      "velocity": 102,
      "chip": "ym2612"
    },
    {
      "channel": 2,
      "note": 38,
      "start": 96.8955,
      "duration": 0.1455,
      "velocity": 102,
      "chip": "ym2612"
    },
    {
      "channel": 0,
      "note": 50,
      "start": 97.0773,
      "duration": 0.1969,
      "velocity": 89,
      "chip": "ym2612"
    },
    {
      "channel": 0,
      "note": 50,
      "start": 97.3108,
      "duration": 0.1968,
      "velocity": 89,
      "chip": "ym2612"
    },
    {
      "channel": 2,
      "note": 49,
      "start": 97.3146,
      "duration": 0.1598,
      "velocity": 95,
      "chip": "ym2612"
    },
    {
      "channel": 0,
      "note": 50,
      "start": 97.5274,
      "duration": 0.1968,
      "velocity": 89,
      "chip": "ym2612"
    },
    {
      "channel": 2,
      "note": 49,
      "start": 97.5311,
      "duration": 0.1934,
      "velocity": 95,
      "chip": "ym2612"
    },
    {
      "channel": 0,
      "note": 50,
      "start": 97.744,
      "duration": 0.1968,
      "velocity": 89,
      "chip": "ym2612"
    },
    {
      "channel": 4,
      "note": 33,
      "start": 97.747,
      "duration": 0.1941,
      "velocity": 124,
      "chip": "ym2612"
    },
    {
      "channel": 0,
      "note": 50,
      "start": 97.9611,
      "duration": 0.2132,
      "velocity": 89,
      "chip": "ym2612"
    },
    {
      "channel": 2,
      "note": 50,
      "start": 97.9648,
      "duration": 0.043,
      "velocity": 102,
      "chip": "ym2612"
    },
    {
      "channel": 2,
      "note": 44,
      "start": 98.0121,
      "duration": 0.1456,
      "velocity": 102,
      "chip": "ym2612"
    },
    {
      "channel": 0,
      "note": 50,
      "start": 98.1941,
      "duration": 0.1968,
      "velocity": 89,
      "chip": "ym2612"
    },
    {
      "channel": 2,
      "note": 44,
      "start": 98.1977,
      "duration": 0.0268,
      "velocity": 102,
      "chip": "ym2612"
    },
    {
      "channel": 2,
      "note": 38,
      "start": 98.2292,
      "duration": 0.1452,
      "velocity": 102,
      "chip": "ym2612"
    },
    {
      "channel": 0,
      "note": 50,
      "start": 98.4106,
      "duration": 0.1968,
      "velocity": 89,
      "chip": "ym2612"
    },
    {
      "channel": 2,
      "note": 49,
      "start": 98.4143,
      "duration": 0.1935,
      "velocity": 95,
      "chip": "ym2612"
    },
    {
      "channel": 0,
      "note": 50,
      "start": 98.6274,
      "duration": 0.2137,
      "velocity": 89,
      "chip": "ym2612"
    },
    {
      "channel": 4,
      "note": 53,
      "start": 98.632,
      "duration": 0.2093,
      "velocity": 127,
      "chip": "ym2612"
    },
    {
      "channel": 0,
      "note": 50,
      "start": 98.8608,
      "duration": 0.1968,
      "velocity": 89,
      "chip": "ym2612"
    },
    {
      "channel": 2,
      "note": 40,
      "start": 98.8645,
      "duration": 0.0267,
      "velocity": 102,
      "chip": "ym2612"
    },
    {
      "channel": 2,
      "note": 34,
      "start": 98.8955,
      "duration": 0.1457,
      "velocity": 102,
      "chip": "ym2612"
    },
    {
      "channel": 0,
      "note": 50,
      "start": 99.0775,
      "duration": 0.1968,
      "velocity": 89,
      "chip": "ym2612"
    },
    {
      "channel": 2,
      "note": 49,
      "start": 99.0812,
      "duration": 0.1265,
      "velocity": 95,
      "chip": "ym2612"
    },
    {
      "channel": 5,
      "note": 64,
      "start": 99.2968,
      "duration": 1.6778,
      "velocity": 110,
      "chip": "ym2612"
    },
    {
      "channel": 3,
      "note": 71,
      "start": 99.3029,
      "duration": 1.6716,
      "velocity": 110,
      "chip": "ym2612"
    },
    {
      "channel": 0,
      "note": 52,
      "start": 99.3102,
      "duration": 0.1641,
      "velocity": 89,
      "chip": "ym2612"
    },
    {
      "channel": 2,
      "note": 49,
      "start": 99.3214,
      "duration": 0.3866,
      "velocity": 95,
      "chip": "ym2612"
    },
    {
      "channel": 0,
      "note": 52,
      "start": 99.5274,
      "duration": 0.1802,
      "velocity": 89,
      "chip": "ym2612"
    },
    {
      "channel": 4,
      "note": 75,
      "start": 99.7445,
      "duration": 0.3968,
      "velocity": 118,
      "chip": "ym2612"
    },
    {
      "channel": 0,
      "note": 52,
      "start": 99.747,
      "duration": 0.1772,
      "velocity": 89,
      "chip": "ym2612"
    },
    {
      "channel": 1,
      "note": 64,
      "start": 99.7497,
      "duration": 0.3747,
      "velocity": 97,
      "chip": "ym2612"
    },
    {
      "channel": 0,
      "note": 52,
      "start": 99.9628,
      "duration": 0.1782,
      "velocity": 89,
      "chip": "ym2612"
    },
    {
      "channel": 4,
      "note": 74,
      "start": 100.1776,
      "duration": 0.4136,
      "velocity": 118,
      "chip": "ym2612"
    },
    {
      "channel": 0,
      "note": 52,
      "start": 100.18,
      "duration": 0.1943,
      "velocity": 89,
      "chip": "ym2612"
    },
    {
      "channel": 1,
      "note": 63,
      "start": 100.1826,
      "duration": 0.3918,
      "velocity": 97,
      "chip": "ym2612"
    },
    {
      "channel": 2,
      "note": 53,
      "start": 100.1859,
      "duration": 0.2054,
      "velocity": 127,
      "chip": "ym2612"
    },
    {
      "channel": 0,
      "note": 52,
      "start": 100.4124,
      "duration": 0.1786,
      "velocity": 89,
      "chip": "ym2612"
    },
    {
      "channel": 4,
      "note": 71,
      "start": 100.6274,
      "duration": 0.3971,
      "velocity": 118,
      "chip": "ym2612"
    },
    {
      "channel": 0,
      "note": 52,
      "start": 100.63,
      "duration": 0.1776,
      "velocity": 89,
      "chip": "ym2612"
    },
    {
      "channel": 1,
      "note": 62,
      "start": 100.6325,
      "duration": 0.3752,
      "velocity": 97,
      "chip": "ym2612"
    },
    {
      "channel": 0,
      "note": 52,
      "start": 100.8458,
      "duration": 0.1785,
      "velocity": 89,
      "chip": "ym2612"
    },
    {
      "channel": 2,
      "note": 49,
      "start": 100.8497,
      "duration": 0.175,
      "velocity": 95,
      "chip": "ym2612"
    }
  ]
}