{
  "track_name": "05 - Bonus Round 3",
  "duration_sec": 16.057,
  "sample_rate": 44100,
  "note_count": 58,
  "unique_pitches": 19,
  "pitch_range": 78,
  "avg_note_duration": 1.3484,
  "reconstruction_stats": {
    "notes_reconstructed": 58,
    "keyon_events": 58,
    "keyoff_events": 53,
    "orphan_keyons": 5,
    "unique_pitches": 19,
    "pitch_range": 78,
    "avg_duration_sec": 1.3484
  },
  "metadata": {
    "source": "F\\Fido Dido\\05 - Bonus Round 3.vgz"
  },
  "notes": [
    {
      "channel": 2,
      "note": 85,
      "start": 0.0,
      "duration": 3.5964,
      "velocity": 103,
      "chip": "ym2612"
    },
    {
      "channel": 3,
      "note": 88,
      "start": 0.0021,
      "duration": 3.5949,
      "velocity": 103,
      "chip": "ym2612"
    },
    {
      "channel": 5,
      "note": 45,
      "start": 0.0043,
      "duration": 0.7256,
      "velocity": 109,
      "chip": "ym2612"
    },
    {
      "channel": 1,
      "note": 21,
      "start": 0.1332,
      "duration": 4.4299,
      "velocity": 127,
      "chip": "ym2612"
    },
    {
      "channel": 5,
      "note": 43,
      "start": 0.7301,
      "duration": 0.2331,
      "velocity": 109,
      "chip": "ym2612"
    },
    {
      "channel": 5,
      "note": 40,
      "start": 0.9635,
      "duration": 0.7165,
      "velocity": 109,
      "chip": "ym2612"
    },
    {
      "channel": 5,
      "note": 45,
      "start": 1.6801,
      "duration": 0.4831,
      "velocity": 109,
      "chip": "ym2612"
    },
    {
      "channel": 0,
      "note": 28,
      "start": 1.9314,
      "duration": 3.1149,
      "velocity": 127,
      "chip": "ym2612"
    },
    {
      "channel": 5,
      "note": 45,
      "start": 2.1635,
      "duration": 0.4831,
      "velocity": 109,
      "chip": "ym2612"
    },
    {
      "channel": 5,
      "note": 43,
      "start": 2.6468,
      "duration": 0.2331,
      "velocity": 109,
      "chip": "ym2612"
    },
    {
      "channel": 5,
      "note": 47,
      "start": 2.8801,
      "duration": 0.9676,
      "velocity": 109,
      "chip": "ym2612"
    },
    {
      "channel": 2,
      "note": 84,
      "start": 3.5966,
      "duration": 0.2499,
      "velocity": 103,
      "chip": "ym2612"
    },
    {
      "channel": 3,
      "note": 87,
      "start": 3.5972,
      "duration": 0.2499,
      "velocity": 103,
      "chip": "ym2612"
    },
    {
      "channel": 2,
      "note": 85,
      "start": 3.8467,
      "duration": 1.9164,
      "velocity": 103,
      "chip": "ym2612"
    },
    {
      "channel": 3,
      "note": 88,
      "start": 3.8472,
      "duration": 1.9164,
      "velocity": 103,
      "chip": "ym2612"
    },
    {
      "channel": 5,
      "note": 45,
      "start": 3.8479,
      "duration": 0.7159,
      "velocity": 109,
      "chip": "ym2612"
    },
    {
      "channel": 1,
      "note": 20,
      "start": 4.5632,
      "duration": 3.2349,
      "velocity": 127,
      "chip": "ym2612"
    },
    {
      "channel": 5,
      "note": 43,
      "start": 4.564,
      "duration": 0.2326,
      "velocity": 109,
      "chip": "ym2612"
    },
    {
      "channel": 5,
      "note": 40,
      "start": 4.7968,
      "duration": 0.7331,
      "velocity": 109,
      "chip": "ym2612"
    },
    {
      "channel": 0,
      "note": 40,
      "start": 5.0465,
      "duration": 4.5499,
      "velocity": 127,
      "chip": "ym2612"
    },
    {
      "channel": 5,
      "note": 45,
      "start": 5.5301,
      "duration": 0.4665,
      "velocity": 109,
      "chip": "ym2612"
    },
    {
      "channel": 2,
      "note": 88,
      "start": 5.7633,
      "duration": 1.9183,
      "velocity": 103,
      "chip": "ym2612"
    },
    {
      "channel": 3,
      "note": 93,
      "start": 5.7638,
      "duration": 1.9184,
      "velocity": 103,
      "chip": "ym2612"
    },
    {
      "channel": 5,
      "note": 45,
      "start": 5.9968,
      "duration": 0.4831,
      "velocity": 109,
      "chip": "ym2612"
    },
    {
      "channel": 5,
      "note": 43,
      "start": 6.4801,
      "duration": 0.2498,
      "velocity": 109,
      "chip": "ym2612"
    },
    {
      "channel": 5,
      "note": 47,
      "start": 6.7301,
      "duration": 0.9528,
      "velocity": 109,
      "chip": "ym2612"
    },
    {
      "channel": 2,
      "note": 90,
      "start": 7.6818,
      "duration": 3.598,
      "velocity": 103,
      "chip": "ym2612"
    },
    {
      "channel": 3,
      "note": 86,
      "start": 7.6824,
      "duration": 3.5979,
      "velocity": 103,
      "chip": "ym2612"
    },
    {
      "channel": 5,
      "note": 38,
      "start": 7.6831,
      "duration": 0.7135,
      "velocity": 109,
      "chip": "ym2612"
    },
    {
      "channel": 1,
      "note": 21,
      "start": 7.7983,
      "duration": 4.4481,
      "velocity": 127,
      "chip": "ym2612"
    },
    {
      "channel": 5,
      "note": 36,
      "start": 8.3968,
      "duration": 0.2498,
      "velocity": 109,
      "chip": "ym2612"
    },
    {
      "channel": 5,
      "note": 33,
      "start": 8.6468,
      "duration": 0.7165,
      "velocity": 109,
      "chip": "ym2612"
    },
    {
      "channel": 5,
      "note": 38,
      "start": 9.3635,
      "duration": 0.4831,
      "velocity": 109,
      "chip": "ym2612"
    },
    {
      "channel": 0,
      "note": 28,
      "start": 9.5965,
      "duration": 3.1331,
      "velocity": 127,
      "chip": "ym2612"
    },
    {
      "channel": 5,
      "note": 38,
      "start": 9.8468,
      "duration": 0.4831,
      "velocity": 109,
      "chip": "ym2612"
    },
    {
      "channel": 5,
      "note": 36,
      "start": 10.3301,
      "duration": 0.2331,
      "velocity": 109,
      "chip": "ym2612"
    },
    {
      "channel": 5,
      "note": 40,
      "start": 10.5635,
      "duration": 0.9676,
      "velocity": 109,
      "chip": "ym2612"
    },
    {
      "channel": 2,
      "note": 89,
      "start": 11.2799,
      "duration": 0.2499,
      "velocity": 103,
      "chip": "ym2612"
    },
    {
      "channel": 3,
      "note": 85,
      "start": 11.2805,
      "duration": 0.2499,
      "velocity": 103,
      "chip": "ym2612"
    },
    {
      "channel": 2,
      "note": 90,
      "start": 11.53,
      "duration": 1.9164,
      "velocity": 103,
      "chip": "ym2612"
    },
    {
      "channel": 3,
      "note": 86,
      "start": 11.5306,
      "duration": 1.9164,
      "velocity": 103,
      "chip": "ym2612"
    },
    {
      "channel": 5,
      "note": 38,
      "start": 11.5312,
      "duration": 0.716,
      "velocity": 109,
      "chip": "ym2612"
    },
    {
      "channel": 1,
      "note": 20,
      "start": 12.2465,
      "duration": 3.2349,
      "velocity": 127,
      "chip": "ym2612"
    },
    {
      "channel": 5,
      "note": 36,
      "start": 12.2473,
      "duration": 0.2326,
      "velocity": 109,
      "chip": "ym2612"
    },
    {
      "channel": 5,
      "note": 33,
      "start": 12.4801,
      "duration": 0.7165,
      "velocity": 109,
      "chip": "ym2612"
    },
    {
      "channel": 0,
      "note": 40,
      "start": 12.7298,
      "duration": 3.3276,
      "velocity": 127,
      "chip": "ym2612"
    },
    {
      "channel": 5,
      "note": 38,
      "start": 13.1968,
      "duration": 0.4831,
      "velocity": 109,
      "chip": "ym2612"
    },
    {
      "channel": 2,
      "note": 93,
      "start": 13.4466,
      "duration": 0.9499,
      "velocity": 103,
      "chip": "ym2612"
    },
    {
      "channel": 3,
      "note": 98,
      "start": 13.4472,
      "duration": 0.9499,
      "velocity": 103,
      "chip": "ym2612"
    },
    {
      "channel": 5,
      "note": 38,
      "start": 13.6801,
      "duration": 0.4831,
      "velocity": 109,
      "chip": "ym2612"
    },
    {
      "channel": 5,
      "note": 36,
      "start": 14.1635,
      "duration": 0.2342,
      "velocity": 109,
      "chip": "ym2612"
    },
    {
      "channel": 2,
      "note": 90,
      "start": 14.3967,
      "duration": 0.9683,
      "velocity": 103,
      "chip": "ym2612"
    },
    {
      "channel": 3,
      "note": 93,
      "start": 14.3972,
      "duration": 0.9683,
      "velocity": 103,
      "chip": "ym2612"
    },
    {
      "channel": 5,
      "note": 40,
      "start": 14.3979,
      "duration": 0.9684,
      "velocity": 109,
      "chip": "ym2612"
    },
    {
      "channel": 2,
      "note": 85,
      "start": 15.3651,
      "duration": 0.6923,
      "velocity": 103,
      "chip": "ym2612"
    },
    {
      "channel": 3,
      "note": 88,
      "start": 15.3658,
      "duration": 0.6917,
      "velocity": 103,
      "chip": "ym2612"
    },
    {
      "channel": 5,
      "note": 45,
      "start": 15.3664,
      "duration": 0.6911,
      "velocity": 109,
      "chip": "ym2612"
    },
    {
      "channel": 1,
      "note": 21,
      "start": 15.4817,
      "duration": 0.5758,
      "velocity": 127,
      "chip": "ym2612"
    }
  ]
}