{
  "track_name": "05 - Post Nuclear & Virtual World",
  "duration_sec": 198.334,
  "sample_rate": 44100,
  "note_count": 3008,
  "unique_pitches": 20,
  "pitch_range": 58,
  "avg_note_duration": 0.2997,
  "reconstruction_stats": {
    "notes_reconstructed": 3008,
    "keyon_events": 3008,
    "keyoff_events": 3008,
    "orphan_keyons": 0,
    "unique_pitches": 20,
    "pitch_range": 58,
    "avg_duration_sec": 0.2997
  },
  "metadata": {
    "source": "S\\Spot Goes to Hollywood\\05 - Post Nuclear & Virtual World.vgz"
  },
  "notes": [
    {
      "channel": 1,
      "note": 84,
      "start": 0.0022,
      "duration": 10.7465,
      "velocity": 104,
      "chip": "ym2612"
    },
    {
      "channel": 5,
      "note": 81,
      "start": 0.0046,
      "duration": 10.7444,
      "velocity": 104,
      "chip": "ym2612"
    },
    {
      "channel": 0,
      "note": 76,
      "start": 0.008,
      "duration": 10.7406,
      "velocity": 104,
      "chip": "ym2612"
    },
    {
      "channel": 4,
      "note": 45,
      "start": 0.0137,
      "duration": 0.0951,
      "velocity": 100,
      "chip": "ym2612"
    },
    {
      "channel": 3,
      "note": 103,
      "start": 0.0261,
      "duration": 0.0626,
      "velocity": 127,
      "chip": "ym2612"
    },
    {
      "channel": 4,
      "note": 45,
      "start": 0.2724,
      "duration": 0.0963,
      "velocity": 100,
      "chip": "ym2612"
    },
    {
      "channel": 3,
      "note": 103,
      "start": 0.2754,
      "duration": 0.0733,
      "velocity": 127,
      "chip": "ym2612"
    },
    {
      "channel": 4,
      "note": 48,
      "start": 0.3918,
      "duration": 0.1169,
      "velocity": 100,
      "chip": "ym2612"
    },
    {
      "channel": 4,
      "note": 45,
      "start": 0.532,
      "duration": 0.1167,
      "velocity": 100,
      "chip": "ym2612"
    },
    {
      "channel": 3,
      "note": 103,
      "start": 0.5353,
      "duration": 0.0734,
      "velocity": 127,
      "chip": "ym2612"
    },
    {
      "channel": 4,
      "note": 45,
      "start": 0.7919,
      "duration": 0.1168,
      "velocity": 100,
      "chip": "ym2612"
    },
    {
      "channel": 2,
      "note": 79,
      "start": 0.795,
      "duration": 0.094,
      "velocity": 124,
      "chip": "ym2612"
    },
    {
      "channel": 3,
      "note": 103,
      "start": 0.7978,
      "duration": 0.091,
      "velocity": 127,
      "chip": "ym2612"
    },
    {
      "channel": 4,
      "note": 48,
      "start": 0.9318,
      "duration": 0.1169,
      "velocity": 100,
      "chip": "ym2612"
    },
    {
      "channel": 2,
      "note": 79,
      "start": 0.9349,
      "duration": 0.0939,
      "velocity": 124,
      "chip": "ym2612"
    },
    {
      "channel": 4,
      "note": 45,
      "start": 1.0719,
      "duration": 0.1168,
      "velocity": 100,
      "chip": "ym2612"
    },
    {
      "channel": 2,
      "note": 79,
      "start": 1.0747,
      "duration": 0.0743,
      "velocity": 124,
      "chip": "ym2612"
    },
    {
      "channel": 3,
      "note": 103,
      "start": 1.0774,
      "duration": 0.0713,
      "velocity": 127,
      "chip": "ym2612"
    },
    {
      "channel": 2,
      "note": 79,
      "start": 1.2122,
      "duration": 0.0766,
      "velocity": 124,
      "chip": "ym2612"
    },
    {
      "channel": 4,
      "note": 45,
      "start": 1.3319,
      "duration": 0.1168,
      "velocity": 100,
      "chip": "ym2612"
    },
    {
      "channel": 2,
      "note": 79,
      "start": 1.3349,
      "duration": 0.0941,
      "velocity": 124,
      "chip": "ym2612"
    },
    {
      "channel": 3,
      "note": 103,
      "start": 1.3376,
      "duration": 0.0911,
      "velocity": 127,
      "chip": "ym2612"
    },
    {
      "channel": 4,
      "note": 48,
      "start": 1.4718,
      "duration": 0.117,
      "velocity": 100,
      "chip": "ym2612"
    },
    {
      "channel": 4,
      "note": 45,
      "start": 1.612,
      "duration": 0.1167,
      "velocity": 100,
      "chip": "ym2612"
    },
    {
      "channel": 3,
      "note": 103,
      "start": 1.6149,
      "duration": 0.0737,
      "velocity": 127,
      "chip": "ym2612"
    },
    {
      "channel": 4,
      "note": 45,
      "start": 1.872,
      "duration": 0.1168,
      "velocity": 100,
      "chip": "ym2612"
    },
    {
      "channel": 3,
      "note": 103,
      "start": 1.875,
      "duration": 0.0937,
      "velocity": 127,
      "chip": "ym2612"
    },
    {
      "channel": 4,
      "note": 48,
      "start": 2.0122,
      "duration": 0.1165,
      "velocity": 100,
      "chip": "ym2612"
    },
    {
      "channel": 2,
      "note": 64,
      "start": 2.1524,
      "duration": 2.1366,
      "velocity": 104,
      "chip": "ym2612"
    },
    {
      "channel": 4,
      "note": 45,
      "start": 2.1552,
      "duration": 0.0936,
      "velocity": 100,
      "chip": "ym2612"
    },
    {
      "channel": 3,
      "note": 103,
      "start": 2.1582,
      "duration": 0.0705,
      "velocity": 127,
      "chip": "ym2612"
    },
    {
      "channel": 4,
      "note": 45,
      "start": 2.4119,
      "duration": 0.1169,
      "velocity": 100,
      "chip": "ym2612"
    },
    {
      "channel": 3,
      "note": 79,
      "start": 2.4148,
      "duration": 0.0007,
      "velocity": 124,
      "chip": "ym2612"
    },
    {
      "channel": 3,
      "note": 103,
      "start": 2.4178,
      "duration": 0.091,
      "velocity": 127,
      "chip": "ym2612"
    },
    {
      "channel": 4,
      "note": 48,
      "start": 2.5519,
      "duration": 0.1169,
      "velocity": 100,
      "chip": "ym2612"
    },
    {
      "channel": 3,
      "note": 79,
      "start": 2.5546,
      "duration": 0.0941,
      "velocity": 124,
      "chip": "ym2612"
    },
    {
      "channel": 4,
      "note": 45,
      "start": 2.692,
      "duration": 0.0967,
      "velocity": 100,
      "chip": "ym2612"
    },
    {
      "channel": 3,
      "note": 79,
      "start": 2.6946,
      "duration": 0.0007,
      "velocity": 124,
      "chip": "ym2612"
    },
    {
      "channel": 3,
      "note": 103,
      "start": 2.6975,
      "duration": 0.0712,
      "velocity": 127,
      "chip": "ym2612"
    },
    {
      "channel": 3,
      "note": 79,
      "start": 2.8321,
      "duration": 0.0767,
      "velocity": 124,
      "chip": "ym2612"
    },
    {
      "channel": 4,
      "note": 45,
      "start": 2.9519,
      "duration": 0.1169,
      "velocity": 100,
      "chip": "ym2612"
    },
    {
      "channel": 3,
      "note": 79,
      "start": 2.9545,
      "duration": 0.0008,
      "velocity": 124,
      "chip": "ym2612"
    },
    {
      "channel": 3,
      "note": 103,
      "start": 2.9574,
      "duration": 0.0913,
      "velocity": 127,
      "chip": "ym2612"
    },
    {
      "channel": 4,
      "note": 48,
      "start": 3.0919,
      "duration": 0.1169,
      "velocity": 100,
      "chip": "ym2612"
    },
    {
      "channel": 3,
      "note": 79,
      "start": 3.0946,
      "duration": 0.0741,
      "velocity": 124,
      "chip": "ym2612"
    },
    {
      "channel": 4,
      "note": 45,
      "start": 3.232,
      "duration": 0.0967,
      "velocity": 100,
      "chip": "ym2612"
    },
    {
      "channel": 3,
      "note": 79,
      "start": 3.2347,
      "duration": 0.0008,
      "velocity": 124,
      "chip": "ym2612"
    },
    {
      "channel": 3,
      "note": 103,
      "start": 3.2376,
      "duration": 0.0711,
      "velocity": 127,
      "chip": "ym2612"
    },
    {
      "channel": 4,
      "note": 45,
      "start": 3.4919,
      "duration": 0.1168,
      "velocity": 100,
      "chip": "ym2612"
    },
    {
      "channel": 3,
      "note": 103,
      "start": 3.4949,
      "duration": 0.0938,
      "velocity": 127,
      "chip": "ym2612"
    },
    {
      "channel": 4,
      "note": 48,
      "start": 3.6318,
      "duration": 0.1169,
      "velocity": 100,
      "chip": "ym2612"
    },
    {
      "channel": 4,
      "note": 45,
      "start": 3.7724,
      "duration": 0.0964,
      "velocity": 100,
      "chip": "ym2612"
    },
    {
      "channel": 3,
      "note": 103,
      "start": 3.7754,
      "duration": 0.0734,
      "velocity": 127,
      "chip": "ym2612"
    },
    {
      "channel": 4,
      "note": 45,
      "start": 4.032,
      "duration": 0.1167,
      "velocity": 100,
      "chip": "ym2612"
    },
    {
      "channel": 3,
      "note": 79,
      "start": 4.0349,
      "duration": 0.0008,
      "velocity": 124,
      "chip": "ym2612"
    },
    {
      "channel": 3,
      "note": 103,
      "start": 4.0378,
      "duration": 0.0909,
      "velocity": 127,
      "chip": "ym2612"
    },
    {
      "channel": 4,
      "note": 48,
      "start": 4.1718,
      "duration": 0.117,
      "velocity": 100,
      "chip": "ym2612"
    },
    {
      "channel": 3,
      "note": 79,
      "start": 4.1749,
      "duration": 0.0738,
      "velocity": 124,
      "chip": "ym2612"
    },
    {
      "channel": 2,
      "note": 74,
      "start": 4.312,
      "duration": 1.0369,
      "velocity": 104,
      "chip": "ym2612"
    },
    {
      "channel": 4,
      "note": 45,
      "start": 4.3148,
      "duration": 0.0939,
      "velocity": 100,
      "chip": "ym2612"
    },
    {
      "channel": 3,
      "note": 79,
      "start": 4.3174,
      "duration": 0.0007,
      "velocity": 124,
      "chip": "ym2612"
    },
    {
      "channel": 3,
      "note": 103,
      "start": 4.3204,
      "duration": 0.0683,
      "velocity": 127,
      "chip": "ym2612"
    },
    {
      "channel": 3,
      "note": 79,
      "start": 4.4321,
      "duration": 0.0966,
      "velocity": 124,
      "chip": "ym2612"
    },
    {
      "channel": 4,
      "note": 45,
      "start": 4.572,
      "duration": 0.1167,
      "velocity": 100,
      "chip": "ym2612"
    },
    {
      "channel": 3,
      "note": 79,
      "start": 4.5747,
      "duration": 0.0007,
      "velocity": 124,
      "chip": "ym2612"
    },
    {
      "channel": 3,
      "note": 103,
      "start": 4.5777,
      "duration": 0.091,
      "velocity": 127,
      "chip": "ym2612"
    },
    {
      "channel": 4,
      "note": 48,
      "start": 4.7118,
      "duration": 0.0969,
      "velocity": 100,
      "chip": "ym2612"
    },
    {
      "channel": 4,
      "note": 45,
      "start": 4.8519,
      "duration": 0.0969,
      "velocity": 100,
      "chip": "ym2612"
    },
    {
      "channel": 3,
      "note": 103,
      "start": 4.8553,
      "duration": 0.0735,
      "velocity": 127,
      "chip": "ym2612"
    },
    {
      "channel": 4,
      "note": 45,
      "start": 5.1119,
      "duration": 0.1169,
      "velocity": 100,
      "chip": "ym2612"
    },
    {
      "channel": 3,
      "note": 103,
      "start": 5.1149,
      "duration": 0.0938,
      "velocity": 127,
      "chip": "ym2612"
    },
    {
      "channel": 4,
      "note": 48,
      "start": 5.2519,
      "duration": 0.0969,
      "velocity": 100,
      "chip": "ym2612"
    },
    {
      "channel": 2,
      "note": 72,
      "start": 5.3918,
      "duration": 1.0371,
      "velocity": 104,
      "chip": "ym2612"
    },
    {
      "channel": 4,
      "note": 45,
      "start": 5.3949,
      "duration": 0.0939,
      "velocity": 100,
      "chip": "ym2612"
    },
    {
      "channel": 3,
      "note": 79,
      "start": 5.3978,
      "duration": 0.0007,
      "velocity": 124,
      "chip": "ym2612"
    },
    {
      "channel": 3,
      "note": 103,
      "start": 5.4007,
      "duration": 0.068,
      "velocity": 127,
      "chip": "ym2612"
    },
    {
      "channel": 3,
      "note": 79,
      "start": 5.5121,
      "duration": 0.0966,
      "velocity": 124,
      "chip": "ym2612"
    },
    {
      "channel": 4,
      "note": 45,
      "start": 5.652,
      "duration": 0.1167,
      "velocity": 100,
      "chip": "ym2612"
    },
    {
      "channel": 3,
      "note": 79,
      "start": 5.6546,
      "duration": 0.0007,
      "velocity": 124,
      "chip": "ym2612"
    },
    {
      "channel": 3,
      "note": 103,
      "start": 5.6576,
      "duration": 0.0711,
      "velocity": 127,
      "chip": "ym2612"
    },
    {
      "channel": 4,
      "note": 48,
      "start": 5.7918,
      "duration": 0.097,
      "velocity": 100,
      "chip": "ym2612"
    },
    {
      "channel": 3,
      "note": 79,
      "start": 5.7946,
      "duration": 0.0742,
      "velocity": 124,
      "chip": "ym2612"
    },
    {
      "channel": 4,
      "note": 45,
      "start": 5.9121,
      "duration": 0.1167,
      "velocity": 100,
      "chip": "ym2612"
    },
    {
      "channel": 3,
      "note": 79,
      "start": 5.9146,
      "duration": 0.0007,
      "velocity": 124,
      "chip": "ym2612"
    },
    {
      "channel": 3,
      "note": 103,
      "start": 5.9176,
      "duration": 0.0911,
      "velocity": 127,
      "chip": "ym2612"
    },
    {
      "channel": 3,
      "note": 79,
      "start": 6.0524,
      "duration": 0.0963,
      "velocity": 124,
      "chip": "ym2612"
    },
    {
      "channel": 4,
      "note": 45,
      "start": 6.1919,
      "duration": 0.1169,
      "velocity": 100,
      "chip": "ym2612"
    },
    {
      "channel": 3,
      "note": 103,
      "start": 6.1951,
      "duration": 0.0737,
      "velocity": 127,
      "chip": "ym2612"
    },
    {
      "channel": 4,
      "note": 48,
      "start": 6.3319,
      "duration": 0.0969,
      "velocity": 100,
      "chip": "ym2612"
    },
    {
      "channel": 2,
      "note": 71,
      "start": 6.4517,
      "duration": 1.0572,
      "velocity": 104,
      "chip": "ym2612"
    },
    {
      "channel": 4,
      "note": 45,
      "start": 6.4544,
      "duration": 0.1144,
      "velocity": 100,
      "chip": "ym2612"
    },
    {
      "channel": 3,
      "note": 103,
      "start": 6.4574,
      "duration": 0.0913,
      "velocity": 127,
      "chip": "ym2612"
    },
    {
      "channel": 4,
      "note": 45,
      "start": 6.7319,
      "duration": 0.1168,
      "velocity": 100,
      "chip": "ym2612"
    },
    {
      "channel": 3,
      "note": 103,
      "start": 6.7349,
      "duration": 0.0738,
      "velocity": 127,
      "chip": "ym2612"
    },
    {
      "channel": 4,
      "note": 48,
      "start": 6.8718,
      "duration": 0.0969,
      "velocity": 100,
      "chip": "ym2612"
    },
    {
      "channel": 4,
      "note": 45,
      "start": 6.9919,
      "duration": 0.1168,
      "velocity": 100,
      "chip": "ym2612"
    },
    {
      "channel": 3,
      "note": 103,
      "start": 6.9949,
      "duration": 0.0938,
      "velocity": 127,
      "chip": "ym2612"
    },
    {
      "channel": 4,
      "note": 45,
      "start": 7.2723,
      "duration": 0.0964,
      "velocity": 100,
      "chip": "ym2612"
    },
    {
      "channel": 3,
      "note": 103,
      "start": 7.2753,
      "duration": 0.0734,
      "velocity": 127,
      "chip": "ym2612"
    },
    {
      "channel": 4,
      "note": 48,
      "start": 7.4118,
      "duration": 0.0969,
      "velocity": 100,
      "chip": "ym2612"
    },
    {
      "channel": 2,
      "note": 64,
      "start": 7.5324,
      "duration": 3.2167,
      "velocity": 104,
      "chip": "ym2612"
    },
    {
      "channel": 4,
      "note": 45,
      "start": 7.5351,
      "duration": 0.1137,
      "velocity": 100,
      "chip": "ym2612"
    },
    {
      "channel": 3,
      "note": 103,
      "start": 7.5381,
      "duration": 0.0906,
      "velocity": 127,
      "chip": "ym2612"
    },
    {
      "channel": 4,
      "note": 45,
      "start": 7.8119,
      "duration": 0.0969,
      "velocity": 100,
      "chip": "ym2612"
    },
    {
      "channel": 3,
      "note": 103,
      "start": 7.8149,
      "duration": 0.0738,
      "velocity": 127,
      "chip": "ym2612"
    },
    {
      "channel": 4,
      "note": 48,
      "start": 7.9518,
      "duration": 0.0969,
      "velocity": 100,
      "chip": "ym2612"
    },
    {
      "channel": 4,
      "note": 45,
      "start": 8.0719,
      "duration": 0.1168,
      "velocity": 100,
      "chip": "ym2612"
    },
    {
      "channel": 3,
      "note": 103,
      "start": 8.0749,
      "duration": 0.0938,
      "velocity": 127,
      "chip": "ym2612"
    },
    {
      "channel": 4,
      "note": 45,
      "start": 8.3519,
      "duration": 0.0969,
      "velocity": 100,
      "chip": "ym2612"
    },
    {
      "channel": 3,
      "note": 103,
      "start": 8.3549,
      "duration": 0.0738,
      "velocity": 127,
      "chip": "ym2612"
    },
    {
      "channel": 4,
      "note": 48,
      "start": 8.4719,
      "duration": 0.1169,
      "velocity": 100,
      "chip": "ym2612"
    },
    {
      "channel": 4,
      "note": 45,
      "start": 8.612,
      "duration": 0.1168,
      "velocity": 100,
      "chip": "ym2612"
    },
    {
      "channel": 3,
      "note": 103,
      "start": 8.6149,
      "duration": 0.0938,
      "velocity": 127,
      "chip": "ym2612"
    },
    {
      "channel": 4,
      "note": 45,
      "start": 8.8924,
      "duration": 0.0964,
      "velocity": 100,
      "chip": "ym2612"
    },
    {
      "channel": 3,
      "note": 103,
      "start": 8.8954,
      "duration": 0.0734,
      "velocity": 127,
      "chip": "ym2612"
    },
    {
      "channel": 4,
      "note": 48,
      "start": 9.0119,
      "duration": 0.1169,
      "velocity": 100,
      "chip": "ym2612"
    },
    {
      "channel": 4,
      "note": 45,
      "start": 9.1519,
      "duration": 0.1168,
      "velocity": 100,
      "chip": "ym2612"
    },
    {
      "channel": 3,
      "note": 103,
      "start": 9.1553,
      "duration": 0.0934,
      "velocity": 127,
      "chip": "ym2612"
    },
    {
      "channel": 4,
      "note": 45,
      "start": 9.4319,
      "duration": 0.0969,
      "velocity": 100,
      "chip": "ym2612"
    },
    {
      "channel": 3,
      "note": 103,
      "start": 9.4349,
      "duration": 0.0738,
      "velocity": 127,
      "chip": "ym2612"
    },
    {
      "channel": 4,
      "note": 48,
      "start": 9.5519,
      "duration": 0.1168,
      "velocity": 100,
      "chip": "ym2612"
    },
    {
      "channel": 4,
      "note": 45,
      "start": 9.6919,
      "duration": 0.1168,
      "velocity": 100,
      "chip": "ym2612"
    },
    {
      "channel": 3,
      "note": 103,
      "start": 9.6949,
      "duration": 0.0938,
      "velocity": 127,
      "chip": "ym2612"
    },
    {
      "channel": 4,
      "note": 45,
      "start": 9.9719,
      "duration": 0.0969,
      "velocity": 100,
      "chip": "ym2612"
    },
    {
      "channel": 3,
      "note": 103,
      "start": 9.9749,
      "duration": 0.0738,
      "velocity": 127,
      "chip": "ym2612"
    },
    {
      "channel": 4,
      "note": 48,
      "start": 10.0918,
      "duration": 0.117,
      "velocity": 100,
      "chip": "ym2612"
    },
    {
      "channel": 4,
      "note": 45,
      "start": 10.2321,
      "duration": 0.1167,
      "velocity": 100,
      "chip": "ym2612"
    },
    {
      "channel": 3,
      "note": 103,
      "start": 10.235,
      "duration": 0.0937,
      "velocity": 127,
      "chip": "ym2612"
    },
    {
      "channel": 4,
      "note": 45,
      "start": 10.5119,
      "duration": 0.0969,
      "velocity": 100,
      "chip": "ym2612"
    },
    {
      "channel": 3,
      "note": 103,
      "start": 10.5149,
      "duration": 0.0738,
      "velocity": 127,
      "chip": "ym2612"
    },
    {
      "channel": 4,
      "note": 48,
      "start": 10.6322,
      "duration": 0.1166,
      "velocity": 100,
      "chip": "ym2612"
    },
    {
      "channel": 2,
      "note": 71,
      "start": 10.772,
      "duration": 1.0569,
      "velocity": 104,
      "chip": "ym2612"
    },
    {
      "channel": 0,
      "note": 83,
      "start": 10.7749,
      "duration": 8.3337,
      "velocity": 104,
      "chip": "ym2612"
    },
    {
      "channel": 1,
      "note": 79,
      "start": 10.7772,
      "duration": 8.3315,
      "velocity": 104,
      "chip": "ym2612"
    },
    {
      "channel": 5,
      "note": 76,
      "start": 10.7799,
      "duration": 8.3289,
      "velocity": 104,
      "chip": "ym2612"
    },
    {
      "channel": 4,
      "note": 52,
      "start": 10.7827,
      "duration": 0.1061,
      "velocity": 100,
      "chip": "ym2612"
    },
    {
      "channel": 3,
      "note": 103,
      "start": 10.7856,
      "duration": 0.0631,
      "velocity": 127,
      "chip": "ym2612"
    },
    {
      "channel": 4,
      "note": 52,
      "start": 11.0319,
      "duration": 0.1169,
      "velocity": 100,
      "chip": "ym2612"
    },
    {
      "channel": 3,
      "note": 103,
      "start": 11.0349,
      "duration": 0.0938,
      "velocity": 127,
      "chip": "ym2612"
    },
    {
      "channel": 4,
      "note": 53,
      "start": 11.1719,
      "duration": 0.1169,
      "velocity": 100,
      "chip": "ym2612"
    },
    {
      "channel": 4,
      "note": 52,
      "start": 11.3119,
      "duration": 0.1169,
      "velocity": 100,
      "chip": "ym2612"
    },
    {
      "channel": 3,
      "note": 103,
      "start": 11.3149,
      "duration": 0.0738,
      "velocity": 127,
      "chip": "ym2612"
    },
    {
      "channel": 4,
      "note": 52,
      "start": 11.5719,
      "duration": 0.1168,
      "velocity": 100,
      "chip": "ym2612"
    },
    {
      "channel": 3,
      "note": 103,
      "start": 11.5749,
      "duration": 0.0938,
      "velocity": 127,
      "chip": "ym2612"
    },
    {
      "channel": 4,
      "note": 53,
      "start": 11.7118,
      "duration": 0.1169,
      "velocity": 100,
      "chip": "ym2612"
    },
    {
      "channel": 2,
      "note": 72,
      "start": 11.8524,
      "duration": 0.5165,
      "velocity": 104,
      "chip": "ym2612"
    },
    {
      "channel": 4,
      "note": 52,
      "start": 11.8552,
      "duration": 0.1136,
      "velocity": 100,
      "chip": "ym2612"
    },
    {
      "channel": 3,
      "note": 103,
      "start": 11.8582,
      "duration": 0.0705,
      "velocity": 127,
      "chip": "ym2612"
    },
    {
      "channel": 4,
      "note": 52,
      "start": 12.1119,
      "duration": 0.1168,
      "velocity": 100,
      "chip": "ym2612"
    },
    {
      "channel": 3,
      "note": 79,
      "start": 12.1148,
      "duration": 0.0007,
      "velocity": 124,
      "chip": "ym2612"
    },
    {
      "channel": 3,
      "note": 103,
      "start": 12.1178,
      "duration": 0.091,
      "velocity": 127,
      "chip": "ym2612"
    },
    {
      "channel": 4,
      "note": 53,
      "start": 12.2517,
      "duration": 0.117,
      "velocity": 100,
      "chip": "ym2612"
    },
    {
      "channel": 3,
      "note": 79,
      "start": 12.2549,
      "duration": 0.0938,
      "velocity": 124,
      "chip": "ym2612"
    },
    {
      "channel": 2,
      "note": 71,
      "start": 12.3918,
      "duration": 0.5172,
      "velocity": 104,
      "chip": "ym2612"
    },
    {
      "channel": 4,
      "note": 52,
      "start": 12.3949,
      "duration": 0.0938,
      "velocity": 100,
      "chip": "ym2612"
    },
    {
      "channel": 3,
      "note": 79,
      "start": 12.3976,
      "duration": 0.0007,
      "velocity": 124,
      "chip": "ym2612"
    },
    {
      "channel": 3,
      "note": 103,
      "start": 12.4005,
      "duration": 0.0682,
      "velocity": 127,
      "chip": "ym2612"
    },
    {
      "channel": 3,
      "note": 79,
      "start": 12.5321,
      "duration": 0.0766,
      "velocity": 124,
      "chip": "ym2612"
    },
    {
      "channel": 4,
      "note": 52,
      "start": 12.652,
      "duration": 0.1167,
      "velocity": 100,
      "chip": "ym2612"
    },
    {
      "channel": 3,
      "note": 79,
      "start": 12.6547,
      "duration": 0.0007,
      "velocity": 124,
      "chip": "ym2612"
    },
    {
      "channel": 3,
      "note": 103,
      "start": 12.6577,
      "duration": 0.091,
      "velocity": 127,
      "chip": "ym2612"
    },
    {
      "channel": 4,
      "note": 53,
      "start": 12.7918,
      "duration": 0.117,
      "velocity": 100,
      "chip": "ym2612"
    },
    {
      "channel": 2,
      "note": 74,
      "start": 12.932,
      "duration": 1.0569,
      "velocity": 104,
      "chip": "ym2612"
    },
    {
      "channel": 4,
      "note": 52,
      "start": 12.9348,
      "duration": 0.0939,
      "velocity": 100,
      "chip": "ym2612"
    },
    {
      "channel": 3,
      "note": 103,
      "start": 12.9378,
      "duration": 0.0709,
      "velocity": 127,
      "chip": "ym2612"
    },
    {
      "channel": 4,
      "note": 52,
      "start": 13.1919,
      "duration": 0.1169,
      "velocity": 100,
      "chip": "ym2612"
    },
    {
      "channel": 3,
      "note": 79,
      "start": 13.1948,
      "duration": 0.0007,
      "velocity": 124,
      "chip": "ym2612"
    },
    {
      "channel": 3,
      "note": 103,
      "start": 13.1978,
      "duration": 0.091,
      "velocity": 127,
      "chip": "ym2612"
    },
    {
      "channel": 4,
      "note": 53,
      "start": 13.3319,
      "duration": 0.1169,
      "velocity": 100,
      "chip": "ym2612"
    },
    {
      "channel": 3,
      "note": 79,
      "start": 13.3346,
      "duration": 0.0741,
      "velocity": 124,
      "chip": "ym2612"
    },
    {
      "channel": 4,
      "note": 52,
      "start": 13.472,
      "duration": 0.0968,
      "velocity": 100,
      "chip": "ym2612"
    },
    {
      "channel": 3,
      "note": 79,
      "start": 13.4747,
      "duration": 0.0012,
      "velocity": 124,
      "chip": "ym2612"
    },
    {
      "channel": 3,
      "note": 103,
      "start": 13.478,
      "duration": 0.0707,
      "velocity": 127,
      "chip": "ym2612"
    },
    {
      "channel": 4,
      "note": 52,
      "start": 13.7319,
      "duration": 0.1169,
      "velocity": 100,
      "chip": "ym2612"
    },
    {
      "channel": 3,
      "note": 103,
      "start": 13.7349,
      "duration": 0.0938,
      "velocity": 127,
      "chip": "ym2612"
    },
    {
      "channel": 4,
      "note": 53,
      "start": 13.8718,
      "duration": 0.1169,
      "velocity": 100,
      "chip": "ym2612"
    },
    {
      "channel": 2,
      "note": 72,
      "start": 14.0117,
      "duration": 1.0372,
      "velocity": 104,
      "chip": "ym2612"
    },
    {
      "channel": 4,
      "note": 52,
      "start": 14.0149,
      "duration": 0.0939,
      "velocity": 100,
      "chip": "ym2612"
    },
    {
      "channel": 3,
      "note": 103,
      "start": 14.0179,
      "duration": 0.0708,
      "velocity": 127,
      "chip": "ym2612"
    },
    {
      "channel": 4,
      "note": 52,
      "start": 14.2719,
      "duration": 0.1168,
      "velocity": 100,
      "chip": "ym2612"
    },
    {
      "channel": 3,
      "note": 79,
      "start": 14.2749,
      "duration": 0.0007,
      "velocity": 124,
      "chip": "ym2612"
    },
    {
      "channel": 3,
      "note": 103,
      "start": 14.2778,
      "duration": 0.0909,
      "velocity": 127,
      "chip": "ym2612"
    },
    {
      "channel": 4,
      "note": 53,
      "start": 14.4118,
      "duration": 0.117,
      "velocity": 100,
      "chip": "ym2612"
    },
    {
      "channel": 3,
      "note": 79,
      "start": 14.4146,
      "duration": 0.0742,
      "velocity": 124,
      "chip": "ym2612"
    },
    {
      "channel": 4,
      "note": 52,
      "start": 14.5521,
      "duration": 0.0967,
      "velocity": 100,
      "chip": "ym2612"
    },
    {
      "channel": 3,
      "note": 79,
      "start": 14.5549,
      "duration": 0.0007,
      "velocity": 124,
      "chip": "ym2612"
    },
    {
      "channel": 3,
      "note": 103,
      "start": 14.5579,
      "duration": 0.0709,
      "velocity": 127,
      "chip": "ym2612"
    },
    {
      "channel": 4,
      "note": 52,
      "start": 14.812,
      "duration": 0.1168,
      "velocity": 100,
      "chip": "ym2612"
    },
    {
      "channel": 3,
      "note": 103,
      "start": 14.815,
      "duration": 0.0937,
      "velocity": 127,
      "chip": "ym2612"
    },
    {
      "channel": 4,
      "note": 53,
      "start": 14.9519,
      "duration": 0.0969,
      "velocity": 100,
      "chip": "ym2612"
    },
    {
      "channel": 2,
      "note": 71,
      "start": 15.0922,
      "duration": 4.2768,
      "velocity": 104,
      "chip": "ym2612"
    },
    {
      "channel": 4,
      "note": 52,
      "start": 15.095,
      "duration": 0.0938,
      "velocity": 100,
      "chip": "ym2612"
    },
    {
      "channel": 3,
      "note": 103,
      "start": 15.098,
      "duration": 0.0707,
      "velocity": 127,
      "chip": "ym2612"
    },
    {
      "channel": 4,
      "note": 52,
      "start": 15.3519,
      "duration": 0.1168,
      "velocity": 100,
      "chip": "ym2612"
    },
    {
      "channel": 3,
      "note": 103,
      "start": 15.3549,
      "duration": 0.0938,
      "velocity": 127,
      "chip": "ym2612"
    },
    {
      "channel": 4,
      "note": 53,
      "start": 15.4918,
      "duration": 0.0969,
      "velocity": 100,
      "chip": "ym2612"
    },
    {
      "channel": 4,
      "note": 52,
      "start": 15.6319,
      "duration": 0.0968,
      "velocity": 100,
      "chip": "ym2612"
    },
    {
      "channel": 3,
      "note": 103,
      "start": 15.6349,
      "duration": 0.0738,
      "velocity": 127,
      "chip": "ym2612"
    },
    {
      "channel": 4,
      "note": 52,
      "start": 15.8923,
      "duration": 0.1164,
      "velocity": 100,
      "chip": "ym2612"
    },
    {
      "channel": 3,
      "note": 103,
      "start": 15.8953,
      "duration": 0.0734,
      "velocity": 127,
      "chip": "ym2612"
    },
    {
      "channel": 4,
      "note": 53,
      "start": 16.0318,
      "duration": 0.0969,
      "velocity": 100,
      "chip": "ym2612"
    },
    {
      "channel": 4,
      "note": 52,
      "start": 16.1519,
      "duration": 0.1168,
      "velocity": 100,
      "chip": "ym2612"
    },
    {
      "channel": 3,
      "note": 103,
      "start": 16.1549,
      "duration": 0.0938,
      "velocity": 127,
      "chip": "ym2612"
    },
    {
      "channel": 4,
      "note": 52,
      "start": 16.4319,
      "duration": 0.1168,
      "velocity": 100,
      "chip": "ym2612"
    },
    {
      "channel": 3,
      "note": 103,
      "start": 16.4349,
      "duration": 0.0738,
      "velocity": 127,
      "chip": "ym2612"
    },
    {
      "channel": 4,
      "note": 53,
      "start": 16.5718,
      "duration": 0.0969,
      "velocity": 100,
      "chip": "ym2612"
    },
    {
      "channel": 4,
      "note": 52,
      "start": 16.6919,
      "duration": 0.1168,
      "velocity": 100,
      "chip": "ym2612"
    },
    {
      "channel": 3,
      "note": 103,
      "start": 16.6949,
      "duration": 0.0938,
      "velocity": 127,
      "chip": "ym2612"
    },
    {
      "channel": 4,
      "note": 52,
      "start": 16.9719,
      "duration": 0.1169,
      "velocity": 100,
      "chip": "ym2612"
    },
    {
      "channel": 3,
      "note": 103,
      "start": 16.9749,
      "duration": 0.0738,
      "velocity": 127,
      "chip": "ym2612"
    },
    {
      "channel": 4,
      "note": 53,
      "start": 17.1119,
      "duration": 0.0969,
      "velocity": 100,
      "chip": "ym2612"
    },
    {
      "channel": 4,
      "note": 52,
      "start": 17.232,
      "duration": 0.1168,
      "velocity": 100,
      "chip": "ym2612"
    },
    {
      "channel": 3,
      "note": 103,
      "start": 17.2349,
      "duration": 0.0938,
      "velocity": 127,
      "chip": "ym2612"
    },
    {
      "channel": 4,
      "note": 52,
      "start": 17.5122,
      "duration": 0.0966,
      "velocity": 100,
      "chip": "ym2612"
    },
    {
      "channel": 3,
      "note": 103,
      "start": 17.5153,
      "duration": 0.0735,
      "velocity": 127,
      "chip": "ym2612"
    },
    {
      "channel": 4,
      "note": 53,
      "start": 17.6519,
      "duration": 0.0969,
      "velocity": 100,
      "chip": "ym2612"
    },
    {
      "channel": 4,
      "note": 52,
      "start": 17.772,
      "duration": 0.1167,
      "velocity": 100,
      "chip": "ym2612"
    },
    {
      "channel": 3,
      "note": 103,
      "start": 17.7753,
      "duration": 0.0934,
      "velocity": 127,
      "chip": "ym2612"
    },
    {
      "channel": 4,
      "note": 52,
      "start": 18.0519,
      "duration": 0.0969,
      "velocity": 100,
      "chip": "ym2612"
    },
    {
      "channel": 3,
      "note": 103,
      "start": 18.0549,
      "duration": 0.0738,
      "velocity": 127,
      "chip": "ym2612"
    },
    {
      "channel": 4,
      "note": 53,
      "start": 18.1919,
      "duration": 0.0969,
      "velocity": 100,
      "chip": "ym2612"
    },
    {
      "channel": 4,
      "note": 52,
      "start": 18.312,
      "duration": 0.1168,
      "velocity": 100,
      "chip": "ym2612"
    },
    {
      "channel": 3,
      "note": 103,
      "start": 18.315,
      "duration": 0.0937,
      "velocity": 127,
      "chip": "ym2612"
    },
    {
      "channel": 4,
      "note": 52,
      "start": 18.5921,
      "duration": 0.0967,
      "velocity": 100,
      "chip": "ym2612"
    },
    {
      "channel": 3,
      "note": 103,
      "start": 18.595,
      "duration": 0.0737,
      "velocity": 127,
      "chip": "ym2612"
    },
    {
      "channel": 4,
      "note": 53,
      "start": 18.7118,
      "duration": 0.1169,
      "velocity": 100,
      "chip": "ym2612"
    },
    {
      "channel": 4,
      "note": 52,
      "start": 18.8519,
      "duration": 0.1168,
      "velocity": 100,
      "chip": "ym2612"
    },
    {
      "channel": 3,
      "note": 103,
      "start": 18.8549,
      "duration": 0.0938,
      "velocity": 127,
      "chip": "ym2612"
    },
    {
      "channel": 4,
      "note": 52,
      "start": 19.1319,
      "duration": 0.0969,
      "velocity": 100,
      "chip": "ym2612"
    },
    {
      "channel": 3,
      "note": 103,
      "start": 19.1349,
      "duration": 0.0738,
      "velocity": 127,
      "chip": "ym2612"
    },
    {
      "channel": 4,
      "note": 53,
      "start": 19.2522,
      "duration": 0.1166,
      "velocity": 100,
      "chip": "ym2612"
    },
    {
      "channel": 2,
      "note": 69,
      "start": 19.3923,
      "duration": 1.5966,
      "velocity": 104,
      "chip": "ym2612"
    },
    {
      "channel": 0,
      "note": 84,
      "start": 19.3951,
      "duration": 4.2934,
      "velocity": 104,
      "chip": "ym2612"
    },
    {
      "channel": 1,
      "note": 74,
      "start": 19.3981,
      "duration": 8.3307,
      "velocity": 104,
      "chip": "ym2612"
    },
    {
      "channel": 5,
      "note": 77,
      "start": 19.4009,
      "duration": 8.3281,
      "velocity": 104,
      "chip": "ym2612"
    },
    {
      "channel": 4,
      "note": 50,
      "start": 19.4036,
      "duration": 0.1052,
      "velocity": 100,
      "chip": "ym2612"
    },
    {
      "channel": 3,
      "note": 103,
      "start": 19.4066,
      "duration": 0.0821,
      "velocity": 127,
      "chip": "ym2612"
    },
    {
      "channel": 4,
      "note": 50,
      "start": 19.6719,
      "duration": 0.0969,
      "velocity": 100,
      "chip": "ym2612"
    },
    {
      "channel": 3,
      "note": 103,
      "start": 19.6749,
      "duration": 0.0738,
      "velocity": 127,
      "chip": "ym2612"
    },
    {
      "channel": 4,
      "note": 53,
      "start": 19.7919,
      "duration": 0.1169,
      "velocity": 100,
      "chip": "ym2612"
    },
    {
      "channel": 4,
      "note": 50,
      "start": 19.9319,
      "duration": 0.1169,
      "velocity": 100,
      "chip": "ym2612"
    },
    {
      "channel": 3,
      "note": 103,
      "start": 19.9349,
      "duration": 0.0938,
      "velocity": 127,
      "chip": "ym2612"
    },
    {
      "channel": 4,
      "note": 50,
      "start": 20.2119,
      "duration": 0.0968,
      "velocity": 100,
      "chip": "ym2612"
    },
    {
      "channel": 3,
      "note": 103,
      "start": 20.2149,
      "duration": 0.0738,
      "velocity": 127,
      "chip": "ym2612"
    },
    {
      "channel": 4,
      "note": 53,
      "start": 20.3318,
      "duration": 0.1169,
      "velocity": 100,
      "chip": "ym2612"
    },
    {
      "channel": 4,
      "note": 50,
      "start": 20.4719,
      "duration": 0.1168,
      "velocity": 100,
      "chip": "ym2612"
    },
    {
      "channel": 3,
      "note": 103,
      "start": 20.4749,
      "duration": 0.0938,
      "velocity": 127,
      "chip": "ym2612"
    },
    {
      "channel": 3,
      "note": 79,
      "start": 20.6126,
      "duration": 0.0761,
      "velocity": 124,
      "chip": "ym2612"
    },
    {
      "channel": 4,
      "note": 50,
      "start": 20.7519,
      "duration": 0.0969,
      "velocity": 100,
      "chip": "ym2612"
    },
    {
      "channel": 3,
      "note": 79,
      "start": 20.7547,
      "duration": 0.0007,
      "velocity": 124,
      "chip": "ym2612"
    },
    {
      "channel": 3,
      "note": 103,
      "start": 20.7576,
      "duration": 0.0711,
      "velocity": 127,
      "chip": "ym2612"
    },
    {
      "channel": 4,
      "note": 53,
      "start": 20.8719,
      "duration": 0.1169,
      "velocity": 100,
      "chip": "ym2612"
    },
    {
      "channel": 2,
      "note": 64,
      "start": 21.0123,
      "duration": 0.5166,
      "velocity": 104,
      "chip": "ym2612"
    },
    {
      "channel": 4,
      "note": 50,
      "start": 21.0155,
      "duration": 0.1132,
      "velocity": 100,
      "chip": "ym2612"
    },
    {
      "channel": 3,
      "note": 103,
      "start": 21.0185,
      "duration": 0.0702,
      "velocity": 127,
      "chip": "ym2612"
    },
    {
      "channel": 4,
      "note": 50,
      "start": 21.2719,
      "duration": 0.1169,
      "velocity": 100,
      "chip": "ym2612"
    },
    {
      "channel": 3,
      "note": 79,
      "start": 21.2748,
      "duration": 0.0007,
      "velocity": 124,
      "chip": "ym2612"
    },
    {
      "channel": 3,
      "note": 103,
      "start": 21.2778,
      "duration": 0.091,
      "velocity": 127,
      "chip": "ym2612"
    },
    {
      "channel": 4,
      "note": 53,
      "start": 21.4119,
      "duration": 0.1169,
      "velocity": 100,
      "chip": "ym2612"
    },
    {
      "channel": 3,
      "note": 79,
      "start": 21.4146,
      "duration": 0.0941,
      "velocity": 124,
      "chip": "ym2612"
    },
    {
      "channel": 2,
      "note": 72,
      "start": 21.5522,
      "duration": 2.1367,
      "velocity": 104,
      "chip": "ym2612"
    },
    {
      "channel": 4,
      "note": 50,
      "start": 21.555,
      "duration": 0.1138,
      "velocity": 100,
      "chip": "ym2612"
    },
    {
      "channel": 3,
      "note": 79,
      "start": 21.5576,
      "duration": 0.0007,
      "velocity": 124,
      "chip": "ym2612"
    },
    {
      "channel": 3,
      "note": 103,
      "start": 21.5606,
      "duration": 0.0682,
      "velocity": 127,
      "chip": "ym2612"
    },
    {
      "channel": 3,
      "note": 79,
      "start": 21.6922,
      "duration": 0.0765,
      "velocity": 124,
      "chip": "ym2612"
    },
    {
      "channel": 4,
      "note": 50,
      "start": 21.8119,
      "duration": 0.1169,
      "velocity": 100,
      "chip": "ym2612"
    },
    {
      "channel": 3,
      "note": 79,
      "start": 21.8145,
      "duration": 0.0008,
      "velocity": 124,
      "chip": "ym2612"
    },
    {
      "channel": 3,
      "note": 103,
      "start": 21.8174,
      "duration": 0.0913,
      "velocity": 127,
      "chip": "ym2612"
    },
    {
      "channel": 4,
      "note": 53,
      "start": 21.9519,
      "duration": 0.1169,
      "velocity": 100,
      "chip": "ym2612"
    },
    {
      "channel": 3,
      "note": 79,
      "start": 21.9546,
      "duration": 0.0941,
      "velocity": 124,
      "chip": "ym2612"
    },
    {
      "channel": 4,
      "note": 50,
      "start": 22.092,
      "duration": 0.1168,
      "velocity": 100,
      "chip": "ym2612"
    },
    {
      "channel": 3,
      "note": 79,
      "start": 22.0947,
      "duration": 0.0012,
      "velocity": 124,
      "chip": "ym2612"
    },
    {
      "channel": 3,
      "note": 103,
      "start": 22.098,
      "duration": 0.0707,
      "velocity": 127,
      "chip": "ym2612"
    },
    {
      "channel": 4,
      "note": 50,
      "start": 22.3519,
      "duration": 0.1168,
      "velocity": 100,
      "chip": "ym2612"
    },
    {
      "channel": 3,
      "note": 103,
      "start": 22.3549,
      "duration": 0.0938,
      "velocity": 127,
      "chip": "ym2612"
    },
    {
      "channel": 4,
      "note": 53,
      "start": 22.4918,
      "duration": 0.117,
      "velocity": 100,
      "chip": "ym2612"
    },
    {
      "channel": 4,
      "note": 50,
      "start": 22.6324,
      "duration": 0.0963,
      "velocity": 100,
      "chip": "ym2612"
    },
    {
      "channel": 3,
      "note": 79,
      "start": 22.6353,
      "duration": 0.0007,
      "velocity": 124,
      "chip": "ym2612"
    },
    {
      "channel": 3,
      "note": 103,
      "start": 22.6383,
      "duration": 0.0704,
      "velocity": 127,
      "chip": "ym2612"
    },
    {
      "channel": 3,
      "note": 79,
      "start": 22.7721,
      "duration": 0.0766,
      "velocity": 124,
      "chip": "ym2612"
    },
    {
      "channel": 4,
      "note": 50,
      "start": 22.892,
      "duration": 0.1168,
      "velocity": 100,
      "chip": "ym2612"
    },
    {
      "channel": 3,
      "note": 79,
      "start": 22.895,
      "duration": 0.0007,
      "velocity": 124,
      "chip": "ym2612"
    },
    {
      "channel": 3,
      "note": 103,
      "start": 22.8979,
      "duration": 0.0908,
      "velocity": 127,
      "chip": "ym2612"
    },
    {
      "channel": 4,
      "note": 53,
      "start": 23.0319,
      "duration": 0.1169,
      "velocity": 100,
      "chip": "ym2612"
    },
    {
      "channel": 3,
      "note": 79,
      "start": 23.0346,
      "duration": 0.0941,
      "velocity": 124,
      "chip": "ym2612"
    },
    {
      "channel": 4,
      "note": 50,
      "start": 23.172,
      "duration": 0.0967,
      "velocity": 100,
      "chip": "ym2612"
    },
    {
      "channel": 3,
      "note": 79,
      "start": 23.1747,
      "duration": 0.0008,
      "velocity": 124,
      "chip": "ym2612"
    },
    {
      "channel": 3,
      "note": 103,
      "start": 23.1776,
      "duration": 0.0711,
      "velocity": 127,
      "chip": "ym2612"
    },
    {
      "channel": 4,
      "note": 50,
      "start": 23.4319,
      "duration": 0.1168,
      "velocity": 100,
      "chip": "ym2612"
    },
    {
      "channel": 3,
      "note": 103,
      "start": 23.4349,
      "duration": 0.0938,
      "velocity": 127,
      "chip": "ym2612"
    },
    {
      "channel": 4,
      "note": 53,
      "start": 23.5718,
      "duration": 0.1169,
      "velocity": 100,
      "chip": "ym2612"
    },
    {
      "channel": 2,
      "note": 71,
      "start": 23.7122,
      "duration": 4.2766,
      "velocity": 104,
      "chip": "ym2612"
    },
    {
      "channel": 0,
      "note": 83,
      "start": 23.7149,
      "duration": 4.0137,
      "velocity": 104,
      "chip": "ym2612"
    },
    {
      "channel": 4,
      "note": 50,
      "start": 23.7177,
      "duration": 0.0911,
      "velocity": 100,
      "chip": "ym2612"
    },
    {
      "channel": 3,
      "note": 103,
      "start": 23.7206,
      "duration": 0.0681,
      "velocity": 127,
      "chip": "ym2612"
    },
    {
      "channel": 4,
      "note": 50,
      "start": 23.9719,
      "duration": 0.1168,
      "velocity": 100,
      "chip": "ym2612"
    },
    {
      "channel": 3,
      "note": 79,
      "start": 23.9748,
      "duration": 0.0008,
      "velocity": 124,
      "chip": "ym2612"
    },
    {
      "channel": 3,
      "note": 103,
      "start": 23.9778,
      "duration": 0.0909,
      "velocity": 127,
      "chip": "ym2612"
    },
    {
      "channel": 4,
      "note": 53,
      "start": 24.1117,
      "duration": 0.117,
      "velocity": 100,
      "chip": "ym2612"
    },
    {
      "channel": 3,
      "note": 79,
      "start": 24.1148,
      "duration": 0.0739,
      "velocity": 124,
      "chip": "ym2612"
    },
    {
      "channel": 4,
      "note": 50,
      "start": 24.252,
      "duration": 0.0968,
      "velocity": 100,
      "chip": "ym2612"
    },
    {
      "channel": 3,
      "note": 103,
      "start": 24.2551,
      "duration": 0.0736,
      "velocity": 127,
      "chip": "ym2612"
    },
    {
      "channel": 4,
      "note": 50,
      "start": 24.5123,
      "duration": 0.1164,
      "velocity": 100,
      "chip": "ym2612"
    },
    {
      "channel": 3,
      "note": 103,
      "start": 24.5153,
      "duration": 0.0934,
      "velocity": 127,
      "chip": "ym2612"
    },
    {
      "channel": 4,
      "note": 53,
      "start": 24.6518,
      "duration": 0.1169,
      "velocity": 100,
      "chip": "ym2612"
    },
    {
      "channel": 4,
      "note": 50,
      "start": 24.7921,
      "duration": 0.0967,
      "velocity": 100,
      "chip": "ym2612"
    },
    {
      "channel": 3,
      "note": 103,
      "start": 24.795,
      "duration": 0.0737,
      "velocity": 127,
      "chip": "ym2612"
    },
    {
      "channel": 4,
      "note": 50,
      "start": 25.0519,
      "duration": 0.1168,
      "velocity": 100,
      "chip": "ym2612"
    },
    {
      "channel": 3,
      "note": 103,
      "start": 25.0549,
      "duration": 0.0938,
      "velocity": 127,
      "chip": "ym2612"
    },
    {
      "channel": 4,
      "note": 53,
      "start": 25.1918,
      "duration": 0.0969,
      "velocity": 100,
      "chip": "ym2612"
    },
    {
      "channel": 4,
      "note": 50,
      "start": 25.3319,
      "duration": 0.0968,
      "velocity": 100,
      "chip": "ym2612"
    },
    {
      "channel": 3,
      "note": 103,
      "start": 25.3349,
      "duration": 0.0738,
      "velocity": 127,
      "chip": "ym2612"
    },
    {
      "channel": 4,
      "note": 50,
      "start": 25.5919,
      "duration": 0.1168,
      "velocity": 100,
      "chip": "ym2612"
    },
    {
      "channel": 3,
      "note": 103,
      "start": 25.5949,
      "duration": 0.0938,
      "velocity": 127,
      "chip": "ym2612"
    },
    {
      "channel": 4,
      "note": 53,
      "start": 25.7318,
      "duration": 0.097,
      "velocity": 100,
      "chip": "ym2612"
    },
    {
      "channel": 4,
      "note": 50,
      "start": 25.8721,
      "duration": 0.0967,
      "velocity": 100,
      "chip": "ym2612"
    },
    {
      "channel": 3,
      "note": 103,
      "start": 25.875,
      "duration": 0.0737,
      "velocity": 127,
      "chip": "ym2612"
    },
    {
      "channel": 4,
      "note": 50,
      "start": 26.1323,
      "duration": 0.1164,
      "velocity": 100,
      "chip": "ym2612"
    },
    {
      "channel": 3,
      "note": 103,
      "start": 26.1353,
      "duration": 0.0734,
      "velocity": 127,
      "chip": "ym2612"
    },
    {
      "channel": 4,
      "note": 53,
      "start": 26.2718,
      "duration": 0.0969,
      "velocity": 100,
      "chip": "ym2612"
    },
    {
      "channel": 4,
      "note": 50,
      "start": 26.3919,
      "duration": 0.1169,
      "velocity": 100,
      "chip": "ym2612"
    },
    {
      "channel": 3,
      "note": 103,
      "start": 26.3953,
      "duration": 0.0935,
      "velocity": 127,
      "chip": "ym2612"
    },
    {
      "channel": 4,
      "note": 50,
      "start": 26.6719,
      "duration": 0.1168,
      "velocity": 100,
      "chip": "ym2612"
    },
    {
      "channel": 3,
      "note": 103,
      "start": 26.6749,
      "duration": 0.0738,
      "velocity": 127,
      "chip": "ym2612"
    },
    {
      "channel": 4,
      "note": 53,
      "start": 26.8118,
      "duration": 0.0969,
      "velocity": 100,
      "chip": "ym2612"
    },
    {
      "channel": 4,
      "note": 50,
      "start": 26.9319,
      "duration": 0.1168,
      "velocity": 100,
      "chip": "ym2612"
    },
    {
      "channel": 3,
      "note": 103,
      "start": 26.9349,
      "duration": 0.0938,
      "velocity": 127,
      "chip": "ym2612"
    },
    {
      "channel": 4,
      "note": 50,
      "start": 27.2119,
      "duration": 0.1168,
      "velocity": 100,
      "chip": "ym2612"
    },
    {
      "channel": 3,
      "note": 103,
      "start": 27.2149,
      "duration": 0.0738,
      "velocity": 127,
      "chip": "ym2612"
    },
    {
      "channel": 4,
      "note": 53,
      "start": 27.3518,
      "duration": 0.0969,
      "velocity": 100,
      "chip": "ym2612"
    },
    {
      "channel": 4,
      "note": 50,
      "start": 27.4719,
      "duration": 0.1168,
      "velocity": 100,
      "chip": "ym2612"
    },
    {
      "channel": 3,
      "note": 103,
      "start": 27.4749,
      "duration": 0.0938,
      "velocity": 127,
      "chip": "ym2612"
    },
    {
      "channel": 4,
      "note": 50,
      "start": 27.752,
      "duration": 0.0967,
      "velocity": 100,
      "chip": "ym2612"
    },
    {
      "channel": 3,
      "note": 103,
      "start": 27.755,
      "duration": 0.0737,
      "velocity": 127,
      "chip": "ym2612"
    },
    {
      "channel": 4,
      "note": 53,
      "start": 27.8921,
      "duration": 0.0966,
      "velocity": 100,
      "chip": "ym2612"
    },
    {
      "channel": 2,
      "note": 64,
      "start": 28.0127,
      "duration": 2.1362,
      "velocity": 104,
      "chip": "ym2612"
    },
    {
      "channel": 0,
      "note": 83,
      "start": 28.0155,
      "duration": 8.5931,
      "velocity": 104,
      "chip": "ym2612"
    },
    {
      "channel": 1,
      "note": 77,
      "start": 28.0178,
      "duration": 8.5909,
      "velocity": 104,
      "chip": "ym2612"
    },
    {
      "channel": 5,
      "note": 76,
      "start": 28.0206,
      "duration": 8.5884,
      "velocity": 104,
      "chip": "ym2612"
    },
    {
      "channel": 4,
      "note": 52,
      "start": 28.0233,
      "duration": 0.1055,
      "velocity": 100,
      "chip": "ym2612"
    },
    {
      "channel": 3,
      "note": 103,
      "start": 28.0263,
      "duration": 0.0825,
      "velocity": 127,
      "chip": "ym2612"
    },
    {
      "channel": 4,
      "note": 52,
      "start": 28.2919,
      "duration": 0.0968,
      "velocity": 100,
      "chip": "ym2612"
    },
    {
      "channel": 3,
      "note": 103,
      "start": 28.2949,
      "duration": 0.0738,
      "velocity": 127,
      "chip": "ym2612"
    },
    {
      "channel": 4,
      "note": 53,
      "start": 28.4318,
      "duration": 0.0969,
      "velocity": 100,
      "chip": "ym2612"
    },
    {
      "channel": 4,
      "note": 52,
      "start": 28.5519,
      "duration": 0.1168,
      "velocity": 100,
      "chip": "ym2612"
    },
    {
      "channel": 3,
      "note": 103,
      "start": 28.5549,
      "duration": 0.0938,
      "velocity": 127,
      "chip": "ym2612"
    },
    {
      "channel": 4,
      "note": 52,
      "start": 28.8319,
      "duration": 0.0969,
      "velocity": 100,
      "chip": "ym2612"
    },
    {
      "channel": 3,
      "note": 103,
      "start": 28.8349,
      "duration": 0.0738,
      "velocity": 127,
      "chip": "ym2612"
    },
    {
      "channel": 4,
      "note": 53,
      "start": 28.9519,
      "duration": 0.1169,
      "velocity": 100,
      "chip": "ym2612"
    },
    {
      "channel": 4,
      "note": 52,
      "start": 29.092,
      "duration": 0.1168,
      "velocity": 100,
      "chip": "ym2612"
    },
    {
      "channel": 3,
      "note": 103,
      "start": 29.0949,
      "duration": 0.0938,
      "velocity": 127,
      "chip": "ym2612"
    },
    {
      "channel": 4,
      "note": 52,
      "start": 29.3721,
      "duration": 0.0967,
      "velocity": 100,
      "chip": "ym2612"
    },
    {
      "channel": 3,
      "note": 103,
      "start": 29.375,
      "duration": 0.0737,
      "velocity": 127,
      "chip": "ym2612"
    },
    {
      "channel": 4,
      "note": 53,
      "start": 29.4918,
      "duration": 0.1169,
      "velocity": 100,
      "chip": "ym2612"
    },
    {
      "channel": 4,
      "note": 52,
      "start": 29.6322,
      "duration": 0.1164,
      "velocity": 100,
      "chip": "ym2612"
    },
    {
      "channel": 3,
      "note": 103,
      "start": 29.6353,
      "duration": 0.0935,
      "velocity": 127,
      "chip": "ym2612"
    },
    {
      "channel": 4,
      "note": 52,
      "start": 29.9121,
      "duration": 0.0967,
      "velocity": 100,
      "chip": "ym2612"
    },
    {
      "channel": 3,
      "note": 103,
      "start": 29.915,
      "duration": 0.0737,
      "velocity": 127,
      "chip": "ym2612"
    },
    {
      "channel": 4,
      "note": 53,
      "start": 30.0318,
      "duration": 0.1169,
      "velocity": 100,
      "chip": "ym2612"
    },
    {
      "channel": 2,
      "note": 77,
      "start": 30.1717,
      "duration": 2.1373,
      "velocity": 104,
      "chip": "ym2612"
    },
    {
      "channel": 4,
      "note": 52,
      "start": 30.1746,
      "duration": 0.1142,
      "velocity": 100,
      "chip": "ym2612"
    },
    {
      "channel": 3,
      "note": 103,
      "start": 30.1776,
      "duration": 0.0911,
      "velocity": 127,
      "chip": "ym2612"
    },
    {
      "channel": 4,
      "note": 52,
      "start": 30.4519,
      "duration": 0.0969,
      "velocity": 100,
      "chip": "ym2612"
    },
    {
      "channel": 3,
      "note": 103,
      "start": 30.4549,
      "duration": 0.0738,
      "velocity": 127,
      "chip": "ym2612"
    },
    {
      "channel": 4,
      "note": 53,
      "start": 30.5719,
      "duration": 0.1169,
      "velocity": 100,
      "chip": "ym2612"
    },
    {
      "channel": 4,
      "note": 52,
      "start": 30.7119,
      "duration": 0.1168,
      "velocity": 100,
      "chip": "ym2612"
    },
    {
      "channel": 3,
      "note": 103,
      "start": 30.7153,
      "duration": 0.0934,
      "velocity": 127,
      "chip": "ym2612"
    },
    {
      "channel": 4,
      "note": 52,
      "start": 30.992,
      "duration": 0.0968,
      "velocity": 100,
      "chip": "ym2612"
    },
    {
      "channel": 3,
      "note": 103,
      "start": 30.995,
      "duration": 0.0737,
      "velocity": 127,
      "chip": "ym2612"
    },
    {
      "channel": 4,
      "note": 53,
      "start": 31.1119,
      "duration": 0.1169,
      "velocity": 100,
      "chip": "ym2612"
    },
    {
      "channel": 4,
      "note": 52,
      "start": 31.2522,
      "duration": 0.1166,
      "velocity": 100,
      "chip": "ym2612"
    },
    {
      "channel": 3,
      "note": 103,
      "start": 31.2553,
      "duration": 0.0735,
      "velocity": 127,
      "chip": "ym2612"
    },
    {
      "channel": 4,
      "note": 52,
      "start": 31.5119,
      "duration": 0.1168,
      "velocity": 100,
      "chip": "ym2612"
    },
    {
      "channel": 3,
      "note": 103,
      "start": 31.5149,
      "duration": 0.0938,
      "velocity": 127,
      "chip": "ym2612"
    },
    {
      "channel": 4,
      "note": 53,
      "start": 31.6518,
      "duration": 0.117,
      "velocity": 100,
      "chip": "ym2612"
    },
    {
      "channel": 4,
      "note": 52,
      "start": 31.792,
      "duration": 0.1167,
      "velocity": 100,
      "chip": "ym2612"
    },
    {
      "channel": 3,
      "note": 103,
      "start": 31.795,
      "duration": 0.0737,
      "velocity": 127,
      "chip": "ym2612"
    },
    {
      "channel": 4,
      "note": 52,
      "start": 32.0519,
      "duration": 0.1168,
      "velocity": 100,
      "chip": "ym2612"
    },
    {
      "channel": 3,
      "note": 103,
      "start": 32.0549,
      "duration": 0.0938,
      "velocity": 127,
      "chip": "ym2612"
    },
    {
      "channel": 4,
      "note": 53,
      "start": 32.1918,
      "duration": 0.117,
      "velocity": 100,
      "chip": "ym2612"
    },
    {
      "channel": 2,
      "note": 74,
      "start": 32.3323,
      "duration": 4.2769,
      "velocity": 104,
      "chip": "ym2612"
    },
    {
      "channel": 4,
      "note": 52,
      "start": 32.3351,
      "duration": 0.1136,
      "velocity": 100,
      "chip": "ym2612"
    },
    {
      "channel": 3,
      "note": 103,
      "start": 32.3381,
      "duration": 0.0706,
      "velocity": 127,
      "chip": "ym2612"
    },
    {
      "channel": 4,
      "note": 52,
      "start": 32.5919,
      "duration": 0.1168,
      "velocity": 100,
      "chip": "ym2612"
    },
    {
      "channel": 3,
      "note": 103,
      "start": 32.5949,
      "duration": 0.0938,
      "velocity": 127,
      "chip": "ym2612"
    },
    {
      "channel": 4,
      "note": 53,
      "start": 32.7318,
      "duration": 0.117,
      "velocity": 100,
      "chip": "ym2612"
    },
    {
      "channel": 4,
      "note": 52,
      "start": 32.8721,
      "duration": 0.0967,
      "velocity": 100,
      "chip": "ym2612"
    },
    {
      "channel": 3,
      "note": 103,
      "start": 32.875,
      "duration": 0.0737,
      "velocity": 127,
      "chip": "ym2612"
    },
    {
      "channel": 4,
      "note": 52,
      "start": 33.1323,
      "duration": 0.1164,
      "velocity": 100,
      "chip": "ym2612"
    },
    {
      "channel": 3,
      "note": 103,
      "start": 33.1353,
      "duration": 0.0934,
      "velocity": 127,
      "chip": "ym2612"
    },
    {
      "channel": 4,
      "note": 53,
      "start": 33.2718,
      "duration": 0.117,
      "velocity": 100,
      "chip": "ym2612"
    },
    {
      "channel": 4,
      "note": 52,
      "start": 33.4121,
      "duration": 0.0967,
      "velocity": 100,
      "chip": "ym2612"
    },
    {
      "channel": 3,
      "note": 103,
      "start": 33.415,
      "duration": 0.0737,
      "velocity": 127,
      "chip": "ym2612"
    },
    {
      "channel": 4,
      "note": 52,
      "start": 33.6719,
      "duration": 0.1169,
      "velocity": 100,
      "chip": "ym2612"
    },
    {
      "channel": 3,
      "note": 103,
      "start": 33.6749,
      "duration": 0.0938,
      "velocity": 127,
      "chip": "ym2612"
    },
    {
      "channel": 4,
      "note": 53,
      "start": 33.8119,
      "duration": 0.1169,
      "velocity": 100,
      "chip": "ym2612"
    },
    {
      "channel": 4,
      "note": 52,
      "start": 33.952,
      "duration": 0.0968,
      "velocity": 100,
      "chip": "ym2612"
    },
    {
      "channel": 3,
      "note": 103,
      "start": 33.9549,
      "duration": 0.0738,
      "velocity": 127,
      "chip": "ym2612"
    },
    {
      "channel": 4,
      "note": 52,
      "start": 34.212,
      "duration": 0.1167,
      "velocity": 100,
      "chip": "ym2612"
    },
    {
      "channel": 3,
      "note": 103,
      "start": 34.215,
      "duration": 0.0937,
      "velocity": 127,
      "chip": "ym2612"
    },
    {
      "channel": 4,
      "note": 53,
      "start": 34.3518,
      "duration": 0.1169,
      "velocity": 100,
      "chip": "ym2612"
    },
    {
      "channel": 4,
      "note": 52,
      "start": 34.492,
      "duration": 0.0968,
      "velocity": 100,
      "chip": "ym2612"
    },
    {
      "channel": 3,
      "note": 103,
      "start": 34.4949,
      "duration": 0.0738,
      "velocity": 127,
      "chip": "ym2612"
    },
    {
      "channel": 4,
      "note": 52,
      "start": 34.7522,
      "duration": 0.1166,
      "velocity": 100,
      "chip": "ym2612"
    },
    {
      "channel": 3,
      "note": 103,
      "start": 34.7553,
      "duration": 0.0935,
      "velocity": 127,
      "chip": "ym2612"
    },
    {
      "channel": 4,
      "note": 53,
      "start": 34.8919,
      "duration": 0.1169,
      "velocity": 100,
      "chip": "ym2612"
    },
    {
      "channel": 4,
      "note": 52,
      "start": 35.032,
      "duration": 0.0967,
      "velocity": 100,
      "chip": "ym2612"
    },
    {
      "channel": 3,
      "note": 103,
      "start": 35.0353,
      "duration": 0.0734,
      "velocity": 127,
      "chip": "ym2612"
    },
    {
      "channel": 4,
      "note": 52,
      "start": 35.2919,
      "duration": 0.1169,
      "velocity": 100,
      "chip": "ym2612"
    },
    {
      "channel": 3,
      "note": 103,
      "start": 35.2949,
      "duration": 0.0938,
      "velocity": 127,
      "chip": "ym2612"
    },
    {
      "channel": 4,
      "note": 53,
      "start": 35.4319,
      "duration": 0.0969,
      "velocity": 100,
      "chip": "ym2612"
    },
    {
      "channel": 4,
      "note": 52,
      "start": 35.572,
      "duration": 0.0968,
      "velocity": 100,
      "chip": "ym2612"
    },
    {
      "channel": 3,
      "note": 103,
      "start": 35.5749,
      "duration": 0.0738,
      "velocity": 127,
      "chip": "ym2612"
    },
    {
      "channel": 4,
      "note": 52,
      "start": 35.8319,
      "duration": 0.1168,
      "velocity": 100,
      "chip": "ym2612"
    },
    {
      "channel": 3,
      "note": 103,
      "start": 35.8349,
      "duration": 0.0938,
      "velocity": 127,
      "chip": "ym2612"
    },
    {
      "channel": 4,
      "note": 53,
      "start": 35.9718,
      "duration": 0.0969,
      "velocity": 100,
      "chip": "ym2612"
    },
    {
      "channel": 4,
      "note": 52,
      "start": 36.1119,
      "duration": 0.0968,
      "velocity": 100,
      "chip": "ym2612"
    },
    {
      "channel": 3,
      "note": 103,
      "start": 36.1149,
      "duration": 0.0738,
      "velocity": 127,
      "chip": "ym2612"
    },
    {
      "channel": 4,
      "note": 52,
      "start": 36.3719,
      "duration": 0.1168,
      "velocity": 100,
      "chip": "ym2612"
    },
    {
      "channel": 3,
      "note": 103,
      "start": 36.3749,
      "duration": 0.0738,
      "velocity": 127,
      "chip": "ym2612"
    },
    {
      "channel": 4,
      "note": 53,
      "start": 36.5122,
      "duration": 0.0967,
      "velocity": 100,
      "chip": "ym2612"
    },
    {
      "channel": 2,
      "note": 76,
      "start": 36.6321,
      "duration": 4.2971,
      "velocity": 104,
      "chip": "ym2612"
    },
    {
      "channel": 0,
      "note": 83,
      "start": 36.6353,
      "duration": 4.2934,
      "velocity": 104,
      "chip": "ym2612"
    },
    {
      "channel": 1,
      "note": 74,
      "start": 36.6376,
      "duration": 4.2912,
      "velocity": 104,
      "chip": "ym2612"
    },
    {
      "channel": 5,
      "note": 76,
      "start": 36.6404,
      "duration": 4.2887,
      "velocity": 104,
      "chip": "ym2612"
    },
    {
      "channel": 4,
      "note": 50,
      "start": 36.6431,
      "duration": 0.1057,
      "velocity": 100,
      "chip": "ym2612"
    },
    {
      "channel": 3,
      "note": 103,
      "start": 36.646,
      "duration": 0.0827,
      "velocity": 127,
      "chip": "ym2612"
    },
    {
      "channel": 4,
      "note": 50,
      "start": 36.9119,
      "duration": 0.1169,
      "velocity": 100,
      "chip": "ym2612"
    },
    {
      "channel": 3,
      "note": 103,
      "start": 36.9149,
      "duration": 0.0738,
      "velocity": 127,
      "chip": "ym2612"
    },
    {
      "channel": 4,
      "note": 52,
      "start": 37.0519,
      "duration": 0.0969,
      "velocity": 100,
      "chip": "ym2612"
    },
    {
      "channel": 4,
      "note": 50,
      "start": 37.172,
      "duration": 0.1168,
      "velocity": 100,
      "chip": "ym2612"
    },
    {
      "channel": 3,
      "note": 103,
      "start": 37.1749,
      "duration": 0.0938,
      "velocity": 127,
      "chip": "ym2612"
    },
    {
      "channel": 4,
      "note": 50,
      "start": 37.4519,
      "duration": 0.1168,
      "velocity": 100,
      "chip": "ym2612"
    },
    {
      "channel": 3,
      "note": 103,
      "start": 37.4549,
      "duration": 0.0738,
      "velocity": 127,
      "chip": "ym2612"
    },
    {
      "channel": 4,
      "note": 52,
      "start": 37.5918,
      "duration": 0.0969,
      "velocity": 100,
      "chip": "ym2612"
    },
    {
      "channel": 4,
      "note": 50,
      "start": 37.7119,
      "duration": 0.1168,
      "velocity": 100,
      "chip": "ym2612"
    },
    {
      "channel": 3,
      "note": 103,
      "start": 37.7149,
      "duration": 0.0938,
      "velocity": 127,
      "chip": "ym2612"
    },
    {
      "channel": 4,
      "note": 50,
      "start": 37.9919,
      "duration": 0.0969,
      "velocity": 100,
      "chip": "ym2612"
    },
    {
      "channel": 3,
      "note": 103,
      "start": 37.9949,
      "duration": 0.0738,
      "velocity": 127,
      "chip": "ym2612"
    },
    {
      "channel": 4,
      "note": 52,
      "start": 38.1319,
      "duration": 0.0968,
      "velocity": 100,
      "chip": "ym2612"
    },
    {
      "channel": 4,
      "note": 50,
      "start": 38.2522,
      "duration": 0.1166,
      "velocity": 100,
      "chip": "ym2612"
    },
    {
      "channel": 3,
      "note": 103,
      "start": 38.2553,
      "duration": 0.0935,
      "velocity": 127,
      "chip": "ym2612"
    },
    {
      "channel": 4,
      "note": 50,
      "start": 38.5319,
      "duration": 0.0968,
      "velocity": 100,
      "chip": "ym2612"
    },
    {
      "channel": 3,
      "note": 103,
      "start": 38.5349,
      "duration": 0.0738,
      "velocity": 127,
      "chip": "ym2612"
    },
    {
      "channel": 4,
      "note": 52,
      "start": 38.6718,
      "duration": 0.0969,
      "velocity": 100,
      "chip": "ym2612"
    },
    {
      "channel": 4,
      "note": 50,
      "start": 38.7919,
      "duration": 0.1168,
      "velocity": 100,
      "chip": "ym2612"
    },
    {
      "channel": 3,
      "note": 103,
      "start": 38.7949,
      "duration": 0.0938,
      "velocity": 127,
      "chip": "ym2612"
    },
    {
      "channel": 4,
      "note": 50,
      "start": 39.0719,
      "duration": 0.0969,
      "velocity": 100,
      "chip": "ym2612"
    },
    {
      "channel": 3,
      "note": 103,
      "start": 39.0749,
      "duration": 0.0738,
      "velocity": 127,
      "chip": "ym2612"
    },
    {
      "channel": 4,
      "note": 52,
      "start": 39.1919,
      "duration": 0.1169,
      "velocity": 100,
      "chip": "ym2612"
    },
    {
      "channel": 4,
      "note": 50,
      "start": 39.332,
      "duration": 0.1167,
      "velocity": 100,
      "chip": "ym2612"
    },
    {
      "channel": 3,
      "note": 103,
      "start": 39.3353,
      "duration": 0.0934,
      "velocity": 127,
      "chip": "ym2612"
    },
    {
      "channel": 4,
      "note": 50,
      "start": 39.6119,
      "duration": 0.0969,
      "velocity": 100,
      "chip": "ym2612"
    },
    {
      "channel": 3,
      "note": 103,
      "start": 39.6149,
      "duration": 0.0738,
      "velocity": 127,
      "chip": "ym2612"
    },
    {
      "channel": 4,
      "note": 52,
      "start": 39.7319,
      "duration": 0.1169,
      "velocity": 100,
      "chip": "ym2612"
    },
    {
      "channel": 4,
      "note": 50,
      "start": 39.8723,
      "duration": 0.1164,
      "velocity": 100,
      "chip": "ym2612"
    },
    {
      "channel": 3,
      "note": 103,
      "start": 39.8753,
      "duration": 0.0934,
      "velocity": 127,
      "chip": "ym2612"
    },
    {
      "channel": 4,
      "note": 50,
      "start": 40.1519,
      "duration": 0.0969,
      "velocity": 100,
      "chip": "ym2612"
    },
    {
      "channel": 3,
      "note": 103,
      "start": 40.1549,
      "duration": 0.0738,
      "velocity": 127,
      "chip": "ym2612"
    },
    {
      "channel": 4,
      "note": 52,
      "start": 40.2718,
      "duration": 0.1169,
      "velocity": 100,
      "chip": "ym2612"
    },
    {
      "channel": 4,
      "note": 50,
      "start": 40.4119,
      "duration": 0.1168,
      "velocity": 100,
      "chip": "ym2612"
    },
    {
      "channel": 3,
      "note": 103,
      "start": 40.4149,
      "duration": 0.0938,
      "velocity": 127,
      "chip": "ym2612"
    },
    {
      "channel": 4,
      "note": 50,
      "start": 40.6919,
      "duration": 0.0969,
      "velocity": 100,
      "chip": "ym2612"
    },
    {
      "channel": 3,
      "note": 103,
      "start": 40.6949,
      "duration": 0.0738,
      "velocity": 127,
      "chip": "ym2612"
    },
    {
      "channel": 4,
      "note": 52,
      "start": 40.8119,
      "duration": 0.117,
      "velocity": 100,
      "chip": "ym2612"
    },
    {
      "channel": 3,
      "note": 45,
      "start": 40.9523,
      "duration": 6.4364,
      "velocity": 117,
      "chip": "ym2612"
    },
    {
      "channel": 4,
      "note": 45,
      "start": 40.9553,
      "duration": 0.1134,
      "velocity": 100,
      "chip": "ym2612"
    },
    {
      "channel": 0,
      "note": 103,
      "start": 40.9585,
      "duration": 0.0902,
      "velocity": 127,
      "chip": "ym2612"
    },
    {
      "channel": 1,
      "note": 69,
      "start": 40.962,
      "duration": 0.0867,
      "velocity": 107,
      "chip": "ym2612"
    },
    {
      "channel": 1,
      "note": 64,
      "start": 41.0925,
      "duration": 0.0761,
      "velocity": 107,
      "chip": "ym2612"
    },
    {
      "channel": 4,
      "note": 45,
      "start": 41.2319,
      "duration": 0.0968,
      "velocity": 100,
      "chip": "ym2612"
    },
    {
      "channel": 5,
      "note": 45,
      "start": 41.2353,
      "duration": 0.0935,
      "velocity": 98,
      "chip": "ym2612"
    },
    {
      "channel": 0,
      "note": 103,
      "start": 41.2381,
      "duration": 0.0704,
      "velocity": 127,
      "chip": "ym2612"
    },
    {
      "channel": 1,
      "note": 57,
      "start": 41.2408,
      "duration": 0.0679,
      "velocity": 107,
      "chip": "ym2612"
    },
    {
      "channel": 4,
      "note": 48,
      "start": 41.3519,
      "duration": 0.1169,
      "velocity": 100,
      "chip": "ym2612"
    },
    {
      "channel": 1,
      "note": 69,
      "start": 41.3549,
      "duration": 0.0937,
      "velocity": 107,
      "chip": "ym2612"
    },
    {
      "channel": 4,
      "note": 45,
      "start": 41.4919,
      "duration": 0.1169,
      "velocity": 100,
      "chip": "ym2612"
    },
    {
      "channel": 0,
      "note": 103,
      "start": 41.4948,
      "duration": 0.0739,
      "velocity": 127,
      "chip": "ym2612"
    },
    {
      "channel": 1,
      "note": 64,
      "start": 41.4975,
      "duration": 0.0713,
      "velocity": 107,
      "chip": "ym2612"
    },
    {
      "channel": 1,
      "note": 57,
      "start": 41.6324,
      "duration": 0.0763,
      "velocity": 107,
      "chip": "ym2612"
    },
    {
      "channel": 4,
      "note": 45,
      "start": 41.7523,
      "duration": 0.1164,
      "velocity": 100,
      "chip": "ym2612"
    },
    {
      "channel": 5,
      "note": 45,
      "start": 41.7549,
      "duration": 0.1139,
      "velocity": 98,
      "chip": "ym2612"
    },
    {
      "channel": 0,
      "note": 103,
      "start": 41.7577,
      "duration": 0.0909,
      "velocity": 127,
      "chip": "ym2612"
    },
    {
      "channel": 1,
      "note": 69,
      "start": 41.7604,
      "duration": 0.0883,
      "velocity": 107,
      "chip": "ym2612"
    },
    {
      "channel": 4,
      "note": 48,
      "start": 41.8919,
      "duration": 0.1168,
      "velocity": 100,
      "chip": "ym2612"
    },
    {
      "channel": 1,
      "note": 64,
      "start": 41.8949,
      "duration": 0.0937,
      "velocity": 107,
      "chip": "ym2612"
    },
    {
      "channel": 4,
      "note": 45,
      "start": 42.032,
      "duration": 0.1167,
      "velocity": 100,
      "chip": "ym2612"
    },
    {
      "channel": 0,
      "note": 103,
      "start": 42.0349,
      "duration": 0.0737,
      "velocity": 127,
      "chip": "ym2612"
    },
    {
      "channel": 1,
      "note": 57,
      "start": 42.0376,
      "duration": 0.0712,
      "velocity": 107,
      "chip": "ym2612"
    },
    {
      "channel": 1,
      "note": 64,
      "start": 42.1724,
      "duration": 0.0763,
      "velocity": 107,
      "chip": "ym2612"
    },
    {
      "channel": 4,
      "note": 45,
      "start": 42.292,
      "duration": 0.1167,
      "velocity": 100,
      "chip": "ym2612"
    },
    {
      "channel": 5,
      "note": 45,
      "start": 42.2946,
      "duration": 0.1142,
      "velocity": 98,
      "chip": "ym2612"
    },
    {
      "channel": 0,
      "note": 103,
      "start": 42.2974,
      "duration": 0.0912,
      "velocity": 127,
      "chip": "ym2612"
    },
    {
      "channel": 1,
      "note": 69,
      "start": 42.3001,
      "duration": 0.0887,
      "velocity": 107,
      "chip": "ym2612"
    },
    {
      "channel": 4,
      "note": 48,
      "start": 42.4319,
      "duration": 0.1168,
      "velocity": 100,
      "chip": "ym2612"
    },
    {
      "channel": 1,
      "note": 64,
      "start": 42.4349,
      "duration": 0.0937,
      "velocity": 107,
      "chip": "ym2612"
    },
    {
      "channel": 4,
      "note": 45,
      "start": 42.572,
      "duration": 0.1167,
      "velocity": 100,
      "chip": "ym2612"
    },
    {
      "channel": 0,
      "note": 103,
      "start": 42.5749,
      "duration": 0.0738,
      "velocity": 127,
      "chip": "ym2612"
    },
    {
      "channel": 1,
      "note": 57,
      "start": 42.5776,
      "duration": 0.0712,
      "velocity": 107,
      "chip": "ym2612"
    },
    {
      "channel": 1,
      "note": 64,
      "start": 42.7124,
      "duration": 0.0763,
      "velocity": 107,
      "chip": "ym2612"
    },
    {
      "channel": 4,
      "note": 45,
      "start": 42.832,
      "duration": 0.1167,
      "velocity": 100,
      "chip": "ym2612"
    },
    {
      "channel": 5,
      "note": 45,
      "start": 42.8346,
      "duration": 0.1142,
      "velocity": 98,
      "chip": "ym2612"
    },
    {
      "channel": 0,
      "note": 103,
      "start": 42.8374,
      "duration": 0.0912,
      "velocity": 127,
      "chip": "ym2612"
    },
    {
      "channel": 1,
      "note": 69,
      "start": 42.8401,
      "duration": 0.0886,
      "velocity": 107,
      "chip": "ym2612"
    },
    {
      "channel": 4,
      "note": 48,
      "start": 42.9719,
      "duration": 0.1169,
      "velocity": 100,
      "chip": "ym2612"
    },
    {
      "channel": 1,
      "note": 64,
      "start": 42.9749,
      "duration": 0.0937,
      "velocity": 107,
      "chip": "ym2612"
    },
    {
      "channel": 4,
      "note": 45,
      "start": 43.1119,
      "duration": 0.0969,
      "velocity": 100,
      "chip": "ym2612"
    },
    {
      "channel": 0,
      "note": 103,
      "start": 43.1148,
      "duration": 0.0737,
      "velocity": 127,
      "chip": "ym2612"
    },
    {
      "channel": 1,
      "note": 57,
      "start": 43.1179,
      "duration": 0.0709,
      "velocity": 107,
      "chip": "ym2612"
    },
    {
      "channel": 1,
      "note": 69,
      "start": 43.2524,
      "duration": 0.0762,
      "velocity": 107,
      "chip": "ym2612"
    },
    {
      "channel": 4,
      "note": 45,
      "start": 43.3724,
      "duration": 0.1163,
      "velocity": 100,
      "chip": "ym2612"
    },
    {
      "channel": 5,
      "note": 45,
      "start": 43.375,
      "duration": 0.1139,
      "velocity": 98,
      "chip": "ym2612"
    },
    {
      "channel": 0,
      "note": 103,
      "start": 43.3778,
      "duration": 0.0909,
      "velocity": 127,
      "chip": "ym2612"
    },
    {
      "channel": 1,
      "note": 64,
      "start": 43.3805,
      "duration": 0.0882,
      "velocity": 107,
      "chip": "ym2612"
    },
    {
      "channel": 4,
      "note": 48,
      "start": 43.5119,
      "duration": 0.1169,
      "velocity": 100,
      "chip": "ym2612"
    },
    {
      "channel": 1,
      "note": 57,
      "start": 43.5149,
      "duration": 0.0937,
      "velocity": 107,
      "chip": "ym2612"
    },
    {
      "channel": 4,
      "note": 45,
      "start": 43.652,
      "duration": 0.0968,
      "velocity": 100,
      "chip": "ym2612"
    },
    {
      "channel": 0,
      "note": 103,
      "start": 43.6553,
      "duration": 0.0733,
      "velocity": 127,
      "chip": "ym2612"
    },
    {
      "channel": 1,
      "note": 69,
      "start": 43.658,
      "duration": 0.0707,
      "velocity": 107,
      "chip": "ym2612"
    },
    {
      "channel": 1,
      "note": 64,
      "start": 43.7924,
      "duration": 0.0762,
      "velocity": 107,
      "chip": "ym2612"
    },
    {
      "channel": 4,
      "note": 45,
      "start": 43.912,
      "duration": 0.1167,
      "velocity": 100,
      "chip": "ym2612"
    },
    {
      "channel": 5,
      "note": 45,
      "start": 43.9146,
      "duration": 0.1142,
      "velocity": 98,
      "chip": "ym2612"
    },
    {
      "channel": 0,
      "note": 103,
      "start": 43.9174,
      "duration": 0.0912,
      "velocity": 127,
      "chip": "ym2612"
    },
    {
      "channel": 1,
      "note": 69,
      "start": 43.9201,
      "duration": 0.0887,
      "velocity": 107,
      "chip": "ym2612"
    },
    {
      "channel": 4,
      "note": 48,
      "start": 44.0519,
      "duration": 0.1168,
      "velocity": 100,
      "chip": "ym2612"
    },
    {
      "channel": 1,
      "note": 64,
      "start": 44.0549,
      "duration": 0.0737,
      "velocity": 107,
      "chip": "ym2612"
    },
    {
      "channel": 4,
      "note": 45,
      "start": 44.192,
      "duration": 0.0967,
      "velocity": 100,
      "chip": "ym2612"
    },
    {
      "channel": 0,
      "note": 103,
      "start": 44.1949,
      "duration": 0.0738,
      "velocity": 127,
      "chip": "ym2612"
    },
    {
      "channel": 1,
      "note": 57,
      "start": 44.1976,
      "duration": 0.0712,
      "velocity": 107,
      "chip": "ym2612"
    },
    {
      "channel": 1,
      "note": 69,
      "start": 44.3124,
      "duration": 0.0962,
      "velocity": 107,
      "chip": "ym2612"
    },
    {
      "channel": 4,
      "note": 45,
      "start": 44.4519,
      "duration": 0.1169,
      "velocity": 100,
      "chip": "ym2612"
    },
    {
      "channel": 5,
      "note": 45,
      "start": 44.4546,
      "duration": 0.1144,
      "velocity": 98,
      "chip": "ym2612"
    },
    {
      "channel": 0,
      "note": 103,
      "start": 44.4574,
      "duration": 0.0912,
      "velocity": 127,
      "chip": "ym2612"
    },
    {
      "channel": 1,
      "note": 64,
      "start": 44.46,
      "duration": 0.0887,
      "velocity": 107,
      "chip": "ym2612"
    },
    {
      "channel": 4,
      "note": 48,
      "start": 44.5918,
      "duration": 0.1169,
      "velocity": 100,
      "chip": "ym2612"
    },
    {
      "channel": 1,
      "note": 57,
      "start": 44.5949,
      "duration": 0.0738,
      "velocity": 107,
      "chip": "ym2612"
    },
    {
      "channel": 4,
      "note": 45,
      "start": 44.7319,
      "duration": 0.0969,
      "velocity": 100,
      "chip": "ym2612"
    },
    {
      "channel": 0,
      "note": 103,
      "start": 44.7348,
      "duration": 0.0737,
      "velocity": 127,
      "chip": "ym2612"
    },
    {
      "channel": 1,
      "note": 69,
      "start": 44.7376,
      "duration": 0.0712,
      "velocity": 107,
      "chip": "ym2612"
    },
    {
      "channel": 1,
      "note": 64,
      "start": 44.8525,
      "duration": 0.0961,
      "velocity": 107,
      "chip": "ym2612"
    },
    {
      "channel": 4,
      "note": 45,
      "start": 44.9919,
      "duration": 0.1169,
      "velocity": 100,
      "chip": "ym2612"
    },
    {
      "channel": 5,
      "note": 45,
      "start": 44.9946,
      "duration": 0.1144,
      "velocity": 98,
      "chip": "ym2612"
    },
    {
      "channel": 0,
      "note": 103,
      "start": 44.9974,
      "duration": 0.0912,
      "velocity": 127,
      "chip": "ym2612"
    },
    {
      "channel": 1,
      "note": 69,
      "start": 45.0,
      "duration": 0.0887,
      "velocity": 107,
      "chip": "ym2612"
    },
    {
      "channel": 4,
      "note": 48,
      "start": 45.1322,
      "duration": 0.1165,
      "velocity": 100,
      "chip": "ym2612"
    },
    {
      "channel": 1,
      "note": 64,
      "start": 45.1353,
      "duration": 0.0734,
      "velocity": 107,
      "chip": "ym2612"
    },
    {
      "channel": 4,
      "note": 45,
      "start": 45.272,
      "duration": 0.0968,
      "velocity": 100,
      "chip": "ym2612"
    },
    {
      "channel": 0,
      "note": 103,
      "start": 45.2749,
      "duration": 0.0737,
      "velocity": 127,
      "chip": "ym2612"
    },
    {
      "channel": 1,
      "note": 57,
      "start": 45.278,
      "duration": 0.0707,
      "velocity": 107,
      "chip": "ym2612"
    },
    {
      "channel": 1,
      "note": 64,
      "start": 45.3925,
      "duration": 0.0961,
      "velocity": 107,
      "chip": "ym2612"
    },
    {
      "channel": 4,
      "note": 45,
      "start": 45.5319,
      "duration": 0.1169,
      "velocity": 100,
      "chip": "ym2612"
    },
    {
      "channel": 5,
      "note": 45,
      "start": 45.5346,
      "duration": 0.1144,
      "velocity": 98,
      "chip": "ym2612"
    },
    {
      "channel": 0,
      "note": 103,
      "start": 45.5374,
      "duration": 0.0912,
      "velocity": 127,
      "chip": "ym2612"
    },
    {
      "channel": 1,
      "note": 69,
      "start": 45.54,
      "duration": 0.0887,
      "velocity": 107,
      "chip": "ym2612"
    },
    {
      "channel": 4,
      "note": 48,
      "start": 45.6718,
      "duration": 0.0969,
      "velocity": 100,
      "chip": "ym2612"
    },
    {
      "channel": 1,
      "note": 64,
      "start": 45.6749,
      "duration": 0.0738,
      "velocity": 107,
      "chip": "ym2612"
    },
    {
      "channel": 4,
      "note": 45,
      "start": 45.8119,
      "duration": 0.0969,
      "velocity": 100,
      "chip": "ym2612"
    },
    {
      "channel": 0,
      "note": 103,
      "start": 45.8149,
      "duration": 0.0737,
      "velocity": 127,
      "chip": "ym2612"
    },
    {
      "channel": 1,
      "note": 57,
      "start": 45.8176,
      "duration": 0.0712,
      "velocity": 107,
      "chip": "ym2612"
    },
    {
      "channel": 1,
      "note": 64,
      "start": 45.9325,
      "duration": 0.0962,
      "velocity": 107,
      "chip": "ym2612"
    },
    {
      "channel": 4,
      "note": 45,
      "start": 46.0719,
      "duration": 0.1169,
      "velocity": 100,
      "chip": "ym2612"
    },
    {
      "channel": 5,
      "note": 45,
      "start": 46.0746,
      "duration": 0.1144,
      "velocity": 98,
      "chip": "ym2612"
    },
    {
      "channel": 0,
      "note": 103,
      "start": 46.0774,
      "duration": 0.0912,
      "velocity": 127,
      "chip": "ym2612"
    },
    {
      "channel": 1,
      "note": 69,
      "start": 46.08,
      "duration": 0.0887,
      "velocity": 107,
      "chip": "ym2612"
    },
    {
      "channel": 4,
      "note": 48,
      "start": 46.2118,
      "duration": 0.0969,
      "velocity": 100,
      "chip": "ym2612"
    },
    {
      "channel": 1,
      "note": 64,
      "start": 46.2149,
      "duration": 0.0738,
      "velocity": 107,
      "chip": "ym2612"
    },
    {
      "channel": 4,
      "note": 45,
      "start": 46.3519,
      "duration": 0.0969,
      "velocity": 100,
      "chip": "ym2612"
    },
    {
      "channel": 0,
      "note": 103,
      "start": 46.3548,
      "duration": 0.0737,
      "velocity": 127,
      "chip": "ym2612"
    },
    {
      "channel": 1,
      "note": 57,
      "start": 46.3576,
      "duration": 0.0712,
      "velocity": 107,
      "chip": "ym2612"
    },
    {
      "channel": 1,
      "note": 69,
      "start": 46.4724,
      "duration": 0.0962,
      "velocity": 107,
      "chip": "ym2612"
    },
    {
      "channel": 4,
      "note": 45,
      "start": 46.6119,
      "duration": 0.1168,
      "velocity": 100,
      "chip": "ym2612"
    },
    {
      "channel": 5,
      "note": 45,
      "start": 46.6146,
      "duration": 0.1143,
      "velocity": 98,
      "chip": "ym2612"
    },
    {
      "channel": 0,
      "note": 103,
      "start": 46.6174,
      "duration": 0.0712,
      "velocity": 127,
      "chip": "ym2612"
    },
    {
      "channel": 1,
      "note": 64,
      "start": 46.62,
      "duration": 0.0687,
      "velocity": 107,
      "chip": "ym2612"
    },
    {
      "channel": 4,
      "note": 48,
      "start": 46.7519,
      "duration": 0.0968,
      "velocity": 100,
      "chip": "ym2612"
    },
    {
      "channel": 1,
      "note": 57,
      "start": 46.7549,
      "duration": 0.0737,
      "velocity": 107,
      "chip": "ym2612"
    },
    {
      "channel": 4,
      "note": 45,
      "start": 46.8724,
      "duration": 0.1164,
      "velocity": 100,
      "chip": "ym2612"
    },
    {
      "channel": 0,
      "note": 103,
      "start": 46.8753,
      "duration": 0.0933,
      "velocity": 127,
      "chip": "ym2612"
    },
    {
      "channel": 1,
      "note": 69,
      "start": 46.878,
      "duration": 0.0907,
      "velocity": 107,
      "chip": "ym2612"
    },
    {
      "channel": 1,
      "note": 64,
      "start": 47.0125,
      "duration": 0.0961,
      "velocity": 107,
      "chip": "ym2612"
    },
    {
      "channel": 4,
      "note": 45,
      "start": 47.1519,
      "duration": 0.1169,
      "velocity": 100,
      "chip": "ym2612"
    },
    {
      "channel": 5,
      "note": 45,
      "start": 47.1545,
      "duration": 0.1144,
      "velocity": 98,
      "chip": "ym2612"
    },
    {
      "channel": 0,
      "note": 103,
      "start": 47.1573,
      "duration": 0.0712,
      "velocity": 127,
      "chip": "ym2612"
    },
    {
      "channel": 1,
      "note": 69,
      "start": 47.16,
      "duration": 0.0687,
      "velocity": 107,
      "chip": "ym2612"
    },
    {
      "channel": 4,
      "note": 48,
      "start": 47.2919,
      "duration": 0.0969,
      "velocity": 100,
      "chip": "ym2612"
    },
    {
      "channel": 1,
      "note": 64,
      "start": 47.2949,
      "duration": 0.0737,
      "velocity": 107,
      "chip": "ym2612"
    },
    {
      "channel": 4,
      "note": 45,
      "start": 47.4121,
      "duration": 0.0367,
      "velocity": 100,
      "chip": "ym2612"
    },
    {
      "channel": 2,
      "note": 45,
      "start": 47.415,
      "duration": 0.1139,
      "velocity": 100,
      "chip": "ym2612"
    },
    {
      "channel": 0,
      "note": 103,
      "start": 47.4179,
      "duration": 0.0907,
      "velocity": 127,
      "chip": "ym2612"
    },
    {
      "channel": 1,
      "note": 69,
      "start": 47.421,
      "duration": 0.0877,
      "velocity": 107,
      "chip": "ym2612"
    },
    {
      "channel": 1,
      "note": 64,
      "start": 47.5524,
      "duration": 0.0962,
      "velocity": 107,
      "chip": "ym2612"
    },
    {
      "channel": 4,
      "note": 45,
      "start": 47.692,
      "duration": 0.1167,
      "velocity": 100,
      "chip": "ym2612"
    },
    {
      "channel": 5,
      "note": 45,
      "start": 47.6946,
      "duration": 0.1142,
      "velocity": 98,
      "chip": "ym2612"
    },
    {
      "channel": 0,
      "note": 103,
      "start": 47.6974,
      "duration": 0.0711,
      "velocity": 127,
      "chip": "ym2612"
    },
    {
      "channel": 1,
      "note": 57,
      "start": 47.7001,
      "duration": 0.0686,
      "velocity": 107,
      "chip": "ym2612"
    },
    {
      "channel": 4,
      "note": 48,
      "start": 47.8317,
      "duration": 0.0971,
      "velocity": 100,
      "chip": "ym2612"
    },
    {
      "channel": 1,
      "note": 69,
      "start": 47.8348,
      "duration": 0.0738,
      "velocity": 107,
      "chip": "ym2612"
    },
    {
      "channel": 4,
      "note": 45,
      "start": 47.952,
      "duration": 0.1167,
      "velocity": 100,
      "chip": "ym2612"
    },
    {
      "channel": 0,
      "note": 103,
      "start": 47.9553,
      "duration": 0.0933,
      "velocity": 127,
      "chip": "ym2612"
    },
    {
      "channel": 1,
      "note": 64,
      "start": 47.9579,
      "duration": 0.0907,
      "velocity": 107,
      "chip": "ym2612"
    },
    {
      "channel": 1,
      "note": 57,
      "start": 48.0924,
      "duration": 0.0962,
      "velocity": 107,
      "chip": "ym2612"
    },
    {
      "channel": 4,
      "note": 45,
      "start": 48.2323,
      "duration": 0.0964,
      "velocity": 100,
      "chip": "ym2612"
    },
    {
      "channel": 5,
      "note": 45,
      "start": 48.2349,
      "duration": 0.0939,
      "velocity": 98,
      "chip": "ym2612"
    },
    {
      "channel": 0,
      "note": 103,
      "start": 48.2377,
      "duration": 0.0709,
      "velocity": 127,
      "chip": "ym2612"
    },
    {
      "channel": 1,
      "note": 69,
      "start": 48.2404,
      "duration": 0.0683,
      "velocity": 107,
      "chip": "ym2612"
    },
    {
      "channel": 4,
      "note": 48,
      "start": 48.3719,
      "duration": 0.0969,
      "velocity": 100,
      "chip": "ym2612"
    },
    {
      "channel": 1,
      "note": 64,
      "start": 48.3749,
      "duration": 0.0737,
      "velocity": 107,
      "chip": "ym2612"
    },
    {
      "channel": 4,
      "note": 45,
      "start": 48.492,
      "duration": 0.1167,
      "velocity": 100,
      "chip": "ym2612"
    },
    {
      "channel": 0,
      "note": 103,
      "start": 48.4949,
      "duration": 0.0937,
      "velocity": 127,
      "chip": "ym2612"
    },
    {
      "channel": 1,
      "note": 57,
      "start": 48.4976,
      "duration": 0.0911,
      "velocity": 107,
      "chip": "ym2612"
    },
    {
      "channel": 1,
      "note": 64,
      "start": 48.6324,
      "duration": 0.0962,
      "velocity": 107,
      "chip": "ym2612"
    },
    {
      "channel": 4,
      "note": 45,
      "start": 48.772,
      "duration": 0.0967,
      "velocity": 100,
      "chip": "ym2612"
    },
    {
      "channel": 5,
      "note": 45,
      "start": 48.7746,
      "duration": 0.0942,
      "velocity": 98,
      "chip": "ym2612"
    },
    {
      "channel": 0,
      "note": 103,
      "start": 48.7774,
      "duration": 0.0711,
      "velocity": 127,
      "chip": "ym2612"
    },
    {
      "channel": 1,
      "note": 69,
      "start": 48.7801,
      "duration": 0.0686,
      "velocity": 107,
      "chip": "ym2612"
    },
    {
      "channel": 4,
      "note": 48,
      "start": 48.9119,
      "duration": 0.0969,
      "velocity": 100,
      "chip": "ym2612"
    },
    {
      "channel": 1,
      "note": 64,
      "start": 48.9149,
      "duration": 0.0737,
      "velocity": 107,
      "chip": "ym2612"
    },
    {
      "channel": 4,
      "note": 45,
      "start": 49.032,
      "duration": 0.1167,
      "velocity": 100,
      "chip": "ym2612"
    },
    {
      "channel": 0,
      "note": 103,
      "start": 49.0349,
      "duration": 0.0937,
      "velocity": 127,
      "chip": "ym2612"
    },
    {
      "channel": 1,
      "note": 57,
      "start": 49.0376,
      "duration": 0.0911,
      "velocity": 107,
      "chip": "ym2612"
    },
    {
      "channel": 1,
      "note": 64,
      "start": 49.1724,
      "duration": 0.0762,
      "velocity": 107,
      "chip": "ym2612"
    },
    {
      "channel": 4,
      "note": 45,
      "start": 49.312,
      "duration": 0.0967,
      "velocity": 100,
      "chip": "ym2612"
    },
    {
      "channel": 5,
      "note": 45,
      "start": 49.3146,
      "duration": 0.0942,
      "velocity": 98,
      "chip": "ym2612"
    },
    {
      "channel": 0,
      "note": 103,
      "start": 49.3174,
      "duration": 0.0713,
      "velocity": 127,
      "chip": "ym2612"
    },
    {
      "channel": 1,
      "note": 69,
      "start": 49.3201,
      "duration": 0.0687,
      "velocity": 107,
      "chip": "ym2612"
    },
    {
      "channel": 4,
      "note": 48,
      "start": 49.4319,
      "duration": 0.1169,
      "velocity": 100,
      "chip": "ym2612"
    },
    {
      "channel": 1,
      "note": 64,
      "start": 49.4349,
      "duration": 0.0937,
      "velocity": 107,
      "chip": "ym2612"
    },
    {
      "channel": 4,
      "note": 45,
      "start": 49.572,
      "duration": 0.1167,
      "velocity": 100,
      "chip": "ym2612"
    },
    {
      "channel": 0,
      "note": 103,
      "start": 49.5749,
      "duration": 0.0937,
      "velocity": 127,
      "chip": "ym2612"
    },
    {
      "channel": 1,
      "note": 57,
      "start": 49.578,
      "duration": 0.0907,
      "velocity": 107,
      "chip": "ym2612"
    },
    {
      "channel": 1,
      "note": 69,
      "start": 49.7124,
      "duration": 0.0762,
      "velocity": 107,
      "chip": "ym2612"
    },
    {
      "channel": 4,
      "note": 45,
      "start": 49.8523,
      "duration": 0.0964,
      "velocity": 100,
      "chip": "ym2612"
    },
    {
      "channel": 5,
      "note": 45,
      "start": 49.8553,
      "duration": 0.0935,
      "velocity": 98,
      "chip": "ym2612"
    },
    {
      "channel": 0,
      "note": 103,
      "start": 49.8581,
      "duration": 0.0705,
      "velocity": 127,
      "chip": "ym2612"
    },
    {
      "channel": 1,
      "note": 64,
      "start": 49.8608,
      "duration": 0.0679,
      "velocity": 107,
      "chip": "ym2612"
    },
    {
      "channel": 4,
      "note": 48,
      "start": 49.9719,
      "duration": 0.1169,
      "velocity": 100,
      "chip": "ym2612"
    },
    {
      "channel": 1,
      "note": 57,
      "start": 49.9749,
      "duration": 0.0937,
      "velocity": 107,
      "chip": "ym2612"
    },
    {
      "channel": 4,
      "note": 45,
      "start": 50.112,
      "duration": 0.1167,
      "velocity": 100,
      "chip": "ym2612"
    },
    {
      "channel": 0,
      "note": 103,
      "start": 50.1149,
      "duration": 0.0937,
      "velocity": 127,
      "chip": "ym2612"
    },
    {
      "channel": 1,
      "note": 69,
      "start": 50.1176,
      "duration": 0.0911,
      "velocity": 107,
      "chip": "ym2612"
    },
    {
      "channel": 1,
      "note": 57,
      "start": 50.2524,
      "duration": 0.0762,
      "velocity": 107,
      "chip": "ym2612"
    },
    {
      "channel": 4,
      "note": 45,
      "start": 50.392,
      "duration": 0.0967,
      "velocity": 100,
      "chip": "ym2612"
    },
    {
      "channel": 5,
      "note": 45,
      "start": 50.3946,
      "duration": 0.0942,
      "velocity": 98,
      "chip": "ym2612"
    },
    {
      "channel": 0,
      "note": 103,
      "start": 50.3974,
      "duration": 0.0712,
      "velocity": 127,
      "chip": "ym2612"
    },
    {
      "channel": 1,
      "note": 64,
      "start": 50.4001,
      "duration": 0.0687,
      "velocity": 107,
      "chip": "ym2612"
    },
    {
      "channel": 4,
      "note": 48,
      "start": 50.5119,
      "duration": 0.1169,
      "velocity": 100,
      "chip": "ym2612"
    },
    {
      "channel": 1,
      "note": 69,
      "start": 50.5149,
      "duration": 0.0937,
      "velocity": 107,
      "chip": "ym2612"
    },
    {
      "channel": 4,
      "note": 45,
      "start": 50.6519,
      "duration": 0.1168,
      "velocity": 100,
      "chip": "ym2612"
    },
    {
      "channel": 0,
      "note": 103,
      "start": 50.6548,
      "duration": 0.0937,
      "velocity": 127,
      "chip": "ym2612"
    },
    {
      "channel": 1,
      "note": 57,
      "start": 50.6576,
      "duration": 0.0911,
      "velocity": 107,
      "chip": "ym2612"
    },
    {
      "channel": 1,
      "note": 64,
      "start": 50.7924,
      "duration": 0.0763,
      "velocity": 107,
      "chip": "ym2612"
    },
    {
      "channel": 4,
      "note": 45,
      "start": 50.9319,
      "duration": 0.0969,
      "velocity": 100,
      "chip": "ym2612"
    },
    {
      "channel": 5,
      "note": 45,
      "start": 50.9346,
      "duration": 0.0944,
      "velocity": 98,
      "chip": "ym2612"
    },
    {
      "channel": 0,
      "note": 103,
      "start": 50.9374,
      "duration": 0.0712,
      "velocity": 127,
      "chip": "ym2612"
    },
    {
      "channel": 1,
      "note": 69,
      "start": 50.94,
      "duration": 0.0687,
      "velocity": 107,
      "chip": "ym2612"
    },
    {
      "channel": 4,
      "note": 48,
      "start": 51.0518,
      "duration": 0.1169,
      "velocity": 100,
      "chip": "ym2612"
    },
    {
      "channel": 1,
      "note": 69,
      "start": 51.0549,
      "duration": 0.0937,
      "velocity": 107,
      "chip": "ym2612"
    },
    {
      "channel": 4,
      "note": 45,
      "start": 51.192,
      "duration": 0.1168,
      "velocity": 100,
      "chip": "ym2612"
    },
    {
      "channel": 0,
      "note": 103,
      "start": 51.1949,
      "duration": 0.0937,
      "velocity": 127,
      "chip": "ym2612"
    },
    {
      "channel": 1,
      "note": 64,
      "start": 51.1976,
      "duration": 0.0911,
      "velocity": 107,
      "chip": "ym2612"
    },
    {
      "channel": 1,
      "note": 57,
      "start": 51.3324,
      "duration": 0.0762,
      "velocity": 107,
      "chip": "ym2612"
    },
    {
      "channel": 4,
      "note": 45,
      "start": 51.472,
      "duration": 0.0967,
      "velocity": 100,
      "chip": "ym2612"
    },
    {
      "channel": 5,
      "note": 45,
      "start": 51.4746,
      "duration": 0.0942,
      "velocity": 98,
      "chip": "ym2612"
    },
    {
      "channel": 0,
      "note": 103,
      "start": 51.4774,
      "duration": 0.0711,
      "velocity": 127,
      "chip": "ym2612"
    },
    {
      "channel": 1,
      "note": 57,
      "start": 51.4801,
      "duration": 0.0686,
      "velocity": 107,
      "chip": "ym2612"
    },
    {
      "channel": 4,
      "note": 48,
      "start": 51.5921,
      "duration": 0.1166,
      "velocity": 100,
      "chip": "ym2612"
    },
    {
      "channel": 1,
      "note": 64,
      "start": 51.5952,
      "duration": 0.0935,
      "velocity": 107,
      "chip": "ym2612"
    },
    {
      "channel": 3,
      "note": 52,
      "start": 51.7324,
      "duration": 6.4363,
      "velocity": 117,
      "chip": "ym2612"
    },
    {
      "channel": 4,
      "note": 52,
      "start": 51.7354,
      "duration": 0.1134,
      "velocity": 100,
      "chip": "ym2612"
    },
    {
      "channel": 0,
      "note": 103,
      "start": 51.7383,
      "duration": 0.0703,
      "velocity": 127,
      "chip": "ym2612"
    },
    {
      "channel": 1,
      "note": 69,
      "start": 51.7413,
      "duration": 0.0673,
      "velocity": 107,
      "chip": "ym2612"
    },
    {
      "channel": 1,
      "note": 64,
      "start": 51.8724,
      "duration": 0.0762,
      "velocity": 107,
      "chip": "ym2612"
    },
    {
      "channel": 4,
      "note": 52,
      "start": 51.992,
      "duration": 0.1167,
      "velocity": 100,
      "chip": "ym2612"
    },
    {
      "channel": 5,
      "note": 52,
      "start": 51.9946,
      "duration": 0.1142,
      "velocity": 98,
      "chip": "ym2612"
    },
    {
      "channel": 0,
      "note": 103,
      "start": 51.9974,
      "duration": 0.0911,
      "velocity": 127,
      "chip": "ym2612"
    },
    {
      "channel": 1,
      "note": 69,
      "start": 52.0001,
      "duration": 0.0886,
      "velocity": 107,
      "chip": "ym2612"
    },
    {
      "channel": 4,
      "note": 53,
      "start": 52.1319,
      "duration": 0.1169,
      "velocity": 100,
      "chip": "ym2612"
    },
    {
      "channel": 1,
      "note": 57,
      "start": 52.1349,
      "duration": 0.0937,
      "velocity": 107,
      "chip": "ym2612"
    },
    {
      "channel": 4,
      "note": 52,
      "start": 52.2719,
      "duration": 0.1168,
      "velocity": 100,
      "chip": "ym2612"
    },
    {
      "channel": 0,
      "note": 103,
      "start": 52.2751,
      "duration": 0.0735,
      "velocity": 127,
      "chip": "ym2612"
    },
    {
      "channel": 1,
      "note": 64,
      "start": 52.2779,
      "duration": 0.0709,
      "velocity": 107,
      "chip": "ym2612"
    },
    {
      "channel": 1,
      "note": 69,
      "start": 52.4124,
      "duration": 0.0762,
      "velocity": 107,
      "chip": "ym2612"
    },
    {
      "channel": 4,
      "note": 52,
      "start": 52.5319,
      "duration": 0.1168,
      "velocity": 100,
      "chip": "ym2612"
    },
    {
      "channel": 5,
      "note": 52,
      "start": 52.5346,
      "duration": 0.1142,
      "velocity": 98,
      "chip": "ym2612"
    },
    {
      "channel": 0,
      "note": 103,
      "start": 52.5374,
      "duration": 0.0912,
      "velocity": 127,
      "chip": "ym2612"
    },
    {
      "channel": 1,
      "note": 64,
      "start": 52.54,
      "duration": 0.0887,
      "velocity": 107,
      "chip": "ym2612"
    },
    {
      "channel": 4,
      "note": 53,
      "start": 52.6718,
      "duration": 0.1169,
      "velocity": 100,
      "chip": "ym2612"
    },
    {
      "channel": 1,
      "note": 69,
      "start": 52.6749,
      "duration": 0.0938,
      "velocity": 107,
      "chip": "ym2612"
    },
    {
      "channel": 4,
      "note": 52,
      "start": 52.8119,
      "duration": 0.1169,
      "velocity": 100,
      "chip": "ym2612"
    },
    {
      "channel": 0,
      "note": 103,
      "start": 52.8148,
      "duration": 0.0737,
      "velocity": 127,
      "chip": "ym2612"
    },
    {
      "channel": 1,
      "note": 64,
      "start": 52.8176,
      "duration": 0.0712,
      "velocity": 107,
      "chip": "ym2612"
    },
    {
      "channel": 1,
      "note": 57,
      "start": 52.9525,
      "duration": 0.0761,
      "velocity": 107,
      "chip": "ym2612"
    },
    {
      "channel": 4,
      "note": 52,
      "start": 53.0719,
      "duration": 0.1168,
      "velocity": 100,
      "chip": "ym2612"
    },
    {
      "channel": 5,
      "note": 52,
      "start": 53.0746,
      "duration": 0.1142,
      "velocity": 98,
      "chip": "ym2612"
    },
    {
      "channel": 0,
      "note": 103,
      "start": 53.0774,
      "duration": 0.0912,
      "velocity": 127,
      "chip": "ym2612"
    },
    {
      "channel": 1,
      "note": 69,
      "start": 53.08,
      "duration": 0.0887,
      "velocity": 107,
      "chip": "ym2612"
    },
    {
      "channel": 4,
      "note": 53,
      "start": 53.2118,
      "duration": 0.1169,
      "velocity": 100,
      "chip": "ym2612"
    },
    {
      "channel": 1,
      "note": 64,
      "start": 53.2149,
      "duration": 0.0938,
      "velocity": 107,
      "chip": "ym2612"
    },
    {
      "channel": 4,
      "note": 52,
      "start": 53.3523,
      "duration": 0.0964,
      "velocity": 100,
      "chip": "ym2612"
    },
    {
      "channel": 0,
      "note": 103,
      "start": 53.3552,
      "duration": 0.0735,
      "velocity": 127,
      "chip": "ym2612"
    },
    {
      "channel": 1,
      "note": 57,
      "start": 53.3579,
      "duration": 0.0709,
      "velocity": 107,
      "chip": "ym2612"
    },
    {
      "channel": 1,
      "note": 69,
      "start": 53.4924,
      "duration": 0.0763,
      "velocity": 107,
      "chip": "ym2612"
    },
    {
      "channel": 4,
      "note": 52,
      "start": 53.612,
      "duration": 0.1167,
      "velocity": 100,
      "chip": "ym2612"
    },
    {
      "channel": 5,
      "note": 52,
      "start": 53.6146,
      "duration": 0.1142,
      "velocity": 98,
      "chip": "ym2612"
    },
    {
      "channel": 0,
      "note": 103,
      "start": 53.6174,
      "duration": 0.0912,
      "velocity": 127,
      "chip": "ym2612"
    },
    {
      "channel": 1,
      "note": 64,
      "start": 53.6201,
      "duration": 0.0886,
      "velocity": 107,
      "chip": "ym2612"
    },
    {
      "channel": 4,
      "note": 53,
      "start": 53.7519,
      "duration": 0.1168,
      "velocity": 100,
      "chip": "ym2612"
    },
    {
      "channel": 1,
      "note": 57,
      "start": 53.7549,
      "duration": 0.0937,
      "velocity": 107,
      "chip": "ym2612"
    },
    {
      "channel": 4,
      "note": 52,
      "start": 53.892,
      "duration": 0.0968,
      "velocity": 100,
      "chip": "ym2612"
    },
    {
      "channel": 0,
      "note": 103,
      "start": 53.8949,
      "duration": 0.0737,
      "velocity": 127,
      "chip": "ym2612"
    },
    {
      "channel": 1,
      "note": 69,
      "start": 53.898,
      "duration": 0.0707,
      "velocity": 107,
      "chip": "ym2612"
    },
    {
      "channel": 1,
      "note": 64,
      "start": 54.0324,
      "duration": 0.0762,
      "velocity": 107,
      "chip": "ym2612"
    },
    {
      "channel": 4,
      "note": 52,
      "start": 54.152,
      "duration": 0.1167,
      "velocity": 100,
      "chip": "ym2612"
    },
    {
      "channel": 5,
      "note": 52,
      "start": 54.1546,
      "duration": 0.1142,
      "velocity": 98,
      "chip": "ym2612"
    },
    {
      "channel": 0,
      "note": 103,
      "start": 54.1574,
      "duration": 0.0911,
      "velocity": 127,
      "chip": "ym2612"
    },
    {
      "channel": 1,
      "note": 57,
      "start": 54.1601,
      "duration": 0.0886,
      "velocity": 107,
      "chip": "ym2612"
    },
    {
      "channel": 4,
      "note": 53,
      "start": 54.2919,
      "duration": 0.1169,
      "velocity": 100,
      "chip": "ym2612"
    },
    {
      "channel": 1,
      "note": 69,
      "start": 54.2949,
      "duration": 0.0737,
      "velocity": 107,
      "chip": "ym2612"
    },
    {
      "channel": 4,
      "note": 52,
      "start": 54.4319,
      "duration": 0.0969,
      "velocity": 100,
      "chip": "ym2612"
    },
    {
      "channel": 0,
      "note": 103,
      "start": 54.4348,
      "duration": 0.0739,
      "velocity": 127,
      "chip": "ym2612"
    },
    {
      "channel": 1,
      "note": 64,
      "start": 54.4375,
      "duration": 0.0713,
      "velocity": 107,
      "chip": "ym2612"
    },
    {
      "channel": 1,
      "note": 64,
      "start": 54.5524,
      "duration": 0.0963,
      "velocity": 107,
      "chip": "ym2612"
    },
    {
      "channel": 4,
      "note": 52,
      "start": 54.6919,
      "duration": 0.1169,
      "velocity": 100,
      "chip": "ym2612"
    },
    {
      "channel": 5,
      "note": 52,
      "start": 54.6946,
      "duration": 0.1144,
      "velocity": 98,
      "chip": "ym2612"
    },
    {
      "channel": 0,
      "note": 103,
      "start": 54.6974,
      "duration": 0.0912,
      "velocity": 127,
      "chip": "ym2612"
    },
    {
      "channel": 1,
      "note": 69,
      "start": 54.7,
      "duration": 0.0887,
      "velocity": 107,
      "chip": "ym2612"
    },
    {
      "channel": 4,
      "note": 53,
      "start": 54.8318,
      "duration": 0.1169,
      "velocity": 100,
      "chip": "ym2612"
    },
    {
      "channel": 1,
      "note": 57,
      "start": 54.8349,
      "duration": 0.0738,
      "velocity": 107,
      "chip": "ym2612"
    },
    {
      "channel": 4,
      "note": 52,
      "start": 54.9723,
      "duration": 0.0964,
      "velocity": 100,
      "chip": "ym2612"
    },
    {
      "channel": 0,
      "note": 103,
      "start": 54.9752,
      "duration": 0.0735,
      "velocity": 127,
      "chip": "ym2612"
    },
    {
      "channel": 1,
      "note": 64,
      "start": 54.9779,
      "duration": 0.0709,
      "velocity": 107,
      "chip": "ym2612"
    },
    {
      "channel": 1,
      "note": 69,
      "start": 55.0924,
      "duration": 0.0962,
      "velocity": 107,
      "chip": "ym2612"
    },
    {
      "channel": 4,
      "note": 52,
      "start": 55.2319,
      "duration": 0.1169,
      "velocity": 100,
      "chip": "ym2612"
    },
    {
      "channel": 5,
      "note": 52,
      "start": 55.2346,
      "duration": 0.1144,
      "velocity": 98,
      "chip": "ym2612"
    },
    {
      "channel": 0,
      "note": 103,
      "start": 55.2374,
      "duration": 0.0912,
      "velocity": 127,
      "chip": "ym2612"
    },
    {
      "channel": 1,
      "note": 57,
      "start": 55.24,
      "duration": 0.0887,
      "velocity": 107,
      "chip": "ym2612"
    },
    {
      "channel": 4,
      "note": 53,
      "start": 55.3718,
      "duration": 0.1169,
      "velocity": 100,
      "chip": "ym2612"
    },
    {
      "channel": 1,
      "note": 69,
      "start": 55.3749,
      "duration": 0.0738,
      "velocity": 107,
      "chip": "ym2612"
    },
    {
      "channel": 4,
      "note": 52,
      "start": 55.5119,
      "duration": 0.0969,
      "velocity": 100,
      "chip": "ym2612"
    },
    {
      "channel": 0,
      "note": 103,
      "start": 55.5148,
      "duration": 0.0737,
      "velocity": 127,
      "chip": "ym2612"
    },
    {
      "channel": 1,
      "note": 64,
      "start": 55.5176,
      "duration": 0.0712,
      "velocity": 107,
      "chip": "ym2612"
    },
    {
      "channel": 1,
      "note": 69,
      "start": 55.6324,
      "duration": 0.0962,
      "velocity": 107,
      "chip": "ym2612"
    },
    {
      "channel": 4,
      "note": 52,
      "start": 55.7719,
      "duration": 0.1169,
      "velocity": 100,
      "chip": "ym2612"
    },
    {
      "channel": 5,
      "note": 52,
      "start": 55.7746,
      "duration": 0.1144,
      "velocity": 98,
      "chip": "ym2612"
    },
    {
      "channel": 0,
      "note": 103,
      "start": 55.7774,
      "duration": 0.0912,
      "velocity": 127,
      "chip": "ym2612"
    },
    {
      "channel": 1,
      "note": 64,
      "start": 55.78,
      "duration": 0.0887,
      "velocity": 107,
      "chip": "ym2612"
    },
    {
      "channel": 4,
      "note": 53,
      "start": 55.9118,
      "duration": 0.0969,
      "velocity": 100,
      "chip": "ym2612"
    },
    {
      "channel": 1,
      "note": 57,
      "start": 55.9149,
      "duration": 0.0738,
      "velocity": 107,
      "chip": "ym2612"
    },
    {
      "channel": 4,
      "note": 52,
      "start": 56.0519,
      "duration": 0.0968,
      "velocity": 100,
      "chip": "ym2612"
    },
    {
      "channel": 0,
      "note": 103,
      "start": 56.0549,
      "duration": 0.0738,
      "velocity": 127,
      "chip": "ym2612"
    },
    {
      "channel": 1,
      "note": 64,
      "start": 56.0579,
      "duration": 0.0709,
      "velocity": 107,
      "chip": "ym2612"
    },
    {
      "channel": 1,
      "note": 69,
      "start": 56.1724,
      "duration": 0.0962,
      "velocity": 107,
      "chip": "ym2612"
    },
    {
      "channel": 4,
      "note": 52,
      "start": 56.3119,
      "duration": 0.1169,
      "velocity": 100,
      "chip": "ym2612"
    },
    {
      "channel": 5,
      "note": 52,
      "start": 56.3146,
      "duration": 0.1144,
      "velocity": 98,
      "chip": "ym2612"
    },
    {
      "channel": 0,
      "note": 103,
      "start": 56.3174,
      "duration": 0.0912,
      "velocity": 127,
      "chip": "ym2612"
    },
    {
      "channel": 1,
      "note": 64,
      "start": 56.32,
      "duration": 0.0887,
      "velocity": 107,
      "chip": "ym2612"
    },
    {
      "channel": 4,
      "note": 53,
      "start": 56.4518,
      "duration": 0.0969,
      "velocity": 100,
      "chip": "ym2612"
    },
    {
      "channel": 1,
      "note": 69,
      "start": 56.4549,
      "duration": 0.0738,
      "velocity": 107,
      "chip": "ym2612"
    },
    {
      "channel": 4,
      "note": 52,
      "start": 56.5919,
      "duration": 0.0968,
      "velocity": 100,
      "chip": "ym2612"
    },
    {
      "channel": 0,
      "note": 103,
      "start": 56.5952,
      "duration": 0.0734,
      "velocity": 127,
      "chip": "ym2612"
    },
    {
      "channel": 1,
      "note": 64,
      "start": 56.5979,
      "duration": 0.0707,
      "velocity": 107,
      "chip": "ym2612"
    },
    {
      "channel": 1,
      "note": 57,
      "start": 56.7124,
      "duration": 0.0962,
      "velocity": 107,
      "chip": "ym2612"
    },
    {
      "channel": 4,
      "note": 52,
      "start": 56.8524,
      "duration": 0.1163,
      "velocity": 100,
      "chip": "ym2612"
    },
    {
      "channel": 5,
      "note": 52,
      "start": 56.855,
      "duration": 0.1139,
      "velocity": 98,
      "chip": "ym2612"
    },
    {
      "channel": 0,
      "note": 103,
      "start": 56.8578,
      "duration": 0.0709,
      "velocity": 127,
      "chip": "ym2612"
    },
    {
      "channel": 1,
      "note": 64,
      "start": 56.8605,
      "duration": 0.0682,
      "velocity": 107,
      "chip": "ym2612"
    },
    {
      "channel": 4,
      "note": 53,
      "start": 56.9919,
      "duration": 0.0968,
      "velocity": 100,
      "chip": "ym2612"
    },
    {
      "channel": 1,
      "note": 69,
      "start": 56.9949,
      "duration": 0.0737,
      "velocity": 107,
      "chip": "ym2612"
    },
    {
      "channel": 4,
      "note": 52,
      "start": 57.112,
      "duration": 0.1167,
      "velocity": 100,
      "chip": "ym2612"
    },
    {
      "channel": 0,
      "note": 103,
      "start": 57.1149,
      "duration": 0.0938,
      "velocity": 127,
      "chip": "ym2612"
    },
    {
      "channel": 1,
      "note": 64,
      "start": 57.1176,
      "duration": 0.0912,
      "velocity": 107,
      "chip": "ym2612"
    },
    {
      "channel": 1,
      "note": 69,
      "start": 57.2524,
      "duration": 0.0963,
      "velocity": 107,
      "chip": "ym2612"
    },
    {
      "channel": 4,
      "note": 52,
      "start": 57.392,
      "duration": 0.1167,
      "velocity": 100,
      "chip": "ym2612"
    },
    {
      "channel": 5,
      "note": 52,
      "start": 57.3946,
      "duration": 0.1142,
      "velocity": 98,
      "chip": "ym2612"
    },
    {
      "channel": 0,
      "note": 103,
      "start": 57.3974,
      "duration": 0.0712,
      "velocity": 127,
      "chip": "ym2612"
    },
    {
      "channel": 1,
      "note": 64,
      "start": 57.4001,
      "duration": 0.0687,
      "velocity": 107,
      "chip": "ym2612"
    },
    {
      "channel": 4,
      "note": 53,
      "start": 57.5319,
      "duration": 0.0968,
      "velocity": 100,
      "chip": "ym2612"
    },
    {
      "channel": 1,
      "note": 57,
      "start": 57.5349,
      "duration": 0.0737,
      "velocity": 107,
      "chip": "ym2612"
    },
    {
      "channel": 4,
      "note": 52,
      "start": 57.652,
      "duration": 0.1167,
      "velocity": 100,
      "chip": "ym2612"
    },
    {
      "channel": 0,
      "note": 103,
      "start": 57.6549,
      "duration": 0.0938,
      "velocity": 127,
      "chip": "ym2612"
    },
    {
      "channel": 1,
      "note": 64,
      "start": 57.6576,
      "duration": 0.0912,
      "velocity": 107,
      "chip": "ym2612"
    },
    {
      "channel": 1,
      "note": 57,
      "start": 57.7924,
      "duration": 0.0963,
      "velocity": 107,
      "chip": "ym2612"
    },
    {
      "channel": 4,
      "note": 52,
      "start": 57.932,
      "duration": 0.1168,
      "velocity": 100,
      "chip": "ym2612"
    },
    {
      "channel": 5,
      "note": 52,
      "start": 57.9353,
      "duration": 0.1137,
      "velocity": 98,
      "chip": "ym2612"
    },
    {
      "channel": 0,
      "note": 103,
      "start": 57.938,
      "duration": 0.0706,
      "velocity": 127,
      "chip": "ym2612"
    },
    {
      "channel": 1,
      "note": 64,
      "start": 57.9407,
      "duration": 0.068,
      "velocity": 107,
      "chip": "ym2612"
    },
    {
      "channel": 4,
      "note": 53,
      "start": 58.0718,
      "duration": 0.0971,
      "velocity": 100,
      "chip": "ym2612"
    },
    {
      "channel": 1,
      "note": 64,
      "start": 58.0749,
      "duration": 0.0738,
      "velocity": 107,
      "chip": "ym2612"
    },
    {
      "channel": 2,
      "note": 84,
      "start": 58.1922,
      "duration": 10.7569,
      "velocity": 104,
      "chip": "ym2612"
    },
    {
      "channel": 0,
      "note": 81,
      "start": 58.1948,
      "duration": 10.7538,
      "velocity": 104,
      "chip": "ym2612"
    },
    {
      "channel": 5,
      "note": 76,
      "start": 58.1977,
      "duration": 10.7514,
      "velocity": 104,
      "chip": "ym2612"
    },
    {
      "channel": 4,
      "note": 45,
      "start": 58.2004,
      "duration": 0.1084,
      "velocity": 100,
      "chip": "ym2612"
    },
    {
      "channel": 1,
      "note": 103,
      "start": 58.2035,
      "duration": 0.0852,
      "velocity": 127,
      "chip": "ym2612"
    },
    {
      "channel": 3,
      "note": 69,
      "start": 58.2068,
      "duration": 0.082,
      "velocity": 107,
      "chip": "ym2612"
    },
    {
      "channel": 3,
      "note": 64,
      "start": 58.3325,
      "duration": 0.0961,
      "velocity": 107,
      "chip": "ym2612"
    },
    {
      "channel": 4,
      "note": 45,
      "start": 58.4723,
      "duration": 0.0964,
      "velocity": 100,
      "chip": "ym2612"
    },
    {
      "channel": 1,
      "note": 103,
      "start": 58.4753,
      "duration": 0.0735,
      "velocity": 127,
      "chip": "ym2612"
    },
    {
      "channel": 3,
      "note": 57,
      "start": 58.478,
      "duration": 0.0709,
      "velocity": 107,
      "chip": "ym2612"
    },
    {
      "channel": 4,
      "note": 48,
      "start": 58.6118,
      "duration": 0.0969,
      "velocity": 100,
      "chip": "ym2612"
    },
    {
      "channel": 3,
      "note": 69,
      "start": 58.6149,
      "duration": 0.0738,
      "velocity": 107,
      "chip": "ym2612"
    },
    {
      "channel": 4,
      "note": 45,
      "start": 58.732,
      "duration": 0.1167,
      "velocity": 100,
      "chip": "ym2612"
    },
    {
      "channel": 1,
      "note": 103,
      "start": 58.7349,
      "duration": 0.0937,
      "velocity": 127,
      "chip": "ym2612"
    },
    {
      "channel": 3,
      "note": 64,
      "start": 58.7377,
      "duration": 0.0911,
      "velocity": 107,
      "chip": "ym2612"
    },
    {
      "channel": 3,
      "note": 57,
      "start": 58.8726,
      "duration": 0.0962,
      "velocity": 107,
      "chip": "ym2612"
    },
    {
      "channel": 4,
      "note": 45,
      "start": 59.012,
      "duration": 0.0967,
      "velocity": 100,
      "chip": "ym2612"
    },
    {
      "channel": 1,
      "note": 103,
      "start": 59.0149,
      "duration": 0.0738,
      "velocity": 127,
      "chip": "ym2612"
    },
    {
      "channel": 3,
      "note": 69,
      "start": 59.0178,
      "duration": 0.0711,
      "velocity": 107,
      "chip": "ym2612"
    },
    {
      "channel": 4,
      "note": 48,
      "start": 59.1518,
      "duration": 0.0969,
      "velocity": 100,
      "chip": "ym2612"
    },
    {
      "channel": 3,
      "note": 64,
      "start": 59.1549,
      "duration": 0.0738,
      "velocity": 107,
      "chip": "ym2612"
    },
    {
      "channel": 4,
      "note": 45,
      "start": 59.272,
      "duration": 0.1167,
      "velocity": 100,
      "chip": "ym2612"
    },
    {
      "channel": 1,
      "note": 103,
      "start": 59.2749,
      "duration": 0.0937,
      "velocity": 127,
      "chip": "ym2612"
    },
    {
      "channel": 3,
      "note": 57,
      "start": 59.2777,
      "duration": 0.0911,
      "velocity": 107,
      "chip": "ym2612"
    },
    {
      "channel": 3,
      "note": 64,
      "start": 59.4126,
      "duration": 0.0761,
      "velocity": 107,
      "chip": "ym2612"
    },
    {
      "channel": 4,
      "note": 45,
      "start": 59.552,
      "duration": 0.0967,
      "velocity": 100,
      "chip": "ym2612"
    },
    {
      "channel": 1,
      "note": 103,
      "start": 59.5549,
      "duration": 0.0738,
      "velocity": 127,
      "chip": "ym2612"
    },
    {
      "channel": 3,
      "note": 69,
      "start": 59.5577,
      "duration": 0.0711,
      "velocity": 107,
      "chip": "ym2612"
    },
    {
      "channel": 4,
      "note": 48,
      "start": 59.6719,
      "duration": 0.1168,
      "velocity": 100,
      "chip": "ym2612"
    },
    {
      "channel": 3,
      "note": 64,
      "start": 59.675,
      "duration": 0.0936,
      "velocity": 107,
      "chip": "ym2612"
    },
    {
      "channel": 4,
      "note": 45,
      "start": 59.8121,
      "duration": 0.1167,
      "velocity": 100,
      "chip": "ym2612"
    },
    {
      "channel": 1,
      "note": 103,
      "start": 59.8149,
      "duration": 0.0938,
      "velocity": 127,
      "chip": "ym2612"
    },
    {
      "channel": 3,
      "note": 57,
      "start": 59.8178,
      "duration": 0.0911,
      "velocity": 107,
      "chip": "ym2612"
    },
    {
      "channel": 3,
      "note": 64,
      "start": 59.9525,
      "duration": 0.0761,
      "velocity": 107,
      "chip": "ym2612"
    },
    {
      "channel": 4,
      "note": 45,
      "start": 60.0919,
      "duration": 0.0968,
      "velocity": 100,
      "chip": "ym2612"
    },
    {
      "channel": 1,
      "note": 103,
      "start": 60.0949,
      "duration": 0.0737,
      "velocity": 127,
      "chip": "ym2612"
    },
    {
      "channel": 3,
      "note": 69,
      "start": 60.0977,
      "duration": 0.0711,
      "velocity": 107,
      "chip": "ym2612"
    },
    {
      "channel": 4,
      "note": 48,
      "start": 60.2122,
      "duration": 0.1165,
      "velocity": 100,
      "chip": "ym2612"
    },
    {
      "channel": 3,
      "note": 64,
      "start": 60.2154,
      "duration": 0.0933,
      "velocity": 107,
      "chip": "ym2612"
    },
    {
      "channel": 1,
      "note": 64,
      "start": 60.3523,
      "duration": 2.1363,
      "velocity": 104,
      "chip": "ym2612"
    },
    {
      "channel": 4,
      "note": 45,
      "start": 60.3551,
      "duration": 0.1136,
      "velocity": 100,
      "chip": "ym2612"
    },
    {
      "channel": 3,
      "note": 103,
      "start": 60.3583,
      "duration": 0.0012,
      "velocity": 127,
      "chip": "ym2612"
    },
    {
      "channel": 3,
      "note": 69,
      "start": 60.3616,
      "duration": 0.0871,
      "velocity": 107,
      "chip": "ym2612"
    },
    {
      "channel": 3,
      "note": 64,
      "start": 60.4925,
      "duration": 0.0762,
      "velocity": 107,
      "chip": "ym2612"
    },
    {
      "channel": 4,
      "note": 45,
      "start": 60.6319,
      "duration": 0.0968,
      "velocity": 100,
      "chip": "ym2612"
    },
    {
      "channel": 3,
      "note": 103,
      "start": 60.6351,
      "duration": 0.0008,
      "velocity": 127,
      "chip": "ym2612"
    },
    {
      "channel": 3,
      "note": 57,
      "start": 60.6381,
      "duration": 0.0706,
      "velocity": 107,
      "chip": "ym2612"
    },
    {
      "channel": 4,
      "note": 48,
      "start": 60.7518,
      "duration": 0.117,
      "velocity": 100,
      "chip": "ym2612"
    },
    {
      "channel": 3,
      "note": 69,
      "start": 60.7549,
      "duration": 0.0938,
      "velocity": 107,
      "chip": "ym2612"
    },
    {
      "channel": 4,
      "note": 45,
      "start": 60.8921,
      "duration": 0.1167,
      "velocity": 100,
      "chip": "ym2612"
    },
    {
      "channel": 3,
      "note": 103,
      "start": 60.8955,
      "duration": 0.0008,
      "velocity": 127,
      "chip": "ym2612"
    },
    {
      "channel": 3,
      "note": 64,
      "start": 60.8985,
      "duration": 0.0902,
      "velocity": 107,
      "chip": "ym2612"
    },
    {
      "channel": 3,
      "note": 57,
      "start": 61.0325,
      "duration": 0.0762,
      "velocity": 107,
      "chip": "ym2612"
    },
    {
      "channel": 4,
      "note": 45,
      "start": 61.1719,
      "duration": 0.0968,
      "velocity": 100,
      "chip": "ym2612"
    },
    {
      "channel": 3,
      "note": 103,
      "start": 61.1751,
      "duration": 0.0008,
      "velocity": 127,
      "chip": "ym2612"
    },
    {
      "channel": 3,
      "note": 69,
      "start": 61.1781,
      "duration": 0.0706,
      "velocity": 107,
      "chip": "ym2612"
    },
    {
      "channel": 4,
      "note": 48,
      "start": 61.2918,
      "duration": 0.117,
      "velocity": 100,
      "chip": "ym2612"
    },
    {
      "channel": 3,
      "note": 64,
      "start": 61.2949,
      "duration": 0.0938,
      "velocity": 107,
      "chip": "ym2612"
    },
    {
      "channel": 4,
      "note": 45,
      "start": 61.4321,
      "duration": 0.1167,
      "velocity": 100,
      "chip": "ym2612"
    },
    {
      "channel": 3,
      "note": 103,
      "start": 61.4352,
      "duration": 0.0007,
      "velocity": 127,
      "chip": "ym2612"
    },
    {
      "channel": 3,
      "note": 57,
      "start": 61.4381,
      "duration": 0.0906,
      "velocity": 107,
      "chip": "ym2612"
    },
    {
      "channel": 3,
      "note": 64,
      "start": 61.5726,
      "duration": 0.0762,
      "velocity": 107,
      "chip": "ym2612"
    },
    {
      "channel": 4,
      "note": 45,
      "start": 61.7119,
      "duration": 0.0969,
      "velocity": 100,
      "chip": "ym2612"
    },
    {
      "channel": 3,
      "note": 103,
      "start": 61.7151,
      "duration": 0.0007,
      "velocity": 127,
      "chip": "ym2612"
    },
    {
      "channel": 3,
      "note": 69,
      "start": 61.718,
      "duration": 0.0707,
      "velocity": 107,
      "chip": "ym2612"
    },
    {
      "channel": 4,
      "note": 48,
      "start": 61.8319,
      "duration": 0.1169,
      "velocity": 100,
      "chip": "ym2612"
    },
    {
      "channel": 3,
      "note": 64,
      "start": 61.835,
      "duration": 0.0937,
      "velocity": 107,
      "chip": "ym2612"
    },
    {
      "channel": 4,
      "note": 45,
      "start": 61.9722,
      "duration": 0.1165,
      "velocity": 100,
      "chip": "ym2612"
    },
    {
      "channel": 3,
      "note": 103,
      "start": 61.9754,
      "duration": 0.0007,
      "velocity": 127,
      "chip": "ym2612"
    },
    {
      "channel": 3,
      "note": 57,
      "start": 61.9784,
      "duration": 0.0703,
      "velocity": 107,
      "chip": "ym2612"
    },
    {
      "channel": 3,
      "note": 64,
      "start": 62.1125,
      "duration": 0.0762,
      "velocity": 107,
      "chip": "ym2612"
    },
    {
      "channel": 4,
      "note": 45,
      "start": 62.2319,
      "duration": 0.1168,
      "velocity": 100,
      "chip": "ym2612"
    },
    {
      "channel": 3,
      "note": 103,
      "start": 62.2351,
      "duration": 0.0008,
      "velocity": 127,
      "chip": "ym2612"
    },
    {
      "channel": 3,
      "note": 69,
      "start": 62.2381,
      "duration": 0.0906,
      "velocity": 107,
      "chip": "ym2612"
    },
    {
      "channel": 4,
      "note": 48,
      "start": 62.3717,
      "duration": 0.1171,
      "velocity": 100,
      "chip": "ym2612"
    },
    {
      "channel": 3,
      "note": 64,
      "start": 62.3749,
      "duration": 0.0938,
      "velocity": 107,
      "chip": "ym2612"
    },
    {
      "channel": 1,
      "note": 74,
      "start": 62.5121,
      "duration": 1.0566,
      "velocity": 104,
      "chip": "ym2612"
    },
    {
      "channel": 4,
      "note": 45,
      "start": 62.5149,
      "duration": 0.1139,
      "velocity": 100,
      "chip": "ym2612"
    },
    {
      "channel": 3,
      "note": 103,
      "start": 62.5181,
      "duration": 0.0011,
      "velocity": 127,
      "chip": "ym2612"
    },
    {
      "channel": 3,
      "note": 57,
      "start": 62.5214,
      "duration": 0.0673,
      "velocity": 107,
      "chip": "ym2612"
    },
    {
      "channel": 3,
      "note": 69,
      "start": 62.6525,
      "duration": 0.0762,
      "velocity": 107,
      "chip": "ym2612"
    },
    {
      "channel": 4,
      "note": 45,
      "start": 62.7719,
      "duration": 0.1169,
      "velocity": 100,
      "chip": "ym2612"
    },
    {
      "channel": 3,
      "note": 103,
      "start": 62.7751,
      "duration": 0.0007,
      "velocity": 127,
      "chip": "ym2612"
    },
    {
      "channel": 3,
      "note": 64,
      "start": 62.778,
      "duration": 0.0907,
      "velocity": 107,
      "chip": "ym2612"
    },
    {
      "channel": 4,
      "note": 48,
      "start": 62.9119,
      "duration": 0.1169,
      "velocity": 100,
      "chip": "ym2612"
    },
    {
      "channel": 3,
      "note": 57,
      "start": 62.915,
      "duration": 0.0937,
      "velocity": 107,
      "chip": "ym2612"
    },
    {
      "channel": 4,
      "note": 45,
      "start": 63.052,
      "duration": 0.1167,
      "velocity": 100,
      "chip": "ym2612"
    },
    {
      "channel": 3,
      "note": 103,
      "start": 63.0551,
      "duration": 0.0007,
      "velocity": 127,
      "chip": "ym2612"
    },
    {
      "channel": 3,
      "note": 69,
      "start": 63.0581,
      "duration": 0.0706,
      "velocity": 107,
      "chip": "ym2612"
    },
    {
      "channel": 3,
      "note": 64,
      "start": 63.1925,
      "duration": 0.0762,
      "velocity": 107,
      "chip": "ym2612"
    },
    {
      "channel": 4,
      "note": 45,
      "start": 63.312,
      "duration": 0.1168,
      "velocity": 100,
      "chip": "ym2612"
    },
    {
      "channel": 3,
      "note": 103,
      "start": 63.3151,
      "duration": 0.0008,
      "velocity": 127,
      "chip": "ym2612"
    },
    {
      "channel": 3,
      "note": 69,
      "start": 63.3181,
      "duration": 0.0906,
      "velocity": 107,
      "chip": "ym2612"
    },
    {
      "channel": 4,
      "note": 48,
      "start": 63.4519,
      "duration": 0.117,
      "velocity": 100,
      "chip": "ym2612"
    },
    {
      "channel": 3,
      "note": 64,
      "start": 63.4549,
      "duration": 0.0938,
      "velocity": 107,
      "chip": "ym2612"
    },
    {
      "channel": 1,
      "note": 72,
      "start": 63.5915,
      "duration": 1.0572,
      "velocity": 104,
      "chip": "ym2612"
    },
    {
      "channel": 4,
      "note": 45,
      "start": 63.5947,
      "duration": 0.0941,
      "velocity": 100,
      "chip": "ym2612"
    },
    {
      "channel": 3,
      "note": 103,
      "start": 63.5978,
      "duration": 0.0007,
      "velocity": 127,
      "chip": "ym2612"
    },
    {
      "channel": 3,
      "note": 57,
      "start": 63.6008,
      "duration": 0.0679,
      "velocity": 107,
      "chip": "ym2612"
    },
    {
      "channel": 3,
      "note": 69,
      "start": 63.7325,
      "duration": 0.0762,
      "velocity": 107,
      "chip": "ym2612"
    },
    {
      "channel": 4,
      "note": 45,
      "start": 63.8519,
      "duration": 0.1169,
      "velocity": 100,
      "chip": "ym2612"
    },
    {
      "channel": 3,
      "note": 103,
      "start": 63.8551,
      "duration": 0.0007,
      "velocity": 127,
      "chip": "ym2612"
    },
    {
      "channel": 3,
      "note": 64,
      "start": 63.858,
      "duration": 0.0907,
      "velocity": 107,
      "chip": "ym2612"
    },
    {
      "channel": 4,
      "note": 48,
      "start": 63.9919,
      "duration": 0.1169,
      "velocity": 100,
      "chip": "ym2612"
    },
    {
      "channel": 3,
      "note": 57,
      "start": 63.995,
      "duration": 0.0937,
      "velocity": 107,
      "chip": "ym2612"
    },
    {
      "channel": 4,
      "note": 45,
      "start": 64.1319,
      "duration": 0.0968,
      "velocity": 100,
      "chip": "ym2612"
    },
    {
      "channel": 3,
      "note": 103,
      "start": 64.1351,
      "duration": 0.0008,
      "velocity": 127,
      "chip": "ym2612"
    },
    {
      "channel": 3,
      "note": 69,
      "start": 64.1381,
      "duration": 0.0706,
      "velocity": 107,
      "chip": "ym2612"
    },
    {
      "channel": 3,
      "note": 64,
      "start": 64.2725,
      "duration": 0.0762,
      "velocity": 107,
      "chip": "ym2612"
    },
    {
      "channel": 4,
      "note": 45,
      "start": 64.3919,
      "duration": 0.1168,
      "velocity": 100,
      "chip": "ym2612"
    },
    {
      "channel": 3,
      "note": 103,
      "start": 64.3951,
      "duration": 0.0008,
      "velocity": 127,
      "chip": "ym2612"
    },
    {
      "channel": 3,
      "note": 69,
      "start": 64.3981,
      "duration": 0.0906,
      "velocity": 107,
      "chip": "ym2612"
    },
    {
      "channel": 4,
      "note": 48,
      "start": 64.5318,
      "duration": 0.1171,
      "velocity": 100,
      "chip": "ym2612"
    },
    {
      "channel": 3,
      "note": 64,
      "start": 64.5349,
      "duration": 0.0738,
      "velocity": 107,
      "chip": "ym2612"
    },
    {
      "channel": 1,
      "note": 71,
      "start": 64.6715,
      "duration": 1.0572,
      "velocity": 104,
      "chip": "ym2612"
    },
    {
      "channel": 4,
      "note": 45,
      "start": 64.6744,
      "duration": 0.0143,
      "velocity": 100,
      "chip": "ym2612"
    },
    {
      "channel": 3,
      "note": 45,
      "start": 64.6772,
      "duration": 0.0915,
      "velocity": 100,
      "chip": "ym2612"
    },
    {
      "channel": 4,
      "note": 64,
      "start": 64.7927,
      "duration": 0.0961,
      "velocity": 107,
      "chip": "ym2612"
    },
    {
      "channel": 3,
      "note": 45,
      "start": 64.9323,
      "duration": 0.1163,
      "velocity": 100,
      "chip": "ym2612"
    },
    {
      "channel": 4,
      "note": 103,
      "start": 64.9354,
      "duration": 0.0008,
      "velocity": 127,
      "chip": "ym2612"
    },
    {
      "channel": 4,
      "note": 69,
      "start": 64.9385,
      "duration": 0.0903,
      "velocity": 107,
      "chip": "ym2612"
    },
    {
      "channel": 3,
      "note": 48,
      "start": 65.0718,
      "duration": 0.1169,
      "velocity": 100,
      "chip": "ym2612"
    },
    {
      "channel": 4,
      "note": 64,
      "start": 65.075,
      "duration": 0.0737,
      "velocity": 107,
      "chip": "ym2612"
    },
    {
      "channel": 3,
      "note": 45,
      "start": 65.2119,
      "duration": 0.0967,
      "velocity": 100,
      "chip": "ym2612"
    },
    {
      "channel": 4,
      "note": 103,
      "start": 65.2154,
      "duration": 0.0008,
      "velocity": 127,
      "chip": "ym2612"
    },
    {
      "channel": 4,
      "note": 57,
      "start": 65.2184,
      "duration": 0.0704,
      "velocity": 107,
      "chip": "ym2612"
    },
    {
      "channel": 4,
      "note": 64,
      "start": 65.3326,
      "duration": 0.0962,
      "velocity": 107,
      "chip": "ym2612"
    },
    {
      "channel": 3,
      "note": 45,
      "start": 65.4719,
      "duration": 0.1168,
      "velocity": 100,
      "chip": "ym2612"
    },
    {
      "channel": 4,
      "note": 103,
      "start": 65.4751,
      "duration": 0.0007,
      "velocity": 127,
      "chip": "ym2612"
    },
    {
      "channel": 4,
      "note": 69,
      "start": 65.478,
      "duration": 0.0908,
      "velocity": 107,
      "chip": "ym2612"
    },
    {
      "channel": 3,
      "note": 48,
      "start": 65.6118,
      "duration": 0.117,
      "velocity": 100,
      "chip": "ym2612"
    },
    {
      "channel": 4,
      "note": 64,
      "start": 65.615,
      "duration": 0.0737,
      "velocity": 107,
      "chip": "ym2612"
    },
    {
      "channel": 1,
      "note": 64,
      "start": 65.7521,
      "duration": 3.1967,
      "velocity": 104,
      "chip": "ym2612"
    },
    {
      "channel": 3,
      "note": 45,
      "start": 65.7547,
      "duration": 0.094,
      "velocity": 100,
      "chip": "ym2612"
    },
    {
      "channel": 4,
      "note": 103,
      "start": 65.7579,
      "duration": 0.0007,
      "velocity": 127,
      "chip": "ym2612"
    },
    {
      "channel": 4,
      "note": 57,
      "start": 65.7609,
      "duration": 0.0678,
      "velocity": 107,
      "chip": "ym2612"
    },
    {
      "channel": 4,
      "note": 69,
      "start": 65.8726,
      "duration": 0.0962,
      "velocity": 107,
      "chip": "ym2612"
    },
    {
      "channel": 3,
      "note": 45,
      "start": 66.0119,
      "duration": 0.1168,
      "velocity": 100,
      "chip": "ym2612"
    },
    {
      "channel": 4,
      "note": 103,
      "start": 66.0151,
      "duration": 0.0007,
      "velocity": 127,
      "chip": "ym2612"
    },
    {
      "channel": 4,
      "note": 64,
      "start": 66.0181,
      "duration": 0.0907,
      "velocity": 107,
      "chip": "ym2612"
    },
    {
      "channel": 3,
      "note": 48,
      "start": 66.1517,
      "duration": 0.0969,
      "velocity": 100,
      "chip": "ym2612"
    },
    {
      "channel": 4,
      "note": 57,
      "start": 66.1549,
      "duration": 0.0739,
      "velocity": 107,
      "chip": "ym2612"
    },
    {
      "channel": 3,
      "note": 45,
      "start": 66.292,
      "duration": 0.0967,
      "velocity": 100,
      "chip": "ym2612"
    },
    {
      "channel": 4,
      "note": 103,
      "start": 66.2951,
      "duration": 0.0007,
      "velocity": 127,
      "chip": "ym2612"
    },
    {
      "channel": 4,
      "note": 69,
      "start": 66.2981,
      "duration": 0.0707,
      "velocity": 107,
      "chip": "ym2612"
    },
    {
      "channel": 4,
      "note": 64,
      "start": 66.4126,
      "duration": 0.0962,
      "velocity": 107,
      "chip": "ym2612"
    },
    {
      "channel": 3,
      "note": 45,
      "start": 66.552,
      "duration": 0.1167,
      "velocity": 100,
      "chip": "ym2612"
    },
    {
      "channel": 4,
      "note": 103,
      "start": 66.5551,
      "duration": 0.0007,
      "velocity": 127,
      "chip": "ym2612"
    },
    {
      "channel": 4,
      "note": 69,
      "start": 66.5581,
      "duration": 0.0907,
      "velocity": 107,
      "chip": "ym2612"
    },
    {
      "channel": 3,
      "note": 48,
      "start": 66.6921,
      "duration": 0.0966,
      "velocity": 100,
      "chip": "ym2612"
    },
    {
      "channel": 4,
      "note": 64,
      "start": 66.6953,
      "duration": 0.0734,
      "velocity": 107,
      "chip": "ym2612"
    },
    {
      "channel": 3,
      "note": 45,
      "start": 66.8319,
      "duration": 0.0968,
      "velocity": 100,
      "chip": "ym2612"
    },
    {
      "channel": 4,
      "note": 103,
      "start": 66.8351,
      "duration": 0.0011,
      "velocity": 127,
      "chip": "ym2612"
    },
    {
      "channel": 4,
      "note": 59,
      "start": 66.8384,
      "duration": 0.0703,
      "velocity": 107,
      "chip": "ym2612"
    },
    {
      "channel": 4,
      "note": 52,
      "start": 66.9525,
      "duration": 0.0963,
      "velocity": 107,
      "chip": "ym2612"
    },
    {
      "channel": 3,
      "note": 45,
      "start": 67.0919,
      "duration": 0.1168,
      "velocity": 100,
      "chip": "ym2612"
    },
    {
      "channel": 4,
      "note": 103,
      "start": 67.0951,
      "duration": 0.0007,
      "velocity": 127,
      "chip": "ym2612"
    },
    {
      "channel": 4,
      "note": 59,
      "start": 67.0981,
      "duration": 0.0707,
      "velocity": 107,
      "chip": "ym2612"
    },
    {
      "channel": 3,
      "note": 48,
      "start": 67.2317,
      "duration": 0.0969,
      "velocity": 100,
      "chip": "ym2612"
    },
    {
      "channel": 4,
      "note": 64,
      "start": 67.2349,
      "duration": 0.0739,
      "velocity": 107,
      "chip": "ym2612"
    },
    {
      "channel": 3,
      "note": 45,
      "start": 67.352,
      "duration": 0.1167,
      "velocity": 100,
      "chip": "ym2612"
    },
    {
      "channel": 4,
      "note": 103,
      "start": 67.3551,
      "duration": 0.0007,
      "velocity": 127,
      "chip": "ym2612"
    },
    {
      "channel": 4,
      "note": 59,
      "start": 67.3581,
      "duration": 0.0907,
      "velocity": 107,
      "chip": "ym2612"
    },
    {
      "channel": 4,
      "note": 52,
      "start": 67.4925,
      "duration": 0.0963,
      "velocity": 107,
      "chip": "ym2612"
    },
    {
      "channel": 3,
      "note": 45,
      "start": 67.6319,
      "duration": 0.1168,
      "velocity": 100,
      "chip": "ym2612"
    },
    {
      "channel": 4,
      "note": 103,
      "start": 67.6351,
      "duration": 0.0007,
      "velocity": 127,
      "chip": "ym2612"
    },
    {
      "channel": 4,
      "note": 59,
      "start": 67.6381,
      "duration": 0.0707,
      "velocity": 107,
      "chip": "ym2612"
    },
    {
      "channel": 3,
      "note": 48,
      "start": 67.7717,
      "duration": 0.0969,
      "velocity": 100,
      "chip": "ym2612"
    },
    {
      "channel": 4,
      "note": 64,
      "start": 67.7749,
      "duration": 0.0739,
      "velocity": 107,
      "chip": "ym2612"
    },
    {
      "channel": 3,
      "note": 45,
      "start": 67.892,
      "duration": 0.1167,
      "velocity": 100,
      "chip": "ym2612"
    },
    {
      "channel": 4,
      "note": 103,
      "start": 67.8951,
      "duration": 0.0007,
      "velocity": 127,
      "chip": "ym2612"
    },
    {
      "channel": 4,
      "note": 52,
      "start": 67.8981,
      "duration": 0.0907,
      "velocity": 107,
      "chip": "ym2612"
    },
    {
      "channel": 4,
      "note": 59,
      "start": 68.0326,
      "duration": 0.0962,
      "velocity": 107,
      "chip": "ym2612"
    },
    {
      "channel": 3,
      "note": 45,
      "start": 68.1719,
      "duration": 0.1168,
      "velocity": 100,
      "chip": "ym2612"
    },
    {
      "channel": 4,
      "note": 103,
      "start": 68.1751,
      "duration": 0.0007,
      "velocity": 127,
      "chip": "ym2612"
    },
    {
      "channel": 4,
      "note": 64,
      "start": 68.1781,
      "duration": 0.0707,
      "velocity": 107,
      "chip": "ym2612"
    },
    {
      "channel": 3,
      "note": 48,
      "start": 68.3117,
      "duration": 0.0969,
      "velocity": 100,
      "chip": "ym2612"
    },
    {
      "channel": 4,
      "note": 59,
      "start": 68.3149,
      "duration": 0.0739,
      "velocity": 107,
      "chip": "ym2612"
    },
    {
      "channel": 3,
      "note": 45,
      "start": 68.4323,
      "duration": 0.1163,
      "velocity": 100,
      "chip": "ym2612"
    },
    {
      "channel": 4,
      "note": 103,
      "start": 68.4355,
      "duration": 0.0007,
      "velocity": 127,
      "chip": "ym2612"
    },
    {
      "channel": 4,
      "note": 64,
      "start": 68.4385,
      "duration": 0.0903,
      "velocity": 107,
      "chip": "ym2612"
    },
    {
      "channel": 4,
      "note": 71,
      "start": 68.5726,
      "duration": 0.0961,
      "velocity": 107,
      "chip": "ym2612"
    },
    {
      "channel": 3,
      "note": 45,
      "start": 68.7119,
      "duration": 0.0968,
      "velocity": 100,
      "chip": "ym2612"
    },
    {
      "channel": 4,
      "note": 103,
      "start": 68.7151,
      "duration": 0.0007,
      "velocity": 127,
      "chip": "ym2612"
    },
    {
      "channel": 4,
      "note": 64,
      "start": 68.718,
      "duration": 0.0708,
      "velocity": 107,
      "chip": "ym2612"
    },
    {
      "channel": 3,
      "note": 48,
      "start": 68.8518,
      "duration": 0.0971,
      "velocity": 100,
      "chip": "ym2612"
    },
    {
      "channel": 4,
      "note": 52,
      "start": 68.855,
      "duration": 0.0737,
      "velocity": 107,
      "chip": "ym2612"
    },
    {
      "channel": 1,
      "note": 71,
      "start": 68.9718,
      "duration": 1.0569,
      "velocity": 104,
      "chip": "ym2612"
    },
    {
      "channel": 0,
      "note": 83,
      "start": 68.9751,
      "duration": 8.3335,
      "velocity": 104,
      "chip": "ym2612"
    },
    {
      "channel": 5,
      "note": 79,
      "start": 68.9775,
      "duration": 8.3313,
      "velocity": 104,
      "chip": "ym2612"
    },
    {
      "channel": 2,
      "note": 76,
      "start": 68.9804,
      "duration": 8.3286,
      "velocity": 104,
      "chip": "ym2612"
    },
    {
      "channel": 3,
      "note": 52,
      "start": 68.983,
      "duration": 0.1056,
      "velocity": 100,
      "chip": "ym2612"
    },
    {
      "channel": 4,
      "note": 103,
      "start": 68.9861,
      "duration": 0.0012,
      "velocity": 127,
      "chip": "ym2612"
    },
    {
      "channel": 4,
      "note": 64,
      "start": 68.9896,
      "duration": 0.0792,
      "velocity": 107,
      "chip": "ym2612"
    },
    {
      "channel": 4,
      "note": 59,
      "start": 69.1126,
      "duration": 0.0961,
      "velocity": 107,
      "chip": "ym2612"
    },
    {
      "channel": 3,
      "note": 52,
      "start": 69.2519,
      "duration": 0.0968,
      "velocity": 100,
      "chip": "ym2612"
    },
    {
      "channel": 4,
      "note": 103,
      "start": 69.2551,
      "duration": 0.0007,
      "velocity": 127,
      "chip": "ym2612"
    },
    {
      "channel": 4,
      "note": 52,
      "start": 69.258,
      "duration": 0.0708,
      "velocity": 107,
      "chip": "ym2612"
    },
    {
      "channel": 3,
      "note": 53,
      "start": 69.3918,
      "duration": 0.0969,
      "velocity": 100,
      "chip": "ym2612"
    },
    {
      "channel": 4,
      "note": 64,
      "start": 69.395,
      "duration": 0.0737,
      "velocity": 107,
      "chip": "ym2612"
    },
    {
      "channel": 3,
      "note": 52,
      "start": 69.5119,
      "duration": 0.1168,
      "velocity": 100,
      "chip": "ym2612"
    },
    {
      "channel": 4,
      "note": 103,
      "start": 69.5154,
      "duration": 0.0007,
      "velocity": 127,
      "chip": "ym2612"
    },
    {
      "channel": 4,
      "note": 59,
      "start": 69.5184,
      "duration": 0.0904,
      "velocity": 107,
      "chip": "ym2612"
    },
    {
      "channel": 4,
      "note": 71,
      "start": 69.6526,
      "duration": 0.0761,
      "velocity": 107,
      "chip": "ym2612"
    },
    {
      "channel": 3,
      "note": 52,
      "start": 69.7919,
      "duration": 0.0968,
      "velocity": 100,
      "chip": "ym2612"
    },
    {
      "channel": 4,
      "note": 103,
      "start": 69.7951,
      "duration": 0.0007,
      "velocity": 127,
      "chip": "ym2612"
    },
    {
      "channel": 4,
      "note": 64,
      "start": 69.798,
      "duration": 0.0708,
      "velocity": 107,
      "chip": "ym2612"
    },
    {
      "channel": 3,
      "note": 53,
      "start": 69.9118,
      "duration": 0.117,
      "velocity": 100,
      "chip": "ym2612"
    },
    {
      "channel": 4,
      "note": 59,
      "start": 69.915,
      "duration": 0.0937,
      "velocity": 107,
      "chip": "ym2612"
    },
    {
      "channel": 1,
      "note": 72,
      "start": 70.0517,
      "duration": 0.5169,
      "velocity": 104,
      "chip": "ym2612"
    },
    {
      "channel": 3,
      "note": 52,
      "start": 70.0549,
      "duration": 0.1137,
      "velocity": 100,
      "chip": "ym2612"
    },
    {
      "channel": 4,
      "note": 103,
      "start": 70.058,
      "duration": 0.0008,
      "velocity": 127,
      "chip": "ym2612"
    },
    {
      "channel": 4,
      "note": 52,
      "start": 70.061,
      "duration": 0.0878,
      "velocity": 107,
      "chip": "ym2612"
    },
    {
      "channel": 4,
      "note": 64,
      "start": 70.1926,
      "duration": 0.0762,
      "velocity": 107,
      "chip": "ym2612"
    },
    {
      "channel": 3,
      "note": 52,
      "start": 70.3319,
      "duration": 0.0968,
      "velocity": 100,
      "chip": "ym2612"
    },
    {
      "channel": 4,
      "note": 103,
      "start": 70.3351,
      "duration": 0.0007,
      "velocity": 127,
      "chip": "ym2612"
    },
    {
      "channel": 4,
      "note": 59,
      "start": 70.338,
      "duration": 0.0708,
      "velocity": 107,
      "chip": "ym2612"
    },
    {
      "channel": 3,
      "note": 53,
      "start": 70.4517,
      "duration": 0.1171,
      "velocity": 100,
      "chip": "ym2612"
    },
    {
      "channel": 4,
      "note": 71,
      "start": 70.4549,
      "duration": 0.0939,
      "velocity": 107,
      "chip": "ym2612"
    },
    {
      "channel": 1,
      "note": 71,
      "start": 70.5918,
      "duration": 0.5169,
      "velocity": 104,
      "chip": "ym2612"
    },
    {
      "channel": 3,
      "note": 52,
      "start": 70.5946,
      "duration": 0.1141,
      "velocity": 100,
      "chip": "ym2612"
    },
    {
      "channel": 4,
      "note": 103,
      "start": 70.5977,
      "duration": 0.0008,
      "velocity": 127,
      "chip": "ym2612"
    },
    {
      "channel": 4,
      "note": 64,
      "start": 70.6007,
      "duration": 0.0881,
      "velocity": 107,
      "chip": "ym2612"
    },
    {
      "channel": 4,
      "note": 59,
      "start": 70.7326,
      "duration": 0.0761,
      "velocity": 107,
      "chip": "ym2612"
    },
    {
      "channel": 3,
      "note": 52,
      "start": 70.8719,
      "duration": 0.0968,
      "velocity": 100,
      "chip": "ym2612"
    },
    {
      "channel": 4,
      "note": 103,
      "start": 70.8751,
      "duration": 0.0007,
      "velocity": 127,
      "chip": "ym2612"
    },
    {
      "channel": 4,
      "note": 71,
      "start": 70.878,
      "duration": 0.0708,
      "velocity": 107,
      "chip": "ym2612"
    },
    {
      "channel": 3,
      "note": 53,
      "start": 70.9918,
      "duration": 0.117,
      "velocity": 100,
      "chip": "ym2612"
    },
    {
      "channel": 4,
      "note": 64,
      "start": 70.995,
      "duration": 0.0937,
      "velocity": 107,
      "chip": "ym2612"
    },
    {
      "channel": 1,
      "note": 74,
      "start": 71.1317,
      "duration": 1.0569,
      "velocity": 104,
      "chip": "ym2612"
    },
    {
      "channel": 3,
      "note": 52,
      "start": 71.1345,
      "duration": 0.1142,
      "velocity": 100,
      "chip": "ym2612"
    },
    {
      "channel": 4,
      "note": 103,
      "start": 71.1376,
      "duration": 0.0012,
      "velocity": 127,
      "chip": "ym2612"
    },
    {
      "channel": 4,
      "note": 59,
      "start": 71.141,
      "duration": 0.0878,
      "velocity": 107,
      "chip": "ym2612"
    },
    {
      "channel": 4,
      "note": 52,
      "start": 71.2725,
      "duration": 0.0762,
      "velocity": 107,
      "chip": "ym2612"
    },
    {
      "channel": 3,
      "note": 52,
      "start": 71.412,
      "duration": 0.0967,
      "velocity": 100,
      "chip": "ym2612"
    },
    {
      "channel": 4,
      "note": 103,
      "start": 71.4151,
      "duration": 0.0007,
      "velocity": 127,
      "chip": "ym2612"
    },
    {
      "channel": 4,
      "note": 64,
      "start": 71.4181,
      "duration": 0.0707,
      "velocity": 107,
      "chip": "ym2612"
    },
    {
      "channel": 3,
      "note": 53,
      "start": 71.5317,
      "duration": 0.1169,
      "velocity": 100,
      "chip": "ym2612"
    },
    {
      "channel": 4,
      "note": 59,
      "start": 71.5349,
      "duration": 0.0939,
      "velocity": 107,
      "chip": "ym2612"
    },
    {
      "channel": 3,
      "note": 52,
      "start": 71.672,
      "duration": 0.1167,
      "velocity": 100,
      "chip": "ym2612"
    },
    {
      "channel": 4,
      "note": 103,
      "start": 71.6751,
      "duration": 0.0007,
      "velocity": 127,
      "chip": "ym2612"
    },
    {
      "channel": 4,
      "note": 64,
      "start": 71.6781,
      "duration": 0.0907,
      "velocity": 107,
      "chip": "ym2612"
    },
    {
      "channel": 4,
      "note": 59,
      "start": 71.8126,
      "duration": 0.0762,
      "velocity": 107,
      "chip": "ym2612"
    },
    {
      "channel": 3,
      "note": 52,
      "start": 71.9523,
      "duration": 0.0963,
      "velocity": 100,
      "chip": "ym2612"
    },
    {
      "channel": 4,
      "note": 103,
      "start": 71.9554,
      "duration": 0.0008,
      "velocity": 127,
      "chip": "ym2612"
    },
    {
      "channel": 4,
      "note": 52,
      "start": 71.9585,
      "duration": 0.0703,
      "velocity": 107,
      "chip": "ym2612"
    },
    {
      "channel": 3,
      "note": 53,
      "start": 72.0718,
      "duration": 0.117,
      "velocity": 100,
      "chip": "ym2612"
    },
    {
      "channel": 4,
      "note": 64,
      "start": 72.075,
      "duration": 0.0937,
      "velocity": 107,
      "chip": "ym2612"
    },
    {
      "channel": 1,
      "note": 72,
      "start": 72.2114,
      "duration": 1.0572,
      "velocity": 104,
      "chip": "ym2612"
    },
    {
      "channel": 3,
      "note": 52,
      "start": 72.2142,
      "duration": 0.1145,
      "velocity": 100,
      "chip": "ym2612"
    },
    {
      "channel": 4,
      "note": 103,
      "start": 72.2173,
      "duration": 0.0008,
      "velocity": 127,
      "chip": "ym2612"
    },
    {
      "channel": 4,
      "note": 59,
      "start": 72.2203,
      "duration": 0.0684,
      "velocity": 107,
      "chip": "ym2612"
    },
    {
      "channel": 4,
      "note": 52,
      "start": 72.3525,
      "duration": 0.0763,
      "velocity": 107,
      "chip": "ym2612"
    },
    {
      "channel": 3,
      "note": 52,
      "start": 72.4719,
      "duration": 0.1168,
      "velocity": 100,
      "chip": "ym2612"
    },
    {
      "channel": 4,
      "note": 103,
      "start": 72.4751,
      "duration": 0.0007,
      "velocity": 127,
      "chip": "ym2612"
    },
    {
      "channel": 4,
      "note": 64,
      "start": 72.4781,
      "duration": 0.0907,
      "velocity": 107,
      "chip": "ym2612"
    },
    {
      "channel": 3,
      "note": 53,
      "start": 72.6117,
      "duration": 0.1169,
      "velocity": 100,
      "chip": "ym2612"
    },
    {
      "channel": 4,
      "note": 59,
      "start": 72.6149,
      "duration": 0.0939,
      "velocity": 107,
      "chip": "ym2612"
    },
    {
      "channel": 3,
      "note": 52,
      "start": 72.752,
      "duration": 0.1167,
      "velocity": 100,
      "chip": "ym2612"
    },
    {
      "channel": 4,
      "note": 103,
      "start": 72.7551,
      "duration": 0.0007,
      "velocity": 127,
      "chip": "ym2612"
    },
    {
      "channel": 4,
      "note": 64,
      "start": 72.7581,
      "duration": 0.0707,
      "velocity": 107,
      "chip": "ym2612"
    },
    {
      "channel": 4,
      "note": 59,
      "start": 72.8926,
      "duration": 0.0762,
      "velocity": 107,
      "chip": "ym2612"
    },
    {
      "channel": 3,
      "note": 52,
      "start": 73.0119,
      "duration": 0.1168,
      "velocity": 100,
      "chip": "ym2612"
    },
    {
      "channel": 4,
      "note": 103,
      "start": 73.0151,
      "duration": 0.0007,
      "velocity": 127,
      "chip": "ym2612"
    },
    {
      "channel": 4,
      "note": 52,
      "start": 73.0181,
      "duration": 0.0907,
      "velocity": 107,
      "chip": "ym2612"
    },
    {
      "channel": 3,
      "note": 53,
      "start": 73.1517,
      "duration": 0.117,
      "velocity": 100,
      "chip": "ym2612"
    },
    {
      "channel": 4,
      "note": 64,
      "start": 73.1549,
      "duration": 0.0939,
      "velocity": 107,
      "chip": "ym2612"
    },
    {
      "channel": 1,
      "note": 71,
      "start": 73.2921,
      "duration": 4.2765,
      "velocity": 104,
      "chip": "ym2612"
    },
    {
      "channel": 3,
      "note": 52,
      "start": 73.2948,
      "duration": 0.1139,
      "velocity": 100,
      "chip": "ym2612"
    },
    {
      "channel": 4,
      "note": 103,
      "start": 73.298,
      "duration": 0.0011,
      "velocity": 127,
      "chip": "ym2612"
    },
    {
      "channel": 4,
      "note": 59,
      "start": 73.3013,
      "duration": 0.0675,
      "velocity": 107,
      "chip": "ym2612"
    },
    {
      "channel": 4,
      "note": 52,
      "start": 73.4326,
      "duration": 0.0761,
      "velocity": 107,
      "chip": "ym2612"
    },
    {
      "channel": 3,
      "note": 52,
      "start": 73.5522,
      "duration": 0.1165,
      "velocity": 100,
      "chip": "ym2612"
    },
    {
      "channel": 4,
      "note": 103,
      "start": 73.5554,
      "duration": 0.0008,
      "velocity": 127,
      "chip": "ym2612"
    },
    {
      "channel": 4,
      "note": 64,
      "start": 73.5584,
      "duration": 0.0903,
      "velocity": 107,
      "chip": "ym2612"
    },
    {
      "channel": 3,
      "note": 53,
      "start": 73.6917,
      "duration": 0.1169,
      "velocity": 100,
      "chip": "ym2612"
    },
    {
      "channel": 4,
      "note": 59,
      "start": 73.6949,
      "duration": 0.0939,
      "velocity": 107,
      "chip": "ym2612"
    },
    {
      "channel": 3,
      "note": 52,
      "start": 73.832,
      "duration": 0.0966,
      "velocity": 100,
      "chip": "ym2612"
    },
    {
      "channel": 4,
      "note": 103,
      "start": 73.8354,
      "duration": 0.0008,
      "velocity": 127,
      "chip": "ym2612"
    },
    {
      "channel": 4,
      "note": 64,
      "start": 73.8385,
      "duration": 0.0703,
      "velocity": 107,
      "chip": "ym2612"
    },
    {
      "channel": 4,
      "note": 59,
      "start": 73.9728,
      "duration": 0.0759,
      "velocity": 107,
      "chip": "ym2612"
    },
    {
      "channel": 3,
      "note": 52,
      "start": 74.0919,
      "duration": 0.1169,
      "velocity": 100,
      "chip": "ym2612"
    },
    {
      "channel": 4,
      "note": 103,
      "start": 74.0951,
      "duration": 0.0937,
      "velocity": 127,
      "chip": "ym2612"
    },
    {
      "channel": 3,
      "note": 53,
      "start": 74.2318,
      "duration": 0.1169,
      "velocity": 100,
      "chip": "ym2612"
    },
    {
      "channel": 3,
      "note": 52,
      "start": 74.3719,
      "duration": 0.0967,
      "velocity": 100,
      "chip": "ym2612"
    },
    {
      "channel": 4,
      "note": 103,
      "start": 74.3749,
      "duration": 0.0009,
      "velocity": 127,
      "chip": "ym2612"
    },
    {
      "channel": 4,
      "note": 64,
      "start": 74.378,
      "duration": 0.0708,
      "velocity": 107,
      "chip": "ym2612"
    },
    {
      "channel": 4,
      "note": 59,
      "start": 74.5126,
      "duration": 0.0761,
      "velocity": 107,
      "chip": "ym2612"
    },
    {
      "channel": 3,
      "note": 52,
      "start": 74.6319,
      "duration": 0.1168,
      "velocity": 100,
      "chip": "ym2612"
    },
    {
      "channel": 4,
      "note": 103,
      "start": 74.6351,
      "duration": 0.0007,
      "velocity": 127,
      "chip": "ym2612"
    },
    {
      "channel": 4,
      "note": 64,
      "start": 74.638,
      "duration": 0.0908,
      "velocity": 107,
      "chip": "ym2612"
    },
    {
      "channel": 3,
      "note": 53,
      "start": 74.7718,
      "duration": 0.1169,
      "velocity": 100,
      "chip": "ym2612"
    },
    {
      "channel": 4,
      "note": 59,
      "start": 74.775,
      "duration": 0.0737,
      "velocity": 107,
      "chip": "ym2612"
    },
    {
      "channel": 3,
      "note": 52,
      "start": 74.9119,
      "duration": 0.0968,
      "velocity": 100,
      "chip": "ym2612"
    },
    {
      "channel": 4,
      "note": 103,
      "start": 74.9151,
      "duration": 0.0007,
      "velocity": 127,
      "chip": "ym2612"
    },
    {
      "channel": 4,
      "note": 52,
      "start": 74.918,
      "duration": 0.0708,
      "velocity": 107,
      "chip": "ym2612"
    },
    {
      "channel": 4,
      "note": 64,
      "start": 75.0326,
      "duration": 0.0961,
      "velocity": 107,
      "chip": "ym2612"
    },
    {
      "channel": 3,
      "note": 52,
      "start": 75.1719,
      "duration": 0.1168,
      "velocity": 100,
      "chip": "ym2612"
    },
    {
      "channel": 4,
      "note": 103,
      "start": 75.1751,
      "duration": 0.0007,
      "velocity": 127,
      "chip": "ym2612"
    },
    {
      "channel": 4,
      "note": 59,
      "start": 75.178,
      "duration": 0.0908,
      "velocity": 107,
      "chip": "ym2612"
    },
    {
      "channel": 3,
      "note": 53,
      "start": 75.3122,
      "duration": 0.1165,
      "velocity": 100,
      "chip": "ym2612"
    },
    {
      "channel": 4,
      "note": 52,
      "start": 75.3153,
      "duration": 0.0735,
      "velocity": 107,
      "chip": "ym2612"
    },
    {
      "channel": 3,
      "note": 52,
      "start": 75.452,
      "duration": 0.0966,
      "velocity": 100,
      "chip": "ym2612"
    },
    {
      "channel": 4,
      "note": 103,
      "start": 75.4551,
      "duration": 0.0011,
      "velocity": 127,
      "chip": "ym2612"
    },
    {
      "channel": 4,
      "note": 64,
      "start": 75.4585,
      "duration": 0.0703,
      "velocity": 107,
      "chip": "ym2612"
    },
    {
      "channel": 4,
      "note": 71,
      "start": 75.5726,
      "duration": 0.0961,
      "velocity": 107,
      "chip": "ym2612"
    },
    {
      "channel": 3,
      "note": 52,
      "start": 75.7119,
      "duration": 0.1168,
      "velocity": 100,
      "chip": "ym2612"
    },
    {
      "channel": 4,
      "note": 103,
      "start": 75.7151,
      "duration": 0.0007,
      "velocity": 127,
      "chip": "ym2612"
    },
    {
      "channel": 4,
      "note": 64,
      "start": 75.718,
      "duration": 0.0908,
      "velocity": 107,
      "chip": "ym2612"
    },
    {
      "channel": 3,
      "note": 53,
      "start": 75.8518,
      "duration": 0.1169,
      "velocity": 100,
      "chip": "ym2612"
    },
    {
      "channel": 4,
      "note": 59,
      "start": 75.855,
      "duration": 0.0737,
      "velocity": 107,
      "chip": "ym2612"
    },
    {
      "channel": 3,
      "note": 52,
      "start": 75.9919,
      "duration": 0.0968,
      "velocity": 100,
      "chip": "ym2612"
    },
    {
      "channel": 4,
      "note": 103,
      "start": 75.9951,
      "duration": 0.0008,
      "velocity": 127,
      "chip": "ym2612"
    },
    {
      "channel": 4,
      "note": 64,
      "start": 75.9981,
      "duration": 0.0707,
      "velocity": 107,
      "chip": "ym2612"
    },
    {
      "channel": 4,
      "note": 59,
      "start": 76.1126,
      "duration": 0.0962,
      "velocity": 107,
      "chip": "ym2612"
    },
    {
      "channel": 3,
      "note": 52,
      "start": 76.2519,
      "duration": 0.1169,
      "velocity": 100,
      "chip": "ym2612"
    },
    {
      "channel": 4,
      "note": 103,
      "start": 76.255,
      "duration": 0.0007,
      "velocity": 127,
      "chip": "ym2612"
    },
    {
      "channel": 4,
      "note": 52,
      "start": 76.2579,
      "duration": 0.0909,
      "velocity": 107,
      "chip": "ym2612"
    },
    {
      "channel": 3,
      "note": 53,
      "start": 76.3918,
      "duration": 0.0969,
      "velocity": 100,
      "chip": "ym2612"
    },
    {
      "channel": 4,
      "note": 64,
      "start": 76.395,
      "duration": 0.0737,
      "velocity": 107,
      "chip": "ym2612"
    },
    {
      "channel": 3,
      "note": 52,
      "start": 76.5319,
      "duration": 0.0967,
      "velocity": 100,
      "chip": "ym2612"
    },
    {
      "channel": 4,
      "note": 103,
      "start": 76.5351,
      "duration": 0.0007,
      "velocity": 127,
      "chip": "ym2612"
    },
    {
      "channel": 4,
      "note": 59,
      "start": 76.538,
      "duration": 0.0708,
      "velocity": 107,
      "chip": "ym2612"
    },
    {
      "channel": 4,
      "note": 71,
      "start": 76.6526,
      "duration": 0.0962,
      "velocity": 107,
      "chip": "ym2612"
    },
    {
      "channel": 3,
      "note": 52,
      "start": 76.7919,
      "duration": 0.1169,
      "velocity": 100,
      "chip": "ym2612"
    },
    {
      "channel": 4,
      "note": 103,
      "start": 76.795,
      "duration": 0.0007,
      "velocity": 127,
      "chip": "ym2612"
    },
    {
      "channel": 4,
      "note": 64,
      "start": 76.7979,
      "duration": 0.0908,
      "velocity": 107,
      "chip": "ym2612"
    },
    {
      "channel": 3,
      "note": 53,
      "start": 76.9317,
      "duration": 0.0969,
      "velocity": 100,
      "chip": "ym2612"
    },
    {
      "channel": 4,
      "note": 59,
      "start": 76.9349,
      "duration": 0.0739,
      "velocity": 107,
      "chip": "ym2612"
    },
    {
      "channel": 3,
      "note": 52,
      "start": 77.0724,
      "duration": 0.0962,
      "velocity": 100,
      "chip": "ym2612"
    },
    {
      "channel": 4,
      "note": 103,
      "start": 77.0755,
      "duration": 0.0007,
      "velocity": 127,
      "chip": "ym2612"
    },
    {
      "channel": 4,
      "note": 64,
      "start": 77.0785,
      "duration": 0.0703,
      "velocity": 107,
      "chip": "ym2612"
    },
    {
      "channel": 4,
      "note": 59,
      "start": 77.1926,
      "duration": 0.0961,
      "velocity": 107,
      "chip": "ym2612"
    },
    {
      "channel": 3,
      "note": 52,
      "start": 77.3319,
      "duration": 0.1169,
      "velocity": 100,
      "chip": "ym2612"
    },
    {
      "channel": 4,
      "note": 103,
      "start": 77.335,
      "duration": 0.0738,
      "velocity": 127,
      "chip": "ym2612"
    },
    {
      "channel": 0,
      "note": 52,
      "start": 77.338,
      "duration": 0.0705,
      "velocity": 107,
      "chip": "ym2612"
    },
    {
      "channel": 3,
      "note": 53,
      "start": 77.4718,
      "duration": 0.0969,
      "velocity": 100,
      "chip": "ym2612"
    },
    {
      "channel": 0,
      "note": 64,
      "start": 77.4748,
      "duration": 0.0737,
      "velocity": 107,
      "chip": "ym2612"
    },
    {
      "channel": 1,
      "note": 69,
      "start": 77.5921,
      "duration": 1.5966,
      "velocity": 104,
      "chip": "ym2612"
    },
    {
      "channel": 5,
      "note": 84,
      "start": 77.5952,
      "duration": 4.2937,
      "velocity": 104,
      "chip": "ym2612"
    },
    {
      "channel": 2,
      "note": 74,
      "start": 77.598,
      "duration": 8.331,
      "velocity": 104,
      "chip": "ym2612"
    },
    {
      "channel": 4,
      "note": 77,
      "start": 77.6012,
      "duration": 8.3275,
      "velocity": 104,
      "chip": "ym2612"
    },
    {
      "channel": 3,
      "note": 50,
      "start": 77.6039,
      "duration": 0.1048,
      "velocity": 100,
      "chip": "ym2612"
    },
    {
      "channel": 0,
      "note": 103,
      "start": 77.607,
      "duration": 0.0013,
      "velocity": 127,
      "chip": "ym2612"
    },
    {
      "channel": 0,
      "note": 62,
      "start": 77.6105,
      "duration": 0.0781,
      "velocity": 107,
      "chip": "ym2612"
    },
    {
      "channel": 0,
      "note": 57,
      "start": 77.7324,
      "duration": 0.0962,
      "velocity": 107,
      "chip": "ym2612"
    },
    {
      "channel": 3,
      "note": 50,
      "start": 77.872,
      "duration": 0.1167,
      "velocity": 100,
      "chip": "ym2612"
    },
    {
      "channel": 0,
      "note": 103,
      "start": 77.8751,
      "duration": 0.0007,
      "velocity": 127,
      "chip": "ym2612"
    },
    {
      "channel": 0,
      "note": 62,
      "start": 77.8781,
      "duration": 0.0705,
      "velocity": 107,
      "chip": "ym2612"
    },
    {
      "channel": 3,
      "note": 53,
      "start": 78.0118,
      "duration": 0.0969,
      "velocity": 100,
      "chip": "ym2612"
    },
    {
      "channel": 0,
      "note": 69,
      "start": 78.0148,
      "duration": 0.0739,
      "velocity": 107,
      "chip": "ym2612"
    },
    {
      "channel": 3,
      "note": 50,
      "start": 78.132,
      "duration": 0.1167,
      "velocity": 100,
      "chip": "ym2612"
    },
    {
      "channel": 0,
      "note": 103,
      "start": 78.1355,
      "duration": 0.0007,
      "velocity": 127,
      "chip": "ym2612"
    },
    {
      "channel": 0,
      "note": 62,
      "start": 78.1385,
      "duration": 0.0902,
      "velocity": 107,
      "chip": "ym2612"
    },
    {
      "channel": 0,
      "note": 57,
      "start": 78.2724,
      "duration": 0.0962,
      "velocity": 107,
      "chip": "ym2612"
    },
    {
      "channel": 3,
      "note": 50,
      "start": 78.4119,
      "duration": 0.1168,
      "velocity": 100,
      "chip": "ym2612"
    },
    {
      "channel": 0,
      "note": 103,
      "start": 78.4151,
      "duration": 0.0007,
      "velocity": 127,
      "chip": "ym2612"
    },
    {
      "channel": 0,
      "note": 69,
      "start": 78.418,
      "duration": 0.0707,
      "velocity": 107,
      "chip": "ym2612"
    },
    {
      "channel": 3,
      "note": 53,
      "start": 78.5519,
      "duration": 0.0968,
      "velocity": 100,
      "chip": "ym2612"
    },
    {
      "channel": 0,
      "note": 62,
      "start": 78.5549,
      "duration": 0.0737,
      "velocity": 107,
      "chip": "ym2612"
    },
    {
      "channel": 3,
      "note": 50,
      "start": 78.6723,
      "duration": 0.1164,
      "velocity": 100,
      "chip": "ym2612"
    },
    {
      "channel": 0,
      "note": 103,
      "start": 78.6754,
      "duration": 0.0007,
      "velocity": 127,
      "chip": "ym2612"
    },
    {
      "channel": 0,
      "note": 57,
      "start": 78.6784,
      "duration": 0.0902,
      "velocity": 107,
      "chip": "ym2612"
    },
    {
      "channel": 0,
      "note": 62,
      "start": 78.8124,
      "duration": 0.0962,
      "velocity": 107,
      "chip": "ym2612"
    },
    {
      "channel": 3,
      "note": 50,
      "start": 78.952,
      "duration": 0.0967,
      "velocity": 100,
      "chip": "ym2612"
    },
    {
      "channel": 0,
      "note": 103,
      "start": 78.9551,
      "duration": 0.0007,
      "velocity": 127,
      "chip": "ym2612"
    },
    {
      "channel": 0,
      "note": 69,
      "start": 78.9581,
      "duration": 0.0705,
      "velocity": 107,
      "chip": "ym2612"
    },
    {
      "channel": 3,
      "note": 53,
      "start": 79.0917,
      "duration": 0.0971,
      "velocity": 100,
      "chip": "ym2612"
    },
    {
      "channel": 0,
      "note": 62,
      "start": 79.0947,
      "duration": 0.0739,
      "velocity": 107,
      "chip": "ym2612"
    },
    {
      "channel": 1,
      "note": 64,
      "start": 79.2122,
      "duration": 0.5164,
      "velocity": 104,
      "chip": "ym2612"
    },
    {
      "channel": 3,
      "note": 50,
      "start": 79.2149,
      "duration": 0.1138,
      "velocity": 100,
      "chip": "ym2612"
    },
    {
      "channel": 0,
      "note": 103,
      "start": 79.2181,
      "duration": 0.0008,
      "velocity": 127,
      "chip": "ym2612"
    },
    {
      "channel": 0,
      "note": 57,
      "start": 79.2211,
      "duration": 0.0876,
      "velocity": 107,
      "chip": "ym2612"
    },
    {
      "channel": 0,
      "note": 69,
      "start": 79.3524,
      "duration": 0.0961,
      "velocity": 107,
      "chip": "ym2612"
    },
    {
      "channel": 3,
      "note": 50,
      "start": 79.4919,
      "duration": 0.0968,
      "velocity": 100,
      "chip": "ym2612"
    },
    {
      "channel": 0,
      "note": 103,
      "start": 79.4951,
      "duration": 0.0007,
      "velocity": 127,
      "chip": "ym2612"
    },
    {
      "channel": 0,
      "note": 62,
      "start": 79.498,
      "duration": 0.0707,
      "velocity": 107,
      "chip": "ym2612"
    },
    {
      "channel": 3,
      "note": 53,
      "start": 79.6319,
      "duration": 0.0969,
      "velocity": 100,
      "chip": "ym2612"
    },
    {
      "channel": 0,
      "note": 57,
      "start": 79.6349,
      "duration": 0.0737,
      "velocity": 107,
      "chip": "ym2612"
    },
    {
      "channel": 1,
      "note": 72,
      "start": 79.7521,
      "duration": 2.1366,
      "velocity": 104,
      "chip": "ym2612"
    },
    {
      "channel": 3,
      "note": 50,
      "start": 79.7548,
      "duration": 0.1139,
      "velocity": 100,
      "chip": "ym2612"
    },
    {
      "channel": 0,
      "note": 103,
      "start": 79.7579,
      "duration": 0.0011,
      "velocity": 127,
      "chip": "ym2612"
    },
    {
      "channel": 0,
      "note": 62,
      "start": 79.7612,
      "duration": 0.0875,
      "velocity": 107,
      "chip": "ym2612"
    },
    {
      "channel": 0,
      "note": 69,
      "start": 79.8924,
      "duration": 0.0761,
      "velocity": 107,
      "chip": "ym2612"
    },
    {
      "channel": 3,
      "note": 50,
      "start": 80.0319,
      "duration": 0.0968,
      "velocity": 100,
      "chip": "ym2612"
    },
    {
      "channel": 0,
      "note": 103,
      "start": 80.0351,
      "duration": 0.0007,
      "velocity": 127,
      "chip": "ym2612"
    },
    {
      "channel": 0,
      "note": 62,
      "start": 80.038,
      "duration": 0.0707,
      "velocity": 107,
      "chip": "ym2612"
    },
    {
      "channel": 3,
      "note": 53,
      "start": 80.1519,
      "duration": 0.1168,
      "velocity": 100,
      "chip": "ym2612"
    },
    {
      "channel": 0,
      "note": 57,
      "start": 80.1549,
      "duration": 0.0937,
      "velocity": 107,
      "chip": "ym2612"
    },
    {
      "channel": 3,
      "note": 50,
      "start": 80.2919,
      "duration": 0.1167,
      "velocity": 100,
      "chip": "ym2612"
    },
    {
      "channel": 0,
      "note": 103,
      "start": 80.2951,
      "duration": 0.0008,
      "velocity": 127,
      "chip": "ym2612"
    },
    {
      "channel": 0,
      "note": 62,
      "start": 80.298,
      "duration": 0.0905,
      "velocity": 107,
      "chip": "ym2612"
    },
    {
      "channel": 0,
      "note": 69,
      "start": 80.4324,
      "duration": 0.0761,
      "velocity": 107,
      "chip": "ym2612"
    },
    {
      "channel": 3,
      "note": 50,
      "start": 80.5723,
      "duration": 0.0964,
      "velocity": 100,
      "chip": "ym2612"
    },
    {
      "channel": 0,
      "note": 103,
      "start": 80.5754,
      "duration": 0.0007,
      "velocity": 127,
      "chip": "ym2612"
    },
    {
      "channel": 0,
      "note": 62,
      "start": 80.5784,
      "duration": 0.0702,
      "velocity": 107,
      "chip": "ym2612"
    },
    {
      "channel": 3,
      "note": 53,
      "start": 80.6918,
      "duration": 0.1169,
      "velocity": 100,
      "chip": "ym2612"
    },
    {
      "channel": 0,
      "note": 57,
      "start": 80.6948,
      "duration": 0.0939,
      "velocity": 107,
      "chip": "ym2612"
    },
    {
      "channel": 3,
      "note": 50,
      "start": 80.832,
      "duration": 0.1167,
      "velocity": 100,
      "chip": "ym2612"
    },
    {
      "channel": 0,
      "note": 103,
      "start": 80.8351,
      "duration": 0.0008,
      "velocity": 127,
      "chip": "ym2612"
    },
    {
      "channel": 0,
      "note": 62,
      "start": 80.8381,
      "duration": 0.0905,
      "velocity": 107,
      "chip": "ym2612"
    },
    {
      "channel": 0,
      "note": 57,
      "start": 80.9724,
      "duration": 0.0762,
      "velocity": 107,
      "chip": "ym2612"
    },
    {
      "channel": 3,
      "note": 50,
      "start": 81.112,
      "duration": 0.0967,
      "velocity": 100,
      "chip": "ym2612"
    },
    {
      "channel": 0,
      "note": 103,
      "start": 81.1151,
      "duration": 0.0007,
      "velocity": 127,
      "chip": "ym2612"
    },
    {
      "channel": 0,
      "note": 69,
      "start": 81.1181,
      "duration": 0.0705,
      "velocity": 107,
      "chip": "ym2612"
    },
    {
      "channel": 3,
      "note": 53,
      "start": 81.2318,
      "duration": 0.1169,
      "velocity": 100,
      "chip": "ym2612"
    },
    {
      "channel": 0,
      "note": 62,
      "start": 81.2348,
      "duration": 0.0939,
      "velocity": 107,
      "chip": "ym2612"
    },
    {
      "channel": 3,
      "note": 50,
      "start": 81.372,
      "duration": 0.1167,
      "velocity": 100,
      "chip": "ym2612"
    },
    {
      "channel": 0,
      "note": 103,
      "start": 81.3751,
      "duration": 0.0008,
      "velocity": 127,
      "chip": "ym2612"
    },
    {
      "channel": 0,
      "note": 57,
      "start": 81.3781,
      "duration": 0.0905,
      "velocity": 107,
      "chip": "ym2612"
    },
    {
      "channel": 0,
      "note": 69,
      "start": 81.5124,
      "duration": 0.0762,
      "velocity": 107,
      "chip": "ym2612"
    },
    {
      "channel": 3,
      "note": 50,
      "start": 81.652,
      "duration": 0.0967,
      "velocity": 100,
      "chip": "ym2612"
    },
    {
      "channel": 0,
      "note": 103,
      "start": 81.6551,
      "duration": 0.0008,
      "velocity": 127,
      "chip": "ym2612"
    },
    {
      "channel": 0,
      "note": 62,
      "start": 81.6581,
      "duration": 0.0705,
      "velocity": 107,
      "chip": "ym2612"
    },
    {
      "channel": 3,
      "note": 53,
      "start": 81.7719,
      "duration": 0.1169,
      "velocity": 100,
      "chip": "ym2612"
    },
    {
      "channel": 0,
      "note": 57,
      "start": 81.7749,
      "duration": 0.0937,
      "velocity": 107,
      "chip": "ym2612"
    },
    {
      "channel": 1,
      "note": 71,
      "start": 81.9121,
      "duration": 4.2966,
      "velocity": 104,
      "chip": "ym2612"
    },
    {
      "channel": 5,
      "note": 83,
      "start": 81.9151,
      "duration": 4.0139,
      "velocity": 104,
      "chip": "ym2612"
    },
    {
      "channel": 3,
      "note": 50,
      "start": 81.9177,
      "duration": 0.111,
      "velocity": 100,
      "chip": "ym2612"
    },
    {
      "channel": 0,
      "note": 103,
      "start": 81.9208,
      "duration": 0.0012,
      "velocity": 127,
      "chip": "ym2612"
    },
    {
      "channel": 0,
      "note": 69,
      "start": 81.9241,
      "duration": 0.0845,
      "velocity": 107,
      "chip": "ym2612"
    },
    {
      "channel": 0,
      "note": 62,
      "start": 82.0524,
      "duration": 0.0761,
      "velocity": 107,
      "chip": "ym2612"
    },
    {
      "channel": 3,
      "note": 50,
      "start": 82.1922,
      "duration": 0.0964,
      "velocity": 100,
      "chip": "ym2612"
    },
    {
      "channel": 0,
      "note": 103,
      "start": 82.1954,
      "duration": 0.0007,
      "velocity": 127,
      "chip": "ym2612"
    },
    {
      "channel": 0,
      "note": 57,
      "start": 82.1984,
      "duration": 0.0702,
      "velocity": 107,
      "chip": "ym2612"
    },
    {
      "channel": 3,
      "note": 53,
      "start": 82.3118,
      "duration": 0.1169,
      "velocity": 100,
      "chip": "ym2612"
    },
    {
      "channel": 0,
      "note": 69,
      "start": 82.3148,
      "duration": 0.0939,
      "velocity": 107,
      "chip": "ym2612"
    },
    {
      "channel": 3,
      "note": 50,
      "start": 82.452,
      "duration": 0.1167,
      "velocity": 100,
      "chip": "ym2612"
    },
    {
      "channel": 0,
      "note": 103,
      "start": 82.4555,
      "duration": 0.0007,
      "velocity": 127,
      "chip": "ym2612"
    },
    {
      "channel": 0,
      "note": 62,
      "start": 82.4585,
      "duration": 0.0702,
      "velocity": 107,
      "chip": "ym2612"
    },
    {
      "channel": 0,
      "note": 57,
      "start": 82.5924,
      "duration": 0.0761,
      "velocity": 107,
      "chip": "ym2612"
    },
    {
      "channel": 3,
      "note": 50,
      "start": 82.7119,
      "duration": 0.1168,
      "velocity": 100,
      "chip": "ym2612"
    },
    {
      "channel": 0,
      "note": 103,
      "start": 82.7151,
      "duration": 0.0007,
      "velocity": 127,
      "chip": "ym2612"
    },
    {
      "channel": 0,
      "note": 62,
      "start": 82.718,
      "duration": 0.0907,
      "velocity": 107,
      "chip": "ym2612"
    },
    {
      "channel": 3,
      "note": 53,
      "start": 82.8519,
      "duration": 0.1168,
      "velocity": 100,
      "chip": "ym2612"
    },
    {
      "channel": 0,
      "note": 57,
      "start": 82.8549,
      "duration": 0.0937,
      "velocity": 107,
      "chip": "ym2612"
    },
    {
      "channel": 3,
      "note": 50,
      "start": 82.9919,
      "duration": 0.1168,
      "velocity": 100,
      "chip": "ym2612"
    },
    {
      "channel": 0,
      "note": 103,
      "start": 82.9951,
      "duration": 0.0008,
      "velocity": 127,
      "chip": "ym2612"
    },
    {
      "channel": 0,
      "note": 50,
      "start": 82.998,
      "duration": 0.0705,
      "velocity": 107,
      "chip": "ym2612"
    },
    {
      "channel": 0,
      "note": 62,
      "start": 83.1323,
      "duration": 0.0762,
      "velocity": 107,
      "chip": "ym2612"
    },
    {
      "channel": 3,
      "note": 50,
      "start": 83.2519,
      "duration": 0.1168,
      "velocity": 100,
      "chip": "ym2612"
    },
    {
      "channel": 0,
      "note": 103,
      "start": 83.2551,
      "duration": 0.0007,
      "velocity": 127,
      "chip": "ym2612"
    },
    {
      "channel": 0,
      "note": 57,
      "start": 83.258,
      "duration": 0.0907,
      "velocity": 107,
      "chip": "ym2612"
    },
    {
      "channel": 3,
      "note": 53,
      "start": 83.3919,
      "duration": 0.1168,
      "velocity": 100,
      "chip": "ym2612"
    },
    {
      "channel": 0,
      "note": 69,
      "start": 83.3949,
      "duration": 0.0937,
      "velocity": 107,
      "chip": "ym2612"
    },
    {
      "channel": 3,
      "note": 50,
      "start": 83.5319,
      "duration": 0.1167,
      "velocity": 100,
      "chip": "ym2612"
    },
    {
      "channel": 0,
      "note": 103,
      "start": 83.5351,
      "duration": 0.0008,
      "velocity": 127,
      "chip": "ym2612"
    },
    {
      "channel": 0,
      "note": 62,
      "start": 83.538,
      "duration": 0.0705,
      "velocity": 107,
      "chip": "ym2612"
    },
    {
      "channel": 0,
      "note": 57,
      "start": 83.6724,
      "duration": 0.0761,
      "velocity": 107,
      "chip": "ym2612"
    },
    {
      "channel": 3,
      "note": 50,
      "start": 83.7919,
      "duration": 0.1168,
      "velocity": 100,
      "chip": "ym2612"
    },
    {
      "channel": 0,
      "note": 103,
      "start": 83.7951,
      "duration": 0.0007,
      "velocity": 127,
      "chip": "ym2612"
    },
    {
      "channel": 0,
      "note": 62,
      "start": 83.798,
      "duration": 0.0907,
      "velocity": 107,
      "chip": "ym2612"
    },
    {
      "channel": 3,
      "note": 53,
      "start": 83.9322,
      "duration": 0.1165,
      "velocity": 100,
      "chip": "ym2612"
    },
    {
      "channel": 0,
      "note": 62,
      "start": 83.9353,
      "duration": 0.0934,
      "velocity": 107,
      "chip": "ym2612"
    },
    {
      "channel": 3,
      "note": 50,
      "start": 84.072,
      "duration": 0.0967,
      "velocity": 100,
      "chip": "ym2612"
    },
    {
      "channel": 0,
      "note": 103,
      "start": 84.0751,
      "duration": 0.0011,
      "velocity": 127,
      "chip": "ym2612"
    },
    {
      "channel": 0,
      "note": 57,
      "start": 84.0785,
      "duration": 0.0702,
      "velocity": 107,
      "chip": "ym2612"
    },
    {
      "channel": 0,
      "note": 69,
      "start": 84.2124,
      "duration": 0.0762,
      "velocity": 107,
      "chip": "ym2612"
    },
    {
      "channel": 3,
      "note": 50,
      "start": 84.332,
      "duration": 0.1167,
      "velocity": 100,
      "chip": "ym2612"
    },
    {
      "channel": 0,
      "note": 103,
      "start": 84.3351,
      "duration": 0.0008,
      "velocity": 127,
      "chip": "ym2612"
    },
    {
      "channel": 0,
      "note": 62,
      "start": 84.3381,
      "duration": 0.0905,
      "velocity": 107,
      "chip": "ym2612"
    },
    {
      "channel": 3,
      "note": 53,
      "start": 84.4719,
      "duration": 0.1168,
      "velocity": 100,
      "chip": "ym2612"
    },
    {
      "channel": 0,
      "note": 57,
      "start": 84.4749,
      "duration": 0.0937,
      "velocity": 107,
      "chip": "ym2612"
    },
    {
      "channel": 3,
      "note": 50,
      "start": 84.6119,
      "duration": 0.0967,
      "velocity": 100,
      "chip": "ym2612"
    },
    {
      "channel": 0,
      "note": 103,
      "start": 84.6151,
      "duration": 0.0008,
      "velocity": 127,
      "chip": "ym2612"
    },
    {
      "channel": 0,
      "note": 62,
      "start": 84.618,
      "duration": 0.0705,
      "velocity": 107,
      "chip": "ym2612"
    },
    {
      "channel": 0,
      "note": 62,
      "start": 84.7524,
      "duration": 0.0761,
      "velocity": 107,
      "chip": "ym2612"
    },
    {
      "channel": 3,
      "note": 50,
      "start": 84.8719,
      "duration": 0.1168,
      "velocity": 100,
      "chip": "ym2612"
    },
    {
      "channel": 0,
      "note": 103,
      "start": 84.8751,
      "duration": 0.0007,
      "velocity": 127,
      "chip": "ym2612"
    },
    {
      "channel": 0,
      "note": 57,
      "start": 84.878,
      "duration": 0.0907,
      "velocity": 107,
      "chip": "ym2612"
    },
    {
      "channel": 3,
      "note": 53,
      "start": 85.0119,
      "duration": 0.1168,
      "velocity": 100,
      "chip": "ym2612"
    },
    {
      "channel": 0,
      "note": 69,
      "start": 85.0149,
      "duration": 0.0737,
      "velocity": 107,
      "chip": "ym2612"
    },
    {
      "channel": 3,
      "note": 50,
      "start": 85.1519,
      "duration": 0.0968,
      "velocity": 100,
      "chip": "ym2612"
    },
    {
      "channel": 0,
      "note": 103,
      "start": 85.1551,
      "duration": 0.0008,
      "velocity": 127,
      "chip": "ym2612"
    },
    {
      "channel": 0,
      "note": 62,
      "start": 85.158,
      "duration": 0.0705,
      "velocity": 107,
      "chip": "ym2612"
    },
    {
      "channel": 0,
      "note": 57,
      "start": 85.2724,
      "duration": 0.0962,
      "velocity": 107,
      "chip": "ym2612"
    },
    {
      "channel": 3,
      "note": 50,
      "start": 85.4119,
      "duration": 0.1168,
      "velocity": 100,
      "chip": "ym2612"
    },
    {
      "channel": 0,
      "note": 103,
      "start": 85.4151,
      "duration": 0.0007,
      "velocity": 127,
      "chip": "ym2612"
    },
    {
      "channel": 0,
      "note": 62,
      "start": 85.418,
      "duration": 0.0907,
      "velocity": 107,
      "chip": "ym2612"
    },
    {
      "channel": 3,
      "note": 53,
      "start": 85.5519,
      "duration": 0.1168,
      "velocity": 100,
      "chip": "ym2612"
    },
    {
      "channel": 0,
      "note": 57,
      "start": 85.5549,
      "duration": 0.0737,
      "velocity": 107,
      "chip": "ym2612"
    },
    {
      "channel": 3,
      "note": 50,
      "start": 85.6923,
      "duration": 0.0964,
      "velocity": 100,
      "chip": "ym2612"
    },
    {
      "channel": 0,
      "note": 103,
      "start": 85.6954,
      "duration": 0.0007,
      "velocity": 127,
      "chip": "ym2612"
    },
    {
      "channel": 0,
      "note": 62,
      "start": 85.6984,
      "duration": 0.0702,
      "velocity": 107,
      "chip": "ym2612"
    },
    {
      "channel": 0,
      "note": 69,
      "start": 85.8124,
      "duration": 0.0962,
      "velocity": 107,
      "chip": "ym2612"
    },
    {
      "channel": 3,
      "note": 50,
      "start": 85.9519,
      "duration": 0.1168,
      "velocity": 100,
      "chip": "ym2612"
    },
    {
      "channel": 0,
      "note": 103,
      "start": 85.9551,
      "duration": 0.0936,
      "velocity": 127,
      "chip": "ym2612"
    },
    {
      "channel": 4,
      "note": 62,
      "start": 85.9581,
      "duration": 0.0908,
      "velocity": 107,
      "chip": "ym2612"
    },
    {
      "channel": 3,
      "note": 53,
      "start": 86.0917,
      "duration": 0.1171,
      "velocity": 100,
      "chip": "ym2612"
    },
    {
      "channel": 4,
      "note": 50,
      "start": 86.0949,
      "duration": 0.0739,
      "velocity": 107,
      "chip": "ym2612"
    },
    {
      "channel": 1,
      "note": 64,
      "start": 86.2325,
      "duration": 2.1161,
      "velocity": 104,
      "chip": "ym2612"
    },
    {
      "channel": 5,
      "note": 83,
      "start": 86.2356,
      "duration": 8.5935,
      "velocity": 104,
      "chip": "ym2612"
    },
    {
      "channel": 2,
      "note": 77,
      "start": 86.2381,
      "duration": 8.591,
      "velocity": 104,
      "chip": "ym2612"
    },
    {
      "channel": 0,
      "note": 76,
      "start": 86.241,
      "duration": 8.5877,
      "velocity": 104,
      "chip": "ym2612"
    },
    {
      "channel": 3,
      "note": 52,
      "start": 86.2436,
      "duration": 0.0851,
      "velocity": 100,
      "chip": "ym2612"
    },
    {
      "channel": 4,
      "note": 103,
      "start": 86.2468,
      "duration": 0.0013,
      "velocity": 127,
      "chip": "ym2612"
    },
    {
      "channel": 4,
      "note": 64,
      "start": 86.2503,
      "duration": 0.0585,
      "velocity": 107,
      "chip": "ym2612"
    },
    {
      "channel": 4,
      "note": 59,
      "start": 86.3526,
      "duration": 0.0961,
      "velocity": 107,
      "chip": "ym2612"
    },
    {
      "channel": 3,
      "note": 52,
      "start": 86.4919,
      "duration": 0.1168,
      "velocity": 100,
      "chip": "ym2612"
    },
    {
      "channel": 4,
      "note": 103,
      "start": 86.4951,
      "duration": 0.0007,
      "velocity": 127,
      "chip": "ym2612"
    },
    {
      "channel": 4,
      "note": 52,
      "start": 86.498,
      "duration": 0.0908,
      "velocity": 107,
      "chip": "ym2612"
    },
    {
      "channel": 3,
      "note": 53,
      "start": 86.6318,
      "duration": 0.0969,
      "velocity": 100,
      "chip": "ym2612"
    },
    {
      "channel": 4,
      "note": 64,
      "start": 86.635,
      "duration": 0.0737,
      "velocity": 107,
      "chip": "ym2612"
    },
    {
      "channel": 3,
      "note": 52,
      "start": 86.7719,
      "duration": 0.0968,
      "velocity": 100,
      "chip": "ym2612"
    },
    {
      "channel": 4,
      "note": 103,
      "start": 86.7754,
      "duration": 0.0008,
      "velocity": 127,
      "chip": "ym2612"
    },
    {
      "channel": 4,
      "note": 59,
      "start": 86.7784,
      "duration": 0.0703,
      "velocity": 107,
      "chip": "ym2612"
    },
    {
      "channel": 4,
      "note": 52,
      "start": 86.8925,
      "duration": 0.0963,
      "velocity": 107,
      "chip": "ym2612"
    },
    {
      "channel": 3,
      "note": 52,
      "start": 87.0319,
      "duration": 0.1168,
      "velocity": 100,
      "chip": "ym2612"
    },
    {
      "channel": 4,
      "note": 103,
      "start": 87.0351,
      "duration": 0.0007,
      "velocity": 127,
      "chip": "ym2612"
    },
    {
      "channel": 4,
      "note": 64,
      "start": 87.0381,
      "duration": 0.0907,
      "velocity": 107,
      "chip": "ym2612"
    },
    {
      "channel": 3,
      "note": 53,
      "start": 87.1718,
      "duration": 0.0968,
      "velocity": 100,
      "chip": "ym2612"
    },
    {
      "channel": 4,
      "note": 59,
      "start": 87.1749,
      "duration": 0.0739,
      "velocity": 107,
      "chip": "ym2612"
    },
    {
      "channel": 3,
      "note": 52,
      "start": 87.3123,
      "duration": 0.0963,
      "velocity": 100,
      "chip": "ym2612"
    },
    {
      "channel": 4,
      "note": 103,
      "start": 87.3155,
      "duration": 0.0007,
      "velocity": 127,
      "chip": "ym2612"
    },
    {
      "channel": 4,
      "note": 71,
      "start": 87.3185,
      "duration": 0.0703,
      "velocity": 107,
      "chip": "ym2612"
    },
    {
      "channel": 4,
      "note": 64,
      "start": 87.4326,
      "duration": 0.0962,
      "velocity": 107,
      "chip": "ym2612"
    },
    {
      "channel": 3,
      "note": 52,
      "start": 87.5719,
      "duration": 0.1169,
      "velocity": 100,
      "chip": "ym2612"
    },
    {
      "channel": 4,
      "note": 103,
      "start": 87.575,
      "duration": 0.0007,
      "velocity": 127,
      "chip": "ym2612"
    },
    {
      "channel": 4,
      "note": 59,
      "start": 87.5779,
      "duration": 0.0708,
      "velocity": 107,
      "chip": "ym2612"
    },
    {
      "channel": 3,
      "note": 53,
      "start": 87.7117,
      "duration": 0.0969,
      "velocity": 100,
      "chip": "ym2612"
    },
    {
      "channel": 4,
      "note": 64,
      "start": 87.7149,
      "duration": 0.0739,
      "velocity": 107,
      "chip": "ym2612"
    },
    {
      "channel": 3,
      "note": 52,
      "start": 87.832,
      "duration": 0.1167,
      "velocity": 100,
      "chip": "ym2612"
    },
    {
      "channel": 4,
      "note": 103,
      "start": 87.8351,
      "duration": 0.0007,
      "velocity": 127,
      "chip": "ym2612"
    },
    {
      "channel": 4,
      "note": 59,
      "start": 87.8381,
      "duration": 0.0907,
      "velocity": 107,
      "chip": "ym2612"
    },
    {
      "channel": 4,
      "note": 64,
      "start": 87.9726,
      "duration": 0.0962,
      "velocity": 107,
      "chip": "ym2612"
    },
    {
      "channel": 3,
      "note": 52,
      "start": 88.1119,
      "duration": 0.1168,
      "velocity": 100,
      "chip": "ym2612"
    },
    {
      "channel": 4,
      "note": 103,
      "start": 88.1151,
      "duration": 0.0007,
      "velocity": 127,
      "chip": "ym2612"
    },
    {
      "channel": 4,
      "note": 71,
      "start": 88.1181,
      "duration": 0.0707,
      "velocity": 107,
      "chip": "ym2612"
    },
    {
      "channel": 3,
      "note": 53,
      "start": 88.2517,
      "duration": 0.097,
      "velocity": 100,
      "chip": "ym2612"
    },
    {
      "channel": 4,
      "note": 64,
      "start": 88.2549,
      "duration": 0.0739,
      "velocity": 107,
      "chip": "ym2612"
    },
    {
      "channel": 1,
      "note": 77,
      "start": 88.3715,
      "duration": 2.1371,
      "velocity": 104,
      "chip": "ym2612"
    },
    {
      "channel": 3,
      "note": 52,
      "start": 88.3742,
      "duration": 0.1145,
      "velocity": 100,
      "chip": "ym2612"
    },
    {
      "channel": 4,
      "note": 103,
      "start": 88.3774,
      "duration": 0.0011,
      "velocity": 127,
      "chip": "ym2612"
    },
    {
      "channel": 4,
      "note": 59,
      "start": 88.3807,
      "duration": 0.088,
      "velocity": 107,
      "chip": "ym2612"
    },
    {
      "channel": 4,
      "note": 52,
      "start": 88.5125,
      "duration": 0.0962,
      "velocity": 107,
      "chip": "ym2612"
    },
    {
      "channel": 3,
      "note": 52,
      "start": 88.6519,
      "duration": 0.1168,
      "velocity": 100,
      "chip": "ym2612"
    },
    {
      "channel": 4,
      "note": 103,
      "start": 88.6551,
      "duration": 0.0007,
      "velocity": 127,
      "chip": "ym2612"
    },
    {
      "channel": 4,
      "note": 64,
      "start": 88.6581,
      "duration": 0.0707,
      "velocity": 107,
      "chip": "ym2612"
    },
    {
      "channel": 3,
      "note": 53,
      "start": 88.7917,
      "duration": 0.0969,
      "velocity": 100,
      "chip": "ym2612"
    },
    {
      "channel": 4,
      "note": 59,
      "start": 88.7949,
      "duration": 0.0739,
      "velocity": 107,
      "chip": "ym2612"
    },
    {
      "channel": 3,
      "note": 52,
      "start": 88.912,
      "duration": 0.1167,
      "velocity": 100,
      "chip": "ym2612"
    },
    {
      "channel": 4,
      "note": 103,
      "start": 88.9151,
      "duration": 0.0007,
      "velocity": 127,
      "chip": "ym2612"
    },
    {
      "channel": 4,
      "note": 64,
      "start": 88.9181,
      "duration": 0.0907,
      "velocity": 107,
      "chip": "ym2612"
    },
    {
      "channel": 4,
      "note": 71,
      "start": 89.0525,
      "duration": 0.0963,
      "velocity": 107,
      "chip": "ym2612"
    },
    {
      "channel": 3,
      "note": 52,
      "start": 89.1922,
      "duration": 0.0964,
      "velocity": 100,
      "chip": "ym2612"
    },
    {
      "channel": 4,
      "note": 103,
      "start": 89.1954,
      "duration": 0.0007,
      "velocity": 127,
      "chip": "ym2612"
    },
    {
      "channel": 4,
      "note": 64,
      "start": 89.1983,
      "duration": 0.0704,
      "velocity": 107,
      "chip": "ym2612"
    },
    {
      "channel": 3,
      "note": 53,
      "start": 89.3317,
      "duration": 0.0971,
      "velocity": 100,
      "chip": "ym2612"
    },
    {
      "channel": 4,
      "note": 59,
      "start": 89.3349,
      "duration": 0.0739,
      "velocity": 107,
      "chip": "ym2612"
    },
    {
      "channel": 3,
      "note": 52,
      "start": 89.4519,
      "duration": 0.1167,
      "velocity": 100,
      "chip": "ym2612"
    },
    {
      "channel": 4,
      "note": 103,
      "start": 89.4551,
      "duration": 0.0008,
      "velocity": 127,
      "chip": "ym2612"
    },
    {
      "channel": 4,
      "note": 64,
      "start": 89.458,
      "duration": 0.0908,
      "velocity": 107,
      "chip": "ym2612"
    },
    {
      "channel": 4,
      "note": 59,
      "start": 89.5926,
      "duration": 0.0961,
      "velocity": 107,
      "chip": "ym2612"
    },
    {
      "channel": 3,
      "note": 52,
      "start": 89.7319,
      "duration": 0.0968,
      "velocity": 100,
      "chip": "ym2612"
    },
    {
      "channel": 4,
      "note": 103,
      "start": 89.7351,
      "duration": 0.0007,
      "velocity": 127,
      "chip": "ym2612"
    },
    {
      "channel": 4,
      "note": 52,
      "start": 89.738,
      "duration": 0.0708,
      "velocity": 107,
      "chip": "ym2612"
    },
    {
      "channel": 3,
      "note": 53,
      "start": 89.8718,
      "duration": 0.0969,
      "velocity": 100,
      "chip": "ym2612"
    },
    {
      "channel": 4,
      "note": 64,
      "start": 89.875,
      "duration": 0.0737,
      "velocity": 107,
      "chip": "ym2612"
    },
    {
      "channel": 3,
      "note": 52,
      "start": 89.9919,
      "duration": 0.1167,
      "velocity": 100,
      "chip": "ym2612"
    },
    {
      "channel": 4,
      "note": 103,
      "start": 89.9951,
      "duration": 0.0008,
      "velocity": 127,
      "chip": "ym2612"
    },
    {
      "channel": 4,
      "note": 59,
      "start": 89.998,
      "duration": 0.0908,
      "velocity": 107,
      "chip": "ym2612"
    },
    {
      "channel": 4,
      "note": 52,
      "start": 90.1326,
      "duration": 0.0761,
      "velocity": 107,
      "chip": "ym2612"
    },
    {
      "channel": 3,
      "note": 52,
      "start": 90.2719,
      "duration": 0.0968,
      "velocity": 100,
      "chip": "ym2612"
    },
    {
      "channel": 4,
      "note": 103,
      "start": 90.2751,
      "duration": 0.0007,
      "velocity": 127,
      "chip": "ym2612"
    },
    {
      "channel": 4,
      "note": 64,
      "start": 90.278,
      "duration": 0.0708,
      "velocity": 107,
      "chip": "ym2612"
    },
    {
      "channel": 3,
      "note": 53,
      "start": 90.3918,
      "duration": 0.1169,
      "velocity": 100,
      "chip": "ym2612"
    },
    {
      "channel": 4,
      "note": 59,
      "start": 90.395,
      "duration": 0.0937,
      "velocity": 107,
      "chip": "ym2612"
    },
    {
      "channel": 1,
      "note": 74,
      "start": 90.5321,
      "duration": 4.2966,
      "velocity": 104,
      "chip": "ym2612"
    },
    {
      "channel": 3,
      "note": 52,
      "start": 90.5348,
      "duration": 0.1139,
      "velocity": 100,
      "chip": "ym2612"
    },
    {
      "channel": 4,
      "note": 103,
      "start": 90.538,
      "duration": 0.0011,
      "velocity": 127,
      "chip": "ym2612"
    },
    {
      "channel": 4,
      "note": 64,
      "start": 90.5413,
      "duration": 0.0874,
      "velocity": 107,
      "chip": "ym2612"
    },
    {
      "channel": 4,
      "note": 59,
      "start": 90.6726,
      "duration": 0.0762,
      "velocity": 107,
      "chip": "ym2612"
    },
    {
      "channel": 3,
      "note": 52,
      "start": 90.8123,
      "duration": 0.0963,
      "velocity": 100,
      "chip": "ym2612"
    },
    {
      "channel": 4,
      "note": 103,
      "start": 90.8154,
      "duration": 0.0008,
      "velocity": 127,
      "chip": "ym2612"
    },
    {
      "channel": 4,
      "note": 52,
      "start": 90.8185,
      "duration": 0.0703,
      "velocity": 107,
      "chip": "ym2612"
    },
    {
      "channel": 3,
      "note": 53,
      "start": 90.9318,
      "duration": 0.1169,
      "velocity": 100,
      "chip": "ym2612"
    },
    {
      "channel": 4,
      "note": 64,
      "start": 90.935,
      "duration": 0.0937,
      "velocity": 107,
      "chip": "ym2612"
    },
    {
      "channel": 3,
      "note": 52,
      "start": 91.0719,
      "duration": 0.1168,
      "velocity": 100,
      "chip": "ym2612"
    },
    {
      "channel": 4,
      "note": 103,
      "start": 91.0754,
      "duration": 0.0007,
      "velocity": 127,
      "chip": "ym2612"
    },
    {
      "channel": 4,
      "note": 59,
      "start": 91.0784,
      "duration": 0.0904,
      "velocity": 107,
      "chip": "ym2612"
    },
    {
      "channel": 4,
      "note": 52,
      "start": 91.2126,
      "duration": 0.0761,
      "velocity": 107,
      "chip": "ym2612"
    },
    {
      "channel": 3,
      "note": 52,
      "start": 91.3519,
      "duration": 0.0968,
      "velocity": 100,
      "chip": "ym2612"
    },
    {
      "channel": 4,
      "note": 103,
      "start": 91.3551,
      "duration": 0.0007,
      "velocity": 127,
      "chip": "ym2612"
    },
    {
      "channel": 4,
      "note": 64,
      "start": 91.358,
      "duration": 0.0708,
      "velocity": 107,
      "chip": "ym2612"
    },
    {
      "channel": 3,
      "note": 53,
      "start": 91.4718,
      "duration": 0.1169,
      "velocity": 100,
      "chip": "ym2612"
    },
    {
      "channel": 4,
      "note": 59,
      "start": 91.475,
      "duration": 0.0937,
      "velocity": 107,
      "chip": "ym2612"
    },
    {
      "channel": 3,
      "note": 52,
      "start": 91.6119,
      "duration": 0.1168,
      "velocity": 100,
      "chip": "ym2612"
    },
    {
      "channel": 4,
      "note": 103,
      "start": 91.6151,
      "duration": 0.0008,
      "velocity": 127,
      "chip": "ym2612"
    },
    {
      "channel": 4,
      "note": 64,
      "start": 91.6181,
      "duration": 0.0907,
      "velocity": 107,
      "chip": "ym2612"
    },
    {
      "channel": 4,
      "note": 59,
      "start": 91.7526,
      "duration": 0.0762,
      "velocity": 107,
      "chip": "ym2612"
    },
    {
      "channel": 3,
      "note": 52,
      "start": 91.8919,
      "duration": 0.0968,
      "velocity": 100,
      "chip": "ym2612"
    },
    {
      "channel": 4,
      "note": 103,
      "start": 91.8951,
      "duration": 0.0007,
      "velocity": 127,
      "chip": "ym2612"
    },
    {
      "channel": 4,
      "note": 71,
      "start": 91.8981,
      "duration": 0.0707,
      "velocity": 107,
      "chip": "ym2612"
    },
    {
      "channel": 3,
      "note": 53,
      "start": 92.0118,
      "duration": 0.1168,
      "velocity": 100,
      "chip": "ym2612"
    },
    {
      "channel": 4,
      "note": 64,
      "start": 92.0149,
      "duration": 0.0939,
      "velocity": 107,
      "chip": "ym2612"
    },
    {
      "channel": 3,
      "note": 52,
      "start": 92.152,
      "duration": 0.1167,
      "velocity": 100,
      "chip": "ym2612"
    },
    {
      "channel": 4,
      "note": 103,
      "start": 92.1551,
      "duration": 0.0007,
      "velocity": 127,
      "chip": "ym2612"
    },
    {
      "channel": 4,
      "note": 59,
      "start": 92.1581,
      "duration": 0.0907,
      "velocity": 107,
      "chip": "ym2612"
    },
    {
      "channel": 4,
      "note": 64,
      "start": 92.2926,
      "duration": 0.0762,
      "velocity": 107,
      "chip": "ym2612"
    },
    {
      "channel": 3,
      "note": 52,
      "start": 92.4319,
      "duration": 0.0968,
      "velocity": 100,
      "chip": "ym2612"
    },
    {
      "channel": 4,
      "note": 103,
      "start": 92.4351,
      "duration": 0.0007,
      "velocity": 127,
      "chip": "ym2612"
    },
    {
      "channel": 4,
      "note": 71,
      "start": 92.4381,
      "duration": 0.0707,
      "velocity": 107,
      "chip": "ym2612"
    },
    {
      "channel": 3,
      "note": 53,
      "start": 92.5521,
      "duration": 0.1166,
      "velocity": 100,
      "chip": "ym2612"
    },
    {
      "channel": 4,
      "note": 64,
      "start": 92.5553,
      "duration": 0.0934,
      "velocity": 107,
      "chip": "ym2612"
    },
    {
      "channel": 3,
      "note": 52,
      "start": 92.6919,
      "duration": 0.1168,
      "velocity": 100,
      "chip": "ym2612"
    },
    {
      "channel": 4,
      "note": 103,
      "start": 92.6951,
      "duration": 0.0011,
      "velocity": 127,
      "chip": "ym2612"
    },
    {
      "channel": 4,
      "note": 59,
      "start": 92.6984,
      "duration": 0.0704,
      "velocity": 107,
      "chip": "ym2612"
    },
    {
      "channel": 4,
      "note": 52,
      "start": 92.8326,
      "duration": 0.0761,
      "velocity": 107,
      "chip": "ym2612"
    },
    {
      "channel": 3,
      "note": 52,
      "start": 92.9519,
      "duration": 0.1168,
      "velocity": 100,
      "chip": "ym2612"
    },
    {
      "channel": 4,
      "note": 103,
      "start": 92.9551,
      "duration": 0.0007,
      "velocity": 127,
      "chip": "ym2612"
    },
    {
      "channel": 4,
      "note": 59,
      "start": 92.958,
      "duration": 0.0908,
      "velocity": 107,
      "chip": "ym2612"
    },
    {
      "channel": 3,
      "note": 53,
      "start": 93.0918,
      "duration": 0.1169,
      "velocity": 100,
      "chip": "ym2612"
    },
    {
      "channel": 4,
      "note": 64,
      "start": 93.095,
      "duration": 0.0937,
      "velocity": 107,
      "chip": "ym2612"
    },
    {
      "channel": 3,
      "note": 52,
      "start": 93.2319,
      "duration": 0.1168,
      "velocity": 100,
      "chip": "ym2612"
    },
    {
      "channel": 4,
      "note": 103,
      "start": 93.2351,
      "duration": 0.0008,
      "velocity": 127,
      "chip": "ym2612"
    },
    {
      "channel": 4,
      "note": 59,
      "start": 93.238,
      "duration": 0.0708,
      "velocity": 107,
      "chip": "ym2612"
    },
    {
      "channel": 4,
      "note": 52,
      "start": 93.3726,
      "duration": 0.0762,
      "velocity": 107,
      "chip": "ym2612"
    },
    {
      "channel": 3,
      "note": 52,
      "start": 93.4919,
      "duration": 0.1168,
      "velocity": 100,
      "chip": "ym2612"
    },
    {
      "channel": 4,
      "note": 103,
      "start": 93.4951,
      "duration": 0.0007,
      "velocity": 127,
      "chip": "ym2612"
    },
    {
      "channel": 4,
      "note": 59,
      "start": 93.498,
      "duration": 0.0908,
      "velocity": 107,
      "chip": "ym2612"
    },
    {
      "channel": 3,
      "note": 53,
      "start": 93.6318,
      "duration": 0.1169,
      "velocity": 100,
      "chip": "ym2612"
    },
    {
      "channel": 4,
      "note": 64,
      "start": 93.635,
      "duration": 0.0937,
      "velocity": 107,
      "chip": "ym2612"
    },
    {
      "channel": 3,
      "note": 52,
      "start": 93.7719,
      "duration": 0.1168,
      "velocity": 100,
      "chip": "ym2612"
    },
    {
      "channel": 4,
      "note": 103,
      "start": 93.7751,
      "duration": 0.0008,
      "velocity": 127,
      "chip": "ym2612"
    },
    {
      "channel": 4,
      "note": 52,
      "start": 93.7781,
      "duration": 0.0707,
      "velocity": 107,
      "chip": "ym2612"
    },
    {
      "channel": 4,
      "note": 59,
      "start": 93.9126,
      "duration": 0.0762,
      "velocity": 107,
      "chip": "ym2612"
    },
    {
      "channel": 3,
      "note": 52,
      "start": 94.0319,
      "duration": 0.1168,
      "velocity": 100,
      "chip": "ym2612"
    },
    {
      "channel": 4,
      "note": 103,
      "start": 94.0351,
      "duration": 0.0007,
      "velocity": 127,
      "chip": "ym2612"
    },
    {
      "channel": 4,
      "note": 64,
      "start": 94.0381,
      "duration": 0.0907,
      "velocity": 107,
      "chip": "ym2612"
    },
    {
      "channel": 3,
      "note": 53,
      "start": 94.1717,
      "duration": 0.1169,
      "velocity": 100,
      "chip": "ym2612"
    },
    {
      "channel": 4,
      "note": 59,
      "start": 94.1749,
      "duration": 0.0939,
      "velocity": 107,
      "chip": "ym2612"
    },
    {
      "channel": 3,
      "note": 52,
      "start": 94.3123,
      "duration": 0.0963,
      "velocity": 100,
      "chip": "ym2612"
    },
    {
      "channel": 4,
      "note": 103,
      "start": 94.3155,
      "duration": 0.0007,
      "velocity": 127,
      "chip": "ym2612"
    },
    {
      "channel": 4,
      "note": 64,
      "start": 94.3185,
      "duration": 0.0703,
      "velocity": 107,
      "chip": "ym2612"
    },
    {
      "channel": 4,
      "note": 71,
      "start": 94.4526,
      "duration": 0.0761,
      "velocity": 107,
      "chip": "ym2612"
    },
    {
      "channel": 3,
      "note": 52,
      "start": 94.5719,
      "duration": 0.1168,
      "velocity": 100,
      "chip": "ym2612"
    },
    {
      "channel": 4,
      "note": 103,
      "start": 94.5751,
      "duration": 0.0007,
      "velocity": 127,
      "chip": "ym2612"
    },
    {
      "channel": 4,
      "note": 64,
      "start": 94.578,
      "duration": 0.0908,
      "velocity": 107,
      "chip": "ym2612"
    },
    {
      "channel": 3,
      "note": 53,
      "start": 94.7118,
      "duration": 0.1171,
      "velocity": 100,
      "chip": "ym2612"
    },
    {
      "channel": 4,
      "note": 52,
      "start": 94.715,
      "duration": 0.0937,
      "velocity": 107,
      "chip": "ym2612"
    },
    {
      "channel": 1,
      "note": 76,
      "start": 94.8515,
      "duration": 4.2772,
      "velocity": 104,
      "chip": "ym2612"
    },
    {
      "channel": 0,
      "note": 83,
      "start": 94.8547,
      "duration": 4.2739,
      "velocity": 104,
      "chip": "ym2612"
    },
    {
      "channel": 5,
      "note": 74,
      "start": 94.8572,
      "duration": 4.2718,
      "velocity": 104,
      "chip": "ym2612"
    },
    {
      "channel": 2,
      "note": 76,
      "start": 94.86,
      "duration": 4.2691,
      "velocity": 104,
      "chip": "ym2612"
    },
    {
      "channel": 3,
      "note": 50,
      "start": 94.8627,
      "duration": 0.0859,
      "velocity": 100,
      "chip": "ym2612"
    },
    {
      "channel": 4,
      "note": 103,
      "start": 94.8659,
      "duration": 0.0011,
      "velocity": 127,
      "chip": "ym2612"
    },
    {
      "channel": 4,
      "note": 59,
      "start": 94.8694,
      "duration": 0.0593,
      "velocity": 107,
      "chip": "ym2612"
    },
    {
      "channel": 4,
      "note": 52,
      "start": 94.9925,
      "duration": 0.0762,
      "velocity": 107,
      "chip": "ym2612"
    },
    {
      "channel": 3,
      "note": 50,
      "start": 95.1119,
      "duration": 0.1168,
      "velocity": 100,
      "chip": "ym2612"
    },
    {
      "channel": 4,
      "note": 103,
      "start": 95.1151,
      "duration": 0.0007,
      "velocity": 127,
      "chip": "ym2612"
    },
    {
      "channel": 4,
      "note": 59,
      "start": 95.118,
      "duration": 0.0908,
      "velocity": 107,
      "chip": "ym2612"
    },
    {
      "channel": 3,
      "note": 52,
      "start": 95.2518,
      "duration": 0.1169,
      "velocity": 100,
      "chip": "ym2612"
    },
    {
      "channel": 4,
      "note": 64,
      "start": 95.255,
      "duration": 0.0737,
      "velocity": 107,
      "chip": "ym2612"
    },
    {
      "channel": 3,
      "note": 50,
      "start": 95.3919,
      "duration": 0.0968,
      "velocity": 100,
      "chip": "ym2612"
    },
    {
      "channel": 4,
      "note": 103,
      "start": 95.3954,
      "duration": 0.0007,
      "velocity": 127,
      "chip": "ym2612"
    },
    {
      "channel": 4,
      "note": 59,
      "start": 95.3984,
      "duration": 0.0704,
      "velocity": 107,
      "chip": "ym2612"
    },
    {
      "channel": 4,
      "note": 52,
      "start": 95.5126,
      "duration": 0.0961,
      "velocity": 107,
      "chip": "ym2612"
    },
    {
      "channel": 3,
      "note": 50,
      "start": 95.6519,
      "duration": 0.1168,
      "velocity": 100,
      "chip": "ym2612"
    },
    {
      "channel": 4,
      "note": 103,
      "start": 95.6551,
      "duration": 0.0007,
      "velocity": 127,
      "chip": "ym2612"
    },
    {
      "channel": 4,
      "note": 59,
      "start": 95.658,
      "duration": 0.0908,
      "velocity": 107,
      "chip": "ym2612"
    },
    {
      "channel": 3,
      "note": 52,
      "start": 95.7918,
      "duration": 0.1169,
      "velocity": 100,
      "chip": "ym2612"
    },
    {
      "channel": 4,
      "note": 64,
      "start": 95.795,
      "duration": 0.0737,
      "velocity": 107,
      "chip": "ym2612"
    },
    {
      "channel": 3,
      "note": 50,
      "start": 95.9322,
      "duration": 0.0965,
      "velocity": 100,
      "chip": "ym2612"
    },
    {
      "channel": 4,
      "note": 103,
      "start": 95.9354,
      "duration": 0.0007,
      "velocity": 127,
      "chip": "ym2612"
    },
    {
      "channel": 4,
      "note": 52,
      "start": 95.9384,
      "duration": 0.0703,
      "velocity": 107,
      "chip": "ym2612"
    },
    {
      "channel": 4,
      "note": 59,
      "start": 96.0526,
      "duration": 0.0962,
      "velocity": 107,
      "chip": "ym2612"
    },
    {
      "channel": 3,
      "note": 50,
      "start": 96.1919,
      "duration": 0.1168,
      "velocity": 100,
      "chip": "ym2612"
    },
    {
      "channel": 4,
      "note": 103,
      "start": 96.1951,
      "duration": 0.0007,
      "velocity": 127,
      "chip": "ym2612"
    },
    {
      "channel": 4,
      "note": 64,
      "start": 96.1981,
      "duration": 0.0907,
      "velocity": 107,
      "chip": "ym2612"
    },
    {
      "channel": 3,
      "note": 52,
      "start": 96.3317,
      "duration": 0.117,
      "velocity": 100,
      "chip": "ym2612"
    },
    {
      "channel": 4,
      "note": 59,
      "start": 96.3349,
      "duration": 0.0739,
      "velocity": 107,
      "chip": "ym2612"
    },
    {
      "channel": 3,
      "note": 50,
      "start": 96.472,
      "duration": 0.0967,
      "velocity": 100,
      "chip": "ym2612"
    },
    {
      "channel": 4,
      "note": 103,
      "start": 96.4751,
      "duration": 0.0007,
      "velocity": 127,
      "chip": "ym2612"
    },
    {
      "channel": 4,
      "note": 64,
      "start": 96.4781,
      "duration": 0.0707,
      "velocity": 107,
      "chip": "ym2612"
    },
    {
      "channel": 4,
      "note": 71,
      "start": 96.5925,
      "duration": 0.0963,
      "velocity": 107,
      "chip": "ym2612"
    },
    {
      "channel": 3,
      "note": 50,
      "start": 96.7319,
      "duration": 0.1168,
      "velocity": 100,
      "chip": "ym2612"
    },
    {
      "channel": 4,
      "note": 103,
      "start": 96.7351,
      "duration": 0.0007,
      "velocity": 127,
      "chip": "ym2612"
    },
    {
      "channel": 4,
      "note": 64,
      "start": 96.7381,
      "duration": 0.0907,
      "velocity": 107,
      "chip": "ym2612"
    },
    {
      "channel": 3,
      "note": 52,
      "start": 96.8717,
      "duration": 0.0969,
      "velocity": 100,
      "chip": "ym2612"
    },
    {
      "channel": 4,
      "note": 52,
      "start": 96.8749,
      "duration": 0.0739,
      "velocity": 107,
      "chip": "ym2612"
    },
    {
      "channel": 3,
      "note": 50,
      "start": 97.012,
      "duration": 0.0967,
      "velocity": 100,
      "chip": "ym2612"
    },
    {
      "channel": 4,
      "note": 103,
      "start": 97.0151,
      "duration": 0.0012,
      "velocity": 127,
      "chip": "ym2612"
    },
    {
      "channel": 4,
      "note": 52,
      "start": 97.0186,
      "duration": 0.0301,
      "velocity": 107,
      "chip": "ym2612"
    },
    {
      "channel": 4,
      "note": 59,
      "start": 97.1327,
      "duration": 0.0961,
      "velocity": 107,
      "chip": "ym2612"
    },
    {
      "channel": 3,
      "note": 50,
      "start": 97.2719,
      "duration": 0.1169,
      "velocity": 100,
      "chip": "ym2612"
    },
    {
      "channel": 4,
      "note": 103,
      "start": 97.275,
      "duration": 0.0007,
      "velocity": 127,
      "chip": "ym2612"
    },
    {
      "channel": 4,
      "note": 64,
      "start": 97.2779,
      "duration": 0.0909,
      "velocity": 107,
      "chip": "ym2612"
    },
    {
      "channel": 3,
      "note": 52,
      "start": 97.4118,
      "duration": 0.0969,
      "velocity": 100,
      "chip": "ym2612"
    },
    {
      "channel": 4,
      "note": 59,
      "start": 97.415,
      "duration": 0.0737,
      "velocity": 107,
      "chip": "ym2612"
    },
    {
      "channel": 3,
      "note": 50,
      "start": 97.5519,
      "duration": 0.0967,
      "velocity": 100,
      "chip": "ym2612"
    },
    {
      "channel": 4,
      "note": 103,
      "start": 97.5551,
      "duration": 0.0007,
      "velocity": 127,
      "chip": "ym2612"
    },
    {
      "channel": 4,
      "note": 64,
      "start": 97.558,
      "duration": 0.0708,
      "velocity": 107,
      "chip": "ym2612"
    },
    {
      "channel": 4,
      "note": 71,
      "start": 97.6726,
      "duration": 0.0962,
      "velocity": 107,
      "chip": "ym2612"
    },
    {
      "channel": 3,
      "note": 50,
      "start": 97.8122,
      "duration": 0.1164,
      "velocity": 100,
      "chip": "ym2612"
    },
    {
      "channel": 4,
      "note": 103,
      "start": 97.8154,
      "duration": 0.0007,
      "velocity": 127,
      "chip": "ym2612"
    },
    {
      "channel": 4,
      "note": 64,
      "start": 97.8183,
      "duration": 0.0704,
      "velocity": 107,
      "chip": "ym2612"
    },
    {
      "channel": 3,
      "note": 52,
      "start": 97.9518,
      "duration": 0.0969,
      "velocity": 100,
      "chip": "ym2612"
    },
    {
      "channel": 4,
      "note": 59,
      "start": 97.955,
      "duration": 0.0737,
      "velocity": 107,
      "chip": "ym2612"
    },
    {
      "channel": 3,
      "note": 50,
      "start": 98.0719,
      "duration": 0.1167,
      "velocity": 100,
      "chip": "ym2612"
    },
    {
      "channel": 4,
      "note": 103,
      "start": 98.0751,
      "duration": 0.0008,
      "velocity": 127,
      "chip": "ym2612"
    },
    {
      "channel": 4,
      "note": 64,
      "start": 98.078,
      "duration": 0.0908,
      "velocity": 107,
      "chip": "ym2612"
    },
    {
      "channel": 4,
      "note": 59,
      "start": 98.2126,
      "duration": 0.0962,
      "velocity": 107,
      "chip": "ym2612"
    },
    {
      "channel": 3,
      "note": 50,
      "start": 98.3519,
      "duration": 0.1169,
      "velocity": 100,
      "chip": "ym2612"
    },
    {
      "channel": 4,
      "note": 103,
      "start": 98.3551,
      "duration": 0.0007,
      "velocity": 127,
      "chip": "ym2612"
    },
    {
      "channel": 4,
      "note": 52,
      "start": 98.358,
      "duration": 0.0708,
      "velocity": 107,
      "chip": "ym2612"
    },
    {
      "channel": 3,
      "note": 52,
      "start": 98.4918,
      "duration": 0.0969,
      "velocity": 100,
      "chip": "ym2612"
    },
    {
      "channel": 4,
      "note": 64,
      "start": 98.495,
      "duration": 0.0737,
      "velocity": 107,
      "chip": "ym2612"
    },
    {
      "channel": 3,
      "note": 50,
      "start": 98.6119,
      "duration": 0.1168,
      "velocity": 100,
      "chip": "ym2612"
    },
    {
      "channel": 4,
      "note": 103,
      "start": 98.6151,
      "duration": 0.0008,
      "velocity": 127,
      "chip": "ym2612"
    },
    {
      "channel": 4,
      "note": 59,
      "start": 98.6181,
      "duration": 0.0907,
      "velocity": 107,
      "chip": "ym2612"
    },
    {
      "channel": 4,
      "note": 52,
      "start": 98.7525,
      "duration": 0.0962,
      "velocity": 107,
      "chip": "ym2612"
    },
    {
      "channel": 3,
      "note": 50,
      "start": 98.8919,
      "duration": 0.1168,
      "velocity": 100,
      "chip": "ym2612"
    },
    {
      "channel": 4,
      "note": 103,
      "start": 98.8951,
      "duration": 0.0011,
      "velocity": 127,
      "chip": "ym2612"
    },
    {
      "channel": 4,
      "note": 64,
      "start": 98.8985,
      "duration": 0.0703,
      "velocity": 107,
      "chip": "ym2612"
    },
    {
      "channel": 3,
      "note": 52,
      "start": 99.0318,
      "duration": 0.0971,
      "velocity": 100,
      "chip": "ym2612"
    },
    {
      "channel": 4,
      "note": 59,
      "start": 99.035,
      "duration": 0.0737,
      "velocity": 107,
      "chip": "ym2612"
    },
    {
      "channel": 0,
      "note": 84,
      "start": 99.1584,
      "duration": 10.7502,
      "velocity": 104,
      "chip": "ym2612"
    },
    {
      "channel": 5,
      "note": 81,
      "start": 99.1609,
      "duration": 10.7481,
      "velocity": 104,
      "chip": "ym2612"
    },
    {
      "channel": 2,
      "note": 76,
      "start": 99.1637,
      "duration": 10.7455,
      "velocity": 104,
      "chip": "ym2612"
    },
    {
      "channel": 3,
      "note": 45,
      "start": 99.1682,
      "duration": 0.1005,
      "velocity": 100,
      "chip": "ym2612"
    },
    {
      "channel": 4,
      "note": 103,
      "start": 99.1767,
      "duration": 0.072,
      "velocity": 127,
      "chip": "ym2612"
    },
    {
      "channel": 3,
      "note": 45,
      "start": 99.4319,
      "duration": 0.0968,
      "velocity": 100,
      "chip": "ym2612"
    },
    {
      "channel": 4,
      "note": 103,
      "start": 99.435,
      "duration": 0.0738,
      "velocity": 127,
      "chip": "ym2612"
    },
    {
      "channel": 3,
      "note": 48,
      "start": 99.5719,
      "duration": 0.0969,
      "velocity": 100,
      "chip": "ym2612"
    },
    {
      "channel": 3,
      "note": 45,
      "start": 99.6919,
      "duration": 0.1168,
      "velocity": 100,
      "chip": "ym2612"
    },
    {
      "channel": 4,
      "note": 103,
      "start": 99.695,
      "duration": 0.0938,
      "velocity": 127,
      "chip": "ym2612"
    },
    {
      "channel": 3,
      "note": 45,
      "start": 99.9719,
      "duration": 0.0968,
      "velocity": 100,
      "chip": "ym2612"
    },
    {
      "channel": 1,
      "note": 79,
      "start": 99.9749,
      "duration": 0.0737,
      "velocity": 124,
      "chip": "ym2612"
    },
    {
      "channel": 4,
      "note": 103,
      "start": 99.9778,
      "duration": 0.071,
      "velocity": 127,
      "chip": "ym2612"
    },
    {
      "channel": 3,
      "note": 48,
      "start": 100.1118,
      "duration": 0.0969,
      "velocity": 100,
      "chip": "ym2612"
    },
    {
      "channel": 1,
      "note": 79,
      "start": 100.1144,
      "duration": 0.0744,
      "velocity": 124,
      "chip": "ym2612"
    },
    {
      "channel": 3,
      "note": 45,
      "start": 100.2324,
      "duration": 0.1163,
      "velocity": 100,
      "chip": "ym2612"
    },
    {
      "channel": 1,
      "note": 79,
      "start": 100.2349,
      "duration": 0.0937,
      "velocity": 124,
      "chip": "ym2612"
    },
    {
      "channel": 4,
      "note": 103,
      "start": 100.2377,
      "duration": 0.0912,
      "velocity": 127,
      "chip": "ym2612"
    },
    {
      "channel": 1,
      "note": 79,
      "start": 100.3719,
      "duration": 0.0768,
      "velocity": 124,
      "chip": "ym2612"
    },
    {
      "channel": 3,
      "note": 45,
      "start": 100.5119,
      "duration": 0.0967,
      "velocity": 100,
      "chip": "ym2612"
    },
    {
      "channel": 1,
      "note": 79,
      "start": 100.5146,
      "duration": 0.0741,
      "velocity": 124,
      "chip": "ym2612"
    },
    {
      "channel": 4,
      "note": 103,
      "start": 100.5174,
      "duration": 0.0714,
      "velocity": 127,
      "chip": "ym2612"
    },
    {
      "channel": 3,
      "note": 48,
      "start": 100.6319,
      "duration": 0.1169,
      "velocity": 100,
      "chip": "ym2612"
    },
    {
      "channel": 3,
      "note": 45,
      "start": 100.7719,
      "duration": 0.1168,
      "velocity": 100,
      "chip": "ym2612"
    },
    {
      "channel": 4,
      "note": 103,
      "start": 100.775,
      "duration": 0.0938,
      "velocity": 127,
      "chip": "ym2612"
    },
    {
      "channel": 3,
      "note": 45,
      "start": 101.0519,
      "duration": 0.0968,
      "velocity": 100,
      "chip": "ym2612"
    },
    {
      "channel": 4,
      "note": 103,
      "start": 101.0549,
      "duration": 0.0739,
      "velocity": 127,
      "chip": "ym2612"
    },
    {
      "channel": 3,
      "note": 48,
      "start": 101.1718,
      "duration": 0.1169,
      "velocity": 100,
      "chip": "ym2612"
    },
    {
      "channel": 1,
      "note": 64,
      "start": 101.312,
      "duration": 2.1367,
      "velocity": 104,
      "chip": "ym2612"
    },
    {
      "channel": 3,
      "note": 45,
      "start": 101.3147,
      "duration": 0.114,
      "velocity": 100,
      "chip": "ym2612"
    },
    {
      "channel": 4,
      "note": 103,
      "start": 101.3178,
      "duration": 0.091,
      "velocity": 127,
      "chip": "ym2612"
    },
    {
      "channel": 3,
      "note": 45,
      "start": 101.5919,
      "duration": 0.0969,
      "velocity": 100,
      "chip": "ym2612"
    },
    {
      "channel": 4,
      "note": 79,
      "start": 101.5948,
      "duration": 0.0011,
      "velocity": 124,
      "chip": "ym2612"
    },
    {
      "channel": 4,
      "note": 103,
      "start": 101.5981,
      "duration": 0.0707,
      "velocity": 127,
      "chip": "ym2612"
    },
    {
      "channel": 3,
      "note": 48,
      "start": 101.7118,
      "duration": 0.1169,
      "velocity": 100,
      "chip": "ym2612"
    },
    {
      "channel": 4,
      "note": 79,
      "start": 101.7149,
      "duration": 0.0939,
      "velocity": 124,
      "chip": "ym2612"
    },
    {
      "channel": 3,
      "note": 45,
      "start": 101.8523,
      "duration": 0.1164,
      "velocity": 100,
      "chip": "ym2612"
    },
    {
      "channel": 4,
      "note": 79,
      "start": 101.855,
      "duration": 0.0007,
      "velocity": 124,
      "chip": "ym2612"
    },
    {
      "channel": 4,
      "note": 103,
      "start": 101.8579,
      "duration": 0.0908,
      "velocity": 127,
      "chip": "ym2612"
    },
    {
      "channel": 4,
      "note": 79,
      "start": 101.9921,
      "duration": 0.0766,
      "velocity": 124,
      "chip": "ym2612"
    },
    {
      "channel": 3,
      "note": 45,
      "start": 102.1319,
      "duration": 0.0968,
      "velocity": 100,
      "chip": "ym2612"
    },
    {
      "channel": 4,
      "note": 79,
      "start": 102.1346,
      "duration": 0.0007,
      "velocity": 124,
      "chip": "ym2612"
    },
    {
      "channel": 4,
      "note": 103,
      "start": 102.1375,
      "duration": 0.0713,
      "velocity": 127,
      "chip": "ym2612"
    },
    {
      "channel": 3,
      "note": 48,
      "start": 102.2518,
      "duration": 0.1168,
      "velocity": 100,
      "chip": "ym2612"
    },
    {
      "channel": 4,
      "note": 79,
      "start": 102.2546,
      "duration": 0.0942,
      "velocity": 124,
      "chip": "ym2612"
    },
    {
      "channel": 3,
      "note": 45,
      "start": 102.392,
      "duration": 0.1167,
      "velocity": 100,
      "chip": "ym2612"
    },
    {
      "channel": 4,
      "note": 79,
      "start": 102.3947,
      "duration": 0.0008,
      "velocity": 124,
      "chip": "ym2612"
    },
    {
      "channel": 4,
      "note": 103,
      "start": 102.3977,
      "duration": 0.091,
      "velocity": 127,
      "chip": "ym2612"
    },
    {
      "channel": 3,
      "note": 45,
      "start": 102.6719,
      "duration": 0.0969,
      "velocity": 100,
      "chip": "ym2612"
    },
    {
      "channel": 4,
      "note": 103,
      "start": 102.6749,
      "duration": 0.0738,
      "velocity": 127,
      "chip": "ym2612"
    },
    {
      "channel": 3,
      "note": 48,
      "start": 102.7918,
      "duration": 0.1169,
      "velocity": 100,
      "chip": "ym2612"
    },
    {
      "channel": 3,
      "note": 45,
      "start": 102.9319,
      "duration": 0.1168,
      "velocity": 100,
      "chip": "ym2612"
    },
    {
      "channel": 4,
      "note": 103,
      "start": 102.935,
      "duration": 0.0738,
      "velocity": 127,
      "chip": "ym2612"
    },
    {
      "channel": 3,
      "note": 45,
      "start": 103.1919,
      "duration": 0.1169,
      "velocity": 100,
      "chip": "ym2612"
    },
    {
      "channel": 4,
      "note": 79,
      "start": 103.1947,
      "duration": 0.0008,
      "velocity": 124,
      "chip": "ym2612"
    },
    {
      "channel": 4,
      "note": 103,
      "start": 103.1977,
      "duration": 0.091,
      "velocity": 127,
      "chip": "ym2612"
    },
    {
      "channel": 3,
      "note": 48,
      "start": 103.3317,
      "duration": 0.1171,
      "velocity": 100,
      "chip": "ym2612"
    },
    {
      "channel": 4,
      "note": 79,
      "start": 103.3345,
      "duration": 0.0942,
      "velocity": 124,
      "chip": "ym2612"
    },
    {
      "channel": 1,
      "note": 74,
      "start": 103.4717,
      "duration": 1.057,
      "velocity": 104,
      "chip": "ym2612"
    },
    {
      "channel": 3,
      "note": 45,
      "start": 103.4745,
      "duration": 0.1142,
      "velocity": 100,
      "chip": "ym2612"
    },
    {
      "channel": 4,
      "note": 79,
      "start": 103.4771,
      "duration": 0.0007,
      "velocity": 124,
      "chip": "ym2612"
    },
    {
      "channel": 4,
      "note": 103,
      "start": 103.4801,
      "duration": 0.0687,
      "velocity": 127,
      "chip": "ym2612"
    },
    {
      "channel": 4,
      "note": 79,
      "start": 103.6121,
      "duration": 0.0766,
      "velocity": 124,
      "chip": "ym2612"
    },
    {
      "channel": 3,
      "note": 45,
      "start": 103.7323,
      "duration": 0.1164,
      "velocity": 100,
      "chip": "ym2612"
    },
    {
      "channel": 4,
      "note": 79,
      "start": 103.7351,
      "duration": 0.0007,
      "velocity": 124,
      "chip": "ym2612"
    },
    {
      "channel": 4,
      "note": 103,
      "start": 103.7381,
      "duration": 0.0906,
      "velocity": 127,
      "chip": "ym2612"
    },
    {
      "channel": 3,
      "note": 48,
      "start": 103.8717,
      "duration": 0.117,
      "velocity": 100,
      "chip": "ym2612"
    },
    {
      "channel": 3,
      "note": 45,
      "start": 104.0119,
      "duration": 0.1169,
      "velocity": 100,
      "chip": "ym2612"
    },
    {
      "channel": 4,
      "note": 103,
      "start": 104.0149,
      "duration": 0.0739,
      "velocity": 127,
      "chip": "ym2612"
    },
    {
      "channel": 3,
      "note": 45,
      "start": 104.2719,
      "duration": 0.1167,
      "velocity": 100,
      "chip": "ym2612"
    },
    {
      "channel": 4,
      "note": 103,
      "start": 104.275,
      "duration": 0.0938,
      "velocity": 127,
      "chip": "ym2612"
    },
    {
      "channel": 3,
      "note": 48,
      "start": 104.4118,
      "duration": 0.1171,
      "velocity": 100,
      "chip": "ym2612"
    },
    {
      "channel": 1,
      "note": 72,
      "start": 104.5515,
      "duration": 1.0572,
      "velocity": 104,
      "chip": "ym2612"
    },
    {
      "channel": 3,
      "note": 45,
      "start": 104.5542,
      "duration": 0.0945,
      "velocity": 100,
      "chip": "ym2612"
    },
    {
      "channel": 4,
      "note": 79,
      "start": 104.5571,
      "duration": 0.0007,
      "velocity": 124,
      "chip": "ym2612"
    },
    {
      "channel": 4,
      "note": 103,
      "start": 104.5601,
      "duration": 0.0687,
      "velocity": 127,
      "chip": "ym2612"
    },
    {
      "channel": 4,
      "note": 79,
      "start": 104.6926,
      "duration": 0.0762,
      "velocity": 124,
      "chip": "ym2612"
    },
    {
      "channel": 3,
      "note": 45,
      "start": 104.8119,
      "duration": 0.1168,
      "velocity": 100,
      "chip": "ym2612"
    },
    {
      "channel": 4,
      "note": 79,
      "start": 104.8146,
      "duration": 0.0007,
      "velocity": 124,
      "chip": "ym2612"
    },
    {
      "channel": 4,
      "note": 103,
      "start": 104.8176,
      "duration": 0.0912,
      "velocity": 127,
      "chip": "ym2612"
    },
    {
      "channel": 3,
      "note": 48,
      "start": 104.9517,
      "duration": 0.117,
      "velocity": 100,
      "chip": "ym2612"
    },
    {
      "channel": 4,
      "note": 79,
      "start": 104.9545,
      "duration": 0.0942,
      "velocity": 124,
      "chip": "ym2612"
    },
    {
      "channel": 3,
      "note": 45,
      "start": 105.0919,
      "duration": 0.0968,
      "velocity": 100,
      "chip": "ym2612"
    },
    {
      "channel": 4,
      "note": 79,
      "start": 105.0946,
      "duration": 0.0008,
      "velocity": 124,
      "chip": "ym2612"
    },
    {
      "channel": 4,
      "note": 103,
      "start": 105.0975,
      "duration": 0.0712,
      "velocity": 127,
      "chip": "ym2612"
    },
    {
      "channel": 4,
      "note": 79,
      "start": 105.2324,
      "duration": 0.0763,
      "velocity": 124,
      "chip": "ym2612"
    },
    {
      "channel": 3,
      "note": 45,
      "start": 105.3523,
      "duration": 0.1164,
      "velocity": 100,
      "chip": "ym2612"
    },
    {
      "channel": 4,
      "note": 103,
      "start": 105.3554,
      "duration": 0.0933,
      "velocity": 127,
      "chip": "ym2612"
    },
    {
      "channel": 3,
      "note": 48,
      "start": 105.4917,
      "duration": 0.1171,
      "velocity": 100,
      "chip": "ym2612"
    },
    {
      "channel": 1,
      "note": 71,
      "start": 105.6315,
      "duration": 1.0572,
      "velocity": 104,
      "chip": "ym2612"
    },
    {
      "channel": 3,
      "note": 45,
      "start": 105.6342,
      "duration": 0.0945,
      "velocity": 100,
      "chip": "ym2612"
    },
    {
      "channel": 4,
      "note": 103,
      "start": 105.6372,
      "duration": 0.0715,
      "velocity": 127,
      "chip": "ym2612"
    },
    {
      "channel": 3,
      "note": 45,
      "start": 105.8919,
      "duration": 0.1169,
      "velocity": 100,
      "chip": "ym2612"
    },
    {
      "channel": 4,
      "note": 103,
      "start": 105.8953,
      "duration": 0.0934,
      "velocity": 127,
      "chip": "ym2612"
    },
    {
      "channel": 3,
      "note": 48,
      "start": 106.0317,
      "duration": 0.1169,
      "velocity": 100,
      "chip": "ym2612"
    },
    {
      "channel": 3,
      "note": 45,
      "start": 106.1719,
      "duration": 0.0968,
      "velocity": 100,
      "chip": "ym2612"
    },
    {
      "channel": 4,
      "note": 103,
      "start": 106.1749,
      "duration": 0.0738,
      "velocity": 127,
      "chip": "ym2612"
    },
    {
      "channel": 3,
      "note": 45,
      "start": 106.4319,
      "duration": 0.1169,
      "velocity": 100,
      "chip": "ym2612"
    },
    {
      "channel": 4,
      "note": 103,
      "start": 106.4349,
      "duration": 0.0938,
      "velocity": 127,
      "chip": "ym2612"
    },
    {
      "channel": 3,
      "note": 48,
      "start": 106.5718,
      "duration": 0.117,
      "velocity": 100,
      "chip": "ym2612"
    },
    {
      "channel": 1,
      "note": 64,
      "start": 106.7124,
      "duration": 3.1963,
      "velocity": 104,
      "chip": "ym2612"
    },
    {
      "channel": 3,
      "note": 45,
      "start": 106.7151,
      "duration": 0.0935,
      "velocity": 100,
      "chip": "ym2612"
    },
    {
      "channel": 4,
      "note": 103,
      "start": 106.7182,
      "duration": 0.0706,
      "velocity": 127,
      "chip": "ym2612"
    },
    {
      "channel": 3,
      "note": 45,
      "start": 106.9719,
      "duration": 0.1169,
      "velocity": 100,
      "chip": "ym2612"
    },
    {
      "channel": 4,
      "note": 103,
      "start": 106.9749,
      "duration": 0.0939,
      "velocity": 127,
      "chip": "ym2612"
    },
    {
      "channel": 3,
      "note": 48,
      "start": 107.1121,
      "duration": 0.0966,
      "velocity": 100,
      "chip": "ym2612"
    },
    {
      "channel": 3,
      "note": 45,
      "start": 107.2519,
      "duration": 0.0968,
      "velocity": 100,
      "chip": "ym2612"
    },
    {
      "channel": 4,
      "note": 103,
      "start": 107.2549,
      "duration": 0.0739,
      "velocity": 127,
      "chip": "ym2612"
    },
    {
      "channel": 3,
      "note": 45,
      "start": 107.5119,
      "duration": 0.1169,
      "velocity": 100,
      "chip": "ym2612"
    },
    {
      "channel": 4,
      "note": 103,
      "start": 107.5149,
      "duration": 0.0939,
      "velocity": 127,
      "chip": "ym2612"
    },
    {
      "channel": 3,
      "note": 48,
      "start": 107.6517,
      "duration": 0.0969,
      "velocity": 100,
      "chip": "ym2612"
    },
    {
      "channel": 3,
      "note": 45,
      "start": 107.7919,
      "duration": 0.0968,
      "velocity": 100,
      "chip": "ym2612"
    },
    {
      "channel": 4,
      "note": 103,
      "start": 107.7949,
      "duration": 0.0738,
      "velocity": 127,
      "chip": "ym2612"
    },
    {
      "channel": 3,
      "note": 45,
      "start": 108.0519,
      "duration": 0.1168,
      "velocity": 100,
      "chip": "ym2612"
    },
    {
      "channel": 4,
      "note": 103,
      "start": 108.0549,
      "duration": 0.0738,
      "velocity": 127,
      "chip": "ym2612"
    },
    {
      "channel": 3,
      "note": 48,
      "start": 108.1917,
      "duration": 0.097,
      "velocity": 100,
      "chip": "ym2612"
    },
    {
      "channel": 3,
      "note": 45,
      "start": 108.3119,
      "duration": 0.1167,
      "velocity": 100,
      "chip": "ym2612"
    },
    {
      "channel": 4,
      "note": 103,
      "start": 108.3149,
      "duration": 0.0939,
      "velocity": 127,
      "chip": "ym2612"
    },
    {
      "channel": 3,
      "note": 45,
      "start": 108.5919,
      "duration": 0.1168,
      "velocity": 100,
      "chip": "ym2612"
    },
    {
      "channel": 4,
      "note": 103,
      "start": 108.5949,
      "duration": 0.0739,
      "velocity": 127,
      "chip": "ym2612"
    },
    {
      "channel": 3,
      "note": 48,
      "start": 108.7317,
      "duration": 0.0969,
      "velocity": 100,
      "chip": "ym2612"
    },
    {
      "channel": 3,
      "note": 45,
      "start": 108.8522,
      "duration": 0.1165,
      "velocity": 100,
      "chip": "ym2612"
    },
    {
      "channel": 4,
      "note": 103,
      "start": 108.8553,
      "duration": 0.0934,
      "velocity": 127,
      "chip": "ym2612"
    },
    {
      "channel": 3,
      "note": 45,
      "start": 109.1319,
      "duration": 0.1168,
      "velocity": 100,
      "chip": "ym2612"
    },
    {
      "channel": 4,
      "note": 103,
      "start": 109.1349,
      "duration": 0.0738,
      "velocity": 127,
      "chip": "ym2612"
    },
    {
      "channel": 3,
      "note": 48,
      "start": 109.2717,
      "duration": 0.0969,
      "velocity": 100,
      "chip": "ym2612"
    },
    {
      "channel": 3,
      "note": 45,
      "start": 109.3919,
      "duration": 0.1168,
      "velocity": 100,
      "chip": "ym2612"
    },
    {
      "channel": 4,
      "note": 103,
      "start": 109.3949,
      "duration": 0.0938,
      "velocity": 127,
      "chip": "ym2612"
    },
    {
      "channel": 3,
      "note": 45,
      "start": 109.6719,
      "duration": 0.0969,
      "velocity": 100,
      "chip": "ym2612"
    },
    {
      "channel": 4,
      "note": 103,
      "start": 109.6749,
      "duration": 0.0738,
      "velocity": 127,
      "chip": "ym2612"
    },
    {
      "channel": 3,
      "note": 48,
      "start": 109.8117,
      "duration": 0.0971,
      "velocity": 100,
      "chip": "ym2612"
    },
    {
      "channel": 1,
      "note": 71,
      "start": 109.9318,
      "duration": 1.0568,
      "velocity": 104,
      "chip": "ym2612"
    },
    {
      "channel": 0,
      "note": 83,
      "start": 109.9347,
      "duration": 8.3339,
      "velocity": 104,
      "chip": "ym2612"
    },
    {
      "channel": 5,
      "note": 79,
      "start": 109.9376,
      "duration": 8.3312,
      "velocity": 104,
      "chip": "ym2612"
    },
    {
      "channel": 2,
      "note": 76,
      "start": 109.9404,
      "duration": 8.3286,
      "velocity": 104,
      "chip": "ym2612"
    },
    {
      "channel": 3,
      "note": 52,
      "start": 109.943,
      "duration": 0.1057,
      "velocity": 100,
      "chip": "ym2612"
    },
    {
      "channel": 4,
      "note": 103,
      "start": 109.9461,
      "duration": 0.0827,
      "velocity": 127,
      "chip": "ym2612"
    },
    {
      "channel": 3,
      "note": 52,
      "start": 110.2119,
      "duration": 0.0968,
      "velocity": 100,
      "chip": "ym2612"
    },
    {
      "channel": 4,
      "note": 103,
      "start": 110.2153,
      "duration": 0.0735,
      "velocity": 127,
      "chip": "ym2612"
    },
    {
      "channel": 3,
      "note": 53,
      "start": 110.3518,
      "duration": 0.0969,
      "velocity": 100,
      "chip": "ym2612"
    },
    {
      "channel": 3,
      "note": 52,
      "start": 110.4722,
      "duration": 0.1164,
      "velocity": 100,
      "chip": "ym2612"
    },
    {
      "channel": 4,
      "note": 103,
      "start": 110.4753,
      "duration": 0.0935,
      "velocity": 127,
      "chip": "ym2612"
    },
    {
      "channel": 3,
      "note": 52,
      "start": 110.752,
      "duration": 0.0966,
      "velocity": 100,
      "chip": "ym2612"
    },
    {
      "channel": 4,
      "note": 103,
      "start": 110.755,
      "duration": 0.0738,
      "velocity": 127,
      "chip": "ym2612"
    },
    {
      "channel": 3,
      "note": 53,
      "start": 110.8718,
      "duration": 0.1169,
      "velocity": 100,
      "chip": "ym2612"
    },
    {
      "channel": 1,
      "note": 72,
      "start": 111.0118,
      "duration": 0.5169,
      "velocity": 104,
      "chip": "ym2612"
    },
    {
      "channel": 3,
      "note": 52,
      "start": 111.0146,
      "duration": 0.1141,
      "velocity": 100,
      "chip": "ym2612"
    },
    {
      "channel": 4,
      "note": 103,
      "start": 111.0176,
      "duration": 0.0912,
      "velocity": 127,
      "chip": "ym2612"
    },
    {
      "channel": 3,
      "note": 52,
      "start": 111.2919,
      "duration": 0.0968,
      "velocity": 100,
      "chip": "ym2612"
    },
    {
      "channel": 4,
      "note": 79,
      "start": 111.2949,
      "duration": 0.0008,
      "velocity": 124,
      "chip": "ym2612"
    },
    {
      "channel": 4,
      "note": 103,
      "start": 111.2978,
      "duration": 0.0709,
      "velocity": 127,
      "chip": "ym2612"
    },
    {
      "channel": 3,
      "note": 53,
      "start": 111.4118,
      "duration": 0.117,
      "velocity": 100,
      "chip": "ym2612"
    },
    {
      "channel": 4,
      "note": 79,
      "start": 111.4146,
      "duration": 0.0942,
      "velocity": 124,
      "chip": "ym2612"
    },
    {
      "channel": 1,
      "note": 71,
      "start": 111.5514,
      "duration": 0.5173,
      "velocity": 104,
      "chip": "ym2612"
    },
    {
      "channel": 3,
      "note": 52,
      "start": 111.5542,
      "duration": 0.1146,
      "velocity": 100,
      "chip": "ym2612"
    },
    {
      "channel": 4,
      "note": 79,
      "start": 111.5568,
      "duration": 0.0008,
      "velocity": 124,
      "chip": "ym2612"
    },
    {
      "channel": 4,
      "note": 103,
      "start": 111.5598,
      "duration": 0.0889,
      "velocity": 127,
      "chip": "ym2612"
    },
    {
      "channel": 4,
      "note": 79,
      "start": 111.6922,
      "duration": 0.0766,
      "velocity": 124,
      "chip": "ym2612"
    },
    {
      "channel": 3,
      "note": 52,
      "start": 111.8319,
      "duration": 0.0968,
      "velocity": 100,
      "chip": "ym2612"
    },
    {
      "channel": 4,
      "note": 79,
      "start": 111.8347,
      "duration": 0.0008,
      "velocity": 124,
      "chip": "ym2612"
    },
    {
      "channel": 4,
      "note": 103,
      "start": 111.8377,
      "duration": 0.071,
      "velocity": 127,
      "chip": "ym2612"
    },
    {
      "channel": 3,
      "note": 53,
      "start": 111.9517,
      "duration": 0.1171,
      "velocity": 100,
      "chip": "ym2612"
    },
    {
      "channel": 1,
      "note": 74,
      "start": 112.0917,
      "duration": 1.0569,
      "velocity": 104,
      "chip": "ym2612"
    },
    {
      "channel": 3,
      "note": 52,
      "start": 112.0945,
      "duration": 0.1142,
      "velocity": 100,
      "chip": "ym2612"
    },
    {
      "channel": 4,
      "note": 103,
      "start": 112.0976,
      "duration": 0.0912,
      "velocity": 127,
      "chip": "ym2612"
    },
    {
      "channel": 3,
      "note": 52,
      "start": 112.3722,
      "duration": 0.0965,
      "velocity": 100,
      "chip": "ym2612"
    },
    {
      "channel": 4,
      "note": 79,
      "start": 112.3752,
      "duration": 0.0007,
      "velocity": 124,
      "chip": "ym2612"
    },
    {
      "channel": 4,
      "note": 103,
      "start": 112.3781,
      "duration": 0.0706,
      "velocity": 127,
      "chip": "ym2612"
    },
    {
      "channel": 3,
      "note": 53,
      "start": 112.4917,
      "duration": 0.117,
      "velocity": 100,
      "chip": "ym2612"
    },
    {
      "channel": 4,
      "note": 79,
      "start": 112.4949,
      "duration": 0.0939,
      "velocity": 124,
      "chip": "ym2612"
    },
    {
      "channel": 3,
      "note": 52,
      "start": 112.6319,
      "duration": 0.1168,
      "velocity": 100,
      "chip": "ym2612"
    },
    {
      "channel": 4,
      "note": 79,
      "start": 112.6347,
      "duration": 0.0008,
      "velocity": 124,
      "chip": "ym2612"
    },
    {
      "channel": 4,
      "note": 103,
      "start": 112.6377,
      "duration": 0.091,
      "velocity": 127,
      "chip": "ym2612"
    },
    {
      "channel": 3,
      "note": 52,
      "start": 112.9119,
      "duration": 0.0969,
      "velocity": 100,
      "chip": "ym2612"
    },
    {
      "channel": 4,
      "note": 103,
      "start": 112.9149,
      "duration": 0.0738,
      "velocity": 127,
      "chip": "ym2612"
    },
    {
      "channel": 3,
      "note": 53,
      "start": 113.0317,
      "duration": 0.117,
      "velocity": 100,
      "chip": "ym2612"
    },
    {
      "channel": 1,
      "note": 72,
      "start": 113.1715,
      "duration": 1.0571,
      "velocity": 104,
      "chip": "ym2612"
    },
    {
      "channel": 3,
      "note": 52,
      "start": 113.1743,
      "duration": 0.1144,
      "velocity": 100,
      "chip": "ym2612"
    },
    {
      "channel": 4,
      "note": 103,
      "start": 113.1774,
      "duration": 0.0714,
      "velocity": 127,
      "chip": "ym2612"
    },
    {
      "channel": 3,
      "note": 52,
      "start": 113.4319,
      "duration": 0.1169,
      "velocity": 100,
      "chip": "ym2612"
    },
    {
      "channel": 4,
      "note": 79,
      "start": 113.4347,
      "duration": 0.0008,
      "velocity": 124,
      "chip": "ym2612"
    },
    {
      "channel": 4,
      "note": 103,
      "start": 113.4377,
      "duration": 0.091,
      "velocity": 127,
      "chip": "ym2612"
    },
    {
      "channel": 3,
      "note": 53,
      "start": 113.5718,
      "duration": 0.1169,
      "velocity": 100,
      "chip": "ym2612"
    },
    {
      "channel": 4,
      "note": 79,
      "start": 113.5746,
      "duration": 0.0942,
      "velocity": 124,
      "chip": "ym2612"
    },
    {
      "channel": 3,
      "note": 52,
      "start": 113.7119,
      "duration": 0.1168,
      "velocity": 100,
      "chip": "ym2612"
    },
    {
      "channel": 4,
      "note": 79,
      "start": 113.7148,
      "duration": 0.0008,
      "velocity": 124,
      "chip": "ym2612"
    },
    {
      "channel": 4,
      "note": 103,
      "start": 113.7178,
      "duration": 0.0709,
      "velocity": 127,
      "chip": "ym2612"
    },
    {
      "channel": 3,
      "note": 52,
      "start": 113.9722,
      "duration": 0.1165,
      "velocity": 100,
      "chip": "ym2612"
    },
    {
      "channel": 4,
      "note": 103,
      "start": 113.9753,
      "duration": 0.0934,
      "velocity": 127,
      "chip": "ym2612"
    },
    {
      "channel": 3,
      "note": 53,
      "start": 114.1117,
      "duration": 0.117,
      "velocity": 100,
      "chip": "ym2612"
    },
    {
      "channel": 1,
      "note": 71,
      "start": 114.2525,
      "duration": 4.2761,
      "velocity": 104,
      "chip": "ym2612"
    },
    {
      "channel": 3,
      "note": 52,
      "start": 114.2553,
      "duration": 0.1135,
      "velocity": 100,
      "chip": "ym2612"
    },
    {
      "channel": 4,
      "note": 103,
      "start": 114.2583,
      "duration": 0.0705,
      "velocity": 127,
      "chip": "ym2612"
    },
    {
      "channel": 3,
      "note": 52,
      "start": 114.5119,
      "duration": 0.1168,
      "velocity": 100,
      "chip": "ym2612"
    },
    {
      "channel": 4,
      "note": 103,
      "start": 114.5153,
      "duration": 0.0935,
      "velocity": 127,
      "chip": "ym2612"
    },
    {
      "channel": 3,
      "note": 53,
      "start": 114.6518,
      "duration": 0.1169,
      "velocity": 100,
      "chip": "ym2612"
    },
    {
      "channel": 3,
      "note": 52,
      "start": 114.792,
      "duration": 0.0966,
      "velocity": 100,
      "chip": "ym2612"
    },
    {
      "channel": 4,
      "note": 103,
      "start": 114.795,
      "duration": 0.0738,
      "velocity": 127,
      "chip": "ym2612"
    },
    {
      "channel": 3,
      "note": 52,
      "start": 115.0519,
      "duration": 0.1169,
      "velocity": 100,
      "chip": "ym2612"
    },
    {
      "channel": 4,
      "note": 103,
      "start": 115.0549,
      "duration": 0.0939,
      "velocity": 127,
      "chip": "ym2612"
    },
    {
      "channel": 3,
      "note": 53,
      "start": 115.1917,
      "duration": 0.1169,
      "velocity": 100,
      "chip": "ym2612"
    },
    {
      "channel": 3,
      "note": 52,
      "start": 115.3319,
      "duration": 0.0969,
      "velocity": 100,
      "chip": "ym2612"
    },
    {
      "channel": 4,
      "note": 103,
      "start": 115.3349,
      "duration": 0.0738,
      "velocity": 127,
      "chip": "ym2612"
    },
    {
      "channel": 3,
      "note": 52,
      "start": 115.5919,
      "duration": 0.1169,
      "velocity": 100,
      "chip": "ym2612"
    },
    {
      "channel": 4,
      "note": 103,
      "start": 115.5949,
      "duration": 0.0938,
      "velocity": 127,
      "chip": "ym2612"
    },
    {
      "channel": 3,
      "note": 53,
      "start": 115.7321,
      "duration": 0.1165,
      "velocity": 100,
      "chip": "ym2612"
    },
    {
      "channel": 3,
      "note": 52,
      "start": 115.872,
      "duration": 0.0966,
      "velocity": 100,
      "chip": "ym2612"
    },
    {
      "channel": 4,
      "note": 103,
      "start": 115.875,
      "duration": 0.0738,
      "velocity": 127,
      "chip": "ym2612"
    },
    {
      "channel": 3,
      "note": 52,
      "start": 116.1319,
      "duration": 0.1169,
      "velocity": 100,
      "chip": "ym2612"
    },
    {
      "channel": 4,
      "note": 103,
      "start": 116.1349,
      "duration": 0.0939,
      "velocity": 127,
      "chip": "ym2612"
    },
    {
      "channel": 3,
      "note": 53,
      "start": 116.2717,
      "duration": 0.1169,
      "velocity": 100,
      "chip": "ym2612"
    },
    {
      "channel": 3,
      "note": 52,
      "start": 116.4119,
      "duration": 0.0968,
      "velocity": 100,
      "chip": "ym2612"
    },
    {
      "channel": 4,
      "note": 103,
      "start": 116.4149,
      "duration": 0.0738,
      "velocity": 127,
      "chip": "ym2612"
    },
    {
      "channel": 3,
      "note": 52,
      "start": 116.6719,
      "duration": 0.1169,
      "velocity": 100,
      "chip": "ym2612"
    },
    {
      "channel": 4,
      "note": 103,
      "start": 116.6749,
      "duration": 0.0938,
      "velocity": 127,
      "chip": "ym2612"
    },
    {
      "channel": 3,
      "note": 53,
      "start": 116.8117,
      "duration": 0.1169,
      "velocity": 100,
      "chip": "ym2612"
    },
    {
      "channel": 3,
      "note": 52,
      "start": 116.9519,
      "duration": 0.0968,
      "velocity": 100,
      "chip": "ym2612"
    },
    {
      "channel": 4,
      "note": 103,
      "start": 116.9549,
      "duration": 0.0738,
      "velocity": 127,
      "chip": "ym2612"
    },
    {
      "channel": 3,
      "note": 52,
      "start": 117.2119,
      "duration": 0.1169,
      "velocity": 100,
      "chip": "ym2612"
    },
    {
      "channel": 4,
      "note": 103,
      "start": 117.2149,
      "duration": 0.0938,
      "velocity": 127,
      "chip": "ym2612"
    },
    {
      "channel": 3,
      "note": 53,
      "start": 117.3518,
      "duration": 0.0969,
      "velocity": 100,
      "chip": "ym2612"
    },
    {
      "channel": 3,
      "note": 52,
      "start": 117.4923,
      "duration": 0.0964,
      "velocity": 100,
      "chip": "ym2612"
    },
    {
      "channel": 4,
      "note": 103,
      "start": 117.4953,
      "duration": 0.0734,
      "velocity": 127,
      "chip": "ym2612"
    },
    {
      "channel": 3,
      "note": 52,
      "start": 117.7519,
      "duration": 0.1169,
      "velocity": 100,
      "chip": "ym2612"
    },
    {
      "channel": 4,
      "note": 103,
      "start": 117.7549,
      "duration": 0.0938,
      "velocity": 127,
      "chip": "ym2612"
    },
    {
      "channel": 3,
      "note": 53,
      "start": 117.8917,
      "duration": 0.0969,
      "velocity": 100,
      "chip": "ym2612"
    },
    {
      "channel": 3,
      "note": 52,
      "start": 118.0319,
      "duration": 0.0968,
      "velocity": 100,
      "chip": "ym2612"
    },
    {
      "channel": 4,
      "note": 103,
      "start": 118.0349,
      "duration": 0.0738,
      "velocity": 127,
      "chip": "ym2612"
    },
    {
      "channel": 3,
      "note": 52,
      "start": 118.2919,
      "duration": 0.1169,
      "velocity": 100,
      "chip": "ym2612"
    },
    {
      "channel": 4,
      "note": 103,
      "start": 118.2949,
      "duration": 0.0739,
      "velocity": 127,
      "chip": "ym2612"
    },
    {
      "channel": 3,
      "note": 53,
      "start": 118.4317,
      "duration": 0.0971,
      "velocity": 100,
      "chip": "ym2612"
    },
    {
      "channel": 1,
      "note": 69,
      "start": 118.5521,
      "duration": 1.5966,
      "velocity": 104,
      "chip": "ym2612"
    },
    {
      "channel": 0,
      "note": 84,
      "start": 118.555,
      "duration": 4.2936,
      "velocity": 104,
      "chip": "ym2612"
    },
    {
      "channel": 5,
      "note": 74,
      "start": 118.5578,
      "duration": 8.3311,
      "velocity": 104,
      "chip": "ym2612"
    },
    {
      "channel": 2,
      "note": 77,
      "start": 118.5606,
      "duration": 8.3284,
      "velocity": 104,
      "chip": "ym2612"
    },
    {
      "channel": 3,
      "note": 50,
      "start": 118.5632,
      "duration": 0.1054,
      "velocity": 100,
      "chip": "ym2612"
    },
    {
      "channel": 4,
      "note": 103,
      "start": 118.5663,
      "duration": 0.0825,
      "velocity": 127,
      "chip": "ym2612"
    },
    {
      "channel": 3,
      "note": 50,
      "start": 118.8319,
      "duration": 0.1169,
      "velocity": 100,
      "chip": "ym2612"
    },
    {
      "channel": 4,
      "note": 103,
      "start": 118.8353,
      "duration": 0.0735,
      "velocity": 127,
      "chip": "ym2612"
    },
    {
      "channel": 3,
      "note": 53,
      "start": 118.9718,
      "duration": 0.0969,
      "velocity": 100,
      "chip": "ym2612"
    },
    {
      "channel": 3,
      "note": 50,
      "start": 119.0922,
      "duration": 0.1164,
      "velocity": 100,
      "chip": "ym2612"
    },
    {
      "channel": 4,
      "note": 103,
      "start": 119.0953,
      "duration": 0.0935,
      "velocity": 127,
      "chip": "ym2612"
    },
    {
      "channel": 3,
      "note": 50,
      "start": 119.3719,
      "duration": 0.1168,
      "velocity": 100,
      "chip": "ym2612"
    },
    {
      "channel": 4,
      "note": 103,
      "start": 119.3749,
      "duration": 0.0739,
      "velocity": 127,
      "chip": "ym2612"
    },
    {
      "channel": 3,
      "note": 53,
      "start": 119.5117,
      "duration": 0.0969,
      "velocity": 100,
      "chip": "ym2612"
    },
    {
      "channel": 3,
      "note": 50,
      "start": 119.6319,
      "duration": 0.1168,
      "velocity": 100,
      "chip": "ym2612"
    },
    {
      "channel": 4,
      "note": 103,
      "start": 119.6349,
      "duration": 0.0938,
      "velocity": 127,
      "chip": "ym2612"
    },
    {
      "channel": 4,
      "note": 79,
      "start": 119.7723,
      "duration": 0.0964,
      "velocity": 124,
      "chip": "ym2612"
    },
    {
      "channel": 3,
      "note": 50,
      "start": 119.9119,
      "duration": 0.0968,
      "velocity": 100,
      "chip": "ym2612"
    },
    {
      "channel": 4,
      "note": 79,
      "start": 119.9147,
      "duration": 0.0008,
      "velocity": 124,
      "chip": "ym2612"
    },
    {
      "channel": 4,
      "note": 103,
      "start": 119.9177,
      "duration": 0.071,
      "velocity": 127,
      "chip": "ym2612"
    },
    {
      "channel": 3,
      "note": 53,
      "start": 120.0517,
      "duration": 0.0971,
      "velocity": 100,
      "chip": "ym2612"
    },
    {
      "channel": 1,
      "note": 64,
      "start": 120.1717,
      "duration": 0.5169,
      "velocity": 104,
      "chip": "ym2612"
    },
    {
      "channel": 3,
      "note": 50,
      "start": 120.1745,
      "duration": 0.1142,
      "velocity": 100,
      "chip": "ym2612"
    },
    {
      "channel": 4,
      "note": 103,
      "start": 120.1776,
      "duration": 0.0912,
      "velocity": 127,
      "chip": "ym2612"
    },
    {
      "channel": 3,
      "note": 50,
      "start": 120.4519,
      "duration": 0.0968,
      "velocity": 100,
      "chip": "ym2612"
    },
    {
      "channel": 4,
      "note": 79,
      "start": 120.4548,
      "duration": 0.0008,
      "velocity": 124,
      "chip": "ym2612"
    },
    {
      "channel": 4,
      "note": 103,
      "start": 120.4578,
      "duration": 0.071,
      "velocity": 127,
      "chip": "ym2612"
    },
    {
      "channel": 3,
      "note": 53,
      "start": 120.5918,
      "duration": 0.0969,
      "velocity": 100,
      "chip": "ym2612"
    },
    {
      "channel": 4,
      "note": 79,
      "start": 120.5946,
      "duration": 0.0742,
      "velocity": 124,
      "chip": "ym2612"
    },
    {
      "channel": 1,
      "note": 72,
      "start": 120.7124,
      "duration": 2.1363,
      "velocity": 104,
      "chip": "ym2612"
    },
    {
      "channel": 3,
      "note": 50,
      "start": 120.7152,
      "duration": 0.1135,
      "velocity": 100,
      "chip": "ym2612"
    },
    {
      "channel": 4,
      "note": 79,
      "start": 120.7182,
      "duration": 0.0008,
      "velocity": 124,
      "chip": "ym2612"
    },
    {
      "channel": 4,
      "note": 103,
      "start": 120.7212,
      "duration": 0.0875,
      "velocity": 127,
      "chip": "ym2612"
    },
    {
      "channel": 4,
      "note": 79,
      "start": 120.8521,
      "duration": 0.0766,
      "velocity": 124,
      "chip": "ym2612"
    },
    {
      "channel": 3,
      "note": 50,
      "start": 120.9922,
      "duration": 0.0965,
      "velocity": 100,
      "chip": "ym2612"
    },
    {
      "channel": 4,
      "note": 79,
      "start": 120.9949,
      "duration": 0.0008,
      "velocity": 124,
      "chip": "ym2612"
    },
    {
      "channel": 4,
      "note": 103,
      "start": 120.9979,
      "duration": 0.0709,
      "velocity": 127,
      "chip": "ym2612"
    },
    {
      "channel": 3,
      "note": 53,
      "start": 121.1118,
      "duration": 0.1168,
      "velocity": 100,
      "chip": "ym2612"
    },
    {
      "channel": 4,
      "note": 79,
      "start": 121.1146,
      "duration": 0.0942,
      "velocity": 124,
      "chip": "ym2612"
    },
    {
      "channel": 3,
      "note": 50,
      "start": 121.252,
      "duration": 0.1167,
      "velocity": 100,
      "chip": "ym2612"
    },
    {
      "channel": 4,
      "note": 79,
      "start": 121.2547,
      "duration": 0.0008,
      "velocity": 124,
      "chip": "ym2612"
    },
    {
      "channel": 4,
      "note": 103,
      "start": 121.2577,
      "duration": 0.091,
      "velocity": 127,
      "chip": "ym2612"
    },
    {
      "channel": 3,
      "note": 50,
      "start": 121.5319,
      "duration": 0.0969,
      "velocity": 100,
      "chip": "ym2612"
    },
    {
      "channel": 4,
      "note": 103,
      "start": 121.5349,
      "duration": 0.0738,
      "velocity": 127,
      "chip": "ym2612"
    },
    {
      "channel": 3,
      "note": 53,
      "start": 121.6517,
      "duration": 0.1169,
      "velocity": 100,
      "chip": "ym2612"
    },
    {
      "channel": 3,
      "note": 50,
      "start": 121.7919,
      "duration": 0.1168,
      "velocity": 100,
      "chip": "ym2612"
    },
    {
      "channel": 4,
      "note": 79,
      "start": 121.7948,
      "duration": 0.0008,
      "velocity": 124,
      "chip": "ym2612"
    },
    {
      "channel": 4,
      "note": 103,
      "start": 121.7978,
      "duration": 0.091,
      "velocity": 127,
      "chip": "ym2612"
    },
    {
      "channel": 4,
      "note": 79,
      "start": 121.9322,
      "duration": 0.0766,
      "velocity": 124,
      "chip": "ym2612"
    },
    {
      "channel": 3,
      "note": 50,
      "start": 122.072,
      "duration": 0.0967,
      "velocity": 100,
      "chip": "ym2612"
    },
    {
      "channel": 4,
      "note": 79,
      "start": 122.0746,
      "duration": 0.0007,
      "velocity": 124,
      "chip": "ym2612"
    },
    {
      "channel": 4,
      "note": 103,
      "start": 122.0776,
      "duration": 0.0712,
      "velocity": 127,
      "chip": "ym2612"
    },
    {
      "channel": 3,
      "note": 53,
      "start": 122.1918,
      "duration": 0.1169,
      "velocity": 100,
      "chip": "ym2612"
    },
    {
      "channel": 4,
      "note": 79,
      "start": 122.1946,
      "duration": 0.0942,
      "velocity": 124,
      "chip": "ym2612"
    },
    {
      "channel": 3,
      "note": 50,
      "start": 122.3319,
      "duration": 0.1168,
      "velocity": 100,
      "chip": "ym2612"
    },
    {
      "channel": 4,
      "note": 79,
      "start": 122.3347,
      "duration": 0.0008,
      "velocity": 124,
      "chip": "ym2612"
    },
    {
      "channel": 4,
      "note": 103,
      "start": 122.3377,
      "duration": 0.091,
      "velocity": 127,
      "chip": "ym2612"
    },
    {
      "channel": 3,
      "note": 50,
      "start": 122.6122,
      "duration": 0.0965,
      "velocity": 100,
      "chip": "ym2612"
    },
    {
      "channel": 4,
      "note": 103,
      "start": 122.6153,
      "duration": 0.0734,
      "velocity": 127,
      "chip": "ym2612"
    },
    {
      "channel": 3,
      "note": 53,
      "start": 122.7317,
      "duration": 0.1171,
      "velocity": 100,
      "chip": "ym2612"
    },
    {
      "channel": 1,
      "note": 71,
      "start": 122.8721,
      "duration": 4.2964,
      "velocity": 104,
      "chip": "ym2612"
    },
    {
      "channel": 0,
      "note": 83,
      "start": 122.8752,
      "duration": 4.0134,
      "velocity": 104,
      "chip": "ym2612"
    },
    {
      "channel": 3,
      "note": 50,
      "start": 122.8778,
      "duration": 0.1109,
      "velocity": 100,
      "chip": "ym2612"
    },
    {
      "channel": 4,
      "note": 103,
      "start": 122.8809,
      "duration": 0.0878,
      "velocity": 127,
      "chip": "ym2612"
    },
    {
      "channel": 3,
      "note": 50,
      "start": 123.1519,
      "duration": 0.0969,
      "velocity": 100,
      "chip": "ym2612"
    },
    {
      "channel": 4,
      "note": 79,
      "start": 123.1548,
      "duration": 0.0011,
      "velocity": 124,
      "chip": "ym2612"
    },
    {
      "channel": 4,
      "note": 103,
      "start": 123.1581,
      "duration": 0.0707,
      "velocity": 127,
      "chip": "ym2612"
    },
    {
      "channel": 3,
      "note": 53,
      "start": 123.2718,
      "duration": 0.1169,
      "velocity": 100,
      "chip": "ym2612"
    },
    {
      "channel": 4,
      "note": 79,
      "start": 123.2753,
      "duration": 0.0935,
      "velocity": 124,
      "chip": "ym2612"
    },
    {
      "channel": 3,
      "note": 50,
      "start": 123.412,
      "duration": 0.1167,
      "velocity": 100,
      "chip": "ym2612"
    },
    {
      "channel": 4,
      "note": 103,
      "start": 123.4151,
      "duration": 0.0737,
      "velocity": 127,
      "chip": "ym2612"
    },
    {
      "channel": 3,
      "note": 50,
      "start": 123.6719,
      "duration": 0.1169,
      "velocity": 100,
      "chip": "ym2612"
    },
    {
      "channel": 4,
      "note": 103,
      "start": 123.6749,
      "duration": 0.0938,
      "velocity": 127,
      "chip": "ym2612"
    },
    {
      "channel": 3,
      "note": 53,
      "start": 123.8117,
      "duration": 0.1169,
      "velocity": 100,
      "chip": "ym2612"
    },
    {
      "channel": 3,
      "note": 50,
      "start": 123.9519,
      "duration": 0.1168,
      "velocity": 100,
      "chip": "ym2612"
    },
    {
      "channel": 4,
      "note": 103,
      "start": 123.9549,
      "duration": 0.0738,
      "velocity": 127,
      "chip": "ym2612"
    },
    {
      "channel": 3,
      "note": 50,
      "start": 124.2119,
      "duration": 0.1169,
      "velocity": 100,
      "chip": "ym2612"
    },
    {
      "channel": 4,
      "note": 103,
      "start": 124.2149,
      "duration": 0.0938,
      "velocity": 127,
      "chip": "ym2612"
    },
    {
      "channel": 3,
      "note": 53,
      "start": 124.3522,
      "duration": 0.1165,
      "velocity": 100,
      "chip": "ym2612"
    },
    {
      "channel": 3,
      "note": 50,
      "start": 124.4919,
      "duration": 0.1168,
      "velocity": 100,
      "chip": "ym2612"
    },
    {
      "channel": 4,
      "note": 103,
      "start": 124.4949,
      "duration": 0.0738,
      "velocity": 127,
      "chip": "ym2612"
    },
    {
      "channel": 3,
      "note": 50,
      "start": 124.7519,
      "duration": 0.1169,
      "velocity": 100,
      "chip": "ym2612"
    },
    {
      "channel": 4,
      "note": 103,
      "start": 124.7549,
      "duration": 0.0938,
      "velocity": 127,
      "chip": "ym2612"
    },
    {
      "channel": 3,
      "note": 53,
      "start": 124.8917,
      "duration": 0.1169,
      "velocity": 100,
      "chip": "ym2612"
    },
    {
      "channel": 3,
      "note": 50,
      "start": 125.0319,
      "duration": 0.0969,
      "velocity": 100,
      "chip": "ym2612"
    },
    {
      "channel": 4,
      "note": 103,
      "start": 125.0349,
      "duration": 0.0738,
      "velocity": 127,
      "chip": "ym2612"
    },
    {
      "channel": 3,
      "note": 50,
      "start": 125.2919,
      "duration": 0.1169,
      "velocity": 100,
      "chip": "ym2612"
    },
    {
      "channel": 4,
      "note": 103,
      "start": 125.2949,
      "duration": 0.0938,
      "velocity": 127,
      "chip": "ym2612"
    },
    {
      "channel": 3,
      "note": 53,
      "start": 125.4317,
      "duration": 0.1169,
      "velocity": 100,
      "chip": "ym2612"
    },
    {
      "channel": 3,
      "note": 50,
      "start": 125.5719,
      "duration": 0.0969,
      "velocity": 100,
      "chip": "ym2612"
    },
    {
      "channel": 4,
      "note": 103,
      "start": 125.5749,
      "duration": 0.0738,
      "velocity": 127,
      "chip": "ym2612"
    },
    {
      "channel": 3,
      "note": 50,
      "start": 125.8319,
      "duration": 0.1169,
      "velocity": 100,
      "chip": "ym2612"
    },
    {
      "channel": 4,
      "note": 103,
      "start": 125.8349,
      "duration": 0.0938,
      "velocity": 127,
      "chip": "ym2612"
    },
    {
      "channel": 3,
      "note": 53,
      "start": 125.9717,
      "duration": 0.1169,
      "velocity": 100,
      "chip": "ym2612"
    },
    {
      "channel": 3,
      "note": 50,
      "start": 126.1122,
      "duration": 0.0965,
      "velocity": 100,
      "chip": "ym2612"
    },
    {
      "channel": 4,
      "note": 103,
      "start": 126.1153,
      "duration": 0.0734,
      "velocity": 127,
      "chip": "ym2612"
    },
    {
      "channel": 3,
      "note": 50,
      "start": 126.3719,
      "duration": 0.1169,
      "velocity": 100,
      "chip": "ym2612"
    },
    {
      "channel": 4,
      "note": 103,
      "start": 126.3749,
      "duration": 0.0938,
      "velocity": 127,
      "chip": "ym2612"
    },
    {
      "channel": 3,
      "note": 53,
      "start": 126.5117,
      "duration": 0.1169,
      "velocity": 100,
      "chip": "ym2612"
    },
    {
      "channel": 3,
      "note": 50,
      "start": 126.6519,
      "duration": 0.0969,
      "velocity": 100,
      "chip": "ym2612"
    },
    {
      "channel": 4,
      "note": 103,
      "start": 126.6549,
      "duration": 0.0738,
      "velocity": 127,
      "chip": "ym2612"
    },
    {
      "channel": 3,
      "note": 50,
      "start": 126.9119,
      "duration": 0.1168,
      "velocity": 100,
      "chip": "ym2612"
    },
    {
      "channel": 4,
      "note": 103,
      "start": 126.9149,
      "duration": 0.0938,
      "velocity": 127,
      "chip": "ym2612"
    },
    {
      "channel": 3,
      "note": 53,
      "start": 127.0518,
      "duration": 0.1169,
      "velocity": 100,
      "chip": "ym2612"
    },
    {
      "channel": 1,
      "note": 64,
      "start": 127.1921,
      "duration": 2.1166,
      "velocity": 104,
      "chip": "ym2612"
    },
    {
      "channel": 0,
      "note": 83,
      "start": 127.1949,
      "duration": 8.5936,
      "velocity": 104,
      "chip": "ym2612"
    },
    {
      "channel": 5,
      "note": 77,
      "start": 127.1974,
      "duration": 8.5916,
      "velocity": 104,
      "chip": "ym2612"
    },
    {
      "channel": 2,
      "note": 76,
      "start": 127.2002,
      "duration": 8.5889,
      "velocity": 104,
      "chip": "ym2612"
    },
    {
      "channel": 3,
      "note": 52,
      "start": 127.2029,
      "duration": 0.0858,
      "velocity": 100,
      "chip": "ym2612"
    },
    {
      "channel": 4,
      "note": 103,
      "start": 127.2059,
      "duration": 0.0629,
      "velocity": 127,
      "chip": "ym2612"
    },
    {
      "channel": 3,
      "note": 52,
      "start": 127.4519,
      "duration": 0.1168,
      "velocity": 100,
      "chip": "ym2612"
    },
    {
      "channel": 4,
      "note": 103,
      "start": 127.4553,
      "duration": 0.0934,
      "velocity": 127,
      "chip": "ym2612"
    },
    {
      "channel": 3,
      "note": 53,
      "start": 127.5917,
      "duration": 0.097,
      "velocity": 100,
      "chip": "ym2612"
    },
    {
      "channel": 3,
      "note": 52,
      "start": 127.7322,
      "duration": 0.0965,
      "velocity": 100,
      "chip": "ym2612"
    },
    {
      "channel": 4,
      "note": 103,
      "start": 127.7353,
      "duration": 0.0734,
      "velocity": 127,
      "chip": "ym2612"
    },
    {
      "channel": 3,
      "note": 52,
      "start": 127.9919,
      "duration": 0.1169,
      "velocity": 100,
      "chip": "ym2612"
    },
    {
      "channel": 4,
      "note": 103,
      "start": 127.9949,
      "duration": 0.0938,
      "velocity": 127,
      "chip": "ym2612"
    },
    {
      "channel": 3,
      "note": 53,
      "start": 128.1318,
      "duration": 0.0969,
      "velocity": 100,
      "chip": "ym2612"
    },
    {
      "channel": 3,
      "note": 52,
      "start": 128.2719,
      "duration": 0.0967,
      "velocity": 100,
      "chip": "ym2612"
    },
    {
      "channel": 4,
      "note": 103,
      "start": 128.275,
      "duration": 0.0738,
      "velocity": 127,
      "chip": "ym2612"
    },
    {
      "channel": 3,
      "note": 52,
      "start": 128.5319,
      "duration": 0.1169,
      "velocity": 100,
      "chip": "ym2612"
    },
    {
      "channel": 4,
      "note": 103,
      "start": 128.5349,
      "duration": 0.0739,
      "velocity": 127,
      "chip": "ym2612"
    },
    {
      "channel": 3,
      "note": 53,
      "start": 128.6717,
      "duration": 0.0969,
      "velocity": 100,
      "chip": "ym2612"
    },
    {
      "channel": 3,
      "note": 52,
      "start": 128.7919,
      "duration": 0.1168,
      "velocity": 100,
      "chip": "ym2612"
    },
    {
      "channel": 4,
      "note": 103,
      "start": 128.7949,
      "duration": 0.0938,
      "velocity": 127,
      "chip": "ym2612"
    },
    {
      "channel": 3,
      "note": 52,
      "start": 129.0719,
      "duration": 0.1168,
      "velocity": 100,
      "chip": "ym2612"
    },
    {
      "channel": 4,
      "note": 103,
      "start": 129.075,
      "duration": 0.0738,
      "velocity": 127,
      "chip": "ym2612"
    },
    {
      "channel": 3,
      "note": 53,
      "start": 129.2118,
      "duration": 0.0969,
      "velocity": 100,
      "chip": "ym2612"
    },
    {
      "channel": 1,
      "note": 77,
      "start": 129.3315,
      "duration": 2.1372,
      "velocity": 104,
      "chip": "ym2612"
    },
    {
      "channel": 3,
      "note": 52,
      "start": 129.3342,
      "duration": 0.1145,
      "velocity": 100,
      "chip": "ym2612"
    },
    {
      "channel": 4,
      "note": 103,
      "start": 129.3373,
      "duration": 0.0915,
      "velocity": 127,
      "chip": "ym2612"
    },
    {
      "channel": 3,
      "note": 52,
      "start": 129.6122,
      "duration": 0.1165,
      "velocity": 100,
      "chip": "ym2612"
    },
    {
      "channel": 4,
      "note": 103,
      "start": 129.6153,
      "duration": 0.0735,
      "velocity": 127,
      "chip": "ym2612"
    },
    {
      "channel": 3,
      "note": 53,
      "start": 129.7518,
      "duration": 0.0969,
      "velocity": 100,
      "chip": "ym2612"
    },
    {
      "channel": 3,
      "note": 52,
      "start": 129.8719,
      "duration": 0.1169,
      "velocity": 100,
      "chip": "ym2612"
    },
    {
      "channel": 4,
      "note": 103,
      "start": 129.8749,
      "duration": 0.0939,
      "velocity": 127,
      "chip": "ym2612"
    },
    {
      "channel": 3,
      "note": 52,
      "start": 130.1519,
      "duration": 0.0967,
      "velocity": 100,
      "chip": "ym2612"
    },
    {
      "channel": 4,
      "note": 103,
      "start": 130.155,
      "duration": 0.0738,
      "velocity": 127,
      "chip": "ym2612"
    },
    {
      "channel": 3,
      "note": 53,
      "start": 130.2918,
      "duration": 0.0969,
      "velocity": 100,
      "chip": "ym2612"
    },
    {
      "channel": 3,
      "note": 52,
      "start": 130.4119,
      "duration": 0.1169,
      "velocity": 100,
      "chip": "ym2612"
    },
    {
      "channel": 4,
      "note": 103,
      "start": 130.4149,
      "duration": 0.0939,
      "velocity": 127,
      "chip": "ym2612"
    },
    {
      "channel": 3,
      "note": 52,
      "start": 130.6919,
      "duration": 0.0967,
      "velocity": 100,
      "chip": "ym2612"
    },
    {
      "channel": 4,
      "note": 103,
      "start": 130.695,
      "duration": 0.0738,
      "velocity": 127,
      "chip": "ym2612"
    },
    {
      "channel": 3,
      "note": 53,
      "start": 130.8318,
      "duration": 0.0969,
      "velocity": 100,
      "chip": "ym2612"
    },
    {
      "channel": 3,
      "note": 52,
      "start": 130.9519,
      "duration": 0.1169,
      "velocity": 100,
      "chip": "ym2612"
    },
    {
      "channel": 4,
      "note": 103,
      "start": 130.9549,
      "duration": 0.0939,
      "velocity": 127,
      "chip": "ym2612"
    },
    {
      "channel": 3,
      "note": 52,
      "start": 131.2322,
      "duration": 0.0965,
      "velocity": 100,
      "chip": "ym2612"
    },
    {
      "channel": 4,
      "note": 103,
      "start": 131.2353,
      "duration": 0.0734,
      "velocity": 127,
      "chip": "ym2612"
    },
    {
      "channel": 3,
      "note": 53,
      "start": 131.3517,
      "duration": 0.1171,
      "velocity": 100,
      "chip": "ym2612"
    },
    {
      "channel": 1,
      "note": 74,
      "start": 131.4924,
      "duration": 4.2963,
      "velocity": 104,
      "chip": "ym2612"
    },
    {
      "channel": 3,
      "note": 52,
      "start": 131.4951,
      "duration": 0.1135,
      "velocity": 100,
      "chip": "ym2612"
    },
    {
      "channel": 4,
      "note": 103,
      "start": 131.4982,
      "duration": 0.0906,
      "velocity": 127,
      "chip": "ym2612"
    },
    {
      "channel": 3,
      "note": 52,
      "start": 131.772,
      "duration": 0.0967,
      "velocity": 100,
      "chip": "ym2612"
    },
    {
      "channel": 4,
      "note": 103,
      "start": 131.7754,
      "duration": 0.0734,
      "velocity": 127,
      "chip": "ym2612"
    },
    {
      "channel": 3,
      "note": 53,
      "start": 131.8918,
      "duration": 0.1169,
      "velocity": 100,
      "chip": "ym2612"
    },
    {
      "channel": 3,
      "note": 52,
      "start": 132.0319,
      "duration": 0.1169,
      "velocity": 100,
      "chip": "ym2612"
    },
    {
      "channel": 4,
      "note": 103,
      "start": 132.0349,
      "duration": 0.0939,
      "velocity": 127,
      "chip": "ym2612"
    },
    {
      "channel": 3,
      "note": 52,
      "start": 132.3119,
      "duration": 0.0969,
      "velocity": 100,
      "chip": "ym2612"
    },
    {
      "channel": 4,
      "note": 103,
      "start": 132.3149,
      "duration": 0.0738,
      "velocity": 127,
      "chip": "ym2612"
    },
    {
      "channel": 3,
      "note": 53,
      "start": 132.4317,
      "duration": 0.1169,
      "velocity": 100,
      "chip": "ym2612"
    },
    {
      "channel": 3,
      "note": 52,
      "start": 132.5719,
      "duration": 0.1169,
      "velocity": 100,
      "chip": "ym2612"
    },
    {
      "channel": 4,
      "note": 103,
      "start": 132.5749,
      "duration": 0.0938,
      "velocity": 127,
      "chip": "ym2612"
    },
    {
      "channel": 3,
      "note": 52,
      "start": 132.8519,
      "duration": 0.0967,
      "velocity": 100,
      "chip": "ym2612"
    },
    {
      "channel": 4,
      "note": 103,
      "start": 132.855,
      "duration": 0.0738,
      "velocity": 127,
      "chip": "ym2612"
    },
    {
      "channel": 3,
      "note": 53,
      "start": 132.9722,
      "duration": 0.1165,
      "velocity": 100,
      "chip": "ym2612"
    },
    {
      "channel": 3,
      "note": 52,
      "start": 133.1119,
      "duration": 0.1169,
      "velocity": 100,
      "chip": "ym2612"
    },
    {
      "channel": 4,
      "note": 103,
      "start": 133.1149,
      "duration": 0.0938,
      "velocity": 127,
      "chip": "ym2612"
    },
    {
      "channel": 3,
      "note": 52,
      "start": 133.3919,
      "duration": 0.0969,
      "velocity": 100,
      "chip": "ym2612"
    },
    {
      "channel": 4,
      "note": 103,
      "start": 133.3949,
      "duration": 0.0738,
      "velocity": 127,
      "chip": "ym2612"
    },
    {
      "channel": 3,
      "note": 53,
      "start": 133.5117,
      "duration": 0.117,
      "velocity": 100,
      "chip": "ym2612"
    },
    {
      "channel": 3,
      "note": 52,
      "start": 133.6519,
      "duration": 0.1168,
      "velocity": 100,
      "chip": "ym2612"
    },
    {
      "channel": 4,
      "note": 103,
      "start": 133.6549,
      "duration": 0.0739,
      "velocity": 127,
      "chip": "ym2612"
    },
    {
      "channel": 3,
      "note": 52,
      "start": 133.9119,
      "duration": 0.1169,
      "velocity": 100,
      "chip": "ym2612"
    },
    {
      "channel": 4,
      "note": 103,
      "start": 133.9149,
      "duration": 0.0939,
      "velocity": 127,
      "chip": "ym2612"
    },
    {
      "channel": 3,
      "note": 53,
      "start": 134.0517,
      "duration": 0.1169,
      "velocity": 100,
      "chip": "ym2612"
    },
    {
      "channel": 3,
      "note": 52,
      "start": 134.1919,
      "duration": 0.1169,
      "velocity": 100,
      "chip": "ym2612"
    },
    {
      "channel": 4,
      "note": 103,
      "start": 134.1949,
      "duration": 0.0738,
      "velocity": 127,
      "chip": "ym2612"
    },
    {
      "channel": 3,
      "note": 52,
      "start": 134.4519,
      "duration": 0.1169,
      "velocity": 100,
      "chip": "ym2612"
    },
    {
      "channel": 4,
      "note": 103,
      "start": 134.4549,
      "duration": 0.0938,
      "velocity": 127,
      "chip": "ym2612"
    },
    {
      "channel": 3,
      "note": 53,
      "start": 134.5917,
      "duration": 0.117,
      "velocity": 100,
      "chip": "ym2612"
    },
    {
      "channel": 3,
      "note": 52,
      "start": 134.7323,
      "duration": 0.1164,
      "velocity": 100,
      "chip": "ym2612"
    },
    {
      "channel": 4,
      "note": 103,
      "start": 134.7353,
      "duration": 0.0734,
      "velocity": 127,
      "chip": "ym2612"
    },
    {
      "channel": 3,
      "note": 52,
      "start": 134.9919,
      "duration": 0.1169,
      "velocity": 100,
      "chip": "ym2612"
    },
    {
      "channel": 4,
      "note": 103,
      "start": 134.9949,
      "duration": 0.0938,
      "velocity": 127,
      "chip": "ym2612"
    },
    {
      "channel": 3,
      "note": 53,
      "start": 135.1318,
      "duration": 0.1169,
      "velocity": 100,
      "chip": "ym2612"
    },
    {
      "channel": 3,
      "note": 52,
      "start": 135.2719,
      "duration": 0.0967,
      "velocity": 100,
      "chip": "ym2612"
    },
    {
      "channel": 4,
      "note": 103,
      "start": 135.275,
      "duration": 0.0738,
      "velocity": 127,
      "chip": "ym2612"
    },
    {
      "channel": 3,
      "note": 52,
      "start": 135.5319,
      "duration": 0.1169,
      "velocity": 100,
      "chip": "ym2612"
    },
    {
      "channel": 4,
      "note": 103,
      "start": 135.5349,
      "duration": 0.0939,
      "velocity": 127,
      "chip": "ym2612"
    },
    {
      "channel": 3,
      "note": 53,
      "start": 135.6717,
      "duration": 0.1171,
      "velocity": 100,
      "chip": "ym2612"
    },
    {
      "channel": 1,
      "note": 76,
      "start": 135.8117,
      "duration": 4.277,
      "velocity": 104,
      "chip": "ym2612"
    },
    {
      "channel": 0,
      "note": 83,
      "start": 135.8146,
      "duration": 4.274,
      "velocity": 104,
      "chip": "ym2612"
    },
    {
      "channel": 5,
      "note": 74,
      "start": 135.8171,
      "duration": 4.2719,
      "velocity": 104,
      "chip": "ym2612"
    },
    {
      "channel": 2,
      "note": 76,
      "start": 135.8203,
      "duration": 4.2689,
      "velocity": 104,
      "chip": "ym2612"
    },
    {
      "channel": 3,
      "note": 50,
      "start": 135.8229,
      "duration": 0.0857,
      "velocity": 100,
      "chip": "ym2612"
    },
    {
      "channel": 4,
      "note": 103,
      "start": 135.826,
      "duration": 0.0628,
      "velocity": 127,
      "chip": "ym2612"
    },
    {
      "channel": 3,
      "note": 50,
      "start": 136.0719,
      "duration": 0.1168,
      "velocity": 100,
      "chip": "ym2612"
    },
    {
      "channel": 4,
      "note": 103,
      "start": 136.0753,
      "duration": 0.0935,
      "velocity": 127,
      "chip": "ym2612"
    },
    {
      "channel": 3,
      "note": 52,
      "start": 136.2118,
      "duration": 0.1168,
      "velocity": 100,
      "chip": "ym2612"
    },
    {
      "channel": 3,
      "note": 50,
      "start": 136.3523,
      "duration": 0.0964,
      "velocity": 100,
      "chip": "ym2612"
    },
    {
      "channel": 4,
      "note": 103,
      "start": 136.3554,
      "duration": 0.0734,
      "velocity": 127,
      "chip": "ym2612"
    },
    {
      "channel": 3,
      "note": 50,
      "start": 136.6119,
      "duration": 0.1169,
      "velocity": 100,
      "chip": "ym2612"
    },
    {
      "channel": 4,
      "note": 103,
      "start": 136.6149,
      "duration": 0.0939,
      "velocity": 127,
      "chip": "ym2612"
    },
    {
      "channel": 3,
      "note": 52,
      "start": 136.7517,
      "duration": 0.1169,
      "velocity": 100,
      "chip": "ym2612"
    },
    {
      "channel": 3,
      "note": 50,
      "start": 136.8919,
      "duration": 0.0968,
      "velocity": 100,
      "chip": "ym2612"
    },
    {
      "channel": 4,
      "note": 103,
      "start": 136.8949,
      "duration": 0.0738,
      "velocity": 127,
      "chip": "ym2612"
    },
    {
      "channel": 3,
      "note": 50,
      "start": 137.1519,
      "duration": 0.1169,
      "velocity": 100,
      "chip": "ym2612"
    },
    {
      "channel": 4,
      "note": 103,
      "start": 137.1549,
      "duration": 0.0938,
      "velocity": 127,
      "chip": "ym2612"
    },
    {
      "channel": 3,
      "note": 52,
      "start": 137.2917,
      "duration": 0.1169,
      "velocity": 100,
      "chip": "ym2612"
    },
    {
      "channel": 3,
      "note": 50,
      "start": 137.4319,
      "duration": 0.0969,
      "velocity": 100,
      "chip": "ym2612"
    },
    {
      "channel": 4,
      "note": 103,
      "start": 137.4349,
      "duration": 0.0738,
      "velocity": 127,
      "chip": "ym2612"
    },
    {
      "channel": 3,
      "note": 50,
      "start": 137.6919,
      "duration": 0.1167,
      "velocity": 100,
      "chip": "ym2612"
    },
    {
      "channel": 4,
      "note": 103,
      "start": 137.695,
      "duration": 0.0938,
      "velocity": 127,
      "chip": "ym2612"
    },
    {
      "channel": 3,
      "note": 52,
      "start": 137.8318,
      "duration": 0.0969,
      "velocity": 100,
      "chip": "ym2612"
    },
    {
      "channel": 3,
      "note": 50,
      "start": 137.9719,
      "duration": 0.0968,
      "velocity": 100,
      "chip": "ym2612"
    },
    {
      "channel": 4,
      "note": 103,
      "start": 137.9749,
      "duration": 0.0739,
      "velocity": 127,
      "chip": "ym2612"
    },
    {
      "channel": 3,
      "note": 50,
      "start": 138.2323,
      "duration": 0.1164,
      "velocity": 100,
      "chip": "ym2612"
    },
    {
      "channel": 4,
      "note": 103,
      "start": 138.2353,
      "duration": 0.0934,
      "velocity": 127,
      "chip": "ym2612"
    },
    {
      "channel": 3,
      "note": 52,
      "start": 138.3717,
      "duration": 0.097,
      "velocity": 100,
      "chip": "ym2612"
    },
    {
      "channel": 3,
      "note": 50,
      "start": 138.5119,
      "duration": 0.0968,
      "velocity": 100,
      "chip": "ym2612"
    },
    {
      "channel": 4,
      "note": 103,
      "start": 138.5149,
      "duration": 0.0739,
      "velocity": 127,
      "chip": "ym2612"
    },
    {
      "channel": 3,
      "note": 50,
      "start": 138.7719,
      "duration": 0.1169,
      "velocity": 100,
      "chip": "ym2612"
    },
    {
      "channel": 4,
      "note": 103,
      "start": 138.7749,
      "duration": 0.0739,
      "velocity": 127,
      "chip": "ym2612"
    },
    {
      "channel": 3,
      "note": 52,
      "start": 138.9118,
      "duration": 0.0969,
      "velocity": 100,
      "chip": "ym2612"
    },
    {
      "channel": 3,
      "note": 50,
      "start": 139.0319,
      "duration": 0.1167,
      "velocity": 100,
      "chip": "ym2612"
    },
    {
      "channel": 4,
      "note": 103,
      "start": 139.035,
      "duration": 0.0938,
      "velocity": 127,
      "chip": "ym2612"
    },
    {
      "channel": 3,
      "note": 50,
      "start": 139.3119,
      "duration": 0.1168,
      "velocity": 100,
      "chip": "ym2612"
    },
    {
      "channel": 4,
      "note": 103,
      "start": 139.3149,
      "duration": 0.0739,
      "velocity": 127,
      "chip": "ym2612"
    },
    {
      "channel": 3,
      "note": 52,
      "start": 139.4517,
      "duration": 0.0969,
      "velocity": 100,
      "chip": "ym2612"
    },
    {
      "channel": 3,
      "note": 50,
      "start": 139.5719,
      "duration": 0.1168,
      "velocity": 100,
      "chip": "ym2612"
    },
    {
      "channel": 4,
      "note": 103,
      "start": 139.5749,
      "duration": 0.0938,
      "velocity": 127,
      "chip": "ym2612"
    },
    {
      "channel": 3,
      "note": 50,
      "start": 139.8522,
      "duration": 0.1164,
      "velocity": 100,
      "chip": "ym2612"
    },
    {
      "channel": 4,
      "note": 103,
      "start": 139.8553,
      "duration": 0.0734,
      "velocity": 127,
      "chip": "ym2612"
    },
    {
      "channel": 3,
      "note": 52,
      "start": 139.9917,
      "duration": 0.0971,
      "velocity": 100,
      "chip": "ym2612"
    },
    {
      "channel": 4,
      "note": 45,
      "start": 140.1123,
      "duration": 6.4564,
      "velocity": 117,
      "chip": "ym2612"
    },
    {
      "channel": 3,
      "note": 45,
      "start": 140.1152,
      "duration": 0.1135,
      "velocity": 100,
      "chip": "ym2612"
    },
    {
      "channel": 0,
      "note": 103,
      "start": 140.1184,
      "duration": 0.0902,
      "velocity": 127,
      "chip": "ym2612"
    },
    {
      "channel": 1,
      "note": 69,
      "start": 140.1217,
      "duration": 0.0871,
      "velocity": 107,
      "chip": "ym2612"
    },
    {
      "channel": 1,
      "note": 64,
      "start": 140.2524,
      "duration": 0.0961,
      "velocity": 107,
      "chip": "ym2612"
    },
    {
      "channel": 3,
      "note": 45,
      "start": 140.392,
      "duration": 0.0967,
      "velocity": 100,
      "chip": "ym2612"
    },
    {
      "channel": 5,
      "note": 45,
      "start": 140.3949,
      "duration": 0.0939,
      "velocity": 98,
      "chip": "ym2612"
    },
    {
      "channel": 0,
      "note": 103,
      "start": 140.3981,
      "duration": 0.0705,
      "velocity": 127,
      "chip": "ym2612"
    },
    {
      "channel": 1,
      "note": 57,
      "start": 140.4008,
      "duration": 0.0679,
      "velocity": 107,
      "chip": "ym2612"
    },
    {
      "channel": 3,
      "note": 48,
      "start": 140.5318,
      "duration": 0.0969,
      "velocity": 100,
      "chip": "ym2612"
    },
    {
      "channel": 1,
      "note": 69,
      "start": 140.5349,
      "duration": 0.0737,
      "velocity": 107,
      "chip": "ym2612"
    },
    {
      "channel": 3,
      "note": 45,
      "start": 140.6519,
      "duration": 0.1168,
      "velocity": 100,
      "chip": "ym2612"
    },
    {
      "channel": 0,
      "note": 103,
      "start": 140.6548,
      "duration": 0.0937,
      "velocity": 127,
      "chip": "ym2612"
    },
    {
      "channel": 1,
      "note": 64,
      "start": 140.6576,
      "duration": 0.0912,
      "velocity": 107,
      "chip": "ym2612"
    },
    {
      "channel": 1,
      "note": 57,
      "start": 140.7924,
      "duration": 0.0962,
      "velocity": 107,
      "chip": "ym2612"
    },
    {
      "channel": 3,
      "note": 45,
      "start": 140.932,
      "duration": 0.0967,
      "velocity": 100,
      "chip": "ym2612"
    },
    {
      "channel": 5,
      "note": 45,
      "start": 140.9346,
      "duration": 0.0944,
      "velocity": 98,
      "chip": "ym2612"
    },
    {
      "channel": 0,
      "note": 103,
      "start": 140.9374,
      "duration": 0.0712,
      "velocity": 127,
      "chip": "ym2612"
    },
    {
      "channel": 1,
      "note": 69,
      "start": 140.94,
      "duration": 0.0687,
      "velocity": 107,
      "chip": "ym2612"
    },
    {
      "channel": 3,
      "note": 48,
      "start": 141.0717,
      "duration": 0.097,
      "velocity": 100,
      "chip": "ym2612"
    },
    {
      "channel": 1,
      "note": 64,
      "start": 141.0752,
      "duration": 0.0734,
      "velocity": 107,
      "chip": "ym2612"
    },
    {
      "channel": 3,
      "note": 45,
      "start": 141.1919,
      "duration": 0.1168,
      "velocity": 100,
      "chip": "ym2612"
    },
    {
      "channel": 0,
      "note": 103,
      "start": 141.1948,
      "duration": 0.0937,
      "velocity": 127,
      "chip": "ym2612"
    },
    {
      "channel": 1,
      "note": 57,
      "start": 141.1976,
      "duration": 0.0912,
      "velocity": 107,
      "chip": "ym2612"
    },
    {
      "channel": 1,
      "note": 64,
      "start": 141.3324,
      "duration": 0.0762,
      "velocity": 107,
      "chip": "ym2612"
    },
    {
      "channel": 3,
      "note": 45,
      "start": 141.472,
      "duration": 0.0966,
      "velocity": 100,
      "chip": "ym2612"
    },
    {
      "channel": 5,
      "note": 45,
      "start": 141.4746,
      "duration": 0.0942,
      "velocity": 98,
      "chip": "ym2612"
    },
    {
      "channel": 0,
      "note": 103,
      "start": 141.4774,
      "duration": 0.0712,
      "velocity": 127,
      "chip": "ym2612"
    },
    {
      "channel": 1,
      "note": 69,
      "start": 141.48,
      "duration": 0.0687,
      "velocity": 107,
      "chip": "ym2612"
    },
    {
      "channel": 3,
      "note": 48,
      "start": 141.5921,
      "duration": 0.1165,
      "velocity": 100,
      "chip": "ym2612"
    },
    {
      "channel": 1,
      "note": 64,
      "start": 141.5952,
      "duration": 0.0934,
      "velocity": 107,
      "chip": "ym2612"
    },
    {
      "channel": 3,
      "note": 45,
      "start": 141.7319,
      "duration": 0.1168,
      "velocity": 100,
      "chip": "ym2612"
    },
    {
      "channel": 0,
      "note": 103,
      "start": 141.7348,
      "duration": 0.0937,
      "velocity": 127,
      "chip": "ym2612"
    },
    {
      "channel": 1,
      "note": 57,
      "start": 141.7376,
      "duration": 0.0912,
      "velocity": 107,
      "chip": "ym2612"
    },
    {
      "channel": 1,
      "note": 64,
      "start": 141.8724,
      "duration": 0.0762,
      "velocity": 107,
      "chip": "ym2612"
    },
    {
      "channel": 3,
      "note": 45,
      "start": 142.012,
      "duration": 0.0967,
      "velocity": 100,
      "chip": "ym2612"
    },
    {
      "channel": 5,
      "note": 45,
      "start": 142.0146,
      "duration": 0.0944,
      "velocity": 98,
      "chip": "ym2612"
    },
    {
      "channel": 0,
      "note": 103,
      "start": 142.0174,
      "duration": 0.0712,
      "velocity": 127,
      "chip": "ym2612"
    },
    {
      "channel": 1,
      "note": 69,
      "start": 142.02,
      "duration": 0.0687,
      "velocity": 107,
      "chip": "ym2612"
    },
    {
      "channel": 3,
      "note": 48,
      "start": 142.1317,
      "duration": 0.1169,
      "velocity": 100,
      "chip": "ym2612"
    },
    {
      "channel": 1,
      "note": 64,
      "start": 142.1348,
      "duration": 0.0938,
      "velocity": 107,
      "chip": "ym2612"
    },
    {
      "channel": 3,
      "note": 45,
      "start": 142.272,
      "duration": 0.1167,
      "velocity": 100,
      "chip": "ym2612"
    },
    {
      "channel": 0,
      "note": 103,
      "start": 142.2749,
      "duration": 0.0937,
      "velocity": 127,
      "chip": "ym2612"
    },
    {
      "channel": 1,
      "note": 57,
      "start": 142.2776,
      "duration": 0.0911,
      "velocity": 107,
      "chip": "ym2612"
    },
    {
      "channel": 1,
      "note": 69,
      "start": 142.4124,
      "duration": 0.0762,
      "velocity": 107,
      "chip": "ym2612"
    },
    {
      "channel": 3,
      "note": 45,
      "start": 142.552,
      "duration": 0.0967,
      "velocity": 100,
      "chip": "ym2612"
    },
    {
      "channel": 5,
      "note": 45,
      "start": 142.5546,
      "duration": 0.0944,
      "velocity": 98,
      "chip": "ym2612"
    },
    {
      "channel": 0,
      "note": 103,
      "start": 142.5574,
      "duration": 0.0712,
      "velocity": 127,
      "chip": "ym2612"
    },
    {
      "channel": 1,
      "note": 64,
      "start": 142.56,
      "duration": 0.0687,
      "velocity": 107,
      "chip": "ym2612"
    },
    {
      "channel": 3,
      "note": 48,
      "start": 142.6717,
      "duration": 0.1169,
      "velocity": 100,
      "chip": "ym2612"
    },
    {
      "channel": 1,
      "note": 57,
      "start": 142.6748,
      "duration": 0.0938,
      "velocity": 107,
      "chip": "ym2612"
    },
    {
      "channel": 3,
      "note": 45,
      "start": 142.812,
      "duration": 0.1166,
      "velocity": 100,
      "chip": "ym2612"
    },
    {
      "channel": 0,
      "note": 103,
      "start": 142.8149,
      "duration": 0.0937,
      "velocity": 127,
      "chip": "ym2612"
    },
    {
      "channel": 1,
      "note": 69,
      "start": 142.8176,
      "duration": 0.0911,
      "velocity": 107,
      "chip": "ym2612"
    },
    {
      "channel": 1,
      "note": 64,
      "start": 142.9525,
      "duration": 0.0761,
      "velocity": 107,
      "chip": "ym2612"
    },
    {
      "channel": 3,
      "note": 45,
      "start": 143.0919,
      "duration": 0.0968,
      "velocity": 100,
      "chip": "ym2612"
    },
    {
      "channel": 5,
      "note": 45,
      "start": 143.0945,
      "duration": 0.0944,
      "velocity": 98,
      "chip": "ym2612"
    },
    {
      "channel": 0,
      "note": 103,
      "start": 143.0973,
      "duration": 0.0712,
      "velocity": 127,
      "chip": "ym2612"
    },
    {
      "channel": 1,
      "note": 69,
      "start": 143.1,
      "duration": 0.0687,
      "velocity": 107,
      "chip": "ym2612"
    },
    {
      "channel": 3,
      "note": 48,
      "start": 143.2117,
      "duration": 0.117,
      "velocity": 100,
      "chip": "ym2612"
    },
    {
      "channel": 1,
      "note": 64,
      "start": 143.2151,
      "duration": 0.0936,
      "velocity": 107,
      "chip": "ym2612"
    },
    {
      "channel": 3,
      "note": 45,
      "start": 143.3522,
      "duration": 0.1165,
      "velocity": 100,
      "chip": "ym2612"
    },
    {
      "channel": 0,
      "note": 103,
      "start": 143.3551,
      "duration": 0.0934,
      "velocity": 127,
      "chip": "ym2612"
    },
    {
      "channel": 1,
      "note": 57,
      "start": 143.3579,
      "duration": 0.0909,
      "velocity": 107,
      "chip": "ym2612"
    },
    {
      "channel": 1,
      "note": 69,
      "start": 143.4924,
      "duration": 0.0762,
      "velocity": 107,
      "chip": "ym2612"
    },
    {
      "channel": 3,
      "note": 45,
      "start": 143.632,
      "duration": 0.0966,
      "velocity": 100,
      "chip": "ym2612"
    },
    {
      "channel": 5,
      "note": 45,
      "start": 143.6346,
      "duration": 0.0942,
      "velocity": 98,
      "chip": "ym2612"
    },
    {
      "channel": 0,
      "note": 103,
      "start": 143.6374,
      "duration": 0.0712,
      "velocity": 127,
      "chip": "ym2612"
    },
    {
      "channel": 1,
      "note": 64,
      "start": 143.64,
      "duration": 0.0687,
      "velocity": 107,
      "chip": "ym2612"
    },
    {
      "channel": 3,
      "note": 48,
      "start": 143.7517,
      "duration": 0.1169,
      "velocity": 100,
      "chip": "ym2612"
    },
    {
      "channel": 1,
      "note": 57,
      "start": 143.7548,
      "duration": 0.0939,
      "velocity": 107,
      "chip": "ym2612"
    },
    {
      "channel": 3,
      "note": 45,
      "start": 143.8919,
      "duration": 0.1168,
      "velocity": 100,
      "chip": "ym2612"
    },
    {
      "channel": 0,
      "note": 103,
      "start": 143.8947,
      "duration": 0.0739,
      "velocity": 127,
      "chip": "ym2612"
    },
    {
      "channel": 1,
      "note": 69,
      "start": 143.8975,
      "duration": 0.0713,
      "velocity": 107,
      "chip": "ym2612"
    },
    {
      "channel": 1,
      "note": 64,
      "start": 144.0324,
      "duration": 0.0763,
      "velocity": 107,
      "chip": "ym2612"
    },
    {
      "channel": 3,
      "note": 45,
      "start": 144.1519,
      "duration": 0.1168,
      "velocity": 100,
      "chip": "ym2612"
    },
    {
      "channel": 5,
      "note": 45,
      "start": 144.1549,
      "duration": 0.114,
      "velocity": 98,
      "chip": "ym2612"
    },
    {
      "channel": 0,
      "note": 103,
      "start": 144.1577,
      "duration": 0.0909,
      "velocity": 127,
      "chip": "ym2612"
    },
    {
      "channel": 1,
      "note": 69,
      "start": 144.1604,
      "duration": 0.0884,
      "velocity": 107,
      "chip": "ym2612"
    },
    {
      "channel": 3,
      "note": 48,
      "start": 144.2918,
      "duration": 0.1169,
      "velocity": 100,
      "chip": "ym2612"
    },
    {
      "channel": 1,
      "note": 64,
      "start": 144.2949,
      "duration": 0.0938,
      "velocity": 107,
      "chip": "ym2612"
    },
    {
      "channel": 3,
      "note": 45,
      "start": 144.4319,
      "duration": 0.1168,
      "velocity": 100,
      "chip": "ym2612"
    },
    {
      "channel": 0,
      "note": 103,
      "start": 144.4347,
      "duration": 0.0739,
      "velocity": 127,
      "chip": "ym2612"
    },
    {
      "channel": 1,
      "note": 57,
      "start": 144.4375,
      "duration": 0.0713,
      "velocity": 107,
      "chip": "ym2612"
    },
    {
      "channel": 1,
      "note": 64,
      "start": 144.5724,
      "duration": 0.0763,
      "velocity": 107,
      "chip": "ym2612"
    },
    {
      "channel": 3,
      "note": 45,
      "start": 144.6919,
      "duration": 0.1168,
      "velocity": 100,
      "chip": "ym2612"
    },
    {
      "channel": 5,
      "note": 45,
      "start": 144.6946,
      "duration": 0.1143,
      "velocity": 98,
      "chip": "ym2612"
    },
    {
      "channel": 0,
      "note": 103,
      "start": 144.6977,
      "duration": 0.0909,
      "velocity": 127,
      "chip": "ym2612"
    },
    {
      "channel": 1,
      "note": 69,
      "start": 144.7004,
      "duration": 0.0884,
      "velocity": 107,
      "chip": "ym2612"
    },
    {
      "channel": 3,
      "note": 48,
      "start": 144.8318,
      "duration": 0.1169,
      "velocity": 100,
      "chip": "ym2612"
    },
    {
      "channel": 1,
      "note": 64,
      "start": 144.8349,
      "duration": 0.0938,
      "velocity": 107,
      "chip": "ym2612"
    },
    {
      "channel": 3,
      "note": 45,
      "start": 144.9722,
      "duration": 0.1165,
      "velocity": 100,
      "chip": "ym2612"
    },
    {
      "channel": 0,
      "note": 103,
      "start": 144.9751,
      "duration": 0.0734,
      "velocity": 127,
      "chip": "ym2612"
    },
    {
      "channel": 1,
      "note": 57,
      "start": 144.9779,
      "duration": 0.0709,
      "velocity": 107,
      "chip": "ym2612"
    },
    {
      "channel": 1,
      "note": 64,
      "start": 145.1124,
      "duration": 0.0762,
      "velocity": 107,
      "chip": "ym2612"
    },
    {
      "channel": 3,
      "note": 45,
      "start": 145.2319,
      "duration": 0.1168,
      "velocity": 100,
      "chip": "ym2612"
    },
    {
      "channel": 5,
      "note": 45,
      "start": 145.2344,
      "duration": 0.1144,
      "velocity": 98,
      "chip": "ym2612"
    },
    {
      "channel": 0,
      "note": 103,
      "start": 145.2372,
      "duration": 0.0914,
      "velocity": 127,
      "chip": "ym2612"
    },
    {
      "channel": 1,
      "note": 69,
      "start": 145.2399,
      "duration": 0.0888,
      "velocity": 107,
      "chip": "ym2612"
    },
    {
      "channel": 3,
      "note": 48,
      "start": 145.3718,
      "duration": 0.1169,
      "velocity": 100,
      "chip": "ym2612"
    },
    {
      "channel": 1,
      "note": 64,
      "start": 145.3753,
      "duration": 0.0934,
      "velocity": 107,
      "chip": "ym2612"
    },
    {
      "channel": 3,
      "note": 45,
      "start": 145.512,
      "duration": 0.0966,
      "velocity": 100,
      "chip": "ym2612"
    },
    {
      "channel": 0,
      "note": 103,
      "start": 145.5149,
      "duration": 0.0737,
      "velocity": 127,
      "chip": "ym2612"
    },
    {
      "channel": 1,
      "note": 57,
      "start": 145.5176,
      "duration": 0.0711,
      "velocity": 107,
      "chip": "ym2612"
    },
    {
      "channel": 1,
      "note": 69,
      "start": 145.6524,
      "duration": 0.0762,
      "velocity": 107,
      "chip": "ym2612"
    },
    {
      "channel": 3,
      "note": 45,
      "start": 145.7719,
      "duration": 0.1168,
      "velocity": 100,
      "chip": "ym2612"
    },
    {
      "channel": 5,
      "note": 45,
      "start": 145.7745,
      "duration": 0.1144,
      "velocity": 98,
      "chip": "ym2612"
    },
    {
      "channel": 0,
      "note": 103,
      "start": 145.7773,
      "duration": 0.0912,
      "velocity": 127,
      "chip": "ym2612"
    },
    {
      "channel": 1,
      "note": 64,
      "start": 145.78,
      "duration": 0.0887,
      "velocity": 107,
      "chip": "ym2612"
    },
    {
      "channel": 3,
      "note": 48,
      "start": 145.9117,
      "duration": 0.1171,
      "velocity": 100,
      "chip": "ym2612"
    },
    {
      "channel": 1,
      "note": 57,
      "start": 145.9147,
      "duration": 0.0939,
      "velocity": 107,
      "chip": "ym2612"
    },
    {
      "channel": 3,
      "note": 45,
      "start": 146.0519,
      "duration": 0.0968,
      "velocity": 100,
      "chip": "ym2612"
    },
    {
      "channel": 0,
      "note": 103,
      "start": 146.0548,
      "duration": 0.0737,
      "velocity": 127,
      "chip": "ym2612"
    },
    {
      "channel": 1,
      "note": 69,
      "start": 146.0576,
      "duration": 0.0712,
      "velocity": 107,
      "chip": "ym2612"
    },
    {
      "channel": 1,
      "note": 64,
      "start": 146.1924,
      "duration": 0.0762,
      "velocity": 107,
      "chip": "ym2612"
    },
    {
      "channel": 3,
      "note": 45,
      "start": 146.312,
      "duration": 0.1167,
      "velocity": 100,
      "chip": "ym2612"
    },
    {
      "channel": 5,
      "note": 45,
      "start": 146.3146,
      "duration": 0.1144,
      "velocity": 98,
      "chip": "ym2612"
    },
    {
      "channel": 0,
      "note": 103,
      "start": 146.3174,
      "duration": 0.0912,
      "velocity": 127,
      "chip": "ym2612"
    },
    {
      "channel": 1,
      "note": 69,
      "start": 146.32,
      "duration": 0.0887,
      "velocity": 107,
      "chip": "ym2612"
    },
    {
      "channel": 3,
      "note": 48,
      "start": 146.4517,
      "duration": 0.1169,
      "velocity": 100,
      "chip": "ym2612"
    },
    {
      "channel": 1,
      "note": 64,
      "start": 146.4548,
      "duration": 0.0738,
      "velocity": 107,
      "chip": "ym2612"
    },
    {
      "channel": 3,
      "note": 45,
      "start": 146.5924,
      "duration": 0.0163,
      "velocity": 100,
      "chip": "ym2612"
    },
    {
      "channel": 2,
      "note": 45,
      "start": 146.5953,
      "duration": 0.0935,
      "velocity": 100,
      "chip": "ym2612"
    },
    {
      "channel": 0,
      "note": 103,
      "start": 146.5982,
      "duration": 0.0705,
      "velocity": 127,
      "chip": "ym2612"
    },
    {
      "channel": 1,
      "note": 69,
      "start": 146.601,
      "duration": 0.0678,
      "velocity": 107,
      "chip": "ym2612"
    },
    {
      "channel": 1,
      "note": 64,
      "start": 146.7124,
      "duration": 0.0962,
      "velocity": 107,
      "chip": "ym2612"
    },
    {
      "channel": 3,
      "note": 45,
      "start": 146.8519,
      "duration": 0.1168,
      "velocity": 100,
      "chip": "ym2612"
    },
    {
      "channel": 5,
      "note": 45,
      "start": 146.8545,
      "duration": 0.1144,
      "velocity": 98,
      "chip": "ym2612"
    },
    {
      "channel": 0,
      "note": 103,
      "start": 146.8573,
      "duration": 0.0914,
      "velocity": 127,
      "chip": "ym2612"
    },
    {
      "channel": 1,
      "note": 57,
      "start": 146.86,
      "duration": 0.0888,
      "velocity": 107,
      "chip": "ym2612"
    },
    {
      "channel": 3,
      "note": 48,
      "start": 146.9918,
      "duration": 0.1168,
      "velocity": 100,
      "chip": "ym2612"
    },
    {
      "channel": 1,
      "note": 69,
      "start": 146.9949,
      "duration": 0.0737,
      "velocity": 107,
      "chip": "ym2612"
    },
    {
      "channel": 3,
      "note": 45,
      "start": 147.1319,
      "duration": 0.0968,
      "velocity": 100,
      "chip": "ym2612"
    },
    {
      "channel": 0,
      "note": 103,
      "start": 147.1348,
      "duration": 0.0737,
      "velocity": 127,
      "chip": "ym2612"
    },
    {
      "channel": 1,
      "note": 64,
      "start": 147.1376,
      "duration": 0.0711,
      "velocity": 107,
      "chip": "ym2612"
    },
    {
      "channel": 1,
      "note": 57,
      "start": 147.2524,
      "duration": 0.0962,
      "velocity": 107,
      "chip": "ym2612"
    },
    {
      "channel": 3,
      "note": 45,
      "start": 147.3919,
      "duration": 0.1168,
      "velocity": 100,
      "chip": "ym2612"
    },
    {
      "channel": 5,
      "note": 45,
      "start": 147.3945,
      "duration": 0.1144,
      "velocity": 98,
      "chip": "ym2612"
    },
    {
      "channel": 0,
      "note": 103,
      "start": 147.3973,
      "duration": 0.0913,
      "velocity": 127,
      "chip": "ym2612"
    },
    {
      "channel": 1,
      "note": 69,
      "start": 147.4,
      "duration": 0.0888,
      "velocity": 107,
      "chip": "ym2612"
    },
    {
      "channel": 3,
      "note": 48,
      "start": 147.5318,
      "duration": 0.1169,
      "velocity": 100,
      "chip": "ym2612"
    },
    {
      "channel": 1,
      "note": 64,
      "start": 147.5353,
      "duration": 0.0734,
      "velocity": 107,
      "chip": "ym2612"
    },
    {
      "channel": 3,
      "note": 45,
      "start": 147.6719,
      "duration": 0.0968,
      "velocity": 100,
      "chip": "ym2612"
    },
    {
      "channel": 0,
      "note": 103,
      "start": 147.6748,
      "duration": 0.0737,
      "velocity": 127,
      "chip": "ym2612"
    },
    {
      "channel": 1,
      "note": 57,
      "start": 147.6776,
      "duration": 0.0711,
      "velocity": 107,
      "chip": "ym2612"
    },
    {
      "channel": 1,
      "note": 64,
      "start": 147.7924,
      "duration": 0.0962,
      "velocity": 107,
      "chip": "ym2612"
    },
    {
      "channel": 3,
      "note": 45,
      "start": 147.9319,
      "duration": 0.1168,
      "velocity": 100,
      "chip": "ym2612"
    },
    {
      "channel": 5,
      "note": 45,
      "start": 147.9345,
      "duration": 0.1144,
      "velocity": 98,
      "chip": "ym2612"
    },
    {
      "channel": 0,
      "note": 103,
      "start": 147.9372,
      "duration": 0.0914,
      "velocity": 127,
      "chip": "ym2612"
    },
    {
      "channel": 1,
      "note": 69,
      "start": 147.94,
      "duration": 0.0888,
      "velocity": 107,
      "chip": "ym2612"
    },
    {
      "channel": 3,
      "note": 48,
      "start": 148.0722,
      "duration": 0.0965,
      "velocity": 100,
      "chip": "ym2612"
    },
    {
      "channel": 1,
      "note": 64,
      "start": 148.0753,
      "duration": 0.0734,
      "velocity": 107,
      "chip": "ym2612"
    },
    {
      "channel": 3,
      "note": 45,
      "start": 148.2119,
      "duration": 0.0968,
      "velocity": 100,
      "chip": "ym2612"
    },
    {
      "channel": 0,
      "note": 103,
      "start": 148.2148,
      "duration": 0.0737,
      "velocity": 127,
      "chip": "ym2612"
    },
    {
      "channel": 1,
      "note": 57,
      "start": 148.2176,
      "duration": 0.0711,
      "velocity": 107,
      "chip": "ym2612"
    },
    {
      "channel": 1,
      "note": 64,
      "start": 148.3324,
      "duration": 0.0962,
      "velocity": 107,
      "chip": "ym2612"
    },
    {
      "channel": 3,
      "note": 45,
      "start": 148.4719,
      "duration": 0.1168,
      "velocity": 100,
      "chip": "ym2612"
    },
    {
      "channel": 5,
      "note": 45,
      "start": 148.4745,
      "duration": 0.1144,
      "velocity": 98,
      "chip": "ym2612"
    },
    {
      "channel": 0,
      "note": 103,
      "start": 148.4772,
      "duration": 0.0915,
      "velocity": 127,
      "chip": "ym2612"
    },
    {
      "channel": 1,
      "note": 69,
      "start": 148.48,
      "duration": 0.0888,
      "velocity": 107,
      "chip": "ym2612"
    },
    {
      "channel": 3,
      "note": 48,
      "start": 148.6118,
      "duration": 0.0969,
      "velocity": 100,
      "chip": "ym2612"
    },
    {
      "channel": 1,
      "note": 64,
      "start": 148.6149,
      "duration": 0.0737,
      "velocity": 107,
      "chip": "ym2612"
    },
    {
      "channel": 3,
      "note": 45,
      "start": 148.7519,
      "duration": 0.0968,
      "velocity": 100,
      "chip": "ym2612"
    },
    {
      "channel": 0,
      "note": 103,
      "start": 148.7548,
      "duration": 0.0737,
      "velocity": 127,
      "chip": "ym2612"
    },
    {
      "channel": 1,
      "note": 57,
      "start": 148.7576,
      "duration": 0.0711,
      "velocity": 107,
      "chip": "ym2612"
    },
    {
      "channel": 1,
      "note": 69,
      "start": 148.8724,
      "duration": 0.0962,
      "velocity": 107,
      "chip": "ym2612"
    },
    {
      "channel": 3,
      "note": 45,
      "start": 149.0119,
      "duration": 0.1169,
      "velocity": 100,
      "chip": "ym2612"
    },
    {
      "channel": 5,
      "note": 45,
      "start": 149.0145,
      "duration": 0.1144,
      "velocity": 98,
      "chip": "ym2612"
    },
    {
      "channel": 0,
      "note": 103,
      "start": 149.0176,
      "duration": 0.0709,
      "velocity": 127,
      "chip": "ym2612"
    },
    {
      "channel": 1,
      "note": 64,
      "start": 149.0204,
      "duration": 0.0684,
      "velocity": 107,
      "chip": "ym2612"
    },
    {
      "channel": 3,
      "note": 48,
      "start": 149.1517,
      "duration": 0.097,
      "velocity": 100,
      "chip": "ym2612"
    },
    {
      "channel": 1,
      "note": 57,
      "start": 149.1548,
      "duration": 0.0738,
      "velocity": 107,
      "chip": "ym2612"
    },
    {
      "channel": 3,
      "note": 45,
      "start": 149.2719,
      "duration": 0.1168,
      "velocity": 100,
      "chip": "ym2612"
    },
    {
      "channel": 0,
      "note": 103,
      "start": 149.2748,
      "duration": 0.0939,
      "velocity": 127,
      "chip": "ym2612"
    },
    {
      "channel": 1,
      "note": 69,
      "start": 149.2776,
      "duration": 0.0912,
      "velocity": 107,
      "chip": "ym2612"
    },
    {
      "channel": 1,
      "note": 57,
      "start": 149.4124,
      "duration": 0.0962,
      "velocity": 107,
      "chip": "ym2612"
    },
    {
      "channel": 3,
      "note": 45,
      "start": 149.5519,
      "duration": 0.1168,
      "velocity": 100,
      "chip": "ym2612"
    },
    {
      "channel": 5,
      "note": 45,
      "start": 149.5545,
      "duration": 0.1144,
      "velocity": 98,
      "chip": "ym2612"
    },
    {
      "channel": 0,
      "note": 103,
      "start": 149.5573,
      "duration": 0.0713,
      "velocity": 127,
      "chip": "ym2612"
    },
    {
      "channel": 1,
      "note": 64,
      "start": 149.56,
      "duration": 0.0688,
      "velocity": 107,
      "chip": "ym2612"
    },
    {
      "channel": 3,
      "note": 48,
      "start": 149.6918,
      "duration": 0.0969,
      "velocity": 100,
      "chip": "ym2612"
    },
    {
      "channel": 1,
      "note": 69,
      "start": 149.6952,
      "duration": 0.0734,
      "velocity": 107,
      "chip": "ym2612"
    },
    {
      "channel": 3,
      "note": 45,
      "start": 149.8123,
      "duration": 0.1163,
      "velocity": 100,
      "chip": "ym2612"
    },
    {
      "channel": 0,
      "note": 103,
      "start": 149.8152,
      "duration": 0.0934,
      "velocity": 127,
      "chip": "ym2612"
    },
    {
      "channel": 1,
      "note": 57,
      "start": 149.8179,
      "duration": 0.0908,
      "velocity": 107,
      "chip": "ym2612"
    },
    {
      "channel": 1,
      "note": 64,
      "start": 149.9525,
      "duration": 0.0961,
      "velocity": 107,
      "chip": "ym2612"
    },
    {
      "channel": 3,
      "note": 45,
      "start": 150.0919,
      "duration": 0.1168,
      "velocity": 100,
      "chip": "ym2612"
    },
    {
      "channel": 5,
      "note": 45,
      "start": 150.0946,
      "duration": 0.1144,
      "velocity": 98,
      "chip": "ym2612"
    },
    {
      "channel": 0,
      "note": 103,
      "start": 150.0974,
      "duration": 0.0712,
      "velocity": 127,
      "chip": "ym2612"
    },
    {
      "channel": 1,
      "note": 69,
      "start": 150.1,
      "duration": 0.0687,
      "velocity": 107,
      "chip": "ym2612"
    },
    {
      "channel": 3,
      "note": 48,
      "start": 150.2317,
      "duration": 0.097,
      "velocity": 100,
      "chip": "ym2612"
    },
    {
      "channel": 1,
      "note": 69,
      "start": 150.2348,
      "duration": 0.0738,
      "velocity": 107,
      "chip": "ym2612"
    },
    {
      "channel": 3,
      "note": 45,
      "start": 150.3519,
      "duration": 0.1168,
      "velocity": 100,
      "chip": "ym2612"
    },
    {
      "channel": 0,
      "note": 103,
      "start": 150.3548,
      "duration": 0.0939,
      "velocity": 127,
      "chip": "ym2612"
    },
    {
      "channel": 1,
      "note": 64,
      "start": 150.3576,
      "duration": 0.0912,
      "velocity": 107,
      "chip": "ym2612"
    },
    {
      "channel": 1,
      "note": 57,
      "start": 150.4924,
      "duration": 0.0962,
      "velocity": 107,
      "chip": "ym2612"
    },
    {
      "channel": 3,
      "note": 45,
      "start": 150.6319,
      "duration": 0.0968,
      "velocity": 100,
      "chip": "ym2612"
    },
    {
      "channel": 5,
      "note": 45,
      "start": 150.6345,
      "duration": 0.0944,
      "velocity": 98,
      "chip": "ym2612"
    },
    {
      "channel": 0,
      "note": 103,
      "start": 150.6373,
      "duration": 0.0714,
      "velocity": 127,
      "chip": "ym2612"
    },
    {
      "channel": 1,
      "note": 57,
      "start": 150.64,
      "duration": 0.0688,
      "velocity": 107,
      "chip": "ym2612"
    },
    {
      "channel": 3,
      "note": 48,
      "start": 150.7718,
      "duration": 0.0969,
      "velocity": 100,
      "chip": "ym2612"
    },
    {
      "channel": 1,
      "note": 64,
      "start": 150.7749,
      "duration": 0.0737,
      "velocity": 107,
      "chip": "ym2612"
    },
    {
      "channel": 4,
      "note": 52,
      "start": 150.8929,
      "duration": 6.4559,
      "velocity": 117,
      "chip": "ym2612"
    },
    {
      "channel": 3,
      "note": 52,
      "start": 150.8958,
      "duration": 0.1129,
      "velocity": 100,
      "chip": "ym2612"
    },
    {
      "channel": 0,
      "note": 103,
      "start": 150.8987,
      "duration": 0.09,
      "velocity": 127,
      "chip": "ym2612"
    },
    {
      "channel": 1,
      "note": 69,
      "start": 150.9015,
      "duration": 0.0873,
      "velocity": 107,
      "chip": "ym2612"
    },
    {
      "channel": 1,
      "note": 64,
      "start": 151.0324,
      "duration": 0.0963,
      "velocity": 107,
      "chip": "ym2612"
    },
    {
      "channel": 3,
      "note": 52,
      "start": 151.1719,
      "duration": 0.0968,
      "velocity": 100,
      "chip": "ym2612"
    },
    {
      "channel": 5,
      "note": 52,
      "start": 151.1745,
      "duration": 0.0944,
      "velocity": 98,
      "chip": "ym2612"
    },
    {
      "channel": 0,
      "note": 103,
      "start": 151.1773,
      "duration": 0.0712,
      "velocity": 127,
      "chip": "ym2612"
    },
    {
      "channel": 1,
      "note": 69,
      "start": 151.18,
      "duration": 0.0687,
      "velocity": 107,
      "chip": "ym2612"
    },
    {
      "channel": 3,
      "note": 53,
      "start": 151.3118,
      "duration": 0.0969,
      "velocity": 100,
      "chip": "ym2612"
    },
    {
      "channel": 1,
      "note": 57,
      "start": 151.3149,
      "duration": 0.0737,
      "velocity": 107,
      "chip": "ym2612"
    },
    {
      "channel": 3,
      "note": 52,
      "start": 151.4323,
      "duration": 0.1164,
      "velocity": 100,
      "chip": "ym2612"
    },
    {
      "channel": 0,
      "note": 103,
      "start": 151.4352,
      "duration": 0.0934,
      "velocity": 127,
      "chip": "ym2612"
    },
    {
      "channel": 1,
      "note": 64,
      "start": 151.4379,
      "duration": 0.0909,
      "velocity": 107,
      "chip": "ym2612"
    },
    {
      "channel": 1,
      "note": 69,
      "start": 151.5724,
      "duration": 0.0763,
      "velocity": 107,
      "chip": "ym2612"
    },
    {
      "channel": 3,
      "note": 52,
      "start": 151.7119,
      "duration": 0.0968,
      "velocity": 100,
      "chip": "ym2612"
    },
    {
      "channel": 5,
      "note": 52,
      "start": 151.7146,
      "duration": 0.0944,
      "velocity": 98,
      "chip": "ym2612"
    },
    {
      "channel": 0,
      "note": 103,
      "start": 151.7173,
      "duration": 0.0713,
      "velocity": 127,
      "chip": "ym2612"
    },
    {
      "channel": 1,
      "note": 64,
      "start": 151.72,
      "duration": 0.0687,
      "velocity": 107,
      "chip": "ym2612"
    },
    {
      "channel": 3,
      "note": 53,
      "start": 151.8317,
      "duration": 0.117,
      "velocity": 100,
      "chip": "ym2612"
    },
    {
      "channel": 1,
      "note": 69,
      "start": 151.8352,
      "duration": 0.0934,
      "velocity": 107,
      "chip": "ym2612"
    },
    {
      "channel": 3,
      "note": 52,
      "start": 151.9719,
      "duration": 0.1168,
      "velocity": 100,
      "chip": "ym2612"
    },
    {
      "channel": 0,
      "note": 103,
      "start": 151.9748,
      "duration": 0.0937,
      "velocity": 127,
      "chip": "ym2612"
    },
    {
      "channel": 1,
      "note": 64,
      "start": 151.9776,
      "duration": 0.0912,
      "velocity": 107,
      "chip": "ym2612"
    },
    {
      "channel": 1,
      "note": 57,
      "start": 152.1124,
      "duration": 0.0762,
      "velocity": 107,
      "chip": "ym2612"
    },
    {
      "channel": 3,
      "note": 52,
      "start": 152.252,
      "duration": 0.0967,
      "velocity": 100,
      "chip": "ym2612"
    },
    {
      "channel": 5,
      "note": 52,
      "start": 152.2546,
      "duration": 0.0943,
      "velocity": 98,
      "chip": "ym2612"
    },
    {
      "channel": 0,
      "note": 103,
      "start": 152.2574,
      "duration": 0.0712,
      "velocity": 127,
      "chip": "ym2612"
    },
    {
      "channel": 1,
      "note": 69,
      "start": 152.26,
      "duration": 0.0687,
      "velocity": 107,
      "chip": "ym2612"
    },
    {
      "channel": 3,
      "note": 53,
      "start": 152.3718,
      "duration": 0.1169,
      "velocity": 100,
      "chip": "ym2612"
    },
    {
      "channel": 1,
      "note": 64,
      "start": 152.3749,
      "duration": 0.0938,
      "velocity": 107,
      "chip": "ym2612"
    },
    {
      "channel": 3,
      "note": 52,
      "start": 152.5119,
      "duration": 0.1168,
      "velocity": 100,
      "chip": "ym2612"
    },
    {
      "channel": 0,
      "note": 103,
      "start": 152.5148,
      "duration": 0.0937,
      "velocity": 127,
      "chip": "ym2612"
    },
    {
      "channel": 1,
      "note": 57,
      "start": 152.5176,
      "duration": 0.0911,
      "velocity": 107,
      "chip": "ym2612"
    },
    {
      "channel": 1,
      "note": 69,
      "start": 152.6524,
      "duration": 0.0762,
      "velocity": 107,
      "chip": "ym2612"
    },
    {
      "channel": 3,
      "note": 52,
      "start": 152.792,
      "duration": 0.0967,
      "velocity": 100,
      "chip": "ym2612"
    },
    {
      "channel": 5,
      "note": 52,
      "start": 152.7949,
      "duration": 0.094,
      "velocity": 98,
      "chip": "ym2612"
    },
    {
      "channel": 0,
      "note": 103,
      "start": 152.7978,
      "duration": 0.0709,
      "velocity": 127,
      "chip": "ym2612"
    },
    {
      "channel": 1,
      "note": 64,
      "start": 152.8004,
      "duration": 0.0683,
      "velocity": 107,
      "chip": "ym2612"
    },
    {
      "channel": 3,
      "note": 53,
      "start": 152.9117,
      "duration": 0.1169,
      "velocity": 100,
      "chip": "ym2612"
    },
    {
      "channel": 1,
      "note": 57,
      "start": 152.9148,
      "duration": 0.0938,
      "velocity": 107,
      "chip": "ym2612"
    },
    {
      "channel": 3,
      "note": 52,
      "start": 153.052,
      "duration": 0.1167,
      "velocity": 100,
      "chip": "ym2612"
    },
    {
      "channel": 0,
      "note": 103,
      "start": 153.0549,
      "duration": 0.0937,
      "velocity": 127,
      "chip": "ym2612"
    },
    {
      "channel": 1,
      "note": 69,
      "start": 153.0576,
      "duration": 0.0911,
      "velocity": 107,
      "chip": "ym2612"
    },
    {
      "channel": 1,
      "note": 64,
      "start": 153.1924,
      "duration": 0.0762,
      "velocity": 107,
      "chip": "ym2612"
    },
    {
      "channel": 3,
      "note": 52,
      "start": 153.3323,
      "duration": 0.0964,
      "velocity": 100,
      "chip": "ym2612"
    },
    {
      "channel": 5,
      "note": 52,
      "start": 153.3349,
      "duration": 0.0939,
      "velocity": 98,
      "chip": "ym2612"
    },
    {
      "channel": 0,
      "note": 103,
      "start": 153.3381,
      "duration": 0.0705,
      "velocity": 127,
      "chip": "ym2612"
    },
    {
      "channel": 1,
      "note": 57,
      "start": 153.3408,
      "duration": 0.0679,
      "velocity": 107,
      "chip": "ym2612"
    },
    {
      "channel": 3,
      "note": 53,
      "start": 153.4517,
      "duration": 0.1171,
      "velocity": 100,
      "chip": "ym2612"
    },
    {
      "channel": 1,
      "note": 69,
      "start": 153.4547,
      "duration": 0.0939,
      "velocity": 107,
      "chip": "ym2612"
    },
    {
      "channel": 3,
      "note": 52,
      "start": 153.5919,
      "duration": 0.1168,
      "velocity": 100,
      "chip": "ym2612"
    },
    {
      "channel": 0,
      "note": 103,
      "start": 153.5948,
      "duration": 0.0937,
      "velocity": 127,
      "chip": "ym2612"
    },
    {
      "channel": 1,
      "note": 64,
      "start": 153.5976,
      "duration": 0.0912,
      "velocity": 107,
      "chip": "ym2612"
    },
    {
      "channel": 1,
      "note": 64,
      "start": 153.7324,
      "duration": 0.0762,
      "velocity": 107,
      "chip": "ym2612"
    },
    {
      "channel": 3,
      "note": 52,
      "start": 153.8719,
      "duration": 0.0969,
      "velocity": 100,
      "chip": "ym2612"
    },
    {
      "channel": 5,
      "note": 52,
      "start": 153.8744,
      "duration": 0.0945,
      "velocity": 98,
      "chip": "ym2612"
    },
    {
      "channel": 0,
      "note": 103,
      "start": 153.8772,
      "duration": 0.0714,
      "velocity": 127,
      "chip": "ym2612"
    },
    {
      "channel": 1,
      "note": 69,
      "start": 153.8799,
      "duration": 0.0688,
      "velocity": 107,
      "chip": "ym2612"
    },
    {
      "channel": 3,
      "note": 53,
      "start": 153.9917,
      "duration": 0.117,
      "velocity": 100,
      "chip": "ym2612"
    },
    {
      "channel": 1,
      "note": 57,
      "start": 153.9952,
      "duration": 0.0934,
      "velocity": 107,
      "chip": "ym2612"
    },
    {
      "channel": 3,
      "note": 52,
      "start": 154.1319,
      "duration": 0.1168,
      "velocity": 100,
      "chip": "ym2612"
    },
    {
      "channel": 0,
      "note": 103,
      "start": 154.1348,
      "duration": 0.0737,
      "velocity": 127,
      "chip": "ym2612"
    },
    {
      "channel": 1,
      "note": 64,
      "start": 154.1376,
      "duration": 0.0712,
      "velocity": 107,
      "chip": "ym2612"
    },
    {
      "channel": 1,
      "note": 69,
      "start": 154.2724,
      "duration": 0.0762,
      "velocity": 107,
      "chip": "ym2612"
    },
    {
      "channel": 3,
      "note": 52,
      "start": 154.392,
      "duration": 0.1166,
      "velocity": 100,
      "chip": "ym2612"
    },
    {
      "channel": 5,
      "note": 52,
      "start": 154.3946,
      "duration": 0.1142,
      "velocity": 98,
      "chip": "ym2612"
    },
    {
      "channel": 0,
      "note": 103,
      "start": 154.3974,
      "duration": 0.0912,
      "velocity": 127,
      "chip": "ym2612"
    },
    {
      "channel": 1,
      "note": 57,
      "start": 154.4,
      "duration": 0.0887,
      "velocity": 107,
      "chip": "ym2612"
    },
    {
      "channel": 3,
      "note": 53,
      "start": 154.5317,
      "duration": 0.1169,
      "velocity": 100,
      "chip": "ym2612"
    },
    {
      "channel": 1,
      "note": 69,
      "start": 154.5348,
      "duration": 0.0939,
      "velocity": 107,
      "chip": "ym2612"
    },
    {
      "channel": 3,
      "note": 52,
      "start": 154.6719,
      "duration": 0.1168,
      "velocity": 100,
      "chip": "ym2612"
    },
    {
      "channel": 0,
      "note": 103,
      "start": 154.6747,
      "duration": 0.0739,
      "velocity": 127,
      "chip": "ym2612"
    },
    {
      "channel": 1,
      "note": 64,
      "start": 154.6775,
      "duration": 0.0713,
      "velocity": 107,
      "chip": "ym2612"
    },
    {
      "channel": 1,
      "note": 69,
      "start": 154.8124,
      "duration": 0.0763,
      "velocity": 107,
      "chip": "ym2612"
    },
    {
      "channel": 3,
      "note": 52,
      "start": 154.9323,
      "duration": 0.1164,
      "velocity": 100,
      "chip": "ym2612"
    },
    {
      "channel": 5,
      "note": 52,
      "start": 154.9349,
      "duration": 0.114,
      "velocity": 98,
      "chip": "ym2612"
    },
    {
      "channel": 0,
      "note": 103,
      "start": 154.9377,
      "duration": 0.0909,
      "velocity": 127,
      "chip": "ym2612"
    },
    {
      "channel": 1,
      "note": 64,
      "start": 154.9404,
      "duration": 0.0884,
      "velocity": 107,
      "chip": "ym2612"
    },
    {
      "channel": 3,
      "note": 53,
      "start": 155.0718,
      "duration": 0.1169,
      "velocity": 100,
      "chip": "ym2612"
    },
    {
      "channel": 1,
      "note": 57,
      "start": 155.0749,
      "duration": 0.0938,
      "velocity": 107,
      "chip": "ym2612"
    },
    {
      "channel": 3,
      "note": 52,
      "start": 155.2119,
      "duration": 0.1168,
      "velocity": 100,
      "chip": "ym2612"
    },
    {
      "channel": 0,
      "note": 103,
      "start": 155.2147,
      "duration": 0.0739,
      "velocity": 127,
      "chip": "ym2612"
    },
    {
      "channel": 1,
      "note": 64,
      "start": 155.2175,
      "duration": 0.0713,
      "velocity": 107,
      "chip": "ym2612"
    },
    {
      "channel": 1,
      "note": 69,
      "start": 155.3524,
      "duration": 0.0763,
      "velocity": 107,
      "chip": "ym2612"
    },
    {
      "channel": 3,
      "note": 52,
      "start": 155.4719,
      "duration": 0.1168,
      "velocity": 100,
      "chip": "ym2612"
    },
    {
      "channel": 5,
      "note": 52,
      "start": 155.4746,
      "duration": 0.1143,
      "velocity": 98,
      "chip": "ym2612"
    },
    {
      "channel": 0,
      "note": 103,
      "start": 155.4773,
      "duration": 0.0912,
      "velocity": 127,
      "chip": "ym2612"
    },
    {
      "channel": 1,
      "note": 64,
      "start": 155.48,
      "duration": 0.0886,
      "velocity": 107,
      "chip": "ym2612"
    },
    {
      "channel": 3,
      "note": 53,
      "start": 155.6117,
      "duration": 0.1169,
      "velocity": 100,
      "chip": "ym2612"
    },
    {
      "channel": 1,
      "note": 69,
      "start": 155.6147,
      "duration": 0.0939,
      "velocity": 107,
      "chip": "ym2612"
    },
    {
      "channel": 3,
      "note": 52,
      "start": 155.7519,
      "duration": 0.0968,
      "velocity": 100,
      "chip": "ym2612"
    },
    {
      "channel": 0,
      "note": 103,
      "start": 155.7548,
      "duration": 0.0737,
      "velocity": 127,
      "chip": "ym2612"
    },
    {
      "channel": 1,
      "note": 64,
      "start": 155.7576,
      "duration": 0.0712,
      "velocity": 107,
      "chip": "ym2612"
    },
    {
      "channel": 1,
      "note": 57,
      "start": 155.8924,
      "duration": 0.0762,
      "velocity": 107,
      "chip": "ym2612"
    },
    {
      "channel": 3,
      "note": 52,
      "start": 156.012,
      "duration": 0.1167,
      "velocity": 100,
      "chip": "ym2612"
    },
    {
      "channel": 5,
      "note": 52,
      "start": 156.0146,
      "duration": 0.1144,
      "velocity": 98,
      "chip": "ym2612"
    },
    {
      "channel": 0,
      "note": 103,
      "start": 156.0174,
      "duration": 0.0912,
      "velocity": 127,
      "chip": "ym2612"
    },
    {
      "channel": 1,
      "note": 64,
      "start": 156.02,
      "duration": 0.0887,
      "velocity": 107,
      "chip": "ym2612"
    },
    {
      "channel": 3,
      "note": 53,
      "start": 156.1517,
      "duration": 0.117,
      "velocity": 100,
      "chip": "ym2612"
    },
    {
      "channel": 1,
      "note": 69,
      "start": 156.1552,
      "duration": 0.0934,
      "velocity": 107,
      "chip": "ym2612"
    },
    {
      "channel": 3,
      "note": 52,
      "start": 156.2919,
      "duration": 0.0968,
      "velocity": 100,
      "chip": "ym2612"
    },
    {
      "channel": 0,
      "note": 103,
      "start": 156.2948,
      "duration": 0.0737,
      "velocity": 127,
      "chip": "ym2612"
    },
    {
      "channel": 1,
      "note": 64,
      "start": 156.2976,
      "duration": 0.0712,
      "velocity": 107,
      "chip": "ym2612"
    },
    {
      "channel": 1,
      "note": 69,
      "start": 156.4324,
      "duration": 0.0762,
      "velocity": 107,
      "chip": "ym2612"
    },
    {
      "channel": 3,
      "note": 52,
      "start": 156.552,
      "duration": 0.1167,
      "velocity": 100,
      "chip": "ym2612"
    },
    {
      "channel": 5,
      "note": 52,
      "start": 156.5546,
      "duration": 0.1144,
      "velocity": 98,
      "chip": "ym2612"
    },
    {
      "channel": 0,
      "note": 103,
      "start": 156.5574,
      "duration": 0.0912,
      "velocity": 127,
      "chip": "ym2612"
    },
    {
      "channel": 1,
      "note": 64,
      "start": 156.56,
      "duration": 0.0887,
      "velocity": 107,
      "chip": "ym2612"
    },
    {
      "channel": 3,
      "note": 53,
      "start": 156.6921,
      "duration": 0.1166,
      "velocity": 100,
      "chip": "ym2612"
    },
    {
      "channel": 1,
      "note": 57,
      "start": 156.6952,
      "duration": 0.0734,
      "velocity": 107,
      "chip": "ym2612"
    },
    {
      "channel": 3,
      "note": 52,
      "start": 156.8319,
      "duration": 0.0968,
      "velocity": 100,
      "chip": "ym2612"
    },
    {
      "channel": 0,
      "note": 103,
      "start": 156.8348,
      "duration": 0.0737,
      "velocity": 127,
      "chip": "ym2612"
    },
    {
      "channel": 1,
      "note": 64,
      "start": 156.8376,
      "duration": 0.0712,
      "velocity": 107,
      "chip": "ym2612"
    },
    {
      "channel": 1,
      "note": 57,
      "start": 156.9524,
      "duration": 0.0962,
      "velocity": 107,
      "chip": "ym2612"
    },
    {
      "channel": 3,
      "note": 52,
      "start": 157.092,
      "duration": 0.1167,
      "velocity": 100,
      "chip": "ym2612"
    },
    {
      "channel": 5,
      "note": 52,
      "start": 157.0949,
      "duration": 0.114,
      "velocity": 98,
      "chip": "ym2612"
    },
    {
      "channel": 0,
      "note": 103,
      "start": 157.0977,
      "duration": 0.0909,
      "velocity": 127,
      "chip": "ym2612"
    },
    {
      "channel": 1,
      "note": 64,
      "start": 157.1004,
      "duration": 0.0884,
      "velocity": 107,
      "chip": "ym2612"
    },
    {
      "channel": 3,
      "note": 53,
      "start": 157.2318,
      "duration": 0.1169,
      "velocity": 100,
      "chip": "ym2612"
    },
    {
      "channel": 1,
      "note": 64,
      "start": 157.2349,
      "duration": 0.0738,
      "velocity": 107,
      "chip": "ym2612"
    },
    {
      "channel": 2,
      "note": 84,
      "start": 157.3722,
      "duration": 10.7569,
      "velocity": 104,
      "chip": "ym2612"
    },
    {
      "channel": 0,
      "note": 81,
      "start": 157.3748,
      "duration": 10.7538,
      "velocity": 104,
      "chip": "ym2612"
    },
    {
      "channel": 5,
      "note": 76,
      "start": 157.3777,
      "duration": 10.7514,
      "velocity": 104,
      "chip": "ym2612"
    },
    {
      "channel": 3,
      "note": 45,
      "start": 157.3803,
      "duration": 0.0883,
      "velocity": 100,
      "chip": "ym2612"
    },
    {
      "channel": 1,
      "note": 103,
      "start": 157.3834,
      "duration": 0.0652,
      "velocity": 127,
      "chip": "ym2612"
    },
    {
      "channel": 4,
      "note": 69,
      "start": 157.3864,
      "duration": 0.0624,
      "velocity": 107,
      "chip": "ym2612"
    },
    {
      "channel": 4,
      "note": 64,
      "start": 157.4926,
      "duration": 0.0961,
      "velocity": 107,
      "chip": "ym2612"
    },
    {
      "channel": 3,
      "note": 45,
      "start": 157.6319,
      "duration": 0.1168,
      "velocity": 100,
      "chip": "ym2612"
    },
    {
      "channel": 1,
      "note": 103,
      "start": 157.6352,
      "duration": 0.0935,
      "velocity": 127,
      "chip": "ym2612"
    },
    {
      "channel": 4,
      "note": 57,
      "start": 157.638,
      "duration": 0.0909,
      "velocity": 107,
      "chip": "ym2612"
    },
    {
      "channel": 3,
      "note": 48,
      "start": 157.7718,
      "duration": 0.1169,
      "velocity": 100,
      "chip": "ym2612"
    },
    {
      "channel": 4,
      "note": 69,
      "start": 157.7749,
      "duration": 0.0739,
      "velocity": 107,
      "chip": "ym2612"
    },
    {
      "channel": 3,
      "note": 45,
      "start": 157.912,
      "duration": 0.0967,
      "velocity": 100,
      "chip": "ym2612"
    },
    {
      "channel": 1,
      "note": 103,
      "start": 157.9149,
      "duration": 0.0738,
      "velocity": 127,
      "chip": "ym2612"
    },
    {
      "channel": 4,
      "note": 64,
      "start": 157.9178,
      "duration": 0.0711,
      "velocity": 107,
      "chip": "ym2612"
    },
    {
      "channel": 4,
      "note": 57,
      "start": 158.0326,
      "duration": 0.0962,
      "velocity": 107,
      "chip": "ym2612"
    },
    {
      "channel": 3,
      "note": 45,
      "start": 158.172,
      "duration": 0.1167,
      "velocity": 100,
      "chip": "ym2612"
    },
    {
      "channel": 1,
      "note": 103,
      "start": 158.1749,
      "duration": 0.0938,
      "velocity": 127,
      "chip": "ym2612"
    },
    {
      "channel": 4,
      "note": 69,
      "start": 158.1778,
      "duration": 0.0911,
      "velocity": 107,
      "chip": "ym2612"
    },
    {
      "channel": 3,
      "note": 48,
      "start": 158.3118,
      "duration": 0.0969,
      "velocity": 100,
      "chip": "ym2612"
    },
    {
      "channel": 4,
      "note": 64,
      "start": 158.3153,
      "duration": 0.0734,
      "velocity": 107,
      "chip": "ym2612"
    },
    {
      "channel": 3,
      "note": 45,
      "start": 158.4523,
      "duration": 0.0963,
      "velocity": 100,
      "chip": "ym2612"
    },
    {
      "channel": 1,
      "note": 103,
      "start": 158.4553,
      "duration": 0.0734,
      "velocity": 127,
      "chip": "ym2612"
    },
    {
      "channel": 4,
      "note": 57,
      "start": 158.4581,
      "duration": 0.0707,
      "velocity": 107,
      "chip": "ym2612"
    },
    {
      "channel": 4,
      "note": 64,
      "start": 158.5726,
      "duration": 0.0962,
      "velocity": 107,
      "chip": "ym2612"
    },
    {
      "channel": 3,
      "note": 45,
      "start": 158.712,
      "duration": 0.1167,
      "velocity": 100,
      "chip": "ym2612"
    },
    {
      "channel": 1,
      "note": 103,
      "start": 158.7149,
      "duration": 0.0938,
      "velocity": 127,
      "chip": "ym2612"
    },
    {
      "channel": 4,
      "note": 69,
      "start": 158.7178,
      "duration": 0.0911,
      "velocity": 107,
      "chip": "ym2612"
    },
    {
      "channel": 3,
      "note": 48,
      "start": 158.8518,
      "duration": 0.0969,
      "velocity": 100,
      "chip": "ym2612"
    },
    {
      "channel": 4,
      "note": 64,
      "start": 158.8549,
      "duration": 0.0739,
      "velocity": 107,
      "chip": "ym2612"
    },
    {
      "channel": 3,
      "note": 45,
      "start": 158.9919,
      "duration": 0.0968,
      "velocity": 100,
      "chip": "ym2612"
    },
    {
      "channel": 1,
      "note": 103,
      "start": 158.9949,
      "duration": 0.0739,
      "velocity": 127,
      "chip": "ym2612"
    },
    {
      "channel": 4,
      "note": 57,
      "start": 158.9978,
      "duration": 0.0711,
      "velocity": 107,
      "chip": "ym2612"
    },
    {
      "channel": 4,
      "note": 64,
      "start": 159.1126,
      "duration": 0.0962,
      "velocity": 107,
      "chip": "ym2612"
    },
    {
      "channel": 3,
      "note": 45,
      "start": 159.252,
      "duration": 0.1167,
      "velocity": 100,
      "chip": "ym2612"
    },
    {
      "channel": 1,
      "note": 103,
      "start": 159.2549,
      "duration": 0.0738,
      "velocity": 127,
      "chip": "ym2612"
    },
    {
      "channel": 4,
      "note": 69,
      "start": 159.2578,
      "duration": 0.0711,
      "velocity": 107,
      "chip": "ym2612"
    },
    {
      "channel": 3,
      "note": 48,
      "start": 159.3918,
      "duration": 0.0969,
      "velocity": 100,
      "chip": "ym2612"
    },
    {
      "channel": 4,
      "note": 64,
      "start": 159.3949,
      "duration": 0.0739,
      "velocity": 107,
      "chip": "ym2612"
    },
    {
      "channel": 1,
      "note": 64,
      "start": 159.5123,
      "duration": 2.1364,
      "velocity": 104,
      "chip": "ym2612"
    },
    {
      "channel": 3,
      "note": 45,
      "start": 159.5151,
      "duration": 0.1137,
      "velocity": 100,
      "chip": "ym2612"
    },
    {
      "channel": 4,
      "note": 103,
      "start": 159.5182,
      "duration": 0.0008,
      "velocity": 127,
      "chip": "ym2612"
    },
    {
      "channel": 4,
      "note": 69,
      "start": 159.5212,
      "duration": 0.0876,
      "velocity": 107,
      "chip": "ym2612"
    },
    {
      "channel": 4,
      "note": 64,
      "start": 159.6526,
      "duration": 0.0962,
      "velocity": 107,
      "chip": "ym2612"
    },
    {
      "channel": 3,
      "note": 45,
      "start": 159.7919,
      "duration": 0.1169,
      "velocity": 100,
      "chip": "ym2612"
    },
    {
      "channel": 4,
      "note": 103,
      "start": 159.7951,
      "duration": 0.0007,
      "velocity": 127,
      "chip": "ym2612"
    },
    {
      "channel": 4,
      "note": 57,
      "start": 159.798,
      "duration": 0.0708,
      "velocity": 107,
      "chip": "ym2612"
    },
    {
      "channel": 3,
      "note": 48,
      "start": 159.9318,
      "duration": 0.0969,
      "velocity": 100,
      "chip": "ym2612"
    },
    {
      "channel": 4,
      "note": 69,
      "start": 159.935,
      "duration": 0.0737,
      "velocity": 107,
      "chip": "ym2612"
    },
    {
      "channel": 3,
      "note": 45,
      "start": 160.0523,
      "duration": 0.1164,
      "velocity": 100,
      "chip": "ym2612"
    },
    {
      "channel": 4,
      "note": 103,
      "start": 160.0554,
      "duration": 0.0007,
      "velocity": 127,
      "chip": "ym2612"
    },
    {
      "channel": 4,
      "note": 64,
      "start": 160.0584,
      "duration": 0.0903,
      "velocity": 107,
      "chip": "ym2612"
    },
    {
      "channel": 4,
      "note": 57,
      "start": 160.1926,
      "duration": 0.0962,
      "velocity": 107,
      "chip": "ym2612"
    },
    {
      "channel": 3,
      "note": 45,
      "start": 160.3319,
      "duration": 0.1168,
      "velocity": 100,
      "chip": "ym2612"
    },
    {
      "channel": 4,
      "note": 103,
      "start": 160.3351,
      "duration": 0.0007,
      "velocity": 127,
      "chip": "ym2612"
    },
    {
      "channel": 4,
      "note": 69,
      "start": 160.3381,
      "duration": 0.0707,
      "velocity": 107,
      "chip": "ym2612"
    },
    {
      "channel": 3,
      "note": 48,
      "start": 160.4718,
      "duration": 0.0969,
      "velocity": 100,
      "chip": "ym2612"
    },
    {
      "channel": 4,
      "note": 64,
      "start": 160.4753,
      "duration": 0.0734,
      "velocity": 107,
      "chip": "ym2612"
    },
    {
      "channel": 3,
      "note": 45,
      "start": 160.5919,
      "duration": 0.1167,
      "velocity": 100,
      "chip": "ym2612"
    },
    {
      "channel": 4,
      "note": 103,
      "start": 160.5951,
      "duration": 0.0008,
      "velocity": 127,
      "chip": "ym2612"
    },
    {
      "channel": 4,
      "note": 57,
      "start": 160.598,
      "duration": 0.0908,
      "velocity": 107,
      "chip": "ym2612"
    },
    {
      "channel": 4,
      "note": 64,
      "start": 160.7326,
      "duration": 0.0961,
      "velocity": 107,
      "chip": "ym2612"
    },
    {
      "channel": 3,
      "note": 45,
      "start": 160.8719,
      "duration": 0.0968,
      "velocity": 100,
      "chip": "ym2612"
    },
    {
      "channel": 4,
      "note": 103,
      "start": 160.8751,
      "duration": 0.0007,
      "velocity": 127,
      "chip": "ym2612"
    },
    {
      "channel": 4,
      "note": 69,
      "start": 160.878,
      "duration": 0.0708,
      "velocity": 107,
      "chip": "ym2612"
    },
    {
      "channel": 3,
      "note": 48,
      "start": 161.0118,
      "duration": 0.0969,
      "velocity": 100,
      "chip": "ym2612"
    },
    {
      "channel": 4,
      "note": 64,
      "start": 161.015,
      "duration": 0.0737,
      "velocity": 107,
      "chip": "ym2612"
    },
    {
      "channel": 3,
      "note": 45,
      "start": 161.1319,
      "duration": 0.1168,
      "velocity": 100,
      "chip": "ym2612"
    },
    {
      "channel": 4,
      "note": 103,
      "start": 161.1351,
      "duration": 0.0007,
      "velocity": 127,
      "chip": "ym2612"
    },
    {
      "channel": 4,
      "note": 57,
      "start": 161.138,
      "duration": 0.0908,
      "velocity": 107,
      "chip": "ym2612"
    },
    {
      "channel": 4,
      "note": 64,
      "start": 161.2726,
      "duration": 0.0962,
      "velocity": 107,
      "chip": "ym2612"
    },
    {
      "channel": 3,
      "note": 45,
      "start": 161.4119,
      "duration": 0.0968,
      "velocity": 100,
      "chip": "ym2612"
    },
    {
      "channel": 4,
      "note": 103,
      "start": 161.4151,
      "duration": 0.0007,
      "velocity": 127,
      "chip": "ym2612"
    },
    {
      "channel": 4,
      "note": 69,
      "start": 161.418,
      "duration": 0.0708,
      "velocity": 107,
      "chip": "ym2612"
    },
    {
      "channel": 3,
      "note": 48,
      "start": 161.5518,
      "duration": 0.097,
      "velocity": 100,
      "chip": "ym2612"
    },
    {
      "channel": 4,
      "note": 64,
      "start": 161.555,
      "duration": 0.0737,
      "velocity": 107,
      "chip": "ym2612"
    },
    {
      "channel": 1,
      "note": 74,
      "start": 161.6717,
      "duration": 1.0569,
      "velocity": 104,
      "chip": "ym2612"
    },
    {
      "channel": 3,
      "note": 45,
      "start": 161.6745,
      "duration": 0.1142,
      "velocity": 100,
      "chip": "ym2612"
    },
    {
      "channel": 4,
      "note": 103,
      "start": 161.6776,
      "duration": 0.0008,
      "velocity": 127,
      "chip": "ym2612"
    },
    {
      "channel": 4,
      "note": 57,
      "start": 161.6806,
      "duration": 0.0881,
      "velocity": 107,
      "chip": "ym2612"
    },
    {
      "channel": 4,
      "note": 69,
      "start": 161.8125,
      "duration": 0.0763,
      "velocity": 107,
      "chip": "ym2612"
    },
    {
      "channel": 3,
      "note": 45,
      "start": 161.9523,
      "duration": 0.0964,
      "velocity": 100,
      "chip": "ym2612"
    },
    {
      "channel": 4,
      "note": 103,
      "start": 161.9558,
      "duration": 0.0008,
      "velocity": 127,
      "chip": "ym2612"
    },
    {
      "channel": 4,
      "note": 64,
      "start": 161.9588,
      "duration": 0.07,
      "velocity": 107,
      "chip": "ym2612"
    },
    {
      "channel": 3,
      "note": 48,
      "start": 162.0718,
      "duration": 0.1169,
      "velocity": 100,
      "chip": "ym2612"
    },
    {
      "channel": 4,
      "note": 57,
      "start": 162.075,
      "duration": 0.0937,
      "velocity": 107,
      "chip": "ym2612"
    },
    {
      "channel": 3,
      "note": 45,
      "start": 162.2119,
      "duration": 0.1167,
      "velocity": 100,
      "chip": "ym2612"
    },
    {
      "channel": 4,
      "note": 103,
      "start": 162.2151,
      "duration": 0.0008,
      "velocity": 127,
      "chip": "ym2612"
    },
    {
      "channel": 4,
      "note": 69,
      "start": 162.218,
      "duration": 0.0908,
      "velocity": 107,
      "chip": "ym2612"
    },
    {
      "channel": 4,
      "note": 64,
      "start": 162.3526,
      "duration": 0.0761,
      "velocity": 107,
      "chip": "ym2612"
    },
    {
      "channel": 3,
      "note": 45,
      "start": 162.4919,
      "duration": 0.0968,
      "velocity": 100,
      "chip": "ym2612"
    },
    {
      "channel": 4,
      "note": 103,
      "start": 162.4951,
      "duration": 0.0007,
      "velocity": 127,
      "chip": "ym2612"
    },
    {
      "channel": 4,
      "note": 69,
      "start": 162.4981,
      "duration": 0.0707,
      "velocity": 107,
      "chip": "ym2612"
    },
    {
      "channel": 3,
      "note": 48,
      "start": 162.6117,
      "duration": 0.1171,
      "velocity": 100,
      "chip": "ym2612"
    },
    {
      "channel": 4,
      "note": 64,
      "start": 162.6153,
      "duration": 0.0934,
      "velocity": 107,
      "chip": "ym2612"
    },
    {
      "channel": 1,
      "note": 72,
      "start": 162.7514,
      "duration": 1.0572,
      "velocity": 104,
      "chip": "ym2612"
    },
    {
      "channel": 3,
      "note": 45,
      "start": 162.7542,
      "duration": 0.1146,
      "velocity": 100,
      "chip": "ym2612"
    },
    {
      "channel": 4,
      "note": 103,
      "start": 162.7573,
      "duration": 0.0008,
      "velocity": 127,
      "chip": "ym2612"
    },
    {
      "channel": 4,
      "note": 57,
      "start": 162.7603,
      "duration": 0.0884,
      "velocity": 107,
      "chip": "ym2612"
    },
    {
      "channel": 4,
      "note": 69,
      "start": 162.8926,
      "duration": 0.0762,
      "velocity": 107,
      "chip": "ym2612"
    },
    {
      "channel": 3,
      "note": 45,
      "start": 163.0319,
      "duration": 0.0968,
      "velocity": 100,
      "chip": "ym2612"
    },
    {
      "channel": 4,
      "note": 103,
      "start": 163.0351,
      "duration": 0.0007,
      "velocity": 127,
      "chip": "ym2612"
    },
    {
      "channel": 4,
      "note": 64,
      "start": 163.0381,
      "duration": 0.0707,
      "velocity": 107,
      "chip": "ym2612"
    },
    {
      "channel": 3,
      "note": 48,
      "start": 163.1517,
      "duration": 0.1169,
      "velocity": 100,
      "chip": "ym2612"
    },
    {
      "channel": 4,
      "note": 57,
      "start": 163.1549,
      "duration": 0.0939,
      "velocity": 107,
      "chip": "ym2612"
    },
    {
      "channel": 3,
      "note": 45,
      "start": 163.292,
      "duration": 0.1167,
      "velocity": 100,
      "chip": "ym2612"
    },
    {
      "channel": 4,
      "note": 103,
      "start": 163.2951,
      "duration": 0.0007,
      "velocity": 127,
      "chip": "ym2612"
    },
    {
      "channel": 4,
      "note": 69,
      "start": 163.2981,
      "duration": 0.0907,
      "velocity": 107,
      "chip": "ym2612"
    },
    {
      "channel": 4,
      "note": 64,
      "start": 163.4326,
      "duration": 0.0762,
      "velocity": 107,
      "chip": "ym2612"
    },
    {
      "channel": 3,
      "note": 45,
      "start": 163.5723,
      "duration": 0.0963,
      "velocity": 100,
      "chip": "ym2612"
    },
    {
      "channel": 4,
      "note": 103,
      "start": 163.5754,
      "duration": 0.0008,
      "velocity": 127,
      "chip": "ym2612"
    },
    {
      "channel": 4,
      "note": 69,
      "start": 163.5785,
      "duration": 0.0703,
      "velocity": 107,
      "chip": "ym2612"
    },
    {
      "channel": 3,
      "note": 48,
      "start": 163.6918,
      "duration": 0.1169,
      "velocity": 100,
      "chip": "ym2612"
    },
    {
      "channel": 4,
      "note": 64,
      "start": 163.695,
      "duration": 0.0937,
      "velocity": 107,
      "chip": "ym2612"
    },
    {
      "channel": 1,
      "note": 71,
      "start": 163.8315,
      "duration": 1.0571,
      "velocity": 104,
      "chip": "ym2612"
    },
    {
      "channel": 3,
      "note": 45,
      "start": 163.8344,
      "duration": 0.0143,
      "velocity": 100,
      "chip": "ym2612"
    },
    {
      "channel": 4,
      "note": 45,
      "start": 163.8372,
      "duration": 0.1116,
      "velocity": 100,
      "chip": "ym2612"
    },
    {
      "channel": 3,
      "note": 64,
      "start": 163.9727,
      "duration": 0.076,
      "velocity": 107,
      "chip": "ym2612"
    },
    {
      "channel": 4,
      "note": 45,
      "start": 164.1119,
      "duration": 0.0969,
      "velocity": 100,
      "chip": "ym2612"
    },
    {
      "channel": 3,
      "note": 103,
      "start": 164.1151,
      "duration": 0.0007,
      "velocity": 127,
      "chip": "ym2612"
    },
    {
      "channel": 3,
      "note": 69,
      "start": 164.118,
      "duration": 0.0707,
      "velocity": 107,
      "chip": "ym2612"
    },
    {
      "channel": 4,
      "note": 48,
      "start": 164.2319,
      "duration": 0.1169,
      "velocity": 100,
      "chip": "ym2612"
    },
    {
      "channel": 3,
      "note": 64,
      "start": 164.235,
      "duration": 0.0937,
      "velocity": 107,
      "chip": "ym2612"
    },
    {
      "channel": 4,
      "note": 45,
      "start": 164.372,
      "duration": 0.1167,
      "velocity": 100,
      "chip": "ym2612"
    },
    {
      "channel": 3,
      "note": 103,
      "start": 164.3751,
      "duration": 0.0007,
      "velocity": 127,
      "chip": "ym2612"
    },
    {
      "channel": 3,
      "note": 57,
      "start": 164.3781,
      "duration": 0.0706,
      "velocity": 107,
      "chip": "ym2612"
    },
    {
      "channel": 3,
      "note": 64,
      "start": 164.5125,
      "duration": 0.0762,
      "velocity": 107,
      "chip": "ym2612"
    },
    {
      "channel": 4,
      "note": 45,
      "start": 164.6319,
      "duration": 0.1168,
      "velocity": 100,
      "chip": "ym2612"
    },
    {
      "channel": 3,
      "note": 103,
      "start": 164.6351,
      "duration": 0.0008,
      "velocity": 127,
      "chip": "ym2612"
    },
    {
      "channel": 3,
      "note": 69,
      "start": 164.6381,
      "duration": 0.0906,
      "velocity": 107,
      "chip": "ym2612"
    },
    {
      "channel": 4,
      "note": 48,
      "start": 164.7718,
      "duration": 0.117,
      "velocity": 100,
      "chip": "ym2612"
    },
    {
      "channel": 3,
      "note": 64,
      "start": 164.7753,
      "duration": 0.0934,
      "velocity": 107,
      "chip": "ym2612"
    },
    {
      "channel": 1,
      "note": 64,
      "start": 164.9124,
      "duration": 3.2163,
      "velocity": 104,
      "chip": "ym2612"
    },
    {
      "channel": 4,
      "note": 45,
      "start": 164.9156,
      "duration": 0.1132,
      "velocity": 100,
      "chip": "ym2612"
    },
    {
      "channel": 3,
      "note": 103,
      "start": 164.9187,
      "duration": 0.0008,
      "velocity": 127,
      "chip": "ym2612"
    },
    {
      "channel": 3,
      "note": 57,
      "start": 164.9217,
      "duration": 0.067,
      "velocity": 107,
      "chip": "ym2612"
    },
    {
      "channel": 3,
      "note": 69,
      "start": 165.0524,
      "duration": 0.0762,
      "velocity": 107,
      "chip": "ym2612"
    },
    {
      "channel": 4,
      "note": 45,
      "start": 165.1719,
      "duration": 0.1168,
      "velocity": 100,
      "chip": "ym2612"
    },
    {
      "channel": 3,
      "note": 103,
      "start": 165.1751,
      "duration": 0.0008,
      "velocity": 127,
      "chip": "ym2612"
    },
    {
      "channel": 3,
      "note": 64,
      "start": 165.1781,
      "duration": 0.0906,
      "velocity": 107,
      "chip": "ym2612"
    },
    {
      "channel": 4,
      "note": 48,
      "start": 165.3118,
      "duration": 0.117,
      "velocity": 100,
      "chip": "ym2612"
    },
    {
      "channel": 3,
      "note": 57,
      "start": 165.3149,
      "duration": 0.0938,
      "velocity": 107,
      "chip": "ym2612"
    },
    {
      "channel": 4,
      "note": 45,
      "start": 165.4521,
      "duration": 0.1167,
      "velocity": 100,
      "chip": "ym2612"
    },
    {
      "channel": 3,
      "note": 103,
      "start": 165.4552,
      "duration": 0.0007,
      "velocity": 127,
      "chip": "ym2612"
    },
    {
      "channel": 3,
      "note": 69,
      "start": 165.4581,
      "duration": 0.0706,
      "velocity": 107,
      "chip": "ym2612"
    },
    {
      "channel": 3,
      "note": 64,
      "start": 165.5926,
      "duration": 0.0762,
      "velocity": 107,
      "chip": "ym2612"
    },
    {
      "channel": 4,
      "note": 45,
      "start": 165.7119,
      "duration": 0.1169,
      "velocity": 100,
      "chip": "ym2612"
    },
    {
      "channel": 3,
      "note": 103,
      "start": 165.7151,
      "duration": 0.0007,
      "velocity": 127,
      "chip": "ym2612"
    },
    {
      "channel": 3,
      "note": 69,
      "start": 165.718,
      "duration": 0.0907,
      "velocity": 107,
      "chip": "ym2612"
    },
    {
      "channel": 4,
      "note": 48,
      "start": 165.8519,
      "duration": 0.1169,
      "velocity": 100,
      "chip": "ym2612"
    },
    {
      "channel": 3,
      "note": 64,
      "start": 165.855,
      "duration": 0.0937,
      "velocity": 107,
      "chip": "ym2612"
    },
    {
      "channel": 4,
      "note": 45,
      "start": 165.9919,
      "duration": 0.0968,
      "velocity": 100,
      "chip": "ym2612"
    },
    {
      "channel": 3,
      "note": 103,
      "start": 165.9951,
      "duration": 0.0008,
      "velocity": 127,
      "chip": "ym2612"
    },
    {
      "channel": 3,
      "note": 59,
      "start": 165.9981,
      "duration": 0.0706,
      "velocity": 107,
      "chip": "ym2612"
    },
    {
      "channel": 3,
      "note": 52,
      "start": 166.1324,
      "duration": 0.0762,
      "velocity": 107,
      "chip": "ym2612"
    },
    {
      "channel": 4,
      "note": 45,
      "start": 166.2519,
      "duration": 0.1169,
      "velocity": 100,
      "chip": "ym2612"
    },
    {
      "channel": 3,
      "note": 103,
      "start": 166.2554,
      "duration": 0.0008,
      "velocity": 127,
      "chip": "ym2612"
    },
    {
      "channel": 3,
      "note": 59,
      "start": 166.2585,
      "duration": 0.0903,
      "velocity": 107,
      "chip": "ym2612"
    },
    {
      "channel": 4,
      "note": 48,
      "start": 166.3919,
      "duration": 0.1169,
      "velocity": 100,
      "chip": "ym2612"
    },
    {
      "channel": 3,
      "note": 64,
      "start": 166.395,
      "duration": 0.0937,
      "velocity": 107,
      "chip": "ym2612"
    },
    {
      "channel": 4,
      "note": 45,
      "start": 166.5323,
      "duration": 0.0965,
      "velocity": 100,
      "chip": "ym2612"
    },
    {
      "channel": 3,
      "note": 103,
      "start": 166.5354,
      "duration": 0.0008,
      "velocity": 127,
      "chip": "ym2612"
    },
    {
      "channel": 3,
      "note": 59,
      "start": 166.5385,
      "duration": 0.0703,
      "velocity": 107,
      "chip": "ym2612"
    },
    {
      "channel": 3,
      "note": 52,
      "start": 166.6725,
      "duration": 0.0762,
      "velocity": 107,
      "chip": "ym2612"
    },
    {
      "channel": 4,
      "note": 45,
      "start": 166.7919,
      "duration": 0.1169,
      "velocity": 100,
      "chip": "ym2612"
    },
    {
      "channel": 3,
      "note": 103,
      "start": 166.7951,
      "duration": 0.0007,
      "velocity": 127,
      "chip": "ym2612"
    },
    {
      "channel": 3,
      "note": 59,
      "start": 166.798,
      "duration": 0.0907,
      "velocity": 107,
      "chip": "ym2612"
    },
    {
      "channel": 4,
      "note": 48,
      "start": 166.9319,
      "duration": 0.1169,
      "velocity": 100,
      "chip": "ym2612"
    },
    {
      "channel": 3,
      "note": 64,
      "start": 166.9354,
      "duration": 0.0734,
      "velocity": 107,
      "chip": "ym2612"
    },
    {
      "channel": 4,
      "note": 45,
      "start": 167.0721,
      "duration": 0.0967,
      "velocity": 100,
      "chip": "ym2612"
    },
    {
      "channel": 3,
      "note": 103,
      "start": 167.0752,
      "duration": 0.0007,
      "velocity": 127,
      "chip": "ym2612"
    },
    {
      "channel": 3,
      "note": 52,
      "start": 167.0781,
      "duration": 0.0706,
      "velocity": 107,
      "chip": "ym2612"
    },
    {
      "channel": 3,
      "note": 59,
      "start": 167.1926,
      "duration": 0.0962,
      "velocity": 107,
      "chip": "ym2612"
    },
    {
      "channel": 4,
      "note": 45,
      "start": 167.3319,
      "duration": 0.1169,
      "velocity": 100,
      "chip": "ym2612"
    },
    {
      "channel": 3,
      "note": 103,
      "start": 167.3351,
      "duration": 0.0007,
      "velocity": 127,
      "chip": "ym2612"
    },
    {
      "channel": 3,
      "note": 64,
      "start": 167.338,
      "duration": 0.0907,
      "velocity": 107,
      "chip": "ym2612"
    },
    {
      "channel": 4,
      "note": 48,
      "start": 167.4719,
      "duration": 0.1169,
      "velocity": 100,
      "chip": "ym2612"
    },
    {
      "channel": 3,
      "note": 59,
      "start": 167.475,
      "duration": 0.0737,
      "velocity": 107,
      "chip": "ym2612"
    },
    {
      "channel": 4,
      "note": 45,
      "start": 167.612,
      "duration": 0.0967,
      "velocity": 100,
      "chip": "ym2612"
    },
    {
      "channel": 3,
      "note": 103,
      "start": 167.6151,
      "duration": 0.0007,
      "velocity": 127,
      "chip": "ym2612"
    },
    {
      "channel": 3,
      "note": 64,
      "start": 167.6181,
      "duration": 0.0706,
      "velocity": 107,
      "chip": "ym2612"
    },
    {
      "channel": 3,
      "note": 71,
      "start": 167.7324,
      "duration": 0.0962,
      "velocity": 107,
      "chip": "ym2612"
    },
    {
      "channel": 4,
      "note": 45,
      "start": 167.8719,
      "duration": 0.1168,
      "velocity": 100,
      "chip": "ym2612"
    },
    {
      "channel": 3,
      "note": 103,
      "start": 167.8751,
      "duration": 0.0008,
      "velocity": 127,
      "chip": "ym2612"
    },
    {
      "channel": 3,
      "note": 64,
      "start": 167.8781,
      "duration": 0.0906,
      "velocity": 107,
      "chip": "ym2612"
    },
    {
      "channel": 4,
      "note": 48,
      "start": 168.0117,
      "duration": 0.1171,
      "velocity": 100,
      "chip": "ym2612"
    },
    {
      "channel": 3,
      "note": 52,
      "start": 168.0149,
      "duration": 0.0738,
      "velocity": 107,
      "chip": "ym2612"
    },
    {
      "channel": 1,
      "note": 71,
      "start": 168.1518,
      "duration": 1.0369,
      "velocity": 104,
      "chip": "ym2612"
    },
    {
      "channel": 0,
      "note": 83,
      "start": 168.1547,
      "duration": 8.3139,
      "velocity": 104,
      "chip": "ym2612"
    },
    {
      "channel": 5,
      "note": 79,
      "start": 168.1572,
      "duration": 8.3116,
      "velocity": 104,
      "chip": "ym2612"
    },
    {
      "channel": 2,
      "note": 76,
      "start": 168.1604,
      "duration": 8.3086,
      "velocity": 104,
      "chip": "ym2612"
    },
    {
      "channel": 4,
      "note": 52,
      "start": 168.1631,
      "duration": 0.0857,
      "velocity": 100,
      "chip": "ym2612"
    },
    {
      "channel": 3,
      "note": 103,
      "start": 168.1662,
      "duration": 0.0008,
      "velocity": 127,
      "chip": "ym2612"
    },
    {
      "channel": 3,
      "note": 64,
      "start": 168.1693,
      "duration": 0.0594,
      "velocity": 107,
      "chip": "ym2612"
    },
    {
      "channel": 3,
      "note": 59,
      "start": 168.2726,
      "duration": 0.0962,
      "velocity": 107,
      "chip": "ym2612"
    },
    {
      "channel": 4,
      "note": 52,
      "start": 168.4124,
      "duration": 0.1163,
      "velocity": 100,
      "chip": "ym2612"
    },
    {
      "channel": 3,
      "note": 103,
      "start": 168.4155,
      "duration": 0.0008,
      "velocity": 127,
      "chip": "ym2612"
    },
    {
      "channel": 3,
      "note": 52,
      "start": 168.4185,
      "duration": 0.0902,
      "velocity": 107,
      "chip": "ym2612"
    },
    {
      "channel": 4,
      "note": 53,
      "start": 168.5518,
      "duration": 0.097,
      "velocity": 100,
      "chip": "ym2612"
    },
    {
      "channel": 3,
      "note": 64,
      "start": 168.5549,
      "duration": 0.0738,
      "velocity": 107,
      "chip": "ym2612"
    },
    {
      "channel": 4,
      "note": 52,
      "start": 168.6921,
      "duration": 0.0967,
      "velocity": 100,
      "chip": "ym2612"
    },
    {
      "channel": 3,
      "note": 103,
      "start": 168.6952,
      "duration": 0.0007,
      "velocity": 127,
      "chip": "ym2612"
    },
    {
      "channel": 3,
      "note": 59,
      "start": 168.6981,
      "duration": 0.0706,
      "velocity": 107,
      "chip": "ym2612"
    },
    {
      "channel": 3,
      "note": 71,
      "start": 168.8125,
      "duration": 0.0962,
      "velocity": 107,
      "chip": "ym2612"
    },
    {
      "channel": 4,
      "note": 52,
      "start": 168.9519,
      "duration": 0.1169,
      "velocity": 100,
      "chip": "ym2612"
    },
    {
      "channel": 3,
      "note": 103,
      "start": 168.9551,
      "duration": 0.0007,
      "velocity": 127,
      "chip": "ym2612"
    },
    {
      "channel": 3,
      "note": 64,
      "start": 168.958,
      "duration": 0.0907,
      "velocity": 107,
      "chip": "ym2612"
    },
    {
      "channel": 4,
      "note": 53,
      "start": 169.0919,
      "duration": 0.097,
      "velocity": 100,
      "chip": "ym2612"
    },
    {
      "channel": 3,
      "note": 59,
      "start": 169.0954,
      "duration": 0.0734,
      "velocity": 107,
      "chip": "ym2612"
    },
    {
      "channel": 1,
      "note": 72,
      "start": 169.2318,
      "duration": 0.4968,
      "velocity": 104,
      "chip": "ym2612"
    },
    {
      "channel": 4,
      "note": 52,
      "start": 169.2346,
      "duration": 0.0941,
      "velocity": 100,
      "chip": "ym2612"
    },
    {
      "channel": 3,
      "note": 103,
      "start": 169.2378,
      "duration": 0.0008,
      "velocity": 127,
      "chip": "ym2612"
    },
    {
      "channel": 3,
      "note": 52,
      "start": 169.2407,
      "duration": 0.068,
      "velocity": 107,
      "chip": "ym2612"
    },
    {
      "channel": 3,
      "note": 64,
      "start": 169.3525,
      "duration": 0.0962,
      "velocity": 107,
      "chip": "ym2612"
    },
    {
      "channel": 4,
      "note": 52,
      "start": 169.4919,
      "duration": 0.1168,
      "velocity": 100,
      "chip": "ym2612"
    },
    {
      "channel": 3,
      "note": 103,
      "start": 169.4951,
      "duration": 0.0007,
      "velocity": 127,
      "chip": "ym2612"
    },
    {
      "channel": 3,
      "note": 59,
      "start": 169.498,
      "duration": 0.0707,
      "velocity": 107,
      "chip": "ym2612"
    },
    {
      "channel": 4,
      "note": 53,
      "start": 169.6319,
      "duration": 0.0969,
      "velocity": 100,
      "chip": "ym2612"
    },
    {
      "channel": 3,
      "note": 71,
      "start": 169.635,
      "duration": 0.0737,
      "velocity": 107,
      "chip": "ym2612"
    },
    {
      "channel": 1,
      "note": 71,
      "start": 169.7515,
      "duration": 0.5171,
      "velocity": 104,
      "chip": "ym2612"
    },
    {
      "channel": 4,
      "note": 52,
      "start": 169.7544,
      "duration": 0.1144,
      "velocity": 100,
      "chip": "ym2612"
    },
    {
      "channel": 3,
      "note": 103,
      "start": 169.7575,
      "duration": 0.0008,
      "velocity": 127,
      "chip": "ym2612"
    },
    {
      "channel": 3,
      "note": 64,
      "start": 169.7605,
      "duration": 0.0882,
      "velocity": 107,
      "chip": "ym2612"
    },
    {
      "channel": 3,
      "note": 59,
      "start": 169.8925,
      "duration": 0.0962,
      "velocity": 107,
      "chip": "ym2612"
    },
    {
      "channel": 4,
      "note": 52,
      "start": 170.0323,
      "duration": 0.1165,
      "velocity": 100,
      "chip": "ym2612"
    },
    {
      "channel": 3,
      "note": 103,
      "start": 170.0354,
      "duration": 0.0008,
      "velocity": 127,
      "chip": "ym2612"
    },
    {
      "channel": 3,
      "note": 71,
      "start": 170.0384,
      "duration": 0.0703,
      "velocity": 107,
      "chip": "ym2612"
    },
    {
      "channel": 4,
      "note": 53,
      "start": 170.1719,
      "duration": 0.0969,
      "velocity": 100,
      "chip": "ym2612"
    },
    {
      "channel": 3,
      "note": 64,
      "start": 170.175,
      "duration": 0.0737,
      "velocity": 107,
      "chip": "ym2612"
    },
    {
      "channel": 1,
      "note": 74,
      "start": 170.2917,
      "duration": 1.057,
      "velocity": 104,
      "chip": "ym2612"
    },
    {
      "channel": 4,
      "note": 52,
      "start": 170.2946,
      "duration": 0.1142,
      "velocity": 100,
      "chip": "ym2612"
    },
    {
      "channel": 3,
      "note": 103,
      "start": 170.2977,
      "duration": 0.0008,
      "velocity": 127,
      "chip": "ym2612"
    },
    {
      "channel": 3,
      "note": 59,
      "start": 170.3007,
      "duration": 0.088,
      "velocity": 107,
      "chip": "ym2612"
    },
    {
      "channel": 3,
      "note": 52,
      "start": 170.4325,
      "duration": 0.0962,
      "velocity": 107,
      "chip": "ym2612"
    },
    {
      "channel": 4,
      "note": 52,
      "start": 170.572,
      "duration": 0.1167,
      "velocity": 100,
      "chip": "ym2612"
    },
    {
      "channel": 3,
      "note": 103,
      "start": 170.5755,
      "duration": 0.0008,
      "velocity": 127,
      "chip": "ym2612"
    },
    {
      "channel": 3,
      "note": 64,
      "start": 170.5785,
      "duration": 0.0702,
      "velocity": 107,
      "chip": "ym2612"
    },
    {
      "channel": 4,
      "note": 53,
      "start": 170.7118,
      "duration": 0.097,
      "velocity": 100,
      "chip": "ym2612"
    },
    {
      "channel": 3,
      "note": 59,
      "start": 170.7149,
      "duration": 0.0738,
      "velocity": 107,
      "chip": "ym2612"
    },
    {
      "channel": 4,
      "note": 52,
      "start": 170.8321,
      "duration": 0.1167,
      "velocity": 100,
      "chip": "ym2612"
    },
    {
      "channel": 3,
      "note": 103,
      "start": 170.8352,
      "duration": 0.0007,
      "velocity": 127,
      "chip": "ym2612"
    },
    {
      "channel": 3,
      "note": 64,
      "start": 170.8381,
      "duration": 0.0906,
      "velocity": 107,
      "chip": "ym2612"
    },
    {
      "channel": 3,
      "note": 59,
      "start": 170.9726,
      "duration": 0.0962,
      "velocity": 107,
      "chip": "ym2612"
    },
    {
      "channel": 4,
      "note": 52,
      "start": 171.112,
      "duration": 0.0968,
      "velocity": 100,
      "chip": "ym2612"
    },
    {
      "channel": 3,
      "note": 103,
      "start": 171.1151,
      "duration": 0.0008,
      "velocity": 127,
      "chip": "ym2612"
    },
    {
      "channel": 3,
      "note": 52,
      "start": 171.1181,
      "duration": 0.0706,
      "velocity": 107,
      "chip": "ym2612"
    },
    {
      "channel": 4,
      "note": 53,
      "start": 171.2519,
      "duration": 0.097,
      "velocity": 100,
      "chip": "ym2612"
    },
    {
      "channel": 3,
      "note": 64,
      "start": 171.2554,
      "duration": 0.0734,
      "velocity": 107,
      "chip": "ym2612"
    },
    {
      "channel": 1,
      "note": 72,
      "start": 171.3715,
      "duration": 1.0572,
      "velocity": 104,
      "chip": "ym2612"
    },
    {
      "channel": 4,
      "note": 52,
      "start": 171.3743,
      "duration": 0.1145,
      "velocity": 100,
      "chip": "ym2612"
    },
    {
      "channel": 3,
      "note": 103,
      "start": 171.3774,
      "duration": 0.0007,
      "velocity": 127,
      "chip": "ym2612"
    },
    {
      "channel": 3,
      "note": 59,
      "start": 171.3804,
      "duration": 0.0883,
      "velocity": 107,
      "chip": "ym2612"
    },
    {
      "channel": 3,
      "note": 52,
      "start": 171.5125,
      "duration": 0.0962,
      "velocity": 107,
      "chip": "ym2612"
    },
    {
      "channel": 4,
      "note": 52,
      "start": 171.652,
      "duration": 0.0968,
      "velocity": 100,
      "chip": "ym2612"
    },
    {
      "channel": 3,
      "note": 103,
      "start": 171.6551,
      "duration": 0.0008,
      "velocity": 127,
      "chip": "ym2612"
    },
    {
      "channel": 3,
      "note": 64,
      "start": 171.6581,
      "duration": 0.0706,
      "velocity": 107,
      "chip": "ym2612"
    },
    {
      "channel": 4,
      "note": 53,
      "start": 171.7922,
      "duration": 0.0966,
      "velocity": 100,
      "chip": "ym2612"
    },
    {
      "channel": 3,
      "note": 59,
      "start": 171.7954,
      "duration": 0.0734,
      "velocity": 107,
      "chip": "ym2612"
    },
    {
      "channel": 4,
      "note": 52,
      "start": 171.9121,
      "duration": 0.1167,
      "velocity": 100,
      "chip": "ym2612"
    },
    {
      "channel": 3,
      "note": 103,
      "start": 171.9152,
      "duration": 0.0007,
      "velocity": 127,
      "chip": "ym2612"
    },
    {
      "channel": 3,
      "note": 64,
      "start": 171.9181,
      "duration": 0.0906,
      "velocity": 107,
      "chip": "ym2612"
    },
    {
      "channel": 3,
      "note": 59,
      "start": 172.0525,
      "duration": 0.0762,
      "velocity": 107,
      "chip": "ym2612"
    },
    {
      "channel": 4,
      "note": 52,
      "start": 172.1919,
      "duration": 0.0968,
      "velocity": 100,
      "chip": "ym2612"
    },
    {
      "channel": 3,
      "note": 103,
      "start": 172.1951,
      "duration": 0.0008,
      "velocity": 127,
      "chip": "ym2612"
    },
    {
      "channel": 3,
      "note": 52,
      "start": 172.1981,
      "duration": 0.0706,
      "velocity": 107,
      "chip": "ym2612"
    },
    {
      "channel": 4,
      "note": 53,
      "start": 172.3118,
      "duration": 0.1171,
      "velocity": 100,
      "chip": "ym2612"
    },
    {
      "channel": 3,
      "note": 64,
      "start": 172.3149,
      "duration": 0.0938,
      "velocity": 107,
      "chip": "ym2612"
    },
    {
      "channel": 1,
      "note": 71,
      "start": 172.4524,
      "duration": 4.2962,
      "velocity": 104,
      "chip": "ym2612"
    },
    {
      "channel": 4,
      "note": 52,
      "start": 172.4553,
      "duration": 0.1135,
      "velocity": 100,
      "chip": "ym2612"
    },
    {
      "channel": 3,
      "note": 103,
      "start": 172.4584,
      "duration": 0.0008,
      "velocity": 127,
      "chip": "ym2612"
    },
    {
      "channel": 3,
      "note": 59,
      "start": 172.4614,
      "duration": 0.0873,
      "velocity": 107,
      "chip": "ym2612"
    },
    {
      "channel": 3,
      "note": 52,
      "start": 172.5925,
      "duration": 0.0762,
      "velocity": 107,
      "chip": "ym2612"
    },
    {
      "channel": 4,
      "note": 52,
      "start": 172.7321,
      "duration": 0.0967,
      "velocity": 100,
      "chip": "ym2612"
    },
    {
      "channel": 3,
      "note": 103,
      "start": 172.7352,
      "duration": 0.0007,
      "velocity": 127,
      "chip": "ym2612"
    },
    {
      "channel": 3,
      "note": 64,
      "start": 172.7381,
      "duration": 0.0706,
      "velocity": 107,
      "chip": "ym2612"
    },
    {
      "channel": 4,
      "note": 53,
      "start": 172.8519,
      "duration": 0.1169,
      "velocity": 100,
      "chip": "ym2612"
    },
    {
      "channel": 3,
      "note": 59,
      "start": 172.855,
      "duration": 0.0937,
      "velocity": 107,
      "chip": "ym2612"
    },
    {
      "channel": 4,
      "note": 52,
      "start": 172.992,
      "duration": 0.1167,
      "velocity": 100,
      "chip": "ym2612"
    },
    {
      "channel": 3,
      "note": 103,
      "start": 172.9951,
      "duration": 0.0007,
      "velocity": 127,
      "chip": "ym2612"
    },
    {
      "channel": 3,
      "note": 64,
      "start": 172.9981,
      "duration": 0.0906,
      "velocity": 107,
      "chip": "ym2612"
    },
    {
      "channel": 3,
      "note": 59,
      "start": 173.1326,
      "duration": 0.0761,
      "velocity": 107,
      "chip": "ym2612"
    },
    {
      "channel": 4,
      "note": 52,
      "start": 173.2719,
      "duration": 0.0969,
      "velocity": 100,
      "chip": "ym2612"
    },
    {
      "channel": 3,
      "note": 103,
      "start": 173.2751,
      "duration": 0.0737,
      "velocity": 127,
      "chip": "ym2612"
    },
    {
      "channel": 4,
      "note": 53,
      "start": 173.3919,
      "duration": 0.1169,
      "velocity": 100,
      "chip": "ym2612"
    },
    {
      "channel": 4,
      "note": 52,
      "start": 173.5323,
      "duration": 0.1164,
      "velocity": 100,
      "chip": "ym2612"
    },
    {
      "channel": 3,
      "note": 103,
      "start": 173.5353,
      "duration": 0.0013,
      "velocity": 127,
      "chip": "ym2612"
    },
    {
      "channel": 3,
      "note": 64,
      "start": 173.5388,
      "duration": 0.0899,
      "velocity": 107,
      "chip": "ym2612"
    },
    {
      "channel": 3,
      "note": 59,
      "start": 173.6725,
      "duration": 0.0762,
      "velocity": 107,
      "chip": "ym2612"
    },
    {
      "channel": 4,
      "note": 52,
      "start": 173.8119,
      "duration": 0.0968,
      "velocity": 100,
      "chip": "ym2612"
    },
    {
      "channel": 3,
      "note": 103,
      "start": 173.8151,
      "duration": 0.0008,
      "velocity": 127,
      "chip": "ym2612"
    },
    {
      "channel": 3,
      "note": 64,
      "start": 173.8181,
      "duration": 0.0706,
      "velocity": 107,
      "chip": "ym2612"
    },
    {
      "channel": 4,
      "note": 53,
      "start": 173.9318,
      "duration": 0.117,
      "velocity": 100,
      "chip": "ym2612"
    },
    {
      "channel": 3,
      "note": 59,
      "start": 173.9349,
      "duration": 0.0938,
      "velocity": 107,
      "chip": "ym2612"
    },
    {
      "channel": 4,
      "note": 52,
      "start": 174.0721,
      "duration": 0.1167,
      "velocity": 100,
      "chip": "ym2612"
    },
    {
      "channel": 3,
      "note": 103,
      "start": 174.0752,
      "duration": 0.0007,
      "velocity": 127,
      "chip": "ym2612"
    },
    {
      "channel": 3,
      "note": 52,
      "start": 174.0781,
      "duration": 0.0906,
      "velocity": 107,
      "chip": "ym2612"
    },
    {
      "channel": 3,
      "note": 64,
      "start": 174.2126,
      "duration": 0.0762,
      "velocity": 107,
      "chip": "ym2612"
    },
    {
      "channel": 4,
      "note": 52,
      "start": 174.3519,
      "duration": 0.0969,
      "velocity": 100,
      "chip": "ym2612"
    },
    {
      "channel": 3,
      "note": 103,
      "start": 174.3551,
      "duration": 0.0007,
      "velocity": 127,
      "chip": "ym2612"
    },
    {
      "channel": 3,
      "note": 59,
      "start": 174.358,
      "duration": 0.0707,
      "velocity": 107,
      "chip": "ym2612"
    },
    {
      "channel": 4,
      "note": 53,
      "start": 174.4719,
      "duration": 0.1169,
      "velocity": 100,
      "chip": "ym2612"
    },
    {
      "channel": 3,
      "note": 52,
      "start": 174.475,
      "duration": 0.0937,
      "velocity": 107,
      "chip": "ym2612"
    },
    {
      "channel": 4,
      "note": 52,
      "start": 174.6119,
      "duration": 0.1169,
      "velocity": 100,
      "chip": "ym2612"
    },
    {
      "channel": 3,
      "note": 103,
      "start": 174.6151,
      "duration": 0.0007,
      "velocity": 127,
      "chip": "ym2612"
    },
    {
      "channel": 3,
      "note": 64,
      "start": 174.618,
      "duration": 0.0707,
      "velocity": 107,
      "chip": "ym2612"
    },
    {
      "channel": 3,
      "note": 71,
      "start": 174.7525,
      "duration": 0.0762,
      "velocity": 107,
      "chip": "ym2612"
    },
    {
      "channel": 4,
      "note": 52,
      "start": 174.8719,
      "duration": 0.1168,
      "velocity": 100,
      "chip": "ym2612"
    },
    {
      "channel": 3,
      "note": 103,
      "start": 174.8754,
      "duration": 0.0007,
      "velocity": 127,
      "chip": "ym2612"
    },
    {
      "channel": 3,
      "note": 64,
      "start": 174.8784,
      "duration": 0.0903,
      "velocity": 107,
      "chip": "ym2612"
    },
    {
      "channel": 4,
      "note": 53,
      "start": 175.0118,
      "duration": 0.117,
      "velocity": 100,
      "chip": "ym2612"
    },
    {
      "channel": 3,
      "note": 59,
      "start": 175.0149,
      "duration": 0.0938,
      "velocity": 107,
      "chip": "ym2612"
    },
    {
      "channel": 4,
      "note": 52,
      "start": 175.1524,
      "duration": 0.1163,
      "velocity": 100,
      "chip": "ym2612"
    },
    {
      "channel": 3,
      "note": 103,
      "start": 175.1555,
      "duration": 0.0008,
      "velocity": 127,
      "chip": "ym2612"
    },
    {
      "channel": 3,
      "note": 64,
      "start": 175.1585,
      "duration": 0.0702,
      "velocity": 107,
      "chip": "ym2612"
    },
    {
      "channel": 3,
      "note": 59,
      "start": 175.2925,
      "duration": 0.0762,
      "velocity": 107,
      "chip": "ym2612"
    },
    {
      "channel": 4,
      "note": 52,
      "start": 175.412,
      "duration": 0.1168,
      "velocity": 100,
      "chip": "ym2612"
    },
    {
      "channel": 3,
      "note": 103,
      "start": 175.4151,
      "duration": 0.0008,
      "velocity": 127,
      "chip": "ym2612"
    },
    {
      "channel": 3,
      "note": 52,
      "start": 175.4181,
      "duration": 0.0907,
      "velocity": 107,
      "chip": "ym2612"
    },
    {
      "channel": 4,
      "note": 53,
      "start": 175.5519,
      "duration": 0.1169,
      "velocity": 100,
      "chip": "ym2612"
    },
    {
      "channel": 3,
      "note": 64,
      "start": 175.5554,
      "duration": 0.0934,
      "velocity": 107,
      "chip": "ym2612"
    },
    {
      "channel": 4,
      "note": 52,
      "start": 175.6921,
      "duration": 0.1167,
      "velocity": 100,
      "chip": "ym2612"
    },
    {
      "channel": 3,
      "note": 103,
      "start": 175.6952,
      "duration": 0.0007,
      "velocity": 127,
      "chip": "ym2612"
    },
    {
      "channel": 3,
      "note": 59,
      "start": 175.6981,
      "duration": 0.0706,
      "velocity": 107,
      "chip": "ym2612"
    },
    {
      "channel": 3,
      "note": 71,
      "start": 175.8325,
      "duration": 0.0762,
      "velocity": 107,
      "chip": "ym2612"
    },
    {
      "channel": 4,
      "note": 52,
      "start": 175.9519,
      "duration": 0.1169,
      "velocity": 100,
      "chip": "ym2612"
    },
    {
      "channel": 3,
      "note": 103,
      "start": 175.9551,
      "duration": 0.0007,
      "velocity": 127,
      "chip": "ym2612"
    },
    {
      "channel": 3,
      "note": 64,
      "start": 175.958,
      "duration": 0.0907,
      "velocity": 107,
      "chip": "ym2612"
    },
    {
      "channel": 4,
      "note": 53,
      "start": 176.0919,
      "duration": 0.1169,
      "velocity": 100,
      "chip": "ym2612"
    },
    {
      "channel": 3,
      "note": 59,
      "start": 176.095,
      "duration": 0.0937,
      "velocity": 107,
      "chip": "ym2612"
    },
    {
      "channel": 4,
      "note": 52,
      "start": 176.232,
      "duration": 0.0967,
      "velocity": 100,
      "chip": "ym2612"
    },
    {
      "channel": 3,
      "note": 103,
      "start": 176.2351,
      "duration": 0.0007,
      "velocity": 127,
      "chip": "ym2612"
    },
    {
      "channel": 3,
      "note": 64,
      "start": 176.2381,
      "duration": 0.0706,
      "velocity": 107,
      "chip": "ym2612"
    },
    {
      "channel": 3,
      "note": 59,
      "start": 176.3725,
      "duration": 0.0762,
      "velocity": 107,
      "chip": "ym2612"
    },
    {
      "channel": 4,
      "note": 52,
      "start": 176.4919,
      "duration": 0.1168,
      "velocity": 100,
      "chip": "ym2612"
    },
    {
      "channel": 3,
      "note": 103,
      "start": 176.4951,
      "duration": 0.0938,
      "velocity": 127,
      "chip": "ym2612"
    },
    {
      "channel": 0,
      "note": 52,
      "start": 176.4981,
      "duration": 0.0906,
      "velocity": 107,
      "chip": "ym2612"
    },
    {
      "channel": 4,
      "note": 53,
      "start": 176.6317,
      "duration": 0.1171,
      "velocity": 100,
      "chip": "ym2612"
    },
    {
      "channel": 0,
      "note": 64,
      "start": 176.6347,
      "duration": 0.0938,
      "velocity": 107,
      "chip": "ym2612"
    },
    {
      "channel": 1,
      "note": 69,
      "start": 176.772,
      "duration": 1.5967,
      "velocity": 104,
      "chip": "ym2612"
    },
    {
      "channel": 5,
      "note": 84,
      "start": 176.7751,
      "duration": 4.2738,
      "velocity": 104,
      "chip": "ym2612"
    },
    {
      "channel": 2,
      "note": 74,
      "start": 176.7779,
      "duration": 8.311,
      "velocity": 104,
      "chip": "ym2612"
    },
    {
      "channel": 3,
      "note": 77,
      "start": 176.7808,
      "duration": 8.3078,
      "velocity": 104,
      "chip": "ym2612"
    },
    {
      "channel": 4,
      "note": 50,
      "start": 176.7835,
      "duration": 0.0853,
      "velocity": 100,
      "chip": "ym2612"
    },
    {
      "channel": 0,
      "note": 103,
      "start": 176.7866,
      "duration": 0.0007,
      "velocity": 127,
      "chip": "ym2612"
    },
    {
      "channel": 0,
      "note": 62,
      "start": 176.7897,
      "duration": 0.059,
      "velocity": 107,
      "chip": "ym2612"
    },
    {
      "channel": 0,
      "note": 57,
      "start": 176.9124,
      "duration": 0.0761,
      "velocity": 107,
      "chip": "ym2612"
    },
    {
      "channel": 4,
      "note": 50,
      "start": 177.0323,
      "duration": 0.1165,
      "velocity": 100,
      "chip": "ym2612"
    },
    {
      "channel": 0,
      "note": 103,
      "start": 177.0354,
      "duration": 0.0008,
      "velocity": 127,
      "chip": "ym2612"
    },
    {
      "channel": 0,
      "note": 62,
      "start": 177.0384,
      "duration": 0.0903,
      "velocity": 107,
      "chip": "ym2612"
    },
    {
      "channel": 4,
      "note": 53,
      "start": 177.1719,
      "duration": 0.1169,
      "velocity": 100,
      "chip": "ym2612"
    },
    {
      "channel": 0,
      "note": 69,
      "start": 177.1749,
      "duration": 0.0737,
      "velocity": 107,
      "chip": "ym2612"
    },
    {
      "channel": 4,
      "note": 50,
      "start": 177.312,
      "duration": 0.0967,
      "velocity": 100,
      "chip": "ym2612"
    },
    {
      "channel": 0,
      "note": 103,
      "start": 177.3151,
      "duration": 0.0007,
      "velocity": 127,
      "chip": "ym2612"
    },
    {
      "channel": 0,
      "note": 62,
      "start": 177.3181,
      "duration": 0.0705,
      "velocity": 107,
      "chip": "ym2612"
    },
    {
      "channel": 0,
      "note": 57,
      "start": 177.4324,
      "duration": 0.0962,
      "velocity": 107,
      "chip": "ym2612"
    },
    {
      "channel": 4,
      "note": 50,
      "start": 177.5721,
      "duration": 0.1167,
      "velocity": 100,
      "chip": "ym2612"
    },
    {
      "channel": 0,
      "note": 103,
      "start": 177.5752,
      "duration": 0.0007,
      "velocity": 127,
      "chip": "ym2612"
    },
    {
      "channel": 0,
      "note": 69,
      "start": 177.5781,
      "duration": 0.0905,
      "velocity": 107,
      "chip": "ym2612"
    },
    {
      "channel": 4,
      "note": 53,
      "start": 177.7119,
      "duration": 0.1168,
      "velocity": 100,
      "chip": "ym2612"
    },
    {
      "channel": 0,
      "note": 62,
      "start": 177.7153,
      "duration": 0.0733,
      "velocity": 107,
      "chip": "ym2612"
    },
    {
      "channel": 4,
      "note": 50,
      "start": 177.8521,
      "duration": 0.0967,
      "velocity": 100,
      "chip": "ym2612"
    },
    {
      "channel": 0,
      "note": 103,
      "start": 177.8552,
      "duration": 0.0007,
      "velocity": 127,
      "chip": "ym2612"
    },
    {
      "channel": 0,
      "note": 57,
      "start": 177.8581,
      "duration": 0.0705,
      "velocity": 107,
      "chip": "ym2612"
    },
    {
      "channel": 0,
      "note": 62,
      "start": 177.9724,
      "duration": 0.0962,
      "velocity": 107,
      "chip": "ym2612"
    },
    {
      "channel": 4,
      "note": 50,
      "start": 178.1119,
      "duration": 0.1169,
      "velocity": 100,
      "chip": "ym2612"
    },
    {
      "channel": 0,
      "note": 103,
      "start": 178.1151,
      "duration": 0.0007,
      "velocity": 127,
      "chip": "ym2612"
    },
    {
      "channel": 0,
      "note": 69,
      "start": 178.118,
      "duration": 0.0907,
      "velocity": 107,
      "chip": "ym2612"
    },
    {
      "channel": 4,
      "note": 53,
      "start": 178.2519,
      "duration": 0.117,
      "velocity": 100,
      "chip": "ym2612"
    },
    {
      "channel": 0,
      "note": 62,
      "start": 178.2549,
      "duration": 0.0737,
      "velocity": 107,
      "chip": "ym2612"
    },
    {
      "channel": 1,
      "note": 64,
      "start": 178.3918,
      "duration": 0.4968,
      "velocity": 104,
      "chip": "ym2612"
    },
    {
      "channel": 4,
      "note": 50,
      "start": 178.3946,
      "duration": 0.0942,
      "velocity": 100,
      "chip": "ym2612"
    },
    {
      "channel": 0,
      "note": 103,
      "start": 178.3978,
      "duration": 0.0007,
      "velocity": 127,
      "chip": "ym2612"
    },
    {
      "channel": 0,
      "note": 57,
      "start": 178.4007,
      "duration": 0.068,
      "velocity": 107,
      "chip": "ym2612"
    },
    {
      "channel": 0,
      "note": 69,
      "start": 178.5124,
      "duration": 0.0962,
      "velocity": 107,
      "chip": "ym2612"
    },
    {
      "channel": 4,
      "note": 50,
      "start": 178.6524,
      "duration": 0.1163,
      "velocity": 100,
      "chip": "ym2612"
    },
    {
      "channel": 0,
      "note": 103,
      "start": 178.6556,
      "duration": 0.0007,
      "velocity": 127,
      "chip": "ym2612"
    },
    {
      "channel": 0,
      "note": 62,
      "start": 178.6585,
      "duration": 0.0901,
      "velocity": 107,
      "chip": "ym2612"
    },
    {
      "channel": 4,
      "note": 53,
      "start": 178.7918,
      "duration": 0.097,
      "velocity": 100,
      "chip": "ym2612"
    },
    {
      "channel": 0,
      "note": 57,
      "start": 178.7948,
      "duration": 0.0738,
      "velocity": 107,
      "chip": "ym2612"
    },
    {
      "channel": 1,
      "note": 72,
      "start": 178.9322,
      "duration": 2.1164,
      "velocity": 104,
      "chip": "ym2612"
    },
    {
      "channel": 4,
      "note": 50,
      "start": 178.9349,
      "duration": 0.0939,
      "velocity": 100,
      "chip": "ym2612"
    },
    {
      "channel": 0,
      "note": 103,
      "start": 178.9381,
      "duration": 0.0008,
      "velocity": 127,
      "chip": "ym2612"
    },
    {
      "channel": 0,
      "note": 62,
      "start": 178.9411,
      "duration": 0.0676,
      "velocity": 107,
      "chip": "ym2612"
    },
    {
      "channel": 0,
      "note": 69,
      "start": 179.0524,
      "duration": 0.0961,
      "velocity": 107,
      "chip": "ym2612"
    },
    {
      "channel": 4,
      "note": 50,
      "start": 179.1919,
      "duration": 0.1169,
      "velocity": 100,
      "chip": "ym2612"
    },
    {
      "channel": 0,
      "note": 103,
      "start": 179.1954,
      "duration": 0.0008,
      "velocity": 127,
      "chip": "ym2612"
    },
    {
      "channel": 0,
      "note": 62,
      "start": 179.1984,
      "duration": 0.0903,
      "velocity": 107,
      "chip": "ym2612"
    },
    {
      "channel": 4,
      "note": 53,
      "start": 179.3319,
      "duration": 0.0969,
      "velocity": 100,
      "chip": "ym2612"
    },
    {
      "channel": 0,
      "note": 57,
      "start": 179.3349,
      "duration": 0.0738,
      "velocity": 107,
      "chip": "ym2612"
    },
    {
      "channel": 4,
      "note": 50,
      "start": 179.4721,
      "duration": 0.0967,
      "velocity": 100,
      "chip": "ym2612"
    },
    {
      "channel": 0,
      "note": 103,
      "start": 179.4752,
      "duration": 0.0007,
      "velocity": 127,
      "chip": "ym2612"
    },
    {
      "channel": 0,
      "note": 62,
      "start": 179.4781,
      "duration": 0.0705,
      "velocity": 107,
      "chip": "ym2612"
    },
    {
      "channel": 0,
      "note": 69,
      "start": 179.5924,
      "duration": 0.0961,
      "velocity": 107,
      "chip": "ym2612"
    },
    {
      "channel": 4,
      "note": 50,
      "start": 179.7319,
      "duration": 0.1168,
      "velocity": 100,
      "chip": "ym2612"
    },
    {
      "channel": 0,
      "note": 103,
      "start": 179.7351,
      "duration": 0.0008,
      "velocity": 127,
      "chip": "ym2612"
    },
    {
      "channel": 0,
      "note": 62,
      "start": 179.7381,
      "duration": 0.0705,
      "velocity": 107,
      "chip": "ym2612"
    },
    {
      "channel": 4,
      "note": 53,
      "start": 179.8718,
      "duration": 0.097,
      "velocity": 100,
      "chip": "ym2612"
    },
    {
      "channel": 0,
      "note": 57,
      "start": 179.8752,
      "duration": 0.0734,
      "velocity": 107,
      "chip": "ym2612"
    },
    {
      "channel": 4,
      "note": 50,
      "start": 179.9921,
      "duration": 0.1167,
      "velocity": 100,
      "chip": "ym2612"
    },
    {
      "channel": 0,
      "note": 103,
      "start": 179.9952,
      "duration": 0.0007,
      "velocity": 127,
      "chip": "ym2612"
    },
    {
      "channel": 0,
      "note": 62,
      "start": 179.9981,
      "duration": 0.0905,
      "velocity": 107,
      "chip": "ym2612"
    },
    {
      "channel": 0,
      "note": 57,
      "start": 180.1324,
      "duration": 0.0962,
      "velocity": 107,
      "chip": "ym2612"
    },
    {
      "channel": 4,
      "note": 50,
      "start": 180.2719,
      "duration": 0.1168,
      "velocity": 100,
      "chip": "ym2612"
    },
    {
      "channel": 0,
      "note": 103,
      "start": 180.2751,
      "duration": 0.0008,
      "velocity": 127,
      "chip": "ym2612"
    },
    {
      "channel": 0,
      "note": 69,
      "start": 180.2781,
      "duration": 0.0705,
      "velocity": 107,
      "chip": "ym2612"
    },
    {
      "channel": 4,
      "note": 53,
      "start": 180.4122,
      "duration": 0.0966,
      "velocity": 100,
      "chip": "ym2612"
    },
    {
      "channel": 0,
      "note": 62,
      "start": 180.4152,
      "duration": 0.0734,
      "velocity": 107,
      "chip": "ym2612"
    },
    {
      "channel": 4,
      "note": 50,
      "start": 180.5321,
      "duration": 0.1167,
      "velocity": 100,
      "chip": "ym2612"
    },
    {
      "channel": 0,
      "note": 103,
      "start": 180.5352,
      "duration": 0.0007,
      "velocity": 127,
      "chip": "ym2612"
    },
    {
      "channel": 0,
      "note": 57,
      "start": 180.5381,
      "duration": 0.0905,
      "velocity": 107,
      "chip": "ym2612"
    },
    {
      "channel": 0,
      "note": 69,
      "start": 180.6724,
      "duration": 0.0962,
      "velocity": 107,
      "chip": "ym2612"
    },
    {
      "channel": 4,
      "note": 50,
      "start": 180.8121,
      "duration": 0.1167,
      "velocity": 100,
      "chip": "ym2612"
    },
    {
      "channel": 0,
      "note": 103,
      "start": 180.8152,
      "duration": 0.0007,
      "velocity": 127,
      "chip": "ym2612"
    },
    {
      "channel": 0,
      "note": 62,
      "start": 180.8181,
      "duration": 0.0705,
      "velocity": 107,
      "chip": "ym2612"
    },
    {
      "channel": 4,
      "note": 53,
      "start": 180.9518,
      "duration": 0.097,
      "velocity": 100,
      "chip": "ym2612"
    },
    {
      "channel": 0,
      "note": 57,
      "start": 180.9548,
      "duration": 0.0738,
      "velocity": 107,
      "chip": "ym2612"
    },
    {
      "channel": 1,
      "note": 71,
      "start": 181.0725,
      "duration": 4.2962,
      "velocity": 104,
      "chip": "ym2612"
    },
    {
      "channel": 5,
      "note": 83,
      "start": 181.0754,
      "duration": 4.0134,
      "velocity": 104,
      "chip": "ym2612"
    },
    {
      "channel": 4,
      "note": 50,
      "start": 181.0781,
      "duration": 0.1107,
      "velocity": 100,
      "chip": "ym2612"
    },
    {
      "channel": 0,
      "note": 103,
      "start": 181.0812,
      "duration": 0.0008,
      "velocity": 127,
      "chip": "ym2612"
    },
    {
      "channel": 0,
      "note": 69,
      "start": 181.0841,
      "duration": 0.0844,
      "velocity": 107,
      "chip": "ym2612"
    },
    {
      "channel": 0,
      "note": 62,
      "start": 181.2123,
      "duration": 0.0962,
      "velocity": 107,
      "chip": "ym2612"
    },
    {
      "channel": 4,
      "note": 50,
      "start": 181.3519,
      "duration": 0.0968,
      "velocity": 100,
      "chip": "ym2612"
    },
    {
      "channel": 0,
      "note": 103,
      "start": 181.3551,
      "duration": 0.0008,
      "velocity": 127,
      "chip": "ym2612"
    },
    {
      "channel": 0,
      "note": 57,
      "start": 181.3581,
      "duration": 0.0705,
      "velocity": 107,
      "chip": "ym2612"
    },
    {
      "channel": 4,
      "note": 53,
      "start": 181.4918,
      "duration": 0.0969,
      "velocity": 100,
      "chip": "ym2612"
    },
    {
      "channel": 0,
      "note": 69,
      "start": 181.4948,
      "duration": 0.0738,
      "velocity": 107,
      "chip": "ym2612"
    },
    {
      "channel": 4,
      "note": 50,
      "start": 181.612,
      "duration": 0.1167,
      "velocity": 100,
      "chip": "ym2612"
    },
    {
      "channel": 0,
      "note": 103,
      "start": 181.6151,
      "duration": 0.0007,
      "velocity": 127,
      "chip": "ym2612"
    },
    {
      "channel": 0,
      "note": 62,
      "start": 181.6181,
      "duration": 0.0905,
      "velocity": 107,
      "chip": "ym2612"
    },
    {
      "channel": 0,
      "note": 57,
      "start": 181.7524,
      "duration": 0.0962,
      "velocity": 107,
      "chip": "ym2612"
    },
    {
      "channel": 4,
      "note": 50,
      "start": 181.892,
      "duration": 0.0968,
      "velocity": 100,
      "chip": "ym2612"
    },
    {
      "channel": 0,
      "note": 103,
      "start": 181.8951,
      "duration": 0.0008,
      "velocity": 127,
      "chip": "ym2612"
    },
    {
      "channel": 0,
      "note": 62,
      "start": 181.8981,
      "duration": 0.0705,
      "velocity": 107,
      "chip": "ym2612"
    },
    {
      "channel": 4,
      "note": 53,
      "start": 182.0319,
      "duration": 0.0968,
      "velocity": 100,
      "chip": "ym2612"
    },
    {
      "channel": 0,
      "note": 57,
      "start": 182.0353,
      "duration": 0.0733,
      "velocity": 107,
      "chip": "ym2612"
    },
    {
      "channel": 4,
      "note": 50,
      "start": 182.1522,
      "duration": 0.1165,
      "velocity": 100,
      "chip": "ym2612"
    },
    {
      "channel": 0,
      "note": 103,
      "start": 182.1554,
      "duration": 0.0007,
      "velocity": 127,
      "chip": "ym2612"
    },
    {
      "channel": 0,
      "note": 50,
      "start": 182.1584,
      "duration": 0.0902,
      "velocity": 107,
      "chip": "ym2612"
    },
    {
      "channel": 0,
      "note": 62,
      "start": 182.2924,
      "duration": 0.0762,
      "velocity": 107,
      "chip": "ym2612"
    },
    {
      "channel": 4,
      "note": 50,
      "start": 182.432,
      "duration": 0.0968,
      "velocity": 100,
      "chip": "ym2612"
    },
    {
      "channel": 0,
      "note": 103,
      "start": 182.4351,
      "duration": 0.0008,
      "velocity": 127,
      "chip": "ym2612"
    },
    {
      "channel": 0,
      "note": 57,
      "start": 182.4381,
      "duration": 0.0705,
      "velocity": 107,
      "chip": "ym2612"
    },
    {
      "channel": 4,
      "note": 53,
      "start": 182.5519,
      "duration": 0.1169,
      "velocity": 100,
      "chip": "ym2612"
    },
    {
      "channel": 0,
      "note": 69,
      "start": 182.5549,
      "duration": 0.0937,
      "velocity": 107,
      "chip": "ym2612"
    },
    {
      "channel": 4,
      "note": 50,
      "start": 182.692,
      "duration": 0.1167,
      "velocity": 100,
      "chip": "ym2612"
    },
    {
      "channel": 0,
      "note": 103,
      "start": 182.6951,
      "duration": 0.0007,
      "velocity": 127,
      "chip": "ym2612"
    },
    {
      "channel": 0,
      "note": 62,
      "start": 182.6981,
      "duration": 0.0905,
      "velocity": 107,
      "chip": "ym2612"
    },
    {
      "channel": 0,
      "note": 57,
      "start": 182.8324,
      "duration": 0.0762,
      "velocity": 107,
      "chip": "ym2612"
    },
    {
      "channel": 4,
      "note": 50,
      "start": 182.972,
      "duration": 0.0968,
      "velocity": 100,
      "chip": "ym2612"
    },
    {
      "channel": 0,
      "note": 103,
      "start": 182.9751,
      "duration": 0.0008,
      "velocity": 127,
      "chip": "ym2612"
    },
    {
      "channel": 0,
      "note": 62,
      "start": 182.9781,
      "duration": 0.0705,
      "velocity": 107,
      "chip": "ym2612"
    },
    {
      "channel": 4,
      "note": 53,
      "start": 183.0919,
      "duration": 0.1169,
      "velocity": 100,
      "chip": "ym2612"
    },
    {
      "channel": 0,
      "note": 62,
      "start": 183.0949,
      "duration": 0.0937,
      "velocity": 107,
      "chip": "ym2612"
    },
    {
      "channel": 4,
      "note": 50,
      "start": 183.232,
      "duration": 0.1167,
      "velocity": 100,
      "chip": "ym2612"
    },
    {
      "channel": 0,
      "note": 103,
      "start": 183.2351,
      "duration": 0.0007,
      "velocity": 127,
      "chip": "ym2612"
    },
    {
      "channel": 0,
      "note": 57,
      "start": 183.2381,
      "duration": 0.0905,
      "velocity": 107,
      "chip": "ym2612"
    },
    {
      "channel": 0,
      "note": 69,
      "start": 183.3724,
      "duration": 0.0762,
      "velocity": 107,
      "chip": "ym2612"
    },
    {
      "channel": 4,
      "note": 50,
      "start": 183.5119,
      "duration": 0.0969,
      "velocity": 100,
      "chip": "ym2612"
    },
    {
      "channel": 0,
      "note": 103,
      "start": 183.5154,
      "duration": 0.0008,
      "velocity": 127,
      "chip": "ym2612"
    },
    {
      "channel": 0,
      "note": 62,
      "start": 183.5184,
      "duration": 0.0703,
      "velocity": 107,
      "chip": "ym2612"
    },
    {
      "channel": 4,
      "note": 53,
      "start": 183.6319,
      "duration": 0.1169,
      "velocity": 100,
      "chip": "ym2612"
    },
    {
      "channel": 0,
      "note": 57,
      "start": 183.6349,
      "duration": 0.0937,
      "velocity": 107,
      "chip": "ym2612"
    },
    {
      "channel": 4,
      "note": 50,
      "start": 183.7724,
      "duration": 0.1163,
      "velocity": 100,
      "chip": "ym2612"
    },
    {
      "channel": 0,
      "note": 103,
      "start": 183.7756,
      "duration": 0.0007,
      "velocity": 127,
      "chip": "ym2612"
    },
    {
      "channel": 0,
      "note": 62,
      "start": 183.7785,
      "duration": 0.0901,
      "velocity": 107,
      "chip": "ym2612"
    },
    {
      "channel": 0,
      "note": 62,
      "start": 183.9124,
      "duration": 0.0762,
      "velocity": 107,
      "chip": "ym2612"
    },
    {
      "channel": 4,
      "note": 50,
      "start": 184.0521,
      "duration": 0.0967,
      "velocity": 100,
      "chip": "ym2612"
    },
    {
      "channel": 0,
      "note": 103,
      "start": 184.0552,
      "duration": 0.0007,
      "velocity": 127,
      "chip": "ym2612"
    },
    {
      "channel": 0,
      "note": 57,
      "start": 184.0581,
      "duration": 0.0705,
      "velocity": 107,
      "chip": "ym2612"
    },
    {
      "channel": 4,
      "note": 53,
      "start": 184.1719,
      "duration": 0.1169,
      "velocity": 100,
      "chip": "ym2612"
    },
    {
      "channel": 0,
      "note": 69,
      "start": 184.1753,
      "duration": 0.0933,
      "velocity": 107,
      "chip": "ym2612"
    },
    {
      "channel": 4,
      "note": 50,
      "start": 184.3119,
      "duration": 0.1169,
      "velocity": 100,
      "chip": "ym2612"
    },
    {
      "channel": 0,
      "note": 103,
      "start": 184.3151,
      "duration": 0.0007,
      "velocity": 127,
      "chip": "ym2612"
    },
    {
      "channel": 0,
      "note": 62,
      "start": 184.318,
      "duration": 0.0907,
      "velocity": 107,
      "chip": "ym2612"
    },
    {
      "channel": 0,
      "note": 57,
      "start": 184.4524,
      "duration": 0.0761,
      "velocity": 107,
      "chip": "ym2612"
    },
    {
      "channel": 4,
      "note": 50,
      "start": 184.5919,
      "duration": 0.0968,
      "velocity": 100,
      "chip": "ym2612"
    },
    {
      "channel": 0,
      "note": 103,
      "start": 184.5951,
      "duration": 0.0008,
      "velocity": 127,
      "chip": "ym2612"
    },
    {
      "channel": 0,
      "note": 62,
      "start": 184.5981,
      "duration": 0.0705,
      "velocity": 107,
      "chip": "ym2612"
    },
    {
      "channel": 4,
      "note": 53,
      "start": 184.7118,
      "duration": 0.117,
      "velocity": 100,
      "chip": "ym2612"
    },
    {
      "channel": 0,
      "note": 57,
      "start": 184.7148,
      "duration": 0.0939,
      "velocity": 107,
      "chip": "ym2612"
    },
    {
      "channel": 4,
      "note": 50,
      "start": 184.8521,
      "duration": 0.1167,
      "velocity": 100,
      "chip": "ym2612"
    },
    {
      "channel": 0,
      "note": 103,
      "start": 184.8552,
      "duration": 0.0007,
      "velocity": 127,
      "chip": "ym2612"
    },
    {
      "channel": 0,
      "note": 62,
      "start": 184.8581,
      "duration": 0.0705,
      "velocity": 107,
      "chip": "ym2612"
    },
    {
      "channel": 0,
      "note": 69,
      "start": 184.9924,
      "duration": 0.0761,
      "velocity": 107,
      "chip": "ym2612"
    },
    {
      "channel": 4,
      "note": 50,
      "start": 185.1119,
      "duration": 0.1169,
      "velocity": 100,
      "chip": "ym2612"
    },
    {
      "channel": 0,
      "note": 103,
      "start": 185.1151,
      "duration": 0.0936,
      "velocity": 127,
      "chip": "ym2612"
    },
    {
      "channel": 3,
      "note": 62,
      "start": 185.1181,
      "duration": 0.0908,
      "velocity": 107,
      "chip": "ym2612"
    },
    {
      "channel": 4,
      "note": 53,
      "start": 185.2517,
      "duration": 0.1171,
      "velocity": 100,
      "chip": "ym2612"
    },
    {
      "channel": 3,
      "note": 50,
      "start": 185.2549,
      "duration": 0.0939,
      "velocity": 107,
      "chip": "ym2612"
    },
    {
      "channel": 1,
      "note": 64,
      "start": 185.3921,
      "duration": 2.1366,
      "velocity": 104,
      "chip": "ym2612"
    },
    {
      "channel": 5,
      "note": 83,
      "start": 185.3956,
      "duration": 8.5935,
      "velocity": 104,
      "chip": "ym2612"
    },
    {
      "channel": 2,
      "note": 77,
      "start": 185.3981,
      "duration": 8.5911,
      "velocity": 104,
      "chip": "ym2612"
    },
    {
      "channel": 0,
      "note": 76,
      "start": 185.401,
      "duration": 8.5877,
      "velocity": 104,
      "chip": "ym2612"
    },
    {
      "channel": 4,
      "note": 52,
      "start": 185.4037,
      "duration": 0.105,
      "velocity": 100,
      "chip": "ym2612"
    },
    {
      "channel": 3,
      "note": 103,
      "start": 185.4068,
      "duration": 0.0007,
      "velocity": 127,
      "chip": "ym2612"
    },
    {
      "channel": 3,
      "note": 64,
      "start": 185.4099,
      "duration": 0.0588,
      "velocity": 107,
      "chip": "ym2612"
    },
    {
      "channel": 3,
      "note": 59,
      "start": 185.5325,
      "duration": 0.0762,
      "velocity": 107,
      "chip": "ym2612"
    },
    {
      "channel": 4,
      "note": 52,
      "start": 185.6523,
      "duration": 0.1165,
      "velocity": 100,
      "chip": "ym2612"
    },
    {
      "channel": 3,
      "note": 103,
      "start": 185.6554,
      "duration": 0.0008,
      "velocity": 127,
      "chip": "ym2612"
    },
    {
      "channel": 3,
      "note": 52,
      "start": 185.6584,
      "duration": 0.0903,
      "velocity": 107,
      "chip": "ym2612"
    },
    {
      "channel": 4,
      "note": 53,
      "start": 185.7919,
      "duration": 0.1169,
      "velocity": 100,
      "chip": "ym2612"
    },
    {
      "channel": 3,
      "note": 64,
      "start": 185.795,
      "duration": 0.0937,
      "velocity": 107,
      "chip": "ym2612"
    },
    {
      "channel": 4,
      "note": 52,
      "start": 185.932,
      "duration": 0.1167,
      "velocity": 100,
      "chip": "ym2612"
    },
    {
      "channel": 3,
      "note": 103,
      "start": 185.9351,
      "duration": 0.0007,
      "velocity": 127,
      "chip": "ym2612"
    },
    {
      "channel": 3,
      "note": 59,
      "start": 185.9381,
      "duration": 0.0706,
      "velocity": 107,
      "chip": "ym2612"
    },
    {
      "channel": 3,
      "note": 52,
      "start": 186.0724,
      "duration": 0.0762,
      "velocity": 107,
      "chip": "ym2612"
    },
    {
      "channel": 4,
      "note": 52,
      "start": 186.1919,
      "duration": 0.1168,
      "velocity": 100,
      "chip": "ym2612"
    },
    {
      "channel": 3,
      "note": 103,
      "start": 186.1951,
      "duration": 0.0008,
      "velocity": 127,
      "chip": "ym2612"
    },
    {
      "channel": 3,
      "note": 64,
      "start": 186.1981,
      "duration": 0.0906,
      "velocity": 107,
      "chip": "ym2612"
    },
    {
      "channel": 4,
      "note": 53,
      "start": 186.3318,
      "duration": 0.1169,
      "velocity": 100,
      "chip": "ym2612"
    },
    {
      "channel": 3,
      "note": 59,
      "start": 186.3353,
      "duration": 0.0934,
      "velocity": 107,
      "chip": "ym2612"
    },
    {
      "channel": 4,
      "note": 52,
      "start": 186.472,
      "duration": 0.0967,
      "velocity": 100,
      "chip": "ym2612"
    },
    {
      "channel": 3,
      "note": 103,
      "start": 186.4751,
      "duration": 0.0007,
      "velocity": 127,
      "chip": "ym2612"
    },
    {
      "channel": 3,
      "note": 71,
      "start": 186.4781,
      "duration": 0.0706,
      "velocity": 107,
      "chip": "ym2612"
    },
    {
      "channel": 3,
      "note": 64,
      "start": 186.6125,
      "duration": 0.0762,
      "velocity": 107,
      "chip": "ym2612"
    },
    {
      "channel": 4,
      "note": 52,
      "start": 186.7319,
      "duration": 0.1169,
      "velocity": 100,
      "chip": "ym2612"
    },
    {
      "channel": 3,
      "note": 103,
      "start": 186.7351,
      "duration": 0.0008,
      "velocity": 127,
      "chip": "ym2612"
    },
    {
      "channel": 3,
      "note": 59,
      "start": 186.7381,
      "duration": 0.0906,
      "velocity": 107,
      "chip": "ym2612"
    },
    {
      "channel": 4,
      "note": 53,
      "start": 186.8719,
      "duration": 0.1169,
      "velocity": 100,
      "chip": "ym2612"
    },
    {
      "channel": 3,
      "note": 64,
      "start": 186.8749,
      "duration": 0.0938,
      "velocity": 107,
      "chip": "ym2612"
    },
    {
      "channel": 4,
      "note": 52,
      "start": 187.0121,
      "duration": 0.0967,
      "velocity": 100,
      "chip": "ym2612"
    },
    {
      "channel": 3,
      "note": 103,
      "start": 187.0152,
      "duration": 0.0007,
      "velocity": 127,
      "chip": "ym2612"
    },
    {
      "channel": 3,
      "note": 59,
      "start": 187.0181,
      "duration": 0.0706,
      "velocity": 107,
      "chip": "ym2612"
    },
    {
      "channel": 3,
      "note": 64,
      "start": 187.1526,
      "duration": 0.0762,
      "velocity": 107,
      "chip": "ym2612"
    },
    {
      "channel": 4,
      "note": 52,
      "start": 187.2722,
      "duration": 0.1165,
      "velocity": 100,
      "chip": "ym2612"
    },
    {
      "channel": 3,
      "note": 103,
      "start": 187.2754,
      "duration": 0.0007,
      "velocity": 127,
      "chip": "ym2612"
    },
    {
      "channel": 3,
      "note": 71,
      "start": 187.2784,
      "duration": 0.0903,
      "velocity": 107,
      "chip": "ym2612"
    },
    {
      "channel": 4,
      "note": 53,
      "start": 187.4118,
      "duration": 0.1171,
      "velocity": 100,
      "chip": "ym2612"
    },
    {
      "channel": 3,
      "note": 64,
      "start": 187.4149,
      "duration": 0.0738,
      "velocity": 107,
      "chip": "ym2612"
    },
    {
      "channel": 1,
      "note": 77,
      "start": 187.5515,
      "duration": 2.1172,
      "velocity": 104,
      "chip": "ym2612"
    },
    {
      "channel": 4,
      "note": 52,
      "start": 187.5543,
      "duration": 0.0944,
      "velocity": 100,
      "chip": "ym2612"
    },
    {
      "channel": 3,
      "note": 103,
      "start": 187.5574,
      "duration": 0.0007,
      "velocity": 127,
      "chip": "ym2612"
    },
    {
      "channel": 3,
      "note": 59,
      "start": 187.5604,
      "duration": 0.0683,
      "velocity": 107,
      "chip": "ym2612"
    },
    {
      "channel": 3,
      "note": 52,
      "start": 187.6724,
      "duration": 0.0963,
      "velocity": 107,
      "chip": "ym2612"
    },
    {
      "channel": 4,
      "note": 52,
      "start": 187.8119,
      "duration": 0.1168,
      "velocity": 100,
      "chip": "ym2612"
    },
    {
      "channel": 3,
      "note": 103,
      "start": 187.8154,
      "duration": 0.0007,
      "velocity": 127,
      "chip": "ym2612"
    },
    {
      "channel": 3,
      "note": 64,
      "start": 187.8184,
      "duration": 0.0903,
      "velocity": 107,
      "chip": "ym2612"
    },
    {
      "channel": 4,
      "note": 53,
      "start": 187.9518,
      "duration": 0.117,
      "velocity": 100,
      "chip": "ym2612"
    },
    {
      "channel": 3,
      "note": 59,
      "start": 187.9549,
      "duration": 0.0738,
      "velocity": 107,
      "chip": "ym2612"
    },
    {
      "channel": 4,
      "note": 52,
      "start": 188.0921,
      "duration": 0.0967,
      "velocity": 100,
      "chip": "ym2612"
    },
    {
      "channel": 3,
      "note": 103,
      "start": 188.0952,
      "duration": 0.0007,
      "velocity": 127,
      "chip": "ym2612"
    },
    {
      "channel": 3,
      "note": 64,
      "start": 188.0981,
      "duration": 0.0706,
      "velocity": 107,
      "chip": "ym2612"
    },
    {
      "channel": 3,
      "note": 71,
      "start": 188.2125,
      "duration": 0.0962,
      "velocity": 107,
      "chip": "ym2612"
    },
    {
      "channel": 4,
      "note": 52,
      "start": 188.3519,
      "duration": 0.1169,
      "velocity": 100,
      "chip": "ym2612"
    },
    {
      "channel": 3,
      "note": 103,
      "start": 188.3551,
      "duration": 0.0007,
      "velocity": 127,
      "chip": "ym2612"
    },
    {
      "channel": 3,
      "note": 64,
      "start": 188.358,
      "duration": 0.0907,
      "velocity": 107,
      "chip": "ym2612"
    },
    {
      "channel": 4,
      "note": 53,
      "start": 188.4919,
      "duration": 0.1169,
      "velocity": 100,
      "chip": "ym2612"
    },
    {
      "channel": 3,
      "note": 59,
      "start": 188.4954,
      "duration": 0.0734,
      "velocity": 107,
      "chip": "ym2612"
    },
    {
      "channel": 4,
      "note": 52,
      "start": 188.6321,
      "duration": 0.0967,
      "velocity": 100,
      "chip": "ym2612"
    },
    {
      "channel": 3,
      "note": 103,
      "start": 188.6352,
      "duration": 0.0007,
      "velocity": 127,
      "chip": "ym2612"
    },
    {
      "channel": 3,
      "note": 64,
      "start": 188.6381,
      "duration": 0.0706,
      "velocity": 107,
      "chip": "ym2612"
    },
    {
      "channel": 3,
      "note": 59,
      "start": 188.7526,
      "duration": 0.0962,
      "velocity": 107,
      "chip": "ym2612"
    },
    {
      "channel": 4,
      "note": 52,
      "start": 188.8919,
      "duration": 0.1169,
      "velocity": 100,
      "chip": "ym2612"
    },
    {
      "channel": 3,
      "note": 103,
      "start": 188.8951,
      "duration": 0.0007,
      "velocity": 127,
      "chip": "ym2612"
    },
    {
      "channel": 3,
      "note": 52,
      "start": 188.898,
      "duration": 0.0907,
      "velocity": 107,
      "chip": "ym2612"
    },
    {
      "channel": 4,
      "note": 53,
      "start": 189.0322,
      "duration": 0.0966,
      "velocity": 100,
      "chip": "ym2612"
    },
    {
      "channel": 3,
      "note": 64,
      "start": 189.0354,
      "duration": 0.0734,
      "velocity": 107,
      "chip": "ym2612"
    },
    {
      "channel": 4,
      "note": 52,
      "start": 189.1721,
      "duration": 0.0967,
      "velocity": 100,
      "chip": "ym2612"
    },
    {
      "channel": 3,
      "note": 103,
      "start": 189.1752,
      "duration": 0.0007,
      "velocity": 127,
      "chip": "ym2612"
    },
    {
      "channel": 3,
      "note": 59,
      "start": 189.1781,
      "duration": 0.0706,
      "velocity": 107,
      "chip": "ym2612"
    },
    {
      "channel": 3,
      "note": 52,
      "start": 189.2925,
      "duration": 0.0962,
      "velocity": 107,
      "chip": "ym2612"
    },
    {
      "channel": 4,
      "note": 52,
      "start": 189.4319,
      "duration": 0.1169,
      "velocity": 100,
      "chip": "ym2612"
    },
    {
      "channel": 3,
      "note": 103,
      "start": 189.4351,
      "duration": 0.0007,
      "velocity": 127,
      "chip": "ym2612"
    },
    {
      "channel": 3,
      "note": 64,
      "start": 189.438,
      "duration": 0.0907,
      "velocity": 107,
      "chip": "ym2612"
    },
    {
      "channel": 4,
      "note": 53,
      "start": 189.5719,
      "duration": 0.0969,
      "velocity": 100,
      "chip": "ym2612"
    },
    {
      "channel": 3,
      "note": 59,
      "start": 189.575,
      "duration": 0.0737,
      "velocity": 107,
      "chip": "ym2612"
    },
    {
      "channel": 1,
      "note": 74,
      "start": 189.7121,
      "duration": 4.2767,
      "velocity": 104,
      "chip": "ym2612"
    },
    {
      "channel": 4,
      "note": 52,
      "start": 189.7149,
      "duration": 0.0939,
      "velocity": 100,
      "chip": "ym2612"
    },
    {
      "channel": 3,
      "note": 103,
      "start": 189.7181,
      "duration": 0.0008,
      "velocity": 127,
      "chip": "ym2612"
    },
    {
      "channel": 3,
      "note": 64,
      "start": 189.7211,
      "duration": 0.0677,
      "velocity": 107,
      "chip": "ym2612"
    },
    {
      "channel": 3,
      "note": 59,
      "start": 189.8326,
      "duration": 0.0962,
      "velocity": 107,
      "chip": "ym2612"
    },
    {
      "channel": 4,
      "note": 52,
      "start": 189.9721,
      "duration": 0.1167,
      "velocity": 100,
      "chip": "ym2612"
    },
    {
      "channel": 3,
      "note": 103,
      "start": 189.9752,
      "duration": 0.0007,
      "velocity": 127,
      "chip": "ym2612"
    },
    {
      "channel": 3,
      "note": 52,
      "start": 189.9781,
      "duration": 0.0706,
      "velocity": 107,
      "chip": "ym2612"
    },
    {
      "channel": 4,
      "note": 53,
      "start": 190.1118,
      "duration": 0.097,
      "velocity": 100,
      "chip": "ym2612"
    },
    {
      "channel": 3,
      "note": 64,
      "start": 190.1149,
      "duration": 0.0738,
      "velocity": 107,
      "chip": "ym2612"
    },
    {
      "channel": 4,
      "note": 52,
      "start": 190.2321,
      "duration": 0.1167,
      "velocity": 100,
      "chip": "ym2612"
    },
    {
      "channel": 3,
      "note": 103,
      "start": 190.2352,
      "duration": 0.0007,
      "velocity": 127,
      "chip": "ym2612"
    },
    {
      "channel": 3,
      "note": 59,
      "start": 190.2381,
      "duration": 0.0906,
      "velocity": 107,
      "chip": "ym2612"
    },
    {
      "channel": 3,
      "note": 52,
      "start": 190.3725,
      "duration": 0.0962,
      "velocity": 107,
      "chip": "ym2612"
    },
    {
      "channel": 4,
      "note": 52,
      "start": 190.512,
      "duration": 0.1168,
      "velocity": 100,
      "chip": "ym2612"
    },
    {
      "channel": 3,
      "note": 103,
      "start": 190.5151,
      "duration": 0.0008,
      "velocity": 127,
      "chip": "ym2612"
    },
    {
      "channel": 3,
      "note": 64,
      "start": 190.5181,
      "duration": 0.0706,
      "velocity": 107,
      "chip": "ym2612"
    },
    {
      "channel": 4,
      "note": 53,
      "start": 190.6519,
      "duration": 0.0969,
      "velocity": 100,
      "chip": "ym2612"
    },
    {
      "channel": 3,
      "note": 59,
      "start": 190.6554,
      "duration": 0.0734,
      "velocity": 107,
      "chip": "ym2612"
    },
    {
      "channel": 4,
      "note": 52,
      "start": 190.7724,
      "duration": 0.1163,
      "velocity": 100,
      "chip": "ym2612"
    },
    {
      "channel": 3,
      "note": 103,
      "start": 190.7755,
      "duration": 0.0008,
      "velocity": 127,
      "chip": "ym2612"
    },
    {
      "channel": 3,
      "note": 64,
      "start": 190.7785,
      "duration": 0.0902,
      "velocity": 107,
      "chip": "ym2612"
    },
    {
      "channel": 3,
      "note": 59,
      "start": 190.9125,
      "duration": 0.0962,
      "velocity": 107,
      "chip": "ym2612"
    },
    {
      "channel": 4,
      "note": 52,
      "start": 191.0519,
      "duration": 0.1168,
      "velocity": 100,
      "chip": "ym2612"
    },
    {
      "channel": 3,
      "note": 103,
      "start": 191.0551,
      "duration": 0.0008,
      "velocity": 127,
      "chip": "ym2612"
    },
    {
      "channel": 3,
      "note": 71,
      "start": 191.0581,
      "duration": 0.0706,
      "velocity": 107,
      "chip": "ym2612"
    },
    {
      "channel": 4,
      "note": 53,
      "start": 191.1918,
      "duration": 0.097,
      "velocity": 100,
      "chip": "ym2612"
    },
    {
      "channel": 3,
      "note": 64,
      "start": 191.1949,
      "duration": 0.0738,
      "velocity": 107,
      "chip": "ym2612"
    },
    {
      "channel": 4,
      "note": 52,
      "start": 191.3121,
      "duration": 0.1167,
      "velocity": 100,
      "chip": "ym2612"
    },
    {
      "channel": 3,
      "note": 103,
      "start": 191.3152,
      "duration": 0.0007,
      "velocity": 127,
      "chip": "ym2612"
    },
    {
      "channel": 3,
      "note": 59,
      "start": 191.3181,
      "duration": 0.0906,
      "velocity": 107,
      "chip": "ym2612"
    },
    {
      "channel": 3,
      "note": 64,
      "start": 191.4525,
      "duration": 0.0962,
      "velocity": 107,
      "chip": "ym2612"
    },
    {
      "channel": 4,
      "note": 52,
      "start": 191.5919,
      "duration": 0.0968,
      "velocity": 100,
      "chip": "ym2612"
    },
    {
      "channel": 3,
      "note": 103,
      "start": 191.5951,
      "duration": 0.0008,
      "velocity": 127,
      "chip": "ym2612"
    },
    {
      "channel": 3,
      "note": 71,
      "start": 191.5981,
      "duration": 0.0706,
      "velocity": 107,
      "chip": "ym2612"
    },
    {
      "channel": 4,
      "note": 53,
      "start": 191.7318,
      "duration": 0.097,
      "velocity": 100,
      "chip": "ym2612"
    },
    {
      "channel": 3,
      "note": 64,
      "start": 191.7349,
      "duration": 0.0738,
      "velocity": 107,
      "chip": "ym2612"
    },
    {
      "channel": 4,
      "note": 52,
      "start": 191.8521,
      "duration": 0.1167,
      "velocity": 100,
      "chip": "ym2612"
    },
    {
      "channel": 3,
      "note": 103,
      "start": 191.8552,
      "duration": 0.0007,
      "velocity": 127,
      "chip": "ym2612"
    },
    {
      "channel": 3,
      "note": 59,
      "start": 191.8581,
      "duration": 0.0906,
      "velocity": 107,
      "chip": "ym2612"
    },
    {
      "channel": 3,
      "note": 52,
      "start": 191.9925,
      "duration": 0.0962,
      "velocity": 107,
      "chip": "ym2612"
    },
    {
      "channel": 4,
      "note": 52,
      "start": 192.1321,
      "duration": 0.0967,
      "velocity": 100,
      "chip": "ym2612"
    },
    {
      "channel": 3,
      "note": 103,
      "start": 192.1355,
      "duration": 0.0008,
      "velocity": 127,
      "chip": "ym2612"
    },
    {
      "channel": 3,
      "note": 59,
      "start": 192.1385,
      "duration": 0.0702,
      "velocity": 107,
      "chip": "ym2612"
    },
    {
      "channel": 4,
      "note": 53,
      "start": 192.2718,
      "duration": 0.097,
      "velocity": 100,
      "chip": "ym2612"
    },
    {
      "channel": 3,
      "note": 64,
      "start": 192.2749,
      "duration": 0.0738,
      "velocity": 107,
      "chip": "ym2612"
    },
    {
      "channel": 4,
      "note": 52,
      "start": 192.3924,
      "duration": 0.1163,
      "velocity": 100,
      "chip": "ym2612"
    },
    {
      "channel": 3,
      "note": 103,
      "start": 192.3955,
      "duration": 0.0008,
      "velocity": 127,
      "chip": "ym2612"
    },
    {
      "channel": 3,
      "note": 59,
      "start": 192.3985,
      "duration": 0.0902,
      "velocity": 107,
      "chip": "ym2612"
    },
    {
      "channel": 3,
      "note": 52,
      "start": 192.5324,
      "duration": 0.0762,
      "velocity": 107,
      "chip": "ym2612"
    },
    {
      "channel": 4,
      "note": 52,
      "start": 192.6719,
      "duration": 0.0968,
      "velocity": 100,
      "chip": "ym2612"
    },
    {
      "channel": 3,
      "note": 103,
      "start": 192.6751,
      "duration": 0.0008,
      "velocity": 127,
      "chip": "ym2612"
    },
    {
      "channel": 3,
      "note": 59,
      "start": 192.6781,
      "duration": 0.0706,
      "velocity": 107,
      "chip": "ym2612"
    },
    {
      "channel": 4,
      "note": 53,
      "start": 192.7918,
      "duration": 0.1169,
      "velocity": 100,
      "chip": "ym2612"
    },
    {
      "channel": 3,
      "note": 64,
      "start": 192.7953,
      "duration": 0.0934,
      "velocity": 107,
      "chip": "ym2612"
    },
    {
      "channel": 4,
      "note": 52,
      "start": 192.932,
      "duration": 0.1167,
      "velocity": 100,
      "chip": "ym2612"
    },
    {
      "channel": 3,
      "note": 103,
      "start": 192.9351,
      "duration": 0.0007,
      "velocity": 127,
      "chip": "ym2612"
    },
    {
      "channel": 3,
      "note": 52,
      "start": 192.9381,
      "duration": 0.0906,
      "velocity": 107,
      "chip": "ym2612"
    },
    {
      "channel": 3,
      "note": 59,
      "start": 193.0725,
      "duration": 0.0762,
      "velocity": 107,
      "chip": "ym2612"
    },
    {
      "channel": 4,
      "note": 52,
      "start": 193.2119,
      "duration": 0.0968,
      "velocity": 100,
      "chip": "ym2612"
    },
    {
      "channel": 3,
      "note": 103,
      "start": 193.2151,
      "duration": 0.0008,
      "velocity": 127,
      "chip": "ym2612"
    },
    {
      "channel": 3,
      "note": 64,
      "start": 193.2181,
      "duration": 0.0706,
      "velocity": 107,
      "chip": "ym2612"
    },
    {
      "channel": 4,
      "note": 53,
      "start": 193.3318,
      "duration": 0.117,
      "velocity": 100,
      "chip": "ym2612"
    },
    {
      "channel": 3,
      "note": 59,
      "start": 193.3349,
      "duration": 0.0938,
      "velocity": 107,
      "chip": "ym2612"
    },
    {
      "channel": 4,
      "note": 52,
      "start": 193.4721,
      "duration": 0.1167,
      "velocity": 100,
      "chip": "ym2612"
    },
    {
      "channel": 3,
      "note": 103,
      "start": 193.4752,
      "duration": 0.0007,
      "velocity": 127,
      "chip": "ym2612"
    },
    {
      "channel": 3,
      "note": 64,
      "start": 193.4781,
      "duration": 0.0906,
      "velocity": 107,
      "chip": "ym2612"
    },
    {
      "channel": 3,
      "note": 71,
      "start": 193.6124,
      "duration": 0.0763,
      "velocity": 107,
      "chip": "ym2612"
    },
    {
      "channel": 4,
      "note": 52,
      "start": 193.7519,
      "duration": 0.0968,
      "velocity": 100,
      "chip": "ym2612"
    },
    {
      "channel": 3,
      "note": 103,
      "start": 193.7551,
      "duration": 0.0008,
      "velocity": 127,
      "chip": "ym2612"
    },
    {
      "channel": 3,
      "note": 64,
      "start": 193.7581,
      "duration": 0.0706,
      "velocity": 107,
      "chip": "ym2612"
    },
    {
      "channel": 4,
      "note": 53,
      "start": 193.8718,
      "duration": 0.1171,
      "velocity": 100,
      "chip": "ym2612"
    },
    {
      "channel": 3,
      "note": 52,
      "start": 193.8749,
      "duration": 0.0938,
      "velocity": 107,
      "chip": "ym2612"
    },
    {
      "channel": 1,
      "note": 76,
      "start": 194.0118,
      "duration": 4.297,
      "velocity": 104,
      "chip": "ym2612"
    },
    {
      "channel": 0,
      "note": 83,
      "start": 194.0147,
      "duration": 4.294,
      "velocity": 104,
      "chip": "ym2612"
    },
    {
      "channel": 5,
      "note": 74,
      "start": 194.0172,
      "duration": 4.292,
      "velocity": 104,
      "chip": "ym2612"
    },
    {
      "channel": 2,
      "note": 76,
      "start": 194.02,
      "duration": 4.2893,
      "velocity": 104,
      "chip": "ym2612"
    },
    {
      "channel": 4,
      "note": 50,
      "start": 194.0227,
      "duration": 0.1061,
      "velocity": 100,
      "chip": "ym2612"
    },
    {
      "channel": 3,
      "note": 103,
      "start": 194.0258,
      "duration": 0.0008,
      "velocity": 127,
      "chip": "ym2612"
    },
    {
      "channel": 3,
      "note": 59,
      "start": 194.0289,
      "duration": 0.0798,
      "velocity": 107,
      "chip": "ym2612"
    },
    {
      "channel": 3,
      "note": 52,
      "start": 194.1525,
      "duration": 0.0762,
      "velocity": 107,
      "chip": "ym2612"
    },
    {
      "channel": 4,
      "note": 50,
      "start": 194.2922,
      "duration": 0.0965,
      "velocity": 100,
      "chip": "ym2612"
    },
    {
      "channel": 3,
      "note": 103,
      "start": 194.2954,
      "duration": 0.0008,
      "velocity": 127,
      "chip": "ym2612"
    },
    {
      "channel": 3,
      "note": 59,
      "start": 194.2984,
      "duration": 0.0703,
      "velocity": 107,
      "chip": "ym2612"
    },
    {
      "channel": 4,
      "note": 52,
      "start": 194.4118,
      "duration": 0.117,
      "velocity": 100,
      "chip": "ym2612"
    },
    {
      "channel": 3,
      "note": 64,
      "start": 194.4149,
      "duration": 0.0938,
      "velocity": 107,
      "chip": "ym2612"
    },
    {
      "channel": 4,
      "note": 50,
      "start": 194.5521,
      "duration": 0.1167,
      "velocity": 100,
      "chip": "ym2612"
    },
    {
      "channel": 3,
      "note": 103,
      "start": 194.5552,
      "duration": 0.0007,
      "velocity": 127,
      "chip": "ym2612"
    },
    {
      "channel": 3,
      "note": 59,
      "start": 194.5581,
      "duration": 0.0906,
      "velocity": 107,
      "chip": "ym2612"
    },
    {
      "channel": 3,
      "note": 52,
      "start": 194.6924,
      "duration": 0.0762,
      "velocity": 107,
      "chip": "ym2612"
    },
    {
      "channel": 4,
      "note": 50,
      "start": 194.8319,
      "duration": 0.0968,
      "velocity": 100,
      "chip": "ym2612"
    },
    {
      "channel": 3,
      "note": 103,
      "start": 194.8351,
      "duration": 0.0008,
      "velocity": 127,
      "chip": "ym2612"
    },
    {
      "channel": 3,
      "note": 59,
      "start": 194.8381,
      "duration": 0.0706,
      "velocity": 107,
      "chip": "ym2612"
    },
    {
      "channel": 4,
      "note": 52,
      "start": 194.9518,
      "duration": 0.1169,
      "velocity": 100,
      "chip": "ym2612"
    },
    {
      "channel": 3,
      "note": 64,
      "start": 194.9553,
      "duration": 0.0934,
      "velocity": 107,
      "chip": "ym2612"
    },
    {
      "channel": 4,
      "note": 50,
      "start": 195.092,
      "duration": 0.1167,
      "velocity": 100,
      "chip": "ym2612"
    },
    {
      "channel": 3,
      "note": 103,
      "start": 195.0951,
      "duration": 0.0007,
      "velocity": 127,
      "chip": "ym2612"
    },
    {
      "channel": 3,
      "note": 52,
      "start": 195.0981,
      "duration": 0.0706,
      "velocity": 107,
      "chip": "ym2612"
    },
    {
      "channel": 3,
      "note": 59,
      "start": 195.2325,
      "duration": 0.0762,
      "velocity": 107,
      "chip": "ym2612"
    },
    {
      "channel": 4,
      "note": 50,
      "start": 195.3519,
      "duration": 0.1168,
      "velocity": 100,
      "chip": "ym2612"
    },
    {
      "channel": 3,
      "note": 103,
      "start": 195.3551,
      "duration": 0.0008,
      "velocity": 127,
      "chip": "ym2612"
    },
    {
      "channel": 3,
      "note": 64,
      "start": 195.3581,
      "duration": 0.0906,
      "velocity": 107,
      "chip": "ym2612"
    },
    {
      "channel": 4,
      "note": 52,
      "start": 195.4918,
      "duration": 0.117,
      "velocity": 100,
      "chip": "ym2612"
    },
    {
      "channel": 3,
      "note": 59,
      "start": 195.4949,
      "duration": 0.0938,
      "velocity": 107,
      "chip": "ym2612"
    },
    {
      "channel": 4,
      "note": 50,
      "start": 195.6321,
      "duration": 0.1167,
      "velocity": 100,
      "chip": "ym2612"
    },
    {
      "channel": 3,
      "note": 103,
      "start": 195.6352,
      "duration": 0.0007,
      "velocity": 127,
      "chip": "ym2612"
    },
    {
      "channel": 3,
      "note": 64,
      "start": 195.6381,
      "duration": 0.0706,
      "velocity": 107,
      "chip": "ym2612"
    },
    {
      "channel": 3,
      "note": 71,
      "start": 195.7725,
      "duration": 0.0762,
      "velocity": 107,
      "chip": "ym2612"
    },
    {
      "channel": 4,
      "note": 50,
      "start": 195.8922,
      "duration": 0.1165,
      "velocity": 100,
      "chip": "ym2612"
    },
    {
      "channel": 3,
      "note": 103,
      "start": 195.8954,
      "duration": 0.0007,
      "velocity": 127,
      "chip": "ym2612"
    },
    {
      "channel": 3,
      "note": 64,
      "start": 195.8984,
      "duration": 0.0903,
      "velocity": 107,
      "chip": "ym2612"
    },
    {
      "channel": 4,
      "note": 52,
      "start": 196.0318,
      "duration": 0.117,
      "velocity": 100,
      "chip": "ym2612"
    },
    {
      "channel": 3,
      "note": 52,
      "start": 196.0349,
      "duration": 0.0938,
      "velocity": 107,
      "chip": "ym2612"
    },
    {
      "channel": 4,
      "note": 50,
      "start": 196.1721,
      "duration": 0.1167,
      "velocity": 100,
      "chip": "ym2612"
    },
    {
      "channel": 3,
      "note": 103,
      "start": 196.1752,
      "duration": 0.0008,
      "velocity": 127,
      "chip": "ym2612"
    },
    {
      "channel": 3,
      "note": 52,
      "start": 196.1783,
      "duration": 0.0305,
      "velocity": 107,
      "chip": "ym2612"
    },
    {
      "channel": 3,
      "note": 59,
      "start": 196.3126,
      "duration": 0.0761,
      "velocity": 107,
      "chip": "ym2612"
    },
    {
      "channel": 4,
      "note": 50,
      "start": 196.4319,
      "duration": 0.1169,
      "velocity": 100,
      "chip": "ym2612"
    },
    {
      "channel": 3,
      "note": 103,
      "start": 196.4354,
      "duration": 0.0008,
      "velocity": 127,
      "chip": "ym2612"
    },
    {
      "channel": 3,
      "note": 64,
      "start": 196.4385,
      "duration": 0.0903,
      "velocity": 107,
      "chip": "ym2612"
    },
    {
      "channel": 4,
      "note": 52,
      "start": 196.5719,
      "duration": 0.1169,
      "velocity": 100,
      "chip": "ym2612"
    },
    {
      "channel": 3,
      "note": 59,
      "start": 196.575,
      "duration": 0.0937,
      "velocity": 107,
      "chip": "ym2612"
    },
    {
      "channel": 4,
      "note": 50,
      "start": 196.712,
      "duration": 0.0967,
      "velocity": 100,
      "chip": "ym2612"
    },
    {
      "channel": 3,
      "note": 103,
      "start": 196.7151,
      "duration": 0.0007,
      "velocity": 127,
      "chip": "ym2612"
    },
    {
      "channel": 3,
      "note": 64,
      "start": 196.7181,
      "duration": 0.0706,
      "velocity": 107,
      "chip": "ym2612"
    },
    {
      "channel": 3,
      "note": 71,
      "start": 196.8528,
      "duration": 0.0759,
      "velocity": 107,
      "chip": "ym2612"
    },
    {
      "channel": 4,
      "note": 50,
      "start": 196.9719,
      "duration": 0.1169,
      "velocity": 100,
      "chip": "ym2612"
    },
    {
      "channel": 3,
      "note": 103,
      "start": 196.9751,
      "duration": 0.0007,
      "velocity": 127,
      "chip": "ym2612"
    },
    {
      "channel": 3,
      "note": 64,
      "start": 196.978,
      "duration": 0.0907,
      "velocity": 107,
      "chip": "ym2612"
    },
    {
      "channel": 4,
      "note": 52,
      "start": 197.1119,
      "duration": 0.1169,
      "velocity": 100,
      "chip": "ym2612"
    },
    {
      "channel": 3,
      "note": 59,
      "start": 197.115,
      "duration": 0.0937,
      "velocity": 107,
      "chip": "ym2612"
    },
    {
      "channel": 4,
      "note": 50,
      "start": 197.252,
      "duration": 0.0967,
      "velocity": 100,
      "chip": "ym2612"
    },
    {
      "channel": 3,
      "note": 103,
      "start": 197.2551,
      "duration": 0.0007,
      "velocity": 127,
      "chip": "ym2612"
    },
    {
      "channel": 3,
      "note": 64,
      "start": 197.2581,
      "duration": 0.0706,
      "velocity": 107,
      "chip": "ym2612"
    },
    {
      "channel": 3,
      "note": 59,
      "start": 197.3925,
      "duration": 0.0762,
      "velocity": 107,
      "chip": "ym2612"
    },
    {
      "channel": 4,
      "note": 50,
      "start": 197.5119,
      "duration": 0.1168,
      "velocity": 100,
      "chip": "ym2612"
    },
    {
      "channel": 3,
      "note": 103,
      "start": 197.5151,
      "duration": 0.0008,
      "velocity": 127,
      "chip": "ym2612"
    },
    {
      "channel": 3,
      "note": 52,
      "start": 197.5181,
      "duration": 0.0906,
      "velocity": 107,
      "chip": "ym2612"
    },
    {
      "channel": 4,
      "note": 52,
      "start": 197.6522,
      "duration": 0.1165,
      "velocity": 100,
      "chip": "ym2612"
    },
    {
      "channel": 3,
      "note": 64,
      "start": 197.6553,
      "duration": 0.0734,
      "velocity": 107,
      "chip": "ym2612"
    },
    {
      "channel": 4,
      "note": 50,
      "start": 197.792,
      "duration": 0.0967,
      "velocity": 100,
      "chip": "ym2612"
    },
    {
      "channel": 3,
      "note": 103,
      "start": 197.7951,
      "duration": 0.0007,
      "velocity": 127,
      "chip": "ym2612"
    },
    {
      "channel": 3,
      "note": 59,
      "start": 197.7981,
      "duration": 0.0706,
      "velocity": 107,
      "chip": "ym2612"
    },
    {
      "channel": 3,
      "note": 52,
      "start": 197.9124,
      "duration": 0.0962,
      "velocity": 107,
      "chip": "ym2612"
    },
    {
      "channel": 4,
      "note": 50,
      "start": 198.0519,
      "duration": 0.1168,
      "velocity": 100,
      "chip": "ym2612"
    },
    {
      "channel": 3,
      "note": 103,
      "start": 198.0551,
      "duration": 0.0008,
      "velocity": 127,
      "chip": "ym2612"
    },
    {
      "channel": 3,
      "note": 64,
      "start": 198.0581,
      "duration": 0.0906,
      "velocity": 107,
      "chip": "ym2612"
    },
    {
      "channel": 4,
      "note": 52,
      "start": 198.1918,
      "duration": 0.1171,
      "velocity": 100,
      "chip": "ym2612"
    },
    {
      "channel": 3,
      "note": 59,
      "start": 198.1949,
      "duration": 0.0738,
      "velocity": 107,
      "chip": "ym2612"
    }
  ]
}