{
  "track_name": "05 - Stage 2- Jungle",
  "duration_sec": 61.934,
  "sample_rate": 44100,
  "note_count": 771,
  "unique_pitches": 16,
  "pitch_range": 31,
  "avg_note_duration": 0.4802,
  "reconstruction_stats": {
    "notes_reconstructed": 771,
    "keyon_events": 771,
    "keyoff_events": 765,
    "orphan_keyons": 6,
    "unique_pitches": 16,
    "pitch_range": 31,
    "avg_duration_sec": 0.4802
  },
  "metadata": {
    "source": "W\\Wolfchild\\05 - Stage 2- Jungle.vgz"
  },
  "notes": [
    {
      "channel": 0,
      "note": 55,
      "start": 0.0,
      "duration": 0.0003,
      "velocity": 107,
      "chip": "ym2612"
    },
    {
      "channel": 2,
      "note": 55,
      "start": 0.0,
      "duration": 0.0026,
      "velocity": 117,
      "chip": "ym2612"
    },
    {
      "channel": 3,
      "note": 79,
      "start": 0.0,
      "duration": 0.0047,
      "velocity": 1,
      "chip": "ym2612"
    },
    {
      "channel": 4,
      "note": 79,
      "start": 0.0,
      "duration": 0.0069,
      "velocity": 1,
      "chip": "ym2612"
    },
    {
      "channel": 0,
      "note": 55,
      "start": 0.0005,
      "duration": 0.1146,
      "velocity": 107,
      "chip": "ym2612"
    },
    {
      "channel": 2,
      "note": 55,
      "start": 0.0028,
      "duration": 0.1151,
      "velocity": 117,
      "chip": "ym2612"
    },
    {
      "channel": 3,
      "note": 79,
      "start": 0.0049,
      "duration": 7.1721,
      "velocity": 1,
      "chip": "ym2612"
    },
    {
      "channel": 4,
      "note": 79,
      "start": 0.0071,
      "duration": 7.1705,
      "velocity": 1,
      "chip": "ym2612"
    },
    {
      "channel": 0,
      "note": 57,
      "start": 0.1153,
      "duration": 0.0993,
      "velocity": 107,
      "chip": "ym2612"
    },
    {
      "channel": 1,
      "note": 67,
      "start": 0.1175,
      "duration": 0.3321,
      "velocity": 107,
      "chip": "ym2612"
    },
    {
      "channel": 2,
      "note": 55,
      "start": 0.118,
      "duration": 0.5597,
      "velocity": 117,
      "chip": "ym2612"
    },
    {
      "channel": 0,
      "note": 58,
      "start": 0.2149,
      "duration": 0.1163,
      "velocity": 107,
      "chip": "ym2612"
    },
    {
      "channel": 0,
      "note": 62,
      "start": 0.3313,
      "duration": 0.3452,
      "velocity": 107,
      "chip": "ym2612"
    },
    {
      "channel": 1,
      "note": 55,
      "start": 0.4497,
      "duration": 0.0938,
      "velocity": 107,
      "chip": "ym2612"
    },
    {
      "channel": 1,
      "note": 57,
      "start": 0.5437,
      "duration": 0.1334,
      "velocity": 107,
      "chip": "ym2612"
    },
    {
      "channel": 0,
      "note": 55,
      "start": 0.6767,
      "duration": 0.0996,
      "velocity": 107,
      "chip": "ym2612"
    },
    {
      "channel": 1,
      "note": 58,
      "start": 0.6773,
      "duration": 0.0997,
      "velocity": 107,
      "chip": "ym2612"
    },
    {
      "channel": 2,
      "note": 55,
      "start": 0.6778,
      "duration": 0.0997,
      "velocity": 117,
      "chip": "ym2612"
    },
    {
      "channel": 0,
      "note": 57,
      "start": 0.7765,
      "duration": 0.0998,
      "velocity": 107,
      "chip": "ym2612"
    },
    {
      "channel": 1,
      "note": 62,
      "start": 0.7771,
      "duration": 0.3331,
      "velocity": 107,
      "chip": "ym2612"
    },
    {
      "channel": 2,
      "note": 55,
      "start": 0.7777,
      "duration": 1.0445,
      "velocity": 117,
      "chip": "ym2612"
    },
    {
      "channel": 0,
      "note": 58,
      "start": 0.8765,
      "duration": 0.1164,
      "velocity": 107,
      "chip": "ym2612"
    },
    {
      "channel": 0,
      "note": 62,
      "start": 0.993,
      "duration": 0.1166,
      "velocity": 107,
      "chip": "ym2612"
    },
    {
      "channel": 0,
      "note": 65,
      "start": 1.1098,
      "duration": 0.7117,
      "velocity": 107,
      "chip": "ym2612"
    },
    {
      "channel": 1,
      "note": 55,
      "start": 1.1103,
      "duration": 0.1326,
      "velocity": 107,
      "chip": "ym2612"
    },
    {
      "channel": 5,
      "note": 62,
      "start": 1.1127,
      "duration": 3.5953,
      "velocity": 106,
      "chip": "ym2612"
    },
    {
      "channel": 1,
      "note": 57,
      "start": 1.2432,
      "duration": 0.1165,
      "velocity": 107,
      "chip": "ym2612"
    },
    {
      "channel": 1,
      "note": 58,
      "start": 1.3598,
      "duration": 0.0951,
      "velocity": 107,
      "chip": "ym2612"
    },
    {
      "channel": 1,
      "note": 62,
      "start": 1.4551,
      "duration": 0.1164,
      "velocity": 107,
      "chip": "ym2612"
    },
    {
      "channel": 1,
      "note": 65,
      "start": 1.5717,
      "duration": 0.6824,
      "velocity": 107,
      "chip": "ym2612"
    },
    {
      "channel": 0,
      "note": 55,
      "start": 1.8217,
      "duration": 0.0995,
      "velocity": 107,
      "chip": "ym2612"
    },
    {
      "channel": 2,
      "note": 55,
      "start": 1.8223,
      "duration": 0.0995,
      "velocity": 117,
      "chip": "ym2612"
    },
    {
      "channel": 0,
      "note": 57,
      "start": 1.9213,
      "duration": 0.0994,
      "velocity": 107,
      "chip": "ym2612"
    },
    {
      "channel": 2,
      "note": 55,
      "start": 1.922,
      "duration": 0.562,
      "velocity": 117,
      "chip": "ym2612"
    },
    {
      "channel": 0,
      "note": 58,
      "start": 2.021,
      "duration": 0.1164,
      "velocity": 107,
      "chip": "ym2612"
    },
    {
      "channel": 0,
      "note": 62,
      "start": 2.1375,
      "duration": 0.3454,
      "velocity": 107,
      "chip": "ym2612"
    },
    {
      "channel": 1,
      "note": 55,
      "start": 2.2543,
      "duration": 0.1119,
      "velocity": 107,
      "chip": "ym2612"
    },
    {
      "channel": 1,
      "note": 57,
      "start": 2.3664,
      "duration": 0.1171,
      "velocity": 107,
      "chip": "ym2612"
    },
    {
      "channel": 0,
      "note": 55,
      "start": 2.4831,
      "duration": 0.0998,
      "velocity": 107,
      "chip": "ym2612"
    },
    {
      "channel": 1,
      "note": 58,
      "start": 2.4836,
      "duration": 0.0998,
      "velocity": 107,
      "chip": "ym2612"
    },
    {
      "channel": 2,
      "note": 55,
      "start": 2.4842,
      "duration": 0.0998,
      "velocity": 117,
      "chip": "ym2612"
    },
    {
      "channel": 0,
      "note": 57,
      "start": 2.583,
      "duration": 0.0998,
      "velocity": 107,
      "chip": "ym2612"
    },
    {
      "channel": 1,
      "note": 62,
      "start": 2.5835,
      "duration": 0.3499,
      "velocity": 107,
      "chip": "ym2612"
    },
    {
      "channel": 2,
      "note": 55,
      "start": 2.5841,
      "duration": 0.3499,
      "velocity": 117,
      "chip": "ym2612"
    },
    {
      "channel": 0,
      "note": 58,
      "start": 2.683,
      "duration": 0.1164,
      "velocity": 107,
      "chip": "ym2612"
    },
    {
      "channel": 0,
      "note": 62,
      "start": 2.7995,
      "duration": 0.1333,
      "velocity": 107,
      "chip": "ym2612"
    },
    {
      "channel": 0,
      "note": 65,
      "start": 2.933,
      "duration": 0.2163,
      "velocity": 107,
      "chip": "ym2612"
    },
    {
      "channel": 1,
      "note": 55,
      "start": 2.9335,
      "duration": 0.0992,
      "velocity": 107,
      "chip": "ym2612"
    },
    {
      "channel": 2,
      "note": 55,
      "start": 2.9341,
      "duration": 0.2164,
      "velocity": 117,
      "chip": "ym2612"
    },
    {
      "channel": 1,
      "note": 57,
      "start": 3.0329,
      "duration": 0.117,
      "velocity": 107,
      "chip": "ym2612"
    },
    {
      "channel": 0,
      "note": 64,
      "start": 3.1495,
      "duration": 0.212,
      "velocity": 107,
      "chip": "ym2612"
    },
    {
      "channel": 1,
      "note": 58,
      "start": 3.1501,
      "duration": 0.0951,
      "velocity": 107,
      "chip": "ym2612"
    },
    {
      "channel": 2,
      "note": 65,
      "start": 3.1507,
      "duration": 0.2121,
      "velocity": 117,
      "chip": "ym2612"
    },
    {
      "channel": 1,
      "note": 62,
      "start": 3.2454,
      "duration": 0.1168,
      "velocity": 107,
      "chip": "ym2612"
    },
    {
      "channel": 0,
      "note": 60,
      "start": 3.3618,
      "duration": 0.2331,
      "velocity": 107,
      "chip": "ym2612"
    },
    {
      "channel": 1,
      "note": 65,
      "start": 3.3623,
      "duration": 0.2331,
      "velocity": 107,
      "chip": "ym2612"
    },
    {
      "channel": 2,
      "note": 62,
      "start": 3.3629,
      "duration": 0.2331,
      "velocity": 117,
      "chip": "ym2612"
    },
    {
      "channel": 0,
      "note": 55,
      "start": 3.595,
      "duration": 0.0998,
      "velocity": 107,
      "chip": "ym2612"
    },
    {
      "channel": 1,
      "note": 64,
      "start": 3.5956,
      "duration": 0.1996,
      "velocity": 107,
      "chip": "ym2612"
    },
    {
      "channel": 2,
      "note": 55,
      "start": 3.5962,
      "duration": 0.0993,
      "velocity": 117,
      "chip": "ym2612"
    },
    {
      "channel": 0,
      "note": 57,
      "start": 3.695,
      "duration": 0.0996,
      "velocity": 107,
      "chip": "ym2612"
    },
    {
      "channel": 2,
      "note": 55,
      "start": 3.6956,
      "duration": 0.5624,
      "velocity": 117,
      "chip": "ym2612"
    },
    {
      "channel": 0,
      "note": 58,
      "start": 3.7948,
      "duration": 0.1164,
      "velocity": 107,
      "chip": "ym2612"
    },
    {
      "channel": 1,
      "note": 60,
      "start": 3.7954,
      "duration": 0.2492,
      "velocity": 107,
      "chip": "ym2612"
    },
    {
      "channel": 0,
      "note": 62,
      "start": 3.9114,
      "duration": 0.3455,
      "velocity": 107,
      "chip": "ym2612"
    },
    {
      "channel": 1,
      "note": 55,
      "start": 4.0448,
      "duration": 0.0955,
      "velocity": 107,
      "chip": "ym2612"
    },
    {
      "channel": 1,
      "note": 57,
      "start": 4.1405,
      "duration": 0.117,
      "velocity": 107,
      "chip": "ym2612"
    },
    {
      "channel": 0,
      "note": 55,
      "start": 4.2571,
      "duration": 0.0998,
      "velocity": 107,
      "chip": "ym2612"
    },
    {
      "channel": 1,
      "note": 58,
      "start": 4.2577,
      "duration": 0.0998,
      "velocity": 107,
      "chip": "ym2612"
    },
    {
      "channel": 2,
      "note": 55,
      "start": 4.2583,
      "duration": 0.0998,
      "velocity": 117,
      "chip": "ym2612"
    },
    {
      "channel": 0,
      "note": 57,
      "start": 4.3571,
      "duration": 0.0996,
      "velocity": 107,
      "chip": "ym2612"
    },
    {
      "channel": 1,
      "note": 62,
      "start": 4.3577,
      "duration": 0.3496,
      "velocity": 107,
      "chip": "ym2612"
    },
    {
      "channel": 2,
      "note": 55,
      "start": 4.3582,
      "duration": 1.0443,
      "velocity": 117,
      "chip": "ym2612"
    },
    {
      "channel": 0,
      "note": 58,
      "start": 4.4569,
      "duration": 0.133,
      "velocity": 107,
      "chip": "ym2612"
    },
    {
      "channel": 0,
      "note": 62,
      "start": 4.5901,
      "duration": 0.1166,
      "velocity": 107,
      "chip": "ym2612"
    },
    {
      "channel": 0,
      "note": 65,
      "start": 4.7068,
      "duration": 0.6951,
      "velocity": 107,
      "chip": "ym2612"
    },
    {
      "channel": 1,
      "note": 55,
      "start": 4.7074,
      "duration": 0.116,
      "velocity": 107,
      "chip": "ym2612"
    },
    {
      "channel": 5,
      "note": 62,
      "start": 4.7082,
      "duration": 3.5794,
      "velocity": 106,
      "chip": "ym2612"
    },
    {
      "channel": 1,
      "note": 57,
      "start": 4.8236,
      "duration": 0.1165,
      "velocity": 107,
      "chip": "ym2612"
    },
    {
      "channel": 1,
      "note": 58,
      "start": 4.9402,
      "duration": 0.0952,
      "velocity": 107,
      "chip": "ym2612"
    },
    {
      "channel": 1,
      "note": 62,
      "start": 5.0356,
      "duration": 0.133,
      "velocity": 107,
      "chip": "ym2612"
    },
    {
      "channel": 1,
      "note": 65,
      "start": 5.1688,
      "duration": 0.6822,
      "velocity": 107,
      "chip": "ym2612"
    },
    {
      "channel": 0,
      "note": 55,
      "start": 5.4021,
      "duration": 0.0992,
      "velocity": 107,
      "chip": "ym2612"
    },
    {
      "channel": 2,
      "note": 55,
      "start": 5.4027,
      "duration": 0.0992,
      "velocity": 117,
      "chip": "ym2612"
    },
    {
      "channel": 0,
      "note": 57,
      "start": 5.5015,
      "duration": 0.0994,
      "velocity": 107,
      "chip": "ym2612"
    },
    {
      "channel": 2,
      "note": 55,
      "start": 5.5021,
      "duration": 0.5621,
      "velocity": 117,
      "chip": "ym2612"
    },
    {
      "channel": 0,
      "note": 58,
      "start": 5.6011,
      "duration": 0.133,
      "velocity": 107,
      "chip": "ym2612"
    },
    {
      "channel": 0,
      "note": 62,
      "start": 5.7343,
      "duration": 0.3288,
      "velocity": 107,
      "chip": "ym2612"
    },
    {
      "channel": 1,
      "note": 55,
      "start": 5.8511,
      "duration": 0.0953,
      "velocity": 107,
      "chip": "ym2612"
    },
    {
      "channel": 1,
      "note": 57,
      "start": 5.9466,
      "duration": 0.117,
      "velocity": 107,
      "chip": "ym2612"
    },
    {
      "channel": 0,
      "note": 55,
      "start": 6.0633,
      "duration": 0.0996,
      "velocity": 107,
      "chip": "ym2612"
    },
    {
      "channel": 1,
      "note": 58,
      "start": 6.0638,
      "duration": 0.0996,
      "velocity": 107,
      "chip": "ym2612"
    },
    {
      "channel": 2,
      "note": 55,
      "start": 6.0644,
      "duration": 0.0996,
      "velocity": 117,
      "chip": "ym2612"
    },
    {
      "channel": 0,
      "note": 57,
      "start": 6.1631,
      "duration": 0.1164,
      "velocity": 107,
      "chip": "ym2612"
    },
    {
      "channel": 1,
      "note": 62,
      "start": 6.1637,
      "duration": 0.3498,
      "velocity": 107,
      "chip": "ym2612"
    },
    {
      "channel": 2,
      "note": 55,
      "start": 6.1642,
      "duration": 0.3498,
      "velocity": 117,
      "chip": "ym2612"
    },
    {
      "channel": 0,
      "note": 58,
      "start": 6.2797,
      "duration": 0.1164,
      "velocity": 107,
      "chip": "ym2612"
    },
    {
      "channel": 0,
      "note": 62,
      "start": 6.3962,
      "duration": 0.1166,
      "velocity": 107,
      "chip": "ym2612"
    },
    {
      "channel": 0,
      "note": 65,
      "start": 6.513,
      "duration": 0.2164,
      "velocity": 107,
      "chip": "ym2612"
    },
    {
      "channel": 1,
      "note": 55,
      "start": 6.5136,
      "duration": 0.0993,
      "velocity": 107,
      "chip": "ym2612"
    },
    {
      "channel": 2,
      "note": 55,
      "start": 6.5141,
      "duration": 0.2165,
      "velocity": 117,
      "chip": "ym2612"
    },
    {
      "channel": 1,
      "note": 57,
      "start": 6.6131,
      "duration": 0.117,
      "velocity": 107,
      "chip": "ym2612"
    },
    {
      "channel": 0,
      "note": 64,
      "start": 6.7297,
      "duration": 0.2287,
      "velocity": 107,
      "chip": "ym2612"
    },
    {
      "channel": 1,
      "note": 58,
      "start": 6.7302,
      "duration": 0.1115,
      "velocity": 107,
      "chip": "ym2612"
    },
    {
      "channel": 2,
      "note": 65,
      "start": 6.7308,
      "duration": 0.2287,
      "velocity": 117,
      "chip": "ym2612"
    },
    {
      "channel": 1,
      "note": 62,
      "start": 6.8419,
      "duration": 0.117,
      "velocity": 107,
      "chip": "ym2612"
    },
    {
      "channel": 0,
      "note": 60,
      "start": 6.9585,
      "duration": 0.2166,
      "velocity": 107,
      "chip": "ym2612"
    },
    {
      "channel": 1,
      "note": 65,
      "start": 6.9591,
      "duration": 0.2166,
      "velocity": 107,
      "chip": "ym2612"
    },
    {
      "channel": 2,
      "note": 62,
      "start": 6.9596,
      "duration": 0.2168,
      "velocity": 117,
      "chip": "ym2612"
    },
    {
      "channel": 0,
      "note": 55,
      "start": 7.1753,
      "duration": 0.0995,
      "velocity": 107,
      "chip": "ym2612"
    },
    {
      "channel": 1,
      "note": 64,
      "start": 7.1759,
      "duration": 0.2159,
      "velocity": 107,
      "chip": "ym2612"
    },
    {
      "channel": 2,
      "note": 55,
      "start": 7.1766,
      "duration": 0.0988,
      "velocity": 117,
      "chip": "ym2612"
    },
    {
      "channel": 3,
      "note": 79,
      "start": 7.1771,
      "duration": 7.1805,
      "velocity": 102,
      "chip": "ym2612"
    },
    {
      "channel": 4,
      "note": 79,
      "start": 7.1778,
      "duration": 7.1805,
      "velocity": 1,
      "chip": "ym2612"
    },
    {
      "channel": 0,
      "note": 57,
      "start": 7.275,
      "duration": 0.1163,
      "velocity": 107,
      "chip": "ym2612"
    },
    {
      "channel": 2,
      "note": 55,
      "start": 7.2755,
      "duration": 0.5621,
      "velocity": 117,
      "chip": "ym2612"
    },
    {
      "channel": 0,
      "note": 58,
      "start": 7.3915,
      "duration": 0.1163,
      "velocity": 107,
      "chip": "ym2612"
    },
    {
      "channel": 1,
      "note": 60,
      "start": 7.3921,
      "duration": 0.2326,
      "velocity": 107,
      "chip": "ym2612"
    },
    {
      "channel": 0,
      "note": 62,
      "start": 7.508,
      "duration": 0.3285,
      "velocity": 107,
      "chip": "ym2612"
    },
    {
      "channel": 1,
      "note": 55,
      "start": 7.6248,
      "duration": 0.0951,
      "velocity": 107,
      "chip": "ym2612"
    },
    {
      "channel": 1,
      "note": 57,
      "start": 7.7201,
      "duration": 0.117,
      "velocity": 107,
      "chip": "ym2612"
    },
    {
      "channel": 0,
      "note": 55,
      "start": 7.8367,
      "duration": 0.1164,
      "velocity": 107,
      "chip": "ym2612"
    },
    {
      "channel": 1,
      "note": 58,
      "start": 7.8373,
      "duration": 0.1164,
      "velocity": 107,
      "chip": "ym2612"
    },
    {
      "channel": 2,
      "note": 55,
      "start": 7.8378,
      "duration": 0.1164,
      "velocity": 117,
      "chip": "ym2612"
    },
    {
      "channel": 0,
      "note": 57,
      "start": 7.9533,
      "duration": 0.0996,
      "velocity": 107,
      "chip": "ym2612"
    },
    {
      "channel": 1,
      "note": 62,
      "start": 7.9539,
      "duration": 0.3329,
      "velocity": 107,
      "chip": "ym2612"
    },
    {
      "channel": 2,
      "note": 55,
      "start": 7.9544,
      "duration": 1.0279,
      "velocity": 117,
      "chip": "ym2612"
    },
    {
      "channel": 0,
      "note": 58,
      "start": 8.0532,
      "duration": 0.1164,
      "velocity": 107,
      "chip": "ym2612"
    },
    {
      "channel": 0,
      "note": 62,
      "start": 8.1697,
      "duration": 0.1166,
      "velocity": 107,
      "chip": "ym2612"
    },
    {
      "channel": 0,
      "note": 65,
      "start": 8.2864,
      "duration": 0.6953,
      "velocity": 107,
      "chip": "ym2612"
    },
    {
      "channel": 1,
      "note": 55,
      "start": 8.287,
      "duration": 0.116,
      "velocity": 107,
      "chip": "ym2612"
    },
    {
      "channel": 5,
      "note": 62,
      "start": 8.2878,
      "duration": 3.5962,
      "velocity": 106,
      "chip": "ym2612"
    },
    {
      "channel": 1,
      "note": 57,
      "start": 8.4032,
      "duration": 0.1331,
      "velocity": 107,
      "chip": "ym2612"
    },
    {
      "channel": 1,
      "note": 58,
      "start": 8.5365,
      "duration": 0.0954,
      "velocity": 107,
      "chip": "ym2612"
    },
    {
      "channel": 1,
      "note": 62,
      "start": 8.6321,
      "duration": 0.1163,
      "velocity": 107,
      "chip": "ym2612"
    },
    {
      "channel": 1,
      "note": 65,
      "start": 8.7485,
      "duration": 0.6823,
      "velocity": 107,
      "chip": "ym2612"
    },
    {
      "channel": 0,
      "note": 55,
      "start": 8.9819,
      "duration": 0.1159,
      "velocity": 107,
      "chip": "ym2612"
    },
    {
      "channel": 2,
      "note": 55,
      "start": 8.9825,
      "duration": 0.1159,
      "velocity": 117,
      "chip": "ym2612"
    },
    {
      "channel": 0,
      "note": 57,
      "start": 9.098,
      "duration": 0.0995,
      "velocity": 107,
      "chip": "ym2612"
    },
    {
      "channel": 2,
      "note": 55,
      "start": 9.0986,
      "duration": 0.5621,
      "velocity": 117,
      "chip": "ym2612"
    },
    {
      "channel": 0,
      "note": 58,
      "start": 9.1977,
      "duration": 0.1164,
      "velocity": 107,
      "chip": "ym2612"
    },
    {
      "channel": 0,
      "note": 62,
      "start": 9.3142,
      "duration": 0.3453,
      "velocity": 107,
      "chip": "ym2612"
    },
    {
      "channel": 1,
      "note": 55,
      "start": 9.431,
      "duration": 0.0952,
      "velocity": 107,
      "chip": "ym2612"
    },
    {
      "channel": 1,
      "note": 57,
      "start": 9.5264,
      "duration": 0.1337,
      "velocity": 107,
      "chip": "ym2612"
    },
    {
      "channel": 0,
      "note": 55,
      "start": 9.6597,
      "duration": 0.0996,
      "velocity": 107,
      "chip": "ym2612"
    },
    {
      "channel": 1,
      "note": 58,
      "start": 9.6603,
      "duration": 0.0997,
      "velocity": 107,
      "chip": "ym2612"
    },
    {
      "channel": 2,
      "note": 55,
      "start": 9.6608,
      "duration": 0.0997,
      "velocity": 117,
      "chip": "ym2612"
    },
    {
      "channel": 0,
      "note": 57,
      "start": 9.7595,
      "duration": 0.0998,
      "velocity": 107,
      "chip": "ym2612"
    },
    {
      "channel": 1,
      "note": 62,
      "start": 9.7601,
      "duration": 0.3331,
      "velocity": 107,
      "chip": "ym2612"
    },
    {
      "channel": 2,
      "note": 55,
      "start": 9.7607,
      "duration": 0.3331,
      "velocity": 117,
      "chip": "ym2612"
    },
    {
      "channel": 0,
      "note": 58,
      "start": 9.8595,
      "duration": 0.1164,
      "velocity": 107,
      "chip": "ym2612"
    },
    {
      "channel": 0,
      "note": 62,
      "start": 9.9761,
      "duration": 0.1166,
      "velocity": 107,
      "chip": "ym2612"
    },
    {
      "channel": 0,
      "note": 65,
      "start": 10.0929,
      "duration": 0.2331,
      "velocity": 107,
      "chip": "ym2612"
    },
    {
      "channel": 1,
      "note": 55,
      "start": 10.0934,
      "duration": 0.1159,
      "velocity": 107,
      "chip": "ym2612"
    },
    {
      "channel": 2,
      "note": 55,
      "start": 10.094,
      "duration": 0.2331,
      "velocity": 117,
      "chip": "ym2612"
    },
    {
      "channel": 1,
      "note": 57,
      "start": 10.2095,
      "duration": 0.117,
      "velocity": 107,
      "chip": "ym2612"
    },
    {
      "channel": 0,
      "note": 64,
      "start": 10.3261,
      "duration": 0.2119,
      "velocity": 107,
      "chip": "ym2612"
    },
    {
      "channel": 1,
      "note": 58,
      "start": 10.3267,
      "duration": 0.095,
      "velocity": 107,
      "chip": "ym2612"
    },
    {
      "channel": 2,
      "note": 65,
      "start": 10.3273,
      "duration": 0.212,
      "velocity": 117,
      "chip": "ym2612"
    },
    {
      "channel": 1,
      "note": 62,
      "start": 10.4219,
      "duration": 0.1168,
      "velocity": 107,
      "chip": "ym2612"
    },
    {
      "channel": 0,
      "note": 60,
      "start": 10.5383,
      "duration": 0.2329,
      "velocity": 107,
      "chip": "ym2612"
    },
    {
      "channel": 1,
      "note": 65,
      "start": 10.5388,
      "duration": 0.233,
      "velocity": 107,
      "chip": "ym2612"
    },
    {
      "channel": 2,
      "note": 62,
      "start": 10.5394,
      "duration": 0.233,
      "velocity": 117,
      "chip": "ym2612"
    },
    {
      "channel": 0,
      "note": 55,
      "start": 10.7714,
      "duration": 0.0996,
      "velocity": 107,
      "chip": "ym2612"
    },
    {
      "channel": 1,
      "note": 64,
      "start": 10.7719,
      "duration": 0.1993,
      "velocity": 107,
      "chip": "ym2612"
    },
    {
      "channel": 2,
      "note": 55,
      "start": 10.7725,
      "duration": 0.0992,
      "velocity": 117,
      "chip": "ym2612"
    },
    {
      "channel": 0,
      "note": 57,
      "start": 10.8712,
      "duration": 0.0994,
      "velocity": 107,
      "chip": "ym2612"
    },
    {
      "channel": 2,
      "note": 55,
      "start": 10.8719,
      "duration": 0.562,
      "velocity": 117,
      "chip": "ym2612"
    },
    {
      "channel": 0,
      "note": 58,
      "start": 10.9709,
      "duration": 0.1164,
      "velocity": 107,
      "chip": "ym2612"
    },
    {
      "channel": 1,
      "note": 60,
      "start": 10.9714,
      "duration": 0.2327,
      "velocity": 107,
      "chip": "ym2612"
    },
    {
      "channel": 0,
      "note": 62,
      "start": 11.0875,
      "duration": 0.3453,
      "velocity": 107,
      "chip": "ym2612"
    },
    {
      "channel": 1,
      "note": 55,
      "start": 11.2042,
      "duration": 0.1119,
      "velocity": 107,
      "chip": "ym2612"
    },
    {
      "channel": 1,
      "note": 57,
      "start": 11.3163,
      "duration": 0.1171,
      "velocity": 107,
      "chip": "ym2612"
    },
    {
      "channel": 0,
      "note": 55,
      "start": 11.433,
      "duration": 0.0998,
      "velocity": 107,
      "chip": "ym2612"
    },
    {
      "channel": 1,
      "note": 58,
      "start": 11.4335,
      "duration": 0.0998,
      "velocity": 107,
      "chip": "ym2612"
    },
    {
      "channel": 2,
      "note": 55,
      "start": 11.434,
      "duration": 0.0999,
      "velocity": 117,
      "chip": "ym2612"
    },
    {
      "channel": 0,
      "note": 57,
      "start": 11.5329,
      "duration": 0.0998,
      "velocity": 107,
      "chip": "ym2612"
    },
    {
      "channel": 1,
      "note": 62,
      "start": 11.5335,
      "duration": 0.3497,
      "velocity": 107,
      "chip": "ym2612"
    },
    {
      "channel": 2,
      "note": 55,
      "start": 11.5341,
      "duration": 1.0446,
      "velocity": 117,
      "chip": "ym2612"
    },
    {
      "channel": 0,
      "note": 58,
      "start": 11.6329,
      "duration": 0.1164,
      "velocity": 107,
      "chip": "ym2612"
    },
    {
      "channel": 0,
      "note": 62,
      "start": 11.7495,
      "duration": 0.1332,
      "velocity": 107,
      "chip": "ym2612"
    },
    {
      "channel": 0,
      "note": 65,
      "start": 11.8829,
      "duration": 0.6953,
      "velocity": 107,
      "chip": "ym2612"
    },
    {
      "channel": 1,
      "note": 55,
      "start": 11.8834,
      "duration": 0.116,
      "velocity": 107,
      "chip": "ym2612"
    },
    {
      "channel": 5,
      "note": 62,
      "start": 11.8842,
      "duration": 3.5785,
      "velocity": 106,
      "chip": "ym2612"
    },
    {
      "channel": 1,
      "note": 57,
      "start": 11.9996,
      "duration": 0.1165,
      "velocity": 107,
      "chip": "ym2612"
    },
    {
      "channel": 1,
      "note": 58,
      "start": 12.1163,
      "duration": 0.0953,
      "velocity": 107,
      "chip": "ym2612"
    },
    {
      "channel": 1,
      "note": 62,
      "start": 12.2118,
      "duration": 0.1163,
      "velocity": 107,
      "chip": "ym2612"
    },
    {
      "channel": 1,
      "note": 65,
      "start": 12.3283,
      "duration": 0.6988,
      "velocity": 107,
      "chip": "ym2612"
    },
    {
      "channel": 0,
      "note": 55,
      "start": 12.5783,
      "duration": 0.0994,
      "velocity": 107,
      "chip": "ym2612"
    },
    {
      "channel": 2,
      "note": 55,
      "start": 12.5789,
      "duration": 0.0994,
      "velocity": 117,
      "chip": "ym2612"
    },
    {
      "channel": 0,
      "note": 57,
      "start": 12.6778,
      "duration": 0.0993,
      "velocity": 107,
      "chip": "ym2612"
    },
    {
      "channel": 2,
      "note": 55,
      "start": 12.6785,
      "duration": 0.5621,
      "velocity": 117,
      "chip": "ym2612"
    },
    {
      "channel": 0,
      "note": 58,
      "start": 12.7772,
      "duration": 0.1165,
      "velocity": 107,
      "chip": "ym2612"
    },
    {
      "channel": 0,
      "note": 62,
      "start": 12.8938,
      "duration": 0.3456,
      "velocity": 107,
      "chip": "ym2612"
    },
    {
      "channel": 1,
      "note": 55,
      "start": 13.0273,
      "duration": 0.0955,
      "velocity": 107,
      "chip": "ym2612"
    },
    {
      "channel": 1,
      "note": 57,
      "start": 13.123,
      "duration": 0.117,
      "velocity": 107,
      "chip": "ym2612"
    },
    {
      "channel": 0,
      "note": 55,
      "start": 13.2396,
      "duration": 0.0998,
      "velocity": 107,
      "chip": "ym2612"
    },
    {
      "channel": 1,
      "note": 58,
      "start": 13.2402,
      "duration": 0.0998,
      "velocity": 107,
      "chip": "ym2612"
    },
    {
      "channel": 2,
      "note": 55,
      "start": 13.2407,
      "duration": 0.0998,
      "velocity": 117,
      "chip": "ym2612"
    },
    {
      "channel": 0,
      "note": 57,
      "start": 13.3396,
      "duration": 0.0996,
      "velocity": 107,
      "chip": "ym2612"
    },
    {
      "channel": 1,
      "note": 62,
      "start": 13.3401,
      "duration": 0.3496,
      "velocity": 107,
      "chip": "ym2612"
    },
    {
      "channel": 2,
      "note": 55,
      "start": 13.3407,
      "duration": 0.3496,
      "velocity": 117,
      "chip": "ym2612"
    },
    {
      "channel": 0,
      "note": 58,
      "start": 13.4394,
      "duration": 0.133,
      "velocity": 107,
      "chip": "ym2612"
    },
    {
      "channel": 0,
      "note": 62,
      "start": 13.5726,
      "duration": 0.1166,
      "velocity": 107,
      "chip": "ym2612"
    },
    {
      "channel": 0,
      "note": 65,
      "start": 13.6894,
      "duration": 0.2164,
      "velocity": 107,
      "chip": "ym2612"
    },
    {
      "channel": 1,
      "note": 55,
      "start": 13.69,
      "duration": 0.0993,
      "velocity": 107,
      "chip": "ym2612"
    },
    {
      "channel": 2,
      "note": 55,
      "start": 13.6905,
      "duration": 0.2165,
      "velocity": 117,
      "chip": "ym2612"
    },
    {
      "channel": 1,
      "note": 57,
      "start": 13.7894,
      "duration": 0.117,
      "velocity": 107,
      "chip": "ym2612"
    },
    {
      "channel": 0,
      "note": 64,
      "start": 13.906,
      "duration": 0.2285,
      "velocity": 107,
      "chip": "ym2612"
    },
    {
      "channel": 1,
      "note": 58,
      "start": 13.9066,
      "duration": 0.0949,
      "velocity": 107,
      "chip": "ym2612"
    },
    {
      "channel": 2,
      "note": 65,
      "start": 13.9072,
      "duration": 0.2285,
      "velocity": 117,
      "chip": "ym2612"
    },
    {
      "channel": 1,
      "note": 62,
      "start": 14.0017,
      "duration": 0.1334,
      "velocity": 107,
      "chip": "ym2612"
    },
    {
      "channel": 0,
      "note": 60,
      "start": 14.1347,
      "duration": 0.218,
      "velocity": 99,
      "chip": "ym2612"
    },
    {
      "channel": 1,
      "note": 65,
      "start": 14.1352,
      "duration": 0.2196,
      "velocity": 102,
      "chip": "ym2612"
    },
    {
      "channel": 2,
      "note": 62,
      "start": 14.1358,
      "duration": 0.2197,
      "velocity": 117,
      "chip": "ym2612"
    },
    {
      "channel": 0,
      "note": 62,
      "start": 14.3529,
      "duration": 0.0978,
      "velocity": 99,
      "chip": "ym2612"
    },
    {
      "channel": 1,
      "note": 74,
      "start": 14.355,
      "duration": 1.8023,
      "velocity": 102,
      "chip": "ym2612"
    },
    {
      "channel": 2,
      "note": 55,
      "start": 14.3556,
      "duration": 0.0957,
      "velocity": 117,
      "chip": "ym2612"
    },
    {
      "channel": 3,
      "note": 67,
      "start": 14.3578,
      "duration": 1.8006,
      "velocity": 102,
      "chip": "ym2612"
    },
    {
      "channel": 4,
      "note": 79,
      "start": 14.3584,
      "duration": 7.1665,
      "velocity": 1,
      "chip": "ym2612"
    },
    {
      "channel": 0,
      "note": 67,
      "start": 14.4509,
      "duration": 0.0995,
      "velocity": 99,
      "chip": "ym2612"
    },
    {
      "channel": 2,
      "note": 67,
      "start": 14.4515,
      "duration": 0.5614,
      "velocity": 117,
      "chip": "ym2612"
    },
    {
      "channel": 0,
      "note": 55,
      "start": 14.5506,
      "duration": 0.133,
      "velocity": 99,
      "chip": "ym2612"
    },
    {
      "channel": 0,
      "note": 62,
      "start": 14.6838,
      "duration": 0.1166,
      "velocity": 99,
      "chip": "ym2612"
    },
    {
      "channel": 0,
      "note": 67,
      "start": 14.8005,
      "duration": 0.0952,
      "velocity": 99,
      "chip": "ym2612"
    },
    {
      "channel": 0,
      "note": 55,
      "start": 14.8959,
      "duration": 0.1164,
      "velocity": 99,
      "chip": "ym2612"
    },
    {
      "channel": 0,
      "note": 62,
      "start": 15.0125,
      "duration": 0.0995,
      "velocity": 99,
      "chip": "ym2612"
    },
    {
      "channel": 2,
      "note": 67,
      "start": 15.0131,
      "duration": 0.0995,
      "velocity": 117,
      "chip": "ym2612"
    },
    {
      "channel": 0,
      "note": 67,
      "start": 15.1121,
      "duration": 0.1159,
      "velocity": 99,
      "chip": "ym2612"
    },
    {
      "channel": 2,
      "note": 55,
      "start": 15.1128,
      "duration": 0.2326,
      "velocity": 117,
      "chip": "ym2612"
    },
    {
      "channel": 0,
      "note": 55,
      "start": 15.2282,
      "duration": 0.1165,
      "velocity": 99,
      "chip": "ym2612"
    },
    {
      "channel": 0,
      "note": 62,
      "start": 15.3449,
      "duration": 0.1165,
      "velocity": 99,
      "chip": "ym2612"
    },
    {
      "channel": 2,
      "note": 67,
      "start": 15.3455,
      "duration": 0.1165,
      "velocity": 117,
      "chip": "ym2612"
    },
    {
      "channel": 0,
      "note": 67,
      "start": 15.4615,
      "duration": 0.1165,
      "velocity": 99,
      "chip": "ym2612"
    },
    {
      "channel": 2,
      "note": 55,
      "start": 15.4622,
      "duration": 0.2332,
      "velocity": 117,
      "chip": "ym2612"
    },
    {
      "channel": 5,
      "note": 62,
      "start": 15.4629,
      "duration": 3.5769,
      "velocity": 106,
      "chip": "ym2612"
    },
    {
      "channel": 0,
      "note": 55,
      "start": 15.5782,
      "duration": 0.1165,
      "velocity": 99,
      "chip": "ym2612"
    },
    {
      "channel": 0,
      "note": 62,
      "start": 15.6949,
      "duration": 0.1118,
      "velocity": 99,
      "chip": "ym2612"
    },
    {
      "channel": 2,
      "note": 65,
      "start": 15.6955,
      "duration": 0.2284,
      "velocity": 117,
      "chip": "ym2612"
    },
    {
      "channel": 0,
      "note": 55,
      "start": 15.8068,
      "duration": 0.1165,
      "velocity": 99,
      "chip": "ym2612"
    },
    {
      "channel": 0,
      "note": 67,
      "start": 15.9235,
      "duration": 0.1165,
      "velocity": 99,
      "chip": "ym2612"
    },
    {
      "channel": 2,
      "note": 62,
      "start": 15.9241,
      "duration": 0.2338,
      "velocity": 117,
      "chip": "ym2612"
    },
    {
      "channel": 0,
      "note": 55,
      "start": 16.0402,
      "duration": 0.1165,
      "velocity": 99,
      "chip": "ym2612"
    },
    {
      "channel": 0,
      "note": 60,
      "start": 16.1569,
      "duration": 0.0996,
      "velocity": 99,
      "chip": "ym2612"
    },
    {
      "channel": 1,
      "note": 72,
      "start": 16.1575,
      "duration": 1.7711,
      "velocity": 102,
      "chip": "ym2612"
    },
    {
      "channel": 2,
      "note": 55,
      "start": 16.158,
      "duration": 0.0991,
      "velocity": 117,
      "chip": "ym2612"
    },
    {
      "channel": 3,
      "note": 65,
      "start": 16.1586,
      "duration": 1.7711,
      "velocity": 102,
      "chip": "ym2612"
    },
    {
      "channel": 0,
      "note": 67,
      "start": 16.2567,
      "duration": 0.1161,
      "velocity": 99,
      "chip": "ym2612"
    },
    {
      "channel": 2,
      "note": 67,
      "start": 16.2573,
      "duration": 0.5615,
      "velocity": 117,
      "chip": "ym2612"
    },
    {
      "channel": 0,
      "note": 55,
      "start": 16.373,
      "duration": 0.1165,
      "velocity": 99,
      "chip": "ym2612"
    },
    {
      "channel": 0,
      "note": 60,
      "start": 16.4896,
      "duration": 0.1166,
      "velocity": 99,
      "chip": "ym2612"
    },
    {
      "channel": 0,
      "note": 67,
      "start": 16.6063,
      "duration": 0.0953,
      "velocity": 99,
      "chip": "ym2612"
    },
    {
      "channel": 0,
      "note": 55,
      "start": 16.7018,
      "duration": 0.1164,
      "velocity": 99,
      "chip": "ym2612"
    },
    {
      "channel": 0,
      "note": 60,
      "start": 16.8184,
      "duration": 0.116,
      "velocity": 99,
      "chip": "ym2612"
    },
    {
      "channel": 2,
      "note": 67,
      "start": 16.819,
      "duration": 0.116,
      "velocity": 117,
      "chip": "ym2612"
    },
    {
      "channel": 0,
      "note": 67,
      "start": 16.9346,
      "duration": 0.0994,
      "velocity": 99,
      "chip": "ym2612"
    },
    {
      "channel": 2,
      "note": 55,
      "start": 16.9352,
      "duration": 0.216,
      "velocity": 117,
      "chip": "ym2612"
    },
    {
      "channel": 0,
      "note": 55,
      "start": 17.0341,
      "duration": 0.1165,
      "velocity": 99,
      "chip": "ym2612"
    },
    {
      "channel": 0,
      "note": 60,
      "start": 17.1508,
      "duration": 0.1165,
      "velocity": 99,
      "chip": "ym2612"
    },
    {
      "channel": 2,
      "note": 67,
      "start": 17.1515,
      "duration": 0.1165,
      "velocity": 117,
      "chip": "ym2612"
    },
    {
      "channel": 0,
      "note": 67,
      "start": 17.2675,
      "duration": 0.0994,
      "velocity": 99,
      "chip": "ym2612"
    },
    {
      "channel": 2,
      "note": 55,
      "start": 17.2681,
      "duration": 0.2327,
      "velocity": 117,
      "chip": "ym2612"
    },
    {
      "channel": 0,
      "note": 55,
      "start": 17.367,
      "duration": 0.1332,
      "velocity": 99,
      "chip": "ym2612"
    },
    {
      "channel": 0,
      "note": 60,
      "start": 17.5004,
      "duration": 0.095,
      "velocity": 99,
      "chip": "ym2612"
    },
    {
      "channel": 2,
      "note": 65,
      "start": 17.501,
      "duration": 0.2115,
      "velocity": 117,
      "chip": "ym2612"
    },
    {
      "channel": 0,
      "note": 55,
      "start": 17.5956,
      "duration": 0.1163,
      "velocity": 99,
      "chip": "ym2612"
    },
    {
      "channel": 0,
      "note": 67,
      "start": 17.7121,
      "duration": 0.0992,
      "velocity": 99,
      "chip": "ym2612"
    },
    {
      "channel": 2,
      "note": 62,
      "start": 17.7127,
      "duration": 0.2164,
      "velocity": 117,
      "chip": "ym2612"
    },
    {
      "channel": 0,
      "note": 55,
      "start": 17.8115,
      "duration": 0.1165,
      "velocity": 99,
      "chip": "ym2612"
    },
    {
      "channel": 0,
      "note": 58,
      "start": 17.9282,
      "duration": 0.1163,
      "velocity": 99,
      "chip": "ym2612"
    },
    {
      "channel": 1,
      "note": 70,
      "start": 17.9288,
      "duration": 1.8223,
      "velocity": 102,
      "chip": "ym2612"
    },
    {
      "channel": 2,
      "note": 55,
      "start": 17.9293,
      "duration": 0.1158,
      "velocity": 117,
      "chip": "ym2612"
    },
    {
      "channel": 3,
      "note": 63,
      "start": 17.9299,
      "duration": 1.8223,
      "velocity": 102,
      "chip": "ym2612"
    },
    {
      "channel": 0,
      "note": 67,
      "start": 18.0446,
      "duration": 0.0994,
      "velocity": 99,
      "chip": "ym2612"
    },
    {
      "channel": 2,
      "note": 67,
      "start": 18.0453,
      "duration": 0.5614,
      "velocity": 117,
      "chip": "ym2612"
    },
    {
      "channel": 0,
      "note": 55,
      "start": 18.1443,
      "duration": 0.1165,
      "velocity": 99,
      "chip": "ym2612"
    },
    {
      "channel": 0,
      "note": 58,
      "start": 18.2609,
      "duration": 0.1166,
      "velocity": 99,
      "chip": "ym2612"
    },
    {
      "channel": 0,
      "note": 67,
      "start": 18.3776,
      "duration": 0.0952,
      "velocity": 99,
      "chip": "ym2612"
    },
    {
      "channel": 0,
      "note": 55,
      "start": 18.473,
      "duration": 0.133,
      "velocity": 99,
      "chip": "ym2612"
    },
    {
      "channel": 0,
      "note": 58,
      "start": 18.6062,
      "duration": 0.0995,
      "velocity": 99,
      "chip": "ym2612"
    },
    {
      "channel": 2,
      "note": 67,
      "start": 18.6068,
      "duration": 0.0995,
      "velocity": 117,
      "chip": "ym2612"
    },
    {
      "channel": 0,
      "note": 67,
      "start": 18.7058,
      "duration": 0.0994,
      "velocity": 99,
      "chip": "ym2612"
    },
    {
      "channel": 2,
      "note": 55,
      "start": 18.7065,
      "duration": 0.216,
      "velocity": 117,
      "chip": "ym2612"
    },
    {
      "channel": 0,
      "note": 55,
      "start": 18.8054,
      "duration": 0.1165,
      "velocity": 99,
      "chip": "ym2612"
    },
    {
      "channel": 0,
      "note": 58,
      "start": 18.922,
      "duration": 0.1165,
      "velocity": 99,
      "chip": "ym2612"
    },
    {
      "channel": 2,
      "note": 67,
      "start": 18.9227,
      "duration": 0.1165,
      "velocity": 117,
      "chip": "ym2612"
    },
    {
      "channel": 0,
      "note": 67,
      "start": 19.0387,
      "duration": 0.1332,
      "velocity": 99,
      "chip": "ym2612"
    },
    {
      "channel": 2,
      "note": 55,
      "start": 19.0393,
      "duration": 0.2498,
      "velocity": 117,
      "chip": "ym2612"
    },
    {
      "channel": 5,
      "note": 62,
      "start": 19.04,
      "duration": 3.5943,
      "velocity": 106,
      "chip": "ym2612"
    },
    {
      "channel": 0,
      "note": 55,
      "start": 19.172,
      "duration": 0.1165,
      "velocity": 99,
      "chip": "ym2612"
    },
    {
      "channel": 0,
      "note": 58,
      "start": 19.2887,
      "duration": 0.0953,
      "velocity": 99,
      "chip": "ym2612"
    },
    {
      "channel": 2,
      "note": 65,
      "start": 19.2893,
      "duration": 0.2117,
      "velocity": 117,
      "chip": "ym2612"
    },
    {
      "channel": 0,
      "note": 55,
      "start": 19.3842,
      "duration": 0.1163,
      "velocity": 99,
      "chip": "ym2612"
    },
    {
      "channel": 0,
      "note": 67,
      "start": 19.5006,
      "duration": 0.1165,
      "velocity": 99,
      "chip": "ym2612"
    },
    {
      "channel": 2,
      "note": 62,
      "start": 19.5013,
      "duration": 0.2504,
      "velocity": 117,
      "chip": "ym2612"
    },
    {
      "channel": 0,
      "note": 55,
      "start": 19.6173,
      "duration": 0.1332,
      "velocity": 99,
      "chip": "ym2612"
    },
    {
      "channel": 0,
      "note": 57,
      "start": 19.7507,
      "duration": 0.0997,
      "velocity": 99,
      "chip": "ym2612"
    },
    {
      "channel": 1,
      "note": 69,
      "start": 19.7513,
      "duration": 1.7718,
      "velocity": 102,
      "chip": "ym2612"
    },
    {
      "channel": 2,
      "note": 55,
      "start": 19.7518,
      "duration": 0.0992,
      "velocity": 117,
      "chip": "ym2612"
    },
    {
      "channel": 3,
      "note": 62,
      "start": 19.7524,
      "duration": 1.7719,
      "velocity": 102,
      "chip": "ym2612"
    },
    {
      "channel": 0,
      "note": 67,
      "start": 19.8506,
      "duration": 0.0996,
      "velocity": 99,
      "chip": "ym2612"
    },
    {
      "channel": 2,
      "note": 67,
      "start": 19.8512,
      "duration": 0.5619,
      "velocity": 117,
      "chip": "ym2612"
    },
    {
      "channel": 0,
      "note": 55,
      "start": 19.9504,
      "duration": 0.1165,
      "velocity": 99,
      "chip": "ym2612"
    },
    {
      "channel": 0,
      "note": 57,
      "start": 20.067,
      "duration": 0.1166,
      "velocity": 99,
      "chip": "ym2612"
    },
    {
      "channel": 0,
      "note": 67,
      "start": 20.1837,
      "duration": 0.1121,
      "velocity": 99,
      "chip": "ym2612"
    },
    {
      "channel": 0,
      "note": 55,
      "start": 20.2959,
      "duration": 0.1165,
      "velocity": 99,
      "chip": "ym2612"
    },
    {
      "channel": 0,
      "note": 57,
      "start": 20.4126,
      "duration": 0.0994,
      "velocity": 99,
      "chip": "ym2612"
    },
    {
      "channel": 2,
      "note": 67,
      "start": 20.4132,
      "duration": 0.0994,
      "velocity": 117,
      "chip": "ym2612"
    },
    {
      "channel": 0,
      "note": 67,
      "start": 20.5122,
      "duration": 0.0993,
      "velocity": 99,
      "chip": "ym2612"
    },
    {
      "channel": 2,
      "note": 55,
      "start": 20.5128,
      "duration": 0.2159,
      "velocity": 117,
      "chip": "ym2612"
    },
    {
      "channel": 0,
      "note": 55,
      "start": 20.6116,
      "duration": 0.1165,
      "velocity": 99,
      "chip": "ym2612"
    },
    {
      "channel": 0,
      "note": 57,
      "start": 20.7283,
      "duration": 0.1332,
      "velocity": 99,
      "chip": "ym2612"
    },
    {
      "channel": 2,
      "note": 67,
      "start": 20.7289,
      "duration": 0.1332,
      "velocity": 117,
      "chip": "ym2612"
    },
    {
      "channel": 0,
      "note": 67,
      "start": 20.8616,
      "duration": 0.0993,
      "velocity": 99,
      "chip": "ym2612"
    },
    {
      "channel": 2,
      "note": 55,
      "start": 20.8622,
      "duration": 0.2159,
      "velocity": 117,
      "chip": "ym2612"
    },
    {
      "channel": 0,
      "note": 55,
      "start": 20.961,
      "duration": 0.1165,
      "velocity": 99,
      "chip": "ym2612"
    },
    {
      "channel": 0,
      "note": 57,
      "start": 21.0777,
      "duration": 0.0952,
      "velocity": 99,
      "chip": "ym2612"
    },
    {
      "channel": 2,
      "note": 65,
      "start": 21.0783,
      "duration": 0.2117,
      "velocity": 117,
      "chip": "ym2612"
    },
    {
      "channel": 0,
      "note": 55,
      "start": 21.1732,
      "duration": 0.1163,
      "velocity": 99,
      "chip": "ym2612"
    },
    {
      "channel": 0,
      "note": 67,
      "start": 21.2896,
      "duration": 0.116,
      "velocity": 99,
      "chip": "ym2612"
    },
    {
      "channel": 2,
      "note": 62,
      "start": 21.2902,
      "duration": 0.2334,
      "velocity": 117,
      "chip": "ym2612"
    },
    {
      "channel": 0,
      "note": 55,
      "start": 21.4058,
      "duration": 0.1166,
      "velocity": 99,
      "chip": "ym2612"
    },
    {
      "channel": 0,
      "note": 62,
      "start": 21.5226,
      "duration": 0.0996,
      "velocity": 99,
      "chip": "ym2612"
    },
    {
      "channel": 1,
      "note": 74,
      "start": 21.5232,
      "duration": 1.8055,
      "velocity": 102,
      "chip": "ym2612"
    },
    {
      "channel": 2,
      "note": 55,
      "start": 21.5239,
      "duration": 0.099,
      "velocity": 117,
      "chip": "ym2612"
    },
    {
      "channel": 3,
      "note": 67,
      "start": 21.5245,
      "duration": 1.8054,
      "velocity": 102,
      "chip": "ym2612"
    },
    {
      "channel": 4,
      "note": 79,
      "start": 21.5251,
      "duration": 7.2704,
      "velocity": 1,
      "chip": "ym2612"
    },
    {
      "channel": 0,
      "note": 67,
      "start": 21.6224,
      "duration": 0.0993,
      "velocity": 99,
      "chip": "ym2612"
    },
    {
      "channel": 2,
      "note": 67,
      "start": 21.623,
      "duration": 0.5615,
      "velocity": 117,
      "chip": "ym2612"
    },
    {
      "channel": 0,
      "note": 55,
      "start": 21.722,
      "duration": 0.1164,
      "velocity": 99,
      "chip": "ym2612"
    },
    {
      "channel": 0,
      "note": 62,
      "start": 21.8385,
      "duration": 0.1332,
      "velocity": 99,
      "chip": "ym2612"
    },
    {
      "channel": 0,
      "note": 67,
      "start": 21.9719,
      "duration": 0.0954,
      "velocity": 99,
      "chip": "ym2612"
    },
    {
      "channel": 0,
      "note": 55,
      "start": 22.0675,
      "duration": 0.1164,
      "velocity": 99,
      "chip": "ym2612"
    },
    {
      "channel": 0,
      "note": 62,
      "start": 22.1841,
      "duration": 0.0992,
      "velocity": 99,
      "chip": "ym2612"
    },
    {
      "channel": 2,
      "note": 67,
      "start": 22.1847,
      "duration": 0.0992,
      "velocity": 117,
      "chip": "ym2612"
    },
    {
      "channel": 0,
      "note": 67,
      "start": 22.2835,
      "duration": 0.0994,
      "velocity": 99,
      "chip": "ym2612"
    },
    {
      "channel": 2,
      "note": 55,
      "start": 22.2841,
      "duration": 0.2327,
      "velocity": 117,
      "chip": "ym2612"
    },
    {
      "channel": 0,
      "note": 55,
      "start": 22.383,
      "duration": 0.1332,
      "velocity": 99,
      "chip": "ym2612"
    },
    {
      "channel": 0,
      "note": 62,
      "start": 22.5164,
      "duration": 0.1165,
      "velocity": 99,
      "chip": "ym2612"
    },
    {
      "channel": 2,
      "note": 67,
      "start": 22.517,
      "duration": 0.1165,
      "velocity": 117,
      "chip": "ym2612"
    },
    {
      "channel": 0,
      "note": 67,
      "start": 22.633,
      "duration": 0.1165,
      "velocity": 99,
      "chip": "ym2612"
    },
    {
      "channel": 2,
      "note": 55,
      "start": 22.6337,
      "duration": 0.2332,
      "velocity": 117,
      "chip": "ym2612"
    },
    {
      "channel": 5,
      "note": 62,
      "start": 22.6344,
      "duration": 3.5774,
      "velocity": 106,
      "chip": "ym2612"
    },
    {
      "channel": 0,
      "note": 55,
      "start": 22.7497,
      "duration": 0.1165,
      "velocity": 99,
      "chip": "ym2612"
    },
    {
      "channel": 0,
      "note": 62,
      "start": 22.8664,
      "duration": 0.0953,
      "velocity": 99,
      "chip": "ym2612"
    },
    {
      "channel": 2,
      "note": 65,
      "start": 22.867,
      "duration": 0.2284,
      "velocity": 117,
      "chip": "ym2612"
    },
    {
      "channel": 0,
      "note": 55,
      "start": 22.9618,
      "duration": 0.1329,
      "velocity": 99,
      "chip": "ym2612"
    },
    {
      "channel": 0,
      "note": 67,
      "start": 23.095,
      "duration": 0.1165,
      "velocity": 99,
      "chip": "ym2612"
    },
    {
      "channel": 2,
      "note": 62,
      "start": 23.0956,
      "duration": 0.2337,
      "velocity": 117,
      "chip": "ym2612"
    },
    {
      "channel": 0,
      "note": 55,
      "start": 23.2116,
      "duration": 0.1165,
      "velocity": 99,
      "chip": "ym2612"
    },
    {
      "channel": 0,
      "note": 60,
      "start": 23.3284,
      "duration": 0.0998,
      "velocity": 99,
      "chip": "ym2612"
    },
    {
      "channel": 1,
      "note": 72,
      "start": 23.3289,
      "duration": 1.7714,
      "velocity": 102,
      "chip": "ym2612"
    },
    {
      "channel": 2,
      "note": 55,
      "start": 23.3295,
      "duration": 0.0993,
      "velocity": 117,
      "chip": "ym2612"
    },
    {
      "channel": 3,
      "note": 65,
      "start": 23.3301,
      "duration": 1.7714,
      "velocity": 102,
      "chip": "ym2612"
    },
    {
      "channel": 0,
      "note": 67,
      "start": 23.4283,
      "duration": 0.0994,
      "velocity": 99,
      "chip": "ym2612"
    },
    {
      "channel": 2,
      "note": 67,
      "start": 23.429,
      "duration": 0.5614,
      "velocity": 117,
      "chip": "ym2612"
    },
    {
      "channel": 0,
      "note": 55,
      "start": 23.528,
      "duration": 0.1331,
      "velocity": 99,
      "chip": "ym2612"
    },
    {
      "channel": 0,
      "note": 60,
      "start": 23.6612,
      "duration": 0.1166,
      "velocity": 99,
      "chip": "ym2612"
    },
    {
      "channel": 0,
      "note": 67,
      "start": 23.778,
      "duration": 0.0952,
      "velocity": 99,
      "chip": "ym2612"
    },
    {
      "channel": 0,
      "note": 55,
      "start": 23.8733,
      "duration": 0.1164,
      "velocity": 99,
      "chip": "ym2612"
    },
    {
      "channel": 0,
      "note": 60,
      "start": 23.9899,
      "duration": 0.0994,
      "velocity": 99,
      "chip": "ym2612"
    },
    {
      "channel": 2,
      "note": 67,
      "start": 23.9906,
      "duration": 0.0994,
      "velocity": 117,
      "chip": "ym2612"
    },
    {
      "channel": 0,
      "note": 67,
      "start": 24.0895,
      "duration": 0.1159,
      "velocity": 99,
      "chip": "ym2612"
    },
    {
      "channel": 2,
      "note": 55,
      "start": 24.0901,
      "duration": 0.2326,
      "velocity": 117,
      "chip": "ym2612"
    },
    {
      "channel": 0,
      "note": 55,
      "start": 24.2056,
      "duration": 0.1165,
      "velocity": 99,
      "chip": "ym2612"
    },
    {
      "channel": 0,
      "note": 60,
      "start": 24.3222,
      "duration": 0.1165,
      "velocity": 99,
      "chip": "ym2612"
    },
    {
      "channel": 2,
      "note": 67,
      "start": 24.3228,
      "duration": 0.1166,
      "velocity": 117,
      "chip": "ym2612"
    },
    {
      "channel": 0,
      "note": 67,
      "start": 24.4389,
      "duration": 0.0992,
      "velocity": 99,
      "chip": "ym2612"
    },
    {
      "channel": 2,
      "note": 55,
      "start": 24.4395,
      "duration": 0.2159,
      "velocity": 117,
      "chip": "ym2612"
    },
    {
      "channel": 0,
      "note": 55,
      "start": 24.5383,
      "duration": 0.1165,
      "velocity": 99,
      "chip": "ym2612"
    },
    {
      "channel": 0,
      "note": 60,
      "start": 24.6549,
      "duration": 0.1118,
      "velocity": 99,
      "chip": "ym2612"
    },
    {
      "channel": 2,
      "note": 65,
      "start": 24.6556,
      "duration": 0.2284,
      "velocity": 117,
      "chip": "ym2612"
    },
    {
      "channel": 0,
      "note": 55,
      "start": 24.7669,
      "duration": 0.1165,
      "velocity": 99,
      "chip": "ym2612"
    },
    {
      "channel": 0,
      "note": 67,
      "start": 24.8835,
      "duration": 0.0995,
      "velocity": 99,
      "chip": "ym2612"
    },
    {
      "channel": 2,
      "note": 62,
      "start": 24.8842,
      "duration": 0.2167,
      "velocity": 117,
      "chip": "ym2612"
    },
    {
      "channel": 0,
      "note": 55,
      "start": 24.9832,
      "duration": 0.1165,
      "velocity": 99,
      "chip": "ym2612"
    },
    {
      "channel": 0,
      "note": 58,
      "start": 25.1,
      "duration": 0.0996,
      "velocity": 99,
      "chip": "ym2612"
    },
    {
      "channel": 1,
      "note": 70,
      "start": 25.1005,
      "duration": 1.8061,
      "velocity": 102,
      "chip": "ym2612"
    },
    {
      "channel": 2,
      "note": 55,
      "start": 25.1011,
      "duration": 0.0991,
      "velocity": 117,
      "chip": "ym2612"
    },
    {
      "channel": 3,
      "note": 63,
      "start": 25.1017,
      "duration": 1.8061,
      "velocity": 102,
      "chip": "ym2612"
    },
    {
      "channel": 0,
      "note": 67,
      "start": 25.1998,
      "duration": 0.1163,
      "velocity": 99,
      "chip": "ym2612"
    },
    {
      "channel": 2,
      "note": 67,
      "start": 25.2004,
      "duration": 0.5617,
      "velocity": 117,
      "chip": "ym2612"
    },
    {
      "channel": 0,
      "note": 55,
      "start": 25.3162,
      "duration": 0.1165,
      "velocity": 99,
      "chip": "ym2612"
    },
    {
      "channel": 0,
      "note": 58,
      "start": 25.4328,
      "duration": 0.1166,
      "velocity": 99,
      "chip": "ym2612"
    },
    {
      "channel": 0,
      "note": 67,
      "start": 25.5496,
      "duration": 0.0953,
      "velocity": 99,
      "chip": "ym2612"
    },
    {
      "channel": 0,
      "note": 55,
      "start": 25.6451,
      "duration": 0.1164,
      "velocity": 99,
      "chip": "ym2612"
    },
    {
      "channel": 0,
      "note": 58,
      "start": 25.7616,
      "duration": 0.116,
      "velocity": 99,
      "chip": "ym2612"
    },
    {
      "channel": 2,
      "note": 67,
      "start": 25.7623,
      "duration": 0.116,
      "velocity": 117,
      "chip": "ym2612"
    },
    {
      "channel": 0,
      "note": 67,
      "start": 25.8778,
      "duration": 0.0994,
      "velocity": 99,
      "chip": "ym2612"
    },
    {
      "channel": 2,
      "note": 55,
      "start": 25.8785,
      "duration": 0.216,
      "velocity": 117,
      "chip": "ym2612"
    },
    {
      "channel": 0,
      "note": 55,
      "start": 25.9774,
      "duration": 0.1165,
      "velocity": 99,
      "chip": "ym2612"
    },
    {
      "channel": 0,
      "note": 58,
      "start": 26.0941,
      "duration": 0.1165,
      "velocity": 99,
      "chip": "ym2612"
    },
    {
      "channel": 2,
      "note": 67,
      "start": 26.0947,
      "duration": 0.1165,
      "velocity": 117,
      "chip": "ym2612"
    },
    {
      "channel": 0,
      "note": 67,
      "start": 26.2107,
      "duration": 0.1165,
      "velocity": 99,
      "chip": "ym2612"
    },
    {
      "channel": 2,
      "note": 55,
      "start": 26.2114,
      "duration": 0.2498,
      "velocity": 117,
      "chip": "ym2612"
    },
    {
      "channel": 5,
      "note": 62,
      "start": 26.2121,
      "duration": 3.5953,
      "velocity": 106,
      "chip": "ym2612"
    },
    {
      "channel": 0,
      "note": 55,
      "start": 26.3274,
      "duration": 0.1332,
      "velocity": 99,
      "chip": "ym2612"
    },
    {
      "channel": 0,
      "note": 58,
      "start": 26.4607,
      "duration": 0.0954,
      "velocity": 99,
      "chip": "ym2612"
    },
    {
      "channel": 2,
      "note": 65,
      "start": 26.4614,
      "duration": 0.2119,
      "velocity": 117,
      "chip": "ym2612"
    },
    {
      "channel": 0,
      "note": 55,
      "start": 26.5563,
      "duration": 0.1164,
      "velocity": 99,
      "chip": "ym2612"
    },
    {
      "channel": 0,
      "note": 67,
      "start": 26.6728,
      "duration": 0.1165,
      "velocity": 99,
      "chip": "ym2612"
    },
    {
      "channel": 2,
      "note": 62,
      "start": 26.6735,
      "duration": 0.2337,
      "velocity": 117,
      "chip": "ym2612"
    },
    {
      "channel": 0,
      "note": 55,
      "start": 26.7895,
      "duration": 0.1165,
      "velocity": 99,
      "chip": "ym2612"
    },
    {
      "channel": 0,
      "note": 57,
      "start": 26.9062,
      "duration": 0.1163,
      "velocity": 99,
      "chip": "ym2612"
    },
    {
      "channel": 1,
      "note": 69,
      "start": 26.9068,
      "duration": 1.7898,
      "velocity": 102,
      "chip": "ym2612"
    },
    {
      "channel": 2,
      "note": 55,
      "start": 26.9074,
      "duration": 0.1159,
      "velocity": 117,
      "chip": "ym2612"
    },
    {
      "channel": 3,
      "note": 62,
      "start": 26.908,
      "duration": 1.7899,
      "velocity": 102,
      "chip": "ym2612"
    },
    {
      "channel": 0,
      "note": 67,
      "start": 27.0228,
      "duration": 0.0994,
      "velocity": 99,
      "chip": "ym2612"
    },
    {
      "channel": 2,
      "note": 67,
      "start": 27.0234,
      "duration": 0.5615,
      "velocity": 117,
      "chip": "ym2612"
    },
    {
      "channel": 0,
      "note": 55,
      "start": 27.1224,
      "duration": 0.1165,
      "velocity": 99,
      "chip": "ym2612"
    },
    {
      "channel": 0,
      "note": 57,
      "start": 27.239,
      "duration": 0.1166,
      "velocity": 99,
      "chip": "ym2612"
    },
    {
      "channel": 0,
      "note": 67,
      "start": 27.3557,
      "duration": 0.0953,
      "velocity": 99,
      "chip": "ym2612"
    },
    {
      "channel": 0,
      "note": 55,
      "start": 27.4513,
      "duration": 0.1331,
      "velocity": 99,
      "chip": "ym2612"
    },
    {
      "channel": 0,
      "note": 57,
      "start": 27.5845,
      "duration": 0.0993,
      "velocity": 99,
      "chip": "ym2612"
    },
    {
      "channel": 2,
      "note": 67,
      "start": 27.5851,
      "duration": 0.0993,
      "velocity": 117,
      "chip": "ym2612"
    },
    {
      "channel": 0,
      "note": 67,
      "start": 27.684,
      "duration": 0.0994,
      "velocity": 99,
      "chip": "ym2612"
    },
    {
      "channel": 2,
      "note": 55,
      "start": 27.6846,
      "duration": 0.216,
      "velocity": 117,
      "chip": "ym2612"
    },
    {
      "channel": 0,
      "note": 55,
      "start": 27.7835,
      "duration": 0.1165,
      "velocity": 99,
      "chip": "ym2612"
    },
    {
      "channel": 0,
      "note": 57,
      "start": 27.9002,
      "duration": 0.1165,
      "velocity": 99,
      "chip": "ym2612"
    },
    {
      "channel": 2,
      "note": 67,
      "start": 27.9008,
      "duration": 0.1165,
      "velocity": 117,
      "chip": "ym2612"
    },
    {
      "channel": 0,
      "note": 67,
      "start": 28.0168,
      "duration": 0.1159,
      "velocity": 99,
      "chip": "ym2612"
    },
    {
      "channel": 2,
      "note": 55,
      "start": 28.0175,
      "duration": 0.2326,
      "velocity": 117,
      "chip": "ym2612"
    },
    {
      "channel": 0,
      "note": 55,
      "start": 28.1329,
      "duration": 0.1165,
      "velocity": 99,
      "chip": "ym2612"
    },
    {
      "channel": 0,
      "note": 57,
      "start": 28.2496,
      "duration": 0.0952,
      "velocity": 99,
      "chip": "ym2612"
    },
    {
      "channel": 2,
      "note": 65,
      "start": 28.2502,
      "duration": 0.2117,
      "velocity": 117,
      "chip": "ym2612"
    },
    {
      "channel": 0,
      "note": 55,
      "start": 28.345,
      "duration": 0.1163,
      "velocity": 99,
      "chip": "ym2612"
    },
    {
      "channel": 0,
      "note": 67,
      "start": 28.4615,
      "duration": 0.0995,
      "velocity": 99,
      "chip": "ym2612"
    },
    {
      "channel": 2,
      "note": 62,
      "start": 28.4621,
      "duration": 0.2351,
      "velocity": 117,
      "chip": "ym2612"
    },
    {
      "channel": 0,
      "note": 55,
      "start": 28.5612,
      "duration": 0.1349,
      "velocity": 107,
      "chip": "ym2612"
    },
    {
      "channel": 0,
      "note": 55,
      "start": 28.6961,
      "duration": 0.098,
      "velocity": 107,
      "chip": "ym2612"
    },
    {
      "channel": 1,
      "note": 74,
      "start": 28.6968,
      "duration": 3.5763,
      "velocity": 102,
      "chip": "ym2612"
    },
    {
      "channel": 2,
      "note": 55,
      "start": 28.6974,
      "duration": 0.0974,
      "velocity": 117,
      "chip": "ym2612"
    },
    {
      "channel": 3,
      "note": 70,
      "start": 28.698,
      "duration": 3.5762,
      "velocity": 102,
      "chip": "ym2612"
    },
    {
      "channel": 0,
      "note": 57,
      "start": 28.7944,
      "duration": 0.0997,
      "velocity": 107,
      "chip": "ym2612"
    },
    {
      "channel": 2,
      "note": 67,
      "start": 28.795,
      "duration": 0.5614,
      "velocity": 117,
      "chip": "ym2612"
    },
    {
      "channel": 4,
      "note": 67,
      "start": 28.7957,
      "duration": 0.3336,
      "velocity": 107,
      "chip": "ym2612"
    },
    {
      "channel": 0,
      "note": 58,
      "start": 28.8943,
      "duration": 0.1164,
      "velocity": 107,
      "chip": "ym2612"
    },
    {
      "channel": 0,
      "note": 62,
      "start": 29.0108,
      "duration": 0.345,
      "velocity": 107,
      "chip": "ym2612"
    },
    {
      "channel": 4,
      "note": 55,
      "start": 29.1294,
      "duration": 0.1099,
      "velocity": 107,
      "chip": "ym2612"
    },
    {
      "channel": 4,
      "note": 57,
      "start": 29.2395,
      "duration": 0.1176,
      "velocity": 107,
      "chip": "ym2612"
    },
    {
      "channel": 0,
      "note": 55,
      "start": 29.356,
      "duration": 0.0994,
      "velocity": 107,
      "chip": "ym2612"
    },
    {
      "channel": 2,
      "note": 67,
      "start": 29.3566,
      "duration": 0.0994,
      "velocity": 117,
      "chip": "ym2612"
    },
    {
      "channel": 4,
      "note": 58,
      "start": 29.3572,
      "duration": 0.0995,
      "velocity": 107,
      "chip": "ym2612"
    },
    {
      "channel": 0,
      "note": 57,
      "start": 29.4556,
      "duration": 0.0998,
      "velocity": 107,
      "chip": "ym2612"
    },
    {
      "channel": 2,
      "note": 55,
      "start": 29.4562,
      "duration": 0.2165,
      "velocity": 117,
      "chip": "ym2612"
    },
    {
      "channel": 4,
      "note": 62,
      "start": 29.4568,
      "duration": 0.3498,
      "velocity": 107,
      "chip": "ym2612"
    },
    {
      "channel": 0,
      "note": 58,
      "start": 29.5556,
      "duration": 0.1164,
      "velocity": 107,
      "chip": "ym2612"
    },
    {
      "channel": 0,
      "note": 62,
      "start": 29.6722,
      "duration": 0.1332,
      "velocity": 107,
      "chip": "ym2612"
    },
    {
      "channel": 2,
      "note": 67,
      "start": 29.6729,
      "duration": 0.1332,
      "velocity": 117,
      "chip": "ym2612"
    },
    {
      "channel": 0,
      "note": 65,
      "start": 29.8056,
      "duration": 0.6953,
      "velocity": 107,
      "chip": "ym2612"
    },
    {
      "channel": 2,
      "note": 55,
      "start": 29.8062,
      "duration": 0.4448,
      "velocity": 117,
      "chip": "ym2612"
    },
    {
      "channel": 4,
      "note": 55,
      "start": 29.8068,
      "duration": 0.1155,
      "velocity": 107,
      "chip": "ym2612"
    },
    {
      "channel": 5,
      "note": 62,
      "start": 29.8075,
      "duration": 3.578,
      "velocity": 106,
      "chip": "ym2612"
    },
    {
      "channel": 4,
      "note": 57,
      "start": 29.9225,
      "duration": 0.1164,
      "velocity": 107,
      "chip": "ym2612"
    },
    {
      "channel": 4,
      "note": 58,
      "start": 30.0391,
      "duration": 0.0955,
      "velocity": 107,
      "chip": "ym2612"
    },
    {
      "channel": 4,
      "note": 62,
      "start": 30.1348,
      "duration": 0.1169,
      "velocity": 107,
      "chip": "ym2612"
    },
    {
      "channel": 2,
      "note": 67,
      "start": 30.2512,
      "duration": 0.2503,
      "velocity": 117,
      "chip": "ym2612"
    },
    {
      "channel": 4,
      "note": 65,
      "start": 30.2518,
      "duration": 0.6984,
      "velocity": 107,
      "chip": "ym2612"
    },
    {
      "channel": 0,
      "note": 55,
      "start": 30.5011,
      "duration": 0.0995,
      "velocity": 107,
      "chip": "ym2612"
    },
    {
      "channel": 2,
      "note": 53,
      "start": 30.5017,
      "duration": 0.0995,
      "velocity": 117,
      "chip": "ym2612"
    },
    {
      "channel": 0,
      "note": 57,
      "start": 30.6008,
      "duration": 0.0993,
      "velocity": 107,
      "chip": "ym2612"
    },
    {
      "channel": 2,
      "note": 65,
      "start": 30.6014,
      "duration": 0.5611,
      "velocity": 117,
      "chip": "ym2612"
    },
    {
      "channel": 0,
      "note": 58,
      "start": 30.7002,
      "duration": 0.1164,
      "velocity": 107,
      "chip": "ym2612"
    },
    {
      "channel": 0,
      "note": 62,
      "start": 30.8168,
      "duration": 0.3451,
      "velocity": 107,
      "chip": "ym2612"
    },
    {
      "channel": 4,
      "note": 55,
      "start": 30.9504,
      "duration": 0.095,
      "velocity": 107,
      "chip": "ym2612"
    },
    {
      "channel": 4,
      "note": 57,
      "start": 31.0456,
      "duration": 0.1175,
      "velocity": 107,
      "chip": "ym2612"
    },
    {
      "channel": 0,
      "note": 55,
      "start": 31.162,
      "duration": 0.0993,
      "velocity": 107,
      "chip": "ym2612"
    },
    {
      "channel": 2,
      "note": 65,
      "start": 31.1627,
      "duration": 0.0993,
      "velocity": 117,
      "chip": "ym2612"
    },
    {
      "channel": 4,
      "note": 58,
      "start": 31.1632,
      "duration": 0.0993,
      "velocity": 107,
      "chip": "ym2612"
    },
    {
      "channel": 0,
      "note": 57,
      "start": 31.2615,
      "duration": 0.0996,
      "velocity": 107,
      "chip": "ym2612"
    },
    {
      "channel": 2,
      "note": 53,
      "start": 31.2621,
      "duration": 0.233,
      "velocity": 117,
      "chip": "ym2612"
    },
    {
      "channel": 4,
      "note": 62,
      "start": 31.2627,
      "duration": 0.3497,
      "velocity": 107,
      "chip": "ym2612"
    },
    {
      "channel": 0,
      "note": 58,
      "start": 31.3613,
      "duration": 0.1331,
      "velocity": 107,
      "chip": "ym2612"
    },
    {
      "channel": 0,
      "note": 62,
      "start": 31.4946,
      "duration": 0.1165,
      "velocity": 107,
      "chip": "ym2612"
    },
    {
      "channel": 2,
      "note": 65,
      "start": 31.4952,
      "duration": 0.1165,
      "velocity": 117,
      "chip": "ym2612"
    },
    {
      "channel": 0,
      "note": 65,
      "start": 31.6113,
      "duration": 0.2161,
      "velocity": 107,
      "chip": "ym2612"
    },
    {
      "channel": 2,
      "note": 53,
      "start": 31.612,
      "duration": 0.4447,
      "velocity": 117,
      "chip": "ym2612"
    },
    {
      "channel": 4,
      "note": 55,
      "start": 31.6125,
      "duration": 0.0985,
      "velocity": 107,
      "chip": "ym2612"
    },
    {
      "channel": 4,
      "note": 57,
      "start": 31.7111,
      "duration": 0.117,
      "velocity": 107,
      "chip": "ym2612"
    },
    {
      "channel": 0,
      "note": 64,
      "start": 31.8276,
      "duration": 0.2284,
      "velocity": 107,
      "chip": "ym2612"
    },
    {
      "channel": 4,
      "note": 58,
      "start": 31.8283,
      "duration": 0.0947,
      "velocity": 107,
      "chip": "ym2612"
    },
    {
      "channel": 4,
      "note": 62,
      "start": 31.9232,
      "duration": 0.134,
      "velocity": 107,
      "chip": "ym2612"
    },
    {
      "channel": 0,
      "note": 60,
      "start": 32.0562,
      "duration": 0.2164,
      "velocity": 107,
      "chip": "ym2612"
    },
    {
      "channel": 2,
      "note": 65,
      "start": 32.0568,
      "duration": 0.217,
      "velocity": 117,
      "chip": "ym2612"
    },
    {
      "channel": 4,
      "note": 65,
      "start": 32.0574,
      "duration": 0.2174,
      "velocity": 107,
      "chip": "ym2612"
    },
    {
      "channel": 0,
      "note": 55,
      "start": 32.2728,
      "duration": 0.0997,
      "velocity": 107,
      "chip": "ym2612"
    },
    {
      "channel": 1,
      "note": 64,
      "start": 32.2733,
      "duration": 3.5783,
      "velocity": 102,
      "chip": "ym2612"
    },
    {
      "channel": 2,
      "note": 48,
      "start": 32.2738,
      "duration": 0.0993,
      "velocity": 117,
      "chip": "ym2612"
    },
    {
      "channel": 3,
      "note": 67,
      "start": 32.2744,
      "duration": 3.5783,
      "velocity": 102,
      "chip": "ym2612"
    },
    {
      "channel": 4,
      "note": 64,
      "start": 32.275,
      "duration": 0.1979,
      "velocity": 107,
      "chip": "ym2612"
    },
    {
      "channel": 0,
      "note": 57,
      "start": 32.3727,
      "duration": 0.0994,
      "velocity": 107,
      "chip": "ym2612"
    },
    {
      "channel": 2,
      "note": 60,
      "start": 32.3733,
      "duration": 0.5614,
      "velocity": 117,
      "chip": "ym2612"
    },
    {
      "channel": 0,
      "note": 58,
      "start": 32.4723,
      "duration": 0.1331,
      "velocity": 107,
      "chip": "ym2612"
    },
    {
      "channel": 4,
      "note": 60,
      "start": 32.4731,
      "duration": 0.2493,
      "velocity": 107,
      "chip": "ym2612"
    },
    {
      "channel": 0,
      "note": 62,
      "start": 32.6056,
      "duration": 0.3285,
      "velocity": 107,
      "chip": "ym2612"
    },
    {
      "channel": 4,
      "note": 55,
      "start": 32.7225,
      "duration": 0.0951,
      "velocity": 107,
      "chip": "ym2612"
    },
    {
      "channel": 4,
      "note": 57,
      "start": 32.8178,
      "duration": 0.1175,
      "velocity": 107,
      "chip": "ym2612"
    },
    {
      "channel": 0,
      "note": 55,
      "start": 32.9342,
      "duration": 0.0995,
      "velocity": 107,
      "chip": "ym2612"
    },
    {
      "channel": 2,
      "note": 60,
      "start": 32.9349,
      "duration": 0.0995,
      "velocity": 117,
      "chip": "ym2612"
    },
    {
      "channel": 4,
      "note": 58,
      "start": 32.9354,
      "duration": 0.0995,
      "velocity": 107,
      "chip": "ym2612"
    },
    {
      "channel": 0,
      "note": 57,
      "start": 33.0339,
      "duration": 0.1164,
      "velocity": 107,
      "chip": "ym2612"
    },
    {
      "channel": 2,
      "note": 48,
      "start": 33.0345,
      "duration": 0.2331,
      "velocity": 117,
      "chip": "ym2612"
    },
    {
      "channel": 4,
      "note": 62,
      "start": 33.0351,
      "duration": 0.3498,
      "velocity": 107,
      "chip": "ym2612"
    },
    {
      "channel": 0,
      "note": 58,
      "start": 33.1505,
      "duration": 0.1164,
      "velocity": 107,
      "chip": "ym2612"
    },
    {
      "channel": 0,
      "note": 62,
      "start": 33.2671,
      "duration": 0.1165,
      "velocity": 107,
      "chip": "ym2612"
    },
    {
      "channel": 2,
      "note": 60,
      "start": 33.2677,
      "duration": 0.1165,
      "velocity": 117,
      "chip": "ym2612"
    },
    {
      "channel": 0,
      "note": 65,
      "start": 33.3838,
      "duration": 0.6953,
      "velocity": 107,
      "chip": "ym2612"
    },
    {
      "channel": 2,
      "note": 48,
      "start": 33.3845,
      "duration": 0.4615,
      "velocity": 117,
      "chip": "ym2612"
    },
    {
      "channel": 4,
      "note": 55,
      "start": 33.385,
      "duration": 0.1155,
      "velocity": 107,
      "chip": "ym2612"
    },
    {
      "channel": 5,
      "note": 62,
      "start": 33.3857,
      "duration": 3.5778,
      "velocity": 106,
      "chip": "ym2612"
    },
    {
      "channel": 4,
      "note": 57,
      "start": 33.5007,
      "duration": 0.1164,
      "velocity": 107,
      "chip": "ym2612"
    },
    {
      "channel": 4,
      "note": 58,
      "start": 33.6173,
      "duration": 0.1121,
      "velocity": 107,
      "chip": "ym2612"
    },
    {
      "channel": 4,
      "note": 62,
      "start": 33.7296,
      "duration": 0.117,
      "velocity": 107,
      "chip": "ym2612"
    },
    {
      "channel": 2,
      "note": 60,
      "start": 33.8461,
      "duration": 0.2337,
      "velocity": 117,
      "chip": "ym2612"
    },
    {
      "channel": 4,
      "note": 65,
      "start": 33.8467,
      "duration": 0.6817,
      "velocity": 107,
      "chip": "ym2612"
    },
    {
      "channel": 0,
      "note": 55,
      "start": 34.0793,
      "duration": 0.0995,
      "velocity": 107,
      "chip": "ym2612"
    },
    {
      "channel": 2,
      "note": 48,
      "start": 34.08,
      "duration": 0.0995,
      "velocity": 117,
      "chip": "ym2612"
    },
    {
      "channel": 0,
      "note": 57,
      "start": 34.179,
      "duration": 0.1159,
      "velocity": 107,
      "chip": "ym2612"
    },
    {
      "channel": 2,
      "note": 60,
      "start": 34.1796,
      "duration": 0.5612,
      "velocity": 117,
      "chip": "ym2612"
    },
    {
      "channel": 0,
      "note": 58,
      "start": 34.2951,
      "duration": 0.1165,
      "velocity": 107,
      "chip": "ym2612"
    },
    {
      "channel": 0,
      "note": 62,
      "start": 34.4117,
      "duration": 0.3285,
      "velocity": 107,
      "chip": "ym2612"
    },
    {
      "channel": 4,
      "note": 55,
      "start": 34.5286,
      "duration": 0.0951,
      "velocity": 107,
      "chip": "ym2612"
    },
    {
      "channel": 4,
      "note": 57,
      "start": 34.624,
      "duration": 0.1175,
      "velocity": 107,
      "chip": "ym2612"
    },
    {
      "channel": 0,
      "note": 55,
      "start": 34.7404,
      "duration": 0.1161,
      "velocity": 107,
      "chip": "ym2612"
    },
    {
      "channel": 2,
      "note": 60,
      "start": 34.741,
      "duration": 0.1161,
      "velocity": 117,
      "chip": "ym2612"
    },
    {
      "channel": 4,
      "note": 58,
      "start": 34.7416,
      "duration": 0.1162,
      "velocity": 107,
      "chip": "ym2612"
    },
    {
      "channel": 0,
      "note": 57,
      "start": 34.8567,
      "duration": 0.0994,
      "velocity": 107,
      "chip": "ym2612"
    },
    {
      "channel": 2,
      "note": 48,
      "start": 34.8574,
      "duration": 0.2161,
      "velocity": 117,
      "chip": "ym2612"
    },
    {
      "channel": 4,
      "note": 62,
      "start": 34.8579,
      "duration": 0.3328,
      "velocity": 107,
      "chip": "ym2612"
    },
    {
      "channel": 0,
      "note": 58,
      "start": 34.9564,
      "duration": 0.1164,
      "velocity": 107,
      "chip": "ym2612"
    },
    {
      "channel": 0,
      "note": 62,
      "start": 35.073,
      "duration": 0.1165,
      "velocity": 107,
      "chip": "ym2612"
    },
    {
      "channel": 2,
      "note": 60,
      "start": 35.0736,
      "duration": 0.1165,
      "velocity": 117,
      "chip": "ym2612"
    },
    {
      "channel": 0,
      "note": 65,
      "start": 35.1897,
      "duration": 0.2327,
      "velocity": 107,
      "chip": "ym2612"
    },
    {
      "channel": 2,
      "note": 48,
      "start": 35.1903,
      "duration": 0.4449,
      "velocity": 117,
      "chip": "ym2612"
    },
    {
      "channel": 4,
      "note": 55,
      "start": 35.1909,
      "duration": 0.0985,
      "velocity": 107,
      "chip": "ym2612"
    },
    {
      "channel": 4,
      "note": 57,
      "start": 35.2895,
      "duration": 0.1337,
      "velocity": 107,
      "chip": "ym2612"
    },
    {
      "channel": 0,
      "note": 64,
      "start": 35.4226,
      "duration": 0.212,
      "velocity": 107,
      "chip": "ym2612"
    },
    {
      "channel": 4,
      "note": 58,
      "start": 35.4234,
      "duration": 0.0948,
      "velocity": 107,
      "chip": "ym2612"
    },
    {
      "channel": 4,
      "note": 62,
      "start": 35.5184,
      "duration": 0.1174,
      "velocity": 107,
      "chip": "ym2612"
    },
    {
      "channel": 0,
      "note": 60,
      "start": 35.6348,
      "duration": 0.2161,
      "velocity": 107,
      "chip": "ym2612"
    },
    {
      "channel": 2,
      "note": 60,
      "start": 35.6354,
      "duration": 0.2168,
      "velocity": 117,
      "chip": "ym2612"
    },
    {
      "channel": 4,
      "note": 65,
      "start": 35.636,
      "duration": 0.3341,
      "velocity": 1,
      "chip": "ym2612"
    },
    {
      "channel": 0,
      "note": 55,
      "start": 35.851,
      "duration": 0.1161,
      "velocity": 107,
      "chip": "ym2612"
    },
    {
      "channel": 1,
      "note": 74,
      "start": 35.8517,
      "duration": 3.5948,
      "velocity": 102,
      "chip": "ym2612"
    },
    {
      "channel": 2,
      "note": 55,
      "start": 35.8523,
      "duration": 0.1155,
      "velocity": 117,
      "chip": "ym2612"
    },
    {
      "channel": 3,
      "note": 70,
      "start": 35.8529,
      "duration": 3.5946,
      "velocity": 102,
      "chip": "ym2612"
    },
    {
      "channel": 0,
      "note": 57,
      "start": 35.9674,
      "duration": 0.0994,
      "velocity": 107,
      "chip": "ym2612"
    },
    {
      "channel": 2,
      "note": 67,
      "start": 35.968,
      "duration": 0.5614,
      "velocity": 117,
      "chip": "ym2612"
    },
    {
      "channel": 4,
      "note": 67,
      "start": 35.9702,
      "duration": 0.3318,
      "velocity": 107,
      "chip": "ym2612"
    },
    {
      "channel": 0,
      "note": 58,
      "start": 36.067,
      "duration": 0.1164,
      "velocity": 107,
      "chip": "ym2612"
    },
    {
      "channel": 0,
      "note": 62,
      "start": 36.1835,
      "duration": 0.3452,
      "velocity": 107,
      "chip": "ym2612"
    },
    {
      "channel": 4,
      "note": 55,
      "start": 36.3021,
      "duration": 0.0938,
      "velocity": 107,
      "chip": "ym2612"
    },
    {
      "channel": 4,
      "note": 57,
      "start": 36.3961,
      "duration": 0.1339,
      "velocity": 107,
      "chip": "ym2612"
    },
    {
      "channel": 0,
      "note": 55,
      "start": 36.5289,
      "duration": 0.0996,
      "velocity": 107,
      "chip": "ym2612"
    },
    {
      "channel": 2,
      "note": 67,
      "start": 36.5295,
      "duration": 0.0997,
      "velocity": 117,
      "chip": "ym2612"
    },
    {
      "channel": 4,
      "note": 58,
      "start": 36.5301,
      "duration": 0.0997,
      "velocity": 107,
      "chip": "ym2612"
    },
    {
      "channel": 0,
      "note": 57,
      "start": 36.6288,
      "duration": 0.0994,
      "velocity": 107,
      "chip": "ym2612"
    },
    {
      "channel": 2,
      "note": 55,
      "start": 36.6294,
      "duration": 0.2161,
      "velocity": 117,
      "chip": "ym2612"
    },
    {
      "channel": 4,
      "note": 62,
      "start": 36.63,
      "duration": 0.3328,
      "velocity": 107,
      "chip": "ym2612"
    },
    {
      "channel": 0,
      "note": 58,
      "start": 36.7284,
      "duration": 0.1164,
      "velocity": 107,
      "chip": "ym2612"
    },
    {
      "channel": 0,
      "note": 62,
      "start": 36.845,
      "duration": 0.1165,
      "velocity": 107,
      "chip": "ym2612"
    },
    {
      "channel": 2,
      "note": 67,
      "start": 36.8456,
      "duration": 0.1165,
      "velocity": 117,
      "chip": "ym2612"
    },
    {
      "channel": 0,
      "note": 65,
      "start": 36.9617,
      "duration": 0.7118,
      "velocity": 107,
      "chip": "ym2612"
    },
    {
      "channel": 2,
      "note": 55,
      "start": 36.9624,
      "duration": 0.4613,
      "velocity": 117,
      "chip": "ym2612"
    },
    {
      "channel": 4,
      "note": 55,
      "start": 36.9629,
      "duration": 0.1322,
      "velocity": 107,
      "chip": "ym2612"
    },
    {
      "channel": 5,
      "note": 62,
      "start": 36.9637,
      "duration": 3.5946,
      "velocity": 106,
      "chip": "ym2612"
    },
    {
      "channel": 4,
      "note": 57,
      "start": 37.0953,
      "duration": 0.1165,
      "velocity": 107,
      "chip": "ym2612"
    },
    {
      "channel": 4,
      "note": 58,
      "start": 37.2119,
      "duration": 0.0954,
      "velocity": 107,
      "chip": "ym2612"
    },
    {
      "channel": 4,
      "note": 62,
      "start": 37.3074,
      "duration": 0.1169,
      "velocity": 107,
      "chip": "ym2612"
    },
    {
      "channel": 2,
      "note": 67,
      "start": 37.4239,
      "duration": 0.2503,
      "velocity": 117,
      "chip": "ym2612"
    },
    {
      "channel": 4,
      "note": 65,
      "start": 37.4244,
      "duration": 0.6818,
      "velocity": 107,
      "chip": "ym2612"
    },
    {
      "channel": 0,
      "note": 55,
      "start": 37.6737,
      "duration": 0.0994,
      "velocity": 107,
      "chip": "ym2612"
    },
    {
      "channel": 2,
      "note": 53,
      "start": 37.6744,
      "duration": 0.0994,
      "velocity": 117,
      "chip": "ym2612"
    },
    {
      "channel": 0,
      "note": 57,
      "start": 37.7733,
      "duration": 0.0994,
      "velocity": 107,
      "chip": "ym2612"
    },
    {
      "channel": 2,
      "note": 65,
      "start": 37.7739,
      "duration": 0.5615,
      "velocity": 117,
      "chip": "ym2612"
    },
    {
      "channel": 0,
      "note": 58,
      "start": 37.8729,
      "duration": 0.1164,
      "velocity": 107,
      "chip": "ym2612"
    },
    {
      "channel": 0,
      "note": 62,
      "start": 37.9894,
      "duration": 0.3454,
      "velocity": 107,
      "chip": "ym2612"
    },
    {
      "channel": 4,
      "note": 55,
      "start": 38.1064,
      "duration": 0.1119,
      "velocity": 107,
      "chip": "ym2612"
    },
    {
      "channel": 4,
      "note": 57,
      "start": 38.2185,
      "duration": 0.1176,
      "velocity": 107,
      "chip": "ym2612"
    },
    {
      "channel": 0,
      "note": 55,
      "start": 38.335,
      "duration": 0.0994,
      "velocity": 107,
      "chip": "ym2612"
    },
    {
      "channel": 2,
      "note": 65,
      "start": 38.3356,
      "duration": 0.0994,
      "velocity": 117,
      "chip": "ym2612"
    },
    {
      "channel": 4,
      "note": 58,
      "start": 38.3362,
      "duration": 0.0995,
      "velocity": 107,
      "chip": "ym2612"
    },
    {
      "channel": 0,
      "note": 57,
      "start": 38.4346,
      "duration": 0.0998,
      "velocity": 107,
      "chip": "ym2612"
    },
    {
      "channel": 2,
      "note": 53,
      "start": 38.4352,
      "duration": 0.2165,
      "velocity": 117,
      "chip": "ym2612"
    },
    {
      "channel": 4,
      "note": 62,
      "start": 38.4358,
      "duration": 0.3498,
      "velocity": 107,
      "chip": "ym2612"
    },
    {
      "channel": 0,
      "note": 58,
      "start": 38.5346,
      "duration": 0.1164,
      "velocity": 107,
      "chip": "ym2612"
    },
    {
      "channel": 0,
      "note": 62,
      "start": 38.6512,
      "duration": 0.1332,
      "velocity": 107,
      "chip": "ym2612"
    },
    {
      "channel": 2,
      "note": 65,
      "start": 38.6518,
      "duration": 0.1332,
      "velocity": 117,
      "chip": "ym2612"
    },
    {
      "channel": 0,
      "note": 65,
      "start": 38.7846,
      "duration": 0.2163,
      "velocity": 107,
      "chip": "ym2612"
    },
    {
      "channel": 2,
      "note": 53,
      "start": 38.7852,
      "duration": 0.4281,
      "velocity": 117,
      "chip": "ym2612"
    },
    {
      "channel": 4,
      "note": 55,
      "start": 38.7858,
      "duration": 0.0987,
      "velocity": 107,
      "chip": "ym2612"
    },
    {
      "channel": 4,
      "note": 57,
      "start": 38.8847,
      "duration": 0.1169,
      "velocity": 107,
      "chip": "ym2612"
    },
    {
      "channel": 0,
      "note": 64,
      "start": 39.001,
      "duration": 0.2116,
      "velocity": 107,
      "chip": "ym2612"
    },
    {
      "channel": 4,
      "note": 58,
      "start": 39.0018,
      "duration": 0.0945,
      "velocity": 107,
      "chip": "ym2612"
    },
    {
      "channel": 4,
      "note": 62,
      "start": 39.0965,
      "duration": 0.1174,
      "velocity": 107,
      "chip": "ym2612"
    },
    {
      "channel": 0,
      "note": 60,
      "start": 39.2129,
      "duration": 0.233,
      "velocity": 107,
      "chip": "ym2612"
    },
    {
      "channel": 2,
      "note": 65,
      "start": 39.2135,
      "duration": 0.2335,
      "velocity": 117,
      "chip": "ym2612"
    },
    {
      "channel": 4,
      "note": 65,
      "start": 39.2141,
      "duration": 0.234,
      "velocity": 107,
      "chip": "ym2612"
    },
    {
      "channel": 0,
      "note": 55,
      "start": 39.4461,
      "duration": 0.0995,
      "velocity": 107,
      "chip": "ym2612"
    },
    {
      "channel": 1,
      "note": 64,
      "start": 39.4466,
      "duration": 3.5773,
      "velocity": 102,
      "chip": "ym2612"
    },
    {
      "channel": 2,
      "note": 48,
      "start": 39.4471,
      "duration": 0.099,
      "velocity": 117,
      "chip": "ym2612"
    },
    {
      "channel": 3,
      "note": 67,
      "start": 39.4477,
      "duration": 3.5774,
      "velocity": 102,
      "chip": "ym2612"
    },
    {
      "channel": 4,
      "note": 64,
      "start": 39.4483,
      "duration": 0.1978,
      "velocity": 107,
      "chip": "ym2612"
    },
    {
      "channel": 0,
      "note": 57,
      "start": 39.5457,
      "duration": 0.0995,
      "velocity": 107,
      "chip": "ym2612"
    },
    {
      "channel": 2,
      "note": 60,
      "start": 39.5464,
      "duration": 0.5613,
      "velocity": 117,
      "chip": "ym2612"
    },
    {
      "channel": 0,
      "note": 58,
      "start": 39.6455,
      "duration": 0.1164,
      "velocity": 107,
      "chip": "ym2612"
    },
    {
      "channel": 4,
      "note": 60,
      "start": 39.6462,
      "duration": 0.2493,
      "velocity": 107,
      "chip": "ym2612"
    },
    {
      "channel": 0,
      "note": 62,
      "start": 39.7621,
      "duration": 0.345,
      "velocity": 107,
      "chip": "ym2612"
    },
    {
      "channel": 4,
      "note": 55,
      "start": 39.8956,
      "duration": 0.095,
      "velocity": 107,
      "chip": "ym2612"
    },
    {
      "channel": 4,
      "note": 57,
      "start": 39.9908,
      "duration": 0.1175,
      "velocity": 107,
      "chip": "ym2612"
    },
    {
      "channel": 0,
      "note": 55,
      "start": 40.1073,
      "duration": 0.0993,
      "velocity": 107,
      "chip": "ym2612"
    },
    {
      "channel": 2,
      "note": 60,
      "start": 40.1079,
      "duration": 0.0993,
      "velocity": 117,
      "chip": "ym2612"
    },
    {
      "channel": 4,
      "note": 58,
      "start": 40.1085,
      "duration": 0.0993,
      "velocity": 107,
      "chip": "ym2612"
    },
    {
      "channel": 0,
      "note": 57,
      "start": 40.2068,
      "duration": 0.0996,
      "velocity": 107,
      "chip": "ym2612"
    },
    {
      "channel": 2,
      "note": 48,
      "start": 40.2073,
      "duration": 0.233,
      "velocity": 117,
      "chip": "ym2612"
    },
    {
      "channel": 4,
      "note": 62,
      "start": 40.208,
      "duration": 0.3497,
      "velocity": 107,
      "chip": "ym2612"
    },
    {
      "channel": 0,
      "note": 58,
      "start": 40.3066,
      "duration": 0.1331,
      "velocity": 107,
      "chip": "ym2612"
    },
    {
      "channel": 0,
      "note": 62,
      "start": 40.4398,
      "duration": 0.1165,
      "velocity": 107,
      "chip": "ym2612"
    },
    {
      "channel": 2,
      "note": 60,
      "start": 40.4405,
      "duration": 0.1165,
      "velocity": 117,
      "chip": "ym2612"
    },
    {
      "channel": 0,
      "note": 65,
      "start": 40.5566,
      "duration": 0.6951,
      "velocity": 107,
      "chip": "ym2612"
    },
    {
      "channel": 2,
      "note": 48,
      "start": 40.5572,
      "duration": 0.4613,
      "velocity": 117,
      "chip": "ym2612"
    },
    {
      "channel": 4,
      "note": 55,
      "start": 40.5578,
      "duration": 0.1155,
      "velocity": 107,
      "chip": "ym2612"
    },
    {
      "channel": 5,
      "note": 62,
      "start": 40.5584,
      "duration": 3.577,
      "velocity": 106,
      "chip": "ym2612"
    },
    {
      "channel": 4,
      "note": 57,
      "start": 40.6735,
      "duration": 0.1164,
      "velocity": 107,
      "chip": "ym2612"
    },
    {
      "channel": 4,
      "note": 58,
      "start": 40.7901,
      "duration": 0.0953,
      "velocity": 107,
      "chip": "ym2612"
    },
    {
      "channel": 4,
      "note": 62,
      "start": 40.8856,
      "duration": 0.1335,
      "velocity": 107,
      "chip": "ym2612"
    },
    {
      "channel": 2,
      "note": 60,
      "start": 41.0187,
      "duration": 0.2337,
      "velocity": 117,
      "chip": "ym2612"
    },
    {
      "channel": 4,
      "note": 65,
      "start": 41.0193,
      "duration": 0.6817,
      "velocity": 107,
      "chip": "ym2612"
    },
    {
      "channel": 0,
      "note": 55,
      "start": 41.2519,
      "duration": 0.0992,
      "velocity": 107,
      "chip": "ym2612"
    },
    {
      "channel": 2,
      "note": 48,
      "start": 41.2525,
      "duration": 0.0992,
      "velocity": 117,
      "chip": "ym2612"
    },
    {
      "channel": 0,
      "note": 57,
      "start": 41.3513,
      "duration": 0.0995,
      "velocity": 107,
      "chip": "ym2612"
    },
    {
      "channel": 2,
      "note": 60,
      "start": 41.3519,
      "duration": 0.5617,
      "velocity": 117,
      "chip": "ym2612"
    },
    {
      "channel": 0,
      "note": 58,
      "start": 41.451,
      "duration": 0.133,
      "velocity": 107,
      "chip": "ym2612"
    },
    {
      "channel": 0,
      "note": 62,
      "start": 41.5842,
      "duration": 0.3288,
      "velocity": 107,
      "chip": "ym2612"
    },
    {
      "channel": 4,
      "note": 55,
      "start": 41.7012,
      "duration": 0.0954,
      "velocity": 107,
      "chip": "ym2612"
    },
    {
      "channel": 4,
      "note": 57,
      "start": 41.7967,
      "duration": 0.1175,
      "velocity": 107,
      "chip": "ym2612"
    },
    {
      "channel": 0,
      "note": 55,
      "start": 41.9132,
      "duration": 0.0995,
      "velocity": 107,
      "chip": "ym2612"
    },
    {
      "channel": 2,
      "note": 60,
      "start": 41.9138,
      "duration": 0.0995,
      "velocity": 117,
      "chip": "ym2612"
    },
    {
      "channel": 4,
      "note": 58,
      "start": 41.9144,
      "duration": 0.0996,
      "velocity": 107,
      "chip": "ym2612"
    },
    {
      "channel": 0,
      "note": 57,
      "start": 42.0129,
      "duration": 0.1164,
      "velocity": 107,
      "chip": "ym2612"
    },
    {
      "channel": 2,
      "note": 48,
      "start": 42.0134,
      "duration": 0.2331,
      "velocity": 117,
      "chip": "ym2612"
    },
    {
      "channel": 4,
      "note": 62,
      "start": 42.0141,
      "duration": 0.3498,
      "velocity": 107,
      "chip": "ym2612"
    },
    {
      "channel": 0,
      "note": 58,
      "start": 42.1295,
      "duration": 0.1164,
      "velocity": 107,
      "chip": "ym2612"
    },
    {
      "channel": 0,
      "note": 62,
      "start": 42.2461,
      "duration": 0.1165,
      "velocity": 107,
      "chip": "ym2612"
    },
    {
      "channel": 2,
      "note": 60,
      "start": 42.2467,
      "duration": 0.1165,
      "velocity": 117,
      "chip": "ym2612"
    },
    {
      "channel": 0,
      "note": 65,
      "start": 42.3628,
      "duration": 0.2159,
      "velocity": 107,
      "chip": "ym2612"
    },
    {
      "channel": 2,
      "note": 48,
      "start": 42.3634,
      "duration": 0.4445,
      "velocity": 117,
      "chip": "ym2612"
    },
    {
      "channel": 4,
      "note": 55,
      "start": 42.364,
      "duration": 0.0983,
      "velocity": 107,
      "chip": "ym2612"
    },
    {
      "channel": 4,
      "note": 57,
      "start": 42.4624,
      "duration": 0.117,
      "velocity": 107,
      "chip": "ym2612"
    },
    {
      "channel": 0,
      "note": 64,
      "start": 42.5789,
      "duration": 0.2285,
      "velocity": 107,
      "chip": "ym2612"
    },
    {
      "channel": 4,
      "note": 58,
      "start": 42.5796,
      "duration": 0.1112,
      "velocity": 107,
      "chip": "ym2612"
    },
    {
      "channel": 4,
      "note": 62,
      "start": 42.6911,
      "duration": 0.1176,
      "velocity": 107,
      "chip": "ym2612"
    },
    {
      "channel": 0,
      "note": 60,
      "start": 42.8076,
      "duration": 0.4337,
      "velocity": 87,
      "chip": "ym2612"
    },
    {
      "channel": 2,
      "note": 60,
      "start": 42.8082,
      "duration": 0.2163,
      "velocity": 117,
      "chip": "ym2612"
    },
    {
      "channel": 4,
      "note": 65,
      "start": 42.8088,
      "duration": 0.8788,
      "velocity": 97,
      "chip": "ym2612"
    },
    {
      "channel": 1,
      "note": 74,
      "start": 43.0241,
      "duration": 3.5949,
      "velocity": 102,
      "chip": "ym2612"
    },
    {
      "channel": 2,
      "note": 55,
      "start": 43.0247,
      "duration": 0.099,
      "velocity": 117,
      "chip": "ym2612"
    },
    {
      "channel": 3,
      "note": 70,
      "start": 43.0253,
      "duration": 3.5948,
      "velocity": 102,
      "chip": "ym2612"
    },
    {
      "channel": 2,
      "note": 67,
      "start": 43.1239,
      "duration": 0.5615,
      "velocity": 117,
      "chip": "ym2612"
    },
    {
      "channel": 0,
      "note": 60,
      "start": 43.2414,
      "duration": 0.2316,
      "velocity": 87,
      "chip": "ym2612"
    },
    {
      "channel": 0,
      "note": 60,
      "start": 43.4732,
      "duration": 0.3282,
      "velocity": 87,
      "chip": "ym2612"
    },
    {
      "channel": 2,
      "note": 67,
      "start": 43.6855,
      "duration": 0.1165,
      "velocity": 117,
      "chip": "ym2612"
    },
    {
      "channel": 4,
      "note": 60,
      "start": 43.6878,
      "duration": 0.2141,
      "velocity": 97,
      "chip": "ym2612"
    },
    {
      "channel": 0,
      "note": 58,
      "start": 43.8016,
      "duration": 0.0995,
      "velocity": 87,
      "chip": "ym2612"
    },
    {
      "channel": 2,
      "note": 55,
      "start": 43.8022,
      "duration": 0.2162,
      "velocity": 117,
      "chip": "ym2612"
    },
    {
      "channel": 0,
      "note": 60,
      "start": 43.9013,
      "duration": 0.1165,
      "velocity": 87,
      "chip": "ym2612"
    },
    {
      "channel": 4,
      "note": 60,
      "start": 43.9021,
      "duration": 0.3498,
      "velocity": 97,
      "chip": "ym2612"
    },
    {
      "channel": 0,
      "note": 62,
      "start": 44.0179,
      "duration": 0.2332,
      "velocity": 87,
      "chip": "ym2612"
    },
    {
      "channel": 2,
      "note": 67,
      "start": 44.0186,
      "duration": 0.116,
      "velocity": 117,
      "chip": "ym2612"
    },
    {
      "channel": 2,
      "note": 55,
      "start": 44.1347,
      "duration": 0.4616,
      "velocity": 117,
      "chip": "ym2612"
    },
    {
      "channel": 5,
      "note": 62,
      "start": 44.1355,
      "duration": 3.595,
      "velocity": 106,
      "chip": "ym2612"
    },
    {
      "channel": 0,
      "note": 55,
      "start": 44.2513,
      "duration": 1.4558,
      "velocity": 87,
      "chip": "ym2612"
    },
    {
      "channel": 4,
      "note": 58,
      "start": 44.2521,
      "duration": 0.1326,
      "velocity": 97,
      "chip": "ym2612"
    },
    {
      "channel": 4,
      "note": 60,
      "start": 44.3849,
      "duration": 0.095,
      "velocity": 97,
      "chip": "ym2612"
    },
    {
      "channel": 4,
      "note": 62,
      "start": 44.48,
      "duration": 0.2331,
      "velocity": 97,
      "chip": "ym2612"
    },
    {
      "channel": 2,
      "note": 67,
      "start": 44.5966,
      "duration": 0.2332,
      "velocity": 117,
      "chip": "ym2612"
    },
    {
      "channel": 4,
      "note": 55,
      "start": 44.7133,
      "duration": 1.4601,
      "velocity": 97,
      "chip": "ym2612"
    },
    {
      "channel": 2,
      "note": 53,
      "start": 44.8299,
      "duration": 0.1162,
      "velocity": 117,
      "chip": "ym2612"
    },
    {
      "channel": 2,
      "note": 65,
      "start": 44.9463,
      "duration": 0.5617,
      "velocity": 117,
      "chip": "ym2612"
    },
    {
      "channel": 2,
      "note": 65,
      "start": 45.5081,
      "duration": 0.0995,
      "velocity": 117,
      "chip": "ym2612"
    },
    {
      "channel": 2,
      "note": 53,
      "start": 45.6079,
      "duration": 0.2166,
      "velocity": 117,
      "chip": "ym2612"
    },
    {
      "channel": 0,
      "note": 62,
      "start": 45.7073,
      "duration": 0.1165,
      "velocity": 87,
      "chip": "ym2612"
    },
    {
      "channel": 0,
      "note": 65,
      "start": 45.824,
      "duration": 0.1165,
      "velocity": 87,
      "chip": "ym2612"
    },
    {
      "channel": 2,
      "note": 65,
      "start": 45.8246,
      "duration": 0.1165,
      "velocity": 117,
      "chip": "ym2612"
    },
    {
      "channel": 0,
      "note": 67,
      "start": 45.9406,
      "duration": 0.1159,
      "velocity": 87,
      "chip": "ym2612"
    },
    {
      "channel": 2,
      "note": 53,
      "start": 45.9413,
      "duration": 0.4447,
      "velocity": 117,
      "chip": "ym2612"
    },
    {
      "channel": 0,
      "note": 70,
      "start": 46.0567,
      "duration": 0.212,
      "velocity": 87,
      "chip": "ym2612"
    },
    {
      "channel": 4,
      "note": 62,
      "start": 46.1736,
      "duration": 0.0959,
      "velocity": 97,
      "chip": "ym2612"
    },
    {
      "channel": 0,
      "note": 67,
      "start": 46.2689,
      "duration": 0.1165,
      "velocity": 87,
      "chip": "ym2612"
    },
    {
      "channel": 4,
      "note": 65,
      "start": 46.2697,
      "duration": 0.117,
      "velocity": 97,
      "chip": "ym2612"
    },
    {
      "channel": 0,
      "note": 70,
      "start": 46.3856,
      "duration": 0.0995,
      "velocity": 87,
      "chip": "ym2612"
    },
    {
      "channel": 2,
      "note": 65,
      "start": 46.3862,
      "duration": 0.2334,
      "velocity": 117,
      "chip": "ym2612"
    },
    {
      "channel": 4,
      "note": 67,
      "start": 46.3868,
      "duration": 0.099,
      "velocity": 97,
      "chip": "ym2612"
    },
    {
      "channel": 0,
      "note": 74,
      "start": 46.4852,
      "duration": 0.1332,
      "velocity": 87,
      "chip": "ym2612"
    },
    {
      "channel": 4,
      "note": 70,
      "start": 46.4859,
      "duration": 0.2329,
      "velocity": 97,
      "chip": "ym2612"
    },
    {
      "channel": 0,
      "note": 72,
      "start": 46.6186,
      "duration": 1.3444,
      "velocity": 87,
      "chip": "ym2612"
    },
    {
      "channel": 1,
      "note": 64,
      "start": 46.6192,
      "duration": 3.5791,
      "velocity": 102,
      "chip": "ym2612"
    },
    {
      "channel": 2,
      "note": 48,
      "start": 46.6197,
      "duration": 0.0985,
      "velocity": 117,
      "chip": "ym2612"
    },
    {
      "channel": 3,
      "note": 67,
      "start": 46.6203,
      "duration": 3.5793,
      "velocity": 102,
      "chip": "ym2612"
    },
    {
      "channel": 2,
      "note": 60,
      "start": 46.7184,
      "duration": 0.5618,
      "velocity": 117,
      "chip": "ym2612"
    },
    {
      "channel": 4,
      "note": 67,
      "start": 46.719,
      "duration": 0.0991,
      "velocity": 97,
      "chip": "ym2612"
    },
    {
      "channel": 4,
      "note": 70,
      "start": 46.8183,
      "duration": 0.1164,
      "velocity": 97,
      "chip": "ym2612"
    },
    {
      "channel": 4,
      "note": 74,
      "start": 46.9349,
      "duration": 0.1166,
      "velocity": 97,
      "chip": "ym2612"
    },
    {
      "channel": 4,
      "note": 72,
      "start": 47.0516,
      "duration": 1.3744,
      "velocity": 97,
      "chip": "ym2612"
    },
    {
      "channel": 2,
      "note": 60,
      "start": 47.2804,
      "duration": 0.0995,
      "velocity": 117,
      "chip": "ym2612"
    },
    {
      "channel": 2,
      "note": 48,
      "start": 47.38,
      "duration": 0.2164,
      "velocity": 117,
      "chip": "ym2612"
    },
    {
      "channel": 2,
      "note": 60,
      "start": 47.5966,
      "duration": 0.1332,
      "velocity": 117,
      "chip": "ym2612"
    },
    {
      "channel": 2,
      "note": 48,
      "start": 47.73,
      "duration": 0.4459,
      "velocity": 117,
      "chip": "ym2612"
    },
    {
      "channel": 5,
      "note": 62,
      "start": 47.7307,
      "duration": 3.5794,
      "velocity": 106,
      "chip": "ym2612"
    },
    {
      "channel": 0,
      "note": 70,
      "start": 47.9632,
      "duration": 0.212,
      "velocity": 87,
      "chip": "ym2612"
    },
    {
      "channel": 0,
      "note": 72,
      "start": 48.1754,
      "duration": 0.4496,
      "velocity": 87,
      "chip": "ym2612"
    },
    {
      "channel": 2,
      "note": 60,
      "start": 48.1761,
      "duration": 0.2493,
      "velocity": 117,
      "chip": "ym2612"
    },
    {
      "channel": 2,
      "note": 48,
      "start": 48.4256,
      "duration": 0.0995,
      "velocity": 117,
      "chip": "ym2612"
    },
    {
      "channel": 4,
      "note": 70,
      "start": 48.4262,
      "duration": 0.1996,
      "velocity": 97,
      "chip": "ym2612"
    },
    {
      "channel": 2,
      "note": 60,
      "start": 48.5253,
      "duration": 0.5627,
      "velocity": 117,
      "chip": "ym2612"
    },
    {
      "channel": 0,
      "note": 67,
      "start": 48.6252,
      "duration": 0.4621,
      "velocity": 87,
      "chip": "ym2612"
    },
    {
      "channel": 4,
      "note": 72,
      "start": 48.626,
      "duration": 0.4626,
      "velocity": 97,
      "chip": "ym2612"
    },
    {
      "channel": 0,
      "note": 65,
      "start": 49.0875,
      "duration": 0.1991,
      "velocity": 87,
      "chip": "ym2612"
    },
    {
      "channel": 2,
      "note": 60,
      "start": 49.0882,
      "duration": 0.0988,
      "velocity": 117,
      "chip": "ym2612"
    },
    {
      "channel": 4,
      "note": 67,
      "start": 49.0887,
      "duration": 0.4486,
      "velocity": 97,
      "chip": "ym2612"
    },
    {
      "channel": 2,
      "note": 48,
      "start": 49.1871,
      "duration": 0.2329,
      "velocity": 117,
      "chip": "ym2612"
    },
    {
      "channel": 0,
      "note": 67,
      "start": 49.2867,
      "duration": 8.0302,
      "velocity": 107,
      "chip": "ym2612"
    },
    {
      "channel": 2,
      "note": 60,
      "start": 49.4202,
      "duration": 0.1165,
      "velocity": 117,
      "chip": "ym2612"
    },
    {
      "channel": 2,
      "note": 48,
      "start": 49.5369,
      "duration": 0.4463,
      "velocity": 117,
      "chip": "ym2612"
    },
    {
      "channel": 4,
      "note": 65,
      "start": 49.5375,
      "duration": 0.2156,
      "velocity": 97,
      "chip": "ym2612"
    },
    {
      "channel": 4,
      "note": 67,
      "start": 49.7532,
      "duration": 7.5688,
      "velocity": 1,
      "chip": "ym2612"
    },
    {
      "channel": 2,
      "note": 60,
      "start": 49.9834,
      "duration": 0.2155,
      "velocity": 117,
      "chip": "ym2612"
    },
    {
      "channel": 1,
      "note": 74,
      "start": 50.1985,
      "duration": 3.5793,
      "velocity": 102,
      "chip": "ym2612"
    },
    {
      "channel": 2,
      "note": 55,
      "start": 50.1991,
      "duration": 0.099,
      "velocity": 117,
      "chip": "ym2612"
    },
    {
      "channel": 3,
      "note": 70,
      "start": 50.1997,
      "duration": 3.5792,
      "velocity": 102,
      "chip": "ym2612"
    },
    {
      "channel": 2,
      "note": 67,
      "start": 50.2983,
      "duration": 0.5617,
      "velocity": 117,
      "chip": "ym2612"
    },
    {
      "channel": 2,
      "note": 67,
      "start": 50.8602,
      "duration": 0.0995,
      "velocity": 117,
      "chip": "ym2612"
    },
    {
      "channel": 2,
      "note": 55,
      "start": 50.9599,
      "duration": 0.2327,
      "velocity": 117,
      "chip": "ym2612"
    },
    {
      "channel": 2,
      "note": 67,
      "start": 51.1928,
      "duration": 0.1165,
      "velocity": 117,
      "chip": "ym2612"
    },
    {
      "channel": 2,
      "note": 55,
      "start": 51.3095,
      "duration": 0.462,
      "velocity": 117,
      "chip": "ym2612"
    },
    {
      "channel": 5,
      "note": 62,
      "start": 51.3103,
      "duration": 3.579,
      "velocity": 106,
      "chip": "ym2612"
    },
    {
      "channel": 2,
      "note": 67,
      "start": 51.7717,
      "duration": 0.2332,
      "velocity": 117,
      "chip": "ym2612"
    },
    {
      "channel": 2,
      "note": 53,
      "start": 52.0051,
      "duration": 0.0995,
      "velocity": 117,
      "chip": "ym2612"
    },
    {
      "channel": 2,
      "note": 65,
      "start": 52.1049,
      "duration": 0.5617,
      "velocity": 117,
      "chip": "ym2612"
    },
    {
      "channel": 2,
      "note": 65,
      "start": 52.6667,
      "duration": 0.1161,
      "velocity": 117,
      "chip": "ym2612"
    },
    {
      "channel": 2,
      "note": 53,
      "start": 52.783,
      "duration": 0.2162,
      "velocity": 117,
      "chip": "ym2612"
    },
    {
      "channel": 2,
      "note": 65,
      "start": 52.9994,
      "duration": 0.1165,
      "velocity": 117,
      "chip": "ym2612"
    },
    {
      "channel": 2,
      "note": 53,
      "start": 53.1162,
      "duration": 0.4452,
      "velocity": 117,
      "chip": "ym2612"
    },
    {
      "channel": 2,
      "note": 65,
      "start": 53.5615,
      "duration": 0.2168,
      "velocity": 117,
      "chip": "ym2612"
    },
    {
      "channel": 1,
      "note": 64,
      "start": 53.778,
      "duration": 3.6389,
      "velocity": 1,
      "chip": "ym2612"
    },
    {
      "channel": 2,
      "note": 48,
      "start": 53.7785,
      "duration": 0.1156,
      "velocity": 117,
      "chip": "ym2612"
    },
    {
      "channel": 3,
      "note": 67,
      "start": 53.779,
      "duration": 3.5408,
      "velocity": 1,
      "chip": "ym2612"
    },
    {
      "channel": 2,
      "note": 60,
      "start": 53.8943,
      "duration": 0.5615,
      "velocity": 117,
      "chip": "ym2612"
    },
    {
      "channel": 2,
      "note": 60,
      "start": 54.4561,
      "duration": 0.0995,
      "velocity": 117,
      "chip": "ym2612"
    },
    {
      "channel": 2,
      "note": 48,
      "start": 54.5558,
      "duration": 0.216,
      "velocity": 117,
      "chip": "ym2612"
    },
    {
      "channel": 2,
      "note": 60,
      "start": 54.772,
      "duration": 0.1165,
      "velocity": 117,
      "chip": "ym2612"
    },
    {
      "channel": 2,
      "note": 48,
      "start": 54.8887,
      "duration": 0.4622,
      "velocity": 117,
      "chip": "ym2612"
    },
    {
      "channel": 5,
      "note": 62,
      "start": 54.8895,
      "duration": 7.0444,
      "velocity": 106,
      "chip": "ym2612"
    },
    {
      "channel": 2,
      "note": 60,
      "start": 55.3511,
      "duration": 0.2499,
      "velocity": 117,
      "chip": "ym2612"
    },
    {
      "channel": 2,
      "note": 48,
      "start": 55.6012,
      "duration": 0.0995,
      "velocity": 117,
      "chip": "ym2612"
    },
    {
      "channel": 2,
      "note": 60,
      "start": 55.7009,
      "duration": 0.5617,
      "velocity": 117,
      "chip": "ym2612"
    },
    {
      "channel": 2,
      "note": 60,
      "start": 56.2628,
      "duration": 0.0957,
      "velocity": 117,
      "chip": "ym2612"
    },
    {
      "channel": 2,
      "note": 48,
      "start": 56.3587,
      "duration": 0.1913,
      "velocity": 117,
      "chip": "ym2612"
    },
    {
      "channel": 2,
      "note": 60,
      "start": 56.5502,
      "duration": 0.1331,
      "velocity": 117,
      "chip": "ym2612"
    },
    {
      "channel": 2,
      "note": 48,
      "start": 56.6835,
      "duration": 0.4029,
      "velocity": 117,
      "chip": "ym2612"
    },
    {
      "channel": 2,
      "note": 60,
      "start": 57.0867,
      "duration": 0.231,
      "velocity": 117,
      "chip": "ym2612"
    },
    {
      "channel": 0,
      "note": 55,
      "start": 57.3172,
      "duration": 0.0976,
      "velocity": 107,
      "chip": "ym2612"
    },
    {
      "channel": 2,
      "note": 55,
      "start": 57.3179,
      "duration": 0.0996,
      "velocity": 117,
      "chip": "ym2612"
    },
    {
      "channel": 3,
      "note": 79,
      "start": 57.32,
      "duration": 4.6138,
      "velocity": 1,
      "chip": "ym2612"
    },
    {
      "channel": 4,
      "note": 79,
      "start": 57.3222,
      "duration": 4.6117,
      "velocity": 1,
      "chip": "ym2612"
    },
    {
      "channel": 0,
      "note": 57,
      "start": 57.4149,
      "duration": 0.0995,
      "velocity": 107,
      "chip": "ym2612"
    },
    {
      "channel": 1,
      "note": 67,
      "start": 57.417,
      "duration": 0.3489,
      "velocity": 107,
      "chip": "ym2612"
    },
    {
      "channel": 2,
      "note": 55,
      "start": 57.4176,
      "duration": 4.5163,
      "velocity": 117,
      "chip": "ym2612"
    },
    {
      "channel": 0,
      "note": 58,
      "start": 57.5146,
      "duration": 0.1163,
      "velocity": 107,
      "chip": "ym2612"
    },
    {
      "channel": 0,
      "note": 62,
      "start": 57.6311,
      "duration": 4.3028,
      "velocity": 107,
      "chip": "ym2612"
    },
    {
      "channel": 1,
      "note": 55,
      "start": 57.7661,
      "duration": 4.1677,
      "velocity": 107,
      "chip": "ym2612"
    }
  ]
}