{
  "track_name": "05 - Swamp Boss",
  "duration_sec": 14.23,
  "sample_rate": 44100,
  "note_count": 106,
  "unique_pitches": 12,
  "pitch_range": 50,
  "avg_note_duration": 0.1686,
  "reconstruction_stats": {
    "notes_reconstructed": 106,
    "keyon_events": 106,
    "keyoff_events": 105,
    "orphan_keyons": 1,
    "unique_pitches": 12,
    "pitch_range": 50,
    "avg_duration_sec": 0.1686
  },
  "metadata": {
    "source": "V\\Vectorman 2\\05 - Swamp Boss.vgz"
  },
  "notes": [
    {
      "channel": 0,
      "note": 45,
      "start": 0.0,
      "duration": 0.1605,
      "velocity": 88,
      "chip": "ym2612"
    },
    {
      "channel": 1,
      "note": 38,
      "start": 0.0024,
      "duration": 0.1581,
      "velocity": 88,
      "chip": "ym2612"
    },
    {
      "channel": 0,
      "note": 38,
      "start": 0.1967,
      "duration": 0.1803,
      "velocity": 88,
      "chip": "ym2612"
    },
    {
      "channel": 0,
      "note": 45,
      "start": 0.4132,
      "duration": 0.1806,
      "velocity": 88,
      "chip": "ym2612"
    },
    {
      "channel": 0,
      "note": 38,
      "start": 0.6299,
      "duration": 0.1806,
      "velocity": 88,
      "chip": "ym2612"
    },
    {
      "channel": 3,
      "note": 45,
      "start": 0.6347,
      "duration": 0.1759,
      "velocity": 107,
      "chip": "ym2612"
    },
    {
      "channel": 0,
      "note": 47,
      "start": 0.8471,
      "duration": 0.1634,
      "velocity": 88,
      "chip": "ym2612"
    },
    {
      "channel": 3,
      "note": 45,
      "start": 0.8509,
      "duration": 0.1597,
      "velocity": 107,
      "chip": "ym2612"
    },
    {
      "channel": 0,
      "note": 42,
      "start": 1.0466,
      "duration": 0.1805,
      "velocity": 88,
      "chip": "ym2612"
    },
    {
      "channel": 0,
      "note": 45,
      "start": 1.2633,
      "duration": 0.1805,
      "velocity": 88,
      "chip": "ym2612"
    },
    {
      "channel": 0,
      "note": 38,
      "start": 1.4797,
      "duration": 0.1807,
      "velocity": 88,
      "chip": "ym2612"
    },
    {
      "channel": 0,
      "note": 45,
      "start": 1.6965,
      "duration": 0.1639,
      "velocity": 88,
      "chip": "ym2612"
    },
    {
      "channel": 1,
      "note": 38,
      "start": 1.699,
      "duration": 0.1616,
      "velocity": 88,
      "chip": "ym2612"
    },
    {
      "channel": 0,
      "note": 38,
      "start": 1.8965,
      "duration": 0.1806,
      "velocity": 88,
      "chip": "ym2612"
    },
    {
      "channel": 0,
      "note": 45,
      "start": 2.1132,
      "duration": 0.1806,
      "velocity": 88,
      "chip": "ym2612"
    },
    {
      "channel": 0,
      "note": 38,
      "start": 2.3299,
      "duration": 0.1805,
      "velocity": 88,
      "chip": "ym2612"
    },
    {
      "channel": 3,
      "note": 45,
      "start": 2.3333,
      "duration": 0.1773,
      "velocity": 107,
      "chip": "ym2612"
    },
    {
      "channel": 0,
      "note": 47,
      "start": 2.5467,
      "duration": 0.1637,
      "velocity": 88,
      "chip": "ym2612"
    },
    {
      "channel": 5,
      "note": 38,
      "start": 2.5528,
      "duration": 0.1745,
      "velocity": 127,
      "chip": "ym2612"
    },
    {
      "channel": 3,
      "note": 45,
      "start": 2.5558,
      "duration": 0.1548,
      "velocity": 107,
      "chip": "ym2612"
    },
    {
      "channel": 4,
      "note": 38,
      "start": 2.5659,
      "duration": 0.1948,
      "velocity": 127,
      "chip": "ym2612"
    },
    {
      "channel": 0,
      "note": 42,
      "start": 2.7468,
      "duration": 0.1803,
      "velocity": 88,
      "chip": "ym2612"
    },
    {
      "channel": 0,
      "note": 45,
      "start": 2.9633,
      "duration": 0.1804,
      "velocity": 88,
      "chip": "ym2612"
    },
    {
      "channel": 5,
      "note": 38,
      "start": 2.9669,
      "duration": 0.2103,
      "velocity": 127,
      "chip": "ym2612"
    },
    {
      "channel": 4,
      "note": 38,
      "start": 2.9814,
      "duration": 0.2292,
      "velocity": 127,
      "chip": "ym2612"
    },
    {
      "channel": 0,
      "note": 38,
      "start": 3.1798,
      "duration": 0.1807,
      "velocity": 88,
      "chip": "ym2612"
    },
    {
      "channel": 0,
      "note": 45,
      "start": 3.3966,
      "duration": 0.1639,
      "velocity": 88,
      "chip": "ym2612"
    },
    {
      "channel": 1,
      "note": 38,
      "start": 3.399,
      "duration": 0.1616,
      "velocity": 88,
      "chip": "ym2612"
    },
    {
      "channel": 0,
      "note": 38,
      "start": 3.5968,
      "duration": 0.1803,
      "velocity": 88,
      "chip": "ym2612"
    },
    {
      "channel": 0,
      "note": 45,
      "start": 3.8132,
      "duration": 0.1806,
      "velocity": 88,
      "chip": "ym2612"
    },
    {
      "channel": 2,
      "note": 88,
      "start": 3.818,
      "duration": 0.076,
      "velocity": 114,
      "chip": "ym2612"
    },
    {
      "channel": 0,
      "note": 38,
      "start": 4.0299,
      "duration": 0.1805,
      "velocity": 88,
      "chip": "ym2612"
    },
    {
      "channel": 2,
      "note": 74,
      "start": 4.0329,
      "duration": 0.0944,
      "velocity": 114,
      "chip": "ym2612"
    },
    {
      "channel": 3,
      "note": 45,
      "start": 4.0357,
      "duration": 0.1749,
      "velocity": 107,
      "chip": "ym2612"
    },
    {
      "channel": 0,
      "note": 48,
      "start": 4.2467,
      "duration": 0.1638,
      "velocity": 88,
      "chip": "ym2612"
    },
    {
      "channel": 2,
      "note": 81,
      "start": 4.2512,
      "duration": 0.1095,
      "velocity": 114,
      "chip": "ym2612"
    },
    {
      "channel": 3,
      "note": 45,
      "start": 4.2541,
      "duration": 0.1565,
      "velocity": 107,
      "chip": "ym2612"
    },
    {
      "channel": 0,
      "note": 42,
      "start": 4.4471,
      "duration": 0.1801,
      "velocity": 88,
      "chip": "ym2612"
    },
    {
      "channel": 2,
      "note": 84,
      "start": 4.4501,
      "duration": 0.1605,
      "velocity": 114,
      "chip": "ym2612"
    },
    {
      "channel": 0,
      "note": 45,
      "start": 4.6633,
      "duration": 0.1803,
      "velocity": 88,
      "chip": "ym2612"
    },
    {
      "channel": 2,
      "note": 86,
      "start": 4.6668,
      "duration": 0.1272,
      "velocity": 114,
      "chip": "ym2612"
    },
    {
      "channel": 0,
      "note": 38,
      "start": 4.8798,
      "duration": 0.1808,
      "velocity": 88,
      "chip": "ym2612"
    },
    {
      "channel": 0,
      "note": 45,
      "start": 5.0965,
      "duration": 0.1639,
      "velocity": 88,
      "chip": "ym2612"
    },
    {
      "channel": 1,
      "note": 38,
      "start": 5.0993,
      "duration": 0.1612,
      "velocity": 88,
      "chip": "ym2612"
    },
    {
      "channel": 0,
      "note": 38,
      "start": 5.2965,
      "duration": 0.1806,
      "velocity": 88,
      "chip": "ym2612"
    },
    {
      "channel": 0,
      "note": 45,
      "start": 5.5132,
      "duration": 0.1806,
      "velocity": 88,
      "chip": "ym2612"
    },
    {
      "channel": 0,
      "note": 38,
      "start": 5.7299,
      "duration": 0.1638,
      "velocity": 88,
      "chip": "ym2612"
    },
    {
      "channel": 3,
      "note": 45,
      "start": 5.733,
      "duration": 0.1609,
      "velocity": 107,
      "chip": "ym2612"
    },
    {
      "channel": 0,
      "note": 49,
      "start": 5.9467,
      "duration": 0.1637,
      "velocity": 88,
      "chip": "ym2612"
    },
    {
      "channel": 3,
      "note": 45,
      "start": 5.9499,
      "duration": 0.1607,
      "velocity": 107,
      "chip": "ym2612"
    },
    {
      "channel": 0,
      "note": 42,
      "start": 6.1467,
      "duration": 0.1804,
      "velocity": 88,
      "chip": "ym2612"
    },
    {
      "channel": 0,
      "note": 45,
      "start": 6.3633,
      "duration": 0.1805,
      "velocity": 88,
      "chip": "ym2612"
    },
    {
      "channel": 0,
      "note": 38,
      "start": 6.5797,
      "duration": 0.1641,
      "velocity": 88,
      "chip": "ym2612"
    },
    {
      "channel": 0,
      "note": 45,
      "start": 6.7965,
      "duration": 0.164,
      "velocity": 88,
      "chip": "ym2612"
    },
    {
      "channel": 1,
      "note": 38,
      "start": 6.799,
      "duration": 0.1616,
      "velocity": 88,
      "chip": "ym2612"
    },
    {
      "channel": 0,
      "note": 38,
      "start": 6.9964,
      "duration": 0.1807,
      "velocity": 88,
      "chip": "ym2612"
    },
    {
      "channel": 0,
      "note": 45,
      "start": 7.2132,
      "duration": 0.1806,
      "velocity": 88,
      "chip": "ym2612"
    },
    {
      "channel": 0,
      "note": 38,
      "start": 7.4299,
      "duration": 0.1638,
      "velocity": 88,
      "chip": "ym2612"
    },
    {
      "channel": 3,
      "note": 45,
      "start": 7.4334,
      "duration": 0.1605,
      "velocity": 107,
      "chip": "ym2612"
    },
    {
      "channel": 0,
      "note": 48,
      "start": 7.6467,
      "duration": 0.1639,
      "velocity": 88,
      "chip": "ym2612"
    },
    {
      "channel": 3,
      "note": 45,
      "start": 7.6504,
      "duration": 0.1603,
      "velocity": 107,
      "chip": "ym2612"
    },
    {
      "channel": 0,
      "note": 42,
      "start": 7.8471,
      "duration": 0.18,
      "velocity": 88,
      "chip": "ym2612"
    },
    {
      "channel": 0,
      "note": 45,
      "start": 8.0633,
      "duration": 0.1804,
      "velocity": 88,
      "chip": "ym2612"
    },
    {
      "channel": 0,
      "note": 38,
      "start": 8.2798,
      "duration": 0.164,
      "velocity": 88,
      "chip": "ym2612"
    },
    {
      "channel": 0,
      "note": 45,
      "start": 8.4966,
      "duration": 0.1639,
      "velocity": 88,
      "chip": "ym2612"
    },
    {
      "channel": 1,
      "note": 38,
      "start": 8.4991,
      "duration": 0.1616,
      "velocity": 88,
      "chip": "ym2612"
    },
    {
      "channel": 0,
      "note": 38,
      "start": 8.6964,
      "duration": 0.1806,
      "velocity": 88,
      "chip": "ym2612"
    },
    {
      "channel": 0,
      "note": 45,
      "start": 8.9131,
      "duration": 0.1807,
      "velocity": 88,
      "chip": "ym2612"
    },
    {
      "channel": 0,
      "note": 38,
      "start": 9.1302,
      "duration": 0.1636,
      "velocity": 88,
      "chip": "ym2612"
    },
    {
      "channel": 3,
      "note": 45,
      "start": 9.1332,
      "duration": 0.1607,
      "velocity": 107,
      "chip": "ym2612"
    },
    {
      "channel": 0,
      "note": 48,
      "start": 9.3467,
      "duration": 0.1637,
      "velocity": 88,
      "chip": "ym2612"
    },
    {
      "channel": 5,
      "note": 38,
      "start": 9.3504,
      "duration": 0.1768,
      "velocity": 127,
      "chip": "ym2612"
    },
    {
      "channel": 3,
      "note": 45,
      "start": 9.3534,
      "duration": 0.1573,
      "velocity": 107,
      "chip": "ym2612"
    },
    {
      "channel": 4,
      "note": 38,
      "start": 9.3643,
      "duration": 0.1964,
      "velocity": 127,
      "chip": "ym2612"
    },
    {
      "channel": 0,
      "note": 41,
      "start": 9.5467,
      "duration": 0.1804,
      "velocity": 88,
      "chip": "ym2612"
    },
    {
      "channel": 0,
      "note": 45,
      "start": 9.7633,
      "duration": 0.1804,
      "velocity": 88,
      "chip": "ym2612"
    },
    {
      "channel": 5,
      "note": 38,
      "start": 9.7664,
      "duration": 0.2108,
      "velocity": 127,
      "chip": "ym2612"
    },
    {
      "channel": 4,
      "note": 38,
      "start": 9.781,
      "duration": 0.2295,
      "velocity": 127,
      "chip": "ym2612"
    },
    {
      "channel": 0,
      "note": 38,
      "start": 9.9799,
      "duration": 0.1639,
      "velocity": 88,
      "chip": "ym2612"
    },
    {
      "channel": 0,
      "note": 45,
      "start": 10.1966,
      "duration": 0.1639,
      "velocity": 88,
      "chip": "ym2612"
    },
    {
      "channel": 1,
      "note": 38,
      "start": 10.1994,
      "duration": 0.1612,
      "velocity": 88,
      "chip": "ym2612"
    },
    {
      "channel": 0,
      "note": 38,
      "start": 10.3964,
      "duration": 0.1807,
      "velocity": 88,
      "chip": "ym2612"
    },
    {
      "channel": 0,
      "note": 45,
      "start": 10.6132,
      "duration": 0.1805,
      "velocity": 88,
      "chip": "ym2612"
    },
    {
      "channel": 0,
      "note": 38,
      "start": 10.8299,
      "duration": 0.1639,
      "velocity": 88,
      "chip": "ym2612"
    },
    {
      "channel": 3,
      "note": 45,
      "start": 10.8329,
      "duration": 0.1611,
      "velocity": 107,
      "chip": "ym2612"
    },
    {
      "channel": 0,
      "note": 48,
      "start": 11.0467,
      "duration": 0.1639,
      "velocity": 88,
      "chip": "ym2612"
    },
    {
      "channel": 3,
      "note": 45,
      "start": 11.0504,
      "duration": 0.1602,
      "velocity": 107,
      "chip": "ym2612"
    },
    {
      "channel": 0,
      "note": 42,
      "start": 11.2467,
      "duration": 0.1803,
      "velocity": 88,
      "chip": "ym2612"
    },
    {
      "channel": 0,
      "note": 45,
      "start": 11.4637,
      "duration": 0.18,
      "velocity": 88,
      "chip": "ym2612"
    },
    {
      "channel": 0,
      "note": 38,
      "start": 11.6798,
      "duration": 0.1639,
      "velocity": 88,
      "chip": "ym2612"
    },
    {
      "channel": 0,
      "note": 45,
      "start": 11.8965,
      "duration": 0.164,
      "velocity": 88,
      "chip": "ym2612"
    },
    {
      "channel": 1,
      "note": 38,
      "start": 11.899,
      "duration": 0.1616,
      "velocity": 88,
      "chip": "ym2612"
    },
    {
      "channel": 0,
      "note": 38,
      "start": 12.0964,
      "duration": 0.1807,
      "velocity": 88,
      "chip": "ym2612"
    },
    {
      "channel": 0,
      "note": 45,
      "start": 12.3132,
      "duration": 0.1805,
      "velocity": 88,
      "chip": "ym2612"
    },
    {
      "channel": 0,
      "note": 38,
      "start": 12.5299,
      "duration": 0.1639,
      "velocity": 88,
      "chip": "ym2612"
    },
    {
      "channel": 3,
      "note": 45,
      "start": 12.5329,
      "duration": 0.161,
      "velocity": 107,
      "chip": "ym2612"
    },
    {
      "channel": 0,
      "note": 48,
      "start": 12.7467,
      "duration": 0.1637,
      "velocity": 88,
      "chip": "ym2612"
    },
    {
      "channel": 3,
      "note": 45,
      "start": 12.7507,
      "duration": 0.1598,
      "velocity": 107,
      "chip": "ym2612"
    },
    {
      "channel": 0,
      "note": 42,
      "start": 12.9471,
      "duration": 0.18,
      "velocity": 88,
      "chip": "ym2612"
    },
    {
      "channel": 0,
      "note": 45,
      "start": 13.1633,
      "duration": 0.1804,
      "velocity": 88,
      "chip": "ym2612"
    },
    {
      "channel": 0,
      "note": 38,
      "start": 13.3798,
      "duration": 0.164,
      "velocity": 88,
      "chip": "ym2612"
    },
    {
      "channel": 0,
      "note": 45,
      "start": 13.5991,
      "duration": 0.1615,
      "velocity": 88,
      "chip": "ym2612"
    },
    {
      "channel": 1,
      "note": 38,
      "start": 13.6015,
      "duration": 0.1592,
      "velocity": 88,
      "chip": "ym2612"
    },
    {
      "channel": 0,
      "note": 38,
      "start": 13.7964,
      "duration": 0.1807,
      "velocity": 88,
      "chip": "ym2612"
    },
    {
      "channel": 0,
      "note": 45,
      "start": 14.0132,
      "duration": 0.1805,
      "velocity": 88,
      "chip": "ym2612"
    },
    {
      "channel": 0,
      "note": 38,
      "start": 14.2299,
      "duration": 0.0,
      "velocity": 88,
      "chip": "ym2612"
    }
  ]
}