{
  "track_name": "05 - Slot Machine",
  "duration_sec": 59.032,
  "sample_rate": 44100,
  "note_count": 933,
  "unique_pitches": 39,
  "pitch_range": 49,
  "avg_note_duration": 0.2319,
  "reconstruction_stats": {
    "notes_reconstructed": 933,
    "keyon_events": 933,
    "keyoff_events": 932,
    "orphan_keyons": 1,
    "unique_pitches": 39,
    "pitch_range": 49,
    "avg_duration_sec": 0.2319
  },
  "metadata": {
    "source": "M\\Medal City\\05 - Slot Machine.vgz"
  },
  "notes": [
    {
      "channel": 0,
      "note": 70,
      "start": 0.0253,
      "duration": 0.0901,
      "velocity": 88,
      "chip": "ym2612"
    },
    {
      "channel": 1,
      "note": 65,
      "start": 0.0288,
      "duration": 0.0869,
      "velocity": 88,
      "chip": "ym2612"
    },
    {
      "channel": 3,
      "note": 46,
      "start": 0.0322,
      "duration": 0.1801,
      "velocity": 88,
      "chip": "ym2612"
    },
    {
      "channel": 2,
      "note": 32,
      "start": 0.0395,
      "duration": 0.5219,
      "velocity": 115,
      "chip": "ym2612"
    },
    {
      "channel": 0,
      "note": 72,
      "start": 0.2114,
      "duration": 0.1105,
      "velocity": 88,
      "chip": "ym2612"
    },
    {
      "channel": 1,
      "note": 65,
      "start": 0.2121,
      "duration": 0.1101,
      "velocity": 88,
      "chip": "ym2612"
    },
    {
      "channel": 0,
      "note": 74,
      "start": 0.513,
      "duration": 0.1105,
      "velocity": 88,
      "chip": "ym2612"
    },
    {
      "channel": 1,
      "note": 65,
      "start": 0.5138,
      "duration": 0.1104,
      "velocity": 88,
      "chip": "ym2612"
    },
    {
      "channel": 0,
      "note": 72,
      "start": 0.6241,
      "duration": 0.0946,
      "velocity": 88,
      "chip": "ym2612"
    },
    {
      "channel": 1,
      "note": 65,
      "start": 0.6246,
      "duration": 0.0943,
      "velocity": 88,
      "chip": "ym2612"
    },
    {
      "channel": 0,
      "note": 70,
      "start": 0.9257,
      "duration": 0.0947,
      "velocity": 88,
      "chip": "ym2612"
    },
    {
      "channel": 1,
      "note": 65,
      "start": 0.9265,
      "duration": 0.0943,
      "velocity": 88,
      "chip": "ym2612"
    },
    {
      "channel": 0,
      "note": 74,
      "start": 1.2304,
      "duration": 0.1074,
      "velocity": 88,
      "chip": "ym2612"
    },
    {
      "channel": 1,
      "note": 70,
      "start": 1.2312,
      "duration": 0.1069,
      "velocity": 88,
      "chip": "ym2612"
    },
    {
      "channel": 3,
      "note": 46,
      "start": 1.2346,
      "duration": 0.2,
      "velocity": 88,
      "chip": "ym2612"
    },
    {
      "channel": 2,
      "note": 32,
      "start": 1.2394,
      "duration": 0.5281,
      "velocity": 115,
      "chip": "ym2612"
    },
    {
      "channel": 0,
      "note": 75,
      "start": 1.4337,
      "duration": 0.0946,
      "velocity": 88,
      "chip": "ym2612"
    },
    {
      "channel": 1,
      "note": 70,
      "start": 1.4345,
      "duration": 0.0941,
      "velocity": 88,
      "chip": "ym2612"
    },
    {
      "channel": 0,
      "note": 77,
      "start": 1.7354,
      "duration": 0.1104,
      "velocity": 88,
      "chip": "ym2612"
    },
    {
      "channel": 1,
      "note": 70,
      "start": 1.7362,
      "duration": 0.1104,
      "velocity": 88,
      "chip": "ym2612"
    },
    {
      "channel": 0,
      "note": 75,
      "start": 1.8465,
      "duration": 0.0946,
      "velocity": 88,
      "chip": "ym2612"
    },
    {
      "channel": 1,
      "note": 70,
      "start": 1.8471,
      "duration": 0.0943,
      "velocity": 88,
      "chip": "ym2612"
    },
    {
      "channel": 0,
      "note": 74,
      "start": 2.1481,
      "duration": 0.0946,
      "velocity": 88,
      "chip": "ym2612"
    },
    {
      "channel": 1,
      "note": 70,
      "start": 2.1489,
      "duration": 0.0941,
      "velocity": 88,
      "chip": "ym2612"
    },
    {
      "channel": 0,
      "note": 77,
      "start": 2.4528,
      "duration": 0.0915,
      "velocity": 88,
      "chip": "ym2612"
    },
    {
      "channel": 1,
      "note": 74,
      "start": 2.4536,
      "duration": 0.091,
      "velocity": 88,
      "chip": "ym2612"
    },
    {
      "channel": 3,
      "note": 46,
      "start": 2.4571,
      "duration": 0.2,
      "velocity": 88,
      "chip": "ym2612"
    },
    {
      "channel": 2,
      "note": 32,
      "start": 2.4618,
      "duration": 0.5281,
      "velocity": 115,
      "chip": "ym2612"
    },
    {
      "channel": 0,
      "note": 79,
      "start": 2.6561,
      "duration": 0.0946,
      "velocity": 88,
      "chip": "ym2612"
    },
    {
      "channel": 1,
      "note": 74,
      "start": 2.657,
      "duration": 0.0941,
      "velocity": 88,
      "chip": "ym2612"
    },
    {
      "channel": 0,
      "note": 80,
      "start": 2.9577,
      "duration": 0.0946,
      "velocity": 88,
      "chip": "ym2612"
    },
    {
      "channel": 1,
      "note": 74,
      "start": 2.9585,
      "duration": 0.0945,
      "velocity": 88,
      "chip": "ym2612"
    },
    {
      "channel": 0,
      "note": 79,
      "start": 3.0529,
      "duration": 0.1106,
      "velocity": 88,
      "chip": "ym2612"
    },
    {
      "channel": 1,
      "note": 74,
      "start": 3.0536,
      "duration": 0.1102,
      "velocity": 88,
      "chip": "ym2612"
    },
    {
      "channel": 0,
      "note": 78,
      "start": 3.3705,
      "duration": 0.0946,
      "velocity": 88,
      "chip": "ym2612"
    },
    {
      "channel": 1,
      "note": 74,
      "start": 3.3713,
      "duration": 0.0941,
      "velocity": 88,
      "chip": "ym2612"
    },
    {
      "channel": 0,
      "note": 77,
      "start": 3.6753,
      "duration": 0.0915,
      "velocity": 88,
      "chip": "ym2612"
    },
    {
      "channel": 1,
      "note": 74,
      "start": 3.6761,
      "duration": 0.091,
      "velocity": 88,
      "chip": "ym2612"
    },
    {
      "channel": 3,
      "note": 58,
      "start": 3.6769,
      "duration": 0.2012,
      "velocity": 88,
      "chip": "ym2612"
    },
    {
      "channel": 2,
      "note": 32,
      "start": 3.6816,
      "duration": 0.5301,
      "velocity": 115,
      "chip": "ym2612"
    },
    {
      "channel": 0,
      "note": 70,
      "start": 4.2755,
      "duration": 0.4121,
      "velocity": 88,
      "chip": "ym2612"
    },
    {
      "channel": 1,
      "note": 62,
      "start": 4.2762,
      "duration": 0.4116,
      "velocity": 88,
      "chip": "ym2612"
    },
    {
      "channel": 3,
      "note": 46,
      "start": 4.277,
      "duration": 0.621,
      "velocity": 88,
      "chip": "ym2612"
    },
    {
      "channel": 3,
      "note": 51,
      "start": 4.8986,
      "duration": 0.3015,
      "velocity": 88,
      "chip": "ym2612"
    },
    {
      "channel": 4,
      "note": 39,
      "start": 4.8995,
      "duration": 0.3015,
      "velocity": 88,
      "chip": "ym2612"
    },
    {
      "channel": 2,
      "note": 32,
      "start": 4.9039,
      "duration": 0.2917,
      "velocity": 115,
      "chip": "ym2612"
    },
    {
      "channel": 0,
      "note": 70,
      "start": 5.1993,
      "duration": 0.0916,
      "velocity": 88,
      "chip": "ym2612"
    },
    {
      "channel": 1,
      "note": 67,
      "start": 5.2,
      "duration": 0.0912,
      "velocity": 88,
      "chip": "ym2612"
    },
    {
      "channel": 3,
      "note": 70,
      "start": 5.2008,
      "duration": 0.2058,
      "velocity": 88,
      "chip": "ym2612"
    },
    {
      "channel": 4,
      "note": 67,
      "start": 5.2016,
      "duration": 0.2053,
      "velocity": 88,
      "chip": "ym2612"
    },
    {
      "channel": 2,
      "note": 32,
      "start": 5.203,
      "duration": 0.1989,
      "velocity": 115,
      "chip": "ym2612"
    },
    {
      "channel": 0,
      "note": 72,
      "start": 5.4057,
      "duration": 0.0945,
      "velocity": 88,
      "chip": "ym2612"
    },
    {
      "channel": 1,
      "note": 67,
      "start": 5.4065,
      "duration": 0.0941,
      "velocity": 88,
      "chip": "ym2612"
    },
    {
      "channel": 2,
      "note": 32,
      "start": 5.4085,
      "duration": 0.0885,
      "velocity": 115,
      "chip": "ym2612"
    },
    {
      "channel": 3,
      "note": 46,
      "start": 5.5015,
      "duration": 0.3017,
      "velocity": 88,
      "chip": "ym2612"
    },
    {
      "channel": 4,
      "note": 34,
      "start": 5.5022,
      "duration": 0.3019,
      "velocity": 88,
      "chip": "ym2612"
    },
    {
      "channel": 2,
      "note": 32,
      "start": 5.5037,
      "duration": 0.295,
      "velocity": 115,
      "chip": "ym2612"
    },
    {
      "channel": 0,
      "note": 70,
      "start": 5.7042,
      "duration": 0.0976,
      "velocity": 88,
      "chip": "ym2612"
    },
    {
      "channel": 1,
      "note": 67,
      "start": 5.705,
      "duration": 0.0976,
      "velocity": 88,
      "chip": "ym2612"
    },
    {
      "channel": 0,
      "note": 72,
      "start": 5.8024,
      "duration": 0.1075,
      "velocity": 88,
      "chip": "ym2612"
    },
    {
      "channel": 1,
      "note": 67,
      "start": 5.8031,
      "duration": 0.1072,
      "velocity": 88,
      "chip": "ym2612"
    },
    {
      "channel": 3,
      "note": 70,
      "start": 5.8039,
      "duration": 0.2046,
      "velocity": 88,
      "chip": "ym2612"
    },
    {
      "channel": 4,
      "note": 67,
      "start": 5.8047,
      "duration": 0.2041,
      "velocity": 88,
      "chip": "ym2612"
    },
    {
      "channel": 2,
      "note": 32,
      "start": 5.8061,
      "duration": 0.199,
      "velocity": 115,
      "chip": "ym2612"
    },
    {
      "channel": 2,
      "note": 32,
      "start": 6.0104,
      "duration": 0.09,
      "velocity": 115,
      "chip": "ym2612"
    },
    {
      "channel": 0,
      "note": 74,
      "start": 6.1044,
      "duration": 0.6184,
      "velocity": 88,
      "chip": "ym2612"
    },
    {
      "channel": 1,
      "note": 69,
      "start": 6.1052,
      "duration": 0.6183,
      "velocity": 88,
      "chip": "ym2612"
    },
    {
      "channel": 3,
      "note": 50,
      "start": 6.1061,
      "duration": 0.3158,
      "velocity": 88,
      "chip": "ym2612"
    },
    {
      "channel": 4,
      "note": 38,
      "start": 6.1069,
      "duration": 0.3157,
      "velocity": 88,
      "chip": "ym2612"
    },
    {
      "channel": 2,
      "note": 32,
      "start": 6.1113,
      "duration": 0.3066,
      "velocity": 115,
      "chip": "ym2612"
    },
    {
      "channel": 3,
      "note": 69,
      "start": 6.4225,
      "duration": 0.1902,
      "velocity": 88,
      "chip": "ym2612"
    },
    {
      "channel": 4,
      "note": 66,
      "start": 6.4232,
      "duration": 0.1897,
      "velocity": 88,
      "chip": "ym2612"
    },
    {
      "channel": 2,
      "note": 32,
      "start": 6.4246,
      "duration": 0.1841,
      "velocity": 115,
      "chip": "ym2612"
    },
    {
      "channel": 2,
      "note": 32,
      "start": 6.6145,
      "duration": 0.1051,
      "velocity": 115,
      "chip": "ym2612"
    },
    {
      "channel": 0,
      "note": 72,
      "start": 6.7234,
      "duration": 0.6026,
      "velocity": 88,
      "chip": "ym2612"
    },
    {
      "channel": 1,
      "note": 69,
      "start": 6.724,
      "duration": 0.6027,
      "velocity": 88,
      "chip": "ym2612"
    },
    {
      "channel": 3,
      "note": 45,
      "start": 6.7248,
      "duration": 0.3003,
      "velocity": 88,
      "chip": "ym2612"
    },
    {
      "channel": 4,
      "note": 33,
      "start": 6.7255,
      "duration": 0.3002,
      "velocity": 88,
      "chip": "ym2612"
    },
    {
      "channel": 2,
      "note": 32,
      "start": 6.7269,
      "duration": 0.2942,
      "velocity": 115,
      "chip": "ym2612"
    },
    {
      "channel": 3,
      "note": 69,
      "start": 7.0257,
      "duration": 0.2058,
      "velocity": 88,
      "chip": "ym2612"
    },
    {
      "channel": 4,
      "note": 66,
      "start": 7.0264,
      "duration": 0.2054,
      "velocity": 88,
      "chip": "ym2612"
    },
    {
      "channel": 2,
      "note": 32,
      "start": 7.0278,
      "duration": 0.1998,
      "velocity": 115,
      "chip": "ym2612"
    },
    {
      "channel": 2,
      "note": 32,
      "start": 7.2334,
      "duration": 0.0895,
      "velocity": 115,
      "chip": "ym2612"
    },
    {
      "channel": 0,
      "note": 70,
      "start": 7.3266,
      "duration": 0.301,
      "velocity": 88,
      "chip": "ym2612"
    },
    {
      "channel": 1,
      "note": 67,
      "start": 7.3274,
      "duration": 0.301,
      "velocity": 88,
      "chip": "ym2612"
    },
    {
      "channel": 3,
      "note": 51,
      "start": 7.3281,
      "duration": 0.3012,
      "velocity": 88,
      "chip": "ym2612"
    },
    {
      "channel": 4,
      "note": 39,
      "start": 7.3289,
      "duration": 0.3011,
      "velocity": 88,
      "chip": "ym2612"
    },
    {
      "channel": 2,
      "note": 32,
      "start": 7.3333,
      "duration": 0.2912,
      "velocity": 115,
      "chip": "ym2612"
    },
    {
      "channel": 0,
      "note": 75,
      "start": 7.6282,
      "duration": 0.1074,
      "velocity": 88,
      "chip": "ym2612"
    },
    {
      "channel": 1,
      "note": 70,
      "start": 7.629,
      "duration": 0.1069,
      "velocity": 88,
      "chip": "ym2612"
    },
    {
      "channel": 3,
      "note": 70,
      "start": 7.6299,
      "duration": 0.2055,
      "velocity": 88,
      "chip": "ym2612"
    },
    {
      "channel": 4,
      "note": 67,
      "start": 7.6307,
      "duration": 0.2051,
      "velocity": 88,
      "chip": "ym2612"
    },
    {
      "channel": 2,
      "note": 32,
      "start": 7.6321,
      "duration": 0.1987,
      "velocity": 115,
      "chip": "ym2612"
    },
    {
      "channel": 0,
      "note": 75,
      "start": 7.8345,
      "duration": 0.2979,
      "velocity": 88,
      "chip": "ym2612"
    },
    {
      "channel": 1,
      "note": 70,
      "start": 7.8353,
      "duration": 0.298,
      "velocity": 88,
      "chip": "ym2612"
    },
    {
      "channel": 2,
      "note": 32,
      "start": 7.8374,
      "duration": 0.1045,
      "velocity": 115,
      "chip": "ym2612"
    },
    {
      "channel": 3,
      "note": 46,
      "start": 7.9464,
      "duration": 0.3018,
      "velocity": 88,
      "chip": "ym2612"
    },
    {
      "channel": 4,
      "note": 34,
      "start": 7.9472,
      "duration": 0.3018,
      "velocity": 88,
      "chip": "ym2612"
    },
    {
      "channel": 2,
      "note": 32,
      "start": 7.9486,
      "duration": 0.295,
      "velocity": 115,
      "chip": "ym2612"
    },
    {
      "channel": 0,
      "note": 72,
      "start": 8.133,
      "duration": 0.1137,
      "velocity": 88,
      "chip": "ym2612"
    },
    {
      "channel": 1,
      "note": 70,
      "start": 8.1337,
      "duration": 0.1139,
      "velocity": 88,
      "chip": "ym2612"
    },
    {
      "channel": 0,
      "note": 75,
      "start": 8.2473,
      "duration": 0.3011,
      "velocity": 88,
      "chip": "ym2612"
    },
    {
      "channel": 1,
      "note": 70,
      "start": 8.248,
      "duration": 0.3013,
      "velocity": 88,
      "chip": "ym2612"
    },
    {
      "channel": 3,
      "note": 70,
      "start": 8.2488,
      "duration": 0.205,
      "velocity": 88,
      "chip": "ym2612"
    },
    {
      "channel": 4,
      "note": 67,
      "start": 8.2495,
      "duration": 0.2046,
      "velocity": 88,
      "chip": "ym2612"
    },
    {
      "channel": 2,
      "note": 32,
      "start": 8.251,
      "duration": 0.1989,
      "velocity": 115,
      "chip": "ym2612"
    },
    {
      "channel": 2,
      "note": 32,
      "start": 8.4558,
      "duration": 0.0896,
      "velocity": 115,
      "chip": "ym2612"
    },
    {
      "channel": 0,
      "note": 74,
      "start": 8.5491,
      "duration": 1.222,
      "velocity": 88,
      "chip": "ym2612"
    },
    {
      "channel": 1,
      "note": 70,
      "start": 8.5497,
      "duration": 1.2218,
      "velocity": 88,
      "chip": "ym2612"
    },
    {
      "channel": 3,
      "note": 50,
      "start": 8.5506,
      "duration": 0.3003,
      "velocity": 88,
      "chip": "ym2612"
    },
    {
      "channel": 4,
      "note": 38,
      "start": 8.5513,
      "duration": 0.3003,
      "velocity": 88,
      "chip": "ym2612"
    },
    {
      "channel": 2,
      "note": 32,
      "start": 8.5558,
      "duration": 0.2912,
      "velocity": 115,
      "chip": "ym2612"
    },
    {
      "channel": 3,
      "note": 70,
      "start": 8.8515,
      "duration": 0.2056,
      "velocity": 88,
      "chip": "ym2612"
    },
    {
      "channel": 4,
      "note": 65,
      "start": 8.8522,
      "duration": 0.2053,
      "velocity": 88,
      "chip": "ym2612"
    },
    {
      "channel": 2,
      "note": 32,
      "start": 8.8537,
      "duration": 0.1996,
      "velocity": 115,
      "chip": "ym2612"
    },
    {
      "channel": 2,
      "note": 32,
      "start": 9.0591,
      "duration": 0.0893,
      "velocity": 115,
      "chip": "ym2612"
    },
    {
      "channel": 3,
      "note": 46,
      "start": 9.1529,
      "duration": 0.3169,
      "velocity": 88,
      "chip": "ym2612"
    },
    {
      "channel": 4,
      "note": 34,
      "start": 9.1537,
      "duration": 0.317,
      "velocity": 88,
      "chip": "ym2612"
    },
    {
      "channel": 2,
      "note": 32,
      "start": 9.1552,
      "duration": 0.3108,
      "velocity": 115,
      "chip": "ym2612"
    },
    {
      "channel": 3,
      "note": 70,
      "start": 9.4705,
      "duration": 0.1898,
      "velocity": 88,
      "chip": "ym2612"
    },
    {
      "channel": 4,
      "note": 65,
      "start": 9.4713,
      "duration": 0.1894,
      "velocity": 88,
      "chip": "ym2612"
    },
    {
      "channel": 2,
      "note": 32,
      "start": 9.4727,
      "duration": 0.1837,
      "velocity": 115,
      "chip": "ym2612"
    },
    {
      "channel": 2,
      "note": 32,
      "start": 9.6622,
      "duration": 0.1055,
      "velocity": 115,
      "chip": "ym2612"
    },
    {
      "channel": 3,
      "note": 51,
      "start": 9.7726,
      "duration": 0.3014,
      "velocity": 88,
      "chip": "ym2612"
    },
    {
      "channel": 4,
      "note": 39,
      "start": 9.7734,
      "duration": 0.3013,
      "velocity": 88,
      "chip": "ym2612"
    },
    {
      "channel": 2,
      "note": 32,
      "start": 9.7778,
      "duration": 0.2914,
      "velocity": 115,
      "chip": "ym2612"
    },
    {
      "channel": 0,
      "note": 70,
      "start": 10.0731,
      "duration": 0.0915,
      "velocity": 88,
      "chip": "ym2612"
    },
    {
      "channel": 1,
      "note": 67,
      "start": 10.0738,
      "duration": 0.0911,
      "velocity": 88,
      "chip": "ym2612"
    },
    {
      "channel": 3,
      "note": 70,
      "start": 10.0746,
      "duration": 0.2056,
      "velocity": 88,
      "chip": "ym2612"
    },
    {
      "channel": 4,
      "note": 67,
      "start": 10.0754,
      "duration": 0.2051,
      "velocity": 88,
      "chip": "ym2612"
    },
    {
      "channel": 2,
      "note": 32,
      "start": 10.0768,
      "duration": 0.1987,
      "velocity": 115,
      "chip": "ym2612"
    },
    {
      "channel": 0,
      "note": 72,
      "start": 10.2793,
      "duration": 0.0947,
      "velocity": 88,
      "chip": "ym2612"
    },
    {
      "channel": 1,
      "note": 67,
      "start": 10.28,
      "duration": 0.0943,
      "velocity": 88,
      "chip": "ym2612"
    },
    {
      "channel": 2,
      "note": 32,
      "start": 10.2822,
      "duration": 0.0887,
      "velocity": 115,
      "chip": "ym2612"
    },
    {
      "channel": 3,
      "note": 46,
      "start": 10.3753,
      "duration": 0.3017,
      "velocity": 88,
      "chip": "ym2612"
    },
    {
      "channel": 4,
      "note": 34,
      "start": 10.3761,
      "duration": 0.3018,
      "velocity": 88,
      "chip": "ym2612"
    },
    {
      "channel": 2,
      "note": 32,
      "start": 10.3774,
      "duration": 0.295,
      "velocity": 115,
      "chip": "ym2612"
    },
    {
      "channel": 0,
      "note": 70,
      "start": 10.5779,
      "duration": 0.0977,
      "velocity": 88,
      "chip": "ym2612"
    },
    {
      "channel": 1,
      "note": 67,
      "start": 10.5787,
      "duration": 0.0977,
      "velocity": 88,
      "chip": "ym2612"
    },
    {
      "channel": 0,
      "note": 72,
      "start": 10.6762,
      "duration": 0.1074,
      "velocity": 88,
      "chip": "ym2612"
    },
    {
      "channel": 1,
      "note": 67,
      "start": 10.6769,
      "duration": 0.1072,
      "velocity": 88,
      "chip": "ym2612"
    },
    {
      "channel": 3,
      "note": 70,
      "start": 10.6776,
      "duration": 0.2046,
      "velocity": 88,
      "chip": "ym2612"
    },
    {
      "channel": 4,
      "note": 67,
      "start": 10.6784,
      "duration": 0.2041,
      "velocity": 88,
      "chip": "ym2612"
    },
    {
      "channel": 2,
      "note": 32,
      "start": 10.6799,
      "duration": 0.199,
      "velocity": 115,
      "chip": "ym2612"
    },
    {
      "channel": 2,
      "note": 32,
      "start": 10.8841,
      "duration": 0.1059,
      "velocity": 115,
      "chip": "ym2612"
    },
    {
      "channel": 0,
      "note": 73,
      "start": 10.9939,
      "duration": 0.6025,
      "velocity": 88,
      "chip": "ym2612"
    },
    {
      "channel": 1,
      "note": 67,
      "start": 10.9947,
      "duration": 0.6024,
      "velocity": 88,
      "chip": "ym2612"
    },
    {
      "channel": 3,
      "note": 52,
      "start": 10.9956,
      "duration": 0.3,
      "velocity": 88,
      "chip": "ym2612"
    },
    {
      "channel": 4,
      "note": 40,
      "start": 10.9965,
      "duration": 0.2999,
      "velocity": 88,
      "chip": "ym2612"
    },
    {
      "channel": 2,
      "note": 32,
      "start": 11.0008,
      "duration": 0.2909,
      "velocity": 115,
      "chip": "ym2612"
    },
    {
      "channel": 3,
      "note": 72,
      "start": 11.2961,
      "duration": 0.2058,
      "velocity": 88,
      "chip": "ym2612"
    },
    {
      "channel": 4,
      "note": 67,
      "start": 11.297,
      "duration": 0.2053,
      "velocity": 88,
      "chip": "ym2612"
    },
    {
      "channel": 2,
      "note": 32,
      "start": 11.2984,
      "duration": 0.1997,
      "velocity": 115,
      "chip": "ym2612"
    },
    {
      "channel": 2,
      "note": 32,
      "start": 11.5039,
      "duration": 0.0894,
      "velocity": 115,
      "chip": "ym2612"
    },
    {
      "channel": 0,
      "note": 72,
      "start": 11.597,
      "duration": 0.6027,
      "velocity": 88,
      "chip": "ym2612"
    },
    {
      "channel": 1,
      "note": 67,
      "start": 11.5977,
      "duration": 0.6029,
      "velocity": 88,
      "chip": "ym2612"
    },
    {
      "channel": 3,
      "note": 48,
      "start": 11.5984,
      "duration": 0.3002,
      "velocity": 88,
      "chip": "ym2612"
    },
    {
      "channel": 4,
      "note": 36,
      "start": 11.5992,
      "duration": 0.3002,
      "velocity": 88,
      "chip": "ym2612"
    },
    {
      "channel": 2,
      "note": 32,
      "start": 11.6006,
      "duration": 0.2942,
      "velocity": 115,
      "chip": "ym2612"
    },
    {
      "channel": 3,
      "note": 72,
      "start": 11.8993,
      "duration": 0.2059,
      "velocity": 88,
      "chip": "ym2612"
    },
    {
      "channel": 4,
      "note": 67,
      "start": 11.9001,
      "duration": 0.2054,
      "velocity": 88,
      "chip": "ym2612"
    },
    {
      "channel": 2,
      "note": 32,
      "start": 11.9015,
      "duration": 0.1997,
      "velocity": 115,
      "chip": "ym2612"
    },
    {
      "channel": 2,
      "note": 32,
      "start": 12.1071,
      "duration": 0.0895,
      "velocity": 115,
      "chip": "ym2612"
    },
    {
      "channel": 0,
      "note": 77,
      "start": 12.2004,
      "duration": 1.2217,
      "velocity": 88,
      "chip": "ym2612"
    },
    {
      "channel": 1,
      "note": 72,
      "start": 12.2012,
      "duration": 1.2213,
      "velocity": 88,
      "chip": "ym2612"
    },
    {
      "channel": 3,
      "note": 53,
      "start": 12.2019,
      "duration": 0.316,
      "velocity": 88,
      "chip": "ym2612"
    },
    {
      "channel": 4,
      "note": 41,
      "start": 12.2027,
      "duration": 0.316,
      "velocity": 88,
      "chip": "ym2612"
    },
    {
      "channel": 2,
      "note": 32,
      "start": 12.2071,
      "duration": 0.3069,
      "velocity": 115,
      "chip": "ym2612"
    },
    {
      "channel": 3,
      "note": 72,
      "start": 12.5185,
      "duration": 0.1899,
      "velocity": 88,
      "chip": "ym2612"
    },
    {
      "channel": 4,
      "note": 68,
      "start": 12.5193,
      "duration": 0.1895,
      "velocity": 88,
      "chip": "ym2612"
    },
    {
      "channel": 2,
      "note": 32,
      "start": 12.5208,
      "duration": 0.1838,
      "velocity": 115,
      "chip": "ym2612"
    },
    {
      "channel": 2,
      "note": 32,
      "start": 12.7104,
      "duration": 0.1052,
      "velocity": 115,
      "chip": "ym2612"
    },
    {
      "channel": 3,
      "note": 48,
      "start": 12.8201,
      "duration": 0.3011,
      "velocity": 88,
      "chip": "ym2612"
    },
    {
      "channel": 4,
      "note": 36,
      "start": 12.821,
      "duration": 0.3011,
      "velocity": 88,
      "chip": "ym2612"
    },
    {
      "channel": 2,
      "note": 32,
      "start": 12.8224,
      "duration": 0.295,
      "velocity": 115,
      "chip": "ym2612"
    },
    {
      "channel": 3,
      "note": 72,
      "start": 13.1218,
      "duration": 0.2057,
      "velocity": 88,
      "chip": "ym2612"
    },
    {
      "channel": 4,
      "note": 68,
      "start": 13.1227,
      "duration": 0.2052,
      "velocity": 88,
      "chip": "ym2612"
    },
    {
      "channel": 2,
      "note": 32,
      "start": 13.1241,
      "duration": 0.1995,
      "velocity": 115,
      "chip": "ym2612"
    },
    {
      "channel": 2,
      "note": 32,
      "start": 13.3295,
      "duration": 0.0895,
      "velocity": 115,
      "chip": "ym2612"
    },
    {
      "channel": 3,
      "note": 53,
      "start": 13.4234,
      "duration": 0.3004,
      "velocity": 88,
      "chip": "ym2612"
    },
    {
      "channel": 4,
      "note": 41,
      "start": 13.4242,
      "duration": 0.3005,
      "velocity": 88,
      "chip": "ym2612"
    },
    {
      "channel": 2,
      "note": 32,
      "start": 13.4285,
      "duration": 0.292,
      "velocity": 115,
      "chip": "ym2612"
    },
    {
      "channel": 3,
      "note": 72,
      "start": 13.7245,
      "duration": 0.2057,
      "velocity": 88,
      "chip": "ym2612"
    },
    {
      "channel": 4,
      "note": 68,
      "start": 13.7253,
      "duration": 0.2052,
      "velocity": 88,
      "chip": "ym2612"
    },
    {
      "channel": 2,
      "note": 32,
      "start": 13.7267,
      "duration": 0.2001,
      "velocity": 115,
      "chip": "ym2612"
    },
    {
      "channel": 2,
      "note": 32,
      "start": 13.9322,
      "duration": 0.1059,
      "velocity": 115,
      "chip": "ym2612"
    },
    {
      "channel": 3,
      "note": 51,
      "start": 14.042,
      "duration": 0.301,
      "velocity": 88,
      "chip": "ym2612"
    },
    {
      "channel": 4,
      "note": 39,
      "start": 14.0427,
      "duration": 0.301,
      "velocity": 88,
      "chip": "ym2612"
    },
    {
      "channel": 2,
      "note": 32,
      "start": 14.0442,
      "duration": 0.2955,
      "velocity": 115,
      "chip": "ym2612"
    },
    {
      "channel": 3,
      "note": 72,
      "start": 14.3436,
      "duration": 0.2057,
      "velocity": 88,
      "chip": "ym2612"
    },
    {
      "channel": 4,
      "note": 68,
      "start": 14.3444,
      "duration": 0.2053,
      "velocity": 88,
      "chip": "ym2612"
    },
    {
      "channel": 2,
      "note": 32,
      "start": 14.3458,
      "duration": 0.2002,
      "velocity": 115,
      "chip": "ym2612"
    },
    {
      "channel": 2,
      "note": 32,
      "start": 14.5512,
      "duration": 0.0902,
      "velocity": 115,
      "chip": "ym2612"
    },
    {
      "channel": 3,
      "note": 50,
      "start": 14.646,
      "duration": 0.3017,
      "velocity": 88,
      "chip": "ym2612"
    },
    {
      "channel": 4,
      "note": 38,
      "start": 14.6467,
      "duration": 0.3017,
      "velocity": 88,
      "chip": "ym2612"
    },
    {
      "channel": 2,
      "note": 32,
      "start": 14.6511,
      "duration": 0.2919,
      "velocity": 115,
      "chip": "ym2612"
    },
    {
      "channel": 0,
      "note": 70,
      "start": 14.9467,
      "duration": 0.1075,
      "velocity": 88,
      "chip": "ym2612"
    },
    {
      "channel": 1,
      "note": 65,
      "start": 14.9475,
      "duration": 0.107,
      "velocity": 88,
      "chip": "ym2612"
    },
    {
      "channel": 3,
      "note": 74,
      "start": 14.9483,
      "duration": 0.2058,
      "velocity": 88,
      "chip": "ym2612"
    },
    {
      "channel": 4,
      "note": 70,
      "start": 14.9491,
      "duration": 0.2054,
      "velocity": 88,
      "chip": "ym2612"
    },
    {
      "channel": 2,
      "note": 32,
      "start": 14.9505,
      "duration": 0.1988,
      "velocity": 115,
      "chip": "ym2612"
    },
    {
      "channel": 0,
      "note": 72,
      "start": 15.1531,
      "duration": 0.0946,
      "velocity": 88,
      "chip": "ym2612"
    },
    {
      "channel": 1,
      "note": 65,
      "start": 15.1539,
      "duration": 0.0941,
      "velocity": 88,
      "chip": "ym2612"
    },
    {
      "channel": 2,
      "note": 32,
      "start": 15.156,
      "duration": 0.0885,
      "velocity": 115,
      "chip": "ym2612"
    },
    {
      "channel": 3,
      "note": 46,
      "start": 15.2489,
      "duration": 0.3178,
      "velocity": 88,
      "chip": "ym2612"
    },
    {
      "channel": 4,
      "note": 34,
      "start": 15.2497,
      "duration": 0.3178,
      "velocity": 88,
      "chip": "ym2612"
    },
    {
      "channel": 2,
      "note": 32,
      "start": 15.2511,
      "duration": 0.311,
      "velocity": 115,
      "chip": "ym2612"
    },
    {
      "channel": 0,
      "note": 70,
      "start": 15.4516,
      "duration": 0.1136,
      "velocity": 88,
      "chip": "ym2612"
    },
    {
      "channel": 1,
      "note": 65,
      "start": 15.4524,
      "duration": 0.1137,
      "velocity": 88,
      "chip": "ym2612"
    },
    {
      "channel": 0,
      "note": 72,
      "start": 15.5659,
      "duration": 0.0915,
      "velocity": 88,
      "chip": "ym2612"
    },
    {
      "channel": 1,
      "note": 65,
      "start": 15.5665,
      "duration": 0.0912,
      "velocity": 88,
      "chip": "ym2612"
    },
    {
      "channel": 3,
      "note": 74,
      "start": 15.5673,
      "duration": 0.1888,
      "velocity": 88,
      "chip": "ym2612"
    },
    {
      "channel": 4,
      "note": 70,
      "start": 15.5681,
      "duration": 0.1882,
      "velocity": 88,
      "chip": "ym2612"
    },
    {
      "channel": 2,
      "note": 32,
      "start": 15.5695,
      "duration": 0.1831,
      "velocity": 115,
      "chip": "ym2612"
    },
    {
      "channel": 2,
      "note": 32,
      "start": 15.7579,
      "duration": 0.1059,
      "velocity": 115,
      "chip": "ym2612"
    },
    {
      "channel": 0,
      "note": 74,
      "start": 15.8676,
      "duration": 0.6025,
      "velocity": 88,
      "chip": "ym2612"
    },
    {
      "channel": 1,
      "note": 70,
      "start": 15.8684,
      "duration": 0.6027,
      "velocity": 88,
      "chip": "ym2612"
    },
    {
      "channel": 3,
      "note": 50,
      "start": 15.8692,
      "duration": 0.3,
      "velocity": 88,
      "chip": "ym2612"
    },
    {
      "channel": 4,
      "note": 38,
      "start": 15.8699,
      "duration": 0.3001,
      "velocity": 88,
      "chip": "ym2612"
    },
    {
      "channel": 2,
      "note": 32,
      "start": 15.8744,
      "duration": 0.291,
      "velocity": 115,
      "chip": "ym2612"
    },
    {
      "channel": 3,
      "note": 74,
      "start": 16.1698,
      "duration": 0.2058,
      "velocity": 88,
      "chip": "ym2612"
    },
    {
      "channel": 4,
      "note": 70,
      "start": 16.1707,
      "duration": 0.2052,
      "velocity": 88,
      "chip": "ym2612"
    },
    {
      "channel": 2,
      "note": 32,
      "start": 16.1721,
      "duration": 0.1996,
      "velocity": 115,
      "chip": "ym2612"
    },
    {
      "channel": 2,
      "note": 32,
      "start": 16.3775,
      "duration": 0.0895,
      "velocity": 115,
      "chip": "ym2612"
    },
    {
      "channel": 0,
      "note": 77,
      "start": 16.4708,
      "duration": 0.6186,
      "velocity": 88,
      "chip": "ym2612"
    },
    {
      "channel": 1,
      "note": 74,
      "start": 16.4717,
      "duration": 0.6185,
      "velocity": 88,
      "chip": "ym2612"
    },
    {
      "channel": 3,
      "note": 53,
      "start": 16.4725,
      "duration": 0.3001,
      "velocity": 88,
      "chip": "ym2612"
    },
    {
      "channel": 4,
      "note": 41,
      "start": 16.4732,
      "duration": 0.3001,
      "velocity": 88,
      "chip": "ym2612"
    },
    {
      "channel": 2,
      "note": 32,
      "start": 16.4746,
      "duration": 0.294,
      "velocity": 115,
      "chip": "ym2612"
    },
    {
      "channel": 3,
      "note": 74,
      "start": 16.7732,
      "duration": 0.2057,
      "velocity": 88,
      "chip": "ym2612"
    },
    {
      "channel": 4,
      "note": 70,
      "start": 16.7739,
      "duration": 0.2052,
      "velocity": 88,
      "chip": "ym2612"
    },
    {
      "channel": 2,
      "note": 32,
      "start": 16.7754,
      "duration": 0.1995,
      "velocity": 115,
      "chip": "ym2612"
    },
    {
      "channel": 2,
      "note": 32,
      "start": 16.9807,
      "duration": 0.1055,
      "velocity": 115,
      "chip": "ym2612"
    },
    {
      "channel": 0,
      "note": 79,
      "start": 17.0901,
      "duration": 0.3929,
      "velocity": 88,
      "chip": "ym2612"
    },
    {
      "channel": 1,
      "note": 75,
      "start": 17.0909,
      "duration": 0.3925,
      "velocity": 88,
      "chip": "ym2612"
    },
    {
      "channel": 3,
      "note": 51,
      "start": 17.0916,
      "duration": 0.3001,
      "velocity": 88,
      "chip": "ym2612"
    },
    {
      "channel": 4,
      "note": 39,
      "start": 17.0924,
      "duration": 0.3,
      "velocity": 88,
      "chip": "ym2612"
    },
    {
      "channel": 2,
      "note": 32,
      "start": 17.0967,
      "duration": 0.2911,
      "velocity": 115,
      "chip": "ym2612"
    },
    {
      "channel": 3,
      "note": 75,
      "start": 17.3923,
      "duration": 0.2051,
      "velocity": 88,
      "chip": "ym2612"
    },
    {
      "channel": 4,
      "note": 70,
      "start": 17.3931,
      "duration": 0.2046,
      "velocity": 88,
      "chip": "ym2612"
    },
    {
      "channel": 2,
      "note": 32,
      "start": 17.3945,
      "duration": 0.1996,
      "velocity": 115,
      "chip": "ym2612"
    },
    {
      "channel": 2,
      "note": 32,
      "start": 17.5994,
      "duration": 0.09,
      "velocity": 115,
      "chip": "ym2612"
    },
    {
      "channel": 0,
      "note": 77,
      "start": 17.6931,
      "duration": 0.2027,
      "velocity": 88,
      "chip": "ym2612"
    },
    {
      "channel": 1,
      "note": 73,
      "start": 17.6939,
      "duration": 0.2027,
      "velocity": 88,
      "chip": "ym2612"
    },
    {
      "channel": 3,
      "note": 49,
      "start": 17.6946,
      "duration": 0.3002,
      "velocity": 88,
      "chip": "ym2612"
    },
    {
      "channel": 4,
      "note": 37,
      "start": 17.6954,
      "duration": 0.3003,
      "velocity": 88,
      "chip": "ym2612"
    },
    {
      "channel": 2,
      "note": 32,
      "start": 17.6968,
      "duration": 0.2941,
      "velocity": 115,
      "chip": "ym2612"
    },
    {
      "channel": 0,
      "note": 79,
      "start": 17.8964,
      "duration": 0.2058,
      "velocity": 88,
      "chip": "ym2612"
    },
    {
      "channel": 1,
      "note": 75,
      "start": 17.8972,
      "duration": 0.2058,
      "velocity": 88,
      "chip": "ym2612"
    },
    {
      "channel": 3,
      "note": 75,
      "start": 17.9955,
      "duration": 0.2058,
      "velocity": 88,
      "chip": "ym2612"
    },
    {
      "channel": 4,
      "note": 70,
      "start": 17.9963,
      "duration": 0.2054,
      "velocity": 88,
      "chip": "ym2612"
    },
    {
      "channel": 2,
      "note": 32,
      "start": 17.9977,
      "duration": 0.1997,
      "velocity": 115,
      "chip": "ym2612"
    },
    {
      "channel": 0,
      "note": 77,
      "start": 18.1028,
      "duration": 0.193,
      "velocity": 88,
      "chip": "ym2612"
    },
    {
      "channel": 1,
      "note": 73,
      "start": 18.1037,
      "duration": 0.193,
      "velocity": 88,
      "chip": "ym2612"
    },
    {
      "channel": 2,
      "note": 32,
      "start": 18.2033,
      "duration": 0.0895,
      "velocity": 115,
      "chip": "ym2612"
    },
    {
      "channel": 0,
      "note": 76,
      "start": 18.2965,
      "duration": 1.222,
      "velocity": 88,
      "chip": "ym2612"
    },
    {
      "channel": 1,
      "note": 72,
      "start": 18.2973,
      "duration": 1.2216,
      "velocity": 88,
      "chip": "ym2612"
    },
    {
      "channel": 3,
      "note": 48,
      "start": 18.298,
      "duration": 0.316,
      "velocity": 88,
      "chip": "ym2612"
    },
    {
      "channel": 4,
      "note": 36,
      "start": 18.2988,
      "duration": 0.316,
      "velocity": 88,
      "chip": "ym2612"
    },
    {
      "channel": 2,
      "note": 32,
      "start": 18.3032,
      "duration": 0.307,
      "velocity": 115,
      "chip": "ym2612"
    },
    {
      "channel": 3,
      "note": 76,
      "start": 18.6146,
      "duration": 0.1899,
      "velocity": 88,
      "chip": "ym2612"
    },
    {
      "channel": 4,
      "note": 72,
      "start": 18.6154,
      "duration": 0.1895,
      "velocity": 88,
      "chip": "ym2612"
    },
    {
      "channel": 2,
      "note": 32,
      "start": 18.6168,
      "duration": 0.1838,
      "velocity": 115,
      "chip": "ym2612"
    },
    {
      "channel": 2,
      "note": 32,
      "start": 18.8065,
      "duration": 0.1053,
      "velocity": 115,
      "chip": "ym2612"
    },
    {
      "channel": 3,
      "note": 43,
      "start": 18.9163,
      "duration": 0.301,
      "velocity": 88,
      "chip": "ym2612"
    },
    {
      "channel": 4,
      "note": 31,
      "start": 18.917,
      "duration": 0.301,
      "velocity": 88,
      "chip": "ym2612"
    },
    {
      "channel": 2,
      "note": 32,
      "start": 18.9184,
      "duration": 0.295,
      "velocity": 115,
      "chip": "ym2612"
    },
    {
      "channel": 3,
      "note": 76,
      "start": 19.2179,
      "duration": 0.2058,
      "velocity": 88,
      "chip": "ym2612"
    },
    {
      "channel": 4,
      "note": 72,
      "start": 19.2187,
      "duration": 0.2054,
      "velocity": 88,
      "chip": "ym2612"
    },
    {
      "channel": 2,
      "note": 32,
      "start": 19.2201,
      "duration": 0.1998,
      "velocity": 115,
      "chip": "ym2612"
    },
    {
      "channel": 2,
      "note": 32,
      "start": 19.4257,
      "duration": 0.0896,
      "velocity": 115,
      "chip": "ym2612"
    },
    {
      "channel": 3,
      "note": 44,
      "start": 19.5198,
      "duration": 0.302,
      "velocity": 88,
      "chip": "ym2612"
    },
    {
      "channel": 4,
      "note": 32,
      "start": 19.5205,
      "duration": 0.3021,
      "velocity": 88,
      "chip": "ym2612"
    },
    {
      "channel": 2,
      "note": 32,
      "start": 19.525,
      "duration": 0.2922,
      "velocity": 115,
      "chip": "ym2612"
    },
    {
      "channel": 0,
      "note": 70,
      "start": 19.8209,
      "duration": 0.1071,
      "velocity": 88,
      "chip": "ym2612"
    },
    {
      "channel": 1,
      "note": 65,
      "start": 19.8217,
      "duration": 0.1066,
      "velocity": 88,
      "chip": "ym2612"
    },
    {
      "channel": 3,
      "note": 72,
      "start": 19.8225,
      "duration": 0.2053,
      "velocity": 88,
      "chip": "ym2612"
    },
    {
      "channel": 4,
      "note": 68,
      "start": 19.8232,
      "duration": 0.2048,
      "velocity": 88,
      "chip": "ym2612"
    },
    {
      "channel": 2,
      "note": 32,
      "start": 19.8247,
      "duration": 0.1984,
      "velocity": 115,
      "chip": "ym2612"
    },
    {
      "channel": 0,
      "note": 72,
      "start": 20.0269,
      "duration": 0.1105,
      "velocity": 88,
      "chip": "ym2612"
    },
    {
      "channel": 1,
      "note": 65,
      "start": 20.0276,
      "duration": 0.11,
      "velocity": 88,
      "chip": "ym2612"
    },
    {
      "channel": 2,
      "note": 32,
      "start": 20.0297,
      "duration": 0.1045,
      "velocity": 115,
      "chip": "ym2612"
    },
    {
      "channel": 3,
      "note": 48,
      "start": 20.1386,
      "duration": 0.3018,
      "velocity": 88,
      "chip": "ym2612"
    },
    {
      "channel": 4,
      "note": 36,
      "start": 20.1394,
      "duration": 0.3018,
      "velocity": 88,
      "chip": "ym2612"
    },
    {
      "channel": 2,
      "note": 32,
      "start": 20.1408,
      "duration": 0.2951,
      "velocity": 115,
      "chip": "ym2612"
    },
    {
      "channel": 0,
      "note": 70,
      "start": 20.3254,
      "duration": 0.1136,
      "velocity": 88,
      "chip": "ym2612"
    },
    {
      "channel": 1,
      "note": 65,
      "start": 20.3262,
      "duration": 0.1136,
      "velocity": 88,
      "chip": "ym2612"
    },
    {
      "channel": 0,
      "note": 72,
      "start": 20.4396,
      "duration": 0.0915,
      "velocity": 88,
      "chip": "ym2612"
    },
    {
      "channel": 1,
      "note": 65,
      "start": 20.4402,
      "duration": 0.0912,
      "velocity": 88,
      "chip": "ym2612"
    },
    {
      "channel": 3,
      "note": 72,
      "start": 20.441,
      "duration": 0.2046,
      "velocity": 88,
      "chip": "ym2612"
    },
    {
      "channel": 4,
      "note": 68,
      "start": 20.4418,
      "duration": 0.2041,
      "velocity": 88,
      "chip": "ym2612"
    },
    {
      "channel": 2,
      "note": 32,
      "start": 20.4432,
      "duration": 0.199,
      "velocity": 115,
      "chip": "ym2612"
    },
    {
      "channel": 2,
      "note": 32,
      "start": 20.6475,
      "duration": 0.0901,
      "velocity": 115,
      "chip": "ym2612"
    },
    {
      "channel": 0,
      "note": 74,
      "start": 20.7415,
      "duration": 0.6024,
      "velocity": 88,
      "chip": "ym2612"
    },
    {
      "channel": 1,
      "note": 70,
      "start": 20.7423,
      "duration": 0.6025,
      "velocity": 88,
      "chip": "ym2612"
    },
    {
      "channel": 3,
      "note": 46,
      "start": 20.743,
      "duration": 0.2999,
      "velocity": 88,
      "chip": "ym2612"
    },
    {
      "channel": 4,
      "note": 34,
      "start": 20.7438,
      "duration": 0.2999,
      "velocity": 88,
      "chip": "ym2612"
    },
    {
      "channel": 2,
      "note": 32,
      "start": 20.7482,
      "duration": 0.2909,
      "velocity": 115,
      "chip": "ym2612"
    },
    {
      "channel": 3,
      "note": 74,
      "start": 21.0435,
      "duration": 0.2058,
      "velocity": 88,
      "chip": "ym2612"
    },
    {
      "channel": 4,
      "note": 70,
      "start": 21.0444,
      "duration": 0.2053,
      "velocity": 88,
      "chip": "ym2612"
    },
    {
      "channel": 2,
      "note": 32,
      "start": 21.0458,
      "duration": 0.1997,
      "velocity": 115,
      "chip": "ym2612"
    },
    {
      "channel": 2,
      "note": 32,
      "start": 21.2512,
      "duration": 0.0895,
      "velocity": 115,
      "chip": "ym2612"
    },
    {
      "channel": 0,
      "note": 70,
      "start": 21.3445,
      "duration": 0.6186,
      "velocity": 88,
      "chip": "ym2612"
    },
    {
      "channel": 1,
      "note": 65,
      "start": 21.3454,
      "duration": 0.6185,
      "velocity": 88,
      "chip": "ym2612"
    },
    {
      "channel": 3,
      "note": 50,
      "start": 21.3461,
      "duration": 0.3159,
      "velocity": 88,
      "chip": "ym2612"
    },
    {
      "channel": 4,
      "note": 38,
      "start": 21.3469,
      "duration": 0.3159,
      "velocity": 88,
      "chip": "ym2612"
    },
    {
      "channel": 2,
      "note": 32,
      "start": 21.3483,
      "duration": 0.3099,
      "velocity": 115,
      "chip": "ym2612"
    },
    {
      "channel": 3,
      "note": 74,
      "start": 21.6627,
      "duration": 0.19,
      "velocity": 88,
      "chip": "ym2612"
    },
    {
      "channel": 4,
      "note": 70,
      "start": 21.6634,
      "duration": 0.1895,
      "velocity": 88,
      "chip": "ym2612"
    },
    {
      "channel": 2,
      "note": 32,
      "start": 21.6649,
      "duration": 0.1838,
      "velocity": 115,
      "chip": "ym2612"
    },
    {
      "channel": 2,
      "note": 32,
      "start": 21.8546,
      "duration": 0.1054,
      "velocity": 115,
      "chip": "ym2612"
    },
    {
      "channel": 0,
      "note": 75,
      "start": 21.9637,
      "duration": 0.2027,
      "velocity": 88,
      "chip": "ym2612"
    },
    {
      "channel": 1,
      "note": 67,
      "start": 21.9645,
      "duration": 0.2022,
      "velocity": 88,
      "chip": "ym2612"
    },
    {
      "channel": 3,
      "note": 63,
      "start": 21.9653,
      "duration": 0.2017,
      "velocity": 88,
      "chip": "ym2612"
    },
    {
      "channel": 4,
      "note": 51,
      "start": 21.966,
      "duration": 0.2013,
      "velocity": 88,
      "chip": "ym2612"
    },
    {
      "channel": 2,
      "note": 32,
      "start": 21.9704,
      "duration": 0.2911,
      "velocity": 115,
      "chip": "ym2612"
    },
    {
      "channel": 0,
      "note": 70,
      "start": 22.2652,
      "duration": 0.0917,
      "velocity": 88,
      "chip": "ym2612"
    },
    {
      "channel": 1,
      "note": 58,
      "start": 22.266,
      "duration": 0.0912,
      "velocity": 88,
      "chip": "ym2612"
    },
    {
      "channel": 3,
      "note": 58,
      "start": 22.2667,
      "duration": 0.0908,
      "velocity": 88,
      "chip": "ym2612"
    },
    {
      "channel": 4,
      "note": 46,
      "start": 22.2675,
      "duration": 0.0903,
      "velocity": 88,
      "chip": "ym2612"
    },
    {
      "channel": 2,
      "note": 32,
      "start": 22.2689,
      "duration": 0.199,
      "velocity": 115,
      "chip": "ym2612"
    },
    {
      "channel": 0,
      "note": 72,
      "start": 22.4717,
      "duration": 0.0945,
      "velocity": 88,
      "chip": "ym2612"
    },
    {
      "channel": 1,
      "note": 60,
      "start": 22.4725,
      "duration": 0.0941,
      "velocity": 88,
      "chip": "ym2612"
    },
    {
      "channel": 3,
      "note": 60,
      "start": 22.4732,
      "duration": 0.0937,
      "velocity": 88,
      "chip": "ym2612"
    },
    {
      "channel": 4,
      "note": 48,
      "start": 22.474,
      "duration": 0.0932,
      "velocity": 88,
      "chip": "ym2612"
    },
    {
      "channel": 2,
      "note": 32,
      "start": 22.4754,
      "duration": 0.0877,
      "velocity": 115,
      "chip": "ym2612"
    },
    {
      "channel": 2,
      "note": 32,
      "start": 22.5689,
      "duration": 0.2959,
      "velocity": 115,
      "chip": "ym2612"
    },
    {
      "channel": 0,
      "note": 70,
      "start": 22.7702,
      "duration": 0.0976,
      "velocity": 88,
      "chip": "ym2612"
    },
    {
      "channel": 1,
      "note": 58,
      "start": 22.7711,
      "duration": 0.0976,
      "velocity": 88,
      "chip": "ym2612"
    },
    {
      "channel": 3,
      "note": 58,
      "start": 22.7718,
      "duration": 0.0977,
      "velocity": 88,
      "chip": "ym2612"
    },
    {
      "channel": 4,
      "note": 46,
      "start": 22.7726,
      "duration": 0.0976,
      "velocity": 88,
      "chip": "ym2612"
    },
    {
      "channel": 0,
      "note": 72,
      "start": 22.8685,
      "duration": 0.1074,
      "velocity": 88,
      "chip": "ym2612"
    },
    {
      "channel": 1,
      "note": 60,
      "start": 22.8693,
      "duration": 0.107,
      "velocity": 88,
      "chip": "ym2612"
    },
    {
      "channel": 3,
      "note": 60,
      "start": 22.8701,
      "duration": 0.1066,
      "velocity": 88,
      "chip": "ym2612"
    },
    {
      "channel": 4,
      "note": 48,
      "start": 22.8709,
      "duration": 0.1061,
      "velocity": 88,
      "chip": "ym2612"
    },
    {
      "channel": 2,
      "note": 32,
      "start": 22.8723,
      "duration": 0.1988,
      "velocity": 115,
      "chip": "ym2612"
    },
    {
      "channel": 2,
      "note": 32,
      "start": 23.0758,
      "duration": 0.1066,
      "velocity": 115,
      "chip": "ym2612"
    },
    {
      "channel": 0,
      "note": 63,
      "start": 23.1862,
      "duration": 0.0914,
      "velocity": 88,
      "chip": "ym2612"
    },
    {
      "channel": 1,
      "note": 51,
      "start": 23.1869,
      "duration": 0.091,
      "velocity": 88,
      "chip": "ym2612"
    },
    {
      "channel": 3,
      "note": 51,
      "start": 23.1878,
      "duration": 0.0905,
      "velocity": 88,
      "chip": "ym2612"
    },
    {
      "channel": 4,
      "note": 39,
      "start": 23.1885,
      "duration": 0.0901,
      "velocity": 88,
      "chip": "ym2612"
    },
    {
      "channel": 2,
      "note": 32,
      "start": 23.1928,
      "duration": 0.2911,
      "velocity": 115,
      "chip": "ym2612"
    },
    {
      "channel": 3,
      "note": 46,
      "start": 23.4879,
      "duration": 0.0914,
      "velocity": 88,
      "chip": "ym2612"
    },
    {
      "channel": 4,
      "note": 34,
      "start": 23.4886,
      "duration": 0.091,
      "velocity": 88,
      "chip": "ym2612"
    },
    {
      "channel": 2,
      "note": 32,
      "start": 23.4901,
      "duration": 0.2002,
      "velocity": 115,
      "chip": "ym2612"
    },
    {
      "channel": 2,
      "note": 32,
      "start": 23.6951,
      "duration": 0.0905,
      "velocity": 115,
      "chip": "ym2612"
    },
    {
      "channel": 3,
      "note": 48,
      "start": 23.7895,
      "duration": 0.0917,
      "velocity": 88,
      "chip": "ym2612"
    },
    {
      "channel": 4,
      "note": 36,
      "start": 23.7902,
      "duration": 0.0913,
      "velocity": 88,
      "chip": "ym2612"
    },
    {
      "channel": 2,
      "note": 32,
      "start": 23.7916,
      "duration": 0.2956,
      "velocity": 115,
      "chip": "ym2612"
    },
    {
      "channel": 3,
      "note": 50,
      "start": 24.0912,
      "duration": 0.1073,
      "velocity": 88,
      "chip": "ym2612"
    },
    {
      "channel": 4,
      "note": 38,
      "start": 24.092,
      "duration": 0.1069,
      "velocity": 88,
      "chip": "ym2612"
    },
    {
      "channel": 2,
      "note": 32,
      "start": 24.0934,
      "duration": 0.2002,
      "velocity": 115,
      "chip": "ym2612"
    },
    {
      "channel": 2,
      "note": 32,
      "start": 24.2983,
      "duration": 0.0905,
      "velocity": 115,
      "chip": "ym2612"
    },
    {
      "channel": 3,
      "note": 51,
      "start": 24.3939,
      "duration": 0.3172,
      "velocity": 88,
      "chip": "ym2612"
    },
    {
      "channel": 4,
      "note": 39,
      "start": 24.3948,
      "duration": 0.3171,
      "velocity": 88,
      "chip": "ym2612"
    },
    {
      "channel": 2,
      "note": 32,
      "start": 24.3991,
      "duration": 0.3073,
      "velocity": 115,
      "chip": "ym2612"
    },
    {
      "channel": 0,
      "note": 70,
      "start": 24.7101,
      "duration": 0.0914,
      "velocity": 88,
      "chip": "ym2612"
    },
    {
      "channel": 1,
      "note": 67,
      "start": 24.7109,
      "duration": 0.091,
      "velocity": 88,
      "chip": "ym2612"
    },
    {
      "channel": 3,
      "note": 70,
      "start": 24.7117,
      "duration": 0.1898,
      "velocity": 88,
      "chip": "ym2612"
    },
    {
      "channel": 4,
      "note": 67,
      "start": 24.7124,
      "duration": 0.1894,
      "velocity": 88,
      "chip": "ym2612"
    },
    {
      "channel": 2,
      "note": 32,
      "start": 24.7139,
      "duration": 0.1829,
      "velocity": 115,
      "chip": "ym2612"
    },
    {
      "channel": 0,
      "note": 72,
      "start": 24.9005,
      "duration": 0.1105,
      "velocity": 88,
      "chip": "ym2612"
    },
    {
      "channel": 1,
      "note": 67,
      "start": 24.9013,
      "duration": 0.1101,
      "velocity": 88,
      "chip": "ym2612"
    },
    {
      "channel": 2,
      "note": 32,
      "start": 24.9034,
      "duration": 0.1046,
      "velocity": 115,
      "chip": "ym2612"
    },
    {
      "channel": 3,
      "note": 46,
      "start": 25.0124,
      "duration": 0.3017,
      "velocity": 88,
      "chip": "ym2612"
    },
    {
      "channel": 4,
      "note": 34,
      "start": 25.0131,
      "duration": 0.3017,
      "velocity": 88,
      "chip": "ym2612"
    },
    {
      "channel": 2,
      "note": 32,
      "start": 25.0145,
      "duration": 0.295,
      "velocity": 115,
      "chip": "ym2612"
    },
    {
      "channel": 0,
      "note": 70,
      "start": 25.215,
      "duration": 0.0976,
      "velocity": 88,
      "chip": "ym2612"
    },
    {
      "channel": 1,
      "note": 67,
      "start": 25.2158,
      "duration": 0.0976,
      "velocity": 88,
      "chip": "ym2612"
    },
    {
      "channel": 0,
      "note": 72,
      "start": 25.3133,
      "duration": 0.0917,
      "velocity": 88,
      "chip": "ym2612"
    },
    {
      "channel": 1,
      "note": 67,
      "start": 25.3139,
      "duration": 0.0913,
      "velocity": 88,
      "chip": "ym2612"
    },
    {
      "channel": 3,
      "note": 70,
      "start": 25.3146,
      "duration": 0.2045,
      "velocity": 88,
      "chip": "ym2612"
    },
    {
      "channel": 4,
      "note": 67,
      "start": 25.3154,
      "duration": 0.2041,
      "velocity": 88,
      "chip": "ym2612"
    },
    {
      "channel": 2,
      "note": 32,
      "start": 25.3169,
      "duration": 0.199,
      "velocity": 115,
      "chip": "ym2612"
    },
    {
      "channel": 2,
      "note": 32,
      "start": 25.5212,
      "duration": 0.0901,
      "velocity": 115,
      "chip": "ym2612"
    },
    {
      "channel": 0,
      "note": 74,
      "start": 25.6152,
      "duration": 0.6183,
      "velocity": 88,
      "chip": "ym2612"
    },
    {
      "channel": 1,
      "note": 69,
      "start": 25.6161,
      "duration": 0.6181,
      "velocity": 88,
      "chip": "ym2612"
    },
    {
      "channel": 3,
      "note": 50,
      "start": 25.6169,
      "duration": 0.2998,
      "velocity": 88,
      "chip": "ym2612"
    },
    {
      "channel": 4,
      "note": 38,
      "start": 25.6177,
      "duration": 0.2998,
      "velocity": 88,
      "chip": "ym2612"
    },
    {
      "channel": 2,
      "note": 32,
      "start": 25.6222,
      "duration": 0.2907,
      "velocity": 115,
      "chip": "ym2612"
    },
    {
      "channel": 3,
      "note": 69,
      "start": 25.9173,
      "duration": 0.2058,
      "velocity": 88,
      "chip": "ym2612"
    },
    {
      "channel": 4,
      "note": 66,
      "start": 25.9181,
      "duration": 0.2054,
      "velocity": 88,
      "chip": "ym2612"
    },
    {
      "channel": 2,
      "note": 32,
      "start": 25.9195,
      "duration": 0.1997,
      "velocity": 115,
      "chip": "ym2612"
    },
    {
      "channel": 2,
      "note": 32,
      "start": 26.1251,
      "duration": 0.1052,
      "velocity": 115,
      "chip": "ym2612"
    },
    {
      "channel": 0,
      "note": 72,
      "start": 26.2341,
      "duration": 0.6028,
      "velocity": 88,
      "chip": "ym2612"
    },
    {
      "channel": 1,
      "note": 69,
      "start": 26.2347,
      "duration": 0.603,
      "velocity": 88,
      "chip": "ym2612"
    },
    {
      "channel": 3,
      "note": 45,
      "start": 26.2355,
      "duration": 0.3004,
      "velocity": 88,
      "chip": "ym2612"
    },
    {
      "channel": 4,
      "note": 33,
      "start": 26.2362,
      "duration": 0.3005,
      "velocity": 88,
      "chip": "ym2612"
    },
    {
      "channel": 2,
      "note": 32,
      "start": 26.2377,
      "duration": 0.2943,
      "velocity": 115,
      "chip": "ym2612"
    },
    {
      "channel": 3,
      "note": 69,
      "start": 26.5365,
      "duration": 0.2057,
      "velocity": 88,
      "chip": "ym2612"
    },
    {
      "channel": 4,
      "note": 66,
      "start": 26.5374,
      "duration": 0.2052,
      "velocity": 88,
      "chip": "ym2612"
    },
    {
      "channel": 2,
      "note": 32,
      "start": 26.5388,
      "duration": 0.1996,
      "velocity": 115,
      "chip": "ym2612"
    },
    {
      "channel": 2,
      "note": 32,
      "start": 26.7442,
      "duration": 0.0896,
      "velocity": 115,
      "chip": "ym2612"
    },
    {
      "channel": 0,
      "note": 70,
      "start": 26.8376,
      "duration": 0.3008,
      "velocity": 88,
      "chip": "ym2612"
    },
    {
      "channel": 1,
      "note": 67,
      "start": 26.8383,
      "duration": 0.3008,
      "velocity": 88,
      "chip": "ym2612"
    },
    {
      "channel": 3,
      "note": 51,
      "start": 26.8391,
      "duration": 0.301,
      "velocity": 88,
      "chip": "ym2612"
    },
    {
      "channel": 4,
      "note": 39,
      "start": 26.8398,
      "duration": 0.301,
      "velocity": 88,
      "chip": "ym2612"
    },
    {
      "channel": 2,
      "note": 32,
      "start": 26.8442,
      "duration": 0.291,
      "velocity": 115,
      "chip": "ym2612"
    },
    {
      "channel": 0,
      "note": 75,
      "start": 27.139,
      "duration": 0.1074,
      "velocity": 88,
      "chip": "ym2612"
    },
    {
      "channel": 1,
      "note": 70,
      "start": 27.1398,
      "duration": 0.1069,
      "velocity": 88,
      "chip": "ym2612"
    },
    {
      "channel": 3,
      "note": 70,
      "start": 27.1407,
      "duration": 0.2056,
      "velocity": 88,
      "chip": "ym2612"
    },
    {
      "channel": 4,
      "note": 67,
      "start": 27.1414,
      "duration": 0.2052,
      "velocity": 88,
      "chip": "ym2612"
    },
    {
      "channel": 2,
      "note": 32,
      "start": 27.1429,
      "duration": 0.1987,
      "velocity": 115,
      "chip": "ym2612"
    },
    {
      "channel": 0,
      "note": 75,
      "start": 27.3454,
      "duration": 0.2979,
      "velocity": 88,
      "chip": "ym2612"
    },
    {
      "channel": 1,
      "note": 70,
      "start": 27.3462,
      "duration": 0.2979,
      "velocity": 88,
      "chip": "ym2612"
    },
    {
      "channel": 2,
      "note": 32,
      "start": 27.3483,
      "duration": 0.0885,
      "velocity": 115,
      "chip": "ym2612"
    },
    {
      "channel": 3,
      "note": 46,
      "start": 27.4414,
      "duration": 0.3176,
      "velocity": 88,
      "chip": "ym2612"
    },
    {
      "channel": 4,
      "note": 34,
      "start": 27.4421,
      "duration": 0.3176,
      "velocity": 88,
      "chip": "ym2612"
    },
    {
      "channel": 2,
      "note": 32,
      "start": 27.4435,
      "duration": 0.3109,
      "velocity": 115,
      "chip": "ym2612"
    },
    {
      "channel": 0,
      "note": 72,
      "start": 27.6439,
      "duration": 0.1136,
      "velocity": 88,
      "chip": "ym2612"
    },
    {
      "channel": 1,
      "note": 70,
      "start": 27.6446,
      "duration": 0.1138,
      "velocity": 88,
      "chip": "ym2612"
    },
    {
      "channel": 0,
      "note": 75,
      "start": 27.7582,
      "duration": 0.3011,
      "velocity": 88,
      "chip": "ym2612"
    },
    {
      "channel": 1,
      "note": 70,
      "start": 27.7588,
      "duration": 0.3012,
      "velocity": 88,
      "chip": "ym2612"
    },
    {
      "channel": 3,
      "note": 70,
      "start": 27.7596,
      "duration": 0.1891,
      "velocity": 88,
      "chip": "ym2612"
    },
    {
      "channel": 4,
      "note": 67,
      "start": 27.7604,
      "duration": 0.1887,
      "velocity": 88,
      "chip": "ym2612"
    },
    {
      "channel": 2,
      "note": 32,
      "start": 27.7618,
      "duration": 0.1831,
      "velocity": 115,
      "chip": "ym2612"
    },
    {
      "channel": 2,
      "note": 32,
      "start": 27.9507,
      "duration": 0.1054,
      "velocity": 115,
      "chip": "ym2612"
    },
    {
      "channel": 0,
      "note": 74,
      "start": 28.0599,
      "duration": 1.2218,
      "velocity": 88,
      "chip": "ym2612"
    },
    {
      "channel": 1,
      "note": 70,
      "start": 28.0605,
      "duration": 1.2216,
      "velocity": 88,
      "chip": "ym2612"
    },
    {
      "channel": 3,
      "note": 50,
      "start": 28.0614,
      "duration": 0.3002,
      "velocity": 88,
      "chip": "ym2612"
    },
    {
      "channel": 4,
      "note": 38,
      "start": 28.0621,
      "duration": 0.3002,
      "velocity": 88,
      "chip": "ym2612"
    },
    {
      "channel": 2,
      "note": 32,
      "start": 28.0665,
      "duration": 0.2911,
      "velocity": 115,
      "chip": "ym2612"
    },
    {
      "channel": 3,
      "note": 70,
      "start": 28.3622,
      "duration": 0.2056,
      "velocity": 88,
      "chip": "ym2612"
    },
    {
      "channel": 4,
      "note": 65,
      "start": 28.363,
      "duration": 0.2052,
      "velocity": 88,
      "chip": "ym2612"
    },
    {
      "channel": 2,
      "note": 32,
      "start": 28.3644,
      "duration": 0.1996,
      "velocity": 115,
      "chip": "ym2612"
    },
    {
      "channel": 2,
      "note": 32,
      "start": 28.5698,
      "duration": 0.0895,
      "velocity": 115,
      "chip": "ym2612"
    },
    {
      "channel": 3,
      "note": 46,
      "start": 28.6637,
      "duration": 0.3011,
      "velocity": 88,
      "chip": "ym2612"
    },
    {
      "channel": 4,
      "note": 34,
      "start": 28.6645,
      "duration": 0.3011,
      "velocity": 88,
      "chip": "ym2612"
    },
    {
      "channel": 2,
      "note": 32,
      "start": 28.6659,
      "duration": 0.295,
      "velocity": 115,
      "chip": "ym2612"
    },
    {
      "channel": 3,
      "note": 70,
      "start": 28.9654,
      "duration": 0.2062,
      "velocity": 88,
      "chip": "ym2612"
    },
    {
      "channel": 4,
      "note": 65,
      "start": 28.9661,
      "duration": 0.2058,
      "velocity": 88,
      "chip": "ym2612"
    },
    {
      "channel": 2,
      "note": 32,
      "start": 28.9676,
      "duration": 0.2001,
      "velocity": 115,
      "chip": "ym2612"
    },
    {
      "channel": 2,
      "note": 32,
      "start": 29.1736,
      "duration": 0.1049,
      "velocity": 115,
      "chip": "ym2612"
    },
    {
      "channel": 3,
      "note": 51,
      "start": 29.2832,
      "duration": 0.3015,
      "velocity": 88,
      "chip": "ym2612"
    },
    {
      "channel": 4,
      "note": 39,
      "start": 29.2841,
      "duration": 0.3014,
      "velocity": 88,
      "chip": "ym2612"
    },
    {
      "channel": 2,
      "note": 32,
      "start": 29.2886,
      "duration": 0.2915,
      "velocity": 115,
      "chip": "ym2612"
    },
    {
      "channel": 0,
      "note": 70,
      "start": 29.5838,
      "duration": 0.0915,
      "velocity": 88,
      "chip": "ym2612"
    },
    {
      "channel": 1,
      "note": 67,
      "start": 29.5846,
      "duration": 0.0911,
      "velocity": 88,
      "chip": "ym2612"
    },
    {
      "channel": 3,
      "note": 70,
      "start": 29.5854,
      "duration": 0.2058,
      "velocity": 88,
      "chip": "ym2612"
    },
    {
      "channel": 4,
      "note": 67,
      "start": 29.5862,
      "duration": 0.2054,
      "velocity": 88,
      "chip": "ym2612"
    },
    {
      "channel": 2,
      "note": 32,
      "start": 29.5876,
      "duration": 0.1989,
      "velocity": 115,
      "chip": "ym2612"
    },
    {
      "channel": 0,
      "note": 72,
      "start": 29.7903,
      "duration": 0.0945,
      "velocity": 88,
      "chip": "ym2612"
    },
    {
      "channel": 1,
      "note": 67,
      "start": 29.7911,
      "duration": 0.094,
      "velocity": 88,
      "chip": "ym2612"
    },
    {
      "channel": 2,
      "note": 32,
      "start": 29.7932,
      "duration": 0.0885,
      "velocity": 115,
      "chip": "ym2612"
    },
    {
      "channel": 3,
      "note": 46,
      "start": 29.886,
      "duration": 0.3018,
      "velocity": 88,
      "chip": "ym2612"
    },
    {
      "channel": 4,
      "note": 34,
      "start": 29.8868,
      "duration": 0.3018,
      "velocity": 88,
      "chip": "ym2612"
    },
    {
      "channel": 2,
      "note": 32,
      "start": 29.8883,
      "duration": 0.295,
      "velocity": 115,
      "chip": "ym2612"
    },
    {
      "channel": 0,
      "note": 70,
      "start": 30.0887,
      "duration": 0.0976,
      "velocity": 88,
      "chip": "ym2612"
    },
    {
      "channel": 1,
      "note": 67,
      "start": 30.0895,
      "duration": 0.0977,
      "velocity": 88,
      "chip": "ym2612"
    },
    {
      "channel": 0,
      "note": 72,
      "start": 30.187,
      "duration": 0.1076,
      "velocity": 88,
      "chip": "ym2612"
    },
    {
      "channel": 1,
      "note": 67,
      "start": 30.1877,
      "duration": 0.1073,
      "velocity": 88,
      "chip": "ym2612"
    },
    {
      "channel": 3,
      "note": 70,
      "start": 30.1885,
      "duration": 0.2045,
      "velocity": 88,
      "chip": "ym2612"
    },
    {
      "channel": 4,
      "note": 67,
      "start": 30.1892,
      "duration": 0.2041,
      "velocity": 88,
      "chip": "ym2612"
    },
    {
      "channel": 2,
      "note": 32,
      "start": 30.1907,
      "duration": 0.199,
      "velocity": 115,
      "chip": "ym2612"
    },
    {
      "channel": 2,
      "note": 32,
      "start": 30.3949,
      "duration": 0.0902,
      "velocity": 115,
      "chip": "ym2612"
    },
    {
      "channel": 0,
      "note": 73,
      "start": 30.489,
      "duration": 0.6183,
      "velocity": 88,
      "chip": "ym2612"
    },
    {
      "channel": 1,
      "note": 67,
      "start": 30.4898,
      "duration": 0.6182,
      "velocity": 88,
      "chip": "ym2612"
    },
    {
      "channel": 3,
      "note": 52,
      "start": 30.4907,
      "duration": 0.3157,
      "velocity": 88,
      "chip": "ym2612"
    },
    {
      "channel": 4,
      "note": 40,
      "start": 30.4915,
      "duration": 0.3156,
      "velocity": 88,
      "chip": "ym2612"
    },
    {
      "channel": 2,
      "note": 32,
      "start": 30.4959,
      "duration": 0.3066,
      "velocity": 115,
      "chip": "ym2612"
    },
    {
      "channel": 3,
      "note": 72,
      "start": 30.807,
      "duration": 0.1898,
      "velocity": 88,
      "chip": "ym2612"
    },
    {
      "channel": 4,
      "note": 67,
      "start": 30.8078,
      "duration": 0.1894,
      "velocity": 88,
      "chip": "ym2612"
    },
    {
      "channel": 2,
      "note": 32,
      "start": 30.8092,
      "duration": 0.1838,
      "velocity": 115,
      "chip": "ym2612"
    },
    {
      "channel": 2,
      "note": 32,
      "start": 30.9988,
      "duration": 0.1054,
      "velocity": 115,
      "chip": "ym2612"
    },
    {
      "channel": 0,
      "note": 72,
      "start": 31.1078,
      "duration": 0.6027,
      "velocity": 88,
      "chip": "ym2612"
    },
    {
      "channel": 1,
      "note": 67,
      "start": 31.1085,
      "duration": 0.6029,
      "velocity": 88,
      "chip": "ym2612"
    },
    {
      "channel": 3,
      "note": 48,
      "start": 31.1093,
      "duration": 0.3003,
      "velocity": 88,
      "chip": "ym2612"
    },
    {
      "channel": 4,
      "note": 36,
      "start": 31.11,
      "duration": 0.3003,
      "velocity": 88,
      "chip": "ym2612"
    },
    {
      "channel": 2,
      "note": 32,
      "start": 31.1114,
      "duration": 0.2943,
      "velocity": 115,
      "chip": "ym2612"
    },
    {
      "channel": 3,
      "note": 72,
      "start": 31.4102,
      "duration": 0.2057,
      "velocity": 88,
      "chip": "ym2612"
    },
    {
      "channel": 4,
      "note": 67,
      "start": 31.411,
      "duration": 0.2053,
      "velocity": 88,
      "chip": "ym2612"
    },
    {
      "channel": 2,
      "note": 32,
      "start": 31.4124,
      "duration": 0.1997,
      "velocity": 115,
      "chip": "ym2612"
    },
    {
      "channel": 2,
      "note": 32,
      "start": 31.6179,
      "duration": 0.0896,
      "velocity": 115,
      "chip": "ym2612"
    },
    {
      "channel": 0,
      "note": 77,
      "start": 31.7112,
      "duration": 1.2217,
      "velocity": 88,
      "chip": "ym2612"
    },
    {
      "channel": 1,
      "note": 72,
      "start": 31.712,
      "duration": 1.2212,
      "velocity": 88,
      "chip": "ym2612"
    },
    {
      "channel": 3,
      "note": 53,
      "start": 31.7128,
      "duration": 0.3,
      "velocity": 88,
      "chip": "ym2612"
    },
    {
      "channel": 4,
      "note": 41,
      "start": 31.7136,
      "duration": 0.3,
      "velocity": 88,
      "chip": "ym2612"
    },
    {
      "channel": 2,
      "note": 32,
      "start": 31.7179,
      "duration": 0.291,
      "velocity": 115,
      "chip": "ym2612"
    },
    {
      "channel": 3,
      "note": 72,
      "start": 32.0134,
      "duration": 0.2059,
      "velocity": 88,
      "chip": "ym2612"
    },
    {
      "channel": 4,
      "note": 68,
      "start": 32.0142,
      "duration": 0.2054,
      "velocity": 88,
      "chip": "ym2612"
    },
    {
      "channel": 2,
      "note": 32,
      "start": 32.0156,
      "duration": 0.1998,
      "velocity": 115,
      "chip": "ym2612"
    },
    {
      "channel": 2,
      "note": 32,
      "start": 32.2213,
      "duration": 0.1051,
      "velocity": 115,
      "chip": "ym2612"
    },
    {
      "channel": 3,
      "note": 48,
      "start": 32.331,
      "duration": 0.301,
      "velocity": 88,
      "chip": "ym2612"
    },
    {
      "channel": 4,
      "note": 36,
      "start": 32.3316,
      "duration": 0.3011,
      "velocity": 88,
      "chip": "ym2612"
    },
    {
      "channel": 2,
      "note": 32,
      "start": 32.3331,
      "duration": 0.295,
      "velocity": 115,
      "chip": "ym2612"
    },
    {
      "channel": 3,
      "note": 72,
      "start": 32.6326,
      "duration": 0.2058,
      "velocity": 88,
      "chip": "ym2612"
    },
    {
      "channel": 4,
      "note": 68,
      "start": 32.6334,
      "duration": 0.2054,
      "velocity": 88,
      "chip": "ym2612"
    },
    {
      "channel": 2,
      "note": 32,
      "start": 32.6348,
      "duration": 0.1997,
      "velocity": 115,
      "chip": "ym2612"
    },
    {
      "channel": 2,
      "note": 32,
      "start": 32.8403,
      "duration": 0.0895,
      "velocity": 115,
      "chip": "ym2612"
    },
    {
      "channel": 3,
      "note": 53,
      "start": 32.9342,
      "duration": 0.3005,
      "velocity": 88,
      "chip": "ym2612"
    },
    {
      "channel": 4,
      "note": 41,
      "start": 32.9349,
      "duration": 0.3005,
      "velocity": 88,
      "chip": "ym2612"
    },
    {
      "channel": 2,
      "note": 32,
      "start": 32.9393,
      "duration": 0.292,
      "velocity": 115,
      "chip": "ym2612"
    },
    {
      "channel": 3,
      "note": 72,
      "start": 33.2353,
      "duration": 0.2058,
      "velocity": 88,
      "chip": "ym2612"
    },
    {
      "channel": 4,
      "note": 68,
      "start": 33.2361,
      "duration": 0.2053,
      "velocity": 88,
      "chip": "ym2612"
    },
    {
      "channel": 2,
      "note": 32,
      "start": 33.2376,
      "duration": 0.2003,
      "velocity": 115,
      "chip": "ym2612"
    },
    {
      "channel": 2,
      "note": 32,
      "start": 33.443,
      "duration": 0.0899,
      "velocity": 115,
      "chip": "ym2612"
    },
    {
      "channel": 3,
      "note": 51,
      "start": 33.5368,
      "duration": 0.317,
      "velocity": 88,
      "chip": "ym2612"
    },
    {
      "channel": 4,
      "note": 39,
      "start": 33.5377,
      "duration": 0.317,
      "velocity": 88,
      "chip": "ym2612"
    },
    {
      "channel": 2,
      "note": 32,
      "start": 33.5391,
      "duration": 0.3115,
      "velocity": 115,
      "chip": "ym2612"
    },
    {
      "channel": 3,
      "note": 72,
      "start": 33.8545,
      "duration": 0.1897,
      "velocity": 88,
      "chip": "ym2612"
    },
    {
      "channel": 4,
      "note": 68,
      "start": 33.8553,
      "duration": 0.1893,
      "velocity": 88,
      "chip": "ym2612"
    },
    {
      "channel": 2,
      "note": 32,
      "start": 33.8567,
      "duration": 0.1843,
      "velocity": 115,
      "chip": "ym2612"
    },
    {
      "channel": 2,
      "note": 32,
      "start": 34.0462,
      "duration": 0.106,
      "velocity": 115,
      "chip": "ym2612"
    },
    {
      "channel": 3,
      "note": 50,
      "start": 34.1568,
      "duration": 0.3017,
      "velocity": 88,
      "chip": "ym2612"
    },
    {
      "channel": 4,
      "note": 38,
      "start": 34.1576,
      "duration": 0.3017,
      "velocity": 88,
      "chip": "ym2612"
    },
    {
      "channel": 2,
      "note": 32,
      "start": 34.162,
      "duration": 0.2917,
      "velocity": 115,
      "chip": "ym2612"
    },
    {
      "channel": 0,
      "note": 70,
      "start": 34.4575,
      "duration": 0.0915,
      "velocity": 88,
      "chip": "ym2612"
    },
    {
      "channel": 1,
      "note": 65,
      "start": 34.4583,
      "duration": 0.091,
      "velocity": 88,
      "chip": "ym2612"
    },
    {
      "channel": 3,
      "note": 74,
      "start": 34.4591,
      "duration": 0.2057,
      "velocity": 88,
      "chip": "ym2612"
    },
    {
      "channel": 4,
      "note": 70,
      "start": 34.4599,
      "duration": 0.2052,
      "velocity": 88,
      "chip": "ym2612"
    },
    {
      "channel": 2,
      "note": 32,
      "start": 34.4613,
      "duration": 0.1988,
      "velocity": 115,
      "chip": "ym2612"
    },
    {
      "channel": 0,
      "note": 72,
      "start": 34.6638,
      "duration": 0.0946,
      "velocity": 88,
      "chip": "ym2612"
    },
    {
      "channel": 1,
      "note": 65,
      "start": 34.6646,
      "duration": 0.0941,
      "velocity": 88,
      "chip": "ym2612"
    },
    {
      "channel": 2,
      "note": 32,
      "start": 34.6667,
      "duration": 0.0887,
      "velocity": 115,
      "chip": "ym2612"
    },
    {
      "channel": 3,
      "note": 46,
      "start": 34.7598,
      "duration": 0.3017,
      "velocity": 88,
      "chip": "ym2612"
    },
    {
      "channel": 4,
      "note": 34,
      "start": 34.7605,
      "duration": 0.3018,
      "velocity": 88,
      "chip": "ym2612"
    },
    {
      "channel": 2,
      "note": 32,
      "start": 34.7619,
      "duration": 0.295,
      "velocity": 115,
      "chip": "ym2612"
    },
    {
      "channel": 0,
      "note": 70,
      "start": 34.9625,
      "duration": 0.0976,
      "velocity": 88,
      "chip": "ym2612"
    },
    {
      "channel": 1,
      "note": 65,
      "start": 34.9633,
      "duration": 0.0976,
      "velocity": 88,
      "chip": "ym2612"
    },
    {
      "channel": 0,
      "note": 72,
      "start": 35.0607,
      "duration": 0.1075,
      "velocity": 88,
      "chip": "ym2612"
    },
    {
      "channel": 1,
      "note": 65,
      "start": 35.0614,
      "duration": 0.1071,
      "velocity": 88,
      "chip": "ym2612"
    },
    {
      "channel": 3,
      "note": 74,
      "start": 35.0621,
      "duration": 0.2046,
      "velocity": 88,
      "chip": "ym2612"
    },
    {
      "channel": 4,
      "note": 70,
      "start": 35.0629,
      "duration": 0.2042,
      "velocity": 88,
      "chip": "ym2612"
    },
    {
      "channel": 2,
      "note": 32,
      "start": 35.0643,
      "duration": 0.1991,
      "velocity": 115,
      "chip": "ym2612"
    },
    {
      "channel": 2,
      "note": 32,
      "start": 35.2687,
      "duration": 0.1061,
      "velocity": 115,
      "chip": "ym2612"
    },
    {
      "channel": 0,
      "note": 74,
      "start": 35.3785,
      "duration": 0.6024,
      "velocity": 88,
      "chip": "ym2612"
    },
    {
      "channel": 1,
      "note": 70,
      "start": 35.3793,
      "duration": 0.6024,
      "velocity": 88,
      "chip": "ym2612"
    },
    {
      "channel": 3,
      "note": 50,
      "start": 35.3801,
      "duration": 0.2999,
      "velocity": 88,
      "chip": "ym2612"
    },
    {
      "channel": 4,
      "note": 38,
      "start": 35.3808,
      "duration": 0.3,
      "velocity": 88,
      "chip": "ym2612"
    },
    {
      "channel": 2,
      "note": 32,
      "start": 35.3852,
      "duration": 0.291,
      "velocity": 115,
      "chip": "ym2612"
    },
    {
      "channel": 3,
      "note": 74,
      "start": 35.6807,
      "duration": 0.2057,
      "velocity": 88,
      "chip": "ym2612"
    },
    {
      "channel": 4,
      "note": 70,
      "start": 35.6815,
      "duration": 0.2053,
      "velocity": 88,
      "chip": "ym2612"
    },
    {
      "channel": 2,
      "note": 32,
      "start": 35.6829,
      "duration": 0.1997,
      "velocity": 115,
      "chip": "ym2612"
    },
    {
      "channel": 2,
      "note": 32,
      "start": 35.8884,
      "duration": 0.0894,
      "velocity": 115,
      "chip": "ym2612"
    },
    {
      "channel": 0,
      "note": 77,
      "start": 35.9816,
      "duration": 0.6027,
      "velocity": 88,
      "chip": "ym2612"
    },
    {
      "channel": 1,
      "note": 74,
      "start": 35.9824,
      "duration": 0.6027,
      "velocity": 88,
      "chip": "ym2612"
    },
    {
      "channel": 3,
      "note": 53,
      "start": 35.9832,
      "duration": 0.3002,
      "velocity": 88,
      "chip": "ym2612"
    },
    {
      "channel": 4,
      "note": 41,
      "start": 35.9839,
      "duration": 0.3002,
      "velocity": 88,
      "chip": "ym2612"
    },
    {
      "channel": 2,
      "note": 32,
      "start": 35.9854,
      "duration": 0.2941,
      "velocity": 115,
      "chip": "ym2612"
    },
    {
      "channel": 3,
      "note": 74,
      "start": 36.284,
      "duration": 0.2058,
      "velocity": 88,
      "chip": "ym2612"
    },
    {
      "channel": 4,
      "note": 70,
      "start": 36.2848,
      "duration": 0.2054,
      "velocity": 88,
      "chip": "ym2612"
    },
    {
      "channel": 2,
      "note": 32,
      "start": 36.2862,
      "duration": 0.1997,
      "velocity": 115,
      "chip": "ym2612"
    },
    {
      "channel": 2,
      "note": 32,
      "start": 36.4917,
      "duration": 0.0895,
      "velocity": 115,
      "chip": "ym2612"
    },
    {
      "channel": 0,
      "note": 79,
      "start": 36.5849,
      "duration": 0.4088,
      "velocity": 88,
      "chip": "ym2612"
    },
    {
      "channel": 1,
      "note": 75,
      "start": 36.5857,
      "duration": 0.4085,
      "velocity": 88,
      "chip": "ym2612"
    },
    {
      "channel": 3,
      "note": 51,
      "start": 36.5865,
      "duration": 0.316,
      "velocity": 88,
      "chip": "ym2612"
    },
    {
      "channel": 4,
      "note": 39,
      "start": 36.5872,
      "duration": 0.316,
      "velocity": 88,
      "chip": "ym2612"
    },
    {
      "channel": 2,
      "note": 32,
      "start": 36.5917,
      "duration": 0.3069,
      "velocity": 115,
      "chip": "ym2612"
    },
    {
      "channel": 3,
      "note": 75,
      "start": 36.9032,
      "duration": 0.1892,
      "velocity": 88,
      "chip": "ym2612"
    },
    {
      "channel": 4,
      "note": 70,
      "start": 36.9039,
      "duration": 0.1888,
      "velocity": 88,
      "chip": "ym2612"
    },
    {
      "channel": 2,
      "note": 32,
      "start": 36.9054,
      "duration": 0.1836,
      "velocity": 115,
      "chip": "ym2612"
    },
    {
      "channel": 2,
      "note": 32,
      "start": 37.0942,
      "duration": 0.1059,
      "velocity": 115,
      "chip": "ym2612"
    },
    {
      "channel": 0,
      "note": 77,
      "start": 37.2039,
      "duration": 0.2027,
      "velocity": 88,
      "chip": "ym2612"
    },
    {
      "channel": 1,
      "note": 73,
      "start": 37.2047,
      "duration": 0.2026,
      "velocity": 88,
      "chip": "ym2612"
    },
    {
      "channel": 3,
      "note": 49,
      "start": 37.2055,
      "duration": 0.3003,
      "velocity": 88,
      "chip": "ym2612"
    },
    {
      "channel": 4,
      "note": 37,
      "start": 37.2063,
      "duration": 0.3003,
      "velocity": 88,
      "chip": "ym2612"
    },
    {
      "channel": 2,
      "note": 32,
      "start": 37.2077,
      "duration": 0.2942,
      "velocity": 115,
      "chip": "ym2612"
    },
    {
      "channel": 0,
      "note": 79,
      "start": 37.4072,
      "duration": 0.1899,
      "velocity": 88,
      "chip": "ym2612"
    },
    {
      "channel": 1,
      "note": 75,
      "start": 37.408,
      "duration": 0.1899,
      "velocity": 88,
      "chip": "ym2612"
    },
    {
      "channel": 3,
      "note": 75,
      "start": 37.5065,
      "duration": 0.2056,
      "velocity": 88,
      "chip": "ym2612"
    },
    {
      "channel": 4,
      "note": 70,
      "start": 37.5072,
      "duration": 0.2053,
      "velocity": 88,
      "chip": "ym2612"
    },
    {
      "channel": 2,
      "note": 32,
      "start": 37.5086,
      "duration": 0.1997,
      "velocity": 115,
      "chip": "ym2612"
    },
    {
      "channel": 0,
      "note": 77,
      "start": 37.5977,
      "duration": 0.209,
      "velocity": 88,
      "chip": "ym2612"
    },
    {
      "channel": 1,
      "note": 73,
      "start": 37.5985,
      "duration": 0.209,
      "velocity": 88,
      "chip": "ym2612"
    },
    {
      "channel": 2,
      "note": 32,
      "start": 37.7141,
      "duration": 0.0895,
      "velocity": 115,
      "chip": "ym2612"
    },
    {
      "channel": 0,
      "note": 76,
      "start": 37.8074,
      "duration": 1.2217,
      "velocity": 88,
      "chip": "ym2612"
    },
    {
      "channel": 1,
      "note": 72,
      "start": 37.8082,
      "duration": 1.2215,
      "velocity": 88,
      "chip": "ym2612"
    },
    {
      "channel": 3,
      "note": 48,
      "start": 37.8089,
      "duration": 0.3001,
      "velocity": 88,
      "chip": "ym2612"
    },
    {
      "channel": 4,
      "note": 36,
      "start": 37.8097,
      "duration": 0.3001,
      "velocity": 88,
      "chip": "ym2612"
    },
    {
      "channel": 2,
      "note": 32,
      "start": 37.8141,
      "duration": 0.2911,
      "velocity": 115,
      "chip": "ym2612"
    },
    {
      "channel": 3,
      "note": 76,
      "start": 38.1096,
      "duration": 0.2058,
      "velocity": 88,
      "chip": "ym2612"
    },
    {
      "channel": 4,
      "note": 72,
      "start": 38.1105,
      "duration": 0.2053,
      "velocity": 88,
      "chip": "ym2612"
    },
    {
      "channel": 2,
      "note": 32,
      "start": 38.1119,
      "duration": 0.1997,
      "velocity": 115,
      "chip": "ym2612"
    },
    {
      "channel": 2,
      "note": 32,
      "start": 38.3173,
      "duration": 0.1054,
      "velocity": 115,
      "chip": "ym2612"
    },
    {
      "channel": 3,
      "note": 43,
      "start": 38.4271,
      "duration": 0.301,
      "velocity": 88,
      "chip": "ym2612"
    },
    {
      "channel": 4,
      "note": 31,
      "start": 38.4279,
      "duration": 0.301,
      "velocity": 88,
      "chip": "ym2612"
    },
    {
      "channel": 2,
      "note": 32,
      "start": 38.4293,
      "duration": 0.2949,
      "velocity": 115,
      "chip": "ym2612"
    },
    {
      "channel": 3,
      "note": 76,
      "start": 38.7287,
      "duration": 0.2058,
      "velocity": 88,
      "chip": "ym2612"
    },
    {
      "channel": 4,
      "note": 72,
      "start": 38.7295,
      "duration": 0.2054,
      "velocity": 88,
      "chip": "ym2612"
    },
    {
      "channel": 2,
      "note": 32,
      "start": 38.7309,
      "duration": 0.1998,
      "velocity": 115,
      "chip": "ym2612"
    },
    {
      "channel": 2,
      "note": 32,
      "start": 38.9364,
      "duration": 0.0896,
      "velocity": 115,
      "chip": "ym2612"
    },
    {
      "channel": 3,
      "note": 44,
      "start": 39.0306,
      "duration": 0.3016,
      "velocity": 88,
      "chip": "ym2612"
    },
    {
      "channel": 4,
      "note": 32,
      "start": 39.0313,
      "duration": 0.3016,
      "velocity": 88,
      "chip": "ym2612"
    },
    {
      "channel": 2,
      "note": 32,
      "start": 39.0356,
      "duration": 0.2918,
      "velocity": 115,
      "chip": "ym2612"
    },
    {
      "channel": 0,
      "note": 70,
      "start": 39.3312,
      "duration": 0.1074,
      "velocity": 88,
      "chip": "ym2612"
    },
    {
      "channel": 1,
      "note": 65,
      "start": 39.332,
      "duration": 0.1069,
      "velocity": 88,
      "chip": "ym2612"
    },
    {
      "channel": 3,
      "note": 72,
      "start": 39.3328,
      "duration": 0.2058,
      "velocity": 88,
      "chip": "ym2612"
    },
    {
      "channel": 4,
      "note": 68,
      "start": 39.3336,
      "duration": 0.2054,
      "velocity": 88,
      "chip": "ym2612"
    },
    {
      "channel": 2,
      "note": 32,
      "start": 39.3349,
      "duration": 0.1989,
      "velocity": 115,
      "chip": "ym2612"
    },
    {
      "channel": 0,
      "note": 72,
      "start": 39.5377,
      "duration": 0.0949,
      "velocity": 88,
      "chip": "ym2612"
    },
    {
      "channel": 1,
      "note": 65,
      "start": 39.5385,
      "duration": 0.0945,
      "velocity": 88,
      "chip": "ym2612"
    },
    {
      "channel": 2,
      "note": 32,
      "start": 39.5405,
      "duration": 0.0889,
      "velocity": 115,
      "chip": "ym2612"
    },
    {
      "channel": 3,
      "note": 48,
      "start": 39.6339,
      "duration": 0.3173,
      "velocity": 88,
      "chip": "ym2612"
    },
    {
      "channel": 4,
      "note": 36,
      "start": 39.6346,
      "duration": 0.3174,
      "velocity": 88,
      "chip": "ym2612"
    },
    {
      "channel": 2,
      "note": 32,
      "start": 39.636,
      "duration": 0.3107,
      "velocity": 115,
      "chip": "ym2612"
    },
    {
      "channel": 0,
      "note": 70,
      "start": 39.8362,
      "duration": 0.1136,
      "velocity": 88,
      "chip": "ym2612"
    },
    {
      "channel": 1,
      "note": 65,
      "start": 39.837,
      "duration": 0.1136,
      "velocity": 88,
      "chip": "ym2612"
    },
    {
      "channel": 0,
      "note": 72,
      "start": 39.9504,
      "duration": 0.0915,
      "velocity": 88,
      "chip": "ym2612"
    },
    {
      "channel": 1,
      "note": 65,
      "start": 39.951,
      "duration": 0.0912,
      "velocity": 88,
      "chip": "ym2612"
    },
    {
      "channel": 3,
      "note": 72,
      "start": 39.9519,
      "duration": 0.1887,
      "velocity": 88,
      "chip": "ym2612"
    },
    {
      "channel": 4,
      "note": 68,
      "start": 39.9526,
      "duration": 0.1882,
      "velocity": 88,
      "chip": "ym2612"
    },
    {
      "channel": 2,
      "note": 32,
      "start": 39.9541,
      "duration": 0.1831,
      "velocity": 115,
      "chip": "ym2612"
    },
    {
      "channel": 2,
      "note": 32,
      "start": 40.1424,
      "duration": 0.1059,
      "velocity": 115,
      "chip": "ym2612"
    },
    {
      "channel": 0,
      "note": 74,
      "start": 40.2522,
      "duration": 0.6025,
      "velocity": 88,
      "chip": "ym2612"
    },
    {
      "channel": 1,
      "note": 70,
      "start": 40.253,
      "duration": 0.6025,
      "velocity": 88,
      "chip": "ym2612"
    },
    {
      "channel": 3,
      "note": 46,
      "start": 40.2538,
      "duration": 0.3,
      "velocity": 88,
      "chip": "ym2612"
    },
    {
      "channel": 4,
      "note": 34,
      "start": 40.2546,
      "duration": 0.3,
      "velocity": 88,
      "chip": "ym2612"
    },
    {
      "channel": 2,
      "note": 32,
      "start": 40.2589,
      "duration": 0.291,
      "velocity": 115,
      "chip": "ym2612"
    },
    {
      "channel": 3,
      "note": 74,
      "start": 40.5545,
      "duration": 0.2057,
      "velocity": 88,
      "chip": "ym2612"
    },
    {
      "channel": 4,
      "note": 70,
      "start": 40.5552,
      "duration": 0.2053,
      "velocity": 88,
      "chip": "ym2612"
    },
    {
      "channel": 2,
      "note": 32,
      "start": 40.5566,
      "duration": 0.1997,
      "velocity": 115,
      "chip": "ym2612"
    },
    {
      "channel": 2,
      "note": 32,
      "start": 40.7622,
      "duration": 0.0893,
      "velocity": 115,
      "chip": "ym2612"
    },
    {
      "channel": 0,
      "note": 70,
      "start": 40.8553,
      "duration": 0.6187,
      "velocity": 88,
      "chip": "ym2612"
    },
    {
      "channel": 1,
      "note": 65,
      "start": 40.8562,
      "duration": 0.6186,
      "velocity": 88,
      "chip": "ym2612"
    },
    {
      "channel": 3,
      "note": 50,
      "start": 40.857,
      "duration": 0.3001,
      "velocity": 88,
      "chip": "ym2612"
    },
    {
      "channel": 4,
      "note": 38,
      "start": 40.8577,
      "duration": 0.3002,
      "velocity": 88,
      "chip": "ym2612"
    },
    {
      "channel": 2,
      "note": 32,
      "start": 40.8591,
      "duration": 0.294,
      "velocity": 115,
      "chip": "ym2612"
    },
    {
      "channel": 3,
      "note": 74,
      "start": 41.1577,
      "duration": 0.2058,
      "velocity": 88,
      "chip": "ym2612"
    },
    {
      "channel": 4,
      "note": 70,
      "start": 41.1585,
      "duration": 0.2053,
      "velocity": 88,
      "chip": "ym2612"
    },
    {
      "channel": 2,
      "note": 32,
      "start": 41.1599,
      "duration": 0.1997,
      "velocity": 115,
      "chip": "ym2612"
    },
    {
      "channel": 2,
      "note": 32,
      "start": 41.3654,
      "duration": 0.1055,
      "velocity": 115,
      "chip": "ym2612"
    },
    {
      "channel": 0,
      "note": 75,
      "start": 41.4746,
      "duration": 0.1866,
      "velocity": 88,
      "chip": "ym2612"
    },
    {
      "channel": 1,
      "note": 67,
      "start": 41.4754,
      "duration": 0.1862,
      "velocity": 88,
      "chip": "ym2612"
    },
    {
      "channel": 3,
      "note": 63,
      "start": 41.4762,
      "duration": 0.1858,
      "velocity": 88,
      "chip": "ym2612"
    },
    {
      "channel": 4,
      "note": 51,
      "start": 41.4769,
      "duration": 0.1854,
      "velocity": 88,
      "chip": "ym2612"
    },
    {
      "channel": 2,
      "note": 32,
      "start": 41.4813,
      "duration": 0.291,
      "velocity": 115,
      "chip": "ym2612"
    },
    {
      "channel": 0,
      "note": 70,
      "start": 41.7761,
      "duration": 0.0915,
      "velocity": 88,
      "chip": "ym2612"
    },
    {
      "channel": 1,
      "note": 58,
      "start": 41.7768,
      "duration": 0.0912,
      "velocity": 88,
      "chip": "ym2612"
    },
    {
      "channel": 3,
      "note": 58,
      "start": 41.7776,
      "duration": 0.0907,
      "velocity": 88,
      "chip": "ym2612"
    },
    {
      "channel": 4,
      "note": 46,
      "start": 41.7783,
      "duration": 0.0903,
      "velocity": 88,
      "chip": "ym2612"
    },
    {
      "channel": 2,
      "note": 32,
      "start": 41.7797,
      "duration": 0.1989,
      "velocity": 115,
      "chip": "ym2612"
    },
    {
      "channel": 0,
      "note": 72,
      "start": 41.9824,
      "duration": 0.0947,
      "velocity": 88,
      "chip": "ym2612"
    },
    {
      "channel": 1,
      "note": 60,
      "start": 41.9832,
      "duration": 0.0943,
      "velocity": 88,
      "chip": "ym2612"
    },
    {
      "channel": 3,
      "note": 60,
      "start": 41.9839,
      "duration": 0.0939,
      "velocity": 88,
      "chip": "ym2612"
    },
    {
      "channel": 4,
      "note": 48,
      "start": 41.9846,
      "duration": 0.0935,
      "velocity": 88,
      "chip": "ym2612"
    },
    {
      "channel": 2,
      "note": 32,
      "start": 41.9861,
      "duration": 0.0879,
      "velocity": 115,
      "chip": "ym2612"
    },
    {
      "channel": 2,
      "note": 32,
      "start": 42.0797,
      "duration": 0.2963,
      "velocity": 115,
      "chip": "ym2612"
    },
    {
      "channel": 0,
      "note": 70,
      "start": 42.281,
      "duration": 0.0981,
      "velocity": 88,
      "chip": "ym2612"
    },
    {
      "channel": 1,
      "note": 58,
      "start": 42.2818,
      "duration": 0.0981,
      "velocity": 88,
      "chip": "ym2612"
    },
    {
      "channel": 3,
      "note": 58,
      "start": 42.2825,
      "duration": 0.0981,
      "velocity": 88,
      "chip": "ym2612"
    },
    {
      "channel": 4,
      "note": 46,
      "start": 42.2833,
      "duration": 0.0981,
      "velocity": 88,
      "chip": "ym2612"
    },
    {
      "channel": 0,
      "note": 72,
      "start": 42.3797,
      "duration": 0.1069,
      "velocity": 88,
      "chip": "ym2612"
    },
    {
      "channel": 1,
      "note": 60,
      "start": 42.3805,
      "duration": 0.1066,
      "velocity": 88,
      "chip": "ym2612"
    },
    {
      "channel": 3,
      "note": 60,
      "start": 42.3813,
      "duration": 0.1062,
      "velocity": 88,
      "chip": "ym2612"
    },
    {
      "channel": 4,
      "note": 48,
      "start": 42.382,
      "duration": 0.1057,
      "velocity": 88,
      "chip": "ym2612"
    },
    {
      "channel": 2,
      "note": 32,
      "start": 42.3834,
      "duration": 0.1985,
      "velocity": 115,
      "chip": "ym2612"
    },
    {
      "channel": 2,
      "note": 32,
      "start": 42.5866,
      "duration": 0.0907,
      "velocity": 115,
      "chip": "ym2612"
    },
    {
      "channel": 0,
      "note": 63,
      "start": 42.6811,
      "duration": 0.1073,
      "velocity": 88,
      "chip": "ym2612"
    },
    {
      "channel": 1,
      "note": 51,
      "start": 42.6818,
      "duration": 0.1069,
      "velocity": 88,
      "chip": "ym2612"
    },
    {
      "channel": 3,
      "note": 51,
      "start": 42.6826,
      "duration": 0.1064,
      "velocity": 88,
      "chip": "ym2612"
    },
    {
      "channel": 4,
      "note": 39,
      "start": 42.6834,
      "duration": 0.106,
      "velocity": 88,
      "chip": "ym2612"
    },
    {
      "channel": 2,
      "note": 32,
      "start": 42.6878,
      "duration": 0.307,
      "velocity": 115,
      "chip": "ym2612"
    },
    {
      "channel": 3,
      "note": 46,
      "start": 42.9986,
      "duration": 0.0915,
      "velocity": 88,
      "chip": "ym2612"
    },
    {
      "channel": 4,
      "note": 34,
      "start": 42.9994,
      "duration": 0.0912,
      "velocity": 88,
      "chip": "ym2612"
    },
    {
      "channel": 2,
      "note": 32,
      "start": 43.0008,
      "duration": 0.1845,
      "velocity": 115,
      "chip": "ym2612"
    },
    {
      "channel": 2,
      "note": 32,
      "start": 43.19,
      "duration": 0.1063,
      "velocity": 115,
      "chip": "ym2612"
    },
    {
      "channel": 3,
      "note": 48,
      "start": 43.3003,
      "duration": 0.0917,
      "velocity": 88,
      "chip": "ym2612"
    },
    {
      "channel": 4,
      "note": 36,
      "start": 43.301,
      "duration": 0.0912,
      "velocity": 88,
      "chip": "ym2612"
    },
    {
      "channel": 2,
      "note": 32,
      "start": 43.3024,
      "duration": 0.2955,
      "velocity": 115,
      "chip": "ym2612"
    },
    {
      "channel": 3,
      "note": 50,
      "start": 43.6018,
      "duration": 0.0917,
      "velocity": 88,
      "chip": "ym2612"
    },
    {
      "channel": 4,
      "note": 38,
      "start": 43.6026,
      "duration": 0.0912,
      "velocity": 88,
      "chip": "ym2612"
    },
    {
      "channel": 2,
      "note": 32,
      "start": 43.604,
      "duration": 0.2004,
      "velocity": 115,
      "chip": "ym2612"
    },
    {
      "channel": 2,
      "note": 32,
      "start": 43.8091,
      "duration": 0.0907,
      "velocity": 115,
      "chip": "ym2612"
    },
    {
      "channel": 0,
      "note": 79,
      "start": 43.9037,
      "duration": 0.9198,
      "velocity": 88,
      "chip": "ym2612"
    },
    {
      "channel": 1,
      "note": 76,
      "start": 43.9047,
      "duration": 0.9195,
      "velocity": 88,
      "chip": "ym2612"
    },
    {
      "channel": 3,
      "note": 48,
      "start": 43.9057,
      "duration": 0.2011,
      "velocity": 88,
      "chip": "ym2612"
    },
    {
      "channel": 2,
      "note": 32,
      "start": 43.908,
      "duration": 0.2932,
      "velocity": 115,
      "chip": "ym2612"
    },
    {
      "channel": 4,
      "note": 76,
      "start": 44.2059,
      "duration": 0.1074,
      "velocity": 88,
      "chip": "ym2612"
    },
    {
      "channel": 5,
      "note": 72,
      "start": 44.2068,
      "duration": 0.1069,
      "velocity": 88,
      "chip": "ym2612"
    },
    {
      "channel": 2,
      "note": 32,
      "start": 44.2081,
      "duration": 0.1996,
      "velocity": 115,
      "chip": "ym2612"
    },
    {
      "channel": 4,
      "note": 77,
      "start": 44.4122,
      "duration": 0.1112,
      "velocity": 88,
      "chip": "ym2612"
    },
    {
      "channel": 5,
      "note": 72,
      "start": 44.413,
      "duration": 0.1108,
      "velocity": 88,
      "chip": "ym2612"
    },
    {
      "channel": 2,
      "note": 32,
      "start": 44.4143,
      "duration": 0.1045,
      "velocity": 115,
      "chip": "ym2612"
    },
    {
      "channel": 3,
      "note": 43,
      "start": 44.5233,
      "duration": 0.1867,
      "velocity": 88,
      "chip": "ym2612"
    },
    {
      "channel": 2,
      "note": 32,
      "start": 44.5254,
      "duration": 0.295,
      "velocity": 115,
      "chip": "ym2612"
    },
    {
      "channel": 4,
      "note": 76,
      "start": 44.711,
      "duration": 0.1141,
      "velocity": 88,
      "chip": "ym2612"
    },
    {
      "channel": 5,
      "note": 72,
      "start": 44.7118,
      "duration": 0.1141,
      "velocity": 88,
      "chip": "ym2612"
    },
    {
      "channel": 0,
      "note": 72,
      "start": 44.8241,
      "duration": 0.0915,
      "velocity": 88,
      "chip": "ym2612"
    },
    {
      "channel": 1,
      "note": 67,
      "start": 44.8249,
      "duration": 0.0911,
      "velocity": 88,
      "chip": "ym2612"
    },
    {
      "channel": 4,
      "note": 77,
      "start": 44.8258,
      "duration": 0.0907,
      "velocity": 88,
      "chip": "ym2612"
    },
    {
      "channel": 5,
      "note": 72,
      "start": 44.8264,
      "duration": 0.0904,
      "velocity": 88,
      "chip": "ym2612"
    },
    {
      "channel": 2,
      "note": 32,
      "start": 44.8277,
      "duration": 0.1991,
      "velocity": 115,
      "chip": "ym2612"
    },
    {
      "channel": 2,
      "note": 32,
      "start": 45.0315,
      "duration": 0.0906,
      "velocity": 115,
      "chip": "ym2612"
    },
    {
      "channel": 0,
      "note": 72,
      "start": 45.1259,
      "duration": 0.6026,
      "velocity": 88,
      "chip": "ym2612"
    },
    {
      "channel": 1,
      "note": 67,
      "start": 45.1267,
      "duration": 0.6025,
      "velocity": 88,
      "chip": "ym2612"
    },
    {
      "channel": 3,
      "note": 48,
      "start": 45.1274,
      "duration": 0.2018,
      "velocity": 88,
      "chip": "ym2612"
    },
    {
      "channel": 4,
      "note": 76,
      "start": 45.1282,
      "duration": 0.0903,
      "velocity": 88,
      "chip": "ym2612"
    },
    {
      "channel": 5,
      "note": 72,
      "start": 45.1292,
      "duration": 0.0896,
      "velocity": 88,
      "chip": "ym2612"
    },
    {
      "channel": 2,
      "note": 32,
      "start": 45.1305,
      "duration": 0.2931,
      "velocity": 115,
      "chip": "ym2612"
    },
    {
      "channel": 4,
      "note": 77,
      "start": 45.3302,
      "duration": 0.0974,
      "velocity": 88,
      "chip": "ym2612"
    },
    {
      "channel": 5,
      "note": 72,
      "start": 45.331,
      "duration": 0.0969,
      "velocity": 88,
      "chip": "ym2612"
    },
    {
      "channel": 2,
      "note": 32,
      "start": 45.4294,
      "duration": 0.2006,
      "velocity": 115,
      "chip": "ym2612"
    },
    {
      "channel": 4,
      "note": 76,
      "start": 45.6346,
      "duration": 0.0962,
      "velocity": 88,
      "chip": "ym2612"
    },
    {
      "channel": 5,
      "note": 72,
      "start": 45.6353,
      "duration": 0.0962,
      "velocity": 88,
      "chip": "ym2612"
    },
    {
      "channel": 2,
      "note": 32,
      "start": 45.6367,
      "duration": 0.0887,
      "velocity": 115,
      "chip": "ym2612"
    },
    {
      "channel": 0,
      "note": 79,
      "start": 45.7291,
      "duration": 0.6185,
      "velocity": 88,
      "chip": "ym2612"
    },
    {
      "channel": 1,
      "note": 76,
      "start": 45.7299,
      "duration": 0.6186,
      "velocity": 88,
      "chip": "ym2612"
    },
    {
      "channel": 3,
      "note": 48,
      "start": 45.7306,
      "duration": 0.2018,
      "velocity": 88,
      "chip": "ym2612"
    },
    {
      "channel": 4,
      "note": 77,
      "start": 45.7314,
      "duration": 0.1064,
      "velocity": 88,
      "chip": "ym2612"
    },
    {
      "channel": 5,
      "note": 72,
      "start": 45.732,
      "duration": 0.1061,
      "velocity": 88,
      "chip": "ym2612"
    },
    {
      "channel": 2,
      "note": 32,
      "start": 45.7334,
      "duration": 0.3094,
      "velocity": 115,
      "chip": "ym2612"
    },
    {
      "channel": 3,
      "note": 52,
      "start": 46.0472,
      "duration": 0.1903,
      "velocity": 88,
      "chip": "ym2612"
    },
    {
      "channel": 4,
      "note": 76,
      "start": 46.048,
      "duration": 0.0912,
      "velocity": 88,
      "chip": "ym2612"
    },
    {
      "channel": 5,
      "note": 72,
      "start": 46.0489,
      "duration": 0.0906,
      "velocity": 88,
      "chip": "ym2612"
    },
    {
      "channel": 2,
      "note": 32,
      "start": 46.0502,
      "duration": 0.1834,
      "velocity": 115,
      "chip": "ym2612"
    },
    {
      "channel": 2,
      "note": 32,
      "start": 46.2392,
      "duration": 0.1053,
      "velocity": 115,
      "chip": "ym2612"
    },
    {
      "channel": 0,
      "note": 77,
      "start": 46.3483,
      "duration": 0.0914,
      "velocity": 88,
      "chip": "ym2612"
    },
    {
      "channel": 1,
      "note": 72,
      "start": 46.3491,
      "duration": 0.0909,
      "velocity": 88,
      "chip": "ym2612"
    },
    {
      "channel": 3,
      "note": 53,
      "start": 46.3498,
      "duration": 0.2025,
      "velocity": 88,
      "chip": "ym2612"
    },
    {
      "channel": 4,
      "note": 76,
      "start": 46.3504,
      "duration": 0.2995,
      "velocity": 88,
      "chip": "ym2612"
    },
    {
      "channel": 2,
      "note": 32,
      "start": 46.3522,
      "duration": 0.2939,
      "velocity": 115,
      "chip": "ym2612"
    },
    {
      "channel": 0,
      "note": 79,
      "start": 46.5514,
      "duration": 0.0978,
      "velocity": 88,
      "chip": "ym2612"
    },
    {
      "channel": 1,
      "note": 72,
      "start": 46.5522,
      "duration": 0.0973,
      "velocity": 88,
      "chip": "ym2612"
    },
    {
      "channel": 4,
      "note": 77,
      "start": 46.6505,
      "duration": 0.0911,
      "velocity": 88,
      "chip": "ym2612"
    },
    {
      "channel": 5,
      "note": 72,
      "start": 46.6514,
      "duration": 0.0905,
      "velocity": 88,
      "chip": "ym2612"
    },
    {
      "channel": 2,
      "note": 32,
      "start": 46.6528,
      "duration": 0.1996,
      "velocity": 115,
      "chip": "ym2612"
    },
    {
      "channel": 0,
      "note": 77,
      "start": 46.8562,
      "duration": 0.0946,
      "velocity": 88,
      "chip": "ym2612"
    },
    {
      "channel": 1,
      "note": 72,
      "start": 46.857,
      "duration": 0.0946,
      "velocity": 88,
      "chip": "ym2612"
    },
    {
      "channel": 4,
      "note": 79,
      "start": 46.8578,
      "duration": 0.0951,
      "velocity": 88,
      "chip": "ym2612"
    },
    {
      "channel": 5,
      "note": 72,
      "start": 46.8586,
      "duration": 0.0946,
      "velocity": 88,
      "chip": "ym2612"
    },
    {
      "channel": 2,
      "note": 32,
      "start": 46.86,
      "duration": 0.0877,
      "velocity": 115,
      "chip": "ym2612"
    },
    {
      "channel": 0,
      "note": 79,
      "start": 46.9514,
      "duration": 0.1076,
      "velocity": 88,
      "chip": "ym2612"
    },
    {
      "channel": 1,
      "note": 72,
      "start": 46.952,
      "duration": 0.1073,
      "velocity": 88,
      "chip": "ym2612"
    },
    {
      "channel": 3,
      "note": 48,
      "start": 46.9528,
      "duration": 0.2015,
      "velocity": 88,
      "chip": "ym2612"
    },
    {
      "channel": 2,
      "note": 32,
      "start": 46.9549,
      "duration": 0.2945,
      "velocity": 115,
      "chip": "ym2612"
    },
    {
      "channel": 4,
      "note": 77,
      "start": 47.1552,
      "duration": 0.0989,
      "velocity": 88,
      "chip": "ym2612"
    },
    {
      "channel": 5,
      "note": 72,
      "start": 47.156,
      "duration": 0.0989,
      "velocity": 88,
      "chip": "ym2612"
    },
    {
      "channel": 0,
      "note": 77,
      "start": 47.2531,
      "duration": 1.5236,
      "velocity": 88,
      "chip": "ym2612"
    },
    {
      "channel": 1,
      "note": 72,
      "start": 47.2539,
      "duration": 1.5237,
      "velocity": 88,
      "chip": "ym2612"
    },
    {
      "channel": 4,
      "note": 79,
      "start": 47.2548,
      "duration": 0.1065,
      "velocity": 88,
      "chip": "ym2612"
    },
    {
      "channel": 5,
      "note": 72,
      "start": 47.2554,
      "duration": 0.1063,
      "velocity": 88,
      "chip": "ym2612"
    },
    {
      "channel": 2,
      "note": 32,
      "start": 47.2568,
      "duration": 0.1988,
      "velocity": 115,
      "chip": "ym2612"
    },
    {
      "channel": 2,
      "note": 32,
      "start": 47.4609,
      "duration": 0.106,
      "velocity": 115,
      "chip": "ym2612"
    },
    {
      "channel": 3,
      "note": 53,
      "start": 47.5719,
      "duration": 0.1862,
      "velocity": 88,
      "chip": "ym2612"
    },
    {
      "channel": 4,
      "note": 77,
      "start": 47.5727,
      "duration": 0.0906,
      "velocity": 88,
      "chip": "ym2612"
    },
    {
      "channel": 5,
      "note": 72,
      "start": 47.5736,
      "duration": 0.09,
      "velocity": 88,
      "chip": "ym2612"
    },
    {
      "channel": 2,
      "note": 32,
      "start": 47.575,
      "duration": 0.2935,
      "velocity": 115,
      "chip": "ym2612"
    },
    {
      "channel": 4,
      "note": 79,
      "start": 47.7591,
      "duration": 0.1134,
      "velocity": 88,
      "chip": "ym2612"
    },
    {
      "channel": 5,
      "note": 72,
      "start": 47.7598,
      "duration": 0.113,
      "velocity": 88,
      "chip": "ym2612"
    },
    {
      "channel": 2,
      "note": 32,
      "start": 47.8743,
      "duration": 0.2004,
      "velocity": 115,
      "chip": "ym2612"
    },
    {
      "channel": 4,
      "note": 77,
      "start": 48.0793,
      "duration": 0.0955,
      "velocity": 88,
      "chip": "ym2612"
    },
    {
      "channel": 5,
      "note": 72,
      "start": 48.0802,
      "duration": 0.0954,
      "velocity": 88,
      "chip": "ym2612"
    },
    {
      "channel": 2,
      "note": 32,
      "start": 48.0815,
      "duration": 0.0886,
      "velocity": 115,
      "chip": "ym2612"
    },
    {
      "channel": 3,
      "note": 53,
      "start": 48.1746,
      "duration": 0.2025,
      "velocity": 88,
      "chip": "ym2612"
    },
    {
      "channel": 4,
      "note": 79,
      "start": 48.1754,
      "duration": 0.0912,
      "velocity": 88,
      "chip": "ym2612"
    },
    {
      "channel": 5,
      "note": 72,
      "start": 48.1761,
      "duration": 0.0909,
      "velocity": 88,
      "chip": "ym2612"
    },
    {
      "channel": 2,
      "note": 32,
      "start": 48.1774,
      "duration": 0.2943,
      "velocity": 115,
      "chip": "ym2612"
    },
    {
      "channel": 3,
      "note": 51,
      "start": 48.4761,
      "duration": 0.2059,
      "velocity": 88,
      "chip": "ym2612"
    },
    {
      "channel": 4,
      "note": 77,
      "start": 48.4769,
      "duration": 0.1071,
      "velocity": 88,
      "chip": "ym2612"
    },
    {
      "channel": 5,
      "note": 72,
      "start": 48.4778,
      "duration": 0.1066,
      "velocity": 88,
      "chip": "ym2612"
    },
    {
      "channel": 2,
      "note": 32,
      "start": 48.4791,
      "duration": 0.199,
      "velocity": 115,
      "chip": "ym2612"
    },
    {
      "channel": 2,
      "note": 32,
      "start": 48.6837,
      "duration": 0.0898,
      "velocity": 115,
      "chip": "ym2612"
    },
    {
      "channel": 0,
      "note": 77,
      "start": 48.7773,
      "duration": 0.9199,
      "velocity": 88,
      "chip": "ym2612"
    },
    {
      "channel": 1,
      "note": 74,
      "start": 48.7782,
      "duration": 0.9198,
      "velocity": 88,
      "chip": "ym2612"
    },
    {
      "channel": 3,
      "note": 50,
      "start": 48.779,
      "duration": 0.2015,
      "velocity": 88,
      "chip": "ym2612"
    },
    {
      "channel": 4,
      "note": 77,
      "start": 48.7798,
      "duration": 0.315,
      "velocity": 88,
      "chip": "ym2612"
    },
    {
      "channel": 2,
      "note": 32,
      "start": 48.7815,
      "duration": 0.3093,
      "velocity": 115,
      "chip": "ym2612"
    },
    {
      "channel": 4,
      "note": 74,
      "start": 49.0954,
      "duration": 0.0915,
      "velocity": 88,
      "chip": "ym2612"
    },
    {
      "channel": 5,
      "note": 70,
      "start": 49.0962,
      "duration": 0.0912,
      "velocity": 88,
      "chip": "ym2612"
    },
    {
      "channel": 2,
      "note": 32,
      "start": 49.0976,
      "duration": 0.1838,
      "velocity": 115,
      "chip": "ym2612"
    },
    {
      "channel": 4,
      "note": 75,
      "start": 49.2859,
      "duration": 0.1112,
      "velocity": 88,
      "chip": "ym2612"
    },
    {
      "channel": 5,
      "note": 70,
      "start": 49.2867,
      "duration": 0.1107,
      "velocity": 88,
      "chip": "ym2612"
    },
    {
      "channel": 2,
      "note": 32,
      "start": 49.2881,
      "duration": 0.1044,
      "velocity": 115,
      "chip": "ym2612"
    },
    {
      "channel": 3,
      "note": 46,
      "start": 49.397,
      "duration": 0.2027,
      "velocity": 88,
      "chip": "ym2612"
    },
    {
      "channel": 2,
      "note": 32,
      "start": 49.3989,
      "duration": 0.2952,
      "velocity": 115,
      "chip": "ym2612"
    },
    {
      "channel": 4,
      "note": 74,
      "start": 49.6006,
      "duration": 0.0983,
      "velocity": 88,
      "chip": "ym2612"
    },
    {
      "channel": 5,
      "note": 70,
      "start": 49.6014,
      "duration": 0.0983,
      "velocity": 88,
      "chip": "ym2612"
    },
    {
      "channel": 0,
      "note": 70,
      "start": 49.6979,
      "duration": 0.0916,
      "velocity": 88,
      "chip": "ym2612"
    },
    {
      "channel": 1,
      "note": 65,
      "start": 49.6987,
      "duration": 0.0911,
      "velocity": 88,
      "chip": "ym2612"
    },
    {
      "channel": 4,
      "note": 75,
      "start": 49.6995,
      "duration": 0.0907,
      "velocity": 88,
      "chip": "ym2612"
    },
    {
      "channel": 5,
      "note": 70,
      "start": 49.7002,
      "duration": 0.0904,
      "velocity": 88,
      "chip": "ym2612"
    },
    {
      "channel": 2,
      "note": 32,
      "start": 49.7015,
      "duration": 0.199,
      "velocity": 115,
      "chip": "ym2612"
    },
    {
      "channel": 2,
      "note": 32,
      "start": 49.9052,
      "duration": 0.0906,
      "velocity": 115,
      "chip": "ym2612"
    },
    {
      "channel": 0,
      "note": 70,
      "start": 49.9996,
      "duration": 0.6184,
      "velocity": 88,
      "chip": "ym2612"
    },
    {
      "channel": 1,
      "note": 65,
      "start": 50.0003,
      "duration": 0.6184,
      "velocity": 88,
      "chip": "ym2612"
    },
    {
      "channel": 3,
      "note": 50,
      "start": 50.0011,
      "duration": 0.2018,
      "velocity": 88,
      "chip": "ym2612"
    },
    {
      "channel": 4,
      "note": 74,
      "start": 50.0019,
      "duration": 0.1062,
      "velocity": 88,
      "chip": "ym2612"
    },
    {
      "channel": 5,
      "note": 70,
      "start": 50.0028,
      "duration": 0.1057,
      "velocity": 88,
      "chip": "ym2612"
    },
    {
      "channel": 2,
      "note": 32,
      "start": 50.0042,
      "duration": 0.2932,
      "velocity": 115,
      "chip": "ym2612"
    },
    {
      "channel": 4,
      "note": 75,
      "start": 50.2039,
      "duration": 0.0975,
      "velocity": 88,
      "chip": "ym2612"
    },
    {
      "channel": 5,
      "note": 70,
      "start": 50.2047,
      "duration": 0.0971,
      "velocity": 88,
      "chip": "ym2612"
    },
    {
      "channel": 2,
      "note": 32,
      "start": 50.3033,
      "duration": 0.2005,
      "velocity": 115,
      "chip": "ym2612"
    },
    {
      "channel": 4,
      "note": 74,
      "start": 50.5084,
      "duration": 0.1118,
      "velocity": 88,
      "chip": "ym2612"
    },
    {
      "channel": 5,
      "note": 70,
      "start": 50.5092,
      "duration": 0.1119,
      "velocity": 88,
      "chip": "ym2612"
    },
    {
      "channel": 2,
      "note": 32,
      "start": 50.5105,
      "duration": 0.1043,
      "velocity": 115,
      "chip": "ym2612"
    },
    {
      "channel": 0,
      "note": 77,
      "start": 50.6185,
      "duration": 0.6029,
      "velocity": 88,
      "chip": "ym2612"
    },
    {
      "channel": 1,
      "note": 74,
      "start": 50.6194,
      "duration": 0.6029,
      "velocity": 88,
      "chip": "ym2612"
    },
    {
      "channel": 3,
      "note": 48,
      "start": 50.6201,
      "duration": 0.1861,
      "velocity": 88,
      "chip": "ym2612"
    },
    {
      "channel": 4,
      "note": 75,
      "start": 50.621,
      "duration": 0.0905,
      "velocity": 88,
      "chip": "ym2612"
    },
    {
      "channel": 5,
      "note": 70,
      "start": 50.6215,
      "duration": 0.0902,
      "velocity": 88,
      "chip": "ym2612"
    },
    {
      "channel": 2,
      "note": 32,
      "start": 50.6229,
      "duration": 0.2936,
      "velocity": 115,
      "chip": "ym2612"
    },
    {
      "channel": 3,
      "note": 50,
      "start": 50.921,
      "duration": 0.2058,
      "velocity": 88,
      "chip": "ym2612"
    },
    {
      "channel": 4,
      "note": 74,
      "start": 50.9218,
      "duration": 0.0911,
      "velocity": 88,
      "chip": "ym2612"
    },
    {
      "channel": 5,
      "note": 70,
      "start": 50.9227,
      "duration": 0.0905,
      "velocity": 88,
      "chip": "ym2612"
    },
    {
      "channel": 2,
      "note": 32,
      "start": 50.924,
      "duration": 0.1989,
      "velocity": 115,
      "chip": "ym2612"
    },
    {
      "channel": 2,
      "note": 32,
      "start": 51.1285,
      "duration": 0.0898,
      "velocity": 115,
      "chip": "ym2612"
    },
    {
      "channel": 0,
      "note": 75,
      "start": 51.2221,
      "duration": 0.4088,
      "velocity": 88,
      "chip": "ym2612"
    },
    {
      "channel": 1,
      "note": 70,
      "start": 51.2229,
      "duration": 0.4083,
      "velocity": 88,
      "chip": "ym2612"
    },
    {
      "channel": 3,
      "note": 51,
      "start": 51.2237,
      "duration": 0.2017,
      "velocity": 88,
      "chip": "ym2612"
    },
    {
      "channel": 4,
      "note": 74,
      "start": 51.2243,
      "duration": 0.2995,
      "velocity": 88,
      "chip": "ym2612"
    },
    {
      "channel": 2,
      "note": 32,
      "start": 51.2261,
      "duration": 0.2937,
      "velocity": 115,
      "chip": "ym2612"
    },
    {
      "channel": 4,
      "note": 75,
      "start": 51.5244,
      "duration": 0.1072,
      "velocity": 88,
      "chip": "ym2612"
    },
    {
      "channel": 5,
      "note": 70,
      "start": 51.5251,
      "duration": 0.1068,
      "velocity": 88,
      "chip": "ym2612"
    },
    {
      "channel": 2,
      "note": 32,
      "start": 51.5265,
      "duration": 0.1998,
      "velocity": 115,
      "chip": "ym2612"
    },
    {
      "channel": 0,
      "note": 77,
      "start": 51.73,
      "duration": 0.4121,
      "velocity": 88,
      "chip": "ym2612"
    },
    {
      "channel": 1,
      "note": 70,
      "start": 51.7307,
      "duration": 0.4122,
      "velocity": 88,
      "chip": "ym2612"
    },
    {
      "channel": 4,
      "note": 77,
      "start": 51.7316,
      "duration": 0.0944,
      "velocity": 88,
      "chip": "ym2612"
    },
    {
      "channel": 5,
      "note": 70,
      "start": 51.7324,
      "duration": 0.094,
      "velocity": 88,
      "chip": "ym2612"
    },
    {
      "channel": 2,
      "note": 32,
      "start": 51.7337,
      "duration": 0.0877,
      "velocity": 115,
      "chip": "ym2612"
    },
    {
      "channel": 3,
      "note": 46,
      "start": 51.8259,
      "duration": 0.2028,
      "velocity": 88,
      "chip": "ym2612"
    },
    {
      "channel": 2,
      "note": 32,
      "start": 51.8279,
      "duration": 0.3111,
      "velocity": 115,
      "chip": "ym2612"
    },
    {
      "channel": 4,
      "note": 75,
      "start": 52.0296,
      "duration": 0.114,
      "velocity": 88,
      "chip": "ym2612"
    },
    {
      "channel": 5,
      "note": 70,
      "start": 52.0304,
      "duration": 0.114,
      "velocity": 88,
      "chip": "ym2612"
    },
    {
      "channel": 0,
      "note": 79,
      "start": 52.1427,
      "duration": 1.5236,
      "velocity": 88,
      "chip": "ym2612"
    },
    {
      "channel": 1,
      "note": 70,
      "start": 52.1434,
      "duration": 1.5239,
      "velocity": 88,
      "chip": "ym2612"
    },
    {
      "channel": 4,
      "note": 77,
      "start": 52.1442,
      "duration": 0.0909,
      "velocity": 88,
      "chip": "ym2612"
    },
    {
      "channel": 5,
      "note": 70,
      "start": 52.1448,
      "duration": 0.0906,
      "velocity": 88,
      "chip": "ym2612"
    },
    {
      "channel": 2,
      "note": 32,
      "start": 52.1461,
      "duration": 0.1833,
      "velocity": 115,
      "chip": "ym2612"
    },
    {
      "channel": 2,
      "note": 32,
      "start": 52.3347,
      "duration": 0.1059,
      "velocity": 115,
      "chip": "ym2612"
    },
    {
      "channel": 3,
      "note": 51,
      "start": 52.4455,
      "duration": 0.2022,
      "velocity": 88,
      "chip": "ym2612"
    },
    {
      "channel": 4,
      "note": 75,
      "start": 52.4463,
      "duration": 0.0907,
      "velocity": 88,
      "chip": "ym2612"
    },
    {
      "channel": 5,
      "note": 70,
      "start": 52.4472,
      "duration": 0.0902,
      "velocity": 88,
      "chip": "ym2612"
    },
    {
      "channel": 2,
      "note": 32,
      "start": 52.4485,
      "duration": 0.2938,
      "velocity": 115,
      "chip": "ym2612"
    },
    {
      "channel": 4,
      "note": 77,
      "start": 52.6487,
      "duration": 0.0975,
      "velocity": 88,
      "chip": "ym2612"
    },
    {
      "channel": 5,
      "note": 70,
      "start": 52.6495,
      "duration": 0.0971,
      "velocity": 88,
      "chip": "ym2612"
    },
    {
      "channel": 2,
      "note": 32,
      "start": 52.748,
      "duration": 0.2006,
      "velocity": 115,
      "chip": "ym2612"
    },
    {
      "channel": 4,
      "note": 75,
      "start": 52.9532,
      "duration": 0.0953,
      "velocity": 88,
      "chip": "ym2612"
    },
    {
      "channel": 5,
      "note": 70,
      "start": 52.954,
      "duration": 0.0952,
      "velocity": 88,
      "chip": "ym2612"
    },
    {
      "channel": 2,
      "note": 32,
      "start": 52.9554,
      "duration": 0.0884,
      "velocity": 115,
      "chip": "ym2612"
    },
    {
      "channel": 3,
      "note": 51,
      "start": 53.0483,
      "duration": 0.2027,
      "velocity": 88,
      "chip": "ym2612"
    },
    {
      "channel": 4,
      "note": 77,
      "start": 53.049,
      "duration": 0.1073,
      "velocity": 88,
      "chip": "ym2612"
    },
    {
      "channel": 5,
      "note": 70,
      "start": 53.0496,
      "duration": 0.107,
      "velocity": 88,
      "chip": "ym2612"
    },
    {
      "channel": 2,
      "note": 32,
      "start": 53.051,
      "duration": 0.2945,
      "velocity": 115,
      "chip": "ym2612"
    },
    {
      "channel": 3,
      "note": 50,
      "start": 53.3499,
      "duration": 0.2059,
      "velocity": 88,
      "chip": "ym2612"
    },
    {
      "channel": 4,
      "note": 75,
      "start": 53.3507,
      "duration": 0.1069,
      "velocity": 88,
      "chip": "ym2612"
    },
    {
      "channel": 5,
      "note": 70,
      "start": 53.3516,
      "duration": 0.1064,
      "velocity": 88,
      "chip": "ym2612"
    },
    {
      "channel": 2,
      "note": 32,
      "start": 53.3529,
      "duration": 0.199,
      "velocity": 115,
      "chip": "ym2612"
    },
    {
      "channel": 2,
      "note": 32,
      "start": 53.5575,
      "duration": 0.1056,
      "velocity": 115,
      "chip": "ym2612"
    },
    {
      "channel": 0,
      "note": 79,
      "start": 53.6669,
      "duration": 0.904,
      "velocity": 88,
      "chip": "ym2612"
    },
    {
      "channel": 1,
      "note": 76,
      "start": 53.6678,
      "duration": 0.9039,
      "velocity": 88,
      "chip": "ym2612"
    },
    {
      "channel": 3,
      "note": 48,
      "start": 53.6687,
      "duration": 0.1856,
      "velocity": 88,
      "chip": "ym2612"
    },
    {
      "channel": 2,
      "note": 32,
      "start": 53.671,
      "duration": 0.2937,
      "velocity": 115,
      "chip": "ym2612"
    },
    {
      "channel": 4,
      "note": 76,
      "start": 53.9692,
      "duration": 0.0914,
      "velocity": 88,
      "chip": "ym2612"
    },
    {
      "channel": 5,
      "note": 72,
      "start": 53.9701,
      "duration": 0.0908,
      "velocity": 88,
      "chip": "ym2612"
    },
    {
      "channel": 2,
      "note": 32,
      "start": 53.9715,
      "duration": 0.1995,
      "velocity": 115,
      "chip": "ym2612"
    },
    {
      "channel": 4,
      "note": 77,
      "start": 54.1756,
      "duration": 0.0953,
      "velocity": 88,
      "chip": "ym2612"
    },
    {
      "channel": 5,
      "note": 72,
      "start": 54.1764,
      "duration": 0.0949,
      "velocity": 88,
      "chip": "ym2612"
    },
    {
      "channel": 2,
      "note": 32,
      "start": 54.1777,
      "duration": 0.0885,
      "velocity": 115,
      "chip": "ym2612"
    },
    {
      "channel": 3,
      "note": 43,
      "start": 54.2708,
      "duration": 0.2026,
      "velocity": 88,
      "chip": "ym2612"
    },
    {
      "channel": 2,
      "note": 32,
      "start": 54.2728,
      "duration": 0.295,
      "velocity": 115,
      "chip": "ym2612"
    },
    {
      "channel": 4,
      "note": 76,
      "start": 54.4743,
      "duration": 0.0983,
      "velocity": 88,
      "chip": "ym2612"
    },
    {
      "channel": 5,
      "note": 72,
      "start": 54.4751,
      "duration": 0.0983,
      "velocity": 88,
      "chip": "ym2612"
    },
    {
      "channel": 0,
      "note": 72,
      "start": 54.5716,
      "duration": 0.1074,
      "velocity": 88,
      "chip": "ym2612"
    },
    {
      "channel": 1,
      "note": 67,
      "start": 54.5724,
      "duration": 0.107,
      "velocity": 88,
      "chip": "ym2612"
    },
    {
      "channel": 4,
      "note": 77,
      "start": 54.5732,
      "duration": 0.1066,
      "velocity": 88,
      "chip": "ym2612"
    },
    {
      "channel": 5,
      "note": 72,
      "start": 54.5739,
      "duration": 0.1063,
      "velocity": 88,
      "chip": "ym2612"
    },
    {
      "channel": 2,
      "note": 32,
      "start": 54.5752,
      "duration": 0.199,
      "velocity": 115,
      "chip": "ym2612"
    },
    {
      "channel": 2,
      "note": 32,
      "start": 54.779,
      "duration": 0.0906,
      "velocity": 115,
      "chip": "ym2612"
    },
    {
      "channel": 0,
      "note": 72,
      "start": 54.8734,
      "duration": 0.6183,
      "velocity": 88,
      "chip": "ym2612"
    },
    {
      "channel": 1,
      "note": 67,
      "start": 54.8742,
      "duration": 0.6183,
      "velocity": 88,
      "chip": "ym2612"
    },
    {
      "channel": 3,
      "note": 48,
      "start": 54.875,
      "duration": 0.2017,
      "velocity": 88,
      "chip": "ym2612"
    },
    {
      "channel": 4,
      "note": 76,
      "start": 54.8758,
      "duration": 0.106,
      "velocity": 88,
      "chip": "ym2612"
    },
    {
      "channel": 5,
      "note": 72,
      "start": 54.8767,
      "duration": 0.1054,
      "velocity": 88,
      "chip": "ym2612"
    },
    {
      "channel": 2,
      "note": 32,
      "start": 54.8781,
      "duration": 0.3089,
      "velocity": 115,
      "chip": "ym2612"
    },
    {
      "channel": 4,
      "note": 77,
      "start": 55.0776,
      "duration": 0.1134,
      "velocity": 88,
      "chip": "ym2612"
    },
    {
      "channel": 5,
      "note": 72,
      "start": 55.0783,
      "duration": 0.113,
      "velocity": 88,
      "chip": "ym2612"
    },
    {
      "channel": 2,
      "note": 32,
      "start": 55.1928,
      "duration": 0.1847,
      "velocity": 115,
      "chip": "ym2612"
    },
    {
      "channel": 4,
      "note": 76,
      "start": 55.3822,
      "duration": 0.1119,
      "velocity": 88,
      "chip": "ym2612"
    },
    {
      "channel": 5,
      "note": 72,
      "start": 55.3829,
      "duration": 0.1119,
      "velocity": 88,
      "chip": "ym2612"
    },
    {
      "channel": 2,
      "note": 32,
      "start": 55.3842,
      "duration": 0.1044,
      "velocity": 115,
      "chip": "ym2612"
    },
    {
      "channel": 0,
      "note": 79,
      "start": 55.4924,
      "duration": 0.6027,
      "velocity": 88,
      "chip": "ym2612"
    },
    {
      "channel": 1,
      "note": 76,
      "start": 55.4932,
      "duration": 0.6027,
      "velocity": 88,
      "chip": "ym2612"
    },
    {
      "channel": 3,
      "note": 48,
      "start": 55.4939,
      "duration": 0.2019,
      "velocity": 88,
      "chip": "ym2612"
    },
    {
      "channel": 4,
      "note": 77,
      "start": 55.4947,
      "duration": 0.0904,
      "velocity": 88,
      "chip": "ym2612"
    },
    {
      "channel": 5,
      "note": 72,
      "start": 55.4953,
      "duration": 0.0901,
      "velocity": 88,
      "chip": "ym2612"
    },
    {
      "channel": 2,
      "note": 32,
      "start": 55.4966,
      "duration": 0.2936,
      "velocity": 115,
      "chip": "ym2612"
    },
    {
      "channel": 3,
      "note": 52,
      "start": 55.7947,
      "duration": 0.2058,
      "velocity": 88,
      "chip": "ym2612"
    },
    {
      "channel": 4,
      "note": 76,
      "start": 55.7954,
      "duration": 0.0912,
      "velocity": 88,
      "chip": "ym2612"
    },
    {
      "channel": 5,
      "note": 72,
      "start": 55.7963,
      "duration": 0.0906,
      "velocity": 88,
      "chip": "ym2612"
    },
    {
      "channel": 2,
      "note": 32,
      "start": 55.7977,
      "duration": 0.1989,
      "velocity": 115,
      "chip": "ym2612"
    },
    {
      "channel": 2,
      "note": 32,
      "start": 56.0022,
      "duration": 0.0898,
      "velocity": 115,
      "chip": "ym2612"
    },
    {
      "channel": 0,
      "note": 77,
      "start": 56.0958,
      "duration": 0.1073,
      "velocity": 88,
      "chip": "ym2612"
    },
    {
      "channel": 1,
      "note": 72,
      "start": 56.0965,
      "duration": 0.1069,
      "velocity": 88,
      "chip": "ym2612"
    },
    {
      "channel": 3,
      "note": 53,
      "start": 56.0973,
      "duration": 0.2026,
      "velocity": 88,
      "chip": "ym2612"
    },
    {
      "channel": 4,
      "note": 76,
      "start": 56.0979,
      "duration": 0.2995,
      "velocity": 88,
      "chip": "ym2612"
    },
    {
      "channel": 2,
      "note": 32,
      "start": 56.0997,
      "duration": 0.2939,
      "velocity": 115,
      "chip": "ym2612"
    },
    {
      "channel": 0,
      "note": 79,
      "start": 56.2989,
      "duration": 0.0978,
      "velocity": 88,
      "chip": "ym2612"
    },
    {
      "channel": 1,
      "note": 72,
      "start": 56.2997,
      "duration": 0.0973,
      "velocity": 88,
      "chip": "ym2612"
    },
    {
      "channel": 4,
      "note": 77,
      "start": 56.398,
      "duration": 0.1069,
      "velocity": 88,
      "chip": "ym2612"
    },
    {
      "channel": 5,
      "note": 72,
      "start": 56.3989,
      "duration": 0.1063,
      "velocity": 88,
      "chip": "ym2612"
    },
    {
      "channel": 2,
      "note": 32,
      "start": 56.4003,
      "duration": 0.1996,
      "velocity": 115,
      "chip": "ym2612"
    },
    {
      "channel": 0,
      "note": 77,
      "start": 56.6037,
      "duration": 0.1106,
      "velocity": 88,
      "chip": "ym2612"
    },
    {
      "channel": 1,
      "note": 72,
      "start": 56.6045,
      "duration": 0.1105,
      "velocity": 88,
      "chip": "ym2612"
    },
    {
      "channel": 4,
      "note": 79,
      "start": 56.6054,
      "duration": 0.1111,
      "velocity": 88,
      "chip": "ym2612"
    },
    {
      "channel": 5,
      "note": 72,
      "start": 56.6061,
      "duration": 0.1106,
      "velocity": 88,
      "chip": "ym2612"
    },
    {
      "channel": 2,
      "note": 32,
      "start": 56.6075,
      "duration": 0.1037,
      "velocity": 115,
      "chip": "ym2612"
    },
    {
      "channel": 0,
      "note": 79,
      "start": 56.7149,
      "duration": 0.0915,
      "velocity": 88,
      "chip": "ym2612"
    },
    {
      "channel": 1,
      "note": 72,
      "start": 56.7155,
      "duration": 0.0913,
      "velocity": 88,
      "chip": "ym2612"
    },
    {
      "channel": 3,
      "note": 48,
      "start": 56.7163,
      "duration": 0.1856,
      "velocity": 88,
      "chip": "ym2612"
    },
    {
      "channel": 2,
      "note": 32,
      "start": 56.7183,
      "duration": 0.2944,
      "velocity": 115,
      "chip": "ym2612"
    },
    {
      "channel": 4,
      "note": 77,
      "start": 56.9028,
      "duration": 0.1147,
      "velocity": 88,
      "chip": "ym2612"
    },
    {
      "channel": 5,
      "note": 72,
      "start": 56.9035,
      "duration": 0.1147,
      "velocity": 88,
      "chip": "ym2612"
    },
    {
      "channel": 0,
      "note": 77,
      "start": 57.0164,
      "duration": 1.5265,
      "velocity": 88,
      "chip": "ym2612"
    },
    {
      "channel": 1,
      "note": 72,
      "start": 57.0172,
      "duration": 1.5294,
      "velocity": 88,
      "chip": "ym2612"
    },
    {
      "channel": 4,
      "note": 79,
      "start": 57.018,
      "duration": 0.0908,
      "velocity": 88,
      "chip": "ym2612"
    },
    {
      "channel": 5,
      "note": 72,
      "start": 57.0187,
      "duration": 0.0905,
      "velocity": 88,
      "chip": "ym2612"
    },
    {
      "channel": 2,
      "note": 32,
      "start": 57.02,
      "duration": 0.199,
      "velocity": 115,
      "chip": "ym2612"
    },
    {
      "channel": 2,
      "note": 32,
      "start": 57.2244,
      "duration": 0.09,
      "velocity": 115,
      "chip": "ym2612"
    },
    {
      "channel": 3,
      "note": 53,
      "start": 57.3192,
      "duration": 0.2023,
      "velocity": 88,
      "chip": "ym2612"
    },
    {
      "channel": 4,
      "note": 77,
      "start": 57.3201,
      "duration": 0.0906,
      "velocity": 88,
      "chip": "ym2612"
    },
    {
      "channel": 5,
      "note": 72,
      "start": 57.3211,
      "duration": 0.09,
      "velocity": 88,
      "chip": "ym2612"
    },
    {
      "channel": 2,
      "note": 32,
      "start": 57.3224,
      "duration": 0.2935,
      "velocity": 115,
      "chip": "ym2612"
    },
    {
      "channel": 4,
      "note": 79,
      "start": 57.5225,
      "duration": 0.0974,
      "velocity": 88,
      "chip": "ym2612"
    },
    {
      "channel": 5,
      "note": 72,
      "start": 57.5232,
      "duration": 0.097,
      "velocity": 88,
      "chip": "ym2612"
    },
    {
      "channel": 2,
      "note": 32,
      "start": 57.6218,
      "duration": 0.2004,
      "velocity": 115,
      "chip": "ym2612"
    },
    {
      "channel": 4,
      "note": 77,
      "start": 57.8268,
      "duration": 0.0954,
      "velocity": 88,
      "chip": "ym2612"
    },
    {
      "channel": 5,
      "note": 72,
      "start": 57.8276,
      "duration": 0.0954,
      "velocity": 88,
      "chip": "ym2612"
    },
    {
      "channel": 2,
      "note": 32,
      "start": 57.829,
      "duration": 0.0885,
      "velocity": 115,
      "chip": "ym2612"
    },
    {
      "channel": 3,
      "note": 53,
      "start": 57.9221,
      "duration": 0.2026,
      "velocity": 88,
      "chip": "ym2612"
    },
    {
      "channel": 4,
      "note": 79,
      "start": 57.9229,
      "duration": 0.1071,
      "velocity": 88,
      "chip": "ym2612"
    },
    {
      "channel": 5,
      "note": 72,
      "start": 57.9234,
      "duration": 0.1069,
      "velocity": 88,
      "chip": "ym2612"
    },
    {
      "channel": 2,
      "note": 32,
      "start": 57.9248,
      "duration": 0.3103,
      "velocity": 115,
      "chip": "ym2612"
    },
    {
      "channel": 3,
      "note": 51,
      "start": 58.2397,
      "duration": 0.1898,
      "velocity": 88,
      "chip": "ym2612"
    },
    {
      "channel": 4,
      "note": 77,
      "start": 58.2404,
      "duration": 0.091,
      "velocity": 88,
      "chip": "ym2612"
    },
    {
      "channel": 5,
      "note": 72,
      "start": 58.2413,
      "duration": 0.0905,
      "velocity": 88,
      "chip": "ym2612"
    },
    {
      "channel": 2,
      "note": 32,
      "start": 58.2427,
      "duration": 0.1829,
      "velocity": 115,
      "chip": "ym2612"
    },
    {
      "channel": 2,
      "note": 32,
      "start": 58.4311,
      "duration": 0.1057,
      "velocity": 115,
      "chip": "ym2612"
    },
    {
      "channel": 0,
      "note": 70,
      "start": 58.5436,
      "duration": 0.0884,
      "velocity": 88,
      "chip": "ym2612"
    },
    {
      "channel": 1,
      "note": 65,
      "start": 58.5473,
      "duration": 0.085,
      "velocity": 88,
      "chip": "ym2612"
    },
    {
      "channel": 3,
      "note": 46,
      "start": 58.5508,
      "duration": 0.1939,
      "velocity": 88,
      "chip": "ym2612"
    },
    {
      "channel": 2,
      "note": 32,
      "start": 58.5584,
      "duration": 0.4733,
      "velocity": 115,
      "chip": "ym2612"
    },
    {
      "channel": 0,
      "note": 72,
      "start": 58.7437,
      "duration": 0.0947,
      "velocity": 88,
      "chip": "ym2612"
    },
    {
      "channel": 1,
      "note": 65,
      "start": 58.7445,
      "duration": 0.0943,
      "velocity": 88,
      "chip": "ym2612"
    }
  ]
}