{
  "track_name": "05 - The Cove",
  "duration_sec": 109.483,
  "sample_rate": 44100,
  "note_count": 2046,
  "unique_pitches": 64,
  "pitch_range": 77,
  "avg_note_duration": 0.2772,
  "reconstruction_stats": {
    "notes_reconstructed": 2046,
    "keyon_events": 2046,
    "keyoff_events": 1697,
    "orphan_keyons": 5,
    "unique_pitches": 64,
    "pitch_range": 77,
    "avg_duration_sec": 0.2772
  },
  "metadata": {
    "source": "P\\Puggsy\\05 - The Cove.vgz"
  },
  "notes": [
    {
      "channel": 0,
      "note": 35,
      "start": 0.0,
      "duration": 0.0,
      "velocity": 112,
      "chip": "ym2612"
    },
    {
      "channel": 0,
      "note": 36,
      "start": 0.0,
      "duration": 0.0,
      "velocity": 112,
      "chip": "ym2612"
    },
    {
      "channel": 0,
      "note": 36,
      "start": 0.0,
      "duration": 0.0,
      "velocity": 112,
      "chip": "ym2612"
    },
    {
      "channel": 0,
      "note": 36,
      "start": 0.0,
      "duration": 0.0,
      "velocity": 112,
      "chip": "ym2612"
    },
    {
      "channel": 0,
      "note": 37,
      "start": 0.0,
      "duration": 0.0,
      "velocity": 112,
      "chip": "ym2612"
    },
    {
      "channel": 0,
      "note": 37,
      "start": 0.0,
      "duration": 0.0,
      "velocity": 112,
      "chip": "ym2612"
    },
    {
      "channel": 0,
      "note": 37,
      "start": 0.0,
      "duration": 0.0,
      "velocity": 112,
      "chip": "ym2612"
    },
    {
      "channel": 0,
      "note": 38,
      "start": 0.0,
      "duration": 0.0,
      "velocity": 112,
      "chip": "ym2612"
    },
    {
      "channel": 0,
      "note": 38,
      "start": 0.0,
      "duration": 0.0,
      "velocity": 112,
      "chip": "ym2612"
    },
    {
      "channel": 0,
      "note": 38,
      "start": 0.0,
      "duration": 0.0,
      "velocity": 112,
      "chip": "ym2612"
    },
    {
      "channel": 0,
      "note": 39,
      "start": 0.0,
      "duration": 0.0,
      "velocity": 112,
      "chip": "ym2612"
    },
    {
      "channel": 0,
      "note": 39,
      "start": 0.0,
      "duration": 0.0,
      "velocity": 112,
      "chip": "ym2612"
    },
    {
      "channel": 0,
      "note": 39,
      "start": 0.0,
      "duration": 0.0,
      "velocity": 112,
      "chip": "ym2612"
    },
    {
      "channel": 0,
      "note": 40,
      "start": 0.0,
      "duration": 0.0,
      "velocity": 112,
      "chip": "ym2612"
    },
    {
      "channel": 0,
      "note": 40,
      "start": 0.0,
      "duration": 0.0,
      "velocity": 112,
      "chip": "ym2612"
    },
    {
      "channel": 0,
      "note": 40,
      "start": 0.0,
      "duration": 0.0,
      "velocity": 112,
      "chip": "ym2612"
    },
    {
      "channel": 0,
      "note": 40,
      "start": 0.0,
      "duration": 0.0,
      "velocity": 112,
      "chip": "ym2612"
    },
    {
      "channel": 0,
      "note": 41,
      "start": 0.0,
      "duration": 0.0,
      "velocity": 112,
      "chip": "ym2612"
    },
    {
      "channel": 0,
      "note": 41,
      "start": 0.0,
      "duration": 0.0,
      "velocity": 112,
      "chip": "ym2612"
    },
    {
      "channel": 0,
      "note": 41,
      "start": 0.0,
      "duration": 0.0,
      "velocity": 112,
      "chip": "ym2612"
    },
    {
      "channel": 0,
      "note": 40,
      "start": 0.0,
      "duration": 0.0,
      "velocity": 112,
      "chip": "ym2612"
    },
    {
      "channel": 0,
      "note": 40,
      "start": 0.0,
      "duration": 0.0,
      "velocity": 112,
      "chip": "ym2612"
    },
    {
      "channel": 0,
      "note": 40,
      "start": 0.0,
      "duration": 0.0,
      "velocity": 112,
      "chip": "ym2612"
    },
    {
      "channel": 0,
      "note": 40,
      "start": 0.0,
      "duration": 0.0,
      "velocity": 112,
      "chip": "ym2612"
    },
    {
      "channel": 0,
      "note": 39,
      "start": 0.0,
      "duration": 0.0,
      "velocity": 112,
      "chip": "ym2612"
    },
    {
      "channel": 0,
      "note": 39,
      "start": 0.0,
      "duration": 0.0,
      "velocity": 112,
      "chip": "ym2612"
    },
    {
      "channel": 0,
      "note": 39,
      "start": 0.0,
      "duration": 0.0,
      "velocity": 112,
      "chip": "ym2612"
    },
    {
      "channel": 0,
      "note": 38,
      "start": 0.0,
      "duration": 0.0,
      "velocity": 112,
      "chip": "ym2612"
    },
    {
      "channel": 0,
      "note": 38,
      "start": 0.0,
      "duration": 0.0,
      "velocity": 112,
      "chip": "ym2612"
    },
    {
      "channel": 0,
      "note": 38,
      "start": 0.0,
      "duration": 0.0,
      "velocity": 112,
      "chip": "ym2612"
    },
    {
      "channel": 0,
      "note": 37,
      "start": 0.0,
      "duration": 0.0,
      "velocity": 112,
      "chip": "ym2612"
    },
    {
      "channel": 0,
      "note": 37,
      "start": 0.0,
      "duration": 0.0,
      "velocity": 112,
      "chip": "ym2612"
    },
    {
      "channel": 0,
      "note": 37,
      "start": 0.0,
      "duration": 0.0,
      "velocity": 112,
      "chip": "ym2612"
    },
    {
      "channel": 0,
      "note": 36,
      "start": 0.0,
      "duration": 0.0,
      "velocity": 112,
      "chip": "ym2612"
    },
    {
      "channel": 0,
      "note": 36,
      "start": 0.0,
      "duration": 0.0,
      "velocity": 112,
      "chip": "ym2612"
    },
    {
      "channel": 0,
      "note": 36,
      "start": 0.0,
      "duration": 0.0,
      "velocity": 112,
      "chip": "ym2612"
    },
    {
      "channel": 0,
      "note": 35,
      "start": 0.0,
      "duration": 0.0,
      "velocity": 112,
      "chip": "ym2612"
    },
    {
      "channel": 0,
      "note": 35,
      "start": 0.0,
      "duration": 0.0521,
      "velocity": 103,
      "chip": "ym2612"
    },
    {
      "channel": 1,
      "note": 35,
      "start": 0.0,
      "duration": 0.0,
      "velocity": 112,
      "chip": "ym2612"
    },
    {
      "channel": 1,
      "note": 36,
      "start": 0.0,
      "duration": 0.0,
      "velocity": 112,
      "chip": "ym2612"
    },
    {
      "channel": 1,
      "note": 36,
      "start": 0.0,
      "duration": 0.0,
      "velocity": 112,
      "chip": "ym2612"
    },
    {
      "channel": 1,
      "note": 36,
      "start": 0.0,
      "duration": 0.0,
      "velocity": 112,
      "chip": "ym2612"
    },
    {
      "channel": 1,
      "note": 37,
      "start": 0.0,
      "duration": 0.0,
      "velocity": 112,
      "chip": "ym2612"
    },
    {
      "channel": 1,
      "note": 37,
      "start": 0.0,
      "duration": 0.0,
      "velocity": 112,
      "chip": "ym2612"
    },
    {
      "channel": 1,
      "note": 37,
      "start": 0.0,
      "duration": 0.0,
      "velocity": 112,
      "chip": "ym2612"
    },
    {
      "channel": 1,
      "note": 38,
      "start": 0.0,
      "duration": 0.0,
      "velocity": 112,
      "chip": "ym2612"
    },
    {
      "channel": 1,
      "note": 38,
      "start": 0.0,
      "duration": 0.0,
      "velocity": 112,
      "chip": "ym2612"
    },
    {
      "channel": 1,
      "note": 38,
      "start": 0.0,
      "duration": 0.0,
      "velocity": 112,
      "chip": "ym2612"
    },
    {
      "channel": 1,
      "note": 39,
      "start": 0.0,
      "duration": 0.0,
      "velocity": 112,
      "chip": "ym2612"
    },
    {
      "channel": 1,
      "note": 39,
      "start": 0.0,
      "duration": 0.0,
      "velocity": 112,
      "chip": "ym2612"
    },
    {
      "channel": 1,
      "note": 39,
      "start": 0.0,
      "duration": 0.0,
      "velocity": 112,
      "chip": "ym2612"
    },
    {
      "channel": 1,
      "note": 40,
      "start": 0.0,
      "duration": 0.0,
      "velocity": 112,
      "chip": "ym2612"
    },
    {
      "channel": 1,
      "note": 40,
      "start": 0.0,
      "duration": 0.0,
      "velocity": 112,
      "chip": "ym2612"
    },
    {
      "channel": 1,
      "note": 40,
      "start": 0.0,
      "duration": 0.0,
      "velocity": 112,
      "chip": "ym2612"
    },
    {
      "channel": 1,
      "note": 40,
      "start": 0.0,
      "duration": 0.0,
      "velocity": 112,
      "chip": "ym2612"
    },
    {
      "channel": 1,
      "note": 41,
      "start": 0.0,
      "duration": 0.0,
      "velocity": 112,
      "chip": "ym2612"
    },
    {
      "channel": 1,
      "note": 41,
      "start": 0.0,
      "duration": 0.0,
      "velocity": 112,
      "chip": "ym2612"
    },
    {
      "channel": 1,
      "note": 41,
      "start": 0.0,
      "duration": 0.0,
      "velocity": 112,
      "chip": "ym2612"
    },
    {
      "channel": 1,
      "note": 40,
      "start": 0.0,
      "duration": 0.0,
      "velocity": 112,
      "chip": "ym2612"
    },
    {
      "channel": 1,
      "note": 40,
      "start": 0.0,
      "duration": 0.0,
      "velocity": 112,
      "chip": "ym2612"
    },
    {
      "channel": 1,
      "note": 40,
      "start": 0.0,
      "duration": 0.0,
      "velocity": 112,
      "chip": "ym2612"
    },
    {
      "channel": 1,
      "note": 40,
      "start": 0.0,
      "duration": 0.0,
      "velocity": 112,
      "chip": "ym2612"
    },
    {
      "channel": 1,
      "note": 39,
      "start": 0.0,
      "duration": 0.0,
      "velocity": 112,
      "chip": "ym2612"
    },
    {
      "channel": 1,
      "note": 39,
      "start": 0.0,
      "duration": 0.0,
      "velocity": 112,
      "chip": "ym2612"
    },
    {
      "channel": 1,
      "note": 39,
      "start": 0.0,
      "duration": 0.0,
      "velocity": 112,
      "chip": "ym2612"
    },
    {
      "channel": 1,
      "note": 38,
      "start": 0.0,
      "duration": 0.0,
      "velocity": 112,
      "chip": "ym2612"
    },
    {
      "channel": 1,
      "note": 38,
      "start": 0.0,
      "duration": 0.0,
      "velocity": 112,
      "chip": "ym2612"
    },
    {
      "channel": 1,
      "note": 38,
      "start": 0.0,
      "duration": 0.0,
      "velocity": 112,
      "chip": "ym2612"
    },
    {
      "channel": 1,
      "note": 37,
      "start": 0.0,
      "duration": 0.0,
      "velocity": 112,
      "chip": "ym2612"
    },
    {
      "channel": 1,
      "note": 37,
      "start": 0.0,
      "duration": 0.0,
      "velocity": 112,
      "chip": "ym2612"
    },
    {
      "channel": 1,
      "note": 37,
      "start": 0.0,
      "duration": 0.0,
      "velocity": 112,
      "chip": "ym2612"
    },
    {
      "channel": 1,
      "note": 36,
      "start": 0.0,
      "duration": 0.0,
      "velocity": 112,
      "chip": "ym2612"
    },
    {
      "channel": 1,
      "note": 36,
      "start": 0.0,
      "duration": 0.0,
      "velocity": 112,
      "chip": "ym2612"
    },
    {
      "channel": 1,
      "note": 36,
      "start": 0.0,
      "duration": 0.0,
      "velocity": 112,
      "chip": "ym2612"
    },
    {
      "channel": 1,
      "note": 35,
      "start": 0.0,
      "duration": 0.0,
      "velocity": 112,
      "chip": "ym2612"
    },
    {
      "channel": 1,
      "note": 35,
      "start": 0.0,
      "duration": 0.0542,
      "velocity": 111,
      "chip": "ym2612"
    },
    {
      "channel": 0,
      "note": 64,
      "start": 0.0522,
      "duration": 0.3663,
      "velocity": 103,
      "chip": "ym2612"
    },
    {
      "channel": 1,
      "note": 52,
      "start": 0.0544,
      "duration": 0.596,
      "velocity": 111,
      "chip": "ym2612"
    },
    {
      "channel": 2,
      "note": 64,
      "start": 0.0566,
      "duration": 0.2272,
      "velocity": 95,
      "chip": "ym2612"
    },
    {
      "channel": 3,
      "note": 67,
      "start": 0.1706,
      "duration": 0.2487,
      "velocity": 95,
      "chip": "ym2612"
    },
    {
      "channel": 2,
      "note": 71,
      "start": 0.284,
      "duration": 1.2025,
      "velocity": 95,
      "chip": "ym2612"
    },
    {
      "channel": 4,
      "note": 64,
      "start": 0.2862,
      "duration": 0.3649,
      "velocity": 103,
      "chip": "ym2612"
    },
    {
      "channel": 0,
      "note": 76,
      "start": 0.4188,
      "duration": 0.3499,
      "velocity": 103,
      "chip": "ym2612"
    },
    {
      "channel": 3,
      "note": 76,
      "start": 0.4195,
      "duration": 1.1993,
      "velocity": 95,
      "chip": "ym2612"
    },
    {
      "channel": 1,
      "note": 52,
      "start": 0.6506,
      "duration": 0.1186,
      "velocity": 111,
      "chip": "ym2612"
    },
    {
      "channel": 4,
      "note": 76,
      "start": 0.6513,
      "duration": 0.1202,
      "velocity": 1,
      "chip": "ym2612"
    },
    {
      "channel": 0,
      "note": 76,
      "start": 0.7688,
      "duration": 0.3665,
      "velocity": 103,
      "chip": "ym2612"
    },
    {
      "channel": 1,
      "note": 55,
      "start": 0.7694,
      "duration": 0.5977,
      "velocity": 111,
      "chip": "ym2612"
    },
    {
      "channel": 4,
      "note": 67,
      "start": 0.7717,
      "duration": 0.2471,
      "velocity": 103,
      "chip": "ym2612"
    },
    {
      "channel": 4,
      "note": 76,
      "start": 1.019,
      "duration": 0.3488,
      "velocity": 103,
      "chip": "ym2612"
    },
    {
      "channel": 0,
      "note": 71,
      "start": 1.1354,
      "duration": 0.3499,
      "velocity": 103,
      "chip": "ym2612"
    },
    {
      "channel": 1,
      "note": 55,
      "start": 1.3673,
      "duration": 0.1186,
      "velocity": 111,
      "chip": "ym2612"
    },
    {
      "channel": 4,
      "note": 71,
      "start": 1.368,
      "duration": 0.1207,
      "velocity": 1,
      "chip": "ym2612"
    },
    {
      "channel": 0,
      "note": 66,
      "start": 1.4855,
      "duration": 0.3664,
      "velocity": 103,
      "chip": "ym2612"
    },
    {
      "channel": 1,
      "note": 54,
      "start": 1.4861,
      "duration": 0.5976,
      "velocity": 111,
      "chip": "ym2612"
    },
    {
      "channel": 2,
      "note": 66,
      "start": 1.4867,
      "duration": 0.2471,
      "velocity": 95,
      "chip": "ym2612"
    },
    {
      "channel": 4,
      "note": 67,
      "start": 1.4888,
      "duration": 0.2472,
      "velocity": 103,
      "chip": "ym2612"
    },
    {
      "channel": 3,
      "note": 71,
      "start": 1.619,
      "duration": 0.2337,
      "velocity": 95,
      "chip": "ym2612"
    },
    {
      "channel": 2,
      "note": 75,
      "start": 1.734,
      "duration": 1.2027,
      "velocity": 95,
      "chip": "ym2612"
    },
    {
      "channel": 4,
      "note": 66,
      "start": 1.7361,
      "duration": 0.3483,
      "velocity": 103,
      "chip": "ym2612"
    },
    {
      "channel": 0,
      "note": 78,
      "start": 1.8521,
      "duration": 0.3665,
      "velocity": 103,
      "chip": "ym2612"
    },
    {
      "channel": 3,
      "note": 78,
      "start": 1.8528,
      "duration": 1.1994,
      "velocity": 95,
      "chip": "ym2612"
    },
    {
      "channel": 1,
      "note": 54,
      "start": 2.0839,
      "duration": 0.1352,
      "velocity": 111,
      "chip": "ym2612"
    },
    {
      "channel": 4,
      "note": 78,
      "start": 2.0846,
      "duration": 0.1368,
      "velocity": 1,
      "chip": "ym2612"
    },
    {
      "channel": 0,
      "note": 78,
      "start": 2.2188,
      "duration": 0.3498,
      "velocity": 103,
      "chip": "ym2612"
    },
    {
      "channel": 1,
      "note": 60,
      "start": 2.2194,
      "duration": 0.3498,
      "velocity": 111,
      "chip": "ym2612"
    },
    {
      "channel": 4,
      "note": 67,
      "start": 2.2217,
      "duration": 0.2305,
      "velocity": 103,
      "chip": "ym2612"
    },
    {
      "channel": 4,
      "note": 78,
      "start": 2.4523,
      "duration": 0.3649,
      "velocity": 103,
      "chip": "ym2612"
    },
    {
      "channel": 0,
      "note": 71,
      "start": 2.5688,
      "duration": 0.3667,
      "velocity": 103,
      "chip": "ym2612"
    },
    {
      "channel": 1,
      "note": 59,
      "start": 2.5694,
      "duration": 0.3667,
      "velocity": 111,
      "chip": "ym2612"
    },
    {
      "channel": 4,
      "note": 71,
      "start": 2.8174,
      "duration": 0.3504,
      "velocity": 103,
      "chip": "ym2612"
    },
    {
      "channel": 0,
      "note": 64,
      "start": 2.9356,
      "duration": 0.3497,
      "velocity": 103,
      "chip": "ym2612"
    },
    {
      "channel": 1,
      "note": 52,
      "start": 2.9362,
      "duration": 0.5975,
      "velocity": 111,
      "chip": "ym2612"
    },
    {
      "channel": 2,
      "note": 64,
      "start": 2.9368,
      "duration": 0.2303,
      "velocity": 95,
      "chip": "ym2612"
    },
    {
      "channel": 3,
      "note": 67,
      "start": 3.0523,
      "duration": 0.2337,
      "velocity": 95,
      "chip": "ym2612"
    },
    {
      "channel": 2,
      "note": 71,
      "start": 3.1673,
      "duration": 0.2498,
      "velocity": 95,
      "chip": "ym2612"
    },
    {
      "channel": 4,
      "note": 64,
      "start": 3.168,
      "duration": 0.3669,
      "velocity": 103,
      "chip": "ym2612"
    },
    {
      "channel": 0,
      "note": 76,
      "start": 3.2855,
      "duration": 0.3665,
      "velocity": 103,
      "chip": "ym2612"
    },
    {
      "channel": 3,
      "note": 76,
      "start": 3.2861,
      "duration": 0.2483,
      "velocity": 95,
      "chip": "ym2612"
    },
    {
      "channel": 2,
      "note": 78,
      "start": 3.4173,
      "duration": 0.2359,
      "velocity": 95,
      "chip": "ym2612"
    },
    {
      "channel": 1,
      "note": 52,
      "start": 3.5339,
      "duration": 0.1186,
      "velocity": 111,
      "chip": "ym2612"
    },
    {
      "channel": 3,
      "note": 79,
      "start": 3.5346,
      "duration": 0.3493,
      "velocity": 95,
      "chip": "ym2612"
    },
    {
      "channel": 4,
      "note": 76,
      "start": 3.5351,
      "duration": 0.1202,
      "velocity": 1,
      "chip": "ym2612"
    },
    {
      "channel": 0,
      "note": 76,
      "start": 3.6522,
      "duration": 0.3648,
      "velocity": 103,
      "chip": "ym2612"
    },
    {
      "channel": 1,
      "note": 55,
      "start": 3.6528,
      "duration": 0.5998,
      "velocity": 111,
      "chip": "ym2612"
    },
    {
      "channel": 2,
      "note": 83,
      "start": 3.6533,
      "duration": 0.3644,
      "velocity": 95,
      "chip": "ym2612"
    },
    {
      "channel": 4,
      "note": 79,
      "start": 3.6555,
      "duration": 0.2305,
      "velocity": 103,
      "chip": "ym2612"
    },
    {
      "channel": 3,
      "note": 81,
      "start": 3.8841,
      "duration": 0.3691,
      "velocity": 95,
      "chip": "ym2612"
    },
    {
      "channel": 4,
      "note": 76,
      "start": 3.8862,
      "duration": 0.3676,
      "velocity": 103,
      "chip": "ym2612"
    },
    {
      "channel": 0,
      "note": 79,
      "start": 4.0172,
      "duration": 0.2348,
      "velocity": 103,
      "chip": "ym2612"
    },
    {
      "channel": 2,
      "note": 79,
      "start": 4.0178,
      "duration": 0.3503,
      "velocity": 95,
      "chip": "ym2612"
    },
    {
      "channel": 0,
      "note": 78,
      "start": 4.2522,
      "duration": 0.0649,
      "velocity": 103,
      "chip": "ym2612"
    },
    {
      "channel": 1,
      "note": 55,
      "start": 4.2528,
      "duration": 0.1148,
      "velocity": 111,
      "chip": "ym2612"
    },
    {
      "channel": 3,
      "note": 78,
      "start": 4.2533,
      "duration": 0.2305,
      "velocity": 95,
      "chip": "ym2612"
    },
    {
      "channel": 4,
      "note": 79,
      "start": 4.2539,
      "duration": 0.2305,
      "velocity": 103,
      "chip": "ym2612"
    },
    {
      "channel": 0,
      "note": 79,
      "start": 4.3173,
      "duration": 0.0498,
      "velocity": 103,
      "chip": "ym2612"
    },
    {
      "channel": 0,
      "note": 78,
      "start": 4.3672,
      "duration": 0.2499,
      "velocity": 103,
      "chip": "ym2612"
    },
    {
      "channel": 1,
      "note": 54,
      "start": 4.3678,
      "duration": 0.3666,
      "velocity": 111,
      "chip": "ym2612"
    },
    {
      "channel": 2,
      "note": 75,
      "start": 4.3683,
      "duration": 0.2494,
      "velocity": 95,
      "chip": "ym2612"
    },
    {
      "channel": 3,
      "note": 78,
      "start": 4.4841,
      "duration": 0.251,
      "velocity": 95,
      "chip": "ym2612"
    },
    {
      "channel": 4,
      "note": 78,
      "start": 4.4846,
      "duration": 0.066,
      "velocity": 103,
      "chip": "ym2612"
    },
    {
      "channel": 4,
      "note": 79,
      "start": 4.5508,
      "duration": 0.0675,
      "velocity": 103,
      "chip": "ym2612"
    },
    {
      "channel": 0,
      "note": 77,
      "start": 4.6173,
      "duration": 0.1166,
      "velocity": 103,
      "chip": "ym2612"
    },
    {
      "channel": 2,
      "note": 79,
      "start": 4.6178,
      "duration": 0.2327,
      "velocity": 95,
      "chip": "ym2612"
    },
    {
      "channel": 4,
      "note": 78,
      "start": 4.6185,
      "duration": 0.2327,
      "velocity": 103,
      "chip": "ym2612"
    },
    {
      "channel": 0,
      "note": 78,
      "start": 4.734,
      "duration": 0.233,
      "velocity": 103,
      "chip": "ym2612"
    },
    {
      "channel": 1,
      "note": 57,
      "start": 4.7345,
      "duration": 0.3514,
      "velocity": 111,
      "chip": "ym2612"
    },
    {
      "channel": 3,
      "note": 81,
      "start": 4.7351,
      "duration": 0.2326,
      "velocity": 95,
      "chip": "ym2612"
    },
    {
      "channel": 2,
      "note": 83,
      "start": 4.8507,
      "duration": 0.2358,
      "velocity": 95,
      "chip": "ym2612"
    },
    {
      "channel": 4,
      "note": 77,
      "start": 4.8512,
      "duration": 0.1171,
      "velocity": 103,
      "chip": "ym2612"
    },
    {
      "channel": 0,
      "note": 79,
      "start": 4.9672,
      "duration": 0.1181,
      "velocity": 103,
      "chip": "ym2612"
    },
    {
      "channel": 3,
      "note": 87,
      "start": 4.9679,
      "duration": 0.1192,
      "velocity": 95,
      "chip": "ym2612"
    },
    {
      "channel": 4,
      "note": 78,
      "start": 4.9685,
      "duration": 0.2504,
      "velocity": 103,
      "chip": "ym2612"
    },
    {
      "channel": 0,
      "note": 78,
      "start": 5.0855,
      "duration": 0.3665,
      "velocity": 103,
      "chip": "ym2612"
    },
    {
      "channel": 1,
      "note": 60,
      "start": 5.0861,
      "duration": 0.3665,
      "velocity": 111,
      "chip": "ym2612"
    },
    {
      "channel": 2,
      "note": 90,
      "start": 5.0866,
      "duration": 0.3665,
      "velocity": 95,
      "chip": "ym2612"
    },
    {
      "channel": 3,
      "note": 87,
      "start": 5.0872,
      "duration": 0.3666,
      "velocity": 95,
      "chip": "ym2612"
    },
    {
      "channel": 4,
      "note": 79,
      "start": 5.219,
      "duration": 0.1148,
      "velocity": 103,
      "chip": "ym2612"
    },
    {
      "channel": 4,
      "note": 78,
      "start": 5.3341,
      "duration": 0.2998,
      "velocity": 103,
      "chip": "ym2612"
    },
    {
      "channel": 0,
      "note": 83,
      "start": 5.4522,
      "duration": 0.3666,
      "velocity": 103,
      "chip": "ym2612"
    },
    {
      "channel": 1,
      "note": 59,
      "start": 5.4527,
      "duration": 0.3667,
      "velocity": 111,
      "chip": "ym2612"
    },
    {
      "channel": 2,
      "note": 87,
      "start": 5.4533,
      "duration": 0.3667,
      "velocity": 95,
      "chip": "ym2612"
    },
    {
      "channel": 3,
      "note": 83,
      "start": 5.4538,
      "duration": 0.2983,
      "velocity": 1,
      "chip": "ym2612"
    },
    {
      "channel": 4,
      "note": 83,
      "start": 5.6341,
      "duration": 0.4171,
      "velocity": 103,
      "chip": "ym2612"
    },
    {
      "channel": 3,
      "note": 79,
      "start": 5.7524,
      "duration": 0.1847,
      "velocity": 95,
      "chip": "ym2612"
    },
    {
      "channel": 0,
      "note": 64,
      "start": 5.8189,
      "duration": 0.3497,
      "velocity": 103,
      "chip": "ym2612"
    },
    {
      "channel": 1,
      "note": 52,
      "start": 5.8195,
      "duration": 0.5975,
      "velocity": 111,
      "chip": "ym2612"
    },
    {
      "channel": 2,
      "note": 64,
      "start": 5.8202,
      "duration": 0.2303,
      "velocity": 95,
      "chip": "ym2612"
    },
    {
      "channel": 3,
      "note": 67,
      "start": 5.9372,
      "duration": 0.2321,
      "velocity": 95,
      "chip": "ym2612"
    },
    {
      "channel": 2,
      "note": 71,
      "start": 6.0507,
      "duration": 1.2025,
      "velocity": 95,
      "chip": "ym2612"
    },
    {
      "channel": 4,
      "note": 64,
      "start": 6.0513,
      "duration": 0.3665,
      "velocity": 103,
      "chip": "ym2612"
    },
    {
      "channel": 0,
      "note": 76,
      "start": 6.1688,
      "duration": 0.3665,
      "velocity": 103,
      "chip": "ym2612"
    },
    {
      "channel": 3,
      "note": 76,
      "start": 6.1694,
      "duration": 1.1994,
      "velocity": 95,
      "chip": "ym2612"
    },
    {
      "channel": 1,
      "note": 52,
      "start": 6.4173,
      "duration": 0.1186,
      "velocity": 111,
      "chip": "ym2612"
    },
    {
      "channel": 4,
      "note": 76,
      "start": 6.418,
      "duration": 0.1202,
      "velocity": 1,
      "chip": "ym2612"
    },
    {
      "channel": 0,
      "note": 76,
      "start": 6.5355,
      "duration": 0.3498,
      "velocity": 103,
      "chip": "ym2612"
    },
    {
      "channel": 1,
      "note": 55,
      "start": 6.536,
      "duration": 0.5977,
      "velocity": 111,
      "chip": "ym2612"
    },
    {
      "channel": 4,
      "note": 67,
      "start": 6.5383,
      "duration": 0.2305,
      "velocity": 103,
      "chip": "ym2612"
    },
    {
      "channel": 4,
      "note": 76,
      "start": 6.769,
      "duration": 0.3655,
      "velocity": 103,
      "chip": "ym2612"
    },
    {
      "channel": 0,
      "note": 71,
      "start": 6.8854,
      "duration": 0.3666,
      "velocity": 103,
      "chip": "ym2612"
    },
    {
      "channel": 1,
      "note": 55,
      "start": 7.1339,
      "duration": 0.1186,
      "velocity": 111,
      "chip": "ym2612"
    },
    {
      "channel": 4,
      "note": 71,
      "start": 7.1346,
      "duration": 0.1207,
      "velocity": 1,
      "chip": "ym2612"
    },
    {
      "channel": 0,
      "note": 66,
      "start": 7.2522,
      "duration": 0.3664,
      "velocity": 103,
      "chip": "ym2612"
    },
    {
      "channel": 1,
      "note": 54,
      "start": 7.2528,
      "duration": 0.5976,
      "velocity": 111,
      "chip": "ym2612"
    },
    {
      "channel": 2,
      "note": 66,
      "start": 7.2533,
      "duration": 0.2305,
      "velocity": 95,
      "chip": "ym2612"
    },
    {
      "channel": 4,
      "note": 67,
      "start": 7.2555,
      "duration": 0.2305,
      "velocity": 103,
      "chip": "ym2612"
    },
    {
      "channel": 3,
      "note": 71,
      "start": 7.3689,
      "duration": 0.2504,
      "velocity": 95,
      "chip": "ym2612"
    },
    {
      "channel": 2,
      "note": 75,
      "start": 7.484,
      "duration": 1.2027,
      "velocity": 95,
      "chip": "ym2612"
    },
    {
      "channel": 4,
      "note": 66,
      "start": 7.4861,
      "duration": 0.365,
      "velocity": 103,
      "chip": "ym2612"
    },
    {
      "channel": 0,
      "note": 78,
      "start": 7.6188,
      "duration": 0.3499,
      "velocity": 103,
      "chip": "ym2612"
    },
    {
      "channel": 3,
      "note": 78,
      "start": 7.6194,
      "duration": 1.1994,
      "velocity": 95,
      "chip": "ym2612"
    },
    {
      "channel": 1,
      "note": 54,
      "start": 7.8506,
      "duration": 0.1186,
      "velocity": 111,
      "chip": "ym2612"
    },
    {
      "channel": 4,
      "note": 78,
      "start": 7.8513,
      "duration": 0.1202,
      "velocity": 1,
      "chip": "ym2612"
    },
    {
      "channel": 0,
      "note": 78,
      "start": 7.9688,
      "duration": 0.3665,
      "velocity": 103,
      "chip": "ym2612"
    },
    {
      "channel": 1,
      "note": 60,
      "start": 7.9694,
      "duration": 0.3665,
      "velocity": 111,
      "chip": "ym2612"
    },
    {
      "channel": 4,
      "note": 67,
      "start": 7.9717,
      "duration": 0.2471,
      "velocity": 103,
      "chip": "ym2612"
    },
    {
      "channel": 4,
      "note": 78,
      "start": 8.219,
      "duration": 0.3482,
      "velocity": 103,
      "chip": "ym2612"
    },
    {
      "channel": 0,
      "note": 71,
      "start": 8.3355,
      "duration": 0.35,
      "velocity": 103,
      "chip": "ym2612"
    },
    {
      "channel": 1,
      "note": 59,
      "start": 8.336,
      "duration": 0.3501,
      "velocity": 111,
      "chip": "ym2612"
    },
    {
      "channel": 4,
      "note": 71,
      "start": 8.5674,
      "duration": 0.3671,
      "velocity": 103,
      "chip": "ym2612"
    },
    {
      "channel": 0,
      "note": 64,
      "start": 8.6856,
      "duration": 0.3663,
      "velocity": 103,
      "chip": "ym2612"
    },
    {
      "channel": 1,
      "note": 52,
      "start": 8.6862,
      "duration": 0.5975,
      "velocity": 111,
      "chip": "ym2612"
    },
    {
      "channel": 2,
      "note": 64,
      "start": 8.6868,
      "duration": 0.247,
      "velocity": 95,
      "chip": "ym2612"
    },
    {
      "channel": 3,
      "note": 67,
      "start": 8.819,
      "duration": 0.2336,
      "velocity": 95,
      "chip": "ym2612"
    },
    {
      "channel": 2,
      "note": 71,
      "start": 8.934,
      "duration": 0.2332,
      "velocity": 95,
      "chip": "ym2612"
    },
    {
      "channel": 4,
      "note": 64,
      "start": 8.9346,
      "duration": 0.3503,
      "velocity": 103,
      "chip": "ym2612"
    },
    {
      "channel": 0,
      "note": 76,
      "start": 9.0521,
      "duration": 0.3665,
      "velocity": 103,
      "chip": "ym2612"
    },
    {
      "channel": 3,
      "note": 76,
      "start": 9.0528,
      "duration": 0.2316,
      "velocity": 95,
      "chip": "ym2612"
    },
    {
      "channel": 2,
      "note": 78,
      "start": 9.1673,
      "duration": 0.2525,
      "velocity": 95,
      "chip": "ym2612"
    },
    {
      "channel": 1,
      "note": 52,
      "start": 9.2839,
      "duration": 0.1353,
      "velocity": 111,
      "chip": "ym2612"
    },
    {
      "channel": 3,
      "note": 79,
      "start": 9.2846,
      "duration": 0.366,
      "velocity": 95,
      "chip": "ym2612"
    },
    {
      "channel": 4,
      "note": 76,
      "start": 9.2851,
      "duration": 0.1369,
      "velocity": 1,
      "chip": "ym2612"
    },
    {
      "channel": 0,
      "note": 76,
      "start": 9.4188,
      "duration": 0.3482,
      "velocity": 103,
      "chip": "ym2612"
    },
    {
      "channel": 1,
      "note": 55,
      "start": 9.4194,
      "duration": 0.5999,
      "velocity": 111,
      "chip": "ym2612"
    },
    {
      "channel": 2,
      "note": 83,
      "start": 9.4199,
      "duration": 0.3477,
      "velocity": 95,
      "chip": "ym2612"
    },
    {
      "channel": 4,
      "note": 79,
      "start": 9.4222,
      "duration": 0.2305,
      "velocity": 103,
      "chip": "ym2612"
    },
    {
      "channel": 3,
      "note": 81,
      "start": 9.6507,
      "duration": 0.3691,
      "velocity": 95,
      "chip": "ym2612"
    },
    {
      "channel": 4,
      "note": 76,
      "start": 9.6529,
      "duration": 0.3675,
      "velocity": 103,
      "chip": "ym2612"
    },
    {
      "channel": 0,
      "note": 79,
      "start": 9.7672,
      "duration": 0.2515,
      "velocity": 103,
      "chip": "ym2612"
    },
    {
      "channel": 2,
      "note": 79,
      "start": 9.7678,
      "duration": 0.367,
      "velocity": 95,
      "chip": "ym2612"
    },
    {
      "channel": 0,
      "note": 78,
      "start": 10.0188,
      "duration": 0.0482,
      "velocity": 103,
      "chip": "ym2612"
    },
    {
      "channel": 1,
      "note": 55,
      "start": 10.0194,
      "duration": 0.1149,
      "velocity": 111,
      "chip": "ym2612"
    },
    {
      "channel": 3,
      "note": 78,
      "start": 10.02,
      "duration": 0.2305,
      "velocity": 95,
      "chip": "ym2612"
    },
    {
      "channel": 4,
      "note": 79,
      "start": 10.0206,
      "duration": 0.2305,
      "velocity": 103,
      "chip": "ym2612"
    },
    {
      "channel": 0,
      "note": 79,
      "start": 10.0673,
      "duration": 0.0664,
      "velocity": 103,
      "chip": "ym2612"
    },
    {
      "channel": 0,
      "note": 78,
      "start": 10.1339,
      "duration": 0.2332,
      "velocity": 103,
      "chip": "ym2612"
    },
    {
      "channel": 1,
      "note": 54,
      "start": 10.1344,
      "duration": 0.3499,
      "velocity": 111,
      "chip": "ym2612"
    },
    {
      "channel": 2,
      "note": 75,
      "start": 10.135,
      "duration": 0.2326,
      "velocity": 95,
      "chip": "ym2612"
    },
    {
      "channel": 3,
      "note": 78,
      "start": 10.2507,
      "duration": 0.2343,
      "velocity": 95,
      "chip": "ym2612"
    },
    {
      "channel": 4,
      "note": 78,
      "start": 10.2513,
      "duration": 0.066,
      "velocity": 103,
      "chip": "ym2612"
    },
    {
      "channel": 4,
      "note": 79,
      "start": 10.3175,
      "duration": 0.0508,
      "velocity": 103,
      "chip": "ym2612"
    },
    {
      "channel": 0,
      "note": 77,
      "start": 10.3672,
      "duration": 0.1166,
      "velocity": 103,
      "chip": "ym2612"
    },
    {
      "channel": 2,
      "note": 79,
      "start": 10.3678,
      "duration": 0.2493,
      "velocity": 95,
      "chip": "ym2612"
    },
    {
      "channel": 4,
      "note": 78,
      "start": 10.3685,
      "duration": 0.2493,
      "velocity": 103,
      "chip": "ym2612"
    },
    {
      "channel": 0,
      "note": 78,
      "start": 10.484,
      "duration": 0.2498,
      "velocity": 103,
      "chip": "ym2612"
    },
    {
      "channel": 1,
      "note": 57,
      "start": 10.4845,
      "duration": 0.3681,
      "velocity": 111,
      "chip": "ym2612"
    },
    {
      "channel": 3,
      "note": 81,
      "start": 10.4851,
      "duration": 0.2493,
      "velocity": 95,
      "chip": "ym2612"
    },
    {
      "channel": 2,
      "note": 83,
      "start": 10.6173,
      "duration": 0.2358,
      "velocity": 95,
      "chip": "ym2612"
    },
    {
      "channel": 4,
      "note": 77,
      "start": 10.618,
      "duration": 0.117,
      "velocity": 103,
      "chip": "ym2612"
    },
    {
      "channel": 0,
      "note": 79,
      "start": 10.7339,
      "duration": 0.1181,
      "velocity": 103,
      "chip": "ym2612"
    },
    {
      "channel": 3,
      "note": 87,
      "start": 10.7346,
      "duration": 0.1192,
      "velocity": 95,
      "chip": "ym2612"
    },
    {
      "channel": 4,
      "note": 78,
      "start": 10.7351,
      "duration": 0.2337,
      "velocity": 103,
      "chip": "ym2612"
    },
    {
      "channel": 0,
      "note": 78,
      "start": 10.8522,
      "duration": 0.3665,
      "velocity": 103,
      "chip": "ym2612"
    },
    {
      "channel": 1,
      "note": 60,
      "start": 10.8528,
      "duration": 0.3665,
      "velocity": 111,
      "chip": "ym2612"
    },
    {
      "channel": 2,
      "note": 90,
      "start": 10.8533,
      "duration": 0.3665,
      "velocity": 95,
      "chip": "ym2612"
    },
    {
      "channel": 3,
      "note": 87,
      "start": 10.8538,
      "duration": 0.3666,
      "velocity": 95,
      "chip": "ym2612"
    },
    {
      "channel": 4,
      "note": 79,
      "start": 10.969,
      "duration": 0.1149,
      "velocity": 103,
      "chip": "ym2612"
    },
    {
      "channel": 4,
      "note": 78,
      "start": 11.0841,
      "duration": 0.2998,
      "velocity": 103,
      "chip": "ym2612"
    },
    {
      "channel": 0,
      "note": 83,
      "start": 11.2188,
      "duration": 0.3484,
      "velocity": 103,
      "chip": "ym2612"
    },
    {
      "channel": 1,
      "note": 59,
      "start": 11.2194,
      "duration": 0.3485,
      "velocity": 111,
      "chip": "ym2612"
    },
    {
      "channel": 2,
      "note": 87,
      "start": 11.2199,
      "duration": 0.3486,
      "velocity": 95,
      "chip": "ym2612"
    },
    {
      "channel": 3,
      "note": 83,
      "start": 11.2205,
      "duration": 0.2983,
      "velocity": 1,
      "chip": "ym2612"
    },
    {
      "channel": 4,
      "note": 83,
      "start": 11.3841,
      "duration": 0.4343,
      "velocity": 103,
      "chip": "ym2612"
    },
    {
      "channel": 3,
      "note": 79,
      "start": 11.519,
      "duration": 0.1669,
      "velocity": 95,
      "chip": "ym2612"
    },
    {
      "channel": 0,
      "note": 84,
      "start": 11.5675,
      "duration": 0.1162,
      "velocity": 103,
      "chip": "ym2612"
    },
    {
      "channel": 1,
      "note": 47,
      "start": 11.568,
      "duration": 1.3157,
      "velocity": 111,
      "chip": "ym2612"
    },
    {
      "channel": 2,
      "note": 59,
      "start": 11.5687,
      "duration": 0.249,
      "velocity": 95,
      "chip": "ym2612"
    },
    {
      "channel": 0,
      "note": 83,
      "start": 11.6839,
      "duration": 0.1332,
      "velocity": 103,
      "chip": "ym2612"
    },
    {
      "channel": 3,
      "note": 63,
      "start": 11.6861,
      "duration": 0.2483,
      "velocity": 95,
      "chip": "ym2612"
    },
    {
      "channel": 0,
      "note": 81,
      "start": 11.8172,
      "duration": 0.1166,
      "velocity": 103,
      "chip": "ym2612"
    },
    {
      "channel": 2,
      "note": 66,
      "start": 11.8178,
      "duration": 0.4681,
      "velocity": 95,
      "chip": "ym2612"
    },
    {
      "channel": 4,
      "note": 84,
      "start": 11.8185,
      "duration": 0.1164,
      "velocity": 103,
      "chip": "ym2612"
    },
    {
      "channel": 0,
      "note": 79,
      "start": 11.9339,
      "duration": 0.2331,
      "velocity": 103,
      "chip": "ym2612"
    },
    {
      "channel": 3,
      "note": 71,
      "start": 11.9346,
      "duration": 0.4842,
      "velocity": 95,
      "chip": "ym2612"
    },
    {
      "channel": 4,
      "note": 83,
      "start": 11.9351,
      "duration": 0.1154,
      "velocity": 103,
      "chip": "ym2612"
    },
    {
      "channel": 4,
      "note": 81,
      "start": 12.0507,
      "duration": 0.1171,
      "velocity": 103,
      "chip": "ym2612"
    },
    {
      "channel": 0,
      "note": 78,
      "start": 12.1672,
      "duration": 0.1181,
      "velocity": 103,
      "chip": "ym2612"
    },
    {
      "channel": 4,
      "note": 79,
      "start": 12.168,
      "duration": 0.2514,
      "velocity": 103,
      "chip": "ym2612"
    },
    {
      "channel": 0,
      "note": 76,
      "start": 12.2855,
      "duration": 0.3665,
      "velocity": 103,
      "chip": "ym2612"
    },
    {
      "channel": 2,
      "note": 71,
      "start": 12.286,
      "duration": 0.2478,
      "velocity": 95,
      "chip": "ym2612"
    },
    {
      "channel": 3,
      "note": 75,
      "start": 12.419,
      "duration": 0.2337,
      "velocity": 95,
      "chip": "ym2612"
    },
    {
      "channel": 4,
      "note": 78,
      "start": 12.4195,
      "duration": 0.1149,
      "velocity": 103,
      "chip": "ym2612"
    },
    {
      "channel": 2,
      "note": 78,
      "start": 12.534,
      "duration": 0.4842,
      "velocity": 95,
      "chip": "ym2612"
    },
    {
      "channel": 4,
      "note": 76,
      "start": 12.5346,
      "duration": 0.3499,
      "velocity": 103,
      "chip": "ym2612"
    },
    {
      "channel": 0,
      "note": 75,
      "start": 12.6521,
      "duration": 0.3649,
      "velocity": 103,
      "chip": "ym2612"
    },
    {
      "channel": 3,
      "note": 83,
      "start": 12.6528,
      "duration": 0.4816,
      "velocity": 95,
      "chip": "ym2612"
    },
    {
      "channel": 1,
      "note": 45,
      "start": 12.8839,
      "duration": 0.1337,
      "velocity": 111,
      "chip": "ym2612"
    },
    {
      "channel": 4,
      "note": 75,
      "start": 12.8846,
      "duration": 0.367,
      "velocity": 103,
      "chip": "ym2612"
    },
    {
      "channel": 0,
      "note": 72,
      "start": 13.0173,
      "duration": 0.1164,
      "velocity": 103,
      "chip": "ym2612"
    },
    {
      "channel": 1,
      "note": 47,
      "start": 13.0178,
      "duration": 0.3499,
      "velocity": 111,
      "chip": "ym2612"
    },
    {
      "channel": 2,
      "note": 83,
      "start": 13.0183,
      "duration": 0.2326,
      "velocity": 95,
      "chip": "ym2612"
    },
    {
      "channel": 0,
      "note": 71,
      "start": 13.1339,
      "duration": 0.1166,
      "velocity": 103,
      "chip": "ym2612"
    },
    {
      "channel": 3,
      "note": 87,
      "start": 13.1346,
      "duration": 0.2337,
      "velocity": 95,
      "chip": "ym2612"
    },
    {
      "channel": 0,
      "note": 69,
      "start": 13.2505,
      "duration": 0.1166,
      "velocity": 103,
      "chip": "ym2612"
    },
    {
      "channel": 2,
      "note": 90,
      "start": 13.2512,
      "duration": 0.4853,
      "velocity": 95,
      "chip": "ym2612"
    },
    {
      "channel": 4,
      "note": 72,
      "start": 13.2518,
      "duration": 0.1171,
      "velocity": 103,
      "chip": "ym2612"
    },
    {
      "channel": 0,
      "note": 67,
      "start": 13.3673,
      "duration": 0.2498,
      "velocity": 103,
      "chip": "ym2612"
    },
    {
      "channel": 1,
      "note": 51,
      "start": 13.3678,
      "duration": 0.3681,
      "velocity": 111,
      "chip": "ym2612"
    },
    {
      "channel": 3,
      "note": 95,
      "start": 13.3685,
      "duration": 0.3686,
      "velocity": 95,
      "chip": "ym2612"
    },
    {
      "channel": 4,
      "note": 71,
      "start": 13.369,
      "duration": 0.1148,
      "velocity": 103,
      "chip": "ym2612"
    },
    {
      "channel": 4,
      "note": 69,
      "start": 13.4841,
      "duration": 0.1337,
      "velocity": 103,
      "chip": "ym2612"
    },
    {
      "channel": 0,
      "note": 66,
      "start": 13.6172,
      "duration": 0.1181,
      "velocity": 103,
      "chip": "ym2612"
    },
    {
      "channel": 4,
      "note": 67,
      "start": 13.618,
      "duration": 0.2342,
      "velocity": 103,
      "chip": "ym2612"
    },
    {
      "channel": 0,
      "note": 64,
      "start": 13.7355,
      "duration": 0.3498,
      "velocity": 103,
      "chip": "ym2612"
    },
    {
      "channel": 1,
      "note": 54,
      "start": 13.7361,
      "duration": 0.3498,
      "velocity": 111,
      "chip": "ym2612"
    },
    {
      "channel": 2,
      "note": 96,
      "start": 13.7366,
      "duration": 0.3499,
      "velocity": 95,
      "chip": "ym2612"
    },
    {
      "channel": 3,
      "note": 91,
      "start": 13.7372,
      "duration": 0.3499,
      "velocity": 95,
      "chip": "ym2612"
    },
    {
      "channel": 4,
      "note": 66,
      "start": 13.8523,
      "duration": 0.1149,
      "velocity": 103,
      "chip": "ym2612"
    },
    {
      "channel": 4,
      "note": 64,
      "start": 13.9674,
      "duration": 0.3681,
      "velocity": 103,
      "chip": "ym2612"
    },
    {
      "channel": 0,
      "note": 63,
      "start": 14.0855,
      "duration": 0.3666,
      "velocity": 95,
      "chip": "ym2612"
    },
    {
      "channel": 1,
      "note": 59,
      "start": 14.0861,
      "duration": 0.3667,
      "velocity": 111,
      "chip": "ym2612"
    },
    {
      "channel": 2,
      "note": 95,
      "start": 14.0866,
      "duration": 0.3668,
      "velocity": 95,
      "chip": "ym2612"
    },
    {
      "channel": 3,
      "note": 90,
      "start": 14.0872,
      "duration": 0.4802,
      "velocity": 95,
      "chip": "ym2612"
    },
    {
      "channel": 4,
      "note": 63,
      "start": 14.3357,
      "duration": 0.1215,
      "velocity": 95,
      "chip": "ym2612"
    },
    {
      "channel": 0,
      "note": 88,
      "start": 14.4523,
      "duration": 1.4331,
      "velocity": 1,
      "chip": "ym2612"
    },
    {
      "channel": 1,
      "note": 52,
      "start": 14.4529,
      "duration": 0.3658,
      "velocity": 111,
      "chip": "ym2612"
    },
    {
      "channel": 2,
      "note": 64,
      "start": 14.4535,
      "duration": 0.2303,
      "velocity": 95,
      "chip": "ym2612"
    },
    {
      "channel": 4,
      "note": 83,
      "start": 14.4573,
      "duration": 1.4314,
      "velocity": 1,
      "chip": "ym2612"
    },
    {
      "channel": 3,
      "note": 67,
      "start": 14.5676,
      "duration": 0.2518,
      "velocity": 95,
      "chip": "ym2612"
    },
    {
      "channel": 2,
      "note": 71,
      "start": 14.684,
      "duration": 0.367,
      "velocity": 95,
      "chip": "ym2612"
    },
    {
      "channel": 1,
      "note": 64,
      "start": 14.8189,
      "duration": 0.2315,
      "velocity": 111,
      "chip": "ym2612"
    },
    {
      "channel": 3,
      "note": 76,
      "start": 14.8195,
      "duration": 0.3482,
      "velocity": 95,
      "chip": "ym2612"
    },
    {
      "channel": 1,
      "note": 52,
      "start": 15.0506,
      "duration": 0.1165,
      "velocity": 111,
      "chip": "ym2612"
    },
    {
      "channel": 2,
      "note": 75,
      "start": 15.0512,
      "duration": 0.3659,
      "velocity": 95,
      "chip": "ym2612"
    },
    {
      "channel": 1,
      "note": 47,
      "start": 15.1673,
      "duration": 0.3666,
      "velocity": 111,
      "chip": "ym2612"
    },
    {
      "channel": 3,
      "note": 74,
      "start": 15.1679,
      "duration": 0.3666,
      "velocity": 95,
      "chip": "ym2612"
    },
    {
      "channel": 2,
      "note": 73,
      "start": 15.4173,
      "duration": 0.3504,
      "velocity": 95,
      "chip": "ym2612"
    },
    {
      "channel": 1,
      "note": 59,
      "start": 15.5339,
      "duration": 0.2332,
      "velocity": 111,
      "chip": "ym2612"
    },
    {
      "channel": 3,
      "note": 72,
      "start": 15.5346,
      "duration": 0.352,
      "velocity": 95,
      "chip": "ym2612"
    },
    {
      "channel": 1,
      "note": 47,
      "start": 15.7673,
      "duration": 0.1187,
      "velocity": 111,
      "chip": "ym2612"
    },
    {
      "channel": 2,
      "note": 71,
      "start": 15.7678,
      "duration": 0.251,
      "velocity": 95,
      "chip": "ym2612"
    },
    {
      "channel": 0,
      "note": 79,
      "start": 15.8856,
      "duration": 1.4498,
      "velocity": 82,
      "chip": "ym2612"
    },
    {
      "channel": 1,
      "note": 46,
      "start": 15.8861,
      "duration": 0.3644,
      "velocity": 111,
      "chip": "ym2612"
    },
    {
      "channel": 3,
      "note": 70,
      "start": 15.8867,
      "duration": 0.2487,
      "velocity": 95,
      "chip": "ym2612"
    },
    {
      "channel": 4,
      "note": 79,
      "start": 15.8889,
      "duration": 2.8811,
      "velocity": 82,
      "chip": "ym2612"
    },
    {
      "channel": 2,
      "note": 73,
      "start": 16.019,
      "duration": 0.2321,
      "velocity": 95,
      "chip": "ym2612"
    },
    {
      "channel": 3,
      "note": 76,
      "start": 16.1356,
      "duration": 0.3487,
      "velocity": 95,
      "chip": "ym2612"
    },
    {
      "channel": 1,
      "note": 58,
      "start": 16.2507,
      "duration": 0.2331,
      "velocity": 111,
      "chip": "ym2612"
    },
    {
      "channel": 2,
      "note": 79,
      "start": 16.2512,
      "duration": 0.3664,
      "velocity": 95,
      "chip": "ym2612"
    },
    {
      "channel": 1,
      "note": 46,
      "start": 16.4839,
      "duration": 0.1332,
      "velocity": 111,
      "chip": "ym2612"
    },
    {
      "channel": 3,
      "note": 78,
      "start": 16.4846,
      "duration": 0.366,
      "velocity": 95,
      "chip": "ym2612"
    },
    {
      "channel": 1,
      "note": 47,
      "start": 16.6173,
      "duration": 0.3499,
      "velocity": 111,
      "chip": "ym2612"
    },
    {
      "channel": 2,
      "note": 77,
      "start": 16.6178,
      "duration": 0.3499,
      "velocity": 95,
      "chip": "ym2612"
    },
    {
      "channel": 3,
      "note": 78,
      "start": 16.8507,
      "duration": 0.3687,
      "velocity": 95,
      "chip": "ym2612"
    },
    {
      "channel": 1,
      "note": 59,
      "start": 16.9673,
      "duration": 0.2514,
      "velocity": 111,
      "chip": "ym2612"
    },
    {
      "channel": 2,
      "note": 83,
      "start": 16.9678,
      "duration": 0.3686,
      "velocity": 95,
      "chip": "ym2612"
    },
    {
      "channel": 1,
      "note": 47,
      "start": 17.2188,
      "duration": 0.1171,
      "velocity": 111,
      "chip": "ym2612"
    },
    {
      "channel": 3,
      "note": 71,
      "start": 17.2195,
      "duration": 0.2311,
      "velocity": 95,
      "chip": "ym2612"
    },
    {
      "channel": 0,
      "note": 105,
      "start": 17.3355,
      "duration": 2.1483,
      "velocity": 82,
      "chip": "ym2612"
    },
    {
      "channel": 1,
      "note": 52,
      "start": 17.3361,
      "duration": 0.3477,
      "velocity": 111,
      "chip": "ym2612"
    },
    {
      "channel": 2,
      "note": 64,
      "start": 17.3367,
      "duration": 0.2305,
      "velocity": 95,
      "chip": "ym2612"
    },
    {
      "channel": 3,
      "note": 67,
      "start": 17.4508,
      "duration": 0.2337,
      "velocity": 95,
      "chip": "ym2612"
    },
    {
      "channel": 2,
      "note": 71,
      "start": 17.5673,
      "duration": 0.367,
      "velocity": 95,
      "chip": "ym2612"
    },
    {
      "channel": 1,
      "note": 64,
      "start": 17.6839,
      "duration": 0.2498,
      "velocity": 111,
      "chip": "ym2612"
    },
    {
      "channel": 3,
      "note": 76,
      "start": 17.6846,
      "duration": 0.3665,
      "velocity": 95,
      "chip": "ym2612"
    },
    {
      "channel": 1,
      "note": 52,
      "start": 17.9339,
      "duration": 0.1165,
      "velocity": 111,
      "chip": "ym2612"
    },
    {
      "channel": 2,
      "note": 75,
      "start": 17.9345,
      "duration": 0.3493,
      "velocity": 95,
      "chip": "ym2612"
    },
    {
      "channel": 1,
      "note": 47,
      "start": 18.0506,
      "duration": 0.3665,
      "velocity": 111,
      "chip": "ym2612"
    },
    {
      "channel": 3,
      "note": 74,
      "start": 18.0512,
      "duration": 0.3665,
      "velocity": 95,
      "chip": "ym2612"
    },
    {
      "channel": 2,
      "note": 73,
      "start": 18.2839,
      "duration": 0.3671,
      "velocity": 95,
      "chip": "ym2612"
    },
    {
      "channel": 1,
      "note": 59,
      "start": 18.4173,
      "duration": 0.2332,
      "velocity": 111,
      "chip": "ym2612"
    },
    {
      "channel": 3,
      "note": 72,
      "start": 18.4179,
      "duration": 0.3499,
      "velocity": 95,
      "chip": "ym2612"
    },
    {
      "channel": 1,
      "note": 47,
      "start": 18.6506,
      "duration": 0.1166,
      "velocity": 111,
      "chip": "ym2612"
    },
    {
      "channel": 2,
      "note": 71,
      "start": 18.6512,
      "duration": 0.2327,
      "velocity": 95,
      "chip": "ym2612"
    },
    {
      "channel": 1,
      "note": 46,
      "start": 18.7673,
      "duration": 0.3664,
      "velocity": 111,
      "chip": "ym2612"
    },
    {
      "channel": 3,
      "note": 70,
      "start": 18.768,
      "duration": 0.2492,
      "velocity": 95,
      "chip": "ym2612"
    },
    {
      "channel": 4,
      "note": 98,
      "start": 18.7701,
      "duration": 1.6827,
      "velocity": 111,
      "chip": "ym2612"
    },
    {
      "channel": 2,
      "note": 73,
      "start": 18.8841,
      "duration": 0.2502,
      "velocity": 95,
      "chip": "ym2612"
    },
    {
      "channel": 3,
      "note": 76,
      "start": 19.0174,
      "duration": 0.2332,
      "velocity": 95,
      "chip": "ym2612"
    },
    {
      "channel": 1,
      "note": 47,
      "start": 19.1339,
      "duration": 0.3505,
      "velocity": 111,
      "chip": "ym2612"
    },
    {
      "channel": 2,
      "note": 79,
      "start": 19.1345,
      "duration": 0.2327,
      "velocity": 95,
      "chip": "ym2612"
    },
    {
      "channel": 3,
      "note": 81,
      "start": 19.2507,
      "duration": 0.2348,
      "velocity": 95,
      "chip": "ym2612"
    },
    {
      "channel": 2,
      "note": 83,
      "start": 19.3673,
      "duration": 0.1176,
      "velocity": 95,
      "chip": "ym2612"
    },
    {
      "channel": 0,
      "note": 112,
      "start": 19.484,
      "duration": 0.7348,
      "velocity": 111,
      "chip": "ym2612"
    },
    {
      "channel": 1,
      "note": 51,
      "start": 19.4846,
      "duration": 0.3659,
      "velocity": 111,
      "chip": "ym2612"
    },
    {
      "channel": 2,
      "note": 79,
      "start": 19.4851,
      "duration": 0.3659,
      "velocity": 95,
      "chip": "ym2612"
    },
    {
      "channel": 3,
      "note": 84,
      "start": 19.4857,
      "duration": 0.3658,
      "velocity": 95,
      "chip": "ym2612"
    },
    {
      "channel": 1,
      "note": 54,
      "start": 19.8506,
      "duration": 0.3688,
      "velocity": 111,
      "chip": "ym2612"
    },
    {
      "channel": 2,
      "note": 78,
      "start": 19.8512,
      "duration": 0.3689,
      "velocity": 95,
      "chip": "ym2612"
    },
    {
      "channel": 3,
      "note": 83,
      "start": 19.8517,
      "duration": 0.4822,
      "velocity": 95,
      "chip": "ym2612"
    },
    {
      "channel": 0,
      "note": 52,
      "start": 20.219,
      "duration": 0.3482,
      "velocity": 111,
      "chip": "ym2612"
    },
    {
      "channel": 1,
      "note": 52,
      "start": 20.2195,
      "duration": 0.3482,
      "velocity": 111,
      "chip": "ym2612"
    },
    {
      "channel": 2,
      "note": 64,
      "start": 20.2202,
      "duration": 0.2303,
      "velocity": 95,
      "chip": "ym2612"
    },
    {
      "channel": 3,
      "note": 67,
      "start": 20.3342,
      "duration": 0.2341,
      "velocity": 95,
      "chip": "ym2612"
    },
    {
      "channel": 2,
      "note": 71,
      "start": 20.4507,
      "duration": 1.2009,
      "velocity": 95,
      "chip": "ym2612"
    },
    {
      "channel": 4,
      "note": 52,
      "start": 20.4529,
      "duration": 0.3649,
      "velocity": 111,
      "chip": "ym2612"
    },
    {
      "channel": 0,
      "note": 60,
      "start": 20.5673,
      "duration": 0.3665,
      "velocity": 111,
      "chip": "ym2612"
    },
    {
      "channel": 1,
      "note": 64,
      "start": 20.5678,
      "duration": 0.2493,
      "velocity": 111,
      "chip": "ym2612"
    },
    {
      "channel": 3,
      "note": 76,
      "start": 20.5685,
      "duration": 1.1988,
      "velocity": 95,
      "chip": "ym2612"
    },
    {
      "channel": 1,
      "note": 52,
      "start": 20.8173,
      "duration": 0.1171,
      "velocity": 111,
      "chip": "ym2612"
    },
    {
      "channel": 4,
      "note": 60,
      "start": 20.818,
      "duration": 0.3492,
      "velocity": 111,
      "chip": "ym2612"
    },
    {
      "channel": 0,
      "note": 59,
      "start": 20.9339,
      "duration": 0.3498,
      "velocity": 111,
      "chip": "ym2612"
    },
    {
      "channel": 1,
      "note": 54,
      "start": 20.9344,
      "duration": 0.3499,
      "velocity": 111,
      "chip": "ym2612"
    },
    {
      "channel": 4,
      "note": 59,
      "start": 21.1674,
      "duration": 0.3671,
      "velocity": 111,
      "chip": "ym2612"
    },
    {
      "channel": 0,
      "note": 66,
      "start": 21.2839,
      "duration": 0.3665,
      "velocity": 111,
      "chip": "ym2612"
    },
    {
      "channel": 1,
      "note": 66,
      "start": 21.2844,
      "duration": 0.2493,
      "velocity": 111,
      "chip": "ym2612"
    },
    {
      "channel": 1,
      "note": 54,
      "start": 21.5339,
      "duration": 0.1171,
      "velocity": 111,
      "chip": "ym2612"
    },
    {
      "channel": 4,
      "note": 66,
      "start": 21.5346,
      "duration": 0.3498,
      "velocity": 111,
      "chip": "ym2612"
    },
    {
      "channel": 0,
      "note": 64,
      "start": 21.6506,
      "duration": 0.3666,
      "velocity": 111,
      "chip": "ym2612"
    },
    {
      "channel": 1,
      "note": 55,
      "start": 21.6512,
      "duration": 0.3666,
      "velocity": 111,
      "chip": "ym2612"
    },
    {
      "channel": 2,
      "note": 67,
      "start": 21.6517,
      "duration": 0.2321,
      "velocity": 95,
      "chip": "ym2612"
    },
    {
      "channel": 3,
      "note": 71,
      "start": 21.7675,
      "duration": 0.2509,
      "velocity": 95,
      "chip": "ym2612"
    },
    {
      "channel": 2,
      "note": 76,
      "start": 21.884,
      "duration": 0.8509,
      "velocity": 95,
      "chip": "ym2612"
    },
    {
      "channel": 4,
      "note": 64,
      "start": 21.8846,
      "duration": 0.3665,
      "velocity": 111,
      "chip": "ym2612"
    },
    {
      "channel": 0,
      "note": 59,
      "start": 22.0173,
      "duration": 0.3498,
      "velocity": 111,
      "chip": "ym2612"
    },
    {
      "channel": 1,
      "note": 67,
      "start": 22.0178,
      "duration": 0.2326,
      "velocity": 111,
      "chip": "ym2612"
    },
    {
      "channel": 3,
      "note": 79,
      "start": 22.0185,
      "duration": 0.717,
      "velocity": 95,
      "chip": "ym2612"
    },
    {
      "channel": 1,
      "note": 55,
      "start": 22.2506,
      "duration": 0.117,
      "velocity": 111,
      "chip": "ym2612"
    },
    {
      "channel": 4,
      "note": 59,
      "start": 22.2513,
      "duration": 0.3659,
      "velocity": 111,
      "chip": "ym2612"
    },
    {
      "channel": 0,
      "note": 60,
      "start": 22.3672,
      "duration": 0.3666,
      "velocity": 111,
      "chip": "ym2612"
    },
    {
      "channel": 1,
      "note": 57,
      "start": 22.3678,
      "duration": 0.3665,
      "velocity": 111,
      "chip": "ym2612"
    },
    {
      "channel": 4,
      "note": 60,
      "start": 22.6174,
      "duration": 0.3498,
      "velocity": 111,
      "chip": "ym2612"
    },
    {
      "channel": 0,
      "note": 59,
      "start": 22.7339,
      "duration": 0.3498,
      "velocity": 111,
      "chip": "ym2612"
    },
    {
      "channel": 1,
      "note": 60,
      "start": 22.7345,
      "duration": 0.3498,
      "velocity": 111,
      "chip": "ym2612"
    },
    {
      "channel": 2,
      "note": 88,
      "start": 22.7351,
      "duration": 0.3498,
      "velocity": 95,
      "chip": "ym2612"
    },
    {
      "channel": 3,
      "note": 79,
      "start": 22.7356,
      "duration": 0.3498,
      "velocity": 95,
      "chip": "ym2612"
    },
    {
      "channel": 4,
      "note": 59,
      "start": 22.9674,
      "duration": 0.3665,
      "velocity": 111,
      "chip": "ym2612"
    },
    {
      "channel": 0,
      "note": 63,
      "start": 23.0839,
      "duration": 0.3664,
      "velocity": 111,
      "chip": "ym2612"
    },
    {
      "channel": 1,
      "note": 59,
      "start": 23.0845,
      "duration": 1.4498,
      "velocity": 111,
      "chip": "ym2612"
    },
    {
      "channel": 2,
      "note": 87,
      "start": 23.0851,
      "duration": 2.8849,
      "velocity": 95,
      "chip": "ym2612"
    },
    {
      "channel": 3,
      "note": 78,
      "start": 23.0856,
      "duration": 2.9906,
      "velocity": 95,
      "chip": "ym2612"
    },
    {
      "channel": 4,
      "note": 63,
      "start": 23.3341,
      "duration": 0.3504,
      "velocity": 111,
      "chip": "ym2612"
    },
    {
      "channel": 0,
      "note": 64,
      "start": 23.4505,
      "duration": 0.2332,
      "velocity": 111,
      "chip": "ym2612"
    },
    {
      "channel": 0,
      "note": 66,
      "start": 23.6839,
      "duration": 0.1332,
      "velocity": 111,
      "chip": "ym2612"
    },
    {
      "channel": 4,
      "note": 64,
      "start": 23.6846,
      "duration": 0.2493,
      "velocity": 111,
      "chip": "ym2612"
    },
    {
      "channel": 0,
      "note": 67,
      "start": 23.8172,
      "duration": 0.3498,
      "velocity": 111,
      "chip": "ym2612"
    },
    {
      "channel": 4,
      "note": 66,
      "start": 23.9341,
      "duration": 0.1164,
      "velocity": 111,
      "chip": "ym2612"
    },
    {
      "channel": 4,
      "note": 67,
      "start": 24.0507,
      "duration": 0.3671,
      "velocity": 111,
      "chip": "ym2612"
    },
    {
      "channel": 0,
      "note": 69,
      "start": 24.1672,
      "duration": 0.2498,
      "velocity": 111,
      "chip": "ym2612"
    },
    {
      "channel": 0,
      "note": 72,
      "start": 24.4172,
      "duration": 0.1165,
      "velocity": 111,
      "chip": "ym2612"
    },
    {
      "channel": 4,
      "note": 69,
      "start": 24.418,
      "duration": 0.117,
      "velocity": 111,
      "chip": "ym2612"
    },
    {
      "channel": 0,
      "note": 75,
      "start": 24.5339,
      "duration": 0.7165,
      "velocity": 111,
      "chip": "ym2612"
    },
    {
      "channel": 1,
      "note": 47,
      "start": 24.5344,
      "duration": 0.9509,
      "velocity": 107,
      "chip": "ym2612"
    },
    {
      "channel": 4,
      "note": 72,
      "start": 24.5351,
      "duration": 0.2321,
      "velocity": 111,
      "chip": "ym2612"
    },
    {
      "channel": 4,
      "note": 75,
      "start": 24.7674,
      "duration": 0.7186,
      "velocity": 111,
      "chip": "ym2612"
    },
    {
      "channel": 0,
      "note": 71,
      "start": 25.2505,
      "duration": 0.7183,
      "velocity": 103,
      "chip": "ym2612"
    },
    {
      "channel": 1,
      "note": 59,
      "start": 25.4855,
      "duration": 0.1316,
      "velocity": 107,
      "chip": "ym2612"
    },
    {
      "channel": 4,
      "note": 71,
      "start": 25.4861,
      "duration": 0.7239,
      "velocity": 103,
      "chip": "ym2612"
    },
    {
      "channel": 1,
      "note": 60,
      "start": 25.6173,
      "duration": 0.2332,
      "velocity": 107,
      "chip": "ym2612"
    },
    {
      "channel": 1,
      "note": 59,
      "start": 25.8507,
      "duration": 0.1188,
      "velocity": 107,
      "chip": "ym2612"
    },
    {
      "channel": 0,
      "note": 64,
      "start": 25.9689,
      "duration": 0.3571,
      "velocity": 103,
      "chip": "ym2612"
    },
    {
      "channel": 1,
      "note": 52,
      "start": 25.9695,
      "duration": 0.3571,
      "velocity": 107,
      "chip": "ym2612"
    },
    {
      "channel": 2,
      "note": 64,
      "start": 25.9702,
      "duration": 0.2377,
      "velocity": 95,
      "chip": "ym2612"
    },
    {
      "channel": 3,
      "note": 67,
      "start": 26.0763,
      "duration": 0.2509,
      "velocity": 95,
      "chip": "ym2612"
    },
    {
      "channel": 2,
      "note": 71,
      "start": 26.208,
      "duration": 1.1318,
      "velocity": 95,
      "chip": "ym2612"
    },
    {
      "channel": 4,
      "note": 64,
      "start": 26.2102,
      "duration": 0.3248,
      "velocity": 103,
      "chip": "ym2612"
    },
    {
      "channel": 0,
      "note": 76,
      "start": 26.3262,
      "duration": 0.3212,
      "velocity": 103,
      "chip": "ym2612"
    },
    {
      "channel": 1,
      "note": 64,
      "start": 26.3268,
      "duration": 0.2076,
      "velocity": 107,
      "chip": "ym2612"
    },
    {
      "channel": 3,
      "note": 76,
      "start": 26.3274,
      "duration": 1.1215,
      "velocity": 95,
      "chip": "ym2612"
    },
    {
      "channel": 1,
      "note": 52,
      "start": 26.5345,
      "duration": 0.1134,
      "velocity": 107,
      "chip": "ym2612"
    },
    {
      "channel": 4,
      "note": 76,
      "start": 26.5352,
      "duration": 0.115,
      "velocity": 1,
      "chip": "ym2612"
    },
    {
      "channel": 0,
      "note": 76,
      "start": 26.6476,
      "duration": 0.3577,
      "velocity": 103,
      "chip": "ym2612"
    },
    {
      "channel": 1,
      "note": 55,
      "start": 26.6481,
      "duration": 0.3576,
      "velocity": 107,
      "chip": "ym2612"
    },
    {
      "channel": 4,
      "note": 67,
      "start": 26.6505,
      "duration": 0.2383,
      "velocity": 103,
      "chip": "ym2612"
    },
    {
      "channel": 4,
      "note": 76,
      "start": 26.889,
      "duration": 0.3218,
      "velocity": 103,
      "chip": "ym2612"
    },
    {
      "channel": 0,
      "note": 71,
      "start": 27.0054,
      "duration": 0.3334,
      "velocity": 103,
      "chip": "ym2612"
    },
    {
      "channel": 1,
      "note": 67,
      "start": 27.006,
      "duration": 0.2041,
      "velocity": 107,
      "chip": "ym2612"
    },
    {
      "channel": 1,
      "note": 55,
      "start": 27.2102,
      "duration": 0.129,
      "velocity": 107,
      "chip": "ym2612"
    },
    {
      "channel": 4,
      "note": 71,
      "start": 27.2109,
      "duration": 0.1312,
      "velocity": 1,
      "chip": "ym2612"
    },
    {
      "channel": 0,
      "note": 66,
      "start": 27.3389,
      "duration": 0.3432,
      "velocity": 103,
      "chip": "ym2612"
    },
    {
      "channel": 1,
      "note": 54,
      "start": 27.3395,
      "duration": 0.3432,
      "velocity": 107,
      "chip": "ym2612"
    },
    {
      "channel": 2,
      "note": 66,
      "start": 27.34,
      "duration": 0.2239,
      "velocity": 95,
      "chip": "ym2612"
    },
    {
      "channel": 4,
      "note": 67,
      "start": 27.3422,
      "duration": 0.2239,
      "velocity": 103,
      "chip": "ym2612"
    },
    {
      "channel": 3,
      "note": 71,
      "start": 27.449,
      "duration": 0.2343,
      "velocity": 95,
      "chip": "ym2612"
    },
    {
      "channel": 2,
      "note": 75,
      "start": 27.5641,
      "duration": 1.1128,
      "velocity": 95,
      "chip": "ym2612"
    },
    {
      "channel": 4,
      "note": 66,
      "start": 27.5663,
      "duration": 0.3363,
      "velocity": 103,
      "chip": "ym2612"
    },
    {
      "channel": 0,
      "note": 78,
      "start": 27.6822,
      "duration": 0.3306,
      "velocity": 103,
      "chip": "ym2612"
    },
    {
      "channel": 1,
      "note": 66,
      "start": 27.6828,
      "duration": 0.219,
      "velocity": 107,
      "chip": "ym2612"
    },
    {
      "channel": 3,
      "note": 78,
      "start": 27.6835,
      "duration": 1.1034,
      "velocity": 95,
      "chip": "ym2612"
    },
    {
      "channel": 1,
      "note": 54,
      "start": 27.902,
      "duration": 0.1113,
      "velocity": 107,
      "chip": "ym2612"
    },
    {
      "channel": 4,
      "note": 78,
      "start": 27.9027,
      "duration": 0.113,
      "velocity": 1,
      "chip": "ym2612"
    },
    {
      "channel": 0,
      "note": 78,
      "start": 28.013,
      "duration": 0.3449,
      "velocity": 103,
      "chip": "ym2612"
    },
    {
      "channel": 1,
      "note": 60,
      "start": 28.0136,
      "duration": 0.3448,
      "velocity": 107,
      "chip": "ym2612"
    },
    {
      "channel": 4,
      "note": 67,
      "start": 28.0159,
      "duration": 0.2305,
      "velocity": 103,
      "chip": "ym2612"
    },
    {
      "channel": 4,
      "note": 78,
      "start": 28.2466,
      "duration": 0.3252,
      "velocity": 103,
      "chip": "ym2612"
    },
    {
      "channel": 0,
      "note": 71,
      "start": 28.358,
      "duration": 0.3176,
      "velocity": 103,
      "chip": "ym2612"
    },
    {
      "channel": 1,
      "note": 59,
      "start": 28.3585,
      "duration": 0.3177,
      "velocity": 107,
      "chip": "ym2612"
    },
    {
      "channel": 4,
      "note": 71,
      "start": 28.572,
      "duration": 0.3305,
      "velocity": 103,
      "chip": "ym2612"
    },
    {
      "channel": 0,
      "note": 64,
      "start": 28.6757,
      "duration": 0.361,
      "velocity": 103,
      "chip": "ym2612"
    },
    {
      "channel": 1,
      "note": 52,
      "start": 28.6764,
      "duration": 0.3609,
      "velocity": 107,
      "chip": "ym2612"
    },
    {
      "channel": 2,
      "note": 64,
      "start": 28.677,
      "duration": 0.2248,
      "velocity": 95,
      "chip": "ym2612"
    },
    {
      "channel": 3,
      "note": 67,
      "start": 28.787,
      "duration": 0.2509,
      "velocity": 95,
      "chip": "ym2612"
    },
    {
      "channel": 2,
      "note": 71,
      "start": 28.902,
      "duration": 0.2336,
      "velocity": 95,
      "chip": "ym2612"
    },
    {
      "channel": 4,
      "note": 64,
      "start": 28.9027,
      "duration": 0.3383,
      "velocity": 103,
      "chip": "ym2612"
    },
    {
      "channel": 0,
      "note": 76,
      "start": 29.0369,
      "duration": 0.3162,
      "velocity": 103,
      "chip": "ym2612"
    },
    {
      "channel": 1,
      "note": 64,
      "start": 29.0375,
      "duration": 0.2024,
      "velocity": 107,
      "chip": "ym2612"
    },
    {
      "channel": 3,
      "note": 76,
      "start": 29.0381,
      "duration": 0.2024,
      "velocity": 95,
      "chip": "ym2612"
    },
    {
      "channel": 2,
      "note": 78,
      "start": 29.1358,
      "duration": 0.2184,
      "velocity": 95,
      "chip": "ym2612"
    },
    {
      "channel": 1,
      "note": 52,
      "start": 29.24,
      "duration": 0.1137,
      "velocity": 107,
      "chip": "ym2612"
    },
    {
      "channel": 3,
      "note": 79,
      "start": 29.2406,
      "duration": 0.3566,
      "velocity": 95,
      "chip": "ym2612"
    },
    {
      "channel": 4,
      "note": 76,
      "start": 29.2412,
      "duration": 0.1153,
      "velocity": 1,
      "chip": "ym2612"
    },
    {
      "channel": 0,
      "note": 76,
      "start": 29.3533,
      "duration": 0.3605,
      "velocity": 103,
      "chip": "ym2612"
    },
    {
      "channel": 1,
      "note": 55,
      "start": 29.3539,
      "duration": 0.3605,
      "velocity": 107,
      "chip": "ym2612"
    },
    {
      "channel": 2,
      "note": 83,
      "start": 29.3544,
      "duration": 0.3605,
      "velocity": 95,
      "chip": "ym2612"
    },
    {
      "channel": 4,
      "note": 79,
      "start": 29.3567,
      "duration": 0.2428,
      "velocity": 103,
      "chip": "ym2612"
    },
    {
      "channel": 3,
      "note": 81,
      "start": 29.5974,
      "duration": 0.3268,
      "velocity": 95,
      "chip": "ym2612"
    },
    {
      "channel": 4,
      "note": 76,
      "start": 29.5996,
      "duration": 0.3252,
      "velocity": 103,
      "chip": "ym2612"
    },
    {
      "channel": 0,
      "note": 79,
      "start": 29.7139,
      "duration": 0.2091,
      "velocity": 103,
      "chip": "ym2612"
    },
    {
      "channel": 1,
      "note": 67,
      "start": 29.7145,
      "duration": 0.209,
      "velocity": 107,
      "chip": "ym2612"
    },
    {
      "channel": 2,
      "note": 79,
      "start": 29.7151,
      "duration": 0.3137,
      "velocity": 95,
      "chip": "ym2612"
    },
    {
      "channel": 0,
      "note": 78,
      "start": 29.9232,
      "duration": 0.0545,
      "velocity": 103,
      "chip": "ym2612"
    },
    {
      "channel": 1,
      "note": 55,
      "start": 29.9237,
      "duration": 0.1044,
      "velocity": 107,
      "chip": "ym2612"
    },
    {
      "channel": 3,
      "note": 78,
      "start": 29.9244,
      "duration": 0.2312,
      "velocity": 95,
      "chip": "ym2612"
    },
    {
      "channel": 4,
      "note": 79,
      "start": 29.925,
      "duration": 0.2312,
      "velocity": 103,
      "chip": "ym2612"
    },
    {
      "channel": 0,
      "note": 79,
      "start": 29.9779,
      "duration": 0.0498,
      "velocity": 103,
      "chip": "ym2612"
    },
    {
      "channel": 0,
      "note": 78,
      "start": 30.0278,
      "duration": 0.2442,
      "velocity": 103,
      "chip": "ym2612"
    },
    {
      "channel": 1,
      "note": 54,
      "start": 30.0284,
      "duration": 0.361,
      "velocity": 107,
      "chip": "ym2612"
    },
    {
      "channel": 2,
      "note": 75,
      "start": 30.0289,
      "duration": 0.2438,
      "velocity": 95,
      "chip": "ym2612"
    },
    {
      "channel": 3,
      "note": 78,
      "start": 30.1557,
      "duration": 0.2343,
      "velocity": 95,
      "chip": "ym2612"
    },
    {
      "channel": 4,
      "note": 78,
      "start": 30.1563,
      "duration": 0.0493,
      "velocity": 103,
      "chip": "ym2612"
    },
    {
      "channel": 4,
      "note": 79,
      "start": 30.2058,
      "duration": 0.0675,
      "velocity": 103,
      "chip": "ym2612"
    },
    {
      "channel": 0,
      "note": 77,
      "start": 30.2722,
      "duration": 0.1166,
      "velocity": 103,
      "chip": "ym2612"
    },
    {
      "channel": 2,
      "note": 79,
      "start": 30.2728,
      "duration": 0.2161,
      "velocity": 95,
      "chip": "ym2612"
    },
    {
      "channel": 4,
      "note": 78,
      "start": 30.2735,
      "duration": 0.2161,
      "velocity": 103,
      "chip": "ym2612"
    },
    {
      "channel": 0,
      "note": 78,
      "start": 30.389,
      "duration": 0.1977,
      "velocity": 103,
      "chip": "ym2612"
    },
    {
      "channel": 1,
      "note": 57,
      "start": 30.3896,
      "duration": 0.328,
      "velocity": 107,
      "chip": "ym2612"
    },
    {
      "channel": 3,
      "note": 81,
      "start": 30.3902,
      "duration": 0.1972,
      "velocity": 95,
      "chip": "ym2612"
    },
    {
      "channel": 2,
      "note": 83,
      "start": 30.4891,
      "duration": 0.2291,
      "velocity": 95,
      "chip": "ym2612"
    },
    {
      "channel": 4,
      "note": 77,
      "start": 30.4897,
      "duration": 0.0982,
      "velocity": 103,
      "chip": "ym2612"
    },
    {
      "channel": 0,
      "note": 79,
      "start": 30.5869,
      "duration": 0.1302,
      "velocity": 103,
      "chip": "ym2612"
    },
    {
      "channel": 3,
      "note": 87,
      "start": 30.5875,
      "duration": 0.1312,
      "velocity": 95,
      "chip": "ym2612"
    },
    {
      "channel": 4,
      "note": 78,
      "start": 30.5881,
      "duration": 0.2458,
      "velocity": 103,
      "chip": "ym2612"
    },
    {
      "channel": 0,
      "note": 78,
      "start": 30.7172,
      "duration": 0.3308,
      "velocity": 103,
      "chip": "ym2612"
    },
    {
      "channel": 1,
      "note": 60,
      "start": 30.7178,
      "duration": 0.3309,
      "velocity": 107,
      "chip": "ym2612"
    },
    {
      "channel": 2,
      "note": 90,
      "start": 30.7183,
      "duration": 0.3309,
      "velocity": 95,
      "chip": "ym2612"
    },
    {
      "channel": 3,
      "note": 87,
      "start": 30.7189,
      "duration": 0.3309,
      "velocity": 95,
      "chip": "ym2612"
    },
    {
      "channel": 4,
      "note": 79,
      "start": 30.834,
      "duration": 0.1149,
      "velocity": 103,
      "chip": "ym2612"
    },
    {
      "channel": 4,
      "note": 78,
      "start": 30.9492,
      "duration": 0.262,
      "velocity": 103,
      "chip": "ym2612"
    },
    {
      "channel": 0,
      "note": 83,
      "start": 31.0483,
      "duration": 0.3255,
      "velocity": 103,
      "chip": "ym2612"
    },
    {
      "channel": 1,
      "note": 59,
      "start": 31.0488,
      "duration": 0.3256,
      "velocity": 107,
      "chip": "ym2612"
    },
    {
      "channel": 2,
      "note": 87,
      "start": 31.0493,
      "duration": 0.3257,
      "velocity": 95,
      "chip": "ym2612"
    },
    {
      "channel": 3,
      "note": 83,
      "start": 31.0499,
      "duration": 0.2688,
      "velocity": 1,
      "chip": "ym2612"
    },
    {
      "channel": 4,
      "note": 83,
      "start": 31.2113,
      "duration": 0.3864,
      "velocity": 103,
      "chip": "ym2612"
    },
    {
      "channel": 3,
      "note": 79,
      "start": 31.319,
      "duration": 0.1647,
      "velocity": 95,
      "chip": "ym2612"
    },
    {
      "channel": 0,
      "note": 64,
      "start": 31.3739,
      "duration": 0.3414,
      "velocity": 103,
      "chip": "ym2612"
    },
    {
      "channel": 1,
      "note": 52,
      "start": 31.3745,
      "duration": 0.3413,
      "velocity": 107,
      "chip": "ym2612"
    },
    {
      "channel": 2,
      "note": 64,
      "start": 31.3752,
      "duration": 0.2219,
      "velocity": 95,
      "chip": "ym2612"
    },
    {
      "channel": 3,
      "note": 67,
      "start": 31.4839,
      "duration": 0.2326,
      "velocity": 95,
      "chip": "ym2612"
    },
    {
      "channel": 2,
      "note": 71,
      "start": 31.5973,
      "duration": 1.1259,
      "velocity": 95,
      "chip": "ym2612"
    },
    {
      "channel": 4,
      "note": 64,
      "start": 31.5979,
      "duration": 0.3379,
      "velocity": 103,
      "chip": "ym2612"
    },
    {
      "channel": 0,
      "note": 76,
      "start": 31.7155,
      "duration": 0.3323,
      "velocity": 103,
      "chip": "ym2612"
    },
    {
      "channel": 1,
      "note": 64,
      "start": 31.7161,
      "duration": 0.2191,
      "velocity": 107,
      "chip": "ym2612"
    },
    {
      "channel": 3,
      "note": 76,
      "start": 31.7166,
      "duration": 1.1157,
      "velocity": 95,
      "chip": "ym2612"
    },
    {
      "channel": 1,
      "note": 52,
      "start": 31.9353,
      "duration": 0.113,
      "velocity": 107,
      "chip": "ym2612"
    },
    {
      "channel": 4,
      "note": 76,
      "start": 31.936,
      "duration": 0.1146,
      "velocity": 1,
      "chip": "ym2612"
    },
    {
      "channel": 0,
      "note": 76,
      "start": 32.0479,
      "duration": 0.3597,
      "velocity": 103,
      "chip": "ym2612"
    },
    {
      "channel": 1,
      "note": 55,
      "start": 32.0485,
      "duration": 0.3596,
      "velocity": 107,
      "chip": "ym2612"
    },
    {
      "channel": 4,
      "note": 67,
      "start": 32.0508,
      "duration": 0.2237,
      "velocity": 103,
      "chip": "ym2612"
    },
    {
      "channel": 4,
      "note": 76,
      "start": 32.2747,
      "duration": 0.3383,
      "velocity": 103,
      "chip": "ym2612"
    },
    {
      "channel": 0,
      "note": 71,
      "start": 32.4078,
      "duration": 0.3143,
      "velocity": 103,
      "chip": "ym2612"
    },
    {
      "channel": 1,
      "note": 67,
      "start": 32.4083,
      "duration": 0.2039,
      "velocity": 107,
      "chip": "ym2612"
    },
    {
      "channel": 1,
      "note": 55,
      "start": 32.6124,
      "duration": 0.1101,
      "velocity": 107,
      "chip": "ym2612"
    },
    {
      "channel": 4,
      "note": 71,
      "start": 32.6132,
      "duration": 0.1123,
      "velocity": 1,
      "chip": "ym2612"
    },
    {
      "channel": 0,
      "note": 66,
      "start": 32.7222,
      "duration": 0.36,
      "velocity": 103,
      "chip": "ym2612"
    },
    {
      "channel": 1,
      "note": 54,
      "start": 32.7228,
      "duration": 0.36,
      "velocity": 107,
      "chip": "ym2612"
    },
    {
      "channel": 2,
      "note": 66,
      "start": 32.7233,
      "duration": 0.2407,
      "velocity": 95,
      "chip": "ym2612"
    },
    {
      "channel": 4,
      "note": 67,
      "start": 32.7256,
      "duration": 0.2407,
      "velocity": 103,
      "chip": "ym2612"
    },
    {
      "channel": 3,
      "note": 71,
      "start": 32.8325,
      "duration": 0.251,
      "velocity": 95,
      "chip": "ym2612"
    },
    {
      "channel": 2,
      "note": 75,
      "start": 32.9642,
      "duration": 1.126,
      "velocity": 95,
      "chip": "ym2612"
    },
    {
      "channel": 4,
      "note": 66,
      "start": 32.9664,
      "duration": 0.3248,
      "velocity": 103,
      "chip": "ym2612"
    },
    {
      "channel": 0,
      "note": 78,
      "start": 33.0824,
      "duration": 0.3212,
      "velocity": 103,
      "chip": "ym2612"
    },
    {
      "channel": 1,
      "note": 66,
      "start": 33.083,
      "duration": 0.2075,
      "velocity": 107,
      "chip": "ym2612"
    },
    {
      "channel": 3,
      "note": 78,
      "start": 33.0836,
      "duration": 1.1151,
      "velocity": 95,
      "chip": "ym2612"
    },
    {
      "channel": 1,
      "note": 54,
      "start": 33.2907,
      "duration": 0.1134,
      "velocity": 107,
      "chip": "ym2612"
    },
    {
      "channel": 4,
      "note": 78,
      "start": 33.2914,
      "duration": 0.115,
      "velocity": 1,
      "chip": "ym2612"
    },
    {
      "channel": 0,
      "note": 78,
      "start": 33.4037,
      "duration": 0.3594,
      "velocity": 103,
      "chip": "ym2612"
    },
    {
      "channel": 1,
      "note": 60,
      "start": 33.4043,
      "duration": 0.3593,
      "velocity": 107,
      "chip": "ym2612"
    },
    {
      "channel": 4,
      "note": 67,
      "start": 33.4066,
      "duration": 0.2472,
      "velocity": 103,
      "chip": "ym2612"
    },
    {
      "channel": 4,
      "note": 78,
      "start": 33.654,
      "duration": 0.3136,
      "velocity": 103,
      "chip": "ym2612"
    },
    {
      "channel": 0,
      "note": 71,
      "start": 33.7632,
      "duration": 0.3258,
      "velocity": 103,
      "chip": "ym2612"
    },
    {
      "channel": 1,
      "note": 59,
      "start": 33.7638,
      "duration": 0.3259,
      "velocity": 107,
      "chip": "ym2612"
    },
    {
      "channel": 4,
      "note": 71,
      "start": 33.9678,
      "duration": 0.3465,
      "velocity": 103,
      "chip": "ym2612"
    },
    {
      "channel": 0,
      "note": 64,
      "start": 34.0892,
      "duration": 0.3427,
      "velocity": 103,
      "chip": "ym2612"
    },
    {
      "channel": 1,
      "note": 52,
      "start": 34.0898,
      "duration": 0.3426,
      "velocity": 107,
      "chip": "ym2612"
    },
    {
      "channel": 2,
      "note": 64,
      "start": 34.0904,
      "duration": 0.2232,
      "velocity": 95,
      "chip": "ym2612"
    },
    {
      "channel": 3,
      "note": 67,
      "start": 34.1988,
      "duration": 0.2342,
      "velocity": 95,
      "chip": "ym2612"
    },
    {
      "channel": 2,
      "note": 71,
      "start": 34.3138,
      "duration": 0.2184,
      "velocity": 95,
      "chip": "ym2612"
    },
    {
      "channel": 4,
      "note": 64,
      "start": 34.3145,
      "duration": 0.3347,
      "velocity": 103,
      "chip": "ym2612"
    },
    {
      "channel": 0,
      "note": 76,
      "start": 34.432,
      "duration": 0.3286,
      "velocity": 103,
      "chip": "ym2612"
    },
    {
      "channel": 1,
      "note": 64,
      "start": 34.4326,
      "duration": 0.2154,
      "velocity": 107,
      "chip": "ym2612"
    },
    {
      "channel": 3,
      "note": 76,
      "start": 34.4332,
      "duration": 0.2154,
      "velocity": 95,
      "chip": "ym2612"
    },
    {
      "channel": 2,
      "note": 78,
      "start": 34.5324,
      "duration": 0.2293,
      "velocity": 95,
      "chip": "ym2612"
    },
    {
      "channel": 1,
      "note": 52,
      "start": 34.6481,
      "duration": 0.1131,
      "velocity": 107,
      "chip": "ym2612"
    },
    {
      "channel": 3,
      "note": 79,
      "start": 34.6488,
      "duration": 0.3372,
      "velocity": 95,
      "chip": "ym2612"
    },
    {
      "channel": 4,
      "note": 76,
      "start": 34.6493,
      "duration": 0.1147,
      "velocity": 1,
      "chip": "ym2612"
    },
    {
      "channel": 0,
      "note": 71,
      "start": 34.7608,
      "duration": 0.3433,
      "velocity": 103,
      "chip": "ym2612"
    },
    {
      "channel": 1,
      "note": 55,
      "start": 34.7614,
      "duration": 0.3433,
      "velocity": 107,
      "chip": "ym2612"
    },
    {
      "channel": 2,
      "note": 83,
      "start": 34.762,
      "duration": 0.3433,
      "velocity": 95,
      "chip": "ym2612"
    },
    {
      "channel": 4,
      "note": 79,
      "start": 34.7642,
      "duration": 0.2239,
      "velocity": 103,
      "chip": "ym2612"
    },
    {
      "channel": 3,
      "note": 81,
      "start": 34.9862,
      "duration": 0.3405,
      "velocity": 95,
      "chip": "ym2612"
    },
    {
      "channel": 4,
      "note": 76,
      "start": 34.9883,
      "duration": 0.3389,
      "velocity": 103,
      "chip": "ym2612"
    },
    {
      "channel": 0,
      "note": 79,
      "start": 35.1043,
      "duration": 0.3309,
      "velocity": 103,
      "chip": "ym2612"
    },
    {
      "channel": 1,
      "note": 67,
      "start": 35.1049,
      "duration": 0.2212,
      "velocity": 107,
      "chip": "ym2612"
    },
    {
      "channel": 2,
      "note": 79,
      "start": 35.1054,
      "duration": 0.3308,
      "velocity": 95,
      "chip": "ym2612"
    },
    {
      "channel": 1,
      "note": 55,
      "start": 35.3262,
      "duration": 0.1095,
      "velocity": 107,
      "chip": "ym2612"
    },
    {
      "channel": 3,
      "note": 78,
      "start": 35.3268,
      "duration": 0.2172,
      "velocity": 95,
      "chip": "ym2612"
    },
    {
      "channel": 4,
      "note": 79,
      "start": 35.3274,
      "duration": 0.2172,
      "velocity": 103,
      "chip": "ym2612"
    },
    {
      "channel": 0,
      "note": 83,
      "start": 35.4353,
      "duration": 0.058,
      "velocity": 103,
      "chip": "ym2612"
    },
    {
      "channel": 1,
      "note": 54,
      "start": 35.4359,
      "duration": 0.358,
      "velocity": 107,
      "chip": "ym2612"
    },
    {
      "channel": 2,
      "note": 75,
      "start": 35.4365,
      "duration": 0.2242,
      "velocity": 95,
      "chip": "ym2612"
    },
    {
      "channel": 0,
      "note": 84,
      "start": 35.4935,
      "duration": 0.0498,
      "velocity": 103,
      "chip": "ym2612"
    },
    {
      "channel": 0,
      "note": 83,
      "start": 35.5434,
      "duration": 0.1166,
      "velocity": 103,
      "chip": "ym2612"
    },
    {
      "channel": 3,
      "note": 78,
      "start": 35.5441,
      "duration": 0.2504,
      "velocity": 95,
      "chip": "ym2612"
    },
    {
      "channel": 4,
      "note": 78,
      "start": 35.5447,
      "duration": 0.0655,
      "velocity": 103,
      "chip": "ym2612"
    },
    {
      "channel": 4,
      "note": 79,
      "start": 35.6104,
      "duration": 0.0508,
      "velocity": 103,
      "chip": "ym2612"
    },
    {
      "channel": 0,
      "note": 81,
      "start": 35.6602,
      "duration": 0.1332,
      "velocity": 103,
      "chip": "ym2612"
    },
    {
      "channel": 2,
      "note": 79,
      "start": 35.6607,
      "duration": 0.2371,
      "velocity": 95,
      "chip": "ym2612"
    },
    {
      "channel": 4,
      "note": 78,
      "start": 35.6614,
      "duration": 0.2371,
      "velocity": 103,
      "chip": "ym2612"
    },
    {
      "channel": 0,
      "note": 79,
      "start": 35.7935,
      "duration": 0.1037,
      "velocity": 103,
      "chip": "ym2612"
    },
    {
      "channel": 1,
      "note": 57,
      "start": 35.7941,
      "duration": 0.3171,
      "velocity": 107,
      "chip": "ym2612"
    },
    {
      "channel": 3,
      "note": 81,
      "start": 35.7947,
      "duration": 0.2054,
      "velocity": 95,
      "chip": "ym2612"
    },
    {
      "channel": 0,
      "note": 78,
      "start": 35.8973,
      "duration": 0.102,
      "velocity": 103,
      "chip": "ym2612"
    },
    {
      "channel": 2,
      "note": 83,
      "start": 35.898,
      "duration": 0.2138,
      "velocity": 95,
      "chip": "ym2612"
    },
    {
      "channel": 4,
      "note": 77,
      "start": 35.8985,
      "duration": 0.1021,
      "velocity": 103,
      "chip": "ym2612"
    },
    {
      "channel": 0,
      "note": 76,
      "start": 35.9995,
      "duration": 0.1111,
      "velocity": 103,
      "chip": "ym2612"
    },
    {
      "channel": 3,
      "note": 87,
      "start": 36.0002,
      "duration": 0.1121,
      "velocity": 95,
      "chip": "ym2612"
    },
    {
      "channel": 4,
      "note": 78,
      "start": 36.0008,
      "duration": 0.2267,
      "velocity": 103,
      "chip": "ym2612"
    },
    {
      "channel": 0,
      "note": 71,
      "start": 36.1108,
      "duration": 0.4562,
      "velocity": 103,
      "chip": "ym2612"
    },
    {
      "channel": 1,
      "note": 60,
      "start": 36.1113,
      "duration": 0.3493,
      "velocity": 107,
      "chip": "ym2612"
    },
    {
      "channel": 2,
      "note": 90,
      "start": 36.1119,
      "duration": 0.3493,
      "velocity": 95,
      "chip": "ym2612"
    },
    {
      "channel": 3,
      "note": 87,
      "start": 36.1125,
      "duration": 0.3493,
      "velocity": 95,
      "chip": "ym2612"
    },
    {
      "channel": 4,
      "note": 79,
      "start": 36.2276,
      "duration": 0.1316,
      "velocity": 103,
      "chip": "ym2612"
    },
    {
      "channel": 4,
      "note": 78,
      "start": 36.3594,
      "duration": 0.2641,
      "velocity": 103,
      "chip": "ym2612"
    },
    {
      "channel": 1,
      "note": 59,
      "start": 36.4609,
      "duration": 0.3121,
      "velocity": 107,
      "chip": "ym2612"
    },
    {
      "channel": 2,
      "note": 87,
      "start": 36.4614,
      "duration": 0.3137,
      "velocity": 96,
      "chip": "ym2612"
    },
    {
      "channel": 3,
      "note": 83,
      "start": 36.462,
      "duration": 0.267,
      "velocity": 1,
      "chip": "ym2612"
    },
    {
      "channel": 0,
      "note": 70,
      "start": 36.5671,
      "duration": 0.013,
      "velocity": 103,
      "chip": "ym2612"
    },
    {
      "channel": 0,
      "note": 68,
      "start": 36.58,
      "duration": 0.0157,
      "velocity": 103,
      "chip": "ym2612"
    },
    {
      "channel": 0,
      "note": 67,
      "start": 36.5957,
      "duration": 0.0284,
      "velocity": 103,
      "chip": "ym2612"
    },
    {
      "channel": 4,
      "note": 83,
      "start": 36.6237,
      "duration": 0.1537,
      "velocity": 103,
      "chip": "ym2612"
    },
    {
      "channel": 0,
      "note": 66,
      "start": 36.6241,
      "duration": 0.0146,
      "velocity": 103,
      "chip": "ym2612"
    },
    {
      "channel": 0,
      "note": 66,
      "start": 36.6387,
      "duration": 0.0137,
      "velocity": 103,
      "chip": "ym2612"
    },
    {
      "channel": 0,
      "note": 65,
      "start": 36.6524,
      "duration": 0.0166,
      "velocity": 103,
      "chip": "ym2612"
    },
    {
      "channel": 0,
      "note": 64,
      "start": 36.6691,
      "duration": 0.0128,
      "velocity": 103,
      "chip": "ym2612"
    },
    {
      "channel": 0,
      "note": 63,
      "start": 36.6818,
      "duration": 0.0313,
      "velocity": 103,
      "chip": "ym2612"
    },
    {
      "channel": 0,
      "note": 61,
      "start": 36.7132,
      "duration": 0.0164,
      "velocity": 103,
      "chip": "ym2612"
    },
    {
      "channel": 3,
      "note": 79,
      "start": 36.7291,
      "duration": 0.4035,
      "velocity": 103,
      "chip": "ym2612"
    },
    {
      "channel": 0,
      "note": 60,
      "start": 36.7296,
      "duration": 0.0114,
      "velocity": 103,
      "chip": "ym2612"
    },
    {
      "channel": 0,
      "note": 59,
      "start": 36.741,
      "duration": 0.0136,
      "velocity": 103,
      "chip": "ym2612"
    },
    {
      "channel": 0,
      "note": 58,
      "start": 36.7546,
      "duration": 0.0178,
      "velocity": 96,
      "chip": "ym2612"
    },
    {
      "channel": 0,
      "note": 72,
      "start": 36.7725,
      "duration": 0.4561,
      "velocity": 96,
      "chip": "ym2612"
    },
    {
      "channel": 1,
      "note": 60,
      "start": 36.7731,
      "duration": 0.3557,
      "velocity": 107,
      "chip": "ym2612"
    },
    {
      "channel": 2,
      "note": 64,
      "start": 36.7753,
      "duration": 0.454,
      "velocity": 96,
      "chip": "ym2612"
    },
    {
      "channel": 4,
      "note": 72,
      "start": 36.7776,
      "duration": 0.3556,
      "velocity": 103,
      "chip": "ym2612"
    },
    {
      "channel": 1,
      "note": 72,
      "start": 37.129,
      "duration": 0.2017,
      "velocity": 107,
      "chip": "ym2612"
    },
    {
      "channel": 3,
      "note": 79,
      "start": 37.1328,
      "duration": 0.3268,
      "velocity": 103,
      "chip": "ym2612"
    },
    {
      "channel": 4,
      "note": 74,
      "start": 37.1334,
      "duration": 0.3268,
      "velocity": 103,
      "chip": "ym2612"
    },
    {
      "channel": 0,
      "note": 74,
      "start": 37.2288,
      "duration": 0.1013,
      "velocity": 96,
      "chip": "ym2612"
    },
    {
      "channel": 2,
      "note": 66,
      "start": 37.2294,
      "duration": 0.1018,
      "velocity": 96,
      "chip": "ym2612"
    },
    {
      "channel": 0,
      "note": 76,
      "start": 37.3303,
      "duration": 0.1277,
      "velocity": 96,
      "chip": "ym2612"
    },
    {
      "channel": 1,
      "note": 60,
      "start": 37.3309,
      "duration": 0.1277,
      "velocity": 107,
      "chip": "ym2612"
    },
    {
      "channel": 2,
      "note": 67,
      "start": 37.3315,
      "duration": 0.1277,
      "velocity": 96,
      "chip": "ym2612"
    },
    {
      "channel": 0,
      "note": 74,
      "start": 37.4582,
      "duration": 0.3442,
      "velocity": 96,
      "chip": "ym2612"
    },
    {
      "channel": 1,
      "note": 62,
      "start": 37.4587,
      "duration": 0.3442,
      "velocity": 107,
      "chip": "ym2612"
    },
    {
      "channel": 2,
      "note": 66,
      "start": 37.4593,
      "duration": 0.3443,
      "velocity": 96,
      "chip": "ym2612"
    },
    {
      "channel": 3,
      "note": 78,
      "start": 37.4598,
      "duration": 0.3443,
      "velocity": 103,
      "chip": "ym2612"
    },
    {
      "channel": 4,
      "note": 69,
      "start": 37.4604,
      "duration": 0.3443,
      "velocity": 103,
      "chip": "ym2612"
    },
    {
      "channel": 0,
      "note": 69,
      "start": 37.8026,
      "duration": 0.3279,
      "velocity": 96,
      "chip": "ym2612"
    },
    {
      "channel": 1,
      "note": 74,
      "start": 37.8032,
      "duration": 0.2207,
      "velocity": 107,
      "chip": "ym2612"
    },
    {
      "channel": 2,
      "note": 62,
      "start": 37.8037,
      "duration": 0.328,
      "velocity": 96,
      "chip": "ym2612"
    },
    {
      "channel": 3,
      "note": 74,
      "start": 37.8042,
      "duration": 0.328,
      "velocity": 103,
      "chip": "ym2612"
    },
    {
      "channel": 4,
      "note": 74,
      "start": 37.8048,
      "duration": 0.328,
      "velocity": 103,
      "chip": "ym2612"
    },
    {
      "channel": 1,
      "note": 62,
      "start": 38.0239,
      "duration": 0.1071,
      "velocity": 107,
      "chip": "ym2612"
    },
    {
      "channel": 0,
      "note": 71,
      "start": 38.1307,
      "duration": 0.2255,
      "velocity": 96,
      "chip": "ym2612"
    },
    {
      "channel": 1,
      "note": 55,
      "start": 38.1312,
      "duration": 0.3417,
      "velocity": 107,
      "chip": "ym2612"
    },
    {
      "channel": 2,
      "note": 67,
      "start": 38.1318,
      "duration": 0.225,
      "velocity": 96,
      "chip": "ym2612"
    },
    {
      "channel": 3,
      "note": 71,
      "start": 38.1323,
      "duration": 1.3316,
      "velocity": 103,
      "chip": "ym2612"
    },
    {
      "channel": 4,
      "note": 71,
      "start": 38.1329,
      "duration": 0.3424,
      "velocity": 102,
      "chip": "ym2612"
    },
    {
      "channel": 0,
      "note": 72,
      "start": 38.3563,
      "duration": 0.2304,
      "velocity": 96,
      "chip": "ym2612"
    },
    {
      "channel": 2,
      "note": 69,
      "start": 38.357,
      "duration": 0.2304,
      "velocity": 96,
      "chip": "ym2612"
    },
    {
      "channel": 1,
      "note": 67,
      "start": 38.4732,
      "duration": 0.2133,
      "velocity": 107,
      "chip": "ym2612"
    },
    {
      "channel": 4,
      "note": 79,
      "start": 38.4754,
      "duration": 0.3209,
      "velocity": 102,
      "chip": "ym2612"
    },
    {
      "channel": 0,
      "note": 74,
      "start": 38.5869,
      "duration": 0.2076,
      "velocity": 96,
      "chip": "ym2612"
    },
    {
      "channel": 2,
      "note": 71,
      "start": 38.5875,
      "duration": 0.2082,
      "velocity": 96,
      "chip": "ym2612"
    },
    {
      "channel": 1,
      "note": 62,
      "start": 38.6866,
      "duration": 0.1085,
      "velocity": 107,
      "chip": "ym2612"
    },
    {
      "channel": 0,
      "note": 67,
      "start": 38.7947,
      "duration": 0.6675,
      "velocity": 96,
      "chip": "ym2612"
    },
    {
      "channel": 1,
      "note": 55,
      "start": 38.7953,
      "duration": 0.3595,
      "velocity": 107,
      "chip": "ym2612"
    },
    {
      "channel": 2,
      "note": 62,
      "start": 38.7959,
      "duration": 0.6674,
      "velocity": 96,
      "chip": "ym2612"
    },
    {
      "channel": 4,
      "note": 81,
      "start": 38.7965,
      "duration": 0.3589,
      "velocity": 102,
      "chip": "ym2612"
    },
    {
      "channel": 1,
      "note": 67,
      "start": 39.1549,
      "duration": 0.2054,
      "velocity": 107,
      "chip": "ym2612"
    },
    {
      "channel": 4,
      "note": 83,
      "start": 39.1556,
      "duration": 0.3089,
      "velocity": 102,
      "chip": "ym2612"
    },
    {
      "channel": 1,
      "note": 62,
      "start": 39.3604,
      "duration": 0.1023,
      "velocity": 107,
      "chip": "ym2612"
    },
    {
      "channel": 0,
      "note": 72,
      "start": 39.4624,
      "duration": 0.4639,
      "velocity": 96,
      "chip": "ym2612"
    },
    {
      "channel": 1,
      "note": 60,
      "start": 39.4629,
      "duration": 0.3613,
      "velocity": 107,
      "chip": "ym2612"
    },
    {
      "channel": 2,
      "note": 64,
      "start": 39.4635,
      "duration": 0.4634,
      "velocity": 96,
      "chip": "ym2612"
    },
    {
      "channel": 3,
      "note": 72,
      "start": 39.464,
      "duration": 0.3609,
      "velocity": 103,
      "chip": "ym2612"
    },
    {
      "channel": 4,
      "note": 76,
      "start": 39.4646,
      "duration": 0.243,
      "velocity": 102,
      "chip": "ym2612"
    },
    {
      "channel": 4,
      "note": 78,
      "start": 39.7078,
      "duration": 0.2197,
      "velocity": 102,
      "chip": "ym2612"
    },
    {
      "channel": 1,
      "note": 72,
      "start": 39.8244,
      "duration": 0.2062,
      "velocity": 107,
      "chip": "ym2612"
    },
    {
      "channel": 3,
      "note": 79,
      "start": 39.8251,
      "duration": 0.3186,
      "velocity": 103,
      "chip": "ym2612"
    },
    {
      "channel": 0,
      "note": 74,
      "start": 39.9265,
      "duration": 0.1037,
      "velocity": 96,
      "chip": "ym2612"
    },
    {
      "channel": 2,
      "note": 66,
      "start": 39.9271,
      "duration": 0.1042,
      "velocity": 96,
      "chip": "ym2612"
    },
    {
      "channel": 4,
      "note": 79,
      "start": 39.9277,
      "duration": 0.2166,
      "velocity": 102,
      "chip": "ym2612"
    },
    {
      "channel": 0,
      "note": 76,
      "start": 40.0303,
      "duration": 0.1117,
      "velocity": 96,
      "chip": "ym2612"
    },
    {
      "channel": 1,
      "note": 60,
      "start": 40.0309,
      "duration": 0.1117,
      "velocity": 107,
      "chip": "ym2612"
    },
    {
      "channel": 2,
      "note": 67,
      "start": 40.0315,
      "duration": 0.1117,
      "velocity": 96,
      "chip": "ym2612"
    },
    {
      "channel": 0,
      "note": 74,
      "start": 40.1422,
      "duration": 0.3579,
      "velocity": 96,
      "chip": "ym2612"
    },
    {
      "channel": 1,
      "note": 62,
      "start": 40.1427,
      "duration": 0.3579,
      "velocity": 107,
      "chip": "ym2612"
    },
    {
      "channel": 2,
      "note": 66,
      "start": 40.1433,
      "duration": 0.3579,
      "velocity": 96,
      "chip": "ym2612"
    },
    {
      "channel": 3,
      "note": 81,
      "start": 40.1438,
      "duration": 0.3579,
      "velocity": 103,
      "chip": "ym2612"
    },
    {
      "channel": 4,
      "note": 78,
      "start": 40.1444,
      "duration": 0.239,
      "velocity": 102,
      "chip": "ym2612"
    },
    {
      "channel": 4,
      "note": 79,
      "start": 40.3836,
      "duration": 0.2225,
      "velocity": 102,
      "chip": "ym2612"
    },
    {
      "channel": 0,
      "note": 69,
      "start": 40.5002,
      "duration": 0.3213,
      "velocity": 96,
      "chip": "ym2612"
    },
    {
      "channel": 1,
      "note": 74,
      "start": 40.5008,
      "duration": 0.2046,
      "velocity": 107,
      "chip": "ym2612"
    },
    {
      "channel": 2,
      "note": 62,
      "start": 40.5014,
      "duration": 0.3213,
      "velocity": 96,
      "chip": "ym2612"
    },
    {
      "channel": 3,
      "note": 78,
      "start": 40.5019,
      "duration": 0.3213,
      "velocity": 103,
      "chip": "ym2612"
    },
    {
      "channel": 4,
      "note": 81,
      "start": 40.6063,
      "duration": 0.2175,
      "velocity": 102,
      "chip": "ym2612"
    },
    {
      "channel": 1,
      "note": 62,
      "start": 40.7055,
      "duration": 0.1165,
      "velocity": 107,
      "chip": "ym2612"
    },
    {
      "channel": 0,
      "note": 71,
      "start": 40.8217,
      "duration": 1.3374,
      "velocity": 96,
      "chip": "ym2612"
    },
    {
      "channel": 1,
      "note": 52,
      "start": 40.8222,
      "duration": 0.3436,
      "velocity": 107,
      "chip": "ym2612"
    },
    {
      "channel": 2,
      "note": 67,
      "start": 40.8228,
      "duration": 1.3376,
      "velocity": 96,
      "chip": "ym2612"
    },
    {
      "channel": 3,
      "note": 74,
      "start": 40.8233,
      "duration": 1.3392,
      "velocity": 102,
      "chip": "ym2612"
    },
    {
      "channel": 4,
      "note": 83,
      "start": 40.8239,
      "duration": 0.109,
      "velocity": 102,
      "chip": "ym2612"
    },
    {
      "channel": 4,
      "note": 81,
      "start": 40.933,
      "duration": 0.1163,
      "velocity": 102,
      "chip": "ym2612"
    },
    {
      "channel": 4,
      "note": 79,
      "start": 41.0495,
      "duration": 0.1171,
      "velocity": 102,
      "chip": "ym2612"
    },
    {
      "channel": 1,
      "note": 64,
      "start": 41.1661,
      "duration": 0.2184,
      "velocity": 107,
      "chip": "ym2612"
    },
    {
      "channel": 4,
      "note": 78,
      "start": 41.1668,
      "duration": 0.2184,
      "velocity": 102,
      "chip": "ym2612"
    },
    {
      "channel": 1,
      "note": 59,
      "start": 41.3846,
      "duration": 0.1111,
      "velocity": 107,
      "chip": "ym2612"
    },
    {
      "channel": 4,
      "note": 76,
      "start": 41.3854,
      "duration": 0.111,
      "velocity": 102,
      "chip": "ym2612"
    },
    {
      "channel": 1,
      "note": 52,
      "start": 41.4958,
      "duration": 0.3415,
      "velocity": 107,
      "chip": "ym2612"
    },
    {
      "channel": 4,
      "note": 71,
      "start": 41.4965,
      "duration": 0.2326,
      "velocity": 102,
      "chip": "ym2612"
    },
    {
      "channel": 4,
      "note": 67,
      "start": 41.7294,
      "duration": 0.1085,
      "velocity": 102,
      "chip": "ym2612"
    },
    {
      "channel": 1,
      "note": 64,
      "start": 41.8374,
      "duration": 0.219,
      "velocity": 107,
      "chip": "ym2612"
    },
    {
      "channel": 4,
      "note": 66,
      "start": 41.8381,
      "duration": 0.219,
      "velocity": 102,
      "chip": "ym2612"
    },
    {
      "channel": 1,
      "note": 59,
      "start": 42.0566,
      "duration": 0.1032,
      "velocity": 107,
      "chip": "ym2612"
    },
    {
      "channel": 4,
      "note": 64,
      "start": 42.0573,
      "duration": 0.1059,
      "velocity": 102,
      "chip": "ym2612"
    },
    {
      "channel": 0,
      "note": 72,
      "start": 42.1593,
      "duration": 0.458,
      "velocity": 96,
      "chip": "ym2612"
    },
    {
      "channel": 1,
      "note": 60,
      "start": 42.16,
      "duration": 0.3575,
      "velocity": 107,
      "chip": "ym2612"
    },
    {
      "channel": 2,
      "note": 64,
      "start": 42.1606,
      "duration": 0.4574,
      "velocity": 96,
      "chip": "ym2612"
    },
    {
      "channel": 3,
      "note": 72,
      "start": 42.1627,
      "duration": 0.2213,
      "velocity": 102,
      "chip": "ym2612"
    },
    {
      "channel": 4,
      "note": 60,
      "start": 42.1634,
      "duration": 0.1058,
      "velocity": 1,
      "chip": "ym2612"
    },
    {
      "channel": 4,
      "note": 79,
      "start": 42.2694,
      "duration": 0.2519,
      "velocity": 111,
      "chip": "ym2612"
    },
    {
      "channel": 3,
      "note": 74,
      "start": 42.3843,
      "duration": 0.2343,
      "velocity": 102,
      "chip": "ym2612"
    },
    {
      "channel": 1,
      "note": 72,
      "start": 42.5176,
      "duration": 0.2041,
      "velocity": 107,
      "chip": "ym2612"
    },
    {
      "channel": 4,
      "note": 84,
      "start": 42.5215,
      "duration": 0.3116,
      "velocity": 111,
      "chip": "ym2612"
    },
    {
      "channel": 0,
      "note": 74,
      "start": 42.6175,
      "duration": 0.1036,
      "velocity": 96,
      "chip": "ym2612"
    },
    {
      "channel": 2,
      "note": 66,
      "start": 42.6181,
      "duration": 0.1041,
      "velocity": 96,
      "chip": "ym2612"
    },
    {
      "channel": 3,
      "note": 76,
      "start": 42.6187,
      "duration": 0.2139,
      "velocity": 102,
      "chip": "ym2612"
    },
    {
      "channel": 0,
      "note": 76,
      "start": 42.7213,
      "duration": 0.1095,
      "velocity": 96,
      "chip": "ym2612"
    },
    {
      "channel": 1,
      "note": 60,
      "start": 42.7218,
      "duration": 0.1095,
      "velocity": 107,
      "chip": "ym2612"
    },
    {
      "channel": 2,
      "note": 67,
      "start": 42.7224,
      "duration": 0.1095,
      "velocity": 96,
      "chip": "ym2612"
    },
    {
      "channel": 0,
      "note": 74,
      "start": 42.831,
      "duration": 0.3561,
      "velocity": 96,
      "chip": "ym2612"
    },
    {
      "channel": 1,
      "note": 62,
      "start": 42.8316,
      "duration": 0.3561,
      "velocity": 107,
      "chip": "ym2612"
    },
    {
      "channel": 2,
      "note": 66,
      "start": 42.8321,
      "duration": 0.3561,
      "velocity": 96,
      "chip": "ym2612"
    },
    {
      "channel": 3,
      "note": 74,
      "start": 42.8327,
      "duration": 0.2378,
      "velocity": 102,
      "chip": "ym2612"
    },
    {
      "channel": 4,
      "note": 86,
      "start": 42.8332,
      "duration": 0.1041,
      "velocity": 111,
      "chip": "ym2612"
    },
    {
      "channel": 4,
      "note": 84,
      "start": 42.9375,
      "duration": 0.1335,
      "velocity": 111,
      "chip": "ym2612"
    },
    {
      "channel": 3,
      "note": 76,
      "start": 43.0707,
      "duration": 0.2203,
      "velocity": 102,
      "chip": "ym2612"
    },
    {
      "channel": 4,
      "note": 83,
      "start": 43.0712,
      "duration": 0.1176,
      "velocity": 111,
      "chip": "ym2612"
    },
    {
      "channel": 0,
      "note": 69,
      "start": 43.1873,
      "duration": 0.3048,
      "velocity": 96,
      "chip": "ym2612"
    },
    {
      "channel": 1,
      "note": 74,
      "start": 43.1878,
      "duration": 0.2024,
      "velocity": 107,
      "chip": "ym2612"
    },
    {
      "channel": 2,
      "note": 62,
      "start": 43.1884,
      "duration": 0.3048,
      "velocity": 96,
      "chip": "ym2612"
    },
    {
      "channel": 4,
      "note": 81,
      "start": 43.189,
      "duration": 0.202,
      "velocity": 111,
      "chip": "ym2612"
    },
    {
      "channel": 3,
      "note": 78,
      "start": 43.2911,
      "duration": 0.2026,
      "velocity": 102,
      "chip": "ym2612"
    },
    {
      "channel": 1,
      "note": 62,
      "start": 43.3905,
      "duration": 0.1021,
      "velocity": 107,
      "chip": "ym2612"
    },
    {
      "channel": 4,
      "note": 79,
      "start": 43.3912,
      "duration": 0.1032,
      "velocity": 111,
      "chip": "ym2612"
    },
    {
      "channel": 0,
      "note": 71,
      "start": 43.4922,
      "duration": 0.2405,
      "velocity": 96,
      "chip": "ym2612"
    },
    {
      "channel": 1,
      "note": 55,
      "start": 43.4928,
      "duration": 0.3568,
      "velocity": 107,
      "chip": "ym2612"
    },
    {
      "channel": 2,
      "note": 67,
      "start": 43.4933,
      "duration": 0.24,
      "velocity": 96,
      "chip": "ym2612"
    },
    {
      "channel": 3,
      "note": 79,
      "start": 43.4939,
      "duration": 0.24,
      "velocity": 102,
      "chip": "ym2612"
    },
    {
      "channel": 4,
      "note": 83,
      "start": 43.4945,
      "duration": 0.3558,
      "velocity": 111,
      "chip": "ym2612"
    },
    {
      "channel": 0,
      "note": 72,
      "start": 43.7329,
      "duration": 0.2144,
      "velocity": 96,
      "chip": "ym2612"
    },
    {
      "channel": 2,
      "note": 69,
      "start": 43.7335,
      "duration": 0.2144,
      "velocity": 96,
      "chip": "ym2612"
    },
    {
      "channel": 3,
      "note": 81,
      "start": 43.7341,
      "duration": 0.2144,
      "velocity": 102,
      "chip": "ym2612"
    },
    {
      "channel": 1,
      "note": 67,
      "start": 43.8498,
      "duration": 0.1973,
      "velocity": 107,
      "chip": "ym2612"
    },
    {
      "channel": 4,
      "note": 79,
      "start": 43.8505,
      "duration": 0.324,
      "velocity": 111,
      "chip": "ym2612"
    },
    {
      "channel": 0,
      "note": 74,
      "start": 43.9475,
      "duration": 0.2247,
      "velocity": 96,
      "chip": "ym2612"
    },
    {
      "channel": 2,
      "note": 71,
      "start": 43.948,
      "duration": 0.2253,
      "velocity": 96,
      "chip": "ym2612"
    },
    {
      "channel": 3,
      "note": 83,
      "start": 43.9486,
      "duration": 0.2253,
      "velocity": 102,
      "chip": "ym2612"
    },
    {
      "channel": 1,
      "note": 62,
      "start": 44.0473,
      "duration": 0.1254,
      "velocity": 107,
      "chip": "ym2612"
    },
    {
      "channel": 0,
      "note": 67,
      "start": 44.1723,
      "duration": 0.6593,
      "velocity": 96,
      "chip": "ym2612"
    },
    {
      "channel": 1,
      "note": 55,
      "start": 44.1729,
      "duration": 0.3407,
      "velocity": 107,
      "chip": "ym2612"
    },
    {
      "channel": 2,
      "note": 62,
      "start": 44.1735,
      "duration": 0.6593,
      "velocity": 96,
      "chip": "ym2612"
    },
    {
      "channel": 3,
      "note": 86,
      "start": 44.174,
      "duration": 0.6593,
      "velocity": 102,
      "chip": "ym2612"
    },
    {
      "channel": 4,
      "note": 74,
      "start": 44.1746,
      "duration": 0.661,
      "velocity": 103,
      "chip": "ym2612"
    },
    {
      "channel": 1,
      "note": 67,
      "start": 44.5137,
      "duration": 0.2169,
      "velocity": 107,
      "chip": "ym2612"
    },
    {
      "channel": 1,
      "note": 62,
      "start": 44.7308,
      "duration": 0.1014,
      "velocity": 107,
      "chip": "ym2612"
    },
    {
      "channel": 0,
      "note": 72,
      "start": 44.8318,
      "duration": 0.4591,
      "velocity": 96,
      "chip": "ym2612"
    },
    {
      "channel": 1,
      "note": 60,
      "start": 44.8324,
      "duration": 0.341,
      "velocity": 107,
      "chip": "ym2612"
    },
    {
      "channel": 2,
      "note": 64,
      "start": 44.8329,
      "duration": 0.4586,
      "velocity": 96,
      "chip": "ym2612"
    },
    {
      "channel": 3,
      "note": 84,
      "start": 44.8335,
      "duration": 0.4587,
      "velocity": 102,
      "chip": "ym2612"
    },
    {
      "channel": 4,
      "note": 72,
      "start": 44.8357,
      "duration": 0.1046,
      "velocity": 103,
      "chip": "ym2612"
    },
    {
      "channel": 4,
      "note": 74,
      "start": 44.9405,
      "duration": 0.1163,
      "velocity": 103,
      "chip": "ym2612"
    },
    {
      "channel": 4,
      "note": 76,
      "start": 45.057,
      "duration": 0.1171,
      "velocity": 103,
      "chip": "ym2612"
    },
    {
      "channel": 1,
      "note": 72,
      "start": 45.1735,
      "duration": 0.2199,
      "velocity": 107,
      "chip": "ym2612"
    },
    {
      "channel": 4,
      "note": 74,
      "start": 45.1742,
      "duration": 0.1185,
      "velocity": 103,
      "chip": "ym2612"
    },
    {
      "channel": 0,
      "note": 74,
      "start": 45.2912,
      "duration": 0.1016,
      "velocity": 96,
      "chip": "ym2612"
    },
    {
      "channel": 2,
      "note": 66,
      "start": 45.2918,
      "duration": 0.1021,
      "velocity": 96,
      "chip": "ym2612"
    },
    {
      "channel": 3,
      "note": 83,
      "start": 45.2923,
      "duration": 0.1022,
      "velocity": 102,
      "chip": "ym2612"
    },
    {
      "channel": 4,
      "note": 76,
      "start": 45.2929,
      "duration": 0.1022,
      "velocity": 103,
      "chip": "ym2612"
    },
    {
      "channel": 0,
      "note": 76,
      "start": 45.393,
      "duration": 0.1109,
      "velocity": 96,
      "chip": "ym2612"
    },
    {
      "channel": 1,
      "note": 60,
      "start": 45.3935,
      "duration": 0.1109,
      "velocity": 107,
      "chip": "ym2612"
    },
    {
      "channel": 2,
      "note": 67,
      "start": 45.3941,
      "duration": 0.111,
      "velocity": 96,
      "chip": "ym2612"
    },
    {
      "channel": 3,
      "note": 84,
      "start": 45.3946,
      "duration": 0.111,
      "velocity": 102,
      "chip": "ym2612"
    },
    {
      "channel": 4,
      "note": 78,
      "start": 45.3952,
      "duration": 0.111,
      "velocity": 103,
      "chip": "ym2612"
    },
    {
      "channel": 0,
      "note": 74,
      "start": 45.5041,
      "duration": 0.356,
      "velocity": 96,
      "chip": "ym2612"
    },
    {
      "channel": 1,
      "note": 62,
      "start": 45.5046,
      "duration": 0.356,
      "velocity": 107,
      "chip": "ym2612"
    },
    {
      "channel": 2,
      "note": 66,
      "start": 45.5052,
      "duration": 0.356,
      "velocity": 96,
      "chip": "ym2612"
    },
    {
      "channel": 3,
      "note": 83,
      "start": 45.5057,
      "duration": 0.221,
      "velocity": 102,
      "chip": "ym2612"
    },
    {
      "channel": 4,
      "note": 76,
      "start": 45.5063,
      "duration": 0.104,
      "velocity": 103,
      "chip": "ym2612"
    },
    {
      "channel": 4,
      "note": 78,
      "start": 45.6105,
      "duration": 0.1169,
      "velocity": 103,
      "chip": "ym2612"
    },
    {
      "channel": 3,
      "note": 81,
      "start": 45.727,
      "duration": 0.2388,
      "velocity": 102,
      "chip": "ym2612"
    },
    {
      "channel": 4,
      "note": 79,
      "start": 45.7275,
      "duration": 0.1343,
      "velocity": 103,
      "chip": "ym2612"
    },
    {
      "channel": 0,
      "note": 69,
      "start": 45.8602,
      "duration": 0.3106,
      "velocity": 96,
      "chip": "ym2612"
    },
    {
      "channel": 1,
      "note": 74,
      "start": 45.8608,
      "duration": 0.2063,
      "velocity": 107,
      "chip": "ym2612"
    },
    {
      "channel": 2,
      "note": 62,
      "start": 45.8614,
      "duration": 0.3122,
      "velocity": 103,
      "chip": "ym2612"
    },
    {
      "channel": 4,
      "note": 78,
      "start": 45.862,
      "duration": 0.1043,
      "velocity": 103,
      "chip": "ym2612"
    },
    {
      "channel": 3,
      "note": 79,
      "start": 45.9659,
      "duration": 0.2082,
      "velocity": 102,
      "chip": "ym2612"
    },
    {
      "channel": 4,
      "note": 79,
      "start": 45.9665,
      "duration": 0.1012,
      "velocity": 103,
      "chip": "ym2612"
    },
    {
      "channel": 1,
      "note": 62,
      "start": 46.0672,
      "duration": 0.1042,
      "velocity": 107,
      "chip": "ym2612"
    },
    {
      "channel": 4,
      "note": 81,
      "start": 46.0679,
      "duration": 0.1084,
      "velocity": 102,
      "chip": "ym2612"
    },
    {
      "channel": 0,
      "note": 71,
      "start": 46.171,
      "duration": 0.3637,
      "velocity": 102,
      "chip": "ym2612"
    },
    {
      "channel": 1,
      "note": 63,
      "start": 46.1715,
      "duration": 0.3637,
      "velocity": 107,
      "chip": "ym2612"
    },
    {
      "channel": 2,
      "note": 95,
      "start": 46.1737,
      "duration": 0.1095,
      "velocity": 103,
      "chip": "ym2612"
    },
    {
      "channel": 3,
      "note": 78,
      "start": 46.1743,
      "duration": 0.3621,
      "velocity": 102,
      "chip": "ym2612"
    },
    {
      "channel": 4,
      "note": 81,
      "start": 46.1765,
      "duration": 0.3605,
      "velocity": 102,
      "chip": "ym2612"
    },
    {
      "channel": 2,
      "note": 96,
      "start": 46.2834,
      "duration": 0.1329,
      "velocity": 103,
      "chip": "ym2612"
    },
    {
      "channel": 2,
      "note": 95,
      "start": 46.4166,
      "duration": 0.1193,
      "velocity": 103,
      "chip": "ym2612"
    },
    {
      "channel": 0,
      "note": 63,
      "start": 46.5349,
      "duration": 0.3279,
      "velocity": 102,
      "chip": "ym2612"
    },
    {
      "channel": 1,
      "note": 75,
      "start": 46.5354,
      "duration": 0.2171,
      "velocity": 107,
      "chip": "ym2612"
    },
    {
      "channel": 2,
      "note": 93,
      "start": 46.536,
      "duration": 0.1071,
      "velocity": 103,
      "chip": "ym2612"
    },
    {
      "channel": 3,
      "note": 59,
      "start": 46.5365,
      "duration": 0.3279,
      "velocity": 102,
      "chip": "ym2612"
    },
    {
      "channel": 4,
      "note": 54,
      "start": 46.5371,
      "duration": 0.3279,
      "velocity": 102,
      "chip": "ym2612"
    },
    {
      "channel": 2,
      "note": 95,
      "start": 46.6433,
      "duration": 0.1097,
      "velocity": 103,
      "chip": "ym2612"
    },
    {
      "channel": 1,
      "note": 63,
      "start": 46.7527,
      "duration": 0.1106,
      "velocity": 107,
      "chip": "ym2612"
    },
    {
      "channel": 2,
      "note": 93,
      "start": 46.7532,
      "duration": 0.1106,
      "velocity": 103,
      "chip": "ym2612"
    },
    {
      "channel": 0,
      "note": 66,
      "start": 46.8629,
      "duration": 0.3213,
      "velocity": 102,
      "chip": "ym2612"
    },
    {
      "channel": 1,
      "note": 59,
      "start": 46.8635,
      "duration": 0.3213,
      "velocity": 107,
      "chip": "ym2612"
    },
    {
      "channel": 2,
      "note": 91,
      "start": 46.864,
      "duration": 0.1164,
      "velocity": 103,
      "chip": "ym2612"
    },
    {
      "channel": 3,
      "note": 63,
      "start": 46.8646,
      "duration": 0.3214,
      "velocity": 102,
      "chip": "ym2612"
    },
    {
      "channel": 4,
      "note": 59,
      "start": 46.8651,
      "duration": 0.3214,
      "velocity": 102,
      "chip": "ym2612"
    },
    {
      "channel": 2,
      "note": 93,
      "start": 46.9806,
      "duration": 0.0993,
      "velocity": 103,
      "chip": "ym2612"
    },
    {
      "channel": 2,
      "note": 91,
      "start": 47.08,
      "duration": 0.1054,
      "velocity": 103,
      "chip": "ym2612"
    },
    {
      "channel": 0,
      "note": 71,
      "start": 47.1844,
      "duration": 0.2096,
      "velocity": 102,
      "chip": "ym2612"
    },
    {
      "channel": 1,
      "note": 71,
      "start": 47.185,
      "duration": 0.2076,
      "velocity": 107,
      "chip": "ym2612"
    },
    {
      "channel": 2,
      "note": 90,
      "start": 47.1856,
      "duration": 0.1033,
      "velocity": 103,
      "chip": "ym2612"
    },
    {
      "channel": 3,
      "note": 66,
      "start": 47.1861,
      "duration": 0.2083,
      "velocity": 102,
      "chip": "ym2612"
    },
    {
      "channel": 4,
      "note": 63,
      "start": 47.1866,
      "duration": 0.208,
      "velocity": 102,
      "chip": "ym2612"
    },
    {
      "channel": 2,
      "note": 91,
      "start": 47.289,
      "duration": 0.1041,
      "velocity": 103,
      "chip": "ym2612"
    },
    {
      "channel": 1,
      "note": 59,
      "start": 47.3927,
      "duration": 0.1219,
      "velocity": 107,
      "chip": "ym2612"
    },
    {
      "channel": 2,
      "note": 90,
      "start": 47.3932,
      "duration": 0.1235,
      "velocity": 95,
      "chip": "ym2612"
    },
    {
      "channel": 0,
      "note": 70,
      "start": 47.394,
      "duration": 0.0295,
      "velocity": 102,
      "chip": "ym2612"
    },
    {
      "channel": 3,
      "note": 66,
      "start": 47.3944,
      "duration": 0.0295,
      "velocity": 102,
      "chip": "ym2612"
    },
    {
      "channel": 4,
      "note": 62,
      "start": 47.3946,
      "duration": 0.0295,
      "velocity": 102,
      "chip": "ym2612"
    },
    {
      "channel": 0,
      "note": 69,
      "start": 47.4235,
      "duration": 0.0139,
      "velocity": 102,
      "chip": "ym2612"
    },
    {
      "channel": 3,
      "note": 65,
      "start": 47.4239,
      "duration": 0.0139,
      "velocity": 102,
      "chip": "ym2612"
    },
    {
      "channel": 4,
      "note": 62,
      "start": 47.4242,
      "duration": 0.0139,
      "velocity": 102,
      "chip": "ym2612"
    },
    {
      "channel": 0,
      "note": 69,
      "start": 47.4373,
      "duration": 0.0139,
      "velocity": 102,
      "chip": "ym2612"
    },
    {
      "channel": 3,
      "note": 64,
      "start": 47.4377,
      "duration": 0.0139,
      "velocity": 102,
      "chip": "ym2612"
    },
    {
      "channel": 4,
      "note": 61,
      "start": 47.438,
      "duration": 0.0139,
      "velocity": 102,
      "chip": "ym2612"
    },
    {
      "channel": 0,
      "note": 68,
      "start": 47.4512,
      "duration": 0.0158,
      "velocity": 102,
      "chip": "ym2612"
    },
    {
      "channel": 3,
      "note": 64,
      "start": 47.4516,
      "duration": 0.0158,
      "velocity": 102,
      "chip": "ym2612"
    },
    {
      "channel": 4,
      "note": 60,
      "start": 47.4519,
      "duration": 0.0158,
      "velocity": 102,
      "chip": "ym2612"
    },
    {
      "channel": 0,
      "note": 67,
      "start": 47.467,
      "duration": 0.0158,
      "velocity": 102,
      "chip": "ym2612"
    },
    {
      "channel": 3,
      "note": 63,
      "start": 47.4673,
      "duration": 0.0158,
      "velocity": 102,
      "chip": "ym2612"
    },
    {
      "channel": 4,
      "note": 60,
      "start": 47.4676,
      "duration": 0.0158,
      "velocity": 102,
      "chip": "ym2612"
    },
    {
      "channel": 0,
      "note": 67,
      "start": 47.4828,
      "duration": 0.0312,
      "velocity": 103,
      "chip": "ym2612"
    },
    {
      "channel": 3,
      "note": 63,
      "start": 47.4832,
      "duration": 0.0363,
      "velocity": 102,
      "chip": "ym2612"
    },
    {
      "channel": 4,
      "note": 59,
      "start": 47.4834,
      "duration": 0.0363,
      "velocity": 102,
      "chip": "ym2612"
    },
    {
      "channel": 0,
      "note": 64,
      "start": 47.5141,
      "duration": 0.3434,
      "velocity": 103,
      "chip": "ym2612"
    },
    {
      "channel": 1,
      "note": 52,
      "start": 47.5147,
      "duration": 0.3433,
      "velocity": 107,
      "chip": "ym2612"
    },
    {
      "channel": 2,
      "note": 64,
      "start": 47.5169,
      "duration": 0.2224,
      "velocity": 95,
      "chip": "ym2612"
    },
    {
      "channel": 3,
      "note": 62,
      "start": 47.5195,
      "duration": 0.0076,
      "velocity": 102,
      "chip": "ym2612"
    },
    {
      "channel": 4,
      "note": 58,
      "start": 47.5197,
      "duration": 0.0077,
      "velocity": 102,
      "chip": "ym2612"
    },
    {
      "channel": 3,
      "note": 61,
      "start": 47.5271,
      "duration": 0.0157,
      "velocity": 102,
      "chip": "ym2612"
    },
    {
      "channel": 4,
      "note": 57,
      "start": 47.5274,
      "duration": 0.0156,
      "velocity": 102,
      "chip": "ym2612"
    },
    {
      "channel": 3,
      "note": 61,
      "start": 47.5428,
      "duration": 0.0166,
      "velocity": 102,
      "chip": "ym2612"
    },
    {
      "channel": 4,
      "note": 57,
      "start": 47.543,
      "duration": 0.0166,
      "velocity": 102,
      "chip": "ym2612"
    },
    {
      "channel": 3,
      "note": 60,
      "start": 47.5594,
      "duration": 0.013,
      "velocity": 102,
      "chip": "ym2612"
    },
    {
      "channel": 4,
      "note": 56,
      "start": 47.5596,
      "duration": 0.0131,
      "velocity": 102,
      "chip": "ym2612"
    },
    {
      "channel": 3,
      "note": 59,
      "start": 47.5724,
      "duration": 0.0332,
      "velocity": 102,
      "chip": "ym2612"
    },
    {
      "channel": 4,
      "note": 55,
      "start": 47.5727,
      "duration": 0.0332,
      "velocity": 102,
      "chip": "ym2612"
    },
    {
      "channel": 3,
      "note": 59,
      "start": 47.6056,
      "duration": 0.0203,
      "velocity": 95,
      "chip": "ym2612"
    },
    {
      "channel": 4,
      "note": 55,
      "start": 47.6059,
      "duration": 0.0207,
      "velocity": 102,
      "chip": "ym2612"
    },
    {
      "channel": 3,
      "note": 67,
      "start": 47.626,
      "duration": 0.2326,
      "velocity": 95,
      "chip": "ym2612"
    },
    {
      "channel": 4,
      "note": 54,
      "start": 47.6266,
      "duration": 0.0124,
      "velocity": 102,
      "chip": "ym2612"
    },
    {
      "channel": 4,
      "note": 54,
      "start": 47.639,
      "duration": 0.0167,
      "velocity": 102,
      "chip": "ym2612"
    },
    {
      "channel": 4,
      "note": 53,
      "start": 47.6556,
      "duration": 0.0173,
      "velocity": 102,
      "chip": "ym2612"
    },
    {
      "channel": 4,
      "note": 53,
      "start": 47.673,
      "duration": 0.0327,
      "velocity": 102,
      "chip": "ym2612"
    },
    {
      "channel": 4,
      "note": 52,
      "start": 47.7056,
      "duration": 0.0167,
      "velocity": 102,
      "chip": "ym2612"
    },
    {
      "channel": 4,
      "note": 52,
      "start": 47.7223,
      "duration": 0.0192,
      "velocity": 103,
      "chip": "ym2612"
    },
    {
      "channel": 2,
      "note": 71,
      "start": 47.7395,
      "duration": 1.1225,
      "velocity": 95,
      "chip": "ym2612"
    },
    {
      "channel": 4,
      "note": 64,
      "start": 47.7417,
      "duration": 0.3363,
      "velocity": 103,
      "chip": "ym2612"
    },
    {
      "channel": 0,
      "note": 76,
      "start": 47.8576,
      "duration": 0.3307,
      "velocity": 103,
      "chip": "ym2612"
    },
    {
      "channel": 1,
      "note": 64,
      "start": 47.8582,
      "duration": 0.2191,
      "velocity": 107,
      "chip": "ym2612"
    },
    {
      "channel": 3,
      "note": 76,
      "start": 47.8589,
      "duration": 1.1104,
      "velocity": 95,
      "chip": "ym2612"
    },
    {
      "channel": 1,
      "note": 52,
      "start": 48.0775,
      "duration": 0.1114,
      "velocity": 107,
      "chip": "ym2612"
    },
    {
      "channel": 4,
      "note": 76,
      "start": 48.0782,
      "duration": 0.113,
      "velocity": 1,
      "chip": "ym2612"
    },
    {
      "channel": 0,
      "note": 76,
      "start": 48.1885,
      "duration": 0.3435,
      "velocity": 103,
      "chip": "ym2612"
    },
    {
      "channel": 1,
      "note": 55,
      "start": 48.1891,
      "duration": 0.3434,
      "velocity": 107,
      "chip": "ym2612"
    },
    {
      "channel": 4,
      "note": 67,
      "start": 48.1914,
      "duration": 0.2241,
      "velocity": 103,
      "chip": "ym2612"
    },
    {
      "channel": 4,
      "note": 76,
      "start": 48.4157,
      "duration": 0.335,
      "velocity": 103,
      "chip": "ym2612"
    },
    {
      "channel": 0,
      "note": 71,
      "start": 48.5322,
      "duration": 0.3287,
      "velocity": 103,
      "chip": "ym2612"
    },
    {
      "channel": 1,
      "note": 67,
      "start": 48.5327,
      "duration": 0.2173,
      "velocity": 107,
      "chip": "ym2612"
    },
    {
      "channel": 1,
      "note": 55,
      "start": 48.7502,
      "duration": 0.1111,
      "velocity": 107,
      "chip": "ym2612"
    },
    {
      "channel": 4,
      "note": 71,
      "start": 48.751,
      "duration": 0.1133,
      "velocity": 1,
      "chip": "ym2612"
    },
    {
      "channel": 0,
      "note": 66,
      "start": 48.861,
      "duration": 0.3581,
      "velocity": 103,
      "chip": "ym2612"
    },
    {
      "channel": 1,
      "note": 54,
      "start": 48.8616,
      "duration": 0.3581,
      "velocity": 107,
      "chip": "ym2612"
    },
    {
      "channel": 2,
      "note": 66,
      "start": 48.8622,
      "duration": 0.2221,
      "velocity": 95,
      "chip": "ym2612"
    },
    {
      "channel": 4,
      "note": 67,
      "start": 48.8644,
      "duration": 0.2221,
      "velocity": 103,
      "chip": "ym2612"
    },
    {
      "channel": 3,
      "note": 71,
      "start": 48.9693,
      "duration": 0.251,
      "velocity": 95,
      "chip": "ym2612"
    },
    {
      "channel": 2,
      "note": 75,
      "start": 49.0844,
      "duration": 1.1283,
      "velocity": 95,
      "chip": "ym2612"
    },
    {
      "channel": 4,
      "note": 66,
      "start": 49.0866,
      "duration": 0.3392,
      "velocity": 103,
      "chip": "ym2612"
    },
    {
      "channel": 0,
      "note": 78,
      "start": 49.2193,
      "duration": 0.3187,
      "velocity": 103,
      "chip": "ym2612"
    },
    {
      "channel": 1,
      "note": 66,
      "start": 49.2198,
      "duration": 0.2054,
      "velocity": 107,
      "chip": "ym2612"
    },
    {
      "channel": 3,
      "note": 78,
      "start": 49.2204,
      "duration": 1.1177,
      "velocity": 95,
      "chip": "ym2612"
    },
    {
      "channel": 1,
      "note": 54,
      "start": 49.4253,
      "duration": 0.1132,
      "velocity": 107,
      "chip": "ym2612"
    },
    {
      "channel": 4,
      "note": 78,
      "start": 49.426,
      "duration": 0.1149,
      "velocity": 1,
      "chip": "ym2612"
    },
    {
      "channel": 0,
      "note": 78,
      "start": 49.5381,
      "duration": 0.3611,
      "velocity": 103,
      "chip": "ym2612"
    },
    {
      "channel": 1,
      "note": 60,
      "start": 49.5387,
      "duration": 0.361,
      "velocity": 107,
      "chip": "ym2612"
    },
    {
      "channel": 4,
      "note": 67,
      "start": 49.541,
      "duration": 0.2472,
      "velocity": 103,
      "chip": "ym2612"
    },
    {
      "channel": 4,
      "note": 78,
      "start": 49.7884,
      "duration": 0.3157,
      "velocity": 103,
      "chip": "ym2612"
    },
    {
      "channel": 0,
      "note": 71,
      "start": 49.8993,
      "duration": 0.3121,
      "velocity": 103,
      "chip": "ym2612"
    },
    {
      "channel": 1,
      "note": 59,
      "start": 49.8999,
      "duration": 0.3122,
      "velocity": 107,
      "chip": "ym2612"
    },
    {
      "channel": 4,
      "note": 71,
      "start": 50.1043,
      "duration": 0.3494,
      "velocity": 103,
      "chip": "ym2612"
    },
    {
      "channel": 0,
      "note": 64,
      "start": 50.2117,
      "duration": 0.3596,
      "velocity": 103,
      "chip": "ym2612"
    },
    {
      "channel": 1,
      "note": 52,
      "start": 50.2123,
      "duration": 0.3595,
      "velocity": 107,
      "chip": "ym2612"
    },
    {
      "channel": 2,
      "note": 64,
      "start": 50.2129,
      "duration": 0.2401,
      "velocity": 95,
      "chip": "ym2612"
    },
    {
      "channel": 3,
      "note": 67,
      "start": 50.3383,
      "duration": 0.2341,
      "velocity": 95,
      "chip": "ym2612"
    },
    {
      "channel": 2,
      "note": 71,
      "start": 50.4532,
      "duration": 0.2205,
      "velocity": 95,
      "chip": "ym2612"
    },
    {
      "channel": 4,
      "note": 64,
      "start": 50.4539,
      "duration": 0.325,
      "velocity": 103,
      "chip": "ym2612"
    },
    {
      "channel": 0,
      "note": 76,
      "start": 50.5714,
      "duration": 0.3308,
      "velocity": 103,
      "chip": "ym2612"
    },
    {
      "channel": 1,
      "note": 64,
      "start": 50.572,
      "duration": 0.2057,
      "velocity": 107,
      "chip": "ym2612"
    },
    {
      "channel": 3,
      "note": 76,
      "start": 50.5726,
      "duration": 0.2057,
      "velocity": 95,
      "chip": "ym2612"
    },
    {
      "channel": 2,
      "note": 78,
      "start": 50.674,
      "duration": 0.2293,
      "velocity": 95,
      "chip": "ym2612"
    },
    {
      "channel": 1,
      "note": 52,
      "start": 50.7779,
      "duration": 0.1249,
      "velocity": 107,
      "chip": "ym2612"
    },
    {
      "channel": 3,
      "note": 79,
      "start": 50.7785,
      "duration": 0.3489,
      "velocity": 95,
      "chip": "ym2612"
    },
    {
      "channel": 4,
      "note": 76,
      "start": 50.7791,
      "duration": 0.1265,
      "velocity": 1,
      "chip": "ym2612"
    },
    {
      "channel": 0,
      "note": 76,
      "start": 50.9024,
      "duration": 0.3416,
      "velocity": 103,
      "chip": "ym2612"
    },
    {
      "channel": 1,
      "note": 55,
      "start": 50.9029,
      "duration": 0.3416,
      "velocity": 107,
      "chip": "ym2612"
    },
    {
      "channel": 2,
      "note": 83,
      "start": 50.9035,
      "duration": 0.3416,
      "velocity": 95,
      "chip": "ym2612"
    },
    {
      "channel": 4,
      "note": 79,
      "start": 50.9057,
      "duration": 0.2239,
      "velocity": 103,
      "chip": "ym2612"
    },
    {
      "channel": 3,
      "note": 81,
      "start": 51.1276,
      "duration": 0.3345,
      "velocity": 95,
      "chip": "ym2612"
    },
    {
      "channel": 4,
      "note": 76,
      "start": 51.1298,
      "duration": 0.3329,
      "velocity": 103,
      "chip": "ym2612"
    },
    {
      "channel": 0,
      "note": 79,
      "start": 51.2441,
      "duration": 0.2168,
      "velocity": 103,
      "chip": "ym2612"
    },
    {
      "channel": 1,
      "note": 67,
      "start": 51.2447,
      "duration": 0.2168,
      "velocity": 107,
      "chip": "ym2612"
    },
    {
      "channel": 2,
      "note": 79,
      "start": 51.2453,
      "duration": 0.3213,
      "velocity": 95,
      "chip": "ym2612"
    },
    {
      "channel": 0,
      "note": 78,
      "start": 51.4611,
      "duration": 0.04,
      "velocity": 103,
      "chip": "ym2612"
    },
    {
      "channel": 1,
      "note": 55,
      "start": 51.4617,
      "duration": 0.1044,
      "velocity": 107,
      "chip": "ym2612"
    },
    {
      "channel": 3,
      "note": 78,
      "start": 51.4623,
      "duration": 0.2145,
      "velocity": 95,
      "chip": "ym2612"
    },
    {
      "channel": 4,
      "note": 79,
      "start": 51.4629,
      "duration": 0.2145,
      "velocity": 103,
      "chip": "ym2612"
    },
    {
      "channel": 0,
      "note": 79,
      "start": 51.5012,
      "duration": 0.0642,
      "velocity": 103,
      "chip": "ym2612"
    },
    {
      "channel": 0,
      "note": 78,
      "start": 51.5657,
      "duration": 0.2276,
      "velocity": 103,
      "chip": "ym2612"
    },
    {
      "channel": 1,
      "note": 54,
      "start": 51.5662,
      "duration": 0.3444,
      "velocity": 107,
      "chip": "ym2612"
    },
    {
      "channel": 2,
      "note": 75,
      "start": 51.5668,
      "duration": 0.2271,
      "velocity": 95,
      "chip": "ym2612"
    },
    {
      "channel": 3,
      "note": 78,
      "start": 51.677,
      "duration": 0.2343,
      "velocity": 95,
      "chip": "ym2612"
    },
    {
      "channel": 4,
      "note": 78,
      "start": 51.6776,
      "duration": 0.066,
      "velocity": 103,
      "chip": "ym2612"
    },
    {
      "channel": 4,
      "note": 79,
      "start": 51.7437,
      "duration": 0.0508,
      "velocity": 103,
      "chip": "ym2612"
    },
    {
      "channel": 0,
      "note": 77,
      "start": 51.7935,
      "duration": 0.1166,
      "velocity": 103,
      "chip": "ym2612"
    },
    {
      "channel": 2,
      "note": 79,
      "start": 51.7941,
      "duration": 0.2357,
      "velocity": 95,
      "chip": "ym2612"
    },
    {
      "channel": 4,
      "note": 78,
      "start": 51.7947,
      "duration": 0.2357,
      "velocity": 103,
      "chip": "ym2612"
    },
    {
      "channel": 0,
      "note": 78,
      "start": 51.9103,
      "duration": 0.2195,
      "velocity": 103,
      "chip": "ym2612"
    },
    {
      "channel": 1,
      "note": 57,
      "start": 51.9108,
      "duration": 0.3289,
      "velocity": 107,
      "chip": "ym2612"
    },
    {
      "channel": 3,
      "note": 81,
      "start": 51.9115,
      "duration": 0.2189,
      "velocity": 95,
      "chip": "ym2612"
    },
    {
      "channel": 2,
      "note": 83,
      "start": 52.03,
      "duration": 0.2103,
      "velocity": 95,
      "chip": "ym2612"
    },
    {
      "channel": 4,
      "note": 77,
      "start": 52.0306,
      "duration": 0.1003,
      "velocity": 103,
      "chip": "ym2612"
    },
    {
      "channel": 0,
      "note": 79,
      "start": 52.1299,
      "duration": 0.1093,
      "velocity": 103,
      "chip": "ym2612"
    },
    {
      "channel": 3,
      "note": 87,
      "start": 52.1306,
      "duration": 0.1103,
      "velocity": 95,
      "chip": "ym2612"
    },
    {
      "channel": 4,
      "note": 78,
      "start": 52.1311,
      "duration": 0.2249,
      "velocity": 103,
      "chip": "ym2612"
    },
    {
      "channel": 0,
      "note": 78,
      "start": 52.2394,
      "duration": 0.3525,
      "velocity": 103,
      "chip": "ym2612"
    },
    {
      "channel": 1,
      "note": 60,
      "start": 52.2399,
      "duration": 0.3525,
      "velocity": 107,
      "chip": "ym2612"
    },
    {
      "channel": 2,
      "note": 90,
      "start": 52.2405,
      "duration": 0.3525,
      "velocity": 95,
      "chip": "ym2612"
    },
    {
      "channel": 3,
      "note": 87,
      "start": 52.241,
      "duration": 0.3526,
      "velocity": 95,
      "chip": "ym2612"
    },
    {
      "channel": 4,
      "note": 79,
      "start": 52.3562,
      "duration": 0.1149,
      "velocity": 103,
      "chip": "ym2612"
    },
    {
      "channel": 4,
      "note": 78,
      "start": 52.4713,
      "duration": 0.2664,
      "velocity": 103,
      "chip": "ym2612"
    },
    {
      "channel": 0,
      "note": 83,
      "start": 52.592,
      "duration": 0.312,
      "velocity": 103,
      "chip": "ym2612"
    },
    {
      "channel": 1,
      "note": 59,
      "start": 52.5926,
      "duration": 0.3121,
      "velocity": 107,
      "chip": "ym2612"
    },
    {
      "channel": 2,
      "note": 87,
      "start": 52.5932,
      "duration": 0.3121,
      "velocity": 95,
      "chip": "ym2612"
    },
    {
      "channel": 3,
      "note": 83,
      "start": 52.5938,
      "duration": 0.2651,
      "velocity": 1,
      "chip": "ym2612"
    },
    {
      "channel": 4,
      "note": 83,
      "start": 52.7379,
      "duration": 0.4119,
      "velocity": 103,
      "chip": "ym2612"
    },
    {
      "channel": 3,
      "note": 79,
      "start": 52.8591,
      "duration": 0.16,
      "velocity": 95,
      "chip": "ym2612"
    },
    {
      "channel": 0,
      "note": 64,
      "start": 52.9042,
      "duration": 0.3631,
      "velocity": 103,
      "chip": "ym2612"
    },
    {
      "channel": 1,
      "note": 52,
      "start": 52.9049,
      "duration": 0.3631,
      "velocity": 107,
      "chip": "ym2612"
    },
    {
      "channel": 2,
      "note": 64,
      "start": 52.9055,
      "duration": 0.2437,
      "velocity": 95,
      "chip": "ym2612"
    },
    {
      "channel": 3,
      "note": 67,
      "start": 53.0193,
      "duration": 0.2493,
      "velocity": 95,
      "chip": "ym2612"
    },
    {
      "channel": 2,
      "note": 71,
      "start": 53.1493,
      "duration": 1.1344,
      "velocity": 95,
      "chip": "ym2612"
    },
    {
      "channel": 4,
      "note": 64,
      "start": 53.15,
      "duration": 0.3285,
      "velocity": 103,
      "chip": "ym2612"
    },
    {
      "channel": 0,
      "note": 76,
      "start": 53.2675,
      "duration": 0.3234,
      "velocity": 103,
      "chip": "ym2612"
    },
    {
      "channel": 1,
      "note": 64,
      "start": 53.2681,
      "duration": 0.2098,
      "velocity": 107,
      "chip": "ym2612"
    },
    {
      "channel": 3,
      "note": 76,
      "start": 53.2687,
      "duration": 1.1241,
      "velocity": 95,
      "chip": "ym2612"
    },
    {
      "channel": 1,
      "note": 52,
      "start": 53.478,
      "duration": 0.1134,
      "velocity": 107,
      "chip": "ym2612"
    },
    {
      "channel": 4,
      "note": 76,
      "start": 53.4788,
      "duration": 0.115,
      "velocity": 1,
      "chip": "ym2612"
    },
    {
      "channel": 0,
      "note": 76,
      "start": 53.5911,
      "duration": 0.3615,
      "velocity": 103,
      "chip": "ym2612"
    },
    {
      "channel": 1,
      "note": 55,
      "start": 53.5917,
      "duration": 0.3614,
      "velocity": 107,
      "chip": "ym2612"
    },
    {
      "channel": 4,
      "note": 67,
      "start": 53.594,
      "duration": 0.2422,
      "velocity": 103,
      "chip": "ym2612"
    },
    {
      "channel": 4,
      "note": 76,
      "start": 53.8363,
      "duration": 0.3215,
      "velocity": 103,
      "chip": "ym2612"
    },
    {
      "channel": 0,
      "note": 71,
      "start": 53.9528,
      "duration": 0.3299,
      "velocity": 103,
      "chip": "ym2612"
    },
    {
      "channel": 1,
      "note": 67,
      "start": 53.9533,
      "duration": 0.2038,
      "velocity": 107,
      "chip": "ym2612"
    },
    {
      "channel": 1,
      "note": 55,
      "start": 54.1573,
      "duration": 0.1259,
      "velocity": 107,
      "chip": "ym2612"
    },
    {
      "channel": 4,
      "note": 71,
      "start": 54.158,
      "duration": 0.128,
      "velocity": 1,
      "chip": "ym2612"
    },
    {
      "channel": 0,
      "note": 66,
      "start": 54.2828,
      "duration": 0.3432,
      "velocity": 103,
      "chip": "ym2612"
    },
    {
      "channel": 1,
      "note": 54,
      "start": 54.2834,
      "duration": 0.3432,
      "velocity": 107,
      "chip": "ym2612"
    },
    {
      "channel": 2,
      "note": 66,
      "start": 54.284,
      "duration": 0.2239,
      "velocity": 95,
      "chip": "ym2612"
    },
    {
      "channel": 4,
      "note": 67,
      "start": 54.2862,
      "duration": 0.2239,
      "velocity": 103,
      "chip": "ym2612"
    },
    {
      "channel": 3,
      "note": 71,
      "start": 54.3929,
      "duration": 0.2343,
      "velocity": 95,
      "chip": "ym2612"
    },
    {
      "channel": 2,
      "note": 75,
      "start": 54.508,
      "duration": 1.1185,
      "velocity": 95,
      "chip": "ym2612"
    },
    {
      "channel": 4,
      "note": 66,
      "start": 54.5102,
      "duration": 0.3363,
      "velocity": 103,
      "chip": "ym2612"
    },
    {
      "channel": 0,
      "note": 78,
      "start": 54.6262,
      "duration": 0.3307,
      "velocity": 103,
      "chip": "ym2612"
    },
    {
      "channel": 1,
      "note": 66,
      "start": 54.6268,
      "duration": 0.2191,
      "velocity": 107,
      "chip": "ym2612"
    },
    {
      "channel": 3,
      "note": 78,
      "start": 54.6274,
      "duration": 1.1092,
      "velocity": 95,
      "chip": "ym2612"
    },
    {
      "channel": 1,
      "note": 54,
      "start": 54.846,
      "duration": 0.1113,
      "velocity": 107,
      "chip": "ym2612"
    },
    {
      "channel": 4,
      "note": 78,
      "start": 54.8467,
      "duration": 0.113,
      "velocity": 1,
      "chip": "ym2612"
    },
    {
      "channel": 0,
      "note": 78,
      "start": 54.957,
      "duration": 0.3465,
      "velocity": 103,
      "chip": "ym2612"
    },
    {
      "channel": 1,
      "note": 60,
      "start": 54.9576,
      "duration": 0.3465,
      "velocity": 107,
      "chip": "ym2612"
    },
    {
      "channel": 4,
      "note": 67,
      "start": 54.9599,
      "duration": 0.2305,
      "velocity": 103,
      "chip": "ym2612"
    },
    {
      "channel": 4,
      "note": 78,
      "start": 55.1906,
      "duration": 0.331,
      "velocity": 103,
      "chip": "ym2612"
    },
    {
      "channel": 0,
      "note": 71,
      "start": 55.3037,
      "duration": 0.3217,
      "velocity": 103,
      "chip": "ym2612"
    },
    {
      "channel": 1,
      "note": 59,
      "start": 55.3042,
      "duration": 0.3217,
      "velocity": 107,
      "chip": "ym2612"
    },
    {
      "channel": 4,
      "note": 71,
      "start": 55.5217,
      "duration": 0.3305,
      "velocity": 103,
      "chip": "ym2612"
    },
    {
      "channel": 0,
      "note": 64,
      "start": 55.6255,
      "duration": 0.361,
      "velocity": 103,
      "chip": "ym2612"
    },
    {
      "channel": 1,
      "note": 52,
      "start": 55.6261,
      "duration": 0.3609,
      "velocity": 107,
      "chip": "ym2612"
    },
    {
      "channel": 2,
      "note": 64,
      "start": 55.6267,
      "duration": 0.2248,
      "velocity": 95,
      "chip": "ym2612"
    },
    {
      "channel": 3,
      "note": 67,
      "start": 55.7367,
      "duration": 0.2509,
      "velocity": 95,
      "chip": "ym2612"
    },
    {
      "channel": 2,
      "note": 71,
      "start": 55.8517,
      "duration": 0.237,
      "velocity": 95,
      "chip": "ym2612"
    },
    {
      "channel": 4,
      "note": 64,
      "start": 55.8524,
      "duration": 0.3394,
      "velocity": 103,
      "chip": "ym2612"
    },
    {
      "channel": 0,
      "note": 76,
      "start": 55.9866,
      "duration": 0.3155,
      "velocity": 103,
      "chip": "ym2612"
    },
    {
      "channel": 1,
      "note": 64,
      "start": 55.9871,
      "duration": 0.2034,
      "velocity": 107,
      "chip": "ym2612"
    },
    {
      "channel": 3,
      "note": 76,
      "start": 55.9878,
      "duration": 0.2034,
      "velocity": 95,
      "chip": "ym2612"
    },
    {
      "channel": 2,
      "note": 78,
      "start": 56.089,
      "duration": 0.2142,
      "velocity": 95,
      "chip": "ym2612"
    },
    {
      "channel": 1,
      "note": 52,
      "start": 56.1908,
      "duration": 0.1119,
      "velocity": 107,
      "chip": "ym2612"
    },
    {
      "channel": 3,
      "note": 79,
      "start": 56.1914,
      "duration": 0.3548,
      "velocity": 95,
      "chip": "ym2612"
    },
    {
      "channel": 4,
      "note": 76,
      "start": 56.192,
      "duration": 0.1135,
      "velocity": 1,
      "chip": "ym2612"
    },
    {
      "channel": 0,
      "note": 71,
      "start": 56.3022,
      "duration": 0.3621,
      "velocity": 103,
      "chip": "ym2612"
    },
    {
      "channel": 1,
      "note": 55,
      "start": 56.3028,
      "duration": 0.362,
      "velocity": 107,
      "chip": "ym2612"
    },
    {
      "channel": 2,
      "note": 83,
      "start": 56.3034,
      "duration": 0.362,
      "velocity": 95,
      "chip": "ym2612"
    },
    {
      "channel": 4,
      "note": 79,
      "start": 56.3056,
      "duration": 0.2428,
      "velocity": 103,
      "chip": "ym2612"
    },
    {
      "channel": 3,
      "note": 81,
      "start": 56.5464,
      "duration": 0.3248,
      "velocity": 95,
      "chip": "ym2612"
    },
    {
      "channel": 4,
      "note": 76,
      "start": 56.5485,
      "duration": 0.3232,
      "velocity": 103,
      "chip": "ym2612"
    },
    {
      "channel": 0,
      "note": 79,
      "start": 56.6645,
      "duration": 0.3136,
      "velocity": 103,
      "chip": "ym2612"
    },
    {
      "channel": 1,
      "note": 67,
      "start": 56.6651,
      "duration": 0.2055,
      "velocity": 107,
      "chip": "ym2612"
    },
    {
      "channel": 2,
      "note": 79,
      "start": 56.6656,
      "duration": 0.3136,
      "velocity": 95,
      "chip": "ym2612"
    },
    {
      "channel": 1,
      "note": 55,
      "start": 56.8707,
      "duration": 0.1079,
      "velocity": 107,
      "chip": "ym2612"
    },
    {
      "channel": 3,
      "note": 78,
      "start": 56.8714,
      "duration": 0.2361,
      "velocity": 95,
      "chip": "ym2612"
    },
    {
      "channel": 4,
      "note": 79,
      "start": 56.872,
      "duration": 0.2361,
      "velocity": 103,
      "chip": "ym2612"
    },
    {
      "channel": 0,
      "note": 83,
      "start": 56.9783,
      "duration": 0.0619,
      "velocity": 103,
      "chip": "ym2612"
    },
    {
      "channel": 1,
      "note": 54,
      "start": 56.9788,
      "duration": 0.3619,
      "velocity": 107,
      "chip": "ym2612"
    },
    {
      "channel": 2,
      "note": 75,
      "start": 56.9794,
      "duration": 0.2447,
      "velocity": 95,
      "chip": "ym2612"
    },
    {
      "channel": 0,
      "note": 84,
      "start": 57.0403,
      "duration": 0.0665,
      "velocity": 103,
      "chip": "ym2612"
    },
    {
      "channel": 0,
      "note": 83,
      "start": 57.1069,
      "duration": 0.1166,
      "velocity": 103,
      "chip": "ym2612"
    },
    {
      "channel": 3,
      "note": 78,
      "start": 57.1076,
      "duration": 0.2337,
      "velocity": 95,
      "chip": "ym2612"
    },
    {
      "channel": 4,
      "note": 78,
      "start": 57.1082,
      "duration": 0.0488,
      "velocity": 103,
      "chip": "ym2612"
    },
    {
      "channel": 4,
      "note": 79,
      "start": 57.1572,
      "duration": 0.0675,
      "velocity": 103,
      "chip": "ym2612"
    },
    {
      "channel": 0,
      "note": 81,
      "start": 57.2237,
      "duration": 0.1165,
      "velocity": 103,
      "chip": "ym2612"
    },
    {
      "channel": 2,
      "note": 79,
      "start": 57.2242,
      "duration": 0.2202,
      "velocity": 95,
      "chip": "ym2612"
    },
    {
      "channel": 4,
      "note": 78,
      "start": 57.2249,
      "duration": 0.2202,
      "velocity": 103,
      "chip": "ym2612"
    },
    {
      "channel": 0,
      "note": 79,
      "start": 57.3403,
      "duration": 0.1035,
      "velocity": 103,
      "chip": "ym2612"
    },
    {
      "channel": 1,
      "note": 57,
      "start": 57.3409,
      "duration": 0.3357,
      "velocity": 107,
      "chip": "ym2612"
    },
    {
      "channel": 3,
      "note": 81,
      "start": 57.3415,
      "duration": 0.2049,
      "velocity": 95,
      "chip": "ym2612"
    },
    {
      "channel": 0,
      "note": 78,
      "start": 57.444,
      "duration": 0.1016,
      "velocity": 103,
      "chip": "ym2612"
    },
    {
      "channel": 2,
      "note": 83,
      "start": 57.4447,
      "duration": 0.2325,
      "velocity": 95,
      "chip": "ym2612"
    },
    {
      "channel": 4,
      "note": 77,
      "start": 57.4452,
      "duration": 0.1016,
      "velocity": 103,
      "chip": "ym2612"
    },
    {
      "channel": 0,
      "note": 76,
      "start": 57.5459,
      "duration": 0.1302,
      "velocity": 103,
      "chip": "ym2612"
    },
    {
      "channel": 3,
      "note": 87,
      "start": 57.5465,
      "duration": 0.1312,
      "velocity": 95,
      "chip": "ym2612"
    },
    {
      "channel": 4,
      "note": 78,
      "start": 57.5471,
      "duration": 0.2458,
      "velocity": 103,
      "chip": "ym2612"
    },
    {
      "channel": 0,
      "note": 71,
      "start": 57.6762,
      "duration": 0.4377,
      "velocity": 103,
      "chip": "ym2612"
    },
    {
      "channel": 1,
      "note": 60,
      "start": 57.6768,
      "duration": 0.3306,
      "velocity": 107,
      "chip": "ym2612"
    },
    {
      "channel": 2,
      "note": 90,
      "start": 57.6773,
      "duration": 0.3307,
      "velocity": 95,
      "chip": "ym2612"
    },
    {
      "channel": 3,
      "note": 87,
      "start": 57.6778,
      "duration": 0.3307,
      "velocity": 95,
      "chip": "ym2612"
    },
    {
      "channel": 4,
      "note": 79,
      "start": 57.793,
      "duration": 0.1149,
      "velocity": 103,
      "chip": "ym2612"
    },
    {
      "channel": 4,
      "note": 78,
      "start": 57.9081,
      "duration": 0.2603,
      "velocity": 103,
      "chip": "ym2612"
    },
    {
      "channel": 1,
      "note": 59,
      "start": 58.0076,
      "duration": 0.3244,
      "velocity": 107,
      "chip": "ym2612"
    },
    {
      "channel": 2,
      "note": 87,
      "start": 58.0081,
      "duration": 0.3261,
      "velocity": 96,
      "chip": "ym2612"
    },
    {
      "channel": 3,
      "note": 83,
      "start": 58.0087,
      "duration": 0.2614,
      "velocity": 1,
      "chip": "ym2612"
    },
    {
      "channel": 0,
      "note": 70,
      "start": 58.1139,
      "duration": 0.0266,
      "velocity": 103,
      "chip": "ym2612"
    },
    {
      "channel": 0,
      "note": 68,
      "start": 58.1405,
      "duration": 0.0137,
      "velocity": 103,
      "chip": "ym2612"
    },
    {
      "channel": 0,
      "note": 67,
      "start": 58.1542,
      "duration": 0.0147,
      "velocity": 103,
      "chip": "ym2612"
    },
    {
      "channel": 4,
      "note": 83,
      "start": 58.1686,
      "duration": 0.1678,
      "velocity": 103,
      "chip": "ym2612"
    },
    {
      "channel": 0,
      "note": 66,
      "start": 58.169,
      "duration": 0.0146,
      "velocity": 103,
      "chip": "ym2612"
    },
    {
      "channel": 0,
      "note": 66,
      "start": 58.1836,
      "duration": 0.0137,
      "velocity": 103,
      "chip": "ym2612"
    },
    {
      "channel": 0,
      "note": 65,
      "start": 58.1973,
      "duration": 0.0283,
      "velocity": 103,
      "chip": "ym2612"
    },
    {
      "channel": 0,
      "note": 64,
      "start": 58.2256,
      "duration": 0.0148,
      "velocity": 103,
      "chip": "ym2612"
    },
    {
      "channel": 0,
      "note": 63,
      "start": 58.2404,
      "duration": 0.0137,
      "velocity": 103,
      "chip": "ym2612"
    },
    {
      "channel": 0,
      "note": 61,
      "start": 58.2542,
      "duration": 0.0166,
      "velocity": 103,
      "chip": "ym2612"
    },
    {
      "channel": 3,
      "note": 79,
      "start": 58.2703,
      "duration": 0.4049,
      "velocity": 103,
      "chip": "ym2612"
    },
    {
      "channel": 0,
      "note": 60,
      "start": 58.2707,
      "duration": 0.0113,
      "velocity": 103,
      "chip": "ym2612"
    },
    {
      "channel": 0,
      "note": 59,
      "start": 58.282,
      "duration": 0.0315,
      "velocity": 103,
      "chip": "ym2612"
    },
    {
      "channel": 0,
      "note": 58,
      "start": 58.3135,
      "duration": 0.0179,
      "velocity": 96,
      "chip": "ym2612"
    },
    {
      "channel": 0,
      "note": 72,
      "start": 58.3316,
      "duration": 0.4574,
      "velocity": 96,
      "chip": "ym2612"
    },
    {
      "channel": 1,
      "note": 60,
      "start": 58.3322,
      "duration": 0.3392,
      "velocity": 107,
      "chip": "ym2612"
    },
    {
      "channel": 2,
      "note": 64,
      "start": 58.3344,
      "duration": 0.4553,
      "velocity": 96,
      "chip": "ym2612"
    },
    {
      "channel": 4,
      "note": 72,
      "start": 58.3366,
      "duration": 0.3391,
      "velocity": 103,
      "chip": "ym2612"
    },
    {
      "channel": 1,
      "note": 72,
      "start": 58.6716,
      "duration": 0.2219,
      "velocity": 107,
      "chip": "ym2612"
    },
    {
      "channel": 3,
      "note": 79,
      "start": 58.6754,
      "duration": 0.3277,
      "velocity": 103,
      "chip": "ym2612"
    },
    {
      "channel": 4,
      "note": 74,
      "start": 58.676,
      "duration": 0.3277,
      "velocity": 103,
      "chip": "ym2612"
    },
    {
      "channel": 0,
      "note": 74,
      "start": 58.7892,
      "duration": 0.1038,
      "velocity": 96,
      "chip": "ym2612"
    },
    {
      "channel": 2,
      "note": 66,
      "start": 58.7898,
      "duration": 0.1042,
      "velocity": 96,
      "chip": "ym2612"
    },
    {
      "channel": 0,
      "note": 76,
      "start": 58.8931,
      "duration": 0.1083,
      "velocity": 96,
      "chip": "ym2612"
    },
    {
      "channel": 1,
      "note": 60,
      "start": 58.8937,
      "duration": 0.1083,
      "velocity": 107,
      "chip": "ym2612"
    },
    {
      "channel": 2,
      "note": 67,
      "start": 58.8943,
      "duration": 0.1082,
      "velocity": 96,
      "chip": "ym2612"
    },
    {
      "channel": 0,
      "note": 74,
      "start": 59.0015,
      "duration": 0.356,
      "velocity": 96,
      "chip": "ym2612"
    },
    {
      "channel": 1,
      "note": 62,
      "start": 59.0021,
      "duration": 0.356,
      "velocity": 107,
      "chip": "ym2612"
    },
    {
      "channel": 2,
      "note": 66,
      "start": 59.0027,
      "duration": 0.356,
      "velocity": 96,
      "chip": "ym2612"
    },
    {
      "channel": 3,
      "note": 78,
      "start": 59.0032,
      "duration": 0.356,
      "velocity": 103,
      "chip": "ym2612"
    },
    {
      "channel": 4,
      "note": 69,
      "start": 59.0038,
      "duration": 0.356,
      "velocity": 103,
      "chip": "ym2612"
    },
    {
      "channel": 0,
      "note": 69,
      "start": 59.3577,
      "duration": 0.3035,
      "velocity": 96,
      "chip": "ym2612"
    },
    {
      "channel": 1,
      "note": 74,
      "start": 59.3583,
      "duration": 0.199,
      "velocity": 107,
      "chip": "ym2612"
    },
    {
      "channel": 2,
      "note": 62,
      "start": 59.3588,
      "duration": 0.3034,
      "velocity": 96,
      "chip": "ym2612"
    },
    {
      "channel": 3,
      "note": 74,
      "start": 59.3593,
      "duration": 0.3035,
      "velocity": 103,
      "chip": "ym2612"
    },
    {
      "channel": 4,
      "note": 74,
      "start": 59.3599,
      "duration": 0.3035,
      "velocity": 103,
      "chip": "ym2612"
    },
    {
      "channel": 1,
      "note": 62,
      "start": 59.5574,
      "duration": 0.1043,
      "velocity": 107,
      "chip": "ym2612"
    },
    {
      "channel": 0,
      "note": 71,
      "start": 59.6613,
      "duration": 0.2448,
      "velocity": 96,
      "chip": "ym2612"
    },
    {
      "channel": 1,
      "note": 55,
      "start": 59.6619,
      "duration": 0.361,
      "velocity": 107,
      "chip": "ym2612"
    },
    {
      "channel": 2,
      "note": 67,
      "start": 59.6624,
      "duration": 0.2443,
      "velocity": 96,
      "chip": "ym2612"
    },
    {
      "channel": 3,
      "note": 71,
      "start": 59.663,
      "duration": 1.3531,
      "velocity": 103,
      "chip": "ym2612"
    },
    {
      "channel": 4,
      "note": 71,
      "start": 59.6636,
      "duration": 0.3616,
      "velocity": 102,
      "chip": "ym2612"
    },
    {
      "channel": 0,
      "note": 72,
      "start": 59.9063,
      "duration": 0.2167,
      "velocity": 96,
      "chip": "ym2612"
    },
    {
      "channel": 2,
      "note": 69,
      "start": 59.9069,
      "duration": 0.2167,
      "velocity": 96,
      "chip": "ym2612"
    },
    {
      "channel": 1,
      "note": 67,
      "start": 60.0231,
      "duration": 0.1996,
      "velocity": 107,
      "chip": "ym2612"
    },
    {
      "channel": 4,
      "note": 79,
      "start": 60.0254,
      "duration": 0.3055,
      "velocity": 102,
      "chip": "ym2612"
    },
    {
      "channel": 0,
      "note": 74,
      "start": 60.1232,
      "duration": 0.2059,
      "velocity": 96,
      "chip": "ym2612"
    },
    {
      "channel": 2,
      "note": 71,
      "start": 60.1238,
      "duration": 0.2064,
      "velocity": 96,
      "chip": "ym2612"
    },
    {
      "channel": 1,
      "note": 62,
      "start": 60.2229,
      "duration": 0.1067,
      "velocity": 107,
      "chip": "ym2612"
    },
    {
      "channel": 0,
      "note": 67,
      "start": 60.3293,
      "duration": 0.6852,
      "velocity": 96,
      "chip": "ym2612"
    },
    {
      "channel": 1,
      "note": 55,
      "start": 60.3298,
      "duration": 0.3606,
      "velocity": 107,
      "chip": "ym2612"
    },
    {
      "channel": 2,
      "note": 62,
      "start": 60.3304,
      "duration": 0.6852,
      "velocity": 96,
      "chip": "ym2612"
    },
    {
      "channel": 4,
      "note": 81,
      "start": 60.331,
      "duration": 0.36,
      "velocity": 102,
      "chip": "ym2612"
    },
    {
      "channel": 1,
      "note": 67,
      "start": 60.6906,
      "duration": 0.2074,
      "velocity": 107,
      "chip": "ym2612"
    },
    {
      "channel": 4,
      "note": 83,
      "start": 60.6913,
      "duration": 0.3255,
      "velocity": 102,
      "chip": "ym2612"
    },
    {
      "channel": 1,
      "note": 62,
      "start": 60.8982,
      "duration": 0.1168,
      "velocity": 107,
      "chip": "ym2612"
    },
    {
      "channel": 0,
      "note": 72,
      "start": 61.0146,
      "duration": 0.4402,
      "velocity": 96,
      "chip": "ym2612"
    },
    {
      "channel": 1,
      "note": 60,
      "start": 61.0152,
      "duration": 0.3418,
      "velocity": 107,
      "chip": "ym2612"
    },
    {
      "channel": 2,
      "note": 64,
      "start": 61.0158,
      "duration": 0.4397,
      "velocity": 96,
      "chip": "ym2612"
    },
    {
      "channel": 3,
      "note": 72,
      "start": 61.0164,
      "duration": 0.3412,
      "velocity": 103,
      "chip": "ym2612"
    },
    {
      "channel": 4,
      "note": 76,
      "start": 61.0169,
      "duration": 0.2234,
      "velocity": 102,
      "chip": "ym2612"
    },
    {
      "channel": 4,
      "note": 78,
      "start": 61.2406,
      "duration": 0.2155,
      "velocity": 102,
      "chip": "ym2612"
    },
    {
      "channel": 1,
      "note": 72,
      "start": 61.3572,
      "duration": 0.216,
      "velocity": 107,
      "chip": "ym2612"
    },
    {
      "channel": 3,
      "note": 79,
      "start": 61.3578,
      "duration": 0.3256,
      "velocity": 103,
      "chip": "ym2612"
    },
    {
      "channel": 0,
      "note": 74,
      "start": 61.455,
      "duration": 0.1176,
      "velocity": 96,
      "chip": "ym2612"
    },
    {
      "channel": 2,
      "note": 66,
      "start": 61.4556,
      "duration": 0.1182,
      "velocity": 96,
      "chip": "ym2612"
    },
    {
      "channel": 4,
      "note": 79,
      "start": 61.4562,
      "duration": 0.2278,
      "velocity": 102,
      "chip": "ym2612"
    },
    {
      "channel": 0,
      "note": 76,
      "start": 61.5728,
      "duration": 0.109,
      "velocity": 96,
      "chip": "ym2612"
    },
    {
      "channel": 1,
      "note": 60,
      "start": 61.5734,
      "duration": 0.109,
      "velocity": 107,
      "chip": "ym2612"
    },
    {
      "channel": 2,
      "note": 67,
      "start": 61.5739,
      "duration": 0.109,
      "velocity": 96,
      "chip": "ym2612"
    },
    {
      "channel": 0,
      "note": 74,
      "start": 61.6819,
      "duration": 0.3423,
      "velocity": 96,
      "chip": "ym2612"
    },
    {
      "channel": 1,
      "note": 62,
      "start": 61.6825,
      "duration": 0.3423,
      "velocity": 107,
      "chip": "ym2612"
    },
    {
      "channel": 2,
      "note": 66,
      "start": 61.683,
      "duration": 0.3423,
      "velocity": 96,
      "chip": "ym2612"
    },
    {
      "channel": 3,
      "note": 81,
      "start": 61.6836,
      "duration": 0.3423,
      "velocity": 103,
      "chip": "ym2612"
    },
    {
      "channel": 4,
      "note": 78,
      "start": 61.6841,
      "duration": 0.2234,
      "velocity": 102,
      "chip": "ym2612"
    },
    {
      "channel": 4,
      "note": 79,
      "start": 61.9078,
      "duration": 0.2365,
      "velocity": 102,
      "chip": "ym2612"
    },
    {
      "channel": 0,
      "note": 69,
      "start": 62.0244,
      "duration": 0.3322,
      "velocity": 96,
      "chip": "ym2612"
    },
    {
      "channel": 1,
      "note": 74,
      "start": 62.025,
      "duration": 0.223,
      "velocity": 107,
      "chip": "ym2612"
    },
    {
      "channel": 2,
      "note": 62,
      "start": 62.0255,
      "duration": 0.3322,
      "velocity": 96,
      "chip": "ym2612"
    },
    {
      "channel": 3,
      "note": 78,
      "start": 62.0261,
      "duration": 0.3323,
      "velocity": 103,
      "chip": "ym2612"
    },
    {
      "channel": 4,
      "note": 81,
      "start": 62.1444,
      "duration": 0.2145,
      "velocity": 102,
      "chip": "ym2612"
    },
    {
      "channel": 1,
      "note": 62,
      "start": 62.2481,
      "duration": 0.1091,
      "velocity": 107,
      "chip": "ym2612"
    },
    {
      "channel": 0,
      "note": 71,
      "start": 62.3568,
      "duration": 1.3471,
      "velocity": 96,
      "chip": "ym2612"
    },
    {
      "channel": 1,
      "note": 52,
      "start": 62.3574,
      "duration": 0.3569,
      "velocity": 107,
      "chip": "ym2612"
    },
    {
      "channel": 2,
      "note": 67,
      "start": 62.3579,
      "duration": 1.3473,
      "velocity": 96,
      "chip": "ym2612"
    },
    {
      "channel": 3,
      "note": 74,
      "start": 62.3585,
      "duration": 1.3489,
      "velocity": 102,
      "chip": "ym2612"
    },
    {
      "channel": 4,
      "note": 83,
      "start": 62.359,
      "duration": 0.1056,
      "velocity": 102,
      "chip": "ym2612"
    },
    {
      "channel": 4,
      "note": 81,
      "start": 62.4648,
      "duration": 0.1163,
      "velocity": 102,
      "chip": "ym2612"
    },
    {
      "channel": 4,
      "note": 79,
      "start": 62.5813,
      "duration": 0.1337,
      "velocity": 102,
      "chip": "ym2612"
    },
    {
      "channel": 1,
      "note": 64,
      "start": 62.7145,
      "duration": 0.2097,
      "velocity": 107,
      "chip": "ym2612"
    },
    {
      "channel": 4,
      "note": 78,
      "start": 62.7152,
      "duration": 0.2097,
      "velocity": 102,
      "chip": "ym2612"
    },
    {
      "channel": 1,
      "note": 59,
      "start": 62.9244,
      "duration": 0.1113,
      "velocity": 107,
      "chip": "ym2612"
    },
    {
      "channel": 4,
      "note": 76,
      "start": 62.9251,
      "duration": 0.1113,
      "velocity": 102,
      "chip": "ym2612"
    },
    {
      "channel": 1,
      "note": 52,
      "start": 63.0359,
      "duration": 0.3611,
      "velocity": 107,
      "chip": "ym2612"
    },
    {
      "channel": 4,
      "note": 71,
      "start": 63.0366,
      "duration": 0.2493,
      "velocity": 102,
      "chip": "ym2612"
    },
    {
      "channel": 4,
      "note": 67,
      "start": 63.2861,
      "duration": 0.1116,
      "velocity": 102,
      "chip": "ym2612"
    },
    {
      "channel": 1,
      "note": 64,
      "start": 63.3972,
      "duration": 0.2052,
      "velocity": 107,
      "chip": "ym2612"
    },
    {
      "channel": 4,
      "note": 66,
      "start": 63.3979,
      "duration": 0.2051,
      "velocity": 102,
      "chip": "ym2612"
    },
    {
      "channel": 1,
      "note": 59,
      "start": 63.6025,
      "duration": 0.102,
      "velocity": 107,
      "chip": "ym2612"
    },
    {
      "channel": 4,
      "note": 64,
      "start": 63.6032,
      "duration": 0.1048,
      "velocity": 102,
      "chip": "ym2612"
    },
    {
      "channel": 0,
      "note": 72,
      "start": 63.7041,
      "duration": 0.4654,
      "velocity": 96,
      "chip": "ym2612"
    },
    {
      "channel": 1,
      "note": 60,
      "start": 63.7047,
      "duration": 0.3603,
      "velocity": 107,
      "chip": "ym2612"
    },
    {
      "channel": 2,
      "note": 64,
      "start": 63.7053,
      "duration": 0.4647,
      "velocity": 96,
      "chip": "ym2612"
    },
    {
      "channel": 3,
      "note": 72,
      "start": 63.7076,
      "duration": 0.2409,
      "velocity": 102,
      "chip": "ym2612"
    },
    {
      "channel": 4,
      "note": 60,
      "start": 63.7082,
      "duration": 0.1254,
      "velocity": 1,
      "chip": "ym2612"
    },
    {
      "channel": 4,
      "note": 79,
      "start": 63.8338,
      "duration": 0.2352,
      "velocity": 111,
      "chip": "ym2612"
    },
    {
      "channel": 3,
      "note": 74,
      "start": 63.9486,
      "duration": 0.222,
      "velocity": 102,
      "chip": "ym2612"
    },
    {
      "channel": 1,
      "note": 72,
      "start": 64.0652,
      "duration": 0.2064,
      "velocity": 107,
      "chip": "ym2612"
    },
    {
      "channel": 4,
      "note": 84,
      "start": 64.0691,
      "duration": 0.3286,
      "velocity": 111,
      "chip": "ym2612"
    },
    {
      "channel": 0,
      "note": 74,
      "start": 64.1696,
      "duration": 0.1015,
      "velocity": 96,
      "chip": "ym2612"
    },
    {
      "channel": 2,
      "note": 66,
      "start": 64.1702,
      "duration": 0.102,
      "velocity": 96,
      "chip": "ym2612"
    },
    {
      "channel": 3,
      "note": 76,
      "start": 64.1708,
      "duration": 0.2263,
      "velocity": 102,
      "chip": "ym2612"
    },
    {
      "channel": 0,
      "note": 76,
      "start": 64.2713,
      "duration": 0.1242,
      "velocity": 96,
      "chip": "ym2612"
    },
    {
      "channel": 1,
      "note": 60,
      "start": 64.2718,
      "duration": 0.1242,
      "velocity": 107,
      "chip": "ym2612"
    },
    {
      "channel": 2,
      "note": 67,
      "start": 64.2724,
      "duration": 0.1241,
      "velocity": 96,
      "chip": "ym2612"
    },
    {
      "channel": 0,
      "note": 74,
      "start": 64.3956,
      "duration": 0.3407,
      "velocity": 96,
      "chip": "ym2612"
    },
    {
      "channel": 1,
      "note": 62,
      "start": 64.3962,
      "duration": 0.3407,
      "velocity": 107,
      "chip": "ym2612"
    },
    {
      "channel": 2,
      "note": 66,
      "start": 64.3968,
      "duration": 0.3407,
      "velocity": 96,
      "chip": "ym2612"
    },
    {
      "channel": 3,
      "note": 74,
      "start": 64.3973,
      "duration": 0.2224,
      "velocity": 102,
      "chip": "ym2612"
    },
    {
      "channel": 4,
      "note": 86,
      "start": 64.3978,
      "duration": 0.1054,
      "velocity": 111,
      "chip": "ym2612"
    },
    {
      "channel": 4,
      "note": 84,
      "start": 64.5034,
      "duration": 0.1169,
      "velocity": 111,
      "chip": "ym2612"
    },
    {
      "channel": 3,
      "note": 76,
      "start": 64.6199,
      "duration": 0.2159,
      "velocity": 102,
      "chip": "ym2612"
    },
    {
      "channel": 4,
      "note": 83,
      "start": 64.6205,
      "duration": 0.1176,
      "velocity": 111,
      "chip": "ym2612"
    },
    {
      "channel": 0,
      "note": 69,
      "start": 64.7365,
      "duration": 0.321,
      "velocity": 96,
      "chip": "ym2612"
    },
    {
      "channel": 1,
      "note": 74,
      "start": 64.7371,
      "duration": 0.218,
      "velocity": 107,
      "chip": "ym2612"
    },
    {
      "channel": 2,
      "note": 62,
      "start": 64.7376,
      "duration": 0.321,
      "velocity": 96,
      "chip": "ym2612"
    },
    {
      "channel": 4,
      "note": 81,
      "start": 64.7382,
      "duration": 0.2176,
      "velocity": 111,
      "chip": "ym2612"
    },
    {
      "channel": 3,
      "note": 78,
      "start": 64.836,
      "duration": 0.2231,
      "velocity": 102,
      "chip": "ym2612"
    },
    {
      "channel": 1,
      "note": 62,
      "start": 64.9553,
      "duration": 0.1027,
      "velocity": 107,
      "chip": "ym2612"
    },
    {
      "channel": 4,
      "note": 79,
      "start": 64.9559,
      "duration": 0.1038,
      "velocity": 111,
      "chip": "ym2612"
    },
    {
      "channel": 0,
      "note": 71,
      "start": 65.0576,
      "duration": 0.226,
      "velocity": 96,
      "chip": "ym2612"
    },
    {
      "channel": 1,
      "note": 55,
      "start": 65.0582,
      "duration": 0.3422,
      "velocity": 107,
      "chip": "ym2612"
    },
    {
      "channel": 2,
      "note": 67,
      "start": 65.0588,
      "duration": 0.2255,
      "velocity": 96,
      "chip": "ym2612"
    },
    {
      "channel": 3,
      "note": 79,
      "start": 65.0593,
      "duration": 0.2255,
      "velocity": 102,
      "chip": "ym2612"
    },
    {
      "channel": 4,
      "note": 83,
      "start": 65.0598,
      "duration": 0.3413,
      "velocity": 111,
      "chip": "ym2612"
    },
    {
      "channel": 0,
      "note": 72,
      "start": 65.2838,
      "duration": 0.2359,
      "velocity": 96,
      "chip": "ym2612"
    },
    {
      "channel": 2,
      "note": 69,
      "start": 65.2844,
      "duration": 0.2359,
      "velocity": 96,
      "chip": "ym2612"
    },
    {
      "channel": 3,
      "note": 81,
      "start": 65.285,
      "duration": 0.2359,
      "velocity": 102,
      "chip": "ym2612"
    },
    {
      "channel": 1,
      "note": 67,
      "start": 65.4006,
      "duration": 0.2251,
      "velocity": 107,
      "chip": "ym2612"
    },
    {
      "channel": 4,
      "note": 79,
      "start": 65.4013,
      "duration": 0.3357,
      "velocity": 111,
      "chip": "ym2612"
    },
    {
      "channel": 0,
      "note": 74,
      "start": 65.5198,
      "duration": 0.2149,
      "velocity": 96,
      "chip": "ym2612"
    },
    {
      "channel": 2,
      "note": 71,
      "start": 65.5205,
      "duration": 0.2154,
      "velocity": 96,
      "chip": "ym2612"
    },
    {
      "channel": 3,
      "note": 83,
      "start": 65.521,
      "duration": 0.2154,
      "velocity": 102,
      "chip": "ym2612"
    },
    {
      "channel": 1,
      "note": 62,
      "start": 65.6259,
      "duration": 0.1094,
      "velocity": 107,
      "chip": "ym2612"
    },
    {
      "channel": 0,
      "note": 67,
      "start": 65.7349,
      "duration": 0.6643,
      "velocity": 96,
      "chip": "ym2612"
    },
    {
      "channel": 1,
      "note": 55,
      "start": 65.7355,
      "duration": 0.3603,
      "velocity": 107,
      "chip": "ym2612"
    },
    {
      "channel": 2,
      "note": 62,
      "start": 65.7361,
      "duration": 0.6643,
      "velocity": 96,
      "chip": "ym2612"
    },
    {
      "channel": 3,
      "note": 86,
      "start": 65.7366,
      "duration": 0.6643,
      "velocity": 102,
      "chip": "ym2612"
    },
    {
      "channel": 4,
      "note": 74,
      "start": 65.7372,
      "duration": 0.6659,
      "velocity": 103,
      "chip": "ym2612"
    },
    {
      "channel": 1,
      "note": 67,
      "start": 66.096,
      "duration": 0.2012,
      "velocity": 107,
      "chip": "ym2612"
    },
    {
      "channel": 1,
      "note": 62,
      "start": 66.2974,
      "duration": 0.1024,
      "velocity": 107,
      "chip": "ym2612"
    },
    {
      "channel": 0,
      "note": 72,
      "start": 66.3994,
      "duration": 0.4636,
      "velocity": 96,
      "chip": "ym2612"
    },
    {
      "channel": 1,
      "note": 60,
      "start": 66.3999,
      "duration": 0.3614,
      "velocity": 107,
      "chip": "ym2612"
    },
    {
      "channel": 2,
      "note": 64,
      "start": 66.4005,
      "duration": 0.4632,
      "velocity": 96,
      "chip": "ym2612"
    },
    {
      "channel": 3,
      "note": 84,
      "start": 66.4011,
      "duration": 0.4632,
      "velocity": 102,
      "chip": "ym2612"
    },
    {
      "channel": 4,
      "note": 72,
      "start": 66.4033,
      "duration": 0.1082,
      "velocity": 103,
      "chip": "ym2612"
    },
    {
      "channel": 4,
      "note": 74,
      "start": 66.5117,
      "duration": 0.1329,
      "velocity": 103,
      "chip": "ym2612"
    },
    {
      "channel": 4,
      "note": 76,
      "start": 66.6449,
      "duration": 0.1171,
      "velocity": 103,
      "chip": "ym2612"
    },
    {
      "channel": 1,
      "note": 72,
      "start": 66.7614,
      "duration": 0.2021,
      "velocity": 107,
      "chip": "ym2612"
    },
    {
      "channel": 4,
      "note": 74,
      "start": 66.7621,
      "duration": 0.1027,
      "velocity": 103,
      "chip": "ym2612"
    },
    {
      "channel": 0,
      "note": 74,
      "start": 66.8632,
      "duration": 0.0998,
      "velocity": 96,
      "chip": "ym2612"
    },
    {
      "channel": 2,
      "note": 66,
      "start": 66.8638,
      "duration": 0.1002,
      "velocity": 96,
      "chip": "ym2612"
    },
    {
      "channel": 3,
      "note": 83,
      "start": 66.8644,
      "duration": 0.1002,
      "velocity": 102,
      "chip": "ym2612"
    },
    {
      "channel": 4,
      "note": 76,
      "start": 66.865,
      "duration": 0.1002,
      "velocity": 103,
      "chip": "ym2612"
    },
    {
      "channel": 0,
      "note": 76,
      "start": 66.9631,
      "duration": 0.1116,
      "velocity": 96,
      "chip": "ym2612"
    },
    {
      "channel": 1,
      "note": 60,
      "start": 66.9637,
      "duration": 0.1116,
      "velocity": 107,
      "chip": "ym2612"
    },
    {
      "channel": 2,
      "note": 67,
      "start": 66.9643,
      "duration": 0.1116,
      "velocity": 96,
      "chip": "ym2612"
    },
    {
      "channel": 3,
      "note": 84,
      "start": 66.9649,
      "duration": 0.1116,
      "velocity": 102,
      "chip": "ym2612"
    },
    {
      "channel": 4,
      "note": 78,
      "start": 66.9654,
      "duration": 0.1116,
      "velocity": 103,
      "chip": "ym2612"
    },
    {
      "channel": 0,
      "note": 74,
      "start": 67.0749,
      "duration": 0.358,
      "velocity": 96,
      "chip": "ym2612"
    },
    {
      "channel": 1,
      "note": 62,
      "start": 67.0755,
      "duration": 0.358,
      "velocity": 107,
      "chip": "ym2612"
    },
    {
      "channel": 2,
      "note": 66,
      "start": 67.076,
      "duration": 0.358,
      "velocity": 96,
      "chip": "ym2612"
    },
    {
      "channel": 3,
      "note": 83,
      "start": 67.0766,
      "duration": 0.2397,
      "velocity": 102,
      "chip": "ym2612"
    },
    {
      "channel": 4,
      "note": 76,
      "start": 67.0771,
      "duration": 0.1227,
      "velocity": 103,
      "chip": "ym2612"
    },
    {
      "channel": 4,
      "note": 78,
      "start": 67.2,
      "duration": 0.1169,
      "velocity": 103,
      "chip": "ym2612"
    },
    {
      "channel": 3,
      "note": 81,
      "start": 67.3165,
      "duration": 0.2181,
      "velocity": 102,
      "chip": "ym2612"
    },
    {
      "channel": 4,
      "note": 79,
      "start": 67.3171,
      "duration": 0.1176,
      "velocity": 103,
      "chip": "ym2612"
    },
    {
      "channel": 0,
      "note": 69,
      "start": 67.4331,
      "duration": 0.3271,
      "velocity": 96,
      "chip": "ym2612"
    },
    {
      "channel": 1,
      "note": 74,
      "start": 67.4337,
      "duration": 0.2086,
      "velocity": 107,
      "chip": "ym2612"
    },
    {
      "channel": 2,
      "note": 62,
      "start": 67.4342,
      "duration": 0.3287,
      "velocity": 103,
      "chip": "ym2612"
    },
    {
      "channel": 4,
      "note": 78,
      "start": 67.4349,
      "duration": 0.1002,
      "velocity": 103,
      "chip": "ym2612"
    },
    {
      "channel": 3,
      "note": 79,
      "start": 67.5347,
      "duration": 0.2288,
      "velocity": 102,
      "chip": "ym2612"
    },
    {
      "channel": 4,
      "note": 79,
      "start": 67.5353,
      "duration": 0.1075,
      "velocity": 103,
      "chip": "ym2612"
    },
    {
      "channel": 1,
      "note": 62,
      "start": 67.6423,
      "duration": 0.1184,
      "velocity": 107,
      "chip": "ym2612"
    },
    {
      "channel": 4,
      "note": 81,
      "start": 67.643,
      "duration": 0.1226,
      "velocity": 102,
      "chip": "ym2612"
    },
    {
      "channel": 0,
      "note": 71,
      "start": 67.7604,
      "duration": 0.3429,
      "velocity": 102,
      "chip": "ym2612"
    },
    {
      "channel": 1,
      "note": 63,
      "start": 67.761,
      "duration": 0.3429,
      "velocity": 107,
      "chip": "ym2612"
    },
    {
      "channel": 2,
      "note": 95,
      "start": 67.7631,
      "duration": 0.1054,
      "velocity": 103,
      "chip": "ym2612"
    },
    {
      "channel": 3,
      "note": 78,
      "start": 67.7637,
      "duration": 0.3413,
      "velocity": 102,
      "chip": "ym2612"
    },
    {
      "channel": 4,
      "note": 81,
      "start": 67.7659,
      "duration": 0.3398,
      "velocity": 102,
      "chip": "ym2612"
    },
    {
      "channel": 2,
      "note": 96,
      "start": 67.8687,
      "duration": 0.1163,
      "velocity": 103,
      "chip": "ym2612"
    },
    {
      "channel": 2,
      "note": 95,
      "start": 67.9852,
      "duration": 0.1193,
      "velocity": 103,
      "chip": "ym2612"
    },
    {
      "channel": 0,
      "note": 63,
      "start": 68.1035,
      "duration": 0.3384,
      "velocity": 102,
      "chip": "ym2612"
    },
    {
      "channel": 1,
      "note": 75,
      "start": 68.1041,
      "duration": 0.2283,
      "velocity": 107,
      "chip": "ym2612"
    },
    {
      "channel": 2,
      "note": 93,
      "start": 68.1046,
      "duration": 0.1049,
      "velocity": 103,
      "chip": "ym2612"
    },
    {
      "channel": 3,
      "note": 59,
      "start": 68.1051,
      "duration": 0.3384,
      "velocity": 102,
      "chip": "ym2612"
    },
    {
      "channel": 4,
      "note": 54,
      "start": 68.1057,
      "duration": 0.3384,
      "velocity": 102,
      "chip": "ym2612"
    },
    {
      "channel": 2,
      "note": 95,
      "start": 68.2097,
      "duration": 0.1232,
      "velocity": 103,
      "chip": "ym2612"
    },
    {
      "channel": 1,
      "note": 63,
      "start": 68.3324,
      "duration": 0.11,
      "velocity": 107,
      "chip": "ym2612"
    },
    {
      "channel": 2,
      "note": 93,
      "start": 68.333,
      "duration": 0.11,
      "velocity": 103,
      "chip": "ym2612"
    },
    {
      "channel": 0,
      "note": 66,
      "start": 68.442,
      "duration": 0.3078,
      "velocity": 102,
      "chip": "ym2612"
    },
    {
      "channel": 1,
      "note": 59,
      "start": 68.4426,
      "duration": 0.3078,
      "velocity": 107,
      "chip": "ym2612"
    },
    {
      "channel": 2,
      "note": 91,
      "start": 68.4432,
      "duration": 0.1011,
      "velocity": 103,
      "chip": "ym2612"
    },
    {
      "channel": 3,
      "note": 63,
      "start": 68.4437,
      "duration": 0.3078,
      "velocity": 102,
      "chip": "ym2612"
    },
    {
      "channel": 4,
      "note": 59,
      "start": 68.4443,
      "duration": 0.3079,
      "velocity": 102,
      "chip": "ym2612"
    },
    {
      "channel": 2,
      "note": 93,
      "start": 68.5445,
      "duration": 0.1014,
      "velocity": 103,
      "chip": "ym2612"
    },
    {
      "channel": 2,
      "note": 91,
      "start": 68.646,
      "duration": 0.1049,
      "velocity": 103,
      "chip": "ym2612"
    },
    {
      "channel": 0,
      "note": 71,
      "start": 68.75,
      "duration": 0.2205,
      "velocity": 102,
      "chip": "ym2612"
    },
    {
      "channel": 1,
      "note": 71,
      "start": 68.7506,
      "duration": 0.2185,
      "velocity": 107,
      "chip": "ym2612"
    },
    {
      "channel": 2,
      "note": 90,
      "start": 68.7511,
      "duration": 0.1162,
      "velocity": 103,
      "chip": "ym2612"
    },
    {
      "channel": 3,
      "note": 66,
      "start": 68.7517,
      "duration": 0.2193,
      "velocity": 102,
      "chip": "ym2612"
    },
    {
      "channel": 4,
      "note": 63,
      "start": 68.7522,
      "duration": 0.219,
      "velocity": 102,
      "chip": "ym2612"
    },
    {
      "channel": 2,
      "note": 91,
      "start": 68.8675,
      "duration": 0.1022,
      "velocity": 103,
      "chip": "ym2612"
    },
    {
      "channel": 1,
      "note": 59,
      "start": 68.9693,
      "duration": 0.1088,
      "velocity": 107,
      "chip": "ym2612"
    },
    {
      "channel": 2,
      "note": 90,
      "start": 68.9699,
      "duration": 0.1104,
      "velocity": 95,
      "chip": "ym2612"
    },
    {
      "channel": 0,
      "note": 70,
      "start": 68.9706,
      "duration": 0.0137,
      "velocity": 102,
      "chip": "ym2612"
    },
    {
      "channel": 3,
      "note": 66,
      "start": 68.971,
      "duration": 0.0137,
      "velocity": 102,
      "chip": "ym2612"
    },
    {
      "channel": 4,
      "note": 62,
      "start": 68.9713,
      "duration": 0.0137,
      "velocity": 102,
      "chip": "ym2612"
    },
    {
      "channel": 0,
      "note": 69,
      "start": 68.9843,
      "duration": 0.0138,
      "velocity": 102,
      "chip": "ym2612"
    },
    {
      "channel": 3,
      "note": 65,
      "start": 68.9847,
      "duration": 0.0138,
      "velocity": 102,
      "chip": "ym2612"
    },
    {
      "channel": 4,
      "note": 62,
      "start": 68.985,
      "duration": 0.0138,
      "velocity": 102,
      "chip": "ym2612"
    },
    {
      "channel": 0,
      "note": 69,
      "start": 68.9981,
      "duration": 0.0139,
      "velocity": 102,
      "chip": "ym2612"
    },
    {
      "channel": 3,
      "note": 64,
      "start": 68.9985,
      "duration": 0.0138,
      "velocity": 102,
      "chip": "ym2612"
    },
    {
      "channel": 4,
      "note": 61,
      "start": 68.9988,
      "duration": 0.0138,
      "velocity": 102,
      "chip": "ym2612"
    },
    {
      "channel": 0,
      "note": 68,
      "start": 69.012,
      "duration": 0.0314,
      "velocity": 102,
      "chip": "ym2612"
    },
    {
      "channel": 3,
      "note": 64,
      "start": 69.0123,
      "duration": 0.0315,
      "velocity": 102,
      "chip": "ym2612"
    },
    {
      "channel": 4,
      "note": 60,
      "start": 69.0126,
      "duration": 0.0314,
      "velocity": 102,
      "chip": "ym2612"
    },
    {
      "channel": 0,
      "note": 67,
      "start": 69.0434,
      "duration": 0.0157,
      "velocity": 102,
      "chip": "ym2612"
    },
    {
      "channel": 3,
      "note": 63,
      "start": 69.0438,
      "duration": 0.0157,
      "velocity": 102,
      "chip": "ym2612"
    },
    {
      "channel": 4,
      "note": 60,
      "start": 69.0441,
      "duration": 0.0157,
      "velocity": 102,
      "chip": "ym2612"
    },
    {
      "channel": 0,
      "note": 67,
      "start": 69.0591,
      "duration": 0.0183,
      "velocity": 103,
      "chip": "ym2612"
    },
    {
      "channel": 3,
      "note": 63,
      "start": 69.0595,
      "duration": 0.0235,
      "velocity": 102,
      "chip": "ym2612"
    },
    {
      "channel": 4,
      "note": 59,
      "start": 69.0598,
      "duration": 0.0235,
      "velocity": 102,
      "chip": "ym2612"
    },
    {
      "channel": 0,
      "note": 64,
      "start": 69.0776,
      "duration": 0.3578,
      "velocity": 103,
      "chip": "ym2612"
    },
    {
      "channel": 1,
      "note": 52,
      "start": 69.0782,
      "duration": 0.3577,
      "velocity": 107,
      "chip": "ym2612"
    },
    {
      "channel": 2,
      "note": 64,
      "start": 69.0805,
      "duration": 0.2201,
      "velocity": 95,
      "chip": "ym2612"
    },
    {
      "channel": 3,
      "note": 62,
      "start": 69.083,
      "duration": 0.0076,
      "velocity": 102,
      "chip": "ym2612"
    },
    {
      "channel": 4,
      "note": 58,
      "start": 69.0833,
      "duration": 0.0077,
      "velocity": 102,
      "chip": "ym2612"
    },
    {
      "channel": 3,
      "note": 61,
      "start": 69.0906,
      "duration": 0.0157,
      "velocity": 102,
      "chip": "ym2612"
    },
    {
      "channel": 4,
      "note": 57,
      "start": 69.091,
      "duration": 0.0156,
      "velocity": 102,
      "chip": "ym2612"
    },
    {
      "channel": 3,
      "note": 61,
      "start": 69.1063,
      "duration": 0.028,
      "velocity": 102,
      "chip": "ym2612"
    },
    {
      "channel": 4,
      "note": 57,
      "start": 69.1066,
      "duration": 0.028,
      "velocity": 102,
      "chip": "ym2612"
    },
    {
      "channel": 3,
      "note": 60,
      "start": 69.1343,
      "duration": 0.0159,
      "velocity": 102,
      "chip": "ym2612"
    },
    {
      "channel": 4,
      "note": 56,
      "start": 69.1345,
      "duration": 0.0159,
      "velocity": 102,
      "chip": "ym2612"
    },
    {
      "channel": 3,
      "note": 59,
      "start": 69.1501,
      "duration": 0.0167,
      "velocity": 102,
      "chip": "ym2612"
    },
    {
      "channel": 4,
      "note": 55,
      "start": 69.1505,
      "duration": 0.0167,
      "velocity": 102,
      "chip": "ym2612"
    },
    {
      "channel": 3,
      "note": 59,
      "start": 69.1669,
      "duration": 0.0202,
      "velocity": 95,
      "chip": "ym2612"
    },
    {
      "channel": 4,
      "note": 55,
      "start": 69.1671,
      "duration": 0.0208,
      "velocity": 102,
      "chip": "ym2612"
    },
    {
      "channel": 3,
      "note": 67,
      "start": 69.1873,
      "duration": 0.2493,
      "velocity": 95,
      "chip": "ym2612"
    },
    {
      "channel": 4,
      "note": 54,
      "start": 69.1879,
      "duration": 0.0123,
      "velocity": 102,
      "chip": "ym2612"
    },
    {
      "channel": 4,
      "note": 54,
      "start": 69.2002,
      "duration": 0.0333,
      "velocity": 102,
      "chip": "ym2612"
    },
    {
      "channel": 4,
      "note": 53,
      "start": 69.2335,
      "duration": 0.0173,
      "velocity": 102,
      "chip": "ym2612"
    },
    {
      "channel": 4,
      "note": 53,
      "start": 69.2509,
      "duration": 0.016,
      "velocity": 102,
      "chip": "ym2612"
    },
    {
      "channel": 4,
      "note": 52,
      "start": 69.2669,
      "duration": 0.0167,
      "velocity": 102,
      "chip": "ym2612"
    },
    {
      "channel": 4,
      "note": 52,
      "start": 69.2835,
      "duration": 0.0192,
      "velocity": 103,
      "chip": "ym2612"
    },
    {
      "channel": 2,
      "note": 71,
      "start": 69.3007,
      "duration": 1.1296,
      "velocity": 95,
      "chip": "ym2612"
    },
    {
      "channel": 4,
      "note": 64,
      "start": 69.3029,
      "duration": 0.3414,
      "velocity": 103,
      "chip": "ym2612"
    },
    {
      "channel": 0,
      "note": 76,
      "start": 69.4356,
      "duration": 0.3209,
      "velocity": 103,
      "chip": "ym2612"
    },
    {
      "channel": 1,
      "note": 64,
      "start": 69.4361,
      "duration": 0.2075,
      "velocity": 107,
      "chip": "ym2612"
    },
    {
      "channel": 3,
      "note": 76,
      "start": 69.4367,
      "duration": 1.1173,
      "velocity": 95,
      "chip": "ym2612"
    },
    {
      "channel": 1,
      "note": 52,
      "start": 69.6438,
      "duration": 0.1133,
      "velocity": 107,
      "chip": "ym2612"
    },
    {
      "channel": 4,
      "note": 76,
      "start": 69.6445,
      "duration": 0.1149,
      "velocity": 1,
      "chip": "ym2612"
    },
    {
      "channel": 0,
      "note": 76,
      "start": 69.7567,
      "duration": 0.3559,
      "velocity": 103,
      "chip": "ym2612"
    },
    {
      "channel": 1,
      "note": 55,
      "start": 69.7573,
      "duration": 0.3558,
      "velocity": 107,
      "chip": "ym2612"
    },
    {
      "channel": 4,
      "note": 67,
      "start": 69.7595,
      "duration": 0.2366,
      "velocity": 103,
      "chip": "ym2612"
    },
    {
      "channel": 4,
      "note": 76,
      "start": 69.9963,
      "duration": 0.3218,
      "velocity": 103,
      "chip": "ym2612"
    },
    {
      "channel": 0,
      "note": 71,
      "start": 70.1127,
      "duration": 0.3165,
      "velocity": 103,
      "chip": "ym2612"
    },
    {
      "channel": 1,
      "note": 67,
      "start": 70.1133,
      "duration": 0.2041,
      "velocity": 107,
      "chip": "ym2612"
    },
    {
      "channel": 1,
      "note": 55,
      "start": 70.3176,
      "duration": 0.1122,
      "velocity": 107,
      "chip": "ym2612"
    },
    {
      "channel": 4,
      "note": 71,
      "start": 70.3183,
      "duration": 0.1143,
      "velocity": 1,
      "chip": "ym2612"
    },
    {
      "channel": 0,
      "note": 66,
      "start": 70.4294,
      "duration": 0.3578,
      "velocity": 103,
      "chip": "ym2612"
    },
    {
      "channel": 1,
      "note": 54,
      "start": 70.43,
      "duration": 0.3578,
      "velocity": 107,
      "chip": "ym2612"
    },
    {
      "channel": 2,
      "note": 66,
      "start": 70.4305,
      "duration": 0.2385,
      "velocity": 95,
      "chip": "ym2612"
    },
    {
      "channel": 4,
      "note": 67,
      "start": 70.4328,
      "duration": 0.2385,
      "velocity": 103,
      "chip": "ym2612"
    },
    {
      "channel": 3,
      "note": 71,
      "start": 70.5542,
      "duration": 0.2342,
      "velocity": 95,
      "chip": "ym2612"
    },
    {
      "channel": 2,
      "note": 75,
      "start": 70.6692,
      "duration": 1.1082,
      "velocity": 102,
      "chip": "ym2612"
    },
    {
      "channel": 4,
      "note": 66,
      "start": 70.6714,
      "duration": 0.3188,
      "velocity": 103,
      "chip": "ym2612"
    },
    {
      "channel": 0,
      "note": 78,
      "start": 70.7874,
      "duration": 0.3275,
      "velocity": 103,
      "chip": "ym2612"
    },
    {
      "channel": 1,
      "note": 66,
      "start": 70.788,
      "duration": 0.2015,
      "velocity": 107,
      "chip": "ym2612"
    },
    {
      "channel": 3,
      "note": 78,
      "start": 70.7886,
      "duration": 0.9909,
      "velocity": 102,
      "chip": "ym2612"
    },
    {
      "channel": 1,
      "note": 54,
      "start": 70.9897,
      "duration": 0.1257,
      "velocity": 107,
      "chip": "ym2612"
    },
    {
      "channel": 4,
      "note": 78,
      "start": 70.9904,
      "duration": 0.1274,
      "velocity": 1,
      "chip": "ym2612"
    },
    {
      "channel": 0,
      "note": 78,
      "start": 71.115,
      "duration": 0.3415,
      "velocity": 103,
      "chip": "ym2612"
    },
    {
      "channel": 1,
      "note": 60,
      "start": 71.1156,
      "duration": 0.3414,
      "velocity": 107,
      "chip": "ym2612"
    },
    {
      "channel": 4,
      "note": 67,
      "start": 71.1179,
      "duration": 0.2305,
      "velocity": 103,
      "chip": "ym2612"
    },
    {
      "channel": 4,
      "note": 78,
      "start": 71.3486,
      "duration": 0.3217,
      "velocity": 103,
      "chip": "ym2612"
    },
    {
      "channel": 0,
      "note": 71,
      "start": 71.4566,
      "duration": 0.3179,
      "velocity": 103,
      "chip": "ym2612"
    },
    {
      "channel": 1,
      "note": 59,
      "start": 71.4572,
      "duration": 0.318,
      "velocity": 107,
      "chip": "ym2612"
    },
    {
      "channel": 4,
      "note": 71,
      "start": 71.6705,
      "duration": 0.1113,
      "velocity": 102,
      "chip": "ym2612"
    },
    {
      "channel": 0,
      "note": 71,
      "start": 71.7748,
      "duration": 0.0442,
      "velocity": 103,
      "chip": "ym2612"
    },
    {
      "channel": 1,
      "note": 59,
      "start": 71.7754,
      "duration": 2.1853,
      "velocity": 107,
      "chip": "ym2612"
    },
    {
      "channel": 2,
      "note": 51,
      "start": 71.7776,
      "duration": 1.9618,
      "velocity": 102,
      "chip": "ym2612"
    },
    {
      "channel": 3,
      "note": 54,
      "start": 71.7797,
      "duration": 1.9619,
      "velocity": 102,
      "chip": "ym2612"
    },
    {
      "channel": 4,
      "note": 59,
      "start": 71.7819,
      "duration": 1.962,
      "velocity": 102,
      "chip": "ym2612"
    },
    {
      "channel": 0,
      "note": 72,
      "start": 71.8192,
      "duration": 0.0604,
      "velocity": 103,
      "chip": "ym2612"
    },
    {
      "channel": 0,
      "note": 71,
      "start": 71.8797,
      "duration": 0.0585,
      "velocity": 103,
      "chip": "ym2612"
    },
    {
      "channel": 0,
      "note": 72,
      "start": 71.9383,
      "duration": 0.045,
      "velocity": 103,
      "chip": "ym2612"
    },
    {
      "channel": 0,
      "note": 71,
      "start": 71.9834,
      "duration": 0.0627,
      "velocity": 103,
      "chip": "ym2612"
    },
    {
      "channel": 0,
      "note": 72,
      "start": 72.0463,
      "duration": 0.0449,
      "velocity": 103,
      "chip": "ym2612"
    },
    {
      "channel": 0,
      "note": 71,
      "start": 72.0914,
      "duration": 0.0566,
      "velocity": 103,
      "chip": "ym2612"
    },
    {
      "channel": 0,
      "note": 72,
      "start": 72.1481,
      "duration": 0.0588,
      "velocity": 103,
      "chip": "ym2612"
    },
    {
      "channel": 0,
      "note": 71,
      "start": 72.2071,
      "duration": 0.0448,
      "velocity": 103,
      "chip": "ym2612"
    },
    {
      "channel": 0,
      "note": 72,
      "start": 72.2521,
      "duration": 0.0649,
      "velocity": 103,
      "chip": "ym2612"
    },
    {
      "channel": 0,
      "note": 71,
      "start": 72.3171,
      "duration": 0.043,
      "velocity": 103,
      "chip": "ym2612"
    },
    {
      "channel": 0,
      "note": 72,
      "start": 72.3603,
      "duration": 0.0649,
      "velocity": 103,
      "chip": "ym2612"
    },
    {
      "channel": 0,
      "note": 71,
      "start": 72.4254,
      "duration": 0.0612,
      "velocity": 103,
      "chip": "ym2612"
    },
    {
      "channel": 0,
      "note": 71,
      "start": 72.4867,
      "duration": 1.258,
      "velocity": 103,
      "chip": "ym2612"
    },
    {
      "channel": 2,
      "note": 51,
      "start": 73.7395,
      "duration": 0.0055,
      "velocity": 102,
      "chip": "ym2612"
    },
    {
      "channel": 3,
      "note": 54,
      "start": 73.7418,
      "duration": 0.0036,
      "velocity": 102,
      "chip": "ym2612"
    },
    {
      "channel": 4,
      "note": 59,
      "start": 73.7441,
      "duration": 0.0016,
      "velocity": 102,
      "chip": "ym2612"
    },
    {
      "channel": 0,
      "note": 71,
      "start": 73.7447,
      "duration": 0.0242,
      "velocity": 103,
      "chip": "ym2612"
    },
    {
      "channel": 2,
      "note": 51,
      "start": 73.7451,
      "duration": 0.0242,
      "velocity": 102,
      "chip": "ym2612"
    },
    {
      "channel": 3,
      "note": 54,
      "start": 73.7453,
      "duration": 0.0243,
      "velocity": 102,
      "chip": "ym2612"
    },
    {
      "channel": 4,
      "note": 59,
      "start": 73.7456,
      "duration": 0.0242,
      "velocity": 102,
      "chip": "ym2612"
    },
    {
      "channel": 0,
      "note": 70,
      "start": 73.769,
      "duration": 0.0137,
      "velocity": 103,
      "chip": "ym2612"
    },
    {
      "channel": 2,
      "note": 50,
      "start": 73.7693,
      "duration": 0.0137,
      "velocity": 102,
      "chip": "ym2612"
    },
    {
      "channel": 3,
      "note": 54,
      "start": 73.7696,
      "duration": 0.0137,
      "velocity": 102,
      "chip": "ym2612"
    },
    {
      "channel": 4,
      "note": 58,
      "start": 73.7698,
      "duration": 0.0137,
      "velocity": 102,
      "chip": "ym2612"
    },
    {
      "channel": 0,
      "note": 70,
      "start": 73.7827,
      "duration": 0.0168,
      "velocity": 103,
      "chip": "ym2612"
    },
    {
      "channel": 2,
      "note": 50,
      "start": 73.783,
      "duration": 0.0168,
      "velocity": 102,
      "chip": "ym2612"
    },
    {
      "channel": 3,
      "note": 53,
      "start": 73.7833,
      "duration": 0.0168,
      "velocity": 102,
      "chip": "ym2612"
    },
    {
      "channel": 4,
      "note": 58,
      "start": 73.7836,
      "duration": 0.0168,
      "velocity": 102,
      "chip": "ym2612"
    },
    {
      "channel": 0,
      "note": 69,
      "start": 73.7995,
      "duration": 0.0129,
      "velocity": 103,
      "chip": "ym2612"
    },
    {
      "channel": 2,
      "note": 50,
      "start": 73.7998,
      "duration": 0.013,
      "velocity": 102,
      "chip": "ym2612"
    },
    {
      "channel": 3,
      "note": 53,
      "start": 73.8002,
      "duration": 0.0129,
      "velocity": 102,
      "chip": "ym2612"
    },
    {
      "channel": 4,
      "note": 57,
      "start": 73.8004,
      "duration": 0.013,
      "velocity": 102,
      "chip": "ym2612"
    },
    {
      "channel": 0,
      "note": 69,
      "start": 73.8124,
      "duration": 0.0139,
      "velocity": 103,
      "chip": "ym2612"
    },
    {
      "channel": 2,
      "note": 49,
      "start": 73.8128,
      "duration": 0.0139,
      "velocity": 102,
      "chip": "ym2612"
    },
    {
      "channel": 3,
      "note": 53,
      "start": 73.8131,
      "duration": 0.0139,
      "velocity": 102,
      "chip": "ym2612"
    },
    {
      "channel": 4,
      "note": 57,
      "start": 73.8134,
      "duration": 0.0139,
      "velocity": 102,
      "chip": "ym2612"
    },
    {
      "channel": 0,
      "note": 69,
      "start": 73.8263,
      "duration": 0.0283,
      "velocity": 103,
      "chip": "ym2612"
    },
    {
      "channel": 2,
      "note": 49,
      "start": 73.8267,
      "duration": 0.0282,
      "velocity": 102,
      "chip": "ym2612"
    },
    {
      "channel": 3,
      "note": 52,
      "start": 73.827,
      "duration": 0.0283,
      "velocity": 102,
      "chip": "ym2612"
    },
    {
      "channel": 4,
      "note": 57,
      "start": 73.8273,
      "duration": 0.0282,
      "velocity": 102,
      "chip": "ym2612"
    },
    {
      "channel": 0,
      "note": 68,
      "start": 73.8546,
      "duration": 0.0133,
      "velocity": 103,
      "chip": "ym2612"
    },
    {
      "channel": 2,
      "note": 49,
      "start": 73.8549,
      "duration": 0.0133,
      "velocity": 102,
      "chip": "ym2612"
    },
    {
      "channel": 3,
      "note": 52,
      "start": 73.8553,
      "duration": 0.0132,
      "velocity": 102,
      "chip": "ym2612"
    },
    {
      "channel": 4,
      "note": 56,
      "start": 73.8555,
      "duration": 0.0133,
      "velocity": 102,
      "chip": "ym2612"
    },
    {
      "channel": 0,
      "note": 68,
      "start": 73.8679,
      "duration": 0.0138,
      "velocity": 103,
      "chip": "ym2612"
    },
    {
      "channel": 2,
      "note": 48,
      "start": 73.8682,
      "duration": 0.0138,
      "velocity": 102,
      "chip": "ym2612"
    },
    {
      "channel": 3,
      "note": 52,
      "start": 73.8685,
      "duration": 0.0138,
      "velocity": 102,
      "chip": "ym2612"
    },
    {
      "channel": 4,
      "note": 56,
      "start": 73.8688,
      "duration": 0.0138,
      "velocity": 102,
      "chip": "ym2612"
    },
    {
      "channel": 0,
      "note": 68,
      "start": 73.8817,
      "duration": 0.0146,
      "velocity": 103,
      "chip": "ym2612"
    },
    {
      "channel": 2,
      "note": 48,
      "start": 73.882,
      "duration": 0.0145,
      "velocity": 102,
      "chip": "ym2612"
    },
    {
      "channel": 3,
      "note": 52,
      "start": 73.8823,
      "duration": 0.0146,
      "velocity": 102,
      "chip": "ym2612"
    },
    {
      "channel": 4,
      "note": 56,
      "start": 73.8826,
      "duration": 0.0145,
      "velocity": 102,
      "chip": "ym2612"
    },
    {
      "channel": 0,
      "note": 67,
      "start": 73.8962,
      "duration": 0.0141,
      "velocity": 103,
      "chip": "ym2612"
    },
    {
      "channel": 2,
      "note": 48,
      "start": 73.8966,
      "duration": 0.0141,
      "velocity": 102,
      "chip": "ym2612"
    },
    {
      "channel": 3,
      "note": 51,
      "start": 73.8969,
      "duration": 0.014,
      "velocity": 102,
      "chip": "ym2612"
    },
    {
      "channel": 4,
      "note": 55,
      "start": 73.8971,
      "duration": 0.0141,
      "velocity": 102,
      "chip": "ym2612"
    },
    {
      "channel": 0,
      "note": 67,
      "start": 73.9103,
      "duration": 0.0333,
      "velocity": 103,
      "chip": "ym2612"
    },
    {
      "channel": 2,
      "note": 47,
      "start": 73.9106,
      "duration": 0.0333,
      "velocity": 102,
      "chip": "ym2612"
    },
    {
      "channel": 3,
      "note": 51,
      "start": 73.9109,
      "duration": 0.0333,
      "velocity": 102,
      "chip": "ym2612"
    },
    {
      "channel": 4,
      "note": 55,
      "start": 73.9112,
      "duration": 0.0333,
      "velocity": 102,
      "chip": "ym2612"
    },
    {
      "channel": 0,
      "note": 67,
      "start": 73.9436,
      "duration": 0.0181,
      "velocity": 103,
      "chip": "ym2612"
    },
    {
      "channel": 2,
      "note": 47,
      "start": 73.9439,
      "duration": 0.0181,
      "velocity": 102,
      "chip": "ym2612"
    },
    {
      "channel": 3,
      "note": 51,
      "start": 73.9442,
      "duration": 0.0181,
      "velocity": 102,
      "chip": "ym2612"
    },
    {
      "channel": 4,
      "note": 55,
      "start": 73.9445,
      "duration": 0.0181,
      "velocity": 102,
      "chip": "ym2612"
    },
    {
      "channel": 1,
      "note": 61,
      "start": 73.9609,
      "duration": 0.1098,
      "velocity": 107,
      "chip": "ym2612"
    },
    {
      "channel": 0,
      "note": 67,
      "start": 73.9617,
      "duration": 0.0126,
      "velocity": 103,
      "chip": "ym2612"
    },
    {
      "channel": 2,
      "note": 47,
      "start": 73.9621,
      "duration": 0.0126,
      "velocity": 102,
      "chip": "ym2612"
    },
    {
      "channel": 3,
      "note": 50,
      "start": 73.9623,
      "duration": 0.0126,
      "velocity": 102,
      "chip": "ym2612"
    },
    {
      "channel": 4,
      "note": 55,
      "start": 73.9627,
      "duration": 0.0126,
      "velocity": 102,
      "chip": "ym2612"
    },
    {
      "channel": 0,
      "note": 66,
      "start": 73.9743,
      "duration": 0.0157,
      "velocity": 103,
      "chip": "ym2612"
    },
    {
      "channel": 2,
      "note": 46,
      "start": 73.9746,
      "duration": 0.0157,
      "velocity": 102,
      "chip": "ym2612"
    },
    {
      "channel": 3,
      "note": 50,
      "start": 73.975,
      "duration": 0.0157,
      "velocity": 102,
      "chip": "ym2612"
    },
    {
      "channel": 4,
      "note": 54,
      "start": 73.9752,
      "duration": 0.0157,
      "velocity": 102,
      "chip": "ym2612"
    },
    {
      "channel": 0,
      "note": 66,
      "start": 73.99,
      "duration": 0.0164,
      "velocity": 103,
      "chip": "ym2612"
    },
    {
      "channel": 2,
      "note": 46,
      "start": 73.9904,
      "duration": 0.0164,
      "velocity": 102,
      "chip": "ym2612"
    },
    {
      "channel": 3,
      "note": 50,
      "start": 73.9907,
      "duration": 0.0164,
      "velocity": 102,
      "chip": "ym2612"
    },
    {
      "channel": 4,
      "note": 54,
      "start": 73.9909,
      "duration": 0.0164,
      "velocity": 102,
      "chip": "ym2612"
    },
    {
      "channel": 0,
      "note": 66,
      "start": 74.0065,
      "duration": 0.0304,
      "velocity": 103,
      "chip": "ym2612"
    },
    {
      "channel": 2,
      "note": 45,
      "start": 74.0068,
      "duration": 0.0305,
      "velocity": 102,
      "chip": "ym2612"
    },
    {
      "channel": 3,
      "note": 49,
      "start": 74.0071,
      "duration": 0.0304,
      "velocity": 102,
      "chip": "ym2612"
    },
    {
      "channel": 4,
      "note": 54,
      "start": 74.0074,
      "duration": 0.0305,
      "velocity": 102,
      "chip": "ym2612"
    },
    {
      "channel": 0,
      "note": 66,
      "start": 74.0369,
      "duration": 0.0167,
      "velocity": 103,
      "chip": "ym2612"
    },
    {
      "channel": 2,
      "note": 45,
      "start": 74.0373,
      "duration": 0.0167,
      "velocity": 102,
      "chip": "ym2612"
    },
    {
      "channel": 3,
      "note": 49,
      "start": 74.0375,
      "duration": 0.0167,
      "velocity": 102,
      "chip": "ym2612"
    },
    {
      "channel": 4,
      "note": 54,
      "start": 74.0378,
      "duration": 0.0167,
      "velocity": 102,
      "chip": "ym2612"
    },
    {
      "channel": 0,
      "note": 65,
      "start": 74.0536,
      "duration": 0.0182,
      "velocity": 103,
      "chip": "ym2612"
    },
    {
      "channel": 2,
      "note": 45,
      "start": 74.0539,
      "duration": 0.0181,
      "velocity": 102,
      "chip": "ym2612"
    },
    {
      "channel": 3,
      "note": 49,
      "start": 74.0542,
      "duration": 0.0181,
      "velocity": 102,
      "chip": "ym2612"
    },
    {
      "channel": 4,
      "note": 53,
      "start": 74.0545,
      "duration": 0.0181,
      "velocity": 102,
      "chip": "ym2612"
    },
    {
      "channel": 1,
      "note": 62,
      "start": 74.0709,
      "duration": 0.1961,
      "velocity": 107,
      "chip": "ym2612"
    },
    {
      "channel": 0,
      "note": 65,
      "start": 74.0717,
      "duration": 0.0144,
      "velocity": 103,
      "chip": "ym2612"
    },
    {
      "channel": 2,
      "note": 44,
      "start": 74.0721,
      "duration": 0.0144,
      "velocity": 102,
      "chip": "ym2612"
    },
    {
      "channel": 3,
      "note": 48,
      "start": 74.0723,
      "duration": 0.0144,
      "velocity": 102,
      "chip": "ym2612"
    },
    {
      "channel": 4,
      "note": 53,
      "start": 74.0727,
      "duration": 0.0143,
      "velocity": 102,
      "chip": "ym2612"
    },
    {
      "channel": 0,
      "note": 65,
      "start": 74.0861,
      "duration": 0.0137,
      "velocity": 103,
      "chip": "ym2612"
    },
    {
      "channel": 2,
      "note": 44,
      "start": 74.0864,
      "duration": 0.0137,
      "velocity": 102,
      "chip": "ym2612"
    },
    {
      "channel": 3,
      "note": 48,
      "start": 74.0867,
      "duration": 0.0137,
      "velocity": 102,
      "chip": "ym2612"
    },
    {
      "channel": 4,
      "note": 53,
      "start": 74.087,
      "duration": 0.0138,
      "velocity": 102,
      "chip": "ym2612"
    },
    {
      "channel": 0,
      "note": 65,
      "start": 74.0998,
      "duration": 0.028,
      "velocity": 103,
      "chip": "ym2612"
    },
    {
      "channel": 2,
      "note": 44,
      "start": 74.1002,
      "duration": 0.028,
      "velocity": 102,
      "chip": "ym2612"
    },
    {
      "channel": 3,
      "note": 48,
      "start": 74.1005,
      "duration": 0.028,
      "velocity": 102,
      "chip": "ym2612"
    },
    {
      "channel": 4,
      "note": 53,
      "start": 74.1008,
      "duration": 0.028,
      "velocity": 102,
      "chip": "ym2612"
    },
    {
      "channel": 0,
      "note": 64,
      "start": 74.1279,
      "duration": 0.0132,
      "velocity": 103,
      "chip": "ym2612"
    },
    {
      "channel": 2,
      "note": 43,
      "start": 74.1282,
      "duration": 0.0132,
      "velocity": 102,
      "chip": "ym2612"
    },
    {
      "channel": 3,
      "note": 47,
      "start": 74.1285,
      "duration": 0.0132,
      "velocity": 102,
      "chip": "ym2612"
    },
    {
      "channel": 4,
      "note": 52,
      "start": 74.1288,
      "duration": 0.0133,
      "velocity": 102,
      "chip": "ym2612"
    },
    {
      "channel": 0,
      "note": 64,
      "start": 74.1411,
      "duration": 0.0137,
      "velocity": 103,
      "chip": "ym2612"
    },
    {
      "channel": 2,
      "note": 43,
      "start": 74.1414,
      "duration": 0.0137,
      "velocity": 102,
      "chip": "ym2612"
    },
    {
      "channel": 3,
      "note": 47,
      "start": 74.1417,
      "duration": 0.0137,
      "velocity": 102,
      "chip": "ym2612"
    },
    {
      "channel": 4,
      "note": 52,
      "start": 74.1421,
      "duration": 0.0137,
      "velocity": 102,
      "chip": "ym2612"
    },
    {
      "channel": 0,
      "note": 64,
      "start": 74.1549,
      "duration": 0.0146,
      "velocity": 103,
      "chip": "ym2612"
    },
    {
      "channel": 2,
      "note": 43,
      "start": 74.1552,
      "duration": 0.0146,
      "velocity": 102,
      "chip": "ym2612"
    },
    {
      "channel": 3,
      "note": 47,
      "start": 74.1555,
      "duration": 0.0146,
      "velocity": 102,
      "chip": "ym2612"
    },
    {
      "channel": 4,
      "note": 52,
      "start": 74.1558,
      "duration": 0.0146,
      "velocity": 102,
      "chip": "ym2612"
    },
    {
      "channel": 0,
      "note": 63,
      "start": 74.1695,
      "duration": 0.0148,
      "velocity": 103,
      "chip": "ym2612"
    },
    {
      "channel": 2,
      "note": 43,
      "start": 74.1698,
      "duration": 0.0148,
      "velocity": 102,
      "chip": "ym2612"
    },
    {
      "channel": 3,
      "note": 46,
      "start": 74.17,
      "duration": 0.0148,
      "velocity": 102,
      "chip": "ym2612"
    },
    {
      "channel": 4,
      "note": 51,
      "start": 74.1704,
      "duration": 0.0148,
      "velocity": 102,
      "chip": "ym2612"
    },
    {
      "channel": 0,
      "note": 63,
      "start": 74.1843,
      "duration": 0.0272,
      "velocity": 103,
      "chip": "ym2612"
    },
    {
      "channel": 2,
      "note": 42,
      "start": 74.1846,
      "duration": 0.0272,
      "velocity": 102,
      "chip": "ym2612"
    },
    {
      "channel": 3,
      "note": 46,
      "start": 74.1849,
      "duration": 0.0273,
      "velocity": 102,
      "chip": "ym2612"
    },
    {
      "channel": 4,
      "note": 51,
      "start": 74.1852,
      "duration": 0.0273,
      "velocity": 102,
      "chip": "ym2612"
    },
    {
      "channel": 0,
      "note": 63,
      "start": 74.2115,
      "duration": 0.0143,
      "velocity": 103,
      "chip": "ym2612"
    },
    {
      "channel": 2,
      "note": 42,
      "start": 74.2118,
      "duration": 0.0143,
      "velocity": 102,
      "chip": "ym2612"
    },
    {
      "channel": 3,
      "note": 45,
      "start": 74.2121,
      "duration": 0.0142,
      "velocity": 102,
      "chip": "ym2612"
    },
    {
      "channel": 4,
      "note": 51,
      "start": 74.2124,
      "duration": 0.0142,
      "velocity": 102,
      "chip": "ym2612"
    },
    {
      "channel": 0,
      "note": 63,
      "start": 74.2258,
      "duration": 0.0132,
      "velocity": 103,
      "chip": "ym2612"
    },
    {
      "channel": 2,
      "note": 42,
      "start": 74.2261,
      "duration": 0.0132,
      "velocity": 102,
      "chip": "ym2612"
    },
    {
      "channel": 3,
      "note": 45,
      "start": 74.2263,
      "duration": 0.0132,
      "velocity": 102,
      "chip": "ym2612"
    },
    {
      "channel": 4,
      "note": 51,
      "start": 74.2267,
      "duration": 0.0132,
      "velocity": 102,
      "chip": "ym2612"
    },
    {
      "channel": 0,
      "note": 62,
      "start": 74.239,
      "duration": 0.0137,
      "velocity": 103,
      "chip": "ym2612"
    },
    {
      "channel": 2,
      "note": 42,
      "start": 74.2393,
      "duration": 0.0137,
      "velocity": 102,
      "chip": "ym2612"
    },
    {
      "channel": 3,
      "note": 45,
      "start": 74.2395,
      "duration": 0.0138,
      "velocity": 102,
      "chip": "ym2612"
    },
    {
      "channel": 4,
      "note": 50,
      "start": 74.2399,
      "duration": 0.0137,
      "velocity": 102,
      "chip": "ym2612"
    },
    {
      "channel": 0,
      "note": 62,
      "start": 74.2527,
      "duration": 0.0152,
      "velocity": 103,
      "chip": "ym2612"
    },
    {
      "channel": 2,
      "note": 41,
      "start": 74.253,
      "duration": 0.0153,
      "velocity": 102,
      "chip": "ym2612"
    },
    {
      "channel": 3,
      "note": 44,
      "start": 74.2534,
      "duration": 0.0153,
      "velocity": 102,
      "chip": "ym2612"
    },
    {
      "channel": 4,
      "note": 50,
      "start": 74.2536,
      "duration": 0.0153,
      "velocity": 102,
      "chip": "ym2612"
    },
    {
      "channel": 1,
      "note": 61,
      "start": 74.2671,
      "duration": 0.1184,
      "velocity": 107,
      "chip": "ym2612"
    },
    {
      "channel": 0,
      "note": 62,
      "start": 74.268,
      "duration": 0.03,
      "velocity": 103,
      "chip": "ym2612"
    },
    {
      "channel": 2,
      "note": 41,
      "start": 74.2683,
      "duration": 0.03,
      "velocity": 102,
      "chip": "ym2612"
    },
    {
      "channel": 3,
      "note": 44,
      "start": 74.2686,
      "duration": 0.03,
      "velocity": 102,
      "chip": "ym2612"
    },
    {
      "channel": 4,
      "note": 50,
      "start": 74.2689,
      "duration": 0.03,
      "velocity": 102,
      "chip": "ym2612"
    },
    {
      "channel": 0,
      "note": 61,
      "start": 74.298,
      "duration": 0.0139,
      "velocity": 103,
      "chip": "ym2612"
    },
    {
      "channel": 2,
      "note": 41,
      "start": 74.2984,
      "duration": 0.0139,
      "velocity": 102,
      "chip": "ym2612"
    },
    {
      "channel": 3,
      "note": 44,
      "start": 74.2986,
      "duration": 0.0139,
      "velocity": 102,
      "chip": "ym2612"
    },
    {
      "channel": 4,
      "note": 49,
      "start": 74.2989,
      "duration": 0.0139,
      "velocity": 102,
      "chip": "ym2612"
    },
    {
      "channel": 0,
      "note": 61,
      "start": 74.3119,
      "duration": 0.0146,
      "velocity": 103,
      "chip": "ym2612"
    },
    {
      "channel": 2,
      "note": 41,
      "start": 74.3122,
      "duration": 0.0145,
      "velocity": 102,
      "chip": "ym2612"
    },
    {
      "channel": 3,
      "note": 43,
      "start": 74.3125,
      "duration": 0.0146,
      "velocity": 102,
      "chip": "ym2612"
    },
    {
      "channel": 4,
      "note": 49,
      "start": 74.3128,
      "duration": 0.0146,
      "velocity": 102,
      "chip": "ym2612"
    },
    {
      "channel": 0,
      "note": 61,
      "start": 74.3264,
      "duration": 0.0132,
      "velocity": 103,
      "chip": "ym2612"
    },
    {
      "channel": 2,
      "note": 40,
      "start": 74.3267,
      "duration": 0.0132,
      "velocity": 102,
      "chip": "ym2612"
    },
    {
      "channel": 3,
      "note": 43,
      "start": 74.3271,
      "duration": 0.0132,
      "velocity": 102,
      "chip": "ym2612"
    },
    {
      "channel": 4,
      "note": 49,
      "start": 74.3274,
      "duration": 0.0131,
      "velocity": 102,
      "chip": "ym2612"
    },
    {
      "channel": 0,
      "note": 60,
      "start": 74.3396,
      "duration": 0.0157,
      "velocity": 103,
      "chip": "ym2612"
    },
    {
      "channel": 2,
      "note": 40,
      "start": 74.3399,
      "duration": 0.0157,
      "velocity": 102,
      "chip": "ym2612"
    },
    {
      "channel": 3,
      "note": 43,
      "start": 74.3402,
      "duration": 0.0157,
      "velocity": 102,
      "chip": "ym2612"
    },
    {
      "channel": 4,
      "note": 48,
      "start": 74.3405,
      "duration": 0.0157,
      "velocity": 102,
      "chip": "ym2612"
    },
    {
      "channel": 0,
      "note": 60,
      "start": 74.3553,
      "duration": 0.0295,
      "velocity": 103,
      "chip": "ym2612"
    },
    {
      "channel": 2,
      "note": 40,
      "start": 74.3556,
      "duration": 0.032,
      "velocity": 95,
      "chip": "ym2612"
    },
    {
      "channel": 3,
      "note": 43,
      "start": 74.356,
      "duration": 0.0344,
      "velocity": 102,
      "chip": "ym2612"
    },
    {
      "channel": 4,
      "note": 48,
      "start": 74.3562,
      "duration": 0.0345,
      "velocity": 102,
      "chip": "ym2612"
    },
    {
      "channel": 0,
      "note": 66,
      "start": 74.3851,
      "duration": 0.3465,
      "velocity": 103,
      "chip": "ym2612"
    },
    {
      "channel": 1,
      "note": 54,
      "start": 74.3857,
      "duration": 0.3464,
      "velocity": 107,
      "chip": "ym2612"
    },
    {
      "channel": 2,
      "note": 66,
      "start": 74.3878,
      "duration": 0.2255,
      "velocity": 95,
      "chip": "ym2612"
    },
    {
      "channel": 3,
      "note": 42,
      "start": 74.3904,
      "duration": 0.0087,
      "velocity": 102,
      "chip": "ym2612"
    },
    {
      "channel": 4,
      "note": 48,
      "start": 74.3907,
      "duration": 0.0087,
      "velocity": 102,
      "chip": "ym2612"
    },
    {
      "channel": 3,
      "note": 42,
      "start": 74.3991,
      "duration": 0.0159,
      "velocity": 102,
      "chip": "ym2612"
    },
    {
      "channel": 4,
      "note": 47,
      "start": 74.3994,
      "duration": 0.0159,
      "velocity": 102,
      "chip": "ym2612"
    },
    {
      "channel": 3,
      "note": 42,
      "start": 74.4149,
      "duration": 0.0166,
      "velocity": 102,
      "chip": "ym2612"
    },
    {
      "channel": 4,
      "note": 47,
      "start": 74.4152,
      "duration": 0.0166,
      "velocity": 102,
      "chip": "ym2612"
    },
    {
      "channel": 3,
      "note": 42,
      "start": 74.4315,
      "duration": 0.015,
      "velocity": 102,
      "chip": "ym2612"
    },
    {
      "channel": 4,
      "note": 46,
      "start": 74.4318,
      "duration": 0.0149,
      "velocity": 102,
      "chip": "ym2612"
    },
    {
      "channel": 3,
      "note": 41,
      "start": 74.4465,
      "duration": 0.0331,
      "velocity": 102,
      "chip": "ym2612"
    },
    {
      "channel": 4,
      "note": 46,
      "start": 74.4467,
      "duration": 0.0332,
      "velocity": 102,
      "chip": "ym2612"
    },
    {
      "channel": 3,
      "note": 41,
      "start": 74.4796,
      "duration": 0.0203,
      "velocity": 95,
      "chip": "ym2612"
    },
    {
      "channel": 4,
      "note": 46,
      "start": 74.4799,
      "duration": 0.0207,
      "velocity": 102,
      "chip": "ym2612"
    },
    {
      "channel": 3,
      "note": 69,
      "start": 74.5001,
      "duration": 0.2326,
      "velocity": 95,
      "chip": "ym2612"
    },
    {
      "channel": 4,
      "note": 45,
      "start": 74.5007,
      "duration": 0.0124,
      "velocity": 102,
      "chip": "ym2612"
    },
    {
      "channel": 4,
      "note": 45,
      "start": 74.513,
      "duration": 0.0167,
      "velocity": 102,
      "chip": "ym2612"
    },
    {
      "channel": 4,
      "note": 44,
      "start": 74.5297,
      "duration": 0.0173,
      "velocity": 102,
      "chip": "ym2612"
    },
    {
      "channel": 4,
      "note": 44,
      "start": 74.547,
      "duration": 0.0327,
      "velocity": 102,
      "chip": "ym2612"
    },
    {
      "channel": 4,
      "note": 44,
      "start": 74.5797,
      "duration": 0.0167,
      "velocity": 102,
      "chip": "ym2612"
    },
    {
      "channel": 4,
      "note": 44,
      "start": 74.5963,
      "duration": 0.0192,
      "velocity": 103,
      "chip": "ym2612"
    },
    {
      "channel": 2,
      "note": 73,
      "start": 74.6135,
      "duration": 1.1115,
      "velocity": 95,
      "chip": "ym2612"
    },
    {
      "channel": 4,
      "note": 66,
      "start": 74.6157,
      "duration": 0.3341,
      "velocity": 103,
      "chip": "ym2612"
    },
    {
      "channel": 0,
      "note": 78,
      "start": 74.7317,
      "duration": 0.3285,
      "velocity": 103,
      "chip": "ym2612"
    },
    {
      "channel": 1,
      "note": 66,
      "start": 74.7323,
      "duration": 0.2168,
      "velocity": 107,
      "chip": "ym2612"
    },
    {
      "channel": 3,
      "note": 78,
      "start": 74.7329,
      "duration": 1.0997,
      "velocity": 95,
      "chip": "ym2612"
    },
    {
      "channel": 1,
      "note": 54,
      "start": 74.9493,
      "duration": 0.1114,
      "velocity": 107,
      "chip": "ym2612"
    },
    {
      "channel": 4,
      "note": 78,
      "start": 74.95,
      "duration": 0.113,
      "velocity": 1,
      "chip": "ym2612"
    },
    {
      "channel": 0,
      "note": 78,
      "start": 75.0603,
      "duration": 0.3406,
      "velocity": 103,
      "chip": "ym2612"
    },
    {
      "channel": 1,
      "note": 57,
      "start": 75.0609,
      "duration": 0.3405,
      "velocity": 107,
      "chip": "ym2612"
    },
    {
      "channel": 4,
      "note": 69,
      "start": 75.0632,
      "duration": 0.2212,
      "velocity": 103,
      "chip": "ym2612"
    },
    {
      "channel": 4,
      "note": 78,
      "start": 75.2847,
      "duration": 0.3288,
      "velocity": 103,
      "chip": "ym2612"
    },
    {
      "channel": 0,
      "note": 73,
      "start": 75.4011,
      "duration": 0.3228,
      "velocity": 103,
      "chip": "ym2612"
    },
    {
      "channel": 1,
      "note": 69,
      "start": 75.4017,
      "duration": 0.2112,
      "velocity": 107,
      "chip": "ym2612"
    },
    {
      "channel": 1,
      "note": 57,
      "start": 75.613,
      "duration": 0.1115,
      "velocity": 107,
      "chip": "ym2612"
    },
    {
      "channel": 4,
      "note": 73,
      "start": 75.6137,
      "duration": 0.1136,
      "velocity": 1,
      "chip": "ym2612"
    },
    {
      "channel": 0,
      "note": 68,
      "start": 75.7241,
      "duration": 0.3583,
      "velocity": 103,
      "chip": "ym2612"
    },
    {
      "channel": 1,
      "note": 56,
      "start": 75.7247,
      "duration": 0.3583,
      "velocity": 107,
      "chip": "ym2612"
    },
    {
      "channel": 2,
      "note": 68,
      "start": 75.7252,
      "duration": 0.2223,
      "velocity": 95,
      "chip": "ym2612"
    },
    {
      "channel": 4,
      "note": 69,
      "start": 75.7275,
      "duration": 0.2223,
      "velocity": 103,
      "chip": "ym2612"
    },
    {
      "channel": 3,
      "note": 73,
      "start": 75.8327,
      "duration": 0.251,
      "velocity": 95,
      "chip": "ym2612"
    },
    {
      "channel": 2,
      "note": 77,
      "start": 75.9477,
      "duration": 1.1289,
      "velocity": 95,
      "chip": "ym2612"
    },
    {
      "channel": 4,
      "note": 68,
      "start": 75.95,
      "duration": 0.3414,
      "velocity": 103,
      "chip": "ym2612"
    },
    {
      "channel": 0,
      "note": 80,
      "start": 76.0826,
      "duration": 0.321,
      "velocity": 103,
      "chip": "ym2612"
    },
    {
      "channel": 1,
      "note": 68,
      "start": 76.0831,
      "duration": 0.2076,
      "velocity": 107,
      "chip": "ym2612"
    },
    {
      "channel": 3,
      "note": 80,
      "start": 76.0837,
      "duration": 1.1182,
      "velocity": 95,
      "chip": "ym2612"
    },
    {
      "channel": 1,
      "note": 56,
      "start": 76.2908,
      "duration": 0.1132,
      "velocity": 107,
      "chip": "ym2612"
    },
    {
      "channel": 4,
      "note": 80,
      "start": 76.2915,
      "duration": 0.1149,
      "velocity": 1,
      "chip": "ym2612"
    },
    {
      "channel": 0,
      "note": 80,
      "start": 76.4037,
      "duration": 0.3594,
      "velocity": 103,
      "chip": "ym2612"
    },
    {
      "channel": 1,
      "note": 62,
      "start": 76.4042,
      "duration": 0.3593,
      "velocity": 107,
      "chip": "ym2612"
    },
    {
      "channel": 4,
      "note": 69,
      "start": 76.4065,
      "duration": 0.2472,
      "velocity": 103,
      "chip": "ym2612"
    },
    {
      "channel": 4,
      "note": 80,
      "start": 76.6539,
      "duration": 0.314,
      "velocity": 103,
      "chip": "ym2612"
    },
    {
      "channel": 0,
      "note": 73,
      "start": 76.7632,
      "duration": 0.3121,
      "velocity": 103,
      "chip": "ym2612"
    },
    {
      "channel": 1,
      "note": 61,
      "start": 76.7638,
      "duration": 0.3122,
      "velocity": 107,
      "chip": "ym2612"
    },
    {
      "channel": 4,
      "note": 73,
      "start": 76.9682,
      "duration": 0.3494,
      "velocity": 103,
      "chip": "ym2612"
    },
    {
      "channel": 0,
      "note": 66,
      "start": 77.0755,
      "duration": 0.3596,
      "velocity": 103,
      "chip": "ym2612"
    },
    {
      "channel": 1,
      "note": 54,
      "start": 77.0761,
      "duration": 0.3595,
      "velocity": 107,
      "chip": "ym2612"
    },
    {
      "channel": 2,
      "note": 66,
      "start": 77.0768,
      "duration": 0.2401,
      "velocity": 95,
      "chip": "ym2612"
    },
    {
      "channel": 3,
      "note": 69,
      "start": 77.2021,
      "duration": 0.2341,
      "velocity": 95,
      "chip": "ym2612"
    },
    {
      "channel": 2,
      "note": 73,
      "start": 77.3171,
      "duration": 0.2205,
      "velocity": 95,
      "chip": "ym2612"
    },
    {
      "channel": 4,
      "note": 66,
      "start": 77.3177,
      "duration": 0.325,
      "velocity": 103,
      "chip": "ym2612"
    },
    {
      "channel": 0,
      "note": 78,
      "start": 77.4353,
      "duration": 0.3308,
      "velocity": 103,
      "chip": "ym2612"
    },
    {
      "channel": 1,
      "note": 66,
      "start": 77.4359,
      "duration": 0.2057,
      "velocity": 107,
      "chip": "ym2612"
    },
    {
      "channel": 3,
      "note": 78,
      "start": 77.4364,
      "duration": 0.2057,
      "velocity": 95,
      "chip": "ym2612"
    },
    {
      "channel": 2,
      "note": 80,
      "start": 77.5378,
      "duration": 0.2294,
      "velocity": 95,
      "chip": "ym2612"
    },
    {
      "channel": 1,
      "note": 54,
      "start": 77.6417,
      "duration": 0.1249,
      "velocity": 107,
      "chip": "ym2612"
    },
    {
      "channel": 3,
      "note": 81,
      "start": 77.6423,
      "duration": 0.3489,
      "velocity": 95,
      "chip": "ym2612"
    },
    {
      "channel": 4,
      "note": 78,
      "start": 77.6429,
      "duration": 0.1266,
      "velocity": 1,
      "chip": "ym2612"
    },
    {
      "channel": 0,
      "note": 78,
      "start": 77.7662,
      "duration": 0.3416,
      "velocity": 103,
      "chip": "ym2612"
    },
    {
      "channel": 1,
      "note": 57,
      "start": 77.7668,
      "duration": 0.3416,
      "velocity": 107,
      "chip": "ym2612"
    },
    {
      "channel": 2,
      "note": 85,
      "start": 77.7674,
      "duration": 0.3416,
      "velocity": 95,
      "chip": "ym2612"
    },
    {
      "channel": 4,
      "note": 81,
      "start": 77.7696,
      "duration": 0.2239,
      "velocity": 103,
      "chip": "ym2612"
    },
    {
      "channel": 3,
      "note": 83,
      "start": 77.9915,
      "duration": 0.3425,
      "velocity": 95,
      "chip": "ym2612"
    },
    {
      "channel": 4,
      "note": 78,
      "start": 77.9936,
      "duration": 0.3409,
      "velocity": 103,
      "chip": "ym2612"
    },
    {
      "channel": 0,
      "note": 81,
      "start": 78.108,
      "duration": 0.2248,
      "velocity": 103,
      "chip": "ym2612"
    },
    {
      "channel": 1,
      "note": 69,
      "start": 78.1086,
      "duration": 0.2248,
      "velocity": 107,
      "chip": "ym2612"
    },
    {
      "channel": 2,
      "note": 81,
      "start": 78.1092,
      "duration": 0.3345,
      "velocity": 95,
      "chip": "ym2612"
    },
    {
      "channel": 0,
      "note": 80,
      "start": 78.3329,
      "duration": 0.0437,
      "velocity": 103,
      "chip": "ym2612"
    },
    {
      "channel": 1,
      "note": 57,
      "start": 78.3335,
      "duration": 0.1096,
      "velocity": 107,
      "chip": "ym2612"
    },
    {
      "channel": 3,
      "note": 80,
      "start": 78.3341,
      "duration": 0.2197,
      "velocity": 95,
      "chip": "ym2612"
    },
    {
      "channel": 4,
      "note": 81,
      "start": 78.3347,
      "duration": 0.2197,
      "velocity": 103,
      "chip": "ym2612"
    },
    {
      "channel": 0,
      "note": 81,
      "start": 78.3767,
      "duration": 0.0658,
      "velocity": 103,
      "chip": "ym2612"
    },
    {
      "channel": 0,
      "note": 80,
      "start": 78.4427,
      "duration": 0.2276,
      "velocity": 103,
      "chip": "ym2612"
    },
    {
      "channel": 1,
      "note": 56,
      "start": 78.4433,
      "duration": 0.3444,
      "velocity": 107,
      "chip": "ym2612"
    },
    {
      "channel": 2,
      "note": 77,
      "start": 78.4439,
      "duration": 0.2271,
      "velocity": 95,
      "chip": "ym2612"
    },
    {
      "channel": 3,
      "note": 80,
      "start": 78.554,
      "duration": 0.2343,
      "velocity": 95,
      "chip": "ym2612"
    },
    {
      "channel": 4,
      "note": 80,
      "start": 78.5546,
      "duration": 0.066,
      "velocity": 103,
      "chip": "ym2612"
    },
    {
      "channel": 4,
      "note": 81,
      "start": 78.6208,
      "duration": 0.0508,
      "velocity": 103,
      "chip": "ym2612"
    },
    {
      "channel": 0,
      "note": 79,
      "start": 78.6705,
      "duration": 0.1166,
      "velocity": 103,
      "chip": "ym2612"
    },
    {
      "channel": 2,
      "note": 81,
      "start": 78.6711,
      "duration": 0.2357,
      "velocity": 95,
      "chip": "ym2612"
    },
    {
      "channel": 4,
      "note": 80,
      "start": 78.6718,
      "duration": 0.2357,
      "velocity": 103,
      "chip": "ym2612"
    },
    {
      "channel": 0,
      "note": 80,
      "start": 78.7873,
      "duration": 0.2195,
      "velocity": 103,
      "chip": "ym2612"
    },
    {
      "channel": 1,
      "note": 59,
      "start": 78.7879,
      "duration": 0.329,
      "velocity": 107,
      "chip": "ym2612"
    },
    {
      "channel": 3,
      "note": 83,
      "start": 78.7885,
      "duration": 0.219,
      "velocity": 95,
      "chip": "ym2612"
    },
    {
      "channel": 2,
      "note": 85,
      "start": 78.9071,
      "duration": 0.2104,
      "velocity": 95,
      "chip": "ym2612"
    },
    {
      "channel": 4,
      "note": 79,
      "start": 78.9077,
      "duration": 0.1003,
      "velocity": 103,
      "chip": "ym2612"
    },
    {
      "channel": 0,
      "note": 81,
      "start": 79.0069,
      "duration": 0.1093,
      "velocity": 103,
      "chip": "ym2612"
    },
    {
      "channel": 3,
      "note": 89,
      "start": 79.0076,
      "duration": 0.1104,
      "velocity": 95,
      "chip": "ym2612"
    },
    {
      "channel": 4,
      "note": 80,
      "start": 79.0082,
      "duration": 0.2249,
      "velocity": 103,
      "chip": "ym2612"
    },
    {
      "channel": 0,
      "note": 80,
      "start": 79.1165,
      "duration": 0.3548,
      "velocity": 103,
      "chip": "ym2612"
    },
    {
      "channel": 1,
      "note": 62,
      "start": 79.1171,
      "duration": 0.3548,
      "velocity": 107,
      "chip": "ym2612"
    },
    {
      "channel": 2,
      "note": 92,
      "start": 79.1176,
      "duration": 0.3548,
      "velocity": 95,
      "chip": "ym2612"
    },
    {
      "channel": 3,
      "note": 89,
      "start": 79.1181,
      "duration": 0.3549,
      "velocity": 95,
      "chip": "ym2612"
    },
    {
      "channel": 4,
      "note": 81,
      "start": 79.2333,
      "duration": 0.1149,
      "velocity": 103,
      "chip": "ym2612"
    },
    {
      "channel": 4,
      "note": 80,
      "start": 79.3484,
      "duration": 0.2709,
      "velocity": 103,
      "chip": "ym2612"
    },
    {
      "channel": 0,
      "note": 73,
      "start": 79.4714,
      "duration": 0.3143,
      "velocity": 103,
      "chip": "ym2612"
    },
    {
      "channel": 1,
      "note": 61,
      "start": 79.472,
      "duration": 0.3144,
      "velocity": 107,
      "chip": "ym2612"
    },
    {
      "channel": 2,
      "note": 89,
      "start": 79.4726,
      "duration": 0.3144,
      "velocity": 95,
      "chip": "ym2612"
    },
    {
      "channel": 3,
      "note": 85,
      "start": 79.4732,
      "duration": 0.2674,
      "velocity": 1,
      "chip": "ym2612"
    },
    {
      "channel": 4,
      "note": 85,
      "start": 79.6195,
      "duration": 0.412,
      "velocity": 103,
      "chip": "ym2612"
    },
    {
      "channel": 3,
      "note": 81,
      "start": 79.7407,
      "duration": 0.16,
      "velocity": 95,
      "chip": "ym2612"
    },
    {
      "channel": 0,
      "note": 66,
      "start": 79.7859,
      "duration": 0.3631,
      "velocity": 103,
      "chip": "ym2612"
    },
    {
      "channel": 1,
      "note": 54,
      "start": 79.7865,
      "duration": 0.3631,
      "velocity": 107,
      "chip": "ym2612"
    },
    {
      "channel": 2,
      "note": 66,
      "start": 79.7871,
      "duration": 0.2437,
      "velocity": 95,
      "chip": "ym2612"
    },
    {
      "channel": 3,
      "note": 69,
      "start": 79.9009,
      "duration": 0.2493,
      "velocity": 95,
      "chip": "ym2612"
    },
    {
      "channel": 2,
      "note": 73,
      "start": 80.031,
      "duration": 1.1267,
      "velocity": 95,
      "chip": "ym2612"
    },
    {
      "channel": 4,
      "note": 66,
      "start": 80.0317,
      "duration": 0.3263,
      "velocity": 103,
      "chip": "ym2612"
    },
    {
      "channel": 0,
      "note": 78,
      "start": 80.1492,
      "duration": 0.3212,
      "velocity": 103,
      "chip": "ym2612"
    },
    {
      "channel": 1,
      "note": 66,
      "start": 80.1498,
      "duration": 0.2075,
      "velocity": 107,
      "chip": "ym2612"
    },
    {
      "channel": 3,
      "note": 78,
      "start": 80.1503,
      "duration": 1.1163,
      "velocity": 95,
      "chip": "ym2612"
    },
    {
      "channel": 1,
      "note": 54,
      "start": 80.3575,
      "duration": 0.1134,
      "velocity": 107,
      "chip": "ym2612"
    },
    {
      "channel": 4,
      "note": 78,
      "start": 80.3582,
      "duration": 0.115,
      "velocity": 1,
      "chip": "ym2612"
    },
    {
      "channel": 0,
      "note": 78,
      "start": 80.4705,
      "duration": 0.3561,
      "velocity": 103,
      "chip": "ym2612"
    },
    {
      "channel": 1,
      "note": 57,
      "start": 80.4711,
      "duration": 0.356,
      "velocity": 107,
      "chip": "ym2612"
    },
    {
      "channel": 4,
      "note": 69,
      "start": 80.4734,
      "duration": 0.2367,
      "velocity": 103,
      "chip": "ym2612"
    },
    {
      "channel": 4,
      "note": 78,
      "start": 80.7103,
      "duration": 0.3214,
      "velocity": 103,
      "chip": "ym2612"
    },
    {
      "channel": 0,
      "note": 73,
      "start": 80.8267,
      "duration": 0.3299,
      "velocity": 103,
      "chip": "ym2612"
    },
    {
      "channel": 1,
      "note": 69,
      "start": 80.8273,
      "duration": 0.2038,
      "velocity": 107,
      "chip": "ym2612"
    },
    {
      "channel": 1,
      "note": 57,
      "start": 81.0312,
      "duration": 0.1259,
      "velocity": 107,
      "chip": "ym2612"
    },
    {
      "channel": 4,
      "note": 73,
      "start": 81.032,
      "duration": 0.128,
      "velocity": 1,
      "chip": "ym2612"
    },
    {
      "channel": 0,
      "note": 68,
      "start": 81.1567,
      "duration": 0.3432,
      "velocity": 103,
      "chip": "ym2612"
    },
    {
      "channel": 1,
      "note": 56,
      "start": 81.1573,
      "duration": 0.3432,
      "velocity": 107,
      "chip": "ym2612"
    },
    {
      "channel": 2,
      "note": 68,
      "start": 81.1579,
      "duration": 0.2238,
      "velocity": 95,
      "chip": "ym2612"
    },
    {
      "channel": 4,
      "note": 69,
      "start": 81.1601,
      "duration": 0.2238,
      "velocity": 103,
      "chip": "ym2612"
    },
    {
      "channel": 3,
      "note": 73,
      "start": 81.2669,
      "duration": 0.2342,
      "velocity": 95,
      "chip": "ym2612"
    },
    {
      "channel": 2,
      "note": 77,
      "start": 81.3819,
      "duration": 1.1231,
      "velocity": 95,
      "chip": "ym2612"
    },
    {
      "channel": 4,
      "note": 68,
      "start": 81.3841,
      "duration": 0.3383,
      "velocity": 103,
      "chip": "ym2612"
    },
    {
      "channel": 0,
      "note": 80,
      "start": 81.5001,
      "duration": 0.3345,
      "velocity": 103,
      "chip": "ym2612"
    },
    {
      "channel": 1,
      "note": 68,
      "start": 81.5007,
      "duration": 0.2212,
      "velocity": 107,
      "chip": "ym2612"
    },
    {
      "channel": 3,
      "note": 80,
      "start": 81.5012,
      "duration": 1.1113,
      "velocity": 95,
      "chip": "ym2612"
    },
    {
      "channel": 1,
      "note": 56,
      "start": 81.7219,
      "duration": 0.1132,
      "velocity": 107,
      "chip": "ym2612"
    },
    {
      "channel": 4,
      "note": 80,
      "start": 81.7226,
      "duration": 0.1148,
      "velocity": 1,
      "chip": "ym2612"
    },
    {
      "channel": 0,
      "note": 80,
      "start": 81.8347,
      "duration": 0.3465,
      "velocity": 103,
      "chip": "ym2612"
    },
    {
      "channel": 1,
      "note": 62,
      "start": 81.8353,
      "duration": 0.3465,
      "velocity": 107,
      "chip": "ym2612"
    },
    {
      "channel": 4,
      "note": 69,
      "start": 81.8376,
      "duration": 0.2305,
      "velocity": 103,
      "chip": "ym2612"
    },
    {
      "channel": 4,
      "note": 80,
      "start": 82.0683,
      "duration": 0.331,
      "velocity": 103,
      "chip": "ym2612"
    },
    {
      "channel": 0,
      "note": 73,
      "start": 82.1814,
      "duration": 0.3223,
      "velocity": 103,
      "chip": "ym2612"
    },
    {
      "channel": 1,
      "note": 61,
      "start": 82.182,
      "duration": 0.3224,
      "velocity": 107,
      "chip": "ym2612"
    },
    {
      "channel": 4,
      "note": 73,
      "start": 82.3995,
      "duration": 0.3304,
      "velocity": 103,
      "chip": "ym2612"
    },
    {
      "channel": 0,
      "note": 86,
      "start": 82.5039,
      "duration": 0.1079,
      "velocity": 103,
      "chip": "ym2612"
    },
    {
      "channel": 1,
      "note": 54,
      "start": 82.5045,
      "duration": 0.3579,
      "velocity": 107,
      "chip": "ym2612"
    },
    {
      "channel": 2,
      "note": 66,
      "start": 82.5051,
      "duration": 0.224,
      "velocity": 95,
      "chip": "ym2612"
    },
    {
      "channel": 0,
      "note": 85,
      "start": 82.6119,
      "duration": 0.1166,
      "velocity": 103,
      "chip": "ym2612"
    },
    {
      "channel": 3,
      "note": 69,
      "start": 82.6127,
      "duration": 0.2503,
      "velocity": 95,
      "chip": "ym2612"
    },
    {
      "channel": 0,
      "note": 83,
      "start": 82.7287,
      "duration": 0.1332,
      "velocity": 103,
      "chip": "ym2612"
    },
    {
      "channel": 2,
      "note": 73,
      "start": 82.7292,
      "duration": 0.2371,
      "velocity": 95,
      "chip": "ym2612"
    },
    {
      "channel": 4,
      "note": 66,
      "start": 82.7299,
      "duration": 0.3354,
      "velocity": 103,
      "chip": "ym2612"
    },
    {
      "channel": 0,
      "note": 81,
      "start": 82.862,
      "duration": 0.1037,
      "velocity": 103,
      "chip": "ym2612"
    },
    {
      "channel": 1,
      "note": 66,
      "start": 82.8626,
      "duration": 0.2016,
      "velocity": 107,
      "chip": "ym2612"
    },
    {
      "channel": 3,
      "note": 78,
      "start": 82.8632,
      "duration": 0.2016,
      "velocity": 95,
      "chip": "ym2612"
    },
    {
      "channel": 0,
      "note": 80,
      "start": 82.9659,
      "duration": 0.0977,
      "velocity": 103,
      "chip": "ym2612"
    },
    {
      "channel": 2,
      "note": 80,
      "start": 82.9665,
      "duration": 0.2076,
      "velocity": 95,
      "chip": "ym2612"
    },
    {
      "channel": 0,
      "note": 78,
      "start": 83.0637,
      "duration": 0.1093,
      "velocity": 103,
      "chip": "ym2612"
    },
    {
      "channel": 1,
      "note": 54,
      "start": 83.0643,
      "duration": 0.1093,
      "velocity": 107,
      "chip": "ym2612"
    },
    {
      "channel": 3,
      "note": 81,
      "start": 83.0649,
      "duration": 0.3482,
      "velocity": 95,
      "chip": "ym2612"
    },
    {
      "channel": 4,
      "note": 78,
      "start": 83.0655,
      "duration": 0.1109,
      "velocity": 1,
      "chip": "ym2612"
    },
    {
      "channel": 0,
      "note": 74,
      "start": 83.1732,
      "duration": 0.1059,
      "velocity": 103,
      "chip": "ym2612"
    },
    {
      "channel": 1,
      "note": 57,
      "start": 83.1737,
      "duration": 0.356,
      "velocity": 107,
      "chip": "ym2612"
    },
    {
      "channel": 2,
      "note": 85,
      "start": 83.1743,
      "duration": 0.356,
      "velocity": 95,
      "chip": "ym2612"
    },
    {
      "channel": 4,
      "note": 81,
      "start": 83.1765,
      "duration": 0.2388,
      "velocity": 103,
      "chip": "ym2612"
    },
    {
      "channel": 0,
      "note": 73,
      "start": 83.2793,
      "duration": 0.1332,
      "velocity": 103,
      "chip": "ym2612"
    },
    {
      "channel": 0,
      "note": 71,
      "start": 83.4126,
      "duration": 0.1166,
      "velocity": 103,
      "chip": "ym2612"
    },
    {
      "channel": 3,
      "note": 83,
      "start": 83.4133,
      "duration": 0.3227,
      "velocity": 95,
      "chip": "ym2612"
    },
    {
      "channel": 4,
      "note": 78,
      "start": 83.4155,
      "duration": 0.321,
      "velocity": 103,
      "chip": "ym2612"
    },
    {
      "channel": 0,
      "note": 69,
      "start": 83.5293,
      "duration": 0.1035,
      "velocity": 103,
      "chip": "ym2612"
    },
    {
      "channel": 1,
      "note": 69,
      "start": 83.5299,
      "duration": 0.2055,
      "velocity": 107,
      "chip": "ym2612"
    },
    {
      "channel": 2,
      "note": 81,
      "start": 83.5305,
      "duration": 0.3187,
      "velocity": 95,
      "chip": "ym2612"
    },
    {
      "channel": 0,
      "note": 68,
      "start": 83.633,
      "duration": 0.1018,
      "velocity": 103,
      "chip": "ym2612"
    },
    {
      "channel": 0,
      "note": 66,
      "start": 83.735,
      "duration": 0.1131,
      "velocity": 103,
      "chip": "ym2612"
    },
    {
      "channel": 1,
      "note": 57,
      "start": 83.7355,
      "duration": 0.1132,
      "velocity": 107,
      "chip": "ym2612"
    },
    {
      "channel": 3,
      "note": 80,
      "start": 83.7361,
      "duration": 0.2404,
      "velocity": 95,
      "chip": "ym2612"
    },
    {
      "channel": 4,
      "note": 81,
      "start": 83.7367,
      "duration": 0.2403,
      "velocity": 103,
      "chip": "ym2612"
    },
    {
      "channel": 0,
      "note": 73,
      "start": 83.8483,
      "duration": 0.0609,
      "velocity": 103,
      "chip": "ym2612"
    },
    {
      "channel": 1,
      "note": 56,
      "start": 83.8488,
      "duration": 0.3609,
      "velocity": 107,
      "chip": "ym2612"
    },
    {
      "channel": 2,
      "note": 77,
      "start": 83.8494,
      "duration": 0.2437,
      "velocity": 95,
      "chip": "ym2612"
    },
    {
      "channel": 0,
      "note": 74,
      "start": 83.9094,
      "duration": 0.0665,
      "velocity": 103,
      "chip": "ym2612"
    },
    {
      "channel": 0,
      "note": 73,
      "start": 83.976,
      "duration": 0.0499,
      "velocity": 103,
      "chip": "ym2612"
    },
    {
      "channel": 3,
      "note": 80,
      "start": 83.9767,
      "duration": 0.2337,
      "velocity": 95,
      "chip": "ym2612"
    },
    {
      "channel": 4,
      "note": 80,
      "start": 83.9773,
      "duration": 0.0493,
      "velocity": 103,
      "chip": "ym2612"
    },
    {
      "channel": 0,
      "note": 74,
      "start": 84.026,
      "duration": 0.0665,
      "velocity": 103,
      "chip": "ym2612"
    },
    {
      "channel": 4,
      "note": 81,
      "start": 84.0268,
      "duration": 0.067,
      "velocity": 103,
      "chip": "ym2612"
    },
    {
      "channel": 0,
      "note": 73,
      "start": 84.0927,
      "duration": 0.0499,
      "velocity": 103,
      "chip": "ym2612"
    },
    {
      "channel": 2,
      "note": 81,
      "start": 84.0933,
      "duration": 0.2164,
      "velocity": 95,
      "chip": "ym2612"
    },
    {
      "channel": 4,
      "note": 80,
      "start": 84.0939,
      "duration": 0.2164,
      "velocity": 103,
      "chip": "ym2612"
    },
    {
      "channel": 0,
      "note": 74,
      "start": 84.1427,
      "duration": 0.0665,
      "velocity": 103,
      "chip": "ym2612"
    },
    {
      "channel": 0,
      "note": 73,
      "start": 84.2094,
      "duration": 0.0567,
      "velocity": 103,
      "chip": "ym2612"
    },
    {
      "channel": 1,
      "note": 59,
      "start": 84.21,
      "duration": 0.3367,
      "velocity": 107,
      "chip": "ym2612"
    },
    {
      "channel": 3,
      "note": 83,
      "start": 84.2106,
      "duration": 0.2074,
      "velocity": 95,
      "chip": "ym2612"
    },
    {
      "channel": 0,
      "note": 74,
      "start": 84.2663,
      "duration": 0.0428,
      "velocity": 103,
      "chip": "ym2612"
    },
    {
      "channel": 0,
      "note": 73,
      "start": 84.3093,
      "duration": 0.0627,
      "velocity": 103,
      "chip": "ym2612"
    },
    {
      "channel": 2,
      "note": 85,
      "start": 84.3098,
      "duration": 0.2374,
      "velocity": 95,
      "chip": "ym2612"
    },
    {
      "channel": 4,
      "note": 79,
      "start": 84.3105,
      "duration": 0.1081,
      "velocity": 103,
      "chip": "ym2612"
    },
    {
      "channel": 0,
      "note": 74,
      "start": 84.3721,
      "duration": 0.0452,
      "velocity": 103,
      "chip": "ym2612"
    },
    {
      "channel": 0,
      "note": 73,
      "start": 84.4174,
      "duration": 0.062,
      "velocity": 103,
      "chip": "ym2612"
    },
    {
      "channel": 3,
      "note": 89,
      "start": 84.4181,
      "duration": 0.1297,
      "velocity": 95,
      "chip": "ym2612"
    },
    {
      "channel": 4,
      "note": 80,
      "start": 84.4187,
      "duration": 0.2441,
      "velocity": 103,
      "chip": "ym2612"
    },
    {
      "channel": 0,
      "note": 74,
      "start": 84.4796,
      "duration": 0.0665,
      "velocity": 103,
      "chip": "ym2612"
    },
    {
      "channel": 0,
      "note": 73,
      "start": 84.5463,
      "duration": 0.6625,
      "velocity": 103,
      "chip": "ym2612"
    },
    {
      "channel": 1,
      "note": 62,
      "start": 84.5468,
      "duration": 0.3344,
      "velocity": 107,
      "chip": "ym2612"
    },
    {
      "channel": 2,
      "note": 92,
      "start": 84.5473,
      "duration": 0.3344,
      "velocity": 95,
      "chip": "ym2612"
    },
    {
      "channel": 3,
      "note": 89,
      "start": 84.5479,
      "duration": 0.3344,
      "velocity": 95,
      "chip": "ym2612"
    },
    {
      "channel": 4,
      "note": 81,
      "start": 84.6631,
      "duration": 0.1165,
      "velocity": 103,
      "chip": "ym2612"
    },
    {
      "channel": 4,
      "note": 80,
      "start": 84.7798,
      "duration": 0.268,
      "velocity": 103,
      "chip": "ym2612"
    },
    {
      "channel": 1,
      "note": 61,
      "start": 84.8814,
      "duration": 0.328,
      "velocity": 107,
      "chip": "ym2612"
    },
    {
      "channel": 2,
      "note": 89,
      "start": 84.8819,
      "duration": 0.3297,
      "velocity": 1,
      "chip": "ym2612"
    },
    {
      "channel": 3,
      "note": 85,
      "start": 84.8825,
      "duration": 0.2729,
      "velocity": 1,
      "chip": "ym2612"
    },
    {
      "channel": 4,
      "note": 85,
      "start": 85.048,
      "duration": 0.1665,
      "velocity": 1,
      "chip": "ym2612"
    },
    {
      "channel": 3,
      "note": 81,
      "start": 85.1556,
      "duration": 0.0567,
      "velocity": 1,
      "chip": "ym2612"
    },
    {
      "channel": 0,
      "note": 84,
      "start": 85.209,
      "duration": 0.1129,
      "velocity": 103,
      "chip": "ym2612"
    },
    {
      "channel": 1,
      "note": 64,
      "start": 85.2096,
      "duration": 0.3463,
      "velocity": 107,
      "chip": "ym2612"
    },
    {
      "channel": 2,
      "note": 67,
      "start": 85.2118,
      "duration": 0.229,
      "velocity": 103,
      "chip": "ym2612"
    },
    {
      "channel": 3,
      "note": 67,
      "start": 85.2124,
      "duration": 2.7917,
      "velocity": 95,
      "chip": "ym2612"
    },
    {
      "channel": 4,
      "note": 67,
      "start": 85.2146,
      "duration": 2.9051,
      "velocity": 103,
      "chip": "ym2612"
    },
    {
      "channel": 0,
      "note": 83,
      "start": 85.3221,
      "duration": 0.1165,
      "velocity": 103,
      "chip": "ym2612"
    },
    {
      "channel": 0,
      "note": 81,
      "start": 85.4388,
      "duration": 0.1166,
      "velocity": 103,
      "chip": "ym2612"
    },
    {
      "channel": 2,
      "note": 84,
      "start": 85.441,
      "duration": 0.1155,
      "velocity": 103,
      "chip": "ym2612"
    },
    {
      "channel": 0,
      "note": 79,
      "start": 85.5555,
      "duration": 0.1193,
      "velocity": 103,
      "chip": "ym2612"
    },
    {
      "channel": 1,
      "note": 59,
      "start": 85.5561,
      "duration": 0.3309,
      "velocity": 107,
      "chip": "ym2612"
    },
    {
      "channel": 2,
      "note": 83,
      "start": 85.5567,
      "duration": 0.1188,
      "velocity": 103,
      "chip": "ym2612"
    },
    {
      "channel": 0,
      "note": 78,
      "start": 85.675,
      "duration": 0.0999,
      "velocity": 103,
      "chip": "ym2612"
    },
    {
      "channel": 2,
      "note": 81,
      "start": 85.6756,
      "duration": 0.0998,
      "velocity": 103,
      "chip": "ym2612"
    },
    {
      "channel": 0,
      "note": 76,
      "start": 85.775,
      "duration": 0.1114,
      "velocity": 103,
      "chip": "ym2612"
    },
    {
      "channel": 2,
      "note": 79,
      "start": 85.7757,
      "duration": 0.1119,
      "velocity": 103,
      "chip": "ym2612"
    },
    {
      "channel": 0,
      "note": 72,
      "start": 85.8866,
      "duration": 0.1098,
      "velocity": 103,
      "chip": "ym2612"
    },
    {
      "channel": 1,
      "note": 55,
      "start": 85.8872,
      "duration": 0.3599,
      "velocity": 107,
      "chip": "ym2612"
    },
    {
      "channel": 2,
      "note": 78,
      "start": 85.8878,
      "duration": 0.1093,
      "velocity": 103,
      "chip": "ym2612"
    },
    {
      "channel": 0,
      "note": 71,
      "start": 85.9966,
      "duration": 0.1165,
      "velocity": 103,
      "chip": "ym2612"
    },
    {
      "channel": 2,
      "note": 76,
      "start": 85.9972,
      "duration": 0.1165,
      "velocity": 103,
      "chip": "ym2612"
    },
    {
      "channel": 0,
      "note": 69,
      "start": 86.1132,
      "duration": 0.1332,
      "velocity": 103,
      "chip": "ym2612"
    },
    {
      "channel": 2,
      "note": 72,
      "start": 86.1139,
      "duration": 0.1337,
      "velocity": 103,
      "chip": "ym2612"
    },
    {
      "channel": 0,
      "note": 67,
      "start": 86.2466,
      "duration": 0.1037,
      "velocity": 103,
      "chip": "ym2612"
    },
    {
      "channel": 1,
      "note": 52,
      "start": 86.2472,
      "duration": 0.3126,
      "velocity": 111,
      "chip": "ym2612"
    },
    {
      "channel": 2,
      "note": 71,
      "start": 86.2478,
      "duration": 0.1031,
      "velocity": 103,
      "chip": "ym2612"
    },
    {
      "channel": 0,
      "note": 66,
      "start": 86.3505,
      "duration": 0.0976,
      "velocity": 103,
      "chip": "ym2612"
    },
    {
      "channel": 2,
      "note": 69,
      "start": 86.3511,
      "duration": 0.0976,
      "velocity": 103,
      "chip": "ym2612"
    },
    {
      "channel": 0,
      "note": 64,
      "start": 86.4482,
      "duration": 0.1094,
      "velocity": 103,
      "chip": "ym2612"
    },
    {
      "channel": 2,
      "note": 67,
      "start": 86.4489,
      "duration": 0.1114,
      "velocity": 103,
      "chip": "ym2612"
    },
    {
      "channel": 0,
      "note": 71,
      "start": 86.5578,
      "duration": 0.3278,
      "velocity": 103,
      "chip": "ym2612"
    },
    {
      "channel": 1,
      "note": 59,
      "start": 86.5599,
      "duration": 0.3263,
      "velocity": 111,
      "chip": "ym2612"
    },
    {
      "channel": 2,
      "note": 66,
      "start": 86.5605,
      "duration": 0.0962,
      "velocity": 103,
      "chip": "ym2612"
    },
    {
      "channel": 2,
      "note": 64,
      "start": 86.6569,
      "duration": 0.1208,
      "velocity": 103,
      "chip": "ym2612"
    },
    {
      "channel": 2,
      "note": 71,
      "start": 86.7779,
      "duration": 0.3174,
      "velocity": 103,
      "chip": "ym2612"
    },
    {
      "channel": 0,
      "note": 75,
      "start": 86.8858,
      "duration": 0.3157,
      "velocity": 103,
      "chip": "ym2612"
    },
    {
      "channel": 1,
      "note": 57,
      "start": 86.8864,
      "duration": 0.3156,
      "velocity": 111,
      "chip": "ym2612"
    },
    {
      "channel": 2,
      "note": 75,
      "start": 87.0954,
      "duration": 0.1088,
      "velocity": 103,
      "chip": "ym2612"
    },
    {
      "channel": 0,
      "note": 78,
      "start": 87.2017,
      "duration": 0.3174,
      "velocity": 103,
      "chip": "ym2612"
    },
    {
      "channel": 1,
      "note": 59,
      "start": 87.2022,
      "duration": 0.3174,
      "velocity": 111,
      "chip": "ym2612"
    },
    {
      "channel": 2,
      "note": 71,
      "start": 87.2044,
      "duration": 0.3174,
      "velocity": 103,
      "chip": "ym2612"
    },
    {
      "channel": 0,
      "note": 83,
      "start": 87.5192,
      "duration": 0.232,
      "velocity": 103,
      "chip": "ym2612"
    },
    {
      "channel": 1,
      "note": 51,
      "start": 87.5198,
      "duration": 0.3651,
      "velocity": 111,
      "chip": "ym2612"
    },
    {
      "channel": 2,
      "note": 75,
      "start": 87.522,
      "duration": 0.2296,
      "velocity": 103,
      "chip": "ym2612"
    },
    {
      "channel": 0,
      "note": 82,
      "start": 87.7512,
      "duration": 0.0324,
      "velocity": 103,
      "chip": "ym2612"
    },
    {
      "channel": 2,
      "note": 74,
      "start": 87.7515,
      "duration": 0.0325,
      "velocity": 103,
      "chip": "ym2612"
    },
    {
      "channel": 0,
      "note": 81,
      "start": 87.7837,
      "duration": 0.0167,
      "velocity": 103,
      "chip": "ym2612"
    },
    {
      "channel": 2,
      "note": 73,
      "start": 87.7841,
      "duration": 0.0167,
      "velocity": 103,
      "chip": "ym2612"
    },
    {
      "channel": 0,
      "note": 80,
      "start": 87.8004,
      "duration": 0.0174,
      "velocity": 103,
      "chip": "ym2612"
    },
    {
      "channel": 2,
      "note": 72,
      "start": 87.8007,
      "duration": 0.0174,
      "velocity": 103,
      "chip": "ym2612"
    },
    {
      "channel": 0,
      "note": 79,
      "start": 87.8178,
      "duration": 0.0159,
      "velocity": 103,
      "chip": "ym2612"
    },
    {
      "channel": 2,
      "note": 71,
      "start": 87.8181,
      "duration": 0.016,
      "velocity": 103,
      "chip": "ym2612"
    },
    {
      "channel": 0,
      "note": 78,
      "start": 87.8337,
      "duration": 0.0167,
      "velocity": 103,
      "chip": "ym2612"
    },
    {
      "channel": 2,
      "note": 70,
      "start": 87.8341,
      "duration": 0.0167,
      "velocity": 103,
      "chip": "ym2612"
    },
    {
      "channel": 0,
      "note": 77,
      "start": 87.8503,
      "duration": 0.034,
      "velocity": 103,
      "chip": "ym2612"
    },
    {
      "channel": 2,
      "note": 69,
      "start": 87.8507,
      "duration": 0.0364,
      "velocity": 95,
      "chip": "ym2612"
    },
    {
      "channel": 0,
      "note": 64,
      "start": 87.8845,
      "duration": 0.3511,
      "velocity": 103,
      "chip": "ym2612"
    },
    {
      "channel": 1,
      "note": 52,
      "start": 87.8851,
      "duration": 0.599,
      "velocity": 111,
      "chip": "ym2612"
    },
    {
      "channel": 2,
      "note": 64,
      "start": 87.8872,
      "duration": 0.2303,
      "velocity": 95,
      "chip": "ym2612"
    },
    {
      "channel": 3,
      "note": 67,
      "start": 88.0043,
      "duration": 0.2321,
      "velocity": 95,
      "chip": "ym2612"
    },
    {
      "channel": 2,
      "note": 71,
      "start": 88.1177,
      "duration": 1.2025,
      "velocity": 95,
      "chip": "ym2612"
    },
    {
      "channel": 4,
      "note": 64,
      "start": 88.1199,
      "duration": 0.3649,
      "velocity": 103,
      "chip": "ym2612"
    },
    {
      "channel": 0,
      "note": 76,
      "start": 88.2359,
      "duration": 0.3665,
      "velocity": 103,
      "chip": "ym2612"
    },
    {
      "channel": 3,
      "note": 76,
      "start": 88.2365,
      "duration": 1.1994,
      "velocity": 95,
      "chip": "ym2612"
    },
    {
      "channel": 1,
      "note": 52,
      "start": 88.4843,
      "duration": 0.1186,
      "velocity": 111,
      "chip": "ym2612"
    },
    {
      "channel": 4,
      "note": 76,
      "start": 88.485,
      "duration": 0.1202,
      "velocity": 1,
      "chip": "ym2612"
    },
    {
      "channel": 0,
      "note": 76,
      "start": 88.6025,
      "duration": 0.3497,
      "velocity": 103,
      "chip": "ym2612"
    },
    {
      "channel": 1,
      "note": 55,
      "start": 88.6031,
      "duration": 0.5977,
      "velocity": 111,
      "chip": "ym2612"
    },
    {
      "channel": 4,
      "note": 67,
      "start": 88.6054,
      "duration": 0.2305,
      "velocity": 103,
      "chip": "ym2612"
    },
    {
      "channel": 4,
      "note": 76,
      "start": 88.8361,
      "duration": 0.3654,
      "velocity": 103,
      "chip": "ym2612"
    },
    {
      "channel": 0,
      "note": 71,
      "start": 88.9524,
      "duration": 0.3666,
      "velocity": 103,
      "chip": "ym2612"
    },
    {
      "channel": 1,
      "note": 55,
      "start": 89.201,
      "duration": 0.1186,
      "velocity": 111,
      "chip": "ym2612"
    },
    {
      "channel": 4,
      "note": 71,
      "start": 89.2017,
      "duration": 0.1207,
      "velocity": 1,
      "chip": "ym2612"
    },
    {
      "channel": 0,
      "note": 66,
      "start": 89.3192,
      "duration": 0.3664,
      "velocity": 103,
      "chip": "ym2612"
    },
    {
      "channel": 1,
      "note": 54,
      "start": 89.3198,
      "duration": 0.5976,
      "velocity": 111,
      "chip": "ym2612"
    },
    {
      "channel": 2,
      "note": 66,
      "start": 89.3203,
      "duration": 0.2305,
      "velocity": 95,
      "chip": "ym2612"
    },
    {
      "channel": 4,
      "note": 67,
      "start": 89.3226,
      "duration": 0.2305,
      "velocity": 103,
      "chip": "ym2612"
    },
    {
      "channel": 3,
      "note": 71,
      "start": 89.436,
      "duration": 0.2504,
      "velocity": 95,
      "chip": "ym2612"
    },
    {
      "channel": 2,
      "note": 75,
      "start": 89.551,
      "duration": 1.2027,
      "velocity": 95,
      "chip": "ym2612"
    },
    {
      "channel": 4,
      "note": 66,
      "start": 89.5533,
      "duration": 0.3649,
      "velocity": 103,
      "chip": "ym2612"
    },
    {
      "channel": 0,
      "note": 78,
      "start": 89.6859,
      "duration": 0.3499,
      "velocity": 103,
      "chip": "ym2612"
    },
    {
      "channel": 3,
      "note": 78,
      "start": 89.6865,
      "duration": 1.1994,
      "velocity": 95,
      "chip": "ym2612"
    },
    {
      "channel": 1,
      "note": 54,
      "start": 89.9176,
      "duration": 0.1186,
      "velocity": 111,
      "chip": "ym2612"
    },
    {
      "channel": 4,
      "note": 78,
      "start": 89.9183,
      "duration": 0.1202,
      "velocity": 1,
      "chip": "ym2612"
    },
    {
      "channel": 0,
      "note": 78,
      "start": 90.0359,
      "duration": 0.3665,
      "velocity": 103,
      "chip": "ym2612"
    },
    {
      "channel": 1,
      "note": 60,
      "start": 90.0364,
      "duration": 0.3665,
      "velocity": 111,
      "chip": "ym2612"
    },
    {
      "channel": 4,
      "note": 67,
      "start": 90.0387,
      "duration": 0.2472,
      "velocity": 103,
      "chip": "ym2612"
    },
    {
      "channel": 4,
      "note": 78,
      "start": 90.2861,
      "duration": 0.3481,
      "velocity": 103,
      "chip": "ym2612"
    },
    {
      "channel": 0,
      "note": 71,
      "start": 90.4025,
      "duration": 0.35,
      "velocity": 103,
      "chip": "ym2612"
    },
    {
      "channel": 1,
      "note": 59,
      "start": 90.4031,
      "duration": 0.3501,
      "velocity": 111,
      "chip": "ym2612"
    },
    {
      "channel": 4,
      "note": 71,
      "start": 90.6344,
      "duration": 0.3671,
      "velocity": 103,
      "chip": "ym2612"
    },
    {
      "channel": 0,
      "note": 64,
      "start": 90.7526,
      "duration": 0.3663,
      "velocity": 103,
      "chip": "ym2612"
    },
    {
      "channel": 1,
      "note": 52,
      "start": 90.7533,
      "duration": 0.5975,
      "velocity": 111,
      "chip": "ym2612"
    },
    {
      "channel": 2,
      "note": 64,
      "start": 90.7539,
      "duration": 0.247,
      "velocity": 95,
      "chip": "ym2612"
    },
    {
      "channel": 3,
      "note": 67,
      "start": 90.8861,
      "duration": 0.2336,
      "velocity": 95,
      "chip": "ym2612"
    },
    {
      "channel": 2,
      "note": 71,
      "start": 91.001,
      "duration": 0.2331,
      "velocity": 95,
      "chip": "ym2612"
    },
    {
      "channel": 4,
      "note": 64,
      "start": 91.0017,
      "duration": 0.3503,
      "velocity": 103,
      "chip": "ym2612"
    },
    {
      "channel": 0,
      "note": 76,
      "start": 91.1192,
      "duration": 0.3665,
      "velocity": 103,
      "chip": "ym2612"
    },
    {
      "channel": 3,
      "note": 76,
      "start": 91.1198,
      "duration": 0.2316,
      "velocity": 95,
      "chip": "ym2612"
    },
    {
      "channel": 2,
      "note": 78,
      "start": 91.2343,
      "duration": 0.2525,
      "velocity": 95,
      "chip": "ym2612"
    },
    {
      "channel": 1,
      "note": 52,
      "start": 91.351,
      "duration": 0.1353,
      "velocity": 111,
      "chip": "ym2612"
    },
    {
      "channel": 3,
      "note": 79,
      "start": 91.3516,
      "duration": 0.366,
      "velocity": 95,
      "chip": "ym2612"
    },
    {
      "channel": 4,
      "note": 76,
      "start": 91.3522,
      "duration": 0.1369,
      "velocity": 1,
      "chip": "ym2612"
    },
    {
      "channel": 0,
      "note": 76,
      "start": 91.4859,
      "duration": 0.3482,
      "velocity": 103,
      "chip": "ym2612"
    },
    {
      "channel": 1,
      "note": 55,
      "start": 91.4865,
      "duration": 0.5998,
      "velocity": 111,
      "chip": "ym2612"
    },
    {
      "channel": 2,
      "note": 83,
      "start": 91.4871,
      "duration": 0.3476,
      "velocity": 95,
      "chip": "ym2612"
    },
    {
      "channel": 4,
      "note": 79,
      "start": 91.4893,
      "duration": 0.2305,
      "velocity": 103,
      "chip": "ym2612"
    },
    {
      "channel": 3,
      "note": 81,
      "start": 91.7178,
      "duration": 0.3691,
      "velocity": 95,
      "chip": "ym2612"
    },
    {
      "channel": 4,
      "note": 76,
      "start": 91.7199,
      "duration": 0.3676,
      "velocity": 103,
      "chip": "ym2612"
    },
    {
      "channel": 0,
      "note": 79,
      "start": 91.8342,
      "duration": 0.2515,
      "velocity": 103,
      "chip": "ym2612"
    },
    {
      "channel": 2,
      "note": 79,
      "start": 91.8349,
      "duration": 0.367,
      "velocity": 95,
      "chip": "ym2612"
    },
    {
      "channel": 0,
      "note": 78,
      "start": 92.0859,
      "duration": 0.0482,
      "velocity": 103,
      "chip": "ym2612"
    },
    {
      "channel": 1,
      "note": 55,
      "start": 92.0865,
      "duration": 0.1148,
      "velocity": 111,
      "chip": "ym2612"
    },
    {
      "channel": 3,
      "note": 78,
      "start": 92.0871,
      "duration": 0.2305,
      "velocity": 95,
      "chip": "ym2612"
    },
    {
      "channel": 4,
      "note": 79,
      "start": 92.0877,
      "duration": 0.2305,
      "velocity": 103,
      "chip": "ym2612"
    },
    {
      "channel": 0,
      "note": 79,
      "start": 92.1343,
      "duration": 0.0664,
      "velocity": 103,
      "chip": "ym2612"
    },
    {
      "channel": 0,
      "note": 78,
      "start": 92.2009,
      "duration": 0.2332,
      "velocity": 103,
      "chip": "ym2612"
    },
    {
      "channel": 1,
      "note": 54,
      "start": 92.2015,
      "duration": 0.3499,
      "velocity": 111,
      "chip": "ym2612"
    },
    {
      "channel": 2,
      "note": 75,
      "start": 92.2021,
      "duration": 0.2326,
      "velocity": 95,
      "chip": "ym2612"
    },
    {
      "channel": 3,
      "note": 78,
      "start": 92.3178,
      "duration": 0.2343,
      "velocity": 95,
      "chip": "ym2612"
    },
    {
      "channel": 4,
      "note": 78,
      "start": 92.3183,
      "duration": 0.066,
      "velocity": 103,
      "chip": "ym2612"
    },
    {
      "channel": 4,
      "note": 79,
      "start": 92.3845,
      "duration": 0.0508,
      "velocity": 103,
      "chip": "ym2612"
    },
    {
      "channel": 0,
      "note": 77,
      "start": 92.4342,
      "duration": 0.1166,
      "velocity": 103,
      "chip": "ym2612"
    },
    {
      "channel": 2,
      "note": 79,
      "start": 92.4349,
      "duration": 0.2493,
      "velocity": 95,
      "chip": "ym2612"
    },
    {
      "channel": 4,
      "note": 78,
      "start": 92.4355,
      "duration": 0.2493,
      "velocity": 103,
      "chip": "ym2612"
    },
    {
      "channel": 0,
      "note": 78,
      "start": 92.551,
      "duration": 0.2497,
      "velocity": 103,
      "chip": "ym2612"
    },
    {
      "channel": 1,
      "note": 57,
      "start": 92.5515,
      "duration": 0.3681,
      "velocity": 111,
      "chip": "ym2612"
    },
    {
      "channel": 3,
      "note": 81,
      "start": 92.5522,
      "duration": 0.2493,
      "velocity": 95,
      "chip": "ym2612"
    },
    {
      "channel": 2,
      "note": 83,
      "start": 92.6844,
      "duration": 0.2358,
      "velocity": 95,
      "chip": "ym2612"
    },
    {
      "channel": 4,
      "note": 77,
      "start": 92.6849,
      "duration": 0.1171,
      "velocity": 103,
      "chip": "ym2612"
    },
    {
      "channel": 0,
      "note": 79,
      "start": 92.8009,
      "duration": 0.1181,
      "velocity": 103,
      "chip": "ym2612"
    },
    {
      "channel": 3,
      "note": 87,
      "start": 92.8016,
      "duration": 0.1192,
      "velocity": 95,
      "chip": "ym2612"
    },
    {
      "channel": 4,
      "note": 78,
      "start": 92.8022,
      "duration": 0.2337,
      "velocity": 103,
      "chip": "ym2612"
    },
    {
      "channel": 0,
      "note": 78,
      "start": 92.9192,
      "duration": 0.3665,
      "velocity": 103,
      "chip": "ym2612"
    },
    {
      "channel": 1,
      "note": 60,
      "start": 92.9198,
      "duration": 0.3665,
      "velocity": 111,
      "chip": "ym2612"
    },
    {
      "channel": 2,
      "note": 90,
      "start": 92.9203,
      "duration": 0.3665,
      "velocity": 95,
      "chip": "ym2612"
    },
    {
      "channel": 3,
      "note": 87,
      "start": 92.9209,
      "duration": 0.3666,
      "velocity": 95,
      "chip": "ym2612"
    },
    {
      "channel": 4,
      "note": 79,
      "start": 93.036,
      "duration": 0.1149,
      "velocity": 103,
      "chip": "ym2612"
    },
    {
      "channel": 4,
      "note": 78,
      "start": 93.1511,
      "duration": 0.2998,
      "velocity": 103,
      "chip": "ym2612"
    },
    {
      "channel": 0,
      "note": 83,
      "start": 93.2859,
      "duration": 0.35,
      "velocity": 103,
      "chip": "ym2612"
    },
    {
      "channel": 1,
      "note": 59,
      "start": 93.2864,
      "duration": 0.3501,
      "velocity": 111,
      "chip": "ym2612"
    },
    {
      "channel": 2,
      "note": 87,
      "start": 93.287,
      "duration": 0.3501,
      "velocity": 95,
      "chip": "ym2612"
    },
    {
      "channel": 3,
      "note": 83,
      "start": 93.2876,
      "duration": 0.2983,
      "velocity": 1,
      "chip": "ym2612"
    },
    {
      "channel": 4,
      "note": 83,
      "start": 93.4511,
      "duration": 0.4338,
      "velocity": 103,
      "chip": "ym2612"
    },
    {
      "channel": 3,
      "note": 79,
      "start": 93.5861,
      "duration": 0.168,
      "velocity": 95,
      "chip": "ym2612"
    },
    {
      "channel": 0,
      "note": 64,
      "start": 93.636,
      "duration": 0.3663,
      "velocity": 103,
      "chip": "ym2612"
    },
    {
      "channel": 1,
      "note": 52,
      "start": 93.6366,
      "duration": 0.5975,
      "velocity": 111,
      "chip": "ym2612"
    },
    {
      "channel": 2,
      "note": 64,
      "start": 93.6372,
      "duration": 0.247,
      "velocity": 95,
      "chip": "ym2612"
    },
    {
      "channel": 3,
      "note": 67,
      "start": 93.7543,
      "duration": 0.2487,
      "velocity": 95,
      "chip": "ym2612"
    },
    {
      "channel": 2,
      "note": 71,
      "start": 93.8844,
      "duration": 1.2025,
      "velocity": 95,
      "chip": "ym2612"
    },
    {
      "channel": 4,
      "note": 64,
      "start": 93.8851,
      "duration": 0.3498,
      "velocity": 103,
      "chip": "ym2612"
    },
    {
      "channel": 0,
      "note": 76,
      "start": 94.0025,
      "duration": 0.3499,
      "velocity": 103,
      "chip": "ym2612"
    },
    {
      "channel": 3,
      "note": 76,
      "start": 94.0032,
      "duration": 1.1994,
      "velocity": 95,
      "chip": "ym2612"
    },
    {
      "channel": 1,
      "note": 52,
      "start": 94.2343,
      "duration": 0.1186,
      "velocity": 111,
      "chip": "ym2612"
    },
    {
      "channel": 4,
      "note": 76,
      "start": 94.235,
      "duration": 0.1202,
      "velocity": 1,
      "chip": "ym2612"
    },
    {
      "channel": 0,
      "note": 76,
      "start": 94.3525,
      "duration": 0.3665,
      "velocity": 103,
      "chip": "ym2612"
    },
    {
      "channel": 1,
      "note": 55,
      "start": 94.3531,
      "duration": 0.5977,
      "velocity": 111,
      "chip": "ym2612"
    },
    {
      "channel": 4,
      "note": 67,
      "start": 94.3554,
      "duration": 0.2472,
      "velocity": 103,
      "chip": "ym2612"
    },
    {
      "channel": 4,
      "note": 76,
      "start": 94.6028,
      "duration": 0.3487,
      "velocity": 103,
      "chip": "ym2612"
    },
    {
      "channel": 0,
      "note": 71,
      "start": 94.7191,
      "duration": 0.3666,
      "velocity": 103,
      "chip": "ym2612"
    },
    {
      "channel": 1,
      "note": 55,
      "start": 94.951,
      "duration": 0.1353,
      "velocity": 111,
      "chip": "ym2612"
    },
    {
      "channel": 4,
      "note": 71,
      "start": 94.9517,
      "duration": 0.1374,
      "velocity": 1,
      "chip": "ym2612"
    },
    {
      "channel": 0,
      "note": 66,
      "start": 95.0859,
      "duration": 0.3498,
      "velocity": 103,
      "chip": "ym2612"
    },
    {
      "channel": 1,
      "note": 54,
      "start": 95.0865,
      "duration": 0.5976,
      "velocity": 111,
      "chip": "ym2612"
    },
    {
      "channel": 2,
      "note": 66,
      "start": 95.0871,
      "duration": 0.2305,
      "velocity": 95,
      "chip": "ym2612"
    },
    {
      "channel": 4,
      "note": 67,
      "start": 95.0893,
      "duration": 0.2305,
      "velocity": 103,
      "chip": "ym2612"
    },
    {
      "channel": 3,
      "note": 71,
      "start": 95.2026,
      "duration": 0.2337,
      "velocity": 95,
      "chip": "ym2612"
    },
    {
      "channel": 2,
      "note": 75,
      "start": 95.3177,
      "duration": 1.2027,
      "velocity": 95,
      "chip": "ym2612"
    },
    {
      "channel": 4,
      "note": 66,
      "start": 95.3199,
      "duration": 0.3649,
      "velocity": 103,
      "chip": "ym2612"
    },
    {
      "channel": 0,
      "note": 78,
      "start": 95.4359,
      "duration": 0.3665,
      "velocity": 103,
      "chip": "ym2612"
    },
    {
      "channel": 3,
      "note": 78,
      "start": 95.4365,
      "duration": 1.1994,
      "velocity": 95,
      "chip": "ym2612"
    },
    {
      "channel": 1,
      "note": 54,
      "start": 95.6843,
      "duration": 0.1186,
      "velocity": 111,
      "chip": "ym2612"
    },
    {
      "channel": 4,
      "note": 78,
      "start": 95.685,
      "duration": 0.1202,
      "velocity": 1,
      "chip": "ym2612"
    },
    {
      "channel": 0,
      "note": 78,
      "start": 95.8025,
      "duration": 0.3498,
      "velocity": 103,
      "chip": "ym2612"
    },
    {
      "channel": 1,
      "note": 60,
      "start": 95.8031,
      "duration": 0.3498,
      "velocity": 111,
      "chip": "ym2612"
    },
    {
      "channel": 4,
      "note": 67,
      "start": 95.8054,
      "duration": 0.2305,
      "velocity": 103,
      "chip": "ym2612"
    },
    {
      "channel": 4,
      "note": 78,
      "start": 96.0361,
      "duration": 0.3648,
      "velocity": 103,
      "chip": "ym2612"
    },
    {
      "channel": 0,
      "note": 71,
      "start": 96.1525,
      "duration": 0.3667,
      "velocity": 103,
      "chip": "ym2612"
    },
    {
      "channel": 1,
      "note": 59,
      "start": 96.1531,
      "duration": 0.3667,
      "velocity": 111,
      "chip": "ym2612"
    },
    {
      "channel": 4,
      "note": 71,
      "start": 96.4011,
      "duration": 0.3504,
      "velocity": 103,
      "chip": "ym2612"
    },
    {
      "channel": 0,
      "note": 64,
      "start": 96.5193,
      "duration": 0.3663,
      "velocity": 103,
      "chip": "ym2612"
    },
    {
      "channel": 1,
      "note": 52,
      "start": 96.5199,
      "duration": 0.5975,
      "velocity": 111,
      "chip": "ym2612"
    },
    {
      "channel": 2,
      "note": 64,
      "start": 96.5206,
      "duration": 0.2303,
      "velocity": 95,
      "chip": "ym2612"
    },
    {
      "channel": 3,
      "note": 67,
      "start": 96.636,
      "duration": 0.2503,
      "velocity": 95,
      "chip": "ym2612"
    },
    {
      "channel": 2,
      "note": 71,
      "start": 96.751,
      "duration": 0.2498,
      "velocity": 95,
      "chip": "ym2612"
    },
    {
      "channel": 4,
      "note": 64,
      "start": 96.7517,
      "duration": 0.3669,
      "velocity": 103,
      "chip": "ym2612"
    },
    {
      "channel": 0,
      "note": 76,
      "start": 96.8859,
      "duration": 0.3499,
      "velocity": 103,
      "chip": "ym2612"
    },
    {
      "channel": 3,
      "note": 76,
      "start": 96.8865,
      "duration": 0.2316,
      "velocity": 95,
      "chip": "ym2612"
    },
    {
      "channel": 2,
      "note": 78,
      "start": 97.001,
      "duration": 0.2359,
      "velocity": 95,
      "chip": "ym2612"
    },
    {
      "channel": 1,
      "note": 52,
      "start": 97.1176,
      "duration": 0.1186,
      "velocity": 111,
      "chip": "ym2612"
    },
    {
      "channel": 3,
      "note": 79,
      "start": 97.1183,
      "duration": 0.366,
      "velocity": 95,
      "chip": "ym2612"
    },
    {
      "channel": 4,
      "note": 76,
      "start": 97.1188,
      "duration": 0.1202,
      "velocity": 1,
      "chip": "ym2612"
    },
    {
      "channel": 0,
      "note": 76,
      "start": 97.2359,
      "duration": 0.3648,
      "velocity": 103,
      "chip": "ym2612"
    },
    {
      "channel": 1,
      "note": 55,
      "start": 97.2365,
      "duration": 0.5998,
      "velocity": 111,
      "chip": "ym2612"
    },
    {
      "channel": 2,
      "note": 83,
      "start": 97.237,
      "duration": 0.3644,
      "velocity": 95,
      "chip": "ym2612"
    },
    {
      "channel": 4,
      "note": 79,
      "start": 97.2393,
      "duration": 0.2471,
      "velocity": 103,
      "chip": "ym2612"
    },
    {
      "channel": 3,
      "note": 81,
      "start": 97.4844,
      "duration": 0.3525,
      "velocity": 95,
      "chip": "ym2612"
    },
    {
      "channel": 4,
      "note": 76,
      "start": 97.4866,
      "duration": 0.3508,
      "velocity": 103,
      "chip": "ym2612"
    },
    {
      "channel": 0,
      "note": 79,
      "start": 97.6009,
      "duration": 0.2348,
      "velocity": 103,
      "chip": "ym2612"
    },
    {
      "channel": 2,
      "note": 79,
      "start": 97.6015,
      "duration": 0.3503,
      "velocity": 95,
      "chip": "ym2612"
    },
    {
      "channel": 0,
      "note": 78,
      "start": 97.8359,
      "duration": 0.0649,
      "velocity": 103,
      "chip": "ym2612"
    },
    {
      "channel": 1,
      "note": 55,
      "start": 97.8364,
      "duration": 0.1149,
      "velocity": 111,
      "chip": "ym2612"
    },
    {
      "channel": 3,
      "note": 78,
      "start": 97.8371,
      "duration": 0.2472,
      "velocity": 95,
      "chip": "ym2612"
    },
    {
      "channel": 4,
      "note": 79,
      "start": 97.8376,
      "duration": 0.2472,
      "velocity": 103,
      "chip": "ym2612"
    },
    {
      "channel": 0,
      "note": 79,
      "start": 97.901,
      "duration": 0.0498,
      "velocity": 103,
      "chip": "ym2612"
    },
    {
      "channel": 0,
      "note": 78,
      "start": 97.9509,
      "duration": 0.2498,
      "velocity": 103,
      "chip": "ym2612"
    },
    {
      "channel": 1,
      "note": 54,
      "start": 97.9515,
      "duration": 0.3666,
      "velocity": 111,
      "chip": "ym2612"
    },
    {
      "channel": 2,
      "note": 75,
      "start": 97.9521,
      "duration": 0.2493,
      "velocity": 95,
      "chip": "ym2612"
    },
    {
      "channel": 3,
      "note": 78,
      "start": 98.0844,
      "duration": 0.2343,
      "velocity": 95,
      "chip": "ym2612"
    },
    {
      "channel": 4,
      "note": 78,
      "start": 98.085,
      "duration": 0.0493,
      "velocity": 103,
      "chip": "ym2612"
    },
    {
      "channel": 4,
      "note": 79,
      "start": 98.1345,
      "duration": 0.0675,
      "velocity": 103,
      "chip": "ym2612"
    },
    {
      "channel": 0,
      "note": 77,
      "start": 98.2009,
      "duration": 0.1166,
      "velocity": 103,
      "chip": "ym2612"
    },
    {
      "channel": 2,
      "note": 79,
      "start": 98.2015,
      "duration": 0.2327,
      "velocity": 95,
      "chip": "ym2612"
    },
    {
      "channel": 4,
      "note": 78,
      "start": 98.2022,
      "duration": 0.2327,
      "velocity": 103,
      "chip": "ym2612"
    },
    {
      "channel": 0,
      "note": 78,
      "start": 98.3177,
      "duration": 0.233,
      "velocity": 103,
      "chip": "ym2612"
    },
    {
      "channel": 1,
      "note": 57,
      "start": 98.3182,
      "duration": 0.3681,
      "velocity": 111,
      "chip": "ym2612"
    },
    {
      "channel": 3,
      "note": 81,
      "start": 98.3188,
      "duration": 0.2326,
      "velocity": 95,
      "chip": "ym2612"
    },
    {
      "channel": 2,
      "note": 83,
      "start": 98.4344,
      "duration": 0.2525,
      "velocity": 95,
      "chip": "ym2612"
    },
    {
      "channel": 4,
      "note": 77,
      "start": 98.435,
      "duration": 0.117,
      "velocity": 103,
      "chip": "ym2612"
    },
    {
      "channel": 0,
      "note": 79,
      "start": 98.5509,
      "duration": 0.1348,
      "velocity": 103,
      "chip": "ym2612"
    },
    {
      "channel": 3,
      "note": 87,
      "start": 98.5516,
      "duration": 0.1358,
      "velocity": 95,
      "chip": "ym2612"
    },
    {
      "channel": 4,
      "note": 78,
      "start": 98.5522,
      "duration": 0.2504,
      "velocity": 103,
      "chip": "ym2612"
    },
    {
      "channel": 0,
      "note": 78,
      "start": 98.6859,
      "duration": 0.3498,
      "velocity": 103,
      "chip": "ym2612"
    },
    {
      "channel": 1,
      "note": 60,
      "start": 98.6865,
      "duration": 0.3498,
      "velocity": 111,
      "chip": "ym2612"
    },
    {
      "channel": 2,
      "note": 90,
      "start": 98.687,
      "duration": 0.3499,
      "velocity": 95,
      "chip": "ym2612"
    },
    {
      "channel": 3,
      "note": 87,
      "start": 98.6876,
      "duration": 0.3499,
      "velocity": 95,
      "chip": "ym2612"
    },
    {
      "channel": 4,
      "note": 79,
      "start": 98.8027,
      "duration": 0.1149,
      "velocity": 103,
      "chip": "ym2612"
    },
    {
      "channel": 4,
      "note": 78,
      "start": 98.9178,
      "duration": 0.2998,
      "velocity": 103,
      "chip": "ym2612"
    },
    {
      "channel": 0,
      "note": 83,
      "start": 99.0359,
      "duration": 0.3651,
      "velocity": 103,
      "chip": "ym2612"
    },
    {
      "channel": 1,
      "note": 59,
      "start": 99.0365,
      "duration": 0.3651,
      "velocity": 111,
      "chip": "ym2612"
    },
    {
      "channel": 2,
      "note": 87,
      "start": 99.037,
      "duration": 0.3653,
      "velocity": 95,
      "chip": "ym2612"
    },
    {
      "channel": 3,
      "note": 83,
      "start": 99.0376,
      "duration": 0.2983,
      "velocity": 1,
      "chip": "ym2612"
    },
    {
      "channel": 4,
      "note": 83,
      "start": 99.2178,
      "duration": 0.4176,
      "velocity": 103,
      "chip": "ym2612"
    },
    {
      "channel": 3,
      "note": 79,
      "start": 99.3361,
      "duration": 0.1836,
      "velocity": 95,
      "chip": "ym2612"
    },
    {
      "channel": 0,
      "note": 84,
      "start": 99.4011,
      "duration": 0.1163,
      "velocity": 103,
      "chip": "ym2612"
    },
    {
      "channel": 1,
      "note": 47,
      "start": 99.4017,
      "duration": 1.3157,
      "velocity": 111,
      "chip": "ym2612"
    },
    {
      "channel": 2,
      "note": 59,
      "start": 99.4024,
      "duration": 0.2323,
      "velocity": 95,
      "chip": "ym2612"
    },
    {
      "channel": 0,
      "note": 83,
      "start": 99.5176,
      "duration": 0.1165,
      "velocity": 103,
      "chip": "ym2612"
    },
    {
      "channel": 3,
      "note": 63,
      "start": 99.5199,
      "duration": 0.2316,
      "velocity": 95,
      "chip": "ym2612"
    },
    {
      "channel": 0,
      "note": 81,
      "start": 99.6342,
      "duration": 0.1165,
      "velocity": 103,
      "chip": "ym2612"
    },
    {
      "channel": 2,
      "note": 66,
      "start": 99.6349,
      "duration": 0.4847,
      "velocity": 95,
      "chip": "ym2612"
    },
    {
      "channel": 4,
      "note": 84,
      "start": 99.6356,
      "duration": 0.1164,
      "velocity": 103,
      "chip": "ym2612"
    },
    {
      "channel": 0,
      "note": 79,
      "start": 99.7509,
      "duration": 0.2498,
      "velocity": 103,
      "chip": "ym2612"
    },
    {
      "channel": 3,
      "note": 71,
      "start": 99.7516,
      "duration": 0.4842,
      "velocity": 95,
      "chip": "ym2612"
    },
    {
      "channel": 4,
      "note": 83,
      "start": 99.7522,
      "duration": 0.1321,
      "velocity": 103,
      "chip": "ym2612"
    },
    {
      "channel": 4,
      "note": 81,
      "start": 99.8844,
      "duration": 0.1171,
      "velocity": 103,
      "chip": "ym2612"
    },
    {
      "channel": 0,
      "note": 78,
      "start": 100.0009,
      "duration": 0.1181,
      "velocity": 103,
      "chip": "ym2612"
    },
    {
      "channel": 4,
      "note": 79,
      "start": 100.0017,
      "duration": 0.2347,
      "velocity": 103,
      "chip": "ym2612"
    },
    {
      "channel": 0,
      "note": 76,
      "start": 100.1192,
      "duration": 0.3665,
      "velocity": 103,
      "chip": "ym2612"
    },
    {
      "channel": 2,
      "note": 71,
      "start": 100.1198,
      "duration": 0.2311,
      "velocity": 95,
      "chip": "ym2612"
    },
    {
      "channel": 3,
      "note": 75,
      "start": 100.236,
      "duration": 0.2503,
      "velocity": 95,
      "chip": "ym2612"
    },
    {
      "channel": 4,
      "note": 78,
      "start": 100.2366,
      "duration": 0.1149,
      "velocity": 103,
      "chip": "ym2612"
    },
    {
      "channel": 2,
      "note": 78,
      "start": 100.351,
      "duration": 0.4841,
      "velocity": 95,
      "chip": "ym2612"
    },
    {
      "channel": 4,
      "note": 76,
      "start": 100.3516,
      "duration": 0.3666,
      "velocity": 103,
      "chip": "ym2612"
    },
    {
      "channel": 0,
      "note": 75,
      "start": 100.4859,
      "duration": 0.3483,
      "velocity": 103,
      "chip": "ym2612"
    },
    {
      "channel": 3,
      "note": 83,
      "start": 100.4865,
      "duration": 0.4649,
      "velocity": 95,
      "chip": "ym2612"
    },
    {
      "channel": 1,
      "note": 45,
      "start": 100.7176,
      "duration": 0.117,
      "velocity": 111,
      "chip": "ym2612"
    },
    {
      "channel": 4,
      "note": 75,
      "start": 100.7183,
      "duration": 0.367,
      "velocity": 103,
      "chip": "ym2612"
    },
    {
      "channel": 0,
      "note": 72,
      "start": 100.8342,
      "duration": 0.1165,
      "velocity": 103,
      "chip": "ym2612"
    },
    {
      "channel": 1,
      "note": 47,
      "start": 100.8348,
      "duration": 0.3665,
      "velocity": 111,
      "chip": "ym2612"
    },
    {
      "channel": 2,
      "note": 83,
      "start": 100.8354,
      "duration": 0.2493,
      "velocity": 95,
      "chip": "ym2612"
    },
    {
      "channel": 0,
      "note": 71,
      "start": 100.9509,
      "duration": 0.1332,
      "velocity": 103,
      "chip": "ym2612"
    },
    {
      "channel": 3,
      "note": 87,
      "start": 100.9516,
      "duration": 0.2504,
      "velocity": 95,
      "chip": "ym2612"
    },
    {
      "channel": 0,
      "note": 69,
      "start": 101.0842,
      "duration": 0.1166,
      "velocity": 103,
      "chip": "ym2612"
    },
    {
      "channel": 2,
      "note": 90,
      "start": 101.0849,
      "duration": 0.4686,
      "velocity": 95,
      "chip": "ym2612"
    },
    {
      "channel": 4,
      "note": 72,
      "start": 101.0855,
      "duration": 0.1171,
      "velocity": 103,
      "chip": "ym2612"
    },
    {
      "channel": 0,
      "note": 67,
      "start": 101.201,
      "duration": 0.2331,
      "velocity": 103,
      "chip": "ym2612"
    },
    {
      "channel": 1,
      "note": 51,
      "start": 101.2015,
      "duration": 0.3514,
      "velocity": 111,
      "chip": "ym2612"
    },
    {
      "channel": 3,
      "note": 95,
      "start": 101.2022,
      "duration": 0.3519,
      "velocity": 95,
      "chip": "ym2612"
    },
    {
      "channel": 4,
      "note": 71,
      "start": 101.2028,
      "duration": 0.1148,
      "velocity": 103,
      "chip": "ym2612"
    },
    {
      "channel": 4,
      "note": 69,
      "start": 101.3178,
      "duration": 0.1171,
      "velocity": 103,
      "chip": "ym2612"
    },
    {
      "channel": 0,
      "note": 66,
      "start": 101.4342,
      "duration": 0.1181,
      "velocity": 103,
      "chip": "ym2612"
    },
    {
      "channel": 4,
      "note": 67,
      "start": 101.435,
      "duration": 0.2509,
      "velocity": 103,
      "chip": "ym2612"
    },
    {
      "channel": 0,
      "note": 64,
      "start": 101.5526,
      "duration": 0.3665,
      "velocity": 103,
      "chip": "ym2612"
    },
    {
      "channel": 1,
      "note": 54,
      "start": 101.5532,
      "duration": 0.3665,
      "velocity": 111,
      "chip": "ym2612"
    },
    {
      "channel": 2,
      "note": 96,
      "start": 101.5537,
      "duration": 0.3665,
      "velocity": 95,
      "chip": "ym2612"
    },
    {
      "channel": 3,
      "note": 91,
      "start": 101.5542,
      "duration": 0.3666,
      "velocity": 95,
      "chip": "ym2612"
    },
    {
      "channel": 4,
      "note": 66,
      "start": 101.6861,
      "duration": 0.1148,
      "velocity": 103,
      "chip": "ym2612"
    },
    {
      "channel": 4,
      "note": 64,
      "start": 101.8011,
      "duration": 0.3515,
      "velocity": 103,
      "chip": "ym2612"
    },
    {
      "channel": 0,
      "note": 63,
      "start": 101.9192,
      "duration": 0.3666,
      "velocity": 95,
      "chip": "ym2612"
    },
    {
      "channel": 1,
      "note": 59,
      "start": 101.9198,
      "duration": 0.3667,
      "velocity": 111,
      "chip": "ym2612"
    },
    {
      "channel": 2,
      "note": 95,
      "start": 101.9203,
      "duration": 0.3668,
      "velocity": 95,
      "chip": "ym2612"
    },
    {
      "channel": 3,
      "note": 90,
      "start": 101.9209,
      "duration": 0.4802,
      "velocity": 95,
      "chip": "ym2612"
    },
    {
      "channel": 4,
      "note": 63,
      "start": 102.1528,
      "duration": 0.1382,
      "velocity": 95,
      "chip": "ym2612"
    },
    {
      "channel": 0,
      "note": 88,
      "start": 102.286,
      "duration": 1.4331,
      "velocity": 1,
      "chip": "ym2612"
    },
    {
      "channel": 1,
      "note": 52,
      "start": 102.2867,
      "duration": 0.3491,
      "velocity": 111,
      "chip": "ym2612"
    },
    {
      "channel": 2,
      "note": 64,
      "start": 102.2872,
      "duration": 0.2303,
      "velocity": 95,
      "chip": "ym2612"
    },
    {
      "channel": 4,
      "note": 83,
      "start": 102.2911,
      "duration": 1.4314,
      "velocity": 1,
      "chip": "ym2612"
    },
    {
      "channel": 3,
      "note": 67,
      "start": 102.4013,
      "duration": 0.2351,
      "velocity": 95,
      "chip": "ym2612"
    },
    {
      "channel": 2,
      "note": 71,
      "start": 102.5177,
      "duration": 0.367,
      "velocity": 95,
      "chip": "ym2612"
    },
    {
      "channel": 1,
      "note": 64,
      "start": 102.636,
      "duration": 0.2482,
      "velocity": 111,
      "chip": "ym2612"
    },
    {
      "channel": 3,
      "note": 76,
      "start": 102.6366,
      "duration": 0.3649,
      "velocity": 95,
      "chip": "ym2612"
    },
    {
      "channel": 1,
      "note": 52,
      "start": 102.8843,
      "duration": 0.1166,
      "velocity": 111,
      "chip": "ym2612"
    },
    {
      "channel": 2,
      "note": 75,
      "start": 102.8849,
      "duration": 0.3493,
      "velocity": 95,
      "chip": "ym2612"
    },
    {
      "channel": 1,
      "note": 47,
      "start": 103.001,
      "duration": 0.3499,
      "velocity": 111,
      "chip": "ym2612"
    },
    {
      "channel": 3,
      "note": 74,
      "start": 103.0016,
      "duration": 0.3499,
      "velocity": 95,
      "chip": "ym2612"
    },
    {
      "channel": 2,
      "note": 73,
      "start": 103.2343,
      "duration": 0.3671,
      "velocity": 95,
      "chip": "ym2612"
    },
    {
      "channel": 1,
      "note": 59,
      "start": 103.351,
      "duration": 0.2498,
      "velocity": 111,
      "chip": "ym2612"
    },
    {
      "channel": 3,
      "note": 72,
      "start": 103.3516,
      "duration": 0.3687,
      "velocity": 95,
      "chip": "ym2612"
    },
    {
      "channel": 1,
      "note": 47,
      "start": 103.601,
      "duration": 0.1187,
      "velocity": 111,
      "chip": "ym2612"
    },
    {
      "channel": 2,
      "note": 71,
      "start": 103.6015,
      "duration": 0.2343,
      "velocity": 95,
      "chip": "ym2612"
    },
    {
      "channel": 0,
      "note": 79,
      "start": 103.7193,
      "duration": 5.7638,
      "velocity": 1,
      "chip": "ym2612"
    },
    {
      "channel": 1,
      "note": 46,
      "start": 103.7198,
      "duration": 0.3644,
      "velocity": 111,
      "chip": "ym2612"
    },
    {
      "channel": 3,
      "note": 70,
      "start": 103.7205,
      "duration": 0.2321,
      "velocity": 95,
      "chip": "ym2612"
    },
    {
      "channel": 4,
      "note": 79,
      "start": 103.7227,
      "duration": 5.7605,
      "velocity": 1,
      "chip": "ym2612"
    },
    {
      "channel": 2,
      "note": 73,
      "start": 103.836,
      "duration": 0.2487,
      "velocity": 95,
      "chip": "ym2612"
    },
    {
      "channel": 3,
      "note": 76,
      "start": 103.9527,
      "duration": 0.3654,
      "velocity": 95,
      "chip": "ym2612"
    },
    {
      "channel": 1,
      "note": 58,
      "start": 104.0844,
      "duration": 0.2331,
      "velocity": 111,
      "chip": "ym2612"
    },
    {
      "channel": 2,
      "note": 79,
      "start": 104.0849,
      "duration": 0.3498,
      "velocity": 95,
      "chip": "ym2612"
    },
    {
      "channel": 1,
      "note": 46,
      "start": 104.3176,
      "duration": 0.1166,
      "velocity": 111,
      "chip": "ym2612"
    },
    {
      "channel": 3,
      "note": 78,
      "start": 104.3183,
      "duration": 0.3659,
      "velocity": 95,
      "chip": "ym2612"
    },
    {
      "channel": 1,
      "note": 47,
      "start": 104.4343,
      "duration": 0.3666,
      "velocity": 111,
      "chip": "ym2612"
    },
    {
      "channel": 2,
      "note": 77,
      "start": 104.4349,
      "duration": 0.3666,
      "velocity": 95,
      "chip": "ym2612"
    },
    {
      "channel": 3,
      "note": 78,
      "start": 104.6844,
      "duration": 0.352,
      "velocity": 95,
      "chip": "ym2612"
    },
    {
      "channel": 1,
      "note": 59,
      "start": 104.801,
      "duration": 0.2347,
      "velocity": 111,
      "chip": "ym2612"
    },
    {
      "channel": 2,
      "note": 83,
      "start": 104.8015,
      "duration": 4.6816,
      "velocity": 95,
      "chip": "ym2612"
    },
    {
      "channel": 1,
      "note": 47,
      "start": 105.0359,
      "duration": 4.4472,
      "velocity": 111,
      "chip": "ym2612"
    },
    {
      "channel": 3,
      "note": 71,
      "start": 105.0365,
      "duration": 4.4466,
      "velocity": 95,
      "chip": "ym2612"
    }
  ]
}