{
  "track_name": "05 - Africa 2",
  "duration_sec": 90.663,
  "sample_rate": 44100,
  "note_count": 1579,
  "unique_pitches": 43,
  "pitch_range": 48,
  "avg_note_duration": 0.1957,
  "reconstruction_stats": {
    "notes_reconstructed": 1579,
    "keyon_events": 1579,
    "keyoff_events": 1578,
    "orphan_keyons": 1,
    "unique_pitches": 43,
    "pitch_range": 48,
    "avg_duration_sec": 0.1957
  },
  "metadata": {
    "source": "K\\Kishi Densetsu\\05 - Africa 2.vgz"
  },
  "notes": [
    {
      "channel": 0,
      "note": 74,
      "start": 0.2994,
      "duration": 0.051,
      "velocity": 99,
      "chip": "ym2612"
    },
    {
      "channel": 1,
      "note": 50,
      "start": 0.3039,
      "duration": 0.0467,
      "velocity": 98,
      "chip": "ym2612"
    },
    {
      "channel": 3,
      "note": 47,
      "start": 0.3141,
      "duration": 0.0001,
      "velocity": 127,
      "chip": "ym2612"
    },
    {
      "channel": 3,
      "note": 49,
      "start": 0.3211,
      "duration": 0.0301,
      "velocity": 127,
      "chip": "ym2612"
    },
    {
      "channel": 4,
      "note": 90,
      "start": 0.3436,
      "duration": 0.0306,
      "velocity": 99,
      "chip": "ym2612"
    },
    {
      "channel": 0,
      "note": 74,
      "start": 0.353,
      "duration": 0.014,
      "velocity": 99,
      "chip": "ym2612"
    },
    {
      "channel": 1,
      "note": 50,
      "start": 0.3535,
      "duration": 0.0138,
      "velocity": 98,
      "chip": "ym2612"
    },
    {
      "channel": 3,
      "note": 47,
      "start": 0.3544,
      "duration": 0.0134,
      "velocity": 127,
      "chip": "ym2612"
    },
    {
      "channel": 0,
      "note": 74,
      "start": 0.3697,
      "duration": 0.0145,
      "velocity": 99,
      "chip": "ym2612"
    },
    {
      "channel": 1,
      "note": 50,
      "start": 0.3702,
      "duration": 0.0142,
      "velocity": 98,
      "chip": "ym2612"
    },
    {
      "channel": 3,
      "note": 47,
      "start": 0.3711,
      "duration": 0.014,
      "velocity": 127,
      "chip": "ym2612"
    },
    {
      "channel": 4,
      "note": 74,
      "start": 0.3769,
      "duration": 0.0145,
      "velocity": 99,
      "chip": "ym2612"
    },
    {
      "channel": 0,
      "note": 74,
      "start": 0.3869,
      "duration": 0.1891,
      "velocity": 99,
      "chip": "ym2612"
    },
    {
      "channel": 1,
      "note": 50,
      "start": 0.3874,
      "duration": 0.1889,
      "velocity": 98,
      "chip": "ym2612"
    },
    {
      "channel": 3,
      "note": 47,
      "start": 0.3882,
      "duration": 0.1886,
      "velocity": 127,
      "chip": "ym2612"
    },
    {
      "channel": 4,
      "note": 74,
      "start": 0.3941,
      "duration": 0.1011,
      "velocity": 99,
      "chip": "ym2612"
    },
    {
      "channel": 4,
      "note": 74,
      "start": 0.5159,
      "duration": 0.2249,
      "velocity": 99,
      "chip": "ym2612"
    },
    {
      "channel": 0,
      "note": 69,
      "start": 0.5966,
      "duration": 0.2249,
      "velocity": 99,
      "chip": "ym2612"
    },
    {
      "channel": 1,
      "note": 50,
      "start": 0.5971,
      "duration": 0.2247,
      "velocity": 98,
      "chip": "ym2612"
    },
    {
      "channel": 3,
      "note": 47,
      "start": 0.598,
      "duration": 0.2244,
      "velocity": 127,
      "chip": "ym2612"
    },
    {
      "channel": 4,
      "note": 74,
      "start": 0.7615,
      "duration": 0.2249,
      "velocity": 99,
      "chip": "ym2612"
    },
    {
      "channel": 0,
      "note": 74,
      "start": 0.8422,
      "duration": 0.2249,
      "velocity": 99,
      "chip": "ym2612"
    },
    {
      "channel": 1,
      "note": 50,
      "start": 0.8427,
      "duration": 0.2247,
      "velocity": 98,
      "chip": "ym2612"
    },
    {
      "channel": 3,
      "note": 47,
      "start": 0.8436,
      "duration": 0.2244,
      "velocity": 127,
      "chip": "ym2612"
    },
    {
      "channel": 4,
      "note": 69,
      "start": 1.007,
      "duration": 0.2249,
      "velocity": 99,
      "chip": "ym2612"
    },
    {
      "channel": 0,
      "note": 69,
      "start": 1.0878,
      "duration": 0.2249,
      "velocity": 99,
      "chip": "ym2612"
    },
    {
      "channel": 1,
      "note": 50,
      "start": 1.0883,
      "duration": 0.2247,
      "velocity": 98,
      "chip": "ym2612"
    },
    {
      "channel": 3,
      "note": 47,
      "start": 1.0892,
      "duration": 0.2244,
      "velocity": 127,
      "chip": "ym2612"
    },
    {
      "channel": 4,
      "note": 74,
      "start": 1.2525,
      "duration": 0.0997,
      "velocity": 99,
      "chip": "ym2612"
    },
    {
      "channel": 1,
      "note": 50,
      "start": 1.3338,
      "duration": 0.0273,
      "velocity": 98,
      "chip": "ym2612"
    },
    {
      "channel": 3,
      "note": 47,
      "start": 1.3346,
      "duration": 0.0272,
      "velocity": 127,
      "chip": "ym2612"
    },
    {
      "channel": 0,
      "note": 74,
      "start": 1.3637,
      "duration": 0.0283,
      "velocity": 99,
      "chip": "ym2612"
    },
    {
      "channel": 1,
      "note": 50,
      "start": 1.3642,
      "duration": 0.0281,
      "velocity": 98,
      "chip": "ym2612"
    },
    {
      "channel": 2,
      "note": 69,
      "start": 1.3647,
      "duration": 0.0278,
      "velocity": 99,
      "chip": "ym2612"
    },
    {
      "channel": 3,
      "note": 45,
      "start": 1.3653,
      "duration": 0.0275,
      "velocity": 127,
      "chip": "ym2612"
    },
    {
      "channel": 4,
      "note": 69,
      "start": 1.3853,
      "duration": 0.0294,
      "velocity": 99,
      "chip": "ym2612"
    },
    {
      "channel": 0,
      "note": 78,
      "start": 1.3947,
      "duration": 0.0293,
      "velocity": 99,
      "chip": "ym2612"
    },
    {
      "channel": 1,
      "note": 50,
      "start": 1.3954,
      "duration": 0.0289,
      "velocity": 98,
      "chip": "ym2612"
    },
    {
      "channel": 2,
      "note": 74,
      "start": 1.3959,
      "duration": 0.0287,
      "velocity": 99,
      "chip": "ym2612"
    },
    {
      "channel": 3,
      "note": 47,
      "start": 1.3966,
      "duration": 0.0001,
      "velocity": 127,
      "chip": "ym2612"
    },
    {
      "channel": 3,
      "note": 49,
      "start": 1.4001,
      "duration": 0.0248,
      "velocity": 127,
      "chip": "ym2612"
    },
    {
      "channel": 4,
      "note": 74,
      "start": 1.4172,
      "duration": 0.0312,
      "velocity": 99,
      "chip": "ym2612"
    },
    {
      "channel": 0,
      "note": 78,
      "start": 1.4268,
      "duration": 0.0142,
      "velocity": 99,
      "chip": "ym2612"
    },
    {
      "channel": 1,
      "note": 50,
      "start": 1.4272,
      "duration": 0.014,
      "velocity": 98,
      "chip": "ym2612"
    },
    {
      "channel": 2,
      "note": 74,
      "start": 1.4277,
      "duration": 0.0138,
      "velocity": 99,
      "chip": "ym2612"
    },
    {
      "channel": 3,
      "note": 47,
      "start": 1.4284,
      "duration": 0.0134,
      "velocity": 127,
      "chip": "ym2612"
    },
    {
      "channel": 0,
      "note": 78,
      "start": 1.4436,
      "duration": 0.0147,
      "velocity": 99,
      "chip": "ym2612"
    },
    {
      "channel": 1,
      "note": 50,
      "start": 1.4441,
      "duration": 0.0145,
      "velocity": 98,
      "chip": "ym2612"
    },
    {
      "channel": 2,
      "note": 74,
      "start": 1.4446,
      "duration": 0.0142,
      "velocity": 99,
      "chip": "ym2612"
    },
    {
      "channel": 3,
      "note": 47,
      "start": 1.4453,
      "duration": 0.0139,
      "velocity": 127,
      "chip": "ym2612"
    },
    {
      "channel": 4,
      "note": 78,
      "start": 1.451,
      "duration": 0.0206,
      "velocity": 99,
      "chip": "ym2612"
    },
    {
      "channel": 0,
      "note": 78,
      "start": 1.461,
      "duration": 0.2144,
      "velocity": 99,
      "chip": "ym2612"
    },
    {
      "channel": 1,
      "note": 50,
      "start": 1.4615,
      "duration": 0.2141,
      "velocity": 98,
      "chip": "ym2612"
    },
    {
      "channel": 2,
      "note": 74,
      "start": 1.4621,
      "duration": 0.2138,
      "velocity": 99,
      "chip": "ym2612"
    },
    {
      "channel": 3,
      "note": 47,
      "start": 1.4627,
      "duration": 0.2134,
      "velocity": 127,
      "chip": "ym2612"
    },
    {
      "channel": 4,
      "note": 78,
      "start": 1.4923,
      "duration": 0.1021,
      "velocity": 99,
      "chip": "ym2612"
    },
    {
      "channel": 4,
      "note": 78,
      "start": 1.6152,
      "duration": 0.2249,
      "velocity": 99,
      "chip": "ym2612"
    },
    {
      "channel": 0,
      "note": 74,
      "start": 1.696,
      "duration": 0.2249,
      "velocity": 99,
      "chip": "ym2612"
    },
    {
      "channel": 1,
      "note": 50,
      "start": 1.6965,
      "duration": 0.2247,
      "velocity": 98,
      "chip": "ym2612"
    },
    {
      "channel": 2,
      "note": 69,
      "start": 1.697,
      "duration": 0.2244,
      "velocity": 99,
      "chip": "ym2612"
    },
    {
      "channel": 3,
      "note": 47,
      "start": 1.6976,
      "duration": 0.2241,
      "velocity": 127,
      "chip": "ym2612"
    },
    {
      "channel": 4,
      "note": 78,
      "start": 1.8607,
      "duration": 0.2249,
      "velocity": 99,
      "chip": "ym2612"
    },
    {
      "channel": 0,
      "note": 78,
      "start": 1.9416,
      "duration": 0.2249,
      "velocity": 99,
      "chip": "ym2612"
    },
    {
      "channel": 1,
      "note": 50,
      "start": 1.9421,
      "duration": 0.2247,
      "velocity": 98,
      "chip": "ym2612"
    },
    {
      "channel": 2,
      "note": 74,
      "start": 1.9426,
      "duration": 0.2244,
      "velocity": 99,
      "chip": "ym2612"
    },
    {
      "channel": 3,
      "note": 47,
      "start": 1.9432,
      "duration": 0.2242,
      "velocity": 127,
      "chip": "ym2612"
    },
    {
      "channel": 4,
      "note": 74,
      "start": 2.1063,
      "duration": 0.2249,
      "velocity": 99,
      "chip": "ym2612"
    },
    {
      "channel": 0,
      "note": 74,
      "start": 2.1872,
      "duration": 0.2249,
      "velocity": 99,
      "chip": "ym2612"
    },
    {
      "channel": 1,
      "note": 50,
      "start": 2.1876,
      "duration": 0.2247,
      "velocity": 98,
      "chip": "ym2612"
    },
    {
      "channel": 2,
      "note": 69,
      "start": 2.1881,
      "duration": 0.2245,
      "velocity": 99,
      "chip": "ym2612"
    },
    {
      "channel": 3,
      "note": 47,
      "start": 2.1888,
      "duration": 0.2241,
      "velocity": 127,
      "chip": "ym2612"
    },
    {
      "channel": 4,
      "note": 78,
      "start": 2.3519,
      "duration": 0.0994,
      "velocity": 99,
      "chip": "ym2612"
    },
    {
      "channel": 1,
      "note": 50,
      "start": 2.433,
      "duration": 0.0271,
      "velocity": 98,
      "chip": "ym2612"
    },
    {
      "channel": 3,
      "note": 47,
      "start": 2.4339,
      "duration": 0.0268,
      "velocity": 127,
      "chip": "ym2612"
    },
    {
      "channel": 0,
      "note": 78,
      "start": 2.4627,
      "duration": 0.0283,
      "velocity": 99,
      "chip": "ym2612"
    },
    {
      "channel": 1,
      "note": 50,
      "start": 2.4632,
      "duration": 0.0281,
      "velocity": 98,
      "chip": "ym2612"
    },
    {
      "channel": 2,
      "note": 74,
      "start": 2.4637,
      "duration": 0.0278,
      "velocity": 99,
      "chip": "ym2612"
    },
    {
      "channel": 3,
      "note": 45,
      "start": 2.4643,
      "duration": 0.0276,
      "velocity": 127,
      "chip": "ym2612"
    },
    {
      "channel": 4,
      "note": 74,
      "start": 2.4842,
      "duration": 0.0297,
      "velocity": 99,
      "chip": "ym2612"
    },
    {
      "channel": 0,
      "note": 81,
      "start": 2.4941,
      "duration": 0.0293,
      "velocity": 99,
      "chip": "ym2612"
    },
    {
      "channel": 1,
      "note": 50,
      "start": 2.4948,
      "duration": 0.0289,
      "velocity": 98,
      "chip": "ym2612"
    },
    {
      "channel": 2,
      "note": 78,
      "start": 2.4953,
      "duration": 0.0286,
      "velocity": 99,
      "chip": "ym2612"
    },
    {
      "channel": 3,
      "note": 47,
      "start": 2.4961,
      "duration": 0.0001,
      "velocity": 127,
      "chip": "ym2612"
    },
    {
      "channel": 3,
      "note": 49,
      "start": 2.4995,
      "duration": 0.0247,
      "velocity": 127,
      "chip": "ym2612"
    },
    {
      "channel": 4,
      "note": 78,
      "start": 2.5166,
      "duration": 0.0312,
      "velocity": 99,
      "chip": "ym2612"
    },
    {
      "channel": 0,
      "note": 81,
      "start": 2.5261,
      "duration": 0.0142,
      "velocity": 99,
      "chip": "ym2612"
    },
    {
      "channel": 1,
      "note": 50,
      "start": 2.5266,
      "duration": 0.0141,
      "velocity": 98,
      "chip": "ym2612"
    },
    {
      "channel": 2,
      "note": 78,
      "start": 2.5271,
      "duration": 0.0138,
      "velocity": 99,
      "chip": "ym2612"
    },
    {
      "channel": 3,
      "note": 47,
      "start": 2.5277,
      "duration": 0.0135,
      "velocity": 127,
      "chip": "ym2612"
    },
    {
      "channel": 0,
      "note": 81,
      "start": 2.543,
      "duration": 0.0148,
      "velocity": 99,
      "chip": "ym2612"
    },
    {
      "channel": 1,
      "note": 50,
      "start": 2.5435,
      "duration": 0.0145,
      "velocity": 98,
      "chip": "ym2612"
    },
    {
      "channel": 2,
      "note": 78,
      "start": 2.544,
      "duration": 0.0143,
      "velocity": 99,
      "chip": "ym2612"
    },
    {
      "channel": 3,
      "note": 47,
      "start": 2.5446,
      "duration": 0.014,
      "velocity": 127,
      "chip": "ym2612"
    },
    {
      "channel": 4,
      "note": 81,
      "start": 2.5504,
      "duration": 0.0206,
      "velocity": 99,
      "chip": "ym2612"
    },
    {
      "channel": 0,
      "note": 81,
      "start": 2.5604,
      "duration": 0.2143,
      "velocity": 99,
      "chip": "ym2612"
    },
    {
      "channel": 1,
      "note": 50,
      "start": 2.5609,
      "duration": 0.214,
      "velocity": 98,
      "chip": "ym2612"
    },
    {
      "channel": 2,
      "note": 78,
      "start": 2.5614,
      "duration": 0.2137,
      "velocity": 99,
      "chip": "ym2612"
    },
    {
      "channel": 3,
      "note": 47,
      "start": 2.5621,
      "duration": 0.2134,
      "velocity": 127,
      "chip": "ym2612"
    },
    {
      "channel": 4,
      "note": 81,
      "start": 2.5917,
      "duration": 0.1021,
      "velocity": 99,
      "chip": "ym2612"
    },
    {
      "channel": 4,
      "note": 81,
      "start": 2.7145,
      "duration": 0.2249,
      "velocity": 99,
      "chip": "ym2612"
    },
    {
      "channel": 0,
      "note": 78,
      "start": 2.7954,
      "duration": 0.2249,
      "velocity": 99,
      "chip": "ym2612"
    },
    {
      "channel": 1,
      "note": 50,
      "start": 2.7958,
      "duration": 0.2248,
      "velocity": 98,
      "chip": "ym2612"
    },
    {
      "channel": 2,
      "note": 74,
      "start": 2.7963,
      "duration": 0.2245,
      "velocity": 99,
      "chip": "ym2612"
    },
    {
      "channel": 3,
      "note": 47,
      "start": 2.7969,
      "duration": 0.2241,
      "velocity": 127,
      "chip": "ym2612"
    },
    {
      "channel": 4,
      "note": 81,
      "start": 2.96,
      "duration": 0.2249,
      "velocity": 99,
      "chip": "ym2612"
    },
    {
      "channel": 0,
      "note": 81,
      "start": 3.0409,
      "duration": 0.2249,
      "velocity": 99,
      "chip": "ym2612"
    },
    {
      "channel": 1,
      "note": 50,
      "start": 3.0414,
      "duration": 0.2247,
      "velocity": 98,
      "chip": "ym2612"
    },
    {
      "channel": 2,
      "note": 78,
      "start": 3.0418,
      "duration": 0.2245,
      "velocity": 99,
      "chip": "ym2612"
    },
    {
      "channel": 3,
      "note": 47,
      "start": 3.0425,
      "duration": 0.2242,
      "velocity": 127,
      "chip": "ym2612"
    },
    {
      "channel": 4,
      "note": 78,
      "start": 3.2056,
      "duration": 0.2249,
      "velocity": 99,
      "chip": "ym2612"
    },
    {
      "channel": 0,
      "note": 78,
      "start": 3.2865,
      "duration": 0.2249,
      "velocity": 99,
      "chip": "ym2612"
    },
    {
      "channel": 1,
      "note": 50,
      "start": 3.2869,
      "duration": 0.2248,
      "velocity": 98,
      "chip": "ym2612"
    },
    {
      "channel": 2,
      "note": 74,
      "start": 3.2875,
      "duration": 0.2245,
      "velocity": 99,
      "chip": "ym2612"
    },
    {
      "channel": 3,
      "note": 47,
      "start": 3.2881,
      "duration": 0.2241,
      "velocity": 127,
      "chip": "ym2612"
    },
    {
      "channel": 4,
      "note": 81,
      "start": 3.4512,
      "duration": 0.0995,
      "velocity": 99,
      "chip": "ym2612"
    },
    {
      "channel": 1,
      "note": 50,
      "start": 3.5324,
      "duration": 0.0271,
      "velocity": 98,
      "chip": "ym2612"
    },
    {
      "channel": 3,
      "note": 47,
      "start": 3.5333,
      "duration": 0.0268,
      "velocity": 127,
      "chip": "ym2612"
    },
    {
      "channel": 0,
      "note": 86,
      "start": 3.5654,
      "duration": 0.0363,
      "velocity": 100,
      "chip": "ym2612"
    },
    {
      "channel": 1,
      "note": 50,
      "start": 3.5659,
      "duration": 0.0362,
      "velocity": 98,
      "chip": "ym2612"
    },
    {
      "channel": 2,
      "note": 74,
      "start": 3.5696,
      "duration": 0.0327,
      "velocity": 100,
      "chip": "ym2612"
    },
    {
      "channel": 3,
      "note": 45,
      "start": 3.5702,
      "duration": 0.0323,
      "velocity": 127,
      "chip": "ym2612"
    },
    {
      "channel": 4,
      "note": 78,
      "start": 3.5949,
      "duration": 0.1536,
      "velocity": 100,
      "chip": "ym2612"
    },
    {
      "channel": 0,
      "note": 85,
      "start": 3.6046,
      "duration": 0.2248,
      "velocity": 100,
      "chip": "ym2612"
    },
    {
      "channel": 1,
      "note": 57,
      "start": 3.6053,
      "duration": 0.2244,
      "velocity": 98,
      "chip": "ym2612"
    },
    {
      "channel": 2,
      "note": 73,
      "start": 3.6059,
      "duration": 0.224,
      "velocity": 100,
      "chip": "ym2612"
    },
    {
      "channel": 3,
      "note": 47,
      "start": 3.6068,
      "duration": 0.0001,
      "velocity": 127,
      "chip": "ym2612"
    },
    {
      "channel": 3,
      "note": 49,
      "start": 3.6257,
      "duration": 0.9412,
      "velocity": 127,
      "chip": "ym2612"
    },
    {
      "channel": 4,
      "note": 86,
      "start": 3.7694,
      "duration": 0.2247,
      "velocity": 100,
      "chip": "ym2612"
    },
    {
      "channel": 0,
      "note": 86,
      "start": 3.8501,
      "duration": 0.2249,
      "velocity": 100,
      "chip": "ym2612"
    },
    {
      "channel": 1,
      "note": 55,
      "start": 3.8506,
      "duration": 0.2246,
      "velocity": 98,
      "chip": "ym2612"
    },
    {
      "channel": 2,
      "note": 71,
      "start": 3.8511,
      "duration": 0.2244,
      "velocity": 100,
      "chip": "ym2612"
    },
    {
      "channel": 4,
      "note": 85,
      "start": 4.0149,
      "duration": 0.2249,
      "velocity": 100,
      "chip": "ym2612"
    },
    {
      "channel": 0,
      "note": 87,
      "start": 4.0956,
      "duration": 0.2249,
      "velocity": 100,
      "chip": "ym2612"
    },
    {
      "channel": 1,
      "note": 54,
      "start": 4.0961,
      "duration": 0.2247,
      "velocity": 98,
      "chip": "ym2612"
    },
    {
      "channel": 2,
      "note": 69,
      "start": 4.0966,
      "duration": 0.2245,
      "velocity": 100,
      "chip": "ym2612"
    },
    {
      "channel": 4,
      "note": 86,
      "start": 4.2605,
      "duration": 0.2249,
      "velocity": 100,
      "chip": "ym2612"
    },
    {
      "channel": 0,
      "note": 88,
      "start": 4.3412,
      "duration": 0.2249,
      "velocity": 100,
      "chip": "ym2612"
    },
    {
      "channel": 1,
      "note": 52,
      "start": 4.3417,
      "duration": 0.2247,
      "velocity": 98,
      "chip": "ym2612"
    },
    {
      "channel": 2,
      "note": 67,
      "start": 4.3422,
      "duration": 0.2244,
      "velocity": 100,
      "chip": "ym2612"
    },
    {
      "channel": 4,
      "note": 87,
      "start": 4.5061,
      "duration": 0.1,
      "velocity": 100,
      "chip": "ym2612"
    },
    {
      "channel": 0,
      "note": 81,
      "start": 4.5868,
      "duration": 0.0288,
      "velocity": 100,
      "chip": "ym2612"
    },
    {
      "channel": 1,
      "note": 57,
      "start": 4.5873,
      "duration": 0.0285,
      "velocity": 98,
      "chip": "ym2612"
    },
    {
      "channel": 2,
      "note": 76,
      "start": 4.5878,
      "duration": 0.0283,
      "velocity": 100,
      "chip": "ym2612"
    },
    {
      "channel": 3,
      "note": 47,
      "start": 4.5884,
      "duration": 0.028,
      "velocity": 127,
      "chip": "ym2612"
    },
    {
      "channel": 4,
      "note": 88,
      "start": 4.6088,
      "duration": 0.0417,
      "velocity": 100,
      "chip": "ym2612"
    },
    {
      "channel": 0,
      "note": 81,
      "start": 4.6219,
      "duration": 0.0194,
      "velocity": 99,
      "chip": "ym2612"
    },
    {
      "channel": 1,
      "note": 57,
      "start": 4.6223,
      "duration": 0.0193,
      "velocity": 98,
      "chip": "ym2612"
    },
    {
      "channel": 2,
      "note": 73,
      "start": 4.6261,
      "duration": 0.0157,
      "velocity": 99,
      "chip": "ym2612"
    },
    {
      "channel": 3,
      "note": 47,
      "start": 4.6268,
      "duration": 0.0153,
      "velocity": 127,
      "chip": "ym2612"
    },
    {
      "channel": 0,
      "note": 81,
      "start": 4.644,
      "duration": 0.0213,
      "velocity": 99,
      "chip": "ym2612"
    },
    {
      "channel": 1,
      "note": 57,
      "start": 4.6444,
      "duration": 0.0211,
      "velocity": 98,
      "chip": "ym2612"
    },
    {
      "channel": 2,
      "note": 73,
      "start": 4.6449,
      "duration": 0.0209,
      "velocity": 99,
      "chip": "ym2612"
    },
    {
      "channel": 3,
      "note": 47,
      "start": 4.6456,
      "duration": 0.0206,
      "velocity": 127,
      "chip": "ym2612"
    },
    {
      "channel": 4,
      "note": 81,
      "start": 4.658,
      "duration": 0.0151,
      "velocity": 99,
      "chip": "ym2612"
    },
    {
      "channel": 0,
      "note": 81,
      "start": 4.668,
      "duration": 0.0117,
      "velocity": 99,
      "chip": "ym2612"
    },
    {
      "channel": 1,
      "note": 57,
      "start": 4.6686,
      "duration": 0.029,
      "velocity": 98,
      "chip": "ym2612"
    },
    {
      "channel": 2,
      "note": 73,
      "start": 4.6691,
      "duration": 0.011,
      "velocity": 99,
      "chip": "ym2612"
    },
    {
      "channel": 3,
      "note": 47,
      "start": 4.6698,
      "duration": 0.0283,
      "velocity": 127,
      "chip": "ym2612"
    },
    {
      "channel": 4,
      "note": 81,
      "start": 4.6759,
      "duration": 0.012,
      "velocity": 99,
      "chip": "ym2612"
    },
    {
      "channel": 4,
      "note": 81,
      "start": 4.6905,
      "duration": 0.0117,
      "velocity": 99,
      "chip": "ym2612"
    },
    {
      "channel": 0,
      "note": 81,
      "start": 4.7001,
      "duration": 0.0127,
      "velocity": 99,
      "chip": "ym2612"
    },
    {
      "channel": 1,
      "note": 57,
      "start": 4.7006,
      "duration": 0.0299,
      "velocity": 98,
      "chip": "ym2612"
    },
    {
      "channel": 2,
      "note": 73,
      "start": 4.7011,
      "duration": 0.0121,
      "velocity": 99,
      "chip": "ym2612"
    },
    {
      "channel": 3,
      "note": 47,
      "start": 4.7017,
      "duration": 0.0294,
      "velocity": 127,
      "chip": "ym2612"
    },
    {
      "channel": 4,
      "note": 81,
      "start": 4.7235,
      "duration": 0.0201,
      "velocity": 99,
      "chip": "ym2612"
    },
    {
      "channel": 0,
      "note": 74,
      "start": 4.7375,
      "duration": 0.0393,
      "velocity": 99,
      "chip": "ym2612"
    },
    {
      "channel": 1,
      "note": 50,
      "start": 4.7383,
      "duration": 0.0388,
      "velocity": 98,
      "chip": "ym2612"
    },
    {
      "channel": 3,
      "note": 47,
      "start": 4.7431,
      "duration": 0.0001,
      "velocity": 127,
      "chip": "ym2612"
    },
    {
      "channel": 3,
      "note": 49,
      "start": 4.7475,
      "duration": 0.03,
      "velocity": 127,
      "chip": "ym2612"
    },
    {
      "channel": 4,
      "note": 81,
      "start": 4.77,
      "duration": 0.0306,
      "velocity": 99,
      "chip": "ym2612"
    },
    {
      "channel": 0,
      "note": 74,
      "start": 4.7794,
      "duration": 0.014,
      "velocity": 99,
      "chip": "ym2612"
    },
    {
      "channel": 1,
      "note": 50,
      "start": 4.78,
      "duration": 0.0137,
      "velocity": 98,
      "chip": "ym2612"
    },
    {
      "channel": 3,
      "note": 47,
      "start": 4.7807,
      "duration": 0.0135,
      "velocity": 127,
      "chip": "ym2612"
    },
    {
      "channel": 0,
      "note": 74,
      "start": 4.7961,
      "duration": 0.0145,
      "velocity": 99,
      "chip": "ym2612"
    },
    {
      "channel": 1,
      "note": 50,
      "start": 4.7966,
      "duration": 0.0143,
      "velocity": 98,
      "chip": "ym2612"
    },
    {
      "channel": 3,
      "note": 47,
      "start": 4.7974,
      "duration": 0.014,
      "velocity": 127,
      "chip": "ym2612"
    },
    {
      "channel": 4,
      "note": 74,
      "start": 4.8032,
      "duration": 0.0147,
      "velocity": 99,
      "chip": "ym2612"
    },
    {
      "channel": 0,
      "note": 74,
      "start": 4.8134,
      "duration": 0.2011,
      "velocity": 99,
      "chip": "ym2612"
    },
    {
      "channel": 1,
      "note": 50,
      "start": 4.8139,
      "duration": 0.2009,
      "velocity": 98,
      "chip": "ym2612"
    },
    {
      "channel": 3,
      "note": 47,
      "start": 4.8147,
      "duration": 0.2006,
      "velocity": 127,
      "chip": "ym2612"
    },
    {
      "channel": 4,
      "note": 74,
      "start": 4.8315,
      "duration": 0.1021,
      "velocity": 99,
      "chip": "ym2612"
    },
    {
      "channel": 4,
      "note": 74,
      "start": 4.9543,
      "duration": 0.2249,
      "velocity": 99,
      "chip": "ym2612"
    },
    {
      "channel": 0,
      "note": 69,
      "start": 5.0351,
      "duration": 0.2249,
      "velocity": 99,
      "chip": "ym2612"
    },
    {
      "channel": 1,
      "note": 50,
      "start": 5.0356,
      "duration": 0.2247,
      "velocity": 98,
      "chip": "ym2612"
    },
    {
      "channel": 3,
      "note": 47,
      "start": 5.0364,
      "duration": 0.2244,
      "velocity": 127,
      "chip": "ym2612"
    },
    {
      "channel": 4,
      "note": 74,
      "start": 5.1999,
      "duration": 0.2249,
      "velocity": 99,
      "chip": "ym2612"
    },
    {
      "channel": 0,
      "note": 74,
      "start": 5.2807,
      "duration": 0.2249,
      "velocity": 99,
      "chip": "ym2612"
    },
    {
      "channel": 1,
      "note": 50,
      "start": 5.2812,
      "duration": 0.2247,
      "velocity": 98,
      "chip": "ym2612"
    },
    {
      "channel": 3,
      "note": 47,
      "start": 5.282,
      "duration": 0.2244,
      "velocity": 127,
      "chip": "ym2612"
    },
    {
      "channel": 4,
      "note": 69,
      "start": 5.4454,
      "duration": 0.2249,
      "velocity": 99,
      "chip": "ym2612"
    },
    {
      "channel": 0,
      "note": 69,
      "start": 5.5262,
      "duration": 0.2249,
      "velocity": 99,
      "chip": "ym2612"
    },
    {
      "channel": 1,
      "note": 50,
      "start": 5.5267,
      "duration": 0.2247,
      "velocity": 98,
      "chip": "ym2612"
    },
    {
      "channel": 3,
      "note": 47,
      "start": 5.5276,
      "duration": 0.2244,
      "velocity": 127,
      "chip": "ym2612"
    },
    {
      "channel": 4,
      "note": 74,
      "start": 5.691,
      "duration": 0.0997,
      "velocity": 99,
      "chip": "ym2612"
    },
    {
      "channel": 1,
      "note": 50,
      "start": 5.7722,
      "duration": 0.0274,
      "velocity": 98,
      "chip": "ym2612"
    },
    {
      "channel": 3,
      "note": 47,
      "start": 5.773,
      "duration": 0.0273,
      "velocity": 127,
      "chip": "ym2612"
    },
    {
      "channel": 0,
      "note": 74,
      "start": 5.8022,
      "duration": 0.0283,
      "velocity": 99,
      "chip": "ym2612"
    },
    {
      "channel": 1,
      "note": 50,
      "start": 5.8027,
      "duration": 0.028,
      "velocity": 98,
      "chip": "ym2612"
    },
    {
      "channel": 2,
      "note": 69,
      "start": 5.8032,
      "duration": 0.0278,
      "velocity": 99,
      "chip": "ym2612"
    },
    {
      "channel": 3,
      "note": 45,
      "start": 5.8038,
      "duration": 0.0275,
      "velocity": 127,
      "chip": "ym2612"
    },
    {
      "channel": 4,
      "note": 69,
      "start": 5.8237,
      "duration": 0.0296,
      "velocity": 99,
      "chip": "ym2612"
    },
    {
      "channel": 0,
      "note": 78,
      "start": 5.8333,
      "duration": 0.0294,
      "velocity": 99,
      "chip": "ym2612"
    },
    {
      "channel": 1,
      "note": 50,
      "start": 5.834,
      "duration": 0.0289,
      "velocity": 98,
      "chip": "ym2612"
    },
    {
      "channel": 2,
      "note": 74,
      "start": 5.8345,
      "duration": 0.0287,
      "velocity": 99,
      "chip": "ym2612"
    },
    {
      "channel": 3,
      "note": 47,
      "start": 5.8353,
      "duration": 0.0001,
      "velocity": 127,
      "chip": "ym2612"
    },
    {
      "channel": 3,
      "note": 49,
      "start": 5.8387,
      "duration": 0.0248,
      "velocity": 127,
      "chip": "ym2612"
    },
    {
      "channel": 4,
      "note": 74,
      "start": 5.8559,
      "duration": 0.0312,
      "velocity": 99,
      "chip": "ym2612"
    },
    {
      "channel": 0,
      "note": 78,
      "start": 5.8654,
      "duration": 0.0143,
      "velocity": 99,
      "chip": "ym2612"
    },
    {
      "channel": 1,
      "note": 50,
      "start": 5.8658,
      "duration": 0.0141,
      "velocity": 98,
      "chip": "ym2612"
    },
    {
      "channel": 2,
      "note": 74,
      "start": 5.8663,
      "duration": 0.0138,
      "velocity": 99,
      "chip": "ym2612"
    },
    {
      "channel": 3,
      "note": 47,
      "start": 5.867,
      "duration": 0.0135,
      "velocity": 127,
      "chip": "ym2612"
    },
    {
      "channel": 0,
      "note": 78,
      "start": 5.8824,
      "duration": 0.0147,
      "velocity": 99,
      "chip": "ym2612"
    },
    {
      "channel": 1,
      "note": 50,
      "start": 5.8828,
      "duration": 0.0145,
      "velocity": 98,
      "chip": "ym2612"
    },
    {
      "channel": 2,
      "note": 74,
      "start": 5.8833,
      "duration": 0.0142,
      "velocity": 99,
      "chip": "ym2612"
    },
    {
      "channel": 3,
      "note": 47,
      "start": 5.8839,
      "duration": 0.0139,
      "velocity": 127,
      "chip": "ym2612"
    },
    {
      "channel": 4,
      "note": 78,
      "start": 5.8897,
      "duration": 0.0205,
      "velocity": 99,
      "chip": "ym2612"
    },
    {
      "channel": 0,
      "note": 78,
      "start": 5.8997,
      "duration": 0.2142,
      "velocity": 99,
      "chip": "ym2612"
    },
    {
      "channel": 1,
      "note": 50,
      "start": 5.9002,
      "duration": 0.214,
      "velocity": 98,
      "chip": "ym2612"
    },
    {
      "channel": 2,
      "note": 74,
      "start": 5.9007,
      "duration": 0.2137,
      "velocity": 99,
      "chip": "ym2612"
    },
    {
      "channel": 3,
      "note": 47,
      "start": 5.9013,
      "duration": 0.2135,
      "velocity": 127,
      "chip": "ym2612"
    },
    {
      "channel": 4,
      "note": 78,
      "start": 5.9309,
      "duration": 0.1022,
      "velocity": 99,
      "chip": "ym2612"
    },
    {
      "channel": 4,
      "note": 78,
      "start": 6.0537,
      "duration": 0.2249,
      "velocity": 99,
      "chip": "ym2612"
    },
    {
      "channel": 0,
      "note": 74,
      "start": 6.1346,
      "duration": 0.2249,
      "velocity": 99,
      "chip": "ym2612"
    },
    {
      "channel": 1,
      "note": 50,
      "start": 6.1351,
      "duration": 0.2247,
      "velocity": 98,
      "chip": "ym2612"
    },
    {
      "channel": 2,
      "note": 69,
      "start": 6.1355,
      "duration": 0.2245,
      "velocity": 99,
      "chip": "ym2612"
    },
    {
      "channel": 3,
      "note": 47,
      "start": 6.1362,
      "duration": 0.2241,
      "velocity": 127,
      "chip": "ym2612"
    },
    {
      "channel": 4,
      "note": 78,
      "start": 6.2993,
      "duration": 0.2248,
      "velocity": 99,
      "chip": "ym2612"
    },
    {
      "channel": 0,
      "note": 78,
      "start": 6.3801,
      "duration": 0.2249,
      "velocity": 99,
      "chip": "ym2612"
    },
    {
      "channel": 1,
      "note": 50,
      "start": 6.3806,
      "duration": 0.2247,
      "velocity": 98,
      "chip": "ym2612"
    },
    {
      "channel": 2,
      "note": 74,
      "start": 6.3811,
      "duration": 0.2245,
      "velocity": 99,
      "chip": "ym2612"
    },
    {
      "channel": 3,
      "note": 47,
      "start": 6.3818,
      "duration": 0.2241,
      "velocity": 127,
      "chip": "ym2612"
    },
    {
      "channel": 4,
      "note": 74,
      "start": 6.5449,
      "duration": 0.2249,
      "velocity": 99,
      "chip": "ym2612"
    },
    {
      "channel": 0,
      "note": 74,
      "start": 6.6257,
      "duration": 0.2249,
      "velocity": 99,
      "chip": "ym2612"
    },
    {
      "channel": 1,
      "note": 50,
      "start": 6.6262,
      "duration": 0.2247,
      "velocity": 98,
      "chip": "ym2612"
    },
    {
      "channel": 2,
      "note": 69,
      "start": 6.6267,
      "duration": 0.2244,
      "velocity": 99,
      "chip": "ym2612"
    },
    {
      "channel": 3,
      "note": 47,
      "start": 6.6273,
      "duration": 0.2241,
      "velocity": 127,
      "chip": "ym2612"
    },
    {
      "channel": 4,
      "note": 78,
      "start": 6.7904,
      "duration": 0.0995,
      "velocity": 99,
      "chip": "ym2612"
    },
    {
      "channel": 1,
      "note": 50,
      "start": 6.8716,
      "duration": 0.0271,
      "velocity": 98,
      "chip": "ym2612"
    },
    {
      "channel": 3,
      "note": 47,
      "start": 6.8725,
      "duration": 0.0268,
      "velocity": 127,
      "chip": "ym2612"
    },
    {
      "channel": 0,
      "note": 78,
      "start": 6.9013,
      "duration": 0.0283,
      "velocity": 99,
      "chip": "ym2612"
    },
    {
      "channel": 1,
      "note": 50,
      "start": 6.9018,
      "duration": 0.028,
      "velocity": 98,
      "chip": "ym2612"
    },
    {
      "channel": 2,
      "note": 74,
      "start": 6.9023,
      "duration": 0.0278,
      "velocity": 99,
      "chip": "ym2612"
    },
    {
      "channel": 3,
      "note": 45,
      "start": 6.9029,
      "duration": 0.0275,
      "velocity": 127,
      "chip": "ym2612"
    },
    {
      "channel": 4,
      "note": 74,
      "start": 6.9228,
      "duration": 0.0299,
      "velocity": 99,
      "chip": "ym2612"
    },
    {
      "channel": 0,
      "note": 81,
      "start": 6.9328,
      "duration": 0.0294,
      "velocity": 99,
      "chip": "ym2612"
    },
    {
      "channel": 1,
      "note": 50,
      "start": 6.9334,
      "duration": 0.029,
      "velocity": 98,
      "chip": "ym2612"
    },
    {
      "channel": 2,
      "note": 78,
      "start": 6.9339,
      "duration": 0.0287,
      "velocity": 99,
      "chip": "ym2612"
    },
    {
      "channel": 3,
      "note": 47,
      "start": 6.9346,
      "duration": 0.0001,
      "velocity": 127,
      "chip": "ym2612"
    },
    {
      "channel": 3,
      "note": 49,
      "start": 6.9381,
      "duration": 0.0248,
      "velocity": 127,
      "chip": "ym2612"
    },
    {
      "channel": 4,
      "note": 78,
      "start": 6.9553,
      "duration": 0.0313,
      "velocity": 99,
      "chip": "ym2612"
    },
    {
      "channel": 0,
      "note": 81,
      "start": 6.9649,
      "duration": 0.0142,
      "velocity": 99,
      "chip": "ym2612"
    },
    {
      "channel": 1,
      "note": 50,
      "start": 6.9653,
      "duration": 0.0141,
      "velocity": 98,
      "chip": "ym2612"
    },
    {
      "channel": 2,
      "note": 78,
      "start": 6.9658,
      "duration": 0.0138,
      "velocity": 99,
      "chip": "ym2612"
    },
    {
      "channel": 3,
      "note": 47,
      "start": 6.9665,
      "duration": 0.0135,
      "velocity": 127,
      "chip": "ym2612"
    },
    {
      "channel": 0,
      "note": 81,
      "start": 6.9818,
      "duration": 0.0147,
      "velocity": 99,
      "chip": "ym2612"
    },
    {
      "channel": 1,
      "note": 50,
      "start": 6.9824,
      "duration": 0.0144,
      "velocity": 98,
      "chip": "ym2612"
    },
    {
      "channel": 2,
      "note": 78,
      "start": 6.9829,
      "duration": 0.0142,
      "velocity": 99,
      "chip": "ym2612"
    },
    {
      "channel": 3,
      "note": 47,
      "start": 6.9835,
      "duration": 0.0139,
      "velocity": 127,
      "chip": "ym2612"
    },
    {
      "channel": 4,
      "note": 81,
      "start": 6.9893,
      "duration": 0.0205,
      "velocity": 99,
      "chip": "ym2612"
    },
    {
      "channel": 0,
      "note": 81,
      "start": 6.9992,
      "duration": 0.2142,
      "velocity": 99,
      "chip": "ym2612"
    },
    {
      "channel": 1,
      "note": 50,
      "start": 6.9997,
      "duration": 0.214,
      "velocity": 98,
      "chip": "ym2612"
    },
    {
      "channel": 2,
      "note": 78,
      "start": 7.0002,
      "duration": 0.2137,
      "velocity": 99,
      "chip": "ym2612"
    },
    {
      "channel": 3,
      "note": 47,
      "start": 7.0009,
      "duration": 0.2134,
      "velocity": 127,
      "chip": "ym2612"
    },
    {
      "channel": 4,
      "note": 81,
      "start": 7.0304,
      "duration": 0.1021,
      "velocity": 99,
      "chip": "ym2612"
    },
    {
      "channel": 4,
      "note": 81,
      "start": 7.1533,
      "duration": 0.2249,
      "velocity": 99,
      "chip": "ym2612"
    },
    {
      "channel": 0,
      "note": 78,
      "start": 7.2341,
      "duration": 0.2249,
      "velocity": 99,
      "chip": "ym2612"
    },
    {
      "channel": 1,
      "note": 50,
      "start": 7.2346,
      "duration": 0.2248,
      "velocity": 98,
      "chip": "ym2612"
    },
    {
      "channel": 2,
      "note": 74,
      "start": 7.2351,
      "duration": 0.2245,
      "velocity": 99,
      "chip": "ym2612"
    },
    {
      "channel": 3,
      "note": 47,
      "start": 7.2357,
      "duration": 0.2241,
      "velocity": 127,
      "chip": "ym2612"
    },
    {
      "channel": 4,
      "note": 81,
      "start": 7.3988,
      "duration": 0.2249,
      "velocity": 99,
      "chip": "ym2612"
    },
    {
      "channel": 0,
      "note": 81,
      "start": 7.4797,
      "duration": 0.2249,
      "velocity": 99,
      "chip": "ym2612"
    },
    {
      "channel": 1,
      "note": 50,
      "start": 7.4802,
      "duration": 0.2247,
      "velocity": 98,
      "chip": "ym2612"
    },
    {
      "channel": 2,
      "note": 78,
      "start": 7.4806,
      "duration": 0.2245,
      "velocity": 99,
      "chip": "ym2612"
    },
    {
      "channel": 3,
      "note": 47,
      "start": 7.4812,
      "duration": 0.2242,
      "velocity": 127,
      "chip": "ym2612"
    },
    {
      "channel": 4,
      "note": 78,
      "start": 7.6444,
      "duration": 0.2249,
      "velocity": 99,
      "chip": "ym2612"
    },
    {
      "channel": 0,
      "note": 78,
      "start": 7.7253,
      "duration": 0.2249,
      "velocity": 99,
      "chip": "ym2612"
    },
    {
      "channel": 1,
      "note": 50,
      "start": 7.7257,
      "duration": 0.2248,
      "velocity": 98,
      "chip": "ym2612"
    },
    {
      "channel": 2,
      "note": 74,
      "start": 7.7262,
      "duration": 0.2245,
      "velocity": 99,
      "chip": "ym2612"
    },
    {
      "channel": 3,
      "note": 47,
      "start": 7.7269,
      "duration": 0.2241,
      "velocity": 127,
      "chip": "ym2612"
    },
    {
      "channel": 4,
      "note": 81,
      "start": 7.89,
      "duration": 0.0994,
      "velocity": 99,
      "chip": "ym2612"
    },
    {
      "channel": 1,
      "note": 50,
      "start": 7.9711,
      "duration": 0.0271,
      "velocity": 98,
      "chip": "ym2612"
    },
    {
      "channel": 3,
      "note": 47,
      "start": 7.972,
      "duration": 0.0268,
      "velocity": 127,
      "chip": "ym2612"
    },
    {
      "channel": 0,
      "note": 86,
      "start": 8.0042,
      "duration": 0.0364,
      "velocity": 100,
      "chip": "ym2612"
    },
    {
      "channel": 1,
      "note": 50,
      "start": 8.0046,
      "duration": 0.0362,
      "velocity": 98,
      "chip": "ym2612"
    },
    {
      "channel": 2,
      "note": 74,
      "start": 8.0084,
      "duration": 0.0327,
      "velocity": 100,
      "chip": "ym2612"
    },
    {
      "channel": 3,
      "note": 45,
      "start": 8.009,
      "duration": 0.0324,
      "velocity": 127,
      "chip": "ym2612"
    },
    {
      "channel": 4,
      "note": 78,
      "start": 8.0338,
      "duration": 0.1536,
      "velocity": 100,
      "chip": "ym2612"
    },
    {
      "channel": 0,
      "note": 88,
      "start": 8.0439,
      "duration": 0.2244,
      "velocity": 100,
      "chip": "ym2612"
    },
    {
      "channel": 1,
      "note": 55,
      "start": 8.0451,
      "duration": 0.2234,
      "velocity": 98,
      "chip": "ym2612"
    },
    {
      "channel": 2,
      "note": 85,
      "start": 8.0462,
      "duration": 0.2226,
      "velocity": 100,
      "chip": "ym2612"
    },
    {
      "channel": 3,
      "note": 47,
      "start": 8.0473,
      "duration": 0.0001,
      "velocity": 127,
      "chip": "ym2612"
    },
    {
      "channel": 3,
      "note": 49,
      "start": 8.0646,
      "duration": 0.9411,
      "velocity": 127,
      "chip": "ym2612"
    },
    {
      "channel": 4,
      "note": 86,
      "start": 8.2087,
      "duration": 0.2243,
      "velocity": 100,
      "chip": "ym2612"
    },
    {
      "channel": 0,
      "note": 81,
      "start": 8.289,
      "duration": 0.1021,
      "velocity": 100,
      "chip": "ym2612"
    },
    {
      "channel": 1,
      "note": 55,
      "start": 8.2895,
      "duration": 0.2246,
      "velocity": 98,
      "chip": "ym2612"
    },
    {
      "channel": 2,
      "note": 76,
      "start": 8.2899,
      "duration": 0.1016,
      "velocity": 100,
      "chip": "ym2612"
    },
    {
      "channel": 0,
      "note": 81,
      "start": 8.4117,
      "duration": 0.1021,
      "velocity": 100,
      "chip": "ym2612"
    },
    {
      "channel": 2,
      "note": 76,
      "start": 8.4124,
      "duration": 0.102,
      "velocity": 100,
      "chip": "ym2612"
    },
    {
      "channel": 4,
      "note": 88,
      "start": 8.4537,
      "duration": 0.1022,
      "velocity": 100,
      "chip": "ym2612"
    },
    {
      "channel": 0,
      "note": 90,
      "start": 8.5346,
      "duration": 0.0815,
      "velocity": 100,
      "chip": "ym2612"
    },
    {
      "channel": 1,
      "note": 57,
      "start": 8.5351,
      "duration": 0.2245,
      "velocity": 98,
      "chip": "ym2612"
    },
    {
      "channel": 2,
      "note": 83,
      "start": 8.5357,
      "duration": 0.0809,
      "velocity": 100,
      "chip": "ym2612"
    },
    {
      "channel": 4,
      "note": 81,
      "start": 8.5766,
      "duration": 0.102,
      "velocity": 100,
      "chip": "ym2612"
    },
    {
      "channel": 4,
      "note": 81,
      "start": 8.6994,
      "duration": 0.0824,
      "velocity": 100,
      "chip": "ym2612"
    },
    {
      "channel": 0,
      "note": 88,
      "start": 8.78,
      "duration": 0.0817,
      "velocity": 100,
      "chip": "ym2612"
    },
    {
      "channel": 1,
      "note": 57,
      "start": 8.7805,
      "duration": 0.2247,
      "velocity": 98,
      "chip": "ym2612"
    },
    {
      "channel": 2,
      "note": 85,
      "start": 8.7811,
      "duration": 0.081,
      "velocity": 100,
      "chip": "ym2612"
    },
    {
      "channel": 4,
      "note": 90,
      "start": 8.9449,
      "duration": 0.0827,
      "velocity": 100,
      "chip": "ym2612"
    },
    {
      "channel": 0,
      "note": 86,
      "start": 9.0256,
      "duration": 0.0817,
      "velocity": 100,
      "chip": "ym2612"
    },
    {
      "channel": 1,
      "note": 50,
      "start": 9.0262,
      "duration": 0.2772,
      "velocity": 98,
      "chip": "ym2612"
    },
    {
      "channel": 2,
      "note": 81,
      "start": 9.0266,
      "duration": 0.0812,
      "velocity": 100,
      "chip": "ym2612"
    },
    {
      "channel": 3,
      "note": 47,
      "start": 9.0273,
      "duration": 0.224,
      "velocity": 127,
      "chip": "ym2612"
    },
    {
      "channel": 4,
      "note": 88,
      "start": 9.1903,
      "duration": 0.0828,
      "velocity": 100,
      "chip": "ym2612"
    },
    {
      "channel": 0,
      "note": 74,
      "start": 9.2713,
      "duration": 0.0153,
      "velocity": 100,
      "chip": "ym2612"
    },
    {
      "channel": 2,
      "note": 66,
      "start": 9.2722,
      "duration": 0.015,
      "velocity": 100,
      "chip": "ym2612"
    },
    {
      "channel": 3,
      "note": 47,
      "start": 9.2727,
      "duration": 0.0147,
      "velocity": 127,
      "chip": "ym2612"
    },
    {
      "channel": 0,
      "note": 74,
      "start": 9.2893,
      "duration": 0.0138,
      "velocity": 100,
      "chip": "ym2612"
    },
    {
      "channel": 2,
      "note": 66,
      "start": 9.29,
      "duration": 0.0137,
      "velocity": 100,
      "chip": "ym2612"
    },
    {
      "channel": 3,
      "note": 47,
      "start": 9.2907,
      "duration": 0.0133,
      "velocity": 127,
      "chip": "ym2612"
    },
    {
      "channel": 4,
      "note": 86,
      "start": 9.2968,
      "duration": 0.0145,
      "velocity": 100,
      "chip": "ym2612"
    },
    {
      "channel": 0,
      "note": 74,
      "start": 9.3059,
      "duration": 0.0582,
      "velocity": 100,
      "chip": "ym2612"
    },
    {
      "channel": 1,
      "note": 50,
      "start": 9.3064,
      "duration": 0.0427,
      "velocity": 98,
      "chip": "ym2612"
    },
    {
      "channel": 2,
      "note": 66,
      "start": 9.3069,
      "duration": 0.0578,
      "velocity": 100,
      "chip": "ym2612"
    },
    {
      "channel": 3,
      "note": 47,
      "start": 9.3075,
      "duration": 0.0001,
      "velocity": 127,
      "chip": "ym2612"
    },
    {
      "channel": 3,
      "note": 49,
      "start": 9.311,
      "duration": 0.054,
      "velocity": 127,
      "chip": "ym2612"
    },
    {
      "channel": 4,
      "note": 74,
      "start": 9.314,
      "duration": 0.0119,
      "velocity": 100,
      "chip": "ym2612"
    },
    {
      "channel": 4,
      "note": 74,
      "start": 9.3286,
      "duration": 0.1824,
      "velocity": 100,
      "chip": "ym2612"
    },
    {
      "channel": 1,
      "note": 45,
      "start": 9.3517,
      "duration": 0.0025,
      "velocity": 98,
      "chip": "ym2612"
    },
    {
      "channel": 1,
      "note": 47,
      "start": 9.3567,
      "duration": 0.0025,
      "velocity": 98,
      "chip": "ym2612"
    },
    {
      "channel": 1,
      "note": 49,
      "start": 9.3618,
      "duration": 0.0027,
      "velocity": 98,
      "chip": "ym2612"
    },
    {
      "channel": 0,
      "note": 78,
      "start": 9.3671,
      "duration": 0.9615,
      "velocity": 100,
      "chip": "ym2612"
    },
    {
      "channel": 1,
      "note": 50,
      "start": 9.3679,
      "duration": 0.4698,
      "velocity": 98,
      "chip": "ym2612"
    },
    {
      "channel": 2,
      "note": 62,
      "start": 9.3718,
      "duration": 0.3432,
      "velocity": 95,
      "chip": "ym2612"
    },
    {
      "channel": 3,
      "note": 47,
      "start": 9.3727,
      "duration": 0.0001,
      "velocity": 127,
      "chip": "ym2612"
    },
    {
      "channel": 3,
      "note": 49,
      "start": 9.3882,
      "duration": 0.45,
      "velocity": 127,
      "chip": "ym2612"
    },
    {
      "channel": 4,
      "note": 74,
      "start": 9.5318,
      "duration": 0.9615,
      "velocity": 100,
      "chip": "ym2612"
    },
    {
      "channel": 2,
      "note": 57,
      "start": 9.7358,
      "duration": 0.1022,
      "velocity": 95,
      "chip": "ym2612"
    },
    {
      "channel": 1,
      "note": 49,
      "start": 9.8583,
      "duration": 0.4705,
      "velocity": 98,
      "chip": "ym2612"
    },
    {
      "channel": 2,
      "note": 62,
      "start": 9.8589,
      "duration": 0.0814,
      "velocity": 95,
      "chip": "ym2612"
    },
    {
      "channel": 3,
      "note": 47,
      "start": 9.8595,
      "duration": 0.0001,
      "velocity": 127,
      "chip": "ym2612"
    },
    {
      "channel": 3,
      "note": 49,
      "start": 9.8793,
      "duration": 0.4501,
      "velocity": 127,
      "chip": "ym2612"
    },
    {
      "channel": 2,
      "note": 64,
      "start": 10.1041,
      "duration": 0.0816,
      "velocity": 95,
      "chip": "ym2612"
    },
    {
      "channel": 0,
      "note": 74,
      "start": 10.3493,
      "duration": 0.3477,
      "velocity": 100,
      "chip": "ym2612"
    },
    {
      "channel": 1,
      "note": 47,
      "start": 10.3498,
      "duration": 0.4702,
      "velocity": 98,
      "chip": "ym2612"
    },
    {
      "channel": 2,
      "note": 66,
      "start": 10.3504,
      "duration": 0.9611,
      "velocity": 95,
      "chip": "ym2612"
    },
    {
      "channel": 3,
      "note": 47,
      "start": 10.351,
      "duration": 0.0001,
      "velocity": 127,
      "chip": "ym2612"
    },
    {
      "channel": 3,
      "note": 49,
      "start": 10.3704,
      "duration": 0.4501,
      "velocity": 127,
      "chip": "ym2612"
    },
    {
      "channel": 4,
      "note": 78,
      "start": 10.514,
      "duration": 0.3481,
      "velocity": 100,
      "chip": "ym2612"
    },
    {
      "channel": 0,
      "note": 69,
      "start": 10.7176,
      "duration": 0.1021,
      "velocity": 100,
      "chip": "ym2612"
    },
    {
      "channel": 0,
      "note": 74,
      "start": 10.8404,
      "duration": 0.1022,
      "velocity": 100,
      "chip": "ym2612"
    },
    {
      "channel": 1,
      "note": 45,
      "start": 10.8409,
      "duration": 0.4702,
      "velocity": 98,
      "chip": "ym2612"
    },
    {
      "channel": 3,
      "note": 47,
      "start": 10.8417,
      "duration": 0.0001,
      "velocity": 127,
      "chip": "ym2612"
    },
    {
      "channel": 3,
      "note": 49,
      "start": 10.8617,
      "duration": 0.4501,
      "velocity": 127,
      "chip": "ym2612"
    },
    {
      "channel": 4,
      "note": 74,
      "start": 10.8824,
      "duration": 0.1021,
      "velocity": 100,
      "chip": "ym2612"
    },
    {
      "channel": 0,
      "note": 76,
      "start": 10.9632,
      "duration": 0.1021,
      "velocity": 100,
      "chip": "ym2612"
    },
    {
      "channel": 4,
      "note": 69,
      "start": 11.0052,
      "duration": 0.1021,
      "velocity": 100,
      "chip": "ym2612"
    },
    {
      "channel": 0,
      "note": 78,
      "start": 11.0859,
      "duration": 0.1022,
      "velocity": 100,
      "chip": "ym2612"
    },
    {
      "channel": 4,
      "note": 74,
      "start": 11.128,
      "duration": 0.1021,
      "velocity": 100,
      "chip": "ym2612"
    },
    {
      "channel": 0,
      "note": 79,
      "start": 11.2088,
      "duration": 0.1021,
      "velocity": 100,
      "chip": "ym2612"
    },
    {
      "channel": 4,
      "note": 76,
      "start": 11.2508,
      "duration": 0.1024,
      "velocity": 100,
      "chip": "ym2612"
    },
    {
      "channel": 0,
      "note": 81,
      "start": 11.3316,
      "duration": 0.9616,
      "velocity": 100,
      "chip": "ym2612"
    },
    {
      "channel": 1,
      "note": 50,
      "start": 11.3321,
      "duration": 0.4703,
      "velocity": 98,
      "chip": "ym2612"
    },
    {
      "channel": 2,
      "note": 66,
      "start": 11.3326,
      "duration": 0.3471,
      "velocity": 95,
      "chip": "ym2612"
    },
    {
      "channel": 3,
      "note": 47,
      "start": 11.3333,
      "duration": 0.0001,
      "velocity": 127,
      "chip": "ym2612"
    },
    {
      "channel": 3,
      "note": 49,
      "start": 11.3527,
      "duration": 0.4502,
      "velocity": 127,
      "chip": "ym2612"
    },
    {
      "channel": 4,
      "note": 78,
      "start": 11.3736,
      "duration": 0.102,
      "velocity": 100,
      "chip": "ym2612"
    },
    {
      "channel": 4,
      "note": 79,
      "start": 11.4963,
      "duration": 0.9616,
      "velocity": 100,
      "chip": "ym2612"
    },
    {
      "channel": 2,
      "note": 62,
      "start": 11.7004,
      "duration": 0.1022,
      "velocity": 95,
      "chip": "ym2612"
    },
    {
      "channel": 1,
      "note": 49,
      "start": 11.823,
      "duration": 0.4705,
      "velocity": 98,
      "chip": "ym2612"
    },
    {
      "channel": 2,
      "note": 66,
      "start": 11.8236,
      "duration": 0.0812,
      "velocity": 95,
      "chip": "ym2612"
    },
    {
      "channel": 3,
      "note": 47,
      "start": 11.8242,
      "duration": 0.0001,
      "velocity": 127,
      "chip": "ym2612"
    },
    {
      "channel": 3,
      "note": 49,
      "start": 11.844,
      "duration": 0.4501,
      "velocity": 127,
      "chip": "ym2612"
    },
    {
      "channel": 2,
      "note": 69,
      "start": 12.0688,
      "duration": 0.0816,
      "velocity": 95,
      "chip": "ym2612"
    },
    {
      "channel": 0,
      "note": 78,
      "start": 12.3139,
      "duration": 0.3477,
      "velocity": 100,
      "chip": "ym2612"
    },
    {
      "channel": 1,
      "note": 47,
      "start": 12.3144,
      "duration": 0.4702,
      "velocity": 98,
      "chip": "ym2612"
    },
    {
      "channel": 2,
      "note": 74,
      "start": 12.315,
      "duration": 0.9611,
      "velocity": 95,
      "chip": "ym2612"
    },
    {
      "channel": 3,
      "note": 47,
      "start": 12.3156,
      "duration": 0.0001,
      "velocity": 127,
      "chip": "ym2612"
    },
    {
      "channel": 3,
      "note": 49,
      "start": 12.3351,
      "duration": 0.4501,
      "velocity": 127,
      "chip": "ym2612"
    },
    {
      "channel": 4,
      "note": 81,
      "start": 12.4786,
      "duration": 0.348,
      "velocity": 100,
      "chip": "ym2612"
    },
    {
      "channel": 0,
      "note": 74,
      "start": 12.6823,
      "duration": 0.1021,
      "velocity": 100,
      "chip": "ym2612"
    },
    {
      "channel": 0,
      "note": 74,
      "start": 12.8051,
      "duration": 0.1021,
      "velocity": 100,
      "chip": "ym2612"
    },
    {
      "channel": 1,
      "note": 45,
      "start": 12.8055,
      "duration": 0.4703,
      "velocity": 98,
      "chip": "ym2612"
    },
    {
      "channel": 3,
      "note": 47,
      "start": 12.8064,
      "duration": 0.0001,
      "velocity": 127,
      "chip": "ym2612"
    },
    {
      "channel": 3,
      "note": 49,
      "start": 12.8263,
      "duration": 0.4501,
      "velocity": 127,
      "chip": "ym2612"
    },
    {
      "channel": 4,
      "note": 78,
      "start": 12.8471,
      "duration": 0.102,
      "velocity": 100,
      "chip": "ym2612"
    },
    {
      "channel": 0,
      "note": 76,
      "start": 12.9279,
      "duration": 0.1021,
      "velocity": 100,
      "chip": "ym2612"
    },
    {
      "channel": 4,
      "note": 74,
      "start": 12.9699,
      "duration": 0.102,
      "velocity": 100,
      "chip": "ym2612"
    },
    {
      "channel": 0,
      "note": 78,
      "start": 13.0506,
      "duration": 0.1021,
      "velocity": 100,
      "chip": "ym2612"
    },
    {
      "channel": 4,
      "note": 74,
      "start": 13.0926,
      "duration": 0.1022,
      "velocity": 100,
      "chip": "ym2612"
    },
    {
      "channel": 0,
      "note": 79,
      "start": 13.1735,
      "duration": 0.1021,
      "velocity": 100,
      "chip": "ym2612"
    },
    {
      "channel": 4,
      "note": 76,
      "start": 13.2154,
      "duration": 0.1024,
      "velocity": 100,
      "chip": "ym2612"
    },
    {
      "channel": 0,
      "note": 81,
      "start": 13.2963,
      "duration": 0.3067,
      "velocity": 100,
      "chip": "ym2612"
    },
    {
      "channel": 1,
      "note": 50,
      "start": 13.297,
      "duration": 0.47,
      "velocity": 98,
      "chip": "ym2612"
    },
    {
      "channel": 2,
      "note": 78,
      "start": 13.3008,
      "duration": 0.3027,
      "velocity": 100,
      "chip": "ym2612"
    },
    {
      "channel": 3,
      "note": 47,
      "start": 13.3015,
      "duration": 0.0001,
      "velocity": 127,
      "chip": "ym2612"
    },
    {
      "channel": 3,
      "note": 49,
      "start": 13.3174,
      "duration": 0.4501,
      "velocity": 127,
      "chip": "ym2612"
    },
    {
      "channel": 4,
      "note": 78,
      "start": 13.3382,
      "duration": 0.1021,
      "velocity": 100,
      "chip": "ym2612"
    },
    {
      "channel": 4,
      "note": 79,
      "start": 13.4611,
      "duration": 0.3068,
      "velocity": 100,
      "chip": "ym2612"
    },
    {
      "channel": 0,
      "note": 86,
      "start": 13.7873,
      "duration": 0.3068,
      "velocity": 100,
      "chip": "ym2612"
    },
    {
      "channel": 1,
      "note": 50,
      "start": 13.7879,
      "duration": 0.4703,
      "velocity": 98,
      "chip": "ym2612"
    },
    {
      "channel": 2,
      "note": 78,
      "start": 13.7884,
      "duration": 0.3062,
      "velocity": 100,
      "chip": "ym2612"
    },
    {
      "channel": 3,
      "note": 47,
      "start": 13.7889,
      "duration": 0.0001,
      "velocity": 127,
      "chip": "ym2612"
    },
    {
      "channel": 3,
      "note": 49,
      "start": 13.8085,
      "duration": 0.4502,
      "velocity": 127,
      "chip": "ym2612"
    },
    {
      "channel": 4,
      "note": 81,
      "start": 13.9521,
      "duration": 0.307,
      "velocity": 100,
      "chip": "ym2612"
    },
    {
      "channel": 0,
      "note": 85,
      "start": 14.2785,
      "duration": 0.3068,
      "velocity": 100,
      "chip": "ym2612"
    },
    {
      "channel": 1,
      "note": 54,
      "start": 14.279,
      "duration": 0.4702,
      "velocity": 98,
      "chip": "ym2612"
    },
    {
      "channel": 2,
      "note": 76,
      "start": 14.2795,
      "duration": 0.3062,
      "velocity": 100,
      "chip": "ym2612"
    },
    {
      "channel": 3,
      "note": 47,
      "start": 14.2801,
      "duration": 0.0001,
      "velocity": 127,
      "chip": "ym2612"
    },
    {
      "channel": 3,
      "note": 49,
      "start": 14.2998,
      "duration": 0.4501,
      "velocity": 127,
      "chip": "ym2612"
    },
    {
      "channel": 4,
      "note": 86,
      "start": 14.4433,
      "duration": 0.3069,
      "velocity": 100,
      "chip": "ym2612"
    },
    {
      "channel": 0,
      "note": 86,
      "start": 14.7697,
      "duration": 0.3068,
      "velocity": 100,
      "chip": "ym2612"
    },
    {
      "channel": 1,
      "note": 50,
      "start": 14.7702,
      "duration": 0.4703,
      "velocity": 98,
      "chip": "ym2612"
    },
    {
      "channel": 2,
      "note": 78,
      "start": 14.7707,
      "duration": 0.3062,
      "velocity": 100,
      "chip": "ym2612"
    },
    {
      "channel": 3,
      "note": 47,
      "start": 14.7712,
      "duration": 0.0001,
      "velocity": 127,
      "chip": "ym2612"
    },
    {
      "channel": 3,
      "note": 49,
      "start": 14.791,
      "duration": 0.4501,
      "velocity": 127,
      "chip": "ym2612"
    },
    {
      "channel": 4,
      "note": 85,
      "start": 14.9344,
      "duration": 0.307,
      "velocity": 100,
      "chip": "ym2612"
    },
    {
      "channel": 0,
      "note": 83,
      "start": 15.2609,
      "duration": 0.3476,
      "velocity": 100,
      "chip": "ym2612"
    },
    {
      "channel": 1,
      "note": 43,
      "start": 15.2614,
      "duration": 0.4702,
      "velocity": 98,
      "chip": "ym2612"
    },
    {
      "channel": 2,
      "note": 79,
      "start": 15.262,
      "duration": 0.3469,
      "velocity": 100,
      "chip": "ym2612"
    },
    {
      "channel": 3,
      "note": 47,
      "start": 15.2627,
      "duration": 0.0001,
      "velocity": 127,
      "chip": "ym2612"
    },
    {
      "channel": 3,
      "note": 49,
      "start": 15.2821,
      "duration": 0.4501,
      "velocity": 127,
      "chip": "ym2612"
    },
    {
      "channel": 4,
      "note": 86,
      "start": 15.4256,
      "duration": 0.348,
      "velocity": 100,
      "chip": "ym2612"
    },
    {
      "channel": 0,
      "note": 81,
      "start": 15.6292,
      "duration": 0.1021,
      "velocity": 100,
      "chip": "ym2612"
    },
    {
      "channel": 2,
      "note": 78,
      "start": 15.6299,
      "duration": 0.102,
      "velocity": 100,
      "chip": "ym2612"
    },
    {
      "channel": 0,
      "note": 79,
      "start": 15.7521,
      "duration": 0.0815,
      "velocity": 100,
      "chip": "ym2612"
    },
    {
      "channel": 1,
      "note": 43,
      "start": 15.7526,
      "duration": 0.4701,
      "velocity": 98,
      "chip": "ym2612"
    },
    {
      "channel": 2,
      "note": 76,
      "start": 15.7532,
      "duration": 0.0809,
      "velocity": 100,
      "chip": "ym2612"
    },
    {
      "channel": 3,
      "note": 47,
      "start": 15.7538,
      "duration": 0.0001,
      "velocity": 127,
      "chip": "ym2612"
    },
    {
      "channel": 3,
      "note": 49,
      "start": 15.7732,
      "duration": 0.4501,
      "velocity": 127,
      "chip": "ym2612"
    },
    {
      "channel": 4,
      "note": 83,
      "start": 15.7939,
      "duration": 0.1022,
      "velocity": 100,
      "chip": "ym2612"
    },
    {
      "channel": 4,
      "note": 81,
      "start": 15.9169,
      "duration": 0.0821,
      "velocity": 100,
      "chip": "ym2612"
    },
    {
      "channel": 0,
      "note": 78,
      "start": 15.9976,
      "duration": 0.0816,
      "velocity": 100,
      "chip": "ym2612"
    },
    {
      "channel": 2,
      "note": 74,
      "start": 15.9983,
      "duration": 0.0814,
      "velocity": 100,
      "chip": "ym2612"
    },
    {
      "channel": 4,
      "note": 79,
      "start": 16.1623,
      "duration": 0.0829,
      "velocity": 100,
      "chip": "ym2612"
    },
    {
      "channel": 0,
      "note": 76,
      "start": 16.2431,
      "duration": 0.0817,
      "velocity": 100,
      "chip": "ym2612"
    },
    {
      "channel": 1,
      "note": 45,
      "start": 16.2437,
      "duration": 0.2246,
      "velocity": 98,
      "chip": "ym2612"
    },
    {
      "channel": 2,
      "note": 73,
      "start": 16.2441,
      "duration": 0.0811,
      "velocity": 100,
      "chip": "ym2612"
    },
    {
      "channel": 3,
      "note": 47,
      "start": 16.2447,
      "duration": 0.0001,
      "velocity": 127,
      "chip": "ym2612"
    },
    {
      "channel": 3,
      "note": 49,
      "start": 16.2644,
      "duration": 0.45,
      "velocity": 127,
      "chip": "ym2612"
    },
    {
      "channel": 4,
      "note": 78,
      "start": 16.408,
      "duration": 0.0825,
      "velocity": 100,
      "chip": "ym2612"
    },
    {
      "channel": 0,
      "note": 78,
      "start": 16.4888,
      "duration": 0.0816,
      "velocity": 100,
      "chip": "ym2612"
    },
    {
      "channel": 1,
      "note": 45,
      "start": 16.4893,
      "duration": 0.2246,
      "velocity": 98,
      "chip": "ym2612"
    },
    {
      "channel": 2,
      "note": 74,
      "start": 16.4898,
      "duration": 0.081,
      "velocity": 100,
      "chip": "ym2612"
    },
    {
      "channel": 4,
      "note": 76,
      "start": 16.6534,
      "duration": 0.0829,
      "velocity": 100,
      "chip": "ym2612"
    },
    {
      "channel": 0,
      "note": 79,
      "start": 16.7343,
      "duration": 0.0817,
      "velocity": 100,
      "chip": "ym2612"
    },
    {
      "channel": 1,
      "note": 47,
      "start": 16.7348,
      "duration": 0.2246,
      "velocity": 98,
      "chip": "ym2612"
    },
    {
      "channel": 2,
      "note": 76,
      "start": 16.7353,
      "duration": 0.0812,
      "velocity": 100,
      "chip": "ym2612"
    },
    {
      "channel": 3,
      "note": 47,
      "start": 16.7359,
      "duration": 0.0001,
      "velocity": 127,
      "chip": "ym2612"
    },
    {
      "channel": 3,
      "note": 49,
      "start": 16.7555,
      "duration": 0.45,
      "velocity": 127,
      "chip": "ym2612"
    },
    {
      "channel": 4,
      "note": 78,
      "start": 16.899,
      "duration": 0.0825,
      "velocity": 100,
      "chip": "ym2612"
    },
    {
      "channel": 0,
      "note": 76,
      "start": 16.9799,
      "duration": 0.0816,
      "velocity": 100,
      "chip": "ym2612"
    },
    {
      "channel": 1,
      "note": 49,
      "start": 16.9804,
      "duration": 0.2246,
      "velocity": 98,
      "chip": "ym2612"
    },
    {
      "channel": 2,
      "note": 73,
      "start": 16.9809,
      "duration": 0.0812,
      "velocity": 100,
      "chip": "ym2612"
    },
    {
      "channel": 4,
      "note": 79,
      "start": 17.1446,
      "duration": 0.0867,
      "velocity": 100,
      "chip": "ym2612"
    },
    {
      "channel": 0,
      "note": 78,
      "start": 17.2256,
      "duration": 0.9615,
      "velocity": 100,
      "chip": "ym2612"
    },
    {
      "channel": 1,
      "note": 50,
      "start": 17.2262,
      "duration": 0.47,
      "velocity": 98,
      "chip": "ym2612"
    },
    {
      "channel": 2,
      "note": 62,
      "start": 17.2301,
      "duration": 0.3436,
      "velocity": 95,
      "chip": "ym2612"
    },
    {
      "channel": 3,
      "note": 47,
      "start": 17.2308,
      "duration": 0.0001,
      "velocity": 127,
      "chip": "ym2612"
    },
    {
      "channel": 3,
      "note": 49,
      "start": 17.2467,
      "duration": 0.4501,
      "velocity": 127,
      "chip": "ym2612"
    },
    {
      "channel": 4,
      "note": 76,
      "start": 17.3903,
      "duration": 0.9615,
      "velocity": 100,
      "chip": "ym2612"
    },
    {
      "channel": 2,
      "note": 57,
      "start": 17.5942,
      "duration": 0.1022,
      "velocity": 95,
      "chip": "ym2612"
    },
    {
      "channel": 1,
      "note": 49,
      "start": 17.7169,
      "duration": 0.4705,
      "velocity": 98,
      "chip": "ym2612"
    },
    {
      "channel": 2,
      "note": 62,
      "start": 17.7174,
      "duration": 0.0813,
      "velocity": 95,
      "chip": "ym2612"
    },
    {
      "channel": 3,
      "note": 47,
      "start": 17.7181,
      "duration": 0.0001,
      "velocity": 127,
      "chip": "ym2612"
    },
    {
      "channel": 3,
      "note": 49,
      "start": 17.7379,
      "duration": 0.4501,
      "velocity": 127,
      "chip": "ym2612"
    },
    {
      "channel": 2,
      "note": 64,
      "start": 17.9627,
      "duration": 0.0817,
      "velocity": 95,
      "chip": "ym2612"
    },
    {
      "channel": 0,
      "note": 74,
      "start": 18.2078,
      "duration": 0.3477,
      "velocity": 100,
      "chip": "ym2612"
    },
    {
      "channel": 1,
      "note": 47,
      "start": 18.2083,
      "duration": 0.4702,
      "velocity": 98,
      "chip": "ym2612"
    },
    {
      "channel": 2,
      "note": 66,
      "start": 18.2088,
      "duration": 0.9611,
      "velocity": 95,
      "chip": "ym2612"
    },
    {
      "channel": 3,
      "note": 47,
      "start": 18.2095,
      "duration": 0.0001,
      "velocity": 127,
      "chip": "ym2612"
    },
    {
      "channel": 3,
      "note": 49,
      "start": 18.229,
      "duration": 0.45,
      "velocity": 127,
      "chip": "ym2612"
    },
    {
      "channel": 4,
      "note": 78,
      "start": 18.3725,
      "duration": 0.348,
      "velocity": 100,
      "chip": "ym2612"
    },
    {
      "channel": 0,
      "note": 69,
      "start": 18.5762,
      "duration": 0.102,
      "velocity": 100,
      "chip": "ym2612"
    },
    {
      "channel": 0,
      "note": 74,
      "start": 18.699,
      "duration": 0.1021,
      "velocity": 100,
      "chip": "ym2612"
    },
    {
      "channel": 1,
      "note": 45,
      "start": 18.6994,
      "duration": 0.4703,
      "velocity": 98,
      "chip": "ym2612"
    },
    {
      "channel": 3,
      "note": 47,
      "start": 18.7003,
      "duration": 0.0001,
      "velocity": 127,
      "chip": "ym2612"
    },
    {
      "channel": 3,
      "note": 49,
      "start": 18.7202,
      "duration": 0.4502,
      "velocity": 127,
      "chip": "ym2612"
    },
    {
      "channel": 4,
      "note": 74,
      "start": 18.741,
      "duration": 0.102,
      "velocity": 100,
      "chip": "ym2612"
    },
    {
      "channel": 0,
      "note": 76,
      "start": 18.8217,
      "duration": 0.1022,
      "velocity": 100,
      "chip": "ym2612"
    },
    {
      "channel": 4,
      "note": 69,
      "start": 18.8637,
      "duration": 0.1021,
      "velocity": 100,
      "chip": "ym2612"
    },
    {
      "channel": 0,
      "note": 78,
      "start": 18.9445,
      "duration": 0.1021,
      "velocity": 100,
      "chip": "ym2612"
    },
    {
      "channel": 4,
      "note": 74,
      "start": 18.9865,
      "duration": 0.1022,
      "velocity": 100,
      "chip": "ym2612"
    },
    {
      "channel": 0,
      "note": 79,
      "start": 19.0673,
      "duration": 0.1022,
      "velocity": 100,
      "chip": "ym2612"
    },
    {
      "channel": 4,
      "note": 76,
      "start": 19.1093,
      "duration": 0.1024,
      "velocity": 100,
      "chip": "ym2612"
    },
    {
      "channel": 0,
      "note": 81,
      "start": 19.1902,
      "duration": 0.9616,
      "velocity": 100,
      "chip": "ym2612"
    },
    {
      "channel": 1,
      "note": 50,
      "start": 19.1907,
      "duration": 0.4702,
      "velocity": 98,
      "chip": "ym2612"
    },
    {
      "channel": 2,
      "note": 66,
      "start": 19.1912,
      "duration": 0.347,
      "velocity": 95,
      "chip": "ym2612"
    },
    {
      "channel": 3,
      "note": 47,
      "start": 19.192,
      "duration": 0.0001,
      "velocity": 127,
      "chip": "ym2612"
    },
    {
      "channel": 3,
      "note": 49,
      "start": 19.2113,
      "duration": 0.4501,
      "velocity": 127,
      "chip": "ym2612"
    },
    {
      "channel": 4,
      "note": 78,
      "start": 19.2321,
      "duration": 0.1021,
      "velocity": 100,
      "chip": "ym2612"
    },
    {
      "channel": 4,
      "note": 79,
      "start": 19.3549,
      "duration": 0.9616,
      "velocity": 100,
      "chip": "ym2612"
    },
    {
      "channel": 2,
      "note": 62,
      "start": 19.5588,
      "duration": 0.1022,
      "velocity": 95,
      "chip": "ym2612"
    },
    {
      "channel": 1,
      "note": 49,
      "start": 19.6815,
      "duration": 0.4705,
      "velocity": 98,
      "chip": "ym2612"
    },
    {
      "channel": 2,
      "note": 66,
      "start": 19.6821,
      "duration": 0.0813,
      "velocity": 95,
      "chip": "ym2612"
    },
    {
      "channel": 3,
      "note": 47,
      "start": 19.6827,
      "duration": 0.0001,
      "velocity": 127,
      "chip": "ym2612"
    },
    {
      "channel": 3,
      "note": 49,
      "start": 19.7025,
      "duration": 0.4501,
      "velocity": 127,
      "chip": "ym2612"
    },
    {
      "channel": 2,
      "note": 69,
      "start": 19.9273,
      "duration": 0.0817,
      "velocity": 95,
      "chip": "ym2612"
    },
    {
      "channel": 0,
      "note": 78,
      "start": 20.1725,
      "duration": 0.3476,
      "velocity": 100,
      "chip": "ym2612"
    },
    {
      "channel": 1,
      "note": 47,
      "start": 20.1729,
      "duration": 0.4703,
      "velocity": 98,
      "chip": "ym2612"
    },
    {
      "channel": 2,
      "note": 74,
      "start": 20.1735,
      "duration": 0.9611,
      "velocity": 95,
      "chip": "ym2612"
    },
    {
      "channel": 3,
      "note": 47,
      "start": 20.1742,
      "duration": 0.0001,
      "velocity": 127,
      "chip": "ym2612"
    },
    {
      "channel": 3,
      "note": 49,
      "start": 20.1936,
      "duration": 0.4502,
      "velocity": 127,
      "chip": "ym2612"
    },
    {
      "channel": 4,
      "note": 81,
      "start": 20.3372,
      "duration": 0.3481,
      "velocity": 100,
      "chip": "ym2612"
    },
    {
      "channel": 0,
      "note": 74,
      "start": 20.5408,
      "duration": 0.1022,
      "velocity": 100,
      "chip": "ym2612"
    },
    {
      "channel": 0,
      "note": 74,
      "start": 20.6636,
      "duration": 0.1022,
      "velocity": 100,
      "chip": "ym2612"
    },
    {
      "channel": 1,
      "note": 45,
      "start": 20.6641,
      "duration": 0.4703,
      "velocity": 98,
      "chip": "ym2612"
    },
    {
      "channel": 3,
      "note": 47,
      "start": 20.6649,
      "duration": 0.0001,
      "velocity": 127,
      "chip": "ym2612"
    },
    {
      "channel": 3,
      "note": 49,
      "start": 20.6848,
      "duration": 0.4502,
      "velocity": 127,
      "chip": "ym2612"
    },
    {
      "channel": 4,
      "note": 78,
      "start": 20.7055,
      "duration": 0.1022,
      "velocity": 100,
      "chip": "ym2612"
    },
    {
      "channel": 0,
      "note": 76,
      "start": 20.7864,
      "duration": 0.1021,
      "velocity": 100,
      "chip": "ym2612"
    },
    {
      "channel": 4,
      "note": 74,
      "start": 20.8284,
      "duration": 0.102,
      "velocity": 100,
      "chip": "ym2612"
    },
    {
      "channel": 0,
      "note": 78,
      "start": 20.9092,
      "duration": 0.1021,
      "velocity": 100,
      "chip": "ym2612"
    },
    {
      "channel": 4,
      "note": 74,
      "start": 20.9511,
      "duration": 0.1022,
      "velocity": 100,
      "chip": "ym2612"
    },
    {
      "channel": 0,
      "note": 79,
      "start": 21.032,
      "duration": 0.1022,
      "velocity": 100,
      "chip": "ym2612"
    },
    {
      "channel": 4,
      "note": 76,
      "start": 21.074,
      "duration": 0.1024,
      "velocity": 100,
      "chip": "ym2612"
    },
    {
      "channel": 0,
      "note": 81,
      "start": 21.1549,
      "duration": 0.3067,
      "velocity": 100,
      "chip": "ym2612"
    },
    {
      "channel": 1,
      "note": 50,
      "start": 21.1559,
      "duration": 0.4696,
      "velocity": 98,
      "chip": "ym2612"
    },
    {
      "channel": 2,
      "note": 78,
      "start": 21.1598,
      "duration": 0.3022,
      "velocity": 100,
      "chip": "ym2612"
    },
    {
      "channel": 3,
      "note": 47,
      "start": 21.1605,
      "duration": 0.0001,
      "velocity": 127,
      "chip": "ym2612"
    },
    {
      "channel": 3,
      "note": 49,
      "start": 21.176,
      "duration": 0.4501,
      "velocity": 127,
      "chip": "ym2612"
    },
    {
      "channel": 4,
      "note": 78,
      "start": 21.1967,
      "duration": 0.1021,
      "velocity": 100,
      "chip": "ym2612"
    },
    {
      "channel": 4,
      "note": 79,
      "start": 21.3196,
      "duration": 0.3068,
      "velocity": 100,
      "chip": "ym2612"
    },
    {
      "channel": 0,
      "note": 86,
      "start": 21.6459,
      "duration": 0.3068,
      "velocity": 100,
      "chip": "ym2612"
    },
    {
      "channel": 1,
      "note": 47,
      "start": 21.6464,
      "duration": 0.4702,
      "velocity": 98,
      "chip": "ym2612"
    },
    {
      "channel": 2,
      "note": 78,
      "start": 21.6469,
      "duration": 0.3062,
      "velocity": 100,
      "chip": "ym2612"
    },
    {
      "channel": 3,
      "note": 47,
      "start": 21.6475,
      "duration": 0.0001,
      "velocity": 127,
      "chip": "ym2612"
    },
    {
      "channel": 3,
      "note": 49,
      "start": 21.6671,
      "duration": 0.4501,
      "velocity": 127,
      "chip": "ym2612"
    },
    {
      "channel": 4,
      "note": 81,
      "start": 21.8106,
      "duration": 0.3069,
      "velocity": 100,
      "chip": "ym2612"
    },
    {
      "channel": 0,
      "note": 85,
      "start": 22.137,
      "duration": 0.3068,
      "velocity": 100,
      "chip": "ym2612"
    },
    {
      "channel": 1,
      "note": 45,
      "start": 22.1376,
      "duration": 0.4703,
      "velocity": 98,
      "chip": "ym2612"
    },
    {
      "channel": 2,
      "note": 76,
      "start": 22.138,
      "duration": 0.3063,
      "velocity": 100,
      "chip": "ym2612"
    },
    {
      "channel": 3,
      "note": 47,
      "start": 22.1386,
      "duration": 0.0001,
      "velocity": 127,
      "chip": "ym2612"
    },
    {
      "channel": 3,
      "note": 49,
      "start": 22.1583,
      "duration": 0.4501,
      "velocity": 127,
      "chip": "ym2612"
    },
    {
      "channel": 4,
      "note": 86,
      "start": 22.3018,
      "duration": 0.307,
      "velocity": 100,
      "chip": "ym2612"
    },
    {
      "channel": 0,
      "note": 86,
      "start": 22.6282,
      "duration": 0.3068,
      "velocity": 100,
      "chip": "ym2612"
    },
    {
      "channel": 1,
      "note": 50,
      "start": 22.6287,
      "duration": 0.4702,
      "velocity": 98,
      "chip": "ym2612"
    },
    {
      "channel": 2,
      "note": 78,
      "start": 22.6292,
      "duration": 0.3063,
      "velocity": 100,
      "chip": "ym2612"
    },
    {
      "channel": 3,
      "note": 47,
      "start": 22.6298,
      "duration": 0.0001,
      "velocity": 127,
      "chip": "ym2612"
    },
    {
      "channel": 3,
      "note": 49,
      "start": 22.6494,
      "duration": 0.4501,
      "velocity": 127,
      "chip": "ym2612"
    },
    {
      "channel": 4,
      "note": 85,
      "start": 22.7929,
      "duration": 0.3069,
      "velocity": 100,
      "chip": "ym2612"
    },
    {
      "channel": 0,
      "note": 88,
      "start": 23.1194,
      "duration": 0.2249,
      "velocity": 100,
      "chip": "ym2612"
    },
    {
      "channel": 1,
      "note": 43,
      "start": 23.1199,
      "duration": 0.4702,
      "velocity": 98,
      "chip": "ym2612"
    },
    {
      "channel": 2,
      "note": 79,
      "start": 23.1205,
      "duration": 0.2242,
      "velocity": 100,
      "chip": "ym2612"
    },
    {
      "channel": 3,
      "note": 47,
      "start": 23.1214,
      "duration": 0.0001,
      "velocity": 127,
      "chip": "ym2612"
    },
    {
      "channel": 3,
      "note": 49,
      "start": 23.1406,
      "duration": 0.4501,
      "velocity": 127,
      "chip": "ym2612"
    },
    {
      "channel": 4,
      "note": 86,
      "start": 23.2842,
      "duration": 0.2249,
      "velocity": 100,
      "chip": "ym2612"
    },
    {
      "channel": 0,
      "note": 81,
      "start": 23.365,
      "duration": 0.1021,
      "velocity": 100,
      "chip": "ym2612"
    },
    {
      "channel": 2,
      "note": 69,
      "start": 23.3656,
      "duration": 0.1019,
      "velocity": 100,
      "chip": "ym2612"
    },
    {
      "channel": 0,
      "note": 81,
      "start": 23.4877,
      "duration": 0.1021,
      "velocity": 100,
      "chip": "ym2612"
    },
    {
      "channel": 2,
      "note": 69,
      "start": 23.4885,
      "duration": 0.1019,
      "velocity": 100,
      "chip": "ym2612"
    },
    {
      "channel": 4,
      "note": 88,
      "start": 23.5297,
      "duration": 0.1025,
      "velocity": 100,
      "chip": "ym2612"
    },
    {
      "channel": 0,
      "note": 90,
      "start": 23.6106,
      "duration": 0.0816,
      "velocity": 100,
      "chip": "ym2612"
    },
    {
      "channel": 1,
      "note": 45,
      "start": 23.6111,
      "duration": 0.4702,
      "velocity": 98,
      "chip": "ym2612"
    },
    {
      "channel": 2,
      "note": 71,
      "start": 23.6117,
      "duration": 0.0809,
      "velocity": 100,
      "chip": "ym2612"
    },
    {
      "channel": 3,
      "note": 47,
      "start": 23.6123,
      "duration": 0.0001,
      "velocity": 127,
      "chip": "ym2612"
    },
    {
      "channel": 3,
      "note": 49,
      "start": 23.6317,
      "duration": 0.4501,
      "velocity": 127,
      "chip": "ym2612"
    },
    {
      "channel": 4,
      "note": 81,
      "start": 23.6525,
      "duration": 0.1021,
      "velocity": 100,
      "chip": "ym2612"
    },
    {
      "channel": 4,
      "note": 81,
      "start": 23.7754,
      "duration": 0.0821,
      "velocity": 100,
      "chip": "ym2612"
    },
    {
      "channel": 0,
      "note": 88,
      "start": 23.8561,
      "duration": 0.0816,
      "velocity": 100,
      "chip": "ym2612"
    },
    {
      "channel": 2,
      "note": 73,
      "start": 23.8569,
      "duration": 0.0813,
      "velocity": 100,
      "chip": "ym2612"
    },
    {
      "channel": 4,
      "note": 90,
      "start": 24.0208,
      "duration": 0.0829,
      "velocity": 100,
      "chip": "ym2612"
    },
    {
      "channel": 0,
      "note": 86,
      "start": 24.1017,
      "duration": 0.0817,
      "velocity": 100,
      "chip": "ym2612"
    },
    {
      "channel": 1,
      "note": 50,
      "start": 24.1022,
      "duration": 0.2754,
      "velocity": 98,
      "chip": "ym2612"
    },
    {
      "channel": 2,
      "note": 74,
      "start": 24.1026,
      "duration": 0.0812,
      "velocity": 100,
      "chip": "ym2612"
    },
    {
      "channel": 3,
      "note": 47,
      "start": 24.1032,
      "duration": 0.0001,
      "velocity": 127,
      "chip": "ym2612"
    },
    {
      "channel": 3,
      "note": 49,
      "start": 24.1228,
      "duration": 0.2045,
      "velocity": 127,
      "chip": "ym2612"
    },
    {
      "channel": 4,
      "note": 88,
      "start": 24.2664,
      "duration": 0.0828,
      "velocity": 100,
      "chip": "ym2612"
    },
    {
      "channel": 0,
      "note": 74,
      "start": 24.3474,
      "duration": 0.0135,
      "velocity": 100,
      "chip": "ym2612"
    },
    {
      "channel": 2,
      "note": 66,
      "start": 24.3482,
      "duration": 0.0133,
      "velocity": 100,
      "chip": "ym2612"
    },
    {
      "channel": 3,
      "note": 47,
      "start": 24.3488,
      "duration": 0.0129,
      "velocity": 127,
      "chip": "ym2612"
    },
    {
      "channel": 0,
      "note": 74,
      "start": 24.3636,
      "duration": 0.0137,
      "velocity": 100,
      "chip": "ym2612"
    },
    {
      "channel": 2,
      "note": 66,
      "start": 24.3643,
      "duration": 0.0136,
      "velocity": 100,
      "chip": "ym2612"
    },
    {
      "channel": 3,
      "note": 47,
      "start": 24.3649,
      "duration": 0.0133,
      "velocity": 127,
      "chip": "ym2612"
    },
    {
      "channel": 4,
      "note": 86,
      "start": 24.3711,
      "duration": 0.0145,
      "velocity": 100,
      "chip": "ym2612"
    },
    {
      "channel": 0,
      "note": 74,
      "start": 24.3802,
      "duration": 0.0572,
      "velocity": 100,
      "chip": "ym2612"
    },
    {
      "channel": 1,
      "note": 50,
      "start": 24.3807,
      "duration": 0.057,
      "velocity": 98,
      "chip": "ym2612"
    },
    {
      "channel": 2,
      "note": 66,
      "start": 24.3812,
      "duration": 0.0567,
      "velocity": 100,
      "chip": "ym2612"
    },
    {
      "channel": 3,
      "note": 47,
      "start": 24.3817,
      "duration": 0.0001,
      "velocity": 127,
      "chip": "ym2612"
    },
    {
      "channel": 3,
      "note": 49,
      "start": 24.3852,
      "duration": 0.0531,
      "velocity": 127,
      "chip": "ym2612"
    },
    {
      "channel": 4,
      "note": 74,
      "start": 24.3883,
      "duration": 0.0119,
      "velocity": 100,
      "chip": "ym2612"
    },
    {
      "channel": 4,
      "note": 74,
      "start": 24.4029,
      "duration": 0.1815,
      "velocity": 100,
      "chip": "ym2612"
    },
    {
      "channel": 0,
      "note": 78,
      "start": 24.4404,
      "duration": 0.9615,
      "velocity": 100,
      "chip": "ym2612"
    },
    {
      "channel": 1,
      "note": 50,
      "start": 24.4412,
      "duration": 0.4698,
      "velocity": 98,
      "chip": "ym2612"
    },
    {
      "channel": 2,
      "note": 62,
      "start": 24.445,
      "duration": 0.3434,
      "velocity": 95,
      "chip": "ym2612"
    },
    {
      "channel": 3,
      "note": 47,
      "start": 24.4459,
      "duration": 0.0001,
      "velocity": 127,
      "chip": "ym2612"
    },
    {
      "channel": 3,
      "note": 49,
      "start": 24.4615,
      "duration": 0.4501,
      "velocity": 127,
      "chip": "ym2612"
    },
    {
      "channel": 4,
      "note": 74,
      "start": 24.6051,
      "duration": 0.9615,
      "velocity": 100,
      "chip": "ym2612"
    },
    {
      "channel": 2,
      "note": 57,
      "start": 24.8091,
      "duration": 0.1022,
      "velocity": 95,
      "chip": "ym2612"
    },
    {
      "channel": 1,
      "note": 49,
      "start": 24.9317,
      "duration": 0.4705,
      "velocity": 98,
      "chip": "ym2612"
    },
    {
      "channel": 2,
      "note": 62,
      "start": 24.9322,
      "duration": 0.0814,
      "velocity": 95,
      "chip": "ym2612"
    },
    {
      "channel": 3,
      "note": 47,
      "start": 24.9329,
      "duration": 0.0001,
      "velocity": 127,
      "chip": "ym2612"
    },
    {
      "channel": 3,
      "note": 49,
      "start": 24.9527,
      "duration": 0.4501,
      "velocity": 127,
      "chip": "ym2612"
    },
    {
      "channel": 2,
      "note": 64,
      "start": 25.1775,
      "duration": 0.0817,
      "velocity": 95,
      "chip": "ym2612"
    },
    {
      "channel": 0,
      "note": 74,
      "start": 25.4226,
      "duration": 0.3477,
      "velocity": 100,
      "chip": "ym2612"
    },
    {
      "channel": 1,
      "note": 47,
      "start": 25.4231,
      "duration": 0.4702,
      "velocity": 98,
      "chip": "ym2612"
    },
    {
      "channel": 2,
      "note": 66,
      "start": 25.4237,
      "duration": 0.9611,
      "velocity": 95,
      "chip": "ym2612"
    },
    {
      "channel": 3,
      "note": 47,
      "start": 25.4243,
      "duration": 0.0001,
      "velocity": 127,
      "chip": "ym2612"
    },
    {
      "channel": 3,
      "note": 49,
      "start": 25.4438,
      "duration": 0.45,
      "velocity": 127,
      "chip": "ym2612"
    },
    {
      "channel": 4,
      "note": 78,
      "start": 25.5873,
      "duration": 0.348,
      "velocity": 100,
      "chip": "ym2612"
    },
    {
      "channel": 0,
      "note": 69,
      "start": 25.791,
      "duration": 0.1021,
      "velocity": 100,
      "chip": "ym2612"
    },
    {
      "channel": 0,
      "note": 74,
      "start": 25.9137,
      "duration": 0.1021,
      "velocity": 100,
      "chip": "ym2612"
    },
    {
      "channel": 1,
      "note": 45,
      "start": 25.9142,
      "duration": 0.4703,
      "velocity": 98,
      "chip": "ym2612"
    },
    {
      "channel": 3,
      "note": 47,
      "start": 25.9151,
      "duration": 0.0001,
      "velocity": 127,
      "chip": "ym2612"
    },
    {
      "channel": 3,
      "note": 49,
      "start": 25.935,
      "duration": 0.4502,
      "velocity": 127,
      "chip": "ym2612"
    },
    {
      "channel": 4,
      "note": 74,
      "start": 25.9558,
      "duration": 0.102,
      "velocity": 100,
      "chip": "ym2612"
    },
    {
      "channel": 0,
      "note": 76,
      "start": 26.0366,
      "duration": 0.1021,
      "velocity": 100,
      "chip": "ym2612"
    },
    {
      "channel": 4,
      "note": 69,
      "start": 26.0785,
      "duration": 0.1021,
      "velocity": 100,
      "chip": "ym2612"
    },
    {
      "channel": 0,
      "note": 78,
      "start": 26.1593,
      "duration": 0.1021,
      "velocity": 100,
      "chip": "ym2612"
    },
    {
      "channel": 4,
      "note": 74,
      "start": 26.2013,
      "duration": 0.1022,
      "velocity": 100,
      "chip": "ym2612"
    },
    {
      "channel": 0,
      "note": 79,
      "start": 26.2821,
      "duration": 0.1022,
      "velocity": 100,
      "chip": "ym2612"
    },
    {
      "channel": 4,
      "note": 76,
      "start": 26.3241,
      "duration": 0.1024,
      "velocity": 100,
      "chip": "ym2612"
    },
    {
      "channel": 0,
      "note": 81,
      "start": 26.4049,
      "duration": 0.9617,
      "velocity": 100,
      "chip": "ym2612"
    },
    {
      "channel": 1,
      "note": 50,
      "start": 26.4054,
      "duration": 0.4703,
      "velocity": 98,
      "chip": "ym2612"
    },
    {
      "channel": 2,
      "note": 66,
      "start": 26.4059,
      "duration": 0.3471,
      "velocity": 95,
      "chip": "ym2612"
    },
    {
      "channel": 3,
      "note": 47,
      "start": 26.4067,
      "duration": 0.0001,
      "velocity": 127,
      "chip": "ym2612"
    },
    {
      "channel": 3,
      "note": 49,
      "start": 26.4261,
      "duration": 0.4502,
      "velocity": 127,
      "chip": "ym2612"
    },
    {
      "channel": 4,
      "note": 78,
      "start": 26.4469,
      "duration": 0.102,
      "velocity": 100,
      "chip": "ym2612"
    },
    {
      "channel": 4,
      "note": 79,
      "start": 26.5696,
      "duration": 0.9617,
      "velocity": 100,
      "chip": "ym2612"
    },
    {
      "channel": 2,
      "note": 62,
      "start": 26.7737,
      "duration": 0.1022,
      "velocity": 95,
      "chip": "ym2612"
    },
    {
      "channel": 1,
      "note": 49,
      "start": 26.8964,
      "duration": 0.4705,
      "velocity": 98,
      "chip": "ym2612"
    },
    {
      "channel": 2,
      "note": 66,
      "start": 26.8969,
      "duration": 0.0812,
      "velocity": 95,
      "chip": "ym2612"
    },
    {
      "channel": 3,
      "note": 47,
      "start": 26.8975,
      "duration": 0.0001,
      "velocity": 127,
      "chip": "ym2612"
    },
    {
      "channel": 3,
      "note": 49,
      "start": 26.9173,
      "duration": 0.4501,
      "velocity": 127,
      "chip": "ym2612"
    },
    {
      "channel": 2,
      "note": 69,
      "start": 27.1421,
      "duration": 0.0817,
      "velocity": 95,
      "chip": "ym2612"
    },
    {
      "channel": 0,
      "note": 78,
      "start": 27.3873,
      "duration": 0.3476,
      "velocity": 100,
      "chip": "ym2612"
    },
    {
      "channel": 1,
      "note": 47,
      "start": 27.3877,
      "duration": 0.4702,
      "velocity": 98,
      "chip": "ym2612"
    },
    {
      "channel": 2,
      "note": 74,
      "start": 27.3883,
      "duration": 0.9611,
      "velocity": 95,
      "chip": "ym2612"
    },
    {
      "channel": 3,
      "note": 47,
      "start": 27.3889,
      "duration": 0.0001,
      "velocity": 127,
      "chip": "ym2612"
    },
    {
      "channel": 3,
      "note": 49,
      "start": 27.4085,
      "duration": 0.4501,
      "velocity": 127,
      "chip": "ym2612"
    },
    {
      "channel": 4,
      "note": 81,
      "start": 27.552,
      "duration": 0.3481,
      "velocity": 100,
      "chip": "ym2612"
    },
    {
      "channel": 0,
      "note": 74,
      "start": 27.7556,
      "duration": 0.1021,
      "velocity": 100,
      "chip": "ym2612"
    },
    {
      "channel": 0,
      "note": 74,
      "start": 27.8784,
      "duration": 0.1022,
      "velocity": 100,
      "chip": "ym2612"
    },
    {
      "channel": 1,
      "note": 45,
      "start": 27.8789,
      "duration": 0.4702,
      "velocity": 98,
      "chip": "ym2612"
    },
    {
      "channel": 3,
      "note": 47,
      "start": 27.8798,
      "duration": 0.0001,
      "velocity": 127,
      "chip": "ym2612"
    },
    {
      "channel": 3,
      "note": 49,
      "start": 27.8996,
      "duration": 0.4501,
      "velocity": 127,
      "chip": "ym2612"
    },
    {
      "channel": 4,
      "note": 78,
      "start": 27.9203,
      "duration": 0.1021,
      "velocity": 100,
      "chip": "ym2612"
    },
    {
      "channel": 0,
      "note": 76,
      "start": 28.0012,
      "duration": 0.1021,
      "velocity": 100,
      "chip": "ym2612"
    },
    {
      "channel": 4,
      "note": 74,
      "start": 28.0432,
      "duration": 0.102,
      "velocity": 100,
      "chip": "ym2612"
    },
    {
      "channel": 0,
      "note": 78,
      "start": 28.124,
      "duration": 0.1021,
      "velocity": 100,
      "chip": "ym2612"
    },
    {
      "channel": 4,
      "note": 74,
      "start": 28.166,
      "duration": 0.1022,
      "velocity": 100,
      "chip": "ym2612"
    },
    {
      "channel": 0,
      "note": 79,
      "start": 28.2468,
      "duration": 0.1021,
      "velocity": 100,
      "chip": "ym2612"
    },
    {
      "channel": 4,
      "note": 76,
      "start": 28.2887,
      "duration": 0.1024,
      "velocity": 100,
      "chip": "ym2612"
    },
    {
      "channel": 0,
      "note": 81,
      "start": 28.3696,
      "duration": 0.3067,
      "velocity": 100,
      "chip": "ym2612"
    },
    {
      "channel": 1,
      "note": 50,
      "start": 28.3702,
      "duration": 0.47,
      "velocity": 98,
      "chip": "ym2612"
    },
    {
      "channel": 2,
      "note": 78,
      "start": 28.3741,
      "duration": 0.3027,
      "velocity": 100,
      "chip": "ym2612"
    },
    {
      "channel": 3,
      "note": 47,
      "start": 28.3748,
      "duration": 0.0001,
      "velocity": 127,
      "chip": "ym2612"
    },
    {
      "channel": 3,
      "note": 49,
      "start": 28.3908,
      "duration": 0.4501,
      "velocity": 127,
      "chip": "ym2612"
    },
    {
      "channel": 4,
      "note": 78,
      "start": 28.4115,
      "duration": 0.1021,
      "velocity": 100,
      "chip": "ym2612"
    },
    {
      "channel": 4,
      "note": 79,
      "start": 28.5344,
      "duration": 0.3068,
      "velocity": 100,
      "chip": "ym2612"
    },
    {
      "channel": 0,
      "note": 86,
      "start": 28.8607,
      "duration": 0.3068,
      "velocity": 100,
      "chip": "ym2612"
    },
    {
      "channel": 1,
      "note": 50,
      "start": 28.8612,
      "duration": 0.4703,
      "velocity": 98,
      "chip": "ym2612"
    },
    {
      "channel": 2,
      "note": 78,
      "start": 28.8617,
      "duration": 0.3063,
      "velocity": 100,
      "chip": "ym2612"
    },
    {
      "channel": 3,
      "note": 47,
      "start": 28.8623,
      "duration": 0.0001,
      "velocity": 127,
      "chip": "ym2612"
    },
    {
      "channel": 3,
      "note": 49,
      "start": 28.8819,
      "duration": 0.4502,
      "velocity": 127,
      "chip": "ym2612"
    },
    {
      "channel": 4,
      "note": 81,
      "start": 29.0254,
      "duration": 0.307,
      "velocity": 100,
      "chip": "ym2612"
    },
    {
      "channel": 0,
      "note": 85,
      "start": 29.3518,
      "duration": 0.3068,
      "velocity": 100,
      "chip": "ym2612"
    },
    {
      "channel": 1,
      "note": 54,
      "start": 29.3523,
      "duration": 0.4702,
      "velocity": 98,
      "chip": "ym2612"
    },
    {
      "channel": 2,
      "note": 76,
      "start": 29.3529,
      "duration": 0.3063,
      "velocity": 100,
      "chip": "ym2612"
    },
    {
      "channel": 3,
      "note": 47,
      "start": 29.3534,
      "duration": 0.0001,
      "velocity": 127,
      "chip": "ym2612"
    },
    {
      "channel": 3,
      "note": 49,
      "start": 29.3731,
      "duration": 0.4501,
      "velocity": 127,
      "chip": "ym2612"
    },
    {
      "channel": 4,
      "note": 86,
      "start": 29.5166,
      "duration": 0.3069,
      "velocity": 100,
      "chip": "ym2612"
    },
    {
      "channel": 0,
      "note": 86,
      "start": 29.843,
      "duration": 0.3068,
      "velocity": 100,
      "chip": "ym2612"
    },
    {
      "channel": 1,
      "note": 50,
      "start": 29.8435,
      "duration": 0.4703,
      "velocity": 98,
      "chip": "ym2612"
    },
    {
      "channel": 2,
      "note": 78,
      "start": 29.844,
      "duration": 0.3062,
      "velocity": 100,
      "chip": "ym2612"
    },
    {
      "channel": 3,
      "note": 47,
      "start": 29.8446,
      "duration": 0.0001,
      "velocity": 127,
      "chip": "ym2612"
    },
    {
      "channel": 3,
      "note": 49,
      "start": 29.8642,
      "duration": 0.4501,
      "velocity": 127,
      "chip": "ym2612"
    },
    {
      "channel": 4,
      "note": 85,
      "start": 30.0078,
      "duration": 0.307,
      "velocity": 100,
      "chip": "ym2612"
    },
    {
      "channel": 0,
      "note": 83,
      "start": 30.3342,
      "duration": 0.3477,
      "velocity": 100,
      "chip": "ym2612"
    },
    {
      "channel": 1,
      "note": 43,
      "start": 30.3347,
      "duration": 0.4702,
      "velocity": 98,
      "chip": "ym2612"
    },
    {
      "channel": 2,
      "note": 79,
      "start": 30.3354,
      "duration": 0.347,
      "velocity": 100,
      "chip": "ym2612"
    },
    {
      "channel": 3,
      "note": 47,
      "start": 30.3361,
      "duration": 0.0001,
      "velocity": 127,
      "chip": "ym2612"
    },
    {
      "channel": 3,
      "note": 49,
      "start": 30.3554,
      "duration": 0.4501,
      "velocity": 127,
      "chip": "ym2612"
    },
    {
      "channel": 4,
      "note": 86,
      "start": 30.499,
      "duration": 0.3481,
      "velocity": 100,
      "chip": "ym2612"
    },
    {
      "channel": 0,
      "note": 81,
      "start": 30.7025,
      "duration": 0.1021,
      "velocity": 100,
      "chip": "ym2612"
    },
    {
      "channel": 2,
      "note": 78,
      "start": 30.7032,
      "duration": 0.102,
      "velocity": 100,
      "chip": "ym2612"
    },
    {
      "channel": 0,
      "note": 79,
      "start": 30.8254,
      "duration": 0.0815,
      "velocity": 100,
      "chip": "ym2612"
    },
    {
      "channel": 1,
      "note": 43,
      "start": 30.8259,
      "duration": 0.4701,
      "velocity": 98,
      "chip": "ym2612"
    },
    {
      "channel": 2,
      "note": 76,
      "start": 30.8265,
      "duration": 0.0809,
      "velocity": 100,
      "chip": "ym2612"
    },
    {
      "channel": 3,
      "note": 47,
      "start": 30.8272,
      "duration": 0.0001,
      "velocity": 127,
      "chip": "ym2612"
    },
    {
      "channel": 3,
      "note": 49,
      "start": 30.8466,
      "duration": 0.45,
      "velocity": 127,
      "chip": "ym2612"
    },
    {
      "channel": 4,
      "note": 83,
      "start": 30.8672,
      "duration": 0.1022,
      "velocity": 100,
      "chip": "ym2612"
    },
    {
      "channel": 4,
      "note": 81,
      "start": 30.9902,
      "duration": 0.0821,
      "velocity": 100,
      "chip": "ym2612"
    },
    {
      "channel": 0,
      "note": 78,
      "start": 31.0709,
      "duration": 0.0816,
      "velocity": 100,
      "chip": "ym2612"
    },
    {
      "channel": 2,
      "note": 74,
      "start": 31.0716,
      "duration": 0.0814,
      "velocity": 100,
      "chip": "ym2612"
    },
    {
      "channel": 4,
      "note": 79,
      "start": 31.2356,
      "duration": 0.0829,
      "velocity": 100,
      "chip": "ym2612"
    },
    {
      "channel": 0,
      "note": 76,
      "start": 31.3165,
      "duration": 0.0817,
      "velocity": 100,
      "chip": "ym2612"
    },
    {
      "channel": 1,
      "note": 45,
      "start": 31.317,
      "duration": 0.2246,
      "velocity": 98,
      "chip": "ym2612"
    },
    {
      "channel": 2,
      "note": 73,
      "start": 31.3175,
      "duration": 0.0811,
      "velocity": 100,
      "chip": "ym2612"
    },
    {
      "channel": 3,
      "note": 47,
      "start": 31.318,
      "duration": 0.0001,
      "velocity": 127,
      "chip": "ym2612"
    },
    {
      "channel": 3,
      "note": 49,
      "start": 31.3377,
      "duration": 0.45,
      "velocity": 127,
      "chip": "ym2612"
    },
    {
      "channel": 4,
      "note": 78,
      "start": 31.4812,
      "duration": 0.0825,
      "velocity": 100,
      "chip": "ym2612"
    },
    {
      "channel": 0,
      "note": 78,
      "start": 31.5621,
      "duration": 0.0816,
      "velocity": 100,
      "chip": "ym2612"
    },
    {
      "channel": 1,
      "note": 45,
      "start": 31.5626,
      "duration": 0.2246,
      "velocity": 98,
      "chip": "ym2612"
    },
    {
      "channel": 2,
      "note": 74,
      "start": 31.5631,
      "duration": 0.0811,
      "velocity": 100,
      "chip": "ym2612"
    },
    {
      "channel": 4,
      "note": 76,
      "start": 31.7268,
      "duration": 0.0829,
      "velocity": 100,
      "chip": "ym2612"
    },
    {
      "channel": 0,
      "note": 79,
      "start": 31.8077,
      "duration": 0.0816,
      "velocity": 100,
      "chip": "ym2612"
    },
    {
      "channel": 1,
      "note": 47,
      "start": 31.8081,
      "duration": 0.2246,
      "velocity": 98,
      "chip": "ym2612"
    },
    {
      "channel": 2,
      "note": 76,
      "start": 31.8086,
      "duration": 0.0812,
      "velocity": 100,
      "chip": "ym2612"
    },
    {
      "channel": 3,
      "note": 47,
      "start": 31.8093,
      "duration": 0.0001,
      "velocity": 127,
      "chip": "ym2612"
    },
    {
      "channel": 3,
      "note": 49,
      "start": 31.8288,
      "duration": 0.4501,
      "velocity": 127,
      "chip": "ym2612"
    },
    {
      "channel": 4,
      "note": 78,
      "start": 31.9724,
      "duration": 0.0825,
      "velocity": 100,
      "chip": "ym2612"
    },
    {
      "channel": 0,
      "note": 76,
      "start": 32.0532,
      "duration": 0.0816,
      "velocity": 100,
      "chip": "ym2612"
    },
    {
      "channel": 1,
      "note": 49,
      "start": 32.0537,
      "duration": 0.2246,
      "velocity": 98,
      "chip": "ym2612"
    },
    {
      "channel": 2,
      "note": 73,
      "start": 32.0542,
      "duration": 0.0812,
      "velocity": 100,
      "chip": "ym2612"
    },
    {
      "channel": 4,
      "note": 79,
      "start": 32.2179,
      "duration": 0.0867,
      "velocity": 100,
      "chip": "ym2612"
    },
    {
      "channel": 0,
      "note": 78,
      "start": 32.2989,
      "duration": 0.9616,
      "velocity": 100,
      "chip": "ym2612"
    },
    {
      "channel": 1,
      "note": 50,
      "start": 32.2995,
      "duration": 0.47,
      "velocity": 98,
      "chip": "ym2612"
    },
    {
      "channel": 2,
      "note": 62,
      "start": 32.3034,
      "duration": 0.3436,
      "velocity": 95,
      "chip": "ym2612"
    },
    {
      "channel": 3,
      "note": 47,
      "start": 32.3041,
      "duration": 0.0001,
      "velocity": 127,
      "chip": "ym2612"
    },
    {
      "channel": 3,
      "note": 49,
      "start": 32.32,
      "duration": 0.4501,
      "velocity": 127,
      "chip": "ym2612"
    },
    {
      "channel": 4,
      "note": 76,
      "start": 32.4637,
      "duration": 0.9615,
      "velocity": 100,
      "chip": "ym2612"
    },
    {
      "channel": 2,
      "note": 57,
      "start": 32.6676,
      "duration": 0.1022,
      "velocity": 95,
      "chip": "ym2612"
    },
    {
      "channel": 1,
      "note": 49,
      "start": 32.7902,
      "duration": 0.4705,
      "velocity": 98,
      "chip": "ym2612"
    },
    {
      "channel": 2,
      "note": 62,
      "start": 32.7908,
      "duration": 0.0813,
      "velocity": 95,
      "chip": "ym2612"
    },
    {
      "channel": 3,
      "note": 47,
      "start": 32.7914,
      "duration": 0.0001,
      "velocity": 127,
      "chip": "ym2612"
    },
    {
      "channel": 3,
      "note": 49,
      "start": 32.8112,
      "duration": 0.4501,
      "velocity": 127,
      "chip": "ym2612"
    },
    {
      "channel": 2,
      "note": 64,
      "start": 33.036,
      "duration": 0.0817,
      "velocity": 95,
      "chip": "ym2612"
    },
    {
      "channel": 0,
      "note": 74,
      "start": 33.2811,
      "duration": 0.3477,
      "velocity": 100,
      "chip": "ym2612"
    },
    {
      "channel": 1,
      "note": 47,
      "start": 33.2816,
      "duration": 0.4702,
      "velocity": 98,
      "chip": "ym2612"
    },
    {
      "channel": 2,
      "note": 66,
      "start": 33.2822,
      "duration": 0.9611,
      "velocity": 95,
      "chip": "ym2612"
    },
    {
      "channel": 3,
      "note": 47,
      "start": 33.2828,
      "duration": 0.0001,
      "velocity": 127,
      "chip": "ym2612"
    },
    {
      "channel": 3,
      "note": 49,
      "start": 33.3023,
      "duration": 0.4501,
      "velocity": 127,
      "chip": "ym2612"
    },
    {
      "channel": 4,
      "note": 78,
      "start": 33.4459,
      "duration": 0.348,
      "velocity": 100,
      "chip": "ym2612"
    },
    {
      "channel": 0,
      "note": 69,
      "start": 33.6495,
      "duration": 0.1021,
      "velocity": 100,
      "chip": "ym2612"
    },
    {
      "channel": 0,
      "note": 74,
      "start": 33.7723,
      "duration": 0.1021,
      "velocity": 100,
      "chip": "ym2612"
    },
    {
      "channel": 1,
      "note": 45,
      "start": 33.7728,
      "duration": 0.4703,
      "velocity": 98,
      "chip": "ym2612"
    },
    {
      "channel": 3,
      "note": 47,
      "start": 33.7737,
      "duration": 0.0001,
      "velocity": 127,
      "chip": "ym2612"
    },
    {
      "channel": 3,
      "note": 49,
      "start": 33.7935,
      "duration": 0.4502,
      "velocity": 127,
      "chip": "ym2612"
    },
    {
      "channel": 4,
      "note": 74,
      "start": 33.8143,
      "duration": 0.102,
      "velocity": 100,
      "chip": "ym2612"
    },
    {
      "channel": 0,
      "note": 76,
      "start": 33.895,
      "duration": 0.1022,
      "velocity": 100,
      "chip": "ym2612"
    },
    {
      "channel": 4,
      "note": 69,
      "start": 33.937,
      "duration": 0.1022,
      "velocity": 100,
      "chip": "ym2612"
    },
    {
      "channel": 0,
      "note": 78,
      "start": 34.0179,
      "duration": 0.1021,
      "velocity": 100,
      "chip": "ym2612"
    },
    {
      "channel": 4,
      "note": 74,
      "start": 34.0598,
      "duration": 0.1022,
      "velocity": 100,
      "chip": "ym2612"
    },
    {
      "channel": 0,
      "note": 79,
      "start": 34.1406,
      "duration": 0.1022,
      "velocity": 100,
      "chip": "ym2612"
    },
    {
      "channel": 4,
      "note": 76,
      "start": 34.1826,
      "duration": 0.1024,
      "velocity": 100,
      "chip": "ym2612"
    },
    {
      "channel": 0,
      "note": 81,
      "start": 34.2634,
      "duration": 0.9617,
      "velocity": 100,
      "chip": "ym2612"
    },
    {
      "channel": 1,
      "note": 50,
      "start": 34.2639,
      "duration": 0.4702,
      "velocity": 98,
      "chip": "ym2612"
    },
    {
      "channel": 2,
      "note": 66,
      "start": 34.2645,
      "duration": 0.3471,
      "velocity": 95,
      "chip": "ym2612"
    },
    {
      "channel": 3,
      "note": 47,
      "start": 34.2653,
      "duration": 0.0001,
      "velocity": 127,
      "chip": "ym2612"
    },
    {
      "channel": 3,
      "note": 49,
      "start": 34.2846,
      "duration": 0.4501,
      "velocity": 127,
      "chip": "ym2612"
    },
    {
      "channel": 4,
      "note": 78,
      "start": 34.3054,
      "duration": 0.1021,
      "velocity": 100,
      "chip": "ym2612"
    },
    {
      "channel": 4,
      "note": 79,
      "start": 34.4282,
      "duration": 0.9617,
      "velocity": 100,
      "chip": "ym2612"
    },
    {
      "channel": 2,
      "note": 62,
      "start": 34.6322,
      "duration": 0.1022,
      "velocity": 95,
      "chip": "ym2612"
    },
    {
      "channel": 1,
      "note": 49,
      "start": 34.7548,
      "duration": 0.4705,
      "velocity": 98,
      "chip": "ym2612"
    },
    {
      "channel": 2,
      "note": 66,
      "start": 34.7554,
      "duration": 0.0813,
      "velocity": 95,
      "chip": "ym2612"
    },
    {
      "channel": 3,
      "note": 47,
      "start": 34.756,
      "duration": 0.0001,
      "velocity": 127,
      "chip": "ym2612"
    },
    {
      "channel": 3,
      "note": 49,
      "start": 34.7759,
      "duration": 0.4501,
      "velocity": 127,
      "chip": "ym2612"
    },
    {
      "channel": 2,
      "note": 69,
      "start": 35.0006,
      "duration": 0.0817,
      "velocity": 95,
      "chip": "ym2612"
    },
    {
      "channel": 0,
      "note": 78,
      "start": 35.2458,
      "duration": 0.3477,
      "velocity": 100,
      "chip": "ym2612"
    },
    {
      "channel": 1,
      "note": 47,
      "start": 35.2463,
      "duration": 0.4702,
      "velocity": 98,
      "chip": "ym2612"
    },
    {
      "channel": 2,
      "note": 74,
      "start": 35.2469,
      "duration": 0.9611,
      "velocity": 95,
      "chip": "ym2612"
    },
    {
      "channel": 3,
      "note": 47,
      "start": 35.2475,
      "duration": 0.0001,
      "velocity": 127,
      "chip": "ym2612"
    },
    {
      "channel": 3,
      "note": 49,
      "start": 35.267,
      "duration": 0.4501,
      "velocity": 127,
      "chip": "ym2612"
    },
    {
      "channel": 4,
      "note": 81,
      "start": 35.4105,
      "duration": 0.3481,
      "velocity": 100,
      "chip": "ym2612"
    },
    {
      "channel": 0,
      "note": 74,
      "start": 35.6141,
      "duration": 0.1022,
      "velocity": 100,
      "chip": "ym2612"
    },
    {
      "channel": 0,
      "note": 74,
      "start": 35.7369,
      "duration": 0.1022,
      "velocity": 100,
      "chip": "ym2612"
    },
    {
      "channel": 1,
      "note": 45,
      "start": 35.7374,
      "duration": 0.4703,
      "velocity": 98,
      "chip": "ym2612"
    },
    {
      "channel": 3,
      "note": 47,
      "start": 35.7382,
      "duration": 0.0001,
      "velocity": 127,
      "chip": "ym2612"
    },
    {
      "channel": 3,
      "note": 49,
      "start": 35.7581,
      "duration": 0.4502,
      "velocity": 127,
      "chip": "ym2612"
    },
    {
      "channel": 4,
      "note": 78,
      "start": 35.7789,
      "duration": 0.1022,
      "velocity": 100,
      "chip": "ym2612"
    },
    {
      "channel": 0,
      "note": 76,
      "start": 35.8597,
      "duration": 0.1021,
      "velocity": 100,
      "chip": "ym2612"
    },
    {
      "channel": 4,
      "note": 74,
      "start": 35.9017,
      "duration": 0.1021,
      "velocity": 100,
      "chip": "ym2612"
    },
    {
      "channel": 0,
      "note": 78,
      "start": 35.9825,
      "duration": 0.1021,
      "velocity": 100,
      "chip": "ym2612"
    },
    {
      "channel": 4,
      "note": 74,
      "start": 36.0244,
      "duration": 0.1022,
      "velocity": 100,
      "chip": "ym2612"
    },
    {
      "channel": 0,
      "note": 79,
      "start": 36.1053,
      "duration": 0.1022,
      "velocity": 100,
      "chip": "ym2612"
    },
    {
      "channel": 4,
      "note": 76,
      "start": 36.1473,
      "duration": 0.1024,
      "velocity": 100,
      "chip": "ym2612"
    },
    {
      "channel": 0,
      "note": 81,
      "start": 36.2282,
      "duration": 0.3067,
      "velocity": 100,
      "chip": "ym2612"
    },
    {
      "channel": 1,
      "note": 50,
      "start": 36.2292,
      "duration": 0.4697,
      "velocity": 98,
      "chip": "ym2612"
    },
    {
      "channel": 2,
      "note": 78,
      "start": 36.2331,
      "duration": 0.3022,
      "velocity": 100,
      "chip": "ym2612"
    },
    {
      "channel": 3,
      "note": 47,
      "start": 36.2338,
      "duration": 0.0001,
      "velocity": 127,
      "chip": "ym2612"
    },
    {
      "channel": 3,
      "note": 49,
      "start": 36.2493,
      "duration": 0.4501,
      "velocity": 127,
      "chip": "ym2612"
    },
    {
      "channel": 4,
      "note": 78,
      "start": 36.27,
      "duration": 0.1021,
      "velocity": 100,
      "chip": "ym2612"
    },
    {
      "channel": 4,
      "note": 79,
      "start": 36.3929,
      "duration": 0.3069,
      "velocity": 100,
      "chip": "ym2612"
    },
    {
      "channel": 0,
      "note": 86,
      "start": 36.7192,
      "duration": 0.3068,
      "velocity": 100,
      "chip": "ym2612"
    },
    {
      "channel": 1,
      "note": 47,
      "start": 36.7197,
      "duration": 0.4702,
      "velocity": 98,
      "chip": "ym2612"
    },
    {
      "channel": 2,
      "note": 78,
      "start": 36.7202,
      "duration": 0.3063,
      "velocity": 100,
      "chip": "ym2612"
    },
    {
      "channel": 3,
      "note": 47,
      "start": 36.7208,
      "duration": 0.0001,
      "velocity": 127,
      "chip": "ym2612"
    },
    {
      "channel": 3,
      "note": 49,
      "start": 36.7405,
      "duration": 0.4501,
      "velocity": 127,
      "chip": "ym2612"
    },
    {
      "channel": 4,
      "note": 81,
      "start": 36.884,
      "duration": 0.3069,
      "velocity": 100,
      "chip": "ym2612"
    },
    {
      "channel": 0,
      "note": 85,
      "start": 37.2104,
      "duration": 0.3068,
      "velocity": 100,
      "chip": "ym2612"
    },
    {
      "channel": 1,
      "note": 45,
      "start": 37.2109,
      "duration": 0.4703,
      "velocity": 98,
      "chip": "ym2612"
    },
    {
      "channel": 2,
      "note": 76,
      "start": 37.2114,
      "duration": 0.3063,
      "velocity": 100,
      "chip": "ym2612"
    },
    {
      "channel": 3,
      "note": 47,
      "start": 37.212,
      "duration": 0.0001,
      "velocity": 127,
      "chip": "ym2612"
    },
    {
      "channel": 3,
      "note": 49,
      "start": 37.2316,
      "duration": 0.4501,
      "velocity": 127,
      "chip": "ym2612"
    },
    {
      "channel": 4,
      "note": 86,
      "start": 37.3751,
      "duration": 0.307,
      "velocity": 100,
      "chip": "ym2612"
    },
    {
      "channel": 0,
      "note": 86,
      "start": 37.7015,
      "duration": 0.3068,
      "velocity": 100,
      "chip": "ym2612"
    },
    {
      "channel": 1,
      "note": 50,
      "start": 37.702,
      "duration": 0.4702,
      "velocity": 98,
      "chip": "ym2612"
    },
    {
      "channel": 2,
      "note": 78,
      "start": 37.7025,
      "duration": 0.3063,
      "velocity": 100,
      "chip": "ym2612"
    },
    {
      "channel": 3,
      "note": 47,
      "start": 37.7031,
      "duration": 0.0001,
      "velocity": 127,
      "chip": "ym2612"
    },
    {
      "channel": 3,
      "note": 49,
      "start": 37.7228,
      "duration": 0.4501,
      "velocity": 127,
      "chip": "ym2612"
    },
    {
      "channel": 4,
      "note": 85,
      "start": 37.8663,
      "duration": 0.3069,
      "velocity": 100,
      "chip": "ym2612"
    },
    {
      "channel": 0,
      "note": 88,
      "start": 38.1927,
      "duration": 0.2249,
      "velocity": 100,
      "chip": "ym2612"
    },
    {
      "channel": 1,
      "note": 43,
      "start": 38.1932,
      "duration": 0.4702,
      "velocity": 98,
      "chip": "ym2612"
    },
    {
      "channel": 2,
      "note": 79,
      "start": 38.1939,
      "duration": 0.2242,
      "velocity": 100,
      "chip": "ym2612"
    },
    {
      "channel": 3,
      "note": 47,
      "start": 38.1951,
      "duration": 0.0001,
      "velocity": 127,
      "chip": "ym2612"
    },
    {
      "channel": 3,
      "note": 49,
      "start": 38.2139,
      "duration": 0.4501,
      "velocity": 127,
      "chip": "ym2612"
    },
    {
      "channel": 4,
      "note": 86,
      "start": 38.3575,
      "duration": 0.2249,
      "velocity": 100,
      "chip": "ym2612"
    },
    {
      "channel": 0,
      "note": 81,
      "start": 38.4383,
      "duration": 0.1021,
      "velocity": 100,
      "chip": "ym2612"
    },
    {
      "channel": 2,
      "note": 69,
      "start": 38.439,
      "duration": 0.1019,
      "velocity": 100,
      "chip": "ym2612"
    },
    {
      "channel": 0,
      "note": 81,
      "start": 38.5611,
      "duration": 0.1022,
      "velocity": 100,
      "chip": "ym2612"
    },
    {
      "channel": 2,
      "note": 69,
      "start": 38.5618,
      "duration": 0.1019,
      "velocity": 100,
      "chip": "ym2612"
    },
    {
      "channel": 4,
      "note": 88,
      "start": 38.603,
      "duration": 0.1025,
      "velocity": 100,
      "chip": "ym2612"
    },
    {
      "channel": 0,
      "note": 90,
      "start": 38.684,
      "duration": 0.0815,
      "velocity": 100,
      "chip": "ym2612"
    },
    {
      "channel": 1,
      "note": 45,
      "start": 38.6844,
      "duration": 0.4702,
      "velocity": 98,
      "chip": "ym2612"
    },
    {
      "channel": 2,
      "note": 71,
      "start": 38.685,
      "duration": 0.0809,
      "velocity": 100,
      "chip": "ym2612"
    },
    {
      "channel": 3,
      "note": 47,
      "start": 38.6856,
      "duration": 0.0001,
      "velocity": 127,
      "chip": "ym2612"
    },
    {
      "channel": 3,
      "note": 49,
      "start": 38.705,
      "duration": 0.4501,
      "velocity": 127,
      "chip": "ym2612"
    },
    {
      "channel": 4,
      "note": 81,
      "start": 38.7258,
      "duration": 0.1021,
      "velocity": 100,
      "chip": "ym2612"
    },
    {
      "channel": 4,
      "note": 81,
      "start": 38.8487,
      "duration": 0.0821,
      "velocity": 100,
      "chip": "ym2612"
    },
    {
      "channel": 0,
      "note": 88,
      "start": 38.9295,
      "duration": 0.0816,
      "velocity": 100,
      "chip": "ym2612"
    },
    {
      "channel": 2,
      "note": 73,
      "start": 38.9302,
      "duration": 0.0814,
      "velocity": 100,
      "chip": "ym2612"
    },
    {
      "channel": 4,
      "note": 90,
      "start": 39.0941,
      "duration": 0.0829,
      "velocity": 100,
      "chip": "ym2612"
    },
    {
      "channel": 0,
      "note": 86,
      "start": 39.1751,
      "duration": 0.0816,
      "velocity": 100,
      "chip": "ym2612"
    },
    {
      "channel": 1,
      "note": 50,
      "start": 39.1756,
      "duration": 0.2754,
      "velocity": 98,
      "chip": "ym2612"
    },
    {
      "channel": 2,
      "note": 74,
      "start": 39.176,
      "duration": 0.0812,
      "velocity": 100,
      "chip": "ym2612"
    },
    {
      "channel": 3,
      "note": 47,
      "start": 39.1766,
      "duration": 0.0001,
      "velocity": 127,
      "chip": "ym2612"
    },
    {
      "channel": 3,
      "note": 49,
      "start": 39.1962,
      "duration": 0.2044,
      "velocity": 127,
      "chip": "ym2612"
    },
    {
      "channel": 4,
      "note": 88,
      "start": 39.3398,
      "duration": 0.0828,
      "velocity": 100,
      "chip": "ym2612"
    },
    {
      "channel": 0,
      "note": 74,
      "start": 39.4207,
      "duration": 0.0135,
      "velocity": 100,
      "chip": "ym2612"
    },
    {
      "channel": 2,
      "note": 66,
      "start": 39.4215,
      "duration": 0.0133,
      "velocity": 100,
      "chip": "ym2612"
    },
    {
      "channel": 3,
      "note": 47,
      "start": 39.4221,
      "duration": 0.0129,
      "velocity": 127,
      "chip": "ym2612"
    },
    {
      "channel": 0,
      "note": 74,
      "start": 39.437,
      "duration": 0.0137,
      "velocity": 100,
      "chip": "ym2612"
    },
    {
      "channel": 2,
      "note": 66,
      "start": 39.4377,
      "duration": 0.0136,
      "velocity": 100,
      "chip": "ym2612"
    },
    {
      "channel": 3,
      "note": 47,
      "start": 39.4383,
      "duration": 0.0133,
      "velocity": 127,
      "chip": "ym2612"
    },
    {
      "channel": 4,
      "note": 86,
      "start": 39.4445,
      "duration": 0.0145,
      "velocity": 100,
      "chip": "ym2612"
    },
    {
      "channel": 0,
      "note": 74,
      "start": 39.4535,
      "duration": 0.0571,
      "velocity": 100,
      "chip": "ym2612"
    },
    {
      "channel": 1,
      "note": 50,
      "start": 39.454,
      "duration": 0.0569,
      "velocity": 98,
      "chip": "ym2612"
    },
    {
      "channel": 2,
      "note": 66,
      "start": 39.4545,
      "duration": 0.0567,
      "velocity": 100,
      "chip": "ym2612"
    },
    {
      "channel": 3,
      "note": 47,
      "start": 39.4551,
      "duration": 0.0001,
      "velocity": 127,
      "chip": "ym2612"
    },
    {
      "channel": 3,
      "note": 49,
      "start": 39.4585,
      "duration": 0.0531,
      "velocity": 127,
      "chip": "ym2612"
    },
    {
      "channel": 4,
      "note": 74,
      "start": 39.4616,
      "duration": 0.0119,
      "velocity": 100,
      "chip": "ym2612"
    },
    {
      "channel": 4,
      "note": 74,
      "start": 39.4761,
      "duration": 0.0671,
      "velocity": 100,
      "chip": "ym2612"
    },
    {
      "channel": 0,
      "note": 90,
      "start": 39.5151,
      "duration": 0.3461,
      "velocity": 100,
      "chip": "ym2612"
    },
    {
      "channel": 2,
      "note": 78,
      "start": 39.5195,
      "duration": 0.3422,
      "velocity": 100,
      "chip": "ym2612"
    },
    {
      "channel": 3,
      "note": 47,
      "start": 39.5249,
      "duration": 0.8254,
      "velocity": 127,
      "chip": "ym2612"
    },
    {
      "channel": 4,
      "note": 74,
      "start": 39.5461,
      "duration": 0.48,
      "velocity": 100,
      "chip": "ym2612"
    },
    {
      "channel": 0,
      "note": 89,
      "start": 39.8818,
      "duration": 0.1022,
      "velocity": 100,
      "chip": "ym2612"
    },
    {
      "channel": 2,
      "note": 77,
      "start": 39.8826,
      "duration": 0.102,
      "velocity": 100,
      "chip": "ym2612"
    },
    {
      "channel": 0,
      "note": 90,
      "start": 40.0046,
      "duration": 0.1021,
      "velocity": 100,
      "chip": "ym2612"
    },
    {
      "channel": 2,
      "note": 78,
      "start": 40.0054,
      "duration": 0.1018,
      "velocity": 100,
      "chip": "ym2612"
    },
    {
      "channel": 4,
      "note": 90,
      "start": 40.0466,
      "duration": 0.085,
      "velocity": 100,
      "chip": "ym2612"
    },
    {
      "channel": 0,
      "note": 85,
      "start": 40.1275,
      "duration": 0.039,
      "velocity": 100,
      "chip": "ym2612"
    },
    {
      "channel": 2,
      "note": 73,
      "start": 40.1283,
      "duration": 0.1002,
      "velocity": 100,
      "chip": "ym2612"
    },
    {
      "channel": 4,
      "note": 89,
      "start": 40.1346,
      "duration": 0.0126,
      "velocity": 100,
      "chip": "ym2612"
    },
    {
      "channel": 4,
      "note": 90,
      "start": 40.1501,
      "duration": 0.0791,
      "velocity": 100,
      "chip": "ym2612"
    },
    {
      "channel": 0,
      "note": 82,
      "start": 40.2487,
      "duration": 0.0386,
      "velocity": 100,
      "chip": "ym2612"
    },
    {
      "channel": 2,
      "note": 70,
      "start": 40.2494,
      "duration": 0.1005,
      "velocity": 100,
      "chip": "ym2612"
    },
    {
      "channel": 4,
      "note": 85,
      "start": 40.2707,
      "duration": 0.0799,
      "velocity": 100,
      "chip": "ym2612"
    },
    {
      "channel": 0,
      "note": 78,
      "start": 40.3702,
      "duration": 0.713,
      "velocity": 100,
      "chip": "ym2612"
    },
    {
      "channel": 1,
      "note": 54,
      "start": 40.3739,
      "duration": 0.3425,
      "velocity": 100,
      "chip": "ym2612"
    },
    {
      "channel": 2,
      "note": 66,
      "start": 40.3744,
      "duration": 0.7093,
      "velocity": 100,
      "chip": "ym2612"
    },
    {
      "channel": 4,
      "note": 82,
      "start": 40.3952,
      "duration": 0.7361,
      "velocity": 100,
      "chip": "ym2612"
    },
    {
      "channel": 1,
      "note": 53,
      "start": 40.7371,
      "duration": 0.1021,
      "velocity": 100,
      "chip": "ym2612"
    },
    {
      "channel": 1,
      "note": 54,
      "start": 40.8599,
      "duration": 0.1021,
      "velocity": 100,
      "chip": "ym2612"
    },
    {
      "channel": 1,
      "note": 49,
      "start": 40.9827,
      "duration": 0.1008,
      "velocity": 100,
      "chip": "ym2612"
    },
    {
      "channel": 0,
      "note": 66,
      "start": 41.1038,
      "duration": 0.0595,
      "velocity": 100,
      "chip": "ym2612"
    },
    {
      "channel": 1,
      "note": 42,
      "start": 41.1043,
      "duration": 0.077,
      "velocity": 100,
      "chip": "ym2612"
    },
    {
      "channel": 2,
      "note": 73,
      "start": 41.1049,
      "duration": 0.0767,
      "velocity": 100,
      "chip": "ym2612"
    },
    {
      "channel": 3,
      "note": 68,
      "start": 41.1103,
      "duration": 0.008,
      "velocity": 127,
      "chip": "ym2612"
    },
    {
      "channel": 3,
      "note": 47,
      "start": 41.1234,
      "duration": 0.0075,
      "velocity": 127,
      "chip": "ym2612"
    },
    {
      "channel": 3,
      "note": 47,
      "start": 41.1361,
      "duration": 0.0078,
      "velocity": 127,
      "chip": "ym2612"
    },
    {
      "channel": 4,
      "note": 78,
      "start": 41.1368,
      "duration": 0.0683,
      "velocity": 100,
      "chip": "ym2612"
    },
    {
      "channel": 3,
      "note": 47,
      "start": 41.1491,
      "duration": 0.0074,
      "velocity": 127,
      "chip": "ym2612"
    },
    {
      "channel": 3,
      "note": 47,
      "start": 41.1615,
      "duration": 0.0077,
      "velocity": 127,
      "chip": "ym2612"
    },
    {
      "channel": 0,
      "note": 66,
      "start": 41.166,
      "duration": 0.0151,
      "velocity": 100,
      "chip": "ym2612"
    },
    {
      "channel": 3,
      "note": 47,
      "start": 41.1743,
      "duration": 0.0077,
      "velocity": 127,
      "chip": "ym2612"
    },
    {
      "channel": 0,
      "note": 71,
      "start": 41.1839,
      "duration": 0.2249,
      "velocity": 100,
      "chip": "ym2612"
    },
    {
      "channel": 1,
      "note": 47,
      "start": 41.1877,
      "duration": 0.4669,
      "velocity": 98,
      "chip": "ym2612"
    },
    {
      "channel": 2,
      "note": 75,
      "start": 41.1914,
      "duration": 0.4634,
      "velocity": 62,
      "chip": "ym2612"
    },
    {
      "channel": 4,
      "note": 66,
      "start": 41.2258,
      "duration": 0.1022,
      "velocity": 100,
      "chip": "ym2612"
    },
    {
      "channel": 4,
      "note": 66,
      "start": 41.3486,
      "duration": 0.2249,
      "velocity": 100,
      "chip": "ym2612"
    },
    {
      "channel": 0,
      "note": 73,
      "start": 41.4295,
      "duration": 0.0816,
      "velocity": 100,
      "chip": "ym2612"
    },
    {
      "channel": 3,
      "note": 47,
      "start": 41.4305,
      "duration": 0.2247,
      "velocity": 127,
      "chip": "ym2612"
    },
    {
      "channel": 4,
      "note": 71,
      "start": 41.5944,
      "duration": 0.0825,
      "velocity": 100,
      "chip": "ym2612"
    },
    {
      "channel": 0,
      "note": 75,
      "start": 41.6751,
      "duration": 0.0816,
      "velocity": 100,
      "chip": "ym2612"
    },
    {
      "channel": 1,
      "note": 54,
      "start": 41.6755,
      "duration": 0.4702,
      "velocity": 98,
      "chip": "ym2612"
    },
    {
      "channel": 2,
      "note": 71,
      "start": 41.676,
      "duration": 0.47,
      "velocity": 62,
      "chip": "ym2612"
    },
    {
      "channel": 4,
      "note": 73,
      "start": 41.8398,
      "duration": 0.0822,
      "velocity": 100,
      "chip": "ym2612"
    },
    {
      "channel": 0,
      "note": 76,
      "start": 41.9206,
      "duration": 0.0817,
      "velocity": 100,
      "chip": "ym2612"
    },
    {
      "channel": 3,
      "note": 47,
      "start": 41.9216,
      "duration": 0.2247,
      "velocity": 127,
      "chip": "ym2612"
    },
    {
      "channel": 4,
      "note": 75,
      "start": 42.0853,
      "duration": 0.0827,
      "velocity": 100,
      "chip": "ym2612"
    },
    {
      "channel": 0,
      "note": 78,
      "start": 42.1663,
      "duration": 1.2071,
      "velocity": 100,
      "chip": "ym2612"
    },
    {
      "channel": 1,
      "note": 47,
      "start": 42.1668,
      "duration": 0.4701,
      "velocity": 98,
      "chip": "ym2612"
    },
    {
      "channel": 2,
      "note": 71,
      "start": 42.1673,
      "duration": 0.2243,
      "velocity": 62,
      "chip": "ym2612"
    },
    {
      "channel": 4,
      "note": 76,
      "start": 42.331,
      "duration": 1.2071,
      "velocity": 100,
      "chip": "ym2612"
    },
    {
      "channel": 2,
      "note": 73,
      "start": 42.4122,
      "duration": 0.225,
      "velocity": 62,
      "chip": "ym2612"
    },
    {
      "channel": 3,
      "note": 47,
      "start": 42.4128,
      "duration": 0.2247,
      "velocity": 127,
      "chip": "ym2612"
    },
    {
      "channel": 1,
      "note": 54,
      "start": 42.6576,
      "duration": 0.4705,
      "velocity": 98,
      "chip": "ym2612"
    },
    {
      "channel": 2,
      "note": 75,
      "start": 42.6581,
      "duration": 0.2246,
      "velocity": 62,
      "chip": "ym2612"
    },
    {
      "channel": 2,
      "note": 76,
      "start": 42.9034,
      "duration": 0.225,
      "velocity": 62,
      "chip": "ym2612"
    },
    {
      "channel": 3,
      "note": 47,
      "start": 42.9039,
      "duration": 0.2247,
      "velocity": 127,
      "chip": "ym2612"
    },
    {
      "channel": 1,
      "note": 47,
      "start": 43.1487,
      "duration": 0.4705,
      "velocity": 98,
      "chip": "ym2612"
    },
    {
      "channel": 2,
      "note": 78,
      "start": 43.1493,
      "duration": 1.2069,
      "velocity": 62,
      "chip": "ym2612"
    },
    {
      "channel": 0,
      "note": 83,
      "start": 43.3941,
      "duration": 0.2249,
      "velocity": 100,
      "chip": "ym2612"
    },
    {
      "channel": 3,
      "note": 47,
      "start": 43.3951,
      "duration": 0.2248,
      "velocity": 127,
      "chip": "ym2612"
    },
    {
      "channel": 4,
      "note": 78,
      "start": 43.5588,
      "duration": 0.2249,
      "velocity": 100,
      "chip": "ym2612"
    },
    {
      "channel": 0,
      "note": 82,
      "start": 43.6396,
      "duration": 0.2249,
      "velocity": 100,
      "chip": "ym2612"
    },
    {
      "channel": 1,
      "note": 54,
      "start": 43.6401,
      "duration": 0.4703,
      "velocity": 98,
      "chip": "ym2612"
    },
    {
      "channel": 4,
      "note": 83,
      "start": 43.8045,
      "duration": 0.2249,
      "velocity": 100,
      "chip": "ym2612"
    },
    {
      "channel": 0,
      "note": 83,
      "start": 43.8852,
      "duration": 0.2249,
      "velocity": 100,
      "chip": "ym2612"
    },
    {
      "channel": 3,
      "note": 47,
      "start": 43.8863,
      "duration": 0.2247,
      "velocity": 127,
      "chip": "ym2612"
    },
    {
      "channel": 4,
      "note": 82,
      "start": 44.05,
      "duration": 0.2249,
      "velocity": 100,
      "chip": "ym2612"
    },
    {
      "channel": 0,
      "note": 80,
      "start": 44.1308,
      "duration": 0.2249,
      "velocity": 100,
      "chip": "ym2612"
    },
    {
      "channel": 1,
      "note": 52,
      "start": 44.1313,
      "duration": 0.4702,
      "velocity": 98,
      "chip": "ym2612"
    },
    {
      "channel": 4,
      "note": 83,
      "start": 44.2956,
      "duration": 0.2248,
      "velocity": 100,
      "chip": "ym2612"
    },
    {
      "channel": 0,
      "note": 78,
      "start": 44.3764,
      "duration": 0.1021,
      "velocity": 100,
      "chip": "ym2612"
    },
    {
      "channel": 2,
      "note": 71,
      "start": 44.3804,
      "duration": 0.2215,
      "velocity": 100,
      "chip": "ym2612"
    },
    {
      "channel": 3,
      "note": 47,
      "start": 44.381,
      "duration": 0.0983,
      "velocity": 127,
      "chip": "ym2612"
    },
    {
      "channel": 0,
      "note": 76,
      "start": 44.4992,
      "duration": 0.1021,
      "velocity": 100,
      "chip": "ym2612"
    },
    {
      "channel": 3,
      "note": 47,
      "start": 44.5002,
      "duration": 0.102,
      "velocity": 127,
      "chip": "ym2612"
    },
    {
      "channel": 4,
      "note": 80,
      "start": 44.5411,
      "duration": 0.1021,
      "velocity": 100,
      "chip": "ym2612"
    },
    {
      "channel": 0,
      "note": 78,
      "start": 44.622,
      "duration": 0.0816,
      "velocity": 100,
      "chip": "ym2612"
    },
    {
      "channel": 1,
      "note": 47,
      "start": 44.6225,
      "duration": 0.4702,
      "velocity": 98,
      "chip": "ym2612"
    },
    {
      "channel": 2,
      "note": 70,
      "start": 44.6231,
      "duration": 0.081,
      "velocity": 100,
      "chip": "ym2612"
    },
    {
      "channel": 4,
      "note": 78,
      "start": 44.6639,
      "duration": 0.1022,
      "velocity": 100,
      "chip": "ym2612"
    },
    {
      "channel": 4,
      "note": 76,
      "start": 44.7868,
      "duration": 0.0825,
      "velocity": 100,
      "chip": "ym2612"
    },
    {
      "channel": 0,
      "note": 71,
      "start": 44.8676,
      "duration": 0.0817,
      "velocity": 100,
      "chip": "ym2612"
    },
    {
      "channel": 2,
      "note": 71,
      "start": 44.8683,
      "duration": 0.0814,
      "velocity": 100,
      "chip": "ym2612"
    },
    {
      "channel": 3,
      "note": 47,
      "start": 44.8689,
      "duration": 0.2244,
      "velocity": 127,
      "chip": "ym2612"
    },
    {
      "channel": 4,
      "note": 78,
      "start": 45.0323,
      "duration": 0.0854,
      "velocity": 100,
      "chip": "ym2612"
    },
    {
      "channel": 0,
      "note": 76,
      "start": 45.1132,
      "duration": 0.716,
      "velocity": 100,
      "chip": "ym2612"
    },
    {
      "channel": 1,
      "note": 49,
      "start": 45.1137,
      "duration": 0.4701,
      "velocity": 98,
      "chip": "ym2612"
    },
    {
      "channel": 2,
      "note": 68,
      "start": 45.1143,
      "duration": 0.2242,
      "velocity": 100,
      "chip": "ym2612"
    },
    {
      "channel": 4,
      "note": 71,
      "start": 45.278,
      "duration": 0.7159,
      "velocity": 100,
      "chip": "ym2612"
    },
    {
      "channel": 2,
      "note": 66,
      "start": 45.3592,
      "duration": 0.1021,
      "velocity": 100,
      "chip": "ym2612"
    },
    {
      "channel": 3,
      "note": 47,
      "start": 45.3597,
      "duration": 0.2248,
      "velocity": 127,
      "chip": "ym2612"
    },
    {
      "channel": 2,
      "note": 64,
      "start": 45.482,
      "duration": 0.1022,
      "velocity": 100,
      "chip": "ym2612"
    },
    {
      "channel": 1,
      "note": 49,
      "start": 45.6045,
      "duration": 0.4706,
      "velocity": 98,
      "chip": "ym2612"
    },
    {
      "channel": 2,
      "note": 66,
      "start": 45.6051,
      "duration": 0.0813,
      "velocity": 100,
      "chip": "ym2612"
    },
    {
      "channel": 0,
      "note": 75,
      "start": 45.8499,
      "duration": 0.1021,
      "velocity": 100,
      "chip": "ym2612"
    },
    {
      "channel": 2,
      "note": 59,
      "start": 45.8506,
      "duration": 0.0814,
      "velocity": 100,
      "chip": "ym2612"
    },
    {
      "channel": 3,
      "note": 47,
      "start": 45.8512,
      "duration": 0.2244,
      "velocity": 127,
      "chip": "ym2612"
    },
    {
      "channel": 0,
      "note": 76,
      "start": 45.9727,
      "duration": 0.1022,
      "velocity": 100,
      "chip": "ym2612"
    },
    {
      "channel": 4,
      "note": 76,
      "start": 46.0146,
      "duration": 0.1021,
      "velocity": 100,
      "chip": "ym2612"
    },
    {
      "channel": 0,
      "note": 78,
      "start": 46.0954,
      "duration": 0.4705,
      "velocity": 100,
      "chip": "ym2612"
    },
    {
      "channel": 1,
      "note": 51,
      "start": 46.0959,
      "duration": 0.4703,
      "velocity": 98,
      "chip": "ym2612"
    },
    {
      "channel": 2,
      "note": 63,
      "start": 46.0965,
      "duration": 0.47,
      "velocity": 100,
      "chip": "ym2612"
    },
    {
      "channel": 4,
      "note": 75,
      "start": 46.1374,
      "duration": 0.1021,
      "velocity": 100,
      "chip": "ym2612"
    },
    {
      "channel": 4,
      "note": 76,
      "start": 46.2602,
      "duration": 0.4704,
      "velocity": 100,
      "chip": "ym2612"
    },
    {
      "channel": 3,
      "note": 47,
      "start": 46.3417,
      "duration": 0.2251,
      "velocity": 127,
      "chip": "ym2612"
    },
    {
      "channel": 0,
      "note": 80,
      "start": 46.5866,
      "duration": 0.4705,
      "velocity": 100,
      "chip": "ym2612"
    },
    {
      "channel": 1,
      "note": 52,
      "start": 46.5871,
      "duration": 0.4703,
      "velocity": 98,
      "chip": "ym2612"
    },
    {
      "channel": 2,
      "note": 64,
      "start": 46.5876,
      "duration": 0.47,
      "velocity": 100,
      "chip": "ym2612"
    },
    {
      "channel": 4,
      "note": 78,
      "start": 46.7513,
      "duration": 0.4705,
      "velocity": 100,
      "chip": "ym2612"
    },
    {
      "channel": 3,
      "note": 47,
      "start": 46.8329,
      "duration": 0.2251,
      "velocity": 127,
      "chip": "ym2612"
    },
    {
      "channel": 0,
      "note": 75,
      "start": 47.0777,
      "duration": 0.7161,
      "velocity": 100,
      "chip": "ym2612"
    },
    {
      "channel": 1,
      "note": 53,
      "start": 47.0783,
      "duration": 0.4702,
      "velocity": 98,
      "chip": "ym2612"
    },
    {
      "channel": 2,
      "note": 61,
      "start": 47.0788,
      "duration": 0.47,
      "velocity": 100,
      "chip": "ym2612"
    },
    {
      "channel": 4,
      "note": 80,
      "start": 47.2425,
      "duration": 0.716,
      "velocity": 100,
      "chip": "ym2612"
    },
    {
      "channel": 3,
      "note": 47,
      "start": 47.3241,
      "duration": 0.2251,
      "velocity": 127,
      "chip": "ym2612"
    },
    {
      "channel": 1,
      "note": 53,
      "start": 47.5692,
      "duration": 0.4705,
      "velocity": 98,
      "chip": "ym2612"
    },
    {
      "channel": 2,
      "note": 68,
      "start": 47.5697,
      "duration": 0.4703,
      "velocity": 100,
      "chip": "ym2612"
    },
    {
      "channel": 0,
      "note": 76,
      "start": 47.8145,
      "duration": 0.1021,
      "velocity": 100,
      "chip": "ym2612"
    },
    {
      "channel": 3,
      "note": 47,
      "start": 47.8155,
      "duration": 0.2247,
      "velocity": 127,
      "chip": "ym2612"
    },
    {
      "channel": 0,
      "note": 75,
      "start": 47.9373,
      "duration": 0.1022,
      "velocity": 100,
      "chip": "ym2612"
    },
    {
      "channel": 4,
      "note": 75,
      "start": 47.9793,
      "duration": 0.1021,
      "velocity": 100,
      "chip": "ym2612"
    },
    {
      "channel": 0,
      "note": 73,
      "start": 48.0601,
      "duration": 0.4705,
      "velocity": 100,
      "chip": "ym2612"
    },
    {
      "channel": 1,
      "note": 54,
      "start": 48.0606,
      "duration": 0.4702,
      "velocity": 98,
      "chip": "ym2612"
    },
    {
      "channel": 2,
      "note": 66,
      "start": 48.0611,
      "duration": 0.4701,
      "velocity": 100,
      "chip": "ym2612"
    },
    {
      "channel": 4,
      "note": 76,
      "start": 48.102,
      "duration": 0.1021,
      "velocity": 100,
      "chip": "ym2612"
    },
    {
      "channel": 4,
      "note": 75,
      "start": 48.2248,
      "duration": 0.4705,
      "velocity": 100,
      "chip": "ym2612"
    },
    {
      "channel": 3,
      "note": 47,
      "start": 48.3064,
      "duration": 0.1021,
      "velocity": 127,
      "chip": "ym2612"
    },
    {
      "channel": 3,
      "note": 47,
      "start": 48.4292,
      "duration": 0.1023,
      "velocity": 127,
      "chip": "ym2612"
    },
    {
      "channel": 0,
      "note": 66,
      "start": 48.5513,
      "duration": 0.3477,
      "velocity": 100,
      "chip": "ym2612"
    },
    {
      "channel": 1,
      "note": 42,
      "start": 48.5517,
      "duration": 0.4703,
      "velocity": 98,
      "chip": "ym2612"
    },
    {
      "channel": 2,
      "note": 64,
      "start": 48.5522,
      "duration": 0.47,
      "velocity": 100,
      "chip": "ym2612"
    },
    {
      "channel": 4,
      "note": 73,
      "start": 48.716,
      "duration": 0.3477,
      "velocity": 100,
      "chip": "ym2612"
    },
    {
      "channel": 3,
      "note": 47,
      "start": 48.7975,
      "duration": 0.2251,
      "velocity": 127,
      "chip": "ym2612"
    },
    {
      "channel": 0,
      "note": 66,
      "start": 48.9196,
      "duration": 0.1022,
      "velocity": 100,
      "chip": "ym2612"
    },
    {
      "channel": 0,
      "note": 71,
      "start": 49.0424,
      "duration": 0.2249,
      "velocity": 100,
      "chip": "ym2612"
    },
    {
      "channel": 1,
      "note": 47,
      "start": 49.0429,
      "duration": 0.4702,
      "velocity": 98,
      "chip": "ym2612"
    },
    {
      "channel": 2,
      "note": 63,
      "start": 49.0434,
      "duration": 0.7155,
      "velocity": 100,
      "chip": "ym2612"
    },
    {
      "channel": 4,
      "note": 66,
      "start": 49.0844,
      "duration": 0.1021,
      "velocity": 100,
      "chip": "ym2612"
    },
    {
      "channel": 4,
      "note": 66,
      "start": 49.2071,
      "duration": 0.2249,
      "velocity": 100,
      "chip": "ym2612"
    },
    {
      "channel": 0,
      "note": 73,
      "start": 49.288,
      "duration": 0.0816,
      "velocity": 100,
      "chip": "ym2612"
    },
    {
      "channel": 3,
      "note": 47,
      "start": 49.2891,
      "duration": 0.2246,
      "velocity": 127,
      "chip": "ym2612"
    },
    {
      "channel": 4,
      "note": 71,
      "start": 49.4528,
      "duration": 0.0822,
      "velocity": 100,
      "chip": "ym2612"
    },
    {
      "channel": 0,
      "note": 75,
      "start": 49.5335,
      "duration": 0.0817,
      "velocity": 100,
      "chip": "ym2612"
    },
    {
      "channel": 1,
      "note": 47,
      "start": 49.534,
      "duration": 0.4702,
      "velocity": 98,
      "chip": "ym2612"
    },
    {
      "channel": 4,
      "note": 73,
      "start": 49.6983,
      "duration": 0.0825,
      "velocity": 100,
      "chip": "ym2612"
    },
    {
      "channel": 0,
      "note": 76,
      "start": 49.7791,
      "duration": 0.0817,
      "velocity": 100,
      "chip": "ym2612"
    },
    {
      "channel": 2,
      "note": 64,
      "start": 49.7798,
      "duration": 0.1018,
      "velocity": 100,
      "chip": "ym2612"
    },
    {
      "channel": 3,
      "note": 47,
      "start": 49.7805,
      "duration": 0.2244,
      "velocity": 127,
      "chip": "ym2612"
    },
    {
      "channel": 2,
      "note": 63,
      "start": 49.9024,
      "duration": 0.1022,
      "velocity": 100,
      "chip": "ym2612"
    },
    {
      "channel": 4,
      "note": 75,
      "start": 49.9439,
      "duration": 0.0826,
      "velocity": 100,
      "chip": "ym2612"
    },
    {
      "channel": 0,
      "note": 78,
      "start": 50.0248,
      "duration": 1.2072,
      "velocity": 100,
      "chip": "ym2612"
    },
    {
      "channel": 1,
      "note": 45,
      "start": 50.0253,
      "duration": 0.4702,
      "velocity": 98,
      "chip": "ym2612"
    },
    {
      "channel": 2,
      "note": 61,
      "start": 50.0258,
      "duration": 0.47,
      "velocity": 100,
      "chip": "ym2612"
    },
    {
      "channel": 4,
      "note": 76,
      "start": 50.1896,
      "duration": 1.2071,
      "velocity": 100,
      "chip": "ym2612"
    },
    {
      "channel": 3,
      "note": 47,
      "start": 50.2711,
      "duration": 0.225,
      "velocity": 127,
      "chip": "ym2612"
    },
    {
      "channel": 1,
      "note": 45,
      "start": 50.5161,
      "duration": 0.4705,
      "velocity": 98,
      "chip": "ym2612"
    },
    {
      "channel": 2,
      "note": 66,
      "start": 50.5166,
      "duration": 0.3475,
      "velocity": 100,
      "chip": "ym2612"
    },
    {
      "channel": 3,
      "note": 47,
      "start": 50.7622,
      "duration": 0.225,
      "velocity": 127,
      "chip": "ym2612"
    },
    {
      "channel": 2,
      "note": 66,
      "start": 50.8847,
      "duration": 0.1022,
      "velocity": 100,
      "chip": "ym2612"
    },
    {
      "channel": 1,
      "note": 44,
      "start": 51.0073,
      "duration": 0.4705,
      "velocity": 98,
      "chip": "ym2612"
    },
    {
      "channel": 2,
      "note": 71,
      "start": 51.0078,
      "duration": 0.2247,
      "velocity": 100,
      "chip": "ym2612"
    },
    {
      "channel": 0,
      "note": 87,
      "start": 51.2526,
      "duration": 0.2249,
      "velocity": 100,
      "chip": "ym2612"
    },
    {
      "channel": 2,
      "note": 73,
      "start": 51.2534,
      "duration": 0.0813,
      "velocity": 100,
      "chip": "ym2612"
    },
    {
      "channel": 3,
      "note": 47,
      "start": 51.254,
      "duration": 0.2243,
      "velocity": 127,
      "chip": "ym2612"
    },
    {
      "channel": 4,
      "note": 78,
      "start": 51.4174,
      "duration": 0.2249,
      "velocity": 100,
      "chip": "ym2612"
    },
    {
      "channel": 0,
      "note": 85,
      "start": 51.4982,
      "duration": 0.2249,
      "velocity": 100,
      "chip": "ym2612"
    },
    {
      "channel": 1,
      "note": 44,
      "start": 51.4987,
      "duration": 0.4703,
      "velocity": 98,
      "chip": "ym2612"
    },
    {
      "channel": 2,
      "note": 75,
      "start": 51.4992,
      "duration": 0.0811,
      "velocity": 100,
      "chip": "ym2612"
    },
    {
      "channel": 4,
      "note": 87,
      "start": 51.6629,
      "duration": 0.2249,
      "velocity": 100,
      "chip": "ym2612"
    },
    {
      "channel": 0,
      "note": 87,
      "start": 51.7438,
      "duration": 0.2249,
      "velocity": 100,
      "chip": "ym2612"
    },
    {
      "channel": 2,
      "note": 71,
      "start": 51.7445,
      "duration": 0.0814,
      "velocity": 100,
      "chip": "ym2612"
    },
    {
      "channel": 3,
      "note": 47,
      "start": 51.7452,
      "duration": 0.2243,
      "velocity": 127,
      "chip": "ym2612"
    },
    {
      "channel": 4,
      "note": 85,
      "start": 51.9085,
      "duration": 0.2249,
      "velocity": 100,
      "chip": "ym2612"
    },
    {
      "channel": 0,
      "note": 88,
      "start": 51.9893,
      "duration": 0.2249,
      "velocity": 100,
      "chip": "ym2612"
    },
    {
      "channel": 1,
      "note": 43,
      "start": 51.9898,
      "duration": 0.4703,
      "velocity": 98,
      "chip": "ym2612"
    },
    {
      "channel": 2,
      "note": 71,
      "start": 51.9904,
      "duration": 0.9611,
      "velocity": 100,
      "chip": "ym2612"
    },
    {
      "channel": 4,
      "note": 87,
      "start": 52.1541,
      "duration": 0.2249,
      "velocity": 100,
      "chip": "ym2612"
    },
    {
      "channel": 0,
      "note": 87,
      "start": 52.2349,
      "duration": 0.1022,
      "velocity": 100,
      "chip": "ym2612"
    },
    {
      "channel": 3,
      "note": 47,
      "start": 52.2359,
      "duration": 0.1019,
      "velocity": 127,
      "chip": "ym2612"
    },
    {
      "channel": 0,
      "note": 85,
      "start": 52.3577,
      "duration": 0.1022,
      "velocity": 100,
      "chip": "ym2612"
    },
    {
      "channel": 3,
      "note": 47,
      "start": 52.3587,
      "duration": 0.102,
      "velocity": 127,
      "chip": "ym2612"
    },
    {
      "channel": 4,
      "note": 88,
      "start": 52.3997,
      "duration": 0.1021,
      "velocity": 100,
      "chip": "ym2612"
    },
    {
      "channel": 0,
      "note": 83,
      "start": 52.4805,
      "duration": 0.0816,
      "velocity": 100,
      "chip": "ym2612"
    },
    {
      "channel": 1,
      "note": 43,
      "start": 52.481,
      "duration": 0.4702,
      "velocity": 98,
      "chip": "ym2612"
    },
    {
      "channel": 4,
      "note": 87,
      "start": 52.5225,
      "duration": 0.1022,
      "velocity": 100,
      "chip": "ym2612"
    },
    {
      "channel": 4,
      "note": 85,
      "start": 52.6454,
      "duration": 0.0823,
      "velocity": 100,
      "chip": "ym2612"
    },
    {
      "channel": 0,
      "note": 76,
      "start": 52.7261,
      "duration": 0.0817,
      "velocity": 100,
      "chip": "ym2612"
    },
    {
      "channel": 3,
      "note": 47,
      "start": 52.7272,
      "duration": 0.2247,
      "velocity": 127,
      "chip": "ym2612"
    },
    {
      "channel": 4,
      "note": 83,
      "start": 52.8908,
      "duration": 0.0888,
      "velocity": 100,
      "chip": "ym2612"
    },
    {
      "channel": 0,
      "note": 73,
      "start": 52.9717,
      "duration": 0.4705,
      "velocity": 100,
      "chip": "ym2612"
    },
    {
      "channel": 1,
      "note": 42,
      "start": 52.9754,
      "duration": 0.9581,
      "velocity": 100,
      "chip": "ym2612"
    },
    {
      "channel": 2,
      "note": 70,
      "start": 52.976,
      "duration": 0.4667,
      "velocity": 100,
      "chip": "ym2612"
    },
    {
      "channel": 3,
      "note": 47,
      "start": 52.9791,
      "duration": 0.0135,
      "velocity": 127,
      "chip": "ym2612"
    },
    {
      "channel": 3,
      "note": 47,
      "start": 53.0134,
      "duration": 0.0202,
      "velocity": 127,
      "chip": "ym2612"
    },
    {
      "channel": 3,
      "note": 49,
      "start": 53.0543,
      "duration": 0.0202,
      "velocity": 127,
      "chip": "ym2612"
    },
    {
      "channel": 3,
      "note": 47,
      "start": 53.0952,
      "duration": 0.0203,
      "velocity": 127,
      "chip": "ym2612"
    },
    {
      "channel": 3,
      "note": 49,
      "start": 53.1361,
      "duration": 0.0202,
      "velocity": 127,
      "chip": "ym2612"
    },
    {
      "channel": 4,
      "note": 76,
      "start": 53.1369,
      "duration": 0.47,
      "velocity": 100,
      "chip": "ym2612"
    },
    {
      "channel": 3,
      "note": 47,
      "start": 53.1771,
      "duration": 0.0202,
      "velocity": 127,
      "chip": "ym2612"
    },
    {
      "channel": 3,
      "note": 49,
      "start": 53.2179,
      "duration": 0.0203,
      "velocity": 127,
      "chip": "ym2612"
    },
    {
      "channel": 3,
      "note": 47,
      "start": 53.2589,
      "duration": 0.0202,
      "velocity": 127,
      "chip": "ym2612"
    },
    {
      "channel": 3,
      "note": 49,
      "start": 53.2998,
      "duration": 0.0202,
      "velocity": 127,
      "chip": "ym2612"
    },
    {
      "channel": 3,
      "note": 47,
      "start": 53.3407,
      "duration": 0.0203,
      "velocity": 127,
      "chip": "ym2612"
    },
    {
      "channel": 3,
      "note": 49,
      "start": 53.3817,
      "duration": 0.0202,
      "velocity": 127,
      "chip": "ym2612"
    },
    {
      "channel": 3,
      "note": 47,
      "start": 53.4226,
      "duration": 0.0205,
      "velocity": 127,
      "chip": "ym2612"
    },
    {
      "channel": 0,
      "note": 73,
      "start": 53.4628,
      "duration": 0.1022,
      "velocity": 100,
      "chip": "ym2612"
    },
    {
      "channel": 2,
      "note": 70,
      "start": 53.4636,
      "duration": 0.1019,
      "velocity": 100,
      "chip": "ym2612"
    },
    {
      "channel": 3,
      "note": 49,
      "start": 53.4641,
      "duration": 0.0197,
      "velocity": 127,
      "chip": "ym2612"
    },
    {
      "channel": 3,
      "note": 47,
      "start": 53.5045,
      "duration": 0.0202,
      "velocity": 127,
      "chip": "ym2612"
    },
    {
      "channel": 3,
      "note": 49,
      "start": 53.5454,
      "duration": 0.0204,
      "velocity": 127,
      "chip": "ym2612"
    },
    {
      "channel": 0,
      "note": 76,
      "start": 53.5856,
      "duration": 0.1022,
      "velocity": 100,
      "chip": "ym2612"
    },
    {
      "channel": 2,
      "note": 73,
      "start": 53.5863,
      "duration": 0.1019,
      "velocity": 100,
      "chip": "ym2612"
    },
    {
      "channel": 3,
      "note": 47,
      "start": 53.5869,
      "duration": 0.0197,
      "velocity": 127,
      "chip": "ym2612"
    },
    {
      "channel": 3,
      "note": 49,
      "start": 53.6274,
      "duration": 0.0202,
      "velocity": 127,
      "chip": "ym2612"
    },
    {
      "channel": 4,
      "note": 73,
      "start": 53.628,
      "duration": 0.1018,
      "velocity": 100,
      "chip": "ym2612"
    },
    {
      "channel": 3,
      "note": 47,
      "start": 53.6682,
      "duration": 0.0203,
      "velocity": 127,
      "chip": "ym2612"
    },
    {
      "channel": 0,
      "note": 80,
      "start": 53.7084,
      "duration": 0.1021,
      "velocity": 100,
      "chip": "ym2612"
    },
    {
      "channel": 2,
      "note": 76,
      "start": 53.7091,
      "duration": 0.1019,
      "velocity": 100,
      "chip": "ym2612"
    },
    {
      "channel": 3,
      "note": 49,
      "start": 53.7097,
      "duration": 0.0197,
      "velocity": 127,
      "chip": "ym2612"
    },
    {
      "channel": 3,
      "note": 47,
      "start": 53.7501,
      "duration": 0.0202,
      "velocity": 127,
      "chip": "ym2612"
    },
    {
      "channel": 4,
      "note": 73,
      "start": 53.7508,
      "duration": 0.1018,
      "velocity": 100,
      "chip": "ym2612"
    },
    {
      "channel": 3,
      "note": 49,
      "start": 53.791,
      "duration": 0.0203,
      "velocity": 127,
      "chip": "ym2612"
    },
    {
      "channel": 0,
      "note": 83,
      "start": 53.8312,
      "duration": 0.1022,
      "velocity": 100,
      "chip": "ym2612"
    },
    {
      "channel": 2,
      "note": 80,
      "start": 53.832,
      "duration": 0.1019,
      "velocity": 100,
      "chip": "ym2612"
    },
    {
      "channel": 3,
      "note": 47,
      "start": 53.8325,
      "duration": 0.0197,
      "velocity": 127,
      "chip": "ym2612"
    },
    {
      "channel": 3,
      "note": 49,
      "start": 53.8729,
      "duration": 0.0202,
      "velocity": 127,
      "chip": "ym2612"
    },
    {
      "channel": 4,
      "note": 76,
      "start": 53.8735,
      "duration": 0.1018,
      "velocity": 100,
      "chip": "ym2612"
    },
    {
      "channel": 3,
      "note": 47,
      "start": 53.9138,
      "duration": 0.0204,
      "velocity": 127,
      "chip": "ym2612"
    },
    {
      "channel": 0,
      "note": 73,
      "start": 53.9539,
      "duration": 0.4705,
      "velocity": 100,
      "chip": "ym2612"
    },
    {
      "channel": 1,
      "note": 43,
      "start": 53.9545,
      "duration": 0.9615,
      "velocity": 100,
      "chip": "ym2612"
    },
    {
      "channel": 2,
      "note": 70,
      "start": 53.955,
      "duration": 0.47,
      "velocity": 100,
      "chip": "ym2612"
    },
    {
      "channel": 3,
      "note": 49,
      "start": 53.9555,
      "duration": 0.0194,
      "velocity": 127,
      "chip": "ym2612"
    },
    {
      "channel": 3,
      "note": 47,
      "start": 53.9956,
      "duration": 0.0202,
      "velocity": 127,
      "chip": "ym2612"
    },
    {
      "channel": 4,
      "note": 80,
      "start": 53.9963,
      "duration": 0.1018,
      "velocity": 100,
      "chip": "ym2612"
    },
    {
      "channel": 3,
      "note": 49,
      "start": 54.0365,
      "duration": 0.0203,
      "velocity": 127,
      "chip": "ym2612"
    },
    {
      "channel": 3,
      "note": 47,
      "start": 54.0776,
      "duration": 0.0202,
      "velocity": 127,
      "chip": "ym2612"
    },
    {
      "channel": 3,
      "note": 49,
      "start": 54.1184,
      "duration": 0.0202,
      "velocity": 127,
      "chip": "ym2612"
    },
    {
      "channel": 4,
      "note": 83,
      "start": 54.1191,
      "duration": 0.4702,
      "velocity": 100,
      "chip": "ym2612"
    },
    {
      "channel": 3,
      "note": 47,
      "start": 54.1594,
      "duration": 0.0202,
      "velocity": 127,
      "chip": "ym2612"
    },
    {
      "channel": 3,
      "note": 49,
      "start": 54.2002,
      "duration": 0.0202,
      "velocity": 127,
      "chip": "ym2612"
    },
    {
      "channel": 3,
      "note": 47,
      "start": 54.2412,
      "duration": 0.0202,
      "velocity": 127,
      "chip": "ym2612"
    },
    {
      "channel": 3,
      "note": 49,
      "start": 54.2821,
      "duration": 0.0202,
      "velocity": 127,
      "chip": "ym2612"
    },
    {
      "channel": 3,
      "note": 47,
      "start": 54.323,
      "duration": 0.0203,
      "velocity": 127,
      "chip": "ym2612"
    },
    {
      "channel": 3,
      "note": 49,
      "start": 54.364,
      "duration": 0.0202,
      "velocity": 127,
      "chip": "ym2612"
    },
    {
      "channel": 3,
      "note": 47,
      "start": 54.4049,
      "duration": 0.0205,
      "velocity": 127,
      "chip": "ym2612"
    },
    {
      "channel": 0,
      "note": 76,
      "start": 54.4451,
      "duration": 0.1022,
      "velocity": 100,
      "chip": "ym2612"
    },
    {
      "channel": 2,
      "note": 73,
      "start": 54.4459,
      "duration": 0.1019,
      "velocity": 100,
      "chip": "ym2612"
    },
    {
      "channel": 3,
      "note": 49,
      "start": 54.4464,
      "duration": 0.0197,
      "velocity": 127,
      "chip": "ym2612"
    },
    {
      "channel": 3,
      "note": 47,
      "start": 54.4868,
      "duration": 0.0202,
      "velocity": 127,
      "chip": "ym2612"
    },
    {
      "channel": 3,
      "note": 49,
      "start": 54.5278,
      "duration": 0.0203,
      "velocity": 127,
      "chip": "ym2612"
    },
    {
      "channel": 0,
      "note": 79,
      "start": 54.5679,
      "duration": 0.1022,
      "velocity": 100,
      "chip": "ym2612"
    },
    {
      "channel": 2,
      "note": 76,
      "start": 54.5686,
      "duration": 0.1019,
      "velocity": 100,
      "chip": "ym2612"
    },
    {
      "channel": 3,
      "note": 47,
      "start": 54.5692,
      "duration": 0.0197,
      "velocity": 127,
      "chip": "ym2612"
    },
    {
      "channel": 3,
      "note": 49,
      "start": 54.6096,
      "duration": 0.0203,
      "velocity": 127,
      "chip": "ym2612"
    },
    {
      "channel": 4,
      "note": 73,
      "start": 54.6103,
      "duration": 0.1017,
      "velocity": 100,
      "chip": "ym2612"
    },
    {
      "channel": 3,
      "note": 47,
      "start": 54.6505,
      "duration": 0.0203,
      "velocity": 127,
      "chip": "ym2612"
    },
    {
      "channel": 0,
      "note": 82,
      "start": 54.6907,
      "duration": 0.1021,
      "velocity": 100,
      "chip": "ym2612"
    },
    {
      "channel": 2,
      "note": 80,
      "start": 54.6914,
      "duration": 0.1019,
      "velocity": 100,
      "chip": "ym2612"
    },
    {
      "channel": 3,
      "note": 49,
      "start": 54.6921,
      "duration": 0.0196,
      "velocity": 127,
      "chip": "ym2612"
    },
    {
      "channel": 3,
      "note": 47,
      "start": 54.7324,
      "duration": 0.0202,
      "velocity": 127,
      "chip": "ym2612"
    },
    {
      "channel": 4,
      "note": 76,
      "start": 54.7331,
      "duration": 0.1018,
      "velocity": 100,
      "chip": "ym2612"
    },
    {
      "channel": 3,
      "note": 49,
      "start": 54.7734,
      "duration": 0.0204,
      "velocity": 127,
      "chip": "ym2612"
    },
    {
      "channel": 0,
      "note": 85,
      "start": 54.8135,
      "duration": 0.1022,
      "velocity": 100,
      "chip": "ym2612"
    },
    {
      "channel": 2,
      "note": 82,
      "start": 54.8143,
      "duration": 0.1019,
      "velocity": 100,
      "chip": "ym2612"
    },
    {
      "channel": 3,
      "note": 47,
      "start": 54.8148,
      "duration": 0.0197,
      "velocity": 127,
      "chip": "ym2612"
    },
    {
      "channel": 3,
      "note": 49,
      "start": 54.8552,
      "duration": 0.0202,
      "velocity": 127,
      "chip": "ym2612"
    },
    {
      "channel": 4,
      "note": 79,
      "start": 54.8559,
      "duration": 0.1018,
      "velocity": 100,
      "chip": "ym2612"
    },
    {
      "channel": 3,
      "note": 47,
      "start": 54.8961,
      "duration": 0.0204,
      "velocity": 127,
      "chip": "ym2612"
    },
    {
      "channel": 0,
      "note": 75,
      "start": 54.9363,
      "duration": 0.4705,
      "velocity": 100,
      "chip": "ym2612"
    },
    {
      "channel": 1,
      "note": 44,
      "start": 54.9368,
      "duration": 0.9615,
      "velocity": 100,
      "chip": "ym2612"
    },
    {
      "channel": 2,
      "note": 71,
      "start": 54.9373,
      "duration": 0.47,
      "velocity": 100,
      "chip": "ym2612"
    },
    {
      "channel": 3,
      "note": 49,
      "start": 54.9403,
      "duration": 0.017,
      "velocity": 127,
      "chip": "ym2612"
    },
    {
      "channel": 3,
      "note": 47,
      "start": 54.978,
      "duration": 0.0202,
      "velocity": 127,
      "chip": "ym2612"
    },
    {
      "channel": 4,
      "note": 82,
      "start": 54.9786,
      "duration": 0.1017,
      "velocity": 100,
      "chip": "ym2612"
    },
    {
      "channel": 3,
      "note": 49,
      "start": 55.0189,
      "duration": 0.0202,
      "velocity": 127,
      "chip": "ym2612"
    },
    {
      "channel": 3,
      "note": 47,
      "start": 55.0598,
      "duration": 0.0202,
      "velocity": 127,
      "chip": "ym2612"
    },
    {
      "channel": 3,
      "note": 49,
      "start": 55.1007,
      "duration": 0.0202,
      "velocity": 127,
      "chip": "ym2612"
    },
    {
      "channel": 4,
      "note": 85,
      "start": 55.1014,
      "duration": 0.4702,
      "velocity": 100,
      "chip": "ym2612"
    },
    {
      "channel": 3,
      "note": 47,
      "start": 55.1417,
      "duration": 0.0202,
      "velocity": 127,
      "chip": "ym2612"
    },
    {
      "channel": 3,
      "note": 49,
      "start": 55.1826,
      "duration": 0.0203,
      "velocity": 127,
      "chip": "ym2612"
    },
    {
      "channel": 3,
      "note": 47,
      "start": 55.226,
      "duration": 0.0179,
      "velocity": 127,
      "chip": "ym2612"
    },
    {
      "channel": 3,
      "note": 49,
      "start": 55.2645,
      "duration": 0.0202,
      "velocity": 127,
      "chip": "ym2612"
    },
    {
      "channel": 3,
      "note": 47,
      "start": 55.3054,
      "duration": 0.0202,
      "velocity": 127,
      "chip": "ym2612"
    },
    {
      "channel": 3,
      "note": 49,
      "start": 55.3463,
      "duration": 0.0203,
      "velocity": 127,
      "chip": "ym2612"
    },
    {
      "channel": 3,
      "note": 47,
      "start": 55.3873,
      "duration": 0.0204,
      "velocity": 127,
      "chip": "ym2612"
    },
    {
      "channel": 0,
      "note": 75,
      "start": 55.4274,
      "duration": 0.1022,
      "velocity": 100,
      "chip": "ym2612"
    },
    {
      "channel": 2,
      "note": 71,
      "start": 55.4282,
      "duration": 0.1019,
      "velocity": 100,
      "chip": "ym2612"
    },
    {
      "channel": 3,
      "note": 49,
      "start": 55.4288,
      "duration": 0.0197,
      "velocity": 127,
      "chip": "ym2612"
    },
    {
      "channel": 3,
      "note": 47,
      "start": 55.4692,
      "duration": 0.0202,
      "velocity": 127,
      "chip": "ym2612"
    },
    {
      "channel": 3,
      "note": 49,
      "start": 55.5125,
      "duration": 0.0179,
      "velocity": 127,
      "chip": "ym2612"
    },
    {
      "channel": 0,
      "note": 80,
      "start": 55.5502,
      "duration": 0.1022,
      "velocity": 100,
      "chip": "ym2612"
    },
    {
      "channel": 2,
      "note": 75,
      "start": 55.551,
      "duration": 0.1019,
      "velocity": 100,
      "chip": "ym2612"
    },
    {
      "channel": 3,
      "note": 47,
      "start": 55.5515,
      "duration": 0.0197,
      "velocity": 127,
      "chip": "ym2612"
    },
    {
      "channel": 3,
      "note": 49,
      "start": 55.5919,
      "duration": 0.0203,
      "velocity": 127,
      "chip": "ym2612"
    },
    {
      "channel": 4,
      "note": 75,
      "start": 55.5926,
      "duration": 0.1018,
      "velocity": 100,
      "chip": "ym2612"
    },
    {
      "channel": 3,
      "note": 47,
      "start": 55.6328,
      "duration": 0.0204,
      "velocity": 127,
      "chip": "ym2612"
    },
    {
      "channel": 0,
      "note": 83,
      "start": 55.673,
      "duration": 0.1021,
      "velocity": 100,
      "chip": "ym2612"
    },
    {
      "channel": 2,
      "note": 80,
      "start": 55.6737,
      "duration": 0.1019,
      "velocity": 100,
      "chip": "ym2612"
    },
    {
      "channel": 3,
      "note": 49,
      "start": 55.6744,
      "duration": 0.0197,
      "velocity": 127,
      "chip": "ym2612"
    },
    {
      "channel": 3,
      "note": 47,
      "start": 55.7147,
      "duration": 0.0202,
      "velocity": 127,
      "chip": "ym2612"
    },
    {
      "channel": 4,
      "note": 75,
      "start": 55.7154,
      "duration": 0.1018,
      "velocity": 100,
      "chip": "ym2612"
    },
    {
      "channel": 3,
      "note": 49,
      "start": 55.7581,
      "duration": 0.0179,
      "velocity": 127,
      "chip": "ym2612"
    },
    {
      "channel": 0,
      "note": 87,
      "start": 55.7958,
      "duration": 0.1022,
      "velocity": 100,
      "chip": "ym2612"
    },
    {
      "channel": 2,
      "note": 83,
      "start": 55.7966,
      "duration": 0.1019,
      "velocity": 100,
      "chip": "ym2612"
    },
    {
      "channel": 3,
      "note": 47,
      "start": 55.7971,
      "duration": 0.0197,
      "velocity": 127,
      "chip": "ym2612"
    },
    {
      "channel": 3,
      "note": 49,
      "start": 55.8375,
      "duration": 0.0203,
      "velocity": 127,
      "chip": "ym2612"
    },
    {
      "channel": 4,
      "note": 80,
      "start": 55.8382,
      "duration": 0.1018,
      "velocity": 100,
      "chip": "ym2612"
    },
    {
      "channel": 3,
      "note": 47,
      "start": 55.8784,
      "duration": 0.0204,
      "velocity": 127,
      "chip": "ym2612"
    },
    {
      "channel": 0,
      "note": 76,
      "start": 55.9186,
      "duration": 0.4705,
      "velocity": 100,
      "chip": "ym2612"
    },
    {
      "channel": 1,
      "note": 43,
      "start": 55.9191,
      "duration": 0.9615,
      "velocity": 100,
      "chip": "ym2612"
    },
    {
      "channel": 2,
      "note": 70,
      "start": 55.9196,
      "duration": 0.47,
      "velocity": 100,
      "chip": "ym2612"
    },
    {
      "channel": 3,
      "note": 49,
      "start": 55.9202,
      "duration": 0.0193,
      "velocity": 127,
      "chip": "ym2612"
    },
    {
      "channel": 3,
      "note": 47,
      "start": 55.9603,
      "duration": 0.0202,
      "velocity": 127,
      "chip": "ym2612"
    },
    {
      "channel": 4,
      "note": 83,
      "start": 55.961,
      "duration": 0.1018,
      "velocity": 100,
      "chip": "ym2612"
    },
    {
      "channel": 3,
      "note": 49,
      "start": 56.0012,
      "duration": 0.0202,
      "velocity": 127,
      "chip": "ym2612"
    },
    {
      "channel": 3,
      "note": 47,
      "start": 56.0421,
      "duration": 0.0203,
      "velocity": 127,
      "chip": "ym2612"
    },
    {
      "channel": 3,
      "note": 49,
      "start": 56.0831,
      "duration": 0.0202,
      "velocity": 127,
      "chip": "ym2612"
    },
    {
      "channel": 4,
      "note": 87,
      "start": 56.0837,
      "duration": 0.4702,
      "velocity": 100,
      "chip": "ym2612"
    },
    {
      "channel": 3,
      "note": 47,
      "start": 56.124,
      "duration": 0.0203,
      "velocity": 127,
      "chip": "ym2612"
    },
    {
      "channel": 3,
      "note": 49,
      "start": 56.1649,
      "duration": 0.0202,
      "velocity": 127,
      "chip": "ym2612"
    },
    {
      "channel": 3,
      "note": 47,
      "start": 56.2059,
      "duration": 0.0202,
      "velocity": 127,
      "chip": "ym2612"
    },
    {
      "channel": 3,
      "note": 49,
      "start": 56.2468,
      "duration": 0.0202,
      "velocity": 127,
      "chip": "ym2612"
    },
    {
      "channel": 3,
      "note": 47,
      "start": 56.2877,
      "duration": 0.0203,
      "velocity": 127,
      "chip": "ym2612"
    },
    {
      "channel": 3,
      "note": 49,
      "start": 56.3286,
      "duration": 0.0202,
      "velocity": 127,
      "chip": "ym2612"
    },
    {
      "channel": 3,
      "note": 47,
      "start": 56.3695,
      "duration": 0.0205,
      "velocity": 127,
      "chip": "ym2612"
    },
    {
      "channel": 0,
      "note": 79,
      "start": 56.4097,
      "duration": 0.1022,
      "velocity": 100,
      "chip": "ym2612"
    },
    {
      "channel": 2,
      "note": 76,
      "start": 56.4106,
      "duration": 0.1018,
      "velocity": 100,
      "chip": "ym2612"
    },
    {
      "channel": 3,
      "note": 49,
      "start": 56.4111,
      "duration": 0.0196,
      "velocity": 127,
      "chip": "ym2612"
    },
    {
      "channel": 3,
      "note": 47,
      "start": 56.4515,
      "duration": 0.0202,
      "velocity": 127,
      "chip": "ym2612"
    },
    {
      "channel": 3,
      "note": 49,
      "start": 56.4924,
      "duration": 0.0203,
      "velocity": 127,
      "chip": "ym2612"
    },
    {
      "channel": 0,
      "note": 82,
      "start": 56.5325,
      "duration": 0.1022,
      "velocity": 100,
      "chip": "ym2612"
    },
    {
      "channel": 2,
      "note": 79,
      "start": 56.5333,
      "duration": 0.1019,
      "velocity": 100,
      "chip": "ym2612"
    },
    {
      "channel": 3,
      "note": 47,
      "start": 56.5339,
      "duration": 0.0197,
      "velocity": 127,
      "chip": "ym2612"
    },
    {
      "channel": 3,
      "note": 49,
      "start": 56.5742,
      "duration": 0.0203,
      "velocity": 127,
      "chip": "ym2612"
    },
    {
      "channel": 4,
      "note": 76,
      "start": 56.5749,
      "duration": 0.1018,
      "velocity": 100,
      "chip": "ym2612"
    },
    {
      "channel": 3,
      "note": 47,
      "start": 56.6151,
      "duration": 0.0204,
      "velocity": 127,
      "chip": "ym2612"
    },
    {
      "channel": 0,
      "note": 85,
      "start": 56.6554,
      "duration": 0.1021,
      "velocity": 100,
      "chip": "ym2612"
    },
    {
      "channel": 2,
      "note": 82,
      "start": 56.6561,
      "duration": 0.1019,
      "velocity": 100,
      "chip": "ym2612"
    },
    {
      "channel": 3,
      "note": 49,
      "start": 56.6567,
      "duration": 0.0197,
      "velocity": 127,
      "chip": "ym2612"
    },
    {
      "channel": 3,
      "note": 47,
      "start": 56.697,
      "duration": 0.0202,
      "velocity": 127,
      "chip": "ym2612"
    },
    {
      "channel": 4,
      "note": 79,
      "start": 56.6977,
      "duration": 0.1018,
      "velocity": 100,
      "chip": "ym2612"
    },
    {
      "channel": 3,
      "note": 49,
      "start": 56.738,
      "duration": 0.0203,
      "velocity": 127,
      "chip": "ym2612"
    },
    {
      "channel": 0,
      "note": 88,
      "start": 56.7781,
      "duration": 0.1022,
      "velocity": 100,
      "chip": "ym2612"
    },
    {
      "channel": 2,
      "note": 85,
      "start": 56.7789,
      "duration": 0.1019,
      "velocity": 100,
      "chip": "ym2612"
    },
    {
      "channel": 3,
      "note": 47,
      "start": 56.7795,
      "duration": 0.0197,
      "velocity": 127,
      "chip": "ym2612"
    },
    {
      "channel": 3,
      "note": 49,
      "start": 56.8199,
      "duration": 0.0202,
      "velocity": 127,
      "chip": "ym2612"
    },
    {
      "channel": 4,
      "note": 82,
      "start": 56.8205,
      "duration": 0.0906,
      "velocity": 100,
      "chip": "ym2612"
    },
    {
      "channel": 3,
      "note": 47,
      "start": 56.8608,
      "duration": 0.0203,
      "velocity": 127,
      "chip": "ym2612"
    },
    {
      "channel": 0,
      "note": 90,
      "start": 56.901,
      "duration": 0.2807,
      "velocity": 100,
      "chip": "ym2612"
    },
    {
      "channel": 1,
      "note": 42,
      "start": 56.9014,
      "duration": 0.0193,
      "velocity": 100,
      "chip": "ym2612"
    },
    {
      "channel": 2,
      "note": 87,
      "start": 56.9019,
      "duration": 0.2803,
      "velocity": 100,
      "chip": "ym2612"
    },
    {
      "channel": 3,
      "note": 49,
      "start": 56.9073,
      "duration": 1.5032,
      "velocity": 127,
      "chip": "ym2612"
    },
    {
      "channel": 4,
      "note": 85,
      "start": 56.9137,
      "duration": 0.0132,
      "velocity": 100,
      "chip": "ym2612"
    },
    {
      "channel": 1,
      "note": 47,
      "start": 56.9233,
      "duration": 0.0132,
      "velocity": 100,
      "chip": "ym2612"
    },
    {
      "channel": 4,
      "note": 88,
      "start": 56.9295,
      "duration": 0.4169,
      "velocity": 100,
      "chip": "ym2612"
    },
    {
      "channel": 1,
      "note": 51,
      "start": 56.939,
      "duration": 0.0128,
      "velocity": 100,
      "chip": "ym2612"
    },
    {
      "channel": 1,
      "note": 52,
      "start": 56.9544,
      "duration": 0.0129,
      "velocity": 100,
      "chip": "ym2612"
    },
    {
      "channel": 1,
      "note": 54,
      "start": 56.97,
      "duration": 1.4398,
      "velocity": 100,
      "chip": "ym2612"
    },
    {
      "channel": 0,
      "note": 90,
      "start": 57.2023,
      "duration": 0.2249,
      "velocity": 100,
      "chip": "ym2612"
    },
    {
      "channel": 2,
      "note": 87,
      "start": 57.203,
      "duration": 0.2247,
      "velocity": 100,
      "chip": "ym2612"
    },
    {
      "channel": 4,
      "note": 90,
      "start": 57.3671,
      "duration": 0.2249,
      "velocity": 100,
      "chip": "ym2612"
    },
    {
      "channel": 0,
      "note": 88,
      "start": 57.4479,
      "duration": 0.4705,
      "velocity": 100,
      "chip": "ym2612"
    },
    {
      "channel": 2,
      "note": 83,
      "start": 57.4486,
      "duration": 0.4703,
      "velocity": 100,
      "chip": "ym2612"
    },
    {
      "channel": 4,
      "note": 90,
      "start": 57.6127,
      "duration": 0.4705,
      "velocity": 100,
      "chip": "ym2612"
    },
    {
      "channel": 0,
      "note": 87,
      "start": 57.939,
      "duration": 0.4705,
      "velocity": 100,
      "chip": "ym2612"
    },
    {
      "channel": 2,
      "note": 78,
      "start": 57.9398,
      "duration": 0.4703,
      "velocity": 100,
      "chip": "ym2612"
    },
    {
      "channel": 4,
      "note": 88,
      "start": 58.1039,
      "duration": 0.3462,
      "velocity": 100,
      "chip": "ym2612"
    },
    {
      "channel": 0,
      "note": 87,
      "start": 58.4302,
      "duration": 0.2807,
      "velocity": 100,
      "chip": "ym2612"
    },
    {
      "channel": 1,
      "note": 56,
      "start": 58.4307,
      "duration": 0.526,
      "velocity": 100,
      "chip": "ym2612"
    },
    {
      "channel": 2,
      "note": 84,
      "start": 58.4312,
      "duration": 0.2802,
      "velocity": 100,
      "chip": "ym2612"
    },
    {
      "channel": 4,
      "note": 87,
      "start": 58.4528,
      "duration": 0.423,
      "velocity": 100,
      "chip": "ym2612"
    },
    {
      "channel": 0,
      "note": 87,
      "start": 58.7316,
      "duration": 0.2249,
      "velocity": 100,
      "chip": "ym2612"
    },
    {
      "channel": 2,
      "note": 84,
      "start": 58.7323,
      "duration": 0.2247,
      "velocity": 100,
      "chip": "ym2612"
    },
    {
      "channel": 4,
      "note": 87,
      "start": 58.8964,
      "duration": 0.2248,
      "velocity": 100,
      "chip": "ym2612"
    },
    {
      "channel": 0,
      "note": 85,
      "start": 58.9772,
      "duration": 0.4705,
      "velocity": 100,
      "chip": "ym2612"
    },
    {
      "channel": 1,
      "note": 44,
      "start": 58.9776,
      "duration": 0.9615,
      "velocity": 100,
      "chip": "ym2612"
    },
    {
      "channel": 2,
      "note": 80,
      "start": 58.9781,
      "duration": 0.47,
      "velocity": 100,
      "chip": "ym2612"
    },
    {
      "channel": 4,
      "note": 87,
      "start": 59.142,
      "duration": 0.4705,
      "velocity": 100,
      "chip": "ym2612"
    },
    {
      "channel": 0,
      "note": 84,
      "start": 59.4683,
      "duration": 0.4705,
      "velocity": 100,
      "chip": "ym2612"
    },
    {
      "channel": 2,
      "note": 75,
      "start": 59.469,
      "duration": 0.4704,
      "velocity": 100,
      "chip": "ym2612"
    },
    {
      "channel": 4,
      "note": 85,
      "start": 59.6331,
      "duration": 0.3465,
      "velocity": 100,
      "chip": "ym2612"
    },
    {
      "channel": 0,
      "note": 83,
      "start": 59.9594,
      "duration": 0.2807,
      "velocity": 100,
      "chip": "ym2612"
    },
    {
      "channel": 1,
      "note": 44,
      "start": 59.9599,
      "duration": 0.0136,
      "velocity": 100,
      "chip": "ym2612"
    },
    {
      "channel": 2,
      "note": 80,
      "start": 59.9605,
      "duration": 0.2802,
      "velocity": 100,
      "chip": "ym2612"
    },
    {
      "channel": 1,
      "note": 47,
      "start": 59.9761,
      "duration": 0.0132,
      "velocity": 100,
      "chip": "ym2612"
    },
    {
      "channel": 4,
      "note": 84,
      "start": 59.9823,
      "duration": 0.4226,
      "velocity": 100,
      "chip": "ym2612"
    },
    {
      "channel": 1,
      "note": 49,
      "start": 59.9919,
      "duration": 0.0129,
      "velocity": 100,
      "chip": "ym2612"
    },
    {
      "channel": 1,
      "note": 51,
      "start": 60.0073,
      "duration": 0.0129,
      "velocity": 100,
      "chip": "ym2612"
    },
    {
      "channel": 1,
      "note": 56,
      "start": 60.0228,
      "duration": 1.4455,
      "velocity": 100,
      "chip": "ym2612"
    },
    {
      "channel": 0,
      "note": 83,
      "start": 60.2608,
      "duration": 0.2249,
      "velocity": 100,
      "chip": "ym2612"
    },
    {
      "channel": 2,
      "note": 80,
      "start": 60.2615,
      "duration": 0.2248,
      "velocity": 100,
      "chip": "ym2612"
    },
    {
      "channel": 4,
      "note": 83,
      "start": 60.4256,
      "duration": 0.2249,
      "velocity": 100,
      "chip": "ym2612"
    },
    {
      "channel": 0,
      "note": 82,
      "start": 60.5063,
      "duration": 0.4705,
      "velocity": 100,
      "chip": "ym2612"
    },
    {
      "channel": 2,
      "note": 75,
      "start": 60.5071,
      "duration": 0.4703,
      "velocity": 100,
      "chip": "ym2612"
    },
    {
      "channel": 4,
      "note": 83,
      "start": 60.6712,
      "duration": 0.4704,
      "velocity": 100,
      "chip": "ym2612"
    },
    {
      "channel": 0,
      "note": 80,
      "start": 60.9975,
      "duration": 0.4705,
      "velocity": 100,
      "chip": "ym2612"
    },
    {
      "channel": 2,
      "note": 71,
      "start": 60.9983,
      "duration": 0.4704,
      "velocity": 100,
      "chip": "ym2612"
    },
    {
      "channel": 4,
      "note": 82,
      "start": 61.1623,
      "duration": 0.3462,
      "velocity": 100,
      "chip": "ym2612"
    },
    {
      "channel": 0,
      "note": 79,
      "start": 61.4887,
      "duration": 0.2806,
      "velocity": 100,
      "chip": "ym2612"
    },
    {
      "channel": 1,
      "note": 57,
      "start": 61.4892,
      "duration": 0.5259,
      "velocity": 100,
      "chip": "ym2612"
    },
    {
      "channel": 2,
      "note": 76,
      "start": 61.4897,
      "duration": 0.2801,
      "velocity": 100,
      "chip": "ym2612"
    },
    {
      "channel": 4,
      "note": 80,
      "start": 61.5112,
      "duration": 0.4229,
      "velocity": 100,
      "chip": "ym2612"
    },
    {
      "channel": 0,
      "note": 79,
      "start": 61.7899,
      "duration": 0.2249,
      "velocity": 100,
      "chip": "ym2612"
    },
    {
      "channel": 2,
      "note": 76,
      "start": 61.7906,
      "duration": 0.2247,
      "velocity": 100,
      "chip": "ym2612"
    },
    {
      "channel": 4,
      "note": 79,
      "start": 61.9547,
      "duration": 0.2248,
      "velocity": 100,
      "chip": "ym2612"
    },
    {
      "channel": 0,
      "note": 78,
      "start": 62.0355,
      "duration": 0.4705,
      "velocity": 100,
      "chip": "ym2612"
    },
    {
      "channel": 1,
      "note": 57,
      "start": 62.0361,
      "duration": 0.4702,
      "velocity": 100,
      "chip": "ym2612"
    },
    {
      "channel": 2,
      "note": 73,
      "start": 62.0366,
      "duration": 0.47,
      "velocity": 100,
      "chip": "ym2612"
    },
    {
      "channel": 4,
      "note": 79,
      "start": 62.2003,
      "duration": 0.3513,
      "velocity": 100,
      "chip": "ym2612"
    },
    {
      "channel": 0,
      "note": 76,
      "start": 62.5266,
      "duration": 0.1455,
      "velocity": 100,
      "chip": "ym2612"
    },
    {
      "channel": 1,
      "note": 45,
      "start": 62.5271,
      "duration": 0.1453,
      "velocity": 100,
      "chip": "ym2612"
    },
    {
      "channel": 2,
      "note": 69,
      "start": 62.5276,
      "duration": 0.145,
      "velocity": 100,
      "chip": "ym2612"
    },
    {
      "channel": 3,
      "note": 67,
      "start": 62.533,
      "duration": 0.14,
      "velocity": 127,
      "chip": "ym2612"
    },
    {
      "channel": 4,
      "note": 78,
      "start": 62.5543,
      "duration": 0.1762,
      "velocity": 100,
      "chip": "ym2612"
    },
    {
      "channel": 0,
      "note": 74,
      "start": 62.6966,
      "duration": 0.0489,
      "velocity": 99,
      "chip": "ym2612"
    },
    {
      "channel": 1,
      "note": 50,
      "start": 62.7012,
      "duration": 0.0446,
      "velocity": 98,
      "chip": "ym2612"
    },
    {
      "channel": 3,
      "note": 47,
      "start": 62.7115,
      "duration": 0.0001,
      "velocity": 127,
      "chip": "ym2612"
    },
    {
      "channel": 3,
      "note": 49,
      "start": 62.716,
      "duration": 0.0302,
      "velocity": 127,
      "chip": "ym2612"
    },
    {
      "channel": 4,
      "note": 76,
      "start": 62.7387,
      "duration": 0.0307,
      "velocity": 99,
      "chip": "ym2612"
    },
    {
      "channel": 0,
      "note": 74,
      "start": 62.7482,
      "duration": 0.014,
      "velocity": 99,
      "chip": "ym2612"
    },
    {
      "channel": 1,
      "note": 50,
      "start": 62.7487,
      "duration": 0.0138,
      "velocity": 98,
      "chip": "ym2612"
    },
    {
      "channel": 3,
      "note": 47,
      "start": 62.7495,
      "duration": 0.0135,
      "velocity": 127,
      "chip": "ym2612"
    },
    {
      "channel": 0,
      "note": 74,
      "start": 62.7649,
      "duration": 0.0145,
      "velocity": 99,
      "chip": "ym2612"
    },
    {
      "channel": 1,
      "note": 50,
      "start": 62.7654,
      "duration": 0.0142,
      "velocity": 98,
      "chip": "ym2612"
    },
    {
      "channel": 3,
      "note": 47,
      "start": 62.7662,
      "duration": 0.0139,
      "velocity": 127,
      "chip": "ym2612"
    },
    {
      "channel": 4,
      "note": 74,
      "start": 62.772,
      "duration": 0.0145,
      "velocity": 99,
      "chip": "ym2612"
    },
    {
      "channel": 0,
      "note": 74,
      "start": 62.782,
      "duration": 0.1915,
      "velocity": 99,
      "chip": "ym2612"
    },
    {
      "channel": 1,
      "note": 50,
      "start": 62.7825,
      "duration": 0.1912,
      "velocity": 98,
      "chip": "ym2612"
    },
    {
      "channel": 3,
      "note": 47,
      "start": 62.7834,
      "duration": 0.191,
      "velocity": 127,
      "chip": "ym2612"
    },
    {
      "channel": 4,
      "note": 74,
      "start": 62.7905,
      "duration": 0.1022,
      "velocity": 99,
      "chip": "ym2612"
    },
    {
      "channel": 4,
      "note": 74,
      "start": 62.9133,
      "duration": 0.225,
      "velocity": 99,
      "chip": "ym2612"
    },
    {
      "channel": 0,
      "note": 69,
      "start": 62.9942,
      "duration": 0.2249,
      "velocity": 99,
      "chip": "ym2612"
    },
    {
      "channel": 1,
      "note": 50,
      "start": 62.9946,
      "duration": 0.2247,
      "velocity": 98,
      "chip": "ym2612"
    },
    {
      "channel": 3,
      "note": 47,
      "start": 62.9955,
      "duration": 0.2244,
      "velocity": 127,
      "chip": "ym2612"
    },
    {
      "channel": 4,
      "note": 74,
      "start": 63.159,
      "duration": 0.2248,
      "velocity": 99,
      "chip": "ym2612"
    },
    {
      "channel": 0,
      "note": 74,
      "start": 63.2397,
      "duration": 0.2249,
      "velocity": 99,
      "chip": "ym2612"
    },
    {
      "channel": 1,
      "note": 50,
      "start": 63.2402,
      "duration": 0.2247,
      "velocity": 98,
      "chip": "ym2612"
    },
    {
      "channel": 3,
      "note": 47,
      "start": 63.241,
      "duration": 0.2244,
      "velocity": 127,
      "chip": "ym2612"
    },
    {
      "channel": 4,
      "note": 69,
      "start": 63.4045,
      "duration": 0.2249,
      "velocity": 99,
      "chip": "ym2612"
    },
    {
      "channel": 0,
      "note": 69,
      "start": 63.4853,
      "duration": 0.2249,
      "velocity": 99,
      "chip": "ym2612"
    },
    {
      "channel": 1,
      "note": 50,
      "start": 63.4858,
      "duration": 0.2246,
      "velocity": 98,
      "chip": "ym2612"
    },
    {
      "channel": 3,
      "note": 47,
      "start": 63.4867,
      "duration": 0.2244,
      "velocity": 127,
      "chip": "ym2612"
    },
    {
      "channel": 4,
      "note": 74,
      "start": 63.6501,
      "duration": 0.0996,
      "velocity": 99,
      "chip": "ym2612"
    },
    {
      "channel": 1,
      "note": 50,
      "start": 63.7312,
      "duration": 0.0273,
      "velocity": 98,
      "chip": "ym2612"
    },
    {
      "channel": 3,
      "note": 47,
      "start": 63.7321,
      "duration": 0.0271,
      "velocity": 127,
      "chip": "ym2612"
    },
    {
      "channel": 0,
      "note": 74,
      "start": 63.7612,
      "duration": 0.0283,
      "velocity": 99,
      "chip": "ym2612"
    },
    {
      "channel": 1,
      "note": 50,
      "start": 63.7617,
      "duration": 0.0281,
      "velocity": 98,
      "chip": "ym2612"
    },
    {
      "channel": 2,
      "note": 69,
      "start": 63.7623,
      "duration": 0.0278,
      "velocity": 99,
      "chip": "ym2612"
    },
    {
      "channel": 3,
      "note": 45,
      "start": 63.7628,
      "duration": 0.0276,
      "velocity": 127,
      "chip": "ym2612"
    },
    {
      "channel": 4,
      "note": 69,
      "start": 63.7827,
      "duration": 0.0296,
      "velocity": 99,
      "chip": "ym2612"
    },
    {
      "channel": 0,
      "note": 78,
      "start": 63.7924,
      "duration": 0.0293,
      "velocity": 99,
      "chip": "ym2612"
    },
    {
      "channel": 1,
      "note": 50,
      "start": 63.7931,
      "duration": 0.0289,
      "velocity": 98,
      "chip": "ym2612"
    },
    {
      "channel": 2,
      "note": 74,
      "start": 63.7936,
      "duration": 0.0287,
      "velocity": 99,
      "chip": "ym2612"
    },
    {
      "channel": 3,
      "note": 47,
      "start": 63.7943,
      "duration": 0.0001,
      "velocity": 127,
      "chip": "ym2612"
    },
    {
      "channel": 3,
      "note": 49,
      "start": 63.7978,
      "duration": 0.0247,
      "velocity": 127,
      "chip": "ym2612"
    },
    {
      "channel": 4,
      "note": 74,
      "start": 63.8149,
      "duration": 0.0312,
      "velocity": 99,
      "chip": "ym2612"
    },
    {
      "channel": 0,
      "note": 78,
      "start": 63.8244,
      "duration": 0.0142,
      "velocity": 99,
      "chip": "ym2612"
    },
    {
      "channel": 1,
      "note": 50,
      "start": 63.825,
      "duration": 0.0139,
      "velocity": 98,
      "chip": "ym2612"
    },
    {
      "channel": 2,
      "note": 74,
      "start": 63.8254,
      "duration": 0.0138,
      "velocity": 99,
      "chip": "ym2612"
    },
    {
      "channel": 3,
      "note": 47,
      "start": 63.826,
      "duration": 0.0134,
      "velocity": 127,
      "chip": "ym2612"
    },
    {
      "channel": 0,
      "note": 78,
      "start": 63.8414,
      "duration": 0.0147,
      "velocity": 99,
      "chip": "ym2612"
    },
    {
      "channel": 1,
      "note": 50,
      "start": 63.8419,
      "duration": 0.0145,
      "velocity": 98,
      "chip": "ym2612"
    },
    {
      "channel": 2,
      "note": 74,
      "start": 63.8424,
      "duration": 0.0142,
      "velocity": 99,
      "chip": "ym2612"
    },
    {
      "channel": 3,
      "note": 47,
      "start": 63.843,
      "duration": 0.0139,
      "velocity": 127,
      "chip": "ym2612"
    },
    {
      "channel": 4,
      "note": 78,
      "start": 63.8488,
      "duration": 0.0204,
      "velocity": 99,
      "chip": "ym2612"
    },
    {
      "channel": 0,
      "note": 78,
      "start": 63.8588,
      "duration": 0.214,
      "velocity": 99,
      "chip": "ym2612"
    },
    {
      "channel": 1,
      "note": 50,
      "start": 63.8592,
      "duration": 0.2138,
      "velocity": 98,
      "chip": "ym2612"
    },
    {
      "channel": 2,
      "note": 74,
      "start": 63.8598,
      "duration": 0.2135,
      "velocity": 99,
      "chip": "ym2612"
    },
    {
      "channel": 3,
      "note": 47,
      "start": 63.8604,
      "duration": 0.2132,
      "velocity": 127,
      "chip": "ym2612"
    },
    {
      "channel": 4,
      "note": 78,
      "start": 63.8898,
      "duration": 0.1021,
      "velocity": 99,
      "chip": "ym2612"
    },
    {
      "channel": 4,
      "note": 78,
      "start": 64.0126,
      "duration": 0.2249,
      "velocity": 99,
      "chip": "ym2612"
    },
    {
      "channel": 0,
      "note": 74,
      "start": 64.0934,
      "duration": 0.2249,
      "velocity": 99,
      "chip": "ym2612"
    },
    {
      "channel": 1,
      "note": 50,
      "start": 64.0939,
      "duration": 0.2247,
      "velocity": 98,
      "chip": "ym2612"
    },
    {
      "channel": 2,
      "note": 69,
      "start": 64.0944,
      "duration": 0.2244,
      "velocity": 99,
      "chip": "ym2612"
    },
    {
      "channel": 3,
      "note": 47,
      "start": 64.095,
      "duration": 0.2241,
      "velocity": 127,
      "chip": "ym2612"
    },
    {
      "channel": 4,
      "note": 78,
      "start": 64.2581,
      "duration": 0.2249,
      "velocity": 99,
      "chip": "ym2612"
    },
    {
      "channel": 0,
      "note": 78,
      "start": 64.3391,
      "duration": 0.2249,
      "velocity": 99,
      "chip": "ym2612"
    },
    {
      "channel": 1,
      "note": 50,
      "start": 64.3395,
      "duration": 0.2247,
      "velocity": 98,
      "chip": "ym2612"
    },
    {
      "channel": 2,
      "note": 74,
      "start": 64.34,
      "duration": 0.2244,
      "velocity": 99,
      "chip": "ym2612"
    },
    {
      "channel": 3,
      "note": 47,
      "start": 64.3407,
      "duration": 0.2241,
      "velocity": 127,
      "chip": "ym2612"
    },
    {
      "channel": 4,
      "note": 74,
      "start": 64.5038,
      "duration": 0.2249,
      "velocity": 99,
      "chip": "ym2612"
    },
    {
      "channel": 0,
      "note": 74,
      "start": 64.5846,
      "duration": 0.2249,
      "velocity": 99,
      "chip": "ym2612"
    },
    {
      "channel": 1,
      "note": 50,
      "start": 64.5851,
      "duration": 0.2247,
      "velocity": 98,
      "chip": "ym2612"
    },
    {
      "channel": 2,
      "note": 69,
      "start": 64.5856,
      "duration": 0.2245,
      "velocity": 99,
      "chip": "ym2612"
    },
    {
      "channel": 3,
      "note": 47,
      "start": 64.5862,
      "duration": 0.2242,
      "velocity": 127,
      "chip": "ym2612"
    },
    {
      "channel": 4,
      "note": 78,
      "start": 64.7494,
      "duration": 0.0994,
      "velocity": 99,
      "chip": "ym2612"
    },
    {
      "channel": 1,
      "note": 50,
      "start": 64.8305,
      "duration": 0.0271,
      "velocity": 98,
      "chip": "ym2612"
    },
    {
      "channel": 3,
      "note": 47,
      "start": 64.8314,
      "duration": 0.0267,
      "velocity": 127,
      "chip": "ym2612"
    },
    {
      "channel": 0,
      "note": 78,
      "start": 64.8601,
      "duration": 0.0283,
      "velocity": 99,
      "chip": "ym2612"
    },
    {
      "channel": 1,
      "note": 50,
      "start": 64.8607,
      "duration": 0.028,
      "velocity": 98,
      "chip": "ym2612"
    },
    {
      "channel": 2,
      "note": 74,
      "start": 64.8611,
      "duration": 0.0278,
      "velocity": 99,
      "chip": "ym2612"
    },
    {
      "channel": 3,
      "note": 45,
      "start": 64.8617,
      "duration": 0.0275,
      "velocity": 127,
      "chip": "ym2612"
    },
    {
      "channel": 4,
      "note": 74,
      "start": 64.8816,
      "duration": 0.03,
      "velocity": 99,
      "chip": "ym2612"
    },
    {
      "channel": 0,
      "note": 81,
      "start": 64.8917,
      "duration": 0.0293,
      "velocity": 99,
      "chip": "ym2612"
    },
    {
      "channel": 1,
      "note": 50,
      "start": 64.8924,
      "duration": 0.0289,
      "velocity": 98,
      "chip": "ym2612"
    },
    {
      "channel": 2,
      "note": 78,
      "start": 64.8929,
      "duration": 0.0286,
      "velocity": 99,
      "chip": "ym2612"
    },
    {
      "channel": 3,
      "note": 47,
      "start": 64.8936,
      "duration": 0.0001,
      "velocity": 127,
      "chip": "ym2612"
    },
    {
      "channel": 3,
      "note": 49,
      "start": 64.8971,
      "duration": 0.0247,
      "velocity": 127,
      "chip": "ym2612"
    },
    {
      "channel": 4,
      "note": 78,
      "start": 64.9142,
      "duration": 0.0312,
      "velocity": 99,
      "chip": "ym2612"
    },
    {
      "channel": 0,
      "note": 81,
      "start": 64.9236,
      "duration": 0.0143,
      "velocity": 99,
      "chip": "ym2612"
    },
    {
      "channel": 1,
      "note": 50,
      "start": 64.9241,
      "duration": 0.0141,
      "velocity": 98,
      "chip": "ym2612"
    },
    {
      "channel": 2,
      "note": 78,
      "start": 64.9246,
      "duration": 0.0138,
      "velocity": 99,
      "chip": "ym2612"
    },
    {
      "channel": 3,
      "note": 47,
      "start": 64.9253,
      "duration": 0.0135,
      "velocity": 127,
      "chip": "ym2612"
    },
    {
      "channel": 0,
      "note": 81,
      "start": 64.9407,
      "duration": 0.0147,
      "velocity": 99,
      "chip": "ym2612"
    },
    {
      "channel": 1,
      "note": 50,
      "start": 64.9411,
      "duration": 0.0145,
      "velocity": 98,
      "chip": "ym2612"
    },
    {
      "channel": 2,
      "note": 78,
      "start": 64.9416,
      "duration": 0.0143,
      "velocity": 99,
      "chip": "ym2612"
    },
    {
      "channel": 3,
      "note": 47,
      "start": 64.9423,
      "duration": 0.014,
      "velocity": 127,
      "chip": "ym2612"
    },
    {
      "channel": 4,
      "note": 81,
      "start": 64.9481,
      "duration": 0.0206,
      "velocity": 99,
      "chip": "ym2612"
    },
    {
      "channel": 0,
      "note": 81,
      "start": 64.9582,
      "duration": 0.2141,
      "velocity": 99,
      "chip": "ym2612"
    },
    {
      "channel": 1,
      "note": 50,
      "start": 64.9586,
      "duration": 0.2139,
      "velocity": 98,
      "chip": "ym2612"
    },
    {
      "channel": 2,
      "note": 78,
      "start": 64.9591,
      "duration": 0.2137,
      "velocity": 99,
      "chip": "ym2612"
    },
    {
      "channel": 3,
      "note": 47,
      "start": 64.9598,
      "duration": 0.2133,
      "velocity": 127,
      "chip": "ym2612"
    },
    {
      "channel": 4,
      "note": 81,
      "start": 64.9893,
      "duration": 0.1021,
      "velocity": 99,
      "chip": "ym2612"
    },
    {
      "channel": 4,
      "note": 81,
      "start": 65.1122,
      "duration": 0.2249,
      "velocity": 99,
      "chip": "ym2612"
    },
    {
      "channel": 0,
      "note": 78,
      "start": 65.1929,
      "duration": 0.2249,
      "velocity": 99,
      "chip": "ym2612"
    },
    {
      "channel": 1,
      "note": 50,
      "start": 65.1934,
      "duration": 0.2247,
      "velocity": 98,
      "chip": "ym2612"
    },
    {
      "channel": 2,
      "note": 74,
      "start": 65.1939,
      "duration": 0.2244,
      "velocity": 99,
      "chip": "ym2612"
    },
    {
      "channel": 3,
      "note": 47,
      "start": 65.1945,
      "duration": 0.2241,
      "velocity": 127,
      "chip": "ym2612"
    },
    {
      "channel": 4,
      "note": 81,
      "start": 65.3576,
      "duration": 0.2249,
      "velocity": 99,
      "chip": "ym2612"
    },
    {
      "channel": 0,
      "note": 81,
      "start": 65.4385,
      "duration": 0.2249,
      "velocity": 99,
      "chip": "ym2612"
    },
    {
      "channel": 1,
      "note": 50,
      "start": 65.439,
      "duration": 0.2247,
      "velocity": 98,
      "chip": "ym2612"
    },
    {
      "channel": 2,
      "note": 78,
      "start": 65.4395,
      "duration": 0.2244,
      "velocity": 99,
      "chip": "ym2612"
    },
    {
      "channel": 3,
      "note": 47,
      "start": 65.4401,
      "duration": 0.2241,
      "velocity": 127,
      "chip": "ym2612"
    },
    {
      "channel": 4,
      "note": 78,
      "start": 65.6032,
      "duration": 0.2249,
      "velocity": 99,
      "chip": "ym2612"
    },
    {
      "channel": 0,
      "note": 78,
      "start": 65.6841,
      "duration": 0.2249,
      "velocity": 99,
      "chip": "ym2612"
    },
    {
      "channel": 1,
      "note": 50,
      "start": 65.6845,
      "duration": 0.2247,
      "velocity": 98,
      "chip": "ym2612"
    },
    {
      "channel": 2,
      "note": 74,
      "start": 65.6851,
      "duration": 0.2244,
      "velocity": 99,
      "chip": "ym2612"
    },
    {
      "channel": 3,
      "note": 47,
      "start": 65.6857,
      "duration": 0.2241,
      "velocity": 127,
      "chip": "ym2612"
    },
    {
      "channel": 4,
      "note": 81,
      "start": 65.8488,
      "duration": 0.0994,
      "velocity": 99,
      "chip": "ym2612"
    },
    {
      "channel": 1,
      "note": 50,
      "start": 65.93,
      "duration": 0.0271,
      "velocity": 98,
      "chip": "ym2612"
    },
    {
      "channel": 3,
      "note": 47,
      "start": 65.9309,
      "duration": 0.0267,
      "velocity": 127,
      "chip": "ym2612"
    },
    {
      "channel": 0,
      "note": 86,
      "start": 65.963,
      "duration": 0.0365,
      "velocity": 100,
      "chip": "ym2612"
    },
    {
      "channel": 1,
      "note": 50,
      "start": 65.9635,
      "duration": 0.0362,
      "velocity": 98,
      "chip": "ym2612"
    },
    {
      "channel": 2,
      "note": 74,
      "start": 65.9672,
      "duration": 0.0327,
      "velocity": 100,
      "chip": "ym2612"
    },
    {
      "channel": 3,
      "note": 45,
      "start": 65.9678,
      "duration": 0.0325,
      "velocity": 127,
      "chip": "ym2612"
    },
    {
      "channel": 4,
      "note": 78,
      "start": 65.9926,
      "duration": 0.1537,
      "velocity": 100,
      "chip": "ym2612"
    },
    {
      "channel": 0,
      "note": 85,
      "start": 66.0023,
      "duration": 0.2248,
      "velocity": 100,
      "chip": "ym2612"
    },
    {
      "channel": 1,
      "note": 57,
      "start": 66.0031,
      "duration": 0.2243,
      "velocity": 98,
      "chip": "ym2612"
    },
    {
      "channel": 2,
      "note": 73,
      "start": 66.0037,
      "duration": 0.2239,
      "velocity": 100,
      "chip": "ym2612"
    },
    {
      "channel": 3,
      "note": 47,
      "start": 66.0045,
      "duration": 0.0001,
      "velocity": 127,
      "chip": "ym2612"
    },
    {
      "channel": 3,
      "note": 49,
      "start": 66.0234,
      "duration": 0.9413,
      "velocity": 127,
      "chip": "ym2612"
    },
    {
      "channel": 4,
      "note": 86,
      "start": 66.1671,
      "duration": 0.2248,
      "velocity": 100,
      "chip": "ym2612"
    },
    {
      "channel": 0,
      "note": 86,
      "start": 66.2478,
      "duration": 0.2249,
      "velocity": 100,
      "chip": "ym2612"
    },
    {
      "channel": 1,
      "note": 55,
      "start": 66.2483,
      "duration": 0.2247,
      "velocity": 98,
      "chip": "ym2612"
    },
    {
      "channel": 2,
      "note": 71,
      "start": 66.2488,
      "duration": 0.2245,
      "velocity": 100,
      "chip": "ym2612"
    },
    {
      "channel": 4,
      "note": 85,
      "start": 66.4125,
      "duration": 0.2249,
      "velocity": 100,
      "chip": "ym2612"
    },
    {
      "channel": 0,
      "note": 87,
      "start": 66.4934,
      "duration": 0.2249,
      "velocity": 100,
      "chip": "ym2612"
    },
    {
      "channel": 1,
      "note": 54,
      "start": 66.4939,
      "duration": 0.2247,
      "velocity": 98,
      "chip": "ym2612"
    },
    {
      "channel": 2,
      "note": 69,
      "start": 66.4944,
      "duration": 0.2244,
      "velocity": 100,
      "chip": "ym2612"
    },
    {
      "channel": 4,
      "note": 86,
      "start": 66.6582,
      "duration": 0.2249,
      "velocity": 100,
      "chip": "ym2612"
    },
    {
      "channel": 0,
      "note": 88,
      "start": 66.739,
      "duration": 0.2249,
      "velocity": 100,
      "chip": "ym2612"
    },
    {
      "channel": 1,
      "note": 52,
      "start": 66.7395,
      "duration": 0.2247,
      "velocity": 98,
      "chip": "ym2612"
    },
    {
      "channel": 2,
      "note": 67,
      "start": 66.74,
      "duration": 0.2244,
      "velocity": 100,
      "chip": "ym2612"
    },
    {
      "channel": 4,
      "note": 87,
      "start": 66.9038,
      "duration": 0.1001,
      "velocity": 100,
      "chip": "ym2612"
    },
    {
      "channel": 0,
      "note": 81,
      "start": 66.9846,
      "duration": 0.0288,
      "velocity": 100,
      "chip": "ym2612"
    },
    {
      "channel": 1,
      "note": 57,
      "start": 66.985,
      "duration": 0.0286,
      "velocity": 98,
      "chip": "ym2612"
    },
    {
      "channel": 2,
      "note": 76,
      "start": 66.9855,
      "duration": 0.0283,
      "velocity": 100,
      "chip": "ym2612"
    },
    {
      "channel": 3,
      "note": 47,
      "start": 66.9861,
      "duration": 0.028,
      "velocity": 127,
      "chip": "ym2612"
    },
    {
      "channel": 4,
      "note": 88,
      "start": 67.0066,
      "duration": 0.0416,
      "velocity": 100,
      "chip": "ym2612"
    },
    {
      "channel": 0,
      "note": 81,
      "start": 67.0193,
      "duration": 0.0195,
      "velocity": 99,
      "chip": "ym2612"
    },
    {
      "channel": 1,
      "note": 57,
      "start": 67.0198,
      "duration": 0.0192,
      "velocity": 98,
      "chip": "ym2612"
    },
    {
      "channel": 2,
      "note": 73,
      "start": 67.0236,
      "duration": 0.0157,
      "velocity": 99,
      "chip": "ym2612"
    },
    {
      "channel": 3,
      "note": 47,
      "start": 67.0242,
      "duration": 0.0154,
      "velocity": 127,
      "chip": "ym2612"
    },
    {
      "channel": 0,
      "note": 81,
      "start": 67.0417,
      "duration": 0.0213,
      "velocity": 99,
      "chip": "ym2612"
    },
    {
      "channel": 1,
      "note": 57,
      "start": 67.0422,
      "duration": 0.0211,
      "velocity": 98,
      "chip": "ym2612"
    },
    {
      "channel": 2,
      "note": 73,
      "start": 67.0426,
      "duration": 0.0209,
      "velocity": 99,
      "chip": "ym2612"
    },
    {
      "channel": 3,
      "note": 47,
      "start": 67.0433,
      "duration": 0.0205,
      "velocity": 127,
      "chip": "ym2612"
    },
    {
      "channel": 4,
      "note": 81,
      "start": 67.0557,
      "duration": 0.0154,
      "velocity": 99,
      "chip": "ym2612"
    },
    {
      "channel": 0,
      "note": 81,
      "start": 67.0659,
      "duration": 0.0116,
      "velocity": 99,
      "chip": "ym2612"
    },
    {
      "channel": 1,
      "note": 57,
      "start": 67.0663,
      "duration": 0.029,
      "velocity": 98,
      "chip": "ym2612"
    },
    {
      "channel": 2,
      "note": 73,
      "start": 67.0669,
      "duration": 0.011,
      "velocity": 99,
      "chip": "ym2612"
    },
    {
      "channel": 3,
      "note": 47,
      "start": 67.0675,
      "duration": 0.0284,
      "velocity": 127,
      "chip": "ym2612"
    },
    {
      "channel": 4,
      "note": 81,
      "start": 67.0736,
      "duration": 0.012,
      "velocity": 99,
      "chip": "ym2612"
    },
    {
      "channel": 4,
      "note": 81,
      "start": 67.0883,
      "duration": 0.0115,
      "velocity": 99,
      "chip": "ym2612"
    },
    {
      "channel": 0,
      "note": 81,
      "start": 67.0978,
      "duration": 0.0128,
      "velocity": 99,
      "chip": "ym2612"
    },
    {
      "channel": 1,
      "note": 57,
      "start": 67.0983,
      "duration": 0.0301,
      "velocity": 98,
      "chip": "ym2612"
    },
    {
      "channel": 2,
      "note": 73,
      "start": 67.0988,
      "duration": 0.0123,
      "velocity": 99,
      "chip": "ym2612"
    },
    {
      "channel": 3,
      "note": 47,
      "start": 67.0994,
      "duration": 0.0295,
      "velocity": 127,
      "chip": "ym2612"
    },
    {
      "channel": 4,
      "note": 81,
      "start": 67.1214,
      "duration": 0.02,
      "velocity": 99,
      "chip": "ym2612"
    },
    {
      "channel": 0,
      "note": 74,
      "start": 67.1352,
      "duration": 0.0393,
      "velocity": 99,
      "chip": "ym2612"
    },
    {
      "channel": 1,
      "note": 50,
      "start": 67.136,
      "duration": 0.0387,
      "velocity": 98,
      "chip": "ym2612"
    },
    {
      "channel": 3,
      "note": 47,
      "start": 67.1409,
      "duration": 0.0001,
      "velocity": 127,
      "chip": "ym2612"
    },
    {
      "channel": 3,
      "note": 49,
      "start": 67.1453,
      "duration": 0.0301,
      "velocity": 127,
      "chip": "ym2612"
    },
    {
      "channel": 4,
      "note": 81,
      "start": 67.1677,
      "duration": 0.0308,
      "velocity": 99,
      "chip": "ym2612"
    },
    {
      "channel": 0,
      "note": 74,
      "start": 67.1772,
      "duration": 0.0141,
      "velocity": 99,
      "chip": "ym2612"
    },
    {
      "channel": 1,
      "note": 50,
      "start": 67.1777,
      "duration": 0.0139,
      "velocity": 98,
      "chip": "ym2612"
    },
    {
      "channel": 3,
      "note": 47,
      "start": 67.1785,
      "duration": 0.0135,
      "velocity": 127,
      "chip": "ym2612"
    },
    {
      "channel": 0,
      "note": 74,
      "start": 67.194,
      "duration": 0.0144,
      "velocity": 99,
      "chip": "ym2612"
    },
    {
      "channel": 1,
      "note": 50,
      "start": 67.1945,
      "duration": 0.0141,
      "velocity": 98,
      "chip": "ym2612"
    },
    {
      "channel": 3,
      "note": 47,
      "start": 67.1953,
      "duration": 0.0139,
      "velocity": 127,
      "chip": "ym2612"
    },
    {
      "channel": 4,
      "note": 74,
      "start": 67.2011,
      "duration": 0.0145,
      "velocity": 99,
      "chip": "ym2612"
    },
    {
      "channel": 0,
      "note": 74,
      "start": 67.2111,
      "duration": 0.2012,
      "velocity": 99,
      "chip": "ym2612"
    },
    {
      "channel": 1,
      "note": 50,
      "start": 67.2115,
      "duration": 0.201,
      "velocity": 98,
      "chip": "ym2612"
    },
    {
      "channel": 3,
      "note": 47,
      "start": 67.2125,
      "duration": 0.2007,
      "velocity": 127,
      "chip": "ym2612"
    },
    {
      "channel": 4,
      "note": 74,
      "start": 67.2294,
      "duration": 0.1021,
      "velocity": 99,
      "chip": "ym2612"
    },
    {
      "channel": 4,
      "note": 74,
      "start": 67.3521,
      "duration": 0.225,
      "velocity": 99,
      "chip": "ym2612"
    },
    {
      "channel": 0,
      "note": 69,
      "start": 67.433,
      "duration": 0.2249,
      "velocity": 99,
      "chip": "ym2612"
    },
    {
      "channel": 1,
      "note": 50,
      "start": 67.4335,
      "duration": 0.2247,
      "velocity": 98,
      "chip": "ym2612"
    },
    {
      "channel": 3,
      "note": 47,
      "start": 67.4343,
      "duration": 0.2244,
      "velocity": 127,
      "chip": "ym2612"
    },
    {
      "channel": 4,
      "note": 74,
      "start": 67.5978,
      "duration": 0.2249,
      "velocity": 99,
      "chip": "ym2612"
    },
    {
      "channel": 0,
      "note": 74,
      "start": 67.6785,
      "duration": 0.2249,
      "velocity": 99,
      "chip": "ym2612"
    },
    {
      "channel": 1,
      "note": 50,
      "start": 67.679,
      "duration": 0.2247,
      "velocity": 98,
      "chip": "ym2612"
    },
    {
      "channel": 3,
      "note": 47,
      "start": 67.6799,
      "duration": 0.2244,
      "velocity": 127,
      "chip": "ym2612"
    },
    {
      "channel": 4,
      "note": 69,
      "start": 67.8434,
      "duration": 0.2249,
      "velocity": 99,
      "chip": "ym2612"
    },
    {
      "channel": 0,
      "note": 69,
      "start": 67.9241,
      "duration": 0.2249,
      "velocity": 99,
      "chip": "ym2612"
    },
    {
      "channel": 1,
      "note": 50,
      "start": 67.9246,
      "duration": 0.2247,
      "velocity": 98,
      "chip": "ym2612"
    },
    {
      "channel": 3,
      "note": 47,
      "start": 67.9255,
      "duration": 0.2244,
      "velocity": 127,
      "chip": "ym2612"
    },
    {
      "channel": 4,
      "note": 74,
      "start": 68.089,
      "duration": 0.0995,
      "velocity": 99,
      "chip": "ym2612"
    },
    {
      "channel": 1,
      "note": 50,
      "start": 68.17,
      "duration": 0.0275,
      "velocity": 98,
      "chip": "ym2612"
    },
    {
      "channel": 3,
      "note": 47,
      "start": 68.1709,
      "duration": 0.0273,
      "velocity": 127,
      "chip": "ym2612"
    },
    {
      "channel": 0,
      "note": 74,
      "start": 68.2001,
      "duration": 0.0283,
      "velocity": 99,
      "chip": "ym2612"
    },
    {
      "channel": 1,
      "note": 50,
      "start": 68.2006,
      "duration": 0.028,
      "velocity": 98,
      "chip": "ym2612"
    },
    {
      "channel": 2,
      "note": 69,
      "start": 68.2011,
      "duration": 0.0278,
      "velocity": 99,
      "chip": "ym2612"
    },
    {
      "channel": 3,
      "note": 45,
      "start": 68.2017,
      "duration": 0.0275,
      "velocity": 127,
      "chip": "ym2612"
    },
    {
      "channel": 4,
      "note": 69,
      "start": 68.2215,
      "duration": 0.0293,
      "velocity": 99,
      "chip": "ym2612"
    },
    {
      "channel": 0,
      "note": 78,
      "start": 68.2311,
      "duration": 0.0292,
      "velocity": 99,
      "chip": "ym2612"
    },
    {
      "channel": 1,
      "note": 50,
      "start": 68.2317,
      "duration": 0.0288,
      "velocity": 98,
      "chip": "ym2612"
    },
    {
      "channel": 2,
      "note": 74,
      "start": 68.2322,
      "duration": 0.0286,
      "velocity": 99,
      "chip": "ym2612"
    },
    {
      "channel": 3,
      "note": 47,
      "start": 68.2329,
      "duration": 0.0001,
      "velocity": 127,
      "chip": "ym2612"
    },
    {
      "channel": 3,
      "note": 49,
      "start": 68.2364,
      "duration": 0.0247,
      "velocity": 127,
      "chip": "ym2612"
    },
    {
      "channel": 4,
      "note": 74,
      "start": 68.2535,
      "duration": 0.0311,
      "velocity": 99,
      "chip": "ym2612"
    },
    {
      "channel": 0,
      "note": 78,
      "start": 68.2629,
      "duration": 0.0143,
      "velocity": 99,
      "chip": "ym2612"
    },
    {
      "channel": 1,
      "note": 50,
      "start": 68.2634,
      "duration": 0.0141,
      "velocity": 98,
      "chip": "ym2612"
    },
    {
      "channel": 2,
      "note": 74,
      "start": 68.2639,
      "duration": 0.0138,
      "velocity": 99,
      "chip": "ym2612"
    },
    {
      "channel": 3,
      "note": 47,
      "start": 68.2646,
      "duration": 0.0134,
      "velocity": 127,
      "chip": "ym2612"
    },
    {
      "channel": 0,
      "note": 78,
      "start": 68.2799,
      "duration": 0.0148,
      "velocity": 99,
      "chip": "ym2612"
    },
    {
      "channel": 1,
      "note": 50,
      "start": 68.2804,
      "duration": 0.0145,
      "velocity": 98,
      "chip": "ym2612"
    },
    {
      "channel": 2,
      "note": 74,
      "start": 68.2809,
      "duration": 0.0143,
      "velocity": 99,
      "chip": "ym2612"
    },
    {
      "channel": 3,
      "note": 47,
      "start": 68.2815,
      "duration": 0.0139,
      "velocity": 127,
      "chip": "ym2612"
    },
    {
      "channel": 4,
      "note": 78,
      "start": 68.2873,
      "duration": 0.0206,
      "velocity": 99,
      "chip": "ym2612"
    },
    {
      "channel": 0,
      "note": 78,
      "start": 68.2973,
      "duration": 0.2141,
      "velocity": 99,
      "chip": "ym2612"
    },
    {
      "channel": 1,
      "note": 50,
      "start": 68.2978,
      "duration": 0.214,
      "velocity": 98,
      "chip": "ym2612"
    },
    {
      "channel": 2,
      "note": 74,
      "start": 68.2983,
      "duration": 0.2137,
      "velocity": 99,
      "chip": "ym2612"
    },
    {
      "channel": 3,
      "note": 47,
      "start": 68.299,
      "duration": 0.2134,
      "velocity": 127,
      "chip": "ym2612"
    },
    {
      "channel": 4,
      "note": 78,
      "start": 68.3285,
      "duration": 0.1021,
      "velocity": 99,
      "chip": "ym2612"
    },
    {
      "channel": 4,
      "note": 78,
      "start": 68.4513,
      "duration": 0.2249,
      "velocity": 99,
      "chip": "ym2612"
    },
    {
      "channel": 0,
      "note": 74,
      "start": 68.5322,
      "duration": 0.2249,
      "velocity": 99,
      "chip": "ym2612"
    },
    {
      "channel": 1,
      "note": 50,
      "start": 68.5327,
      "duration": 0.2247,
      "velocity": 98,
      "chip": "ym2612"
    },
    {
      "channel": 2,
      "note": 69,
      "start": 68.5332,
      "duration": 0.2244,
      "velocity": 99,
      "chip": "ym2612"
    },
    {
      "channel": 3,
      "note": 47,
      "start": 68.5338,
      "duration": 0.2241,
      "velocity": 127,
      "chip": "ym2612"
    },
    {
      "channel": 4,
      "note": 78,
      "start": 68.6969,
      "duration": 0.2249,
      "velocity": 99,
      "chip": "ym2612"
    },
    {
      "channel": 0,
      "note": 78,
      "start": 68.7777,
      "duration": 0.2249,
      "velocity": 99,
      "chip": "ym2612"
    },
    {
      "channel": 1,
      "note": 50,
      "start": 68.7782,
      "duration": 0.2247,
      "velocity": 98,
      "chip": "ym2612"
    },
    {
      "channel": 2,
      "note": 74,
      "start": 68.7788,
      "duration": 0.2244,
      "velocity": 99,
      "chip": "ym2612"
    },
    {
      "channel": 3,
      "note": 47,
      "start": 68.7793,
      "duration": 0.2242,
      "velocity": 127,
      "chip": "ym2612"
    },
    {
      "channel": 4,
      "note": 74,
      "start": 68.9425,
      "duration": 0.2249,
      "velocity": 99,
      "chip": "ym2612"
    },
    {
      "channel": 0,
      "note": 74,
      "start": 69.0234,
      "duration": 0.2248,
      "velocity": 99,
      "chip": "ym2612"
    },
    {
      "channel": 1,
      "note": 50,
      "start": 69.0239,
      "duration": 0.2246,
      "velocity": 98,
      "chip": "ym2612"
    },
    {
      "channel": 2,
      "note": 69,
      "start": 69.0244,
      "duration": 0.2244,
      "velocity": 99,
      "chip": "ym2612"
    },
    {
      "channel": 3,
      "note": 47,
      "start": 69.025,
      "duration": 0.224,
      "velocity": 127,
      "chip": "ym2612"
    },
    {
      "channel": 4,
      "note": 78,
      "start": 69.188,
      "duration": 0.0995,
      "velocity": 99,
      "chip": "ym2612"
    },
    {
      "channel": 1,
      "note": 50,
      "start": 69.2693,
      "duration": 0.027,
      "velocity": 98,
      "chip": "ym2612"
    },
    {
      "channel": 3,
      "note": 47,
      "start": 69.2702,
      "duration": 0.0267,
      "velocity": 127,
      "chip": "ym2612"
    },
    {
      "channel": 0,
      "note": 78,
      "start": 69.2988,
      "duration": 0.0282,
      "velocity": 99,
      "chip": "ym2612"
    },
    {
      "channel": 1,
      "note": 50,
      "start": 69.2993,
      "duration": 0.028,
      "velocity": 98,
      "chip": "ym2612"
    },
    {
      "channel": 2,
      "note": 74,
      "start": 69.2998,
      "duration": 0.0278,
      "velocity": 99,
      "chip": "ym2612"
    },
    {
      "channel": 3,
      "note": 45,
      "start": 69.3004,
      "duration": 0.0274,
      "velocity": 127,
      "chip": "ym2612"
    },
    {
      "channel": 4,
      "note": 74,
      "start": 69.3202,
      "duration": 0.0298,
      "velocity": 99,
      "chip": "ym2612"
    },
    {
      "channel": 0,
      "note": 81,
      "start": 69.3302,
      "duration": 0.0292,
      "velocity": 99,
      "chip": "ym2612"
    },
    {
      "channel": 1,
      "note": 50,
      "start": 69.3308,
      "duration": 0.0288,
      "velocity": 98,
      "chip": "ym2612"
    },
    {
      "channel": 2,
      "note": 78,
      "start": 69.3313,
      "duration": 0.0286,
      "velocity": 99,
      "chip": "ym2612"
    },
    {
      "channel": 3,
      "note": 47,
      "start": 69.332,
      "duration": 0.0001,
      "velocity": 127,
      "chip": "ym2612"
    },
    {
      "channel": 3,
      "note": 49,
      "start": 69.3356,
      "duration": 0.0247,
      "velocity": 127,
      "chip": "ym2612"
    },
    {
      "channel": 4,
      "note": 78,
      "start": 69.3526,
      "duration": 0.0312,
      "velocity": 99,
      "chip": "ym2612"
    },
    {
      "channel": 0,
      "note": 81,
      "start": 69.3621,
      "duration": 0.0143,
      "velocity": 99,
      "chip": "ym2612"
    },
    {
      "channel": 1,
      "note": 50,
      "start": 69.3626,
      "duration": 0.0141,
      "velocity": 98,
      "chip": "ym2612"
    },
    {
      "channel": 2,
      "note": 78,
      "start": 69.3631,
      "duration": 0.0138,
      "velocity": 99,
      "chip": "ym2612"
    },
    {
      "channel": 3,
      "note": 47,
      "start": 69.3638,
      "duration": 0.0135,
      "velocity": 127,
      "chip": "ym2612"
    },
    {
      "channel": 0,
      "note": 81,
      "start": 69.379,
      "duration": 0.0147,
      "velocity": 99,
      "chip": "ym2612"
    },
    {
      "channel": 1,
      "note": 50,
      "start": 69.3795,
      "duration": 0.0145,
      "velocity": 98,
      "chip": "ym2612"
    },
    {
      "channel": 2,
      "note": 78,
      "start": 69.38,
      "duration": 0.0142,
      "velocity": 99,
      "chip": "ym2612"
    },
    {
      "channel": 3,
      "note": 47,
      "start": 69.3807,
      "duration": 0.0139,
      "velocity": 127,
      "chip": "ym2612"
    },
    {
      "channel": 4,
      "note": 81,
      "start": 69.3864,
      "duration": 0.0205,
      "velocity": 99,
      "chip": "ym2612"
    },
    {
      "channel": 0,
      "note": 81,
      "start": 69.3965,
      "duration": 0.2141,
      "velocity": 99,
      "chip": "ym2612"
    },
    {
      "channel": 1,
      "note": 50,
      "start": 69.397,
      "duration": 0.2139,
      "velocity": 98,
      "chip": "ym2612"
    },
    {
      "channel": 2,
      "note": 78,
      "start": 69.3975,
      "duration": 0.2137,
      "velocity": 99,
      "chip": "ym2612"
    },
    {
      "channel": 3,
      "note": 47,
      "start": 69.3981,
      "duration": 0.2133,
      "velocity": 127,
      "chip": "ym2612"
    },
    {
      "channel": 4,
      "note": 81,
      "start": 69.4276,
      "duration": 0.1021,
      "velocity": 99,
      "chip": "ym2612"
    },
    {
      "channel": 4,
      "note": 81,
      "start": 69.5504,
      "duration": 0.2249,
      "velocity": 99,
      "chip": "ym2612"
    },
    {
      "channel": 0,
      "note": 78,
      "start": 69.6313,
      "duration": 0.2249,
      "velocity": 99,
      "chip": "ym2612"
    },
    {
      "channel": 1,
      "note": 50,
      "start": 69.6318,
      "duration": 0.2246,
      "velocity": 98,
      "chip": "ym2612"
    },
    {
      "channel": 2,
      "note": 74,
      "start": 69.6323,
      "duration": 0.2244,
      "velocity": 99,
      "chip": "ym2612"
    },
    {
      "channel": 3,
      "note": 47,
      "start": 69.6329,
      "duration": 0.2241,
      "velocity": 127,
      "chip": "ym2612"
    },
    {
      "channel": 4,
      "note": 81,
      "start": 69.796,
      "duration": 0.2249,
      "velocity": 99,
      "chip": "ym2612"
    },
    {
      "channel": 0,
      "note": 81,
      "start": 69.8768,
      "duration": 0.2249,
      "velocity": 99,
      "chip": "ym2612"
    },
    {
      "channel": 1,
      "note": 50,
      "start": 69.8773,
      "duration": 0.2247,
      "velocity": 98,
      "chip": "ym2612"
    },
    {
      "channel": 2,
      "note": 78,
      "start": 69.8778,
      "duration": 0.2244,
      "velocity": 99,
      "chip": "ym2612"
    },
    {
      "channel": 3,
      "note": 47,
      "start": 69.8784,
      "duration": 0.2242,
      "velocity": 127,
      "chip": "ym2612"
    },
    {
      "channel": 4,
      "note": 78,
      "start": 70.0417,
      "duration": 0.2249,
      "velocity": 99,
      "chip": "ym2612"
    },
    {
      "channel": 0,
      "note": 78,
      "start": 70.1224,
      "duration": 0.2249,
      "velocity": 99,
      "chip": "ym2612"
    },
    {
      "channel": 1,
      "note": 50,
      "start": 70.1229,
      "duration": 0.2246,
      "velocity": 98,
      "chip": "ym2612"
    },
    {
      "channel": 2,
      "note": 74,
      "start": 70.1234,
      "duration": 0.2244,
      "velocity": 99,
      "chip": "ym2612"
    },
    {
      "channel": 3,
      "note": 47,
      "start": 70.124,
      "duration": 0.2241,
      "velocity": 127,
      "chip": "ym2612"
    },
    {
      "channel": 4,
      "note": 81,
      "start": 70.2871,
      "duration": 0.0995,
      "velocity": 99,
      "chip": "ym2612"
    },
    {
      "channel": 1,
      "note": 50,
      "start": 70.3684,
      "duration": 0.0271,
      "velocity": 98,
      "chip": "ym2612"
    },
    {
      "channel": 3,
      "note": 47,
      "start": 70.3693,
      "duration": 0.0268,
      "velocity": 127,
      "chip": "ym2612"
    },
    {
      "channel": 0,
      "note": 86,
      "start": 70.4014,
      "duration": 0.0363,
      "velocity": 100,
      "chip": "ym2612"
    },
    {
      "channel": 1,
      "note": 50,
      "start": 70.4018,
      "duration": 0.0361,
      "velocity": 98,
      "chip": "ym2612"
    },
    {
      "channel": 2,
      "note": 74,
      "start": 70.4056,
      "duration": 0.0327,
      "velocity": 100,
      "chip": "ym2612"
    },
    {
      "channel": 3,
      "note": 45,
      "start": 70.4062,
      "duration": 0.0323,
      "velocity": 127,
      "chip": "ym2612"
    },
    {
      "channel": 4,
      "note": 78,
      "start": 70.431,
      "duration": 0.1536,
      "velocity": 100,
      "chip": "ym2612"
    },
    {
      "channel": 0,
      "note": 88,
      "start": 70.441,
      "duration": 0.2244,
      "velocity": 100,
      "chip": "ym2612"
    },
    {
      "channel": 1,
      "note": 55,
      "start": 70.4423,
      "duration": 0.2234,
      "velocity": 98,
      "chip": "ym2612"
    },
    {
      "channel": 2,
      "note": 85,
      "start": 70.4433,
      "duration": 0.2226,
      "velocity": 100,
      "chip": "ym2612"
    },
    {
      "channel": 3,
      "note": 47,
      "start": 70.4445,
      "duration": 0.0001,
      "velocity": 127,
      "chip": "ym2612"
    },
    {
      "channel": 3,
      "note": 49,
      "start": 70.4617,
      "duration": 0.9412,
      "velocity": 127,
      "chip": "ym2612"
    },
    {
      "channel": 4,
      "note": 86,
      "start": 70.6059,
      "duration": 0.2243,
      "velocity": 100,
      "chip": "ym2612"
    },
    {
      "channel": 0,
      "note": 81,
      "start": 70.6861,
      "duration": 0.1021,
      "velocity": 100,
      "chip": "ym2612"
    },
    {
      "channel": 1,
      "note": 55,
      "start": 70.6866,
      "duration": 0.2247,
      "velocity": 98,
      "chip": "ym2612"
    },
    {
      "channel": 2,
      "note": 76,
      "start": 70.6871,
      "duration": 0.1017,
      "velocity": 100,
      "chip": "ym2612"
    },
    {
      "channel": 0,
      "note": 81,
      "start": 70.8089,
      "duration": 0.1022,
      "velocity": 100,
      "chip": "ym2612"
    },
    {
      "channel": 2,
      "note": 76,
      "start": 70.8096,
      "duration": 0.102,
      "velocity": 100,
      "chip": "ym2612"
    },
    {
      "channel": 4,
      "note": 88,
      "start": 70.8508,
      "duration": 0.1021,
      "velocity": 100,
      "chip": "ym2612"
    },
    {
      "channel": 0,
      "note": 90,
      "start": 70.9318,
      "duration": 0.0816,
      "velocity": 100,
      "chip": "ym2612"
    },
    {
      "channel": 1,
      "note": 57,
      "start": 70.9323,
      "duration": 0.2245,
      "velocity": 98,
      "chip": "ym2612"
    },
    {
      "channel": 2,
      "note": 83,
      "start": 70.9328,
      "duration": 0.081,
      "velocity": 100,
      "chip": "ym2612"
    },
    {
      "channel": 4,
      "note": 81,
      "start": 70.9736,
      "duration": 0.1021,
      "velocity": 100,
      "chip": "ym2612"
    },
    {
      "channel": 4,
      "note": 81,
      "start": 71.0965,
      "duration": 0.0824,
      "velocity": 100,
      "chip": "ym2612"
    },
    {
      "channel": 0,
      "note": 88,
      "start": 71.1773,
      "duration": 0.0817,
      "velocity": 100,
      "chip": "ym2612"
    },
    {
      "channel": 1,
      "note": 57,
      "start": 71.1778,
      "duration": 0.2246,
      "velocity": 98,
      "chip": "ym2612"
    },
    {
      "channel": 2,
      "note": 85,
      "start": 71.1782,
      "duration": 0.0812,
      "velocity": 100,
      "chip": "ym2612"
    },
    {
      "channel": 4,
      "note": 90,
      "start": 71.3421,
      "duration": 0.0828,
      "velocity": 100,
      "chip": "ym2612"
    },
    {
      "channel": 0,
      "note": 86,
      "start": 71.4229,
      "duration": 0.0816,
      "velocity": 100,
      "chip": "ym2612"
    },
    {
      "channel": 1,
      "note": 50,
      "start": 71.4233,
      "duration": 0.2791,
      "velocity": 98,
      "chip": "ym2612"
    },
    {
      "channel": 2,
      "note": 81,
      "start": 71.4238,
      "duration": 0.0812,
      "velocity": 100,
      "chip": "ym2612"
    },
    {
      "channel": 3,
      "note": 47,
      "start": 71.4244,
      "duration": 0.2241,
      "velocity": 127,
      "chip": "ym2612"
    },
    {
      "channel": 4,
      "note": 88,
      "start": 71.5876,
      "duration": 0.0828,
      "velocity": 100,
      "chip": "ym2612"
    },
    {
      "channel": 0,
      "note": 74,
      "start": 71.6685,
      "duration": 0.0154,
      "velocity": 100,
      "chip": "ym2612"
    },
    {
      "channel": 2,
      "note": 66,
      "start": 71.6693,
      "duration": 0.0151,
      "velocity": 100,
      "chip": "ym2612"
    },
    {
      "channel": 3,
      "note": 47,
      "start": 71.6699,
      "duration": 0.0148,
      "velocity": 127,
      "chip": "ym2612"
    },
    {
      "channel": 0,
      "note": 74,
      "start": 71.6868,
      "duration": 0.0154,
      "velocity": 100,
      "chip": "ym2612"
    },
    {
      "channel": 2,
      "note": 66,
      "start": 71.6875,
      "duration": 0.0153,
      "velocity": 100,
      "chip": "ym2612"
    },
    {
      "channel": 3,
      "note": 47,
      "start": 71.688,
      "duration": 0.0151,
      "velocity": 127,
      "chip": "ym2612"
    },
    {
      "channel": 4,
      "note": 86,
      "start": 71.6959,
      "duration": 0.0146,
      "velocity": 100,
      "chip": "ym2612"
    },
    {
      "channel": 0,
      "note": 74,
      "start": 71.7049,
      "duration": 0.0581,
      "velocity": 100,
      "chip": "ym2612"
    },
    {
      "channel": 1,
      "note": 50,
      "start": 71.7055,
      "duration": 0.0427,
      "velocity": 98,
      "chip": "ym2612"
    },
    {
      "channel": 2,
      "note": 66,
      "start": 71.706,
      "duration": 0.0577,
      "velocity": 100,
      "chip": "ym2612"
    },
    {
      "channel": 3,
      "note": 47,
      "start": 71.7065,
      "duration": 0.0001,
      "velocity": 127,
      "chip": "ym2612"
    },
    {
      "channel": 3,
      "note": 49,
      "start": 71.71,
      "duration": 0.054,
      "velocity": 127,
      "chip": "ym2612"
    },
    {
      "channel": 4,
      "note": 74,
      "start": 71.7131,
      "duration": 0.0118,
      "velocity": 100,
      "chip": "ym2612"
    },
    {
      "channel": 4,
      "note": 74,
      "start": 71.7276,
      "duration": 18.9354,
      "velocity": 100,
      "chip": "ym2612"
    },
    {
      "channel": 1,
      "note": 45,
      "start": 71.7507,
      "duration": 0.0024,
      "velocity": 98,
      "chip": "ym2612"
    },
    {
      "channel": 1,
      "note": 47,
      "start": 71.7557,
      "duration": 0.0024,
      "velocity": 98,
      "chip": "ym2612"
    },
    {
      "channel": 1,
      "note": 49,
      "start": 71.7607,
      "duration": 0.0027,
      "velocity": 98,
      "chip": "ym2612"
    }
  ]
}