{
  "track_name": "05 - Level 1B",
  "duration_sec": 61.965,
  "sample_rate": 44100,
  "note_count": 168,
  "unique_pitches": 23,
  "pitch_range": 62,
  "avg_note_duration": 1.4311,
  "reconstruction_stats": {
    "notes_reconstructed": 168,
    "keyon_events": 168,
    "keyoff_events": 164,
    "orphan_keyons": 4,
    "unique_pitches": 23,
    "pitch_range": 62,
    "avg_duration_sec": 1.4311
  },
  "metadata": {
    "source": "R\\ResQ\\05 - Level 1B.vgz"
  },
  "notes": [
    {
      "channel": 0,
      "note": 43,
      "start": 0.0507,
      "duration": 0.2498,
      "velocity": 117,
      "chip": "ym2612"
    },
    {
      "channel": 1,
      "note": 88,
      "start": 0.0529,
      "duration": 0.4809,
      "velocity": 127,
      "chip": "ym2612"
    },
    {
      "channel": 0,
      "note": 47,
      "start": 0.3006,
      "duration": 9.3483,
      "velocity": 117,
      "chip": "ym2612"
    },
    {
      "channel": 1,
      "note": 88,
      "start": 0.534,
      "duration": 0.4832,
      "velocity": 127,
      "chip": "ym2612"
    },
    {
      "channel": 1,
      "note": 88,
      "start": 1.0172,
      "duration": 0.4832,
      "velocity": 127,
      "chip": "ym2612"
    },
    {
      "channel": 1,
      "note": 88,
      "start": 1.5006,
      "duration": 0.4666,
      "velocity": 127,
      "chip": "ym2612"
    },
    {
      "channel": 1,
      "note": 88,
      "start": 1.9672,
      "duration": 0.4832,
      "velocity": 127,
      "chip": "ym2612"
    },
    {
      "channel": 1,
      "note": 88,
      "start": 2.4506,
      "duration": 0.4832,
      "velocity": 127,
      "chip": "ym2612"
    },
    {
      "channel": 1,
      "note": 88,
      "start": 2.9339,
      "duration": 0.4832,
      "velocity": 127,
      "chip": "ym2612"
    },
    {
      "channel": 1,
      "note": 88,
      "start": 3.4173,
      "duration": 0.4832,
      "velocity": 127,
      "chip": "ym2612"
    },
    {
      "channel": 2,
      "note": 79,
      "start": 3.6507,
      "duration": 0.2519,
      "velocity": 100,
      "chip": "ym2612"
    },
    {
      "channel": 3,
      "note": 79,
      "start": 3.6529,
      "duration": 0.2519,
      "velocity": 100,
      "chip": "ym2612"
    },
    {
      "channel": 1,
      "note": 88,
      "start": 3.9006,
      "duration": 0.4665,
      "velocity": 127,
      "chip": "ym2612"
    },
    {
      "channel": 2,
      "note": 83,
      "start": 3.9028,
      "duration": 11.5166,
      "velocity": 1,
      "chip": "ym2612"
    },
    {
      "channel": 3,
      "note": 76,
      "start": 3.905,
      "duration": 12.9477,
      "velocity": 1,
      "chip": "ym2612"
    },
    {
      "channel": 1,
      "note": 88,
      "start": 4.3672,
      "duration": 0.4832,
      "velocity": 127,
      "chip": "ym2612"
    },
    {
      "channel": 1,
      "note": 88,
      "start": 4.8506,
      "duration": 0.4832,
      "velocity": 127,
      "chip": "ym2612"
    },
    {
      "channel": 1,
      "note": 88,
      "start": 5.3339,
      "duration": 0.4832,
      "velocity": 127,
      "chip": "ym2612"
    },
    {
      "channel": 1,
      "note": 88,
      "start": 5.8172,
      "duration": 0.4832,
      "velocity": 127,
      "chip": "ym2612"
    },
    {
      "channel": 1,
      "note": 88,
      "start": 6.3006,
      "duration": 0.4666,
      "velocity": 127,
      "chip": "ym2612"
    },
    {
      "channel": 1,
      "note": 88,
      "start": 6.7672,
      "duration": 0.4832,
      "velocity": 127,
      "chip": "ym2612"
    },
    {
      "channel": 1,
      "note": 88,
      "start": 7.2506,
      "duration": 0.4832,
      "velocity": 127,
      "chip": "ym2612"
    },
    {
      "channel": 1,
      "note": 88,
      "start": 7.7339,
      "duration": 0.4832,
      "velocity": 127,
      "chip": "ym2612"
    },
    {
      "channel": 1,
      "note": 88,
      "start": 8.2172,
      "duration": 0.4832,
      "velocity": 127,
      "chip": "ym2612"
    },
    {
      "channel": 1,
      "note": 88,
      "start": 8.7006,
      "duration": 0.4666,
      "velocity": 127,
      "chip": "ym2612"
    },
    {
      "channel": 1,
      "note": 88,
      "start": 9.1672,
      "duration": 0.4838,
      "velocity": 127,
      "chip": "ym2612"
    },
    {
      "channel": 0,
      "note": 45,
      "start": 9.649,
      "duration": 9.368,
      "velocity": 1,
      "chip": "ym2612"
    },
    {
      "channel": 1,
      "note": 88,
      "start": 9.6512,
      "duration": 0.4826,
      "velocity": 127,
      "chip": "ym2612"
    },
    {
      "channel": 1,
      "note": 88,
      "start": 10.1339,
      "duration": 0.4832,
      "velocity": 127,
      "chip": "ym2612"
    },
    {
      "channel": 1,
      "note": 88,
      "start": 10.6172,
      "duration": 0.4832,
      "velocity": 127,
      "chip": "ym2612"
    },
    {
      "channel": 1,
      "note": 88,
      "start": 11.1006,
      "duration": 0.4666,
      "velocity": 127,
      "chip": "ym2612"
    },
    {
      "channel": 1,
      "note": 88,
      "start": 11.5672,
      "duration": 0.4832,
      "velocity": 127,
      "chip": "ym2612"
    },
    {
      "channel": 1,
      "note": 88,
      "start": 12.0506,
      "duration": 0.4832,
      "velocity": 127,
      "chip": "ym2612"
    },
    {
      "channel": 1,
      "note": 88,
      "start": 12.5339,
      "duration": 0.4832,
      "velocity": 127,
      "chip": "ym2612"
    },
    {
      "channel": 1,
      "note": 88,
      "start": 13.0172,
      "duration": 0.4832,
      "velocity": 127,
      "chip": "ym2612"
    },
    {
      "channel": 1,
      "note": 88,
      "start": 13.5006,
      "duration": 0.4666,
      "velocity": 127,
      "chip": "ym2612"
    },
    {
      "channel": 1,
      "note": 88,
      "start": 13.9672,
      "duration": 0.4832,
      "velocity": 127,
      "chip": "ym2612"
    },
    {
      "channel": 1,
      "note": 88,
      "start": 14.4506,
      "duration": 0.4832,
      "velocity": 127,
      "chip": "ym2612"
    },
    {
      "channel": 1,
      "note": 88,
      "start": 14.9339,
      "duration": 0.4833,
      "velocity": 127,
      "chip": "ym2612"
    },
    {
      "channel": 1,
      "note": 88,
      "start": 15.4174,
      "duration": 0.483,
      "velocity": 127,
      "chip": "ym2612"
    },
    {
      "channel": 2,
      "note": 73,
      "start": 15.4195,
      "duration": 0.231,
      "velocity": 100,
      "chip": "ym2612"
    },
    {
      "channel": 2,
      "note": 73,
      "start": 15.6507,
      "duration": 5.517,
      "velocity": 100,
      "chip": "ym2612"
    },
    {
      "channel": 1,
      "note": 88,
      "start": 15.9006,
      "duration": 0.4665,
      "velocity": 127,
      "chip": "ym2612"
    },
    {
      "channel": 1,
      "note": 88,
      "start": 16.3672,
      "duration": 0.4832,
      "velocity": 127,
      "chip": "ym2612"
    },
    {
      "channel": 1,
      "note": 88,
      "start": 16.8506,
      "duration": 0.4832,
      "velocity": 127,
      "chip": "ym2612"
    },
    {
      "channel": 3,
      "note": 85,
      "start": 16.8529,
      "duration": 0.2477,
      "velocity": 100,
      "chip": "ym2612"
    },
    {
      "channel": 3,
      "note": 69,
      "start": 17.1008,
      "duration": 4.0675,
      "velocity": 100,
      "chip": "ym2612"
    },
    {
      "channel": 1,
      "note": 88,
      "start": 17.334,
      "duration": 0.4832,
      "velocity": 127,
      "chip": "ym2612"
    },
    {
      "channel": 1,
      "note": 88,
      "start": 17.8172,
      "duration": 0.4832,
      "velocity": 127,
      "chip": "ym2612"
    },
    {
      "channel": 1,
      "note": 88,
      "start": 18.3006,
      "duration": 0.4666,
      "velocity": 127,
      "chip": "ym2612"
    },
    {
      "channel": 1,
      "note": 88,
      "start": 18.7672,
      "duration": 0.4852,
      "velocity": 127,
      "chip": "ym2612"
    },
    {
      "channel": 0,
      "note": 43,
      "start": 19.0172,
      "duration": 0.2332,
      "velocity": 117,
      "chip": "ym2612"
    },
    {
      "channel": 0,
      "note": 43,
      "start": 19.2506,
      "duration": 11.5166,
      "velocity": 1,
      "chip": "ym2612"
    },
    {
      "channel": 1,
      "note": 88,
      "start": 19.2527,
      "duration": 0.4811,
      "velocity": 127,
      "chip": "ym2612"
    },
    {
      "channel": 1,
      "note": 88,
      "start": 19.7339,
      "duration": 0.4832,
      "velocity": 127,
      "chip": "ym2612"
    },
    {
      "channel": 1,
      "note": 88,
      "start": 20.2172,
      "duration": 0.4832,
      "velocity": 127,
      "chip": "ym2612"
    },
    {
      "channel": 1,
      "note": 88,
      "start": 20.7006,
      "duration": 0.4666,
      "velocity": 127,
      "chip": "ym2612"
    },
    {
      "channel": 1,
      "note": 88,
      "start": 21.1673,
      "duration": 0.4832,
      "velocity": 127,
      "chip": "ym2612"
    },
    {
      "channel": 2,
      "note": 67,
      "start": 21.1679,
      "duration": 11.766,
      "velocity": 1,
      "chip": "ym2612"
    },
    {
      "channel": 3,
      "note": 71,
      "start": 21.1685,
      "duration": 10.7988,
      "velocity": 1,
      "chip": "ym2612"
    },
    {
      "channel": 1,
      "note": 88,
      "start": 21.6506,
      "duration": 0.4832,
      "velocity": 127,
      "chip": "ym2612"
    },
    {
      "channel": 1,
      "note": 88,
      "start": 22.1339,
      "duration": 0.4832,
      "velocity": 127,
      "chip": "ym2612"
    },
    {
      "channel": 1,
      "note": 88,
      "start": 22.6172,
      "duration": 0.4832,
      "velocity": 127,
      "chip": "ym2612"
    },
    {
      "channel": 1,
      "note": 88,
      "start": 23.1006,
      "duration": 0.4666,
      "velocity": 127,
      "chip": "ym2612"
    },
    {
      "channel": 1,
      "note": 88,
      "start": 23.5672,
      "duration": 0.4832,
      "velocity": 127,
      "chip": "ym2612"
    },
    {
      "channel": 1,
      "note": 88,
      "start": 24.0506,
      "duration": 0.4832,
      "velocity": 127,
      "chip": "ym2612"
    },
    {
      "channel": 1,
      "note": 88,
      "start": 24.5339,
      "duration": 0.4832,
      "velocity": 127,
      "chip": "ym2612"
    },
    {
      "channel": 1,
      "note": 88,
      "start": 25.0172,
      "duration": 0.4832,
      "velocity": 127,
      "chip": "ym2612"
    },
    {
      "channel": 1,
      "note": 88,
      "start": 25.5006,
      "duration": 0.4666,
      "velocity": 127,
      "chip": "ym2612"
    },
    {
      "channel": 1,
      "note": 88,
      "start": 25.9672,
      "duration": 0.4832,
      "velocity": 127,
      "chip": "ym2612"
    },
    {
      "channel": 1,
      "note": 88,
      "start": 26.4506,
      "duration": 0.4832,
      "velocity": 127,
      "chip": "ym2612"
    },
    {
      "channel": 1,
      "note": 88,
      "start": 26.9339,
      "duration": 0.4832,
      "velocity": 127,
      "chip": "ym2612"
    },
    {
      "channel": 1,
      "note": 88,
      "start": 27.4172,
      "duration": 0.4832,
      "velocity": 127,
      "chip": "ym2612"
    },
    {
      "channel": 1,
      "note": 88,
      "start": 27.9006,
      "duration": 0.4666,
      "velocity": 127,
      "chip": "ym2612"
    },
    {
      "channel": 1,
      "note": 88,
      "start": 28.3672,
      "duration": 0.4832,
      "velocity": 127,
      "chip": "ym2612"
    },
    {
      "channel": 1,
      "note": 88,
      "start": 28.8506,
      "duration": 0.4832,
      "velocity": 127,
      "chip": "ym2612"
    },
    {
      "channel": 1,
      "note": 88,
      "start": 29.3339,
      "duration": 0.4832,
      "velocity": 127,
      "chip": "ym2612"
    },
    {
      "channel": 1,
      "note": 88,
      "start": 29.8172,
      "duration": 0.4832,
      "velocity": 127,
      "chip": "ym2612"
    },
    {
      "channel": 1,
      "note": 88,
      "start": 30.3006,
      "duration": 0.4687,
      "velocity": 127,
      "chip": "ym2612"
    },
    {
      "channel": 0,
      "note": 41,
      "start": 30.7673,
      "duration": 0.2498,
      "velocity": 117,
      "chip": "ym2612"
    },
    {
      "channel": 1,
      "note": 88,
      "start": 30.7695,
      "duration": 0.481,
      "velocity": 127,
      "chip": "ym2612"
    },
    {
      "channel": 0,
      "note": 41,
      "start": 31.0173,
      "duration": 6.4816,
      "velocity": 117,
      "chip": "ym2612"
    },
    {
      "channel": 1,
      "note": 88,
      "start": 31.2506,
      "duration": 0.4832,
      "velocity": 127,
      "chip": "ym2612"
    },
    {
      "channel": 1,
      "note": 88,
      "start": 31.7339,
      "duration": 0.4832,
      "velocity": 127,
      "chip": "ym2612"
    },
    {
      "channel": 3,
      "note": 67,
      "start": 31.9674,
      "duration": 0.2519,
      "velocity": 100,
      "chip": "ym2612"
    },
    {
      "channel": 1,
      "note": 88,
      "start": 32.2173,
      "duration": 0.4832,
      "velocity": 127,
      "chip": "ym2612"
    },
    {
      "channel": 3,
      "note": 77,
      "start": 32.2195,
      "duration": 5.0311,
      "velocity": 103,
      "chip": "ym2612"
    },
    {
      "channel": 1,
      "note": 88,
      "start": 32.7006,
      "duration": 0.4666,
      "velocity": 127,
      "chip": "ym2612"
    },
    {
      "channel": 2,
      "note": 67,
      "start": 32.934,
      "duration": 0.2352,
      "velocity": 100,
      "chip": "ym2612"
    },
    {
      "channel": 1,
      "note": 88,
      "start": 33.1672,
      "duration": 0.4832,
      "velocity": 127,
      "chip": "ym2612"
    },
    {
      "channel": 2,
      "note": 72,
      "start": 33.1694,
      "duration": 3.8499,
      "velocity": 103,
      "chip": "ym2612"
    },
    {
      "channel": 1,
      "note": 88,
      "start": 33.6506,
      "duration": 0.4832,
      "velocity": 127,
      "chip": "ym2612"
    },
    {
      "channel": 1,
      "note": 88,
      "start": 34.1339,
      "duration": 0.4832,
      "velocity": 127,
      "chip": "ym2612"
    },
    {
      "channel": 1,
      "note": 88,
      "start": 34.6172,
      "duration": 0.4832,
      "velocity": 127,
      "chip": "ym2612"
    },
    {
      "channel": 1,
      "note": 88,
      "start": 35.1006,
      "duration": 0.4666,
      "velocity": 127,
      "chip": "ym2612"
    },
    {
      "channel": 1,
      "note": 88,
      "start": 35.5672,
      "duration": 0.4832,
      "velocity": 127,
      "chip": "ym2612"
    },
    {
      "channel": 1,
      "note": 88,
      "start": 36.0506,
      "duration": 0.4832,
      "velocity": 127,
      "chip": "ym2612"
    },
    {
      "channel": 1,
      "note": 88,
      "start": 36.5339,
      "duration": 0.4832,
      "velocity": 127,
      "chip": "ym2612"
    },
    {
      "channel": 1,
      "note": 88,
      "start": 37.0173,
      "duration": 0.4838,
      "velocity": 127,
      "chip": "ym2612"
    },
    {
      "channel": 2,
      "note": 74,
      "start": 37.0194,
      "duration": 0.4822,
      "velocity": 103,
      "chip": "ym2612"
    },
    {
      "channel": 3,
      "note": 79,
      "start": 37.2508,
      "duration": 0.4816,
      "velocity": 103,
      "chip": "ym2612"
    },
    {
      "channel": 0,
      "note": 38,
      "start": 37.4991,
      "duration": 12.4679,
      "velocity": 121,
      "chip": "ym2612"
    },
    {
      "channel": 1,
      "note": 88,
      "start": 37.5012,
      "duration": 0.4659,
      "velocity": 127,
      "chip": "ym2612"
    },
    {
      "channel": 2,
      "note": 81,
      "start": 37.5018,
      "duration": 4.8008,
      "velocity": 97,
      "chip": "ym2612"
    },
    {
      "channel": 3,
      "note": 84,
      "start": 37.7326,
      "duration": 8.4041,
      "velocity": 1,
      "chip": "ym2612"
    },
    {
      "channel": 1,
      "note": 88,
      "start": 37.9673,
      "duration": 0.4832,
      "velocity": 127,
      "chip": "ym2612"
    },
    {
      "channel": 1,
      "note": 88,
      "start": 38.4506,
      "duration": 0.4832,
      "velocity": 127,
      "chip": "ym2612"
    },
    {
      "channel": 1,
      "note": 88,
      "start": 38.9339,
      "duration": 0.4832,
      "velocity": 127,
      "chip": "ym2612"
    },
    {
      "channel": 1,
      "note": 88,
      "start": 39.4172,
      "duration": 0.4832,
      "velocity": 127,
      "chip": "ym2612"
    },
    {
      "channel": 1,
      "note": 88,
      "start": 39.9006,
      "duration": 0.4666,
      "velocity": 127,
      "chip": "ym2612"
    },
    {
      "channel": 1,
      "note": 88,
      "start": 40.3672,
      "duration": 0.4832,
      "velocity": 127,
      "chip": "ym2612"
    },
    {
      "channel": 1,
      "note": 88,
      "start": 40.8506,
      "duration": 0.4832,
      "velocity": 127,
      "chip": "ym2612"
    },
    {
      "channel": 1,
      "note": 88,
      "start": 41.3339,
      "duration": 0.4832,
      "velocity": 127,
      "chip": "ym2612"
    },
    {
      "channel": 1,
      "note": 88,
      "start": 41.8172,
      "duration": 0.4832,
      "velocity": 127,
      "chip": "ym2612"
    },
    {
      "channel": 1,
      "note": 88,
      "start": 42.3006,
      "duration": 0.4665,
      "velocity": 127,
      "chip": "ym2612"
    },
    {
      "channel": 2,
      "note": 38,
      "start": 42.3027,
      "duration": 0.9483,
      "velocity": 97,
      "chip": "ym2612"
    },
    {
      "channel": 1,
      "note": 88,
      "start": 42.7672,
      "duration": 0.4832,
      "velocity": 127,
      "chip": "ym2612"
    },
    {
      "channel": 1,
      "note": 88,
      "start": 43.2506,
      "duration": 0.4832,
      "velocity": 127,
      "chip": "ym2612"
    },
    {
      "channel": 2,
      "note": 38,
      "start": 43.2512,
      "duration": 0.9665,
      "velocity": 97,
      "chip": "ym2612"
    },
    {
      "channel": 1,
      "note": 88,
      "start": 43.7339,
      "duration": 0.4832,
      "velocity": 127,
      "chip": "ym2612"
    },
    {
      "channel": 1,
      "note": 88,
      "start": 44.2173,
      "duration": 0.4832,
      "velocity": 127,
      "chip": "ym2612"
    },
    {
      "channel": 2,
      "note": 38,
      "start": 44.2178,
      "duration": 0.9499,
      "velocity": 97,
      "chip": "ym2612"
    },
    {
      "channel": 1,
      "note": 88,
      "start": 44.7006,
      "duration": 0.4666,
      "velocity": 127,
      "chip": "ym2612"
    },
    {
      "channel": 1,
      "note": 88,
      "start": 45.1673,
      "duration": 0.4832,
      "velocity": 127,
      "chip": "ym2612"
    },
    {
      "channel": 2,
      "note": 38,
      "start": 45.1678,
      "duration": 0.9667,
      "velocity": 97,
      "chip": "ym2612"
    },
    {
      "channel": 1,
      "note": 88,
      "start": 45.6506,
      "duration": 0.4833,
      "velocity": 127,
      "chip": "ym2612"
    },
    {
      "channel": 1,
      "note": 88,
      "start": 46.1341,
      "duration": 0.483,
      "velocity": 127,
      "chip": "ym2612"
    },
    {
      "channel": 2,
      "note": 38,
      "start": 46.1347,
      "duration": 1.9179,
      "velocity": 100,
      "chip": "ym2612"
    },
    {
      "channel": 3,
      "note": 43,
      "start": 46.1368,
      "duration": 0.2305,
      "velocity": 100,
      "chip": "ym2612"
    },
    {
      "channel": 3,
      "note": 52,
      "start": 46.3675,
      "duration": 15.5975,
      "velocity": 100,
      "chip": "ym2612"
    },
    {
      "channel": 1,
      "note": 88,
      "start": 46.6173,
      "duration": 0.4832,
      "velocity": 127,
      "chip": "ym2612"
    },
    {
      "channel": 1,
      "note": 88,
      "start": 47.1006,
      "duration": 0.4666,
      "velocity": 127,
      "chip": "ym2612"
    },
    {
      "channel": 1,
      "note": 88,
      "start": 47.5672,
      "duration": 0.4832,
      "velocity": 127,
      "chip": "ym2612"
    },
    {
      "channel": 1,
      "note": 88,
      "start": 48.0506,
      "duration": 0.4832,
      "velocity": 127,
      "chip": "ym2612"
    },
    {
      "channel": 2,
      "note": 59,
      "start": 48.0527,
      "duration": 13.9123,
      "velocity": 100,
      "chip": "ym2612"
    },
    {
      "channel": 1,
      "note": 88,
      "start": 48.5339,
      "duration": 0.4832,
      "velocity": 127,
      "chip": "ym2612"
    },
    {
      "channel": 1,
      "note": 88,
      "start": 49.0172,
      "duration": 0.4832,
      "velocity": 127,
      "chip": "ym2612"
    },
    {
      "channel": 1,
      "note": 88,
      "start": 49.5006,
      "duration": 0.4686,
      "velocity": 127,
      "chip": "ym2612"
    },
    {
      "channel": 0,
      "note": 26,
      "start": 49.9672,
      "duration": 3.5998,
      "velocity": 1,
      "chip": "ym2612"
    },
    {
      "channel": 1,
      "note": 88,
      "start": 49.9693,
      "duration": 0.4811,
      "velocity": 127,
      "chip": "ym2612"
    },
    {
      "channel": 1,
      "note": 88,
      "start": 50.4506,
      "duration": 0.4832,
      "velocity": 127,
      "chip": "ym2612"
    },
    {
      "channel": 1,
      "note": 88,
      "start": 50.9339,
      "duration": 0.4832,
      "velocity": 127,
      "chip": "ym2612"
    },
    {
      "channel": 1,
      "note": 88,
      "start": 51.4172,
      "duration": 0.4832,
      "velocity": 127,
      "chip": "ym2612"
    },
    {
      "channel": 1,
      "note": 88,
      "start": 51.9006,
      "duration": 0.4666,
      "velocity": 127,
      "chip": "ym2612"
    },
    {
      "channel": 1,
      "note": 88,
      "start": 52.3672,
      "duration": 0.4832,
      "velocity": 127,
      "chip": "ym2612"
    },
    {
      "channel": 1,
      "note": 88,
      "start": 52.8506,
      "duration": 0.4832,
      "velocity": 127,
      "chip": "ym2612"
    },
    {
      "channel": 1,
      "note": 88,
      "start": 53.3339,
      "duration": 0.4852,
      "velocity": 127,
      "chip": "ym2612"
    },
    {
      "channel": 0,
      "note": 48,
      "start": 53.5672,
      "duration": 0.2498,
      "velocity": 117,
      "chip": "ym2612"
    },
    {
      "channel": 0,
      "note": 48,
      "start": 53.8172,
      "duration": 7.6833,
      "velocity": 1,
      "chip": "ym2612"
    },
    {
      "channel": 1,
      "note": 88,
      "start": 53.8193,
      "duration": 0.4811,
      "velocity": 127,
      "chip": "ym2612"
    },
    {
      "channel": 1,
      "note": 88,
      "start": 54.3006,
      "duration": 0.4666,
      "velocity": 127,
      "chip": "ym2612"
    },
    {
      "channel": 1,
      "note": 88,
      "start": 54.7672,
      "duration": 0.4832,
      "velocity": 127,
      "chip": "ym2612"
    },
    {
      "channel": 1,
      "note": 88,
      "start": 55.2506,
      "duration": 0.4832,
      "velocity": 127,
      "chip": "ym2612"
    },
    {
      "channel": 1,
      "note": 88,
      "start": 55.7339,
      "duration": 0.4832,
      "velocity": 127,
      "chip": "ym2612"
    },
    {
      "channel": 1,
      "note": 88,
      "start": 56.2172,
      "duration": 0.4832,
      "velocity": 127,
      "chip": "ym2612"
    },
    {
      "channel": 1,
      "note": 88,
      "start": 56.7006,
      "duration": 0.4666,
      "velocity": 127,
      "chip": "ym2612"
    },
    {
      "channel": 1,
      "note": 88,
      "start": 57.1672,
      "duration": 0.4832,
      "velocity": 127,
      "chip": "ym2612"
    },
    {
      "channel": 1,
      "note": 88,
      "start": 57.6506,
      "duration": 0.4832,
      "velocity": 127,
      "chip": "ym2612"
    },
    {
      "channel": 1,
      "note": 88,
      "start": 58.1339,
      "duration": 0.4832,
      "velocity": 127,
      "chip": "ym2612"
    },
    {
      "channel": 1,
      "note": 88,
      "start": 58.6172,
      "duration": 0.4832,
      "velocity": 127,
      "chip": "ym2612"
    },
    {
      "channel": 1,
      "note": 88,
      "start": 59.1006,
      "duration": 0.4666,
      "velocity": 127,
      "chip": "ym2612"
    },
    {
      "channel": 1,
      "note": 88,
      "start": 59.5672,
      "duration": 0.4832,
      "velocity": 127,
      "chip": "ym2612"
    },
    {
      "channel": 1,
      "note": 88,
      "start": 60.0506,
      "duration": 0.4832,
      "velocity": 127,
      "chip": "ym2612"
    },
    {
      "channel": 1,
      "note": 88,
      "start": 60.5339,
      "duration": 0.4832,
      "velocity": 127,
      "chip": "ym2612"
    },
    {
      "channel": 1,
      "note": 88,
      "start": 61.0172,
      "duration": 0.4854,
      "velocity": 127,
      "chip": "ym2612"
    },
    {
      "channel": 0,
      "note": 43,
      "start": 61.5007,
      "duration": 0.233,
      "velocity": 117,
      "chip": "ym2612"
    },
    {
      "channel": 1,
      "note": 88,
      "start": 61.5029,
      "duration": 0.4622,
      "velocity": 127,
      "chip": "ym2612"
    },
    {
      "channel": 0,
      "note": 47,
      "start": 61.7339,
      "duration": 0.2311,
      "velocity": 117,
      "chip": "ym2612"
    }
  ]
}