{
  "track_name": "05 - Opening Part 4",
  "duration_sec": 41.582,
  "sample_rate": 44100,
  "note_count": 1574,
  "unique_pitches": 20,
  "pitch_range": 50,
  "avg_note_duration": 0.1395,
  "reconstruction_stats": {
    "notes_reconstructed": 1574,
    "keyon_events": 1574,
    "keyoff_events": 1568,
    "orphan_keyons": 6,
    "unique_pitches": 20,
    "pitch_range": 50,
    "avg_duration_sec": 0.1395
  },
  "metadata": {
    "source": "J\\Jungle Strike\\05 - Opening Part 4.vgz"
  },
  "notes": [
    {
      "channel": 2,
      "note": 64,
      "start": 0.0018,
      "duration": 0.8447,
      "velocity": 104,
      "chip": "ym2612"
    },
    {
      "channel": 3,
      "note": 52,
      "start": 0.0105,
      "duration": 0.8337,
      "velocity": 113,
      "chip": "ym2612"
    },
    {
      "channel": 1,
      "note": 33,
      "start": 0.0132,
      "duration": 2.763,
      "velocity": 94,
      "chip": "ym2612"
    },
    {
      "channel": 0,
      "note": 64,
      "start": 0.0155,
      "duration": 0.8338,
      "velocity": 104,
      "chip": "ym2612"
    },
    {
      "channel": 4,
      "note": 52,
      "start": 0.0184,
      "duration": 0.8235,
      "velocity": 104,
      "chip": "ym2612"
    },
    {
      "channel": 4,
      "note": 57,
      "start": 0.8426,
      "duration": 0.115,
      "velocity": 104,
      "chip": "ym2612"
    },
    {
      "channel": 3,
      "note": 57,
      "start": 0.8449,
      "duration": 0.1141,
      "velocity": 113,
      "chip": "ym2612"
    },
    {
      "channel": 2,
      "note": 69,
      "start": 0.8472,
      "duration": 0.1132,
      "velocity": 104,
      "chip": "ym2612"
    },
    {
      "channel": 0,
      "note": 64,
      "start": 0.8499,
      "duration": 0.1124,
      "velocity": 104,
      "chip": "ym2612"
    },
    {
      "channel": 2,
      "note": 71,
      "start": 1.0158,
      "duration": 0.123,
      "velocity": 104,
      "chip": "ym2612"
    },
    {
      "channel": 0,
      "note": 64,
      "start": 1.0186,
      "duration": 0.1222,
      "velocity": 104,
      "chip": "ym2612"
    },
    {
      "channel": 4,
      "note": 59,
      "start": 1.0216,
      "duration": 0.1144,
      "velocity": 104,
      "chip": "ym2612"
    },
    {
      "channel": 3,
      "note": 59,
      "start": 1.0239,
      "duration": 0.1136,
      "velocity": 113,
      "chip": "ym2612"
    },
    {
      "channel": 3,
      "note": 64,
      "start": 1.1939,
      "duration": 1.572,
      "velocity": 113,
      "chip": "ym2612"
    },
    {
      "channel": 2,
      "note": 76,
      "start": 1.1961,
      "duration": 1.5721,
      "velocity": 104,
      "chip": "ym2612"
    },
    {
      "channel": 0,
      "note": 69,
      "start": 1.1989,
      "duration": 1.5728,
      "velocity": 104,
      "chip": "ym2612"
    },
    {
      "channel": 4,
      "note": 64,
      "start": 1.2019,
      "duration": 1.5618,
      "velocity": 104,
      "chip": "ym2612"
    },
    {
      "channel": 4,
      "note": 67,
      "start": 2.7643,
      "duration": 0.5246,
      "velocity": 104,
      "chip": "ym2612"
    },
    {
      "channel": 3,
      "note": 48,
      "start": 2.7665,
      "duration": 0.5246,
      "velocity": 113,
      "chip": "ym2612"
    },
    {
      "channel": 2,
      "note": 79,
      "start": 2.7689,
      "duration": 0.5142,
      "velocity": 104,
      "chip": "ym2612"
    },
    {
      "channel": 0,
      "note": 76,
      "start": 2.7723,
      "duration": 0.5136,
      "velocity": 104,
      "chip": "ym2612"
    },
    {
      "channel": 1,
      "note": 33,
      "start": 2.7767,
      "duration": 2.7927,
      "velocity": 94,
      "chip": "ym2612"
    },
    {
      "channel": 2,
      "note": 78,
      "start": 3.2838,
      "duration": 0.5265,
      "velocity": 104,
      "chip": "ym2612"
    },
    {
      "channel": 0,
      "note": 74,
      "start": 3.2865,
      "duration": 0.5265,
      "velocity": 104,
      "chip": "ym2612"
    },
    {
      "channel": 4,
      "note": 66,
      "start": 3.2896,
      "duration": 0.5265,
      "velocity": 104,
      "chip": "ym2612"
    },
    {
      "channel": 3,
      "note": 50,
      "start": 3.2918,
      "duration": 0.5162,
      "velocity": 113,
      "chip": "ym2612"
    },
    {
      "channel": 3,
      "note": 52,
      "start": 3.8086,
      "duration": 0.351,
      "velocity": 113,
      "chip": "ym2612"
    },
    {
      "channel": 2,
      "note": 74,
      "start": 3.8109,
      "duration": 0.351,
      "velocity": 104,
      "chip": "ym2612"
    },
    {
      "channel": 0,
      "note": 69,
      "start": 3.8137,
      "duration": 0.351,
      "velocity": 104,
      "chip": "ym2612"
    },
    {
      "channel": 4,
      "note": 62,
      "start": 3.8167,
      "duration": 0.351,
      "velocity": 104,
      "chip": "ym2612"
    },
    {
      "channel": 3,
      "note": 45,
      "start": 4.1602,
      "duration": 0.1911,
      "velocity": 113,
      "chip": "ym2612"
    },
    {
      "channel": 2,
      "note": 76,
      "start": 4.1625,
      "duration": 1.4266,
      "velocity": 104,
      "chip": "ym2612"
    },
    {
      "channel": 0,
      "note": 71,
      "start": 4.1653,
      "duration": 1.418,
      "velocity": 104,
      "chip": "ym2612"
    },
    {
      "channel": 4,
      "note": 64,
      "start": 4.1683,
      "duration": 1.4181,
      "velocity": 104,
      "chip": "ym2612"
    },
    {
      "channel": 3,
      "note": 45,
      "start": 4.3519,
      "duration": 0.1716,
      "velocity": 113,
      "chip": "ym2612"
    },
    {
      "channel": 3,
      "note": 45,
      "start": 4.5242,
      "duration": 0.1763,
      "velocity": 113,
      "chip": "ym2612"
    },
    {
      "channel": 3,
      "note": 45,
      "start": 4.7011,
      "duration": 0.1709,
      "velocity": 113,
      "chip": "ym2612"
    },
    {
      "channel": 3,
      "note": 45,
      "start": 4.8727,
      "duration": 0.1778,
      "velocity": 113,
      "chip": "ym2612"
    },
    {
      "channel": 3,
      "note": 45,
      "start": 5.0511,
      "duration": 0.1709,
      "velocity": 113,
      "chip": "ym2612"
    },
    {
      "channel": 3,
      "note": 45,
      "start": 5.2227,
      "duration": 0.1709,
      "velocity": 113,
      "chip": "ym2612"
    },
    {
      "channel": 3,
      "note": 45,
      "start": 5.3943,
      "duration": 0.1828,
      "velocity": 113,
      "chip": "ym2612"
    },
    {
      "channel": 5,
      "note": 69,
      "start": 5.5647,
      "duration": 0.0775,
      "velocity": 112,
      "chip": "ym2612"
    },
    {
      "channel": 3,
      "note": 45,
      "start": 5.5777,
      "duration": 0.1613,
      "velocity": 113,
      "chip": "ym2612"
    },
    {
      "channel": 0,
      "note": 81,
      "start": 5.5839,
      "duration": 0.148,
      "velocity": 104,
      "chip": "ym2612"
    },
    {
      "channel": 4,
      "note": 69,
      "start": 5.587,
      "duration": 0.1498,
      "velocity": 104,
      "chip": "ym2612"
    },
    {
      "channel": 2,
      "note": 81,
      "start": 5.5897,
      "duration": 0.1395,
      "velocity": 104,
      "chip": "ym2612"
    },
    {
      "channel": 1,
      "note": 69,
      "start": 5.592,
      "duration": 1.187,
      "velocity": 95,
      "chip": "ym2612"
    },
    {
      "channel": 5,
      "note": 69,
      "start": 5.6428,
      "duration": 0.0917,
      "velocity": 112,
      "chip": "ym2612"
    },
    {
      "channel": 2,
      "note": 81,
      "start": 5.7298,
      "duration": 0.0857,
      "velocity": 104,
      "chip": "ym2612"
    },
    {
      "channel": 0,
      "note": 81,
      "start": 5.7326,
      "duration": 0.0849,
      "velocity": 104,
      "chip": "ym2612"
    },
    {
      "channel": 5,
      "note": 69,
      "start": 5.7351,
      "duration": 0.0905,
      "velocity": 112,
      "chip": "ym2612"
    },
    {
      "channel": 4,
      "note": 69,
      "start": 5.7374,
      "duration": 0.0835,
      "velocity": 104,
      "chip": "ym2612"
    },
    {
      "channel": 3,
      "note": 45,
      "start": 5.7397,
      "duration": 0.0826,
      "velocity": 113,
      "chip": "ym2612"
    },
    {
      "channel": 5,
      "note": 69,
      "start": 5.8263,
      "duration": 0.0928,
      "velocity": 112,
      "chip": "ym2612"
    },
    {
      "channel": 5,
      "note": 69,
      "start": 5.9196,
      "duration": 0.0714,
      "velocity": 112,
      "chip": "ym2612"
    },
    {
      "channel": 3,
      "note": 57,
      "start": 5.9331,
      "duration": 0.065,
      "velocity": 112,
      "chip": "ym2612"
    },
    {
      "channel": 0,
      "note": 33,
      "start": 5.9363,
      "duration": 2.7646,
      "velocity": 94,
      "chip": "ym2612"
    },
    {
      "channel": 5,
      "note": 69,
      "start": 5.9917,
      "duration": 0.0912,
      "velocity": 112,
      "chip": "ym2612"
    },
    {
      "channel": 3,
      "note": 57,
      "start": 5.9988,
      "duration": 0.08,
      "velocity": 112,
      "chip": "ym2612"
    },
    {
      "channel": 3,
      "note": 57,
      "start": 6.0795,
      "duration": 0.0894,
      "velocity": 112,
      "chip": "ym2612"
    },
    {
      "channel": 5,
      "note": 69,
      "start": 6.0834,
      "duration": 0.0894,
      "velocity": 112,
      "chip": "ym2612"
    },
    {
      "channel": 3,
      "note": 57,
      "start": 6.1695,
      "duration": 0.0868,
      "velocity": 112,
      "chip": "ym2612"
    },
    {
      "channel": 5,
      "note": 69,
      "start": 6.1735,
      "duration": 0.08,
      "velocity": 112,
      "chip": "ym2612"
    },
    {
      "channel": 5,
      "note": 69,
      "start": 6.2541,
      "duration": 0.0898,
      "velocity": 112,
      "chip": "ym2612"
    },
    {
      "channel": 3,
      "note": 57,
      "start": 6.2569,
      "duration": 0.0831,
      "velocity": 112,
      "chip": "ym2612"
    },
    {
      "channel": 3,
      "note": 57,
      "start": 6.3406,
      "duration": 0.0912,
      "velocity": 112,
      "chip": "ym2612"
    },
    {
      "channel": 5,
      "note": 69,
      "start": 6.3446,
      "duration": 0.0844,
      "velocity": 112,
      "chip": "ym2612"
    },
    {
      "channel": 5,
      "note": 69,
      "start": 6.4296,
      "duration": 0.088,
      "velocity": 112,
      "chip": "ym2612"
    },
    {
      "channel": 3,
      "note": 57,
      "start": 6.4324,
      "duration": 0.0881,
      "velocity": 112,
      "chip": "ym2612"
    },
    {
      "channel": 5,
      "note": 69,
      "start": 6.5183,
      "duration": 0.0899,
      "velocity": 112,
      "chip": "ym2612"
    },
    {
      "channel": 3,
      "note": 57,
      "start": 6.5211,
      "duration": 0.0831,
      "velocity": 112,
      "chip": "ym2612"
    },
    {
      "channel": 3,
      "note": 57,
      "start": 6.6048,
      "duration": 0.0912,
      "velocity": 112,
      "chip": "ym2612"
    },
    {
      "channel": 5,
      "note": 69,
      "start": 6.6088,
      "duration": 0.0845,
      "velocity": 112,
      "chip": "ym2612"
    },
    {
      "channel": 5,
      "note": 69,
      "start": 6.6939,
      "duration": 0.088,
      "velocity": 112,
      "chip": "ym2612"
    },
    {
      "channel": 3,
      "note": 57,
      "start": 6.6967,
      "duration": 0.0881,
      "velocity": 112,
      "chip": "ym2612"
    },
    {
      "channel": 1,
      "note": 69,
      "start": 6.7796,
      "duration": 0.0841,
      "velocity": 95,
      "chip": "ym2612"
    },
    {
      "channel": 5,
      "note": 69,
      "start": 6.7826,
      "duration": 0.0885,
      "velocity": 112,
      "chip": "ym2612"
    },
    {
      "channel": 3,
      "note": 57,
      "start": 6.7854,
      "duration": 0.0756,
      "velocity": 112,
      "chip": "ym2612"
    },
    {
      "channel": 3,
      "note": 57,
      "start": 6.8616,
      "duration": 0.0949,
      "velocity": 112,
      "chip": "ym2612"
    },
    {
      "channel": 1,
      "note": 69,
      "start": 6.8644,
      "duration": 0.0875,
      "velocity": 95,
      "chip": "ym2612"
    },
    {
      "channel": 5,
      "note": 69,
      "start": 6.8718,
      "duration": 0.0963,
      "velocity": 112,
      "chip": "ym2612"
    },
    {
      "channel": 1,
      "note": 57,
      "start": 6.9525,
      "duration": 0.087,
      "velocity": 95,
      "chip": "ym2612"
    },
    {
      "channel": 3,
      "note": 57,
      "start": 6.9571,
      "duration": 0.0882,
      "velocity": 112,
      "chip": "ym2612"
    },
    {
      "channel": 5,
      "note": 69,
      "start": 6.9687,
      "duration": 0.0738,
      "velocity": 112,
      "chip": "ym2612"
    },
    {
      "channel": 1,
      "note": 69,
      "start": 7.0401,
      "duration": 0.0837,
      "velocity": 95,
      "chip": "ym2612"
    },
    {
      "channel": 5,
      "note": 69,
      "start": 7.0431,
      "duration": 0.0837,
      "velocity": 112,
      "chip": "ym2612"
    },
    {
      "channel": 3,
      "note": 57,
      "start": 7.0459,
      "duration": 0.0836,
      "velocity": 112,
      "chip": "ym2612"
    },
    {
      "channel": 1,
      "note": 57,
      "start": 7.1244,
      "duration": 0.0949,
      "velocity": 95,
      "chip": "ym2612"
    },
    {
      "channel": 5,
      "note": 69,
      "start": 7.1274,
      "duration": 0.095,
      "velocity": 112,
      "chip": "ym2612"
    },
    {
      "channel": 3,
      "note": 57,
      "start": 7.1302,
      "duration": 0.095,
      "velocity": 112,
      "chip": "ym2612"
    },
    {
      "channel": 1,
      "note": 69,
      "start": 7.22,
      "duration": 1.2157,
      "velocity": 95,
      "chip": "ym2612"
    },
    {
      "channel": 5,
      "note": 69,
      "start": 7.223,
      "duration": 0.0832,
      "velocity": 112,
      "chip": "ym2612"
    },
    {
      "channel": 3,
      "note": 57,
      "start": 7.2258,
      "duration": 0.0945,
      "velocity": 112,
      "chip": "ym2612"
    },
    {
      "channel": 5,
      "note": 69,
      "start": 7.3068,
      "duration": 0.0795,
      "velocity": 112,
      "chip": "ym2612"
    },
    {
      "channel": 3,
      "note": 57,
      "start": 7.3209,
      "duration": 0.0725,
      "velocity": 112,
      "chip": "ym2612"
    },
    {
      "channel": 5,
      "note": 69,
      "start": 7.387,
      "duration": 0.0943,
      "velocity": 112,
      "chip": "ym2612"
    },
    {
      "channel": 3,
      "note": 57,
      "start": 7.3941,
      "duration": 0.0788,
      "velocity": 112,
      "chip": "ym2612"
    },
    {
      "channel": 3,
      "note": 57,
      "start": 7.4735,
      "duration": 0.0955,
      "velocity": 112,
      "chip": "ym2612"
    },
    {
      "channel": 5,
      "note": 69,
      "start": 7.4819,
      "duration": 0.0844,
      "velocity": 112,
      "chip": "ym2612"
    },
    {
      "channel": 5,
      "note": 69,
      "start": 7.5669,
      "duration": 0.0805,
      "velocity": 112,
      "chip": "ym2612"
    },
    {
      "channel": 3,
      "note": 57,
      "start": 7.5697,
      "duration": 0.0849,
      "velocity": 112,
      "chip": "ym2612"
    },
    {
      "channel": 5,
      "note": 69,
      "start": 7.6481,
      "duration": 0.0912,
      "velocity": 112,
      "chip": "ym2612"
    },
    {
      "channel": 3,
      "note": 57,
      "start": 7.6552,
      "duration": 0.0801,
      "velocity": 112,
      "chip": "ym2612"
    },
    {
      "channel": 3,
      "note": 57,
      "start": 7.7359,
      "duration": 0.0893,
      "velocity": 112,
      "chip": "ym2612"
    },
    {
      "channel": 5,
      "note": 69,
      "start": 7.7399,
      "duration": 0.0894,
      "velocity": 112,
      "chip": "ym2612"
    },
    {
      "channel": 3,
      "note": 57,
      "start": 7.8259,
      "duration": 0.0868,
      "velocity": 112,
      "chip": "ym2612"
    },
    {
      "channel": 5,
      "note": 69,
      "start": 7.8299,
      "duration": 0.08,
      "velocity": 112,
      "chip": "ym2612"
    },
    {
      "channel": 5,
      "note": 69,
      "start": 7.9106,
      "duration": 0.0929,
      "velocity": 112,
      "chip": "ym2612"
    },
    {
      "channel": 3,
      "note": 57,
      "start": 7.9133,
      "duration": 0.0863,
      "velocity": 112,
      "chip": "ym2612"
    },
    {
      "channel": 3,
      "note": 57,
      "start": 8.0002,
      "duration": 0.0894,
      "velocity": 112,
      "chip": "ym2612"
    },
    {
      "channel": 5,
      "note": 69,
      "start": 8.0041,
      "duration": 0.0894,
      "velocity": 112,
      "chip": "ym2612"
    },
    {
      "channel": 3,
      "note": 57,
      "start": 8.0902,
      "duration": 0.0863,
      "velocity": 112,
      "chip": "ym2612"
    },
    {
      "channel": 5,
      "note": 69,
      "start": 8.0942,
      "duration": 0.0863,
      "velocity": 112,
      "chip": "ym2612"
    },
    {
      "channel": 3,
      "note": 57,
      "start": 8.1771,
      "duration": 0.0806,
      "velocity": 112,
      "chip": "ym2612"
    },
    {
      "channel": 5,
      "note": 69,
      "start": 8.1811,
      "duration": 0.0849,
      "velocity": 112,
      "chip": "ym2612"
    },
    {
      "channel": 3,
      "note": 57,
      "start": 8.2583,
      "duration": 0.0943,
      "velocity": 112,
      "chip": "ym2612"
    },
    {
      "channel": 5,
      "note": 69,
      "start": 8.2667,
      "duration": 0.0976,
      "velocity": 112,
      "chip": "ym2612"
    },
    {
      "channel": 3,
      "note": 57,
      "start": 8.3532,
      "duration": 0.0882,
      "velocity": 112,
      "chip": "ym2612"
    },
    {
      "channel": 5,
      "note": 69,
      "start": 8.3649,
      "duration": 0.0738,
      "velocity": 112,
      "chip": "ym2612"
    },
    {
      "channel": 1,
      "note": 69,
      "start": 8.4363,
      "duration": 0.0837,
      "velocity": 95,
      "chip": "ym2612"
    },
    {
      "channel": 5,
      "note": 69,
      "start": 8.4393,
      "duration": 0.0837,
      "velocity": 112,
      "chip": "ym2612"
    },
    {
      "channel": 3,
      "note": 57,
      "start": 8.4421,
      "duration": 0.0837,
      "velocity": 112,
      "chip": "ym2612"
    },
    {
      "channel": 1,
      "note": 69,
      "start": 8.5206,
      "duration": 0.088,
      "velocity": 95,
      "chip": "ym2612"
    },
    {
      "channel": 5,
      "note": 69,
      "start": 8.5237,
      "duration": 0.088,
      "velocity": 112,
      "chip": "ym2612"
    },
    {
      "channel": 3,
      "note": 57,
      "start": 8.5263,
      "duration": 0.0881,
      "velocity": 112,
      "chip": "ym2612"
    },
    {
      "channel": 1,
      "note": 57,
      "start": 8.6093,
      "duration": 0.0837,
      "velocity": 95,
      "chip": "ym2612"
    },
    {
      "channel": 5,
      "note": 69,
      "start": 8.6123,
      "duration": 0.0912,
      "velocity": 112,
      "chip": "ym2612"
    },
    {
      "channel": 3,
      "note": 57,
      "start": 8.6151,
      "duration": 0.0988,
      "velocity": 112,
      "chip": "ym2612"
    },
    {
      "channel": 1,
      "note": 69,
      "start": 8.6936,
      "duration": 0.0945,
      "velocity": 95,
      "chip": "ym2612"
    },
    {
      "channel": 0,
      "note": 33,
      "start": 8.7015,
      "duration": 2.7933,
      "velocity": 94,
      "chip": "ym2612"
    },
    {
      "channel": 5,
      "note": 69,
      "start": 8.7041,
      "duration": 0.079,
      "velocity": 112,
      "chip": "ym2612"
    },
    {
      "channel": 3,
      "note": 57,
      "start": 8.7146,
      "duration": 0.0775,
      "velocity": 112,
      "chip": "ym2612"
    },
    {
      "channel": 5,
      "note": 69,
      "start": 8.7837,
      "duration": 0.0954,
      "velocity": 112,
      "chip": "ym2612"
    },
    {
      "channel": 1,
      "note": 57,
      "start": 8.7887,
      "duration": 0.0873,
      "velocity": 95,
      "chip": "ym2612"
    },
    {
      "channel": 3,
      "note": 57,
      "start": 8.7927,
      "duration": 0.0806,
      "velocity": 112,
      "chip": "ym2612"
    },
    {
      "channel": 3,
      "note": 57,
      "start": 8.8739,
      "duration": 0.0899,
      "velocity": 112,
      "chip": "ym2612"
    },
    {
      "channel": 1,
      "note": 69,
      "start": 8.8767,
      "duration": 1.2105,
      "velocity": 95,
      "chip": "ym2612"
    },
    {
      "channel": 5,
      "note": 69,
      "start": 8.8798,
      "duration": 0.0813,
      "velocity": 112,
      "chip": "ym2612"
    },
    {
      "channel": 5,
      "note": 69,
      "start": 8.9617,
      "duration": 0.0806,
      "velocity": 112,
      "chip": "ym2612"
    },
    {
      "channel": 3,
      "note": 57,
      "start": 8.9644,
      "duration": 0.085,
      "velocity": 112,
      "chip": "ym2612"
    },
    {
      "channel": 5,
      "note": 69,
      "start": 9.0429,
      "duration": 0.0942,
      "velocity": 112,
      "chip": "ym2612"
    },
    {
      "channel": 3,
      "note": 57,
      "start": 9.0501,
      "duration": 0.0788,
      "velocity": 112,
      "chip": "ym2612"
    },
    {
      "channel": 3,
      "note": 57,
      "start": 9.1295,
      "duration": 0.0955,
      "velocity": 112,
      "chip": "ym2612"
    },
    {
      "channel": 5,
      "note": 69,
      "start": 9.1378,
      "duration": 0.0845,
      "velocity": 112,
      "chip": "ym2612"
    },
    {
      "channel": 5,
      "note": 69,
      "start": 9.2229,
      "duration": 0.0805,
      "velocity": 112,
      "chip": "ym2612"
    },
    {
      "channel": 3,
      "note": 57,
      "start": 9.2256,
      "duration": 0.0849,
      "velocity": 112,
      "chip": "ym2612"
    },
    {
      "channel": 5,
      "note": 69,
      "start": 9.3041,
      "duration": 0.0912,
      "velocity": 112,
      "chip": "ym2612"
    },
    {
      "channel": 3,
      "note": 57,
      "start": 9.3112,
      "duration": 0.08,
      "velocity": 112,
      "chip": "ym2612"
    },
    {
      "channel": 3,
      "note": 57,
      "start": 9.3919,
      "duration": 0.0894,
      "velocity": 112,
      "chip": "ym2612"
    },
    {
      "channel": 5,
      "note": 69,
      "start": 9.3959,
      "duration": 0.0894,
      "velocity": 112,
      "chip": "ym2612"
    },
    {
      "channel": 3,
      "note": 57,
      "start": 9.4819,
      "duration": 0.0943,
      "velocity": 112,
      "chip": "ym2612"
    },
    {
      "channel": 5,
      "note": 69,
      "start": 9.4859,
      "duration": 0.0875,
      "velocity": 112,
      "chip": "ym2612"
    },
    {
      "channel": 5,
      "note": 69,
      "start": 9.574,
      "duration": 0.0868,
      "velocity": 112,
      "chip": "ym2612"
    },
    {
      "channel": 3,
      "note": 57,
      "start": 9.5768,
      "duration": 0.08,
      "velocity": 112,
      "chip": "ym2612"
    },
    {
      "channel": 3,
      "note": 57,
      "start": 9.6574,
      "duration": 0.0894,
      "velocity": 112,
      "chip": "ym2612"
    },
    {
      "channel": 5,
      "note": 69,
      "start": 9.6615,
      "duration": 0.1006,
      "velocity": 112,
      "chip": "ym2612"
    },
    {
      "channel": 3,
      "note": 57,
      "start": 9.7475,
      "duration": 0.0852,
      "velocity": 112,
      "chip": "ym2612"
    },
    {
      "channel": 5,
      "note": 69,
      "start": 9.7627,
      "duration": 0.0739,
      "velocity": 112,
      "chip": "ym2612"
    },
    {
      "channel": 3,
      "note": 57,
      "start": 9.8333,
      "duration": 0.0868,
      "velocity": 112,
      "chip": "ym2612"
    },
    {
      "channel": 5,
      "note": 69,
      "start": 9.8373,
      "duration": 0.08,
      "velocity": 112,
      "chip": "ym2612"
    },
    {
      "channel": 5,
      "note": 69,
      "start": 9.9179,
      "duration": 0.0894,
      "velocity": 112,
      "chip": "ym2612"
    },
    {
      "channel": 3,
      "note": 57,
      "start": 9.9207,
      "duration": 0.0894,
      "velocity": 112,
      "chip": "ym2612"
    },
    {
      "channel": 5,
      "note": 69,
      "start": 10.0079,
      "duration": 0.088,
      "velocity": 112,
      "chip": "ym2612"
    },
    {
      "channel": 3,
      "note": 57,
      "start": 10.0107,
      "duration": 0.0994,
      "velocity": 112,
      "chip": "ym2612"
    },
    {
      "channel": 1,
      "note": 69,
      "start": 10.0878,
      "duration": 0.0883,
      "velocity": 95,
      "chip": "ym2612"
    },
    {
      "channel": 5,
      "note": 69,
      "start": 10.0965,
      "duration": 0.0827,
      "velocity": 112,
      "chip": "ym2612"
    },
    {
      "channel": 3,
      "note": 57,
      "start": 10.1107,
      "duration": 0.0712,
      "velocity": 112,
      "chip": "ym2612"
    },
    {
      "channel": 1,
      "note": 69,
      "start": 10.1768,
      "duration": 0.0885,
      "velocity": 95,
      "chip": "ym2612"
    },
    {
      "channel": 5,
      "note": 69,
      "start": 10.1798,
      "duration": 0.0885,
      "velocity": 112,
      "chip": "ym2612"
    },
    {
      "channel": 3,
      "note": 57,
      "start": 10.1825,
      "duration": 0.0801,
      "velocity": 112,
      "chip": "ym2612"
    },
    {
      "channel": 3,
      "note": 57,
      "start": 10.2632,
      "duration": 0.096,
      "velocity": 112,
      "chip": "ym2612"
    },
    {
      "channel": 1,
      "note": 57,
      "start": 10.266,
      "duration": 0.088,
      "velocity": 95,
      "chip": "ym2612"
    },
    {
      "channel": 5,
      "note": 69,
      "start": 10.269,
      "duration": 0.0943,
      "velocity": 112,
      "chip": "ym2612"
    },
    {
      "channel": 1,
      "note": 69,
      "start": 10.3546,
      "duration": 0.0899,
      "velocity": 95,
      "chip": "ym2612"
    },
    {
      "channel": 3,
      "note": 57,
      "start": 10.3599,
      "duration": 0.0886,
      "velocity": 112,
      "chip": "ym2612"
    },
    {
      "channel": 5,
      "note": 69,
      "start": 10.3639,
      "duration": 0.0756,
      "velocity": 112,
      "chip": "ym2612"
    },
    {
      "channel": 5,
      "note": 69,
      "start": 10.4401,
      "duration": 0.0954,
      "velocity": 112,
      "chip": "ym2612"
    },
    {
      "channel": 1,
      "note": 57,
      "start": 10.4452,
      "duration": 0.0873,
      "velocity": 95,
      "chip": "ym2612"
    },
    {
      "channel": 3,
      "note": 57,
      "start": 10.4491,
      "duration": 0.0806,
      "velocity": 112,
      "chip": "ym2612"
    },
    {
      "channel": 3,
      "note": 57,
      "start": 10.5303,
      "duration": 0.0899,
      "velocity": 112,
      "chip": "ym2612"
    },
    {
      "channel": 1,
      "note": 69,
      "start": 10.5331,
      "duration": 1.2132,
      "velocity": 95,
      "chip": "ym2612"
    },
    {
      "channel": 5,
      "note": 69,
      "start": 10.5362,
      "duration": 0.0813,
      "velocity": 112,
      "chip": "ym2612"
    },
    {
      "channel": 5,
      "note": 69,
      "start": 10.6181,
      "duration": 0.0806,
      "velocity": 112,
      "chip": "ym2612"
    },
    {
      "channel": 3,
      "note": 57,
      "start": 10.6209,
      "duration": 0.085,
      "velocity": 112,
      "chip": "ym2612"
    },
    {
      "channel": 5,
      "note": 69,
      "start": 10.6994,
      "duration": 0.0942,
      "velocity": 112,
      "chip": "ym2612"
    },
    {
      "channel": 3,
      "note": 57,
      "start": 10.7065,
      "duration": 0.0788,
      "velocity": 112,
      "chip": "ym2612"
    },
    {
      "channel": 3,
      "note": 57,
      "start": 10.7859,
      "duration": 0.0955,
      "velocity": 112,
      "chip": "ym2612"
    },
    {
      "channel": 5,
      "note": 69,
      "start": 10.7942,
      "duration": 0.0844,
      "velocity": 112,
      "chip": "ym2612"
    },
    {
      "channel": 5,
      "note": 69,
      "start": 10.8793,
      "duration": 0.0863,
      "velocity": 112,
      "chip": "ym2612"
    },
    {
      "channel": 3,
      "note": 57,
      "start": 10.882,
      "duration": 0.0863,
      "velocity": 112,
      "chip": "ym2612"
    },
    {
      "channel": 5,
      "note": 69,
      "start": 10.9661,
      "duration": 0.0868,
      "velocity": 112,
      "chip": "ym2612"
    },
    {
      "channel": 3,
      "note": 57,
      "start": 10.969,
      "duration": 0.08,
      "velocity": 112,
      "chip": "ym2612"
    },
    {
      "channel": 3,
      "note": 57,
      "start": 11.0495,
      "duration": 0.0962,
      "velocity": 112,
      "chip": "ym2612"
    },
    {
      "channel": 5,
      "note": 69,
      "start": 11.0536,
      "duration": 0.1037,
      "velocity": 112,
      "chip": "ym2612"
    },
    {
      "channel": 3,
      "note": 57,
      "start": 11.1464,
      "duration": 0.0863,
      "velocity": 112,
      "chip": "ym2612"
    },
    {
      "channel": 5,
      "note": 69,
      "start": 11.1579,
      "duration": 0.072,
      "velocity": 112,
      "chip": "ym2612"
    },
    {
      "channel": 5,
      "note": 69,
      "start": 11.2306,
      "duration": 0.0805,
      "velocity": 112,
      "chip": "ym2612"
    },
    {
      "channel": 3,
      "note": 57,
      "start": 11.2333,
      "duration": 0.0849,
      "velocity": 112,
      "chip": "ym2612"
    },
    {
      "channel": 5,
      "note": 69,
      "start": 11.3118,
      "duration": 0.0906,
      "velocity": 112,
      "chip": "ym2612"
    },
    {
      "channel": 3,
      "note": 57,
      "start": 11.3189,
      "duration": 0.0863,
      "velocity": 112,
      "chip": "ym2612"
    },
    {
      "channel": 5,
      "note": 69,
      "start": 11.403,
      "duration": 0.087,
      "velocity": 112,
      "chip": "ym2612"
    },
    {
      "channel": 3,
      "note": 57,
      "start": 11.4058,
      "duration": 0.1002,
      "velocity": 112,
      "chip": "ym2612"
    },
    {
      "channel": 5,
      "note": 69,
      "start": 11.4907,
      "duration": 0.0813,
      "velocity": 112,
      "chip": "ym2612"
    },
    {
      "channel": 0,
      "note": 33,
      "start": 11.4954,
      "duration": 2.7926,
      "velocity": 94,
      "chip": "ym2612"
    },
    {
      "channel": 3,
      "note": 57,
      "start": 11.5066,
      "duration": 0.0725,
      "velocity": 112,
      "chip": "ym2612"
    },
    {
      "channel": 5,
      "note": 69,
      "start": 11.5727,
      "duration": 0.0912,
      "velocity": 112,
      "chip": "ym2612"
    },
    {
      "channel": 3,
      "note": 57,
      "start": 11.5798,
      "duration": 0.0801,
      "velocity": 112,
      "chip": "ym2612"
    },
    {
      "channel": 3,
      "note": 57,
      "start": 11.6605,
      "duration": 0.0911,
      "velocity": 112,
      "chip": "ym2612"
    },
    {
      "channel": 5,
      "note": 69,
      "start": 11.6644,
      "duration": 0.0912,
      "velocity": 112,
      "chip": "ym2612"
    },
    {
      "channel": 1,
      "note": 69,
      "start": 11.747,
      "duration": 0.093,
      "velocity": 95,
      "chip": "ym2612"
    },
    {
      "channel": 3,
      "note": 57,
      "start": 11.7522,
      "duration": 0.0917,
      "velocity": 112,
      "chip": "ym2612"
    },
    {
      "channel": 5,
      "note": 69,
      "start": 11.7562,
      "duration": 0.0788,
      "velocity": 112,
      "chip": "ym2612"
    },
    {
      "channel": 5,
      "note": 69,
      "start": 11.8357,
      "duration": 0.0947,
      "velocity": 112,
      "chip": "ym2612"
    },
    {
      "channel": 1,
      "note": 69,
      "start": 11.8406,
      "duration": 0.0868,
      "velocity": 95,
      "chip": "ym2612"
    },
    {
      "channel": 3,
      "note": 57,
      "start": 11.8446,
      "duration": 0.0801,
      "velocity": 112,
      "chip": "ym2612"
    },
    {
      "channel": 3,
      "note": 57,
      "start": 11.9253,
      "duration": 0.0947,
      "velocity": 112,
      "chip": "ym2612"
    },
    {
      "channel": 1,
      "note": 57,
      "start": 11.928,
      "duration": 0.0805,
      "velocity": 95,
      "chip": "ym2612"
    },
    {
      "channel": 5,
      "note": 69,
      "start": 11.931,
      "duration": 0.0862,
      "velocity": 112,
      "chip": "ym2612"
    },
    {
      "channel": 1,
      "note": 69,
      "start": 12.0092,
      "duration": 0.0912,
      "velocity": 95,
      "chip": "ym2612"
    },
    {
      "channel": 5,
      "note": 69,
      "start": 12.0179,
      "duration": 0.0776,
      "velocity": 112,
      "chip": "ym2612"
    },
    {
      "channel": 3,
      "note": 57,
      "start": 12.0207,
      "duration": 0.0837,
      "velocity": 112,
      "chip": "ym2612"
    },
    {
      "channel": 5,
      "note": 69,
      "start": 12.096,
      "duration": 0.0955,
      "velocity": 112,
      "chip": "ym2612"
    },
    {
      "channel": 1,
      "note": 57,
      "start": 12.101,
      "duration": 0.0874,
      "velocity": 95,
      "chip": "ym2612"
    },
    {
      "channel": 3,
      "note": 57,
      "start": 12.105,
      "duration": 0.0807,
      "velocity": 112,
      "chip": "ym2612"
    },
    {
      "channel": 3,
      "note": 57,
      "start": 12.1863,
      "duration": 0.0882,
      "velocity": 112,
      "chip": "ym2612"
    },
    {
      "channel": 1,
      "note": 69,
      "start": 12.189,
      "duration": 1.2156,
      "velocity": 95,
      "chip": "ym2612"
    },
    {
      "channel": 5,
      "note": 69,
      "start": 12.1921,
      "duration": 0.0863,
      "velocity": 112,
      "chip": "ym2612"
    },
    {
      "channel": 3,
      "note": 57,
      "start": 12.2751,
      "duration": 0.0862,
      "velocity": 112,
      "chip": "ym2612"
    },
    {
      "channel": 5,
      "note": 69,
      "start": 12.279,
      "duration": 0.0863,
      "velocity": 112,
      "chip": "ym2612"
    },
    {
      "channel": 3,
      "note": 57,
      "start": 12.3619,
      "duration": 0.0806,
      "velocity": 112,
      "chip": "ym2612"
    },
    {
      "channel": 5,
      "note": 69,
      "start": 12.3659,
      "duration": 0.0849,
      "velocity": 112,
      "chip": "ym2612"
    },
    {
      "channel": 3,
      "note": 57,
      "start": 12.4431,
      "duration": 0.0943,
      "velocity": 112,
      "chip": "ym2612"
    },
    {
      "channel": 5,
      "note": 69,
      "start": 12.4515,
      "duration": 0.0975,
      "velocity": 112,
      "chip": "ym2612"
    },
    {
      "channel": 3,
      "note": 57,
      "start": 12.538,
      "duration": 0.0877,
      "velocity": 112,
      "chip": "ym2612"
    },
    {
      "channel": 5,
      "note": 69,
      "start": 12.5496,
      "duration": 0.0801,
      "velocity": 112,
      "chip": "ym2612"
    },
    {
      "channel": 3,
      "note": 57,
      "start": 12.6263,
      "duration": 0.0868,
      "velocity": 112,
      "chip": "ym2612"
    },
    {
      "channel": 5,
      "note": 69,
      "start": 12.6303,
      "duration": 0.08,
      "velocity": 112,
      "chip": "ym2612"
    },
    {
      "channel": 5,
      "note": 69,
      "start": 12.7109,
      "duration": 0.0895,
      "velocity": 112,
      "chip": "ym2612"
    },
    {
      "channel": 3,
      "note": 57,
      "start": 12.7137,
      "duration": 0.0894,
      "velocity": 112,
      "chip": "ym2612"
    },
    {
      "channel": 5,
      "note": 69,
      "start": 12.801,
      "duration": 0.0862,
      "velocity": 112,
      "chip": "ym2612"
    },
    {
      "channel": 3,
      "note": 57,
      "start": 12.8037,
      "duration": 0.0976,
      "velocity": 112,
      "chip": "ym2612"
    },
    {
      "channel": 5,
      "note": 69,
      "start": 12.8878,
      "duration": 0.0795,
      "velocity": 112,
      "chip": "ym2612"
    },
    {
      "channel": 3,
      "note": 57,
      "start": 12.902,
      "duration": 0.0725,
      "velocity": 112,
      "chip": "ym2612"
    },
    {
      "channel": 5,
      "note": 69,
      "start": 12.968,
      "duration": 0.0943,
      "velocity": 112,
      "chip": "ym2612"
    },
    {
      "channel": 3,
      "note": 57,
      "start": 12.9751,
      "duration": 0.0788,
      "velocity": 112,
      "chip": "ym2612"
    },
    {
      "channel": 3,
      "note": 57,
      "start": 13.0546,
      "duration": 0.0955,
      "velocity": 112,
      "chip": "ym2612"
    },
    {
      "channel": 5,
      "note": 69,
      "start": 13.0629,
      "duration": 0.0844,
      "velocity": 112,
      "chip": "ym2612"
    },
    {
      "channel": 5,
      "note": 69,
      "start": 13.148,
      "duration": 0.0805,
      "velocity": 112,
      "chip": "ym2612"
    },
    {
      "channel": 3,
      "note": 57,
      "start": 13.1507,
      "duration": 0.0849,
      "velocity": 112,
      "chip": "ym2612"
    },
    {
      "channel": 5,
      "note": 69,
      "start": 13.2291,
      "duration": 0.0912,
      "velocity": 112,
      "chip": "ym2612"
    },
    {
      "channel": 3,
      "note": 57,
      "start": 13.2363,
      "duration": 0.08,
      "velocity": 112,
      "chip": "ym2612"
    },
    {
      "channel": 3,
      "note": 57,
      "start": 13.3169,
      "duration": 0.0992,
      "velocity": 112,
      "chip": "ym2612"
    },
    {
      "channel": 5,
      "note": 69,
      "start": 13.3209,
      "duration": 0.0924,
      "velocity": 112,
      "chip": "ym2612"
    },
    {
      "channel": 1,
      "note": 69,
      "start": 13.4053,
      "duration": 0.0912,
      "velocity": 95,
      "chip": "ym2612"
    },
    {
      "channel": 5,
      "note": 69,
      "start": 13.414,
      "duration": 0.0776,
      "velocity": 112,
      "chip": "ym2612"
    },
    {
      "channel": 3,
      "note": 57,
      "start": 13.4168,
      "duration": 0.0837,
      "velocity": 112,
      "chip": "ym2612"
    },
    {
      "channel": 5,
      "note": 69,
      "start": 13.4922,
      "duration": 0.0947,
      "velocity": 112,
      "chip": "ym2612"
    },
    {
      "channel": 1,
      "note": 69,
      "start": 13.4971,
      "duration": 0.0868,
      "velocity": 95,
      "chip": "ym2612"
    },
    {
      "channel": 3,
      "note": 57,
      "start": 13.5011,
      "duration": 0.0801,
      "velocity": 112,
      "chip": "ym2612"
    },
    {
      "channel": 3,
      "note": 57,
      "start": 13.5818,
      "duration": 0.0947,
      "velocity": 112,
      "chip": "ym2612"
    },
    {
      "channel": 1,
      "note": 57,
      "start": 13.5845,
      "duration": 0.0805,
      "velocity": 95,
      "chip": "ym2612"
    },
    {
      "channel": 5,
      "note": 69,
      "start": 13.5875,
      "duration": 0.0862,
      "velocity": 112,
      "chip": "ym2612"
    },
    {
      "channel": 1,
      "note": 69,
      "start": 13.6657,
      "duration": 0.0906,
      "velocity": 95,
      "chip": "ym2612"
    },
    {
      "channel": 5,
      "note": 69,
      "start": 13.6744,
      "duration": 0.085,
      "velocity": 112,
      "chip": "ym2612"
    },
    {
      "channel": 3,
      "note": 57,
      "start": 13.6772,
      "duration": 0.085,
      "velocity": 112,
      "chip": "ym2612"
    },
    {
      "channel": 1,
      "note": 57,
      "start": 13.757,
      "duration": 0.0892,
      "velocity": 95,
      "chip": "ym2612"
    },
    {
      "channel": 5,
      "note": 69,
      "start": 13.76,
      "duration": 0.0893,
      "velocity": 112,
      "chip": "ym2612"
    },
    {
      "channel": 3,
      "note": 57,
      "start": 13.7628,
      "duration": 0.0756,
      "velocity": 112,
      "chip": "ym2612"
    },
    {
      "channel": 3,
      "note": 57,
      "start": 13.839,
      "duration": 0.0937,
      "velocity": 112,
      "chip": "ym2612"
    },
    {
      "channel": 1,
      "note": 69,
      "start": 13.8468,
      "duration": 1.2144,
      "velocity": 95,
      "chip": "ym2612"
    },
    {
      "channel": 5,
      "note": 69,
      "start": 13.8498,
      "duration": 0.0945,
      "velocity": 112,
      "chip": "ym2612"
    },
    {
      "channel": 3,
      "note": 57,
      "start": 13.9333,
      "duration": 0.0845,
      "velocity": 112,
      "chip": "ym2612"
    },
    {
      "channel": 5,
      "note": 69,
      "start": 13.9449,
      "duration": 0.077,
      "velocity": 112,
      "chip": "ym2612"
    },
    {
      "channel": 3,
      "note": 57,
      "start": 14.0185,
      "duration": 0.0868,
      "velocity": 112,
      "chip": "ym2612"
    },
    {
      "channel": 5,
      "note": 69,
      "start": 14.0225,
      "duration": 0.0756,
      "velocity": 112,
      "chip": "ym2612"
    },
    {
      "channel": 5,
      "note": 69,
      "start": 14.0988,
      "duration": 0.0968,
      "velocity": 112,
      "chip": "ym2612"
    },
    {
      "channel": 3,
      "note": 57,
      "start": 14.1059,
      "duration": 0.0924,
      "velocity": 112,
      "chip": "ym2612"
    },
    {
      "channel": 5,
      "note": 69,
      "start": 14.1962,
      "duration": 0.087,
      "velocity": 112,
      "chip": "ym2612"
    },
    {
      "channel": 3,
      "note": 57,
      "start": 14.199,
      "duration": 0.1,
      "velocity": 112,
      "chip": "ym2612"
    },
    {
      "channel": 5,
      "note": 69,
      "start": 14.2839,
      "duration": 0.0811,
      "velocity": 112,
      "chip": "ym2612"
    },
    {
      "channel": 0,
      "note": 33,
      "start": 14.2886,
      "duration": 2.792,
      "velocity": 94,
      "chip": "ym2612"
    },
    {
      "channel": 3,
      "note": 64,
      "start": 14.2996,
      "duration": 0.072,
      "velocity": 112,
      "chip": "ym2612"
    },
    {
      "channel": 5,
      "note": 69,
      "start": 14.3656,
      "duration": 0.0901,
      "velocity": 112,
      "chip": "ym2612"
    },
    {
      "channel": 3,
      "note": 64,
      "start": 14.3723,
      "duration": 0.0863,
      "velocity": 112,
      "chip": "ym2612"
    },
    {
      "channel": 5,
      "note": 69,
      "start": 14.4564,
      "duration": 0.0868,
      "velocity": 112,
      "chip": "ym2612"
    },
    {
      "channel": 3,
      "note": 64,
      "start": 14.4592,
      "duration": 0.0801,
      "velocity": 112,
      "chip": "ym2612"
    },
    {
      "channel": 3,
      "note": 64,
      "start": 14.5399,
      "duration": 0.0898,
      "velocity": 112,
      "chip": "ym2612"
    },
    {
      "channel": 5,
      "note": 69,
      "start": 14.5438,
      "duration": 0.0831,
      "velocity": 112,
      "chip": "ym2612"
    },
    {
      "channel": 5,
      "note": 69,
      "start": 14.6276,
      "duration": 0.0893,
      "velocity": 112,
      "chip": "ym2612"
    },
    {
      "channel": 3,
      "note": 64,
      "start": 14.6303,
      "duration": 0.0894,
      "velocity": 112,
      "chip": "ym2612"
    },
    {
      "channel": 5,
      "note": 69,
      "start": 14.7176,
      "duration": 0.0868,
      "velocity": 112,
      "chip": "ym2612"
    },
    {
      "channel": 3,
      "note": 64,
      "start": 14.7204,
      "duration": 0.08,
      "velocity": 112,
      "chip": "ym2612"
    },
    {
      "channel": 3,
      "note": 64,
      "start": 14.801,
      "duration": 0.0899,
      "velocity": 112,
      "chip": "ym2612"
    },
    {
      "channel": 5,
      "note": 69,
      "start": 14.805,
      "duration": 0.0788,
      "velocity": 112,
      "chip": "ym2612"
    },
    {
      "channel": 5,
      "note": 69,
      "start": 14.8844,
      "duration": 0.0968,
      "velocity": 112,
      "chip": "ym2612"
    },
    {
      "channel": 3,
      "note": 64,
      "start": 14.8915,
      "duration": 0.0924,
      "velocity": 112,
      "chip": "ym2612"
    },
    {
      "channel": 5,
      "note": 69,
      "start": 14.9818,
      "duration": 0.0886,
      "velocity": 112,
      "chip": "ym2612"
    },
    {
      "channel": 3,
      "note": 64,
      "start": 14.9845,
      "duration": 0.0819,
      "velocity": 112,
      "chip": "ym2612"
    },
    {
      "channel": 1,
      "note": 69,
      "start": 15.0618,
      "duration": 0.0868,
      "velocity": 95,
      "chip": "ym2612"
    },
    {
      "channel": 3,
      "note": 64,
      "start": 15.0671,
      "duration": 0.0929,
      "velocity": 112,
      "chip": "ym2612"
    },
    {
      "channel": 5,
      "note": 69,
      "start": 15.071,
      "duration": 0.0862,
      "velocity": 112,
      "chip": "ym2612"
    },
    {
      "channel": 1,
      "note": 69,
      "start": 15.1492,
      "duration": 0.0907,
      "velocity": 95,
      "chip": "ym2612"
    },
    {
      "channel": 5,
      "note": 69,
      "start": 15.1578,
      "duration": 0.085,
      "velocity": 112,
      "chip": "ym2612"
    },
    {
      "channel": 3,
      "note": 64,
      "start": 15.1606,
      "duration": 0.085,
      "velocity": 112,
      "chip": "ym2612"
    },
    {
      "channel": 1,
      "note": 57,
      "start": 15.2405,
      "duration": 0.0841,
      "velocity": 95,
      "chip": "ym2612"
    },
    {
      "channel": 5,
      "note": 69,
      "start": 15.2434,
      "duration": 0.0999,
      "velocity": 112,
      "chip": "ym2612"
    },
    {
      "channel": 3,
      "note": 64,
      "start": 15.2462,
      "duration": 0.0756,
      "velocity": 112,
      "chip": "ym2612"
    },
    {
      "channel": 3,
      "note": 64,
      "start": 15.3225,
      "duration": 0.0931,
      "velocity": 112,
      "chip": "ym2612"
    },
    {
      "channel": 1,
      "note": 69,
      "start": 15.3252,
      "duration": 0.0852,
      "velocity": 95,
      "chip": "ym2612"
    },
    {
      "channel": 5,
      "note": 69,
      "start": 15.3439,
      "duration": 0.0756,
      "velocity": 112,
      "chip": "ym2612"
    },
    {
      "channel": 1,
      "note": 57,
      "start": 15.411,
      "duration": 0.0905,
      "velocity": 95,
      "chip": "ym2612"
    },
    {
      "channel": 3,
      "note": 64,
      "start": 15.4163,
      "duration": 0.0892,
      "velocity": 112,
      "chip": "ym2612"
    },
    {
      "channel": 5,
      "note": 69,
      "start": 15.4202,
      "duration": 0.0763,
      "velocity": 112,
      "chip": "ym2612"
    },
    {
      "channel": 5,
      "note": 69,
      "start": 15.4971,
      "duration": 0.0943,
      "velocity": 112,
      "chip": "ym2612"
    },
    {
      "channel": 1,
      "note": 69,
      "start": 15.5022,
      "duration": 1.2211,
      "velocity": 95,
      "chip": "ym2612"
    },
    {
      "channel": 3,
      "note": 64,
      "start": 15.5061,
      "duration": 0.0813,
      "velocity": 112,
      "chip": "ym2612"
    },
    {
      "channel": 3,
      "note": 64,
      "start": 15.588,
      "duration": 0.0863,
      "velocity": 112,
      "chip": "ym2612"
    },
    {
      "channel": 5,
      "note": 69,
      "start": 15.592,
      "duration": 0.0863,
      "velocity": 112,
      "chip": "ym2612"
    },
    {
      "channel": 3,
      "note": 64,
      "start": 15.6749,
      "duration": 0.1004,
      "velocity": 112,
      "chip": "ym2612"
    },
    {
      "channel": 5,
      "note": 69,
      "start": 15.6789,
      "duration": 0.0818,
      "velocity": 112,
      "chip": "ym2612"
    },
    {
      "channel": 5,
      "note": 69,
      "start": 15.7614,
      "duration": 0.0913,
      "velocity": 112,
      "chip": "ym2612"
    },
    {
      "channel": 3,
      "note": 64,
      "start": 15.776,
      "duration": 0.0795,
      "velocity": 112,
      "chip": "ym2612"
    },
    {
      "channel": 5,
      "note": 69,
      "start": 15.8534,
      "duration": 0.0863,
      "velocity": 112,
      "chip": "ym2612"
    },
    {
      "channel": 3,
      "note": 64,
      "start": 15.8561,
      "duration": 0.0863,
      "velocity": 112,
      "chip": "ym2612"
    },
    {
      "channel": 5,
      "note": 69,
      "start": 15.9403,
      "duration": 0.0805,
      "velocity": 112,
      "chip": "ym2612"
    },
    {
      "channel": 3,
      "note": 64,
      "start": 15.9431,
      "duration": 0.0805,
      "velocity": 112,
      "chip": "ym2612"
    },
    {
      "channel": 5,
      "note": 69,
      "start": 16.0214,
      "duration": 0.0944,
      "velocity": 112,
      "chip": "ym2612"
    },
    {
      "channel": 3,
      "note": 64,
      "start": 16.0242,
      "duration": 0.0876,
      "velocity": 112,
      "chip": "ym2612"
    },
    {
      "channel": 3,
      "note": 64,
      "start": 16.1124,
      "duration": 0.0863,
      "velocity": 112,
      "chip": "ym2612"
    },
    {
      "channel": 5,
      "note": 69,
      "start": 16.1164,
      "duration": 0.0862,
      "velocity": 112,
      "chip": "ym2612"
    },
    {
      "channel": 3,
      "note": 64,
      "start": 16.1993,
      "duration": 0.0805,
      "velocity": 112,
      "chip": "ym2612"
    },
    {
      "channel": 5,
      "note": 69,
      "start": 16.2032,
      "duration": 0.0805,
      "velocity": 112,
      "chip": "ym2612"
    },
    {
      "channel": 3,
      "note": 64,
      "start": 16.2805,
      "duration": 0.0942,
      "velocity": 112,
      "chip": "ym2612"
    },
    {
      "channel": 5,
      "note": 69,
      "start": 16.2844,
      "duration": 0.0876,
      "velocity": 112,
      "chip": "ym2612"
    },
    {
      "channel": 5,
      "note": 69,
      "start": 16.3726,
      "duration": 0.0924,
      "velocity": 112,
      "chip": "ym2612"
    },
    {
      "channel": 3,
      "note": 64,
      "start": 16.3753,
      "duration": 0.0925,
      "velocity": 112,
      "chip": "ym2612"
    },
    {
      "channel": 5,
      "note": 69,
      "start": 16.4656,
      "duration": 0.0868,
      "velocity": 112,
      "chip": "ym2612"
    },
    {
      "channel": 3,
      "note": 64,
      "start": 16.4684,
      "duration": 0.08,
      "velocity": 112,
      "chip": "ym2612"
    },
    {
      "channel": 3,
      "note": 64,
      "start": 16.549,
      "duration": 0.0912,
      "velocity": 112,
      "chip": "ym2612"
    },
    {
      "channel": 5,
      "note": 69,
      "start": 16.553,
      "duration": 0.0845,
      "velocity": 112,
      "chip": "ym2612"
    },
    {
      "channel": 5,
      "note": 69,
      "start": 16.6382,
      "duration": 0.1012,
      "velocity": 112,
      "chip": "ym2612"
    },
    {
      "channel": 3,
      "note": 64,
      "start": 16.6409,
      "duration": 0.0869,
      "velocity": 112,
      "chip": "ym2612"
    },
    {
      "channel": 1,
      "note": 69,
      "start": 16.7239,
      "duration": 0.0812,
      "velocity": 95,
      "chip": "ym2612"
    },
    {
      "channel": 3,
      "note": 64,
      "start": 16.7284,
      "duration": 0.0819,
      "velocity": 112,
      "chip": "ym2612"
    },
    {
      "channel": 5,
      "note": 69,
      "start": 16.74,
      "duration": 0.0744,
      "velocity": 112,
      "chip": "ym2612"
    },
    {
      "channel": 1,
      "note": 69,
      "start": 16.8057,
      "duration": 0.088,
      "velocity": 95,
      "chip": "ym2612"
    },
    {
      "channel": 3,
      "note": 64,
      "start": 16.811,
      "duration": 0.0885,
      "velocity": 112,
      "chip": "ym2612"
    },
    {
      "channel": 5,
      "note": 69,
      "start": 16.8149,
      "duration": 0.0819,
      "velocity": 112,
      "chip": "ym2612"
    },
    {
      "channel": 1,
      "note": 57,
      "start": 16.8944,
      "duration": 0.088,
      "velocity": 95,
      "chip": "ym2612"
    },
    {
      "channel": 5,
      "note": 69,
      "start": 16.8975,
      "duration": 0.088,
      "velocity": 112,
      "chip": "ym2612"
    },
    {
      "channel": 3,
      "note": 64,
      "start": 16.9001,
      "duration": 0.0881,
      "velocity": 112,
      "chip": "ym2612"
    },
    {
      "channel": 1,
      "note": 69,
      "start": 16.9831,
      "duration": 0.0853,
      "velocity": 95,
      "chip": "ym2612"
    },
    {
      "channel": 5,
      "note": 69,
      "start": 16.9861,
      "duration": 0.0971,
      "velocity": 112,
      "chip": "ym2612"
    },
    {
      "channel": 3,
      "note": 64,
      "start": 16.9889,
      "duration": 0.0873,
      "velocity": 112,
      "chip": "ym2612"
    },
    {
      "channel": 1,
      "note": 57,
      "start": 17.069,
      "duration": 0.0993,
      "velocity": 95,
      "chip": "ym2612"
    },
    {
      "channel": 3,
      "note": 64,
      "start": 17.0768,
      "duration": 0.087,
      "velocity": 112,
      "chip": "ym2612"
    },
    {
      "channel": 0,
      "note": 33,
      "start": 17.0812,
      "duration": 2.7849,
      "velocity": 94,
      "chip": "ym2612"
    },
    {
      "channel": 5,
      "note": 69,
      "start": 17.0838,
      "duration": 0.0679,
      "velocity": 112,
      "chip": "ym2612"
    },
    {
      "channel": 2,
      "note": 83,
      "start": 17.0973,
      "duration": 0.0688,
      "velocity": 112,
      "chip": "ym2612"
    },
    {
      "channel": 4,
      "note": 71,
      "start": 17.1013,
      "duration": 0.0602,
      "velocity": 112,
      "chip": "ym2612"
    },
    {
      "channel": 5,
      "note": 69,
      "start": 17.1522,
      "duration": 0.0998,
      "velocity": 112,
      "chip": "ym2612"
    },
    {
      "channel": 4,
      "note": 71,
      "start": 17.1622,
      "duration": 0.0823,
      "velocity": 112,
      "chip": "ym2612"
    },
    {
      "channel": 3,
      "note": 64,
      "start": 17.1644,
      "duration": 0.0978,
      "velocity": 112,
      "chip": "ym2612"
    },
    {
      "channel": 2,
      "note": 83,
      "start": 17.1667,
      "duration": 0.0818,
      "velocity": 112,
      "chip": "ym2612"
    },
    {
      "channel": 1,
      "note": 69,
      "start": 17.169,
      "duration": 1.2122,
      "velocity": 95,
      "chip": "ym2612"
    },
    {
      "channel": 4,
      "note": 71,
      "start": 17.2451,
      "duration": 0.0999,
      "velocity": 112,
      "chip": "ym2612"
    },
    {
      "channel": 2,
      "note": 83,
      "start": 17.2492,
      "duration": 0.0901,
      "velocity": 112,
      "chip": "ym2612"
    },
    {
      "channel": 5,
      "note": 69,
      "start": 17.2526,
      "duration": 0.0901,
      "velocity": 112,
      "chip": "ym2612"
    },
    {
      "channel": 3,
      "note": 64,
      "start": 17.2628,
      "duration": 0.0741,
      "velocity": 112,
      "chip": "ym2612"
    },
    {
      "channel": 3,
      "note": 64,
      "start": 17.3375,
      "duration": 0.0935,
      "velocity": 112,
      "chip": "ym2612"
    },
    {
      "channel": 2,
      "note": 83,
      "start": 17.3399,
      "duration": 0.0849,
      "velocity": 112,
      "chip": "ym2612"
    },
    {
      "channel": 5,
      "note": 69,
      "start": 17.3433,
      "duration": 0.0756,
      "velocity": 112,
      "chip": "ym2612"
    },
    {
      "channel": 4,
      "note": 71,
      "start": 17.3456,
      "duration": 0.0832,
      "velocity": 112,
      "chip": "ym2612"
    },
    {
      "channel": 5,
      "note": 69,
      "start": 17.4196,
      "duration": 0.0935,
      "velocity": 112,
      "chip": "ym2612"
    },
    {
      "channel": 2,
      "note": 83,
      "start": 17.4254,
      "duration": 0.0842,
      "velocity": 112,
      "chip": "ym2612"
    },
    {
      "channel": 4,
      "note": 71,
      "start": 17.4294,
      "duration": 0.0756,
      "velocity": 112,
      "chip": "ym2612"
    },
    {
      "channel": 3,
      "note": 64,
      "start": 17.4317,
      "duration": 0.0757,
      "velocity": 112,
      "chip": "ym2612"
    },
    {
      "channel": 4,
      "note": 71,
      "start": 17.5056,
      "duration": 0.0943,
      "velocity": 112,
      "chip": "ym2612"
    },
    {
      "channel": 3,
      "note": 64,
      "start": 17.508,
      "duration": 0.0942,
      "velocity": 112,
      "chip": "ym2612"
    },
    {
      "channel": 2,
      "note": 83,
      "start": 17.5102,
      "duration": 0.0943,
      "velocity": 112,
      "chip": "ym2612"
    },
    {
      "channel": 5,
      "note": 69,
      "start": 17.5137,
      "duration": 0.0839,
      "velocity": 112,
      "chip": "ym2612"
    },
    {
      "channel": 5,
      "note": 69,
      "start": 17.5983,
      "duration": 0.078,
      "velocity": 112,
      "chip": "ym2612"
    },
    {
      "channel": 4,
      "note": 71,
      "start": 17.6006,
      "duration": 0.085,
      "velocity": 112,
      "chip": "ym2612"
    },
    {
      "channel": 3,
      "note": 64,
      "start": 17.6029,
      "duration": 0.0849,
      "velocity": 112,
      "chip": "ym2612"
    },
    {
      "channel": 2,
      "note": 83,
      "start": 17.6051,
      "duration": 0.0849,
      "velocity": 112,
      "chip": "ym2612"
    },
    {
      "channel": 5,
      "note": 69,
      "start": 17.6769,
      "duration": 0.0978,
      "velocity": 112,
      "chip": "ym2612"
    },
    {
      "channel": 4,
      "note": 71,
      "start": 17.6862,
      "duration": 0.0841,
      "velocity": 112,
      "chip": "ym2612"
    },
    {
      "channel": 3,
      "note": 64,
      "start": 17.6884,
      "duration": 0.0744,
      "velocity": 112,
      "chip": "ym2612"
    },
    {
      "channel": 2,
      "note": 83,
      "start": 17.6907,
      "duration": 0.0744,
      "velocity": 112,
      "chip": "ym2612"
    },
    {
      "channel": 3,
      "note": 64,
      "start": 17.7634,
      "duration": 0.1023,
      "velocity": 112,
      "chip": "ym2612"
    },
    {
      "channel": 2,
      "note": 83,
      "start": 17.7657,
      "duration": 0.0919,
      "velocity": 112,
      "chip": "ym2612"
    },
    {
      "channel": 4,
      "note": 71,
      "start": 17.7709,
      "duration": 0.0925,
      "velocity": 112,
      "chip": "ym2612"
    },
    {
      "channel": 5,
      "note": 69,
      "start": 17.7754,
      "duration": 0.0858,
      "velocity": 112,
      "chip": "ym2612"
    },
    {
      "channel": 2,
      "note": 83,
      "start": 17.8583,
      "duration": 0.0863,
      "velocity": 112,
      "chip": "ym2612"
    },
    {
      "channel": 5,
      "note": 69,
      "start": 17.8618,
      "duration": 0.0863,
      "velocity": 112,
      "chip": "ym2612"
    },
    {
      "channel": 4,
      "note": 71,
      "start": 17.8641,
      "duration": 0.0863,
      "velocity": 112,
      "chip": "ym2612"
    },
    {
      "channel": 3,
      "note": 64,
      "start": 17.8663,
      "duration": 0.0863,
      "velocity": 112,
      "chip": "ym2612"
    },
    {
      "channel": 2,
      "note": 83,
      "start": 17.9452,
      "duration": 0.0891,
      "velocity": 112,
      "chip": "ym2612"
    },
    {
      "channel": 5,
      "note": 69,
      "start": 17.9487,
      "duration": 0.0891,
      "velocity": 112,
      "chip": "ym2612"
    },
    {
      "channel": 4,
      "note": 71,
      "start": 17.951,
      "duration": 0.0788,
      "velocity": 112,
      "chip": "ym2612"
    },
    {
      "channel": 3,
      "note": 64,
      "start": 17.9532,
      "duration": 0.0788,
      "velocity": 112,
      "chip": "ym2612"
    },
    {
      "channel": 4,
      "note": 71,
      "start": 18.0303,
      "duration": 0.093,
      "velocity": 112,
      "chip": "ym2612"
    },
    {
      "channel": 3,
      "note": 64,
      "start": 18.0326,
      "duration": 0.0931,
      "velocity": 112,
      "chip": "ym2612"
    },
    {
      "channel": 2,
      "note": 83,
      "start": 18.0349,
      "duration": 0.093,
      "velocity": 112,
      "chip": "ym2612"
    },
    {
      "channel": 5,
      "note": 69,
      "start": 18.0384,
      "duration": 0.1006,
      "velocity": 112,
      "chip": "ym2612"
    },
    {
      "channel": 4,
      "note": 71,
      "start": 18.124,
      "duration": 0.0931,
      "velocity": 112,
      "chip": "ym2612"
    },
    {
      "channel": 3,
      "note": 64,
      "start": 18.1263,
      "duration": 0.0827,
      "velocity": 112,
      "chip": "ym2612"
    },
    {
      "channel": 2,
      "note": 83,
      "start": 18.1285,
      "duration": 0.0828,
      "velocity": 112,
      "chip": "ym2612"
    },
    {
      "channel": 5,
      "note": 69,
      "start": 18.1397,
      "duration": 0.0751,
      "velocity": 112,
      "chip": "ym2612"
    },
    {
      "channel": 3,
      "note": 64,
      "start": 18.2097,
      "duration": 0.078,
      "velocity": 112,
      "chip": "ym2612"
    },
    {
      "channel": 2,
      "note": 83,
      "start": 18.212,
      "duration": 0.0854,
      "velocity": 112,
      "chip": "ym2612"
    },
    {
      "channel": 5,
      "note": 69,
      "start": 18.2155,
      "duration": 0.0775,
      "velocity": 112,
      "chip": "ym2612"
    },
    {
      "channel": 4,
      "note": 71,
      "start": 18.2178,
      "duration": 0.0837,
      "velocity": 112,
      "chip": "ym2612"
    },
    {
      "channel": 3,
      "note": 64,
      "start": 18.2883,
      "duration": 0.1005,
      "velocity": 112,
      "chip": "ym2612"
    },
    {
      "channel": 5,
      "note": 69,
      "start": 18.2936,
      "duration": 0.0907,
      "velocity": 112,
      "chip": "ym2612"
    },
    {
      "channel": 2,
      "note": 83,
      "start": 18.2981,
      "duration": 0.0929,
      "velocity": 112,
      "chip": "ym2612"
    },
    {
      "channel": 4,
      "note": 71,
      "start": 18.302,
      "duration": 0.0844,
      "velocity": 112,
      "chip": "ym2612"
    },
    {
      "channel": 1,
      "note": 69,
      "start": 18.3818,
      "duration": 0.081,
      "velocity": 95,
      "chip": "ym2612"
    },
    {
      "channel": 5,
      "note": 69,
      "start": 18.3849,
      "duration": 0.0885,
      "velocity": 112,
      "chip": "ym2612"
    },
    {
      "channel": 4,
      "note": 71,
      "start": 18.3871,
      "duration": 0.105,
      "velocity": 112,
      "chip": "ym2612"
    },
    {
      "channel": 3,
      "note": 64,
      "start": 18.3894,
      "duration": 0.0873,
      "velocity": 112,
      "chip": "ym2612"
    },
    {
      "channel": 2,
      "note": 83,
      "start": 18.3917,
      "duration": 0.0964,
      "velocity": 112,
      "chip": "ym2612"
    },
    {
      "channel": 1,
      "note": 69,
      "start": 18.4635,
      "duration": 0.0858,
      "velocity": 95,
      "chip": "ym2612"
    },
    {
      "channel": 5,
      "note": 69,
      "start": 18.474,
      "duration": 0.0783,
      "velocity": 112,
      "chip": "ym2612"
    },
    {
      "channel": 3,
      "note": 64,
      "start": 18.4774,
      "duration": 0.087,
      "velocity": 112,
      "chip": "ym2612"
    },
    {
      "channel": 2,
      "note": 83,
      "start": 18.4887,
      "duration": 0.0695,
      "velocity": 112,
      "chip": "ym2612"
    },
    {
      "channel": 4,
      "note": 71,
      "start": 18.4927,
      "duration": 0.0694,
      "velocity": 112,
      "chip": "ym2612"
    },
    {
      "channel": 1,
      "note": 57,
      "start": 18.5499,
      "duration": 0.0885,
      "velocity": 95,
      "chip": "ym2612"
    },
    {
      "channel": 5,
      "note": 69,
      "start": 18.553,
      "duration": 0.0966,
      "velocity": 112,
      "chip": "ym2612"
    },
    {
      "channel": 2,
      "note": 83,
      "start": 18.5588,
      "duration": 0.0775,
      "velocity": 112,
      "chip": "ym2612"
    },
    {
      "channel": 4,
      "note": 71,
      "start": 18.5627,
      "duration": 0.0805,
      "velocity": 112,
      "chip": "ym2612"
    },
    {
      "channel": 3,
      "note": 64,
      "start": 18.565,
      "duration": 0.0806,
      "velocity": 112,
      "chip": "ym2612"
    },
    {
      "channel": 2,
      "note": 83,
      "start": 18.6369,
      "duration": 0.0942,
      "velocity": 112,
      "chip": "ym2612"
    },
    {
      "channel": 1,
      "note": 69,
      "start": 18.6391,
      "duration": 0.0837,
      "velocity": 95,
      "chip": "ym2612"
    },
    {
      "channel": 4,
      "note": 71,
      "start": 18.6439,
      "duration": 0.093,
      "velocity": 112,
      "chip": "ym2612"
    },
    {
      "channel": 3,
      "note": 64,
      "start": 18.6462,
      "duration": 0.1004,
      "velocity": 112,
      "chip": "ym2612"
    },
    {
      "channel": 5,
      "note": 69,
      "start": 18.6502,
      "duration": 0.0844,
      "velocity": 112,
      "chip": "ym2612"
    },
    {
      "channel": 1,
      "note": 57,
      "start": 18.7234,
      "duration": 0.1055,
      "velocity": 95,
      "chip": "ym2612"
    },
    {
      "channel": 2,
      "note": 83,
      "start": 18.7317,
      "duration": 0.0948,
      "velocity": 112,
      "chip": "ym2612"
    },
    {
      "channel": 5,
      "note": 69,
      "start": 18.7352,
      "duration": 0.0775,
      "velocity": 112,
      "chip": "ym2612"
    },
    {
      "channel": 4,
      "note": 71,
      "start": 18.7375,
      "duration": 0.0845,
      "velocity": 112,
      "chip": "ym2612"
    },
    {
      "channel": 3,
      "note": 64,
      "start": 18.7473,
      "duration": 0.077,
      "velocity": 112,
      "chip": "ym2612"
    },
    {
      "channel": 5,
      "note": 69,
      "start": 18.8133,
      "duration": 0.0962,
      "velocity": 112,
      "chip": "ym2612"
    },
    {
      "channel": 4,
      "note": 71,
      "start": 18.8227,
      "duration": 0.0792,
      "velocity": 112,
      "chip": "ym2612"
    },
    {
      "channel": 3,
      "note": 64,
      "start": 18.8249,
      "duration": 0.0873,
      "velocity": 112,
      "chip": "ym2612"
    },
    {
      "channel": 2,
      "note": 83,
      "start": 18.8272,
      "duration": 0.0788,
      "velocity": 112,
      "chip": "ym2612"
    },
    {
      "channel": 1,
      "note": 69,
      "start": 18.8295,
      "duration": 1.2092,
      "velocity": 95,
      "chip": "ym2612"
    },
    {
      "channel": 4,
      "note": 71,
      "start": 18.9025,
      "duration": 0.0979,
      "velocity": 112,
      "chip": "ym2612"
    },
    {
      "channel": 2,
      "note": 83,
      "start": 18.9066,
      "duration": 0.088,
      "velocity": 112,
      "chip": "ym2612"
    },
    {
      "channel": 5,
      "note": 69,
      "start": 18.9101,
      "duration": 0.088,
      "velocity": 112,
      "chip": "ym2612"
    },
    {
      "channel": 3,
      "note": 64,
      "start": 18.9128,
      "duration": 0.0795,
      "velocity": 112,
      "chip": "ym2612"
    },
    {
      "channel": 3,
      "note": 64,
      "start": 18.993,
      "duration": 0.0917,
      "velocity": 112,
      "chip": "ym2612"
    },
    {
      "channel": 2,
      "note": 83,
      "start": 18.9953,
      "duration": 0.0917,
      "velocity": 112,
      "chip": "ym2612"
    },
    {
      "channel": 5,
      "note": 69,
      "start": 18.9988,
      "duration": 0.0744,
      "velocity": 112,
      "chip": "ym2612"
    },
    {
      "channel": 4,
      "note": 71,
      "start": 19.0011,
      "duration": 0.0814,
      "velocity": 112,
      "chip": "ym2612"
    },
    {
      "channel": 5,
      "note": 69,
      "start": 19.0738,
      "duration": 0.0992,
      "velocity": 112,
      "chip": "ym2612"
    },
    {
      "channel": 4,
      "note": 71,
      "start": 19.0831,
      "duration": 0.0762,
      "velocity": 112,
      "chip": "ym2612"
    },
    {
      "channel": 3,
      "note": 64,
      "start": 19.0854,
      "duration": 0.0837,
      "velocity": 112,
      "chip": "ym2612"
    },
    {
      "channel": 2,
      "note": 83,
      "start": 19.0877,
      "duration": 0.0756,
      "velocity": 112,
      "chip": "ym2612"
    },
    {
      "channel": 4,
      "note": 71,
      "start": 19.1599,
      "duration": 0.0973,
      "velocity": 112,
      "chip": "ym2612"
    },
    {
      "channel": 2,
      "note": 83,
      "start": 19.1639,
      "duration": 0.0961,
      "velocity": 112,
      "chip": "ym2612"
    },
    {
      "channel": 3,
      "note": 64,
      "start": 19.1697,
      "duration": 0.08,
      "velocity": 112,
      "chip": "ym2612"
    },
    {
      "channel": 5,
      "note": 69,
      "start": 19.1736,
      "duration": 0.0814,
      "velocity": 112,
      "chip": "ym2612"
    },
    {
      "channel": 3,
      "note": 64,
      "start": 19.2503,
      "duration": 0.0925,
      "velocity": 112,
      "chip": "ym2612"
    },
    {
      "channel": 5,
      "note": 69,
      "start": 19.2556,
      "duration": 0.093,
      "velocity": 112,
      "chip": "ym2612"
    },
    {
      "channel": 4,
      "note": 71,
      "start": 19.2579,
      "duration": 0.0826,
      "velocity": 112,
      "chip": "ym2612"
    },
    {
      "channel": 2,
      "note": 83,
      "start": 19.2607,
      "duration": 0.0844,
      "velocity": 112,
      "chip": "ym2612"
    },
    {
      "channel": 4,
      "note": 71,
      "start": 19.3412,
      "duration": 0.078,
      "velocity": 112,
      "chip": "ym2612"
    },
    {
      "channel": 3,
      "note": 64,
      "start": 19.3434,
      "duration": 0.0856,
      "velocity": 112,
      "chip": "ym2612"
    },
    {
      "channel": 2,
      "note": 83,
      "start": 19.3457,
      "duration": 0.0775,
      "velocity": 112,
      "chip": "ym2612"
    },
    {
      "channel": 5,
      "note": 69,
      "start": 19.3492,
      "duration": 0.0837,
      "velocity": 112,
      "chip": "ym2612"
    },
    {
      "channel": 4,
      "note": 71,
      "start": 19.4198,
      "duration": 0.0961,
      "velocity": 112,
      "chip": "ym2612"
    },
    {
      "channel": 2,
      "note": 83,
      "start": 19.4239,
      "duration": 0.0949,
      "velocity": 112,
      "chip": "ym2612"
    },
    {
      "channel": 3,
      "note": 64,
      "start": 19.4296,
      "duration": 0.08,
      "velocity": 112,
      "chip": "ym2612"
    },
    {
      "channel": 5,
      "note": 69,
      "start": 19.4335,
      "duration": 0.0963,
      "velocity": 112,
      "chip": "ym2612"
    },
    {
      "channel": 3,
      "note": 64,
      "start": 19.5102,
      "duration": 0.0976,
      "velocity": 112,
      "chip": "ym2612"
    },
    {
      "channel": 4,
      "note": 71,
      "start": 19.5166,
      "duration": 0.0889,
      "velocity": 112,
      "chip": "ym2612"
    },
    {
      "channel": 2,
      "note": 83,
      "start": 19.5193,
      "duration": 0.0907,
      "velocity": 112,
      "chip": "ym2612"
    },
    {
      "channel": 5,
      "note": 69,
      "start": 19.5305,
      "duration": 0.0831,
      "velocity": 112,
      "chip": "ym2612"
    },
    {
      "channel": 4,
      "note": 71,
      "start": 19.6061,
      "duration": 0.0868,
      "velocity": 112,
      "chip": "ym2612"
    },
    {
      "channel": 3,
      "note": 64,
      "start": 19.6084,
      "duration": 0.0868,
      "velocity": 112,
      "chip": "ym2612"
    },
    {
      "channel": 2,
      "note": 83,
      "start": 19.6107,
      "duration": 0.0868,
      "velocity": 112,
      "chip": "ym2612"
    },
    {
      "channel": 5,
      "note": 69,
      "start": 19.6142,
      "duration": 0.0764,
      "velocity": 112,
      "chip": "ym2612"
    },
    {
      "channel": 5,
      "note": 69,
      "start": 19.6912,
      "duration": 0.0917,
      "velocity": 112,
      "chip": "ym2612"
    },
    {
      "channel": 4,
      "note": 71,
      "start": 19.6935,
      "duration": 0.0917,
      "velocity": 112,
      "chip": "ym2612"
    },
    {
      "channel": 3,
      "note": 64,
      "start": 19.6958,
      "duration": 0.0813,
      "velocity": 112,
      "chip": "ym2612"
    },
    {
      "channel": 2,
      "note": 83,
      "start": 19.6981,
      "duration": 0.0813,
      "velocity": 112,
      "chip": "ym2612"
    },
    {
      "channel": 3,
      "note": 64,
      "start": 19.7777,
      "duration": 0.0943,
      "velocity": 112,
      "chip": "ym2612"
    },
    {
      "channel": 2,
      "note": 83,
      "start": 19.78,
      "duration": 0.1088,
      "velocity": 112,
      "chip": "ym2612"
    },
    {
      "channel": 5,
      "note": 69,
      "start": 19.7835,
      "duration": 0.0852,
      "velocity": 112,
      "chip": "ym2612"
    },
    {
      "channel": 4,
      "note": 71,
      "start": 19.7858,
      "duration": 0.1003,
      "velocity": 112,
      "chip": "ym2612"
    },
    {
      "channel": 0,
      "note": 33,
      "start": 19.8667,
      "duration": 2.7962,
      "velocity": 94,
      "chip": "ym2612"
    },
    {
      "channel": 5,
      "note": 69,
      "start": 19.8693,
      "duration": 0.0758,
      "velocity": 112,
      "chip": "ym2612"
    },
    {
      "channel": 3,
      "note": 64,
      "start": 19.8727,
      "duration": 0.0839,
      "velocity": 112,
      "chip": "ym2612"
    },
    {
      "channel": 4,
      "note": 71,
      "start": 19.8868,
      "duration": 0.0676,
      "velocity": 112,
      "chip": "ym2612"
    },
    {
      "channel": 2,
      "note": 83,
      "start": 19.8895,
      "duration": 0.0694,
      "velocity": 112,
      "chip": "ym2612"
    },
    {
      "channel": 5,
      "note": 69,
      "start": 19.9457,
      "duration": 0.096,
      "velocity": 112,
      "chip": "ym2612"
    },
    {
      "channel": 4,
      "note": 71,
      "start": 19.955,
      "duration": 0.0774,
      "velocity": 112,
      "chip": "ym2612"
    },
    {
      "channel": 3,
      "note": 64,
      "start": 19.9573,
      "duration": 0.0872,
      "velocity": 112,
      "chip": "ym2612"
    },
    {
      "channel": 2,
      "note": 83,
      "start": 19.9595,
      "duration": 0.0769,
      "velocity": 112,
      "chip": "ym2612"
    },
    {
      "channel": 4,
      "note": 71,
      "start": 20.033,
      "duration": 0.0942,
      "velocity": 112,
      "chip": "ym2612"
    },
    {
      "channel": 2,
      "note": 83,
      "start": 20.0371,
      "duration": 0.0947,
      "velocity": 112,
      "chip": "ym2612"
    },
    {
      "channel": 1,
      "note": 69,
      "start": 20.0393,
      "duration": 0.0831,
      "velocity": 95,
      "chip": "ym2612"
    },
    {
      "channel": 5,
      "note": 69,
      "start": 20.0424,
      "duration": 0.0929,
      "velocity": 112,
      "chip": "ym2612"
    },
    {
      "channel": 3,
      "note": 64,
      "start": 20.045,
      "duration": 0.0845,
      "velocity": 112,
      "chip": "ym2612"
    },
    {
      "channel": 1,
      "note": 69,
      "start": 20.1231,
      "duration": 0.081,
      "velocity": 95,
      "chip": "ym2612"
    },
    {
      "channel": 4,
      "note": 71,
      "start": 20.1279,
      "duration": 0.0885,
      "velocity": 112,
      "chip": "ym2612"
    },
    {
      "channel": 3,
      "note": 64,
      "start": 20.1302,
      "duration": 0.0978,
      "velocity": 112,
      "chip": "ym2612"
    },
    {
      "channel": 2,
      "note": 83,
      "start": 20.1324,
      "duration": 0.0873,
      "velocity": 112,
      "chip": "ym2612"
    },
    {
      "channel": 5,
      "note": 69,
      "start": 20.1359,
      "duration": 0.0712,
      "velocity": 112,
      "chip": "ym2612"
    },
    {
      "channel": 1,
      "note": 57,
      "start": 20.2048,
      "duration": 0.0936,
      "velocity": 95,
      "chip": "ym2612"
    },
    {
      "channel": 5,
      "note": 69,
      "start": 20.2078,
      "duration": 0.0937,
      "velocity": 112,
      "chip": "ym2612"
    },
    {
      "channel": 4,
      "note": 71,
      "start": 20.2171,
      "duration": 0.0756,
      "velocity": 112,
      "chip": "ym2612"
    },
    {
      "channel": 2,
      "note": 83,
      "start": 20.2204,
      "duration": 0.0757,
      "velocity": 112,
      "chip": "ym2612"
    },
    {
      "channel": 3,
      "note": 64,
      "start": 20.2286,
      "duration": 0.0755,
      "velocity": 112,
      "chip": "ym2612"
    },
    {
      "channel": 4,
      "note": 71,
      "start": 20.2932,
      "duration": 0.1017,
      "velocity": 112,
      "chip": "ym2612"
    },
    {
      "channel": 2,
      "note": 83,
      "start": 20.2968,
      "duration": 0.1027,
      "velocity": 112,
      "chip": "ym2612"
    },
    {
      "channel": 1,
      "note": 69,
      "start": 20.299,
      "duration": 0.0907,
      "velocity": 95,
      "chip": "ym2612"
    },
    {
      "channel": 5,
      "note": 69,
      "start": 20.302,
      "duration": 0.0906,
      "velocity": 112,
      "chip": "ym2612"
    },
    {
      "channel": 3,
      "note": 64,
      "start": 20.3048,
      "duration": 0.0925,
      "velocity": 112,
      "chip": "ym2612"
    },
    {
      "channel": 1,
      "note": 57,
      "start": 20.3903,
      "duration": 0.0934,
      "velocity": 95,
      "chip": "ym2612"
    },
    {
      "channel": 5,
      "note": 69,
      "start": 20.3933,
      "duration": 0.0829,
      "velocity": 112,
      "chip": "ym2612"
    },
    {
      "channel": 4,
      "note": 71,
      "start": 20.3955,
      "duration": 0.0831,
      "velocity": 112,
      "chip": "ym2612"
    },
    {
      "channel": 3,
      "note": 64,
      "start": 20.3979,
      "duration": 0.0725,
      "velocity": 112,
      "chip": "ym2612"
    },
    {
      "channel": 2,
      "note": 83,
      "start": 20.4001,
      "duration": 0.0812,
      "velocity": 112,
      "chip": "ym2612"
    },
    {
      "channel": 3,
      "note": 64,
      "start": 20.471,
      "duration": 0.0941,
      "velocity": 112,
      "chip": "ym2612"
    },
    {
      "channel": 5,
      "note": 69,
      "start": 20.4769,
      "duration": 0.0922,
      "velocity": 112,
      "chip": "ym2612"
    },
    {
      "channel": 4,
      "note": 71,
      "start": 20.4793,
      "duration": 0.0761,
      "velocity": 112,
      "chip": "ym2612"
    },
    {
      "channel": 2,
      "note": 83,
      "start": 20.482,
      "duration": 0.0774,
      "velocity": 112,
      "chip": "ym2612"
    },
    {
      "channel": 1,
      "note": 69,
      "start": 20.4843,
      "duration": 1.211,
      "velocity": 95,
      "chip": "ym2612"
    },
    {
      "channel": 4,
      "note": 71,
      "start": 20.556,
      "duration": 0.0968,
      "velocity": 112,
      "chip": "ym2612"
    },
    {
      "channel": 2,
      "note": 83,
      "start": 20.56,
      "duration": 0.0974,
      "velocity": 112,
      "chip": "ym2612"
    },
    {
      "channel": 3,
      "note": 64,
      "start": 20.5658,
      "duration": 0.0893,
      "velocity": 112,
      "chip": "ym2612"
    },
    {
      "channel": 5,
      "note": 69,
      "start": 20.5697,
      "duration": 0.0809,
      "velocity": 112,
      "chip": "ym2612"
    },
    {
      "channel": 5,
      "note": 69,
      "start": 20.6512,
      "duration": 0.0868,
      "velocity": 112,
      "chip": "ym2612"
    },
    {
      "channel": 4,
      "note": 71,
      "start": 20.6535,
      "duration": 0.0868,
      "velocity": 112,
      "chip": "ym2612"
    },
    {
      "channel": 3,
      "note": 64,
      "start": 20.6558,
      "duration": 0.0769,
      "velocity": 112,
      "chip": "ym2612"
    },
    {
      "channel": 2,
      "note": 83,
      "start": 20.6581,
      "duration": 0.0849,
      "velocity": 112,
      "chip": "ym2612"
    },
    {
      "channel": 3,
      "note": 64,
      "start": 20.7333,
      "duration": 0.0917,
      "velocity": 112,
      "chip": "ym2612"
    },
    {
      "channel": 5,
      "note": 69,
      "start": 20.7386,
      "duration": 0.0903,
      "velocity": 112,
      "chip": "ym2612"
    },
    {
      "channel": 4,
      "note": 71,
      "start": 20.7409,
      "duration": 0.0818,
      "velocity": 112,
      "chip": "ym2612"
    },
    {
      "channel": 2,
      "note": 83,
      "start": 20.7436,
      "duration": 0.0739,
      "velocity": 112,
      "chip": "ym2612"
    },
    {
      "channel": 2,
      "note": 83,
      "start": 20.8181,
      "duration": 0.0979,
      "velocity": 112,
      "chip": "ym2612"
    },
    {
      "channel": 4,
      "note": 71,
      "start": 20.8233,
      "duration": 0.0881,
      "velocity": 112,
      "chip": "ym2612"
    },
    {
      "channel": 3,
      "note": 64,
      "start": 20.8257,
      "duration": 0.0881,
      "velocity": 112,
      "chip": "ym2612"
    },
    {
      "channel": 5,
      "note": 69,
      "start": 20.8296,
      "duration": 0.0976,
      "velocity": 112,
      "chip": "ym2612"
    },
    {
      "channel": 4,
      "note": 71,
      "start": 20.9121,
      "duration": 0.0919,
      "velocity": 112,
      "chip": "ym2612"
    },
    {
      "channel": 3,
      "note": 64,
      "start": 20.9144,
      "duration": 0.0745,
      "velocity": 112,
      "chip": "ym2612"
    },
    {
      "channel": 2,
      "note": 83,
      "start": 20.9167,
      "duration": 0.0814,
      "velocity": 112,
      "chip": "ym2612"
    },
    {
      "channel": 5,
      "note": 69,
      "start": 20.9278,
      "duration": 0.0738,
      "velocity": 112,
      "chip": "ym2612"
    },
    {
      "channel": 3,
      "note": 64,
      "start": 20.9895,
      "duration": 0.1018,
      "velocity": 112,
      "chip": "ym2612"
    },
    {
      "channel": 2,
      "note": 83,
      "start": 20.9987,
      "duration": 0.0948,
      "velocity": 112,
      "chip": "ym2612"
    },
    {
      "channel": 5,
      "note": 69,
      "start": 21.0022,
      "duration": 0.0845,
      "velocity": 112,
      "chip": "ym2612"
    },
    {
      "channel": 4,
      "note": 71,
      "start": 21.0046,
      "duration": 0.0844,
      "velocity": 112,
      "chip": "ym2612"
    },
    {
      "channel": 5,
      "note": 69,
      "start": 21.0873,
      "duration": 0.0894,
      "velocity": 112,
      "chip": "ym2612"
    },
    {
      "channel": 4,
      "note": 71,
      "start": 21.0896,
      "duration": 0.0894,
      "velocity": 112,
      "chip": "ym2612"
    },
    {
      "channel": 3,
      "note": 64,
      "start": 21.0919,
      "duration": 0.0893,
      "velocity": 112,
      "chip": "ym2612"
    },
    {
      "channel": 2,
      "note": 83,
      "start": 21.0942,
      "duration": 0.0894,
      "velocity": 112,
      "chip": "ym2612"
    },
    {
      "channel": 5,
      "note": 69,
      "start": 21.1773,
      "duration": 0.0873,
      "velocity": 112,
      "chip": "ym2612"
    },
    {
      "channel": 4,
      "note": 71,
      "start": 21.1796,
      "duration": 0.1018,
      "velocity": 112,
      "chip": "ym2612"
    },
    {
      "channel": 3,
      "note": 64,
      "start": 21.1819,
      "duration": 0.0783,
      "velocity": 112,
      "chip": "ym2612"
    },
    {
      "channel": 2,
      "note": 83,
      "start": 21.1842,
      "duration": 0.0933,
      "velocity": 112,
      "chip": "ym2612"
    },
    {
      "channel": 3,
      "note": 64,
      "start": 21.2607,
      "duration": 0.0926,
      "velocity": 112,
      "chip": "ym2612"
    },
    {
      "channel": 5,
      "note": 69,
      "start": 21.2653,
      "duration": 0.0765,
      "velocity": 112,
      "chip": "ym2612"
    },
    {
      "channel": 2,
      "note": 83,
      "start": 21.2781,
      "duration": 0.0775,
      "velocity": 112,
      "chip": "ym2612"
    },
    {
      "channel": 4,
      "note": 71,
      "start": 21.2821,
      "duration": 0.069,
      "velocity": 112,
      "chip": "ym2612"
    },
    {
      "channel": 5,
      "note": 69,
      "start": 21.3424,
      "duration": 0.0943,
      "velocity": 112,
      "chip": "ym2612"
    },
    {
      "channel": 4,
      "note": 71,
      "start": 21.3517,
      "duration": 0.0774,
      "velocity": 112,
      "chip": "ym2612"
    },
    {
      "channel": 3,
      "note": 64,
      "start": 21.3539,
      "duration": 0.0855,
      "velocity": 112,
      "chip": "ym2612"
    },
    {
      "channel": 2,
      "note": 83,
      "start": 21.3563,
      "duration": 0.0769,
      "velocity": 112,
      "chip": "ym2612"
    },
    {
      "channel": 4,
      "note": 71,
      "start": 21.4298,
      "duration": 0.0955,
      "velocity": 112,
      "chip": "ym2612"
    },
    {
      "channel": 2,
      "note": 83,
      "start": 21.4338,
      "duration": 0.0961,
      "velocity": 112,
      "chip": "ym2612"
    },
    {
      "channel": 5,
      "note": 69,
      "start": 21.4373,
      "duration": 0.0857,
      "velocity": 112,
      "chip": "ym2612"
    },
    {
      "channel": 3,
      "note": 64,
      "start": 21.4401,
      "duration": 0.0875,
      "velocity": 112,
      "chip": "ym2612"
    },
    {
      "channel": 5,
      "note": 69,
      "start": 21.5237,
      "duration": 0.078,
      "velocity": 112,
      "chip": "ym2612"
    },
    {
      "channel": 4,
      "note": 71,
      "start": 21.5259,
      "duration": 0.085,
      "velocity": 112,
      "chip": "ym2612"
    },
    {
      "channel": 3,
      "note": 64,
      "start": 21.5282,
      "duration": 0.0849,
      "velocity": 112,
      "chip": "ym2612"
    },
    {
      "channel": 2,
      "note": 83,
      "start": 21.5305,
      "duration": 0.085,
      "velocity": 112,
      "chip": "ym2612"
    },
    {
      "channel": 5,
      "note": 69,
      "start": 21.6023,
      "duration": 0.0961,
      "velocity": 112,
      "chip": "ym2612"
    },
    {
      "channel": 4,
      "note": 71,
      "start": 21.6116,
      "duration": 0.0774,
      "velocity": 112,
      "chip": "ym2612"
    },
    {
      "channel": 3,
      "note": 64,
      "start": 21.6138,
      "duration": 0.0947,
      "velocity": 112,
      "chip": "ym2612"
    },
    {
      "channel": 2,
      "note": 83,
      "start": 21.6161,
      "duration": 0.0769,
      "velocity": 112,
      "chip": "ym2612"
    },
    {
      "channel": 4,
      "note": 71,
      "start": 21.6896,
      "duration": 0.0967,
      "velocity": 112,
      "chip": "ym2612"
    },
    {
      "channel": 2,
      "note": 83,
      "start": 21.6937,
      "duration": 0.0973,
      "velocity": 112,
      "chip": "ym2612"
    },
    {
      "channel": 1,
      "note": 69,
      "start": 21.6959,
      "duration": 0.0851,
      "velocity": 95,
      "chip": "ym2612"
    },
    {
      "channel": 5,
      "note": 69,
      "start": 21.699,
      "duration": 0.0851,
      "velocity": 112,
      "chip": "ym2612"
    },
    {
      "channel": 3,
      "note": 64,
      "start": 21.7092,
      "duration": 0.0795,
      "velocity": 112,
      "chip": "ym2612"
    },
    {
      "channel": 1,
      "note": 69,
      "start": 21.7817,
      "duration": 0.0917,
      "velocity": 95,
      "chip": "ym2612"
    },
    {
      "channel": 5,
      "note": 69,
      "start": 21.7847,
      "duration": 0.0811,
      "velocity": 112,
      "chip": "ym2612"
    },
    {
      "channel": 4,
      "note": 71,
      "start": 21.787,
      "duration": 0.0899,
      "velocity": 112,
      "chip": "ym2612"
    },
    {
      "channel": 3,
      "note": 64,
      "start": 21.7893,
      "duration": 0.0899,
      "velocity": 112,
      "chip": "ym2612"
    },
    {
      "channel": 2,
      "note": 83,
      "start": 21.7916,
      "duration": 0.0899,
      "velocity": 112,
      "chip": "ym2612"
    },
    {
      "channel": 5,
      "note": 69,
      "start": 21.8665,
      "duration": 0.0983,
      "velocity": 112,
      "chip": "ym2612"
    },
    {
      "channel": 1,
      "note": 57,
      "start": 21.874,
      "duration": 0.078,
      "velocity": 95,
      "chip": "ym2612"
    },
    {
      "channel": 4,
      "note": 71,
      "start": 21.8776,
      "duration": 0.0793,
      "velocity": 112,
      "chip": "ym2612"
    },
    {
      "channel": 3,
      "note": 64,
      "start": 21.8798,
      "duration": 0.0792,
      "velocity": 112,
      "chip": "ym2612"
    },
    {
      "channel": 2,
      "note": 83,
      "start": 21.8821,
      "duration": 0.0792,
      "velocity": 112,
      "chip": "ym2612"
    },
    {
      "channel": 1,
      "note": 69,
      "start": 21.9527,
      "duration": 0.0911,
      "velocity": 95,
      "chip": "ym2612"
    },
    {
      "channel": 4,
      "note": 71,
      "start": 21.9574,
      "duration": 0.0911,
      "velocity": 112,
      "chip": "ym2612"
    },
    {
      "channel": 3,
      "note": 64,
      "start": 21.9597,
      "duration": 0.0912,
      "velocity": 112,
      "chip": "ym2612"
    },
    {
      "channel": 2,
      "note": 83,
      "start": 21.962,
      "duration": 0.0912,
      "velocity": 112,
      "chip": "ym2612"
    },
    {
      "channel": 5,
      "note": 69,
      "start": 21.9655,
      "duration": 0.0911,
      "velocity": 112,
      "chip": "ym2612"
    },
    {
      "channel": 1,
      "note": 57,
      "start": 22.0444,
      "duration": 0.09,
      "velocity": 95,
      "chip": "ym2612"
    },
    {
      "channel": 4,
      "note": 71,
      "start": 22.0492,
      "duration": 0.0905,
      "velocity": 112,
      "chip": "ym2612"
    },
    {
      "channel": 3,
      "note": 64,
      "start": 22.0515,
      "duration": 0.0905,
      "velocity": 112,
      "chip": "ym2612"
    },
    {
      "channel": 2,
      "note": 83,
      "start": 22.0537,
      "duration": 0.0905,
      "velocity": 112,
      "chip": "ym2612"
    },
    {
      "channel": 5,
      "note": 69,
      "start": 22.0572,
      "duration": 0.0802,
      "velocity": 112,
      "chip": "ym2612"
    },
    {
      "channel": 1,
      "note": 69,
      "start": 22.135,
      "duration": 1.2172,
      "velocity": 95,
      "chip": "ym2612"
    },
    {
      "channel": 5,
      "note": 69,
      "start": 22.138,
      "duration": 0.0847,
      "velocity": 112,
      "chip": "ym2612"
    },
    {
      "channel": 4,
      "note": 71,
      "start": 22.1403,
      "duration": 0.0744,
      "velocity": 112,
      "chip": "ym2612"
    },
    {
      "channel": 3,
      "note": 64,
      "start": 22.1426,
      "duration": 0.0744,
      "velocity": 112,
      "chip": "ym2612"
    },
    {
      "channel": 2,
      "note": 83,
      "start": 22.1449,
      "duration": 0.0744,
      "velocity": 112,
      "chip": "ym2612"
    },
    {
      "channel": 4,
      "note": 71,
      "start": 22.2153,
      "duration": 0.0931,
      "velocity": 112,
      "chip": "ym2612"
    },
    {
      "channel": 3,
      "note": 64,
      "start": 22.2176,
      "duration": 0.093,
      "velocity": 112,
      "chip": "ym2612"
    },
    {
      "channel": 2,
      "note": 83,
      "start": 22.2199,
      "duration": 0.0931,
      "velocity": 112,
      "chip": "ym2612"
    },
    {
      "channel": 5,
      "note": 69,
      "start": 22.2234,
      "duration": 0.1006,
      "velocity": 112,
      "chip": "ym2612"
    },
    {
      "channel": 4,
      "note": 71,
      "start": 22.309,
      "duration": 0.0845,
      "velocity": 112,
      "chip": "ym2612"
    },
    {
      "channel": 3,
      "note": 64,
      "start": 22.3112,
      "duration": 0.0846,
      "velocity": 112,
      "chip": "ym2612"
    },
    {
      "channel": 2,
      "note": 83,
      "start": 22.3136,
      "duration": 0.0845,
      "velocity": 112,
      "chip": "ym2612"
    },
    {
      "channel": 5,
      "note": 69,
      "start": 22.3247,
      "duration": 0.077,
      "velocity": 112,
      "chip": "ym2612"
    },
    {
      "channel": 4,
      "note": 71,
      "start": 22.3942,
      "duration": 0.0873,
      "velocity": 112,
      "chip": "ym2612"
    },
    {
      "channel": 3,
      "note": 64,
      "start": 22.3965,
      "duration": 0.0775,
      "velocity": 112,
      "chip": "ym2612"
    },
    {
      "channel": 2,
      "note": 83,
      "start": 22.3988,
      "duration": 0.0855,
      "velocity": 112,
      "chip": "ym2612"
    },
    {
      "channel": 5,
      "note": 69,
      "start": 22.4023,
      "duration": 0.0769,
      "velocity": 112,
      "chip": "ym2612"
    },
    {
      "channel": 3,
      "note": 64,
      "start": 22.4746,
      "duration": 0.0974,
      "velocity": 112,
      "chip": "ym2612"
    },
    {
      "channel": 5,
      "note": 69,
      "start": 22.4798,
      "duration": 0.0876,
      "velocity": 112,
      "chip": "ym2612"
    },
    {
      "channel": 4,
      "note": 71,
      "start": 22.4822,
      "duration": 0.0875,
      "velocity": 112,
      "chip": "ym2612"
    },
    {
      "channel": 2,
      "note": 83,
      "start": 22.4849,
      "duration": 0.0894,
      "velocity": 112,
      "chip": "ym2612"
    },
    {
      "channel": 5,
      "note": 69,
      "start": 22.5681,
      "duration": 0.0974,
      "velocity": 112,
      "chip": "ym2612"
    },
    {
      "channel": 4,
      "note": 71,
      "start": 22.5704,
      "duration": 0.1119,
      "velocity": 112,
      "chip": "ym2612"
    },
    {
      "channel": 3,
      "note": 64,
      "start": 22.5727,
      "duration": 0.0864,
      "velocity": 112,
      "chip": "ym2612"
    },
    {
      "channel": 2,
      "note": 83,
      "start": 22.5749,
      "duration": 0.1033,
      "velocity": 112,
      "chip": "ym2612"
    },
    {
      "channel": 3,
      "note": 64,
      "start": 22.6597,
      "duration": 0.0788,
      "velocity": 112,
      "chip": "ym2612"
    },
    {
      "channel": 0,
      "note": 33,
      "start": 22.6635,
      "duration": 2.7919,
      "velocity": 94,
      "chip": "ym2612"
    },
    {
      "channel": 5,
      "note": 69,
      "start": 22.6661,
      "duration": 0.0777,
      "velocity": 112,
      "chip": "ym2612"
    },
    {
      "channel": 2,
      "note": 83,
      "start": 22.6789,
      "duration": 0.07,
      "velocity": 112,
      "chip": "ym2612"
    },
    {
      "channel": 4,
      "note": 71,
      "start": 22.6829,
      "duration": 0.0632,
      "velocity": 112,
      "chip": "ym2612"
    },
    {
      "channel": 3,
      "note": 64,
      "start": 22.7392,
      "duration": 0.0966,
      "velocity": 112,
      "chip": "ym2612"
    },
    {
      "channel": 5,
      "note": 69,
      "start": 22.7445,
      "duration": 0.0886,
      "velocity": 112,
      "chip": "ym2612"
    },
    {
      "channel": 4,
      "note": 71,
      "start": 22.7467,
      "duration": 0.0788,
      "velocity": 112,
      "chip": "ym2612"
    },
    {
      "channel": 2,
      "note": 83,
      "start": 22.7495,
      "duration": 0.0801,
      "velocity": 112,
      "chip": "ym2612"
    },
    {
      "channel": 4,
      "note": 71,
      "start": 22.8261,
      "duration": 0.0955,
      "velocity": 112,
      "chip": "ym2612"
    },
    {
      "channel": 2,
      "note": 83,
      "start": 22.8302,
      "duration": 0.0961,
      "velocity": 112,
      "chip": "ym2612"
    },
    {
      "channel": 5,
      "note": 69,
      "start": 22.8337,
      "duration": 0.0857,
      "velocity": 112,
      "chip": "ym2612"
    },
    {
      "channel": 3,
      "note": 64,
      "start": 22.8364,
      "duration": 0.0876,
      "velocity": 112,
      "chip": "ym2612"
    },
    {
      "channel": 5,
      "note": 69,
      "start": 22.92,
      "duration": 0.078,
      "velocity": 112,
      "chip": "ym2612"
    },
    {
      "channel": 4,
      "note": 71,
      "start": 22.9223,
      "duration": 0.085,
      "velocity": 112,
      "chip": "ym2612"
    },
    {
      "channel": 3,
      "note": 64,
      "start": 22.9246,
      "duration": 0.0849,
      "velocity": 112,
      "chip": "ym2612"
    },
    {
      "channel": 2,
      "note": 83,
      "start": 22.9269,
      "duration": 0.0849,
      "velocity": 112,
      "chip": "ym2612"
    },
    {
      "channel": 5,
      "note": 69,
      "start": 22.9987,
      "duration": 0.0941,
      "velocity": 112,
      "chip": "ym2612"
    },
    {
      "channel": 4,
      "note": 71,
      "start": 23.0079,
      "duration": 0.0774,
      "velocity": 112,
      "chip": "ym2612"
    },
    {
      "channel": 3,
      "note": 64,
      "start": 23.0102,
      "duration": 0.0854,
      "velocity": 112,
      "chip": "ym2612"
    },
    {
      "channel": 2,
      "note": 83,
      "start": 23.0125,
      "duration": 0.0769,
      "velocity": 112,
      "chip": "ym2612"
    },
    {
      "channel": 4,
      "note": 71,
      "start": 23.0859,
      "duration": 0.0956,
      "velocity": 112,
      "chip": "ym2612"
    },
    {
      "channel": 2,
      "note": 83,
      "start": 23.09,
      "duration": 0.0949,
      "velocity": 112,
      "chip": "ym2612"
    },
    {
      "channel": 5,
      "note": 69,
      "start": 23.0934,
      "duration": 0.0858,
      "velocity": 112,
      "chip": "ym2612"
    },
    {
      "channel": 3,
      "note": 64,
      "start": 23.0962,
      "duration": 0.0968,
      "velocity": 112,
      "chip": "ym2612"
    },
    {
      "channel": 5,
      "note": 69,
      "start": 23.1799,
      "duration": 0.0812,
      "velocity": 112,
      "chip": "ym2612"
    },
    {
      "channel": 4,
      "note": 71,
      "start": 23.1822,
      "duration": 0.0893,
      "velocity": 112,
      "chip": "ym2612"
    },
    {
      "channel": 2,
      "note": 83,
      "start": 23.1856,
      "duration": 0.0819,
      "velocity": 112,
      "chip": "ym2612"
    },
    {
      "channel": 3,
      "note": 64,
      "start": 23.1937,
      "duration": 0.0714,
      "velocity": 112,
      "chip": "ym2612"
    },
    {
      "channel": 5,
      "note": 69,
      "start": 23.2618,
      "duration": 0.0935,
      "velocity": 112,
      "chip": "ym2612"
    },
    {
      "channel": 3,
      "note": 64,
      "start": 23.2658,
      "duration": 0.0923,
      "velocity": 112,
      "chip": "ym2612"
    },
    {
      "channel": 2,
      "note": 83,
      "start": 23.2681,
      "duration": 0.0819,
      "velocity": 112,
      "chip": "ym2612"
    },
    {
      "channel": 4,
      "note": 71,
      "start": 23.2721,
      "duration": 0.0739,
      "velocity": 112,
      "chip": "ym2612"
    },
    {
      "channel": 4,
      "note": 71,
      "start": 23.3466,
      "duration": 0.1028,
      "velocity": 112,
      "chip": "ym2612"
    },
    {
      "channel": 2,
      "note": 83,
      "start": 23.3506,
      "duration": 0.1015,
      "velocity": 112,
      "chip": "ym2612"
    },
    {
      "channel": 1,
      "note": 69,
      "start": 23.3529,
      "duration": 0.0824,
      "velocity": 95,
      "chip": "ym2612"
    },
    {
      "channel": 5,
      "note": 69,
      "start": 23.3559,
      "duration": 0.0912,
      "velocity": 112,
      "chip": "ym2612"
    },
    {
      "channel": 3,
      "note": 64,
      "start": 23.3587,
      "duration": 0.0831,
      "velocity": 112,
      "chip": "ym2612"
    },
    {
      "channel": 1,
      "note": 69,
      "start": 23.4359,
      "duration": 0.0893,
      "velocity": 95,
      "chip": "ym2612"
    },
    {
      "channel": 3,
      "note": 64,
      "start": 23.4424,
      "duration": 0.0894,
      "velocity": 112,
      "chip": "ym2612"
    },
    {
      "channel": 5,
      "note": 69,
      "start": 23.4477,
      "duration": 0.0898,
      "velocity": 112,
      "chip": "ym2612"
    },
    {
      "channel": 4,
      "note": 71,
      "start": 23.45,
      "duration": 0.0898,
      "velocity": 112,
      "chip": "ym2612"
    },
    {
      "channel": 2,
      "note": 83,
      "start": 23.4527,
      "duration": 0.0813,
      "velocity": 112,
      "chip": "ym2612"
    },
    {
      "channel": 1,
      "note": 57,
      "start": 23.5258,
      "duration": 0.0824,
      "velocity": 95,
      "chip": "ym2612"
    },
    {
      "channel": 3,
      "note": 64,
      "start": 23.5324,
      "duration": 0.0909,
      "velocity": 112,
      "chip": "ym2612"
    },
    {
      "channel": 2,
      "note": 83,
      "start": 23.5347,
      "duration": 0.0824,
      "velocity": 112,
      "chip": "ym2612"
    },
    {
      "channel": 5,
      "note": 69,
      "start": 23.5382,
      "duration": 0.0824,
      "velocity": 112,
      "chip": "ym2612"
    },
    {
      "channel": 4,
      "note": 71,
      "start": 23.5405,
      "duration": 0.0726,
      "velocity": 112,
      "chip": "ym2612"
    },
    {
      "channel": 1,
      "note": 69,
      "start": 23.6088,
      "duration": 0.0943,
      "velocity": 95,
      "chip": "ym2612"
    },
    {
      "channel": 4,
      "note": 71,
      "start": 23.6137,
      "duration": 0.0935,
      "velocity": 112,
      "chip": "ym2612"
    },
    {
      "channel": 2,
      "note": 83,
      "start": 23.6177,
      "duration": 0.0923,
      "velocity": 112,
      "chip": "ym2612"
    },
    {
      "channel": 5,
      "note": 69,
      "start": 23.6212,
      "duration": 0.0999,
      "velocity": 112,
      "chip": "ym2612"
    },
    {
      "channel": 3,
      "note": 64,
      "start": 23.624,
      "duration": 0.0751,
      "velocity": 112,
      "chip": "ym2612"
    },
    {
      "channel": 3,
      "note": 64,
      "start": 23.6997,
      "duration": 0.0957,
      "velocity": 112,
      "chip": "ym2612"
    },
    {
      "channel": 1,
      "note": 57,
      "start": 23.7037,
      "duration": 0.0961,
      "velocity": 95,
      "chip": "ym2612"
    },
    {
      "channel": 4,
      "note": 71,
      "start": 23.7078,
      "duration": 0.0852,
      "velocity": 112,
      "chip": "ym2612"
    },
    {
      "channel": 2,
      "note": 83,
      "start": 23.7106,
      "duration": 0.087,
      "velocity": 112,
      "chip": "ym2612"
    },
    {
      "channel": 5,
      "note": 69,
      "start": 23.7217,
      "duration": 0.069,
      "velocity": 112,
      "chip": "ym2612"
    },
    {
      "channel": 5,
      "note": 69,
      "start": 23.7914,
      "duration": 0.0837,
      "velocity": 112,
      "chip": "ym2612"
    },
    {
      "channel": 4,
      "note": 71,
      "start": 23.7937,
      "duration": 0.0837,
      "velocity": 112,
      "chip": "ym2612"
    },
    {
      "channel": 3,
      "note": 64,
      "start": 23.796,
      "duration": 0.0837,
      "velocity": 112,
      "chip": "ym2612"
    },
    {
      "channel": 2,
      "note": 83,
      "start": 23.7983,
      "duration": 0.0837,
      "velocity": 112,
      "chip": "ym2612"
    },
    {
      "channel": 1,
      "note": 69,
      "start": 23.8005,
      "duration": 1.2086,
      "velocity": 95,
      "chip": "ym2612"
    },
    {
      "channel": 5,
      "note": 69,
      "start": 23.8757,
      "duration": 0.0917,
      "velocity": 112,
      "chip": "ym2612"
    },
    {
      "channel": 4,
      "note": 71,
      "start": 23.878,
      "duration": 0.0917,
      "velocity": 112,
      "chip": "ym2612"
    },
    {
      "channel": 3,
      "note": 64,
      "start": 23.8803,
      "duration": 0.0813,
      "velocity": 112,
      "chip": "ym2612"
    },
    {
      "channel": 2,
      "note": 83,
      "start": 23.8826,
      "duration": 0.0813,
      "velocity": 112,
      "chip": "ym2612"
    },
    {
      "channel": 3,
      "note": 64,
      "start": 23.9622,
      "duration": 0.0918,
      "velocity": 112,
      "chip": "ym2612"
    },
    {
      "channel": 2,
      "note": 83,
      "start": 23.9645,
      "duration": 0.1064,
      "velocity": 112,
      "chip": "ym2612"
    },
    {
      "channel": 5,
      "note": 69,
      "start": 23.968,
      "duration": 0.0826,
      "velocity": 112,
      "chip": "ym2612"
    },
    {
      "channel": 4,
      "note": 71,
      "start": 23.9703,
      "duration": 0.0978,
      "velocity": 112,
      "chip": "ym2612"
    },
    {
      "channel": 5,
      "note": 69,
      "start": 24.0513,
      "duration": 0.0802,
      "velocity": 112,
      "chip": "ym2612"
    },
    {
      "channel": 3,
      "note": 64,
      "start": 24.0546,
      "duration": 0.0889,
      "velocity": 112,
      "chip": "ym2612"
    },
    {
      "channel": 4,
      "note": 71,
      "start": 24.0687,
      "duration": 0.0725,
      "velocity": 112,
      "chip": "ym2612"
    },
    {
      "channel": 2,
      "note": 83,
      "start": 24.0715,
      "duration": 0.0657,
      "velocity": 112,
      "chip": "ym2612"
    },
    {
      "channel": 5,
      "note": 69,
      "start": 24.1321,
      "duration": 0.0997,
      "velocity": 112,
      "chip": "ym2612"
    },
    {
      "channel": 2,
      "note": 83,
      "start": 24.1378,
      "duration": 0.0842,
      "velocity": 112,
      "chip": "ym2612"
    },
    {
      "channel": 4,
      "note": 71,
      "start": 24.1419,
      "duration": 0.0855,
      "velocity": 112,
      "chip": "ym2612"
    },
    {
      "channel": 3,
      "note": 64,
      "start": 24.1441,
      "duration": 0.0757,
      "velocity": 112,
      "chip": "ym2612"
    },
    {
      "channel": 3,
      "note": 64,
      "start": 24.2204,
      "duration": 0.1006,
      "velocity": 112,
      "chip": "ym2612"
    },
    {
      "channel": 2,
      "note": 83,
      "start": 24.2227,
      "duration": 0.1005,
      "velocity": 112,
      "chip": "ym2612"
    },
    {
      "channel": 4,
      "note": 71,
      "start": 24.228,
      "duration": 0.0907,
      "velocity": 112,
      "chip": "ym2612"
    },
    {
      "channel": 5,
      "note": 69,
      "start": 24.2324,
      "duration": 0.084,
      "velocity": 112,
      "chip": "ym2612"
    },
    {
      "channel": 5,
      "note": 69,
      "start": 24.317,
      "duration": 0.0793,
      "velocity": 112,
      "chip": "ym2612"
    },
    {
      "channel": 4,
      "note": 71,
      "start": 24.3193,
      "duration": 0.0868,
      "velocity": 112,
      "chip": "ym2612"
    },
    {
      "channel": 3,
      "note": 64,
      "start": 24.3216,
      "duration": 0.0867,
      "velocity": 112,
      "chip": "ym2612"
    },
    {
      "channel": 2,
      "note": 83,
      "start": 24.3239,
      "duration": 0.0782,
      "velocity": 112,
      "chip": "ym2612"
    },
    {
      "channel": 5,
      "note": 69,
      "start": 24.3969,
      "duration": 0.093,
      "velocity": 112,
      "chip": "ym2612"
    },
    {
      "channel": 2,
      "note": 83,
      "start": 24.4027,
      "duration": 0.0837,
      "velocity": 112,
      "chip": "ym2612"
    },
    {
      "channel": 4,
      "note": 71,
      "start": 24.4067,
      "duration": 0.0756,
      "velocity": 112,
      "chip": "ym2612"
    },
    {
      "channel": 3,
      "note": 64,
      "start": 24.409,
      "duration": 0.0837,
      "velocity": 112,
      "chip": "ym2612"
    },
    {
      "channel": 4,
      "note": 71,
      "start": 24.4829,
      "duration": 0.0956,
      "velocity": 112,
      "chip": "ym2612"
    },
    {
      "channel": 2,
      "note": 83,
      "start": 24.487,
      "duration": 0.0961,
      "velocity": 112,
      "chip": "ym2612"
    },
    {
      "channel": 5,
      "note": 69,
      "start": 24.4905,
      "duration": 0.0858,
      "velocity": 112,
      "chip": "ym2612"
    },
    {
      "channel": 3,
      "note": 64,
      "start": 24.4932,
      "duration": 0.0877,
      "velocity": 112,
      "chip": "ym2612"
    },
    {
      "channel": 5,
      "note": 69,
      "start": 24.577,
      "duration": 0.0792,
      "velocity": 112,
      "chip": "ym2612"
    },
    {
      "channel": 4,
      "note": 71,
      "start": 24.5792,
      "duration": 0.0868,
      "velocity": 112,
      "chip": "ym2612"
    },
    {
      "channel": 3,
      "note": 64,
      "start": 24.5815,
      "duration": 0.0941,
      "velocity": 112,
      "chip": "ym2612"
    },
    {
      "channel": 2,
      "note": 83,
      "start": 24.5838,
      "duration": 0.0783,
      "velocity": 112,
      "chip": "ym2612"
    },
    {
      "channel": 5,
      "note": 69,
      "start": 24.6568,
      "duration": 0.0937,
      "velocity": 112,
      "chip": "ym2612"
    },
    {
      "channel": 2,
      "note": 83,
      "start": 24.6627,
      "duration": 0.0774,
      "velocity": 112,
      "chip": "ym2612"
    },
    {
      "channel": 4,
      "note": 71,
      "start": 24.6666,
      "duration": 0.0788,
      "velocity": 112,
      "chip": "ym2612"
    },
    {
      "channel": 3,
      "note": 64,
      "start": 24.6763,
      "duration": 0.0769,
      "velocity": 112,
      "chip": "ym2612"
    },
    {
      "channel": 2,
      "note": 83,
      "start": 24.7407,
      "duration": 0.0945,
      "velocity": 112,
      "chip": "ym2612"
    },
    {
      "channel": 4,
      "note": 71,
      "start": 24.746,
      "duration": 0.095,
      "velocity": 112,
      "chip": "ym2612"
    },
    {
      "channel": 5,
      "note": 69,
      "start": 24.7511,
      "duration": 0.0875,
      "velocity": 112,
      "chip": "ym2612"
    },
    {
      "channel": 3,
      "note": 64,
      "start": 24.7539,
      "duration": 0.0894,
      "velocity": 112,
      "chip": "ym2612"
    },
    {
      "channel": 2,
      "note": 83,
      "start": 24.8358,
      "duration": 0.0867,
      "velocity": 112,
      "chip": "ym2612"
    },
    {
      "channel": 5,
      "note": 69,
      "start": 24.8393,
      "duration": 0.0867,
      "velocity": 112,
      "chip": "ym2612"
    },
    {
      "channel": 4,
      "note": 71,
      "start": 24.8416,
      "duration": 0.0868,
      "velocity": 112,
      "chip": "ym2612"
    },
    {
      "channel": 3,
      "note": 64,
      "start": 24.8439,
      "duration": 0.0695,
      "velocity": 112,
      "chip": "ym2612"
    },
    {
      "channel": 3,
      "note": 64,
      "start": 24.914,
      "duration": 0.1022,
      "velocity": 112,
      "chip": "ym2612"
    },
    {
      "channel": 2,
      "note": 83,
      "start": 24.9232,
      "duration": 0.0837,
      "velocity": 112,
      "chip": "ym2612"
    },
    {
      "channel": 5,
      "note": 69,
      "start": 24.9266,
      "duration": 0.0935,
      "velocity": 112,
      "chip": "ym2612"
    },
    {
      "channel": 4,
      "note": 71,
      "start": 24.929,
      "duration": 0.0849,
      "velocity": 112,
      "chip": "ym2612"
    },
    {
      "channel": 2,
      "note": 83,
      "start": 25.0075,
      "duration": 0.0942,
      "velocity": 112,
      "chip": "ym2612"
    },
    {
      "channel": 1,
      "note": 69,
      "start": 25.0097,
      "duration": 0.0837,
      "velocity": 95,
      "chip": "ym2612"
    },
    {
      "channel": 4,
      "note": 71,
      "start": 25.0145,
      "duration": 0.0918,
      "velocity": 112,
      "chip": "ym2612"
    },
    {
      "channel": 3,
      "note": 64,
      "start": 25.0168,
      "duration": 0.0917,
      "velocity": 112,
      "chip": "ym2612"
    },
    {
      "channel": 5,
      "note": 69,
      "start": 25.0208,
      "duration": 0.0993,
      "velocity": 112,
      "chip": "ym2612"
    },
    {
      "channel": 1,
      "note": 69,
      "start": 25.094,
      "duration": 0.0901,
      "velocity": 95,
      "chip": "ym2612"
    },
    {
      "channel": 2,
      "note": 83,
      "start": 25.1024,
      "duration": 0.0893,
      "velocity": 112,
      "chip": "ym2612"
    },
    {
      "channel": 4,
      "note": 71,
      "start": 25.1069,
      "duration": 0.0819,
      "velocity": 112,
      "chip": "ym2612"
    },
    {
      "channel": 3,
      "note": 64,
      "start": 25.1092,
      "duration": 0.0709,
      "velocity": 112,
      "chip": "ym2612"
    },
    {
      "channel": 5,
      "note": 69,
      "start": 25.1207,
      "duration": 0.0744,
      "velocity": 112,
      "chip": "ym2612"
    },
    {
      "channel": 3,
      "note": 64,
      "start": 25.1807,
      "duration": 0.0979,
      "velocity": 112,
      "chip": "ym2612"
    },
    {
      "channel": 1,
      "note": 57,
      "start": 25.1847,
      "duration": 0.088,
      "velocity": 95,
      "chip": "ym2612"
    },
    {
      "channel": 4,
      "note": 71,
      "start": 25.1895,
      "duration": 0.0868,
      "velocity": 112,
      "chip": "ym2612"
    },
    {
      "channel": 2,
      "note": 83,
      "start": 25.1922,
      "duration": 0.0886,
      "velocity": 112,
      "chip": "ym2612"
    },
    {
      "channel": 5,
      "note": 69,
      "start": 25.1957,
      "duration": 0.0695,
      "velocity": 112,
      "chip": "ym2612"
    },
    {
      "channel": 5,
      "note": 69,
      "start": 25.2658,
      "duration": 0.0968,
      "velocity": 112,
      "chip": "ym2612"
    },
    {
      "channel": 1,
      "note": 69,
      "start": 25.2734,
      "duration": 0.078,
      "velocity": 95,
      "chip": "ym2612"
    },
    {
      "channel": 4,
      "note": 71,
      "start": 25.2769,
      "duration": 0.088,
      "velocity": 112,
      "chip": "ym2612"
    },
    {
      "channel": 3,
      "note": 64,
      "start": 25.2792,
      "duration": 0.088,
      "velocity": 112,
      "chip": "ym2612"
    },
    {
      "channel": 2,
      "note": 83,
      "start": 25.2815,
      "duration": 0.088,
      "velocity": 112,
      "chip": "ym2612"
    },
    {
      "channel": 1,
      "note": 57,
      "start": 25.352,
      "duration": 0.1012,
      "velocity": 95,
      "chip": "ym2612"
    },
    {
      "channel": 5,
      "note": 69,
      "start": 25.3633,
      "duration": 0.0851,
      "velocity": 112,
      "chip": "ym2612"
    },
    {
      "channel": 4,
      "note": 71,
      "start": 25.3656,
      "duration": 0.102,
      "velocity": 112,
      "chip": "ym2612"
    },
    {
      "channel": 3,
      "note": 64,
      "start": 25.3679,
      "duration": 0.0739,
      "velocity": 112,
      "chip": "ym2612"
    },
    {
      "channel": 2,
      "note": 83,
      "start": 25.3702,
      "duration": 0.1001,
      "velocity": 112,
      "chip": "ym2612"
    },
    {
      "channel": 3,
      "note": 64,
      "start": 25.4424,
      "duration": 0.0976,
      "velocity": 112,
      "chip": "ym2612"
    },
    {
      "channel": 5,
      "note": 69,
      "start": 25.449,
      "duration": 0.0788,
      "velocity": 112,
      "chip": "ym2612"
    },
    {
      "channel": 1,
      "note": 69,
      "start": 25.4539,
      "duration": 1.2116,
      "velocity": 95,
      "chip": "ym2612"
    },
    {
      "channel": 0,
      "note": 33,
      "start": 25.4561,
      "duration": 2.7915,
      "velocity": 94,
      "chip": "ym2612"
    },
    {
      "channel": 4,
      "note": 71,
      "start": 25.4682,
      "duration": 0.0694,
      "velocity": 112,
      "chip": "ym2612"
    },
    {
      "channel": 2,
      "note": 83,
      "start": 25.4709,
      "duration": 0.0627,
      "velocity": 112,
      "chip": "ym2612"
    },
    {
      "channel": 5,
      "note": 69,
      "start": 25.5284,
      "duration": 0.093,
      "velocity": 112,
      "chip": "ym2612"
    },
    {
      "channel": 2,
      "note": 83,
      "start": 25.5343,
      "duration": 0.0837,
      "velocity": 112,
      "chip": "ym2612"
    },
    {
      "channel": 4,
      "note": 71,
      "start": 25.5382,
      "duration": 0.0756,
      "velocity": 112,
      "chip": "ym2612"
    },
    {
      "channel": 3,
      "note": 64,
      "start": 25.5406,
      "duration": 0.0836,
      "velocity": 112,
      "chip": "ym2612"
    },
    {
      "channel": 4,
      "note": 71,
      "start": 25.6145,
      "duration": 0.0974,
      "velocity": 112,
      "chip": "ym2612"
    },
    {
      "channel": 2,
      "note": 83,
      "start": 25.6186,
      "duration": 0.0961,
      "velocity": 112,
      "chip": "ym2612"
    },
    {
      "channel": 5,
      "note": 69,
      "start": 25.6221,
      "duration": 0.0961,
      "velocity": 112,
      "chip": "ym2612"
    },
    {
      "channel": 3,
      "note": 64,
      "start": 25.6248,
      "duration": 0.0801,
      "velocity": 112,
      "chip": "ym2612"
    },
    {
      "channel": 3,
      "note": 64,
      "start": 25.7055,
      "duration": 0.0992,
      "velocity": 112,
      "chip": "ym2612"
    },
    {
      "channel": 4,
      "note": 71,
      "start": 25.7125,
      "duration": 0.0899,
      "velocity": 112,
      "chip": "ym2612"
    },
    {
      "channel": 2,
      "note": 83,
      "start": 25.7153,
      "duration": 0.0831,
      "velocity": 112,
      "chip": "ym2612"
    },
    {
      "channel": 5,
      "note": 69,
      "start": 25.7188,
      "duration": 0.0738,
      "velocity": 112,
      "chip": "ym2612"
    },
    {
      "channel": 5,
      "note": 69,
      "start": 25.7932,
      "duration": 0.093,
      "velocity": 112,
      "chip": "ym2612"
    },
    {
      "channel": 2,
      "note": 83,
      "start": 25.7991,
      "duration": 0.0837,
      "velocity": 112,
      "chip": "ym2612"
    },
    {
      "channel": 4,
      "note": 71,
      "start": 25.803,
      "duration": 0.0756,
      "velocity": 112,
      "chip": "ym2612"
    },
    {
      "channel": 3,
      "note": 64,
      "start": 25.8054,
      "duration": 0.0836,
      "velocity": 112,
      "chip": "ym2612"
    },
    {
      "channel": 4,
      "note": 71,
      "start": 25.8793,
      "duration": 0.0956,
      "velocity": 112,
      "chip": "ym2612"
    },
    {
      "channel": 2,
      "note": 83,
      "start": 25.8834,
      "duration": 0.0961,
      "velocity": 112,
      "chip": "ym2612"
    },
    {
      "channel": 5,
      "note": 69,
      "start": 25.8869,
      "duration": 0.0858,
      "velocity": 112,
      "chip": "ym2612"
    },
    {
      "channel": 3,
      "note": 64,
      "start": 25.8896,
      "duration": 0.0876,
      "velocity": 112,
      "chip": "ym2612"
    },
    {
      "channel": 5,
      "note": 69,
      "start": 25.9733,
      "duration": 0.0792,
      "velocity": 112,
      "chip": "ym2612"
    },
    {
      "channel": 4,
      "note": 71,
      "start": 25.9756,
      "duration": 0.0868,
      "velocity": 112,
      "chip": "ym2612"
    },
    {
      "channel": 3,
      "note": 64,
      "start": 25.9779,
      "duration": 0.0868,
      "velocity": 112,
      "chip": "ym2612"
    },
    {
      "channel": 2,
      "note": 83,
      "start": 25.9802,
      "duration": 0.0782,
      "velocity": 112,
      "chip": "ym2612"
    },
    {
      "channel": 5,
      "note": 69,
      "start": 26.0532,
      "duration": 0.093,
      "velocity": 112,
      "chip": "ym2612"
    },
    {
      "channel": 2,
      "note": 83,
      "start": 26.059,
      "duration": 0.0837,
      "velocity": 112,
      "chip": "ym2612"
    },
    {
      "channel": 4,
      "note": 71,
      "start": 26.063,
      "duration": 0.0756,
      "velocity": 112,
      "chip": "ym2612"
    },
    {
      "channel": 3,
      "note": 64,
      "start": 26.0653,
      "duration": 0.0911,
      "velocity": 112,
      "chip": "ym2612"
    },
    {
      "channel": 4,
      "note": 71,
      "start": 26.1393,
      "duration": 0.0999,
      "velocity": 112,
      "chip": "ym2612"
    },
    {
      "channel": 2,
      "note": 83,
      "start": 26.1433,
      "duration": 0.09,
      "velocity": 112,
      "chip": "ym2612"
    },
    {
      "channel": 5,
      "note": 69,
      "start": 26.1468,
      "duration": 0.0899,
      "velocity": 112,
      "chip": "ym2612"
    },
    {
      "channel": 3,
      "note": 64,
      "start": 26.157,
      "duration": 0.0741,
      "velocity": 112,
      "chip": "ym2612"
    },
    {
      "channel": 3,
      "note": 64,
      "start": 26.2317,
      "duration": 0.0862,
      "velocity": 112,
      "chip": "ym2612"
    },
    {
      "channel": 2,
      "note": 83,
      "start": 26.234,
      "duration": 0.0863,
      "velocity": 112,
      "chip": "ym2612"
    },
    {
      "channel": 5,
      "note": 69,
      "start": 26.2374,
      "duration": 0.0863,
      "velocity": 112,
      "chip": "ym2612"
    },
    {
      "channel": 4,
      "note": 71,
      "start": 26.2398,
      "duration": 0.0862,
      "velocity": 112,
      "chip": "ym2612"
    },
    {
      "channel": 3,
      "note": 64,
      "start": 26.3185,
      "duration": 0.078,
      "velocity": 112,
      "chip": "ym2612"
    },
    {
      "channel": 2,
      "note": 83,
      "start": 26.3209,
      "duration": 0.0779,
      "velocity": 112,
      "chip": "ym2612"
    },
    {
      "channel": 5,
      "note": 69,
      "start": 26.3243,
      "duration": 0.0842,
      "velocity": 112,
      "chip": "ym2612"
    },
    {
      "channel": 4,
      "note": 71,
      "start": 26.3266,
      "duration": 0.0774,
      "velocity": 112,
      "chip": "ym2612"
    },
    {
      "channel": 3,
      "note": 64,
      "start": 26.3971,
      "duration": 0.1023,
      "velocity": 112,
      "chip": "ym2612"
    },
    {
      "channel": 2,
      "note": 83,
      "start": 26.3994,
      "duration": 0.1023,
      "velocity": 112,
      "chip": "ym2612"
    },
    {
      "channel": 4,
      "note": 71,
      "start": 26.4046,
      "duration": 0.0925,
      "velocity": 112,
      "chip": "ym2612"
    },
    {
      "channel": 5,
      "note": 69,
      "start": 26.4091,
      "duration": 0.1037,
      "velocity": 112,
      "chip": "ym2612"
    },
    {
      "channel": 4,
      "note": 71,
      "start": 26.4978,
      "duration": 0.0931,
      "velocity": 112,
      "chip": "ym2612"
    },
    {
      "channel": 3,
      "note": 64,
      "start": 26.5001,
      "duration": 0.0827,
      "velocity": 112,
      "chip": "ym2612"
    },
    {
      "channel": 2,
      "note": 83,
      "start": 26.5024,
      "duration": 0.0828,
      "velocity": 112,
      "chip": "ym2612"
    },
    {
      "channel": 5,
      "note": 69,
      "start": 26.5135,
      "duration": 0.0751,
      "velocity": 112,
      "chip": "ym2612"
    },
    {
      "channel": 3,
      "note": 64,
      "start": 26.5834,
      "duration": 0.0781,
      "velocity": 112,
      "chip": "ym2612"
    },
    {
      "channel": 2,
      "note": 83,
      "start": 26.5858,
      "duration": 0.0872,
      "velocity": 112,
      "chip": "ym2612"
    },
    {
      "channel": 5,
      "note": 69,
      "start": 26.5893,
      "duration": 0.0793,
      "velocity": 112,
      "chip": "ym2612"
    },
    {
      "channel": 4,
      "note": 71,
      "start": 26.5915,
      "duration": 0.0855,
      "velocity": 112,
      "chip": "ym2612"
    },
    {
      "channel": 3,
      "note": 64,
      "start": 26.6621,
      "duration": 0.104,
      "velocity": 112,
      "chip": "ym2612"
    },
    {
      "channel": 1,
      "note": 69,
      "start": 26.6661,
      "duration": 0.0837,
      "velocity": 95,
      "chip": "ym2612"
    },
    {
      "channel": 5,
      "note": 69,
      "start": 26.6691,
      "duration": 0.0924,
      "velocity": 112,
      "chip": "ym2612"
    },
    {
      "channel": 2,
      "note": 83,
      "start": 26.6737,
      "duration": 0.0844,
      "velocity": 112,
      "chip": "ym2612"
    },
    {
      "channel": 4,
      "note": 71,
      "start": 26.6777,
      "duration": 0.0862,
      "velocity": 112,
      "chip": "ym2612"
    },
    {
      "channel": 1,
      "note": 69,
      "start": 26.7504,
      "duration": 0.0919,
      "velocity": 95,
      "chip": "ym2612"
    },
    {
      "channel": 2,
      "note": 83,
      "start": 26.7587,
      "duration": 0.1068,
      "velocity": 112,
      "chip": "ym2612"
    },
    {
      "channel": 5,
      "note": 69,
      "start": 26.7622,
      "duration": 0.0832,
      "velocity": 112,
      "chip": "ym2612"
    },
    {
      "channel": 4,
      "note": 71,
      "start": 26.7645,
      "duration": 0.0982,
      "velocity": 112,
      "chip": "ym2612"
    },
    {
      "channel": 3,
      "note": 64,
      "start": 26.7667,
      "duration": 0.0819,
      "velocity": 112,
      "chip": "ym2612"
    },
    {
      "channel": 1,
      "note": 57,
      "start": 26.8429,
      "duration": 0.0869,
      "velocity": 95,
      "chip": "ym2612"
    },
    {
      "channel": 5,
      "note": 69,
      "start": 26.846,
      "duration": 0.0758,
      "velocity": 112,
      "chip": "ym2612"
    },
    {
      "channel": 3,
      "note": 64,
      "start": 26.8493,
      "duration": 0.0765,
      "velocity": 112,
      "chip": "ym2612"
    },
    {
      "channel": 4,
      "note": 71,
      "start": 26.8634,
      "duration": 0.07,
      "velocity": 112,
      "chip": "ym2612"
    },
    {
      "channel": 2,
      "note": 83,
      "start": 26.8661,
      "duration": 0.07,
      "velocity": 112,
      "chip": "ym2612"
    },
    {
      "channel": 5,
      "note": 69,
      "start": 26.9224,
      "duration": 0.0966,
      "velocity": 112,
      "chip": "ym2612"
    },
    {
      "channel": 3,
      "note": 64,
      "start": 26.9264,
      "duration": 0.0953,
      "velocity": 112,
      "chip": "ym2612"
    },
    {
      "channel": 1,
      "note": 69,
      "start": 26.9305,
      "duration": 0.0854,
      "velocity": 95,
      "chip": "ym2612"
    },
    {
      "channel": 4,
      "note": 71,
      "start": 26.934,
      "duration": 0.0756,
      "velocity": 112,
      "chip": "ym2612"
    },
    {
      "channel": 2,
      "note": 83,
      "start": 26.9367,
      "duration": 0.077,
      "velocity": 112,
      "chip": "ym2612"
    },
    {
      "channel": 4,
      "note": 71,
      "start": 27.0102,
      "duration": 0.1034,
      "velocity": 112,
      "chip": "ym2612"
    },
    {
      "channel": 2,
      "note": 83,
      "start": 27.0143,
      "duration": 0.0917,
      "velocity": 112,
      "chip": "ym2612"
    },
    {
      "channel": 1,
      "note": 57,
      "start": 27.0165,
      "duration": 0.0917,
      "velocity": 95,
      "chip": "ym2612"
    },
    {
      "channel": 5,
      "note": 69,
      "start": 27.0196,
      "duration": 0.0917,
      "velocity": 112,
      "chip": "ym2612"
    },
    {
      "channel": 3,
      "note": 64,
      "start": 27.0223,
      "duration": 0.0815,
      "velocity": 112,
      "chip": "ym2612"
    },
    {
      "channel": 3,
      "note": 64,
      "start": 27.1044,
      "duration": 0.0842,
      "velocity": 112,
      "chip": "ym2612"
    },
    {
      "channel": 2,
      "note": 83,
      "start": 27.1067,
      "duration": 0.0842,
      "velocity": 112,
      "chip": "ym2612"
    },
    {
      "channel": 1,
      "note": 69,
      "start": 27.1089,
      "duration": 1.2173,
      "velocity": 95,
      "chip": "ym2612"
    },
    {
      "channel": 5,
      "note": 69,
      "start": 27.112,
      "duration": 0.0725,
      "velocity": 112,
      "chip": "ym2612"
    },
    {
      "channel": 4,
      "note": 71,
      "start": 27.1142,
      "duration": 0.0805,
      "velocity": 112,
      "chip": "ym2612"
    },
    {
      "channel": 5,
      "note": 69,
      "start": 27.1851,
      "duration": 0.0979,
      "velocity": 112,
      "chip": "ym2612"
    },
    {
      "channel": 3,
      "note": 64,
      "start": 27.1892,
      "duration": 0.0966,
      "velocity": 112,
      "chip": "ym2612"
    },
    {
      "channel": 2,
      "note": 83,
      "start": 27.1915,
      "duration": 0.088,
      "velocity": 112,
      "chip": "ym2612"
    },
    {
      "channel": 4,
      "note": 71,
      "start": 27.1954,
      "duration": 0.08,
      "velocity": 112,
      "chip": "ym2612"
    },
    {
      "channel": 4,
      "note": 71,
      "start": 27.2761,
      "duration": 0.0974,
      "velocity": 112,
      "chip": "ym2612"
    },
    {
      "channel": 2,
      "note": 83,
      "start": 27.2802,
      "duration": 0.0875,
      "velocity": 112,
      "chip": "ym2612"
    },
    {
      "channel": 5,
      "note": 69,
      "start": 27.2837,
      "duration": 0.0875,
      "velocity": 112,
      "chip": "ym2612"
    },
    {
      "channel": 3,
      "note": 64,
      "start": 27.2864,
      "duration": 0.0894,
      "velocity": 112,
      "chip": "ym2612"
    },
    {
      "channel": 2,
      "note": 83,
      "start": 27.3683,
      "duration": 0.0868,
      "velocity": 112,
      "chip": "ym2612"
    },
    {
      "channel": 5,
      "note": 69,
      "start": 27.3718,
      "duration": 0.0774,
      "velocity": 112,
      "chip": "ym2612"
    },
    {
      "channel": 4,
      "note": 71,
      "start": 27.3741,
      "duration": 0.0849,
      "velocity": 112,
      "chip": "ym2612"
    },
    {
      "channel": 3,
      "note": 64,
      "start": 27.3764,
      "duration": 0.085,
      "velocity": 112,
      "chip": "ym2612"
    },
    {
      "channel": 5,
      "note": 69,
      "start": 27.4499,
      "duration": 0.093,
      "velocity": 112,
      "chip": "ym2612"
    },
    {
      "channel": 2,
      "note": 83,
      "start": 27.4557,
      "duration": 0.0837,
      "velocity": 112,
      "chip": "ym2612"
    },
    {
      "channel": 4,
      "note": 71,
      "start": 27.4597,
      "duration": 0.0756,
      "velocity": 112,
      "chip": "ym2612"
    },
    {
      "channel": 3,
      "note": 64,
      "start": 27.462,
      "duration": 0.0836,
      "velocity": 112,
      "chip": "ym2612"
    },
    {
      "channel": 4,
      "note": 71,
      "start": 27.5359,
      "duration": 0.0956,
      "velocity": 112,
      "chip": "ym2612"
    },
    {
      "channel": 2,
      "note": 83,
      "start": 27.54,
      "duration": 0.0949,
      "velocity": 112,
      "chip": "ym2612"
    },
    {
      "channel": 5,
      "note": 69,
      "start": 27.5435,
      "duration": 0.0857,
      "velocity": 112,
      "chip": "ym2612"
    },
    {
      "channel": 3,
      "note": 64,
      "start": 27.5462,
      "duration": 0.0968,
      "velocity": 112,
      "chip": "ym2612"
    },
    {
      "channel": 5,
      "note": 69,
      "start": 27.6299,
      "duration": 0.0839,
      "velocity": 112,
      "chip": "ym2612"
    },
    {
      "channel": 4,
      "note": 71,
      "start": 27.6322,
      "duration": 0.0839,
      "velocity": 112,
      "chip": "ym2612"
    },
    {
      "channel": 2,
      "note": 83,
      "start": 27.6355,
      "duration": 0.0851,
      "velocity": 112,
      "chip": "ym2612"
    },
    {
      "channel": 3,
      "note": 64,
      "start": 27.6437,
      "duration": 0.0746,
      "velocity": 112,
      "chip": "ym2612"
    },
    {
      "channel": 5,
      "note": 69,
      "start": 27.7144,
      "duration": 0.0922,
      "velocity": 112,
      "chip": "ym2612"
    },
    {
      "channel": 4,
      "note": 71,
      "start": 27.7167,
      "duration": 0.0762,
      "velocity": 112,
      "chip": "ym2612"
    },
    {
      "channel": 3,
      "note": 64,
      "start": 27.719,
      "duration": 0.0837,
      "velocity": 112,
      "chip": "ym2612"
    },
    {
      "channel": 2,
      "note": 83,
      "start": 27.7212,
      "duration": 0.0756,
      "velocity": 112,
      "chip": "ym2612"
    },
    {
      "channel": 4,
      "note": 71,
      "start": 27.7935,
      "duration": 0.0961,
      "velocity": 112,
      "chip": "ym2612"
    },
    {
      "channel": 2,
      "note": 83,
      "start": 27.7975,
      "duration": 0.0949,
      "velocity": 112,
      "chip": "ym2612"
    },
    {
      "channel": 3,
      "note": 64,
      "start": 27.8032,
      "duration": 0.08,
      "velocity": 112,
      "chip": "ym2612"
    },
    {
      "channel": 5,
      "note": 69,
      "start": 27.8072,
      "duration": 0.0963,
      "velocity": 112,
      "chip": "ym2612"
    },
    {
      "channel": 3,
      "note": 64,
      "start": 27.8839,
      "duration": 0.0963,
      "velocity": 112,
      "chip": "ym2612"
    },
    {
      "channel": 4,
      "note": 71,
      "start": 27.8903,
      "duration": 0.0876,
      "velocity": 112,
      "chip": "ym2612"
    },
    {
      "channel": 2,
      "note": 83,
      "start": 27.893,
      "duration": 0.0895,
      "velocity": 112,
      "chip": "ym2612"
    },
    {
      "channel": 5,
      "note": 69,
      "start": 27.9041,
      "duration": 0.0715,
      "velocity": 112,
      "chip": "ym2612"
    },
    {
      "channel": 5,
      "note": 69,
      "start": 27.9762,
      "duration": 0.088,
      "velocity": 112,
      "chip": "ym2612"
    },
    {
      "channel": 4,
      "note": 71,
      "start": 27.9785,
      "duration": 0.088,
      "velocity": 112,
      "chip": "ym2612"
    },
    {
      "channel": 3,
      "note": 64,
      "start": 27.9808,
      "duration": 0.088,
      "velocity": 112,
      "chip": "ym2612"
    },
    {
      "channel": 2,
      "note": 83,
      "start": 27.9831,
      "duration": 0.088,
      "velocity": 112,
      "chip": "ym2612"
    },
    {
      "channel": 5,
      "note": 69,
      "start": 28.0649,
      "duration": 0.0917,
      "velocity": 112,
      "chip": "ym2612"
    },
    {
      "channel": 4,
      "note": 71,
      "start": 28.0672,
      "duration": 0.0917,
      "velocity": 112,
      "chip": "ym2612"
    },
    {
      "channel": 3,
      "note": 64,
      "start": 28.0695,
      "duration": 0.0813,
      "velocity": 112,
      "chip": "ym2612"
    },
    {
      "channel": 2,
      "note": 83,
      "start": 28.0717,
      "duration": 0.0813,
      "velocity": 112,
      "chip": "ym2612"
    },
    {
      "channel": 3,
      "note": 64,
      "start": 28.1514,
      "duration": 0.0924,
      "velocity": 112,
      "chip": "ym2612"
    },
    {
      "channel": 2,
      "note": 83,
      "start": 28.1537,
      "duration": 0.1088,
      "velocity": 112,
      "chip": "ym2612"
    },
    {
      "channel": 5,
      "note": 69,
      "start": 28.1572,
      "duration": 0.0833,
      "velocity": 112,
      "chip": "ym2612"
    },
    {
      "channel": 4,
      "note": 71,
      "start": 28.1595,
      "duration": 0.1002,
      "velocity": 112,
      "chip": "ym2612"
    },
    {
      "channel": 5,
      "note": 69,
      "start": 28.2412,
      "duration": 0.0776,
      "velocity": 112,
      "chip": "ym2612"
    },
    {
      "channel": 3,
      "note": 64,
      "start": 28.2445,
      "duration": 0.0876,
      "velocity": 112,
      "chip": "ym2612"
    },
    {
      "channel": 0,
      "note": 45,
      "start": 28.2483,
      "duration": 2.7788,
      "velocity": 94,
      "chip": "ym2612"
    },
    {
      "channel": 4,
      "note": 71,
      "start": 28.2603,
      "duration": 0.0695,
      "velocity": 112,
      "chip": "ym2612"
    },
    {
      "channel": 2,
      "note": 83,
      "start": 28.263,
      "duration": 0.0713,
      "velocity": 112,
      "chip": "ym2612"
    },
    {
      "channel": 5,
      "note": 69,
      "start": 28.3193,
      "duration": 0.0984,
      "velocity": 112,
      "chip": "ym2612"
    },
    {
      "channel": 1,
      "note": 69,
      "start": 28.3269,
      "duration": 0.0798,
      "velocity": 95,
      "chip": "ym2612"
    },
    {
      "channel": 4,
      "note": 71,
      "start": 28.3304,
      "duration": 0.081,
      "velocity": 112,
      "chip": "ym2612"
    },
    {
      "channel": 3,
      "note": 64,
      "start": 28.3327,
      "duration": 0.081,
      "velocity": 112,
      "chip": "ym2612"
    },
    {
      "channel": 2,
      "note": 83,
      "start": 28.335,
      "duration": 0.0695,
      "velocity": 112,
      "chip": "ym2612"
    },
    {
      "channel": 2,
      "note": 83,
      "start": 28.405,
      "duration": 0.1028,
      "velocity": 112,
      "chip": "ym2612"
    },
    {
      "channel": 1,
      "note": 69,
      "start": 28.4073,
      "duration": 0.0907,
      "velocity": 95,
      "chip": "ym2612"
    },
    {
      "channel": 4,
      "note": 71,
      "start": 28.4121,
      "duration": 0.0912,
      "velocity": 112,
      "chip": "ym2612"
    },
    {
      "channel": 3,
      "note": 64,
      "start": 28.4144,
      "duration": 0.0912,
      "velocity": 112,
      "chip": "ym2612"
    },
    {
      "channel": 5,
      "note": 69,
      "start": 28.4184,
      "duration": 0.0826,
      "velocity": 112,
      "chip": "ym2612"
    },
    {
      "channel": 1,
      "note": 57,
      "start": 28.4986,
      "duration": 0.081,
      "velocity": 95,
      "chip": "ym2612"
    },
    {
      "channel": 5,
      "note": 69,
      "start": 28.5016,
      "duration": 0.0811,
      "velocity": 112,
      "chip": "ym2612"
    },
    {
      "channel": 4,
      "note": 71,
      "start": 28.5039,
      "duration": 0.0886,
      "velocity": 112,
      "chip": "ym2612"
    },
    {
      "channel": 3,
      "note": 64,
      "start": 28.5062,
      "duration": 0.0885,
      "velocity": 112,
      "chip": "ym2612"
    },
    {
      "channel": 2,
      "note": 83,
      "start": 28.5085,
      "duration": 0.08,
      "velocity": 112,
      "chip": "ym2612"
    },
    {
      "channel": 1,
      "note": 69,
      "start": 28.5803,
      "duration": 0.0909,
      "velocity": 95,
      "chip": "ym2612"
    },
    {
      "channel": 5,
      "note": 69,
      "start": 28.5833,
      "duration": 0.0952,
      "velocity": 112,
      "chip": "ym2612"
    },
    {
      "channel": 2,
      "note": 83,
      "start": 28.5891,
      "duration": 0.0798,
      "velocity": 112,
      "chip": "ym2612"
    },
    {
      "channel": 4,
      "note": 71,
      "start": 28.5931,
      "duration": 0.0712,
      "velocity": 112,
      "chip": "ym2612"
    },
    {
      "channel": 3,
      "note": 64,
      "start": 28.5954,
      "duration": 0.0712,
      "velocity": 112,
      "chip": "ym2612"
    },
    {
      "channel": 4,
      "note": 71,
      "start": 28.665,
      "duration": 0.098,
      "velocity": 112,
      "chip": "ym2612"
    },
    {
      "channel": 3,
      "note": 64,
      "start": 28.6672,
      "duration": 0.098,
      "velocity": 112,
      "chip": "ym2612"
    },
    {
      "channel": 2,
      "note": 83,
      "start": 28.6695,
      "duration": 0.098,
      "velocity": 112,
      "chip": "ym2612"
    },
    {
      "channel": 1,
      "note": 57,
      "start": 28.6718,
      "duration": 0.098,
      "velocity": 95,
      "chip": "ym2612"
    },
    {
      "channel": 5,
      "note": 69,
      "start": 28.6792,
      "duration": 0.0815,
      "velocity": 112,
      "chip": "ym2612"
    },
    {
      "channel": 5,
      "note": 69,
      "start": 28.7613,
      "duration": 0.0842,
      "velocity": 112,
      "chip": "ym2612"
    },
    {
      "channel": 4,
      "note": 71,
      "start": 28.7636,
      "duration": 0.0917,
      "velocity": 112,
      "chip": "ym2612"
    },
    {
      "channel": 3,
      "note": 64,
      "start": 28.7658,
      "duration": 0.0917,
      "velocity": 112,
      "chip": "ym2612"
    },
    {
      "channel": 2,
      "note": 83,
      "start": 28.7682,
      "duration": 0.0831,
      "velocity": 112,
      "chip": "ym2612"
    },
    {
      "channel": 1,
      "note": 69,
      "start": 28.7704,
      "duration": 1.2111,
      "velocity": 95,
      "chip": "ym2612"
    },
    {
      "channel": 5,
      "note": 69,
      "start": 28.8461,
      "duration": 0.093,
      "velocity": 112,
      "chip": "ym2612"
    },
    {
      "channel": 2,
      "note": 83,
      "start": 28.8519,
      "duration": 0.0837,
      "velocity": 112,
      "chip": "ym2612"
    },
    {
      "channel": 4,
      "note": 71,
      "start": 28.8559,
      "duration": 0.0756,
      "velocity": 112,
      "chip": "ym2612"
    },
    {
      "channel": 3,
      "note": 64,
      "start": 28.8582,
      "duration": 0.0837,
      "velocity": 112,
      "chip": "ym2612"
    },
    {
      "channel": 4,
      "note": 71,
      "start": 28.9322,
      "duration": 0.0956,
      "velocity": 112,
      "chip": "ym2612"
    },
    {
      "channel": 2,
      "note": 83,
      "start": 28.9363,
      "duration": 0.0961,
      "velocity": 112,
      "chip": "ym2612"
    },
    {
      "channel": 5,
      "note": 69,
      "start": 28.9398,
      "duration": 0.0858,
      "velocity": 112,
      "chip": "ym2612"
    },
    {
      "channel": 3,
      "note": 64,
      "start": 28.9425,
      "duration": 0.0875,
      "velocity": 112,
      "chip": "ym2612"
    },
    {
      "channel": 5,
      "note": 69,
      "start": 29.0261,
      "duration": 0.088,
      "velocity": 112,
      "chip": "ym2612"
    },
    {
      "channel": 4,
      "note": 71,
      "start": 29.0284,
      "duration": 0.088,
      "velocity": 112,
      "chip": "ym2612"
    },
    {
      "channel": 3,
      "note": 64,
      "start": 29.0307,
      "duration": 0.0955,
      "velocity": 112,
      "chip": "ym2612"
    },
    {
      "channel": 2,
      "note": 83,
      "start": 29.033,
      "duration": 0.0777,
      "velocity": 112,
      "chip": "ym2612"
    },
    {
      "channel": 2,
      "note": 83,
      "start": 29.1113,
      "duration": 0.0831,
      "velocity": 112,
      "chip": "ym2612"
    },
    {
      "channel": 5,
      "note": 69,
      "start": 29.1148,
      "duration": 0.083,
      "velocity": 112,
      "chip": "ym2612"
    },
    {
      "channel": 4,
      "note": 71,
      "start": 29.1171,
      "duration": 0.0738,
      "velocity": 112,
      "chip": "ym2612"
    },
    {
      "channel": 3,
      "note": 64,
      "start": 29.1268,
      "duration": 0.0739,
      "velocity": 112,
      "chip": "ym2612"
    },
    {
      "channel": 4,
      "note": 71,
      "start": 29.1915,
      "duration": 0.0937,
      "velocity": 112,
      "chip": "ym2612"
    },
    {
      "channel": 2,
      "note": 83,
      "start": 29.195,
      "duration": 0.0948,
      "velocity": 112,
      "chip": "ym2612"
    },
    {
      "channel": 5,
      "note": 69,
      "start": 29.1985,
      "duration": 0.1025,
      "velocity": 112,
      "chip": "ym2612"
    },
    {
      "channel": 3,
      "note": 64,
      "start": 29.2013,
      "duration": 0.0863,
      "velocity": 112,
      "chip": "ym2612"
    },
    {
      "channel": 4,
      "note": 71,
      "start": 29.2859,
      "duration": 0.0918,
      "velocity": 112,
      "chip": "ym2612"
    },
    {
      "channel": 3,
      "note": 64,
      "start": 29.2882,
      "duration": 0.0745,
      "velocity": 112,
      "chip": "ym2612"
    },
    {
      "channel": 2,
      "note": 83,
      "start": 29.2905,
      "duration": 0.0814,
      "velocity": 112,
      "chip": "ym2612"
    },
    {
      "channel": 5,
      "note": 69,
      "start": 29.3016,
      "duration": 0.0738,
      "velocity": 112,
      "chip": "ym2612"
    },
    {
      "channel": 3,
      "note": 64,
      "start": 29.3633,
      "duration": 0.0986,
      "velocity": 112,
      "chip": "ym2612"
    },
    {
      "channel": 2,
      "note": 83,
      "start": 29.3725,
      "duration": 0.0917,
      "velocity": 112,
      "chip": "ym2612"
    },
    {
      "channel": 5,
      "note": 69,
      "start": 29.376,
      "duration": 0.0744,
      "velocity": 112,
      "chip": "ym2612"
    },
    {
      "channel": 4,
      "note": 71,
      "start": 29.3783,
      "duration": 0.0814,
      "velocity": 112,
      "chip": "ym2612"
    },
    {
      "channel": 5,
      "note": 69,
      "start": 29.451,
      "duration": 0.0932,
      "velocity": 112,
      "chip": "ym2612"
    },
    {
      "channel": 4,
      "note": 71,
      "start": 29.4603,
      "duration": 0.0862,
      "velocity": 112,
      "chip": "ym2612"
    },
    {
      "channel": 3,
      "note": 64,
      "start": 29.4625,
      "duration": 0.0863,
      "velocity": 112,
      "chip": "ym2612"
    },
    {
      "channel": 2,
      "note": 83,
      "start": 29.4649,
      "duration": 0.0862,
      "velocity": 112,
      "chip": "ym2612"
    },
    {
      "channel": 5,
      "note": 69,
      "start": 29.5449,
      "duration": 0.0935,
      "velocity": 112,
      "chip": "ym2612"
    },
    {
      "channel": 4,
      "note": 71,
      "start": 29.5471,
      "duration": 0.108,
      "velocity": 112,
      "chip": "ym2612"
    },
    {
      "channel": 3,
      "note": 64,
      "start": 29.5494,
      "duration": 0.0844,
      "velocity": 112,
      "chip": "ym2612"
    },
    {
      "channel": 2,
      "note": 83,
      "start": 29.5517,
      "duration": 0.0995,
      "velocity": 112,
      "chip": "ym2612"
    },
    {
      "channel": 3,
      "note": 64,
      "start": 29.6345,
      "duration": 0.0925,
      "velocity": 112,
      "chip": "ym2612"
    },
    {
      "channel": 5,
      "note": 69,
      "start": 29.639,
      "duration": 0.0765,
      "velocity": 112,
      "chip": "ym2612"
    },
    {
      "channel": 2,
      "note": 83,
      "start": 29.6518,
      "duration": 0.0776,
      "velocity": 112,
      "chip": "ym2612"
    },
    {
      "channel": 4,
      "note": 71,
      "start": 29.6558,
      "duration": 0.069,
      "velocity": 112,
      "chip": "ym2612"
    },
    {
      "channel": 5,
      "note": 69,
      "start": 29.7161,
      "duration": 0.0943,
      "velocity": 112,
      "chip": "ym2612"
    },
    {
      "channel": 4,
      "note": 71,
      "start": 29.7254,
      "duration": 0.0774,
      "velocity": 112,
      "chip": "ym2612"
    },
    {
      "channel": 3,
      "note": 64,
      "start": 29.7276,
      "duration": 0.0855,
      "velocity": 112,
      "chip": "ym2612"
    },
    {
      "channel": 2,
      "note": 83,
      "start": 29.73,
      "duration": 0.0769,
      "velocity": 112,
      "chip": "ym2612"
    },
    {
      "channel": 4,
      "note": 71,
      "start": 29.8034,
      "duration": 0.0961,
      "velocity": 112,
      "chip": "ym2612"
    },
    {
      "channel": 2,
      "note": 83,
      "start": 29.8075,
      "duration": 0.0948,
      "velocity": 112,
      "chip": "ym2612"
    },
    {
      "channel": 5,
      "note": 69,
      "start": 29.811,
      "duration": 0.0863,
      "velocity": 112,
      "chip": "ym2612"
    },
    {
      "channel": 3,
      "note": 64,
      "start": 29.8137,
      "duration": 0.0782,
      "velocity": 112,
      "chip": "ym2612"
    },
    {
      "channel": 3,
      "note": 64,
      "start": 29.8926,
      "duration": 0.0948,
      "velocity": 112,
      "chip": "ym2612"
    },
    {
      "channel": 5,
      "note": 69,
      "start": 29.8979,
      "duration": 0.0761,
      "velocity": 112,
      "chip": "ym2612"
    },
    {
      "channel": 4,
      "note": 71,
      "start": 29.9001,
      "duration": 0.0849,
      "velocity": 112,
      "chip": "ym2612"
    },
    {
      "channel": 2,
      "note": 83,
      "start": 29.9029,
      "duration": 0.0867,
      "velocity": 112,
      "chip": "ym2612"
    },
    {
      "channel": 5,
      "note": 69,
      "start": 29.9747,
      "duration": 0.0978,
      "velocity": 112,
      "chip": "ym2612"
    },
    {
      "channel": 1,
      "note": 69,
      "start": 29.9822,
      "duration": 0.0872,
      "velocity": 95,
      "chip": "ym2612"
    },
    {
      "channel": 4,
      "note": 71,
      "start": 29.9857,
      "duration": 0.0774,
      "velocity": 112,
      "chip": "ym2612"
    },
    {
      "channel": 3,
      "note": 64,
      "start": 29.988,
      "duration": 0.0872,
      "velocity": 112,
      "chip": "ym2612"
    },
    {
      "channel": 2,
      "note": 83,
      "start": 29.9903,
      "duration": 0.0769,
      "velocity": 112,
      "chip": "ym2612"
    },
    {
      "channel": 4,
      "note": 71,
      "start": 30.0637,
      "duration": 0.0965,
      "velocity": 112,
      "chip": "ym2612"
    },
    {
      "channel": 2,
      "note": 83,
      "start": 30.0678,
      "duration": 0.0952,
      "velocity": 112,
      "chip": "ym2612"
    },
    {
      "channel": 1,
      "note": 69,
      "start": 30.07,
      "duration": 0.0849,
      "velocity": 95,
      "chip": "ym2612"
    },
    {
      "channel": 5,
      "note": 69,
      "start": 30.0731,
      "duration": 0.0849,
      "velocity": 112,
      "chip": "ym2612"
    },
    {
      "channel": 3,
      "note": 64,
      "start": 30.0758,
      "duration": 0.0751,
      "velocity": 112,
      "chip": "ym2612"
    },
    {
      "channel": 3,
      "note": 64,
      "start": 30.1516,
      "duration": 0.0965,
      "velocity": 112,
      "chip": "ym2612"
    },
    {
      "channel": 1,
      "note": 57,
      "start": 30.1556,
      "duration": 0.0867,
      "velocity": 95,
      "chip": "ym2612"
    },
    {
      "channel": 5,
      "note": 69,
      "start": 30.1586,
      "duration": 0.0761,
      "velocity": 112,
      "chip": "ym2612"
    },
    {
      "channel": 4,
      "note": 71,
      "start": 30.1609,
      "duration": 0.0849,
      "velocity": 112,
      "chip": "ym2612"
    },
    {
      "channel": 2,
      "note": 83,
      "start": 30.1637,
      "duration": 0.0867,
      "velocity": 112,
      "chip": "ym2612"
    },
    {
      "channel": 5,
      "note": 69,
      "start": 30.2354,
      "duration": 0.1059,
      "velocity": 112,
      "chip": "ym2612"
    },
    {
      "channel": 1,
      "note": 69,
      "start": 30.2429,
      "duration": 0.0891,
      "velocity": 95,
      "chip": "ym2612"
    },
    {
      "channel": 4,
      "note": 71,
      "start": 30.2464,
      "duration": 0.0793,
      "velocity": 112,
      "chip": "ym2612"
    },
    {
      "channel": 3,
      "note": 64,
      "start": 30.2487,
      "duration": 0.0886,
      "velocity": 112,
      "chip": "ym2612"
    },
    {
      "channel": 2,
      "note": 83,
      "start": 30.251,
      "duration": 0.0788,
      "velocity": 112,
      "chip": "ym2612"
    },
    {
      "channel": 4,
      "note": 71,
      "start": 30.3264,
      "duration": 0.1047,
      "velocity": 112,
      "chip": "ym2612"
    },
    {
      "channel": 2,
      "note": 83,
      "start": 30.3304,
      "duration": 0.0931,
      "velocity": 112,
      "chip": "ym2612"
    },
    {
      "channel": 1,
      "note": 57,
      "start": 30.3327,
      "duration": 0.0931,
      "velocity": 95,
      "chip": "ym2612"
    },
    {
      "channel": 3,
      "note": 64,
      "start": 30.338,
      "duration": 0.0832,
      "velocity": 112,
      "chip": "ym2612"
    },
    {
      "channel": 5,
      "note": 69,
      "start": 30.3419,
      "duration": 0.0869,
      "velocity": 112,
      "chip": "ym2612"
    },
    {
      "channel": 3,
      "note": 64,
      "start": 30.4218,
      "duration": 0.0936,
      "velocity": 112,
      "chip": "ym2612"
    },
    {
      "channel": 2,
      "note": 83,
      "start": 30.4242,
      "duration": 0.0831,
      "velocity": 112,
      "chip": "ym2612"
    },
    {
      "channel": 1,
      "note": 69,
      "start": 30.4264,
      "duration": 1.208,
      "velocity": 95,
      "chip": "ym2612"
    },
    {
      "channel": 5,
      "note": 69,
      "start": 30.4295,
      "duration": 0.0814,
      "velocity": 112,
      "chip": "ym2612"
    },
    {
      "channel": 4,
      "note": 71,
      "start": 30.4317,
      "duration": 0.0814,
      "velocity": 112,
      "chip": "ym2612"
    },
    {
      "channel": 2,
      "note": 83,
      "start": 30.5079,
      "duration": 0.078,
      "velocity": 112,
      "chip": "ym2612"
    },
    {
      "channel": 5,
      "note": 69,
      "start": 30.5115,
      "duration": 0.0855,
      "velocity": 112,
      "chip": "ym2612"
    },
    {
      "channel": 4,
      "note": 71,
      "start": 30.5137,
      "duration": 0.0775,
      "velocity": 112,
      "chip": "ym2612"
    },
    {
      "channel": 3,
      "note": 64,
      "start": 30.516,
      "duration": 0.0911,
      "velocity": 112,
      "chip": "ym2612"
    },
    {
      "channel": 2,
      "note": 83,
      "start": 30.5866,
      "duration": 0.0999,
      "velocity": 112,
      "chip": "ym2612"
    },
    {
      "channel": 4,
      "note": 71,
      "start": 30.5919,
      "duration": 0.0901,
      "velocity": 112,
      "chip": "ym2612"
    },
    {
      "channel": 5,
      "note": 69,
      "start": 30.5976,
      "duration": 0.1001,
      "velocity": 112,
      "chip": "ym2612"
    },
    {
      "channel": 3,
      "note": 64,
      "start": 30.6078,
      "duration": 0.0765,
      "velocity": 112,
      "chip": "ym2612"
    },
    {
      "channel": 4,
      "note": 71,
      "start": 30.6826,
      "duration": 0.0845,
      "velocity": 112,
      "chip": "ym2612"
    },
    {
      "channel": 3,
      "note": 64,
      "start": 30.6849,
      "duration": 0.0846,
      "velocity": 112,
      "chip": "ym2612"
    },
    {
      "channel": 2,
      "note": 83,
      "start": 30.6871,
      "duration": 0.0846,
      "velocity": 112,
      "chip": "ym2612"
    },
    {
      "channel": 5,
      "note": 69,
      "start": 30.6983,
      "duration": 0.077,
      "velocity": 112,
      "chip": "ym2612"
    },
    {
      "channel": 4,
      "note": 71,
      "start": 30.7678,
      "duration": 0.0872,
      "velocity": 112,
      "chip": "ym2612"
    },
    {
      "channel": 3,
      "note": 64,
      "start": 30.7701,
      "duration": 0.0774,
      "velocity": 112,
      "chip": "ym2612"
    },
    {
      "channel": 2,
      "note": 83,
      "start": 30.7724,
      "duration": 0.0854,
      "velocity": 112,
      "chip": "ym2612"
    },
    {
      "channel": 5,
      "note": 69,
      "start": 30.7759,
      "duration": 0.0769,
      "velocity": 112,
      "chip": "ym2612"
    },
    {
      "channel": 3,
      "note": 64,
      "start": 30.8481,
      "duration": 0.0974,
      "velocity": 112,
      "chip": "ym2612"
    },
    {
      "channel": 5,
      "note": 69,
      "start": 30.8534,
      "duration": 0.0875,
      "velocity": 112,
      "chip": "ym2612"
    },
    {
      "channel": 4,
      "note": 71,
      "start": 30.8556,
      "duration": 0.0876,
      "velocity": 112,
      "chip": "ym2612"
    },
    {
      "channel": 2,
      "note": 83,
      "start": 30.8585,
      "duration": 0.0894,
      "velocity": 112,
      "chip": "ym2612"
    },
    {
      "channel": 5,
      "note": 69,
      "start": 30.9416,
      "duration": 0.088,
      "velocity": 112,
      "chip": "ym2612"
    },
    {
      "channel": 4,
      "note": 71,
      "start": 30.9439,
      "duration": 0.1031,
      "velocity": 112,
      "chip": "ym2612"
    },
    {
      "channel": 3,
      "note": 64,
      "start": 30.9462,
      "duration": 0.0868,
      "velocity": 112,
      "chip": "ym2612"
    },
    {
      "channel": 2,
      "note": 83,
      "start": 30.9485,
      "duration": 0.1013,
      "velocity": 112,
      "chip": "ym2612"
    },
    {
      "channel": 0,
      "note": 52,
      "start": 31.0277,
      "duration": 2.7865,
      "velocity": 94,
      "chip": "ym2612"
    },
    {
      "channel": 5,
      "note": 69,
      "start": 31.0303,
      "duration": 0.0832,
      "velocity": 112,
      "chip": "ym2612"
    },
    {
      "channel": 3,
      "note": 64,
      "start": 31.0336,
      "duration": 0.084,
      "velocity": 112,
      "chip": "ym2612"
    },
    {
      "channel": 4,
      "note": 71,
      "start": 31.0476,
      "duration": 0.0761,
      "velocity": 112,
      "chip": "ym2612"
    },
    {
      "channel": 2,
      "note": 83,
      "start": 31.0504,
      "duration": 0.0694,
      "velocity": 112,
      "chip": "ym2612"
    },
    {
      "channel": 5,
      "note": 69,
      "start": 31.1141,
      "duration": 0.0966,
      "velocity": 112,
      "chip": "ym2612"
    },
    {
      "channel": 3,
      "note": 64,
      "start": 31.1182,
      "duration": 0.0886,
      "velocity": 112,
      "chip": "ym2612"
    },
    {
      "channel": 2,
      "note": 83,
      "start": 31.1205,
      "duration": 0.0788,
      "velocity": 112,
      "chip": "ym2612"
    },
    {
      "channel": 4,
      "note": 71,
      "start": 31.1244,
      "duration": 0.0801,
      "velocity": 112,
      "chip": "ym2612"
    },
    {
      "channel": 2,
      "note": 83,
      "start": 31.1999,
      "duration": 0.0993,
      "velocity": 112,
      "chip": "ym2612"
    },
    {
      "channel": 4,
      "note": 71,
      "start": 31.2051,
      "duration": 0.0894,
      "velocity": 112,
      "chip": "ym2612"
    },
    {
      "channel": 3,
      "note": 64,
      "start": 31.2074,
      "duration": 0.0894,
      "velocity": 112,
      "chip": "ym2612"
    },
    {
      "channel": 5,
      "note": 69,
      "start": 31.2114,
      "duration": 0.0809,
      "velocity": 112,
      "chip": "ym2612"
    },
    {
      "channel": 5,
      "note": 69,
      "start": 31.2929,
      "duration": 0.078,
      "velocity": 112,
      "chip": "ym2612"
    },
    {
      "channel": 4,
      "note": 71,
      "start": 31.2952,
      "duration": 0.0855,
      "velocity": 112,
      "chip": "ym2612"
    },
    {
      "channel": 3,
      "note": 64,
      "start": 31.2975,
      "duration": 0.0774,
      "velocity": 112,
      "chip": "ym2612"
    },
    {
      "channel": 2,
      "note": 83,
      "start": 31.2998,
      "duration": 0.0837,
      "velocity": 112,
      "chip": "ym2612"
    },
    {
      "channel": 5,
      "note": 69,
      "start": 31.3715,
      "duration": 0.0961,
      "velocity": 112,
      "chip": "ym2612"
    },
    {
      "channel": 3,
      "note": 64,
      "start": 31.3755,
      "duration": 0.0949,
      "velocity": 112,
      "chip": "ym2612"
    },
    {
      "channel": 4,
      "note": 71,
      "start": 31.3813,
      "duration": 0.0788,
      "velocity": 112,
      "chip": "ym2612"
    },
    {
      "channel": 2,
      "note": 83,
      "start": 31.384,
      "duration": 0.0801,
      "velocity": 112,
      "chip": "ym2612"
    },
    {
      "channel": 4,
      "note": 71,
      "start": 31.4607,
      "duration": 0.0974,
      "velocity": 112,
      "chip": "ym2612"
    },
    {
      "channel": 2,
      "note": 83,
      "start": 31.4648,
      "duration": 0.0875,
      "velocity": 112,
      "chip": "ym2612"
    },
    {
      "channel": 5,
      "note": 69,
      "start": 31.4683,
      "duration": 0.0875,
      "velocity": 112,
      "chip": "ym2612"
    },
    {
      "channel": 3,
      "note": 64,
      "start": 31.471,
      "duration": 0.0894,
      "velocity": 112,
      "chip": "ym2612"
    },
    {
      "channel": 2,
      "note": 83,
      "start": 31.5529,
      "duration": 0.089,
      "velocity": 112,
      "chip": "ym2612"
    },
    {
      "channel": 5,
      "note": 69,
      "start": 31.5564,
      "duration": 0.081,
      "velocity": 112,
      "chip": "ym2612"
    },
    {
      "channel": 4,
      "note": 71,
      "start": 31.5587,
      "duration": 0.0872,
      "velocity": 112,
      "chip": "ym2612"
    },
    {
      "channel": 3,
      "note": 64,
      "start": 31.561,
      "duration": 0.0695,
      "velocity": 112,
      "chip": "ym2612"
    },
    {
      "channel": 3,
      "note": 64,
      "start": 31.6311,
      "duration": 0.1014,
      "velocity": 112,
      "chip": "ym2612"
    },
    {
      "channel": 1,
      "note": 69,
      "start": 31.6351,
      "duration": 0.0824,
      "velocity": 95,
      "chip": "ym2612"
    },
    {
      "channel": 5,
      "note": 69,
      "start": 31.6381,
      "duration": 0.0916,
      "velocity": 112,
      "chip": "ym2612"
    },
    {
      "channel": 2,
      "note": 83,
      "start": 31.6426,
      "duration": 0.0836,
      "velocity": 112,
      "chip": "ym2612"
    },
    {
      "channel": 4,
      "note": 71,
      "start": 31.6466,
      "duration": 0.0756,
      "velocity": 112,
      "chip": "ym2612"
    },
    {
      "channel": 1,
      "note": 69,
      "start": 31.7181,
      "duration": 0.0937,
      "velocity": 95,
      "chip": "ym2612"
    },
    {
      "channel": 4,
      "note": 71,
      "start": 31.7228,
      "duration": 0.0942,
      "velocity": 112,
      "chip": "ym2612"
    },
    {
      "channel": 2,
      "note": 83,
      "start": 31.7268,
      "duration": 0.0948,
      "velocity": 112,
      "chip": "ym2612"
    },
    {
      "channel": 5,
      "note": 69,
      "start": 31.7303,
      "duration": 0.0845,
      "velocity": 112,
      "chip": "ym2612"
    },
    {
      "channel": 3,
      "note": 64,
      "start": 31.7331,
      "duration": 0.0863,
      "velocity": 112,
      "chip": "ym2612"
    },
    {
      "channel": 1,
      "note": 57,
      "start": 31.8124,
      "duration": 0.0829,
      "velocity": 95,
      "chip": "ym2612"
    },
    {
      "channel": 5,
      "note": 69,
      "start": 31.8155,
      "duration": 0.0912,
      "velocity": 112,
      "chip": "ym2612"
    },
    {
      "channel": 4,
      "note": 71,
      "start": 31.8177,
      "duration": 0.0912,
      "velocity": 112,
      "chip": "ym2612"
    },
    {
      "channel": 3,
      "note": 64,
      "start": 31.82,
      "duration": 0.0912,
      "velocity": 112,
      "chip": "ym2612"
    },
    {
      "channel": 2,
      "note": 83,
      "start": 31.8223,
      "duration": 0.0912,
      "velocity": 112,
      "chip": "ym2612"
    },
    {
      "channel": 1,
      "note": 69,
      "start": 31.8959,
      "duration": 0.0943,
      "velocity": 95,
      "chip": "ym2612"
    },
    {
      "channel": 5,
      "note": 69,
      "start": 31.9073,
      "duration": 0.086,
      "velocity": 112,
      "chip": "ym2612"
    },
    {
      "channel": 4,
      "note": 71,
      "start": 31.9095,
      "duration": 0.0744,
      "velocity": 112,
      "chip": "ym2612"
    },
    {
      "channel": 3,
      "note": 64,
      "start": 31.9118,
      "duration": 0.0841,
      "velocity": 112,
      "chip": "ym2612"
    },
    {
      "channel": 2,
      "note": 83,
      "start": 31.9141,
      "duration": 0.0739,
      "velocity": 112,
      "chip": "ym2612"
    },
    {
      "channel": 4,
      "note": 71,
      "start": 31.9845,
      "duration": 0.0931,
      "velocity": 112,
      "chip": "ym2612"
    },
    {
      "channel": 2,
      "note": 83,
      "start": 31.9886,
      "duration": 0.0924,
      "velocity": 112,
      "chip": "ym2612"
    },
    {
      "channel": 1,
      "note": 57,
      "start": 31.9908,
      "duration": 0.0925,
      "velocity": 95,
      "chip": "ym2612"
    },
    {
      "channel": 5,
      "note": 69,
      "start": 31.9939,
      "duration": 0.1062,
      "velocity": 112,
      "chip": "ym2612"
    },
    {
      "channel": 3,
      "note": 64,
      "start": 31.9966,
      "duration": 0.0956,
      "velocity": 112,
      "chip": "ym2612"
    },
    {
      "channel": 4,
      "note": 71,
      "start": 32.0783,
      "duration": 0.0931,
      "velocity": 112,
      "chip": "ym2612"
    },
    {
      "channel": 2,
      "note": 83,
      "start": 32.0817,
      "duration": 0.084,
      "velocity": 112,
      "chip": "ym2612"
    },
    {
      "channel": 1,
      "note": 69,
      "start": 32.084,
      "duration": 1.2031,
      "velocity": 95,
      "chip": "ym2612"
    },
    {
      "channel": 3,
      "note": 64,
      "start": 32.0929,
      "duration": 0.0704,
      "velocity": 112,
      "chip": "ym2612"
    },
    {
      "channel": 5,
      "note": 69,
      "start": 32.1007,
      "duration": 0.0684,
      "velocity": 112,
      "chip": "ym2612"
    },
    {
      "channel": 3,
      "note": 64,
      "start": 32.1639,
      "duration": 0.0935,
      "velocity": 112,
      "chip": "ym2612"
    },
    {
      "channel": 2,
      "note": 83,
      "start": 32.1663,
      "duration": 0.0849,
      "velocity": 112,
      "chip": "ym2612"
    },
    {
      "channel": 5,
      "note": 69,
      "start": 32.1697,
      "duration": 0.0756,
      "velocity": 112,
      "chip": "ym2612"
    },
    {
      "channel": 4,
      "note": 71,
      "start": 32.172,
      "duration": 0.0832,
      "velocity": 112,
      "chip": "ym2612"
    },
    {
      "channel": 5,
      "note": 69,
      "start": 32.246,
      "duration": 0.0925,
      "velocity": 112,
      "chip": "ym2612"
    },
    {
      "channel": 2,
      "note": 83,
      "start": 32.2518,
      "duration": 0.0917,
      "velocity": 112,
      "chip": "ym2612"
    },
    {
      "channel": 4,
      "note": 71,
      "start": 32.2558,
      "duration": 0.0849,
      "velocity": 112,
      "chip": "ym2612"
    },
    {
      "channel": 3,
      "note": 64,
      "start": 32.2581,
      "duration": 0.0751,
      "velocity": 112,
      "chip": "ym2612"
    },
    {
      "channel": 3,
      "note": 64,
      "start": 32.3338,
      "duration": 0.0913,
      "velocity": 112,
      "chip": "ym2612"
    },
    {
      "channel": 5,
      "note": 69,
      "start": 32.3391,
      "duration": 0.0905,
      "velocity": 112,
      "chip": "ym2612"
    },
    {
      "channel": 4,
      "note": 71,
      "start": 32.3413,
      "duration": 0.0996,
      "velocity": 112,
      "chip": "ym2612"
    },
    {
      "channel": 2,
      "note": 83,
      "start": 32.3441,
      "duration": 0.0995,
      "velocity": 112,
      "chip": "ym2612"
    },
    {
      "channel": 3,
      "note": 64,
      "start": 32.4257,
      "duration": 0.0889,
      "velocity": 112,
      "chip": "ym2612"
    },
    {
      "channel": 5,
      "note": 69,
      "start": 32.4302,
      "duration": 0.0728,
      "velocity": 112,
      "chip": "ym2612"
    },
    {
      "channel": 4,
      "note": 71,
      "start": 32.4415,
      "duration": 0.0707,
      "velocity": 112,
      "chip": "ym2612"
    },
    {
      "channel": 2,
      "note": 83,
      "start": 32.4443,
      "duration": 0.0726,
      "velocity": 112,
      "chip": "ym2612"
    },
    {
      "channel": 5,
      "note": 69,
      "start": 32.5036,
      "duration": 0.0979,
      "velocity": 112,
      "chip": "ym2612"
    },
    {
      "channel": 4,
      "note": 71,
      "start": 32.5129,
      "duration": 0.0762,
      "velocity": 112,
      "chip": "ym2612"
    },
    {
      "channel": 3,
      "note": 64,
      "start": 32.5152,
      "duration": 0.0761,
      "velocity": 112,
      "chip": "ym2612"
    },
    {
      "channel": 2,
      "note": 83,
      "start": 32.5175,
      "duration": 0.0761,
      "velocity": 112,
      "chip": "ym2612"
    },
    {
      "channel": 4,
      "note": 71,
      "start": 32.5898,
      "duration": 0.1017,
      "velocity": 112,
      "chip": "ym2612"
    },
    {
      "channel": 3,
      "note": 64,
      "start": 32.592,
      "duration": 0.1018,
      "velocity": 112,
      "chip": "ym2612"
    },
    {
      "channel": 2,
      "note": 83,
      "start": 32.5943,
      "duration": 0.1018,
      "velocity": 112,
      "chip": "ym2612"
    },
    {
      "channel": 5,
      "note": 69,
      "start": 32.6022,
      "duration": 0.087,
      "velocity": 112,
      "chip": "ym2612"
    },
    {
      "channel": 5,
      "note": 69,
      "start": 32.6898,
      "duration": 0.078,
      "velocity": 112,
      "chip": "ym2612"
    },
    {
      "channel": 4,
      "note": 71,
      "start": 32.6921,
      "duration": 0.085,
      "velocity": 112,
      "chip": "ym2612"
    },
    {
      "channel": 3,
      "note": 64,
      "start": 32.6944,
      "duration": 0.085,
      "velocity": 112,
      "chip": "ym2612"
    },
    {
      "channel": 2,
      "note": 83,
      "start": 32.6967,
      "duration": 0.085,
      "velocity": 112,
      "chip": "ym2612"
    },
    {
      "channel": 5,
      "note": 69,
      "start": 32.7684,
      "duration": 0.0979,
      "velocity": 112,
      "chip": "ym2612"
    },
    {
      "channel": 4,
      "note": 71,
      "start": 32.7777,
      "duration": 0.0761,
      "velocity": 112,
      "chip": "ym2612"
    },
    {
      "channel": 3,
      "note": 64,
      "start": 32.78,
      "duration": 0.0761,
      "velocity": 112,
      "chip": "ym2612"
    },
    {
      "channel": 2,
      "note": 83,
      "start": 32.7823,
      "duration": 0.0761,
      "velocity": 112,
      "chip": "ym2612"
    },
    {
      "channel": 4,
      "note": 71,
      "start": 32.8545,
      "duration": 0.1022,
      "velocity": 112,
      "chip": "ym2612"
    },
    {
      "channel": 3,
      "note": 64,
      "start": 32.8568,
      "duration": 0.0919,
      "velocity": 112,
      "chip": "ym2612"
    },
    {
      "channel": 2,
      "note": 83,
      "start": 32.8591,
      "duration": 0.0919,
      "velocity": 112,
      "chip": "ym2612"
    },
    {
      "channel": 5,
      "note": 69,
      "start": 32.867,
      "duration": 0.0875,
      "velocity": 112,
      "chip": "ym2612"
    },
    {
      "channel": 3,
      "note": 64,
      "start": 32.9494,
      "duration": 0.0886,
      "velocity": 112,
      "chip": "ym2612"
    },
    {
      "channel": 2,
      "note": 83,
      "start": 32.9517,
      "duration": 0.0886,
      "velocity": 112,
      "chip": "ym2612"
    },
    {
      "channel": 5,
      "note": 69,
      "start": 32.9551,
      "duration": 0.0783,
      "velocity": 112,
      "chip": "ym2612"
    },
    {
      "channel": 4,
      "note": 71,
      "start": 32.9574,
      "duration": 0.0783,
      "velocity": 112,
      "chip": "ym2612"
    },
    {
      "channel": 5,
      "note": 69,
      "start": 33.034,
      "duration": 0.091,
      "velocity": 112,
      "chip": "ym2612"
    },
    {
      "channel": 4,
      "note": 71,
      "start": 33.0363,
      "duration": 0.0806,
      "velocity": 112,
      "chip": "ym2612"
    },
    {
      "channel": 3,
      "note": 64,
      "start": 33.0386,
      "duration": 0.0806,
      "velocity": 112,
      "chip": "ym2612"
    },
    {
      "channel": 2,
      "note": 83,
      "start": 33.0409,
      "duration": 0.0806,
      "velocity": 112,
      "chip": "ym2612"
    },
    {
      "channel": 4,
      "note": 71,
      "start": 33.1176,
      "duration": 0.0943,
      "velocity": 112,
      "chip": "ym2612"
    },
    {
      "channel": 3,
      "note": 64,
      "start": 33.1198,
      "duration": 0.0942,
      "velocity": 112,
      "chip": "ym2612"
    },
    {
      "channel": 2,
      "note": 83,
      "start": 33.1221,
      "duration": 0.0943,
      "velocity": 112,
      "chip": "ym2612"
    },
    {
      "channel": 5,
      "note": 69,
      "start": 33.1256,
      "duration": 0.0839,
      "velocity": 112,
      "chip": "ym2612"
    },
    {
      "channel": 5,
      "note": 69,
      "start": 33.2102,
      "duration": 0.0881,
      "velocity": 112,
      "chip": "ym2612"
    },
    {
      "channel": 4,
      "note": 71,
      "start": 33.2125,
      "duration": 0.088,
      "velocity": 112,
      "chip": "ym2612"
    },
    {
      "channel": 3,
      "note": 64,
      "start": 33.2147,
      "duration": 0.0882,
      "velocity": 112,
      "chip": "ym2612"
    },
    {
      "channel": 2,
      "note": 83,
      "start": 33.2171,
      "duration": 0.088,
      "velocity": 112,
      "chip": "ym2612"
    },
    {
      "channel": 1,
      "note": 69,
      "start": 33.2876,
      "duration": 0.0942,
      "velocity": 95,
      "chip": "ym2612"
    },
    {
      "channel": 5,
      "note": 69,
      "start": 33.2989,
      "duration": 0.0859,
      "velocity": 112,
      "chip": "ym2612"
    },
    {
      "channel": 4,
      "note": 71,
      "start": 33.3011,
      "duration": 0.0744,
      "velocity": 112,
      "chip": "ym2612"
    },
    {
      "channel": 3,
      "note": 64,
      "start": 33.3035,
      "duration": 0.0841,
      "velocity": 112,
      "chip": "ym2612"
    },
    {
      "channel": 2,
      "note": 83,
      "start": 33.3057,
      "duration": 0.0739,
      "velocity": 112,
      "chip": "ym2612"
    },
    {
      "channel": 4,
      "note": 71,
      "start": 33.3761,
      "duration": 0.1011,
      "velocity": 112,
      "chip": "ym2612"
    },
    {
      "channel": 2,
      "note": 83,
      "start": 33.3802,
      "duration": 0.1016,
      "velocity": 112,
      "chip": "ym2612"
    },
    {
      "channel": 1,
      "note": 69,
      "start": 33.3824,
      "duration": 0.0907,
      "velocity": 95,
      "chip": "ym2612"
    },
    {
      "channel": 5,
      "note": 69,
      "start": 33.3855,
      "duration": 0.1074,
      "velocity": 112,
      "chip": "ym2612"
    },
    {
      "channel": 3,
      "note": 64,
      "start": 33.3882,
      "duration": 0.0913,
      "velocity": 112,
      "chip": "ym2612"
    },
    {
      "channel": 1,
      "note": 57,
      "start": 33.4738,
      "duration": 0.08,
      "velocity": 95,
      "chip": "ym2612"
    },
    {
      "channel": 4,
      "note": 71,
      "start": 33.4779,
      "duration": 0.09,
      "velocity": 112,
      "chip": "ym2612"
    },
    {
      "channel": 3,
      "note": 64,
      "start": 33.4802,
      "duration": 0.0974,
      "velocity": 112,
      "chip": "ym2612"
    },
    {
      "channel": 2,
      "note": 83,
      "start": 33.4824,
      "duration": 0.0796,
      "velocity": 112,
      "chip": "ym2612"
    },
    {
      "channel": 5,
      "note": 69,
      "start": 33.4935,
      "duration": 0.072,
      "velocity": 112,
      "chip": "ym2612"
    },
    {
      "channel": 1,
      "note": 69,
      "start": 33.5544,
      "duration": 0.0862,
      "velocity": 95,
      "chip": "ym2612"
    },
    {
      "channel": 2,
      "note": 83,
      "start": 33.5627,
      "duration": 0.0862,
      "velocity": 112,
      "chip": "ym2612"
    },
    {
      "channel": 5,
      "note": 69,
      "start": 33.5661,
      "duration": 0.0775,
      "velocity": 112,
      "chip": "ym2612"
    },
    {
      "channel": 4,
      "note": 71,
      "start": 33.5685,
      "duration": 0.0844,
      "velocity": 112,
      "chip": "ym2612"
    },
    {
      "channel": 3,
      "note": 64,
      "start": 33.5782,
      "duration": 0.077,
      "velocity": 112,
      "chip": "ym2612"
    },
    {
      "channel": 1,
      "note": 57,
      "start": 33.6412,
      "duration": 0.0974,
      "velocity": 95,
      "chip": "ym2612"
    },
    {
      "channel": 5,
      "note": 69,
      "start": 33.6443,
      "duration": 0.0975,
      "velocity": 112,
      "chip": "ym2612"
    },
    {
      "channel": 2,
      "note": 83,
      "start": 33.6495,
      "duration": 0.0869,
      "velocity": 112,
      "chip": "ym2612"
    },
    {
      "channel": 4,
      "note": 71,
      "start": 33.6535,
      "duration": 0.0905,
      "velocity": 112,
      "chip": "ym2612"
    },
    {
      "channel": 3,
      "note": 64,
      "start": 33.6558,
      "duration": 0.0783,
      "velocity": 112,
      "chip": "ym2612"
    },
    {
      "channel": 3,
      "note": 64,
      "start": 33.7347,
      "duration": 0.0854,
      "velocity": 112,
      "chip": "ym2612"
    },
    {
      "channel": 2,
      "note": 83,
      "start": 33.7371,
      "duration": 0.1005,
      "velocity": 112,
      "chip": "ym2612"
    },
    {
      "channel": 1,
      "note": 69,
      "start": 33.7393,
      "duration": 1.2107,
      "velocity": 95,
      "chip": "ym2612"
    },
    {
      "channel": 5,
      "note": 69,
      "start": 33.7424,
      "duration": 0.0824,
      "velocity": 112,
      "chip": "ym2612"
    },
    {
      "channel": 4,
      "note": 71,
      "start": 33.7446,
      "duration": 0.097,
      "velocity": 112,
      "chip": "ym2612"
    },
    {
      "channel": 0,
      "note": 55,
      "start": 33.8147,
      "duration": 2.7971,
      "velocity": 94,
      "chip": "ym2612"
    },
    {
      "channel": 3,
      "note": 64,
      "start": 33.8208,
      "duration": 0.0895,
      "velocity": 112,
      "chip": "ym2612"
    },
    {
      "channel": 5,
      "note": 69,
      "start": 33.8254,
      "duration": 0.0734,
      "velocity": 112,
      "chip": "ym2612"
    },
    {
      "channel": 2,
      "note": 83,
      "start": 33.8382,
      "duration": 0.0743,
      "velocity": 112,
      "chip": "ym2612"
    },
    {
      "channel": 4,
      "note": 71,
      "start": 33.8422,
      "duration": 0.0658,
      "velocity": 112,
      "chip": "ym2612"
    },
    {
      "channel": 5,
      "note": 69,
      "start": 33.8994,
      "duration": 0.0992,
      "velocity": 112,
      "chip": "ym2612"
    },
    {
      "channel": 4,
      "note": 71,
      "start": 33.9086,
      "duration": 0.0837,
      "velocity": 112,
      "chip": "ym2612"
    },
    {
      "channel": 3,
      "note": 64,
      "start": 33.9109,
      "duration": 0.0836,
      "velocity": 112,
      "chip": "ym2612"
    },
    {
      "channel": 2,
      "note": 83,
      "start": 33.9132,
      "duration": 0.0739,
      "velocity": 112,
      "chip": "ym2612"
    },
    {
      "channel": 2,
      "note": 83,
      "start": 33.9877,
      "duration": 0.0961,
      "velocity": 112,
      "chip": "ym2612"
    },
    {
      "channel": 4,
      "note": 71,
      "start": 33.9929,
      "duration": 0.088,
      "velocity": 112,
      "chip": "ym2612"
    },
    {
      "channel": 3,
      "note": 64,
      "start": 33.9952,
      "duration": 0.0788,
      "velocity": 112,
      "chip": "ym2612"
    },
    {
      "channel": 5,
      "note": 69,
      "start": 33.9992,
      "duration": 0.088,
      "velocity": 112,
      "chip": "ym2612"
    },
    {
      "channel": 3,
      "note": 64,
      "start": 34.0746,
      "duration": 0.0992,
      "velocity": 112,
      "chip": "ym2612"
    },
    {
      "channel": 4,
      "note": 71,
      "start": 34.0815,
      "duration": 0.0899,
      "velocity": 112,
      "chip": "ym2612"
    },
    {
      "channel": 2,
      "note": 83,
      "start": 34.0844,
      "duration": 0.0831,
      "velocity": 112,
      "chip": "ym2612"
    },
    {
      "channel": 5,
      "note": 69,
      "start": 34.0878,
      "duration": 0.0738,
      "velocity": 112,
      "chip": "ym2612"
    },
    {
      "channel": 5,
      "note": 69,
      "start": 34.1623,
      "duration": 0.101,
      "velocity": 112,
      "chip": "ym2612"
    },
    {
      "channel": 2,
      "note": 83,
      "start": 34.1681,
      "duration": 0.0837,
      "velocity": 112,
      "chip": "ym2612"
    },
    {
      "channel": 4,
      "note": 71,
      "start": 34.1721,
      "duration": 0.085,
      "velocity": 112,
      "chip": "ym2612"
    },
    {
      "channel": 3,
      "note": 64,
      "start": 34.1744,
      "duration": 0.0849,
      "velocity": 112,
      "chip": "ym2612"
    },
    {
      "channel": 2,
      "note": 83,
      "start": 34.2524,
      "duration": 0.0961,
      "velocity": 112,
      "chip": "ym2612"
    },
    {
      "channel": 4,
      "note": 71,
      "start": 34.2577,
      "duration": 0.088,
      "velocity": 112,
      "chip": "ym2612"
    },
    {
      "channel": 3,
      "note": 64,
      "start": 34.2599,
      "duration": 0.0788,
      "velocity": 112,
      "chip": "ym2612"
    },
    {
      "channel": 5,
      "note": 69,
      "start": 34.2639,
      "duration": 0.0881,
      "velocity": 112,
      "chip": "ym2612"
    },
    {
      "channel": 3,
      "note": 64,
      "start": 34.3394,
      "duration": 0.0992,
      "velocity": 112,
      "chip": "ym2612"
    },
    {
      "channel": 4,
      "note": 71,
      "start": 34.3464,
      "duration": 0.0898,
      "velocity": 112,
      "chip": "ym2612"
    },
    {
      "channel": 2,
      "note": 83,
      "start": 34.3491,
      "duration": 0.0831,
      "velocity": 112,
      "chip": "ym2612"
    },
    {
      "channel": 5,
      "note": 69,
      "start": 34.3527,
      "duration": 0.0737,
      "velocity": 112,
      "chip": "ym2612"
    },
    {
      "channel": 5,
      "note": 69,
      "start": 34.427,
      "duration": 0.093,
      "velocity": 112,
      "chip": "ym2612"
    },
    {
      "channel": 2,
      "note": 83,
      "start": 34.4329,
      "duration": 0.0837,
      "velocity": 112,
      "chip": "ym2612"
    },
    {
      "channel": 4,
      "note": 71,
      "start": 34.4368,
      "duration": 0.0756,
      "velocity": 112,
      "chip": "ym2612"
    },
    {
      "channel": 3,
      "note": 64,
      "start": 34.4392,
      "duration": 0.0836,
      "velocity": 112,
      "chip": "ym2612"
    },
    {
      "channel": 4,
      "note": 71,
      "start": 34.5131,
      "duration": 0.0961,
      "velocity": 112,
      "chip": "ym2612"
    },
    {
      "channel": 2,
      "note": 83,
      "start": 34.5172,
      "duration": 0.0948,
      "velocity": 112,
      "chip": "ym2612"
    },
    {
      "channel": 5,
      "note": 69,
      "start": 34.5207,
      "duration": 0.0863,
      "velocity": 112,
      "chip": "ym2612"
    },
    {
      "channel": 3,
      "note": 64,
      "start": 34.5234,
      "duration": 0.0783,
      "velocity": 112,
      "chip": "ym2612"
    },
    {
      "channel": 3,
      "note": 64,
      "start": 34.6023,
      "duration": 0.0942,
      "velocity": 112,
      "chip": "ym2612"
    },
    {
      "channel": 5,
      "note": 69,
      "start": 34.6076,
      "duration": 0.0844,
      "velocity": 112,
      "chip": "ym2612"
    },
    {
      "channel": 4,
      "note": 71,
      "start": 34.6098,
      "duration": 0.0845,
      "velocity": 112,
      "chip": "ym2612"
    },
    {
      "channel": 2,
      "note": 83,
      "start": 34.6126,
      "duration": 0.0863,
      "velocity": 112,
      "chip": "ym2612"
    },
    {
      "channel": 5,
      "note": 69,
      "start": 34.6926,
      "duration": 0.0873,
      "velocity": 112,
      "chip": "ym2612"
    },
    {
      "channel": 4,
      "note": 71,
      "start": 34.6949,
      "duration": 0.0774,
      "velocity": 112,
      "chip": "ym2612"
    },
    {
      "channel": 3,
      "note": 64,
      "start": 34.6971,
      "duration": 0.0855,
      "velocity": 112,
      "chip": "ym2612"
    },
    {
      "channel": 2,
      "note": 83,
      "start": 34.6995,
      "duration": 0.0769,
      "velocity": 112,
      "chip": "ym2612"
    },
    {
      "channel": 4,
      "note": 71,
      "start": 34.773,
      "duration": 0.0943,
      "velocity": 112,
      "chip": "ym2612"
    },
    {
      "channel": 2,
      "note": 83,
      "start": 34.777,
      "duration": 0.0949,
      "velocity": 112,
      "chip": "ym2612"
    },
    {
      "channel": 5,
      "note": 69,
      "start": 34.7805,
      "duration": 0.1024,
      "velocity": 112,
      "chip": "ym2612"
    },
    {
      "channel": 3,
      "note": 64,
      "start": 34.7832,
      "duration": 0.0864,
      "velocity": 112,
      "chip": "ym2612"
    },
    {
      "channel": 4,
      "note": 71,
      "start": 34.8679,
      "duration": 0.0962,
      "velocity": 112,
      "chip": "ym2612"
    },
    {
      "channel": 3,
      "note": 64,
      "start": 34.8702,
      "duration": 0.0961,
      "velocity": 112,
      "chip": "ym2612"
    },
    {
      "channel": 2,
      "note": 83,
      "start": 34.8725,
      "duration": 0.0858,
      "velocity": 112,
      "chip": "ym2612"
    },
    {
      "channel": 5,
      "note": 69,
      "start": 34.8836,
      "duration": 0.0782,
      "velocity": 112,
      "chip": "ym2612"
    },
    {
      "channel": 1,
      "note": 69,
      "start": 34.9506,
      "duration": 0.0924,
      "velocity": 95,
      "chip": "ym2612"
    },
    {
      "channel": 2,
      "note": 83,
      "start": 34.959,
      "duration": 0.091,
      "velocity": 112,
      "chip": "ym2612"
    },
    {
      "channel": 5,
      "note": 69,
      "start": 34.9624,
      "duration": 0.0732,
      "velocity": 112,
      "chip": "ym2612"
    },
    {
      "channel": 4,
      "note": 71,
      "start": 34.9648,
      "duration": 0.0818,
      "velocity": 112,
      "chip": "ym2612"
    },
    {
      "channel": 3,
      "note": 64,
      "start": 34.967,
      "duration": 0.0911,
      "velocity": 112,
      "chip": "ym2612"
    },
    {
      "channel": 5,
      "note": 69,
      "start": 35.0361,
      "duration": 0.1012,
      "velocity": 112,
      "chip": "ym2612"
    },
    {
      "channel": 1,
      "note": 69,
      "start": 35.0437,
      "duration": 0.0812,
      "velocity": 95,
      "chip": "ym2612"
    },
    {
      "channel": 4,
      "note": 71,
      "start": 35.0472,
      "duration": 0.0924,
      "velocity": 112,
      "chip": "ym2612"
    },
    {
      "channel": 2,
      "note": 83,
      "start": 35.0506,
      "duration": 0.0832,
      "velocity": 112,
      "chip": "ym2612"
    },
    {
      "channel": 3,
      "note": 64,
      "start": 35.0587,
      "duration": 0.0728,
      "velocity": 112,
      "chip": "ym2612"
    },
    {
      "channel": 1,
      "note": 57,
      "start": 35.1256,
      "duration": 0.0906,
      "velocity": 95,
      "chip": "ym2612"
    },
    {
      "channel": 3,
      "note": 64,
      "start": 35.1321,
      "duration": 0.0905,
      "velocity": 112,
      "chip": "ym2612"
    },
    {
      "channel": 2,
      "note": 83,
      "start": 35.1344,
      "duration": 0.1049,
      "velocity": 112,
      "chip": "ym2612"
    },
    {
      "channel": 5,
      "note": 69,
      "start": 35.1379,
      "duration": 0.0814,
      "velocity": 112,
      "chip": "ym2612"
    },
    {
      "channel": 4,
      "note": 71,
      "start": 35.1402,
      "duration": 0.0964,
      "velocity": 112,
      "chip": "ym2612"
    },
    {
      "channel": 1,
      "note": 69,
      "start": 35.2168,
      "duration": 0.0868,
      "velocity": 95,
      "chip": "ym2612"
    },
    {
      "channel": 5,
      "note": 69,
      "start": 35.2199,
      "duration": 0.0758,
      "velocity": 112,
      "chip": "ym2612"
    },
    {
      "channel": 3,
      "note": 64,
      "start": 35.2232,
      "duration": 0.0765,
      "velocity": 112,
      "chip": "ym2612"
    },
    {
      "channel": 4,
      "note": 71,
      "start": 35.2372,
      "duration": 0.07,
      "velocity": 112,
      "chip": "ym2612"
    },
    {
      "channel": 2,
      "note": 83,
      "start": 35.24,
      "duration": 0.07,
      "velocity": 112,
      "chip": "ym2612"
    },
    {
      "channel": 5,
      "note": 69,
      "start": 35.2963,
      "duration": 0.0954,
      "velocity": 112,
      "chip": "ym2612"
    },
    {
      "channel": 3,
      "note": 64,
      "start": 35.3004,
      "duration": 0.094,
      "velocity": 112,
      "chip": "ym2612"
    },
    {
      "channel": 1,
      "note": 57,
      "start": 35.3043,
      "duration": 0.0929,
      "velocity": 95,
      "chip": "ym2612"
    },
    {
      "channel": 4,
      "note": 71,
      "start": 35.3078,
      "duration": 0.0756,
      "velocity": 112,
      "chip": "ym2612"
    },
    {
      "channel": 2,
      "note": 83,
      "start": 35.3106,
      "duration": 0.0769,
      "velocity": 112,
      "chip": "ym2612"
    },
    {
      "channel": 4,
      "note": 71,
      "start": 35.3841,
      "duration": 0.0949,
      "velocity": 112,
      "chip": "ym2612"
    },
    {
      "channel": 2,
      "note": 83,
      "start": 35.3882,
      "duration": 0.0954,
      "velocity": 112,
      "chip": "ym2612"
    },
    {
      "channel": 5,
      "note": 69,
      "start": 35.3923,
      "duration": 0.0844,
      "velocity": 112,
      "chip": "ym2612"
    },
    {
      "channel": 3,
      "note": 64,
      "start": 35.395,
      "duration": 0.0863,
      "velocity": 112,
      "chip": "ym2612"
    },
    {
      "channel": 1,
      "note": 69,
      "start": 35.3978,
      "duration": 1.2118,
      "velocity": 95,
      "chip": "ym2612"
    },
    {
      "channel": 5,
      "note": 69,
      "start": 35.4773,
      "duration": 0.078,
      "velocity": 112,
      "chip": "ym2612"
    },
    {
      "channel": 4,
      "note": 71,
      "start": 35.4796,
      "duration": 0.0855,
      "velocity": 112,
      "chip": "ym2612"
    },
    {
      "channel": 3,
      "note": 64,
      "start": 35.4819,
      "duration": 0.0774,
      "velocity": 112,
      "chip": "ym2612"
    },
    {
      "channel": 2,
      "note": 83,
      "start": 35.4842,
      "duration": 0.0837,
      "velocity": 112,
      "chip": "ym2612"
    },
    {
      "channel": 5,
      "note": 69,
      "start": 35.556,
      "duration": 0.0961,
      "velocity": 112,
      "chip": "ym2612"
    },
    {
      "channel": 3,
      "note": 64,
      "start": 35.56,
      "duration": 0.0949,
      "velocity": 112,
      "chip": "ym2612"
    },
    {
      "channel": 4,
      "note": 71,
      "start": 35.5658,
      "duration": 0.0788,
      "velocity": 112,
      "chip": "ym2612"
    },
    {
      "channel": 2,
      "note": 83,
      "start": 35.5685,
      "duration": 0.0801,
      "velocity": 112,
      "chip": "ym2612"
    },
    {
      "channel": 4,
      "note": 71,
      "start": 35.6452,
      "duration": 0.0987,
      "velocity": 112,
      "chip": "ym2612"
    },
    {
      "channel": 2,
      "note": 83,
      "start": 35.6492,
      "duration": 0.0992,
      "velocity": 112,
      "chip": "ym2612"
    },
    {
      "channel": 5,
      "note": 69,
      "start": 35.6527,
      "duration": 0.0888,
      "velocity": 112,
      "chip": "ym2612"
    },
    {
      "channel": 3,
      "note": 64,
      "start": 35.6555,
      "duration": 0.0907,
      "velocity": 112,
      "chip": "ym2612"
    },
    {
      "channel": 5,
      "note": 69,
      "start": 35.7422,
      "duration": 0.078,
      "velocity": 112,
      "chip": "ym2612"
    },
    {
      "channel": 4,
      "note": 71,
      "start": 35.7445,
      "duration": 0.0855,
      "velocity": 112,
      "chip": "ym2612"
    },
    {
      "channel": 3,
      "note": 64,
      "start": 35.7468,
      "duration": 0.0774,
      "velocity": 112,
      "chip": "ym2612"
    },
    {
      "channel": 2,
      "note": 83,
      "start": 35.749,
      "duration": 0.0837,
      "velocity": 112,
      "chip": "ym2612"
    },
    {
      "channel": 5,
      "note": 69,
      "start": 35.8208,
      "duration": 0.0961,
      "velocity": 112,
      "chip": "ym2612"
    },
    {
      "channel": 3,
      "note": 64,
      "start": 35.8248,
      "duration": 0.0949,
      "velocity": 112,
      "chip": "ym2612"
    },
    {
      "channel": 4,
      "note": 71,
      "start": 35.8306,
      "duration": 0.0788,
      "velocity": 112,
      "chip": "ym2612"
    },
    {
      "channel": 2,
      "note": 83,
      "start": 35.8333,
      "duration": 0.0801,
      "velocity": 112,
      "chip": "ym2612"
    },
    {
      "channel": 4,
      "note": 71,
      "start": 35.91,
      "duration": 0.0974,
      "velocity": 112,
      "chip": "ym2612"
    },
    {
      "channel": 2,
      "note": 83,
      "start": 35.9141,
      "duration": 0.0875,
      "velocity": 112,
      "chip": "ym2612"
    },
    {
      "channel": 5,
      "note": 69,
      "start": 35.9176,
      "duration": 0.0875,
      "velocity": 112,
      "chip": "ym2612"
    },
    {
      "channel": 3,
      "note": 64,
      "start": 35.9203,
      "duration": 0.0894,
      "velocity": 112,
      "chip": "ym2612"
    },
    {
      "channel": 2,
      "note": 83,
      "start": 36.0022,
      "duration": 0.0868,
      "velocity": 112,
      "chip": "ym2612"
    },
    {
      "channel": 5,
      "note": 69,
      "start": 36.0057,
      "duration": 0.0868,
      "velocity": 112,
      "chip": "ym2612"
    },
    {
      "channel": 4,
      "note": 71,
      "start": 36.008,
      "duration": 0.0868,
      "velocity": 112,
      "chip": "ym2612"
    },
    {
      "channel": 3,
      "note": 64,
      "start": 36.0103,
      "duration": 0.0764,
      "velocity": 112,
      "chip": "ym2612"
    },
    {
      "channel": 3,
      "note": 64,
      "start": 36.0873,
      "duration": 0.0922,
      "velocity": 112,
      "chip": "ym2612"
    },
    {
      "channel": 2,
      "note": 83,
      "start": 36.0896,
      "duration": 0.0837,
      "velocity": 112,
      "chip": "ym2612"
    },
    {
      "channel": 5,
      "note": 69,
      "start": 36.0931,
      "duration": 0.0837,
      "velocity": 112,
      "chip": "ym2612"
    },
    {
      "channel": 4,
      "note": 71,
      "start": 36.0954,
      "duration": 0.0739,
      "velocity": 112,
      "chip": "ym2612"
    },
    {
      "channel": 4,
      "note": 71,
      "start": 36.1699,
      "duration": 0.0961,
      "velocity": 112,
      "chip": "ym2612"
    },
    {
      "channel": 2,
      "note": 83,
      "start": 36.174,
      "duration": 0.0876,
      "velocity": 112,
      "chip": "ym2612"
    },
    {
      "channel": 5,
      "note": 69,
      "start": 36.1775,
      "duration": 0.1025,
      "velocity": 112,
      "chip": "ym2612"
    },
    {
      "channel": 3,
      "note": 64,
      "start": 36.1802,
      "duration": 0.0882,
      "velocity": 112,
      "chip": "ym2612"
    },
    {
      "channel": 2,
      "note": 83,
      "start": 36.2622,
      "duration": 0.0937,
      "velocity": 112,
      "chip": "ym2612"
    },
    {
      "channel": 4,
      "note": 71,
      "start": 36.2667,
      "duration": 0.0846,
      "velocity": 112,
      "chip": "ym2612"
    },
    {
      "channel": 3,
      "note": 64,
      "start": 36.269,
      "duration": 0.0845,
      "velocity": 112,
      "chip": "ym2612"
    },
    {
      "channel": 5,
      "note": 69,
      "start": 36.2806,
      "duration": 0.0684,
      "velocity": 112,
      "chip": "ym2612"
    },
    {
      "channel": 5,
      "note": 69,
      "start": 36.3496,
      "duration": 0.078,
      "velocity": 112,
      "chip": "ym2612"
    },
    {
      "channel": 4,
      "note": 71,
      "start": 36.3519,
      "duration": 0.0849,
      "velocity": 112,
      "chip": "ym2612"
    },
    {
      "channel": 3,
      "note": 64,
      "start": 36.3542,
      "duration": 0.0849,
      "velocity": 112,
      "chip": "ym2612"
    },
    {
      "channel": 2,
      "note": 83,
      "start": 36.3565,
      "duration": 0.0849,
      "velocity": 112,
      "chip": "ym2612"
    },
    {
      "channel": 5,
      "note": 69,
      "start": 36.4282,
      "duration": 0.0994,
      "velocity": 112,
      "chip": "ym2612"
    },
    {
      "channel": 4,
      "note": 71,
      "start": 36.4375,
      "duration": 0.0924,
      "velocity": 112,
      "chip": "ym2612"
    },
    {
      "channel": 3,
      "note": 64,
      "start": 36.4398,
      "duration": 0.1017,
      "velocity": 112,
      "chip": "ym2612"
    },
    {
      "channel": 2,
      "note": 83,
      "start": 36.442,
      "duration": 0.0912,
      "velocity": 112,
      "chip": "ym2612"
    },
    {
      "channel": 5,
      "note": 69,
      "start": 36.5283,
      "duration": 0.0934,
      "velocity": 112,
      "chip": "ym2612"
    },
    {
      "channel": 4,
      "note": 71,
      "start": 36.5305,
      "duration": 0.1025,
      "velocity": 112,
      "chip": "ym2612"
    },
    {
      "channel": 2,
      "note": 83,
      "start": 36.5339,
      "duration": 0.1019,
      "velocity": 112,
      "chip": "ym2612"
    },
    {
      "channel": 3,
      "note": 64,
      "start": 36.542,
      "duration": 0.0751,
      "velocity": 112,
      "chip": "ym2612"
    },
    {
      "channel": 1,
      "note": 69,
      "start": 36.6102,
      "duration": 0.0894,
      "velocity": 95,
      "chip": "ym2612"
    },
    {
      "channel": 0,
      "note": 57,
      "start": 36.6125,
      "duration": 2.7942,
      "velocity": 94,
      "chip": "ym2612"
    },
    {
      "channel": 3,
      "note": 64,
      "start": 36.6178,
      "duration": 0.0876,
      "velocity": 112,
      "chip": "ym2612"
    },
    {
      "channel": 5,
      "note": 69,
      "start": 36.6224,
      "duration": 0.0697,
      "velocity": 112,
      "chip": "ym2612"
    },
    {
      "channel": 4,
      "note": 71,
      "start": 36.6337,
      "duration": 0.0695,
      "velocity": 112,
      "chip": "ym2612"
    },
    {
      "channel": 2,
      "note": 83,
      "start": 36.6364,
      "duration": 0.0712,
      "velocity": 112,
      "chip": "ym2612"
    },
    {
      "channel": 5,
      "note": 69,
      "start": 36.6927,
      "duration": 0.0983,
      "velocity": 112,
      "chip": "ym2612"
    },
    {
      "channel": 1,
      "note": 69,
      "start": 36.7002,
      "duration": 0.078,
      "velocity": 95,
      "chip": "ym2612"
    },
    {
      "channel": 4,
      "note": 71,
      "start": 36.7037,
      "duration": 0.0793,
      "velocity": 112,
      "chip": "ym2612"
    },
    {
      "channel": 3,
      "note": 64,
      "start": 36.706,
      "duration": 0.0793,
      "velocity": 112,
      "chip": "ym2612"
    },
    {
      "channel": 2,
      "note": 83,
      "start": 36.7083,
      "duration": 0.0793,
      "velocity": 112,
      "chip": "ym2612"
    },
    {
      "channel": 1,
      "note": 57,
      "start": 36.7789,
      "duration": 0.0912,
      "velocity": 95,
      "chip": "ym2612"
    },
    {
      "channel": 4,
      "note": 71,
      "start": 36.7837,
      "duration": 0.0912,
      "velocity": 112,
      "chip": "ym2612"
    },
    {
      "channel": 3,
      "note": 64,
      "start": 36.7859,
      "duration": 0.0912,
      "velocity": 112,
      "chip": "ym2612"
    },
    {
      "channel": 2,
      "note": 83,
      "start": 36.7882,
      "duration": 0.0912,
      "velocity": 112,
      "chip": "ym2612"
    },
    {
      "channel": 5,
      "note": 69,
      "start": 36.7917,
      "duration": 0.0912,
      "velocity": 112,
      "chip": "ym2612"
    },
    {
      "channel": 1,
      "note": 69,
      "start": 36.8707,
      "duration": 0.081,
      "velocity": 95,
      "chip": "ym2612"
    },
    {
      "channel": 4,
      "note": 71,
      "start": 36.8754,
      "duration": 0.0885,
      "velocity": 112,
      "chip": "ym2612"
    },
    {
      "channel": 3,
      "note": 64,
      "start": 36.8777,
      "duration": 0.0885,
      "velocity": 112,
      "chip": "ym2612"
    },
    {
      "channel": 2,
      "note": 83,
      "start": 36.88,
      "duration": 0.0885,
      "velocity": 112,
      "chip": "ym2612"
    },
    {
      "channel": 5,
      "note": 69,
      "start": 36.8834,
      "duration": 0.0712,
      "velocity": 112,
      "chip": "ym2612"
    },
    {
      "channel": 1,
      "note": 57,
      "start": 36.9524,
      "duration": 0.0973,
      "velocity": 95,
      "chip": "ym2612"
    },
    {
      "channel": 5,
      "note": 69,
      "start": 36.9553,
      "duration": 0.0973,
      "velocity": 112,
      "chip": "ym2612"
    },
    {
      "channel": 4,
      "note": 71,
      "start": 36.9646,
      "duration": 0.0817,
      "velocity": 112,
      "chip": "ym2612"
    },
    {
      "channel": 3,
      "note": 64,
      "start": 36.9669,
      "duration": 0.0713,
      "velocity": 112,
      "chip": "ym2612"
    },
    {
      "channel": 2,
      "note": 83,
      "start": 36.9692,
      "duration": 0.0712,
      "velocity": 112,
      "chip": "ym2612"
    },
    {
      "channel": 3,
      "note": 64,
      "start": 37.0388,
      "duration": 0.0998,
      "velocity": 112,
      "chip": "ym2612"
    },
    {
      "channel": 2,
      "note": 83,
      "start": 37.0411,
      "duration": 0.0999,
      "velocity": 112,
      "chip": "ym2612"
    },
    {
      "channel": 4,
      "note": 71,
      "start": 37.047,
      "duration": 0.0894,
      "velocity": 112,
      "chip": "ym2612"
    },
    {
      "channel": 1,
      "note": 69,
      "start": 37.0502,
      "duration": 1.2149,
      "velocity": 95,
      "chip": "ym2612"
    },
    {
      "channel": 5,
      "note": 69,
      "start": 37.0533,
      "duration": 0.0807,
      "velocity": 112,
      "chip": "ym2612"
    },
    {
      "channel": 5,
      "note": 69,
      "start": 37.1347,
      "duration": 0.078,
      "velocity": 112,
      "chip": "ym2612"
    },
    {
      "channel": 4,
      "note": 71,
      "start": 37.137,
      "duration": 0.085,
      "velocity": 112,
      "chip": "ym2612"
    },
    {
      "channel": 3,
      "note": 64,
      "start": 37.1393,
      "duration": 0.085,
      "velocity": 112,
      "chip": "ym2612"
    },
    {
      "channel": 2,
      "note": 83,
      "start": 37.1416,
      "duration": 0.085,
      "velocity": 112,
      "chip": "ym2612"
    },
    {
      "channel": 5,
      "note": 69,
      "start": 37.2134,
      "duration": 0.101,
      "velocity": 112,
      "chip": "ym2612"
    },
    {
      "channel": 4,
      "note": 71,
      "start": 37.2227,
      "duration": 0.0836,
      "velocity": 112,
      "chip": "ym2612"
    },
    {
      "channel": 3,
      "note": 64,
      "start": 37.2249,
      "duration": 0.0837,
      "velocity": 112,
      "chip": "ym2612"
    },
    {
      "channel": 2,
      "note": 83,
      "start": 37.2272,
      "duration": 0.0836,
      "velocity": 112,
      "chip": "ym2612"
    },
    {
      "channel": 4,
      "note": 71,
      "start": 37.3069,
      "duration": 0.0943,
      "velocity": 112,
      "chip": "ym2612"
    },
    {
      "channel": 3,
      "note": 64,
      "start": 37.3092,
      "duration": 0.0942,
      "velocity": 112,
      "chip": "ym2612"
    },
    {
      "channel": 2,
      "note": 83,
      "start": 37.3115,
      "duration": 0.0943,
      "velocity": 112,
      "chip": "ym2612"
    },
    {
      "channel": 5,
      "note": 69,
      "start": 37.3149,
      "duration": 0.0839,
      "velocity": 112,
      "chip": "ym2612"
    },
    {
      "channel": 5,
      "note": 69,
      "start": 37.3995,
      "duration": 0.0863,
      "velocity": 112,
      "chip": "ym2612"
    },
    {
      "channel": 4,
      "note": 71,
      "start": 37.4018,
      "duration": 0.0863,
      "velocity": 112,
      "chip": "ym2612"
    },
    {
      "channel": 3,
      "note": 64,
      "start": 37.4041,
      "duration": 0.0863,
      "velocity": 112,
      "chip": "ym2612"
    },
    {
      "channel": 2,
      "note": 83,
      "start": 37.4063,
      "duration": 0.0863,
      "velocity": 112,
      "chip": "ym2612"
    },
    {
      "channel": 5,
      "note": 69,
      "start": 37.4864,
      "duration": 0.0879,
      "velocity": 112,
      "chip": "ym2612"
    },
    {
      "channel": 4,
      "note": 71,
      "start": 37.4887,
      "duration": 0.0775,
      "velocity": 112,
      "chip": "ym2612"
    },
    {
      "channel": 3,
      "note": 64,
      "start": 37.491,
      "duration": 0.0776,
      "velocity": 112,
      "chip": "ym2612"
    },
    {
      "channel": 2,
      "note": 83,
      "start": 37.4933,
      "duration": 0.0775,
      "velocity": 112,
      "chip": "ym2612"
    },
    {
      "channel": 4,
      "note": 71,
      "start": 37.5668,
      "duration": 0.0931,
      "velocity": 112,
      "chip": "ym2612"
    },
    {
      "channel": 3,
      "note": 64,
      "start": 37.5691,
      "duration": 0.0931,
      "velocity": 112,
      "chip": "ym2612"
    },
    {
      "channel": 2,
      "note": 83,
      "start": 37.5714,
      "duration": 0.0931,
      "velocity": 112,
      "chip": "ym2612"
    },
    {
      "channel": 5,
      "note": 69,
      "start": 37.5749,
      "duration": 0.1007,
      "velocity": 112,
      "chip": "ym2612"
    },
    {
      "channel": 4,
      "note": 71,
      "start": 37.6606,
      "duration": 0.0864,
      "velocity": 112,
      "chip": "ym2612"
    },
    {
      "channel": 3,
      "note": 64,
      "start": 37.6628,
      "duration": 0.0863,
      "velocity": 112,
      "chip": "ym2612"
    },
    {
      "channel": 2,
      "note": 83,
      "start": 37.6651,
      "duration": 0.0864,
      "velocity": 112,
      "chip": "ym2612"
    },
    {
      "channel": 5,
      "note": 69,
      "start": 37.6763,
      "duration": 0.0684,
      "velocity": 112,
      "chip": "ym2612"
    },
    {
      "channel": 5,
      "note": 69,
      "start": 37.7453,
      "duration": 0.078,
      "velocity": 112,
      "chip": "ym2612"
    },
    {
      "channel": 4,
      "note": 71,
      "start": 37.7476,
      "duration": 0.0849,
      "velocity": 112,
      "chip": "ym2612"
    },
    {
      "channel": 3,
      "note": 64,
      "start": 37.7498,
      "duration": 0.085,
      "velocity": 112,
      "chip": "ym2612"
    },
    {
      "channel": 2,
      "note": 83,
      "start": 37.7522,
      "duration": 0.0849,
      "velocity": 112,
      "chip": "ym2612"
    },
    {
      "channel": 5,
      "note": 69,
      "start": 37.8239,
      "duration": 0.0999,
      "velocity": 112,
      "chip": "ym2612"
    },
    {
      "channel": 4,
      "note": 71,
      "start": 37.8331,
      "duration": 0.093,
      "velocity": 112,
      "chip": "ym2612"
    },
    {
      "channel": 3,
      "note": 64,
      "start": 37.8354,
      "duration": 0.0826,
      "velocity": 112,
      "chip": "ym2612"
    },
    {
      "channel": 2,
      "note": 83,
      "start": 37.8377,
      "duration": 0.0826,
      "velocity": 112,
      "chip": "ym2612"
    },
    {
      "channel": 3,
      "note": 64,
      "start": 37.9186,
      "duration": 0.098,
      "velocity": 112,
      "chip": "ym2612"
    },
    {
      "channel": 2,
      "note": 83,
      "start": 37.9209,
      "duration": 0.1025,
      "velocity": 112,
      "chip": "ym2612"
    },
    {
      "channel": 5,
      "note": 69,
      "start": 37.9244,
      "duration": 0.0839,
      "velocity": 112,
      "chip": "ym2612"
    },
    {
      "channel": 4,
      "note": 71,
      "start": 37.9267,
      "duration": 0.1007,
      "velocity": 112,
      "chip": "ym2612"
    },
    {
      "channel": 5,
      "note": 69,
      "start": 38.0088,
      "duration": 0.0789,
      "velocity": 112,
      "chip": "ym2612"
    },
    {
      "channel": 3,
      "note": 64,
      "start": 38.0172,
      "duration": 0.0816,
      "velocity": 112,
      "chip": "ym2612"
    },
    {
      "channel": 2,
      "note": 83,
      "start": 38.0241,
      "duration": 0.0769,
      "velocity": 112,
      "chip": "ym2612"
    },
    {
      "channel": 4,
      "note": 71,
      "start": 38.028,
      "duration": 0.0684,
      "velocity": 112,
      "chip": "ym2612"
    },
    {
      "channel": 5,
      "note": 69,
      "start": 38.0884,
      "duration": 0.0968,
      "velocity": 112,
      "chip": "ym2612"
    },
    {
      "channel": 4,
      "note": 71,
      "start": 38.0971,
      "duration": 0.0806,
      "velocity": 112,
      "chip": "ym2612"
    },
    {
      "channel": 3,
      "note": 64,
      "start": 38.0994,
      "duration": 0.0885,
      "velocity": 112,
      "chip": "ym2612"
    },
    {
      "channel": 2,
      "note": 83,
      "start": 38.1017,
      "duration": 0.0801,
      "velocity": 112,
      "chip": "ym2612"
    },
    {
      "channel": 4,
      "note": 71,
      "start": 38.1783,
      "duration": 0.0997,
      "velocity": 112,
      "chip": "ym2612"
    },
    {
      "channel": 2,
      "note": 83,
      "start": 38.1824,
      "duration": 0.0898,
      "velocity": 112,
      "chip": "ym2612"
    },
    {
      "channel": 5,
      "note": 69,
      "start": 38.1859,
      "duration": 0.0898,
      "velocity": 112,
      "chip": "ym2612"
    },
    {
      "channel": 3,
      "note": 64,
      "start": 38.1886,
      "duration": 0.0726,
      "velocity": 112,
      "chip": "ym2612"
    },
    {
      "channel": 3,
      "note": 64,
      "start": 38.2618,
      "duration": 0.099,
      "velocity": 112,
      "chip": "ym2612"
    },
    {
      "channel": 1,
      "note": 69,
      "start": 38.2658,
      "duration": 0.0875,
      "velocity": 95,
      "chip": "ym2612"
    },
    {
      "channel": 2,
      "note": 83,
      "start": 38.2728,
      "duration": 0.0903,
      "velocity": 112,
      "chip": "ym2612"
    },
    {
      "channel": 5,
      "note": 69,
      "start": 38.2763,
      "duration": 0.08,
      "velocity": 112,
      "chip": "ym2612"
    },
    {
      "channel": 4,
      "note": 71,
      "start": 38.2786,
      "duration": 0.08,
      "velocity": 112,
      "chip": "ym2612"
    },
    {
      "channel": 1,
      "note": 69,
      "start": 38.3539,
      "duration": 0.089,
      "velocity": 95,
      "chip": "ym2612"
    },
    {
      "channel": 5,
      "note": 69,
      "start": 38.3569,
      "duration": 0.0891,
      "velocity": 112,
      "chip": "ym2612"
    },
    {
      "channel": 4,
      "note": 71,
      "start": 38.3592,
      "duration": 0.0775,
      "velocity": 112,
      "chip": "ym2612"
    },
    {
      "channel": 3,
      "note": 64,
      "start": 38.3615,
      "duration": 0.0873,
      "velocity": 112,
      "chip": "ym2612"
    },
    {
      "channel": 2,
      "note": 83,
      "start": 38.3638,
      "duration": 0.077,
      "velocity": 112,
      "chip": "ym2612"
    },
    {
      "channel": 4,
      "note": 71,
      "start": 38.4373,
      "duration": 0.0948,
      "velocity": 112,
      "chip": "ym2612"
    },
    {
      "channel": 2,
      "note": 83,
      "start": 38.4414,
      "duration": 0.0934,
      "velocity": 112,
      "chip": "ym2612"
    },
    {
      "channel": 1,
      "note": 57,
      "start": 38.4436,
      "duration": 0.0837,
      "velocity": 95,
      "chip": "ym2612"
    },
    {
      "channel": 5,
      "note": 69,
      "start": 38.4467,
      "duration": 0.0917,
      "velocity": 112,
      "chip": "ym2612"
    },
    {
      "channel": 3,
      "note": 64,
      "start": 38.4494,
      "duration": 0.0739,
      "velocity": 112,
      "chip": "ym2612"
    },
    {
      "channel": 3,
      "note": 64,
      "start": 38.5239,
      "duration": 0.0978,
      "velocity": 112,
      "chip": "ym2612"
    },
    {
      "channel": 1,
      "note": 69,
      "start": 38.528,
      "duration": 0.088,
      "velocity": 95,
      "chip": "ym2612"
    },
    {
      "channel": 4,
      "note": 71,
      "start": 38.5328,
      "duration": 0.0868,
      "velocity": 112,
      "chip": "ym2612"
    },
    {
      "channel": 2,
      "note": 83,
      "start": 38.5355,
      "duration": 0.0886,
      "velocity": 112,
      "chip": "ym2612"
    },
    {
      "channel": 5,
      "note": 69,
      "start": 38.539,
      "duration": 0.0695,
      "velocity": 112,
      "chip": "ym2612"
    },
    {
      "channel": 5,
      "note": 69,
      "start": 38.6091,
      "duration": 0.0985,
      "velocity": 112,
      "chip": "ym2612"
    },
    {
      "channel": 1,
      "note": 57,
      "start": 38.6167,
      "duration": 0.088,
      "velocity": 95,
      "chip": "ym2612"
    },
    {
      "channel": 4,
      "note": 71,
      "start": 38.6202,
      "duration": 0.0781,
      "velocity": 112,
      "chip": "ym2612"
    },
    {
      "channel": 3,
      "note": 64,
      "start": 38.6224,
      "duration": 0.088,
      "velocity": 112,
      "chip": "ym2612"
    },
    {
      "channel": 2,
      "note": 83,
      "start": 38.6247,
      "duration": 0.0776,
      "velocity": 112,
      "chip": "ym2612"
    },
    {
      "channel": 4,
      "note": 71,
      "start": 38.6989,
      "duration": 0.0948,
      "velocity": 112,
      "chip": "ym2612"
    },
    {
      "channel": 2,
      "note": 83,
      "start": 38.703,
      "duration": 0.0935,
      "velocity": 112,
      "chip": "ym2612"
    },
    {
      "channel": 1,
      "note": 69,
      "start": 38.7053,
      "duration": 1.2198,
      "velocity": 95,
      "chip": "ym2612"
    },
    {
      "channel": 5,
      "note": 69,
      "start": 38.7083,
      "duration": 0.0831,
      "velocity": 112,
      "chip": "ym2612"
    },
    {
      "channel": 3,
      "note": 64,
      "start": 38.7111,
      "duration": 0.0751,
      "velocity": 112,
      "chip": "ym2612"
    },
    {
      "channel": 3,
      "note": 64,
      "start": 38.7868,
      "duration": 0.1022,
      "velocity": 112,
      "chip": "ym2612"
    },
    {
      "channel": 5,
      "note": 69,
      "start": 38.792,
      "duration": 0.0924,
      "velocity": 112,
      "chip": "ym2612"
    },
    {
      "channel": 4,
      "note": 71,
      "start": 38.7943,
      "duration": 0.0924,
      "velocity": 112,
      "chip": "ym2612"
    },
    {
      "channel": 2,
      "note": 83,
      "start": 38.7971,
      "duration": 0.0839,
      "velocity": 112,
      "chip": "ym2612"
    },
    {
      "channel": 2,
      "note": 83,
      "start": 38.8816,
      "duration": 0.078,
      "velocity": 112,
      "chip": "ym2612"
    },
    {
      "channel": 5,
      "note": 69,
      "start": 38.8851,
      "duration": 0.0855,
      "velocity": 112,
      "chip": "ym2612"
    },
    {
      "channel": 4,
      "note": 71,
      "start": 38.8874,
      "duration": 0.0775,
      "velocity": 112,
      "chip": "ym2612"
    },
    {
      "channel": 3,
      "note": 64,
      "start": 38.8897,
      "duration": 0.0837,
      "velocity": 112,
      "chip": "ym2612"
    },
    {
      "channel": 2,
      "note": 83,
      "start": 38.9602,
      "duration": 0.0974,
      "velocity": 112,
      "chip": "ym2612"
    },
    {
      "channel": 4,
      "note": 71,
      "start": 38.9655,
      "duration": 0.0893,
      "velocity": 112,
      "chip": "ym2612"
    },
    {
      "channel": 5,
      "note": 69,
      "start": 38.9712,
      "duration": 0.1011,
      "velocity": 112,
      "chip": "ym2612"
    },
    {
      "channel": 3,
      "note": 64,
      "start": 38.974,
      "duration": 0.0739,
      "velocity": 112,
      "chip": "ym2612"
    },
    {
      "channel": 3,
      "note": 64,
      "start": 39.0485,
      "duration": 0.0975,
      "velocity": 112,
      "chip": "ym2612"
    },
    {
      "channel": 4,
      "note": 71,
      "start": 39.0555,
      "duration": 0.0882,
      "velocity": 112,
      "chip": "ym2612"
    },
    {
      "channel": 2,
      "note": 83,
      "start": 39.0583,
      "duration": 0.09,
      "velocity": 112,
      "chip": "ym2612"
    },
    {
      "channel": 5,
      "note": 69,
      "start": 39.073,
      "duration": 0.0684,
      "velocity": 112,
      "chip": "ym2612"
    },
    {
      "channel": 5,
      "note": 69,
      "start": 39.142,
      "duration": 0.078,
      "velocity": 112,
      "chip": "ym2612"
    },
    {
      "channel": 4,
      "note": 71,
      "start": 39.1443,
      "duration": 0.085,
      "velocity": 112,
      "chip": "ym2612"
    },
    {
      "channel": 3,
      "note": 64,
      "start": 39.1466,
      "duration": 0.0849,
      "velocity": 112,
      "chip": "ym2612"
    },
    {
      "channel": 2,
      "note": 83,
      "start": 39.1489,
      "duration": 0.0849,
      "velocity": 112,
      "chip": "ym2612"
    },
    {
      "channel": 5,
      "note": 69,
      "start": 39.2207,
      "duration": 0.1017,
      "velocity": 112,
      "chip": "ym2612"
    },
    {
      "channel": 4,
      "note": 71,
      "start": 39.23,
      "duration": 0.0844,
      "velocity": 112,
      "chip": "ym2612"
    },
    {
      "channel": 3,
      "note": 64,
      "start": 39.2322,
      "duration": 0.0844,
      "velocity": 112,
      "chip": "ym2612"
    },
    {
      "channel": 2,
      "note": 83,
      "start": 39.2345,
      "duration": 0.0844,
      "velocity": 112,
      "chip": "ym2612"
    },
    {
      "channel": 4,
      "note": 71,
      "start": 39.3149,
      "duration": 0.1055,
      "velocity": 112,
      "chip": "ym2612"
    },
    {
      "channel": 3,
      "note": 64,
      "start": 39.3172,
      "duration": 0.0857,
      "velocity": 112,
      "chip": "ym2612"
    },
    {
      "channel": 2,
      "note": 83,
      "start": 39.3195,
      "duration": 0.1038,
      "velocity": 112,
      "chip": "ym2612"
    },
    {
      "channel": 5,
      "note": 69,
      "start": 39.323,
      "duration": 0.0862,
      "velocity": 112,
      "chip": "ym2612"
    },
    {
      "channel": 3,
      "note": 64,
      "start": 39.4036,
      "duration": 0.0968,
      "velocity": 112,
      "chip": "ym2612"
    },
    {
      "channel": 0,
      "note": 45,
      "start": 39.4073,
      "duration": 2.1751,
      "velocity": 94,
      "chip": "ym2612"
    },
    {
      "channel": 5,
      "note": 69,
      "start": 39.4099,
      "duration": 0.0697,
      "velocity": 112,
      "chip": "ym2612"
    },
    {
      "channel": 4,
      "note": 71,
      "start": 39.4211,
      "duration": 0.0676,
      "velocity": 112,
      "chip": "ym2612"
    },
    {
      "channel": 2,
      "note": 83,
      "start": 39.4239,
      "duration": 0.0682,
      "velocity": 112,
      "chip": "ym2612"
    },
    {
      "channel": 5,
      "note": 69,
      "start": 39.4802,
      "duration": 0.1012,
      "velocity": 112,
      "chip": "ym2612"
    },
    {
      "channel": 4,
      "note": 71,
      "start": 39.4894,
      "duration": 0.0868,
      "velocity": 112,
      "chip": "ym2612"
    },
    {
      "channel": 2,
      "note": 83,
      "start": 39.4927,
      "duration": 0.0782,
      "velocity": 112,
      "chip": "ym2612"
    },
    {
      "channel": 3,
      "note": 64,
      "start": 39.501,
      "duration": 0.0831,
      "velocity": 112,
      "chip": "ym2612"
    },
    {
      "channel": 2,
      "note": 83,
      "start": 39.5715,
      "duration": 0.0945,
      "velocity": 112,
      "chip": "ym2612"
    },
    {
      "channel": 4,
      "note": 71,
      "start": 39.5768,
      "duration": 0.095,
      "velocity": 112,
      "chip": "ym2612"
    },
    {
      "channel": 5,
      "note": 69,
      "start": 39.582,
      "duration": 0.0875,
      "velocity": 112,
      "chip": "ym2612"
    },
    {
      "channel": 3,
      "note": 64,
      "start": 39.5847,
      "duration": 0.0894,
      "velocity": 112,
      "chip": "ym2612"
    },
    {
      "channel": 2,
      "note": 83,
      "start": 39.6667,
      "duration": 0.0873,
      "velocity": 112,
      "chip": "ym2612"
    },
    {
      "channel": 5,
      "note": 69,
      "start": 39.6702,
      "duration": 0.0793,
      "velocity": 112,
      "chip": "ym2612"
    },
    {
      "channel": 4,
      "note": 71,
      "start": 39.6724,
      "duration": 0.0854,
      "velocity": 112,
      "chip": "ym2612"
    },
    {
      "channel": 3,
      "note": 64,
      "start": 39.6747,
      "duration": 0.0695,
      "velocity": 112,
      "chip": "ym2612"
    },
    {
      "channel": 3,
      "note": 64,
      "start": 39.7449,
      "duration": 0.0961,
      "velocity": 112,
      "chip": "ym2612"
    },
    {
      "channel": 5,
      "note": 69,
      "start": 39.7501,
      "duration": 0.0947,
      "velocity": 112,
      "chip": "ym2612"
    },
    {
      "channel": 2,
      "note": 83,
      "start": 39.7546,
      "duration": 0.0805,
      "velocity": 112,
      "chip": "ym2612"
    },
    {
      "channel": 4,
      "note": 71,
      "start": 39.7585,
      "duration": 0.0726,
      "velocity": 112,
      "chip": "ym2612"
    },
    {
      "channel": 4,
      "note": 71,
      "start": 39.8317,
      "duration": 0.0986,
      "velocity": 112,
      "chip": "ym2612"
    },
    {
      "channel": 2,
      "note": 83,
      "start": 39.8357,
      "duration": 0.0992,
      "velocity": 112,
      "chip": "ym2612"
    },
    {
      "channel": 3,
      "note": 64,
      "start": 39.8415,
      "duration": 0.0912,
      "velocity": 112,
      "chip": "ym2612"
    },
    {
      "channel": 5,
      "note": 69,
      "start": 39.8454,
      "duration": 0.0827,
      "velocity": 112,
      "chip": "ym2612"
    },
    {
      "channel": 1,
      "note": 69,
      "start": 39.9257,
      "duration": 0.0828,
      "velocity": 95,
      "chip": "ym2612"
    },
    {
      "channel": 5,
      "note": 69,
      "start": 39.9288,
      "duration": 0.0828,
      "velocity": 112,
      "chip": "ym2612"
    },
    {
      "channel": 4,
      "note": 71,
      "start": 39.931,
      "duration": 0.0891,
      "velocity": 112,
      "chip": "ym2612"
    },
    {
      "channel": 3,
      "note": 64,
      "start": 39.9333,
      "duration": 0.0712,
      "velocity": 112,
      "chip": "ym2612"
    },
    {
      "channel": 2,
      "note": 83,
      "start": 39.9356,
      "duration": 0.0805,
      "velocity": 112,
      "chip": "ym2612"
    },
    {
      "channel": 3,
      "note": 64,
      "start": 40.0051,
      "duration": 0.1015,
      "velocity": 112,
      "chip": "ym2612"
    },
    {
      "channel": 1,
      "note": 69,
      "start": 40.0092,
      "duration": 0.0841,
      "velocity": 95,
      "chip": "ym2612"
    },
    {
      "channel": 5,
      "note": 69,
      "start": 40.0122,
      "duration": 0.0916,
      "velocity": 112,
      "chip": "ym2612"
    },
    {
      "channel": 2,
      "note": 83,
      "start": 40.0167,
      "duration": 0.0744,
      "velocity": 112,
      "chip": "ym2612"
    },
    {
      "channel": 4,
      "note": 71,
      "start": 40.0207,
      "duration": 0.0774,
      "velocity": 112,
      "chip": "ym2612"
    },
    {
      "channel": 2,
      "note": 83,
      "start": 40.0917,
      "duration": 0.104,
      "velocity": 112,
      "chip": "ym2612"
    },
    {
      "channel": 1,
      "note": 57,
      "start": 40.0939,
      "duration": 0.0837,
      "velocity": 95,
      "chip": "ym2612"
    },
    {
      "channel": 4,
      "note": 71,
      "start": 40.0987,
      "duration": 0.0924,
      "velocity": 112,
      "chip": "ym2612"
    },
    {
      "channel": 5,
      "note": 69,
      "start": 40.1044,
      "duration": 0.0845,
      "velocity": 112,
      "chip": "ym2612"
    },
    {
      "channel": 3,
      "note": 64,
      "start": 40.1073,
      "duration": 0.0863,
      "velocity": 112,
      "chip": "ym2612"
    },
    {
      "channel": 1,
      "note": 69,
      "start": 40.1782,
      "duration": 0.0938,
      "velocity": 95,
      "chip": "ym2612"
    },
    {
      "channel": 5,
      "note": 69,
      "start": 40.1896,
      "duration": 0.0855,
      "velocity": 112,
      "chip": "ym2612"
    },
    {
      "channel": 4,
      "note": 71,
      "start": 40.1918,
      "duration": 0.0855,
      "velocity": 112,
      "chip": "ym2612"
    },
    {
      "channel": 3,
      "note": 64,
      "start": 40.1941,
      "duration": 0.0738,
      "velocity": 112,
      "chip": "ym2612"
    },
    {
      "channel": 2,
      "note": 83,
      "start": 40.1964,
      "duration": 0.0837,
      "velocity": 112,
      "chip": "ym2612"
    },
    {
      "channel": 3,
      "note": 64,
      "start": 40.2686,
      "duration": 0.0973,
      "velocity": 112,
      "chip": "ym2612"
    },
    {
      "channel": 1,
      "note": 57,
      "start": 40.2727,
      "duration": 0.0959,
      "velocity": 95,
      "chip": "ym2612"
    },
    {
      "channel": 5,
      "note": 69,
      "start": 40.2757,
      "duration": 0.0959,
      "velocity": 112,
      "chip": "ym2612"
    },
    {
      "channel": 4,
      "note": 71,
      "start": 40.2779,
      "duration": 0.0856,
      "velocity": 112,
      "chip": "ym2612"
    },
    {
      "channel": 2,
      "note": 83,
      "start": 40.2807,
      "duration": 0.0769,
      "velocity": 112,
      "chip": "ym2612"
    },
    {
      "channel": 2,
      "note": 83,
      "start": 40.3583,
      "duration": 0.095,
      "velocity": 112,
      "chip": "ym2612"
    },
    {
      "channel": 4,
      "note": 71,
      "start": 40.3642,
      "duration": 0.0936,
      "velocity": 112,
      "chip": "ym2612"
    },
    {
      "channel": 3,
      "note": 64,
      "start": 40.3665,
      "duration": 0.0844,
      "velocity": 112,
      "chip": "ym2612"
    },
    {
      "channel": 1,
      "note": 69,
      "start": 40.3692,
      "duration": 1.2101,
      "velocity": 95,
      "chip": "ym2612"
    },
    {
      "channel": 5,
      "note": 69,
      "start": 40.3723,
      "duration": 0.0975,
      "velocity": 112,
      "chip": "ym2612"
    },
    {
      "channel": 3,
      "note": 64,
      "start": 40.4515,
      "duration": 0.0826,
      "velocity": 112,
      "chip": "ym2612"
    },
    {
      "channel": 2,
      "note": 83,
      "start": 40.4539,
      "duration": 0.0906,
      "velocity": 112,
      "chip": "ym2612"
    },
    {
      "channel": 4,
      "note": 71,
      "start": 40.4584,
      "duration": 0.0833,
      "velocity": 112,
      "chip": "ym2612"
    },
    {
      "channel": 5,
      "note": 69,
      "start": 40.4704,
      "duration": 0.069,
      "velocity": 112,
      "chip": "ym2612"
    },
    {
      "channel": 3,
      "note": 64,
      "start": 40.5348,
      "duration": 0.0929,
      "velocity": 112,
      "chip": "ym2612"
    },
    {
      "channel": 5,
      "note": 69,
      "start": 40.54,
      "duration": 0.0762,
      "velocity": 112,
      "chip": "ym2612"
    },
    {
      "channel": 4,
      "note": 71,
      "start": 40.5423,
      "duration": 0.0832,
      "velocity": 112,
      "chip": "ym2612"
    },
    {
      "channel": 2,
      "note": 83,
      "start": 40.5451,
      "duration": 0.0849,
      "velocity": 112,
      "chip": "ym2612"
    },
    {
      "channel": 5,
      "note": 69,
      "start": 40.6168,
      "duration": 0.0999,
      "velocity": 112,
      "chip": "ym2612"
    },
    {
      "channel": 4,
      "note": 71,
      "start": 40.6261,
      "duration": 0.0929,
      "velocity": 112,
      "chip": "ym2612"
    },
    {
      "channel": 3,
      "note": 64,
      "start": 40.6284,
      "duration": 0.0826,
      "velocity": 112,
      "chip": "ym2612"
    },
    {
      "channel": 2,
      "note": 83,
      "start": 40.6307,
      "duration": 0.0826,
      "velocity": 112,
      "chip": "ym2612"
    },
    {
      "channel": 3,
      "note": 64,
      "start": 40.7116,
      "duration": 0.0868,
      "velocity": 112,
      "chip": "ym2612"
    },
    {
      "channel": 2,
      "note": 83,
      "start": 40.7139,
      "duration": 0.1032,
      "velocity": 112,
      "chip": "ym2612"
    },
    {
      "channel": 5,
      "note": 69,
      "start": 40.7174,
      "duration": 0.0857,
      "velocity": 112,
      "chip": "ym2612"
    },
    {
      "channel": 4,
      "note": 71,
      "start": 40.7197,
      "duration": 0.0947,
      "velocity": 112,
      "chip": "ym2612"
    },
    {
      "channel": 3,
      "note": 64,
      "start": 40.7991,
      "duration": 0.0889,
      "velocity": 112,
      "chip": "ym2612"
    },
    {
      "channel": 5,
      "note": 69,
      "start": 40.8037,
      "duration": 0.0728,
      "velocity": 112,
      "chip": "ym2612"
    },
    {
      "channel": 4,
      "note": 71,
      "start": 40.815,
      "duration": 0.0707,
      "velocity": 112,
      "chip": "ym2612"
    },
    {
      "channel": 2,
      "note": 83,
      "start": 40.8178,
      "duration": 0.0726,
      "velocity": 112,
      "chip": "ym2612"
    },
    {
      "channel": 5,
      "note": 69,
      "start": 40.8771,
      "duration": 0.098,
      "velocity": 112,
      "chip": "ym2612"
    },
    {
      "channel": 4,
      "note": 71,
      "start": 40.8864,
      "duration": 0.0762,
      "velocity": 112,
      "chip": "ym2612"
    },
    {
      "channel": 3,
      "note": 64,
      "start": 40.8887,
      "duration": 0.0929,
      "velocity": 112,
      "chip": "ym2612"
    },
    {
      "channel": 2,
      "note": 83,
      "start": 40.891,
      "duration": 0.0756,
      "velocity": 112,
      "chip": "ym2612"
    },
    {
      "channel": 4,
      "note": 71,
      "start": 40.9632,
      "duration": 0.0976,
      "velocity": 112,
      "chip": "ym2612"
    },
    {
      "channel": 2,
      "note": 83,
      "start": 40.9672,
      "duration": 0.0982,
      "velocity": 112,
      "chip": "ym2612"
    },
    {
      "channel": 5,
      "note": 69,
      "start": 40.9757,
      "duration": 0.0828,
      "velocity": 112,
      "chip": "ym2612"
    },
    {
      "channel": 3,
      "note": 64,
      "start": 40.9822,
      "duration": 0.0809,
      "velocity": 112,
      "chip": "ym2612"
    },
    {
      "channel": 5,
      "note": 69,
      "start": 41.0591,
      "duration": 0.0881,
      "velocity": 112,
      "chip": "ym2612"
    },
    {
      "channel": 4,
      "note": 71,
      "start": 41.0615,
      "duration": 0.088,
      "velocity": 112,
      "chip": "ym2612"
    },
    {
      "channel": 3,
      "note": 64,
      "start": 41.0637,
      "duration": 0.0881,
      "velocity": 112,
      "chip": "ym2612"
    },
    {
      "channel": 2,
      "note": 83,
      "start": 41.066,
      "duration": 0.088,
      "velocity": 112,
      "chip": "ym2612"
    },
    {
      "channel": 5,
      "note": 69,
      "start": 41.1478,
      "duration": 0.0909,
      "velocity": 112,
      "chip": "ym2612"
    },
    {
      "channel": 4,
      "note": 71,
      "start": 41.1501,
      "duration": 0.0805,
      "velocity": 112,
      "chip": "ym2612"
    },
    {
      "channel": 3,
      "note": 64,
      "start": 41.1524,
      "duration": 0.0806,
      "velocity": 112,
      "chip": "ym2612"
    },
    {
      "channel": 2,
      "note": 83,
      "start": 41.1547,
      "duration": 0.0805,
      "velocity": 112,
      "chip": "ym2612"
    },
    {
      "channel": 4,
      "note": 71,
      "start": 41.2313,
      "duration": 0.0943,
      "velocity": 112,
      "chip": "ym2612"
    },
    {
      "channel": 3,
      "note": 64,
      "start": 41.2337,
      "duration": 0.0942,
      "velocity": 112,
      "chip": "ym2612"
    },
    {
      "channel": 2,
      "note": 83,
      "start": 41.2359,
      "duration": 0.0943,
      "velocity": 112,
      "chip": "ym2612"
    },
    {
      "channel": 5,
      "note": 69,
      "start": 41.2394,
      "duration": 0.0839,
      "velocity": 112,
      "chip": "ym2612"
    },
    {
      "channel": 5,
      "note": 69,
      "start": 41.3239,
      "duration": 0.078,
      "velocity": 112,
      "chip": "ym2612"
    },
    {
      "channel": 4,
      "note": 71,
      "start": 41.3262,
      "duration": 0.085,
      "velocity": 112,
      "chip": "ym2612"
    },
    {
      "channel": 3,
      "note": 64,
      "start": 41.3285,
      "duration": 0.0849,
      "velocity": 112,
      "chip": "ym2612"
    },
    {
      "channel": 2,
      "note": 83,
      "start": 41.3308,
      "duration": 0.0849,
      "velocity": 112,
      "chip": "ym2612"
    },
    {
      "channel": 5,
      "note": 69,
      "start": 41.4025,
      "duration": 0.0947,
      "velocity": 112,
      "chip": "ym2612"
    },
    {
      "channel": 4,
      "note": 71,
      "start": 41.4118,
      "duration": 0.0773,
      "velocity": 112,
      "chip": "ym2612"
    },
    {
      "channel": 3,
      "note": 64,
      "start": 41.4141,
      "duration": 0.0774,
      "velocity": 112,
      "chip": "ym2612"
    },
    {
      "channel": 2,
      "note": 83,
      "start": 41.4163,
      "duration": 0.0774,
      "velocity": 112,
      "chip": "ym2612"
    },
    {
      "channel": 4,
      "note": 71,
      "start": 41.4898,
      "duration": 0.0926,
      "velocity": 112,
      "chip": "ym2612"
    },
    {
      "channel": 3,
      "note": 64,
      "start": 41.4921,
      "duration": 0.0903,
      "velocity": 112,
      "chip": "ym2612"
    },
    {
      "channel": 2,
      "note": 83,
      "start": 41.4944,
      "duration": 0.088,
      "velocity": 112,
      "chip": "ym2612"
    },
    {
      "channel": 5,
      "note": 69,
      "start": 41.4979,
      "duration": 0.0846,
      "velocity": 112,
      "chip": "ym2612"
    },
    {
      "channel": 1,
      "note": 69,
      "start": 41.58,
      "duration": 0.0025,
      "velocity": 95,
      "chip": "ym2612"
    }
  ]
}