{
  "track_name": "05 - Death",
  "duration_sec": 40.288,
  "sample_rate": 44100,
  "note_count": 369,
  "unique_pitches": 29,
  "pitch_range": 46,
  "avg_note_duration": 0.3712,
  "reconstruction_stats": {
    "notes_reconstructed": 369,
    "keyon_events": 369,
    "keyoff_events": 368,
    "orphan_keyons": 1,
    "unique_pitches": 29,
    "pitch_range": 46,
    "avg_duration_sec": 0.3712
  },
  "metadata": {
    "source": "R\\Rings of Power\\05 - Death.vgz"
  },
  "notes": [
    {
      "channel": 0,
      "note": 69,
      "start": 0.0,
      "duration": 0.4876,
      "velocity": 111,
      "chip": "ym2612"
    },
    {
      "channel": 1,
      "note": 71,
      "start": 0.4401,
      "duration": 0.5141,
      "velocity": 111,
      "chip": "ym2612"
    },
    {
      "channel": 2,
      "note": 69,
      "start": 0.8901,
      "duration": 0.5142,
      "velocity": 111,
      "chip": "ym2612"
    },
    {
      "channel": 3,
      "note": 67,
      "start": 1.3403,
      "duration": 0.4807,
      "velocity": 111,
      "chip": "ym2612"
    },
    {
      "channel": 4,
      "note": 69,
      "start": 1.7736,
      "duration": 8.864,
      "velocity": 111,
      "chip": "ym2612"
    },
    {
      "channel": 0,
      "note": 65,
      "start": 2.7235,
      "duration": 2.7655,
      "velocity": 111,
      "chip": "ym2612"
    },
    {
      "channel": 1,
      "note": 60,
      "start": 3.6068,
      "duration": 1.0808,
      "velocity": 111,
      "chip": "ym2612"
    },
    {
      "channel": 2,
      "note": 59,
      "start": 4.5568,
      "duration": 0.8475,
      "velocity": 111,
      "chip": "ym2612"
    },
    {
      "channel": 3,
      "note": 60,
      "start": 5.4922,
      "duration": 5.1627,
      "velocity": 111,
      "chip": "ym2612"
    },
    {
      "channel": 1,
      "note": 57,
      "start": 5.4952,
      "duration": 5.1605,
      "velocity": 111,
      "chip": "ym2612"
    },
    {
      "channel": 2,
      "note": 57,
      "start": 5.4983,
      "duration": 0.1227,
      "velocity": 78,
      "chip": "ym2612"
    },
    {
      "channel": 0,
      "note": 69,
      "start": 5.5014,
      "duration": 0.3696,
      "velocity": 97,
      "chip": "ym2612"
    },
    {
      "channel": 2,
      "note": 60,
      "start": 5.6402,
      "duration": 0.1307,
      "velocity": 78,
      "chip": "ym2612"
    },
    {
      "channel": 2,
      "note": 64,
      "start": 5.7903,
      "duration": 0.1487,
      "velocity": 78,
      "chip": "ym2612"
    },
    {
      "channel": 0,
      "note": 69,
      "start": 5.9569,
      "duration": 0.1141,
      "velocity": 78,
      "chip": "ym2612"
    },
    {
      "channel": 2,
      "note": 69,
      "start": 5.9599,
      "duration": 0.3611,
      "velocity": 97,
      "chip": "ym2612"
    },
    {
      "channel": 0,
      "note": 64,
      "start": 6.0903,
      "duration": 0.1307,
      "velocity": 78,
      "chip": "ym2612"
    },
    {
      "channel": 0,
      "note": 60,
      "start": 6.2403,
      "duration": 0.1487,
      "velocity": 78,
      "chip": "ym2612"
    },
    {
      "channel": 2,
      "note": 57,
      "start": 6.4069,
      "duration": 0.3975,
      "velocity": 97,
      "chip": "ym2612"
    },
    {
      "channel": 0,
      "note": 57,
      "start": 6.41,
      "duration": 0.1276,
      "velocity": 78,
      "chip": "ym2612"
    },
    {
      "channel": 0,
      "note": 60,
      "start": 6.5569,
      "duration": 0.1307,
      "velocity": 78,
      "chip": "ym2612"
    },
    {
      "channel": 0,
      "note": 64,
      "start": 6.7069,
      "duration": 0.1321,
      "velocity": 78,
      "chip": "ym2612"
    },
    {
      "channel": 2,
      "note": 57,
      "start": 6.8568,
      "duration": 0.3975,
      "velocity": 97,
      "chip": "ym2612"
    },
    {
      "channel": 0,
      "note": 69,
      "start": 6.8736,
      "duration": 0.114,
      "velocity": 78,
      "chip": "ym2612"
    },
    {
      "channel": 0,
      "note": 64,
      "start": 7.0069,
      "duration": 0.1307,
      "velocity": 78,
      "chip": "ym2612"
    },
    {
      "channel": 0,
      "note": 60,
      "start": 7.1569,
      "duration": 0.1475,
      "velocity": 78,
      "chip": "ym2612"
    },
    {
      "channel": 2,
      "note": 57,
      "start": 7.3236,
      "duration": 0.1307,
      "velocity": 78,
      "chip": "ym2612"
    },
    {
      "channel": 0,
      "note": 69,
      "start": 7.3266,
      "duration": 0.3777,
      "velocity": 97,
      "chip": "ym2612"
    },
    {
      "channel": 2,
      "note": 60,
      "start": 7.4735,
      "duration": 0.1307,
      "velocity": 78,
      "chip": "ym2612"
    },
    {
      "channel": 2,
      "note": 64,
      "start": 7.6236,
      "duration": 0.1307,
      "velocity": 78,
      "chip": "ym2612"
    },
    {
      "channel": 0,
      "note": 69,
      "start": 7.7903,
      "duration": 0.1141,
      "velocity": 78,
      "chip": "ym2612"
    },
    {
      "channel": 2,
      "note": 69,
      "start": 7.7933,
      "duration": 0.361,
      "velocity": 97,
      "chip": "ym2612"
    },
    {
      "channel": 0,
      "note": 64,
      "start": 7.9235,
      "duration": 0.1307,
      "velocity": 78,
      "chip": "ym2612"
    },
    {
      "channel": 0,
      "note": 60,
      "start": 8.0735,
      "duration": 0.1474,
      "velocity": 78,
      "chip": "ym2612"
    },
    {
      "channel": 2,
      "note": 57,
      "start": 8.2402,
      "duration": 0.4141,
      "velocity": 97,
      "chip": "ym2612"
    },
    {
      "channel": 0,
      "note": 57,
      "start": 8.2433,
      "duration": 0.1276,
      "velocity": 78,
      "chip": "ym2612"
    },
    {
      "channel": 0,
      "note": 60,
      "start": 8.3902,
      "duration": 0.1307,
      "velocity": 78,
      "chip": "ym2612"
    },
    {
      "channel": 0,
      "note": 64,
      "start": 8.5403,
      "duration": 0.1307,
      "velocity": 78,
      "chip": "ym2612"
    },
    {
      "channel": 2,
      "note": 57,
      "start": 8.6902,
      "duration": 0.4141,
      "velocity": 97,
      "chip": "ym2612"
    },
    {
      "channel": 0,
      "note": 69,
      "start": 8.6933,
      "duration": 0.1276,
      "velocity": 78,
      "chip": "ym2612"
    },
    {
      "channel": 0,
      "note": 64,
      "start": 8.8402,
      "duration": 0.1307,
      "velocity": 78,
      "chip": "ym2612"
    },
    {
      "channel": 0,
      "note": 60,
      "start": 8.9903,
      "duration": 0.1473,
      "velocity": 78,
      "chip": "ym2612"
    },
    {
      "channel": 2,
      "note": 57,
      "start": 9.1569,
      "duration": 0.1307,
      "velocity": 78,
      "chip": "ym2612"
    },
    {
      "channel": 0,
      "note": 69,
      "start": 9.16,
      "duration": 0.379,
      "velocity": 97,
      "chip": "ym2612"
    },
    {
      "channel": 2,
      "note": 60,
      "start": 9.3069,
      "duration": 0.114,
      "velocity": 78,
      "chip": "ym2612"
    },
    {
      "channel": 2,
      "note": 64,
      "start": 9.4569,
      "duration": 0.1308,
      "velocity": 78,
      "chip": "ym2612"
    },
    {
      "channel": 0,
      "note": 69,
      "start": 9.6069,
      "duration": 0.1307,
      "velocity": 78,
      "chip": "ym2612"
    },
    {
      "channel": 2,
      "note": 69,
      "start": 9.61,
      "duration": 0.3944,
      "velocity": 97,
      "chip": "ym2612"
    },
    {
      "channel": 0,
      "note": 64,
      "start": 9.7569,
      "duration": 0.1307,
      "velocity": 78,
      "chip": "ym2612"
    },
    {
      "channel": 0,
      "note": 60,
      "start": 9.9069,
      "duration": 0.1474,
      "velocity": 78,
      "chip": "ym2612"
    },
    {
      "channel": 2,
      "note": 57,
      "start": 10.0576,
      "duration": 0.43,
      "velocity": 97,
      "chip": "ym2612"
    },
    {
      "channel": 0,
      "note": 57,
      "start": 10.0736,
      "duration": 0.1307,
      "velocity": 78,
      "chip": "ym2612"
    },
    {
      "channel": 0,
      "note": 60,
      "start": 10.2235,
      "duration": 0.1141,
      "velocity": 78,
      "chip": "ym2612"
    },
    {
      "channel": 0,
      "note": 64,
      "start": 10.3736,
      "duration": 0.1307,
      "velocity": 78,
      "chip": "ym2612"
    },
    {
      "channel": 2,
      "note": 57,
      "start": 10.5235,
      "duration": 0.4141,
      "velocity": 97,
      "chip": "ym2612"
    },
    {
      "channel": 0,
      "note": 69,
      "start": 10.5266,
      "duration": 0.1277,
      "velocity": 78,
      "chip": "ym2612"
    },
    {
      "channel": 4,
      "note": 64,
      "start": 10.6737,
      "duration": 0.1306,
      "velocity": 78,
      "chip": "ym2612"
    },
    {
      "channel": 0,
      "note": 60,
      "start": 10.8235,
      "duration": 0.1474,
      "velocity": 78,
      "chip": "ym2612"
    },
    {
      "channel": 3,
      "note": 45,
      "start": 10.9903,
      "duration": 0.4141,
      "velocity": 101,
      "chip": "ym2612"
    },
    {
      "channel": 1,
      "note": 57,
      "start": 10.9934,
      "duration": 0.1276,
      "velocity": 78,
      "chip": "ym2612"
    },
    {
      "channel": 4,
      "note": 60,
      "start": 11.1403,
      "duration": 0.114,
      "velocity": 78,
      "chip": "ym2612"
    },
    {
      "channel": 2,
      "note": 64,
      "start": 11.2736,
      "duration": 0.1474,
      "velocity": 78,
      "chip": "ym2612"
    },
    {
      "channel": 0,
      "note": 69,
      "start": 11.4403,
      "duration": 0.1307,
      "velocity": 78,
      "chip": "ym2612"
    },
    {
      "channel": 1,
      "note": 64,
      "start": 11.5903,
      "duration": 0.1307,
      "velocity": 78,
      "chip": "ym2612"
    },
    {
      "channel": 4,
      "note": 60,
      "start": 11.7404,
      "duration": 0.1473,
      "velocity": 78,
      "chip": "ym2612"
    },
    {
      "channel": 3,
      "note": 45,
      "start": 11.9069,
      "duration": 0.3974,
      "velocity": 101,
      "chip": "ym2612"
    },
    {
      "channel": 2,
      "note": 57,
      "start": 11.91,
      "duration": 0.111,
      "velocity": 78,
      "chip": "ym2612"
    },
    {
      "channel": 0,
      "note": 60,
      "start": 12.0569,
      "duration": 0.114,
      "velocity": 78,
      "chip": "ym2612"
    },
    {
      "channel": 1,
      "note": 64,
      "start": 12.1903,
      "duration": 0.1473,
      "velocity": 78,
      "chip": "ym2612"
    },
    {
      "channel": 4,
      "note": 69,
      "start": 12.3571,
      "duration": 0.1305,
      "velocity": 78,
      "chip": "ym2612"
    },
    {
      "channel": 2,
      "note": 64,
      "start": 12.5069,
      "duration": 0.1307,
      "velocity": 78,
      "chip": "ym2612"
    },
    {
      "channel": 0,
      "note": 60,
      "start": 12.6569,
      "duration": 0.1474,
      "velocity": 78,
      "chip": "ym2612"
    },
    {
      "channel": 3,
      "note": 45,
      "start": 12.8236,
      "duration": 0.3807,
      "velocity": 101,
      "chip": "ym2612"
    },
    {
      "channel": 1,
      "note": 57,
      "start": 12.8267,
      "duration": 0.111,
      "velocity": 78,
      "chip": "ym2612"
    },
    {
      "channel": 4,
      "note": 60,
      "start": 12.9737,
      "duration": 0.1139,
      "velocity": 78,
      "chip": "ym2612"
    },
    {
      "channel": 2,
      "note": 64,
      "start": 13.1069,
      "duration": 0.1474,
      "velocity": 78,
      "chip": "ym2612"
    },
    {
      "channel": 0,
      "note": 47,
      "start": 13.2735,
      "duration": 0.0815,
      "velocity": 101,
      "chip": "ym2612"
    },
    {
      "channel": 1,
      "note": 78,
      "start": 13.2765,
      "duration": 0.0778,
      "velocity": 127,
      "chip": "ym2612"
    },
    {
      "channel": 4,
      "note": 69,
      "start": 13.2798,
      "duration": 0.1246,
      "velocity": 78,
      "chip": "ym2612"
    },
    {
      "channel": 3,
      "note": 47,
      "start": 13.4236,
      "duration": 0.0649,
      "velocity": 101,
      "chip": "ym2612"
    },
    {
      "channel": 2,
      "note": 78,
      "start": 13.4266,
      "duration": 0.0611,
      "velocity": 127,
      "chip": "ym2612"
    },
    {
      "channel": 1,
      "note": 64,
      "start": 13.4297,
      "duration": 0.1246,
      "velocity": 78,
      "chip": "ym2612"
    },
    {
      "channel": 0,
      "note": 47,
      "start": 13.5576,
      "duration": 0.0975,
      "velocity": 101,
      "chip": "ym2612"
    },
    {
      "channel": 4,
      "note": 78,
      "start": 13.5607,
      "duration": 0.0937,
      "velocity": 127,
      "chip": "ym2612"
    },
    {
      "channel": 2,
      "note": 60,
      "start": 13.5917,
      "duration": 0.1293,
      "velocity": 78,
      "chip": "ym2612"
    },
    {
      "channel": 3,
      "note": 72,
      "start": 13.7403,
      "duration": 0.013,
      "velocity": 116,
      "chip": "ym2612"
    },
    {
      "channel": 1,
      "note": 81,
      "start": 13.7433,
      "duration": 0.411,
      "velocity": 116,
      "chip": "ym2612"
    },
    {
      "channel": 4,
      "note": 76,
      "start": 13.7465,
      "duration": 0.4245,
      "velocity": 116,
      "chip": "ym2612"
    },
    {
      "channel": 0,
      "note": 47,
      "start": 13.7495,
      "duration": 0.1215,
      "velocity": 101,
      "chip": "ym2612"
    },
    {
      "channel": 2,
      "note": 57,
      "start": 13.7526,
      "duration": 0.1017,
      "velocity": 78,
      "chip": "ym2612"
    },
    {
      "channel": 3,
      "note": 78,
      "start": 13.7563,
      "duration": 0.048,
      "velocity": 127,
      "chip": "ym2612"
    },
    {
      "channel": 3,
      "note": 60,
      "start": 13.8744,
      "duration": 0.1298,
      "velocity": 78,
      "chip": "ym2612"
    },
    {
      "channel": 2,
      "note": 64,
      "start": 14.0416,
      "duration": 0.1301,
      "velocity": 78,
      "chip": "ym2612"
    },
    {
      "channel": 0,
      "note": 69,
      "start": 14.1903,
      "duration": 0.1307,
      "velocity": 78,
      "chip": "ym2612"
    },
    {
      "channel": 3,
      "note": 71,
      "start": 14.3244,
      "duration": 0.0135,
      "velocity": 116,
      "chip": "ym2612"
    },
    {
      "channel": 1,
      "note": 79,
      "start": 14.3274,
      "duration": 0.2602,
      "velocity": 116,
      "chip": "ym2612"
    },
    {
      "channel": 4,
      "note": 74,
      "start": 14.3306,
      "duration": 0.2071,
      "velocity": 116,
      "chip": "ym2612"
    },
    {
      "channel": 2,
      "note": 48,
      "start": 14.3336,
      "duration": 0.3207,
      "velocity": 101,
      "chip": "ym2612"
    },
    {
      "channel": 0,
      "note": 78,
      "start": 14.3366,
      "duration": 0.0678,
      "velocity": 127,
      "chip": "ym2612"
    },
    {
      "channel": 3,
      "note": 64,
      "start": 14.341,
      "duration": 0.148,
      "velocity": 78,
      "chip": "ym2612"
    },
    {
      "channel": 0,
      "note": 60,
      "start": 14.5069,
      "duration": 0.114,
      "velocity": 78,
      "chip": "ym2612"
    },
    {
      "channel": 3,
      "note": 72,
      "start": 14.6577,
      "duration": 2.2832,
      "velocity": 116,
      "chip": "ym2612"
    },
    {
      "channel": 4,
      "note": 76,
      "start": 14.6609,
      "duration": 2.5997,
      "velocity": 116,
      "chip": "ym2612"
    },
    {
      "channel": 1,
      "note": 81,
      "start": 14.6639,
      "duration": 2.5574,
      "velocity": 116,
      "chip": "ym2612"
    },
    {
      "channel": 0,
      "note": 45,
      "start": 14.6669,
      "duration": 0.3873,
      "velocity": 101,
      "chip": "ym2612"
    },
    {
      "channel": 2,
      "note": 57,
      "start": 14.67,
      "duration": 0.1009,
      "velocity": 78,
      "chip": "ym2612"
    },
    {
      "channel": 2,
      "note": 60,
      "start": 14.7903,
      "duration": 0.1487,
      "velocity": 78,
      "chip": "ym2612"
    },
    {
      "channel": 2,
      "note": 64,
      "start": 14.9569,
      "duration": 0.1307,
      "velocity": 78,
      "chip": "ym2612"
    },
    {
      "channel": 0,
      "note": 69,
      "start": 15.1069,
      "duration": 0.1307,
      "velocity": 78,
      "chip": "ym2612"
    },
    {
      "channel": 2,
      "note": 64,
      "start": 15.2569,
      "duration": 0.1473,
      "velocity": 78,
      "chip": "ym2612"
    },
    {
      "channel": 0,
      "note": 60,
      "start": 15.4236,
      "duration": 0.114,
      "velocity": 78,
      "chip": "ym2612"
    },
    {
      "channel": 2,
      "note": 45,
      "start": 15.5735,
      "duration": 0.3975,
      "velocity": 101,
      "chip": "ym2612"
    },
    {
      "channel": 0,
      "note": 57,
      "start": 15.5765,
      "duration": 0.1111,
      "velocity": 78,
      "chip": "ym2612"
    },
    {
      "channel": 0,
      "note": 60,
      "start": 15.7069,
      "duration": 0.1474,
      "velocity": 78,
      "chip": "ym2612"
    },
    {
      "channel": 0,
      "note": 64,
      "start": 15.8736,
      "duration": 0.1307,
      "velocity": 78,
      "chip": "ym2612"
    },
    {
      "channel": 2,
      "note": 69,
      "start": 16.0236,
      "duration": 0.1307,
      "velocity": 78,
      "chip": "ym2612"
    },
    {
      "channel": 0,
      "note": 64,
      "start": 16.1737,
      "duration": 0.1473,
      "velocity": 78,
      "chip": "ym2612"
    },
    {
      "channel": 2,
      "note": 60,
      "start": 16.3402,
      "duration": 0.1141,
      "velocity": 78,
      "chip": "ym2612"
    },
    {
      "channel": 0,
      "note": 45,
      "start": 16.4735,
      "duration": 0.2809,
      "velocity": 101,
      "chip": "ym2612"
    },
    {
      "channel": 2,
      "note": 57,
      "start": 16.4766,
      "duration": 0.1277,
      "velocity": 78,
      "chip": "ym2612"
    },
    {
      "channel": 2,
      "note": 60,
      "start": 16.6236,
      "duration": 0.1473,
      "velocity": 78,
      "chip": "ym2612"
    },
    {
      "channel": 0,
      "note": 64,
      "start": 16.7903,
      "duration": 0.1307,
      "velocity": 78,
      "chip": "ym2612"
    },
    {
      "channel": 2,
      "note": 47,
      "start": 16.9242,
      "duration": 0.0968,
      "velocity": 101,
      "chip": "ym2612"
    },
    {
      "channel": 0,
      "note": 69,
      "start": 16.9403,
      "duration": 0.1307,
      "velocity": 78,
      "chip": "ym2612"
    },
    {
      "channel": 3,
      "note": 78,
      "start": 16.944,
      "duration": 0.0604,
      "velocity": 127,
      "chip": "ym2612"
    },
    {
      "channel": 3,
      "note": 47,
      "start": 17.0743,
      "duration": 0.0808,
      "velocity": 101,
      "chip": "ym2612"
    },
    {
      "channel": 2,
      "note": 64,
      "start": 17.0902,
      "duration": 0.1319,
      "velocity": 78,
      "chip": "ym2612"
    },
    {
      "channel": 0,
      "note": 78,
      "start": 17.0932,
      "duration": 0.0611,
      "velocity": 127,
      "chip": "ym2612"
    },
    {
      "channel": 0,
      "note": 47,
      "start": 17.2401,
      "duration": 0.0816,
      "velocity": 101,
      "chip": "ym2612"
    },
    {
      "channel": 3,
      "note": 60,
      "start": 17.257,
      "duration": 0.1139,
      "velocity": 78,
      "chip": "ym2612"
    },
    {
      "channel": 1,
      "note": 78,
      "start": 17.26,
      "duration": 0.061,
      "velocity": 127,
      "chip": "ym2612"
    },
    {
      "channel": 2,
      "note": 47,
      "start": 17.3902,
      "duration": 0.1474,
      "velocity": 101,
      "chip": "ym2612"
    },
    {
      "channel": 4,
      "note": 57,
      "start": 17.3934,
      "duration": 0.1276,
      "velocity": 78,
      "chip": "ym2612"
    },
    {
      "channel": 1,
      "note": 78,
      "start": 17.3964,
      "duration": 0.058,
      "velocity": 127,
      "chip": "ym2612"
    },
    {
      "channel": 0,
      "note": 60,
      "start": 17.541,
      "duration": 0.1466,
      "velocity": 78,
      "chip": "ym2612"
    },
    {
      "channel": 3,
      "note": 64,
      "start": 17.7071,
      "duration": 0.1306,
      "velocity": 78,
      "chip": "ym2612"
    },
    {
      "channel": 1,
      "note": 69,
      "start": 17.8569,
      "duration": 0.1307,
      "velocity": 78,
      "chip": "ym2612"
    },
    {
      "channel": 4,
      "note": 48,
      "start": 17.991,
      "duration": 0.3258,
      "velocity": 101,
      "chip": "ym2612"
    },
    {
      "channel": 2,
      "note": 78,
      "start": 17.994,
      "duration": 0.0603,
      "velocity": 127,
      "chip": "ym2612"
    },
    {
      "channel": 0,
      "note": 64,
      "start": 18.0071,
      "duration": 0.1305,
      "velocity": 78,
      "chip": "ym2612"
    },
    {
      "channel": 3,
      "note": 60,
      "start": 18.1737,
      "duration": 0.114,
      "velocity": 78,
      "chip": "ym2612"
    },
    {
      "channel": 1,
      "note": 76,
      "start": 18.3069,
      "duration": 2.3007,
      "velocity": 116,
      "chip": "ym2612"
    },
    {
      "channel": 2,
      "note": 81,
      "start": 18.3099,
      "duration": 2.9611,
      "velocity": 116,
      "chip": "ym2612"
    },
    {
      "channel": 0,
      "note": 72,
      "start": 18.313,
      "duration": 2.8944,
      "velocity": 116,
      "chip": "ym2612"
    },
    {
      "channel": 3,
      "note": 45,
      "start": 18.316,
      "duration": 0.4049,
      "velocity": 101,
      "chip": "ym2612"
    },
    {
      "channel": 4,
      "note": 57,
      "start": 18.3199,
      "duration": 0.1178,
      "velocity": 78,
      "chip": "ym2612"
    },
    {
      "channel": 4,
      "note": 60,
      "start": 18.457,
      "duration": 0.1473,
      "velocity": 78,
      "chip": "ym2612"
    },
    {
      "channel": 4,
      "note": 64,
      "start": 18.6237,
      "duration": 0.1307,
      "velocity": 78,
      "chip": "ym2612"
    },
    {
      "channel": 3,
      "note": 69,
      "start": 18.7737,
      "duration": 0.1305,
      "velocity": 78,
      "chip": "ym2612"
    },
    {
      "channel": 4,
      "note": 64,
      "start": 18.9237,
      "duration": 0.1306,
      "velocity": 78,
      "chip": "ym2612"
    },
    {
      "channel": 3,
      "note": 60,
      "start": 19.0737,
      "duration": 0.1307,
      "velocity": 78,
      "chip": "ym2612"
    },
    {
      "channel": 4,
      "note": 45,
      "start": 19.2236,
      "duration": 0.4141,
      "velocity": 101,
      "chip": "ym2612"
    },
    {
      "channel": 3,
      "note": 57,
      "start": 19.2268,
      "duration": 0.1276,
      "velocity": 78,
      "chip": "ym2612"
    },
    {
      "channel": 3,
      "note": 60,
      "start": 19.3737,
      "duration": 0.1473,
      "velocity": 78,
      "chip": "ym2612"
    },
    {
      "channel": 3,
      "note": 64,
      "start": 19.5404,
      "duration": 0.1306,
      "velocity": 78,
      "chip": "ym2612"
    },
    {
      "channel": 4,
      "note": 69,
      "start": 19.6903,
      "duration": 0.1139,
      "velocity": 78,
      "chip": "ym2612"
    },
    {
      "channel": 3,
      "note": 64,
      "start": 19.8403,
      "duration": 0.1307,
      "velocity": 78,
      "chip": "ym2612"
    },
    {
      "channel": 4,
      "note": 60,
      "start": 19.9903,
      "duration": 0.1307,
      "velocity": 78,
      "chip": "ym2612"
    },
    {
      "channel": 3,
      "note": 45,
      "start": 20.1402,
      "duration": 0.3808,
      "velocity": 101,
      "chip": "ym2612"
    },
    {
      "channel": 4,
      "note": 57,
      "start": 20.1434,
      "duration": 0.1276,
      "velocity": 78,
      "chip": "ym2612"
    },
    {
      "channel": 4,
      "note": 60,
      "start": 20.2903,
      "duration": 0.1473,
      "velocity": 78,
      "chip": "ym2612"
    },
    {
      "channel": 4,
      "note": 64,
      "start": 20.457,
      "duration": 0.1307,
      "velocity": 78,
      "chip": "ym2612"
    },
    {
      "channel": 3,
      "note": 47,
      "start": 20.591,
      "duration": 0.0799,
      "velocity": 101,
      "chip": "ym2612"
    },
    {
      "channel": 4,
      "note": 69,
      "start": 20.607,
      "duration": 0.114,
      "velocity": 78,
      "chip": "ym2612"
    },
    {
      "channel": 1,
      "note": 78,
      "start": 20.6106,
      "duration": 0.0438,
      "velocity": 127,
      "chip": "ym2612"
    },
    {
      "channel": 1,
      "note": 47,
      "start": 20.7401,
      "duration": 0.0975,
      "velocity": 101,
      "chip": "ym2612"
    },
    {
      "channel": 3,
      "note": 64,
      "start": 20.757,
      "duration": 0.1307,
      "velocity": 78,
      "chip": "ym2612"
    },
    {
      "channel": 4,
      "note": 78,
      "start": 20.7602,
      "duration": 0.0608,
      "velocity": 127,
      "chip": "ym2612"
    },
    {
      "channel": 4,
      "note": 47,
      "start": 20.9069,
      "duration": 0.0808,
      "velocity": 101,
      "chip": "ym2612"
    },
    {
      "channel": 1,
      "note": 60,
      "start": 20.91,
      "duration": 0.1276,
      "velocity": 78,
      "chip": "ym2612"
    },
    {
      "channel": 3,
      "note": 78,
      "start": 20.9132,
      "duration": 0.0578,
      "velocity": 127,
      "chip": "ym2612"
    },
    {
      "channel": 3,
      "note": 47,
      "start": 21.0569,
      "duration": 0.1318,
      "velocity": 101,
      "chip": "ym2612"
    },
    {
      "channel": 4,
      "note": 57,
      "start": 21.0602,
      "duration": 0.1275,
      "velocity": 78,
      "chip": "ym2612"
    },
    {
      "channel": 1,
      "note": 78,
      "start": 21.0632,
      "duration": 0.0578,
      "velocity": 127,
      "chip": "ym2612"
    },
    {
      "channel": 1,
      "note": 60,
      "start": 21.2069,
      "duration": 0.1473,
      "velocity": 78,
      "chip": "ym2612"
    },
    {
      "channel": 4,
      "note": 64,
      "start": 21.3737,
      "duration": 0.1306,
      "velocity": 78,
      "chip": "ym2612"
    },
    {
      "channel": 3,
      "note": 69,
      "start": 21.5237,
      "duration": 0.1139,
      "velocity": 78,
      "chip": "ym2612"
    },
    {
      "channel": 0,
      "note": 74,
      "start": 21.6569,
      "duration": 0.013,
      "velocity": 116,
      "chip": "ym2612"
    },
    {
      "channel": 2,
      "note": 71,
      "start": 21.6599,
      "duration": 0.211,
      "velocity": 116,
      "chip": "ym2612"
    },
    {
      "channel": 1,
      "note": 79,
      "start": 21.663,
      "duration": 0.2747,
      "velocity": 116,
      "chip": "ym2612"
    },
    {
      "channel": 4,
      "note": 48,
      "start": 21.6661,
      "duration": 0.3173,
      "velocity": 101,
      "chip": "ym2612"
    },
    {
      "channel": 3,
      "note": 78,
      "start": 21.6692,
      "duration": 0.2351,
      "velocity": 127,
      "chip": "ym2612"
    },
    {
      "channel": 0,
      "note": 64,
      "start": 21.6728,
      "duration": 0.1315,
      "velocity": 78,
      "chip": "ym2612"
    },
    {
      "channel": 0,
      "note": 60,
      "start": 21.8235,
      "duration": 0.1307,
      "velocity": 78,
      "chip": "ym2612"
    },
    {
      "channel": 2,
      "note": 81,
      "start": 21.9735,
      "duration": 2.2871,
      "velocity": 116,
      "chip": "ym2612"
    },
    {
      "channel": 3,
      "note": 76,
      "start": 21.9767,
      "duration": 3.0776,
      "velocity": 116,
      "chip": "ym2612"
    },
    {
      "channel": 1,
      "note": 72,
      "start": 21.9797,
      "duration": 3.0912,
      "velocity": 116,
      "chip": "ym2612"
    },
    {
      "channel": 0,
      "note": 45,
      "start": 21.9828,
      "duration": 0.3882,
      "velocity": 101,
      "chip": "ym2612"
    },
    {
      "channel": 4,
      "note": 57,
      "start": 21.9866,
      "duration": 0.1178,
      "velocity": 78,
      "chip": "ym2612"
    },
    {
      "channel": 4,
      "note": 60,
      "start": 22.1417,
      "duration": 0.1293,
      "velocity": 78,
      "chip": "ym2612"
    },
    {
      "channel": 4,
      "note": 64,
      "start": 22.2903,
      "duration": 0.114,
      "velocity": 78,
      "chip": "ym2612"
    },
    {
      "channel": 0,
      "note": 69,
      "start": 22.4402,
      "duration": 0.1141,
      "velocity": 78,
      "chip": "ym2612"
    },
    {
      "channel": 4,
      "note": 64,
      "start": 22.5917,
      "duration": 0.1293,
      "velocity": 78,
      "chip": "ym2612"
    },
    {
      "channel": 0,
      "note": 60,
      "start": 22.7403,
      "duration": 0.1307,
      "velocity": 78,
      "chip": "ym2612"
    },
    {
      "channel": 4,
      "note": 45,
      "start": 22.8903,
      "duration": 0.4307,
      "velocity": 101,
      "chip": "ym2612"
    },
    {
      "channel": 0,
      "note": 57,
      "start": 22.8934,
      "duration": 0.1456,
      "velocity": 78,
      "chip": "ym2612"
    },
    {
      "channel": 0,
      "note": 60,
      "start": 23.0569,
      "duration": 0.1307,
      "velocity": 78,
      "chip": "ym2612"
    },
    {
      "channel": 0,
      "note": 64,
      "start": 23.2069,
      "duration": 0.1147,
      "velocity": 78,
      "chip": "ym2612"
    },
    {
      "channel": 4,
      "note": 69,
      "start": 23.357,
      "duration": 0.132,
      "velocity": 78,
      "chip": "ym2612"
    },
    {
      "channel": 0,
      "note": 64,
      "start": 23.5069,
      "duration": 0.1307,
      "velocity": 78,
      "chip": "ym2612"
    },
    {
      "channel": 4,
      "note": 60,
      "start": 23.6571,
      "duration": 0.1305,
      "velocity": 78,
      "chip": "ym2612"
    },
    {
      "channel": 0,
      "note": 45,
      "start": 23.8069,
      "duration": 0.3641,
      "velocity": 101,
      "chip": "ym2612"
    },
    {
      "channel": 4,
      "note": 57,
      "start": 23.81,
      "duration": 0.1443,
      "velocity": 78,
      "chip": "ym2612"
    },
    {
      "channel": 4,
      "note": 60,
      "start": 23.9737,
      "duration": 0.1307,
      "velocity": 78,
      "chip": "ym2612"
    },
    {
      "channel": 4,
      "note": 64,
      "start": 24.1237,
      "duration": 0.1139,
      "velocity": 78,
      "chip": "ym2612"
    },
    {
      "channel": 0,
      "note": 47,
      "start": 24.2568,
      "duration": 0.0649,
      "velocity": 101,
      "chip": "ym2612"
    },
    {
      "channel": 4,
      "note": 69,
      "start": 24.26,
      "duration": 0.1443,
      "velocity": 78,
      "chip": "ym2612"
    },
    {
      "channel": 2,
      "note": 78,
      "start": 24.2637,
      "duration": 0.0574,
      "velocity": 127,
      "chip": "ym2612"
    },
    {
      "channel": 2,
      "note": 47,
      "start": 24.4235,
      "duration": 0.0809,
      "velocity": 101,
      "chip": "ym2612"
    },
    {
      "channel": 0,
      "note": 64,
      "start": 24.4266,
      "duration": 0.1277,
      "velocity": 78,
      "chip": "ym2612"
    },
    {
      "channel": 4,
      "note": 78,
      "start": 24.4297,
      "duration": 0.058,
      "velocity": 127,
      "chip": "ym2612"
    },
    {
      "channel": 4,
      "note": 47,
      "start": 24.5736,
      "duration": 0.0648,
      "velocity": 101,
      "chip": "ym2612"
    },
    {
      "channel": 2,
      "note": 60,
      "start": 24.5767,
      "duration": 0.1276,
      "velocity": 78,
      "chip": "ym2612"
    },
    {
      "channel": 0,
      "note": 78,
      "start": 24.5797,
      "duration": 0.058,
      "velocity": 127,
      "chip": "ym2612"
    },
    {
      "channel": 0,
      "note": 47,
      "start": 24.7075,
      "duration": 0.2134,
      "velocity": 101,
      "chip": "ym2612"
    },
    {
      "channel": 4,
      "note": 57,
      "start": 24.7237,
      "duration": 0.1473,
      "velocity": 78,
      "chip": "ym2612"
    },
    {
      "channel": 2,
      "note": 78,
      "start": 24.7267,
      "duration": 0.061,
      "velocity": 127,
      "chip": "ym2612"
    },
    {
      "channel": 2,
      "note": 60,
      "start": 24.8902,
      "duration": 0.1141,
      "velocity": 78,
      "chip": "ym2612"
    },
    {
      "channel": 4,
      "note": 64,
      "start": 25.0078,
      "duration": 0.1299,
      "velocity": 78,
      "chip": "ym2612"
    },
    {
      "channel": 0,
      "note": 69,
      "start": 25.1737,
      "duration": 0.1473,
      "velocity": 78,
      "chip": "ym2612"
    },
    {
      "channel": 2,
      "note": 48,
      "start": 25.3401,
      "duration": 0.3105,
      "velocity": 101,
      "chip": "ym2612"
    },
    {
      "channel": 3,
      "note": 78,
      "start": 25.3432,
      "duration": 0.0611,
      "velocity": 127,
      "chip": "ym2612"
    },
    {
      "channel": 1,
      "note": 64,
      "start": 25.3464,
      "duration": 0.1246,
      "velocity": 78,
      "chip": "ym2612"
    },
    {
      "channel": 4,
      "note": 60,
      "start": 25.4904,
      "duration": 0.1307,
      "velocity": 78,
      "chip": "ym2612"
    },
    {
      "channel": 0,
      "note": 48,
      "start": 25.6243,
      "duration": 0.0229,
      "velocity": 101,
      "chip": "ym2612"
    },
    {
      "channel": 3,
      "note": 79,
      "start": 25.6403,
      "duration": 2.2869,
      "velocity": 116,
      "chip": "ym2612"
    },
    {
      "channel": 1,
      "note": 75,
      "start": 25.6434,
      "duration": 2.745,
      "velocity": 116,
      "chip": "ym2612"
    },
    {
      "channel": 4,
      "note": 72,
      "start": 25.6465,
      "duration": 2.7412,
      "velocity": 116,
      "chip": "ym2612"
    },
    {
      "channel": 0,
      "note": 55,
      "start": 25.6502,
      "duration": 0.1374,
      "velocity": 78,
      "chip": "ym2612"
    },
    {
      "channel": 2,
      "note": 60,
      "start": 25.8069,
      "duration": 0.114,
      "velocity": 78,
      "chip": "ym2612"
    },
    {
      "channel": 0,
      "note": 63,
      "start": 25.9569,
      "duration": 0.1141,
      "velocity": 78,
      "chip": "ym2612"
    },
    {
      "channel": 2,
      "note": 67,
      "start": 26.0903,
      "duration": 0.1474,
      "velocity": 78,
      "chip": "ym2612"
    },
    {
      "channel": 0,
      "note": 63,
      "start": 26.2569,
      "duration": 0.1307,
      "velocity": 78,
      "chip": "ym2612"
    },
    {
      "channel": 2,
      "note": 60,
      "start": 26.4069,
      "duration": 0.1307,
      "velocity": 78,
      "chip": "ym2612"
    },
    {
      "channel": 0,
      "note": 48,
      "start": 26.5568,
      "duration": 0.4808,
      "velocity": 101,
      "chip": "ym2612"
    },
    {
      "channel": 2,
      "note": 55,
      "start": 26.5599,
      "duration": 0.1444,
      "velocity": 78,
      "chip": "ym2612"
    },
    {
      "channel": 2,
      "note": 60,
      "start": 26.7235,
      "duration": 0.1141,
      "velocity": 78,
      "chip": "ym2612"
    },
    {
      "channel": 2,
      "note": 63,
      "start": 26.8569,
      "duration": 0.1307,
      "velocity": 78,
      "chip": "ym2612"
    },
    {
      "channel": 2,
      "note": 67,
      "start": 27.0069,
      "duration": 0.1473,
      "velocity": 78,
      "chip": "ym2612"
    },
    {
      "channel": 0,
      "note": 63,
      "start": 27.1736,
      "duration": 0.1307,
      "velocity": 78,
      "chip": "ym2612"
    },
    {
      "channel": 2,
      "note": 60,
      "start": 27.3235,
      "duration": 0.1307,
      "velocity": 78,
      "chip": "ym2612"
    },
    {
      "channel": 0,
      "note": 48,
      "start": 27.4575,
      "duration": 0.4468,
      "velocity": 101,
      "chip": "ym2612"
    },
    {
      "channel": 2,
      "note": 55,
      "start": 27.4736,
      "duration": 0.1307,
      "velocity": 78,
      "chip": "ym2612"
    },
    {
      "channel": 2,
      "note": 60,
      "start": 27.6403,
      "duration": 0.114,
      "velocity": 78,
      "chip": "ym2612"
    },
    {
      "channel": 2,
      "note": 63,
      "start": 27.7736,
      "duration": 0.1314,
      "velocity": 78,
      "chip": "ym2612"
    },
    {
      "channel": 0,
      "note": 50,
      "start": 27.9235,
      "duration": 0.0975,
      "velocity": 101,
      "chip": "ym2612"
    },
    {
      "channel": 2,
      "note": 67,
      "start": 27.9266,
      "duration": 0.1444,
      "velocity": 78,
      "chip": "ym2612"
    },
    {
      "channel": 3,
      "note": 78,
      "start": 27.9303,
      "duration": 0.074,
      "velocity": 127,
      "chip": "ym2612"
    },
    {
      "channel": 3,
      "note": 50,
      "start": 28.0903,
      "duration": 0.0973,
      "velocity": 101,
      "chip": "ym2612"
    },
    {
      "channel": 0,
      "note": 63,
      "start": 28.0934,
      "duration": 0.1276,
      "velocity": 78,
      "chip": "ym2612"
    },
    {
      "channel": 2,
      "note": 78,
      "start": 28.0964,
      "duration": 0.0579,
      "velocity": 127,
      "chip": "ym2612"
    },
    {
      "channel": 2,
      "note": 60,
      "start": 28.2403,
      "duration": 0.1307,
      "velocity": 78,
      "chip": "ym2612"
    },
    {
      "channel": 3,
      "note": 78,
      "start": 28.2434,
      "duration": 0.061,
      "velocity": 127,
      "chip": "ym2612"
    },
    {
      "channel": 0,
      "note": 50,
      "start": 28.3742,
      "duration": 0.1134,
      "velocity": 101,
      "chip": "ym2612"
    },
    {
      "channel": 3,
      "note": 84,
      "start": 28.3922,
      "duration": 0.4295,
      "velocity": 116,
      "chip": "ym2612"
    },
    {
      "channel": 2,
      "note": 50,
      "start": 28.3952,
      "duration": 0.1257,
      "velocity": 101,
      "chip": "ym2612"
    },
    {
      "channel": 4,
      "note": 55,
      "start": 28.3984,
      "duration": 0.1233,
      "velocity": 78,
      "chip": "ym2612"
    },
    {
      "channel": 1,
      "note": 78,
      "start": 28.4015,
      "duration": 0.0695,
      "velocity": 127,
      "chip": "ym2612"
    },
    {
      "channel": 1,
      "note": 60,
      "start": 28.5569,
      "duration": 0.114,
      "velocity": 78,
      "chip": "ym2612"
    },
    {
      "channel": 0,
      "note": 63,
      "start": 28.6903,
      "duration": 0.1307,
      "velocity": 78,
      "chip": "ym2612"
    },
    {
      "channel": 2,
      "note": 67,
      "start": 28.8403,
      "duration": 0.1474,
      "velocity": 78,
      "chip": "ym2612"
    },
    {
      "channel": 4,
      "note": 72,
      "start": 29.0069,
      "duration": 0.0129,
      "velocity": 116,
      "chip": "ym2612"
    },
    {
      "channel": 1,
      "note": 77,
      "start": 29.01,
      "duration": 0.2791,
      "velocity": 116,
      "chip": "ym2612"
    },
    {
      "channel": 0,
      "note": 75,
      "start": 29.013,
      "duration": 0.1746,
      "velocity": 116,
      "chip": "ym2612"
    },
    {
      "channel": 3,
      "note": 78,
      "start": 29.0161,
      "duration": 0.055,
      "velocity": 127,
      "chip": "ym2612"
    },
    {
      "channel": 2,
      "note": 51,
      "start": 29.0191,
      "duration": 0.2693,
      "velocity": 101,
      "chip": "ym2612"
    },
    {
      "channel": 4,
      "note": 63,
      "start": 29.023,
      "duration": 0.1146,
      "velocity": 78,
      "chip": "ym2612"
    },
    {
      "channel": 3,
      "note": 60,
      "start": 29.1571,
      "duration": 0.1306,
      "velocity": 78,
      "chip": "ym2612"
    },
    {
      "channel": 4,
      "note": 79,
      "start": 29.307,
      "duration": 2.3036,
      "velocity": 116,
      "chip": "ym2612"
    },
    {
      "channel": 0,
      "note": 75,
      "start": 29.31,
      "duration": 2.6276,
      "velocity": 116,
      "chip": "ym2612"
    },
    {
      "channel": 3,
      "note": 72,
      "start": 29.3132,
      "duration": 2.5974,
      "velocity": 116,
      "chip": "ym2612"
    },
    {
      "channel": 2,
      "note": 48,
      "start": 29.3162,
      "duration": 0.388,
      "velocity": 101,
      "chip": "ym2612"
    },
    {
      "channel": 1,
      "note": 55,
      "start": 29.3193,
      "duration": 0.1183,
      "velocity": 78,
      "chip": "ym2612"
    },
    {
      "channel": 1,
      "note": 60,
      "start": 29.4569,
      "duration": 0.1307,
      "velocity": 78,
      "chip": "ym2612"
    },
    {
      "channel": 1,
      "note": 63,
      "start": 29.6069,
      "duration": 0.1308,
      "velocity": 78,
      "chip": "ym2612"
    },
    {
      "channel": 2,
      "note": 67,
      "start": 29.7569,
      "duration": 0.1473,
      "velocity": 78,
      "chip": "ym2612"
    },
    {
      "channel": 1,
      "note": 63,
      "start": 29.9236,
      "duration": 0.1307,
      "velocity": 78,
      "chip": "ym2612"
    },
    {
      "channel": 2,
      "note": 60,
      "start": 30.0736,
      "duration": 0.114,
      "velocity": 78,
      "chip": "ym2612"
    },
    {
      "channel": 1,
      "note": 48,
      "start": 30.2415,
      "duration": 0.3795,
      "velocity": 101,
      "chip": "ym2612"
    },
    {
      "channel": 2,
      "note": 55,
      "start": 30.2446,
      "duration": 0.1097,
      "velocity": 78,
      "chip": "ym2612"
    },
    {
      "channel": 2,
      "note": 60,
      "start": 30.3736,
      "duration": 0.1307,
      "velocity": 78,
      "chip": "ym2612"
    },
    {
      "channel": 2,
      "note": 63,
      "start": 30.5235,
      "duration": 0.1307,
      "velocity": 78,
      "chip": "ym2612"
    },
    {
      "channel": 1,
      "note": 67,
      "start": 30.6916,
      "duration": 0.1293,
      "velocity": 78,
      "chip": "ym2612"
    },
    {
      "channel": 2,
      "note": 63,
      "start": 30.8403,
      "duration": 0.1307,
      "velocity": 78,
      "chip": "ym2612"
    },
    {
      "channel": 1,
      "note": 60,
      "start": 30.9903,
      "duration": 0.1141,
      "velocity": 78,
      "chip": "ym2612"
    },
    {
      "channel": 2,
      "note": 48,
      "start": 31.1415,
      "duration": 0.3795,
      "velocity": 101,
      "chip": "ym2612"
    },
    {
      "channel": 1,
      "note": 55,
      "start": 31.1569,
      "duration": 0.1141,
      "velocity": 78,
      "chip": "ym2612"
    },
    {
      "channel": 1,
      "note": 60,
      "start": 31.2902,
      "duration": 0.1307,
      "velocity": 78,
      "chip": "ym2612"
    },
    {
      "channel": 1,
      "note": 63,
      "start": 31.4403,
      "duration": 0.1487,
      "velocity": 78,
      "chip": "ym2612"
    },
    {
      "channel": 2,
      "note": 50,
      "start": 31.6068,
      "duration": 0.065,
      "velocity": 101,
      "chip": "ym2612"
    },
    {
      "channel": 1,
      "note": 67,
      "start": 31.6099,
      "duration": 0.1277,
      "velocity": 78,
      "chip": "ym2612"
    },
    {
      "channel": 4,
      "note": 78,
      "start": 31.6137,
      "duration": 0.0574,
      "velocity": 127,
      "chip": "ym2612"
    },
    {
      "channel": 4,
      "note": 50,
      "start": 31.741,
      "duration": 0.0967,
      "velocity": 101,
      "chip": "ym2612"
    },
    {
      "channel": 2,
      "note": 63,
      "start": 31.7569,
      "duration": 0.1307,
      "velocity": 78,
      "chip": "ym2612"
    },
    {
      "channel": 1,
      "note": 78,
      "start": 31.7599,
      "duration": 0.0611,
      "velocity": 127,
      "chip": "ym2612"
    },
    {
      "channel": 1,
      "note": 50,
      "start": 31.8908,
      "duration": 0.0635,
      "velocity": 101,
      "chip": "ym2612"
    },
    {
      "channel": 4,
      "note": 60,
      "start": 31.9071,
      "duration": 0.1319,
      "velocity": 78,
      "chip": "ym2612"
    },
    {
      "channel": 2,
      "note": 78,
      "start": 31.91,
      "duration": 0.061,
      "velocity": 127,
      "chip": "ym2612"
    },
    {
      "channel": 3,
      "note": 50,
      "start": 32.0569,
      "duration": 0.0973,
      "velocity": 101,
      "chip": "ym2612"
    },
    {
      "channel": 0,
      "note": 84,
      "start": 32.06,
      "duration": 0.595,
      "velocity": 116,
      "chip": "ym2612"
    },
    {
      "channel": 1,
      "note": 55,
      "start": 32.0631,
      "duration": 0.1245,
      "velocity": 78,
      "chip": "ym2612"
    },
    {
      "channel": 2,
      "note": 78,
      "start": 32.0661,
      "duration": 0.0716,
      "velocity": 127,
      "chip": "ym2612"
    },
    {
      "channel": 4,
      "note": 60,
      "start": 32.2071,
      "duration": 0.1306,
      "velocity": 78,
      "chip": "ym2612"
    },
    {
      "channel": 2,
      "note": 63,
      "start": 32.3569,
      "duration": 0.1474,
      "velocity": 78,
      "chip": "ym2612"
    },
    {
      "channel": 3,
      "note": 67,
      "start": 32.5237,
      "duration": 0.1305,
      "velocity": 78,
      "chip": "ym2612"
    },
    {
      "channel": 1,
      "note": 86,
      "start": 32.6583,
      "duration": 0.4467,
      "velocity": 116,
      "chip": "ym2612"
    },
    {
      "channel": 4,
      "note": 43,
      "start": 32.6614,
      "duration": 0.3263,
      "velocity": 101,
      "chip": "ym2612"
    },
    {
      "channel": 2,
      "note": 78,
      "start": 32.6644,
      "duration": 0.0566,
      "velocity": 127,
      "chip": "ym2612"
    },
    {
      "channel": 3,
      "note": 63,
      "start": 32.6737,
      "duration": 0.1139,
      "velocity": 78,
      "chip": "ym2612"
    },
    {
      "channel": 0,
      "note": 60,
      "start": 32.8236,
      "duration": 0.1307,
      "velocity": 78,
      "chip": "ym2612"
    },
    {
      "channel": 2,
      "note": 88,
      "start": 32.9735,
      "duration": 2.3808,
      "velocity": 116,
      "chip": "ym2612"
    },
    {
      "channel": 3,
      "note": 45,
      "start": 32.9766,
      "duration": 0.4284,
      "velocity": 101,
      "chip": "ym2612"
    },
    {
      "channel": 0,
      "note": 57,
      "start": 32.9797,
      "duration": 0.1246,
      "velocity": 78,
      "chip": "ym2612"
    },
    {
      "channel": 4,
      "note": 60,
      "start": 33.1237,
      "duration": 0.1305,
      "velocity": 78,
      "chip": "ym2612"
    },
    {
      "channel": 0,
      "note": 64,
      "start": 33.2576,
      "duration": 0.1466,
      "velocity": 78,
      "chip": "ym2612"
    },
    {
      "channel": 1,
      "note": 69,
      "start": 33.4403,
      "duration": 0.1307,
      "velocity": 78,
      "chip": "ym2612"
    },
    {
      "channel": 4,
      "note": 64,
      "start": 33.5903,
      "duration": 0.114,
      "velocity": 78,
      "chip": "ym2612"
    },
    {
      "channel": 0,
      "note": 60,
      "start": 33.7403,
      "duration": 0.1306,
      "velocity": 78,
      "chip": "ym2612"
    },
    {
      "channel": 3,
      "note": 45,
      "start": 33.8903,
      "duration": 0.4314,
      "velocity": 101,
      "chip": "ym2612"
    },
    {
      "channel": 1,
      "note": 57,
      "start": 33.8934,
      "duration": 0.1276,
      "velocity": 78,
      "chip": "ym2612"
    },
    {
      "channel": 4,
      "note": 60,
      "start": 34.0403,
      "duration": 0.1307,
      "velocity": 78,
      "chip": "ym2612"
    },
    {
      "channel": 0,
      "note": 64,
      "start": 34.1744,
      "duration": 0.1466,
      "velocity": 78,
      "chip": "ym2612"
    },
    {
      "channel": 1,
      "note": 69,
      "start": 34.3569,
      "duration": 0.1307,
      "velocity": 78,
      "chip": "ym2612"
    },
    {
      "channel": 4,
      "note": 64,
      "start": 34.5071,
      "duration": 0.1139,
      "velocity": 78,
      "chip": "ym2612"
    },
    {
      "channel": 0,
      "note": 60,
      "start": 34.6403,
      "duration": 0.1473,
      "velocity": 78,
      "chip": "ym2612"
    },
    {
      "channel": 3,
      "note": 45,
      "start": 34.8069,
      "duration": 0.4474,
      "velocity": 101,
      "chip": "ym2612"
    },
    {
      "channel": 1,
      "note": 57,
      "start": 34.81,
      "duration": 0.1276,
      "velocity": 78,
      "chip": "ym2612"
    },
    {
      "channel": 4,
      "note": 60,
      "start": 34.9571,
      "duration": 0.1306,
      "velocity": 78,
      "chip": "ym2612"
    },
    {
      "channel": 0,
      "note": 64,
      "start": 35.091,
      "duration": 0.1466,
      "velocity": 78,
      "chip": "ym2612"
    },
    {
      "channel": 1,
      "note": 47,
      "start": 35.2576,
      "duration": 0.0634,
      "velocity": 101,
      "chip": "ym2612"
    },
    {
      "channel": 4,
      "note": 78,
      "start": 35.2607,
      "duration": 0.0611,
      "velocity": 127,
      "chip": "ym2612"
    },
    {
      "channel": 0,
      "note": 69,
      "start": 35.2736,
      "duration": 0.114,
      "velocity": 78,
      "chip": "ym2612"
    },
    {
      "channel": 3,
      "note": 89,
      "start": 35.407,
      "duration": 0.9473,
      "velocity": 116,
      "chip": "ym2612"
    },
    {
      "channel": 1,
      "note": 47,
      "start": 35.41,
      "duration": 0.0777,
      "velocity": 101,
      "chip": "ym2612"
    },
    {
      "channel": 4,
      "note": 78,
      "start": 35.4131,
      "duration": 0.058,
      "velocity": 127,
      "chip": "ym2612"
    },
    {
      "channel": 2,
      "note": 64,
      "start": 35.4236,
      "duration": 0.114,
      "velocity": 78,
      "chip": "ym2612"
    },
    {
      "channel": 0,
      "note": 47,
      "start": 35.5569,
      "duration": 0.0974,
      "velocity": 101,
      "chip": "ym2612"
    },
    {
      "channel": 4,
      "note": 78,
      "start": 35.56,
      "duration": 0.0791,
      "velocity": 127,
      "chip": "ym2612"
    },
    {
      "channel": 1,
      "note": 60,
      "start": 35.5631,
      "duration": 0.1412,
      "velocity": 78,
      "chip": "ym2612"
    },
    {
      "channel": 2,
      "note": 47,
      "start": 35.7235,
      "duration": 0.1141,
      "velocity": 101,
      "chip": "ym2612"
    },
    {
      "channel": 4,
      "note": 78,
      "start": 35.7266,
      "duration": 0.0778,
      "velocity": 127,
      "chip": "ym2612"
    },
    {
      "channel": 0,
      "note": 84,
      "start": 35.7296,
      "duration": 0.5913,
      "velocity": 116,
      "chip": "ym2612"
    },
    {
      "channel": 1,
      "note": 57,
      "start": 35.7328,
      "duration": 0.1216,
      "velocity": 78,
      "chip": "ym2612"
    },
    {
      "channel": 4,
      "note": 60,
      "start": 35.8737,
      "duration": 0.1307,
      "velocity": 78,
      "chip": "ym2612"
    },
    {
      "channel": 2,
      "note": 64,
      "start": 36.0077,
      "duration": 0.13,
      "velocity": 78,
      "chip": "ym2612"
    },
    {
      "channel": 1,
      "note": 69,
      "start": 36.1903,
      "duration": 0.114,
      "velocity": 78,
      "chip": "ym2612"
    },
    {
      "channel": 4,
      "note": 83,
      "start": 36.3403,
      "duration": 0.2822,
      "velocity": 116,
      "chip": "ym2612"
    },
    {
      "channel": 2,
      "note": 48,
      "start": 36.3432,
      "duration": 0.2785,
      "velocity": 101,
      "chip": "ym2612"
    },
    {
      "channel": 1,
      "note": 64,
      "start": 36.3464,
      "duration": 0.108,
      "velocity": 78,
      "chip": "ym2612"
    },
    {
      "channel": 0,
      "note": 78,
      "start": 36.3494,
      "duration": 0.0716,
      "velocity": 127,
      "chip": "ym2612"
    },
    {
      "channel": 3,
      "note": 60,
      "start": 36.4737,
      "duration": 0.1473,
      "velocity": 78,
      "chip": "ym2612"
    },
    {
      "channel": 0,
      "note": 69,
      "start": 36.6402,
      "duration": 3.5481,
      "velocity": 116,
      "chip": "ym2612"
    },
    {
      "channel": 1,
      "note": 81,
      "start": 36.6432,
      "duration": 3.511,
      "velocity": 116,
      "chip": "ym2612"
    },
    {
      "channel": 3,
      "note": 76,
      "start": 36.6464,
      "duration": 3.5412,
      "velocity": 116,
      "chip": "ym2612"
    },
    {
      "channel": 2,
      "note": 45,
      "start": 36.6494,
      "duration": 3.4048,
      "velocity": 101,
      "chip": "ym2612"
    },
    {
      "channel": 4,
      "note": 57,
      "start": 36.6526,
      "duration": 0.1184,
      "velocity": 78,
      "chip": "ym2612"
    },
    {
      "channel": 4,
      "note": 60,
      "start": 36.7903,
      "duration": 0.1307,
      "velocity": 78,
      "chip": "ym2612"
    },
    {
      "channel": 4,
      "note": 64,
      "start": 36.9244,
      "duration": 0.1298,
      "velocity": 78,
      "chip": "ym2612"
    },
    {
      "channel": 4,
      "note": 69,
      "start": 37.107,
      "duration": 0.114,
      "velocity": 78,
      "chip": "ym2612"
    },
    {
      "channel": 4,
      "note": 64,
      "start": 37.2403,
      "duration": 0.1307,
      "velocity": 78,
      "chip": "ym2612"
    },
    {
      "channel": 4,
      "note": 60,
      "start": 37.3903,
      "duration": 0.1473,
      "velocity": 78,
      "chip": "ym2612"
    },
    {
      "channel": 4,
      "note": 57,
      "start": 37.557,
      "duration": 0.1307,
      "velocity": 78,
      "chip": "ym2612"
    },
    {
      "channel": 4,
      "note": 60,
      "start": 37.707,
      "duration": 0.1307,
      "velocity": 78,
      "chip": "ym2612"
    },
    {
      "channel": 4,
      "note": 64,
      "start": 37.8411,
      "duration": 0.1298,
      "velocity": 78,
      "chip": "ym2612"
    },
    {
      "channel": 4,
      "note": 69,
      "start": 38.0237,
      "duration": 0.114,
      "velocity": 78,
      "chip": "ym2612"
    },
    {
      "channel": 4,
      "note": 64,
      "start": 38.157,
      "duration": 0.1307,
      "velocity": 78,
      "chip": "ym2612"
    },
    {
      "channel": 4,
      "note": 60,
      "start": 38.307,
      "duration": 0.1473,
      "velocity": 78,
      "chip": "ym2612"
    },
    {
      "channel": 4,
      "note": 57,
      "start": 38.4737,
      "duration": 1.7973,
      "velocity": 78,
      "chip": "ym2612"
    },
    {
      "channel": 0,
      "note": 69,
      "start": 40.2814,
      "duration": 0.0068,
      "velocity": 111,
      "chip": "ym2612"
    }
  ]
}