{
  "track_name": "05 - Strike Express",
  "duration_sec": 46.024,
  "sample_rate": 44100,
  "note_count": 822,
  "unique_pitches": 29,
  "pitch_range": 47,
  "avg_note_duration": 0.3009,
  "reconstruction_stats": {
    "notes_reconstructed": 822,
    "keyon_events": 822,
    "keyoff_events": 819,
    "orphan_keyons": 3,
    "unique_pitches": 29,
    "pitch_range": 47,
    "avg_duration_sec": 0.3009
  },
  "metadata": {
    "source": "M\\Mirage 2\\05 - Strike Express.vgz"
  },
  "notes": [
    {
      "channel": 0,
      "note": 70,
      "start": 0.0027,
      "duration": 0.1134,
      "velocity": 107,
      "chip": "ym2612"
    },
    {
      "channel": 2,
      "note": 51,
      "start": 0.0041,
      "duration": 0.231,
      "velocity": 107,
      "chip": "ym2612"
    },
    {
      "channel": 3,
      "note": 79,
      "start": 0.0055,
      "duration": 0.1106,
      "velocity": 115,
      "chip": "ym2612"
    },
    {
      "channel": 4,
      "note": 87,
      "start": 0.0075,
      "duration": 1.8976,
      "velocity": 102,
      "chip": "ym2612"
    },
    {
      "channel": 5,
      "note": 84,
      "start": 0.0092,
      "duration": 1.896,
      "velocity": 102,
      "chip": "ym2612"
    },
    {
      "channel": 0,
      "note": 72,
      "start": 0.1166,
      "duration": 0.1134,
      "velocity": 107,
      "chip": "ym2612"
    },
    {
      "channel": 3,
      "note": 79,
      "start": 0.1171,
      "duration": 0.113,
      "velocity": 115,
      "chip": "ym2612"
    },
    {
      "channel": 1,
      "note": 70,
      "start": 0.1771,
      "duration": 0.1126,
      "velocity": 107,
      "chip": "ym2612"
    },
    {
      "channel": 2,
      "note": 56,
      "start": 0.2356,
      "duration": 0.1137,
      "velocity": 107,
      "chip": "ym2612"
    },
    {
      "channel": 3,
      "note": 79,
      "start": 0.2372,
      "duration": 0.2315,
      "velocity": 112,
      "chip": "ym2612"
    },
    {
      "channel": 1,
      "note": 72,
      "start": 0.2951,
      "duration": 0.1138,
      "velocity": 107,
      "chip": "ym2612"
    },
    {
      "channel": 0,
      "note": 72,
      "start": 0.3547,
      "duration": 0.1138,
      "velocity": 107,
      "chip": "ym2612"
    },
    {
      "channel": 2,
      "note": 51,
      "start": 0.4739,
      "duration": 0.1138,
      "velocity": 107,
      "chip": "ym2612"
    },
    {
      "channel": 3,
      "note": 79,
      "start": 0.4753,
      "duration": 0.1126,
      "velocity": 115,
      "chip": "ym2612"
    },
    {
      "channel": 1,
      "note": 72,
      "start": 0.5336,
      "duration": 0.1137,
      "velocity": 107,
      "chip": "ym2612"
    },
    {
      "channel": 0,
      "note": 72,
      "start": 0.5931,
      "duration": 0.1139,
      "velocity": 107,
      "chip": "ym2612"
    },
    {
      "channel": 2,
      "note": 56,
      "start": 0.5936,
      "duration": 0.2332,
      "velocity": 107,
      "chip": "ym2612"
    },
    {
      "channel": 3,
      "note": 79,
      "start": 0.5941,
      "duration": 0.1129,
      "velocity": 115,
      "chip": "ym2612"
    },
    {
      "channel": 3,
      "note": 79,
      "start": 0.7132,
      "duration": 0.2323,
      "velocity": 112,
      "chip": "ym2612"
    },
    {
      "channel": 1,
      "note": 72,
      "start": 0.772,
      "duration": 0.1143,
      "velocity": 107,
      "chip": "ym2612"
    },
    {
      "channel": 0,
      "note": 68,
      "start": 0.8315,
      "duration": 0.2332,
      "velocity": 107,
      "chip": "ym2612"
    },
    {
      "channel": 2,
      "note": 51,
      "start": 0.832,
      "duration": 0.3522,
      "velocity": 107,
      "chip": "ym2612"
    },
    {
      "channel": 3,
      "note": 79,
      "start": 0.9517,
      "duration": 0.1129,
      "velocity": 115,
      "chip": "ym2612"
    },
    {
      "channel": 1,
      "note": 68,
      "start": 1.0105,
      "duration": 0.2331,
      "velocity": 107,
      "chip": "ym2612"
    },
    {
      "channel": 3,
      "note": 79,
      "start": 1.0702,
      "duration": 0.1138,
      "velocity": 115,
      "chip": "ym2612"
    },
    {
      "channel": 0,
      "note": 72,
      "start": 1.1893,
      "duration": 0.2331,
      "velocity": 107,
      "chip": "ym2612"
    },
    {
      "channel": 2,
      "note": 60,
      "start": 1.1897,
      "duration": 0.2328,
      "velocity": 107,
      "chip": "ym2612"
    },
    {
      "channel": 3,
      "note": 79,
      "start": 1.1911,
      "duration": 0.2315,
      "velocity": 112,
      "chip": "ym2612"
    },
    {
      "channel": 1,
      "note": 72,
      "start": 1.3681,
      "duration": 0.2332,
      "velocity": 107,
      "chip": "ym2612"
    },
    {
      "channel": 0,
      "note": 70,
      "start": 1.4278,
      "duration": 0.2331,
      "velocity": 107,
      "chip": "ym2612"
    },
    {
      "channel": 2,
      "note": 63,
      "start": 1.4282,
      "duration": 0.2327,
      "velocity": 107,
      "chip": "ym2612"
    },
    {
      "channel": 3,
      "note": 79,
      "start": 1.4295,
      "duration": 0.1122,
      "velocity": 115,
      "chip": "ym2612"
    },
    {
      "channel": 3,
      "note": 79,
      "start": 1.547,
      "duration": 0.114,
      "velocity": 115,
      "chip": "ym2612"
    },
    {
      "channel": 1,
      "note": 70,
      "start": 1.6066,
      "duration": 0.2332,
      "velocity": 107,
      "chip": "ym2612"
    },
    {
      "channel": 0,
      "note": 72,
      "start": 1.6664,
      "duration": 0.1137,
      "velocity": 107,
      "chip": "ym2612"
    },
    {
      "channel": 2,
      "note": 56,
      "start": 1.6669,
      "duration": 0.2324,
      "velocity": 107,
      "chip": "ym2612"
    },
    {
      "channel": 3,
      "note": 79,
      "start": 1.6682,
      "duration": 0.2312,
      "velocity": 112,
      "chip": "ym2612"
    },
    {
      "channel": 0,
      "note": 73,
      "start": 1.7854,
      "duration": 0.4724,
      "velocity": 107,
      "chip": "ym2612"
    },
    {
      "channel": 1,
      "note": 72,
      "start": 1.8451,
      "duration": 0.1138,
      "velocity": 107,
      "chip": "ym2612"
    },
    {
      "channel": 2,
      "note": 49,
      "start": 1.9057,
      "duration": 0.2321,
      "velocity": 107,
      "chip": "ym2612"
    },
    {
      "channel": 3,
      "note": 79,
      "start": 1.9073,
      "duration": 0.1114,
      "velocity": 115,
      "chip": "ym2612"
    },
    {
      "channel": 4,
      "note": 89,
      "start": 1.9078,
      "duration": 1.8995,
      "velocity": 102,
      "chip": "ym2612"
    },
    {
      "channel": 5,
      "note": 85,
      "start": 1.9083,
      "duration": 1.8991,
      "velocity": 102,
      "chip": "ym2612"
    },
    {
      "channel": 1,
      "note": 73,
      "start": 1.9643,
      "duration": 0.4719,
      "velocity": 107,
      "chip": "ym2612"
    },
    {
      "channel": 3,
      "note": 79,
      "start": 2.0239,
      "duration": 0.114,
      "velocity": 115,
      "chip": "ym2612"
    },
    {
      "channel": 2,
      "note": 53,
      "start": 2.1431,
      "duration": 0.1148,
      "velocity": 107,
      "chip": "ym2612"
    },
    {
      "channel": 3,
      "note": 79,
      "start": 2.1444,
      "duration": 0.2319,
      "velocity": 112,
      "chip": "ym2612"
    },
    {
      "channel": 0,
      "note": 72,
      "start": 2.2624,
      "duration": 0.3523,
      "velocity": 107,
      "chip": "ym2612"
    },
    {
      "channel": 2,
      "note": 49,
      "start": 2.3816,
      "duration": 0.1139,
      "velocity": 107,
      "chip": "ym2612"
    },
    {
      "channel": 3,
      "note": 79,
      "start": 2.3829,
      "duration": 0.1127,
      "velocity": 115,
      "chip": "ym2612"
    },
    {
      "channel": 1,
      "note": 72,
      "start": 2.4412,
      "duration": 0.3524,
      "velocity": 107,
      "chip": "ym2612"
    },
    {
      "channel": 2,
      "note": 53,
      "start": 2.5008,
      "duration": 0.2331,
      "velocity": 107,
      "chip": "ym2612"
    },
    {
      "channel": 3,
      "note": 79,
      "start": 2.5013,
      "duration": 0.1135,
      "velocity": 115,
      "chip": "ym2612"
    },
    {
      "channel": 0,
      "note": 70,
      "start": 2.6201,
      "duration": 0.4716,
      "velocity": 107,
      "chip": "ym2612"
    },
    {
      "channel": 3,
      "note": 79,
      "start": 2.6215,
      "duration": 0.2317,
      "velocity": 112,
      "chip": "ym2612"
    },
    {
      "channel": 2,
      "note": 49,
      "start": 2.7393,
      "duration": 0.3526,
      "velocity": 107,
      "chip": "ym2612"
    },
    {
      "channel": 1,
      "note": 70,
      "start": 2.7989,
      "duration": 0.4716,
      "velocity": 107,
      "chip": "ym2612"
    },
    {
      "channel": 3,
      "note": 79,
      "start": 2.8594,
      "duration": 0.1132,
      "velocity": 115,
      "chip": "ym2612"
    },
    {
      "channel": 3,
      "note": 79,
      "start": 2.9778,
      "duration": 0.1141,
      "velocity": 115,
      "chip": "ym2612"
    },
    {
      "channel": 0,
      "note": 70,
      "start": 3.0969,
      "duration": 0.4716,
      "velocity": 107,
      "chip": "ym2612"
    },
    {
      "channel": 2,
      "note": 58,
      "start": 3.0974,
      "duration": 0.2327,
      "velocity": 107,
      "chip": "ym2612"
    },
    {
      "channel": 3,
      "note": 79,
      "start": 3.0988,
      "duration": 0.2314,
      "velocity": 112,
      "chip": "ym2612"
    },
    {
      "channel": 1,
      "note": 70,
      "start": 3.2761,
      "duration": 0.4714,
      "velocity": 107,
      "chip": "ym2612"
    },
    {
      "channel": 2,
      "note": 61,
      "start": 3.3356,
      "duration": 0.233,
      "velocity": 107,
      "chip": "ym2612"
    },
    {
      "channel": 3,
      "note": 79,
      "start": 3.3372,
      "duration": 0.1122,
      "velocity": 115,
      "chip": "ym2612"
    },
    {
      "channel": 3,
      "note": 79,
      "start": 3.4547,
      "duration": 0.114,
      "velocity": 115,
      "chip": "ym2612"
    },
    {
      "channel": 0,
      "note": 72,
      "start": 3.574,
      "duration": 0.233,
      "velocity": 107,
      "chip": "ym2612"
    },
    {
      "channel": 2,
      "note": 49,
      "start": 3.5744,
      "duration": 0.2327,
      "velocity": 107,
      "chip": "ym2612"
    },
    {
      "channel": 3,
      "note": 79,
      "start": 3.576,
      "duration": 0.2312,
      "velocity": 112,
      "chip": "ym2612"
    },
    {
      "channel": 1,
      "note": 72,
      "start": 3.7527,
      "duration": 0.2334,
      "velocity": 107,
      "chip": "ym2612"
    },
    {
      "channel": 0,
      "note": 73,
      "start": 3.8124,
      "duration": 0.3523,
      "velocity": 107,
      "chip": "ym2612"
    },
    {
      "channel": 2,
      "note": 49,
      "start": 3.8129,
      "duration": 0.2326,
      "velocity": 107,
      "chip": "ym2612"
    },
    {
      "channel": 3,
      "note": 79,
      "start": 3.8142,
      "duration": 0.112,
      "velocity": 115,
      "chip": "ym2612"
    },
    {
      "channel": 4,
      "note": 89,
      "start": 3.8148,
      "duration": 1.9004,
      "velocity": 102,
      "chip": "ym2612"
    },
    {
      "channel": 5,
      "note": 85,
      "start": 3.8153,
      "duration": 1.8999,
      "velocity": 102,
      "chip": "ym2612"
    },
    {
      "channel": 3,
      "note": 79,
      "start": 3.9317,
      "duration": 0.1139,
      "velocity": 115,
      "chip": "ym2612"
    },
    {
      "channel": 1,
      "note": 73,
      "start": 3.9912,
      "duration": 0.3524,
      "velocity": 107,
      "chip": "ym2612"
    },
    {
      "channel": 2,
      "note": 53,
      "start": 4.0509,
      "duration": 0.114,
      "velocity": 107,
      "chip": "ym2612"
    },
    {
      "channel": 3,
      "note": 79,
      "start": 4.0524,
      "duration": 0.2317,
      "velocity": 112,
      "chip": "ym2612"
    },
    {
      "channel": 0,
      "note": 72,
      "start": 4.17,
      "duration": 0.3525,
      "velocity": 107,
      "chip": "ym2612"
    },
    {
      "channel": 2,
      "note": 49,
      "start": 4.2893,
      "duration": 0.1139,
      "velocity": 107,
      "chip": "ym2612"
    },
    {
      "channel": 3,
      "note": 79,
      "start": 4.2906,
      "duration": 0.1126,
      "velocity": 115,
      "chip": "ym2612"
    },
    {
      "channel": 1,
      "note": 72,
      "start": 4.3489,
      "duration": 0.3524,
      "velocity": 107,
      "chip": "ym2612"
    },
    {
      "channel": 2,
      "note": 53,
      "start": 4.4085,
      "duration": 0.2331,
      "velocity": 107,
      "chip": "ym2612"
    },
    {
      "channel": 3,
      "note": 79,
      "start": 4.409,
      "duration": 0.1136,
      "velocity": 115,
      "chip": "ym2612"
    },
    {
      "channel": 0,
      "note": 73,
      "start": 4.5277,
      "duration": 0.4719,
      "velocity": 107,
      "chip": "ym2612"
    },
    {
      "channel": 3,
      "note": 79,
      "start": 4.5291,
      "duration": 0.2319,
      "velocity": 112,
      "chip": "ym2612"
    },
    {
      "channel": 2,
      "note": 49,
      "start": 4.6471,
      "duration": 0.3527,
      "velocity": 107,
      "chip": "ym2612"
    },
    {
      "channel": 1,
      "note": 73,
      "start": 4.7067,
      "duration": 0.4715,
      "velocity": 107,
      "chip": "ym2612"
    },
    {
      "channel": 3,
      "note": 79,
      "start": 4.7674,
      "duration": 0.1127,
      "velocity": 115,
      "chip": "ym2612"
    },
    {
      "channel": 3,
      "note": 79,
      "start": 4.8855,
      "duration": 0.1144,
      "velocity": 115,
      "chip": "ym2612"
    },
    {
      "channel": 0,
      "note": 70,
      "start": 5.0047,
      "duration": 0.2331,
      "velocity": 107,
      "chip": "ym2612"
    },
    {
      "channel": 2,
      "note": 58,
      "start": 5.0051,
      "duration": 0.2328,
      "velocity": 107,
      "chip": "ym2612"
    },
    {
      "channel": 3,
      "note": 79,
      "start": 5.0067,
      "duration": 0.2312,
      "velocity": 112,
      "chip": "ym2612"
    },
    {
      "channel": 1,
      "note": 70,
      "start": 5.1836,
      "duration": 0.2331,
      "velocity": 107,
      "chip": "ym2612"
    },
    {
      "channel": 2,
      "note": 61,
      "start": 5.2431,
      "duration": 0.2331,
      "velocity": 107,
      "chip": "ym2612"
    },
    {
      "channel": 3,
      "note": 79,
      "start": 5.2445,
      "duration": 0.1126,
      "velocity": 115,
      "chip": "ym2612"
    },
    {
      "channel": 3,
      "note": 79,
      "start": 5.3624,
      "duration": 0.1139,
      "velocity": 115,
      "chip": "ym2612"
    },
    {
      "channel": 0,
      "note": 77,
      "start": 5.4816,
      "duration": 0.2333,
      "velocity": 107,
      "chip": "ym2612"
    },
    {
      "channel": 2,
      "note": 49,
      "start": 5.482,
      "duration": 0.2329,
      "velocity": 107,
      "chip": "ym2612"
    },
    {
      "channel": 3,
      "note": 79,
      "start": 5.4835,
      "duration": 0.2318,
      "velocity": 112,
      "chip": "ym2612"
    },
    {
      "channel": 1,
      "note": 77,
      "start": 5.6604,
      "duration": 0.2332,
      "velocity": 107,
      "chip": "ym2612"
    },
    {
      "channel": 0,
      "note": 77,
      "start": 5.7201,
      "duration": 0.3524,
      "velocity": 107,
      "chip": "ym2612"
    },
    {
      "channel": 2,
      "note": 51,
      "start": 5.7205,
      "duration": 0.2327,
      "velocity": 107,
      "chip": "ym2612"
    },
    {
      "channel": 3,
      "note": 79,
      "start": 5.7219,
      "duration": 0.1122,
      "velocity": 115,
      "chip": "ym2612"
    },
    {
      "channel": 4,
      "note": 86,
      "start": 5.7224,
      "duration": 0.9463,
      "velocity": 102,
      "chip": "ym2612"
    },
    {
      "channel": 5,
      "note": 82,
      "start": 5.7229,
      "duration": 0.9459,
      "velocity": 102,
      "chip": "ym2612"
    },
    {
      "channel": 3,
      "note": 79,
      "start": 5.8393,
      "duration": 0.1139,
      "velocity": 115,
      "chip": "ym2612"
    },
    {
      "channel": 1,
      "note": 77,
      "start": 5.8989,
      "duration": 0.3524,
      "velocity": 107,
      "chip": "ym2612"
    },
    {
      "channel": 2,
      "note": 56,
      "start": 5.9586,
      "duration": 0.1139,
      "velocity": 107,
      "chip": "ym2612"
    },
    {
      "channel": 3,
      "note": 79,
      "start": 5.96,
      "duration": 0.2319,
      "velocity": 112,
      "chip": "ym2612"
    },
    {
      "channel": 0,
      "note": 75,
      "start": 6.0785,
      "duration": 0.8286,
      "velocity": 107,
      "chip": "ym2612"
    },
    {
      "channel": 2,
      "note": 60,
      "start": 6.0789,
      "duration": 0.1128,
      "velocity": 107,
      "chip": "ym2612"
    },
    {
      "channel": 2,
      "note": 56,
      "start": 6.197,
      "duration": 0.2339,
      "velocity": 107,
      "chip": "ym2612"
    },
    {
      "channel": 3,
      "note": 79,
      "start": 6.1984,
      "duration": 0.1126,
      "velocity": 115,
      "chip": "ym2612"
    },
    {
      "channel": 1,
      "note": 75,
      "start": 6.2566,
      "duration": 0.8299,
      "velocity": 107,
      "chip": "ym2612"
    },
    {
      "channel": 3,
      "note": 79,
      "start": 6.3165,
      "duration": 0.1145,
      "velocity": 115,
      "chip": "ym2612"
    },
    {
      "channel": 2,
      "note": 51,
      "start": 6.4354,
      "duration": 0.114,
      "velocity": 107,
      "chip": "ym2612"
    },
    {
      "channel": 3,
      "note": 79,
      "start": 6.4371,
      "duration": 0.2315,
      "velocity": 112,
      "chip": "ym2612"
    },
    {
      "channel": 2,
      "note": 56,
      "start": 6.5547,
      "duration": 0.2331,
      "velocity": 107,
      "chip": "ym2612"
    },
    {
      "channel": 3,
      "note": 79,
      "start": 6.6749,
      "duration": 0.113,
      "velocity": 115,
      "chip": "ym2612"
    },
    {
      "channel": 4,
      "note": 87,
      "start": 6.6754,
      "duration": 0.9472,
      "velocity": 102,
      "chip": "ym2612"
    },
    {
      "channel": 5,
      "note": 82,
      "start": 6.6762,
      "duration": 0.9465,
      "velocity": 102,
      "chip": "ym2612"
    },
    {
      "channel": 2,
      "note": 56,
      "start": 6.7932,
      "duration": 0.1139,
      "velocity": 107,
      "chip": "ym2612"
    },
    {
      "channel": 3,
      "note": 79,
      "start": 6.7938,
      "duration": 0.1135,
      "velocity": 115,
      "chip": "ym2612"
    },
    {
      "channel": 0,
      "note": 75,
      "start": 6.9124,
      "duration": 0.2332,
      "velocity": 107,
      "chip": "ym2612"
    },
    {
      "channel": 2,
      "note": 51,
      "start": 6.9129,
      "duration": 0.2332,
      "velocity": 107,
      "chip": "ym2612"
    },
    {
      "channel": 3,
      "note": 79,
      "start": 6.9144,
      "duration": 0.2318,
      "velocity": 112,
      "chip": "ym2612"
    },
    {
      "channel": 1,
      "note": 75,
      "start": 7.0912,
      "duration": 0.2332,
      "velocity": 107,
      "chip": "ym2612"
    },
    {
      "channel": 0,
      "note": 73,
      "start": 7.1509,
      "duration": 0.2332,
      "velocity": 107,
      "chip": "ym2612"
    },
    {
      "channel": 2,
      "note": 63,
      "start": 7.1513,
      "duration": 0.2328,
      "velocity": 107,
      "chip": "ym2612"
    },
    {
      "channel": 3,
      "note": 79,
      "start": 7.1527,
      "duration": 0.1121,
      "velocity": 115,
      "chip": "ym2612"
    },
    {
      "channel": 3,
      "note": 79,
      "start": 7.2702,
      "duration": 0.114,
      "velocity": 115,
      "chip": "ym2612"
    },
    {
      "channel": 1,
      "note": 73,
      "start": 7.3297,
      "duration": 0.2332,
      "velocity": 107,
      "chip": "ym2612"
    },
    {
      "channel": 0,
      "note": 75,
      "start": 7.3894,
      "duration": 0.1138,
      "velocity": 107,
      "chip": "ym2612"
    },
    {
      "channel": 2,
      "note": 51,
      "start": 7.3898,
      "duration": 0.2326,
      "velocity": 107,
      "chip": "ym2612"
    },
    {
      "channel": 3,
      "note": 79,
      "start": 7.3912,
      "duration": 0.2313,
      "velocity": 112,
      "chip": "ym2612"
    },
    {
      "channel": 0,
      "note": 77,
      "start": 7.5086,
      "duration": 0.5907,
      "velocity": 107,
      "chip": "ym2612"
    },
    {
      "channel": 1,
      "note": 75,
      "start": 7.5681,
      "duration": 0.0548,
      "velocity": 107,
      "chip": "ym2612"
    },
    {
      "channel": 2,
      "note": 49,
      "start": 7.6278,
      "duration": 0.2332,
      "velocity": 107,
      "chip": "ym2612"
    },
    {
      "channel": 3,
      "note": 79,
      "start": 7.6292,
      "duration": 0.1125,
      "velocity": 115,
      "chip": "ym2612"
    },
    {
      "channel": 4,
      "note": 89,
      "start": 7.6298,
      "duration": 1.9007,
      "velocity": 102,
      "chip": "ym2612"
    },
    {
      "channel": 5,
      "note": 85,
      "start": 7.6304,
      "duration": 1.9002,
      "velocity": 102,
      "chip": "ym2612"
    },
    {
      "channel": 3,
      "note": 79,
      "start": 7.7471,
      "duration": 0.114,
      "velocity": 115,
      "chip": "ym2612"
    },
    {
      "channel": 1,
      "note": 77,
      "start": 7.8066,
      "duration": 0.4717,
      "velocity": 107,
      "chip": "ym2612"
    },
    {
      "channel": 2,
      "note": 53,
      "start": 7.8665,
      "duration": 0.1137,
      "velocity": 107,
      "chip": "ym2612"
    },
    {
      "channel": 3,
      "note": 79,
      "start": 7.8678,
      "duration": 0.2317,
      "velocity": 112,
      "chip": "ym2612"
    },
    {
      "channel": 0,
      "note": 77,
      "start": 8.1048,
      "duration": 0.3522,
      "velocity": 107,
      "chip": "ym2612"
    },
    {
      "channel": 2,
      "note": 49,
      "start": 8.1053,
      "duration": 0.1133,
      "velocity": 107,
      "chip": "ym2612"
    },
    {
      "channel": 3,
      "note": 79,
      "start": 8.1069,
      "duration": 0.1118,
      "velocity": 115,
      "chip": "ym2612"
    },
    {
      "channel": 2,
      "note": 53,
      "start": 8.2239,
      "duration": 0.2332,
      "velocity": 107,
      "chip": "ym2612"
    },
    {
      "channel": 3,
      "note": 79,
      "start": 8.2245,
      "duration": 0.1133,
      "velocity": 115,
      "chip": "ym2612"
    },
    {
      "channel": 1,
      "note": 77,
      "start": 8.2835,
      "duration": 0.3527,
      "velocity": 107,
      "chip": "ym2612"
    },
    {
      "channel": 3,
      "note": 79,
      "start": 8.3441,
      "duration": 0.2323,
      "velocity": 112,
      "chip": "ym2612"
    },
    {
      "channel": 0,
      "note": 73,
      "start": 8.4625,
      "duration": 0.3524,
      "velocity": 107,
      "chip": "ym2612"
    },
    {
      "channel": 2,
      "note": 49,
      "start": 8.4629,
      "duration": 0.352,
      "velocity": 107,
      "chip": "ym2612"
    },
    {
      "channel": 3,
      "note": 79,
      "start": 8.5825,
      "duration": 0.113,
      "velocity": 115,
      "chip": "ym2612"
    },
    {
      "channel": 1,
      "note": 73,
      "start": 8.6412,
      "duration": 0.3524,
      "velocity": 107,
      "chip": "ym2612"
    },
    {
      "channel": 3,
      "note": 79,
      "start": 8.701,
      "duration": 0.1141,
      "velocity": 115,
      "chip": "ym2612"
    },
    {
      "channel": 0,
      "note": 70,
      "start": 8.8203,
      "duration": 0.233,
      "velocity": 107,
      "chip": "ym2612"
    },
    {
      "channel": 2,
      "note": 58,
      "start": 8.8207,
      "duration": 0.2327,
      "velocity": 107,
      "chip": "ym2612"
    },
    {
      "channel": 3,
      "note": 79,
      "start": 8.8221,
      "duration": 0.2314,
      "velocity": 112,
      "chip": "ym2612"
    },
    {
      "channel": 1,
      "note": 70,
      "start": 8.999,
      "duration": 0.2332,
      "velocity": 107,
      "chip": "ym2612"
    },
    {
      "channel": 2,
      "note": 61,
      "start": 9.0585,
      "duration": 0.2332,
      "velocity": 107,
      "chip": "ym2612"
    },
    {
      "channel": 3,
      "note": 79,
      "start": 9.0599,
      "duration": 0.1129,
      "velocity": 115,
      "chip": "ym2612"
    },
    {
      "channel": 3,
      "note": 79,
      "start": 9.1778,
      "duration": 0.114,
      "velocity": 115,
      "chip": "ym2612"
    },
    {
      "channel": 0,
      "note": 77,
      "start": 9.297,
      "duration": 0.2332,
      "velocity": 107,
      "chip": "ym2612"
    },
    {
      "channel": 2,
      "note": 53,
      "start": 9.2975,
      "duration": 0.2329,
      "velocity": 107,
      "chip": "ym2612"
    },
    {
      "channel": 3,
      "note": 79,
      "start": 9.2988,
      "duration": 0.2319,
      "velocity": 112,
      "chip": "ym2612"
    },
    {
      "channel": 1,
      "note": 77,
      "start": 9.4761,
      "duration": 0.2329,
      "velocity": 107,
      "chip": "ym2612"
    },
    {
      "channel": 0,
      "note": 75,
      "start": 9.5363,
      "duration": 0.3516,
      "velocity": 107,
      "chip": "ym2612"
    },
    {
      "channel": 2,
      "note": 48,
      "start": 9.5368,
      "duration": 0.2319,
      "velocity": 107,
      "chip": "ym2612"
    },
    {
      "channel": 3,
      "note": 79,
      "start": 9.5381,
      "duration": 0.1113,
      "velocity": 115,
      "chip": "ym2612"
    },
    {
      "channel": 4,
      "note": 87,
      "start": 9.5386,
      "duration": 1.8996,
      "velocity": 102,
      "chip": "ym2612"
    },
    {
      "channel": 5,
      "note": 84,
      "start": 9.5392,
      "duration": 1.8992,
      "velocity": 102,
      "chip": "ym2612"
    },
    {
      "channel": 3,
      "note": 79,
      "start": 9.6549,
      "duration": 0.1139,
      "velocity": 115,
      "chip": "ym2612"
    },
    {
      "channel": 1,
      "note": 75,
      "start": 9.7143,
      "duration": 0.3525,
      "velocity": 107,
      "chip": "ym2612"
    },
    {
      "channel": 2,
      "note": 51,
      "start": 9.774,
      "duration": 0.114,
      "velocity": 107,
      "chip": "ym2612"
    },
    {
      "channel": 3,
      "note": 79,
      "start": 9.7754,
      "duration": 0.2319,
      "velocity": 112,
      "chip": "ym2612"
    },
    {
      "channel": 0,
      "note": 77,
      "start": 9.8932,
      "duration": 0.3524,
      "velocity": 107,
      "chip": "ym2612"
    },
    {
      "channel": 2,
      "note": 48,
      "start": 10.0124,
      "duration": 0.114,
      "velocity": 107,
      "chip": "ym2612"
    },
    {
      "channel": 3,
      "note": 79,
      "start": 10.0137,
      "duration": 0.1127,
      "velocity": 115,
      "chip": "ym2612"
    },
    {
      "channel": 1,
      "note": 77,
      "start": 10.072,
      "duration": 0.3524,
      "velocity": 107,
      "chip": "ym2612"
    },
    {
      "channel": 2,
      "note": 51,
      "start": 10.1318,
      "duration": 0.233,
      "velocity": 107,
      "chip": "ym2612"
    },
    {
      "channel": 3,
      "note": 79,
      "start": 10.1323,
      "duration": 0.1135,
      "velocity": 115,
      "chip": "ym2612"
    },
    {
      "channel": 0,
      "note": 79,
      "start": 10.2509,
      "duration": 0.3532,
      "velocity": 107,
      "chip": "ym2612"
    },
    {
      "channel": 3,
      "note": 79,
      "start": 10.2522,
      "duration": 0.2318,
      "velocity": 112,
      "chip": "ym2612"
    },
    {
      "channel": 2,
      "note": 48,
      "start": 10.3701,
      "duration": 0.3525,
      "velocity": 107,
      "chip": "ym2612"
    },
    {
      "channel": 1,
      "note": 79,
      "start": 10.4298,
      "duration": 0.3523,
      "velocity": 107,
      "chip": "ym2612"
    },
    {
      "channel": 3,
      "note": 79,
      "start": 10.4902,
      "duration": 0.1139,
      "velocity": 115,
      "chip": "ym2612"
    },
    {
      "channel": 0,
      "note": 72,
      "start": 10.6087,
      "duration": 0.8293,
      "velocity": 107,
      "chip": "ym2612"
    },
    {
      "channel": 3,
      "note": 79,
      "start": 10.6092,
      "duration": 0.1135,
      "velocity": 115,
      "chip": "ym2612"
    },
    {
      "channel": 2,
      "note": 56,
      "start": 10.7278,
      "duration": 0.2331,
      "velocity": 107,
      "chip": "ym2612"
    },
    {
      "channel": 3,
      "note": 79,
      "start": 10.7291,
      "duration": 0.2319,
      "velocity": 112,
      "chip": "ym2612"
    },
    {
      "channel": 1,
      "note": 72,
      "start": 10.7874,
      "duration": 0.8294,
      "velocity": 107,
      "chip": "ym2612"
    },
    {
      "channel": 2,
      "note": 60,
      "start": 10.9666,
      "duration": 0.2328,
      "velocity": 107,
      "chip": "ym2612"
    },
    {
      "channel": 3,
      "note": 79,
      "start": 10.968,
      "duration": 0.1122,
      "velocity": 115,
      "chip": "ym2612"
    },
    {
      "channel": 3,
      "note": 79,
      "start": 11.0856,
      "duration": 0.1139,
      "velocity": 115,
      "chip": "ym2612"
    },
    {
      "channel": 2,
      "note": 51,
      "start": 11.2047,
      "duration": 0.2333,
      "velocity": 107,
      "chip": "ym2612"
    },
    {
      "channel": 3,
      "note": 79,
      "start": 11.2063,
      "duration": 0.2318,
      "velocity": 112,
      "chip": "ym2612"
    },
    {
      "channel": 0,
      "note": 73,
      "start": 11.4433,
      "duration": 0.2331,
      "velocity": 107,
      "chip": "ym2612"
    },
    {
      "channel": 2,
      "note": 46,
      "start": 11.4438,
      "duration": 0.2328,
      "velocity": 107,
      "chip": "ym2612"
    },
    {
      "channel": 3,
      "note": 79,
      "start": 11.4451,
      "duration": 0.112,
      "velocity": 115,
      "chip": "ym2612"
    },
    {
      "channel": 4,
      "note": 89,
      "start": 11.4456,
      "duration": 1.9008,
      "velocity": 102,
      "chip": "ym2612"
    },
    {
      "channel": 5,
      "note": 85,
      "start": 11.4464,
      "duration": 1.9002,
      "velocity": 102,
      "chip": "ym2612"
    },
    {
      "channel": 3,
      "note": 79,
      "start": 11.5625,
      "duration": 0.1142,
      "velocity": 115,
      "chip": "ym2612"
    },
    {
      "channel": 1,
      "note": 73,
      "start": 11.6225,
      "duration": 0.2328,
      "velocity": 107,
      "chip": "ym2612"
    },
    {
      "channel": 0,
      "note": 70,
      "start": 11.6818,
      "duration": 0.1138,
      "velocity": 107,
      "chip": "ym2612"
    },
    {
      "channel": 2,
      "note": 49,
      "start": 11.6823,
      "duration": 0.1135,
      "velocity": 107,
      "chip": "ym2612"
    },
    {
      "channel": 3,
      "note": 79,
      "start": 11.6836,
      "duration": 0.2315,
      "velocity": 112,
      "chip": "ym2612"
    },
    {
      "channel": 0,
      "note": 72,
      "start": 11.8009,
      "duration": 0.114,
      "velocity": 107,
      "chip": "ym2612"
    },
    {
      "channel": 1,
      "note": 70,
      "start": 11.8605,
      "duration": 0.114,
      "velocity": 107,
      "chip": "ym2612"
    },
    {
      "channel": 2,
      "note": 46,
      "start": 11.9201,
      "duration": 0.114,
      "velocity": 107,
      "chip": "ym2612"
    },
    {
      "channel": 3,
      "note": 79,
      "start": 11.9215,
      "duration": 0.1128,
      "velocity": 115,
      "chip": "ym2612"
    },
    {
      "channel": 1,
      "note": 72,
      "start": 11.9798,
      "duration": 0.1138,
      "velocity": 107,
      "chip": "ym2612"
    },
    {
      "channel": 0,
      "note": 68,
      "start": 12.0393,
      "duration": 0.114,
      "velocity": 107,
      "chip": "ym2612"
    },
    {
      "channel": 2,
      "note": 49,
      "start": 12.0398,
      "duration": 0.2327,
      "velocity": 107,
      "chip": "ym2612"
    },
    {
      "channel": 3,
      "note": 79,
      "start": 12.0403,
      "duration": 0.1131,
      "velocity": 115,
      "chip": "ym2612"
    },
    {
      "channel": 3,
      "note": 79,
      "start": 12.1595,
      "duration": 0.2322,
      "velocity": 112,
      "chip": "ym2612"
    },
    {
      "channel": 1,
      "note": 68,
      "start": 12.2182,
      "duration": 0.1139,
      "velocity": 107,
      "chip": "ym2612"
    },
    {
      "channel": 0,
      "note": 65,
      "start": 12.2778,
      "duration": 0.3524,
      "velocity": 107,
      "chip": "ym2612"
    },
    {
      "channel": 2,
      "note": 46,
      "start": 12.2783,
      "duration": 0.3521,
      "velocity": 107,
      "chip": "ym2612"
    },
    {
      "channel": 3,
      "note": 79,
      "start": 12.3981,
      "duration": 0.1129,
      "velocity": 115,
      "chip": "ym2612"
    },
    {
      "channel": 1,
      "note": 65,
      "start": 12.4567,
      "duration": 0.3525,
      "velocity": 107,
      "chip": "ym2612"
    },
    {
      "channel": 3,
      "note": 79,
      "start": 12.5166,
      "duration": 0.1136,
      "velocity": 115,
      "chip": "ym2612"
    },
    {
      "channel": 0,
      "note": 65,
      "start": 12.6355,
      "duration": 0.4717,
      "velocity": 107,
      "chip": "ym2612"
    },
    {
      "channel": 2,
      "note": 53,
      "start": 12.6362,
      "duration": 0.2324,
      "velocity": 107,
      "chip": "ym2612"
    },
    {
      "channel": 3,
      "note": 79,
      "start": 12.6376,
      "duration": 0.2312,
      "velocity": 112,
      "chip": "ym2612"
    },
    {
      "channel": 1,
      "note": 65,
      "start": 12.8144,
      "duration": 0.4717,
      "velocity": 107,
      "chip": "ym2612"
    },
    {
      "channel": 2,
      "note": 58,
      "start": 12.874,
      "duration": 0.2333,
      "velocity": 107,
      "chip": "ym2612"
    },
    {
      "channel": 3,
      "note": 79,
      "start": 12.8753,
      "duration": 0.1126,
      "velocity": 115,
      "chip": "ym2612"
    },
    {
      "channel": 3,
      "note": 79,
      "start": 12.9935,
      "duration": 0.1139,
      "velocity": 115,
      "chip": "ym2612"
    },
    {
      "channel": 0,
      "note": 67,
      "start": 13.1124,
      "duration": 0.2337,
      "velocity": 107,
      "chip": "ym2612"
    },
    {
      "channel": 2,
      "note": 49,
      "start": 13.113,
      "duration": 0.2333,
      "velocity": 107,
      "chip": "ym2612"
    },
    {
      "channel": 3,
      "note": 79,
      "start": 13.1144,
      "duration": 0.232,
      "velocity": 112,
      "chip": "ym2612"
    },
    {
      "channel": 1,
      "note": 67,
      "start": 13.2913,
      "duration": 0.2331,
      "velocity": 107,
      "chip": "ym2612"
    },
    {
      "channel": 0,
      "note": 68,
      "start": 13.351,
      "duration": 0.9485,
      "velocity": 107,
      "chip": "ym2612"
    },
    {
      "channel": 2,
      "note": 49,
      "start": 13.3515,
      "duration": 0.2327,
      "velocity": 107,
      "chip": "ym2612"
    },
    {
      "channel": 3,
      "note": 79,
      "start": 13.3528,
      "duration": 0.1121,
      "velocity": 115,
      "chip": "ym2612"
    },
    {
      "channel": 4,
      "note": 89,
      "start": 13.3533,
      "duration": 0.9464,
      "velocity": 102,
      "chip": "ym2612"
    },
    {
      "channel": 5,
      "note": 84,
      "start": 13.3538,
      "duration": 0.946,
      "velocity": 102,
      "chip": "ym2612"
    },
    {
      "channel": 3,
      "note": 79,
      "start": 13.4702,
      "duration": 0.114,
      "velocity": 115,
      "chip": "ym2612"
    },
    {
      "channel": 1,
      "note": 68,
      "start": 13.5298,
      "duration": 0.9485,
      "velocity": 107,
      "chip": "ym2612"
    },
    {
      "channel": 2,
      "note": 53,
      "start": 13.5894,
      "duration": 0.1139,
      "velocity": 107,
      "chip": "ym2612"
    },
    {
      "channel": 3,
      "note": 79,
      "start": 13.5907,
      "duration": 0.232,
      "velocity": 112,
      "chip": "ym2612"
    },
    {
      "channel": 2,
      "note": 49,
      "start": 13.8279,
      "duration": 0.1139,
      "velocity": 107,
      "chip": "ym2612"
    },
    {
      "channel": 3,
      "note": 79,
      "start": 13.8294,
      "duration": 0.1125,
      "velocity": 115,
      "chip": "ym2612"
    },
    {
      "channel": 2,
      "note": 53,
      "start": 13.9472,
      "duration": 0.2331,
      "velocity": 107,
      "chip": "ym2612"
    },
    {
      "channel": 3,
      "note": 79,
      "start": 13.9477,
      "duration": 0.1138,
      "velocity": 115,
      "chip": "ym2612"
    },
    {
      "channel": 3,
      "note": 79,
      "start": 14.0675,
      "duration": 0.2321,
      "velocity": 112,
      "chip": "ym2612"
    },
    {
      "channel": 2,
      "note": 46,
      "start": 14.1855,
      "duration": 0.3524,
      "velocity": 107,
      "chip": "ym2612"
    },
    {
      "channel": 0,
      "note": 67,
      "start": 14.3049,
      "duration": 0.9534,
      "velocity": 107,
      "chip": "ym2612"
    },
    {
      "channel": 3,
      "note": 79,
      "start": 14.3064,
      "duration": 0.1123,
      "velocity": 115,
      "chip": "ym2612"
    },
    {
      "channel": 4,
      "note": 91,
      "start": 14.307,
      "duration": 0.9516,
      "velocity": 102,
      "chip": "ym2612"
    },
    {
      "channel": 5,
      "note": 85,
      "start": 14.3075,
      "duration": 0.9512,
      "velocity": 102,
      "chip": "ym2612"
    },
    {
      "channel": 3,
      "note": 79,
      "start": 14.4248,
      "duration": 0.1132,
      "velocity": 115,
      "chip": "ym2612"
    },
    {
      "channel": 1,
      "note": 67,
      "start": 14.4837,
      "duration": 0.7751,
      "velocity": 107,
      "chip": "ym2612"
    },
    {
      "channel": 2,
      "note": 55,
      "start": 14.5432,
      "duration": 0.2332,
      "velocity": 107,
      "chip": "ym2612"
    },
    {
      "channel": 3,
      "note": 79,
      "start": 14.5447,
      "duration": 0.2318,
      "velocity": 112,
      "chip": "ym2612"
    },
    {
      "channel": 2,
      "note": 60,
      "start": 14.7818,
      "duration": 0.233,
      "velocity": 107,
      "chip": "ym2612"
    },
    {
      "channel": 3,
      "note": 79,
      "start": 14.7831,
      "duration": 0.1125,
      "velocity": 115,
      "chip": "ym2612"
    },
    {
      "channel": 3,
      "note": 79,
      "start": 14.901,
      "duration": 0.1139,
      "velocity": 115,
      "chip": "ym2612"
    },
    {
      "channel": 2,
      "note": 51,
      "start": 15.0201,
      "duration": 0.2382,
      "velocity": 107,
      "chip": "ym2612"
    },
    {
      "channel": 3,
      "note": 79,
      "start": 15.0215,
      "duration": 0.2369,
      "velocity": 112,
      "chip": "ym2612"
    },
    {
      "channel": 0,
      "note": 70,
      "start": 15.2637,
      "duration": 0.1141,
      "velocity": 107,
      "chip": "ym2612"
    },
    {
      "channel": 2,
      "note": 51,
      "start": 15.2641,
      "duration": 0.2329,
      "velocity": 107,
      "chip": "ym2612"
    },
    {
      "channel": 3,
      "note": 79,
      "start": 15.2656,
      "duration": 0.1123,
      "velocity": 115,
      "chip": "ym2612"
    },
    {
      "channel": 4,
      "note": 87,
      "start": 15.2674,
      "duration": 1.8995,
      "velocity": 102,
      "chip": "ym2612"
    },
    {
      "channel": 5,
      "note": 84,
      "start": 15.2691,
      "duration": 1.8978,
      "velocity": 102,
      "chip": "ym2612"
    },
    {
      "channel": 0,
      "note": 72,
      "start": 15.383,
      "duration": 0.114,
      "velocity": 107,
      "chip": "ym2612"
    },
    {
      "channel": 3,
      "note": 79,
      "start": 15.3835,
      "duration": 0.1137,
      "velocity": 115,
      "chip": "ym2612"
    },
    {
      "channel": 1,
      "note": 70,
      "start": 15.443,
      "duration": 0.1136,
      "velocity": 107,
      "chip": "ym2612"
    },
    {
      "channel": 2,
      "note": 56,
      "start": 15.5024,
      "duration": 0.1139,
      "velocity": 107,
      "chip": "ym2612"
    },
    {
      "channel": 3,
      "note": 79,
      "start": 15.5038,
      "duration": 0.2317,
      "velocity": 112,
      "chip": "ym2612"
    },
    {
      "channel": 1,
      "note": 72,
      "start": 15.5618,
      "duration": 0.1139,
      "velocity": 107,
      "chip": "ym2612"
    },
    {
      "channel": 0,
      "note": 72,
      "start": 15.6215,
      "duration": 0.1139,
      "velocity": 107,
      "chip": "ym2612"
    },
    {
      "channel": 2,
      "note": 51,
      "start": 15.7407,
      "duration": 0.1139,
      "velocity": 107,
      "chip": "ym2612"
    },
    {
      "channel": 3,
      "note": 79,
      "start": 15.742,
      "duration": 0.1127,
      "velocity": 115,
      "chip": "ym2612"
    },
    {
      "channel": 1,
      "note": 72,
      "start": 15.8004,
      "duration": 0.1138,
      "velocity": 107,
      "chip": "ym2612"
    },
    {
      "channel": 0,
      "note": 72,
      "start": 15.86,
      "duration": 0.1139,
      "velocity": 107,
      "chip": "ym2612"
    },
    {
      "channel": 2,
      "note": 56,
      "start": 15.8604,
      "duration": 0.2326,
      "velocity": 107,
      "chip": "ym2612"
    },
    {
      "channel": 3,
      "note": 79,
      "start": 15.8609,
      "duration": 0.1131,
      "velocity": 115,
      "chip": "ym2612"
    },
    {
      "channel": 3,
      "note": 79,
      "start": 15.98,
      "duration": 0.2322,
      "velocity": 112,
      "chip": "ym2612"
    },
    {
      "channel": 1,
      "note": 72,
      "start": 16.0388,
      "duration": 0.1139,
      "velocity": 107,
      "chip": "ym2612"
    },
    {
      "channel": 0,
      "note": 68,
      "start": 16.0984,
      "duration": 0.2333,
      "velocity": 107,
      "chip": "ym2612"
    },
    {
      "channel": 2,
      "note": 51,
      "start": 16.0988,
      "duration": 0.3521,
      "velocity": 107,
      "chip": "ym2612"
    },
    {
      "channel": 3,
      "note": 79,
      "start": 16.2187,
      "duration": 0.1129,
      "velocity": 115,
      "chip": "ym2612"
    },
    {
      "channel": 1,
      "note": 68,
      "start": 16.2772,
      "duration": 0.2332,
      "velocity": 107,
      "chip": "ym2612"
    },
    {
      "channel": 3,
      "note": 79,
      "start": 16.3369,
      "duration": 0.1139,
      "velocity": 115,
      "chip": "ym2612"
    },
    {
      "channel": 0,
      "note": 72,
      "start": 16.4563,
      "duration": 0.2329,
      "velocity": 107,
      "chip": "ym2612"
    },
    {
      "channel": 2,
      "note": 60,
      "start": 16.4568,
      "duration": 0.2325,
      "velocity": 107,
      "chip": "ym2612"
    },
    {
      "channel": 3,
      "note": 79,
      "start": 16.4582,
      "duration": 0.2313,
      "velocity": 112,
      "chip": "ym2612"
    },
    {
      "channel": 1,
      "note": 72,
      "start": 16.6349,
      "duration": 0.2332,
      "velocity": 107,
      "chip": "ym2612"
    },
    {
      "channel": 0,
      "note": 70,
      "start": 16.6946,
      "duration": 0.2331,
      "velocity": 107,
      "chip": "ym2612"
    },
    {
      "channel": 2,
      "note": 63,
      "start": 16.695,
      "duration": 0.2328,
      "velocity": 107,
      "chip": "ym2612"
    },
    {
      "channel": 3,
      "note": 79,
      "start": 16.6966,
      "duration": 0.112,
      "velocity": 115,
      "chip": "ym2612"
    },
    {
      "channel": 3,
      "note": 79,
      "start": 16.8139,
      "duration": 0.1139,
      "velocity": 115,
      "chip": "ym2612"
    },
    {
      "channel": 1,
      "note": 70,
      "start": 16.8735,
      "duration": 0.2331,
      "velocity": 107,
      "chip": "ym2612"
    },
    {
      "channel": 0,
      "note": 72,
      "start": 16.9331,
      "duration": 0.1138,
      "velocity": 107,
      "chip": "ym2612"
    },
    {
      "channel": 2,
      "note": 56,
      "start": 16.9337,
      "duration": 0.233,
      "velocity": 107,
      "chip": "ym2612"
    },
    {
      "channel": 3,
      "note": 79,
      "start": 16.935,
      "duration": 0.2318,
      "velocity": 112,
      "chip": "ym2612"
    },
    {
      "channel": 0,
      "note": 73,
      "start": 17.0524,
      "duration": 0.4715,
      "velocity": 107,
      "chip": "ym2612"
    },
    {
      "channel": 1,
      "note": 72,
      "start": 17.1119,
      "duration": 0.114,
      "velocity": 107,
      "chip": "ym2612"
    },
    {
      "channel": 2,
      "note": 49,
      "start": 17.1715,
      "duration": 0.2331,
      "velocity": 107,
      "chip": "ym2612"
    },
    {
      "channel": 3,
      "note": 79,
      "start": 17.1728,
      "duration": 0.1127,
      "velocity": 115,
      "chip": "ym2612"
    },
    {
      "channel": 4,
      "note": 89,
      "start": 17.1734,
      "duration": 1.9008,
      "velocity": 102,
      "chip": "ym2612"
    },
    {
      "channel": 5,
      "note": 85,
      "start": 17.1739,
      "duration": 1.9004,
      "velocity": 102,
      "chip": "ym2612"
    },
    {
      "channel": 1,
      "note": 73,
      "start": 17.2311,
      "duration": 0.4717,
      "velocity": 107,
      "chip": "ym2612"
    },
    {
      "channel": 3,
      "note": 79,
      "start": 17.2908,
      "duration": 0.1139,
      "velocity": 115,
      "chip": "ym2612"
    },
    {
      "channel": 2,
      "note": 53,
      "start": 17.41,
      "duration": 0.1139,
      "velocity": 107,
      "chip": "ym2612"
    },
    {
      "channel": 3,
      "note": 79,
      "start": 17.4114,
      "duration": 0.2318,
      "velocity": 112,
      "chip": "ym2612"
    },
    {
      "channel": 0,
      "note": 72,
      "start": 17.5295,
      "duration": 0.3524,
      "velocity": 107,
      "chip": "ym2612"
    },
    {
      "channel": 2,
      "note": 49,
      "start": 17.6484,
      "duration": 0.1139,
      "velocity": 107,
      "chip": "ym2612"
    },
    {
      "channel": 3,
      "note": 79,
      "start": 17.6498,
      "duration": 0.1126,
      "velocity": 115,
      "chip": "ym2612"
    },
    {
      "channel": 1,
      "note": 72,
      "start": 17.708,
      "duration": 0.3525,
      "velocity": 107,
      "chip": "ym2612"
    },
    {
      "channel": 2,
      "note": 53,
      "start": 17.7676,
      "duration": 0.2332,
      "velocity": 107,
      "chip": "ym2612"
    },
    {
      "channel": 3,
      "note": 79,
      "start": 17.7682,
      "duration": 0.1139,
      "velocity": 115,
      "chip": "ym2612"
    },
    {
      "channel": 0,
      "note": 70,
      "start": 17.8869,
      "duration": 0.4716,
      "velocity": 107,
      "chip": "ym2612"
    },
    {
      "channel": 3,
      "note": 79,
      "start": 17.8882,
      "duration": 0.2319,
      "velocity": 112,
      "chip": "ym2612"
    },
    {
      "channel": 2,
      "note": 49,
      "start": 18.0063,
      "duration": 0.3522,
      "velocity": 107,
      "chip": "ym2612"
    },
    {
      "channel": 1,
      "note": 70,
      "start": 18.0657,
      "duration": 0.4716,
      "velocity": 107,
      "chip": "ym2612"
    },
    {
      "channel": 3,
      "note": 79,
      "start": 18.1266,
      "duration": 0.1127,
      "velocity": 115,
      "chip": "ym2612"
    },
    {
      "channel": 3,
      "note": 79,
      "start": 18.2446,
      "duration": 0.114,
      "velocity": 115,
      "chip": "ym2612"
    },
    {
      "channel": 0,
      "note": 70,
      "start": 18.3639,
      "duration": 0.4715,
      "velocity": 107,
      "chip": "ym2612"
    },
    {
      "channel": 2,
      "note": 58,
      "start": 18.3643,
      "duration": 0.2334,
      "velocity": 107,
      "chip": "ym2612"
    },
    {
      "channel": 3,
      "note": 79,
      "start": 18.3658,
      "duration": 0.2321,
      "velocity": 112,
      "chip": "ym2612"
    },
    {
      "channel": 1,
      "note": 70,
      "start": 18.5427,
      "duration": 0.4716,
      "velocity": 107,
      "chip": "ym2612"
    },
    {
      "channel": 2,
      "note": 61,
      "start": 18.6022,
      "duration": 0.2333,
      "velocity": 107,
      "chip": "ym2612"
    },
    {
      "channel": 3,
      "note": 79,
      "start": 18.6036,
      "duration": 0.1128,
      "velocity": 115,
      "chip": "ym2612"
    },
    {
      "channel": 3,
      "note": 79,
      "start": 18.7216,
      "duration": 0.114,
      "velocity": 115,
      "chip": "ym2612"
    },
    {
      "channel": 0,
      "note": 72,
      "start": 18.8407,
      "duration": 0.2331,
      "velocity": 107,
      "chip": "ym2612"
    },
    {
      "channel": 2,
      "note": 49,
      "start": 18.8412,
      "duration": 0.2327,
      "velocity": 107,
      "chip": "ym2612"
    },
    {
      "channel": 3,
      "note": 79,
      "start": 18.8425,
      "duration": 0.2315,
      "velocity": 112,
      "chip": "ym2612"
    },
    {
      "channel": 1,
      "note": 72,
      "start": 19.0197,
      "duration": 0.2332,
      "velocity": 107,
      "chip": "ym2612"
    },
    {
      "channel": 0,
      "note": 73,
      "start": 19.0792,
      "duration": 0.3524,
      "velocity": 107,
      "chip": "ym2612"
    },
    {
      "channel": 2,
      "note": 49,
      "start": 19.0796,
      "duration": 0.2329,
      "velocity": 107,
      "chip": "ym2612"
    },
    {
      "channel": 3,
      "note": 79,
      "start": 19.0811,
      "duration": 0.112,
      "velocity": 115,
      "chip": "ym2612"
    },
    {
      "channel": 4,
      "note": 89,
      "start": 19.0816,
      "duration": 1.9003,
      "velocity": 102,
      "chip": "ym2612"
    },
    {
      "channel": 5,
      "note": 85,
      "start": 19.0821,
      "duration": 1.8999,
      "velocity": 102,
      "chip": "ym2612"
    },
    {
      "channel": 3,
      "note": 79,
      "start": 19.1986,
      "duration": 0.114,
      "velocity": 115,
      "chip": "ym2612"
    },
    {
      "channel": 1,
      "note": 73,
      "start": 19.2581,
      "duration": 0.3524,
      "velocity": 107,
      "chip": "ym2612"
    },
    {
      "channel": 2,
      "note": 53,
      "start": 19.3178,
      "duration": 0.1139,
      "velocity": 107,
      "chip": "ym2612"
    },
    {
      "channel": 3,
      "note": 79,
      "start": 19.3191,
      "duration": 0.2318,
      "velocity": 112,
      "chip": "ym2612"
    },
    {
      "channel": 0,
      "note": 72,
      "start": 19.437,
      "duration": 0.3522,
      "velocity": 107,
      "chip": "ym2612"
    },
    {
      "channel": 2,
      "note": 49,
      "start": 19.5564,
      "duration": 0.1137,
      "velocity": 107,
      "chip": "ym2612"
    },
    {
      "channel": 3,
      "note": 79,
      "start": 19.5577,
      "duration": 0.1124,
      "velocity": 115,
      "chip": "ym2612"
    },
    {
      "channel": 1,
      "note": 72,
      "start": 19.6163,
      "duration": 0.3522,
      "velocity": 107,
      "chip": "ym2612"
    },
    {
      "channel": 2,
      "note": 53,
      "start": 19.6754,
      "duration": 0.233,
      "velocity": 107,
      "chip": "ym2612"
    },
    {
      "channel": 3,
      "note": 79,
      "start": 19.6762,
      "duration": 0.1131,
      "velocity": 115,
      "chip": "ym2612"
    },
    {
      "channel": 0,
      "note": 73,
      "start": 19.7946,
      "duration": 0.4717,
      "velocity": 107,
      "chip": "ym2612"
    },
    {
      "channel": 3,
      "note": 79,
      "start": 19.7963,
      "duration": 0.2315,
      "velocity": 112,
      "chip": "ym2612"
    },
    {
      "channel": 2,
      "note": 49,
      "start": 19.9139,
      "duration": 0.3526,
      "velocity": 107,
      "chip": "ym2612"
    },
    {
      "channel": 1,
      "note": 73,
      "start": 19.9734,
      "duration": 0.4716,
      "velocity": 107,
      "chip": "ym2612"
    },
    {
      "channel": 3,
      "note": 79,
      "start": 20.0339,
      "duration": 0.113,
      "velocity": 115,
      "chip": "ym2612"
    },
    {
      "channel": 3,
      "note": 79,
      "start": 20.1523,
      "duration": 0.1142,
      "velocity": 115,
      "chip": "ym2612"
    },
    {
      "channel": 0,
      "note": 70,
      "start": 20.2715,
      "duration": 0.2332,
      "velocity": 107,
      "chip": "ym2612"
    },
    {
      "channel": 2,
      "note": 58,
      "start": 20.272,
      "duration": 0.2329,
      "velocity": 107,
      "chip": "ym2612"
    },
    {
      "channel": 3,
      "note": 79,
      "start": 20.2733,
      "duration": 0.2316,
      "velocity": 112,
      "chip": "ym2612"
    },
    {
      "channel": 1,
      "note": 70,
      "start": 20.4505,
      "duration": 0.2338,
      "velocity": 107,
      "chip": "ym2612"
    },
    {
      "channel": 2,
      "note": 61,
      "start": 20.51,
      "duration": 0.2332,
      "velocity": 107,
      "chip": "ym2612"
    },
    {
      "channel": 3,
      "note": 79,
      "start": 20.5113,
      "duration": 0.1125,
      "velocity": 115,
      "chip": "ym2612"
    },
    {
      "channel": 3,
      "note": 79,
      "start": 20.6293,
      "duration": 0.1141,
      "velocity": 115,
      "chip": "ym2612"
    },
    {
      "channel": 0,
      "note": 77,
      "start": 20.7485,
      "duration": 0.2332,
      "velocity": 107,
      "chip": "ym2612"
    },
    {
      "channel": 2,
      "note": 49,
      "start": 20.7489,
      "duration": 0.2329,
      "velocity": 107,
      "chip": "ym2612"
    },
    {
      "channel": 3,
      "note": 79,
      "start": 20.7502,
      "duration": 0.2319,
      "velocity": 112,
      "chip": "ym2612"
    },
    {
      "channel": 1,
      "note": 77,
      "start": 20.9273,
      "duration": 0.2332,
      "velocity": 107,
      "chip": "ym2612"
    },
    {
      "channel": 0,
      "note": 77,
      "start": 20.9873,
      "duration": 0.3521,
      "velocity": 107,
      "chip": "ym2612"
    },
    {
      "channel": 2,
      "note": 51,
      "start": 20.9878,
      "duration": 0.2322,
      "velocity": 107,
      "chip": "ym2612"
    },
    {
      "channel": 3,
      "note": 79,
      "start": 20.9892,
      "duration": 0.1117,
      "velocity": 115,
      "chip": "ym2612"
    },
    {
      "channel": 4,
      "note": 86,
      "start": 20.9897,
      "duration": 0.9458,
      "velocity": 102,
      "chip": "ym2612"
    },
    {
      "channel": 5,
      "note": 82,
      "start": 20.9902,
      "duration": 0.9454,
      "velocity": 102,
      "chip": "ym2612"
    },
    {
      "channel": 3,
      "note": 79,
      "start": 21.1064,
      "duration": 0.1137,
      "velocity": 115,
      "chip": "ym2612"
    },
    {
      "channel": 1,
      "note": 77,
      "start": 21.1657,
      "duration": 0.3525,
      "velocity": 107,
      "chip": "ym2612"
    },
    {
      "channel": 2,
      "note": 56,
      "start": 21.2254,
      "duration": 0.1142,
      "velocity": 107,
      "chip": "ym2612"
    },
    {
      "channel": 3,
      "note": 79,
      "start": 21.227,
      "duration": 0.2317,
      "velocity": 112,
      "chip": "ym2612"
    },
    {
      "channel": 0,
      "note": 75,
      "start": 21.3446,
      "duration": 0.8293,
      "velocity": 107,
      "chip": "ym2612"
    },
    {
      "channel": 2,
      "note": 60,
      "start": 21.3451,
      "duration": 0.1134,
      "velocity": 107,
      "chip": "ym2612"
    },
    {
      "channel": 2,
      "note": 56,
      "start": 21.4638,
      "duration": 0.2331,
      "velocity": 107,
      "chip": "ym2612"
    },
    {
      "channel": 3,
      "note": 79,
      "start": 21.4652,
      "duration": 0.1127,
      "velocity": 115,
      "chip": "ym2612"
    },
    {
      "channel": 1,
      "note": 75,
      "start": 21.5234,
      "duration": 0.8293,
      "velocity": 107,
      "chip": "ym2612"
    },
    {
      "channel": 3,
      "note": 79,
      "start": 21.5832,
      "duration": 0.1139,
      "velocity": 115,
      "chip": "ym2612"
    },
    {
      "channel": 2,
      "note": 51,
      "start": 21.7028,
      "duration": 0.1135,
      "velocity": 107,
      "chip": "ym2612"
    },
    {
      "channel": 3,
      "note": 79,
      "start": 21.7041,
      "duration": 0.2313,
      "velocity": 112,
      "chip": "ym2612"
    },
    {
      "channel": 2,
      "note": 56,
      "start": 21.8215,
      "duration": 0.2332,
      "velocity": 107,
      "chip": "ym2612"
    },
    {
      "channel": 3,
      "note": 79,
      "start": 21.9416,
      "duration": 0.1132,
      "velocity": 115,
      "chip": "ym2612"
    },
    {
      "channel": 4,
      "note": 87,
      "start": 21.9422,
      "duration": 0.9473,
      "velocity": 102,
      "chip": "ym2612"
    },
    {
      "channel": 5,
      "note": 82,
      "start": 21.9427,
      "duration": 0.9469,
      "velocity": 102,
      "chip": "ym2612"
    },
    {
      "channel": 2,
      "note": 56,
      "start": 22.06,
      "duration": 0.114,
      "velocity": 107,
      "chip": "ym2612"
    },
    {
      "channel": 3,
      "note": 79,
      "start": 22.0605,
      "duration": 0.1136,
      "velocity": 115,
      "chip": "ym2612"
    },
    {
      "channel": 0,
      "note": 75,
      "start": 22.1793,
      "duration": 0.233,
      "velocity": 107,
      "chip": "ym2612"
    },
    {
      "channel": 2,
      "note": 51,
      "start": 22.1798,
      "duration": 0.2327,
      "velocity": 107,
      "chip": "ym2612"
    },
    {
      "channel": 3,
      "note": 79,
      "start": 22.1811,
      "duration": 0.2314,
      "velocity": 112,
      "chip": "ym2612"
    },
    {
      "channel": 1,
      "note": 75,
      "start": 22.3581,
      "duration": 0.2332,
      "velocity": 107,
      "chip": "ym2612"
    },
    {
      "channel": 0,
      "note": 73,
      "start": 22.4177,
      "duration": 0.2332,
      "velocity": 107,
      "chip": "ym2612"
    },
    {
      "channel": 2,
      "note": 63,
      "start": 22.4181,
      "duration": 0.2329,
      "velocity": 107,
      "chip": "ym2612"
    },
    {
      "channel": 3,
      "note": 79,
      "start": 22.4195,
      "duration": 0.1121,
      "velocity": 115,
      "chip": "ym2612"
    },
    {
      "channel": 3,
      "note": 79,
      "start": 22.537,
      "duration": 0.1141,
      "velocity": 115,
      "chip": "ym2612"
    },
    {
      "channel": 1,
      "note": 73,
      "start": 22.5967,
      "duration": 0.2329,
      "velocity": 107,
      "chip": "ym2612"
    },
    {
      "channel": 0,
      "note": 75,
      "start": 22.6564,
      "duration": 0.1138,
      "velocity": 107,
      "chip": "ym2612"
    },
    {
      "channel": 2,
      "note": 51,
      "start": 22.6568,
      "duration": 0.2324,
      "velocity": 107,
      "chip": "ym2612"
    },
    {
      "channel": 3,
      "note": 79,
      "start": 22.6582,
      "duration": 0.2312,
      "velocity": 112,
      "chip": "ym2612"
    },
    {
      "channel": 0,
      "note": 77,
      "start": 22.7754,
      "duration": 0.591,
      "velocity": 107,
      "chip": "ym2612"
    },
    {
      "channel": 1,
      "note": 75,
      "start": 22.8351,
      "duration": 0.0546,
      "velocity": 107,
      "chip": "ym2612"
    },
    {
      "channel": 2,
      "note": 49,
      "start": 22.8946,
      "duration": 0.2332,
      "velocity": 107,
      "chip": "ym2612"
    },
    {
      "channel": 3,
      "note": 79,
      "start": 22.8963,
      "duration": 0.1122,
      "velocity": 115,
      "chip": "ym2612"
    },
    {
      "channel": 4,
      "note": 89,
      "start": 22.8968,
      "duration": 1.9004,
      "velocity": 102,
      "chip": "ym2612"
    },
    {
      "channel": 5,
      "note": 85,
      "start": 22.8973,
      "duration": 1.9,
      "velocity": 102,
      "chip": "ym2612"
    },
    {
      "channel": 3,
      "note": 79,
      "start": 23.0139,
      "duration": 0.114,
      "velocity": 115,
      "chip": "ym2612"
    },
    {
      "channel": 1,
      "note": 77,
      "start": 23.0736,
      "duration": 0.4716,
      "velocity": 107,
      "chip": "ym2612"
    },
    {
      "channel": 2,
      "note": 53,
      "start": 23.1332,
      "duration": 0.1139,
      "velocity": 107,
      "chip": "ym2612"
    },
    {
      "channel": 3,
      "note": 79,
      "start": 23.1345,
      "duration": 0.232,
      "velocity": 112,
      "chip": "ym2612"
    },
    {
      "channel": 0,
      "note": 77,
      "start": 23.3716,
      "duration": 0.3524,
      "velocity": 107,
      "chip": "ym2612"
    },
    {
      "channel": 2,
      "note": 49,
      "start": 23.3721,
      "duration": 0.1136,
      "velocity": 107,
      "chip": "ym2612"
    },
    {
      "channel": 3,
      "note": 79,
      "start": 23.3734,
      "duration": 0.1123,
      "velocity": 115,
      "chip": "ym2612"
    },
    {
      "channel": 2,
      "note": 53,
      "start": 23.4909,
      "duration": 0.2332,
      "velocity": 107,
      "chip": "ym2612"
    },
    {
      "channel": 3,
      "note": 79,
      "start": 23.4914,
      "duration": 0.1134,
      "velocity": 115,
      "chip": "ym2612"
    },
    {
      "channel": 1,
      "note": 77,
      "start": 23.5504,
      "duration": 0.3524,
      "velocity": 107,
      "chip": "ym2612"
    },
    {
      "channel": 3,
      "note": 79,
      "start": 23.6109,
      "duration": 0.2322,
      "velocity": 112,
      "chip": "ym2612"
    },
    {
      "channel": 0,
      "note": 73,
      "start": 23.7293,
      "duration": 0.3524,
      "velocity": 107,
      "chip": "ym2612"
    },
    {
      "channel": 2,
      "note": 49,
      "start": 23.7297,
      "duration": 0.3521,
      "velocity": 107,
      "chip": "ym2612"
    },
    {
      "channel": 3,
      "note": 79,
      "start": 23.8496,
      "duration": 0.1129,
      "velocity": 115,
      "chip": "ym2612"
    },
    {
      "channel": 1,
      "note": 73,
      "start": 23.9081,
      "duration": 0.3524,
      "velocity": 107,
      "chip": "ym2612"
    },
    {
      "channel": 3,
      "note": 79,
      "start": 23.9679,
      "duration": 0.114,
      "velocity": 115,
      "chip": "ym2612"
    },
    {
      "channel": 0,
      "note": 70,
      "start": 24.0869,
      "duration": 0.2332,
      "velocity": 107,
      "chip": "ym2612"
    },
    {
      "channel": 2,
      "note": 58,
      "start": 24.0874,
      "duration": 0.2328,
      "velocity": 107,
      "chip": "ym2612"
    },
    {
      "channel": 3,
      "note": 79,
      "start": 24.0887,
      "duration": 0.2316,
      "velocity": 112,
      "chip": "ym2612"
    },
    {
      "channel": 1,
      "note": 70,
      "start": 24.2658,
      "duration": 0.2332,
      "velocity": 107,
      "chip": "ym2612"
    },
    {
      "channel": 2,
      "note": 61,
      "start": 24.3255,
      "duration": 0.2331,
      "velocity": 107,
      "chip": "ym2612"
    },
    {
      "channel": 3,
      "note": 79,
      "start": 24.3271,
      "duration": 0.1123,
      "velocity": 115,
      "chip": "ym2612"
    },
    {
      "channel": 3,
      "note": 79,
      "start": 24.4447,
      "duration": 0.114,
      "velocity": 115,
      "chip": "ym2612"
    },
    {
      "channel": 0,
      "note": 77,
      "start": 24.5639,
      "duration": 0.2331,
      "velocity": 107,
      "chip": "ym2612"
    },
    {
      "channel": 2,
      "note": 53,
      "start": 24.5644,
      "duration": 0.2327,
      "velocity": 107,
      "chip": "ym2612"
    },
    {
      "channel": 3,
      "note": 79,
      "start": 24.5658,
      "duration": 0.2317,
      "velocity": 112,
      "chip": "ym2612"
    },
    {
      "channel": 1,
      "note": 77,
      "start": 24.7427,
      "duration": 0.2335,
      "velocity": 107,
      "chip": "ym2612"
    },
    {
      "channel": 0,
      "note": 75,
      "start": 24.8024,
      "duration": 0.3524,
      "velocity": 107,
      "chip": "ym2612"
    },
    {
      "channel": 2,
      "note": 48,
      "start": 24.8029,
      "duration": 0.2327,
      "velocity": 107,
      "chip": "ym2612"
    },
    {
      "channel": 3,
      "note": 79,
      "start": 24.8042,
      "duration": 0.1122,
      "velocity": 115,
      "chip": "ym2612"
    },
    {
      "channel": 4,
      "note": 87,
      "start": 24.8047,
      "duration": 1.9002,
      "velocity": 102,
      "chip": "ym2612"
    },
    {
      "channel": 5,
      "note": 84,
      "start": 24.8053,
      "duration": 1.8998,
      "velocity": 102,
      "chip": "ym2612"
    },
    {
      "channel": 3,
      "note": 79,
      "start": 24.9216,
      "duration": 0.1141,
      "velocity": 115,
      "chip": "ym2612"
    },
    {
      "channel": 1,
      "note": 75,
      "start": 24.9813,
      "duration": 0.3523,
      "velocity": 107,
      "chip": "ym2612"
    },
    {
      "channel": 2,
      "note": 51,
      "start": 25.0408,
      "duration": 0.1141,
      "velocity": 107,
      "chip": "ym2612"
    },
    {
      "channel": 3,
      "note": 79,
      "start": 25.0421,
      "duration": 0.2319,
      "velocity": 112,
      "chip": "ym2612"
    },
    {
      "channel": 0,
      "note": 77,
      "start": 25.1602,
      "duration": 0.3522,
      "velocity": 107,
      "chip": "ym2612"
    },
    {
      "channel": 2,
      "note": 48,
      "start": 25.2793,
      "duration": 0.1138,
      "velocity": 107,
      "chip": "ym2612"
    },
    {
      "channel": 3,
      "note": 79,
      "start": 25.2808,
      "duration": 0.1124,
      "velocity": 115,
      "chip": "ym2612"
    },
    {
      "channel": 1,
      "note": 77,
      "start": 25.339,
      "duration": 0.3524,
      "velocity": 107,
      "chip": "ym2612"
    },
    {
      "channel": 2,
      "note": 51,
      "start": 25.3985,
      "duration": 0.2332,
      "velocity": 107,
      "chip": "ym2612"
    },
    {
      "channel": 3,
      "note": 79,
      "start": 25.399,
      "duration": 0.1135,
      "velocity": 115,
      "chip": "ym2612"
    },
    {
      "channel": 0,
      "note": 79,
      "start": 25.5177,
      "duration": 0.3524,
      "velocity": 107,
      "chip": "ym2612"
    },
    {
      "channel": 3,
      "note": 79,
      "start": 25.5191,
      "duration": 0.2319,
      "velocity": 112,
      "chip": "ym2612"
    },
    {
      "channel": 2,
      "note": 48,
      "start": 25.637,
      "duration": 0.3524,
      "velocity": 107,
      "chip": "ym2612"
    },
    {
      "channel": 1,
      "note": 79,
      "start": 25.6967,
      "duration": 0.3523,
      "velocity": 107,
      "chip": "ym2612"
    },
    {
      "channel": 3,
      "note": 79,
      "start": 25.7574,
      "duration": 0.1128,
      "velocity": 115,
      "chip": "ym2612"
    },
    {
      "channel": 0,
      "note": 72,
      "start": 25.8755,
      "duration": 0.8292,
      "velocity": 107,
      "chip": "ym2612"
    },
    {
      "channel": 3,
      "note": 79,
      "start": 25.8763,
      "duration": 0.1132,
      "velocity": 115,
      "chip": "ym2612"
    },
    {
      "channel": 2,
      "note": 56,
      "start": 25.9947,
      "duration": 0.2335,
      "velocity": 107,
      "chip": "ym2612"
    },
    {
      "channel": 3,
      "note": 79,
      "start": 25.9964,
      "duration": 0.2319,
      "velocity": 112,
      "chip": "ym2612"
    },
    {
      "channel": 1,
      "note": 72,
      "start": 26.0543,
      "duration": 0.8293,
      "velocity": 107,
      "chip": "ym2612"
    },
    {
      "channel": 2,
      "note": 60,
      "start": 26.2332,
      "duration": 0.2332,
      "velocity": 107,
      "chip": "ym2612"
    },
    {
      "channel": 3,
      "note": 79,
      "start": 26.2345,
      "duration": 0.1125,
      "velocity": 115,
      "chip": "ym2612"
    },
    {
      "channel": 3,
      "note": 79,
      "start": 26.3525,
      "duration": 0.114,
      "velocity": 115,
      "chip": "ym2612"
    },
    {
      "channel": 2,
      "note": 51,
      "start": 26.4717,
      "duration": 0.2331,
      "velocity": 107,
      "chip": "ym2612"
    },
    {
      "channel": 3,
      "note": 79,
      "start": 26.473,
      "duration": 0.2319,
      "velocity": 112,
      "chip": "ym2612"
    },
    {
      "channel": 0,
      "note": 73,
      "start": 26.7101,
      "duration": 0.2331,
      "velocity": 107,
      "chip": "ym2612"
    },
    {
      "channel": 2,
      "note": 46,
      "start": 26.7106,
      "duration": 0.2327,
      "velocity": 107,
      "chip": "ym2612"
    },
    {
      "channel": 3,
      "note": 79,
      "start": 26.712,
      "duration": 0.112,
      "velocity": 115,
      "chip": "ym2612"
    },
    {
      "channel": 4,
      "note": 89,
      "start": 26.7125,
      "duration": 1.9002,
      "velocity": 102,
      "chip": "ym2612"
    },
    {
      "channel": 5,
      "note": 85,
      "start": 26.7131,
      "duration": 1.8998,
      "velocity": 102,
      "chip": "ym2612"
    },
    {
      "channel": 3,
      "note": 79,
      "start": 26.8294,
      "duration": 0.114,
      "velocity": 115,
      "chip": "ym2612"
    },
    {
      "channel": 1,
      "note": 73,
      "start": 26.889,
      "duration": 0.233,
      "velocity": 107,
      "chip": "ym2612"
    },
    {
      "channel": 0,
      "note": 70,
      "start": 26.9485,
      "duration": 0.1139,
      "velocity": 107,
      "chip": "ym2612"
    },
    {
      "channel": 2,
      "note": 49,
      "start": 26.949,
      "duration": 0.1135,
      "velocity": 107,
      "chip": "ym2612"
    },
    {
      "channel": 3,
      "note": 79,
      "start": 26.9503,
      "duration": 0.2315,
      "velocity": 112,
      "chip": "ym2612"
    },
    {
      "channel": 0,
      "note": 72,
      "start": 27.0678,
      "duration": 0.1138,
      "velocity": 107,
      "chip": "ym2612"
    },
    {
      "channel": 1,
      "note": 70,
      "start": 27.1274,
      "duration": 0.1139,
      "velocity": 107,
      "chip": "ym2612"
    },
    {
      "channel": 2,
      "note": 46,
      "start": 27.187,
      "duration": 0.114,
      "velocity": 107,
      "chip": "ym2612"
    },
    {
      "channel": 3,
      "note": 79,
      "start": 27.1883,
      "duration": 0.1127,
      "velocity": 115,
      "chip": "ym2612"
    },
    {
      "channel": 1,
      "note": 72,
      "start": 27.2467,
      "duration": 0.1137,
      "velocity": 107,
      "chip": "ym2612"
    },
    {
      "channel": 0,
      "note": 68,
      "start": 27.3066,
      "duration": 0.1137,
      "velocity": 107,
      "chip": "ym2612"
    },
    {
      "channel": 2,
      "note": 49,
      "start": 27.307,
      "duration": 0.2323,
      "velocity": 107,
      "chip": "ym2612"
    },
    {
      "channel": 3,
      "note": 79,
      "start": 27.3075,
      "duration": 0.1128,
      "velocity": 115,
      "chip": "ym2612"
    },
    {
      "channel": 3,
      "note": 79,
      "start": 27.4266,
      "duration": 0.2321,
      "velocity": 112,
      "chip": "ym2612"
    },
    {
      "channel": 1,
      "note": 68,
      "start": 27.485,
      "duration": 0.1139,
      "velocity": 107,
      "chip": "ym2612"
    },
    {
      "channel": 0,
      "note": 65,
      "start": 27.5447,
      "duration": 0.3524,
      "velocity": 107,
      "chip": "ym2612"
    },
    {
      "channel": 2,
      "note": 46,
      "start": 27.5452,
      "duration": 0.352,
      "velocity": 107,
      "chip": "ym2612"
    },
    {
      "channel": 3,
      "note": 79,
      "start": 27.6648,
      "duration": 0.1131,
      "velocity": 115,
      "chip": "ym2612"
    },
    {
      "channel": 1,
      "note": 65,
      "start": 27.7235,
      "duration": 0.3524,
      "velocity": 107,
      "chip": "ym2612"
    },
    {
      "channel": 3,
      "note": 79,
      "start": 27.7833,
      "duration": 0.1138,
      "velocity": 115,
      "chip": "ym2612"
    },
    {
      "channel": 0,
      "note": 65,
      "start": 27.9024,
      "duration": 0.4716,
      "velocity": 107,
      "chip": "ym2612"
    },
    {
      "channel": 2,
      "note": 53,
      "start": 27.9028,
      "duration": 0.2327,
      "velocity": 107,
      "chip": "ym2612"
    },
    {
      "channel": 3,
      "note": 79,
      "start": 27.9041,
      "duration": 0.2315,
      "velocity": 112,
      "chip": "ym2612"
    },
    {
      "channel": 1,
      "note": 65,
      "start": 28.0813,
      "duration": 0.4716,
      "velocity": 107,
      "chip": "ym2612"
    },
    {
      "channel": 2,
      "note": 58,
      "start": 28.1408,
      "duration": 0.2332,
      "velocity": 107,
      "chip": "ym2612"
    },
    {
      "channel": 3,
      "note": 79,
      "start": 28.1422,
      "duration": 0.1126,
      "velocity": 115,
      "chip": "ym2612"
    },
    {
      "channel": 3,
      "note": 79,
      "start": 28.2602,
      "duration": 0.114,
      "velocity": 115,
      "chip": "ym2612"
    },
    {
      "channel": 0,
      "note": 67,
      "start": 28.3794,
      "duration": 0.2331,
      "velocity": 107,
      "chip": "ym2612"
    },
    {
      "channel": 2,
      "note": 49,
      "start": 28.3798,
      "duration": 0.2327,
      "velocity": 107,
      "chip": "ym2612"
    },
    {
      "channel": 3,
      "note": 79,
      "start": 28.3812,
      "duration": 0.2315,
      "velocity": 112,
      "chip": "ym2612"
    },
    {
      "channel": 1,
      "note": 67,
      "start": 28.5581,
      "duration": 0.2331,
      "velocity": 107,
      "chip": "ym2612"
    },
    {
      "channel": 0,
      "note": 67,
      "start": 28.6178,
      "duration": 0.3525,
      "velocity": 107,
      "chip": "ym2612"
    },
    {
      "channel": 2,
      "note": 51,
      "start": 28.6182,
      "duration": 0.2328,
      "velocity": 107,
      "chip": "ym2612"
    },
    {
      "channel": 3,
      "note": 79,
      "start": 28.6195,
      "duration": 0.1121,
      "velocity": 115,
      "chip": "ym2612"
    },
    {
      "channel": 4,
      "note": 87,
      "start": 28.6201,
      "duration": 0.3503,
      "velocity": 102,
      "chip": "ym2612"
    },
    {
      "channel": 5,
      "note": 84,
      "start": 28.6206,
      "duration": 0.3499,
      "velocity": 102,
      "chip": "ym2612"
    },
    {
      "channel": 3,
      "note": 79,
      "start": 28.7372,
      "duration": 0.1138,
      "velocity": 115,
      "chip": "ym2612"
    },
    {
      "channel": 1,
      "note": 67,
      "start": 28.7967,
      "duration": 0.3523,
      "velocity": 107,
      "chip": "ym2612"
    },
    {
      "channel": 2,
      "note": 56,
      "start": 28.8565,
      "duration": 0.1139,
      "velocity": 107,
      "chip": "ym2612"
    },
    {
      "channel": 3,
      "note": 79,
      "start": 28.8578,
      "duration": 0.2316,
      "velocity": 112,
      "chip": "ym2612"
    },
    {
      "channel": 0,
      "note": 68,
      "start": 28.9754,
      "duration": 0.8293,
      "velocity": 107,
      "chip": "ym2612"
    },
    {
      "channel": 4,
      "note": 89,
      "start": 28.9762,
      "duration": 0.3516,
      "velocity": 102,
      "chip": "ym2612"
    },
    {
      "channel": 5,
      "note": 84,
      "start": 28.9767,
      "duration": 0.3512,
      "velocity": 102,
      "chip": "ym2612"
    },
    {
      "channel": 2,
      "note": 51,
      "start": 29.0948,
      "duration": 0.1138,
      "velocity": 107,
      "chip": "ym2612"
    },
    {
      "channel": 3,
      "note": 79,
      "start": 29.0964,
      "duration": 0.1123,
      "velocity": 115,
      "chip": "ym2612"
    },
    {
      "channel": 1,
      "note": 68,
      "start": 29.1544,
      "duration": 0.8293,
      "velocity": 107,
      "chip": "ym2612"
    },
    {
      "channel": 2,
      "note": 56,
      "start": 29.2139,
      "duration": 0.2332,
      "velocity": 107,
      "chip": "ym2612"
    },
    {
      "channel": 3,
      "note": 79,
      "start": 29.2144,
      "duration": 0.1136,
      "velocity": 115,
      "chip": "ym2612"
    },
    {
      "channel": 3,
      "note": 79,
      "start": 29.3342,
      "duration": 0.2322,
      "velocity": 112,
      "chip": "ym2612"
    },
    {
      "channel": 4,
      "note": 87,
      "start": 29.3347,
      "duration": 1.1856,
      "velocity": 102,
      "chip": "ym2612"
    },
    {
      "channel": 5,
      "note": 84,
      "start": 29.3353,
      "duration": 1.1852,
      "velocity": 102,
      "chip": "ym2612"
    },
    {
      "channel": 2,
      "note": 51,
      "start": 29.4524,
      "duration": 0.3525,
      "velocity": 107,
      "chip": "ym2612"
    },
    {
      "channel": 3,
      "note": 79,
      "start": 29.5725,
      "duration": 0.113,
      "velocity": 115,
      "chip": "ym2612"
    },
    {
      "channel": 3,
      "note": 79,
      "start": 29.6909,
      "duration": 0.1139,
      "velocity": 115,
      "chip": "ym2612"
    },
    {
      "channel": 0,
      "note": 70,
      "start": 29.8111,
      "duration": 0.2322,
      "velocity": 103,
      "chip": "ym2612"
    },
    {
      "channel": 2,
      "note": 60,
      "start": 29.8115,
      "duration": 0.2319,
      "velocity": 107,
      "chip": "ym2612"
    },
    {
      "channel": 3,
      "note": 79,
      "start": 29.8129,
      "duration": 0.2306,
      "velocity": 112,
      "chip": "ym2612"
    },
    {
      "channel": 1,
      "note": 70,
      "start": 29.9899,
      "duration": 0.2322,
      "velocity": 103,
      "chip": "ym2612"
    },
    {
      "channel": 0,
      "note": 72,
      "start": 30.0491,
      "duration": 0.2326,
      "velocity": 103,
      "chip": "ym2612"
    },
    {
      "channel": 2,
      "note": 63,
      "start": 30.0495,
      "duration": 0.2322,
      "velocity": 107,
      "chip": "ym2612"
    },
    {
      "channel": 3,
      "note": 79,
      "start": 30.0509,
      "duration": 0.1116,
      "velocity": 115,
      "chip": "ym2612"
    },
    {
      "channel": 3,
      "note": 79,
      "start": 30.1679,
      "duration": 0.1139,
      "velocity": 115,
      "chip": "ym2612"
    },
    {
      "channel": 1,
      "note": 72,
      "start": 30.2275,
      "duration": 0.233,
      "velocity": 103,
      "chip": "ym2612"
    },
    {
      "channel": 0,
      "note": 77,
      "start": 30.2871,
      "duration": 0.5908,
      "velocity": 103,
      "chip": "ym2612"
    },
    {
      "channel": 2,
      "note": 51,
      "start": 30.2876,
      "duration": 0.2326,
      "velocity": 107,
      "chip": "ym2612"
    },
    {
      "channel": 3,
      "note": 79,
      "start": 30.2889,
      "duration": 0.2313,
      "velocity": 112,
      "chip": "ym2612"
    },
    {
      "channel": 1,
      "note": 77,
      "start": 30.4663,
      "duration": 0.0543,
      "velocity": 103,
      "chip": "ym2612"
    },
    {
      "channel": 2,
      "note": 53,
      "start": 30.5255,
      "duration": 0.2332,
      "velocity": 107,
      "chip": "ym2612"
    },
    {
      "channel": 3,
      "note": 79,
      "start": 30.5272,
      "duration": 0.1123,
      "velocity": 115,
      "chip": "ym2612"
    },
    {
      "channel": 4,
      "note": 53,
      "start": 30.5285,
      "duration": 0.2303,
      "velocity": 102,
      "chip": "ym2612"
    },
    {
      "channel": 5,
      "note": 48,
      "start": 30.5298,
      "duration": 0.2291,
      "velocity": 102,
      "chip": "ym2612"
    },
    {
      "channel": 3,
      "note": 79,
      "start": 30.6448,
      "duration": 0.1139,
      "velocity": 115,
      "chip": "ym2612"
    },
    {
      "channel": 1,
      "note": 77,
      "start": 30.7043,
      "duration": 0.3524,
      "velocity": 103,
      "chip": "ym2612"
    },
    {
      "channel": 2,
      "note": 56,
      "start": 30.764,
      "duration": 0.1141,
      "velocity": 107,
      "chip": "ym2612"
    },
    {
      "channel": 3,
      "note": 79,
      "start": 30.7653,
      "duration": 0.2318,
      "velocity": 112,
      "chip": "ym2612"
    },
    {
      "channel": 0,
      "note": 79,
      "start": 30.8832,
      "duration": 0.3523,
      "velocity": 103,
      "chip": "ym2612"
    },
    {
      "channel": 2,
      "note": 53,
      "start": 31.0024,
      "duration": 0.114,
      "velocity": 107,
      "chip": "ym2612"
    },
    {
      "channel": 3,
      "note": 79,
      "start": 31.0037,
      "duration": 0.1128,
      "velocity": 115,
      "chip": "ym2612"
    },
    {
      "channel": 4,
      "note": 53,
      "start": 31.0042,
      "duration": 0.2315,
      "velocity": 102,
      "chip": "ym2612"
    },
    {
      "channel": 5,
      "note": 48,
      "start": 31.0047,
      "duration": 0.2311,
      "velocity": 102,
      "chip": "ym2612"
    },
    {
      "channel": 1,
      "note": 79,
      "start": 31.062,
      "duration": 0.3524,
      "velocity": 103,
      "chip": "ym2612"
    },
    {
      "channel": 2,
      "note": 56,
      "start": 31.1216,
      "duration": 0.2332,
      "velocity": 107,
      "chip": "ym2612"
    },
    {
      "channel": 3,
      "note": 79,
      "start": 31.1221,
      "duration": 0.1135,
      "velocity": 115,
      "chip": "ym2612"
    },
    {
      "channel": 0,
      "note": 80,
      "start": 31.2409,
      "duration": 0.9485,
      "velocity": 103,
      "chip": "ym2612"
    },
    {
      "channel": 3,
      "note": 79,
      "start": 31.2422,
      "duration": 0.2318,
      "velocity": 112,
      "chip": "ym2612"
    },
    {
      "channel": 2,
      "note": 53,
      "start": 31.3601,
      "duration": 0.3524,
      "velocity": 107,
      "chip": "ym2612"
    },
    {
      "channel": 1,
      "note": 80,
      "start": 31.4198,
      "duration": 0.9484,
      "velocity": 103,
      "chip": "ym2612"
    },
    {
      "channel": 3,
      "note": 79,
      "start": 31.4803,
      "duration": 0.1129,
      "velocity": 115,
      "chip": "ym2612"
    },
    {
      "channel": 4,
      "note": 53,
      "start": 31.4808,
      "duration": 0.2319,
      "velocity": 102,
      "chip": "ym2612"
    },
    {
      "channel": 5,
      "note": 48,
      "start": 31.4813,
      "duration": 0.2315,
      "velocity": 102,
      "chip": "ym2612"
    },
    {
      "channel": 3,
      "note": 79,
      "start": 31.5987,
      "duration": 0.1139,
      "velocity": 115,
      "chip": "ym2612"
    },
    {
      "channel": 2,
      "note": 60,
      "start": 31.7178,
      "duration": 0.2331,
      "velocity": 107,
      "chip": "ym2612"
    },
    {
      "channel": 3,
      "note": 79,
      "start": 31.7192,
      "duration": 0.2318,
      "velocity": 112,
      "chip": "ym2612"
    },
    {
      "channel": 2,
      "note": 65,
      "start": 31.9565,
      "duration": 0.233,
      "velocity": 107,
      "chip": "ym2612"
    },
    {
      "channel": 3,
      "note": 79,
      "start": 31.9579,
      "duration": 0.1123,
      "velocity": 115,
      "chip": "ym2612"
    },
    {
      "channel": 4,
      "note": 53,
      "start": 31.9584,
      "duration": 0.2313,
      "velocity": 102,
      "chip": "ym2612"
    },
    {
      "channel": 5,
      "note": 48,
      "start": 31.9589,
      "duration": 0.231,
      "velocity": 102,
      "chip": "ym2612"
    },
    {
      "channel": 3,
      "note": 79,
      "start": 32.0756,
      "duration": 0.114,
      "velocity": 115,
      "chip": "ym2612"
    },
    {
      "channel": 0,
      "note": 72,
      "start": 32.1949,
      "duration": 0.233,
      "velocity": 103,
      "chip": "ym2612"
    },
    {
      "channel": 2,
      "note": 53,
      "start": 32.1953,
      "duration": 0.2326,
      "velocity": 107,
      "chip": "ym2612"
    },
    {
      "channel": 3,
      "note": 79,
      "start": 32.1969,
      "duration": 0.2311,
      "velocity": 112,
      "chip": "ym2612"
    },
    {
      "channel": 1,
      "note": 72,
      "start": 32.3736,
      "duration": 0.2331,
      "velocity": 103,
      "chip": "ym2612"
    },
    {
      "channel": 0,
      "note": 73,
      "start": 32.4333,
      "duration": 1.1869,
      "velocity": 103,
      "chip": "ym2612"
    },
    {
      "channel": 2,
      "note": 49,
      "start": 32.4337,
      "duration": 0.2327,
      "velocity": 107,
      "chip": "ym2612"
    },
    {
      "channel": 3,
      "note": 79,
      "start": 32.4351,
      "duration": 0.1121,
      "velocity": 115,
      "chip": "ym2612"
    },
    {
      "channel": 4,
      "note": 53,
      "start": 32.4356,
      "duration": 0.231,
      "velocity": 102,
      "chip": "ym2612"
    },
    {
      "channel": 5,
      "note": 49,
      "start": 32.4363,
      "duration": 0.2304,
      "velocity": 102,
      "chip": "ym2612"
    },
    {
      "channel": 3,
      "note": 79,
      "start": 32.5526,
      "duration": 0.1139,
      "velocity": 115,
      "chip": "ym2612"
    },
    {
      "channel": 1,
      "note": 73,
      "start": 32.6122,
      "duration": 1.187,
      "velocity": 103,
      "chip": "ym2612"
    },
    {
      "channel": 2,
      "note": 53,
      "start": 32.6716,
      "duration": 0.1139,
      "velocity": 107,
      "chip": "ym2612"
    },
    {
      "channel": 3,
      "note": 79,
      "start": 32.673,
      "duration": 0.2318,
      "velocity": 112,
      "chip": "ym2612"
    },
    {
      "channel": 2,
      "note": 49,
      "start": 32.9101,
      "duration": 0.1139,
      "velocity": 107,
      "chip": "ym2612"
    },
    {
      "channel": 3,
      "note": 79,
      "start": 32.9115,
      "duration": 0.1126,
      "velocity": 115,
      "chip": "ym2612"
    },
    {
      "channel": 4,
      "note": 53,
      "start": 32.912,
      "duration": 0.2314,
      "velocity": 102,
      "chip": "ym2612"
    },
    {
      "channel": 5,
      "note": 49,
      "start": 32.9125,
      "duration": 0.231,
      "velocity": 102,
      "chip": "ym2612"
    },
    {
      "channel": 2,
      "note": 53,
      "start": 33.0293,
      "duration": 0.2332,
      "velocity": 107,
      "chip": "ym2612"
    },
    {
      "channel": 3,
      "note": 79,
      "start": 33.0298,
      "duration": 0.1135,
      "velocity": 115,
      "chip": "ym2612"
    },
    {
      "channel": 3,
      "note": 79,
      "start": 33.1495,
      "duration": 0.2322,
      "velocity": 112,
      "chip": "ym2612"
    },
    {
      "channel": 2,
      "note": 49,
      "start": 33.2678,
      "duration": 0.3525,
      "velocity": 107,
      "chip": "ym2612"
    },
    {
      "channel": 3,
      "note": 79,
      "start": 33.3879,
      "duration": 0.1131,
      "velocity": 115,
      "chip": "ym2612"
    },
    {
      "channel": 4,
      "note": 53,
      "start": 33.3884,
      "duration": 0.2321,
      "velocity": 102,
      "chip": "ym2612"
    },
    {
      "channel": 5,
      "note": 49,
      "start": 33.3889,
      "duration": 0.2317,
      "velocity": 102,
      "chip": "ym2612"
    },
    {
      "channel": 3,
      "note": 79,
      "start": 33.5067,
      "duration": 0.1137,
      "velocity": 115,
      "chip": "ym2612"
    },
    {
      "channel": 0,
      "note": 70,
      "start": 33.6255,
      "duration": 0.2333,
      "velocity": 103,
      "chip": "ym2612"
    },
    {
      "channel": 2,
      "note": 56,
      "start": 33.6263,
      "duration": 0.2326,
      "velocity": 107,
      "chip": "ym2612"
    },
    {
      "channel": 3,
      "note": 79,
      "start": 33.6277,
      "duration": 0.2313,
      "velocity": 112,
      "chip": "ym2612"
    },
    {
      "channel": 1,
      "note": 70,
      "start": 33.8044,
      "duration": 0.2331,
      "velocity": 103,
      "chip": "ym2612"
    },
    {
      "channel": 0,
      "note": 72,
      "start": 33.864,
      "duration": 0.2331,
      "velocity": 103,
      "chip": "ym2612"
    },
    {
      "channel": 2,
      "note": 61,
      "start": 33.8644,
      "duration": 0.2328,
      "velocity": 107,
      "chip": "ym2612"
    },
    {
      "channel": 3,
      "note": 79,
      "start": 33.8658,
      "duration": 0.1121,
      "velocity": 115,
      "chip": "ym2612"
    },
    {
      "channel": 4,
      "note": 53,
      "start": 33.8665,
      "duration": 0.2309,
      "velocity": 102,
      "chip": "ym2612"
    },
    {
      "channel": 5,
      "note": 49,
      "start": 33.867,
      "duration": 0.2305,
      "velocity": 102,
      "chip": "ym2612"
    },
    {
      "channel": 3,
      "note": 79,
      "start": 33.9833,
      "duration": 0.1139,
      "velocity": 115,
      "chip": "ym2612"
    },
    {
      "channel": 1,
      "note": 72,
      "start": 34.0429,
      "duration": 0.2332,
      "velocity": 103,
      "chip": "ym2612"
    },
    {
      "channel": 0,
      "note": 73,
      "start": 34.1026,
      "duration": 0.1138,
      "velocity": 103,
      "chip": "ym2612"
    },
    {
      "channel": 2,
      "note": 49,
      "start": 34.103,
      "duration": 0.2325,
      "velocity": 107,
      "chip": "ym2612"
    },
    {
      "channel": 3,
      "note": 79,
      "start": 34.1044,
      "duration": 0.2313,
      "velocity": 112,
      "chip": "ym2612"
    },
    {
      "channel": 0,
      "note": 75,
      "start": 34.2217,
      "duration": 0.4717,
      "velocity": 103,
      "chip": "ym2612"
    },
    {
      "channel": 1,
      "note": 73,
      "start": 34.2814,
      "duration": 0.1138,
      "velocity": 103,
      "chip": "ym2612"
    },
    {
      "channel": 2,
      "note": 51,
      "start": 34.3409,
      "duration": 0.2331,
      "velocity": 107,
      "chip": "ym2612"
    },
    {
      "channel": 3,
      "note": 79,
      "start": 34.3424,
      "duration": 0.1124,
      "velocity": 115,
      "chip": "ym2612"
    },
    {
      "channel": 4,
      "note": 51,
      "start": 34.3428,
      "duration": 0.2314,
      "velocity": 102,
      "chip": "ym2612"
    },
    {
      "channel": 5,
      "note": 46,
      "start": 34.3433,
      "duration": 0.231,
      "velocity": 102,
      "chip": "ym2612"
    },
    {
      "channel": 1,
      "note": 75,
      "start": 34.4006,
      "duration": 0.4715,
      "velocity": 103,
      "chip": "ym2612"
    },
    {
      "channel": 3,
      "note": 79,
      "start": 34.4602,
      "duration": 0.1139,
      "velocity": 115,
      "chip": "ym2612"
    },
    {
      "channel": 2,
      "note": 55,
      "start": 34.5794,
      "duration": 0.114,
      "velocity": 107,
      "chip": "ym2612"
    },
    {
      "channel": 3,
      "note": 79,
      "start": 34.5808,
      "duration": 0.2317,
      "velocity": 112,
      "chip": "ym2612"
    },
    {
      "channel": 0,
      "note": 77,
      "start": 34.6986,
      "duration": 0.3523,
      "velocity": 103,
      "chip": "ym2612"
    },
    {
      "channel": 2,
      "note": 51,
      "start": 34.8178,
      "duration": 0.1139,
      "velocity": 107,
      "chip": "ym2612"
    },
    {
      "channel": 3,
      "note": 79,
      "start": 34.8191,
      "duration": 0.1127,
      "velocity": 115,
      "chip": "ym2612"
    },
    {
      "channel": 4,
      "note": 51,
      "start": 34.8196,
      "duration": 0.2315,
      "velocity": 102,
      "chip": "ym2612"
    },
    {
      "channel": 5,
      "note": 46,
      "start": 34.8201,
      "duration": 0.2311,
      "velocity": 102,
      "chip": "ym2612"
    },
    {
      "channel": 1,
      "note": 77,
      "start": 34.8775,
      "duration": 0.3523,
      "velocity": 103,
      "chip": "ym2612"
    },
    {
      "channel": 2,
      "note": 55,
      "start": 34.937,
      "duration": 0.2332,
      "velocity": 107,
      "chip": "ym2612"
    },
    {
      "channel": 3,
      "note": 79,
      "start": 34.9376,
      "duration": 0.1135,
      "velocity": 115,
      "chip": "ym2612"
    },
    {
      "channel": 0,
      "note": 79,
      "start": 35.0566,
      "duration": 0.9483,
      "velocity": 103,
      "chip": "ym2612"
    },
    {
      "channel": 3,
      "note": 79,
      "start": 35.058,
      "duration": 0.2315,
      "velocity": 112,
      "chip": "ym2612"
    },
    {
      "channel": 2,
      "note": 51,
      "start": 35.1755,
      "duration": 0.3524,
      "velocity": 107,
      "chip": "ym2612"
    },
    {
      "channel": 1,
      "note": 79,
      "start": 35.2352,
      "duration": 0.9484,
      "velocity": 103,
      "chip": "ym2612"
    },
    {
      "channel": 3,
      "note": 79,
      "start": 35.2956,
      "duration": 0.1131,
      "velocity": 115,
      "chip": "ym2612"
    },
    {
      "channel": 4,
      "note": 51,
      "start": 35.2964,
      "duration": 0.2318,
      "velocity": 102,
      "chip": "ym2612"
    },
    {
      "channel": 5,
      "note": 46,
      "start": 35.2968,
      "duration": 0.2314,
      "velocity": 102,
      "chip": "ym2612"
    },
    {
      "channel": 3,
      "note": 79,
      "start": 35.4141,
      "duration": 0.114,
      "velocity": 115,
      "chip": "ym2612"
    },
    {
      "channel": 2,
      "note": 58,
      "start": 35.5332,
      "duration": 0.2332,
      "velocity": 107,
      "chip": "ym2612"
    },
    {
      "channel": 3,
      "note": 79,
      "start": 35.5346,
      "duration": 0.2319,
      "velocity": 112,
      "chip": "ym2612"
    },
    {
      "channel": 2,
      "note": 63,
      "start": 35.7717,
      "duration": 0.2334,
      "velocity": 107,
      "chip": "ym2612"
    },
    {
      "channel": 3,
      "note": 79,
      "start": 35.7731,
      "duration": 0.1125,
      "velocity": 115,
      "chip": "ym2612"
    },
    {
      "channel": 4,
      "note": 51,
      "start": 35.7736,
      "duration": 0.2316,
      "velocity": 102,
      "chip": "ym2612"
    },
    {
      "channel": 5,
      "note": 46,
      "start": 35.7741,
      "duration": 0.2312,
      "velocity": 102,
      "chip": "ym2612"
    },
    {
      "channel": 3,
      "note": 79,
      "start": 35.891,
      "duration": 0.1142,
      "velocity": 115,
      "chip": "ym2612"
    },
    {
      "channel": 0,
      "note": 82,
      "start": 36.0102,
      "duration": 0.2331,
      "velocity": 103,
      "chip": "ym2612"
    },
    {
      "channel": 2,
      "note": 51,
      "start": 36.0107,
      "duration": 0.2327,
      "velocity": 107,
      "chip": "ym2612"
    },
    {
      "channel": 3,
      "note": 79,
      "start": 36.012,
      "duration": 0.2315,
      "velocity": 112,
      "chip": "ym2612"
    },
    {
      "channel": 1,
      "note": 82,
      "start": 36.189,
      "duration": 0.2331,
      "velocity": 103,
      "chip": "ym2612"
    },
    {
      "channel": 0,
      "note": 72,
      "start": 36.2486,
      "duration": 1.9024,
      "velocity": 103,
      "chip": "ym2612"
    },
    {
      "channel": 2,
      "note": 53,
      "start": 36.2491,
      "duration": 0.2327,
      "velocity": 107,
      "chip": "ym2612"
    },
    {
      "channel": 3,
      "note": 79,
      "start": 36.2504,
      "duration": 0.1121,
      "velocity": 115,
      "chip": "ym2612"
    },
    {
      "channel": 4,
      "note": 53,
      "start": 36.2509,
      "duration": 0.231,
      "velocity": 102,
      "chip": "ym2612"
    },
    {
      "channel": 5,
      "note": 48,
      "start": 36.2514,
      "duration": 0.2306,
      "velocity": 102,
      "chip": "ym2612"
    },
    {
      "channel": 3,
      "note": 79,
      "start": 36.3681,
      "duration": 0.1137,
      "velocity": 115,
      "chip": "ym2612"
    },
    {
      "channel": 1,
      "note": 72,
      "start": 36.4275,
      "duration": 1.7239,
      "velocity": 103,
      "chip": "ym2612"
    },
    {
      "channel": 2,
      "note": 56,
      "start": 36.4871,
      "duration": 0.1138,
      "velocity": 107,
      "chip": "ym2612"
    },
    {
      "channel": 3,
      "note": 79,
      "start": 36.4885,
      "duration": 0.2317,
      "velocity": 112,
      "chip": "ym2612"
    },
    {
      "channel": 2,
      "note": 53,
      "start": 36.7255,
      "duration": 0.1139,
      "velocity": 107,
      "chip": "ym2612"
    },
    {
      "channel": 3,
      "note": 79,
      "start": 36.7271,
      "duration": 0.1124,
      "velocity": 115,
      "chip": "ym2612"
    },
    {
      "channel": 4,
      "note": 53,
      "start": 36.7276,
      "duration": 0.2312,
      "velocity": 102,
      "chip": "ym2612"
    },
    {
      "channel": 5,
      "note": 48,
      "start": 36.7281,
      "duration": 0.2309,
      "velocity": 102,
      "chip": "ym2612"
    },
    {
      "channel": 2,
      "note": 56,
      "start": 36.8448,
      "duration": 0.2331,
      "velocity": 107,
      "chip": "ym2612"
    },
    {
      "channel": 3,
      "note": 79,
      "start": 36.8453,
      "duration": 0.1135,
      "velocity": 115,
      "chip": "ym2612"
    },
    {
      "channel": 3,
      "note": 79,
      "start": 36.9649,
      "duration": 0.2323,
      "velocity": 112,
      "chip": "ym2612"
    },
    {
      "channel": 2,
      "note": 53,
      "start": 37.0832,
      "duration": 0.3524,
      "velocity": 107,
      "chip": "ym2612"
    },
    {
      "channel": 3,
      "note": 79,
      "start": 37.2033,
      "duration": 0.1133,
      "velocity": 115,
      "chip": "ym2612"
    },
    {
      "channel": 4,
      "note": 53,
      "start": 37.2038,
      "duration": 0.232,
      "velocity": 102,
      "chip": "ym2612"
    },
    {
      "channel": 5,
      "note": 48,
      "start": 37.2044,
      "duration": 0.2315,
      "velocity": 102,
      "chip": "ym2612"
    },
    {
      "channel": 3,
      "note": 79,
      "start": 37.3217,
      "duration": 0.1139,
      "velocity": 115,
      "chip": "ym2612"
    },
    {
      "channel": 2,
      "note": 60,
      "start": 37.441,
      "duration": 0.2331,
      "velocity": 107,
      "chip": "ym2612"
    },
    {
      "channel": 3,
      "note": 79,
      "start": 37.4424,
      "duration": 0.2318,
      "velocity": 112,
      "chip": "ym2612"
    },
    {
      "channel": 2,
      "note": 65,
      "start": 37.6794,
      "duration": 0.2332,
      "velocity": 107,
      "chip": "ym2612"
    },
    {
      "channel": 3,
      "note": 79,
      "start": 37.6807,
      "duration": 0.1126,
      "velocity": 115,
      "chip": "ym2612"
    },
    {
      "channel": 4,
      "note": 53,
      "start": 37.6812,
      "duration": 0.2315,
      "velocity": 102,
      "chip": "ym2612"
    },
    {
      "channel": 5,
      "note": 48,
      "start": 37.6817,
      "duration": 0.2312,
      "velocity": 102,
      "chip": "ym2612"
    },
    {
      "channel": 3,
      "note": 79,
      "start": 37.7987,
      "duration": 0.114,
      "velocity": 115,
      "chip": "ym2612"
    },
    {
      "channel": 2,
      "note": 53,
      "start": 37.9178,
      "duration": 0.2333,
      "velocity": 107,
      "chip": "ym2612"
    },
    {
      "channel": 3,
      "note": 79,
      "start": 37.9192,
      "duration": 0.2321,
      "velocity": 112,
      "chip": "ym2612"
    },
    {
      "channel": 0,
      "note": 73,
      "start": 38.1566,
      "duration": 1.1867,
      "velocity": 103,
      "chip": "ym2612"
    },
    {
      "channel": 2,
      "note": 49,
      "start": 38.1571,
      "duration": 0.2324,
      "velocity": 107,
      "chip": "ym2612"
    },
    {
      "channel": 3,
      "note": 79,
      "start": 38.1585,
      "duration": 0.1117,
      "velocity": 115,
      "chip": "ym2612"
    },
    {
      "channel": 4,
      "note": 49,
      "start": 38.159,
      "duration": 0.2306,
      "velocity": 102,
      "chip": "ym2612"
    },
    {
      "channel": 5,
      "note": 44,
      "start": 38.1595,
      "duration": 0.2302,
      "velocity": 102,
      "chip": "ym2612"
    },
    {
      "channel": 3,
      "note": 79,
      "start": 38.2757,
      "duration": 0.1139,
      "velocity": 115,
      "chip": "ym2612"
    },
    {
      "channel": 1,
      "note": 73,
      "start": 38.3352,
      "duration": 1.187,
      "velocity": 103,
      "chip": "ym2612"
    },
    {
      "channel": 2,
      "note": 53,
      "start": 38.3952,
      "duration": 0.1135,
      "velocity": 107,
      "chip": "ym2612"
    },
    {
      "channel": 3,
      "note": 79,
      "start": 38.3968,
      "duration": 0.2312,
      "velocity": 112,
      "chip": "ym2612"
    },
    {
      "channel": 2,
      "note": 49,
      "start": 38.6332,
      "duration": 0.114,
      "velocity": 107,
      "chip": "ym2612"
    },
    {
      "channel": 3,
      "note": 79,
      "start": 38.6346,
      "duration": 0.1127,
      "velocity": 115,
      "chip": "ym2612"
    },
    {
      "channel": 4,
      "note": 49,
      "start": 38.6351,
      "duration": 0.2314,
      "velocity": 102,
      "chip": "ym2612"
    },
    {
      "channel": 5,
      "note": 44,
      "start": 38.6356,
      "duration": 0.231,
      "velocity": 102,
      "chip": "ym2612"
    },
    {
      "channel": 2,
      "note": 53,
      "start": 38.7525,
      "duration": 0.2331,
      "velocity": 107,
      "chip": "ym2612"
    },
    {
      "channel": 3,
      "note": 79,
      "start": 38.753,
      "duration": 0.1134,
      "velocity": 115,
      "chip": "ym2612"
    },
    {
      "channel": 3,
      "note": 79,
      "start": 38.8726,
      "duration": 0.2323,
      "velocity": 112,
      "chip": "ym2612"
    },
    {
      "channel": 2,
      "note": 49,
      "start": 38.991,
      "duration": 0.3525,
      "velocity": 107,
      "chip": "ym2612"
    },
    {
      "channel": 3,
      "note": 79,
      "start": 39.1117,
      "duration": 0.1123,
      "velocity": 115,
      "chip": "ym2612"
    },
    {
      "channel": 4,
      "note": 49,
      "start": 39.1122,
      "duration": 0.2314,
      "velocity": 102,
      "chip": "ym2612"
    },
    {
      "channel": 5,
      "note": 44,
      "start": 39.1127,
      "duration": 0.231,
      "velocity": 102,
      "chip": "ym2612"
    },
    {
      "channel": 3,
      "note": 79,
      "start": 39.2295,
      "duration": 0.1141,
      "velocity": 115,
      "chip": "ym2612"
    },
    {
      "channel": 0,
      "note": 70,
      "start": 39.3486,
      "duration": 0.2331,
      "velocity": 103,
      "chip": "ym2612"
    },
    {
      "channel": 2,
      "note": 56,
      "start": 39.3491,
      "duration": 0.2328,
      "velocity": 107,
      "chip": "ym2612"
    },
    {
      "channel": 3,
      "note": 79,
      "start": 39.3505,
      "duration": 0.2315,
      "velocity": 112,
      "chip": "ym2612"
    },
    {
      "channel": 1,
      "note": 70,
      "start": 39.5275,
      "duration": 0.2331,
      "velocity": 103,
      "chip": "ym2612"
    },
    {
      "channel": 0,
      "note": 72,
      "start": 39.5871,
      "duration": 0.2331,
      "velocity": 103,
      "chip": "ym2612"
    },
    {
      "channel": 2,
      "note": 61,
      "start": 39.5876,
      "duration": 0.2327,
      "velocity": 107,
      "chip": "ym2612"
    },
    {
      "channel": 3,
      "note": 79,
      "start": 39.5889,
      "duration": 0.1121,
      "velocity": 115,
      "chip": "ym2612"
    },
    {
      "channel": 4,
      "note": 49,
      "start": 39.5894,
      "duration": 0.2311,
      "velocity": 102,
      "chip": "ym2612"
    },
    {
      "channel": 5,
      "note": 44,
      "start": 39.5899,
      "duration": 0.2307,
      "velocity": 102,
      "chip": "ym2612"
    },
    {
      "channel": 3,
      "note": 79,
      "start": 39.7066,
      "duration": 0.1138,
      "velocity": 115,
      "chip": "ym2612"
    },
    {
      "channel": 1,
      "note": 72,
      "start": 39.7663,
      "duration": 0.2328,
      "velocity": 103,
      "chip": "ym2612"
    },
    {
      "channel": 0,
      "note": 73,
      "start": 39.8257,
      "duration": 0.1138,
      "velocity": 103,
      "chip": "ym2612"
    },
    {
      "channel": 2,
      "note": 53,
      "start": 39.8264,
      "duration": 0.2323,
      "velocity": 107,
      "chip": "ym2612"
    },
    {
      "channel": 3,
      "note": 79,
      "start": 39.8277,
      "duration": 0.2311,
      "velocity": 112,
      "chip": "ym2612"
    },
    {
      "channel": 0,
      "note": 75,
      "start": 39.9448,
      "duration": 1.3063,
      "velocity": 103,
      "chip": "ym2612"
    },
    {
      "channel": 1,
      "note": 73,
      "start": 40.0044,
      "duration": 0.1139,
      "velocity": 103,
      "chip": "ym2612"
    },
    {
      "channel": 2,
      "note": 51,
      "start": 40.0641,
      "duration": 0.233,
      "velocity": 107,
      "chip": "ym2612"
    },
    {
      "channel": 3,
      "note": 79,
      "start": 40.0655,
      "duration": 0.1126,
      "velocity": 115,
      "chip": "ym2612"
    },
    {
      "channel": 4,
      "note": 51,
      "start": 40.0662,
      "duration": 0.2311,
      "velocity": 102,
      "chip": "ym2612"
    },
    {
      "channel": 5,
      "note": 46,
      "start": 40.0667,
      "duration": 0.2307,
      "velocity": 102,
      "chip": "ym2612"
    },
    {
      "channel": 1,
      "note": 75,
      "start": 40.1237,
      "duration": 1.3062,
      "velocity": 103,
      "chip": "ym2612"
    },
    {
      "channel": 3,
      "note": 79,
      "start": 40.1833,
      "duration": 0.1139,
      "velocity": 115,
      "chip": "ym2612"
    },
    {
      "channel": 2,
      "note": 55,
      "start": 40.3025,
      "duration": 0.1139,
      "velocity": 107,
      "chip": "ym2612"
    },
    {
      "channel": 3,
      "note": 79,
      "start": 40.3038,
      "duration": 0.2318,
      "velocity": 112,
      "chip": "ym2612"
    },
    {
      "channel": 2,
      "note": 51,
      "start": 40.541,
      "duration": 0.1139,
      "velocity": 107,
      "chip": "ym2612"
    },
    {
      "channel": 3,
      "note": 79,
      "start": 40.5424,
      "duration": 0.1126,
      "velocity": 115,
      "chip": "ym2612"
    },
    {
      "channel": 4,
      "note": 51,
      "start": 40.5429,
      "duration": 0.2313,
      "velocity": 102,
      "chip": "ym2612"
    },
    {
      "channel": 5,
      "note": 46,
      "start": 40.5434,
      "duration": 0.2309,
      "velocity": 102,
      "chip": "ym2612"
    },
    {
      "channel": 2,
      "note": 55,
      "start": 40.6602,
      "duration": 0.2331,
      "velocity": 107,
      "chip": "ym2612"
    },
    {
      "channel": 3,
      "note": 79,
      "start": 40.6607,
      "duration": 0.1134,
      "velocity": 115,
      "chip": "ym2612"
    },
    {
      "channel": 3,
      "note": 79,
      "start": 40.7803,
      "duration": 0.2324,
      "velocity": 112,
      "chip": "ym2612"
    },
    {
      "channel": 2,
      "note": 51,
      "start": 40.8987,
      "duration": 0.3525,
      "velocity": 107,
      "chip": "ym2612"
    },
    {
      "channel": 3,
      "note": 79,
      "start": 41.0188,
      "duration": 0.1132,
      "velocity": 115,
      "chip": "ym2612"
    },
    {
      "channel": 4,
      "note": 51,
      "start": 41.0193,
      "duration": 0.2321,
      "velocity": 102,
      "chip": "ym2612"
    },
    {
      "channel": 5,
      "note": 46,
      "start": 41.0197,
      "duration": 0.2318,
      "velocity": 102,
      "chip": "ym2612"
    },
    {
      "channel": 3,
      "note": 79,
      "start": 41.1372,
      "duration": 0.1141,
      "velocity": 115,
      "chip": "ym2612"
    },
    {
      "channel": 0,
      "note": 72,
      "start": 41.2567,
      "duration": 0.2327,
      "velocity": 103,
      "chip": "ym2612"
    },
    {
      "channel": 2,
      "note": 58,
      "start": 41.2572,
      "duration": 0.2324,
      "velocity": 107,
      "chip": "ym2612"
    },
    {
      "channel": 3,
      "note": 79,
      "start": 41.2585,
      "duration": 0.2311,
      "velocity": 112,
      "chip": "ym2612"
    },
    {
      "channel": 1,
      "note": 72,
      "start": 41.4353,
      "duration": 0.233,
      "velocity": 103,
      "chip": "ym2612"
    },
    {
      "channel": 0,
      "note": 73,
      "start": 41.4949,
      "duration": 0.233,
      "velocity": 103,
      "chip": "ym2612"
    },
    {
      "channel": 2,
      "note": 63,
      "start": 41.4954,
      "duration": 0.2327,
      "velocity": 107,
      "chip": "ym2612"
    },
    {
      "channel": 3,
      "note": 79,
      "start": 41.497,
      "duration": 0.1118,
      "velocity": 115,
      "chip": "ym2612"
    },
    {
      "channel": 4,
      "note": 51,
      "start": 41.4975,
      "duration": 0.2308,
      "velocity": 102,
      "chip": "ym2612"
    },
    {
      "channel": 5,
      "note": 46,
      "start": 41.4979,
      "duration": 0.2304,
      "velocity": 102,
      "chip": "ym2612"
    },
    {
      "channel": 3,
      "note": 79,
      "start": 41.6142,
      "duration": 0.1139,
      "velocity": 115,
      "chip": "ym2612"
    },
    {
      "channel": 1,
      "note": 73,
      "start": 41.6738,
      "duration": 0.233,
      "velocity": 103,
      "chip": "ym2612"
    },
    {
      "channel": 0,
      "note": 75,
      "start": 41.7333,
      "duration": 0.2331,
      "velocity": 103,
      "chip": "ym2612"
    },
    {
      "channel": 2,
      "note": 55,
      "start": 41.7338,
      "duration": 0.2327,
      "velocity": 107,
      "chip": "ym2612"
    },
    {
      "channel": 3,
      "note": 79,
      "start": 41.7351,
      "duration": 0.2315,
      "velocity": 112,
      "chip": "ym2612"
    },
    {
      "channel": 1,
      "note": 75,
      "start": 41.9123,
      "duration": 0.233,
      "velocity": 103,
      "chip": "ym2612"
    },
    {
      "channel": 0,
      "note": 77,
      "start": 41.9718,
      "duration": 0.949,
      "velocity": 103,
      "chip": "ym2612"
    },
    {
      "channel": 2,
      "note": 49,
      "start": 41.9723,
      "duration": 0.2328,
      "velocity": 107,
      "chip": "ym2612"
    },
    {
      "channel": 3,
      "note": 79,
      "start": 41.9737,
      "duration": 0.112,
      "velocity": 115,
      "chip": "ym2612"
    },
    {
      "channel": 4,
      "note": 53,
      "start": 41.9741,
      "duration": 0.2312,
      "velocity": 102,
      "chip": "ym2612"
    },
    {
      "channel": 5,
      "note": 49,
      "start": 41.9746,
      "duration": 0.2308,
      "velocity": 102,
      "chip": "ym2612"
    },
    {
      "channel": 3,
      "note": 79,
      "start": 42.091,
      "duration": 0.1142,
      "velocity": 115,
      "chip": "ym2612"
    },
    {
      "channel": 1,
      "note": 77,
      "start": 42.1507,
      "duration": 0.9484,
      "velocity": 103,
      "chip": "ym2612"
    },
    {
      "channel": 2,
      "note": 53,
      "start": 42.2102,
      "duration": 0.1139,
      "velocity": 107,
      "chip": "ym2612"
    },
    {
      "channel": 3,
      "note": 79,
      "start": 42.2115,
      "duration": 0.2319,
      "velocity": 112,
      "chip": "ym2612"
    },
    {
      "channel": 2,
      "note": 49,
      "start": 42.4487,
      "duration": 0.114,
      "velocity": 107,
      "chip": "ym2612"
    },
    {
      "channel": 3,
      "note": 79,
      "start": 42.45,
      "duration": 0.1127,
      "velocity": 115,
      "chip": "ym2612"
    },
    {
      "channel": 4,
      "note": 53,
      "start": 42.4505,
      "duration": 0.2314,
      "velocity": 102,
      "chip": "ym2612"
    },
    {
      "channel": 5,
      "note": 49,
      "start": 42.451,
      "duration": 0.231,
      "velocity": 102,
      "chip": "ym2612"
    },
    {
      "channel": 2,
      "note": 53,
      "start": 42.5683,
      "duration": 0.2327,
      "velocity": 107,
      "chip": "ym2612"
    },
    {
      "channel": 3,
      "note": 79,
      "start": 42.5688,
      "duration": 0.113,
      "velocity": 115,
      "chip": "ym2612"
    },
    {
      "channel": 3,
      "note": 79,
      "start": 42.6881,
      "duration": 0.2327,
      "velocity": 112,
      "chip": "ym2612"
    },
    {
      "channel": 2,
      "note": 49,
      "start": 42.8067,
      "duration": 0.352,
      "velocity": 107,
      "chip": "ym2612"
    },
    {
      "channel": 0,
      "note": 79,
      "start": 42.9257,
      "duration": 0.4715,
      "velocity": 103,
      "chip": "ym2612"
    },
    {
      "channel": 3,
      "note": 79,
      "start": 42.9273,
      "duration": 0.1122,
      "velocity": 115,
      "chip": "ym2612"
    },
    {
      "channel": 4,
      "note": 53,
      "start": 42.9278,
      "duration": 0.2311,
      "velocity": 102,
      "chip": "ym2612"
    },
    {
      "channel": 5,
      "note": 49,
      "start": 42.9283,
      "duration": 0.2307,
      "velocity": 102,
      "chip": "ym2612"
    },
    {
      "channel": 3,
      "note": 79,
      "start": 43.0449,
      "duration": 0.1139,
      "velocity": 115,
      "chip": "ym2612"
    },
    {
      "channel": 1,
      "note": 79,
      "start": 43.1045,
      "duration": 0.4718,
      "velocity": 103,
      "chip": "ym2612"
    },
    {
      "channel": 2,
      "note": 56,
      "start": 43.1641,
      "duration": 0.2332,
      "velocity": 107,
      "chip": "ym2612"
    },
    {
      "channel": 3,
      "note": 79,
      "start": 43.1654,
      "duration": 0.232,
      "velocity": 112,
      "chip": "ym2612"
    },
    {
      "channel": 0,
      "note": 80,
      "start": 43.4026,
      "duration": 0.4716,
      "velocity": 103,
      "chip": "ym2612"
    },
    {
      "channel": 2,
      "note": 61,
      "start": 43.403,
      "duration": 0.2327,
      "velocity": 107,
      "chip": "ym2612"
    },
    {
      "channel": 3,
      "note": 79,
      "start": 43.4045,
      "duration": 0.1119,
      "velocity": 115,
      "chip": "ym2612"
    },
    {
      "channel": 4,
      "note": 53,
      "start": 43.405,
      "duration": 0.2309,
      "velocity": 102,
      "chip": "ym2612"
    },
    {
      "channel": 5,
      "note": 49,
      "start": 43.4054,
      "duration": 0.2308,
      "velocity": 102,
      "chip": "ym2612"
    },
    {
      "channel": 3,
      "note": 79,
      "start": 43.5218,
      "duration": 0.1139,
      "velocity": 115,
      "chip": "ym2612"
    },
    {
      "channel": 1,
      "note": 80,
      "start": 43.5815,
      "duration": 0.4715,
      "velocity": 103,
      "chip": "ym2612"
    },
    {
      "channel": 2,
      "note": 53,
      "start": 43.641,
      "duration": 0.2333,
      "velocity": 107,
      "chip": "ym2612"
    },
    {
      "channel": 3,
      "note": 79,
      "start": 43.6424,
      "duration": 0.232,
      "velocity": 112,
      "chip": "ym2612"
    },
    {
      "channel": 0,
      "note": 80,
      "start": 43.8795,
      "duration": 0.9485,
      "velocity": 103,
      "chip": "ym2612"
    },
    {
      "channel": 2,
      "note": 51,
      "start": 43.8799,
      "duration": 0.2327,
      "velocity": 107,
      "chip": "ym2612"
    },
    {
      "channel": 3,
      "note": 79,
      "start": 43.8813,
      "duration": 0.1121,
      "velocity": 115,
      "chip": "ym2612"
    },
    {
      "channel": 4,
      "note": 53,
      "start": 43.8818,
      "duration": 0.231,
      "velocity": 102,
      "chip": "ym2612"
    },
    {
      "channel": 5,
      "note": 49,
      "start": 43.8822,
      "duration": 0.2306,
      "velocity": 102,
      "chip": "ym2612"
    },
    {
      "channel": 3,
      "note": 79,
      "start": 43.9988,
      "duration": 0.1138,
      "velocity": 115,
      "chip": "ym2612"
    },
    {
      "channel": 1,
      "note": 80,
      "start": 44.0583,
      "duration": 0.949,
      "velocity": 103,
      "chip": "ym2612"
    },
    {
      "channel": 2,
      "note": 55,
      "start": 44.1179,
      "duration": 0.1139,
      "velocity": 107,
      "chip": "ym2612"
    },
    {
      "channel": 3,
      "note": 79,
      "start": 44.1194,
      "duration": 0.2319,
      "velocity": 112,
      "chip": "ym2612"
    },
    {
      "channel": 2,
      "note": 51,
      "start": 44.3566,
      "duration": 0.1137,
      "velocity": 107,
      "chip": "ym2612"
    },
    {
      "channel": 3,
      "note": 79,
      "start": 44.358,
      "duration": 0.1124,
      "velocity": 115,
      "chip": "ym2612"
    },
    {
      "channel": 4,
      "note": 53,
      "start": 44.3585,
      "duration": 0.2311,
      "velocity": 102,
      "chip": "ym2612"
    },
    {
      "channel": 5,
      "note": 49,
      "start": 44.3589,
      "duration": 0.2308,
      "velocity": 102,
      "chip": "ym2612"
    },
    {
      "channel": 2,
      "note": 55,
      "start": 44.4757,
      "duration": 0.2331,
      "velocity": 107,
      "chip": "ym2612"
    },
    {
      "channel": 3,
      "note": 79,
      "start": 44.4765,
      "duration": 0.113,
      "velocity": 115,
      "chip": "ym2612"
    },
    {
      "channel": 3,
      "note": 79,
      "start": 44.5957,
      "duration": 0.2324,
      "velocity": 112,
      "chip": "ym2612"
    },
    {
      "channel": 2,
      "note": 51,
      "start": 44.7142,
      "duration": 0.3523,
      "velocity": 107,
      "chip": "ym2612"
    },
    {
      "channel": 0,
      "note": 79,
      "start": 44.8333,
      "duration": 0.9487,
      "velocity": 103,
      "chip": "ym2612"
    },
    {
      "channel": 3,
      "note": 79,
      "start": 44.8347,
      "duration": 0.1126,
      "velocity": 115,
      "chip": "ym2612"
    },
    {
      "channel": 4,
      "note": 55,
      "start": 44.8353,
      "duration": 0.2314,
      "velocity": 102,
      "chip": "ym2612"
    },
    {
      "channel": 5,
      "note": 51,
      "start": 44.8357,
      "duration": 0.2311,
      "velocity": 102,
      "chip": "ym2612"
    },
    {
      "channel": 3,
      "note": 79,
      "start": 44.9526,
      "duration": 0.1139,
      "velocity": 115,
      "chip": "ym2612"
    },
    {
      "channel": 1,
      "note": 79,
      "start": 45.0122,
      "duration": 0.77,
      "velocity": 103,
      "chip": "ym2612"
    },
    {
      "channel": 2,
      "note": 58,
      "start": 45.0718,
      "duration": 0.114,
      "velocity": 107,
      "chip": "ym2612"
    },
    {
      "channel": 3,
      "note": 79,
      "start": 45.0731,
      "duration": 0.232,
      "velocity": 112,
      "chip": "ym2612"
    },
    {
      "channel": 2,
      "note": 67,
      "start": 45.191,
      "duration": 0.114,
      "velocity": 107,
      "chip": "ym2612"
    },
    {
      "channel": 2,
      "note": 55,
      "start": 45.3103,
      "duration": 0.1138,
      "velocity": 107,
      "chip": "ym2612"
    },
    {
      "channel": 3,
      "note": 79,
      "start": 45.3117,
      "duration": 0.1126,
      "velocity": 115,
      "chip": "ym2612"
    },
    {
      "channel": 4,
      "note": 55,
      "start": 45.3122,
      "duration": 0.2315,
      "velocity": 102,
      "chip": "ym2612"
    },
    {
      "channel": 5,
      "note": 51,
      "start": 45.3127,
      "duration": 0.231,
      "velocity": 102,
      "chip": "ym2612"
    },
    {
      "channel": 2,
      "note": 53,
      "start": 45.4295,
      "duration": 0.1139,
      "velocity": 107,
      "chip": "ym2612"
    },
    {
      "channel": 3,
      "note": 79,
      "start": 45.4301,
      "duration": 0.1134,
      "velocity": 115,
      "chip": "ym2612"
    },
    {
      "channel": 2,
      "note": 46,
      "start": 45.5487,
      "duration": 0.1139,
      "velocity": 107,
      "chip": "ym2612"
    },
    {
      "channel": 3,
      "note": 79,
      "start": 45.5501,
      "duration": 0.2321,
      "velocity": 112,
      "chip": "ym2612"
    },
    {
      "channel": 2,
      "note": 55,
      "start": 45.668,
      "duration": 0.1141,
      "velocity": 107,
      "chip": "ym2612"
    },
    {
      "channel": 0,
      "note": 70,
      "start": 45.7884,
      "duration": 0.1132,
      "velocity": 107,
      "chip": "ym2612"
    },
    {
      "channel": 2,
      "note": 51,
      "start": 45.7898,
      "duration": 0.2312,
      "velocity": 107,
      "chip": "ym2612"
    },
    {
      "channel": 3,
      "note": 79,
      "start": 45.7913,
      "duration": 0.1105,
      "velocity": 115,
      "chip": "ym2612"
    },
    {
      "channel": 4,
      "note": 87,
      "start": 45.7931,
      "duration": 0.2306,
      "velocity": 102,
      "chip": "ym2612"
    },
    {
      "channel": 5,
      "note": 84,
      "start": 45.7947,
      "duration": 0.229,
      "velocity": 102,
      "chip": "ym2612"
    },
    {
      "channel": 0,
      "note": 72,
      "start": 45.9072,
      "duration": 0.1137,
      "velocity": 107,
      "chip": "ym2612"
    },
    {
      "channel": 3,
      "note": 79,
      "start": 45.9077,
      "duration": 0.1133,
      "velocity": 115,
      "chip": "ym2612"
    },
    {
      "channel": 1,
      "note": 70,
      "start": 45.9679,
      "duration": 0.0557,
      "velocity": 107,
      "chip": "ym2612"
    }
  ]
}