{
  "track_name": "05 - Air Passage",
  "duration_sec": 32.313,
  "sample_rate": 44100,
  "note_count": 815,
  "unique_pitches": 26,
  "pitch_range": 34,
  "avg_note_duration": 0.1643,
  "reconstruction_stats": {
    "notes_reconstructed": 815,
    "keyon_events": 815,
    "keyoff_events": 814,
    "orphan_keyons": 1,
    "unique_pitches": 26,
    "pitch_range": 34,
    "avg_duration_sec": 0.1643
  },
  "metadata": {
    "source": "D\\Devilish\\05 - Air Passage.vgz"
  },
  "notes": [
    {
      "channel": 1,
      "note": 64,
      "start": 0.0,
      "duration": 0.1149,
      "velocity": 127,
      "chip": "ym2612"
    },
    {
      "channel": 2,
      "note": 39,
      "start": 0.0026,
      "duration": 0.0917,
      "velocity": 101,
      "chip": "ym2612"
    },
    {
      "channel": 3,
      "note": 32,
      "start": 0.008,
      "duration": 0.0879,
      "velocity": 101,
      "chip": "ym2612"
    },
    {
      "channel": 4,
      "note": 44,
      "start": 0.0105,
      "duration": 0.2092,
      "velocity": 110,
      "chip": "ym2612"
    },
    {
      "channel": 2,
      "note": 39,
      "start": 0.1159,
      "duration": 0.1018,
      "velocity": 101,
      "chip": "ym2612"
    },
    {
      "channel": 3,
      "note": 32,
      "start": 0.118,
      "duration": 0.1013,
      "velocity": 101,
      "chip": "ym2612"
    },
    {
      "channel": 1,
      "note": 57,
      "start": 0.24,
      "duration": 0.1217,
      "velocity": 123,
      "chip": "ym2612"
    },
    {
      "channel": 2,
      "note": 39,
      "start": 0.2409,
      "duration": 0.1004,
      "velocity": 101,
      "chip": "ym2612"
    },
    {
      "channel": 3,
      "note": 32,
      "start": 0.2431,
      "duration": 0.0998,
      "velocity": 101,
      "chip": "ym2612"
    },
    {
      "channel": 2,
      "note": 39,
      "start": 0.363,
      "duration": 0.1018,
      "velocity": 101,
      "chip": "ym2612"
    },
    {
      "channel": 3,
      "note": 32,
      "start": 0.3655,
      "duration": 0.101,
      "velocity": 101,
      "chip": "ym2612"
    },
    {
      "channel": 1,
      "note": 59,
      "start": 0.4868,
      "duration": 0.2494,
      "velocity": 127,
      "chip": "ym2612"
    },
    {
      "channel": 2,
      "note": 39,
      "start": 0.4878,
      "duration": 0.1031,
      "velocity": 101,
      "chip": "ym2612"
    },
    {
      "channel": 3,
      "note": 32,
      "start": 0.49,
      "duration": 0.1025,
      "velocity": 101,
      "chip": "ym2612"
    },
    {
      "channel": 2,
      "note": 39,
      "start": 0.6123,
      "duration": 0.1023,
      "velocity": 101,
      "chip": "ym2612"
    },
    {
      "channel": 3,
      "note": 32,
      "start": 0.6151,
      "duration": 0.1011,
      "velocity": 101,
      "chip": "ym2612"
    },
    {
      "channel": 1,
      "note": 64,
      "start": 0.7365,
      "duration": 0.1233,
      "velocity": 123,
      "chip": "ym2612"
    },
    {
      "channel": 2,
      "note": 37,
      "start": 0.7376,
      "duration": 0.2236,
      "velocity": 101,
      "chip": "ym2612"
    },
    {
      "channel": 3,
      "note": 30,
      "start": 0.74,
      "duration": 0.2235,
      "velocity": 101,
      "chip": "ym2612"
    },
    {
      "channel": 4,
      "note": 42,
      "start": 0.7407,
      "duration": 0.2232,
      "velocity": 110,
      "chip": "ym2612"
    },
    {
      "channel": 1,
      "note": 57,
      "start": 0.86,
      "duration": 0.1232,
      "velocity": 127,
      "chip": "ym2612"
    },
    {
      "channel": 1,
      "note": 64,
      "start": 0.9833,
      "duration": 0.1247,
      "velocity": 127,
      "chip": "ym2612"
    },
    {
      "channel": 2,
      "note": 39,
      "start": 0.9842,
      "duration": 0.1033,
      "velocity": 101,
      "chip": "ym2612"
    },
    {
      "channel": 3,
      "note": 32,
      "start": 0.9861,
      "duration": 0.103,
      "velocity": 101,
      "chip": "ym2612"
    },
    {
      "channel": 4,
      "note": 44,
      "start": 0.9868,
      "duration": 0.2267,
      "velocity": 110,
      "chip": "ym2612"
    },
    {
      "channel": 2,
      "note": 39,
      "start": 1.1091,
      "duration": 0.1018,
      "velocity": 101,
      "chip": "ym2612"
    },
    {
      "channel": 3,
      "note": 32,
      "start": 1.1112,
      "duration": 0.1013,
      "velocity": 101,
      "chip": "ym2612"
    },
    {
      "channel": 1,
      "note": 57,
      "start": 1.2331,
      "duration": 0.1217,
      "velocity": 123,
      "chip": "ym2612"
    },
    {
      "channel": 2,
      "note": 39,
      "start": 1.234,
      "duration": 0.1004,
      "velocity": 101,
      "chip": "ym2612"
    },
    {
      "channel": 3,
      "note": 32,
      "start": 1.2363,
      "duration": 0.0998,
      "velocity": 101,
      "chip": "ym2612"
    },
    {
      "channel": 2,
      "note": 39,
      "start": 1.3559,
      "duration": 0.1019,
      "velocity": 101,
      "chip": "ym2612"
    },
    {
      "channel": 3,
      "note": 32,
      "start": 1.358,
      "duration": 0.1014,
      "velocity": 101,
      "chip": "ym2612"
    },
    {
      "channel": 1,
      "note": 59,
      "start": 1.4806,
      "duration": 0.2492,
      "velocity": 123,
      "chip": "ym2612"
    },
    {
      "channel": 2,
      "note": 39,
      "start": 1.4816,
      "duration": 0.1024,
      "velocity": 101,
      "chip": "ym2612"
    },
    {
      "channel": 3,
      "note": 32,
      "start": 1.4838,
      "duration": 0.1018,
      "velocity": 101,
      "chip": "ym2612"
    },
    {
      "channel": 2,
      "note": 39,
      "start": 1.6055,
      "duration": 0.102,
      "velocity": 101,
      "chip": "ym2612"
    },
    {
      "channel": 3,
      "note": 32,
      "start": 1.6076,
      "duration": 0.1015,
      "velocity": 101,
      "chip": "ym2612"
    },
    {
      "channel": 1,
      "note": 57,
      "start": 1.7303,
      "duration": 0.1225,
      "velocity": 127,
      "chip": "ym2612"
    },
    {
      "channel": 2,
      "note": 39,
      "start": 1.7314,
      "duration": 0.1001,
      "velocity": 101,
      "chip": "ym2612"
    },
    {
      "channel": 3,
      "note": 32,
      "start": 1.7335,
      "duration": 0.0996,
      "velocity": 101,
      "chip": "ym2612"
    },
    {
      "channel": 1,
      "note": 64,
      "start": 1.8531,
      "duration": 0.1247,
      "velocity": 127,
      "chip": "ym2612"
    },
    {
      "channel": 2,
      "note": 37,
      "start": 1.854,
      "duration": 0.1032,
      "velocity": 101,
      "chip": "ym2612"
    },
    {
      "channel": 3,
      "note": 30,
      "start": 1.8561,
      "duration": 0.1027,
      "velocity": 101,
      "chip": "ym2612"
    },
    {
      "channel": 4,
      "note": 42,
      "start": 1.8567,
      "duration": 0.1025,
      "velocity": 110,
      "chip": "ym2612"
    },
    {
      "channel": 1,
      "note": 64,
      "start": 1.978,
      "duration": 0.1232,
      "velocity": 127,
      "chip": "ym2612"
    },
    {
      "channel": 2,
      "note": 39,
      "start": 1.9788,
      "duration": 0.472,
      "velocity": 101,
      "chip": "ym2612"
    },
    {
      "channel": 3,
      "note": 32,
      "start": 1.9815,
      "duration": 0.471,
      "velocity": 101,
      "chip": "ym2612"
    },
    {
      "channel": 4,
      "note": 44,
      "start": 1.9824,
      "duration": 0.5939,
      "velocity": 110,
      "chip": "ym2612"
    },
    {
      "channel": 1,
      "note": 57,
      "start": 2.2262,
      "duration": 0.1217,
      "velocity": 123,
      "chip": "ym2612"
    },
    {
      "channel": 1,
      "note": 59,
      "start": 2.473,
      "duration": 0.2466,
      "velocity": 123,
      "chip": "ym2612"
    },
    {
      "channel": 2,
      "note": 39,
      "start": 2.474,
      "duration": 0.4705,
      "velocity": 101,
      "chip": "ym2612"
    },
    {
      "channel": 3,
      "note": 32,
      "start": 2.4761,
      "duration": 0.4708,
      "velocity": 101,
      "chip": "ym2612"
    },
    {
      "channel": 1,
      "note": 57,
      "start": 2.7199,
      "duration": 0.1217,
      "velocity": 123,
      "chip": "ym2612"
    },
    {
      "channel": 1,
      "note": 57,
      "start": 2.8418,
      "duration": 0.1246,
      "velocity": 127,
      "chip": "ym2612"
    },
    {
      "channel": 1,
      "note": 64,
      "start": 2.9666,
      "duration": 0.1261,
      "velocity": 127,
      "chip": "ym2612"
    },
    {
      "channel": 2,
      "note": 44,
      "start": 2.9676,
      "duration": 0.1032,
      "velocity": 101,
      "chip": "ym2612"
    },
    {
      "channel": 4,
      "note": 44,
      "start": 2.9705,
      "duration": 0.1022,
      "velocity": 110,
      "chip": "ym2612"
    },
    {
      "channel": 1,
      "note": 59,
      "start": 3.093,
      "duration": 0.1218,
      "velocity": 127,
      "chip": "ym2612"
    },
    {
      "channel": 2,
      "note": 49,
      "start": 3.0938,
      "duration": 0.1006,
      "velocity": 101,
      "chip": "ym2612"
    },
    {
      "channel": 3,
      "note": 44,
      "start": 3.0957,
      "duration": 0.1002,
      "velocity": 101,
      "chip": "ym2612"
    },
    {
      "channel": 4,
      "note": 49,
      "start": 3.0971,
      "duration": 0.0999,
      "velocity": 110,
      "chip": "ym2612"
    },
    {
      "channel": 1,
      "note": 59,
      "start": 3.215,
      "duration": 0.1246,
      "velocity": 127,
      "chip": "ym2612"
    },
    {
      "channel": 3,
      "note": 49,
      "start": 3.2175,
      "duration": 0.1018,
      "velocity": 101,
      "chip": "ym2612"
    },
    {
      "channel": 1,
      "note": 64,
      "start": 3.3398,
      "duration": 0.1261,
      "velocity": 127,
      "chip": "ym2612"
    },
    {
      "channel": 2,
      "note": 49,
      "start": 3.3406,
      "duration": 0.3502,
      "velocity": 101,
      "chip": "ym2612"
    },
    {
      "channel": 4,
      "note": 49,
      "start": 3.3429,
      "duration": 0.3499,
      "velocity": 110,
      "chip": "ym2612"
    },
    {
      "channel": 1,
      "note": 62,
      "start": 3.4662,
      "duration": 0.0405,
      "velocity": 127,
      "chip": "ym2612"
    },
    {
      "channel": 3,
      "note": 49,
      "start": 3.4688,
      "duration": 0.3476,
      "velocity": 101,
      "chip": "ym2612"
    },
    {
      "channel": 1,
      "note": 62,
      "start": 3.5069,
      "duration": 0.0811,
      "velocity": 127,
      "chip": "ym2612"
    },
    {
      "channel": 1,
      "note": 62,
      "start": 3.5882,
      "duration": 0.1232,
      "velocity": 127,
      "chip": "ym2612"
    },
    {
      "channel": 1,
      "note": 59,
      "start": 3.7116,
      "duration": 0.1232,
      "velocity": 127,
      "chip": "ym2612"
    },
    {
      "channel": 2,
      "note": 44,
      "start": 3.7124,
      "duration": 0.2253,
      "velocity": 101,
      "chip": "ym2612"
    },
    {
      "channel": 4,
      "note": 44,
      "start": 3.7154,
      "duration": 0.2243,
      "velocity": 110,
      "chip": "ym2612"
    },
    {
      "channel": 1,
      "note": 55,
      "start": 3.835,
      "duration": 0.1249,
      "velocity": 127,
      "chip": "ym2612"
    },
    {
      "channel": 3,
      "note": 44,
      "start": 3.8377,
      "duration": 0.1016,
      "velocity": 101,
      "chip": "ym2612"
    },
    {
      "channel": 1,
      "note": 64,
      "start": 3.96,
      "duration": 0.1244,
      "velocity": 127,
      "chip": "ym2612"
    },
    {
      "channel": 2,
      "note": 39,
      "start": 3.9611,
      "duration": 0.1034,
      "velocity": 101,
      "chip": "ym2612"
    },
    {
      "channel": 3,
      "note": 32,
      "start": 3.9644,
      "duration": 0.1018,
      "velocity": 101,
      "chip": "ym2612"
    },
    {
      "channel": 4,
      "note": 44,
      "start": 3.965,
      "duration": 0.2243,
      "velocity": 110,
      "chip": "ym2612"
    },
    {
      "channel": 2,
      "note": 39,
      "start": 4.0855,
      "duration": 0.1018,
      "velocity": 101,
      "chip": "ym2612"
    },
    {
      "channel": 3,
      "note": 32,
      "start": 4.0876,
      "duration": 0.1013,
      "velocity": 101,
      "chip": "ym2612"
    },
    {
      "channel": 1,
      "note": 57,
      "start": 4.2095,
      "duration": 0.1217,
      "velocity": 123,
      "chip": "ym2612"
    },
    {
      "channel": 2,
      "note": 39,
      "start": 4.2105,
      "duration": 0.1004,
      "velocity": 101,
      "chip": "ym2612"
    },
    {
      "channel": 3,
      "note": 32,
      "start": 4.2127,
      "duration": 0.0998,
      "velocity": 101,
      "chip": "ym2612"
    },
    {
      "channel": 2,
      "note": 39,
      "start": 4.3324,
      "duration": 0.1018,
      "velocity": 101,
      "chip": "ym2612"
    },
    {
      "channel": 3,
      "note": 32,
      "start": 4.3345,
      "duration": 0.1014,
      "velocity": 101,
      "chip": "ym2612"
    },
    {
      "channel": 1,
      "note": 59,
      "start": 4.4564,
      "duration": 0.2495,
      "velocity": 127,
      "chip": "ym2612"
    },
    {
      "channel": 2,
      "note": 39,
      "start": 4.4573,
      "duration": 0.1032,
      "velocity": 101,
      "chip": "ym2612"
    },
    {
      "channel": 3,
      "note": 32,
      "start": 4.4595,
      "duration": 0.1025,
      "velocity": 101,
      "chip": "ym2612"
    },
    {
      "channel": 2,
      "note": 39,
      "start": 4.5819,
      "duration": 0.1019,
      "velocity": 101,
      "chip": "ym2612"
    },
    {
      "channel": 3,
      "note": 32,
      "start": 4.584,
      "duration": 0.1015,
      "velocity": 101,
      "chip": "ym2612"
    },
    {
      "channel": 1,
      "note": 64,
      "start": 4.7061,
      "duration": 0.1234,
      "velocity": 123,
      "chip": "ym2612"
    },
    {
      "channel": 2,
      "note": 39,
      "start": 4.7072,
      "duration": 0.2265,
      "velocity": 101,
      "chip": "ym2612"
    },
    {
      "channel": 3,
      "note": 32,
      "start": 4.7095,
      "duration": 0.2258,
      "velocity": 101,
      "chip": "ym2612"
    },
    {
      "channel": 4,
      "note": 44,
      "start": 4.7102,
      "duration": 0.2254,
      "velocity": 110,
      "chip": "ym2612"
    },
    {
      "channel": 1,
      "note": 57,
      "start": 4.8303,
      "duration": 0.1253,
      "velocity": 127,
      "chip": "ym2612"
    },
    {
      "channel": 1,
      "note": 64,
      "start": 4.9559,
      "duration": 0.1218,
      "velocity": 127,
      "chip": "ym2612"
    },
    {
      "channel": 2,
      "note": 39,
      "start": 4.9566,
      "duration": 0.1006,
      "velocity": 101,
      "chip": "ym2612"
    },
    {
      "channel": 3,
      "note": 32,
      "start": 4.9587,
      "duration": 0.1002,
      "velocity": 101,
      "chip": "ym2612"
    },
    {
      "channel": 4,
      "note": 44,
      "start": 4.9593,
      "duration": 0.2239,
      "velocity": 110,
      "chip": "ym2612"
    },
    {
      "channel": 2,
      "note": 39,
      "start": 5.0788,
      "duration": 0.1025,
      "velocity": 101,
      "chip": "ym2612"
    },
    {
      "channel": 3,
      "note": 32,
      "start": 5.0815,
      "duration": 0.1014,
      "velocity": 101,
      "chip": "ym2612"
    },
    {
      "channel": 1,
      "note": 57,
      "start": 5.2027,
      "duration": 0.1247,
      "velocity": 123,
      "chip": "ym2612"
    },
    {
      "channel": 2,
      "note": 39,
      "start": 5.2037,
      "duration": 0.1032,
      "velocity": 101,
      "chip": "ym2612"
    },
    {
      "channel": 3,
      "note": 32,
      "start": 5.2059,
      "duration": 0.1025,
      "velocity": 101,
      "chip": "ym2612"
    },
    {
      "channel": 2,
      "note": 39,
      "start": 5.3284,
      "duration": 0.1025,
      "velocity": 101,
      "chip": "ym2612"
    },
    {
      "channel": 3,
      "note": 32,
      "start": 5.3312,
      "duration": 0.1013,
      "velocity": 101,
      "chip": "ym2612"
    },
    {
      "channel": 1,
      "note": 59,
      "start": 5.4525,
      "duration": 0.2466,
      "velocity": 123,
      "chip": "ym2612"
    },
    {
      "channel": 2,
      "note": 39,
      "start": 5.4534,
      "duration": 0.1003,
      "velocity": 101,
      "chip": "ym2612"
    },
    {
      "channel": 3,
      "note": 32,
      "start": 5.4557,
      "duration": 0.0997,
      "velocity": 101,
      "chip": "ym2612"
    },
    {
      "channel": 2,
      "note": 39,
      "start": 5.5752,
      "duration": 0.102,
      "velocity": 101,
      "chip": "ym2612"
    },
    {
      "channel": 3,
      "note": 32,
      "start": 5.5773,
      "duration": 0.1015,
      "velocity": 101,
      "chip": "ym2612"
    },
    {
      "channel": 1,
      "note": 57,
      "start": 5.6994,
      "duration": 0.126,
      "velocity": 127,
      "chip": "ym2612"
    },
    {
      "channel": 2,
      "note": 39,
      "start": 5.7003,
      "duration": 0.1031,
      "velocity": 101,
      "chip": "ym2612"
    },
    {
      "channel": 3,
      "note": 32,
      "start": 5.7025,
      "duration": 0.1026,
      "velocity": 101,
      "chip": "ym2612"
    },
    {
      "channel": 1,
      "note": 64,
      "start": 5.8256,
      "duration": 0.1219,
      "velocity": 127,
      "chip": "ym2612"
    },
    {
      "channel": 2,
      "note": 37,
      "start": 5.8265,
      "duration": 0.1005,
      "velocity": 101,
      "chip": "ym2612"
    },
    {
      "channel": 3,
      "note": 30,
      "start": 5.8286,
      "duration": 0.1,
      "velocity": 101,
      "chip": "ym2612"
    },
    {
      "channel": 4,
      "note": 42,
      "start": 5.8294,
      "duration": 0.0996,
      "velocity": 110,
      "chip": "ym2612"
    },
    {
      "channel": 1,
      "note": 64,
      "start": 5.9478,
      "duration": 0.1231,
      "velocity": 127,
      "chip": "ym2612"
    },
    {
      "channel": 2,
      "note": 39,
      "start": 5.9486,
      "duration": 0.472,
      "velocity": 101,
      "chip": "ym2612"
    },
    {
      "channel": 3,
      "note": 32,
      "start": 5.9507,
      "duration": 0.4716,
      "velocity": 101,
      "chip": "ym2612"
    },
    {
      "channel": 4,
      "note": 44,
      "start": 5.9515,
      "duration": 0.5978,
      "velocity": 110,
      "chip": "ym2612"
    },
    {
      "channel": 1,
      "note": 57,
      "start": 6.1959,
      "duration": 0.1217,
      "velocity": 123,
      "chip": "ym2612"
    },
    {
      "channel": 1,
      "note": 59,
      "start": 6.4427,
      "duration": 0.2495,
      "velocity": 123,
      "chip": "ym2612"
    },
    {
      "channel": 2,
      "note": 39,
      "start": 6.4437,
      "duration": 0.4733,
      "velocity": 101,
      "chip": "ym2612"
    },
    {
      "channel": 3,
      "note": 32,
      "start": 6.4458,
      "duration": 0.4729,
      "velocity": 101,
      "chip": "ym2612"
    },
    {
      "channel": 1,
      "note": 57,
      "start": 6.6924,
      "duration": 0.1217,
      "velocity": 123,
      "chip": "ym2612"
    },
    {
      "channel": 1,
      "note": 57,
      "start": 6.8144,
      "duration": 0.1246,
      "velocity": 127,
      "chip": "ym2612"
    },
    {
      "channel": 1,
      "note": 64,
      "start": 6.9391,
      "duration": 0.1234,
      "velocity": 127,
      "chip": "ym2612"
    },
    {
      "channel": 2,
      "note": 40,
      "start": 6.9401,
      "duration": 0.1004,
      "velocity": 101,
      "chip": "ym2612"
    },
    {
      "channel": 4,
      "note": 40,
      "start": 6.9432,
      "duration": 0.0994,
      "velocity": 110,
      "chip": "ym2612"
    },
    {
      "channel": 1,
      "note": 59,
      "start": 7.0628,
      "duration": 0.1245,
      "velocity": 127,
      "chip": "ym2612"
    },
    {
      "channel": 2,
      "note": 42,
      "start": 7.0641,
      "duration": 0.1027,
      "velocity": 101,
      "chip": "ym2612"
    },
    {
      "channel": 3,
      "note": 40,
      "start": 7.066,
      "duration": 0.1024,
      "velocity": 101,
      "chip": "ym2612"
    },
    {
      "channel": 4,
      "note": 42,
      "start": 7.0667,
      "duration": 0.1021,
      "velocity": 110,
      "chip": "ym2612"
    },
    {
      "channel": 1,
      "note": 59,
      "start": 7.1875,
      "duration": 0.1246,
      "velocity": 127,
      "chip": "ym2612"
    },
    {
      "channel": 2,
      "note": 44,
      "start": 7.1882,
      "duration": 0.1019,
      "velocity": 101,
      "chip": "ym2612"
    },
    {
      "channel": 3,
      "note": 42,
      "start": 7.1902,
      "duration": 0.1015,
      "velocity": 101,
      "chip": "ym2612"
    },
    {
      "channel": 4,
      "note": 44,
      "start": 7.1908,
      "duration": 0.1013,
      "velocity": 110,
      "chip": "ym2612"
    },
    {
      "channel": 1,
      "note": 64,
      "start": 7.3123,
      "duration": 0.1233,
      "velocity": 127,
      "chip": "ym2612"
    },
    {
      "channel": 2,
      "note": 46,
      "start": 7.3137,
      "duration": 0.1006,
      "velocity": 101,
      "chip": "ym2612"
    },
    {
      "channel": 3,
      "note": 44,
      "start": 7.3157,
      "duration": 0.1002,
      "velocity": 101,
      "chip": "ym2612"
    },
    {
      "channel": 4,
      "note": 46,
      "start": 7.3165,
      "duration": 0.0999,
      "velocity": 110,
      "chip": "ym2612"
    },
    {
      "channel": 1,
      "note": 62,
      "start": 7.4359,
      "duration": 0.0405,
      "velocity": 127,
      "chip": "ym2612"
    },
    {
      "channel": 2,
      "note": 47,
      "start": 7.4366,
      "duration": 0.1034,
      "velocity": 101,
      "chip": "ym2612"
    },
    {
      "channel": 3,
      "note": 46,
      "start": 7.4386,
      "duration": 0.1029,
      "velocity": 101,
      "chip": "ym2612"
    },
    {
      "channel": 4,
      "note": 47,
      "start": 7.4393,
      "duration": 0.1027,
      "velocity": 110,
      "chip": "ym2612"
    },
    {
      "channel": 1,
      "note": 62,
      "start": 7.4765,
      "duration": 0.084,
      "velocity": 127,
      "chip": "ym2612"
    },
    {
      "channel": 1,
      "note": 62,
      "start": 7.5607,
      "duration": 0.1232,
      "velocity": 127,
      "chip": "ym2612"
    },
    {
      "channel": 2,
      "note": 46,
      "start": 7.5615,
      "duration": 0.1025,
      "velocity": 101,
      "chip": "ym2612"
    },
    {
      "channel": 3,
      "note": 47,
      "start": 7.5641,
      "duration": 0.1016,
      "velocity": 101,
      "chip": "ym2612"
    },
    {
      "channel": 4,
      "note": 46,
      "start": 7.5647,
      "duration": 0.1013,
      "velocity": 110,
      "chip": "ym2612"
    },
    {
      "channel": 1,
      "note": 59,
      "start": 7.6841,
      "duration": 0.1233,
      "velocity": 127,
      "chip": "ym2612"
    },
    {
      "channel": 2,
      "note": 44,
      "start": 7.6849,
      "duration": 0.1019,
      "velocity": 101,
      "chip": "ym2612"
    },
    {
      "channel": 3,
      "note": 46,
      "start": 7.6868,
      "duration": 0.1015,
      "velocity": 101,
      "chip": "ym2612"
    },
    {
      "channel": 4,
      "note": 44,
      "start": 7.6875,
      "duration": 0.1012,
      "velocity": 110,
      "chip": "ym2612"
    },
    {
      "channel": 1,
      "note": 55,
      "start": 7.8076,
      "duration": 0.125,
      "velocity": 127,
      "chip": "ym2612"
    },
    {
      "channel": 2,
      "note": 42,
      "start": 7.8083,
      "duration": 0.1018,
      "velocity": 101,
      "chip": "ym2612"
    },
    {
      "channel": 3,
      "note": 44,
      "start": 7.8103,
      "duration": 0.1014,
      "velocity": 101,
      "chip": "ym2612"
    },
    {
      "channel": 4,
      "note": 42,
      "start": 7.811,
      "duration": 0.1011,
      "velocity": 110,
      "chip": "ym2612"
    },
    {
      "channel": 1,
      "note": 64,
      "start": 7.9328,
      "duration": 0.1213,
      "velocity": 127,
      "chip": "ym2612"
    },
    {
      "channel": 2,
      "note": 39,
      "start": 7.9337,
      "duration": 0.0999,
      "velocity": 101,
      "chip": "ym2612"
    },
    {
      "channel": 3,
      "note": 32,
      "start": 7.9363,
      "duration": 0.099,
      "velocity": 101,
      "chip": "ym2612"
    },
    {
      "channel": 4,
      "note": 44,
      "start": 7.9371,
      "duration": 0.2219,
      "velocity": 110,
      "chip": "ym2612"
    },
    {
      "channel": 2,
      "note": 39,
      "start": 8.0551,
      "duration": 0.1019,
      "velocity": 101,
      "chip": "ym2612"
    },
    {
      "channel": 3,
      "note": 32,
      "start": 8.0573,
      "duration": 0.1014,
      "velocity": 101,
      "chip": "ym2612"
    },
    {
      "channel": 1,
      "note": 57,
      "start": 8.1792,
      "duration": 0.1246,
      "velocity": 123,
      "chip": "ym2612"
    },
    {
      "channel": 2,
      "note": 39,
      "start": 8.1809,
      "duration": 0.1024,
      "velocity": 101,
      "chip": "ym2612"
    },
    {
      "channel": 3,
      "note": 32,
      "start": 8.183,
      "duration": 0.1019,
      "velocity": 101,
      "chip": "ym2612"
    },
    {
      "channel": 2,
      "note": 39,
      "start": 8.3049,
      "duration": 0.1018,
      "velocity": 101,
      "chip": "ym2612"
    },
    {
      "channel": 3,
      "note": 32,
      "start": 8.307,
      "duration": 0.1013,
      "velocity": 101,
      "chip": "ym2612"
    },
    {
      "channel": 1,
      "note": 59,
      "start": 8.4289,
      "duration": 0.2466,
      "velocity": 127,
      "chip": "ym2612"
    },
    {
      "channel": 2,
      "note": 39,
      "start": 8.4305,
      "duration": 0.1003,
      "velocity": 101,
      "chip": "ym2612"
    },
    {
      "channel": 3,
      "note": 32,
      "start": 8.4327,
      "duration": 0.0998,
      "velocity": 101,
      "chip": "ym2612"
    },
    {
      "channel": 2,
      "note": 39,
      "start": 8.5516,
      "duration": 0.102,
      "velocity": 101,
      "chip": "ym2612"
    },
    {
      "channel": 3,
      "note": 32,
      "start": 8.5537,
      "duration": 0.1015,
      "velocity": 101,
      "chip": "ym2612"
    },
    {
      "channel": 1,
      "note": 64,
      "start": 8.6758,
      "duration": 0.1261,
      "velocity": 123,
      "chip": "ym2612"
    },
    {
      "channel": 2,
      "note": 37,
      "start": 8.6769,
      "duration": 0.2263,
      "velocity": 101,
      "chip": "ym2612"
    },
    {
      "channel": 3,
      "note": 30,
      "start": 8.6793,
      "duration": 0.2256,
      "velocity": 101,
      "chip": "ym2612"
    },
    {
      "channel": 4,
      "note": 42,
      "start": 8.6806,
      "duration": 0.2247,
      "velocity": 110,
      "chip": "ym2612"
    },
    {
      "channel": 1,
      "note": 57,
      "start": 8.8021,
      "duration": 0.1232,
      "velocity": 127,
      "chip": "ym2612"
    },
    {
      "channel": 1,
      "note": 64,
      "start": 8.9254,
      "duration": 0.1221,
      "velocity": 127,
      "chip": "ym2612"
    },
    {
      "channel": 2,
      "note": 39,
      "start": 8.9263,
      "duration": 0.1005,
      "velocity": 101,
      "chip": "ym2612"
    },
    {
      "channel": 3,
      "note": 32,
      "start": 8.9283,
      "duration": 0.1001,
      "velocity": 101,
      "chip": "ym2612"
    },
    {
      "channel": 4,
      "note": 44,
      "start": 8.9289,
      "duration": 0.2233,
      "velocity": 110,
      "chip": "ym2612"
    },
    {
      "channel": 2,
      "note": 39,
      "start": 9.0486,
      "duration": 0.1016,
      "velocity": 101,
      "chip": "ym2612"
    },
    {
      "channel": 3,
      "note": 32,
      "start": 9.0507,
      "duration": 0.1011,
      "velocity": 101,
      "chip": "ym2612"
    },
    {
      "channel": 1,
      "note": 57,
      "start": 9.1723,
      "duration": 0.1251,
      "velocity": 123,
      "chip": "ym2612"
    },
    {
      "channel": 2,
      "note": 39,
      "start": 9.1733,
      "duration": 0.1032,
      "velocity": 101,
      "chip": "ym2612"
    },
    {
      "channel": 3,
      "note": 32,
      "start": 9.1755,
      "duration": 0.1025,
      "velocity": 101,
      "chip": "ym2612"
    },
    {
      "channel": 2,
      "note": 39,
      "start": 9.2985,
      "duration": 0.1013,
      "velocity": 101,
      "chip": "ym2612"
    },
    {
      "channel": 3,
      "note": 32,
      "start": 9.3006,
      "duration": 0.1009,
      "velocity": 101,
      "chip": "ym2612"
    },
    {
      "channel": 1,
      "note": 59,
      "start": 9.4221,
      "duration": 0.2466,
      "velocity": 123,
      "chip": "ym2612"
    },
    {
      "channel": 2,
      "note": 39,
      "start": 9.423,
      "duration": 0.1003,
      "velocity": 101,
      "chip": "ym2612"
    },
    {
      "channel": 3,
      "note": 32,
      "start": 9.4252,
      "duration": 0.0998,
      "velocity": 101,
      "chip": "ym2612"
    },
    {
      "channel": 2,
      "note": 39,
      "start": 9.5447,
      "duration": 0.1027,
      "velocity": 101,
      "chip": "ym2612"
    },
    {
      "channel": 3,
      "note": 32,
      "start": 9.5475,
      "duration": 0.1015,
      "velocity": 101,
      "chip": "ym2612"
    },
    {
      "channel": 1,
      "note": 57,
      "start": 9.6689,
      "duration": 0.1261,
      "velocity": 127,
      "chip": "ym2612"
    },
    {
      "channel": 2,
      "note": 39,
      "start": 9.6699,
      "duration": 0.1031,
      "velocity": 101,
      "chip": "ym2612"
    },
    {
      "channel": 3,
      "note": 32,
      "start": 9.6721,
      "duration": 0.1026,
      "velocity": 101,
      "chip": "ym2612"
    },
    {
      "channel": 1,
      "note": 64,
      "start": 9.7952,
      "duration": 0.1218,
      "velocity": 127,
      "chip": "ym2612"
    },
    {
      "channel": 2,
      "note": 37,
      "start": 9.7964,
      "duration": 0.1008,
      "velocity": 101,
      "chip": "ym2612"
    },
    {
      "channel": 3,
      "note": 30,
      "start": 9.7989,
      "duration": 0.1,
      "velocity": 101,
      "chip": "ym2612"
    },
    {
      "channel": 4,
      "note": 42,
      "start": 9.7996,
      "duration": 0.0996,
      "velocity": 110,
      "chip": "ym2612"
    },
    {
      "channel": 1,
      "note": 64,
      "start": 9.9172,
      "duration": 0.1232,
      "velocity": 127,
      "chip": "ym2612"
    },
    {
      "channel": 2,
      "note": 39,
      "start": 9.9181,
      "duration": 0.4721,
      "velocity": 101,
      "chip": "ym2612"
    },
    {
      "channel": 3,
      "note": 32,
      "start": 9.9202,
      "duration": 0.4718,
      "velocity": 101,
      "chip": "ym2612"
    },
    {
      "channel": 4,
      "note": 44,
      "start": 9.921,
      "duration": 0.5973,
      "velocity": 110,
      "chip": "ym2612"
    },
    {
      "channel": 1,
      "note": 57,
      "start": 10.1659,
      "duration": 0.1213,
      "velocity": 123,
      "chip": "ym2612"
    },
    {
      "channel": 1,
      "note": 59,
      "start": 10.4123,
      "duration": 0.2495,
      "velocity": 123,
      "chip": "ym2612"
    },
    {
      "channel": 2,
      "note": 39,
      "start": 10.4139,
      "duration": 0.4726,
      "velocity": 101,
      "chip": "ym2612"
    },
    {
      "channel": 3,
      "note": 32,
      "start": 10.416,
      "duration": 0.4723,
      "velocity": 101,
      "chip": "ym2612"
    },
    {
      "channel": 1,
      "note": 57,
      "start": 10.662,
      "duration": 0.1217,
      "velocity": 123,
      "chip": "ym2612"
    },
    {
      "channel": 1,
      "note": 57,
      "start": 10.7839,
      "duration": 0.1246,
      "velocity": 127,
      "chip": "ym2612"
    },
    {
      "channel": 1,
      "note": 64,
      "start": 10.9088,
      "duration": 0.1236,
      "velocity": 127,
      "chip": "ym2612"
    },
    {
      "channel": 2,
      "note": 44,
      "start": 10.9097,
      "duration": 0.1004,
      "velocity": 101,
      "chip": "ym2612"
    },
    {
      "channel": 4,
      "note": 44,
      "start": 10.9128,
      "duration": 0.0994,
      "velocity": 110,
      "chip": "ym2612"
    },
    {
      "channel": 1,
      "note": 59,
      "start": 11.0326,
      "duration": 0.1243,
      "velocity": 127,
      "chip": "ym2612"
    },
    {
      "channel": 2,
      "note": 49,
      "start": 11.0334,
      "duration": 0.1029,
      "velocity": 101,
      "chip": "ym2612"
    },
    {
      "channel": 3,
      "note": 44,
      "start": 11.0353,
      "duration": 0.1027,
      "velocity": 101,
      "chip": "ym2612"
    },
    {
      "channel": 4,
      "note": 49,
      "start": 11.0361,
      "duration": 0.1023,
      "velocity": 110,
      "chip": "ym2612"
    },
    {
      "channel": 1,
      "note": 59,
      "start": 11.1571,
      "duration": 0.1251,
      "velocity": 127,
      "chip": "ym2612"
    },
    {
      "channel": 3,
      "note": 49,
      "start": 11.1596,
      "duration": 0.1018,
      "velocity": 101,
      "chip": "ym2612"
    },
    {
      "channel": 1,
      "note": 64,
      "start": 11.2824,
      "duration": 0.1228,
      "velocity": 127,
      "chip": "ym2612"
    },
    {
      "channel": 2,
      "note": 49,
      "start": 11.2832,
      "duration": 0.3498,
      "velocity": 101,
      "chip": "ym2612"
    },
    {
      "channel": 4,
      "note": 49,
      "start": 11.2855,
      "duration": 0.3494,
      "velocity": 110,
      "chip": "ym2612"
    },
    {
      "channel": 1,
      "note": 62,
      "start": 11.4055,
      "duration": 0.0405,
      "velocity": 127,
      "chip": "ym2612"
    },
    {
      "channel": 3,
      "note": 49,
      "start": 11.4081,
      "duration": 0.3498,
      "velocity": 101,
      "chip": "ym2612"
    },
    {
      "channel": 1,
      "note": 62,
      "start": 11.4464,
      "duration": 0.0842,
      "velocity": 127,
      "chip": "ym2612"
    },
    {
      "channel": 1,
      "note": 62,
      "start": 11.5309,
      "duration": 0.1226,
      "velocity": 127,
      "chip": "ym2612"
    },
    {
      "channel": 1,
      "note": 59,
      "start": 11.6537,
      "duration": 0.1232,
      "velocity": 127,
      "chip": "ym2612"
    },
    {
      "channel": 2,
      "note": 44,
      "start": 11.6545,
      "duration": 0.2258,
      "velocity": 101,
      "chip": "ym2612"
    },
    {
      "channel": 4,
      "note": 44,
      "start": 11.6569,
      "duration": 0.2255,
      "velocity": 110,
      "chip": "ym2612"
    },
    {
      "channel": 1,
      "note": 55,
      "start": 11.7771,
      "duration": 0.1249,
      "velocity": 127,
      "chip": "ym2612"
    },
    {
      "channel": 3,
      "note": 44,
      "start": 11.7805,
      "duration": 0.1015,
      "velocity": 101,
      "chip": "ym2612"
    },
    {
      "channel": 1,
      "note": 64,
      "start": 11.9022,
      "duration": 0.1215,
      "velocity": 127,
      "chip": "ym2612"
    },
    {
      "channel": 2,
      "note": 39,
      "start": 11.9032,
      "duration": 0.1001,
      "velocity": 101,
      "chip": "ym2612"
    },
    {
      "channel": 3,
      "note": 32,
      "start": 11.9058,
      "duration": 0.099,
      "velocity": 101,
      "chip": "ym2612"
    },
    {
      "channel": 4,
      "note": 44,
      "start": 11.9066,
      "duration": 0.2221,
      "velocity": 110,
      "chip": "ym2612"
    },
    {
      "channel": 2,
      "note": 39,
      "start": 12.0247,
      "duration": 0.1019,
      "velocity": 101,
      "chip": "ym2612"
    },
    {
      "channel": 3,
      "note": 32,
      "start": 12.0268,
      "duration": 0.1014,
      "velocity": 101,
      "chip": "ym2612"
    },
    {
      "channel": 1,
      "note": 57,
      "start": 12.1492,
      "duration": 0.1242,
      "velocity": 123,
      "chip": "ym2612"
    },
    {
      "channel": 2,
      "note": 39,
      "start": 12.1502,
      "duration": 0.1027,
      "velocity": 101,
      "chip": "ym2612"
    },
    {
      "channel": 3,
      "note": 32,
      "start": 12.1524,
      "duration": 0.1022,
      "velocity": 101,
      "chip": "ym2612"
    },
    {
      "channel": 2,
      "note": 39,
      "start": 12.2745,
      "duration": 0.1018,
      "velocity": 101,
      "chip": "ym2612"
    },
    {
      "channel": 3,
      "note": 32,
      "start": 12.2766,
      "duration": 0.1013,
      "velocity": 101,
      "chip": "ym2612"
    },
    {
      "channel": 1,
      "note": 59,
      "start": 12.3991,
      "duration": 0.246,
      "velocity": 127,
      "chip": "ym2612"
    },
    {
      "channel": 2,
      "note": 39,
      "start": 12.4001,
      "duration": 0.0998,
      "velocity": 101,
      "chip": "ym2612"
    },
    {
      "channel": 3,
      "note": 32,
      "start": 12.4022,
      "duration": 0.0992,
      "velocity": 101,
      "chip": "ym2612"
    },
    {
      "channel": 2,
      "note": 39,
      "start": 12.5212,
      "duration": 0.102,
      "velocity": 101,
      "chip": "ym2612"
    },
    {
      "channel": 3,
      "note": 32,
      "start": 12.5233,
      "duration": 0.1015,
      "velocity": 101,
      "chip": "ym2612"
    },
    {
      "channel": 1,
      "note": 64,
      "start": 12.6454,
      "duration": 0.1261,
      "velocity": 123,
      "chip": "ym2612"
    },
    {
      "channel": 2,
      "note": 39,
      "start": 12.6471,
      "duration": 0.2257,
      "velocity": 101,
      "chip": "ym2612"
    },
    {
      "channel": 3,
      "note": 32,
      "start": 12.6495,
      "duration": 0.225,
      "velocity": 101,
      "chip": "ym2612"
    },
    {
      "channel": 4,
      "note": 44,
      "start": 12.6502,
      "duration": 0.2247,
      "velocity": 110,
      "chip": "ym2612"
    },
    {
      "channel": 1,
      "note": 57,
      "start": 12.7717,
      "duration": 0.1232,
      "velocity": 127,
      "chip": "ym2612"
    },
    {
      "channel": 1,
      "note": 64,
      "start": 12.895,
      "duration": 0.1218,
      "velocity": 127,
      "chip": "ym2612"
    },
    {
      "channel": 2,
      "note": 39,
      "start": 12.8959,
      "duration": 0.1012,
      "velocity": 101,
      "chip": "ym2612"
    },
    {
      "channel": 3,
      "note": 32,
      "start": 12.8985,
      "duration": 0.1001,
      "velocity": 101,
      "chip": "ym2612"
    },
    {
      "channel": 4,
      "note": 44,
      "start": 12.8992,
      "duration": 0.2226,
      "velocity": 110,
      "chip": "ym2612"
    },
    {
      "channel": 2,
      "note": 39,
      "start": 13.0179,
      "duration": 0.1019,
      "velocity": 101,
      "chip": "ym2612"
    },
    {
      "channel": 3,
      "note": 32,
      "start": 13.02,
      "duration": 0.1014,
      "velocity": 101,
      "chip": "ym2612"
    },
    {
      "channel": 1,
      "note": 57,
      "start": 13.1419,
      "duration": 0.1247,
      "velocity": 123,
      "chip": "ym2612"
    },
    {
      "channel": 2,
      "note": 39,
      "start": 13.1429,
      "duration": 0.1032,
      "velocity": 101,
      "chip": "ym2612"
    },
    {
      "channel": 3,
      "note": 32,
      "start": 13.1451,
      "duration": 0.1032,
      "velocity": 101,
      "chip": "ym2612"
    },
    {
      "channel": 2,
      "note": 39,
      "start": 13.2676,
      "duration": 0.1018,
      "velocity": 101,
      "chip": "ym2612"
    },
    {
      "channel": 3,
      "note": 32,
      "start": 13.2697,
      "duration": 0.1013,
      "velocity": 101,
      "chip": "ym2612"
    },
    {
      "channel": 1,
      "note": 59,
      "start": 13.3917,
      "duration": 0.2466,
      "velocity": 123,
      "chip": "ym2612"
    },
    {
      "channel": 2,
      "note": 39,
      "start": 13.3926,
      "duration": 0.1003,
      "velocity": 101,
      "chip": "ym2612"
    },
    {
      "channel": 3,
      "note": 32,
      "start": 13.3948,
      "duration": 0.0998,
      "velocity": 101,
      "chip": "ym2612"
    },
    {
      "channel": 2,
      "note": 39,
      "start": 13.5149,
      "duration": 0.1014,
      "velocity": 101,
      "chip": "ym2612"
    },
    {
      "channel": 3,
      "note": 32,
      "start": 13.5171,
      "duration": 0.1009,
      "velocity": 101,
      "chip": "ym2612"
    },
    {
      "channel": 1,
      "note": 57,
      "start": 13.6385,
      "duration": 0.1268,
      "velocity": 127,
      "chip": "ym2612"
    },
    {
      "channel": 2,
      "note": 39,
      "start": 13.6395,
      "duration": 0.1031,
      "velocity": 101,
      "chip": "ym2612"
    },
    {
      "channel": 3,
      "note": 32,
      "start": 13.6417,
      "duration": 0.1025,
      "velocity": 101,
      "chip": "ym2612"
    },
    {
      "channel": 1,
      "note": 64,
      "start": 13.7655,
      "duration": 0.1212,
      "velocity": 127,
      "chip": "ym2612"
    },
    {
      "channel": 2,
      "note": 37,
      "start": 13.7664,
      "duration": 0.0998,
      "velocity": 101,
      "chip": "ym2612"
    },
    {
      "channel": 3,
      "note": 30,
      "start": 13.7685,
      "duration": 0.0993,
      "velocity": 101,
      "chip": "ym2612"
    },
    {
      "channel": 4,
      "note": 42,
      "start": 13.7692,
      "duration": 0.0989,
      "velocity": 110,
      "chip": "ym2612"
    },
    {
      "channel": 1,
      "note": 64,
      "start": 13.8868,
      "duration": 0.1232,
      "velocity": 127,
      "chip": "ym2612"
    },
    {
      "channel": 2,
      "note": 39,
      "start": 13.8877,
      "duration": 0.4721,
      "velocity": 101,
      "chip": "ym2612"
    },
    {
      "channel": 3,
      "note": 32,
      "start": 13.8898,
      "duration": 0.4718,
      "velocity": 101,
      "chip": "ym2612"
    },
    {
      "channel": 4,
      "note": 44,
      "start": 13.8906,
      "duration": 0.5973,
      "velocity": 110,
      "chip": "ym2612"
    },
    {
      "channel": 1,
      "note": 57,
      "start": 14.1351,
      "duration": 0.1217,
      "velocity": 123,
      "chip": "ym2612"
    },
    {
      "channel": 1,
      "note": 59,
      "start": 14.3824,
      "duration": 0.2495,
      "velocity": 123,
      "chip": "ym2612"
    },
    {
      "channel": 2,
      "note": 39,
      "start": 14.3834,
      "duration": 0.4727,
      "velocity": 101,
      "chip": "ym2612"
    },
    {
      "channel": 3,
      "note": 32,
      "start": 14.3856,
      "duration": 0.4723,
      "velocity": 101,
      "chip": "ym2612"
    },
    {
      "channel": 1,
      "note": 57,
      "start": 14.6322,
      "duration": 0.1211,
      "velocity": 123,
      "chip": "ym2612"
    },
    {
      "channel": 1,
      "note": 57,
      "start": 14.7535,
      "duration": 0.1246,
      "velocity": 127,
      "chip": "ym2612"
    },
    {
      "channel": 1,
      "note": 64,
      "start": 14.8783,
      "duration": 0.1233,
      "velocity": 127,
      "chip": "ym2612"
    },
    {
      "channel": 2,
      "note": 59,
      "start": 14.8798,
      "duration": 0.1006,
      "velocity": 101,
      "chip": "ym2612"
    },
    {
      "channel": 3,
      "note": 56,
      "start": 14.8824,
      "duration": 0.0995,
      "velocity": 101,
      "chip": "ym2612"
    },
    {
      "channel": 4,
      "note": 33,
      "start": 14.8835,
      "duration": 0.0988,
      "velocity": 110,
      "chip": "ym2612"
    },
    {
      "channel": 1,
      "note": 59,
      "start": 15.0018,
      "duration": 0.1246,
      "velocity": 127,
      "chip": "ym2612"
    },
    {
      "channel": 2,
      "note": 56,
      "start": 15.0026,
      "duration": 0.1033,
      "velocity": 101,
      "chip": "ym2612"
    },
    {
      "channel": 3,
      "note": 52,
      "start": 15.0046,
      "duration": 0.103,
      "velocity": 101,
      "chip": "ym2612"
    },
    {
      "channel": 4,
      "note": 45,
      "start": 15.0053,
      "duration": 0.2266,
      "velocity": 110,
      "chip": "ym2612"
    },
    {
      "channel": 1,
      "note": 59,
      "start": 15.1267,
      "duration": 0.1246,
      "velocity": 127,
      "chip": "ym2612"
    },
    {
      "channel": 2,
      "note": 52,
      "start": 15.1274,
      "duration": 0.102,
      "velocity": 101,
      "chip": "ym2612"
    },
    {
      "channel": 3,
      "note": 47,
      "start": 15.1295,
      "duration": 0.1022,
      "velocity": 101,
      "chip": "ym2612"
    },
    {
      "channel": 1,
      "note": 64,
      "start": 15.2515,
      "duration": 0.1233,
      "velocity": 127,
      "chip": "ym2612"
    },
    {
      "channel": 2,
      "note": 61,
      "start": 15.2524,
      "duration": 0.2239,
      "velocity": 101,
      "chip": "ym2612"
    },
    {
      "channel": 3,
      "note": 58,
      "start": 15.2543,
      "duration": 0.2235,
      "velocity": 101,
      "chip": "ym2612"
    },
    {
      "channel": 4,
      "note": 35,
      "start": 15.255,
      "duration": 0.2233,
      "velocity": 110,
      "chip": "ym2612"
    },
    {
      "channel": 1,
      "note": 62,
      "start": 15.3751,
      "duration": 0.0403,
      "velocity": 127,
      "chip": "ym2612"
    },
    {
      "channel": 1,
      "note": 62,
      "start": 15.4156,
      "duration": 0.0817,
      "velocity": 127,
      "chip": "ym2612"
    },
    {
      "channel": 1,
      "note": 62,
      "start": 15.4976,
      "duration": 0.1225,
      "velocity": 127,
      "chip": "ym2612"
    },
    {
      "channel": 2,
      "note": 58,
      "start": 15.4983,
      "duration": 0.1013,
      "velocity": 101,
      "chip": "ym2612"
    },
    {
      "channel": 3,
      "note": 54,
      "start": 15.5003,
      "duration": 0.101,
      "velocity": 101,
      "chip": "ym2612"
    },
    {
      "channel": 4,
      "note": 47,
      "start": 15.5011,
      "duration": 0.224,
      "velocity": 110,
      "chip": "ym2612"
    },
    {
      "channel": 1,
      "note": 59,
      "start": 15.6204,
      "duration": 0.1232,
      "velocity": 127,
      "chip": "ym2612"
    },
    {
      "channel": 2,
      "note": 54,
      "start": 15.6211,
      "duration": 0.1019,
      "velocity": 101,
      "chip": "ym2612"
    },
    {
      "channel": 3,
      "note": 49,
      "start": 15.6231,
      "duration": 0.1016,
      "velocity": 101,
      "chip": "ym2612"
    },
    {
      "channel": 1,
      "note": 55,
      "start": 15.7438,
      "duration": 0.1269,
      "velocity": 127,
      "chip": "ym2612"
    },
    {
      "channel": 2,
      "note": 58,
      "start": 15.7446,
      "duration": 0.1025,
      "velocity": 101,
      "chip": "ym2612"
    },
    {
      "channel": 3,
      "note": 54,
      "start": 15.7472,
      "duration": 0.1015,
      "velocity": 101,
      "chip": "ym2612"
    },
    {
      "channel": 4,
      "note": 47,
      "start": 15.7479,
      "duration": 0.1012,
      "velocity": 110,
      "chip": "ym2612"
    },
    {
      "channel": 0,
      "note": 54,
      "start": 15.8687,
      "duration": 0.2297,
      "velocity": 107,
      "chip": "ym2612"
    },
    {
      "channel": 1,
      "note": 64,
      "start": 15.871,
      "duration": 0.1274,
      "velocity": 123,
      "chip": "ym2612"
    },
    {
      "channel": 2,
      "note": 56,
      "start": 15.872,
      "duration": 3.7151,
      "velocity": 101,
      "chip": "ym2612"
    },
    {
      "channel": 3,
      "note": 49,
      "start": 15.8751,
      "duration": 3.7143,
      "velocity": 101,
      "chip": "ym2612"
    },
    {
      "channel": 4,
      "note": 37,
      "start": 15.8763,
      "duration": 0.1014,
      "velocity": 110,
      "chip": "ym2612"
    },
    {
      "channel": 5,
      "note": 49,
      "start": 15.8789,
      "duration": 0.2227,
      "velocity": 107,
      "chip": "ym2612"
    },
    {
      "channel": 1,
      "note": 57,
      "start": 15.9986,
      "duration": 0.1216,
      "velocity": 123,
      "chip": "ym2612"
    },
    {
      "channel": 4,
      "note": 37,
      "start": 16.0013,
      "duration": 0.0999,
      "velocity": 110,
      "chip": "ym2612"
    },
    {
      "channel": 0,
      "note": 54,
      "start": 16.1198,
      "duration": 0.2254,
      "velocity": 107,
      "chip": "ym2612"
    },
    {
      "channel": 1,
      "note": 57,
      "start": 16.1205,
      "duration": 0.1227,
      "velocity": 123,
      "chip": "ym2612"
    },
    {
      "channel": 4,
      "note": 49,
      "start": 16.1232,
      "duration": 0.1015,
      "velocity": 110,
      "chip": "ym2612"
    },
    {
      "channel": 5,
      "note": 49,
      "start": 16.124,
      "duration": 0.2255,
      "velocity": 107,
      "chip": "ym2612"
    },
    {
      "channel": 1,
      "note": 57,
      "start": 16.2433,
      "duration": 0.1251,
      "velocity": 127,
      "chip": "ym2612"
    },
    {
      "channel": 4,
      "note": 37,
      "start": 16.2474,
      "duration": 0.1018,
      "velocity": 110,
      "chip": "ym2612"
    },
    {
      "channel": 0,
      "note": 53,
      "start": 16.3665,
      "duration": 0.2283,
      "velocity": 107,
      "chip": "ym2612"
    },
    {
      "channel": 1,
      "note": 59,
      "start": 16.3687,
      "duration": 0.2495,
      "velocity": 123,
      "chip": "ym2612"
    },
    {
      "channel": 4,
      "note": 47,
      "start": 16.3727,
      "duration": 0.1015,
      "velocity": 110,
      "chip": "ym2612"
    },
    {
      "channel": 5,
      "note": 49,
      "start": 16.3737,
      "duration": 0.2253,
      "velocity": 107,
      "chip": "ym2612"
    },
    {
      "channel": 4,
      "note": 37,
      "start": 16.4955,
      "duration": 0.1031,
      "velocity": 110,
      "chip": "ym2612"
    },
    {
      "channel": 0,
      "note": 53,
      "start": 16.6163,
      "duration": 0.2284,
      "velocity": 107,
      "chip": "ym2612"
    },
    {
      "channel": 1,
      "note": 57,
      "start": 16.6185,
      "duration": 0.1226,
      "velocity": 127,
      "chip": "ym2612"
    },
    {
      "channel": 4,
      "note": 46,
      "start": 16.6214,
      "duration": 0.0998,
      "velocity": 110,
      "chip": "ym2612"
    },
    {
      "channel": 5,
      "note": 49,
      "start": 16.6223,
      "duration": 0.2266,
      "velocity": 107,
      "chip": "ym2612"
    },
    {
      "channel": 1,
      "note": 64,
      "start": 16.7413,
      "duration": 0.1268,
      "velocity": 123,
      "chip": "ym2612"
    },
    {
      "channel": 4,
      "note": 47,
      "start": 16.7446,
      "duration": 0.104,
      "velocity": 110,
      "chip": "ym2612"
    },
    {
      "channel": 0,
      "note": 49,
      "start": 16.8662,
      "duration": 0.102,
      "velocity": 107,
      "chip": "ym2612"
    },
    {
      "channel": 1,
      "note": 57,
      "start": 16.8683,
      "duration": 0.1229,
      "velocity": 127,
      "chip": "ym2612"
    },
    {
      "channel": 4,
      "note": 37,
      "start": 16.8724,
      "duration": 0.0986,
      "velocity": 110,
      "chip": "ym2612"
    },
    {
      "channel": 5,
      "note": 42,
      "start": 16.8734,
      "duration": 0.098,
      "velocity": 107,
      "chip": "ym2612"
    },
    {
      "channel": 0,
      "note": 49,
      "start": 16.9894,
      "duration": 0.105,
      "velocity": 107,
      "chip": "ym2612"
    },
    {
      "channel": 1,
      "note": 64,
      "start": 16.9915,
      "duration": 0.1264,
      "velocity": 123,
      "chip": "ym2612"
    },
    {
      "channel": 4,
      "note": 46,
      "start": 16.9942,
      "duration": 0.1041,
      "velocity": 110,
      "chip": "ym2612"
    },
    {
      "channel": 5,
      "note": 42,
      "start": 16.9949,
      "duration": 0.1038,
      "velocity": 107,
      "chip": "ym2612"
    },
    {
      "channel": 0,
      "note": 49,
      "start": 17.1159,
      "duration": 0.102,
      "velocity": 107,
      "chip": "ym2612"
    },
    {
      "channel": 1,
      "note": 57,
      "start": 17.1181,
      "duration": 0.1232,
      "velocity": 127,
      "chip": "ym2612"
    },
    {
      "channel": 4,
      "note": 37,
      "start": 17.1216,
      "duration": 0.0993,
      "velocity": 110,
      "chip": "ym2612"
    },
    {
      "channel": 5,
      "note": 42,
      "start": 17.1224,
      "duration": 0.0988,
      "velocity": 107,
      "chip": "ym2612"
    },
    {
      "channel": 0,
      "note": 51,
      "start": 17.2393,
      "duration": 0.1049,
      "velocity": 107,
      "chip": "ym2612"
    },
    {
      "channel": 1,
      "note": 64,
      "start": 17.2414,
      "duration": 0.1262,
      "velocity": 127,
      "chip": "ym2612"
    },
    {
      "channel": 4,
      "note": 42,
      "start": 17.2446,
      "duration": 0.1033,
      "velocity": 110,
      "chip": "ym2612"
    },
    {
      "channel": 5,
      "note": 44,
      "start": 17.2456,
      "duration": 0.1028,
      "velocity": 107,
      "chip": "ym2612"
    },
    {
      "channel": 0,
      "note": 51,
      "start": 17.3656,
      "duration": 0.1021,
      "velocity": 107,
      "chip": "ym2612"
    },
    {
      "channel": 1,
      "note": 59,
      "start": 17.3679,
      "duration": 0.2471,
      "velocity": 123,
      "chip": "ym2612"
    },
    {
      "channel": 4,
      "note": 37,
      "start": 17.3718,
      "duration": 0.0989,
      "velocity": 110,
      "chip": "ym2612"
    },
    {
      "channel": 5,
      "note": 44,
      "start": 17.3727,
      "duration": 0.0984,
      "velocity": 107,
      "chip": "ym2612"
    },
    {
      "channel": 0,
      "note": 44,
      "start": 17.4892,
      "duration": 0.102,
      "velocity": 107,
      "chip": "ym2612"
    },
    {
      "channel": 4,
      "note": 44,
      "start": 17.4923,
      "duration": 0.102,
      "velocity": 110,
      "chip": "ym2612"
    },
    {
      "channel": 5,
      "note": 37,
      "start": 17.4931,
      "duration": 0.1015,
      "velocity": 107,
      "chip": "ym2612"
    },
    {
      "channel": 0,
      "note": 46,
      "start": 17.6124,
      "duration": 0.105,
      "velocity": 107,
      "chip": "ym2612"
    },
    {
      "channel": 1,
      "note": 57,
      "start": 17.6152,
      "duration": 0.1254,
      "velocity": 127,
      "chip": "ym2612"
    },
    {
      "channel": 4,
      "note": 42,
      "start": 17.6185,
      "duration": 0.1019,
      "velocity": 110,
      "chip": "ym2612"
    },
    {
      "channel": 5,
      "note": 37,
      "start": 17.6192,
      "duration": 0.1015,
      "velocity": 107,
      "chip": "ym2612"
    },
    {
      "channel": 0,
      "note": 44,
      "start": 17.7387,
      "duration": 0.1023,
      "velocity": 107,
      "chip": "ym2612"
    },
    {
      "channel": 1,
      "note": 64,
      "start": 17.7408,
      "duration": 0.122,
      "velocity": 127,
      "chip": "ym2612"
    },
    {
      "channel": 4,
      "note": 41,
      "start": 17.744,
      "duration": 0.0999,
      "velocity": 110,
      "chip": "ym2612"
    },
    {
      "channel": 5,
      "note": 37,
      "start": 17.7447,
      "duration": 0.0996,
      "velocity": 107,
      "chip": "ym2612"
    },
    {
      "channel": 0,
      "note": 54,
      "start": 17.8622,
      "duration": 0.1049,
      "velocity": 107,
      "chip": "ym2612"
    },
    {
      "channel": 1,
      "note": 64,
      "start": 17.8636,
      "duration": 0.127,
      "velocity": 123,
      "chip": "ym2612"
    },
    {
      "channel": 4,
      "note": 37,
      "start": 17.867,
      "duration": 0.1031,
      "velocity": 110,
      "chip": "ym2612"
    },
    {
      "channel": 5,
      "note": 49,
      "start": 17.8678,
      "duration": 0.1027,
      "velocity": 107,
      "chip": "ym2612"
    },
    {
      "channel": 0,
      "note": 54,
      "start": 17.9886,
      "duration": 0.1022,
      "velocity": 107,
      "chip": "ym2612"
    },
    {
      "channel": 1,
      "note": 57,
      "start": 17.9908,
      "duration": 0.1218,
      "velocity": 123,
      "chip": "ym2612"
    },
    {
      "channel": 4,
      "note": 37,
      "start": 17.9936,
      "duration": 0.1005,
      "velocity": 110,
      "chip": "ym2612"
    },
    {
      "channel": 5,
      "note": 49,
      "start": 17.9945,
      "duration": 0.1,
      "velocity": 107,
      "chip": "ym2612"
    },
    {
      "channel": 0,
      "note": 53,
      "start": 18.1121,
      "duration": 0.1049,
      "velocity": 107,
      "chip": "ym2612"
    },
    {
      "channel": 1,
      "note": 57,
      "start": 18.1131,
      "duration": 0.1258,
      "velocity": 123,
      "chip": "ym2612"
    },
    {
      "channel": 4,
      "note": 49,
      "start": 18.1168,
      "duration": 0.103,
      "velocity": 110,
      "chip": "ym2612"
    },
    {
      "channel": 5,
      "note": 49,
      "start": 18.1178,
      "duration": 0.1024,
      "velocity": 107,
      "chip": "ym2612"
    },
    {
      "channel": 0,
      "note": 53,
      "start": 18.2384,
      "duration": 0.102,
      "velocity": 107,
      "chip": "ym2612"
    },
    {
      "channel": 1,
      "note": 57,
      "start": 18.2391,
      "duration": 0.1253,
      "velocity": 127,
      "chip": "ym2612"
    },
    {
      "channel": 4,
      "note": 37,
      "start": 18.2424,
      "duration": 0.1013,
      "velocity": 110,
      "chip": "ym2612"
    },
    {
      "channel": 5,
      "note": 49,
      "start": 18.2432,
      "duration": 0.1008,
      "velocity": 107,
      "chip": "ym2612"
    },
    {
      "channel": 0,
      "note": 49,
      "start": 18.3618,
      "duration": 0.1022,
      "velocity": 107,
      "chip": "ym2612"
    },
    {
      "channel": 1,
      "note": 59,
      "start": 18.3646,
      "duration": 0.2461,
      "velocity": 123,
      "chip": "ym2612"
    },
    {
      "channel": 4,
      "note": 47,
      "start": 18.3688,
      "duration": 0.0981,
      "velocity": 110,
      "chip": "ym2612"
    },
    {
      "channel": 5,
      "note": 42,
      "start": 18.3698,
      "duration": 0.0975,
      "velocity": 107,
      "chip": "ym2612"
    },
    {
      "channel": 0,
      "note": 49,
      "start": 18.4851,
      "duration": 0.1022,
      "velocity": 107,
      "chip": "ym2612"
    },
    {
      "channel": 4,
      "note": 37,
      "start": 18.4883,
      "duration": 0.102,
      "velocity": 110,
      "chip": "ym2612"
    },
    {
      "channel": 5,
      "note": 42,
      "start": 18.489,
      "duration": 0.1017,
      "velocity": 107,
      "chip": "ym2612"
    },
    {
      "channel": 0,
      "note": 49,
      "start": 18.6087,
      "duration": 0.1052,
      "velocity": 107,
      "chip": "ym2612"
    },
    {
      "channel": 1,
      "note": 57,
      "start": 18.6109,
      "duration": 0.126,
      "velocity": 127,
      "chip": "ym2612"
    },
    {
      "channel": 4,
      "note": 46,
      "start": 18.6144,
      "duration": 0.1023,
      "velocity": 110,
      "chip": "ym2612"
    },
    {
      "channel": 5,
      "note": 42,
      "start": 18.6153,
      "duration": 0.1019,
      "velocity": 107,
      "chip": "ym2612"
    },
    {
      "channel": 0,
      "note": 51,
      "start": 18.735,
      "duration": 0.1021,
      "velocity": 107,
      "chip": "ym2612"
    },
    {
      "channel": 1,
      "note": 64,
      "start": 18.7371,
      "duration": 0.1234,
      "velocity": 123,
      "chip": "ym2612"
    },
    {
      "channel": 4,
      "note": 47,
      "start": 18.7404,
      "duration": 0.0999,
      "velocity": 110,
      "chip": "ym2612"
    },
    {
      "channel": 5,
      "note": 44,
      "start": 18.7413,
      "duration": 0.0994,
      "velocity": 107,
      "chip": "ym2612"
    },
    {
      "channel": 0,
      "note": 51,
      "start": 18.8585,
      "duration": 0.1054,
      "velocity": 107,
      "chip": "ym2612"
    },
    {
      "channel": 1,
      "note": 57,
      "start": 18.8607,
      "duration": 0.126,
      "velocity": 127,
      "chip": "ym2612"
    },
    {
      "channel": 4,
      "note": 37,
      "start": 18.865,
      "duration": 0.1018,
      "velocity": 110,
      "chip": "ym2612"
    },
    {
      "channel": 5,
      "note": 44,
      "start": 18.8659,
      "duration": 0.1013,
      "velocity": 107,
      "chip": "ym2612"
    },
    {
      "channel": 0,
      "note": 51,
      "start": 18.9848,
      "duration": 0.1021,
      "velocity": 107,
      "chip": "ym2612"
    },
    {
      "channel": 1,
      "note": 64,
      "start": 18.9869,
      "duration": 0.123,
      "velocity": 123,
      "chip": "ym2612"
    },
    {
      "channel": 4,
      "note": 46,
      "start": 18.9899,
      "duration": 0.1005,
      "velocity": 110,
      "chip": "ym2612"
    },
    {
      "channel": 5,
      "note": 44,
      "start": 18.9908,
      "duration": 0.0999,
      "velocity": 107,
      "chip": "ym2612"
    },
    {
      "channel": 1,
      "note": 57,
      "start": 19.11,
      "duration": 0.1259,
      "velocity": 127,
      "chip": "ym2612"
    },
    {
      "channel": 4,
      "note": 37,
      "start": 19.1144,
      "duration": 0.1023,
      "velocity": 110,
      "chip": "ym2612"
    },
    {
      "channel": 1,
      "note": 64,
      "start": 19.2361,
      "duration": 0.1234,
      "velocity": 127,
      "chip": "ym2612"
    },
    {
      "channel": 4,
      "note": 42,
      "start": 19.2395,
      "duration": 0.1005,
      "velocity": 110,
      "chip": "ym2612"
    },
    {
      "channel": 1,
      "note": 59,
      "start": 19.3597,
      "duration": 0.0404,
      "velocity": 127,
      "chip": "ym2612"
    },
    {
      "channel": 4,
      "note": 37,
      "start": 19.3642,
      "duration": 0.1024,
      "velocity": 110,
      "chip": "ym2612"
    },
    {
      "channel": 1,
      "note": 59,
      "start": 19.4004,
      "duration": 0.0839,
      "velocity": 127,
      "chip": "ym2612"
    },
    {
      "channel": 1,
      "note": 59,
      "start": 19.4845,
      "duration": 0.1246,
      "velocity": 127,
      "chip": "ym2612"
    },
    {
      "channel": 4,
      "note": 44,
      "start": 19.4875,
      "duration": 0.1022,
      "velocity": 110,
      "chip": "ym2612"
    },
    {
      "channel": 1,
      "note": 59,
      "start": 19.6094,
      "duration": 0.1218,
      "velocity": 127,
      "chip": "ym2612"
    },
    {
      "channel": 2,
      "note": 56,
      "start": 19.6101,
      "duration": 0.1006,
      "velocity": 101,
      "chip": "ym2612"
    },
    {
      "channel": 3,
      "note": 49,
      "start": 19.6135,
      "duration": 0.099,
      "velocity": 101,
      "chip": "ym2612"
    },
    {
      "channel": 4,
      "note": 42,
      "start": 19.6142,
      "duration": 0.0993,
      "velocity": 110,
      "chip": "ym2612"
    },
    {
      "channel": 1,
      "note": 59,
      "start": 19.7314,
      "duration": 0.1252,
      "velocity": 127,
      "chip": "ym2612"
    },
    {
      "channel": 2,
      "note": 56,
      "start": 19.7321,
      "duration": 0.102,
      "velocity": 101,
      "chip": "ym2612"
    },
    {
      "channel": 3,
      "note": 49,
      "start": 19.7342,
      "duration": 0.1019,
      "velocity": 101,
      "chip": "ym2612"
    },
    {
      "channel": 4,
      "note": 41,
      "start": 19.7349,
      "duration": 0.1015,
      "velocity": 110,
      "chip": "ym2612"
    },
    {
      "channel": 0,
      "note": 54,
      "start": 19.8547,
      "duration": 0.2282,
      "velocity": 107,
      "chip": "ym2612"
    },
    {
      "channel": 1,
      "note": 64,
      "start": 19.8568,
      "duration": 0.1255,
      "velocity": 123,
      "chip": "ym2612"
    },
    {
      "channel": 2,
      "note": 54,
      "start": 19.8576,
      "duration": 3.7142,
      "velocity": 101,
      "chip": "ym2612"
    },
    {
      "channel": 3,
      "note": 47,
      "start": 19.8599,
      "duration": 3.714,
      "velocity": 101,
      "chip": "ym2612"
    },
    {
      "channel": 4,
      "note": 37,
      "start": 19.8606,
      "duration": 0.1018,
      "velocity": 110,
      "chip": "ym2612"
    },
    {
      "channel": 5,
      "note": 47,
      "start": 19.8617,
      "duration": 0.2249,
      "velocity": 107,
      "chip": "ym2612"
    },
    {
      "channel": 1,
      "note": 57,
      "start": 19.9826,
      "duration": 0.1223,
      "velocity": 123,
      "chip": "ym2612"
    },
    {
      "channel": 4,
      "note": 37,
      "start": 19.9854,
      "duration": 0.1008,
      "velocity": 110,
      "chip": "ym2612"
    },
    {
      "channel": 0,
      "note": 54,
      "start": 20.1043,
      "duration": 0.226,
      "velocity": 107,
      "chip": "ym2612"
    },
    {
      "channel": 1,
      "note": 57,
      "start": 20.105,
      "duration": 0.1226,
      "velocity": 123,
      "chip": "ym2612"
    },
    {
      "channel": 4,
      "note": 49,
      "start": 20.1084,
      "duration": 0.1007,
      "velocity": 110,
      "chip": "ym2612"
    },
    {
      "channel": 5,
      "note": 47,
      "start": 20.1093,
      "duration": 0.2245,
      "velocity": 107,
      "chip": "ym2612"
    },
    {
      "channel": 1,
      "note": 57,
      "start": 20.2279,
      "duration": 0.1251,
      "velocity": 127,
      "chip": "ym2612"
    },
    {
      "channel": 4,
      "note": 37,
      "start": 20.2318,
      "duration": 0.1017,
      "velocity": 110,
      "chip": "ym2612"
    },
    {
      "channel": 0,
      "note": 53,
      "start": 20.3512,
      "duration": 0.2255,
      "velocity": 107,
      "chip": "ym2612"
    },
    {
      "channel": 1,
      "note": 59,
      "start": 20.3533,
      "duration": 0.2467,
      "velocity": 123,
      "chip": "ym2612"
    },
    {
      "channel": 4,
      "note": 47,
      "start": 20.3569,
      "duration": 0.0992,
      "velocity": 110,
      "chip": "ym2612"
    },
    {
      "channel": 5,
      "note": 47,
      "start": 20.3579,
      "duration": 0.2231,
      "velocity": 107,
      "chip": "ym2612"
    },
    {
      "channel": 4,
      "note": 37,
      "start": 20.4773,
      "duration": 0.1032,
      "velocity": 110,
      "chip": "ym2612"
    },
    {
      "channel": 0,
      "note": 53,
      "start": 20.598,
      "duration": 0.2284,
      "velocity": 107,
      "chip": "ym2612"
    },
    {
      "channel": 1,
      "note": 57,
      "start": 20.6002,
      "duration": 0.1255,
      "velocity": 127,
      "chip": "ym2612"
    },
    {
      "channel": 4,
      "note": 46,
      "start": 20.6036,
      "duration": 0.102,
      "velocity": 110,
      "chip": "ym2612"
    },
    {
      "channel": 5,
      "note": 47,
      "start": 20.6044,
      "duration": 0.2263,
      "velocity": 107,
      "chip": "ym2612"
    },
    {
      "channel": 1,
      "note": 64,
      "start": 20.7259,
      "duration": 0.1239,
      "velocity": 123,
      "chip": "ym2612"
    },
    {
      "channel": 4,
      "note": 47,
      "start": 20.7291,
      "duration": 0.1013,
      "velocity": 110,
      "chip": "ym2612"
    },
    {
      "channel": 0,
      "note": 49,
      "start": 20.8478,
      "duration": 0.1048,
      "velocity": 107,
      "chip": "ym2612"
    },
    {
      "channel": 1,
      "note": 57,
      "start": 20.85,
      "duration": 0.1258,
      "velocity": 127,
      "chip": "ym2612"
    },
    {
      "channel": 4,
      "note": 37,
      "start": 20.8542,
      "duration": 0.1014,
      "velocity": 110,
      "chip": "ym2612"
    },
    {
      "channel": 5,
      "note": 42,
      "start": 20.8552,
      "duration": 0.1007,
      "velocity": 107,
      "chip": "ym2612"
    },
    {
      "channel": 0,
      "note": 49,
      "start": 20.9739,
      "duration": 0.1023,
      "velocity": 107,
      "chip": "ym2612"
    },
    {
      "channel": 1,
      "note": 64,
      "start": 20.976,
      "duration": 0.1236,
      "velocity": 123,
      "chip": "ym2612"
    },
    {
      "channel": 4,
      "note": 46,
      "start": 20.9788,
      "duration": 0.1007,
      "velocity": 110,
      "chip": "ym2612"
    },
    {
      "channel": 5,
      "note": 42,
      "start": 20.9798,
      "duration": 0.1006,
      "velocity": 107,
      "chip": "ym2612"
    },
    {
      "channel": 0,
      "note": 49,
      "start": 21.0976,
      "duration": 0.1048,
      "velocity": 107,
      "chip": "ym2612"
    },
    {
      "channel": 1,
      "note": 57,
      "start": 21.0998,
      "duration": 0.1259,
      "velocity": 127,
      "chip": "ym2612"
    },
    {
      "channel": 4,
      "note": 37,
      "start": 21.1032,
      "duration": 0.1021,
      "velocity": 110,
      "chip": "ym2612"
    },
    {
      "channel": 5,
      "note": 42,
      "start": 21.1041,
      "duration": 0.1016,
      "velocity": 107,
      "chip": "ym2612"
    },
    {
      "channel": 0,
      "note": 51,
      "start": 21.2239,
      "duration": 0.1021,
      "velocity": 107,
      "chip": "ym2612"
    },
    {
      "channel": 1,
      "note": 64,
      "start": 21.226,
      "duration": 0.1237,
      "velocity": 127,
      "chip": "ym2612"
    },
    {
      "channel": 4,
      "note": 42,
      "start": 21.2292,
      "duration": 0.0999,
      "velocity": 110,
      "chip": "ym2612"
    },
    {
      "channel": 5,
      "note": 44,
      "start": 21.2307,
      "duration": 0.0994,
      "velocity": 107,
      "chip": "ym2612"
    },
    {
      "channel": 0,
      "note": 51,
      "start": 21.3476,
      "duration": 0.1046,
      "velocity": 107,
      "chip": "ym2612"
    },
    {
      "channel": 1,
      "note": 59,
      "start": 21.3499,
      "duration": 0.2495,
      "velocity": 123,
      "chip": "ym2612"
    },
    {
      "channel": 4,
      "note": 37,
      "start": 21.3539,
      "duration": 0.1013,
      "velocity": 110,
      "chip": "ym2612"
    },
    {
      "channel": 5,
      "note": 44,
      "start": 21.3548,
      "duration": 0.1008,
      "velocity": 107,
      "chip": "ym2612"
    },
    {
      "channel": 0,
      "note": 44,
      "start": 21.4737,
      "duration": 0.1019,
      "velocity": 107,
      "chip": "ym2612"
    },
    {
      "channel": 4,
      "note": 44,
      "start": 21.4769,
      "duration": 0.1018,
      "velocity": 110,
      "chip": "ym2612"
    },
    {
      "channel": 5,
      "note": 35,
      "start": 21.4777,
      "duration": 0.1014,
      "velocity": 107,
      "chip": "ym2612"
    },
    {
      "channel": 0,
      "note": 46,
      "start": 21.5974,
      "duration": 0.1018,
      "velocity": 107,
      "chip": "ym2612"
    },
    {
      "channel": 1,
      "note": 57,
      "start": 21.5995,
      "duration": 0.1228,
      "velocity": 127,
      "chip": "ym2612"
    },
    {
      "channel": 4,
      "note": 42,
      "start": 21.6029,
      "duration": 0.0993,
      "velocity": 110,
      "chip": "ym2612"
    },
    {
      "channel": 5,
      "note": 35,
      "start": 21.6036,
      "duration": 0.0989,
      "velocity": 107,
      "chip": "ym2612"
    },
    {
      "channel": 0,
      "note": 44,
      "start": 21.7204,
      "duration": 0.105,
      "velocity": 107,
      "chip": "ym2612"
    },
    {
      "channel": 1,
      "note": 64,
      "start": 21.7225,
      "duration": 0.1253,
      "velocity": 127,
      "chip": "ym2612"
    },
    {
      "channel": 4,
      "note": 41,
      "start": 21.7257,
      "duration": 0.1027,
      "velocity": 110,
      "chip": "ym2612"
    },
    {
      "channel": 5,
      "note": 35,
      "start": 21.7264,
      "duration": 0.1024,
      "velocity": 107,
      "chip": "ym2612"
    },
    {
      "channel": 0,
      "note": 56,
      "start": 21.8474,
      "duration": 0.1016,
      "velocity": 107,
      "chip": "ym2612"
    },
    {
      "channel": 1,
      "note": 64,
      "start": 21.8481,
      "duration": 0.1242,
      "velocity": 123,
      "chip": "ym2612"
    },
    {
      "channel": 4,
      "note": 37,
      "start": 21.8516,
      "duration": 0.1003,
      "velocity": 110,
      "chip": "ym2612"
    },
    {
      "channel": 5,
      "note": 47,
      "start": 21.8525,
      "duration": 0.0998,
      "velocity": 107,
      "chip": "ym2612"
    },
    {
      "channel": 0,
      "note": 56,
      "start": 21.9704,
      "duration": 0.1048,
      "velocity": 107,
      "chip": "ym2612"
    },
    {
      "channel": 1,
      "note": 57,
      "start": 21.9724,
      "duration": 0.1253,
      "velocity": 123,
      "chip": "ym2612"
    },
    {
      "channel": 4,
      "note": 37,
      "start": 21.9753,
      "duration": 0.103,
      "velocity": 110,
      "chip": "ym2612"
    },
    {
      "channel": 5,
      "note": 47,
      "start": 21.9761,
      "duration": 0.1026,
      "velocity": 107,
      "chip": "ym2612"
    },
    {
      "channel": 0,
      "note": 54,
      "start": 22.0973,
      "duration": 0.1014,
      "velocity": 107,
      "chip": "ym2612"
    },
    {
      "channel": 1,
      "note": 57,
      "start": 22.098,
      "duration": 0.1227,
      "velocity": 123,
      "chip": "ym2612"
    },
    {
      "channel": 4,
      "note": 49,
      "start": 22.101,
      "duration": 0.1009,
      "velocity": 110,
      "chip": "ym2612"
    },
    {
      "channel": 5,
      "note": 47,
      "start": 22.1019,
      "duration": 0.1002,
      "velocity": 107,
      "chip": "ym2612"
    },
    {
      "channel": 0,
      "note": 54,
      "start": 22.2201,
      "duration": 0.1049,
      "velocity": 107,
      "chip": "ym2612"
    },
    {
      "channel": 1,
      "note": 57,
      "start": 22.2208,
      "duration": 0.1283,
      "velocity": 127,
      "chip": "ym2612"
    },
    {
      "channel": 4,
      "note": 37,
      "start": 22.2243,
      "duration": 0.1039,
      "velocity": 110,
      "chip": "ym2612"
    },
    {
      "channel": 5,
      "note": 47,
      "start": 22.2252,
      "duration": 0.1034,
      "velocity": 107,
      "chip": "ym2612"
    },
    {
      "channel": 0,
      "note": 53,
      "start": 22.3471,
      "duration": 0.1014,
      "velocity": 107,
      "chip": "ym2612"
    },
    {
      "channel": 1,
      "note": 59,
      "start": 22.3492,
      "duration": 0.2459,
      "velocity": 123,
      "chip": "ym2612"
    },
    {
      "channel": 4,
      "note": 47,
      "start": 22.3531,
      "duration": 0.0987,
      "velocity": 110,
      "chip": "ym2612"
    },
    {
      "channel": 5,
      "note": 47,
      "start": 22.354,
      "duration": 0.0981,
      "velocity": 107,
      "chip": "ym2612"
    },
    {
      "channel": 0,
      "note": 54,
      "start": 22.4697,
      "duration": 0.1022,
      "velocity": 107,
      "chip": "ym2612"
    },
    {
      "channel": 4,
      "note": 37,
      "start": 22.4733,
      "duration": 0.1018,
      "velocity": 110,
      "chip": "ym2612"
    },
    {
      "channel": 5,
      "note": 47,
      "start": 22.474,
      "duration": 0.1015,
      "velocity": 107,
      "chip": "ym2612"
    },
    {
      "channel": 0,
      "note": 53,
      "start": 22.5931,
      "duration": 0.1051,
      "velocity": 107,
      "chip": "ym2612"
    },
    {
      "channel": 1,
      "note": 57,
      "start": 22.5954,
      "duration": 0.126,
      "velocity": 127,
      "chip": "ym2612"
    },
    {
      "channel": 4,
      "note": 46,
      "start": 22.5991,
      "duration": 0.1024,
      "velocity": 110,
      "chip": "ym2612"
    },
    {
      "channel": 5,
      "note": 47,
      "start": 22.5998,
      "duration": 0.102,
      "velocity": 107,
      "chip": "ym2612"
    },
    {
      "channel": 0,
      "note": 49,
      "start": 22.7195,
      "duration": 0.1023,
      "velocity": 107,
      "chip": "ym2612"
    },
    {
      "channel": 1,
      "note": 64,
      "start": 22.7216,
      "duration": 0.1235,
      "velocity": 123,
      "chip": "ym2612"
    },
    {
      "channel": 4,
      "note": 47,
      "start": 22.7252,
      "duration": 0.0998,
      "velocity": 110,
      "chip": "ym2612"
    },
    {
      "channel": 5,
      "note": 47,
      "start": 22.7259,
      "duration": 0.0994,
      "velocity": 107,
      "chip": "ym2612"
    },
    {
      "channel": 0,
      "note": 49,
      "start": 22.8431,
      "duration": 0.105,
      "velocity": 107,
      "chip": "ym2612"
    },
    {
      "channel": 1,
      "note": 57,
      "start": 22.8453,
      "duration": 0.126,
      "velocity": 127,
      "chip": "ym2612"
    },
    {
      "channel": 4,
      "note": 37,
      "start": 22.8498,
      "duration": 0.1015,
      "velocity": 110,
      "chip": "ym2612"
    },
    {
      "channel": 5,
      "note": 47,
      "start": 22.8506,
      "duration": 0.101,
      "velocity": 107,
      "chip": "ym2612"
    },
    {
      "channel": 0,
      "note": 49,
      "start": 22.9694,
      "duration": 0.1022,
      "velocity": 107,
      "chip": "ym2612"
    },
    {
      "channel": 1,
      "note": 64,
      "start": 22.9715,
      "duration": 0.1234,
      "velocity": 123,
      "chip": "ym2612"
    },
    {
      "channel": 4,
      "note": 46,
      "start": 22.9746,
      "duration": 0.1001,
      "velocity": 110,
      "chip": "ym2612"
    },
    {
      "channel": 5,
      "note": 47,
      "start": 22.9755,
      "duration": 0.0996,
      "velocity": 107,
      "chip": "ym2612"
    },
    {
      "channel": 0,
      "note": 47,
      "start": 23.0929,
      "duration": 0.1049,
      "velocity": 107,
      "chip": "ym2612"
    },
    {
      "channel": 1,
      "note": 57,
      "start": 23.0951,
      "duration": 0.126,
      "velocity": 127,
      "chip": "ym2612"
    },
    {
      "channel": 4,
      "note": 37,
      "start": 23.0989,
      "duration": 0.102,
      "velocity": 110,
      "chip": "ym2612"
    },
    {
      "channel": 5,
      "note": 42,
      "start": 23.0999,
      "duration": 0.1015,
      "velocity": 107,
      "chip": "ym2612"
    },
    {
      "channel": 0,
      "note": 47,
      "start": 23.2192,
      "duration": 0.1021,
      "velocity": 107,
      "chip": "ym2612"
    },
    {
      "channel": 1,
      "note": 64,
      "start": 23.2213,
      "duration": 0.1234,
      "velocity": 127,
      "chip": "ym2612"
    },
    {
      "channel": 4,
      "note": 42,
      "start": 23.2249,
      "duration": 0.0997,
      "velocity": 110,
      "chip": "ym2612"
    },
    {
      "channel": 5,
      "note": 42,
      "start": 23.2258,
      "duration": 0.0991,
      "velocity": 107,
      "chip": "ym2612"
    },
    {
      "channel": 0,
      "note": 44,
      "start": 23.3427,
      "duration": 0.1048,
      "velocity": 107,
      "chip": "ym2612"
    },
    {
      "channel": 1,
      "note": 59,
      "start": 23.345,
      "duration": 0.0398,
      "velocity": 127,
      "chip": "ym2612"
    },
    {
      "channel": 4,
      "note": 37,
      "start": 23.3494,
      "duration": 0.1014,
      "velocity": 110,
      "chip": "ym2612"
    },
    {
      "channel": 5,
      "note": 42,
      "start": 23.3503,
      "duration": 0.1008,
      "velocity": 107,
      "chip": "ym2612"
    },
    {
      "channel": 1,
      "note": 59,
      "start": 23.385,
      "duration": 0.0845,
      "velocity": 127,
      "chip": "ym2612"
    },
    {
      "channel": 0,
      "note": 44,
      "start": 23.469,
      "duration": 0.102,
      "velocity": 107,
      "chip": "ym2612"
    },
    {
      "channel": 1,
      "note": 59,
      "start": 23.4697,
      "duration": 0.1247,
      "velocity": 127,
      "chip": "ym2612"
    },
    {
      "channel": 4,
      "note": 44,
      "start": 23.4727,
      "duration": 0.1016,
      "velocity": 110,
      "chip": "ym2612"
    },
    {
      "channel": 5,
      "note": 42,
      "start": 23.4736,
      "duration": 0.1011,
      "velocity": 107,
      "chip": "ym2612"
    },
    {
      "channel": 0,
      "note": 42,
      "start": 23.5924,
      "duration": 0.1021,
      "velocity": 107,
      "chip": "ym2612"
    },
    {
      "channel": 1,
      "note": 59,
      "start": 23.5945,
      "duration": 0.1216,
      "velocity": 127,
      "chip": "ym2612"
    },
    {
      "channel": 2,
      "note": 54,
      "start": 23.5953,
      "duration": 0.1001,
      "velocity": 101,
      "chip": "ym2612"
    },
    {
      "channel": 3,
      "note": 47,
      "start": 23.5983,
      "duration": 0.0998,
      "velocity": 101,
      "chip": "ym2612"
    },
    {
      "channel": 4,
      "note": 42,
      "start": 23.599,
      "duration": 0.0995,
      "velocity": 110,
      "chip": "ym2612"
    },
    {
      "channel": 5,
      "note": 35,
      "start": 23.5999,
      "duration": 0.0989,
      "velocity": 107,
      "chip": "ym2612"
    },
    {
      "channel": 0,
      "note": 41,
      "start": 23.7157,
      "duration": 0.1022,
      "velocity": 107,
      "chip": "ym2612"
    },
    {
      "channel": 1,
      "note": 59,
      "start": 23.7163,
      "duration": 0.1249,
      "velocity": 127,
      "chip": "ym2612"
    },
    {
      "channel": 2,
      "note": 54,
      "start": 23.7171,
      "duration": 0.1017,
      "velocity": 101,
      "chip": "ym2612"
    },
    {
      "channel": 3,
      "note": 47,
      "start": 23.7195,
      "duration": 0.1016,
      "velocity": 101,
      "chip": "ym2612"
    },
    {
      "channel": 4,
      "note": 41,
      "start": 23.7201,
      "duration": 0.1013,
      "velocity": 110,
      "chip": "ym2612"
    },
    {
      "channel": 5,
      "note": 35,
      "start": 23.7208,
      "duration": 0.101,
      "velocity": 107,
      "chip": "ym2612"
    },
    {
      "channel": 0,
      "note": 54,
      "start": 23.8393,
      "duration": 0.2284,
      "velocity": 107,
      "chip": "ym2612"
    },
    {
      "channel": 1,
      "note": 64,
      "start": 23.8414,
      "duration": 0.1256,
      "velocity": 123,
      "chip": "ym2612"
    },
    {
      "channel": 2,
      "note": 56,
      "start": 23.8422,
      "duration": 3.7112,
      "velocity": 101,
      "chip": "ym2612"
    },
    {
      "channel": 3,
      "note": 49,
      "start": 23.8451,
      "duration": 3.7106,
      "velocity": 101,
      "chip": "ym2612"
    },
    {
      "channel": 4,
      "note": 37,
      "start": 23.8458,
      "duration": 0.1021,
      "velocity": 110,
      "chip": "ym2612"
    },
    {
      "channel": 5,
      "note": 49,
      "start": 23.8474,
      "duration": 0.2238,
      "velocity": 107,
      "chip": "ym2612"
    },
    {
      "channel": 1,
      "note": 57,
      "start": 23.9673,
      "duration": 0.1222,
      "velocity": 123,
      "chip": "ym2612"
    },
    {
      "channel": 4,
      "note": 37,
      "start": 23.9701,
      "duration": 0.1007,
      "velocity": 110,
      "chip": "ym2612"
    },
    {
      "channel": 0,
      "note": 54,
      "start": 24.0891,
      "duration": 0.2254,
      "velocity": 107,
      "chip": "ym2612"
    },
    {
      "channel": 1,
      "note": 57,
      "start": 24.0898,
      "duration": 0.1227,
      "velocity": 123,
      "chip": "ym2612"
    },
    {
      "channel": 4,
      "note": 49,
      "start": 24.0927,
      "duration": 0.1013,
      "velocity": 110,
      "chip": "ym2612"
    },
    {
      "channel": 5,
      "note": 49,
      "start": 24.0936,
      "duration": 0.2246,
      "velocity": 107,
      "chip": "ym2612"
    },
    {
      "channel": 1,
      "note": 57,
      "start": 24.2126,
      "duration": 0.1251,
      "velocity": 127,
      "chip": "ym2612"
    },
    {
      "channel": 4,
      "note": 37,
      "start": 24.2167,
      "duration": 0.1012,
      "velocity": 110,
      "chip": "ym2612"
    },
    {
      "channel": 0,
      "note": 53,
      "start": 24.3358,
      "duration": 0.2283,
      "velocity": 107,
      "chip": "ym2612"
    },
    {
      "channel": 1,
      "note": 59,
      "start": 24.338,
      "duration": 0.2495,
      "velocity": 123,
      "chip": "ym2612"
    },
    {
      "channel": 4,
      "note": 47,
      "start": 24.342,
      "duration": 0.1015,
      "velocity": 110,
      "chip": "ym2612"
    },
    {
      "channel": 5,
      "note": 49,
      "start": 24.3429,
      "duration": 0.2247,
      "velocity": 107,
      "chip": "ym2612"
    },
    {
      "channel": 4,
      "note": 37,
      "start": 24.4655,
      "duration": 0.1018,
      "velocity": 110,
      "chip": "ym2612"
    },
    {
      "channel": 0,
      "note": 53,
      "start": 24.5856,
      "duration": 0.2283,
      "velocity": 107,
      "chip": "ym2612"
    },
    {
      "channel": 1,
      "note": 57,
      "start": 24.5878,
      "duration": 0.1226,
      "velocity": 127,
      "chip": "ym2612"
    },
    {
      "channel": 4,
      "note": 46,
      "start": 24.5907,
      "duration": 0.0998,
      "velocity": 110,
      "chip": "ym2612"
    },
    {
      "channel": 5,
      "note": 49,
      "start": 24.5916,
      "duration": 0.226,
      "velocity": 107,
      "chip": "ym2612"
    },
    {
      "channel": 1,
      "note": 64,
      "start": 24.7106,
      "duration": 0.1267,
      "velocity": 123,
      "chip": "ym2612"
    },
    {
      "channel": 4,
      "note": 47,
      "start": 24.7146,
      "duration": 0.1026,
      "velocity": 110,
      "chip": "ym2612"
    },
    {
      "channel": 0,
      "note": 49,
      "start": 24.8354,
      "duration": 0.1021,
      "velocity": 107,
      "chip": "ym2612"
    },
    {
      "channel": 1,
      "note": 57,
      "start": 24.8376,
      "duration": 0.1229,
      "velocity": 127,
      "chip": "ym2612"
    },
    {
      "channel": 4,
      "note": 37,
      "start": 24.8416,
      "duration": 0.0987,
      "velocity": 110,
      "chip": "ym2612"
    },
    {
      "channel": 5,
      "note": 42,
      "start": 24.8426,
      "duration": 0.098,
      "velocity": 107,
      "chip": "ym2612"
    },
    {
      "channel": 0,
      "note": 49,
      "start": 24.9587,
      "duration": 0.1052,
      "velocity": 107,
      "chip": "ym2612"
    },
    {
      "channel": 1,
      "note": 64,
      "start": 24.9607,
      "duration": 0.1264,
      "velocity": 123,
      "chip": "ym2612"
    },
    {
      "channel": 4,
      "note": 46,
      "start": 24.9641,
      "duration": 0.103,
      "velocity": 110,
      "chip": "ym2612"
    },
    {
      "channel": 5,
      "note": 42,
      "start": 24.9648,
      "duration": 0.1027,
      "velocity": 107,
      "chip": "ym2612"
    },
    {
      "channel": 0,
      "note": 49,
      "start": 25.0851,
      "duration": 0.1022,
      "velocity": 107,
      "chip": "ym2612"
    },
    {
      "channel": 1,
      "note": 57,
      "start": 25.0873,
      "duration": 0.1232,
      "velocity": 127,
      "chip": "ym2612"
    },
    {
      "channel": 4,
      "note": 37,
      "start": 25.0908,
      "duration": 0.0993,
      "velocity": 110,
      "chip": "ym2612"
    },
    {
      "channel": 5,
      "note": 42,
      "start": 25.0917,
      "duration": 0.0988,
      "velocity": 107,
      "chip": "ym2612"
    },
    {
      "channel": 0,
      "note": 51,
      "start": 25.2087,
      "duration": 0.1052,
      "velocity": 107,
      "chip": "ym2612"
    },
    {
      "channel": 1,
      "note": 64,
      "start": 25.2107,
      "duration": 0.1262,
      "velocity": 127,
      "chip": "ym2612"
    },
    {
      "channel": 4,
      "note": 42,
      "start": 25.2146,
      "duration": 0.1024,
      "velocity": 110,
      "chip": "ym2612"
    },
    {
      "channel": 5,
      "note": 44,
      "start": 25.2155,
      "duration": 0.1019,
      "velocity": 107,
      "chip": "ym2612"
    },
    {
      "channel": 0,
      "note": 51,
      "start": 25.3349,
      "duration": 0.1021,
      "velocity": 107,
      "chip": "ym2612"
    },
    {
      "channel": 1,
      "note": 59,
      "start": 25.3371,
      "duration": 0.2464,
      "velocity": 123,
      "chip": "ym2612"
    },
    {
      "channel": 4,
      "note": 37,
      "start": 25.3411,
      "duration": 0.0989,
      "velocity": 110,
      "chip": "ym2612"
    },
    {
      "channel": 5,
      "note": 44,
      "start": 25.3419,
      "duration": 0.0984,
      "velocity": 107,
      "chip": "ym2612"
    },
    {
      "channel": 0,
      "note": 44,
      "start": 25.4585,
      "duration": 0.102,
      "velocity": 107,
      "chip": "ym2612"
    },
    {
      "channel": 4,
      "note": 44,
      "start": 25.4616,
      "duration": 0.1027,
      "velocity": 110,
      "chip": "ym2612"
    },
    {
      "channel": 5,
      "note": 37,
      "start": 25.4624,
      "duration": 0.1022,
      "velocity": 107,
      "chip": "ym2612"
    },
    {
      "channel": 0,
      "note": 46,
      "start": 25.5817,
      "duration": 0.105,
      "velocity": 107,
      "chip": "ym2612"
    },
    {
      "channel": 1,
      "note": 57,
      "start": 25.5838,
      "duration": 0.1261,
      "velocity": 127,
      "chip": "ym2612"
    },
    {
      "channel": 4,
      "note": 42,
      "start": 25.5871,
      "duration": 0.1025,
      "velocity": 110,
      "chip": "ym2612"
    },
    {
      "channel": 5,
      "note": 37,
      "start": 25.5878,
      "duration": 0.1022,
      "velocity": 107,
      "chip": "ym2612"
    },
    {
      "channel": 0,
      "note": 44,
      "start": 25.708,
      "duration": 0.1022,
      "velocity": 107,
      "chip": "ym2612"
    },
    {
      "channel": 1,
      "note": 64,
      "start": 25.7101,
      "duration": 0.1218,
      "velocity": 127,
      "chip": "ym2612"
    },
    {
      "channel": 4,
      "note": 41,
      "start": 25.714,
      "duration": 0.0999,
      "velocity": 110,
      "chip": "ym2612"
    },
    {
      "channel": 5,
      "note": 37,
      "start": 25.7146,
      "duration": 0.0996,
      "velocity": 107,
      "chip": "ym2612"
    },
    {
      "channel": 0,
      "note": 54,
      "start": 25.8315,
      "duration": 0.1022,
      "velocity": 107,
      "chip": "ym2612"
    },
    {
      "channel": 1,
      "note": 64,
      "start": 25.8321,
      "duration": 0.1247,
      "velocity": 123,
      "chip": "ym2612"
    },
    {
      "channel": 4,
      "note": 37,
      "start": 25.8356,
      "duration": 0.1009,
      "velocity": 110,
      "chip": "ym2612"
    },
    {
      "channel": 5,
      "note": 49,
      "start": 25.8364,
      "duration": 0.1005,
      "velocity": 107,
      "chip": "ym2612"
    },
    {
      "channel": 0,
      "note": 54,
      "start": 25.955,
      "duration": 0.1049,
      "velocity": 107,
      "chip": "ym2612"
    },
    {
      "channel": 1,
      "note": 57,
      "start": 25.9571,
      "duration": 0.1246,
      "velocity": 123,
      "chip": "ym2612"
    },
    {
      "channel": 4,
      "note": 37,
      "start": 25.9599,
      "duration": 0.1039,
      "velocity": 110,
      "chip": "ym2612"
    },
    {
      "channel": 5,
      "note": 49,
      "start": 25.9608,
      "duration": 0.1034,
      "velocity": 107,
      "chip": "ym2612"
    },
    {
      "channel": 0,
      "note": 53,
      "start": 26.0813,
      "duration": 0.102,
      "velocity": 107,
      "chip": "ym2612"
    },
    {
      "channel": 1,
      "note": 57,
      "start": 26.082,
      "duration": 0.1232,
      "velocity": 123,
      "chip": "ym2612"
    },
    {
      "channel": 4,
      "note": 49,
      "start": 26.0854,
      "duration": 0.1007,
      "velocity": 110,
      "chip": "ym2612"
    },
    {
      "channel": 5,
      "note": 49,
      "start": 26.0863,
      "duration": 0.1002,
      "velocity": 107,
      "chip": "ym2612"
    },
    {
      "channel": 0,
      "note": 53,
      "start": 26.2047,
      "duration": 0.1019,
      "velocity": 107,
      "chip": "ym2612"
    },
    {
      "channel": 1,
      "note": 57,
      "start": 26.2054,
      "duration": 0.1253,
      "velocity": 127,
      "chip": "ym2612"
    },
    {
      "channel": 4,
      "note": 37,
      "start": 26.2086,
      "duration": 0.1013,
      "velocity": 110,
      "chip": "ym2612"
    },
    {
      "channel": 5,
      "note": 49,
      "start": 26.2095,
      "duration": 0.1008,
      "velocity": 107,
      "chip": "ym2612"
    },
    {
      "channel": 0,
      "note": 49,
      "start": 26.3281,
      "duration": 0.1025,
      "velocity": 107,
      "chip": "ym2612"
    },
    {
      "channel": 1,
      "note": 59,
      "start": 26.3309,
      "duration": 0.2461,
      "velocity": 123,
      "chip": "ym2612"
    },
    {
      "channel": 4,
      "note": 47,
      "start": 26.3351,
      "duration": 0.0985,
      "velocity": 110,
      "chip": "ym2612"
    },
    {
      "channel": 5,
      "note": 42,
      "start": 26.3361,
      "duration": 0.0978,
      "velocity": 107,
      "chip": "ym2612"
    },
    {
      "channel": 0,
      "note": 49,
      "start": 26.4514,
      "duration": 0.1022,
      "velocity": 107,
      "chip": "ym2612"
    },
    {
      "channel": 4,
      "note": 37,
      "start": 26.4546,
      "duration": 0.102,
      "velocity": 110,
      "chip": "ym2612"
    },
    {
      "channel": 5,
      "note": 42,
      "start": 26.4552,
      "duration": 0.1017,
      "velocity": 107,
      "chip": "ym2612"
    },
    {
      "channel": 0,
      "note": 49,
      "start": 26.5749,
      "duration": 0.1055,
      "velocity": 107,
      "chip": "ym2612"
    },
    {
      "channel": 1,
      "note": 57,
      "start": 26.5772,
      "duration": 0.126,
      "velocity": 127,
      "chip": "ym2612"
    },
    {
      "channel": 4,
      "note": 46,
      "start": 26.5807,
      "duration": 0.1026,
      "velocity": 110,
      "chip": "ym2612"
    },
    {
      "channel": 5,
      "note": 42,
      "start": 26.5815,
      "duration": 0.1022,
      "velocity": 107,
      "chip": "ym2612"
    },
    {
      "channel": 0,
      "note": 51,
      "start": 26.7013,
      "duration": 0.1021,
      "velocity": 107,
      "chip": "ym2612"
    },
    {
      "channel": 1,
      "note": 64,
      "start": 26.7034,
      "duration": 0.1233,
      "velocity": 123,
      "chip": "ym2612"
    },
    {
      "channel": 4,
      "note": 47,
      "start": 26.7067,
      "duration": 0.0998,
      "velocity": 110,
      "chip": "ym2612"
    },
    {
      "channel": 5,
      "note": 44,
      "start": 26.7076,
      "duration": 0.0993,
      "velocity": 107,
      "chip": "ym2612"
    },
    {
      "channel": 0,
      "note": 51,
      "start": 26.8247,
      "duration": 0.1055,
      "velocity": 107,
      "chip": "ym2612"
    },
    {
      "channel": 1,
      "note": 57,
      "start": 26.8269,
      "duration": 0.126,
      "velocity": 127,
      "chip": "ym2612"
    },
    {
      "channel": 4,
      "note": 37,
      "start": 26.8312,
      "duration": 0.1021,
      "velocity": 110,
      "chip": "ym2612"
    },
    {
      "channel": 5,
      "note": 44,
      "start": 26.8321,
      "duration": 0.1016,
      "velocity": 107,
      "chip": "ym2612"
    },
    {
      "channel": 0,
      "note": 51,
      "start": 26.951,
      "duration": 0.1022,
      "velocity": 107,
      "chip": "ym2612"
    },
    {
      "channel": 1,
      "note": 64,
      "start": 26.9531,
      "duration": 0.123,
      "velocity": 123,
      "chip": "ym2612"
    },
    {
      "channel": 4,
      "note": 46,
      "start": 26.9561,
      "duration": 0.1005,
      "velocity": 110,
      "chip": "ym2612"
    },
    {
      "channel": 5,
      "note": 44,
      "start": 26.957,
      "duration": 0.0999,
      "velocity": 107,
      "chip": "ym2612"
    },
    {
      "channel": 1,
      "note": 57,
      "start": 27.0763,
      "duration": 0.1259,
      "velocity": 127,
      "chip": "ym2612"
    },
    {
      "channel": 4,
      "note": 37,
      "start": 27.0806,
      "duration": 0.1024,
      "velocity": 110,
      "chip": "ym2612"
    },
    {
      "channel": 1,
      "note": 64,
      "start": 27.2024,
      "duration": 0.1233,
      "velocity": 127,
      "chip": "ym2612"
    },
    {
      "channel": 4,
      "note": 42,
      "start": 27.2057,
      "duration": 0.1005,
      "velocity": 110,
      "chip": "ym2612"
    },
    {
      "channel": 1,
      "note": 59,
      "start": 27.326,
      "duration": 0.0404,
      "velocity": 127,
      "chip": "ym2612"
    },
    {
      "channel": 4,
      "note": 37,
      "start": 27.3305,
      "duration": 0.1024,
      "velocity": 110,
      "chip": "ym2612"
    },
    {
      "channel": 1,
      "note": 59,
      "start": 27.3666,
      "duration": 0.084,
      "velocity": 127,
      "chip": "ym2612"
    },
    {
      "channel": 1,
      "note": 59,
      "start": 27.4508,
      "duration": 0.1247,
      "velocity": 127,
      "chip": "ym2612"
    },
    {
      "channel": 4,
      "note": 44,
      "start": 27.4538,
      "duration": 0.1022,
      "velocity": 110,
      "chip": "ym2612"
    },
    {
      "channel": 1,
      "note": 59,
      "start": 27.5756,
      "duration": 0.1219,
      "velocity": 127,
      "chip": "ym2612"
    },
    {
      "channel": 2,
      "note": 56,
      "start": 27.5764,
      "duration": 0.1006,
      "velocity": 101,
      "chip": "ym2612"
    },
    {
      "channel": 3,
      "note": 49,
      "start": 27.5792,
      "duration": 0.0995,
      "velocity": 101,
      "chip": "ym2612"
    },
    {
      "channel": 4,
      "note": 42,
      "start": 27.5805,
      "duration": 0.0986,
      "velocity": 110,
      "chip": "ym2612"
    },
    {
      "channel": 1,
      "note": 59,
      "start": 27.6978,
      "duration": 0.1251,
      "velocity": 127,
      "chip": "ym2612"
    },
    {
      "channel": 2,
      "note": 56,
      "start": 27.6985,
      "duration": 0.1018,
      "velocity": 101,
      "chip": "ym2612"
    },
    {
      "channel": 3,
      "note": 49,
      "start": 27.7006,
      "duration": 0.1017,
      "velocity": 101,
      "chip": "ym2612"
    },
    {
      "channel": 4,
      "note": 41,
      "start": 27.7013,
      "duration": 0.1014,
      "velocity": 110,
      "chip": "ym2612"
    },
    {
      "channel": 0,
      "note": 54,
      "start": 27.8209,
      "duration": 0.2284,
      "velocity": 107,
      "chip": "ym2612"
    },
    {
      "channel": 1,
      "note": 64,
      "start": 27.8231,
      "duration": 0.1259,
      "velocity": 123,
      "chip": "ym2612"
    },
    {
      "channel": 2,
      "note": 54,
      "start": 27.8239,
      "duration": 1.9716,
      "velocity": 101,
      "chip": "ym2612"
    },
    {
      "channel": 3,
      "note": 47,
      "start": 27.8262,
      "duration": 1.8447,
      "velocity": 101,
      "chip": "ym2612"
    },
    {
      "channel": 4,
      "note": 37,
      "start": 27.8269,
      "duration": 0.1018,
      "velocity": 110,
      "chip": "ym2612"
    },
    {
      "channel": 5,
      "note": 47,
      "start": 27.828,
      "duration": 0.2251,
      "velocity": 107,
      "chip": "ym2612"
    },
    {
      "channel": 1,
      "note": 57,
      "start": 27.9492,
      "duration": 0.122,
      "velocity": 123,
      "chip": "ym2612"
    },
    {
      "channel": 4,
      "note": 37,
      "start": 27.952,
      "duration": 0.1006,
      "velocity": 110,
      "chip": "ym2612"
    },
    {
      "channel": 0,
      "note": 54,
      "start": 28.0707,
      "duration": 0.2283,
      "velocity": 107,
      "chip": "ym2612"
    },
    {
      "channel": 1,
      "note": 57,
      "start": 28.0714,
      "duration": 0.1261,
      "velocity": 123,
      "chip": "ym2612"
    },
    {
      "channel": 4,
      "note": 49,
      "start": 28.0748,
      "duration": 0.1036,
      "velocity": 110,
      "chip": "ym2612"
    },
    {
      "channel": 5,
      "note": 47,
      "start": 28.0757,
      "duration": 0.2268,
      "velocity": 107,
      "chip": "ym2612"
    },
    {
      "channel": 1,
      "note": 57,
      "start": 28.1976,
      "duration": 0.1247,
      "velocity": 127,
      "chip": "ym2612"
    },
    {
      "channel": 4,
      "note": 37,
      "start": 28.2009,
      "duration": 0.1012,
      "velocity": 110,
      "chip": "ym2612"
    },
    {
      "channel": 0,
      "note": 53,
      "start": 28.3204,
      "duration": 0.2255,
      "velocity": 107,
      "chip": "ym2612"
    },
    {
      "channel": 1,
      "note": 59,
      "start": 28.3225,
      "duration": 0.2468,
      "velocity": 123,
      "chip": "ym2612"
    },
    {
      "channel": 4,
      "note": 47,
      "start": 28.3262,
      "duration": 0.0992,
      "velocity": 110,
      "chip": "ym2612"
    },
    {
      "channel": 5,
      "note": 47,
      "start": 28.3271,
      "duration": 0.2232,
      "velocity": 107,
      "chip": "ym2612"
    },
    {
      "channel": 4,
      "note": 37,
      "start": 28.4473,
      "duration": 0.1025,
      "velocity": 110,
      "chip": "ym2612"
    },
    {
      "channel": 0,
      "note": 53,
      "start": 28.5672,
      "duration": 0.2284,
      "velocity": 107,
      "chip": "ym2612"
    },
    {
      "channel": 1,
      "note": 57,
      "start": 28.5695,
      "duration": 0.1255,
      "velocity": 127,
      "chip": "ym2612"
    },
    {
      "channel": 4,
      "note": 46,
      "start": 28.573,
      "duration": 0.102,
      "velocity": 110,
      "chip": "ym2612"
    },
    {
      "channel": 5,
      "note": 47,
      "start": 28.5738,
      "duration": 0.226,
      "velocity": 107,
      "chip": "ym2612"
    },
    {
      "channel": 1,
      "note": 64,
      "start": 28.6952,
      "duration": 0.1239,
      "velocity": 123,
      "chip": "ym2612"
    },
    {
      "channel": 4,
      "note": 47,
      "start": 28.699,
      "duration": 0.1005,
      "velocity": 110,
      "chip": "ym2612"
    },
    {
      "channel": 0,
      "note": 49,
      "start": 28.8171,
      "duration": 0.1048,
      "velocity": 107,
      "chip": "ym2612"
    },
    {
      "channel": 1,
      "note": 57,
      "start": 28.8193,
      "duration": 0.1258,
      "velocity": 127,
      "chip": "ym2612"
    },
    {
      "channel": 4,
      "note": 37,
      "start": 28.823,
      "duration": 0.1019,
      "velocity": 110,
      "chip": "ym2612"
    },
    {
      "channel": 5,
      "note": 42,
      "start": 28.824,
      "duration": 0.1012,
      "velocity": 107,
      "chip": "ym2612"
    },
    {
      "channel": 0,
      "note": 49,
      "start": 28.9432,
      "duration": 0.1023,
      "velocity": 107,
      "chip": "ym2612"
    },
    {
      "channel": 1,
      "note": 64,
      "start": 28.9453,
      "duration": 0.1235,
      "velocity": 123,
      "chip": "ym2612"
    },
    {
      "channel": 4,
      "note": 46,
      "start": 28.9488,
      "duration": 0.1007,
      "velocity": 110,
      "chip": "ym2612"
    },
    {
      "channel": 5,
      "note": 42,
      "start": 28.9495,
      "duration": 0.1003,
      "velocity": 107,
      "chip": "ym2612"
    },
    {
      "channel": 0,
      "note": 49,
      "start": 29.0668,
      "duration": 0.1049,
      "velocity": 107,
      "chip": "ym2612"
    },
    {
      "channel": 1,
      "note": 57,
      "start": 29.069,
      "duration": 0.126,
      "velocity": 127,
      "chip": "ym2612"
    },
    {
      "channel": 4,
      "note": 37,
      "start": 29.0724,
      "duration": 0.1021,
      "velocity": 110,
      "chip": "ym2612"
    },
    {
      "channel": 5,
      "note": 42,
      "start": 29.0733,
      "duration": 0.1017,
      "velocity": 107,
      "chip": "ym2612"
    },
    {
      "channel": 0,
      "note": 51,
      "start": 29.1932,
      "duration": 0.1021,
      "velocity": 107,
      "chip": "ym2612"
    },
    {
      "channel": 1,
      "note": 64,
      "start": 29.1953,
      "duration": 0.1234,
      "velocity": 127,
      "chip": "ym2612"
    },
    {
      "channel": 4,
      "note": 42,
      "start": 29.1992,
      "duration": 0.0999,
      "velocity": 110,
      "chip": "ym2612"
    },
    {
      "channel": 5,
      "note": 44,
      "start": 29.2,
      "duration": 0.0994,
      "velocity": 107,
      "chip": "ym2612"
    },
    {
      "channel": 0,
      "note": 51,
      "start": 29.3166,
      "duration": 0.1049,
      "velocity": 107,
      "chip": "ym2612"
    },
    {
      "channel": 1,
      "note": 59,
      "start": 29.3188,
      "duration": 0.2493,
      "velocity": 123,
      "chip": "ym2612"
    },
    {
      "channel": 4,
      "note": 37,
      "start": 29.3225,
      "duration": 0.1019,
      "velocity": 110,
      "chip": "ym2612"
    },
    {
      "channel": 5,
      "note": 44,
      "start": 29.3234,
      "duration": 0.1015,
      "velocity": 107,
      "chip": "ym2612"
    },
    {
      "channel": 0,
      "note": 44,
      "start": 29.4431,
      "duration": 0.1019,
      "velocity": 107,
      "chip": "ym2612"
    },
    {
      "channel": 4,
      "note": 44,
      "start": 29.4469,
      "duration": 0.102,
      "velocity": 110,
      "chip": "ym2612"
    },
    {
      "channel": 5,
      "note": 35,
      "start": 29.4478,
      "duration": 0.1015,
      "velocity": 107,
      "chip": "ym2612"
    },
    {
      "channel": 0,
      "note": 46,
      "start": 29.5662,
      "duration": 0.1022,
      "velocity": 107,
      "chip": "ym2612"
    },
    {
      "channel": 1,
      "note": 57,
      "start": 29.5684,
      "duration": 0.1232,
      "velocity": 127,
      "chip": "ym2612"
    },
    {
      "channel": 4,
      "note": 42,
      "start": 29.5717,
      "duration": 0.0996,
      "velocity": 110,
      "chip": "ym2612"
    },
    {
      "channel": 5,
      "note": 35,
      "start": 29.5724,
      "duration": 0.0993,
      "velocity": 107,
      "chip": "ym2612"
    },
    {
      "channel": 0,
      "note": 44,
      "start": 29.6897,
      "duration": 0.105,
      "velocity": 107,
      "chip": "ym2612"
    },
    {
      "channel": 1,
      "note": 64,
      "start": 29.6918,
      "duration": 0.1263,
      "velocity": 127,
      "chip": "ym2612"
    },
    {
      "channel": 3,
      "note": 46,
      "start": 29.6944,
      "duration": 0.104,
      "velocity": 101,
      "chip": "ym2612"
    },
    {
      "channel": 4,
      "note": 41,
      "start": 29.6951,
      "duration": 0.1036,
      "velocity": 110,
      "chip": "ym2612"
    },
    {
      "channel": 5,
      "note": 35,
      "start": 29.6958,
      "duration": 0.1033,
      "velocity": 107,
      "chip": "ym2612"
    },
    {
      "channel": 0,
      "note": 56,
      "start": 29.8162,
      "duration": 0.1021,
      "velocity": 107,
      "chip": "ym2612"
    },
    {
      "channel": 1,
      "note": 64,
      "start": 29.8183,
      "duration": 0.1216,
      "velocity": 127,
      "chip": "ym2612"
    },
    {
      "channel": 2,
      "note": 56,
      "start": 29.8191,
      "duration": 0.1,
      "velocity": 101,
      "chip": "ym2612"
    },
    {
      "channel": 3,
      "note": 49,
      "start": 29.822,
      "duration": 0.0991,
      "velocity": 101,
      "chip": "ym2612"
    },
    {
      "channel": 4,
      "note": 37,
      "start": 29.8227,
      "duration": 0.0988,
      "velocity": 110,
      "chip": "ym2612"
    },
    {
      "channel": 5,
      "note": 49,
      "start": 29.8235,
      "duration": 0.0983,
      "velocity": 107,
      "chip": "ym2612"
    },
    {
      "channel": 0,
      "note": 56,
      "start": 29.9394,
      "duration": 0.1051,
      "velocity": 107,
      "chip": "ym2612"
    },
    {
      "channel": 1,
      "note": 64,
      "start": 29.9401,
      "duration": 0.1278,
      "velocity": 127,
      "chip": "ym2612"
    },
    {
      "channel": 2,
      "note": 49,
      "start": 29.9408,
      "duration": 0.1045,
      "velocity": 101,
      "chip": "ym2612"
    },
    {
      "channel": 3,
      "note": 44,
      "start": 29.9434,
      "duration": 0.1046,
      "velocity": 101,
      "chip": "ym2612"
    },
    {
      "channel": 4,
      "note": 49,
      "start": 29.9441,
      "duration": 0.1043,
      "velocity": 110,
      "chip": "ym2612"
    },
    {
      "channel": 5,
      "note": 49,
      "start": 29.9448,
      "duration": 0.104,
      "velocity": 107,
      "chip": "ym2612"
    },
    {
      "channel": 0,
      "note": 56,
      "start": 30.0659,
      "duration": 0.1022,
      "velocity": 107,
      "chip": "ym2612"
    },
    {
      "channel": 1,
      "note": 59,
      "start": 30.0681,
      "duration": 0.1232,
      "velocity": 127,
      "chip": "ym2612"
    },
    {
      "channel": 2,
      "note": 49,
      "start": 30.069,
      "duration": 0.0999,
      "velocity": 101,
      "chip": "ym2612"
    },
    {
      "channel": 3,
      "note": 44,
      "start": 30.0716,
      "duration": 0.0994,
      "velocity": 101,
      "chip": "ym2612"
    },
    {
      "channel": 4,
      "note": 37,
      "start": 30.0723,
      "duration": 0.0989,
      "velocity": 110,
      "chip": "ym2612"
    },
    {
      "channel": 5,
      "note": 49,
      "start": 30.0732,
      "duration": 0.0985,
      "velocity": 107,
      "chip": "ym2612"
    },
    {
      "channel": 0,
      "note": 56,
      "start": 30.1894,
      "duration": 0.105,
      "velocity": 107,
      "chip": "ym2612"
    },
    {
      "channel": 1,
      "note": 64,
      "start": 30.1915,
      "duration": 0.1261,
      "velocity": 123,
      "chip": "ym2612"
    },
    {
      "channel": 2,
      "note": 56,
      "start": 30.1924,
      "duration": 0.1029,
      "velocity": 101,
      "chip": "ym2612"
    },
    {
      "channel": 3,
      "note": 49,
      "start": 30.1953,
      "duration": 0.1027,
      "velocity": 101,
      "chip": "ym2612"
    },
    {
      "channel": 4,
      "note": 37,
      "start": 30.1959,
      "duration": 0.1024,
      "velocity": 110,
      "chip": "ym2612"
    },
    {
      "channel": 5,
      "note": 49,
      "start": 30.1975,
      "duration": 0.1013,
      "velocity": 107,
      "chip": "ym2612"
    },
    {
      "channel": 0,
      "note": 56,
      "start": 30.3157,
      "duration": 0.105,
      "velocity": 107,
      "chip": "ym2612"
    },
    {
      "channel": 1,
      "note": 57,
      "start": 30.3178,
      "duration": 0.1261,
      "velocity": 127,
      "chip": "ym2612"
    },
    {
      "channel": 2,
      "note": 56,
      "start": 30.3188,
      "duration": 0.1028,
      "velocity": 101,
      "chip": "ym2612"
    },
    {
      "channel": 3,
      "note": 49,
      "start": 30.3216,
      "duration": 0.102,
      "velocity": 101,
      "chip": "ym2612"
    },
    {
      "channel": 4,
      "note": 49,
      "start": 30.3223,
      "duration": 0.2258,
      "velocity": 110,
      "chip": "ym2612"
    },
    {
      "channel": 5,
      "note": 49,
      "start": 30.323,
      "duration": 0.1012,
      "velocity": 107,
      "chip": "ym2612"
    },
    {
      "channel": 0,
      "note": 56,
      "start": 30.4419,
      "duration": 0.1023,
      "velocity": 107,
      "chip": "ym2612"
    },
    {
      "channel": 1,
      "note": 59,
      "start": 30.4441,
      "duration": 0.1234,
      "velocity": 127,
      "chip": "ym2612"
    },
    {
      "channel": 2,
      "note": 49,
      "start": 30.445,
      "duration": 0.1001,
      "velocity": 101,
      "chip": "ym2612"
    },
    {
      "channel": 3,
      "note": 44,
      "start": 30.4485,
      "duration": 0.0992,
      "velocity": 101,
      "chip": "ym2612"
    },
    {
      "channel": 5,
      "note": 49,
      "start": 30.4495,
      "duration": 0.0989,
      "velocity": 107,
      "chip": "ym2612"
    },
    {
      "channel": 0,
      "note": 56,
      "start": 30.5656,
      "duration": 0.1049,
      "velocity": 107,
      "chip": "ym2612"
    },
    {
      "channel": 1,
      "note": 62,
      "start": 30.5678,
      "duration": 0.0821,
      "velocity": 127,
      "chip": "ym2612"
    },
    {
      "channel": 2,
      "note": 49,
      "start": 30.5686,
      "duration": 0.1027,
      "velocity": 101,
      "chip": "ym2612"
    },
    {
      "channel": 3,
      "note": 44,
      "start": 30.5712,
      "duration": 0.1022,
      "velocity": 101,
      "chip": "ym2612"
    },
    {
      "channel": 4,
      "note": 37,
      "start": 30.572,
      "duration": 0.2259,
      "velocity": 110,
      "chip": "ym2612"
    },
    {
      "channel": 5,
      "note": 49,
      "start": 30.5728,
      "duration": 0.1012,
      "velocity": 107,
      "chip": "ym2612"
    },
    {
      "channel": 1,
      "note": 59,
      "start": 30.6501,
      "duration": 0.084,
      "velocity": 127,
      "chip": "ym2612"
    },
    {
      "channel": 0,
      "note": 56,
      "start": 30.6919,
      "duration": 0.1021,
      "velocity": 107,
      "chip": "ym2612"
    },
    {
      "channel": 2,
      "note": 56,
      "start": 30.6933,
      "duration": 0.1017,
      "velocity": 101,
      "chip": "ym2612"
    },
    {
      "channel": 3,
      "note": 49,
      "start": 30.6964,
      "duration": 0.1012,
      "velocity": 101,
      "chip": "ym2612"
    },
    {
      "channel": 5,
      "note": 49,
      "start": 30.698,
      "duration": 0.1003,
      "velocity": 107,
      "chip": "ym2612"
    },
    {
      "channel": 1,
      "note": 55,
      "start": 30.7343,
      "duration": 0.083,
      "velocity": 127,
      "chip": "ym2612"
    },
    {
      "channel": 0,
      "note": 58,
      "start": 30.8153,
      "duration": 0.105,
      "velocity": 107,
      "chip": "ym2612"
    },
    {
      "channel": 1,
      "note": 64,
      "start": 30.8175,
      "duration": 0.1245,
      "velocity": 127,
      "chip": "ym2612"
    },
    {
      "channel": 2,
      "note": 51,
      "start": 30.8183,
      "duration": 0.1029,
      "velocity": 101,
      "chip": "ym2612"
    },
    {
      "channel": 3,
      "note": 44,
      "start": 30.8209,
      "duration": 0.1023,
      "velocity": 101,
      "chip": "ym2612"
    },
    {
      "channel": 4,
      "note": 39,
      "start": 30.8216,
      "duration": 0.102,
      "velocity": 110,
      "chip": "ym2612"
    },
    {
      "channel": 5,
      "note": 51,
      "start": 30.8223,
      "duration": 0.1015,
      "velocity": 107,
      "chip": "ym2612"
    },
    {
      "channel": 0,
      "note": 58,
      "start": 30.9415,
      "duration": 0.1023,
      "velocity": 107,
      "chip": "ym2612"
    },
    {
      "channel": 1,
      "note": 64,
      "start": 30.9422,
      "duration": 0.1247,
      "velocity": 127,
      "chip": "ym2612"
    },
    {
      "channel": 2,
      "note": 51,
      "start": 30.9429,
      "duration": 0.1017,
      "velocity": 101,
      "chip": "ym2612"
    },
    {
      "channel": 3,
      "note": 44,
      "start": 30.9456,
      "duration": 0.1018,
      "velocity": 101,
      "chip": "ym2612"
    },
    {
      "channel": 4,
      "note": 39,
      "start": 30.9469,
      "duration": 0.1008,
      "velocity": 110,
      "chip": "ym2612"
    },
    {
      "channel": 5,
      "note": 51,
      "start": 30.9476,
      "duration": 0.1005,
      "velocity": 107,
      "chip": "ym2612"
    },
    {
      "channel": 0,
      "note": 58,
      "start": 31.065,
      "duration": 0.1051,
      "velocity": 107,
      "chip": "ym2612"
    },
    {
      "channel": 1,
      "note": 59,
      "start": 31.0671,
      "duration": 0.2482,
      "velocity": 127,
      "chip": "ym2612"
    },
    {
      "channel": 2,
      "note": 58,
      "start": 31.0679,
      "duration": 0.103,
      "velocity": 101,
      "chip": "ym2612"
    },
    {
      "channel": 3,
      "note": 51,
      "start": 31.0705,
      "duration": 0.1024,
      "velocity": 101,
      "chip": "ym2612"
    },
    {
      "channel": 4,
      "note": 39,
      "start": 31.0713,
      "duration": 0.2262,
      "velocity": 110,
      "chip": "ym2612"
    },
    {
      "channel": 5,
      "note": 51,
      "start": 31.072,
      "duration": 0.1017,
      "velocity": 107,
      "chip": "ym2612"
    },
    {
      "channel": 0,
      "note": 58,
      "start": 31.1913,
      "duration": 0.1024,
      "velocity": 107,
      "chip": "ym2612"
    },
    {
      "channel": 2,
      "note": 58,
      "start": 31.1927,
      "duration": 0.1018,
      "velocity": 101,
      "chip": "ym2612"
    },
    {
      "channel": 3,
      "note": 51,
      "start": 31.1952,
      "duration": 0.1019,
      "velocity": 101,
      "chip": "ym2612"
    },
    {
      "channel": 5,
      "note": 51,
      "start": 31.1969,
      "duration": 0.101,
      "velocity": 107,
      "chip": "ym2612"
    },
    {
      "channel": 0,
      "note": 58,
      "start": 31.3148,
      "duration": 0.4752,
      "velocity": 107,
      "chip": "ym2612"
    },
    {
      "channel": 1,
      "note": 59,
      "start": 31.3155,
      "duration": 0.0837,
      "velocity": 127,
      "chip": "ym2612"
    },
    {
      "channel": 2,
      "note": 58,
      "start": 31.3165,
      "duration": 0.4744,
      "velocity": 101,
      "chip": "ym2612"
    },
    {
      "channel": 3,
      "note": 51,
      "start": 31.3195,
      "duration": 0.4737,
      "velocity": 101,
      "chip": "ym2612"
    },
    {
      "channel": 4,
      "note": 39,
      "start": 31.3204,
      "duration": 0.4735,
      "velocity": 110,
      "chip": "ym2612"
    },
    {
      "channel": 5,
      "note": 51,
      "start": 31.3211,
      "duration": 0.4732,
      "velocity": 107,
      "chip": "ym2612"
    },
    {
      "channel": 1,
      "note": 59,
      "start": 31.3994,
      "duration": 0.0814,
      "velocity": 127,
      "chip": "ym2612"
    },
    {
      "channel": 1,
      "note": 59,
      "start": 31.4811,
      "duration": 0.085,
      "velocity": 127,
      "chip": "ym2612"
    },
    {
      "channel": 1,
      "note": 59,
      "start": 31.5663,
      "duration": 0.0798,
      "velocity": 127,
      "chip": "ym2612"
    },
    {
      "channel": 1,
      "note": 59,
      "start": 31.6469,
      "duration": 0.0803,
      "velocity": 127,
      "chip": "ym2612"
    },
    {
      "channel": 1,
      "note": 59,
      "start": 31.7274,
      "duration": 0.0865,
      "velocity": 127,
      "chip": "ym2612"
    },
    {
      "channel": 1,
      "note": 64,
      "start": 31.8141,
      "duration": 0.1238,
      "velocity": 127,
      "chip": "ym2612"
    },
    {
      "channel": 2,
      "note": 39,
      "start": 31.8168,
      "duration": 0.1005,
      "velocity": 101,
      "chip": "ym2612"
    },
    {
      "channel": 3,
      "note": 32,
      "start": 31.8216,
      "duration": 0.0978,
      "velocity": 101,
      "chip": "ym2612"
    },
    {
      "channel": 4,
      "note": 44,
      "start": 31.8227,
      "duration": 0.2206,
      "velocity": 110,
      "chip": "ym2612"
    },
    {
      "channel": 2,
      "note": 39,
      "start": 31.9389,
      "duration": 0.1018,
      "velocity": 101,
      "chip": "ym2612"
    },
    {
      "channel": 3,
      "note": 32,
      "start": 31.9414,
      "duration": 0.1016,
      "velocity": 101,
      "chip": "ym2612"
    },
    {
      "channel": 1,
      "note": 57,
      "start": 32.0636,
      "duration": 0.124,
      "velocity": 123,
      "chip": "ym2612"
    },
    {
      "channel": 2,
      "note": 39,
      "start": 32.0646,
      "duration": 0.1024,
      "velocity": 101,
      "chip": "ym2612"
    },
    {
      "channel": 3,
      "note": 32,
      "start": 32.0671,
      "duration": 0.1016,
      "velocity": 101,
      "chip": "ym2612"
    },
    {
      "channel": 2,
      "note": 39,
      "start": 32.1886,
      "duration": 0.1018,
      "velocity": 101,
      "chip": "ym2612"
    },
    {
      "channel": 3,
      "note": 32,
      "start": 32.1908,
      "duration": 0.1013,
      "velocity": 101,
      "chip": "ym2612"
    },
    {
      "channel": 1,
      "note": 59,
      "start": 32.3128,
      "duration": 0.0,
      "velocity": 127,
      "chip": "ym2612"
    }
  ]
}