{
  "track_name": "05 - Sound Test 05",
  "duration_sec": 87.629,
  "sample_rate": 44100,
  "note_count": 2505,
  "unique_pitches": 37,
  "pitch_range": 53,
  "avg_note_duration": 0.1469,
  "reconstruction_stats": {
    "notes_reconstructed": 2505,
    "keyon_events": 2505,
    "keyoff_events": 2499,
    "orphan_keyons": 6,
    "unique_pitches": 37,
    "pitch_range": 53,
    "avg_duration_sec": 0.1469
  },
  "metadata": {
    "source": "D\\Dyna Brothers\\05 - Sound Test 05.vgz"
  },
  "notes": [
    {
      "channel": 5,
      "note": 54,
      "start": 0.0,
      "duration": 0.1099,
      "velocity": 117,
      "chip": "ym2612"
    },
    {
      "channel": 5,
      "note": 45,
      "start": 0.4627,
      "duration": 0.1235,
      "velocity": 127,
      "chip": "ym2612"
    },
    {
      "channel": 5,
      "note": 45,
      "start": 0.8279,
      "duration": 0.1104,
      "velocity": 115,
      "chip": "ym2612"
    },
    {
      "channel": 5,
      "note": 57,
      "start": 0.939,
      "duration": 0.06,
      "velocity": 115,
      "chip": "ym2612"
    },
    {
      "channel": 5,
      "note": 57,
      "start": 0.9997,
      "duration": 0.0628,
      "velocity": 115,
      "chip": "ym2612"
    },
    {
      "channel": 5,
      "note": 57,
      "start": 1.0632,
      "duration": 0.1104,
      "velocity": 115,
      "chip": "ym2612"
    },
    {
      "channel": 5,
      "note": 57,
      "start": 1.1743,
      "duration": 0.1263,
      "velocity": 115,
      "chip": "ym2612"
    },
    {
      "channel": 5,
      "note": 57,
      "start": 1.3013,
      "duration": 0.1132,
      "velocity": 127,
      "chip": "ym2612"
    },
    {
      "channel": 5,
      "note": 45,
      "start": 1.4153,
      "duration": 0.1235,
      "velocity": 127,
      "chip": "ym2612"
    },
    {
      "channel": 5,
      "note": 45,
      "start": 1.6534,
      "duration": 0.1263,
      "velocity": 127,
      "chip": "ym2612"
    },
    {
      "channel": 5,
      "note": 45,
      "start": 1.7803,
      "duration": 0.1159,
      "velocity": 117,
      "chip": "ym2612"
    },
    {
      "channel": 0,
      "note": 78,
      "start": 1.8909,
      "duration": 0.2665,
      "velocity": 93,
      "chip": "ym2612"
    },
    {
      "channel": 2,
      "note": 78,
      "start": 1.8921,
      "duration": 0.0753,
      "velocity": 95,
      "chip": "ym2612"
    },
    {
      "channel": 4,
      "note": 54,
      "start": 1.8931,
      "duration": 0.1711,
      "velocity": 97,
      "chip": "ym2612"
    },
    {
      "channel": 5,
      "note": 54,
      "start": 1.8969,
      "duration": 0.1225,
      "velocity": 115,
      "chip": "ym2612"
    },
    {
      "channel": 2,
      "note": 73,
      "start": 2.0157,
      "duration": 0.0791,
      "velocity": 95,
      "chip": "ym2612"
    },
    {
      "channel": 5,
      "note": 57,
      "start": 2.0201,
      "duration": 0.1088,
      "velocity": 115,
      "chip": "ym2612"
    },
    {
      "channel": 1,
      "note": 78,
      "start": 2.0317,
      "duration": 0.0784,
      "velocity": 95,
      "chip": "ym2612"
    },
    {
      "channel": 3,
      "note": 78,
      "start": 2.0513,
      "duration": 0.2662,
      "velocity": 93,
      "chip": "ym2612"
    },
    {
      "channel": 2,
      "note": 82,
      "start": 2.1273,
      "duration": 0.0786,
      "velocity": 95,
      "chip": "ym2612"
    },
    {
      "channel": 4,
      "note": 66,
      "start": 2.1286,
      "duration": 0.1737,
      "velocity": 97,
      "chip": "ym2612"
    },
    {
      "channel": 5,
      "note": 57,
      "start": 2.1296,
      "duration": 0.1263,
      "velocity": 115,
      "chip": "ym2612"
    },
    {
      "channel": 1,
      "note": 73,
      "start": 2.1582,
      "duration": 0.079,
      "velocity": 95,
      "chip": "ym2612"
    },
    {
      "channel": 0,
      "note": 73,
      "start": 2.2532,
      "duration": 0.2692,
      "velocity": 93,
      "chip": "ym2612"
    },
    {
      "channel": 2,
      "note": 80,
      "start": 2.2547,
      "duration": 0.1735,
      "velocity": 95,
      "chip": "ym2612"
    },
    {
      "channel": 5,
      "note": 57,
      "start": 2.2567,
      "duration": 0.1128,
      "velocity": 127,
      "chip": "ym2612"
    },
    {
      "channel": 1,
      "note": 82,
      "start": 2.2697,
      "duration": 0.0787,
      "velocity": 95,
      "chip": "ym2612"
    },
    {
      "channel": 4,
      "note": 54,
      "start": 2.3663,
      "duration": 0.174,
      "velocity": 97,
      "chip": "ym2612"
    },
    {
      "channel": 5,
      "note": 45,
      "start": 2.3702,
      "duration": 0.1236,
      "velocity": 127,
      "chip": "ym2612"
    },
    {
      "channel": 1,
      "note": 80,
      "start": 2.3968,
      "duration": 0.1738,
      "velocity": 95,
      "chip": "ym2612"
    },
    {
      "channel": 3,
      "note": 73,
      "start": 2.4135,
      "duration": 0.2691,
      "velocity": 93,
      "chip": "ym2612"
    },
    {
      "channel": 2,
      "note": 82,
      "start": 2.4925,
      "duration": 0.0782,
      "velocity": 95,
      "chip": "ym2612"
    },
    {
      "channel": 0,
      "note": 82,
      "start": 2.6026,
      "duration": 0.174,
      "velocity": 93,
      "chip": "ym2612"
    },
    {
      "channel": 2,
      "note": 78,
      "start": 2.6041,
      "duration": 0.1732,
      "velocity": 95,
      "chip": "ym2612"
    },
    {
      "channel": 4,
      "note": 66,
      "start": 2.6054,
      "duration": 0.1725,
      "velocity": 97,
      "chip": "ym2612"
    },
    {
      "channel": 5,
      "note": 57,
      "start": 2.6092,
      "duration": 0.1223,
      "velocity": 115,
      "chip": "ym2612"
    },
    {
      "channel": 1,
      "note": 82,
      "start": 2.6349,
      "duration": 0.0786,
      "velocity": 95,
      "chip": "ym2612"
    },
    {
      "channel": 5,
      "note": 57,
      "start": 2.7321,
      "duration": 0.1145,
      "velocity": 117,
      "chip": "ym2612"
    },
    {
      "channel": 1,
      "note": 78,
      "start": 2.7461,
      "duration": 0.1737,
      "velocity": 95,
      "chip": "ym2612"
    },
    {
      "channel": 3,
      "note": 82,
      "start": 2.7629,
      "duration": 0.174,
      "velocity": 93,
      "chip": "ym2612"
    },
    {
      "channel": 0,
      "note": 78,
      "start": 2.8408,
      "duration": 0.2691,
      "velocity": 93,
      "chip": "ym2612"
    },
    {
      "channel": 2,
      "note": 78,
      "start": 2.8422,
      "duration": 0.0777,
      "velocity": 95,
      "chip": "ym2612"
    },
    {
      "channel": 4,
      "note": 54,
      "start": 2.8436,
      "duration": 0.1731,
      "velocity": 97,
      "chip": "ym2612"
    },
    {
      "channel": 5,
      "note": 54,
      "start": 2.8473,
      "duration": 0.1254,
      "velocity": 115,
      "chip": "ym2612"
    },
    {
      "channel": 2,
      "note": 73,
      "start": 2.9686,
      "duration": 0.0787,
      "velocity": 95,
      "chip": "ym2612"
    },
    {
      "channel": 5,
      "note": 57,
      "start": 2.9734,
      "duration": 0.108,
      "velocity": 115,
      "chip": "ym2612"
    },
    {
      "channel": 1,
      "note": 78,
      "start": 2.9841,
      "duration": 0.0786,
      "velocity": 95,
      "chip": "ym2612"
    },
    {
      "channel": 3,
      "note": 78,
      "start": 3.001,
      "duration": 0.269,
      "velocity": 93,
      "chip": "ym2612"
    },
    {
      "channel": 2,
      "note": 82,
      "start": 3.0798,
      "duration": 0.0786,
      "velocity": 95,
      "chip": "ym2612"
    },
    {
      "channel": 4,
      "note": 66,
      "start": 3.0812,
      "duration": 0.1736,
      "velocity": 97,
      "chip": "ym2612"
    },
    {
      "channel": 5,
      "note": 57,
      "start": 3.0821,
      "duration": 0.1264,
      "velocity": 115,
      "chip": "ym2612"
    },
    {
      "channel": 1,
      "note": 73,
      "start": 3.1107,
      "duration": 0.0789,
      "velocity": 95,
      "chip": "ym2612"
    },
    {
      "channel": 0,
      "note": 73,
      "start": 3.2058,
      "duration": 0.2692,
      "velocity": 93,
      "chip": "ym2612"
    },
    {
      "channel": 2,
      "note": 80,
      "start": 3.2073,
      "duration": 0.1735,
      "velocity": 95,
      "chip": "ym2612"
    },
    {
      "channel": 5,
      "note": 57,
      "start": 3.2092,
      "duration": 0.1127,
      "velocity": 127,
      "chip": "ym2612"
    },
    {
      "channel": 1,
      "note": 82,
      "start": 3.2221,
      "duration": 0.0787,
      "velocity": 95,
      "chip": "ym2612"
    },
    {
      "channel": 4,
      "note": 54,
      "start": 3.3189,
      "duration": 0.1741,
      "velocity": 97,
      "chip": "ym2612"
    },
    {
      "channel": 5,
      "note": 45,
      "start": 3.3227,
      "duration": 0.1237,
      "velocity": 127,
      "chip": "ym2612"
    },
    {
      "channel": 1,
      "note": 80,
      "start": 3.3493,
      "duration": 0.1738,
      "velocity": 95,
      "chip": "ym2612"
    },
    {
      "channel": 3,
      "note": 73,
      "start": 3.366,
      "duration": 0.2692,
      "velocity": 93,
      "chip": "ym2612"
    },
    {
      "channel": 2,
      "note": 82,
      "start": 3.445,
      "duration": 0.0783,
      "velocity": 95,
      "chip": "ym2612"
    },
    {
      "channel": 0,
      "note": 82,
      "start": 3.5551,
      "duration": 0.1739,
      "velocity": 93,
      "chip": "ym2612"
    },
    {
      "channel": 2,
      "note": 78,
      "start": 3.5566,
      "duration": 0.1732,
      "velocity": 95,
      "chip": "ym2612"
    },
    {
      "channel": 4,
      "note": 66,
      "start": 3.558,
      "duration": 0.1724,
      "velocity": 97,
      "chip": "ym2612"
    },
    {
      "channel": 5,
      "note": 57,
      "start": 3.5617,
      "duration": 0.1223,
      "velocity": 115,
      "chip": "ym2612"
    },
    {
      "channel": 1,
      "note": 82,
      "start": 3.5874,
      "duration": 0.0786,
      "velocity": 95,
      "chip": "ym2612"
    },
    {
      "channel": 5,
      "note": 57,
      "start": 3.6847,
      "duration": 0.1145,
      "velocity": 117,
      "chip": "ym2612"
    },
    {
      "channel": 1,
      "note": 78,
      "start": 3.6985,
      "duration": 0.1738,
      "velocity": 95,
      "chip": "ym2612"
    },
    {
      "channel": 3,
      "note": 82,
      "start": 3.7154,
      "duration": 0.1739,
      "velocity": 93,
      "chip": "ym2612"
    },
    {
      "channel": 0,
      "note": 83,
      "start": 3.7933,
      "duration": 0.269,
      "velocity": 93,
      "chip": "ym2612"
    },
    {
      "channel": 2,
      "note": 83,
      "start": 3.7948,
      "duration": 0.0777,
      "velocity": 95,
      "chip": "ym2612"
    },
    {
      "channel": 4,
      "note": 54,
      "start": 3.7961,
      "duration": 0.1731,
      "velocity": 97,
      "chip": "ym2612"
    },
    {
      "channel": 5,
      "note": 54,
      "start": 3.7999,
      "duration": 0.1254,
      "velocity": 115,
      "chip": "ym2612"
    },
    {
      "channel": 2,
      "note": 71,
      "start": 3.9212,
      "duration": 0.0786,
      "velocity": 95,
      "chip": "ym2612"
    },
    {
      "channel": 5,
      "note": 57,
      "start": 3.926,
      "duration": 0.108,
      "velocity": 115,
      "chip": "ym2612"
    },
    {
      "channel": 1,
      "note": 83,
      "start": 3.9367,
      "duration": 0.0785,
      "velocity": 95,
      "chip": "ym2612"
    },
    {
      "channel": 3,
      "note": 83,
      "start": 3.9535,
      "duration": 0.2691,
      "velocity": 93,
      "chip": "ym2612"
    },
    {
      "channel": 2,
      "note": 83,
      "start": 4.0323,
      "duration": 0.0786,
      "velocity": 95,
      "chip": "ym2612"
    },
    {
      "channel": 4,
      "note": 66,
      "start": 4.0337,
      "duration": 0.1737,
      "velocity": 97,
      "chip": "ym2612"
    },
    {
      "channel": 5,
      "note": 57,
      "start": 4.0347,
      "duration": 0.1259,
      "velocity": 115,
      "chip": "ym2612"
    },
    {
      "channel": 1,
      "note": 71,
      "start": 4.0632,
      "duration": 0.079,
      "velocity": 95,
      "chip": "ym2612"
    },
    {
      "channel": 0,
      "note": 82,
      "start": 4.1583,
      "duration": 0.2692,
      "velocity": 93,
      "chip": "ym2612"
    },
    {
      "channel": 5,
      "note": 57,
      "start": 4.1613,
      "duration": 0.1136,
      "velocity": 127,
      "chip": "ym2612"
    },
    {
      "channel": 1,
      "note": 83,
      "start": 4.1747,
      "duration": 0.0787,
      "velocity": 95,
      "chip": "ym2612"
    },
    {
      "channel": 2,
      "note": 83,
      "start": 4.2705,
      "duration": 0.0786,
      "velocity": 95,
      "chip": "ym2612"
    },
    {
      "channel": 4,
      "note": 54,
      "start": 4.2718,
      "duration": 0.1737,
      "velocity": 97,
      "chip": "ym2612"
    },
    {
      "channel": 5,
      "note": 45,
      "start": 4.2756,
      "duration": 0.1232,
      "velocity": 127,
      "chip": "ym2612"
    },
    {
      "channel": 3,
      "note": 82,
      "start": 4.3186,
      "duration": 0.2688,
      "velocity": 93,
      "chip": "ym2612"
    },
    {
      "channel": 2,
      "note": 82,
      "start": 4.3975,
      "duration": 0.0786,
      "velocity": 95,
      "chip": "ym2612"
    },
    {
      "channel": 1,
      "note": 83,
      "start": 4.4129,
      "duration": 0.0787,
      "velocity": 95,
      "chip": "ym2612"
    },
    {
      "channel": 0,
      "note": 80,
      "start": 4.5077,
      "duration": 0.3485,
      "velocity": 93,
      "chip": "ym2612"
    },
    {
      "channel": 2,
      "note": 83,
      "start": 4.509,
      "duration": 0.0782,
      "velocity": 95,
      "chip": "ym2612"
    },
    {
      "channel": 4,
      "note": 66,
      "start": 4.5104,
      "duration": 0.1732,
      "velocity": 97,
      "chip": "ym2612"
    },
    {
      "channel": 5,
      "note": 57,
      "start": 4.5142,
      "duration": 0.1226,
      "velocity": 115,
      "chip": "ym2612"
    },
    {
      "channel": 1,
      "note": 82,
      "start": 4.5398,
      "duration": 0.0787,
      "velocity": 95,
      "chip": "ym2612"
    },
    {
      "channel": 2,
      "note": 85,
      "start": 4.6356,
      "duration": 0.0786,
      "velocity": 95,
      "chip": "ym2612"
    },
    {
      "channel": 5,
      "note": 57,
      "start": 4.6375,
      "duration": 0.1136,
      "velocity": 117,
      "chip": "ym2612"
    },
    {
      "channel": 1,
      "note": 83,
      "start": 4.651,
      "duration": 0.0787,
      "velocity": 95,
      "chip": "ym2612"
    },
    {
      "channel": 3,
      "note": 80,
      "start": 4.6679,
      "duration": 0.3489,
      "velocity": 93,
      "chip": "ym2612"
    },
    {
      "channel": 2,
      "note": 87,
      "start": 4.7467,
      "duration": 0.0787,
      "velocity": 95,
      "chip": "ym2612"
    },
    {
      "channel": 4,
      "note": 54,
      "start": 4.748,
      "duration": 0.1737,
      "velocity": 97,
      "chip": "ym2612"
    },
    {
      "channel": 5,
      "note": 54,
      "start": 4.7518,
      "duration": 0.1259,
      "velocity": 115,
      "chip": "ym2612"
    },
    {
      "channel": 1,
      "note": 85,
      "start": 4.778,
      "duration": 0.0783,
      "velocity": 95,
      "chip": "ym2612"
    },
    {
      "channel": 2,
      "note": 73,
      "start": 4.8737,
      "duration": 0.0787,
      "velocity": 95,
      "chip": "ym2612"
    },
    {
      "channel": 5,
      "note": 57,
      "start": 4.8784,
      "duration": 0.1085,
      "velocity": 115,
      "chip": "ym2612"
    },
    {
      "channel": 1,
      "note": 87,
      "start": 4.889,
      "duration": 0.0787,
      "velocity": 95,
      "chip": "ym2612"
    },
    {
      "channel": 0,
      "note": 78,
      "start": 4.9839,
      "duration": 0.174,
      "velocity": 93,
      "chip": "ym2612"
    },
    {
      "channel": 2,
      "note": 83,
      "start": 4.9853,
      "duration": 0.0782,
      "velocity": 95,
      "chip": "ym2612"
    },
    {
      "channel": 4,
      "note": 66,
      "start": 4.9866,
      "duration": 0.1728,
      "velocity": 97,
      "chip": "ym2612"
    },
    {
      "channel": 5,
      "note": 57,
      "start": 4.9877,
      "duration": 0.1255,
      "velocity": 115,
      "chip": "ym2612"
    },
    {
      "channel": 1,
      "note": 73,
      "start": 5.0161,
      "duration": 0.0787,
      "velocity": 95,
      "chip": "ym2612"
    },
    {
      "channel": 2,
      "note": 82,
      "start": 5.1119,
      "duration": 0.0786,
      "velocity": 95,
      "chip": "ym2612"
    },
    {
      "channel": 5,
      "note": 57,
      "start": 5.1139,
      "duration": 0.1135,
      "velocity": 127,
      "chip": "ym2612"
    },
    {
      "channel": 1,
      "note": 83,
      "start": 5.1272,
      "duration": 0.0786,
      "velocity": 95,
      "chip": "ym2612"
    },
    {
      "channel": 3,
      "note": 78,
      "start": 5.1441,
      "duration": 0.1739,
      "velocity": 93,
      "chip": "ym2612"
    },
    {
      "channel": 0,
      "note": 77,
      "start": 5.222,
      "duration": 0.174,
      "velocity": 93,
      "chip": "ym2612"
    },
    {
      "channel": 4,
      "note": 54,
      "start": 5.2243,
      "duration": 0.1733,
      "velocity": 97,
      "chip": "ym2612"
    },
    {
      "channel": 5,
      "note": 45,
      "start": 5.2281,
      "duration": 0.1231,
      "velocity": 127,
      "chip": "ym2612"
    },
    {
      "channel": 1,
      "note": 82,
      "start": 5.2542,
      "duration": 0.0787,
      "velocity": 95,
      "chip": "ym2612"
    },
    {
      "channel": 2,
      "note": 82,
      "start": 5.3499,
      "duration": 0.0787,
      "velocity": 95,
      "chip": "ym2612"
    },
    {
      "channel": 3,
      "note": 77,
      "start": 5.3822,
      "duration": 0.1741,
      "velocity": 93,
      "chip": "ym2612"
    },
    {
      "channel": 0,
      "note": 75,
      "start": 5.4601,
      "duration": 0.174,
      "velocity": 93,
      "chip": "ym2612"
    },
    {
      "channel": 2,
      "note": 80,
      "start": 5.4616,
      "duration": 0.1732,
      "velocity": 95,
      "chip": "ym2612"
    },
    {
      "channel": 4,
      "note": 66,
      "start": 5.4629,
      "duration": 0.1725,
      "velocity": 97,
      "chip": "ym2612"
    },
    {
      "channel": 5,
      "note": 57,
      "start": 5.4667,
      "duration": 0.1223,
      "velocity": 115,
      "chip": "ym2612"
    },
    {
      "channel": 1,
      "note": 82,
      "start": 5.4924,
      "duration": 0.0786,
      "velocity": 95,
      "chip": "ym2612"
    },
    {
      "channel": 5,
      "note": 57,
      "start": 5.5897,
      "duration": 0.1145,
      "velocity": 117,
      "chip": "ym2612"
    },
    {
      "channel": 1,
      "note": 80,
      "start": 5.6036,
      "duration": 0.1738,
      "velocity": 95,
      "chip": "ym2612"
    },
    {
      "channel": 3,
      "note": 75,
      "start": 5.6203,
      "duration": 0.1741,
      "velocity": 93,
      "chip": "ym2612"
    },
    {
      "channel": 0,
      "note": 78,
      "start": 5.6983,
      "duration": 0.2691,
      "velocity": 93,
      "chip": "ym2612"
    },
    {
      "channel": 2,
      "note": 78,
      "start": 5.6998,
      "duration": 0.0778,
      "velocity": 95,
      "chip": "ym2612"
    },
    {
      "channel": 4,
      "note": 54,
      "start": 5.7011,
      "duration": 0.1731,
      "velocity": 97,
      "chip": "ym2612"
    },
    {
      "channel": 5,
      "note": 54,
      "start": 5.7049,
      "duration": 0.1254,
      "velocity": 115,
      "chip": "ym2612"
    },
    {
      "channel": 2,
      "note": 73,
      "start": 5.8262,
      "duration": 0.0786,
      "velocity": 95,
      "chip": "ym2612"
    },
    {
      "channel": 5,
      "note": 57,
      "start": 5.831,
      "duration": 0.108,
      "velocity": 115,
      "chip": "ym2612"
    },
    {
      "channel": 1,
      "note": 78,
      "start": 5.8417,
      "duration": 0.0786,
      "velocity": 95,
      "chip": "ym2612"
    },
    {
      "channel": 3,
      "note": 78,
      "start": 5.8585,
      "duration": 0.2691,
      "velocity": 93,
      "chip": "ym2612"
    },
    {
      "channel": 2,
      "note": 82,
      "start": 5.9373,
      "duration": 0.0786,
      "velocity": 95,
      "chip": "ym2612"
    },
    {
      "channel": 4,
      "note": 66,
      "start": 5.9387,
      "duration": 0.1737,
      "velocity": 97,
      "chip": "ym2612"
    },
    {
      "channel": 5,
      "note": 57,
      "start": 5.9397,
      "duration": 0.1263,
      "velocity": 115,
      "chip": "ym2612"
    },
    {
      "channel": 1,
      "note": 73,
      "start": 5.9683,
      "duration": 0.079,
      "velocity": 95,
      "chip": "ym2612"
    },
    {
      "channel": 0,
      "note": 73,
      "start": 6.0634,
      "duration": 0.2692,
      "velocity": 93,
      "chip": "ym2612"
    },
    {
      "channel": 2,
      "note": 80,
      "start": 6.0648,
      "duration": 0.1735,
      "velocity": 95,
      "chip": "ym2612"
    },
    {
      "channel": 5,
      "note": 57,
      "start": 6.0668,
      "duration": 0.1127,
      "velocity": 127,
      "chip": "ym2612"
    },
    {
      "channel": 1,
      "note": 82,
      "start": 6.0797,
      "duration": 0.0787,
      "velocity": 95,
      "chip": "ym2612"
    },
    {
      "channel": 4,
      "note": 54,
      "start": 6.1764,
      "duration": 0.1741,
      "velocity": 97,
      "chip": "ym2612"
    },
    {
      "channel": 5,
      "note": 45,
      "start": 6.1802,
      "duration": 0.1236,
      "velocity": 127,
      "chip": "ym2612"
    },
    {
      "channel": 1,
      "note": 80,
      "start": 6.2069,
      "duration": 0.1738,
      "velocity": 95,
      "chip": "ym2612"
    },
    {
      "channel": 3,
      "note": 73,
      "start": 6.2236,
      "duration": 0.2691,
      "velocity": 93,
      "chip": "ym2612"
    },
    {
      "channel": 2,
      "note": 82,
      "start": 6.3025,
      "duration": 0.0783,
      "velocity": 95,
      "chip": "ym2612"
    },
    {
      "channel": 0,
      "note": 82,
      "start": 6.4127,
      "duration": 0.174,
      "velocity": 93,
      "chip": "ym2612"
    },
    {
      "channel": 2,
      "note": 78,
      "start": 6.4141,
      "duration": 0.1732,
      "velocity": 95,
      "chip": "ym2612"
    },
    {
      "channel": 4,
      "note": 66,
      "start": 6.4155,
      "duration": 0.1725,
      "velocity": 97,
      "chip": "ym2612"
    },
    {
      "channel": 5,
      "note": 57,
      "start": 6.4193,
      "duration": 0.1222,
      "velocity": 115,
      "chip": "ym2612"
    },
    {
      "channel": 1,
      "note": 82,
      "start": 6.445,
      "duration": 0.0786,
      "velocity": 95,
      "chip": "ym2612"
    },
    {
      "channel": 5,
      "note": 57,
      "start": 6.5422,
      "duration": 0.1145,
      "velocity": 117,
      "chip": "ym2612"
    },
    {
      "channel": 1,
      "note": 78,
      "start": 6.5561,
      "duration": 0.1738,
      "velocity": 95,
      "chip": "ym2612"
    },
    {
      "channel": 3,
      "note": 82,
      "start": 6.573,
      "duration": 0.1739,
      "velocity": 93,
      "chip": "ym2612"
    },
    {
      "channel": 0,
      "note": 78,
      "start": 6.6508,
      "duration": 0.2692,
      "velocity": 93,
      "chip": "ym2612"
    },
    {
      "channel": 2,
      "note": 78,
      "start": 6.6523,
      "duration": 0.0778,
      "velocity": 95,
      "chip": "ym2612"
    },
    {
      "channel": 4,
      "note": 54,
      "start": 6.6536,
      "duration": 0.1732,
      "velocity": 97,
      "chip": "ym2612"
    },
    {
      "channel": 5,
      "note": 54,
      "start": 6.6574,
      "duration": 0.1255,
      "velocity": 115,
      "chip": "ym2612"
    },
    {
      "channel": 2,
      "note": 73,
      "start": 6.7788,
      "duration": 0.0786,
      "velocity": 95,
      "chip": "ym2612"
    },
    {
      "channel": 5,
      "note": 57,
      "start": 6.7835,
      "duration": 0.108,
      "velocity": 115,
      "chip": "ym2612"
    },
    {
      "channel": 1,
      "note": 78,
      "start": 6.7942,
      "duration": 0.0785,
      "velocity": 95,
      "chip": "ym2612"
    },
    {
      "channel": 3,
      "note": 78,
      "start": 6.8111,
      "duration": 0.269,
      "velocity": 93,
      "chip": "ym2612"
    },
    {
      "channel": 2,
      "note": 82,
      "start": 6.8899,
      "duration": 0.0786,
      "velocity": 95,
      "chip": "ym2612"
    },
    {
      "channel": 4,
      "note": 66,
      "start": 6.8912,
      "duration": 0.1737,
      "velocity": 97,
      "chip": "ym2612"
    },
    {
      "channel": 5,
      "note": 57,
      "start": 6.8922,
      "duration": 0.1263,
      "velocity": 115,
      "chip": "ym2612"
    },
    {
      "channel": 1,
      "note": 73,
      "start": 6.9208,
      "duration": 0.079,
      "velocity": 95,
      "chip": "ym2612"
    },
    {
      "channel": 0,
      "note": 73,
      "start": 7.0159,
      "duration": 0.2692,
      "velocity": 93,
      "chip": "ym2612"
    },
    {
      "channel": 2,
      "note": 80,
      "start": 7.0173,
      "duration": 0.1735,
      "velocity": 95,
      "chip": "ym2612"
    },
    {
      "channel": 5,
      "note": 57,
      "start": 7.0193,
      "duration": 0.1127,
      "velocity": 127,
      "chip": "ym2612"
    },
    {
      "channel": 1,
      "note": 82,
      "start": 7.0322,
      "duration": 0.0787,
      "velocity": 95,
      "chip": "ym2612"
    },
    {
      "channel": 4,
      "note": 54,
      "start": 7.129,
      "duration": 0.1741,
      "velocity": 97,
      "chip": "ym2612"
    },
    {
      "channel": 5,
      "note": 45,
      "start": 7.1328,
      "duration": 0.1236,
      "velocity": 127,
      "chip": "ym2612"
    },
    {
      "channel": 1,
      "note": 80,
      "start": 7.1593,
      "duration": 0.1738,
      "velocity": 95,
      "chip": "ym2612"
    },
    {
      "channel": 3,
      "note": 73,
      "start": 7.1761,
      "duration": 0.2692,
      "velocity": 93,
      "chip": "ym2612"
    },
    {
      "channel": 2,
      "note": 82,
      "start": 7.2551,
      "duration": 0.0783,
      "velocity": 95,
      "chip": "ym2612"
    },
    {
      "channel": 0,
      "note": 82,
      "start": 7.3652,
      "duration": 0.174,
      "velocity": 93,
      "chip": "ym2612"
    },
    {
      "channel": 2,
      "note": 78,
      "start": 7.3667,
      "duration": 0.1732,
      "velocity": 95,
      "chip": "ym2612"
    },
    {
      "channel": 4,
      "note": 66,
      "start": 7.368,
      "duration": 0.1724,
      "velocity": 97,
      "chip": "ym2612"
    },
    {
      "channel": 5,
      "note": 54,
      "start": 7.3717,
      "duration": 0.1223,
      "velocity": 122,
      "chip": "ym2612"
    },
    {
      "channel": 1,
      "note": 82,
      "start": 7.3975,
      "duration": 0.0785,
      "velocity": 95,
      "chip": "ym2612"
    },
    {
      "channel": 1,
      "note": 78,
      "start": 7.5086,
      "duration": 0.1738,
      "velocity": 95,
      "chip": "ym2612"
    },
    {
      "channel": 3,
      "note": 82,
      "start": 7.5254,
      "duration": 0.174,
      "velocity": 93,
      "chip": "ym2612"
    },
    {
      "channel": 0,
      "note": 83,
      "start": 7.6034,
      "duration": 0.2691,
      "velocity": 93,
      "chip": "ym2612"
    },
    {
      "channel": 2,
      "note": 83,
      "start": 7.6048,
      "duration": 0.0778,
      "velocity": 95,
      "chip": "ym2612"
    },
    {
      "channel": 4,
      "note": 51,
      "start": 7.6062,
      "duration": 0.1732,
      "velocity": 97,
      "chip": "ym2612"
    },
    {
      "channel": 5,
      "note": 54,
      "start": 7.6099,
      "duration": 0.1254,
      "velocity": 115,
      "chip": "ym2612"
    },
    {
      "channel": 2,
      "note": 71,
      "start": 7.7312,
      "duration": 0.0787,
      "velocity": 95,
      "chip": "ym2612"
    },
    {
      "channel": 5,
      "note": 57,
      "start": 7.736,
      "duration": 0.1108,
      "velocity": 122,
      "chip": "ym2612"
    },
    {
      "channel": 1,
      "note": 83,
      "start": 7.7468,
      "duration": 0.0785,
      "velocity": 95,
      "chip": "ym2612"
    },
    {
      "channel": 3,
      "note": 83,
      "start": 7.7636,
      "duration": 0.2691,
      "velocity": 93,
      "chip": "ym2612"
    },
    {
      "channel": 2,
      "note": 83,
      "start": 7.8424,
      "duration": 0.0787,
      "velocity": 95,
      "chip": "ym2612"
    },
    {
      "channel": 4,
      "note": 63,
      "start": 7.8438,
      "duration": 0.1736,
      "velocity": 97,
      "chip": "ym2612"
    },
    {
      "channel": 5,
      "note": 42,
      "start": 7.8475,
      "duration": 0.1259,
      "velocity": 115,
      "chip": "ym2612"
    },
    {
      "channel": 1,
      "note": 71,
      "start": 7.8734,
      "duration": 0.0789,
      "velocity": 95,
      "chip": "ym2612"
    },
    {
      "channel": 0,
      "note": 82,
      "start": 7.9685,
      "duration": 0.2691,
      "velocity": 93,
      "chip": "ym2612"
    },
    {
      "channel": 5,
      "note": 57,
      "start": 7.9742,
      "duration": 0.1107,
      "velocity": 122,
      "chip": "ym2612"
    },
    {
      "channel": 1,
      "note": 83,
      "start": 7.9848,
      "duration": 0.0786,
      "velocity": 95,
      "chip": "ym2612"
    },
    {
      "channel": 2,
      "note": 83,
      "start": 8.0805,
      "duration": 0.0786,
      "velocity": 95,
      "chip": "ym2612"
    },
    {
      "channel": 4,
      "note": 51,
      "start": 8.0819,
      "duration": 0.1737,
      "velocity": 97,
      "chip": "ym2612"
    },
    {
      "channel": 5,
      "note": 42,
      "start": 8.0856,
      "duration": 0.1232,
      "velocity": 122,
      "chip": "ym2612"
    },
    {
      "channel": 3,
      "note": 82,
      "start": 8.1287,
      "duration": 0.2688,
      "velocity": 93,
      "chip": "ym2612"
    },
    {
      "channel": 2,
      "note": 82,
      "start": 8.2075,
      "duration": 0.0787,
      "velocity": 95,
      "chip": "ym2612"
    },
    {
      "channel": 1,
      "note": 83,
      "start": 8.2229,
      "duration": 0.0788,
      "velocity": 95,
      "chip": "ym2612"
    },
    {
      "channel": 0,
      "note": 80,
      "start": 8.3178,
      "duration": 0.3485,
      "velocity": 93,
      "chip": "ym2612"
    },
    {
      "channel": 2,
      "note": 83,
      "start": 8.3191,
      "duration": 0.0782,
      "velocity": 95,
      "chip": "ym2612"
    },
    {
      "channel": 4,
      "note": 63,
      "start": 8.3205,
      "duration": 0.1732,
      "velocity": 97,
      "chip": "ym2612"
    },
    {
      "channel": 5,
      "note": 45,
      "start": 8.3242,
      "duration": 0.1227,
      "velocity": 127,
      "chip": "ym2612"
    },
    {
      "channel": 1,
      "note": 82,
      "start": 8.3499,
      "duration": 0.0786,
      "velocity": 95,
      "chip": "ym2612"
    },
    {
      "channel": 2,
      "note": 85,
      "start": 8.4457,
      "duration": 0.0786,
      "velocity": 95,
      "chip": "ym2612"
    },
    {
      "channel": 1,
      "note": 83,
      "start": 8.4611,
      "duration": 0.0786,
      "velocity": 95,
      "chip": "ym2612"
    },
    {
      "channel": 3,
      "note": 80,
      "start": 8.4779,
      "duration": 0.3485,
      "velocity": 93,
      "chip": "ym2612"
    },
    {
      "channel": 2,
      "note": 87,
      "start": 8.5568,
      "duration": 0.0787,
      "velocity": 95,
      "chip": "ym2612"
    },
    {
      "channel": 4,
      "note": 49,
      "start": 8.5581,
      "duration": 0.1736,
      "velocity": 97,
      "chip": "ym2612"
    },
    {
      "channel": 5,
      "note": 45,
      "start": 8.5591,
      "duration": 0.062,
      "velocity": 127,
      "chip": "ym2612"
    },
    {
      "channel": 1,
      "note": 85,
      "start": 8.588,
      "duration": 0.0784,
      "velocity": 95,
      "chip": "ym2612"
    },
    {
      "channel": 5,
      "note": 45,
      "start": 8.6219,
      "duration": 0.0631,
      "velocity": 127,
      "chip": "ym2612"
    },
    {
      "channel": 2,
      "note": 73,
      "start": 8.6837,
      "duration": 0.0788,
      "velocity": 95,
      "chip": "ym2612"
    },
    {
      "channel": 5,
      "note": 45,
      "start": 8.6858,
      "duration": 0.1113,
      "velocity": 127,
      "chip": "ym2612"
    },
    {
      "channel": 1,
      "note": 87,
      "start": 8.6992,
      "duration": 0.0787,
      "velocity": 95,
      "chip": "ym2612"
    },
    {
      "channel": 0,
      "note": 81,
      "start": 8.794,
      "duration": 0.0309,
      "velocity": 93,
      "chip": "ym2612"
    },
    {
      "channel": 2,
      "note": 83,
      "start": 8.7954,
      "duration": 0.0781,
      "velocity": 95,
      "chip": "ym2612"
    },
    {
      "channel": 4,
      "note": 61,
      "start": 8.7968,
      "duration": 0.1731,
      "velocity": 97,
      "chip": "ym2612"
    },
    {
      "channel": 1,
      "note": 73,
      "start": 8.8258,
      "duration": 0.079,
      "velocity": 95,
      "chip": "ym2612"
    },
    {
      "channel": 0,
      "note": 82,
      "start": 8.8575,
      "duration": 0.1262,
      "velocity": 93,
      "chip": "ym2612"
    },
    {
      "channel": 2,
      "note": 82,
      "start": 8.9219,
      "duration": 0.0787,
      "velocity": 95,
      "chip": "ym2612"
    },
    {
      "channel": 5,
      "note": 45,
      "start": 8.9239,
      "duration": 0.1108,
      "velocity": 127,
      "chip": "ym2612"
    },
    {
      "channel": 1,
      "note": 83,
      "start": 8.9373,
      "duration": 0.0786,
      "velocity": 95,
      "chip": "ym2612"
    },
    {
      "channel": 3,
      "note": 81,
      "start": 8.9543,
      "duration": 0.0306,
      "velocity": 93,
      "chip": "ym2612"
    },
    {
      "channel": 3,
      "note": 82,
      "start": 9.0174,
      "duration": 0.1262,
      "velocity": 93,
      "chip": "ym2612"
    },
    {
      "channel": 0,
      "note": 83,
      "start": 9.0321,
      "duration": 0.174,
      "velocity": 93,
      "chip": "ym2612"
    },
    {
      "channel": 4,
      "note": 49,
      "start": 9.0345,
      "duration": 0.1732,
      "velocity": 97,
      "chip": "ym2612"
    },
    {
      "channel": 5,
      "note": 45,
      "start": 9.0354,
      "duration": 0.1259,
      "velocity": 127,
      "chip": "ym2612"
    },
    {
      "channel": 1,
      "note": 82,
      "start": 9.0643,
      "duration": 0.0787,
      "velocity": 95,
      "chip": "ym2612"
    },
    {
      "channel": 2,
      "note": 82,
      "start": 9.16,
      "duration": 0.0786,
      "velocity": 95,
      "chip": "ym2612"
    },
    {
      "channel": 3,
      "note": 83,
      "start": 9.1924,
      "duration": 0.174,
      "velocity": 93,
      "chip": "ym2612"
    },
    {
      "channel": 0,
      "note": 85,
      "start": 9.2702,
      "duration": 0.1741,
      "velocity": 93,
      "chip": "ym2612"
    },
    {
      "channel": 2,
      "note": 80,
      "start": 9.2716,
      "duration": 0.1732,
      "velocity": 95,
      "chip": "ym2612"
    },
    {
      "channel": 4,
      "note": 61,
      "start": 9.273,
      "duration": 0.1726,
      "velocity": 97,
      "chip": "ym2612"
    },
    {
      "channel": 5,
      "note": 45,
      "start": 9.274,
      "duration": 0.1251,
      "velocity": 127,
      "chip": "ym2612"
    },
    {
      "channel": 1,
      "note": 82,
      "start": 9.3024,
      "duration": 0.0787,
      "velocity": 95,
      "chip": "ym2612"
    },
    {
      "channel": 1,
      "note": 80,
      "start": 9.4137,
      "duration": 0.1738,
      "velocity": 95,
      "chip": "ym2612"
    },
    {
      "channel": 3,
      "note": 85,
      "start": 9.4304,
      "duration": 0.174,
      "velocity": 93,
      "chip": "ym2612"
    },
    {
      "channel": 0,
      "note": 78,
      "start": 9.5084,
      "duration": 0.2691,
      "velocity": 93,
      "chip": "ym2612"
    },
    {
      "channel": 2,
      "note": 78,
      "start": 9.5099,
      "duration": 0.0778,
      "velocity": 95,
      "chip": "ym2612"
    },
    {
      "channel": 4,
      "note": 54,
      "start": 9.5113,
      "duration": 0.2683,
      "velocity": 97,
      "chip": "ym2612"
    },
    {
      "channel": 5,
      "note": 54,
      "start": 9.5151,
      "duration": 0.1253,
      "velocity": 115,
      "chip": "ym2612"
    },
    {
      "channel": 2,
      "note": 73,
      "start": 9.6363,
      "duration": 0.0787,
      "velocity": 95,
      "chip": "ym2612"
    },
    {
      "channel": 5,
      "note": 57,
      "start": 9.641,
      "duration": 0.1077,
      "velocity": 115,
      "chip": "ym2612"
    },
    {
      "channel": 1,
      "note": 78,
      "start": 9.6518,
      "duration": 0.0785,
      "velocity": 95,
      "chip": "ym2612"
    },
    {
      "channel": 3,
      "note": 78,
      "start": 9.6686,
      "duration": 0.269,
      "velocity": 93,
      "chip": "ym2612"
    },
    {
      "channel": 2,
      "note": 82,
      "start": 9.7475,
      "duration": 0.0786,
      "velocity": 95,
      "chip": "ym2612"
    },
    {
      "channel": 5,
      "note": 57,
      "start": 9.7494,
      "duration": 0.1272,
      "velocity": 115,
      "chip": "ym2612"
    },
    {
      "channel": 1,
      "note": 73,
      "start": 9.7784,
      "duration": 0.079,
      "velocity": 95,
      "chip": "ym2612"
    },
    {
      "channel": 0,
      "note": 73,
      "start": 9.8735,
      "duration": 0.2692,
      "velocity": 93,
      "chip": "ym2612"
    },
    {
      "channel": 2,
      "note": 80,
      "start": 9.8749,
      "duration": 0.1735,
      "velocity": 95,
      "chip": "ym2612"
    },
    {
      "channel": 4,
      "note": 66,
      "start": 9.8763,
      "duration": 0.0777,
      "velocity": 97,
      "chip": "ym2612"
    },
    {
      "channel": 5,
      "note": 57,
      "start": 9.8773,
      "duration": 0.1119,
      "velocity": 127,
      "chip": "ym2612"
    },
    {
      "channel": 1,
      "note": 82,
      "start": 9.8898,
      "duration": 0.0787,
      "velocity": 95,
      "chip": "ym2612"
    },
    {
      "channel": 5,
      "note": 45,
      "start": 9.99,
      "duration": 0.1244,
      "velocity": 127,
      "chip": "ym2612"
    },
    {
      "channel": 1,
      "note": 80,
      "start": 10.0169,
      "duration": 0.1739,
      "velocity": 95,
      "chip": "ym2612"
    },
    {
      "channel": 3,
      "note": 73,
      "start": 10.0337,
      "duration": 0.2692,
      "velocity": 93,
      "chip": "ym2612"
    },
    {
      "channel": 2,
      "note": 82,
      "start": 10.1127,
      "duration": 0.0782,
      "velocity": 95,
      "chip": "ym2612"
    },
    {
      "channel": 4,
      "note": 54,
      "start": 10.1141,
      "duration": 0.0775,
      "velocity": 97,
      "chip": "ym2612"
    },
    {
      "channel": 0,
      "note": 82,
      "start": 10.2228,
      "duration": 0.174,
      "velocity": 93,
      "chip": "ym2612"
    },
    {
      "channel": 2,
      "note": 78,
      "start": 10.2242,
      "duration": 0.1732,
      "velocity": 95,
      "chip": "ym2612"
    },
    {
      "channel": 5,
      "note": 57,
      "start": 10.229,
      "duration": 0.123,
      "velocity": 115,
      "chip": "ym2612"
    },
    {
      "channel": 1,
      "note": 82,
      "start": 10.255,
      "duration": 0.0785,
      "velocity": 95,
      "chip": "ym2612"
    },
    {
      "channel": 4,
      "note": 66,
      "start": 10.3517,
      "duration": 0.0787,
      "velocity": 97,
      "chip": "ym2612"
    },
    {
      "channel": 5,
      "note": 57,
      "start": 10.3527,
      "duration": 0.1142,
      "velocity": 117,
      "chip": "ym2612"
    },
    {
      "channel": 1,
      "note": 78,
      "start": 10.3662,
      "duration": 0.1738,
      "velocity": 95,
      "chip": "ym2612"
    },
    {
      "channel": 3,
      "note": 82,
      "start": 10.383,
      "duration": 0.174,
      "velocity": 93,
      "chip": "ym2612"
    },
    {
      "channel": 0,
      "note": 78,
      "start": 10.4609,
      "duration": 0.2691,
      "velocity": 93,
      "chip": "ym2612"
    },
    {
      "channel": 2,
      "note": 78,
      "start": 10.4624,
      "duration": 0.0777,
      "velocity": 95,
      "chip": "ym2612"
    },
    {
      "channel": 4,
      "note": 54,
      "start": 10.4639,
      "duration": 0.1729,
      "velocity": 97,
      "chip": "ym2612"
    },
    {
      "channel": 5,
      "note": 54,
      "start": 10.4676,
      "duration": 0.1253,
      "velocity": 115,
      "chip": "ym2612"
    },
    {
      "channel": 2,
      "note": 73,
      "start": 10.5888,
      "duration": 0.0787,
      "velocity": 95,
      "chip": "ym2612"
    },
    {
      "channel": 5,
      "note": 57,
      "start": 10.5936,
      "duration": 0.108,
      "velocity": 115,
      "chip": "ym2612"
    },
    {
      "channel": 1,
      "note": 78,
      "start": 10.6043,
      "duration": 0.0785,
      "velocity": 95,
      "chip": "ym2612"
    },
    {
      "channel": 3,
      "note": 78,
      "start": 10.6212,
      "duration": 0.269,
      "velocity": 93,
      "chip": "ym2612"
    },
    {
      "channel": 2,
      "note": 82,
      "start": 10.7,
      "duration": 0.0786,
      "velocity": 95,
      "chip": "ym2612"
    },
    {
      "channel": 4,
      "note": 54,
      "start": 10.7013,
      "duration": 0.1736,
      "velocity": 97,
      "chip": "ym2612"
    },
    {
      "channel": 5,
      "note": 57,
      "start": 10.7023,
      "duration": 0.1265,
      "velocity": 115,
      "chip": "ym2612"
    },
    {
      "channel": 1,
      "note": 73,
      "start": 10.7309,
      "duration": 0.079,
      "velocity": 95,
      "chip": "ym2612"
    },
    {
      "channel": 0,
      "note": 73,
      "start": 10.826,
      "duration": 0.2692,
      "velocity": 93,
      "chip": "ym2612"
    },
    {
      "channel": 2,
      "note": 80,
      "start": 10.8274,
      "duration": 0.1735,
      "velocity": 95,
      "chip": "ym2612"
    },
    {
      "channel": 5,
      "note": 57,
      "start": 10.8295,
      "duration": 0.1127,
      "velocity": 127,
      "chip": "ym2612"
    },
    {
      "channel": 1,
      "note": 82,
      "start": 10.8423,
      "duration": 0.0788,
      "velocity": 95,
      "chip": "ym2612"
    },
    {
      "channel": 4,
      "note": 66,
      "start": 10.939,
      "duration": 0.1741,
      "velocity": 97,
      "chip": "ym2612"
    },
    {
      "channel": 5,
      "note": 45,
      "start": 10.9429,
      "duration": 0.1235,
      "velocity": 127,
      "chip": "ym2612"
    },
    {
      "channel": 1,
      "note": 80,
      "start": 10.9695,
      "duration": 0.1738,
      "velocity": 95,
      "chip": "ym2612"
    },
    {
      "channel": 3,
      "note": 73,
      "start": 10.9862,
      "duration": 0.2692,
      "velocity": 93,
      "chip": "ym2612"
    },
    {
      "channel": 2,
      "note": 82,
      "start": 11.0652,
      "duration": 0.0783,
      "velocity": 95,
      "chip": "ym2612"
    },
    {
      "channel": 0,
      "note": 82,
      "start": 11.1753,
      "duration": 0.1739,
      "velocity": 93,
      "chip": "ym2612"
    },
    {
      "channel": 2,
      "note": 78,
      "start": 11.1768,
      "duration": 0.1731,
      "velocity": 95,
      "chip": "ym2612"
    },
    {
      "channel": 4,
      "note": 54,
      "start": 11.1782,
      "duration": 0.0773,
      "velocity": 97,
      "chip": "ym2612"
    },
    {
      "channel": 5,
      "note": 57,
      "start": 11.182,
      "duration": 0.1224,
      "velocity": 115,
      "chip": "ym2612"
    },
    {
      "channel": 1,
      "note": 82,
      "start": 11.2076,
      "duration": 0.0785,
      "velocity": 95,
      "chip": "ym2612"
    },
    {
      "channel": 4,
      "note": 54,
      "start": 11.3042,
      "duration": 0.0786,
      "velocity": 97,
      "chip": "ym2612"
    },
    {
      "channel": 5,
      "note": 57,
      "start": 11.3052,
      "duration": 0.1142,
      "velocity": 117,
      "chip": "ym2612"
    },
    {
      "channel": 1,
      "note": 78,
      "start": 11.3187,
      "duration": 0.1738,
      "velocity": 95,
      "chip": "ym2612"
    },
    {
      "channel": 3,
      "note": 82,
      "start": 11.3356,
      "duration": 0.1739,
      "velocity": 93,
      "chip": "ym2612"
    },
    {
      "channel": 0,
      "note": 83,
      "start": 11.4135,
      "duration": 0.2691,
      "velocity": 93,
      "chip": "ym2612"
    },
    {
      "channel": 2,
      "note": 83,
      "start": 11.4149,
      "duration": 0.0778,
      "velocity": 95,
      "chip": "ym2612"
    },
    {
      "channel": 4,
      "note": 59,
      "start": 11.4163,
      "duration": 0.2682,
      "velocity": 97,
      "chip": "ym2612"
    },
    {
      "channel": 5,
      "note": 54,
      "start": 11.4201,
      "duration": 0.1253,
      "velocity": 115,
      "chip": "ym2612"
    },
    {
      "channel": 2,
      "note": 71,
      "start": 11.5413,
      "duration": 0.0786,
      "velocity": 95,
      "chip": "ym2612"
    },
    {
      "channel": 5,
      "note": 57,
      "start": 11.5461,
      "duration": 0.1076,
      "velocity": 115,
      "chip": "ym2612"
    },
    {
      "channel": 1,
      "note": 83,
      "start": 11.5569,
      "duration": 0.0786,
      "velocity": 95,
      "chip": "ym2612"
    },
    {
      "channel": 3,
      "note": 83,
      "start": 11.5737,
      "duration": 0.2691,
      "velocity": 93,
      "chip": "ym2612"
    },
    {
      "channel": 2,
      "note": 83,
      "start": 11.6525,
      "duration": 0.0786,
      "velocity": 95,
      "chip": "ym2612"
    },
    {
      "channel": 5,
      "note": 57,
      "start": 11.6544,
      "duration": 0.1267,
      "velocity": 115,
      "chip": "ym2612"
    },
    {
      "channel": 1,
      "note": 71,
      "start": 11.6834,
      "duration": 0.079,
      "velocity": 95,
      "chip": "ym2612"
    },
    {
      "channel": 0,
      "note": 82,
      "start": 11.7785,
      "duration": 0.2692,
      "velocity": 93,
      "chip": "ym2612"
    },
    {
      "channel": 4,
      "note": 71,
      "start": 11.7809,
      "duration": 0.0782,
      "velocity": 97,
      "chip": "ym2612"
    },
    {
      "channel": 5,
      "note": 57,
      "start": 11.7819,
      "duration": 0.1128,
      "velocity": 127,
      "chip": "ym2612"
    },
    {
      "channel": 1,
      "note": 83,
      "start": 11.7949,
      "duration": 0.0786,
      "velocity": 95,
      "chip": "ym2612"
    },
    {
      "channel": 2,
      "note": 83,
      "start": 11.8907,
      "duration": 0.0786,
      "velocity": 95,
      "chip": "ym2612"
    },
    {
      "channel": 5,
      "note": 45,
      "start": 11.8954,
      "duration": 0.1238,
      "velocity": 127,
      "chip": "ym2612"
    },
    {
      "channel": 3,
      "note": 82,
      "start": 11.9387,
      "duration": 0.2688,
      "velocity": 93,
      "chip": "ym2612"
    },
    {
      "channel": 2,
      "note": 82,
      "start": 12.0176,
      "duration": 0.0786,
      "velocity": 95,
      "chip": "ym2612"
    },
    {
      "channel": 4,
      "note": 59,
      "start": 12.019,
      "duration": 0.0779,
      "velocity": 97,
      "chip": "ym2612"
    },
    {
      "channel": 1,
      "note": 83,
      "start": 12.033,
      "duration": 0.0787,
      "velocity": 95,
      "chip": "ym2612"
    },
    {
      "channel": 0,
      "note": 80,
      "start": 12.1279,
      "duration": 0.3485,
      "velocity": 93,
      "chip": "ym2612"
    },
    {
      "channel": 2,
      "note": 83,
      "start": 12.1292,
      "duration": 0.0782,
      "velocity": 95,
      "chip": "ym2612"
    },
    {
      "channel": 5,
      "note": 57,
      "start": 12.134,
      "duration": 0.1234,
      "velocity": 115,
      "chip": "ym2612"
    },
    {
      "channel": 1,
      "note": 82,
      "start": 12.16,
      "duration": 0.0787,
      "velocity": 95,
      "chip": "ym2612"
    },
    {
      "channel": 2,
      "note": 85,
      "start": 12.2557,
      "duration": 0.0787,
      "velocity": 95,
      "chip": "ym2612"
    },
    {
      "channel": 4,
      "note": 71,
      "start": 12.2571,
      "duration": 0.0779,
      "velocity": 97,
      "chip": "ym2612"
    },
    {
      "channel": 5,
      "note": 57,
      "start": 12.2581,
      "duration": 0.1132,
      "velocity": 117,
      "chip": "ym2612"
    },
    {
      "channel": 1,
      "note": 83,
      "start": 12.2711,
      "duration": 0.0786,
      "velocity": 95,
      "chip": "ym2612"
    },
    {
      "channel": 3,
      "note": 80,
      "start": 12.288,
      "duration": 0.3488,
      "velocity": 93,
      "chip": "ym2612"
    },
    {
      "channel": 2,
      "note": 87,
      "start": 12.3668,
      "duration": 0.0787,
      "velocity": 95,
      "chip": "ym2612"
    },
    {
      "channel": 4,
      "note": 61,
      "start": 12.3683,
      "duration": 0.1735,
      "velocity": 97,
      "chip": "ym2612"
    },
    {
      "channel": 5,
      "note": 54,
      "start": 12.3721,
      "duration": 0.1258,
      "velocity": 115,
      "chip": "ym2612"
    },
    {
      "channel": 1,
      "note": 85,
      "start": 12.3982,
      "duration": 0.0783,
      "velocity": 95,
      "chip": "ym2612"
    },
    {
      "channel": 2,
      "note": 73,
      "start": 12.4938,
      "duration": 0.0787,
      "velocity": 95,
      "chip": "ym2612"
    },
    {
      "channel": 5,
      "note": 57,
      "start": 12.4987,
      "duration": 0.1085,
      "velocity": 115,
      "chip": "ym2612"
    },
    {
      "channel": 1,
      "note": 87,
      "start": 12.5092,
      "duration": 0.0787,
      "velocity": 95,
      "chip": "ym2612"
    },
    {
      "channel": 0,
      "note": 78,
      "start": 12.6041,
      "duration": 0.1741,
      "velocity": 93,
      "chip": "ym2612"
    },
    {
      "channel": 2,
      "note": 83,
      "start": 12.6055,
      "duration": 0.0782,
      "velocity": 95,
      "chip": "ym2612"
    },
    {
      "channel": 4,
      "note": 61,
      "start": 12.6068,
      "duration": 0.1729,
      "velocity": 97,
      "chip": "ym2612"
    },
    {
      "channel": 5,
      "note": 57,
      "start": 12.6078,
      "duration": 0.1254,
      "velocity": 115,
      "chip": "ym2612"
    },
    {
      "channel": 1,
      "note": 73,
      "start": 12.6363,
      "duration": 0.0787,
      "velocity": 95,
      "chip": "ym2612"
    },
    {
      "channel": 2,
      "note": 82,
      "start": 12.732,
      "duration": 0.0787,
      "velocity": 95,
      "chip": "ym2612"
    },
    {
      "channel": 5,
      "note": 57,
      "start": 12.734,
      "duration": 0.1135,
      "velocity": 127,
      "chip": "ym2612"
    },
    {
      "channel": 1,
      "note": 83,
      "start": 12.7474,
      "duration": 0.0787,
      "velocity": 95,
      "chip": "ym2612"
    },
    {
      "channel": 3,
      "note": 78,
      "start": 12.7643,
      "duration": 0.1739,
      "velocity": 93,
      "chip": "ym2612"
    },
    {
      "channel": 0,
      "note": 77,
      "start": 12.8421,
      "duration": 0.1741,
      "velocity": 93,
      "chip": "ym2612"
    },
    {
      "channel": 4,
      "note": 73,
      "start": 12.8445,
      "duration": 0.1733,
      "velocity": 97,
      "chip": "ym2612"
    },
    {
      "channel": 5,
      "note": 45,
      "start": 12.8483,
      "duration": 0.1231,
      "velocity": 127,
      "chip": "ym2612"
    },
    {
      "channel": 1,
      "note": 82,
      "start": 12.8744,
      "duration": 0.0787,
      "velocity": 95,
      "chip": "ym2612"
    },
    {
      "channel": 2,
      "note": 82,
      "start": 12.9701,
      "duration": 0.0787,
      "velocity": 95,
      "chip": "ym2612"
    },
    {
      "channel": 3,
      "note": 77,
      "start": 13.0024,
      "duration": 0.174,
      "velocity": 93,
      "chip": "ym2612"
    },
    {
      "channel": 0,
      "note": 75,
      "start": 13.0803,
      "duration": 0.1741,
      "velocity": 93,
      "chip": "ym2612"
    },
    {
      "channel": 2,
      "note": 80,
      "start": 13.0817,
      "duration": 0.1733,
      "velocity": 95,
      "chip": "ym2612"
    },
    {
      "channel": 4,
      "note": 70,
      "start": 13.0832,
      "duration": 0.0777,
      "velocity": 97,
      "chip": "ym2612"
    },
    {
      "channel": 5,
      "note": 57,
      "start": 13.087,
      "duration": 0.1225,
      "velocity": 115,
      "chip": "ym2612"
    },
    {
      "channel": 1,
      "note": 82,
      "start": 13.1125,
      "duration": 0.0787,
      "velocity": 95,
      "chip": "ym2612"
    },
    {
      "channel": 4,
      "note": 68,
      "start": 13.2092,
      "duration": 0.0786,
      "velocity": 97,
      "chip": "ym2612"
    },
    {
      "channel": 5,
      "note": 57,
      "start": 13.2102,
      "duration": 0.1142,
      "velocity": 117,
      "chip": "ym2612"
    },
    {
      "channel": 1,
      "note": 80,
      "start": 13.2237,
      "duration": 0.1738,
      "velocity": 95,
      "chip": "ym2612"
    },
    {
      "channel": 3,
      "note": 75,
      "start": 13.2405,
      "duration": 0.174,
      "velocity": 93,
      "chip": "ym2612"
    },
    {
      "channel": 0,
      "note": 78,
      "start": 13.3185,
      "duration": 0.2691,
      "velocity": 93,
      "chip": "ym2612"
    },
    {
      "channel": 2,
      "note": 78,
      "start": 13.3199,
      "duration": 0.0778,
      "velocity": 95,
      "chip": "ym2612"
    },
    {
      "channel": 4,
      "note": 66,
      "start": 13.3214,
      "duration": 0.1731,
      "velocity": 97,
      "chip": "ym2612"
    },
    {
      "channel": 5,
      "note": 54,
      "start": 13.3251,
      "duration": 0.1253,
      "velocity": 115,
      "chip": "ym2612"
    },
    {
      "channel": 2,
      "note": 73,
      "start": 13.4464,
      "duration": 0.0787,
      "velocity": 95,
      "chip": "ym2612"
    },
    {
      "channel": 5,
      "note": 57,
      "start": 13.4511,
      "duration": 0.1081,
      "velocity": 115,
      "chip": "ym2612"
    },
    {
      "channel": 1,
      "note": 78,
      "start": 13.4619,
      "duration": 0.0785,
      "velocity": 95,
      "chip": "ym2612"
    },
    {
      "channel": 3,
      "note": 78,
      "start": 13.4787,
      "duration": 0.2691,
      "velocity": 93,
      "chip": "ym2612"
    },
    {
      "channel": 2,
      "note": 82,
      "start": 13.5575,
      "duration": 0.0786,
      "velocity": 95,
      "chip": "ym2612"
    },
    {
      "channel": 4,
      "note": 54,
      "start": 13.559,
      "duration": 0.0778,
      "velocity": 97,
      "chip": "ym2612"
    },
    {
      "channel": 5,
      "note": 57,
      "start": 13.5599,
      "duration": 0.1266,
      "velocity": 115,
      "chip": "ym2612"
    },
    {
      "channel": 1,
      "note": 73,
      "start": 13.5885,
      "duration": 0.079,
      "velocity": 95,
      "chip": "ym2612"
    },
    {
      "channel": 0,
      "note": 73,
      "start": 13.6835,
      "duration": 0.2692,
      "velocity": 93,
      "chip": "ym2612"
    },
    {
      "channel": 2,
      "note": 80,
      "start": 13.6849,
      "duration": 0.1735,
      "velocity": 95,
      "chip": "ym2612"
    },
    {
      "channel": 4,
      "note": 66,
      "start": 13.6863,
      "duration": 0.0778,
      "velocity": 97,
      "chip": "ym2612"
    },
    {
      "channel": 5,
      "note": 57,
      "start": 13.6873,
      "duration": 0.112,
      "velocity": 127,
      "chip": "ym2612"
    },
    {
      "channel": 1,
      "note": 82,
      "start": 13.6999,
      "duration": 0.0788,
      "velocity": 95,
      "chip": "ym2612"
    },
    {
      "channel": 5,
      "note": 45,
      "start": 13.8001,
      "duration": 0.1243,
      "velocity": 127,
      "chip": "ym2612"
    },
    {
      "channel": 1,
      "note": 80,
      "start": 13.827,
      "duration": 0.1738,
      "velocity": 95,
      "chip": "ym2612"
    },
    {
      "channel": 3,
      "note": 73,
      "start": 13.8438,
      "duration": 0.2691,
      "velocity": 93,
      "chip": "ym2612"
    },
    {
      "channel": 2,
      "note": 82,
      "start": 13.9228,
      "duration": 0.0782,
      "velocity": 95,
      "chip": "ym2612"
    },
    {
      "channel": 4,
      "note": 54,
      "start": 13.9241,
      "duration": 0.0775,
      "velocity": 97,
      "chip": "ym2612"
    },
    {
      "channel": 0,
      "note": 82,
      "start": 14.0329,
      "duration": 0.174,
      "velocity": 93,
      "chip": "ym2612"
    },
    {
      "channel": 2,
      "note": 78,
      "start": 14.0344,
      "duration": 0.1732,
      "velocity": 95,
      "chip": "ym2612"
    },
    {
      "channel": 5,
      "note": 57,
      "start": 14.0391,
      "duration": 0.1229,
      "velocity": 115,
      "chip": "ym2612"
    },
    {
      "channel": 1,
      "note": 82,
      "start": 14.0651,
      "duration": 0.0785,
      "velocity": 95,
      "chip": "ym2612"
    },
    {
      "channel": 4,
      "note": 66,
      "start": 14.1618,
      "duration": 0.0786,
      "velocity": 97,
      "chip": "ym2612"
    },
    {
      "channel": 5,
      "note": 57,
      "start": 14.1628,
      "duration": 0.1142,
      "velocity": 117,
      "chip": "ym2612"
    },
    {
      "channel": 1,
      "note": 78,
      "start": 14.1763,
      "duration": 0.1738,
      "velocity": 95,
      "chip": "ym2612"
    },
    {
      "channel": 3,
      "note": 82,
      "start": 14.1931,
      "duration": 0.1739,
      "velocity": 93,
      "chip": "ym2612"
    },
    {
      "channel": 0,
      "note": 78,
      "start": 14.271,
      "duration": 0.2691,
      "velocity": 93,
      "chip": "ym2612"
    },
    {
      "channel": 2,
      "note": 78,
      "start": 14.2724,
      "duration": 0.0778,
      "velocity": 95,
      "chip": "ym2612"
    },
    {
      "channel": 4,
      "note": 54,
      "start": 14.2739,
      "duration": 0.173,
      "velocity": 97,
      "chip": "ym2612"
    },
    {
      "channel": 5,
      "note": 54,
      "start": 14.2777,
      "duration": 0.1253,
      "velocity": 115,
      "chip": "ym2612"
    },
    {
      "channel": 2,
      "note": 73,
      "start": 14.3989,
      "duration": 0.0786,
      "velocity": 95,
      "chip": "ym2612"
    },
    {
      "channel": 5,
      "note": 57,
      "start": 14.4037,
      "duration": 0.108,
      "velocity": 115,
      "chip": "ym2612"
    },
    {
      "channel": 1,
      "note": 78,
      "start": 14.4144,
      "duration": 0.0785,
      "velocity": 95,
      "chip": "ym2612"
    },
    {
      "channel": 3,
      "note": 78,
      "start": 14.4312,
      "duration": 0.2691,
      "velocity": 93,
      "chip": "ym2612"
    },
    {
      "channel": 2,
      "note": 82,
      "start": 14.51,
      "duration": 0.0786,
      "velocity": 95,
      "chip": "ym2612"
    },
    {
      "channel": 4,
      "note": 54,
      "start": 14.5114,
      "duration": 0.1737,
      "velocity": 97,
      "chip": "ym2612"
    },
    {
      "channel": 5,
      "note": 57,
      "start": 14.5124,
      "duration": 0.1263,
      "velocity": 115,
      "chip": "ym2612"
    },
    {
      "channel": 1,
      "note": 73,
      "start": 14.541,
      "duration": 0.079,
      "velocity": 95,
      "chip": "ym2612"
    },
    {
      "channel": 0,
      "note": 73,
      "start": 14.6361,
      "duration": 0.2691,
      "velocity": 93,
      "chip": "ym2612"
    },
    {
      "channel": 2,
      "note": 80,
      "start": 14.6375,
      "duration": 0.1735,
      "velocity": 95,
      "chip": "ym2612"
    },
    {
      "channel": 5,
      "note": 57,
      "start": 14.6395,
      "duration": 0.1127,
      "velocity": 127,
      "chip": "ym2612"
    },
    {
      "channel": 1,
      "note": 82,
      "start": 14.6524,
      "duration": 0.0787,
      "velocity": 95,
      "chip": "ym2612"
    },
    {
      "channel": 4,
      "note": 66,
      "start": 14.7491,
      "duration": 0.174,
      "velocity": 97,
      "chip": "ym2612"
    },
    {
      "channel": 5,
      "note": 45,
      "start": 14.7529,
      "duration": 0.1236,
      "velocity": 127,
      "chip": "ym2612"
    },
    {
      "channel": 1,
      "note": 80,
      "start": 14.7795,
      "duration": 0.1738,
      "velocity": 95,
      "chip": "ym2612"
    },
    {
      "channel": 3,
      "note": 73,
      "start": 14.7963,
      "duration": 0.2692,
      "velocity": 93,
      "chip": "ym2612"
    },
    {
      "channel": 2,
      "note": 82,
      "start": 14.8753,
      "duration": 0.0782,
      "velocity": 95,
      "chip": "ym2612"
    },
    {
      "channel": 0,
      "note": 82,
      "start": 14.9854,
      "duration": 0.1739,
      "velocity": 93,
      "chip": "ym2612"
    },
    {
      "channel": 2,
      "note": 78,
      "start": 14.9868,
      "duration": 0.1732,
      "velocity": 95,
      "chip": "ym2612"
    },
    {
      "channel": 4,
      "note": 54,
      "start": 14.9883,
      "duration": 0.0773,
      "velocity": 97,
      "chip": "ym2612"
    },
    {
      "channel": 5,
      "note": 54,
      "start": 14.992,
      "duration": 0.1225,
      "velocity": 122,
      "chip": "ym2612"
    },
    {
      "channel": 1,
      "note": 82,
      "start": 15.0177,
      "duration": 0.0785,
      "velocity": 95,
      "chip": "ym2612"
    },
    {
      "channel": 4,
      "note": 54,
      "start": 15.1142,
      "duration": 0.0787,
      "velocity": 97,
      "chip": "ym2612"
    },
    {
      "channel": 1,
      "note": 78,
      "start": 15.1288,
      "duration": 0.1738,
      "velocity": 95,
      "chip": "ym2612"
    },
    {
      "channel": 3,
      "note": 82,
      "start": 15.1456,
      "duration": 0.174,
      "velocity": 93,
      "chip": "ym2612"
    },
    {
      "channel": 0,
      "note": 83,
      "start": 15.2235,
      "duration": 0.2691,
      "velocity": 93,
      "chip": "ym2612"
    },
    {
      "channel": 2,
      "note": 83,
      "start": 15.225,
      "duration": 0.0778,
      "velocity": 95,
      "chip": "ym2612"
    },
    {
      "channel": 4,
      "note": 59,
      "start": 15.2265,
      "duration": 0.2682,
      "velocity": 97,
      "chip": "ym2612"
    },
    {
      "channel": 5,
      "note": 54,
      "start": 15.2302,
      "duration": 0.1253,
      "velocity": 115,
      "chip": "ym2612"
    },
    {
      "channel": 2,
      "note": 71,
      "start": 15.3514,
      "duration": 0.0787,
      "velocity": 95,
      "chip": "ym2612"
    },
    {
      "channel": 5,
      "note": 57,
      "start": 15.3562,
      "duration": 0.1105,
      "velocity": 122,
      "chip": "ym2612"
    },
    {
      "channel": 1,
      "note": 83,
      "start": 15.3669,
      "duration": 0.0786,
      "velocity": 95,
      "chip": "ym2612"
    },
    {
      "channel": 3,
      "note": 83,
      "start": 15.3838,
      "duration": 0.2691,
      "velocity": 93,
      "chip": "ym2612"
    },
    {
      "channel": 2,
      "note": 83,
      "start": 15.4626,
      "duration": 0.0786,
      "velocity": 95,
      "chip": "ym2612"
    },
    {
      "channel": 5,
      "note": 42,
      "start": 15.4674,
      "duration": 0.1267,
      "velocity": 115,
      "chip": "ym2612"
    },
    {
      "channel": 1,
      "note": 71,
      "start": 15.4935,
      "duration": 0.079,
      "velocity": 95,
      "chip": "ym2612"
    },
    {
      "channel": 0,
      "note": 82,
      "start": 15.5886,
      "duration": 0.2691,
      "velocity": 93,
      "chip": "ym2612"
    },
    {
      "channel": 4,
      "note": 71,
      "start": 15.591,
      "duration": 0.0782,
      "velocity": 97,
      "chip": "ym2612"
    },
    {
      "channel": 5,
      "note": 57,
      "start": 15.5949,
      "duration": 0.1099,
      "velocity": 122,
      "chip": "ym2612"
    },
    {
      "channel": 1,
      "note": 83,
      "start": 15.605,
      "duration": 0.0787,
      "velocity": 95,
      "chip": "ym2612"
    },
    {
      "channel": 2,
      "note": 83,
      "start": 15.7007,
      "duration": 0.0786,
      "velocity": 95,
      "chip": "ym2612"
    },
    {
      "channel": 5,
      "note": 42,
      "start": 15.7055,
      "duration": 0.1239,
      "velocity": 122,
      "chip": "ym2612"
    },
    {
      "channel": 3,
      "note": 82,
      "start": 15.7488,
      "duration": 0.2688,
      "velocity": 93,
      "chip": "ym2612"
    },
    {
      "channel": 2,
      "note": 82,
      "start": 15.8277,
      "duration": 0.0787,
      "velocity": 95,
      "chip": "ym2612"
    },
    {
      "channel": 4,
      "note": 59,
      "start": 15.8291,
      "duration": 0.0779,
      "velocity": 97,
      "chip": "ym2612"
    },
    {
      "channel": 1,
      "note": 83,
      "start": 15.8431,
      "duration": 0.0786,
      "velocity": 95,
      "chip": "ym2612"
    },
    {
      "channel": 0,
      "note": 80,
      "start": 15.9379,
      "duration": 0.3485,
      "velocity": 93,
      "chip": "ym2612"
    },
    {
      "channel": 2,
      "note": 83,
      "start": 15.9393,
      "duration": 0.0782,
      "velocity": 95,
      "chip": "ym2612"
    },
    {
      "channel": 5,
      "note": 45,
      "start": 15.944,
      "duration": 0.1235,
      "velocity": 127,
      "chip": "ym2612"
    },
    {
      "channel": 1,
      "note": 82,
      "start": 15.9701,
      "duration": 0.0787,
      "velocity": 95,
      "chip": "ym2612"
    },
    {
      "channel": 2,
      "note": 85,
      "start": 16.0658,
      "duration": 0.0786,
      "velocity": 95,
      "chip": "ym2612"
    },
    {
      "channel": 4,
      "note": 71,
      "start": 16.0672,
      "duration": 0.0779,
      "velocity": 97,
      "chip": "ym2612"
    },
    {
      "channel": 1,
      "note": 83,
      "start": 16.0812,
      "duration": 0.0786,
      "velocity": 95,
      "chip": "ym2612"
    },
    {
      "channel": 3,
      "note": 80,
      "start": 16.0982,
      "duration": 0.3485,
      "velocity": 93,
      "chip": "ym2612"
    },
    {
      "channel": 2,
      "note": 87,
      "start": 16.177,
      "duration": 0.0787,
      "velocity": 95,
      "chip": "ym2612"
    },
    {
      "channel": 4,
      "note": 61,
      "start": 16.1784,
      "duration": 0.1735,
      "velocity": 97,
      "chip": "ym2612"
    },
    {
      "channel": 5,
      "note": 45,
      "start": 16.1795,
      "duration": 0.0618,
      "velocity": 127,
      "chip": "ym2612"
    },
    {
      "channel": 1,
      "note": 85,
      "start": 16.2082,
      "duration": 0.0784,
      "velocity": 95,
      "chip": "ym2612"
    },
    {
      "channel": 5,
      "note": 45,
      "start": 16.242,
      "duration": 0.0632,
      "velocity": 127,
      "chip": "ym2612"
    },
    {
      "channel": 2,
      "note": 73,
      "start": 16.3039,
      "duration": 0.0787,
      "velocity": 95,
      "chip": "ym2612"
    },
    {
      "channel": 5,
      "note": 45,
      "start": 16.3059,
      "duration": 0.1113,
      "velocity": 127,
      "chip": "ym2612"
    },
    {
      "channel": 1,
      "note": 87,
      "start": 16.3193,
      "duration": 0.0786,
      "velocity": 95,
      "chip": "ym2612"
    },
    {
      "channel": 0,
      "note": 81,
      "start": 16.4142,
      "duration": 0.031,
      "velocity": 93,
      "chip": "ym2612"
    },
    {
      "channel": 2,
      "note": 83,
      "start": 16.4155,
      "duration": 0.0782,
      "velocity": 95,
      "chip": "ym2612"
    },
    {
      "channel": 4,
      "note": 73,
      "start": 16.4169,
      "duration": 0.1732,
      "velocity": 97,
      "chip": "ym2612"
    },
    {
      "channel": 1,
      "note": 73,
      "start": 16.4461,
      "duration": 0.0789,
      "velocity": 95,
      "chip": "ym2612"
    },
    {
      "channel": 0,
      "note": 82,
      "start": 16.4777,
      "duration": 0.1262,
      "velocity": 93,
      "chip": "ym2612"
    },
    {
      "channel": 2,
      "note": 82,
      "start": 16.542,
      "duration": 0.0787,
      "velocity": 95,
      "chip": "ym2612"
    },
    {
      "channel": 5,
      "note": 45,
      "start": 16.5441,
      "duration": 0.1109,
      "velocity": 127,
      "chip": "ym2612"
    },
    {
      "channel": 1,
      "note": 83,
      "start": 16.5574,
      "duration": 0.0787,
      "velocity": 95,
      "chip": "ym2612"
    },
    {
      "channel": 3,
      "note": 81,
      "start": 16.5744,
      "duration": 0.0306,
      "velocity": 93,
      "chip": "ym2612"
    },
    {
      "channel": 3,
      "note": 82,
      "start": 16.6376,
      "duration": 0.1262,
      "velocity": 93,
      "chip": "ym2612"
    },
    {
      "channel": 0,
      "note": 83,
      "start": 16.6524,
      "duration": 0.1739,
      "velocity": 93,
      "chip": "ym2612"
    },
    {
      "channel": 4,
      "note": 61,
      "start": 16.6546,
      "duration": 0.1732,
      "velocity": 97,
      "chip": "ym2612"
    },
    {
      "channel": 5,
      "note": 45,
      "start": 16.6557,
      "duration": 0.1258,
      "velocity": 127,
      "chip": "ym2612"
    },
    {
      "channel": 1,
      "note": 82,
      "start": 16.6845,
      "duration": 0.0787,
      "velocity": 95,
      "chip": "ym2612"
    },
    {
      "channel": 2,
      "note": 82,
      "start": 16.7802,
      "duration": 0.0786,
      "velocity": 95,
      "chip": "ym2612"
    },
    {
      "channel": 3,
      "note": 83,
      "start": 16.8125,
      "duration": 0.174,
      "velocity": 93,
      "chip": "ym2612"
    },
    {
      "channel": 0,
      "note": 85,
      "start": 16.8904,
      "duration": 0.174,
      "velocity": 93,
      "chip": "ym2612"
    },
    {
      "channel": 2,
      "note": 80,
      "start": 16.8918,
      "duration": 0.1732,
      "velocity": 95,
      "chip": "ym2612"
    },
    {
      "channel": 4,
      "note": 73,
      "start": 16.8933,
      "duration": 0.0777,
      "velocity": 97,
      "chip": "ym2612"
    },
    {
      "channel": 5,
      "note": 45,
      "start": 16.8942,
      "duration": 0.1254,
      "velocity": 127,
      "chip": "ym2612"
    },
    {
      "channel": 1,
      "note": 82,
      "start": 16.9227,
      "duration": 0.0786,
      "velocity": 95,
      "chip": "ym2612"
    },
    {
      "channel": 4,
      "note": 73,
      "start": 17.0193,
      "duration": 0.0787,
      "velocity": 97,
      "chip": "ym2612"
    },
    {
      "channel": 1,
      "note": 80,
      "start": 17.0338,
      "duration": 0.1738,
      "velocity": 95,
      "chip": "ym2612"
    },
    {
      "channel": 3,
      "note": 85,
      "start": 17.0506,
      "duration": 0.1741,
      "velocity": 93,
      "chip": "ym2612"
    },
    {
      "channel": 0,
      "note": 87,
      "start": 17.1313,
      "duration": 0.7268,
      "velocity": 97,
      "chip": "ym2612"
    },
    {
      "channel": 2,
      "note": 82,
      "start": 17.1329,
      "duration": 0.0749,
      "velocity": 95,
      "chip": "ym2612"
    },
    {
      "channel": 4,
      "note": 51,
      "start": 17.1342,
      "duration": 0.0742,
      "velocity": 97,
      "chip": "ym2612"
    },
    {
      "channel": 5,
      "note": 54,
      "start": 17.138,
      "duration": 0.1221,
      "velocity": 115,
      "chip": "ym2612"
    },
    {
      "channel": 5,
      "note": 57,
      "start": 17.2608,
      "duration": 0.1086,
      "velocity": 115,
      "chip": "ym2612"
    },
    {
      "channel": 1,
      "note": 82,
      "start": 17.2721,
      "duration": 0.0784,
      "velocity": 95,
      "chip": "ym2612"
    },
    {
      "channel": 3,
      "note": 87,
      "start": 17.2917,
      "duration": 0.7264,
      "velocity": 97,
      "chip": "ym2612"
    },
    {
      "channel": 2,
      "note": 82,
      "start": 17.3677,
      "duration": 0.174,
      "velocity": 95,
      "chip": "ym2612"
    },
    {
      "channel": 4,
      "note": 63,
      "start": 17.3691,
      "duration": 0.1732,
      "velocity": 97,
      "chip": "ym2612"
    },
    {
      "channel": 5,
      "note": 57,
      "start": 17.3701,
      "duration": 0.1254,
      "velocity": 115,
      "chip": "ym2612"
    },
    {
      "channel": 5,
      "note": 57,
      "start": 17.4962,
      "duration": 0.1141,
      "velocity": 127,
      "chip": "ym2612"
    },
    {
      "channel": 1,
      "note": 82,
      "start": 17.5101,
      "duration": 0.1738,
      "velocity": 95,
      "chip": "ym2612"
    },
    {
      "channel": 2,
      "note": 80,
      "start": 17.6057,
      "duration": 0.174,
      "velocity": 95,
      "chip": "ym2612"
    },
    {
      "channel": 4,
      "note": 58,
      "start": 17.6072,
      "duration": 0.0779,
      "velocity": 97,
      "chip": "ym2612"
    },
    {
      "channel": 5,
      "note": 45,
      "start": 17.611,
      "duration": 0.1227,
      "velocity": 127,
      "chip": "ym2612"
    },
    {
      "channel": 1,
      "note": 80,
      "start": 17.7481,
      "duration": 0.1739,
      "velocity": 95,
      "chip": "ym2612"
    },
    {
      "channel": 2,
      "note": 78,
      "start": 17.8438,
      "duration": 0.174,
      "velocity": 95,
      "chip": "ym2612"
    },
    {
      "channel": 4,
      "note": 54,
      "start": 17.8452,
      "duration": 0.0779,
      "velocity": 97,
      "chip": "ym2612"
    },
    {
      "channel": 5,
      "note": 57,
      "start": 17.849,
      "duration": 0.123,
      "velocity": 115,
      "chip": "ym2612"
    },
    {
      "channel": 4,
      "note": 51,
      "start": 17.9718,
      "duration": 0.0787,
      "velocity": 97,
      "chip": "ym2612"
    },
    {
      "channel": 5,
      "note": 57,
      "start": 17.9728,
      "duration": 0.1123,
      "velocity": 117,
      "chip": "ym2612"
    },
    {
      "channel": 1,
      "note": 78,
      "start": 17.9863,
      "duration": 0.1735,
      "velocity": 95,
      "chip": "ym2612"
    },
    {
      "channel": 5,
      "note": 54,
      "start": 18.0858,
      "duration": 0.1274,
      "velocity": 115,
      "chip": "ym2612"
    },
    {
      "channel": 2,
      "note": 78,
      "start": 18.2086,
      "duration": 0.1742,
      "velocity": 95,
      "chip": "ym2612"
    },
    {
      "channel": 4,
      "note": 51,
      "start": 18.2101,
      "duration": 0.173,
      "velocity": 97,
      "chip": "ym2612"
    },
    {
      "channel": 5,
      "note": 57,
      "start": 18.2139,
      "duration": 0.1068,
      "velocity": 115,
      "chip": "ym2612"
    },
    {
      "channel": 0,
      "note": 87,
      "start": 18.3192,
      "duration": 0.174,
      "velocity": 97,
      "chip": "ym2612"
    },
    {
      "channel": 5,
      "note": 57,
      "start": 18.3214,
      "duration": 0.1299,
      "velocity": 117,
      "chip": "ym2612"
    },
    {
      "channel": 1,
      "note": 78,
      "start": 18.3515,
      "duration": 0.1738,
      "velocity": 95,
      "chip": "ym2612"
    },
    {
      "channel": 2,
      "note": 78,
      "start": 18.4472,
      "duration": 0.0782,
      "velocity": 95,
      "chip": "ym2612"
    },
    {
      "channel": 4,
      "note": 51,
      "start": 18.4483,
      "duration": 0.0778,
      "velocity": 97,
      "chip": "ym2612"
    },
    {
      "channel": 5,
      "note": 54,
      "start": 18.452,
      "duration": 0.1112,
      "velocity": 127,
      "chip": "ym2612"
    },
    {
      "channel": 3,
      "note": 87,
      "start": 18.4795,
      "duration": 0.1739,
      "velocity": 97,
      "chip": "ym2612"
    },
    {
      "channel": 0,
      "note": 85,
      "start": 18.5573,
      "duration": 0.174,
      "velocity": 97,
      "chip": "ym2612"
    },
    {
      "channel": 2,
      "note": 87,
      "start": 18.5587,
      "duration": 0.1732,
      "velocity": 95,
      "chip": "ym2612"
    },
    {
      "channel": 4,
      "note": 54,
      "start": 18.5602,
      "duration": 0.1724,
      "velocity": 97,
      "chip": "ym2612"
    },
    {
      "channel": 5,
      "note": 45,
      "start": 18.564,
      "duration": 0.1221,
      "velocity": 127,
      "chip": "ym2612"
    },
    {
      "channel": 1,
      "note": 78,
      "start": 18.5896,
      "duration": 0.0786,
      "velocity": 95,
      "chip": "ym2612"
    },
    {
      "channel": 1,
      "note": 87,
      "start": 18.7008,
      "duration": 0.1738,
      "velocity": 95,
      "chip": "ym2612"
    },
    {
      "channel": 3,
      "note": 85,
      "start": 18.7175,
      "duration": 0.1741,
      "velocity": 97,
      "chip": "ym2612"
    },
    {
      "channel": 0,
      "note": 83,
      "start": 18.7954,
      "duration": 0.174,
      "velocity": 97,
      "chip": "ym2612"
    },
    {
      "channel": 2,
      "note": 82,
      "start": 18.7968,
      "duration": 0.1733,
      "velocity": 95,
      "chip": "ym2612"
    },
    {
      "channel": 4,
      "note": 51,
      "start": 18.7982,
      "duration": 0.1726,
      "velocity": 97,
      "chip": "ym2612"
    },
    {
      "channel": 5,
      "note": 57,
      "start": 18.802,
      "duration": 0.1223,
      "velocity": 115,
      "chip": "ym2612"
    },
    {
      "channel": 5,
      "note": 57,
      "start": 18.925,
      "duration": 0.1144,
      "velocity": 117,
      "chip": "ym2612"
    },
    {
      "channel": 1,
      "note": 82,
      "start": 18.9388,
      "duration": 0.1739,
      "velocity": 95,
      "chip": "ym2612"
    },
    {
      "channel": 3,
      "note": 83,
      "start": 18.9557,
      "duration": 0.174,
      "velocity": 97,
      "chip": "ym2612"
    },
    {
      "channel": 0,
      "note": 82,
      "start": 19.0335,
      "duration": 0.1741,
      "velocity": 97,
      "chip": "ym2612"
    },
    {
      "channel": 2,
      "note": 77,
      "start": 19.0349,
      "duration": 0.1733,
      "velocity": 95,
      "chip": "ym2612"
    },
    {
      "channel": 4,
      "note": 49,
      "start": 19.0363,
      "duration": 0.0775,
      "velocity": 97,
      "chip": "ym2612"
    },
    {
      "channel": 5,
      "note": 54,
      "start": 19.0401,
      "duration": 0.1251,
      "velocity": 115,
      "chip": "ym2612"
    },
    {
      "channel": 5,
      "note": 57,
      "start": 19.1659,
      "duration": 0.1089,
      "velocity": 115,
      "chip": "ym2612"
    },
    {
      "channel": 1,
      "note": 77,
      "start": 19.1769,
      "duration": 0.1739,
      "velocity": 95,
      "chip": "ym2612"
    },
    {
      "channel": 3,
      "note": 82,
      "start": 19.1938,
      "duration": 0.1741,
      "velocity": 97,
      "chip": "ym2612"
    },
    {
      "channel": 0,
      "note": 83,
      "start": 19.2717,
      "duration": 0.3485,
      "velocity": 97,
      "chip": "ym2612"
    },
    {
      "channel": 2,
      "note": 80,
      "start": 19.2731,
      "duration": 0.1736,
      "velocity": 95,
      "chip": "ym2612"
    },
    {
      "channel": 4,
      "note": 61,
      "start": 19.2746,
      "duration": 0.1728,
      "velocity": 97,
      "chip": "ym2612"
    },
    {
      "channel": 5,
      "note": 57,
      "start": 19.2756,
      "duration": 0.1249,
      "velocity": 115,
      "chip": "ym2612"
    },
    {
      "channel": 5,
      "note": 57,
      "start": 19.4013,
      "duration": 0.1141,
      "velocity": 127,
      "chip": "ym2612"
    },
    {
      "channel": 1,
      "note": 80,
      "start": 19.415,
      "duration": 0.174,
      "velocity": 95,
      "chip": "ym2612"
    },
    {
      "channel": 3,
      "note": 83,
      "start": 19.432,
      "duration": 0.3485,
      "velocity": 97,
      "chip": "ym2612"
    },
    {
      "channel": 2,
      "note": 82,
      "start": 19.5107,
      "duration": 0.174,
      "velocity": 95,
      "chip": "ym2612"
    },
    {
      "channel": 4,
      "note": 58,
      "start": 19.5122,
      "duration": 0.0779,
      "velocity": 97,
      "chip": "ym2612"
    },
    {
      "channel": 5,
      "note": 45,
      "start": 19.516,
      "duration": 0.1226,
      "velocity": 127,
      "chip": "ym2612"
    },
    {
      "channel": 1,
      "note": 82,
      "start": 19.6532,
      "duration": 0.1739,
      "velocity": 95,
      "chip": "ym2612"
    },
    {
      "channel": 0,
      "note": 78,
      "start": 19.748,
      "duration": 0.3485,
      "velocity": 97,
      "chip": "ym2612"
    },
    {
      "channel": 2,
      "note": 83,
      "start": 19.7493,
      "duration": 0.1737,
      "velocity": 95,
      "chip": "ym2612"
    },
    {
      "channel": 4,
      "note": 53,
      "start": 19.7507,
      "duration": 0.0776,
      "velocity": 97,
      "chip": "ym2612"
    },
    {
      "channel": 5,
      "note": 57,
      "start": 19.7545,
      "duration": 0.1227,
      "velocity": 115,
      "chip": "ym2612"
    },
    {
      "channel": 4,
      "note": 49,
      "start": 19.8769,
      "duration": 0.0786,
      "velocity": 97,
      "chip": "ym2612"
    },
    {
      "channel": 5,
      "note": 57,
      "start": 19.8779,
      "duration": 0.1131,
      "velocity": 117,
      "chip": "ym2612"
    },
    {
      "channel": 1,
      "note": 83,
      "start": 19.8913,
      "duration": 0.1739,
      "velocity": 95,
      "chip": "ym2612"
    },
    {
      "channel": 3,
      "note": 78,
      "start": 19.9081,
      "duration": 0.3482,
      "velocity": 97,
      "chip": "ym2612"
    },
    {
      "channel": 2,
      "note": 85,
      "start": 19.9871,
      "duration": 0.2691,
      "velocity": 95,
      "chip": "ym2612"
    },
    {
      "channel": 5,
      "note": 54,
      "start": 19.9917,
      "duration": 0.1265,
      "velocity": 115,
      "chip": "ym2612"
    },
    {
      "channel": 4,
      "note": 49,
      "start": 20.1151,
      "duration": 0.1739,
      "velocity": 97,
      "chip": "ym2612"
    },
    {
      "channel": 5,
      "note": 57,
      "start": 20.1188,
      "duration": 0.1078,
      "velocity": 115,
      "chip": "ym2612"
    },
    {
      "channel": 1,
      "note": 85,
      "start": 20.1295,
      "duration": 0.2692,
      "velocity": 95,
      "chip": "ym2612"
    },
    {
      "channel": 0,
      "note": 80,
      "start": 20.2242,
      "duration": 0.539,
      "velocity": 97,
      "chip": "ym2612"
    },
    {
      "channel": 5,
      "note": 57,
      "start": 20.2273,
      "duration": 0.1294,
      "velocity": 117,
      "chip": "ym2612"
    },
    {
      "channel": 2,
      "note": 83,
      "start": 20.3522,
      "duration": 0.2692,
      "velocity": 95,
      "chip": "ym2612"
    },
    {
      "channel": 4,
      "note": 49,
      "start": 20.3536,
      "duration": 0.0782,
      "velocity": 97,
      "chip": "ym2612"
    },
    {
      "channel": 5,
      "note": 54,
      "start": 20.3574,
      "duration": 0.1101,
      "velocity": 127,
      "chip": "ym2612"
    },
    {
      "channel": 3,
      "note": 80,
      "start": 20.3845,
      "duration": 0.5389,
      "velocity": 97,
      "chip": "ym2612"
    },
    {
      "channel": 4,
      "note": 53,
      "start": 20.4644,
      "duration": 0.1739,
      "velocity": 97,
      "chip": "ym2612"
    },
    {
      "channel": 5,
      "note": 45,
      "start": 20.4682,
      "duration": 0.123,
      "velocity": 127,
      "chip": "ym2612"
    },
    {
      "channel": 1,
      "note": 83,
      "start": 20.4946,
      "duration": 0.2688,
      "velocity": 95,
      "chip": "ym2612"
    },
    {
      "channel": 2,
      "note": 82,
      "start": 20.7015,
      "duration": 0.174,
      "velocity": 95,
      "chip": "ym2612"
    },
    {
      "channel": 4,
      "note": 49,
      "start": 20.7029,
      "duration": 0.1732,
      "velocity": 97,
      "chip": "ym2612"
    },
    {
      "channel": 5,
      "note": 57,
      "start": 20.7067,
      "duration": 0.1227,
      "velocity": 115,
      "chip": "ym2612"
    },
    {
      "channel": 5,
      "note": 57,
      "start": 20.8301,
      "duration": 0.1144,
      "velocity": 117,
      "chip": "ym2612"
    },
    {
      "channel": 1,
      "note": 82,
      "start": 20.8439,
      "duration": 0.1738,
      "velocity": 95,
      "chip": "ym2612"
    },
    {
      "channel": 0,
      "note": 83,
      "start": 20.9387,
      "duration": 0.7296,
      "velocity": 97,
      "chip": "ym2612"
    },
    {
      "channel": 2,
      "note": 83,
      "start": 20.94,
      "duration": 0.1736,
      "velocity": 95,
      "chip": "ym2612"
    },
    {
      "channel": 4,
      "note": 47,
      "start": 20.9415,
      "duration": 0.0774,
      "velocity": 97,
      "chip": "ym2612"
    },
    {
      "channel": 5,
      "note": 54,
      "start": 20.9452,
      "duration": 0.125,
      "velocity": 115,
      "chip": "ym2612"
    },
    {
      "channel": 5,
      "note": 57,
      "start": 21.071,
      "duration": 0.1085,
      "velocity": 115,
      "chip": "ym2612"
    },
    {
      "channel": 1,
      "note": 83,
      "start": 21.082,
      "duration": 0.1739,
      "velocity": 95,
      "chip": "ym2612"
    },
    {
      "channel": 3,
      "note": 83,
      "start": 21.0988,
      "duration": 0.7293,
      "velocity": 97,
      "chip": "ym2612"
    },
    {
      "channel": 2,
      "note": 83,
      "start": 21.1777,
      "duration": 0.174,
      "velocity": 95,
      "chip": "ym2612"
    },
    {
      "channel": 4,
      "note": 59,
      "start": 21.1792,
      "duration": 0.1732,
      "velocity": 97,
      "chip": "ym2612"
    },
    {
      "channel": 5,
      "note": 57,
      "start": 21.1802,
      "duration": 0.1254,
      "velocity": 115,
      "chip": "ym2612"
    },
    {
      "channel": 5,
      "note": 57,
      "start": 21.3063,
      "duration": 0.1141,
      "velocity": 127,
      "chip": "ym2612"
    },
    {
      "channel": 1,
      "note": 83,
      "start": 21.3201,
      "duration": 0.1739,
      "velocity": 95,
      "chip": "ym2612"
    },
    {
      "channel": 2,
      "note": 82,
      "start": 21.4158,
      "duration": 0.174,
      "velocity": 95,
      "chip": "ym2612"
    },
    {
      "channel": 4,
      "note": 54,
      "start": 21.4173,
      "duration": 0.0779,
      "velocity": 97,
      "chip": "ym2612"
    },
    {
      "channel": 5,
      "note": 45,
      "start": 21.4211,
      "duration": 0.1226,
      "velocity": 127,
      "chip": "ym2612"
    },
    {
      "channel": 1,
      "note": 82,
      "start": 21.5582,
      "duration": 0.1739,
      "velocity": 95,
      "chip": "ym2612"
    },
    {
      "channel": 2,
      "note": 78,
      "start": 21.6539,
      "duration": 0.174,
      "velocity": 95,
      "chip": "ym2612"
    },
    {
      "channel": 4,
      "note": 51,
      "start": 21.6554,
      "duration": 0.0779,
      "velocity": 97,
      "chip": "ym2612"
    },
    {
      "channel": 5,
      "note": 57,
      "start": 21.6591,
      "duration": 0.1231,
      "velocity": 115,
      "chip": "ym2612"
    },
    {
      "channel": 4,
      "note": 47,
      "start": 21.7819,
      "duration": 0.0787,
      "velocity": 97,
      "chip": "ym2612"
    },
    {
      "channel": 5,
      "note": 57,
      "start": 21.7829,
      "duration": 0.113,
      "velocity": 117,
      "chip": "ym2612"
    },
    {
      "channel": 1,
      "note": 78,
      "start": 21.7964,
      "duration": 0.1739,
      "velocity": 95,
      "chip": "ym2612"
    },
    {
      "channel": 0,
      "note": 83,
      "start": 21.8912,
      "duration": 0.2691,
      "velocity": 97,
      "chip": "ym2612"
    },
    {
      "channel": 5,
      "note": 54,
      "start": 21.8966,
      "duration": 0.1271,
      "velocity": 115,
      "chip": "ym2612"
    },
    {
      "channel": 2,
      "note": 83,
      "start": 22.0191,
      "duration": 0.1739,
      "velocity": 95,
      "chip": "ym2612"
    },
    {
      "channel": 4,
      "note": 47,
      "start": 22.0206,
      "duration": 0.173,
      "velocity": 97,
      "chip": "ym2612"
    },
    {
      "channel": 5,
      "note": 57,
      "start": 22.0244,
      "duration": 0.1064,
      "velocity": 115,
      "chip": "ym2612"
    },
    {
      "channel": 3,
      "note": 83,
      "start": 22.051,
      "duration": 0.2695,
      "velocity": 97,
      "chip": "ym2612"
    },
    {
      "channel": 5,
      "note": 57,
      "start": 22.1314,
      "duration": 0.1308,
      "velocity": 117,
      "chip": "ym2612"
    },
    {
      "channel": 1,
      "note": 83,
      "start": 22.1613,
      "duration": 0.1741,
      "velocity": 95,
      "chip": "ym2612"
    },
    {
      "channel": 0,
      "note": 82,
      "start": 22.2562,
      "duration": 0.2691,
      "velocity": 97,
      "chip": "ym2612"
    },
    {
      "channel": 2,
      "note": 83,
      "start": 22.2577,
      "duration": 0.0779,
      "velocity": 95,
      "chip": "ym2612"
    },
    {
      "channel": 4,
      "note": 47,
      "start": 22.2592,
      "duration": 0.077,
      "velocity": 97,
      "chip": "ym2612"
    },
    {
      "channel": 5,
      "note": 54,
      "start": 22.2629,
      "duration": 0.1101,
      "velocity": 127,
      "chip": "ym2612"
    },
    {
      "channel": 2,
      "note": 82,
      "start": 22.3685,
      "duration": 0.1739,
      "velocity": 95,
      "chip": "ym2612"
    },
    {
      "channel": 4,
      "note": 51,
      "start": 22.3698,
      "duration": 0.1732,
      "velocity": 97,
      "chip": "ym2612"
    },
    {
      "channel": 5,
      "note": 45,
      "start": 22.3737,
      "duration": 0.1226,
      "velocity": 127,
      "chip": "ym2612"
    },
    {
      "channel": 1,
      "note": 83,
      "start": 22.3998,
      "duration": 0.0785,
      "velocity": 95,
      "chip": "ym2612"
    },
    {
      "channel": 3,
      "note": 82,
      "start": 22.4165,
      "duration": 0.2688,
      "velocity": 97,
      "chip": "ym2612"
    },
    {
      "channel": 1,
      "note": 82,
      "start": 22.5108,
      "duration": 0.1738,
      "velocity": 95,
      "chip": "ym2612"
    },
    {
      "channel": 0,
      "note": 80,
      "start": 22.6055,
      "duration": 0.174,
      "velocity": 97,
      "chip": "ym2612"
    },
    {
      "channel": 2,
      "note": 78,
      "start": 22.6069,
      "duration": 0.1732,
      "velocity": 95,
      "chip": "ym2612"
    },
    {
      "channel": 4,
      "note": 47,
      "start": 22.6083,
      "duration": 0.1725,
      "velocity": 97,
      "chip": "ym2612"
    },
    {
      "channel": 5,
      "note": 57,
      "start": 22.6121,
      "duration": 0.1223,
      "velocity": 115,
      "chip": "ym2612"
    },
    {
      "channel": 5,
      "note": 57,
      "start": 22.7351,
      "duration": 0.1145,
      "velocity": 117,
      "chip": "ym2612"
    },
    {
      "channel": 1,
      "note": 78,
      "start": 22.7489,
      "duration": 0.1739,
      "velocity": 95,
      "chip": "ym2612"
    },
    {
      "channel": 3,
      "note": 80,
      "start": 22.7658,
      "duration": 0.174,
      "velocity": 97,
      "chip": "ym2612"
    },
    {
      "channel": 0,
      "note": 80,
      "start": 22.8437,
      "duration": 0.2691,
      "velocity": 97,
      "chip": "ym2612"
    },
    {
      "channel": 2,
      "note": 80,
      "start": 22.8452,
      "duration": 0.0778,
      "velocity": 95,
      "chip": "ym2612"
    },
    {
      "channel": 4,
      "note": 49,
      "start": 22.8465,
      "duration": 0.1732,
      "velocity": 97,
      "chip": "ym2612"
    },
    {
      "channel": 5,
      "note": 54,
      "start": 22.8502,
      "duration": 0.1254,
      "velocity": 115,
      "chip": "ym2612"
    },
    {
      "channel": 2,
      "note": 82,
      "start": 22.9716,
      "duration": 0.0786,
      "velocity": 95,
      "chip": "ym2612"
    },
    {
      "channel": 5,
      "note": 57,
      "start": 22.9764,
      "duration": 0.108,
      "velocity": 115,
      "chip": "ym2612"
    },
    {
      "channel": 1,
      "note": 80,
      "start": 22.9871,
      "duration": 0.0786,
      "velocity": 95,
      "chip": "ym2612"
    },
    {
      "channel": 3,
      "note": 80,
      "start": 23.0039,
      "duration": 0.269,
      "velocity": 97,
      "chip": "ym2612"
    },
    {
      "channel": 2,
      "note": 83,
      "start": 23.0827,
      "duration": 0.0787,
      "velocity": 95,
      "chip": "ym2612"
    },
    {
      "channel": 4,
      "note": 61,
      "start": 23.0841,
      "duration": 0.1736,
      "velocity": 97,
      "chip": "ym2612"
    },
    {
      "channel": 5,
      "note": 57,
      "start": 23.0851,
      "duration": 0.1263,
      "velocity": 115,
      "chip": "ym2612"
    },
    {
      "channel": 1,
      "note": 82,
      "start": 23.1137,
      "duration": 0.079,
      "velocity": 95,
      "chip": "ym2612"
    },
    {
      "channel": 0,
      "note": 78,
      "start": 23.2088,
      "duration": 0.2692,
      "velocity": 97,
      "chip": "ym2612"
    },
    {
      "channel": 2,
      "note": 80,
      "start": 23.2101,
      "duration": 0.0783,
      "velocity": 95,
      "chip": "ym2612"
    },
    {
      "channel": 5,
      "note": 57,
      "start": 23.2122,
      "duration": 0.1132,
      "velocity": 127,
      "chip": "ym2612"
    },
    {
      "channel": 1,
      "note": 83,
      "start": 23.2251,
      "duration": 0.0787,
      "velocity": 95,
      "chip": "ym2612"
    },
    {
      "channel": 2,
      "note": 85,
      "start": 23.3209,
      "duration": 0.0786,
      "velocity": 95,
      "chip": "ym2612"
    },
    {
      "channel": 4,
      "note": 49,
      "start": 23.3222,
      "duration": 0.1737,
      "velocity": 97,
      "chip": "ym2612"
    },
    {
      "channel": 5,
      "note": 45,
      "start": 23.326,
      "duration": 0.1231,
      "velocity": 127,
      "chip": "ym2612"
    },
    {
      "channel": 1,
      "note": 80,
      "start": 23.3522,
      "duration": 0.0786,
      "velocity": 95,
      "chip": "ym2612"
    },
    {
      "channel": 3,
      "note": 78,
      "start": 23.369,
      "duration": 0.2688,
      "velocity": 97,
      "chip": "ym2612"
    },
    {
      "channel": 2,
      "note": 83,
      "start": 23.4478,
      "duration": 0.0787,
      "velocity": 95,
      "chip": "ym2612"
    },
    {
      "channel": 1,
      "note": 85,
      "start": 23.4633,
      "duration": 0.0787,
      "velocity": 95,
      "chip": "ym2612"
    },
    {
      "channel": 0,
      "note": 77,
      "start": 23.5581,
      "duration": 0.174,
      "velocity": 97,
      "chip": "ym2612"
    },
    {
      "channel": 2,
      "note": 82,
      "start": 23.5594,
      "duration": 0.0783,
      "velocity": 95,
      "chip": "ym2612"
    },
    {
      "channel": 4,
      "note": 61,
      "start": 23.5609,
      "duration": 0.0771,
      "velocity": 97,
      "chip": "ym2612"
    },
    {
      "channel": 5,
      "note": 57,
      "start": 23.5647,
      "duration": 0.1229,
      "velocity": 115,
      "chip": "ym2612"
    },
    {
      "channel": 1,
      "note": 83,
      "start": 23.5903,
      "duration": 0.0786,
      "velocity": 95,
      "chip": "ym2612"
    },
    {
      "channel": 2,
      "note": 80,
      "start": 23.686,
      "duration": 0.0786,
      "velocity": 95,
      "chip": "ym2612"
    },
    {
      "channel": 4,
      "note": 61,
      "start": 23.6873,
      "duration": 0.078,
      "velocity": 97,
      "chip": "ym2612"
    },
    {
      "channel": 5,
      "note": 57,
      "start": 23.6884,
      "duration": 0.1137,
      "velocity": 117,
      "chip": "ym2612"
    },
    {
      "channel": 1,
      "note": 82,
      "start": 23.7014,
      "duration": 0.0786,
      "velocity": 95,
      "chip": "ym2612"
    },
    {
      "channel": 3,
      "note": 77,
      "start": 23.7183,
      "duration": 0.1739,
      "velocity": 97,
      "chip": "ym2612"
    },
    {
      "channel": 0,
      "note": 78,
      "start": 23.7962,
      "duration": 0.3485,
      "velocity": 97,
      "chip": "ym2612"
    },
    {
      "channel": 2,
      "note": 78,
      "start": 23.7976,
      "duration": 0.0782,
      "velocity": 95,
      "chip": "ym2612"
    },
    {
      "channel": 4,
      "note": 49,
      "start": 23.799,
      "duration": 0.1731,
      "velocity": 97,
      "chip": "ym2612"
    },
    {
      "channel": 5,
      "note": 54,
      "start": 23.8028,
      "duration": 0.1254,
      "velocity": 115,
      "chip": "ym2612"
    },
    {
      "channel": 1,
      "note": 80,
      "start": 23.8284,
      "duration": 0.0786,
      "velocity": 95,
      "chip": "ym2612"
    },
    {
      "channel": 2,
      "note": 77,
      "start": 23.9241,
      "duration": 0.0787,
      "velocity": 95,
      "chip": "ym2612"
    },
    {
      "channel": 5,
      "note": 57,
      "start": 23.9289,
      "duration": 0.108,
      "velocity": 115,
      "chip": "ym2612"
    },
    {
      "channel": 1,
      "note": 78,
      "start": 23.9396,
      "duration": 0.0786,
      "velocity": 95,
      "chip": "ym2612"
    },
    {
      "channel": 3,
      "note": 78,
      "start": 23.9564,
      "duration": 0.3489,
      "velocity": 97,
      "chip": "ym2612"
    },
    {
      "channel": 2,
      "note": 78,
      "start": 24.0352,
      "duration": 0.0787,
      "velocity": 95,
      "chip": "ym2612"
    },
    {
      "channel": 4,
      "note": 49,
      "start": 24.0366,
      "duration": 0.1737,
      "velocity": 97,
      "chip": "ym2612"
    },
    {
      "channel": 5,
      "note": 57,
      "start": 24.0376,
      "duration": 0.1287,
      "velocity": 117,
      "chip": "ym2612"
    },
    {
      "channel": 1,
      "note": 77,
      "start": 24.0665,
      "duration": 0.0784,
      "velocity": 95,
      "chip": "ym2612"
    },
    {
      "channel": 2,
      "note": 80,
      "start": 24.1622,
      "duration": 0.0787,
      "velocity": 95,
      "chip": "ym2612"
    },
    {
      "channel": 5,
      "note": 54,
      "start": 24.167,
      "duration": 0.1114,
      "velocity": 127,
      "chip": "ym2612"
    },
    {
      "channel": 1,
      "note": 78,
      "start": 24.1776,
      "duration": 0.0787,
      "velocity": 95,
      "chip": "ym2612"
    },
    {
      "channel": 0,
      "note": 73,
      "start": 24.2724,
      "duration": 0.3486,
      "velocity": 97,
      "chip": "ym2612"
    },
    {
      "channel": 2,
      "note": 82,
      "start": 24.2737,
      "duration": 0.0783,
      "velocity": 95,
      "chip": "ym2612"
    },
    {
      "channel": 4,
      "note": 61,
      "start": 24.2753,
      "duration": 0.0775,
      "velocity": 97,
      "chip": "ym2612"
    },
    {
      "channel": 5,
      "note": 45,
      "start": 24.2791,
      "duration": 0.123,
      "velocity": 127,
      "chip": "ym2612"
    },
    {
      "channel": 1,
      "note": 80,
      "start": 24.3046,
      "duration": 0.0787,
      "velocity": 95,
      "chip": "ym2612"
    },
    {
      "channel": 2,
      "note": 83,
      "start": 24.4004,
      "duration": 0.0787,
      "velocity": 95,
      "chip": "ym2612"
    },
    {
      "channel": 4,
      "note": 49,
      "start": 24.4018,
      "duration": 0.1734,
      "velocity": 97,
      "chip": "ym2612"
    },
    {
      "channel": 1,
      "note": 82,
      "start": 24.4158,
      "duration": 0.0786,
      "velocity": 95,
      "chip": "ym2612"
    },
    {
      "channel": 3,
      "note": 73,
      "start": 24.4326,
      "duration": 0.349,
      "velocity": 97,
      "chip": "ym2612"
    },
    {
      "channel": 2,
      "note": 85,
      "start": 24.5115,
      "duration": 0.0787,
      "velocity": 95,
      "chip": "ym2612"
    },
    {
      "channel": 5,
      "note": 45,
      "start": 24.5135,
      "duration": 0.1267,
      "velocity": 127,
      "chip": "ym2612"
    },
    {
      "channel": 1,
      "note": 83,
      "start": 24.5427,
      "duration": 0.0784,
      "velocity": 95,
      "chip": "ym2612"
    },
    {
      "channel": 2,
      "note": 83,
      "start": 24.6385,
      "duration": 0.0787,
      "velocity": 95,
      "chip": "ym2612"
    },
    {
      "channel": 4,
      "note": 61,
      "start": 24.64,
      "duration": 0.0779,
      "velocity": 97,
      "chip": "ym2612"
    },
    {
      "channel": 5,
      "note": 45,
      "start": 24.641,
      "duration": 0.1136,
      "velocity": 117,
      "chip": "ym2612"
    },
    {
      "channel": 1,
      "note": 85,
      "start": 24.6539,
      "duration": 0.0787,
      "velocity": 95,
      "chip": "ym2612"
    },
    {
      "channel": 0,
      "note": 75,
      "start": 24.7488,
      "duration": 0.7296,
      "velocity": 97,
      "chip": "ym2612"
    },
    {
      "channel": 2,
      "note": 82,
      "start": 24.7501,
      "duration": 0.0782,
      "velocity": 95,
      "chip": "ym2612"
    },
    {
      "channel": 4,
      "note": 51,
      "start": 24.7515,
      "duration": 0.0774,
      "velocity": 97,
      "chip": "ym2612"
    },
    {
      "channel": 5,
      "note": 54,
      "start": 24.7553,
      "duration": 0.1251,
      "velocity": 115,
      "chip": "ym2612"
    },
    {
      "channel": 1,
      "note": 83,
      "start": 24.7809,
      "duration": 0.0786,
      "velocity": 95,
      "chip": "ym2612"
    },
    {
      "channel": 5,
      "note": 57,
      "start": 24.881,
      "duration": 0.1085,
      "velocity": 115,
      "chip": "ym2612"
    },
    {
      "channel": 1,
      "note": 82,
      "start": 24.892,
      "duration": 0.0786,
      "velocity": 95,
      "chip": "ym2612"
    },
    {
      "channel": 3,
      "note": 75,
      "start": 24.909,
      "duration": 0.7293,
      "velocity": 97,
      "chip": "ym2612"
    },
    {
      "channel": 2,
      "note": 82,
      "start": 24.9878,
      "duration": 0.174,
      "velocity": 95,
      "chip": "ym2612"
    },
    {
      "channel": 4,
      "note": 63,
      "start": 24.9893,
      "duration": 0.1732,
      "velocity": 97,
      "chip": "ym2612"
    },
    {
      "channel": 5,
      "note": 57,
      "start": 24.9903,
      "duration": 0.1253,
      "velocity": 115,
      "chip": "ym2612"
    },
    {
      "channel": 5,
      "note": 57,
      "start": 25.1163,
      "duration": 0.1141,
      "velocity": 127,
      "chip": "ym2612"
    },
    {
      "channel": 1,
      "note": 82,
      "start": 25.1303,
      "duration": 0.1738,
      "velocity": 95,
      "chip": "ym2612"
    },
    {
      "channel": 2,
      "note": 80,
      "start": 25.2259,
      "duration": 0.174,
      "velocity": 95,
      "chip": "ym2612"
    },
    {
      "channel": 4,
      "note": 58,
      "start": 25.2273,
      "duration": 0.0779,
      "velocity": 97,
      "chip": "ym2612"
    },
    {
      "channel": 5,
      "note": 45,
      "start": 25.2312,
      "duration": 0.1226,
      "velocity": 127,
      "chip": "ym2612"
    },
    {
      "channel": 1,
      "note": 80,
      "start": 25.3683,
      "duration": 0.174,
      "velocity": 95,
      "chip": "ym2612"
    },
    {
      "channel": 2,
      "note": 78,
      "start": 25.4641,
      "duration": 0.174,
      "velocity": 95,
      "chip": "ym2612"
    },
    {
      "channel": 4,
      "note": 54,
      "start": 25.4654,
      "duration": 0.078,
      "velocity": 97,
      "chip": "ym2612"
    },
    {
      "channel": 5,
      "note": 57,
      "start": 25.4692,
      "duration": 0.1231,
      "velocity": 115,
      "chip": "ym2612"
    },
    {
      "channel": 4,
      "note": 51,
      "start": 25.592,
      "duration": 0.0786,
      "velocity": 97,
      "chip": "ym2612"
    },
    {
      "channel": 5,
      "note": 57,
      "start": 25.593,
      "duration": 0.1123,
      "velocity": 117,
      "chip": "ym2612"
    },
    {
      "channel": 1,
      "note": 78,
      "start": 25.6064,
      "duration": 0.1735,
      "velocity": 95,
      "chip": "ym2612"
    },
    {
      "channel": 5,
      "note": 54,
      "start": 25.706,
      "duration": 0.1273,
      "velocity": 115,
      "chip": "ym2612"
    },
    {
      "channel": 2,
      "note": 78,
      "start": 25.8289,
      "duration": 0.1742,
      "velocity": 95,
      "chip": "ym2612"
    },
    {
      "channel": 4,
      "note": 51,
      "start": 25.8303,
      "duration": 0.173,
      "velocity": 97,
      "chip": "ym2612"
    },
    {
      "channel": 5,
      "note": 57,
      "start": 25.834,
      "duration": 0.1068,
      "velocity": 115,
      "chip": "ym2612"
    },
    {
      "channel": 0,
      "note": 75,
      "start": 25.9394,
      "duration": 0.174,
      "velocity": 97,
      "chip": "ym2612"
    },
    {
      "channel": 5,
      "note": 57,
      "start": 25.9415,
      "duration": 0.13,
      "velocity": 117,
      "chip": "ym2612"
    },
    {
      "channel": 1,
      "note": 78,
      "start": 25.9716,
      "duration": 0.1739,
      "velocity": 95,
      "chip": "ym2612"
    },
    {
      "channel": 2,
      "note": 78,
      "start": 26.0674,
      "duration": 0.0782,
      "velocity": 95,
      "chip": "ym2612"
    },
    {
      "channel": 4,
      "note": 51,
      "start": 26.0685,
      "duration": 0.0778,
      "velocity": 97,
      "chip": "ym2612"
    },
    {
      "channel": 5,
      "note": 54,
      "start": 26.0722,
      "duration": 0.1112,
      "velocity": 127,
      "chip": "ym2612"
    },
    {
      "channel": 3,
      "note": 75,
      "start": 26.0996,
      "duration": 0.1739,
      "velocity": 97,
      "chip": "ym2612"
    },
    {
      "channel": 0,
      "note": 77,
      "start": 26.1774,
      "duration": 0.1741,
      "velocity": 97,
      "chip": "ym2612"
    },
    {
      "channel": 2,
      "note": 87,
      "start": 26.1789,
      "duration": 0.1733,
      "velocity": 95,
      "chip": "ym2612"
    },
    {
      "channel": 4,
      "note": 54,
      "start": 26.1803,
      "duration": 0.1724,
      "velocity": 97,
      "chip": "ym2612"
    },
    {
      "channel": 5,
      "note": 45,
      "start": 26.1841,
      "duration": 0.1222,
      "velocity": 127,
      "chip": "ym2612"
    },
    {
      "channel": 1,
      "note": 78,
      "start": 26.2098,
      "duration": 0.0786,
      "velocity": 95,
      "chip": "ym2612"
    },
    {
      "channel": 1,
      "note": 87,
      "start": 26.3209,
      "duration": 0.1738,
      "velocity": 95,
      "chip": "ym2612"
    },
    {
      "channel": 3,
      "note": 77,
      "start": 26.3377,
      "duration": 0.1741,
      "velocity": 97,
      "chip": "ym2612"
    },
    {
      "channel": 0,
      "note": 78,
      "start": 26.4156,
      "duration": 0.1741,
      "velocity": 97,
      "chip": "ym2612"
    },
    {
      "channel": 2,
      "note": 82,
      "start": 26.417,
      "duration": 0.1733,
      "velocity": 95,
      "chip": "ym2612"
    },
    {
      "channel": 4,
      "note": 51,
      "start": 26.4183,
      "duration": 0.1726,
      "velocity": 97,
      "chip": "ym2612"
    },
    {
      "channel": 5,
      "note": 57,
      "start": 26.4221,
      "duration": 0.1224,
      "velocity": 115,
      "chip": "ym2612"
    },
    {
      "channel": 5,
      "note": 57,
      "start": 26.5452,
      "duration": 0.1143,
      "velocity": 117,
      "chip": "ym2612"
    },
    {
      "channel": 1,
      "note": 82,
      "start": 26.559,
      "duration": 0.1739,
      "velocity": 95,
      "chip": "ym2612"
    },
    {
      "channel": 3,
      "note": 78,
      "start": 26.5758,
      "duration": 0.1741,
      "velocity": 97,
      "chip": "ym2612"
    },
    {
      "channel": 0,
      "note": 82,
      "start": 26.6537,
      "duration": 0.174,
      "velocity": 97,
      "chip": "ym2612"
    },
    {
      "channel": 2,
      "note": 77,
      "start": 26.6551,
      "duration": 0.1734,
      "velocity": 95,
      "chip": "ym2612"
    },
    {
      "channel": 4,
      "note": 49,
      "start": 26.6565,
      "duration": 0.0776,
      "velocity": 97,
      "chip": "ym2612"
    },
    {
      "channel": 5,
      "note": 54,
      "start": 26.6602,
      "duration": 0.1251,
      "velocity": 115,
      "chip": "ym2612"
    },
    {
      "channel": 5,
      "note": 57,
      "start": 26.7861,
      "duration": 0.109,
      "velocity": 115,
      "chip": "ym2612"
    },
    {
      "channel": 1,
      "note": 77,
      "start": 26.7971,
      "duration": 0.1739,
      "velocity": 95,
      "chip": "ym2612"
    },
    {
      "channel": 3,
      "note": 82,
      "start": 26.8139,
      "duration": 0.1741,
      "velocity": 97,
      "chip": "ym2612"
    },
    {
      "channel": 0,
      "note": 83,
      "start": 26.8919,
      "duration": 0.3485,
      "velocity": 97,
      "chip": "ym2612"
    },
    {
      "channel": 2,
      "note": 80,
      "start": 26.8933,
      "duration": 0.1736,
      "velocity": 95,
      "chip": "ym2612"
    },
    {
      "channel": 4,
      "note": 61,
      "start": 26.8947,
      "duration": 0.1728,
      "velocity": 97,
      "chip": "ym2612"
    },
    {
      "channel": 5,
      "note": 57,
      "start": 26.8957,
      "duration": 0.1249,
      "velocity": 115,
      "chip": "ym2612"
    },
    {
      "channel": 5,
      "note": 57,
      "start": 27.0214,
      "duration": 0.1141,
      "velocity": 127,
      "chip": "ym2612"
    },
    {
      "channel": 1,
      "note": 80,
      "start": 27.0352,
      "duration": 0.1739,
      "velocity": 95,
      "chip": "ym2612"
    },
    {
      "channel": 3,
      "note": 83,
      "start": 27.0522,
      "duration": 0.3485,
      "velocity": 97,
      "chip": "ym2612"
    },
    {
      "channel": 2,
      "note": 82,
      "start": 27.131,
      "duration": 0.174,
      "velocity": 95,
      "chip": "ym2612"
    },
    {
      "channel": 4,
      "note": 58,
      "start": 27.1324,
      "duration": 0.0778,
      "velocity": 97,
      "chip": "ym2612"
    },
    {
      "channel": 5,
      "note": 45,
      "start": 27.1362,
      "duration": 0.1227,
      "velocity": 127,
      "chip": "ym2612"
    },
    {
      "channel": 1,
      "note": 82,
      "start": 27.2734,
      "duration": 0.1739,
      "velocity": 95,
      "chip": "ym2612"
    },
    {
      "channel": 0,
      "note": 85,
      "start": 27.3681,
      "duration": 0.3485,
      "velocity": 97,
      "chip": "ym2612"
    },
    {
      "channel": 2,
      "note": 83,
      "start": 27.3695,
      "duration": 0.1737,
      "velocity": 95,
      "chip": "ym2612"
    },
    {
      "channel": 4,
      "note": 53,
      "start": 27.3709,
      "duration": 0.0776,
      "velocity": 97,
      "chip": "ym2612"
    },
    {
      "channel": 5,
      "note": 57,
      "start": 27.3747,
      "duration": 0.1227,
      "velocity": 115,
      "chip": "ym2612"
    },
    {
      "channel": 4,
      "note": 49,
      "start": 27.4971,
      "duration": 0.0786,
      "velocity": 97,
      "chip": "ym2612"
    },
    {
      "channel": 5,
      "note": 57,
      "start": 27.498,
      "duration": 0.1131,
      "velocity": 117,
      "chip": "ym2612"
    },
    {
      "channel": 1,
      "note": 83,
      "start": 27.5115,
      "duration": 0.1739,
      "velocity": 95,
      "chip": "ym2612"
    },
    {
      "channel": 3,
      "note": 85,
      "start": 27.5284,
      "duration": 0.3482,
      "velocity": 97,
      "chip": "ym2612"
    },
    {
      "channel": 2,
      "note": 85,
      "start": 27.6073,
      "duration": 0.2691,
      "velocity": 95,
      "chip": "ym2612"
    },
    {
      "channel": 5,
      "note": 54,
      "start": 27.6119,
      "duration": 0.1264,
      "velocity": 115,
      "chip": "ym2612"
    },
    {
      "channel": 4,
      "note": 49,
      "start": 27.7352,
      "duration": 0.1739,
      "velocity": 97,
      "chip": "ym2612"
    },
    {
      "channel": 5,
      "note": 57,
      "start": 27.739,
      "duration": 0.1078,
      "velocity": 115,
      "chip": "ym2612"
    },
    {
      "channel": 1,
      "note": 85,
      "start": 27.7497,
      "duration": 0.2693,
      "velocity": 95,
      "chip": "ym2612"
    },
    {
      "channel": 0,
      "note": 82,
      "start": 27.8445,
      "duration": 0.5389,
      "velocity": 97,
      "chip": "ym2612"
    },
    {
      "channel": 5,
      "note": 57,
      "start": 27.8475,
      "duration": 0.1293,
      "velocity": 117,
      "chip": "ym2612"
    },
    {
      "channel": 2,
      "note": 83,
      "start": 27.9723,
      "duration": 0.2692,
      "velocity": 95,
      "chip": "ym2612"
    },
    {
      "channel": 4,
      "note": 49,
      "start": 27.9738,
      "duration": 0.0782,
      "velocity": 97,
      "chip": "ym2612"
    },
    {
      "channel": 5,
      "note": 54,
      "start": 27.9776,
      "duration": 0.1101,
      "velocity": 127,
      "chip": "ym2612"
    },
    {
      "channel": 3,
      "note": 82,
      "start": 28.0046,
      "duration": 0.5389,
      "velocity": 97,
      "chip": "ym2612"
    },
    {
      "channel": 4,
      "note": 53,
      "start": 28.0845,
      "duration": 0.174,
      "velocity": 97,
      "chip": "ym2612"
    },
    {
      "channel": 5,
      "note": 45,
      "start": 28.0884,
      "duration": 0.123,
      "velocity": 127,
      "chip": "ym2612"
    },
    {
      "channel": 1,
      "note": 83,
      "start": 28.1148,
      "duration": 0.2688,
      "velocity": 95,
      "chip": "ym2612"
    },
    {
      "channel": 2,
      "note": 82,
      "start": 28.3217,
      "duration": 0.1739,
      "velocity": 95,
      "chip": "ym2612"
    },
    {
      "channel": 4,
      "note": 49,
      "start": 28.3231,
      "duration": 0.1732,
      "velocity": 97,
      "chip": "ym2612"
    },
    {
      "channel": 5,
      "note": 57,
      "start": 28.3268,
      "duration": 0.1227,
      "velocity": 115,
      "chip": "ym2612"
    },
    {
      "channel": 5,
      "note": 57,
      "start": 28.4502,
      "duration": 0.1144,
      "velocity": 117,
      "chip": "ym2612"
    },
    {
      "channel": 1,
      "note": 82,
      "start": 28.4641,
      "duration": 0.1738,
      "velocity": 95,
      "chip": "ym2612"
    },
    {
      "channel": 0,
      "note": 83,
      "start": 28.5588,
      "duration": 0.3485,
      "velocity": 97,
      "chip": "ym2612"
    },
    {
      "channel": 2,
      "note": 83,
      "start": 28.5602,
      "duration": 0.1735,
      "velocity": 95,
      "chip": "ym2612"
    },
    {
      "channel": 4,
      "note": 47,
      "start": 28.5616,
      "duration": 0.0774,
      "velocity": 97,
      "chip": "ym2612"
    },
    {
      "channel": 5,
      "note": 54,
      "start": 28.5654,
      "duration": 0.125,
      "velocity": 115,
      "chip": "ym2612"
    },
    {
      "channel": 5,
      "note": 57,
      "start": 28.6912,
      "duration": 0.1084,
      "velocity": 115,
      "chip": "ym2612"
    },
    {
      "channel": 1,
      "note": 83,
      "start": 28.7022,
      "duration": 0.1739,
      "velocity": 95,
      "chip": "ym2612"
    },
    {
      "channel": 3,
      "note": 83,
      "start": 28.7191,
      "duration": 0.3484,
      "velocity": 97,
      "chip": "ym2612"
    },
    {
      "channel": 2,
      "note": 83,
      "start": 28.7979,
      "duration": 0.174,
      "velocity": 95,
      "chip": "ym2612"
    },
    {
      "channel": 4,
      "note": 59,
      "start": 28.7993,
      "duration": 0.1732,
      "velocity": 97,
      "chip": "ym2612"
    },
    {
      "channel": 5,
      "note": 57,
      "start": 28.8003,
      "duration": 0.1254,
      "velocity": 115,
      "chip": "ym2612"
    },
    {
      "channel": 5,
      "note": 57,
      "start": 28.9265,
      "duration": 0.1145,
      "velocity": 127,
      "chip": "ym2612"
    },
    {
      "channel": 1,
      "note": 83,
      "start": 28.9402,
      "duration": 0.174,
      "velocity": 95,
      "chip": "ym2612"
    },
    {
      "channel": 0,
      "note": 83,
      "start": 29.035,
      "duration": 0.3486,
      "velocity": 97,
      "chip": "ym2612"
    },
    {
      "channel": 2,
      "note": 82,
      "start": 29.0364,
      "duration": 0.1737,
      "velocity": 95,
      "chip": "ym2612"
    },
    {
      "channel": 4,
      "note": 54,
      "start": 29.0378,
      "duration": 0.0775,
      "velocity": 97,
      "chip": "ym2612"
    },
    {
      "channel": 5,
      "note": 45,
      "start": 29.0417,
      "duration": 0.1222,
      "velocity": 127,
      "chip": "ym2612"
    },
    {
      "channel": 1,
      "note": 82,
      "start": 29.1784,
      "duration": 0.1739,
      "velocity": 95,
      "chip": "ym2612"
    },
    {
      "channel": 3,
      "note": 83,
      "start": 29.1952,
      "duration": 0.3481,
      "velocity": 97,
      "chip": "ym2612"
    },
    {
      "channel": 2,
      "note": 78,
      "start": 29.2741,
      "duration": 0.1741,
      "velocity": 95,
      "chip": "ym2612"
    },
    {
      "channel": 4,
      "note": 51,
      "start": 29.2755,
      "duration": 0.078,
      "velocity": 97,
      "chip": "ym2612"
    },
    {
      "channel": 5,
      "note": 57,
      "start": 29.2793,
      "duration": 0.1231,
      "velocity": 115,
      "chip": "ym2612"
    },
    {
      "channel": 4,
      "note": 47,
      "start": 29.402,
      "duration": 0.0788,
      "velocity": 97,
      "chip": "ym2612"
    },
    {
      "channel": 5,
      "note": 57,
      "start": 29.4031,
      "duration": 0.113,
      "velocity": 117,
      "chip": "ym2612"
    },
    {
      "channel": 1,
      "note": 78,
      "start": 29.4165,
      "duration": 0.1739,
      "velocity": 95,
      "chip": "ym2612"
    },
    {
      "channel": 0,
      "note": 83,
      "start": 29.5114,
      "duration": 0.1739,
      "velocity": 97,
      "chip": "ym2612"
    },
    {
      "channel": 5,
      "note": 54,
      "start": 29.5168,
      "duration": 0.127,
      "velocity": 115,
      "chip": "ym2612"
    },
    {
      "channel": 2,
      "note": 83,
      "start": 29.6393,
      "duration": 0.1739,
      "velocity": 95,
      "chip": "ym2612"
    },
    {
      "channel": 4,
      "note": 47,
      "start": 29.6408,
      "duration": 0.173,
      "velocity": 97,
      "chip": "ym2612"
    },
    {
      "channel": 5,
      "note": 57,
      "start": 29.6445,
      "duration": 0.1068,
      "velocity": 115,
      "chip": "ym2612"
    },
    {
      "channel": 3,
      "note": 83,
      "start": 29.6712,
      "duration": 0.1743,
      "velocity": 97,
      "chip": "ym2612"
    },
    {
      "channel": 0,
      "note": 82,
      "start": 29.7495,
      "duration": 0.3485,
      "velocity": 97,
      "chip": "ym2612"
    },
    {
      "channel": 5,
      "note": 57,
      "start": 29.752,
      "duration": 0.13,
      "velocity": 117,
      "chip": "ym2612"
    },
    {
      "channel": 1,
      "note": 83,
      "start": 29.7817,
      "duration": 0.1738,
      "velocity": 95,
      "chip": "ym2612"
    },
    {
      "channel": 2,
      "note": 83,
      "start": 29.8775,
      "duration": 0.0782,
      "velocity": 95,
      "chip": "ym2612"
    },
    {
      "channel": 4,
      "note": 47,
      "start": 29.8789,
      "duration": 0.0774,
      "velocity": 97,
      "chip": "ym2612"
    },
    {
      "channel": 5,
      "note": 54,
      "start": 29.8827,
      "duration": 0.1104,
      "velocity": 127,
      "chip": "ym2612"
    },
    {
      "channel": 3,
      "note": 82,
      "start": 29.9097,
      "duration": 0.3484,
      "velocity": 97,
      "chip": "ym2612"
    },
    {
      "channel": 2,
      "note": 82,
      "start": 29.9886,
      "duration": 0.1739,
      "velocity": 95,
      "chip": "ym2612"
    },
    {
      "channel": 4,
      "note": 51,
      "start": 29.9901,
      "duration": 0.1732,
      "velocity": 97,
      "chip": "ym2612"
    },
    {
      "channel": 5,
      "note": 45,
      "start": 29.9938,
      "duration": 0.1226,
      "velocity": 127,
      "chip": "ym2612"
    },
    {
      "channel": 1,
      "note": 83,
      "start": 30.0199,
      "duration": 0.0783,
      "velocity": 95,
      "chip": "ym2612"
    },
    {
      "channel": 1,
      "note": 82,
      "start": 30.131,
      "duration": 0.1738,
      "velocity": 95,
      "chip": "ym2612"
    },
    {
      "channel": 0,
      "note": 78,
      "start": 30.2258,
      "duration": 0.1739,
      "velocity": 97,
      "chip": "ym2612"
    },
    {
      "channel": 2,
      "note": 78,
      "start": 30.2271,
      "duration": 0.1732,
      "velocity": 95,
      "chip": "ym2612"
    },
    {
      "channel": 4,
      "note": 47,
      "start": 30.2285,
      "duration": 0.1724,
      "velocity": 97,
      "chip": "ym2612"
    },
    {
      "channel": 5,
      "note": 57,
      "start": 30.2323,
      "duration": 0.1222,
      "velocity": 115,
      "chip": "ym2612"
    },
    {
      "channel": 5,
      "note": 57,
      "start": 30.3553,
      "duration": 0.1144,
      "velocity": 117,
      "chip": "ym2612"
    },
    {
      "channel": 1,
      "note": 78,
      "start": 30.369,
      "duration": 0.1739,
      "velocity": 95,
      "chip": "ym2612"
    },
    {
      "channel": 3,
      "note": 78,
      "start": 30.3859,
      "duration": 0.174,
      "velocity": 97,
      "chip": "ym2612"
    },
    {
      "channel": 0,
      "note": 80,
      "start": 30.4639,
      "duration": 0.7296,
      "velocity": 97,
      "chip": "ym2612"
    },
    {
      "channel": 2,
      "note": 80,
      "start": 30.4653,
      "duration": 0.0778,
      "velocity": 95,
      "chip": "ym2612"
    },
    {
      "channel": 4,
      "note": 49,
      "start": 30.4667,
      "duration": 0.1732,
      "velocity": 97,
      "chip": "ym2612"
    },
    {
      "channel": 5,
      "note": 54,
      "start": 30.4704,
      "duration": 0.1255,
      "velocity": 115,
      "chip": "ym2612"
    },
    {
      "channel": 2,
      "note": 82,
      "start": 30.5918,
      "duration": 0.0786,
      "velocity": 95,
      "chip": "ym2612"
    },
    {
      "channel": 5,
      "note": 57,
      "start": 30.5966,
      "duration": 0.108,
      "velocity": 115,
      "chip": "ym2612"
    },
    {
      "channel": 1,
      "note": 80,
      "start": 30.6073,
      "duration": 0.0785,
      "velocity": 95,
      "chip": "ym2612"
    },
    {
      "channel": 3,
      "note": 80,
      "start": 30.6241,
      "duration": 0.7295,
      "velocity": 97,
      "chip": "ym2612"
    },
    {
      "channel": 2,
      "note": 83,
      "start": 30.7029,
      "duration": 0.0788,
      "velocity": 95,
      "chip": "ym2612"
    },
    {
      "channel": 4,
      "note": 61,
      "start": 30.7043,
      "duration": 0.1737,
      "velocity": 97,
      "chip": "ym2612"
    },
    {
      "channel": 5,
      "note": 57,
      "start": 30.7052,
      "duration": 0.126,
      "velocity": 115,
      "chip": "ym2612"
    },
    {
      "channel": 1,
      "note": 82,
      "start": 30.7341,
      "duration": 0.0787,
      "velocity": 95,
      "chip": "ym2612"
    },
    {
      "channel": 2,
      "note": 80,
      "start": 30.8299,
      "duration": 0.0786,
      "velocity": 95,
      "chip": "ym2612"
    },
    {
      "channel": 5,
      "note": 57,
      "start": 30.8319,
      "duration": 0.1137,
      "velocity": 127,
      "chip": "ym2612"
    },
    {
      "channel": 1,
      "note": 83,
      "start": 30.8454,
      "duration": 0.0787,
      "velocity": 95,
      "chip": "ym2612"
    },
    {
      "channel": 2,
      "note": 85,
      "start": 30.941,
      "duration": 0.0787,
      "velocity": 95,
      "chip": "ym2612"
    },
    {
      "channel": 4,
      "note": 49,
      "start": 30.9424,
      "duration": 0.1736,
      "velocity": 97,
      "chip": "ym2612"
    },
    {
      "channel": 5,
      "note": 45,
      "start": 30.9462,
      "duration": 0.1231,
      "velocity": 127,
      "chip": "ym2612"
    },
    {
      "channel": 1,
      "note": 80,
      "start": 30.9723,
      "duration": 0.0787,
      "velocity": 95,
      "chip": "ym2612"
    },
    {
      "channel": 2,
      "note": 83,
      "start": 31.0681,
      "duration": 0.0786,
      "velocity": 95,
      "chip": "ym2612"
    },
    {
      "channel": 1,
      "note": 85,
      "start": 31.0834,
      "duration": 0.0788,
      "velocity": 95,
      "chip": "ym2612"
    },
    {
      "channel": 2,
      "note": 82,
      "start": 31.1792,
      "duration": 0.0786,
      "velocity": 95,
      "chip": "ym2612"
    },
    {
      "channel": 4,
      "note": 61,
      "start": 31.1807,
      "duration": 0.0778,
      "velocity": 97,
      "chip": "ym2612"
    },
    {
      "channel": 5,
      "note": 57,
      "start": 31.1844,
      "duration": 0.1234,
      "velocity": 115,
      "chip": "ym2612"
    },
    {
      "channel": 1,
      "note": 83,
      "start": 31.2104,
      "duration": 0.0786,
      "velocity": 95,
      "chip": "ym2612"
    },
    {
      "channel": 2,
      "note": 80,
      "start": 31.3062,
      "duration": 0.0786,
      "velocity": 95,
      "chip": "ym2612"
    },
    {
      "channel": 4,
      "note": 61,
      "start": 31.3075,
      "duration": 0.078,
      "velocity": 97,
      "chip": "ym2612"
    },
    {
      "channel": 5,
      "note": 57,
      "start": 31.3085,
      "duration": 0.113,
      "velocity": 117,
      "chip": "ym2612"
    },
    {
      "channel": 1,
      "note": 82,
      "start": 31.3216,
      "duration": 0.0786,
      "velocity": 95,
      "chip": "ym2612"
    },
    {
      "channel": 2,
      "note": 78,
      "start": 31.4171,
      "duration": 0.0784,
      "velocity": 95,
      "chip": "ym2612"
    },
    {
      "channel": 4,
      "note": 49,
      "start": 31.4185,
      "duration": 0.173,
      "velocity": 97,
      "chip": "ym2612"
    },
    {
      "channel": 5,
      "note": 54,
      "start": 31.4223,
      "duration": 0.1256,
      "velocity": 115,
      "chip": "ym2612"
    },
    {
      "channel": 1,
      "note": 80,
      "start": 31.4482,
      "duration": 0.0787,
      "velocity": 95,
      "chip": "ym2612"
    },
    {
      "channel": 2,
      "note": 77,
      "start": 31.5438,
      "duration": 0.0788,
      "velocity": 95,
      "chip": "ym2612"
    },
    {
      "channel": 5,
      "note": 57,
      "start": 31.5487,
      "duration": 0.1084,
      "velocity": 115,
      "chip": "ym2612"
    },
    {
      "channel": 1,
      "note": 78,
      "start": 31.5593,
      "duration": 0.0787,
      "velocity": 95,
      "chip": "ym2612"
    },
    {
      "channel": 0,
      "note": 82,
      "start": 31.6545,
      "duration": 0.1739,
      "velocity": 97,
      "chip": "ym2612"
    },
    {
      "channel": 2,
      "note": 78,
      "start": 31.6559,
      "duration": 0.0783,
      "velocity": 95,
      "chip": "ym2612"
    },
    {
      "channel": 4,
      "note": 49,
      "start": 31.6568,
      "duration": 0.1733,
      "velocity": 97,
      "chip": "ym2612"
    },
    {
      "channel": 5,
      "note": 57,
      "start": 31.6578,
      "duration": 0.1283,
      "velocity": 117,
      "chip": "ym2612"
    },
    {
      "channel": 1,
      "note": 77,
      "start": 31.6867,
      "duration": 0.0786,
      "velocity": 95,
      "chip": "ym2612"
    },
    {
      "channel": 2,
      "note": 80,
      "start": 31.7824,
      "duration": 0.0786,
      "velocity": 95,
      "chip": "ym2612"
    },
    {
      "channel": 5,
      "note": 54,
      "start": 31.7868,
      "duration": 0.1117,
      "velocity": 127,
      "chip": "ym2612"
    },
    {
      "channel": 1,
      "note": 78,
      "start": 31.7978,
      "duration": 0.0786,
      "velocity": 95,
      "chip": "ym2612"
    },
    {
      "channel": 3,
      "note": 82,
      "start": 31.8148,
      "duration": 0.1739,
      "velocity": 97,
      "chip": "ym2612"
    },
    {
      "channel": 0,
      "note": 83,
      "start": 31.8926,
      "duration": 0.174,
      "velocity": 97,
      "chip": "ym2612"
    },
    {
      "channel": 2,
      "note": 82,
      "start": 31.8939,
      "duration": 0.0783,
      "velocity": 95,
      "chip": "ym2612"
    },
    {
      "channel": 4,
      "note": 61,
      "start": 31.8954,
      "duration": 0.0775,
      "velocity": 97,
      "chip": "ym2612"
    },
    {
      "channel": 5,
      "note": 45,
      "start": 31.8992,
      "duration": 0.1231,
      "velocity": 127,
      "chip": "ym2612"
    },
    {
      "channel": 1,
      "note": 80,
      "start": 31.9248,
      "duration": 0.0787,
      "velocity": 95,
      "chip": "ym2612"
    },
    {
      "channel": 2,
      "note": 83,
      "start": 32.0205,
      "duration": 0.0787,
      "velocity": 95,
      "chip": "ym2612"
    },
    {
      "channel": 4,
      "note": 49,
      "start": 32.022,
      "duration": 0.1735,
      "velocity": 97,
      "chip": "ym2612"
    },
    {
      "channel": 1,
      "note": 82,
      "start": 32.0359,
      "duration": 0.0787,
      "velocity": 95,
      "chip": "ym2612"
    },
    {
      "channel": 3,
      "note": 83,
      "start": 32.0528,
      "duration": 0.1741,
      "velocity": 97,
      "chip": "ym2612"
    },
    {
      "channel": 0,
      "note": 85,
      "start": 32.1307,
      "duration": 0.174,
      "velocity": 97,
      "chip": "ym2612"
    },
    {
      "channel": 2,
      "note": 85,
      "start": 32.1321,
      "duration": 0.0782,
      "velocity": 95,
      "chip": "ym2612"
    },
    {
      "channel": 5,
      "note": 45,
      "start": 32.134,
      "duration": 0.1263,
      "velocity": 127,
      "chip": "ym2612"
    },
    {
      "channel": 1,
      "note": 83,
      "start": 32.163,
      "duration": 0.0786,
      "velocity": 95,
      "chip": "ym2612"
    },
    {
      "channel": 2,
      "note": 85,
      "start": 32.2586,
      "duration": 0.0787,
      "velocity": 95,
      "chip": "ym2612"
    },
    {
      "channel": 4,
      "note": 61,
      "start": 32.2601,
      "duration": 0.0779,
      "velocity": 97,
      "chip": "ym2612"
    },
    {
      "channel": 5,
      "note": 45,
      "start": 32.2611,
      "duration": 0.1135,
      "velocity": 117,
      "chip": "ym2612"
    },
    {
      "channel": 1,
      "note": 85,
      "start": 32.2741,
      "duration": 0.0786,
      "velocity": 95,
      "chip": "ym2612"
    },
    {
      "channel": 3,
      "note": 85,
      "start": 32.2909,
      "duration": 0.174,
      "velocity": 97,
      "chip": "ym2612"
    },
    {
      "channel": 0,
      "note": 87,
      "start": 32.3689,
      "duration": 0.7296,
      "velocity": 97,
      "chip": "ym2612"
    },
    {
      "channel": 2,
      "note": 87,
      "start": 32.3703,
      "duration": 0.0782,
      "velocity": 95,
      "chip": "ym2612"
    },
    {
      "channel": 4,
      "note": 51,
      "start": 32.3716,
      "duration": 0.0775,
      "velocity": 97,
      "chip": "ym2612"
    },
    {
      "channel": 5,
      "note": 54,
      "start": 32.3754,
      "duration": 0.1251,
      "velocity": 115,
      "chip": "ym2612"
    },
    {
      "channel": 1,
      "note": 85,
      "start": 32.4011,
      "duration": 0.0787,
      "velocity": 95,
      "chip": "ym2612"
    },
    {
      "channel": 5,
      "note": 57,
      "start": 32.5012,
      "duration": 0.1085,
      "velocity": 115,
      "chip": "ym2612"
    },
    {
      "channel": 1,
      "note": 87,
      "start": 32.5122,
      "duration": 0.0786,
      "velocity": 95,
      "chip": "ym2612"
    },
    {
      "channel": 3,
      "note": 87,
      "start": 32.5291,
      "duration": 0.7293,
      "velocity": 97,
      "chip": "ym2612"
    },
    {
      "channel": 2,
      "note": 82,
      "start": 32.608,
      "duration": 0.174,
      "velocity": 95,
      "chip": "ym2612"
    },
    {
      "channel": 4,
      "note": 63,
      "start": 32.6095,
      "duration": 0.1732,
      "velocity": 97,
      "chip": "ym2612"
    },
    {
      "channel": 5,
      "note": 57,
      "start": 32.6105,
      "duration": 0.1253,
      "velocity": 115,
      "chip": "ym2612"
    },
    {
      "channel": 5,
      "note": 57,
      "start": 32.7366,
      "duration": 0.1141,
      "velocity": 127,
      "chip": "ym2612"
    },
    {
      "channel": 1,
      "note": 82,
      "start": 32.7505,
      "duration": 0.1739,
      "velocity": 95,
      "chip": "ym2612"
    },
    {
      "channel": 2,
      "note": 80,
      "start": 32.8461,
      "duration": 0.174,
      "velocity": 95,
      "chip": "ym2612"
    },
    {
      "channel": 4,
      "note": 58,
      "start": 32.8476,
      "duration": 0.0779,
      "velocity": 97,
      "chip": "ym2612"
    },
    {
      "channel": 5,
      "note": 45,
      "start": 32.8513,
      "duration": 0.1227,
      "velocity": 127,
      "chip": "ym2612"
    },
    {
      "channel": 1,
      "note": 80,
      "start": 32.9884,
      "duration": 0.1739,
      "velocity": 95,
      "chip": "ym2612"
    },
    {
      "channel": 2,
      "note": 78,
      "start": 33.0842,
      "duration": 0.174,
      "velocity": 95,
      "chip": "ym2612"
    },
    {
      "channel": 4,
      "note": 54,
      "start": 33.0856,
      "duration": 0.0779,
      "velocity": 97,
      "chip": "ym2612"
    },
    {
      "channel": 5,
      "note": 57,
      "start": 33.0894,
      "duration": 0.1231,
      "velocity": 115,
      "chip": "ym2612"
    },
    {
      "channel": 4,
      "note": 51,
      "start": 33.2122,
      "duration": 0.0786,
      "velocity": 97,
      "chip": "ym2612"
    },
    {
      "channel": 5,
      "note": 57,
      "start": 33.2132,
      "duration": 0.1122,
      "velocity": 117,
      "chip": "ym2612"
    },
    {
      "channel": 1,
      "note": 78,
      "start": 33.2266,
      "duration": 0.1735,
      "velocity": 95,
      "chip": "ym2612"
    },
    {
      "channel": 5,
      "note": 54,
      "start": 33.3262,
      "duration": 0.1273,
      "velocity": 115,
      "chip": "ym2612"
    },
    {
      "channel": 2,
      "note": 78,
      "start": 33.449,
      "duration": 0.1742,
      "velocity": 95,
      "chip": "ym2612"
    },
    {
      "channel": 4,
      "note": 51,
      "start": 33.4505,
      "duration": 0.173,
      "velocity": 97,
      "chip": "ym2612"
    },
    {
      "channel": 5,
      "note": 57,
      "start": 33.4542,
      "duration": 0.1068,
      "velocity": 115,
      "chip": "ym2612"
    },
    {
      "channel": 0,
      "note": 87,
      "start": 33.5595,
      "duration": 0.174,
      "velocity": 97,
      "chip": "ym2612"
    },
    {
      "channel": 5,
      "note": 57,
      "start": 33.5618,
      "duration": 0.1299,
      "velocity": 117,
      "chip": "ym2612"
    },
    {
      "channel": 1,
      "note": 78,
      "start": 33.5918,
      "duration": 0.1739,
      "velocity": 95,
      "chip": "ym2612"
    },
    {
      "channel": 2,
      "note": 78,
      "start": 33.6875,
      "duration": 0.0783,
      "velocity": 95,
      "chip": "ym2612"
    },
    {
      "channel": 4,
      "note": 51,
      "start": 33.6886,
      "duration": 0.0779,
      "velocity": 97,
      "chip": "ym2612"
    },
    {
      "channel": 5,
      "note": 54,
      "start": 33.6924,
      "duration": 0.1113,
      "velocity": 127,
      "chip": "ym2612"
    },
    {
      "channel": 3,
      "note": 87,
      "start": 33.7198,
      "duration": 0.174,
      "velocity": 97,
      "chip": "ym2612"
    },
    {
      "channel": 0,
      "note": 85,
      "start": 33.7976,
      "duration": 0.174,
      "velocity": 97,
      "chip": "ym2612"
    },
    {
      "channel": 2,
      "note": 87,
      "start": 33.799,
      "duration": 0.1732,
      "velocity": 95,
      "chip": "ym2612"
    },
    {
      "channel": 4,
      "note": 54,
      "start": 33.8005,
      "duration": 0.1724,
      "velocity": 97,
      "chip": "ym2612"
    },
    {
      "channel": 5,
      "note": 45,
      "start": 33.8043,
      "duration": 0.1221,
      "velocity": 127,
      "chip": "ym2612"
    },
    {
      "channel": 1,
      "note": 78,
      "start": 33.83,
      "duration": 0.0786,
      "velocity": 95,
      "chip": "ym2612"
    },
    {
      "channel": 1,
      "note": 87,
      "start": 33.9411,
      "duration": 0.1738,
      "velocity": 95,
      "chip": "ym2612"
    },
    {
      "channel": 3,
      "note": 85,
      "start": 33.9578,
      "duration": 0.174,
      "velocity": 97,
      "chip": "ym2612"
    },
    {
      "channel": 0,
      "note": 83,
      "start": 34.0358,
      "duration": 0.174,
      "velocity": 97,
      "chip": "ym2612"
    },
    {
      "channel": 2,
      "note": 82,
      "start": 34.0371,
      "duration": 0.1733,
      "velocity": 95,
      "chip": "ym2612"
    },
    {
      "channel": 4,
      "note": 51,
      "start": 34.0385,
      "duration": 0.1726,
      "velocity": 97,
      "chip": "ym2612"
    },
    {
      "channel": 5,
      "note": 57,
      "start": 34.0422,
      "duration": 0.1223,
      "velocity": 115,
      "chip": "ym2612"
    },
    {
      "channel": 5,
      "note": 57,
      "start": 34.1653,
      "duration": 0.1144,
      "velocity": 117,
      "chip": "ym2612"
    },
    {
      "channel": 1,
      "note": 82,
      "start": 34.1791,
      "duration": 0.1739,
      "velocity": 95,
      "chip": "ym2612"
    },
    {
      "channel": 3,
      "note": 83,
      "start": 34.196,
      "duration": 0.1741,
      "velocity": 97,
      "chip": "ym2612"
    },
    {
      "channel": 0,
      "note": 82,
      "start": 34.2739,
      "duration": 0.174,
      "velocity": 97,
      "chip": "ym2612"
    },
    {
      "channel": 2,
      "note": 77,
      "start": 34.2753,
      "duration": 0.1733,
      "velocity": 95,
      "chip": "ym2612"
    },
    {
      "channel": 4,
      "note": 49,
      "start": 34.2766,
      "duration": 0.0776,
      "velocity": 97,
      "chip": "ym2612"
    },
    {
      "channel": 5,
      "note": 54,
      "start": 34.2804,
      "duration": 0.1251,
      "velocity": 115,
      "chip": "ym2612"
    },
    {
      "channel": 5,
      "note": 57,
      "start": 34.4062,
      "duration": 0.109,
      "velocity": 115,
      "chip": "ym2612"
    },
    {
      "channel": 1,
      "note": 77,
      "start": 34.4172,
      "duration": 0.1739,
      "velocity": 95,
      "chip": "ym2612"
    },
    {
      "channel": 3,
      "note": 82,
      "start": 34.4341,
      "duration": 0.174,
      "velocity": 97,
      "chip": "ym2612"
    },
    {
      "channel": 0,
      "note": 83,
      "start": 34.5122,
      "duration": 0.3484,
      "velocity": 97,
      "chip": "ym2612"
    },
    {
      "channel": 2,
      "note": 80,
      "start": 34.5135,
      "duration": 0.1735,
      "velocity": 95,
      "chip": "ym2612"
    },
    {
      "channel": 4,
      "note": 61,
      "start": 34.5149,
      "duration": 0.1727,
      "velocity": 97,
      "chip": "ym2612"
    },
    {
      "channel": 5,
      "note": 57,
      "start": 34.5159,
      "duration": 0.1249,
      "velocity": 115,
      "chip": "ym2612"
    },
    {
      "channel": 5,
      "note": 57,
      "start": 34.6416,
      "duration": 0.1141,
      "velocity": 127,
      "chip": "ym2612"
    },
    {
      "channel": 1,
      "note": 80,
      "start": 34.6554,
      "duration": 0.1739,
      "velocity": 95,
      "chip": "ym2612"
    },
    {
      "channel": 3,
      "note": 83,
      "start": 34.6723,
      "duration": 0.3484,
      "velocity": 97,
      "chip": "ym2612"
    },
    {
      "channel": 2,
      "note": 82,
      "start": 34.7511,
      "duration": 0.174,
      "velocity": 95,
      "chip": "ym2612"
    },
    {
      "channel": 4,
      "note": 58,
      "start": 34.7526,
      "duration": 0.0779,
      "velocity": 97,
      "chip": "ym2612"
    },
    {
      "channel": 5,
      "note": 45,
      "start": 34.7563,
      "duration": 0.1227,
      "velocity": 127,
      "chip": "ym2612"
    },
    {
      "channel": 1,
      "note": 82,
      "start": 34.8935,
      "duration": 0.1739,
      "velocity": 95,
      "chip": "ym2612"
    },
    {
      "channel": 0,
      "note": 78,
      "start": 34.9883,
      "duration": 0.3485,
      "velocity": 97,
      "chip": "ym2612"
    },
    {
      "channel": 2,
      "note": 83,
      "start": 34.9896,
      "duration": 0.1737,
      "velocity": 95,
      "chip": "ym2612"
    },
    {
      "channel": 4,
      "note": 53,
      "start": 34.991,
      "duration": 0.0776,
      "velocity": 97,
      "chip": "ym2612"
    },
    {
      "channel": 5,
      "note": 57,
      "start": 34.9949,
      "duration": 0.1226,
      "velocity": 115,
      "chip": "ym2612"
    },
    {
      "channel": 4,
      "note": 49,
      "start": 35.1172,
      "duration": 0.0786,
      "velocity": 97,
      "chip": "ym2612"
    },
    {
      "channel": 5,
      "note": 57,
      "start": 35.1182,
      "duration": 0.1132,
      "velocity": 117,
      "chip": "ym2612"
    },
    {
      "channel": 1,
      "note": 83,
      "start": 35.1317,
      "duration": 0.1739,
      "velocity": 95,
      "chip": "ym2612"
    },
    {
      "channel": 3,
      "note": 78,
      "start": 35.1485,
      "duration": 0.3482,
      "velocity": 97,
      "chip": "ym2612"
    },
    {
      "channel": 2,
      "note": 85,
      "start": 35.2275,
      "duration": 0.2691,
      "velocity": 95,
      "chip": "ym2612"
    },
    {
      "channel": 5,
      "note": 54,
      "start": 35.2321,
      "duration": 0.1264,
      "velocity": 115,
      "chip": "ym2612"
    },
    {
      "channel": 4,
      "note": 49,
      "start": 35.3554,
      "duration": 0.1739,
      "velocity": 97,
      "chip": "ym2612"
    },
    {
      "channel": 5,
      "note": 57,
      "start": 35.3592,
      "duration": 0.1078,
      "velocity": 115,
      "chip": "ym2612"
    },
    {
      "channel": 1,
      "note": 85,
      "start": 35.3698,
      "duration": 0.2693,
      "velocity": 95,
      "chip": "ym2612"
    },
    {
      "channel": 0,
      "note": 80,
      "start": 35.4646,
      "duration": 0.539,
      "velocity": 97,
      "chip": "ym2612"
    },
    {
      "channel": 5,
      "note": 57,
      "start": 35.4676,
      "duration": 0.1294,
      "velocity": 117,
      "chip": "ym2612"
    },
    {
      "channel": 2,
      "note": 83,
      "start": 35.5925,
      "duration": 0.2692,
      "velocity": 95,
      "chip": "ym2612"
    },
    {
      "channel": 4,
      "note": 49,
      "start": 35.5939,
      "duration": 0.0782,
      "velocity": 97,
      "chip": "ym2612"
    },
    {
      "channel": 5,
      "note": 54,
      "start": 35.5977,
      "duration": 0.1101,
      "velocity": 127,
      "chip": "ym2612"
    },
    {
      "channel": 3,
      "note": 80,
      "start": 35.6249,
      "duration": 0.5389,
      "velocity": 97,
      "chip": "ym2612"
    },
    {
      "channel": 4,
      "note": 53,
      "start": 35.7047,
      "duration": 0.174,
      "velocity": 97,
      "chip": "ym2612"
    },
    {
      "channel": 5,
      "note": 45,
      "start": 35.7085,
      "duration": 0.123,
      "velocity": 127,
      "chip": "ym2612"
    },
    {
      "channel": 1,
      "note": 83,
      "start": 35.7349,
      "duration": 0.2688,
      "velocity": 95,
      "chip": "ym2612"
    },
    {
      "channel": 2,
      "note": 82,
      "start": 35.9419,
      "duration": 0.1739,
      "velocity": 95,
      "chip": "ym2612"
    },
    {
      "channel": 4,
      "note": 49,
      "start": 35.9433,
      "duration": 0.1732,
      "velocity": 97,
      "chip": "ym2612"
    },
    {
      "channel": 5,
      "note": 57,
      "start": 35.9471,
      "duration": 0.1226,
      "velocity": 115,
      "chip": "ym2612"
    },
    {
      "channel": 5,
      "note": 57,
      "start": 36.0704,
      "duration": 0.1144,
      "velocity": 117,
      "chip": "ym2612"
    },
    {
      "channel": 1,
      "note": 82,
      "start": 36.0843,
      "duration": 0.1738,
      "velocity": 95,
      "chip": "ym2612"
    },
    {
      "channel": 0,
      "note": 83,
      "start": 36.179,
      "duration": 0.7296,
      "velocity": 97,
      "chip": "ym2612"
    },
    {
      "channel": 2,
      "note": 83,
      "start": 36.1804,
      "duration": 0.1735,
      "velocity": 95,
      "chip": "ym2612"
    },
    {
      "channel": 4,
      "note": 47,
      "start": 36.1818,
      "duration": 0.0774,
      "velocity": 97,
      "chip": "ym2612"
    },
    {
      "channel": 5,
      "note": 54,
      "start": 36.1856,
      "duration": 0.125,
      "velocity": 115,
      "chip": "ym2612"
    },
    {
      "channel": 5,
      "note": 57,
      "start": 36.3113,
      "duration": 0.1084,
      "velocity": 115,
      "chip": "ym2612"
    },
    {
      "channel": 1,
      "note": 83,
      "start": 36.3223,
      "duration": 0.1739,
      "velocity": 95,
      "chip": "ym2612"
    },
    {
      "channel": 3,
      "note": 83,
      "start": 36.3393,
      "duration": 0.7292,
      "velocity": 97,
      "chip": "ym2612"
    },
    {
      "channel": 2,
      "note": 83,
      "start": 36.4181,
      "duration": 0.174,
      "velocity": 95,
      "chip": "ym2612"
    },
    {
      "channel": 4,
      "note": 59,
      "start": 36.4195,
      "duration": 0.1732,
      "velocity": 97,
      "chip": "ym2612"
    },
    {
      "channel": 5,
      "note": 57,
      "start": 36.4205,
      "duration": 0.1254,
      "velocity": 115,
      "chip": "ym2612"
    },
    {
      "channel": 5,
      "note": 57,
      "start": 36.5466,
      "duration": 0.1141,
      "velocity": 127,
      "chip": "ym2612"
    },
    {
      "channel": 1,
      "note": 83,
      "start": 36.5604,
      "duration": 0.1739,
      "velocity": 95,
      "chip": "ym2612"
    },
    {
      "channel": 2,
      "note": 82,
      "start": 36.6562,
      "duration": 0.174,
      "velocity": 95,
      "chip": "ym2612"
    },
    {
      "channel": 4,
      "note": 54,
      "start": 36.6576,
      "duration": 0.0778,
      "velocity": 97,
      "chip": "ym2612"
    },
    {
      "channel": 5,
      "note": 45,
      "start": 36.6615,
      "duration": 0.1226,
      "velocity": 127,
      "chip": "ym2612"
    },
    {
      "channel": 1,
      "note": 82,
      "start": 36.7985,
      "duration": 0.1739,
      "velocity": 95,
      "chip": "ym2612"
    },
    {
      "channel": 2,
      "note": 78,
      "start": 36.8943,
      "duration": 0.1741,
      "velocity": 95,
      "chip": "ym2612"
    },
    {
      "channel": 4,
      "note": 51,
      "start": 36.8957,
      "duration": 0.0779,
      "velocity": 97,
      "chip": "ym2612"
    },
    {
      "channel": 5,
      "note": 57,
      "start": 36.8994,
      "duration": 0.1231,
      "velocity": 115,
      "chip": "ym2612"
    },
    {
      "channel": 4,
      "note": 47,
      "start": 37.0223,
      "duration": 0.0787,
      "velocity": 97,
      "chip": "ym2612"
    },
    {
      "channel": 5,
      "note": 57,
      "start": 37.0233,
      "duration": 0.1129,
      "velocity": 117,
      "chip": "ym2612"
    },
    {
      "channel": 1,
      "note": 78,
      "start": 37.0366,
      "duration": 0.174,
      "velocity": 95,
      "chip": "ym2612"
    },
    {
      "channel": 0,
      "note": 83,
      "start": 37.1315,
      "duration": 0.2691,
      "velocity": 97,
      "chip": "ym2612"
    },
    {
      "channel": 5,
      "note": 54,
      "start": 37.1369,
      "duration": 0.1271,
      "velocity": 115,
      "chip": "ym2612"
    },
    {
      "channel": 2,
      "note": 83,
      "start": 37.2595,
      "duration": 0.1739,
      "velocity": 95,
      "chip": "ym2612"
    },
    {
      "channel": 4,
      "note": 47,
      "start": 37.2609,
      "duration": 0.173,
      "velocity": 97,
      "chip": "ym2612"
    },
    {
      "channel": 5,
      "note": 57,
      "start": 37.2647,
      "duration": 0.1064,
      "velocity": 115,
      "chip": "ym2612"
    },
    {
      "channel": 3,
      "note": 83,
      "start": 37.2913,
      "duration": 0.2695,
      "velocity": 97,
      "chip": "ym2612"
    },
    {
      "channel": 5,
      "note": 57,
      "start": 37.3717,
      "duration": 0.1308,
      "velocity": 117,
      "chip": "ym2612"
    },
    {
      "channel": 1,
      "note": 83,
      "start": 37.4016,
      "duration": 0.1742,
      "velocity": 95,
      "chip": "ym2612"
    },
    {
      "channel": 0,
      "note": 82,
      "start": 37.4966,
      "duration": 0.2692,
      "velocity": 97,
      "chip": "ym2612"
    },
    {
      "channel": 2,
      "note": 83,
      "start": 37.498,
      "duration": 0.0779,
      "velocity": 95,
      "chip": "ym2612"
    },
    {
      "channel": 4,
      "note": 47,
      "start": 37.4995,
      "duration": 0.0771,
      "velocity": 97,
      "chip": "ym2612"
    },
    {
      "channel": 5,
      "note": 54,
      "start": 37.5032,
      "duration": 0.11,
      "velocity": 127,
      "chip": "ym2612"
    },
    {
      "channel": 2,
      "note": 82,
      "start": 37.6088,
      "duration": 0.1739,
      "velocity": 95,
      "chip": "ym2612"
    },
    {
      "channel": 4,
      "note": 51,
      "start": 37.6102,
      "duration": 0.1732,
      "velocity": 97,
      "chip": "ym2612"
    },
    {
      "channel": 5,
      "note": 45,
      "start": 37.614,
      "duration": 0.1226,
      "velocity": 127,
      "chip": "ym2612"
    },
    {
      "channel": 1,
      "note": 83,
      "start": 37.6401,
      "duration": 0.0785,
      "velocity": 95,
      "chip": "ym2612"
    },
    {
      "channel": 3,
      "note": 82,
      "start": 37.6568,
      "duration": 0.2688,
      "velocity": 97,
      "chip": "ym2612"
    },
    {
      "channel": 1,
      "note": 82,
      "start": 37.7511,
      "duration": 0.1739,
      "velocity": 95,
      "chip": "ym2612"
    },
    {
      "channel": 0,
      "note": 80,
      "start": 37.8459,
      "duration": 0.1739,
      "velocity": 97,
      "chip": "ym2612"
    },
    {
      "channel": 2,
      "note": 78,
      "start": 37.8473,
      "duration": 0.1732,
      "velocity": 95,
      "chip": "ym2612"
    },
    {
      "channel": 4,
      "note": 47,
      "start": 37.8487,
      "duration": 0.1724,
      "velocity": 97,
      "chip": "ym2612"
    },
    {
      "channel": 5,
      "note": 57,
      "start": 37.8524,
      "duration": 0.1222,
      "velocity": 115,
      "chip": "ym2612"
    },
    {
      "channel": 5,
      "note": 57,
      "start": 37.9754,
      "duration": 0.1144,
      "velocity": 117,
      "chip": "ym2612"
    },
    {
      "channel": 1,
      "note": 78,
      "start": 37.9892,
      "duration": 0.1739,
      "velocity": 95,
      "chip": "ym2612"
    },
    {
      "channel": 3,
      "note": 80,
      "start": 38.0061,
      "duration": 0.174,
      "velocity": 97,
      "chip": "ym2612"
    },
    {
      "channel": 0,
      "note": 80,
      "start": 38.084,
      "duration": 0.2691,
      "velocity": 97,
      "chip": "ym2612"
    },
    {
      "channel": 2,
      "note": 80,
      "start": 38.0855,
      "duration": 0.0778,
      "velocity": 95,
      "chip": "ym2612"
    },
    {
      "channel": 4,
      "note": 49,
      "start": 38.0868,
      "duration": 0.1732,
      "velocity": 97,
      "chip": "ym2612"
    },
    {
      "channel": 5,
      "note": 54,
      "start": 38.0906,
      "duration": 0.1254,
      "velocity": 115,
      "chip": "ym2612"
    },
    {
      "channel": 2,
      "note": 82,
      "start": 38.212,
      "duration": 0.0786,
      "velocity": 95,
      "chip": "ym2612"
    },
    {
      "channel": 5,
      "note": 57,
      "start": 38.2167,
      "duration": 0.1079,
      "velocity": 115,
      "chip": "ym2612"
    },
    {
      "channel": 1,
      "note": 80,
      "start": 38.2274,
      "duration": 0.0786,
      "velocity": 95,
      "chip": "ym2612"
    },
    {
      "channel": 3,
      "note": 80,
      "start": 38.2443,
      "duration": 0.269,
      "velocity": 97,
      "chip": "ym2612"
    },
    {
      "channel": 2,
      "note": 83,
      "start": 38.323,
      "duration": 0.0787,
      "velocity": 95,
      "chip": "ym2612"
    },
    {
      "channel": 4,
      "note": 61,
      "start": 38.3244,
      "duration": 0.1737,
      "velocity": 97,
      "chip": "ym2612"
    },
    {
      "channel": 5,
      "note": 57,
      "start": 38.3254,
      "duration": 0.1263,
      "velocity": 115,
      "chip": "ym2612"
    },
    {
      "channel": 1,
      "note": 82,
      "start": 38.354,
      "duration": 0.0789,
      "velocity": 95,
      "chip": "ym2612"
    },
    {
      "channel": 0,
      "note": 78,
      "start": 38.4491,
      "duration": 0.2691,
      "velocity": 97,
      "chip": "ym2612"
    },
    {
      "channel": 2,
      "note": 80,
      "start": 38.4505,
      "duration": 0.0783,
      "velocity": 95,
      "chip": "ym2612"
    },
    {
      "channel": 5,
      "note": 57,
      "start": 38.4524,
      "duration": 0.1132,
      "velocity": 127,
      "chip": "ym2612"
    },
    {
      "channel": 1,
      "note": 83,
      "start": 38.4655,
      "duration": 0.0787,
      "velocity": 95,
      "chip": "ym2612"
    },
    {
      "channel": 2,
      "note": 85,
      "start": 38.5612,
      "duration": 0.0786,
      "velocity": 95,
      "chip": "ym2612"
    },
    {
      "channel": 4,
      "note": 49,
      "start": 38.5626,
      "duration": 0.1736,
      "velocity": 97,
      "chip": "ym2612"
    },
    {
      "channel": 5,
      "note": 45,
      "start": 38.5663,
      "duration": 0.1232,
      "velocity": 127,
      "chip": "ym2612"
    },
    {
      "channel": 1,
      "note": 80,
      "start": 38.5925,
      "duration": 0.0786,
      "velocity": 95,
      "chip": "ym2612"
    },
    {
      "channel": 3,
      "note": 78,
      "start": 38.6093,
      "duration": 0.2689,
      "velocity": 97,
      "chip": "ym2612"
    },
    {
      "channel": 2,
      "note": 83,
      "start": 38.6882,
      "duration": 0.0786,
      "velocity": 95,
      "chip": "ym2612"
    },
    {
      "channel": 1,
      "note": 85,
      "start": 38.7036,
      "duration": 0.0787,
      "velocity": 95,
      "chip": "ym2612"
    },
    {
      "channel": 0,
      "note": 77,
      "start": 38.7984,
      "duration": 0.174,
      "velocity": 97,
      "chip": "ym2612"
    },
    {
      "channel": 2,
      "note": 82,
      "start": 38.7998,
      "duration": 0.0782,
      "velocity": 95,
      "chip": "ym2612"
    },
    {
      "channel": 4,
      "note": 61,
      "start": 38.8012,
      "duration": 0.0772,
      "velocity": 97,
      "chip": "ym2612"
    },
    {
      "channel": 5,
      "note": 57,
      "start": 38.805,
      "duration": 0.123,
      "velocity": 115,
      "chip": "ym2612"
    },
    {
      "channel": 1,
      "note": 83,
      "start": 38.8306,
      "duration": 0.0787,
      "velocity": 95,
      "chip": "ym2612"
    },
    {
      "channel": 2,
      "note": 80,
      "start": 38.9263,
      "duration": 0.0786,
      "velocity": 95,
      "chip": "ym2612"
    },
    {
      "channel": 4,
      "note": 61,
      "start": 38.9277,
      "duration": 0.078,
      "velocity": 97,
      "chip": "ym2612"
    },
    {
      "channel": 5,
      "note": 57,
      "start": 38.9287,
      "duration": 0.1137,
      "velocity": 117,
      "chip": "ym2612"
    },
    {
      "channel": 1,
      "note": 82,
      "start": 38.9417,
      "duration": 0.0786,
      "velocity": 95,
      "chip": "ym2612"
    },
    {
      "channel": 3,
      "note": 77,
      "start": 38.9586,
      "duration": 0.1739,
      "velocity": 97,
      "chip": "ym2612"
    },
    {
      "channel": 0,
      "note": 78,
      "start": 39.0366,
      "duration": 0.3485,
      "velocity": 97,
      "chip": "ym2612"
    },
    {
      "channel": 2,
      "note": 78,
      "start": 39.0379,
      "duration": 0.0782,
      "velocity": 95,
      "chip": "ym2612"
    },
    {
      "channel": 4,
      "note": 49,
      "start": 39.0394,
      "duration": 0.1732,
      "velocity": 97,
      "chip": "ym2612"
    },
    {
      "channel": 5,
      "note": 54,
      "start": 39.0431,
      "duration": 0.1254,
      "velocity": 115,
      "chip": "ym2612"
    },
    {
      "channel": 1,
      "note": 80,
      "start": 39.0687,
      "duration": 0.0787,
      "velocity": 95,
      "chip": "ym2612"
    },
    {
      "channel": 2,
      "note": 77,
      "start": 39.1644,
      "duration": 0.0787,
      "velocity": 95,
      "chip": "ym2612"
    },
    {
      "channel": 5,
      "note": 57,
      "start": 39.1692,
      "duration": 0.108,
      "velocity": 115,
      "chip": "ym2612"
    },
    {
      "channel": 1,
      "note": 78,
      "start": 39.1798,
      "duration": 0.0787,
      "velocity": 95,
      "chip": "ym2612"
    },
    {
      "channel": 3,
      "note": 78,
      "start": 39.1968,
      "duration": 0.3488,
      "velocity": 97,
      "chip": "ym2612"
    },
    {
      "channel": 2,
      "note": 78,
      "start": 39.2756,
      "duration": 0.0787,
      "velocity": 95,
      "chip": "ym2612"
    },
    {
      "channel": 4,
      "note": 49,
      "start": 39.277,
      "duration": 0.1736,
      "velocity": 97,
      "chip": "ym2612"
    },
    {
      "channel": 5,
      "note": 57,
      "start": 39.2779,
      "duration": 0.1287,
      "velocity": 117,
      "chip": "ym2612"
    },
    {
      "channel": 1,
      "note": 77,
      "start": 39.3069,
      "duration": 0.0783,
      "velocity": 95,
      "chip": "ym2612"
    },
    {
      "channel": 2,
      "note": 80,
      "start": 39.4025,
      "duration": 0.0787,
      "velocity": 95,
      "chip": "ym2612"
    },
    {
      "channel": 5,
      "note": 54,
      "start": 39.4073,
      "duration": 0.1114,
      "velocity": 127,
      "chip": "ym2612"
    },
    {
      "channel": 1,
      "note": 78,
      "start": 39.418,
      "duration": 0.0786,
      "velocity": 95,
      "chip": "ym2612"
    },
    {
      "channel": 0,
      "note": 73,
      "start": 39.5127,
      "duration": 0.3486,
      "velocity": 97,
      "chip": "ym2612"
    },
    {
      "channel": 2,
      "note": 82,
      "start": 39.5141,
      "duration": 0.0783,
      "velocity": 95,
      "chip": "ym2612"
    },
    {
      "channel": 4,
      "note": 61,
      "start": 39.5156,
      "duration": 0.0774,
      "velocity": 97,
      "chip": "ym2612"
    },
    {
      "channel": 5,
      "note": 45,
      "start": 39.5194,
      "duration": 0.123,
      "velocity": 127,
      "chip": "ym2612"
    },
    {
      "channel": 1,
      "note": 80,
      "start": 39.545,
      "duration": 0.0787,
      "velocity": 95,
      "chip": "ym2612"
    },
    {
      "channel": 2,
      "note": 83,
      "start": 39.6407,
      "duration": 0.0787,
      "velocity": 95,
      "chip": "ym2612"
    },
    {
      "channel": 4,
      "note": 49,
      "start": 39.6422,
      "duration": 0.1735,
      "velocity": 97,
      "chip": "ym2612"
    },
    {
      "channel": 1,
      "note": 82,
      "start": 39.6561,
      "duration": 0.0787,
      "velocity": 95,
      "chip": "ym2612"
    },
    {
      "channel": 3,
      "note": 73,
      "start": 39.673,
      "duration": 0.3489,
      "velocity": 97,
      "chip": "ym2612"
    },
    {
      "channel": 2,
      "note": 85,
      "start": 39.7518,
      "duration": 0.0787,
      "velocity": 95,
      "chip": "ym2612"
    },
    {
      "channel": 5,
      "note": 45,
      "start": 39.7538,
      "duration": 0.1267,
      "velocity": 127,
      "chip": "ym2612"
    },
    {
      "channel": 1,
      "note": 83,
      "start": 39.7832,
      "duration": 0.0784,
      "velocity": 95,
      "chip": "ym2612"
    },
    {
      "channel": 2,
      "note": 83,
      "start": 39.8788,
      "duration": 0.0787,
      "velocity": 95,
      "chip": "ym2612"
    },
    {
      "channel": 4,
      "note": 61,
      "start": 39.8803,
      "duration": 0.0779,
      "velocity": 97,
      "chip": "ym2612"
    },
    {
      "channel": 5,
      "note": 45,
      "start": 39.8813,
      "duration": 0.1136,
      "velocity": 117,
      "chip": "ym2612"
    },
    {
      "channel": 1,
      "note": 85,
      "start": 39.8942,
      "duration": 0.0787,
      "velocity": 95,
      "chip": "ym2612"
    },
    {
      "channel": 0,
      "note": 75,
      "start": 39.9891,
      "duration": 0.7296,
      "velocity": 97,
      "chip": "ym2612"
    },
    {
      "channel": 2,
      "note": 82,
      "start": 39.9905,
      "duration": 0.0782,
      "velocity": 95,
      "chip": "ym2612"
    },
    {
      "channel": 4,
      "note": 51,
      "start": 39.9919,
      "duration": 0.0774,
      "velocity": 97,
      "chip": "ym2612"
    },
    {
      "channel": 5,
      "note": 54,
      "start": 39.9956,
      "duration": 0.125,
      "velocity": 115,
      "chip": "ym2612"
    },
    {
      "channel": 1,
      "note": 83,
      "start": 40.0212,
      "duration": 0.0787,
      "velocity": 95,
      "chip": "ym2612"
    },
    {
      "channel": 5,
      "note": 57,
      "start": 40.1214,
      "duration": 0.1086,
      "velocity": 115,
      "chip": "ym2612"
    },
    {
      "channel": 1,
      "note": 82,
      "start": 40.1324,
      "duration": 0.0785,
      "velocity": 95,
      "chip": "ym2612"
    },
    {
      "channel": 3,
      "note": 75,
      "start": 40.1493,
      "duration": 0.7293,
      "velocity": 97,
      "chip": "ym2612"
    },
    {
      "channel": 2,
      "note": 82,
      "start": 40.2283,
      "duration": 0.1739,
      "velocity": 95,
      "chip": "ym2612"
    },
    {
      "channel": 4,
      "note": 63,
      "start": 40.2296,
      "duration": 0.1732,
      "velocity": 97,
      "chip": "ym2612"
    },
    {
      "channel": 5,
      "note": 57,
      "start": 40.2307,
      "duration": 0.1253,
      "velocity": 115,
      "chip": "ym2612"
    },
    {
      "channel": 5,
      "note": 57,
      "start": 40.3567,
      "duration": 0.1141,
      "velocity": 127,
      "chip": "ym2612"
    },
    {
      "channel": 1,
      "note": 82,
      "start": 40.3706,
      "duration": 0.1739,
      "velocity": 95,
      "chip": "ym2612"
    },
    {
      "channel": 2,
      "note": 80,
      "start": 40.4662,
      "duration": 0.1741,
      "velocity": 95,
      "chip": "ym2612"
    },
    {
      "channel": 4,
      "note": 58,
      "start": 40.4678,
      "duration": 0.0778,
      "velocity": 97,
      "chip": "ym2612"
    },
    {
      "channel": 5,
      "note": 45,
      "start": 40.4715,
      "duration": 0.1227,
      "velocity": 127,
      "chip": "ym2612"
    },
    {
      "channel": 1,
      "note": 80,
      "start": 40.6086,
      "duration": 0.1739,
      "velocity": 95,
      "chip": "ym2612"
    },
    {
      "channel": 2,
      "note": 78,
      "start": 40.7044,
      "duration": 0.174,
      "velocity": 95,
      "chip": "ym2612"
    },
    {
      "channel": 4,
      "note": 54,
      "start": 40.7057,
      "duration": 0.0779,
      "velocity": 97,
      "chip": "ym2612"
    },
    {
      "channel": 5,
      "note": 57,
      "start": 40.7095,
      "duration": 0.1231,
      "velocity": 115,
      "chip": "ym2612"
    },
    {
      "channel": 4,
      "note": 51,
      "start": 40.8324,
      "duration": 0.0786,
      "velocity": 97,
      "chip": "ym2612"
    },
    {
      "channel": 5,
      "note": 57,
      "start": 40.8333,
      "duration": 0.1123,
      "velocity": 117,
      "chip": "ym2612"
    },
    {
      "channel": 1,
      "note": 78,
      "start": 40.8468,
      "duration": 0.1735,
      "velocity": 95,
      "chip": "ym2612"
    },
    {
      "channel": 5,
      "note": 54,
      "start": 40.9464,
      "duration": 0.1273,
      "velocity": 115,
      "chip": "ym2612"
    },
    {
      "channel": 2,
      "note": 78,
      "start": 41.0691,
      "duration": 0.1742,
      "velocity": 95,
      "chip": "ym2612"
    },
    {
      "channel": 4,
      "note": 51,
      "start": 41.0706,
      "duration": 0.173,
      "velocity": 97,
      "chip": "ym2612"
    },
    {
      "channel": 5,
      "note": 57,
      "start": 41.0744,
      "duration": 0.1068,
      "velocity": 115,
      "chip": "ym2612"
    },
    {
      "channel": 0,
      "note": 75,
      "start": 41.1798,
      "duration": 0.1739,
      "velocity": 97,
      "chip": "ym2612"
    },
    {
      "channel": 5,
      "note": 57,
      "start": 41.1819,
      "duration": 0.1299,
      "velocity": 117,
      "chip": "ym2612"
    },
    {
      "channel": 1,
      "note": 78,
      "start": 41.212,
      "duration": 0.1738,
      "velocity": 95,
      "chip": "ym2612"
    },
    {
      "channel": 2,
      "note": 78,
      "start": 41.3077,
      "duration": 0.0783,
      "velocity": 95,
      "chip": "ym2612"
    },
    {
      "channel": 4,
      "note": 51,
      "start": 41.3088,
      "duration": 0.0779,
      "velocity": 97,
      "chip": "ym2612"
    },
    {
      "channel": 5,
      "note": 54,
      "start": 41.3125,
      "duration": 0.1112,
      "velocity": 127,
      "chip": "ym2612"
    },
    {
      "channel": 3,
      "note": 75,
      "start": 41.34,
      "duration": 0.174,
      "velocity": 97,
      "chip": "ym2612"
    },
    {
      "channel": 0,
      "note": 77,
      "start": 41.4178,
      "duration": 0.174,
      "velocity": 97,
      "chip": "ym2612"
    },
    {
      "channel": 2,
      "note": 87,
      "start": 41.4192,
      "duration": 0.1732,
      "velocity": 95,
      "chip": "ym2612"
    },
    {
      "channel": 4,
      "note": 54,
      "start": 41.4207,
      "duration": 0.1724,
      "velocity": 97,
      "chip": "ym2612"
    },
    {
      "channel": 5,
      "note": 45,
      "start": 41.4244,
      "duration": 0.1222,
      "velocity": 127,
      "chip": "ym2612"
    },
    {
      "channel": 1,
      "note": 78,
      "start": 41.4501,
      "duration": 0.0786,
      "velocity": 95,
      "chip": "ym2612"
    },
    {
      "channel": 1,
      "note": 87,
      "start": 41.5613,
      "duration": 0.1738,
      "velocity": 95,
      "chip": "ym2612"
    },
    {
      "channel": 3,
      "note": 77,
      "start": 41.578,
      "duration": 0.1741,
      "velocity": 97,
      "chip": "ym2612"
    },
    {
      "channel": 0,
      "note": 78,
      "start": 41.6559,
      "duration": 0.174,
      "velocity": 97,
      "chip": "ym2612"
    },
    {
      "channel": 2,
      "note": 82,
      "start": 41.6573,
      "duration": 0.1733,
      "velocity": 95,
      "chip": "ym2612"
    },
    {
      "channel": 4,
      "note": 51,
      "start": 41.6586,
      "duration": 0.1726,
      "velocity": 97,
      "chip": "ym2612"
    },
    {
      "channel": 5,
      "note": 57,
      "start": 41.6624,
      "duration": 0.1224,
      "velocity": 115,
      "chip": "ym2612"
    },
    {
      "channel": 5,
      "note": 57,
      "start": 41.7855,
      "duration": 0.1144,
      "velocity": 117,
      "chip": "ym2612"
    },
    {
      "channel": 1,
      "note": 82,
      "start": 41.7993,
      "duration": 0.1739,
      "velocity": 95,
      "chip": "ym2612"
    },
    {
      "channel": 3,
      "note": 78,
      "start": 41.8161,
      "duration": 0.1741,
      "velocity": 97,
      "chip": "ym2612"
    },
    {
      "channel": 0,
      "note": 82,
      "start": 41.8941,
      "duration": 0.174,
      "velocity": 97,
      "chip": "ym2612"
    },
    {
      "channel": 2,
      "note": 77,
      "start": 41.8954,
      "duration": 0.1733,
      "velocity": 95,
      "chip": "ym2612"
    },
    {
      "channel": 4,
      "note": 49,
      "start": 41.8969,
      "duration": 0.0775,
      "velocity": 97,
      "chip": "ym2612"
    },
    {
      "channel": 5,
      "note": 54,
      "start": 41.9006,
      "duration": 0.1251,
      "velocity": 115,
      "chip": "ym2612"
    },
    {
      "channel": 5,
      "note": 57,
      "start": 42.0264,
      "duration": 0.109,
      "velocity": 115,
      "chip": "ym2612"
    },
    {
      "channel": 1,
      "note": 77,
      "start": 42.0375,
      "duration": 0.1739,
      "velocity": 95,
      "chip": "ym2612"
    },
    {
      "channel": 3,
      "note": 82,
      "start": 42.0543,
      "duration": 0.1741,
      "velocity": 97,
      "chip": "ym2612"
    },
    {
      "channel": 0,
      "note": 83,
      "start": 42.1322,
      "duration": 0.3485,
      "velocity": 97,
      "chip": "ym2612"
    },
    {
      "channel": 2,
      "note": 80,
      "start": 42.1337,
      "duration": 0.1736,
      "velocity": 95,
      "chip": "ym2612"
    },
    {
      "channel": 4,
      "note": 61,
      "start": 42.1351,
      "duration": 0.1728,
      "velocity": 97,
      "chip": "ym2612"
    },
    {
      "channel": 5,
      "note": 57,
      "start": 42.1361,
      "duration": 0.1249,
      "velocity": 115,
      "chip": "ym2612"
    },
    {
      "channel": 5,
      "note": 57,
      "start": 42.2618,
      "duration": 0.1141,
      "velocity": 127,
      "chip": "ym2612"
    },
    {
      "channel": 1,
      "note": 80,
      "start": 42.2756,
      "duration": 0.1739,
      "velocity": 95,
      "chip": "ym2612"
    },
    {
      "channel": 3,
      "note": 83,
      "start": 42.2925,
      "duration": 0.3485,
      "velocity": 97,
      "chip": "ym2612"
    },
    {
      "channel": 2,
      "note": 82,
      "start": 42.3713,
      "duration": 0.174,
      "velocity": 95,
      "chip": "ym2612"
    },
    {
      "channel": 4,
      "note": 58,
      "start": 42.3728,
      "duration": 0.0779,
      "velocity": 97,
      "chip": "ym2612"
    },
    {
      "channel": 5,
      "note": 45,
      "start": 42.3765,
      "duration": 0.1226,
      "velocity": 127,
      "chip": "ym2612"
    },
    {
      "channel": 1,
      "note": 82,
      "start": 42.5137,
      "duration": 0.1739,
      "velocity": 95,
      "chip": "ym2612"
    },
    {
      "channel": 0,
      "note": 85,
      "start": 42.6085,
      "duration": 0.3485,
      "velocity": 97,
      "chip": "ym2612"
    },
    {
      "channel": 2,
      "note": 83,
      "start": 42.6098,
      "duration": 0.1737,
      "velocity": 95,
      "chip": "ym2612"
    },
    {
      "channel": 4,
      "note": 53,
      "start": 42.6112,
      "duration": 0.0775,
      "velocity": 97,
      "chip": "ym2612"
    },
    {
      "channel": 5,
      "note": 57,
      "start": 42.615,
      "duration": 0.1227,
      "velocity": 115,
      "chip": "ym2612"
    },
    {
      "channel": 4,
      "note": 49,
      "start": 42.7374,
      "duration": 0.0786,
      "velocity": 97,
      "chip": "ym2612"
    },
    {
      "channel": 5,
      "note": 57,
      "start": 42.7384,
      "duration": 0.1132,
      "velocity": 117,
      "chip": "ym2612"
    },
    {
      "channel": 1,
      "note": 83,
      "start": 42.7518,
      "duration": 0.1739,
      "velocity": 95,
      "chip": "ym2612"
    },
    {
      "channel": 3,
      "note": 85,
      "start": 42.7686,
      "duration": 0.3482,
      "velocity": 97,
      "chip": "ym2612"
    },
    {
      "channel": 2,
      "note": 85,
      "start": 42.8476,
      "duration": 0.2691,
      "velocity": 95,
      "chip": "ym2612"
    },
    {
      "channel": 5,
      "note": 54,
      "start": 42.8522,
      "duration": 0.1264,
      "velocity": 115,
      "chip": "ym2612"
    },
    {
      "channel": 4,
      "note": 49,
      "start": 42.9756,
      "duration": 0.1739,
      "velocity": 97,
      "chip": "ym2612"
    },
    {
      "channel": 5,
      "note": 57,
      "start": 42.9794,
      "duration": 0.1077,
      "velocity": 115,
      "chip": "ym2612"
    },
    {
      "channel": 1,
      "note": 85,
      "start": 42.99,
      "duration": 0.2692,
      "velocity": 95,
      "chip": "ym2612"
    },
    {
      "channel": 0,
      "note": 82,
      "start": 43.0848,
      "duration": 0.539,
      "velocity": 97,
      "chip": "ym2612"
    },
    {
      "channel": 5,
      "note": 57,
      "start": 43.0878,
      "duration": 0.1293,
      "velocity": 117,
      "chip": "ym2612"
    },
    {
      "channel": 2,
      "note": 83,
      "start": 43.2127,
      "duration": 0.2692,
      "velocity": 95,
      "chip": "ym2612"
    },
    {
      "channel": 4,
      "note": 49,
      "start": 43.2141,
      "duration": 0.0782,
      "velocity": 97,
      "chip": "ym2612"
    },
    {
      "channel": 5,
      "note": 54,
      "start": 43.2179,
      "duration": 0.1101,
      "velocity": 127,
      "chip": "ym2612"
    },
    {
      "channel": 3,
      "note": 82,
      "start": 43.245,
      "duration": 0.5389,
      "velocity": 97,
      "chip": "ym2612"
    },
    {
      "channel": 4,
      "note": 53,
      "start": 43.3249,
      "duration": 0.174,
      "velocity": 97,
      "chip": "ym2612"
    },
    {
      "channel": 5,
      "note": 45,
      "start": 43.3287,
      "duration": 0.123,
      "velocity": 127,
      "chip": "ym2612"
    },
    {
      "channel": 1,
      "note": 83,
      "start": 43.3551,
      "duration": 0.2688,
      "velocity": 95,
      "chip": "ym2612"
    },
    {
      "channel": 2,
      "note": 82,
      "start": 43.562,
      "duration": 0.1739,
      "velocity": 95,
      "chip": "ym2612"
    },
    {
      "channel": 4,
      "note": 49,
      "start": 43.5634,
      "duration": 0.1732,
      "velocity": 97,
      "chip": "ym2612"
    },
    {
      "channel": 5,
      "note": 57,
      "start": 43.5672,
      "duration": 0.1227,
      "velocity": 115,
      "chip": "ym2612"
    },
    {
      "channel": 5,
      "note": 57,
      "start": 43.6906,
      "duration": 0.1145,
      "velocity": 117,
      "chip": "ym2612"
    },
    {
      "channel": 1,
      "note": 82,
      "start": 43.7044,
      "duration": 0.1738,
      "velocity": 95,
      "chip": "ym2612"
    },
    {
      "channel": 0,
      "note": 83,
      "start": 43.7992,
      "duration": 0.3485,
      "velocity": 97,
      "chip": "ym2612"
    },
    {
      "channel": 2,
      "note": 83,
      "start": 43.8006,
      "duration": 0.1735,
      "velocity": 95,
      "chip": "ym2612"
    },
    {
      "channel": 4,
      "note": 47,
      "start": 43.802,
      "duration": 0.0773,
      "velocity": 97,
      "chip": "ym2612"
    },
    {
      "channel": 5,
      "note": 54,
      "start": 43.8058,
      "duration": 0.125,
      "velocity": 115,
      "chip": "ym2612"
    },
    {
      "channel": 5,
      "note": 57,
      "start": 43.9315,
      "duration": 0.1085,
      "velocity": 115,
      "chip": "ym2612"
    },
    {
      "channel": 1,
      "note": 83,
      "start": 43.9425,
      "duration": 0.1739,
      "velocity": 95,
      "chip": "ym2612"
    },
    {
      "channel": 3,
      "note": 83,
      "start": 43.9594,
      "duration": 0.3484,
      "velocity": 97,
      "chip": "ym2612"
    },
    {
      "channel": 2,
      "note": 83,
      "start": 44.0382,
      "duration": 0.174,
      "velocity": 95,
      "chip": "ym2612"
    },
    {
      "channel": 4,
      "note": 59,
      "start": 44.0397,
      "duration": 0.1732,
      "velocity": 97,
      "chip": "ym2612"
    },
    {
      "channel": 5,
      "note": 57,
      "start": 44.0407,
      "duration": 0.1254,
      "velocity": 115,
      "chip": "ym2612"
    },
    {
      "channel": 5,
      "note": 57,
      "start": 44.1668,
      "duration": 0.1145,
      "velocity": 127,
      "chip": "ym2612"
    },
    {
      "channel": 1,
      "note": 83,
      "start": 44.1805,
      "duration": 0.174,
      "velocity": 95,
      "chip": "ym2612"
    },
    {
      "channel": 0,
      "note": 83,
      "start": 44.2753,
      "duration": 0.3486,
      "velocity": 97,
      "chip": "ym2612"
    },
    {
      "channel": 2,
      "note": 82,
      "start": 44.2767,
      "duration": 0.1737,
      "velocity": 95,
      "chip": "ym2612"
    },
    {
      "channel": 4,
      "note": 54,
      "start": 44.2782,
      "duration": 0.0775,
      "velocity": 97,
      "chip": "ym2612"
    },
    {
      "channel": 5,
      "note": 45,
      "start": 44.282,
      "duration": 0.1222,
      "velocity": 127,
      "chip": "ym2612"
    },
    {
      "channel": 1,
      "note": 82,
      "start": 44.4188,
      "duration": 0.1739,
      "velocity": 95,
      "chip": "ym2612"
    },
    {
      "channel": 3,
      "note": 83,
      "start": 44.4356,
      "duration": 0.3482,
      "velocity": 97,
      "chip": "ym2612"
    },
    {
      "channel": 2,
      "note": 78,
      "start": 44.5144,
      "duration": 0.174,
      "velocity": 95,
      "chip": "ym2612"
    },
    {
      "channel": 4,
      "note": 51,
      "start": 44.5158,
      "duration": 0.078,
      "velocity": 97,
      "chip": "ym2612"
    },
    {
      "channel": 5,
      "note": 57,
      "start": 44.5196,
      "duration": 0.1231,
      "velocity": 115,
      "chip": "ym2612"
    },
    {
      "channel": 4,
      "note": 47,
      "start": 44.6424,
      "duration": 0.0787,
      "velocity": 97,
      "chip": "ym2612"
    },
    {
      "channel": 5,
      "note": 57,
      "start": 44.6434,
      "duration": 0.113,
      "velocity": 117,
      "chip": "ym2612"
    },
    {
      "channel": 1,
      "note": 78,
      "start": 44.6568,
      "duration": 0.1739,
      "velocity": 95,
      "chip": "ym2612"
    },
    {
      "channel": 0,
      "note": 83,
      "start": 44.7517,
      "duration": 0.1739,
      "velocity": 97,
      "chip": "ym2612"
    },
    {
      "channel": 5,
      "note": 54,
      "start": 44.7571,
      "duration": 0.1271,
      "velocity": 115,
      "chip": "ym2612"
    },
    {
      "channel": 2,
      "note": 83,
      "start": 44.8797,
      "duration": 0.1738,
      "velocity": 95,
      "chip": "ym2612"
    },
    {
      "channel": 4,
      "note": 47,
      "start": 44.8812,
      "duration": 0.173,
      "velocity": 97,
      "chip": "ym2612"
    },
    {
      "channel": 5,
      "note": 57,
      "start": 44.8849,
      "duration": 0.1067,
      "velocity": 115,
      "chip": "ym2612"
    },
    {
      "channel": 3,
      "note": 83,
      "start": 44.9115,
      "duration": 0.1744,
      "velocity": 97,
      "chip": "ym2612"
    },
    {
      "channel": 0,
      "note": 82,
      "start": 44.9898,
      "duration": 0.3485,
      "velocity": 97,
      "chip": "ym2612"
    },
    {
      "channel": 5,
      "note": 57,
      "start": 44.9924,
      "duration": 0.13,
      "velocity": 117,
      "chip": "ym2612"
    },
    {
      "channel": 1,
      "note": 83,
      "start": 45.0221,
      "duration": 0.1738,
      "velocity": 95,
      "chip": "ym2612"
    },
    {
      "channel": 2,
      "note": 83,
      "start": 45.1178,
      "duration": 0.0783,
      "velocity": 95,
      "chip": "ym2612"
    },
    {
      "channel": 4,
      "note": 47,
      "start": 45.1193,
      "duration": 0.0774,
      "velocity": 97,
      "chip": "ym2612"
    },
    {
      "channel": 5,
      "note": 54,
      "start": 45.123,
      "duration": 0.1105,
      "velocity": 127,
      "chip": "ym2612"
    },
    {
      "channel": 3,
      "note": 82,
      "start": 45.1501,
      "duration": 0.3484,
      "velocity": 97,
      "chip": "ym2612"
    },
    {
      "channel": 2,
      "note": 82,
      "start": 45.2289,
      "duration": 0.1739,
      "velocity": 95,
      "chip": "ym2612"
    },
    {
      "channel": 4,
      "note": 51,
      "start": 45.2303,
      "duration": 0.1732,
      "velocity": 97,
      "chip": "ym2612"
    },
    {
      "channel": 5,
      "note": 45,
      "start": 45.2341,
      "duration": 0.1226,
      "velocity": 127,
      "chip": "ym2612"
    },
    {
      "channel": 1,
      "note": 83,
      "start": 45.2602,
      "duration": 0.0782,
      "velocity": 95,
      "chip": "ym2612"
    },
    {
      "channel": 1,
      "note": 82,
      "start": 45.3713,
      "duration": 0.1739,
      "velocity": 95,
      "chip": "ym2612"
    },
    {
      "channel": 0,
      "note": 80,
      "start": 45.4661,
      "duration": 0.1739,
      "velocity": 97,
      "chip": "ym2612"
    },
    {
      "channel": 2,
      "note": 80,
      "start": 45.4674,
      "duration": 0.1732,
      "velocity": 95,
      "chip": "ym2612"
    },
    {
      "channel": 4,
      "note": 47,
      "start": 45.4688,
      "duration": 0.1725,
      "velocity": 97,
      "chip": "ym2612"
    },
    {
      "channel": 5,
      "note": 57,
      "start": 45.4727,
      "duration": 0.1223,
      "velocity": 115,
      "chip": "ym2612"
    },
    {
      "channel": 5,
      "note": 57,
      "start": 45.5956,
      "duration": 0.1146,
      "velocity": 122,
      "chip": "ym2612"
    },
    {
      "channel": 1,
      "note": 80,
      "start": 45.6094,
      "duration": 0.1739,
      "velocity": 95,
      "chip": "ym2612"
    },
    {
      "channel": 3,
      "note": 80,
      "start": 45.6263,
      "duration": 0.174,
      "velocity": 97,
      "chip": "ym2612"
    },
    {
      "channel": 0,
      "note": 78,
      "start": 45.7042,
      "duration": 1.5074,
      "velocity": 97,
      "chip": "ym2612"
    },
    {
      "channel": 2,
      "note": 82,
      "start": 45.7057,
      "duration": 0.5385,
      "velocity": 95,
      "chip": "ym2612"
    },
    {
      "channel": 4,
      "note": 54,
      "start": 45.7071,
      "duration": 0.0773,
      "velocity": 97,
      "chip": "ym2612"
    },
    {
      "channel": 5,
      "note": 54,
      "start": 45.7109,
      "duration": 0.1252,
      "velocity": 122,
      "chip": "ym2612"
    },
    {
      "channel": 4,
      "note": 54,
      "start": 45.8331,
      "duration": 0.0787,
      "velocity": 97,
      "chip": "ym2612"
    },
    {
      "channel": 5,
      "note": 54,
      "start": 45.8368,
      "duration": 0.1106,
      "velocity": 122,
      "chip": "ym2612"
    },
    {
      "channel": 1,
      "note": 82,
      "start": 45.8476,
      "duration": 0.5389,
      "velocity": 95,
      "chip": "ym2612"
    },
    {
      "channel": 3,
      "note": 78,
      "start": 45.8644,
      "duration": 1.5074,
      "velocity": 97,
      "chip": "ym2612"
    },
    {
      "channel": 4,
      "note": 66,
      "start": 45.9443,
      "duration": 0.1739,
      "velocity": 97,
      "chip": "ym2612"
    },
    {
      "channel": 5,
      "note": 49,
      "start": 45.9481,
      "duration": 0.1258,
      "velocity": 122,
      "chip": "ym2612"
    },
    {
      "channel": 5,
      "note": 49,
      "start": 46.0746,
      "duration": 0.1109,
      "velocity": 122,
      "chip": "ym2612"
    },
    {
      "channel": 4,
      "note": 54,
      "start": 46.1824,
      "duration": 0.174,
      "velocity": 97,
      "chip": "ym2612"
    },
    {
      "channel": 5,
      "note": 42,
      "start": 46.1861,
      "duration": 0.1232,
      "velocity": 122,
      "chip": "ym2612"
    },
    {
      "channel": 2,
      "note": 70,
      "start": 46.4196,
      "duration": 0.0786,
      "velocity": 95,
      "chip": "ym2612"
    },
    {
      "channel": 4,
      "note": 66,
      "start": 46.4211,
      "duration": 0.0777,
      "velocity": 97,
      "chip": "ym2612"
    },
    {
      "channel": 5,
      "note": 42,
      "start": 46.4248,
      "duration": 0.1235,
      "velocity": 122,
      "chip": "ym2612"
    },
    {
      "channel": 2,
      "note": 70,
      "start": 46.5466,
      "duration": 0.7295,
      "velocity": 95,
      "chip": "ym2612"
    },
    {
      "channel": 4,
      "note": 66,
      "start": 46.548,
      "duration": 0.0781,
      "velocity": 97,
      "chip": "ym2612"
    },
    {
      "channel": 1,
      "note": 70,
      "start": 46.562,
      "duration": 0.0786,
      "velocity": 95,
      "chip": "ym2612"
    },
    {
      "channel": 4,
      "note": 54,
      "start": 46.6587,
      "duration": 0.174,
      "velocity": 97,
      "chip": "ym2612"
    },
    {
      "channel": 5,
      "note": 54,
      "start": 46.6625,
      "duration": 0.123,
      "velocity": 122,
      "chip": "ym2612"
    },
    {
      "channel": 1,
      "note": 70,
      "start": 46.689,
      "duration": 0.7295,
      "velocity": 95,
      "chip": "ym2612"
    },
    {
      "channel": 4,
      "note": 66,
      "start": 46.8969,
      "duration": 0.0786,
      "velocity": 97,
      "chip": "ym2612"
    },
    {
      "channel": 5,
      "note": 49,
      "start": 46.9006,
      "duration": 0.1234,
      "velocity": 122,
      "chip": "ym2612"
    },
    {
      "channel": 4,
      "note": 54,
      "start": 47.0237,
      "duration": 0.0788,
      "velocity": 97,
      "chip": "ym2612"
    },
    {
      "channel": 4,
      "note": 66,
      "start": 47.1349,
      "duration": 0.0784,
      "velocity": 97,
      "chip": "ym2612"
    },
    {
      "channel": 5,
      "note": 45,
      "start": 47.1387,
      "duration": 0.1235,
      "velocity": 127,
      "chip": "ym2612"
    },
    {
      "channel": 4,
      "note": 54,
      "start": 47.2619,
      "duration": 0.0786,
      "velocity": 97,
      "chip": "ym2612"
    },
    {
      "channel": 5,
      "note": 45,
      "start": 47.2629,
      "duration": 0.1101,
      "velocity": 127,
      "chip": "ym2612"
    },
    {
      "channel": 4,
      "note": 66,
      "start": 47.3727,
      "duration": 0.0791,
      "velocity": 97,
      "chip": "ym2612"
    },
    {
      "channel": 5,
      "note": 45,
      "start": 47.3737,
      "duration": 0.1264,
      "velocity": 127,
      "chip": "ym2612"
    },
    {
      "channel": 4,
      "note": 66,
      "start": 47.4998,
      "duration": 0.0784,
      "velocity": 97,
      "chip": "ym2612"
    },
    {
      "channel": 5,
      "note": 45,
      "start": 47.5008,
      "duration": 0.117,
      "velocity": 117,
      "chip": "ym2612"
    },
    {
      "channel": 0,
      "note": 83,
      "start": 47.6119,
      "duration": 0.3458,
      "velocity": 99,
      "chip": "ym2612"
    },
    {
      "channel": 2,
      "note": 83,
      "start": 47.6133,
      "duration": 0.0751,
      "velocity": 95,
      "chip": "ym2612"
    },
    {
      "channel": 4,
      "note": 59,
      "start": 47.6148,
      "duration": 0.1704,
      "velocity": 97,
      "chip": "ym2612"
    },
    {
      "channel": 5,
      "note": 54,
      "start": 47.6185,
      "duration": 0.1195,
      "velocity": 117,
      "chip": "ym2612"
    },
    {
      "channel": 2,
      "note": 78,
      "start": 47.7368,
      "duration": 0.079,
      "velocity": 95,
      "chip": "ym2612"
    },
    {
      "channel": 1,
      "note": 83,
      "start": 47.7526,
      "duration": 0.0786,
      "velocity": 95,
      "chip": "ym2612"
    },
    {
      "channel": 3,
      "note": 83,
      "start": 47.7722,
      "duration": 0.3463,
      "velocity": 99,
      "chip": "ym2612"
    },
    {
      "channel": 2,
      "note": 78,
      "start": 47.8483,
      "duration": 0.0787,
      "velocity": 95,
      "chip": "ym2612"
    },
    {
      "channel": 4,
      "note": 71,
      "start": 47.8496,
      "duration": 0.1737,
      "velocity": 97,
      "chip": "ym2612"
    },
    {
      "channel": 5,
      "note": 57,
      "start": 47.8534,
      "duration": 0.1232,
      "velocity": 115,
      "chip": "ym2612"
    },
    {
      "channel": 1,
      "note": 78,
      "start": 47.8796,
      "duration": 0.0783,
      "velocity": 95,
      "chip": "ym2612"
    },
    {
      "channel": 2,
      "note": 83,
      "start": 47.9753,
      "duration": 0.2692,
      "velocity": 95,
      "chip": "ym2612"
    },
    {
      "channel": 5,
      "note": 57,
      "start": 47.9773,
      "duration": 0.1135,
      "velocity": 117,
      "chip": "ym2612"
    },
    {
      "channel": 1,
      "note": 78,
      "start": 47.9907,
      "duration": 0.0787,
      "velocity": 95,
      "chip": "ym2612"
    },
    {
      "channel": 0,
      "note": 83,
      "start": 48.0854,
      "duration": 0.3485,
      "velocity": 99,
      "chip": "ym2612"
    },
    {
      "channel": 4,
      "note": 59,
      "start": 48.0878,
      "duration": 0.1737,
      "velocity": 97,
      "chip": "ym2612"
    },
    {
      "channel": 5,
      "note": 54,
      "start": 48.0915,
      "duration": 0.1256,
      "velocity": 115,
      "chip": "ym2612"
    },
    {
      "channel": 1,
      "note": 83,
      "start": 48.1178,
      "duration": 0.2691,
      "velocity": 95,
      "chip": "ym2612"
    },
    {
      "channel": 5,
      "note": 57,
      "start": 48.2179,
      "duration": 0.1085,
      "velocity": 115,
      "chip": "ym2612"
    },
    {
      "channel": 3,
      "note": 83,
      "start": 48.2454,
      "duration": 0.3489,
      "velocity": 99,
      "chip": "ym2612"
    },
    {
      "channel": 2,
      "note": 83,
      "start": 48.3246,
      "duration": 0.174,
      "velocity": 95,
      "chip": "ym2612"
    },
    {
      "channel": 4,
      "note": 71,
      "start": 48.3261,
      "duration": 0.0782,
      "velocity": 97,
      "chip": "ym2612"
    },
    {
      "channel": 5,
      "note": 57,
      "start": 48.3271,
      "duration": 0.1257,
      "velocity": 115,
      "chip": "ym2612"
    },
    {
      "channel": 4,
      "note": 71,
      "start": 48.4525,
      "duration": 0.0786,
      "velocity": 97,
      "chip": "ym2612"
    },
    {
      "channel": 1,
      "note": 83,
      "start": 48.4671,
      "duration": 0.1738,
      "velocity": 95,
      "chip": "ym2612"
    },
    {
      "channel": 0,
      "note": 83,
      "start": 48.5618,
      "duration": 0.2691,
      "velocity": 99,
      "chip": "ym2612"
    },
    {
      "channel": 2,
      "note": 83,
      "start": 48.5632,
      "duration": 0.1735,
      "velocity": 95,
      "chip": "ym2612"
    },
    {
      "channel": 4,
      "note": 59,
      "start": 48.5646,
      "duration": 0.1728,
      "velocity": 97,
      "chip": "ym2612"
    },
    {
      "channel": 5,
      "note": 54,
      "start": 48.5684,
      "duration": 0.125,
      "velocity": 115,
      "chip": "ym2612"
    },
    {
      "channel": 5,
      "note": 57,
      "start": 48.6941,
      "duration": 0.1085,
      "velocity": 115,
      "chip": "ym2612"
    },
    {
      "channel": 1,
      "note": 83,
      "start": 48.7051,
      "duration": 0.1739,
      "velocity": 95,
      "chip": "ym2612"
    },
    {
      "channel": 3,
      "note": 83,
      "start": 48.722,
      "duration": 0.2691,
      "velocity": 99,
      "chip": "ym2612"
    },
    {
      "channel": 2,
      "note": 83,
      "start": 48.8008,
      "duration": 0.174,
      "velocity": 95,
      "chip": "ym2612"
    },
    {
      "channel": 4,
      "note": 71,
      "start": 48.8023,
      "duration": 0.0779,
      "velocity": 97,
      "chip": "ym2612"
    },
    {
      "channel": 0,
      "note": 82,
      "start": 48.9268,
      "duration": 0.2691,
      "velocity": 99,
      "chip": "ym2612"
    },
    {
      "channel": 4,
      "note": 59,
      "start": 48.9291,
      "duration": 0.0783,
      "velocity": 97,
      "chip": "ym2612"
    },
    {
      "channel": 5,
      "note": 57,
      "start": 48.9302,
      "duration": 0.1133,
      "velocity": 117,
      "chip": "ym2612"
    },
    {
      "channel": 1,
      "note": 83,
      "start": 48.9432,
      "duration": 0.1739,
      "velocity": 95,
      "chip": "ym2612"
    },
    {
      "channel": 2,
      "note": 87,
      "start": 49.039,
      "duration": 0.0783,
      "velocity": 95,
      "chip": "ym2612"
    },
    {
      "channel": 4,
      "note": 71,
      "start": 49.0404,
      "duration": 0.0776,
      "velocity": 97,
      "chip": "ym2612"
    },
    {
      "channel": 5,
      "note": 54,
      "start": 49.0441,
      "duration": 0.1234,
      "velocity": 117,
      "chip": "ym2612"
    },
    {
      "channel": 3,
      "note": 82,
      "start": 49.0871,
      "duration": 0.2685,
      "velocity": 99,
      "chip": "ym2612"
    },
    {
      "channel": 2,
      "note": 83,
      "start": 49.1659,
      "duration": 0.0787,
      "velocity": 95,
      "chip": "ym2612"
    },
    {
      "channel": 4,
      "note": 71,
      "start": 49.1673,
      "duration": 0.078,
      "velocity": 97,
      "chip": "ym2612"
    },
    {
      "channel": 1,
      "note": 87,
      "start": 49.1814,
      "duration": 0.0785,
      "velocity": 95,
      "chip": "ym2612"
    },
    {
      "channel": 0,
      "note": 80,
      "start": 49.2761,
      "duration": 0.0786,
      "velocity": 99,
      "chip": "ym2612"
    },
    {
      "channel": 2,
      "note": 78,
      "start": 49.2775,
      "duration": 0.0779,
      "velocity": 95,
      "chip": "ym2612"
    },
    {
      "channel": 4,
      "note": 59,
      "start": 49.2789,
      "duration": 0.0768,
      "velocity": 97,
      "chip": "ym2612"
    },
    {
      "channel": 5,
      "note": 57,
      "start": 49.2826,
      "duration": 0.123,
      "velocity": 115,
      "chip": "ym2612"
    },
    {
      "channel": 1,
      "note": 83,
      "start": 49.3083,
      "duration": 0.0787,
      "velocity": 95,
      "chip": "ym2612"
    },
    {
      "channel": 2,
      "note": 78,
      "start": 49.404,
      "duration": 0.0787,
      "velocity": 95,
      "chip": "ym2612"
    },
    {
      "channel": 4,
      "note": 58,
      "start": 49.4054,
      "duration": 0.078,
      "velocity": 97,
      "chip": "ym2612"
    },
    {
      "channel": 5,
      "note": 57,
      "start": 49.4063,
      "duration": 0.1135,
      "velocity": 117,
      "chip": "ym2612"
    },
    {
      "channel": 1,
      "note": 78,
      "start": 49.4195,
      "duration": 0.0786,
      "velocity": 95,
      "chip": "ym2612"
    },
    {
      "channel": 3,
      "note": 80,
      "start": 49.4364,
      "duration": 0.0794,
      "velocity": 99,
      "chip": "ym2612"
    },
    {
      "channel": 0,
      "note": 80,
      "start": 49.5143,
      "duration": 0.174,
      "velocity": 99,
      "chip": "ym2612"
    },
    {
      "channel": 2,
      "note": 80,
      "start": 49.5156,
      "duration": 0.0782,
      "velocity": 95,
      "chip": "ym2612"
    },
    {
      "channel": 4,
      "note": 56,
      "start": 49.5168,
      "duration": 0.1731,
      "velocity": 97,
      "chip": "ym2612"
    },
    {
      "channel": 5,
      "note": 54,
      "start": 49.5205,
      "duration": 0.1229,
      "velocity": 117,
      "chip": "ym2612"
    },
    {
      "channel": 1,
      "note": 78,
      "start": 49.5464,
      "duration": 0.0787,
      "velocity": 95,
      "chip": "ym2612"
    },
    {
      "channel": 2,
      "note": 82,
      "start": 49.6422,
      "duration": 0.0786,
      "velocity": 95,
      "chip": "ym2612"
    },
    {
      "channel": 1,
      "note": 80,
      "start": 49.6576,
      "duration": 0.0787,
      "velocity": 95,
      "chip": "ym2612"
    },
    {
      "channel": 3,
      "note": 80,
      "start": 49.6745,
      "duration": 0.1739,
      "velocity": 99,
      "chip": "ym2612"
    },
    {
      "channel": 0,
      "note": 78,
      "start": 49.7524,
      "duration": 0.0785,
      "velocity": 99,
      "chip": "ym2612"
    },
    {
      "channel": 2,
      "note": 84,
      "start": 49.7537,
      "duration": 0.0779,
      "velocity": 95,
      "chip": "ym2612"
    },
    {
      "channel": 4,
      "note": 68,
      "start": 49.7551,
      "duration": 0.1732,
      "velocity": 97,
      "chip": "ym2612"
    },
    {
      "channel": 5,
      "note": 57,
      "start": 49.7589,
      "duration": 0.1228,
      "velocity": 115,
      "chip": "ym2612"
    },
    {
      "channel": 1,
      "note": 82,
      "start": 49.7846,
      "duration": 0.0786,
      "velocity": 95,
      "chip": "ym2612"
    },
    {
      "channel": 2,
      "note": 87,
      "start": 49.8804,
      "duration": 0.1738,
      "velocity": 95,
      "chip": "ym2612"
    },
    {
      "channel": 5,
      "note": 57,
      "start": 49.8824,
      "duration": 0.1132,
      "velocity": 117,
      "chip": "ym2612"
    },
    {
      "channel": 1,
      "note": 84,
      "start": 49.8957,
      "duration": 0.0786,
      "velocity": 95,
      "chip": "ym2612"
    },
    {
      "channel": 3,
      "note": 78,
      "start": 49.9127,
      "duration": 0.0791,
      "velocity": 99,
      "chip": "ym2612"
    },
    {
      "channel": 0,
      "note": 80,
      "start": 49.9906,
      "duration": 0.1739,
      "velocity": 99,
      "chip": "ym2612"
    },
    {
      "channel": 4,
      "note": 56,
      "start": 49.9926,
      "duration": 0.1736,
      "velocity": 97,
      "chip": "ym2612"
    },
    {
      "channel": 5,
      "note": 54,
      "start": 49.9963,
      "duration": 0.1263,
      "velocity": 115,
      "chip": "ym2612"
    },
    {
      "channel": 1,
      "note": 87,
      "start": 50.0228,
      "duration": 0.1738,
      "velocity": 95,
      "chip": "ym2612"
    },
    {
      "channel": 2,
      "note": 87,
      "start": 50.1186,
      "duration": 0.0783,
      "velocity": 95,
      "chip": "ym2612"
    },
    {
      "channel": 5,
      "note": 57,
      "start": 50.1234,
      "duration": 0.1085,
      "velocity": 115,
      "chip": "ym2612"
    },
    {
      "channel": 3,
      "note": 80,
      "start": 50.1508,
      "duration": 0.1739,
      "velocity": 99,
      "chip": "ym2612"
    },
    {
      "channel": 0,
      "note": 84,
      "start": 50.2288,
      "duration": 0.3484,
      "velocity": 99,
      "chip": "ym2612"
    },
    {
      "channel": 2,
      "note": 85,
      "start": 50.2301,
      "duration": 0.0782,
      "velocity": 95,
      "chip": "ym2612"
    },
    {
      "channel": 4,
      "note": 68,
      "start": 50.2315,
      "duration": 0.0774,
      "velocity": 97,
      "chip": "ym2612"
    },
    {
      "channel": 5,
      "note": 57,
      "start": 50.2325,
      "duration": 0.1257,
      "velocity": 115,
      "chip": "ym2612"
    },
    {
      "channel": 1,
      "note": 87,
      "start": 50.2609,
      "duration": 0.0786,
      "velocity": 95,
      "chip": "ym2612"
    },
    {
      "channel": 2,
      "note": 84,
      "start": 50.3566,
      "duration": 0.0786,
      "velocity": 95,
      "chip": "ym2612"
    },
    {
      "channel": 4,
      "note": 68,
      "start": 50.358,
      "duration": 0.0779,
      "velocity": 97,
      "chip": "ym2612"
    },
    {
      "channel": 1,
      "note": 85,
      "start": 50.372,
      "duration": 0.0786,
      "velocity": 95,
      "chip": "ym2612"
    },
    {
      "channel": 3,
      "note": 84,
      "start": 50.3889,
      "duration": 0.3484,
      "velocity": 99,
      "chip": "ym2612"
    },
    {
      "channel": 2,
      "note": 84,
      "start": 50.4678,
      "duration": 0.1739,
      "velocity": 95,
      "chip": "ym2612"
    },
    {
      "channel": 4,
      "note": 56,
      "start": 50.4693,
      "duration": 0.1732,
      "velocity": 97,
      "chip": "ym2612"
    },
    {
      "channel": 5,
      "note": 54,
      "start": 50.473,
      "duration": 0.1254,
      "velocity": 115,
      "chip": "ym2612"
    },
    {
      "channel": 1,
      "note": 84,
      "start": 50.499,
      "duration": 0.0784,
      "velocity": 95,
      "chip": "ym2612"
    },
    {
      "channel": 5,
      "note": 57,
      "start": 50.5991,
      "duration": 0.1089,
      "velocity": 115,
      "chip": "ym2612"
    },
    {
      "channel": 1,
      "note": 84,
      "start": 50.6102,
      "duration": 0.1739,
      "velocity": 95,
      "chip": "ym2612"
    },
    {
      "channel": 0,
      "note": 87,
      "start": 50.7049,
      "duration": 0.3485,
      "velocity": 99,
      "chip": "ym2612"
    },
    {
      "channel": 2,
      "note": 84,
      "start": 50.7062,
      "duration": 0.1737,
      "velocity": 95,
      "chip": "ym2612"
    },
    {
      "channel": 4,
      "note": 68,
      "start": 50.7078,
      "duration": 0.0774,
      "velocity": 97,
      "chip": "ym2612"
    },
    {
      "channel": 4,
      "note": 56,
      "start": 50.8338,
      "duration": 0.0786,
      "velocity": 97,
      "chip": "ym2612"
    },
    {
      "channel": 5,
      "note": 57,
      "start": 50.8348,
      "duration": 0.1137,
      "velocity": 127,
      "chip": "ym2612"
    },
    {
      "channel": 1,
      "note": 84,
      "start": 50.8483,
      "duration": 0.1739,
      "velocity": 95,
      "chip": "ym2612"
    },
    {
      "channel": 3,
      "note": 87,
      "start": 50.8651,
      "duration": 0.3485,
      "velocity": 99,
      "chip": "ym2612"
    },
    {
      "channel": 2,
      "note": 80,
      "start": 50.9439,
      "duration": 0.1741,
      "velocity": 95,
      "chip": "ym2612"
    },
    {
      "channel": 4,
      "note": 56,
      "start": 50.9454,
      "duration": 0.078,
      "velocity": 97,
      "chip": "ym2612"
    },
    {
      "channel": 5,
      "note": 45,
      "start": 50.9492,
      "duration": 0.1231,
      "velocity": 127,
      "chip": "ym2612"
    },
    {
      "channel": 4,
      "note": 68,
      "start": 51.072,
      "duration": 0.1739,
      "velocity": 97,
      "chip": "ym2612"
    },
    {
      "channel": 1,
      "note": 80,
      "start": 51.0864,
      "duration": 0.1739,
      "velocity": 95,
      "chip": "ym2612"
    },
    {
      "channel": 0,
      "note": 84,
      "start": 51.1812,
      "duration": 0.1739,
      "velocity": 99,
      "chip": "ym2612"
    },
    {
      "channel": 2,
      "note": 80,
      "start": 51.1826,
      "duration": 0.1732,
      "velocity": 95,
      "chip": "ym2612"
    },
    {
      "channel": 5,
      "note": 57,
      "start": 51.1874,
      "duration": 0.123,
      "velocity": 115,
      "chip": "ym2612"
    },
    {
      "channel": 4,
      "note": 56,
      "start": 51.3102,
      "duration": 0.0785,
      "velocity": 97,
      "chip": "ym2612"
    },
    {
      "channel": 5,
      "note": 57,
      "start": 51.3111,
      "duration": 0.1142,
      "velocity": 117,
      "chip": "ym2612"
    },
    {
      "channel": 1,
      "note": 80,
      "start": 51.3245,
      "duration": 0.1739,
      "velocity": 95,
      "chip": "ym2612"
    },
    {
      "channel": 3,
      "note": 84,
      "start": 51.3415,
      "duration": 0.1739,
      "velocity": 99,
      "chip": "ym2612"
    },
    {
      "channel": 0,
      "note": 85,
      "start": 51.4193,
      "duration": 0.7296,
      "velocity": 99,
      "chip": "ym2612"
    },
    {
      "channel": 2,
      "note": 82,
      "start": 51.4208,
      "duration": 0.0778,
      "velocity": 95,
      "chip": "ym2612"
    },
    {
      "channel": 4,
      "note": 54,
      "start": 51.4223,
      "duration": 0.173,
      "velocity": 97,
      "chip": "ym2612"
    },
    {
      "channel": 5,
      "note": 54,
      "start": 51.426,
      "duration": 0.1225,
      "velocity": 117,
      "chip": "ym2612"
    },
    {
      "channel": 2,
      "note": 82,
      "start": 51.5473,
      "duration": 0.0786,
      "velocity": 95,
      "chip": "ym2612"
    },
    {
      "channel": 1,
      "note": 82,
      "start": 51.5627,
      "duration": 0.0786,
      "velocity": 95,
      "chip": "ym2612"
    },
    {
      "channel": 3,
      "note": 85,
      "start": 51.5796,
      "duration": 0.7295,
      "velocity": 99,
      "chip": "ym2612"
    },
    {
      "channel": 2,
      "note": 82,
      "start": 51.6584,
      "duration": 0.0787,
      "velocity": 95,
      "chip": "ym2612"
    },
    {
      "channel": 4,
      "note": 66,
      "start": 51.6597,
      "duration": 0.1737,
      "velocity": 97,
      "chip": "ym2612"
    },
    {
      "channel": 5,
      "note": 57,
      "start": 51.6635,
      "duration": 0.1232,
      "velocity": 115,
      "chip": "ym2612"
    },
    {
      "channel": 1,
      "note": 82,
      "start": 51.6896,
      "duration": 0.0787,
      "velocity": 95,
      "chip": "ym2612"
    },
    {
      "channel": 2,
      "note": 82,
      "start": 51.7854,
      "duration": 0.3485,
      "velocity": 95,
      "chip": "ym2612"
    },
    {
      "channel": 5,
      "note": 57,
      "start": 51.7875,
      "duration": 0.1131,
      "velocity": 117,
      "chip": "ym2612"
    },
    {
      "channel": 1,
      "note": 82,
      "start": 51.8008,
      "duration": 0.0787,
      "velocity": 95,
      "chip": "ym2612"
    },
    {
      "channel": 4,
      "note": 54,
      "start": 51.8975,
      "duration": 0.174,
      "velocity": 97,
      "chip": "ym2612"
    },
    {
      "channel": 5,
      "note": 54,
      "start": 51.9013,
      "duration": 0.126,
      "velocity": 115,
      "chip": "ym2612"
    },
    {
      "channel": 1,
      "note": 82,
      "start": 51.9279,
      "duration": 0.3484,
      "velocity": 95,
      "chip": "ym2612"
    },
    {
      "channel": 5,
      "note": 57,
      "start": 52.028,
      "duration": 0.1076,
      "velocity": 115,
      "chip": "ym2612"
    },
    {
      "channel": 4,
      "note": 66,
      "start": 52.1353,
      "duration": 0.174,
      "velocity": 97,
      "chip": "ym2612"
    },
    {
      "channel": 5,
      "note": 57,
      "start": 52.1363,
      "duration": 0.1266,
      "velocity": 115,
      "chip": "ym2612"
    },
    {
      "channel": 2,
      "note": 82,
      "start": 52.2617,
      "duration": 0.1734,
      "velocity": 95,
      "chip": "ym2612"
    },
    {
      "channel": 4,
      "note": 54,
      "start": 52.3736,
      "duration": 0.1733,
      "velocity": 97,
      "chip": "ym2612"
    },
    {
      "channel": 5,
      "note": 54,
      "start": 52.3773,
      "duration": 0.1261,
      "velocity": 115,
      "chip": "ym2612"
    },
    {
      "channel": 1,
      "note": 82,
      "start": 52.4037,
      "duration": 0.1739,
      "velocity": 95,
      "chip": "ym2612"
    },
    {
      "channel": 2,
      "note": 78,
      "start": 52.4994,
      "duration": 0.2695,
      "velocity": 95,
      "chip": "ym2612"
    },
    {
      "channel": 5,
      "note": 57,
      "start": 52.5042,
      "duration": 0.108,
      "velocity": 115,
      "chip": "ym2612"
    },
    {
      "channel": 0,
      "note": 85,
      "start": 52.61,
      "duration": 0.174,
      "velocity": 99,
      "chip": "ym2612"
    },
    {
      "channel": 4,
      "note": 66,
      "start": 52.612,
      "duration": 0.1736,
      "velocity": 97,
      "chip": "ym2612"
    },
    {
      "channel": 1,
      "note": 78,
      "start": 52.6422,
      "duration": 0.2691,
      "velocity": 95,
      "chip": "ym2612"
    },
    {
      "channel": 5,
      "note": 57,
      "start": 52.7391,
      "duration": 0.1148,
      "velocity": 117,
      "chip": "ym2612"
    },
    {
      "channel": 3,
      "note": 85,
      "start": 52.7699,
      "duration": 0.1743,
      "velocity": 99,
      "chip": "ym2612"
    },
    {
      "channel": 0,
      "note": 83,
      "start": 52.8481,
      "duration": 0.174,
      "velocity": 99,
      "chip": "ym2612"
    },
    {
      "channel": 2,
      "note": 82,
      "start": 52.8495,
      "duration": 0.1732,
      "velocity": 95,
      "chip": "ym2612"
    },
    {
      "channel": 4,
      "note": 54,
      "start": 52.8508,
      "duration": 0.1725,
      "velocity": 97,
      "chip": "ym2612"
    },
    {
      "channel": 5,
      "note": 54,
      "start": 52.8546,
      "duration": 0.1224,
      "velocity": 117,
      "chip": "ym2612"
    },
    {
      "channel": 1,
      "note": 82,
      "start": 52.9915,
      "duration": 0.1738,
      "velocity": 95,
      "chip": "ym2612"
    },
    {
      "channel": 3,
      "note": 83,
      "start": 53.0083,
      "duration": 0.174,
      "velocity": 99,
      "chip": "ym2612"
    },
    {
      "channel": 0,
      "note": 82,
      "start": 53.0862,
      "duration": 0.174,
      "velocity": 99,
      "chip": "ym2612"
    },
    {
      "channel": 2,
      "note": 85,
      "start": 53.0877,
      "duration": 0.0778,
      "velocity": 95,
      "chip": "ym2612"
    },
    {
      "channel": 4,
      "note": 66,
      "start": 53.0891,
      "duration": 0.0771,
      "velocity": 97,
      "chip": "ym2612"
    },
    {
      "channel": 5,
      "note": 57,
      "start": 53.0929,
      "duration": 0.1229,
      "velocity": 115,
      "chip": "ym2612"
    },
    {
      "channel": 2,
      "note": 82,
      "start": 53.2142,
      "duration": 0.0786,
      "velocity": 95,
      "chip": "ym2612"
    },
    {
      "channel": 4,
      "note": 66,
      "start": 53.2155,
      "duration": 0.0779,
      "velocity": 97,
      "chip": "ym2612"
    },
    {
      "channel": 5,
      "note": 57,
      "start": 53.2165,
      "duration": 0.1136,
      "velocity": 117,
      "chip": "ym2612"
    },
    {
      "channel": 1,
      "note": 85,
      "start": 53.2296,
      "duration": 0.0786,
      "velocity": 95,
      "chip": "ym2612"
    },
    {
      "channel": 3,
      "note": 82,
      "start": 53.2464,
      "duration": 0.174,
      "velocity": 99,
      "chip": "ym2612"
    },
    {
      "channel": 0,
      "note": 82,
      "start": 53.3244,
      "duration": 0.269,
      "velocity": 99,
      "chip": "ym2612"
    },
    {
      "channel": 2,
      "note": 82,
      "start": 53.3258,
      "duration": 0.0782,
      "velocity": 95,
      "chip": "ym2612"
    },
    {
      "channel": 4,
      "note": 51,
      "start": 53.3271,
      "duration": 0.0775,
      "velocity": 97,
      "chip": "ym2612"
    },
    {
      "channel": 5,
      "note": 54,
      "start": 53.3309,
      "duration": 0.1231,
      "velocity": 117,
      "chip": "ym2612"
    },
    {
      "channel": 1,
      "note": 82,
      "start": 53.3566,
      "duration": 0.0787,
      "velocity": 95,
      "chip": "ym2612"
    },
    {
      "channel": 2,
      "note": 82,
      "start": 53.4523,
      "duration": 0.0786,
      "velocity": 95,
      "chip": "ym2612"
    },
    {
      "channel": 4,
      "note": 63,
      "start": 53.4536,
      "duration": 0.078,
      "velocity": 97,
      "chip": "ym2612"
    },
    {
      "channel": 1,
      "note": 82,
      "start": 53.4677,
      "duration": 0.0787,
      "velocity": 95,
      "chip": "ym2612"
    },
    {
      "channel": 3,
      "note": 82,
      "start": 53.4846,
      "duration": 0.269,
      "velocity": 99,
      "chip": "ym2612"
    },
    {
      "channel": 2,
      "note": 82,
      "start": 53.5634,
      "duration": 0.0786,
      "velocity": 95,
      "chip": "ym2612"
    },
    {
      "channel": 4,
      "note": 51,
      "start": 53.5648,
      "duration": 0.1736,
      "velocity": 97,
      "chip": "ym2612"
    },
    {
      "channel": 5,
      "note": 57,
      "start": 53.5686,
      "duration": 0.1235,
      "velocity": 115,
      "chip": "ym2612"
    },
    {
      "channel": 1,
      "note": 82,
      "start": 53.5943,
      "duration": 0.079,
      "velocity": 95,
      "chip": "ym2612"
    },
    {
      "channel": 0,
      "note": 80,
      "start": 53.6894,
      "duration": 0.2692,
      "velocity": 99,
      "chip": "ym2612"
    },
    {
      "channel": 2,
      "note": 82,
      "start": 53.6909,
      "duration": 0.3485,
      "velocity": 95,
      "chip": "ym2612"
    },
    {
      "channel": 5,
      "note": 57,
      "start": 53.6929,
      "duration": 0.1127,
      "velocity": 117,
      "chip": "ym2612"
    },
    {
      "channel": 1,
      "note": 82,
      "start": 53.7058,
      "duration": 0.0787,
      "velocity": 95,
      "chip": "ym2612"
    },
    {
      "channel": 4,
      "note": 63,
      "start": 53.8025,
      "duration": 0.1741,
      "velocity": 97,
      "chip": "ym2612"
    },
    {
      "channel": 5,
      "note": 54,
      "start": 53.8063,
      "duration": 0.1259,
      "velocity": 115,
      "chip": "ym2612"
    },
    {
      "channel": 1,
      "note": 82,
      "start": 53.8329,
      "duration": 0.3484,
      "velocity": 95,
      "chip": "ym2612"
    },
    {
      "channel": 3,
      "note": 80,
      "start": 53.8496,
      "duration": 0.2692,
      "velocity": 99,
      "chip": "ym2612"
    },
    {
      "channel": 5,
      "note": 57,
      "start": 53.9329,
      "duration": 0.1082,
      "velocity": 115,
      "chip": "ym2612"
    },
    {
      "channel": 0,
      "note": 78,
      "start": 54.0387,
      "duration": 0.174,
      "velocity": 99,
      "chip": "ym2612"
    },
    {
      "channel": 4,
      "note": 51,
      "start": 54.0408,
      "duration": 0.0781,
      "velocity": 97,
      "chip": "ym2612"
    },
    {
      "channel": 5,
      "note": 57,
      "start": 54.0419,
      "duration": 0.1265,
      "velocity": 115,
      "chip": "ym2612"
    },
    {
      "channel": 2,
      "note": 82,
      "start": 54.1667,
      "duration": 0.1739,
      "velocity": 95,
      "chip": "ym2612"
    },
    {
      "channel": 4,
      "note": 51,
      "start": 54.1681,
      "duration": 0.0782,
      "velocity": 97,
      "chip": "ym2612"
    },
    {
      "channel": 3,
      "note": 78,
      "start": 54.199,
      "duration": 0.1739,
      "velocity": 99,
      "chip": "ym2612"
    },
    {
      "channel": 0,
      "note": 78,
      "start": 54.2769,
      "duration": 0.3485,
      "velocity": 99,
      "chip": "ym2612"
    },
    {
      "channel": 4,
      "note": 51,
      "start": 54.2793,
      "duration": 0.1735,
      "velocity": 97,
      "chip": "ym2612"
    },
    {
      "channel": 5,
      "note": 54,
      "start": 54.2831,
      "duration": 0.1259,
      "velocity": 115,
      "chip": "ym2612"
    },
    {
      "channel": 1,
      "note": 82,
      "start": 54.3092,
      "duration": 0.1738,
      "velocity": 95,
      "chip": "ym2612"
    },
    {
      "channel": 2,
      "note": 78,
      "start": 54.4049,
      "duration": 0.2691,
      "velocity": 95,
      "chip": "ym2612"
    },
    {
      "channel": 5,
      "note": 57,
      "start": 54.4097,
      "duration": 0.1076,
      "velocity": 115,
      "chip": "ym2612"
    },
    {
      "channel": 3,
      "note": 78,
      "start": 54.4371,
      "duration": 0.3485,
      "velocity": 99,
      "chip": "ym2612"
    },
    {
      "channel": 4,
      "note": 63,
      "start": 54.517,
      "duration": 0.0786,
      "velocity": 97,
      "chip": "ym2612"
    },
    {
      "channel": 1,
      "note": 78,
      "start": 54.5473,
      "duration": 0.269,
      "velocity": 95,
      "chip": "ym2612"
    },
    {
      "channel": 4,
      "note": 63,
      "start": 54.6439,
      "duration": 0.0788,
      "velocity": 97,
      "chip": "ym2612"
    },
    {
      "channel": 5,
      "note": 57,
      "start": 54.6449,
      "duration": 0.1142,
      "velocity": 127,
      "chip": "ym2612"
    },
    {
      "channel": 0,
      "note": 75,
      "start": 54.7531,
      "duration": 0.3486,
      "velocity": 99,
      "chip": "ym2612"
    },
    {
      "channel": 2,
      "note": 82,
      "start": 54.7545,
      "duration": 0.1736,
      "velocity": 95,
      "chip": "ym2612"
    },
    {
      "channel": 4,
      "note": 51,
      "start": 54.756,
      "duration": 0.1728,
      "velocity": 97,
      "chip": "ym2612"
    },
    {
      "channel": 5,
      "note": 45,
      "start": 54.7598,
      "duration": 0.1222,
      "velocity": 127,
      "chip": "ym2612"
    },
    {
      "channel": 1,
      "note": 82,
      "start": 54.8966,
      "duration": 0.1739,
      "velocity": 95,
      "chip": "ym2612"
    },
    {
      "channel": 3,
      "note": 75,
      "start": 54.9133,
      "duration": 0.349,
      "velocity": 99,
      "chip": "ym2612"
    },
    {
      "channel": 2,
      "note": 87,
      "start": 54.9923,
      "duration": 0.0783,
      "velocity": 95,
      "chip": "ym2612"
    },
    {
      "channel": 4,
      "note": 63,
      "start": 54.9937,
      "duration": 0.0776,
      "velocity": 97,
      "chip": "ym2612"
    },
    {
      "channel": 5,
      "note": 45,
      "start": 54.9947,
      "duration": 0.1261,
      "velocity": 127,
      "chip": "ym2612"
    },
    {
      "channel": 2,
      "note": 82,
      "start": 55.1192,
      "duration": 0.0786,
      "velocity": 95,
      "chip": "ym2612"
    },
    {
      "channel": 4,
      "note": 63,
      "start": 55.1205,
      "duration": 0.078,
      "velocity": 97,
      "chip": "ym2612"
    },
    {
      "channel": 5,
      "note": 45,
      "start": 55.1215,
      "duration": 0.1138,
      "velocity": 117,
      "chip": "ym2612"
    },
    {
      "channel": 1,
      "note": 87,
      "start": 55.1347,
      "duration": 0.0785,
      "velocity": 95,
      "chip": "ym2612"
    },
    {
      "channel": 0,
      "note": 76,
      "start": 55.2294,
      "duration": 0.5391,
      "velocity": 99,
      "chip": "ym2612"
    },
    {
      "channel": 2,
      "note": 76,
      "start": 55.2307,
      "duration": 0.0783,
      "velocity": 95,
      "chip": "ym2612"
    },
    {
      "channel": 4,
      "note": 52,
      "start": 55.2322,
      "duration": 0.1731,
      "velocity": 97,
      "chip": "ym2612"
    },
    {
      "channel": 5,
      "note": 54,
      "start": 55.236,
      "duration": 0.1254,
      "velocity": 115,
      "chip": "ym2612"
    },
    {
      "channel": 1,
      "note": 82,
      "start": 55.2616,
      "duration": 0.0786,
      "velocity": 95,
      "chip": "ym2612"
    },
    {
      "channel": 2,
      "note": 80,
      "start": 55.3573,
      "duration": 0.0787,
      "velocity": 95,
      "chip": "ym2612"
    },
    {
      "channel": 5,
      "note": 57,
      "start": 55.3621,
      "duration": 0.108,
      "velocity": 115,
      "chip": "ym2612"
    },
    {
      "channel": 1,
      "note": 76,
      "start": 55.3727,
      "duration": 0.0787,
      "velocity": 95,
      "chip": "ym2612"
    },
    {
      "channel": 3,
      "note": 76,
      "start": 55.3896,
      "duration": 0.5386,
      "velocity": 99,
      "chip": "ym2612"
    },
    {
      "channel": 2,
      "note": 83,
      "start": 55.4685,
      "duration": 0.0787,
      "velocity": 95,
      "chip": "ym2612"
    },
    {
      "channel": 4,
      "note": 64,
      "start": 55.4698,
      "duration": 0.1737,
      "velocity": 97,
      "chip": "ym2612"
    },
    {
      "channel": 5,
      "note": 57,
      "start": 55.4708,
      "duration": 0.126,
      "velocity": 115,
      "chip": "ym2612"
    },
    {
      "channel": 1,
      "note": 80,
      "start": 55.4998,
      "duration": 0.0787,
      "velocity": 95,
      "chip": "ym2612"
    },
    {
      "channel": 2,
      "note": 76,
      "start": 55.5955,
      "duration": 0.0786,
      "velocity": 95,
      "chip": "ym2612"
    },
    {
      "channel": 5,
      "note": 57,
      "start": 55.5975,
      "duration": 0.1135,
      "velocity": 117,
      "chip": "ym2612"
    },
    {
      "channel": 1,
      "note": 83,
      "start": 55.6109,
      "duration": 0.0787,
      "velocity": 95,
      "chip": "ym2612"
    },
    {
      "channel": 2,
      "note": 80,
      "start": 55.7066,
      "duration": 0.0787,
      "velocity": 95,
      "chip": "ym2612"
    },
    {
      "channel": 4,
      "note": 52,
      "start": 55.708,
      "duration": 0.1736,
      "velocity": 97,
      "chip": "ym2612"
    },
    {
      "channel": 5,
      "note": 54,
      "start": 55.7117,
      "duration": 0.126,
      "velocity": 115,
      "chip": "ym2612"
    },
    {
      "channel": 1,
      "note": 76,
      "start": 55.7378,
      "duration": 0.0787,
      "velocity": 95,
      "chip": "ym2612"
    },
    {
      "channel": 2,
      "note": 83,
      "start": 55.8336,
      "duration": 0.0787,
      "velocity": 95,
      "chip": "ym2612"
    },
    {
      "channel": 5,
      "note": 57,
      "start": 55.8384,
      "duration": 0.1086,
      "velocity": 115,
      "chip": "ym2612"
    },
    {
      "channel": 1,
      "note": 80,
      "start": 55.849,
      "duration": 0.0786,
      "velocity": 95,
      "chip": "ym2612"
    },
    {
      "channel": 0,
      "note": 78,
      "start": 55.9438,
      "duration": 1.19,
      "velocity": 99,
      "chip": "ym2612"
    },
    {
      "channel": 2,
      "note": 85,
      "start": 55.9453,
      "duration": 0.1735,
      "velocity": 95,
      "chip": "ym2612"
    },
    {
      "channel": 4,
      "note": 54,
      "start": 55.9467,
      "duration": 0.0777,
      "velocity": 97,
      "chip": "ym2612"
    },
    {
      "channel": 5,
      "note": 57,
      "start": 55.9477,
      "duration": 0.1253,
      "velocity": 115,
      "chip": "ym2612"
    },
    {
      "channel": 1,
      "note": 83,
      "start": 55.976,
      "duration": 0.0786,
      "velocity": 95,
      "chip": "ym2612"
    },
    {
      "channel": 4,
      "note": 54,
      "start": 56.0727,
      "duration": 0.0786,
      "velocity": 97,
      "chip": "ym2612"
    },
    {
      "channel": 5,
      "note": 57,
      "start": 56.0737,
      "duration": 0.1135,
      "velocity": 117,
      "chip": "ym2612"
    },
    {
      "channel": 1,
      "note": 85,
      "start": 56.0872,
      "duration": 0.1739,
      "velocity": 95,
      "chip": "ym2612"
    },
    {
      "channel": 3,
      "note": 78,
      "start": 56.104,
      "duration": 1.1899,
      "velocity": 99,
      "chip": "ym2612"
    },
    {
      "channel": 2,
      "note": 82,
      "start": 56.1833,
      "duration": 0.0779,
      "velocity": 95,
      "chip": "ym2612"
    },
    {
      "channel": 5,
      "note": 54,
      "start": 56.1879,
      "duration": 0.1256,
      "velocity": 115,
      "chip": "ym2612"
    },
    {
      "channel": 2,
      "note": 78,
      "start": 56.3098,
      "duration": 0.0787,
      "velocity": 95,
      "chip": "ym2612"
    },
    {
      "channel": 5,
      "note": 57,
      "start": 56.3142,
      "duration": 0.1085,
      "velocity": 115,
      "chip": "ym2612"
    },
    {
      "channel": 1,
      "note": 82,
      "start": 56.3253,
      "duration": 0.0786,
      "velocity": 95,
      "chip": "ym2612"
    },
    {
      "channel": 2,
      "note": 82,
      "start": 56.421,
      "duration": 0.0786,
      "velocity": 95,
      "chip": "ym2612"
    },
    {
      "channel": 4,
      "note": 54,
      "start": 56.4224,
      "duration": 0.1735,
      "velocity": 97,
      "chip": "ym2612"
    },
    {
      "channel": 5,
      "note": 57,
      "start": 56.4234,
      "duration": 0.1258,
      "velocity": 115,
      "chip": "ym2612"
    },
    {
      "channel": 1,
      "note": 78,
      "start": 56.4522,
      "duration": 0.0787,
      "velocity": 95,
      "chip": "ym2612"
    },
    {
      "channel": 2,
      "note": 85,
      "start": 56.548,
      "duration": 0.0786,
      "velocity": 95,
      "chip": "ym2612"
    },
    {
      "channel": 1,
      "note": 82,
      "start": 56.5634,
      "duration": 0.0787,
      "velocity": 95,
      "chip": "ym2612"
    },
    {
      "channel": 2,
      "note": 90,
      "start": 56.6591,
      "duration": 0.0786,
      "velocity": 95,
      "chip": "ym2612"
    },
    {
      "channel": 4,
      "note": 58,
      "start": 56.6605,
      "duration": 0.1737,
      "velocity": 97,
      "chip": "ym2612"
    },
    {
      "channel": 5,
      "note": 54,
      "start": 56.6642,
      "duration": 0.1232,
      "velocity": 117,
      "chip": "ym2612"
    },
    {
      "channel": 1,
      "note": 85,
      "start": 56.6905,
      "duration": 0.0786,
      "velocity": 95,
      "chip": "ym2612"
    },
    {
      "channel": 2,
      "note": 85,
      "start": 56.7861,
      "duration": 0.0786,
      "velocity": 95,
      "chip": "ym2612"
    },
    {
      "channel": 1,
      "note": 90,
      "start": 56.8015,
      "duration": 0.0786,
      "velocity": 95,
      "chip": "ym2612"
    },
    {
      "channel": 2,
      "note": 82,
      "start": 56.8973,
      "duration": 0.0786,
      "velocity": 95,
      "chip": "ym2612"
    },
    {
      "channel": 4,
      "note": 54,
      "start": 56.8987,
      "duration": 0.0779,
      "velocity": 97,
      "chip": "ym2612"
    },
    {
      "channel": 5,
      "note": 57,
      "start": 56.9025,
      "duration": 0.1234,
      "velocity": 115,
      "chip": "ym2612"
    },
    {
      "channel": 1,
      "note": 85,
      "start": 56.9286,
      "duration": 0.0786,
      "velocity": 95,
      "chip": "ym2612"
    },
    {
      "channel": 2,
      "note": 78,
      "start": 57.0242,
      "duration": 0.0787,
      "velocity": 95,
      "chip": "ym2612"
    },
    {
      "channel": 4,
      "note": 54,
      "start": 57.0256,
      "duration": 0.078,
      "velocity": 97,
      "chip": "ym2612"
    },
    {
      "channel": 5,
      "note": 57,
      "start": 57.0266,
      "duration": 0.1137,
      "velocity": 117,
      "chip": "ym2612"
    },
    {
      "channel": 1,
      "note": 82,
      "start": 57.0396,
      "duration": 0.0786,
      "velocity": 95,
      "chip": "ym2612"
    },
    {
      "channel": 0,
      "note": 78,
      "start": 57.1345,
      "duration": 0.5389,
      "velocity": 99,
      "chip": "ym2612"
    },
    {
      "channel": 2,
      "note": 75,
      "start": 57.1358,
      "duration": 0.0782,
      "velocity": 95,
      "chip": "ym2612"
    },
    {
      "channel": 4,
      "note": 59,
      "start": 57.1373,
      "duration": 0.1732,
      "velocity": 97,
      "chip": "ym2612"
    },
    {
      "channel": 5,
      "note": 54,
      "start": 57.141,
      "duration": 0.1254,
      "velocity": 115,
      "chip": "ym2612"
    },
    {
      "channel": 1,
      "note": 78,
      "start": 57.1667,
      "duration": 0.0787,
      "velocity": 95,
      "chip": "ym2612"
    },
    {
      "channel": 2,
      "note": 78,
      "start": 57.2623,
      "duration": 0.0787,
      "velocity": 95,
      "chip": "ym2612"
    },
    {
      "channel": 5,
      "note": 57,
      "start": 57.2671,
      "duration": 0.108,
      "velocity": 115,
      "chip": "ym2612"
    },
    {
      "channel": 1,
      "note": 75,
      "start": 57.2778,
      "duration": 0.0786,
      "velocity": 95,
      "chip": "ym2612"
    },
    {
      "channel": 3,
      "note": 78,
      "start": 57.2946,
      "duration": 0.5387,
      "velocity": 99,
      "chip": "ym2612"
    },
    {
      "channel": 2,
      "note": 83,
      "start": 57.3735,
      "duration": 0.0787,
      "velocity": 95,
      "chip": "ym2612"
    },
    {
      "channel": 4,
      "note": 71,
      "start": 57.3749,
      "duration": 0.1737,
      "velocity": 97,
      "chip": "ym2612"
    },
    {
      "channel": 5,
      "note": 57,
      "start": 57.3759,
      "duration": 0.1258,
      "velocity": 115,
      "chip": "ym2612"
    },
    {
      "channel": 1,
      "note": 78,
      "start": 57.4048,
      "duration": 0.0786,
      "velocity": 95,
      "chip": "ym2612"
    },
    {
      "channel": 2,
      "note": 75,
      "start": 57.5005,
      "duration": 0.0787,
      "velocity": 95,
      "chip": "ym2612"
    },
    {
      "channel": 5,
      "note": 57,
      "start": 57.5025,
      "duration": 0.1136,
      "velocity": 117,
      "chip": "ym2612"
    },
    {
      "channel": 1,
      "note": 83,
      "start": 57.5159,
      "duration": 0.0787,
      "velocity": 95,
      "chip": "ym2612"
    },
    {
      "channel": 2,
      "note": 78,
      "start": 57.6116,
      "duration": 0.0786,
      "velocity": 95,
      "chip": "ym2612"
    },
    {
      "channel": 4,
      "note": 59,
      "start": 57.613,
      "duration": 0.1736,
      "velocity": 97,
      "chip": "ym2612"
    },
    {
      "channel": 5,
      "note": 54,
      "start": 57.6168,
      "duration": 0.1259,
      "velocity": 115,
      "chip": "ym2612"
    },
    {
      "channel": 1,
      "note": 75,
      "start": 57.6429,
      "duration": 0.0787,
      "velocity": 95,
      "chip": "ym2612"
    },
    {
      "channel": 2,
      "note": 83,
      "start": 57.7386,
      "duration": 0.0787,
      "velocity": 95,
      "chip": "ym2612"
    },
    {
      "channel": 5,
      "note": 57,
      "start": 57.7434,
      "duration": 0.1086,
      "velocity": 115,
      "chip": "ym2612"
    },
    {
      "channel": 1,
      "note": 78,
      "start": 57.7541,
      "duration": 0.0786,
      "velocity": 95,
      "chip": "ym2612"
    },
    {
      "channel": 0,
      "note": 80,
      "start": 57.8488,
      "duration": 1.1899,
      "velocity": 99,
      "chip": "ym2612"
    },
    {
      "channel": 2,
      "note": 87,
      "start": 57.8503,
      "duration": 0.1735,
      "velocity": 95,
      "chip": "ym2612"
    },
    {
      "channel": 4,
      "note": 56,
      "start": 57.8517,
      "duration": 0.0777,
      "velocity": 97,
      "chip": "ym2612"
    },
    {
      "channel": 5,
      "note": 57,
      "start": 57.8527,
      "duration": 0.1253,
      "velocity": 115,
      "chip": "ym2612"
    },
    {
      "channel": 1,
      "note": 83,
      "start": 57.881,
      "duration": 0.0786,
      "velocity": 95,
      "chip": "ym2612"
    },
    {
      "channel": 4,
      "note": 56,
      "start": 57.9778,
      "duration": 0.0785,
      "velocity": 97,
      "chip": "ym2612"
    },
    {
      "channel": 5,
      "note": 57,
      "start": 57.9788,
      "duration": 0.1135,
      "velocity": 117,
      "chip": "ym2612"
    },
    {
      "channel": 1,
      "note": 87,
      "start": 57.9922,
      "duration": 0.1739,
      "velocity": 95,
      "chip": "ym2612"
    },
    {
      "channel": 3,
      "note": 80,
      "start": 58.0091,
      "duration": 1.1898,
      "velocity": 99,
      "chip": "ym2612"
    },
    {
      "channel": 2,
      "note": 80,
      "start": 58.0884,
      "duration": 0.0779,
      "velocity": 95,
      "chip": "ym2612"
    },
    {
      "channel": 5,
      "note": 54,
      "start": 58.093,
      "duration": 0.1255,
      "velocity": 115,
      "chip": "ym2612"
    },
    {
      "channel": 2,
      "note": 75,
      "start": 58.2149,
      "duration": 0.0786,
      "velocity": 95,
      "chip": "ym2612"
    },
    {
      "channel": 5,
      "note": 57,
      "start": 58.2192,
      "duration": 0.1085,
      "velocity": 115,
      "chip": "ym2612"
    },
    {
      "channel": 1,
      "note": 80,
      "start": 58.2304,
      "duration": 0.0786,
      "velocity": 95,
      "chip": "ym2612"
    },
    {
      "channel": 2,
      "note": 80,
      "start": 58.326,
      "duration": 0.0787,
      "velocity": 95,
      "chip": "ym2612"
    },
    {
      "channel": 4,
      "note": 56,
      "start": 58.3275,
      "duration": 0.1735,
      "velocity": 97,
      "chip": "ym2612"
    },
    {
      "channel": 5,
      "note": 57,
      "start": 58.3285,
      "duration": 0.1258,
      "velocity": 115,
      "chip": "ym2612"
    },
    {
      "channel": 1,
      "note": 75,
      "start": 58.3573,
      "duration": 0.0787,
      "velocity": 95,
      "chip": "ym2612"
    },
    {
      "channel": 2,
      "note": 84,
      "start": 58.4531,
      "duration": 0.0786,
      "velocity": 95,
      "chip": "ym2612"
    },
    {
      "channel": 1,
      "note": 80,
      "start": 58.4684,
      "duration": 0.0787,
      "velocity": 95,
      "chip": "ym2612"
    },
    {
      "channel": 2,
      "note": 87,
      "start": 58.5641,
      "duration": 0.0787,
      "velocity": 95,
      "chip": "ym2612"
    },
    {
      "channel": 4,
      "note": 63,
      "start": 58.5655,
      "duration": 0.1737,
      "velocity": 97,
      "chip": "ym2612"
    },
    {
      "channel": 5,
      "note": 45,
      "start": 58.5693,
      "duration": 0.1232,
      "velocity": 127,
      "chip": "ym2612"
    },
    {
      "channel": 1,
      "note": 84,
      "start": 58.5955,
      "duration": 0.0785,
      "velocity": 95,
      "chip": "ym2612"
    },
    {
      "channel": 2,
      "note": 84,
      "start": 58.6912,
      "duration": 0.0786,
      "velocity": 95,
      "chip": "ym2612"
    },
    {
      "channel": 1,
      "note": 87,
      "start": 58.7066,
      "duration": 0.0786,
      "velocity": 95,
      "chip": "ym2612"
    },
    {
      "channel": 2,
      "note": 80,
      "start": 58.8023,
      "duration": 0.0786,
      "velocity": 95,
      "chip": "ym2612"
    },
    {
      "channel": 4,
      "note": 59,
      "start": 58.8037,
      "duration": 0.0779,
      "velocity": 97,
      "chip": "ym2612"
    },
    {
      "channel": 5,
      "note": 57,
      "start": 58.8075,
      "duration": 0.1234,
      "velocity": 115,
      "chip": "ym2612"
    },
    {
      "channel": 1,
      "note": 84,
      "start": 58.8336,
      "duration": 0.0786,
      "velocity": 95,
      "chip": "ym2612"
    },
    {
      "channel": 2,
      "note": 75,
      "start": 58.9293,
      "duration": 0.0787,
      "velocity": 95,
      "chip": "ym2612"
    },
    {
      "channel": 4,
      "note": 59,
      "start": 58.9306,
      "duration": 0.078,
      "velocity": 97,
      "chip": "ym2612"
    },
    {
      "channel": 5,
      "note": 57,
      "start": 58.9316,
      "duration": 0.1137,
      "velocity": 117,
      "chip": "ym2612"
    },
    {
      "channel": 1,
      "note": 80,
      "start": 58.9446,
      "duration": 0.0787,
      "velocity": 95,
      "chip": "ym2612"
    },
    {
      "channel": 0,
      "note": 83,
      "start": 59.0394,
      "duration": 0.7297,
      "velocity": 99,
      "chip": "ym2612"
    },
    {
      "channel": 2,
      "note": 76,
      "start": 59.0408,
      "duration": 0.2688,
      "velocity": 95,
      "chip": "ym2612"
    },
    {
      "channel": 4,
      "note": 52,
      "start": 59.0423,
      "duration": 0.1732,
      "velocity": 97,
      "chip": "ym2612"
    },
    {
      "channel": 5,
      "note": 54,
      "start": 59.0461,
      "duration": 0.1251,
      "velocity": 115,
      "chip": "ym2612"
    },
    {
      "channel": 1,
      "note": 75,
      "start": 59.0717,
      "duration": 0.0786,
      "velocity": 95,
      "chip": "ym2612"
    },
    {
      "channel": 5,
      "note": 57,
      "start": 59.1718,
      "duration": 0.108,
      "velocity": 115,
      "chip": "ym2612"
    },
    {
      "channel": 1,
      "note": 76,
      "start": 59.1829,
      "duration": 0.2692,
      "velocity": 95,
      "chip": "ym2612"
    },
    {
      "channel": 3,
      "note": 83,
      "start": 59.1996,
      "duration": 0.7294,
      "velocity": 99,
      "chip": "ym2612"
    },
    {
      "channel": 4,
      "note": 52,
      "start": 59.2796,
      "duration": 0.1737,
      "velocity": 97,
      "chip": "ym2612"
    },
    {
      "channel": 5,
      "note": 57,
      "start": 59.2805,
      "duration": 0.1263,
      "velocity": 115,
      "chip": "ym2612"
    },
    {
      "channel": 2,
      "note": 80,
      "start": 59.4055,
      "duration": 0.2692,
      "velocity": 95,
      "chip": "ym2612"
    },
    {
      "channel": 5,
      "note": 57,
      "start": 59.4075,
      "duration": 0.1133,
      "velocity": 127,
      "chip": "ym2612"
    },
    {
      "channel": 4,
      "note": 52,
      "start": 59.5177,
      "duration": 0.174,
      "velocity": 97,
      "chip": "ym2612"
    },
    {
      "channel": 5,
      "note": 45,
      "start": 59.5215,
      "duration": 0.1232,
      "velocity": 127,
      "chip": "ym2612"
    },
    {
      "channel": 1,
      "note": 80,
      "start": 59.5479,
      "duration": 0.2692,
      "velocity": 95,
      "chip": "ym2612"
    },
    {
      "channel": 2,
      "note": 76,
      "start": 59.7549,
      "duration": 0.1739,
      "velocity": 95,
      "chip": "ym2612"
    },
    {
      "channel": 4,
      "note": 52,
      "start": 59.7563,
      "duration": 0.1728,
      "velocity": 97,
      "chip": "ym2612"
    },
    {
      "channel": 5,
      "note": 57,
      "start": 59.76,
      "duration": 0.1255,
      "velocity": 127,
      "chip": "ym2612"
    },
    {
      "channel": 5,
      "note": 45,
      "start": 59.8863,
      "duration": 0.1116,
      "velocity": 117,
      "chip": "ym2612"
    },
    {
      "channel": 1,
      "note": 76,
      "start": 59.8973,
      "duration": 0.1739,
      "velocity": 95,
      "chip": "ym2612"
    },
    {
      "channel": 0,
      "note": 83,
      "start": 59.992,
      "duration": 0.2691,
      "velocity": 99,
      "chip": "ym2612"
    },
    {
      "channel": 2,
      "note": 76,
      "start": 59.9935,
      "duration": 0.0777,
      "velocity": 95,
      "chip": "ym2612"
    },
    {
      "channel": 4,
      "note": 52,
      "start": 59.9949,
      "duration": 0.1731,
      "velocity": 97,
      "chip": "ym2612"
    },
    {
      "channel": 5,
      "note": 54,
      "start": 59.9986,
      "duration": 0.1254,
      "velocity": 115,
      "chip": "ym2612"
    },
    {
      "channel": 2,
      "note": 80,
      "start": 60.1199,
      "duration": 0.0787,
      "velocity": 95,
      "chip": "ym2612"
    },
    {
      "channel": 5,
      "note": 57,
      "start": 60.1247,
      "duration": 0.108,
      "velocity": 115,
      "chip": "ym2612"
    },
    {
      "channel": 1,
      "note": 76,
      "start": 60.1354,
      "duration": 0.0785,
      "velocity": 95,
      "chip": "ym2612"
    },
    {
      "channel": 3,
      "note": 83,
      "start": 60.1523,
      "duration": 0.269,
      "velocity": 99,
      "chip": "ym2612"
    },
    {
      "channel": 2,
      "note": 76,
      "start": 60.231,
      "duration": 0.0787,
      "velocity": 95,
      "chip": "ym2612"
    },
    {
      "channel": 4,
      "note": 52,
      "start": 60.2324,
      "duration": 0.1737,
      "velocity": 97,
      "chip": "ym2612"
    },
    {
      "channel": 5,
      "note": 57,
      "start": 60.2334,
      "duration": 0.1263,
      "velocity": 115,
      "chip": "ym2612"
    },
    {
      "channel": 1,
      "note": 80,
      "start": 60.262,
      "duration": 0.079,
      "velocity": 95,
      "chip": "ym2612"
    },
    {
      "channel": 0,
      "note": 82,
      "start": 60.3571,
      "duration": 0.2692,
      "velocity": 99,
      "chip": "ym2612"
    },
    {
      "channel": 2,
      "note": 76,
      "start": 60.3585,
      "duration": 0.0783,
      "velocity": 95,
      "chip": "ym2612"
    },
    {
      "channel": 5,
      "note": 57,
      "start": 60.3604,
      "duration": 0.1132,
      "velocity": 127,
      "chip": "ym2612"
    },
    {
      "channel": 1,
      "note": 76,
      "start": 60.3734,
      "duration": 0.0787,
      "velocity": 95,
      "chip": "ym2612"
    },
    {
      "channel": 2,
      "note": 76,
      "start": 60.4692,
      "duration": 0.0786,
      "velocity": 95,
      "chip": "ym2612"
    },
    {
      "channel": 4,
      "note": 52,
      "start": 60.4705,
      "duration": 0.1737,
      "velocity": 97,
      "chip": "ym2612"
    },
    {
      "channel": 5,
      "note": 45,
      "start": 60.4744,
      "duration": 0.1232,
      "velocity": 127,
      "chip": "ym2612"
    },
    {
      "channel": 1,
      "note": 76,
      "start": 60.5005,
      "duration": 0.0786,
      "velocity": 95,
      "chip": "ym2612"
    },
    {
      "channel": 3,
      "note": 82,
      "start": 60.5173,
      "duration": 0.2692,
      "velocity": 99,
      "chip": "ym2612"
    },
    {
      "channel": 2,
      "note": 83,
      "start": 60.5963,
      "duration": 0.1738,
      "velocity": 95,
      "chip": "ym2612"
    },
    {
      "channel": 1,
      "note": 76,
      "start": 60.6116,
      "duration": 0.0787,
      "velocity": 95,
      "chip": "ym2612"
    },
    {
      "channel": 0,
      "note": 83,
      "start": 60.7064,
      "duration": 0.1739,
      "velocity": 99,
      "chip": "ym2612"
    },
    {
      "channel": 4,
      "note": 64,
      "start": 60.7088,
      "duration": 0.0778,
      "velocity": 97,
      "chip": "ym2612"
    },
    {
      "channel": 5,
      "note": 57,
      "start": 60.7127,
      "duration": 0.1262,
      "velocity": 127,
      "chip": "ym2612"
    },
    {
      "channel": 1,
      "note": 83,
      "start": 60.7387,
      "duration": 0.1738,
      "velocity": 95,
      "chip": "ym2612"
    },
    {
      "channel": 2,
      "note": 76,
      "start": 60.8344,
      "duration": 0.0782,
      "velocity": 95,
      "chip": "ym2612"
    },
    {
      "channel": 4,
      "note": 64,
      "start": 60.8358,
      "duration": 0.0775,
      "velocity": 97,
      "chip": "ym2612"
    },
    {
      "channel": 5,
      "note": 45,
      "start": 60.8396,
      "duration": 0.1109,
      "velocity": 117,
      "chip": "ym2612"
    },
    {
      "channel": 3,
      "note": 83,
      "start": 60.8667,
      "duration": 0.1739,
      "velocity": 99,
      "chip": "ym2612"
    },
    {
      "channel": 0,
      "note": 85,
      "start": 60.9445,
      "duration": 1.5074,
      "velocity": 99,
      "chip": "ym2612"
    },
    {
      "channel": 2,
      "note": 80,
      "start": 60.946,
      "duration": 0.2686,
      "velocity": 95,
      "chip": "ym2612"
    },
    {
      "channel": 4,
      "note": 56,
      "start": 60.9475,
      "duration": 0.2678,
      "velocity": 97,
      "chip": "ym2612"
    },
    {
      "channel": 5,
      "note": 54,
      "start": 60.9512,
      "duration": 0.1249,
      "velocity": 115,
      "chip": "ym2612"
    },
    {
      "channel": 1,
      "note": 76,
      "start": 60.9768,
      "duration": 0.0786,
      "velocity": 95,
      "chip": "ym2612"
    },
    {
      "channel": 5,
      "note": 57,
      "start": 61.0768,
      "duration": 0.1076,
      "velocity": 115,
      "chip": "ym2612"
    },
    {
      "channel": 1,
      "note": 80,
      "start": 61.088,
      "duration": 0.2691,
      "velocity": 95,
      "chip": "ym2612"
    },
    {
      "channel": 3,
      "note": 85,
      "start": 61.1048,
      "duration": 1.5078,
      "velocity": 99,
      "chip": "ym2612"
    },
    {
      "channel": 5,
      "note": 57,
      "start": 61.1852,
      "duration": 0.127,
      "velocity": 115,
      "chip": "ym2612"
    },
    {
      "channel": 2,
      "note": 80,
      "start": 61.3106,
      "duration": 0.2692,
      "velocity": 95,
      "chip": "ym2612"
    },
    {
      "channel": 4,
      "note": 68,
      "start": 61.312,
      "duration": 0.0782,
      "velocity": 97,
      "chip": "ym2612"
    },
    {
      "channel": 5,
      "note": 57,
      "start": 61.313,
      "duration": 0.1129,
      "velocity": 127,
      "chip": "ym2612"
    },
    {
      "channel": 4,
      "note": 56,
      "start": 61.4228,
      "duration": 0.0786,
      "velocity": 97,
      "chip": "ym2612"
    },
    {
      "channel": 5,
      "note": 45,
      "start": 61.4266,
      "duration": 0.1235,
      "velocity": 127,
      "chip": "ym2612"
    },
    {
      "channel": 1,
      "note": 80,
      "start": 61.453,
      "duration": 0.2691,
      "velocity": 95,
      "chip": "ym2612"
    },
    {
      "channel": 4,
      "note": 56,
      "start": 61.5498,
      "duration": 0.1735,
      "velocity": 97,
      "chip": "ym2612"
    },
    {
      "channel": 2,
      "note": 80,
      "start": 61.6599,
      "duration": 0.174,
      "velocity": 95,
      "chip": "ym2612"
    },
    {
      "channel": 5,
      "note": 57,
      "start": 61.6648,
      "duration": 0.1263,
      "velocity": 127,
      "chip": "ym2612"
    },
    {
      "channel": 4,
      "note": 68,
      "start": 61.788,
      "duration": 0.0785,
      "velocity": 97,
      "chip": "ym2612"
    },
    {
      "channel": 5,
      "note": 45,
      "start": 61.7918,
      "duration": 0.1107,
      "velocity": 122,
      "chip": "ym2612"
    },
    {
      "channel": 1,
      "note": 80,
      "start": 61.8024,
      "duration": 0.1739,
      "velocity": 95,
      "chip": "ym2612"
    },
    {
      "channel": 2,
      "note": 78,
      "start": 61.898,
      "duration": 0.1741,
      "velocity": 95,
      "chip": "ym2612"
    },
    {
      "channel": 4,
      "note": 63,
      "start": 61.8994,
      "duration": 0.1732,
      "velocity": 97,
      "chip": "ym2612"
    },
    {
      "channel": 5,
      "note": 54,
      "start": 61.9032,
      "duration": 0.1254,
      "velocity": 122,
      "chip": "ym2612"
    },
    {
      "channel": 5,
      "note": 54,
      "start": 62.0293,
      "duration": 0.1113,
      "velocity": 122,
      "chip": "ym2612"
    },
    {
      "channel": 1,
      "note": 78,
      "start": 62.0404,
      "duration": 0.1739,
      "velocity": 95,
      "chip": "ym2612"
    },
    {
      "channel": 2,
      "note": 78,
      "start": 62.1361,
      "duration": 0.174,
      "velocity": 95,
      "chip": "ym2612"
    },
    {
      "channel": 4,
      "note": 75,
      "start": 62.1375,
      "duration": 0.1732,
      "velocity": 97,
      "chip": "ym2612"
    },
    {
      "channel": 5,
      "note": 49,
      "start": 62.1413,
      "duration": 0.1255,
      "velocity": 122,
      "chip": "ym2612"
    },
    {
      "channel": 5,
      "note": 49,
      "start": 62.2675,
      "duration": 0.1113,
      "velocity": 127,
      "chip": "ym2612"
    },
    {
      "channel": 1,
      "note": 78,
      "start": 62.2785,
      "duration": 0.1736,
      "velocity": 95,
      "chip": "ym2612"
    },
    {
      "channel": 2,
      "note": 77,
      "start": 62.3742,
      "duration": 0.174,
      "velocity": 95,
      "chip": "ym2612"
    },
    {
      "channel": 4,
      "note": 61,
      "start": 62.3756,
      "duration": 0.1733,
      "velocity": 97,
      "chip": "ym2612"
    },
    {
      "channel": 5,
      "note": 45,
      "start": 62.3795,
      "duration": 0.1227,
      "velocity": 127,
      "chip": "ym2612"
    },
    {
      "channel": 1,
      "note": 77,
      "start": 62.5166,
      "duration": 0.1739,
      "velocity": 95,
      "chip": "ym2612"
    },
    {
      "channel": 2,
      "note": 77,
      "start": 62.6124,
      "duration": 0.174,
      "velocity": 95,
      "chip": "ym2612"
    },
    {
      "channel": 4,
      "note": 73,
      "start": 62.6134,
      "duration": 0.1736,
      "velocity": 97,
      "chip": "ym2612"
    },
    {
      "channel": 5,
      "note": 45,
      "start": 62.6144,
      "duration": 0.1258,
      "velocity": 127,
      "chip": "ym2612"
    },
    {
      "channel": 1,
      "note": 77,
      "start": 62.7548,
      "duration": 0.1739,
      "velocity": 95,
      "chip": "ym2612"
    },
    {
      "channel": 0,
      "note": 75,
      "start": 62.8522,
      "duration": 0.1714,
      "velocity": 95,
      "chip": "ym2612"
    },
    {
      "channel": 2,
      "note": 80,
      "start": 62.8535,
      "duration": 0.1707,
      "velocity": 95,
      "chip": "ym2612"
    },
    {
      "channel": 4,
      "note": 56,
      "start": 62.855,
      "duration": 0.2657,
      "velocity": 97,
      "chip": "ym2612"
    },
    {
      "channel": 5,
      "note": 54,
      "start": 62.8587,
      "duration": 0.1197,
      "velocity": 117,
      "chip": "ym2612"
    },
    {
      "channel": 1,
      "note": 80,
      "start": 62.9929,
      "duration": 0.1739,
      "velocity": 95,
      "chip": "ym2612"
    },
    {
      "channel": 3,
      "note": 75,
      "start": 63.0125,
      "duration": 0.1713,
      "velocity": 95,
      "chip": "ym2612"
    },
    {
      "channel": 0,
      "note": 75,
      "start": 63.0877,
      "duration": 0.174,
      "velocity": 95,
      "chip": "ym2612"
    },
    {
      "channel": 2,
      "note": 80,
      "start": 63.089,
      "duration": 0.1733,
      "velocity": 95,
      "chip": "ym2612"
    },
    {
      "channel": 4,
      "note": 68,
      "start": 63.2167,
      "duration": 0.0786,
      "velocity": 97,
      "chip": "ym2612"
    },
    {
      "channel": 1,
      "note": 80,
      "start": 63.231,
      "duration": 0.1739,
      "velocity": 95,
      "chip": "ym2612"
    },
    {
      "channel": 3,
      "note": 75,
      "start": 63.2478,
      "duration": 0.1741,
      "velocity": 95,
      "chip": "ym2612"
    },
    {
      "channel": 0,
      "note": 75,
      "start": 63.3258,
      "duration": 0.1741,
      "velocity": 95,
      "chip": "ym2612"
    },
    {
      "channel": 2,
      "note": 80,
      "start": 63.3271,
      "duration": 0.1734,
      "velocity": 95,
      "chip": "ym2612"
    },
    {
      "channel": 4,
      "note": 56,
      "start": 63.3285,
      "duration": 0.0776,
      "velocity": 97,
      "chip": "ym2612"
    },
    {
      "channel": 5,
      "note": 54,
      "start": 63.3295,
      "duration": 0.1256,
      "velocity": 117,
      "chip": "ym2612"
    },
    {
      "channel": 4,
      "note": 56,
      "start": 63.4548,
      "duration": 0.1738,
      "velocity": 97,
      "chip": "ym2612"
    },
    {
      "channel": 1,
      "note": 80,
      "start": 63.4691,
      "duration": 0.1736,
      "velocity": 95,
      "chip": "ym2612"
    },
    {
      "channel": 3,
      "note": 75,
      "start": 63.486,
      "duration": 0.174,
      "velocity": 95,
      "chip": "ym2612"
    },
    {
      "channel": 0,
      "note": 75,
      "start": 63.564,
      "duration": 0.0786,
      "velocity": 95,
      "chip": "ym2612"
    },
    {
      "channel": 2,
      "note": 80,
      "start": 63.5654,
      "duration": 0.0776,
      "velocity": 95,
      "chip": "ym2612"
    },
    {
      "channel": 0,
      "note": 75,
      "start": 63.6909,
      "duration": 0.0787,
      "velocity": 95,
      "chip": "ym2612"
    },
    {
      "channel": 2,
      "note": 80,
      "start": 63.6922,
      "duration": 0.078,
      "velocity": 95,
      "chip": "ym2612"
    },
    {
      "channel": 4,
      "note": 68,
      "start": 63.6937,
      "duration": 0.0772,
      "velocity": 97,
      "chip": "ym2612"
    },
    {
      "channel": 1,
      "note": 80,
      "start": 63.7074,
      "duration": 0.0786,
      "velocity": 95,
      "chip": "ym2612"
    },
    {
      "channel": 3,
      "note": 75,
      "start": 63.7242,
      "duration": 0.0794,
      "velocity": 95,
      "chip": "ym2612"
    },
    {
      "channel": 0,
      "note": 73,
      "start": 63.802,
      "duration": 0.0787,
      "velocity": 95,
      "chip": "ym2612"
    },
    {
      "channel": 2,
      "note": 78,
      "start": 63.8034,
      "duration": 0.078,
      "velocity": 95,
      "chip": "ym2612"
    },
    {
      "channel": 4,
      "note": 61,
      "start": 63.8045,
      "duration": 0.1735,
      "velocity": 97,
      "chip": "ym2612"
    },
    {
      "channel": 5,
      "note": 45,
      "start": 63.8083,
      "duration": 0.123,
      "velocity": 127,
      "chip": "ym2612"
    },
    {
      "channel": 1,
      "note": 80,
      "start": 63.8343,
      "duration": 0.0786,
      "velocity": 95,
      "chip": "ym2612"
    },
    {
      "channel": 3,
      "note": 75,
      "start": 63.8511,
      "duration": 0.0794,
      "velocity": 95,
      "chip": "ym2612"
    },
    {
      "channel": 0,
      "note": 73,
      "start": 63.929,
      "duration": 0.0787,
      "velocity": 95,
      "chip": "ym2612"
    },
    {
      "channel": 2,
      "note": 78,
      "start": 63.9303,
      "duration": 0.078,
      "velocity": 95,
      "chip": "ym2612"
    },
    {
      "channel": 5,
      "note": 45,
      "start": 63.932,
      "duration": 0.111,
      "velocity": 127,
      "chip": "ym2612"
    },
    {
      "channel": 1,
      "note": 78,
      "start": 63.9454,
      "duration": 0.0786,
      "velocity": 95,
      "chip": "ym2612"
    },
    {
      "channel": 3,
      "note": 73,
      "start": 63.9622,
      "duration": 0.0796,
      "velocity": 95,
      "chip": "ym2612"
    },
    {
      "channel": 0,
      "note": 73,
      "start": 64.0403,
      "duration": 0.1739,
      "velocity": 95,
      "chip": "ym2612"
    },
    {
      "channel": 2,
      "note": 78,
      "start": 64.0417,
      "duration": 0.1732,
      "velocity": 95,
      "chip": "ym2612"
    },
    {
      "channel": 4,
      "note": 73,
      "start": 64.0427,
      "duration": 0.1728,
      "velocity": 97,
      "chip": "ym2612"
    },
    {
      "channel": 5,
      "note": 45,
      "start": 64.0437,
      "duration": 0.125,
      "velocity": 127,
      "chip": "ym2612"
    },
    {
      "channel": 1,
      "note": 78,
      "start": 64.0724,
      "duration": 0.0787,
      "velocity": 95,
      "chip": "ym2612"
    },
    {
      "channel": 3,
      "note": 73,
      "start": 64.0893,
      "duration": 0.0787,
      "velocity": 95,
      "chip": "ym2612"
    },
    {
      "channel": 5,
      "note": 45,
      "start": 64.1695,
      "duration": 0.1119,
      "velocity": 127,
      "chip": "ym2612"
    },
    {
      "channel": 1,
      "note": 78,
      "start": 64.1837,
      "duration": 0.1738,
      "velocity": 95,
      "chip": "ym2612"
    },
    {
      "channel": 3,
      "note": 73,
      "start": 64.2005,
      "duration": 0.174,
      "velocity": 95,
      "chip": "ym2612"
    },
    {
      "channel": 0,
      "note": 73,
      "start": 64.2783,
      "duration": 0.1741,
      "velocity": 95,
      "chip": "ym2612"
    },
    {
      "channel": 2,
      "note": 77,
      "start": 64.2797,
      "duration": 0.1733,
      "velocity": 95,
      "chip": "ym2612"
    },
    {
      "channel": 4,
      "note": 61,
      "start": 64.281,
      "duration": 0.1726,
      "velocity": 97,
      "chip": "ym2612"
    },
    {
      "channel": 5,
      "note": 45,
      "start": 64.2821,
      "duration": 0.1251,
      "velocity": 127,
      "chip": "ym2612"
    },
    {
      "channel": 5,
      "note": 45,
      "start": 64.4079,
      "duration": 0.1115,
      "velocity": 127,
      "chip": "ym2612"
    },
    {
      "channel": 1,
      "note": 77,
      "start": 64.4217,
      "duration": 0.1739,
      "velocity": 95,
      "chip": "ym2612"
    },
    {
      "channel": 3,
      "note": 73,
      "start": 64.4385,
      "duration": 0.1741,
      "velocity": 95,
      "chip": "ym2612"
    },
    {
      "channel": 0,
      "note": 73,
      "start": 64.5164,
      "duration": 0.174,
      "velocity": 95,
      "chip": "ym2612"
    },
    {
      "channel": 2,
      "note": 77,
      "start": 64.5178,
      "duration": 0.1733,
      "velocity": 95,
      "chip": "ym2612"
    },
    {
      "channel": 4,
      "note": 73,
      "start": 64.5191,
      "duration": 0.1726,
      "velocity": 97,
      "chip": "ym2612"
    },
    {
      "channel": 5,
      "note": 45,
      "start": 64.5202,
      "duration": 0.1251,
      "velocity": 127,
      "chip": "ym2612"
    },
    {
      "channel": 5,
      "note": 45,
      "start": 64.646,
      "duration": 0.1171,
      "velocity": 117,
      "chip": "ym2612"
    },
    {
      "channel": 1,
      "note": 77,
      "start": 64.6598,
      "duration": 0.1739,
      "velocity": 95,
      "chip": "ym2612"
    },
    {
      "channel": 3,
      "note": 73,
      "start": 64.6766,
      "duration": 0.1741,
      "velocity": 95,
      "chip": "ym2612"
    },
    {
      "channel": 0,
      "note": 78,
      "start": 64.7571,
      "duration": 0.346,
      "velocity": 93,
      "chip": "ym2612"
    },
    {
      "channel": 2,
      "note": 78,
      "start": 64.7586,
      "duration": 0.0753,
      "velocity": 95,
      "chip": "ym2612"
    },
    {
      "channel": 4,
      "note": 54,
      "start": 64.76,
      "duration": 0.266,
      "velocity": 97,
      "chip": "ym2612"
    },
    {
      "channel": 5,
      "note": 54,
      "start": 64.7638,
      "duration": 0.1228,
      "velocity": 115,
      "chip": "ym2612"
    },
    {
      "channel": 2,
      "note": 73,
      "start": 64.8825,
      "duration": 0.0787,
      "velocity": 95,
      "chip": "ym2612"
    },
    {
      "channel": 5,
      "note": 57,
      "start": 64.8873,
      "duration": 0.1077,
      "velocity": 115,
      "chip": "ym2612"
    },
    {
      "channel": 1,
      "note": 78,
      "start": 64.898,
      "duration": 0.0786,
      "velocity": 95,
      "chip": "ym2612"
    },
    {
      "channel": 3,
      "note": 78,
      "start": 64.9175,
      "duration": 0.3463,
      "velocity": 93,
      "chip": "ym2612"
    },
    {
      "channel": 2,
      "note": 82,
      "start": 64.9937,
      "duration": 0.0786,
      "velocity": 95,
      "chip": "ym2612"
    },
    {
      "channel": 5,
      "note": 57,
      "start": 64.9957,
      "duration": 0.1268,
      "velocity": 115,
      "chip": "ym2612"
    },
    {
      "channel": 1,
      "note": 73,
      "start": 65.0249,
      "duration": 0.0784,
      "velocity": 95,
      "chip": "ym2612"
    },
    {
      "channel": 2,
      "note": 80,
      "start": 65.1207,
      "duration": 0.1739,
      "velocity": 95,
      "chip": "ym2612"
    },
    {
      "channel": 4,
      "note": 66,
      "start": 65.1221,
      "duration": 0.0782,
      "velocity": 97,
      "chip": "ym2612"
    },
    {
      "channel": 5,
      "note": 57,
      "start": 65.1232,
      "duration": 0.1132,
      "velocity": 127,
      "chip": "ym2612"
    },
    {
      "channel": 1,
      "note": 82,
      "start": 65.1361,
      "duration": 0.0787,
      "velocity": 95,
      "chip": "ym2612"
    },
    {
      "channel": 0,
      "note": 82,
      "start": 65.2309,
      "duration": 0.3485,
      "velocity": 93,
      "chip": "ym2612"
    },
    {
      "channel": 4,
      "note": 54,
      "start": 65.2332,
      "duration": 0.0783,
      "velocity": 97,
      "chip": "ym2612"
    },
    {
      "channel": 5,
      "note": 45,
      "start": 65.237,
      "duration": 0.1236,
      "velocity": 127,
      "chip": "ym2612"
    },
    {
      "channel": 1,
      "note": 80,
      "start": 65.2632,
      "duration": 0.1738,
      "velocity": 95,
      "chip": "ym2612"
    },
    {
      "channel": 2,
      "note": 82,
      "start": 65.3589,
      "duration": 0.0782,
      "velocity": 95,
      "chip": "ym2612"
    },
    {
      "channel": 4,
      "note": 54,
      "start": 65.3604,
      "duration": 0.1733,
      "velocity": 97,
      "chip": "ym2612"
    },
    {
      "channel": 3,
      "note": 82,
      "start": 65.391,
      "duration": 0.3485,
      "velocity": 93,
      "chip": "ym2612"
    },
    {
      "channel": 2,
      "note": 78,
      "start": 65.47,
      "duration": 0.174,
      "velocity": 95,
      "chip": "ym2612"
    },
    {
      "channel": 5,
      "note": 57,
      "start": 65.4747,
      "duration": 0.1235,
      "velocity": 115,
      "chip": "ym2612"
    },
    {
      "channel": 1,
      "note": 82,
      "start": 65.5013,
      "duration": 0.0783,
      "velocity": 95,
      "chip": "ym2612"
    },
    {
      "channel": 4,
      "note": 66,
      "start": 65.598,
      "duration": 0.0786,
      "velocity": 97,
      "chip": "ym2612"
    },
    {
      "channel": 5,
      "note": 57,
      "start": 65.599,
      "duration": 0.1142,
      "velocity": 117,
      "chip": "ym2612"
    },
    {
      "channel": 1,
      "note": 78,
      "start": 65.6124,
      "duration": 0.1739,
      "velocity": 95,
      "chip": "ym2612"
    },
    {
      "channel": 0,
      "note": 85,
      "start": 65.7072,
      "duration": 0.2691,
      "velocity": 93,
      "chip": "ym2612"
    },
    {
      "channel": 2,
      "note": 78,
      "start": 65.7086,
      "duration": 0.0778,
      "velocity": 95,
      "chip": "ym2612"
    },
    {
      "channel": 4,
      "note": 54,
      "start": 65.7101,
      "duration": 0.173,
      "velocity": 97,
      "chip": "ym2612"
    },
    {
      "channel": 5,
      "note": 54,
      "start": 65.7139,
      "duration": 0.1252,
      "velocity": 115,
      "chip": "ym2612"
    },
    {
      "channel": 2,
      "note": 73,
      "start": 65.8351,
      "duration": 0.0787,
      "velocity": 95,
      "chip": "ym2612"
    },
    {
      "channel": 5,
      "note": 57,
      "start": 65.8398,
      "duration": 0.1081,
      "velocity": 115,
      "chip": "ym2612"
    },
    {
      "channel": 1,
      "note": 78,
      "start": 65.8506,
      "duration": 0.0786,
      "velocity": 95,
      "chip": "ym2612"
    },
    {
      "channel": 3,
      "note": 85,
      "start": 65.8674,
      "duration": 0.2691,
      "velocity": 93,
      "chip": "ym2612"
    },
    {
      "channel": 2,
      "note": 82,
      "start": 65.9462,
      "duration": 0.0786,
      "velocity": 95,
      "chip": "ym2612"
    },
    {
      "channel": 4,
      "note": 66,
      "start": 65.9476,
      "duration": 0.0779,
      "velocity": 97,
      "chip": "ym2612"
    },
    {
      "channel": 5,
      "note": 57,
      "start": 65.9487,
      "duration": 0.1294,
      "velocity": 117,
      "chip": "ym2612"
    },
    {
      "channel": 1,
      "note": 73,
      "start": 65.9772,
      "duration": 0.0789,
      "velocity": 95,
      "chip": "ym2612"
    },
    {
      "channel": 0,
      "note": 83,
      "start": 66.0722,
      "duration": 0.2692,
      "velocity": 93,
      "chip": "ym2612"
    },
    {
      "channel": 2,
      "note": 80,
      "start": 66.0737,
      "duration": 0.1735,
      "velocity": 95,
      "chip": "ym2612"
    },
    {
      "channel": 4,
      "note": 66,
      "start": 66.075,
      "duration": 0.0778,
      "velocity": 97,
      "chip": "ym2612"
    },
    {
      "channel": 5,
      "note": 54,
      "start": 66.0788,
      "duration": 0.1095,
      "velocity": 127,
      "chip": "ym2612"
    },
    {
      "channel": 1,
      "note": 82,
      "start": 66.0886,
      "duration": 0.0786,
      "velocity": 95,
      "chip": "ym2612"
    },
    {
      "channel": 4,
      "note": 54,
      "start": 66.1853,
      "duration": 0.0787,
      "velocity": 97,
      "chip": "ym2612"
    },
    {
      "channel": 5,
      "note": 45,
      "start": 66.189,
      "duration": 0.124,
      "velocity": 127,
      "chip": "ym2612"
    },
    {
      "channel": 1,
      "note": 80,
      "start": 66.2157,
      "duration": 0.1738,
      "velocity": 95,
      "chip": "ym2612"
    },
    {
      "channel": 3,
      "note": 83,
      "start": 66.2324,
      "duration": 0.2691,
      "velocity": 93,
      "chip": "ym2612"
    },
    {
      "channel": 2,
      "note": 82,
      "start": 66.3115,
      "duration": 0.0782,
      "velocity": 95,
      "chip": "ym2612"
    },
    {
      "channel": 4,
      "note": 54,
      "start": 66.3128,
      "duration": 0.0775,
      "velocity": 97,
      "chip": "ym2612"
    },
    {
      "channel": 0,
      "note": 82,
      "start": 66.4216,
      "duration": 0.1739,
      "velocity": 93,
      "chip": "ym2612"
    },
    {
      "channel": 2,
      "note": 78,
      "start": 66.423,
      "duration": 0.1732,
      "velocity": 95,
      "chip": "ym2612"
    },
    {
      "channel": 4,
      "note": 56,
      "start": 66.4244,
      "duration": 0.0774,
      "velocity": 97,
      "chip": "ym2612"
    },
    {
      "channel": 5,
      "note": 57,
      "start": 66.4281,
      "duration": 0.1254,
      "velocity": 127,
      "chip": "ym2612"
    },
    {
      "channel": 1,
      "note": 82,
      "start": 66.4538,
      "duration": 0.0786,
      "velocity": 95,
      "chip": "ym2612"
    },
    {
      "channel": 4,
      "note": 58,
      "start": 66.5504,
      "duration": 0.0787,
      "velocity": 97,
      "chip": "ym2612"
    },
    {
      "channel": 5,
      "note": 45,
      "start": 66.5542,
      "duration": 0.1115,
      "velocity": 117,
      "chip": "ym2612"
    },
    {
      "channel": 1,
      "note": 78,
      "start": 66.5649,
      "duration": 0.1735,
      "velocity": 95,
      "chip": "ym2612"
    },
    {
      "channel": 3,
      "note": 82,
      "start": 66.5818,
      "duration": 0.1739,
      "velocity": 93,
      "chip": "ym2612"
    },
    {
      "channel": 0,
      "note": 83,
      "start": 66.6597,
      "duration": 0.0786,
      "velocity": 93,
      "chip": "ym2612"
    },
    {
      "channel": 2,
      "note": 83,
      "start": 66.6611,
      "duration": 0.0775,
      "velocity": 95,
      "chip": "ym2612"
    },
    {
      "channel": 4,
      "note": 59,
      "start": 66.6626,
      "duration": 0.2685,
      "velocity": 97,
      "chip": "ym2612"
    },
    {
      "channel": 5,
      "note": 54,
      "start": 66.6663,
      "duration": 0.1257,
      "velocity": 115,
      "chip": "ym2612"
    },
    {
      "channel": 0,
      "note": 78,
      "start": 66.7866,
      "duration": 0.0786,
      "velocity": 93,
      "chip": "ym2612"
    },
    {
      "channel": 2,
      "note": 71,
      "start": 66.788,
      "duration": 0.0779,
      "velocity": 95,
      "chip": "ym2612"
    },
    {
      "channel": 5,
      "note": 57,
      "start": 66.7927,
      "duration": 0.1069,
      "velocity": 115,
      "chip": "ym2612"
    },
    {
      "channel": 1,
      "note": 83,
      "start": 66.8031,
      "duration": 0.0785,
      "velocity": 95,
      "chip": "ym2612"
    },
    {
      "channel": 3,
      "note": 83,
      "start": 66.8199,
      "duration": 0.0789,
      "velocity": 93,
      "chip": "ym2612"
    },
    {
      "channel": 2,
      "note": 83,
      "start": 66.8987,
      "duration": 0.0787,
      "velocity": 95,
      "chip": "ym2612"
    },
    {
      "channel": 5,
      "note": 57,
      "start": 66.9004,
      "duration": 0.1267,
      "velocity": 115,
      "chip": "ym2612"
    },
    {
      "channel": 1,
      "note": 71,
      "start": 66.93,
      "duration": 0.0787,
      "velocity": 95,
      "chip": "ym2612"
    },
    {
      "channel": 3,
      "note": 78,
      "start": 66.9469,
      "duration": 0.079,
      "velocity": 93,
      "chip": "ym2612"
    },
    {
      "channel": 0,
      "note": 78,
      "start": 67.0247,
      "duration": 0.0787,
      "velocity": 93,
      "chip": "ym2612"
    },
    {
      "channel": 4,
      "note": 71,
      "start": 67.0268,
      "duration": 0.0782,
      "velocity": 97,
      "chip": "ym2612"
    },
    {
      "channel": 5,
      "note": 57,
      "start": 67.0279,
      "duration": 0.1135,
      "velocity": 127,
      "chip": "ym2612"
    },
    {
      "channel": 1,
      "note": 83,
      "start": 67.0412,
      "duration": 0.0786,
      "velocity": 95,
      "chip": "ym2612"
    },
    {
      "channel": 2,
      "note": 83,
      "start": 67.1368,
      "duration": 0.0787,
      "velocity": 95,
      "chip": "ym2612"
    },
    {
      "channel": 4,
      "note": 59,
      "start": 67.1383,
      "duration": 0.1735,
      "velocity": 97,
      "chip": "ym2612"
    },
    {
      "channel": 5,
      "note": 45,
      "start": 67.1421,
      "duration": 0.1231,
      "velocity": 127,
      "chip": "ym2612"
    },
    {
      "channel": 3,
      "note": 78,
      "start": 67.185,
      "duration": 0.0795,
      "velocity": 93,
      "chip": "ym2612"
    },
    {
      "channel": 0,
      "note": 83,
      "start": 67.2629,
      "duration": 0.0786,
      "velocity": 93,
      "chip": "ym2612"
    },
    {
      "channel": 2,
      "note": 82,
      "start": 67.2642,
      "duration": 0.0779,
      "velocity": 95,
      "chip": "ym2612"
    },
    {
      "channel": 1,
      "note": 83,
      "start": 67.2793,
      "duration": 0.0786,
      "velocity": 95,
      "chip": "ym2612"
    },
    {
      "channel": 0,
      "note": 78,
      "start": 67.374,
      "duration": 0.174,
      "velocity": 93,
      "chip": "ym2612"
    },
    {
      "channel": 2,
      "note": 83,
      "start": 67.3754,
      "duration": 0.0782,
      "velocity": 95,
      "chip": "ym2612"
    },
    {
      "channel": 4,
      "note": 71,
      "start": 67.3769,
      "duration": 0.0773,
      "velocity": 97,
      "chip": "ym2612"
    },
    {
      "channel": 5,
      "note": 57,
      "start": 67.3807,
      "duration": 0.1226,
      "velocity": 115,
      "chip": "ym2612"
    },
    {
      "channel": 1,
      "note": 82,
      "start": 67.4062,
      "duration": 0.0786,
      "velocity": 95,
      "chip": "ym2612"
    },
    {
      "channel": 3,
      "note": 83,
      "start": 67.4231,
      "duration": 0.0791,
      "velocity": 93,
      "chip": "ym2612"
    },
    {
      "channel": 2,
      "note": 85,
      "start": 67.502,
      "duration": 0.0786,
      "velocity": 95,
      "chip": "ym2612"
    },
    {
      "channel": 4,
      "note": 59,
      "start": 67.503,
      "duration": 0.0783,
      "velocity": 97,
      "chip": "ym2612"
    },
    {
      "channel": 5,
      "note": 57,
      "start": 67.504,
      "duration": 0.1165,
      "velocity": 117,
      "chip": "ym2612"
    },
    {
      "channel": 1,
      "note": 83,
      "start": 67.5174,
      "duration": 0.0787,
      "velocity": 95,
      "chip": "ym2612"
    },
    {
      "channel": 3,
      "note": 78,
      "start": 67.5343,
      "duration": 0.1739,
      "velocity": 93,
      "chip": "ym2612"
    },
    {
      "channel": 0,
      "note": 87,
      "start": 67.6148,
      "duration": 0.076,
      "velocity": 104,
      "chip": "ym2612"
    },
    {
      "channel": 2,
      "note": 87,
      "start": 67.6161,
      "duration": 0.0753,
      "velocity": 95,
      "chip": "ym2612"
    },
    {
      "channel": 4,
      "note": 59,
      "start": 67.6174,
      "duration": 0.0746,
      "velocity": 97,
      "chip": "ym2612"
    },
    {
      "channel": 5,
      "note": 54,
      "start": 67.6212,
      "duration": 0.1238,
      "velocity": 115,
      "chip": "ym2612"
    },
    {
      "channel": 1,
      "note": 85,
      "start": 67.6443,
      "duration": 0.0787,
      "velocity": 95,
      "chip": "ym2612"
    },
    {
      "channel": 0,
      "note": 87,
      "start": 67.7392,
      "duration": 0.1739,
      "velocity": 104,
      "chip": "ym2612"
    },
    {
      "channel": 2,
      "note": 73,
      "start": 67.7405,
      "duration": 0.0783,
      "velocity": 95,
      "chip": "ym2612"
    },
    {
      "channel": 4,
      "note": 59,
      "start": 67.7419,
      "duration": 0.0775,
      "velocity": 97,
      "chip": "ym2612"
    },
    {
      "channel": 5,
      "note": 57,
      "start": 67.7457,
      "duration": 0.1069,
      "velocity": 115,
      "chip": "ym2612"
    },
    {
      "channel": 1,
      "note": 87,
      "start": 67.7555,
      "duration": 0.0787,
      "velocity": 95,
      "chip": "ym2612"
    },
    {
      "channel": 3,
      "note": 87,
      "start": 67.7751,
      "duration": 0.0763,
      "velocity": 104,
      "chip": "ym2612"
    },
    {
      "channel": 2,
      "note": 83,
      "start": 67.8512,
      "duration": 0.0788,
      "velocity": 95,
      "chip": "ym2612"
    },
    {
      "channel": 4,
      "note": 59,
      "start": 67.8524,
      "duration": 0.1739,
      "velocity": 97,
      "chip": "ym2612"
    },
    {
      "channel": 5,
      "note": 57,
      "start": 67.8534,
      "duration": 0.1294,
      "velocity": 117,
      "chip": "ym2612"
    },
    {
      "channel": 1,
      "note": 73,
      "start": 67.8825,
      "duration": 0.0786,
      "velocity": 95,
      "chip": "ym2612"
    },
    {
      "channel": 3,
      "note": 87,
      "start": 67.8994,
      "duration": 0.1735,
      "velocity": 104,
      "chip": "ym2612"
    },
    {
      "channel": 0,
      "note": 87,
      "start": 67.9773,
      "duration": 0.0786,
      "velocity": 104,
      "chip": "ym2612"
    },
    {
      "channel": 2,
      "note": 82,
      "start": 67.9788,
      "duration": 0.0778,
      "velocity": 95,
      "chip": "ym2612"
    },
    {
      "channel": 5,
      "note": 54,
      "start": 67.9835,
      "duration": 0.1105,
      "velocity": 127,
      "chip": "ym2612"
    },
    {
      "channel": 1,
      "note": 83,
      "start": 67.9936,
      "duration": 0.0786,
      "velocity": 95,
      "chip": "ym2612"
    },
    {
      "channel": 0,
      "note": 87,
      "start": 68.0884,
      "duration": 0.0786,
      "velocity": 104,
      "chip": "ym2612"
    },
    {
      "channel": 4,
      "note": 58,
      "start": 68.0908,
      "duration": 0.0779,
      "velocity": 97,
      "chip": "ym2612"
    },
    {
      "channel": 5,
      "note": 45,
      "start": 68.0946,
      "duration": 0.1235,
      "velocity": 127,
      "chip": "ym2612"
    },
    {
      "channel": 1,
      "note": 82,
      "start": 68.1206,
      "duration": 0.0787,
      "velocity": 95,
      "chip": "ym2612"
    },
    {
      "channel": 3,
      "note": 87,
      "start": 68.1375,
      "duration": 0.0795,
      "velocity": 104,
      "chip": "ym2612"
    },
    {
      "channel": 0,
      "note": 87,
      "start": 68.2155,
      "duration": 0.1739,
      "velocity": 104,
      "chip": "ym2612"
    },
    {
      "channel": 2,
      "note": 82,
      "start": 68.2168,
      "duration": 0.0782,
      "velocity": 95,
      "chip": "ym2612"
    },
    {
      "channel": 4,
      "note": 58,
      "start": 68.2179,
      "duration": 0.0778,
      "velocity": 97,
      "chip": "ym2612"
    },
    {
      "channel": 3,
      "note": 87,
      "start": 68.2486,
      "duration": 0.0791,
      "velocity": 104,
      "chip": "ym2612"
    },
    {
      "channel": 2,
      "note": 80,
      "start": 68.3276,
      "duration": 0.174,
      "velocity": 95,
      "chip": "ym2612"
    },
    {
      "channel": 4,
      "note": 56,
      "start": 68.3286,
      "duration": 0.0785,
      "velocity": 97,
      "chip": "ym2612"
    },
    {
      "channel": 5,
      "note": 57,
      "start": 68.3324,
      "duration": 0.1266,
      "velocity": 127,
      "chip": "ym2612"
    },
    {
      "channel": 1,
      "note": 82,
      "start": 68.3588,
      "duration": 0.0786,
      "velocity": 95,
      "chip": "ym2612"
    },
    {
      "channel": 3,
      "note": 87,
      "start": 68.3757,
      "duration": 0.1738,
      "velocity": 104,
      "chip": "ym2612"
    },
    {
      "channel": 0,
      "note": 87,
      "start": 68.4536,
      "duration": 0.0785,
      "velocity": 104,
      "chip": "ym2612"
    },
    {
      "channel": 4,
      "note": 56,
      "start": 68.4559,
      "duration": 0.0779,
      "velocity": 97,
      "chip": "ym2612"
    },
    {
      "channel": 5,
      "note": 45,
      "start": 68.4597,
      "duration": 0.1135,
      "velocity": 117,
      "chip": "ym2612"
    },
    {
      "channel": 1,
      "note": 80,
      "start": 68.47,
      "duration": 0.1739,
      "velocity": 95,
      "chip": "ym2612"
    },
    {
      "channel": 0,
      "note": 85,
      "start": 68.5672,
      "duration": 0.346,
      "velocity": 93,
      "chip": "ym2612"
    },
    {
      "channel": 2,
      "note": 77,
      "start": 68.5687,
      "duration": 0.0752,
      "velocity": 95,
      "chip": "ym2612"
    },
    {
      "channel": 4,
      "note": 58,
      "start": 68.5702,
      "duration": 0.1705,
      "velocity": 97,
      "chip": "ym2612"
    },
    {
      "channel": 5,
      "note": 54,
      "start": 68.5739,
      "duration": 0.1224,
      "velocity": 115,
      "chip": "ym2612"
    },
    {
      "channel": 3,
      "note": 87,
      "start": 68.6138,
      "duration": 0.079,
      "velocity": 104,
      "chip": "ym2612"
    },
    {
      "channel": 2,
      "note": 73,
      "start": 68.6926,
      "duration": 0.0787,
      "velocity": 95,
      "chip": "ym2612"
    },
    {
      "channel": 5,
      "note": 57,
      "start": 68.6971,
      "duration": 0.1083,
      "velocity": 115,
      "chip": "ym2612"
    },
    {
      "channel": 1,
      "note": 77,
      "start": 68.7081,
      "duration": 0.0786,
      "velocity": 95,
      "chip": "ym2612"
    },
    {
      "channel": 3,
      "note": 85,
      "start": 68.7276,
      "duration": 0.3463,
      "velocity": 93,
      "chip": "ym2612"
    },
    {
      "channel": 2,
      "note": 82,
      "start": 68.8037,
      "duration": 0.0787,
      "velocity": 95,
      "chip": "ym2612"
    },
    {
      "channel": 4,
      "note": 70,
      "start": 68.8051,
      "duration": 0.1736,
      "velocity": 97,
      "chip": "ym2612"
    },
    {
      "channel": 5,
      "note": 57,
      "start": 68.8061,
      "duration": 0.126,
      "velocity": 115,
      "chip": "ym2612"
    },
    {
      "channel": 1,
      "note": 73,
      "start": 68.835,
      "duration": 0.0784,
      "velocity": 95,
      "chip": "ym2612"
    },
    {
      "channel": 2,
      "note": 80,
      "start": 68.9308,
      "duration": 0.1739,
      "velocity": 95,
      "chip": "ym2612"
    },
    {
      "channel": 5,
      "note": 57,
      "start": 68.9328,
      "duration": 0.1137,
      "velocity": 127,
      "chip": "ym2612"
    },
    {
      "channel": 1,
      "note": 82,
      "start": 68.9462,
      "duration": 0.0786,
      "velocity": 95,
      "chip": "ym2612"
    },
    {
      "channel": 0,
      "note": 85,
      "start": 69.0409,
      "duration": 0.3485,
      "velocity": 93,
      "chip": "ym2612"
    },
    {
      "channel": 4,
      "note": 58,
      "start": 69.0433,
      "duration": 0.1736,
      "velocity": 97,
      "chip": "ym2612"
    },
    {
      "channel": 5,
      "note": 45,
      "start": 69.0471,
      "duration": 0.1231,
      "velocity": 127,
      "chip": "ym2612"
    },
    {
      "channel": 1,
      "note": 80,
      "start": 69.0732,
      "duration": 0.1739,
      "velocity": 95,
      "chip": "ym2612"
    },
    {
      "channel": 2,
      "note": 82,
      "start": 69.169,
      "duration": 0.0783,
      "velocity": 95,
      "chip": "ym2612"
    },
    {
      "channel": 3,
      "note": 85,
      "start": 69.2011,
      "duration": 0.3485,
      "velocity": 93,
      "chip": "ym2612"
    },
    {
      "channel": 2,
      "note": 77,
      "start": 69.2801,
      "duration": 0.1739,
      "velocity": 95,
      "chip": "ym2612"
    },
    {
      "channel": 4,
      "note": 70,
      "start": 69.2814,
      "duration": 0.1733,
      "velocity": 97,
      "chip": "ym2612"
    },
    {
      "channel": 5,
      "note": 57,
      "start": 69.2852,
      "duration": 0.1227,
      "velocity": 115,
      "chip": "ym2612"
    },
    {
      "channel": 1,
      "note": 82,
      "start": 69.3114,
      "duration": 0.0783,
      "velocity": 95,
      "chip": "ym2612"
    },
    {
      "channel": 5,
      "note": 57,
      "start": 69.4086,
      "duration": 0.1146,
      "velocity": 117,
      "chip": "ym2612"
    },
    {
      "channel": 1,
      "note": 77,
      "start": 69.4224,
      "duration": 0.1739,
      "velocity": 95,
      "chip": "ym2612"
    },
    {
      "channel": 0,
      "note": 90,
      "start": 69.5172,
      "duration": 0.2691,
      "velocity": 93,
      "chip": "ym2612"
    },
    {
      "channel": 2,
      "note": 78,
      "start": 69.5187,
      "duration": 0.0778,
      "velocity": 95,
      "chip": "ym2612"
    },
    {
      "channel": 4,
      "note": 59,
      "start": 69.5201,
      "duration": 0.1731,
      "velocity": 97,
      "chip": "ym2612"
    },
    {
      "channel": 5,
      "note": 54,
      "start": 69.5239,
      "duration": 0.1254,
      "velocity": 115,
      "chip": "ym2612"
    },
    {
      "channel": 2,
      "note": 87,
      "start": 69.6452,
      "duration": 0.0786,
      "velocity": 95,
      "chip": "ym2612"
    },
    {
      "channel": 5,
      "note": 57,
      "start": 69.6499,
      "duration": 0.108,
      "velocity": 115,
      "chip": "ym2612"
    },
    {
      "channel": 1,
      "note": 78,
      "start": 69.6606,
      "duration": 0.0786,
      "velocity": 95,
      "chip": "ym2612"
    },
    {
      "channel": 3,
      "note": 90,
      "start": 69.6775,
      "duration": 0.269,
      "velocity": 93,
      "chip": "ym2612"
    },
    {
      "channel": 2,
      "note": 83,
      "start": 69.7563,
      "duration": 0.0786,
      "velocity": 95,
      "chip": "ym2612"
    },
    {
      "channel": 4,
      "note": 71,
      "start": 69.7576,
      "duration": 0.1737,
      "velocity": 97,
      "chip": "ym2612"
    },
    {
      "channel": 5,
      "note": 57,
      "start": 69.7586,
      "duration": 0.1291,
      "velocity": 117,
      "chip": "ym2612"
    },
    {
      "channel": 1,
      "note": 87,
      "start": 69.7872,
      "duration": 0.079,
      "velocity": 95,
      "chip": "ym2612"
    },
    {
      "channel": 0,
      "note": 89,
      "start": 69.8823,
      "duration": 0.2691,
      "velocity": 93,
      "chip": "ym2612"
    },
    {
      "channel": 2,
      "note": 80,
      "start": 69.8837,
      "duration": 0.1735,
      "velocity": 95,
      "chip": "ym2612"
    },
    {
      "channel": 5,
      "note": 54,
      "start": 69.8885,
      "duration": 0.11,
      "velocity": 127,
      "chip": "ym2612"
    },
    {
      "channel": 1,
      "note": 83,
      "start": 69.8987,
      "duration": 0.0787,
      "velocity": 95,
      "chip": "ym2612"
    },
    {
      "channel": 4,
      "note": 59,
      "start": 69.9954,
      "duration": 0.174,
      "velocity": 97,
      "chip": "ym2612"
    },
    {
      "channel": 5,
      "note": 45,
      "start": 69.9992,
      "duration": 0.1236,
      "velocity": 127,
      "chip": "ym2612"
    },
    {
      "channel": 1,
      "note": 80,
      "start": 70.0258,
      "duration": 0.1738,
      "velocity": 95,
      "chip": "ym2612"
    },
    {
      "channel": 3,
      "note": 89,
      "start": 70.0426,
      "duration": 0.2691,
      "velocity": 93,
      "chip": "ym2612"
    },
    {
      "channel": 2,
      "note": 83,
      "start": 70.1215,
      "duration": 0.0783,
      "velocity": 95,
      "chip": "ym2612"
    },
    {
      "channel": 0,
      "note": 87,
      "start": 70.2316,
      "duration": 0.174,
      "velocity": 93,
      "chip": "ym2612"
    },
    {
      "channel": 2,
      "note": 78,
      "start": 70.2331,
      "duration": 0.1732,
      "velocity": 95,
      "chip": "ym2612"
    },
    {
      "channel": 4,
      "note": 71,
      "start": 70.2344,
      "duration": 0.1724,
      "velocity": 97,
      "chip": "ym2612"
    },
    {
      "channel": 5,
      "note": 57,
      "start": 70.2382,
      "duration": 0.1251,
      "velocity": 127,
      "chip": "ym2612"
    },
    {
      "channel": 1,
      "note": 83,
      "start": 70.2639,
      "duration": 0.0786,
      "velocity": 95,
      "chip": "ym2612"
    },
    {
      "channel": 5,
      "note": 45,
      "start": 70.364,
      "duration": 0.1117,
      "velocity": 117,
      "chip": "ym2612"
    },
    {
      "channel": 1,
      "note": 78,
      "start": 70.3751,
      "duration": 0.1738,
      "velocity": 95,
      "chip": "ym2612"
    },
    {
      "channel": 3,
      "note": 87,
      "start": 70.3919,
      "duration": 0.174,
      "velocity": 93,
      "chip": "ym2612"
    },
    {
      "channel": 0,
      "note": 89,
      "start": 70.4698,
      "duration": 0.7296,
      "velocity": 93,
      "chip": "ym2612"
    },
    {
      "channel": 2,
      "note": 85,
      "start": 70.4712,
      "duration": 0.0778,
      "velocity": 95,
      "chip": "ym2612"
    },
    {
      "channel": 4,
      "note": 61,
      "start": 70.4726,
      "duration": 0.1732,
      "velocity": 97,
      "chip": "ym2612"
    },
    {
      "channel": 5,
      "note": 54,
      "start": 70.4763,
      "duration": 0.1254,
      "velocity": 115,
      "chip": "ym2612"
    },
    {
      "channel": 2,
      "note": 83,
      "start": 70.5977,
      "duration": 0.0786,
      "velocity": 95,
      "chip": "ym2612"
    },
    {
      "channel": 5,
      "note": 57,
      "start": 70.6024,
      "duration": 0.108,
      "velocity": 115,
      "chip": "ym2612"
    },
    {
      "channel": 1,
      "note": 85,
      "start": 70.6132,
      "duration": 0.0785,
      "velocity": 95,
      "chip": "ym2612"
    },
    {
      "channel": 3,
      "note": 89,
      "start": 70.63,
      "duration": 0.7296,
      "velocity": 93,
      "chip": "ym2612"
    },
    {
      "channel": 2,
      "note": 80,
      "start": 70.7088,
      "duration": 0.0788,
      "velocity": 95,
      "chip": "ym2612"
    },
    {
      "channel": 4,
      "note": 73,
      "start": 70.7102,
      "duration": 0.1736,
      "velocity": 97,
      "chip": "ym2612"
    },
    {
      "channel": 5,
      "note": 57,
      "start": 70.7112,
      "duration": 0.1254,
      "velocity": 115,
      "chip": "ym2612"
    },
    {
      "channel": 1,
      "note": 83,
      "start": 70.7401,
      "duration": 0.0786,
      "velocity": 95,
      "chip": "ym2612"
    },
    {
      "channel": 5,
      "note": 57,
      "start": 70.8374,
      "duration": 0.114,
      "velocity": 127,
      "chip": "ym2612"
    },
    {
      "channel": 1,
      "note": 80,
      "start": 70.8512,
      "duration": 0.0787,
      "velocity": 95,
      "chip": "ym2612"
    },
    {
      "channel": 2,
      "note": 85,
      "start": 70.9469,
      "duration": 0.0786,
      "velocity": 95,
      "chip": "ym2612"
    },
    {
      "channel": 4,
      "note": 61,
      "start": 70.9483,
      "duration": 0.1736,
      "velocity": 97,
      "chip": "ym2612"
    },
    {
      "channel": 5,
      "note": 45,
      "start": 70.9521,
      "duration": 0.1232,
      "velocity": 127,
      "chip": "ym2612"
    },
    {
      "channel": 2,
      "note": 83,
      "start": 71.074,
      "duration": 0.0786,
      "velocity": 95,
      "chip": "ym2612"
    },
    {
      "channel": 1,
      "note": 85,
      "start": 71.0893,
      "duration": 0.0787,
      "velocity": 95,
      "chip": "ym2612"
    },
    {
      "channel": 2,
      "note": 83,
      "start": 71.1851,
      "duration": 0.0786,
      "velocity": 95,
      "chip": "ym2612"
    },
    {
      "channel": 4,
      "note": 61,
      "start": 71.1865,
      "duration": 0.0779,
      "velocity": 97,
      "chip": "ym2612"
    },
    {
      "channel": 5,
      "note": 57,
      "start": 71.1903,
      "duration": 0.1234,
      "velocity": 115,
      "chip": "ym2612"
    },
    {
      "channel": 1,
      "note": 83,
      "start": 71.2163,
      "duration": 0.0788,
      "velocity": 95,
      "chip": "ym2612"
    },
    {
      "channel": 2,
      "note": 85,
      "start": 71.312,
      "duration": 0.0787,
      "velocity": 95,
      "chip": "ym2612"
    },
    {
      "channel": 4,
      "note": 73,
      "start": 71.3134,
      "duration": 0.078,
      "velocity": 97,
      "chip": "ym2612"
    },
    {
      "channel": 5,
      "note": 57,
      "start": 71.3144,
      "duration": 0.1163,
      "velocity": 127,
      "chip": "ym2612"
    },
    {
      "channel": 1,
      "note": 83,
      "start": 71.3275,
      "duration": 0.0786,
      "velocity": 95,
      "chip": "ym2612"
    },
    {
      "channel": 0,
      "note": 92,
      "start": 71.4249,
      "duration": 0.076,
      "velocity": 104,
      "chip": "ym2612"
    },
    {
      "channel": 2,
      "note": 87,
      "start": 71.4262,
      "duration": 0.0753,
      "velocity": 95,
      "chip": "ym2612"
    },
    {
      "channel": 4,
      "note": 61,
      "start": 71.4276,
      "duration": 0.1706,
      "velocity": 97,
      "chip": "ym2612"
    },
    {
      "channel": 5,
      "note": 45,
      "start": 71.4314,
      "duration": 0.1204,
      "velocity": 127,
      "chip": "ym2612"
    },
    {
      "channel": 1,
      "note": 85,
      "start": 71.4544,
      "duration": 0.0787,
      "velocity": 95,
      "chip": "ym2612"
    },
    {
      "channel": 0,
      "note": 90,
      "start": 71.5492,
      "duration": 0.0786,
      "velocity": 104,
      "chip": "ym2612"
    },
    {
      "channel": 2,
      "note": 73,
      "start": 71.5506,
      "duration": 0.078,
      "velocity": 95,
      "chip": "ym2612"
    },
    {
      "channel": 1,
      "note": 87,
      "start": 71.5656,
      "duration": 0.0786,
      "velocity": 95,
      "chip": "ym2612"
    },
    {
      "channel": 3,
      "note": 92,
      "start": 71.5852,
      "duration": 0.0767,
      "velocity": 104,
      "chip": "ym2612"
    },
    {
      "channel": 0,
      "note": 89,
      "start": 71.6604,
      "duration": 0.0787,
      "velocity": 104,
      "chip": "ym2612"
    },
    {
      "channel": 2,
      "note": 83,
      "start": 71.6617,
      "duration": 0.078,
      "velocity": 95,
      "chip": "ym2612"
    },
    {
      "channel": 4,
      "note": 61,
      "start": 71.6629,
      "duration": 0.0775,
      "velocity": 97,
      "chip": "ym2612"
    },
    {
      "channel": 5,
      "note": 57,
      "start": 71.6666,
      "duration": 0.1262,
      "velocity": 117,
      "chip": "ym2612"
    },
    {
      "channel": 1,
      "note": 73,
      "start": 71.6926,
      "duration": 0.0787,
      "velocity": 95,
      "chip": "ym2612"
    },
    {
      "channel": 3,
      "note": 90,
      "start": 71.7094,
      "duration": 0.0795,
      "velocity": 104,
      "chip": "ym2612"
    },
    {
      "channel": 0,
      "note": 87,
      "start": 71.7873,
      "duration": 0.0787,
      "velocity": 104,
      "chip": "ym2612"
    },
    {
      "channel": 2,
      "note": 82,
      "start": 71.7887,
      "duration": 0.078,
      "velocity": 95,
      "chip": "ym2612"
    },
    {
      "channel": 4,
      "note": 73,
      "start": 71.7898,
      "duration": 0.0776,
      "velocity": 97,
      "chip": "ym2612"
    },
    {
      "channel": 5,
      "note": 54,
      "start": 71.7935,
      "duration": 0.1101,
      "velocity": 127,
      "chip": "ym2612"
    },
    {
      "channel": 1,
      "note": 83,
      "start": 71.8037,
      "duration": 0.0787,
      "velocity": 95,
      "chip": "ym2612"
    },
    {
      "channel": 3,
      "note": 89,
      "start": 71.8205,
      "duration": 0.0791,
      "velocity": 104,
      "chip": "ym2612"
    },
    {
      "channel": 0,
      "note": 89,
      "start": 71.8985,
      "duration": 0.174,
      "velocity": 104,
      "chip": "ym2612"
    },
    {
      "channel": 4,
      "note": 65,
      "start": 71.9005,
      "duration": 0.0786,
      "velocity": 97,
      "chip": "ym2612"
    },
    {
      "channel": 5,
      "note": 45,
      "start": 71.9043,
      "duration": 0.1234,
      "velocity": 127,
      "chip": "ym2612"
    },
    {
      "channel": 1,
      "note": 82,
      "start": 71.9307,
      "duration": 0.0787,
      "velocity": 95,
      "chip": "ym2612"
    },
    {
      "channel": 3,
      "note": 87,
      "start": 71.9476,
      "duration": 0.079,
      "velocity": 104,
      "chip": "ym2612"
    },
    {
      "channel": 2,
      "note": 82,
      "start": 72.0265,
      "duration": 0.0786,
      "velocity": 95,
      "chip": "ym2612"
    },
    {
      "channel": 4,
      "note": 61,
      "start": 72.0275,
      "duration": 0.0782,
      "velocity": 97,
      "chip": "ym2612"
    },
    {
      "channel": 3,
      "note": 89,
      "start": 72.0588,
      "duration": 0.1739,
      "velocity": 104,
      "chip": "ym2612"
    },
    {
      "channel": 0,
      "note": 85,
      "start": 72.1367,
      "duration": 0.0785,
      "velocity": 104,
      "chip": "ym2612"
    },
    {
      "channel": 2,
      "note": 80,
      "start": 72.1381,
      "duration": 0.1735,
      "velocity": 95,
      "chip": "ym2612"
    },
    {
      "channel": 4,
      "note": 73,
      "start": 72.1394,
      "duration": 0.0774,
      "velocity": 97,
      "chip": "ym2612"
    },
    {
      "channel": 5,
      "note": 45,
      "start": 72.1405,
      "duration": 0.1258,
      "velocity": 127,
      "chip": "ym2612"
    },
    {
      "channel": 1,
      "note": 82,
      "start": 72.1688,
      "duration": 0.0787,
      "velocity": 95,
      "chip": "ym2612"
    },
    {
      "channel": 0,
      "note": 85,
      "start": 72.2636,
      "duration": 0.0786,
      "velocity": 104,
      "chip": "ym2612"
    },
    {
      "channel": 4,
      "note": 61,
      "start": 72.266,
      "duration": 0.0779,
      "velocity": 97,
      "chip": "ym2612"
    },
    {
      "channel": 1,
      "note": 80,
      "start": 72.28,
      "duration": 0.1739,
      "velocity": 95,
      "chip": "ym2612"
    },
    {
      "channel": 3,
      "note": 85,
      "start": 72.2969,
      "duration": 0.0821,
      "velocity": 104,
      "chip": "ym2612"
    },
    {
      "channel": 0,
      "note": 78,
      "start": 72.3773,
      "duration": 0.346,
      "velocity": 93,
      "chip": "ym2612"
    },
    {
      "channel": 2,
      "note": 78,
      "start": 72.3788,
      "duration": 0.0753,
      "velocity": 95,
      "chip": "ym2612"
    },
    {
      "channel": 4,
      "note": 66,
      "start": 72.3799,
      "duration": 0.2664,
      "velocity": 97,
      "chip": "ym2612"
    },
    {
      "channel": 5,
      "note": 54,
      "start": 72.3837,
      "duration": 0.1228,
      "velocity": 115,
      "chip": "ym2612"
    },
    {
      "channel": 3,
      "note": 85,
      "start": 72.4238,
      "duration": 0.0791,
      "velocity": 104,
      "chip": "ym2612"
    },
    {
      "channel": 2,
      "note": 73,
      "start": 72.5027,
      "duration": 0.0787,
      "velocity": 95,
      "chip": "ym2612"
    },
    {
      "channel": 5,
      "note": 57,
      "start": 72.5072,
      "duration": 0.108,
      "velocity": 115,
      "chip": "ym2612"
    },
    {
      "channel": 1,
      "note": 78,
      "start": 72.5182,
      "duration": 0.0786,
      "velocity": 95,
      "chip": "ym2612"
    },
    {
      "channel": 3,
      "note": 78,
      "start": 72.5377,
      "duration": 0.3463,
      "velocity": 93,
      "chip": "ym2612"
    },
    {
      "channel": 2,
      "note": 82,
      "start": 72.6139,
      "duration": 0.0786,
      "velocity": 95,
      "chip": "ym2612"
    },
    {
      "channel": 5,
      "note": 57,
      "start": 72.6158,
      "duration": 0.1268,
      "velocity": 115,
      "chip": "ym2612"
    },
    {
      "channel": 1,
      "note": 73,
      "start": 72.6452,
      "duration": 0.0783,
      "velocity": 95,
      "chip": "ym2612"
    },
    {
      "channel": 2,
      "note": 80,
      "start": 72.7409,
      "duration": 0.1739,
      "velocity": 95,
      "chip": "ym2612"
    },
    {
      "channel": 4,
      "note": 66,
      "start": 72.7423,
      "duration": 0.0782,
      "velocity": 97,
      "chip": "ym2612"
    },
    {
      "channel": 5,
      "note": 57,
      "start": 72.7433,
      "duration": 0.1132,
      "velocity": 127,
      "chip": "ym2612"
    },
    {
      "channel": 1,
      "note": 82,
      "start": 72.7562,
      "duration": 0.0787,
      "velocity": 95,
      "chip": "ym2612"
    },
    {
      "channel": 0,
      "note": 82,
      "start": 72.851,
      "duration": 0.3485,
      "velocity": 93,
      "chip": "ym2612"
    },
    {
      "channel": 4,
      "note": 54,
      "start": 72.8534,
      "duration": 0.0782,
      "velocity": 97,
      "chip": "ym2612"
    },
    {
      "channel": 5,
      "note": 45,
      "start": 72.8572,
      "duration": 0.1236,
      "velocity": 127,
      "chip": "ym2612"
    },
    {
      "channel": 1,
      "note": 80,
      "start": 72.8833,
      "duration": 0.1738,
      "velocity": 95,
      "chip": "ym2612"
    },
    {
      "channel": 2,
      "note": 82,
      "start": 72.9791,
      "duration": 0.0782,
      "velocity": 95,
      "chip": "ym2612"
    },
    {
      "channel": 4,
      "note": 54,
      "start": 72.9805,
      "duration": 0.1733,
      "velocity": 97,
      "chip": "ym2612"
    },
    {
      "channel": 3,
      "note": 82,
      "start": 73.0112,
      "duration": 0.3485,
      "velocity": 93,
      "chip": "ym2612"
    },
    {
      "channel": 2,
      "note": 78,
      "start": 73.0902,
      "duration": 0.1739,
      "velocity": 95,
      "chip": "ym2612"
    },
    {
      "channel": 5,
      "note": 57,
      "start": 73.095,
      "duration": 0.1235,
      "velocity": 115,
      "chip": "ym2612"
    },
    {
      "channel": 1,
      "note": 82,
      "start": 73.1215,
      "duration": 0.0782,
      "velocity": 95,
      "chip": "ym2612"
    },
    {
      "channel": 4,
      "note": 66,
      "start": 73.2181,
      "duration": 0.0786,
      "velocity": 97,
      "chip": "ym2612"
    },
    {
      "channel": 5,
      "note": 57,
      "start": 73.2191,
      "duration": 0.1142,
      "velocity": 117,
      "chip": "ym2612"
    },
    {
      "channel": 1,
      "note": 78,
      "start": 73.2326,
      "duration": 0.1739,
      "velocity": 95,
      "chip": "ym2612"
    },
    {
      "channel": 0,
      "note": 85,
      "start": 73.3273,
      "duration": 0.2691,
      "velocity": 93,
      "chip": "ym2612"
    },
    {
      "channel": 2,
      "note": 78,
      "start": 73.3288,
      "duration": 0.0777,
      "velocity": 95,
      "chip": "ym2612"
    },
    {
      "channel": 4,
      "note": 54,
      "start": 73.3303,
      "duration": 0.173,
      "velocity": 97,
      "chip": "ym2612"
    },
    {
      "channel": 5,
      "note": 54,
      "start": 73.334,
      "duration": 0.1253,
      "velocity": 115,
      "chip": "ym2612"
    },
    {
      "channel": 2,
      "note": 73,
      "start": 73.4552,
      "duration": 0.0787,
      "velocity": 95,
      "chip": "ym2612"
    },
    {
      "channel": 5,
      "note": 57,
      "start": 73.46,
      "duration": 0.1081,
      "velocity": 115,
      "chip": "ym2612"
    },
    {
      "channel": 1,
      "note": 78,
      "start": 73.4707,
      "duration": 0.0786,
      "velocity": 95,
      "chip": "ym2612"
    },
    {
      "channel": 3,
      "note": 85,
      "start": 73.4875,
      "duration": 0.2691,
      "velocity": 93,
      "chip": "ym2612"
    },
    {
      "channel": 2,
      "note": 82,
      "start": 73.5663,
      "duration": 0.0787,
      "velocity": 95,
      "chip": "ym2612"
    },
    {
      "channel": 4,
      "note": 66,
      "start": 73.5678,
      "duration": 0.0779,
      "velocity": 97,
      "chip": "ym2612"
    },
    {
      "channel": 5,
      "note": 57,
      "start": 73.5688,
      "duration": 0.1294,
      "velocity": 117,
      "chip": "ym2612"
    },
    {
      "channel": 1,
      "note": 73,
      "start": 73.5973,
      "duration": 0.079,
      "velocity": 95,
      "chip": "ym2612"
    },
    {
      "channel": 0,
      "note": 83,
      "start": 73.6924,
      "duration": 0.2692,
      "velocity": 93,
      "chip": "ym2612"
    },
    {
      "channel": 2,
      "note": 80,
      "start": 73.6938,
      "duration": 0.1735,
      "velocity": 95,
      "chip": "ym2612"
    },
    {
      "channel": 4,
      "note": 66,
      "start": 73.6952,
      "duration": 0.0778,
      "velocity": 97,
      "chip": "ym2612"
    },
    {
      "channel": 5,
      "note": 54,
      "start": 73.6989,
      "duration": 0.1096,
      "velocity": 127,
      "chip": "ym2612"
    },
    {
      "channel": 1,
      "note": 82,
      "start": 73.7088,
      "duration": 0.0786,
      "velocity": 95,
      "chip": "ym2612"
    },
    {
      "channel": 4,
      "note": 54,
      "start": 73.8055,
      "duration": 0.0787,
      "velocity": 97,
      "chip": "ym2612"
    },
    {
      "channel": 5,
      "note": 45,
      "start": 73.8092,
      "duration": 0.124,
      "velocity": 127,
      "chip": "ym2612"
    },
    {
      "channel": 1,
      "note": 80,
      "start": 73.8359,
      "duration": 0.1738,
      "velocity": 95,
      "chip": "ym2612"
    },
    {
      "channel": 3,
      "note": 83,
      "start": 73.8526,
      "duration": 0.2691,
      "velocity": 93,
      "chip": "ym2612"
    },
    {
      "channel": 2,
      "note": 82,
      "start": 73.9316,
      "duration": 0.0782,
      "velocity": 95,
      "chip": "ym2612"
    },
    {
      "channel": 4,
      "note": 54,
      "start": 73.9329,
      "duration": 0.0775,
      "velocity": 97,
      "chip": "ym2612"
    },
    {
      "channel": 0,
      "note": 82,
      "start": 74.0417,
      "duration": 0.174,
      "velocity": 93,
      "chip": "ym2612"
    },
    {
      "channel": 2,
      "note": 78,
      "start": 74.0431,
      "duration": 0.1732,
      "velocity": 95,
      "chip": "ym2612"
    },
    {
      "channel": 4,
      "note": 56,
      "start": 74.0445,
      "duration": 0.0774,
      "velocity": 97,
      "chip": "ym2612"
    },
    {
      "channel": 5,
      "note": 57,
      "start": 74.0483,
      "duration": 0.1254,
      "velocity": 127,
      "chip": "ym2612"
    },
    {
      "channel": 1,
      "note": 82,
      "start": 74.074,
      "duration": 0.0785,
      "velocity": 95,
      "chip": "ym2612"
    },
    {
      "channel": 4,
      "note": 58,
      "start": 74.1705,
      "duration": 0.0787,
      "velocity": 97,
      "chip": "ym2612"
    },
    {
      "channel": 5,
      "note": 45,
      "start": 74.1744,
      "duration": 0.1115,
      "velocity": 117,
      "chip": "ym2612"
    },
    {
      "channel": 1,
      "note": 78,
      "start": 74.1851,
      "duration": 0.1735,
      "velocity": 95,
      "chip": "ym2612"
    },
    {
      "channel": 3,
      "note": 82,
      "start": 74.202,
      "duration": 0.1739,
      "velocity": 93,
      "chip": "ym2612"
    },
    {
      "channel": 0,
      "note": 83,
      "start": 74.2799,
      "duration": 0.0786,
      "velocity": 93,
      "chip": "ym2612"
    },
    {
      "channel": 2,
      "note": 83,
      "start": 74.2814,
      "duration": 0.0774,
      "velocity": 95,
      "chip": "ym2612"
    },
    {
      "channel": 4,
      "note": 59,
      "start": 74.2828,
      "duration": 0.2685,
      "velocity": 97,
      "chip": "ym2612"
    },
    {
      "channel": 5,
      "note": 54,
      "start": 74.2865,
      "duration": 0.1257,
      "velocity": 115,
      "chip": "ym2612"
    },
    {
      "channel": 0,
      "note": 78,
      "start": 74.4068,
      "duration": 0.0786,
      "velocity": 93,
      "chip": "ym2612"
    },
    {
      "channel": 2,
      "note": 71,
      "start": 74.4081,
      "duration": 0.0779,
      "velocity": 95,
      "chip": "ym2612"
    },
    {
      "channel": 5,
      "note": 57,
      "start": 74.4129,
      "duration": 0.1069,
      "velocity": 115,
      "chip": "ym2612"
    },
    {
      "channel": 1,
      "note": 83,
      "start": 74.4232,
      "duration": 0.0786,
      "velocity": 95,
      "chip": "ym2612"
    },
    {
      "channel": 3,
      "note": 83,
      "start": 74.4401,
      "duration": 0.079,
      "velocity": 93,
      "chip": "ym2612"
    },
    {
      "channel": 2,
      "note": 83,
      "start": 74.5189,
      "duration": 0.0787,
      "velocity": 95,
      "chip": "ym2612"
    },
    {
      "channel": 5,
      "note": 57,
      "start": 74.5205,
      "duration": 0.1268,
      "velocity": 115,
      "chip": "ym2612"
    },
    {
      "channel": 1,
      "note": 71,
      "start": 74.5501,
      "duration": 0.0787,
      "velocity": 95,
      "chip": "ym2612"
    },
    {
      "channel": 3,
      "note": 78,
      "start": 74.567,
      "duration": 0.0791,
      "velocity": 93,
      "chip": "ym2612"
    },
    {
      "channel": 0,
      "note": 78,
      "start": 74.6449,
      "duration": 0.0787,
      "velocity": 93,
      "chip": "ym2612"
    },
    {
      "channel": 4,
      "note": 71,
      "start": 74.647,
      "duration": 0.0782,
      "velocity": 97,
      "chip": "ym2612"
    },
    {
      "channel": 5,
      "note": 57,
      "start": 74.648,
      "duration": 0.1136,
      "velocity": 127,
      "chip": "ym2612"
    },
    {
      "channel": 1,
      "note": 83,
      "start": 74.6613,
      "duration": 0.0787,
      "velocity": 95,
      "chip": "ym2612"
    },
    {
      "channel": 2,
      "note": 83,
      "start": 74.757,
      "duration": 0.0787,
      "velocity": 95,
      "chip": "ym2612"
    },
    {
      "channel": 4,
      "note": 59,
      "start": 74.7585,
      "duration": 0.1735,
      "velocity": 97,
      "chip": "ym2612"
    },
    {
      "channel": 5,
      "note": 45,
      "start": 74.7623,
      "duration": 0.123,
      "velocity": 127,
      "chip": "ym2612"
    },
    {
      "channel": 3,
      "note": 78,
      "start": 74.8051,
      "duration": 0.0794,
      "velocity": 93,
      "chip": "ym2612"
    },
    {
      "channel": 0,
      "note": 83,
      "start": 74.883,
      "duration": 0.0787,
      "velocity": 93,
      "chip": "ym2612"
    },
    {
      "channel": 2,
      "note": 82,
      "start": 74.8844,
      "duration": 0.0779,
      "velocity": 95,
      "chip": "ym2612"
    },
    {
      "channel": 1,
      "note": 83,
      "start": 74.8994,
      "duration": 0.0786,
      "velocity": 95,
      "chip": "ym2612"
    },
    {
      "channel": 0,
      "note": 78,
      "start": 74.9943,
      "duration": 0.1739,
      "velocity": 93,
      "chip": "ym2612"
    },
    {
      "channel": 2,
      "note": 83,
      "start": 74.9956,
      "duration": 0.0782,
      "velocity": 95,
      "chip": "ym2612"
    },
    {
      "channel": 4,
      "note": 71,
      "start": 74.9971,
      "duration": 0.0773,
      "velocity": 97,
      "chip": "ym2612"
    },
    {
      "channel": 5,
      "note": 57,
      "start": 75.0009,
      "duration": 0.1226,
      "velocity": 115,
      "chip": "ym2612"
    },
    {
      "channel": 1,
      "note": 82,
      "start": 75.0264,
      "duration": 0.0787,
      "velocity": 95,
      "chip": "ym2612"
    },
    {
      "channel": 3,
      "note": 83,
      "start": 75.0433,
      "duration": 0.0791,
      "velocity": 93,
      "chip": "ym2612"
    },
    {
      "channel": 2,
      "note": 85,
      "start": 75.1221,
      "duration": 0.0786,
      "velocity": 95,
      "chip": "ym2612"
    },
    {
      "channel": 4,
      "note": 59,
      "start": 75.1232,
      "duration": 0.0783,
      "velocity": 97,
      "chip": "ym2612"
    },
    {
      "channel": 5,
      "note": 57,
      "start": 75.1242,
      "duration": 0.1165,
      "velocity": 117,
      "chip": "ym2612"
    },
    {
      "channel": 1,
      "note": 83,
      "start": 75.1375,
      "duration": 0.0787,
      "velocity": 95,
      "chip": "ym2612"
    },
    {
      "channel": 3,
      "note": 78,
      "start": 75.1544,
      "duration": 0.1739,
      "velocity": 93,
      "chip": "ym2612"
    },
    {
      "channel": 0,
      "note": 87,
      "start": 75.2349,
      "duration": 0.076,
      "velocity": 104,
      "chip": "ym2612"
    },
    {
      "channel": 2,
      "note": 87,
      "start": 75.2363,
      "duration": 0.0754,
      "velocity": 95,
      "chip": "ym2612"
    },
    {
      "channel": 4,
      "note": 59,
      "start": 75.2376,
      "duration": 0.0747,
      "velocity": 97,
      "chip": "ym2612"
    },
    {
      "channel": 5,
      "note": 54,
      "start": 75.2413,
      "duration": 0.1238,
      "velocity": 115,
      "chip": "ym2612"
    },
    {
      "channel": 1,
      "note": 85,
      "start": 75.2646,
      "duration": 0.0786,
      "velocity": 95,
      "chip": "ym2612"
    },
    {
      "channel": 0,
      "note": 87,
      "start": 75.3593,
      "duration": 0.1739,
      "velocity": 104,
      "chip": "ym2612"
    },
    {
      "channel": 2,
      "note": 73,
      "start": 75.3607,
      "duration": 0.0783,
      "velocity": 95,
      "chip": "ym2612"
    },
    {
      "channel": 4,
      "note": 59,
      "start": 75.3621,
      "duration": 0.0775,
      "velocity": 97,
      "chip": "ym2612"
    },
    {
      "channel": 5,
      "note": 57,
      "start": 75.3658,
      "duration": 0.107,
      "velocity": 115,
      "chip": "ym2612"
    },
    {
      "channel": 1,
      "note": 87,
      "start": 75.3756,
      "duration": 0.0787,
      "velocity": 95,
      "chip": "ym2612"
    },
    {
      "channel": 3,
      "note": 87,
      "start": 75.3953,
      "duration": 0.0763,
      "velocity": 104,
      "chip": "ym2612"
    },
    {
      "channel": 2,
      "note": 83,
      "start": 75.4714,
      "duration": 0.0787,
      "velocity": 95,
      "chip": "ym2612"
    },
    {
      "channel": 4,
      "note": 59,
      "start": 75.4725,
      "duration": 0.1739,
      "velocity": 97,
      "chip": "ym2612"
    },
    {
      "channel": 5,
      "note": 57,
      "start": 75.4735,
      "duration": 0.1294,
      "velocity": 117,
      "chip": "ym2612"
    },
    {
      "channel": 1,
      "note": 73,
      "start": 75.5027,
      "duration": 0.0786,
      "velocity": 95,
      "chip": "ym2612"
    },
    {
      "channel": 3,
      "note": 87,
      "start": 75.5196,
      "duration": 0.1735,
      "velocity": 104,
      "chip": "ym2612"
    },
    {
      "channel": 0,
      "note": 87,
      "start": 75.5975,
      "duration": 0.0785,
      "velocity": 104,
      "chip": "ym2612"
    },
    {
      "channel": 2,
      "note": 82,
      "start": 75.5988,
      "duration": 0.0779,
      "velocity": 95,
      "chip": "ym2612"
    },
    {
      "channel": 5,
      "note": 54,
      "start": 75.6036,
      "duration": 0.1105,
      "velocity": 127,
      "chip": "ym2612"
    },
    {
      "channel": 1,
      "note": 83,
      "start": 75.6138,
      "duration": 0.0786,
      "velocity": 95,
      "chip": "ym2612"
    },
    {
      "channel": 0,
      "note": 87,
      "start": 75.7086,
      "duration": 0.0786,
      "velocity": 104,
      "chip": "ym2612"
    },
    {
      "channel": 4,
      "note": 58,
      "start": 75.711,
      "duration": 0.0779,
      "velocity": 97,
      "chip": "ym2612"
    },
    {
      "channel": 5,
      "note": 45,
      "start": 75.7148,
      "duration": 0.1235,
      "velocity": 127,
      "chip": "ym2612"
    },
    {
      "channel": 1,
      "note": 82,
      "start": 75.7408,
      "duration": 0.0787,
      "velocity": 95,
      "chip": "ym2612"
    },
    {
      "channel": 3,
      "note": 87,
      "start": 75.7577,
      "duration": 0.0795,
      "velocity": 104,
      "chip": "ym2612"
    },
    {
      "channel": 0,
      "note": 87,
      "start": 75.8356,
      "duration": 0.1739,
      "velocity": 104,
      "chip": "ym2612"
    },
    {
      "channel": 2,
      "note": 82,
      "start": 75.837,
      "duration": 0.0782,
      "velocity": 95,
      "chip": "ym2612"
    },
    {
      "channel": 4,
      "note": 58,
      "start": 75.838,
      "duration": 0.0778,
      "velocity": 97,
      "chip": "ym2612"
    },
    {
      "channel": 3,
      "note": 87,
      "start": 75.8688,
      "duration": 0.0791,
      "velocity": 104,
      "chip": "ym2612"
    },
    {
      "channel": 2,
      "note": 80,
      "start": 75.9477,
      "duration": 0.174,
      "velocity": 95,
      "chip": "ym2612"
    },
    {
      "channel": 4,
      "note": 56,
      "start": 75.9488,
      "duration": 0.0785,
      "velocity": 97,
      "chip": "ym2612"
    },
    {
      "channel": 5,
      "note": 57,
      "start": 75.9525,
      "duration": 0.1267,
      "velocity": 127,
      "chip": "ym2612"
    },
    {
      "channel": 1,
      "note": 82,
      "start": 75.9789,
      "duration": 0.0786,
      "velocity": 95,
      "chip": "ym2612"
    },
    {
      "channel": 3,
      "note": 87,
      "start": 75.9959,
      "duration": 0.1738,
      "velocity": 104,
      "chip": "ym2612"
    },
    {
      "channel": 0,
      "note": 87,
      "start": 76.0738,
      "duration": 0.0786,
      "velocity": 104,
      "chip": "ym2612"
    },
    {
      "channel": 4,
      "note": 56,
      "start": 76.0761,
      "duration": 0.0779,
      "velocity": 97,
      "chip": "ym2612"
    },
    {
      "channel": 5,
      "note": 45,
      "start": 76.0799,
      "duration": 0.1136,
      "velocity": 117,
      "chip": "ym2612"
    },
    {
      "channel": 1,
      "note": 80,
      "start": 76.0901,
      "duration": 0.1738,
      "velocity": 95,
      "chip": "ym2612"
    },
    {
      "channel": 0,
      "note": 85,
      "start": 76.1875,
      "duration": 0.3459,
      "velocity": 93,
      "chip": "ym2612"
    },
    {
      "channel": 2,
      "note": 81,
      "start": 76.1889,
      "duration": 0.0753,
      "velocity": 95,
      "chip": "ym2612"
    },
    {
      "channel": 4,
      "note": 57,
      "start": 76.1904,
      "duration": 0.1704,
      "velocity": 97,
      "chip": "ym2612"
    },
    {
      "channel": 5,
      "note": 54,
      "start": 76.1941,
      "duration": 0.1224,
      "velocity": 115,
      "chip": "ym2612"
    },
    {
      "channel": 3,
      "note": 87,
      "start": 76.234,
      "duration": 0.079,
      "velocity": 104,
      "chip": "ym2612"
    },
    {
      "channel": 2,
      "note": 83,
      "start": 76.3128,
      "duration": 0.0787,
      "velocity": 95,
      "chip": "ym2612"
    },
    {
      "channel": 5,
      "note": 57,
      "start": 76.3172,
      "duration": 0.1083,
      "velocity": 115,
      "chip": "ym2612"
    },
    {
      "channel": 1,
      "note": 81,
      "start": 76.3283,
      "duration": 0.0786,
      "velocity": 95,
      "chip": "ym2612"
    },
    {
      "channel": 3,
      "note": 85,
      "start": 76.3477,
      "duration": 0.3462,
      "velocity": 93,
      "chip": "ym2612"
    },
    {
      "channel": 2,
      "note": 85,
      "start": 76.4239,
      "duration": 0.0787,
      "velocity": 95,
      "chip": "ym2612"
    },
    {
      "channel": 4,
      "note": 69,
      "start": 76.4253,
      "duration": 0.1737,
      "velocity": 97,
      "chip": "ym2612"
    },
    {
      "channel": 5,
      "note": 57,
      "start": 76.4263,
      "duration": 0.1259,
      "velocity": 115,
      "chip": "ym2612"
    },
    {
      "channel": 1,
      "note": 83,
      "start": 76.4552,
      "duration": 0.0783,
      "velocity": 95,
      "chip": "ym2612"
    },
    {
      "channel": 2,
      "note": 81,
      "start": 76.5509,
      "duration": 0.0787,
      "velocity": 95,
      "chip": "ym2612"
    },
    {
      "channel": 5,
      "note": 57,
      "start": 76.5529,
      "duration": 0.114,
      "velocity": 127,
      "chip": "ym2612"
    },
    {
      "channel": 1,
      "note": 85,
      "start": 76.5663,
      "duration": 0.0787,
      "velocity": 95,
      "chip": "ym2612"
    },
    {
      "channel": 0,
      "note": 85,
      "start": 76.6611,
      "duration": 0.3486,
      "velocity": 93,
      "chip": "ym2612"
    },
    {
      "channel": 2,
      "note": 81,
      "start": 76.6625,
      "duration": 0.0782,
      "velocity": 95,
      "chip": "ym2612"
    },
    {
      "channel": 4,
      "note": 57,
      "start": 76.6638,
      "duration": 0.1733,
      "velocity": 97,
      "chip": "ym2612"
    },
    {
      "channel": 5,
      "note": 45,
      "start": 76.6676,
      "duration": 0.1227,
      "velocity": 127,
      "chip": "ym2612"
    },
    {
      "channel": 1,
      "note": 81,
      "start": 76.6933,
      "duration": 0.0787,
      "velocity": 95,
      "chip": "ym2612"
    },
    {
      "channel": 2,
      "note": 83,
      "start": 76.789,
      "duration": 0.0786,
      "velocity": 95,
      "chip": "ym2612"
    },
    {
      "channel": 1,
      "note": 81,
      "start": 76.8044,
      "duration": 0.0786,
      "velocity": 95,
      "chip": "ym2612"
    },
    {
      "channel": 3,
      "note": 85,
      "start": 76.8212,
      "duration": 0.349,
      "velocity": 93,
      "chip": "ym2612"
    },
    {
      "channel": 2,
      "note": 85,
      "start": 76.9002,
      "duration": 0.0788,
      "velocity": 95,
      "chip": "ym2612"
    },
    {
      "channel": 4,
      "note": 69,
      "start": 76.9016,
      "duration": 0.078,
      "velocity": 97,
      "chip": "ym2612"
    },
    {
      "channel": 5,
      "note": 57,
      "start": 76.9054,
      "duration": 0.1234,
      "velocity": 115,
      "chip": "ym2612"
    },
    {
      "channel": 1,
      "note": 83,
      "start": 76.9315,
      "duration": 0.0783,
      "velocity": 95,
      "chip": "ym2612"
    },
    {
      "channel": 2,
      "note": 81,
      "start": 77.0272,
      "duration": 0.0787,
      "velocity": 95,
      "chip": "ym2612"
    },
    {
      "channel": 4,
      "note": 69,
      "start": 77.0286,
      "duration": 0.0779,
      "velocity": 97,
      "chip": "ym2612"
    },
    {
      "channel": 5,
      "note": 57,
      "start": 77.0296,
      "duration": 0.1137,
      "velocity": 117,
      "chip": "ym2612"
    },
    {
      "channel": 1,
      "note": 85,
      "start": 77.0426,
      "duration": 0.0787,
      "velocity": 95,
      "chip": "ym2612"
    },
    {
      "channel": 0,
      "note": 92,
      "start": 77.1374,
      "duration": 0.2691,
      "velocity": 93,
      "chip": "ym2612"
    },
    {
      "channel": 2,
      "note": 83,
      "start": 77.1388,
      "duration": 0.0782,
      "velocity": 95,
      "chip": "ym2612"
    },
    {
      "channel": 4,
      "note": 61,
      "start": 77.1403,
      "duration": 0.2683,
      "velocity": 97,
      "chip": "ym2612"
    },
    {
      "channel": 5,
      "note": 54,
      "start": 77.144,
      "duration": 0.1254,
      "velocity": 115,
      "chip": "ym2612"
    },
    {
      "channel": 1,
      "note": 81,
      "start": 77.1696,
      "duration": 0.0786,
      "velocity": 95,
      "chip": "ym2612"
    },
    {
      "channel": 2,
      "note": 85,
      "start": 77.2653,
      "duration": 0.0786,
      "velocity": 95,
      "chip": "ym2612"
    },
    {
      "channel": 5,
      "note": 57,
      "start": 77.2701,
      "duration": 0.1076,
      "velocity": 115,
      "chip": "ym2612"
    },
    {
      "channel": 1,
      "note": 83,
      "start": 77.2807,
      "duration": 0.0786,
      "velocity": 95,
      "chip": "ym2612"
    },
    {
      "channel": 3,
      "note": 92,
      "start": 77.2976,
      "duration": 0.2691,
      "velocity": 93,
      "chip": "ym2612"
    },
    {
      "channel": 2,
      "note": 87,
      "start": 77.3765,
      "duration": 0.0786,
      "velocity": 95,
      "chip": "ym2612"
    },
    {
      "channel": 5,
      "note": 57,
      "start": 77.3784,
      "duration": 0.1299,
      "velocity": 117,
      "chip": "ym2612"
    },
    {
      "channel": 1,
      "note": 85,
      "start": 77.4074,
      "duration": 0.079,
      "velocity": 95,
      "chip": "ym2612"
    },
    {
      "channel": 0,
      "note": 90,
      "start": 77.5025,
      "duration": 0.2692,
      "velocity": 93,
      "chip": "ym2612"
    },
    {
      "channel": 2,
      "note": 83,
      "start": 77.5038,
      "duration": 0.0783,
      "velocity": 95,
      "chip": "ym2612"
    },
    {
      "channel": 4,
      "note": 73,
      "start": 77.5053,
      "duration": 0.0775,
      "velocity": 97,
      "chip": "ym2612"
    },
    {
      "channel": 5,
      "note": 54,
      "start": 77.509,
      "duration": 0.1101,
      "velocity": 127,
      "chip": "ym2612"
    },
    {
      "channel": 1,
      "note": 87,
      "start": 77.5188,
      "duration": 0.0787,
      "velocity": 95,
      "chip": "ym2612"
    },
    {
      "channel": 2,
      "note": 83,
      "start": 77.6146,
      "duration": 0.0786,
      "velocity": 95,
      "chip": "ym2612"
    },
    {
      "channel": 4,
      "note": 61,
      "start": 77.616,
      "duration": 0.1735,
      "velocity": 97,
      "chip": "ym2612"
    },
    {
      "channel": 5,
      "note": 45,
      "start": 77.6198,
      "duration": 0.123,
      "velocity": 127,
      "chip": "ym2612"
    },
    {
      "channel": 1,
      "note": 83,
      "start": 77.6459,
      "duration": 0.0786,
      "velocity": 95,
      "chip": "ym2612"
    },
    {
      "channel": 3,
      "note": 90,
      "start": 77.6627,
      "duration": 0.2688,
      "velocity": 93,
      "chip": "ym2612"
    },
    {
      "channel": 2,
      "note": 85,
      "start": 77.7415,
      "duration": 0.0787,
      "velocity": 95,
      "chip": "ym2612"
    },
    {
      "channel": 1,
      "note": 83,
      "start": 77.757,
      "duration": 0.0787,
      "velocity": 95,
      "chip": "ym2612"
    },
    {
      "channel": 0,
      "note": 89,
      "start": 77.8518,
      "duration": 0.174,
      "velocity": 93,
      "chip": "ym2612"
    },
    {
      "channel": 2,
      "note": 87,
      "start": 77.8532,
      "duration": 0.0782,
      "velocity": 95,
      "chip": "ym2612"
    },
    {
      "channel": 4,
      "note": 73,
      "start": 77.8546,
      "duration": 0.0771,
      "velocity": 97,
      "chip": "ym2612"
    },
    {
      "channel": 5,
      "note": 57,
      "start": 77.8584,
      "duration": 0.1258,
      "velocity": 127,
      "chip": "ym2612"
    },
    {
      "channel": 1,
      "note": 85,
      "start": 77.884,
      "duration": 0.0786,
      "velocity": 95,
      "chip": "ym2612"
    },
    {
      "channel": 2,
      "note": 90,
      "start": 77.9797,
      "duration": 0.0786,
      "velocity": 95,
      "chip": "ym2612"
    },
    {
      "channel": 4,
      "note": 61,
      "start": 77.981,
      "duration": 0.0779,
      "velocity": 97,
      "chip": "ym2612"
    },
    {
      "channel": 5,
      "note": 45,
      "start": 77.9849,
      "duration": 0.111,
      "velocity": 117,
      "chip": "ym2612"
    },
    {
      "channel": 1,
      "note": 87,
      "start": 77.9951,
      "duration": 0.0786,
      "velocity": 95,
      "chip": "ym2612"
    },
    {
      "channel": 3,
      "note": 89,
      "start": 78.012,
      "duration": 0.1739,
      "velocity": 93,
      "chip": "ym2612"
    },
    {
      "channel": 0,
      "note": 90,
      "start": 78.09,
      "duration": 0.7296,
      "velocity": 93,
      "chip": "ym2612"
    },
    {
      "channel": 2,
      "note": 83,
      "start": 78.0913,
      "duration": 0.0782,
      "velocity": 95,
      "chip": "ym2612"
    },
    {
      "channel": 4,
      "note": 59,
      "start": 78.0927,
      "duration": 0.1732,
      "velocity": 97,
      "chip": "ym2612"
    },
    {
      "channel": 5,
      "note": 54,
      "start": 78.0965,
      "duration": 0.1254,
      "velocity": 115,
      "chip": "ym2612"
    },
    {
      "channel": 1,
      "note": 90,
      "start": 78.1221,
      "duration": 0.0786,
      "velocity": 95,
      "chip": "ym2612"
    },
    {
      "channel": 2,
      "note": 85,
      "start": 78.2178,
      "duration": 0.0787,
      "velocity": 95,
      "chip": "ym2612"
    },
    {
      "channel": 5,
      "note": 57,
      "start": 78.2226,
      "duration": 0.1081,
      "velocity": 115,
      "chip": "ym2612"
    },
    {
      "channel": 1,
      "note": 83,
      "start": 78.2332,
      "duration": 0.0787,
      "velocity": 95,
      "chip": "ym2612"
    },
    {
      "channel": 3,
      "note": 90,
      "start": 78.2501,
      "duration": 0.7296,
      "velocity": 93,
      "chip": "ym2612"
    },
    {
      "channel": 2,
      "note": 87,
      "start": 78.329,
      "duration": 0.0786,
      "velocity": 95,
      "chip": "ym2612"
    },
    {
      "channel": 4,
      "note": 71,
      "start": 78.3303,
      "duration": 0.1737,
      "velocity": 97,
      "chip": "ym2612"
    },
    {
      "channel": 5,
      "note": 57,
      "start": 78.3314,
      "duration": 0.1259,
      "velocity": 115,
      "chip": "ym2612"
    },
    {
      "channel": 1,
      "note": 85,
      "start": 78.3602,
      "duration": 0.0787,
      "velocity": 95,
      "chip": "ym2612"
    },
    {
      "channel": 2,
      "note": 83,
      "start": 78.456,
      "duration": 0.0786,
      "velocity": 95,
      "chip": "ym2612"
    },
    {
      "channel": 5,
      "note": 57,
      "start": 78.458,
      "duration": 0.1137,
      "velocity": 127,
      "chip": "ym2612"
    },
    {
      "channel": 1,
      "note": 87,
      "start": 78.4714,
      "duration": 0.0787,
      "velocity": 95,
      "chip": "ym2612"
    },
    {
      "channel": 2,
      "note": 83,
      "start": 78.5671,
      "duration": 0.0787,
      "velocity": 95,
      "chip": "ym2612"
    },
    {
      "channel": 4,
      "note": 59,
      "start": 78.5686,
      "duration": 0.0779,
      "velocity": 97,
      "chip": "ym2612"
    },
    {
      "channel": 5,
      "note": 45,
      "start": 78.5724,
      "duration": 0.1234,
      "velocity": 127,
      "chip": "ym2612"
    },
    {
      "channel": 1,
      "note": 83,
      "start": 78.5983,
      "duration": 0.0787,
      "velocity": 95,
      "chip": "ym2612"
    },
    {
      "channel": 2,
      "note": 85,
      "start": 78.6941,
      "duration": 0.0786,
      "velocity": 95,
      "chip": "ym2612"
    },
    {
      "channel": 4,
      "note": 59,
      "start": 78.6955,
      "duration": 0.0779,
      "velocity": 97,
      "chip": "ym2612"
    },
    {
      "channel": 1,
      "note": 83,
      "start": 78.7095,
      "duration": 0.0787,
      "velocity": 95,
      "chip": "ym2612"
    },
    {
      "channel": 2,
      "note": 87,
      "start": 78.8052,
      "duration": 0.0786,
      "velocity": 95,
      "chip": "ym2612"
    },
    {
      "channel": 4,
      "note": 71,
      "start": 78.8067,
      "duration": 0.1732,
      "velocity": 97,
      "chip": "ym2612"
    },
    {
      "channel": 5,
      "note": 57,
      "start": 78.8104,
      "duration": 0.1231,
      "velocity": 115,
      "chip": "ym2612"
    },
    {
      "channel": 1,
      "note": 85,
      "start": 78.8364,
      "duration": 0.0787,
      "velocity": 95,
      "chip": "ym2612"
    },
    {
      "channel": 2,
      "note": 90,
      "start": 78.9322,
      "duration": 0.0786,
      "velocity": 95,
      "chip": "ym2612"
    },
    {
      "channel": 5,
      "note": 57,
      "start": 78.9342,
      "duration": 0.1167,
      "velocity": 122,
      "chip": "ym2612"
    },
    {
      "channel": 1,
      "note": 87,
      "start": 78.9476,
      "duration": 0.0786,
      "velocity": 95,
      "chip": "ym2612"
    },
    {
      "channel": 0,
      "note": 90,
      "start": 79.045,
      "duration": 0.076,
      "velocity": 104,
      "chip": "ym2612"
    },
    {
      "channel": 2,
      "note": 95,
      "start": 79.0464,
      "duration": 0.7266,
      "velocity": 95,
      "chip": "ym2612"
    },
    {
      "channel": 4,
      "note": 71,
      "start": 79.0478,
      "duration": 0.1705,
      "velocity": 97,
      "chip": "ym2612"
    },
    {
      "channel": 5,
      "note": 54,
      "start": 79.0516,
      "duration": 0.1228,
      "velocity": 122,
      "chip": "ym2612"
    },
    {
      "channel": 1,
      "note": 90,
      "start": 79.0746,
      "duration": 0.0787,
      "velocity": 95,
      "chip": "ym2612"
    },
    {
      "channel": 0,
      "note": 90,
      "start": 79.1694,
      "duration": 0.0787,
      "velocity": 104,
      "chip": "ym2612"
    },
    {
      "channel": 5,
      "note": 54,
      "start": 79.1751,
      "duration": 0.1102,
      "velocity": 122,
      "chip": "ym2612"
    },
    {
      "channel": 1,
      "note": 95,
      "start": 79.1859,
      "duration": 0.7294,
      "velocity": 95,
      "chip": "ym2612"
    },
    {
      "channel": 3,
      "note": 90,
      "start": 79.2054,
      "duration": 0.0759,
      "velocity": 104,
      "chip": "ym2612"
    },
    {
      "channel": 4,
      "note": 59,
      "start": 79.2822,
      "duration": 0.079,
      "velocity": 97,
      "chip": "ym2612"
    },
    {
      "channel": 5,
      "note": 49,
      "start": 79.286,
      "duration": 0.1266,
      "velocity": 122,
      "chip": "ym2612"
    },
    {
      "channel": 3,
      "note": 90,
      "start": 79.3296,
      "duration": 0.079,
      "velocity": 104,
      "chip": "ym2612"
    },
    {
      "channel": 0,
      "note": 90,
      "start": 79.4075,
      "duration": 0.0787,
      "velocity": 104,
      "chip": "ym2612"
    },
    {
      "channel": 4,
      "note": 59,
      "start": 79.4095,
      "duration": 0.0782,
      "velocity": 97,
      "chip": "ym2612"
    },
    {
      "channel": 5,
      "note": 49,
      "start": 79.4133,
      "duration": 0.1109,
      "velocity": 127,
      "chip": "ym2612"
    },
    {
      "channel": 0,
      "note": 89,
      "start": 79.5186,
      "duration": 0.0787,
      "velocity": 104,
      "chip": "ym2612"
    },
    {
      "channel": 4,
      "note": 59,
      "start": 79.5211,
      "duration": 0.1735,
      "velocity": 97,
      "chip": "ym2612"
    },
    {
      "channel": 5,
      "note": 45,
      "start": 79.5249,
      "duration": 0.1229,
      "velocity": 127,
      "chip": "ym2612"
    },
    {
      "channel": 3,
      "note": 90,
      "start": 79.5678,
      "duration": 0.0792,
      "velocity": 104,
      "chip": "ym2612"
    },
    {
      "channel": 0,
      "note": 90,
      "start": 79.6457,
      "duration": 0.1739,
      "velocity": 104,
      "chip": "ym2612"
    },
    {
      "channel": 3,
      "note": 89,
      "start": 79.6789,
      "duration": 0.0787,
      "velocity": 104,
      "chip": "ym2612"
    },
    {
      "channel": 4,
      "note": 71,
      "start": 79.7585,
      "duration": 0.1743,
      "velocity": 97,
      "chip": "ym2612"
    },
    {
      "channel": 5,
      "note": 45,
      "start": 79.7594,
      "duration": 0.1267,
      "velocity": 127,
      "chip": "ym2612"
    },
    {
      "channel": 3,
      "note": 90,
      "start": 79.806,
      "duration": 0.1737,
      "velocity": 104,
      "chip": "ym2612"
    },
    {
      "channel": 0,
      "note": 90,
      "start": 79.8838,
      "duration": 0.0786,
      "velocity": 104,
      "chip": "ym2612"
    },
    {
      "channel": 5,
      "note": 45,
      "start": 79.8868,
      "duration": 0.1172,
      "velocity": 117,
      "chip": "ym2612"
    },
    {
      "channel": 0,
      "note": 78,
      "start": 79.9978,
      "duration": 0.2663,
      "velocity": 93,
      "chip": "ym2612"
    },
    {
      "channel": 2,
      "note": 78,
      "start": 79.9994,
      "duration": 0.0752,
      "velocity": 95,
      "chip": "ym2612"
    },
    {
      "channel": 4,
      "note": 54,
      "start": 80.0009,
      "duration": 0.2652,
      "velocity": 97,
      "chip": "ym2612"
    },
    {
      "channel": 5,
      "note": 54,
      "start": 80.0047,
      "duration": 0.1219,
      "velocity": 115,
      "chip": "ym2612"
    },
    {
      "channel": 3,
      "note": 90,
      "start": 80.0441,
      "duration": 0.0789,
      "velocity": 104,
      "chip": "ym2612"
    },
    {
      "channel": 2,
      "note": 73,
      "start": 80.1228,
      "duration": 0.0787,
      "velocity": 95,
      "chip": "ym2612"
    },
    {
      "channel": 5,
      "note": 57,
      "start": 80.1273,
      "duration": 0.108,
      "velocity": 115,
      "chip": "ym2612"
    },
    {
      "channel": 1,
      "note": 78,
      "start": 80.1386,
      "duration": 0.0783,
      "velocity": 95,
      "chip": "ym2612"
    },
    {
      "channel": 3,
      "note": 78,
      "start": 80.1581,
      "duration": 0.2662,
      "velocity": 93,
      "chip": "ym2612"
    },
    {
      "channel": 2,
      "note": 82,
      "start": 80.234,
      "duration": 0.0786,
      "velocity": 95,
      "chip": "ym2612"
    },
    {
      "channel": 5,
      "note": 57,
      "start": 80.236,
      "duration": 0.1272,
      "velocity": 115,
      "chip": "ym2612"
    },
    {
      "channel": 1,
      "note": 73,
      "start": 80.2649,
      "duration": 0.079,
      "velocity": 95,
      "chip": "ym2612"
    },
    {
      "channel": 0,
      "note": 73,
      "start": 80.36,
      "duration": 0.2692,
      "velocity": 93,
      "chip": "ym2612"
    },
    {
      "channel": 2,
      "note": 80,
      "start": 80.3615,
      "duration": 0.1735,
      "velocity": 95,
      "chip": "ym2612"
    },
    {
      "channel": 4,
      "note": 66,
      "start": 80.3629,
      "duration": 0.0778,
      "velocity": 97,
      "chip": "ym2612"
    },
    {
      "channel": 5,
      "note": 57,
      "start": 80.3639,
      "duration": 0.1119,
      "velocity": 127,
      "chip": "ym2612"
    },
    {
      "channel": 1,
      "note": 82,
      "start": 80.3764,
      "duration": 0.0787,
      "velocity": 95,
      "chip": "ym2612"
    },
    {
      "channel": 5,
      "note": 45,
      "start": 80.4765,
      "duration": 0.1244,
      "velocity": 127,
      "chip": "ym2612"
    },
    {
      "channel": 1,
      "note": 80,
      "start": 80.5035,
      "duration": 0.1738,
      "velocity": 95,
      "chip": "ym2612"
    },
    {
      "channel": 3,
      "note": 73,
      "start": 80.5202,
      "duration": 0.2691,
      "velocity": 93,
      "chip": "ym2612"
    },
    {
      "channel": 2,
      "note": 82,
      "start": 80.5992,
      "duration": 0.0783,
      "velocity": 95,
      "chip": "ym2612"
    },
    {
      "channel": 4,
      "note": 54,
      "start": 80.6006,
      "duration": 0.0775,
      "velocity": 97,
      "chip": "ym2612"
    },
    {
      "channel": 0,
      "note": 82,
      "start": 80.7094,
      "duration": 0.1739,
      "velocity": 93,
      "chip": "ym2612"
    },
    {
      "channel": 2,
      "note": 78,
      "start": 80.7108,
      "duration": 0.1732,
      "velocity": 95,
      "chip": "ym2612"
    },
    {
      "channel": 5,
      "note": 57,
      "start": 80.7156,
      "duration": 0.123,
      "velocity": 115,
      "chip": "ym2612"
    },
    {
      "channel": 1,
      "note": 82,
      "start": 80.7416,
      "duration": 0.0786,
      "velocity": 95,
      "chip": "ym2612"
    },
    {
      "channel": 4,
      "note": 66,
      "start": 80.8382,
      "duration": 0.0787,
      "velocity": 97,
      "chip": "ym2612"
    },
    {
      "channel": 5,
      "note": 57,
      "start": 80.8393,
      "duration": 0.1142,
      "velocity": 117,
      "chip": "ym2612"
    },
    {
      "channel": 1,
      "note": 78,
      "start": 80.8527,
      "duration": 0.1739,
      "velocity": 95,
      "chip": "ym2612"
    },
    {
      "channel": 3,
      "note": 82,
      "start": 80.8696,
      "duration": 0.174,
      "velocity": 93,
      "chip": "ym2612"
    },
    {
      "channel": 0,
      "note": 78,
      "start": 80.9475,
      "duration": 0.2691,
      "velocity": 93,
      "chip": "ym2612"
    },
    {
      "channel": 2,
      "note": 78,
      "start": 80.9489,
      "duration": 0.0778,
      "velocity": 95,
      "chip": "ym2612"
    },
    {
      "channel": 4,
      "note": 54,
      "start": 80.9504,
      "duration": 0.1731,
      "velocity": 97,
      "chip": "ym2612"
    },
    {
      "channel": 5,
      "note": 54,
      "start": 80.9541,
      "duration": 0.1253,
      "velocity": 115,
      "chip": "ym2612"
    },
    {
      "channel": 2,
      "note": 73,
      "start": 81.0754,
      "duration": 0.0787,
      "velocity": 95,
      "chip": "ym2612"
    },
    {
      "channel": 5,
      "note": 57,
      "start": 81.0802,
      "duration": 0.108,
      "velocity": 115,
      "chip": "ym2612"
    },
    {
      "channel": 1,
      "note": 78,
      "start": 81.0908,
      "duration": 0.0786,
      "velocity": 95,
      "chip": "ym2612"
    },
    {
      "channel": 3,
      "note": 78,
      "start": 81.1078,
      "duration": 0.269,
      "velocity": 93,
      "chip": "ym2612"
    },
    {
      "channel": 2,
      "note": 82,
      "start": 81.1865,
      "duration": 0.0787,
      "velocity": 95,
      "chip": "ym2612"
    },
    {
      "channel": 4,
      "note": 54,
      "start": 81.1878,
      "duration": 0.1737,
      "velocity": 97,
      "chip": "ym2612"
    },
    {
      "channel": 5,
      "note": 57,
      "start": 81.1889,
      "duration": 0.1264,
      "velocity": 115,
      "chip": "ym2612"
    },
    {
      "channel": 1,
      "note": 73,
      "start": 81.2175,
      "duration": 0.079,
      "velocity": 95,
      "chip": "ym2612"
    },
    {
      "channel": 0,
      "note": 73,
      "start": 81.3125,
      "duration": 0.2692,
      "velocity": 93,
      "chip": "ym2612"
    },
    {
      "channel": 2,
      "note": 80,
      "start": 81.314,
      "duration": 0.1735,
      "velocity": 95,
      "chip": "ym2612"
    },
    {
      "channel": 5,
      "note": 57,
      "start": 81.316,
      "duration": 0.1128,
      "velocity": 127,
      "chip": "ym2612"
    },
    {
      "channel": 1,
      "note": 82,
      "start": 81.3289,
      "duration": 0.0787,
      "velocity": 95,
      "chip": "ym2612"
    },
    {
      "channel": 4,
      "note": 66,
      "start": 81.4256,
      "duration": 0.174,
      "velocity": 97,
      "chip": "ym2612"
    },
    {
      "channel": 5,
      "note": 45,
      "start": 81.4295,
      "duration": 0.1235,
      "velocity": 127,
      "chip": "ym2612"
    },
    {
      "channel": 1,
      "note": 80,
      "start": 81.456,
      "duration": 0.1738,
      "velocity": 95,
      "chip": "ym2612"
    },
    {
      "channel": 3,
      "note": 73,
      "start": 81.4727,
      "duration": 0.2692,
      "velocity": 93,
      "chip": "ym2612"
    },
    {
      "channel": 2,
      "note": 82,
      "start": 81.5518,
      "duration": 0.0782,
      "velocity": 95,
      "chip": "ym2612"
    },
    {
      "channel": 0,
      "note": 82,
      "start": 81.6619,
      "duration": 0.174,
      "velocity": 93,
      "chip": "ym2612"
    },
    {
      "channel": 2,
      "note": 78,
      "start": 81.6634,
      "duration": 0.1732,
      "velocity": 95,
      "chip": "ym2612"
    },
    {
      "channel": 4,
      "note": 54,
      "start": 81.6648,
      "duration": 0.0773,
      "velocity": 97,
      "chip": "ym2612"
    },
    {
      "channel": 5,
      "note": 57,
      "start": 81.6686,
      "duration": 0.1224,
      "velocity": 115,
      "chip": "ym2612"
    },
    {
      "channel": 1,
      "note": 82,
      "start": 81.6941,
      "duration": 0.0785,
      "velocity": 95,
      "chip": "ym2612"
    },
    {
      "channel": 4,
      "note": 54,
      "start": 81.7907,
      "duration": 0.0787,
      "velocity": 97,
      "chip": "ym2612"
    },
    {
      "channel": 5,
      "note": 57,
      "start": 81.7917,
      "duration": 0.1143,
      "velocity": 117,
      "chip": "ym2612"
    },
    {
      "channel": 1,
      "note": 78,
      "start": 81.8053,
      "duration": 0.1738,
      "velocity": 95,
      "chip": "ym2612"
    },
    {
      "channel": 3,
      "note": 82,
      "start": 81.8221,
      "duration": 0.174,
      "velocity": 93,
      "chip": "ym2612"
    },
    {
      "channel": 0,
      "note": 83,
      "start": 81.9001,
      "duration": 0.2691,
      "velocity": 93,
      "chip": "ym2612"
    },
    {
      "channel": 2,
      "note": 83,
      "start": 81.9015,
      "duration": 0.0778,
      "velocity": 95,
      "chip": "ym2612"
    },
    {
      "channel": 4,
      "note": 59,
      "start": 81.9029,
      "duration": 0.2682,
      "velocity": 97,
      "chip": "ym2612"
    },
    {
      "channel": 5,
      "note": 54,
      "start": 81.9067,
      "duration": 0.1253,
      "velocity": 115,
      "chip": "ym2612"
    },
    {
      "channel": 2,
      "note": 71,
      "start": 82.0279,
      "duration": 0.0786,
      "velocity": 95,
      "chip": "ym2612"
    },
    {
      "channel": 5,
      "note": 57,
      "start": 82.0327,
      "duration": 0.1076,
      "velocity": 115,
      "chip": "ym2612"
    },
    {
      "channel": 1,
      "note": 83,
      "start": 82.0434,
      "duration": 0.0785,
      "velocity": 95,
      "chip": "ym2612"
    },
    {
      "channel": 3,
      "note": 83,
      "start": 82.0602,
      "duration": 0.2691,
      "velocity": 93,
      "chip": "ym2612"
    },
    {
      "channel": 2,
      "note": 83,
      "start": 82.139,
      "duration": 0.0786,
      "velocity": 95,
      "chip": "ym2612"
    },
    {
      "channel": 5,
      "note": 57,
      "start": 82.1411,
      "duration": 0.1267,
      "velocity": 115,
      "chip": "ym2612"
    },
    {
      "channel": 1,
      "note": 71,
      "start": 82.17,
      "duration": 0.079,
      "velocity": 95,
      "chip": "ym2612"
    },
    {
      "channel": 0,
      "note": 82,
      "start": 82.2651,
      "duration": 0.2691,
      "velocity": 93,
      "chip": "ym2612"
    },
    {
      "channel": 4,
      "note": 71,
      "start": 82.2675,
      "duration": 0.0782,
      "velocity": 97,
      "chip": "ym2612"
    },
    {
      "channel": 5,
      "note": 57,
      "start": 82.2685,
      "duration": 0.1128,
      "velocity": 127,
      "chip": "ym2612"
    },
    {
      "channel": 1,
      "note": 83,
      "start": 82.2815,
      "duration": 0.0786,
      "velocity": 95,
      "chip": "ym2612"
    },
    {
      "channel": 2,
      "note": 83,
      "start": 82.3772,
      "duration": 0.0787,
      "velocity": 95,
      "chip": "ym2612"
    },
    {
      "channel": 5,
      "note": 45,
      "start": 82.382,
      "duration": 0.1239,
      "velocity": 127,
      "chip": "ym2612"
    },
    {
      "channel": 3,
      "note": 82,
      "start": 82.4253,
      "duration": 0.2688,
      "velocity": 93,
      "chip": "ym2612"
    },
    {
      "channel": 2,
      "note": 82,
      "start": 82.5042,
      "duration": 0.0786,
      "velocity": 95,
      "chip": "ym2612"
    },
    {
      "channel": 4,
      "note": 59,
      "start": 82.5055,
      "duration": 0.0779,
      "velocity": 97,
      "chip": "ym2612"
    },
    {
      "channel": 1,
      "note": 83,
      "start": 82.5196,
      "duration": 0.0787,
      "velocity": 95,
      "chip": "ym2612"
    },
    {
      "channel": 0,
      "note": 80,
      "start": 82.6144,
      "duration": 0.3484,
      "velocity": 93,
      "chip": "ym2612"
    },
    {
      "channel": 2,
      "note": 83,
      "start": 82.6158,
      "duration": 0.0782,
      "velocity": 95,
      "chip": "ym2612"
    },
    {
      "channel": 5,
      "note": 57,
      "start": 82.6205,
      "duration": 0.1234,
      "velocity": 115,
      "chip": "ym2612"
    },
    {
      "channel": 1,
      "note": 82,
      "start": 82.6466,
      "duration": 0.0787,
      "velocity": 95,
      "chip": "ym2612"
    },
    {
      "channel": 2,
      "note": 85,
      "start": 82.7423,
      "duration": 0.0786,
      "velocity": 95,
      "chip": "ym2612"
    },
    {
      "channel": 4,
      "note": 71,
      "start": 82.7437,
      "duration": 0.0779,
      "velocity": 97,
      "chip": "ym2612"
    },
    {
      "channel": 5,
      "note": 57,
      "start": 82.7447,
      "duration": 0.1132,
      "velocity": 117,
      "chip": "ym2612"
    },
    {
      "channel": 1,
      "note": 83,
      "start": 82.7577,
      "duration": 0.0787,
      "velocity": 95,
      "chip": "ym2612"
    },
    {
      "channel": 3,
      "note": 80,
      "start": 82.7746,
      "duration": 0.3488,
      "velocity": 93,
      "chip": "ym2612"
    },
    {
      "channel": 2,
      "note": 87,
      "start": 82.8534,
      "duration": 0.0787,
      "velocity": 95,
      "chip": "ym2612"
    },
    {
      "channel": 4,
      "note": 61,
      "start": 82.8549,
      "duration": 0.1735,
      "velocity": 97,
      "chip": "ym2612"
    },
    {
      "channel": 5,
      "note": 54,
      "start": 82.8586,
      "duration": 0.1258,
      "velocity": 115,
      "chip": "ym2612"
    },
    {
      "channel": 1,
      "note": 85,
      "start": 82.8847,
      "duration": 0.0783,
      "velocity": 95,
      "chip": "ym2612"
    },
    {
      "channel": 2,
      "note": 73,
      "start": 82.9804,
      "duration": 0.0787,
      "velocity": 95,
      "chip": "ym2612"
    },
    {
      "channel": 5,
      "note": 57,
      "start": 82.9852,
      "duration": 0.1085,
      "velocity": 115,
      "chip": "ym2612"
    },
    {
      "channel": 1,
      "note": 87,
      "start": 82.9959,
      "duration": 0.0786,
      "velocity": 95,
      "chip": "ym2612"
    },
    {
      "channel": 0,
      "note": 78,
      "start": 83.0907,
      "duration": 0.174,
      "velocity": 93,
      "chip": "ym2612"
    },
    {
      "channel": 2,
      "note": 83,
      "start": 83.092,
      "duration": 0.0782,
      "velocity": 95,
      "chip": "ym2612"
    },
    {
      "channel": 4,
      "note": 61,
      "start": 83.0934,
      "duration": 0.1728,
      "velocity": 97,
      "chip": "ym2612"
    },
    {
      "channel": 5,
      "note": 57,
      "start": 83.0944,
      "duration": 0.1254,
      "velocity": 115,
      "chip": "ym2612"
    },
    {
      "channel": 1,
      "note": 73,
      "start": 83.1228,
      "duration": 0.0786,
      "velocity": 95,
      "chip": "ym2612"
    },
    {
      "channel": 2,
      "note": 82,
      "start": 83.2186,
      "duration": 0.0787,
      "velocity": 95,
      "chip": "ym2612"
    },
    {
      "channel": 5,
      "note": 57,
      "start": 83.2206,
      "duration": 0.1135,
      "velocity": 127,
      "chip": "ym2612"
    },
    {
      "channel": 1,
      "note": 83,
      "start": 83.234,
      "duration": 0.0786,
      "velocity": 95,
      "chip": "ym2612"
    },
    {
      "channel": 3,
      "note": 78,
      "start": 83.2509,
      "duration": 0.1739,
      "velocity": 93,
      "chip": "ym2612"
    },
    {
      "channel": 0,
      "note": 77,
      "start": 83.3288,
      "duration": 0.174,
      "velocity": 93,
      "chip": "ym2612"
    },
    {
      "channel": 4,
      "note": 73,
      "start": 83.331,
      "duration": 0.1734,
      "velocity": 97,
      "chip": "ym2612"
    },
    {
      "channel": 5,
      "note": 45,
      "start": 83.3349,
      "duration": 0.1231,
      "velocity": 127,
      "chip": "ym2612"
    },
    {
      "channel": 1,
      "note": 82,
      "start": 83.361,
      "duration": 0.0786,
      "velocity": 95,
      "chip": "ym2612"
    },
    {
      "channel": 2,
      "note": 82,
      "start": 83.4567,
      "duration": 0.0786,
      "velocity": 95,
      "chip": "ym2612"
    },
    {
      "channel": 3,
      "note": 77,
      "start": 83.4889,
      "duration": 0.174,
      "velocity": 93,
      "chip": "ym2612"
    },
    {
      "channel": 0,
      "note": 75,
      "start": 83.5668,
      "duration": 0.1741,
      "velocity": 93,
      "chip": "ym2612"
    },
    {
      "channel": 2,
      "note": 80,
      "start": 83.5683,
      "duration": 0.1733,
      "velocity": 95,
      "chip": "ym2612"
    },
    {
      "channel": 4,
      "note": 70,
      "start": 83.5697,
      "duration": 0.0777,
      "velocity": 97,
      "chip": "ym2612"
    },
    {
      "channel": 5,
      "note": 57,
      "start": 83.5735,
      "duration": 0.1226,
      "velocity": 115,
      "chip": "ym2612"
    },
    {
      "channel": 1,
      "note": 82,
      "start": 83.5991,
      "duration": 0.0787,
      "velocity": 95,
      "chip": "ym2612"
    },
    {
      "channel": 4,
      "note": 68,
      "start": 83.6958,
      "duration": 0.0786,
      "velocity": 97,
      "chip": "ym2612"
    },
    {
      "channel": 5,
      "note": 57,
      "start": 83.6968,
      "duration": 0.1142,
      "velocity": 117,
      "chip": "ym2612"
    },
    {
      "channel": 1,
      "note": 80,
      "start": 83.7103,
      "duration": 0.1739,
      "velocity": 95,
      "chip": "ym2612"
    },
    {
      "channel": 3,
      "note": 75,
      "start": 83.727,
      "duration": 0.1741,
      "velocity": 93,
      "chip": "ym2612"
    },
    {
      "channel": 0,
      "note": 78,
      "start": 83.805,
      "duration": 0.2691,
      "velocity": 93,
      "chip": "ym2612"
    },
    {
      "channel": 2,
      "note": 78,
      "start": 83.8065,
      "duration": 0.0778,
      "velocity": 95,
      "chip": "ym2612"
    },
    {
      "channel": 4,
      "note": 66,
      "start": 83.808,
      "duration": 0.173,
      "velocity": 97,
      "chip": "ym2612"
    },
    {
      "channel": 5,
      "note": 54,
      "start": 83.8117,
      "duration": 0.1253,
      "velocity": 115,
      "chip": "ym2612"
    },
    {
      "channel": 2,
      "note": 73,
      "start": 83.9329,
      "duration": 0.0787,
      "velocity": 95,
      "chip": "ym2612"
    },
    {
      "channel": 5,
      "note": 57,
      "start": 83.9377,
      "duration": 0.1081,
      "velocity": 115,
      "chip": "ym2612"
    },
    {
      "channel": 1,
      "note": 78,
      "start": 83.9485,
      "duration": 0.0785,
      "velocity": 95,
      "chip": "ym2612"
    },
    {
      "channel": 3,
      "note": 78,
      "start": 83.9653,
      "duration": 0.2691,
      "velocity": 93,
      "chip": "ym2612"
    },
    {
      "channel": 2,
      "note": 82,
      "start": 84.0441,
      "duration": 0.0786,
      "velocity": 95,
      "chip": "ym2612"
    },
    {
      "channel": 4,
      "note": 54,
      "start": 84.0456,
      "duration": 0.0778,
      "velocity": 97,
      "chip": "ym2612"
    },
    {
      "channel": 5,
      "note": 57,
      "start": 84.0466,
      "duration": 0.1266,
      "velocity": 115,
      "chip": "ym2612"
    },
    {
      "channel": 1,
      "note": 73,
      "start": 84.075,
      "duration": 0.079,
      "velocity": 95,
      "chip": "ym2612"
    },
    {
      "channel": 0,
      "note": 73,
      "start": 84.1701,
      "duration": 0.2692,
      "velocity": 93,
      "chip": "ym2612"
    },
    {
      "channel": 2,
      "note": 80,
      "start": 84.1715,
      "duration": 0.1735,
      "velocity": 95,
      "chip": "ym2612"
    },
    {
      "channel": 4,
      "note": 66,
      "start": 84.1729,
      "duration": 0.0778,
      "velocity": 97,
      "chip": "ym2612"
    },
    {
      "channel": 5,
      "note": 57,
      "start": 84.1739,
      "duration": 0.112,
      "velocity": 127,
      "chip": "ym2612"
    },
    {
      "channel": 1,
      "note": 82,
      "start": 84.1865,
      "duration": 0.0786,
      "velocity": 95,
      "chip": "ym2612"
    },
    {
      "channel": 5,
      "note": 45,
      "start": 84.2866,
      "duration": 0.1243,
      "velocity": 127,
      "chip": "ym2612"
    },
    {
      "channel": 1,
      "note": 80,
      "start": 84.3136,
      "duration": 0.1738,
      "velocity": 95,
      "chip": "ym2612"
    },
    {
      "channel": 3,
      "note": 73,
      "start": 84.3303,
      "duration": 0.2692,
      "velocity": 93,
      "chip": "ym2612"
    },
    {
      "channel": 2,
      "note": 82,
      "start": 84.4093,
      "duration": 0.0782,
      "velocity": 95,
      "chip": "ym2612"
    },
    {
      "channel": 4,
      "note": 54,
      "start": 84.4107,
      "duration": 0.0775,
      "velocity": 97,
      "chip": "ym2612"
    },
    {
      "channel": 0,
      "note": 82,
      "start": 84.5195,
      "duration": 0.1739,
      "velocity": 93,
      "chip": "ym2612"
    },
    {
      "channel": 2,
      "note": 78,
      "start": 84.5209,
      "duration": 0.1731,
      "velocity": 95,
      "chip": "ym2612"
    },
    {
      "channel": 5,
      "note": 57,
      "start": 84.5257,
      "duration": 0.1229,
      "velocity": 115,
      "chip": "ym2612"
    },
    {
      "channel": 1,
      "note": 82,
      "start": 84.5517,
      "duration": 0.0785,
      "velocity": 95,
      "chip": "ym2612"
    },
    {
      "channel": 4,
      "note": 66,
      "start": 84.6483,
      "duration": 0.0786,
      "velocity": 97,
      "chip": "ym2612"
    },
    {
      "channel": 5,
      "note": 57,
      "start": 84.6494,
      "duration": 0.1142,
      "velocity": 117,
      "chip": "ym2612"
    },
    {
      "channel": 1,
      "note": 78,
      "start": 84.6629,
      "duration": 0.1738,
      "velocity": 95,
      "chip": "ym2612"
    },
    {
      "channel": 3,
      "note": 82,
      "start": 84.6797,
      "duration": 0.1739,
      "velocity": 93,
      "chip": "ym2612"
    },
    {
      "channel": 0,
      "note": 78,
      "start": 84.7576,
      "duration": 0.2691,
      "velocity": 93,
      "chip": "ym2612"
    },
    {
      "channel": 2,
      "note": 78,
      "start": 84.759,
      "duration": 0.0778,
      "velocity": 95,
      "chip": "ym2612"
    },
    {
      "channel": 4,
      "note": 54,
      "start": 84.7605,
      "duration": 0.173,
      "velocity": 97,
      "chip": "ym2612"
    },
    {
      "channel": 5,
      "note": 54,
      "start": 84.7642,
      "duration": 0.1253,
      "velocity": 115,
      "chip": "ym2612"
    },
    {
      "channel": 2,
      "note": 73,
      "start": 84.8855,
      "duration": 0.0786,
      "velocity": 95,
      "chip": "ym2612"
    },
    {
      "channel": 5,
      "note": 57,
      "start": 84.8903,
      "duration": 0.108,
      "velocity": 115,
      "chip": "ym2612"
    },
    {
      "channel": 1,
      "note": 78,
      "start": 84.901,
      "duration": 0.0785,
      "velocity": 95,
      "chip": "ym2612"
    },
    {
      "channel": 3,
      "note": 78,
      "start": 84.9178,
      "duration": 0.2691,
      "velocity": 93,
      "chip": "ym2612"
    },
    {
      "channel": 2,
      "note": 82,
      "start": 84.9966,
      "duration": 0.0786,
      "velocity": 95,
      "chip": "ym2612"
    },
    {
      "channel": 4,
      "note": 54,
      "start": 84.998,
      "duration": 0.1737,
      "velocity": 97,
      "chip": "ym2612"
    },
    {
      "channel": 5,
      "note": 57,
      "start": 84.999,
      "duration": 0.1263,
      "velocity": 115,
      "chip": "ym2612"
    },
    {
      "channel": 1,
      "note": 73,
      "start": 85.0276,
      "duration": 0.079,
      "velocity": 95,
      "chip": "ym2612"
    },
    {
      "channel": 0,
      "note": 73,
      "start": 85.1227,
      "duration": 0.2691,
      "velocity": 93,
      "chip": "ym2612"
    },
    {
      "channel": 2,
      "note": 80,
      "start": 85.124,
      "duration": 0.1735,
      "velocity": 95,
      "chip": "ym2612"
    },
    {
      "channel": 5,
      "note": 57,
      "start": 85.1261,
      "duration": 0.1127,
      "velocity": 127,
      "chip": "ym2612"
    },
    {
      "channel": 1,
      "note": 82,
      "start": 85.139,
      "duration": 0.0787,
      "velocity": 95,
      "chip": "ym2612"
    },
    {
      "channel": 4,
      "note": 66,
      "start": 85.2357,
      "duration": 0.1741,
      "velocity": 97,
      "chip": "ym2612"
    },
    {
      "channel": 5,
      "note": 45,
      "start": 85.2395,
      "duration": 0.1237,
      "velocity": 127,
      "chip": "ym2612"
    },
    {
      "channel": 1,
      "note": 80,
      "start": 85.2661,
      "duration": 0.1739,
      "velocity": 95,
      "chip": "ym2612"
    },
    {
      "channel": 3,
      "note": 73,
      "start": 85.2828,
      "duration": 0.2691,
      "velocity": 93,
      "chip": "ym2612"
    },
    {
      "channel": 2,
      "note": 82,
      "start": 85.3619,
      "duration": 0.0782,
      "velocity": 95,
      "chip": "ym2612"
    },
    {
      "channel": 0,
      "note": 82,
      "start": 85.472,
      "duration": 0.1739,
      "velocity": 93,
      "chip": "ym2612"
    },
    {
      "channel": 2,
      "note": 78,
      "start": 85.4734,
      "duration": 0.1732,
      "velocity": 95,
      "chip": "ym2612"
    },
    {
      "channel": 4,
      "note": 54,
      "start": 85.4749,
      "duration": 0.0773,
      "velocity": 97,
      "chip": "ym2612"
    },
    {
      "channel": 5,
      "note": 54,
      "start": 85.4786,
      "duration": 0.1225,
      "velocity": 122,
      "chip": "ym2612"
    },
    {
      "channel": 1,
      "note": 82,
      "start": 85.5042,
      "duration": 0.0786,
      "velocity": 95,
      "chip": "ym2612"
    },
    {
      "channel": 4,
      "note": 54,
      "start": 85.6008,
      "duration": 0.0787,
      "velocity": 97,
      "chip": "ym2612"
    },
    {
      "channel": 1,
      "note": 78,
      "start": 85.6153,
      "duration": 0.1739,
      "velocity": 95,
      "chip": "ym2612"
    },
    {
      "channel": 3,
      "note": 82,
      "start": 85.6322,
      "duration": 0.174,
      "velocity": 93,
      "chip": "ym2612"
    },
    {
      "channel": 0,
      "note": 83,
      "start": 85.7101,
      "duration": 0.2691,
      "velocity": 93,
      "chip": "ym2612"
    },
    {
      "channel": 2,
      "note": 83,
      "start": 85.7116,
      "duration": 0.0778,
      "velocity": 95,
      "chip": "ym2612"
    },
    {
      "channel": 4,
      "note": 59,
      "start": 85.713,
      "duration": 0.2682,
      "velocity": 97,
      "chip": "ym2612"
    },
    {
      "channel": 5,
      "note": 54,
      "start": 85.7168,
      "duration": 0.1252,
      "velocity": 115,
      "chip": "ym2612"
    },
    {
      "channel": 2,
      "note": 71,
      "start": 85.838,
      "duration": 0.0787,
      "velocity": 95,
      "chip": "ym2612"
    },
    {
      "channel": 5,
      "note": 57,
      "start": 85.8427,
      "duration": 0.1104,
      "velocity": 122,
      "chip": "ym2612"
    },
    {
      "channel": 1,
      "note": 83,
      "start": 85.8535,
      "duration": 0.0786,
      "velocity": 95,
      "chip": "ym2612"
    },
    {
      "channel": 3,
      "note": 83,
      "start": 85.8704,
      "duration": 0.2691,
      "velocity": 93,
      "chip": "ym2612"
    },
    {
      "channel": 2,
      "note": 83,
      "start": 85.9491,
      "duration": 0.0787,
      "velocity": 95,
      "chip": "ym2612"
    },
    {
      "channel": 5,
      "note": 42,
      "start": 85.9539,
      "duration": 0.1268,
      "velocity": 115,
      "chip": "ym2612"
    },
    {
      "channel": 1,
      "note": 71,
      "start": 85.9801,
      "duration": 0.0789,
      "velocity": 95,
      "chip": "ym2612"
    },
    {
      "channel": 0,
      "note": 82,
      "start": 86.0752,
      "duration": 0.2691,
      "velocity": 93,
      "chip": "ym2612"
    },
    {
      "channel": 4,
      "note": 71,
      "start": 86.0776,
      "duration": 0.0782,
      "velocity": 97,
      "chip": "ym2612"
    },
    {
      "channel": 5,
      "note": 57,
      "start": 86.0814,
      "duration": 0.1099,
      "velocity": 122,
      "chip": "ym2612"
    },
    {
      "channel": 1,
      "note": 83,
      "start": 86.0915,
      "duration": 0.0787,
      "velocity": 95,
      "chip": "ym2612"
    },
    {
      "channel": 2,
      "note": 83,
      "start": 86.1873,
      "duration": 0.0786,
      "velocity": 95,
      "chip": "ym2612"
    },
    {
      "channel": 5,
      "note": 42,
      "start": 86.192,
      "duration": 0.1239,
      "velocity": 122,
      "chip": "ym2612"
    },
    {
      "channel": 3,
      "note": 82,
      "start": 86.2354,
      "duration": 0.2688,
      "velocity": 93,
      "chip": "ym2612"
    },
    {
      "channel": 2,
      "note": 82,
      "start": 86.3142,
      "duration": 0.0787,
      "velocity": 95,
      "chip": "ym2612"
    },
    {
      "channel": 4,
      "note": 59,
      "start": 86.3156,
      "duration": 0.078,
      "velocity": 97,
      "chip": "ym2612"
    },
    {
      "channel": 1,
      "note": 83,
      "start": 86.3297,
      "duration": 0.0786,
      "velocity": 95,
      "chip": "ym2612"
    },
    {
      "channel": 0,
      "note": 80,
      "start": 86.4245,
      "duration": 0.3485,
      "velocity": 93,
      "chip": "ym2612"
    },
    {
      "channel": 2,
      "note": 83,
      "start": 86.4258,
      "duration": 0.0782,
      "velocity": 95,
      "chip": "ym2612"
    },
    {
      "channel": 5,
      "note": 45,
      "start": 86.4307,
      "duration": 0.1234,
      "velocity": 127,
      "chip": "ym2612"
    },
    {
      "channel": 1,
      "note": 82,
      "start": 86.4567,
      "duration": 0.0786,
      "velocity": 95,
      "chip": "ym2612"
    },
    {
      "channel": 2,
      "note": 85,
      "start": 86.5524,
      "duration": 0.0786,
      "velocity": 95,
      "chip": "ym2612"
    },
    {
      "channel": 4,
      "note": 71,
      "start": 86.5537,
      "duration": 0.0779,
      "velocity": 97,
      "chip": "ym2612"
    },
    {
      "channel": 1,
      "note": 83,
      "start": 86.5678,
      "duration": 0.0786,
      "velocity": 95,
      "chip": "ym2612"
    },
    {
      "channel": 3,
      "note": 80,
      "start": 86.5847,
      "duration": 0.3485,
      "velocity": 93,
      "chip": "ym2612"
    },
    {
      "channel": 2,
      "note": 87,
      "start": 86.6635,
      "duration": 0.0788,
      "velocity": 95,
      "chip": "ym2612"
    },
    {
      "channel": 4,
      "note": 61,
      "start": 86.6649,
      "duration": 0.1735,
      "velocity": 97,
      "chip": "ym2612"
    },
    {
      "channel": 5,
      "note": 45,
      "start": 86.666,
      "duration": 0.0619,
      "velocity": 127,
      "chip": "ym2612"
    },
    {
      "channel": 1,
      "note": 85,
      "start": 86.6949,
      "duration": 0.0783,
      "velocity": 95,
      "chip": "ym2612"
    },
    {
      "channel": 5,
      "note": 45,
      "start": 86.7286,
      "duration": 0.0631,
      "velocity": 127,
      "chip": "ym2612"
    },
    {
      "channel": 2,
      "note": 73,
      "start": 86.7905,
      "duration": 0.0788,
      "velocity": 95,
      "chip": "ym2612"
    },
    {
      "channel": 5,
      "note": 45,
      "start": 86.7925,
      "duration": 0.1113,
      "velocity": 127,
      "chip": "ym2612"
    },
    {
      "channel": 1,
      "note": 87,
      "start": 86.8059,
      "duration": 0.0786,
      "velocity": 95,
      "chip": "ym2612"
    },
    {
      "channel": 0,
      "note": 81,
      "start": 86.9008,
      "duration": 0.031,
      "velocity": 93,
      "chip": "ym2612"
    },
    {
      "channel": 2,
      "note": 83,
      "start": 86.9021,
      "duration": 0.0782,
      "velocity": 95,
      "chip": "ym2612"
    },
    {
      "channel": 4,
      "note": 73,
      "start": 86.9035,
      "duration": 0.1732,
      "velocity": 97,
      "chip": "ym2612"
    },
    {
      "channel": 1,
      "note": 73,
      "start": 86.9326,
      "duration": 0.079,
      "velocity": 95,
      "chip": "ym2612"
    },
    {
      "channel": 0,
      "note": 82,
      "start": 86.9642,
      "duration": 0.1262,
      "velocity": 93,
      "chip": "ym2612"
    },
    {
      "channel": 2,
      "note": 82,
      "start": 87.0287,
      "duration": 0.0786,
      "velocity": 95,
      "chip": "ym2612"
    },
    {
      "channel": 5,
      "note": 45,
      "start": 87.0307,
      "duration": 0.1108,
      "velocity": 127,
      "chip": "ym2612"
    },
    {
      "channel": 1,
      "note": 83,
      "start": 87.044,
      "duration": 0.0787,
      "velocity": 95,
      "chip": "ym2612"
    },
    {
      "channel": 3,
      "note": 81,
      "start": 87.061,
      "duration": 0.0306,
      "velocity": 93,
      "chip": "ym2612"
    },
    {
      "channel": 3,
      "note": 82,
      "start": 87.1242,
      "duration": 0.1262,
      "velocity": 93,
      "chip": "ym2612"
    },
    {
      "channel": 0,
      "note": 83,
      "start": 87.1389,
      "duration": 0.174,
      "velocity": 93,
      "chip": "ym2612"
    },
    {
      "channel": 4,
      "note": 61,
      "start": 87.1412,
      "duration": 0.1732,
      "velocity": 97,
      "chip": "ym2612"
    },
    {
      "channel": 5,
      "note": 45,
      "start": 87.1422,
      "duration": 0.1259,
      "velocity": 127,
      "chip": "ym2612"
    },
    {
      "channel": 1,
      "note": 82,
      "start": 87.1711,
      "duration": 0.0787,
      "velocity": 95,
      "chip": "ym2612"
    },
    {
      "channel": 2,
      "note": 82,
      "start": 87.2668,
      "duration": 0.0786,
      "velocity": 95,
      "chip": "ym2612"
    },
    {
      "channel": 3,
      "note": 83,
      "start": 87.2991,
      "duration": 0.1739,
      "velocity": 93,
      "chip": "ym2612"
    },
    {
      "channel": 0,
      "note": 85,
      "start": 87.377,
      "duration": 0.174,
      "velocity": 93,
      "chip": "ym2612"
    },
    {
      "channel": 2,
      "note": 80,
      "start": 87.3784,
      "duration": 0.1732,
      "velocity": 95,
      "chip": "ym2612"
    },
    {
      "channel": 4,
      "note": 73,
      "start": 87.3799,
      "duration": 0.0776,
      "velocity": 97,
      "chip": "ym2612"
    },
    {
      "channel": 5,
      "note": 45,
      "start": 87.3809,
      "duration": 0.1253,
      "velocity": 127,
      "chip": "ym2612"
    },
    {
      "channel": 1,
      "note": 82,
      "start": 87.4092,
      "duration": 0.0786,
      "velocity": 95,
      "chip": "ym2612"
    },
    {
      "channel": 4,
      "note": 73,
      "start": 87.5059,
      "duration": 0.0786,
      "velocity": 97,
      "chip": "ym2612"
    },
    {
      "channel": 1,
      "note": 80,
      "start": 87.5204,
      "duration": 0.1083,
      "velocity": 95,
      "chip": "ym2612"
    },
    {
      "channel": 3,
      "note": 85,
      "start": 87.5371,
      "duration": 0.0916,
      "velocity": 93,
      "chip": "ym2612"
    },
    {
      "channel": 0,
      "note": 78,
      "start": 87.6151,
      "duration": 0.0136,
      "velocity": 93,
      "chip": "ym2612"
    },
    {
      "channel": 2,
      "note": 78,
      "start": 87.6166,
      "duration": 0.0121,
      "velocity": 95,
      "chip": "ym2612"
    },
    {
      "channel": 4,
      "note": 54,
      "start": 87.6181,
      "duration": 0.0107,
      "velocity": 97,
      "chip": "ym2612"
    },
    {
      "channel": 5,
      "note": 54,
      "start": 87.6218,
      "duration": 0.0069,
      "velocity": 117,
      "chip": "ym2612"
    }
  ]
}