{
  "track_name": "05 - Enemy Mines",
  "duration_sec": 226.239,
  "sample_rate": 44100,
  "note_count": 5910,
  "unique_pitches": 35,
  "pitch_range": 67,
  "avg_note_duration": 0.1906,
  "reconstruction_stats": {
    "notes_reconstructed": 5910,
    "keyon_events": 5910,
    "keyoff_events": 5906,
    "orphan_keyons": 4,
    "unique_pitches": 35,
    "pitch_range": 67,
    "avg_duration_sec": 0.1906
  },
  "metadata": {
    "source": "S\\Sub-Terrania\\05 - Enemy Mines.vgz"
  },
  "notes": [
    {
      "channel": 0,
      "note": -1,
      "start": 0.0,
      "duration": 0.0,
      "velocity": 1,
      "chip": "ym2612"
    },
    {
      "channel": 0,
      "note": 23,
      "start": 0.0,
      "duration": 4.4998,
      "velocity": 122,
      "chip": "ym2612"
    },
    {
      "channel": 1,
      "note": -1,
      "start": 0.0,
      "duration": 0.0,
      "velocity": 1,
      "chip": "ym2612"
    },
    {
      "channel": 1,
      "note": 30,
      "start": 0.0,
      "duration": 2.2491,
      "velocity": 108,
      "chip": "ym2612"
    },
    {
      "channel": 2,
      "note": -1,
      "start": 0.0,
      "duration": 0.0,
      "velocity": 1,
      "chip": "ym2612"
    },
    {
      "channel": 3,
      "note": -1,
      "start": 0.0,
      "duration": 0.0,
      "velocity": 1,
      "chip": "ym2612"
    },
    {
      "channel": 4,
      "note": -1,
      "start": 0.0,
      "duration": 0.0,
      "velocity": 1,
      "chip": "ym2612"
    },
    {
      "channel": 5,
      "note": -1,
      "start": 0.0,
      "duration": 0.0,
      "velocity": 1,
      "chip": "ym2612"
    },
    {
      "channel": 2,
      "note": 71,
      "start": 0.0011,
      "duration": 0.1464,
      "velocity": 120,
      "chip": "ym2612"
    },
    {
      "channel": 3,
      "note": 23,
      "start": 0.0023,
      "duration": 0.1626,
      "velocity": 124,
      "chip": "ym2612"
    },
    {
      "channel": 4,
      "note": 37,
      "start": 0.0037,
      "duration": 0.079,
      "velocity": 108,
      "chip": "ym2612"
    },
    {
      "channel": 5,
      "note": 37,
      "start": 0.084,
      "duration": 0.082,
      "velocity": 108,
      "chip": "ym2612"
    },
    {
      "channel": 2,
      "note": 71,
      "start": 0.1486,
      "duration": 0.1314,
      "velocity": 120,
      "chip": "ym2612"
    },
    {
      "channel": 4,
      "note": 35,
      "start": 0.1498,
      "duration": 0.0819,
      "velocity": 108,
      "chip": "ym2612"
    },
    {
      "channel": 5,
      "note": 35,
      "start": 0.2158,
      "duration": 0.0826,
      "velocity": 108,
      "chip": "ym2612"
    },
    {
      "channel": 2,
      "note": 71,
      "start": 0.281,
      "duration": 0.148,
      "velocity": 120,
      "chip": "ym2612"
    },
    {
      "channel": 3,
      "note": 23,
      "start": 0.2817,
      "duration": 0.1646,
      "velocity": 124,
      "chip": "ym2612"
    },
    {
      "channel": 4,
      "note": 38,
      "start": 0.2824,
      "duration": 0.0817,
      "velocity": 108,
      "chip": "ym2612"
    },
    {
      "channel": 5,
      "note": 38,
      "start": 0.3648,
      "duration": 0.0827,
      "velocity": 108,
      "chip": "ym2612"
    },
    {
      "channel": 2,
      "note": 47,
      "start": 0.43,
      "duration": 0.1313,
      "velocity": 124,
      "chip": "ym2612"
    },
    {
      "channel": 4,
      "note": 35,
      "start": 0.4312,
      "duration": 0.0818,
      "velocity": 108,
      "chip": "ym2612"
    },
    {
      "channel": 5,
      "note": 35,
      "start": 0.4972,
      "duration": 0.0826,
      "velocity": 108,
      "chip": "ym2612"
    },
    {
      "channel": 2,
      "note": 71,
      "start": 0.5624,
      "duration": 0.1479,
      "velocity": 120,
      "chip": "ym2612"
    },
    {
      "channel": 3,
      "note": 23,
      "start": 0.563,
      "duration": 0.1647,
      "velocity": 124,
      "chip": "ym2612"
    },
    {
      "channel": 4,
      "note": 35,
      "start": 0.5637,
      "duration": 0.0817,
      "velocity": 108,
      "chip": "ym2612"
    },
    {
      "channel": 5,
      "note": 35,
      "start": 0.6461,
      "duration": 0.0827,
      "velocity": 108,
      "chip": "ym2612"
    },
    {
      "channel": 2,
      "note": 71,
      "start": 0.7114,
      "duration": 0.1314,
      "velocity": 120,
      "chip": "ym2612"
    },
    {
      "channel": 4,
      "note": 47,
      "start": 0.7126,
      "duration": 0.0819,
      "velocity": 108,
      "chip": "ym2612"
    },
    {
      "channel": 5,
      "note": 47,
      "start": 0.7786,
      "duration": 0.0826,
      "velocity": 108,
      "chip": "ym2612"
    },
    {
      "channel": 2,
      "note": 71,
      "start": 0.8437,
      "duration": 0.148,
      "velocity": 120,
      "chip": "ym2612"
    },
    {
      "channel": 3,
      "note": 23,
      "start": 0.8444,
      "duration": 0.0984,
      "velocity": 124,
      "chip": "ym2612"
    },
    {
      "channel": 4,
      "note": 38,
      "start": 0.8451,
      "duration": 0.0817,
      "velocity": 108,
      "chip": "ym2612"
    },
    {
      "channel": 5,
      "note": 38,
      "start": 0.9276,
      "duration": 0.0826,
      "velocity": 108,
      "chip": "ym2612"
    },
    {
      "channel": 2,
      "note": 71,
      "start": 0.9927,
      "duration": 0.1314,
      "velocity": 120,
      "chip": "ym2612"
    },
    {
      "channel": 3,
      "note": 23,
      "start": 0.9934,
      "duration": 0.0819,
      "velocity": 124,
      "chip": "ym2612"
    },
    {
      "channel": 4,
      "note": 35,
      "start": 0.9941,
      "duration": 0.0817,
      "velocity": 108,
      "chip": "ym2612"
    },
    {
      "channel": 5,
      "note": 35,
      "start": 1.06,
      "duration": 0.0827,
      "velocity": 108,
      "chip": "ym2612"
    },
    {
      "channel": 2,
      "note": 71,
      "start": 1.1252,
      "duration": 0.1479,
      "velocity": 120,
      "chip": "ym2612"
    },
    {
      "channel": 3,
      "note": 23,
      "start": 1.1259,
      "duration": 0.1646,
      "velocity": 124,
      "chip": "ym2612"
    },
    {
      "channel": 4,
      "note": 40,
      "start": 1.1266,
      "duration": 0.0817,
      "velocity": 108,
      "chip": "ym2612"
    },
    {
      "channel": 5,
      "note": 40,
      "start": 1.209,
      "duration": 0.0826,
      "velocity": 108,
      "chip": "ym2612"
    },
    {
      "channel": 2,
      "note": 71,
      "start": 1.2742,
      "duration": 0.1313,
      "velocity": 120,
      "chip": "ym2612"
    },
    {
      "channel": 4,
      "note": 35,
      "start": 1.2754,
      "duration": 0.0819,
      "velocity": 108,
      "chip": "ym2612"
    },
    {
      "channel": 5,
      "note": 35,
      "start": 1.3414,
      "duration": 0.0827,
      "velocity": 108,
      "chip": "ym2612"
    },
    {
      "channel": 2,
      "note": 71,
      "start": 1.4066,
      "duration": 0.1479,
      "velocity": 120,
      "chip": "ym2612"
    },
    {
      "channel": 3,
      "note": 23,
      "start": 1.4072,
      "duration": 0.1646,
      "velocity": 124,
      "chip": "ym2612"
    },
    {
      "channel": 4,
      "note": 38,
      "start": 1.4079,
      "duration": 0.0817,
      "velocity": 108,
      "chip": "ym2612"
    },
    {
      "channel": 5,
      "note": 38,
      "start": 1.4904,
      "duration": 0.0826,
      "velocity": 108,
      "chip": "ym2612"
    },
    {
      "channel": 2,
      "note": 71,
      "start": 1.5555,
      "duration": 0.1314,
      "velocity": 120,
      "chip": "ym2612"
    },
    {
      "channel": 4,
      "note": 35,
      "start": 1.5568,
      "duration": 0.0818,
      "velocity": 108,
      "chip": "ym2612"
    },
    {
      "channel": 5,
      "note": 35,
      "start": 1.6227,
      "duration": 0.0826,
      "velocity": 108,
      "chip": "ym2612"
    },
    {
      "channel": 2,
      "note": 71,
      "start": 1.688,
      "duration": 0.1479,
      "velocity": 120,
      "chip": "ym2612"
    },
    {
      "channel": 3,
      "note": 23,
      "start": 1.6886,
      "duration": 0.1646,
      "velocity": 124,
      "chip": "ym2612"
    },
    {
      "channel": 4,
      "note": 37,
      "start": 1.6893,
      "duration": 0.0817,
      "velocity": 108,
      "chip": "ym2612"
    },
    {
      "channel": 5,
      "note": 37,
      "start": 1.7717,
      "duration": 0.0826,
      "velocity": 108,
      "chip": "ym2612"
    },
    {
      "channel": 2,
      "note": 71,
      "start": 1.8369,
      "duration": 0.1314,
      "velocity": 120,
      "chip": "ym2612"
    },
    {
      "channel": 4,
      "note": 35,
      "start": 1.8381,
      "duration": 0.0819,
      "velocity": 108,
      "chip": "ym2612"
    },
    {
      "channel": 5,
      "note": 35,
      "start": 1.9042,
      "duration": 0.0826,
      "velocity": 108,
      "chip": "ym2612"
    },
    {
      "channel": 2,
      "note": 71,
      "start": 1.9693,
      "duration": 0.148,
      "velocity": 120,
      "chip": "ym2612"
    },
    {
      "channel": 3,
      "note": 23,
      "start": 1.97,
      "duration": 0.1646,
      "velocity": 124,
      "chip": "ym2612"
    },
    {
      "channel": 4,
      "note": 38,
      "start": 1.9707,
      "duration": 0.0817,
      "velocity": 108,
      "chip": "ym2612"
    },
    {
      "channel": 5,
      "note": 38,
      "start": 2.0532,
      "duration": 0.0826,
      "velocity": 108,
      "chip": "ym2612"
    },
    {
      "channel": 2,
      "note": 71,
      "start": 2.1183,
      "duration": 0.1315,
      "velocity": 120,
      "chip": "ym2612"
    },
    {
      "channel": 4,
      "note": 47,
      "start": 2.1195,
      "duration": 0.0819,
      "velocity": 108,
      "chip": "ym2612"
    },
    {
      "channel": 5,
      "note": 47,
      "start": 2.1855,
      "duration": 0.0826,
      "velocity": 108,
      "chip": "ym2612"
    },
    {
      "channel": 1,
      "note": 28,
      "start": 2.2497,
      "duration": 2.2507,
      "velocity": 108,
      "chip": "ym2612"
    },
    {
      "channel": 2,
      "note": 71,
      "start": 2.2509,
      "duration": 0.1477,
      "velocity": 120,
      "chip": "ym2612"
    },
    {
      "channel": 3,
      "note": 23,
      "start": 2.2516,
      "duration": 0.1644,
      "velocity": 124,
      "chip": "ym2612"
    },
    {
      "channel": 4,
      "note": 35,
      "start": 2.2523,
      "duration": 0.0815,
      "velocity": 108,
      "chip": "ym2612"
    },
    {
      "channel": 5,
      "note": 35,
      "start": 2.3345,
      "duration": 0.0826,
      "velocity": 108,
      "chip": "ym2612"
    },
    {
      "channel": 2,
      "note": 71,
      "start": 2.3997,
      "duration": 0.1314,
      "velocity": 120,
      "chip": "ym2612"
    },
    {
      "channel": 4,
      "note": 33,
      "start": 2.4009,
      "duration": 0.0819,
      "velocity": 108,
      "chip": "ym2612"
    },
    {
      "channel": 5,
      "note": 33,
      "start": 2.467,
      "duration": 0.0826,
      "velocity": 108,
      "chip": "ym2612"
    },
    {
      "channel": 2,
      "note": 71,
      "start": 2.5321,
      "duration": 0.148,
      "velocity": 120,
      "chip": "ym2612"
    },
    {
      "channel": 3,
      "note": 23,
      "start": 2.5328,
      "duration": 0.1646,
      "velocity": 124,
      "chip": "ym2612"
    },
    {
      "channel": 4,
      "note": 36,
      "start": 2.5335,
      "duration": 0.0817,
      "velocity": 108,
      "chip": "ym2612"
    },
    {
      "channel": 5,
      "note": 36,
      "start": 2.6159,
      "duration": 0.0826,
      "velocity": 108,
      "chip": "ym2612"
    },
    {
      "channel": 2,
      "note": 47,
      "start": 2.6811,
      "duration": 0.1313,
      "velocity": 124,
      "chip": "ym2612"
    },
    {
      "channel": 4,
      "note": 33,
      "start": 2.6824,
      "duration": 0.0818,
      "velocity": 108,
      "chip": "ym2612"
    },
    {
      "channel": 5,
      "note": 33,
      "start": 2.7483,
      "duration": 0.0826,
      "velocity": 108,
      "chip": "ym2612"
    },
    {
      "channel": 2,
      "note": 71,
      "start": 2.8135,
      "duration": 0.1479,
      "velocity": 120,
      "chip": "ym2612"
    },
    {
      "channel": 3,
      "note": 23,
      "start": 2.8141,
      "duration": 0.1646,
      "velocity": 124,
      "chip": "ym2612"
    },
    {
      "channel": 4,
      "note": 33,
      "start": 2.8149,
      "duration": 0.0817,
      "velocity": 108,
      "chip": "ym2612"
    },
    {
      "channel": 5,
      "note": 33,
      "start": 2.8973,
      "duration": 0.0826,
      "velocity": 108,
      "chip": "ym2612"
    },
    {
      "channel": 2,
      "note": 71,
      "start": 2.9625,
      "duration": 0.1314,
      "velocity": 120,
      "chip": "ym2612"
    },
    {
      "channel": 4,
      "note": 45,
      "start": 2.9637,
      "duration": 0.0819,
      "velocity": 108,
      "chip": "ym2612"
    },
    {
      "channel": 5,
      "note": 45,
      "start": 3.0298,
      "duration": 0.0826,
      "velocity": 108,
      "chip": "ym2612"
    },
    {
      "channel": 2,
      "note": 71,
      "start": 3.0949,
      "duration": 0.148,
      "velocity": 120,
      "chip": "ym2612"
    },
    {
      "channel": 3,
      "note": 23,
      "start": 3.0956,
      "duration": 0.1646,
      "velocity": 124,
      "chip": "ym2612"
    },
    {
      "channel": 4,
      "note": 36,
      "start": 3.0963,
      "duration": 0.0817,
      "velocity": 108,
      "chip": "ym2612"
    },
    {
      "channel": 5,
      "note": 36,
      "start": 3.1787,
      "duration": 0.0826,
      "velocity": 108,
      "chip": "ym2612"
    },
    {
      "channel": 2,
      "note": 71,
      "start": 3.2439,
      "duration": 0.1314,
      "velocity": 120,
      "chip": "ym2612"
    },
    {
      "channel": 4,
      "note": 33,
      "start": 3.2451,
      "duration": 0.0819,
      "velocity": 108,
      "chip": "ym2612"
    },
    {
      "channel": 5,
      "note": 33,
      "start": 3.3111,
      "duration": 0.0826,
      "velocity": 108,
      "chip": "ym2612"
    },
    {
      "channel": 2,
      "note": 71,
      "start": 3.3763,
      "duration": 0.148,
      "velocity": 120,
      "chip": "ym2612"
    },
    {
      "channel": 3,
      "note": 23,
      "start": 3.3769,
      "duration": 0.1647,
      "velocity": 124,
      "chip": "ym2612"
    },
    {
      "channel": 4,
      "note": 38,
      "start": 3.3776,
      "duration": 0.0817,
      "velocity": 108,
      "chip": "ym2612"
    },
    {
      "channel": 5,
      "note": 38,
      "start": 3.4601,
      "duration": 0.0827,
      "velocity": 108,
      "chip": "ym2612"
    },
    {
      "channel": 2,
      "note": 71,
      "start": 3.5253,
      "duration": 0.1314,
      "velocity": 120,
      "chip": "ym2612"
    },
    {
      "channel": 4,
      "note": 33,
      "start": 3.5265,
      "duration": 0.0819,
      "velocity": 108,
      "chip": "ym2612"
    },
    {
      "channel": 5,
      "note": 33,
      "start": 3.5925,
      "duration": 0.0826,
      "velocity": 108,
      "chip": "ym2612"
    },
    {
      "channel": 2,
      "note": 71,
      "start": 3.6577,
      "duration": 0.1479,
      "velocity": 120,
      "chip": "ym2612"
    },
    {
      "channel": 3,
      "note": 23,
      "start": 3.6584,
      "duration": 0.1646,
      "velocity": 124,
      "chip": "ym2612"
    },
    {
      "channel": 4,
      "note": 36,
      "start": 3.6591,
      "duration": 0.0817,
      "velocity": 108,
      "chip": "ym2612"
    },
    {
      "channel": 5,
      "note": 36,
      "start": 3.7415,
      "duration": 0.0826,
      "velocity": 108,
      "chip": "ym2612"
    },
    {
      "channel": 2,
      "note": 71,
      "start": 3.8067,
      "duration": 0.1313,
      "velocity": 120,
      "chip": "ym2612"
    },
    {
      "channel": 4,
      "note": 33,
      "start": 3.8079,
      "duration": 0.0819,
      "velocity": 108,
      "chip": "ym2612"
    },
    {
      "channel": 5,
      "note": 33,
      "start": 3.8739,
      "duration": 0.0827,
      "velocity": 108,
      "chip": "ym2612"
    },
    {
      "channel": 2,
      "note": 71,
      "start": 3.9391,
      "duration": 0.1479,
      "velocity": 120,
      "chip": "ym2612"
    },
    {
      "channel": 3,
      "note": 23,
      "start": 3.9398,
      "duration": 0.1646,
      "velocity": 124,
      "chip": "ym2612"
    },
    {
      "channel": 4,
      "note": 35,
      "start": 3.9405,
      "duration": 0.0817,
      "velocity": 108,
      "chip": "ym2612"
    },
    {
      "channel": 5,
      "note": 35,
      "start": 4.0229,
      "duration": 0.0826,
      "velocity": 108,
      "chip": "ym2612"
    },
    {
      "channel": 2,
      "note": 71,
      "start": 4.0881,
      "duration": 0.1314,
      "velocity": 120,
      "chip": "ym2612"
    },
    {
      "channel": 4,
      "note": 45,
      "start": 4.0893,
      "duration": 0.0819,
      "velocity": 108,
      "chip": "ym2612"
    },
    {
      "channel": 5,
      "note": 45,
      "start": 4.1553,
      "duration": 0.0827,
      "velocity": 108,
      "chip": "ym2612"
    },
    {
      "channel": 2,
      "note": 71,
      "start": 4.2205,
      "duration": 0.1479,
      "velocity": 120,
      "chip": "ym2612"
    },
    {
      "channel": 3,
      "note": 23,
      "start": 4.2212,
      "duration": 0.1646,
      "velocity": 124,
      "chip": "ym2612"
    },
    {
      "channel": 4,
      "note": 36,
      "start": 4.2219,
      "duration": 0.0817,
      "velocity": 108,
      "chip": "ym2612"
    },
    {
      "channel": 5,
      "note": 36,
      "start": 4.3043,
      "duration": 0.0826,
      "velocity": 108,
      "chip": "ym2612"
    },
    {
      "channel": 2,
      "note": 71,
      "start": 4.3694,
      "duration": 0.1317,
      "velocity": 120,
      "chip": "ym2612"
    },
    {
      "channel": 4,
      "note": 33,
      "start": 4.3707,
      "duration": 0.0819,
      "velocity": 108,
      "chip": "ym2612"
    },
    {
      "channel": 5,
      "note": 33,
      "start": 4.4367,
      "duration": 0.0827,
      "velocity": 108,
      "chip": "ym2612"
    },
    {
      "channel": 0,
      "note": 23,
      "start": 4.5003,
      "duration": 4.5018,
      "velocity": 122,
      "chip": "ym2612"
    },
    {
      "channel": 1,
      "note": 30,
      "start": 4.501,
      "duration": 2.2504,
      "velocity": 108,
      "chip": "ym2612"
    },
    {
      "channel": 2,
      "note": 71,
      "start": 4.5022,
      "duration": 0.1476,
      "velocity": 120,
      "chip": "ym2612"
    },
    {
      "channel": 3,
      "note": 23,
      "start": 4.5029,
      "duration": 0.1642,
      "velocity": 124,
      "chip": "ym2612"
    },
    {
      "channel": 4,
      "note": 37,
      "start": 4.5036,
      "duration": 0.0814,
      "velocity": 108,
      "chip": "ym2612"
    },
    {
      "channel": 5,
      "note": 37,
      "start": 4.5857,
      "duration": 0.0826,
      "velocity": 108,
      "chip": "ym2612"
    },
    {
      "channel": 2,
      "note": 71,
      "start": 4.6509,
      "duration": 0.1314,
      "velocity": 120,
      "chip": "ym2612"
    },
    {
      "channel": 4,
      "note": 35,
      "start": 4.6521,
      "duration": 0.0819,
      "velocity": 108,
      "chip": "ym2612"
    },
    {
      "channel": 5,
      "note": 35,
      "start": 4.7181,
      "duration": 0.0826,
      "velocity": 108,
      "chip": "ym2612"
    },
    {
      "channel": 2,
      "note": 71,
      "start": 4.7832,
      "duration": 0.148,
      "velocity": 120,
      "chip": "ym2612"
    },
    {
      "channel": 3,
      "note": 23,
      "start": 4.7839,
      "duration": 0.1646,
      "velocity": 124,
      "chip": "ym2612"
    },
    {
      "channel": 4,
      "note": 38,
      "start": 4.7846,
      "duration": 0.0817,
      "velocity": 108,
      "chip": "ym2612"
    },
    {
      "channel": 5,
      "note": 38,
      "start": 4.8671,
      "duration": 0.0826,
      "velocity": 108,
      "chip": "ym2612"
    },
    {
      "channel": 2,
      "note": 47,
      "start": 4.9323,
      "duration": 0.1313,
      "velocity": 124,
      "chip": "ym2612"
    },
    {
      "channel": 4,
      "note": 35,
      "start": 4.9335,
      "duration": 0.0818,
      "velocity": 108,
      "chip": "ym2612"
    },
    {
      "channel": 5,
      "note": 35,
      "start": 4.9995,
      "duration": 0.0826,
      "velocity": 108,
      "chip": "ym2612"
    },
    {
      "channel": 2,
      "note": 71,
      "start": 5.0647,
      "duration": 0.1479,
      "velocity": 120,
      "chip": "ym2612"
    },
    {
      "channel": 3,
      "note": 23,
      "start": 5.0653,
      "duration": 0.1646,
      "velocity": 124,
      "chip": "ym2612"
    },
    {
      "channel": 4,
      "note": 35,
      "start": 5.066,
      "duration": 0.0817,
      "velocity": 108,
      "chip": "ym2612"
    },
    {
      "channel": 5,
      "note": 35,
      "start": 5.1484,
      "duration": 0.0827,
      "velocity": 108,
      "chip": "ym2612"
    },
    {
      "channel": 2,
      "note": 71,
      "start": 5.2137,
      "duration": 0.1314,
      "velocity": 120,
      "chip": "ym2612"
    },
    {
      "channel": 4,
      "note": 47,
      "start": 5.2149,
      "duration": 0.0819,
      "velocity": 108,
      "chip": "ym2612"
    },
    {
      "channel": 5,
      "note": 47,
      "start": 5.2809,
      "duration": 0.0826,
      "velocity": 108,
      "chip": "ym2612"
    },
    {
      "channel": 2,
      "note": 71,
      "start": 5.346,
      "duration": 0.1479,
      "velocity": 120,
      "chip": "ym2612"
    },
    {
      "channel": 3,
      "note": 23,
      "start": 5.3467,
      "duration": 0.0984,
      "velocity": 124,
      "chip": "ym2612"
    },
    {
      "channel": 4,
      "note": 38,
      "start": 5.3474,
      "duration": 0.0817,
      "velocity": 108,
      "chip": "ym2612"
    },
    {
      "channel": 5,
      "note": 38,
      "start": 5.4299,
      "duration": 0.0826,
      "velocity": 108,
      "chip": "ym2612"
    },
    {
      "channel": 2,
      "note": 71,
      "start": 5.495,
      "duration": 0.1314,
      "velocity": 120,
      "chip": "ym2612"
    },
    {
      "channel": 3,
      "note": 23,
      "start": 5.4957,
      "duration": 0.0819,
      "velocity": 124,
      "chip": "ym2612"
    },
    {
      "channel": 4,
      "note": 35,
      "start": 5.4964,
      "duration": 0.0817,
      "velocity": 108,
      "chip": "ym2612"
    },
    {
      "channel": 5,
      "note": 35,
      "start": 5.5622,
      "duration": 0.0826,
      "velocity": 108,
      "chip": "ym2612"
    },
    {
      "channel": 2,
      "note": 71,
      "start": 5.6275,
      "duration": 0.1479,
      "velocity": 120,
      "chip": "ym2612"
    },
    {
      "channel": 3,
      "note": 23,
      "start": 5.6281,
      "duration": 0.1646,
      "velocity": 124,
      "chip": "ym2612"
    },
    {
      "channel": 4,
      "note": 40,
      "start": 5.6288,
      "duration": 0.0817,
      "velocity": 108,
      "chip": "ym2612"
    },
    {
      "channel": 5,
      "note": 40,
      "start": 5.7112,
      "duration": 0.0826,
      "velocity": 108,
      "chip": "ym2612"
    },
    {
      "channel": 2,
      "note": 71,
      "start": 5.7764,
      "duration": 0.1314,
      "velocity": 120,
      "chip": "ym2612"
    },
    {
      "channel": 4,
      "note": 35,
      "start": 5.7776,
      "duration": 0.0819,
      "velocity": 108,
      "chip": "ym2612"
    },
    {
      "channel": 5,
      "note": 35,
      "start": 5.8437,
      "duration": 0.0826,
      "velocity": 108,
      "chip": "ym2612"
    },
    {
      "channel": 2,
      "note": 71,
      "start": 5.9089,
      "duration": 0.1479,
      "velocity": 120,
      "chip": "ym2612"
    },
    {
      "channel": 3,
      "note": 23,
      "start": 5.9095,
      "duration": 0.1647,
      "velocity": 124,
      "chip": "ym2612"
    },
    {
      "channel": 4,
      "note": 38,
      "start": 5.9102,
      "duration": 0.0817,
      "velocity": 108,
      "chip": "ym2612"
    },
    {
      "channel": 5,
      "note": 38,
      "start": 5.9927,
      "duration": 0.0826,
      "velocity": 108,
      "chip": "ym2612"
    },
    {
      "channel": 2,
      "note": 71,
      "start": 6.0579,
      "duration": 0.1313,
      "velocity": 120,
      "chip": "ym2612"
    },
    {
      "channel": 4,
      "note": 35,
      "start": 6.0591,
      "duration": 0.0819,
      "velocity": 108,
      "chip": "ym2612"
    },
    {
      "channel": 5,
      "note": 35,
      "start": 6.1251,
      "duration": 0.0826,
      "velocity": 108,
      "chip": "ym2612"
    },
    {
      "channel": 2,
      "note": 71,
      "start": 6.1903,
      "duration": 0.1478,
      "velocity": 120,
      "chip": "ym2612"
    },
    {
      "channel": 3,
      "note": 23,
      "start": 6.1909,
      "duration": 0.1646,
      "velocity": 124,
      "chip": "ym2612"
    },
    {
      "channel": 4,
      "note": 37,
      "start": 6.1916,
      "duration": 0.0817,
      "velocity": 108,
      "chip": "ym2612"
    },
    {
      "channel": 5,
      "note": 37,
      "start": 6.2741,
      "duration": 0.0826,
      "velocity": 108,
      "chip": "ym2612"
    },
    {
      "channel": 2,
      "note": 71,
      "start": 6.3392,
      "duration": 0.1314,
      "velocity": 120,
      "chip": "ym2612"
    },
    {
      "channel": 4,
      "note": 35,
      "start": 6.3404,
      "duration": 0.0819,
      "velocity": 108,
      "chip": "ym2612"
    },
    {
      "channel": 5,
      "note": 35,
      "start": 6.4065,
      "duration": 0.0826,
      "velocity": 108,
      "chip": "ym2612"
    },
    {
      "channel": 2,
      "note": 71,
      "start": 6.4716,
      "duration": 0.1479,
      "velocity": 120,
      "chip": "ym2612"
    },
    {
      "channel": 3,
      "note": 23,
      "start": 6.4723,
      "duration": 0.1646,
      "velocity": 124,
      "chip": "ym2612"
    },
    {
      "channel": 4,
      "note": 38,
      "start": 6.473,
      "duration": 0.0817,
      "velocity": 108,
      "chip": "ym2612"
    },
    {
      "channel": 5,
      "note": 38,
      "start": 6.5554,
      "duration": 0.0826,
      "velocity": 108,
      "chip": "ym2612"
    },
    {
      "channel": 2,
      "note": 71,
      "start": 6.6206,
      "duration": 0.1315,
      "velocity": 120,
      "chip": "ym2612"
    },
    {
      "channel": 4,
      "note": 47,
      "start": 6.6218,
      "duration": 0.0819,
      "velocity": 108,
      "chip": "ym2612"
    },
    {
      "channel": 5,
      "note": 47,
      "start": 6.6878,
      "duration": 0.0826,
      "velocity": 108,
      "chip": "ym2612"
    },
    {
      "channel": 1,
      "note": 28,
      "start": 6.752,
      "duration": 2.2507,
      "velocity": 108,
      "chip": "ym2612"
    },
    {
      "channel": 2,
      "note": 71,
      "start": 6.7532,
      "duration": 0.1477,
      "velocity": 120,
      "chip": "ym2612"
    },
    {
      "channel": 3,
      "note": 23,
      "start": 6.7539,
      "duration": 0.1644,
      "velocity": 124,
      "chip": "ym2612"
    },
    {
      "channel": 4,
      "note": 35,
      "start": 6.7546,
      "duration": 0.0815,
      "velocity": 108,
      "chip": "ym2612"
    },
    {
      "channel": 5,
      "note": 35,
      "start": 6.8368,
      "duration": 0.0826,
      "velocity": 108,
      "chip": "ym2612"
    },
    {
      "channel": 2,
      "note": 71,
      "start": 6.902,
      "duration": 0.1314,
      "velocity": 120,
      "chip": "ym2612"
    },
    {
      "channel": 4,
      "note": 33,
      "start": 6.9032,
      "duration": 0.0819,
      "velocity": 108,
      "chip": "ym2612"
    },
    {
      "channel": 5,
      "note": 33,
      "start": 6.9693,
      "duration": 0.0826,
      "velocity": 108,
      "chip": "ym2612"
    },
    {
      "channel": 2,
      "note": 71,
      "start": 7.0344,
      "duration": 0.1479,
      "velocity": 120,
      "chip": "ym2612"
    },
    {
      "channel": 3,
      "note": 23,
      "start": 7.0351,
      "duration": 0.1646,
      "velocity": 124,
      "chip": "ym2612"
    },
    {
      "channel": 4,
      "note": 36,
      "start": 7.0358,
      "duration": 0.0817,
      "velocity": 108,
      "chip": "ym2612"
    },
    {
      "channel": 5,
      "note": 36,
      "start": 7.1182,
      "duration": 0.0826,
      "velocity": 108,
      "chip": "ym2612"
    },
    {
      "channel": 2,
      "note": 47,
      "start": 7.1834,
      "duration": 0.1313,
      "velocity": 124,
      "chip": "ym2612"
    },
    {
      "channel": 4,
      "note": 33,
      "start": 7.1846,
      "duration": 0.0819,
      "velocity": 108,
      "chip": "ym2612"
    },
    {
      "channel": 5,
      "note": 33,
      "start": 7.2506,
      "duration": 0.0826,
      "velocity": 108,
      "chip": "ym2612"
    },
    {
      "channel": 2,
      "note": 71,
      "start": 7.3158,
      "duration": 0.1479,
      "velocity": 120,
      "chip": "ym2612"
    },
    {
      "channel": 3,
      "note": 23,
      "start": 7.3164,
      "duration": 0.1646,
      "velocity": 124,
      "chip": "ym2612"
    },
    {
      "channel": 4,
      "note": 33,
      "start": 7.3171,
      "duration": 0.0817,
      "velocity": 108,
      "chip": "ym2612"
    },
    {
      "channel": 5,
      "note": 33,
      "start": 7.3996,
      "duration": 0.0826,
      "velocity": 108,
      "chip": "ym2612"
    },
    {
      "channel": 2,
      "note": 71,
      "start": 7.4647,
      "duration": 0.1314,
      "velocity": 120,
      "chip": "ym2612"
    },
    {
      "channel": 4,
      "note": 45,
      "start": 7.4659,
      "duration": 0.0819,
      "velocity": 108,
      "chip": "ym2612"
    },
    {
      "channel": 5,
      "note": 45,
      "start": 7.532,
      "duration": 0.0826,
      "velocity": 108,
      "chip": "ym2612"
    },
    {
      "channel": 2,
      "note": 71,
      "start": 7.5972,
      "duration": 0.1479,
      "velocity": 120,
      "chip": "ym2612"
    },
    {
      "channel": 3,
      "note": 23,
      "start": 7.5979,
      "duration": 0.1646,
      "velocity": 124,
      "chip": "ym2612"
    },
    {
      "channel": 4,
      "note": 36,
      "start": 7.5986,
      "duration": 0.0817,
      "velocity": 108,
      "chip": "ym2612"
    },
    {
      "channel": 5,
      "note": 36,
      "start": 7.681,
      "duration": 0.0826,
      "velocity": 108,
      "chip": "ym2612"
    },
    {
      "channel": 2,
      "note": 71,
      "start": 7.7461,
      "duration": 0.1314,
      "velocity": 120,
      "chip": "ym2612"
    },
    {
      "channel": 4,
      "note": 33,
      "start": 7.7474,
      "duration": 0.0819,
      "velocity": 108,
      "chip": "ym2612"
    },
    {
      "channel": 5,
      "note": 33,
      "start": 7.8134,
      "duration": 0.0826,
      "velocity": 108,
      "chip": "ym2612"
    },
    {
      "channel": 2,
      "note": 71,
      "start": 7.8786,
      "duration": 0.1479,
      "velocity": 120,
      "chip": "ym2612"
    },
    {
      "channel": 3,
      "note": 23,
      "start": 7.8792,
      "duration": 0.1646,
      "velocity": 124,
      "chip": "ym2612"
    },
    {
      "channel": 4,
      "note": 38,
      "start": 7.8799,
      "duration": 0.0817,
      "velocity": 108,
      "chip": "ym2612"
    },
    {
      "channel": 5,
      "note": 38,
      "start": 7.9624,
      "duration": 0.0826,
      "velocity": 108,
      "chip": "ym2612"
    },
    {
      "channel": 2,
      "note": 71,
      "start": 8.0275,
      "duration": 0.1314,
      "velocity": 120,
      "chip": "ym2612"
    },
    {
      "channel": 4,
      "note": 33,
      "start": 8.0287,
      "duration": 0.0819,
      "velocity": 108,
      "chip": "ym2612"
    },
    {
      "channel": 5,
      "note": 33,
      "start": 8.0948,
      "duration": 0.0826,
      "velocity": 108,
      "chip": "ym2612"
    },
    {
      "channel": 2,
      "note": 71,
      "start": 8.16,
      "duration": 0.1479,
      "velocity": 120,
      "chip": "ym2612"
    },
    {
      "channel": 3,
      "note": 23,
      "start": 8.1607,
      "duration": 0.1646,
      "velocity": 124,
      "chip": "ym2612"
    },
    {
      "channel": 4,
      "note": 36,
      "start": 8.1614,
      "duration": 0.0817,
      "velocity": 108,
      "chip": "ym2612"
    },
    {
      "channel": 5,
      "note": 36,
      "start": 8.2438,
      "duration": 0.0826,
      "velocity": 108,
      "chip": "ym2612"
    },
    {
      "channel": 2,
      "note": 71,
      "start": 8.3089,
      "duration": 0.1314,
      "velocity": 120,
      "chip": "ym2612"
    },
    {
      "channel": 4,
      "note": 33,
      "start": 8.3102,
      "duration": 0.0819,
      "velocity": 108,
      "chip": "ym2612"
    },
    {
      "channel": 5,
      "note": 33,
      "start": 8.3762,
      "duration": 0.0827,
      "velocity": 108,
      "chip": "ym2612"
    },
    {
      "channel": 2,
      "note": 71,
      "start": 8.4415,
      "duration": 0.1478,
      "velocity": 120,
      "chip": "ym2612"
    },
    {
      "channel": 3,
      "note": 23,
      "start": 8.4421,
      "duration": 0.1646,
      "velocity": 124,
      "chip": "ym2612"
    },
    {
      "channel": 4,
      "note": 35,
      "start": 8.4428,
      "duration": 0.0817,
      "velocity": 108,
      "chip": "ym2612"
    },
    {
      "channel": 5,
      "note": 35,
      "start": 8.5252,
      "duration": 0.0827,
      "velocity": 108,
      "chip": "ym2612"
    },
    {
      "channel": 2,
      "note": 71,
      "start": 8.5904,
      "duration": 0.1313,
      "velocity": 120,
      "chip": "ym2612"
    },
    {
      "channel": 4,
      "note": 45,
      "start": 8.5916,
      "duration": 0.082,
      "velocity": 108,
      "chip": "ym2612"
    },
    {
      "channel": 5,
      "note": 45,
      "start": 8.6576,
      "duration": 0.0827,
      "velocity": 108,
      "chip": "ym2612"
    },
    {
      "channel": 2,
      "note": 71,
      "start": 8.7227,
      "duration": 0.1479,
      "velocity": 120,
      "chip": "ym2612"
    },
    {
      "channel": 3,
      "note": 23,
      "start": 8.7234,
      "duration": 0.1646,
      "velocity": 124,
      "chip": "ym2612"
    },
    {
      "channel": 4,
      "note": 36,
      "start": 8.7242,
      "duration": 0.0816,
      "velocity": 108,
      "chip": "ym2612"
    },
    {
      "channel": 5,
      "note": 36,
      "start": 8.8066,
      "duration": 0.0826,
      "velocity": 108,
      "chip": "ym2612"
    },
    {
      "channel": 2,
      "note": 71,
      "start": 8.8717,
      "duration": 0.1322,
      "velocity": 120,
      "chip": "ym2612"
    },
    {
      "channel": 4,
      "note": 33,
      "start": 8.8729,
      "duration": 0.0819,
      "velocity": 108,
      "chip": "ym2612"
    },
    {
      "channel": 5,
      "note": 33,
      "start": 8.939,
      "duration": 0.0681,
      "velocity": 108,
      "chip": "ym2612"
    },
    {
      "channel": 0,
      "note": 23,
      "start": 9.0026,
      "duration": 4.5018,
      "velocity": 122,
      "chip": "ym2612"
    },
    {
      "channel": 1,
      "note": 47,
      "start": 9.0038,
      "duration": 0.1477,
      "velocity": 119,
      "chip": "ym2612"
    },
    {
      "channel": 2,
      "note": 71,
      "start": 9.005,
      "duration": 0.1477,
      "velocity": 120,
      "chip": "ym2612"
    },
    {
      "channel": 3,
      "note": 23,
      "start": 9.0056,
      "duration": 0.1484,
      "velocity": 124,
      "chip": "ym2612"
    },
    {
      "channel": 4,
      "note": 7,
      "start": 9.007,
      "duration": 2.2499,
      "velocity": 1,
      "chip": "ym2612"
    },
    {
      "channel": 5,
      "note": 7,
      "start": 9.0082,
      "duration": 2.2493,
      "velocity": 1,
      "chip": "ym2612"
    },
    {
      "channel": 1,
      "note": 26,
      "start": 9.1526,
      "duration": 0.1314,
      "velocity": 125,
      "chip": "ym2612"
    },
    {
      "channel": 2,
      "note": 71,
      "start": 9.1538,
      "duration": 0.1314,
      "velocity": 120,
      "chip": "ym2612"
    },
    {
      "channel": 3,
      "note": 35,
      "start": 9.1544,
      "duration": 0.132,
      "velocity": 124,
      "chip": "ym2612"
    },
    {
      "channel": 1,
      "note": 46,
      "start": 9.285,
      "duration": 0.1479,
      "velocity": 114,
      "chip": "ym2612"
    },
    {
      "channel": 2,
      "note": 71,
      "start": 9.2862,
      "duration": 0.1479,
      "velocity": 120,
      "chip": "ym2612"
    },
    {
      "channel": 3,
      "note": 23,
      "start": 9.2869,
      "duration": 0.1485,
      "velocity": 124,
      "chip": "ym2612"
    },
    {
      "channel": 1,
      "note": 71,
      "start": 9.434,
      "duration": 0.1313,
      "velocity": 120,
      "chip": "ym2612"
    },
    {
      "channel": 2,
      "note": 47,
      "start": 9.4352,
      "duration": 0.1314,
      "velocity": 124,
      "chip": "ym2612"
    },
    {
      "channel": 3,
      "note": 23,
      "start": 9.4359,
      "duration": 0.1319,
      "velocity": 124,
      "chip": "ym2612"
    },
    {
      "channel": 1,
      "note": 72,
      "start": 9.5665,
      "duration": 0.1478,
      "velocity": 113,
      "chip": "ym2612"
    },
    {
      "channel": 2,
      "note": 71,
      "start": 9.5677,
      "duration": 0.1478,
      "velocity": 120,
      "chip": "ym2612"
    },
    {
      "channel": 3,
      "note": 35,
      "start": 9.5684,
      "duration": 0.1484,
      "velocity": 124,
      "chip": "ym2612"
    },
    {
      "channel": 1,
      "note": 38,
      "start": 9.7154,
      "duration": 0.1314,
      "velocity": 125,
      "chip": "ym2612"
    },
    {
      "channel": 2,
      "note": 71,
      "start": 9.7166,
      "duration": 0.1314,
      "velocity": 120,
      "chip": "ym2612"
    },
    {
      "channel": 3,
      "note": 23,
      "start": 9.7173,
      "duration": 0.1319,
      "velocity": 124,
      "chip": "ym2612"
    },
    {
      "channel": 1,
      "note": 46,
      "start": 9.8478,
      "duration": 0.1479,
      "velocity": 114,
      "chip": "ym2612"
    },
    {
      "channel": 2,
      "note": 71,
      "start": 9.849,
      "duration": 0.1479,
      "velocity": 120,
      "chip": "ym2612"
    },
    {
      "channel": 3,
      "note": 23,
      "start": 9.8497,
      "duration": 0.1485,
      "velocity": 124,
      "chip": "ym2612"
    },
    {
      "channel": 1,
      "note": 26,
      "start": 9.9968,
      "duration": 0.1314,
      "velocity": 125,
      "chip": "ym2612"
    },
    {
      "channel": 2,
      "note": 71,
      "start": 9.998,
      "duration": 0.1314,
      "velocity": 120,
      "chip": "ym2612"
    },
    {
      "channel": 3,
      "note": 35,
      "start": 9.9986,
      "duration": 0.1319,
      "velocity": 124,
      "chip": "ym2612"
    },
    {
      "channel": 1,
      "note": 47,
      "start": 10.1292,
      "duration": 0.1479,
      "velocity": 119,
      "chip": "ym2612"
    },
    {
      "channel": 2,
      "note": 71,
      "start": 10.1304,
      "duration": 0.148,
      "velocity": 120,
      "chip": "ym2612"
    },
    {
      "channel": 3,
      "note": 23,
      "start": 10.1311,
      "duration": 0.1485,
      "velocity": 124,
      "chip": "ym2612"
    },
    {
      "channel": 1,
      "note": 72,
      "start": 10.2782,
      "duration": 0.1313,
      "velocity": 113,
      "chip": "ym2612"
    },
    {
      "channel": 2,
      "note": 71,
      "start": 10.2794,
      "duration": 0.1313,
      "velocity": 120,
      "chip": "ym2612"
    },
    {
      "channel": 3,
      "note": 35,
      "start": 10.2801,
      "duration": 0.1319,
      "velocity": 124,
      "chip": "ym2612"
    },
    {
      "channel": 1,
      "note": 46,
      "start": 10.4106,
      "duration": 0.1479,
      "velocity": 114,
      "chip": "ym2612"
    },
    {
      "channel": 2,
      "note": 71,
      "start": 10.4118,
      "duration": 0.1479,
      "velocity": 120,
      "chip": "ym2612"
    },
    {
      "channel": 3,
      "note": 23,
      "start": 10.4124,
      "duration": 0.1485,
      "velocity": 124,
      "chip": "ym2612"
    },
    {
      "channel": 1,
      "note": 47,
      "start": 10.5596,
      "duration": 0.1313,
      "velocity": 119,
      "chip": "ym2612"
    },
    {
      "channel": 2,
      "note": 71,
      "start": 10.5608,
      "duration": 0.1314,
      "velocity": 120,
      "chip": "ym2612"
    },
    {
      "channel": 3,
      "note": 23,
      "start": 10.5614,
      "duration": 0.132,
      "velocity": 124,
      "chip": "ym2612"
    },
    {
      "channel": 1,
      "note": 72,
      "start": 10.6921,
      "duration": 0.1478,
      "velocity": 113,
      "chip": "ym2612"
    },
    {
      "channel": 2,
      "note": 71,
      "start": 10.6933,
      "duration": 0.1478,
      "velocity": 120,
      "chip": "ym2612"
    },
    {
      "channel": 3,
      "note": 35,
      "start": 10.6939,
      "duration": 0.1485,
      "velocity": 124,
      "chip": "ym2612"
    },
    {
      "channel": 1,
      "note": 46,
      "start": 10.841,
      "duration": 0.1313,
      "velocity": 114,
      "chip": "ym2612"
    },
    {
      "channel": 2,
      "note": 71,
      "start": 10.8422,
      "duration": 0.1314,
      "velocity": 120,
      "chip": "ym2612"
    },
    {
      "channel": 3,
      "note": 23,
      "start": 10.8429,
      "duration": 0.1319,
      "velocity": 124,
      "chip": "ym2612"
    },
    {
      "channel": 1,
      "note": 47,
      "start": 10.9734,
      "duration": 0.1478,
      "velocity": 119,
      "chip": "ym2612"
    },
    {
      "channel": 2,
      "note": 71,
      "start": 10.9746,
      "duration": 0.1478,
      "velocity": 120,
      "chip": "ym2612"
    },
    {
      "channel": 3,
      "note": 23,
      "start": 10.9753,
      "duration": 0.1485,
      "velocity": 124,
      "chip": "ym2612"
    },
    {
      "channel": 1,
      "note": 38,
      "start": 11.1223,
      "duration": 0.0652,
      "velocity": 125,
      "chip": "ym2612"
    },
    {
      "channel": 2,
      "note": 71,
      "start": 11.1236,
      "duration": 0.1313,
      "velocity": 120,
      "chip": "ym2612"
    },
    {
      "channel": 3,
      "note": 35,
      "start": 11.1243,
      "duration": 0.1319,
      "velocity": 124,
      "chip": "ym2612"
    },
    {
      "channel": 1,
      "note": 38,
      "start": 11.188,
      "duration": 0.0657,
      "velocity": 119,
      "chip": "ym2612"
    },
    {
      "channel": 1,
      "note": 47,
      "start": 11.2547,
      "duration": 0.1479,
      "velocity": 119,
      "chip": "ym2612"
    },
    {
      "channel": 2,
      "note": 71,
      "start": 11.2559,
      "duration": 0.1479,
      "velocity": 120,
      "chip": "ym2612"
    },
    {
      "channel": 3,
      "note": 23,
      "start": 11.2566,
      "duration": 0.1485,
      "velocity": 124,
      "chip": "ym2612"
    },
    {
      "channel": 4,
      "note": 7,
      "start": 11.2573,
      "duration": 2.2509,
      "velocity": 1,
      "chip": "ym2612"
    },
    {
      "channel": 5,
      "note": 7,
      "start": 11.2579,
      "duration": 2.2509,
      "velocity": 1,
      "chip": "ym2612"
    },
    {
      "channel": 1,
      "note": 26,
      "start": 11.4037,
      "duration": 0.1314,
      "velocity": 125,
      "chip": "ym2612"
    },
    {
      "channel": 2,
      "note": 71,
      "start": 11.4049,
      "duration": 0.1314,
      "velocity": 120,
      "chip": "ym2612"
    },
    {
      "channel": 3,
      "note": 35,
      "start": 11.4056,
      "duration": 0.132,
      "velocity": 124,
      "chip": "ym2612"
    },
    {
      "channel": 1,
      "note": 46,
      "start": 11.5362,
      "duration": 0.1479,
      "velocity": 114,
      "chip": "ym2612"
    },
    {
      "channel": 2,
      "note": 71,
      "start": 11.5374,
      "duration": 0.1479,
      "velocity": 120,
      "chip": "ym2612"
    },
    {
      "channel": 3,
      "note": 23,
      "start": 11.538,
      "duration": 0.1485,
      "velocity": 124,
      "chip": "ym2612"
    },
    {
      "channel": 1,
      "note": 71,
      "start": 11.6851,
      "duration": 0.1313,
      "velocity": 120,
      "chip": "ym2612"
    },
    {
      "channel": 2,
      "note": 47,
      "start": 11.6863,
      "duration": 0.1314,
      "velocity": 124,
      "chip": "ym2612"
    },
    {
      "channel": 3,
      "note": 23,
      "start": 11.687,
      "duration": 0.132,
      "velocity": 124,
      "chip": "ym2612"
    },
    {
      "channel": 1,
      "note": 72,
      "start": 11.8177,
      "duration": 0.1478,
      "velocity": 113,
      "chip": "ym2612"
    },
    {
      "channel": 2,
      "note": 71,
      "start": 11.8189,
      "duration": 0.1478,
      "velocity": 120,
      "chip": "ym2612"
    },
    {
      "channel": 3,
      "note": 35,
      "start": 11.8195,
      "duration": 0.1484,
      "velocity": 124,
      "chip": "ym2612"
    },
    {
      "channel": 1,
      "note": 38,
      "start": 11.9665,
      "duration": 0.1314,
      "velocity": 125,
      "chip": "ym2612"
    },
    {
      "channel": 2,
      "note": 71,
      "start": 11.9677,
      "duration": 0.1314,
      "velocity": 120,
      "chip": "ym2612"
    },
    {
      "channel": 3,
      "note": 23,
      "start": 11.9684,
      "duration": 0.132,
      "velocity": 124,
      "chip": "ym2612"
    },
    {
      "channel": 1,
      "note": 46,
      "start": 12.099,
      "duration": 0.1479,
      "velocity": 114,
      "chip": "ym2612"
    },
    {
      "channel": 2,
      "note": 71,
      "start": 12.1002,
      "duration": 0.1479,
      "velocity": 120,
      "chip": "ym2612"
    },
    {
      "channel": 3,
      "note": 23,
      "start": 12.1008,
      "duration": 0.1485,
      "velocity": 124,
      "chip": "ym2612"
    },
    {
      "channel": 1,
      "note": 26,
      "start": 12.2479,
      "duration": 0.1314,
      "velocity": 125,
      "chip": "ym2612"
    },
    {
      "channel": 2,
      "note": 71,
      "start": 12.2491,
      "duration": 0.1314,
      "velocity": 120,
      "chip": "ym2612"
    },
    {
      "channel": 3,
      "note": 35,
      "start": 12.2498,
      "duration": 0.132,
      "velocity": 124,
      "chip": "ym2612"
    },
    {
      "channel": 1,
      "note": 47,
      "start": 12.3803,
      "duration": 0.1479,
      "velocity": 119,
      "chip": "ym2612"
    },
    {
      "channel": 2,
      "note": 71,
      "start": 12.3815,
      "duration": 0.148,
      "velocity": 120,
      "chip": "ym2612"
    },
    {
      "channel": 3,
      "note": 23,
      "start": 12.3822,
      "duration": 0.1486,
      "velocity": 124,
      "chip": "ym2612"
    },
    {
      "channel": 1,
      "note": 72,
      "start": 12.5294,
      "duration": 0.1313,
      "velocity": 113,
      "chip": "ym2612"
    },
    {
      "channel": 2,
      "note": 71,
      "start": 12.5306,
      "duration": 0.1313,
      "velocity": 120,
      "chip": "ym2612"
    },
    {
      "channel": 3,
      "note": 35,
      "start": 12.5313,
      "duration": 0.1319,
      "velocity": 124,
      "chip": "ym2612"
    },
    {
      "channel": 1,
      "note": 46,
      "start": 12.6617,
      "duration": 0.1479,
      "velocity": 114,
      "chip": "ym2612"
    },
    {
      "channel": 2,
      "note": 71,
      "start": 12.6629,
      "duration": 0.1479,
      "velocity": 120,
      "chip": "ym2612"
    },
    {
      "channel": 3,
      "note": 23,
      "start": 12.6636,
      "duration": 0.1485,
      "velocity": 124,
      "chip": "ym2612"
    },
    {
      "channel": 1,
      "note": 47,
      "start": 12.8107,
      "duration": 0.1314,
      "velocity": 119,
      "chip": "ym2612"
    },
    {
      "channel": 2,
      "note": 71,
      "start": 12.8119,
      "duration": 0.1315,
      "velocity": 120,
      "chip": "ym2612"
    },
    {
      "channel": 3,
      "note": 23,
      "start": 12.8126,
      "duration": 0.132,
      "velocity": 124,
      "chip": "ym2612"
    },
    {
      "channel": 1,
      "note": 72,
      "start": 12.9432,
      "duration": 0.1478,
      "velocity": 113,
      "chip": "ym2612"
    },
    {
      "channel": 2,
      "note": 71,
      "start": 12.9444,
      "duration": 0.1478,
      "velocity": 120,
      "chip": "ym2612"
    },
    {
      "channel": 3,
      "note": 35,
      "start": 12.9451,
      "duration": 0.1484,
      "velocity": 124,
      "chip": "ym2612"
    },
    {
      "channel": 1,
      "note": 46,
      "start": 13.0921,
      "duration": 0.1314,
      "velocity": 114,
      "chip": "ym2612"
    },
    {
      "channel": 2,
      "note": 71,
      "start": 13.0933,
      "duration": 0.1314,
      "velocity": 120,
      "chip": "ym2612"
    },
    {
      "channel": 3,
      "note": 23,
      "start": 13.094,
      "duration": 0.1319,
      "velocity": 124,
      "chip": "ym2612"
    },
    {
      "channel": 1,
      "note": 47,
      "start": 13.2245,
      "duration": 0.1479,
      "velocity": 119,
      "chip": "ym2612"
    },
    {
      "channel": 2,
      "note": 71,
      "start": 13.2257,
      "duration": 0.1479,
      "velocity": 120,
      "chip": "ym2612"
    },
    {
      "channel": 3,
      "note": 35,
      "start": 13.2264,
      "duration": 0.1485,
      "velocity": 124,
      "chip": "ym2612"
    },
    {
      "channel": 1,
      "note": 38,
      "start": 13.3735,
      "duration": 0.0651,
      "velocity": 125,
      "chip": "ym2612"
    },
    {
      "channel": 2,
      "note": 71,
      "start": 13.3747,
      "duration": 0.1315,
      "velocity": 120,
      "chip": "ym2612"
    },
    {
      "channel": 3,
      "note": 23,
      "start": 13.3754,
      "duration": 0.1321,
      "velocity": 124,
      "chip": "ym2612"
    },
    {
      "channel": 1,
      "note": 38,
      "start": 13.4391,
      "duration": 0.0659,
      "velocity": 119,
      "chip": "ym2612"
    },
    {
      "channel": 0,
      "note": 23,
      "start": 13.5049,
      "duration": 4.5018,
      "velocity": 122,
      "chip": "ym2612"
    },
    {
      "channel": 1,
      "note": 47,
      "start": 13.5061,
      "duration": 0.1477,
      "velocity": 119,
      "chip": "ym2612"
    },
    {
      "channel": 2,
      "note": 71,
      "start": 13.5073,
      "duration": 0.1477,
      "velocity": 120,
      "chip": "ym2612"
    },
    {
      "channel": 3,
      "note": 23,
      "start": 13.508,
      "duration": 0.1483,
      "velocity": 124,
      "chip": "ym2612"
    },
    {
      "channel": 4,
      "note": 7,
      "start": 13.5086,
      "duration": 2.2505,
      "velocity": 1,
      "chip": "ym2612"
    },
    {
      "channel": 5,
      "note": 7,
      "start": 13.5093,
      "duration": 2.2505,
      "velocity": 1,
      "chip": "ym2612"
    },
    {
      "channel": 1,
      "note": 26,
      "start": 13.6549,
      "duration": 0.1314,
      "velocity": 125,
      "chip": "ym2612"
    },
    {
      "channel": 2,
      "note": 71,
      "start": 13.6561,
      "duration": 0.1314,
      "velocity": 120,
      "chip": "ym2612"
    },
    {
      "channel": 3,
      "note": 35,
      "start": 13.6568,
      "duration": 0.1319,
      "velocity": 124,
      "chip": "ym2612"
    },
    {
      "channel": 1,
      "note": 46,
      "start": 13.7873,
      "duration": 0.1479,
      "velocity": 114,
      "chip": "ym2612"
    },
    {
      "channel": 2,
      "note": 71,
      "start": 13.7885,
      "duration": 0.1479,
      "velocity": 120,
      "chip": "ym2612"
    },
    {
      "channel": 3,
      "note": 23,
      "start": 13.7892,
      "duration": 0.1485,
      "velocity": 124,
      "chip": "ym2612"
    },
    {
      "channel": 1,
      "note": 71,
      "start": 13.9363,
      "duration": 0.1313,
      "velocity": 120,
      "chip": "ym2612"
    },
    {
      "channel": 2,
      "note": 47,
      "start": 13.9375,
      "duration": 0.1314,
      "velocity": 124,
      "chip": "ym2612"
    },
    {
      "channel": 3,
      "note": 23,
      "start": 13.9381,
      "duration": 0.132,
      "velocity": 124,
      "chip": "ym2612"
    },
    {
      "channel": 1,
      "note": 72,
      "start": 14.0688,
      "duration": 0.1478,
      "velocity": 113,
      "chip": "ym2612"
    },
    {
      "channel": 2,
      "note": 71,
      "start": 14.07,
      "duration": 0.1478,
      "velocity": 120,
      "chip": "ym2612"
    },
    {
      "channel": 3,
      "note": 35,
      "start": 14.0707,
      "duration": 0.1484,
      "velocity": 124,
      "chip": "ym2612"
    },
    {
      "channel": 1,
      "note": 38,
      "start": 14.2177,
      "duration": 0.1314,
      "velocity": 125,
      "chip": "ym2612"
    },
    {
      "channel": 2,
      "note": 71,
      "start": 14.2189,
      "duration": 0.1314,
      "velocity": 120,
      "chip": "ym2612"
    },
    {
      "channel": 3,
      "note": 23,
      "start": 14.2195,
      "duration": 0.132,
      "velocity": 124,
      "chip": "ym2612"
    },
    {
      "channel": 1,
      "note": 46,
      "start": 14.3501,
      "duration": 0.1479,
      "velocity": 114,
      "chip": "ym2612"
    },
    {
      "channel": 2,
      "note": 71,
      "start": 14.3513,
      "duration": 0.1479,
      "velocity": 120,
      "chip": "ym2612"
    },
    {
      "channel": 3,
      "note": 23,
      "start": 14.352,
      "duration": 0.1485,
      "velocity": 124,
      "chip": "ym2612"
    },
    {
      "channel": 1,
      "note": 26,
      "start": 14.499,
      "duration": 0.1314,
      "velocity": 125,
      "chip": "ym2612"
    },
    {
      "channel": 2,
      "note": 71,
      "start": 14.5002,
      "duration": 0.1314,
      "velocity": 120,
      "chip": "ym2612"
    },
    {
      "channel": 3,
      "note": 35,
      "start": 14.5009,
      "duration": 0.1319,
      "velocity": 124,
      "chip": "ym2612"
    },
    {
      "channel": 1,
      "note": 47,
      "start": 14.6315,
      "duration": 0.1479,
      "velocity": 119,
      "chip": "ym2612"
    },
    {
      "channel": 2,
      "note": 71,
      "start": 14.6327,
      "duration": 0.148,
      "velocity": 120,
      "chip": "ym2612"
    },
    {
      "channel": 3,
      "note": 23,
      "start": 14.6333,
      "duration": 0.1486,
      "velocity": 124,
      "chip": "ym2612"
    },
    {
      "channel": 1,
      "note": 72,
      "start": 14.7805,
      "duration": 0.1313,
      "velocity": 113,
      "chip": "ym2612"
    },
    {
      "channel": 2,
      "note": 71,
      "start": 14.7817,
      "duration": 0.1313,
      "velocity": 120,
      "chip": "ym2612"
    },
    {
      "channel": 3,
      "note": 35,
      "start": 14.7824,
      "duration": 0.1319,
      "velocity": 124,
      "chip": "ym2612"
    },
    {
      "channel": 1,
      "note": 46,
      "start": 14.9129,
      "duration": 0.1479,
      "velocity": 114,
      "chip": "ym2612"
    },
    {
      "channel": 2,
      "note": 71,
      "start": 14.9141,
      "duration": 0.1479,
      "velocity": 120,
      "chip": "ym2612"
    },
    {
      "channel": 3,
      "note": 23,
      "start": 14.9147,
      "duration": 0.1485,
      "velocity": 124,
      "chip": "ym2612"
    },
    {
      "channel": 1,
      "note": 47,
      "start": 15.0618,
      "duration": 0.1314,
      "velocity": 119,
      "chip": "ym2612"
    },
    {
      "channel": 2,
      "note": 71,
      "start": 15.063,
      "duration": 0.1314,
      "velocity": 120,
      "chip": "ym2612"
    },
    {
      "channel": 3,
      "note": 23,
      "start": 15.0637,
      "duration": 0.132,
      "velocity": 124,
      "chip": "ym2612"
    },
    {
      "channel": 1,
      "note": 72,
      "start": 15.1943,
      "duration": 0.1478,
      "velocity": 113,
      "chip": "ym2612"
    },
    {
      "channel": 2,
      "note": 71,
      "start": 15.1955,
      "duration": 0.1478,
      "velocity": 120,
      "chip": "ym2612"
    },
    {
      "channel": 3,
      "note": 35,
      "start": 15.1962,
      "duration": 0.1484,
      "velocity": 124,
      "chip": "ym2612"
    },
    {
      "channel": 1,
      "note": 46,
      "start": 15.3432,
      "duration": 0.1314,
      "velocity": 114,
      "chip": "ym2612"
    },
    {
      "channel": 2,
      "note": 71,
      "start": 15.3444,
      "duration": 0.1314,
      "velocity": 120,
      "chip": "ym2612"
    },
    {
      "channel": 3,
      "note": 23,
      "start": 15.3451,
      "duration": 0.1319,
      "velocity": 124,
      "chip": "ym2612"
    },
    {
      "channel": 1,
      "note": 47,
      "start": 15.4757,
      "duration": 0.1479,
      "velocity": 119,
      "chip": "ym2612"
    },
    {
      "channel": 2,
      "note": 71,
      "start": 15.4769,
      "duration": 0.1479,
      "velocity": 120,
      "chip": "ym2612"
    },
    {
      "channel": 3,
      "note": 23,
      "start": 15.4775,
      "duration": 0.1485,
      "velocity": 124,
      "chip": "ym2612"
    },
    {
      "channel": 1,
      "note": 38,
      "start": 15.6246,
      "duration": 0.0652,
      "velocity": 125,
      "chip": "ym2612"
    },
    {
      "channel": 2,
      "note": 71,
      "start": 15.6259,
      "duration": 0.1314,
      "velocity": 120,
      "chip": "ym2612"
    },
    {
      "channel": 3,
      "note": 35,
      "start": 15.6265,
      "duration": 0.1319,
      "velocity": 124,
      "chip": "ym2612"
    },
    {
      "channel": 1,
      "note": 38,
      "start": 15.6903,
      "duration": 0.0656,
      "velocity": 119,
      "chip": "ym2612"
    },
    {
      "channel": 1,
      "note": 47,
      "start": 15.7571,
      "duration": 0.1478,
      "velocity": 119,
      "chip": "ym2612"
    },
    {
      "channel": 2,
      "note": 71,
      "start": 15.7583,
      "duration": 0.1478,
      "velocity": 120,
      "chip": "ym2612"
    },
    {
      "channel": 3,
      "note": 23,
      "start": 15.7589,
      "duration": 0.1485,
      "velocity": 124,
      "chip": "ym2612"
    },
    {
      "channel": 4,
      "note": 7,
      "start": 15.7596,
      "duration": 2.2508,
      "velocity": 1,
      "chip": "ym2612"
    },
    {
      "channel": 5,
      "note": 7,
      "start": 15.7602,
      "duration": 2.2515,
      "velocity": 1,
      "chip": "ym2612"
    },
    {
      "channel": 1,
      "note": 26,
      "start": 15.906,
      "duration": 0.1314,
      "velocity": 125,
      "chip": "ym2612"
    },
    {
      "channel": 2,
      "note": 71,
      "start": 15.9073,
      "duration": 0.1313,
      "velocity": 120,
      "chip": "ym2612"
    },
    {
      "channel": 3,
      "note": 35,
      "start": 15.9079,
      "duration": 0.132,
      "velocity": 124,
      "chip": "ym2612"
    },
    {
      "channel": 1,
      "note": 46,
      "start": 16.0385,
      "duration": 0.1479,
      "velocity": 114,
      "chip": "ym2612"
    },
    {
      "channel": 2,
      "note": 71,
      "start": 16.0397,
      "duration": 0.1479,
      "velocity": 120,
      "chip": "ym2612"
    },
    {
      "channel": 3,
      "note": 23,
      "start": 16.0404,
      "duration": 0.1485,
      "velocity": 124,
      "chip": "ym2612"
    },
    {
      "channel": 1,
      "note": 71,
      "start": 16.1874,
      "duration": 0.1313,
      "velocity": 120,
      "chip": "ym2612"
    },
    {
      "channel": 2,
      "note": 47,
      "start": 16.1886,
      "duration": 0.1314,
      "velocity": 124,
      "chip": "ym2612"
    },
    {
      "channel": 3,
      "note": 23,
      "start": 16.1893,
      "duration": 0.132,
      "velocity": 124,
      "chip": "ym2612"
    },
    {
      "channel": 1,
      "note": 72,
      "start": 16.3199,
      "duration": 0.1478,
      "velocity": 113,
      "chip": "ym2612"
    },
    {
      "channel": 2,
      "note": 71,
      "start": 16.3211,
      "duration": 0.1478,
      "velocity": 120,
      "chip": "ym2612"
    },
    {
      "channel": 3,
      "note": 35,
      "start": 16.3218,
      "duration": 0.1484,
      "velocity": 124,
      "chip": "ym2612"
    },
    {
      "channel": 1,
      "note": 38,
      "start": 16.4688,
      "duration": 0.1314,
      "velocity": 125,
      "chip": "ym2612"
    },
    {
      "channel": 2,
      "note": 71,
      "start": 16.47,
      "duration": 0.1314,
      "velocity": 120,
      "chip": "ym2612"
    },
    {
      "channel": 3,
      "note": 23,
      "start": 16.4707,
      "duration": 0.132,
      "velocity": 124,
      "chip": "ym2612"
    },
    {
      "channel": 1,
      "note": 46,
      "start": 16.6012,
      "duration": 0.1479,
      "velocity": 114,
      "chip": "ym2612"
    },
    {
      "channel": 2,
      "note": 71,
      "start": 16.6024,
      "duration": 0.1479,
      "velocity": 120,
      "chip": "ym2612"
    },
    {
      "channel": 3,
      "note": 23,
      "start": 16.6031,
      "duration": 0.1485,
      "velocity": 124,
      "chip": "ym2612"
    },
    {
      "channel": 1,
      "note": 26,
      "start": 16.7502,
      "duration": 0.1314,
      "velocity": 125,
      "chip": "ym2612"
    },
    {
      "channel": 2,
      "note": 71,
      "start": 16.7514,
      "duration": 0.1314,
      "velocity": 120,
      "chip": "ym2612"
    },
    {
      "channel": 3,
      "note": 35,
      "start": 16.7521,
      "duration": 0.132,
      "velocity": 124,
      "chip": "ym2612"
    },
    {
      "channel": 1,
      "note": 47,
      "start": 16.8826,
      "duration": 0.1479,
      "velocity": 119,
      "chip": "ym2612"
    },
    {
      "channel": 2,
      "note": 71,
      "start": 16.8838,
      "duration": 0.148,
      "velocity": 120,
      "chip": "ym2612"
    },
    {
      "channel": 3,
      "note": 23,
      "start": 16.8844,
      "duration": 0.1486,
      "velocity": 124,
      "chip": "ym2612"
    },
    {
      "channel": 1,
      "note": 72,
      "start": 17.0317,
      "duration": 0.1313,
      "velocity": 113,
      "chip": "ym2612"
    },
    {
      "channel": 2,
      "note": 71,
      "start": 17.0329,
      "duration": 0.1313,
      "velocity": 120,
      "chip": "ym2612"
    },
    {
      "channel": 3,
      "note": 35,
      "start": 17.0336,
      "duration": 0.1318,
      "velocity": 124,
      "chip": "ym2612"
    },
    {
      "channel": 1,
      "note": 46,
      "start": 17.164,
      "duration": 0.1479,
      "velocity": 114,
      "chip": "ym2612"
    },
    {
      "channel": 2,
      "note": 71,
      "start": 17.1652,
      "duration": 0.1479,
      "velocity": 120,
      "chip": "ym2612"
    },
    {
      "channel": 3,
      "note": 23,
      "start": 17.1659,
      "duration": 0.1485,
      "velocity": 124,
      "chip": "ym2612"
    },
    {
      "channel": 1,
      "note": 47,
      "start": 17.3129,
      "duration": 0.1314,
      "velocity": 119,
      "chip": "ym2612"
    },
    {
      "channel": 2,
      "note": 71,
      "start": 17.3141,
      "duration": 0.1314,
      "velocity": 120,
      "chip": "ym2612"
    },
    {
      "channel": 3,
      "note": 23,
      "start": 17.3149,
      "duration": 0.132,
      "velocity": 124,
      "chip": "ym2612"
    },
    {
      "channel": 1,
      "note": 72,
      "start": 17.4455,
      "duration": 0.1478,
      "velocity": 113,
      "chip": "ym2612"
    },
    {
      "channel": 2,
      "note": 71,
      "start": 17.4467,
      "duration": 0.1478,
      "velocity": 120,
      "chip": "ym2612"
    },
    {
      "channel": 3,
      "note": 35,
      "start": 17.4474,
      "duration": 0.1484,
      "velocity": 124,
      "chip": "ym2612"
    },
    {
      "channel": 1,
      "note": 46,
      "start": 17.5944,
      "duration": 0.1314,
      "velocity": 114,
      "chip": "ym2612"
    },
    {
      "channel": 2,
      "note": 71,
      "start": 17.5956,
      "duration": 0.1314,
      "velocity": 120,
      "chip": "ym2612"
    },
    {
      "channel": 3,
      "note": 23,
      "start": 17.5962,
      "duration": 0.132,
      "velocity": 124,
      "chip": "ym2612"
    },
    {
      "channel": 1,
      "note": 47,
      "start": 17.7268,
      "duration": 0.148,
      "velocity": 119,
      "chip": "ym2612"
    },
    {
      "channel": 2,
      "note": 71,
      "start": 17.728,
      "duration": 0.148,
      "velocity": 120,
      "chip": "ym2612"
    },
    {
      "channel": 3,
      "note": 35,
      "start": 17.7287,
      "duration": 0.1485,
      "velocity": 124,
      "chip": "ym2612"
    },
    {
      "channel": 1,
      "note": 38,
      "start": 17.8757,
      "duration": 0.0652,
      "velocity": 125,
      "chip": "ym2612"
    },
    {
      "channel": 2,
      "note": 71,
      "start": 17.8769,
      "duration": 0.1316,
      "velocity": 120,
      "chip": "ym2612"
    },
    {
      "channel": 3,
      "note": 23,
      "start": 17.8776,
      "duration": 0.1322,
      "velocity": 124,
      "chip": "ym2612"
    },
    {
      "channel": 1,
      "note": 38,
      "start": 17.9414,
      "duration": 0.066,
      "velocity": 119,
      "chip": "ym2612"
    },
    {
      "channel": 0,
      "note": 23,
      "start": 18.0072,
      "duration": 4.5017,
      "velocity": 122,
      "chip": "ym2612"
    },
    {
      "channel": 1,
      "note": 47,
      "start": 18.0084,
      "duration": 0.1476,
      "velocity": 119,
      "chip": "ym2612"
    },
    {
      "channel": 2,
      "note": 71,
      "start": 18.0096,
      "duration": 0.1477,
      "velocity": 122,
      "chip": "ym2612"
    },
    {
      "channel": 3,
      "note": 23,
      "start": 18.0103,
      "duration": 0.1477,
      "velocity": 124,
      "chip": "ym2612"
    },
    {
      "channel": 4,
      "note": 71,
      "start": 18.0115,
      "duration": 0.1471,
      "velocity": 120,
      "chip": "ym2612"
    },
    {
      "channel": 5,
      "note": 7,
      "start": 18.0122,
      "duration": 2.2497,
      "velocity": 1,
      "chip": "ym2612"
    },
    {
      "channel": 1,
      "note": 26,
      "start": 18.1572,
      "duration": 0.1313,
      "velocity": 125,
      "chip": "ym2612"
    },
    {
      "channel": 2,
      "note": 71,
      "start": 18.1579,
      "duration": 0.0819,
      "velocity": 122,
      "chip": "ym2612"
    },
    {
      "channel": 3,
      "note": 35,
      "start": 18.1585,
      "duration": 0.1319,
      "velocity": 124,
      "chip": "ym2612"
    },
    {
      "channel": 4,
      "note": 71,
      "start": 18.1597,
      "duration": 0.1314,
      "velocity": 120,
      "chip": "ym2612"
    },
    {
      "channel": 1,
      "note": 46,
      "start": 18.2896,
      "duration": 0.1479,
      "velocity": 114,
      "chip": "ym2612"
    },
    {
      "channel": 2,
      "note": 66,
      "start": 18.2903,
      "duration": 0.1484,
      "velocity": 122,
      "chip": "ym2612"
    },
    {
      "channel": 3,
      "note": 23,
      "start": 18.2909,
      "duration": 0.1484,
      "velocity": 124,
      "chip": "ym2612"
    },
    {
      "channel": 4,
      "note": 71,
      "start": 18.2922,
      "duration": 0.1478,
      "velocity": 120,
      "chip": "ym2612"
    },
    {
      "channel": 1,
      "note": 71,
      "start": 18.4386,
      "duration": 0.1313,
      "velocity": 120,
      "chip": "ym2612"
    },
    {
      "channel": 2,
      "note": 59,
      "start": 18.4392,
      "duration": 0.0818,
      "velocity": 123,
      "chip": "ym2612"
    },
    {
      "channel": 3,
      "note": 23,
      "start": 18.4399,
      "duration": 0.132,
      "velocity": 124,
      "chip": "ym2612"
    },
    {
      "channel": 4,
      "note": 47,
      "start": 18.4411,
      "duration": 0.1314,
      "velocity": 124,
      "chip": "ym2612"
    },
    {
      "channel": 1,
      "note": 72,
      "start": 18.571,
      "duration": 0.1478,
      "velocity": 113,
      "chip": "ym2612"
    },
    {
      "channel": 2,
      "note": 23,
      "start": 18.5717,
      "duration": 0.0984,
      "velocity": 123,
      "chip": "ym2612"
    },
    {
      "channel": 3,
      "note": 35,
      "start": 18.5724,
      "duration": 0.1484,
      "velocity": 124,
      "chip": "ym2612"
    },
    {
      "channel": 4,
      "note": 71,
      "start": 18.5736,
      "duration": 0.1478,
      "velocity": 120,
      "chip": "ym2612"
    },
    {
      "channel": 1,
      "note": 38,
      "start": 18.72,
      "duration": 0.1314,
      "velocity": 125,
      "chip": "ym2612"
    },
    {
      "channel": 2,
      "note": 35,
      "start": 18.7206,
      "duration": 0.0819,
      "velocity": 123,
      "chip": "ym2612"
    },
    {
      "channel": 3,
      "note": 23,
      "start": 18.7212,
      "duration": 0.1319,
      "velocity": 124,
      "chip": "ym2612"
    },
    {
      "channel": 4,
      "note": 71,
      "start": 18.7224,
      "duration": 0.1314,
      "velocity": 120,
      "chip": "ym2612"
    },
    {
      "channel": 1,
      "note": 46,
      "start": 18.8524,
      "duration": 0.1479,
      "velocity": 114,
      "chip": "ym2612"
    },
    {
      "channel": 2,
      "note": 59,
      "start": 18.853,
      "duration": 0.0984,
      "velocity": 123,
      "chip": "ym2612"
    },
    {
      "channel": 3,
      "note": 23,
      "start": 18.8537,
      "duration": 0.1483,
      "velocity": 124,
      "chip": "ym2612"
    },
    {
      "channel": 4,
      "note": 71,
      "start": 18.8549,
      "duration": 0.1477,
      "velocity": 120,
      "chip": "ym2612"
    },
    {
      "channel": 1,
      "note": 26,
      "start": 19.0013,
      "duration": 0.1314,
      "velocity": 125,
      "chip": "ym2612"
    },
    {
      "channel": 3,
      "note": 35,
      "start": 19.0024,
      "duration": 0.1327,
      "velocity": 124,
      "chip": "ym2612"
    },
    {
      "channel": 4,
      "note": 71,
      "start": 19.0037,
      "duration": 0.1321,
      "velocity": 120,
      "chip": "ym2612"
    },
    {
      "channel": 1,
      "note": 47,
      "start": 19.1337,
      "duration": 0.1479,
      "velocity": 119,
      "chip": "ym2612"
    },
    {
      "channel": 2,
      "note": 34,
      "start": 19.135,
      "duration": 0.148,
      "velocity": 64,
      "chip": "ym2612"
    },
    {
      "channel": 3,
      "note": 23,
      "start": 19.1357,
      "duration": 0.1485,
      "velocity": 124,
      "chip": "ym2612"
    },
    {
      "channel": 4,
      "note": 71,
      "start": 19.1369,
      "duration": 0.148,
      "velocity": 120,
      "chip": "ym2612"
    },
    {
      "channel": 1,
      "note": 72,
      "start": 19.2828,
      "duration": 0.1313,
      "velocity": 113,
      "chip": "ym2612"
    },
    {
      "channel": 2,
      "note": 59,
      "start": 19.2841,
      "duration": 0.0812,
      "velocity": 123,
      "chip": "ym2612"
    },
    {
      "channel": 3,
      "note": 35,
      "start": 19.2847,
      "duration": 0.1311,
      "velocity": 124,
      "chip": "ym2612"
    },
    {
      "channel": 4,
      "note": 71,
      "start": 19.2859,
      "duration": 0.1305,
      "velocity": 120,
      "chip": "ym2612"
    },
    {
      "channel": 1,
      "note": 46,
      "start": 19.4152,
      "duration": 0.1479,
      "velocity": 114,
      "chip": "ym2612"
    },
    {
      "channel": 3,
      "note": 23,
      "start": 19.4163,
      "duration": 0.1487,
      "velocity": 124,
      "chip": "ym2612"
    },
    {
      "channel": 4,
      "note": 71,
      "start": 19.4175,
      "duration": 0.1481,
      "velocity": 120,
      "chip": "ym2612"
    },
    {
      "channel": 1,
      "note": 47,
      "start": 19.5641,
      "duration": 0.1314,
      "velocity": 119,
      "chip": "ym2612"
    },
    {
      "channel": 2,
      "note": 59,
      "start": 19.5648,
      "duration": 0.0819,
      "velocity": 123,
      "chip": "ym2612"
    },
    {
      "channel": 3,
      "note": 23,
      "start": 19.5654,
      "duration": 0.1318,
      "velocity": 124,
      "chip": "ym2612"
    },
    {
      "channel": 4,
      "note": 71,
      "start": 19.5666,
      "duration": 0.1312,
      "velocity": 120,
      "chip": "ym2612"
    },
    {
      "channel": 1,
      "note": 72,
      "start": 19.6966,
      "duration": 0.1478,
      "velocity": 113,
      "chip": "ym2612"
    },
    {
      "channel": 3,
      "note": 35,
      "start": 19.6978,
      "duration": 0.1492,
      "velocity": 124,
      "chip": "ym2612"
    },
    {
      "channel": 4,
      "note": 71,
      "start": 19.699,
      "duration": 0.1486,
      "velocity": 120,
      "chip": "ym2612"
    },
    {
      "channel": 1,
      "note": 46,
      "start": 19.8455,
      "duration": 0.1314,
      "velocity": 114,
      "chip": "ym2612"
    },
    {
      "channel": 2,
      "note": 34,
      "start": 19.8467,
      "duration": 0.1314,
      "velocity": 64,
      "chip": "ym2612"
    },
    {
      "channel": 3,
      "note": 23,
      "start": 19.8474,
      "duration": 0.1319,
      "velocity": 124,
      "chip": "ym2612"
    },
    {
      "channel": 4,
      "note": 71,
      "start": 19.8486,
      "duration": 0.1313,
      "velocity": 120,
      "chip": "ym2612"
    },
    {
      "channel": 1,
      "note": 47,
      "start": 19.9779,
      "duration": 0.148,
      "velocity": 119,
      "chip": "ym2612"
    },
    {
      "channel": 2,
      "note": 59,
      "start": 19.9792,
      "duration": 0.0978,
      "velocity": 123,
      "chip": "ym2612"
    },
    {
      "channel": 3,
      "note": 23,
      "start": 19.9798,
      "duration": 0.1477,
      "velocity": 124,
      "chip": "ym2612"
    },
    {
      "channel": 4,
      "note": 71,
      "start": 19.981,
      "duration": 0.1471,
      "velocity": 120,
      "chip": "ym2612"
    },
    {
      "channel": 1,
      "note": 38,
      "start": 20.1269,
      "duration": 0.0652,
      "velocity": 125,
      "chip": "ym2612"
    },
    {
      "channel": 3,
      "note": 35,
      "start": 20.128,
      "duration": 0.1319,
      "velocity": 124,
      "chip": "ym2612"
    },
    {
      "channel": 4,
      "note": 71,
      "start": 20.1292,
      "duration": 0.1313,
      "velocity": 120,
      "chip": "ym2612"
    },
    {
      "channel": 1,
      "note": 38,
      "start": 20.1925,
      "duration": 0.0657,
      "velocity": 119,
      "chip": "ym2612"
    },
    {
      "channel": 1,
      "note": 47,
      "start": 20.2593,
      "duration": 0.148,
      "velocity": 119,
      "chip": "ym2612"
    },
    {
      "channel": 3,
      "note": 23,
      "start": 20.2604,
      "duration": 0.1487,
      "velocity": 124,
      "chip": "ym2612"
    },
    {
      "channel": 4,
      "note": 71,
      "start": 20.2616,
      "duration": 0.1482,
      "velocity": 120,
      "chip": "ym2612"
    },
    {
      "channel": 5,
      "note": 7,
      "start": 20.2623,
      "duration": 2.2516,
      "velocity": 1,
      "chip": "ym2612"
    },
    {
      "channel": 1,
      "note": 26,
      "start": 20.4084,
      "duration": 0.1313,
      "velocity": 125,
      "chip": "ym2612"
    },
    {
      "channel": 2,
      "note": 59,
      "start": 20.409,
      "duration": 0.0819,
      "velocity": 123,
      "chip": "ym2612"
    },
    {
      "channel": 3,
      "note": 35,
      "start": 20.4096,
      "duration": 0.1317,
      "velocity": 124,
      "chip": "ym2612"
    },
    {
      "channel": 4,
      "note": 71,
      "start": 20.4108,
      "duration": 0.1312,
      "velocity": 120,
      "chip": "ym2612"
    },
    {
      "channel": 1,
      "note": 46,
      "start": 20.5407,
      "duration": 0.1479,
      "velocity": 114,
      "chip": "ym2612"
    },
    {
      "channel": 3,
      "note": 23,
      "start": 20.5419,
      "duration": 0.1487,
      "velocity": 124,
      "chip": "ym2612"
    },
    {
      "channel": 4,
      "note": 71,
      "start": 20.5431,
      "duration": 0.1481,
      "velocity": 120,
      "chip": "ym2612"
    },
    {
      "channel": 1,
      "note": 71,
      "start": 20.6897,
      "duration": 0.1313,
      "velocity": 120,
      "chip": "ym2612"
    },
    {
      "channel": 2,
      "note": 59,
      "start": 20.6904,
      "duration": 0.0817,
      "velocity": 123,
      "chip": "ym2612"
    },
    {
      "channel": 3,
      "note": 23,
      "start": 20.6911,
      "duration": 0.1317,
      "velocity": 124,
      "chip": "ym2612"
    },
    {
      "channel": 4,
      "note": 47,
      "start": 20.6923,
      "duration": 0.1312,
      "velocity": 124,
      "chip": "ym2612"
    },
    {
      "channel": 1,
      "note": 72,
      "start": 20.8222,
      "duration": 0.1478,
      "velocity": 113,
      "chip": "ym2612"
    },
    {
      "channel": 3,
      "note": 35,
      "start": 20.8234,
      "duration": 0.1483,
      "velocity": 124,
      "chip": "ym2612"
    },
    {
      "channel": 4,
      "note": 71,
      "start": 20.8246,
      "duration": 0.1477,
      "velocity": 120,
      "chip": "ym2612"
    },
    {
      "channel": 1,
      "note": 38,
      "start": 20.9711,
      "duration": 0.1314,
      "velocity": 125,
      "chip": "ym2612"
    },
    {
      "channel": 3,
      "note": 23,
      "start": 20.9722,
      "duration": 0.1321,
      "velocity": 124,
      "chip": "ym2612"
    },
    {
      "channel": 4,
      "note": 71,
      "start": 20.9734,
      "duration": 0.1315,
      "velocity": 120,
      "chip": "ym2612"
    },
    {
      "channel": 1,
      "note": 46,
      "start": 21.1035,
      "duration": 0.1479,
      "velocity": 114,
      "chip": "ym2612"
    },
    {
      "channel": 2,
      "note": 59,
      "start": 21.1042,
      "duration": 0.0984,
      "velocity": 123,
      "chip": "ym2612"
    },
    {
      "channel": 3,
      "note": 23,
      "start": 21.1048,
      "duration": 0.1483,
      "velocity": 124,
      "chip": "ym2612"
    },
    {
      "channel": 4,
      "note": 71,
      "start": 21.106,
      "duration": 0.1477,
      "velocity": 120,
      "chip": "ym2612"
    },
    {
      "channel": 1,
      "note": 26,
      "start": 21.2524,
      "duration": 0.1314,
      "velocity": 125,
      "chip": "ym2612"
    },
    {
      "channel": 3,
      "note": 35,
      "start": 21.2536,
      "duration": 0.1327,
      "velocity": 124,
      "chip": "ym2612"
    },
    {
      "channel": 4,
      "note": 71,
      "start": 21.2548,
      "duration": 0.1321,
      "velocity": 120,
      "chip": "ym2612"
    },
    {
      "channel": 1,
      "note": 47,
      "start": 21.3849,
      "duration": 0.1479,
      "velocity": 119,
      "chip": "ym2612"
    },
    {
      "channel": 2,
      "note": 34,
      "start": 21.3861,
      "duration": 0.148,
      "velocity": 64,
      "chip": "ym2612"
    },
    {
      "channel": 3,
      "note": 23,
      "start": 21.3868,
      "duration": 0.1485,
      "velocity": 124,
      "chip": "ym2612"
    },
    {
      "channel": 4,
      "note": 71,
      "start": 21.388,
      "duration": 0.148,
      "velocity": 120,
      "chip": "ym2612"
    },
    {
      "channel": 1,
      "note": 72,
      "start": 21.5339,
      "duration": 0.1313,
      "velocity": 113,
      "chip": "ym2612"
    },
    {
      "channel": 2,
      "note": 59,
      "start": 21.5352,
      "duration": 0.0812,
      "velocity": 123,
      "chip": "ym2612"
    },
    {
      "channel": 3,
      "note": 35,
      "start": 21.5359,
      "duration": 0.1311,
      "velocity": 124,
      "chip": "ym2612"
    },
    {
      "channel": 4,
      "note": 71,
      "start": 21.5371,
      "duration": 0.1305,
      "velocity": 120,
      "chip": "ym2612"
    },
    {
      "channel": 1,
      "note": 46,
      "start": 21.6663,
      "duration": 0.1478,
      "velocity": 114,
      "chip": "ym2612"
    },
    {
      "channel": 3,
      "note": 23,
      "start": 21.6674,
      "duration": 0.1485,
      "velocity": 124,
      "chip": "ym2612"
    },
    {
      "channel": 4,
      "note": 71,
      "start": 21.6686,
      "duration": 0.1479,
      "velocity": 120,
      "chip": "ym2612"
    },
    {
      "channel": 1,
      "note": 47,
      "start": 21.8152,
      "duration": 0.1314,
      "velocity": 119,
      "chip": "ym2612"
    },
    {
      "channel": 3,
      "note": 23,
      "start": 21.8164,
      "duration": 0.132,
      "velocity": 124,
      "chip": "ym2612"
    },
    {
      "channel": 4,
      "note": 71,
      "start": 21.8176,
      "duration": 0.1314,
      "velocity": 120,
      "chip": "ym2612"
    },
    {
      "channel": 1,
      "note": 72,
      "start": 21.9478,
      "duration": 0.1478,
      "velocity": 113,
      "chip": "ym2612"
    },
    {
      "channel": 3,
      "note": 35,
      "start": 21.9489,
      "duration": 0.1484,
      "velocity": 124,
      "chip": "ym2612"
    },
    {
      "channel": 4,
      "note": 71,
      "start": 21.9501,
      "duration": 0.1478,
      "velocity": 120,
      "chip": "ym2612"
    },
    {
      "channel": 1,
      "note": 46,
      "start": 22.0967,
      "duration": 0.1314,
      "velocity": 114,
      "chip": "ym2612"
    },
    {
      "channel": 3,
      "note": 23,
      "start": 22.0978,
      "duration": 0.1327,
      "velocity": 124,
      "chip": "ym2612"
    },
    {
      "channel": 4,
      "note": 71,
      "start": 22.099,
      "duration": 0.1321,
      "velocity": 120,
      "chip": "ym2612"
    },
    {
      "channel": 1,
      "note": 47,
      "start": 22.229,
      "duration": 0.1479,
      "velocity": 119,
      "chip": "ym2612"
    },
    {
      "channel": 2,
      "note": 22,
      "start": 22.2303,
      "duration": 0.0978,
      "velocity": 64,
      "chip": "ym2612"
    },
    {
      "channel": 3,
      "note": 35,
      "start": 22.231,
      "duration": 0.1479,
      "velocity": 124,
      "chip": "ym2612"
    },
    {
      "channel": 4,
      "note": 71,
      "start": 22.2322,
      "duration": 0.1473,
      "velocity": 120,
      "chip": "ym2612"
    },
    {
      "channel": 1,
      "note": 38,
      "start": 22.378,
      "duration": 0.0652,
      "velocity": 125,
      "chip": "ym2612"
    },
    {
      "channel": 2,
      "note": 34,
      "start": 22.3787,
      "duration": 0.0819,
      "velocity": 64,
      "chip": "ym2612"
    },
    {
      "channel": 3,
      "note": 23,
      "start": 22.3793,
      "duration": 0.1328,
      "velocity": 124,
      "chip": "ym2612"
    },
    {
      "channel": 4,
      "note": 71,
      "start": 22.3805,
      "duration": 0.1321,
      "velocity": 120,
      "chip": "ym2612"
    },
    {
      "channel": 1,
      "note": 38,
      "start": 22.4437,
      "duration": 0.0659,
      "velocity": 119,
      "chip": "ym2612"
    },
    {
      "channel": 0,
      "note": 23,
      "start": 22.5095,
      "duration": 4.5018,
      "velocity": 122,
      "chip": "ym2612"
    },
    {
      "channel": 1,
      "note": 47,
      "start": 22.5107,
      "duration": 0.1477,
      "velocity": 119,
      "chip": "ym2612"
    },
    {
      "channel": 2,
      "note": 71,
      "start": 22.5119,
      "duration": 0.1478,
      "velocity": 122,
      "chip": "ym2612"
    },
    {
      "channel": 3,
      "note": 23,
      "start": 22.5125,
      "duration": 0.1478,
      "velocity": 124,
      "chip": "ym2612"
    },
    {
      "channel": 4,
      "note": 71,
      "start": 22.5137,
      "duration": 0.1471,
      "velocity": 120,
      "chip": "ym2612"
    },
    {
      "channel": 5,
      "note": 7,
      "start": 22.5144,
      "duration": 2.2497,
      "velocity": 1,
      "chip": "ym2612"
    },
    {
      "channel": 1,
      "note": 26,
      "start": 22.6595,
      "duration": 0.1314,
      "velocity": 125,
      "chip": "ym2612"
    },
    {
      "channel": 2,
      "note": 71,
      "start": 22.6601,
      "duration": 0.0819,
      "velocity": 122,
      "chip": "ym2612"
    },
    {
      "channel": 3,
      "note": 35,
      "start": 22.6607,
      "duration": 0.1319,
      "velocity": 124,
      "chip": "ym2612"
    },
    {
      "channel": 4,
      "note": 71,
      "start": 22.6619,
      "duration": 0.1314,
      "velocity": 120,
      "chip": "ym2612"
    },
    {
      "channel": 1,
      "note": 46,
      "start": 22.7919,
      "duration": 0.1479,
      "velocity": 114,
      "chip": "ym2612"
    },
    {
      "channel": 2,
      "note": 66,
      "start": 22.7925,
      "duration": 0.1485,
      "velocity": 122,
      "chip": "ym2612"
    },
    {
      "channel": 3,
      "note": 23,
      "start": 22.7932,
      "duration": 0.1485,
      "velocity": 124,
      "chip": "ym2612"
    },
    {
      "channel": 4,
      "note": 71,
      "start": 22.7944,
      "duration": 0.148,
      "velocity": 120,
      "chip": "ym2612"
    },
    {
      "channel": 1,
      "note": 71,
      "start": 22.9409,
      "duration": 0.1313,
      "velocity": 120,
      "chip": "ym2612"
    },
    {
      "channel": 2,
      "note": 59,
      "start": 22.9415,
      "duration": 0.0819,
      "velocity": 123,
      "chip": "ym2612"
    },
    {
      "channel": 3,
      "note": 23,
      "start": 22.9422,
      "duration": 0.132,
      "velocity": 124,
      "chip": "ym2612"
    },
    {
      "channel": 4,
      "note": 47,
      "start": 22.9434,
      "duration": 0.1314,
      "velocity": 124,
      "chip": "ym2612"
    },
    {
      "channel": 1,
      "note": 72,
      "start": 23.0734,
      "duration": 0.1478,
      "velocity": 113,
      "chip": "ym2612"
    },
    {
      "channel": 2,
      "note": 23,
      "start": 23.074,
      "duration": 0.0983,
      "velocity": 123,
      "chip": "ym2612"
    },
    {
      "channel": 3,
      "note": 35,
      "start": 23.0746,
      "duration": 0.1484,
      "velocity": 124,
      "chip": "ym2612"
    },
    {
      "channel": 4,
      "note": 71,
      "start": 23.0759,
      "duration": 0.1478,
      "velocity": 120,
      "chip": "ym2612"
    },
    {
      "channel": 1,
      "note": 38,
      "start": 23.2222,
      "duration": 0.1314,
      "velocity": 125,
      "chip": "ym2612"
    },
    {
      "channel": 2,
      "note": 35,
      "start": 23.2229,
      "duration": 0.0819,
      "velocity": 123,
      "chip": "ym2612"
    },
    {
      "channel": 3,
      "note": 23,
      "start": 23.2236,
      "duration": 0.1319,
      "velocity": 124,
      "chip": "ym2612"
    },
    {
      "channel": 4,
      "note": 71,
      "start": 23.2248,
      "duration": 0.1313,
      "velocity": 120,
      "chip": "ym2612"
    },
    {
      "channel": 1,
      "note": 46,
      "start": 23.3547,
      "duration": 0.1478,
      "velocity": 114,
      "chip": "ym2612"
    },
    {
      "channel": 2,
      "note": 59,
      "start": 23.3553,
      "duration": 0.0984,
      "velocity": 123,
      "chip": "ym2612"
    },
    {
      "channel": 3,
      "note": 23,
      "start": 23.3559,
      "duration": 0.1483,
      "velocity": 124,
      "chip": "ym2612"
    },
    {
      "channel": 4,
      "note": 71,
      "start": 23.3572,
      "duration": 0.1476,
      "velocity": 120,
      "chip": "ym2612"
    },
    {
      "channel": 1,
      "note": 26,
      "start": 23.5036,
      "duration": 0.1314,
      "velocity": 125,
      "chip": "ym2612"
    },
    {
      "channel": 3,
      "note": 35,
      "start": 23.5047,
      "duration": 0.1327,
      "velocity": 124,
      "chip": "ym2612"
    },
    {
      "channel": 4,
      "note": 71,
      "start": 23.5059,
      "duration": 0.1322,
      "velocity": 120,
      "chip": "ym2612"
    },
    {
      "channel": 1,
      "note": 47,
      "start": 23.636,
      "duration": 0.1479,
      "velocity": 119,
      "chip": "ym2612"
    },
    {
      "channel": 2,
      "note": 34,
      "start": 23.6373,
      "duration": 0.148,
      "velocity": 64,
      "chip": "ym2612"
    },
    {
      "channel": 3,
      "note": 23,
      "start": 23.638,
      "duration": 0.1485,
      "velocity": 124,
      "chip": "ym2612"
    },
    {
      "channel": 4,
      "note": 71,
      "start": 23.6392,
      "duration": 0.148,
      "velocity": 120,
      "chip": "ym2612"
    },
    {
      "channel": 1,
      "note": 72,
      "start": 23.7851,
      "duration": 0.1313,
      "velocity": 113,
      "chip": "ym2612"
    },
    {
      "channel": 2,
      "note": 59,
      "start": 23.7863,
      "duration": 0.0812,
      "velocity": 123,
      "chip": "ym2612"
    },
    {
      "channel": 3,
      "note": 35,
      "start": 23.787,
      "duration": 0.1311,
      "velocity": 124,
      "chip": "ym2612"
    },
    {
      "channel": 4,
      "note": 71,
      "start": 23.7882,
      "duration": 0.1305,
      "velocity": 120,
      "chip": "ym2612"
    },
    {
      "channel": 1,
      "note": 46,
      "start": 23.9175,
      "duration": 0.1478,
      "velocity": 114,
      "chip": "ym2612"
    },
    {
      "channel": 3,
      "note": 23,
      "start": 23.9185,
      "duration": 0.1487,
      "velocity": 124,
      "chip": "ym2612"
    },
    {
      "channel": 4,
      "note": 71,
      "start": 23.9198,
      "duration": 0.1481,
      "velocity": 120,
      "chip": "ym2612"
    },
    {
      "channel": 1,
      "note": 47,
      "start": 24.0664,
      "duration": 0.1314,
      "velocity": 119,
      "chip": "ym2612"
    },
    {
      "channel": 2,
      "note": 59,
      "start": 24.0671,
      "duration": 0.0818,
      "velocity": 123,
      "chip": "ym2612"
    },
    {
      "channel": 3,
      "note": 23,
      "start": 24.0677,
      "duration": 0.1318,
      "velocity": 124,
      "chip": "ym2612"
    },
    {
      "channel": 4,
      "note": 71,
      "start": 24.0689,
      "duration": 0.1312,
      "velocity": 120,
      "chip": "ym2612"
    },
    {
      "channel": 1,
      "note": 72,
      "start": 24.1989,
      "duration": 0.1478,
      "velocity": 113,
      "chip": "ym2612"
    },
    {
      "channel": 3,
      "note": 35,
      "start": 24.2,
      "duration": 0.1492,
      "velocity": 124,
      "chip": "ym2612"
    },
    {
      "channel": 4,
      "note": 71,
      "start": 24.2012,
      "duration": 0.1486,
      "velocity": 120,
      "chip": "ym2612"
    },
    {
      "channel": 1,
      "note": 46,
      "start": 24.3478,
      "duration": 0.1314,
      "velocity": 114,
      "chip": "ym2612"
    },
    {
      "channel": 2,
      "note": 34,
      "start": 24.349,
      "duration": 0.1314,
      "velocity": 64,
      "chip": "ym2612"
    },
    {
      "channel": 3,
      "note": 23,
      "start": 24.3497,
      "duration": 0.1319,
      "velocity": 124,
      "chip": "ym2612"
    },
    {
      "channel": 4,
      "note": 71,
      "start": 24.3509,
      "duration": 0.1313,
      "velocity": 120,
      "chip": "ym2612"
    },
    {
      "channel": 1,
      "note": 47,
      "start": 24.4802,
      "duration": 0.1479,
      "velocity": 119,
      "chip": "ym2612"
    },
    {
      "channel": 2,
      "note": 59,
      "start": 24.4815,
      "duration": 0.0978,
      "velocity": 123,
      "chip": "ym2612"
    },
    {
      "channel": 3,
      "note": 23,
      "start": 24.4821,
      "duration": 0.1477,
      "velocity": 124,
      "chip": "ym2612"
    },
    {
      "channel": 4,
      "note": 71,
      "start": 24.4833,
      "duration": 0.1471,
      "velocity": 120,
      "chip": "ym2612"
    },
    {
      "channel": 1,
      "note": 38,
      "start": 24.6292,
      "duration": 0.0652,
      "velocity": 125,
      "chip": "ym2612"
    },
    {
      "channel": 3,
      "note": 35,
      "start": 24.6303,
      "duration": 0.1319,
      "velocity": 124,
      "chip": "ym2612"
    },
    {
      "channel": 4,
      "note": 71,
      "start": 24.6315,
      "duration": 0.1314,
      "velocity": 120,
      "chip": "ym2612"
    },
    {
      "channel": 1,
      "note": 38,
      "start": 24.6948,
      "duration": 0.0657,
      "velocity": 119,
      "chip": "ym2612"
    },
    {
      "channel": 1,
      "note": 47,
      "start": 24.7616,
      "duration": 0.1479,
      "velocity": 119,
      "chip": "ym2612"
    },
    {
      "channel": 3,
      "note": 23,
      "start": 24.7627,
      "duration": 0.1487,
      "velocity": 124,
      "chip": "ym2612"
    },
    {
      "channel": 4,
      "note": 71,
      "start": 24.7639,
      "duration": 0.1481,
      "velocity": 120,
      "chip": "ym2612"
    },
    {
      "channel": 5,
      "note": 7,
      "start": 24.7646,
      "duration": 2.2528,
      "velocity": 1,
      "chip": "ym2612"
    },
    {
      "channel": 1,
      "note": 26,
      "start": 24.9106,
      "duration": 0.1313,
      "velocity": 125,
      "chip": "ym2612"
    },
    {
      "channel": 2,
      "note": 59,
      "start": 24.9112,
      "duration": 0.0819,
      "velocity": 123,
      "chip": "ym2612"
    },
    {
      "channel": 3,
      "note": 35,
      "start": 24.9119,
      "duration": 0.1318,
      "velocity": 124,
      "chip": "ym2612"
    },
    {
      "channel": 4,
      "note": 71,
      "start": 24.9131,
      "duration": 0.1312,
      "velocity": 120,
      "chip": "ym2612"
    },
    {
      "channel": 1,
      "note": 46,
      "start": 25.043,
      "duration": 0.1478,
      "velocity": 114,
      "chip": "ym2612"
    },
    {
      "channel": 3,
      "note": 23,
      "start": 25.0441,
      "duration": 0.1487,
      "velocity": 124,
      "chip": "ym2612"
    },
    {
      "channel": 4,
      "note": 71,
      "start": 25.0453,
      "duration": 0.1481,
      "velocity": 120,
      "chip": "ym2612"
    },
    {
      "channel": 1,
      "note": 71,
      "start": 25.192,
      "duration": 0.1314,
      "velocity": 120,
      "chip": "ym2612"
    },
    {
      "channel": 2,
      "note": 59,
      "start": 25.1926,
      "duration": 0.082,
      "velocity": 123,
      "chip": "ym2612"
    },
    {
      "channel": 3,
      "note": 23,
      "start": 25.1933,
      "duration": 0.1319,
      "velocity": 124,
      "chip": "ym2612"
    },
    {
      "channel": 4,
      "note": 47,
      "start": 25.1945,
      "duration": 0.1312,
      "velocity": 124,
      "chip": "ym2612"
    },
    {
      "channel": 1,
      "note": 72,
      "start": 25.3245,
      "duration": 0.1478,
      "velocity": 113,
      "chip": "ym2612"
    },
    {
      "channel": 3,
      "note": 35,
      "start": 25.3256,
      "duration": 0.1485,
      "velocity": 124,
      "chip": "ym2612"
    },
    {
      "channel": 4,
      "note": 71,
      "start": 25.3268,
      "duration": 0.1478,
      "velocity": 120,
      "chip": "ym2612"
    },
    {
      "channel": 1,
      "note": 38,
      "start": 25.4734,
      "duration": 0.1313,
      "velocity": 125,
      "chip": "ym2612"
    },
    {
      "channel": 3,
      "note": 23,
      "start": 25.4745,
      "duration": 0.1321,
      "velocity": 124,
      "chip": "ym2612"
    },
    {
      "channel": 4,
      "note": 71,
      "start": 25.4757,
      "duration": 0.1315,
      "velocity": 120,
      "chip": "ym2612"
    },
    {
      "channel": 1,
      "note": 46,
      "start": 25.6058,
      "duration": 0.1478,
      "velocity": 114,
      "chip": "ym2612"
    },
    {
      "channel": 2,
      "note": 59,
      "start": 25.6065,
      "duration": 0.0983,
      "velocity": 123,
      "chip": "ym2612"
    },
    {
      "channel": 3,
      "note": 23,
      "start": 25.6072,
      "duration": 0.1482,
      "velocity": 124,
      "chip": "ym2612"
    },
    {
      "channel": 4,
      "note": 71,
      "start": 25.6084,
      "duration": 0.1476,
      "velocity": 120,
      "chip": "ym2612"
    },
    {
      "channel": 1,
      "note": 26,
      "start": 25.7547,
      "duration": 0.1314,
      "velocity": 125,
      "chip": "ym2612"
    },
    {
      "channel": 3,
      "note": 35,
      "start": 25.7559,
      "duration": 0.1327,
      "velocity": 124,
      "chip": "ym2612"
    },
    {
      "channel": 4,
      "note": 71,
      "start": 25.7571,
      "duration": 0.1321,
      "velocity": 120,
      "chip": "ym2612"
    },
    {
      "channel": 1,
      "note": 47,
      "start": 25.8872,
      "duration": 0.1479,
      "velocity": 119,
      "chip": "ym2612"
    },
    {
      "channel": 2,
      "note": 34,
      "start": 25.8884,
      "duration": 0.148,
      "velocity": 64,
      "chip": "ym2612"
    },
    {
      "channel": 3,
      "note": 23,
      "start": 25.8891,
      "duration": 0.1485,
      "velocity": 124,
      "chip": "ym2612"
    },
    {
      "channel": 4,
      "note": 71,
      "start": 25.8903,
      "duration": 0.1479,
      "velocity": 120,
      "chip": "ym2612"
    },
    {
      "channel": 1,
      "note": 72,
      "start": 26.0362,
      "duration": 0.1313,
      "velocity": 113,
      "chip": "ym2612"
    },
    {
      "channel": 2,
      "note": 59,
      "start": 26.0374,
      "duration": 0.0813,
      "velocity": 123,
      "chip": "ym2612"
    },
    {
      "channel": 3,
      "note": 35,
      "start": 26.0381,
      "duration": 0.1312,
      "velocity": 124,
      "chip": "ym2612"
    },
    {
      "channel": 4,
      "note": 71,
      "start": 26.0393,
      "duration": 0.1305,
      "velocity": 120,
      "chip": "ym2612"
    },
    {
      "channel": 1,
      "note": 46,
      "start": 26.1686,
      "duration": 0.1478,
      "velocity": 114,
      "chip": "ym2612"
    },
    {
      "channel": 3,
      "note": 23,
      "start": 26.1697,
      "duration": 0.1485,
      "velocity": 124,
      "chip": "ym2612"
    },
    {
      "channel": 4,
      "note": 71,
      "start": 26.1709,
      "duration": 0.1479,
      "velocity": 120,
      "chip": "ym2612"
    },
    {
      "channel": 1,
      "note": 47,
      "start": 26.3175,
      "duration": 0.1314,
      "velocity": 119,
      "chip": "ym2612"
    },
    {
      "channel": 3,
      "note": 23,
      "start": 26.3187,
      "duration": 0.132,
      "velocity": 124,
      "chip": "ym2612"
    },
    {
      "channel": 4,
      "note": 71,
      "start": 26.3198,
      "duration": 0.1315,
      "velocity": 120,
      "chip": "ym2612"
    },
    {
      "channel": 1,
      "note": 72,
      "start": 26.45,
      "duration": 0.1478,
      "velocity": 113,
      "chip": "ym2612"
    },
    {
      "channel": 3,
      "note": 35,
      "start": 26.4512,
      "duration": 0.1484,
      "velocity": 124,
      "chip": "ym2612"
    },
    {
      "channel": 4,
      "note": 71,
      "start": 26.4524,
      "duration": 0.1478,
      "velocity": 120,
      "chip": "ym2612"
    },
    {
      "channel": 1,
      "note": 46,
      "start": 26.599,
      "duration": 0.1313,
      "velocity": 114,
      "chip": "ym2612"
    },
    {
      "channel": 3,
      "note": 23,
      "start": 26.6,
      "duration": 0.1327,
      "velocity": 124,
      "chip": "ym2612"
    },
    {
      "channel": 4,
      "note": 71,
      "start": 26.6012,
      "duration": 0.1321,
      "velocity": 120,
      "chip": "ym2612"
    },
    {
      "channel": 1,
      "note": 47,
      "start": 26.7313,
      "duration": 0.1479,
      "velocity": 119,
      "chip": "ym2612"
    },
    {
      "channel": 2,
      "note": 22,
      "start": 26.7325,
      "duration": 0.0979,
      "velocity": 64,
      "chip": "ym2612"
    },
    {
      "channel": 3,
      "note": 35,
      "start": 26.7332,
      "duration": 0.1479,
      "velocity": 124,
      "chip": "ym2612"
    },
    {
      "channel": 4,
      "note": 71,
      "start": 26.7344,
      "duration": 0.1473,
      "velocity": 120,
      "chip": "ym2612"
    },
    {
      "channel": 1,
      "note": 38,
      "start": 26.8803,
      "duration": 0.0652,
      "velocity": 125,
      "chip": "ym2612"
    },
    {
      "channel": 2,
      "note": 34,
      "start": 26.881,
      "duration": 0.0819,
      "velocity": 64,
      "chip": "ym2612"
    },
    {
      "channel": 3,
      "note": 23,
      "start": 26.8816,
      "duration": 0.1333,
      "velocity": 124,
      "chip": "ym2612"
    },
    {
      "channel": 4,
      "note": 71,
      "start": 26.8828,
      "duration": 0.1333,
      "velocity": 120,
      "chip": "ym2612"
    },
    {
      "channel": 1,
      "note": 38,
      "start": 26.946,
      "duration": 0.0665,
      "velocity": 119,
      "chip": "ym2612"
    },
    {
      "channel": 0,
      "note": 23,
      "start": 27.0123,
      "duration": 0.1479,
      "velocity": 124,
      "chip": "ym2612"
    },
    {
      "channel": 1,
      "note": 47,
      "start": 27.0135,
      "duration": 0.1473,
      "velocity": 119,
      "chip": "ym2612"
    },
    {
      "channel": 2,
      "note": 71,
      "start": 27.0147,
      "duration": 0.0971,
      "velocity": 122,
      "chip": "ym2612"
    },
    {
      "channel": 3,
      "note": 23,
      "start": 27.0159,
      "duration": 4.5006,
      "velocity": 122,
      "chip": "ym2612"
    },
    {
      "channel": 4,
      "note": 71,
      "start": 27.0171,
      "duration": 0.146,
      "velocity": 120,
      "chip": "ym2612"
    },
    {
      "channel": 5,
      "note": 7,
      "start": 27.0178,
      "duration": 2.2486,
      "velocity": 1,
      "chip": "ym2612"
    },
    {
      "channel": 0,
      "note": 35,
      "start": 27.1607,
      "duration": 0.132,
      "velocity": 124,
      "chip": "ym2612"
    },
    {
      "channel": 1,
      "note": 26,
      "start": 27.1619,
      "duration": 0.1314,
      "velocity": 125,
      "chip": "ym2612"
    },
    {
      "channel": 2,
      "note": 71,
      "start": 27.1626,
      "duration": 0.0817,
      "velocity": 122,
      "chip": "ym2612"
    },
    {
      "channel": 4,
      "note": 71,
      "start": 27.1642,
      "duration": 0.1313,
      "velocity": 120,
      "chip": "ym2612"
    },
    {
      "channel": 0,
      "note": 23,
      "start": 27.2931,
      "duration": 0.1485,
      "velocity": 124,
      "chip": "ym2612"
    },
    {
      "channel": 1,
      "note": 46,
      "start": 27.2943,
      "duration": 0.1479,
      "velocity": 114,
      "chip": "ym2612"
    },
    {
      "channel": 2,
      "note": 66,
      "start": 27.2949,
      "duration": 0.1485,
      "velocity": 122,
      "chip": "ym2612"
    },
    {
      "channel": 4,
      "note": 71,
      "start": 27.2966,
      "duration": 0.1479,
      "velocity": 120,
      "chip": "ym2612"
    },
    {
      "channel": 0,
      "note": 23,
      "start": 27.4421,
      "duration": 0.1319,
      "velocity": 124,
      "chip": "ym2612"
    },
    {
      "channel": 1,
      "note": 71,
      "start": 27.4433,
      "duration": 0.1314,
      "velocity": 120,
      "chip": "ym2612"
    },
    {
      "channel": 2,
      "note": 73,
      "start": 27.4439,
      "duration": 0.0817,
      "velocity": 122,
      "chip": "ym2612"
    },
    {
      "channel": 4,
      "note": 47,
      "start": 27.4456,
      "duration": 0.1314,
      "velocity": 124,
      "chip": "ym2612"
    },
    {
      "channel": 0,
      "note": 35,
      "start": 27.5745,
      "duration": 0.1485,
      "velocity": 124,
      "chip": "ym2612"
    },
    {
      "channel": 1,
      "note": 72,
      "start": 27.5758,
      "duration": 0.1478,
      "velocity": 113,
      "chip": "ym2612"
    },
    {
      "channel": 2,
      "note": 23,
      "start": 27.5764,
      "duration": 0.0983,
      "velocity": 122,
      "chip": "ym2612"
    },
    {
      "channel": 4,
      "note": 71,
      "start": 27.5781,
      "duration": 0.1478,
      "velocity": 120,
      "chip": "ym2612"
    },
    {
      "channel": 0,
      "note": 23,
      "start": 27.7235,
      "duration": 0.1319,
      "velocity": 124,
      "chip": "ym2612"
    },
    {
      "channel": 1,
      "note": 38,
      "start": 27.7247,
      "duration": 0.1313,
      "velocity": 125,
      "chip": "ym2612"
    },
    {
      "channel": 2,
      "note": 35,
      "start": 27.7254,
      "duration": 0.0817,
      "velocity": 122,
      "chip": "ym2612"
    },
    {
      "channel": 4,
      "note": 71,
      "start": 27.727,
      "duration": 0.1314,
      "velocity": 120,
      "chip": "ym2612"
    },
    {
      "channel": 0,
      "note": 23,
      "start": 27.8559,
      "duration": 0.1485,
      "velocity": 124,
      "chip": "ym2612"
    },
    {
      "channel": 1,
      "note": 46,
      "start": 27.8572,
      "duration": 0.1478,
      "velocity": 114,
      "chip": "ym2612"
    },
    {
      "channel": 2,
      "note": 59,
      "start": 27.8578,
      "duration": 0.0982,
      "velocity": 122,
      "chip": "ym2612"
    },
    {
      "channel": 4,
      "note": 71,
      "start": 27.8595,
      "duration": 0.1479,
      "velocity": 120,
      "chip": "ym2612"
    },
    {
      "channel": 0,
      "note": 35,
      "start": 28.0049,
      "duration": 0.1319,
      "velocity": 124,
      "chip": "ym2612"
    },
    {
      "channel": 1,
      "note": 26,
      "start": 28.0061,
      "duration": 0.1314,
      "velocity": 125,
      "chip": "ym2612"
    },
    {
      "channel": 2,
      "note": 71,
      "start": 28.0068,
      "duration": 0.1319,
      "velocity": 122,
      "chip": "ym2612"
    },
    {
      "channel": 4,
      "note": 71,
      "start": 28.0084,
      "duration": 0.1319,
      "velocity": 120,
      "chip": "ym2612"
    },
    {
      "channel": 0,
      "note": 23,
      "start": 28.1373,
      "duration": 0.1485,
      "velocity": 124,
      "chip": "ym2612"
    },
    {
      "channel": 1,
      "note": 47,
      "start": 28.1385,
      "duration": 0.1478,
      "velocity": 119,
      "chip": "ym2612"
    },
    {
      "channel": 2,
      "note": 34,
      "start": 28.1398,
      "duration": 0.1478,
      "velocity": 63,
      "chip": "ym2612"
    },
    {
      "channel": 4,
      "note": 71,
      "start": 28.1415,
      "duration": 0.1479,
      "velocity": 120,
      "chip": "ym2612"
    },
    {
      "channel": 0,
      "note": 35,
      "start": 28.2862,
      "duration": 0.132,
      "velocity": 124,
      "chip": "ym2612"
    },
    {
      "channel": 1,
      "note": 72,
      "start": 28.2875,
      "duration": 0.1313,
      "velocity": 113,
      "chip": "ym2612"
    },
    {
      "channel": 2,
      "note": 59,
      "start": 28.2888,
      "duration": 0.0811,
      "velocity": 122,
      "chip": "ym2612"
    },
    {
      "channel": 4,
      "note": 71,
      "start": 28.2905,
      "duration": 0.1305,
      "velocity": 120,
      "chip": "ym2612"
    },
    {
      "channel": 0,
      "note": 23,
      "start": 28.4187,
      "duration": 0.1485,
      "velocity": 124,
      "chip": "ym2612"
    },
    {
      "channel": 1,
      "note": 46,
      "start": 28.4199,
      "duration": 0.1479,
      "velocity": 114,
      "chip": "ym2612"
    },
    {
      "channel": 4,
      "note": 71,
      "start": 28.422,
      "duration": 0.148,
      "velocity": 120,
      "chip": "ym2612"
    },
    {
      "channel": 0,
      "note": 23,
      "start": 28.5677,
      "duration": 0.1319,
      "velocity": 124,
      "chip": "ym2612"
    },
    {
      "channel": 1,
      "note": 47,
      "start": 28.5689,
      "duration": 0.1314,
      "velocity": 119,
      "chip": "ym2612"
    },
    {
      "channel": 2,
      "note": 59,
      "start": 28.5695,
      "duration": 0.0817,
      "velocity": 122,
      "chip": "ym2612"
    },
    {
      "channel": 4,
      "note": 71,
      "start": 28.5712,
      "duration": 0.1314,
      "velocity": 120,
      "chip": "ym2612"
    },
    {
      "channel": 0,
      "note": 35,
      "start": 28.7001,
      "duration": 0.1485,
      "velocity": 124,
      "chip": "ym2612"
    },
    {
      "channel": 1,
      "note": 72,
      "start": 28.7014,
      "duration": 0.1478,
      "velocity": 113,
      "chip": "ym2612"
    },
    {
      "channel": 2,
      "note": 71,
      "start": 28.702,
      "duration": 0.1483,
      "velocity": 122,
      "chip": "ym2612"
    },
    {
      "channel": 4,
      "note": 71,
      "start": 28.7037,
      "duration": 0.1484,
      "velocity": 120,
      "chip": "ym2612"
    },
    {
      "channel": 0,
      "note": 23,
      "start": 28.849,
      "duration": 0.132,
      "velocity": 124,
      "chip": "ym2612"
    },
    {
      "channel": 1,
      "note": 46,
      "start": 28.8502,
      "duration": 0.1314,
      "velocity": 114,
      "chip": "ym2612"
    },
    {
      "channel": 2,
      "note": 34,
      "start": 28.8515,
      "duration": 0.1313,
      "velocity": 63,
      "chip": "ym2612"
    },
    {
      "channel": 4,
      "note": 71,
      "start": 28.8532,
      "duration": 0.1313,
      "velocity": 120,
      "chip": "ym2612"
    },
    {
      "channel": 0,
      "note": 23,
      "start": 28.9815,
      "duration": 0.1485,
      "velocity": 124,
      "chip": "ym2612"
    },
    {
      "channel": 1,
      "note": 47,
      "start": 28.9827,
      "duration": 0.1479,
      "velocity": 119,
      "chip": "ym2612"
    },
    {
      "channel": 2,
      "note": 59,
      "start": 28.9839,
      "duration": 0.0977,
      "velocity": 122,
      "chip": "ym2612"
    },
    {
      "channel": 4,
      "note": 71,
      "start": 28.9855,
      "duration": 0.1472,
      "velocity": 120,
      "chip": "ym2612"
    },
    {
      "channel": 0,
      "note": 35,
      "start": 29.1305,
      "duration": 0.1319,
      "velocity": 124,
      "chip": "ym2612"
    },
    {
      "channel": 1,
      "note": 38,
      "start": 29.1317,
      "duration": 0.065,
      "velocity": 125,
      "chip": "ym2612"
    },
    {
      "channel": 4,
      "note": 71,
      "start": 29.1338,
      "duration": 0.1313,
      "velocity": 120,
      "chip": "ym2612"
    },
    {
      "channel": 1,
      "note": 38,
      "start": 29.1971,
      "duration": 0.0658,
      "velocity": 119,
      "chip": "ym2612"
    },
    {
      "channel": 0,
      "note": 23,
      "start": 29.2628,
      "duration": 0.1485,
      "velocity": 124,
      "chip": "ym2612"
    },
    {
      "channel": 1,
      "note": 47,
      "start": 29.264,
      "duration": 0.1479,
      "velocity": 119,
      "chip": "ym2612"
    },
    {
      "channel": 4,
      "note": 71,
      "start": 29.2662,
      "duration": 0.1481,
      "velocity": 120,
      "chip": "ym2612"
    },
    {
      "channel": 5,
      "note": 7,
      "start": 29.2669,
      "duration": 2.2516,
      "velocity": 1,
      "chip": "ym2612"
    },
    {
      "channel": 0,
      "note": 35,
      "start": 29.4118,
      "duration": 0.132,
      "velocity": 124,
      "chip": "ym2612"
    },
    {
      "channel": 1,
      "note": 26,
      "start": 29.413,
      "duration": 0.1314,
      "velocity": 125,
      "chip": "ym2612"
    },
    {
      "channel": 2,
      "note": 59,
      "start": 29.4137,
      "duration": 0.0817,
      "velocity": 122,
      "chip": "ym2612"
    },
    {
      "channel": 4,
      "note": 71,
      "start": 29.4154,
      "duration": 0.1313,
      "velocity": 120,
      "chip": "ym2612"
    },
    {
      "channel": 0,
      "note": 23,
      "start": 29.5442,
      "duration": 0.1485,
      "velocity": 124,
      "chip": "ym2612"
    },
    {
      "channel": 1,
      "note": 46,
      "start": 29.5455,
      "duration": 0.1479,
      "velocity": 114,
      "chip": "ym2612"
    },
    {
      "channel": 2,
      "note": 71,
      "start": 29.5461,
      "duration": 0.1485,
      "velocity": 122,
      "chip": "ym2612"
    },
    {
      "channel": 4,
      "note": 71,
      "start": 29.5478,
      "duration": 0.1479,
      "velocity": 120,
      "chip": "ym2612"
    },
    {
      "channel": 0,
      "note": 23,
      "start": 29.6932,
      "duration": 0.132,
      "velocity": 124,
      "chip": "ym2612"
    },
    {
      "channel": 1,
      "note": 71,
      "start": 29.6944,
      "duration": 0.1313,
      "velocity": 120,
      "chip": "ym2612"
    },
    {
      "channel": 2,
      "note": 59,
      "start": 29.6951,
      "duration": 0.0817,
      "velocity": 122,
      "chip": "ym2612"
    },
    {
      "channel": 4,
      "note": 47,
      "start": 29.6968,
      "duration": 0.1312,
      "velocity": 124,
      "chip": "ym2612"
    },
    {
      "channel": 0,
      "note": 35,
      "start": 29.8256,
      "duration": 0.1485,
      "velocity": 124,
      "chip": "ym2612"
    },
    {
      "channel": 1,
      "note": 72,
      "start": 29.8269,
      "duration": 0.1478,
      "velocity": 113,
      "chip": "ym2612"
    },
    {
      "channel": 4,
      "note": 71,
      "start": 29.829,
      "duration": 0.1478,
      "velocity": 120,
      "chip": "ym2612"
    },
    {
      "channel": 0,
      "note": 23,
      "start": 29.9746,
      "duration": 0.132,
      "velocity": 124,
      "chip": "ym2612"
    },
    {
      "channel": 1,
      "note": 38,
      "start": 29.9758,
      "duration": 0.1314,
      "velocity": 125,
      "chip": "ym2612"
    },
    {
      "channel": 4,
      "note": 71,
      "start": 29.978,
      "duration": 0.1316,
      "velocity": 120,
      "chip": "ym2612"
    },
    {
      "channel": 0,
      "note": 23,
      "start": 30.1071,
      "duration": 0.1484,
      "velocity": 124,
      "chip": "ym2612"
    },
    {
      "channel": 1,
      "note": 46,
      "start": 30.1083,
      "duration": 0.1478,
      "velocity": 114,
      "chip": "ym2612"
    },
    {
      "channel": 2,
      "note": 59,
      "start": 30.1089,
      "duration": 0.0982,
      "velocity": 122,
      "chip": "ym2612"
    },
    {
      "channel": 4,
      "note": 71,
      "start": 30.1106,
      "duration": 0.1477,
      "velocity": 120,
      "chip": "ym2612"
    },
    {
      "channel": 0,
      "note": 35,
      "start": 30.256,
      "duration": 0.132,
      "velocity": 124,
      "chip": "ym2612"
    },
    {
      "channel": 1,
      "note": 26,
      "start": 30.2572,
      "duration": 0.1313,
      "velocity": 125,
      "chip": "ym2612"
    },
    {
      "channel": 4,
      "note": 71,
      "start": 30.2594,
      "duration": 0.1321,
      "velocity": 120,
      "chip": "ym2612"
    },
    {
      "channel": 0,
      "note": 23,
      "start": 30.3884,
      "duration": 0.1485,
      "velocity": 124,
      "chip": "ym2612"
    },
    {
      "channel": 1,
      "note": 47,
      "start": 30.3896,
      "duration": 0.1479,
      "velocity": 119,
      "chip": "ym2612"
    },
    {
      "channel": 2,
      "note": 34,
      "start": 30.3909,
      "duration": 0.1479,
      "velocity": 63,
      "chip": "ym2612"
    },
    {
      "channel": 4,
      "note": 71,
      "start": 30.3926,
      "duration": 0.148,
      "velocity": 120,
      "chip": "ym2612"
    },
    {
      "channel": 0,
      "note": 35,
      "start": 30.5374,
      "duration": 0.132,
      "velocity": 124,
      "chip": "ym2612"
    },
    {
      "channel": 1,
      "note": 72,
      "start": 30.5386,
      "duration": 0.1313,
      "velocity": 113,
      "chip": "ym2612"
    },
    {
      "channel": 2,
      "note": 59,
      "start": 30.5399,
      "duration": 0.0811,
      "velocity": 122,
      "chip": "ym2612"
    },
    {
      "channel": 4,
      "note": 71,
      "start": 30.5416,
      "duration": 0.1305,
      "velocity": 120,
      "chip": "ym2612"
    },
    {
      "channel": 0,
      "note": 23,
      "start": 30.6698,
      "duration": 0.1485,
      "velocity": 124,
      "chip": "ym2612"
    },
    {
      "channel": 1,
      "note": 46,
      "start": 30.671,
      "duration": 0.1479,
      "velocity": 114,
      "chip": "ym2612"
    },
    {
      "channel": 4,
      "note": 71,
      "start": 30.6732,
      "duration": 0.1479,
      "velocity": 120,
      "chip": "ym2612"
    },
    {
      "channel": 0,
      "note": 23,
      "start": 30.8188,
      "duration": 0.1319,
      "velocity": 124,
      "chip": "ym2612"
    },
    {
      "channel": 1,
      "note": 47,
      "start": 30.82,
      "duration": 0.1313,
      "velocity": 119,
      "chip": "ym2612"
    },
    {
      "channel": 4,
      "note": 71,
      "start": 30.8222,
      "duration": 0.1314,
      "velocity": 120,
      "chip": "ym2612"
    },
    {
      "channel": 0,
      "note": 35,
      "start": 30.9512,
      "duration": 0.1485,
      "velocity": 124,
      "chip": "ym2612"
    },
    {
      "channel": 1,
      "note": 72,
      "start": 30.9525,
      "duration": 0.1478,
      "velocity": 113,
      "chip": "ym2612"
    },
    {
      "channel": 4,
      "note": 71,
      "start": 30.9546,
      "duration": 0.148,
      "velocity": 120,
      "chip": "ym2612"
    },
    {
      "channel": 0,
      "note": 23,
      "start": 31.1002,
      "duration": 0.1319,
      "velocity": 124,
      "chip": "ym2612"
    },
    {
      "channel": 1,
      "note": 46,
      "start": 31.1014,
      "duration": 0.1314,
      "velocity": 114,
      "chip": "ym2612"
    },
    {
      "channel": 2,
      "note": 59,
      "start": 31.102,
      "duration": 0.1319,
      "velocity": 122,
      "chip": "ym2612"
    },
    {
      "channel": 4,
      "note": 71,
      "start": 31.1037,
      "duration": 0.132,
      "velocity": 120,
      "chip": "ym2612"
    },
    {
      "channel": 0,
      "note": 35,
      "start": 31.2326,
      "duration": 0.1485,
      "velocity": 124,
      "chip": "ym2612"
    },
    {
      "channel": 1,
      "note": 47,
      "start": 31.2338,
      "duration": 0.1479,
      "velocity": 119,
      "chip": "ym2612"
    },
    {
      "channel": 2,
      "note": 22,
      "start": 31.235,
      "duration": 0.0977,
      "velocity": 63,
      "chip": "ym2612"
    },
    {
      "channel": 4,
      "note": 71,
      "start": 31.2367,
      "duration": 0.1473,
      "velocity": 120,
      "chip": "ym2612"
    },
    {
      "channel": 0,
      "note": 23,
      "start": 31.3816,
      "duration": 0.1319,
      "velocity": 124,
      "chip": "ym2612"
    },
    {
      "channel": 1,
      "note": 38,
      "start": 31.3828,
      "duration": 0.065,
      "velocity": 125,
      "chip": "ym2612"
    },
    {
      "channel": 2,
      "note": 34,
      "start": 31.3834,
      "duration": 0.0817,
      "velocity": 63,
      "chip": "ym2612"
    },
    {
      "channel": 4,
      "note": 71,
      "start": 31.3851,
      "duration": 0.1321,
      "velocity": 120,
      "chip": "ym2612"
    },
    {
      "channel": 1,
      "note": 38,
      "start": 31.4483,
      "duration": 0.0659,
      "velocity": 119,
      "chip": "ym2612"
    },
    {
      "channel": 0,
      "note": 23,
      "start": 31.514,
      "duration": 0.1485,
      "velocity": 124,
      "chip": "ym2612"
    },
    {
      "channel": 1,
      "note": 47,
      "start": 31.5152,
      "duration": 0.1479,
      "velocity": 119,
      "chip": "ym2612"
    },
    {
      "channel": 2,
      "note": 71,
      "start": 31.5164,
      "duration": 0.0977,
      "velocity": 122,
      "chip": "ym2612"
    },
    {
      "channel": 3,
      "note": 23,
      "start": 31.5171,
      "duration": 4.5019,
      "velocity": 122,
      "chip": "ym2612"
    },
    {
      "channel": 4,
      "note": 71,
      "start": 31.5183,
      "duration": 0.1471,
      "velocity": 120,
      "chip": "ym2612"
    },
    {
      "channel": 5,
      "note": 7,
      "start": 31.5189,
      "duration": 2.2498,
      "velocity": 1,
      "chip": "ym2612"
    },
    {
      "channel": 0,
      "note": 35,
      "start": 31.6629,
      "duration": 0.1319,
      "velocity": 124,
      "chip": "ym2612"
    },
    {
      "channel": 1,
      "note": 26,
      "start": 31.6641,
      "duration": 0.1314,
      "velocity": 125,
      "chip": "ym2612"
    },
    {
      "channel": 2,
      "note": 71,
      "start": 31.6648,
      "duration": 0.0817,
      "velocity": 122,
      "chip": "ym2612"
    },
    {
      "channel": 4,
      "note": 71,
      "start": 31.6665,
      "duration": 0.1313,
      "velocity": 120,
      "chip": "ym2612"
    },
    {
      "channel": 0,
      "note": 23,
      "start": 31.7954,
      "duration": 0.1485,
      "velocity": 124,
      "chip": "ym2612"
    },
    {
      "channel": 1,
      "note": 46,
      "start": 31.7966,
      "duration": 0.1479,
      "velocity": 114,
      "chip": "ym2612"
    },
    {
      "channel": 2,
      "note": 66,
      "start": 31.7972,
      "duration": 0.1485,
      "velocity": 122,
      "chip": "ym2612"
    },
    {
      "channel": 4,
      "note": 71,
      "start": 31.7989,
      "duration": 0.1479,
      "velocity": 120,
      "chip": "ym2612"
    },
    {
      "channel": 0,
      "note": 23,
      "start": 31.9444,
      "duration": 0.1319,
      "velocity": 124,
      "chip": "ym2612"
    },
    {
      "channel": 1,
      "note": 71,
      "start": 31.9456,
      "duration": 0.1313,
      "velocity": 120,
      "chip": "ym2612"
    },
    {
      "channel": 2,
      "note": 73,
      "start": 31.9462,
      "duration": 0.0817,
      "velocity": 122,
      "chip": "ym2612"
    },
    {
      "channel": 4,
      "note": 47,
      "start": 31.9479,
      "duration": 0.1314,
      "velocity": 124,
      "chip": "ym2612"
    },
    {
      "channel": 0,
      "note": 35,
      "start": 32.0768,
      "duration": 0.1485,
      "velocity": 124,
      "chip": "ym2612"
    },
    {
      "channel": 1,
      "note": 72,
      "start": 32.078,
      "duration": 0.1478,
      "velocity": 113,
      "chip": "ym2612"
    },
    {
      "channel": 2,
      "note": 23,
      "start": 32.0787,
      "duration": 0.0983,
      "velocity": 122,
      "chip": "ym2612"
    },
    {
      "channel": 4,
      "note": 71,
      "start": 32.0804,
      "duration": 0.1478,
      "velocity": 120,
      "chip": "ym2612"
    },
    {
      "channel": 0,
      "note": 23,
      "start": 32.2257,
      "duration": 0.1319,
      "velocity": 124,
      "chip": "ym2612"
    },
    {
      "channel": 1,
      "note": 38,
      "start": 32.2269,
      "duration": 0.1314,
      "velocity": 125,
      "chip": "ym2612"
    },
    {
      "channel": 2,
      "note": 35,
      "start": 32.2276,
      "duration": 0.0817,
      "velocity": 122,
      "chip": "ym2612"
    },
    {
      "channel": 4,
      "note": 71,
      "start": 32.2293,
      "duration": 0.1313,
      "velocity": 120,
      "chip": "ym2612"
    },
    {
      "channel": 0,
      "note": 23,
      "start": 32.3582,
      "duration": 0.1485,
      "velocity": 124,
      "chip": "ym2612"
    },
    {
      "channel": 1,
      "note": 46,
      "start": 32.3594,
      "duration": 0.148,
      "velocity": 114,
      "chip": "ym2612"
    },
    {
      "channel": 2,
      "note": 59,
      "start": 32.36,
      "duration": 0.0982,
      "velocity": 122,
      "chip": "ym2612"
    },
    {
      "channel": 4,
      "note": 71,
      "start": 32.3617,
      "duration": 0.148,
      "velocity": 120,
      "chip": "ym2612"
    },
    {
      "channel": 0,
      "note": 35,
      "start": 32.5072,
      "duration": 0.1319,
      "velocity": 124,
      "chip": "ym2612"
    },
    {
      "channel": 1,
      "note": 26,
      "start": 32.5084,
      "duration": 0.1314,
      "velocity": 125,
      "chip": "ym2612"
    },
    {
      "channel": 2,
      "note": 71,
      "start": 32.5091,
      "duration": 0.1319,
      "velocity": 122,
      "chip": "ym2612"
    },
    {
      "channel": 4,
      "note": 71,
      "start": 32.5107,
      "duration": 0.1319,
      "velocity": 120,
      "chip": "ym2612"
    },
    {
      "channel": 0,
      "note": 23,
      "start": 32.6395,
      "duration": 0.1485,
      "velocity": 124,
      "chip": "ym2612"
    },
    {
      "channel": 1,
      "note": 47,
      "start": 32.6408,
      "duration": 0.1478,
      "velocity": 119,
      "chip": "ym2612"
    },
    {
      "channel": 2,
      "note": 34,
      "start": 32.642,
      "duration": 0.148,
      "velocity": 63,
      "chip": "ym2612"
    },
    {
      "channel": 4,
      "note": 71,
      "start": 32.6437,
      "duration": 0.148,
      "velocity": 120,
      "chip": "ym2612"
    },
    {
      "channel": 0,
      "note": 35,
      "start": 32.7885,
      "duration": 0.1319,
      "velocity": 124,
      "chip": "ym2612"
    },
    {
      "channel": 1,
      "note": 72,
      "start": 32.7899,
      "duration": 0.1312,
      "velocity": 113,
      "chip": "ym2612"
    },
    {
      "channel": 2,
      "note": 59,
      "start": 32.7911,
      "duration": 0.0811,
      "velocity": 122,
      "chip": "ym2612"
    },
    {
      "channel": 4,
      "note": 71,
      "start": 32.7928,
      "duration": 0.1305,
      "velocity": 120,
      "chip": "ym2612"
    },
    {
      "channel": 0,
      "note": 23,
      "start": 32.921,
      "duration": 0.1485,
      "velocity": 124,
      "chip": "ym2612"
    },
    {
      "channel": 1,
      "note": 46,
      "start": 32.9222,
      "duration": 0.1479,
      "velocity": 114,
      "chip": "ym2612"
    },
    {
      "channel": 4,
      "note": 71,
      "start": 32.9243,
      "duration": 0.148,
      "velocity": 120,
      "chip": "ym2612"
    },
    {
      "channel": 0,
      "note": 23,
      "start": 33.07,
      "duration": 0.1319,
      "velocity": 124,
      "chip": "ym2612"
    },
    {
      "channel": 1,
      "note": 47,
      "start": 33.0712,
      "duration": 0.1313,
      "velocity": 119,
      "chip": "ym2612"
    },
    {
      "channel": 2,
      "note": 59,
      "start": 33.0718,
      "duration": 0.0817,
      "velocity": 122,
      "chip": "ym2612"
    },
    {
      "channel": 4,
      "note": 71,
      "start": 33.0735,
      "duration": 0.1314,
      "velocity": 120,
      "chip": "ym2612"
    },
    {
      "channel": 0,
      "note": 35,
      "start": 33.2023,
      "duration": 0.1485,
      "velocity": 124,
      "chip": "ym2612"
    },
    {
      "channel": 1,
      "note": 72,
      "start": 33.2036,
      "duration": 0.1478,
      "velocity": 113,
      "chip": "ym2612"
    },
    {
      "channel": 2,
      "note": 71,
      "start": 33.2042,
      "duration": 0.1484,
      "velocity": 122,
      "chip": "ym2612"
    },
    {
      "channel": 4,
      "note": 71,
      "start": 33.2059,
      "duration": 0.1484,
      "velocity": 120,
      "chip": "ym2612"
    },
    {
      "channel": 0,
      "note": 23,
      "start": 33.3513,
      "duration": 0.1319,
      "velocity": 124,
      "chip": "ym2612"
    },
    {
      "channel": 1,
      "note": 46,
      "start": 33.3525,
      "duration": 0.1314,
      "velocity": 114,
      "chip": "ym2612"
    },
    {
      "channel": 2,
      "note": 34,
      "start": 33.3538,
      "duration": 0.1313,
      "velocity": 63,
      "chip": "ym2612"
    },
    {
      "channel": 4,
      "note": 71,
      "start": 33.3554,
      "duration": 0.1313,
      "velocity": 120,
      "chip": "ym2612"
    },
    {
      "channel": 0,
      "note": 23,
      "start": 33.4837,
      "duration": 0.1485,
      "velocity": 124,
      "chip": "ym2612"
    },
    {
      "channel": 1,
      "note": 47,
      "start": 33.485,
      "duration": 0.1479,
      "velocity": 119,
      "chip": "ym2612"
    },
    {
      "channel": 2,
      "note": 59,
      "start": 33.4862,
      "duration": 0.0977,
      "velocity": 122,
      "chip": "ym2612"
    },
    {
      "channel": 4,
      "note": 71,
      "start": 33.4878,
      "duration": 0.1472,
      "velocity": 120,
      "chip": "ym2612"
    },
    {
      "channel": 0,
      "note": 35,
      "start": 33.6327,
      "duration": 0.1319,
      "velocity": 124,
      "chip": "ym2612"
    },
    {
      "channel": 1,
      "note": 38,
      "start": 33.6339,
      "duration": 0.065,
      "velocity": 125,
      "chip": "ym2612"
    },
    {
      "channel": 4,
      "note": 71,
      "start": 33.6361,
      "duration": 0.1313,
      "velocity": 120,
      "chip": "ym2612"
    },
    {
      "channel": 1,
      "note": 38,
      "start": 33.6994,
      "duration": 0.0658,
      "velocity": 119,
      "chip": "ym2612"
    },
    {
      "channel": 0,
      "note": 23,
      "start": 33.7651,
      "duration": 0.1485,
      "velocity": 124,
      "chip": "ym2612"
    },
    {
      "channel": 1,
      "note": 47,
      "start": 33.7663,
      "duration": 0.1479,
      "velocity": 119,
      "chip": "ym2612"
    },
    {
      "channel": 4,
      "note": 71,
      "start": 33.7685,
      "duration": 0.1481,
      "velocity": 120,
      "chip": "ym2612"
    },
    {
      "channel": 5,
      "note": 7,
      "start": 33.7691,
      "duration": 2.2523,
      "velocity": 1,
      "chip": "ym2612"
    },
    {
      "channel": 0,
      "note": 35,
      "start": 33.9141,
      "duration": 0.1319,
      "velocity": 124,
      "chip": "ym2612"
    },
    {
      "channel": 1,
      "note": 26,
      "start": 33.9153,
      "duration": 0.1314,
      "velocity": 125,
      "chip": "ym2612"
    },
    {
      "channel": 2,
      "note": 59,
      "start": 33.9159,
      "duration": 0.0817,
      "velocity": 122,
      "chip": "ym2612"
    },
    {
      "channel": 4,
      "note": 71,
      "start": 33.9177,
      "duration": 0.1313,
      "velocity": 120,
      "chip": "ym2612"
    },
    {
      "channel": 0,
      "note": 23,
      "start": 34.0465,
      "duration": 0.1485,
      "velocity": 124,
      "chip": "ym2612"
    },
    {
      "channel": 1,
      "note": 46,
      "start": 34.0478,
      "duration": 0.1479,
      "velocity": 114,
      "chip": "ym2612"
    },
    {
      "channel": 2,
      "note": 71,
      "start": 34.0484,
      "duration": 0.1485,
      "velocity": 122,
      "chip": "ym2612"
    },
    {
      "channel": 4,
      "note": 71,
      "start": 34.05,
      "duration": 0.1479,
      "velocity": 120,
      "chip": "ym2612"
    },
    {
      "channel": 0,
      "note": 23,
      "start": 34.1955,
      "duration": 0.132,
      "velocity": 124,
      "chip": "ym2612"
    },
    {
      "channel": 1,
      "note": 71,
      "start": 34.1967,
      "duration": 0.1313,
      "velocity": 120,
      "chip": "ym2612"
    },
    {
      "channel": 2,
      "note": 59,
      "start": 34.1974,
      "duration": 0.0817,
      "velocity": 122,
      "chip": "ym2612"
    },
    {
      "channel": 4,
      "note": 47,
      "start": 34.1991,
      "duration": 0.1312,
      "velocity": 124,
      "chip": "ym2612"
    },
    {
      "channel": 0,
      "note": 35,
      "start": 34.3279,
      "duration": 0.1485,
      "velocity": 124,
      "chip": "ym2612"
    },
    {
      "channel": 1,
      "note": 72,
      "start": 34.3292,
      "duration": 0.1478,
      "velocity": 113,
      "chip": "ym2612"
    },
    {
      "channel": 4,
      "note": 71,
      "start": 34.3313,
      "duration": 0.1478,
      "velocity": 120,
      "chip": "ym2612"
    },
    {
      "channel": 0,
      "note": 23,
      "start": 34.4769,
      "duration": 0.132,
      "velocity": 124,
      "chip": "ym2612"
    },
    {
      "channel": 1,
      "note": 38,
      "start": 34.4781,
      "duration": 0.1314,
      "velocity": 125,
      "chip": "ym2612"
    },
    {
      "channel": 4,
      "note": 71,
      "start": 34.4802,
      "duration": 0.1315,
      "velocity": 120,
      "chip": "ym2612"
    },
    {
      "channel": 0,
      "note": 23,
      "start": 34.6093,
      "duration": 0.1485,
      "velocity": 124,
      "chip": "ym2612"
    },
    {
      "channel": 1,
      "note": 46,
      "start": 34.6105,
      "duration": 0.1479,
      "velocity": 114,
      "chip": "ym2612"
    },
    {
      "channel": 2,
      "note": 59,
      "start": 34.6112,
      "duration": 0.0982,
      "velocity": 122,
      "chip": "ym2612"
    },
    {
      "channel": 4,
      "note": 71,
      "start": 34.6128,
      "duration": 0.1478,
      "velocity": 120,
      "chip": "ym2612"
    },
    {
      "channel": 0,
      "note": 35,
      "start": 34.7583,
      "duration": 0.132,
      "velocity": 124,
      "chip": "ym2612"
    },
    {
      "channel": 1,
      "note": 26,
      "start": 34.7595,
      "duration": 0.1313,
      "velocity": 125,
      "chip": "ym2612"
    },
    {
      "channel": 4,
      "note": 71,
      "start": 34.7617,
      "duration": 0.1321,
      "velocity": 120,
      "chip": "ym2612"
    },
    {
      "channel": 0,
      "note": 23,
      "start": 34.8907,
      "duration": 0.1485,
      "velocity": 124,
      "chip": "ym2612"
    },
    {
      "channel": 1,
      "note": 47,
      "start": 34.8919,
      "duration": 0.148,
      "velocity": 119,
      "chip": "ym2612"
    },
    {
      "channel": 2,
      "note": 34,
      "start": 34.8931,
      "duration": 0.148,
      "velocity": 63,
      "chip": "ym2612"
    },
    {
      "channel": 4,
      "note": 71,
      "start": 34.8948,
      "duration": 0.148,
      "velocity": 120,
      "chip": "ym2612"
    },
    {
      "channel": 0,
      "note": 35,
      "start": 35.0397,
      "duration": 0.1319,
      "velocity": 124,
      "chip": "ym2612"
    },
    {
      "channel": 1,
      "note": 72,
      "start": 35.041,
      "duration": 0.1312,
      "velocity": 113,
      "chip": "ym2612"
    },
    {
      "channel": 2,
      "note": 59,
      "start": 35.0422,
      "duration": 0.0811,
      "velocity": 122,
      "chip": "ym2612"
    },
    {
      "channel": 4,
      "note": 71,
      "start": 35.0439,
      "duration": 0.1305,
      "velocity": 120,
      "chip": "ym2612"
    },
    {
      "channel": 0,
      "note": 23,
      "start": 35.1721,
      "duration": 0.1485,
      "velocity": 124,
      "chip": "ym2612"
    },
    {
      "channel": 1,
      "note": 46,
      "start": 35.1734,
      "duration": 0.1478,
      "velocity": 114,
      "chip": "ym2612"
    },
    {
      "channel": 4,
      "note": 71,
      "start": 35.1756,
      "duration": 0.1478,
      "velocity": 120,
      "chip": "ym2612"
    },
    {
      "channel": 0,
      "note": 23,
      "start": 35.3211,
      "duration": 0.1319,
      "velocity": 124,
      "chip": "ym2612"
    },
    {
      "channel": 1,
      "note": 47,
      "start": 35.3223,
      "duration": 0.1313,
      "velocity": 119,
      "chip": "ym2612"
    },
    {
      "channel": 4,
      "note": 71,
      "start": 35.3245,
      "duration": 0.1314,
      "velocity": 120,
      "chip": "ym2612"
    },
    {
      "channel": 0,
      "note": 35,
      "start": 35.4535,
      "duration": 0.1485,
      "velocity": 124,
      "chip": "ym2612"
    },
    {
      "channel": 1,
      "note": 72,
      "start": 35.4547,
      "duration": 0.1478,
      "velocity": 113,
      "chip": "ym2612"
    },
    {
      "channel": 4,
      "note": 71,
      "start": 35.457,
      "duration": 0.1479,
      "velocity": 120,
      "chip": "ym2612"
    },
    {
      "channel": 0,
      "note": 23,
      "start": 35.6024,
      "duration": 0.1319,
      "velocity": 124,
      "chip": "ym2612"
    },
    {
      "channel": 1,
      "note": 46,
      "start": 35.6037,
      "duration": 0.1314,
      "velocity": 114,
      "chip": "ym2612"
    },
    {
      "channel": 2,
      "note": 59,
      "start": 35.6043,
      "duration": 0.1319,
      "velocity": 122,
      "chip": "ym2612"
    },
    {
      "channel": 4,
      "note": 71,
      "start": 35.6059,
      "duration": 0.132,
      "velocity": 120,
      "chip": "ym2612"
    },
    {
      "channel": 0,
      "note": 35,
      "start": 35.7349,
      "duration": 0.1485,
      "velocity": 124,
      "chip": "ym2612"
    },
    {
      "channel": 1,
      "note": 47,
      "start": 35.7361,
      "duration": 0.1479,
      "velocity": 119,
      "chip": "ym2612"
    },
    {
      "channel": 2,
      "note": 22,
      "start": 35.7373,
      "duration": 0.0977,
      "velocity": 63,
      "chip": "ym2612"
    },
    {
      "channel": 4,
      "note": 71,
      "start": 35.739,
      "duration": 0.1473,
      "velocity": 120,
      "chip": "ym2612"
    },
    {
      "channel": 0,
      "note": 23,
      "start": 35.8839,
      "duration": 0.1319,
      "velocity": 124,
      "chip": "ym2612"
    },
    {
      "channel": 1,
      "note": 38,
      "start": 35.8851,
      "duration": 0.065,
      "velocity": 125,
      "chip": "ym2612"
    },
    {
      "channel": 2,
      "note": 34,
      "start": 35.8857,
      "duration": 0.0817,
      "velocity": 63,
      "chip": "ym2612"
    },
    {
      "channel": 4,
      "note": 71,
      "start": 35.8874,
      "duration": 0.1328,
      "velocity": 120,
      "chip": "ym2612"
    },
    {
      "channel": 1,
      "note": 38,
      "start": 35.9505,
      "duration": 0.0659,
      "velocity": 119,
      "chip": "ym2612"
    },
    {
      "channel": 0,
      "note": 23,
      "start": 36.0163,
      "duration": 0.1654,
      "velocity": 124,
      "chip": "ym2612"
    },
    {
      "channel": 1,
      "note": 23,
      "start": 36.0175,
      "duration": 4.5013,
      "velocity": 122,
      "chip": "ym2612"
    },
    {
      "channel": 2,
      "note": 38,
      "start": 36.0188,
      "duration": 0.1469,
      "velocity": 108,
      "chip": "ym2612"
    },
    {
      "channel": 3,
      "note": 42,
      "start": 36.0201,
      "duration": 0.1464,
      "velocity": 108,
      "chip": "ym2612"
    },
    {
      "channel": 4,
      "note": 59,
      "start": 36.0213,
      "duration": 0.1458,
      "velocity": 119,
      "chip": "ym2612"
    },
    {
      "channel": 5,
      "note": 71,
      "start": 36.0225,
      "duration": 0.1459,
      "velocity": 122,
      "chip": "ym2612"
    },
    {
      "channel": 2,
      "note": 47,
      "start": 36.1663,
      "duration": 0.1321,
      "velocity": 108,
      "chip": "ym2612"
    },
    {
      "channel": 3,
      "note": 35,
      "start": 36.167,
      "duration": 0.1321,
      "velocity": 108,
      "chip": "ym2612"
    },
    {
      "channel": 4,
      "note": 74,
      "start": 36.1682,
      "duration": 0.1314,
      "velocity": 65,
      "chip": "ym2612"
    },
    {
      "channel": 5,
      "note": 71,
      "start": 36.1689,
      "duration": 0.0815,
      "velocity": 122,
      "chip": "ym2612"
    },
    {
      "channel": 0,
      "note": 23,
      "start": 36.2977,
      "duration": 0.1653,
      "velocity": 124,
      "chip": "ym2612"
    },
    {
      "channel": 2,
      "note": 40,
      "start": 36.2988,
      "duration": 0.1483,
      "velocity": 107,
      "chip": "ym2612"
    },
    {
      "channel": 3,
      "note": 44,
      "start": 36.2995,
      "duration": 0.1483,
      "velocity": 107,
      "chip": "ym2612"
    },
    {
      "channel": 4,
      "note": 74,
      "start": 36.3008,
      "duration": 0.1478,
      "velocity": 59,
      "chip": "ym2612"
    },
    {
      "channel": 5,
      "note": 66,
      "start": 36.3014,
      "duration": 0.1478,
      "velocity": 122,
      "chip": "ym2612"
    },
    {
      "channel": 2,
      "note": 47,
      "start": 36.4477,
      "duration": 0.132,
      "velocity": 107,
      "chip": "ym2612"
    },
    {
      "channel": 3,
      "note": 35,
      "start": 36.4484,
      "duration": 0.132,
      "velocity": 107,
      "chip": "ym2612"
    },
    {
      "channel": 4,
      "note": 74,
      "start": 36.449,
      "duration": 0.1321,
      "velocity": 59,
      "chip": "ym2612"
    },
    {
      "channel": 5,
      "note": 59,
      "start": 36.4497,
      "duration": 0.0821,
      "velocity": 123,
      "chip": "ym2612"
    },
    {
      "channel": 0,
      "note": 23,
      "start": 36.579,
      "duration": 0.1654,
      "velocity": 124,
      "chip": "ym2612"
    },
    {
      "channel": 2,
      "note": 38,
      "start": 36.5802,
      "duration": 0.1483,
      "velocity": 106,
      "chip": "ym2612"
    },
    {
      "channel": 3,
      "note": 42,
      "start": 36.581,
      "duration": 0.1483,
      "velocity": 106,
      "chip": "ym2612"
    },
    {
      "channel": 4,
      "note": 74,
      "start": 36.5822,
      "duration": 0.1477,
      "velocity": 65,
      "chip": "ym2612"
    },
    {
      "channel": 5,
      "note": 23,
      "start": 36.5828,
      "duration": 0.098,
      "velocity": 123,
      "chip": "ym2612"
    },
    {
      "channel": 2,
      "note": 47,
      "start": 36.729,
      "duration": 0.1321,
      "velocity": 106,
      "chip": "ym2612"
    },
    {
      "channel": 3,
      "note": 35,
      "start": 36.7298,
      "duration": 0.1321,
      "velocity": 106,
      "chip": "ym2612"
    },
    {
      "channel": 4,
      "note": 74,
      "start": 36.731,
      "duration": 0.1315,
      "velocity": 59,
      "chip": "ym2612"
    },
    {
      "channel": 5,
      "note": 35,
      "start": 36.7317,
      "duration": 0.0815,
      "velocity": 123,
      "chip": "ym2612"
    },
    {
      "channel": 0,
      "note": 23,
      "start": 36.8605,
      "duration": 0.0992,
      "velocity": 124,
      "chip": "ym2612"
    },
    {
      "channel": 2,
      "note": 37,
      "start": 36.8616,
      "duration": 0.1485,
      "velocity": 105,
      "chip": "ym2612"
    },
    {
      "channel": 3,
      "note": 40,
      "start": 36.8623,
      "duration": 0.1485,
      "velocity": 105,
      "chip": "ym2612"
    },
    {
      "channel": 4,
      "note": 74,
      "start": 36.863,
      "duration": 0.1484,
      "velocity": 59,
      "chip": "ym2612"
    },
    {
      "channel": 5,
      "note": 59,
      "start": 36.8637,
      "duration": 0.0985,
      "velocity": 123,
      "chip": "ym2612"
    },
    {
      "channel": 0,
      "note": 23,
      "start": 37.0095,
      "duration": 0.0826,
      "velocity": 124,
      "chip": "ym2612"
    },
    {
      "channel": 2,
      "note": 47,
      "start": 37.0106,
      "duration": 0.1319,
      "velocity": 105,
      "chip": "ym2612"
    },
    {
      "channel": 3,
      "note": 35,
      "start": 37.0113,
      "duration": 0.1319,
      "velocity": 105,
      "chip": "ym2612"
    },
    {
      "channel": 4,
      "note": 74,
      "start": 37.0126,
      "duration": 0.1313,
      "velocity": 65,
      "chip": "ym2612"
    },
    {
      "channel": 0,
      "note": 23,
      "start": 37.1418,
      "duration": 0.1654,
      "velocity": 124,
      "chip": "ym2612"
    },
    {
      "channel": 2,
      "note": 47,
      "start": 37.143,
      "duration": 0.1483,
      "velocity": 104,
      "chip": "ym2612"
    },
    {
      "channel": 3,
      "note": 38,
      "start": 37.1437,
      "duration": 0.1483,
      "velocity": 104,
      "chip": "ym2612"
    },
    {
      "channel": 4,
      "note": 59,
      "start": 37.1449,
      "duration": 0.1477,
      "velocity": 119,
      "chip": "ym2612"
    },
    {
      "channel": 5,
      "note": 34,
      "start": 37.1461,
      "duration": 0.1478,
      "velocity": 64,
      "chip": "ym2612"
    },
    {
      "channel": 2,
      "note": 42,
      "start": 37.2918,
      "duration": 0.1321,
      "velocity": 104,
      "chip": "ym2612"
    },
    {
      "channel": 3,
      "note": 30,
      "start": 37.2925,
      "duration": 0.1321,
      "velocity": 104,
      "chip": "ym2612"
    },
    {
      "channel": 4,
      "note": 74,
      "start": 37.2938,
      "duration": 0.1315,
      "velocity": 65,
      "chip": "ym2612"
    },
    {
      "channel": 5,
      "note": 59,
      "start": 37.295,
      "duration": 0.081,
      "velocity": 123,
      "chip": "ym2612"
    },
    {
      "channel": 0,
      "note": 23,
      "start": 37.4233,
      "duration": 0.1653,
      "velocity": 124,
      "chip": "ym2612"
    },
    {
      "channel": 2,
      "note": 49,
      "start": 37.4245,
      "duration": 0.1482,
      "velocity": 103,
      "chip": "ym2612"
    },
    {
      "channel": 3,
      "note": 40,
      "start": 37.4252,
      "duration": 0.1483,
      "velocity": 103,
      "chip": "ym2612"
    },
    {
      "channel": 4,
      "note": 74,
      "start": 37.4264,
      "duration": 0.1478,
      "velocity": 59,
      "chip": "ym2612"
    },
    {
      "channel": 2,
      "note": 42,
      "start": 37.5733,
      "duration": 0.132,
      "velocity": 103,
      "chip": "ym2612"
    },
    {
      "channel": 3,
      "note": 30,
      "start": 37.574,
      "duration": 0.1319,
      "velocity": 103,
      "chip": "ym2612"
    },
    {
      "channel": 4,
      "note": 74,
      "start": 37.5746,
      "duration": 0.1321,
      "velocity": 59,
      "chip": "ym2612"
    },
    {
      "channel": 5,
      "note": 59,
      "start": 37.5753,
      "duration": 0.0821,
      "velocity": 123,
      "chip": "ym2612"
    },
    {
      "channel": 0,
      "note": 23,
      "start": 37.7046,
      "duration": 0.1654,
      "velocity": 124,
      "chip": "ym2612"
    },
    {
      "channel": 2,
      "note": 47,
      "start": 37.7058,
      "duration": 0.1482,
      "velocity": 102,
      "chip": "ym2612"
    },
    {
      "channel": 3,
      "note": 38,
      "start": 37.7066,
      "duration": 0.1482,
      "velocity": 102,
      "chip": "ym2612"
    },
    {
      "channel": 4,
      "note": 74,
      "start": 37.7078,
      "duration": 0.1476,
      "velocity": 65,
      "chip": "ym2612"
    },
    {
      "channel": 2,
      "note": 42,
      "start": 37.8546,
      "duration": 0.132,
      "velocity": 102,
      "chip": "ym2612"
    },
    {
      "channel": 3,
      "note": 30,
      "start": 37.8553,
      "duration": 0.1321,
      "velocity": 102,
      "chip": "ym2612"
    },
    {
      "channel": 4,
      "note": 74,
      "start": 37.8566,
      "duration": 0.1314,
      "velocity": 59,
      "chip": "ym2612"
    },
    {
      "channel": 5,
      "note": 34,
      "start": 37.8579,
      "duration": 0.1314,
      "velocity": 64,
      "chip": "ym2612"
    },
    {
      "channel": 0,
      "note": 23,
      "start": 37.986,
      "duration": 0.1653,
      "velocity": 124,
      "chip": "ym2612"
    },
    {
      "channel": 2,
      "note": 46,
      "start": 37.9872,
      "duration": 0.1483,
      "velocity": 101,
      "chip": "ym2612"
    },
    {
      "channel": 3,
      "note": 37,
      "start": 37.9879,
      "duration": 0.1483,
      "velocity": 101,
      "chip": "ym2612"
    },
    {
      "channel": 4,
      "note": 47,
      "start": 37.9891,
      "duration": 0.1478,
      "velocity": 119,
      "chip": "ym2612"
    },
    {
      "channel": 5,
      "note": 59,
      "start": 37.9904,
      "duration": 0.0973,
      "velocity": 123,
      "chip": "ym2612"
    },
    {
      "channel": 2,
      "note": 42,
      "start": 38.136,
      "duration": 0.132,
      "velocity": 101,
      "chip": "ym2612"
    },
    {
      "channel": 3,
      "note": 30,
      "start": 38.1367,
      "duration": 0.132,
      "velocity": 101,
      "chip": "ym2612"
    },
    {
      "channel": 4,
      "note": 74,
      "start": 38.138,
      "duration": 0.1315,
      "velocity": 65,
      "chip": "ym2612"
    },
    {
      "channel": 0,
      "note": 23,
      "start": 38.2674,
      "duration": 0.1654,
      "velocity": 124,
      "chip": "ym2612"
    },
    {
      "channel": 2,
      "note": 47,
      "start": 38.2686,
      "duration": 0.1483,
      "velocity": 100,
      "chip": "ym2612"
    },
    {
      "channel": 3,
      "note": 50,
      "start": 38.2693,
      "duration": 0.1483,
      "velocity": 100,
      "chip": "ym2612"
    },
    {
      "channel": 4,
      "note": 59,
      "start": 38.2705,
      "duration": 0.1477,
      "velocity": 119,
      "chip": "ym2612"
    },
    {
      "channel": 2,
      "note": 31,
      "start": 38.4174,
      "duration": 0.1321,
      "velocity": 100,
      "chip": "ym2612"
    },
    {
      "channel": 3,
      "note": 43,
      "start": 38.4181,
      "duration": 0.1321,
      "velocity": 100,
      "chip": "ym2612"
    },
    {
      "channel": 4,
      "note": 74,
      "start": 38.4194,
      "duration": 0.1314,
      "velocity": 65,
      "chip": "ym2612"
    },
    {
      "channel": 5,
      "note": 59,
      "start": 38.42,
      "duration": 0.0815,
      "velocity": 123,
      "chip": "ym2612"
    },
    {
      "channel": 0,
      "note": 23,
      "start": 38.5488,
      "duration": 0.1653,
      "velocity": 124,
      "chip": "ym2612"
    },
    {
      "channel": 2,
      "note": 49,
      "start": 38.55,
      "duration": 0.1483,
      "velocity": 101,
      "chip": "ym2612"
    },
    {
      "channel": 3,
      "note": 52,
      "start": 38.5507,
      "duration": 0.1483,
      "velocity": 101,
      "chip": "ym2612"
    },
    {
      "channel": 4,
      "note": 74,
      "start": 38.552,
      "duration": 0.1478,
      "velocity": 59,
      "chip": "ym2612"
    },
    {
      "channel": 2,
      "note": 31,
      "start": 38.6988,
      "duration": 0.132,
      "velocity": 101,
      "chip": "ym2612"
    },
    {
      "channel": 3,
      "note": 43,
      "start": 38.6995,
      "duration": 0.132,
      "velocity": 101,
      "chip": "ym2612"
    },
    {
      "channel": 4,
      "note": 74,
      "start": 38.7002,
      "duration": 0.1321,
      "velocity": 59,
      "chip": "ym2612"
    },
    {
      "channel": 5,
      "note": 59,
      "start": 38.7008,
      "duration": 0.0821,
      "velocity": 123,
      "chip": "ym2612"
    },
    {
      "channel": 0,
      "note": 23,
      "start": 38.8302,
      "duration": 0.1654,
      "velocity": 124,
      "chip": "ym2612"
    },
    {
      "channel": 2,
      "note": 47,
      "start": 38.8314,
      "duration": 0.1482,
      "velocity": 102,
      "chip": "ym2612"
    },
    {
      "channel": 3,
      "note": 50,
      "start": 38.8321,
      "duration": 0.1483,
      "velocity": 102,
      "chip": "ym2612"
    },
    {
      "channel": 4,
      "note": 74,
      "start": 38.8333,
      "duration": 0.1477,
      "velocity": 65,
      "chip": "ym2612"
    },
    {
      "channel": 2,
      "note": 31,
      "start": 38.9802,
      "duration": 0.1321,
      "velocity": 102,
      "chip": "ym2612"
    },
    {
      "channel": 3,
      "note": 43,
      "start": 38.9809,
      "duration": 0.1321,
      "velocity": 102,
      "chip": "ym2612"
    },
    {
      "channel": 4,
      "note": 74,
      "start": 38.9821,
      "duration": 0.1316,
      "velocity": 59,
      "chip": "ym2612"
    },
    {
      "channel": 0,
      "note": 23,
      "start": 39.1116,
      "duration": 0.1653,
      "velocity": 124,
      "chip": "ym2612"
    },
    {
      "channel": 2,
      "note": 45,
      "start": 39.1128,
      "duration": 0.1483,
      "velocity": 103,
      "chip": "ym2612"
    },
    {
      "channel": 3,
      "note": 49,
      "start": 39.1135,
      "duration": 0.1483,
      "velocity": 103,
      "chip": "ym2612"
    },
    {
      "channel": 4,
      "note": 74,
      "start": 39.1141,
      "duration": 0.1483,
      "velocity": 59,
      "chip": "ym2612"
    },
    {
      "channel": 5,
      "note": 59,
      "start": 39.1148,
      "duration": 0.0985,
      "velocity": 123,
      "chip": "ym2612"
    },
    {
      "channel": 2,
      "note": 31,
      "start": 39.2616,
      "duration": 0.132,
      "velocity": 103,
      "chip": "ym2612"
    },
    {
      "channel": 3,
      "note": 43,
      "start": 39.2623,
      "duration": 0.132,
      "velocity": 103,
      "chip": "ym2612"
    },
    {
      "channel": 4,
      "note": 74,
      "start": 39.2635,
      "duration": 0.1315,
      "velocity": 65,
      "chip": "ym2612"
    },
    {
      "channel": 0,
      "note": 23,
      "start": 39.393,
      "duration": 0.1654,
      "velocity": 124,
      "chip": "ym2612"
    },
    {
      "channel": 2,
      "note": 47,
      "start": 39.3942,
      "duration": 0.1483,
      "velocity": 104,
      "chip": "ym2612"
    },
    {
      "channel": 3,
      "note": 43,
      "start": 39.3949,
      "duration": 0.1483,
      "velocity": 104,
      "chip": "ym2612"
    },
    {
      "channel": 4,
      "note": 59,
      "start": 39.3961,
      "duration": 0.1477,
      "velocity": 119,
      "chip": "ym2612"
    },
    {
      "channel": 5,
      "note": 34,
      "start": 39.3973,
      "duration": 0.1478,
      "velocity": 64,
      "chip": "ym2612"
    },
    {
      "channel": 2,
      "note": 40,
      "start": 39.543,
      "duration": 0.1321,
      "velocity": 104,
      "chip": "ym2612"
    },
    {
      "channel": 3,
      "note": 47,
      "start": 39.5437,
      "duration": 0.1321,
      "velocity": 104,
      "chip": "ym2612"
    },
    {
      "channel": 4,
      "note": 74,
      "start": 39.5449,
      "duration": 0.1314,
      "velocity": 65,
      "chip": "ym2612"
    },
    {
      "channel": 5,
      "note": 59,
      "start": 39.5461,
      "duration": 0.0809,
      "velocity": 123,
      "chip": "ym2612"
    },
    {
      "channel": 0,
      "note": 23,
      "start": 39.6744,
      "duration": 0.1654,
      "velocity": 124,
      "chip": "ym2612"
    },
    {
      "channel": 2,
      "note": 47,
      "start": 39.6756,
      "duration": 0.1483,
      "velocity": 105,
      "chip": "ym2612"
    },
    {
      "channel": 3,
      "note": 43,
      "start": 39.6762,
      "duration": 0.1483,
      "velocity": 105,
      "chip": "ym2612"
    },
    {
      "channel": 4,
      "note": 74,
      "start": 39.6775,
      "duration": 0.1478,
      "velocity": 59,
      "chip": "ym2612"
    },
    {
      "channel": 2,
      "note": 40,
      "start": 39.8244,
      "duration": 0.1321,
      "velocity": 105,
      "chip": "ym2612"
    },
    {
      "channel": 3,
      "note": 47,
      "start": 39.8252,
      "duration": 0.132,
      "velocity": 105,
      "chip": "ym2612"
    },
    {
      "channel": 4,
      "note": 74,
      "start": 39.8258,
      "duration": 0.1321,
      "velocity": 59,
      "chip": "ym2612"
    },
    {
      "channel": 0,
      "note": 23,
      "start": 39.9558,
      "duration": 0.1654,
      "velocity": 124,
      "chip": "ym2612"
    },
    {
      "channel": 2,
      "note": 47,
      "start": 39.957,
      "duration": 0.1482,
      "velocity": 106,
      "chip": "ym2612"
    },
    {
      "channel": 3,
      "note": 43,
      "start": 39.9577,
      "duration": 0.1482,
      "velocity": 106,
      "chip": "ym2612"
    },
    {
      "channel": 4,
      "note": 74,
      "start": 39.9589,
      "duration": 0.1477,
      "velocity": 65,
      "chip": "ym2612"
    },
    {
      "channel": 2,
      "note": 40,
      "start": 40.1058,
      "duration": 0.1321,
      "velocity": 106,
      "chip": "ym2612"
    },
    {
      "channel": 3,
      "note": 35,
      "start": 40.1065,
      "duration": 0.132,
      "velocity": 106,
      "chip": "ym2612"
    },
    {
      "channel": 4,
      "note": 74,
      "start": 40.1077,
      "duration": 0.1315,
      "velocity": 59,
      "chip": "ym2612"
    },
    {
      "channel": 0,
      "note": 23,
      "start": 40.2372,
      "duration": 0.1653,
      "velocity": 124,
      "chip": "ym2612"
    },
    {
      "channel": 2,
      "note": 40,
      "start": 40.2383,
      "duration": 0.1483,
      "velocity": 107,
      "chip": "ym2612"
    },
    {
      "channel": 3,
      "note": 36,
      "start": 40.239,
      "duration": 0.1483,
      "velocity": 107,
      "chip": "ym2612"
    },
    {
      "channel": 4,
      "note": 74,
      "start": 40.2397,
      "duration": 0.1483,
      "velocity": 59,
      "chip": "ym2612"
    },
    {
      "channel": 5,
      "note": 22,
      "start": 40.241,
      "duration": 0.0978,
      "velocity": 64,
      "chip": "ym2612"
    },
    {
      "channel": 2,
      "note": 47,
      "start": 40.3871,
      "duration": 0.1322,
      "velocity": 107,
      "chip": "ym2612"
    },
    {
      "channel": 3,
      "note": 35,
      "start": 40.3879,
      "duration": 0.1322,
      "velocity": 107,
      "chip": "ym2612"
    },
    {
      "channel": 4,
      "note": 74,
      "start": 40.3891,
      "duration": 0.1317,
      "velocity": 65,
      "chip": "ym2612"
    },
    {
      "channel": 5,
      "note": 34,
      "start": 40.3898,
      "duration": 0.0815,
      "velocity": 64,
      "chip": "ym2612"
    },
    {
      "channel": 0,
      "note": 23,
      "start": 40.5185,
      "duration": 0.1654,
      "velocity": 124,
      "chip": "ym2612"
    },
    {
      "channel": 1,
      "note": 23,
      "start": 40.5192,
      "duration": 4.5018,
      "velocity": 122,
      "chip": "ym2612"
    },
    {
      "channel": 2,
      "note": 38,
      "start": 40.5199,
      "duration": 0.1481,
      "velocity": 108,
      "chip": "ym2612"
    },
    {
      "channel": 3,
      "note": 42,
      "start": 40.5207,
      "duration": 0.1481,
      "velocity": 108,
      "chip": "ym2612"
    },
    {
      "channel": 4,
      "note": 59,
      "start": 40.5219,
      "duration": 0.1475,
      "velocity": 119,
      "chip": "ym2612"
    },
    {
      "channel": 5,
      "note": 71,
      "start": 40.5231,
      "duration": 0.1475,
      "velocity": 122,
      "chip": "ym2612"
    },
    {
      "channel": 2,
      "note": 47,
      "start": 40.6685,
      "duration": 0.1321,
      "velocity": 108,
      "chip": "ym2612"
    },
    {
      "channel": 3,
      "note": 35,
      "start": 40.6693,
      "duration": 0.1321,
      "velocity": 108,
      "chip": "ym2612"
    },
    {
      "channel": 4,
      "note": 74,
      "start": 40.6705,
      "duration": 0.1315,
      "velocity": 65,
      "chip": "ym2612"
    },
    {
      "channel": 5,
      "note": 71,
      "start": 40.6712,
      "duration": 0.0815,
      "velocity": 122,
      "chip": "ym2612"
    },
    {
      "channel": 0,
      "note": 23,
      "start": 40.8,
      "duration": 0.1653,
      "velocity": 124,
      "chip": "ym2612"
    },
    {
      "channel": 2,
      "note": 40,
      "start": 40.8011,
      "duration": 0.1483,
      "velocity": 107,
      "chip": "ym2612"
    },
    {
      "channel": 3,
      "note": 44,
      "start": 40.8018,
      "duration": 0.1483,
      "velocity": 107,
      "chip": "ym2612"
    },
    {
      "channel": 4,
      "note": 74,
      "start": 40.8031,
      "duration": 0.1477,
      "velocity": 59,
      "chip": "ym2612"
    },
    {
      "channel": 5,
      "note": 66,
      "start": 40.8037,
      "duration": 0.1478,
      "velocity": 122,
      "chip": "ym2612"
    },
    {
      "channel": 2,
      "note": 47,
      "start": 40.9499,
      "duration": 0.1321,
      "velocity": 107,
      "chip": "ym2612"
    },
    {
      "channel": 3,
      "note": 35,
      "start": 40.9507,
      "duration": 0.132,
      "velocity": 107,
      "chip": "ym2612"
    },
    {
      "channel": 4,
      "note": 74,
      "start": 40.9513,
      "duration": 0.1321,
      "velocity": 59,
      "chip": "ym2612"
    },
    {
      "channel": 5,
      "note": 59,
      "start": 40.952,
      "duration": 0.0821,
      "velocity": 123,
      "chip": "ym2612"
    },
    {
      "channel": 0,
      "note": 23,
      "start": 41.0813,
      "duration": 0.1654,
      "velocity": 124,
      "chip": "ym2612"
    },
    {
      "channel": 2,
      "note": 38,
      "start": 41.0825,
      "duration": 0.1482,
      "velocity": 106,
      "chip": "ym2612"
    },
    {
      "channel": 3,
      "note": 42,
      "start": 41.0832,
      "duration": 0.1483,
      "velocity": 106,
      "chip": "ym2612"
    },
    {
      "channel": 4,
      "note": 74,
      "start": 41.0844,
      "duration": 0.1477,
      "velocity": 65,
      "chip": "ym2612"
    },
    {
      "channel": 5,
      "note": 23,
      "start": 41.0851,
      "duration": 0.098,
      "velocity": 123,
      "chip": "ym2612"
    },
    {
      "channel": 2,
      "note": 47,
      "start": 41.2313,
      "duration": 0.1321,
      "velocity": 106,
      "chip": "ym2612"
    },
    {
      "channel": 3,
      "note": 35,
      "start": 41.232,
      "duration": 0.1321,
      "velocity": 106,
      "chip": "ym2612"
    },
    {
      "channel": 4,
      "note": 74,
      "start": 41.2332,
      "duration": 0.1315,
      "velocity": 59,
      "chip": "ym2612"
    },
    {
      "channel": 5,
      "note": 35,
      "start": 41.2339,
      "duration": 0.0815,
      "velocity": 123,
      "chip": "ym2612"
    },
    {
      "channel": 0,
      "note": 23,
      "start": 41.3628,
      "duration": 0.0991,
      "velocity": 124,
      "chip": "ym2612"
    },
    {
      "channel": 2,
      "note": 37,
      "start": 41.3639,
      "duration": 0.1484,
      "velocity": 105,
      "chip": "ym2612"
    },
    {
      "channel": 3,
      "note": 40,
      "start": 41.3646,
      "duration": 0.1485,
      "velocity": 105,
      "chip": "ym2612"
    },
    {
      "channel": 4,
      "note": 74,
      "start": 41.3653,
      "duration": 0.1484,
      "velocity": 59,
      "chip": "ym2612"
    },
    {
      "channel": 5,
      "note": 59,
      "start": 41.3659,
      "duration": 0.0985,
      "velocity": 123,
      "chip": "ym2612"
    },
    {
      "channel": 0,
      "note": 23,
      "start": 41.5117,
      "duration": 0.0826,
      "velocity": 124,
      "chip": "ym2612"
    },
    {
      "channel": 2,
      "note": 47,
      "start": 41.5129,
      "duration": 0.1319,
      "velocity": 105,
      "chip": "ym2612"
    },
    {
      "channel": 3,
      "note": 35,
      "start": 41.5136,
      "duration": 0.1319,
      "velocity": 105,
      "chip": "ym2612"
    },
    {
      "channel": 4,
      "note": 74,
      "start": 41.5148,
      "duration": 0.1314,
      "velocity": 65,
      "chip": "ym2612"
    },
    {
      "channel": 0,
      "note": 23,
      "start": 41.6441,
      "duration": 0.1654,
      "velocity": 124,
      "chip": "ym2612"
    },
    {
      "channel": 2,
      "note": 47,
      "start": 41.6453,
      "duration": 0.1483,
      "velocity": 104,
      "chip": "ym2612"
    },
    {
      "channel": 3,
      "note": 38,
      "start": 41.646,
      "duration": 0.1483,
      "velocity": 104,
      "chip": "ym2612"
    },
    {
      "channel": 4,
      "note": 59,
      "start": 41.6472,
      "duration": 0.1477,
      "velocity": 119,
      "chip": "ym2612"
    },
    {
      "channel": 5,
      "note": 34,
      "start": 41.6484,
      "duration": 0.1478,
      "velocity": 64,
      "chip": "ym2612"
    },
    {
      "channel": 2,
      "note": 42,
      "start": 41.7941,
      "duration": 0.1321,
      "velocity": 104,
      "chip": "ym2612"
    },
    {
      "channel": 3,
      "note": 30,
      "start": 41.7948,
      "duration": 0.132,
      "velocity": 104,
      "chip": "ym2612"
    },
    {
      "channel": 4,
      "note": 74,
      "start": 41.796,
      "duration": 0.1315,
      "velocity": 65,
      "chip": "ym2612"
    },
    {
      "channel": 5,
      "note": 59,
      "start": 41.7973,
      "duration": 0.0809,
      "velocity": 123,
      "chip": "ym2612"
    },
    {
      "channel": 0,
      "note": 23,
      "start": 41.9256,
      "duration": 0.1653,
      "velocity": 124,
      "chip": "ym2612"
    },
    {
      "channel": 2,
      "note": 49,
      "start": 41.9267,
      "duration": 0.1483,
      "velocity": 103,
      "chip": "ym2612"
    },
    {
      "channel": 3,
      "note": 40,
      "start": 41.9274,
      "duration": 0.1483,
      "velocity": 103,
      "chip": "ym2612"
    },
    {
      "channel": 4,
      "note": 74,
      "start": 41.9287,
      "duration": 0.1477,
      "velocity": 59,
      "chip": "ym2612"
    },
    {
      "channel": 2,
      "note": 42,
      "start": 42.0755,
      "duration": 0.1321,
      "velocity": 103,
      "chip": "ym2612"
    },
    {
      "channel": 3,
      "note": 30,
      "start": 42.0762,
      "duration": 0.1321,
      "velocity": 103,
      "chip": "ym2612"
    },
    {
      "channel": 4,
      "note": 74,
      "start": 42.0769,
      "duration": 0.1321,
      "velocity": 59,
      "chip": "ym2612"
    },
    {
      "channel": 5,
      "note": 59,
      "start": 42.0775,
      "duration": 0.0821,
      "velocity": 123,
      "chip": "ym2612"
    },
    {
      "channel": 0,
      "note": 23,
      "start": 42.207,
      "duration": 0.1653,
      "velocity": 124,
      "chip": "ym2612"
    },
    {
      "channel": 2,
      "note": 47,
      "start": 42.2081,
      "duration": 0.1483,
      "velocity": 102,
      "chip": "ym2612"
    },
    {
      "channel": 3,
      "note": 38,
      "start": 42.2088,
      "duration": 0.1483,
      "velocity": 102,
      "chip": "ym2612"
    },
    {
      "channel": 4,
      "note": 74,
      "start": 42.2101,
      "duration": 0.1477,
      "velocity": 65,
      "chip": "ym2612"
    },
    {
      "channel": 2,
      "note": 42,
      "start": 42.357,
      "duration": 0.132,
      "velocity": 102,
      "chip": "ym2612"
    },
    {
      "channel": 3,
      "note": 30,
      "start": 42.3577,
      "duration": 0.132,
      "velocity": 102,
      "chip": "ym2612"
    },
    {
      "channel": 4,
      "note": 74,
      "start": 42.3589,
      "duration": 0.1315,
      "velocity": 59,
      "chip": "ym2612"
    },
    {
      "channel": 5,
      "note": 34,
      "start": 42.3601,
      "duration": 0.1315,
      "velocity": 64,
      "chip": "ym2612"
    },
    {
      "channel": 0,
      "note": 23,
      "start": 42.4883,
      "duration": 0.1653,
      "velocity": 124,
      "chip": "ym2612"
    },
    {
      "channel": 2,
      "note": 46,
      "start": 42.4895,
      "duration": 0.1483,
      "velocity": 101,
      "chip": "ym2612"
    },
    {
      "channel": 3,
      "note": 37,
      "start": 42.4902,
      "duration": 0.1482,
      "velocity": 101,
      "chip": "ym2612"
    },
    {
      "channel": 4,
      "note": 47,
      "start": 42.4915,
      "duration": 0.1477,
      "velocity": 119,
      "chip": "ym2612"
    },
    {
      "channel": 5,
      "note": 59,
      "start": 42.4927,
      "duration": 0.0974,
      "velocity": 123,
      "chip": "ym2612"
    },
    {
      "channel": 2,
      "note": 42,
      "start": 42.6383,
      "duration": 0.132,
      "velocity": 101,
      "chip": "ym2612"
    },
    {
      "channel": 3,
      "note": 30,
      "start": 42.639,
      "duration": 0.132,
      "velocity": 101,
      "chip": "ym2612"
    },
    {
      "channel": 4,
      "note": 74,
      "start": 42.6403,
      "duration": 0.1314,
      "velocity": 65,
      "chip": "ym2612"
    },
    {
      "channel": 0,
      "note": 23,
      "start": 42.7697,
      "duration": 0.1654,
      "velocity": 124,
      "chip": "ym2612"
    },
    {
      "channel": 2,
      "note": 47,
      "start": 42.7708,
      "duration": 0.1483,
      "velocity": 100,
      "chip": "ym2612"
    },
    {
      "channel": 3,
      "note": 50,
      "start": 42.7716,
      "duration": 0.1482,
      "velocity": 100,
      "chip": "ym2612"
    },
    {
      "channel": 4,
      "note": 59,
      "start": 42.7728,
      "duration": 0.1477,
      "velocity": 119,
      "chip": "ym2612"
    },
    {
      "channel": 2,
      "note": 31,
      "start": 42.9197,
      "duration": 0.1321,
      "velocity": 100,
      "chip": "ym2612"
    },
    {
      "channel": 3,
      "note": 43,
      "start": 42.9204,
      "duration": 0.1321,
      "velocity": 100,
      "chip": "ym2612"
    },
    {
      "channel": 4,
      "note": 74,
      "start": 42.9216,
      "duration": 0.1315,
      "velocity": 65,
      "chip": "ym2612"
    },
    {
      "channel": 5,
      "note": 59,
      "start": 42.9223,
      "duration": 0.0815,
      "velocity": 123,
      "chip": "ym2612"
    },
    {
      "channel": 0,
      "note": 23,
      "start": 43.0511,
      "duration": 0.1653,
      "velocity": 124,
      "chip": "ym2612"
    },
    {
      "channel": 2,
      "note": 49,
      "start": 43.0523,
      "duration": 0.1483,
      "velocity": 101,
      "chip": "ym2612"
    },
    {
      "channel": 3,
      "note": 52,
      "start": 43.053,
      "duration": 0.1483,
      "velocity": 101,
      "chip": "ym2612"
    },
    {
      "channel": 4,
      "note": 74,
      "start": 43.0542,
      "duration": 0.1477,
      "velocity": 59,
      "chip": "ym2612"
    },
    {
      "channel": 2,
      "note": 31,
      "start": 43.201,
      "duration": 0.1321,
      "velocity": 101,
      "chip": "ym2612"
    },
    {
      "channel": 3,
      "note": 43,
      "start": 43.2017,
      "duration": 0.1321,
      "velocity": 101,
      "chip": "ym2612"
    },
    {
      "channel": 4,
      "note": 74,
      "start": 43.2024,
      "duration": 0.1321,
      "velocity": 59,
      "chip": "ym2612"
    },
    {
      "channel": 5,
      "note": 59,
      "start": 43.2031,
      "duration": 0.0821,
      "velocity": 123,
      "chip": "ym2612"
    },
    {
      "channel": 0,
      "note": 23,
      "start": 43.3325,
      "duration": 0.1654,
      "velocity": 124,
      "chip": "ym2612"
    },
    {
      "channel": 2,
      "note": 47,
      "start": 43.3336,
      "duration": 0.1483,
      "velocity": 102,
      "chip": "ym2612"
    },
    {
      "channel": 3,
      "note": 50,
      "start": 43.3344,
      "duration": 0.1482,
      "velocity": 102,
      "chip": "ym2612"
    },
    {
      "channel": 4,
      "note": 74,
      "start": 43.3356,
      "duration": 0.1477,
      "velocity": 65,
      "chip": "ym2612"
    },
    {
      "channel": 2,
      "note": 31,
      "start": 43.4825,
      "duration": 0.1321,
      "velocity": 102,
      "chip": "ym2612"
    },
    {
      "channel": 3,
      "note": 43,
      "start": 43.4832,
      "duration": 0.1321,
      "velocity": 102,
      "chip": "ym2612"
    },
    {
      "channel": 4,
      "note": 74,
      "start": 43.4844,
      "duration": 0.1316,
      "velocity": 59,
      "chip": "ym2612"
    },
    {
      "channel": 0,
      "note": 23,
      "start": 43.6139,
      "duration": 0.1653,
      "velocity": 124,
      "chip": "ym2612"
    },
    {
      "channel": 2,
      "note": 45,
      "start": 43.6151,
      "duration": 0.1483,
      "velocity": 103,
      "chip": "ym2612"
    },
    {
      "channel": 3,
      "note": 49,
      "start": 43.6157,
      "duration": 0.1483,
      "velocity": 103,
      "chip": "ym2612"
    },
    {
      "channel": 4,
      "note": 74,
      "start": 43.6164,
      "duration": 0.1483,
      "velocity": 59,
      "chip": "ym2612"
    },
    {
      "channel": 5,
      "note": 59,
      "start": 43.6171,
      "duration": 0.0985,
      "velocity": 123,
      "chip": "ym2612"
    },
    {
      "channel": 2,
      "note": 31,
      "start": 43.7638,
      "duration": 0.1321,
      "velocity": 103,
      "chip": "ym2612"
    },
    {
      "channel": 3,
      "note": 43,
      "start": 43.7646,
      "duration": 0.132,
      "velocity": 103,
      "chip": "ym2612"
    },
    {
      "channel": 4,
      "note": 74,
      "start": 43.7658,
      "duration": 0.1315,
      "velocity": 65,
      "chip": "ym2612"
    },
    {
      "channel": 0,
      "note": 23,
      "start": 43.8953,
      "duration": 0.1654,
      "velocity": 124,
      "chip": "ym2612"
    },
    {
      "channel": 2,
      "note": 47,
      "start": 43.8964,
      "duration": 0.1483,
      "velocity": 104,
      "chip": "ym2612"
    },
    {
      "channel": 3,
      "note": 43,
      "start": 43.8972,
      "duration": 0.1483,
      "velocity": 104,
      "chip": "ym2612"
    },
    {
      "channel": 4,
      "note": 59,
      "start": 43.8984,
      "duration": 0.1477,
      "velocity": 119,
      "chip": "ym2612"
    },
    {
      "channel": 5,
      "note": 34,
      "start": 43.8996,
      "duration": 0.1478,
      "velocity": 64,
      "chip": "ym2612"
    },
    {
      "channel": 2,
      "note": 40,
      "start": 44.0453,
      "duration": 0.132,
      "velocity": 104,
      "chip": "ym2612"
    },
    {
      "channel": 3,
      "note": 47,
      "start": 44.046,
      "duration": 0.1321,
      "velocity": 104,
      "chip": "ym2612"
    },
    {
      "channel": 4,
      "note": 74,
      "start": 44.0472,
      "duration": 0.1315,
      "velocity": 65,
      "chip": "ym2612"
    },
    {
      "channel": 5,
      "note": 59,
      "start": 44.0484,
      "duration": 0.0809,
      "velocity": 123,
      "chip": "ym2612"
    },
    {
      "channel": 0,
      "note": 23,
      "start": 44.1766,
      "duration": 0.1654,
      "velocity": 124,
      "chip": "ym2612"
    },
    {
      "channel": 2,
      "note": 47,
      "start": 44.1778,
      "duration": 0.1483,
      "velocity": 105,
      "chip": "ym2612"
    },
    {
      "channel": 3,
      "note": 43,
      "start": 44.1785,
      "duration": 0.1483,
      "velocity": 105,
      "chip": "ym2612"
    },
    {
      "channel": 4,
      "note": 74,
      "start": 44.1798,
      "duration": 0.1478,
      "velocity": 59,
      "chip": "ym2612"
    },
    {
      "channel": 2,
      "note": 40,
      "start": 44.3266,
      "duration": 0.1321,
      "velocity": 105,
      "chip": "ym2612"
    },
    {
      "channel": 3,
      "note": 47,
      "start": 44.3273,
      "duration": 0.1321,
      "velocity": 105,
      "chip": "ym2612"
    },
    {
      "channel": 4,
      "note": 74,
      "start": 44.328,
      "duration": 0.1321,
      "velocity": 59,
      "chip": "ym2612"
    },
    {
      "channel": 0,
      "note": 23,
      "start": 44.458,
      "duration": 0.1654,
      "velocity": 124,
      "chip": "ym2612"
    },
    {
      "channel": 2,
      "note": 47,
      "start": 44.4592,
      "duration": 0.1483,
      "velocity": 106,
      "chip": "ym2612"
    },
    {
      "channel": 3,
      "note": 43,
      "start": 44.46,
      "duration": 0.1483,
      "velocity": 106,
      "chip": "ym2612"
    },
    {
      "channel": 4,
      "note": 74,
      "start": 44.4612,
      "duration": 0.1478,
      "velocity": 65,
      "chip": "ym2612"
    },
    {
      "channel": 2,
      "note": 40,
      "start": 44.6081,
      "duration": 0.132,
      "velocity": 106,
      "chip": "ym2612"
    },
    {
      "channel": 3,
      "note": 35,
      "start": 44.6088,
      "duration": 0.1321,
      "velocity": 106,
      "chip": "ym2612"
    },
    {
      "channel": 4,
      "note": 74,
      "start": 44.61,
      "duration": 0.1315,
      "velocity": 59,
      "chip": "ym2612"
    },
    {
      "channel": 0,
      "note": 23,
      "start": 44.7395,
      "duration": 0.1653,
      "velocity": 124,
      "chip": "ym2612"
    },
    {
      "channel": 2,
      "note": 40,
      "start": 44.7407,
      "duration": 0.1482,
      "velocity": 107,
      "chip": "ym2612"
    },
    {
      "channel": 3,
      "note": 36,
      "start": 44.7414,
      "duration": 0.1482,
      "velocity": 107,
      "chip": "ym2612"
    },
    {
      "channel": 4,
      "note": 74,
      "start": 44.742,
      "duration": 0.1483,
      "velocity": 59,
      "chip": "ym2612"
    },
    {
      "channel": 5,
      "note": 22,
      "start": 44.7433,
      "duration": 0.0979,
      "velocity": 64,
      "chip": "ym2612"
    },
    {
      "channel": 2,
      "note": 47,
      "start": 44.8894,
      "duration": 0.1328,
      "velocity": 107,
      "chip": "ym2612"
    },
    {
      "channel": 3,
      "note": 35,
      "start": 44.8902,
      "duration": 0.1333,
      "velocity": 107,
      "chip": "ym2612"
    },
    {
      "channel": 4,
      "note": 74,
      "start": 44.8914,
      "duration": 0.1334,
      "velocity": 65,
      "chip": "ym2612"
    },
    {
      "channel": 5,
      "note": 34,
      "start": 44.8921,
      "duration": 0.0815,
      "velocity": 64,
      "chip": "ym2612"
    },
    {
      "channel": 0,
      "note": 35,
      "start": 45.0208,
      "duration": 0.1485,
      "velocity": 124,
      "chip": "ym2612"
    },
    {
      "channel": 1,
      "note": 7,
      "start": 45.0221,
      "duration": 2.2501,
      "velocity": 1,
      "chip": "ym2612"
    },
    {
      "channel": 2,
      "note": 71,
      "start": 45.0234,
      "duration": 0.147,
      "velocity": 120,
      "chip": "ym2612"
    },
    {
      "channel": 3,
      "note": 59,
      "start": 45.0246,
      "duration": 0.147,
      "velocity": 119,
      "chip": "ym2612"
    },
    {
      "channel": 4,
      "note": 7,
      "start": 45.0259,
      "duration": 2.2495,
      "velocity": 1,
      "chip": "ym2612"
    },
    {
      "channel": 5,
      "note": 7,
      "start": 45.0271,
      "duration": 2.2489,
      "velocity": 1,
      "chip": "ym2612"
    },
    {
      "channel": 0,
      "note": 35,
      "start": 45.1698,
      "duration": 0.1319,
      "velocity": 124,
      "chip": "ym2612"
    },
    {
      "channel": 2,
      "note": 71,
      "start": 45.1715,
      "duration": 0.1314,
      "velocity": 120,
      "chip": "ym2612"
    },
    {
      "channel": 3,
      "note": 74,
      "start": 45.1727,
      "duration": 0.1314,
      "velocity": 65,
      "chip": "ym2612"
    },
    {
      "channel": 0,
      "note": 23,
      "start": 45.3022,
      "duration": 0.1485,
      "velocity": 124,
      "chip": "ym2612"
    },
    {
      "channel": 2,
      "note": 71,
      "start": 45.3039,
      "duration": 0.1479,
      "velocity": 120,
      "chip": "ym2612"
    },
    {
      "channel": 3,
      "note": 74,
      "start": 45.3051,
      "duration": 0.1479,
      "velocity": 59,
      "chip": "ym2612"
    },
    {
      "channel": 0,
      "note": 23,
      "start": 45.4512,
      "duration": 0.132,
      "velocity": 124,
      "chip": "ym2612"
    },
    {
      "channel": 2,
      "note": 47,
      "start": 45.4528,
      "duration": 0.1314,
      "velocity": 124,
      "chip": "ym2612"
    },
    {
      "channel": 3,
      "note": 74,
      "start": 45.4535,
      "duration": 0.1319,
      "velocity": 59,
      "chip": "ym2612"
    },
    {
      "channel": 0,
      "note": 35,
      "start": 45.5836,
      "duration": 0.1485,
      "velocity": 124,
      "chip": "ym2612"
    },
    {
      "channel": 2,
      "note": 71,
      "start": 45.5853,
      "duration": 0.1479,
      "velocity": 120,
      "chip": "ym2612"
    },
    {
      "channel": 3,
      "note": 74,
      "start": 45.5865,
      "duration": 0.1479,
      "velocity": 65,
      "chip": "ym2612"
    },
    {
      "channel": 0,
      "note": 23,
      "start": 45.7326,
      "duration": 0.1319,
      "velocity": 124,
      "chip": "ym2612"
    },
    {
      "channel": 2,
      "note": 71,
      "start": 45.7343,
      "duration": 0.1314,
      "velocity": 120,
      "chip": "ym2612"
    },
    {
      "channel": 3,
      "note": 74,
      "start": 45.7355,
      "duration": 0.1314,
      "velocity": 59,
      "chip": "ym2612"
    },
    {
      "channel": 0,
      "note": 23,
      "start": 45.865,
      "duration": 0.1485,
      "velocity": 124,
      "chip": "ym2612"
    },
    {
      "channel": 2,
      "note": 71,
      "start": 45.8666,
      "duration": 0.1479,
      "velocity": 120,
      "chip": "ym2612"
    },
    {
      "channel": 3,
      "note": 74,
      "start": 45.8673,
      "duration": 0.1484,
      "velocity": 59,
      "chip": "ym2612"
    },
    {
      "channel": 0,
      "note": 35,
      "start": 46.014,
      "duration": 0.1319,
      "velocity": 124,
      "chip": "ym2612"
    },
    {
      "channel": 2,
      "note": 71,
      "start": 46.0156,
      "duration": 0.1314,
      "velocity": 120,
      "chip": "ym2612"
    },
    {
      "channel": 3,
      "note": 74,
      "start": 46.0168,
      "duration": 0.1314,
      "velocity": 65,
      "chip": "ym2612"
    },
    {
      "channel": 0,
      "note": 23,
      "start": 46.1464,
      "duration": 0.1485,
      "velocity": 124,
      "chip": "ym2612"
    },
    {
      "channel": 2,
      "note": 71,
      "start": 46.1481,
      "duration": 0.1479,
      "velocity": 120,
      "chip": "ym2612"
    },
    {
      "channel": 3,
      "note": 59,
      "start": 46.1493,
      "duration": 0.1479,
      "velocity": 119,
      "chip": "ym2612"
    },
    {
      "channel": 0,
      "note": 35,
      "start": 46.2954,
      "duration": 0.1319,
      "velocity": 124,
      "chip": "ym2612"
    },
    {
      "channel": 2,
      "note": 71,
      "start": 46.2971,
      "duration": 0.1314,
      "velocity": 120,
      "chip": "ym2612"
    },
    {
      "channel": 3,
      "note": 74,
      "start": 46.2983,
      "duration": 0.1314,
      "velocity": 65,
      "chip": "ym2612"
    },
    {
      "channel": 0,
      "note": 23,
      "start": 46.4278,
      "duration": 0.1485,
      "velocity": 124,
      "chip": "ym2612"
    },
    {
      "channel": 2,
      "note": 71,
      "start": 46.4294,
      "duration": 0.1479,
      "velocity": 120,
      "chip": "ym2612"
    },
    {
      "channel": 3,
      "note": 74,
      "start": 46.4307,
      "duration": 0.1479,
      "velocity": 59,
      "chip": "ym2612"
    },
    {
      "channel": 0,
      "note": 23,
      "start": 46.5768,
      "duration": 0.1319,
      "velocity": 124,
      "chip": "ym2612"
    },
    {
      "channel": 2,
      "note": 71,
      "start": 46.5784,
      "duration": 0.1314,
      "velocity": 120,
      "chip": "ym2612"
    },
    {
      "channel": 3,
      "note": 74,
      "start": 46.579,
      "duration": 0.1319,
      "velocity": 59,
      "chip": "ym2612"
    },
    {
      "channel": 0,
      "note": 35,
      "start": 46.7092,
      "duration": 0.1485,
      "velocity": 124,
      "chip": "ym2612"
    },
    {
      "channel": 2,
      "note": 71,
      "start": 46.7108,
      "duration": 0.1479,
      "velocity": 120,
      "chip": "ym2612"
    },
    {
      "channel": 3,
      "note": 74,
      "start": 46.7121,
      "duration": 0.1479,
      "velocity": 65,
      "chip": "ym2612"
    },
    {
      "channel": 0,
      "note": 23,
      "start": 46.8582,
      "duration": 0.132,
      "velocity": 124,
      "chip": "ym2612"
    },
    {
      "channel": 2,
      "note": 71,
      "start": 46.8598,
      "duration": 0.1314,
      "velocity": 120,
      "chip": "ym2612"
    },
    {
      "channel": 3,
      "note": 74,
      "start": 46.861,
      "duration": 0.1314,
      "velocity": 59,
      "chip": "ym2612"
    },
    {
      "channel": 0,
      "note": 23,
      "start": 46.9906,
      "duration": 0.1485,
      "velocity": 124,
      "chip": "ym2612"
    },
    {
      "channel": 2,
      "note": 71,
      "start": 46.9923,
      "duration": 0.1479,
      "velocity": 120,
      "chip": "ym2612"
    },
    {
      "channel": 3,
      "note": 47,
      "start": 46.9935,
      "duration": 0.1479,
      "velocity": 119,
      "chip": "ym2612"
    },
    {
      "channel": 0,
      "note": 35,
      "start": 47.1395,
      "duration": 0.1319,
      "velocity": 124,
      "chip": "ym2612"
    },
    {
      "channel": 2,
      "note": 71,
      "start": 47.1412,
      "duration": 0.1316,
      "velocity": 120,
      "chip": "ym2612"
    },
    {
      "channel": 3,
      "note": 74,
      "start": 47.1425,
      "duration": 0.1316,
      "velocity": 65,
      "chip": "ym2612"
    },
    {
      "channel": 0,
      "note": 35,
      "start": 47.272,
      "duration": 0.1485,
      "velocity": 124,
      "chip": "ym2612"
    },
    {
      "channel": 1,
      "note": 7,
      "start": 47.2726,
      "duration": 2.2507,
      "velocity": 1,
      "chip": "ym2612"
    },
    {
      "channel": 2,
      "note": 71,
      "start": 47.2739,
      "duration": 0.1476,
      "velocity": 120,
      "chip": "ym2612"
    },
    {
      "channel": 3,
      "note": 59,
      "start": 47.2751,
      "duration": 0.1476,
      "velocity": 119,
      "chip": "ym2612"
    },
    {
      "channel": 4,
      "note": 7,
      "start": 47.2758,
      "duration": 2.2512,
      "velocity": 1,
      "chip": "ym2612"
    },
    {
      "channel": 5,
      "note": 7,
      "start": 47.2764,
      "duration": 2.2512,
      "velocity": 1,
      "chip": "ym2612"
    },
    {
      "channel": 0,
      "note": 35,
      "start": 47.421,
      "duration": 0.1319,
      "velocity": 124,
      "chip": "ym2612"
    },
    {
      "channel": 2,
      "note": 71,
      "start": 47.4226,
      "duration": 0.1313,
      "velocity": 120,
      "chip": "ym2612"
    },
    {
      "channel": 3,
      "note": 74,
      "start": 47.4239,
      "duration": 0.1312,
      "velocity": 65,
      "chip": "ym2612"
    },
    {
      "channel": 0,
      "note": 23,
      "start": 47.5533,
      "duration": 0.1485,
      "velocity": 124,
      "chip": "ym2612"
    },
    {
      "channel": 2,
      "note": 71,
      "start": 47.555,
      "duration": 0.1479,
      "velocity": 120,
      "chip": "ym2612"
    },
    {
      "channel": 3,
      "note": 74,
      "start": 47.5562,
      "duration": 0.148,
      "velocity": 59,
      "chip": "ym2612"
    },
    {
      "channel": 0,
      "note": 23,
      "start": 47.7023,
      "duration": 0.1319,
      "velocity": 124,
      "chip": "ym2612"
    },
    {
      "channel": 2,
      "note": 47,
      "start": 47.704,
      "duration": 0.1314,
      "velocity": 124,
      "chip": "ym2612"
    },
    {
      "channel": 3,
      "note": 74,
      "start": 47.7047,
      "duration": 0.1319,
      "velocity": 59,
      "chip": "ym2612"
    },
    {
      "channel": 0,
      "note": 35,
      "start": 47.8348,
      "duration": 0.1485,
      "velocity": 124,
      "chip": "ym2612"
    },
    {
      "channel": 2,
      "note": 71,
      "start": 47.8364,
      "duration": 0.1479,
      "velocity": 120,
      "chip": "ym2612"
    },
    {
      "channel": 3,
      "note": 74,
      "start": 47.8376,
      "duration": 0.1479,
      "velocity": 65,
      "chip": "ym2612"
    },
    {
      "channel": 0,
      "note": 23,
      "start": 47.9837,
      "duration": 0.132,
      "velocity": 124,
      "chip": "ym2612"
    },
    {
      "channel": 2,
      "note": 71,
      "start": 47.9854,
      "duration": 0.1314,
      "velocity": 120,
      "chip": "ym2612"
    },
    {
      "channel": 3,
      "note": 74,
      "start": 47.9866,
      "duration": 0.1314,
      "velocity": 59,
      "chip": "ym2612"
    },
    {
      "channel": 0,
      "note": 23,
      "start": 48.1161,
      "duration": 0.1485,
      "velocity": 124,
      "chip": "ym2612"
    },
    {
      "channel": 2,
      "note": 71,
      "start": 48.1178,
      "duration": 0.1479,
      "velocity": 120,
      "chip": "ym2612"
    },
    {
      "channel": 3,
      "note": 74,
      "start": 48.1185,
      "duration": 0.1484,
      "velocity": 59,
      "chip": "ym2612"
    },
    {
      "channel": 0,
      "note": 35,
      "start": 48.2651,
      "duration": 0.132,
      "velocity": 124,
      "chip": "ym2612"
    },
    {
      "channel": 2,
      "note": 71,
      "start": 48.2668,
      "duration": 0.1314,
      "velocity": 120,
      "chip": "ym2612"
    },
    {
      "channel": 3,
      "note": 74,
      "start": 48.268,
      "duration": 0.1314,
      "velocity": 65,
      "chip": "ym2612"
    },
    {
      "channel": 0,
      "note": 23,
      "start": 48.3976,
      "duration": 0.1485,
      "velocity": 124,
      "chip": "ym2612"
    },
    {
      "channel": 2,
      "note": 71,
      "start": 48.3992,
      "duration": 0.1479,
      "velocity": 120,
      "chip": "ym2612"
    },
    {
      "channel": 3,
      "note": 59,
      "start": 48.4004,
      "duration": 0.1479,
      "velocity": 119,
      "chip": "ym2612"
    },
    {
      "channel": 0,
      "note": 35,
      "start": 48.5465,
      "duration": 0.132,
      "velocity": 124,
      "chip": "ym2612"
    },
    {
      "channel": 2,
      "note": 71,
      "start": 48.5482,
      "duration": 0.1313,
      "velocity": 120,
      "chip": "ym2612"
    },
    {
      "channel": 3,
      "note": 74,
      "start": 48.5494,
      "duration": 0.1313,
      "velocity": 65,
      "chip": "ym2612"
    },
    {
      "channel": 0,
      "note": 23,
      "start": 48.6789,
      "duration": 0.1485,
      "velocity": 124,
      "chip": "ym2612"
    },
    {
      "channel": 2,
      "note": 71,
      "start": 48.6806,
      "duration": 0.1479,
      "velocity": 120,
      "chip": "ym2612"
    },
    {
      "channel": 3,
      "note": 74,
      "start": 48.6818,
      "duration": 0.148,
      "velocity": 59,
      "chip": "ym2612"
    },
    {
      "channel": 0,
      "note": 23,
      "start": 48.8279,
      "duration": 0.132,
      "velocity": 124,
      "chip": "ym2612"
    },
    {
      "channel": 2,
      "note": 71,
      "start": 48.8295,
      "duration": 0.1314,
      "velocity": 120,
      "chip": "ym2612"
    },
    {
      "channel": 3,
      "note": 74,
      "start": 48.8302,
      "duration": 0.132,
      "velocity": 59,
      "chip": "ym2612"
    },
    {
      "channel": 0,
      "note": 35,
      "start": 48.9603,
      "duration": 0.1485,
      "velocity": 124,
      "chip": "ym2612"
    },
    {
      "channel": 2,
      "note": 71,
      "start": 48.962,
      "duration": 0.1479,
      "velocity": 120,
      "chip": "ym2612"
    },
    {
      "channel": 3,
      "note": 74,
      "start": 48.9632,
      "duration": 0.1479,
      "velocity": 65,
      "chip": "ym2612"
    },
    {
      "channel": 0,
      "note": 23,
      "start": 49.1093,
      "duration": 0.1319,
      "velocity": 124,
      "chip": "ym2612"
    },
    {
      "channel": 2,
      "note": 71,
      "start": 49.111,
      "duration": 0.1314,
      "velocity": 120,
      "chip": "ym2612"
    },
    {
      "channel": 3,
      "note": 74,
      "start": 49.1122,
      "duration": 0.1314,
      "velocity": 59,
      "chip": "ym2612"
    },
    {
      "channel": 0,
      "note": 23,
      "start": 49.2417,
      "duration": 0.1485,
      "velocity": 124,
      "chip": "ym2612"
    },
    {
      "channel": 2,
      "note": 71,
      "start": 49.2434,
      "duration": 0.1479,
      "velocity": 120,
      "chip": "ym2612"
    },
    {
      "channel": 3,
      "note": 74,
      "start": 49.2441,
      "duration": 0.1484,
      "velocity": 59,
      "chip": "ym2612"
    },
    {
      "channel": 0,
      "note": 35,
      "start": 49.3907,
      "duration": 0.1319,
      "velocity": 124,
      "chip": "ym2612"
    },
    {
      "channel": 2,
      "note": 71,
      "start": 49.3923,
      "duration": 0.1322,
      "velocity": 120,
      "chip": "ym2612"
    },
    {
      "channel": 3,
      "note": 74,
      "start": 49.3935,
      "duration": 0.1322,
      "velocity": 65,
      "chip": "ym2612"
    },
    {
      "channel": 0,
      "note": 23,
      "start": 49.5232,
      "duration": 0.1653,
      "velocity": 124,
      "chip": "ym2612"
    },
    {
      "channel": 1,
      "note": 23,
      "start": 49.5244,
      "duration": 4.5012,
      "velocity": 122,
      "chip": "ym2612"
    },
    {
      "channel": 2,
      "note": 71,
      "start": 49.5256,
      "duration": 0.147,
      "velocity": 120,
      "chip": "ym2612"
    },
    {
      "channel": 3,
      "note": 12,
      "start": 49.5268,
      "duration": 0.147,
      "velocity": 127,
      "chip": "ym2612"
    },
    {
      "channel": 4,
      "note": 7,
      "start": 49.5275,
      "duration": 2.2493,
      "velocity": 1,
      "chip": "ym2612"
    },
    {
      "channel": 5,
      "note": 7,
      "start": 49.5281,
      "duration": 2.2493,
      "velocity": 1,
      "chip": "ym2612"
    },
    {
      "channel": 2,
      "note": 71,
      "start": 49.6736,
      "duration": 0.1314,
      "velocity": 120,
      "chip": "ym2612"
    },
    {
      "channel": 3,
      "note": 24,
      "start": 49.6743,
      "duration": 0.1321,
      "velocity": 127,
      "chip": "ym2612"
    },
    {
      "channel": 0,
      "note": 23,
      "start": 49.8045,
      "duration": 0.1654,
      "velocity": 124,
      "chip": "ym2612"
    },
    {
      "channel": 2,
      "note": 71,
      "start": 49.8061,
      "duration": 0.1478,
      "velocity": 120,
      "chip": "ym2612"
    },
    {
      "channel": 3,
      "note": 12,
      "start": 49.8068,
      "duration": 0.1483,
      "velocity": 127,
      "chip": "ym2612"
    },
    {
      "channel": 2,
      "note": 47,
      "start": 49.955,
      "duration": 0.1315,
      "velocity": 124,
      "chip": "ym2612"
    },
    {
      "channel": 3,
      "note": 12,
      "start": 49.9556,
      "duration": 0.1321,
      "velocity": 127,
      "chip": "ym2612"
    },
    {
      "channel": 0,
      "note": 23,
      "start": 50.0859,
      "duration": 0.1653,
      "velocity": 124,
      "chip": "ym2612"
    },
    {
      "channel": 2,
      "note": 71,
      "start": 50.0876,
      "duration": 0.1478,
      "velocity": 120,
      "chip": "ym2612"
    },
    {
      "channel": 3,
      "note": 24,
      "start": 50.0882,
      "duration": 0.1483,
      "velocity": 127,
      "chip": "ym2612"
    },
    {
      "channel": 2,
      "note": 71,
      "start": 50.2363,
      "duration": 0.1316,
      "velocity": 120,
      "chip": "ym2612"
    },
    {
      "channel": 3,
      "note": 12,
      "start": 50.237,
      "duration": 0.1321,
      "velocity": 127,
      "chip": "ym2612"
    },
    {
      "channel": 0,
      "note": 23,
      "start": 50.3673,
      "duration": 0.0992,
      "velocity": 124,
      "chip": "ym2612"
    },
    {
      "channel": 2,
      "note": 71,
      "start": 50.3689,
      "duration": 0.1479,
      "velocity": 120,
      "chip": "ym2612"
    },
    {
      "channel": 3,
      "note": 12,
      "start": 50.3696,
      "duration": 0.1485,
      "velocity": 127,
      "chip": "ym2612"
    },
    {
      "channel": 0,
      "note": 23,
      "start": 50.5163,
      "duration": 0.0826,
      "velocity": 124,
      "chip": "ym2612"
    },
    {
      "channel": 2,
      "note": 71,
      "start": 50.5179,
      "duration": 0.1314,
      "velocity": 120,
      "chip": "ym2612"
    },
    {
      "channel": 3,
      "note": 24,
      "start": 50.5185,
      "duration": 0.132,
      "velocity": 127,
      "chip": "ym2612"
    },
    {
      "channel": 0,
      "note": 23,
      "start": 50.6487,
      "duration": 0.1653,
      "velocity": 124,
      "chip": "ym2612"
    },
    {
      "channel": 2,
      "note": 71,
      "start": 50.6504,
      "duration": 0.1478,
      "velocity": 120,
      "chip": "ym2612"
    },
    {
      "channel": 3,
      "note": 12,
      "start": 50.651,
      "duration": 0.1483,
      "velocity": 127,
      "chip": "ym2612"
    },
    {
      "channel": 2,
      "note": 71,
      "start": 50.7991,
      "duration": 0.1315,
      "velocity": 120,
      "chip": "ym2612"
    },
    {
      "channel": 3,
      "note": 24,
      "start": 50.7998,
      "duration": 0.1321,
      "velocity": 127,
      "chip": "ym2612"
    },
    {
      "channel": 0,
      "note": 23,
      "start": 50.9301,
      "duration": 0.1654,
      "velocity": 124,
      "chip": "ym2612"
    },
    {
      "channel": 2,
      "note": 71,
      "start": 50.9317,
      "duration": 0.1478,
      "velocity": 120,
      "chip": "ym2612"
    },
    {
      "channel": 3,
      "note": 12,
      "start": 50.9324,
      "duration": 0.1484,
      "velocity": 127,
      "chip": "ym2612"
    },
    {
      "channel": 2,
      "note": 71,
      "start": 51.0806,
      "duration": 0.1315,
      "velocity": 120,
      "chip": "ym2612"
    },
    {
      "channel": 3,
      "note": 12,
      "start": 51.0812,
      "duration": 0.1321,
      "velocity": 127,
      "chip": "ym2612"
    },
    {
      "channel": 0,
      "note": 23,
      "start": 51.2115,
      "duration": 0.1653,
      "velocity": 124,
      "chip": "ym2612"
    },
    {
      "channel": 2,
      "note": 71,
      "start": 51.2131,
      "duration": 0.1478,
      "velocity": 120,
      "chip": "ym2612"
    },
    {
      "channel": 3,
      "note": 24,
      "start": 51.2138,
      "duration": 0.1483,
      "velocity": 127,
      "chip": "ym2612"
    },
    {
      "channel": 2,
      "note": 71,
      "start": 51.3619,
      "duration": 0.1315,
      "velocity": 120,
      "chip": "ym2612"
    },
    {
      "channel": 3,
      "note": 12,
      "start": 51.3626,
      "duration": 0.1321,
      "velocity": 127,
      "chip": "ym2612"
    },
    {
      "channel": 0,
      "note": 23,
      "start": 51.4929,
      "duration": 0.1654,
      "velocity": 124,
      "chip": "ym2612"
    },
    {
      "channel": 2,
      "note": 71,
      "start": 51.4945,
      "duration": 0.1478,
      "velocity": 120,
      "chip": "ym2612"
    },
    {
      "channel": 3,
      "note": 12,
      "start": 51.4951,
      "duration": 0.1484,
      "velocity": 127,
      "chip": "ym2612"
    },
    {
      "channel": 2,
      "note": 71,
      "start": 51.6434,
      "duration": 0.1315,
      "velocity": 120,
      "chip": "ym2612"
    },
    {
      "channel": 3,
      "note": 24,
      "start": 51.644,
      "duration": 0.1321,
      "velocity": 127,
      "chip": "ym2612"
    },
    {
      "channel": 0,
      "note": 23,
      "start": 51.7743,
      "duration": 0.1654,
      "velocity": 124,
      "chip": "ym2612"
    },
    {
      "channel": 2,
      "note": 71,
      "start": 51.7759,
      "duration": 0.1478,
      "velocity": 120,
      "chip": "ym2612"
    },
    {
      "channel": 3,
      "note": 12,
      "start": 51.7766,
      "duration": 0.1484,
      "velocity": 127,
      "chip": "ym2612"
    },
    {
      "channel": 4,
      "note": 7,
      "start": 51.7772,
      "duration": 2.2509,
      "velocity": 1,
      "chip": "ym2612"
    },
    {
      "channel": 5,
      "note": 7,
      "start": 51.7778,
      "duration": 2.2509,
      "velocity": 1,
      "chip": "ym2612"
    },
    {
      "channel": 2,
      "note": 71,
      "start": 51.9248,
      "duration": 0.1314,
      "velocity": 120,
      "chip": "ym2612"
    },
    {
      "channel": 3,
      "note": 24,
      "start": 51.9254,
      "duration": 0.1321,
      "velocity": 127,
      "chip": "ym2612"
    },
    {
      "channel": 0,
      "note": 23,
      "start": 52.0556,
      "duration": 0.1654,
      "velocity": 124,
      "chip": "ym2612"
    },
    {
      "channel": 2,
      "note": 71,
      "start": 52.0573,
      "duration": 0.1477,
      "velocity": 120,
      "chip": "ym2612"
    },
    {
      "channel": 3,
      "note": 12,
      "start": 52.058,
      "duration": 0.1483,
      "velocity": 127,
      "chip": "ym2612"
    },
    {
      "channel": 2,
      "note": 47,
      "start": 52.2061,
      "duration": 0.1315,
      "velocity": 124,
      "chip": "ym2612"
    },
    {
      "channel": 3,
      "note": 12,
      "start": 52.2068,
      "duration": 0.1321,
      "velocity": 127,
      "chip": "ym2612"
    },
    {
      "channel": 0,
      "note": 23,
      "start": 52.3371,
      "duration": 0.1653,
      "velocity": 124,
      "chip": "ym2612"
    },
    {
      "channel": 2,
      "note": 71,
      "start": 52.3387,
      "duration": 0.1478,
      "velocity": 120,
      "chip": "ym2612"
    },
    {
      "channel": 3,
      "note": 24,
      "start": 52.3393,
      "duration": 0.1483,
      "velocity": 127,
      "chip": "ym2612"
    },
    {
      "channel": 2,
      "note": 71,
      "start": 52.4875,
      "duration": 0.1315,
      "velocity": 120,
      "chip": "ym2612"
    },
    {
      "channel": 3,
      "note": 12,
      "start": 52.4881,
      "duration": 0.1321,
      "velocity": 127,
      "chip": "ym2612"
    },
    {
      "channel": 0,
      "note": 23,
      "start": 52.6184,
      "duration": 0.1654,
      "velocity": 124,
      "chip": "ym2612"
    },
    {
      "channel": 2,
      "note": 71,
      "start": 52.6201,
      "duration": 0.1478,
      "velocity": 120,
      "chip": "ym2612"
    },
    {
      "channel": 3,
      "note": 12,
      "start": 52.6207,
      "duration": 0.1483,
      "velocity": 127,
      "chip": "ym2612"
    },
    {
      "channel": 2,
      "note": 71,
      "start": 52.7689,
      "duration": 0.1315,
      "velocity": 120,
      "chip": "ym2612"
    },
    {
      "channel": 3,
      "note": 24,
      "start": 52.7695,
      "duration": 0.1322,
      "velocity": 127,
      "chip": "ym2612"
    },
    {
      "channel": 0,
      "note": 23,
      "start": 52.8998,
      "duration": 0.1653,
      "velocity": 124,
      "chip": "ym2612"
    },
    {
      "channel": 2,
      "note": 71,
      "start": 52.9015,
      "duration": 0.1478,
      "velocity": 120,
      "chip": "ym2612"
    },
    {
      "channel": 3,
      "note": 12,
      "start": 52.9021,
      "duration": 0.1483,
      "velocity": 127,
      "chip": "ym2612"
    },
    {
      "channel": 2,
      "note": 71,
      "start": 53.0503,
      "duration": 0.1315,
      "velocity": 120,
      "chip": "ym2612"
    },
    {
      "channel": 3,
      "note": 24,
      "start": 53.0509,
      "duration": 0.1321,
      "velocity": 127,
      "chip": "ym2612"
    },
    {
      "channel": 0,
      "note": 23,
      "start": 53.1812,
      "duration": 0.1654,
      "velocity": 124,
      "chip": "ym2612"
    },
    {
      "channel": 2,
      "note": 71,
      "start": 53.1829,
      "duration": 0.1478,
      "velocity": 120,
      "chip": "ym2612"
    },
    {
      "channel": 3,
      "note": 12,
      "start": 53.1835,
      "duration": 0.1483,
      "velocity": 127,
      "chip": "ym2612"
    },
    {
      "channel": 2,
      "note": 71,
      "start": 53.3317,
      "duration": 0.1315,
      "velocity": 120,
      "chip": "ym2612"
    },
    {
      "channel": 3,
      "note": 12,
      "start": 53.3323,
      "duration": 0.1322,
      "velocity": 127,
      "chip": "ym2612"
    },
    {
      "channel": 0,
      "note": 23,
      "start": 53.4626,
      "duration": 0.1653,
      "velocity": 124,
      "chip": "ym2612"
    },
    {
      "channel": 2,
      "note": 71,
      "start": 53.4643,
      "duration": 0.1478,
      "velocity": 120,
      "chip": "ym2612"
    },
    {
      "channel": 3,
      "note": 24,
      "start": 53.4649,
      "duration": 0.1483,
      "velocity": 127,
      "chip": "ym2612"
    },
    {
      "channel": 2,
      "note": 71,
      "start": 53.6131,
      "duration": 0.1315,
      "velocity": 120,
      "chip": "ym2612"
    },
    {
      "channel": 3,
      "note": 12,
      "start": 53.6137,
      "duration": 0.1321,
      "velocity": 127,
      "chip": "ym2612"
    },
    {
      "channel": 0,
      "note": 23,
      "start": 53.744,
      "duration": 0.1654,
      "velocity": 124,
      "chip": "ym2612"
    },
    {
      "channel": 2,
      "note": 71,
      "start": 53.7456,
      "duration": 0.1478,
      "velocity": 120,
      "chip": "ym2612"
    },
    {
      "channel": 3,
      "note": 24,
      "start": 53.7463,
      "duration": 0.1484,
      "velocity": 127,
      "chip": "ym2612"
    },
    {
      "channel": 2,
      "note": 71,
      "start": 53.8945,
      "duration": 0.1317,
      "velocity": 120,
      "chip": "ym2612"
    },
    {
      "channel": 3,
      "note": 24,
      "start": 53.8951,
      "duration": 0.1322,
      "velocity": 127,
      "chip": "ym2612"
    },
    {
      "channel": 0,
      "note": 23,
      "start": 54.0254,
      "duration": 0.1653,
      "velocity": 124,
      "chip": "ym2612"
    },
    {
      "channel": 1,
      "note": 23,
      "start": 54.0261,
      "duration": 4.5018,
      "velocity": 122,
      "chip": "ym2612"
    },
    {
      "channel": 2,
      "note": 71,
      "start": 54.0273,
      "duration": 0.1476,
      "velocity": 120,
      "chip": "ym2612"
    },
    {
      "channel": 3,
      "note": 12,
      "start": 54.0278,
      "duration": 0.1482,
      "velocity": 127,
      "chip": "ym2612"
    },
    {
      "channel": 4,
      "note": 7,
      "start": 54.0285,
      "duration": 2.2505,
      "velocity": 1,
      "chip": "ym2612"
    },
    {
      "channel": 5,
      "note": 7,
      "start": 54.0292,
      "duration": 2.2505,
      "velocity": 1,
      "chip": "ym2612"
    },
    {
      "channel": 2,
      "note": 71,
      "start": 54.1759,
      "duration": 0.1315,
      "velocity": 120,
      "chip": "ym2612"
    },
    {
      "channel": 3,
      "note": 24,
      "start": 54.1765,
      "duration": 0.1322,
      "velocity": 127,
      "chip": "ym2612"
    },
    {
      "channel": 0,
      "note": 23,
      "start": 54.3068,
      "duration": 0.1653,
      "velocity": 124,
      "chip": "ym2612"
    },
    {
      "channel": 2,
      "note": 71,
      "start": 54.3085,
      "duration": 0.1477,
      "velocity": 120,
      "chip": "ym2612"
    },
    {
      "channel": 3,
      "note": 12,
      "start": 54.3091,
      "duration": 0.1484,
      "velocity": 127,
      "chip": "ym2612"
    },
    {
      "channel": 2,
      "note": 47,
      "start": 54.4573,
      "duration": 0.1314,
      "velocity": 124,
      "chip": "ym2612"
    },
    {
      "channel": 3,
      "note": 12,
      "start": 54.458,
      "duration": 0.1321,
      "velocity": 127,
      "chip": "ym2612"
    },
    {
      "channel": 0,
      "note": 23,
      "start": 54.5882,
      "duration": 0.1653,
      "velocity": 124,
      "chip": "ym2612"
    },
    {
      "channel": 2,
      "note": 71,
      "start": 54.5899,
      "duration": 0.1477,
      "velocity": 120,
      "chip": "ym2612"
    },
    {
      "channel": 3,
      "note": 24,
      "start": 54.5905,
      "duration": 0.1483,
      "velocity": 127,
      "chip": "ym2612"
    },
    {
      "channel": 2,
      "note": 71,
      "start": 54.7386,
      "duration": 0.1315,
      "velocity": 120,
      "chip": "ym2612"
    },
    {
      "channel": 3,
      "note": 12,
      "start": 54.7393,
      "duration": 0.1321,
      "velocity": 127,
      "chip": "ym2612"
    },
    {
      "channel": 0,
      "note": 23,
      "start": 54.8696,
      "duration": 0.0992,
      "velocity": 124,
      "chip": "ym2612"
    },
    {
      "channel": 2,
      "note": 71,
      "start": 54.8712,
      "duration": 0.1479,
      "velocity": 120,
      "chip": "ym2612"
    },
    {
      "channel": 3,
      "note": 12,
      "start": 54.8719,
      "duration": 0.1485,
      "velocity": 127,
      "chip": "ym2612"
    },
    {
      "channel": 0,
      "note": 23,
      "start": 55.0185,
      "duration": 0.0826,
      "velocity": 124,
      "chip": "ym2612"
    },
    {
      "channel": 2,
      "note": 71,
      "start": 55.0202,
      "duration": 0.1314,
      "velocity": 120,
      "chip": "ym2612"
    },
    {
      "channel": 3,
      "note": 24,
      "start": 55.0208,
      "duration": 0.132,
      "velocity": 127,
      "chip": "ym2612"
    },
    {
      "channel": 0,
      "note": 23,
      "start": 55.151,
      "duration": 0.1653,
      "velocity": 124,
      "chip": "ym2612"
    },
    {
      "channel": 2,
      "note": 71,
      "start": 55.1527,
      "duration": 0.1477,
      "velocity": 120,
      "chip": "ym2612"
    },
    {
      "channel": 3,
      "note": 12,
      "start": 55.1533,
      "duration": 0.1483,
      "velocity": 127,
      "chip": "ym2612"
    },
    {
      "channel": 2,
      "note": 71,
      "start": 55.3014,
      "duration": 0.1315,
      "velocity": 120,
      "chip": "ym2612"
    },
    {
      "channel": 3,
      "note": 24,
      "start": 55.3021,
      "duration": 0.1321,
      "velocity": 127,
      "chip": "ym2612"
    },
    {
      "channel": 0,
      "note": 23,
      "start": 55.4324,
      "duration": 0.1654,
      "velocity": 124,
      "chip": "ym2612"
    },
    {
      "channel": 2,
      "note": 71,
      "start": 55.434,
      "duration": 0.1478,
      "velocity": 120,
      "chip": "ym2612"
    },
    {
      "channel": 3,
      "note": 12,
      "start": 55.4346,
      "duration": 0.1483,
      "velocity": 127,
      "chip": "ym2612"
    },
    {
      "channel": 2,
      "note": 71,
      "start": 55.5829,
      "duration": 0.1315,
      "velocity": 120,
      "chip": "ym2612"
    },
    {
      "channel": 3,
      "note": 12,
      "start": 55.5834,
      "duration": 0.1322,
      "velocity": 127,
      "chip": "ym2612"
    },
    {
      "channel": 0,
      "note": 23,
      "start": 55.7138,
      "duration": 0.1653,
      "velocity": 124,
      "chip": "ym2612"
    },
    {
      "channel": 2,
      "note": 71,
      "start": 55.7154,
      "duration": 0.1478,
      "velocity": 120,
      "chip": "ym2612"
    },
    {
      "channel": 3,
      "note": 24,
      "start": 55.7161,
      "duration": 0.1483,
      "velocity": 127,
      "chip": "ym2612"
    },
    {
      "channel": 2,
      "note": 71,
      "start": 55.8642,
      "duration": 0.1315,
      "velocity": 120,
      "chip": "ym2612"
    },
    {
      "channel": 3,
      "note": 12,
      "start": 55.8649,
      "duration": 0.1321,
      "velocity": 127,
      "chip": "ym2612"
    },
    {
      "channel": 0,
      "note": 23,
      "start": 55.9951,
      "duration": 0.1654,
      "velocity": 124,
      "chip": "ym2612"
    },
    {
      "channel": 2,
      "note": 71,
      "start": 55.9968,
      "duration": 0.1478,
      "velocity": 120,
      "chip": "ym2612"
    },
    {
      "channel": 3,
      "note": 12,
      "start": 55.9974,
      "duration": 0.1483,
      "velocity": 127,
      "chip": "ym2612"
    },
    {
      "channel": 2,
      "note": 71,
      "start": 56.1456,
      "duration": 0.1315,
      "velocity": 120,
      "chip": "ym2612"
    },
    {
      "channel": 3,
      "note": 24,
      "start": 56.1462,
      "duration": 0.1322,
      "velocity": 127,
      "chip": "ym2612"
    },
    {
      "channel": 0,
      "note": 23,
      "start": 56.2766,
      "duration": 0.1653,
      "velocity": 124,
      "chip": "ym2612"
    },
    {
      "channel": 2,
      "note": 71,
      "start": 56.2782,
      "duration": 0.1477,
      "velocity": 120,
      "chip": "ym2612"
    },
    {
      "channel": 3,
      "note": 12,
      "start": 56.2788,
      "duration": 0.1483,
      "velocity": 127,
      "chip": "ym2612"
    },
    {
      "channel": 4,
      "note": 7,
      "start": 56.2795,
      "duration": 2.2515,
      "velocity": 1,
      "chip": "ym2612"
    },
    {
      "channel": 5,
      "note": 7,
      "start": 56.2801,
      "duration": 2.3324,
      "velocity": 1,
      "chip": "ym2612"
    },
    {
      "channel": 2,
      "note": 71,
      "start": 56.427,
      "duration": 0.1315,
      "velocity": 120,
      "chip": "ym2612"
    },
    {
      "channel": 3,
      "note": 24,
      "start": 56.4276,
      "duration": 0.1321,
      "velocity": 127,
      "chip": "ym2612"
    },
    {
      "channel": 0,
      "note": 23,
      "start": 56.5579,
      "duration": 0.1655,
      "velocity": 124,
      "chip": "ym2612"
    },
    {
      "channel": 2,
      "note": 71,
      "start": 56.5596,
      "duration": 0.1478,
      "velocity": 120,
      "chip": "ym2612"
    },
    {
      "channel": 3,
      "note": 12,
      "start": 56.5602,
      "duration": 0.1484,
      "velocity": 127,
      "chip": "ym2612"
    },
    {
      "channel": 2,
      "note": 47,
      "start": 56.7085,
      "duration": 0.1315,
      "velocity": 124,
      "chip": "ym2612"
    },
    {
      "channel": 3,
      "note": 12,
      "start": 56.7091,
      "duration": 0.1321,
      "velocity": 127,
      "chip": "ym2612"
    },
    {
      "channel": 0,
      "note": 23,
      "start": 56.8393,
      "duration": 0.1653,
      "velocity": 124,
      "chip": "ym2612"
    },
    {
      "channel": 2,
      "note": 71,
      "start": 56.8411,
      "duration": 0.1476,
      "velocity": 120,
      "chip": "ym2612"
    },
    {
      "channel": 3,
      "note": 24,
      "start": 56.8416,
      "duration": 0.1483,
      "velocity": 127,
      "chip": "ym2612"
    },
    {
      "channel": 2,
      "note": 71,
      "start": 56.9899,
      "duration": 0.1314,
      "velocity": 120,
      "chip": "ym2612"
    },
    {
      "channel": 3,
      "note": 12,
      "start": 56.9905,
      "duration": 0.1321,
      "velocity": 127,
      "chip": "ym2612"
    },
    {
      "channel": 0,
      "note": 23,
      "start": 57.1207,
      "duration": 0.1654,
      "velocity": 124,
      "chip": "ym2612"
    },
    {
      "channel": 2,
      "note": 71,
      "start": 57.1224,
      "duration": 0.1478,
      "velocity": 120,
      "chip": "ym2612"
    },
    {
      "channel": 3,
      "note": 12,
      "start": 57.123,
      "duration": 0.1483,
      "velocity": 127,
      "chip": "ym2612"
    },
    {
      "channel": 2,
      "note": 71,
      "start": 57.2712,
      "duration": 0.1315,
      "velocity": 120,
      "chip": "ym2612"
    },
    {
      "channel": 3,
      "note": 24,
      "start": 57.2718,
      "duration": 0.1322,
      "velocity": 127,
      "chip": "ym2612"
    },
    {
      "channel": 0,
      "note": 23,
      "start": 57.4021,
      "duration": 0.1653,
      "velocity": 124,
      "chip": "ym2612"
    },
    {
      "channel": 2,
      "note": 71,
      "start": 57.4038,
      "duration": 0.1477,
      "velocity": 120,
      "chip": "ym2612"
    },
    {
      "channel": 3,
      "note": 12,
      "start": 57.4044,
      "duration": 0.1483,
      "velocity": 127,
      "chip": "ym2612"
    },
    {
      "channel": 2,
      "note": 71,
      "start": 57.5526,
      "duration": 0.1315,
      "velocity": 120,
      "chip": "ym2612"
    },
    {
      "channel": 3,
      "note": 24,
      "start": 57.5532,
      "duration": 0.1321,
      "velocity": 127,
      "chip": "ym2612"
    },
    {
      "channel": 0,
      "note": 23,
      "start": 57.6835,
      "duration": 0.1654,
      "velocity": 124,
      "chip": "ym2612"
    },
    {
      "channel": 2,
      "note": 71,
      "start": 57.6851,
      "duration": 0.1478,
      "velocity": 120,
      "chip": "ym2612"
    },
    {
      "channel": 3,
      "note": 12,
      "start": 57.6858,
      "duration": 0.1483,
      "velocity": 127,
      "chip": "ym2612"
    },
    {
      "channel": 2,
      "note": 71,
      "start": 57.8339,
      "duration": 0.1315,
      "velocity": 120,
      "chip": "ym2612"
    },
    {
      "channel": 3,
      "note": 12,
      "start": 57.8346,
      "duration": 0.1322,
      "velocity": 127,
      "chip": "ym2612"
    },
    {
      "channel": 0,
      "note": 23,
      "start": 57.9649,
      "duration": 0.1653,
      "velocity": 124,
      "chip": "ym2612"
    },
    {
      "channel": 2,
      "note": 71,
      "start": 57.9666,
      "duration": 0.1477,
      "velocity": 120,
      "chip": "ym2612"
    },
    {
      "channel": 3,
      "note": 24,
      "start": 57.9672,
      "duration": 0.1483,
      "velocity": 127,
      "chip": "ym2612"
    },
    {
      "channel": 2,
      "note": 71,
      "start": 58.1154,
      "duration": 0.1315,
      "velocity": 120,
      "chip": "ym2612"
    },
    {
      "channel": 3,
      "note": 12,
      "start": 58.116,
      "duration": 0.1321,
      "velocity": 127,
      "chip": "ym2612"
    },
    {
      "channel": 0,
      "note": 23,
      "start": 58.2463,
      "duration": 0.1654,
      "velocity": 124,
      "chip": "ym2612"
    },
    {
      "channel": 2,
      "note": 71,
      "start": 58.2479,
      "duration": 0.1478,
      "velocity": 120,
      "chip": "ym2612"
    },
    {
      "channel": 3,
      "note": 24,
      "start": 58.2486,
      "duration": 0.1483,
      "velocity": 127,
      "chip": "ym2612"
    },
    {
      "channel": 2,
      "note": 71,
      "start": 58.3968,
      "duration": 0.1317,
      "velocity": 120,
      "chip": "ym2612"
    },
    {
      "channel": 3,
      "note": 24,
      "start": 58.3974,
      "duration": 0.1323,
      "velocity": 127,
      "chip": "ym2612"
    },
    {
      "channel": 0,
      "note": 23,
      "start": 58.5277,
      "duration": 0.1653,
      "velocity": 124,
      "chip": "ym2612"
    },
    {
      "channel": 1,
      "note": 23,
      "start": 58.5283,
      "duration": 4.5018,
      "velocity": 122,
      "chip": "ym2612"
    },
    {
      "channel": 2,
      "note": 71,
      "start": 58.5295,
      "duration": 0.1475,
      "velocity": 120,
      "chip": "ym2612"
    },
    {
      "channel": 3,
      "note": 30,
      "start": 58.5308,
      "duration": 2.2498,
      "velocity": 108,
      "chip": "ym2612"
    },
    {
      "channel": 4,
      "note": 37,
      "start": 58.5321,
      "duration": 0.0802,
      "velocity": 108,
      "chip": "ym2612"
    },
    {
      "channel": 5,
      "note": 37,
      "start": 58.6137,
      "duration": 0.0821,
      "velocity": 108,
      "chip": "ym2612"
    },
    {
      "channel": 2,
      "note": 71,
      "start": 58.6782,
      "duration": 0.1315,
      "velocity": 120,
      "chip": "ym2612"
    },
    {
      "channel": 4,
      "note": 35,
      "start": 58.6794,
      "duration": 0.0819,
      "velocity": 108,
      "chip": "ym2612"
    },
    {
      "channel": 5,
      "note": 35,
      "start": 58.7455,
      "duration": 0.0826,
      "velocity": 108,
      "chip": "ym2612"
    },
    {
      "channel": 0,
      "note": 23,
      "start": 58.8091,
      "duration": 0.1654,
      "velocity": 124,
      "chip": "ym2612"
    },
    {
      "channel": 2,
      "note": 71,
      "start": 58.8107,
      "duration": 0.1478,
      "velocity": 120,
      "chip": "ym2612"
    },
    {
      "channel": 4,
      "note": 38,
      "start": 58.812,
      "duration": 0.0817,
      "velocity": 108,
      "chip": "ym2612"
    },
    {
      "channel": 5,
      "note": 38,
      "start": 58.8944,
      "duration": 0.0826,
      "velocity": 108,
      "chip": "ym2612"
    },
    {
      "channel": 2,
      "note": 47,
      "start": 58.9596,
      "duration": 0.1316,
      "velocity": 124,
      "chip": "ym2612"
    },
    {
      "channel": 4,
      "note": 35,
      "start": 58.9608,
      "duration": 0.0819,
      "velocity": 108,
      "chip": "ym2612"
    },
    {
      "channel": 5,
      "note": 35,
      "start": 59.0268,
      "duration": 0.0827,
      "velocity": 108,
      "chip": "ym2612"
    },
    {
      "channel": 0,
      "note": 23,
      "start": 59.0905,
      "duration": 0.1653,
      "velocity": 124,
      "chip": "ym2612"
    },
    {
      "channel": 2,
      "note": 71,
      "start": 59.0922,
      "duration": 0.1478,
      "velocity": 120,
      "chip": "ym2612"
    },
    {
      "channel": 4,
      "note": 35,
      "start": 59.0934,
      "duration": 0.0817,
      "velocity": 108,
      "chip": "ym2612"
    },
    {
      "channel": 5,
      "note": 35,
      "start": 59.1759,
      "duration": 0.0826,
      "velocity": 108,
      "chip": "ym2612"
    },
    {
      "channel": 2,
      "note": 71,
      "start": 59.241,
      "duration": 0.1314,
      "velocity": 120,
      "chip": "ym2612"
    },
    {
      "channel": 4,
      "note": 47,
      "start": 59.2422,
      "duration": 0.0819,
      "velocity": 108,
      "chip": "ym2612"
    },
    {
      "channel": 5,
      "note": 47,
      "start": 59.3083,
      "duration": 0.0826,
      "velocity": 108,
      "chip": "ym2612"
    },
    {
      "channel": 0,
      "note": 23,
      "start": 59.3719,
      "duration": 0.0992,
      "velocity": 124,
      "chip": "ym2612"
    },
    {
      "channel": 2,
      "note": 71,
      "start": 59.3736,
      "duration": 0.1478,
      "velocity": 120,
      "chip": "ym2612"
    },
    {
      "channel": 4,
      "note": 38,
      "start": 59.3749,
      "duration": 0.0817,
      "velocity": 108,
      "chip": "ym2612"
    },
    {
      "channel": 5,
      "note": 38,
      "start": 59.4573,
      "duration": 0.0826,
      "velocity": 108,
      "chip": "ym2612"
    },
    {
      "channel": 0,
      "note": 23,
      "start": 59.5208,
      "duration": 0.0826,
      "velocity": 124,
      "chip": "ym2612"
    },
    {
      "channel": 2,
      "note": 71,
      "start": 59.5225,
      "duration": 0.1314,
      "velocity": 120,
      "chip": "ym2612"
    },
    {
      "channel": 4,
      "note": 35,
      "start": 59.5238,
      "duration": 0.0817,
      "velocity": 108,
      "chip": "ym2612"
    },
    {
      "channel": 5,
      "note": 35,
      "start": 59.5897,
      "duration": 0.0826,
      "velocity": 108,
      "chip": "ym2612"
    },
    {
      "channel": 0,
      "note": 23,
      "start": 59.6532,
      "duration": 0.1654,
      "velocity": 124,
      "chip": "ym2612"
    },
    {
      "channel": 2,
      "note": 71,
      "start": 59.6549,
      "duration": 0.1477,
      "velocity": 120,
      "chip": "ym2612"
    },
    {
      "channel": 4,
      "note": 40,
      "start": 59.6561,
      "duration": 0.0817,
      "velocity": 108,
      "chip": "ym2612"
    },
    {
      "channel": 5,
      "note": 40,
      "start": 59.7386,
      "duration": 0.0827,
      "velocity": 108,
      "chip": "ym2612"
    },
    {
      "channel": 2,
      "note": 71,
      "start": 59.8037,
      "duration": 0.1315,
      "velocity": 120,
      "chip": "ym2612"
    },
    {
      "channel": 4,
      "note": 35,
      "start": 59.805,
      "duration": 0.0819,
      "velocity": 108,
      "chip": "ym2612"
    },
    {
      "channel": 5,
      "note": 35,
      "start": 59.871,
      "duration": 0.0826,
      "velocity": 108,
      "chip": "ym2612"
    },
    {
      "channel": 0,
      "note": 23,
      "start": 59.9346,
      "duration": 0.1654,
      "velocity": 124,
      "chip": "ym2612"
    },
    {
      "channel": 2,
      "note": 71,
      "start": 59.9363,
      "duration": 0.1478,
      "velocity": 120,
      "chip": "ym2612"
    },
    {
      "channel": 4,
      "note": 38,
      "start": 59.9376,
      "duration": 0.0817,
      "velocity": 108,
      "chip": "ym2612"
    },
    {
      "channel": 5,
      "note": 38,
      "start": 60.02,
      "duration": 0.0827,
      "velocity": 108,
      "chip": "ym2612"
    },
    {
      "channel": 2,
      "note": 71,
      "start": 60.0851,
      "duration": 0.1316,
      "velocity": 120,
      "chip": "ym2612"
    },
    {
      "channel": 4,
      "note": 35,
      "start": 60.0863,
      "duration": 0.082,
      "velocity": 108,
      "chip": "ym2612"
    },
    {
      "channel": 5,
      "note": 35,
      "start": 60.1524,
      "duration": 0.0827,
      "velocity": 108,
      "chip": "ym2612"
    },
    {
      "channel": 0,
      "note": 23,
      "start": 60.2161,
      "duration": 0.1653,
      "velocity": 124,
      "chip": "ym2612"
    },
    {
      "channel": 2,
      "note": 71,
      "start": 60.2177,
      "duration": 0.1477,
      "velocity": 120,
      "chip": "ym2612"
    },
    {
      "channel": 4,
      "note": 37,
      "start": 60.219,
      "duration": 0.0817,
      "velocity": 108,
      "chip": "ym2612"
    },
    {
      "channel": 5,
      "note": 37,
      "start": 60.3014,
      "duration": 0.0827,
      "velocity": 108,
      "chip": "ym2612"
    },
    {
      "channel": 2,
      "note": 71,
      "start": 60.3665,
      "duration": 0.1315,
      "velocity": 120,
      "chip": "ym2612"
    },
    {
      "channel": 4,
      "note": 35,
      "start": 60.3678,
      "duration": 0.0819,
      "velocity": 108,
      "chip": "ym2612"
    },
    {
      "channel": 5,
      "note": 35,
      "start": 60.4338,
      "duration": 0.0826,
      "velocity": 108,
      "chip": "ym2612"
    },
    {
      "channel": 0,
      "note": 23,
      "start": 60.4974,
      "duration": 0.1654,
      "velocity": 124,
      "chip": "ym2612"
    },
    {
      "channel": 2,
      "note": 71,
      "start": 60.4991,
      "duration": 0.1478,
      "velocity": 120,
      "chip": "ym2612"
    },
    {
      "channel": 4,
      "note": 38,
      "start": 60.5004,
      "duration": 0.0817,
      "velocity": 108,
      "chip": "ym2612"
    },
    {
      "channel": 5,
      "note": 38,
      "start": 60.5828,
      "duration": 0.0826,
      "velocity": 108,
      "chip": "ym2612"
    },
    {
      "channel": 2,
      "note": 71,
      "start": 60.6479,
      "duration": 0.1316,
      "velocity": 120,
      "chip": "ym2612"
    },
    {
      "channel": 4,
      "note": 47,
      "start": 60.6491,
      "duration": 0.0819,
      "velocity": 108,
      "chip": "ym2612"
    },
    {
      "channel": 5,
      "note": 47,
      "start": 60.7152,
      "duration": 0.0826,
      "velocity": 108,
      "chip": "ym2612"
    },
    {
      "channel": 0,
      "note": 23,
      "start": 60.7788,
      "duration": 0.1654,
      "velocity": 124,
      "chip": "ym2612"
    },
    {
      "channel": 2,
      "note": 71,
      "start": 60.7805,
      "duration": 0.1477,
      "velocity": 120,
      "chip": "ym2612"
    },
    {
      "channel": 3,
      "note": 28,
      "start": 60.7812,
      "duration": 2.2508,
      "velocity": 108,
      "chip": "ym2612"
    },
    {
      "channel": 4,
      "note": 35,
      "start": 60.7819,
      "duration": 0.0816,
      "velocity": 108,
      "chip": "ym2612"
    },
    {
      "channel": 5,
      "note": 35,
      "start": 60.8642,
      "duration": 0.0826,
      "velocity": 108,
      "chip": "ym2612"
    },
    {
      "channel": 2,
      "note": 71,
      "start": 60.9293,
      "duration": 0.1315,
      "velocity": 120,
      "chip": "ym2612"
    },
    {
      "channel": 4,
      "note": 33,
      "start": 60.9306,
      "duration": 0.0819,
      "velocity": 108,
      "chip": "ym2612"
    },
    {
      "channel": 5,
      "note": 33,
      "start": 60.9966,
      "duration": 0.0826,
      "velocity": 108,
      "chip": "ym2612"
    },
    {
      "channel": 0,
      "note": 23,
      "start": 61.0602,
      "duration": 0.1654,
      "velocity": 124,
      "chip": "ym2612"
    },
    {
      "channel": 2,
      "note": 71,
      "start": 61.0619,
      "duration": 0.1478,
      "velocity": 120,
      "chip": "ym2612"
    },
    {
      "channel": 4,
      "note": 36,
      "start": 61.0631,
      "duration": 0.0817,
      "velocity": 108,
      "chip": "ym2612"
    },
    {
      "channel": 5,
      "note": 36,
      "start": 61.1456,
      "duration": 0.0826,
      "velocity": 108,
      "chip": "ym2612"
    },
    {
      "channel": 2,
      "note": 47,
      "start": 61.2107,
      "duration": 0.1315,
      "velocity": 124,
      "chip": "ym2612"
    },
    {
      "channel": 4,
      "note": 33,
      "start": 61.2119,
      "duration": 0.0819,
      "velocity": 108,
      "chip": "ym2612"
    },
    {
      "channel": 5,
      "note": 33,
      "start": 61.278,
      "duration": 0.0826,
      "velocity": 108,
      "chip": "ym2612"
    },
    {
      "channel": 0,
      "note": 23,
      "start": 61.3416,
      "duration": 0.1655,
      "velocity": 124,
      "chip": "ym2612"
    },
    {
      "channel": 2,
      "note": 71,
      "start": 61.3432,
      "duration": 0.1478,
      "velocity": 120,
      "chip": "ym2612"
    },
    {
      "channel": 4,
      "note": 33,
      "start": 61.3445,
      "duration": 0.0817,
      "velocity": 108,
      "chip": "ym2612"
    },
    {
      "channel": 5,
      "note": 33,
      "start": 61.4269,
      "duration": 0.0827,
      "velocity": 108,
      "chip": "ym2612"
    },
    {
      "channel": 2,
      "note": 71,
      "start": 61.4922,
      "duration": 0.1315,
      "velocity": 120,
      "chip": "ym2612"
    },
    {
      "channel": 4,
      "note": 45,
      "start": 61.4934,
      "duration": 0.0819,
      "velocity": 108,
      "chip": "ym2612"
    },
    {
      "channel": 5,
      "note": 45,
      "start": 61.5595,
      "duration": 0.0826,
      "velocity": 108,
      "chip": "ym2612"
    },
    {
      "channel": 0,
      "note": 23,
      "start": 61.623,
      "duration": 0.1654,
      "velocity": 124,
      "chip": "ym2612"
    },
    {
      "channel": 2,
      "note": 71,
      "start": 61.6247,
      "duration": 0.1477,
      "velocity": 120,
      "chip": "ym2612"
    },
    {
      "channel": 4,
      "note": 36,
      "start": 61.626,
      "duration": 0.0817,
      "velocity": 108,
      "chip": "ym2612"
    },
    {
      "channel": 5,
      "note": 36,
      "start": 61.7084,
      "duration": 0.0826,
      "velocity": 108,
      "chip": "ym2612"
    },
    {
      "channel": 2,
      "note": 71,
      "start": 61.7735,
      "duration": 0.1315,
      "velocity": 120,
      "chip": "ym2612"
    },
    {
      "channel": 4,
      "note": 33,
      "start": 61.7748,
      "duration": 0.0819,
      "velocity": 108,
      "chip": "ym2612"
    },
    {
      "channel": 5,
      "note": 33,
      "start": 61.8408,
      "duration": 0.0826,
      "velocity": 108,
      "chip": "ym2612"
    },
    {
      "channel": 0,
      "note": 23,
      "start": 61.9044,
      "duration": 0.1654,
      "velocity": 124,
      "chip": "ym2612"
    },
    {
      "channel": 2,
      "note": 71,
      "start": 61.9061,
      "duration": 0.1477,
      "velocity": 120,
      "chip": "ym2612"
    },
    {
      "channel": 4,
      "note": 38,
      "start": 61.9073,
      "duration": 0.0817,
      "velocity": 108,
      "chip": "ym2612"
    },
    {
      "channel": 5,
      "note": 38,
      "start": 61.9898,
      "duration": 0.0826,
      "velocity": 108,
      "chip": "ym2612"
    },
    {
      "channel": 2,
      "note": 71,
      "start": 62.0549,
      "duration": 0.1315,
      "velocity": 120,
      "chip": "ym2612"
    },
    {
      "channel": 4,
      "note": 33,
      "start": 62.0561,
      "duration": 0.0819,
      "velocity": 108,
      "chip": "ym2612"
    },
    {
      "channel": 5,
      "note": 33,
      "start": 62.1222,
      "duration": 0.0826,
      "velocity": 108,
      "chip": "ym2612"
    },
    {
      "channel": 0,
      "note": 23,
      "start": 62.1858,
      "duration": 0.1654,
      "velocity": 124,
      "chip": "ym2612"
    },
    {
      "channel": 2,
      "note": 71,
      "start": 62.1874,
      "duration": 0.1478,
      "velocity": 120,
      "chip": "ym2612"
    },
    {
      "channel": 4,
      "note": 36,
      "start": 62.1887,
      "duration": 0.0817,
      "velocity": 108,
      "chip": "ym2612"
    },
    {
      "channel": 5,
      "note": 36,
      "start": 62.2712,
      "duration": 0.0826,
      "velocity": 108,
      "chip": "ym2612"
    },
    {
      "channel": 2,
      "note": 71,
      "start": 62.3362,
      "duration": 0.1315,
      "velocity": 120,
      "chip": "ym2612"
    },
    {
      "channel": 4,
      "note": 33,
      "start": 62.3375,
      "duration": 0.0819,
      "velocity": 108,
      "chip": "ym2612"
    },
    {
      "channel": 5,
      "note": 33,
      "start": 62.4035,
      "duration": 0.0826,
      "velocity": 108,
      "chip": "ym2612"
    },
    {
      "channel": 0,
      "note": 23,
      "start": 62.4671,
      "duration": 0.1654,
      "velocity": 124,
      "chip": "ym2612"
    },
    {
      "channel": 2,
      "note": 71,
      "start": 62.4688,
      "duration": 0.1478,
      "velocity": 120,
      "chip": "ym2612"
    },
    {
      "channel": 4,
      "note": 35,
      "start": 62.4701,
      "duration": 0.0817,
      "velocity": 108,
      "chip": "ym2612"
    },
    {
      "channel": 5,
      "note": 35,
      "start": 62.5525,
      "duration": 0.0826,
      "velocity": 108,
      "chip": "ym2612"
    },
    {
      "channel": 2,
      "note": 71,
      "start": 62.6177,
      "duration": 0.1315,
      "velocity": 120,
      "chip": "ym2612"
    },
    {
      "channel": 4,
      "note": 45,
      "start": 62.6189,
      "duration": 0.0819,
      "velocity": 108,
      "chip": "ym2612"
    },
    {
      "channel": 5,
      "note": 45,
      "start": 62.685,
      "duration": 0.0826,
      "velocity": 108,
      "chip": "ym2612"
    },
    {
      "channel": 0,
      "note": 23,
      "start": 62.7486,
      "duration": 0.1653,
      "velocity": 124,
      "chip": "ym2612"
    },
    {
      "channel": 2,
      "note": 71,
      "start": 62.7502,
      "duration": 0.1478,
      "velocity": 120,
      "chip": "ym2612"
    },
    {
      "channel": 4,
      "note": 36,
      "start": 62.7515,
      "duration": 0.0817,
      "velocity": 108,
      "chip": "ym2612"
    },
    {
      "channel": 5,
      "note": 36,
      "start": 62.8339,
      "duration": 0.0826,
      "velocity": 108,
      "chip": "ym2612"
    },
    {
      "channel": 2,
      "note": 71,
      "start": 62.899,
      "duration": 0.1317,
      "velocity": 120,
      "chip": "ym2612"
    },
    {
      "channel": 4,
      "note": 33,
      "start": 62.9003,
      "duration": 0.0819,
      "velocity": 108,
      "chip": "ym2612"
    },
    {
      "channel": 5,
      "note": 33,
      "start": 62.9663,
      "duration": 0.0826,
      "velocity": 108,
      "chip": "ym2612"
    },
    {
      "channel": 0,
      "note": 23,
      "start": 63.0299,
      "duration": 0.1654,
      "velocity": 124,
      "chip": "ym2612"
    },
    {
      "channel": 1,
      "note": 23,
      "start": 63.0306,
      "duration": 4.5025,
      "velocity": 122,
      "chip": "ym2612"
    },
    {
      "channel": 2,
      "note": 71,
      "start": 63.0318,
      "duration": 0.1476,
      "velocity": 120,
      "chip": "ym2612"
    },
    {
      "channel": 3,
      "note": 30,
      "start": 63.0325,
      "duration": 2.2505,
      "velocity": 108,
      "chip": "ym2612"
    },
    {
      "channel": 4,
      "note": 37,
      "start": 63.0332,
      "duration": 0.0814,
      "velocity": 108,
      "chip": "ym2612"
    },
    {
      "channel": 5,
      "note": 37,
      "start": 63.1153,
      "duration": 0.0827,
      "velocity": 108,
      "chip": "ym2612"
    },
    {
      "channel": 2,
      "note": 71,
      "start": 63.1805,
      "duration": 0.1315,
      "velocity": 120,
      "chip": "ym2612"
    },
    {
      "channel": 4,
      "note": 35,
      "start": 63.1817,
      "duration": 0.0819,
      "velocity": 108,
      "chip": "ym2612"
    },
    {
      "channel": 5,
      "note": 35,
      "start": 63.2478,
      "duration": 0.0826,
      "velocity": 108,
      "chip": "ym2612"
    },
    {
      "channel": 0,
      "note": 23,
      "start": 63.3114,
      "duration": 0.1653,
      "velocity": 124,
      "chip": "ym2612"
    },
    {
      "channel": 2,
      "note": 71,
      "start": 63.313,
      "duration": 0.1478,
      "velocity": 120,
      "chip": "ym2612"
    },
    {
      "channel": 4,
      "note": 38,
      "start": 63.3143,
      "duration": 0.0817,
      "velocity": 108,
      "chip": "ym2612"
    },
    {
      "channel": 5,
      "note": 38,
      "start": 63.3967,
      "duration": 0.0826,
      "velocity": 108,
      "chip": "ym2612"
    },
    {
      "channel": 2,
      "note": 47,
      "start": 63.4619,
      "duration": 0.1315,
      "velocity": 124,
      "chip": "ym2612"
    },
    {
      "channel": 4,
      "note": 35,
      "start": 63.4631,
      "duration": 0.0819,
      "velocity": 108,
      "chip": "ym2612"
    },
    {
      "channel": 5,
      "note": 35,
      "start": 63.5291,
      "duration": 0.0826,
      "velocity": 108,
      "chip": "ym2612"
    },
    {
      "channel": 0,
      "note": 23,
      "start": 63.5927,
      "duration": 0.1654,
      "velocity": 124,
      "chip": "ym2612"
    },
    {
      "channel": 2,
      "note": 71,
      "start": 63.5944,
      "duration": 0.1478,
      "velocity": 120,
      "chip": "ym2612"
    },
    {
      "channel": 4,
      "note": 35,
      "start": 63.5956,
      "duration": 0.0817,
      "velocity": 108,
      "chip": "ym2612"
    },
    {
      "channel": 5,
      "note": 35,
      "start": 63.6781,
      "duration": 0.0827,
      "velocity": 108,
      "chip": "ym2612"
    },
    {
      "channel": 2,
      "note": 71,
      "start": 63.7432,
      "duration": 0.1315,
      "velocity": 120,
      "chip": "ym2612"
    },
    {
      "channel": 4,
      "note": 47,
      "start": 63.7445,
      "duration": 0.0819,
      "velocity": 108,
      "chip": "ym2612"
    },
    {
      "channel": 5,
      "note": 47,
      "start": 63.8105,
      "duration": 0.0827,
      "velocity": 108,
      "chip": "ym2612"
    },
    {
      "channel": 0,
      "note": 23,
      "start": 63.8741,
      "duration": 0.0992,
      "velocity": 124,
      "chip": "ym2612"
    },
    {
      "channel": 2,
      "note": 71,
      "start": 63.8758,
      "duration": 0.148,
      "velocity": 120,
      "chip": "ym2612"
    },
    {
      "channel": 4,
      "note": 38,
      "start": 63.8771,
      "duration": 0.0818,
      "velocity": 108,
      "chip": "ym2612"
    },
    {
      "channel": 5,
      "note": 38,
      "start": 63.9596,
      "duration": 0.0826,
      "velocity": 108,
      "chip": "ym2612"
    },
    {
      "channel": 0,
      "note": 23,
      "start": 64.0231,
      "duration": 0.0826,
      "velocity": 124,
      "chip": "ym2612"
    },
    {
      "channel": 2,
      "note": 71,
      "start": 64.0249,
      "duration": 0.1312,
      "velocity": 120,
      "chip": "ym2612"
    },
    {
      "channel": 4,
      "note": 35,
      "start": 64.0261,
      "duration": 0.0818,
      "velocity": 108,
      "chip": "ym2612"
    },
    {
      "channel": 5,
      "note": 35,
      "start": 64.092,
      "duration": 0.0826,
      "velocity": 108,
      "chip": "ym2612"
    },
    {
      "channel": 0,
      "note": 23,
      "start": 64.1555,
      "duration": 0.1654,
      "velocity": 124,
      "chip": "ym2612"
    },
    {
      "channel": 2,
      "note": 71,
      "start": 64.1572,
      "duration": 0.1477,
      "velocity": 120,
      "chip": "ym2612"
    },
    {
      "channel": 4,
      "note": 40,
      "start": 64.1585,
      "duration": 0.0817,
      "velocity": 108,
      "chip": "ym2612"
    },
    {
      "channel": 5,
      "note": 40,
      "start": 64.2409,
      "duration": 0.0827,
      "velocity": 108,
      "chip": "ym2612"
    },
    {
      "channel": 2,
      "note": 71,
      "start": 64.306,
      "duration": 0.1315,
      "velocity": 120,
      "chip": "ym2612"
    },
    {
      "channel": 4,
      "note": 35,
      "start": 64.3073,
      "duration": 0.0819,
      "velocity": 108,
      "chip": "ym2612"
    },
    {
      "channel": 5,
      "note": 35,
      "start": 64.3733,
      "duration": 0.0826,
      "velocity": 108,
      "chip": "ym2612"
    },
    {
      "channel": 0,
      "note": 23,
      "start": 64.4369,
      "duration": 0.1653,
      "velocity": 124,
      "chip": "ym2612"
    },
    {
      "channel": 2,
      "note": 71,
      "start": 64.4386,
      "duration": 0.1478,
      "velocity": 120,
      "chip": "ym2612"
    },
    {
      "channel": 4,
      "note": 38,
      "start": 64.4399,
      "duration": 0.0817,
      "velocity": 108,
      "chip": "ym2612"
    },
    {
      "channel": 5,
      "note": 38,
      "start": 64.5223,
      "duration": 0.0827,
      "velocity": 108,
      "chip": "ym2612"
    },
    {
      "channel": 2,
      "note": 71,
      "start": 64.5874,
      "duration": 0.1316,
      "velocity": 120,
      "chip": "ym2612"
    },
    {
      "channel": 4,
      "note": 35,
      "start": 64.5886,
      "duration": 0.0819,
      "velocity": 108,
      "chip": "ym2612"
    },
    {
      "channel": 5,
      "note": 35,
      "start": 64.6547,
      "duration": 0.0827,
      "velocity": 108,
      "chip": "ym2612"
    },
    {
      "channel": 0,
      "note": 23,
      "start": 64.7183,
      "duration": 0.1654,
      "velocity": 124,
      "chip": "ym2612"
    },
    {
      "channel": 2,
      "note": 71,
      "start": 64.72,
      "duration": 0.1478,
      "velocity": 120,
      "chip": "ym2612"
    },
    {
      "channel": 4,
      "note": 37,
      "start": 64.7212,
      "duration": 0.0817,
      "velocity": 108,
      "chip": "ym2612"
    },
    {
      "channel": 5,
      "note": 37,
      "start": 64.8037,
      "duration": 0.0827,
      "velocity": 108,
      "chip": "ym2612"
    },
    {
      "channel": 2,
      "note": 71,
      "start": 64.8688,
      "duration": 0.1315,
      "velocity": 120,
      "chip": "ym2612"
    },
    {
      "channel": 4,
      "note": 35,
      "start": 64.8701,
      "duration": 0.0819,
      "velocity": 108,
      "chip": "ym2612"
    },
    {
      "channel": 5,
      "note": 35,
      "start": 64.9361,
      "duration": 0.0826,
      "velocity": 108,
      "chip": "ym2612"
    },
    {
      "channel": 0,
      "note": 23,
      "start": 64.9997,
      "duration": 0.1653,
      "velocity": 124,
      "chip": "ym2612"
    },
    {
      "channel": 2,
      "note": 71,
      "start": 65.0014,
      "duration": 0.1478,
      "velocity": 120,
      "chip": "ym2612"
    },
    {
      "channel": 4,
      "note": 38,
      "start": 65.0027,
      "duration": 0.0817,
      "velocity": 108,
      "chip": "ym2612"
    },
    {
      "channel": 5,
      "note": 38,
      "start": 65.0851,
      "duration": 0.0826,
      "velocity": 108,
      "chip": "ym2612"
    },
    {
      "channel": 2,
      "note": 71,
      "start": 65.1502,
      "duration": 0.1315,
      "velocity": 120,
      "chip": "ym2612"
    },
    {
      "channel": 4,
      "note": 47,
      "start": 65.1514,
      "duration": 0.0819,
      "velocity": 108,
      "chip": "ym2612"
    },
    {
      "channel": 5,
      "note": 47,
      "start": 65.2175,
      "duration": 0.0826,
      "velocity": 108,
      "chip": "ym2612"
    },
    {
      "channel": 0,
      "note": 23,
      "start": 65.2811,
      "duration": 0.1654,
      "velocity": 124,
      "chip": "ym2612"
    },
    {
      "channel": 2,
      "note": 71,
      "start": 65.2827,
      "duration": 0.1478,
      "velocity": 120,
      "chip": "ym2612"
    },
    {
      "channel": 3,
      "note": 28,
      "start": 65.2835,
      "duration": 2.252,
      "velocity": 108,
      "chip": "ym2612"
    },
    {
      "channel": 4,
      "note": 35,
      "start": 65.2842,
      "duration": 0.0815,
      "velocity": 108,
      "chip": "ym2612"
    },
    {
      "channel": 5,
      "note": 35,
      "start": 65.3664,
      "duration": 0.0826,
      "velocity": 108,
      "chip": "ym2612"
    },
    {
      "channel": 2,
      "note": 71,
      "start": 65.4316,
      "duration": 0.1315,
      "velocity": 120,
      "chip": "ym2612"
    },
    {
      "channel": 4,
      "note": 33,
      "start": 65.4329,
      "duration": 0.0819,
      "velocity": 108,
      "chip": "ym2612"
    },
    {
      "channel": 5,
      "note": 33,
      "start": 65.4989,
      "duration": 0.0826,
      "velocity": 108,
      "chip": "ym2612"
    },
    {
      "channel": 0,
      "note": 23,
      "start": 65.5625,
      "duration": 0.1654,
      "velocity": 124,
      "chip": "ym2612"
    },
    {
      "channel": 2,
      "note": 71,
      "start": 65.5641,
      "duration": 0.1478,
      "velocity": 120,
      "chip": "ym2612"
    },
    {
      "channel": 4,
      "note": 36,
      "start": 65.5654,
      "duration": 0.0817,
      "velocity": 108,
      "chip": "ym2612"
    },
    {
      "channel": 5,
      "note": 36,
      "start": 65.6479,
      "duration": 0.0826,
      "velocity": 108,
      "chip": "ym2612"
    },
    {
      "channel": 2,
      "note": 47,
      "start": 65.713,
      "duration": 0.1314,
      "velocity": 124,
      "chip": "ym2612"
    },
    {
      "channel": 4,
      "note": 33,
      "start": 65.7142,
      "duration": 0.0819,
      "velocity": 108,
      "chip": "ym2612"
    },
    {
      "channel": 5,
      "note": 33,
      "start": 65.7802,
      "duration": 0.0826,
      "velocity": 108,
      "chip": "ym2612"
    },
    {
      "channel": 0,
      "note": 23,
      "start": 65.8439,
      "duration": 0.1654,
      "velocity": 124,
      "chip": "ym2612"
    },
    {
      "channel": 2,
      "note": 71,
      "start": 65.8455,
      "duration": 0.1478,
      "velocity": 120,
      "chip": "ym2612"
    },
    {
      "channel": 4,
      "note": 33,
      "start": 65.8468,
      "duration": 0.0817,
      "velocity": 108,
      "chip": "ym2612"
    },
    {
      "channel": 5,
      "note": 33,
      "start": 65.9292,
      "duration": 0.0826,
      "velocity": 108,
      "chip": "ym2612"
    },
    {
      "channel": 2,
      "note": 71,
      "start": 65.9944,
      "duration": 0.1315,
      "velocity": 120,
      "chip": "ym2612"
    },
    {
      "channel": 4,
      "note": 45,
      "start": 65.9956,
      "duration": 0.0819,
      "velocity": 108,
      "chip": "ym2612"
    },
    {
      "channel": 5,
      "note": 45,
      "start": 66.0617,
      "duration": 0.0826,
      "velocity": 108,
      "chip": "ym2612"
    },
    {
      "channel": 0,
      "note": 23,
      "start": 66.1253,
      "duration": 0.1653,
      "velocity": 124,
      "chip": "ym2612"
    },
    {
      "channel": 2,
      "note": 71,
      "start": 66.1269,
      "duration": 0.1478,
      "velocity": 120,
      "chip": "ym2612"
    },
    {
      "channel": 4,
      "note": 36,
      "start": 66.1282,
      "duration": 0.0817,
      "velocity": 108,
      "chip": "ym2612"
    },
    {
      "channel": 5,
      "note": 36,
      "start": 66.2107,
      "duration": 0.0826,
      "velocity": 108,
      "chip": "ym2612"
    },
    {
      "channel": 2,
      "note": 71,
      "start": 66.2757,
      "duration": 0.1315,
      "velocity": 120,
      "chip": "ym2612"
    },
    {
      "channel": 4,
      "note": 33,
      "start": 66.277,
      "duration": 0.0819,
      "velocity": 108,
      "chip": "ym2612"
    },
    {
      "channel": 5,
      "note": 33,
      "start": 66.3431,
      "duration": 0.0826,
      "velocity": 108,
      "chip": "ym2612"
    },
    {
      "channel": 0,
      "note": 23,
      "start": 66.4067,
      "duration": 0.1653,
      "velocity": 124,
      "chip": "ym2612"
    },
    {
      "channel": 2,
      "note": 71,
      "start": 66.4084,
      "duration": 0.1477,
      "velocity": 120,
      "chip": "ym2612"
    },
    {
      "channel": 4,
      "note": 38,
      "start": 66.4096,
      "duration": 0.0817,
      "velocity": 108,
      "chip": "ym2612"
    },
    {
      "channel": 5,
      "note": 38,
      "start": 66.4921,
      "duration": 0.0826,
      "velocity": 108,
      "chip": "ym2612"
    },
    {
      "channel": 2,
      "note": 71,
      "start": 66.5572,
      "duration": 0.1314,
      "velocity": 120,
      "chip": "ym2612"
    },
    {
      "channel": 4,
      "note": 33,
      "start": 66.5584,
      "duration": 0.0819,
      "velocity": 108,
      "chip": "ym2612"
    },
    {
      "channel": 5,
      "note": 33,
      "start": 66.6245,
      "duration": 0.0826,
      "velocity": 108,
      "chip": "ym2612"
    },
    {
      "channel": 0,
      "note": 23,
      "start": 66.6881,
      "duration": 0.1653,
      "velocity": 124,
      "chip": "ym2612"
    },
    {
      "channel": 2,
      "note": 71,
      "start": 66.6898,
      "duration": 0.1477,
      "velocity": 120,
      "chip": "ym2612"
    },
    {
      "channel": 4,
      "note": 36,
      "start": 66.691,
      "duration": 0.0817,
      "velocity": 108,
      "chip": "ym2612"
    },
    {
      "channel": 5,
      "note": 36,
      "start": 66.7734,
      "duration": 0.0826,
      "velocity": 108,
      "chip": "ym2612"
    },
    {
      "channel": 2,
      "note": 71,
      "start": 66.8385,
      "duration": 0.1315,
      "velocity": 120,
      "chip": "ym2612"
    },
    {
      "channel": 4,
      "note": 33,
      "start": 66.8399,
      "duration": 0.0818,
      "velocity": 108,
      "chip": "ym2612"
    },
    {
      "channel": 5,
      "note": 33,
      "start": 66.9058,
      "duration": 0.0826,
      "velocity": 108,
      "chip": "ym2612"
    },
    {
      "channel": 0,
      "note": 23,
      "start": 66.9694,
      "duration": 0.1654,
      "velocity": 124,
      "chip": "ym2612"
    },
    {
      "channel": 2,
      "note": 71,
      "start": 66.9711,
      "duration": 0.1478,
      "velocity": 120,
      "chip": "ym2612"
    },
    {
      "channel": 4,
      "note": 35,
      "start": 66.9724,
      "duration": 0.0817,
      "velocity": 108,
      "chip": "ym2612"
    },
    {
      "channel": 5,
      "note": 35,
      "start": 67.0548,
      "duration": 0.0826,
      "velocity": 108,
      "chip": "ym2612"
    },
    {
      "channel": 2,
      "note": 71,
      "start": 67.12,
      "duration": 0.1315,
      "velocity": 120,
      "chip": "ym2612"
    },
    {
      "channel": 4,
      "note": 45,
      "start": 67.1212,
      "duration": 0.0819,
      "velocity": 108,
      "chip": "ym2612"
    },
    {
      "channel": 5,
      "note": 45,
      "start": 67.1872,
      "duration": 0.0827,
      "velocity": 108,
      "chip": "ym2612"
    },
    {
      "channel": 0,
      "note": 23,
      "start": 67.2509,
      "duration": 0.1653,
      "velocity": 124,
      "chip": "ym2612"
    },
    {
      "channel": 2,
      "note": 71,
      "start": 67.2525,
      "duration": 0.1478,
      "velocity": 120,
      "chip": "ym2612"
    },
    {
      "channel": 4,
      "note": 36,
      "start": 67.2538,
      "duration": 0.0817,
      "velocity": 108,
      "chip": "ym2612"
    },
    {
      "channel": 5,
      "note": 36,
      "start": 67.3362,
      "duration": 0.0826,
      "velocity": 108,
      "chip": "ym2612"
    },
    {
      "channel": 2,
      "note": 71,
      "start": 67.4013,
      "duration": 0.133,
      "velocity": 120,
      "chip": "ym2612"
    },
    {
      "channel": 4,
      "note": 33,
      "start": 67.4026,
      "duration": 0.0819,
      "velocity": 108,
      "chip": "ym2612"
    },
    {
      "channel": 5,
      "note": 33,
      "start": 67.4686,
      "duration": 0.0688,
      "velocity": 108,
      "chip": "ym2612"
    },
    {
      "channel": 0,
      "note": 35,
      "start": 67.5329,
      "duration": 4.5011,
      "velocity": 108,
      "chip": "ym2612"
    },
    {
      "channel": 1,
      "note": 30,
      "start": 67.5342,
      "duration": 2.2492,
      "velocity": 108,
      "chip": "ym2612"
    },
    {
      "channel": 2,
      "note": 59,
      "start": 67.5354,
      "duration": 0.1464,
      "velocity": 119,
      "chip": "ym2612"
    },
    {
      "channel": 3,
      "note": 37,
      "start": 67.5367,
      "duration": 0.0798,
      "velocity": 108,
      "chip": "ym2612"
    },
    {
      "channel": 5,
      "note": 7,
      "start": 67.5385,
      "duration": 2.2482,
      "velocity": 1,
      "chip": "ym2612"
    },
    {
      "channel": 4,
      "note": 37,
      "start": 67.6172,
      "duration": 0.0826,
      "velocity": 108,
      "chip": "ym2612"
    },
    {
      "channel": 2,
      "note": 74,
      "start": 67.6829,
      "duration": 0.1313,
      "velocity": 65,
      "chip": "ym2612"
    },
    {
      "channel": 3,
      "note": 35,
      "start": 67.6836,
      "duration": 0.0818,
      "velocity": 108,
      "chip": "ym2612"
    },
    {
      "channel": 4,
      "note": 35,
      "start": 67.7496,
      "duration": 0.0826,
      "velocity": 108,
      "chip": "ym2612"
    },
    {
      "channel": 2,
      "note": 74,
      "start": 67.8153,
      "duration": 0.1479,
      "velocity": 59,
      "chip": "ym2612"
    },
    {
      "channel": 3,
      "note": 38,
      "start": 67.816,
      "duration": 0.0819,
      "velocity": 108,
      "chip": "ym2612"
    },
    {
      "channel": 4,
      "note": 38,
      "start": 67.8986,
      "duration": 0.0826,
      "velocity": 108,
      "chip": "ym2612"
    },
    {
      "channel": 2,
      "note": 74,
      "start": 67.9637,
      "duration": 0.1319,
      "velocity": 59,
      "chip": "ym2612"
    },
    {
      "channel": 3,
      "note": 35,
      "start": 67.9644,
      "duration": 0.0824,
      "velocity": 108,
      "chip": "ym2612"
    },
    {
      "channel": 4,
      "note": 35,
      "start": 68.031,
      "duration": 0.0826,
      "velocity": 108,
      "chip": "ym2612"
    },
    {
      "channel": 2,
      "note": 74,
      "start": 68.0967,
      "duration": 0.1479,
      "velocity": 65,
      "chip": "ym2612"
    },
    {
      "channel": 3,
      "note": 35,
      "start": 68.0974,
      "duration": 0.0818,
      "velocity": 108,
      "chip": "ym2612"
    },
    {
      "channel": 4,
      "note": 35,
      "start": 68.18,
      "duration": 0.0826,
      "velocity": 108,
      "chip": "ym2612"
    },
    {
      "channel": 2,
      "note": 74,
      "start": 68.2456,
      "duration": 0.1314,
      "velocity": 59,
      "chip": "ym2612"
    },
    {
      "channel": 3,
      "note": 47,
      "start": 68.2463,
      "duration": 0.0819,
      "velocity": 108,
      "chip": "ym2612"
    },
    {
      "channel": 4,
      "note": 47,
      "start": 68.3124,
      "duration": 0.0826,
      "velocity": 108,
      "chip": "ym2612"
    },
    {
      "channel": 2,
      "note": 74,
      "start": 68.3775,
      "duration": 0.1484,
      "velocity": 59,
      "chip": "ym2612"
    },
    {
      "channel": 3,
      "note": 38,
      "start": 68.3782,
      "duration": 0.0824,
      "velocity": 108,
      "chip": "ym2612"
    },
    {
      "channel": 4,
      "note": 38,
      "start": 68.4614,
      "duration": 0.0826,
      "velocity": 108,
      "chip": "ym2612"
    },
    {
      "channel": 2,
      "note": 74,
      "start": 68.5271,
      "duration": 0.1313,
      "velocity": 65,
      "chip": "ym2612"
    },
    {
      "channel": 3,
      "note": 35,
      "start": 68.5278,
      "duration": 0.0819,
      "velocity": 108,
      "chip": "ym2612"
    },
    {
      "channel": 4,
      "note": 35,
      "start": 68.5938,
      "duration": 0.0826,
      "velocity": 108,
      "chip": "ym2612"
    },
    {
      "channel": 2,
      "note": 59,
      "start": 68.6595,
      "duration": 0.148,
      "velocity": 119,
      "chip": "ym2612"
    },
    {
      "channel": 3,
      "note": 40,
      "start": 68.6602,
      "duration": 0.0819,
      "velocity": 108,
      "chip": "ym2612"
    },
    {
      "channel": 4,
      "note": 40,
      "start": 68.7428,
      "duration": 0.0826,
      "velocity": 108,
      "chip": "ym2612"
    },
    {
      "channel": 2,
      "note": 74,
      "start": 68.8085,
      "duration": 0.1313,
      "velocity": 65,
      "chip": "ym2612"
    },
    {
      "channel": 3,
      "note": 35,
      "start": 68.8092,
      "duration": 0.0819,
      "velocity": 108,
      "chip": "ym2612"
    },
    {
      "channel": 4,
      "note": 35,
      "start": 68.8752,
      "duration": 0.0827,
      "velocity": 108,
      "chip": "ym2612"
    },
    {
      "channel": 2,
      "note": 74,
      "start": 68.9409,
      "duration": 0.1478,
      "velocity": 59,
      "chip": "ym2612"
    },
    {
      "channel": 3,
      "note": 38,
      "start": 68.9416,
      "duration": 0.0819,
      "velocity": 108,
      "chip": "ym2612"
    },
    {
      "channel": 4,
      "note": 38,
      "start": 69.0242,
      "duration": 0.0826,
      "velocity": 108,
      "chip": "ym2612"
    },
    {
      "channel": 2,
      "note": 74,
      "start": 69.0892,
      "duration": 0.1319,
      "velocity": 59,
      "chip": "ym2612"
    },
    {
      "channel": 3,
      "note": 35,
      "start": 69.09,
      "duration": 0.0824,
      "velocity": 108,
      "chip": "ym2612"
    },
    {
      "channel": 4,
      "note": 35,
      "start": 69.1566,
      "duration": 0.0826,
      "velocity": 108,
      "chip": "ym2612"
    },
    {
      "channel": 2,
      "note": 74,
      "start": 69.2222,
      "duration": 0.1479,
      "velocity": 65,
      "chip": "ym2612"
    },
    {
      "channel": 3,
      "note": 37,
      "start": 69.223,
      "duration": 0.0818,
      "velocity": 108,
      "chip": "ym2612"
    },
    {
      "channel": 4,
      "note": 37,
      "start": 69.3056,
      "duration": 0.0826,
      "velocity": 108,
      "chip": "ym2612"
    },
    {
      "channel": 2,
      "note": 74,
      "start": 69.3712,
      "duration": 0.1314,
      "velocity": 59,
      "chip": "ym2612"
    },
    {
      "channel": 3,
      "note": 35,
      "start": 69.3719,
      "duration": 0.0819,
      "velocity": 108,
      "chip": "ym2612"
    },
    {
      "channel": 4,
      "note": 35,
      "start": 69.438,
      "duration": 0.0826,
      "velocity": 108,
      "chip": "ym2612"
    },
    {
      "channel": 2,
      "note": 47,
      "start": 69.5036,
      "duration": 0.1479,
      "velocity": 119,
      "chip": "ym2612"
    },
    {
      "channel": 3,
      "note": 38,
      "start": 69.5044,
      "duration": 0.0819,
      "velocity": 108,
      "chip": "ym2612"
    },
    {
      "channel": 4,
      "note": 38,
      "start": 69.5869,
      "duration": 0.0826,
      "velocity": 108,
      "chip": "ym2612"
    },
    {
      "channel": 2,
      "note": 74,
      "start": 69.6527,
      "duration": 0.1315,
      "velocity": 65,
      "chip": "ym2612"
    },
    {
      "channel": 3,
      "note": 47,
      "start": 69.6533,
      "duration": 0.0819,
      "velocity": 108,
      "chip": "ym2612"
    },
    {
      "channel": 4,
      "note": 47,
      "start": 69.7193,
      "duration": 0.0826,
      "velocity": 108,
      "chip": "ym2612"
    },
    {
      "channel": 1,
      "note": 29,
      "start": 69.784,
      "duration": 2.2507,
      "velocity": 108,
      "chip": "ym2612"
    },
    {
      "channel": 2,
      "note": 59,
      "start": 69.7852,
      "duration": 0.1477,
      "velocity": 119,
      "chip": "ym2612"
    },
    {
      "channel": 3,
      "note": 37,
      "start": 69.7859,
      "duration": 0.0817,
      "velocity": 108,
      "chip": "ym2612"
    },
    {
      "channel": 5,
      "note": 7,
      "start": 69.7871,
      "duration": 2.2508,
      "velocity": 1,
      "chip": "ym2612"
    },
    {
      "channel": 4,
      "note": 37,
      "start": 69.8684,
      "duration": 0.0826,
      "velocity": 108,
      "chip": "ym2612"
    },
    {
      "channel": 2,
      "note": 74,
      "start": 69.934,
      "duration": 0.1314,
      "velocity": 65,
      "chip": "ym2612"
    },
    {
      "channel": 3,
      "note": 35,
      "start": 69.9348,
      "duration": 0.0818,
      "velocity": 108,
      "chip": "ym2612"
    },
    {
      "channel": 4,
      "note": 35,
      "start": 70.0007,
      "duration": 0.0827,
      "velocity": 108,
      "chip": "ym2612"
    },
    {
      "channel": 2,
      "note": 74,
      "start": 70.0664,
      "duration": 0.1479,
      "velocity": 59,
      "chip": "ym2612"
    },
    {
      "channel": 3,
      "note": 38,
      "start": 70.0671,
      "duration": 0.0819,
      "velocity": 108,
      "chip": "ym2612"
    },
    {
      "channel": 4,
      "note": 38,
      "start": 70.1497,
      "duration": 0.0826,
      "velocity": 108,
      "chip": "ym2612"
    },
    {
      "channel": 2,
      "note": 74,
      "start": 70.2148,
      "duration": 0.132,
      "velocity": 59,
      "chip": "ym2612"
    },
    {
      "channel": 3,
      "note": 35,
      "start": 70.2156,
      "duration": 0.0824,
      "velocity": 108,
      "chip": "ym2612"
    },
    {
      "channel": 4,
      "note": 35,
      "start": 70.2821,
      "duration": 0.0827,
      "velocity": 108,
      "chip": "ym2612"
    },
    {
      "channel": 2,
      "note": 74,
      "start": 70.3478,
      "duration": 0.1479,
      "velocity": 65,
      "chip": "ym2612"
    },
    {
      "channel": 3,
      "note": 35,
      "start": 70.3486,
      "duration": 0.0818,
      "velocity": 108,
      "chip": "ym2612"
    },
    {
      "channel": 4,
      "note": 35,
      "start": 70.4311,
      "duration": 0.0826,
      "velocity": 108,
      "chip": "ym2612"
    },
    {
      "channel": 2,
      "note": 74,
      "start": 70.4968,
      "duration": 0.1314,
      "velocity": 59,
      "chip": "ym2612"
    },
    {
      "channel": 3,
      "note": 47,
      "start": 70.4975,
      "duration": 0.0819,
      "velocity": 108,
      "chip": "ym2612"
    },
    {
      "channel": 4,
      "note": 47,
      "start": 70.5635,
      "duration": 0.0826,
      "velocity": 108,
      "chip": "ym2612"
    },
    {
      "channel": 2,
      "note": 74,
      "start": 70.6286,
      "duration": 0.1485,
      "velocity": 59,
      "chip": "ym2612"
    },
    {
      "channel": 3,
      "note": 38,
      "start": 70.6294,
      "duration": 0.0824,
      "velocity": 108,
      "chip": "ym2612"
    },
    {
      "channel": 4,
      "note": 38,
      "start": 70.7125,
      "duration": 0.0827,
      "velocity": 108,
      "chip": "ym2612"
    },
    {
      "channel": 2,
      "note": 74,
      "start": 70.7782,
      "duration": 0.1314,
      "velocity": 65,
      "chip": "ym2612"
    },
    {
      "channel": 3,
      "note": 35,
      "start": 70.7789,
      "duration": 0.0819,
      "velocity": 108,
      "chip": "ym2612"
    },
    {
      "channel": 4,
      "note": 35,
      "start": 70.8449,
      "duration": 0.0826,
      "velocity": 108,
      "chip": "ym2612"
    },
    {
      "channel": 2,
      "note": 59,
      "start": 70.9106,
      "duration": 0.1479,
      "velocity": 119,
      "chip": "ym2612"
    },
    {
      "channel": 3,
      "note": 40,
      "start": 70.9113,
      "duration": 0.0819,
      "velocity": 108,
      "chip": "ym2612"
    },
    {
      "channel": 4,
      "note": 40,
      "start": 70.9939,
      "duration": 0.0826,
      "velocity": 108,
      "chip": "ym2612"
    },
    {
      "channel": 2,
      "note": 74,
      "start": 71.0596,
      "duration": 0.1314,
      "velocity": 65,
      "chip": "ym2612"
    },
    {
      "channel": 3,
      "note": 35,
      "start": 71.0603,
      "duration": 0.0819,
      "velocity": 108,
      "chip": "ym2612"
    },
    {
      "channel": 4,
      "note": 35,
      "start": 71.1263,
      "duration": 0.0827,
      "velocity": 108,
      "chip": "ym2612"
    },
    {
      "channel": 2,
      "note": 74,
      "start": 71.192,
      "duration": 0.1479,
      "velocity": 59,
      "chip": "ym2612"
    },
    {
      "channel": 3,
      "note": 38,
      "start": 71.1928,
      "duration": 0.0819,
      "velocity": 108,
      "chip": "ym2612"
    },
    {
      "channel": 4,
      "note": 38,
      "start": 71.2754,
      "duration": 0.0826,
      "velocity": 108,
      "chip": "ym2612"
    },
    {
      "channel": 2,
      "note": 74,
      "start": 71.3404,
      "duration": 0.1319,
      "velocity": 59,
      "chip": "ym2612"
    },
    {
      "channel": 3,
      "note": 35,
      "start": 71.3411,
      "duration": 0.0825,
      "velocity": 108,
      "chip": "ym2612"
    },
    {
      "channel": 4,
      "note": 35,
      "start": 71.4077,
      "duration": 0.0826,
      "velocity": 108,
      "chip": "ym2612"
    },
    {
      "channel": 2,
      "note": 74,
      "start": 71.4734,
      "duration": 0.1478,
      "velocity": 65,
      "chip": "ym2612"
    },
    {
      "channel": 3,
      "note": 37,
      "start": 71.4741,
      "duration": 0.0818,
      "velocity": 108,
      "chip": "ym2612"
    },
    {
      "channel": 4,
      "note": 37,
      "start": 71.5567,
      "duration": 0.0826,
      "velocity": 108,
      "chip": "ym2612"
    },
    {
      "channel": 2,
      "note": 74,
      "start": 71.6224,
      "duration": 0.1314,
      "velocity": 59,
      "chip": "ym2612"
    },
    {
      "channel": 3,
      "note": 35,
      "start": 71.6231,
      "duration": 0.0818,
      "velocity": 108,
      "chip": "ym2612"
    },
    {
      "channel": 4,
      "note": 35,
      "start": 71.6891,
      "duration": 0.0826,
      "velocity": 108,
      "chip": "ym2612"
    },
    {
      "channel": 2,
      "note": 74,
      "start": 71.7542,
      "duration": 0.1485,
      "velocity": 59,
      "chip": "ym2612"
    },
    {
      "channel": 3,
      "note": 38,
      "start": 71.7549,
      "duration": 0.0824,
      "velocity": 108,
      "chip": "ym2612"
    },
    {
      "channel": 4,
      "note": 38,
      "start": 71.8381,
      "duration": 0.0826,
      "velocity": 108,
      "chip": "ym2612"
    },
    {
      "channel": 2,
      "note": 74,
      "start": 71.9037,
      "duration": 0.1317,
      "velocity": 65,
      "chip": "ym2612"
    },
    {
      "channel": 3,
      "note": 47,
      "start": 71.9045,
      "duration": 0.0819,
      "velocity": 108,
      "chip": "ym2612"
    },
    {
      "channel": 4,
      "note": 47,
      "start": 71.9705,
      "duration": 0.0826,
      "velocity": 108,
      "chip": "ym2612"
    },
    {
      "channel": 0,
      "note": 38,
      "start": 72.0346,
      "duration": 4.5017,
      "velocity": 108,
      "chip": "ym2612"
    },
    {
      "channel": 1,
      "note": 28,
      "start": 72.0353,
      "duration": 4.5022,
      "velocity": 108,
      "chip": "ym2612"
    },
    {
      "channel": 2,
      "note": 23,
      "start": 72.0366,
      "duration": 0.1644,
      "velocity": 124,
      "chip": "ym2612"
    },
    {
      "channel": 3,
      "note": 37,
      "start": 72.0373,
      "duration": 0.0815,
      "velocity": 108,
      "chip": "ym2612"
    },
    {
      "channel": 5,
      "note": 59,
      "start": 72.039,
      "duration": 0.1469,
      "velocity": 119,
      "chip": "ym2612"
    },
    {
      "channel": 4,
      "note": 37,
      "start": 72.1195,
      "duration": 0.0826,
      "velocity": 108,
      "chip": "ym2612"
    },
    {
      "channel": 3,
      "note": 35,
      "start": 72.1851,
      "duration": 0.0826,
      "velocity": 108,
      "chip": "ym2612"
    },
    {
      "channel": 5,
      "note": 74,
      "start": 72.1869,
      "duration": 0.1314,
      "velocity": 65,
      "chip": "ym2612"
    },
    {
      "channel": 4,
      "note": 35,
      "start": 72.2519,
      "duration": 0.0826,
      "velocity": 108,
      "chip": "ym2612"
    },
    {
      "channel": 2,
      "note": 23,
      "start": 72.317,
      "duration": 0.1654,
      "velocity": 124,
      "chip": "ym2612"
    },
    {
      "channel": 3,
      "note": 38,
      "start": 72.3177,
      "duration": 0.0825,
      "velocity": 108,
      "chip": "ym2612"
    },
    {
      "channel": 5,
      "note": 74,
      "start": 72.3194,
      "duration": 0.1478,
      "velocity": 59,
      "chip": "ym2612"
    },
    {
      "channel": 4,
      "note": 38,
      "start": 72.4009,
      "duration": 0.0826,
      "velocity": 108,
      "chip": "ym2612"
    },
    {
      "channel": 3,
      "note": 35,
      "start": 72.4665,
      "duration": 0.0826,
      "velocity": 108,
      "chip": "ym2612"
    },
    {
      "channel": 5,
      "note": 74,
      "start": 72.4677,
      "duration": 0.1321,
      "velocity": 59,
      "chip": "ym2612"
    },
    {
      "channel": 4,
      "note": 35,
      "start": 72.5332,
      "duration": 0.0826,
      "velocity": 108,
      "chip": "ym2612"
    },
    {
      "channel": 2,
      "note": 23,
      "start": 72.5984,
      "duration": 0.1653,
      "velocity": 124,
      "chip": "ym2612"
    },
    {
      "channel": 3,
      "note": 35,
      "start": 72.5991,
      "duration": 0.0824,
      "velocity": 108,
      "chip": "ym2612"
    },
    {
      "channel": 5,
      "note": 74,
      "start": 72.6009,
      "duration": 0.1477,
      "velocity": 65,
      "chip": "ym2612"
    },
    {
      "channel": 4,
      "note": 35,
      "start": 72.6822,
      "duration": 0.0826,
      "velocity": 108,
      "chip": "ym2612"
    },
    {
      "channel": 3,
      "note": 47,
      "start": 72.7479,
      "duration": 0.0826,
      "velocity": 108,
      "chip": "ym2612"
    },
    {
      "channel": 5,
      "note": 74,
      "start": 72.7497,
      "duration": 0.1315,
      "velocity": 59,
      "chip": "ym2612"
    },
    {
      "channel": 4,
      "note": 47,
      "start": 72.8147,
      "duration": 0.0826,
      "velocity": 108,
      "chip": "ym2612"
    },
    {
      "channel": 2,
      "note": 23,
      "start": 72.8798,
      "duration": 0.0992,
      "velocity": 124,
      "chip": "ym2612"
    },
    {
      "channel": 3,
      "note": 38,
      "start": 72.8805,
      "duration": 0.0825,
      "velocity": 108,
      "chip": "ym2612"
    },
    {
      "channel": 5,
      "note": 74,
      "start": 72.8817,
      "duration": 0.1485,
      "velocity": 59,
      "chip": "ym2612"
    },
    {
      "channel": 4,
      "note": 38,
      "start": 72.9637,
      "duration": 0.0826,
      "velocity": 108,
      "chip": "ym2612"
    },
    {
      "channel": 2,
      "note": 23,
      "start": 73.0287,
      "duration": 0.0826,
      "velocity": 124,
      "chip": "ym2612"
    },
    {
      "channel": 3,
      "note": 35,
      "start": 73.0294,
      "duration": 0.0825,
      "velocity": 108,
      "chip": "ym2612"
    },
    {
      "channel": 5,
      "note": 74,
      "start": 73.0312,
      "duration": 0.1313,
      "velocity": 65,
      "chip": "ym2612"
    },
    {
      "channel": 4,
      "note": 35,
      "start": 73.096,
      "duration": 0.0826,
      "velocity": 108,
      "chip": "ym2612"
    },
    {
      "channel": 2,
      "note": 23,
      "start": 73.1612,
      "duration": 0.1654,
      "velocity": 124,
      "chip": "ym2612"
    },
    {
      "channel": 3,
      "note": 40,
      "start": 73.1619,
      "duration": 0.0824,
      "velocity": 108,
      "chip": "ym2612"
    },
    {
      "channel": 5,
      "note": 59,
      "start": 73.1636,
      "duration": 0.1478,
      "velocity": 119,
      "chip": "ym2612"
    },
    {
      "channel": 4,
      "note": 40,
      "start": 73.245,
      "duration": 0.0826,
      "velocity": 108,
      "chip": "ym2612"
    },
    {
      "channel": 3,
      "note": 35,
      "start": 73.3107,
      "duration": 0.0826,
      "velocity": 108,
      "chip": "ym2612"
    },
    {
      "channel": 5,
      "note": 74,
      "start": 73.3124,
      "duration": 0.1315,
      "velocity": 65,
      "chip": "ym2612"
    },
    {
      "channel": 4,
      "note": 35,
      "start": 73.3775,
      "duration": 0.0826,
      "velocity": 108,
      "chip": "ym2612"
    },
    {
      "channel": 2,
      "note": 23,
      "start": 73.4425,
      "duration": 0.1654,
      "velocity": 124,
      "chip": "ym2612"
    },
    {
      "channel": 3,
      "note": 38,
      "start": 73.4432,
      "duration": 0.0825,
      "velocity": 108,
      "chip": "ym2612"
    },
    {
      "channel": 5,
      "note": 74,
      "start": 73.445,
      "duration": 0.1478,
      "velocity": 59,
      "chip": "ym2612"
    },
    {
      "channel": 4,
      "note": 38,
      "start": 73.5264,
      "duration": 0.0827,
      "velocity": 108,
      "chip": "ym2612"
    },
    {
      "channel": 3,
      "note": 35,
      "start": 73.5921,
      "duration": 0.0826,
      "velocity": 108,
      "chip": "ym2612"
    },
    {
      "channel": 5,
      "note": 74,
      "start": 73.5934,
      "duration": 0.132,
      "velocity": 59,
      "chip": "ym2612"
    },
    {
      "channel": 4,
      "note": 35,
      "start": 73.6589,
      "duration": 0.0826,
      "velocity": 108,
      "chip": "ym2612"
    },
    {
      "channel": 2,
      "note": 23,
      "start": 73.724,
      "duration": 0.1653,
      "velocity": 124,
      "chip": "ym2612"
    },
    {
      "channel": 3,
      "note": 37,
      "start": 73.7247,
      "duration": 0.0824,
      "velocity": 108,
      "chip": "ym2612"
    },
    {
      "channel": 5,
      "note": 74,
      "start": 73.7265,
      "duration": 0.1477,
      "velocity": 65,
      "chip": "ym2612"
    },
    {
      "channel": 4,
      "note": 37,
      "start": 73.8079,
      "duration": 0.0826,
      "velocity": 108,
      "chip": "ym2612"
    },
    {
      "channel": 3,
      "note": 35,
      "start": 73.8735,
      "duration": 0.0826,
      "velocity": 108,
      "chip": "ym2612"
    },
    {
      "channel": 5,
      "note": 74,
      "start": 73.8753,
      "duration": 0.1315,
      "velocity": 59,
      "chip": "ym2612"
    },
    {
      "channel": 4,
      "note": 35,
      "start": 73.9402,
      "duration": 0.0826,
      "velocity": 108,
      "chip": "ym2612"
    },
    {
      "channel": 2,
      "note": 23,
      "start": 74.0053,
      "duration": 0.1654,
      "velocity": 124,
      "chip": "ym2612"
    },
    {
      "channel": 3,
      "note": 38,
      "start": 74.006,
      "duration": 0.0825,
      "velocity": 108,
      "chip": "ym2612"
    },
    {
      "channel": 5,
      "note": 47,
      "start": 74.0079,
      "duration": 0.1476,
      "velocity": 119,
      "chip": "ym2612"
    },
    {
      "channel": 4,
      "note": 38,
      "start": 74.0892,
      "duration": 0.0826,
      "velocity": 108,
      "chip": "ym2612"
    },
    {
      "channel": 3,
      "note": 47,
      "start": 74.1549,
      "duration": 0.0826,
      "velocity": 108,
      "chip": "ym2612"
    },
    {
      "channel": 5,
      "note": 74,
      "start": 74.1567,
      "duration": 0.1314,
      "velocity": 65,
      "chip": "ym2612"
    },
    {
      "channel": 4,
      "note": 47,
      "start": 74.2216,
      "duration": 0.0826,
      "velocity": 108,
      "chip": "ym2612"
    },
    {
      "channel": 2,
      "note": 23,
      "start": 74.2867,
      "duration": 0.1653,
      "velocity": 124,
      "chip": "ym2612"
    },
    {
      "channel": 3,
      "note": 37,
      "start": 74.2874,
      "duration": 0.0824,
      "velocity": 108,
      "chip": "ym2612"
    },
    {
      "channel": 5,
      "note": 59,
      "start": 74.2892,
      "duration": 0.1477,
      "velocity": 119,
      "chip": "ym2612"
    },
    {
      "channel": 4,
      "note": 37,
      "start": 74.3706,
      "duration": 0.0826,
      "velocity": 108,
      "chip": "ym2612"
    },
    {
      "channel": 3,
      "note": 35,
      "start": 74.4362,
      "duration": 0.0826,
      "velocity": 108,
      "chip": "ym2612"
    },
    {
      "channel": 5,
      "note": 74,
      "start": 74.438,
      "duration": 0.1315,
      "velocity": 65,
      "chip": "ym2612"
    },
    {
      "channel": 4,
      "note": 35,
      "start": 74.503,
      "duration": 0.0827,
      "velocity": 108,
      "chip": "ym2612"
    },
    {
      "channel": 2,
      "note": 23,
      "start": 74.5681,
      "duration": 0.1654,
      "velocity": 124,
      "chip": "ym2612"
    },
    {
      "channel": 3,
      "note": 38,
      "start": 74.5688,
      "duration": 0.0825,
      "velocity": 108,
      "chip": "ym2612"
    },
    {
      "channel": 5,
      "note": 74,
      "start": 74.5706,
      "duration": 0.1478,
      "velocity": 59,
      "chip": "ym2612"
    },
    {
      "channel": 4,
      "note": 38,
      "start": 74.652,
      "duration": 0.0826,
      "velocity": 108,
      "chip": "ym2612"
    },
    {
      "channel": 3,
      "note": 35,
      "start": 74.7177,
      "duration": 0.0826,
      "velocity": 108,
      "chip": "ym2612"
    },
    {
      "channel": 5,
      "note": 74,
      "start": 74.7189,
      "duration": 0.1321,
      "velocity": 59,
      "chip": "ym2612"
    },
    {
      "channel": 4,
      "note": 35,
      "start": 74.7844,
      "duration": 0.0827,
      "velocity": 108,
      "chip": "ym2612"
    },
    {
      "channel": 2,
      "note": 23,
      "start": 74.8495,
      "duration": 0.1653,
      "velocity": 124,
      "chip": "ym2612"
    },
    {
      "channel": 3,
      "note": 35,
      "start": 74.8502,
      "duration": 0.0824,
      "velocity": 108,
      "chip": "ym2612"
    },
    {
      "channel": 5,
      "note": 74,
      "start": 74.852,
      "duration": 0.1477,
      "velocity": 65,
      "chip": "ym2612"
    },
    {
      "channel": 4,
      "note": 35,
      "start": 74.9334,
      "duration": 0.0826,
      "velocity": 108,
      "chip": "ym2612"
    },
    {
      "channel": 3,
      "note": 47,
      "start": 74.999,
      "duration": 0.0826,
      "velocity": 108,
      "chip": "ym2612"
    },
    {
      "channel": 5,
      "note": 74,
      "start": 75.0008,
      "duration": 0.1316,
      "velocity": 59,
      "chip": "ym2612"
    },
    {
      "channel": 4,
      "note": 47,
      "start": 75.0658,
      "duration": 0.0826,
      "velocity": 108,
      "chip": "ym2612"
    },
    {
      "channel": 2,
      "note": 23,
      "start": 75.1309,
      "duration": 0.1654,
      "velocity": 124,
      "chip": "ym2612"
    },
    {
      "channel": 3,
      "note": 38,
      "start": 75.1316,
      "duration": 0.0825,
      "velocity": 108,
      "chip": "ym2612"
    },
    {
      "channel": 5,
      "note": 74,
      "start": 75.1328,
      "duration": 0.1483,
      "velocity": 59,
      "chip": "ym2612"
    },
    {
      "channel": 4,
      "note": 38,
      "start": 75.2148,
      "duration": 0.0827,
      "velocity": 108,
      "chip": "ym2612"
    },
    {
      "channel": 3,
      "note": 35,
      "start": 75.2805,
      "duration": 0.0826,
      "velocity": 108,
      "chip": "ym2612"
    },
    {
      "channel": 5,
      "note": 74,
      "start": 75.2822,
      "duration": 0.1314,
      "velocity": 65,
      "chip": "ym2612"
    },
    {
      "channel": 4,
      "note": 35,
      "start": 75.3472,
      "duration": 0.0826,
      "velocity": 108,
      "chip": "ym2612"
    },
    {
      "channel": 2,
      "note": 23,
      "start": 75.4123,
      "duration": 0.1653,
      "velocity": 124,
      "chip": "ym2612"
    },
    {
      "channel": 3,
      "note": 40,
      "start": 75.413,
      "duration": 0.0824,
      "velocity": 108,
      "chip": "ym2612"
    },
    {
      "channel": 5,
      "note": 59,
      "start": 75.4147,
      "duration": 0.1478,
      "velocity": 119,
      "chip": "ym2612"
    },
    {
      "channel": 4,
      "note": 40,
      "start": 75.4961,
      "duration": 0.0827,
      "velocity": 108,
      "chip": "ym2612"
    },
    {
      "channel": 3,
      "note": 35,
      "start": 75.5618,
      "duration": 0.0826,
      "velocity": 108,
      "chip": "ym2612"
    },
    {
      "channel": 5,
      "note": 74,
      "start": 75.5636,
      "duration": 0.1315,
      "velocity": 65,
      "chip": "ym2612"
    },
    {
      "channel": 4,
      "note": 35,
      "start": 75.6286,
      "duration": 0.0826,
      "velocity": 108,
      "chip": "ym2612"
    },
    {
      "channel": 2,
      "note": 23,
      "start": 75.6937,
      "duration": 0.1654,
      "velocity": 124,
      "chip": "ym2612"
    },
    {
      "channel": 3,
      "note": 38,
      "start": 75.6944,
      "duration": 0.0824,
      "velocity": 108,
      "chip": "ym2612"
    },
    {
      "channel": 5,
      "note": 74,
      "start": 75.6961,
      "duration": 0.1478,
      "velocity": 59,
      "chip": "ym2612"
    },
    {
      "channel": 4,
      "note": 38,
      "start": 75.7776,
      "duration": 0.0826,
      "velocity": 108,
      "chip": "ym2612"
    },
    {
      "channel": 3,
      "note": 35,
      "start": 75.8432,
      "duration": 0.0826,
      "velocity": 108,
      "chip": "ym2612"
    },
    {
      "channel": 5,
      "note": 74,
      "start": 75.8444,
      "duration": 0.132,
      "velocity": 59,
      "chip": "ym2612"
    },
    {
      "channel": 4,
      "note": 35,
      "start": 75.91,
      "duration": 0.0827,
      "velocity": 108,
      "chip": "ym2612"
    },
    {
      "channel": 2,
      "note": 23,
      "start": 75.9751,
      "duration": 0.1654,
      "velocity": 124,
      "chip": "ym2612"
    },
    {
      "channel": 3,
      "note": 37,
      "start": 75.9758,
      "duration": 0.0825,
      "velocity": 108,
      "chip": "ym2612"
    },
    {
      "channel": 5,
      "note": 74,
      "start": 75.9776,
      "duration": 0.1477,
      "velocity": 65,
      "chip": "ym2612"
    },
    {
      "channel": 4,
      "note": 37,
      "start": 76.059,
      "duration": 0.0826,
      "velocity": 108,
      "chip": "ym2612"
    },
    {
      "channel": 3,
      "note": 35,
      "start": 76.1246,
      "duration": 0.0826,
      "velocity": 108,
      "chip": "ym2612"
    },
    {
      "channel": 5,
      "note": 74,
      "start": 76.1264,
      "duration": 0.1315,
      "velocity": 59,
      "chip": "ym2612"
    },
    {
      "channel": 4,
      "note": 35,
      "start": 76.1914,
      "duration": 0.0826,
      "velocity": 108,
      "chip": "ym2612"
    },
    {
      "channel": 2,
      "note": 23,
      "start": 76.2565,
      "duration": 0.1653,
      "velocity": 124,
      "chip": "ym2612"
    },
    {
      "channel": 3,
      "note": 38,
      "start": 76.2572,
      "duration": 0.0824,
      "velocity": 108,
      "chip": "ym2612"
    },
    {
      "channel": 5,
      "note": 74,
      "start": 76.2584,
      "duration": 0.1483,
      "velocity": 59,
      "chip": "ym2612"
    },
    {
      "channel": 4,
      "note": 38,
      "start": 76.3404,
      "duration": 0.0826,
      "velocity": 108,
      "chip": "ym2612"
    },
    {
      "channel": 3,
      "note": 47,
      "start": 76.406,
      "duration": 0.0826,
      "velocity": 108,
      "chip": "ym2612"
    },
    {
      "channel": 5,
      "note": 74,
      "start": 76.4078,
      "duration": 0.1347,
      "velocity": 65,
      "chip": "ym2612"
    },
    {
      "channel": 4,
      "note": 47,
      "start": 76.4727,
      "duration": 0.0685,
      "velocity": 108,
      "chip": "ym2612"
    },
    {
      "channel": 0,
      "note": 71,
      "start": 76.5374,
      "duration": 0.1479,
      "velocity": 122,
      "chip": "ym2612"
    },
    {
      "channel": 1,
      "note": 38,
      "start": 76.5386,
      "duration": 0.2797,
      "velocity": 120,
      "chip": "ym2612"
    },
    {
      "channel": 2,
      "note": 7,
      "start": 76.5399,
      "duration": 2.2492,
      "velocity": 1,
      "chip": "ym2612"
    },
    {
      "channel": 3,
      "note": 7,
      "start": 76.5411,
      "duration": 2.2487,
      "velocity": 1,
      "chip": "ym2612"
    },
    {
      "channel": 4,
      "note": 7,
      "start": 76.5423,
      "duration": 2.2482,
      "velocity": 1,
      "chip": "ym2612"
    },
    {
      "channel": 5,
      "note": 7,
      "start": 76.5435,
      "duration": 2.2476,
      "velocity": 1,
      "chip": "ym2612"
    },
    {
      "channel": 0,
      "note": 71,
      "start": 76.6858,
      "duration": 0.0826,
      "velocity": 122,
      "chip": "ym2612"
    },
    {
      "channel": 0,
      "note": 66,
      "start": 76.8182,
      "duration": 0.1485,
      "velocity": 122,
      "chip": "ym2612"
    },
    {
      "channel": 1,
      "note": 62,
      "start": 76.8194,
      "duration": 0.1483,
      "velocity": 125,
      "chip": "ym2612"
    },
    {
      "channel": 0,
      "note": 59,
      "start": 76.9671,
      "duration": 0.0826,
      "velocity": 123,
      "chip": "ym2612"
    },
    {
      "channel": 0,
      "note": 23,
      "start": 77.0996,
      "duration": 0.0992,
      "velocity": 123,
      "chip": "ym2612"
    },
    {
      "channel": 1,
      "note": 26,
      "start": 77.1008,
      "duration": 0.2803,
      "velocity": 126,
      "chip": "ym2612"
    },
    {
      "channel": 0,
      "note": 35,
      "start": 77.2486,
      "duration": 0.0826,
      "velocity": 123,
      "chip": "ym2612"
    },
    {
      "channel": 0,
      "note": 59,
      "start": 77.381,
      "duration": 0.0992,
      "velocity": 123,
      "chip": "ym2612"
    },
    {
      "channel": 1,
      "note": 38,
      "start": 77.3822,
      "duration": 0.2809,
      "velocity": 120,
      "chip": "ym2612"
    },
    {
      "channel": 0,
      "note": 34,
      "start": 77.6629,
      "duration": 0.1479,
      "velocity": 64,
      "chip": "ym2612"
    },
    {
      "channel": 1,
      "note": 38,
      "start": 77.6636,
      "duration": 0.2802,
      "velocity": 120,
      "chip": "ym2612"
    },
    {
      "channel": 0,
      "note": 59,
      "start": 77.8119,
      "duration": 0.082,
      "velocity": 123,
      "chip": "ym2612"
    },
    {
      "channel": 1,
      "note": 62,
      "start": 77.9448,
      "duration": 0.1485,
      "velocity": 125,
      "chip": "ym2612"
    },
    {
      "channel": 0,
      "note": 59,
      "start": 78.0927,
      "duration": 0.0826,
      "velocity": 123,
      "chip": "ym2612"
    },
    {
      "channel": 1,
      "note": 26,
      "start": 78.2262,
      "duration": 0.5617,
      "velocity": 126,
      "chip": "ym2612"
    },
    {
      "channel": 0,
      "note": 34,
      "start": 78.3747,
      "duration": 0.1313,
      "velocity": 64,
      "chip": "ym2612"
    },
    {
      "channel": 0,
      "note": 59,
      "start": 78.5072,
      "duration": 0.0985,
      "velocity": 123,
      "chip": "ym2612"
    },
    {
      "channel": 1,
      "note": 38,
      "start": 78.789,
      "duration": 0.2804,
      "velocity": 120,
      "chip": "ym2612"
    },
    {
      "channel": 2,
      "note": 7,
      "start": 78.7897,
      "duration": 2.2514,
      "velocity": 1,
      "chip": "ym2612"
    },
    {
      "channel": 3,
      "note": 7,
      "start": 78.7903,
      "duration": 2.252,
      "velocity": 1,
      "chip": "ym2612"
    },
    {
      "channel": 4,
      "note": 7,
      "start": 78.7909,
      "duration": 2.2527,
      "velocity": 1,
      "chip": "ym2612"
    },
    {
      "channel": 5,
      "note": 7,
      "start": 78.7916,
      "duration": 2.3323,
      "velocity": 1,
      "chip": "ym2612"
    },
    {
      "channel": 0,
      "note": 59,
      "start": 78.9369,
      "duration": 0.0826,
      "velocity": 123,
      "chip": "ym2612"
    },
    {
      "channel": 1,
      "note": 62,
      "start": 79.0703,
      "duration": 0.1485,
      "velocity": 125,
      "chip": "ym2612"
    },
    {
      "channel": 0,
      "note": 59,
      "start": 79.2183,
      "duration": 0.0826,
      "velocity": 123,
      "chip": "ym2612"
    },
    {
      "channel": 1,
      "note": 26,
      "start": 79.3517,
      "duration": 0.2805,
      "velocity": 126,
      "chip": "ym2612"
    },
    {
      "channel": 0,
      "note": 59,
      "start": 79.6321,
      "duration": 0.0992,
      "velocity": 123,
      "chip": "ym2612"
    },
    {
      "channel": 1,
      "note": 38,
      "start": 79.6333,
      "duration": 0.281,
      "velocity": 120,
      "chip": "ym2612"
    },
    {
      "channel": 0,
      "note": 34,
      "start": 79.9141,
      "duration": 0.1479,
      "velocity": 64,
      "chip": "ym2612"
    },
    {
      "channel": 1,
      "note": 38,
      "start": 79.9147,
      "duration": 0.2801,
      "velocity": 120,
      "chip": "ym2612"
    },
    {
      "channel": 0,
      "note": 59,
      "start": 80.0631,
      "duration": 0.082,
      "velocity": 123,
      "chip": "ym2612"
    },
    {
      "channel": 1,
      "note": 62,
      "start": 80.1959,
      "duration": 0.1483,
      "velocity": 125,
      "chip": "ym2612"
    },
    {
      "channel": 1,
      "note": 26,
      "start": 80.4773,
      "duration": 0.2811,
      "velocity": 126,
      "chip": "ym2612"
    },
    {
      "channel": 0,
      "note": 22,
      "start": 80.7582,
      "duration": 0.0987,
      "velocity": 64,
      "chip": "ym2612"
    },
    {
      "channel": 1,
      "note": 62,
      "start": 80.7595,
      "duration": 0.1478,
      "velocity": 125,
      "chip": "ym2612"
    },
    {
      "channel": 0,
      "note": 34,
      "start": 80.9067,
      "duration": 0.0826,
      "velocity": 64,
      "chip": "ym2612"
    },
    {
      "channel": 0,
      "note": 71,
      "start": 81.0397,
      "duration": 0.1479,
      "velocity": 122,
      "chip": "ym2612"
    },
    {
      "channel": 1,
      "note": 38,
      "start": 81.0409,
      "duration": 0.2797,
      "velocity": 120,
      "chip": "ym2612"
    },
    {
      "channel": 2,
      "note": 23,
      "start": 81.0422,
      "duration": 0.1466,
      "velocity": 124,
      "chip": "ym2612"
    },
    {
      "channel": 3,
      "note": 35,
      "start": 81.0435,
      "duration": 4.5005,
      "velocity": 108,
      "chip": "ym2612"
    },
    {
      "channel": 4,
      "note": 37,
      "start": 81.0448,
      "duration": 0.079,
      "velocity": 108,
      "chip": "ym2612"
    },
    {
      "channel": 5,
      "note": 37,
      "start": 81.125,
      "duration": 0.0821,
      "velocity": 108,
      "chip": "ym2612"
    },
    {
      "channel": 0,
      "note": 71,
      "start": 81.1881,
      "duration": 0.0826,
      "velocity": 122,
      "chip": "ym2612"
    },
    {
      "channel": 2,
      "note": 35,
      "start": 81.1892,
      "duration": 0.1327,
      "velocity": 124,
      "chip": "ym2612"
    },
    {
      "channel": 4,
      "note": 35,
      "start": 81.1905,
      "duration": 0.0822,
      "velocity": 108,
      "chip": "ym2612"
    },
    {
      "channel": 5,
      "note": 35,
      "start": 81.2569,
      "duration": 0.0826,
      "velocity": 108,
      "chip": "ym2612"
    },
    {
      "channel": 0,
      "note": 66,
      "start": 81.3205,
      "duration": 0.1485,
      "velocity": 122,
      "chip": "ym2612"
    },
    {
      "channel": 1,
      "note": 62,
      "start": 81.3217,
      "duration": 0.1483,
      "velocity": 125,
      "chip": "ym2612"
    },
    {
      "channel": 2,
      "note": 23,
      "start": 81.3223,
      "duration": 0.1478,
      "velocity": 124,
      "chip": "ym2612"
    },
    {
      "channel": 4,
      "note": 38,
      "start": 81.3236,
      "duration": 0.0815,
      "velocity": 108,
      "chip": "ym2612"
    },
    {
      "channel": 5,
      "note": 38,
      "start": 81.4058,
      "duration": 0.0826,
      "velocity": 108,
      "chip": "ym2612"
    },
    {
      "channel": 0,
      "note": 59,
      "start": 81.4694,
      "duration": 0.0826,
      "velocity": 123,
      "chip": "ym2612"
    },
    {
      "channel": 2,
      "note": 23,
      "start": 81.4706,
      "duration": 0.1327,
      "velocity": 124,
      "chip": "ym2612"
    },
    {
      "channel": 4,
      "note": 35,
      "start": 81.4718,
      "duration": 0.0823,
      "velocity": 108,
      "chip": "ym2612"
    },
    {
      "channel": 5,
      "note": 35,
      "start": 81.5383,
      "duration": 0.0826,
      "velocity": 108,
      "chip": "ym2612"
    },
    {
      "channel": 0,
      "note": 23,
      "start": 81.6019,
      "duration": 0.0992,
      "velocity": 123,
      "chip": "ym2612"
    },
    {
      "channel": 1,
      "note": 26,
      "start": 81.6031,
      "duration": 0.2803,
      "velocity": 126,
      "chip": "ym2612"
    },
    {
      "channel": 2,
      "note": 35,
      "start": 81.6037,
      "duration": 0.1478,
      "velocity": 124,
      "chip": "ym2612"
    },
    {
      "channel": 4,
      "note": 35,
      "start": 81.605,
      "duration": 0.0815,
      "velocity": 108,
      "chip": "ym2612"
    },
    {
      "channel": 5,
      "note": 35,
      "start": 81.6873,
      "duration": 0.0826,
      "velocity": 108,
      "chip": "ym2612"
    },
    {
      "channel": 0,
      "note": 35,
      "start": 81.7509,
      "duration": 0.0826,
      "velocity": 123,
      "chip": "ym2612"
    },
    {
      "channel": 2,
      "note": 23,
      "start": 81.752,
      "duration": 0.1327,
      "velocity": 124,
      "chip": "ym2612"
    },
    {
      "channel": 4,
      "note": 47,
      "start": 81.7532,
      "duration": 0.0823,
      "velocity": 108,
      "chip": "ym2612"
    },
    {
      "channel": 5,
      "note": 47,
      "start": 81.8196,
      "duration": 0.0826,
      "velocity": 108,
      "chip": "ym2612"
    },
    {
      "channel": 0,
      "note": 59,
      "start": 81.8832,
      "duration": 0.0992,
      "velocity": 123,
      "chip": "ym2612"
    },
    {
      "channel": 1,
      "note": 38,
      "start": 81.8844,
      "duration": 0.2809,
      "velocity": 120,
      "chip": "ym2612"
    },
    {
      "channel": 2,
      "note": 23,
      "start": 81.8851,
      "duration": 0.1476,
      "velocity": 124,
      "chip": "ym2612"
    },
    {
      "channel": 4,
      "note": 38,
      "start": 81.8863,
      "duration": 0.0816,
      "velocity": 108,
      "chip": "ym2612"
    },
    {
      "channel": 5,
      "note": 38,
      "start": 81.9686,
      "duration": 0.0826,
      "velocity": 108,
      "chip": "ym2612"
    },
    {
      "channel": 2,
      "note": 35,
      "start": 82.0332,
      "duration": 0.1328,
      "velocity": 124,
      "chip": "ym2612"
    },
    {
      "channel": 4,
      "note": 35,
      "start": 82.0344,
      "duration": 0.0825,
      "velocity": 108,
      "chip": "ym2612"
    },
    {
      "channel": 5,
      "note": 35,
      "start": 82.101,
      "duration": 0.0826,
      "velocity": 108,
      "chip": "ym2612"
    },
    {
      "channel": 0,
      "note": 34,
      "start": 82.1652,
      "duration": 0.1479,
      "velocity": 64,
      "chip": "ym2612"
    },
    {
      "channel": 1,
      "note": 38,
      "start": 82.1659,
      "duration": 0.2802,
      "velocity": 120,
      "chip": "ym2612"
    },
    {
      "channel": 2,
      "note": 23,
      "start": 82.1665,
      "duration": 0.1483,
      "velocity": 124,
      "chip": "ym2612"
    },
    {
      "channel": 4,
      "note": 40,
      "start": 82.1677,
      "duration": 0.0816,
      "velocity": 108,
      "chip": "ym2612"
    },
    {
      "channel": 5,
      "note": 40,
      "start": 82.25,
      "duration": 0.0826,
      "velocity": 108,
      "chip": "ym2612"
    },
    {
      "channel": 0,
      "note": 59,
      "start": 82.3142,
      "duration": 0.082,
      "velocity": 123,
      "chip": "ym2612"
    },
    {
      "channel": 2,
      "note": 35,
      "start": 82.3153,
      "duration": 0.1319,
      "velocity": 124,
      "chip": "ym2612"
    },
    {
      "channel": 4,
      "note": 35,
      "start": 82.3166,
      "duration": 0.0817,
      "velocity": 108,
      "chip": "ym2612"
    },
    {
      "channel": 5,
      "note": 35,
      "start": 82.3824,
      "duration": 0.0827,
      "velocity": 108,
      "chip": "ym2612"
    },
    {
      "channel": 1,
      "note": 62,
      "start": 82.4471,
      "duration": 0.1485,
      "velocity": 125,
      "chip": "ym2612"
    },
    {
      "channel": 2,
      "note": 23,
      "start": 82.4478,
      "duration": 0.1479,
      "velocity": 124,
      "chip": "ym2612"
    },
    {
      "channel": 4,
      "note": 38,
      "start": 82.449,
      "duration": 0.0817,
      "velocity": 108,
      "chip": "ym2612"
    },
    {
      "channel": 5,
      "note": 38,
      "start": 82.5314,
      "duration": 0.0826,
      "velocity": 108,
      "chip": "ym2612"
    },
    {
      "channel": 0,
      "note": 59,
      "start": 82.595,
      "duration": 0.0826,
      "velocity": 123,
      "chip": "ym2612"
    },
    {
      "channel": 2,
      "note": 23,
      "start": 82.5961,
      "duration": 0.1325,
      "velocity": 124,
      "chip": "ym2612"
    },
    {
      "channel": 4,
      "note": 35,
      "start": 82.5974,
      "duration": 0.0823,
      "velocity": 108,
      "chip": "ym2612"
    },
    {
      "channel": 5,
      "note": 35,
      "start": 82.6638,
      "duration": 0.0826,
      "velocity": 108,
      "chip": "ym2612"
    },
    {
      "channel": 1,
      "note": 26,
      "start": 82.7285,
      "duration": 0.5618,
      "velocity": 126,
      "chip": "ym2612"
    },
    {
      "channel": 2,
      "note": 35,
      "start": 82.7291,
      "duration": 0.1485,
      "velocity": 124,
      "chip": "ym2612"
    },
    {
      "channel": 4,
      "note": 37,
      "start": 82.7304,
      "duration": 0.0817,
      "velocity": 108,
      "chip": "ym2612"
    },
    {
      "channel": 5,
      "note": 37,
      "start": 82.8128,
      "duration": 0.0826,
      "velocity": 108,
      "chip": "ym2612"
    },
    {
      "channel": 0,
      "note": 34,
      "start": 82.877,
      "duration": 0.1313,
      "velocity": 64,
      "chip": "ym2612"
    },
    {
      "channel": 2,
      "note": 23,
      "start": 82.8781,
      "duration": 0.1319,
      "velocity": 124,
      "chip": "ym2612"
    },
    {
      "channel": 4,
      "note": 35,
      "start": 82.8794,
      "duration": 0.0817,
      "velocity": 108,
      "chip": "ym2612"
    },
    {
      "channel": 5,
      "note": 35,
      "start": 82.9452,
      "duration": 0.0827,
      "velocity": 108,
      "chip": "ym2612"
    },
    {
      "channel": 0,
      "note": 59,
      "start": 83.0094,
      "duration": 0.0986,
      "velocity": 123,
      "chip": "ym2612"
    },
    {
      "channel": 2,
      "note": 23,
      "start": 83.0105,
      "duration": 0.1477,
      "velocity": 124,
      "chip": "ym2612"
    },
    {
      "channel": 4,
      "note": 38,
      "start": 83.0117,
      "duration": 0.0817,
      "velocity": 108,
      "chip": "ym2612"
    },
    {
      "channel": 5,
      "note": 38,
      "start": 83.0942,
      "duration": 0.0827,
      "velocity": 108,
      "chip": "ym2612"
    },
    {
      "channel": 2,
      "note": 35,
      "start": 83.1588,
      "duration": 0.1328,
      "velocity": 124,
      "chip": "ym2612"
    },
    {
      "channel": 4,
      "note": 47,
      "start": 83.16,
      "duration": 0.0825,
      "velocity": 108,
      "chip": "ym2612"
    },
    {
      "channel": 5,
      "note": 47,
      "start": 83.2266,
      "duration": 0.0827,
      "velocity": 108,
      "chip": "ym2612"
    },
    {
      "channel": 1,
      "note": 38,
      "start": 83.2913,
      "duration": 0.2803,
      "velocity": 120,
      "chip": "ym2612"
    },
    {
      "channel": 2,
      "note": 23,
      "start": 83.292,
      "duration": 0.1479,
      "velocity": 124,
      "chip": "ym2612"
    },
    {
      "channel": 4,
      "note": 37,
      "start": 83.2932,
      "duration": 0.0817,
      "velocity": 108,
      "chip": "ym2612"
    },
    {
      "channel": 5,
      "note": 37,
      "start": 83.3756,
      "duration": 0.0826,
      "velocity": 108,
      "chip": "ym2612"
    },
    {
      "channel": 0,
      "note": 59,
      "start": 83.4392,
      "duration": 0.0826,
      "velocity": 123,
      "chip": "ym2612"
    },
    {
      "channel": 2,
      "note": 35,
      "start": 83.4404,
      "duration": 0.1324,
      "velocity": 124,
      "chip": "ym2612"
    },
    {
      "channel": 4,
      "note": 35,
      "start": 83.4416,
      "duration": 0.0823,
      "velocity": 108,
      "chip": "ym2612"
    },
    {
      "channel": 5,
      "note": 35,
      "start": 83.508,
      "duration": 0.0826,
      "velocity": 108,
      "chip": "ym2612"
    },
    {
      "channel": 1,
      "note": 62,
      "start": 83.5726,
      "duration": 0.1485,
      "velocity": 125,
      "chip": "ym2612"
    },
    {
      "channel": 2,
      "note": 23,
      "start": 83.5733,
      "duration": 0.1479,
      "velocity": 124,
      "chip": "ym2612"
    },
    {
      "channel": 4,
      "note": 38,
      "start": 83.5746,
      "duration": 0.0817,
      "velocity": 108,
      "chip": "ym2612"
    },
    {
      "channel": 5,
      "note": 38,
      "start": 83.657,
      "duration": 0.0826,
      "velocity": 108,
      "chip": "ym2612"
    },
    {
      "channel": 0,
      "note": 59,
      "start": 83.7206,
      "duration": 0.0826,
      "velocity": 123,
      "chip": "ym2612"
    },
    {
      "channel": 2,
      "note": 23,
      "start": 83.7217,
      "duration": 0.1325,
      "velocity": 124,
      "chip": "ym2612"
    },
    {
      "channel": 4,
      "note": 35,
      "start": 83.7229,
      "duration": 0.0823,
      "velocity": 108,
      "chip": "ym2612"
    },
    {
      "channel": 5,
      "note": 35,
      "start": 83.7894,
      "duration": 0.0826,
      "velocity": 108,
      "chip": "ym2612"
    },
    {
      "channel": 1,
      "note": 26,
      "start": 83.854,
      "duration": 0.2805,
      "velocity": 126,
      "chip": "ym2612"
    },
    {
      "channel": 2,
      "note": 35,
      "start": 83.8547,
      "duration": 0.1478,
      "velocity": 124,
      "chip": "ym2612"
    },
    {
      "channel": 4,
      "note": 35,
      "start": 83.8559,
      "duration": 0.0817,
      "velocity": 108,
      "chip": "ym2612"
    },
    {
      "channel": 5,
      "note": 35,
      "start": 83.9384,
      "duration": 0.0826,
      "velocity": 108,
      "chip": "ym2612"
    },
    {
      "channel": 2,
      "note": 23,
      "start": 84.0029,
      "duration": 0.1329,
      "velocity": 124,
      "chip": "ym2612"
    },
    {
      "channel": 4,
      "note": 47,
      "start": 84.0042,
      "duration": 0.0824,
      "velocity": 108,
      "chip": "ym2612"
    },
    {
      "channel": 5,
      "note": 47,
      "start": 84.0708,
      "duration": 0.0826,
      "velocity": 108,
      "chip": "ym2612"
    },
    {
      "channel": 0,
      "note": 59,
      "start": 84.1344,
      "duration": 0.0992,
      "velocity": 123,
      "chip": "ym2612"
    },
    {
      "channel": 1,
      "note": 38,
      "start": 84.1356,
      "duration": 0.2809,
      "velocity": 120,
      "chip": "ym2612"
    },
    {
      "channel": 2,
      "note": 23,
      "start": 84.1362,
      "duration": 0.1476,
      "velocity": 124,
      "chip": "ym2612"
    },
    {
      "channel": 4,
      "note": 38,
      "start": 84.1375,
      "duration": 0.0815,
      "velocity": 108,
      "chip": "ym2612"
    },
    {
      "channel": 5,
      "note": 38,
      "start": 84.2198,
      "duration": 0.0826,
      "velocity": 108,
      "chip": "ym2612"
    },
    {
      "channel": 2,
      "note": 35,
      "start": 84.2843,
      "duration": 0.1328,
      "velocity": 124,
      "chip": "ym2612"
    },
    {
      "channel": 4,
      "note": 35,
      "start": 84.2855,
      "duration": 0.0824,
      "velocity": 108,
      "chip": "ym2612"
    },
    {
      "channel": 5,
      "note": 35,
      "start": 84.3521,
      "duration": 0.0826,
      "velocity": 108,
      "chip": "ym2612"
    },
    {
      "channel": 0,
      "note": 34,
      "start": 84.4164,
      "duration": 0.1479,
      "velocity": 64,
      "chip": "ym2612"
    },
    {
      "channel": 1,
      "note": 38,
      "start": 84.417,
      "duration": 0.2801,
      "velocity": 120,
      "chip": "ym2612"
    },
    {
      "channel": 2,
      "note": 23,
      "start": 84.4177,
      "duration": 0.1483,
      "velocity": 124,
      "chip": "ym2612"
    },
    {
      "channel": 4,
      "note": 40,
      "start": 84.4189,
      "duration": 0.0815,
      "velocity": 108,
      "chip": "ym2612"
    },
    {
      "channel": 5,
      "note": 40,
      "start": 84.5012,
      "duration": 0.0826,
      "velocity": 108,
      "chip": "ym2612"
    },
    {
      "channel": 0,
      "note": 59,
      "start": 84.5654,
      "duration": 0.082,
      "velocity": 123,
      "chip": "ym2612"
    },
    {
      "channel": 2,
      "note": 35,
      "start": 84.5664,
      "duration": 0.132,
      "velocity": 124,
      "chip": "ym2612"
    },
    {
      "channel": 4,
      "note": 35,
      "start": 84.5677,
      "duration": 0.0817,
      "velocity": 108,
      "chip": "ym2612"
    },
    {
      "channel": 5,
      "note": 35,
      "start": 84.6336,
      "duration": 0.0826,
      "velocity": 108,
      "chip": "ym2612"
    },
    {
      "channel": 1,
      "note": 62,
      "start": 84.6982,
      "duration": 0.1483,
      "velocity": 125,
      "chip": "ym2612"
    },
    {
      "channel": 2,
      "note": 23,
      "start": 84.6989,
      "duration": 0.1478,
      "velocity": 124,
      "chip": "ym2612"
    },
    {
      "channel": 4,
      "note": 38,
      "start": 84.7001,
      "duration": 0.0817,
      "velocity": 108,
      "chip": "ym2612"
    },
    {
      "channel": 5,
      "note": 38,
      "start": 84.7825,
      "duration": 0.0826,
      "velocity": 108,
      "chip": "ym2612"
    },
    {
      "channel": 2,
      "note": 23,
      "start": 84.8471,
      "duration": 0.1327,
      "velocity": 124,
      "chip": "ym2612"
    },
    {
      "channel": 4,
      "note": 35,
      "start": 84.8484,
      "duration": 0.0824,
      "velocity": 108,
      "chip": "ym2612"
    },
    {
      "channel": 5,
      "note": 35,
      "start": 84.9149,
      "duration": 0.0826,
      "velocity": 108,
      "chip": "ym2612"
    },
    {
      "channel": 1,
      "note": 26,
      "start": 84.9796,
      "duration": 0.2811,
      "velocity": 126,
      "chip": "ym2612"
    },
    {
      "channel": 2,
      "note": 35,
      "start": 84.9802,
      "duration": 0.1478,
      "velocity": 124,
      "chip": "ym2612"
    },
    {
      "channel": 4,
      "note": 37,
      "start": 84.9815,
      "duration": 0.0817,
      "velocity": 108,
      "chip": "ym2612"
    },
    {
      "channel": 5,
      "note": 37,
      "start": 85.064,
      "duration": 0.0826,
      "velocity": 108,
      "chip": "ym2612"
    },
    {
      "channel": 2,
      "note": 23,
      "start": 85.1285,
      "duration": 0.1334,
      "velocity": 124,
      "chip": "ym2612"
    },
    {
      "channel": 4,
      "note": 35,
      "start": 85.1298,
      "duration": 0.0824,
      "velocity": 108,
      "chip": "ym2612"
    },
    {
      "channel": 5,
      "note": 35,
      "start": 85.1963,
      "duration": 0.0826,
      "velocity": 108,
      "chip": "ym2612"
    },
    {
      "channel": 0,
      "note": 22,
      "start": 85.2605,
      "duration": 0.0986,
      "velocity": 64,
      "chip": "ym2612"
    },
    {
      "channel": 1,
      "note": 62,
      "start": 85.2617,
      "duration": 0.1477,
      "velocity": 125,
      "chip": "ym2612"
    },
    {
      "channel": 2,
      "note": 35,
      "start": 85.2624,
      "duration": 0.1471,
      "velocity": 124,
      "chip": "ym2612"
    },
    {
      "channel": 4,
      "note": 38,
      "start": 85.2637,
      "duration": 0.081,
      "velocity": 108,
      "chip": "ym2612"
    },
    {
      "channel": 5,
      "note": 38,
      "start": 85.3454,
      "duration": 0.0826,
      "velocity": 108,
      "chip": "ym2612"
    },
    {
      "channel": 0,
      "note": 34,
      "start": 85.4089,
      "duration": 0.0826,
      "velocity": 64,
      "chip": "ym2612"
    },
    {
      "channel": 2,
      "note": 23,
      "start": 85.4101,
      "duration": 0.1333,
      "velocity": 124,
      "chip": "ym2612"
    },
    {
      "channel": 4,
      "note": 47,
      "start": 85.4113,
      "duration": 0.0823,
      "velocity": 108,
      "chip": "ym2612"
    },
    {
      "channel": 5,
      "note": 47,
      "start": 85.4777,
      "duration": 0.0826,
      "velocity": 108,
      "chip": "ym2612"
    },
    {
      "channel": 0,
      "note": 71,
      "start": 85.542,
      "duration": 0.148,
      "velocity": 122,
      "chip": "ym2612"
    },
    {
      "channel": 1,
      "note": 38,
      "start": 85.5432,
      "duration": 0.2797,
      "velocity": 120,
      "chip": "ym2612"
    },
    {
      "channel": 2,
      "note": 19,
      "start": 85.5438,
      "duration": 0.1472,
      "velocity": 124,
      "chip": "ym2612"
    },
    {
      "channel": 3,
      "note": 38,
      "start": 85.5445,
      "duration": 4.5018,
      "velocity": 108,
      "chip": "ym2612"
    },
    {
      "channel": 4,
      "note": 37,
      "start": 85.5452,
      "duration": 0.0808,
      "velocity": 108,
      "chip": "ym2612"
    },
    {
      "channel": 5,
      "note": 37,
      "start": 85.6268,
      "duration": 0.0826,
      "velocity": 108,
      "chip": "ym2612"
    },
    {
      "channel": 0,
      "note": 71,
      "start": 85.6904,
      "duration": 0.0826,
      "velocity": 122,
      "chip": "ym2612"
    },
    {
      "channel": 2,
      "note": 31,
      "start": 85.6915,
      "duration": 0.1326,
      "velocity": 124,
      "chip": "ym2612"
    },
    {
      "channel": 4,
      "note": 35,
      "start": 85.6928,
      "duration": 0.0822,
      "velocity": 108,
      "chip": "ym2612"
    },
    {
      "channel": 5,
      "note": 35,
      "start": 85.7591,
      "duration": 0.0826,
      "velocity": 108,
      "chip": "ym2612"
    },
    {
      "channel": 0,
      "note": 66,
      "start": 85.8227,
      "duration": 0.1485,
      "velocity": 122,
      "chip": "ym2612"
    },
    {
      "channel": 1,
      "note": 62,
      "start": 85.8239,
      "duration": 0.1483,
      "velocity": 125,
      "chip": "ym2612"
    },
    {
      "channel": 2,
      "note": 19,
      "start": 85.8246,
      "duration": 0.1477,
      "velocity": 124,
      "chip": "ym2612"
    },
    {
      "channel": 4,
      "note": 38,
      "start": 85.8259,
      "duration": 0.0816,
      "velocity": 108,
      "chip": "ym2612"
    },
    {
      "channel": 5,
      "note": 38,
      "start": 85.9082,
      "duration": 0.0826,
      "velocity": 108,
      "chip": "ym2612"
    },
    {
      "channel": 0,
      "note": 59,
      "start": 85.9717,
      "duration": 0.0826,
      "velocity": 123,
      "chip": "ym2612"
    },
    {
      "channel": 2,
      "note": 19,
      "start": 85.9729,
      "duration": 0.1327,
      "velocity": 124,
      "chip": "ym2612"
    },
    {
      "channel": 4,
      "note": 35,
      "start": 85.9741,
      "duration": 0.0823,
      "velocity": 108,
      "chip": "ym2612"
    },
    {
      "channel": 5,
      "note": 35,
      "start": 86.0406,
      "duration": 0.0826,
      "velocity": 108,
      "chip": "ym2612"
    },
    {
      "channel": 0,
      "note": 23,
      "start": 86.1042,
      "duration": 0.0991,
      "velocity": 123,
      "chip": "ym2612"
    },
    {
      "channel": 1,
      "note": 26,
      "start": 86.1054,
      "duration": 0.2803,
      "velocity": 126,
      "chip": "ym2612"
    },
    {
      "channel": 2,
      "note": 31,
      "start": 86.106,
      "duration": 0.1477,
      "velocity": 124,
      "chip": "ym2612"
    },
    {
      "channel": 4,
      "note": 35,
      "start": 86.1073,
      "duration": 0.0815,
      "velocity": 108,
      "chip": "ym2612"
    },
    {
      "channel": 5,
      "note": 35,
      "start": 86.1895,
      "duration": 0.0826,
      "velocity": 108,
      "chip": "ym2612"
    },
    {
      "channel": 0,
      "note": 35,
      "start": 86.2531,
      "duration": 0.0826,
      "velocity": 123,
      "chip": "ym2612"
    },
    {
      "channel": 2,
      "note": 19,
      "start": 86.2542,
      "duration": 0.1327,
      "velocity": 124,
      "chip": "ym2612"
    },
    {
      "channel": 4,
      "note": 47,
      "start": 86.2554,
      "duration": 0.0824,
      "velocity": 108,
      "chip": "ym2612"
    },
    {
      "channel": 5,
      "note": 47,
      "start": 86.3219,
      "duration": 0.0826,
      "velocity": 108,
      "chip": "ym2612"
    },
    {
      "channel": 0,
      "note": 59,
      "start": 86.3855,
      "duration": 0.0992,
      "velocity": 123,
      "chip": "ym2612"
    },
    {
      "channel": 1,
      "note": 38,
      "start": 86.3867,
      "duration": 0.2809,
      "velocity": 120,
      "chip": "ym2612"
    },
    {
      "channel": 2,
      "note": 19,
      "start": 86.3874,
      "duration": 0.1476,
      "velocity": 124,
      "chip": "ym2612"
    },
    {
      "channel": 4,
      "note": 38,
      "start": 86.3886,
      "duration": 0.0816,
      "velocity": 108,
      "chip": "ym2612"
    },
    {
      "channel": 5,
      "note": 38,
      "start": 86.4709,
      "duration": 0.0826,
      "velocity": 108,
      "chip": "ym2612"
    },
    {
      "channel": 2,
      "note": 31,
      "start": 86.5355,
      "duration": 0.1328,
      "velocity": 124,
      "chip": "ym2612"
    },
    {
      "channel": 4,
      "note": 35,
      "start": 86.5367,
      "duration": 0.0824,
      "velocity": 108,
      "chip": "ym2612"
    },
    {
      "channel": 5,
      "note": 35,
      "start": 86.6033,
      "duration": 0.0826,
      "velocity": 108,
      "chip": "ym2612"
    },
    {
      "channel": 0,
      "note": 34,
      "start": 86.6675,
      "duration": 0.1478,
      "velocity": 64,
      "chip": "ym2612"
    },
    {
      "channel": 1,
      "note": 38,
      "start": 86.6682,
      "duration": 0.2801,
      "velocity": 120,
      "chip": "ym2612"
    },
    {
      "channel": 2,
      "note": 19,
      "start": 86.6688,
      "duration": 0.1483,
      "velocity": 124,
      "chip": "ym2612"
    },
    {
      "channel": 4,
      "note": 40,
      "start": 86.67,
      "duration": 0.0816,
      "velocity": 108,
      "chip": "ym2612"
    },
    {
      "channel": 5,
      "note": 40,
      "start": 86.7523,
      "duration": 0.0826,
      "velocity": 108,
      "chip": "ym2612"
    },
    {
      "channel": 0,
      "note": 59,
      "start": 86.8165,
      "duration": 0.082,
      "velocity": 123,
      "chip": "ym2612"
    },
    {
      "channel": 2,
      "note": 31,
      "start": 86.8176,
      "duration": 0.1319,
      "velocity": 124,
      "chip": "ym2612"
    },
    {
      "channel": 4,
      "note": 35,
      "start": 86.8189,
      "duration": 0.0817,
      "velocity": 108,
      "chip": "ym2612"
    },
    {
      "channel": 5,
      "note": 35,
      "start": 86.8847,
      "duration": 0.0827,
      "velocity": 108,
      "chip": "ym2612"
    },
    {
      "channel": 1,
      "note": 62,
      "start": 86.9493,
      "duration": 0.1485,
      "velocity": 125,
      "chip": "ym2612"
    },
    {
      "channel": 2,
      "note": 19,
      "start": 86.95,
      "duration": 0.1479,
      "velocity": 124,
      "chip": "ym2612"
    },
    {
      "channel": 4,
      "note": 38,
      "start": 86.9512,
      "duration": 0.0817,
      "velocity": 108,
      "chip": "ym2612"
    },
    {
      "channel": 5,
      "note": 38,
      "start": 87.0337,
      "duration": 0.0826,
      "velocity": 108,
      "chip": "ym2612"
    },
    {
      "channel": 0,
      "note": 59,
      "start": 87.0973,
      "duration": 0.0826,
      "velocity": 123,
      "chip": "ym2612"
    },
    {
      "channel": 2,
      "note": 19,
      "start": 87.0984,
      "duration": 0.1325,
      "velocity": 124,
      "chip": "ym2612"
    },
    {
      "channel": 4,
      "note": 35,
      "start": 87.0997,
      "duration": 0.0823,
      "velocity": 108,
      "chip": "ym2612"
    },
    {
      "channel": 5,
      "note": 35,
      "start": 87.1661,
      "duration": 0.0826,
      "velocity": 108,
      "chip": "ym2612"
    },
    {
      "channel": 1,
      "note": 26,
      "start": 87.2308,
      "duration": 0.5617,
      "velocity": 126,
      "chip": "ym2612"
    },
    {
      "channel": 2,
      "note": 31,
      "start": 87.2314,
      "duration": 0.1485,
      "velocity": 124,
      "chip": "ym2612"
    },
    {
      "channel": 4,
      "note": 37,
      "start": 87.2327,
      "duration": 0.0817,
      "velocity": 108,
      "chip": "ym2612"
    },
    {
      "channel": 5,
      "note": 37,
      "start": 87.3151,
      "duration": 0.0826,
      "velocity": 108,
      "chip": "ym2612"
    },
    {
      "channel": 0,
      "note": 34,
      "start": 87.3793,
      "duration": 0.1313,
      "velocity": 64,
      "chip": "ym2612"
    },
    {
      "channel": 2,
      "note": 19,
      "start": 87.3804,
      "duration": 0.1319,
      "velocity": 124,
      "chip": "ym2612"
    },
    {
      "channel": 4,
      "note": 35,
      "start": 87.3817,
      "duration": 0.0817,
      "velocity": 108,
      "chip": "ym2612"
    },
    {
      "channel": 5,
      "note": 35,
      "start": 87.4475,
      "duration": 0.0827,
      "velocity": 108,
      "chip": "ym2612"
    },
    {
      "channel": 0,
      "note": 59,
      "start": 87.5117,
      "duration": 0.0986,
      "velocity": 123,
      "chip": "ym2612"
    },
    {
      "channel": 2,
      "note": 31,
      "start": 87.5128,
      "duration": 0.1477,
      "velocity": 124,
      "chip": "ym2612"
    },
    {
      "channel": 4,
      "note": 38,
      "start": 87.514,
      "duration": 0.0817,
      "velocity": 108,
      "chip": "ym2612"
    },
    {
      "channel": 5,
      "note": 38,
      "start": 87.5965,
      "duration": 0.0827,
      "velocity": 108,
      "chip": "ym2612"
    },
    {
      "channel": 2,
      "note": 21,
      "start": 87.661,
      "duration": 0.1328,
      "velocity": 124,
      "chip": "ym2612"
    },
    {
      "channel": 4,
      "note": 47,
      "start": 87.6622,
      "duration": 0.0824,
      "velocity": 108,
      "chip": "ym2612"
    },
    {
      "channel": 5,
      "note": 47,
      "start": 87.7288,
      "duration": 0.0827,
      "velocity": 108,
      "chip": "ym2612"
    },
    {
      "channel": 1,
      "note": 38,
      "start": 87.7935,
      "duration": 0.2804,
      "velocity": 120,
      "chip": "ym2612"
    },
    {
      "channel": 2,
      "note": 23,
      "start": 87.7942,
      "duration": 0.1479,
      "velocity": 124,
      "chip": "ym2612"
    },
    {
      "channel": 4,
      "note": 37,
      "start": 87.7955,
      "duration": 0.0817,
      "velocity": 108,
      "chip": "ym2612"
    },
    {
      "channel": 5,
      "note": 37,
      "start": 87.8778,
      "duration": 0.0826,
      "velocity": 108,
      "chip": "ym2612"
    },
    {
      "channel": 0,
      "note": 59,
      "start": 87.9415,
      "duration": 0.0826,
      "velocity": 123,
      "chip": "ym2612"
    },
    {
      "channel": 2,
      "note": 35,
      "start": 87.9426,
      "duration": 0.1326,
      "velocity": 124,
      "chip": "ym2612"
    },
    {
      "channel": 4,
      "note": 35,
      "start": 87.9438,
      "duration": 0.0823,
      "velocity": 108,
      "chip": "ym2612"
    },
    {
      "channel": 5,
      "note": 35,
      "start": 88.0103,
      "duration": 0.0826,
      "velocity": 108,
      "chip": "ym2612"
    },
    {
      "channel": 1,
      "note": 62,
      "start": 88.075,
      "duration": 0.1484,
      "velocity": 125,
      "chip": "ym2612"
    },
    {
      "channel": 2,
      "note": 23,
      "start": 88.0756,
      "duration": 0.148,
      "velocity": 124,
      "chip": "ym2612"
    },
    {
      "channel": 4,
      "note": 38,
      "start": 88.0769,
      "duration": 0.0817,
      "velocity": 108,
      "chip": "ym2612"
    },
    {
      "channel": 5,
      "note": 38,
      "start": 88.1593,
      "duration": 0.0826,
      "velocity": 108,
      "chip": "ym2612"
    },
    {
      "channel": 0,
      "note": 59,
      "start": 88.2229,
      "duration": 0.0826,
      "velocity": 123,
      "chip": "ym2612"
    },
    {
      "channel": 2,
      "note": 23,
      "start": 88.2241,
      "duration": 0.1325,
      "velocity": 124,
      "chip": "ym2612"
    },
    {
      "channel": 4,
      "note": 35,
      "start": 88.2253,
      "duration": 0.0823,
      "velocity": 108,
      "chip": "ym2612"
    },
    {
      "channel": 5,
      "note": 35,
      "start": 88.2917,
      "duration": 0.0826,
      "velocity": 108,
      "chip": "ym2612"
    },
    {
      "channel": 1,
      "note": 26,
      "start": 88.3564,
      "duration": 0.2804,
      "velocity": 126,
      "chip": "ym2612"
    },
    {
      "channel": 2,
      "note": 35,
      "start": 88.357,
      "duration": 0.1477,
      "velocity": 124,
      "chip": "ym2612"
    },
    {
      "channel": 4,
      "note": 35,
      "start": 88.3583,
      "duration": 0.0817,
      "velocity": 108,
      "chip": "ym2612"
    },
    {
      "channel": 5,
      "note": 35,
      "start": 88.4407,
      "duration": 0.0826,
      "velocity": 108,
      "chip": "ym2612"
    },
    {
      "channel": 2,
      "note": 23,
      "start": 88.5052,
      "duration": 0.1329,
      "velocity": 124,
      "chip": "ym2612"
    },
    {
      "channel": 4,
      "note": 47,
      "start": 88.5065,
      "duration": 0.0824,
      "velocity": 108,
      "chip": "ym2612"
    },
    {
      "channel": 5,
      "note": 47,
      "start": 88.5731,
      "duration": 0.0826,
      "velocity": 108,
      "chip": "ym2612"
    },
    {
      "channel": 0,
      "note": 59,
      "start": 88.6367,
      "duration": 0.0992,
      "velocity": 123,
      "chip": "ym2612"
    },
    {
      "channel": 1,
      "note": 38,
      "start": 88.6379,
      "duration": 0.2809,
      "velocity": 120,
      "chip": "ym2612"
    },
    {
      "channel": 2,
      "note": 23,
      "start": 88.6385,
      "duration": 0.1476,
      "velocity": 124,
      "chip": "ym2612"
    },
    {
      "channel": 4,
      "note": 38,
      "start": 88.6398,
      "duration": 0.0815,
      "velocity": 108,
      "chip": "ym2612"
    },
    {
      "channel": 5,
      "note": 38,
      "start": 88.722,
      "duration": 0.0826,
      "velocity": 108,
      "chip": "ym2612"
    },
    {
      "channel": 2,
      "note": 35,
      "start": 88.7866,
      "duration": 0.1329,
      "velocity": 124,
      "chip": "ym2612"
    },
    {
      "channel": 4,
      "note": 35,
      "start": 88.7878,
      "duration": 0.0824,
      "velocity": 108,
      "chip": "ym2612"
    },
    {
      "channel": 5,
      "note": 35,
      "start": 88.8544,
      "duration": 0.0826,
      "velocity": 108,
      "chip": "ym2612"
    },
    {
      "channel": 0,
      "note": 34,
      "start": 88.9187,
      "duration": 0.1478,
      "velocity": 64,
      "chip": "ym2612"
    },
    {
      "channel": 1,
      "note": 38,
      "start": 88.9193,
      "duration": 0.2801,
      "velocity": 120,
      "chip": "ym2612"
    },
    {
      "channel": 2,
      "note": 23,
      "start": 88.92,
      "duration": 0.1483,
      "velocity": 124,
      "chip": "ym2612"
    },
    {
      "channel": 4,
      "note": 40,
      "start": 88.9212,
      "duration": 0.0815,
      "velocity": 108,
      "chip": "ym2612"
    },
    {
      "channel": 5,
      "note": 40,
      "start": 89.0035,
      "duration": 0.0826,
      "velocity": 108,
      "chip": "ym2612"
    },
    {
      "channel": 0,
      "note": 59,
      "start": 89.0677,
      "duration": 0.082,
      "velocity": 123,
      "chip": "ym2612"
    },
    {
      "channel": 2,
      "note": 35,
      "start": 89.0687,
      "duration": 0.132,
      "velocity": 124,
      "chip": "ym2612"
    },
    {
      "channel": 4,
      "note": 35,
      "start": 89.07,
      "duration": 0.0817,
      "velocity": 108,
      "chip": "ym2612"
    },
    {
      "channel": 5,
      "note": 35,
      "start": 89.1359,
      "duration": 0.0826,
      "velocity": 108,
      "chip": "ym2612"
    },
    {
      "channel": 1,
      "note": 62,
      "start": 89.2005,
      "duration": 0.1483,
      "velocity": 125,
      "chip": "ym2612"
    },
    {
      "channel": 2,
      "note": 23,
      "start": 89.2012,
      "duration": 0.1478,
      "velocity": 124,
      "chip": "ym2612"
    },
    {
      "channel": 4,
      "note": 38,
      "start": 89.2024,
      "duration": 0.0817,
      "velocity": 108,
      "chip": "ym2612"
    },
    {
      "channel": 5,
      "note": 38,
      "start": 89.2848,
      "duration": 0.0826,
      "velocity": 108,
      "chip": "ym2612"
    },
    {
      "channel": 2,
      "note": 23,
      "start": 89.3494,
      "duration": 0.1327,
      "velocity": 124,
      "chip": "ym2612"
    },
    {
      "channel": 4,
      "note": 35,
      "start": 89.3507,
      "duration": 0.0824,
      "velocity": 108,
      "chip": "ym2612"
    },
    {
      "channel": 5,
      "note": 35,
      "start": 89.4172,
      "duration": 0.0826,
      "velocity": 108,
      "chip": "ym2612"
    },
    {
      "channel": 1,
      "note": 26,
      "start": 89.4819,
      "duration": 0.281,
      "velocity": 126,
      "chip": "ym2612"
    },
    {
      "channel": 2,
      "note": 35,
      "start": 89.4825,
      "duration": 0.1478,
      "velocity": 124,
      "chip": "ym2612"
    },
    {
      "channel": 4,
      "note": 37,
      "start": 89.4838,
      "duration": 0.0817,
      "velocity": 108,
      "chip": "ym2612"
    },
    {
      "channel": 5,
      "note": 37,
      "start": 89.5662,
      "duration": 0.0826,
      "velocity": 108,
      "chip": "ym2612"
    },
    {
      "channel": 2,
      "note": 23,
      "start": 89.6308,
      "duration": 0.1334,
      "velocity": 124,
      "chip": "ym2612"
    },
    {
      "channel": 4,
      "note": 35,
      "start": 89.632,
      "duration": 0.0824,
      "velocity": 108,
      "chip": "ym2612"
    },
    {
      "channel": 5,
      "note": 35,
      "start": 89.6986,
      "duration": 0.0826,
      "velocity": 108,
      "chip": "ym2612"
    },
    {
      "channel": 0,
      "note": 22,
      "start": 89.7628,
      "duration": 0.0986,
      "velocity": 64,
      "chip": "ym2612"
    },
    {
      "channel": 1,
      "note": 62,
      "start": 89.764,
      "duration": 0.1477,
      "velocity": 125,
      "chip": "ym2612"
    },
    {
      "channel": 2,
      "note": 35,
      "start": 89.7647,
      "duration": 0.1471,
      "velocity": 124,
      "chip": "ym2612"
    },
    {
      "channel": 4,
      "note": 38,
      "start": 89.7659,
      "duration": 0.081,
      "velocity": 108,
      "chip": "ym2612"
    },
    {
      "channel": 5,
      "note": 38,
      "start": 89.8476,
      "duration": 0.0826,
      "velocity": 108,
      "chip": "ym2612"
    },
    {
      "channel": 0,
      "note": 34,
      "start": 89.9112,
      "duration": 0.0826,
      "velocity": 64,
      "chip": "ym2612"
    },
    {
      "channel": 2,
      "note": 23,
      "start": 89.9124,
      "duration": 0.1333,
      "velocity": 124,
      "chip": "ym2612"
    },
    {
      "channel": 4,
      "note": 47,
      "start": 89.9136,
      "duration": 0.0823,
      "velocity": 108,
      "chip": "ym2612"
    },
    {
      "channel": 5,
      "note": 47,
      "start": 89.98,
      "duration": 0.0826,
      "velocity": 108,
      "chip": "ym2612"
    },
    {
      "channel": 0,
      "note": 71,
      "start": 90.0442,
      "duration": 0.1479,
      "velocity": 122,
      "chip": "ym2612"
    },
    {
      "channel": 1,
      "note": 38,
      "start": 90.0455,
      "duration": 0.2797,
      "velocity": 120,
      "chip": "ym2612"
    },
    {
      "channel": 2,
      "note": 23,
      "start": 90.0461,
      "duration": 0.1471,
      "velocity": 124,
      "chip": "ym2612"
    },
    {
      "channel": 3,
      "note": 35,
      "start": 90.0468,
      "duration": 4.5018,
      "velocity": 108,
      "chip": "ym2612"
    },
    {
      "channel": 4,
      "note": 37,
      "start": 90.0475,
      "duration": 0.0808,
      "velocity": 108,
      "chip": "ym2612"
    },
    {
      "channel": 5,
      "note": 37,
      "start": 90.129,
      "duration": 0.0826,
      "velocity": 108,
      "chip": "ym2612"
    },
    {
      "channel": 0,
      "note": 71,
      "start": 90.1926,
      "duration": 0.0826,
      "velocity": 122,
      "chip": "ym2612"
    },
    {
      "channel": 2,
      "note": 35,
      "start": 90.1937,
      "duration": 0.1326,
      "velocity": 124,
      "chip": "ym2612"
    },
    {
      "channel": 4,
      "note": 35,
      "start": 90.195,
      "duration": 0.0822,
      "velocity": 108,
      "chip": "ym2612"
    },
    {
      "channel": 5,
      "note": 35,
      "start": 90.2614,
      "duration": 0.0826,
      "velocity": 108,
      "chip": "ym2612"
    },
    {
      "channel": 0,
      "note": 66,
      "start": 90.325,
      "duration": 0.1485,
      "velocity": 122,
      "chip": "ym2612"
    },
    {
      "channel": 1,
      "note": 62,
      "start": 90.3262,
      "duration": 0.1482,
      "velocity": 125,
      "chip": "ym2612"
    },
    {
      "channel": 2,
      "note": 23,
      "start": 90.3269,
      "duration": 0.1478,
      "velocity": 124,
      "chip": "ym2612"
    },
    {
      "channel": 4,
      "note": 38,
      "start": 90.3281,
      "duration": 0.0816,
      "velocity": 108,
      "chip": "ym2612"
    },
    {
      "channel": 5,
      "note": 38,
      "start": 90.4104,
      "duration": 0.0826,
      "velocity": 108,
      "chip": "ym2612"
    },
    {
      "channel": 0,
      "note": 59,
      "start": 90.474,
      "duration": 0.0826,
      "velocity": 123,
      "chip": "ym2612"
    },
    {
      "channel": 2,
      "note": 23,
      "start": 90.4752,
      "duration": 0.1327,
      "velocity": 124,
      "chip": "ym2612"
    },
    {
      "channel": 4,
      "note": 35,
      "start": 90.4764,
      "duration": 0.0823,
      "velocity": 108,
      "chip": "ym2612"
    },
    {
      "channel": 5,
      "note": 35,
      "start": 90.5429,
      "duration": 0.0826,
      "velocity": 108,
      "chip": "ym2612"
    },
    {
      "channel": 0,
      "note": 23,
      "start": 90.6065,
      "duration": 0.0991,
      "velocity": 123,
      "chip": "ym2612"
    },
    {
      "channel": 1,
      "note": 26,
      "start": 90.6077,
      "duration": 0.2802,
      "velocity": 126,
      "chip": "ym2612"
    },
    {
      "channel": 2,
      "note": 35,
      "start": 90.6084,
      "duration": 0.1476,
      "velocity": 124,
      "chip": "ym2612"
    },
    {
      "channel": 4,
      "note": 35,
      "start": 90.6096,
      "duration": 0.0816,
      "velocity": 108,
      "chip": "ym2612"
    },
    {
      "channel": 5,
      "note": 35,
      "start": 90.6918,
      "duration": 0.0826,
      "velocity": 108,
      "chip": "ym2612"
    },
    {
      "channel": 0,
      "note": 35,
      "start": 90.7554,
      "duration": 0.0826,
      "velocity": 123,
      "chip": "ym2612"
    },
    {
      "channel": 2,
      "note": 23,
      "start": 90.7565,
      "duration": 0.1327,
      "velocity": 124,
      "chip": "ym2612"
    },
    {
      "channel": 4,
      "note": 47,
      "start": 90.7578,
      "duration": 0.0823,
      "velocity": 108,
      "chip": "ym2612"
    },
    {
      "channel": 5,
      "note": 47,
      "start": 90.8243,
      "duration": 0.0826,
      "velocity": 108,
      "chip": "ym2612"
    },
    {
      "channel": 0,
      "note": 59,
      "start": 90.8878,
      "duration": 0.0992,
      "velocity": 123,
      "chip": "ym2612"
    },
    {
      "channel": 1,
      "note": 38,
      "start": 90.889,
      "duration": 0.2809,
      "velocity": 120,
      "chip": "ym2612"
    },
    {
      "channel": 2,
      "note": 23,
      "start": 90.8897,
      "duration": 0.1476,
      "velocity": 124,
      "chip": "ym2612"
    },
    {
      "channel": 4,
      "note": 38,
      "start": 90.8909,
      "duration": 0.0816,
      "velocity": 108,
      "chip": "ym2612"
    },
    {
      "channel": 5,
      "note": 38,
      "start": 90.9732,
      "duration": 0.0826,
      "velocity": 108,
      "chip": "ym2612"
    },
    {
      "channel": 2,
      "note": 35,
      "start": 91.0377,
      "duration": 0.1329,
      "velocity": 124,
      "chip": "ym2612"
    },
    {
      "channel": 4,
      "note": 35,
      "start": 91.039,
      "duration": 0.0824,
      "velocity": 108,
      "chip": "ym2612"
    },
    {
      "channel": 5,
      "note": 35,
      "start": 91.1056,
      "duration": 0.0826,
      "velocity": 108,
      "chip": "ym2612"
    },
    {
      "channel": 0,
      "note": 34,
      "start": 91.1698,
      "duration": 0.1478,
      "velocity": 64,
      "chip": "ym2612"
    },
    {
      "channel": 1,
      "note": 38,
      "start": 91.1705,
      "duration": 0.2801,
      "velocity": 120,
      "chip": "ym2612"
    },
    {
      "channel": 2,
      "note": 23,
      "start": 91.1711,
      "duration": 0.1483,
      "velocity": 124,
      "chip": "ym2612"
    },
    {
      "channel": 4,
      "note": 40,
      "start": 91.1723,
      "duration": 0.0816,
      "velocity": 108,
      "chip": "ym2612"
    },
    {
      "channel": 5,
      "note": 40,
      "start": 91.2546,
      "duration": 0.0826,
      "velocity": 108,
      "chip": "ym2612"
    },
    {
      "channel": 0,
      "note": 59,
      "start": 91.3187,
      "duration": 0.0821,
      "velocity": 123,
      "chip": "ym2612"
    },
    {
      "channel": 2,
      "note": 35,
      "start": 91.3199,
      "duration": 0.1319,
      "velocity": 124,
      "chip": "ym2612"
    },
    {
      "channel": 4,
      "note": 35,
      "start": 91.3211,
      "duration": 0.0817,
      "velocity": 108,
      "chip": "ym2612"
    },
    {
      "channel": 5,
      "note": 35,
      "start": 91.387,
      "duration": 0.0827,
      "velocity": 108,
      "chip": "ym2612"
    },
    {
      "channel": 1,
      "note": 62,
      "start": 91.4516,
      "duration": 0.1484,
      "velocity": 125,
      "chip": "ym2612"
    },
    {
      "channel": 2,
      "note": 23,
      "start": 91.4523,
      "duration": 0.148,
      "velocity": 124,
      "chip": "ym2612"
    },
    {
      "channel": 4,
      "note": 38,
      "start": 91.4535,
      "duration": 0.0817,
      "velocity": 108,
      "chip": "ym2612"
    },
    {
      "channel": 5,
      "note": 38,
      "start": 91.536,
      "duration": 0.0826,
      "velocity": 108,
      "chip": "ym2612"
    },
    {
      "channel": 0,
      "note": 59,
      "start": 91.5996,
      "duration": 0.0826,
      "velocity": 123,
      "chip": "ym2612"
    },
    {
      "channel": 2,
      "note": 23,
      "start": 91.6007,
      "duration": 0.1325,
      "velocity": 124,
      "chip": "ym2612"
    },
    {
      "channel": 4,
      "note": 35,
      "start": 91.602,
      "duration": 0.0823,
      "velocity": 108,
      "chip": "ym2612"
    },
    {
      "channel": 5,
      "note": 35,
      "start": 91.6684,
      "duration": 0.0826,
      "velocity": 108,
      "chip": "ym2612"
    },
    {
      "channel": 1,
      "note": 26,
      "start": 91.7331,
      "duration": 0.5617,
      "velocity": 126,
      "chip": "ym2612"
    },
    {
      "channel": 2,
      "note": 35,
      "start": 91.7337,
      "duration": 0.1485,
      "velocity": 124,
      "chip": "ym2612"
    },
    {
      "channel": 4,
      "note": 37,
      "start": 91.735,
      "duration": 0.0817,
      "velocity": 108,
      "chip": "ym2612"
    },
    {
      "channel": 5,
      "note": 37,
      "start": 91.8173,
      "duration": 0.0826,
      "velocity": 108,
      "chip": "ym2612"
    },
    {
      "channel": 0,
      "note": 34,
      "start": 91.8815,
      "duration": 0.1314,
      "velocity": 64,
      "chip": "ym2612"
    },
    {
      "channel": 2,
      "note": 23,
      "start": 91.8827,
      "duration": 0.1319,
      "velocity": 124,
      "chip": "ym2612"
    },
    {
      "channel": 4,
      "note": 35,
      "start": 91.8839,
      "duration": 0.0817,
      "velocity": 108,
      "chip": "ym2612"
    },
    {
      "channel": 5,
      "note": 35,
      "start": 91.9498,
      "duration": 0.0826,
      "velocity": 108,
      "chip": "ym2612"
    },
    {
      "channel": 0,
      "note": 59,
      "start": 92.014,
      "duration": 0.0986,
      "velocity": 123,
      "chip": "ym2612"
    },
    {
      "channel": 2,
      "note": 23,
      "start": 92.0151,
      "duration": 0.1478,
      "velocity": 124,
      "chip": "ym2612"
    },
    {
      "channel": 4,
      "note": 38,
      "start": 92.0163,
      "duration": 0.0817,
      "velocity": 108,
      "chip": "ym2612"
    },
    {
      "channel": 5,
      "note": 38,
      "start": 92.0988,
      "duration": 0.0826,
      "velocity": 108,
      "chip": "ym2612"
    },
    {
      "channel": 2,
      "note": 35,
      "start": 92.1633,
      "duration": 0.1327,
      "velocity": 124,
      "chip": "ym2612"
    },
    {
      "channel": 4,
      "note": 47,
      "start": 92.1645,
      "duration": 0.0824,
      "velocity": 108,
      "chip": "ym2612"
    },
    {
      "channel": 5,
      "note": 47,
      "start": 92.2311,
      "duration": 0.0827,
      "velocity": 108,
      "chip": "ym2612"
    },
    {
      "channel": 1,
      "note": 38,
      "start": 92.2958,
      "duration": 0.2803,
      "velocity": 120,
      "chip": "ym2612"
    },
    {
      "channel": 2,
      "note": 23,
      "start": 92.2965,
      "duration": 0.1479,
      "velocity": 124,
      "chip": "ym2612"
    },
    {
      "channel": 4,
      "note": 37,
      "start": 92.2977,
      "duration": 0.0817,
      "velocity": 108,
      "chip": "ym2612"
    },
    {
      "channel": 5,
      "note": 37,
      "start": 92.3801,
      "duration": 0.0826,
      "velocity": 108,
      "chip": "ym2612"
    },
    {
      "channel": 0,
      "note": 59,
      "start": 92.4437,
      "duration": 0.0826,
      "velocity": 123,
      "chip": "ym2612"
    },
    {
      "channel": 2,
      "note": 35,
      "start": 92.4448,
      "duration": 0.1326,
      "velocity": 124,
      "chip": "ym2612"
    },
    {
      "channel": 4,
      "note": 35,
      "start": 92.4461,
      "duration": 0.0823,
      "velocity": 108,
      "chip": "ym2612"
    },
    {
      "channel": 5,
      "note": 35,
      "start": 92.5126,
      "duration": 0.0826,
      "velocity": 108,
      "chip": "ym2612"
    },
    {
      "channel": 1,
      "note": 62,
      "start": 92.5772,
      "duration": 0.1484,
      "velocity": 125,
      "chip": "ym2612"
    },
    {
      "channel": 2,
      "note": 23,
      "start": 92.5778,
      "duration": 0.148,
      "velocity": 124,
      "chip": "ym2612"
    },
    {
      "channel": 4,
      "note": 38,
      "start": 92.5791,
      "duration": 0.0817,
      "velocity": 108,
      "chip": "ym2612"
    },
    {
      "channel": 5,
      "note": 38,
      "start": 92.6615,
      "duration": 0.0826,
      "velocity": 108,
      "chip": "ym2612"
    },
    {
      "channel": 0,
      "note": 59,
      "start": 92.7252,
      "duration": 0.0826,
      "velocity": 123,
      "chip": "ym2612"
    },
    {
      "channel": 2,
      "note": 23,
      "start": 92.7263,
      "duration": 0.1324,
      "velocity": 124,
      "chip": "ym2612"
    },
    {
      "channel": 4,
      "note": 35,
      "start": 92.7275,
      "duration": 0.0823,
      "velocity": 108,
      "chip": "ym2612"
    },
    {
      "channel": 5,
      "note": 35,
      "start": 92.7939,
      "duration": 0.0826,
      "velocity": 108,
      "chip": "ym2612"
    },
    {
      "channel": 1,
      "note": 26,
      "start": 92.8586,
      "duration": 0.2805,
      "velocity": 126,
      "chip": "ym2612"
    },
    {
      "channel": 2,
      "note": 35,
      "start": 92.8593,
      "duration": 0.1478,
      "velocity": 124,
      "chip": "ym2612"
    },
    {
      "channel": 4,
      "note": 35,
      "start": 92.8605,
      "duration": 0.0818,
      "velocity": 108,
      "chip": "ym2612"
    },
    {
      "channel": 5,
      "note": 35,
      "start": 92.943,
      "duration": 0.0826,
      "velocity": 108,
      "chip": "ym2612"
    },
    {
      "channel": 2,
      "note": 23,
      "start": 93.0076,
      "duration": 0.1328,
      "velocity": 124,
      "chip": "ym2612"
    },
    {
      "channel": 4,
      "note": 47,
      "start": 93.0088,
      "duration": 0.0824,
      "velocity": 108,
      "chip": "ym2612"
    },
    {
      "channel": 5,
      "note": 47,
      "start": 93.0754,
      "duration": 0.0826,
      "velocity": 108,
      "chip": "ym2612"
    },
    {
      "channel": 0,
      "note": 59,
      "start": 93.139,
      "duration": 0.0992,
      "velocity": 123,
      "chip": "ym2612"
    },
    {
      "channel": 1,
      "note": 38,
      "start": 93.1402,
      "duration": 0.2808,
      "velocity": 120,
      "chip": "ym2612"
    },
    {
      "channel": 2,
      "note": 23,
      "start": 93.1409,
      "duration": 0.1475,
      "velocity": 124,
      "chip": "ym2612"
    },
    {
      "channel": 4,
      "note": 38,
      "start": 93.1421,
      "duration": 0.0815,
      "velocity": 108,
      "chip": "ym2612"
    },
    {
      "channel": 5,
      "note": 38,
      "start": 93.2244,
      "duration": 0.0826,
      "velocity": 108,
      "chip": "ym2612"
    },
    {
      "channel": 2,
      "note": 35,
      "start": 93.2888,
      "duration": 0.1329,
      "velocity": 124,
      "chip": "ym2612"
    },
    {
      "channel": 4,
      "note": 35,
      "start": 93.2901,
      "duration": 0.0824,
      "velocity": 108,
      "chip": "ym2612"
    },
    {
      "channel": 5,
      "note": 35,
      "start": 93.3568,
      "duration": 0.0826,
      "velocity": 108,
      "chip": "ym2612"
    },
    {
      "channel": 0,
      "note": 34,
      "start": 93.421,
      "duration": 0.1478,
      "velocity": 64,
      "chip": "ym2612"
    },
    {
      "channel": 1,
      "note": 38,
      "start": 93.4216,
      "duration": 0.2801,
      "velocity": 120,
      "chip": "ym2612"
    },
    {
      "channel": 2,
      "note": 23,
      "start": 93.4222,
      "duration": 0.1483,
      "velocity": 124,
      "chip": "ym2612"
    },
    {
      "channel": 4,
      "note": 40,
      "start": 93.4235,
      "duration": 0.0815,
      "velocity": 108,
      "chip": "ym2612"
    },
    {
      "channel": 5,
      "note": 40,
      "start": 93.5057,
      "duration": 0.0826,
      "velocity": 108,
      "chip": "ym2612"
    },
    {
      "channel": 0,
      "note": 59,
      "start": 93.5699,
      "duration": 0.0821,
      "velocity": 123,
      "chip": "ym2612"
    },
    {
      "channel": 2,
      "note": 35,
      "start": 93.571,
      "duration": 0.132,
      "velocity": 124,
      "chip": "ym2612"
    },
    {
      "channel": 4,
      "note": 35,
      "start": 93.5722,
      "duration": 0.0817,
      "velocity": 108,
      "chip": "ym2612"
    },
    {
      "channel": 5,
      "note": 35,
      "start": 93.6381,
      "duration": 0.0826,
      "velocity": 108,
      "chip": "ym2612"
    },
    {
      "channel": 1,
      "note": 62,
      "start": 93.7028,
      "duration": 0.1483,
      "velocity": 125,
      "chip": "ym2612"
    },
    {
      "channel": 2,
      "note": 23,
      "start": 93.7034,
      "duration": 0.1478,
      "velocity": 124,
      "chip": "ym2612"
    },
    {
      "channel": 4,
      "note": 38,
      "start": 93.7047,
      "duration": 0.0817,
      "velocity": 108,
      "chip": "ym2612"
    },
    {
      "channel": 5,
      "note": 38,
      "start": 93.7871,
      "duration": 0.0826,
      "velocity": 108,
      "chip": "ym2612"
    },
    {
      "channel": 2,
      "note": 23,
      "start": 93.8517,
      "duration": 0.1326,
      "velocity": 124,
      "chip": "ym2612"
    },
    {
      "channel": 4,
      "note": 35,
      "start": 93.8529,
      "duration": 0.0824,
      "velocity": 108,
      "chip": "ym2612"
    },
    {
      "channel": 5,
      "note": 35,
      "start": 93.9195,
      "duration": 0.0826,
      "velocity": 108,
      "chip": "ym2612"
    },
    {
      "channel": 1,
      "note": 26,
      "start": 93.9842,
      "duration": 0.281,
      "velocity": 126,
      "chip": "ym2612"
    },
    {
      "channel": 2,
      "note": 35,
      "start": 93.9848,
      "duration": 0.1478,
      "velocity": 124,
      "chip": "ym2612"
    },
    {
      "channel": 4,
      "note": 37,
      "start": 93.986,
      "duration": 0.0817,
      "velocity": 108,
      "chip": "ym2612"
    },
    {
      "channel": 5,
      "note": 37,
      "start": 94.0685,
      "duration": 0.0826,
      "velocity": 108,
      "chip": "ym2612"
    },
    {
      "channel": 2,
      "note": 23,
      "start": 94.1331,
      "duration": 0.1334,
      "velocity": 124,
      "chip": "ym2612"
    },
    {
      "channel": 4,
      "note": 35,
      "start": 94.1343,
      "duration": 0.0824,
      "velocity": 108,
      "chip": "ym2612"
    },
    {
      "channel": 5,
      "note": 35,
      "start": 94.2009,
      "duration": 0.0826,
      "velocity": 108,
      "chip": "ym2612"
    },
    {
      "channel": 0,
      "note": 22,
      "start": 94.2651,
      "duration": 0.0986,
      "velocity": 64,
      "chip": "ym2612"
    },
    {
      "channel": 1,
      "note": 62,
      "start": 94.2663,
      "duration": 0.1476,
      "velocity": 125,
      "chip": "ym2612"
    },
    {
      "channel": 2,
      "note": 35,
      "start": 94.267,
      "duration": 0.1472,
      "velocity": 124,
      "chip": "ym2612"
    },
    {
      "channel": 4,
      "note": 38,
      "start": 94.2682,
      "duration": 0.081,
      "velocity": 108,
      "chip": "ym2612"
    },
    {
      "channel": 5,
      "note": 38,
      "start": 94.3499,
      "duration": 0.0826,
      "velocity": 108,
      "chip": "ym2612"
    },
    {
      "channel": 0,
      "note": 34,
      "start": 94.4135,
      "duration": 0.0826,
      "velocity": 64,
      "chip": "ym2612"
    },
    {
      "channel": 2,
      "note": 23,
      "start": 94.4147,
      "duration": 0.1333,
      "velocity": 124,
      "chip": "ym2612"
    },
    {
      "channel": 4,
      "note": 47,
      "start": 94.4159,
      "duration": 0.0823,
      "velocity": 108,
      "chip": "ym2612"
    },
    {
      "channel": 5,
      "note": 47,
      "start": 94.4823,
      "duration": 0.0826,
      "velocity": 108,
      "chip": "ym2612"
    },
    {
      "channel": 0,
      "note": 71,
      "start": 94.5465,
      "duration": 0.1479,
      "velocity": 122,
      "chip": "ym2612"
    },
    {
      "channel": 1,
      "note": 38,
      "start": 94.5478,
      "duration": 0.2797,
      "velocity": 120,
      "chip": "ym2612"
    },
    {
      "channel": 2,
      "note": 19,
      "start": 94.5484,
      "duration": 0.1471,
      "velocity": 124,
      "chip": "ym2612"
    },
    {
      "channel": 3,
      "note": 37,
      "start": 94.5491,
      "duration": 4.5017,
      "velocity": 108,
      "chip": "ym2612"
    },
    {
      "channel": 4,
      "note": 37,
      "start": 94.5498,
      "duration": 0.0808,
      "velocity": 108,
      "chip": "ym2612"
    },
    {
      "channel": 5,
      "note": 37,
      "start": 94.6313,
      "duration": 0.0826,
      "velocity": 108,
      "chip": "ym2612"
    },
    {
      "channel": 0,
      "note": 71,
      "start": 94.6949,
      "duration": 0.0826,
      "velocity": 122,
      "chip": "ym2612"
    },
    {
      "channel": 2,
      "note": 31,
      "start": 94.696,
      "duration": 0.1327,
      "velocity": 124,
      "chip": "ym2612"
    },
    {
      "channel": 4,
      "note": 35,
      "start": 94.6972,
      "duration": 0.0823,
      "velocity": 108,
      "chip": "ym2612"
    },
    {
      "channel": 5,
      "note": 35,
      "start": 94.7637,
      "duration": 0.0827,
      "velocity": 108,
      "chip": "ym2612"
    },
    {
      "channel": 0,
      "note": 66,
      "start": 94.8273,
      "duration": 0.1485,
      "velocity": 122,
      "chip": "ym2612"
    },
    {
      "channel": 1,
      "note": 62,
      "start": 94.8285,
      "duration": 0.1482,
      "velocity": 125,
      "chip": "ym2612"
    },
    {
      "channel": 2,
      "note": 19,
      "start": 94.8292,
      "duration": 0.1478,
      "velocity": 124,
      "chip": "ym2612"
    },
    {
      "channel": 4,
      "note": 38,
      "start": 94.8304,
      "duration": 0.0815,
      "velocity": 108,
      "chip": "ym2612"
    },
    {
      "channel": 5,
      "note": 38,
      "start": 94.9127,
      "duration": 0.0826,
      "velocity": 108,
      "chip": "ym2612"
    },
    {
      "channel": 0,
      "note": 59,
      "start": 94.9763,
      "duration": 0.0826,
      "velocity": 123,
      "chip": "ym2612"
    },
    {
      "channel": 2,
      "note": 19,
      "start": 94.9775,
      "duration": 0.1326,
      "velocity": 124,
      "chip": "ym2612"
    },
    {
      "channel": 4,
      "note": 35,
      "start": 94.9787,
      "duration": 0.0823,
      "velocity": 108,
      "chip": "ym2612"
    },
    {
      "channel": 5,
      "note": 35,
      "start": 95.0451,
      "duration": 0.0826,
      "velocity": 108,
      "chip": "ym2612"
    },
    {
      "channel": 0,
      "note": 23,
      "start": 95.1087,
      "duration": 0.0992,
      "velocity": 123,
      "chip": "ym2612"
    },
    {
      "channel": 1,
      "note": 26,
      "start": 95.1099,
      "duration": 0.2804,
      "velocity": 126,
      "chip": "ym2612"
    },
    {
      "channel": 2,
      "note": 31,
      "start": 95.1105,
      "duration": 0.1478,
      "velocity": 124,
      "chip": "ym2612"
    },
    {
      "channel": 4,
      "note": 35,
      "start": 95.1118,
      "duration": 0.0815,
      "velocity": 108,
      "chip": "ym2612"
    },
    {
      "channel": 5,
      "note": 35,
      "start": 95.1941,
      "duration": 0.0826,
      "velocity": 108,
      "chip": "ym2612"
    },
    {
      "channel": 0,
      "note": 35,
      "start": 95.2577,
      "duration": 0.0827,
      "velocity": 123,
      "chip": "ym2612"
    },
    {
      "channel": 2,
      "note": 19,
      "start": 95.2588,
      "duration": 0.1328,
      "velocity": 124,
      "chip": "ym2612"
    },
    {
      "channel": 4,
      "note": 47,
      "start": 95.26,
      "duration": 0.0824,
      "velocity": 108,
      "chip": "ym2612"
    },
    {
      "channel": 5,
      "note": 47,
      "start": 95.3265,
      "duration": 0.0826,
      "velocity": 108,
      "chip": "ym2612"
    },
    {
      "channel": 0,
      "note": 59,
      "start": 95.3902,
      "duration": 0.0991,
      "velocity": 123,
      "chip": "ym2612"
    },
    {
      "channel": 1,
      "note": 38,
      "start": 95.3914,
      "duration": 0.2809,
      "velocity": 120,
      "chip": "ym2612"
    },
    {
      "channel": 2,
      "note": 19,
      "start": 95.392,
      "duration": 0.1475,
      "velocity": 124,
      "chip": "ym2612"
    },
    {
      "channel": 4,
      "note": 38,
      "start": 95.3932,
      "duration": 0.0816,
      "velocity": 108,
      "chip": "ym2612"
    },
    {
      "channel": 5,
      "note": 38,
      "start": 95.4756,
      "duration": 0.0826,
      "velocity": 108,
      "chip": "ym2612"
    },
    {
      "channel": 2,
      "note": 31,
      "start": 95.54,
      "duration": 0.1328,
      "velocity": 124,
      "chip": "ym2612"
    },
    {
      "channel": 4,
      "note": 35,
      "start": 95.5413,
      "duration": 0.0824,
      "velocity": 108,
      "chip": "ym2612"
    },
    {
      "channel": 5,
      "note": 35,
      "start": 95.6079,
      "duration": 0.0827,
      "velocity": 108,
      "chip": "ym2612"
    },
    {
      "channel": 0,
      "note": 34,
      "start": 95.6721,
      "duration": 0.1478,
      "velocity": 64,
      "chip": "ym2612"
    },
    {
      "channel": 1,
      "note": 38,
      "start": 95.6727,
      "duration": 0.2801,
      "velocity": 120,
      "chip": "ym2612"
    },
    {
      "channel": 2,
      "note": 19,
      "start": 95.6734,
      "duration": 0.1483,
      "velocity": 124,
      "chip": "ym2612"
    },
    {
      "channel": 4,
      "note": 40,
      "start": 95.6746,
      "duration": 0.0815,
      "velocity": 108,
      "chip": "ym2612"
    },
    {
      "channel": 5,
      "note": 40,
      "start": 95.7569,
      "duration": 0.0825,
      "velocity": 108,
      "chip": "ym2612"
    },
    {
      "channel": 0,
      "note": 59,
      "start": 95.821,
      "duration": 0.0821,
      "velocity": 123,
      "chip": "ym2612"
    },
    {
      "channel": 2,
      "note": 31,
      "start": 95.8222,
      "duration": 0.1319,
      "velocity": 124,
      "chip": "ym2612"
    },
    {
      "channel": 4,
      "note": 35,
      "start": 95.8234,
      "duration": 0.0817,
      "velocity": 108,
      "chip": "ym2612"
    },
    {
      "channel": 5,
      "note": 35,
      "start": 95.8892,
      "duration": 0.0827,
      "velocity": 108,
      "chip": "ym2612"
    },
    {
      "channel": 1,
      "note": 62,
      "start": 95.9539,
      "duration": 0.1484,
      "velocity": 125,
      "chip": "ym2612"
    },
    {
      "channel": 2,
      "note": 19,
      "start": 95.9546,
      "duration": 0.148,
      "velocity": 124,
      "chip": "ym2612"
    },
    {
      "channel": 4,
      "note": 38,
      "start": 95.9558,
      "duration": 0.0817,
      "velocity": 108,
      "chip": "ym2612"
    },
    {
      "channel": 5,
      "note": 38,
      "start": 96.0383,
      "duration": 0.0826,
      "velocity": 108,
      "chip": "ym2612"
    },
    {
      "channel": 0,
      "note": 59,
      "start": 96.1019,
      "duration": 0.0826,
      "velocity": 123,
      "chip": "ym2612"
    },
    {
      "channel": 2,
      "note": 19,
      "start": 96.103,
      "duration": 0.1324,
      "velocity": 124,
      "chip": "ym2612"
    },
    {
      "channel": 4,
      "note": 35,
      "start": 96.1042,
      "duration": 0.0823,
      "velocity": 108,
      "chip": "ym2612"
    },
    {
      "channel": 5,
      "note": 35,
      "start": 96.1707,
      "duration": 0.0826,
      "velocity": 108,
      "chip": "ym2612"
    },
    {
      "channel": 1,
      "note": 26,
      "start": 96.2354,
      "duration": 0.5617,
      "velocity": 126,
      "chip": "ym2612"
    },
    {
      "channel": 2,
      "note": 31,
      "start": 96.236,
      "duration": 0.1485,
      "velocity": 124,
      "chip": "ym2612"
    },
    {
      "channel": 4,
      "note": 37,
      "start": 96.2372,
      "duration": 0.0817,
      "velocity": 108,
      "chip": "ym2612"
    },
    {
      "channel": 5,
      "note": 37,
      "start": 96.3196,
      "duration": 0.0826,
      "velocity": 108,
      "chip": "ym2612"
    },
    {
      "channel": 0,
      "note": 34,
      "start": 96.3838,
      "duration": 0.1314,
      "velocity": 64,
      "chip": "ym2612"
    },
    {
      "channel": 2,
      "note": 19,
      "start": 96.385,
      "duration": 0.1319,
      "velocity": 124,
      "chip": "ym2612"
    },
    {
      "channel": 4,
      "note": 35,
      "start": 96.3862,
      "duration": 0.0817,
      "velocity": 108,
      "chip": "ym2612"
    },
    {
      "channel": 5,
      "note": 35,
      "start": 96.4521,
      "duration": 0.0826,
      "velocity": 108,
      "chip": "ym2612"
    },
    {
      "channel": 0,
      "note": 59,
      "start": 96.5163,
      "duration": 0.0986,
      "velocity": 123,
      "chip": "ym2612"
    },
    {
      "channel": 2,
      "note": 31,
      "start": 96.5173,
      "duration": 0.1478,
      "velocity": 124,
      "chip": "ym2612"
    },
    {
      "channel": 4,
      "note": 38,
      "start": 96.5186,
      "duration": 0.0817,
      "velocity": 108,
      "chip": "ym2612"
    },
    {
      "channel": 5,
      "note": 38,
      "start": 96.601,
      "duration": 0.0826,
      "velocity": 108,
      "chip": "ym2612"
    },
    {
      "channel": 2,
      "note": 21,
      "start": 96.6656,
      "duration": 0.1327,
      "velocity": 124,
      "chip": "ym2612"
    },
    {
      "channel": 4,
      "note": 47,
      "start": 96.6668,
      "duration": 0.0824,
      "velocity": 108,
      "chip": "ym2612"
    },
    {
      "channel": 5,
      "note": 47,
      "start": 96.7334,
      "duration": 0.0827,
      "velocity": 108,
      "chip": "ym2612"
    },
    {
      "channel": 1,
      "note": 38,
      "start": 96.7981,
      "duration": 0.2803,
      "velocity": 120,
      "chip": "ym2612"
    },
    {
      "channel": 2,
      "note": 23,
      "start": 96.7988,
      "duration": 0.1479,
      "velocity": 124,
      "chip": "ym2612"
    },
    {
      "channel": 4,
      "note": 37,
      "start": 96.8,
      "duration": 0.0817,
      "velocity": 108,
      "chip": "ym2612"
    },
    {
      "channel": 5,
      "note": 37,
      "start": 96.8824,
      "duration": 0.0827,
      "velocity": 108,
      "chip": "ym2612"
    },
    {
      "channel": 0,
      "note": 59,
      "start": 96.946,
      "duration": 0.0826,
      "velocity": 123,
      "chip": "ym2612"
    },
    {
      "channel": 2,
      "note": 35,
      "start": 96.9471,
      "duration": 0.1326,
      "velocity": 124,
      "chip": "ym2612"
    },
    {
      "channel": 4,
      "note": 35,
      "start": 96.9484,
      "duration": 0.0823,
      "velocity": 108,
      "chip": "ym2612"
    },
    {
      "channel": 5,
      "note": 35,
      "start": 97.0148,
      "duration": 0.0827,
      "velocity": 108,
      "chip": "ym2612"
    },
    {
      "channel": 1,
      "note": 62,
      "start": 97.0795,
      "duration": 0.1484,
      "velocity": 125,
      "chip": "ym2612"
    },
    {
      "channel": 2,
      "note": 23,
      "start": 97.0801,
      "duration": 0.148,
      "velocity": 124,
      "chip": "ym2612"
    },
    {
      "channel": 4,
      "note": 38,
      "start": 97.0814,
      "duration": 0.0817,
      "velocity": 108,
      "chip": "ym2612"
    },
    {
      "channel": 5,
      "note": 38,
      "start": 97.1638,
      "duration": 0.0826,
      "velocity": 108,
      "chip": "ym2612"
    },
    {
      "channel": 0,
      "note": 59,
      "start": 97.2275,
      "duration": 0.0826,
      "velocity": 123,
      "chip": "ym2612"
    },
    {
      "channel": 2,
      "note": 23,
      "start": 97.2286,
      "duration": 0.1324,
      "velocity": 124,
      "chip": "ym2612"
    },
    {
      "channel": 4,
      "note": 35,
      "start": 97.2298,
      "duration": 0.0823,
      "velocity": 108,
      "chip": "ym2612"
    },
    {
      "channel": 5,
      "note": 35,
      "start": 97.2962,
      "duration": 0.0826,
      "velocity": 108,
      "chip": "ym2612"
    },
    {
      "channel": 1,
      "note": 26,
      "start": 97.3609,
      "duration": 0.2805,
      "velocity": 126,
      "chip": "ym2612"
    },
    {
      "channel": 2,
      "note": 35,
      "start": 97.3615,
      "duration": 0.1477,
      "velocity": 124,
      "chip": "ym2612"
    },
    {
      "channel": 4,
      "note": 35,
      "start": 97.3628,
      "duration": 0.0817,
      "velocity": 108,
      "chip": "ym2612"
    },
    {
      "channel": 5,
      "note": 35,
      "start": 97.4452,
      "duration": 0.0827,
      "velocity": 108,
      "chip": "ym2612"
    },
    {
      "channel": 2,
      "note": 23,
      "start": 97.5098,
      "duration": 0.1329,
      "velocity": 124,
      "chip": "ym2612"
    },
    {
      "channel": 4,
      "note": 47,
      "start": 97.511,
      "duration": 0.0825,
      "velocity": 108,
      "chip": "ym2612"
    },
    {
      "channel": 5,
      "note": 47,
      "start": 97.5776,
      "duration": 0.0826,
      "velocity": 108,
      "chip": "ym2612"
    },
    {
      "channel": 0,
      "note": 59,
      "start": 97.6412,
      "duration": 0.0992,
      "velocity": 123,
      "chip": "ym2612"
    },
    {
      "channel": 1,
      "note": 38,
      "start": 97.6425,
      "duration": 0.281,
      "velocity": 120,
      "chip": "ym2612"
    },
    {
      "channel": 2,
      "note": 23,
      "start": 97.6431,
      "duration": 0.1476,
      "velocity": 124,
      "chip": "ym2612"
    },
    {
      "channel": 4,
      "note": 38,
      "start": 97.6444,
      "duration": 0.0815,
      "velocity": 108,
      "chip": "ym2612"
    },
    {
      "channel": 5,
      "note": 38,
      "start": 97.7266,
      "duration": 0.0826,
      "velocity": 108,
      "chip": "ym2612"
    },
    {
      "channel": 2,
      "note": 35,
      "start": 97.7912,
      "duration": 0.1329,
      "velocity": 124,
      "chip": "ym2612"
    },
    {
      "channel": 4,
      "note": 35,
      "start": 97.7925,
      "duration": 0.0824,
      "velocity": 108,
      "chip": "ym2612"
    },
    {
      "channel": 5,
      "note": 35,
      "start": 97.8591,
      "duration": 0.0826,
      "velocity": 108,
      "chip": "ym2612"
    },
    {
      "channel": 0,
      "note": 34,
      "start": 97.9233,
      "duration": 0.1478,
      "velocity": 64,
      "chip": "ym2612"
    },
    {
      "channel": 1,
      "note": 38,
      "start": 97.9239,
      "duration": 0.2801,
      "velocity": 120,
      "chip": "ym2612"
    },
    {
      "channel": 2,
      "note": 23,
      "start": 97.9245,
      "duration": 0.1483,
      "velocity": 124,
      "chip": "ym2612"
    },
    {
      "channel": 4,
      "note": 40,
      "start": 97.9258,
      "duration": 0.0815,
      "velocity": 108,
      "chip": "ym2612"
    },
    {
      "channel": 5,
      "note": 40,
      "start": 98.008,
      "duration": 0.0826,
      "velocity": 108,
      "chip": "ym2612"
    },
    {
      "channel": 0,
      "note": 59,
      "start": 98.0722,
      "duration": 0.0821,
      "velocity": 123,
      "chip": "ym2612"
    },
    {
      "channel": 2,
      "note": 35,
      "start": 98.0733,
      "duration": 0.132,
      "velocity": 124,
      "chip": "ym2612"
    },
    {
      "channel": 4,
      "note": 35,
      "start": 98.0746,
      "duration": 0.0817,
      "velocity": 108,
      "chip": "ym2612"
    },
    {
      "channel": 5,
      "note": 35,
      "start": 98.1404,
      "duration": 0.0826,
      "velocity": 108,
      "chip": "ym2612"
    },
    {
      "channel": 1,
      "note": 62,
      "start": 98.2051,
      "duration": 0.1483,
      "velocity": 125,
      "chip": "ym2612"
    },
    {
      "channel": 2,
      "note": 23,
      "start": 98.2057,
      "duration": 0.1478,
      "velocity": 124,
      "chip": "ym2612"
    },
    {
      "channel": 4,
      "note": 38,
      "start": 98.207,
      "duration": 0.0817,
      "velocity": 108,
      "chip": "ym2612"
    },
    {
      "channel": 5,
      "note": 38,
      "start": 98.2894,
      "duration": 0.0826,
      "velocity": 108,
      "chip": "ym2612"
    },
    {
      "channel": 2,
      "note": 23,
      "start": 98.354,
      "duration": 0.1326,
      "velocity": 124,
      "chip": "ym2612"
    },
    {
      "channel": 4,
      "note": 35,
      "start": 98.3552,
      "duration": 0.0824,
      "velocity": 108,
      "chip": "ym2612"
    },
    {
      "channel": 5,
      "note": 35,
      "start": 98.4218,
      "duration": 0.0826,
      "velocity": 108,
      "chip": "ym2612"
    },
    {
      "channel": 1,
      "note": 26,
      "start": 98.4865,
      "duration": 0.281,
      "velocity": 126,
      "chip": "ym2612"
    },
    {
      "channel": 2,
      "note": 35,
      "start": 98.4871,
      "duration": 0.1477,
      "velocity": 124,
      "chip": "ym2612"
    },
    {
      "channel": 4,
      "note": 37,
      "start": 98.4883,
      "duration": 0.0817,
      "velocity": 108,
      "chip": "ym2612"
    },
    {
      "channel": 5,
      "note": 37,
      "start": 98.5708,
      "duration": 0.0826,
      "velocity": 108,
      "chip": "ym2612"
    },
    {
      "channel": 2,
      "note": 23,
      "start": 98.6354,
      "duration": 0.1334,
      "velocity": 124,
      "chip": "ym2612"
    },
    {
      "channel": 4,
      "note": 35,
      "start": 98.6366,
      "duration": 0.0825,
      "velocity": 108,
      "chip": "ym2612"
    },
    {
      "channel": 5,
      "note": 35,
      "start": 98.7032,
      "duration": 0.0826,
      "velocity": 108,
      "chip": "ym2612"
    },
    {
      "channel": 0,
      "note": 22,
      "start": 98.7674,
      "duration": 0.0986,
      "velocity": 64,
      "chip": "ym2612"
    },
    {
      "channel": 1,
      "note": 62,
      "start": 98.7686,
      "duration": 0.1476,
      "velocity": 125,
      "chip": "ym2612"
    },
    {
      "channel": 2,
      "note": 35,
      "start": 98.7693,
      "duration": 0.1472,
      "velocity": 124,
      "chip": "ym2612"
    },
    {
      "channel": 4,
      "note": 38,
      "start": 98.7705,
      "duration": 0.081,
      "velocity": 108,
      "chip": "ym2612"
    },
    {
      "channel": 5,
      "note": 38,
      "start": 98.8522,
      "duration": 0.0826,
      "velocity": 108,
      "chip": "ym2612"
    },
    {
      "channel": 0,
      "note": 34,
      "start": 98.9158,
      "duration": 0.0826,
      "velocity": 64,
      "chip": "ym2612"
    },
    {
      "channel": 2,
      "note": 23,
      "start": 98.917,
      "duration": 0.1332,
      "velocity": 124,
      "chip": "ym2612"
    },
    {
      "channel": 4,
      "note": 47,
      "start": 98.9182,
      "duration": 0.0823,
      "velocity": 108,
      "chip": "ym2612"
    },
    {
      "channel": 5,
      "note": 47,
      "start": 98.9846,
      "duration": 0.0826,
      "velocity": 108,
      "chip": "ym2612"
    },
    {
      "channel": 0,
      "note": 71,
      "start": 99.0488,
      "duration": 0.148,
      "velocity": 122,
      "chip": "ym2612"
    },
    {
      "channel": 1,
      "note": 38,
      "start": 99.05,
      "duration": 0.2797,
      "velocity": 120,
      "chip": "ym2612"
    },
    {
      "channel": 2,
      "note": 19,
      "start": 99.0507,
      "duration": 0.1471,
      "velocity": 124,
      "chip": "ym2612"
    },
    {
      "channel": 3,
      "note": 45,
      "start": 99.0514,
      "duration": 0.8431,
      "velocity": 108,
      "chip": "ym2612"
    },
    {
      "channel": 4,
      "note": 37,
      "start": 99.0521,
      "duration": 0.0808,
      "velocity": 108,
      "chip": "ym2612"
    },
    {
      "channel": 5,
      "note": 37,
      "start": 99.1336,
      "duration": 0.0826,
      "velocity": 108,
      "chip": "ym2612"
    },
    {
      "channel": 0,
      "note": 71,
      "start": 99.1972,
      "duration": 0.0826,
      "velocity": 122,
      "chip": "ym2612"
    },
    {
      "channel": 2,
      "note": 31,
      "start": 99.1983,
      "duration": 0.1327,
      "velocity": 124,
      "chip": "ym2612"
    },
    {
      "channel": 4,
      "note": 35,
      "start": 99.1995,
      "duration": 0.0823,
      "velocity": 108,
      "chip": "ym2612"
    },
    {
      "channel": 5,
      "note": 35,
      "start": 99.2659,
      "duration": 0.0826,
      "velocity": 108,
      "chip": "ym2612"
    },
    {
      "channel": 0,
      "note": 66,
      "start": 99.3296,
      "duration": 0.1485,
      "velocity": 122,
      "chip": "ym2612"
    },
    {
      "channel": 1,
      "note": 62,
      "start": 99.3308,
      "duration": 0.1482,
      "velocity": 125,
      "chip": "ym2612"
    },
    {
      "channel": 2,
      "note": 19,
      "start": 99.3315,
      "duration": 0.1478,
      "velocity": 124,
      "chip": "ym2612"
    },
    {
      "channel": 4,
      "note": 38,
      "start": 99.3327,
      "duration": 0.0815,
      "velocity": 108,
      "chip": "ym2612"
    },
    {
      "channel": 5,
      "note": 38,
      "start": 99.415,
      "duration": 0.0826,
      "velocity": 108,
      "chip": "ym2612"
    },
    {
      "channel": 0,
      "note": 59,
      "start": 99.4786,
      "duration": 0.0826,
      "velocity": 123,
      "chip": "ym2612"
    },
    {
      "channel": 2,
      "note": 19,
      "start": 99.4798,
      "duration": 0.1326,
      "velocity": 124,
      "chip": "ym2612"
    },
    {
      "channel": 4,
      "note": 35,
      "start": 99.481,
      "duration": 0.0823,
      "velocity": 108,
      "chip": "ym2612"
    },
    {
      "channel": 5,
      "note": 35,
      "start": 99.5474,
      "duration": 0.0826,
      "velocity": 108,
      "chip": "ym2612"
    },
    {
      "channel": 0,
      "note": 23,
      "start": 99.611,
      "duration": 0.0992,
      "velocity": 123,
      "chip": "ym2612"
    },
    {
      "channel": 1,
      "note": 26,
      "start": 99.6122,
      "duration": 0.2804,
      "velocity": 126,
      "chip": "ym2612"
    },
    {
      "channel": 2,
      "note": 31,
      "start": 99.6128,
      "duration": 0.1478,
      "velocity": 124,
      "chip": "ym2612"
    },
    {
      "channel": 4,
      "note": 35,
      "start": 99.6141,
      "duration": 0.0815,
      "velocity": 108,
      "chip": "ym2612"
    },
    {
      "channel": 5,
      "note": 35,
      "start": 99.6963,
      "duration": 0.0826,
      "velocity": 108,
      "chip": "ym2612"
    },
    {
      "channel": 0,
      "note": 35,
      "start": 99.76,
      "duration": 0.0826,
      "velocity": 123,
      "chip": "ym2612"
    },
    {
      "channel": 2,
      "note": 19,
      "start": 99.761,
      "duration": 0.1328,
      "velocity": 124,
      "chip": "ym2612"
    },
    {
      "channel": 4,
      "note": 47,
      "start": 99.7623,
      "duration": 0.0823,
      "velocity": 108,
      "chip": "ym2612"
    },
    {
      "channel": 5,
      "note": 47,
      "start": 99.8288,
      "duration": 0.0826,
      "velocity": 108,
      "chip": "ym2612"
    },
    {
      "channel": 0,
      "note": 59,
      "start": 99.8924,
      "duration": 0.0991,
      "velocity": 123,
      "chip": "ym2612"
    },
    {
      "channel": 1,
      "note": 38,
      "start": 99.8936,
      "duration": 0.281,
      "velocity": 120,
      "chip": "ym2612"
    },
    {
      "channel": 2,
      "note": 19,
      "start": 99.8942,
      "duration": 0.1476,
      "velocity": 124,
      "chip": "ym2612"
    },
    {
      "channel": 3,
      "note": 47,
      "start": 99.8949,
      "duration": 0.8434,
      "velocity": 108,
      "chip": "ym2612"
    },
    {
      "channel": 4,
      "note": 38,
      "start": 99.8956,
      "duration": 0.0814,
      "velocity": 108,
      "chip": "ym2612"
    },
    {
      "channel": 5,
      "note": 38,
      "start": 99.9778,
      "duration": 0.0826,
      "velocity": 108,
      "chip": "ym2612"
    },
    {
      "channel": 2,
      "note": 31,
      "start": 100.0423,
      "duration": 0.1329,
      "velocity": 124,
      "chip": "ym2612"
    },
    {
      "channel": 4,
      "note": 35,
      "start": 100.0435,
      "duration": 0.0824,
      "velocity": 108,
      "chip": "ym2612"
    },
    {
      "channel": 5,
      "note": 35,
      "start": 100.1102,
      "duration": 0.0826,
      "velocity": 108,
      "chip": "ym2612"
    },
    {
      "channel": 0,
      "note": 34,
      "start": 100.1744,
      "duration": 0.1478,
      "velocity": 64,
      "chip": "ym2612"
    },
    {
      "channel": 1,
      "note": 38,
      "start": 100.175,
      "duration": 0.2801,
      "velocity": 120,
      "chip": "ym2612"
    },
    {
      "channel": 2,
      "note": 19,
      "start": 100.1757,
      "duration": 0.1483,
      "velocity": 124,
      "chip": "ym2612"
    },
    {
      "channel": 4,
      "note": 40,
      "start": 100.1769,
      "duration": 0.0815,
      "velocity": 108,
      "chip": "ym2612"
    },
    {
      "channel": 5,
      "note": 40,
      "start": 100.2592,
      "duration": 0.0826,
      "velocity": 108,
      "chip": "ym2612"
    },
    {
      "channel": 0,
      "note": 59,
      "start": 100.3234,
      "duration": 0.082,
      "velocity": 123,
      "chip": "ym2612"
    },
    {
      "channel": 2,
      "note": 31,
      "start": 100.3245,
      "duration": 0.1319,
      "velocity": 124,
      "chip": "ym2612"
    },
    {
      "channel": 4,
      "note": 35,
      "start": 100.3257,
      "duration": 0.0817,
      "velocity": 108,
      "chip": "ym2612"
    },
    {
      "channel": 5,
      "note": 35,
      "start": 100.3916,
      "duration": 0.0827,
      "velocity": 108,
      "chip": "ym2612"
    },
    {
      "channel": 1,
      "note": 62,
      "start": 100.4562,
      "duration": 0.1484,
      "velocity": 125,
      "chip": "ym2612"
    },
    {
      "channel": 2,
      "note": 19,
      "start": 100.4569,
      "duration": 0.1479,
      "velocity": 124,
      "chip": "ym2612"
    },
    {
      "channel": 4,
      "note": 38,
      "start": 100.4581,
      "duration": 0.0817,
      "velocity": 108,
      "chip": "ym2612"
    },
    {
      "channel": 5,
      "note": 38,
      "start": 100.5406,
      "duration": 0.0826,
      "velocity": 108,
      "chip": "ym2612"
    },
    {
      "channel": 0,
      "note": 59,
      "start": 100.6042,
      "duration": 0.0826,
      "velocity": 123,
      "chip": "ym2612"
    },
    {
      "channel": 2,
      "note": 19,
      "start": 100.6053,
      "duration": 0.1324,
      "velocity": 124,
      "chip": "ym2612"
    },
    {
      "channel": 4,
      "note": 35,
      "start": 100.6066,
      "duration": 0.0822,
      "velocity": 108,
      "chip": "ym2612"
    },
    {
      "channel": 5,
      "note": 35,
      "start": 100.6729,
      "duration": 0.0826,
      "velocity": 108,
      "chip": "ym2612"
    },
    {
      "channel": 1,
      "note": 26,
      "start": 100.7376,
      "duration": 0.5616,
      "velocity": 126,
      "chip": "ym2612"
    },
    {
      "channel": 2,
      "note": 31,
      "start": 100.7383,
      "duration": 0.1485,
      "velocity": 124,
      "chip": "ym2612"
    },
    {
      "channel": 3,
      "note": 49,
      "start": 100.739,
      "duration": 0.5622,
      "velocity": 108,
      "chip": "ym2612"
    },
    {
      "channel": 4,
      "note": 37,
      "start": 100.7397,
      "duration": 0.0815,
      "velocity": 108,
      "chip": "ym2612"
    },
    {
      "channel": 5,
      "note": 37,
      "start": 100.8219,
      "duration": 0.0826,
      "velocity": 108,
      "chip": "ym2612"
    },
    {
      "channel": 0,
      "note": 34,
      "start": 100.8861,
      "duration": 0.1314,
      "velocity": 64,
      "chip": "ym2612"
    },
    {
      "channel": 2,
      "note": 19,
      "start": 100.8873,
      "duration": 0.1319,
      "velocity": 124,
      "chip": "ym2612"
    },
    {
      "channel": 4,
      "note": 35,
      "start": 100.8885,
      "duration": 0.0817,
      "velocity": 108,
      "chip": "ym2612"
    },
    {
      "channel": 5,
      "note": 35,
      "start": 100.9543,
      "duration": 0.0826,
      "velocity": 108,
      "chip": "ym2612"
    },
    {
      "channel": 0,
      "note": 59,
      "start": 101.0185,
      "duration": 0.0985,
      "velocity": 123,
      "chip": "ym2612"
    },
    {
      "channel": 2,
      "note": 31,
      "start": 101.0196,
      "duration": 0.1478,
      "velocity": 124,
      "chip": "ym2612"
    },
    {
      "channel": 4,
      "note": 38,
      "start": 101.0209,
      "duration": 0.0817,
      "velocity": 108,
      "chip": "ym2612"
    },
    {
      "channel": 5,
      "note": 38,
      "start": 101.1033,
      "duration": 0.0826,
      "velocity": 108,
      "chip": "ym2612"
    },
    {
      "channel": 2,
      "note": 21,
      "start": 101.1678,
      "duration": 0.1327,
      "velocity": 124,
      "chip": "ym2612"
    },
    {
      "channel": 4,
      "note": 47,
      "start": 101.1691,
      "duration": 0.0824,
      "velocity": 108,
      "chip": "ym2612"
    },
    {
      "channel": 5,
      "note": 47,
      "start": 101.2357,
      "duration": 0.0827,
      "velocity": 108,
      "chip": "ym2612"
    },
    {
      "channel": 1,
      "note": 38,
      "start": 101.3004,
      "duration": 0.2803,
      "velocity": 120,
      "chip": "ym2612"
    },
    {
      "channel": 2,
      "note": 23,
      "start": 101.301,
      "duration": 0.1479,
      "velocity": 124,
      "chip": "ym2612"
    },
    {
      "channel": 3,
      "note": 50,
      "start": 101.3017,
      "duration": 0.8438,
      "velocity": 108,
      "chip": "ym2612"
    },
    {
      "channel": 4,
      "note": 37,
      "start": 101.3024,
      "duration": 0.0816,
      "velocity": 108,
      "chip": "ym2612"
    },
    {
      "channel": 5,
      "note": 37,
      "start": 101.3847,
      "duration": 0.0826,
      "velocity": 108,
      "chip": "ym2612"
    },
    {
      "channel": 0,
      "note": 59,
      "start": 101.4483,
      "duration": 0.0826,
      "velocity": 123,
      "chip": "ym2612"
    },
    {
      "channel": 2,
      "note": 35,
      "start": 101.4494,
      "duration": 0.1326,
      "velocity": 124,
      "chip": "ym2612"
    },
    {
      "channel": 4,
      "note": 35,
      "start": 101.4507,
      "duration": 0.0823,
      "velocity": 108,
      "chip": "ym2612"
    },
    {
      "channel": 5,
      "note": 35,
      "start": 101.5171,
      "duration": 0.0827,
      "velocity": 108,
      "chip": "ym2612"
    },
    {
      "channel": 1,
      "note": 62,
      "start": 101.5818,
      "duration": 0.1484,
      "velocity": 125,
      "chip": "ym2612"
    },
    {
      "channel": 2,
      "note": 23,
      "start": 101.5824,
      "duration": 0.148,
      "velocity": 124,
      "chip": "ym2612"
    },
    {
      "channel": 4,
      "note": 38,
      "start": 101.5837,
      "duration": 0.0817,
      "velocity": 108,
      "chip": "ym2612"
    },
    {
      "channel": 5,
      "note": 38,
      "start": 101.6661,
      "duration": 0.0826,
      "velocity": 108,
      "chip": "ym2612"
    },
    {
      "channel": 0,
      "note": 59,
      "start": 101.7297,
      "duration": 0.0826,
      "velocity": 123,
      "chip": "ym2612"
    },
    {
      "channel": 2,
      "note": 23,
      "start": 101.7308,
      "duration": 0.1325,
      "velocity": 124,
      "chip": "ym2612"
    },
    {
      "channel": 4,
      "note": 35,
      "start": 101.7321,
      "duration": 0.0823,
      "velocity": 108,
      "chip": "ym2612"
    },
    {
      "channel": 5,
      "note": 35,
      "start": 101.7985,
      "duration": 0.0826,
      "velocity": 108,
      "chip": "ym2612"
    },
    {
      "channel": 1,
      "note": 26,
      "start": 101.8632,
      "duration": 0.2805,
      "velocity": 126,
      "chip": "ym2612"
    },
    {
      "channel": 2,
      "note": 35,
      "start": 101.8638,
      "duration": 0.1477,
      "velocity": 124,
      "chip": "ym2612"
    },
    {
      "channel": 4,
      "note": 35,
      "start": 101.8651,
      "duration": 0.0817,
      "velocity": 108,
      "chip": "ym2612"
    },
    {
      "channel": 5,
      "note": 35,
      "start": 101.9475,
      "duration": 0.0827,
      "velocity": 108,
      "chip": "ym2612"
    },
    {
      "channel": 2,
      "note": 23,
      "start": 102.0121,
      "duration": 0.1329,
      "velocity": 124,
      "chip": "ym2612"
    },
    {
      "channel": 4,
      "note": 47,
      "start": 102.0133,
      "duration": 0.0825,
      "velocity": 108,
      "chip": "ym2612"
    },
    {
      "channel": 5,
      "note": 47,
      "start": 102.0799,
      "duration": 0.0826,
      "velocity": 108,
      "chip": "ym2612"
    },
    {
      "channel": 0,
      "note": 59,
      "start": 102.1435,
      "duration": 0.0991,
      "velocity": 123,
      "chip": "ym2612"
    },
    {
      "channel": 1,
      "note": 38,
      "start": 102.1448,
      "duration": 0.2809,
      "velocity": 120,
      "chip": "ym2612"
    },
    {
      "channel": 2,
      "note": 23,
      "start": 102.1454,
      "duration": 0.1476,
      "velocity": 124,
      "chip": "ym2612"
    },
    {
      "channel": 3,
      "note": 49,
      "start": 102.1461,
      "duration": 0.8434,
      "velocity": 108,
      "chip": "ym2612"
    },
    {
      "channel": 4,
      "note": 38,
      "start": 102.1468,
      "duration": 0.0814,
      "velocity": 108,
      "chip": "ym2612"
    },
    {
      "channel": 5,
      "note": 38,
      "start": 102.2289,
      "duration": 0.0826,
      "velocity": 108,
      "chip": "ym2612"
    },
    {
      "channel": 2,
      "note": 35,
      "start": 102.2934,
      "duration": 0.1329,
      "velocity": 124,
      "chip": "ym2612"
    },
    {
      "channel": 4,
      "note": 35,
      "start": 102.2947,
      "duration": 0.0824,
      "velocity": 108,
      "chip": "ym2612"
    },
    {
      "channel": 5,
      "note": 35,
      "start": 102.3613,
      "duration": 0.0826,
      "velocity": 108,
      "chip": "ym2612"
    },
    {
      "channel": 0,
      "note": 34,
      "start": 102.4255,
      "duration": 0.148,
      "velocity": 64,
      "chip": "ym2612"
    },
    {
      "channel": 1,
      "note": 38,
      "start": 102.4262,
      "duration": 0.2801,
      "velocity": 120,
      "chip": "ym2612"
    },
    {
      "channel": 2,
      "note": 23,
      "start": 102.4268,
      "duration": 0.1483,
      "velocity": 124,
      "chip": "ym2612"
    },
    {
      "channel": 4,
      "note": 40,
      "start": 102.428,
      "duration": 0.0815,
      "velocity": 108,
      "chip": "ym2612"
    },
    {
      "channel": 5,
      "note": 40,
      "start": 102.5103,
      "duration": 0.0826,
      "velocity": 108,
      "chip": "ym2612"
    },
    {
      "channel": 0,
      "note": 59,
      "start": 102.5745,
      "duration": 0.082,
      "velocity": 123,
      "chip": "ym2612"
    },
    {
      "channel": 2,
      "note": 35,
      "start": 102.5756,
      "duration": 0.132,
      "velocity": 124,
      "chip": "ym2612"
    },
    {
      "channel": 4,
      "note": 35,
      "start": 102.5769,
      "duration": 0.0817,
      "velocity": 108,
      "chip": "ym2612"
    },
    {
      "channel": 5,
      "note": 35,
      "start": 102.6427,
      "duration": 0.0826,
      "velocity": 108,
      "chip": "ym2612"
    },
    {
      "channel": 1,
      "note": 62,
      "start": 102.7074,
      "duration": 0.1482,
      "velocity": 125,
      "chip": "ym2612"
    },
    {
      "channel": 2,
      "note": 23,
      "start": 102.708,
      "duration": 0.1477,
      "velocity": 124,
      "chip": "ym2612"
    },
    {
      "channel": 4,
      "note": 38,
      "start": 102.7093,
      "duration": 0.0817,
      "velocity": 108,
      "chip": "ym2612"
    },
    {
      "channel": 5,
      "note": 38,
      "start": 102.7917,
      "duration": 0.0826,
      "velocity": 108,
      "chip": "ym2612"
    },
    {
      "channel": 2,
      "note": 23,
      "start": 102.8563,
      "duration": 0.1326,
      "velocity": 124,
      "chip": "ym2612"
    },
    {
      "channel": 4,
      "note": 35,
      "start": 102.8576,
      "duration": 0.0824,
      "velocity": 108,
      "chip": "ym2612"
    },
    {
      "channel": 5,
      "note": 35,
      "start": 102.9241,
      "duration": 0.0826,
      "velocity": 108,
      "chip": "ym2612"
    },
    {
      "channel": 1,
      "note": 26,
      "start": 102.9887,
      "duration": 0.2811,
      "velocity": 126,
      "chip": "ym2612"
    },
    {
      "channel": 2,
      "note": 35,
      "start": 102.9893,
      "duration": 0.1478,
      "velocity": 124,
      "chip": "ym2612"
    },
    {
      "channel": 3,
      "note": 47,
      "start": 102.9902,
      "duration": 0.5629,
      "velocity": 108,
      "chip": "ym2612"
    },
    {
      "channel": 4,
      "note": 37,
      "start": 102.9909,
      "duration": 0.0815,
      "velocity": 108,
      "chip": "ym2612"
    },
    {
      "channel": 5,
      "note": 37,
      "start": 103.0731,
      "duration": 0.0825,
      "velocity": 108,
      "chip": "ym2612"
    },
    {
      "channel": 2,
      "note": 23,
      "start": 103.1376,
      "duration": 0.1334,
      "velocity": 124,
      "chip": "ym2612"
    },
    {
      "channel": 4,
      "note": 35,
      "start": 103.1388,
      "duration": 0.0824,
      "velocity": 108,
      "chip": "ym2612"
    },
    {
      "channel": 5,
      "note": 35,
      "start": 103.2054,
      "duration": 0.0826,
      "velocity": 108,
      "chip": "ym2612"
    },
    {
      "channel": 0,
      "note": 22,
      "start": 103.2697,
      "duration": 0.0985,
      "velocity": 64,
      "chip": "ym2612"
    },
    {
      "channel": 1,
      "note": 62,
      "start": 103.2709,
      "duration": 0.1476,
      "velocity": 125,
      "chip": "ym2612"
    },
    {
      "channel": 2,
      "note": 35,
      "start": 103.2715,
      "duration": 0.1472,
      "velocity": 124,
      "chip": "ym2612"
    },
    {
      "channel": 4,
      "note": 38,
      "start": 103.2727,
      "duration": 0.081,
      "velocity": 108,
      "chip": "ym2612"
    },
    {
      "channel": 5,
      "note": 38,
      "start": 103.3545,
      "duration": 0.0826,
      "velocity": 108,
      "chip": "ym2612"
    },
    {
      "channel": 0,
      "note": 34,
      "start": 103.4181,
      "duration": 0.0826,
      "velocity": 64,
      "chip": "ym2612"
    },
    {
      "channel": 2,
      "note": 23,
      "start": 103.4193,
      "duration": 0.1332,
      "velocity": 124,
      "chip": "ym2612"
    },
    {
      "channel": 4,
      "note": 47,
      "start": 103.4205,
      "duration": 0.0822,
      "velocity": 108,
      "chip": "ym2612"
    },
    {
      "channel": 5,
      "note": 47,
      "start": 103.4869,
      "duration": 0.0826,
      "velocity": 108,
      "chip": "ym2612"
    },
    {
      "channel": 0,
      "note": 71,
      "start": 103.551,
      "duration": 0.1479,
      "velocity": 122,
      "chip": "ym2612"
    },
    {
      "channel": 1,
      "note": 38,
      "start": 103.5523,
      "duration": 0.2798,
      "velocity": 120,
      "chip": "ym2612"
    },
    {
      "channel": 2,
      "note": 19,
      "start": 103.5529,
      "duration": 0.1472,
      "velocity": 124,
      "chip": "ym2612"
    },
    {
      "channel": 3,
      "note": 45,
      "start": 103.5537,
      "duration": 0.8431,
      "velocity": 108,
      "chip": "ym2612"
    },
    {
      "channel": 4,
      "note": 37,
      "start": 103.5544,
      "duration": 0.0808,
      "velocity": 108,
      "chip": "ym2612"
    },
    {
      "channel": 5,
      "note": 37,
      "start": 103.6359,
      "duration": 0.0826,
      "velocity": 108,
      "chip": "ym2612"
    },
    {
      "channel": 0,
      "note": 71,
      "start": 103.6995,
      "duration": 0.0826,
      "velocity": 122,
      "chip": "ym2612"
    },
    {
      "channel": 2,
      "note": 31,
      "start": 103.7005,
      "duration": 0.1327,
      "velocity": 124,
      "chip": "ym2612"
    },
    {
      "channel": 4,
      "note": 35,
      "start": 103.7018,
      "duration": 0.0822,
      "velocity": 108,
      "chip": "ym2612"
    },
    {
      "channel": 5,
      "note": 35,
      "start": 103.7682,
      "duration": 0.0826,
      "velocity": 108,
      "chip": "ym2612"
    },
    {
      "channel": 0,
      "note": 66,
      "start": 103.8319,
      "duration": 0.1485,
      "velocity": 122,
      "chip": "ym2612"
    },
    {
      "channel": 1,
      "note": 62,
      "start": 103.8331,
      "duration": 0.1482,
      "velocity": 125,
      "chip": "ym2612"
    },
    {
      "channel": 2,
      "note": 19,
      "start": 103.8337,
      "duration": 0.1477,
      "velocity": 124,
      "chip": "ym2612"
    },
    {
      "channel": 4,
      "note": 38,
      "start": 103.835,
      "duration": 0.0815,
      "velocity": 108,
      "chip": "ym2612"
    },
    {
      "channel": 5,
      "note": 38,
      "start": 103.9173,
      "duration": 0.0826,
      "velocity": 108,
      "chip": "ym2612"
    },
    {
      "channel": 0,
      "note": 59,
      "start": 103.9808,
      "duration": 0.0827,
      "velocity": 123,
      "chip": "ym2612"
    },
    {
      "channel": 2,
      "note": 19,
      "start": 103.982,
      "duration": 0.1327,
      "velocity": 124,
      "chip": "ym2612"
    },
    {
      "channel": 4,
      "note": 35,
      "start": 103.9832,
      "duration": 0.0823,
      "velocity": 108,
      "chip": "ym2612"
    },
    {
      "channel": 5,
      "note": 35,
      "start": 104.0497,
      "duration": 0.0826,
      "velocity": 108,
      "chip": "ym2612"
    },
    {
      "channel": 0,
      "note": 23,
      "start": 104.1133,
      "duration": 0.0992,
      "velocity": 123,
      "chip": "ym2612"
    },
    {
      "channel": 1,
      "note": 26,
      "start": 104.1145,
      "duration": 0.2804,
      "velocity": 126,
      "chip": "ym2612"
    },
    {
      "channel": 2,
      "note": 31,
      "start": 104.1151,
      "duration": 0.1478,
      "velocity": 124,
      "chip": "ym2612"
    },
    {
      "channel": 4,
      "note": 35,
      "start": 104.1164,
      "duration": 0.0815,
      "velocity": 108,
      "chip": "ym2612"
    },
    {
      "channel": 5,
      "note": 35,
      "start": 104.1986,
      "duration": 0.0826,
      "velocity": 108,
      "chip": "ym2612"
    },
    {
      "channel": 0,
      "note": 35,
      "start": 104.2622,
      "duration": 0.0826,
      "velocity": 123,
      "chip": "ym2612"
    },
    {
      "channel": 2,
      "note": 19,
      "start": 104.2633,
      "duration": 0.1328,
      "velocity": 124,
      "chip": "ym2612"
    },
    {
      "channel": 4,
      "note": 47,
      "start": 104.2646,
      "duration": 0.0823,
      "velocity": 108,
      "chip": "ym2612"
    },
    {
      "channel": 5,
      "note": 47,
      "start": 104.331,
      "duration": 0.0826,
      "velocity": 108,
      "chip": "ym2612"
    },
    {
      "channel": 0,
      "note": 59,
      "start": 104.3947,
      "duration": 0.0991,
      "velocity": 123,
      "chip": "ym2612"
    },
    {
      "channel": 1,
      "note": 38,
      "start": 104.3959,
      "duration": 0.2809,
      "velocity": 120,
      "chip": "ym2612"
    },
    {
      "channel": 2,
      "note": 19,
      "start": 104.3965,
      "duration": 0.1476,
      "velocity": 124,
      "chip": "ym2612"
    },
    {
      "channel": 3,
      "note": 47,
      "start": 104.3972,
      "duration": 0.8435,
      "velocity": 108,
      "chip": "ym2612"
    },
    {
      "channel": 4,
      "note": 38,
      "start": 104.3979,
      "duration": 0.0814,
      "velocity": 108,
      "chip": "ym2612"
    },
    {
      "channel": 5,
      "note": 38,
      "start": 104.4801,
      "duration": 0.0826,
      "velocity": 108,
      "chip": "ym2612"
    },
    {
      "channel": 2,
      "note": 31,
      "start": 104.5446,
      "duration": 0.1329,
      "velocity": 124,
      "chip": "ym2612"
    },
    {
      "channel": 4,
      "note": 35,
      "start": 104.5458,
      "duration": 0.0824,
      "velocity": 108,
      "chip": "ym2612"
    },
    {
      "channel": 5,
      "note": 35,
      "start": 104.6124,
      "duration": 0.0826,
      "velocity": 108,
      "chip": "ym2612"
    },
    {
      "channel": 0,
      "note": 34,
      "start": 104.6766,
      "duration": 0.1479,
      "velocity": 64,
      "chip": "ym2612"
    },
    {
      "channel": 1,
      "note": 38,
      "start": 104.6773,
      "duration": 0.2801,
      "velocity": 120,
      "chip": "ym2612"
    },
    {
      "channel": 2,
      "note": 19,
      "start": 104.678,
      "duration": 0.1483,
      "velocity": 124,
      "chip": "ym2612"
    },
    {
      "channel": 4,
      "note": 40,
      "start": 104.6792,
      "duration": 0.0816,
      "velocity": 108,
      "chip": "ym2612"
    },
    {
      "channel": 5,
      "note": 40,
      "start": 104.7614,
      "duration": 0.0826,
      "velocity": 108,
      "chip": "ym2612"
    },
    {
      "channel": 0,
      "note": 59,
      "start": 104.8256,
      "duration": 0.082,
      "velocity": 123,
      "chip": "ym2612"
    },
    {
      "channel": 2,
      "note": 31,
      "start": 104.8267,
      "duration": 0.132,
      "velocity": 124,
      "chip": "ym2612"
    },
    {
      "channel": 4,
      "note": 35,
      "start": 104.828,
      "duration": 0.0817,
      "velocity": 108,
      "chip": "ym2612"
    },
    {
      "channel": 5,
      "note": 35,
      "start": 104.8938,
      "duration": 0.0826,
      "velocity": 108,
      "chip": "ym2612"
    },
    {
      "channel": 1,
      "note": 62,
      "start": 104.9585,
      "duration": 0.1485,
      "velocity": 125,
      "chip": "ym2612"
    },
    {
      "channel": 2,
      "note": 19,
      "start": 104.9591,
      "duration": 0.148,
      "velocity": 124,
      "chip": "ym2612"
    },
    {
      "channel": 4,
      "note": 38,
      "start": 104.9604,
      "duration": 0.0817,
      "velocity": 108,
      "chip": "ym2612"
    },
    {
      "channel": 5,
      "note": 38,
      "start": 105.0429,
      "duration": 0.0826,
      "velocity": 108,
      "chip": "ym2612"
    },
    {
      "channel": 0,
      "note": 59,
      "start": 105.1065,
      "duration": 0.0826,
      "velocity": 123,
      "chip": "ym2612"
    },
    {
      "channel": 2,
      "note": 19,
      "start": 105.1076,
      "duration": 0.1325,
      "velocity": 124,
      "chip": "ym2612"
    },
    {
      "channel": 4,
      "note": 35,
      "start": 105.1088,
      "duration": 0.0823,
      "velocity": 108,
      "chip": "ym2612"
    },
    {
      "channel": 5,
      "note": 35,
      "start": 105.1753,
      "duration": 0.0826,
      "velocity": 108,
      "chip": "ym2612"
    },
    {
      "channel": 1,
      "note": 26,
      "start": 105.2399,
      "duration": 0.5616,
      "velocity": 126,
      "chip": "ym2612"
    },
    {
      "channel": 2,
      "note": 31,
      "start": 105.2406,
      "duration": 0.1485,
      "velocity": 124,
      "chip": "ym2612"
    },
    {
      "channel": 3,
      "note": 45,
      "start": 105.2412,
      "duration": 0.5622,
      "velocity": 108,
      "chip": "ym2612"
    },
    {
      "channel": 4,
      "note": 37,
      "start": 105.242,
      "duration": 0.0816,
      "velocity": 108,
      "chip": "ym2612"
    },
    {
      "channel": 5,
      "note": 37,
      "start": 105.3243,
      "duration": 0.0826,
      "velocity": 108,
      "chip": "ym2612"
    },
    {
      "channel": 0,
      "note": 34,
      "start": 105.3884,
      "duration": 0.1313,
      "velocity": 64,
      "chip": "ym2612"
    },
    {
      "channel": 2,
      "note": 19,
      "start": 105.3895,
      "duration": 0.132,
      "velocity": 124,
      "chip": "ym2612"
    },
    {
      "channel": 4,
      "note": 35,
      "start": 105.3908,
      "duration": 0.0816,
      "velocity": 108,
      "chip": "ym2612"
    },
    {
      "channel": 5,
      "note": 35,
      "start": 105.4566,
      "duration": 0.0826,
      "velocity": 108,
      "chip": "ym2612"
    },
    {
      "channel": 0,
      "note": 59,
      "start": 105.5208,
      "duration": 0.0985,
      "velocity": 123,
      "chip": "ym2612"
    },
    {
      "channel": 2,
      "note": 31,
      "start": 105.5219,
      "duration": 0.1478,
      "velocity": 124,
      "chip": "ym2612"
    },
    {
      "channel": 4,
      "note": 38,
      "start": 105.5232,
      "duration": 0.0817,
      "velocity": 108,
      "chip": "ym2612"
    },
    {
      "channel": 5,
      "note": 38,
      "start": 105.6056,
      "duration": 0.0826,
      "velocity": 108,
      "chip": "ym2612"
    },
    {
      "channel": 2,
      "note": 21,
      "start": 105.6701,
      "duration": 0.1327,
      "velocity": 124,
      "chip": "ym2612"
    },
    {
      "channel": 4,
      "note": 47,
      "start": 105.6714,
      "duration": 0.0824,
      "velocity": 108,
      "chip": "ym2612"
    },
    {
      "channel": 5,
      "note": 47,
      "start": 105.738,
      "duration": 0.0827,
      "velocity": 108,
      "chip": "ym2612"
    },
    {
      "channel": 1,
      "note": 38,
      "start": 105.8027,
      "duration": 0.2803,
      "velocity": 120,
      "chip": "ym2612"
    },
    {
      "channel": 2,
      "note": 23,
      "start": 105.8033,
      "duration": 0.148,
      "velocity": 124,
      "chip": "ym2612"
    },
    {
      "channel": 3,
      "note": 42,
      "start": 105.804,
      "duration": 2.2513,
      "velocity": 108,
      "chip": "ym2612"
    },
    {
      "channel": 4,
      "note": 37,
      "start": 105.8047,
      "duration": 0.0816,
      "velocity": 108,
      "chip": "ym2612"
    },
    {
      "channel": 5,
      "note": 37,
      "start": 105.887,
      "duration": 0.0826,
      "velocity": 108,
      "chip": "ym2612"
    },
    {
      "channel": 0,
      "note": 59,
      "start": 105.9506,
      "duration": 0.0826,
      "velocity": 123,
      "chip": "ym2612"
    },
    {
      "channel": 2,
      "note": 35,
      "start": 105.9517,
      "duration": 0.1325,
      "velocity": 124,
      "chip": "ym2612"
    },
    {
      "channel": 4,
      "note": 35,
      "start": 105.953,
      "duration": 0.0822,
      "velocity": 108,
      "chip": "ym2612"
    },
    {
      "channel": 5,
      "note": 35,
      "start": 106.0194,
      "duration": 0.0827,
      "velocity": 108,
      "chip": "ym2612"
    },
    {
      "channel": 1,
      "note": 62,
      "start": 106.0841,
      "duration": 0.1484,
      "velocity": 125,
      "chip": "ym2612"
    },
    {
      "channel": 2,
      "note": 23,
      "start": 106.0847,
      "duration": 0.1479,
      "velocity": 124,
      "chip": "ym2612"
    },
    {
      "channel": 4,
      "note": 38,
      "start": 106.0859,
      "duration": 0.0817,
      "velocity": 108,
      "chip": "ym2612"
    },
    {
      "channel": 5,
      "note": 38,
      "start": 106.1684,
      "duration": 0.0826,
      "velocity": 108,
      "chip": "ym2612"
    },
    {
      "channel": 0,
      "note": 59,
      "start": 106.232,
      "duration": 0.0826,
      "velocity": 123,
      "chip": "ym2612"
    },
    {
      "channel": 2,
      "note": 23,
      "start": 106.2331,
      "duration": 0.1325,
      "velocity": 124,
      "chip": "ym2612"
    },
    {
      "channel": 4,
      "note": 35,
      "start": 106.2343,
      "duration": 0.0823,
      "velocity": 108,
      "chip": "ym2612"
    },
    {
      "channel": 5,
      "note": 35,
      "start": 106.3008,
      "duration": 0.0826,
      "velocity": 108,
      "chip": "ym2612"
    },
    {
      "channel": 1,
      "note": 26,
      "start": 106.3654,
      "duration": 0.2805,
      "velocity": 126,
      "chip": "ym2612"
    },
    {
      "channel": 2,
      "note": 35,
      "start": 106.3661,
      "duration": 0.1478,
      "velocity": 124,
      "chip": "ym2612"
    },
    {
      "channel": 4,
      "note": 35,
      "start": 106.3673,
      "duration": 0.0817,
      "velocity": 108,
      "chip": "ym2612"
    },
    {
      "channel": 5,
      "note": 35,
      "start": 106.4498,
      "duration": 0.0826,
      "velocity": 108,
      "chip": "ym2612"
    },
    {
      "channel": 2,
      "note": 23,
      "start": 106.5143,
      "duration": 0.1329,
      "velocity": 124,
      "chip": "ym2612"
    },
    {
      "channel": 4,
      "note": 47,
      "start": 106.5156,
      "duration": 0.0824,
      "velocity": 108,
      "chip": "ym2612"
    },
    {
      "channel": 5,
      "note": 47,
      "start": 106.5822,
      "duration": 0.0826,
      "velocity": 108,
      "chip": "ym2612"
    },
    {
      "channel": 0,
      "note": 59,
      "start": 106.6458,
      "duration": 0.0992,
      "velocity": 123,
      "chip": "ym2612"
    },
    {
      "channel": 1,
      "note": 38,
      "start": 106.647,
      "duration": 0.281,
      "velocity": 120,
      "chip": "ym2612"
    },
    {
      "channel": 2,
      "note": 23,
      "start": 106.6476,
      "duration": 0.1476,
      "velocity": 124,
      "chip": "ym2612"
    },
    {
      "channel": 4,
      "note": 38,
      "start": 106.6489,
      "duration": 0.0816,
      "velocity": 108,
      "chip": "ym2612"
    },
    {
      "channel": 5,
      "note": 38,
      "start": 106.7311,
      "duration": 0.0827,
      "velocity": 108,
      "chip": "ym2612"
    },
    {
      "channel": 2,
      "note": 35,
      "start": 106.7957,
      "duration": 0.1329,
      "velocity": 124,
      "chip": "ym2612"
    },
    {
      "channel": 4,
      "note": 35,
      "start": 106.797,
      "duration": 0.0824,
      "velocity": 108,
      "chip": "ym2612"
    },
    {
      "channel": 5,
      "note": 35,
      "start": 106.8635,
      "duration": 0.0827,
      "velocity": 108,
      "chip": "ym2612"
    },
    {
      "channel": 0,
      "note": 34,
      "start": 106.9278,
      "duration": 0.1479,
      "velocity": 64,
      "chip": "ym2612"
    },
    {
      "channel": 1,
      "note": 38,
      "start": 106.9284,
      "duration": 0.2801,
      "velocity": 120,
      "chip": "ym2612"
    },
    {
      "channel": 2,
      "note": 23,
      "start": 106.929,
      "duration": 0.1483,
      "velocity": 124,
      "chip": "ym2612"
    },
    {
      "channel": 4,
      "note": 40,
      "start": 106.9303,
      "duration": 0.0815,
      "velocity": 108,
      "chip": "ym2612"
    },
    {
      "channel": 5,
      "note": 40,
      "start": 107.0126,
      "duration": 0.0826,
      "velocity": 108,
      "chip": "ym2612"
    },
    {
      "channel": 0,
      "note": 59,
      "start": 107.0768,
      "duration": 0.082,
      "velocity": 123,
      "chip": "ym2612"
    },
    {
      "channel": 2,
      "note": 35,
      "start": 107.0778,
      "duration": 0.1319,
      "velocity": 124,
      "chip": "ym2612"
    },
    {
      "channel": 4,
      "note": 35,
      "start": 107.0791,
      "duration": 0.0817,
      "velocity": 108,
      "chip": "ym2612"
    },
    {
      "channel": 5,
      "note": 35,
      "start": 107.1449,
      "duration": 0.0826,
      "velocity": 108,
      "chip": "ym2612"
    },
    {
      "channel": 1,
      "note": 62,
      "start": 107.2096,
      "duration": 0.1483,
      "velocity": 125,
      "chip": "ym2612"
    },
    {
      "channel": 2,
      "note": 23,
      "start": 107.2103,
      "duration": 0.1478,
      "velocity": 124,
      "chip": "ym2612"
    },
    {
      "channel": 4,
      "note": 38,
      "start": 107.2115,
      "duration": 0.0817,
      "velocity": 108,
      "chip": "ym2612"
    },
    {
      "channel": 5,
      "note": 38,
      "start": 107.294,
      "duration": 0.0826,
      "velocity": 108,
      "chip": "ym2612"
    },
    {
      "channel": 2,
      "note": 23,
      "start": 107.3585,
      "duration": 0.1327,
      "velocity": 124,
      "chip": "ym2612"
    },
    {
      "channel": 4,
      "note": 35,
      "start": 107.3598,
      "duration": 0.0824,
      "velocity": 108,
      "chip": "ym2612"
    },
    {
      "channel": 5,
      "note": 35,
      "start": 107.4264,
      "duration": 0.0826,
      "velocity": 108,
      "chip": "ym2612"
    },
    {
      "channel": 1,
      "note": 26,
      "start": 107.4911,
      "duration": 0.281,
      "velocity": 126,
      "chip": "ym2612"
    },
    {
      "channel": 2,
      "note": 35,
      "start": 107.4917,
      "duration": 0.1477,
      "velocity": 124,
      "chip": "ym2612"
    },
    {
      "channel": 4,
      "note": 37,
      "start": 107.493,
      "duration": 0.0817,
      "velocity": 108,
      "chip": "ym2612"
    },
    {
      "channel": 5,
      "note": 37,
      "start": 107.5754,
      "duration": 0.0826,
      "velocity": 108,
      "chip": "ym2612"
    },
    {
      "channel": 2,
      "note": 23,
      "start": 107.6399,
      "duration": 0.1334,
      "velocity": 124,
      "chip": "ym2612"
    },
    {
      "channel": 4,
      "note": 35,
      "start": 107.6412,
      "duration": 0.0824,
      "velocity": 108,
      "chip": "ym2612"
    },
    {
      "channel": 5,
      "note": 35,
      "start": 107.7078,
      "duration": 0.0826,
      "velocity": 108,
      "chip": "ym2612"
    },
    {
      "channel": 0,
      "note": 22,
      "start": 107.772,
      "duration": 0.0985,
      "velocity": 64,
      "chip": "ym2612"
    },
    {
      "channel": 1,
      "note": 62,
      "start": 107.7732,
      "duration": 0.1476,
      "velocity": 125,
      "chip": "ym2612"
    },
    {
      "channel": 2,
      "note": 35,
      "start": 107.7739,
      "duration": 0.1471,
      "velocity": 124,
      "chip": "ym2612"
    },
    {
      "channel": 4,
      "note": 38,
      "start": 107.7751,
      "duration": 0.0809,
      "velocity": 108,
      "chip": "ym2612"
    },
    {
      "channel": 5,
      "note": 38,
      "start": 107.8568,
      "duration": 0.0826,
      "velocity": 108,
      "chip": "ym2612"
    },
    {
      "channel": 0,
      "note": 34,
      "start": 107.9203,
      "duration": 0.0827,
      "velocity": 64,
      "chip": "ym2612"
    },
    {
      "channel": 2,
      "note": 23,
      "start": 107.9215,
      "duration": 0.1333,
      "velocity": 124,
      "chip": "ym2612"
    },
    {
      "channel": 4,
      "note": 47,
      "start": 107.9227,
      "duration": 0.0822,
      "velocity": 108,
      "chip": "ym2612"
    },
    {
      "channel": 5,
      "note": 47,
      "start": 107.9892,
      "duration": 0.0826,
      "velocity": 108,
      "chip": "ym2612"
    },
    {
      "channel": 0,
      "note": 71,
      "start": 108.0533,
      "duration": 0.1479,
      "velocity": 122,
      "chip": "ym2612"
    },
    {
      "channel": 1,
      "note": 38,
      "start": 108.0546,
      "duration": 0.2797,
      "velocity": 120,
      "chip": "ym2612"
    },
    {
      "channel": 2,
      "note": 19,
      "start": 108.0552,
      "duration": 0.1472,
      "velocity": 124,
      "chip": "ym2612"
    },
    {
      "channel": 3,
      "note": 45,
      "start": 108.0559,
      "duration": 0.8431,
      "velocity": 108,
      "chip": "ym2612"
    },
    {
      "channel": 4,
      "note": 37,
      "start": 108.0566,
      "duration": 0.0808,
      "velocity": 108,
      "chip": "ym2612"
    },
    {
      "channel": 5,
      "note": 37,
      "start": 108.1381,
      "duration": 0.0826,
      "velocity": 108,
      "chip": "ym2612"
    },
    {
      "channel": 0,
      "note": 71,
      "start": 108.2017,
      "duration": 0.0826,
      "velocity": 122,
      "chip": "ym2612"
    },
    {
      "channel": 2,
      "note": 31,
      "start": 108.2028,
      "duration": 0.1327,
      "velocity": 124,
      "chip": "ym2612"
    },
    {
      "channel": 4,
      "note": 35,
      "start": 108.2041,
      "duration": 0.0822,
      "velocity": 108,
      "chip": "ym2612"
    },
    {
      "channel": 5,
      "note": 35,
      "start": 108.2705,
      "duration": 0.0826,
      "velocity": 108,
      "chip": "ym2612"
    },
    {
      "channel": 0,
      "note": 66,
      "start": 108.3341,
      "duration": 0.1485,
      "velocity": 122,
      "chip": "ym2612"
    },
    {
      "channel": 1,
      "note": 62,
      "start": 108.3354,
      "duration": 0.1483,
      "velocity": 125,
      "chip": "ym2612"
    },
    {
      "channel": 2,
      "note": 19,
      "start": 108.336,
      "duration": 0.1478,
      "velocity": 124,
      "chip": "ym2612"
    },
    {
      "channel": 4,
      "note": 38,
      "start": 108.3373,
      "duration": 0.0815,
      "velocity": 108,
      "chip": "ym2612"
    },
    {
      "channel": 5,
      "note": 38,
      "start": 108.4196,
      "duration": 0.0826,
      "velocity": 108,
      "chip": "ym2612"
    },
    {
      "channel": 0,
      "note": 59,
      "start": 108.4831,
      "duration": 0.0826,
      "velocity": 123,
      "chip": "ym2612"
    },
    {
      "channel": 2,
      "note": 19,
      "start": 108.4843,
      "duration": 0.1327,
      "velocity": 124,
      "chip": "ym2612"
    },
    {
      "channel": 4,
      "note": 35,
      "start": 108.4855,
      "duration": 0.0823,
      "velocity": 108,
      "chip": "ym2612"
    },
    {
      "channel": 5,
      "note": 35,
      "start": 108.552,
      "duration": 0.0826,
      "velocity": 108,
      "chip": "ym2612"
    },
    {
      "channel": 0,
      "note": 23,
      "start": 108.6156,
      "duration": 0.0992,
      "velocity": 123,
      "chip": "ym2612"
    },
    {
      "channel": 1,
      "note": 26,
      "start": 108.6168,
      "duration": 0.2803,
      "velocity": 126,
      "chip": "ym2612"
    },
    {
      "channel": 2,
      "note": 31,
      "start": 108.6174,
      "duration": 0.1478,
      "velocity": 124,
      "chip": "ym2612"
    },
    {
      "channel": 4,
      "note": 35,
      "start": 108.6187,
      "duration": 0.0815,
      "velocity": 108,
      "chip": "ym2612"
    },
    {
      "channel": 5,
      "note": 35,
      "start": 108.7009,
      "duration": 0.0826,
      "velocity": 108,
      "chip": "ym2612"
    },
    {
      "channel": 0,
      "note": 35,
      "start": 108.7645,
      "duration": 0.0826,
      "velocity": 123,
      "chip": "ym2612"
    },
    {
      "channel": 2,
      "note": 19,
      "start": 108.7656,
      "duration": 0.1327,
      "velocity": 124,
      "chip": "ym2612"
    },
    {
      "channel": 4,
      "note": 47,
      "start": 108.7669,
      "duration": 0.0823,
      "velocity": 108,
      "chip": "ym2612"
    },
    {
      "channel": 5,
      "note": 47,
      "start": 108.8333,
      "duration": 0.0826,
      "velocity": 108,
      "chip": "ym2612"
    },
    {
      "channel": 0,
      "note": 59,
      "start": 108.8969,
      "duration": 0.0992,
      "velocity": 123,
      "chip": "ym2612"
    },
    {
      "channel": 1,
      "note": 38,
      "start": 108.8981,
      "duration": 0.281,
      "velocity": 120,
      "chip": "ym2612"
    },
    {
      "channel": 2,
      "note": 19,
      "start": 108.8988,
      "duration": 0.1476,
      "velocity": 124,
      "chip": "ym2612"
    },
    {
      "channel": 3,
      "note": 47,
      "start": 108.8995,
      "duration": 0.8434,
      "velocity": 108,
      "chip": "ym2612"
    },
    {
      "channel": 4,
      "note": 38,
      "start": 108.9002,
      "duration": 0.0814,
      "velocity": 108,
      "chip": "ym2612"
    },
    {
      "channel": 5,
      "note": 38,
      "start": 108.9823,
      "duration": 0.0826,
      "velocity": 108,
      "chip": "ym2612"
    },
    {
      "channel": 2,
      "note": 31,
      "start": 109.0468,
      "duration": 0.1329,
      "velocity": 124,
      "chip": "ym2612"
    },
    {
      "channel": 4,
      "note": 35,
      "start": 109.0481,
      "duration": 0.0824,
      "velocity": 108,
      "chip": "ym2612"
    },
    {
      "channel": 5,
      "note": 35,
      "start": 109.1147,
      "duration": 0.0826,
      "velocity": 108,
      "chip": "ym2612"
    },
    {
      "channel": 0,
      "note": 34,
      "start": 109.1789,
      "duration": 0.1479,
      "velocity": 64,
      "chip": "ym2612"
    },
    {
      "channel": 1,
      "note": 38,
      "start": 109.1795,
      "duration": 0.2802,
      "velocity": 120,
      "chip": "ym2612"
    },
    {
      "channel": 2,
      "note": 19,
      "start": 109.1802,
      "duration": 0.1483,
      "velocity": 124,
      "chip": "ym2612"
    },
    {
      "channel": 4,
      "note": 40,
      "start": 109.1815,
      "duration": 0.0815,
      "velocity": 108,
      "chip": "ym2612"
    },
    {
      "channel": 5,
      "note": 40,
      "start": 109.2637,
      "duration": 0.0826,
      "velocity": 108,
      "chip": "ym2612"
    },
    {
      "channel": 0,
      "note": 59,
      "start": 109.3279,
      "duration": 0.082,
      "velocity": 123,
      "chip": "ym2612"
    },
    {
      "channel": 2,
      "note": 31,
      "start": 109.329,
      "duration": 0.1319,
      "velocity": 124,
      "chip": "ym2612"
    },
    {
      "channel": 4,
      "note": 35,
      "start": 109.3302,
      "duration": 0.0817,
      "velocity": 108,
      "chip": "ym2612"
    },
    {
      "channel": 5,
      "note": 35,
      "start": 109.3961,
      "duration": 0.0826,
      "velocity": 108,
      "chip": "ym2612"
    },
    {
      "channel": 1,
      "note": 62,
      "start": 109.4607,
      "duration": 0.1485,
      "velocity": 125,
      "chip": "ym2612"
    },
    {
      "channel": 2,
      "note": 19,
      "start": 109.4614,
      "duration": 0.1479,
      "velocity": 124,
      "chip": "ym2612"
    },
    {
      "channel": 4,
      "note": 38,
      "start": 109.4626,
      "duration": 0.0817,
      "velocity": 108,
      "chip": "ym2612"
    },
    {
      "channel": 5,
      "note": 38,
      "start": 109.5451,
      "duration": 0.0826,
      "velocity": 108,
      "chip": "ym2612"
    },
    {
      "channel": 0,
      "note": 59,
      "start": 109.6087,
      "duration": 0.0826,
      "velocity": 123,
      "chip": "ym2612"
    },
    {
      "channel": 2,
      "note": 19,
      "start": 109.6098,
      "duration": 0.1325,
      "velocity": 124,
      "chip": "ym2612"
    },
    {
      "channel": 4,
      "note": 35,
      "start": 109.611,
      "duration": 0.0823,
      "velocity": 108,
      "chip": "ym2612"
    },
    {
      "channel": 5,
      "note": 35,
      "start": 109.6775,
      "duration": 0.0827,
      "velocity": 108,
      "chip": "ym2612"
    },
    {
      "channel": 1,
      "note": 26,
      "start": 109.7422,
      "duration": 0.5617,
      "velocity": 126,
      "chip": "ym2612"
    },
    {
      "channel": 2,
      "note": 31,
      "start": 109.7428,
      "duration": 0.1486,
      "velocity": 124,
      "chip": "ym2612"
    },
    {
      "channel": 3,
      "note": 49,
      "start": 109.7435,
      "duration": 0.5623,
      "velocity": 108,
      "chip": "ym2612"
    },
    {
      "channel": 4,
      "note": 37,
      "start": 109.7442,
      "duration": 0.0816,
      "velocity": 108,
      "chip": "ym2612"
    },
    {
      "channel": 5,
      "note": 37,
      "start": 109.8266,
      "duration": 0.0826,
      "velocity": 108,
      "chip": "ym2612"
    },
    {
      "channel": 0,
      "note": 34,
      "start": 109.8907,
      "duration": 0.1312,
      "velocity": 64,
      "chip": "ym2612"
    },
    {
      "channel": 2,
      "note": 19,
      "start": 109.8918,
      "duration": 0.1319,
      "velocity": 124,
      "chip": "ym2612"
    },
    {
      "channel": 4,
      "note": 35,
      "start": 109.8931,
      "duration": 0.0817,
      "velocity": 108,
      "chip": "ym2612"
    },
    {
      "channel": 5,
      "note": 35,
      "start": 109.9589,
      "duration": 0.0826,
      "velocity": 108,
      "chip": "ym2612"
    },
    {
      "channel": 0,
      "note": 59,
      "start": 110.0231,
      "duration": 0.0985,
      "velocity": 123,
      "chip": "ym2612"
    },
    {
      "channel": 2,
      "note": 31,
      "start": 110.0243,
      "duration": 0.1477,
      "velocity": 124,
      "chip": "ym2612"
    },
    {
      "channel": 4,
      "note": 38,
      "start": 110.0255,
      "duration": 0.0817,
      "velocity": 108,
      "chip": "ym2612"
    },
    {
      "channel": 5,
      "note": 38,
      "start": 110.1079,
      "duration": 0.0827,
      "velocity": 108,
      "chip": "ym2612"
    },
    {
      "channel": 2,
      "note": 21,
      "start": 110.1724,
      "duration": 0.1327,
      "velocity": 124,
      "chip": "ym2612"
    },
    {
      "channel": 4,
      "note": 47,
      "start": 110.1737,
      "duration": 0.0824,
      "velocity": 108,
      "chip": "ym2612"
    },
    {
      "channel": 5,
      "note": 47,
      "start": 110.2403,
      "duration": 0.0827,
      "velocity": 108,
      "chip": "ym2612"
    },
    {
      "channel": 1,
      "note": 38,
      "start": 110.3049,
      "duration": 0.2803,
      "velocity": 120,
      "chip": "ym2612"
    },
    {
      "channel": 2,
      "note": 23,
      "start": 110.3056,
      "duration": 0.148,
      "velocity": 124,
      "chip": "ym2612"
    },
    {
      "channel": 3,
      "note": 50,
      "start": 110.3063,
      "duration": 0.8438,
      "velocity": 108,
      "chip": "ym2612"
    },
    {
      "channel": 4,
      "note": 37,
      "start": 110.307,
      "duration": 0.0815,
      "velocity": 108,
      "chip": "ym2612"
    },
    {
      "channel": 5,
      "note": 37,
      "start": 110.3893,
      "duration": 0.0826,
      "velocity": 108,
      "chip": "ym2612"
    },
    {
      "channel": 0,
      "note": 59,
      "start": 110.4529,
      "duration": 0.0826,
      "velocity": 123,
      "chip": "ym2612"
    },
    {
      "channel": 2,
      "note": 35,
      "start": 110.454,
      "duration": 0.1325,
      "velocity": 124,
      "chip": "ym2612"
    },
    {
      "channel": 4,
      "note": 35,
      "start": 110.4553,
      "duration": 0.0822,
      "velocity": 108,
      "chip": "ym2612"
    },
    {
      "channel": 5,
      "note": 35,
      "start": 110.5217,
      "duration": 0.0827,
      "velocity": 108,
      "chip": "ym2612"
    },
    {
      "channel": 1,
      "note": 62,
      "start": 110.5863,
      "duration": 0.1485,
      "velocity": 125,
      "chip": "ym2612"
    },
    {
      "channel": 2,
      "note": 23,
      "start": 110.587,
      "duration": 0.1479,
      "velocity": 124,
      "chip": "ym2612"
    },
    {
      "channel": 4,
      "note": 38,
      "start": 110.5882,
      "duration": 0.0817,
      "velocity": 108,
      "chip": "ym2612"
    },
    {
      "channel": 5,
      "note": 38,
      "start": 110.6707,
      "duration": 0.0826,
      "velocity": 108,
      "chip": "ym2612"
    },
    {
      "channel": 0,
      "note": 59,
      "start": 110.7343,
      "duration": 0.0826,
      "velocity": 123,
      "chip": "ym2612"
    },
    {
      "channel": 2,
      "note": 23,
      "start": 110.7354,
      "duration": 0.1325,
      "velocity": 124,
      "chip": "ym2612"
    },
    {
      "channel": 4,
      "note": 35,
      "start": 110.7366,
      "duration": 0.0823,
      "velocity": 108,
      "chip": "ym2612"
    },
    {
      "channel": 5,
      "note": 35,
      "start": 110.8031,
      "duration": 0.0826,
      "velocity": 108,
      "chip": "ym2612"
    },
    {
      "channel": 1,
      "note": 26,
      "start": 110.8677,
      "duration": 0.2805,
      "velocity": 126,
      "chip": "ym2612"
    },
    {
      "channel": 2,
      "note": 35,
      "start": 110.8684,
      "duration": 0.1478,
      "velocity": 124,
      "chip": "ym2612"
    },
    {
      "channel": 4,
      "note": 35,
      "start": 110.8696,
      "duration": 0.0817,
      "velocity": 108,
      "chip": "ym2612"
    },
    {
      "channel": 5,
      "note": 35,
      "start": 110.9521,
      "duration": 0.0826,
      "velocity": 108,
      "chip": "ym2612"
    },
    {
      "channel": 2,
      "note": 23,
      "start": 111.0166,
      "duration": 0.1329,
      "velocity": 124,
      "chip": "ym2612"
    },
    {
      "channel": 4,
      "note": 47,
      "start": 111.0178,
      "duration": 0.0824,
      "velocity": 108,
      "chip": "ym2612"
    },
    {
      "channel": 5,
      "note": 47,
      "start": 111.0844,
      "duration": 0.0826,
      "velocity": 108,
      "chip": "ym2612"
    },
    {
      "channel": 0,
      "note": 59,
      "start": 111.1481,
      "duration": 0.0992,
      "velocity": 123,
      "chip": "ym2612"
    },
    {
      "channel": 1,
      "note": 38,
      "start": 111.1493,
      "duration": 0.281,
      "velocity": 120,
      "chip": "ym2612"
    },
    {
      "channel": 2,
      "note": 23,
      "start": 111.1499,
      "duration": 0.1476,
      "velocity": 124,
      "chip": "ym2612"
    },
    {
      "channel": 3,
      "note": 49,
      "start": 111.1507,
      "duration": 0.8434,
      "velocity": 108,
      "chip": "ym2612"
    },
    {
      "channel": 4,
      "note": 38,
      "start": 111.1514,
      "duration": 0.0814,
      "velocity": 108,
      "chip": "ym2612"
    },
    {
      "channel": 5,
      "note": 38,
      "start": 111.2334,
      "duration": 0.0827,
      "velocity": 108,
      "chip": "ym2612"
    },
    {
      "channel": 2,
      "note": 35,
      "start": 111.298,
      "duration": 0.1329,
      "velocity": 124,
      "chip": "ym2612"
    },
    {
      "channel": 4,
      "note": 35,
      "start": 111.2993,
      "duration": 0.0824,
      "velocity": 108,
      "chip": "ym2612"
    },
    {
      "channel": 5,
      "note": 35,
      "start": 111.3658,
      "duration": 0.0826,
      "velocity": 108,
      "chip": "ym2612"
    },
    {
      "channel": 0,
      "note": 34,
      "start": 111.4301,
      "duration": 0.1479,
      "velocity": 64,
      "chip": "ym2612"
    },
    {
      "channel": 1,
      "note": 38,
      "start": 111.4307,
      "duration": 0.2801,
      "velocity": 120,
      "chip": "ym2612"
    },
    {
      "channel": 2,
      "note": 23,
      "start": 111.4313,
      "duration": 0.1483,
      "velocity": 124,
      "chip": "ym2612"
    },
    {
      "channel": 4,
      "note": 40,
      "start": 111.4326,
      "duration": 0.0815,
      "velocity": 108,
      "chip": "ym2612"
    },
    {
      "channel": 5,
      "note": 40,
      "start": 111.5149,
      "duration": 0.0826,
      "velocity": 108,
      "chip": "ym2612"
    },
    {
      "channel": 0,
      "note": 59,
      "start": 111.579,
      "duration": 0.082,
      "velocity": 123,
      "chip": "ym2612"
    },
    {
      "channel": 2,
      "note": 35,
      "start": 111.5801,
      "duration": 0.1319,
      "velocity": 124,
      "chip": "ym2612"
    },
    {
      "channel": 4,
      "note": 35,
      "start": 111.5814,
      "duration": 0.0817,
      "velocity": 108,
      "chip": "ym2612"
    },
    {
      "channel": 5,
      "note": 35,
      "start": 111.6472,
      "duration": 0.0826,
      "velocity": 108,
      "chip": "ym2612"
    },
    {
      "channel": 1,
      "note": 62,
      "start": 111.7119,
      "duration": 0.1483,
      "velocity": 125,
      "chip": "ym2612"
    },
    {
      "channel": 2,
      "note": 23,
      "start": 111.7126,
      "duration": 0.1478,
      "velocity": 124,
      "chip": "ym2612"
    },
    {
      "channel": 4,
      "note": 38,
      "start": 111.7138,
      "duration": 0.0817,
      "velocity": 108,
      "chip": "ym2612"
    },
    {
      "channel": 5,
      "note": 38,
      "start": 111.7963,
      "duration": 0.0826,
      "velocity": 108,
      "chip": "ym2612"
    },
    {
      "channel": 2,
      "note": 23,
      "start": 111.8608,
      "duration": 0.1327,
      "velocity": 124,
      "chip": "ym2612"
    },
    {
      "channel": 4,
      "note": 35,
      "start": 111.8621,
      "duration": 0.0824,
      "velocity": 108,
      "chip": "ym2612"
    },
    {
      "channel": 5,
      "note": 35,
      "start": 111.9286,
      "duration": 0.0826,
      "velocity": 108,
      "chip": "ym2612"
    },
    {
      "channel": 1,
      "note": 26,
      "start": 111.9933,
      "duration": 0.2811,
      "velocity": 126,
      "chip": "ym2612"
    },
    {
      "channel": 2,
      "note": 35,
      "start": 111.9939,
      "duration": 0.1478,
      "velocity": 124,
      "chip": "ym2612"
    },
    {
      "channel": 3,
      "note": 47,
      "start": 111.9946,
      "duration": 0.563,
      "velocity": 108,
      "chip": "ym2612"
    },
    {
      "channel": 4,
      "note": 37,
      "start": 111.9954,
      "duration": 0.0815,
      "velocity": 108,
      "chip": "ym2612"
    },
    {
      "channel": 5,
      "note": 37,
      "start": 112.0776,
      "duration": 0.0826,
      "velocity": 108,
      "chip": "ym2612"
    },
    {
      "channel": 2,
      "note": 23,
      "start": 112.1422,
      "duration": 0.1335,
      "velocity": 124,
      "chip": "ym2612"
    },
    {
      "channel": 4,
      "note": 35,
      "start": 112.1434,
      "duration": 0.0824,
      "velocity": 108,
      "chip": "ym2612"
    },
    {
      "channel": 5,
      "note": 35,
      "start": 112.21,
      "duration": 0.0827,
      "velocity": 108,
      "chip": "ym2612"
    },
    {
      "channel": 0,
      "note": 22,
      "start": 112.2743,
      "duration": 0.0985,
      "velocity": 64,
      "chip": "ym2612"
    },
    {
      "channel": 1,
      "note": 62,
      "start": 112.2755,
      "duration": 0.1476,
      "velocity": 125,
      "chip": "ym2612"
    },
    {
      "channel": 2,
      "note": 35,
      "start": 112.2762,
      "duration": 0.1471,
      "velocity": 124,
      "chip": "ym2612"
    },
    {
      "channel": 4,
      "note": 38,
      "start": 112.2774,
      "duration": 0.081,
      "velocity": 108,
      "chip": "ym2612"
    },
    {
      "channel": 5,
      "note": 38,
      "start": 112.3591,
      "duration": 0.0826,
      "velocity": 108,
      "chip": "ym2612"
    },
    {
      "channel": 0,
      "note": 34,
      "start": 112.4226,
      "duration": 0.0827,
      "velocity": 64,
      "chip": "ym2612"
    },
    {
      "channel": 2,
      "note": 23,
      "start": 112.4238,
      "duration": 0.1332,
      "velocity": 124,
      "chip": "ym2612"
    },
    {
      "channel": 4,
      "note": 47,
      "start": 112.425,
      "duration": 0.0823,
      "velocity": 108,
      "chip": "ym2612"
    },
    {
      "channel": 5,
      "note": 47,
      "start": 112.4915,
      "duration": 0.0826,
      "velocity": 108,
      "chip": "ym2612"
    },
    {
      "channel": 0,
      "note": 71,
      "start": 112.5556,
      "duration": 0.1479,
      "velocity": 122,
      "chip": "ym2612"
    },
    {
      "channel": 1,
      "note": 38,
      "start": 112.5569,
      "duration": 0.2796,
      "velocity": 120,
      "chip": "ym2612"
    },
    {
      "channel": 2,
      "note": 19,
      "start": 112.5576,
      "duration": 0.1471,
      "velocity": 124,
      "chip": "ym2612"
    },
    {
      "channel": 3,
      "note": 45,
      "start": 112.5582,
      "duration": 0.843,
      "velocity": 108,
      "chip": "ym2612"
    },
    {
      "channel": 4,
      "note": 37,
      "start": 112.5589,
      "duration": 0.0808,
      "velocity": 108,
      "chip": "ym2612"
    },
    {
      "channel": 5,
      "note": 37,
      "start": 112.6404,
      "duration": 0.0826,
      "velocity": 108,
      "chip": "ym2612"
    },
    {
      "channel": 0,
      "note": 71,
      "start": 112.704,
      "duration": 0.0826,
      "velocity": 122,
      "chip": "ym2612"
    },
    {
      "channel": 2,
      "note": 31,
      "start": 112.7051,
      "duration": 0.1327,
      "velocity": 124,
      "chip": "ym2612"
    },
    {
      "channel": 4,
      "note": 35,
      "start": 112.7064,
      "duration": 0.0822,
      "velocity": 108,
      "chip": "ym2612"
    },
    {
      "channel": 5,
      "note": 35,
      "start": 112.7728,
      "duration": 0.0826,
      "velocity": 108,
      "chip": "ym2612"
    },
    {
      "channel": 0,
      "note": 66,
      "start": 112.8364,
      "duration": 0.1485,
      "velocity": 122,
      "chip": "ym2612"
    },
    {
      "channel": 1,
      "note": 62,
      "start": 112.8376,
      "duration": 0.1483,
      "velocity": 125,
      "chip": "ym2612"
    },
    {
      "channel": 2,
      "note": 19,
      "start": 112.8383,
      "duration": 0.1478,
      "velocity": 124,
      "chip": "ym2612"
    },
    {
      "channel": 4,
      "note": 38,
      "start": 112.8395,
      "duration": 0.0815,
      "velocity": 108,
      "chip": "ym2612"
    },
    {
      "channel": 5,
      "note": 38,
      "start": 112.9218,
      "duration": 0.0826,
      "velocity": 108,
      "chip": "ym2612"
    },
    {
      "channel": 0,
      "note": 59,
      "start": 112.9854,
      "duration": 0.0826,
      "velocity": 123,
      "chip": "ym2612"
    },
    {
      "channel": 2,
      "note": 19,
      "start": 112.9866,
      "duration": 0.1327,
      "velocity": 124,
      "chip": "ym2612"
    },
    {
      "channel": 4,
      "note": 35,
      "start": 112.9878,
      "duration": 0.0823,
      "velocity": 108,
      "chip": "ym2612"
    },
    {
      "channel": 5,
      "note": 35,
      "start": 113.0542,
      "duration": 0.0826,
      "velocity": 108,
      "chip": "ym2612"
    },
    {
      "channel": 0,
      "note": 23,
      "start": 113.1178,
      "duration": 0.0992,
      "velocity": 123,
      "chip": "ym2612"
    },
    {
      "channel": 1,
      "note": 26,
      "start": 113.119,
      "duration": 0.2803,
      "velocity": 126,
      "chip": "ym2612"
    },
    {
      "channel": 2,
      "note": 31,
      "start": 113.1197,
      "duration": 0.1478,
      "velocity": 124,
      "chip": "ym2612"
    },
    {
      "channel": 4,
      "note": 35,
      "start": 113.121,
      "duration": 0.0815,
      "velocity": 108,
      "chip": "ym2612"
    },
    {
      "channel": 5,
      "note": 35,
      "start": 113.2032,
      "duration": 0.0826,
      "velocity": 108,
      "chip": "ym2612"
    },
    {
      "channel": 0,
      "note": 35,
      "start": 113.2668,
      "duration": 0.0826,
      "velocity": 123,
      "chip": "ym2612"
    },
    {
      "channel": 2,
      "note": 19,
      "start": 113.2679,
      "duration": 0.1327,
      "velocity": 124,
      "chip": "ym2612"
    },
    {
      "channel": 4,
      "note": 47,
      "start": 113.2692,
      "duration": 0.0823,
      "velocity": 108,
      "chip": "ym2612"
    },
    {
      "channel": 5,
      "note": 47,
      "start": 113.3356,
      "duration": 0.0826,
      "velocity": 108,
      "chip": "ym2612"
    },
    {
      "channel": 0,
      "note": 59,
      "start": 113.3992,
      "duration": 0.0992,
      "velocity": 123,
      "chip": "ym2612"
    },
    {
      "channel": 1,
      "note": 38,
      "start": 113.4004,
      "duration": 0.281,
      "velocity": 120,
      "chip": "ym2612"
    },
    {
      "channel": 2,
      "note": 19,
      "start": 113.401,
      "duration": 0.1476,
      "velocity": 124,
      "chip": "ym2612"
    },
    {
      "channel": 3,
      "note": 43,
      "start": 113.4018,
      "duration": 0.8434,
      "velocity": 108,
      "chip": "ym2612"
    },
    {
      "channel": 4,
      "note": 38,
      "start": 113.4025,
      "duration": 0.0814,
      "velocity": 108,
      "chip": "ym2612"
    },
    {
      "channel": 5,
      "note": 38,
      "start": 113.4846,
      "duration": 0.0826,
      "velocity": 108,
      "chip": "ym2612"
    },
    {
      "channel": 2,
      "note": 31,
      "start": 113.5491,
      "duration": 0.1329,
      "velocity": 124,
      "chip": "ym2612"
    },
    {
      "channel": 4,
      "note": 35,
      "start": 113.5504,
      "duration": 0.0824,
      "velocity": 108,
      "chip": "ym2612"
    },
    {
      "channel": 5,
      "note": 35,
      "start": 113.617,
      "duration": 0.0826,
      "velocity": 108,
      "chip": "ym2612"
    },
    {
      "channel": 0,
      "note": 34,
      "start": 113.6812,
      "duration": 0.1479,
      "velocity": 64,
      "chip": "ym2612"
    },
    {
      "channel": 1,
      "note": 38,
      "start": 113.6818,
      "duration": 0.2802,
      "velocity": 120,
      "chip": "ym2612"
    },
    {
      "channel": 2,
      "note": 19,
      "start": 113.6825,
      "duration": 0.1483,
      "velocity": 124,
      "chip": "ym2612"
    },
    {
      "channel": 4,
      "note": 40,
      "start": 113.6837,
      "duration": 0.0815,
      "velocity": 108,
      "chip": "ym2612"
    },
    {
      "channel": 5,
      "note": 40,
      "start": 113.766,
      "duration": 0.0826,
      "velocity": 108,
      "chip": "ym2612"
    },
    {
      "channel": 0,
      "note": 59,
      "start": 113.8302,
      "duration": 0.082,
      "velocity": 123,
      "chip": "ym2612"
    },
    {
      "channel": 2,
      "note": 31,
      "start": 113.8313,
      "duration": 0.1319,
      "velocity": 124,
      "chip": "ym2612"
    },
    {
      "channel": 4,
      "note": 35,
      "start": 113.8325,
      "duration": 0.0817,
      "velocity": 108,
      "chip": "ym2612"
    },
    {
      "channel": 5,
      "note": 35,
      "start": 113.8984,
      "duration": 0.0826,
      "velocity": 108,
      "chip": "ym2612"
    },
    {
      "channel": 1,
      "note": 62,
      "start": 113.963,
      "duration": 0.1485,
      "velocity": 125,
      "chip": "ym2612"
    },
    {
      "channel": 2,
      "note": 19,
      "start": 113.9637,
      "duration": 0.1479,
      "velocity": 124,
      "chip": "ym2612"
    },
    {
      "channel": 4,
      "note": 38,
      "start": 113.9649,
      "duration": 0.0817,
      "velocity": 108,
      "chip": "ym2612"
    },
    {
      "channel": 5,
      "note": 38,
      "start": 114.0474,
      "duration": 0.0826,
      "velocity": 108,
      "chip": "ym2612"
    },
    {
      "channel": 0,
      "note": 59,
      "start": 114.111,
      "duration": 0.0826,
      "velocity": 123,
      "chip": "ym2612"
    },
    {
      "channel": 2,
      "note": 19,
      "start": 114.1121,
      "duration": 0.1325,
      "velocity": 124,
      "chip": "ym2612"
    },
    {
      "channel": 4,
      "note": 35,
      "start": 114.1133,
      "duration": 0.0823,
      "velocity": 108,
      "chip": "ym2612"
    },
    {
      "channel": 5,
      "note": 35,
      "start": 114.1798,
      "duration": 0.0826,
      "velocity": 108,
      "chip": "ym2612"
    },
    {
      "channel": 1,
      "note": 26,
      "start": 114.2444,
      "duration": 0.5617,
      "velocity": 126,
      "chip": "ym2612"
    },
    {
      "channel": 2,
      "note": 31,
      "start": 114.2451,
      "duration": 0.1485,
      "velocity": 124,
      "chip": "ym2612"
    },
    {
      "channel": 3,
      "note": 42,
      "start": 114.2458,
      "duration": 0.5623,
      "velocity": 108,
      "chip": "ym2612"
    },
    {
      "channel": 4,
      "note": 37,
      "start": 114.2465,
      "duration": 0.0815,
      "velocity": 108,
      "chip": "ym2612"
    },
    {
      "channel": 5,
      "note": 37,
      "start": 114.3288,
      "duration": 0.0826,
      "velocity": 108,
      "chip": "ym2612"
    },
    {
      "channel": 0,
      "note": 34,
      "start": 114.393,
      "duration": 0.1313,
      "velocity": 64,
      "chip": "ym2612"
    },
    {
      "channel": 2,
      "note": 19,
      "start": 114.3941,
      "duration": 0.1319,
      "velocity": 124,
      "chip": "ym2612"
    },
    {
      "channel": 4,
      "note": 35,
      "start": 114.3953,
      "duration": 0.0817,
      "velocity": 108,
      "chip": "ym2612"
    },
    {
      "channel": 5,
      "note": 35,
      "start": 114.4612,
      "duration": 0.0826,
      "velocity": 108,
      "chip": "ym2612"
    },
    {
      "channel": 0,
      "note": 59,
      "start": 114.5254,
      "duration": 0.0986,
      "velocity": 123,
      "chip": "ym2612"
    },
    {
      "channel": 2,
      "note": 31,
      "start": 114.5265,
      "duration": 0.1478,
      "velocity": 124,
      "chip": "ym2612"
    },
    {
      "channel": 4,
      "note": 38,
      "start": 114.5277,
      "duration": 0.0817,
      "velocity": 108,
      "chip": "ym2612"
    },
    {
      "channel": 5,
      "note": 38,
      "start": 114.6102,
      "duration": 0.0826,
      "velocity": 108,
      "chip": "ym2612"
    },
    {
      "channel": 2,
      "note": 21,
      "start": 114.6747,
      "duration": 0.1328,
      "velocity": 124,
      "chip": "ym2612"
    },
    {
      "channel": 4,
      "note": 47,
      "start": 114.676,
      "duration": 0.0824,
      "velocity": 108,
      "chip": "ym2612"
    },
    {
      "channel": 5,
      "note": 47,
      "start": 114.7426,
      "duration": 0.0826,
      "velocity": 108,
      "chip": "ym2612"
    },
    {
      "channel": 1,
      "note": 38,
      "start": 114.8073,
      "duration": 0.2803,
      "velocity": 120,
      "chip": "ym2612"
    },
    {
      "channel": 2,
      "note": 23,
      "start": 114.8079,
      "duration": 0.1479,
      "velocity": 124,
      "chip": "ym2612"
    },
    {
      "channel": 3,
      "note": 42,
      "start": 114.8086,
      "duration": 2.252,
      "velocity": 108,
      "chip": "ym2612"
    },
    {
      "channel": 4,
      "note": 37,
      "start": 114.8093,
      "duration": 0.0816,
      "velocity": 108,
      "chip": "ym2612"
    },
    {
      "channel": 5,
      "note": 37,
      "start": 114.8916,
      "duration": 0.0827,
      "velocity": 108,
      "chip": "ym2612"
    },
    {
      "channel": 0,
      "note": 59,
      "start": 114.9552,
      "duration": 0.0826,
      "velocity": 123,
      "chip": "ym2612"
    },
    {
      "channel": 2,
      "note": 35,
      "start": 114.9563,
      "duration": 0.1325,
      "velocity": 124,
      "chip": "ym2612"
    },
    {
      "channel": 4,
      "note": 35,
      "start": 114.9576,
      "duration": 0.0823,
      "velocity": 108,
      "chip": "ym2612"
    },
    {
      "channel": 5,
      "note": 35,
      "start": 115.024,
      "duration": 0.0826,
      "velocity": 108,
      "chip": "ym2612"
    },
    {
      "channel": 1,
      "note": 62,
      "start": 115.0886,
      "duration": 0.1485,
      "velocity": 125,
      "chip": "ym2612"
    },
    {
      "channel": 2,
      "note": 23,
      "start": 115.0893,
      "duration": 0.1479,
      "velocity": 124,
      "chip": "ym2612"
    },
    {
      "channel": 4,
      "note": 38,
      "start": 115.0906,
      "duration": 0.0817,
      "velocity": 108,
      "chip": "ym2612"
    },
    {
      "channel": 5,
      "note": 38,
      "start": 115.1729,
      "duration": 0.0826,
      "velocity": 108,
      "chip": "ym2612"
    },
    {
      "channel": 0,
      "note": 59,
      "start": 115.2366,
      "duration": 0.0826,
      "velocity": 123,
      "chip": "ym2612"
    },
    {
      "channel": 2,
      "note": 23,
      "start": 115.2377,
      "duration": 0.1325,
      "velocity": 124,
      "chip": "ym2612"
    },
    {
      "channel": 4,
      "note": 35,
      "start": 115.2389,
      "duration": 0.0823,
      "velocity": 108,
      "chip": "ym2612"
    },
    {
      "channel": 5,
      "note": 35,
      "start": 115.3054,
      "duration": 0.0826,
      "velocity": 108,
      "chip": "ym2612"
    },
    {
      "channel": 1,
      "note": 26,
      "start": 115.37,
      "duration": 0.2805,
      "velocity": 126,
      "chip": "ym2612"
    },
    {
      "channel": 2,
      "note": 35,
      "start": 115.3707,
      "duration": 0.1478,
      "velocity": 124,
      "chip": "ym2612"
    },
    {
      "channel": 4,
      "note": 35,
      "start": 115.3719,
      "duration": 0.0817,
      "velocity": 108,
      "chip": "ym2612"
    },
    {
      "channel": 5,
      "note": 35,
      "start": 115.4544,
      "duration": 0.0826,
      "velocity": 108,
      "chip": "ym2612"
    },
    {
      "channel": 2,
      "note": 23,
      "start": 115.5189,
      "duration": 0.1329,
      "velocity": 124,
      "chip": "ym2612"
    },
    {
      "channel": 4,
      "note": 47,
      "start": 115.5201,
      "duration": 0.0824,
      "velocity": 108,
      "chip": "ym2612"
    },
    {
      "channel": 5,
      "note": 47,
      "start": 115.5867,
      "duration": 0.0826,
      "velocity": 108,
      "chip": "ym2612"
    },
    {
      "channel": 0,
      "note": 59,
      "start": 115.6504,
      "duration": 0.0992,
      "velocity": 123,
      "chip": "ym2612"
    },
    {
      "channel": 1,
      "note": 38,
      "start": 115.6516,
      "duration": 0.2809,
      "velocity": 120,
      "chip": "ym2612"
    },
    {
      "channel": 2,
      "note": 23,
      "start": 115.6522,
      "duration": 0.1476,
      "velocity": 124,
      "chip": "ym2612"
    },
    {
      "channel": 4,
      "note": 38,
      "start": 115.6535,
      "duration": 0.0816,
      "velocity": 108,
      "chip": "ym2612"
    },
    {
      "channel": 5,
      "note": 38,
      "start": 115.7357,
      "duration": 0.0826,
      "velocity": 108,
      "chip": "ym2612"
    },
    {
      "channel": 2,
      "note": 35,
      "start": 115.8003,
      "duration": 0.1328,
      "velocity": 124,
      "chip": "ym2612"
    },
    {
      "channel": 4,
      "note": 35,
      "start": 115.8015,
      "duration": 0.0824,
      "velocity": 108,
      "chip": "ym2612"
    },
    {
      "channel": 5,
      "note": 35,
      "start": 115.8681,
      "duration": 0.0826,
      "velocity": 108,
      "chip": "ym2612"
    },
    {
      "channel": 0,
      "note": 34,
      "start": 115.9324,
      "duration": 0.1478,
      "velocity": 64,
      "chip": "ym2612"
    },
    {
      "channel": 1,
      "note": 38,
      "start": 115.933,
      "duration": 0.2801,
      "velocity": 120,
      "chip": "ym2612"
    },
    {
      "channel": 2,
      "note": 23,
      "start": 115.9336,
      "duration": 0.1483,
      "velocity": 124,
      "chip": "ym2612"
    },
    {
      "channel": 4,
      "note": 40,
      "start": 115.9348,
      "duration": 0.0816,
      "velocity": 108,
      "chip": "ym2612"
    },
    {
      "channel": 5,
      "note": 40,
      "start": 116.0171,
      "duration": 0.0826,
      "velocity": 108,
      "chip": "ym2612"
    },
    {
      "channel": 0,
      "note": 59,
      "start": 116.0813,
      "duration": 0.082,
      "velocity": 123,
      "chip": "ym2612"
    },
    {
      "channel": 2,
      "note": 35,
      "start": 116.0824,
      "duration": 0.132,
      "velocity": 124,
      "chip": "ym2612"
    },
    {
      "channel": 4,
      "note": 35,
      "start": 116.0837,
      "duration": 0.0817,
      "velocity": 108,
      "chip": "ym2612"
    },
    {
      "channel": 5,
      "note": 35,
      "start": 116.1495,
      "duration": 0.0826,
      "velocity": 108,
      "chip": "ym2612"
    },
    {
      "channel": 1,
      "note": 62,
      "start": 116.2141,
      "duration": 0.1483,
      "velocity": 125,
      "chip": "ym2612"
    },
    {
      "channel": 2,
      "note": 23,
      "start": 116.2149,
      "duration": 0.1478,
      "velocity": 124,
      "chip": "ym2612"
    },
    {
      "channel": 4,
      "note": 38,
      "start": 116.2161,
      "duration": 0.0817,
      "velocity": 108,
      "chip": "ym2612"
    },
    {
      "channel": 5,
      "note": 38,
      "start": 116.2985,
      "duration": 0.0826,
      "velocity": 108,
      "chip": "ym2612"
    },
    {
      "channel": 2,
      "note": 23,
      "start": 116.3631,
      "duration": 0.1327,
      "velocity": 124,
      "chip": "ym2612"
    },
    {
      "channel": 4,
      "note": 35,
      "start": 116.3644,
      "duration": 0.0824,
      "velocity": 108,
      "chip": "ym2612"
    },
    {
      "channel": 5,
      "note": 35,
      "start": 116.4309,
      "duration": 0.0826,
      "velocity": 108,
      "chip": "ym2612"
    },
    {
      "channel": 1,
      "note": 26,
      "start": 116.4956,
      "duration": 0.281,
      "velocity": 126,
      "chip": "ym2612"
    },
    {
      "channel": 2,
      "note": 35,
      "start": 116.4962,
      "duration": 0.1478,
      "velocity": 124,
      "chip": "ym2612"
    },
    {
      "channel": 4,
      "note": 37,
      "start": 116.4975,
      "duration": 0.0817,
      "velocity": 108,
      "chip": "ym2612"
    },
    {
      "channel": 5,
      "note": 37,
      "start": 116.5799,
      "duration": 0.0826,
      "velocity": 108,
      "chip": "ym2612"
    },
    {
      "channel": 2,
      "note": 23,
      "start": 116.6444,
      "duration": 0.1334,
      "velocity": 124,
      "chip": "ym2612"
    },
    {
      "channel": 4,
      "note": 35,
      "start": 116.6457,
      "duration": 0.0824,
      "velocity": 108,
      "chip": "ym2612"
    },
    {
      "channel": 5,
      "note": 35,
      "start": 116.7123,
      "duration": 0.0826,
      "velocity": 108,
      "chip": "ym2612"
    },
    {
      "channel": 0,
      "note": 22,
      "start": 116.7765,
      "duration": 0.0986,
      "velocity": 64,
      "chip": "ym2612"
    },
    {
      "channel": 1,
      "note": 62,
      "start": 116.7777,
      "duration": 0.1477,
      "velocity": 125,
      "chip": "ym2612"
    },
    {
      "channel": 2,
      "note": 35,
      "start": 116.7784,
      "duration": 0.1471,
      "velocity": 124,
      "chip": "ym2612"
    },
    {
      "channel": 4,
      "note": 38,
      "start": 116.7796,
      "duration": 0.081,
      "velocity": 108,
      "chip": "ym2612"
    },
    {
      "channel": 5,
      "note": 38,
      "start": 116.8614,
      "duration": 0.0826,
      "velocity": 108,
      "chip": "ym2612"
    },
    {
      "channel": 0,
      "note": 34,
      "start": 116.9249,
      "duration": 0.0827,
      "velocity": 64,
      "chip": "ym2612"
    },
    {
      "channel": 2,
      "note": 23,
      "start": 116.9261,
      "duration": 0.1332,
      "velocity": 124,
      "chip": "ym2612"
    },
    {
      "channel": 4,
      "note": 47,
      "start": 116.9273,
      "duration": 0.0823,
      "velocity": 108,
      "chip": "ym2612"
    },
    {
      "channel": 5,
      "note": 47,
      "start": 116.9937,
      "duration": 0.0688,
      "velocity": 108,
      "chip": "ym2612"
    },
    {
      "channel": 0,
      "note": 38,
      "start": 117.0579,
      "duration": 0.2803,
      "velocity": 120,
      "chip": "ym2612"
    },
    {
      "channel": 1,
      "note": 23,
      "start": 117.0591,
      "duration": 4.5012,
      "velocity": 122,
      "chip": "ym2612"
    },
    {
      "channel": 2,
      "note": 30,
      "start": 117.0604,
      "duration": 2.2493,
      "velocity": 108,
      "chip": "ym2612"
    },
    {
      "channel": 3,
      "note": 23,
      "start": 117.0617,
      "duration": 0.1625,
      "velocity": 124,
      "chip": "ym2612"
    },
    {
      "channel": 4,
      "note": 37,
      "start": 117.0624,
      "duration": 0.0796,
      "velocity": 108,
      "chip": "ym2612"
    },
    {
      "channel": 5,
      "note": 71,
      "start": 117.0636,
      "duration": 0.1449,
      "velocity": 120,
      "chip": "ym2612"
    },
    {
      "channel": 4,
      "note": 35,
      "start": 117.2084,
      "duration": 0.0826,
      "velocity": 108,
      "chip": "ym2612"
    },
    {
      "channel": 5,
      "note": 71,
      "start": 117.2096,
      "duration": 0.1323,
      "velocity": 120,
      "chip": "ym2612"
    },
    {
      "channel": 0,
      "note": 62,
      "start": 117.3393,
      "duration": 0.1483,
      "velocity": 125,
      "chip": "ym2612"
    },
    {
      "channel": 3,
      "note": 23,
      "start": 117.3409,
      "duration": 0.1646,
      "velocity": 124,
      "chip": "ym2612"
    },
    {
      "channel": 4,
      "note": 38,
      "start": 117.3417,
      "duration": 0.0817,
      "velocity": 108,
      "chip": "ym2612"
    },
    {
      "channel": 5,
      "note": 71,
      "start": 117.3429,
      "duration": 0.1471,
      "velocity": 120,
      "chip": "ym2612"
    },
    {
      "channel": 4,
      "note": 35,
      "start": 117.4898,
      "duration": 0.0825,
      "velocity": 108,
      "chip": "ym2612"
    },
    {
      "channel": 5,
      "note": 47,
      "start": 117.491,
      "duration": 0.1322,
      "velocity": 124,
      "chip": "ym2612"
    },
    {
      "channel": 0,
      "note": 26,
      "start": 117.6207,
      "duration": 0.2803,
      "velocity": 126,
      "chip": "ym2612"
    },
    {
      "channel": 3,
      "note": 23,
      "start": 117.6224,
      "duration": 0.1646,
      "velocity": 124,
      "chip": "ym2612"
    },
    {
      "channel": 4,
      "note": 35,
      "start": 117.6231,
      "duration": 0.0817,
      "velocity": 108,
      "chip": "ym2612"
    },
    {
      "channel": 5,
      "note": 71,
      "start": 117.6243,
      "duration": 0.147,
      "velocity": 120,
      "chip": "ym2612"
    },
    {
      "channel": 4,
      "note": 47,
      "start": 117.7711,
      "duration": 0.0826,
      "velocity": 108,
      "chip": "ym2612"
    },
    {
      "channel": 5,
      "note": 71,
      "start": 117.7723,
      "duration": 0.1323,
      "velocity": 120,
      "chip": "ym2612"
    },
    {
      "channel": 0,
      "note": 38,
      "start": 117.9021,
      "duration": 0.2803,
      "velocity": 120,
      "chip": "ym2612"
    },
    {
      "channel": 3,
      "note": 23,
      "start": 117.9037,
      "duration": 0.0984,
      "velocity": 124,
      "chip": "ym2612"
    },
    {
      "channel": 4,
      "note": 38,
      "start": 117.9044,
      "duration": 0.0817,
      "velocity": 108,
      "chip": "ym2612"
    },
    {
      "channel": 5,
      "note": 71,
      "start": 117.9056,
      "duration": 0.1471,
      "velocity": 120,
      "chip": "ym2612"
    },
    {
      "channel": 3,
      "note": 23,
      "start": 118.052,
      "duration": 0.0826,
      "velocity": 124,
      "chip": "ym2612"
    },
    {
      "channel": 4,
      "note": 35,
      "start": 118.0527,
      "duration": 0.0825,
      "velocity": 108,
      "chip": "ym2612"
    },
    {
      "channel": 5,
      "note": 71,
      "start": 118.0539,
      "duration": 0.1315,
      "velocity": 120,
      "chip": "ym2612"
    },
    {
      "channel": 0,
      "note": 38,
      "start": 118.1829,
      "duration": 0.2809,
      "velocity": 120,
      "chip": "ym2612"
    },
    {
      "channel": 3,
      "note": 23,
      "start": 118.1845,
      "duration": 0.1652,
      "velocity": 124,
      "chip": "ym2612"
    },
    {
      "channel": 4,
      "note": 40,
      "start": 118.1853,
      "duration": 0.0822,
      "velocity": 108,
      "chip": "ym2612"
    },
    {
      "channel": 5,
      "note": 71,
      "start": 118.1864,
      "duration": 0.1476,
      "velocity": 120,
      "chip": "ym2612"
    },
    {
      "channel": 4,
      "note": 35,
      "start": 118.3339,
      "duration": 0.0826,
      "velocity": 108,
      "chip": "ym2612"
    },
    {
      "channel": 5,
      "note": 71,
      "start": 118.3351,
      "duration": 0.1323,
      "velocity": 120,
      "chip": "ym2612"
    },
    {
      "channel": 0,
      "note": 62,
      "start": 118.4649,
      "duration": 0.1483,
      "velocity": 125,
      "chip": "ym2612"
    },
    {
      "channel": 3,
      "note": 23,
      "start": 118.4665,
      "duration": 0.1646,
      "velocity": 124,
      "chip": "ym2612"
    },
    {
      "channel": 4,
      "note": 38,
      "start": 118.4672,
      "duration": 0.0817,
      "velocity": 108,
      "chip": "ym2612"
    },
    {
      "channel": 5,
      "note": 71,
      "start": 118.4684,
      "duration": 0.1471,
      "velocity": 120,
      "chip": "ym2612"
    },
    {
      "channel": 4,
      "note": 35,
      "start": 118.6153,
      "duration": 0.0826,
      "velocity": 108,
      "chip": "ym2612"
    },
    {
      "channel": 5,
      "note": 71,
      "start": 118.6165,
      "duration": 0.1322,
      "velocity": 120,
      "chip": "ym2612"
    },
    {
      "channel": 0,
      "note": 26,
      "start": 118.7463,
      "duration": 0.5617,
      "velocity": 126,
      "chip": "ym2612"
    },
    {
      "channel": 3,
      "note": 23,
      "start": 118.7479,
      "duration": 0.1646,
      "velocity": 124,
      "chip": "ym2612"
    },
    {
      "channel": 4,
      "note": 37,
      "start": 118.7486,
      "duration": 0.0817,
      "velocity": 108,
      "chip": "ym2612"
    },
    {
      "channel": 5,
      "note": 71,
      "start": 118.7498,
      "duration": 0.147,
      "velocity": 120,
      "chip": "ym2612"
    },
    {
      "channel": 4,
      "note": 35,
      "start": 118.8967,
      "duration": 0.0826,
      "velocity": 108,
      "chip": "ym2612"
    },
    {
      "channel": 5,
      "note": 71,
      "start": 118.8979,
      "duration": 0.1315,
      "velocity": 120,
      "chip": "ym2612"
    },
    {
      "channel": 3,
      "note": 23,
      "start": 119.0285,
      "duration": 0.1654,
      "velocity": 124,
      "chip": "ym2612"
    },
    {
      "channel": 4,
      "note": 38,
      "start": 119.0292,
      "duration": 0.0825,
      "velocity": 108,
      "chip": "ym2612"
    },
    {
      "channel": 5,
      "note": 71,
      "start": 119.0305,
      "duration": 0.1478,
      "velocity": 120,
      "chip": "ym2612"
    },
    {
      "channel": 4,
      "note": 47,
      "start": 119.1781,
      "duration": 0.0826,
      "velocity": 108,
      "chip": "ym2612"
    },
    {
      "channel": 5,
      "note": 71,
      "start": 119.1792,
      "duration": 0.1324,
      "velocity": 120,
      "chip": "ym2612"
    },
    {
      "channel": 0,
      "note": 38,
      "start": 119.3091,
      "duration": 0.2803,
      "velocity": 120,
      "chip": "ym2612"
    },
    {
      "channel": 2,
      "note": 28,
      "start": 119.3102,
      "duration": 2.2508,
      "velocity": 108,
      "chip": "ym2612"
    },
    {
      "channel": 3,
      "note": 23,
      "start": 119.3108,
      "duration": 0.1644,
      "velocity": 124,
      "chip": "ym2612"
    },
    {
      "channel": 4,
      "note": 35,
      "start": 119.3115,
      "duration": 0.0816,
      "velocity": 108,
      "chip": "ym2612"
    },
    {
      "channel": 5,
      "note": 71,
      "start": 119.3128,
      "duration": 0.1469,
      "velocity": 120,
      "chip": "ym2612"
    },
    {
      "channel": 4,
      "note": 33,
      "start": 119.4595,
      "duration": 0.0826,
      "velocity": 108,
      "chip": "ym2612"
    },
    {
      "channel": 5,
      "note": 71,
      "start": 119.4607,
      "duration": 0.1323,
      "velocity": 120,
      "chip": "ym2612"
    },
    {
      "channel": 0,
      "note": 62,
      "start": 119.5905,
      "duration": 0.1482,
      "velocity": 125,
      "chip": "ym2612"
    },
    {
      "channel": 3,
      "note": 23,
      "start": 119.5922,
      "duration": 0.1646,
      "velocity": 124,
      "chip": "ym2612"
    },
    {
      "channel": 4,
      "note": 36,
      "start": 119.5929,
      "duration": 0.0817,
      "velocity": 108,
      "chip": "ym2612"
    },
    {
      "channel": 5,
      "note": 71,
      "start": 119.594,
      "duration": 0.1471,
      "velocity": 120,
      "chip": "ym2612"
    },
    {
      "channel": 4,
      "note": 33,
      "start": 119.7409,
      "duration": 0.0826,
      "velocity": 108,
      "chip": "ym2612"
    },
    {
      "channel": 5,
      "note": 47,
      "start": 119.7422,
      "duration": 0.1322,
      "velocity": 124,
      "chip": "ym2612"
    },
    {
      "channel": 0,
      "note": 26,
      "start": 119.8719,
      "duration": 0.2803,
      "velocity": 126,
      "chip": "ym2612"
    },
    {
      "channel": 3,
      "note": 23,
      "start": 119.8735,
      "duration": 0.1646,
      "velocity": 124,
      "chip": "ym2612"
    },
    {
      "channel": 4,
      "note": 33,
      "start": 119.8743,
      "duration": 0.0816,
      "velocity": 108,
      "chip": "ym2612"
    },
    {
      "channel": 5,
      "note": 71,
      "start": 119.8754,
      "duration": 0.1469,
      "velocity": 120,
      "chip": "ym2612"
    },
    {
      "channel": 4,
      "note": 45,
      "start": 120.0222,
      "duration": 0.0826,
      "velocity": 108,
      "chip": "ym2612"
    },
    {
      "channel": 5,
      "note": 71,
      "start": 120.0235,
      "duration": 0.1322,
      "velocity": 120,
      "chip": "ym2612"
    },
    {
      "channel": 0,
      "note": 38,
      "start": 120.1532,
      "duration": 0.2803,
      "velocity": 120,
      "chip": "ym2612"
    },
    {
      "channel": 3,
      "note": 23,
      "start": 120.1549,
      "duration": 0.1646,
      "velocity": 124,
      "chip": "ym2612"
    },
    {
      "channel": 4,
      "note": 36,
      "start": 120.1556,
      "duration": 0.0817,
      "velocity": 108,
      "chip": "ym2612"
    },
    {
      "channel": 5,
      "note": 71,
      "start": 120.1568,
      "duration": 0.147,
      "velocity": 120,
      "chip": "ym2612"
    },
    {
      "channel": 4,
      "note": 33,
      "start": 120.3037,
      "duration": 0.0826,
      "velocity": 108,
      "chip": "ym2612"
    },
    {
      "channel": 5,
      "note": 71,
      "start": 120.3048,
      "duration": 0.1317,
      "velocity": 120,
      "chip": "ym2612"
    },
    {
      "channel": 0,
      "note": 38,
      "start": 120.434,
      "duration": 0.2809,
      "velocity": 120,
      "chip": "ym2612"
    },
    {
      "channel": 3,
      "note": 23,
      "start": 120.4357,
      "duration": 0.1652,
      "velocity": 124,
      "chip": "ym2612"
    },
    {
      "channel": 4,
      "note": 38,
      "start": 120.4363,
      "duration": 0.0823,
      "velocity": 108,
      "chip": "ym2612"
    },
    {
      "channel": 5,
      "note": 71,
      "start": 120.4376,
      "duration": 0.1476,
      "velocity": 120,
      "chip": "ym2612"
    },
    {
      "channel": 4,
      "note": 33,
      "start": 120.585,
      "duration": 0.0826,
      "velocity": 108,
      "chip": "ym2612"
    },
    {
      "channel": 5,
      "note": 71,
      "start": 120.5862,
      "duration": 0.1322,
      "velocity": 120,
      "chip": "ym2612"
    },
    {
      "channel": 0,
      "note": 62,
      "start": 120.716,
      "duration": 0.1483,
      "velocity": 125,
      "chip": "ym2612"
    },
    {
      "channel": 3,
      "note": 23,
      "start": 120.7177,
      "duration": 0.1646,
      "velocity": 124,
      "chip": "ym2612"
    },
    {
      "channel": 4,
      "note": 36,
      "start": 120.7184,
      "duration": 0.0817,
      "velocity": 108,
      "chip": "ym2612"
    },
    {
      "channel": 5,
      "note": 71,
      "start": 120.7195,
      "duration": 0.1471,
      "velocity": 120,
      "chip": "ym2612"
    },
    {
      "channel": 4,
      "note": 33,
      "start": 120.8664,
      "duration": 0.0826,
      "velocity": 108,
      "chip": "ym2612"
    },
    {
      "channel": 5,
      "note": 71,
      "start": 120.8677,
      "duration": 0.1322,
      "velocity": 120,
      "chip": "ym2612"
    },
    {
      "channel": 0,
      "note": 26,
      "start": 120.9974,
      "duration": 0.2803,
      "velocity": 126,
      "chip": "ym2612"
    },
    {
      "channel": 3,
      "note": 23,
      "start": 120.9991,
      "duration": 0.1646,
      "velocity": 124,
      "chip": "ym2612"
    },
    {
      "channel": 4,
      "note": 35,
      "start": 120.9998,
      "duration": 0.0817,
      "velocity": 108,
      "chip": "ym2612"
    },
    {
      "channel": 5,
      "note": 71,
      "start": 121.0009,
      "duration": 0.147,
      "velocity": 120,
      "chip": "ym2612"
    },
    {
      "channel": 4,
      "note": 45,
      "start": 121.1478,
      "duration": 0.0827,
      "velocity": 108,
      "chip": "ym2612"
    },
    {
      "channel": 5,
      "note": 71,
      "start": 121.149,
      "duration": 0.1322,
      "velocity": 120,
      "chip": "ym2612"
    },
    {
      "channel": 0,
      "note": 62,
      "start": 121.2788,
      "duration": 0.1482,
      "velocity": 125,
      "chip": "ym2612"
    },
    {
      "channel": 3,
      "note": 23,
      "start": 121.2805,
      "duration": 0.1646,
      "velocity": 124,
      "chip": "ym2612"
    },
    {
      "channel": 4,
      "note": 36,
      "start": 121.2811,
      "duration": 0.0817,
      "velocity": 108,
      "chip": "ym2612"
    },
    {
      "channel": 5,
      "note": 71,
      "start": 121.2823,
      "duration": 0.1471,
      "velocity": 120,
      "chip": "ym2612"
    },
    {
      "channel": 4,
      "note": 33,
      "start": 121.4292,
      "duration": 0.0826,
      "velocity": 108,
      "chip": "ym2612"
    },
    {
      "channel": 5,
      "note": 71,
      "start": 121.4305,
      "duration": 0.1326,
      "velocity": 120,
      "chip": "ym2612"
    },
    {
      "channel": 0,
      "note": 38,
      "start": 121.5602,
      "duration": 0.2803,
      "velocity": 120,
      "chip": "ym2612"
    },
    {
      "channel": 1,
      "note": 23,
      "start": 121.5608,
      "duration": 4.5018,
      "velocity": 122,
      "chip": "ym2612"
    },
    {
      "channel": 2,
      "note": 30,
      "start": 121.5615,
      "duration": 2.2505,
      "velocity": 108,
      "chip": "ym2612"
    },
    {
      "channel": 3,
      "note": 23,
      "start": 121.5622,
      "duration": 0.1643,
      "velocity": 124,
      "chip": "ym2612"
    },
    {
      "channel": 4,
      "note": 37,
      "start": 121.5629,
      "duration": 0.0814,
      "velocity": 108,
      "chip": "ym2612"
    },
    {
      "channel": 5,
      "note": 71,
      "start": 121.5641,
      "duration": 0.1467,
      "velocity": 120,
      "chip": "ym2612"
    },
    {
      "channel": 4,
      "note": 35,
      "start": 121.7107,
      "duration": 0.0826,
      "velocity": 108,
      "chip": "ym2612"
    },
    {
      "channel": 5,
      "note": 71,
      "start": 121.7118,
      "duration": 0.1322,
      "velocity": 120,
      "chip": "ym2612"
    },
    {
      "channel": 0,
      "note": 62,
      "start": 121.8416,
      "duration": 0.1483,
      "velocity": 125,
      "chip": "ym2612"
    },
    {
      "channel": 3,
      "note": 23,
      "start": 121.8432,
      "duration": 0.1646,
      "velocity": 124,
      "chip": "ym2612"
    },
    {
      "channel": 4,
      "note": 38,
      "start": 121.8439,
      "duration": 0.0818,
      "velocity": 108,
      "chip": "ym2612"
    },
    {
      "channel": 5,
      "note": 71,
      "start": 121.8451,
      "duration": 0.1471,
      "velocity": 120,
      "chip": "ym2612"
    },
    {
      "channel": 4,
      "note": 35,
      "start": 121.9921,
      "duration": 0.0826,
      "velocity": 108,
      "chip": "ym2612"
    },
    {
      "channel": 5,
      "note": 47,
      "start": 121.9933,
      "duration": 0.1322,
      "velocity": 124,
      "chip": "ym2612"
    },
    {
      "channel": 0,
      "note": 26,
      "start": 122.123,
      "duration": 0.2803,
      "velocity": 126,
      "chip": "ym2612"
    },
    {
      "channel": 3,
      "note": 23,
      "start": 122.1246,
      "duration": 0.1646,
      "velocity": 124,
      "chip": "ym2612"
    },
    {
      "channel": 4,
      "note": 35,
      "start": 122.1254,
      "duration": 0.0817,
      "velocity": 108,
      "chip": "ym2612"
    },
    {
      "channel": 5,
      "note": 71,
      "start": 122.1266,
      "duration": 0.147,
      "velocity": 120,
      "chip": "ym2612"
    },
    {
      "channel": 4,
      "note": 47,
      "start": 122.2734,
      "duration": 0.0826,
      "velocity": 108,
      "chip": "ym2612"
    },
    {
      "channel": 5,
      "note": 71,
      "start": 122.2746,
      "duration": 0.1323,
      "velocity": 120,
      "chip": "ym2612"
    },
    {
      "channel": 0,
      "note": 38,
      "start": 122.4044,
      "duration": 0.2803,
      "velocity": 120,
      "chip": "ym2612"
    },
    {
      "channel": 3,
      "note": 23,
      "start": 122.406,
      "duration": 0.0984,
      "velocity": 124,
      "chip": "ym2612"
    },
    {
      "channel": 4,
      "note": 38,
      "start": 122.4067,
      "duration": 0.0817,
      "velocity": 108,
      "chip": "ym2612"
    },
    {
      "channel": 5,
      "note": 71,
      "start": 122.4079,
      "duration": 0.1471,
      "velocity": 120,
      "chip": "ym2612"
    },
    {
      "channel": 3,
      "note": 23,
      "start": 122.5542,
      "duration": 0.0826,
      "velocity": 124,
      "chip": "ym2612"
    },
    {
      "channel": 4,
      "note": 35,
      "start": 122.5549,
      "duration": 0.0825,
      "velocity": 108,
      "chip": "ym2612"
    },
    {
      "channel": 5,
      "note": 71,
      "start": 122.5561,
      "duration": 0.1315,
      "velocity": 120,
      "chip": "ym2612"
    },
    {
      "channel": 0,
      "note": 38,
      "start": 122.6851,
      "duration": 0.2809,
      "velocity": 120,
      "chip": "ym2612"
    },
    {
      "channel": 3,
      "note": 23,
      "start": 122.6868,
      "duration": 0.1652,
      "velocity": 124,
      "chip": "ym2612"
    },
    {
      "channel": 4,
      "note": 40,
      "start": 122.6875,
      "duration": 0.0823,
      "velocity": 108,
      "chip": "ym2612"
    },
    {
      "channel": 5,
      "note": 71,
      "start": 122.6887,
      "duration": 0.1476,
      "velocity": 120,
      "chip": "ym2612"
    },
    {
      "channel": 4,
      "note": 35,
      "start": 122.8362,
      "duration": 0.0826,
      "velocity": 108,
      "chip": "ym2612"
    },
    {
      "channel": 5,
      "note": 71,
      "start": 122.8374,
      "duration": 0.1323,
      "velocity": 120,
      "chip": "ym2612"
    },
    {
      "channel": 0,
      "note": 62,
      "start": 122.9671,
      "duration": 0.1482,
      "velocity": 125,
      "chip": "ym2612"
    },
    {
      "channel": 3,
      "note": 23,
      "start": 122.9688,
      "duration": 0.1646,
      "velocity": 124,
      "chip": "ym2612"
    },
    {
      "channel": 4,
      "note": 38,
      "start": 122.9695,
      "duration": 0.0817,
      "velocity": 108,
      "chip": "ym2612"
    },
    {
      "channel": 5,
      "note": 71,
      "start": 122.9707,
      "duration": 0.1471,
      "velocity": 120,
      "chip": "ym2612"
    },
    {
      "channel": 4,
      "note": 35,
      "start": 123.1176,
      "duration": 0.0826,
      "velocity": 108,
      "chip": "ym2612"
    },
    {
      "channel": 5,
      "note": 71,
      "start": 123.1188,
      "duration": 0.1322,
      "velocity": 120,
      "chip": "ym2612"
    },
    {
      "channel": 0,
      "note": 26,
      "start": 123.2486,
      "duration": 0.5616,
      "velocity": 126,
      "chip": "ym2612"
    },
    {
      "channel": 3,
      "note": 23,
      "start": 123.2502,
      "duration": 0.1646,
      "velocity": 124,
      "chip": "ym2612"
    },
    {
      "channel": 4,
      "note": 37,
      "start": 123.2509,
      "duration": 0.0817,
      "velocity": 108,
      "chip": "ym2612"
    },
    {
      "channel": 5,
      "note": 71,
      "start": 123.2521,
      "duration": 0.147,
      "velocity": 120,
      "chip": "ym2612"
    },
    {
      "channel": 4,
      "note": 35,
      "start": 123.399,
      "duration": 0.0826,
      "velocity": 108,
      "chip": "ym2612"
    },
    {
      "channel": 5,
      "note": 71,
      "start": 123.4002,
      "duration": 0.1315,
      "velocity": 120,
      "chip": "ym2612"
    },
    {
      "channel": 3,
      "note": 23,
      "start": 123.5308,
      "duration": 0.1654,
      "velocity": 124,
      "chip": "ym2612"
    },
    {
      "channel": 4,
      "note": 38,
      "start": 123.5315,
      "duration": 0.0824,
      "velocity": 108,
      "chip": "ym2612"
    },
    {
      "channel": 5,
      "note": 71,
      "start": 123.5327,
      "duration": 0.1478,
      "velocity": 120,
      "chip": "ym2612"
    },
    {
      "channel": 4,
      "note": 47,
      "start": 123.6804,
      "duration": 0.0826,
      "velocity": 108,
      "chip": "ym2612"
    },
    {
      "channel": 5,
      "note": 71,
      "start": 123.6815,
      "duration": 0.1324,
      "velocity": 120,
      "chip": "ym2612"
    },
    {
      "channel": 0,
      "note": 38,
      "start": 123.8114,
      "duration": 0.2803,
      "velocity": 120,
      "chip": "ym2612"
    },
    {
      "channel": 2,
      "note": 28,
      "start": 123.8125,
      "duration": 2.2508,
      "velocity": 108,
      "chip": "ym2612"
    },
    {
      "channel": 3,
      "note": 23,
      "start": 123.8131,
      "duration": 0.1644,
      "velocity": 124,
      "chip": "ym2612"
    },
    {
      "channel": 4,
      "note": 35,
      "start": 123.8138,
      "duration": 0.0816,
      "velocity": 108,
      "chip": "ym2612"
    },
    {
      "channel": 5,
      "note": 71,
      "start": 123.8151,
      "duration": 0.1468,
      "velocity": 120,
      "chip": "ym2612"
    },
    {
      "channel": 4,
      "note": 33,
      "start": 123.9617,
      "duration": 0.0826,
      "velocity": 108,
      "chip": "ym2612"
    },
    {
      "channel": 5,
      "note": 71,
      "start": 123.9629,
      "duration": 0.1322,
      "velocity": 120,
      "chip": "ym2612"
    },
    {
      "channel": 0,
      "note": 62,
      "start": 124.0927,
      "duration": 0.1482,
      "velocity": 125,
      "chip": "ym2612"
    },
    {
      "channel": 3,
      "note": 23,
      "start": 124.0944,
      "duration": 0.1646,
      "velocity": 124,
      "chip": "ym2612"
    },
    {
      "channel": 4,
      "note": 36,
      "start": 124.0951,
      "duration": 0.0817,
      "velocity": 108,
      "chip": "ym2612"
    },
    {
      "channel": 5,
      "note": 71,
      "start": 124.0962,
      "duration": 0.1471,
      "velocity": 120,
      "chip": "ym2612"
    },
    {
      "channel": 4,
      "note": 33,
      "start": 124.2432,
      "duration": 0.0826,
      "velocity": 108,
      "chip": "ym2612"
    },
    {
      "channel": 5,
      "note": 47,
      "start": 124.2444,
      "duration": 0.1322,
      "velocity": 124,
      "chip": "ym2612"
    },
    {
      "channel": 0,
      "note": 26,
      "start": 124.3741,
      "duration": 0.2803,
      "velocity": 126,
      "chip": "ym2612"
    },
    {
      "channel": 3,
      "note": 23,
      "start": 124.3758,
      "duration": 0.1646,
      "velocity": 124,
      "chip": "ym2612"
    },
    {
      "channel": 4,
      "note": 33,
      "start": 124.3765,
      "duration": 0.0817,
      "velocity": 108,
      "chip": "ym2612"
    },
    {
      "channel": 5,
      "note": 71,
      "start": 124.3777,
      "duration": 0.147,
      "velocity": 120,
      "chip": "ym2612"
    },
    {
      "channel": 4,
      "note": 45,
      "start": 124.5246,
      "duration": 0.0826,
      "velocity": 108,
      "chip": "ym2612"
    },
    {
      "channel": 5,
      "note": 71,
      "start": 124.5257,
      "duration": 0.1323,
      "velocity": 120,
      "chip": "ym2612"
    },
    {
      "channel": 0,
      "note": 38,
      "start": 124.6555,
      "duration": 0.2803,
      "velocity": 120,
      "chip": "ym2612"
    },
    {
      "channel": 3,
      "note": 23,
      "start": 124.6572,
      "duration": 0.1646,
      "velocity": 124,
      "chip": "ym2612"
    },
    {
      "channel": 4,
      "note": 36,
      "start": 124.6579,
      "duration": 0.0816,
      "velocity": 108,
      "chip": "ym2612"
    },
    {
      "channel": 5,
      "note": 71,
      "start": 124.6591,
      "duration": 0.147,
      "velocity": 120,
      "chip": "ym2612"
    },
    {
      "channel": 4,
      "note": 33,
      "start": 124.8059,
      "duration": 0.0826,
      "velocity": 108,
      "chip": "ym2612"
    },
    {
      "channel": 5,
      "note": 71,
      "start": 124.8072,
      "duration": 0.1316,
      "velocity": 120,
      "chip": "ym2612"
    },
    {
      "channel": 0,
      "note": 38,
      "start": 124.9363,
      "duration": 0.2809,
      "velocity": 120,
      "chip": "ym2612"
    },
    {
      "channel": 3,
      "note": 23,
      "start": 124.938,
      "duration": 0.1652,
      "velocity": 124,
      "chip": "ym2612"
    },
    {
      "channel": 4,
      "note": 38,
      "start": 124.9386,
      "duration": 0.0823,
      "velocity": 108,
      "chip": "ym2612"
    },
    {
      "channel": 5,
      "note": 71,
      "start": 124.9399,
      "duration": 0.1476,
      "velocity": 120,
      "chip": "ym2612"
    },
    {
      "channel": 4,
      "note": 33,
      "start": 125.0873,
      "duration": 0.0826,
      "velocity": 108,
      "chip": "ym2612"
    },
    {
      "channel": 5,
      "note": 71,
      "start": 125.0885,
      "duration": 0.1322,
      "velocity": 120,
      "chip": "ym2612"
    },
    {
      "channel": 0,
      "note": 62,
      "start": 125.2183,
      "duration": 0.1482,
      "velocity": 125,
      "chip": "ym2612"
    },
    {
      "channel": 3,
      "note": 23,
      "start": 125.22,
      "duration": 0.1646,
      "velocity": 124,
      "chip": "ym2612"
    },
    {
      "channel": 4,
      "note": 36,
      "start": 125.2207,
      "duration": 0.0817,
      "velocity": 108,
      "chip": "ym2612"
    },
    {
      "channel": 5,
      "note": 71,
      "start": 125.2218,
      "duration": 0.1471,
      "velocity": 120,
      "chip": "ym2612"
    },
    {
      "channel": 4,
      "note": 33,
      "start": 125.3687,
      "duration": 0.0826,
      "velocity": 108,
      "chip": "ym2612"
    },
    {
      "channel": 5,
      "note": 71,
      "start": 125.37,
      "duration": 0.1322,
      "velocity": 120,
      "chip": "ym2612"
    },
    {
      "channel": 0,
      "note": 26,
      "start": 125.4997,
      "duration": 0.2803,
      "velocity": 126,
      "chip": "ym2612"
    },
    {
      "channel": 3,
      "note": 23,
      "start": 125.5014,
      "duration": 0.1646,
      "velocity": 124,
      "chip": "ym2612"
    },
    {
      "channel": 4,
      "note": 35,
      "start": 125.5021,
      "duration": 0.0817,
      "velocity": 108,
      "chip": "ym2612"
    },
    {
      "channel": 5,
      "note": 71,
      "start": 125.5032,
      "duration": 0.147,
      "velocity": 120,
      "chip": "ym2612"
    },
    {
      "channel": 4,
      "note": 45,
      "start": 125.6501,
      "duration": 0.0827,
      "velocity": 108,
      "chip": "ym2612"
    },
    {
      "channel": 5,
      "note": 71,
      "start": 125.6513,
      "duration": 0.1322,
      "velocity": 120,
      "chip": "ym2612"
    },
    {
      "channel": 0,
      "note": 62,
      "start": 125.7811,
      "duration": 0.1482,
      "velocity": 125,
      "chip": "ym2612"
    },
    {
      "channel": 3,
      "note": 23,
      "start": 125.7827,
      "duration": 0.1646,
      "velocity": 124,
      "chip": "ym2612"
    },
    {
      "channel": 4,
      "note": 36,
      "start": 125.7834,
      "duration": 0.0817,
      "velocity": 108,
      "chip": "ym2612"
    },
    {
      "channel": 5,
      "note": 71,
      "start": 125.7846,
      "duration": 0.1471,
      "velocity": 120,
      "chip": "ym2612"
    },
    {
      "channel": 4,
      "note": 33,
      "start": 125.9315,
      "duration": 0.0826,
      "velocity": 108,
      "chip": "ym2612"
    },
    {
      "channel": 5,
      "note": 71,
      "start": 125.9327,
      "duration": 0.1337,
      "velocity": 120,
      "chip": "ym2612"
    },
    {
      "channel": 0,
      "note": 38,
      "start": 126.0625,
      "duration": 0.2803,
      "velocity": 120,
      "chip": "ym2612"
    },
    {
      "channel": 1,
      "note": 23,
      "start": 126.0631,
      "duration": 4.5018,
      "velocity": 122,
      "chip": "ym2612"
    },
    {
      "channel": 2,
      "note": 71,
      "start": 126.0644,
      "duration": 0.1469,
      "velocity": 120,
      "chip": "ym2612"
    },
    {
      "channel": 3,
      "note": 23,
      "start": 126.065,
      "duration": 0.1637,
      "velocity": 124,
      "chip": "ym2612"
    },
    {
      "channel": 4,
      "note": 7,
      "start": 126.0662,
      "duration": 2.2499,
      "velocity": 1,
      "chip": "ym2612"
    },
    {
      "channel": 5,
      "note": 7,
      "start": 126.0675,
      "duration": 2.2493,
      "velocity": 1,
      "chip": "ym2612"
    },
    {
      "channel": 2,
      "note": 71,
      "start": 126.2124,
      "duration": 0.1321,
      "velocity": 120,
      "chip": "ym2612"
    },
    {
      "channel": 0,
      "note": 62,
      "start": 126.3439,
      "duration": 0.1482,
      "velocity": 125,
      "chip": "ym2612"
    },
    {
      "channel": 2,
      "note": 71,
      "start": 126.3455,
      "duration": 0.1472,
      "velocity": 120,
      "chip": "ym2612"
    },
    {
      "channel": 3,
      "note": 23,
      "start": 126.3461,
      "duration": 0.1639,
      "velocity": 124,
      "chip": "ym2612"
    },
    {
      "channel": 2,
      "note": 47,
      "start": 126.4938,
      "duration": 0.1321,
      "velocity": 124,
      "chip": "ym2612"
    },
    {
      "channel": 0,
      "note": 26,
      "start": 126.6252,
      "duration": 0.2804,
      "velocity": 126,
      "chip": "ym2612"
    },
    {
      "channel": 2,
      "note": 71,
      "start": 126.6269,
      "duration": 0.1472,
      "velocity": 120,
      "chip": "ym2612"
    },
    {
      "channel": 3,
      "note": 23,
      "start": 126.6276,
      "duration": 0.1639,
      "velocity": 124,
      "chip": "ym2612"
    },
    {
      "channel": 2,
      "note": 71,
      "start": 126.7752,
      "duration": 0.1321,
      "velocity": 120,
      "chip": "ym2612"
    },
    {
      "channel": 0,
      "note": 38,
      "start": 126.9067,
      "duration": 0.2803,
      "velocity": 120,
      "chip": "ym2612"
    },
    {
      "channel": 2,
      "note": 71,
      "start": 126.9084,
      "duration": 0.1471,
      "velocity": 120,
      "chip": "ym2612"
    },
    {
      "channel": 3,
      "note": 23,
      "start": 126.909,
      "duration": 0.0977,
      "velocity": 124,
      "chip": "ym2612"
    },
    {
      "channel": 2,
      "note": 71,
      "start": 127.0566,
      "duration": 0.1314,
      "velocity": 120,
      "chip": "ym2612"
    },
    {
      "channel": 3,
      "note": 23,
      "start": 127.0572,
      "duration": 0.0818,
      "velocity": 124,
      "chip": "ym2612"
    },
    {
      "channel": 0,
      "note": 38,
      "start": 127.1874,
      "duration": 0.2809,
      "velocity": 120,
      "chip": "ym2612"
    },
    {
      "channel": 2,
      "note": 71,
      "start": 127.1891,
      "duration": 0.1478,
      "velocity": 120,
      "chip": "ym2612"
    },
    {
      "channel": 3,
      "note": 23,
      "start": 127.1898,
      "duration": 0.1644,
      "velocity": 124,
      "chip": "ym2612"
    },
    {
      "channel": 2,
      "note": 71,
      "start": 127.338,
      "duration": 0.132,
      "velocity": 120,
      "chip": "ym2612"
    },
    {
      "channel": 0,
      "note": 62,
      "start": 127.4694,
      "duration": 0.1482,
      "velocity": 125,
      "chip": "ym2612"
    },
    {
      "channel": 2,
      "note": 71,
      "start": 127.4711,
      "duration": 0.1472,
      "velocity": 120,
      "chip": "ym2612"
    },
    {
      "channel": 3,
      "note": 23,
      "start": 127.4717,
      "duration": 0.1639,
      "velocity": 124,
      "chip": "ym2612"
    },
    {
      "channel": 2,
      "note": 71,
      "start": 127.6194,
      "duration": 0.1321,
      "velocity": 120,
      "chip": "ym2612"
    },
    {
      "channel": 0,
      "note": 26,
      "start": 127.7508,
      "duration": 0.5617,
      "velocity": 126,
      "chip": "ym2612"
    },
    {
      "channel": 2,
      "note": 71,
      "start": 127.7525,
      "duration": 0.1471,
      "velocity": 120,
      "chip": "ym2612"
    },
    {
      "channel": 3,
      "note": 23,
      "start": 127.7532,
      "duration": 0.1639,
      "velocity": 124,
      "chip": "ym2612"
    },
    {
      "channel": 2,
      "note": 71,
      "start": 127.9007,
      "duration": 0.1314,
      "velocity": 120,
      "chip": "ym2612"
    },
    {
      "channel": 2,
      "note": 71,
      "start": 128.0331,
      "duration": 0.1479,
      "velocity": 120,
      "chip": "ym2612"
    },
    {
      "channel": 3,
      "note": 23,
      "start": 128.0338,
      "duration": 0.1646,
      "velocity": 124,
      "chip": "ym2612"
    },
    {
      "channel": 2,
      "note": 71,
      "start": 128.1821,
      "duration": 0.1321,
      "velocity": 120,
      "chip": "ym2612"
    },
    {
      "channel": 0,
      "note": 38,
      "start": 128.3136,
      "duration": 0.2803,
      "velocity": 120,
      "chip": "ym2612"
    },
    {
      "channel": 2,
      "note": 71,
      "start": 128.3153,
      "duration": 0.1471,
      "velocity": 120,
      "chip": "ym2612"
    },
    {
      "channel": 3,
      "note": 23,
      "start": 128.3159,
      "duration": 0.1639,
      "velocity": 124,
      "chip": "ym2612"
    },
    {
      "channel": 4,
      "note": 7,
      "start": 128.3166,
      "duration": 2.2508,
      "velocity": 1,
      "chip": "ym2612"
    },
    {
      "channel": 5,
      "note": 7,
      "start": 128.3172,
      "duration": 2.2515,
      "velocity": 1,
      "chip": "ym2612"
    },
    {
      "channel": 2,
      "note": 71,
      "start": 128.4635,
      "duration": 0.1321,
      "velocity": 120,
      "chip": "ym2612"
    },
    {
      "channel": 0,
      "note": 62,
      "start": 128.5949,
      "duration": 0.1483,
      "velocity": 125,
      "chip": "ym2612"
    },
    {
      "channel": 2,
      "note": 71,
      "start": 128.5967,
      "duration": 0.1472,
      "velocity": 120,
      "chip": "ym2612"
    },
    {
      "channel": 3,
      "note": 23,
      "start": 128.5973,
      "duration": 0.1639,
      "velocity": 124,
      "chip": "ym2612"
    },
    {
      "channel": 2,
      "note": 47,
      "start": 128.7449,
      "duration": 0.1321,
      "velocity": 124,
      "chip": "ym2612"
    },
    {
      "channel": 0,
      "note": 26,
      "start": 128.8764,
      "duration": 0.2804,
      "velocity": 126,
      "chip": "ym2612"
    },
    {
      "channel": 2,
      "note": 71,
      "start": 128.8781,
      "duration": 0.1471,
      "velocity": 120,
      "chip": "ym2612"
    },
    {
      "channel": 3,
      "note": 23,
      "start": 128.8787,
      "duration": 0.1639,
      "velocity": 124,
      "chip": "ym2612"
    },
    {
      "channel": 2,
      "note": 71,
      "start": 129.0263,
      "duration": 0.1321,
      "velocity": 120,
      "chip": "ym2612"
    },
    {
      "channel": 0,
      "note": 38,
      "start": 129.1579,
      "duration": 0.2803,
      "velocity": 120,
      "chip": "ym2612"
    },
    {
      "channel": 2,
      "note": 71,
      "start": 129.1595,
      "duration": 0.1471,
      "velocity": 120,
      "chip": "ym2612"
    },
    {
      "channel": 3,
      "note": 23,
      "start": 129.1602,
      "duration": 0.1639,
      "velocity": 124,
      "chip": "ym2612"
    },
    {
      "channel": 2,
      "note": 71,
      "start": 129.3077,
      "duration": 0.1314,
      "velocity": 120,
      "chip": "ym2612"
    },
    {
      "channel": 0,
      "note": 38,
      "start": 129.4386,
      "duration": 0.2809,
      "velocity": 120,
      "chip": "ym2612"
    },
    {
      "channel": 2,
      "note": 71,
      "start": 129.4403,
      "duration": 0.1477,
      "velocity": 120,
      "chip": "ym2612"
    },
    {
      "channel": 3,
      "note": 23,
      "start": 129.4409,
      "duration": 0.1644,
      "velocity": 124,
      "chip": "ym2612"
    },
    {
      "channel": 2,
      "note": 71,
      "start": 129.589,
      "duration": 0.1321,
      "velocity": 120,
      "chip": "ym2612"
    },
    {
      "channel": 0,
      "note": 62,
      "start": 129.7205,
      "duration": 0.1483,
      "velocity": 125,
      "chip": "ym2612"
    },
    {
      "channel": 2,
      "note": 71,
      "start": 129.7222,
      "duration": 0.1472,
      "velocity": 120,
      "chip": "ym2612"
    },
    {
      "channel": 3,
      "note": 23,
      "start": 129.7229,
      "duration": 0.1639,
      "velocity": 124,
      "chip": "ym2612"
    },
    {
      "channel": 2,
      "note": 71,
      "start": 129.8705,
      "duration": 0.1321,
      "velocity": 120,
      "chip": "ym2612"
    },
    {
      "channel": 0,
      "note": 26,
      "start": 130.002,
      "duration": 0.2803,
      "velocity": 126,
      "chip": "ym2612"
    },
    {
      "channel": 2,
      "note": 71,
      "start": 130.0037,
      "duration": 0.1471,
      "velocity": 120,
      "chip": "ym2612"
    },
    {
      "channel": 3,
      "note": 23,
      "start": 130.0043,
      "duration": 0.1639,
      "velocity": 124,
      "chip": "ym2612"
    },
    {
      "channel": 2,
      "note": 71,
      "start": 130.1519,
      "duration": 0.1321,
      "velocity": 120,
      "chip": "ym2612"
    },
    {
      "channel": 0,
      "note": 62,
      "start": 130.2834,
      "duration": 0.1482,
      "velocity": 125,
      "chip": "ym2612"
    },
    {
      "channel": 2,
      "note": 71,
      "start": 130.285,
      "duration": 0.1472,
      "velocity": 120,
      "chip": "ym2612"
    },
    {
      "channel": 3,
      "note": 23,
      "start": 130.2857,
      "duration": 0.1639,
      "velocity": 124,
      "chip": "ym2612"
    },
    {
      "channel": 2,
      "note": 71,
      "start": 130.4333,
      "duration": 0.1322,
      "velocity": 120,
      "chip": "ym2612"
    },
    {
      "channel": 0,
      "note": 38,
      "start": 130.5647,
      "duration": 0.2803,
      "velocity": 120,
      "chip": "ym2612"
    },
    {
      "channel": 1,
      "note": 23,
      "start": 130.5654,
      "duration": 4.5018,
      "velocity": 122,
      "chip": "ym2612"
    },
    {
      "channel": 2,
      "note": 71,
      "start": 130.5666,
      "duration": 0.147,
      "velocity": 120,
      "chip": "ym2612"
    },
    {
      "channel": 3,
      "note": 47,
      "start": 130.5673,
      "duration": 0.1475,
      "velocity": 124,
      "chip": "ym2612"
    },
    {
      "channel": 4,
      "note": 23,
      "start": 130.5685,
      "duration": 0.163,
      "velocity": 124,
      "chip": "ym2612"
    },
    {
      "channel": 5,
      "note": 7,
      "start": 130.5692,
      "duration": 2.2499,
      "velocity": 1,
      "chip": "ym2612"
    },
    {
      "channel": 2,
      "note": 71,
      "start": 130.7146,
      "duration": 0.1321,
      "velocity": 120,
      "chip": "ym2612"
    },
    {
      "channel": 3,
      "note": 42,
      "start": 130.7153,
      "duration": 0.1326,
      "velocity": 124,
      "chip": "ym2612"
    },
    {
      "channel": 0,
      "note": 62,
      "start": 130.8461,
      "duration": 0.1483,
      "velocity": 125,
      "chip": "ym2612"
    },
    {
      "channel": 2,
      "note": 71,
      "start": 130.8478,
      "duration": 0.1472,
      "velocity": 120,
      "chip": "ym2612"
    },
    {
      "channel": 3,
      "note": 47,
      "start": 130.8484,
      "duration": 0.1478,
      "velocity": 124,
      "chip": "ym2612"
    },
    {
      "channel": 4,
      "note": 23,
      "start": 130.8491,
      "duration": 0.1637,
      "velocity": 124,
      "chip": "ym2612"
    },
    {
      "channel": 2,
      "note": 47,
      "start": 130.9961,
      "duration": 0.1321,
      "velocity": 124,
      "chip": "ym2612"
    },
    {
      "channel": 3,
      "note": 49,
      "start": 130.9967,
      "duration": 0.1326,
      "velocity": 124,
      "chip": "ym2612"
    },
    {
      "channel": 0,
      "note": 26,
      "start": 131.1275,
      "duration": 0.2804,
      "velocity": 126,
      "chip": "ym2612"
    },
    {
      "channel": 2,
      "note": 71,
      "start": 131.1292,
      "duration": 0.1471,
      "velocity": 120,
      "chip": "ym2612"
    },
    {
      "channel": 3,
      "note": 42,
      "start": 131.1299,
      "duration": 0.1477,
      "velocity": 124,
      "chip": "ym2612"
    },
    {
      "channel": 4,
      "note": 23,
      "start": 131.1305,
      "duration": 0.1637,
      "velocity": 124,
      "chip": "ym2612"
    },
    {
      "channel": 2,
      "note": 71,
      "start": 131.2775,
      "duration": 0.1321,
      "velocity": 120,
      "chip": "ym2612"
    },
    {
      "channel": 3,
      "note": 47,
      "start": 131.2781,
      "duration": 0.1327,
      "velocity": 124,
      "chip": "ym2612"
    },
    {
      "channel": 0,
      "note": 38,
      "start": 131.4089,
      "duration": 0.2803,
      "velocity": 120,
      "chip": "ym2612"
    },
    {
      "channel": 2,
      "note": 71,
      "start": 131.4106,
      "duration": 0.1471,
      "velocity": 120,
      "chip": "ym2612"
    },
    {
      "channel": 3,
      "note": 42,
      "start": 131.4112,
      "duration": 0.1478,
      "velocity": 124,
      "chip": "ym2612"
    },
    {
      "channel": 4,
      "note": 23,
      "start": 131.4119,
      "duration": 0.0975,
      "velocity": 124,
      "chip": "ym2612"
    },
    {
      "channel": 2,
      "note": 71,
      "start": 131.5588,
      "duration": 0.1315,
      "velocity": 120,
      "chip": "ym2612"
    },
    {
      "channel": 3,
      "note": 47,
      "start": 131.5595,
      "duration": 0.1322,
      "velocity": 124,
      "chip": "ym2612"
    },
    {
      "channel": 4,
      "note": 23,
      "start": 131.5601,
      "duration": 0.0818,
      "velocity": 124,
      "chip": "ym2612"
    },
    {
      "channel": 0,
      "note": 38,
      "start": 131.6898,
      "duration": 0.2809,
      "velocity": 120,
      "chip": "ym2612"
    },
    {
      "channel": 2,
      "note": 71,
      "start": 131.6915,
      "duration": 0.1477,
      "velocity": 120,
      "chip": "ym2612"
    },
    {
      "channel": 3,
      "note": 50,
      "start": 131.6921,
      "duration": 0.1483,
      "velocity": 124,
      "chip": "ym2612"
    },
    {
      "channel": 4,
      "note": 23,
      "start": 131.6927,
      "duration": 0.1643,
      "velocity": 124,
      "chip": "ym2612"
    },
    {
      "channel": 2,
      "note": 71,
      "start": 131.8402,
      "duration": 0.132,
      "velocity": 120,
      "chip": "ym2612"
    },
    {
      "channel": 3,
      "note": 42,
      "start": 131.8409,
      "duration": 0.1327,
      "velocity": 124,
      "chip": "ym2612"
    },
    {
      "channel": 0,
      "note": 62,
      "start": 131.9717,
      "duration": 0.1483,
      "velocity": 125,
      "chip": "ym2612"
    },
    {
      "channel": 2,
      "note": 71,
      "start": 131.9734,
      "duration": 0.1472,
      "velocity": 120,
      "chip": "ym2612"
    },
    {
      "channel": 3,
      "note": 50,
      "start": 131.9741,
      "duration": 0.1477,
      "velocity": 124,
      "chip": "ym2612"
    },
    {
      "channel": 4,
      "note": 23,
      "start": 131.9747,
      "duration": 0.1637,
      "velocity": 124,
      "chip": "ym2612"
    },
    {
      "channel": 2,
      "note": 71,
      "start": 132.1216,
      "duration": 0.1321,
      "velocity": 120,
      "chip": "ym2612"
    },
    {
      "channel": 3,
      "note": 49,
      "start": 132.1223,
      "duration": 0.1327,
      "velocity": 124,
      "chip": "ym2612"
    },
    {
      "channel": 0,
      "note": 26,
      "start": 132.2531,
      "duration": 0.5617,
      "velocity": 126,
      "chip": "ym2612"
    },
    {
      "channel": 2,
      "note": 71,
      "start": 132.2548,
      "duration": 0.1471,
      "velocity": 120,
      "chip": "ym2612"
    },
    {
      "channel": 3,
      "note": 42,
      "start": 132.2554,
      "duration": 0.1477,
      "velocity": 124,
      "chip": "ym2612"
    },
    {
      "channel": 4,
      "note": 23,
      "start": 132.2561,
      "duration": 0.1637,
      "velocity": 124,
      "chip": "ym2612"
    },
    {
      "channel": 2,
      "note": 71,
      "start": 132.403,
      "duration": 0.1314,
      "velocity": 120,
      "chip": "ym2612"
    },
    {
      "channel": 3,
      "note": 47,
      "start": 132.4037,
      "duration": 0.132,
      "velocity": 124,
      "chip": "ym2612"
    },
    {
      "channel": 2,
      "note": 71,
      "start": 132.5354,
      "duration": 0.1479,
      "velocity": 120,
      "chip": "ym2612"
    },
    {
      "channel": 3,
      "note": 42,
      "start": 132.536,
      "duration": 0.1485,
      "velocity": 124,
      "chip": "ym2612"
    },
    {
      "channel": 4,
      "note": 23,
      "start": 132.5367,
      "duration": 0.1645,
      "velocity": 124,
      "chip": "ym2612"
    },
    {
      "channel": 2,
      "note": 71,
      "start": 132.6844,
      "duration": 0.1321,
      "velocity": 120,
      "chip": "ym2612"
    },
    {
      "channel": 3,
      "note": 47,
      "start": 132.685,
      "duration": 0.1327,
      "velocity": 124,
      "chip": "ym2612"
    },
    {
      "channel": 0,
      "note": 38,
      "start": 132.8159,
      "duration": 0.2803,
      "velocity": 120,
      "chip": "ym2612"
    },
    {
      "channel": 2,
      "note": 71,
      "start": 132.8176,
      "duration": 0.1471,
      "velocity": 120,
      "chip": "ym2612"
    },
    {
      "channel": 3,
      "note": 47,
      "start": 132.8182,
      "duration": 0.1477,
      "velocity": 124,
      "chip": "ym2612"
    },
    {
      "channel": 4,
      "note": 23,
      "start": 132.8189,
      "duration": 0.1637,
      "velocity": 124,
      "chip": "ym2612"
    },
    {
      "channel": 5,
      "note": 7,
      "start": 132.8195,
      "duration": 2.2515,
      "velocity": 1,
      "chip": "ym2612"
    },
    {
      "channel": 2,
      "note": 71,
      "start": 132.9657,
      "duration": 0.1321,
      "velocity": 120,
      "chip": "ym2612"
    },
    {
      "channel": 3,
      "note": 42,
      "start": 132.9664,
      "duration": 0.1326,
      "velocity": 124,
      "chip": "ym2612"
    },
    {
      "channel": 0,
      "note": 62,
      "start": 133.0972,
      "duration": 0.1483,
      "velocity": 125,
      "chip": "ym2612"
    },
    {
      "channel": 2,
      "note": 71,
      "start": 133.099,
      "duration": 0.1472,
      "velocity": 120,
      "chip": "ym2612"
    },
    {
      "channel": 3,
      "note": 47,
      "start": 133.0996,
      "duration": 0.1478,
      "velocity": 124,
      "chip": "ym2612"
    },
    {
      "channel": 4,
      "note": 23,
      "start": 133.1002,
      "duration": 0.1637,
      "velocity": 124,
      "chip": "ym2612"
    },
    {
      "channel": 2,
      "note": 47,
      "start": 133.2472,
      "duration": 0.1321,
      "velocity": 124,
      "chip": "ym2612"
    },
    {
      "channel": 3,
      "note": 49,
      "start": 133.2479,
      "duration": 0.1326,
      "velocity": 124,
      "chip": "ym2612"
    },
    {
      "channel": 0,
      "note": 26,
      "start": 133.3787,
      "duration": 0.2803,
      "velocity": 126,
      "chip": "ym2612"
    },
    {
      "channel": 2,
      "note": 71,
      "start": 133.3803,
      "duration": 0.1472,
      "velocity": 120,
      "chip": "ym2612"
    },
    {
      "channel": 3,
      "note": 42,
      "start": 133.381,
      "duration": 0.1477,
      "velocity": 124,
      "chip": "ym2612"
    },
    {
      "channel": 4,
      "note": 23,
      "start": 133.3817,
      "duration": 0.1637,
      "velocity": 124,
      "chip": "ym2612"
    },
    {
      "channel": 2,
      "note": 71,
      "start": 133.5285,
      "duration": 0.1321,
      "velocity": 120,
      "chip": "ym2612"
    },
    {
      "channel": 3,
      "note": 47,
      "start": 133.5292,
      "duration": 0.1327,
      "velocity": 124,
      "chip": "ym2612"
    },
    {
      "channel": 0,
      "note": 38,
      "start": 133.6601,
      "duration": 0.2803,
      "velocity": 120,
      "chip": "ym2612"
    },
    {
      "channel": 2,
      "note": 71,
      "start": 133.6617,
      "duration": 0.1471,
      "velocity": 120,
      "chip": "ym2612"
    },
    {
      "channel": 3,
      "note": 42,
      "start": 133.6624,
      "duration": 0.1478,
      "velocity": 124,
      "chip": "ym2612"
    },
    {
      "channel": 4,
      "note": 23,
      "start": 133.663,
      "duration": 0.1637,
      "velocity": 124,
      "chip": "ym2612"
    },
    {
      "channel": 2,
      "note": 71,
      "start": 133.81,
      "duration": 0.1315,
      "velocity": 120,
      "chip": "ym2612"
    },
    {
      "channel": 3,
      "note": 47,
      "start": 133.8106,
      "duration": 0.1321,
      "velocity": 124,
      "chip": "ym2612"
    },
    {
      "channel": 0,
      "note": 38,
      "start": 133.9409,
      "duration": 0.2809,
      "velocity": 120,
      "chip": "ym2612"
    },
    {
      "channel": 2,
      "note": 71,
      "start": 133.9425,
      "duration": 0.1478,
      "velocity": 120,
      "chip": "ym2612"
    },
    {
      "channel": 3,
      "note": 50,
      "start": 133.9432,
      "duration": 0.1484,
      "velocity": 124,
      "chip": "ym2612"
    },
    {
      "channel": 4,
      "note": 23,
      "start": 133.9438,
      "duration": 0.1644,
      "velocity": 124,
      "chip": "ym2612"
    },
    {
      "channel": 2,
      "note": 71,
      "start": 134.0914,
      "duration": 0.1321,
      "velocity": 120,
      "chip": "ym2612"
    },
    {
      "channel": 3,
      "note": 42,
      "start": 134.092,
      "duration": 0.1327,
      "velocity": 124,
      "chip": "ym2612"
    },
    {
      "channel": 0,
      "note": 62,
      "start": 134.2228,
      "duration": 0.1483,
      "velocity": 125,
      "chip": "ym2612"
    },
    {
      "channel": 2,
      "note": 71,
      "start": 134.2245,
      "duration": 0.1471,
      "velocity": 120,
      "chip": "ym2612"
    },
    {
      "channel": 3,
      "note": 50,
      "start": 134.2252,
      "duration": 0.1477,
      "velocity": 124,
      "chip": "ym2612"
    },
    {
      "channel": 4,
      "note": 23,
      "start": 134.2259,
      "duration": 0.1637,
      "velocity": 124,
      "chip": "ym2612"
    },
    {
      "channel": 2,
      "note": 71,
      "start": 134.3727,
      "duration": 0.1321,
      "velocity": 120,
      "chip": "ym2612"
    },
    {
      "channel": 3,
      "note": 49,
      "start": 134.3734,
      "duration": 0.1326,
      "velocity": 124,
      "chip": "ym2612"
    },
    {
      "channel": 0,
      "note": 26,
      "start": 134.5042,
      "duration": 0.2803,
      "velocity": 126,
      "chip": "ym2612"
    },
    {
      "channel": 2,
      "note": 71,
      "start": 134.5059,
      "duration": 0.1472,
      "velocity": 120,
      "chip": "ym2612"
    },
    {
      "channel": 3,
      "note": 42,
      "start": 134.5066,
      "duration": 0.1477,
      "velocity": 124,
      "chip": "ym2612"
    },
    {
      "channel": 4,
      "note": 23,
      "start": 134.5072,
      "duration": 0.1637,
      "velocity": 124,
      "chip": "ym2612"
    },
    {
      "channel": 2,
      "note": 71,
      "start": 134.6541,
      "duration": 0.1321,
      "velocity": 120,
      "chip": "ym2612"
    },
    {
      "channel": 3,
      "note": 47,
      "start": 134.6548,
      "duration": 0.1326,
      "velocity": 124,
      "chip": "ym2612"
    },
    {
      "channel": 0,
      "note": 62,
      "start": 134.7856,
      "duration": 0.1483,
      "velocity": 125,
      "chip": "ym2612"
    },
    {
      "channel": 2,
      "note": 71,
      "start": 134.7873,
      "duration": 0.1471,
      "velocity": 120,
      "chip": "ym2612"
    },
    {
      "channel": 3,
      "note": 42,
      "start": 134.788,
      "duration": 0.1478,
      "velocity": 124,
      "chip": "ym2612"
    },
    {
      "channel": 4,
      "note": 23,
      "start": 134.7886,
      "duration": 0.1637,
      "velocity": 124,
      "chip": "ym2612"
    },
    {
      "channel": 2,
      "note": 71,
      "start": 134.9355,
      "duration": 0.1328,
      "velocity": 120,
      "chip": "ym2612"
    },
    {
      "channel": 3,
      "note": 47,
      "start": 134.9362,
      "duration": 0.1335,
      "velocity": 124,
      "chip": "ym2612"
    },
    {
      "channel": 0,
      "note": 35,
      "start": 135.067,
      "duration": 0.1479,
      "velocity": 124,
      "chip": "ym2612"
    },
    {
      "channel": 1,
      "note": 47,
      "start": 135.0682,
      "duration": 0.1473,
      "velocity": 119,
      "chip": "ym2612"
    },
    {
      "channel": 2,
      "note": 30,
      "start": 135.0695,
      "duration": 2.2494,
      "velocity": 108,
      "chip": "ym2612"
    },
    {
      "channel": 3,
      "note": 47,
      "start": 135.0702,
      "duration": 0.1471,
      "velocity": 124,
      "chip": "ym2612"
    },
    {
      "channel": 4,
      "note": 71,
      "start": 135.0708,
      "duration": 0.1471,
      "velocity": 122,
      "chip": "ym2612"
    },
    {
      "channel": 5,
      "note": 7,
      "start": 135.0715,
      "duration": 2.2494,
      "velocity": 1,
      "chip": "ym2612"
    },
    {
      "channel": 0,
      "note": 35,
      "start": 135.2154,
      "duration": 0.132,
      "velocity": 124,
      "chip": "ym2612"
    },
    {
      "channel": 1,
      "note": 26,
      "start": 135.2166,
      "duration": 0.1314,
      "velocity": 125,
      "chip": "ym2612"
    },
    {
      "channel": 3,
      "note": 42,
      "start": 135.2178,
      "duration": 0.1319,
      "velocity": 124,
      "chip": "ym2612"
    },
    {
      "channel": 4,
      "note": 71,
      "start": 135.2185,
      "duration": 0.0815,
      "velocity": 122,
      "chip": "ym2612"
    },
    {
      "channel": 0,
      "note": 23,
      "start": 135.3479,
      "duration": 0.1485,
      "velocity": 124,
      "chip": "ym2612"
    },
    {
      "channel": 1,
      "note": 46,
      "start": 135.3491,
      "duration": 0.1478,
      "velocity": 114,
      "chip": "ym2612"
    },
    {
      "channel": 3,
      "note": 47,
      "start": 135.3502,
      "duration": 0.1485,
      "velocity": 124,
      "chip": "ym2612"
    },
    {
      "channel": 4,
      "note": 66,
      "start": 135.3509,
      "duration": 0.1485,
      "velocity": 122,
      "chip": "ym2612"
    },
    {
      "channel": 0,
      "note": 23,
      "start": 135.4968,
      "duration": 0.132,
      "velocity": 124,
      "chip": "ym2612"
    },
    {
      "channel": 1,
      "note": 71,
      "start": 135.498,
      "duration": 0.1314,
      "velocity": 120,
      "chip": "ym2612"
    },
    {
      "channel": 3,
      "note": 49,
      "start": 135.4992,
      "duration": 0.132,
      "velocity": 124,
      "chip": "ym2612"
    },
    {
      "channel": 4,
      "note": 59,
      "start": 135.4998,
      "duration": 0.0815,
      "velocity": 123,
      "chip": "ym2612"
    },
    {
      "channel": 0,
      "note": 35,
      "start": 135.6292,
      "duration": 0.1485,
      "velocity": 124,
      "chip": "ym2612"
    },
    {
      "channel": 1,
      "note": 72,
      "start": 135.6305,
      "duration": 0.1478,
      "velocity": 113,
      "chip": "ym2612"
    },
    {
      "channel": 3,
      "note": 42,
      "start": 135.6317,
      "duration": 0.1485,
      "velocity": 124,
      "chip": "ym2612"
    },
    {
      "channel": 4,
      "note": 23,
      "start": 135.6324,
      "duration": 0.0981,
      "velocity": 123,
      "chip": "ym2612"
    },
    {
      "channel": 0,
      "note": 23,
      "start": 135.7782,
      "duration": 0.132,
      "velocity": 124,
      "chip": "ym2612"
    },
    {
      "channel": 1,
      "note": 38,
      "start": 135.7794,
      "duration": 0.1313,
      "velocity": 125,
      "chip": "ym2612"
    },
    {
      "channel": 3,
      "note": 47,
      "start": 135.7806,
      "duration": 0.132,
      "velocity": 124,
      "chip": "ym2612"
    },
    {
      "channel": 4,
      "note": 35,
      "start": 135.7812,
      "duration": 0.0816,
      "velocity": 123,
      "chip": "ym2612"
    },
    {
      "channel": 0,
      "note": 23,
      "start": 135.9106,
      "duration": 0.1485,
      "velocity": 124,
      "chip": "ym2612"
    },
    {
      "channel": 1,
      "note": 46,
      "start": 135.9119,
      "duration": 0.1478,
      "velocity": 114,
      "chip": "ym2612"
    },
    {
      "channel": 3,
      "note": 42,
      "start": 135.913,
      "duration": 0.1485,
      "velocity": 124,
      "chip": "ym2612"
    },
    {
      "channel": 4,
      "note": 59,
      "start": 135.9137,
      "duration": 0.0981,
      "velocity": 123,
      "chip": "ym2612"
    },
    {
      "channel": 0,
      "note": 35,
      "start": 136.0596,
      "duration": 0.132,
      "velocity": 124,
      "chip": "ym2612"
    },
    {
      "channel": 1,
      "note": 26,
      "start": 136.0608,
      "duration": 0.1314,
      "velocity": 125,
      "chip": "ym2612"
    },
    {
      "channel": 3,
      "note": 47,
      "start": 136.062,
      "duration": 0.1319,
      "velocity": 124,
      "chip": "ym2612"
    },
    {
      "channel": 0,
      "note": 23,
      "start": 136.192,
      "duration": 0.1485,
      "velocity": 124,
      "chip": "ym2612"
    },
    {
      "channel": 1,
      "note": 47,
      "start": 136.1932,
      "duration": 0.1479,
      "velocity": 119,
      "chip": "ym2612"
    },
    {
      "channel": 3,
      "note": 50,
      "start": 136.1944,
      "duration": 0.1486,
      "velocity": 124,
      "chip": "ym2612"
    },
    {
      "channel": 4,
      "note": 34,
      "start": 136.1956,
      "duration": 0.148,
      "velocity": 64,
      "chip": "ym2612"
    },
    {
      "channel": 0,
      "note": 35,
      "start": 136.341,
      "duration": 0.132,
      "velocity": 124,
      "chip": "ym2612"
    },
    {
      "channel": 1,
      "note": 72,
      "start": 136.3423,
      "duration": 0.1313,
      "velocity": 113,
      "chip": "ym2612"
    },
    {
      "channel": 3,
      "note": 42,
      "start": 136.3434,
      "duration": 0.1319,
      "velocity": 124,
      "chip": "ym2612"
    },
    {
      "channel": 4,
      "note": 59,
      "start": 136.3447,
      "duration": 0.081,
      "velocity": 123,
      "chip": "ym2612"
    },
    {
      "channel": 0,
      "note": 23,
      "start": 136.4734,
      "duration": 0.1485,
      "velocity": 124,
      "chip": "ym2612"
    },
    {
      "channel": 1,
      "note": 46,
      "start": 136.4746,
      "duration": 0.1478,
      "velocity": 114,
      "chip": "ym2612"
    },
    {
      "channel": 3,
      "note": 50,
      "start": 136.4759,
      "duration": 0.1485,
      "velocity": 124,
      "chip": "ym2612"
    },
    {
      "channel": 0,
      "note": 23,
      "start": 136.6224,
      "duration": 0.132,
      "velocity": 124,
      "chip": "ym2612"
    },
    {
      "channel": 1,
      "note": 47,
      "start": 136.6236,
      "duration": 0.1313,
      "velocity": 119,
      "chip": "ym2612"
    },
    {
      "channel": 3,
      "note": 49,
      "start": 136.6248,
      "duration": 0.1321,
      "velocity": 124,
      "chip": "ym2612"
    },
    {
      "channel": 4,
      "note": 59,
      "start": 136.6254,
      "duration": 0.0816,
      "velocity": 123,
      "chip": "ym2612"
    },
    {
      "channel": 0,
      "note": 35,
      "start": 136.7548,
      "duration": 0.1485,
      "velocity": 124,
      "chip": "ym2612"
    },
    {
      "channel": 1,
      "note": 72,
      "start": 136.7561,
      "duration": 0.1478,
      "velocity": 113,
      "chip": "ym2612"
    },
    {
      "channel": 3,
      "note": 42,
      "start": 136.7573,
      "duration": 0.1484,
      "velocity": 124,
      "chip": "ym2612"
    },
    {
      "channel": 0,
      "note": 23,
      "start": 136.9038,
      "duration": 0.1319,
      "velocity": 124,
      "chip": "ym2612"
    },
    {
      "channel": 1,
      "note": 46,
      "start": 136.905,
      "duration": 0.1313,
      "velocity": 114,
      "chip": "ym2612"
    },
    {
      "channel": 3,
      "note": 47,
      "start": 136.9061,
      "duration": 0.1319,
      "velocity": 124,
      "chip": "ym2612"
    },
    {
      "channel": 4,
      "note": 34,
      "start": 136.9075,
      "duration": 0.1312,
      "velocity": 64,
      "chip": "ym2612"
    },
    {
      "channel": 0,
      "note": 23,
      "start": 137.0362,
      "duration": 0.1485,
      "velocity": 124,
      "chip": "ym2612"
    },
    {
      "channel": 1,
      "note": 47,
      "start": 137.0374,
      "duration": 0.1479,
      "velocity": 119,
      "chip": "ym2612"
    },
    {
      "channel": 3,
      "note": 42,
      "start": 137.0386,
      "duration": 0.1485,
      "velocity": 124,
      "chip": "ym2612"
    },
    {
      "channel": 4,
      "note": 59,
      "start": 137.0399,
      "duration": 0.0975,
      "velocity": 123,
      "chip": "ym2612"
    },
    {
      "channel": 0,
      "note": 35,
      "start": 137.1851,
      "duration": 0.1319,
      "velocity": 124,
      "chip": "ym2612"
    },
    {
      "channel": 1,
      "note": 38,
      "start": 137.1863,
      "duration": 0.065,
      "velocity": 125,
      "chip": "ym2612"
    },
    {
      "channel": 3,
      "note": 47,
      "start": 137.1876,
      "duration": 0.1321,
      "velocity": 124,
      "chip": "ym2612"
    },
    {
      "channel": 1,
      "note": 38,
      "start": 137.2518,
      "duration": 0.0659,
      "velocity": 119,
      "chip": "ym2612"
    },
    {
      "channel": 0,
      "note": 35,
      "start": 137.3176,
      "duration": 0.1485,
      "velocity": 124,
      "chip": "ym2612"
    },
    {
      "channel": 1,
      "note": 47,
      "start": 137.3188,
      "duration": 0.1479,
      "velocity": 119,
      "chip": "ym2612"
    },
    {
      "channel": 2,
      "note": 28,
      "start": 137.3195,
      "duration": 2.2506,
      "velocity": 108,
      "chip": "ym2612"
    },
    {
      "channel": 3,
      "note": 47,
      "start": 137.3201,
      "duration": 0.1483,
      "velocity": 124,
      "chip": "ym2612"
    },
    {
      "channel": 5,
      "note": 7,
      "start": 137.3213,
      "duration": 2.2514,
      "velocity": 1,
      "chip": "ym2612"
    },
    {
      "channel": 0,
      "note": 33,
      "start": 137.4666,
      "duration": 0.1319,
      "velocity": 124,
      "chip": "ym2612"
    },
    {
      "channel": 1,
      "note": 26,
      "start": 137.4678,
      "duration": 0.1313,
      "velocity": 125,
      "chip": "ym2612"
    },
    {
      "channel": 3,
      "note": 42,
      "start": 137.469,
      "duration": 0.1319,
      "velocity": 124,
      "chip": "ym2612"
    },
    {
      "channel": 4,
      "note": 59,
      "start": 137.4696,
      "duration": 0.0815,
      "velocity": 123,
      "chip": "ym2612"
    },
    {
      "channel": 0,
      "note": 21,
      "start": 137.599,
      "duration": 0.1485,
      "velocity": 124,
      "chip": "ym2612"
    },
    {
      "channel": 1,
      "note": 46,
      "start": 137.6002,
      "duration": 0.1479,
      "velocity": 114,
      "chip": "ym2612"
    },
    {
      "channel": 3,
      "note": 47,
      "start": 137.6014,
      "duration": 0.1485,
      "velocity": 124,
      "chip": "ym2612"
    },
    {
      "channel": 0,
      "note": 21,
      "start": 137.7479,
      "duration": 0.1319,
      "velocity": 124,
      "chip": "ym2612"
    },
    {
      "channel": 1,
      "note": 71,
      "start": 137.7491,
      "duration": 0.1314,
      "velocity": 120,
      "chip": "ym2612"
    },
    {
      "channel": 3,
      "note": 49,
      "start": 137.7504,
      "duration": 0.132,
      "velocity": 124,
      "chip": "ym2612"
    },
    {
      "channel": 4,
      "note": 59,
      "start": 137.751,
      "duration": 0.0815,
      "velocity": 123,
      "chip": "ym2612"
    },
    {
      "channel": 0,
      "note": 33,
      "start": 137.8804,
      "duration": 0.1485,
      "velocity": 124,
      "chip": "ym2612"
    },
    {
      "channel": 1,
      "note": 72,
      "start": 137.8817,
      "duration": 0.1478,
      "velocity": 113,
      "chip": "ym2612"
    },
    {
      "channel": 3,
      "note": 42,
      "start": 137.8828,
      "duration": 0.1485,
      "velocity": 124,
      "chip": "ym2612"
    },
    {
      "channel": 0,
      "note": 21,
      "start": 138.0294,
      "duration": 0.1319,
      "velocity": 124,
      "chip": "ym2612"
    },
    {
      "channel": 1,
      "note": 38,
      "start": 138.0306,
      "duration": 0.1313,
      "velocity": 125,
      "chip": "ym2612"
    },
    {
      "channel": 3,
      "note": 47,
      "start": 138.0317,
      "duration": 0.132,
      "velocity": 124,
      "chip": "ym2612"
    },
    {
      "channel": 0,
      "note": 21,
      "start": 138.1617,
      "duration": 0.1485,
      "velocity": 124,
      "chip": "ym2612"
    },
    {
      "channel": 1,
      "note": 46,
      "start": 138.163,
      "duration": 0.1478,
      "velocity": 114,
      "chip": "ym2612"
    },
    {
      "channel": 3,
      "note": 42,
      "start": 138.1641,
      "duration": 0.1485,
      "velocity": 124,
      "chip": "ym2612"
    },
    {
      "channel": 4,
      "note": 59,
      "start": 138.1648,
      "duration": 0.0981,
      "velocity": 123,
      "chip": "ym2612"
    },
    {
      "channel": 0,
      "note": 33,
      "start": 138.3107,
      "duration": 0.1319,
      "velocity": 124,
      "chip": "ym2612"
    },
    {
      "channel": 1,
      "note": 26,
      "start": 138.3119,
      "duration": 0.1314,
      "velocity": 125,
      "chip": "ym2612"
    },
    {
      "channel": 3,
      "note": 47,
      "start": 138.3131,
      "duration": 0.132,
      "velocity": 124,
      "chip": "ym2612"
    },
    {
      "channel": 0,
      "note": 21,
      "start": 138.4432,
      "duration": 0.1485,
      "velocity": 124,
      "chip": "ym2612"
    },
    {
      "channel": 1,
      "note": 47,
      "start": 138.4444,
      "duration": 0.1479,
      "velocity": 119,
      "chip": "ym2612"
    },
    {
      "channel": 3,
      "note": 50,
      "start": 138.4455,
      "duration": 0.1486,
      "velocity": 124,
      "chip": "ym2612"
    },
    {
      "channel": 4,
      "note": 34,
      "start": 138.4467,
      "duration": 0.148,
      "velocity": 64,
      "chip": "ym2612"
    },
    {
      "channel": 0,
      "note": 33,
      "start": 138.5922,
      "duration": 0.1319,
      "velocity": 124,
      "chip": "ym2612"
    },
    {
      "channel": 1,
      "note": 72,
      "start": 138.5934,
      "duration": 0.1312,
      "velocity": 113,
      "chip": "ym2612"
    },
    {
      "channel": 3,
      "note": 42,
      "start": 138.5946,
      "duration": 0.1319,
      "velocity": 124,
      "chip": "ym2612"
    },
    {
      "channel": 4,
      "note": 59,
      "start": 138.5958,
      "duration": 0.0809,
      "velocity": 123,
      "chip": "ym2612"
    },
    {
      "channel": 0,
      "note": 21,
      "start": 138.7245,
      "duration": 0.1486,
      "velocity": 124,
      "chip": "ym2612"
    },
    {
      "channel": 1,
      "note": 46,
      "start": 138.7257,
      "duration": 0.148,
      "velocity": 114,
      "chip": "ym2612"
    },
    {
      "channel": 3,
      "note": 50,
      "start": 138.7269,
      "duration": 0.1485,
      "velocity": 124,
      "chip": "ym2612"
    },
    {
      "channel": 0,
      "note": 21,
      "start": 138.8736,
      "duration": 0.1319,
      "velocity": 124,
      "chip": "ym2612"
    },
    {
      "channel": 1,
      "note": 47,
      "start": 138.8748,
      "duration": 0.1313,
      "velocity": 119,
      "chip": "ym2612"
    },
    {
      "channel": 3,
      "note": 49,
      "start": 138.8759,
      "duration": 0.1321,
      "velocity": 124,
      "chip": "ym2612"
    },
    {
      "channel": 0,
      "note": 33,
      "start": 139.0059,
      "duration": 0.1485,
      "velocity": 124,
      "chip": "ym2612"
    },
    {
      "channel": 1,
      "note": 72,
      "start": 139.0073,
      "duration": 0.1478,
      "velocity": 113,
      "chip": "ym2612"
    },
    {
      "channel": 3,
      "note": 42,
      "start": 139.0084,
      "duration": 0.1485,
      "velocity": 124,
      "chip": "ym2612"
    },
    {
      "channel": 0,
      "note": 21,
      "start": 139.1549,
      "duration": 0.1319,
      "velocity": 124,
      "chip": "ym2612"
    },
    {
      "channel": 1,
      "note": 46,
      "start": 139.1561,
      "duration": 0.1313,
      "velocity": 114,
      "chip": "ym2612"
    },
    {
      "channel": 3,
      "note": 47,
      "start": 139.1573,
      "duration": 0.1319,
      "velocity": 124,
      "chip": "ym2612"
    },
    {
      "channel": 0,
      "note": 21,
      "start": 139.2873,
      "duration": 0.1485,
      "velocity": 124,
      "chip": "ym2612"
    },
    {
      "channel": 1,
      "note": 47,
      "start": 139.2885,
      "duration": 0.1479,
      "velocity": 119,
      "chip": "ym2612"
    },
    {
      "channel": 3,
      "note": 42,
      "start": 139.2897,
      "duration": 0.1485,
      "velocity": 124,
      "chip": "ym2612"
    },
    {
      "channel": 4,
      "note": 22,
      "start": 139.291,
      "duration": 0.0975,
      "velocity": 64,
      "chip": "ym2612"
    },
    {
      "channel": 0,
      "note": 33,
      "start": 139.4363,
      "duration": 0.1319,
      "velocity": 124,
      "chip": "ym2612"
    },
    {
      "channel": 1,
      "note": 38,
      "start": 139.4375,
      "duration": 0.065,
      "velocity": 125,
      "chip": "ym2612"
    },
    {
      "channel": 3,
      "note": 47,
      "start": 139.4387,
      "duration": 0.1321,
      "velocity": 124,
      "chip": "ym2612"
    },
    {
      "channel": 4,
      "note": 34,
      "start": 139.4393,
      "duration": 0.0816,
      "velocity": 64,
      "chip": "ym2612"
    },
    {
      "channel": 1,
      "note": 38,
      "start": 139.503,
      "duration": 0.0659,
      "velocity": 119,
      "chip": "ym2612"
    },
    {
      "channel": 0,
      "note": 33,
      "start": 139.5687,
      "duration": 0.1485,
      "velocity": 124,
      "chip": "ym2612"
    },
    {
      "channel": 1,
      "note": 47,
      "start": 139.57,
      "duration": 0.1479,
      "velocity": 119,
      "chip": "ym2612"
    },
    {
      "channel": 2,
      "note": 31,
      "start": 139.5707,
      "duration": 2.2506,
      "velocity": 108,
      "chip": "ym2612"
    },
    {
      "channel": 3,
      "note": 47,
      "start": 139.5713,
      "duration": 0.1483,
      "velocity": 124,
      "chip": "ym2612"
    },
    {
      "channel": 4,
      "note": 71,
      "start": 139.5725,
      "duration": 0.1478,
      "velocity": 122,
      "chip": "ym2612"
    },
    {
      "channel": 5,
      "note": 7,
      "start": 139.5732,
      "duration": 2.2499,
      "velocity": 1,
      "chip": "ym2612"
    },
    {
      "channel": 0,
      "note": 31,
      "start": 139.7177,
      "duration": 0.132,
      "velocity": 124,
      "chip": "ym2612"
    },
    {
      "channel": 1,
      "note": 26,
      "start": 139.7189,
      "duration": 0.1313,
      "velocity": 125,
      "chip": "ym2612"
    },
    {
      "channel": 3,
      "note": 42,
      "start": 139.7201,
      "duration": 0.1319,
      "velocity": 124,
      "chip": "ym2612"
    },
    {
      "channel": 4,
      "note": 71,
      "start": 139.7208,
      "duration": 0.0815,
      "velocity": 122,
      "chip": "ym2612"
    },
    {
      "channel": 0,
      "note": 19,
      "start": 139.8501,
      "duration": 0.1485,
      "velocity": 124,
      "chip": "ym2612"
    },
    {
      "channel": 1,
      "note": 46,
      "start": 139.8513,
      "duration": 0.1479,
      "velocity": 114,
      "chip": "ym2612"
    },
    {
      "channel": 3,
      "note": 47,
      "start": 139.8525,
      "duration": 0.1485,
      "velocity": 124,
      "chip": "ym2612"
    },
    {
      "channel": 4,
      "note": 66,
      "start": 139.8532,
      "duration": 0.1485,
      "velocity": 122,
      "chip": "ym2612"
    },
    {
      "channel": 0,
      "note": 19,
      "start": 139.9991,
      "duration": 0.132,
      "velocity": 124,
      "chip": "ym2612"
    },
    {
      "channel": 1,
      "note": 71,
      "start": 140.0003,
      "duration": 0.1314,
      "velocity": 120,
      "chip": "ym2612"
    },
    {
      "channel": 3,
      "note": 49,
      "start": 140.0015,
      "duration": 0.132,
      "velocity": 124,
      "chip": "ym2612"
    },
    {
      "channel": 4,
      "note": 59,
      "start": 140.0021,
      "duration": 0.0815,
      "velocity": 123,
      "chip": "ym2612"
    },
    {
      "channel": 0,
      "note": 31,
      "start": 140.1315,
      "duration": 0.1485,
      "velocity": 124,
      "chip": "ym2612"
    },
    {
      "channel": 1,
      "note": 72,
      "start": 140.1328,
      "duration": 0.1478,
      "velocity": 113,
      "chip": "ym2612"
    },
    {
      "channel": 3,
      "note": 42,
      "start": 140.1339,
      "duration": 0.1485,
      "velocity": 124,
      "chip": "ym2612"
    },
    {
      "channel": 4,
      "note": 23,
      "start": 140.1346,
      "duration": 0.098,
      "velocity": 123,
      "chip": "ym2612"
    },
    {
      "channel": 0,
      "note": 19,
      "start": 140.2805,
      "duration": 0.132,
      "velocity": 124,
      "chip": "ym2612"
    },
    {
      "channel": 1,
      "note": 38,
      "start": 140.2817,
      "duration": 0.1313,
      "velocity": 125,
      "chip": "ym2612"
    },
    {
      "channel": 3,
      "note": 47,
      "start": 140.2829,
      "duration": 0.1319,
      "velocity": 124,
      "chip": "ym2612"
    },
    {
      "channel": 4,
      "note": 35,
      "start": 140.2835,
      "duration": 0.0816,
      "velocity": 123,
      "chip": "ym2612"
    },
    {
      "channel": 0,
      "note": 19,
      "start": 140.4129,
      "duration": 0.1485,
      "velocity": 124,
      "chip": "ym2612"
    },
    {
      "channel": 1,
      "note": 46,
      "start": 140.4141,
      "duration": 0.1479,
      "velocity": 114,
      "chip": "ym2612"
    },
    {
      "channel": 3,
      "note": 42,
      "start": 140.4153,
      "duration": 0.1485,
      "velocity": 124,
      "chip": "ym2612"
    },
    {
      "channel": 4,
      "note": 59,
      "start": 140.4159,
      "duration": 0.0981,
      "velocity": 123,
      "chip": "ym2612"
    },
    {
      "channel": 0,
      "note": 31,
      "start": 140.5619,
      "duration": 0.132,
      "velocity": 124,
      "chip": "ym2612"
    },
    {
      "channel": 1,
      "note": 26,
      "start": 140.5631,
      "duration": 0.1314,
      "velocity": 125,
      "chip": "ym2612"
    },
    {
      "channel": 3,
      "note": 47,
      "start": 140.5643,
      "duration": 0.1319,
      "velocity": 124,
      "chip": "ym2612"
    },
    {
      "channel": 0,
      "note": 19,
      "start": 140.6943,
      "duration": 0.1485,
      "velocity": 124,
      "chip": "ym2612"
    },
    {
      "channel": 1,
      "note": 47,
      "start": 140.6955,
      "duration": 0.1479,
      "velocity": 119,
      "chip": "ym2612"
    },
    {
      "channel": 3,
      "note": 50,
      "start": 140.6967,
      "duration": 0.1486,
      "velocity": 124,
      "chip": "ym2612"
    },
    {
      "channel": 4,
      "note": 34,
      "start": 140.6979,
      "duration": 0.148,
      "velocity": 64,
      "chip": "ym2612"
    },
    {
      "channel": 0,
      "note": 31,
      "start": 140.8433,
      "duration": 0.1319,
      "velocity": 124,
      "chip": "ym2612"
    },
    {
      "channel": 1,
      "note": 72,
      "start": 140.8446,
      "duration": 0.1312,
      "velocity": 113,
      "chip": "ym2612"
    },
    {
      "channel": 3,
      "note": 42,
      "start": 140.8457,
      "duration": 0.1319,
      "velocity": 124,
      "chip": "ym2612"
    },
    {
      "channel": 4,
      "note": 59,
      "start": 140.847,
      "duration": 0.0809,
      "velocity": 123,
      "chip": "ym2612"
    },
    {
      "channel": 0,
      "note": 19,
      "start": 140.9757,
      "duration": 0.1485,
      "velocity": 124,
      "chip": "ym2612"
    },
    {
      "channel": 1,
      "note": 46,
      "start": 140.9769,
      "duration": 0.1479,
      "velocity": 114,
      "chip": "ym2612"
    },
    {
      "channel": 3,
      "note": 50,
      "start": 140.9781,
      "duration": 0.1485,
      "velocity": 124,
      "chip": "ym2612"
    },
    {
      "channel": 0,
      "note": 19,
      "start": 141.1246,
      "duration": 0.132,
      "velocity": 124,
      "chip": "ym2612"
    },
    {
      "channel": 1,
      "note": 47,
      "start": 141.1259,
      "duration": 0.1314,
      "velocity": 119,
      "chip": "ym2612"
    },
    {
      "channel": 3,
      "note": 49,
      "start": 141.1271,
      "duration": 0.1321,
      "velocity": 124,
      "chip": "ym2612"
    },
    {
      "channel": 4,
      "note": 59,
      "start": 141.1277,
      "duration": 0.0815,
      "velocity": 123,
      "chip": "ym2612"
    },
    {
      "channel": 0,
      "note": 31,
      "start": 141.2572,
      "duration": 0.1484,
      "velocity": 124,
      "chip": "ym2612"
    },
    {
      "channel": 1,
      "note": 72,
      "start": 141.2584,
      "duration": 0.1478,
      "velocity": 113,
      "chip": "ym2612"
    },
    {
      "channel": 3,
      "note": 42,
      "start": 141.2596,
      "duration": 0.1485,
      "velocity": 124,
      "chip": "ym2612"
    },
    {
      "channel": 0,
      "note": 19,
      "start": 141.4061,
      "duration": 0.1319,
      "velocity": 124,
      "chip": "ym2612"
    },
    {
      "channel": 1,
      "note": 46,
      "start": 141.4073,
      "duration": 0.1312,
      "velocity": 114,
      "chip": "ym2612"
    },
    {
      "channel": 3,
      "note": 47,
      "start": 141.4085,
      "duration": 0.1319,
      "velocity": 124,
      "chip": "ym2612"
    },
    {
      "channel": 4,
      "note": 34,
      "start": 141.4097,
      "duration": 0.1313,
      "velocity": 64,
      "chip": "ym2612"
    },
    {
      "channel": 0,
      "note": 19,
      "start": 141.5385,
      "duration": 0.1485,
      "velocity": 124,
      "chip": "ym2612"
    },
    {
      "channel": 1,
      "note": 47,
      "start": 141.5397,
      "duration": 0.1478,
      "velocity": 119,
      "chip": "ym2612"
    },
    {
      "channel": 3,
      "note": 42,
      "start": 141.5409,
      "duration": 0.1485,
      "velocity": 124,
      "chip": "ym2612"
    },
    {
      "channel": 4,
      "note": 59,
      "start": 141.5422,
      "duration": 0.0975,
      "velocity": 123,
      "chip": "ym2612"
    },
    {
      "channel": 0,
      "note": 31,
      "start": 141.6874,
      "duration": 0.1319,
      "velocity": 124,
      "chip": "ym2612"
    },
    {
      "channel": 1,
      "note": 38,
      "start": 141.6886,
      "duration": 0.065,
      "velocity": 125,
      "chip": "ym2612"
    },
    {
      "channel": 3,
      "note": 47,
      "start": 141.6899,
      "duration": 0.1321,
      "velocity": 124,
      "chip": "ym2612"
    },
    {
      "channel": 1,
      "note": 38,
      "start": 141.7541,
      "duration": 0.0659,
      "velocity": 119,
      "chip": "ym2612"
    },
    {
      "channel": 0,
      "note": 31,
      "start": 141.8199,
      "duration": 0.1485,
      "velocity": 124,
      "chip": "ym2612"
    },
    {
      "channel": 1,
      "note": 47,
      "start": 141.8211,
      "duration": 0.1479,
      "velocity": 119,
      "chip": "ym2612"
    },
    {
      "channel": 2,
      "note": 30,
      "start": 141.8218,
      "duration": 2.2506,
      "velocity": 108,
      "chip": "ym2612"
    },
    {
      "channel": 3,
      "note": 47,
      "start": 141.8224,
      "duration": 0.1483,
      "velocity": 124,
      "chip": "ym2612"
    },
    {
      "channel": 5,
      "note": 7,
      "start": 141.8236,
      "duration": 2.2514,
      "velocity": 1,
      "chip": "ym2612"
    },
    {
      "channel": 0,
      "note": 35,
      "start": 141.9689,
      "duration": 0.1319,
      "velocity": 124,
      "chip": "ym2612"
    },
    {
      "channel": 1,
      "note": 26,
      "start": 141.9701,
      "duration": 0.1313,
      "velocity": 125,
      "chip": "ym2612"
    },
    {
      "channel": 3,
      "note": 42,
      "start": 141.9713,
      "duration": 0.1319,
      "velocity": 124,
      "chip": "ym2612"
    },
    {
      "channel": 4,
      "note": 59,
      "start": 141.9719,
      "duration": 0.0815,
      "velocity": 123,
      "chip": "ym2612"
    },
    {
      "channel": 0,
      "note": 23,
      "start": 142.1012,
      "duration": 0.1485,
      "velocity": 124,
      "chip": "ym2612"
    },
    {
      "channel": 1,
      "note": 46,
      "start": 142.1024,
      "duration": 0.1479,
      "velocity": 114,
      "chip": "ym2612"
    },
    {
      "channel": 3,
      "note": 47,
      "start": 142.1037,
      "duration": 0.1485,
      "velocity": 124,
      "chip": "ym2612"
    },
    {
      "channel": 0,
      "note": 23,
      "start": 142.2502,
      "duration": 0.1319,
      "velocity": 124,
      "chip": "ym2612"
    },
    {
      "channel": 1,
      "note": 71,
      "start": 142.2514,
      "duration": 0.1314,
      "velocity": 120,
      "chip": "ym2612"
    },
    {
      "channel": 3,
      "note": 49,
      "start": 142.2526,
      "duration": 0.1321,
      "velocity": 124,
      "chip": "ym2612"
    },
    {
      "channel": 4,
      "note": 59,
      "start": 142.2533,
      "duration": 0.0815,
      "velocity": 123,
      "chip": "ym2612"
    },
    {
      "channel": 0,
      "note": 35,
      "start": 142.3827,
      "duration": 0.1485,
      "velocity": 124,
      "chip": "ym2612"
    },
    {
      "channel": 1,
      "note": 72,
      "start": 142.3839,
      "duration": 0.1478,
      "velocity": 113,
      "chip": "ym2612"
    },
    {
      "channel": 3,
      "note": 42,
      "start": 142.3851,
      "duration": 0.1485,
      "velocity": 124,
      "chip": "ym2612"
    },
    {
      "channel": 0,
      "note": 23,
      "start": 142.5317,
      "duration": 0.1319,
      "velocity": 124,
      "chip": "ym2612"
    },
    {
      "channel": 1,
      "note": 38,
      "start": 142.5329,
      "duration": 0.1313,
      "velocity": 125,
      "chip": "ym2612"
    },
    {
      "channel": 3,
      "note": 47,
      "start": 142.534,
      "duration": 0.1319,
      "velocity": 124,
      "chip": "ym2612"
    },
    {
      "channel": 0,
      "note": 23,
      "start": 142.664,
      "duration": 0.1485,
      "velocity": 124,
      "chip": "ym2612"
    },
    {
      "channel": 1,
      "note": 46,
      "start": 142.6652,
      "duration": 0.1479,
      "velocity": 114,
      "chip": "ym2612"
    },
    {
      "channel": 3,
      "note": 42,
      "start": 142.6664,
      "duration": 0.1485,
      "velocity": 124,
      "chip": "ym2612"
    },
    {
      "channel": 4,
      "note": 59,
      "start": 142.6671,
      "duration": 0.0981,
      "velocity": 123,
      "chip": "ym2612"
    },
    {
      "channel": 0,
      "note": 35,
      "start": 142.813,
      "duration": 0.1319,
      "velocity": 124,
      "chip": "ym2612"
    },
    {
      "channel": 1,
      "note": 26,
      "start": 142.8142,
      "duration": 0.1314,
      "velocity": 125,
      "chip": "ym2612"
    },
    {
      "channel": 3,
      "note": 47,
      "start": 142.8154,
      "duration": 0.132,
      "velocity": 124,
      "chip": "ym2612"
    },
    {
      "channel": 0,
      "note": 23,
      "start": 142.9455,
      "duration": 0.1485,
      "velocity": 124,
      "chip": "ym2612"
    },
    {
      "channel": 1,
      "note": 47,
      "start": 142.9467,
      "duration": 0.1479,
      "velocity": 119,
      "chip": "ym2612"
    },
    {
      "channel": 3,
      "note": 50,
      "start": 142.9478,
      "duration": 0.1486,
      "velocity": 124,
      "chip": "ym2612"
    },
    {
      "channel": 4,
      "note": 34,
      "start": 142.949,
      "duration": 0.148,
      "velocity": 64,
      "chip": "ym2612"
    },
    {
      "channel": 0,
      "note": 35,
      "start": 143.0944,
      "duration": 0.1319,
      "velocity": 124,
      "chip": "ym2612"
    },
    {
      "channel": 1,
      "note": 72,
      "start": 143.0957,
      "duration": 0.1312,
      "velocity": 113,
      "chip": "ym2612"
    },
    {
      "channel": 3,
      "note": 42,
      "start": 143.0968,
      "duration": 0.1319,
      "velocity": 124,
      "chip": "ym2612"
    },
    {
      "channel": 4,
      "note": 59,
      "start": 143.0981,
      "duration": 0.0809,
      "velocity": 123,
      "chip": "ym2612"
    },
    {
      "channel": 0,
      "note": 23,
      "start": 143.2268,
      "duration": 0.1485,
      "velocity": 124,
      "chip": "ym2612"
    },
    {
      "channel": 1,
      "note": 46,
      "start": 143.228,
      "duration": 0.1479,
      "velocity": 114,
      "chip": "ym2612"
    },
    {
      "channel": 3,
      "note": 50,
      "start": 143.2292,
      "duration": 0.1485,
      "velocity": 124,
      "chip": "ym2612"
    },
    {
      "channel": 0,
      "note": 23,
      "start": 143.3758,
      "duration": 0.1319,
      "velocity": 124,
      "chip": "ym2612"
    },
    {
      "channel": 1,
      "note": 47,
      "start": 143.377,
      "duration": 0.1314,
      "velocity": 119,
      "chip": "ym2612"
    },
    {
      "channel": 3,
      "note": 49,
      "start": 143.3782,
      "duration": 0.132,
      "velocity": 124,
      "chip": "ym2612"
    },
    {
      "channel": 0,
      "note": 35,
      "start": 143.5082,
      "duration": 0.1485,
      "velocity": 124,
      "chip": "ym2612"
    },
    {
      "channel": 1,
      "note": 72,
      "start": 143.5095,
      "duration": 0.1478,
      "velocity": 113,
      "chip": "ym2612"
    },
    {
      "channel": 3,
      "note": 42,
      "start": 143.5107,
      "duration": 0.1485,
      "velocity": 124,
      "chip": "ym2612"
    },
    {
      "channel": 0,
      "note": 23,
      "start": 143.6572,
      "duration": 0.1319,
      "velocity": 124,
      "chip": "ym2612"
    },
    {
      "channel": 1,
      "note": 46,
      "start": 143.6584,
      "duration": 0.1314,
      "velocity": 114,
      "chip": "ym2612"
    },
    {
      "channel": 3,
      "note": 47,
      "start": 143.6596,
      "duration": 0.1319,
      "velocity": 124,
      "chip": "ym2612"
    },
    {
      "channel": 0,
      "note": 23,
      "start": 143.7896,
      "duration": 0.1485,
      "velocity": 124,
      "chip": "ym2612"
    },
    {
      "channel": 1,
      "note": 47,
      "start": 143.7909,
      "duration": 0.1478,
      "velocity": 119,
      "chip": "ym2612"
    },
    {
      "channel": 3,
      "note": 42,
      "start": 143.792,
      "duration": 0.1485,
      "velocity": 124,
      "chip": "ym2612"
    },
    {
      "channel": 4,
      "note": 22,
      "start": 143.7932,
      "duration": 0.0976,
      "velocity": 64,
      "chip": "ym2612"
    },
    {
      "channel": 0,
      "note": 35,
      "start": 143.9386,
      "duration": 0.1319,
      "velocity": 124,
      "chip": "ym2612"
    },
    {
      "channel": 1,
      "note": 38,
      "start": 143.9398,
      "duration": 0.065,
      "velocity": 125,
      "chip": "ym2612"
    },
    {
      "channel": 3,
      "note": 47,
      "start": 143.941,
      "duration": 0.1321,
      "velocity": 124,
      "chip": "ym2612"
    },
    {
      "channel": 4,
      "note": 34,
      "start": 143.9416,
      "duration": 0.0816,
      "velocity": 64,
      "chip": "ym2612"
    },
    {
      "channel": 1,
      "note": 38,
      "start": 144.0053,
      "duration": 0.0659,
      "velocity": 119,
      "chip": "ym2612"
    },
    {
      "channel": 0,
      "note": 35,
      "start": 144.071,
      "duration": 0.1485,
      "velocity": 124,
      "chip": "ym2612"
    },
    {
      "channel": 1,
      "note": 47,
      "start": 144.0722,
      "duration": 0.1479,
      "velocity": 119,
      "chip": "ym2612"
    },
    {
      "channel": 2,
      "note": 30,
      "start": 144.0729,
      "duration": 2.2506,
      "velocity": 108,
      "chip": "ym2612"
    },
    {
      "channel": 3,
      "note": 47,
      "start": 144.0736,
      "duration": 0.1483,
      "velocity": 124,
      "chip": "ym2612"
    },
    {
      "channel": 4,
      "note": 71,
      "start": 144.0749,
      "duration": 0.1477,
      "velocity": 122,
      "chip": "ym2612"
    },
    {
      "channel": 5,
      "note": 7,
      "start": 144.0756,
      "duration": 2.2499,
      "velocity": 1,
      "chip": "ym2612"
    },
    {
      "channel": 0,
      "note": 35,
      "start": 144.22,
      "duration": 0.132,
      "velocity": 124,
      "chip": "ym2612"
    },
    {
      "channel": 1,
      "note": 26,
      "start": 144.2212,
      "duration": 0.1313,
      "velocity": 125,
      "chip": "ym2612"
    },
    {
      "channel": 3,
      "note": 42,
      "start": 144.2224,
      "duration": 0.1319,
      "velocity": 124,
      "chip": "ym2612"
    },
    {
      "channel": 4,
      "note": 71,
      "start": 144.2231,
      "duration": 0.0815,
      "velocity": 122,
      "chip": "ym2612"
    },
    {
      "channel": 0,
      "note": 23,
      "start": 144.3524,
      "duration": 0.1485,
      "velocity": 124,
      "chip": "ym2612"
    },
    {
      "channel": 1,
      "note": 46,
      "start": 144.3536,
      "duration": 0.1479,
      "velocity": 114,
      "chip": "ym2612"
    },
    {
      "channel": 3,
      "note": 47,
      "start": 144.3548,
      "duration": 0.1485,
      "velocity": 124,
      "chip": "ym2612"
    },
    {
      "channel": 4,
      "note": 66,
      "start": 144.3554,
      "duration": 0.1485,
      "velocity": 122,
      "chip": "ym2612"
    },
    {
      "channel": 0,
      "note": 23,
      "start": 144.5014,
      "duration": 0.132,
      "velocity": 124,
      "chip": "ym2612"
    },
    {
      "channel": 1,
      "note": 71,
      "start": 144.5026,
      "duration": 0.1314,
      "velocity": 120,
      "chip": "ym2612"
    },
    {
      "channel": 3,
      "note": 49,
      "start": 144.5037,
      "duration": 0.1321,
      "velocity": 124,
      "chip": "ym2612"
    },
    {
      "channel": 4,
      "note": 59,
      "start": 144.5044,
      "duration": 0.0815,
      "velocity": 123,
      "chip": "ym2612"
    },
    {
      "channel": 0,
      "note": 35,
      "start": 144.6338,
      "duration": 0.1485,
      "velocity": 124,
      "chip": "ym2612"
    },
    {
      "channel": 1,
      "note": 72,
      "start": 144.6351,
      "duration": 0.1478,
      "velocity": 113,
      "chip": "ym2612"
    },
    {
      "channel": 3,
      "note": 42,
      "start": 144.6362,
      "duration": 0.1485,
      "velocity": 124,
      "chip": "ym2612"
    },
    {
      "channel": 4,
      "note": 23,
      "start": 144.6369,
      "duration": 0.098,
      "velocity": 123,
      "chip": "ym2612"
    },
    {
      "channel": 0,
      "note": 23,
      "start": 144.7828,
      "duration": 0.132,
      "velocity": 124,
      "chip": "ym2612"
    },
    {
      "channel": 1,
      "note": 38,
      "start": 144.784,
      "duration": 0.1313,
      "velocity": 125,
      "chip": "ym2612"
    },
    {
      "channel": 3,
      "note": 47,
      "start": 144.7851,
      "duration": 0.1319,
      "velocity": 124,
      "chip": "ym2612"
    },
    {
      "channel": 4,
      "note": 35,
      "start": 144.7858,
      "duration": 0.0816,
      "velocity": 123,
      "chip": "ym2612"
    },
    {
      "channel": 0,
      "note": 23,
      "start": 144.9152,
      "duration": 0.1485,
      "velocity": 124,
      "chip": "ym2612"
    },
    {
      "channel": 1,
      "note": 46,
      "start": 144.9164,
      "duration": 0.1479,
      "velocity": 114,
      "chip": "ym2612"
    },
    {
      "channel": 3,
      "note": 42,
      "start": 144.9176,
      "duration": 0.1485,
      "velocity": 124,
      "chip": "ym2612"
    },
    {
      "channel": 4,
      "note": 59,
      "start": 144.9182,
      "duration": 0.0981,
      "velocity": 123,
      "chip": "ym2612"
    },
    {
      "channel": 0,
      "note": 35,
      "start": 145.0641,
      "duration": 0.132,
      "velocity": 124,
      "chip": "ym2612"
    },
    {
      "channel": 1,
      "note": 26,
      "start": 145.0654,
      "duration": 0.1314,
      "velocity": 125,
      "chip": "ym2612"
    },
    {
      "channel": 3,
      "note": 47,
      "start": 145.0665,
      "duration": 0.132,
      "velocity": 124,
      "chip": "ym2612"
    },
    {
      "channel": 0,
      "note": 23,
      "start": 145.1966,
      "duration": 0.1485,
      "velocity": 124,
      "chip": "ym2612"
    },
    {
      "channel": 1,
      "note": 47,
      "start": 145.1978,
      "duration": 0.1479,
      "velocity": 119,
      "chip": "ym2612"
    },
    {
      "channel": 3,
      "note": 50,
      "start": 145.199,
      "duration": 0.1486,
      "velocity": 124,
      "chip": "ym2612"
    },
    {
      "channel": 4,
      "note": 34,
      "start": 145.2002,
      "duration": 0.148,
      "velocity": 64,
      "chip": "ym2612"
    },
    {
      "channel": 0,
      "note": 35,
      "start": 145.3456,
      "duration": 0.1319,
      "velocity": 124,
      "chip": "ym2612"
    },
    {
      "channel": 1,
      "note": 72,
      "start": 145.3468,
      "duration": 0.1312,
      "velocity": 113,
      "chip": "ym2612"
    },
    {
      "channel": 3,
      "note": 42,
      "start": 145.348,
      "duration": 0.1319,
      "velocity": 124,
      "chip": "ym2612"
    },
    {
      "channel": 4,
      "note": 59,
      "start": 145.3493,
      "duration": 0.0809,
      "velocity": 123,
      "chip": "ym2612"
    },
    {
      "channel": 0,
      "note": 23,
      "start": 145.478,
      "duration": 0.1485,
      "velocity": 124,
      "chip": "ym2612"
    },
    {
      "channel": 1,
      "note": 46,
      "start": 145.4792,
      "duration": 0.1479,
      "velocity": 114,
      "chip": "ym2612"
    },
    {
      "channel": 3,
      "note": 50,
      "start": 145.4804,
      "duration": 0.1485,
      "velocity": 124,
      "chip": "ym2612"
    },
    {
      "channel": 0,
      "note": 23,
      "start": 145.6269,
      "duration": 0.132,
      "velocity": 124,
      "chip": "ym2612"
    },
    {
      "channel": 1,
      "note": 47,
      "start": 145.6282,
      "duration": 0.1314,
      "velocity": 119,
      "chip": "ym2612"
    },
    {
      "channel": 3,
      "note": 49,
      "start": 145.6293,
      "duration": 0.1321,
      "velocity": 124,
      "chip": "ym2612"
    },
    {
      "channel": 4,
      "note": 59,
      "start": 145.6299,
      "duration": 0.0816,
      "velocity": 123,
      "chip": "ym2612"
    },
    {
      "channel": 0,
      "note": 35,
      "start": 145.7594,
      "duration": 0.1485,
      "velocity": 124,
      "chip": "ym2612"
    },
    {
      "channel": 1,
      "note": 72,
      "start": 145.7607,
      "duration": 0.1478,
      "velocity": 113,
      "chip": "ym2612"
    },
    {
      "channel": 3,
      "note": 42,
      "start": 145.7618,
      "duration": 0.1485,
      "velocity": 124,
      "chip": "ym2612"
    },
    {
      "channel": 0,
      "note": 23,
      "start": 145.9084,
      "duration": 0.1319,
      "velocity": 124,
      "chip": "ym2612"
    },
    {
      "channel": 1,
      "note": 46,
      "start": 145.9096,
      "duration": 0.1313,
      "velocity": 114,
      "chip": "ym2612"
    },
    {
      "channel": 3,
      "note": 47,
      "start": 145.9107,
      "duration": 0.1319,
      "velocity": 124,
      "chip": "ym2612"
    },
    {
      "channel": 4,
      "note": 34,
      "start": 145.912,
      "duration": 0.1313,
      "velocity": 64,
      "chip": "ym2612"
    },
    {
      "channel": 0,
      "note": 23,
      "start": 146.0407,
      "duration": 0.1485,
      "velocity": 124,
      "chip": "ym2612"
    },
    {
      "channel": 1,
      "note": 47,
      "start": 146.042,
      "duration": 0.148,
      "velocity": 119,
      "chip": "ym2612"
    },
    {
      "channel": 3,
      "note": 42,
      "start": 146.0432,
      "duration": 0.1485,
      "velocity": 124,
      "chip": "ym2612"
    },
    {
      "channel": 4,
      "note": 59,
      "start": 146.0444,
      "duration": 0.0976,
      "velocity": 123,
      "chip": "ym2612"
    },
    {
      "channel": 0,
      "note": 35,
      "start": 146.1898,
      "duration": 0.1319,
      "velocity": 124,
      "chip": "ym2612"
    },
    {
      "channel": 1,
      "note": 38,
      "start": 146.191,
      "duration": 0.0649,
      "velocity": 125,
      "chip": "ym2612"
    },
    {
      "channel": 3,
      "note": 47,
      "start": 146.1922,
      "duration": 0.1321,
      "velocity": 124,
      "chip": "ym2612"
    },
    {
      "channel": 1,
      "note": 38,
      "start": 146.2564,
      "duration": 0.0659,
      "velocity": 119,
      "chip": "ym2612"
    },
    {
      "channel": 0,
      "note": 35,
      "start": 146.3222,
      "duration": 0.1485,
      "velocity": 124,
      "chip": "ym2612"
    },
    {
      "channel": 1,
      "note": 47,
      "start": 146.3234,
      "duration": 0.1478,
      "velocity": 119,
      "chip": "ym2612"
    },
    {
      "channel": 2,
      "note": 28,
      "start": 146.3241,
      "duration": 2.2506,
      "velocity": 108,
      "chip": "ym2612"
    },
    {
      "channel": 3,
      "note": 47,
      "start": 146.3248,
      "duration": 0.1483,
      "velocity": 124,
      "chip": "ym2612"
    },
    {
      "channel": 5,
      "note": 7,
      "start": 146.3259,
      "duration": 2.2514,
      "velocity": 1,
      "chip": "ym2612"
    },
    {
      "channel": 0,
      "note": 33,
      "start": 146.4711,
      "duration": 0.132,
      "velocity": 124,
      "chip": "ym2612"
    },
    {
      "channel": 1,
      "note": 26,
      "start": 146.4723,
      "duration": 0.1314,
      "velocity": 125,
      "chip": "ym2612"
    },
    {
      "channel": 3,
      "note": 42,
      "start": 146.4736,
      "duration": 0.1319,
      "velocity": 124,
      "chip": "ym2612"
    },
    {
      "channel": 4,
      "note": 59,
      "start": 146.4742,
      "duration": 0.0815,
      "velocity": 123,
      "chip": "ym2612"
    },
    {
      "channel": 0,
      "note": 21,
      "start": 146.6035,
      "duration": 0.1485,
      "velocity": 124,
      "chip": "ym2612"
    },
    {
      "channel": 1,
      "note": 46,
      "start": 146.6047,
      "duration": 0.1479,
      "velocity": 114,
      "chip": "ym2612"
    },
    {
      "channel": 3,
      "note": 47,
      "start": 146.6059,
      "duration": 0.1485,
      "velocity": 124,
      "chip": "ym2612"
    },
    {
      "channel": 0,
      "note": 21,
      "start": 146.7525,
      "duration": 0.1319,
      "velocity": 124,
      "chip": "ym2612"
    },
    {
      "channel": 1,
      "note": 71,
      "start": 146.7537,
      "duration": 0.1314,
      "velocity": 120,
      "chip": "ym2612"
    },
    {
      "channel": 3,
      "note": 49,
      "start": 146.7549,
      "duration": 0.1321,
      "velocity": 124,
      "chip": "ym2612"
    },
    {
      "channel": 4,
      "note": 59,
      "start": 146.7556,
      "duration": 0.0815,
      "velocity": 123,
      "chip": "ym2612"
    },
    {
      "channel": 0,
      "note": 33,
      "start": 146.885,
      "duration": 0.1485,
      "velocity": 124,
      "chip": "ym2612"
    },
    {
      "channel": 1,
      "note": 72,
      "start": 146.8862,
      "duration": 0.1478,
      "velocity": 113,
      "chip": "ym2612"
    },
    {
      "channel": 3,
      "note": 42,
      "start": 146.8874,
      "duration": 0.1484,
      "velocity": 124,
      "chip": "ym2612"
    },
    {
      "channel": 0,
      "note": 21,
      "start": 147.0339,
      "duration": 0.132,
      "velocity": 124,
      "chip": "ym2612"
    },
    {
      "channel": 1,
      "note": 38,
      "start": 147.0351,
      "duration": 0.1314,
      "velocity": 125,
      "chip": "ym2612"
    },
    {
      "channel": 3,
      "note": 47,
      "start": 147.0363,
      "duration": 0.1319,
      "velocity": 124,
      "chip": "ym2612"
    },
    {
      "channel": 0,
      "note": 21,
      "start": 147.1663,
      "duration": 0.1485,
      "velocity": 124,
      "chip": "ym2612"
    },
    {
      "channel": 1,
      "note": 46,
      "start": 147.1675,
      "duration": 0.1479,
      "velocity": 114,
      "chip": "ym2612"
    },
    {
      "channel": 3,
      "note": 42,
      "start": 147.1687,
      "duration": 0.1485,
      "velocity": 124,
      "chip": "ym2612"
    },
    {
      "channel": 4,
      "note": 59,
      "start": 147.1694,
      "duration": 0.0981,
      "velocity": 123,
      "chip": "ym2612"
    },
    {
      "channel": 0,
      "note": 33,
      "start": 147.3153,
      "duration": 0.1319,
      "velocity": 124,
      "chip": "ym2612"
    },
    {
      "channel": 1,
      "note": 26,
      "start": 147.3165,
      "duration": 0.1314,
      "velocity": 125,
      "chip": "ym2612"
    },
    {
      "channel": 3,
      "note": 47,
      "start": 147.3177,
      "duration": 0.132,
      "velocity": 124,
      "chip": "ym2612"
    },
    {
      "channel": 0,
      "note": 21,
      "start": 147.4478,
      "duration": 0.1485,
      "velocity": 124,
      "chip": "ym2612"
    },
    {
      "channel": 1,
      "note": 47,
      "start": 147.449,
      "duration": 0.1479,
      "velocity": 119,
      "chip": "ym2612"
    },
    {
      "channel": 3,
      "note": 50,
      "start": 147.4501,
      "duration": 0.1486,
      "velocity": 124,
      "chip": "ym2612"
    },
    {
      "channel": 4,
      "note": 34,
      "start": 147.4513,
      "duration": 0.148,
      "velocity": 64,
      "chip": "ym2612"
    },
    {
      "channel": 0,
      "note": 33,
      "start": 147.5967,
      "duration": 0.1319,
      "velocity": 124,
      "chip": "ym2612"
    },
    {
      "channel": 1,
      "note": 72,
      "start": 147.598,
      "duration": 0.1312,
      "velocity": 113,
      "chip": "ym2612"
    },
    {
      "channel": 3,
      "note": 42,
      "start": 147.5991,
      "duration": 0.1319,
      "velocity": 124,
      "chip": "ym2612"
    },
    {
      "channel": 4,
      "note": 59,
      "start": 147.6004,
      "duration": 0.0809,
      "velocity": 123,
      "chip": "ym2612"
    },
    {
      "channel": 0,
      "note": 21,
      "start": 147.7291,
      "duration": 0.1485,
      "velocity": 124,
      "chip": "ym2612"
    },
    {
      "channel": 1,
      "note": 46,
      "start": 147.7303,
      "duration": 0.1479,
      "velocity": 114,
      "chip": "ym2612"
    },
    {
      "channel": 3,
      "note": 50,
      "start": 147.7315,
      "duration": 0.1485,
      "velocity": 124,
      "chip": "ym2612"
    },
    {
      "channel": 0,
      "note": 21,
      "start": 147.8781,
      "duration": 0.1319,
      "velocity": 124,
      "chip": "ym2612"
    },
    {
      "channel": 1,
      "note": 47,
      "start": 147.8793,
      "duration": 0.1314,
      "velocity": 119,
      "chip": "ym2612"
    },
    {
      "channel": 3,
      "note": 49,
      "start": 147.8805,
      "duration": 0.132,
      "velocity": 124,
      "chip": "ym2612"
    },
    {
      "channel": 0,
      "note": 33,
      "start": 148.0105,
      "duration": 0.1485,
      "velocity": 124,
      "chip": "ym2612"
    },
    {
      "channel": 1,
      "note": 72,
      "start": 148.0118,
      "duration": 0.1478,
      "velocity": 113,
      "chip": "ym2612"
    },
    {
      "channel": 3,
      "note": 42,
      "start": 148.0129,
      "duration": 0.1485,
      "velocity": 124,
      "chip": "ym2612"
    },
    {
      "channel": 0,
      "note": 21,
      "start": 148.1595,
      "duration": 0.132,
      "velocity": 124,
      "chip": "ym2612"
    },
    {
      "channel": 1,
      "note": 46,
      "start": 148.1607,
      "duration": 0.1313,
      "velocity": 114,
      "chip": "ym2612"
    },
    {
      "channel": 3,
      "note": 47,
      "start": 148.1619,
      "duration": 0.132,
      "velocity": 124,
      "chip": "ym2612"
    },
    {
      "channel": 0,
      "note": 21,
      "start": 148.2919,
      "duration": 0.1485,
      "velocity": 124,
      "chip": "ym2612"
    },
    {
      "channel": 1,
      "note": 47,
      "start": 148.2931,
      "duration": 0.1479,
      "velocity": 119,
      "chip": "ym2612"
    },
    {
      "channel": 3,
      "note": 42,
      "start": 148.2942,
      "duration": 0.1485,
      "velocity": 124,
      "chip": "ym2612"
    },
    {
      "channel": 4,
      "note": 22,
      "start": 148.2955,
      "duration": 0.0976,
      "velocity": 64,
      "chip": "ym2612"
    },
    {
      "channel": 0,
      "note": 33,
      "start": 148.4409,
      "duration": 0.1319,
      "velocity": 124,
      "chip": "ym2612"
    },
    {
      "channel": 1,
      "note": 38,
      "start": 148.4421,
      "duration": 0.065,
      "velocity": 125,
      "chip": "ym2612"
    },
    {
      "channel": 3,
      "note": 47,
      "start": 148.4432,
      "duration": 0.1322,
      "velocity": 124,
      "chip": "ym2612"
    },
    {
      "channel": 4,
      "note": 34,
      "start": 148.4439,
      "duration": 0.0816,
      "velocity": 64,
      "chip": "ym2612"
    },
    {
      "channel": 1,
      "note": 38,
      "start": 148.5076,
      "duration": 0.0659,
      "velocity": 119,
      "chip": "ym2612"
    },
    {
      "channel": 0,
      "note": 33,
      "start": 148.5733,
      "duration": 0.1485,
      "velocity": 124,
      "chip": "ym2612"
    },
    {
      "channel": 1,
      "note": 47,
      "start": 148.5745,
      "duration": 0.1478,
      "velocity": 119,
      "chip": "ym2612"
    },
    {
      "channel": 2,
      "note": 31,
      "start": 148.5753,
      "duration": 2.2505,
      "velocity": 108,
      "chip": "ym2612"
    },
    {
      "channel": 3,
      "note": 47,
      "start": 148.5759,
      "duration": 0.1483,
      "velocity": 124,
      "chip": "ym2612"
    },
    {
      "channel": 4,
      "note": 71,
      "start": 148.5771,
      "duration": 0.1477,
      "velocity": 122,
      "chip": "ym2612"
    },
    {
      "channel": 5,
      "note": 7,
      "start": 148.5778,
      "duration": 2.2499,
      "velocity": 1,
      "chip": "ym2612"
    },
    {
      "channel": 0,
      "note": 31,
      "start": 148.7222,
      "duration": 0.132,
      "velocity": 124,
      "chip": "ym2612"
    },
    {
      "channel": 1,
      "note": 26,
      "start": 148.7235,
      "duration": 0.1313,
      "velocity": 125,
      "chip": "ym2612"
    },
    {
      "channel": 3,
      "note": 42,
      "start": 148.7247,
      "duration": 0.1319,
      "velocity": 124,
      "chip": "ym2612"
    },
    {
      "channel": 4,
      "note": 71,
      "start": 148.7254,
      "duration": 0.0816,
      "velocity": 122,
      "chip": "ym2612"
    },
    {
      "channel": 0,
      "note": 19,
      "start": 148.8547,
      "duration": 0.1485,
      "velocity": 124,
      "chip": "ym2612"
    },
    {
      "channel": 1,
      "note": 46,
      "start": 148.8559,
      "duration": 0.1479,
      "velocity": 114,
      "chip": "ym2612"
    },
    {
      "channel": 3,
      "note": 47,
      "start": 148.8571,
      "duration": 0.1485,
      "velocity": 124,
      "chip": "ym2612"
    },
    {
      "channel": 4,
      "note": 66,
      "start": 148.8577,
      "duration": 0.1485,
      "velocity": 122,
      "chip": "ym2612"
    },
    {
      "channel": 0,
      "note": 19,
      "start": 149.0037,
      "duration": 0.132,
      "velocity": 124,
      "chip": "ym2612"
    },
    {
      "channel": 1,
      "note": 71,
      "start": 149.0049,
      "duration": 0.1314,
      "velocity": 120,
      "chip": "ym2612"
    },
    {
      "channel": 3,
      "note": 49,
      "start": 149.006,
      "duration": 0.1321,
      "velocity": 124,
      "chip": "ym2612"
    },
    {
      "channel": 4,
      "note": 59,
      "start": 149.0067,
      "duration": 0.0815,
      "velocity": 123,
      "chip": "ym2612"
    },
    {
      "channel": 0,
      "note": 31,
      "start": 149.1361,
      "duration": 0.1485,
      "velocity": 124,
      "chip": "ym2612"
    },
    {
      "channel": 1,
      "note": 72,
      "start": 149.1374,
      "duration": 0.1478,
      "velocity": 113,
      "chip": "ym2612"
    },
    {
      "channel": 3,
      "note": 42,
      "start": 149.1385,
      "duration": 0.1484,
      "velocity": 124,
      "chip": "ym2612"
    },
    {
      "channel": 4,
      "note": 23,
      "start": 149.1392,
      "duration": 0.098,
      "velocity": 123,
      "chip": "ym2612"
    },
    {
      "channel": 0,
      "note": 19,
      "start": 149.285,
      "duration": 0.132,
      "velocity": 124,
      "chip": "ym2612"
    },
    {
      "channel": 1,
      "note": 38,
      "start": 149.2862,
      "duration": 0.1314,
      "velocity": 125,
      "chip": "ym2612"
    },
    {
      "channel": 3,
      "note": 47,
      "start": 149.2874,
      "duration": 0.1319,
      "velocity": 124,
      "chip": "ym2612"
    },
    {
      "channel": 4,
      "note": 35,
      "start": 149.2881,
      "duration": 0.0816,
      "velocity": 123,
      "chip": "ym2612"
    },
    {
      "channel": 0,
      "note": 19,
      "start": 149.4175,
      "duration": 0.1485,
      "velocity": 124,
      "chip": "ym2612"
    },
    {
      "channel": 1,
      "note": 46,
      "start": 149.4187,
      "duration": 0.1479,
      "velocity": 114,
      "chip": "ym2612"
    },
    {
      "channel": 3,
      "note": 42,
      "start": 149.4198,
      "duration": 0.1485,
      "velocity": 124,
      "chip": "ym2612"
    },
    {
      "channel": 4,
      "note": 59,
      "start": 149.4205,
      "duration": 0.0981,
      "velocity": 123,
      "chip": "ym2612"
    },
    {
      "channel": 0,
      "note": 31,
      "start": 149.5664,
      "duration": 0.132,
      "velocity": 124,
      "chip": "ym2612"
    },
    {
      "channel": 1,
      "note": 26,
      "start": 149.5677,
      "duration": 0.1314,
      "velocity": 125,
      "chip": "ym2612"
    },
    {
      "channel": 3,
      "note": 47,
      "start": 149.5688,
      "duration": 0.132,
      "velocity": 124,
      "chip": "ym2612"
    },
    {
      "channel": 0,
      "note": 19,
      "start": 149.6989,
      "duration": 0.1485,
      "velocity": 124,
      "chip": "ym2612"
    },
    {
      "channel": 1,
      "note": 47,
      "start": 149.7001,
      "duration": 0.1478,
      "velocity": 119,
      "chip": "ym2612"
    },
    {
      "channel": 3,
      "note": 50,
      "start": 149.7012,
      "duration": 0.1485,
      "velocity": 124,
      "chip": "ym2612"
    },
    {
      "channel": 4,
      "note": 34,
      "start": 149.7024,
      "duration": 0.148,
      "velocity": 64,
      "chip": "ym2612"
    },
    {
      "channel": 0,
      "note": 31,
      "start": 149.8478,
      "duration": 0.132,
      "velocity": 124,
      "chip": "ym2612"
    },
    {
      "channel": 1,
      "note": 72,
      "start": 149.8491,
      "duration": 0.1313,
      "velocity": 113,
      "chip": "ym2612"
    },
    {
      "channel": 3,
      "note": 42,
      "start": 149.8503,
      "duration": 0.1319,
      "velocity": 124,
      "chip": "ym2612"
    },
    {
      "channel": 4,
      "note": 59,
      "start": 149.8515,
      "duration": 0.081,
      "velocity": 123,
      "chip": "ym2612"
    },
    {
      "channel": 0,
      "note": 19,
      "start": 149.9802,
      "duration": 0.1485,
      "velocity": 124,
      "chip": "ym2612"
    },
    {
      "channel": 1,
      "note": 46,
      "start": 149.9815,
      "duration": 0.1479,
      "velocity": 114,
      "chip": "ym2612"
    },
    {
      "channel": 3,
      "note": 50,
      "start": 149.9826,
      "duration": 0.1485,
      "velocity": 124,
      "chip": "ym2612"
    },
    {
      "channel": 0,
      "note": 19,
      "start": 150.1292,
      "duration": 0.132,
      "velocity": 124,
      "chip": "ym2612"
    },
    {
      "channel": 1,
      "note": 47,
      "start": 150.1305,
      "duration": 0.1314,
      "velocity": 119,
      "chip": "ym2612"
    },
    {
      "channel": 3,
      "note": 49,
      "start": 150.1316,
      "duration": 0.1321,
      "velocity": 124,
      "chip": "ym2612"
    },
    {
      "channel": 4,
      "note": 59,
      "start": 150.1322,
      "duration": 0.0816,
      "velocity": 123,
      "chip": "ym2612"
    },
    {
      "channel": 0,
      "note": 31,
      "start": 150.2617,
      "duration": 0.1485,
      "velocity": 124,
      "chip": "ym2612"
    },
    {
      "channel": 1,
      "note": 72,
      "start": 150.2629,
      "duration": 0.1478,
      "velocity": 113,
      "chip": "ym2612"
    },
    {
      "channel": 3,
      "note": 42,
      "start": 150.2641,
      "duration": 0.1484,
      "velocity": 124,
      "chip": "ym2612"
    },
    {
      "channel": 0,
      "note": 19,
      "start": 150.4106,
      "duration": 0.132,
      "velocity": 124,
      "chip": "ym2612"
    },
    {
      "channel": 1,
      "note": 46,
      "start": 150.4118,
      "duration": 0.1314,
      "velocity": 114,
      "chip": "ym2612"
    },
    {
      "channel": 3,
      "note": 47,
      "start": 150.413,
      "duration": 0.1319,
      "velocity": 124,
      "chip": "ym2612"
    },
    {
      "channel": 4,
      "note": 34,
      "start": 150.4142,
      "duration": 0.1313,
      "velocity": 64,
      "chip": "ym2612"
    },
    {
      "channel": 0,
      "note": 19,
      "start": 150.543,
      "duration": 0.1485,
      "velocity": 124,
      "chip": "ym2612"
    },
    {
      "channel": 1,
      "note": 47,
      "start": 150.5442,
      "duration": 0.1479,
      "velocity": 119,
      "chip": "ym2612"
    },
    {
      "channel": 3,
      "note": 42,
      "start": 150.5454,
      "duration": 0.1485,
      "velocity": 124,
      "chip": "ym2612"
    },
    {
      "channel": 4,
      "note": 59,
      "start": 150.5466,
      "duration": 0.0976,
      "velocity": 123,
      "chip": "ym2612"
    },
    {
      "channel": 0,
      "note": 31,
      "start": 150.692,
      "duration": 0.1319,
      "velocity": 124,
      "chip": "ym2612"
    },
    {
      "channel": 1,
      "note": 38,
      "start": 150.6932,
      "duration": 0.065,
      "velocity": 125,
      "chip": "ym2612"
    },
    {
      "channel": 3,
      "note": 47,
      "start": 150.6944,
      "duration": 0.1322,
      "velocity": 124,
      "chip": "ym2612"
    },
    {
      "channel": 1,
      "note": 38,
      "start": 150.7587,
      "duration": 0.0659,
      "velocity": 119,
      "chip": "ym2612"
    },
    {
      "channel": 0,
      "note": 31,
      "start": 150.8245,
      "duration": 0.1485,
      "velocity": 124,
      "chip": "ym2612"
    },
    {
      "channel": 1,
      "note": 47,
      "start": 150.8257,
      "duration": 0.1479,
      "velocity": 119,
      "chip": "ym2612"
    },
    {
      "channel": 2,
      "note": 30,
      "start": 150.8264,
      "duration": 2.2506,
      "velocity": 108,
      "chip": "ym2612"
    },
    {
      "channel": 3,
      "note": 47,
      "start": 150.827,
      "duration": 0.1483,
      "velocity": 124,
      "chip": "ym2612"
    },
    {
      "channel": 5,
      "note": 7,
      "start": 150.8282,
      "duration": 2.252,
      "velocity": 1,
      "chip": "ym2612"
    },
    {
      "channel": 0,
      "note": 35,
      "start": 150.9734,
      "duration": 0.1319,
      "velocity": 124,
      "chip": "ym2612"
    },
    {
      "channel": 1,
      "note": 26,
      "start": 150.9746,
      "duration": 0.1313,
      "velocity": 125,
      "chip": "ym2612"
    },
    {
      "channel": 3,
      "note": 42,
      "start": 150.9759,
      "duration": 0.1319,
      "velocity": 124,
      "chip": "ym2612"
    },
    {
      "channel": 4,
      "note": 59,
      "start": 150.9765,
      "duration": 0.0815,
      "velocity": 123,
      "chip": "ym2612"
    },
    {
      "channel": 0,
      "note": 23,
      "start": 151.1058,
      "duration": 0.1485,
      "velocity": 124,
      "chip": "ym2612"
    },
    {
      "channel": 1,
      "note": 46,
      "start": 151.1071,
      "duration": 0.1478,
      "velocity": 114,
      "chip": "ym2612"
    },
    {
      "channel": 3,
      "note": 47,
      "start": 151.1082,
      "duration": 0.1485,
      "velocity": 124,
      "chip": "ym2612"
    },
    {
      "channel": 0,
      "note": 23,
      "start": 151.2548,
      "duration": 0.1319,
      "velocity": 124,
      "chip": "ym2612"
    },
    {
      "channel": 1,
      "note": 71,
      "start": 151.256,
      "duration": 0.1313,
      "velocity": 120,
      "chip": "ym2612"
    },
    {
      "channel": 3,
      "note": 49,
      "start": 151.2572,
      "duration": 0.132,
      "velocity": 124,
      "chip": "ym2612"
    },
    {
      "channel": 4,
      "note": 59,
      "start": 151.2579,
      "duration": 0.0815,
      "velocity": 123,
      "chip": "ym2612"
    },
    {
      "channel": 0,
      "note": 35,
      "start": 151.3872,
      "duration": 0.1485,
      "velocity": 124,
      "chip": "ym2612"
    },
    {
      "channel": 1,
      "note": 72,
      "start": 151.3885,
      "duration": 0.1478,
      "velocity": 113,
      "chip": "ym2612"
    },
    {
      "channel": 3,
      "note": 42,
      "start": 151.3897,
      "duration": 0.1483,
      "velocity": 124,
      "chip": "ym2612"
    },
    {
      "channel": 0,
      "note": 23,
      "start": 151.5362,
      "duration": 0.132,
      "velocity": 124,
      "chip": "ym2612"
    },
    {
      "channel": 1,
      "note": 38,
      "start": 151.5374,
      "duration": 0.1314,
      "velocity": 125,
      "chip": "ym2612"
    },
    {
      "channel": 3,
      "note": 47,
      "start": 151.5386,
      "duration": 0.1319,
      "velocity": 124,
      "chip": "ym2612"
    },
    {
      "channel": 0,
      "note": 23,
      "start": 151.6686,
      "duration": 0.1485,
      "velocity": 124,
      "chip": "ym2612"
    },
    {
      "channel": 1,
      "note": 46,
      "start": 151.6698,
      "duration": 0.1479,
      "velocity": 114,
      "chip": "ym2612"
    },
    {
      "channel": 3,
      "note": 42,
      "start": 151.671,
      "duration": 0.1485,
      "velocity": 124,
      "chip": "ym2612"
    },
    {
      "channel": 4,
      "note": 59,
      "start": 151.6717,
      "duration": 0.0981,
      "velocity": 123,
      "chip": "ym2612"
    },
    {
      "channel": 0,
      "note": 35,
      "start": 151.8176,
      "duration": 0.1319,
      "velocity": 124,
      "chip": "ym2612"
    },
    {
      "channel": 1,
      "note": 26,
      "start": 151.8188,
      "duration": 0.1314,
      "velocity": 125,
      "chip": "ym2612"
    },
    {
      "channel": 3,
      "note": 47,
      "start": 151.82,
      "duration": 0.132,
      "velocity": 124,
      "chip": "ym2612"
    },
    {
      "channel": 0,
      "note": 23,
      "start": 151.95,
      "duration": 0.1485,
      "velocity": 124,
      "chip": "ym2612"
    },
    {
      "channel": 1,
      "note": 47,
      "start": 151.9512,
      "duration": 0.1478,
      "velocity": 119,
      "chip": "ym2612"
    },
    {
      "channel": 3,
      "note": 50,
      "start": 151.9524,
      "duration": 0.1485,
      "velocity": 124,
      "chip": "ym2612"
    },
    {
      "channel": 4,
      "note": 34,
      "start": 151.9536,
      "duration": 0.148,
      "velocity": 64,
      "chip": "ym2612"
    },
    {
      "channel": 0,
      "note": 35,
      "start": 152.099,
      "duration": 0.1319,
      "velocity": 124,
      "chip": "ym2612"
    },
    {
      "channel": 1,
      "note": 72,
      "start": 152.1002,
      "duration": 0.1313,
      "velocity": 113,
      "chip": "ym2612"
    },
    {
      "channel": 3,
      "note": 42,
      "start": 152.1014,
      "duration": 0.1319,
      "velocity": 124,
      "chip": "ym2612"
    },
    {
      "channel": 4,
      "note": 59,
      "start": 152.1027,
      "duration": 0.081,
      "velocity": 123,
      "chip": "ym2612"
    },
    {
      "channel": 0,
      "note": 23,
      "start": 152.2314,
      "duration": 0.1485,
      "velocity": 124,
      "chip": "ym2612"
    },
    {
      "channel": 1,
      "note": 46,
      "start": 152.2326,
      "duration": 0.1479,
      "velocity": 114,
      "chip": "ym2612"
    },
    {
      "channel": 3,
      "note": 50,
      "start": 152.2337,
      "duration": 0.1485,
      "velocity": 124,
      "chip": "ym2612"
    },
    {
      "channel": 0,
      "note": 23,
      "start": 152.3804,
      "duration": 0.1319,
      "velocity": 124,
      "chip": "ym2612"
    },
    {
      "channel": 1,
      "note": 47,
      "start": 152.3816,
      "duration": 0.1313,
      "velocity": 119,
      "chip": "ym2612"
    },
    {
      "channel": 3,
      "note": 49,
      "start": 152.3827,
      "duration": 0.132,
      "velocity": 124,
      "chip": "ym2612"
    },
    {
      "channel": 0,
      "note": 35,
      "start": 152.5128,
      "duration": 0.1485,
      "velocity": 124,
      "chip": "ym2612"
    },
    {
      "channel": 1,
      "note": 72,
      "start": 152.5141,
      "duration": 0.1478,
      "velocity": 113,
      "chip": "ym2612"
    },
    {
      "channel": 3,
      "note": 42,
      "start": 152.5152,
      "duration": 0.1484,
      "velocity": 124,
      "chip": "ym2612"
    },
    {
      "channel": 0,
      "note": 23,
      "start": 152.6617,
      "duration": 0.132,
      "velocity": 124,
      "chip": "ym2612"
    },
    {
      "channel": 1,
      "note": 46,
      "start": 152.6629,
      "duration": 0.1314,
      "velocity": 114,
      "chip": "ym2612"
    },
    {
      "channel": 3,
      "note": 47,
      "start": 152.6641,
      "duration": 0.132,
      "velocity": 124,
      "chip": "ym2612"
    },
    {
      "channel": 0,
      "note": 23,
      "start": 152.7942,
      "duration": 0.1485,
      "velocity": 124,
      "chip": "ym2612"
    },
    {
      "channel": 1,
      "note": 47,
      "start": 152.7954,
      "duration": 0.1479,
      "velocity": 119,
      "chip": "ym2612"
    },
    {
      "channel": 3,
      "note": 42,
      "start": 152.7965,
      "duration": 0.1485,
      "velocity": 124,
      "chip": "ym2612"
    },
    {
      "channel": 4,
      "note": 22,
      "start": 152.7978,
      "duration": 0.0976,
      "velocity": 64,
      "chip": "ym2612"
    },
    {
      "channel": 0,
      "note": 35,
      "start": 152.9432,
      "duration": 0.1319,
      "velocity": 124,
      "chip": "ym2612"
    },
    {
      "channel": 1,
      "note": 38,
      "start": 152.9444,
      "duration": 0.065,
      "velocity": 125,
      "chip": "ym2612"
    },
    {
      "channel": 3,
      "note": 47,
      "start": 152.9455,
      "duration": 0.1321,
      "velocity": 124,
      "chip": "ym2612"
    },
    {
      "channel": 4,
      "note": 34,
      "start": 152.9461,
      "duration": 0.0816,
      "velocity": 64,
      "chip": "ym2612"
    },
    {
      "channel": 1,
      "note": 38,
      "start": 153.0098,
      "duration": 0.0658,
      "velocity": 119,
      "chip": "ym2612"
    },
    {
      "channel": 0,
      "note": 23,
      "start": 153.0756,
      "duration": 0.1654,
      "velocity": 124,
      "chip": "ym2612"
    },
    {
      "channel": 1,
      "note": 71,
      "start": 153.0768,
      "duration": 0.1478,
      "velocity": 122,
      "chip": "ym2612"
    },
    {
      "channel": 2,
      "note": 38,
      "start": 153.0775,
      "duration": 0.1477,
      "velocity": 108,
      "chip": "ym2612"
    },
    {
      "channel": 3,
      "note": 42,
      "start": 153.0788,
      "duration": 0.1471,
      "velocity": 108,
      "chip": "ym2612"
    },
    {
      "channel": 4,
      "note": 59,
      "start": 153.08,
      "duration": 0.1466,
      "velocity": 119,
      "chip": "ym2612"
    },
    {
      "channel": 5,
      "note": 23,
      "start": 153.0812,
      "duration": 4.5006,
      "velocity": 122,
      "chip": "ym2612"
    },
    {
      "channel": 1,
      "note": 71,
      "start": 153.225,
      "duration": 0.0826,
      "velocity": 122,
      "chip": "ym2612"
    },
    {
      "channel": 2,
      "note": 47,
      "start": 153.2257,
      "duration": 0.1321,
      "velocity": 108,
      "chip": "ym2612"
    },
    {
      "channel": 3,
      "note": 35,
      "start": 153.2264,
      "duration": 0.1321,
      "velocity": 108,
      "chip": "ym2612"
    },
    {
      "channel": 4,
      "note": 74,
      "start": 153.2276,
      "duration": 0.1316,
      "velocity": 65,
      "chip": "ym2612"
    },
    {
      "channel": 0,
      "note": 23,
      "start": 153.357,
      "duration": 0.1653,
      "velocity": 124,
      "chip": "ym2612"
    },
    {
      "channel": 1,
      "note": 66,
      "start": 153.3577,
      "duration": 0.1483,
      "velocity": 122,
      "chip": "ym2612"
    },
    {
      "channel": 2,
      "note": 40,
      "start": 153.3584,
      "duration": 0.1483,
      "velocity": 107,
      "chip": "ym2612"
    },
    {
      "channel": 3,
      "note": 44,
      "start": 153.3591,
      "duration": 0.1483,
      "velocity": 107,
      "chip": "ym2612"
    },
    {
      "channel": 4,
      "note": 74,
      "start": 153.3603,
      "duration": 0.1478,
      "velocity": 59,
      "chip": "ym2612"
    },
    {
      "channel": 1,
      "note": 59,
      "start": 153.5065,
      "duration": 0.0826,
      "velocity": 123,
      "chip": "ym2612"
    },
    {
      "channel": 2,
      "note": 47,
      "start": 153.5072,
      "duration": 0.132,
      "velocity": 107,
      "chip": "ym2612"
    },
    {
      "channel": 3,
      "note": 35,
      "start": 153.5079,
      "duration": 0.1321,
      "velocity": 107,
      "chip": "ym2612"
    },
    {
      "channel": 4,
      "note": 74,
      "start": 153.5085,
      "duration": 0.1321,
      "velocity": 59,
      "chip": "ym2612"
    },
    {
      "channel": 0,
      "note": 23,
      "start": 153.6383,
      "duration": 0.1654,
      "velocity": 124,
      "chip": "ym2612"
    },
    {
      "channel": 1,
      "note": 23,
      "start": 153.639,
      "duration": 0.099,
      "velocity": 123,
      "chip": "ym2612"
    },
    {
      "channel": 2,
      "note": 38,
      "start": 153.6397,
      "duration": 0.1482,
      "velocity": 106,
      "chip": "ym2612"
    },
    {
      "channel": 3,
      "note": 42,
      "start": 153.6405,
      "duration": 0.1481,
      "velocity": 106,
      "chip": "ym2612"
    },
    {
      "channel": 4,
      "note": 74,
      "start": 153.6417,
      "duration": 0.1476,
      "velocity": 65,
      "chip": "ym2612"
    },
    {
      "channel": 1,
      "note": 35,
      "start": 153.7878,
      "duration": 0.0826,
      "velocity": 123,
      "chip": "ym2612"
    },
    {
      "channel": 2,
      "note": 47,
      "start": 153.7885,
      "duration": 0.132,
      "velocity": 106,
      "chip": "ym2612"
    },
    {
      "channel": 3,
      "note": 35,
      "start": 153.7892,
      "duration": 0.1321,
      "velocity": 106,
      "chip": "ym2612"
    },
    {
      "channel": 4,
      "note": 74,
      "start": 153.7905,
      "duration": 0.1315,
      "velocity": 59,
      "chip": "ym2612"
    },
    {
      "channel": 0,
      "note": 23,
      "start": 153.9198,
      "duration": 0.0992,
      "velocity": 124,
      "chip": "ym2612"
    },
    {
      "channel": 1,
      "note": 59,
      "start": 153.9204,
      "duration": 0.099,
      "velocity": 123,
      "chip": "ym2612"
    },
    {
      "channel": 2,
      "note": 37,
      "start": 153.9211,
      "duration": 0.1483,
      "velocity": 105,
      "chip": "ym2612"
    },
    {
      "channel": 3,
      "note": 40,
      "start": 153.9218,
      "duration": 0.1483,
      "velocity": 105,
      "chip": "ym2612"
    },
    {
      "channel": 4,
      "note": 74,
      "start": 153.9224,
      "duration": 0.1483,
      "velocity": 59,
      "chip": "ym2612"
    },
    {
      "channel": 0,
      "note": 23,
      "start": 154.0687,
      "duration": 0.0826,
      "velocity": 124,
      "chip": "ym2612"
    },
    {
      "channel": 2,
      "note": 47,
      "start": 154.0699,
      "duration": 0.1326,
      "velocity": 105,
      "chip": "ym2612"
    },
    {
      "channel": 3,
      "note": 35,
      "start": 154.0706,
      "duration": 0.1326,
      "velocity": 105,
      "chip": "ym2612"
    },
    {
      "channel": 4,
      "note": 74,
      "start": 154.0719,
      "duration": 0.1321,
      "velocity": 65,
      "chip": "ym2612"
    },
    {
      "channel": 0,
      "note": 23,
      "start": 154.2011,
      "duration": 0.1654,
      "velocity": 124,
      "chip": "ym2612"
    },
    {
      "channel": 1,
      "note": 34,
      "start": 154.2023,
      "duration": 0.1478,
      "velocity": 64,
      "chip": "ym2612"
    },
    {
      "channel": 2,
      "note": 47,
      "start": 154.2031,
      "duration": 0.1483,
      "velocity": 104,
      "chip": "ym2612"
    },
    {
      "channel": 3,
      "note": 38,
      "start": 154.2038,
      "duration": 0.1483,
      "velocity": 104,
      "chip": "ym2612"
    },
    {
      "channel": 4,
      "note": 59,
      "start": 154.205,
      "duration": 0.1477,
      "velocity": 119,
      "chip": "ym2612"
    },
    {
      "channel": 1,
      "note": 59,
      "start": 154.3512,
      "duration": 0.082,
      "velocity": 123,
      "chip": "ym2612"
    },
    {
      "channel": 2,
      "note": 42,
      "start": 154.3519,
      "duration": 0.1313,
      "velocity": 104,
      "chip": "ym2612"
    },
    {
      "channel": 3,
      "note": 30,
      "start": 154.3526,
      "duration": 0.1313,
      "velocity": 104,
      "chip": "ym2612"
    },
    {
      "channel": 4,
      "note": 74,
      "start": 154.3539,
      "duration": 0.1307,
      "velocity": 65,
      "chip": "ym2612"
    },
    {
      "channel": 0,
      "note": 23,
      "start": 154.4825,
      "duration": 0.1653,
      "velocity": 124,
      "chip": "ym2612"
    },
    {
      "channel": 2,
      "note": 49,
      "start": 154.4837,
      "duration": 0.1485,
      "velocity": 103,
      "chip": "ym2612"
    },
    {
      "channel": 3,
      "note": 40,
      "start": 154.4844,
      "duration": 0.1484,
      "velocity": 103,
      "chip": "ym2612"
    },
    {
      "channel": 4,
      "note": 74,
      "start": 154.4857,
      "duration": 0.1479,
      "velocity": 59,
      "chip": "ym2612"
    },
    {
      "channel": 1,
      "note": 59,
      "start": 154.632,
      "duration": 0.0826,
      "velocity": 123,
      "chip": "ym2612"
    },
    {
      "channel": 2,
      "note": 42,
      "start": 154.6327,
      "duration": 0.1319,
      "velocity": 103,
      "chip": "ym2612"
    },
    {
      "channel": 3,
      "note": 30,
      "start": 154.6334,
      "duration": 0.1318,
      "velocity": 103,
      "chip": "ym2612"
    },
    {
      "channel": 4,
      "note": 74,
      "start": 154.6341,
      "duration": 0.1319,
      "velocity": 59,
      "chip": "ym2612"
    },
    {
      "channel": 0,
      "note": 23,
      "start": 154.7639,
      "duration": 0.1654,
      "velocity": 124,
      "chip": "ym2612"
    },
    {
      "channel": 2,
      "note": 47,
      "start": 154.7651,
      "duration": 0.149,
      "velocity": 102,
      "chip": "ym2612"
    },
    {
      "channel": 3,
      "note": 38,
      "start": 154.7658,
      "duration": 0.149,
      "velocity": 102,
      "chip": "ym2612"
    },
    {
      "channel": 4,
      "note": 74,
      "start": 154.767,
      "duration": 0.1485,
      "velocity": 65,
      "chip": "ym2612"
    },
    {
      "channel": 1,
      "note": 34,
      "start": 154.914,
      "duration": 0.1315,
      "velocity": 64,
      "chip": "ym2612"
    },
    {
      "channel": 2,
      "note": 42,
      "start": 154.9147,
      "duration": 0.1321,
      "velocity": 102,
      "chip": "ym2612"
    },
    {
      "channel": 3,
      "note": 30,
      "start": 154.9154,
      "duration": 0.1321,
      "velocity": 102,
      "chip": "ym2612"
    },
    {
      "channel": 4,
      "note": 74,
      "start": 154.9166,
      "duration": 0.1314,
      "velocity": 59,
      "chip": "ym2612"
    },
    {
      "channel": 0,
      "note": 23,
      "start": 155.0453,
      "duration": 0.1653,
      "velocity": 124,
      "chip": "ym2612"
    },
    {
      "channel": 1,
      "note": 59,
      "start": 155.0465,
      "duration": 0.0984,
      "velocity": 123,
      "chip": "ym2612"
    },
    {
      "channel": 2,
      "note": 46,
      "start": 155.0472,
      "duration": 0.1475,
      "velocity": 101,
      "chip": "ym2612"
    },
    {
      "channel": 3,
      "note": 37,
      "start": 155.0479,
      "duration": 0.1475,
      "velocity": 101,
      "chip": "ym2612"
    },
    {
      "channel": 4,
      "note": 47,
      "start": 155.0491,
      "duration": 0.147,
      "velocity": 119,
      "chip": "ym2612"
    },
    {
      "channel": 2,
      "note": 42,
      "start": 155.1953,
      "duration": 0.132,
      "velocity": 101,
      "chip": "ym2612"
    },
    {
      "channel": 3,
      "note": 30,
      "start": 155.196,
      "duration": 0.132,
      "velocity": 101,
      "chip": "ym2612"
    },
    {
      "channel": 4,
      "note": 74,
      "start": 155.1972,
      "duration": 0.1315,
      "velocity": 65,
      "chip": "ym2612"
    },
    {
      "channel": 0,
      "note": 23,
      "start": 155.3267,
      "duration": 0.1654,
      "velocity": 124,
      "chip": "ym2612"
    },
    {
      "channel": 2,
      "note": 47,
      "start": 155.3279,
      "duration": 0.1484,
      "velocity": 100,
      "chip": "ym2612"
    },
    {
      "channel": 3,
      "note": 50,
      "start": 155.3286,
      "duration": 0.1484,
      "velocity": 100,
      "chip": "ym2612"
    },
    {
      "channel": 4,
      "note": 59,
      "start": 155.3298,
      "duration": 0.1479,
      "velocity": 119,
      "chip": "ym2612"
    },
    {
      "channel": 1,
      "note": 59,
      "start": 155.4762,
      "duration": 0.0826,
      "velocity": 123,
      "chip": "ym2612"
    },
    {
      "channel": 2,
      "note": 31,
      "start": 155.4769,
      "duration": 0.1319,
      "velocity": 100,
      "chip": "ym2612"
    },
    {
      "channel": 3,
      "note": 43,
      "start": 155.4776,
      "duration": 0.1319,
      "velocity": 100,
      "chip": "ym2612"
    },
    {
      "channel": 4,
      "note": 74,
      "start": 155.4788,
      "duration": 0.1314,
      "velocity": 65,
      "chip": "ym2612"
    },
    {
      "channel": 0,
      "note": 23,
      "start": 155.6081,
      "duration": 0.1654,
      "velocity": 124,
      "chip": "ym2612"
    },
    {
      "channel": 2,
      "note": 49,
      "start": 155.6093,
      "duration": 0.1485,
      "velocity": 101,
      "chip": "ym2612"
    },
    {
      "channel": 3,
      "note": 52,
      "start": 155.61,
      "duration": 0.1485,
      "velocity": 101,
      "chip": "ym2612"
    },
    {
      "channel": 4,
      "note": 74,
      "start": 155.6112,
      "duration": 0.148,
      "velocity": 59,
      "chip": "ym2612"
    },
    {
      "channel": 1,
      "note": 59,
      "start": 155.7576,
      "duration": 0.0826,
      "velocity": 123,
      "chip": "ym2612"
    },
    {
      "channel": 2,
      "note": 31,
      "start": 155.7583,
      "duration": 0.1319,
      "velocity": 101,
      "chip": "ym2612"
    },
    {
      "channel": 3,
      "note": 43,
      "start": 155.759,
      "duration": 0.1319,
      "velocity": 101,
      "chip": "ym2612"
    },
    {
      "channel": 4,
      "note": 74,
      "start": 155.7597,
      "duration": 0.1319,
      "velocity": 59,
      "chip": "ym2612"
    },
    {
      "channel": 0,
      "note": 23,
      "start": 155.8895,
      "duration": 0.1654,
      "velocity": 124,
      "chip": "ym2612"
    },
    {
      "channel": 2,
      "note": 47,
      "start": 155.8907,
      "duration": 0.1482,
      "velocity": 102,
      "chip": "ym2612"
    },
    {
      "channel": 3,
      "note": 50,
      "start": 155.8915,
      "duration": 0.1482,
      "velocity": 102,
      "chip": "ym2612"
    },
    {
      "channel": 4,
      "note": 74,
      "start": 155.8927,
      "duration": 0.1477,
      "velocity": 65,
      "chip": "ym2612"
    },
    {
      "channel": 2,
      "note": 31,
      "start": 156.0395,
      "duration": 0.1322,
      "velocity": 102,
      "chip": "ym2612"
    },
    {
      "channel": 3,
      "note": 43,
      "start": 156.0402,
      "duration": 0.1322,
      "velocity": 102,
      "chip": "ym2612"
    },
    {
      "channel": 4,
      "note": 74,
      "start": 156.0415,
      "duration": 0.1317,
      "velocity": 59,
      "chip": "ym2612"
    },
    {
      "channel": 0,
      "note": 23,
      "start": 156.1709,
      "duration": 0.1653,
      "velocity": 124,
      "chip": "ym2612"
    },
    {
      "channel": 1,
      "note": 59,
      "start": 156.1715,
      "duration": 0.099,
      "velocity": 123,
      "chip": "ym2612"
    },
    {
      "channel": 2,
      "note": 45,
      "start": 156.1722,
      "duration": 0.1481,
      "velocity": 103,
      "chip": "ym2612"
    },
    {
      "channel": 3,
      "note": 49,
      "start": 156.1729,
      "duration": 0.1481,
      "velocity": 103,
      "chip": "ym2612"
    },
    {
      "channel": 4,
      "note": 74,
      "start": 156.1736,
      "duration": 0.1481,
      "velocity": 59,
      "chip": "ym2612"
    },
    {
      "channel": 2,
      "note": 31,
      "start": 156.3209,
      "duration": 0.1327,
      "velocity": 103,
      "chip": "ym2612"
    },
    {
      "channel": 3,
      "note": 43,
      "start": 156.3216,
      "duration": 0.1327,
      "velocity": 103,
      "chip": "ym2612"
    },
    {
      "channel": 4,
      "note": 74,
      "start": 156.3228,
      "duration": 0.1322,
      "velocity": 65,
      "chip": "ym2612"
    },
    {
      "channel": 0,
      "note": 23,
      "start": 156.4523,
      "duration": 0.1654,
      "velocity": 124,
      "chip": "ym2612"
    },
    {
      "channel": 1,
      "note": 34,
      "start": 156.4535,
      "duration": 0.1478,
      "velocity": 64,
      "chip": "ym2612"
    },
    {
      "channel": 2,
      "note": 47,
      "start": 156.4542,
      "duration": 0.1483,
      "velocity": 104,
      "chip": "ym2612"
    },
    {
      "channel": 3,
      "note": 43,
      "start": 156.4549,
      "duration": 0.1483,
      "velocity": 104,
      "chip": "ym2612"
    },
    {
      "channel": 4,
      "note": 59,
      "start": 156.4561,
      "duration": 0.1477,
      "velocity": 119,
      "chip": "ym2612"
    },
    {
      "channel": 1,
      "note": 59,
      "start": 156.6023,
      "duration": 0.082,
      "velocity": 123,
      "chip": "ym2612"
    },
    {
      "channel": 2,
      "note": 40,
      "start": 156.603,
      "duration": 0.1313,
      "velocity": 104,
      "chip": "ym2612"
    },
    {
      "channel": 3,
      "note": 47,
      "start": 156.6037,
      "duration": 0.1313,
      "velocity": 104,
      "chip": "ym2612"
    },
    {
      "channel": 4,
      "note": 74,
      "start": 156.605,
      "duration": 0.1307,
      "velocity": 65,
      "chip": "ym2612"
    },
    {
      "channel": 0,
      "note": 23,
      "start": 156.7337,
      "duration": 0.1653,
      "velocity": 124,
      "chip": "ym2612"
    },
    {
      "channel": 2,
      "note": 47,
      "start": 156.7348,
      "duration": 0.1483,
      "velocity": 105,
      "chip": "ym2612"
    },
    {
      "channel": 3,
      "note": 43,
      "start": 156.7355,
      "duration": 0.1483,
      "velocity": 105,
      "chip": "ym2612"
    },
    {
      "channel": 4,
      "note": 74,
      "start": 156.7368,
      "duration": 0.1478,
      "velocity": 59,
      "chip": "ym2612"
    },
    {
      "channel": 2,
      "note": 40,
      "start": 156.8837,
      "duration": 0.132,
      "velocity": 105,
      "chip": "ym2612"
    },
    {
      "channel": 3,
      "note": 47,
      "start": 156.8844,
      "duration": 0.132,
      "velocity": 105,
      "chip": "ym2612"
    },
    {
      "channel": 4,
      "note": 74,
      "start": 156.885,
      "duration": 0.132,
      "velocity": 59,
      "chip": "ym2612"
    },
    {
      "channel": 0,
      "note": 23,
      "start": 157.0151,
      "duration": 0.1654,
      "velocity": 124,
      "chip": "ym2612"
    },
    {
      "channel": 2,
      "note": 47,
      "start": 157.0163,
      "duration": 0.1483,
      "velocity": 106,
      "chip": "ym2612"
    },
    {
      "channel": 3,
      "note": 43,
      "start": 157.017,
      "duration": 0.1483,
      "velocity": 106,
      "chip": "ym2612"
    },
    {
      "channel": 4,
      "note": 74,
      "start": 157.0182,
      "duration": 0.1477,
      "velocity": 65,
      "chip": "ym2612"
    },
    {
      "channel": 2,
      "note": 40,
      "start": 157.1651,
      "duration": 0.1328,
      "velocity": 106,
      "chip": "ym2612"
    },
    {
      "channel": 3,
      "note": 35,
      "start": 157.1657,
      "duration": 0.1328,
      "velocity": 106,
      "chip": "ym2612"
    },
    {
      "channel": 4,
      "note": 74,
      "start": 157.167,
      "duration": 0.1322,
      "velocity": 59,
      "chip": "ym2612"
    },
    {
      "channel": 0,
      "note": 23,
      "start": 157.2965,
      "duration": 0.1654,
      "velocity": 124,
      "chip": "ym2612"
    },
    {
      "channel": 1,
      "note": 22,
      "start": 157.2977,
      "duration": 0.0984,
      "velocity": 64,
      "chip": "ym2612"
    },
    {
      "channel": 2,
      "note": 40,
      "start": 157.2984,
      "duration": 0.1477,
      "velocity": 107,
      "chip": "ym2612"
    },
    {
      "channel": 3,
      "note": 36,
      "start": 157.2991,
      "duration": 0.1477,
      "velocity": 107,
      "chip": "ym2612"
    },
    {
      "channel": 4,
      "note": 74,
      "start": 157.2998,
      "duration": 0.1477,
      "velocity": 59,
      "chip": "ym2612"
    },
    {
      "channel": 1,
      "note": 34,
      "start": 157.4459,
      "duration": 0.0826,
      "velocity": 64,
      "chip": "ym2612"
    },
    {
      "channel": 2,
      "note": 47,
      "start": 157.4467,
      "duration": 0.1326,
      "velocity": 107,
      "chip": "ym2612"
    },
    {
      "channel": 3,
      "note": 35,
      "start": 157.4474,
      "duration": 0.1326,
      "velocity": 107,
      "chip": "ym2612"
    },
    {
      "channel": 4,
      "note": 74,
      "start": 157.4486,
      "duration": 0.1321,
      "velocity": 65,
      "chip": "ym2612"
    },
    {
      "channel": 0,
      "note": 23,
      "start": 157.5778,
      "duration": 0.1654,
      "velocity": 124,
      "chip": "ym2612"
    },
    {
      "channel": 1,
      "note": 71,
      "start": 157.579,
      "duration": 0.1478,
      "velocity": 122,
      "chip": "ym2612"
    },
    {
      "channel": 2,
      "note": 38,
      "start": 157.5798,
      "duration": 0.1477,
      "velocity": 108,
      "chip": "ym2612"
    },
    {
      "channel": 3,
      "note": 42,
      "start": 157.5805,
      "duration": 0.1477,
      "velocity": 108,
      "chip": "ym2612"
    },
    {
      "channel": 4,
      "note": 59,
      "start": 157.5817,
      "duration": 0.1471,
      "velocity": 119,
      "chip": "ym2612"
    },
    {
      "channel": 5,
      "note": 23,
      "start": 157.5824,
      "duration": 4.5029,
      "velocity": 122,
      "chip": "ym2612"
    },
    {
      "channel": 1,
      "note": 71,
      "start": 157.7273,
      "duration": 0.0826,
      "velocity": 122,
      "chip": "ym2612"
    },
    {
      "channel": 2,
      "note": 47,
      "start": 157.728,
      "duration": 0.132,
      "velocity": 108,
      "chip": "ym2612"
    },
    {
      "channel": 3,
      "note": 35,
      "start": 157.7287,
      "duration": 0.132,
      "velocity": 108,
      "chip": "ym2612"
    },
    {
      "channel": 4,
      "note": 74,
      "start": 157.7299,
      "duration": 0.1315,
      "velocity": 65,
      "chip": "ym2612"
    },
    {
      "channel": 0,
      "note": 23,
      "start": 157.8593,
      "duration": 0.1653,
      "velocity": 124,
      "chip": "ym2612"
    },
    {
      "channel": 1,
      "note": 66,
      "start": 157.8599,
      "duration": 0.1483,
      "velocity": 122,
      "chip": "ym2612"
    },
    {
      "channel": 2,
      "note": 40,
      "start": 157.8606,
      "duration": 0.1483,
      "velocity": 107,
      "chip": "ym2612"
    },
    {
      "channel": 3,
      "note": 44,
      "start": 157.8613,
      "duration": 0.1483,
      "velocity": 107,
      "chip": "ym2612"
    },
    {
      "channel": 4,
      "note": 74,
      "start": 157.8625,
      "duration": 0.1478,
      "velocity": 59,
      "chip": "ym2612"
    },
    {
      "channel": 1,
      "note": 59,
      "start": 158.0087,
      "duration": 0.0826,
      "velocity": 123,
      "chip": "ym2612"
    },
    {
      "channel": 2,
      "note": 47,
      "start": 158.0094,
      "duration": 0.1321,
      "velocity": 107,
      "chip": "ym2612"
    },
    {
      "channel": 3,
      "note": 35,
      "start": 158.0102,
      "duration": 0.132,
      "velocity": 107,
      "chip": "ym2612"
    },
    {
      "channel": 4,
      "note": 74,
      "start": 158.0108,
      "duration": 0.1321,
      "velocity": 59,
      "chip": "ym2612"
    },
    {
      "channel": 0,
      "note": 23,
      "start": 158.1407,
      "duration": 0.1653,
      "velocity": 124,
      "chip": "ym2612"
    },
    {
      "channel": 1,
      "note": 23,
      "start": 158.1413,
      "duration": 0.099,
      "velocity": 123,
      "chip": "ym2612"
    },
    {
      "channel": 2,
      "note": 38,
      "start": 158.142,
      "duration": 0.1483,
      "velocity": 106,
      "chip": "ym2612"
    },
    {
      "channel": 3,
      "note": 42,
      "start": 158.1427,
      "duration": 0.1483,
      "velocity": 106,
      "chip": "ym2612"
    },
    {
      "channel": 4,
      "note": 74,
      "start": 158.1439,
      "duration": 0.1478,
      "velocity": 65,
      "chip": "ym2612"
    },
    {
      "channel": 1,
      "note": 35,
      "start": 158.2902,
      "duration": 0.0825,
      "velocity": 123,
      "chip": "ym2612"
    },
    {
      "channel": 2,
      "note": 47,
      "start": 158.2909,
      "duration": 0.1319,
      "velocity": 106,
      "chip": "ym2612"
    },
    {
      "channel": 3,
      "note": 35,
      "start": 158.2916,
      "duration": 0.132,
      "velocity": 106,
      "chip": "ym2612"
    },
    {
      "channel": 4,
      "note": 74,
      "start": 158.2928,
      "duration": 0.1315,
      "velocity": 59,
      "chip": "ym2612"
    },
    {
      "channel": 0,
      "note": 23,
      "start": 158.422,
      "duration": 0.0992,
      "velocity": 124,
      "chip": "ym2612"
    },
    {
      "channel": 1,
      "note": 59,
      "start": 158.4227,
      "duration": 0.099,
      "velocity": 123,
      "chip": "ym2612"
    },
    {
      "channel": 2,
      "note": 37,
      "start": 158.4234,
      "duration": 0.1482,
      "velocity": 105,
      "chip": "ym2612"
    },
    {
      "channel": 3,
      "note": 40,
      "start": 158.4241,
      "duration": 0.1482,
      "velocity": 105,
      "chip": "ym2612"
    },
    {
      "channel": 4,
      "note": 74,
      "start": 158.4248,
      "duration": 0.1483,
      "velocity": 59,
      "chip": "ym2612"
    },
    {
      "channel": 0,
      "note": 23,
      "start": 158.571,
      "duration": 0.0826,
      "velocity": 124,
      "chip": "ym2612"
    },
    {
      "channel": 2,
      "note": 47,
      "start": 158.5722,
      "duration": 0.1326,
      "velocity": 105,
      "chip": "ym2612"
    },
    {
      "channel": 3,
      "note": 35,
      "start": 158.5729,
      "duration": 0.1326,
      "velocity": 105,
      "chip": "ym2612"
    },
    {
      "channel": 4,
      "note": 74,
      "start": 158.5742,
      "duration": 0.132,
      "velocity": 65,
      "chip": "ym2612"
    },
    {
      "channel": 0,
      "note": 23,
      "start": 158.7034,
      "duration": 0.1654,
      "velocity": 124,
      "chip": "ym2612"
    },
    {
      "channel": 1,
      "note": 34,
      "start": 158.7046,
      "duration": 0.1478,
      "velocity": 64,
      "chip": "ym2612"
    },
    {
      "channel": 2,
      "note": 47,
      "start": 158.7054,
      "duration": 0.1482,
      "velocity": 104,
      "chip": "ym2612"
    },
    {
      "channel": 3,
      "note": 38,
      "start": 158.7061,
      "duration": 0.1483,
      "velocity": 104,
      "chip": "ym2612"
    },
    {
      "channel": 4,
      "note": 59,
      "start": 158.7073,
      "duration": 0.1476,
      "velocity": 119,
      "chip": "ym2612"
    },
    {
      "channel": 1,
      "note": 59,
      "start": 158.8535,
      "duration": 0.082,
      "velocity": 123,
      "chip": "ym2612"
    },
    {
      "channel": 2,
      "note": 42,
      "start": 158.8542,
      "duration": 0.1313,
      "velocity": 104,
      "chip": "ym2612"
    },
    {
      "channel": 3,
      "note": 30,
      "start": 158.8549,
      "duration": 0.1313,
      "velocity": 104,
      "chip": "ym2612"
    },
    {
      "channel": 4,
      "note": 74,
      "start": 158.8561,
      "duration": 0.1307,
      "velocity": 65,
      "chip": "ym2612"
    },
    {
      "channel": 0,
      "note": 23,
      "start": 158.9848,
      "duration": 0.1653,
      "velocity": 124,
      "chip": "ym2612"
    },
    {
      "channel": 2,
      "note": 49,
      "start": 158.986,
      "duration": 0.1485,
      "velocity": 103,
      "chip": "ym2612"
    },
    {
      "channel": 3,
      "note": 40,
      "start": 158.9867,
      "duration": 0.1485,
      "velocity": 103,
      "chip": "ym2612"
    },
    {
      "channel": 4,
      "note": 74,
      "start": 158.988,
      "duration": 0.1479,
      "velocity": 59,
      "chip": "ym2612"
    },
    {
      "channel": 1,
      "note": 59,
      "start": 159.1343,
      "duration": 0.0826,
      "velocity": 123,
      "chip": "ym2612"
    },
    {
      "channel": 2,
      "note": 42,
      "start": 159.135,
      "duration": 0.1319,
      "velocity": 103,
      "chip": "ym2612"
    },
    {
      "channel": 3,
      "note": 30,
      "start": 159.1357,
      "duration": 0.1318,
      "velocity": 103,
      "chip": "ym2612"
    },
    {
      "channel": 4,
      "note": 74,
      "start": 159.1363,
      "duration": 0.1319,
      "velocity": 59,
      "chip": "ym2612"
    },
    {
      "channel": 0,
      "note": 23,
      "start": 159.2662,
      "duration": 0.1654,
      "velocity": 124,
      "chip": "ym2612"
    },
    {
      "channel": 2,
      "note": 47,
      "start": 159.2674,
      "duration": 0.149,
      "velocity": 102,
      "chip": "ym2612"
    },
    {
      "channel": 3,
      "note": 38,
      "start": 159.2681,
      "duration": 0.149,
      "velocity": 102,
      "chip": "ym2612"
    },
    {
      "channel": 4,
      "note": 74,
      "start": 159.2693,
      "duration": 0.1485,
      "velocity": 65,
      "chip": "ym2612"
    },
    {
      "channel": 1,
      "note": 34,
      "start": 159.4163,
      "duration": 0.1315,
      "velocity": 64,
      "chip": "ym2612"
    },
    {
      "channel": 2,
      "note": 42,
      "start": 159.417,
      "duration": 0.1321,
      "velocity": 102,
      "chip": "ym2612"
    },
    {
      "channel": 3,
      "note": 30,
      "start": 159.4177,
      "duration": 0.1321,
      "velocity": 102,
      "chip": "ym2612"
    },
    {
      "channel": 4,
      "note": 74,
      "start": 159.4189,
      "duration": 0.1315,
      "velocity": 59,
      "chip": "ym2612"
    },
    {
      "channel": 0,
      "note": 23,
      "start": 159.5476,
      "duration": 0.1653,
      "velocity": 124,
      "chip": "ym2612"
    },
    {
      "channel": 1,
      "note": 59,
      "start": 159.5488,
      "duration": 0.0984,
      "velocity": 123,
      "chip": "ym2612"
    },
    {
      "channel": 2,
      "note": 46,
      "start": 159.5495,
      "duration": 0.1475,
      "velocity": 101,
      "chip": "ym2612"
    },
    {
      "channel": 3,
      "note": 37,
      "start": 159.5502,
      "duration": 0.1475,
      "velocity": 101,
      "chip": "ym2612"
    },
    {
      "channel": 4,
      "note": 47,
      "start": 159.5514,
      "duration": 0.147,
      "velocity": 119,
      "chip": "ym2612"
    },
    {
      "channel": 2,
      "note": 42,
      "start": 159.6976,
      "duration": 0.132,
      "velocity": 101,
      "chip": "ym2612"
    },
    {
      "channel": 3,
      "note": 30,
      "start": 159.6983,
      "duration": 0.132,
      "velocity": 101,
      "chip": "ym2612"
    },
    {
      "channel": 4,
      "note": 74,
      "start": 159.6995,
      "duration": 0.1315,
      "velocity": 65,
      "chip": "ym2612"
    },
    {
      "channel": 0,
      "note": 23,
      "start": 159.829,
      "duration": 0.1654,
      "velocity": 124,
      "chip": "ym2612"
    },
    {
      "channel": 2,
      "note": 47,
      "start": 159.8302,
      "duration": 0.1484,
      "velocity": 100,
      "chip": "ym2612"
    },
    {
      "channel": 3,
      "note": 50,
      "start": 159.8309,
      "duration": 0.1484,
      "velocity": 100,
      "chip": "ym2612"
    },
    {
      "channel": 4,
      "note": 59,
      "start": 159.8321,
      "duration": 0.1479,
      "velocity": 119,
      "chip": "ym2612"
    },
    {
      "channel": 1,
      "note": 59,
      "start": 159.9785,
      "duration": 0.0826,
      "velocity": 123,
      "chip": "ym2612"
    },
    {
      "channel": 2,
      "note": 31,
      "start": 159.9792,
      "duration": 0.1319,
      "velocity": 100,
      "chip": "ym2612"
    },
    {
      "channel": 3,
      "note": 43,
      "start": 159.9799,
      "duration": 0.1319,
      "velocity": 100,
      "chip": "ym2612"
    },
    {
      "channel": 4,
      "note": 74,
      "start": 159.9811,
      "duration": 0.1313,
      "velocity": 65,
      "chip": "ym2612"
    },
    {
      "channel": 0,
      "note": 23,
      "start": 160.1104,
      "duration": 0.1653,
      "velocity": 124,
      "chip": "ym2612"
    },
    {
      "channel": 2,
      "note": 49,
      "start": 160.1115,
      "duration": 0.1485,
      "velocity": 101,
      "chip": "ym2612"
    },
    {
      "channel": 3,
      "note": 52,
      "start": 160.1122,
      "duration": 0.1485,
      "velocity": 101,
      "chip": "ym2612"
    },
    {
      "channel": 4,
      "note": 74,
      "start": 160.1135,
      "duration": 0.1479,
      "velocity": 59,
      "chip": "ym2612"
    },
    {
      "channel": 1,
      "note": 59,
      "start": 160.2598,
      "duration": 0.0826,
      "velocity": 123,
      "chip": "ym2612"
    },
    {
      "channel": 2,
      "note": 31,
      "start": 160.2605,
      "duration": 0.1319,
      "velocity": 101,
      "chip": "ym2612"
    },
    {
      "channel": 3,
      "note": 43,
      "start": 160.2613,
      "duration": 0.1318,
      "velocity": 101,
      "chip": "ym2612"
    },
    {
      "channel": 4,
      "note": 74,
      "start": 160.2619,
      "duration": 0.1319,
      "velocity": 59,
      "chip": "ym2612"
    },
    {
      "channel": 0,
      "note": 23,
      "start": 160.3918,
      "duration": 0.1654,
      "velocity": 124,
      "chip": "ym2612"
    },
    {
      "channel": 2,
      "note": 47,
      "start": 160.393,
      "duration": 0.1482,
      "velocity": 102,
      "chip": "ym2612"
    },
    {
      "channel": 3,
      "note": 50,
      "start": 160.3937,
      "duration": 0.1483,
      "velocity": 102,
      "chip": "ym2612"
    },
    {
      "channel": 4,
      "note": 74,
      "start": 160.3949,
      "duration": 0.1477,
      "velocity": 65,
      "chip": "ym2612"
    },
    {
      "channel": 2,
      "note": 31,
      "start": 160.5418,
      "duration": 0.1322,
      "velocity": 102,
      "chip": "ym2612"
    },
    {
      "channel": 3,
      "note": 43,
      "start": 160.5425,
      "duration": 0.1322,
      "velocity": 102,
      "chip": "ym2612"
    },
    {
      "channel": 4,
      "note": 74,
      "start": 160.5437,
      "duration": 0.1318,
      "velocity": 59,
      "chip": "ym2612"
    },
    {
      "channel": 0,
      "note": 23,
      "start": 160.6732,
      "duration": 0.1653,
      "velocity": 124,
      "chip": "ym2612"
    },
    {
      "channel": 1,
      "note": 59,
      "start": 160.6739,
      "duration": 0.0989,
      "velocity": 123,
      "chip": "ym2612"
    },
    {
      "channel": 2,
      "note": 45,
      "start": 160.6746,
      "duration": 0.148,
      "velocity": 103,
      "chip": "ym2612"
    },
    {
      "channel": 3,
      "note": 49,
      "start": 160.6753,
      "duration": 0.1481,
      "velocity": 103,
      "chip": "ym2612"
    },
    {
      "channel": 4,
      "note": 74,
      "start": 160.6759,
      "duration": 0.1482,
      "velocity": 59,
      "chip": "ym2612"
    },
    {
      "channel": 2,
      "note": 31,
      "start": 160.8233,
      "duration": 0.1327,
      "velocity": 103,
      "chip": "ym2612"
    },
    {
      "channel": 3,
      "note": 43,
      "start": 160.8239,
      "duration": 0.1328,
      "velocity": 103,
      "chip": "ym2612"
    },
    {
      "channel": 4,
      "note": 74,
      "start": 160.8252,
      "duration": 0.1322,
      "velocity": 65,
      "chip": "ym2612"
    },
    {
      "channel": 0,
      "note": 23,
      "start": 160.9546,
      "duration": 0.1654,
      "velocity": 124,
      "chip": "ym2612"
    },
    {
      "channel": 1,
      "note": 34,
      "start": 160.9558,
      "duration": 0.1478,
      "velocity": 64,
      "chip": "ym2612"
    },
    {
      "channel": 2,
      "note": 47,
      "start": 160.9565,
      "duration": 0.1482,
      "velocity": 104,
      "chip": "ym2612"
    },
    {
      "channel": 3,
      "note": 43,
      "start": 160.9573,
      "duration": 0.1482,
      "velocity": 104,
      "chip": "ym2612"
    },
    {
      "channel": 4,
      "note": 59,
      "start": 160.9585,
      "duration": 0.1476,
      "velocity": 119,
      "chip": "ym2612"
    },
    {
      "channel": 1,
      "note": 59,
      "start": 161.1046,
      "duration": 0.082,
      "velocity": 123,
      "chip": "ym2612"
    },
    {
      "channel": 2,
      "note": 40,
      "start": 161.1053,
      "duration": 0.1313,
      "velocity": 104,
      "chip": "ym2612"
    },
    {
      "channel": 3,
      "note": 47,
      "start": 161.106,
      "duration": 0.1313,
      "velocity": 104,
      "chip": "ym2612"
    },
    {
      "channel": 4,
      "note": 74,
      "start": 161.1073,
      "duration": 0.1307,
      "velocity": 65,
      "chip": "ym2612"
    },
    {
      "channel": 0,
      "note": 23,
      "start": 161.236,
      "duration": 0.1653,
      "velocity": 124,
      "chip": "ym2612"
    },
    {
      "channel": 2,
      "note": 47,
      "start": 161.2371,
      "duration": 0.1483,
      "velocity": 105,
      "chip": "ym2612"
    },
    {
      "channel": 3,
      "note": 43,
      "start": 161.2378,
      "duration": 0.1483,
      "velocity": 105,
      "chip": "ym2612"
    },
    {
      "channel": 4,
      "note": 74,
      "start": 161.2391,
      "duration": 0.1477,
      "velocity": 59,
      "chip": "ym2612"
    },
    {
      "channel": 2,
      "note": 40,
      "start": 161.3859,
      "duration": 0.1321,
      "velocity": 105,
      "chip": "ym2612"
    },
    {
      "channel": 3,
      "note": 47,
      "start": 161.3867,
      "duration": 0.132,
      "velocity": 105,
      "chip": "ym2612"
    },
    {
      "channel": 4,
      "note": 74,
      "start": 161.3873,
      "duration": 0.132,
      "velocity": 59,
      "chip": "ym2612"
    },
    {
      "channel": 0,
      "note": 23,
      "start": 161.5173,
      "duration": 0.1654,
      "velocity": 124,
      "chip": "ym2612"
    },
    {
      "channel": 2,
      "note": 47,
      "start": 161.5185,
      "duration": 0.1483,
      "velocity": 106,
      "chip": "ym2612"
    },
    {
      "channel": 3,
      "note": 43,
      "start": 161.5193,
      "duration": 0.1483,
      "velocity": 106,
      "chip": "ym2612"
    },
    {
      "channel": 4,
      "note": 74,
      "start": 161.5205,
      "duration": 0.1477,
      "velocity": 65,
      "chip": "ym2612"
    },
    {
      "channel": 2,
      "note": 40,
      "start": 161.6673,
      "duration": 0.1328,
      "velocity": 106,
      "chip": "ym2612"
    },
    {
      "channel": 3,
      "note": 35,
      "start": 161.668,
      "duration": 0.1328,
      "velocity": 106,
      "chip": "ym2612"
    },
    {
      "channel": 4,
      "note": 74,
      "start": 161.6693,
      "duration": 0.1322,
      "velocity": 59,
      "chip": "ym2612"
    },
    {
      "channel": 0,
      "note": 23,
      "start": 161.7988,
      "duration": 0.1654,
      "velocity": 124,
      "chip": "ym2612"
    },
    {
      "channel": 1,
      "note": 22,
      "start": 161.8,
      "duration": 0.0984,
      "velocity": 64,
      "chip": "ym2612"
    },
    {
      "channel": 2,
      "note": 40,
      "start": 161.8007,
      "duration": 0.1477,
      "velocity": 107,
      "chip": "ym2612"
    },
    {
      "channel": 3,
      "note": 36,
      "start": 161.8014,
      "duration": 0.1477,
      "velocity": 107,
      "chip": "ym2612"
    },
    {
      "channel": 4,
      "note": 74,
      "start": 161.8021,
      "duration": 0.1477,
      "velocity": 59,
      "chip": "ym2612"
    },
    {
      "channel": 1,
      "note": 34,
      "start": 161.9482,
      "duration": 0.0826,
      "velocity": 64,
      "chip": "ym2612"
    },
    {
      "channel": 2,
      "note": 47,
      "start": 161.949,
      "duration": 0.1326,
      "velocity": 107,
      "chip": "ym2612"
    },
    {
      "channel": 3,
      "note": 35,
      "start": 161.9497,
      "duration": 0.1331,
      "velocity": 107,
      "chip": "ym2612"
    },
    {
      "channel": 4,
      "note": 74,
      "start": 161.9509,
      "duration": 0.1332,
      "velocity": 65,
      "chip": "ym2612"
    },
    {
      "channel": 0,
      "note": 23,
      "start": 162.0801,
      "duration": 0.1485,
      "velocity": 124,
      "chip": "ym2612"
    },
    {
      "channel": 1,
      "note": 7,
      "start": 162.0814,
      "duration": 2.25,
      "velocity": 1,
      "chip": "ym2612"
    },
    {
      "channel": 2,
      "note": 71,
      "start": 162.0826,
      "duration": 0.1471,
      "velocity": 120,
      "chip": "ym2612"
    },
    {
      "channel": 3,
      "note": 7,
      "start": 162.0839,
      "duration": 2.2495,
      "velocity": 1,
      "chip": "ym2612"
    },
    {
      "channel": 4,
      "note": 7,
      "start": 162.0851,
      "duration": 2.2489,
      "velocity": 1,
      "chip": "ym2612"
    },
    {
      "channel": 5,
      "note": 7,
      "start": 162.0863,
      "duration": 2.2483,
      "velocity": 1,
      "chip": "ym2612"
    },
    {
      "channel": 0,
      "note": 35,
      "start": 162.2291,
      "duration": 0.1319,
      "velocity": 124,
      "chip": "ym2612"
    },
    {
      "channel": 2,
      "note": 71,
      "start": 162.2308,
      "duration": 0.1314,
      "velocity": 120,
      "chip": "ym2612"
    },
    {
      "channel": 0,
      "note": 23,
      "start": 162.3615,
      "duration": 0.1485,
      "velocity": 124,
      "chip": "ym2612"
    },
    {
      "channel": 2,
      "note": 71,
      "start": 162.3632,
      "duration": 0.1479,
      "velocity": 120,
      "chip": "ym2612"
    },
    {
      "channel": 0,
      "note": 23,
      "start": 162.5105,
      "duration": 0.132,
      "velocity": 124,
      "chip": "ym2612"
    },
    {
      "channel": 2,
      "note": 47,
      "start": 162.5122,
      "duration": 0.1313,
      "velocity": 124,
      "chip": "ym2612"
    },
    {
      "channel": 0,
      "note": 35,
      "start": 162.6429,
      "duration": 0.1485,
      "velocity": 124,
      "chip": "ym2612"
    },
    {
      "channel": 2,
      "note": 71,
      "start": 162.6446,
      "duration": 0.1479,
      "velocity": 120,
      "chip": "ym2612"
    },
    {
      "channel": 0,
      "note": 23,
      "start": 162.7919,
      "duration": 0.132,
      "velocity": 124,
      "chip": "ym2612"
    },
    {
      "channel": 2,
      "note": 71,
      "start": 162.7935,
      "duration": 0.1314,
      "velocity": 120,
      "chip": "ym2612"
    },
    {
      "channel": 0,
      "note": 23,
      "start": 162.9243,
      "duration": 0.1485,
      "velocity": 124,
      "chip": "ym2612"
    },
    {
      "channel": 2,
      "note": 71,
      "start": 162.926,
      "duration": 0.1479,
      "velocity": 120,
      "chip": "ym2612"
    },
    {
      "channel": 0,
      "note": 35,
      "start": 163.0733,
      "duration": 0.132,
      "velocity": 124,
      "chip": "ym2612"
    },
    {
      "channel": 2,
      "note": 71,
      "start": 163.075,
      "duration": 0.1313,
      "velocity": 120,
      "chip": "ym2612"
    },
    {
      "channel": 0,
      "note": 23,
      "start": 163.2057,
      "duration": 0.1485,
      "velocity": 124,
      "chip": "ym2612"
    },
    {
      "channel": 2,
      "note": 71,
      "start": 163.2074,
      "duration": 0.1478,
      "velocity": 120,
      "chip": "ym2612"
    },
    {
      "channel": 0,
      "note": 35,
      "start": 163.3547,
      "duration": 0.132,
      "velocity": 124,
      "chip": "ym2612"
    },
    {
      "channel": 2,
      "note": 71,
      "start": 163.3563,
      "duration": 0.1314,
      "velocity": 120,
      "chip": "ym2612"
    },
    {
      "channel": 0,
      "note": 23,
      "start": 163.4871,
      "duration": 0.1485,
      "velocity": 124,
      "chip": "ym2612"
    },
    {
      "channel": 2,
      "note": 71,
      "start": 163.4888,
      "duration": 0.1479,
      "velocity": 120,
      "chip": "ym2612"
    },
    {
      "channel": 0,
      "note": 23,
      "start": 163.636,
      "duration": 0.132,
      "velocity": 124,
      "chip": "ym2612"
    },
    {
      "channel": 2,
      "note": 71,
      "start": 163.6377,
      "duration": 0.1314,
      "velocity": 120,
      "chip": "ym2612"
    },
    {
      "channel": 0,
      "note": 35,
      "start": 163.7685,
      "duration": 0.1485,
      "velocity": 124,
      "chip": "ym2612"
    },
    {
      "channel": 2,
      "note": 71,
      "start": 163.7701,
      "duration": 0.1479,
      "velocity": 120,
      "chip": "ym2612"
    },
    {
      "channel": 0,
      "note": 23,
      "start": 163.9175,
      "duration": 0.132,
      "velocity": 124,
      "chip": "ym2612"
    },
    {
      "channel": 2,
      "note": 71,
      "start": 163.9191,
      "duration": 0.1314,
      "velocity": 120,
      "chip": "ym2612"
    },
    {
      "channel": 0,
      "note": 23,
      "start": 164.0499,
      "duration": 0.1485,
      "velocity": 124,
      "chip": "ym2612"
    },
    {
      "channel": 2,
      "note": 71,
      "start": 164.0516,
      "duration": 0.1479,
      "velocity": 120,
      "chip": "ym2612"
    },
    {
      "channel": 0,
      "note": 35,
      "start": 164.1988,
      "duration": 0.132,
      "velocity": 124,
      "chip": "ym2612"
    },
    {
      "channel": 2,
      "note": 71,
      "start": 164.2005,
      "duration": 0.1316,
      "velocity": 120,
      "chip": "ym2612"
    },
    {
      "channel": 0,
      "note": 23,
      "start": 164.3313,
      "duration": 0.1485,
      "velocity": 124,
      "chip": "ym2612"
    },
    {
      "channel": 1,
      "note": 7,
      "start": 164.3319,
      "duration": 2.2507,
      "velocity": 1,
      "chip": "ym2612"
    },
    {
      "channel": 2,
      "note": 71,
      "start": 164.3332,
      "duration": 0.1476,
      "velocity": 120,
      "chip": "ym2612"
    },
    {
      "channel": 3,
      "note": 7,
      "start": 164.3339,
      "duration": 2.2506,
      "velocity": 1,
      "chip": "ym2612"
    },
    {
      "channel": 4,
      "note": 7,
      "start": 164.3345,
      "duration": 2.2506,
      "velocity": 1,
      "chip": "ym2612"
    },
    {
      "channel": 5,
      "note": 7,
      "start": 164.3351,
      "duration": 2.2506,
      "velocity": 1,
      "chip": "ym2612"
    },
    {
      "channel": 0,
      "note": 35,
      "start": 164.4802,
      "duration": 0.1319,
      "velocity": 124,
      "chip": "ym2612"
    },
    {
      "channel": 2,
      "note": 71,
      "start": 164.4819,
      "duration": 0.1314,
      "velocity": 120,
      "chip": "ym2612"
    },
    {
      "channel": 0,
      "note": 23,
      "start": 164.6127,
      "duration": 0.1485,
      "velocity": 124,
      "chip": "ym2612"
    },
    {
      "channel": 2,
      "note": 71,
      "start": 164.6144,
      "duration": 0.1479,
      "velocity": 120,
      "chip": "ym2612"
    },
    {
      "channel": 0,
      "note": 23,
      "start": 164.7616,
      "duration": 0.132,
      "velocity": 124,
      "chip": "ym2612"
    },
    {
      "channel": 2,
      "note": 47,
      "start": 164.7633,
      "duration": 0.1313,
      "velocity": 124,
      "chip": "ym2612"
    },
    {
      "channel": 0,
      "note": 35,
      "start": 164.8941,
      "duration": 0.1485,
      "velocity": 124,
      "chip": "ym2612"
    },
    {
      "channel": 2,
      "note": 71,
      "start": 164.8957,
      "duration": 0.1479,
      "velocity": 120,
      "chip": "ym2612"
    },
    {
      "channel": 0,
      "note": 23,
      "start": 165.043,
      "duration": 0.1319,
      "velocity": 124,
      "chip": "ym2612"
    },
    {
      "channel": 2,
      "note": 71,
      "start": 165.0447,
      "duration": 0.1314,
      "velocity": 120,
      "chip": "ym2612"
    },
    {
      "channel": 0,
      "note": 23,
      "start": 165.1755,
      "duration": 0.1485,
      "velocity": 124,
      "chip": "ym2612"
    },
    {
      "channel": 2,
      "note": 71,
      "start": 165.1771,
      "duration": 0.1479,
      "velocity": 120,
      "chip": "ym2612"
    },
    {
      "channel": 0,
      "note": 35,
      "start": 165.3244,
      "duration": 0.132,
      "velocity": 124,
      "chip": "ym2612"
    },
    {
      "channel": 2,
      "note": 71,
      "start": 165.3261,
      "duration": 0.1314,
      "velocity": 120,
      "chip": "ym2612"
    },
    {
      "channel": 0,
      "note": 23,
      "start": 165.4569,
      "duration": 0.1484,
      "velocity": 124,
      "chip": "ym2612"
    },
    {
      "channel": 2,
      "note": 71,
      "start": 165.4585,
      "duration": 0.1479,
      "velocity": 120,
      "chip": "ym2612"
    },
    {
      "channel": 0,
      "note": 35,
      "start": 165.6058,
      "duration": 0.1319,
      "velocity": 124,
      "chip": "ym2612"
    },
    {
      "channel": 2,
      "note": 71,
      "start": 165.6076,
      "duration": 0.1313,
      "velocity": 120,
      "chip": "ym2612"
    },
    {
      "channel": 0,
      "note": 23,
      "start": 165.7383,
      "duration": 0.1485,
      "velocity": 124,
      "chip": "ym2612"
    },
    {
      "channel": 2,
      "note": 71,
      "start": 165.74,
      "duration": 0.1478,
      "velocity": 120,
      "chip": "ym2612"
    },
    {
      "channel": 0,
      "note": 23,
      "start": 165.8872,
      "duration": 0.132,
      "velocity": 124,
      "chip": "ym2612"
    },
    {
      "channel": 2,
      "note": 71,
      "start": 165.8888,
      "duration": 0.1314,
      "velocity": 120,
      "chip": "ym2612"
    },
    {
      "channel": 0,
      "note": 35,
      "start": 166.0196,
      "duration": 0.1485,
      "velocity": 124,
      "chip": "ym2612"
    },
    {
      "channel": 2,
      "note": 71,
      "start": 166.0213,
      "duration": 0.1479,
      "velocity": 120,
      "chip": "ym2612"
    },
    {
      "channel": 0,
      "note": 23,
      "start": 166.1686,
      "duration": 0.1319,
      "velocity": 124,
      "chip": "ym2612"
    },
    {
      "channel": 2,
      "note": 71,
      "start": 166.1703,
      "duration": 0.1314,
      "velocity": 120,
      "chip": "ym2612"
    },
    {
      "channel": 0,
      "note": 35,
      "start": 166.301,
      "duration": 0.1485,
      "velocity": 124,
      "chip": "ym2612"
    },
    {
      "channel": 2,
      "note": 71,
      "start": 166.3027,
      "duration": 0.1479,
      "velocity": 120,
      "chip": "ym2612"
    },
    {
      "channel": 0,
      "note": 23,
      "start": 166.45,
      "duration": 0.132,
      "velocity": 124,
      "chip": "ym2612"
    },
    {
      "channel": 2,
      "note": 71,
      "start": 166.4516,
      "duration": 0.1316,
      "velocity": 120,
      "chip": "ym2612"
    },
    {
      "channel": 0,
      "note": 23,
      "start": 166.5824,
      "duration": 0.1485,
      "velocity": 124,
      "chip": "ym2612"
    },
    {
      "channel": 1,
      "note": 7,
      "start": 166.5831,
      "duration": 2.2507,
      "velocity": 1,
      "chip": "ym2612"
    },
    {
      "channel": 2,
      "note": 71,
      "start": 166.5843,
      "duration": 0.1476,
      "velocity": 120,
      "chip": "ym2612"
    },
    {
      "channel": 3,
      "note": 7,
      "start": 166.585,
      "duration": 2.2506,
      "velocity": 1,
      "chip": "ym2612"
    },
    {
      "channel": 4,
      "note": 7,
      "start": 166.5857,
      "duration": 2.2506,
      "velocity": 1,
      "chip": "ym2612"
    },
    {
      "channel": 5,
      "note": 7,
      "start": 166.5863,
      "duration": 2.2506,
      "velocity": 1,
      "chip": "ym2612"
    },
    {
      "channel": 0,
      "note": 35,
      "start": 166.7314,
      "duration": 0.1319,
      "velocity": 124,
      "chip": "ym2612"
    },
    {
      "channel": 2,
      "note": 71,
      "start": 166.7331,
      "duration": 0.1314,
      "velocity": 120,
      "chip": "ym2612"
    },
    {
      "channel": 0,
      "note": 23,
      "start": 166.8638,
      "duration": 0.1485,
      "velocity": 124,
      "chip": "ym2612"
    },
    {
      "channel": 2,
      "note": 71,
      "start": 166.8655,
      "duration": 0.1479,
      "velocity": 120,
      "chip": "ym2612"
    },
    {
      "channel": 0,
      "note": 23,
      "start": 167.0128,
      "duration": 0.132,
      "velocity": 124,
      "chip": "ym2612"
    },
    {
      "channel": 2,
      "note": 47,
      "start": 167.0145,
      "duration": 0.1313,
      "velocity": 124,
      "chip": "ym2612"
    },
    {
      "channel": 0,
      "note": 35,
      "start": 167.1452,
      "duration": 0.1485,
      "velocity": 124,
      "chip": "ym2612"
    },
    {
      "channel": 2,
      "note": 71,
      "start": 167.1468,
      "duration": 0.1479,
      "velocity": 120,
      "chip": "ym2612"
    },
    {
      "channel": 0,
      "note": 23,
      "start": 167.2942,
      "duration": 0.132,
      "velocity": 124,
      "chip": "ym2612"
    },
    {
      "channel": 2,
      "note": 71,
      "start": 167.2958,
      "duration": 0.1314,
      "velocity": 120,
      "chip": "ym2612"
    },
    {
      "channel": 0,
      "note": 23,
      "start": 167.4266,
      "duration": 0.1485,
      "velocity": 124,
      "chip": "ym2612"
    },
    {
      "channel": 2,
      "note": 71,
      "start": 167.4282,
      "duration": 0.148,
      "velocity": 120,
      "chip": "ym2612"
    },
    {
      "channel": 0,
      "note": 35,
      "start": 167.5756,
      "duration": 0.132,
      "velocity": 124,
      "chip": "ym2612"
    },
    {
      "channel": 2,
      "note": 71,
      "start": 167.5772,
      "duration": 0.1314,
      "velocity": 120,
      "chip": "ym2612"
    },
    {
      "channel": 0,
      "note": 23,
      "start": 167.708,
      "duration": 0.1485,
      "velocity": 124,
      "chip": "ym2612"
    },
    {
      "channel": 2,
      "note": 71,
      "start": 167.7096,
      "duration": 0.148,
      "velocity": 120,
      "chip": "ym2612"
    },
    {
      "channel": 0,
      "note": 35,
      "start": 167.857,
      "duration": 0.1319,
      "velocity": 124,
      "chip": "ym2612"
    },
    {
      "channel": 2,
      "note": 71,
      "start": 167.8587,
      "duration": 0.1313,
      "velocity": 120,
      "chip": "ym2612"
    },
    {
      "channel": 0,
      "note": 23,
      "start": 167.9893,
      "duration": 0.1485,
      "velocity": 124,
      "chip": "ym2612"
    },
    {
      "channel": 2,
      "note": 71,
      "start": 167.9911,
      "duration": 0.1478,
      "velocity": 120,
      "chip": "ym2612"
    },
    {
      "channel": 0,
      "note": 23,
      "start": 168.1383,
      "duration": 0.132,
      "velocity": 124,
      "chip": "ym2612"
    },
    {
      "channel": 2,
      "note": 71,
      "start": 168.14,
      "duration": 0.1313,
      "velocity": 120,
      "chip": "ym2612"
    },
    {
      "channel": 0,
      "note": 35,
      "start": 168.2708,
      "duration": 0.1485,
      "velocity": 124,
      "chip": "ym2612"
    },
    {
      "channel": 2,
      "note": 71,
      "start": 168.2724,
      "duration": 0.1479,
      "velocity": 120,
      "chip": "ym2612"
    },
    {
      "channel": 0,
      "note": 23,
      "start": 168.4198,
      "duration": 0.132,
      "velocity": 124,
      "chip": "ym2612"
    },
    {
      "channel": 2,
      "note": 71,
      "start": 168.4214,
      "duration": 0.1314,
      "velocity": 120,
      "chip": "ym2612"
    },
    {
      "channel": 0,
      "note": 23,
      "start": 168.5521,
      "duration": 0.1485,
      "velocity": 124,
      "chip": "ym2612"
    },
    {
      "channel": 2,
      "note": 71,
      "start": 168.5538,
      "duration": 0.1479,
      "velocity": 120,
      "chip": "ym2612"
    },
    {
      "channel": 0,
      "note": 35,
      "start": 168.7011,
      "duration": 0.132,
      "velocity": 124,
      "chip": "ym2612"
    },
    {
      "channel": 2,
      "note": 71,
      "start": 168.7028,
      "duration": 0.1316,
      "velocity": 120,
      "chip": "ym2612"
    },
    {
      "channel": 0,
      "note": 23,
      "start": 168.8336,
      "duration": 0.1485,
      "velocity": 124,
      "chip": "ym2612"
    },
    {
      "channel": 1,
      "note": 7,
      "start": 168.8342,
      "duration": 2.2506,
      "velocity": 1,
      "chip": "ym2612"
    },
    {
      "channel": 2,
      "note": 71,
      "start": 168.8355,
      "duration": 0.1476,
      "velocity": 120,
      "chip": "ym2612"
    },
    {
      "channel": 3,
      "note": 7,
      "start": 168.8361,
      "duration": 2.2512,
      "velocity": 1,
      "chip": "ym2612"
    },
    {
      "channel": 4,
      "note": 7,
      "start": 168.8367,
      "duration": 2.2519,
      "velocity": 1,
      "chip": "ym2612"
    },
    {
      "channel": 5,
      "note": 7,
      "start": 168.8374,
      "duration": 2.3321,
      "velocity": 1,
      "chip": "ym2612"
    },
    {
      "channel": 0,
      "note": 35,
      "start": 168.9825,
      "duration": 0.1319,
      "velocity": 124,
      "chip": "ym2612"
    },
    {
      "channel": 2,
      "note": 71,
      "start": 168.9842,
      "duration": 0.1314,
      "velocity": 120,
      "chip": "ym2612"
    },
    {
      "channel": 0,
      "note": 23,
      "start": 169.1149,
      "duration": 0.1485,
      "velocity": 124,
      "chip": "ym2612"
    },
    {
      "channel": 2,
      "note": 71,
      "start": 169.1166,
      "duration": 0.1479,
      "velocity": 120,
      "chip": "ym2612"
    },
    {
      "channel": 0,
      "note": 23,
      "start": 169.2639,
      "duration": 0.1319,
      "velocity": 124,
      "chip": "ym2612"
    },
    {
      "channel": 2,
      "note": 47,
      "start": 169.2656,
      "duration": 0.1314,
      "velocity": 124,
      "chip": "ym2612"
    },
    {
      "channel": 0,
      "note": 35,
      "start": 169.3963,
      "duration": 0.1485,
      "velocity": 124,
      "chip": "ym2612"
    },
    {
      "channel": 2,
      "note": 71,
      "start": 169.398,
      "duration": 0.1479,
      "velocity": 120,
      "chip": "ym2612"
    },
    {
      "channel": 0,
      "note": 23,
      "start": 169.5453,
      "duration": 0.1319,
      "velocity": 124,
      "chip": "ym2612"
    },
    {
      "channel": 2,
      "note": 71,
      "start": 169.547,
      "duration": 0.1314,
      "velocity": 120,
      "chip": "ym2612"
    },
    {
      "channel": 0,
      "note": 23,
      "start": 169.6777,
      "duration": 0.1485,
      "velocity": 124,
      "chip": "ym2612"
    },
    {
      "channel": 2,
      "note": 71,
      "start": 169.6794,
      "duration": 0.1479,
      "velocity": 120,
      "chip": "ym2612"
    },
    {
      "channel": 0,
      "note": 35,
      "start": 169.8267,
      "duration": 0.1319,
      "velocity": 124,
      "chip": "ym2612"
    },
    {
      "channel": 2,
      "note": 71,
      "start": 169.8283,
      "duration": 0.1314,
      "velocity": 120,
      "chip": "ym2612"
    },
    {
      "channel": 0,
      "note": 23,
      "start": 169.9591,
      "duration": 0.1485,
      "velocity": 124,
      "chip": "ym2612"
    },
    {
      "channel": 2,
      "note": 71,
      "start": 169.9608,
      "duration": 0.1479,
      "velocity": 120,
      "chip": "ym2612"
    },
    {
      "channel": 0,
      "note": 35,
      "start": 170.1081,
      "duration": 0.132,
      "velocity": 124,
      "chip": "ym2612"
    },
    {
      "channel": 2,
      "note": 71,
      "start": 170.1098,
      "duration": 0.1314,
      "velocity": 120,
      "chip": "ym2612"
    },
    {
      "channel": 0,
      "note": 23,
      "start": 170.2406,
      "duration": 0.1485,
      "velocity": 124,
      "chip": "ym2612"
    },
    {
      "channel": 2,
      "note": 71,
      "start": 170.2422,
      "duration": 0.1479,
      "velocity": 120,
      "chip": "ym2612"
    },
    {
      "channel": 0,
      "note": 23,
      "start": 170.3895,
      "duration": 0.1319,
      "velocity": 124,
      "chip": "ym2612"
    },
    {
      "channel": 2,
      "note": 71,
      "start": 170.3912,
      "duration": 0.1313,
      "velocity": 120,
      "chip": "ym2612"
    },
    {
      "channel": 0,
      "note": 35,
      "start": 170.5219,
      "duration": 0.1485,
      "velocity": 124,
      "chip": "ym2612"
    },
    {
      "channel": 2,
      "note": 71,
      "start": 170.5236,
      "duration": 0.1478,
      "velocity": 120,
      "chip": "ym2612"
    },
    {
      "channel": 0,
      "note": 23,
      "start": 170.6709,
      "duration": 0.1319,
      "velocity": 124,
      "chip": "ym2612"
    },
    {
      "channel": 2,
      "note": 71,
      "start": 170.6726,
      "duration": 0.1314,
      "velocity": 120,
      "chip": "ym2612"
    },
    {
      "channel": 0,
      "note": 35,
      "start": 170.8033,
      "duration": 0.1485,
      "velocity": 124,
      "chip": "ym2612"
    },
    {
      "channel": 2,
      "note": 71,
      "start": 170.8049,
      "duration": 0.1479,
      "velocity": 120,
      "chip": "ym2612"
    },
    {
      "channel": 0,
      "note": 23,
      "start": 170.9523,
      "duration": 0.1319,
      "velocity": 124,
      "chip": "ym2612"
    },
    {
      "channel": 2,
      "note": 71,
      "start": 170.9539,
      "duration": 0.1321,
      "velocity": 120,
      "chip": "ym2612"
    },
    {
      "channel": 0,
      "note": 23,
      "start": 171.0847,
      "duration": 0.1485,
      "velocity": 124,
      "chip": "ym2612"
    },
    {
      "channel": 1,
      "note": 38,
      "start": 171.0859,
      "duration": 0.2803,
      "velocity": 120,
      "chip": "ym2612"
    },
    {
      "channel": 2,
      "note": 71,
      "start": 171.0871,
      "duration": 0.1472,
      "velocity": 122,
      "chip": "ym2612"
    },
    {
      "channel": 3,
      "note": 35,
      "start": 171.0885,
      "duration": 4.5012,
      "velocity": 108,
      "chip": "ym2612"
    },
    {
      "channel": 4,
      "note": 37,
      "start": 171.0897,
      "duration": 0.0796,
      "velocity": 108,
      "chip": "ym2612"
    },
    {
      "channel": 5,
      "note": 37,
      "start": 171.1707,
      "duration": 0.082,
      "velocity": 108,
      "chip": "ym2612"
    },
    {
      "channel": 0,
      "note": 35,
      "start": 171.2337,
      "duration": 0.1319,
      "velocity": 124,
      "chip": "ym2612"
    },
    {
      "channel": 2,
      "note": 71,
      "start": 171.2348,
      "duration": 0.0824,
      "velocity": 122,
      "chip": "ym2612"
    },
    {
      "channel": 4,
      "note": 35,
      "start": 171.236,
      "duration": 0.0823,
      "velocity": 108,
      "chip": "ym2612"
    },
    {
      "channel": 5,
      "note": 35,
      "start": 171.3024,
      "duration": 0.0826,
      "velocity": 108,
      "chip": "ym2612"
    },
    {
      "channel": 0,
      "note": 23,
      "start": 171.3661,
      "duration": 0.1485,
      "velocity": 124,
      "chip": "ym2612"
    },
    {
      "channel": 1,
      "note": 62,
      "start": 171.3673,
      "duration": 0.1483,
      "velocity": 125,
      "chip": "ym2612"
    },
    {
      "channel": 2,
      "note": 66,
      "start": 171.3679,
      "duration": 0.1478,
      "velocity": 122,
      "chip": "ym2612"
    },
    {
      "channel": 4,
      "note": 38,
      "start": 171.3692,
      "duration": 0.0815,
      "velocity": 108,
      "chip": "ym2612"
    },
    {
      "channel": 5,
      "note": 38,
      "start": 171.4515,
      "duration": 0.0826,
      "velocity": 108,
      "chip": "ym2612"
    },
    {
      "channel": 0,
      "note": 23,
      "start": 171.5151,
      "duration": 0.1319,
      "velocity": 124,
      "chip": "ym2612"
    },
    {
      "channel": 2,
      "note": 59,
      "start": 171.5162,
      "duration": 0.0824,
      "velocity": 123,
      "chip": "ym2612"
    },
    {
      "channel": 4,
      "note": 35,
      "start": 171.5174,
      "duration": 0.0823,
      "velocity": 108,
      "chip": "ym2612"
    },
    {
      "channel": 5,
      "note": 35,
      "start": 171.5839,
      "duration": 0.0826,
      "velocity": 108,
      "chip": "ym2612"
    },
    {
      "channel": 0,
      "note": 35,
      "start": 171.6475,
      "duration": 0.1485,
      "velocity": 124,
      "chip": "ym2612"
    },
    {
      "channel": 1,
      "note": 26,
      "start": 171.6487,
      "duration": 0.2803,
      "velocity": 126,
      "chip": "ym2612"
    },
    {
      "channel": 2,
      "note": 23,
      "start": 171.6493,
      "duration": 0.0982,
      "velocity": 123,
      "chip": "ym2612"
    },
    {
      "channel": 4,
      "note": 35,
      "start": 171.6506,
      "duration": 0.0815,
      "velocity": 108,
      "chip": "ym2612"
    },
    {
      "channel": 5,
      "note": 35,
      "start": 171.7329,
      "duration": 0.0826,
      "velocity": 108,
      "chip": "ym2612"
    },
    {
      "channel": 0,
      "note": 23,
      "start": 171.7965,
      "duration": 0.132,
      "velocity": 124,
      "chip": "ym2612"
    },
    {
      "channel": 2,
      "note": 35,
      "start": 171.7976,
      "duration": 0.0824,
      "velocity": 123,
      "chip": "ym2612"
    },
    {
      "channel": 4,
      "note": 47,
      "start": 171.7988,
      "duration": 0.0823,
      "velocity": 108,
      "chip": "ym2612"
    },
    {
      "channel": 5,
      "note": 47,
      "start": 171.8652,
      "duration": 0.0826,
      "velocity": 108,
      "chip": "ym2612"
    },
    {
      "channel": 0,
      "note": 23,
      "start": 171.9288,
      "duration": 0.1485,
      "velocity": 124,
      "chip": "ym2612"
    },
    {
      "channel": 1,
      "note": 38,
      "start": 171.9301,
      "duration": 0.2803,
      "velocity": 120,
      "chip": "ym2612"
    },
    {
      "channel": 2,
      "note": 59,
      "start": 171.9307,
      "duration": 0.0983,
      "velocity": 123,
      "chip": "ym2612"
    },
    {
      "channel": 4,
      "note": 38,
      "start": 171.932,
      "duration": 0.0815,
      "velocity": 108,
      "chip": "ym2612"
    },
    {
      "channel": 5,
      "note": 38,
      "start": 172.0142,
      "duration": 0.0826,
      "velocity": 108,
      "chip": "ym2612"
    },
    {
      "channel": 0,
      "note": 35,
      "start": 172.0778,
      "duration": 0.1319,
      "velocity": 124,
      "chip": "ym2612"
    },
    {
      "channel": 4,
      "note": 35,
      "start": 172.08,
      "duration": 0.0825,
      "velocity": 108,
      "chip": "ym2612"
    },
    {
      "channel": 5,
      "note": 35,
      "start": 172.1466,
      "duration": 0.0827,
      "velocity": 108,
      "chip": "ym2612"
    },
    {
      "channel": 0,
      "note": 23,
      "start": 172.2103,
      "duration": 0.1485,
      "velocity": 124,
      "chip": "ym2612"
    },
    {
      "channel": 1,
      "note": 38,
      "start": 172.2109,
      "duration": 0.2809,
      "velocity": 120,
      "chip": "ym2612"
    },
    {
      "channel": 2,
      "note": 34,
      "start": 172.2121,
      "duration": 0.1477,
      "velocity": 64,
      "chip": "ym2612"
    },
    {
      "channel": 4,
      "note": 40,
      "start": 172.2134,
      "duration": 0.0815,
      "velocity": 108,
      "chip": "ym2612"
    },
    {
      "channel": 5,
      "note": 40,
      "start": 172.2956,
      "duration": 0.0826,
      "velocity": 108,
      "chip": "ym2612"
    },
    {
      "channel": 0,
      "note": 35,
      "start": 172.3593,
      "duration": 0.132,
      "velocity": 124,
      "chip": "ym2612"
    },
    {
      "channel": 2,
      "note": 59,
      "start": 172.3609,
      "duration": 0.0819,
      "velocity": 123,
      "chip": "ym2612"
    },
    {
      "channel": 4,
      "note": 35,
      "start": 172.3622,
      "duration": 0.0817,
      "velocity": 108,
      "chip": "ym2612"
    },
    {
      "channel": 5,
      "note": 35,
      "start": 172.428,
      "duration": 0.0826,
      "velocity": 108,
      "chip": "ym2612"
    },
    {
      "channel": 0,
      "note": 23,
      "start": 172.4916,
      "duration": 0.1485,
      "velocity": 124,
      "chip": "ym2612"
    },
    {
      "channel": 1,
      "note": 62,
      "start": 172.4929,
      "duration": 0.1483,
      "velocity": 125,
      "chip": "ym2612"
    },
    {
      "channel": 4,
      "note": 38,
      "start": 172.4946,
      "duration": 0.0817,
      "velocity": 108,
      "chip": "ym2612"
    },
    {
      "channel": 5,
      "note": 38,
      "start": 172.5771,
      "duration": 0.0826,
      "velocity": 108,
      "chip": "ym2612"
    },
    {
      "channel": 0,
      "note": 23,
      "start": 172.6407,
      "duration": 0.1319,
      "velocity": 124,
      "chip": "ym2612"
    },
    {
      "channel": 2,
      "note": 59,
      "start": 172.6418,
      "duration": 0.0824,
      "velocity": 123,
      "chip": "ym2612"
    },
    {
      "channel": 4,
      "note": 35,
      "start": 172.643,
      "duration": 0.0823,
      "velocity": 108,
      "chip": "ym2612"
    },
    {
      "channel": 5,
      "note": 35,
      "start": 172.7095,
      "duration": 0.0826,
      "velocity": 108,
      "chip": "ym2612"
    },
    {
      "channel": 0,
      "note": 35,
      "start": 172.7731,
      "duration": 0.1484,
      "velocity": 124,
      "chip": "ym2612"
    },
    {
      "channel": 1,
      "note": 26,
      "start": 172.7743,
      "duration": 0.5617,
      "velocity": 126,
      "chip": "ym2612"
    },
    {
      "channel": 4,
      "note": 37,
      "start": 172.7761,
      "duration": 0.0817,
      "velocity": 108,
      "chip": "ym2612"
    },
    {
      "channel": 5,
      "note": 37,
      "start": 172.8584,
      "duration": 0.0826,
      "velocity": 108,
      "chip": "ym2612"
    },
    {
      "channel": 0,
      "note": 23,
      "start": 172.922,
      "duration": 0.132,
      "velocity": 124,
      "chip": "ym2612"
    },
    {
      "channel": 2,
      "note": 34,
      "start": 172.9238,
      "duration": 0.1312,
      "velocity": 64,
      "chip": "ym2612"
    },
    {
      "channel": 4,
      "note": 35,
      "start": 172.925,
      "duration": 0.0817,
      "velocity": 108,
      "chip": "ym2612"
    },
    {
      "channel": 5,
      "note": 35,
      "start": 172.9909,
      "duration": 0.0826,
      "velocity": 108,
      "chip": "ym2612"
    },
    {
      "channel": 0,
      "note": 23,
      "start": 173.0544,
      "duration": 0.1485,
      "velocity": 124,
      "chip": "ym2612"
    },
    {
      "channel": 2,
      "note": 59,
      "start": 173.0561,
      "duration": 0.0984,
      "velocity": 123,
      "chip": "ym2612"
    },
    {
      "channel": 4,
      "note": 38,
      "start": 173.0574,
      "duration": 0.0817,
      "velocity": 108,
      "chip": "ym2612"
    },
    {
      "channel": 5,
      "note": 38,
      "start": 173.1399,
      "duration": 0.0826,
      "velocity": 108,
      "chip": "ym2612"
    },
    {
      "channel": 0,
      "note": 35,
      "start": 173.2034,
      "duration": 0.132,
      "velocity": 124,
      "chip": "ym2612"
    },
    {
      "channel": 4,
      "note": 47,
      "start": 173.2056,
      "duration": 0.0825,
      "velocity": 108,
      "chip": "ym2612"
    },
    {
      "channel": 5,
      "note": 47,
      "start": 173.2722,
      "duration": 0.0826,
      "velocity": 108,
      "chip": "ym2612"
    },
    {
      "channel": 0,
      "note": 23,
      "start": 173.3359,
      "duration": 0.1485,
      "velocity": 124,
      "chip": "ym2612"
    },
    {
      "channel": 1,
      "note": 38,
      "start": 173.3371,
      "duration": 0.2803,
      "velocity": 120,
      "chip": "ym2612"
    },
    {
      "channel": 4,
      "note": 37,
      "start": 173.3388,
      "duration": 0.0817,
      "velocity": 108,
      "chip": "ym2612"
    },
    {
      "channel": 5,
      "note": 37,
      "start": 173.4212,
      "duration": 0.0826,
      "velocity": 108,
      "chip": "ym2612"
    },
    {
      "channel": 0,
      "note": 35,
      "start": 173.4848,
      "duration": 0.1319,
      "velocity": 124,
      "chip": "ym2612"
    },
    {
      "channel": 2,
      "note": 59,
      "start": 173.4859,
      "duration": 0.0824,
      "velocity": 123,
      "chip": "ym2612"
    },
    {
      "channel": 4,
      "note": 35,
      "start": 173.4872,
      "duration": 0.0823,
      "velocity": 108,
      "chip": "ym2612"
    },
    {
      "channel": 5,
      "note": 35,
      "start": 173.5536,
      "duration": 0.0826,
      "velocity": 108,
      "chip": "ym2612"
    },
    {
      "channel": 0,
      "note": 23,
      "start": 173.6172,
      "duration": 0.1485,
      "velocity": 124,
      "chip": "ym2612"
    },
    {
      "channel": 1,
      "note": 62,
      "start": 173.6184,
      "duration": 0.1483,
      "velocity": 125,
      "chip": "ym2612"
    },
    {
      "channel": 4,
      "note": 38,
      "start": 173.6201,
      "duration": 0.0817,
      "velocity": 108,
      "chip": "ym2612"
    },
    {
      "channel": 5,
      "note": 38,
      "start": 173.7026,
      "duration": 0.0826,
      "velocity": 108,
      "chip": "ym2612"
    },
    {
      "channel": 0,
      "note": 23,
      "start": 173.7662,
      "duration": 0.1319,
      "velocity": 124,
      "chip": "ym2612"
    },
    {
      "channel": 2,
      "note": 59,
      "start": 173.7673,
      "duration": 0.0824,
      "velocity": 123,
      "chip": "ym2612"
    },
    {
      "channel": 4,
      "note": 35,
      "start": 173.7685,
      "duration": 0.0823,
      "velocity": 108,
      "chip": "ym2612"
    },
    {
      "channel": 5,
      "note": 35,
      "start": 173.835,
      "duration": 0.0826,
      "velocity": 108,
      "chip": "ym2612"
    },
    {
      "channel": 0,
      "note": 35,
      "start": 173.8986,
      "duration": 0.1485,
      "velocity": 124,
      "chip": "ym2612"
    },
    {
      "channel": 1,
      "note": 26,
      "start": 173.8998,
      "duration": 0.2803,
      "velocity": 126,
      "chip": "ym2612"
    },
    {
      "channel": 4,
      "note": 35,
      "start": 173.9016,
      "duration": 0.0817,
      "velocity": 108,
      "chip": "ym2612"
    },
    {
      "channel": 5,
      "note": 35,
      "start": 173.984,
      "duration": 0.0826,
      "velocity": 108,
      "chip": "ym2612"
    },
    {
      "channel": 0,
      "note": 23,
      "start": 174.0476,
      "duration": 0.1319,
      "velocity": 124,
      "chip": "ym2612"
    },
    {
      "channel": 4,
      "note": 47,
      "start": 174.0498,
      "duration": 0.0824,
      "velocity": 108,
      "chip": "ym2612"
    },
    {
      "channel": 5,
      "note": 47,
      "start": 174.1164,
      "duration": 0.0826,
      "velocity": 108,
      "chip": "ym2612"
    },
    {
      "channel": 0,
      "note": 23,
      "start": 174.18,
      "duration": 0.1485,
      "velocity": 124,
      "chip": "ym2612"
    },
    {
      "channel": 1,
      "note": 38,
      "start": 174.1812,
      "duration": 0.2803,
      "velocity": 120,
      "chip": "ym2612"
    },
    {
      "channel": 2,
      "note": 59,
      "start": 174.1818,
      "duration": 0.0983,
      "velocity": 123,
      "chip": "ym2612"
    },
    {
      "channel": 4,
      "note": 38,
      "start": 174.1831,
      "duration": 0.0816,
      "velocity": 108,
      "chip": "ym2612"
    },
    {
      "channel": 5,
      "note": 38,
      "start": 174.2654,
      "duration": 0.0826,
      "velocity": 108,
      "chip": "ym2612"
    },
    {
      "channel": 0,
      "note": 35,
      "start": 174.329,
      "duration": 0.1319,
      "velocity": 124,
      "chip": "ym2612"
    },
    {
      "channel": 4,
      "note": 35,
      "start": 174.3311,
      "duration": 0.0825,
      "velocity": 108,
      "chip": "ym2612"
    },
    {
      "channel": 5,
      "note": 35,
      "start": 174.3978,
      "duration": 0.0826,
      "velocity": 108,
      "chip": "ym2612"
    },
    {
      "channel": 0,
      "note": 23,
      "start": 174.4614,
      "duration": 0.1485,
      "velocity": 124,
      "chip": "ym2612"
    },
    {
      "channel": 1,
      "note": 38,
      "start": 174.4621,
      "duration": 0.2808,
      "velocity": 120,
      "chip": "ym2612"
    },
    {
      "channel": 2,
      "note": 34,
      "start": 174.4633,
      "duration": 0.1477,
      "velocity": 64,
      "chip": "ym2612"
    },
    {
      "channel": 4,
      "note": 40,
      "start": 174.4645,
      "duration": 0.0816,
      "velocity": 108,
      "chip": "ym2612"
    },
    {
      "channel": 5,
      "note": 40,
      "start": 174.5468,
      "duration": 0.0826,
      "velocity": 108,
      "chip": "ym2612"
    },
    {
      "channel": 0,
      "note": 35,
      "start": 174.6104,
      "duration": 0.1319,
      "velocity": 124,
      "chip": "ym2612"
    },
    {
      "channel": 2,
      "note": 59,
      "start": 174.6121,
      "duration": 0.0819,
      "velocity": 123,
      "chip": "ym2612"
    },
    {
      "channel": 4,
      "note": 35,
      "start": 174.6133,
      "duration": 0.0817,
      "velocity": 108,
      "chip": "ym2612"
    },
    {
      "channel": 5,
      "note": 35,
      "start": 174.6792,
      "duration": 0.0827,
      "velocity": 108,
      "chip": "ym2612"
    },
    {
      "channel": 0,
      "note": 23,
      "start": 174.7428,
      "duration": 0.1485,
      "velocity": 124,
      "chip": "ym2612"
    },
    {
      "channel": 1,
      "note": 62,
      "start": 174.744,
      "duration": 0.1483,
      "velocity": 125,
      "chip": "ym2612"
    },
    {
      "channel": 4,
      "note": 38,
      "start": 174.7457,
      "duration": 0.0817,
      "velocity": 108,
      "chip": "ym2612"
    },
    {
      "channel": 5,
      "note": 38,
      "start": 174.8282,
      "duration": 0.0826,
      "velocity": 108,
      "chip": "ym2612"
    },
    {
      "channel": 0,
      "note": 23,
      "start": 174.8918,
      "duration": 0.1319,
      "velocity": 124,
      "chip": "ym2612"
    },
    {
      "channel": 4,
      "note": 35,
      "start": 174.894,
      "duration": 0.0824,
      "velocity": 108,
      "chip": "ym2612"
    },
    {
      "channel": 5,
      "note": 35,
      "start": 174.9605,
      "duration": 0.0827,
      "velocity": 108,
      "chip": "ym2612"
    },
    {
      "channel": 0,
      "note": 35,
      "start": 175.0242,
      "duration": 0.1485,
      "velocity": 124,
      "chip": "ym2612"
    },
    {
      "channel": 1,
      "note": 26,
      "start": 175.0254,
      "duration": 0.2803,
      "velocity": 126,
      "chip": "ym2612"
    },
    {
      "channel": 4,
      "note": 37,
      "start": 175.0271,
      "duration": 0.0817,
      "velocity": 108,
      "chip": "ym2612"
    },
    {
      "channel": 5,
      "note": 37,
      "start": 175.1096,
      "duration": 0.0827,
      "velocity": 108,
      "chip": "ym2612"
    },
    {
      "channel": 0,
      "note": 23,
      "start": 175.1732,
      "duration": 0.1319,
      "velocity": 124,
      "chip": "ym2612"
    },
    {
      "channel": 4,
      "note": 35,
      "start": 175.1754,
      "duration": 0.0824,
      "velocity": 108,
      "chip": "ym2612"
    },
    {
      "channel": 5,
      "note": 35,
      "start": 175.242,
      "duration": 0.0827,
      "velocity": 108,
      "chip": "ym2612"
    },
    {
      "channel": 0,
      "note": 35,
      "start": 175.3056,
      "duration": 0.1485,
      "velocity": 124,
      "chip": "ym2612"
    },
    {
      "channel": 1,
      "note": 62,
      "start": 175.3068,
      "duration": 0.1482,
      "velocity": 125,
      "chip": "ym2612"
    },
    {
      "channel": 2,
      "note": 22,
      "start": 175.308,
      "duration": 0.0976,
      "velocity": 64,
      "chip": "ym2612"
    },
    {
      "channel": 4,
      "note": 38,
      "start": 175.3093,
      "duration": 0.081,
      "velocity": 108,
      "chip": "ym2612"
    },
    {
      "channel": 5,
      "note": 38,
      "start": 175.391,
      "duration": 0.0826,
      "velocity": 108,
      "chip": "ym2612"
    },
    {
      "channel": 0,
      "note": 23,
      "start": 175.4546,
      "duration": 0.1319,
      "velocity": 124,
      "chip": "ym2612"
    },
    {
      "channel": 2,
      "note": 34,
      "start": 175.4557,
      "duration": 0.0824,
      "velocity": 64,
      "chip": "ym2612"
    },
    {
      "channel": 4,
      "note": 47,
      "start": 175.457,
      "duration": 0.0823,
      "velocity": 108,
      "chip": "ym2612"
    },
    {
      "channel": 5,
      "note": 47,
      "start": 175.5234,
      "duration": 0.0826,
      "velocity": 108,
      "chip": "ym2612"
    },
    {
      "channel": 0,
      "note": 19,
      "start": 175.587,
      "duration": 0.1485,
      "velocity": 124,
      "chip": "ym2612"
    },
    {
      "channel": 1,
      "note": 38,
      "start": 175.5882,
      "duration": 0.2803,
      "velocity": 120,
      "chip": "ym2612"
    },
    {
      "channel": 2,
      "note": 71,
      "start": 175.5894,
      "duration": 0.1472,
      "velocity": 122,
      "chip": "ym2612"
    },
    {
      "channel": 3,
      "note": 38,
      "start": 175.5902,
      "duration": 4.5018,
      "velocity": 108,
      "chip": "ym2612"
    },
    {
      "channel": 4,
      "note": 37,
      "start": 175.5909,
      "duration": 0.0807,
      "velocity": 108,
      "chip": "ym2612"
    },
    {
      "channel": 5,
      "note": 37,
      "start": 175.6724,
      "duration": 0.0826,
      "velocity": 108,
      "chip": "ym2612"
    },
    {
      "channel": 0,
      "note": 31,
      "start": 175.736,
      "duration": 0.1319,
      "velocity": 124,
      "chip": "ym2612"
    },
    {
      "channel": 2,
      "note": 71,
      "start": 175.7371,
      "duration": 0.0824,
      "velocity": 122,
      "chip": "ym2612"
    },
    {
      "channel": 4,
      "note": 35,
      "start": 175.7383,
      "duration": 0.0823,
      "velocity": 108,
      "chip": "ym2612"
    },
    {
      "channel": 5,
      "note": 35,
      "start": 175.8047,
      "duration": 0.0826,
      "velocity": 108,
      "chip": "ym2612"
    },
    {
      "channel": 0,
      "note": 19,
      "start": 175.8684,
      "duration": 0.1485,
      "velocity": 124,
      "chip": "ym2612"
    },
    {
      "channel": 1,
      "note": 62,
      "start": 175.8696,
      "duration": 0.1483,
      "velocity": 125,
      "chip": "ym2612"
    },
    {
      "channel": 2,
      "note": 66,
      "start": 175.8702,
      "duration": 0.1478,
      "velocity": 122,
      "chip": "ym2612"
    },
    {
      "channel": 4,
      "note": 38,
      "start": 175.8715,
      "duration": 0.0815,
      "velocity": 108,
      "chip": "ym2612"
    },
    {
      "channel": 5,
      "note": 38,
      "start": 175.9537,
      "duration": 0.0826,
      "velocity": 108,
      "chip": "ym2612"
    },
    {
      "channel": 0,
      "note": 19,
      "start": 176.0173,
      "duration": 0.1319,
      "velocity": 124,
      "chip": "ym2612"
    },
    {
      "channel": 2,
      "note": 59,
      "start": 176.0185,
      "duration": 0.0824,
      "velocity": 123,
      "chip": "ym2612"
    },
    {
      "channel": 4,
      "note": 35,
      "start": 176.0197,
      "duration": 0.0823,
      "velocity": 108,
      "chip": "ym2612"
    },
    {
      "channel": 5,
      "note": 35,
      "start": 176.0862,
      "duration": 0.0826,
      "velocity": 108,
      "chip": "ym2612"
    },
    {
      "channel": 0,
      "note": 31,
      "start": 176.1498,
      "duration": 0.1485,
      "velocity": 124,
      "chip": "ym2612"
    },
    {
      "channel": 1,
      "note": 26,
      "start": 176.151,
      "duration": 0.2803,
      "velocity": 126,
      "chip": "ym2612"
    },
    {
      "channel": 2,
      "note": 23,
      "start": 176.1516,
      "duration": 0.0982,
      "velocity": 123,
      "chip": "ym2612"
    },
    {
      "channel": 4,
      "note": 35,
      "start": 176.1529,
      "duration": 0.0815,
      "velocity": 108,
      "chip": "ym2612"
    },
    {
      "channel": 5,
      "note": 35,
      "start": 176.2351,
      "duration": 0.0826,
      "velocity": 108,
      "chip": "ym2612"
    },
    {
      "channel": 0,
      "note": 19,
      "start": 176.2988,
      "duration": 0.132,
      "velocity": 124,
      "chip": "ym2612"
    },
    {
      "channel": 2,
      "note": 35,
      "start": 176.2998,
      "duration": 0.0824,
      "velocity": 123,
      "chip": "ym2612"
    },
    {
      "channel": 4,
      "note": 47,
      "start": 176.3011,
      "duration": 0.0823,
      "velocity": 108,
      "chip": "ym2612"
    },
    {
      "channel": 5,
      "note": 47,
      "start": 176.3675,
      "duration": 0.0826,
      "velocity": 108,
      "chip": "ym2612"
    },
    {
      "channel": 0,
      "note": 19,
      "start": 176.4311,
      "duration": 0.1485,
      "velocity": 124,
      "chip": "ym2612"
    },
    {
      "channel": 1,
      "note": 38,
      "start": 176.4324,
      "duration": 0.2803,
      "velocity": 120,
      "chip": "ym2612"
    },
    {
      "channel": 2,
      "note": 59,
      "start": 176.433,
      "duration": 0.0982,
      "velocity": 123,
      "chip": "ym2612"
    },
    {
      "channel": 4,
      "note": 38,
      "start": 176.4343,
      "duration": 0.0815,
      "velocity": 108,
      "chip": "ym2612"
    },
    {
      "channel": 5,
      "note": 38,
      "start": 176.5165,
      "duration": 0.0826,
      "velocity": 108,
      "chip": "ym2612"
    },
    {
      "channel": 0,
      "note": 31,
      "start": 176.5801,
      "duration": 0.1319,
      "velocity": 124,
      "chip": "ym2612"
    },
    {
      "channel": 4,
      "note": 35,
      "start": 176.5823,
      "duration": 0.0824,
      "velocity": 108,
      "chip": "ym2612"
    },
    {
      "channel": 5,
      "note": 35,
      "start": 176.6489,
      "duration": 0.0826,
      "velocity": 108,
      "chip": "ym2612"
    },
    {
      "channel": 0,
      "note": 19,
      "start": 176.7126,
      "duration": 0.1485,
      "velocity": 124,
      "chip": "ym2612"
    },
    {
      "channel": 1,
      "note": 38,
      "start": 176.7132,
      "duration": 0.2809,
      "velocity": 120,
      "chip": "ym2612"
    },
    {
      "channel": 2,
      "note": 34,
      "start": 176.7144,
      "duration": 0.1477,
      "velocity": 64,
      "chip": "ym2612"
    },
    {
      "channel": 4,
      "note": 40,
      "start": 176.7156,
      "duration": 0.0815,
      "velocity": 108,
      "chip": "ym2612"
    },
    {
      "channel": 5,
      "note": 40,
      "start": 176.7979,
      "duration": 0.0826,
      "velocity": 108,
      "chip": "ym2612"
    },
    {
      "channel": 0,
      "note": 31,
      "start": 176.8615,
      "duration": 0.132,
      "velocity": 124,
      "chip": "ym2612"
    },
    {
      "channel": 2,
      "note": 59,
      "start": 176.8632,
      "duration": 0.0819,
      "velocity": 123,
      "chip": "ym2612"
    },
    {
      "channel": 4,
      "note": 35,
      "start": 176.8645,
      "duration": 0.0817,
      "velocity": 108,
      "chip": "ym2612"
    },
    {
      "channel": 5,
      "note": 35,
      "start": 176.9303,
      "duration": 0.0826,
      "velocity": 108,
      "chip": "ym2612"
    },
    {
      "channel": 0,
      "note": 19,
      "start": 176.9939,
      "duration": 0.1485,
      "velocity": 124,
      "chip": "ym2612"
    },
    {
      "channel": 1,
      "note": 62,
      "start": 176.9951,
      "duration": 0.1483,
      "velocity": 125,
      "chip": "ym2612"
    },
    {
      "channel": 4,
      "note": 38,
      "start": 176.9968,
      "duration": 0.0817,
      "velocity": 108,
      "chip": "ym2612"
    },
    {
      "channel": 5,
      "note": 38,
      "start": 177.0793,
      "duration": 0.0826,
      "velocity": 108,
      "chip": "ym2612"
    },
    {
      "channel": 0,
      "note": 19,
      "start": 177.1429,
      "duration": 0.132,
      "velocity": 124,
      "chip": "ym2612"
    },
    {
      "channel": 2,
      "note": 59,
      "start": 177.1441,
      "duration": 0.0824,
      "velocity": 123,
      "chip": "ym2612"
    },
    {
      "channel": 4,
      "note": 35,
      "start": 177.1453,
      "duration": 0.0823,
      "velocity": 108,
      "chip": "ym2612"
    },
    {
      "channel": 5,
      "note": 35,
      "start": 177.2117,
      "duration": 0.0826,
      "velocity": 108,
      "chip": "ym2612"
    },
    {
      "channel": 0,
      "note": 31,
      "start": 177.2754,
      "duration": 0.1485,
      "velocity": 124,
      "chip": "ym2612"
    },
    {
      "channel": 1,
      "note": 26,
      "start": 177.2766,
      "duration": 0.5617,
      "velocity": 126,
      "chip": "ym2612"
    },
    {
      "channel": 4,
      "note": 37,
      "start": 177.2783,
      "duration": 0.0817,
      "velocity": 108,
      "chip": "ym2612"
    },
    {
      "channel": 5,
      "note": 37,
      "start": 177.3607,
      "duration": 0.0826,
      "velocity": 108,
      "chip": "ym2612"
    },
    {
      "channel": 0,
      "note": 19,
      "start": 177.4243,
      "duration": 0.132,
      "velocity": 124,
      "chip": "ym2612"
    },
    {
      "channel": 2,
      "note": 34,
      "start": 177.426,
      "duration": 0.1314,
      "velocity": 64,
      "chip": "ym2612"
    },
    {
      "channel": 4,
      "note": 35,
      "start": 177.4273,
      "duration": 0.0817,
      "velocity": 108,
      "chip": "ym2612"
    },
    {
      "channel": 5,
      "note": 35,
      "start": 177.4932,
      "duration": 0.0826,
      "velocity": 108,
      "chip": "ym2612"
    },
    {
      "channel": 0,
      "note": 31,
      "start": 177.5568,
      "duration": 0.1485,
      "velocity": 124,
      "chip": "ym2612"
    },
    {
      "channel": 2,
      "note": 59,
      "start": 177.5584,
      "duration": 0.0984,
      "velocity": 123,
      "chip": "ym2612"
    },
    {
      "channel": 4,
      "note": 38,
      "start": 177.5597,
      "duration": 0.0817,
      "velocity": 108,
      "chip": "ym2612"
    },
    {
      "channel": 5,
      "note": 38,
      "start": 177.6422,
      "duration": 0.0826,
      "velocity": 108,
      "chip": "ym2612"
    },
    {
      "channel": 0,
      "note": 21,
      "start": 177.7057,
      "duration": 0.132,
      "velocity": 124,
      "chip": "ym2612"
    },
    {
      "channel": 4,
      "note": 47,
      "start": 177.7079,
      "duration": 0.0824,
      "velocity": 108,
      "chip": "ym2612"
    },
    {
      "channel": 5,
      "note": 47,
      "start": 177.7745,
      "duration": 0.0826,
      "velocity": 108,
      "chip": "ym2612"
    },
    {
      "channel": 0,
      "note": 23,
      "start": 177.8381,
      "duration": 0.1485,
      "velocity": 124,
      "chip": "ym2612"
    },
    {
      "channel": 1,
      "note": 38,
      "start": 177.8393,
      "duration": 0.2803,
      "velocity": 120,
      "chip": "ym2612"
    },
    {
      "channel": 4,
      "note": 37,
      "start": 177.8411,
      "duration": 0.0816,
      "velocity": 108,
      "chip": "ym2612"
    },
    {
      "channel": 5,
      "note": 37,
      "start": 177.9235,
      "duration": 0.0826,
      "velocity": 108,
      "chip": "ym2612"
    },
    {
      "channel": 0,
      "note": 35,
      "start": 177.9871,
      "duration": 0.1319,
      "velocity": 124,
      "chip": "ym2612"
    },
    {
      "channel": 2,
      "note": 59,
      "start": 177.9882,
      "duration": 0.0824,
      "velocity": 123,
      "chip": "ym2612"
    },
    {
      "channel": 4,
      "note": 35,
      "start": 177.9895,
      "duration": 0.0822,
      "velocity": 108,
      "chip": "ym2612"
    },
    {
      "channel": 5,
      "note": 35,
      "start": 178.0559,
      "duration": 0.0826,
      "velocity": 108,
      "chip": "ym2612"
    },
    {
      "channel": 0,
      "note": 23,
      "start": 178.1195,
      "duration": 0.1485,
      "velocity": 124,
      "chip": "ym2612"
    },
    {
      "channel": 1,
      "note": 62,
      "start": 178.1207,
      "duration": 0.1483,
      "velocity": 125,
      "chip": "ym2612"
    },
    {
      "channel": 4,
      "note": 38,
      "start": 178.1224,
      "duration": 0.0817,
      "velocity": 108,
      "chip": "ym2612"
    },
    {
      "channel": 5,
      "note": 38,
      "start": 178.2049,
      "duration": 0.0826,
      "velocity": 108,
      "chip": "ym2612"
    },
    {
      "channel": 0,
      "note": 23,
      "start": 178.2685,
      "duration": 0.1319,
      "velocity": 124,
      "chip": "ym2612"
    },
    {
      "channel": 2,
      "note": 59,
      "start": 178.2696,
      "duration": 0.0824,
      "velocity": 123,
      "chip": "ym2612"
    },
    {
      "channel": 4,
      "note": 35,
      "start": 178.2708,
      "duration": 0.0823,
      "velocity": 108,
      "chip": "ym2612"
    },
    {
      "channel": 5,
      "note": 35,
      "start": 178.3373,
      "duration": 0.0826,
      "velocity": 108,
      "chip": "ym2612"
    },
    {
      "channel": 0,
      "note": 35,
      "start": 178.4009,
      "duration": 0.1485,
      "velocity": 124,
      "chip": "ym2612"
    },
    {
      "channel": 1,
      "note": 26,
      "start": 178.4021,
      "duration": 0.2803,
      "velocity": 126,
      "chip": "ym2612"
    },
    {
      "channel": 4,
      "note": 35,
      "start": 178.4039,
      "duration": 0.0817,
      "velocity": 108,
      "chip": "ym2612"
    },
    {
      "channel": 5,
      "note": 35,
      "start": 178.4862,
      "duration": 0.0826,
      "velocity": 108,
      "chip": "ym2612"
    },
    {
      "channel": 0,
      "note": 23,
      "start": 178.5498,
      "duration": 0.132,
      "velocity": 124,
      "chip": "ym2612"
    },
    {
      "channel": 4,
      "note": 47,
      "start": 178.5521,
      "duration": 0.0824,
      "velocity": 108,
      "chip": "ym2612"
    },
    {
      "channel": 5,
      "note": 47,
      "start": 178.6187,
      "duration": 0.0826,
      "velocity": 108,
      "chip": "ym2612"
    },
    {
      "channel": 0,
      "note": 23,
      "start": 178.6823,
      "duration": 0.1485,
      "velocity": 124,
      "chip": "ym2612"
    },
    {
      "channel": 1,
      "note": 38,
      "start": 178.6835,
      "duration": 0.2803,
      "velocity": 120,
      "chip": "ym2612"
    },
    {
      "channel": 2,
      "note": 59,
      "start": 178.6841,
      "duration": 0.0982,
      "velocity": 123,
      "chip": "ym2612"
    },
    {
      "channel": 4,
      "note": 38,
      "start": 178.6854,
      "duration": 0.0816,
      "velocity": 108,
      "chip": "ym2612"
    },
    {
      "channel": 5,
      "note": 38,
      "start": 178.7677,
      "duration": 0.0826,
      "velocity": 108,
      "chip": "ym2612"
    },
    {
      "channel": 0,
      "note": 35,
      "start": 178.8313,
      "duration": 0.1319,
      "velocity": 124,
      "chip": "ym2612"
    },
    {
      "channel": 4,
      "note": 35,
      "start": 178.8334,
      "duration": 0.0824,
      "velocity": 108,
      "chip": "ym2612"
    },
    {
      "channel": 5,
      "note": 35,
      "start": 178.9,
      "duration": 0.0826,
      "velocity": 108,
      "chip": "ym2612"
    },
    {
      "channel": 0,
      "note": 23,
      "start": 178.9637,
      "duration": 0.1485,
      "velocity": 124,
      "chip": "ym2612"
    },
    {
      "channel": 1,
      "note": 38,
      "start": 178.9644,
      "duration": 0.2808,
      "velocity": 120,
      "chip": "ym2612"
    },
    {
      "channel": 2,
      "note": 34,
      "start": 178.9656,
      "duration": 0.1477,
      "velocity": 64,
      "chip": "ym2612"
    },
    {
      "channel": 4,
      "note": 40,
      "start": 178.9668,
      "duration": 0.0816,
      "velocity": 108,
      "chip": "ym2612"
    },
    {
      "channel": 5,
      "note": 40,
      "start": 179.049,
      "duration": 0.0826,
      "velocity": 108,
      "chip": "ym2612"
    },
    {
      "channel": 0,
      "note": 35,
      "start": 179.1126,
      "duration": 0.132,
      "velocity": 124,
      "chip": "ym2612"
    },
    {
      "channel": 2,
      "note": 59,
      "start": 179.1144,
      "duration": 0.0819,
      "velocity": 123,
      "chip": "ym2612"
    },
    {
      "channel": 4,
      "note": 35,
      "start": 179.1156,
      "duration": 0.0817,
      "velocity": 108,
      "chip": "ym2612"
    },
    {
      "channel": 5,
      "note": 35,
      "start": 179.1815,
      "duration": 0.0827,
      "velocity": 108,
      "chip": "ym2612"
    },
    {
      "channel": 0,
      "note": 23,
      "start": 179.2451,
      "duration": 0.1485,
      "velocity": 124,
      "chip": "ym2612"
    },
    {
      "channel": 1,
      "note": 62,
      "start": 179.2463,
      "duration": 0.1483,
      "velocity": 125,
      "chip": "ym2612"
    },
    {
      "channel": 4,
      "note": 38,
      "start": 179.248,
      "duration": 0.0817,
      "velocity": 108,
      "chip": "ym2612"
    },
    {
      "channel": 5,
      "note": 38,
      "start": 179.3305,
      "duration": 0.0826,
      "velocity": 108,
      "chip": "ym2612"
    },
    {
      "channel": 0,
      "note": 23,
      "start": 179.3941,
      "duration": 0.1319,
      "velocity": 124,
      "chip": "ym2612"
    },
    {
      "channel": 4,
      "note": 35,
      "start": 179.3963,
      "duration": 0.0824,
      "velocity": 108,
      "chip": "ym2612"
    },
    {
      "channel": 5,
      "note": 35,
      "start": 179.4628,
      "duration": 0.0827,
      "velocity": 108,
      "chip": "ym2612"
    },
    {
      "channel": 0,
      "note": 35,
      "start": 179.5265,
      "duration": 0.1485,
      "velocity": 124,
      "chip": "ym2612"
    },
    {
      "channel": 1,
      "note": 26,
      "start": 179.5277,
      "duration": 0.2803,
      "velocity": 126,
      "chip": "ym2612"
    },
    {
      "channel": 4,
      "note": 37,
      "start": 179.5294,
      "duration": 0.0817,
      "velocity": 108,
      "chip": "ym2612"
    },
    {
      "channel": 5,
      "note": 37,
      "start": 179.6118,
      "duration": 0.0826,
      "velocity": 108,
      "chip": "ym2612"
    },
    {
      "channel": 0,
      "note": 23,
      "start": 179.6754,
      "duration": 0.132,
      "velocity": 124,
      "chip": "ym2612"
    },
    {
      "channel": 4,
      "note": 35,
      "start": 179.6776,
      "duration": 0.0824,
      "velocity": 108,
      "chip": "ym2612"
    },
    {
      "channel": 5,
      "note": 35,
      "start": 179.7442,
      "duration": 0.0826,
      "velocity": 108,
      "chip": "ym2612"
    },
    {
      "channel": 0,
      "note": 35,
      "start": 179.8079,
      "duration": 0.1485,
      "velocity": 124,
      "chip": "ym2612"
    },
    {
      "channel": 1,
      "note": 62,
      "start": 179.8091,
      "duration": 0.1483,
      "velocity": 125,
      "chip": "ym2612"
    },
    {
      "channel": 2,
      "note": 22,
      "start": 179.8103,
      "duration": 0.0977,
      "velocity": 64,
      "chip": "ym2612"
    },
    {
      "channel": 4,
      "note": 38,
      "start": 179.8115,
      "duration": 0.081,
      "velocity": 108,
      "chip": "ym2612"
    },
    {
      "channel": 5,
      "note": 38,
      "start": 179.8933,
      "duration": 0.0826,
      "velocity": 108,
      "chip": "ym2612"
    },
    {
      "channel": 0,
      "note": 23,
      "start": 179.9569,
      "duration": 0.1319,
      "velocity": 124,
      "chip": "ym2612"
    },
    {
      "channel": 2,
      "note": 34,
      "start": 179.958,
      "duration": 0.0824,
      "velocity": 64,
      "chip": "ym2612"
    },
    {
      "channel": 4,
      "note": 47,
      "start": 179.9593,
      "duration": 0.0823,
      "velocity": 108,
      "chip": "ym2612"
    },
    {
      "channel": 5,
      "note": 47,
      "start": 180.0257,
      "duration": 0.0826,
      "velocity": 108,
      "chip": "ym2612"
    },
    {
      "channel": 0,
      "note": 23,
      "start": 180.0893,
      "duration": 0.1485,
      "velocity": 124,
      "chip": "ym2612"
    },
    {
      "channel": 1,
      "note": 38,
      "start": 180.0906,
      "duration": 0.2802,
      "velocity": 120,
      "chip": "ym2612"
    },
    {
      "channel": 2,
      "note": 71,
      "start": 180.0918,
      "duration": 0.1471,
      "velocity": 122,
      "chip": "ym2612"
    },
    {
      "channel": 3,
      "note": 35,
      "start": 180.0925,
      "duration": 4.5017,
      "velocity": 108,
      "chip": "ym2612"
    },
    {
      "channel": 4,
      "note": 37,
      "start": 180.0932,
      "duration": 0.0808,
      "velocity": 108,
      "chip": "ym2612"
    },
    {
      "channel": 5,
      "note": 37,
      "start": 180.1746,
      "duration": 0.0826,
      "velocity": 108,
      "chip": "ym2612"
    },
    {
      "channel": 0,
      "note": 35,
      "start": 180.2382,
      "duration": 0.132,
      "velocity": 124,
      "chip": "ym2612"
    },
    {
      "channel": 2,
      "note": 71,
      "start": 180.2393,
      "duration": 0.0824,
      "velocity": 122,
      "chip": "ym2612"
    },
    {
      "channel": 4,
      "note": 35,
      "start": 180.2406,
      "duration": 0.0823,
      "velocity": 108,
      "chip": "ym2612"
    },
    {
      "channel": 5,
      "note": 35,
      "start": 180.3071,
      "duration": 0.0826,
      "velocity": 108,
      "chip": "ym2612"
    },
    {
      "channel": 0,
      "note": 23,
      "start": 180.3707,
      "duration": 0.1485,
      "velocity": 124,
      "chip": "ym2612"
    },
    {
      "channel": 1,
      "note": 62,
      "start": 180.3719,
      "duration": 0.1483,
      "velocity": 125,
      "chip": "ym2612"
    },
    {
      "channel": 2,
      "note": 66,
      "start": 180.3725,
      "duration": 0.1478,
      "velocity": 122,
      "chip": "ym2612"
    },
    {
      "channel": 4,
      "note": 38,
      "start": 180.3738,
      "duration": 0.0815,
      "velocity": 108,
      "chip": "ym2612"
    },
    {
      "channel": 5,
      "note": 38,
      "start": 180.456,
      "duration": 0.0826,
      "velocity": 108,
      "chip": "ym2612"
    },
    {
      "channel": 0,
      "note": 23,
      "start": 180.5196,
      "duration": 0.1319,
      "velocity": 124,
      "chip": "ym2612"
    },
    {
      "channel": 2,
      "note": 59,
      "start": 180.5208,
      "duration": 0.0824,
      "velocity": 123,
      "chip": "ym2612"
    },
    {
      "channel": 4,
      "note": 35,
      "start": 180.522,
      "duration": 0.0823,
      "velocity": 108,
      "chip": "ym2612"
    },
    {
      "channel": 5,
      "note": 35,
      "start": 180.5884,
      "duration": 0.0826,
      "velocity": 108,
      "chip": "ym2612"
    },
    {
      "channel": 0,
      "note": 35,
      "start": 180.6521,
      "duration": 0.1485,
      "velocity": 124,
      "chip": "ym2612"
    },
    {
      "channel": 1,
      "note": 26,
      "start": 180.6533,
      "duration": 0.2803,
      "velocity": 126,
      "chip": "ym2612"
    },
    {
      "channel": 2,
      "note": 23,
      "start": 180.6539,
      "duration": 0.0982,
      "velocity": 123,
      "chip": "ym2612"
    },
    {
      "channel": 4,
      "note": 35,
      "start": 180.6552,
      "duration": 0.0815,
      "velocity": 108,
      "chip": "ym2612"
    },
    {
      "channel": 5,
      "note": 35,
      "start": 180.7374,
      "duration": 0.0826,
      "velocity": 108,
      "chip": "ym2612"
    },
    {
      "channel": 0,
      "note": 23,
      "start": 180.801,
      "duration": 0.132,
      "velocity": 124,
      "chip": "ym2612"
    },
    {
      "channel": 2,
      "note": 35,
      "start": 180.8021,
      "duration": 0.0824,
      "velocity": 123,
      "chip": "ym2612"
    },
    {
      "channel": 4,
      "note": 47,
      "start": 180.8033,
      "duration": 0.0823,
      "velocity": 108,
      "chip": "ym2612"
    },
    {
      "channel": 5,
      "note": 47,
      "start": 180.8698,
      "duration": 0.0826,
      "velocity": 108,
      "chip": "ym2612"
    },
    {
      "channel": 0,
      "note": 23,
      "start": 180.9334,
      "duration": 0.1485,
      "velocity": 124,
      "chip": "ym2612"
    },
    {
      "channel": 1,
      "note": 38,
      "start": 180.9346,
      "duration": 0.2803,
      "velocity": 120,
      "chip": "ym2612"
    },
    {
      "channel": 2,
      "note": 59,
      "start": 180.9353,
      "duration": 0.0982,
      "velocity": 123,
      "chip": "ym2612"
    },
    {
      "channel": 4,
      "note": 38,
      "start": 180.9366,
      "duration": 0.0815,
      "velocity": 108,
      "chip": "ym2612"
    },
    {
      "channel": 5,
      "note": 38,
      "start": 181.0188,
      "duration": 0.0826,
      "velocity": 108,
      "chip": "ym2612"
    },
    {
      "channel": 0,
      "note": 35,
      "start": 181.0824,
      "duration": 0.132,
      "velocity": 124,
      "chip": "ym2612"
    },
    {
      "channel": 4,
      "note": 35,
      "start": 181.0846,
      "duration": 0.0824,
      "velocity": 108,
      "chip": "ym2612"
    },
    {
      "channel": 5,
      "note": 35,
      "start": 181.1512,
      "duration": 0.0826,
      "velocity": 108,
      "chip": "ym2612"
    },
    {
      "channel": 0,
      "note": 23,
      "start": 181.2149,
      "duration": 0.1485,
      "velocity": 124,
      "chip": "ym2612"
    },
    {
      "channel": 1,
      "note": 38,
      "start": 181.2155,
      "duration": 0.2809,
      "velocity": 120,
      "chip": "ym2612"
    },
    {
      "channel": 2,
      "note": 34,
      "start": 181.2167,
      "duration": 0.1476,
      "velocity": 64,
      "chip": "ym2612"
    },
    {
      "channel": 4,
      "note": 40,
      "start": 181.2179,
      "duration": 0.0815,
      "velocity": 108,
      "chip": "ym2612"
    },
    {
      "channel": 5,
      "note": 40,
      "start": 181.3002,
      "duration": 0.0826,
      "velocity": 108,
      "chip": "ym2612"
    },
    {
      "channel": 0,
      "note": 35,
      "start": 181.3638,
      "duration": 0.132,
      "velocity": 124,
      "chip": "ym2612"
    },
    {
      "channel": 2,
      "note": 59,
      "start": 181.3655,
      "duration": 0.0819,
      "velocity": 123,
      "chip": "ym2612"
    },
    {
      "channel": 4,
      "note": 35,
      "start": 181.3667,
      "duration": 0.0817,
      "velocity": 108,
      "chip": "ym2612"
    },
    {
      "channel": 5,
      "note": 35,
      "start": 181.4326,
      "duration": 0.0826,
      "velocity": 108,
      "chip": "ym2612"
    },
    {
      "channel": 0,
      "note": 23,
      "start": 181.4962,
      "duration": 0.1485,
      "velocity": 124,
      "chip": "ym2612"
    },
    {
      "channel": 1,
      "note": 62,
      "start": 181.4974,
      "duration": 0.1483,
      "velocity": 125,
      "chip": "ym2612"
    },
    {
      "channel": 4,
      "note": 38,
      "start": 181.4991,
      "duration": 0.0817,
      "velocity": 108,
      "chip": "ym2612"
    },
    {
      "channel": 5,
      "note": 38,
      "start": 181.5816,
      "duration": 0.0826,
      "velocity": 108,
      "chip": "ym2612"
    },
    {
      "channel": 0,
      "note": 23,
      "start": 181.6452,
      "duration": 0.132,
      "velocity": 124,
      "chip": "ym2612"
    },
    {
      "channel": 2,
      "note": 59,
      "start": 181.6463,
      "duration": 0.0824,
      "velocity": 123,
      "chip": "ym2612"
    },
    {
      "channel": 4,
      "note": 35,
      "start": 181.6476,
      "duration": 0.0823,
      "velocity": 108,
      "chip": "ym2612"
    },
    {
      "channel": 5,
      "note": 35,
      "start": 181.714,
      "duration": 0.0826,
      "velocity": 108,
      "chip": "ym2612"
    },
    {
      "channel": 0,
      "note": 35,
      "start": 181.7776,
      "duration": 0.1485,
      "velocity": 124,
      "chip": "ym2612"
    },
    {
      "channel": 1,
      "note": 26,
      "start": 181.7788,
      "duration": 0.5617,
      "velocity": 126,
      "chip": "ym2612"
    },
    {
      "channel": 4,
      "note": 37,
      "start": 181.7806,
      "duration": 0.0817,
      "velocity": 108,
      "chip": "ym2612"
    },
    {
      "channel": 5,
      "note": 37,
      "start": 181.8629,
      "duration": 0.0826,
      "velocity": 108,
      "chip": "ym2612"
    },
    {
      "channel": 0,
      "note": 23,
      "start": 181.9266,
      "duration": 0.132,
      "velocity": 124,
      "chip": "ym2612"
    },
    {
      "channel": 2,
      "note": 34,
      "start": 181.9283,
      "duration": 0.1313,
      "velocity": 64,
      "chip": "ym2612"
    },
    {
      "channel": 4,
      "note": 35,
      "start": 181.9295,
      "duration": 0.0817,
      "velocity": 108,
      "chip": "ym2612"
    },
    {
      "channel": 5,
      "note": 35,
      "start": 181.9954,
      "duration": 0.0826,
      "velocity": 108,
      "chip": "ym2612"
    },
    {
      "channel": 0,
      "note": 23,
      "start": 182.059,
      "duration": 0.1485,
      "velocity": 124,
      "chip": "ym2612"
    },
    {
      "channel": 2,
      "note": 59,
      "start": 182.0607,
      "duration": 0.0985,
      "velocity": 123,
      "chip": "ym2612"
    },
    {
      "channel": 4,
      "note": 38,
      "start": 182.0619,
      "duration": 0.0817,
      "velocity": 108,
      "chip": "ym2612"
    },
    {
      "channel": 5,
      "note": 38,
      "start": 182.1444,
      "duration": 0.0826,
      "velocity": 108,
      "chip": "ym2612"
    },
    {
      "channel": 0,
      "note": 35,
      "start": 182.208,
      "duration": 0.132,
      "velocity": 124,
      "chip": "ym2612"
    },
    {
      "channel": 4,
      "note": 47,
      "start": 182.2102,
      "duration": 0.0824,
      "velocity": 108,
      "chip": "ym2612"
    },
    {
      "channel": 5,
      "note": 47,
      "start": 182.2768,
      "duration": 0.0827,
      "velocity": 108,
      "chip": "ym2612"
    },
    {
      "channel": 0,
      "note": 23,
      "start": 182.3404,
      "duration": 0.1485,
      "velocity": 124,
      "chip": "ym2612"
    },
    {
      "channel": 1,
      "note": 38,
      "start": 182.3416,
      "duration": 0.2803,
      "velocity": 120,
      "chip": "ym2612"
    },
    {
      "channel": 4,
      "note": 37,
      "start": 182.3434,
      "duration": 0.0817,
      "velocity": 108,
      "chip": "ym2612"
    },
    {
      "channel": 5,
      "note": 37,
      "start": 182.4258,
      "duration": 0.0826,
      "velocity": 108,
      "chip": "ym2612"
    },
    {
      "channel": 0,
      "note": 35,
      "start": 182.4893,
      "duration": 0.132,
      "velocity": 124,
      "chip": "ym2612"
    },
    {
      "channel": 2,
      "note": 59,
      "start": 182.4905,
      "duration": 0.0824,
      "velocity": 123,
      "chip": "ym2612"
    },
    {
      "channel": 4,
      "note": 35,
      "start": 182.4918,
      "duration": 0.0823,
      "velocity": 108,
      "chip": "ym2612"
    },
    {
      "channel": 5,
      "note": 35,
      "start": 182.5582,
      "duration": 0.0826,
      "velocity": 108,
      "chip": "ym2612"
    },
    {
      "channel": 0,
      "note": 23,
      "start": 182.6218,
      "duration": 0.1485,
      "velocity": 124,
      "chip": "ym2612"
    },
    {
      "channel": 1,
      "note": 62,
      "start": 182.623,
      "duration": 0.1482,
      "velocity": 125,
      "chip": "ym2612"
    },
    {
      "channel": 4,
      "note": 38,
      "start": 182.6248,
      "duration": 0.0817,
      "velocity": 108,
      "chip": "ym2612"
    },
    {
      "channel": 5,
      "note": 38,
      "start": 182.7072,
      "duration": 0.0826,
      "velocity": 108,
      "chip": "ym2612"
    },
    {
      "channel": 0,
      "note": 23,
      "start": 182.7708,
      "duration": 0.1319,
      "velocity": 124,
      "chip": "ym2612"
    },
    {
      "channel": 2,
      "note": 59,
      "start": 182.7719,
      "duration": 0.0824,
      "velocity": 123,
      "chip": "ym2612"
    },
    {
      "channel": 4,
      "note": 35,
      "start": 182.7732,
      "duration": 0.0822,
      "velocity": 108,
      "chip": "ym2612"
    },
    {
      "channel": 5,
      "note": 35,
      "start": 182.8395,
      "duration": 0.0826,
      "velocity": 108,
      "chip": "ym2612"
    },
    {
      "channel": 0,
      "note": 35,
      "start": 182.9032,
      "duration": 0.1485,
      "velocity": 124,
      "chip": "ym2612"
    },
    {
      "channel": 1,
      "note": 26,
      "start": 182.9044,
      "duration": 0.2803,
      "velocity": 126,
      "chip": "ym2612"
    },
    {
      "channel": 4,
      "note": 35,
      "start": 182.9061,
      "duration": 0.0817,
      "velocity": 108,
      "chip": "ym2612"
    },
    {
      "channel": 5,
      "note": 35,
      "start": 182.9885,
      "duration": 0.0826,
      "velocity": 108,
      "chip": "ym2612"
    },
    {
      "channel": 0,
      "note": 23,
      "start": 183.0521,
      "duration": 0.1319,
      "velocity": 124,
      "chip": "ym2612"
    },
    {
      "channel": 4,
      "note": 47,
      "start": 183.0543,
      "duration": 0.0825,
      "velocity": 108,
      "chip": "ym2612"
    },
    {
      "channel": 5,
      "note": 47,
      "start": 183.121,
      "duration": 0.0826,
      "velocity": 108,
      "chip": "ym2612"
    },
    {
      "channel": 0,
      "note": 23,
      "start": 183.1846,
      "duration": 0.1485,
      "velocity": 124,
      "chip": "ym2612"
    },
    {
      "channel": 1,
      "note": 38,
      "start": 183.1858,
      "duration": 0.2803,
      "velocity": 120,
      "chip": "ym2612"
    },
    {
      "channel": 2,
      "note": 59,
      "start": 183.1864,
      "duration": 0.0982,
      "velocity": 123,
      "chip": "ym2612"
    },
    {
      "channel": 4,
      "note": 38,
      "start": 183.1877,
      "duration": 0.0816,
      "velocity": 108,
      "chip": "ym2612"
    },
    {
      "channel": 5,
      "note": 38,
      "start": 183.27,
      "duration": 0.0826,
      "velocity": 108,
      "chip": "ym2612"
    },
    {
      "channel": 0,
      "note": 35,
      "start": 183.3336,
      "duration": 0.1319,
      "velocity": 124,
      "chip": "ym2612"
    },
    {
      "channel": 4,
      "note": 35,
      "start": 183.3357,
      "duration": 0.0824,
      "velocity": 108,
      "chip": "ym2612"
    },
    {
      "channel": 5,
      "note": 35,
      "start": 183.4023,
      "duration": 0.0826,
      "velocity": 108,
      "chip": "ym2612"
    },
    {
      "channel": 0,
      "note": 23,
      "start": 183.4659,
      "duration": 0.1485,
      "velocity": 124,
      "chip": "ym2612"
    },
    {
      "channel": 1,
      "note": 38,
      "start": 183.4666,
      "duration": 0.2809,
      "velocity": 120,
      "chip": "ym2612"
    },
    {
      "channel": 2,
      "note": 34,
      "start": 183.4678,
      "duration": 0.1477,
      "velocity": 64,
      "chip": "ym2612"
    },
    {
      "channel": 4,
      "note": 40,
      "start": 183.469,
      "duration": 0.0816,
      "velocity": 108,
      "chip": "ym2612"
    },
    {
      "channel": 5,
      "note": 40,
      "start": 183.5513,
      "duration": 0.0826,
      "velocity": 108,
      "chip": "ym2612"
    },
    {
      "channel": 0,
      "note": 35,
      "start": 183.6149,
      "duration": 0.1319,
      "velocity": 124,
      "chip": "ym2612"
    },
    {
      "channel": 2,
      "note": 59,
      "start": 183.6166,
      "duration": 0.0819,
      "velocity": 123,
      "chip": "ym2612"
    },
    {
      "channel": 4,
      "note": 35,
      "start": 183.6178,
      "duration": 0.0817,
      "velocity": 108,
      "chip": "ym2612"
    },
    {
      "channel": 5,
      "note": 35,
      "start": 183.6837,
      "duration": 0.0827,
      "velocity": 108,
      "chip": "ym2612"
    },
    {
      "channel": 0,
      "note": 23,
      "start": 183.7474,
      "duration": 0.1485,
      "velocity": 124,
      "chip": "ym2612"
    },
    {
      "channel": 1,
      "note": 62,
      "start": 183.7486,
      "duration": 0.1482,
      "velocity": 125,
      "chip": "ym2612"
    },
    {
      "channel": 4,
      "note": 38,
      "start": 183.7503,
      "duration": 0.0817,
      "velocity": 108,
      "chip": "ym2612"
    },
    {
      "channel": 5,
      "note": 38,
      "start": 183.8327,
      "duration": 0.0826,
      "velocity": 108,
      "chip": "ym2612"
    },
    {
      "channel": 0,
      "note": 23,
      "start": 183.8963,
      "duration": 0.1319,
      "velocity": 124,
      "chip": "ym2612"
    },
    {
      "channel": 4,
      "note": 35,
      "start": 183.8986,
      "duration": 0.0824,
      "velocity": 108,
      "chip": "ym2612"
    },
    {
      "channel": 5,
      "note": 35,
      "start": 183.9651,
      "duration": 0.0827,
      "velocity": 108,
      "chip": "ym2612"
    },
    {
      "channel": 0,
      "note": 35,
      "start": 184.0287,
      "duration": 0.1485,
      "velocity": 124,
      "chip": "ym2612"
    },
    {
      "channel": 1,
      "note": 26,
      "start": 184.0299,
      "duration": 0.2803,
      "velocity": 126,
      "chip": "ym2612"
    },
    {
      "channel": 4,
      "note": 37,
      "start": 184.0317,
      "duration": 0.0817,
      "velocity": 108,
      "chip": "ym2612"
    },
    {
      "channel": 5,
      "note": 37,
      "start": 184.1141,
      "duration": 0.0826,
      "velocity": 108,
      "chip": "ym2612"
    },
    {
      "channel": 0,
      "note": 23,
      "start": 184.1777,
      "duration": 0.1319,
      "velocity": 124,
      "chip": "ym2612"
    },
    {
      "channel": 4,
      "note": 35,
      "start": 184.1799,
      "duration": 0.0825,
      "velocity": 108,
      "chip": "ym2612"
    },
    {
      "channel": 5,
      "note": 35,
      "start": 184.2465,
      "duration": 0.0827,
      "velocity": 108,
      "chip": "ym2612"
    },
    {
      "channel": 0,
      "note": 35,
      "start": 184.3102,
      "duration": 0.1485,
      "velocity": 124,
      "chip": "ym2612"
    },
    {
      "channel": 1,
      "note": 62,
      "start": 184.3114,
      "duration": 0.1482,
      "velocity": 125,
      "chip": "ym2612"
    },
    {
      "channel": 2,
      "note": 22,
      "start": 184.3126,
      "duration": 0.0977,
      "velocity": 64,
      "chip": "ym2612"
    },
    {
      "channel": 4,
      "note": 38,
      "start": 184.3138,
      "duration": 0.081,
      "velocity": 108,
      "chip": "ym2612"
    },
    {
      "channel": 5,
      "note": 38,
      "start": 184.3955,
      "duration": 0.0826,
      "velocity": 108,
      "chip": "ym2612"
    },
    {
      "channel": 0,
      "note": 23,
      "start": 184.4591,
      "duration": 0.1319,
      "velocity": 124,
      "chip": "ym2612"
    },
    {
      "channel": 2,
      "note": 34,
      "start": 184.4603,
      "duration": 0.0824,
      "velocity": 64,
      "chip": "ym2612"
    },
    {
      "channel": 4,
      "note": 47,
      "start": 184.4615,
      "duration": 0.0823,
      "velocity": 108,
      "chip": "ym2612"
    },
    {
      "channel": 5,
      "note": 47,
      "start": 184.5279,
      "duration": 0.0826,
      "velocity": 108,
      "chip": "ym2612"
    },
    {
      "channel": 0,
      "note": 19,
      "start": 184.5915,
      "duration": 0.1485,
      "velocity": 124,
      "chip": "ym2612"
    },
    {
      "channel": 1,
      "note": 38,
      "start": 184.5927,
      "duration": 0.2804,
      "velocity": 120,
      "chip": "ym2612"
    },
    {
      "channel": 2,
      "note": 71,
      "start": 184.594,
      "duration": 0.1472,
      "velocity": 122,
      "chip": "ym2612"
    },
    {
      "channel": 3,
      "note": 37,
      "start": 184.5947,
      "duration": 4.5017,
      "velocity": 108,
      "chip": "ym2612"
    },
    {
      "channel": 4,
      "note": 37,
      "start": 184.5954,
      "duration": 0.0808,
      "velocity": 108,
      "chip": "ym2612"
    },
    {
      "channel": 5,
      "note": 37,
      "start": 184.6769,
      "duration": 0.0827,
      "velocity": 108,
      "chip": "ym2612"
    },
    {
      "channel": 0,
      "note": 31,
      "start": 184.7406,
      "duration": 0.1319,
      "velocity": 124,
      "chip": "ym2612"
    },
    {
      "channel": 2,
      "note": 71,
      "start": 184.7416,
      "duration": 0.0824,
      "velocity": 122,
      "chip": "ym2612"
    },
    {
      "channel": 4,
      "note": 35,
      "start": 184.7429,
      "duration": 0.0823,
      "velocity": 108,
      "chip": "ym2612"
    },
    {
      "channel": 5,
      "note": 35,
      "start": 184.8093,
      "duration": 0.0826,
      "velocity": 108,
      "chip": "ym2612"
    },
    {
      "channel": 0,
      "note": 19,
      "start": 184.8729,
      "duration": 0.1485,
      "velocity": 124,
      "chip": "ym2612"
    },
    {
      "channel": 1,
      "note": 62,
      "start": 184.8741,
      "duration": 0.1482,
      "velocity": 125,
      "chip": "ym2612"
    },
    {
      "channel": 2,
      "note": 66,
      "start": 184.8749,
      "duration": 0.1477,
      "velocity": 122,
      "chip": "ym2612"
    },
    {
      "channel": 4,
      "note": 38,
      "start": 184.8761,
      "duration": 0.0815,
      "velocity": 108,
      "chip": "ym2612"
    },
    {
      "channel": 5,
      "note": 38,
      "start": 184.9583,
      "duration": 0.0826,
      "velocity": 108,
      "chip": "ym2612"
    },
    {
      "channel": 0,
      "note": 19,
      "start": 185.0219,
      "duration": 0.1319,
      "velocity": 124,
      "chip": "ym2612"
    },
    {
      "channel": 2,
      "note": 59,
      "start": 185.0231,
      "duration": 0.0824,
      "velocity": 123,
      "chip": "ym2612"
    },
    {
      "channel": 4,
      "note": 35,
      "start": 185.0243,
      "duration": 0.0823,
      "velocity": 108,
      "chip": "ym2612"
    },
    {
      "channel": 5,
      "note": 35,
      "start": 185.0907,
      "duration": 0.0826,
      "velocity": 108,
      "chip": "ym2612"
    },
    {
      "channel": 0,
      "note": 31,
      "start": 185.1543,
      "duration": 0.1485,
      "velocity": 124,
      "chip": "ym2612"
    },
    {
      "channel": 1,
      "note": 26,
      "start": 185.1555,
      "duration": 0.2803,
      "velocity": 126,
      "chip": "ym2612"
    },
    {
      "channel": 2,
      "note": 23,
      "start": 185.1561,
      "duration": 0.0983,
      "velocity": 123,
      "chip": "ym2612"
    },
    {
      "channel": 4,
      "note": 35,
      "start": 185.1575,
      "duration": 0.0815,
      "velocity": 108,
      "chip": "ym2612"
    },
    {
      "channel": 5,
      "note": 35,
      "start": 185.2397,
      "duration": 0.0826,
      "velocity": 108,
      "chip": "ym2612"
    },
    {
      "channel": 0,
      "note": 19,
      "start": 185.3033,
      "duration": 0.1319,
      "velocity": 124,
      "chip": "ym2612"
    },
    {
      "channel": 2,
      "note": 35,
      "start": 185.3044,
      "duration": 0.0825,
      "velocity": 123,
      "chip": "ym2612"
    },
    {
      "channel": 4,
      "note": 47,
      "start": 185.3056,
      "duration": 0.0823,
      "velocity": 108,
      "chip": "ym2612"
    },
    {
      "channel": 5,
      "note": 47,
      "start": 185.3721,
      "duration": 0.0826,
      "velocity": 108,
      "chip": "ym2612"
    },
    {
      "channel": 0,
      "note": 19,
      "start": 185.4357,
      "duration": 0.1485,
      "velocity": 124,
      "chip": "ym2612"
    },
    {
      "channel": 1,
      "note": 38,
      "start": 185.4369,
      "duration": 0.2803,
      "velocity": 120,
      "chip": "ym2612"
    },
    {
      "channel": 2,
      "note": 59,
      "start": 185.4376,
      "duration": 0.0982,
      "velocity": 123,
      "chip": "ym2612"
    },
    {
      "channel": 4,
      "note": 38,
      "start": 185.4388,
      "duration": 0.0815,
      "velocity": 108,
      "chip": "ym2612"
    },
    {
      "channel": 5,
      "note": 38,
      "start": 185.5211,
      "duration": 0.0826,
      "velocity": 108,
      "chip": "ym2612"
    },
    {
      "channel": 0,
      "note": 31,
      "start": 185.5847,
      "duration": 0.132,
      "velocity": 124,
      "chip": "ym2612"
    },
    {
      "channel": 4,
      "note": 35,
      "start": 185.5869,
      "duration": 0.0824,
      "velocity": 108,
      "chip": "ym2612"
    },
    {
      "channel": 5,
      "note": 35,
      "start": 185.6535,
      "duration": 0.0826,
      "velocity": 108,
      "chip": "ym2612"
    },
    {
      "channel": 0,
      "note": 19,
      "start": 185.7171,
      "duration": 0.1485,
      "velocity": 124,
      "chip": "ym2612"
    },
    {
      "channel": 1,
      "note": 38,
      "start": 185.7177,
      "duration": 0.2809,
      "velocity": 120,
      "chip": "ym2612"
    },
    {
      "channel": 2,
      "note": 34,
      "start": 185.7189,
      "duration": 0.1477,
      "velocity": 64,
      "chip": "ym2612"
    },
    {
      "channel": 4,
      "note": 40,
      "start": 185.7202,
      "duration": 0.0815,
      "velocity": 108,
      "chip": "ym2612"
    },
    {
      "channel": 5,
      "note": 40,
      "start": 185.8024,
      "duration": 0.0826,
      "velocity": 108,
      "chip": "ym2612"
    },
    {
      "channel": 0,
      "note": 31,
      "start": 185.8661,
      "duration": 0.1319,
      "velocity": 124,
      "chip": "ym2612"
    },
    {
      "channel": 2,
      "note": 59,
      "start": 185.8678,
      "duration": 0.0818,
      "velocity": 123,
      "chip": "ym2612"
    },
    {
      "channel": 4,
      "note": 35,
      "start": 185.869,
      "duration": 0.0817,
      "velocity": 108,
      "chip": "ym2612"
    },
    {
      "channel": 5,
      "note": 35,
      "start": 185.9349,
      "duration": 0.0826,
      "velocity": 108,
      "chip": "ym2612"
    },
    {
      "channel": 0,
      "note": 19,
      "start": 185.9985,
      "duration": 0.1485,
      "velocity": 124,
      "chip": "ym2612"
    },
    {
      "channel": 1,
      "note": 62,
      "start": 185.9997,
      "duration": 0.1482,
      "velocity": 125,
      "chip": "ym2612"
    },
    {
      "channel": 4,
      "note": 38,
      "start": 186.0014,
      "duration": 0.0817,
      "velocity": 108,
      "chip": "ym2612"
    },
    {
      "channel": 5,
      "note": 38,
      "start": 186.0839,
      "duration": 0.0826,
      "velocity": 108,
      "chip": "ym2612"
    },
    {
      "channel": 0,
      "note": 19,
      "start": 186.1475,
      "duration": 0.132,
      "velocity": 124,
      "chip": "ym2612"
    },
    {
      "channel": 2,
      "note": 59,
      "start": 186.1486,
      "duration": 0.0824,
      "velocity": 123,
      "chip": "ym2612"
    },
    {
      "channel": 4,
      "note": 35,
      "start": 186.1498,
      "duration": 0.0823,
      "velocity": 108,
      "chip": "ym2612"
    },
    {
      "channel": 5,
      "note": 35,
      "start": 186.2163,
      "duration": 0.0826,
      "velocity": 108,
      "chip": "ym2612"
    },
    {
      "channel": 0,
      "note": 31,
      "start": 186.2799,
      "duration": 0.1485,
      "velocity": 124,
      "chip": "ym2612"
    },
    {
      "channel": 1,
      "note": 26,
      "start": 186.2811,
      "duration": 0.5617,
      "velocity": 126,
      "chip": "ym2612"
    },
    {
      "channel": 4,
      "note": 37,
      "start": 186.2828,
      "duration": 0.0817,
      "velocity": 108,
      "chip": "ym2612"
    },
    {
      "channel": 5,
      "note": 37,
      "start": 186.3652,
      "duration": 0.0826,
      "velocity": 108,
      "chip": "ym2612"
    },
    {
      "channel": 0,
      "note": 19,
      "start": 186.4288,
      "duration": 0.132,
      "velocity": 124,
      "chip": "ym2612"
    },
    {
      "channel": 2,
      "note": 34,
      "start": 186.4306,
      "duration": 0.1313,
      "velocity": 64,
      "chip": "ym2612"
    },
    {
      "channel": 4,
      "note": 35,
      "start": 186.4318,
      "duration": 0.0817,
      "velocity": 108,
      "chip": "ym2612"
    },
    {
      "channel": 5,
      "note": 35,
      "start": 186.4977,
      "duration": 0.0826,
      "velocity": 108,
      "chip": "ym2612"
    },
    {
      "channel": 0,
      "note": 31,
      "start": 186.5613,
      "duration": 0.1485,
      "velocity": 124,
      "chip": "ym2612"
    },
    {
      "channel": 2,
      "note": 59,
      "start": 186.5629,
      "duration": 0.0984,
      "velocity": 123,
      "chip": "ym2612"
    },
    {
      "channel": 4,
      "note": 38,
      "start": 186.5642,
      "duration": 0.0817,
      "velocity": 108,
      "chip": "ym2612"
    },
    {
      "channel": 5,
      "note": 38,
      "start": 186.6467,
      "duration": 0.0826,
      "velocity": 108,
      "chip": "ym2612"
    },
    {
      "channel": 0,
      "note": 21,
      "start": 186.7103,
      "duration": 0.132,
      "velocity": 124,
      "chip": "ym2612"
    },
    {
      "channel": 4,
      "note": 47,
      "start": 186.7124,
      "duration": 0.0824,
      "velocity": 108,
      "chip": "ym2612"
    },
    {
      "channel": 5,
      "note": 47,
      "start": 186.779,
      "duration": 0.0826,
      "velocity": 108,
      "chip": "ym2612"
    },
    {
      "channel": 0,
      "note": 23,
      "start": 186.8427,
      "duration": 0.1485,
      "velocity": 124,
      "chip": "ym2612"
    },
    {
      "channel": 1,
      "note": 38,
      "start": 186.8439,
      "duration": 0.2804,
      "velocity": 120,
      "chip": "ym2612"
    },
    {
      "channel": 4,
      "note": 37,
      "start": 186.8456,
      "duration": 0.0817,
      "velocity": 108,
      "chip": "ym2612"
    },
    {
      "channel": 5,
      "note": 37,
      "start": 186.928,
      "duration": 0.0826,
      "velocity": 108,
      "chip": "ym2612"
    },
    {
      "channel": 0,
      "note": 35,
      "start": 186.9916,
      "duration": 0.132,
      "velocity": 124,
      "chip": "ym2612"
    },
    {
      "channel": 2,
      "note": 59,
      "start": 186.9927,
      "duration": 0.0824,
      "velocity": 123,
      "chip": "ym2612"
    },
    {
      "channel": 4,
      "note": 35,
      "start": 186.994,
      "duration": 0.0823,
      "velocity": 108,
      "chip": "ym2612"
    },
    {
      "channel": 5,
      "note": 35,
      "start": 187.0605,
      "duration": 0.0826,
      "velocity": 108,
      "chip": "ym2612"
    },
    {
      "channel": 0,
      "note": 23,
      "start": 187.1241,
      "duration": 0.1485,
      "velocity": 124,
      "chip": "ym2612"
    },
    {
      "channel": 1,
      "note": 62,
      "start": 187.1253,
      "duration": 0.1483,
      "velocity": 125,
      "chip": "ym2612"
    },
    {
      "channel": 4,
      "note": 38,
      "start": 187.127,
      "duration": 0.0817,
      "velocity": 108,
      "chip": "ym2612"
    },
    {
      "channel": 5,
      "note": 38,
      "start": 187.2095,
      "duration": 0.0826,
      "velocity": 108,
      "chip": "ym2612"
    },
    {
      "channel": 0,
      "note": 23,
      "start": 187.2731,
      "duration": 0.1319,
      "velocity": 124,
      "chip": "ym2612"
    },
    {
      "channel": 2,
      "note": 59,
      "start": 187.2742,
      "duration": 0.0824,
      "velocity": 123,
      "chip": "ym2612"
    },
    {
      "channel": 4,
      "note": 35,
      "start": 187.2755,
      "duration": 0.0822,
      "velocity": 108,
      "chip": "ym2612"
    },
    {
      "channel": 5,
      "note": 35,
      "start": 187.3419,
      "duration": 0.0827,
      "velocity": 108,
      "chip": "ym2612"
    },
    {
      "channel": 0,
      "note": 35,
      "start": 187.4054,
      "duration": 0.1485,
      "velocity": 124,
      "chip": "ym2612"
    },
    {
      "channel": 1,
      "note": 26,
      "start": 187.4067,
      "duration": 0.2803,
      "velocity": 126,
      "chip": "ym2612"
    },
    {
      "channel": 4,
      "note": 35,
      "start": 187.4084,
      "duration": 0.0817,
      "velocity": 108,
      "chip": "ym2612"
    },
    {
      "channel": 5,
      "note": 35,
      "start": 187.4909,
      "duration": 0.0826,
      "velocity": 108,
      "chip": "ym2612"
    },
    {
      "channel": 0,
      "note": 23,
      "start": 187.5544,
      "duration": 0.1319,
      "velocity": 124,
      "chip": "ym2612"
    },
    {
      "channel": 4,
      "note": 47,
      "start": 187.5566,
      "duration": 0.0824,
      "velocity": 108,
      "chip": "ym2612"
    },
    {
      "channel": 5,
      "note": 47,
      "start": 187.6233,
      "duration": 0.0826,
      "velocity": 108,
      "chip": "ym2612"
    },
    {
      "channel": 0,
      "note": 23,
      "start": 187.6869,
      "duration": 0.1485,
      "velocity": 124,
      "chip": "ym2612"
    },
    {
      "channel": 1,
      "note": 38,
      "start": 187.6881,
      "duration": 0.2803,
      "velocity": 120,
      "chip": "ym2612"
    },
    {
      "channel": 2,
      "note": 59,
      "start": 187.6887,
      "duration": 0.0982,
      "velocity": 123,
      "chip": "ym2612"
    },
    {
      "channel": 4,
      "note": 38,
      "start": 187.69,
      "duration": 0.0815,
      "velocity": 108,
      "chip": "ym2612"
    },
    {
      "channel": 5,
      "note": 38,
      "start": 187.7722,
      "duration": 0.0826,
      "velocity": 108,
      "chip": "ym2612"
    },
    {
      "channel": 0,
      "note": 35,
      "start": 187.8359,
      "duration": 0.1319,
      "velocity": 124,
      "chip": "ym2612"
    },
    {
      "channel": 4,
      "note": 35,
      "start": 187.838,
      "duration": 0.0824,
      "velocity": 108,
      "chip": "ym2612"
    },
    {
      "channel": 5,
      "note": 35,
      "start": 187.9046,
      "duration": 0.0826,
      "velocity": 108,
      "chip": "ym2612"
    },
    {
      "channel": 0,
      "note": 23,
      "start": 187.9682,
      "duration": 0.1485,
      "velocity": 124,
      "chip": "ym2612"
    },
    {
      "channel": 1,
      "note": 38,
      "start": 187.9689,
      "duration": 0.2809,
      "velocity": 120,
      "chip": "ym2612"
    },
    {
      "channel": 2,
      "note": 34,
      "start": 187.9701,
      "duration": 0.1477,
      "velocity": 64,
      "chip": "ym2612"
    },
    {
      "channel": 4,
      "note": 40,
      "start": 187.9713,
      "duration": 0.0816,
      "velocity": 108,
      "chip": "ym2612"
    },
    {
      "channel": 5,
      "note": 40,
      "start": 188.0536,
      "duration": 0.0826,
      "velocity": 108,
      "chip": "ym2612"
    },
    {
      "channel": 0,
      "note": 35,
      "start": 188.1172,
      "duration": 0.1319,
      "velocity": 124,
      "chip": "ym2612"
    },
    {
      "channel": 2,
      "note": 59,
      "start": 188.1189,
      "duration": 0.0818,
      "velocity": 123,
      "chip": "ym2612"
    },
    {
      "channel": 4,
      "note": 35,
      "start": 188.1201,
      "duration": 0.0817,
      "velocity": 108,
      "chip": "ym2612"
    },
    {
      "channel": 5,
      "note": 35,
      "start": 188.186,
      "duration": 0.0826,
      "velocity": 108,
      "chip": "ym2612"
    },
    {
      "channel": 0,
      "note": 23,
      "start": 188.2497,
      "duration": 0.1485,
      "velocity": 124,
      "chip": "ym2612"
    },
    {
      "channel": 1,
      "note": 62,
      "start": 188.2509,
      "duration": 0.1482,
      "velocity": 125,
      "chip": "ym2612"
    },
    {
      "channel": 4,
      "note": 38,
      "start": 188.2526,
      "duration": 0.0817,
      "velocity": 108,
      "chip": "ym2612"
    },
    {
      "channel": 5,
      "note": 38,
      "start": 188.335,
      "duration": 0.0826,
      "velocity": 108,
      "chip": "ym2612"
    },
    {
      "channel": 0,
      "note": 23,
      "start": 188.3986,
      "duration": 0.1319,
      "velocity": 124,
      "chip": "ym2612"
    },
    {
      "channel": 4,
      "note": 35,
      "start": 188.4009,
      "duration": 0.0824,
      "velocity": 108,
      "chip": "ym2612"
    },
    {
      "channel": 5,
      "note": 35,
      "start": 188.4674,
      "duration": 0.0827,
      "velocity": 108,
      "chip": "ym2612"
    },
    {
      "channel": 0,
      "note": 35,
      "start": 188.531,
      "duration": 0.1485,
      "velocity": 124,
      "chip": "ym2612"
    },
    {
      "channel": 1,
      "note": 26,
      "start": 188.5322,
      "duration": 0.2803,
      "velocity": 126,
      "chip": "ym2612"
    },
    {
      "channel": 4,
      "note": 37,
      "start": 188.5339,
      "duration": 0.0817,
      "velocity": 108,
      "chip": "ym2612"
    },
    {
      "channel": 5,
      "note": 37,
      "start": 188.6164,
      "duration": 0.0826,
      "velocity": 108,
      "chip": "ym2612"
    },
    {
      "channel": 0,
      "note": 23,
      "start": 188.68,
      "duration": 0.1319,
      "velocity": 124,
      "chip": "ym2612"
    },
    {
      "channel": 4,
      "note": 35,
      "start": 188.6822,
      "duration": 0.0825,
      "velocity": 108,
      "chip": "ym2612"
    },
    {
      "channel": 5,
      "note": 35,
      "start": 188.7488,
      "duration": 0.0827,
      "velocity": 108,
      "chip": "ym2612"
    },
    {
      "channel": 0,
      "note": 35,
      "start": 188.8124,
      "duration": 0.1485,
      "velocity": 124,
      "chip": "ym2612"
    },
    {
      "channel": 1,
      "note": 62,
      "start": 188.8137,
      "duration": 0.1482,
      "velocity": 125,
      "chip": "ym2612"
    },
    {
      "channel": 2,
      "note": 22,
      "start": 188.8149,
      "duration": 0.0976,
      "velocity": 64,
      "chip": "ym2612"
    },
    {
      "channel": 4,
      "note": 38,
      "start": 188.8161,
      "duration": 0.081,
      "velocity": 108,
      "chip": "ym2612"
    },
    {
      "channel": 5,
      "note": 38,
      "start": 188.8978,
      "duration": 0.0826,
      "velocity": 108,
      "chip": "ym2612"
    },
    {
      "channel": 0,
      "note": 23,
      "start": 188.9614,
      "duration": 0.1319,
      "velocity": 124,
      "chip": "ym2612"
    },
    {
      "channel": 2,
      "note": 34,
      "start": 188.9626,
      "duration": 0.0824,
      "velocity": 64,
      "chip": "ym2612"
    },
    {
      "channel": 4,
      "note": 47,
      "start": 188.9638,
      "duration": 0.0823,
      "velocity": 108,
      "chip": "ym2612"
    },
    {
      "channel": 5,
      "note": 47,
      "start": 189.0302,
      "duration": 0.0826,
      "velocity": 108,
      "chip": "ym2612"
    },
    {
      "channel": 0,
      "note": 19,
      "start": 189.0938,
      "duration": 0.1485,
      "velocity": 124,
      "chip": "ym2612"
    },
    {
      "channel": 1,
      "note": 38,
      "start": 189.095,
      "duration": 0.2803,
      "velocity": 120,
      "chip": "ym2612"
    },
    {
      "channel": 2,
      "note": 71,
      "start": 189.0963,
      "duration": 0.1471,
      "velocity": 122,
      "chip": "ym2612"
    },
    {
      "channel": 3,
      "note": 45,
      "start": 189.097,
      "duration": 0.8431,
      "velocity": 108,
      "chip": "ym2612"
    },
    {
      "channel": 4,
      "note": 37,
      "start": 189.0977,
      "duration": 0.0808,
      "velocity": 108,
      "chip": "ym2612"
    },
    {
      "channel": 5,
      "note": 37,
      "start": 189.1792,
      "duration": 0.0826,
      "velocity": 108,
      "chip": "ym2612"
    },
    {
      "channel": 0,
      "note": 31,
      "start": 189.2428,
      "duration": 0.1319,
      "velocity": 124,
      "chip": "ym2612"
    },
    {
      "channel": 2,
      "note": 71,
      "start": 189.2439,
      "duration": 0.0824,
      "velocity": 122,
      "chip": "ym2612"
    },
    {
      "channel": 4,
      "note": 35,
      "start": 189.2451,
      "duration": 0.0823,
      "velocity": 108,
      "chip": "ym2612"
    },
    {
      "channel": 5,
      "note": 35,
      "start": 189.3115,
      "duration": 0.0826,
      "velocity": 108,
      "chip": "ym2612"
    },
    {
      "channel": 0,
      "note": 19,
      "start": 189.3752,
      "duration": 0.1485,
      "velocity": 124,
      "chip": "ym2612"
    },
    {
      "channel": 1,
      "note": 62,
      "start": 189.3764,
      "duration": 0.1482,
      "velocity": 125,
      "chip": "ym2612"
    },
    {
      "channel": 2,
      "note": 66,
      "start": 189.3771,
      "duration": 0.1478,
      "velocity": 122,
      "chip": "ym2612"
    },
    {
      "channel": 4,
      "note": 38,
      "start": 189.3783,
      "duration": 0.0816,
      "velocity": 108,
      "chip": "ym2612"
    },
    {
      "channel": 5,
      "note": 38,
      "start": 189.4606,
      "duration": 0.0826,
      "velocity": 108,
      "chip": "ym2612"
    },
    {
      "channel": 0,
      "note": 19,
      "start": 189.5242,
      "duration": 0.1319,
      "velocity": 124,
      "chip": "ym2612"
    },
    {
      "channel": 2,
      "note": 59,
      "start": 189.5254,
      "duration": 0.0824,
      "velocity": 123,
      "chip": "ym2612"
    },
    {
      "channel": 4,
      "note": 35,
      "start": 189.5266,
      "duration": 0.0823,
      "velocity": 108,
      "chip": "ym2612"
    },
    {
      "channel": 5,
      "note": 35,
      "start": 189.593,
      "duration": 0.0826,
      "velocity": 108,
      "chip": "ym2612"
    },
    {
      "channel": 0,
      "note": 31,
      "start": 189.6566,
      "duration": 0.1485,
      "velocity": 124,
      "chip": "ym2612"
    },
    {
      "channel": 1,
      "note": 26,
      "start": 189.6579,
      "duration": 0.2803,
      "velocity": 126,
      "chip": "ym2612"
    },
    {
      "channel": 2,
      "note": 23,
      "start": 189.6585,
      "duration": 0.0983,
      "velocity": 123,
      "chip": "ym2612"
    },
    {
      "channel": 4,
      "note": 35,
      "start": 189.6598,
      "duration": 0.0815,
      "velocity": 108,
      "chip": "ym2612"
    },
    {
      "channel": 5,
      "note": 35,
      "start": 189.742,
      "duration": 0.0826,
      "velocity": 108,
      "chip": "ym2612"
    },
    {
      "channel": 0,
      "note": 19,
      "start": 189.8056,
      "duration": 0.1319,
      "velocity": 124,
      "chip": "ym2612"
    },
    {
      "channel": 2,
      "note": 35,
      "start": 189.8067,
      "duration": 0.0824,
      "velocity": 123,
      "chip": "ym2612"
    },
    {
      "channel": 4,
      "note": 47,
      "start": 189.808,
      "duration": 0.0823,
      "velocity": 108,
      "chip": "ym2612"
    },
    {
      "channel": 5,
      "note": 47,
      "start": 189.8744,
      "duration": 0.0826,
      "velocity": 108,
      "chip": "ym2612"
    },
    {
      "channel": 0,
      "note": 19,
      "start": 189.938,
      "duration": 0.1485,
      "velocity": 124,
      "chip": "ym2612"
    },
    {
      "channel": 1,
      "note": 38,
      "start": 189.9392,
      "duration": 0.2803,
      "velocity": 120,
      "chip": "ym2612"
    },
    {
      "channel": 2,
      "note": 59,
      "start": 189.9399,
      "duration": 0.0981,
      "velocity": 123,
      "chip": "ym2612"
    },
    {
      "channel": 3,
      "note": 47,
      "start": 189.9406,
      "duration": 0.8434,
      "velocity": 108,
      "chip": "ym2612"
    },
    {
      "channel": 4,
      "note": 38,
      "start": 189.9413,
      "duration": 0.0813,
      "velocity": 108,
      "chip": "ym2612"
    },
    {
      "channel": 5,
      "note": 38,
      "start": 190.0234,
      "duration": 0.0826,
      "velocity": 108,
      "chip": "ym2612"
    },
    {
      "channel": 0,
      "note": 31,
      "start": 190.087,
      "duration": 0.132,
      "velocity": 124,
      "chip": "ym2612"
    },
    {
      "channel": 4,
      "note": 35,
      "start": 190.0892,
      "duration": 0.0824,
      "velocity": 108,
      "chip": "ym2612"
    },
    {
      "channel": 5,
      "note": 35,
      "start": 190.1558,
      "duration": 0.0826,
      "velocity": 108,
      "chip": "ym2612"
    },
    {
      "channel": 0,
      "note": 19,
      "start": 190.2194,
      "duration": 0.1485,
      "velocity": 124,
      "chip": "ym2612"
    },
    {
      "channel": 1,
      "note": 38,
      "start": 190.22,
      "duration": 0.2809,
      "velocity": 120,
      "chip": "ym2612"
    },
    {
      "channel": 2,
      "note": 34,
      "start": 190.2212,
      "duration": 0.1477,
      "velocity": 64,
      "chip": "ym2612"
    },
    {
      "channel": 4,
      "note": 40,
      "start": 190.2225,
      "duration": 0.0815,
      "velocity": 108,
      "chip": "ym2612"
    },
    {
      "channel": 5,
      "note": 40,
      "start": 190.3047,
      "duration": 0.0826,
      "velocity": 108,
      "chip": "ym2612"
    },
    {
      "channel": 0,
      "note": 31,
      "start": 190.3684,
      "duration": 0.1319,
      "velocity": 124,
      "chip": "ym2612"
    },
    {
      "channel": 2,
      "note": 59,
      "start": 190.37,
      "duration": 0.0819,
      "velocity": 123,
      "chip": "ym2612"
    },
    {
      "channel": 4,
      "note": 35,
      "start": 190.3713,
      "duration": 0.0817,
      "velocity": 108,
      "chip": "ym2612"
    },
    {
      "channel": 5,
      "note": 35,
      "start": 190.4371,
      "duration": 0.0826,
      "velocity": 108,
      "chip": "ym2612"
    },
    {
      "channel": 0,
      "note": 19,
      "start": 190.5008,
      "duration": 0.1485,
      "velocity": 124,
      "chip": "ym2612"
    },
    {
      "channel": 1,
      "note": 62,
      "start": 190.502,
      "duration": 0.1482,
      "velocity": 125,
      "chip": "ym2612"
    },
    {
      "channel": 4,
      "note": 38,
      "start": 190.5037,
      "duration": 0.0817,
      "velocity": 108,
      "chip": "ym2612"
    },
    {
      "channel": 5,
      "note": 38,
      "start": 190.5862,
      "duration": 0.0826,
      "velocity": 108,
      "chip": "ym2612"
    },
    {
      "channel": 0,
      "note": 19,
      "start": 190.6498,
      "duration": 0.132,
      "velocity": 124,
      "chip": "ym2612"
    },
    {
      "channel": 2,
      "note": 59,
      "start": 190.6509,
      "duration": 0.0824,
      "velocity": 123,
      "chip": "ym2612"
    },
    {
      "channel": 4,
      "note": 35,
      "start": 190.6521,
      "duration": 0.0823,
      "velocity": 108,
      "chip": "ym2612"
    },
    {
      "channel": 5,
      "note": 35,
      "start": 190.7185,
      "duration": 0.0826,
      "velocity": 108,
      "chip": "ym2612"
    },
    {
      "channel": 0,
      "note": 31,
      "start": 190.7822,
      "duration": 0.1485,
      "velocity": 124,
      "chip": "ym2612"
    },
    {
      "channel": 1,
      "note": 26,
      "start": 190.7834,
      "duration": 0.5617,
      "velocity": 126,
      "chip": "ym2612"
    },
    {
      "channel": 3,
      "note": 49,
      "start": 190.7846,
      "duration": 0.5622,
      "velocity": 108,
      "chip": "ym2612"
    },
    {
      "channel": 4,
      "note": 37,
      "start": 190.7853,
      "duration": 0.0815,
      "velocity": 108,
      "chip": "ym2612"
    },
    {
      "channel": 5,
      "note": 37,
      "start": 190.8675,
      "duration": 0.0826,
      "velocity": 108,
      "chip": "ym2612"
    },
    {
      "channel": 0,
      "note": 19,
      "start": 190.9311,
      "duration": 0.132,
      "velocity": 124,
      "chip": "ym2612"
    },
    {
      "channel": 2,
      "note": 34,
      "start": 190.9329,
      "duration": 0.1313,
      "velocity": 64,
      "chip": "ym2612"
    },
    {
      "channel": 4,
      "note": 35,
      "start": 190.9341,
      "duration": 0.0817,
      "velocity": 108,
      "chip": "ym2612"
    },
    {
      "channel": 5,
      "note": 35,
      "start": 190.9999,
      "duration": 0.0826,
      "velocity": 108,
      "chip": "ym2612"
    },
    {
      "channel": 0,
      "note": 31,
      "start": 191.0636,
      "duration": 0.1485,
      "velocity": 124,
      "chip": "ym2612"
    },
    {
      "channel": 2,
      "note": 59,
      "start": 191.0652,
      "duration": 0.0984,
      "velocity": 123,
      "chip": "ym2612"
    },
    {
      "channel": 4,
      "note": 38,
      "start": 191.0665,
      "duration": 0.0817,
      "velocity": 108,
      "chip": "ym2612"
    },
    {
      "channel": 5,
      "note": 38,
      "start": 191.149,
      "duration": 0.0826,
      "velocity": 108,
      "chip": "ym2612"
    },
    {
      "channel": 0,
      "note": 21,
      "start": 191.2126,
      "duration": 0.132,
      "velocity": 124,
      "chip": "ym2612"
    },
    {
      "channel": 4,
      "note": 47,
      "start": 191.2147,
      "duration": 0.0824,
      "velocity": 108,
      "chip": "ym2612"
    },
    {
      "channel": 5,
      "note": 47,
      "start": 191.2813,
      "duration": 0.0826,
      "velocity": 108,
      "chip": "ym2612"
    },
    {
      "channel": 0,
      "note": 23,
      "start": 191.3449,
      "duration": 0.1485,
      "velocity": 124,
      "chip": "ym2612"
    },
    {
      "channel": 1,
      "note": 38,
      "start": 191.3461,
      "duration": 0.2804,
      "velocity": 120,
      "chip": "ym2612"
    },
    {
      "channel": 3,
      "note": 50,
      "start": 191.3474,
      "duration": 0.8438,
      "velocity": 108,
      "chip": "ym2612"
    },
    {
      "channel": 4,
      "note": 37,
      "start": 191.3481,
      "duration": 0.0815,
      "velocity": 108,
      "chip": "ym2612"
    },
    {
      "channel": 5,
      "note": 37,
      "start": 191.4303,
      "duration": 0.0826,
      "velocity": 108,
      "chip": "ym2612"
    },
    {
      "channel": 0,
      "note": 35,
      "start": 191.4939,
      "duration": 0.132,
      "velocity": 124,
      "chip": "ym2612"
    },
    {
      "channel": 2,
      "note": 59,
      "start": 191.495,
      "duration": 0.0824,
      "velocity": 123,
      "chip": "ym2612"
    },
    {
      "channel": 4,
      "note": 35,
      "start": 191.4963,
      "duration": 0.0823,
      "velocity": 108,
      "chip": "ym2612"
    },
    {
      "channel": 5,
      "note": 35,
      "start": 191.5627,
      "duration": 0.0826,
      "velocity": 108,
      "chip": "ym2612"
    },
    {
      "channel": 0,
      "note": 23,
      "start": 191.6264,
      "duration": 0.1485,
      "velocity": 124,
      "chip": "ym2612"
    },
    {
      "channel": 1,
      "note": 62,
      "start": 191.6276,
      "duration": 0.1482,
      "velocity": 125,
      "chip": "ym2612"
    },
    {
      "channel": 4,
      "note": 38,
      "start": 191.6293,
      "duration": 0.0817,
      "velocity": 108,
      "chip": "ym2612"
    },
    {
      "channel": 5,
      "note": 38,
      "start": 191.7117,
      "duration": 0.0826,
      "velocity": 108,
      "chip": "ym2612"
    },
    {
      "channel": 0,
      "note": 23,
      "start": 191.7754,
      "duration": 0.1319,
      "velocity": 124,
      "chip": "ym2612"
    },
    {
      "channel": 2,
      "note": 59,
      "start": 191.7765,
      "duration": 0.0824,
      "velocity": 123,
      "chip": "ym2612"
    },
    {
      "channel": 4,
      "note": 35,
      "start": 191.7777,
      "duration": 0.0823,
      "velocity": 108,
      "chip": "ym2612"
    },
    {
      "channel": 5,
      "note": 35,
      "start": 191.8441,
      "duration": 0.0826,
      "velocity": 108,
      "chip": "ym2612"
    },
    {
      "channel": 0,
      "note": 35,
      "start": 191.9077,
      "duration": 0.1485,
      "velocity": 124,
      "chip": "ym2612"
    },
    {
      "channel": 1,
      "note": 26,
      "start": 191.9089,
      "duration": 0.2803,
      "velocity": 126,
      "chip": "ym2612"
    },
    {
      "channel": 4,
      "note": 35,
      "start": 191.9107,
      "duration": 0.0817,
      "velocity": 108,
      "chip": "ym2612"
    },
    {
      "channel": 5,
      "note": 35,
      "start": 191.9932,
      "duration": 0.0826,
      "velocity": 108,
      "chip": "ym2612"
    },
    {
      "channel": 0,
      "note": 23,
      "start": 192.0568,
      "duration": 0.1319,
      "velocity": 124,
      "chip": "ym2612"
    },
    {
      "channel": 4,
      "note": 47,
      "start": 192.0589,
      "duration": 0.0824,
      "velocity": 108,
      "chip": "ym2612"
    },
    {
      "channel": 5,
      "note": 47,
      "start": 192.1256,
      "duration": 0.0826,
      "velocity": 108,
      "chip": "ym2612"
    },
    {
      "channel": 0,
      "note": 23,
      "start": 192.1892,
      "duration": 0.1485,
      "velocity": 124,
      "chip": "ym2612"
    },
    {
      "channel": 1,
      "note": 38,
      "start": 192.1904,
      "duration": 0.2803,
      "velocity": 120,
      "chip": "ym2612"
    },
    {
      "channel": 2,
      "note": 59,
      "start": 192.1911,
      "duration": 0.0982,
      "velocity": 123,
      "chip": "ym2612"
    },
    {
      "channel": 3,
      "note": 49,
      "start": 192.1918,
      "duration": 0.8434,
      "velocity": 108,
      "chip": "ym2612"
    },
    {
      "channel": 4,
      "note": 38,
      "start": 192.1925,
      "duration": 0.0814,
      "velocity": 108,
      "chip": "ym2612"
    },
    {
      "channel": 5,
      "note": 38,
      "start": 192.2746,
      "duration": 0.0826,
      "velocity": 108,
      "chip": "ym2612"
    },
    {
      "channel": 0,
      "note": 35,
      "start": 192.3381,
      "duration": 0.1319,
      "velocity": 124,
      "chip": "ym2612"
    },
    {
      "channel": 4,
      "note": 35,
      "start": 192.3404,
      "duration": 0.0824,
      "velocity": 108,
      "chip": "ym2612"
    },
    {
      "channel": 5,
      "note": 35,
      "start": 192.4069,
      "duration": 0.0826,
      "velocity": 108,
      "chip": "ym2612"
    },
    {
      "channel": 0,
      "note": 23,
      "start": 192.4705,
      "duration": 0.1485,
      "velocity": 124,
      "chip": "ym2612"
    },
    {
      "channel": 1,
      "note": 38,
      "start": 192.4712,
      "duration": 0.2809,
      "velocity": 120,
      "chip": "ym2612"
    },
    {
      "channel": 2,
      "note": 34,
      "start": 192.4724,
      "duration": 0.1477,
      "velocity": 64,
      "chip": "ym2612"
    },
    {
      "channel": 4,
      "note": 40,
      "start": 192.4736,
      "duration": 0.0816,
      "velocity": 108,
      "chip": "ym2612"
    },
    {
      "channel": 5,
      "note": 40,
      "start": 192.5559,
      "duration": 0.0826,
      "velocity": 108,
      "chip": "ym2612"
    },
    {
      "channel": 0,
      "note": 35,
      "start": 192.6195,
      "duration": 0.1319,
      "velocity": 124,
      "chip": "ym2612"
    },
    {
      "channel": 2,
      "note": 59,
      "start": 192.6212,
      "duration": 0.0819,
      "velocity": 123,
      "chip": "ym2612"
    },
    {
      "channel": 4,
      "note": 35,
      "start": 192.6224,
      "duration": 0.0817,
      "velocity": 108,
      "chip": "ym2612"
    },
    {
      "channel": 5,
      "note": 35,
      "start": 192.6883,
      "duration": 0.0826,
      "velocity": 108,
      "chip": "ym2612"
    },
    {
      "channel": 0,
      "note": 23,
      "start": 192.752,
      "duration": 0.1485,
      "velocity": 124,
      "chip": "ym2612"
    },
    {
      "channel": 1,
      "note": 62,
      "start": 192.7532,
      "duration": 0.1482,
      "velocity": 125,
      "chip": "ym2612"
    },
    {
      "channel": 4,
      "note": 38,
      "start": 192.7549,
      "duration": 0.0817,
      "velocity": 108,
      "chip": "ym2612"
    },
    {
      "channel": 5,
      "note": 38,
      "start": 192.8373,
      "duration": 0.0826,
      "velocity": 108,
      "chip": "ym2612"
    },
    {
      "channel": 0,
      "note": 23,
      "start": 192.9009,
      "duration": 0.1319,
      "velocity": 124,
      "chip": "ym2612"
    },
    {
      "channel": 4,
      "note": 35,
      "start": 192.9032,
      "duration": 0.0824,
      "velocity": 108,
      "chip": "ym2612"
    },
    {
      "channel": 5,
      "note": 35,
      "start": 192.9697,
      "duration": 0.0827,
      "velocity": 108,
      "chip": "ym2612"
    },
    {
      "channel": 0,
      "note": 35,
      "start": 193.0333,
      "duration": 0.1485,
      "velocity": 124,
      "chip": "ym2612"
    },
    {
      "channel": 1,
      "note": 26,
      "start": 193.0345,
      "duration": 0.2803,
      "velocity": 126,
      "chip": "ym2612"
    },
    {
      "channel": 3,
      "note": 47,
      "start": 193.0357,
      "duration": 0.563,
      "velocity": 108,
      "chip": "ym2612"
    },
    {
      "channel": 4,
      "note": 37,
      "start": 193.0364,
      "duration": 0.0816,
      "velocity": 108,
      "chip": "ym2612"
    },
    {
      "channel": 5,
      "note": 37,
      "start": 193.1187,
      "duration": 0.0826,
      "velocity": 108,
      "chip": "ym2612"
    },
    {
      "channel": 0,
      "note": 23,
      "start": 193.1823,
      "duration": 0.1319,
      "velocity": 124,
      "chip": "ym2612"
    },
    {
      "channel": 4,
      "note": 35,
      "start": 193.1845,
      "duration": 0.0824,
      "velocity": 108,
      "chip": "ym2612"
    },
    {
      "channel": 5,
      "note": 35,
      "start": 193.251,
      "duration": 0.0827,
      "velocity": 108,
      "chip": "ym2612"
    },
    {
      "channel": 0,
      "note": 35,
      "start": 193.3147,
      "duration": 0.1485,
      "velocity": 124,
      "chip": "ym2612"
    },
    {
      "channel": 1,
      "note": 62,
      "start": 193.3159,
      "duration": 0.1482,
      "velocity": 125,
      "chip": "ym2612"
    },
    {
      "channel": 2,
      "note": 22,
      "start": 193.3171,
      "duration": 0.0976,
      "velocity": 64,
      "chip": "ym2612"
    },
    {
      "channel": 4,
      "note": 38,
      "start": 193.3184,
      "duration": 0.081,
      "velocity": 108,
      "chip": "ym2612"
    },
    {
      "channel": 5,
      "note": 38,
      "start": 193.4001,
      "duration": 0.0826,
      "velocity": 108,
      "chip": "ym2612"
    },
    {
      "channel": 0,
      "note": 23,
      "start": 193.4637,
      "duration": 0.132,
      "velocity": 124,
      "chip": "ym2612"
    },
    {
      "channel": 2,
      "note": 34,
      "start": 193.4648,
      "duration": 0.0824,
      "velocity": 64,
      "chip": "ym2612"
    },
    {
      "channel": 4,
      "note": 47,
      "start": 193.4661,
      "duration": 0.0823,
      "velocity": 108,
      "chip": "ym2612"
    },
    {
      "channel": 5,
      "note": 47,
      "start": 193.5325,
      "duration": 0.0826,
      "velocity": 108,
      "chip": "ym2612"
    },
    {
      "channel": 0,
      "note": 19,
      "start": 193.5961,
      "duration": 0.1485,
      "velocity": 124,
      "chip": "ym2612"
    },
    {
      "channel": 1,
      "note": 38,
      "start": 193.5973,
      "duration": 0.2803,
      "velocity": 120,
      "chip": "ym2612"
    },
    {
      "channel": 2,
      "note": 71,
      "start": 193.5986,
      "duration": 0.1471,
      "velocity": 122,
      "chip": "ym2612"
    },
    {
      "channel": 3,
      "note": 45,
      "start": 193.5993,
      "duration": 0.8431,
      "velocity": 108,
      "chip": "ym2612"
    },
    {
      "channel": 4,
      "note": 37,
      "start": 193.6,
      "duration": 0.0808,
      "velocity": 108,
      "chip": "ym2612"
    },
    {
      "channel": 5,
      "note": 37,
      "start": 193.6815,
      "duration": 0.0826,
      "velocity": 108,
      "chip": "ym2612"
    },
    {
      "channel": 0,
      "note": 31,
      "start": 193.7451,
      "duration": 0.1319,
      "velocity": 124,
      "chip": "ym2612"
    },
    {
      "channel": 2,
      "note": 71,
      "start": 193.7461,
      "duration": 0.0824,
      "velocity": 122,
      "chip": "ym2612"
    },
    {
      "channel": 4,
      "note": 35,
      "start": 193.7474,
      "duration": 0.0823,
      "velocity": 108,
      "chip": "ym2612"
    },
    {
      "channel": 5,
      "note": 35,
      "start": 193.8138,
      "duration": 0.0826,
      "velocity": 108,
      "chip": "ym2612"
    },
    {
      "channel": 0,
      "note": 19,
      "start": 193.8775,
      "duration": 0.1485,
      "velocity": 124,
      "chip": "ym2612"
    },
    {
      "channel": 1,
      "note": 62,
      "start": 193.8787,
      "duration": 0.1482,
      "velocity": 125,
      "chip": "ym2612"
    },
    {
      "channel": 2,
      "note": 66,
      "start": 193.8794,
      "duration": 0.1478,
      "velocity": 122,
      "chip": "ym2612"
    },
    {
      "channel": 4,
      "note": 38,
      "start": 193.8806,
      "duration": 0.0816,
      "velocity": 108,
      "chip": "ym2612"
    },
    {
      "channel": 5,
      "note": 38,
      "start": 193.9629,
      "duration": 0.0826,
      "velocity": 108,
      "chip": "ym2612"
    },
    {
      "channel": 0,
      "note": 19,
      "start": 194.0264,
      "duration": 0.132,
      "velocity": 124,
      "chip": "ym2612"
    },
    {
      "channel": 2,
      "note": 59,
      "start": 194.0276,
      "duration": 0.0824,
      "velocity": 123,
      "chip": "ym2612"
    },
    {
      "channel": 4,
      "note": 35,
      "start": 194.0288,
      "duration": 0.0823,
      "velocity": 108,
      "chip": "ym2612"
    },
    {
      "channel": 5,
      "note": 35,
      "start": 194.0953,
      "duration": 0.0826,
      "velocity": 108,
      "chip": "ym2612"
    },
    {
      "channel": 0,
      "note": 31,
      "start": 194.1589,
      "duration": 0.1485,
      "velocity": 124,
      "chip": "ym2612"
    },
    {
      "channel": 1,
      "note": 26,
      "start": 194.1601,
      "duration": 0.2803,
      "velocity": 126,
      "chip": "ym2612"
    },
    {
      "channel": 2,
      "note": 23,
      "start": 194.1607,
      "duration": 0.0983,
      "velocity": 123,
      "chip": "ym2612"
    },
    {
      "channel": 4,
      "note": 35,
      "start": 194.162,
      "duration": 0.0815,
      "velocity": 108,
      "chip": "ym2612"
    },
    {
      "channel": 5,
      "note": 35,
      "start": 194.2442,
      "duration": 0.0826,
      "velocity": 108,
      "chip": "ym2612"
    },
    {
      "channel": 0,
      "note": 19,
      "start": 194.3079,
      "duration": 0.132,
      "velocity": 124,
      "chip": "ym2612"
    },
    {
      "channel": 2,
      "note": 35,
      "start": 194.3089,
      "duration": 0.0825,
      "velocity": 123,
      "chip": "ym2612"
    },
    {
      "channel": 4,
      "note": 47,
      "start": 194.3102,
      "duration": 0.0824,
      "velocity": 108,
      "chip": "ym2612"
    },
    {
      "channel": 5,
      "note": 47,
      "start": 194.3766,
      "duration": 0.0827,
      "velocity": 108,
      "chip": "ym2612"
    },
    {
      "channel": 0,
      "note": 19,
      "start": 194.4403,
      "duration": 0.1485,
      "velocity": 124,
      "chip": "ym2612"
    },
    {
      "channel": 1,
      "note": 38,
      "start": 194.4416,
      "duration": 0.2803,
      "velocity": 120,
      "chip": "ym2612"
    },
    {
      "channel": 2,
      "note": 59,
      "start": 194.4422,
      "duration": 0.0982,
      "velocity": 123,
      "chip": "ym2612"
    },
    {
      "channel": 3,
      "note": 47,
      "start": 194.4429,
      "duration": 0.8434,
      "velocity": 108,
      "chip": "ym2612"
    },
    {
      "channel": 4,
      "note": 38,
      "start": 194.4436,
      "duration": 0.0814,
      "velocity": 108,
      "chip": "ym2612"
    },
    {
      "channel": 5,
      "note": 38,
      "start": 194.5257,
      "duration": 0.0826,
      "velocity": 108,
      "chip": "ym2612"
    },
    {
      "channel": 0,
      "note": 31,
      "start": 194.5892,
      "duration": 0.132,
      "velocity": 124,
      "chip": "ym2612"
    },
    {
      "channel": 4,
      "note": 35,
      "start": 194.5915,
      "duration": 0.0824,
      "velocity": 108,
      "chip": "ym2612"
    },
    {
      "channel": 5,
      "note": 35,
      "start": 194.658,
      "duration": 0.0826,
      "velocity": 108,
      "chip": "ym2612"
    },
    {
      "channel": 0,
      "note": 19,
      "start": 194.7217,
      "duration": 0.1485,
      "velocity": 124,
      "chip": "ym2612"
    },
    {
      "channel": 1,
      "note": 38,
      "start": 194.7223,
      "duration": 0.2809,
      "velocity": 120,
      "chip": "ym2612"
    },
    {
      "channel": 2,
      "note": 34,
      "start": 194.7236,
      "duration": 0.1476,
      "velocity": 64,
      "chip": "ym2612"
    },
    {
      "channel": 4,
      "note": 40,
      "start": 194.7248,
      "duration": 0.0815,
      "velocity": 108,
      "chip": "ym2612"
    },
    {
      "channel": 5,
      "note": 40,
      "start": 194.8071,
      "duration": 0.0825,
      "velocity": 108,
      "chip": "ym2612"
    },
    {
      "channel": 0,
      "note": 31,
      "start": 194.8707,
      "duration": 0.1319,
      "velocity": 124,
      "chip": "ym2612"
    },
    {
      "channel": 2,
      "note": 59,
      "start": 194.8723,
      "duration": 0.0819,
      "velocity": 123,
      "chip": "ym2612"
    },
    {
      "channel": 4,
      "note": 35,
      "start": 194.8736,
      "duration": 0.0817,
      "velocity": 108,
      "chip": "ym2612"
    },
    {
      "channel": 5,
      "note": 35,
      "start": 194.9394,
      "duration": 0.0826,
      "velocity": 108,
      "chip": "ym2612"
    },
    {
      "channel": 0,
      "note": 19,
      "start": 195.0031,
      "duration": 0.1485,
      "velocity": 124,
      "chip": "ym2612"
    },
    {
      "channel": 1,
      "note": 62,
      "start": 195.0043,
      "duration": 0.1482,
      "velocity": 125,
      "chip": "ym2612"
    },
    {
      "channel": 4,
      "note": 38,
      "start": 195.006,
      "duration": 0.0817,
      "velocity": 108,
      "chip": "ym2612"
    },
    {
      "channel": 5,
      "note": 38,
      "start": 195.0885,
      "duration": 0.0826,
      "velocity": 108,
      "chip": "ym2612"
    },
    {
      "channel": 0,
      "note": 19,
      "start": 195.152,
      "duration": 0.132,
      "velocity": 124,
      "chip": "ym2612"
    },
    {
      "channel": 2,
      "note": 59,
      "start": 195.1532,
      "duration": 0.0824,
      "velocity": 123,
      "chip": "ym2612"
    },
    {
      "channel": 4,
      "note": 35,
      "start": 195.1544,
      "duration": 0.0823,
      "velocity": 108,
      "chip": "ym2612"
    },
    {
      "channel": 5,
      "note": 35,
      "start": 195.2208,
      "duration": 0.0826,
      "velocity": 108,
      "chip": "ym2612"
    },
    {
      "channel": 0,
      "note": 31,
      "start": 195.2844,
      "duration": 0.1485,
      "velocity": 124,
      "chip": "ym2612"
    },
    {
      "channel": 1,
      "note": 26,
      "start": 195.2857,
      "duration": 0.5617,
      "velocity": 126,
      "chip": "ym2612"
    },
    {
      "channel": 3,
      "note": 45,
      "start": 195.2869,
      "duration": 0.5622,
      "velocity": 108,
      "chip": "ym2612"
    },
    {
      "channel": 4,
      "note": 37,
      "start": 195.2876,
      "duration": 0.0815,
      "velocity": 108,
      "chip": "ym2612"
    },
    {
      "channel": 5,
      "note": 37,
      "start": 195.3698,
      "duration": 0.0826,
      "velocity": 108,
      "chip": "ym2612"
    },
    {
      "channel": 0,
      "note": 19,
      "start": 195.4334,
      "duration": 0.132,
      "velocity": 124,
      "chip": "ym2612"
    },
    {
      "channel": 2,
      "note": 34,
      "start": 195.4351,
      "duration": 0.1314,
      "velocity": 64,
      "chip": "ym2612"
    },
    {
      "channel": 4,
      "note": 35,
      "start": 195.4363,
      "duration": 0.0817,
      "velocity": 108,
      "chip": "ym2612"
    },
    {
      "channel": 5,
      "note": 35,
      "start": 195.5022,
      "duration": 0.0826,
      "velocity": 108,
      "chip": "ym2612"
    },
    {
      "channel": 0,
      "note": 31,
      "start": 195.5659,
      "duration": 0.1485,
      "velocity": 124,
      "chip": "ym2612"
    },
    {
      "channel": 2,
      "note": 59,
      "start": 195.5675,
      "duration": 0.0984,
      "velocity": 123,
      "chip": "ym2612"
    },
    {
      "channel": 4,
      "note": 38,
      "start": 195.5688,
      "duration": 0.0817,
      "velocity": 108,
      "chip": "ym2612"
    },
    {
      "channel": 5,
      "note": 38,
      "start": 195.6512,
      "duration": 0.0826,
      "velocity": 108,
      "chip": "ym2612"
    },
    {
      "channel": 0,
      "note": 21,
      "start": 195.7148,
      "duration": 0.132,
      "velocity": 124,
      "chip": "ym2612"
    },
    {
      "channel": 4,
      "note": 47,
      "start": 195.717,
      "duration": 0.0825,
      "velocity": 108,
      "chip": "ym2612"
    },
    {
      "channel": 5,
      "note": 47,
      "start": 195.7836,
      "duration": 0.0826,
      "velocity": 108,
      "chip": "ym2612"
    },
    {
      "channel": 0,
      "note": 23,
      "start": 195.8472,
      "duration": 0.1485,
      "velocity": 124,
      "chip": "ym2612"
    },
    {
      "channel": 1,
      "note": 38,
      "start": 195.8484,
      "duration": 0.2804,
      "velocity": 120,
      "chip": "ym2612"
    },
    {
      "channel": 3,
      "note": 42,
      "start": 195.8497,
      "duration": 2.2513,
      "velocity": 108,
      "chip": "ym2612"
    },
    {
      "channel": 4,
      "note": 37,
      "start": 195.8504,
      "duration": 0.0815,
      "velocity": 108,
      "chip": "ym2612"
    },
    {
      "channel": 5,
      "note": 37,
      "start": 195.9326,
      "duration": 0.0826,
      "velocity": 108,
      "chip": "ym2612"
    },
    {
      "channel": 0,
      "note": 35,
      "start": 195.9962,
      "duration": 0.132,
      "velocity": 124,
      "chip": "ym2612"
    },
    {
      "channel": 2,
      "note": 59,
      "start": 195.9973,
      "duration": 0.0824,
      "velocity": 123,
      "chip": "ym2612"
    },
    {
      "channel": 4,
      "note": 35,
      "start": 195.9986,
      "duration": 0.0823,
      "velocity": 108,
      "chip": "ym2612"
    },
    {
      "channel": 5,
      "note": 35,
      "start": 196.065,
      "duration": 0.0826,
      "velocity": 108,
      "chip": "ym2612"
    },
    {
      "channel": 0,
      "note": 23,
      "start": 196.1287,
      "duration": 0.1485,
      "velocity": 124,
      "chip": "ym2612"
    },
    {
      "channel": 1,
      "note": 62,
      "start": 196.1299,
      "duration": 0.1482,
      "velocity": 125,
      "chip": "ym2612"
    },
    {
      "channel": 4,
      "note": 38,
      "start": 196.1316,
      "duration": 0.0817,
      "velocity": 108,
      "chip": "ym2612"
    },
    {
      "channel": 5,
      "note": 38,
      "start": 196.214,
      "duration": 0.0826,
      "velocity": 108,
      "chip": "ym2612"
    },
    {
      "channel": 0,
      "note": 23,
      "start": 196.2776,
      "duration": 0.132,
      "velocity": 124,
      "chip": "ym2612"
    },
    {
      "channel": 2,
      "note": 59,
      "start": 196.2787,
      "duration": 0.0824,
      "velocity": 123,
      "chip": "ym2612"
    },
    {
      "channel": 4,
      "note": 35,
      "start": 196.28,
      "duration": 0.0822,
      "velocity": 108,
      "chip": "ym2612"
    },
    {
      "channel": 5,
      "note": 35,
      "start": 196.3464,
      "duration": 0.0826,
      "velocity": 108,
      "chip": "ym2612"
    },
    {
      "channel": 0,
      "note": 35,
      "start": 196.41,
      "duration": 0.1485,
      "velocity": 124,
      "chip": "ym2612"
    },
    {
      "channel": 1,
      "note": 26,
      "start": 196.4112,
      "duration": 0.2803,
      "velocity": 126,
      "chip": "ym2612"
    },
    {
      "channel": 4,
      "note": 35,
      "start": 196.4129,
      "duration": 0.0817,
      "velocity": 108,
      "chip": "ym2612"
    },
    {
      "channel": 5,
      "note": 35,
      "start": 196.4954,
      "duration": 0.0826,
      "velocity": 108,
      "chip": "ym2612"
    },
    {
      "channel": 0,
      "note": 23,
      "start": 196.559,
      "duration": 0.1319,
      "velocity": 124,
      "chip": "ym2612"
    },
    {
      "channel": 4,
      "note": 47,
      "start": 196.5612,
      "duration": 0.0824,
      "velocity": 108,
      "chip": "ym2612"
    },
    {
      "channel": 5,
      "note": 47,
      "start": 196.6278,
      "duration": 0.0826,
      "velocity": 108,
      "chip": "ym2612"
    },
    {
      "channel": 0,
      "note": 23,
      "start": 196.6914,
      "duration": 0.1486,
      "velocity": 124,
      "chip": "ym2612"
    },
    {
      "channel": 1,
      "note": 38,
      "start": 196.6927,
      "duration": 0.2803,
      "velocity": 120,
      "chip": "ym2612"
    },
    {
      "channel": 2,
      "note": 59,
      "start": 196.6933,
      "duration": 0.0982,
      "velocity": 123,
      "chip": "ym2612"
    },
    {
      "channel": 4,
      "note": 38,
      "start": 196.6945,
      "duration": 0.0815,
      "velocity": 108,
      "chip": "ym2612"
    },
    {
      "channel": 5,
      "note": 38,
      "start": 196.7768,
      "duration": 0.0827,
      "velocity": 108,
      "chip": "ym2612"
    },
    {
      "channel": 0,
      "note": 35,
      "start": 196.8404,
      "duration": 0.1319,
      "velocity": 124,
      "chip": "ym2612"
    },
    {
      "channel": 4,
      "note": 35,
      "start": 196.8426,
      "duration": 0.0824,
      "velocity": 108,
      "chip": "ym2612"
    },
    {
      "channel": 5,
      "note": 35,
      "start": 196.9092,
      "duration": 0.0826,
      "velocity": 108,
      "chip": "ym2612"
    },
    {
      "channel": 0,
      "note": 23,
      "start": 196.9728,
      "duration": 0.1485,
      "velocity": 124,
      "chip": "ym2612"
    },
    {
      "channel": 1,
      "note": 38,
      "start": 196.9735,
      "duration": 0.2808,
      "velocity": 120,
      "chip": "ym2612"
    },
    {
      "channel": 2,
      "note": 34,
      "start": 196.9747,
      "duration": 0.1476,
      "velocity": 64,
      "chip": "ym2612"
    },
    {
      "channel": 4,
      "note": 40,
      "start": 196.9759,
      "duration": 0.0816,
      "velocity": 108,
      "chip": "ym2612"
    },
    {
      "channel": 5,
      "note": 40,
      "start": 197.0582,
      "duration": 0.0826,
      "velocity": 108,
      "chip": "ym2612"
    },
    {
      "channel": 0,
      "note": 35,
      "start": 197.1218,
      "duration": 0.1319,
      "velocity": 124,
      "chip": "ym2612"
    },
    {
      "channel": 2,
      "note": 59,
      "start": 197.1235,
      "duration": 0.0818,
      "velocity": 123,
      "chip": "ym2612"
    },
    {
      "channel": 4,
      "note": 35,
      "start": 197.1248,
      "duration": 0.0817,
      "velocity": 108,
      "chip": "ym2612"
    },
    {
      "channel": 5,
      "note": 35,
      "start": 197.1906,
      "duration": 0.0827,
      "velocity": 108,
      "chip": "ym2612"
    },
    {
      "channel": 0,
      "note": 23,
      "start": 197.2542,
      "duration": 0.1485,
      "velocity": 124,
      "chip": "ym2612"
    },
    {
      "channel": 1,
      "note": 62,
      "start": 197.2554,
      "duration": 0.1482,
      "velocity": 125,
      "chip": "ym2612"
    },
    {
      "channel": 4,
      "note": 38,
      "start": 197.2572,
      "duration": 0.0816,
      "velocity": 108,
      "chip": "ym2612"
    },
    {
      "channel": 5,
      "note": 38,
      "start": 197.3396,
      "duration": 0.0826,
      "velocity": 108,
      "chip": "ym2612"
    },
    {
      "channel": 0,
      "note": 23,
      "start": 197.4032,
      "duration": 0.1319,
      "velocity": 124,
      "chip": "ym2612"
    },
    {
      "channel": 4,
      "note": 35,
      "start": 197.4054,
      "duration": 0.0824,
      "velocity": 108,
      "chip": "ym2612"
    },
    {
      "channel": 5,
      "note": 35,
      "start": 197.472,
      "duration": 0.0827,
      "velocity": 108,
      "chip": "ym2612"
    },
    {
      "channel": 0,
      "note": 35,
      "start": 197.5356,
      "duration": 0.1485,
      "velocity": 124,
      "chip": "ym2612"
    },
    {
      "channel": 1,
      "note": 26,
      "start": 197.5368,
      "duration": 0.2803,
      "velocity": 126,
      "chip": "ym2612"
    },
    {
      "channel": 4,
      "note": 37,
      "start": 197.5385,
      "duration": 0.0817,
      "velocity": 108,
      "chip": "ym2612"
    },
    {
      "channel": 5,
      "note": 37,
      "start": 197.621,
      "duration": 0.0826,
      "velocity": 108,
      "chip": "ym2612"
    },
    {
      "channel": 0,
      "note": 23,
      "start": 197.6846,
      "duration": 0.1319,
      "velocity": 124,
      "chip": "ym2612"
    },
    {
      "channel": 4,
      "note": 35,
      "start": 197.6867,
      "duration": 0.0824,
      "velocity": 108,
      "chip": "ym2612"
    },
    {
      "channel": 5,
      "note": 35,
      "start": 197.7533,
      "duration": 0.0827,
      "velocity": 108,
      "chip": "ym2612"
    },
    {
      "channel": 0,
      "note": 35,
      "start": 197.817,
      "duration": 0.1485,
      "velocity": 124,
      "chip": "ym2612"
    },
    {
      "channel": 1,
      "note": 62,
      "start": 197.8182,
      "duration": 0.1483,
      "velocity": 125,
      "chip": "ym2612"
    },
    {
      "channel": 2,
      "note": 22,
      "start": 197.8194,
      "duration": 0.0976,
      "velocity": 64,
      "chip": "ym2612"
    },
    {
      "channel": 4,
      "note": 38,
      "start": 197.8207,
      "duration": 0.081,
      "velocity": 108,
      "chip": "ym2612"
    },
    {
      "channel": 5,
      "note": 38,
      "start": 197.9024,
      "duration": 0.0826,
      "velocity": 108,
      "chip": "ym2612"
    },
    {
      "channel": 0,
      "note": 23,
      "start": 197.9659,
      "duration": 0.132,
      "velocity": 124,
      "chip": "ym2612"
    },
    {
      "channel": 2,
      "note": 34,
      "start": 197.9671,
      "duration": 0.0824,
      "velocity": 64,
      "chip": "ym2612"
    },
    {
      "channel": 4,
      "note": 47,
      "start": 197.9683,
      "duration": 0.0823,
      "velocity": 108,
      "chip": "ym2612"
    },
    {
      "channel": 5,
      "note": 47,
      "start": 198.0348,
      "duration": 0.0826,
      "velocity": 108,
      "chip": "ym2612"
    },
    {
      "channel": 0,
      "note": 19,
      "start": 198.0984,
      "duration": 0.1485,
      "velocity": 124,
      "chip": "ym2612"
    },
    {
      "channel": 1,
      "note": 38,
      "start": 198.0996,
      "duration": 0.2803,
      "velocity": 120,
      "chip": "ym2612"
    },
    {
      "channel": 2,
      "note": 71,
      "start": 198.1008,
      "duration": 0.1472,
      "velocity": 122,
      "chip": "ym2612"
    },
    {
      "channel": 3,
      "note": 45,
      "start": 198.1015,
      "duration": 0.8431,
      "velocity": 108,
      "chip": "ym2612"
    },
    {
      "channel": 4,
      "note": 37,
      "start": 198.1023,
      "duration": 0.0807,
      "velocity": 108,
      "chip": "ym2612"
    },
    {
      "channel": 5,
      "note": 37,
      "start": 198.1837,
      "duration": 0.0826,
      "velocity": 108,
      "chip": "ym2612"
    },
    {
      "channel": 0,
      "note": 31,
      "start": 198.2474,
      "duration": 0.1319,
      "velocity": 124,
      "chip": "ym2612"
    },
    {
      "channel": 2,
      "note": 71,
      "start": 198.2484,
      "duration": 0.0824,
      "velocity": 122,
      "chip": "ym2612"
    },
    {
      "channel": 4,
      "note": 35,
      "start": 198.2497,
      "duration": 0.0823,
      "velocity": 108,
      "chip": "ym2612"
    },
    {
      "channel": 5,
      "note": 35,
      "start": 198.3161,
      "duration": 0.0826,
      "velocity": 108,
      "chip": "ym2612"
    },
    {
      "channel": 0,
      "note": 19,
      "start": 198.3798,
      "duration": 0.1485,
      "velocity": 124,
      "chip": "ym2612"
    },
    {
      "channel": 1,
      "note": 62,
      "start": 198.381,
      "duration": 0.1483,
      "velocity": 125,
      "chip": "ym2612"
    },
    {
      "channel": 2,
      "note": 66,
      "start": 198.3816,
      "duration": 0.1478,
      "velocity": 122,
      "chip": "ym2612"
    },
    {
      "channel": 4,
      "note": 38,
      "start": 198.3829,
      "duration": 0.0816,
      "velocity": 108,
      "chip": "ym2612"
    },
    {
      "channel": 5,
      "note": 38,
      "start": 198.4652,
      "duration": 0.0826,
      "velocity": 108,
      "chip": "ym2612"
    },
    {
      "channel": 0,
      "note": 19,
      "start": 198.5287,
      "duration": 0.1319,
      "velocity": 124,
      "chip": "ym2612"
    },
    {
      "channel": 2,
      "note": 59,
      "start": 198.5299,
      "duration": 0.0824,
      "velocity": 123,
      "chip": "ym2612"
    },
    {
      "channel": 4,
      "note": 35,
      "start": 198.5311,
      "duration": 0.0823,
      "velocity": 108,
      "chip": "ym2612"
    },
    {
      "channel": 5,
      "note": 35,
      "start": 198.5976,
      "duration": 0.0826,
      "velocity": 108,
      "chip": "ym2612"
    },
    {
      "channel": 0,
      "note": 31,
      "start": 198.6612,
      "duration": 0.1485,
      "velocity": 124,
      "chip": "ym2612"
    },
    {
      "channel": 1,
      "note": 26,
      "start": 198.6624,
      "duration": 0.2803,
      "velocity": 126,
      "chip": "ym2612"
    },
    {
      "channel": 2,
      "note": 23,
      "start": 198.663,
      "duration": 0.0983,
      "velocity": 123,
      "chip": "ym2612"
    },
    {
      "channel": 4,
      "note": 35,
      "start": 198.6643,
      "duration": 0.0815,
      "velocity": 108,
      "chip": "ym2612"
    },
    {
      "channel": 5,
      "note": 35,
      "start": 198.7465,
      "duration": 0.0826,
      "velocity": 108,
      "chip": "ym2612"
    },
    {
      "channel": 0,
      "note": 19,
      "start": 198.8102,
      "duration": 0.1319,
      "velocity": 124,
      "chip": "ym2612"
    },
    {
      "channel": 2,
      "note": 35,
      "start": 198.8112,
      "duration": 0.0824,
      "velocity": 123,
      "chip": "ym2612"
    },
    {
      "channel": 4,
      "note": 47,
      "start": 198.8125,
      "duration": 0.0823,
      "velocity": 108,
      "chip": "ym2612"
    },
    {
      "channel": 5,
      "note": 47,
      "start": 198.8789,
      "duration": 0.0826,
      "velocity": 108,
      "chip": "ym2612"
    },
    {
      "channel": 0,
      "note": 19,
      "start": 198.9425,
      "duration": 0.1485,
      "velocity": 124,
      "chip": "ym2612"
    },
    {
      "channel": 1,
      "note": 38,
      "start": 198.9438,
      "duration": 0.2803,
      "velocity": 120,
      "chip": "ym2612"
    },
    {
      "channel": 2,
      "note": 59,
      "start": 198.9444,
      "duration": 0.0982,
      "velocity": 123,
      "chip": "ym2612"
    },
    {
      "channel": 3,
      "note": 47,
      "start": 198.9451,
      "duration": 0.8434,
      "velocity": 108,
      "chip": "ym2612"
    },
    {
      "channel": 4,
      "note": 38,
      "start": 198.9458,
      "duration": 0.0814,
      "velocity": 108,
      "chip": "ym2612"
    },
    {
      "channel": 5,
      "note": 38,
      "start": 199.0279,
      "duration": 0.0826,
      "velocity": 108,
      "chip": "ym2612"
    },
    {
      "channel": 0,
      "note": 31,
      "start": 199.0915,
      "duration": 0.132,
      "velocity": 124,
      "chip": "ym2612"
    },
    {
      "channel": 4,
      "note": 35,
      "start": 199.0937,
      "duration": 0.0824,
      "velocity": 108,
      "chip": "ym2612"
    },
    {
      "channel": 5,
      "note": 35,
      "start": 199.1603,
      "duration": 0.0827,
      "velocity": 108,
      "chip": "ym2612"
    },
    {
      "channel": 0,
      "note": 19,
      "start": 199.224,
      "duration": 0.1484,
      "velocity": 124,
      "chip": "ym2612"
    },
    {
      "channel": 1,
      "note": 38,
      "start": 199.2246,
      "duration": 0.2808,
      "velocity": 120,
      "chip": "ym2612"
    },
    {
      "channel": 2,
      "note": 34,
      "start": 199.2259,
      "duration": 0.1477,
      "velocity": 64,
      "chip": "ym2612"
    },
    {
      "channel": 4,
      "note": 40,
      "start": 199.2271,
      "duration": 0.0815,
      "velocity": 108,
      "chip": "ym2612"
    },
    {
      "channel": 5,
      "note": 40,
      "start": 199.3093,
      "duration": 0.0826,
      "velocity": 108,
      "chip": "ym2612"
    },
    {
      "channel": 0,
      "note": 31,
      "start": 199.3729,
      "duration": 0.1319,
      "velocity": 124,
      "chip": "ym2612"
    },
    {
      "channel": 2,
      "note": 59,
      "start": 199.3746,
      "duration": 0.0819,
      "velocity": 123,
      "chip": "ym2612"
    },
    {
      "channel": 4,
      "note": 35,
      "start": 199.3759,
      "duration": 0.0817,
      "velocity": 108,
      "chip": "ym2612"
    },
    {
      "channel": 5,
      "note": 35,
      "start": 199.4418,
      "duration": 0.0826,
      "velocity": 108,
      "chip": "ym2612"
    },
    {
      "channel": 0,
      "note": 19,
      "start": 199.5053,
      "duration": 0.1485,
      "velocity": 124,
      "chip": "ym2612"
    },
    {
      "channel": 1,
      "note": 62,
      "start": 199.5066,
      "duration": 0.1482,
      "velocity": 125,
      "chip": "ym2612"
    },
    {
      "channel": 4,
      "note": 38,
      "start": 199.5083,
      "duration": 0.0817,
      "velocity": 108,
      "chip": "ym2612"
    },
    {
      "channel": 5,
      "note": 38,
      "start": 199.5907,
      "duration": 0.0826,
      "velocity": 108,
      "chip": "ym2612"
    },
    {
      "channel": 0,
      "note": 19,
      "start": 199.6543,
      "duration": 0.1319,
      "velocity": 124,
      "chip": "ym2612"
    },
    {
      "channel": 2,
      "note": 59,
      "start": 199.6554,
      "duration": 0.0824,
      "velocity": 123,
      "chip": "ym2612"
    },
    {
      "channel": 4,
      "note": 35,
      "start": 199.6567,
      "duration": 0.0822,
      "velocity": 108,
      "chip": "ym2612"
    },
    {
      "channel": 5,
      "note": 35,
      "start": 199.7231,
      "duration": 0.0826,
      "velocity": 108,
      "chip": "ym2612"
    },
    {
      "channel": 0,
      "note": 31,
      "start": 199.7867,
      "duration": 0.1485,
      "velocity": 124,
      "chip": "ym2612"
    },
    {
      "channel": 1,
      "note": 26,
      "start": 199.788,
      "duration": 0.5617,
      "velocity": 126,
      "chip": "ym2612"
    },
    {
      "channel": 3,
      "note": 49,
      "start": 199.7892,
      "duration": 0.5622,
      "velocity": 108,
      "chip": "ym2612"
    },
    {
      "channel": 4,
      "note": 37,
      "start": 199.7899,
      "duration": 0.0815,
      "velocity": 108,
      "chip": "ym2612"
    },
    {
      "channel": 5,
      "note": 37,
      "start": 199.8721,
      "duration": 0.0826,
      "velocity": 108,
      "chip": "ym2612"
    },
    {
      "channel": 0,
      "note": 19,
      "start": 199.9357,
      "duration": 0.132,
      "velocity": 124,
      "chip": "ym2612"
    },
    {
      "channel": 2,
      "note": 34,
      "start": 199.9374,
      "duration": 0.1314,
      "velocity": 64,
      "chip": "ym2612"
    },
    {
      "channel": 4,
      "note": 35,
      "start": 199.9386,
      "duration": 0.0817,
      "velocity": 108,
      "chip": "ym2612"
    },
    {
      "channel": 5,
      "note": 35,
      "start": 200.0045,
      "duration": 0.0826,
      "velocity": 108,
      "chip": "ym2612"
    },
    {
      "channel": 0,
      "note": 31,
      "start": 200.0681,
      "duration": 0.1485,
      "velocity": 124,
      "chip": "ym2612"
    },
    {
      "channel": 2,
      "note": 59,
      "start": 200.0698,
      "duration": 0.0984,
      "velocity": 123,
      "chip": "ym2612"
    },
    {
      "channel": 4,
      "note": 38,
      "start": 200.071,
      "duration": 0.0817,
      "velocity": 108,
      "chip": "ym2612"
    },
    {
      "channel": 5,
      "note": 38,
      "start": 200.1535,
      "duration": 0.0826,
      "velocity": 108,
      "chip": "ym2612"
    },
    {
      "channel": 0,
      "note": 21,
      "start": 200.2171,
      "duration": 0.132,
      "velocity": 124,
      "chip": "ym2612"
    },
    {
      "channel": 4,
      "note": 47,
      "start": 200.2193,
      "duration": 0.0825,
      "velocity": 108,
      "chip": "ym2612"
    },
    {
      "channel": 5,
      "note": 47,
      "start": 200.2859,
      "duration": 0.0826,
      "velocity": 108,
      "chip": "ym2612"
    },
    {
      "channel": 0,
      "note": 23,
      "start": 200.3495,
      "duration": 0.1485,
      "velocity": 124,
      "chip": "ym2612"
    },
    {
      "channel": 1,
      "note": 38,
      "start": 200.3507,
      "duration": 0.2803,
      "velocity": 120,
      "chip": "ym2612"
    },
    {
      "channel": 3,
      "note": 50,
      "start": 200.352,
      "duration": 0.8438,
      "velocity": 108,
      "chip": "ym2612"
    },
    {
      "channel": 4,
      "note": 37,
      "start": 200.3527,
      "duration": 0.0815,
      "velocity": 108,
      "chip": "ym2612"
    },
    {
      "channel": 5,
      "note": 37,
      "start": 200.4349,
      "duration": 0.0826,
      "velocity": 108,
      "chip": "ym2612"
    },
    {
      "channel": 0,
      "note": 35,
      "start": 200.4985,
      "duration": 0.132,
      "velocity": 124,
      "chip": "ym2612"
    },
    {
      "channel": 2,
      "note": 59,
      "start": 200.4996,
      "duration": 0.0824,
      "velocity": 123,
      "chip": "ym2612"
    },
    {
      "channel": 4,
      "note": 35,
      "start": 200.5009,
      "duration": 0.0823,
      "velocity": 108,
      "chip": "ym2612"
    },
    {
      "channel": 5,
      "note": 35,
      "start": 200.5673,
      "duration": 0.0826,
      "velocity": 108,
      "chip": "ym2612"
    },
    {
      "channel": 0,
      "note": 23,
      "start": 200.6309,
      "duration": 0.1485,
      "velocity": 124,
      "chip": "ym2612"
    },
    {
      "channel": 1,
      "note": 62,
      "start": 200.6321,
      "duration": 0.1483,
      "velocity": 125,
      "chip": "ym2612"
    },
    {
      "channel": 4,
      "note": 38,
      "start": 200.6338,
      "duration": 0.0817,
      "velocity": 108,
      "chip": "ym2612"
    },
    {
      "channel": 5,
      "note": 38,
      "start": 200.7163,
      "duration": 0.0826,
      "velocity": 108,
      "chip": "ym2612"
    },
    {
      "channel": 0,
      "note": 23,
      "start": 200.7799,
      "duration": 0.132,
      "velocity": 124,
      "chip": "ym2612"
    },
    {
      "channel": 2,
      "note": 59,
      "start": 200.781,
      "duration": 0.0824,
      "velocity": 123,
      "chip": "ym2612"
    },
    {
      "channel": 4,
      "note": 35,
      "start": 200.7822,
      "duration": 0.0823,
      "velocity": 108,
      "chip": "ym2612"
    },
    {
      "channel": 5,
      "note": 35,
      "start": 200.8487,
      "duration": 0.0826,
      "velocity": 108,
      "chip": "ym2612"
    },
    {
      "channel": 0,
      "note": 35,
      "start": 200.9123,
      "duration": 0.1485,
      "velocity": 124,
      "chip": "ym2612"
    },
    {
      "channel": 1,
      "note": 26,
      "start": 200.9135,
      "duration": 0.2803,
      "velocity": 126,
      "chip": "ym2612"
    },
    {
      "channel": 4,
      "note": 35,
      "start": 200.9152,
      "duration": 0.0817,
      "velocity": 108,
      "chip": "ym2612"
    },
    {
      "channel": 5,
      "note": 35,
      "start": 200.9977,
      "duration": 0.0826,
      "velocity": 108,
      "chip": "ym2612"
    },
    {
      "channel": 0,
      "note": 23,
      "start": 201.0613,
      "duration": 0.1319,
      "velocity": 124,
      "chip": "ym2612"
    },
    {
      "channel": 4,
      "note": 47,
      "start": 201.0635,
      "duration": 0.0824,
      "velocity": 108,
      "chip": "ym2612"
    },
    {
      "channel": 5,
      "note": 47,
      "start": 201.1301,
      "duration": 0.0826,
      "velocity": 108,
      "chip": "ym2612"
    },
    {
      "channel": 0,
      "note": 23,
      "start": 201.1937,
      "duration": 0.1485,
      "velocity": 124,
      "chip": "ym2612"
    },
    {
      "channel": 1,
      "note": 38,
      "start": 201.1949,
      "duration": 0.2803,
      "velocity": 120,
      "chip": "ym2612"
    },
    {
      "channel": 2,
      "note": 59,
      "start": 201.1955,
      "duration": 0.0983,
      "velocity": 123,
      "chip": "ym2612"
    },
    {
      "channel": 3,
      "note": 49,
      "start": 201.1963,
      "duration": 0.8435,
      "velocity": 108,
      "chip": "ym2612"
    },
    {
      "channel": 4,
      "note": 38,
      "start": 201.197,
      "duration": 0.0814,
      "velocity": 108,
      "chip": "ym2612"
    },
    {
      "channel": 5,
      "note": 38,
      "start": 201.279,
      "duration": 0.0826,
      "velocity": 108,
      "chip": "ym2612"
    },
    {
      "channel": 0,
      "note": 35,
      "start": 201.3427,
      "duration": 0.1319,
      "velocity": 124,
      "chip": "ym2612"
    },
    {
      "channel": 4,
      "note": 35,
      "start": 201.3449,
      "duration": 0.0824,
      "velocity": 108,
      "chip": "ym2612"
    },
    {
      "channel": 5,
      "note": 35,
      "start": 201.4114,
      "duration": 0.0827,
      "velocity": 108,
      "chip": "ym2612"
    },
    {
      "channel": 0,
      "note": 23,
      "start": 201.4751,
      "duration": 0.1485,
      "velocity": 124,
      "chip": "ym2612"
    },
    {
      "channel": 1,
      "note": 38,
      "start": 201.4757,
      "duration": 0.2809,
      "velocity": 120,
      "chip": "ym2612"
    },
    {
      "channel": 2,
      "note": 34,
      "start": 201.4769,
      "duration": 0.1477,
      "velocity": 64,
      "chip": "ym2612"
    },
    {
      "channel": 4,
      "note": 40,
      "start": 201.4782,
      "duration": 0.0815,
      "velocity": 108,
      "chip": "ym2612"
    },
    {
      "channel": 5,
      "note": 40,
      "start": 201.5605,
      "duration": 0.0826,
      "velocity": 108,
      "chip": "ym2612"
    },
    {
      "channel": 0,
      "note": 35,
      "start": 201.6241,
      "duration": 0.1319,
      "velocity": 124,
      "chip": "ym2612"
    },
    {
      "channel": 2,
      "note": 59,
      "start": 201.6257,
      "duration": 0.0819,
      "velocity": 123,
      "chip": "ym2612"
    },
    {
      "channel": 4,
      "note": 35,
      "start": 201.627,
      "duration": 0.0817,
      "velocity": 108,
      "chip": "ym2612"
    },
    {
      "channel": 5,
      "note": 35,
      "start": 201.6929,
      "duration": 0.0827,
      "velocity": 108,
      "chip": "ym2612"
    },
    {
      "channel": 0,
      "note": 23,
      "start": 201.7565,
      "duration": 0.1485,
      "velocity": 124,
      "chip": "ym2612"
    },
    {
      "channel": 1,
      "note": 62,
      "start": 201.7577,
      "duration": 0.1482,
      "velocity": 125,
      "chip": "ym2612"
    },
    {
      "channel": 4,
      "note": 38,
      "start": 201.7595,
      "duration": 0.0817,
      "velocity": 108,
      "chip": "ym2612"
    },
    {
      "channel": 5,
      "note": 38,
      "start": 201.8419,
      "duration": 0.0827,
      "velocity": 108,
      "chip": "ym2612"
    },
    {
      "channel": 0,
      "note": 23,
      "start": 201.9054,
      "duration": 0.1319,
      "velocity": 124,
      "chip": "ym2612"
    },
    {
      "channel": 4,
      "note": 35,
      "start": 201.9077,
      "duration": 0.0825,
      "velocity": 108,
      "chip": "ym2612"
    },
    {
      "channel": 5,
      "note": 35,
      "start": 201.9743,
      "duration": 0.0827,
      "velocity": 108,
      "chip": "ym2612"
    },
    {
      "channel": 0,
      "note": 35,
      "start": 202.0379,
      "duration": 0.1485,
      "velocity": 124,
      "chip": "ym2612"
    },
    {
      "channel": 1,
      "note": 26,
      "start": 202.0391,
      "duration": 0.2803,
      "velocity": 126,
      "chip": "ym2612"
    },
    {
      "channel": 3,
      "note": 47,
      "start": 202.0403,
      "duration": 0.563,
      "velocity": 108,
      "chip": "ym2612"
    },
    {
      "channel": 4,
      "note": 37,
      "start": 202.041,
      "duration": 0.0815,
      "velocity": 108,
      "chip": "ym2612"
    },
    {
      "channel": 5,
      "note": 37,
      "start": 202.1233,
      "duration": 0.0826,
      "velocity": 108,
      "chip": "ym2612"
    },
    {
      "channel": 0,
      "note": 23,
      "start": 202.1869,
      "duration": 0.1319,
      "velocity": 124,
      "chip": "ym2612"
    },
    {
      "channel": 4,
      "note": 35,
      "start": 202.189,
      "duration": 0.0824,
      "velocity": 108,
      "chip": "ym2612"
    },
    {
      "channel": 5,
      "note": 35,
      "start": 202.2556,
      "duration": 0.0827,
      "velocity": 108,
      "chip": "ym2612"
    },
    {
      "channel": 0,
      "note": 35,
      "start": 202.3193,
      "duration": 0.1485,
      "velocity": 124,
      "chip": "ym2612"
    },
    {
      "channel": 1,
      "note": 62,
      "start": 202.3205,
      "duration": 0.1483,
      "velocity": 125,
      "chip": "ym2612"
    },
    {
      "channel": 2,
      "note": 22,
      "start": 202.3217,
      "duration": 0.0977,
      "velocity": 64,
      "chip": "ym2612"
    },
    {
      "channel": 4,
      "note": 38,
      "start": 202.3229,
      "duration": 0.081,
      "velocity": 108,
      "chip": "ym2612"
    },
    {
      "channel": 5,
      "note": 38,
      "start": 202.4047,
      "duration": 0.0826,
      "velocity": 108,
      "chip": "ym2612"
    },
    {
      "channel": 0,
      "note": 23,
      "start": 202.4682,
      "duration": 0.1319,
      "velocity": 124,
      "chip": "ym2612"
    },
    {
      "channel": 2,
      "note": 34,
      "start": 202.4694,
      "duration": 0.0824,
      "velocity": 64,
      "chip": "ym2612"
    },
    {
      "channel": 4,
      "note": 47,
      "start": 202.4706,
      "duration": 0.0823,
      "velocity": 108,
      "chip": "ym2612"
    },
    {
      "channel": 5,
      "note": 47,
      "start": 202.5371,
      "duration": 0.0826,
      "velocity": 108,
      "chip": "ym2612"
    },
    {
      "channel": 0,
      "note": 19,
      "start": 202.6007,
      "duration": 0.1485,
      "velocity": 124,
      "chip": "ym2612"
    },
    {
      "channel": 1,
      "note": 38,
      "start": 202.6019,
      "duration": 0.2803,
      "velocity": 120,
      "chip": "ym2612"
    },
    {
      "channel": 2,
      "note": 71,
      "start": 202.6031,
      "duration": 0.1472,
      "velocity": 122,
      "chip": "ym2612"
    },
    {
      "channel": 3,
      "note": 45,
      "start": 202.6038,
      "duration": 0.8431,
      "velocity": 108,
      "chip": "ym2612"
    },
    {
      "channel": 4,
      "note": 37,
      "start": 202.6046,
      "duration": 0.0807,
      "velocity": 108,
      "chip": "ym2612"
    },
    {
      "channel": 5,
      "note": 37,
      "start": 202.686,
      "duration": 0.0826,
      "velocity": 108,
      "chip": "ym2612"
    },
    {
      "channel": 0,
      "note": 31,
      "start": 202.7497,
      "duration": 0.1319,
      "velocity": 124,
      "chip": "ym2612"
    },
    {
      "channel": 2,
      "note": 71,
      "start": 202.7507,
      "duration": 0.0824,
      "velocity": 122,
      "chip": "ym2612"
    },
    {
      "channel": 4,
      "note": 35,
      "start": 202.752,
      "duration": 0.0823,
      "velocity": 108,
      "chip": "ym2612"
    },
    {
      "channel": 5,
      "note": 35,
      "start": 202.8184,
      "duration": 0.0826,
      "velocity": 108,
      "chip": "ym2612"
    },
    {
      "channel": 0,
      "note": 19,
      "start": 202.882,
      "duration": 0.1485,
      "velocity": 124,
      "chip": "ym2612"
    },
    {
      "channel": 1,
      "note": 62,
      "start": 202.8832,
      "duration": 0.1483,
      "velocity": 125,
      "chip": "ym2612"
    },
    {
      "channel": 2,
      "note": 66,
      "start": 202.8839,
      "duration": 0.1478,
      "velocity": 122,
      "chip": "ym2612"
    },
    {
      "channel": 4,
      "note": 38,
      "start": 202.8851,
      "duration": 0.0816,
      "velocity": 108,
      "chip": "ym2612"
    },
    {
      "channel": 5,
      "note": 38,
      "start": 202.9674,
      "duration": 0.0827,
      "velocity": 108,
      "chip": "ym2612"
    },
    {
      "channel": 0,
      "note": 19,
      "start": 203.031,
      "duration": 0.1319,
      "velocity": 124,
      "chip": "ym2612"
    },
    {
      "channel": 2,
      "note": 59,
      "start": 203.0322,
      "duration": 0.0824,
      "velocity": 123,
      "chip": "ym2612"
    },
    {
      "channel": 4,
      "note": 35,
      "start": 203.0334,
      "duration": 0.0823,
      "velocity": 108,
      "chip": "ym2612"
    },
    {
      "channel": 5,
      "note": 35,
      "start": 203.0998,
      "duration": 0.0826,
      "velocity": 108,
      "chip": "ym2612"
    },
    {
      "channel": 0,
      "note": 31,
      "start": 203.1635,
      "duration": 0.1485,
      "velocity": 124,
      "chip": "ym2612"
    },
    {
      "channel": 1,
      "note": 26,
      "start": 203.1647,
      "duration": 0.2803,
      "velocity": 126,
      "chip": "ym2612"
    },
    {
      "channel": 2,
      "note": 23,
      "start": 203.1653,
      "duration": 0.0982,
      "velocity": 123,
      "chip": "ym2612"
    },
    {
      "channel": 4,
      "note": 35,
      "start": 203.1666,
      "duration": 0.0815,
      "velocity": 108,
      "chip": "ym2612"
    },
    {
      "channel": 5,
      "note": 35,
      "start": 203.2488,
      "duration": 0.0826,
      "velocity": 108,
      "chip": "ym2612"
    },
    {
      "channel": 0,
      "note": 19,
      "start": 203.3124,
      "duration": 0.1319,
      "velocity": 124,
      "chip": "ym2612"
    },
    {
      "channel": 2,
      "note": 35,
      "start": 203.3135,
      "duration": 0.0824,
      "velocity": 123,
      "chip": "ym2612"
    },
    {
      "channel": 4,
      "note": 47,
      "start": 203.3148,
      "duration": 0.0823,
      "velocity": 108,
      "chip": "ym2612"
    },
    {
      "channel": 5,
      "note": 47,
      "start": 203.3812,
      "duration": 0.0826,
      "velocity": 108,
      "chip": "ym2612"
    },
    {
      "channel": 0,
      "note": 19,
      "start": 203.4448,
      "duration": 0.1485,
      "velocity": 124,
      "chip": "ym2612"
    },
    {
      "channel": 1,
      "note": 38,
      "start": 203.446,
      "duration": 0.2803,
      "velocity": 120,
      "chip": "ym2612"
    },
    {
      "channel": 2,
      "note": 59,
      "start": 203.4467,
      "duration": 0.0983,
      "velocity": 123,
      "chip": "ym2612"
    },
    {
      "channel": 3,
      "note": 43,
      "start": 203.4474,
      "duration": 0.8435,
      "velocity": 108,
      "chip": "ym2612"
    },
    {
      "channel": 4,
      "note": 38,
      "start": 203.4481,
      "duration": 0.0814,
      "velocity": 108,
      "chip": "ym2612"
    },
    {
      "channel": 5,
      "note": 38,
      "start": 203.5302,
      "duration": 0.0826,
      "velocity": 108,
      "chip": "ym2612"
    },
    {
      "channel": 0,
      "note": 31,
      "start": 203.5938,
      "duration": 0.1319,
      "velocity": 124,
      "chip": "ym2612"
    },
    {
      "channel": 4,
      "note": 35,
      "start": 203.596,
      "duration": 0.0824,
      "velocity": 108,
      "chip": "ym2612"
    },
    {
      "channel": 5,
      "note": 35,
      "start": 203.6626,
      "duration": 0.0827,
      "velocity": 108,
      "chip": "ym2612"
    },
    {
      "channel": 0,
      "note": 19,
      "start": 203.7262,
      "duration": 0.1485,
      "velocity": 124,
      "chip": "ym2612"
    },
    {
      "channel": 1,
      "note": 38,
      "start": 203.7269,
      "duration": 0.2809,
      "velocity": 120,
      "chip": "ym2612"
    },
    {
      "channel": 2,
      "note": 34,
      "start": 203.7281,
      "duration": 0.1477,
      "velocity": 64,
      "chip": "ym2612"
    },
    {
      "channel": 4,
      "note": 40,
      "start": 203.7293,
      "duration": 0.0815,
      "velocity": 108,
      "chip": "ym2612"
    },
    {
      "channel": 5,
      "note": 40,
      "start": 203.8116,
      "duration": 0.0826,
      "velocity": 108,
      "chip": "ym2612"
    },
    {
      "channel": 0,
      "note": 31,
      "start": 203.8752,
      "duration": 0.132,
      "velocity": 124,
      "chip": "ym2612"
    },
    {
      "channel": 2,
      "note": 59,
      "start": 203.8769,
      "duration": 0.0819,
      "velocity": 123,
      "chip": "ym2612"
    },
    {
      "channel": 4,
      "note": 35,
      "start": 203.8782,
      "duration": 0.0817,
      "velocity": 108,
      "chip": "ym2612"
    },
    {
      "channel": 5,
      "note": 35,
      "start": 203.944,
      "duration": 0.0826,
      "velocity": 108,
      "chip": "ym2612"
    },
    {
      "channel": 0,
      "note": 19,
      "start": 204.0076,
      "duration": 0.1485,
      "velocity": 124,
      "chip": "ym2612"
    },
    {
      "channel": 1,
      "note": 62,
      "start": 204.0088,
      "duration": 0.1483,
      "velocity": 125,
      "chip": "ym2612"
    },
    {
      "channel": 4,
      "note": 38,
      "start": 204.0105,
      "duration": 0.0818,
      "velocity": 108,
      "chip": "ym2612"
    },
    {
      "channel": 5,
      "note": 38,
      "start": 204.093,
      "duration": 0.0826,
      "velocity": 108,
      "chip": "ym2612"
    },
    {
      "channel": 0,
      "note": 19,
      "start": 204.1566,
      "duration": 0.1319,
      "velocity": 124,
      "chip": "ym2612"
    },
    {
      "channel": 2,
      "note": 59,
      "start": 204.1578,
      "duration": 0.0824,
      "velocity": 123,
      "chip": "ym2612"
    },
    {
      "channel": 4,
      "note": 35,
      "start": 204.159,
      "duration": 0.0823,
      "velocity": 108,
      "chip": "ym2612"
    },
    {
      "channel": 5,
      "note": 35,
      "start": 204.2254,
      "duration": 0.0826,
      "velocity": 108,
      "chip": "ym2612"
    },
    {
      "channel": 0,
      "note": 31,
      "start": 204.289,
      "duration": 0.1485,
      "velocity": 124,
      "chip": "ym2612"
    },
    {
      "channel": 1,
      "note": 26,
      "start": 204.2903,
      "duration": 0.5617,
      "velocity": 126,
      "chip": "ym2612"
    },
    {
      "channel": 3,
      "note": 42,
      "start": 204.2915,
      "duration": 0.5622,
      "velocity": 108,
      "chip": "ym2612"
    },
    {
      "channel": 4,
      "note": 37,
      "start": 204.2922,
      "duration": 0.0815,
      "velocity": 108,
      "chip": "ym2612"
    },
    {
      "channel": 5,
      "note": 37,
      "start": 204.3745,
      "duration": 0.0826,
      "velocity": 108,
      "chip": "ym2612"
    },
    {
      "channel": 0,
      "note": 19,
      "start": 204.438,
      "duration": 0.132,
      "velocity": 124,
      "chip": "ym2612"
    },
    {
      "channel": 2,
      "note": 34,
      "start": 204.4397,
      "duration": 0.1312,
      "velocity": 64,
      "chip": "ym2612"
    },
    {
      "channel": 4,
      "note": 35,
      "start": 204.441,
      "duration": 0.0816,
      "velocity": 108,
      "chip": "ym2612"
    },
    {
      "channel": 5,
      "note": 35,
      "start": 204.5068,
      "duration": 0.0826,
      "velocity": 108,
      "chip": "ym2612"
    },
    {
      "channel": 0,
      "note": 31,
      "start": 204.5704,
      "duration": 0.1485,
      "velocity": 124,
      "chip": "ym2612"
    },
    {
      "channel": 2,
      "note": 59,
      "start": 204.5721,
      "duration": 0.0984,
      "velocity": 123,
      "chip": "ym2612"
    },
    {
      "channel": 4,
      "note": 38,
      "start": 204.5734,
      "duration": 0.0817,
      "velocity": 108,
      "chip": "ym2612"
    },
    {
      "channel": 5,
      "note": 38,
      "start": 204.6558,
      "duration": 0.0826,
      "velocity": 108,
      "chip": "ym2612"
    },
    {
      "channel": 0,
      "note": 21,
      "start": 204.7194,
      "duration": 0.132,
      "velocity": 124,
      "chip": "ym2612"
    },
    {
      "channel": 4,
      "note": 47,
      "start": 204.7215,
      "duration": 0.0825,
      "velocity": 108,
      "chip": "ym2612"
    },
    {
      "channel": 5,
      "note": 47,
      "start": 204.7881,
      "duration": 0.0826,
      "velocity": 108,
      "chip": "ym2612"
    },
    {
      "channel": 0,
      "note": 23,
      "start": 204.8518,
      "duration": 0.1485,
      "velocity": 124,
      "chip": "ym2612"
    },
    {
      "channel": 1,
      "note": 38,
      "start": 204.853,
      "duration": 0.2803,
      "velocity": 120,
      "chip": "ym2612"
    },
    {
      "channel": 3,
      "note": 42,
      "start": 204.8542,
      "duration": 2.2513,
      "velocity": 108,
      "chip": "ym2612"
    },
    {
      "channel": 4,
      "note": 37,
      "start": 204.8549,
      "duration": 0.0815,
      "velocity": 108,
      "chip": "ym2612"
    },
    {
      "channel": 5,
      "note": 37,
      "start": 204.9372,
      "duration": 0.0826,
      "velocity": 108,
      "chip": "ym2612"
    },
    {
      "channel": 0,
      "note": 35,
      "start": 205.0008,
      "duration": 0.132,
      "velocity": 124,
      "chip": "ym2612"
    },
    {
      "channel": 2,
      "note": 59,
      "start": 205.0019,
      "duration": 0.0824,
      "velocity": 123,
      "chip": "ym2612"
    },
    {
      "channel": 4,
      "note": 35,
      "start": 205.0032,
      "duration": 0.0822,
      "velocity": 108,
      "chip": "ym2612"
    },
    {
      "channel": 5,
      "note": 35,
      "start": 205.0696,
      "duration": 0.0826,
      "velocity": 108,
      "chip": "ym2612"
    },
    {
      "channel": 0,
      "note": 23,
      "start": 205.1332,
      "duration": 0.1485,
      "velocity": 124,
      "chip": "ym2612"
    },
    {
      "channel": 1,
      "note": 62,
      "start": 205.1344,
      "duration": 0.1483,
      "velocity": 125,
      "chip": "ym2612"
    },
    {
      "channel": 4,
      "note": 38,
      "start": 205.1361,
      "duration": 0.0817,
      "velocity": 108,
      "chip": "ym2612"
    },
    {
      "channel": 5,
      "note": 38,
      "start": 205.2185,
      "duration": 0.0826,
      "velocity": 108,
      "chip": "ym2612"
    },
    {
      "channel": 0,
      "note": 23,
      "start": 205.2822,
      "duration": 0.132,
      "velocity": 124,
      "chip": "ym2612"
    },
    {
      "channel": 2,
      "note": 59,
      "start": 205.2833,
      "duration": 0.0824,
      "velocity": 123,
      "chip": "ym2612"
    },
    {
      "channel": 4,
      "note": 35,
      "start": 205.2845,
      "duration": 0.0823,
      "velocity": 108,
      "chip": "ym2612"
    },
    {
      "channel": 5,
      "note": 35,
      "start": 205.3509,
      "duration": 0.0826,
      "velocity": 108,
      "chip": "ym2612"
    },
    {
      "channel": 0,
      "note": 35,
      "start": 205.4146,
      "duration": 0.1485,
      "velocity": 124,
      "chip": "ym2612"
    },
    {
      "channel": 1,
      "note": 26,
      "start": 205.4158,
      "duration": 0.2803,
      "velocity": 126,
      "chip": "ym2612"
    },
    {
      "channel": 4,
      "note": 35,
      "start": 205.4175,
      "duration": 0.0817,
      "velocity": 108,
      "chip": "ym2612"
    },
    {
      "channel": 5,
      "note": 35,
      "start": 205.5,
      "duration": 0.0826,
      "velocity": 108,
      "chip": "ym2612"
    },
    {
      "channel": 0,
      "note": 23,
      "start": 205.5636,
      "duration": 0.1319,
      "velocity": 124,
      "chip": "ym2612"
    },
    {
      "channel": 4,
      "note": 47,
      "start": 205.5657,
      "duration": 0.0824,
      "velocity": 108,
      "chip": "ym2612"
    },
    {
      "channel": 5,
      "note": 47,
      "start": 205.6324,
      "duration": 0.0826,
      "velocity": 108,
      "chip": "ym2612"
    },
    {
      "channel": 0,
      "note": 23,
      "start": 205.696,
      "duration": 0.1485,
      "velocity": 124,
      "chip": "ym2612"
    },
    {
      "channel": 1,
      "note": 38,
      "start": 205.6972,
      "duration": 0.2803,
      "velocity": 120,
      "chip": "ym2612"
    },
    {
      "channel": 2,
      "note": 59,
      "start": 205.6978,
      "duration": 0.0983,
      "velocity": 123,
      "chip": "ym2612"
    },
    {
      "channel": 4,
      "note": 38,
      "start": 205.6991,
      "duration": 0.0816,
      "velocity": 108,
      "chip": "ym2612"
    },
    {
      "channel": 5,
      "note": 38,
      "start": 205.7813,
      "duration": 0.0826,
      "velocity": 108,
      "chip": "ym2612"
    },
    {
      "channel": 0,
      "note": 35,
      "start": 205.8449,
      "duration": 0.1319,
      "velocity": 124,
      "chip": "ym2612"
    },
    {
      "channel": 4,
      "note": 35,
      "start": 205.8471,
      "duration": 0.0824,
      "velocity": 108,
      "chip": "ym2612"
    },
    {
      "channel": 5,
      "note": 35,
      "start": 205.9137,
      "duration": 0.0826,
      "velocity": 108,
      "chip": "ym2612"
    },
    {
      "channel": 0,
      "note": 23,
      "start": 205.9774,
      "duration": 0.1485,
      "velocity": 124,
      "chip": "ym2612"
    },
    {
      "channel": 1,
      "note": 38,
      "start": 205.978,
      "duration": 0.2809,
      "velocity": 120,
      "chip": "ym2612"
    },
    {
      "channel": 2,
      "note": 34,
      "start": 205.9792,
      "duration": 0.1477,
      "velocity": 64,
      "chip": "ym2612"
    },
    {
      "channel": 4,
      "note": 40,
      "start": 205.9805,
      "duration": 0.0815,
      "velocity": 108,
      "chip": "ym2612"
    },
    {
      "channel": 5,
      "note": 40,
      "start": 206.0628,
      "duration": 0.0826,
      "velocity": 108,
      "chip": "ym2612"
    },
    {
      "channel": 0,
      "note": 35,
      "start": 206.1264,
      "duration": 0.1319,
      "velocity": 124,
      "chip": "ym2612"
    },
    {
      "channel": 2,
      "note": 59,
      "start": 206.128,
      "duration": 0.0819,
      "velocity": 123,
      "chip": "ym2612"
    },
    {
      "channel": 4,
      "note": 35,
      "start": 206.1293,
      "duration": 0.0817,
      "velocity": 108,
      "chip": "ym2612"
    },
    {
      "channel": 5,
      "note": 35,
      "start": 206.1951,
      "duration": 0.0826,
      "velocity": 108,
      "chip": "ym2612"
    },
    {
      "channel": 0,
      "note": 23,
      "start": 206.2588,
      "duration": 0.1485,
      "velocity": 124,
      "chip": "ym2612"
    },
    {
      "channel": 1,
      "note": 62,
      "start": 206.26,
      "duration": 0.1483,
      "velocity": 125,
      "chip": "ym2612"
    },
    {
      "channel": 4,
      "note": 38,
      "start": 206.2617,
      "duration": 0.0817,
      "velocity": 108,
      "chip": "ym2612"
    },
    {
      "channel": 5,
      "note": 38,
      "start": 206.3441,
      "duration": 0.0826,
      "velocity": 108,
      "chip": "ym2612"
    },
    {
      "channel": 0,
      "note": 23,
      "start": 206.4077,
      "duration": 0.132,
      "velocity": 124,
      "chip": "ym2612"
    },
    {
      "channel": 4,
      "note": 35,
      "start": 206.41,
      "duration": 0.0824,
      "velocity": 108,
      "chip": "ym2612"
    },
    {
      "channel": 5,
      "note": 35,
      "start": 206.4766,
      "duration": 0.0827,
      "velocity": 108,
      "chip": "ym2612"
    },
    {
      "channel": 0,
      "note": 35,
      "start": 206.5402,
      "duration": 0.1484,
      "velocity": 124,
      "chip": "ym2612"
    },
    {
      "channel": 1,
      "note": 26,
      "start": 206.5415,
      "duration": 0.2802,
      "velocity": 126,
      "chip": "ym2612"
    },
    {
      "channel": 4,
      "note": 37,
      "start": 206.5432,
      "duration": 0.0817,
      "velocity": 108,
      "chip": "ym2612"
    },
    {
      "channel": 5,
      "note": 37,
      "start": 206.6256,
      "duration": 0.0826,
      "velocity": 108,
      "chip": "ym2612"
    },
    {
      "channel": 0,
      "note": 23,
      "start": 206.6892,
      "duration": 0.1319,
      "velocity": 124,
      "chip": "ym2612"
    },
    {
      "channel": 4,
      "note": 35,
      "start": 206.6914,
      "duration": 0.0824,
      "velocity": 108,
      "chip": "ym2612"
    },
    {
      "channel": 5,
      "note": 35,
      "start": 206.7579,
      "duration": 0.0827,
      "velocity": 108,
      "chip": "ym2612"
    },
    {
      "channel": 0,
      "note": 35,
      "start": 206.8215,
      "duration": 0.1485,
      "velocity": 124,
      "chip": "ym2612"
    },
    {
      "channel": 1,
      "note": 62,
      "start": 206.8227,
      "duration": 0.1483,
      "velocity": 125,
      "chip": "ym2612"
    },
    {
      "channel": 2,
      "note": 22,
      "start": 206.824,
      "duration": 0.0976,
      "velocity": 64,
      "chip": "ym2612"
    },
    {
      "channel": 4,
      "note": 38,
      "start": 206.8253,
      "duration": 0.0809,
      "velocity": 108,
      "chip": "ym2612"
    },
    {
      "channel": 5,
      "note": 38,
      "start": 206.907,
      "duration": 0.0826,
      "velocity": 108,
      "chip": "ym2612"
    },
    {
      "channel": 0,
      "note": 23,
      "start": 206.9705,
      "duration": 0.1319,
      "velocity": 124,
      "chip": "ym2612"
    },
    {
      "channel": 2,
      "note": 34,
      "start": 206.9717,
      "duration": 0.0824,
      "velocity": 64,
      "chip": "ym2612"
    },
    {
      "channel": 4,
      "note": 47,
      "start": 206.9729,
      "duration": 0.0823,
      "velocity": 108,
      "chip": "ym2612"
    },
    {
      "channel": 5,
      "note": 47,
      "start": 207.0393,
      "duration": 0.0681,
      "velocity": 108,
      "chip": "ym2612"
    },
    {
      "channel": 0,
      "note": 23,
      "start": 207.103,
      "duration": 0.1485,
      "velocity": 124,
      "chip": "ym2612"
    },
    {
      "channel": 1,
      "note": 38,
      "start": 207.1042,
      "duration": 0.2803,
      "velocity": 120,
      "chip": "ym2612"
    },
    {
      "channel": 2,
      "note": 71,
      "start": 207.1054,
      "duration": 0.1472,
      "velocity": 122,
      "chip": "ym2612"
    },
    {
      "channel": 3,
      "note": 37,
      "start": 207.1067,
      "duration": 0.0803,
      "velocity": 108,
      "chip": "ym2612"
    },
    {
      "channel": 5,
      "note": 7,
      "start": 207.1085,
      "duration": 2.2487,
      "velocity": 1,
      "chip": "ym2612"
    },
    {
      "channel": 4,
      "note": 37,
      "start": 207.1878,
      "duration": 0.0826,
      "velocity": 108,
      "chip": "ym2612"
    },
    {
      "channel": 0,
      "note": 35,
      "start": 207.252,
      "duration": 0.1319,
      "velocity": 124,
      "chip": "ym2612"
    },
    {
      "channel": 2,
      "note": 71,
      "start": 207.253,
      "duration": 0.0824,
      "velocity": 122,
      "chip": "ym2612"
    },
    {
      "channel": 3,
      "note": 35,
      "start": 207.2537,
      "duration": 0.0823,
      "velocity": 108,
      "chip": "ym2612"
    },
    {
      "channel": 4,
      "note": 35,
      "start": 207.3201,
      "duration": 0.0827,
      "velocity": 108,
      "chip": "ym2612"
    },
    {
      "channel": 0,
      "note": 23,
      "start": 207.3843,
      "duration": 0.1485,
      "velocity": 124,
      "chip": "ym2612"
    },
    {
      "channel": 1,
      "note": 62,
      "start": 207.3855,
      "duration": 0.1483,
      "velocity": 125,
      "chip": "ym2612"
    },
    {
      "channel": 2,
      "note": 66,
      "start": 207.3862,
      "duration": 0.1478,
      "velocity": 122,
      "chip": "ym2612"
    },
    {
      "channel": 3,
      "note": 38,
      "start": 207.3869,
      "duration": 0.0815,
      "velocity": 108,
      "chip": "ym2612"
    },
    {
      "channel": 4,
      "note": 38,
      "start": 207.4692,
      "duration": 0.0826,
      "velocity": 108,
      "chip": "ym2612"
    },
    {
      "channel": 0,
      "note": 23,
      "start": 207.5333,
      "duration": 0.1319,
      "velocity": 124,
      "chip": "ym2612"
    },
    {
      "channel": 2,
      "note": 59,
      "start": 207.5344,
      "duration": 0.0824,
      "velocity": 123,
      "chip": "ym2612"
    },
    {
      "channel": 3,
      "note": 35,
      "start": 207.5351,
      "duration": 0.0822,
      "velocity": 108,
      "chip": "ym2612"
    },
    {
      "channel": 4,
      "note": 35,
      "start": 207.6016,
      "duration": 0.0826,
      "velocity": 108,
      "chip": "ym2612"
    },
    {
      "channel": 0,
      "note": 35,
      "start": 207.6657,
      "duration": 0.1485,
      "velocity": 124,
      "chip": "ym2612"
    },
    {
      "channel": 1,
      "note": 26,
      "start": 207.667,
      "duration": 0.2803,
      "velocity": 126,
      "chip": "ym2612"
    },
    {
      "channel": 2,
      "note": 23,
      "start": 207.6676,
      "duration": 0.0982,
      "velocity": 123,
      "chip": "ym2612"
    },
    {
      "channel": 3,
      "note": 35,
      "start": 207.6683,
      "duration": 0.0815,
      "velocity": 108,
      "chip": "ym2612"
    },
    {
      "channel": 4,
      "note": 35,
      "start": 207.7505,
      "duration": 0.0826,
      "velocity": 108,
      "chip": "ym2612"
    },
    {
      "channel": 0,
      "note": 23,
      "start": 207.8147,
      "duration": 0.1319,
      "velocity": 124,
      "chip": "ym2612"
    },
    {
      "channel": 2,
      "note": 35,
      "start": 207.8158,
      "duration": 0.0824,
      "velocity": 123,
      "chip": "ym2612"
    },
    {
      "channel": 3,
      "note": 47,
      "start": 207.8165,
      "duration": 0.0823,
      "velocity": 108,
      "chip": "ym2612"
    },
    {
      "channel": 4,
      "note": 47,
      "start": 207.883,
      "duration": 0.0826,
      "velocity": 108,
      "chip": "ym2612"
    },
    {
      "channel": 0,
      "note": 23,
      "start": 207.9471,
      "duration": 0.1485,
      "velocity": 124,
      "chip": "ym2612"
    },
    {
      "channel": 1,
      "note": 38,
      "start": 207.9483,
      "duration": 0.2803,
      "velocity": 120,
      "chip": "ym2612"
    },
    {
      "channel": 2,
      "note": 59,
      "start": 207.949,
      "duration": 0.0983,
      "velocity": 123,
      "chip": "ym2612"
    },
    {
      "channel": 3,
      "note": 38,
      "start": 207.9497,
      "duration": 0.0815,
      "velocity": 108,
      "chip": "ym2612"
    },
    {
      "channel": 4,
      "note": 38,
      "start": 208.032,
      "duration": 0.0826,
      "velocity": 108,
      "chip": "ym2612"
    },
    {
      "channel": 0,
      "note": 35,
      "start": 208.0961,
      "duration": 0.1319,
      "velocity": 124,
      "chip": "ym2612"
    },
    {
      "channel": 3,
      "note": 35,
      "start": 208.0978,
      "duration": 0.0824,
      "velocity": 108,
      "chip": "ym2612"
    },
    {
      "channel": 4,
      "note": 35,
      "start": 208.1644,
      "duration": 0.0826,
      "velocity": 108,
      "chip": "ym2612"
    },
    {
      "channel": 0,
      "note": 23,
      "start": 208.2285,
      "duration": 0.1485,
      "velocity": 124,
      "chip": "ym2612"
    },
    {
      "channel": 1,
      "note": 38,
      "start": 208.2292,
      "duration": 0.2809,
      "velocity": 120,
      "chip": "ym2612"
    },
    {
      "channel": 2,
      "note": 34,
      "start": 208.2304,
      "duration": 0.1477,
      "velocity": 64,
      "chip": "ym2612"
    },
    {
      "channel": 3,
      "note": 40,
      "start": 208.2311,
      "duration": 0.0815,
      "velocity": 108,
      "chip": "ym2612"
    },
    {
      "channel": 4,
      "note": 40,
      "start": 208.3133,
      "duration": 0.0826,
      "velocity": 108,
      "chip": "ym2612"
    },
    {
      "channel": 0,
      "note": 35,
      "start": 208.3775,
      "duration": 0.132,
      "velocity": 124,
      "chip": "ym2612"
    },
    {
      "channel": 2,
      "note": 59,
      "start": 208.3792,
      "duration": 0.0819,
      "velocity": 123,
      "chip": "ym2612"
    },
    {
      "channel": 3,
      "note": 35,
      "start": 208.3799,
      "duration": 0.0817,
      "velocity": 108,
      "chip": "ym2612"
    },
    {
      "channel": 4,
      "note": 35,
      "start": 208.4457,
      "duration": 0.0827,
      "velocity": 108,
      "chip": "ym2612"
    },
    {
      "channel": 0,
      "note": 23,
      "start": 208.5099,
      "duration": 0.1485,
      "velocity": 124,
      "chip": "ym2612"
    },
    {
      "channel": 1,
      "note": 62,
      "start": 208.5111,
      "duration": 0.1483,
      "velocity": 125,
      "chip": "ym2612"
    },
    {
      "channel": 3,
      "note": 38,
      "start": 208.5122,
      "duration": 0.0817,
      "velocity": 108,
      "chip": "ym2612"
    },
    {
      "channel": 4,
      "note": 38,
      "start": 208.5948,
      "duration": 0.0826,
      "velocity": 108,
      "chip": "ym2612"
    },
    {
      "channel": 0,
      "note": 23,
      "start": 208.6589,
      "duration": 0.1319,
      "velocity": 124,
      "chip": "ym2612"
    },
    {
      "channel": 2,
      "note": 59,
      "start": 208.66,
      "duration": 0.0824,
      "velocity": 123,
      "chip": "ym2612"
    },
    {
      "channel": 3,
      "note": 35,
      "start": 208.6607,
      "duration": 0.0822,
      "velocity": 108,
      "chip": "ym2612"
    },
    {
      "channel": 4,
      "note": 35,
      "start": 208.7271,
      "duration": 0.0826,
      "velocity": 108,
      "chip": "ym2612"
    },
    {
      "channel": 0,
      "note": 35,
      "start": 208.7913,
      "duration": 0.1485,
      "velocity": 124,
      "chip": "ym2612"
    },
    {
      "channel": 1,
      "note": 26,
      "start": 208.7925,
      "duration": 0.5617,
      "velocity": 126,
      "chip": "ym2612"
    },
    {
      "channel": 3,
      "note": 37,
      "start": 208.7937,
      "duration": 0.0817,
      "velocity": 108,
      "chip": "ym2612"
    },
    {
      "channel": 4,
      "note": 37,
      "start": 208.8761,
      "duration": 0.0827,
      "velocity": 108,
      "chip": "ym2612"
    },
    {
      "channel": 0,
      "note": 23,
      "start": 208.9403,
      "duration": 0.132,
      "velocity": 124,
      "chip": "ym2612"
    },
    {
      "channel": 2,
      "note": 34,
      "start": 208.942,
      "duration": 0.1313,
      "velocity": 64,
      "chip": "ym2612"
    },
    {
      "channel": 3,
      "note": 35,
      "start": 208.9427,
      "duration": 0.0817,
      "velocity": 108,
      "chip": "ym2612"
    },
    {
      "channel": 4,
      "note": 35,
      "start": 209.0085,
      "duration": 0.0827,
      "velocity": 108,
      "chip": "ym2612"
    },
    {
      "channel": 0,
      "note": 23,
      "start": 209.0727,
      "duration": 0.1485,
      "velocity": 124,
      "chip": "ym2612"
    },
    {
      "channel": 2,
      "note": 59,
      "start": 209.0744,
      "duration": 0.0984,
      "velocity": 123,
      "chip": "ym2612"
    },
    {
      "channel": 3,
      "note": 38,
      "start": 209.0751,
      "duration": 0.0817,
      "velocity": 108,
      "chip": "ym2612"
    },
    {
      "channel": 4,
      "note": 38,
      "start": 209.1576,
      "duration": 0.0826,
      "velocity": 108,
      "chip": "ym2612"
    },
    {
      "channel": 0,
      "note": 35,
      "start": 209.2217,
      "duration": 0.132,
      "velocity": 124,
      "chip": "ym2612"
    },
    {
      "channel": 3,
      "note": 47,
      "start": 209.2233,
      "duration": 0.0824,
      "velocity": 108,
      "chip": "ym2612"
    },
    {
      "channel": 4,
      "note": 47,
      "start": 209.2899,
      "duration": 0.0826,
      "velocity": 108,
      "chip": "ym2612"
    },
    {
      "channel": 0,
      "note": 23,
      "start": 209.3541,
      "duration": 0.1485,
      "velocity": 124,
      "chip": "ym2612"
    },
    {
      "channel": 1,
      "note": 38,
      "start": 209.3553,
      "duration": 0.2803,
      "velocity": 120,
      "chip": "ym2612"
    },
    {
      "channel": 3,
      "note": 37,
      "start": 209.3565,
      "duration": 0.0816,
      "velocity": 108,
      "chip": "ym2612"
    },
    {
      "channel": 5,
      "note": 7,
      "start": 209.3578,
      "duration": 2.2514,
      "velocity": 1,
      "chip": "ym2612"
    },
    {
      "channel": 4,
      "note": 37,
      "start": 209.4389,
      "duration": 0.0826,
      "velocity": 108,
      "chip": "ym2612"
    },
    {
      "channel": 0,
      "note": 35,
      "start": 209.503,
      "duration": 0.132,
      "velocity": 124,
      "chip": "ym2612"
    },
    {
      "channel": 2,
      "note": 59,
      "start": 209.5042,
      "duration": 0.0824,
      "velocity": 123,
      "chip": "ym2612"
    },
    {
      "channel": 3,
      "note": 35,
      "start": 209.5049,
      "duration": 0.0823,
      "velocity": 108,
      "chip": "ym2612"
    },
    {
      "channel": 4,
      "note": 35,
      "start": 209.5713,
      "duration": 0.0826,
      "velocity": 108,
      "chip": "ym2612"
    },
    {
      "channel": 0,
      "note": 23,
      "start": 209.6355,
      "duration": 0.1485,
      "velocity": 124,
      "chip": "ym2612"
    },
    {
      "channel": 1,
      "note": 62,
      "start": 209.6367,
      "duration": 0.1483,
      "velocity": 125,
      "chip": "ym2612"
    },
    {
      "channel": 3,
      "note": 38,
      "start": 209.6378,
      "duration": 0.0817,
      "velocity": 108,
      "chip": "ym2612"
    },
    {
      "channel": 4,
      "note": 38,
      "start": 209.7203,
      "duration": 0.0826,
      "velocity": 108,
      "chip": "ym2612"
    },
    {
      "channel": 0,
      "note": 23,
      "start": 209.7844,
      "duration": 0.132,
      "velocity": 124,
      "chip": "ym2612"
    },
    {
      "channel": 2,
      "note": 59,
      "start": 209.7856,
      "duration": 0.0824,
      "velocity": 123,
      "chip": "ym2612"
    },
    {
      "channel": 3,
      "note": 35,
      "start": 209.7863,
      "duration": 0.0822,
      "velocity": 108,
      "chip": "ym2612"
    },
    {
      "channel": 4,
      "note": 35,
      "start": 209.8527,
      "duration": 0.0827,
      "velocity": 108,
      "chip": "ym2612"
    },
    {
      "channel": 0,
      "note": 35,
      "start": 209.9169,
      "duration": 0.1485,
      "velocity": 124,
      "chip": "ym2612"
    },
    {
      "channel": 1,
      "note": 26,
      "start": 209.9181,
      "duration": 0.2803,
      "velocity": 126,
      "chip": "ym2612"
    },
    {
      "channel": 3,
      "note": 35,
      "start": 209.9193,
      "duration": 0.0817,
      "velocity": 108,
      "chip": "ym2612"
    },
    {
      "channel": 4,
      "note": 35,
      "start": 210.0017,
      "duration": 0.0826,
      "velocity": 108,
      "chip": "ym2612"
    },
    {
      "channel": 0,
      "note": 23,
      "start": 210.0658,
      "duration": 0.132,
      "velocity": 124,
      "chip": "ym2612"
    },
    {
      "channel": 3,
      "note": 47,
      "start": 210.0675,
      "duration": 0.0824,
      "velocity": 108,
      "chip": "ym2612"
    },
    {
      "channel": 4,
      "note": 47,
      "start": 210.1341,
      "duration": 0.0827,
      "velocity": 108,
      "chip": "ym2612"
    },
    {
      "channel": 0,
      "note": 23,
      "start": 210.1983,
      "duration": 0.1485,
      "velocity": 124,
      "chip": "ym2612"
    },
    {
      "channel": 1,
      "note": 38,
      "start": 210.1995,
      "duration": 0.2803,
      "velocity": 120,
      "chip": "ym2612"
    },
    {
      "channel": 2,
      "note": 59,
      "start": 210.2001,
      "duration": 0.0982,
      "velocity": 123,
      "chip": "ym2612"
    },
    {
      "channel": 3,
      "note": 38,
      "start": 210.2008,
      "duration": 0.0816,
      "velocity": 108,
      "chip": "ym2612"
    },
    {
      "channel": 4,
      "note": 38,
      "start": 210.2831,
      "duration": 0.0826,
      "velocity": 108,
      "chip": "ym2612"
    },
    {
      "channel": 0,
      "note": 35,
      "start": 210.3472,
      "duration": 0.1319,
      "velocity": 124,
      "chip": "ym2612"
    },
    {
      "channel": 3,
      "note": 35,
      "start": 210.3489,
      "duration": 0.0824,
      "velocity": 108,
      "chip": "ym2612"
    },
    {
      "channel": 4,
      "note": 35,
      "start": 210.4155,
      "duration": 0.0826,
      "velocity": 108,
      "chip": "ym2612"
    },
    {
      "channel": 0,
      "note": 23,
      "start": 210.4797,
      "duration": 0.1485,
      "velocity": 124,
      "chip": "ym2612"
    },
    {
      "channel": 1,
      "note": 38,
      "start": 210.4803,
      "duration": 0.2809,
      "velocity": 120,
      "chip": "ym2612"
    },
    {
      "channel": 2,
      "note": 34,
      "start": 210.4815,
      "duration": 0.1477,
      "velocity": 64,
      "chip": "ym2612"
    },
    {
      "channel": 3,
      "note": 40,
      "start": 210.4822,
      "duration": 0.0816,
      "velocity": 108,
      "chip": "ym2612"
    },
    {
      "channel": 4,
      "note": 40,
      "start": 210.5645,
      "duration": 0.0826,
      "velocity": 108,
      "chip": "ym2612"
    },
    {
      "channel": 0,
      "note": 35,
      "start": 210.6286,
      "duration": 0.132,
      "velocity": 124,
      "chip": "ym2612"
    },
    {
      "channel": 2,
      "note": 59,
      "start": 210.6303,
      "duration": 0.0819,
      "velocity": 123,
      "chip": "ym2612"
    },
    {
      "channel": 3,
      "note": 35,
      "start": 210.631,
      "duration": 0.0817,
      "velocity": 108,
      "chip": "ym2612"
    },
    {
      "channel": 4,
      "note": 35,
      "start": 210.6968,
      "duration": 0.0826,
      "velocity": 108,
      "chip": "ym2612"
    },
    {
      "channel": 0,
      "note": 23,
      "start": 210.761,
      "duration": 0.1485,
      "velocity": 124,
      "chip": "ym2612"
    },
    {
      "channel": 1,
      "note": 62,
      "start": 210.7622,
      "duration": 0.1483,
      "velocity": 125,
      "chip": "ym2612"
    },
    {
      "channel": 3,
      "note": 38,
      "start": 210.7634,
      "duration": 0.0817,
      "velocity": 108,
      "chip": "ym2612"
    },
    {
      "channel": 4,
      "note": 38,
      "start": 210.8458,
      "duration": 0.0827,
      "velocity": 108,
      "chip": "ym2612"
    },
    {
      "channel": 0,
      "note": 23,
      "start": 210.91,
      "duration": 0.1319,
      "velocity": 124,
      "chip": "ym2612"
    },
    {
      "channel": 3,
      "note": 35,
      "start": 210.9117,
      "duration": 0.0824,
      "velocity": 108,
      "chip": "ym2612"
    },
    {
      "channel": 4,
      "note": 35,
      "start": 210.9783,
      "duration": 0.0826,
      "velocity": 108,
      "chip": "ym2612"
    },
    {
      "channel": 0,
      "note": 35,
      "start": 211.0425,
      "duration": 0.1485,
      "velocity": 124,
      "chip": "ym2612"
    },
    {
      "channel": 1,
      "note": 26,
      "start": 211.0437,
      "duration": 0.2803,
      "velocity": 126,
      "chip": "ym2612"
    },
    {
      "channel": 3,
      "note": 37,
      "start": 211.0448,
      "duration": 0.0817,
      "velocity": 108,
      "chip": "ym2612"
    },
    {
      "channel": 4,
      "note": 37,
      "start": 211.1273,
      "duration": 0.0826,
      "velocity": 108,
      "chip": "ym2612"
    },
    {
      "channel": 0,
      "note": 23,
      "start": 211.1914,
      "duration": 0.132,
      "velocity": 124,
      "chip": "ym2612"
    },
    {
      "channel": 3,
      "note": 35,
      "start": 211.193,
      "duration": 0.0824,
      "velocity": 108,
      "chip": "ym2612"
    },
    {
      "channel": 4,
      "note": 35,
      "start": 211.2596,
      "duration": 0.0827,
      "velocity": 108,
      "chip": "ym2612"
    },
    {
      "channel": 0,
      "note": 35,
      "start": 211.3239,
      "duration": 0.1484,
      "velocity": 124,
      "chip": "ym2612"
    },
    {
      "channel": 1,
      "note": 62,
      "start": 211.3251,
      "duration": 0.1482,
      "velocity": 125,
      "chip": "ym2612"
    },
    {
      "channel": 2,
      "note": 22,
      "start": 211.3263,
      "duration": 0.0976,
      "velocity": 64,
      "chip": "ym2612"
    },
    {
      "channel": 3,
      "note": 38,
      "start": 211.327,
      "duration": 0.081,
      "velocity": 108,
      "chip": "ym2612"
    },
    {
      "channel": 4,
      "note": 38,
      "start": 211.4088,
      "duration": 0.0826,
      "velocity": 108,
      "chip": "ym2612"
    },
    {
      "channel": 0,
      "note": 23,
      "start": 211.4728,
      "duration": 0.1319,
      "velocity": 124,
      "chip": "ym2612"
    },
    {
      "channel": 2,
      "note": 34,
      "start": 211.474,
      "duration": 0.0824,
      "velocity": 64,
      "chip": "ym2612"
    },
    {
      "channel": 3,
      "note": 47,
      "start": 211.4747,
      "duration": 0.0822,
      "velocity": 108,
      "chip": "ym2612"
    },
    {
      "channel": 4,
      "note": 47,
      "start": 211.5411,
      "duration": 0.0826,
      "velocity": 108,
      "chip": "ym2612"
    },
    {
      "channel": 0,
      "note": 19,
      "start": 211.6052,
      "duration": 0.1485,
      "velocity": 124,
      "chip": "ym2612"
    },
    {
      "channel": 1,
      "note": 38,
      "start": 211.6065,
      "duration": 0.2803,
      "velocity": 120,
      "chip": "ym2612"
    },
    {
      "channel": 2,
      "note": 71,
      "start": 211.6077,
      "duration": 0.1471,
      "velocity": 122,
      "chip": "ym2612"
    },
    {
      "channel": 3,
      "note": 37,
      "start": 211.6084,
      "duration": 0.0808,
      "velocity": 108,
      "chip": "ym2612"
    },
    {
      "channel": 5,
      "note": 7,
      "start": 211.6096,
      "duration": 2.2499,
      "velocity": 1,
      "chip": "ym2612"
    },
    {
      "channel": 4,
      "note": 37,
      "start": 211.69,
      "duration": 0.0826,
      "velocity": 108,
      "chip": "ym2612"
    },
    {
      "channel": 0,
      "note": 31,
      "start": 211.7542,
      "duration": 0.132,
      "velocity": 124,
      "chip": "ym2612"
    },
    {
      "channel": 2,
      "note": 71,
      "start": 211.7553,
      "duration": 0.0825,
      "velocity": 122,
      "chip": "ym2612"
    },
    {
      "channel": 3,
      "note": 35,
      "start": 211.7559,
      "duration": 0.0824,
      "velocity": 108,
      "chip": "ym2612"
    },
    {
      "channel": 4,
      "note": 35,
      "start": 211.8224,
      "duration": 0.0826,
      "velocity": 108,
      "chip": "ym2612"
    },
    {
      "channel": 0,
      "note": 19,
      "start": 211.8866,
      "duration": 0.1485,
      "velocity": 124,
      "chip": "ym2612"
    },
    {
      "channel": 1,
      "note": 62,
      "start": 211.8878,
      "duration": 0.1483,
      "velocity": 125,
      "chip": "ym2612"
    },
    {
      "channel": 2,
      "note": 66,
      "start": 211.8885,
      "duration": 0.1478,
      "velocity": 122,
      "chip": "ym2612"
    },
    {
      "channel": 3,
      "note": 38,
      "start": 211.8892,
      "duration": 0.0815,
      "velocity": 108,
      "chip": "ym2612"
    },
    {
      "channel": 4,
      "note": 38,
      "start": 211.9714,
      "duration": 0.0826,
      "velocity": 108,
      "chip": "ym2612"
    },
    {
      "channel": 0,
      "note": 19,
      "start": 212.0356,
      "duration": 0.1319,
      "velocity": 124,
      "chip": "ym2612"
    },
    {
      "channel": 2,
      "note": 59,
      "start": 212.0367,
      "duration": 0.0824,
      "velocity": 123,
      "chip": "ym2612"
    },
    {
      "channel": 3,
      "note": 35,
      "start": 212.0374,
      "duration": 0.0822,
      "velocity": 108,
      "chip": "ym2612"
    },
    {
      "channel": 4,
      "note": 35,
      "start": 212.1039,
      "duration": 0.0826,
      "velocity": 108,
      "chip": "ym2612"
    },
    {
      "channel": 0,
      "note": 31,
      "start": 212.168,
      "duration": 0.1485,
      "velocity": 124,
      "chip": "ym2612"
    },
    {
      "channel": 1,
      "note": 26,
      "start": 212.1693,
      "duration": 0.2803,
      "velocity": 126,
      "chip": "ym2612"
    },
    {
      "channel": 2,
      "note": 23,
      "start": 212.1699,
      "duration": 0.0982,
      "velocity": 123,
      "chip": "ym2612"
    },
    {
      "channel": 3,
      "note": 35,
      "start": 212.1706,
      "duration": 0.0815,
      "velocity": 108,
      "chip": "ym2612"
    },
    {
      "channel": 4,
      "note": 35,
      "start": 212.2528,
      "duration": 0.0826,
      "velocity": 108,
      "chip": "ym2612"
    },
    {
      "channel": 0,
      "note": 19,
      "start": 212.317,
      "duration": 0.132,
      "velocity": 124,
      "chip": "ym2612"
    },
    {
      "channel": 2,
      "note": 35,
      "start": 212.3181,
      "duration": 0.0824,
      "velocity": 123,
      "chip": "ym2612"
    },
    {
      "channel": 3,
      "note": 47,
      "start": 212.3188,
      "duration": 0.0823,
      "velocity": 108,
      "chip": "ym2612"
    },
    {
      "channel": 4,
      "note": 47,
      "start": 212.3852,
      "duration": 0.0826,
      "velocity": 108,
      "chip": "ym2612"
    },
    {
      "channel": 0,
      "note": 19,
      "start": 212.4494,
      "duration": 0.1485,
      "velocity": 124,
      "chip": "ym2612"
    },
    {
      "channel": 1,
      "note": 38,
      "start": 212.4506,
      "duration": 0.2803,
      "velocity": 120,
      "chip": "ym2612"
    },
    {
      "channel": 2,
      "note": 59,
      "start": 212.4512,
      "duration": 0.0982,
      "velocity": 123,
      "chip": "ym2612"
    },
    {
      "channel": 3,
      "note": 38,
      "start": 212.452,
      "duration": 0.0815,
      "velocity": 108,
      "chip": "ym2612"
    },
    {
      "channel": 4,
      "note": 38,
      "start": 212.5343,
      "duration": 0.0826,
      "velocity": 108,
      "chip": "ym2612"
    },
    {
      "channel": 0,
      "note": 31,
      "start": 212.5984,
      "duration": 0.1319,
      "velocity": 124,
      "chip": "ym2612"
    },
    {
      "channel": 3,
      "note": 35,
      "start": 212.6,
      "duration": 0.0824,
      "velocity": 108,
      "chip": "ym2612"
    },
    {
      "channel": 4,
      "note": 35,
      "start": 212.6666,
      "duration": 0.0826,
      "velocity": 108,
      "chip": "ym2612"
    },
    {
      "channel": 0,
      "note": 19,
      "start": 212.7308,
      "duration": 0.1485,
      "velocity": 124,
      "chip": "ym2612"
    },
    {
      "channel": 1,
      "note": 38,
      "start": 212.7315,
      "duration": 0.2809,
      "velocity": 120,
      "chip": "ym2612"
    },
    {
      "channel": 2,
      "note": 34,
      "start": 212.7327,
      "duration": 0.1477,
      "velocity": 64,
      "chip": "ym2612"
    },
    {
      "channel": 3,
      "note": 40,
      "start": 212.7334,
      "duration": 0.0815,
      "velocity": 108,
      "chip": "ym2612"
    },
    {
      "channel": 4,
      "note": 40,
      "start": 212.8156,
      "duration": 0.0826,
      "velocity": 108,
      "chip": "ym2612"
    },
    {
      "channel": 0,
      "note": 31,
      "start": 212.8798,
      "duration": 0.1319,
      "velocity": 124,
      "chip": "ym2612"
    },
    {
      "channel": 2,
      "note": 59,
      "start": 212.8815,
      "duration": 0.0818,
      "velocity": 123,
      "chip": "ym2612"
    },
    {
      "channel": 3,
      "note": 35,
      "start": 212.8822,
      "duration": 0.0817,
      "velocity": 108,
      "chip": "ym2612"
    },
    {
      "channel": 4,
      "note": 35,
      "start": 212.948,
      "duration": 0.0826,
      "velocity": 108,
      "chip": "ym2612"
    },
    {
      "channel": 0,
      "note": 19,
      "start": 213.0122,
      "duration": 0.1485,
      "velocity": 124,
      "chip": "ym2612"
    },
    {
      "channel": 1,
      "note": 62,
      "start": 213.0134,
      "duration": 0.1482,
      "velocity": 125,
      "chip": "ym2612"
    },
    {
      "channel": 3,
      "note": 38,
      "start": 213.0145,
      "duration": 0.0817,
      "velocity": 108,
      "chip": "ym2612"
    },
    {
      "channel": 4,
      "note": 38,
      "start": 213.097,
      "duration": 0.0826,
      "velocity": 108,
      "chip": "ym2612"
    },
    {
      "channel": 0,
      "note": 19,
      "start": 213.1612,
      "duration": 0.1319,
      "velocity": 124,
      "chip": "ym2612"
    },
    {
      "channel": 2,
      "note": 59,
      "start": 213.1623,
      "duration": 0.0824,
      "velocity": 123,
      "chip": "ym2612"
    },
    {
      "channel": 3,
      "note": 35,
      "start": 213.163,
      "duration": 0.0822,
      "velocity": 108,
      "chip": "ym2612"
    },
    {
      "channel": 4,
      "note": 35,
      "start": 213.2294,
      "duration": 0.0826,
      "velocity": 108,
      "chip": "ym2612"
    },
    {
      "channel": 0,
      "note": 31,
      "start": 213.2935,
      "duration": 0.1485,
      "velocity": 124,
      "chip": "ym2612"
    },
    {
      "channel": 1,
      "note": 26,
      "start": 213.2948,
      "duration": 0.5617,
      "velocity": 126,
      "chip": "ym2612"
    },
    {
      "channel": 3,
      "note": 37,
      "start": 213.296,
      "duration": 0.0817,
      "velocity": 108,
      "chip": "ym2612"
    },
    {
      "channel": 4,
      "note": 37,
      "start": 213.3784,
      "duration": 0.0826,
      "velocity": 108,
      "chip": "ym2612"
    },
    {
      "channel": 0,
      "note": 19,
      "start": 213.4425,
      "duration": 0.132,
      "velocity": 124,
      "chip": "ym2612"
    },
    {
      "channel": 2,
      "note": 34,
      "start": 213.4442,
      "duration": 0.1313,
      "velocity": 64,
      "chip": "ym2612"
    },
    {
      "channel": 3,
      "note": 35,
      "start": 213.4449,
      "duration": 0.0817,
      "velocity": 108,
      "chip": "ym2612"
    },
    {
      "channel": 4,
      "note": 35,
      "start": 213.5108,
      "duration": 0.0826,
      "velocity": 108,
      "chip": "ym2612"
    },
    {
      "channel": 0,
      "note": 31,
      "start": 213.575,
      "duration": 0.1485,
      "velocity": 124,
      "chip": "ym2612"
    },
    {
      "channel": 2,
      "note": 59,
      "start": 213.5767,
      "duration": 0.0984,
      "velocity": 123,
      "chip": "ym2612"
    },
    {
      "channel": 3,
      "note": 38,
      "start": 213.5774,
      "duration": 0.0817,
      "velocity": 108,
      "chip": "ym2612"
    },
    {
      "channel": 4,
      "note": 38,
      "start": 213.6598,
      "duration": 0.0826,
      "velocity": 108,
      "chip": "ym2612"
    },
    {
      "channel": 0,
      "note": 21,
      "start": 213.724,
      "duration": 0.1319,
      "velocity": 124,
      "chip": "ym2612"
    },
    {
      "channel": 3,
      "note": 47,
      "start": 213.7257,
      "duration": 0.0824,
      "velocity": 108,
      "chip": "ym2612"
    },
    {
      "channel": 4,
      "note": 47,
      "start": 213.7922,
      "duration": 0.0826,
      "velocity": 108,
      "chip": "ym2612"
    },
    {
      "channel": 0,
      "note": 23,
      "start": 213.8564,
      "duration": 0.1485,
      "velocity": 124,
      "chip": "ym2612"
    },
    {
      "channel": 1,
      "note": 38,
      "start": 213.8576,
      "duration": 0.2803,
      "velocity": 120,
      "chip": "ym2612"
    },
    {
      "channel": 3,
      "note": 37,
      "start": 213.8588,
      "duration": 0.0817,
      "velocity": 108,
      "chip": "ym2612"
    },
    {
      "channel": 5,
      "note": 7,
      "start": 213.86,
      "duration": 2.2514,
      "velocity": 1,
      "chip": "ym2612"
    },
    {
      "channel": 4,
      "note": 37,
      "start": 213.9412,
      "duration": 0.0826,
      "velocity": 108,
      "chip": "ym2612"
    },
    {
      "channel": 0,
      "note": 35,
      "start": 214.0053,
      "duration": 0.132,
      "velocity": 124,
      "chip": "ym2612"
    },
    {
      "channel": 2,
      "note": 59,
      "start": 214.0065,
      "duration": 0.0824,
      "velocity": 123,
      "chip": "ym2612"
    },
    {
      "channel": 3,
      "note": 35,
      "start": 214.0072,
      "duration": 0.0823,
      "velocity": 108,
      "chip": "ym2612"
    },
    {
      "channel": 4,
      "note": 35,
      "start": 214.0736,
      "duration": 0.0826,
      "velocity": 108,
      "chip": "ym2612"
    },
    {
      "channel": 0,
      "note": 23,
      "start": 214.1378,
      "duration": 0.1485,
      "velocity": 124,
      "chip": "ym2612"
    },
    {
      "channel": 1,
      "note": 62,
      "start": 214.139,
      "duration": 0.1482,
      "velocity": 125,
      "chip": "ym2612"
    },
    {
      "channel": 3,
      "note": 38,
      "start": 214.1402,
      "duration": 0.0817,
      "velocity": 108,
      "chip": "ym2612"
    },
    {
      "channel": 4,
      "note": 38,
      "start": 214.2226,
      "duration": 0.0826,
      "velocity": 108,
      "chip": "ym2612"
    },
    {
      "channel": 0,
      "note": 23,
      "start": 214.2867,
      "duration": 0.132,
      "velocity": 124,
      "chip": "ym2612"
    },
    {
      "channel": 2,
      "note": 59,
      "start": 214.2879,
      "duration": 0.0824,
      "velocity": 123,
      "chip": "ym2612"
    },
    {
      "channel": 3,
      "note": 35,
      "start": 214.2886,
      "duration": 0.0822,
      "velocity": 108,
      "chip": "ym2612"
    },
    {
      "channel": 4,
      "note": 35,
      "start": 214.355,
      "duration": 0.0826,
      "velocity": 108,
      "chip": "ym2612"
    },
    {
      "channel": 0,
      "note": 35,
      "start": 214.4191,
      "duration": 0.1485,
      "velocity": 124,
      "chip": "ym2612"
    },
    {
      "channel": 1,
      "note": 26,
      "start": 214.4204,
      "duration": 0.2803,
      "velocity": 126,
      "chip": "ym2612"
    },
    {
      "channel": 3,
      "note": 35,
      "start": 214.4215,
      "duration": 0.0817,
      "velocity": 108,
      "chip": "ym2612"
    },
    {
      "channel": 4,
      "note": 35,
      "start": 214.504,
      "duration": 0.0826,
      "velocity": 108,
      "chip": "ym2612"
    },
    {
      "channel": 0,
      "note": 23,
      "start": 214.5681,
      "duration": 0.132,
      "velocity": 124,
      "chip": "ym2612"
    },
    {
      "channel": 3,
      "note": 47,
      "start": 214.5698,
      "duration": 0.0824,
      "velocity": 108,
      "chip": "ym2612"
    },
    {
      "channel": 4,
      "note": 47,
      "start": 214.6363,
      "duration": 0.0827,
      "velocity": 108,
      "chip": "ym2612"
    },
    {
      "channel": 0,
      "note": 23,
      "start": 214.7005,
      "duration": 0.1485,
      "velocity": 124,
      "chip": "ym2612"
    },
    {
      "channel": 1,
      "note": 38,
      "start": 214.7017,
      "duration": 0.2803,
      "velocity": 120,
      "chip": "ym2612"
    },
    {
      "channel": 2,
      "note": 59,
      "start": 214.7024,
      "duration": 0.0982,
      "velocity": 123,
      "chip": "ym2612"
    },
    {
      "channel": 3,
      "note": 38,
      "start": 214.7031,
      "duration": 0.0816,
      "velocity": 108,
      "chip": "ym2612"
    },
    {
      "channel": 4,
      "note": 38,
      "start": 214.7854,
      "duration": 0.0826,
      "velocity": 108,
      "chip": "ym2612"
    },
    {
      "channel": 0,
      "note": 35,
      "start": 214.8495,
      "duration": 0.1319,
      "velocity": 124,
      "chip": "ym2612"
    },
    {
      "channel": 3,
      "note": 35,
      "start": 214.8511,
      "duration": 0.0825,
      "velocity": 108,
      "chip": "ym2612"
    },
    {
      "channel": 4,
      "note": 35,
      "start": 214.9177,
      "duration": 0.0827,
      "velocity": 108,
      "chip": "ym2612"
    },
    {
      "channel": 0,
      "note": 23,
      "start": 214.9819,
      "duration": 0.1485,
      "velocity": 124,
      "chip": "ym2612"
    },
    {
      "channel": 1,
      "note": 38,
      "start": 214.9825,
      "duration": 0.2809,
      "velocity": 120,
      "chip": "ym2612"
    },
    {
      "channel": 2,
      "note": 34,
      "start": 214.9837,
      "duration": 0.1477,
      "velocity": 64,
      "chip": "ym2612"
    },
    {
      "channel": 3,
      "note": 40,
      "start": 214.9845,
      "duration": 0.0816,
      "velocity": 108,
      "chip": "ym2612"
    },
    {
      "channel": 4,
      "note": 40,
      "start": 215.0668,
      "duration": 0.0826,
      "velocity": 108,
      "chip": "ym2612"
    },
    {
      "channel": 0,
      "note": 35,
      "start": 215.1309,
      "duration": 0.1319,
      "velocity": 124,
      "chip": "ym2612"
    },
    {
      "channel": 2,
      "note": 59,
      "start": 215.1326,
      "duration": 0.0818,
      "velocity": 123,
      "chip": "ym2612"
    },
    {
      "channel": 3,
      "note": 35,
      "start": 215.1333,
      "duration": 0.0817,
      "velocity": 108,
      "chip": "ym2612"
    },
    {
      "channel": 4,
      "note": 35,
      "start": 215.1991,
      "duration": 0.0826,
      "velocity": 108,
      "chip": "ym2612"
    },
    {
      "channel": 0,
      "note": 23,
      "start": 215.2633,
      "duration": 0.1485,
      "velocity": 124,
      "chip": "ym2612"
    },
    {
      "channel": 1,
      "note": 62,
      "start": 215.2645,
      "duration": 0.1482,
      "velocity": 125,
      "chip": "ym2612"
    },
    {
      "channel": 3,
      "note": 38,
      "start": 215.2657,
      "duration": 0.0817,
      "velocity": 108,
      "chip": "ym2612"
    },
    {
      "channel": 4,
      "note": 38,
      "start": 215.3481,
      "duration": 0.0827,
      "velocity": 108,
      "chip": "ym2612"
    },
    {
      "channel": 0,
      "note": 23,
      "start": 215.4123,
      "duration": 0.1319,
      "velocity": 124,
      "chip": "ym2612"
    },
    {
      "channel": 3,
      "note": 35,
      "start": 215.414,
      "duration": 0.0824,
      "velocity": 108,
      "chip": "ym2612"
    },
    {
      "channel": 4,
      "note": 35,
      "start": 215.4806,
      "duration": 0.0826,
      "velocity": 108,
      "chip": "ym2612"
    },
    {
      "channel": 0,
      "note": 35,
      "start": 215.5447,
      "duration": 0.1485,
      "velocity": 124,
      "chip": "ym2612"
    },
    {
      "channel": 1,
      "note": 26,
      "start": 215.5459,
      "duration": 0.2803,
      "velocity": 126,
      "chip": "ym2612"
    },
    {
      "channel": 3,
      "note": 37,
      "start": 215.5471,
      "duration": 0.0817,
      "velocity": 108,
      "chip": "ym2612"
    },
    {
      "channel": 4,
      "note": 37,
      "start": 215.6295,
      "duration": 0.0826,
      "velocity": 108,
      "chip": "ym2612"
    },
    {
      "channel": 0,
      "note": 23,
      "start": 215.6937,
      "duration": 0.1319,
      "velocity": 124,
      "chip": "ym2612"
    },
    {
      "channel": 3,
      "note": 35,
      "start": 215.6953,
      "duration": 0.0824,
      "velocity": 108,
      "chip": "ym2612"
    },
    {
      "channel": 4,
      "note": 35,
      "start": 215.7619,
      "duration": 0.0826,
      "velocity": 108,
      "chip": "ym2612"
    },
    {
      "channel": 0,
      "note": 35,
      "start": 215.8261,
      "duration": 0.1485,
      "velocity": 124,
      "chip": "ym2612"
    },
    {
      "channel": 1,
      "note": 62,
      "start": 215.8273,
      "duration": 0.1482,
      "velocity": 125,
      "chip": "ym2612"
    },
    {
      "channel": 2,
      "note": 22,
      "start": 215.8285,
      "duration": 0.0977,
      "velocity": 64,
      "chip": "ym2612"
    },
    {
      "channel": 3,
      "note": 38,
      "start": 215.8292,
      "duration": 0.081,
      "velocity": 108,
      "chip": "ym2612"
    },
    {
      "channel": 4,
      "note": 38,
      "start": 215.9109,
      "duration": 0.0826,
      "velocity": 108,
      "chip": "ym2612"
    },
    {
      "channel": 0,
      "note": 23,
      "start": 215.9751,
      "duration": 0.1319,
      "velocity": 124,
      "chip": "ym2612"
    },
    {
      "channel": 2,
      "note": 34,
      "start": 215.9762,
      "duration": 0.0824,
      "velocity": 64,
      "chip": "ym2612"
    },
    {
      "channel": 3,
      "note": 47,
      "start": 215.9769,
      "duration": 0.0823,
      "velocity": 108,
      "chip": "ym2612"
    },
    {
      "channel": 4,
      "note": 47,
      "start": 216.0434,
      "duration": 0.0826,
      "velocity": 108,
      "chip": "ym2612"
    },
    {
      "channel": 0,
      "note": 23,
      "start": 216.1075,
      "duration": 0.1485,
      "velocity": 124,
      "chip": "ym2612"
    },
    {
      "channel": 1,
      "note": 38,
      "start": 216.1087,
      "duration": 0.2803,
      "velocity": 120,
      "chip": "ym2612"
    },
    {
      "channel": 2,
      "note": 71,
      "start": 216.11,
      "duration": 0.1472,
      "velocity": 122,
      "chip": "ym2612"
    },
    {
      "channel": 3,
      "note": 37,
      "start": 216.1107,
      "duration": 0.081,
      "velocity": 108,
      "chip": "ym2612"
    },
    {
      "channel": 5,
      "note": 7,
      "start": 216.1119,
      "duration": 2.25,
      "velocity": 1,
      "chip": "ym2612"
    },
    {
      "channel": 4,
      "note": 37,
      "start": 216.1923,
      "duration": 0.0826,
      "velocity": 108,
      "chip": "ym2612"
    },
    {
      "channel": 0,
      "note": 35,
      "start": 216.2565,
      "duration": 0.1319,
      "velocity": 124,
      "chip": "ym2612"
    },
    {
      "channel": 2,
      "note": 71,
      "start": 216.2576,
      "duration": 0.0824,
      "velocity": 122,
      "chip": "ym2612"
    },
    {
      "channel": 3,
      "note": 35,
      "start": 216.2583,
      "duration": 0.0823,
      "velocity": 108,
      "chip": "ym2612"
    },
    {
      "channel": 4,
      "note": 35,
      "start": 216.3248,
      "duration": 0.0826,
      "velocity": 108,
      "chip": "ym2612"
    },
    {
      "channel": 0,
      "note": 23,
      "start": 216.3889,
      "duration": 0.1485,
      "velocity": 124,
      "chip": "ym2612"
    },
    {
      "channel": 1,
      "note": 62,
      "start": 216.3901,
      "duration": 0.1482,
      "velocity": 125,
      "chip": "ym2612"
    },
    {
      "channel": 2,
      "note": 66,
      "start": 216.3908,
      "duration": 0.1477,
      "velocity": 122,
      "chip": "ym2612"
    },
    {
      "channel": 3,
      "note": 38,
      "start": 216.3915,
      "duration": 0.0815,
      "velocity": 108,
      "chip": "ym2612"
    },
    {
      "channel": 4,
      "note": 38,
      "start": 216.4738,
      "duration": 0.0826,
      "velocity": 108,
      "chip": "ym2612"
    },
    {
      "channel": 0,
      "note": 23,
      "start": 216.5379,
      "duration": 0.1319,
      "velocity": 124,
      "chip": "ym2612"
    },
    {
      "channel": 2,
      "note": 59,
      "start": 216.539,
      "duration": 0.0824,
      "velocity": 123,
      "chip": "ym2612"
    },
    {
      "channel": 3,
      "note": 35,
      "start": 216.5397,
      "duration": 0.0822,
      "velocity": 108,
      "chip": "ym2612"
    },
    {
      "channel": 4,
      "note": 35,
      "start": 216.6061,
      "duration": 0.0826,
      "velocity": 108,
      "chip": "ym2612"
    },
    {
      "channel": 0,
      "note": 35,
      "start": 216.6703,
      "duration": 0.1485,
      "velocity": 124,
      "chip": "ym2612"
    },
    {
      "channel": 1,
      "note": 26,
      "start": 216.6715,
      "duration": 0.2803,
      "velocity": 126,
      "chip": "ym2612"
    },
    {
      "channel": 2,
      "note": 23,
      "start": 216.6721,
      "duration": 0.0983,
      "velocity": 123,
      "chip": "ym2612"
    },
    {
      "channel": 3,
      "note": 35,
      "start": 216.6729,
      "duration": 0.0815,
      "velocity": 108,
      "chip": "ym2612"
    },
    {
      "channel": 4,
      "note": 35,
      "start": 216.7551,
      "duration": 0.0826,
      "velocity": 108,
      "chip": "ym2612"
    },
    {
      "channel": 0,
      "note": 23,
      "start": 216.8193,
      "duration": 0.1319,
      "velocity": 124,
      "chip": "ym2612"
    },
    {
      "channel": 2,
      "note": 35,
      "start": 216.8203,
      "duration": 0.0825,
      "velocity": 123,
      "chip": "ym2612"
    },
    {
      "channel": 3,
      "note": 47,
      "start": 216.8211,
      "duration": 0.0823,
      "velocity": 108,
      "chip": "ym2612"
    },
    {
      "channel": 4,
      "note": 47,
      "start": 216.8875,
      "duration": 0.0826,
      "velocity": 108,
      "chip": "ym2612"
    },
    {
      "channel": 0,
      "note": 23,
      "start": 216.9517,
      "duration": 0.1485,
      "velocity": 124,
      "chip": "ym2612"
    },
    {
      "channel": 1,
      "note": 38,
      "start": 216.9529,
      "duration": 0.2803,
      "velocity": 120,
      "chip": "ym2612"
    },
    {
      "channel": 2,
      "note": 59,
      "start": 216.9535,
      "duration": 0.0982,
      "velocity": 123,
      "chip": "ym2612"
    },
    {
      "channel": 3,
      "note": 38,
      "start": 216.9542,
      "duration": 0.0815,
      "velocity": 108,
      "chip": "ym2612"
    },
    {
      "channel": 4,
      "note": 38,
      "start": 217.0365,
      "duration": 0.0826,
      "velocity": 108,
      "chip": "ym2612"
    },
    {
      "channel": 0,
      "note": 35,
      "start": 217.1007,
      "duration": 0.1319,
      "velocity": 124,
      "chip": "ym2612"
    },
    {
      "channel": 3,
      "note": 35,
      "start": 217.1023,
      "duration": 0.0825,
      "velocity": 108,
      "chip": "ym2612"
    },
    {
      "channel": 4,
      "note": 35,
      "start": 217.1689,
      "duration": 0.0826,
      "velocity": 108,
      "chip": "ym2612"
    },
    {
      "channel": 0,
      "note": 23,
      "start": 217.2331,
      "duration": 0.1485,
      "velocity": 124,
      "chip": "ym2612"
    },
    {
      "channel": 1,
      "note": 38,
      "start": 217.2337,
      "duration": 0.2809,
      "velocity": 120,
      "chip": "ym2612"
    },
    {
      "channel": 2,
      "note": 34,
      "start": 217.2349,
      "duration": 0.1477,
      "velocity": 64,
      "chip": "ym2612"
    },
    {
      "channel": 3,
      "note": 40,
      "start": 217.2357,
      "duration": 0.0815,
      "velocity": 108,
      "chip": "ym2612"
    },
    {
      "channel": 4,
      "note": 40,
      "start": 217.3179,
      "duration": 0.0826,
      "velocity": 108,
      "chip": "ym2612"
    },
    {
      "channel": 0,
      "note": 35,
      "start": 217.382,
      "duration": 0.1319,
      "velocity": 124,
      "chip": "ym2612"
    },
    {
      "channel": 2,
      "note": 59,
      "start": 217.3837,
      "duration": 0.0818,
      "velocity": 123,
      "chip": "ym2612"
    },
    {
      "channel": 3,
      "note": 35,
      "start": 217.3844,
      "duration": 0.0817,
      "velocity": 108,
      "chip": "ym2612"
    },
    {
      "channel": 4,
      "note": 35,
      "start": 217.4503,
      "duration": 0.0826,
      "velocity": 108,
      "chip": "ym2612"
    },
    {
      "channel": 0,
      "note": 23,
      "start": 217.5145,
      "duration": 0.1485,
      "velocity": 124,
      "chip": "ym2612"
    },
    {
      "channel": 1,
      "note": 62,
      "start": 217.5157,
      "duration": 0.1482,
      "velocity": 125,
      "chip": "ym2612"
    },
    {
      "channel": 3,
      "note": 38,
      "start": 217.5168,
      "duration": 0.0817,
      "velocity": 108,
      "chip": "ym2612"
    },
    {
      "channel": 4,
      "note": 38,
      "start": 217.5993,
      "duration": 0.0826,
      "velocity": 108,
      "chip": "ym2612"
    },
    {
      "channel": 0,
      "note": 23,
      "start": 217.6635,
      "duration": 0.1319,
      "velocity": 124,
      "chip": "ym2612"
    },
    {
      "channel": 2,
      "note": 59,
      "start": 217.6646,
      "duration": 0.0824,
      "velocity": 123,
      "chip": "ym2612"
    },
    {
      "channel": 3,
      "note": 35,
      "start": 217.6653,
      "duration": 0.0822,
      "velocity": 108,
      "chip": "ym2612"
    },
    {
      "channel": 4,
      "note": 35,
      "start": 217.7317,
      "duration": 0.0826,
      "velocity": 108,
      "chip": "ym2612"
    },
    {
      "channel": 0,
      "note": 35,
      "start": 217.7958,
      "duration": 0.1485,
      "velocity": 124,
      "chip": "ym2612"
    },
    {
      "channel": 1,
      "note": 26,
      "start": 217.7971,
      "duration": 0.5617,
      "velocity": 126,
      "chip": "ym2612"
    },
    {
      "channel": 3,
      "note": 37,
      "start": 217.7983,
      "duration": 0.0817,
      "velocity": 108,
      "chip": "ym2612"
    },
    {
      "channel": 4,
      "note": 37,
      "start": 217.8807,
      "duration": 0.0826,
      "velocity": 108,
      "chip": "ym2612"
    },
    {
      "channel": 0,
      "note": 23,
      "start": 217.9448,
      "duration": 0.1319,
      "velocity": 124,
      "chip": "ym2612"
    },
    {
      "channel": 2,
      "note": 34,
      "start": 217.9465,
      "duration": 0.1313,
      "velocity": 64,
      "chip": "ym2612"
    },
    {
      "channel": 3,
      "note": 35,
      "start": 217.9472,
      "duration": 0.0817,
      "velocity": 108,
      "chip": "ym2612"
    },
    {
      "channel": 4,
      "note": 35,
      "start": 218.0131,
      "duration": 0.0826,
      "velocity": 108,
      "chip": "ym2612"
    },
    {
      "channel": 0,
      "note": 23,
      "start": 218.0773,
      "duration": 0.1485,
      "velocity": 124,
      "chip": "ym2612"
    },
    {
      "channel": 2,
      "note": 59,
      "start": 218.0789,
      "duration": 0.0984,
      "velocity": 123,
      "chip": "ym2612"
    },
    {
      "channel": 3,
      "note": 38,
      "start": 218.0796,
      "duration": 0.0817,
      "velocity": 108,
      "chip": "ym2612"
    },
    {
      "channel": 4,
      "note": 38,
      "start": 218.1621,
      "duration": 0.0826,
      "velocity": 108,
      "chip": "ym2612"
    },
    {
      "channel": 0,
      "note": 35,
      "start": 218.2262,
      "duration": 0.132,
      "velocity": 124,
      "chip": "ym2612"
    },
    {
      "channel": 3,
      "note": 47,
      "start": 218.2279,
      "duration": 0.0824,
      "velocity": 108,
      "chip": "ym2612"
    },
    {
      "channel": 4,
      "note": 47,
      "start": 218.2945,
      "duration": 0.0826,
      "velocity": 108,
      "chip": "ym2612"
    },
    {
      "channel": 0,
      "note": 23,
      "start": 218.3586,
      "duration": 0.1485,
      "velocity": 124,
      "chip": "ym2612"
    },
    {
      "channel": 1,
      "note": 38,
      "start": 218.3598,
      "duration": 0.2803,
      "velocity": 120,
      "chip": "ym2612"
    },
    {
      "channel": 3,
      "note": 37,
      "start": 218.361,
      "duration": 0.0817,
      "velocity": 108,
      "chip": "ym2612"
    },
    {
      "channel": 5,
      "note": 7,
      "start": 218.3622,
      "duration": 2.2515,
      "velocity": 1,
      "chip": "ym2612"
    },
    {
      "channel": 4,
      "note": 37,
      "start": 218.4434,
      "duration": 0.0826,
      "velocity": 108,
      "chip": "ym2612"
    },
    {
      "channel": 0,
      "note": 35,
      "start": 218.5076,
      "duration": 0.132,
      "velocity": 124,
      "chip": "ym2612"
    },
    {
      "channel": 2,
      "note": 59,
      "start": 218.5087,
      "duration": 0.0825,
      "velocity": 123,
      "chip": "ym2612"
    },
    {
      "channel": 3,
      "note": 35,
      "start": 218.5094,
      "duration": 0.0824,
      "velocity": 108,
      "chip": "ym2612"
    },
    {
      "channel": 4,
      "note": 35,
      "start": 218.5759,
      "duration": 0.0826,
      "velocity": 108,
      "chip": "ym2612"
    },
    {
      "channel": 0,
      "note": 23,
      "start": 218.64,
      "duration": 0.1485,
      "velocity": 124,
      "chip": "ym2612"
    },
    {
      "channel": 1,
      "note": 62,
      "start": 218.6412,
      "duration": 0.1482,
      "velocity": 125,
      "chip": "ym2612"
    },
    {
      "channel": 3,
      "note": 38,
      "start": 218.6425,
      "duration": 0.0817,
      "velocity": 108,
      "chip": "ym2612"
    },
    {
      "channel": 4,
      "note": 38,
      "start": 218.7249,
      "duration": 0.0826,
      "velocity": 108,
      "chip": "ym2612"
    },
    {
      "channel": 0,
      "note": 23,
      "start": 218.789,
      "duration": 0.132,
      "velocity": 124,
      "chip": "ym2612"
    },
    {
      "channel": 2,
      "note": 59,
      "start": 218.7902,
      "duration": 0.0824,
      "velocity": 123,
      "chip": "ym2612"
    },
    {
      "channel": 3,
      "note": 35,
      "start": 218.7909,
      "duration": 0.0823,
      "velocity": 108,
      "chip": "ym2612"
    },
    {
      "channel": 4,
      "note": 35,
      "start": 218.8573,
      "duration": 0.0827,
      "velocity": 108,
      "chip": "ym2612"
    },
    {
      "channel": 0,
      "note": 35,
      "start": 218.9214,
      "duration": 0.1485,
      "velocity": 124,
      "chip": "ym2612"
    },
    {
      "channel": 1,
      "note": 26,
      "start": 218.9226,
      "duration": 0.2804,
      "velocity": 126,
      "chip": "ym2612"
    },
    {
      "channel": 3,
      "note": 35,
      "start": 218.9239,
      "duration": 0.0816,
      "velocity": 108,
      "chip": "ym2612"
    },
    {
      "channel": 4,
      "note": 35,
      "start": 219.0062,
      "duration": 0.0826,
      "velocity": 108,
      "chip": "ym2612"
    },
    {
      "channel": 0,
      "note": 23,
      "start": 219.0704,
      "duration": 0.132,
      "velocity": 124,
      "chip": "ym2612"
    },
    {
      "channel": 3,
      "note": 47,
      "start": 219.072,
      "duration": 0.0824,
      "velocity": 108,
      "chip": "ym2612"
    },
    {
      "channel": 4,
      "note": 47,
      "start": 219.1386,
      "duration": 0.0827,
      "velocity": 108,
      "chip": "ym2612"
    },
    {
      "channel": 0,
      "note": 23,
      "start": 219.2028,
      "duration": 0.1485,
      "velocity": 124,
      "chip": "ym2612"
    },
    {
      "channel": 1,
      "note": 38,
      "start": 219.204,
      "duration": 0.2803,
      "velocity": 120,
      "chip": "ym2612"
    },
    {
      "channel": 2,
      "note": 59,
      "start": 219.2047,
      "duration": 0.0982,
      "velocity": 123,
      "chip": "ym2612"
    },
    {
      "channel": 3,
      "note": 38,
      "start": 219.2054,
      "duration": 0.0816,
      "velocity": 108,
      "chip": "ym2612"
    },
    {
      "channel": 4,
      "note": 38,
      "start": 219.2876,
      "duration": 0.0826,
      "velocity": 108,
      "chip": "ym2612"
    },
    {
      "channel": 0,
      "note": 35,
      "start": 219.3518,
      "duration": 0.1319,
      "velocity": 124,
      "chip": "ym2612"
    },
    {
      "channel": 3,
      "note": 35,
      "start": 219.3534,
      "duration": 0.0824,
      "velocity": 108,
      "chip": "ym2612"
    },
    {
      "channel": 4,
      "note": 35,
      "start": 219.42,
      "duration": 0.0827,
      "velocity": 108,
      "chip": "ym2612"
    },
    {
      "channel": 0,
      "note": 23,
      "start": 219.4842,
      "duration": 0.1485,
      "velocity": 124,
      "chip": "ym2612"
    },
    {
      "channel": 1,
      "note": 38,
      "start": 219.4848,
      "duration": 0.2809,
      "velocity": 120,
      "chip": "ym2612"
    },
    {
      "channel": 2,
      "note": 34,
      "start": 219.486,
      "duration": 0.1477,
      "velocity": 64,
      "chip": "ym2612"
    },
    {
      "channel": 3,
      "note": 40,
      "start": 219.4868,
      "duration": 0.0815,
      "velocity": 108,
      "chip": "ym2612"
    },
    {
      "channel": 4,
      "note": 40,
      "start": 219.569,
      "duration": 0.0826,
      "velocity": 108,
      "chip": "ym2612"
    },
    {
      "channel": 0,
      "note": 35,
      "start": 219.6332,
      "duration": 0.1319,
      "velocity": 124,
      "chip": "ym2612"
    },
    {
      "channel": 2,
      "note": 59,
      "start": 219.6348,
      "duration": 0.0819,
      "velocity": 123,
      "chip": "ym2612"
    },
    {
      "channel": 3,
      "note": 35,
      "start": 219.6355,
      "duration": 0.0817,
      "velocity": 108,
      "chip": "ym2612"
    },
    {
      "channel": 4,
      "note": 35,
      "start": 219.7014,
      "duration": 0.0826,
      "velocity": 108,
      "chip": "ym2612"
    },
    {
      "channel": 0,
      "note": 23,
      "start": 219.7656,
      "duration": 0.1485,
      "velocity": 124,
      "chip": "ym2612"
    },
    {
      "channel": 1,
      "note": 62,
      "start": 219.7668,
      "duration": 0.1482,
      "velocity": 125,
      "chip": "ym2612"
    },
    {
      "channel": 3,
      "note": 38,
      "start": 219.768,
      "duration": 0.0817,
      "velocity": 108,
      "chip": "ym2612"
    },
    {
      "channel": 4,
      "note": 38,
      "start": 219.8504,
      "duration": 0.0827,
      "velocity": 108,
      "chip": "ym2612"
    },
    {
      "channel": 0,
      "note": 23,
      "start": 219.9146,
      "duration": 0.1319,
      "velocity": 124,
      "chip": "ym2612"
    },
    {
      "channel": 3,
      "note": 35,
      "start": 219.9163,
      "duration": 0.0824,
      "velocity": 108,
      "chip": "ym2612"
    },
    {
      "channel": 4,
      "note": 35,
      "start": 219.9828,
      "duration": 0.0826,
      "velocity": 108,
      "chip": "ym2612"
    },
    {
      "channel": 0,
      "note": 35,
      "start": 220.047,
      "duration": 0.1485,
      "velocity": 124,
      "chip": "ym2612"
    },
    {
      "channel": 1,
      "note": 26,
      "start": 220.0482,
      "duration": 0.2803,
      "velocity": 126,
      "chip": "ym2612"
    },
    {
      "channel": 3,
      "note": 37,
      "start": 220.0494,
      "duration": 0.0817,
      "velocity": 108,
      "chip": "ym2612"
    },
    {
      "channel": 4,
      "note": 37,
      "start": 220.1318,
      "duration": 0.0827,
      "velocity": 108,
      "chip": "ym2612"
    },
    {
      "channel": 0,
      "note": 23,
      "start": 220.196,
      "duration": 0.1319,
      "velocity": 124,
      "chip": "ym2612"
    },
    {
      "channel": 3,
      "note": 35,
      "start": 220.1976,
      "duration": 0.0824,
      "velocity": 108,
      "chip": "ym2612"
    },
    {
      "channel": 4,
      "note": 35,
      "start": 220.2642,
      "duration": 0.0826,
      "velocity": 108,
      "chip": "ym2612"
    },
    {
      "channel": 0,
      "note": 35,
      "start": 220.3284,
      "duration": 0.1485,
      "velocity": 124,
      "chip": "ym2612"
    },
    {
      "channel": 1,
      "note": 62,
      "start": 220.3296,
      "duration": 0.1482,
      "velocity": 125,
      "chip": "ym2612"
    },
    {
      "channel": 2,
      "note": 22,
      "start": 220.3308,
      "duration": 0.0977,
      "velocity": 64,
      "chip": "ym2612"
    },
    {
      "channel": 3,
      "note": 38,
      "start": 220.3315,
      "duration": 0.081,
      "velocity": 108,
      "chip": "ym2612"
    },
    {
      "channel": 4,
      "note": 38,
      "start": 220.4132,
      "duration": 0.0826,
      "velocity": 108,
      "chip": "ym2612"
    },
    {
      "channel": 0,
      "note": 23,
      "start": 220.4774,
      "duration": 0.1319,
      "velocity": 124,
      "chip": "ym2612"
    },
    {
      "channel": 2,
      "note": 34,
      "start": 220.4785,
      "duration": 0.0824,
      "velocity": 64,
      "chip": "ym2612"
    },
    {
      "channel": 3,
      "note": 47,
      "start": 220.4792,
      "duration": 0.0823,
      "velocity": 108,
      "chip": "ym2612"
    },
    {
      "channel": 4,
      "note": 47,
      "start": 220.5456,
      "duration": 0.0826,
      "velocity": 108,
      "chip": "ym2612"
    },
    {
      "channel": 0,
      "note": 19,
      "start": 220.6098,
      "duration": 0.1485,
      "velocity": 124,
      "chip": "ym2612"
    },
    {
      "channel": 1,
      "note": 38,
      "start": 220.611,
      "duration": 0.2803,
      "velocity": 120,
      "chip": "ym2612"
    },
    {
      "channel": 2,
      "note": 71,
      "start": 220.6122,
      "duration": 0.1471,
      "velocity": 122,
      "chip": "ym2612"
    },
    {
      "channel": 3,
      "note": 37,
      "start": 220.6129,
      "duration": 0.0809,
      "velocity": 108,
      "chip": "ym2612"
    },
    {
      "channel": 5,
      "note": 7,
      "start": 220.6141,
      "duration": 2.2499,
      "velocity": 1,
      "chip": "ym2612"
    },
    {
      "channel": 4,
      "note": 37,
      "start": 220.6946,
      "duration": 0.0826,
      "velocity": 108,
      "chip": "ym2612"
    },
    {
      "channel": 0,
      "note": 31,
      "start": 220.7588,
      "duration": 0.1319,
      "velocity": 124,
      "chip": "ym2612"
    },
    {
      "channel": 2,
      "note": 71,
      "start": 220.7598,
      "duration": 0.0824,
      "velocity": 122,
      "chip": "ym2612"
    },
    {
      "channel": 3,
      "note": 35,
      "start": 220.7605,
      "duration": 0.0823,
      "velocity": 108,
      "chip": "ym2612"
    },
    {
      "channel": 4,
      "note": 35,
      "start": 220.827,
      "duration": 0.0826,
      "velocity": 108,
      "chip": "ym2612"
    },
    {
      "channel": 0,
      "note": 19,
      "start": 220.8912,
      "duration": 0.1485,
      "velocity": 124,
      "chip": "ym2612"
    },
    {
      "channel": 1,
      "note": 62,
      "start": 220.8924,
      "duration": 0.1483,
      "velocity": 125,
      "chip": "ym2612"
    },
    {
      "channel": 2,
      "note": 66,
      "start": 220.893,
      "duration": 0.1478,
      "velocity": 122,
      "chip": "ym2612"
    },
    {
      "channel": 3,
      "note": 38,
      "start": 220.8937,
      "duration": 0.0816,
      "velocity": 108,
      "chip": "ym2612"
    },
    {
      "channel": 4,
      "note": 38,
      "start": 220.9761,
      "duration": 0.0826,
      "velocity": 108,
      "chip": "ym2612"
    },
    {
      "channel": 0,
      "note": 19,
      "start": 221.0402,
      "duration": 0.1319,
      "velocity": 124,
      "chip": "ym2612"
    },
    {
      "channel": 2,
      "note": 59,
      "start": 221.0413,
      "duration": 0.0824,
      "velocity": 123,
      "chip": "ym2612"
    },
    {
      "channel": 3,
      "note": 35,
      "start": 221.042,
      "duration": 0.0823,
      "velocity": 108,
      "chip": "ym2612"
    },
    {
      "channel": 4,
      "note": 35,
      "start": 221.1084,
      "duration": 0.0826,
      "velocity": 108,
      "chip": "ym2612"
    },
    {
      "channel": 0,
      "note": 31,
      "start": 221.1726,
      "duration": 0.1485,
      "velocity": 124,
      "chip": "ym2612"
    },
    {
      "channel": 1,
      "note": 26,
      "start": 221.1738,
      "duration": 0.2803,
      "velocity": 126,
      "chip": "ym2612"
    },
    {
      "channel": 2,
      "note": 23,
      "start": 221.1745,
      "duration": 0.0982,
      "velocity": 123,
      "chip": "ym2612"
    },
    {
      "channel": 3,
      "note": 35,
      "start": 221.1752,
      "duration": 0.0815,
      "velocity": 108,
      "chip": "ym2612"
    },
    {
      "channel": 4,
      "note": 35,
      "start": 221.2574,
      "duration": 0.0826,
      "velocity": 108,
      "chip": "ym2612"
    },
    {
      "channel": 0,
      "note": 19,
      "start": 221.3215,
      "duration": 0.1319,
      "velocity": 124,
      "chip": "ym2612"
    },
    {
      "channel": 2,
      "note": 35,
      "start": 221.3226,
      "duration": 0.0824,
      "velocity": 123,
      "chip": "ym2612"
    },
    {
      "channel": 3,
      "note": 47,
      "start": 221.3234,
      "duration": 0.0823,
      "velocity": 108,
      "chip": "ym2612"
    },
    {
      "channel": 4,
      "note": 47,
      "start": 221.3899,
      "duration": 0.0826,
      "velocity": 108,
      "chip": "ym2612"
    },
    {
      "channel": 0,
      "note": 19,
      "start": 221.454,
      "duration": 0.1485,
      "velocity": 124,
      "chip": "ym2612"
    },
    {
      "channel": 1,
      "note": 38,
      "start": 221.4552,
      "duration": 0.2803,
      "velocity": 120,
      "chip": "ym2612"
    },
    {
      "channel": 2,
      "note": 59,
      "start": 221.4558,
      "duration": 0.0982,
      "velocity": 123,
      "chip": "ym2612"
    },
    {
      "channel": 3,
      "note": 38,
      "start": 221.4566,
      "duration": 0.0815,
      "velocity": 108,
      "chip": "ym2612"
    },
    {
      "channel": 4,
      "note": 38,
      "start": 221.5388,
      "duration": 0.0826,
      "velocity": 108,
      "chip": "ym2612"
    },
    {
      "channel": 0,
      "note": 31,
      "start": 221.603,
      "duration": 0.1319,
      "velocity": 124,
      "chip": "ym2612"
    },
    {
      "channel": 3,
      "note": 35,
      "start": 221.6046,
      "duration": 0.0824,
      "velocity": 108,
      "chip": "ym2612"
    },
    {
      "channel": 4,
      "note": 35,
      "start": 221.6712,
      "duration": 0.0826,
      "velocity": 108,
      "chip": "ym2612"
    },
    {
      "channel": 0,
      "note": 19,
      "start": 221.7354,
      "duration": 0.1485,
      "velocity": 124,
      "chip": "ym2612"
    },
    {
      "channel": 1,
      "note": 38,
      "start": 221.736,
      "duration": 0.2809,
      "velocity": 120,
      "chip": "ym2612"
    },
    {
      "channel": 2,
      "note": 34,
      "start": 221.7372,
      "duration": 0.1477,
      "velocity": 64,
      "chip": "ym2612"
    },
    {
      "channel": 3,
      "note": 40,
      "start": 221.738,
      "duration": 0.0815,
      "velocity": 108,
      "chip": "ym2612"
    },
    {
      "channel": 4,
      "note": 40,
      "start": 221.8202,
      "duration": 0.0826,
      "velocity": 108,
      "chip": "ym2612"
    },
    {
      "channel": 0,
      "note": 31,
      "start": 221.8843,
      "duration": 0.1319,
      "velocity": 124,
      "chip": "ym2612"
    },
    {
      "channel": 2,
      "note": 59,
      "start": 221.886,
      "duration": 0.0819,
      "velocity": 123,
      "chip": "ym2612"
    },
    {
      "channel": 3,
      "note": 35,
      "start": 221.8867,
      "duration": 0.0817,
      "velocity": 108,
      "chip": "ym2612"
    },
    {
      "channel": 4,
      "note": 35,
      "start": 221.9526,
      "duration": 0.0826,
      "velocity": 108,
      "chip": "ym2612"
    },
    {
      "channel": 0,
      "note": 19,
      "start": 222.0168,
      "duration": 0.1485,
      "velocity": 124,
      "chip": "ym2612"
    },
    {
      "channel": 1,
      "note": 62,
      "start": 222.018,
      "duration": 0.1482,
      "velocity": 125,
      "chip": "ym2612"
    },
    {
      "channel": 3,
      "note": 38,
      "start": 222.0191,
      "duration": 0.0817,
      "velocity": 108,
      "chip": "ym2612"
    },
    {
      "channel": 4,
      "note": 38,
      "start": 222.1016,
      "duration": 0.0826,
      "velocity": 108,
      "chip": "ym2612"
    },
    {
      "channel": 0,
      "note": 19,
      "start": 222.1657,
      "duration": 0.132,
      "velocity": 124,
      "chip": "ym2612"
    },
    {
      "channel": 2,
      "note": 59,
      "start": 222.1669,
      "duration": 0.0824,
      "velocity": 123,
      "chip": "ym2612"
    },
    {
      "channel": 3,
      "note": 35,
      "start": 222.1676,
      "duration": 0.0822,
      "velocity": 108,
      "chip": "ym2612"
    },
    {
      "channel": 4,
      "note": 35,
      "start": 222.234,
      "duration": 0.0826,
      "velocity": 108,
      "chip": "ym2612"
    },
    {
      "channel": 0,
      "note": 31,
      "start": 222.2981,
      "duration": 0.1485,
      "velocity": 124,
      "chip": "ym2612"
    },
    {
      "channel": 1,
      "note": 26,
      "start": 222.2993,
      "duration": 0.5617,
      "velocity": 126,
      "chip": "ym2612"
    },
    {
      "channel": 3,
      "note": 37,
      "start": 222.3005,
      "duration": 0.0817,
      "velocity": 108,
      "chip": "ym2612"
    },
    {
      "channel": 4,
      "note": 37,
      "start": 222.3829,
      "duration": 0.0826,
      "velocity": 108,
      "chip": "ym2612"
    },
    {
      "channel": 0,
      "note": 19,
      "start": 222.4471,
      "duration": 0.1319,
      "velocity": 124,
      "chip": "ym2612"
    },
    {
      "channel": 2,
      "note": 34,
      "start": 222.4488,
      "duration": 0.1313,
      "velocity": 64,
      "chip": "ym2612"
    },
    {
      "channel": 3,
      "note": 35,
      "start": 222.4495,
      "duration": 0.0817,
      "velocity": 108,
      "chip": "ym2612"
    },
    {
      "channel": 4,
      "note": 35,
      "start": 222.5154,
      "duration": 0.0826,
      "velocity": 108,
      "chip": "ym2612"
    },
    {
      "channel": 0,
      "note": 31,
      "start": 222.5795,
      "duration": 0.1485,
      "velocity": 124,
      "chip": "ym2612"
    },
    {
      "channel": 2,
      "note": 59,
      "start": 222.5812,
      "duration": 0.0984,
      "velocity": 123,
      "chip": "ym2612"
    },
    {
      "channel": 3,
      "note": 38,
      "start": 222.5819,
      "duration": 0.0817,
      "velocity": 108,
      "chip": "ym2612"
    },
    {
      "channel": 4,
      "note": 38,
      "start": 222.6644,
      "duration": 0.0826,
      "velocity": 108,
      "chip": "ym2612"
    },
    {
      "channel": 0,
      "note": 21,
      "start": 222.7285,
      "duration": 0.132,
      "velocity": 124,
      "chip": "ym2612"
    },
    {
      "channel": 3,
      "note": 47,
      "start": 222.7302,
      "duration": 0.0824,
      "velocity": 108,
      "chip": "ym2612"
    },
    {
      "channel": 4,
      "note": 47,
      "start": 222.7967,
      "duration": 0.0826,
      "velocity": 108,
      "chip": "ym2612"
    },
    {
      "channel": 0,
      "note": 23,
      "start": 222.8609,
      "duration": 0.1485,
      "velocity": 124,
      "chip": "ym2612"
    },
    {
      "channel": 1,
      "note": 38,
      "start": 222.8621,
      "duration": 0.2803,
      "velocity": 120,
      "chip": "ym2612"
    },
    {
      "channel": 3,
      "note": 37,
      "start": 222.8633,
      "duration": 0.0817,
      "velocity": 108,
      "chip": "ym2612"
    },
    {
      "channel": 5,
      "note": 7,
      "start": 222.8645,
      "duration": 2.3323,
      "velocity": 1,
      "chip": "ym2612"
    },
    {
      "channel": 4,
      "note": 37,
      "start": 222.9457,
      "duration": 0.0826,
      "velocity": 108,
      "chip": "ym2612"
    },
    {
      "channel": 0,
      "note": 35,
      "start": 223.0099,
      "duration": 0.132,
      "velocity": 124,
      "chip": "ym2612"
    },
    {
      "channel": 2,
      "note": 59,
      "start": 223.011,
      "duration": 0.0824,
      "velocity": 123,
      "chip": "ym2612"
    },
    {
      "channel": 3,
      "note": 35,
      "start": 223.0117,
      "duration": 0.0823,
      "velocity": 108,
      "chip": "ym2612"
    },
    {
      "channel": 4,
      "note": 35,
      "start": 223.0782,
      "duration": 0.0826,
      "velocity": 108,
      "chip": "ym2612"
    },
    {
      "channel": 0,
      "note": 23,
      "start": 223.1423,
      "duration": 0.1485,
      "velocity": 124,
      "chip": "ym2612"
    },
    {
      "channel": 1,
      "note": 62,
      "start": 223.1435,
      "duration": 0.1482,
      "velocity": 125,
      "chip": "ym2612"
    },
    {
      "channel": 3,
      "note": 38,
      "start": 223.1447,
      "duration": 0.0817,
      "velocity": 108,
      "chip": "ym2612"
    },
    {
      "channel": 4,
      "note": 38,
      "start": 223.2271,
      "duration": 0.0826,
      "velocity": 108,
      "chip": "ym2612"
    },
    {
      "channel": 0,
      "note": 23,
      "start": 223.2912,
      "duration": 0.132,
      "velocity": 124,
      "chip": "ym2612"
    },
    {
      "channel": 2,
      "note": 59,
      "start": 223.2924,
      "duration": 0.0824,
      "velocity": 123,
      "chip": "ym2612"
    },
    {
      "channel": 3,
      "note": 35,
      "start": 223.2931,
      "duration": 0.0823,
      "velocity": 108,
      "chip": "ym2612"
    },
    {
      "channel": 4,
      "note": 35,
      "start": 223.3595,
      "duration": 0.0827,
      "velocity": 108,
      "chip": "ym2612"
    },
    {
      "channel": 0,
      "note": 35,
      "start": 223.4238,
      "duration": 0.1485,
      "velocity": 124,
      "chip": "ym2612"
    },
    {
      "channel": 1,
      "note": 26,
      "start": 223.425,
      "duration": 0.2803,
      "velocity": 126,
      "chip": "ym2612"
    },
    {
      "channel": 3,
      "note": 35,
      "start": 223.4261,
      "duration": 0.0817,
      "velocity": 108,
      "chip": "ym2612"
    },
    {
      "channel": 4,
      "note": 35,
      "start": 223.5085,
      "duration": 0.0827,
      "velocity": 108,
      "chip": "ym2612"
    },
    {
      "channel": 0,
      "note": 23,
      "start": 223.5727,
      "duration": 0.132,
      "velocity": 124,
      "chip": "ym2612"
    },
    {
      "channel": 3,
      "note": 47,
      "start": 223.5743,
      "duration": 0.0825,
      "velocity": 108,
      "chip": "ym2612"
    },
    {
      "channel": 4,
      "note": 47,
      "start": 223.641,
      "duration": 0.0826,
      "velocity": 108,
      "chip": "ym2612"
    },
    {
      "channel": 0,
      "note": 23,
      "start": 223.7051,
      "duration": 0.1485,
      "velocity": 124,
      "chip": "ym2612"
    },
    {
      "channel": 1,
      "note": 38,
      "start": 223.7063,
      "duration": 0.2803,
      "velocity": 120,
      "chip": "ym2612"
    },
    {
      "channel": 2,
      "note": 59,
      "start": 223.707,
      "duration": 0.0982,
      "velocity": 123,
      "chip": "ym2612"
    },
    {
      "channel": 3,
      "note": 38,
      "start": 223.7077,
      "duration": 0.0815,
      "velocity": 108,
      "chip": "ym2612"
    },
    {
      "channel": 4,
      "note": 38,
      "start": 223.79,
      "duration": 0.0825,
      "velocity": 108,
      "chip": "ym2612"
    },
    {
      "channel": 0,
      "note": 35,
      "start": 223.854,
      "duration": 0.132,
      "velocity": 124,
      "chip": "ym2612"
    },
    {
      "channel": 3,
      "note": 35,
      "start": 223.8557,
      "duration": 0.0824,
      "velocity": 108,
      "chip": "ym2612"
    },
    {
      "channel": 4,
      "note": 35,
      "start": 223.9223,
      "duration": 0.0827,
      "velocity": 108,
      "chip": "ym2612"
    },
    {
      "channel": 0,
      "note": 23,
      "start": 223.9865,
      "duration": 0.1485,
      "velocity": 124,
      "chip": "ym2612"
    },
    {
      "channel": 1,
      "note": 38,
      "start": 223.9871,
      "duration": 0.2809,
      "velocity": 120,
      "chip": "ym2612"
    },
    {
      "channel": 2,
      "note": 34,
      "start": 223.9883,
      "duration": 0.1477,
      "velocity": 64,
      "chip": "ym2612"
    },
    {
      "channel": 3,
      "note": 40,
      "start": 223.9891,
      "duration": 0.0815,
      "velocity": 108,
      "chip": "ym2612"
    },
    {
      "channel": 4,
      "note": 40,
      "start": 224.0713,
      "duration": 0.0826,
      "velocity": 108,
      "chip": "ym2612"
    },
    {
      "channel": 0,
      "note": 35,
      "start": 224.1355,
      "duration": 0.1319,
      "velocity": 124,
      "chip": "ym2612"
    },
    {
      "channel": 2,
      "note": 59,
      "start": 224.1371,
      "duration": 0.0819,
      "velocity": 123,
      "chip": "ym2612"
    },
    {
      "channel": 3,
      "note": 35,
      "start": 224.1378,
      "duration": 0.0817,
      "velocity": 108,
      "chip": "ym2612"
    },
    {
      "channel": 4,
      "note": 35,
      "start": 224.2037,
      "duration": 0.0826,
      "velocity": 108,
      "chip": "ym2612"
    },
    {
      "channel": 0,
      "note": 23,
      "start": 224.2679,
      "duration": 0.1485,
      "velocity": 124,
      "chip": "ym2612"
    },
    {
      "channel": 1,
      "note": 62,
      "start": 224.2691,
      "duration": 0.1482,
      "velocity": 125,
      "chip": "ym2612"
    },
    {
      "channel": 3,
      "note": 38,
      "start": 224.2703,
      "duration": 0.0817,
      "velocity": 108,
      "chip": "ym2612"
    },
    {
      "channel": 4,
      "note": 38,
      "start": 224.3527,
      "duration": 0.0826,
      "velocity": 108,
      "chip": "ym2612"
    },
    {
      "channel": 0,
      "note": 23,
      "start": 224.4168,
      "duration": 0.132,
      "velocity": 124,
      "chip": "ym2612"
    },
    {
      "channel": 3,
      "note": 35,
      "start": 224.4185,
      "duration": 0.0824,
      "velocity": 108,
      "chip": "ym2612"
    },
    {
      "channel": 4,
      "note": 35,
      "start": 224.4851,
      "duration": 0.0826,
      "velocity": 108,
      "chip": "ym2612"
    },
    {
      "channel": 0,
      "note": 35,
      "start": 224.5493,
      "duration": 0.1485,
      "velocity": 124,
      "chip": "ym2612"
    },
    {
      "channel": 1,
      "note": 26,
      "start": 224.5505,
      "duration": 0.2803,
      "velocity": 126,
      "chip": "ym2612"
    },
    {
      "channel": 3,
      "note": 37,
      "start": 224.5516,
      "duration": 0.0817,
      "velocity": 108,
      "chip": "ym2612"
    },
    {
      "channel": 4,
      "note": 37,
      "start": 224.6341,
      "duration": 0.0827,
      "velocity": 108,
      "chip": "ym2612"
    },
    {
      "channel": 0,
      "note": 23,
      "start": 224.6983,
      "duration": 0.1319,
      "velocity": 124,
      "chip": "ym2612"
    },
    {
      "channel": 3,
      "note": 35,
      "start": 224.6999,
      "duration": 0.0824,
      "velocity": 108,
      "chip": "ym2612"
    },
    {
      "channel": 4,
      "note": 35,
      "start": 224.7665,
      "duration": 0.0826,
      "velocity": 108,
      "chip": "ym2612"
    },
    {
      "channel": 0,
      "note": 35,
      "start": 224.8307,
      "duration": 0.1485,
      "velocity": 124,
      "chip": "ym2612"
    },
    {
      "channel": 1,
      "note": 62,
      "start": 224.8319,
      "duration": 0.1482,
      "velocity": 125,
      "chip": "ym2612"
    },
    {
      "channel": 2,
      "note": 22,
      "start": 224.8331,
      "duration": 0.0977,
      "velocity": 64,
      "chip": "ym2612"
    },
    {
      "channel": 3,
      "note": 38,
      "start": 224.8338,
      "duration": 0.081,
      "velocity": 108,
      "chip": "ym2612"
    },
    {
      "channel": 4,
      "note": 38,
      "start": 224.9155,
      "duration": 0.0826,
      "velocity": 108,
      "chip": "ym2612"
    },
    {
      "channel": 0,
      "note": 23,
      "start": 224.9796,
      "duration": 0.1319,
      "velocity": 124,
      "chip": "ym2612"
    },
    {
      "channel": 2,
      "note": 34,
      "start": 224.9808,
      "duration": 0.0824,
      "velocity": 64,
      "chip": "ym2612"
    },
    {
      "channel": 3,
      "note": 47,
      "start": 224.9815,
      "duration": 0.0823,
      "velocity": 108,
      "chip": "ym2612"
    },
    {
      "channel": 4,
      "note": 47,
      "start": 225.0479,
      "duration": 0.0686,
      "velocity": 108,
      "chip": "ym2612"
    },
    {
      "channel": 0,
      "note": 23,
      "start": 225.1126,
      "duration": 1.1266,
      "velocity": 122,
      "chip": "ym2612"
    },
    {
      "channel": 1,
      "note": 30,
      "start": 225.1139,
      "duration": 1.1253,
      "velocity": 108,
      "chip": "ym2612"
    },
    {
      "channel": 2,
      "note": 71,
      "start": 225.1151,
      "duration": 0.1464,
      "velocity": 120,
      "chip": "ym2612"
    },
    {
      "channel": 3,
      "note": 23,
      "start": 225.1164,
      "duration": 0.1625,
      "velocity": 124,
      "chip": "ym2612"
    },
    {
      "channel": 4,
      "note": 37,
      "start": 225.1171,
      "duration": 0.0797,
      "velocity": 108,
      "chip": "ym2612"
    },
    {
      "channel": 5,
      "note": 37,
      "start": 225.198,
      "duration": 0.0821,
      "velocity": 108,
      "chip": "ym2612"
    },
    {
      "channel": 2,
      "note": 71,
      "start": 225.2626,
      "duration": 0.1313,
      "velocity": 120,
      "chip": "ym2612"
    },
    {
      "channel": 4,
      "note": 35,
      "start": 225.2638,
      "duration": 0.0819,
      "velocity": 108,
      "chip": "ym2612"
    },
    {
      "channel": 5,
      "note": 35,
      "start": 225.3298,
      "duration": 0.0827,
      "velocity": 108,
      "chip": "ym2612"
    },
    {
      "channel": 2,
      "note": 71,
      "start": 225.395,
      "duration": 0.1479,
      "velocity": 120,
      "chip": "ym2612"
    },
    {
      "channel": 3,
      "note": 23,
      "start": 225.3957,
      "duration": 0.1646,
      "velocity": 124,
      "chip": "ym2612"
    },
    {
      "channel": 4,
      "note": 38,
      "start": 225.3964,
      "duration": 0.0817,
      "velocity": 108,
      "chip": "ym2612"
    },
    {
      "channel": 5,
      "note": 38,
      "start": 225.4788,
      "duration": 0.0826,
      "velocity": 108,
      "chip": "ym2612"
    },
    {
      "channel": 2,
      "note": 47,
      "start": 225.544,
      "duration": 0.1314,
      "velocity": 124,
      "chip": "ym2612"
    },
    {
      "channel": 4,
      "note": 35,
      "start": 225.5452,
      "duration": 0.0819,
      "velocity": 108,
      "chip": "ym2612"
    },
    {
      "channel": 5,
      "note": 35,
      "start": 225.6112,
      "duration": 0.0826,
      "velocity": 108,
      "chip": "ym2612"
    },
    {
      "channel": 2,
      "note": 71,
      "start": 225.6764,
      "duration": 0.148,
      "velocity": 120,
      "chip": "ym2612"
    },
    {
      "channel": 3,
      "note": 23,
      "start": 225.6771,
      "duration": 0.1647,
      "velocity": 124,
      "chip": "ym2612"
    },
    {
      "channel": 4,
      "note": 35,
      "start": 225.6778,
      "duration": 0.0817,
      "velocity": 108,
      "chip": "ym2612"
    },
    {
      "channel": 5,
      "note": 35,
      "start": 225.7602,
      "duration": 0.0827,
      "velocity": 108,
      "chip": "ym2612"
    },
    {
      "channel": 2,
      "note": 71,
      "start": 225.8254,
      "duration": 0.1314,
      "velocity": 120,
      "chip": "ym2612"
    },
    {
      "channel": 4,
      "note": 47,
      "start": 225.8266,
      "duration": 0.0819,
      "velocity": 108,
      "chip": "ym2612"
    },
    {
      "channel": 5,
      "note": 47,
      "start": 225.8927,
      "duration": 0.0826,
      "velocity": 108,
      "chip": "ym2612"
    },
    {
      "channel": 2,
      "note": 71,
      "start": 225.9579,
      "duration": 0.1478,
      "velocity": 120,
      "chip": "ym2612"
    },
    {
      "channel": 3,
      "note": 23,
      "start": 225.9585,
      "duration": 0.0985,
      "velocity": 124,
      "chip": "ym2612"
    },
    {
      "channel": 4,
      "note": 38,
      "start": 225.9592,
      "duration": 0.0817,
      "velocity": 108,
      "chip": "ym2612"
    },
    {
      "channel": 5,
      "note": 38,
      "start": 226.0417,
      "duration": 0.0826,
      "velocity": 108,
      "chip": "ym2612"
    },
    {
      "channel": 2,
      "note": 71,
      "start": 226.1068,
      "duration": 0.1313,
      "velocity": 120,
      "chip": "ym2612"
    },
    {
      "channel": 3,
      "note": 23,
      "start": 226.1075,
      "duration": 0.0818,
      "velocity": 124,
      "chip": "ym2612"
    },
    {
      "channel": 4,
      "note": 35,
      "start": 226.1082,
      "duration": 0.0817,
      "velocity": 108,
      "chip": "ym2612"
    },
    {
      "channel": 5,
      "note": 35,
      "start": 226.1741,
      "duration": 0.0651,
      "velocity": 108,
      "chip": "ym2612"
    },
    {
      "channel": 2,
      "note": 71,
      "start": 226.2392,
      "duration": 0.0,
      "velocity": 120,
      "chip": "ym2612"
    }
  ]
}