{
  "track_name": "05 - Palm Desert",
  "duration_sec": 300.637,
  "sample_rate": 44100,
  "note_count": 2626,
  "unique_pitches": 39,
  "pitch_range": 65,
  "avg_note_duration": 0.2729,
  "reconstruction_stats": {
    "notes_reconstructed": 2626,
    "keyon_events": 2626,
    "keyoff_events": 2624,
    "orphan_keyons": 2,
    "unique_pitches": 39,
    "pitch_range": 65,
    "avg_duration_sec": 0.2729
  },
  "metadata": {
    "source": "R\\Road Rash\\05 - Palm Desert.vgz"
  },
  "notes": [
    {
      "channel": 0,
      "note": 76,
      "start": 0.0022,
      "duration": 0.3814,
      "velocity": 127,
      "chip": "ym2612"
    },
    {
      "channel": 1,
      "note": 79,
      "start": 0.004,
      "duration": 0.3798,
      "velocity": 127,
      "chip": "ym2612"
    },
    {
      "channel": 2,
      "note": 30,
      "start": 0.0056,
      "duration": 0.3782,
      "velocity": 127,
      "chip": "ym2612"
    },
    {
      "channel": 0,
      "note": 42,
      "start": 1.0028,
      "duration": 0.1816,
      "velocity": 127,
      "chip": "ym2612"
    },
    {
      "channel": 1,
      "note": 30,
      "start": 1.0045,
      "duration": 0.18,
      "velocity": 127,
      "chip": "ym2612"
    },
    {
      "channel": 2,
      "note": 30,
      "start": 1.0061,
      "duration": 0.1784,
      "velocity": 127,
      "chip": "ym2612"
    },
    {
      "channel": 0,
      "note": 54,
      "start": 1.2012,
      "duration": 0.1831,
      "velocity": 127,
      "chip": "ym2612"
    },
    {
      "channel": 1,
      "note": 42,
      "start": 1.2015,
      "duration": 0.183,
      "velocity": 127,
      "chip": "ym2612"
    },
    {
      "channel": 2,
      "note": 42,
      "start": 1.2017,
      "duration": 0.1828,
      "velocity": 127,
      "chip": "ym2612"
    },
    {
      "channel": 0,
      "note": 54,
      "start": 1.4012,
      "duration": 0.1833,
      "velocity": 127,
      "chip": "ym2612"
    },
    {
      "channel": 1,
      "note": 42,
      "start": 1.4014,
      "duration": 0.1831,
      "velocity": 127,
      "chip": "ym2612"
    },
    {
      "channel": 2,
      "note": 42,
      "start": 1.4017,
      "duration": 0.1829,
      "velocity": 127,
      "chip": "ym2612"
    },
    {
      "channel": 0,
      "note": 54,
      "start": 1.6031,
      "duration": 3.1827,
      "velocity": 70,
      "chip": "ym2612"
    },
    {
      "channel": 1,
      "note": 42,
      "start": 1.6049,
      "duration": 6.3791,
      "velocity": 70,
      "chip": "ym2612"
    },
    {
      "channel": 2,
      "note": 42,
      "start": 1.6065,
      "duration": 0.1783,
      "velocity": 127,
      "chip": "ym2612"
    },
    {
      "channel": 2,
      "note": 30,
      "start": 1.8015,
      "duration": 0.1833,
      "velocity": 127,
      "chip": "ym2612"
    },
    {
      "channel": 2,
      "note": 30,
      "start": 2.0029,
      "duration": 0.1818,
      "velocity": 127,
      "chip": "ym2612"
    },
    {
      "channel": 2,
      "note": 42,
      "start": 2.203,
      "duration": 0.1817,
      "velocity": 127,
      "chip": "ym2612"
    },
    {
      "channel": 2,
      "note": 30,
      "start": 2.4015,
      "duration": 0.1832,
      "velocity": 127,
      "chip": "ym2612"
    },
    {
      "channel": 2,
      "note": 30,
      "start": 2.6015,
      "duration": 0.1832,
      "velocity": 127,
      "chip": "ym2612"
    },
    {
      "channel": 2,
      "note": 30,
      "start": 2.803,
      "duration": 0.1817,
      "velocity": 127,
      "chip": "ym2612"
    },
    {
      "channel": 2,
      "note": 42,
      "start": 3.0015,
      "duration": 0.1832,
      "velocity": 127,
      "chip": "ym2612"
    },
    {
      "channel": 2,
      "note": 42,
      "start": 3.2031,
      "duration": 0.1817,
      "velocity": 127,
      "chip": "ym2612"
    },
    {
      "channel": 2,
      "note": 30,
      "start": 3.4015,
      "duration": 0.1833,
      "velocity": 127,
      "chip": "ym2612"
    },
    {
      "channel": 2,
      "note": 30,
      "start": 3.6029,
      "duration": 0.1818,
      "velocity": 127,
      "chip": "ym2612"
    },
    {
      "channel": 2,
      "note": 42,
      "start": 3.803,
      "duration": 0.181,
      "velocity": 127,
      "chip": "ym2612"
    },
    {
      "channel": 2,
      "note": 30,
      "start": 4.0008,
      "duration": 0.1832,
      "velocity": 127,
      "chip": "ym2612"
    },
    {
      "channel": 2,
      "note": 30,
      "start": 4.2008,
      "duration": 0.1832,
      "velocity": 127,
      "chip": "ym2612"
    },
    {
      "channel": 2,
      "note": 30,
      "start": 4.4022,
      "duration": 0.1825,
      "velocity": 127,
      "chip": "ym2612"
    },
    {
      "channel": 2,
      "note": 42,
      "start": 4.6015,
      "duration": 0.1846,
      "velocity": 127,
      "chip": "ym2612"
    },
    {
      "channel": 0,
      "note": 74,
      "start": 4.8043,
      "duration": 1.5802,
      "velocity": 70,
      "chip": "ym2612"
    },
    {
      "channel": 2,
      "note": 42,
      "start": 4.8061,
      "duration": 0.18,
      "velocity": 127,
      "chip": "ym2612"
    },
    {
      "channel": 2,
      "note": 30,
      "start": 5.0028,
      "duration": 0.1833,
      "velocity": 127,
      "chip": "ym2612"
    },
    {
      "channel": 2,
      "note": 30,
      "start": 5.2044,
      "duration": 0.1803,
      "velocity": 127,
      "chip": "ym2612"
    },
    {
      "channel": 2,
      "note": 42,
      "start": 5.4029,
      "duration": 0.1819,
      "velocity": 127,
      "chip": "ym2612"
    },
    {
      "channel": 2,
      "note": 30,
      "start": 5.6015,
      "duration": 0.1847,
      "velocity": 127,
      "chip": "ym2612"
    },
    {
      "channel": 2,
      "note": 30,
      "start": 5.8028,
      "duration": 0.1833,
      "velocity": 127,
      "chip": "ym2612"
    },
    {
      "channel": 2,
      "note": 30,
      "start": 6.0044,
      "duration": 0.1817,
      "velocity": 127,
      "chip": "ym2612"
    },
    {
      "channel": 2,
      "note": 42,
      "start": 6.2028,
      "duration": 0.1821,
      "velocity": 127,
      "chip": "ym2612"
    },
    {
      "channel": 0,
      "note": 71,
      "start": 6.4028,
      "duration": 0.783,
      "velocity": 70,
      "chip": "ym2612"
    },
    {
      "channel": 2,
      "note": 42,
      "start": 6.4047,
      "duration": 0.1801,
      "velocity": 127,
      "chip": "ym2612"
    },
    {
      "channel": 2,
      "note": 30,
      "start": 6.6015,
      "duration": 0.1833,
      "velocity": 127,
      "chip": "ym2612"
    },
    {
      "channel": 2,
      "note": 30,
      "start": 6.8029,
      "duration": 0.1832,
      "velocity": 127,
      "chip": "ym2612"
    },
    {
      "channel": 2,
      "note": 42,
      "start": 7.0044,
      "duration": 0.1819,
      "velocity": 127,
      "chip": "ym2612"
    },
    {
      "channel": 0,
      "note": 60,
      "start": 7.2041,
      "duration": 0.7796,
      "velocity": 70,
      "chip": "ym2612"
    },
    {
      "channel": 2,
      "note": 30,
      "start": 7.2046,
      "duration": 0.1802,
      "velocity": 127,
      "chip": "ym2612"
    },
    {
      "channel": 2,
      "note": 30,
      "start": 7.4015,
      "duration": 0.1832,
      "velocity": 127,
      "chip": "ym2612"
    },
    {
      "channel": 2,
      "note": 30,
      "start": 7.603,
      "duration": 0.1817,
      "velocity": 127,
      "chip": "ym2612"
    },
    {
      "channel": 2,
      "note": 42,
      "start": 7.8015,
      "duration": 0.1826,
      "velocity": 127,
      "chip": "ym2612"
    },
    {
      "channel": 2,
      "note": 42,
      "start": 8.0019,
      "duration": 0.0153,
      "velocity": 127,
      "chip": "ym2612"
    },
    {
      "channel": 0,
      "note": 52,
      "start": 8.0356,
      "duration": 0.3815,
      "velocity": 88,
      "chip": "ym2612"
    },
    {
      "channel": 1,
      "note": 76,
      "start": 8.0373,
      "duration": 0.9806,
      "velocity": 83,
      "chip": "ym2612"
    },
    {
      "channel": 2,
      "note": 30,
      "start": 8.039,
      "duration": 0.1784,
      "velocity": 127,
      "chip": "ym2612"
    },
    {
      "channel": 2,
      "note": 30,
      "start": 8.2341,
      "duration": 0.1834,
      "velocity": 127,
      "chip": "ym2612"
    },
    {
      "channel": 2,
      "note": 30,
      "start": 8.4355,
      "duration": 0.1827,
      "velocity": 127,
      "chip": "ym2612"
    },
    {
      "channel": 0,
      "note": 52,
      "start": 8.6346,
      "duration": 0.1833,
      "velocity": 88,
      "chip": "ym2612"
    },
    {
      "channel": 2,
      "note": 42,
      "start": 8.6364,
      "duration": 0.1818,
      "velocity": 127,
      "chip": "ym2612"
    },
    {
      "channel": 0,
      "note": 52,
      "start": 8.8346,
      "duration": 0.3832,
      "velocity": 88,
      "chip": "ym2612"
    },
    {
      "channel": 2,
      "note": 30,
      "start": 8.835,
      "duration": 0.1831,
      "velocity": 127,
      "chip": "ym2612"
    },
    {
      "channel": 1,
      "note": 75,
      "start": 9.0348,
      "duration": 0.1833,
      "velocity": 83,
      "chip": "ym2612"
    },
    {
      "channel": 2,
      "note": 30,
      "start": 9.035,
      "duration": 0.1833,
      "velocity": 127,
      "chip": "ym2612"
    },
    {
      "channel": 2,
      "note": 30,
      "start": 9.2362,
      "duration": 0.1821,
      "velocity": 127,
      "chip": "ym2612"
    },
    {
      "channel": 0,
      "note": 52,
      "start": 9.4345,
      "duration": 0.1833,
      "velocity": 88,
      "chip": "ym2612"
    },
    {
      "channel": 1,
      "note": 74,
      "start": 9.4348,
      "duration": 0.1833,
      "velocity": 83,
      "chip": "ym2612"
    },
    {
      "channel": 2,
      "note": 42,
      "start": 9.435,
      "duration": 0.1832,
      "velocity": 127,
      "chip": "ym2612"
    },
    {
      "channel": 0,
      "note": 52,
      "start": 9.6348,
      "duration": 0.3831,
      "velocity": 88,
      "chip": "ym2612"
    },
    {
      "channel": 2,
      "note": 42,
      "start": 9.6365,
      "duration": 0.1817,
      "velocity": 127,
      "chip": "ym2612"
    },
    {
      "channel": 1,
      "note": 71,
      "start": 9.8348,
      "duration": 0.1833,
      "velocity": 83,
      "chip": "ym2612"
    },
    {
      "channel": 2,
      "note": 30,
      "start": 9.835,
      "duration": 0.1833,
      "velocity": 127,
      "chip": "ym2612"
    },
    {
      "channel": 2,
      "note": 30,
      "start": 10.0361,
      "duration": 0.1821,
      "velocity": 127,
      "chip": "ym2612"
    },
    {
      "channel": 0,
      "note": 52,
      "start": 10.2347,
      "duration": 0.183,
      "velocity": 88,
      "chip": "ym2612"
    },
    {
      "channel": 1,
      "note": 69,
      "start": 10.2349,
      "duration": 0.3831,
      "velocity": 83,
      "chip": "ym2612"
    },
    {
      "channel": 2,
      "note": 42,
      "start": 10.2367,
      "duration": 0.1814,
      "velocity": 127,
      "chip": "ym2612"
    },
    {
      "channel": 2,
      "note": 30,
      "start": 10.4348,
      "duration": 0.1835,
      "velocity": 127,
      "chip": "ym2612"
    },
    {
      "channel": 0,
      "note": 52,
      "start": 10.6346,
      "duration": 0.1832,
      "velocity": 88,
      "chip": "ym2612"
    },
    {
      "channel": 1,
      "note": 67,
      "start": 10.6349,
      "duration": 0.5831,
      "velocity": 83,
      "chip": "ym2612"
    },
    {
      "channel": 2,
      "note": 30,
      "start": 10.6351,
      "duration": 0.1831,
      "velocity": 127,
      "chip": "ym2612"
    },
    {
      "channel": 0,
      "note": 52,
      "start": 10.8346,
      "duration": 0.1833,
      "velocity": 88,
      "chip": "ym2612"
    },
    {
      "channel": 2,
      "note": 30,
      "start": 10.8364,
      "duration": 0.1818,
      "velocity": 127,
      "chip": "ym2612"
    },
    {
      "channel": 0,
      "note": 52,
      "start": 11.0346,
      "duration": 0.1832,
      "velocity": 88,
      "chip": "ym2612"
    },
    {
      "channel": 2,
      "note": 42,
      "start": 11.035,
      "duration": 0.1831,
      "velocity": 127,
      "chip": "ym2612"
    },
    {
      "channel": 0,
      "note": 52,
      "start": 11.2347,
      "duration": 0.3831,
      "velocity": 88,
      "chip": "ym2612"
    },
    {
      "channel": 2,
      "note": 42,
      "start": 11.2365,
      "duration": 0.1817,
      "velocity": 127,
      "chip": "ym2612"
    },
    {
      "channel": 2,
      "note": 30,
      "start": 11.4348,
      "duration": 0.1835,
      "velocity": 127,
      "chip": "ym2612"
    },
    {
      "channel": 1,
      "note": 63,
      "start": 11.6348,
      "duration": 0.1832,
      "velocity": 83,
      "chip": "ym2612"
    },
    {
      "channel": 2,
      "note": 30,
      "start": 11.6364,
      "duration": 0.1818,
      "velocity": 127,
      "chip": "ym2612"
    },
    {
      "channel": 0,
      "note": 52,
      "start": 11.8346,
      "duration": 0.1824,
      "velocity": 88,
      "chip": "ym2612"
    },
    {
      "channel": 1,
      "note": 69,
      "start": 11.8348,
      "duration": 0.1824,
      "velocity": 83,
      "chip": "ym2612"
    },
    {
      "channel": 2,
      "note": 42,
      "start": 11.8365,
      "duration": 0.1809,
      "velocity": 127,
      "chip": "ym2612"
    },
    {
      "channel": 0,
      "note": 52,
      "start": 12.0338,
      "duration": 0.3833,
      "velocity": 88,
      "chip": "ym2612"
    },
    {
      "channel": 1,
      "note": 67,
      "start": 12.0341,
      "duration": 0.1831,
      "velocity": 83,
      "chip": "ym2612"
    },
    {
      "channel": 2,
      "note": 30,
      "start": 12.0343,
      "duration": 0.1832,
      "velocity": 127,
      "chip": "ym2612"
    },
    {
      "channel": 1,
      "note": 71,
      "start": 12.2339,
      "duration": 0.1833,
      "velocity": 83,
      "chip": "ym2612"
    },
    {
      "channel": 2,
      "note": 30,
      "start": 12.2342,
      "duration": 0.1833,
      "velocity": 127,
      "chip": "ym2612"
    },
    {
      "channel": 1,
      "note": 69,
      "start": 12.4339,
      "duration": 0.1841,
      "velocity": 83,
      "chip": "ym2612"
    },
    {
      "channel": 2,
      "note": 30,
      "start": 12.4356,
      "duration": 0.1826,
      "velocity": 127,
      "chip": "ym2612"
    },
    {
      "channel": 0,
      "note": 52,
      "start": 12.6346,
      "duration": 0.1832,
      "velocity": 88,
      "chip": "ym2612"
    },
    {
      "channel": 1,
      "note": 62,
      "start": 12.6349,
      "duration": 1.1831,
      "velocity": 83,
      "chip": "ym2612"
    },
    {
      "channel": 2,
      "note": 42,
      "start": 12.6351,
      "duration": 0.1831,
      "velocity": 127,
      "chip": "ym2612"
    },
    {
      "channel": 0,
      "note": 52,
      "start": 12.8346,
      "duration": 0.3832,
      "velocity": 88,
      "chip": "ym2612"
    },
    {
      "channel": 2,
      "note": 42,
      "start": 12.8365,
      "duration": 0.1817,
      "velocity": 127,
      "chip": "ym2612"
    },
    {
      "channel": 2,
      "note": 30,
      "start": 13.0348,
      "duration": 0.1834,
      "velocity": 127,
      "chip": "ym2612"
    },
    {
      "channel": 2,
      "note": 30,
      "start": 13.2363,
      "duration": 0.182,
      "velocity": 127,
      "chip": "ym2612"
    },
    {
      "channel": 0,
      "note": 52,
      "start": 13.4346,
      "duration": 0.1832,
      "velocity": 88,
      "chip": "ym2612"
    },
    {
      "channel": 2,
      "note": 42,
      "start": 13.4365,
      "duration": 0.1817,
      "velocity": 127,
      "chip": "ym2612"
    },
    {
      "channel": 2,
      "note": 30,
      "start": 13.6348,
      "duration": 0.1834,
      "velocity": 127,
      "chip": "ym2612"
    },
    {
      "channel": 0,
      "note": 52,
      "start": 13.8346,
      "duration": 0.1832,
      "velocity": 88,
      "chip": "ym2612"
    },
    {
      "channel": 2,
      "note": 30,
      "start": 13.8349,
      "duration": 0.1833,
      "velocity": 127,
      "chip": "ym2612"
    },
    {
      "channel": 0,
      "note": 52,
      "start": 14.0346,
      "duration": 0.1832,
      "velocity": 88,
      "chip": "ym2612"
    },
    {
      "channel": 1,
      "note": 64,
      "start": 14.0348,
      "duration": 0.1832,
      "velocity": 83,
      "chip": "ym2612"
    },
    {
      "channel": 2,
      "note": 30,
      "start": 14.0365,
      "duration": 0.1817,
      "velocity": 127,
      "chip": "ym2612"
    },
    {
      "channel": 0,
      "note": 52,
      "start": 14.2346,
      "duration": 0.1833,
      "velocity": 88,
      "chip": "ym2612"
    },
    {
      "channel": 1,
      "note": 62,
      "start": 14.2348,
      "duration": 0.1833,
      "velocity": 83,
      "chip": "ym2612"
    },
    {
      "channel": 2,
      "note": 42,
      "start": 14.2351,
      "duration": 0.1833,
      "velocity": 127,
      "chip": "ym2612"
    },
    {
      "channel": 0,
      "note": 52,
      "start": 14.4348,
      "duration": 0.383,
      "velocity": 88,
      "chip": "ym2612"
    },
    {
      "channel": 1,
      "note": 64,
      "start": 14.4351,
      "duration": 0.9829,
      "velocity": 83,
      "chip": "ym2612"
    },
    {
      "channel": 2,
      "note": 42,
      "start": 14.4368,
      "duration": 0.1814,
      "velocity": 127,
      "chip": "ym2612"
    },
    {
      "channel": 2,
      "note": 30,
      "start": 14.6348,
      "duration": 0.1834,
      "velocity": 127,
      "chip": "ym2612"
    },
    {
      "channel": 2,
      "note": 30,
      "start": 14.8363,
      "duration": 0.1819,
      "velocity": 127,
      "chip": "ym2612"
    },
    {
      "channel": 0,
      "note": 48,
      "start": 15.0345,
      "duration": 0.1833,
      "velocity": 88,
      "chip": "ym2612"
    },
    {
      "channel": 2,
      "note": 42,
      "start": 15.0363,
      "duration": 0.1819,
      "velocity": 127,
      "chip": "ym2612"
    },
    {
      "channel": 0,
      "note": 48,
      "start": 15.2346,
      "duration": 0.3833,
      "velocity": 88,
      "chip": "ym2612"
    },
    {
      "channel": 2,
      "note": 30,
      "start": 15.2349,
      "duration": 0.1833,
      "velocity": 127,
      "chip": "ym2612"
    },
    {
      "channel": 1,
      "note": 75,
      "start": 15.4347,
      "duration": 0.3834,
      "velocity": 83,
      "chip": "ym2612"
    },
    {
      "channel": 2,
      "note": 30,
      "start": 15.4349,
      "duration": 0.1833,
      "velocity": 127,
      "chip": "ym2612"
    },
    {
      "channel": 2,
      "note": 30,
      "start": 15.6363,
      "duration": 0.182,
      "velocity": 127,
      "chip": "ym2612"
    },
    {
      "channel": 0,
      "note": 48,
      "start": 15.8346,
      "duration": 0.1825,
      "velocity": 88,
      "chip": "ym2612"
    },
    {
      "channel": 1,
      "note": 74,
      "start": 15.8348,
      "duration": 0.3824,
      "velocity": 83,
      "chip": "ym2612"
    },
    {
      "channel": 2,
      "note": 42,
      "start": 15.8351,
      "duration": 0.1824,
      "velocity": 127,
      "chip": "ym2612"
    },
    {
      "channel": 0,
      "note": 48,
      "start": 16.0339,
      "duration": 0.3831,
      "velocity": 88,
      "chip": "ym2612"
    },
    {
      "channel": 2,
      "note": 42,
      "start": 16.0358,
      "duration": 0.1816,
      "velocity": 127,
      "chip": "ym2612"
    },
    {
      "channel": 1,
      "note": 69,
      "start": 16.2341,
      "duration": 0.1831,
      "velocity": 83,
      "chip": "ym2612"
    },
    {
      "channel": 2,
      "note": 30,
      "start": 16.2343,
      "duration": 0.1832,
      "velocity": 127,
      "chip": "ym2612"
    },
    {
      "channel": 2,
      "note": 30,
      "start": 16.4355,
      "duration": 0.1831,
      "velocity": 127,
      "chip": "ym2612"
    },
    {
      "channel": 1,
      "note": 67,
      "start": 16.6352,
      "duration": 0.3846,
      "velocity": 83,
      "chip": "ym2612"
    },
    {
      "channel": 2,
      "note": 42,
      "start": 16.6369,
      "duration": 0.1817,
      "velocity": 127,
      "chip": "ym2612"
    },
    {
      "channel": 0,
      "note": 48,
      "start": 16.835,
      "duration": 0.3847,
      "velocity": 88,
      "chip": "ym2612"
    },
    {
      "channel": 2,
      "note": 30,
      "start": 16.8355,
      "duration": 0.1845,
      "velocity": 127,
      "chip": "ym2612"
    },
    {
      "channel": 1,
      "note": 64,
      "start": 17.0365,
      "duration": 0.1833,
      "velocity": 83,
      "chip": "ym2612"
    },
    {
      "channel": 2,
      "note": 30,
      "start": 17.0368,
      "duration": 0.1833,
      "velocity": 127,
      "chip": "ym2612"
    },
    {
      "channel": 0,
      "note": 48,
      "start": 17.2363,
      "duration": 0.3819,
      "velocity": 88,
      "chip": "ym2612"
    },
    {
      "channel": 1,
      "note": 69,
      "start": 17.2366,
      "duration": 0.1832,
      "velocity": 83,
      "chip": "ym2612"
    },
    {
      "channel": 2,
      "note": 30,
      "start": 17.2383,
      "duration": 0.1817,
      "velocity": 127,
      "chip": "ym2612"
    },
    {
      "channel": 1,
      "note": 67,
      "start": 17.4365,
      "duration": 3.1814,
      "velocity": 83,
      "chip": "ym2612"
    },
    {
      "channel": 2,
      "note": 42,
      "start": 17.4368,
      "duration": 0.1819,
      "velocity": 127,
      "chip": "ym2612"
    },
    {
      "channel": 0,
      "note": 48,
      "start": 17.6351,
      "duration": 0.3845,
      "velocity": 88,
      "chip": "ym2612"
    },
    {
      "channel": 2,
      "note": 42,
      "start": 17.6371,
      "duration": 0.1815,
      "velocity": 127,
      "chip": "ym2612"
    },
    {
      "channel": 2,
      "note": 30,
      "start": 17.8353,
      "duration": 0.1847,
      "velocity": 127,
      "chip": "ym2612"
    },
    {
      "channel": 2,
      "note": 30,
      "start": 18.0381,
      "duration": 0.182,
      "velocity": 127,
      "chip": "ym2612"
    },
    {
      "channel": 0,
      "note": 52,
      "start": 18.2364,
      "duration": 0.1832,
      "velocity": 88,
      "chip": "ym2612"
    },
    {
      "channel": 2,
      "note": 42,
      "start": 18.2383,
      "duration": 0.1817,
      "velocity": 127,
      "chip": "ym2612"
    },
    {
      "channel": 0,
      "note": 52,
      "start": 18.4363,
      "duration": 0.1819,
      "velocity": 88,
      "chip": "ym2612"
    },
    {
      "channel": 2,
      "note": 30,
      "start": 18.4368,
      "duration": 0.1819,
      "velocity": 127,
      "chip": "ym2612"
    },
    {
      "channel": 0,
      "note": 52,
      "start": 18.635,
      "duration": 0.1833,
      "velocity": 88,
      "chip": "ym2612"
    },
    {
      "channel": 2,
      "note": 30,
      "start": 18.6354,
      "duration": 0.1833,
      "velocity": 127,
      "chip": "ym2612"
    },
    {
      "channel": 2,
      "note": 30,
      "start": 18.8367,
      "duration": 0.1819,
      "velocity": 127,
      "chip": "ym2612"
    },
    {
      "channel": 2,
      "note": 42,
      "start": 19.0353,
      "duration": 0.1847,
      "velocity": 127,
      "chip": "ym2612"
    },
    {
      "channel": 0,
      "note": 50,
      "start": 19.2365,
      "duration": 0.3817,
      "velocity": 88,
      "chip": "ym2612"
    },
    {
      "channel": 2,
      "note": 42,
      "start": 19.2384,
      "duration": 0.1815,
      "velocity": 127,
      "chip": "ym2612"
    },
    {
      "channel": 2,
      "note": 30,
      "start": 19.4367,
      "duration": 0.1819,
      "velocity": 127,
      "chip": "ym2612"
    },
    {
      "channel": 2,
      "note": 30,
      "start": 19.6367,
      "duration": 0.1819,
      "velocity": 127,
      "chip": "ym2612"
    },
    {
      "channel": 0,
      "note": 52,
      "start": 19.835,
      "duration": 0.1832,
      "velocity": 88,
      "chip": "ym2612"
    },
    {
      "channel": 2,
      "note": 42,
      "start": 19.8368,
      "duration": 0.1817,
      "velocity": 127,
      "chip": "ym2612"
    },
    {
      "channel": 0,
      "note": 52,
      "start": 20.0339,
      "duration": 0.1832,
      "velocity": 88,
      "chip": "ym2612"
    },
    {
      "channel": 2,
      "note": 30,
      "start": 20.0342,
      "duration": 0.1832,
      "velocity": 127,
      "chip": "ym2612"
    },
    {
      "channel": 0,
      "note": 52,
      "start": 20.2337,
      "duration": 0.1833,
      "velocity": 88,
      "chip": "ym2612"
    },
    {
      "channel": 2,
      "note": 30,
      "start": 20.2341,
      "duration": 0.1833,
      "velocity": 127,
      "chip": "ym2612"
    },
    {
      "channel": 2,
      "note": 30,
      "start": 20.4356,
      "duration": 0.1826,
      "velocity": 127,
      "chip": "ym2612"
    },
    {
      "channel": 1,
      "note": 64,
      "start": 20.6348,
      "duration": 0.9832,
      "velocity": 83,
      "chip": "ym2612"
    },
    {
      "channel": 2,
      "note": 42,
      "start": 20.6351,
      "duration": 0.1832,
      "velocity": 127,
      "chip": "ym2612"
    },
    {
      "channel": 0,
      "note": 50,
      "start": 20.8348,
      "duration": 0.3831,
      "velocity": 88,
      "chip": "ym2612"
    },
    {
      "channel": 2,
      "note": 42,
      "start": 20.8366,
      "duration": 0.1817,
      "velocity": 127,
      "chip": "ym2612"
    },
    {
      "channel": 2,
      "note": 30,
      "start": 21.0349,
      "duration": 0.1833,
      "velocity": 127,
      "chip": "ym2612"
    },
    {
      "channel": 2,
      "note": 30,
      "start": 21.2363,
      "duration": 0.1819,
      "velocity": 127,
      "chip": "ym2612"
    },
    {
      "channel": 0,
      "note": 48,
      "start": 21.4345,
      "duration": 0.1833,
      "velocity": 88,
      "chip": "ym2612"
    },
    {
      "channel": 2,
      "note": 42,
      "start": 21.4363,
      "duration": 0.1819,
      "velocity": 127,
      "chip": "ym2612"
    },
    {
      "channel": 0,
      "note": 48,
      "start": 21.6346,
      "duration": 0.3833,
      "velocity": 88,
      "chip": "ym2612"
    },
    {
      "channel": 1,
      "note": 59,
      "start": 21.6349,
      "duration": 0.1833,
      "velocity": 83,
      "chip": "ym2612"
    },
    {
      "channel": 2,
      "note": 30,
      "start": 21.6351,
      "duration": 0.1832,
      "velocity": 127,
      "chip": "ym2612"
    },
    {
      "channel": 2,
      "note": 30,
      "start": 21.835,
      "duration": 0.1834,
      "velocity": 127,
      "chip": "ym2612"
    },
    {
      "channel": 1,
      "note": 67,
      "start": 22.0349,
      "duration": 0.1833,
      "velocity": 83,
      "chip": "ym2612"
    },
    {
      "channel": 2,
      "note": 30,
      "start": 22.0366,
      "duration": 0.1817,
      "velocity": 127,
      "chip": "ym2612"
    },
    {
      "channel": 0,
      "note": 48,
      "start": 22.2348,
      "duration": 0.1831,
      "velocity": 88,
      "chip": "ym2612"
    },
    {
      "channel": 1,
      "note": 74,
      "start": 22.235,
      "duration": 0.3829,
      "velocity": 83,
      "chip": "ym2612"
    },
    {
      "channel": 2,
      "note": 42,
      "start": 22.2353,
      "duration": 0.1829,
      "velocity": 127,
      "chip": "ym2612"
    },
    {
      "channel": 0,
      "note": 48,
      "start": 22.4347,
      "duration": 0.3833,
      "velocity": 88,
      "chip": "ym2612"
    },
    {
      "channel": 2,
      "note": 42,
      "start": 22.4365,
      "duration": 0.382,
      "velocity": 127,
      "chip": "ym2612"
    },
    {
      "channel": 1,
      "note": 67,
      "start": 22.6347,
      "duration": 0.1835,
      "velocity": 83,
      "chip": "ym2612"
    },
    {
      "channel": 2,
      "note": 30,
      "start": 22.8363,
      "duration": 0.182,
      "velocity": 127,
      "chip": "ym2612"
    },
    {
      "channel": 1,
      "note": 64,
      "start": 23.0349,
      "duration": 0.3829,
      "velocity": 83,
      "chip": "ym2612"
    },
    {
      "channel": 2,
      "note": 42,
      "start": 23.0367,
      "duration": 0.1816,
      "velocity": 127,
      "chip": "ym2612"
    },
    {
      "channel": 0,
      "note": 48,
      "start": 23.2348,
      "duration": 0.383,
      "velocity": 88,
      "chip": "ym2612"
    },
    {
      "channel": 2,
      "note": 30,
      "start": 23.2352,
      "duration": 0.1829,
      "velocity": 127,
      "chip": "ym2612"
    },
    {
      "channel": 1,
      "note": 64,
      "start": 23.4346,
      "duration": 0.3833,
      "velocity": 83,
      "chip": "ym2612"
    },
    {
      "channel": 2,
      "note": 30,
      "start": 23.4349,
      "duration": 0.1833,
      "velocity": 127,
      "chip": "ym2612"
    },
    {
      "channel": 0,
      "note": 48,
      "start": 23.6345,
      "duration": 0.3834,
      "velocity": 88,
      "chip": "ym2612"
    },
    {
      "channel": 2,
      "note": 30,
      "start": 23.6363,
      "duration": 0.1819,
      "velocity": 127,
      "chip": "ym2612"
    },
    {
      "channel": 1,
      "note": 62,
      "start": 23.8347,
      "duration": 0.3824,
      "velocity": 83,
      "chip": "ym2612"
    },
    {
      "channel": 2,
      "note": 42,
      "start": 23.8364,
      "duration": 0.1819,
      "velocity": 127,
      "chip": "ym2612"
    },
    {
      "channel": 0,
      "note": 48,
      "start": 24.0348,
      "duration": 0.3822,
      "velocity": 88,
      "chip": "ym2612"
    },
    {
      "channel": 2,
      "note": 30,
      "start": 24.0366,
      "duration": 0.1808,
      "velocity": 127,
      "chip": "ym2612"
    },
    {
      "channel": 1,
      "note": 64,
      "start": 24.234,
      "duration": 0.1832,
      "velocity": 83,
      "chip": "ym2612"
    },
    {
      "channel": 2,
      "note": 30,
      "start": 24.2342,
      "duration": 0.1832,
      "velocity": 127,
      "chip": "ym2612"
    },
    {
      "channel": 2,
      "note": 30,
      "start": 24.4355,
      "duration": 0.1842,
      "velocity": 127,
      "chip": "ym2612"
    },
    {
      "channel": 0,
      "note": 52,
      "start": 24.6359,
      "duration": 0.1833,
      "velocity": 88,
      "chip": "ym2612"
    },
    {
      "channel": 1,
      "note": 64,
      "start": 24.6361,
      "duration": 0.1832,
      "velocity": 83,
      "chip": "ym2612"
    },
    {
      "channel": 2,
      "note": 42,
      "start": 24.6379,
      "duration": 0.1817,
      "velocity": 127,
      "chip": "ym2612"
    },
    {
      "channel": 0,
      "note": 52,
      "start": 24.836,
      "duration": 0.3818,
      "velocity": 88,
      "chip": "ym2612"
    },
    {
      "channel": 1,
      "note": 76,
      "start": 24.8362,
      "duration": 0.1817,
      "velocity": 83,
      "chip": "ym2612"
    },
    {
      "channel": 2,
      "note": 30,
      "start": 24.8365,
      "duration": 0.1817,
      "velocity": 127,
      "chip": "ym2612"
    },
    {
      "channel": 2,
      "note": 30,
      "start": 25.0348,
      "duration": 0.1834,
      "velocity": 127,
      "chip": "ym2612"
    },
    {
      "channel": 1,
      "note": 67,
      "start": 25.2347,
      "duration": 0.1833,
      "velocity": 83,
      "chip": "ym2612"
    },
    {
      "channel": 2,
      "note": 30,
      "start": 25.2364,
      "duration": 0.1817,
      "velocity": 127,
      "chip": "ym2612"
    },
    {
      "channel": 0,
      "note": 52,
      "start": 25.4359,
      "duration": 0.1833,
      "velocity": 88,
      "chip": "ym2612"
    },
    {
      "channel": 1,
      "note": 74,
      "start": 25.4361,
      "duration": 0.1832,
      "velocity": 83,
      "chip": "ym2612"
    },
    {
      "channel": 2,
      "note": 42,
      "start": 25.4364,
      "duration": 0.1831,
      "velocity": 127,
      "chip": "ym2612"
    },
    {
      "channel": 0,
      "note": 52,
      "start": 25.6361,
      "duration": 0.3817,
      "velocity": 88,
      "chip": "ym2612"
    },
    {
      "channel": 2,
      "note": 42,
      "start": 25.6379,
      "duration": 0.1817,
      "velocity": 127,
      "chip": "ym2612"
    },
    {
      "channel": 1,
      "note": 71,
      "start": 25.8361,
      "duration": 1.5817,
      "velocity": 83,
      "chip": "ym2612"
    },
    {
      "channel": 2,
      "note": 30,
      "start": 25.8364,
      "duration": 0.1818,
      "velocity": 127,
      "chip": "ym2612"
    },
    {
      "channel": 2,
      "note": 30,
      "start": 26.0363,
      "duration": 0.1819,
      "velocity": 127,
      "chip": "ym2612"
    },
    {
      "channel": 0,
      "note": 52,
      "start": 26.2345,
      "duration": 0.1833,
      "velocity": 88,
      "chip": "ym2612"
    },
    {
      "channel": 2,
      "note": 42,
      "start": 26.2363,
      "duration": 0.1819,
      "velocity": 127,
      "chip": "ym2612"
    },
    {
      "channel": 2,
      "note": 30,
      "start": 26.4347,
      "duration": 0.1849,
      "velocity": 127,
      "chip": "ym2612"
    },
    {
      "channel": 0,
      "note": 52,
      "start": 26.636,
      "duration": 0.1833,
      "velocity": 88,
      "chip": "ym2612"
    },
    {
      "channel": 2,
      "note": 30,
      "start": 26.6363,
      "duration": 0.1833,
      "velocity": 127,
      "chip": "ym2612"
    },
    {
      "channel": 0,
      "note": 52,
      "start": 26.836,
      "duration": 0.1832,
      "velocity": 88,
      "chip": "ym2612"
    },
    {
      "channel": 2,
      "note": 30,
      "start": 26.8378,
      "duration": 0.1817,
      "velocity": 127,
      "chip": "ym2612"
    },
    {
      "channel": 0,
      "note": 52,
      "start": 27.0345,
      "duration": 0.1833,
      "velocity": 88,
      "chip": "ym2612"
    },
    {
      "channel": 2,
      "note": 42,
      "start": 27.0349,
      "duration": 0.1832,
      "velocity": 127,
      "chip": "ym2612"
    },
    {
      "channel": 0,
      "note": 50,
      "start": 27.2347,
      "duration": 0.3845,
      "velocity": 88,
      "chip": "ym2612"
    },
    {
      "channel": 2,
      "note": 42,
      "start": 27.2365,
      "duration": 0.1816,
      "velocity": 127,
      "chip": "ym2612"
    },
    {
      "channel": 1,
      "note": 64,
      "start": 27.4348,
      "duration": 0.3846,
      "velocity": 83,
      "chip": "ym2612"
    },
    {
      "channel": 2,
      "note": 30,
      "start": 27.435,
      "duration": 0.1846,
      "velocity": 127,
      "chip": "ym2612"
    },
    {
      "channel": 2,
      "note": 30,
      "start": 27.6377,
      "duration": 0.1819,
      "velocity": 127,
      "chip": "ym2612"
    },
    {
      "channel": 0,
      "note": 48,
      "start": 27.836,
      "duration": 0.1832,
      "velocity": 88,
      "chip": "ym2612"
    },
    {
      "channel": 1,
      "note": 62,
      "start": 27.8362,
      "duration": 0.381,
      "velocity": 83,
      "chip": "ym2612"
    },
    {
      "channel": 2,
      "note": 42,
      "start": 27.8379,
      "duration": 0.1815,
      "velocity": 127,
      "chip": "ym2612"
    },
    {
      "channel": 0,
      "note": 48,
      "start": 28.036,
      "duration": 0.381,
      "velocity": 88,
      "chip": "ym2612"
    },
    {
      "channel": 2,
      "note": 30,
      "start": 28.0364,
      "duration": 0.181,
      "velocity": 127,
      "chip": "ym2612"
    },
    {
      "channel": 1,
      "note": 67,
      "start": 28.234,
      "duration": 0.384,
      "velocity": 83,
      "chip": "ym2612"
    },
    {
      "channel": 2,
      "note": 30,
      "start": 28.2342,
      "duration": 0.1832,
      "velocity": 127,
      "chip": "ym2612"
    },
    {
      "channel": 0,
      "note": 48,
      "start": 28.4339,
      "duration": 0.3839,
      "velocity": 88,
      "chip": "ym2612"
    },
    {
      "channel": 2,
      "note": 30,
      "start": 28.4357,
      "duration": 0.1825,
      "velocity": 127,
      "chip": "ym2612"
    },
    {
      "channel": 1,
      "note": 64,
      "start": 28.6348,
      "duration": 0.3832,
      "velocity": 83,
      "chip": "ym2612"
    },
    {
      "channel": 2,
      "note": 42,
      "start": 28.635,
      "duration": 0.1831,
      "velocity": 127,
      "chip": "ym2612"
    },
    {
      "channel": 0,
      "note": 48,
      "start": 28.8346,
      "duration": 0.3832,
      "velocity": 88,
      "chip": "ym2612"
    },
    {
      "channel": 2,
      "note": 42,
      "start": 28.8365,
      "duration": 0.1817,
      "velocity": 127,
      "chip": "ym2612"
    },
    {
      "channel": 1,
      "note": 62,
      "start": 29.0348,
      "duration": 0.3832,
      "velocity": 83,
      "chip": "ym2612"
    },
    {
      "channel": 2,
      "note": 30,
      "start": 29.035,
      "duration": 0.1832,
      "velocity": 127,
      "chip": "ym2612"
    },
    {
      "channel": 2,
      "note": 30,
      "start": 29.2363,
      "duration": 0.1819,
      "velocity": 127,
      "chip": "ym2612"
    },
    {
      "channel": 0,
      "note": 46,
      "start": 29.4346,
      "duration": 0.1833,
      "velocity": 88,
      "chip": "ym2612"
    },
    {
      "channel": 1,
      "note": 65,
      "start": 29.4348,
      "duration": 0.3832,
      "velocity": 83,
      "chip": "ym2612"
    },
    {
      "channel": 2,
      "note": 42,
      "start": 29.4365,
      "duration": 0.1817,
      "velocity": 127,
      "chip": "ym2612"
    },
    {
      "channel": 0,
      "note": 46,
      "start": 29.6346,
      "duration": 0.3832,
      "velocity": 88,
      "chip": "ym2612"
    },
    {
      "channel": 2,
      "note": 30,
      "start": 29.635,
      "duration": 0.1832,
      "velocity": 127,
      "chip": "ym2612"
    },
    {
      "channel": 1,
      "note": 70,
      "start": 29.8348,
      "duration": 0.3832,
      "velocity": 83,
      "chip": "ym2612"
    },
    {
      "channel": 2,
      "note": 30,
      "start": 29.835,
      "duration": 0.1831,
      "velocity": 127,
      "chip": "ym2612"
    },
    {
      "channel": 0,
      "note": 53,
      "start": 30.0346,
      "duration": 0.3832,
      "velocity": 88,
      "chip": "ym2612"
    },
    {
      "channel": 2,
      "note": 30,
      "start": 30.0365,
      "duration": 0.1817,
      "velocity": 127,
      "chip": "ym2612"
    },
    {
      "channel": 1,
      "note": 74,
      "start": 30.2348,
      "duration": 0.1833,
      "velocity": 83,
      "chip": "ym2612"
    },
    {
      "channel": 2,
      "note": 42,
      "start": 30.235,
      "duration": 0.1833,
      "velocity": 127,
      "chip": "ym2612"
    },
    {
      "channel": 0,
      "note": 53,
      "start": 30.4348,
      "duration": 0.383,
      "velocity": 88,
      "chip": "ym2612"
    },
    {
      "channel": 1,
      "note": 74,
      "start": 30.435,
      "duration": 3.183,
      "velocity": 83,
      "chip": "ym2612"
    },
    {
      "channel": 2,
      "note": 42,
      "start": 30.4367,
      "duration": 0.1814,
      "velocity": 127,
      "chip": "ym2612"
    },
    {
      "channel": 2,
      "note": 30,
      "start": 30.6349,
      "duration": 0.1833,
      "velocity": 127,
      "chip": "ym2612"
    },
    {
      "channel": 2,
      "note": 30,
      "start": 30.8363,
      "duration": 0.1819,
      "velocity": 127,
      "chip": "ym2612"
    },
    {
      "channel": 0,
      "note": 52,
      "start": 31.0346,
      "duration": 0.1832,
      "velocity": 88,
      "chip": "ym2612"
    },
    {
      "channel": 2,
      "note": 42,
      "start": 31.0364,
      "duration": 0.1817,
      "velocity": 127,
      "chip": "ym2612"
    },
    {
      "channel": 0,
      "note": 52,
      "start": 31.2346,
      "duration": 0.3832,
      "velocity": 88,
      "chip": "ym2612"
    },
    {
      "channel": 2,
      "note": 30,
      "start": 31.235,
      "duration": 0.1832,
      "velocity": 127,
      "chip": "ym2612"
    },
    {
      "channel": 2,
      "note": 30,
      "start": 31.4349,
      "duration": 0.1833,
      "velocity": 127,
      "chip": "ym2612"
    },
    {
      "channel": 2,
      "note": 30,
      "start": 31.6363,
      "duration": 0.1818,
      "velocity": 127,
      "chip": "ym2612"
    },
    {
      "channel": 0,
      "note": 52,
      "start": 31.8345,
      "duration": 0.1832,
      "velocity": 88,
      "chip": "ym2612"
    },
    {
      "channel": 2,
      "note": 42,
      "start": 31.8349,
      "duration": 0.1832,
      "velocity": 127,
      "chip": "ym2612"
    },
    {
      "channel": 0,
      "note": 52,
      "start": 32.0346,
      "duration": 0.3824,
      "velocity": 88,
      "chip": "ym2612"
    },
    {
      "channel": 2,
      "note": 42,
      "start": 32.0365,
      "duration": 0.1808,
      "velocity": 127,
      "chip": "ym2612"
    },
    {
      "channel": 2,
      "note": 30,
      "start": 32.2341,
      "duration": 0.1833,
      "velocity": 127,
      "chip": "ym2612"
    },
    {
      "channel": 2,
      "note": 30,
      "start": 32.4355,
      "duration": 0.1827,
      "velocity": 127,
      "chip": "ym2612"
    },
    {
      "channel": 0,
      "note": 52,
      "start": 32.6346,
      "duration": 0.1832,
      "velocity": 88,
      "chip": "ym2612"
    },
    {
      "channel": 2,
      "note": 42,
      "start": 32.6364,
      "duration": 0.1817,
      "velocity": 127,
      "chip": "ym2612"
    },
    {
      "channel": 2,
      "note": 30,
      "start": 32.8348,
      "duration": 0.1835,
      "velocity": 127,
      "chip": "ym2612"
    },
    {
      "channel": 0,
      "note": 52,
      "start": 33.0346,
      "duration": 0.1833,
      "velocity": 88,
      "chip": "ym2612"
    },
    {
      "channel": 2,
      "note": 30,
      "start": 33.035,
      "duration": 0.1832,
      "velocity": 127,
      "chip": "ym2612"
    },
    {
      "channel": 0,
      "note": 52,
      "start": 33.2346,
      "duration": 0.1832,
      "velocity": 88,
      "chip": "ym2612"
    },
    {
      "channel": 2,
      "note": 30,
      "start": 33.2365,
      "duration": 0.1817,
      "velocity": 127,
      "chip": "ym2612"
    },
    {
      "channel": 0,
      "note": 50,
      "start": 33.4345,
      "duration": 0.1833,
      "velocity": 88,
      "chip": "ym2612"
    },
    {
      "channel": 2,
      "note": 42,
      "start": 33.4349,
      "duration": 0.1833,
      "velocity": 127,
      "chip": "ym2612"
    },
    {
      "channel": 0,
      "note": 52,
      "start": 33.6363,
      "duration": 0.3815,
      "velocity": 88,
      "chip": "ym2612"
    },
    {
      "channel": 1,
      "note": 76,
      "start": 33.638,
      "duration": 0.98,
      "velocity": 83,
      "chip": "ym2612"
    },
    {
      "channel": 2,
      "note": 42,
      "start": 33.6397,
      "duration": 0.1784,
      "velocity": 127,
      "chip": "ym2612"
    },
    {
      "channel": 2,
      "note": 30,
      "start": 33.8348,
      "duration": 0.1833,
      "velocity": 127,
      "chip": "ym2612"
    },
    {
      "channel": 2,
      "note": 30,
      "start": 34.0362,
      "duration": 0.1821,
      "velocity": 127,
      "chip": "ym2612"
    },
    {
      "channel": 0,
      "note": 52,
      "start": 34.2346,
      "duration": 0.1832,
      "velocity": 88,
      "chip": "ym2612"
    },
    {
      "channel": 2,
      "note": 42,
      "start": 34.2365,
      "duration": 0.1817,
      "velocity": 127,
      "chip": "ym2612"
    },
    {
      "channel": 0,
      "note": 52,
      "start": 34.4347,
      "duration": 0.3831,
      "velocity": 88,
      "chip": "ym2612"
    },
    {
      "channel": 2,
      "note": 30,
      "start": 34.4351,
      "duration": 0.1831,
      "velocity": 127,
      "chip": "ym2612"
    },
    {
      "channel": 1,
      "note": 75,
      "start": 34.6347,
      "duration": 0.1833,
      "velocity": 83,
      "chip": "ym2612"
    },
    {
      "channel": 2,
      "note": 30,
      "start": 34.6349,
      "duration": 0.1833,
      "velocity": 127,
      "chip": "ym2612"
    },
    {
      "channel": 2,
      "note": 30,
      "start": 34.8363,
      "duration": 0.1821,
      "velocity": 127,
      "chip": "ym2612"
    },
    {
      "channel": 0,
      "note": 52,
      "start": 35.0346,
      "duration": 0.1833,
      "velocity": 88,
      "chip": "ym2612"
    },
    {
      "channel": 1,
      "note": 74,
      "start": 35.0348,
      "duration": 0.1833,
      "velocity": 83,
      "chip": "ym2612"
    },
    {
      "channel": 2,
      "note": 42,
      "start": 35.0351,
      "duration": 0.1833,
      "velocity": 127,
      "chip": "ym2612"
    },
    {
      "channel": 0,
      "note": 52,
      "start": 35.2347,
      "duration": 0.3831,
      "velocity": 88,
      "chip": "ym2612"
    },
    {
      "channel": 2,
      "note": 42,
      "start": 35.2365,
      "duration": 0.1817,
      "velocity": 127,
      "chip": "ym2612"
    },
    {
      "channel": 1,
      "note": 71,
      "start": 35.4347,
      "duration": 0.1833,
      "velocity": 83,
      "chip": "ym2612"
    },
    {
      "channel": 2,
      "note": 30,
      "start": 35.4349,
      "duration": 0.1833,
      "velocity": 127,
      "chip": "ym2612"
    },
    {
      "channel": 2,
      "note": 30,
      "start": 35.6363,
      "duration": 0.0819,
      "velocity": 127,
      "chip": "ym2612"
    },
    {
      "channel": 2,
      "note": 42,
      "start": 35.7348,
      "duration": 0.0833,
      "velocity": 127,
      "chip": "ym2612"
    },
    {
      "channel": 0,
      "note": 52,
      "start": 35.8347,
      "duration": 0.1831,
      "velocity": 88,
      "chip": "ym2612"
    },
    {
      "channel": 1,
      "note": 69,
      "start": 35.8349,
      "duration": 0.3822,
      "velocity": 83,
      "chip": "ym2612"
    },
    {
      "channel": 2,
      "note": 42,
      "start": 35.8366,
      "duration": 0.1816,
      "velocity": 127,
      "chip": "ym2612"
    },
    {
      "channel": 2,
      "note": 30,
      "start": 36.0347,
      "duration": 0.1828,
      "velocity": 127,
      "chip": "ym2612"
    },
    {
      "channel": 0,
      "note": 52,
      "start": 36.2338,
      "duration": 0.1832,
      "velocity": 88,
      "chip": "ym2612"
    },
    {
      "channel": 1,
      "note": 67,
      "start": 36.2341,
      "duration": 0.5858,
      "velocity": 83,
      "chip": "ym2612"
    },
    {
      "channel": 2,
      "note": 30,
      "start": 36.2343,
      "duration": 0.1831,
      "velocity": 127,
      "chip": "ym2612"
    },
    {
      "channel": 0,
      "note": 52,
      "start": 36.4339,
      "duration": 0.1858,
      "velocity": 88,
      "chip": "ym2612"
    },
    {
      "channel": 2,
      "note": 30,
      "start": 36.4357,
      "duration": 0.0816,
      "velocity": 127,
      "chip": "ym2612"
    },
    {
      "channel": 2,
      "note": 42,
      "start": 36.5341,
      "duration": 0.0859,
      "velocity": 127,
      "chip": "ym2612"
    },
    {
      "channel": 0,
      "note": 52,
      "start": 36.6364,
      "duration": 0.1833,
      "velocity": 88,
      "chip": "ym2612"
    },
    {
      "channel": 2,
      "note": 42,
      "start": 36.6368,
      "duration": 0.0832,
      "velocity": 127,
      "chip": "ym2612"
    },
    {
      "channel": 2,
      "note": 42,
      "start": 36.7366,
      "duration": 0.0835,
      "velocity": 127,
      "chip": "ym2612"
    },
    {
      "channel": 0,
      "note": 52,
      "start": 36.8365,
      "duration": 0.3817,
      "velocity": 88,
      "chip": "ym2612"
    },
    {
      "channel": 2,
      "note": 42,
      "start": 36.8383,
      "duration": 0.1817,
      "velocity": 127,
      "chip": "ym2612"
    },
    {
      "channel": 2,
      "note": 30,
      "start": 37.0367,
      "duration": 0.1819,
      "velocity": 127,
      "chip": "ym2612"
    },
    {
      "channel": 1,
      "note": 63,
      "start": 37.2352,
      "duration": 0.1833,
      "velocity": 83,
      "chip": "ym2612"
    },
    {
      "channel": 2,
      "note": 30,
      "start": 37.2369,
      "duration": 0.1818,
      "velocity": 127,
      "chip": "ym2612"
    },
    {
      "channel": 0,
      "note": 52,
      "start": 37.4351,
      "duration": 0.1832,
      "velocity": 88,
      "chip": "ym2612"
    },
    {
      "channel": 1,
      "note": 69,
      "start": 37.4353,
      "duration": 0.1832,
      "velocity": 83,
      "chip": "ym2612"
    },
    {
      "channel": 2,
      "note": 42,
      "start": 37.4371,
      "duration": 0.1816,
      "velocity": 127,
      "chip": "ym2612"
    },
    {
      "channel": 0,
      "note": 52,
      "start": 37.6351,
      "duration": 0.3846,
      "velocity": 88,
      "chip": "ym2612"
    },
    {
      "channel": 1,
      "note": 67,
      "start": 37.6353,
      "duration": 0.1845,
      "velocity": 83,
      "chip": "ym2612"
    },
    {
      "channel": 2,
      "note": 30,
      "start": 37.6356,
      "duration": 0.1844,
      "velocity": 127,
      "chip": "ym2612"
    },
    {
      "channel": 1,
      "note": 71,
      "start": 37.8365,
      "duration": 0.1833,
      "velocity": 83,
      "chip": "ym2612"
    },
    {
      "channel": 2,
      "note": 30,
      "start": 37.8368,
      "duration": 0.1833,
      "velocity": 127,
      "chip": "ym2612"
    },
    {
      "channel": 1,
      "note": 69,
      "start": 38.0365,
      "duration": 0.182,
      "velocity": 83,
      "chip": "ym2612"
    },
    {
      "channel": 2,
      "note": 30,
      "start": 38.0383,
      "duration": 0.1804,
      "velocity": 127,
      "chip": "ym2612"
    },
    {
      "channel": 0,
      "note": 52,
      "start": 38.235,
      "duration": 0.1833,
      "velocity": 88,
      "chip": "ym2612"
    },
    {
      "channel": 1,
      "note": 62,
      "start": 38.2353,
      "duration": 1.1832,
      "velocity": 83,
      "chip": "ym2612"
    },
    {
      "channel": 2,
      "note": 42,
      "start": 38.2355,
      "duration": 0.1832,
      "velocity": 127,
      "chip": "ym2612"
    },
    {
      "channel": 0,
      "note": 52,
      "start": 38.4351,
      "duration": 0.3845,
      "velocity": 88,
      "chip": "ym2612"
    },
    {
      "channel": 2,
      "note": 42,
      "start": 38.4371,
      "duration": 0.1815,
      "velocity": 127,
      "chip": "ym2612"
    },
    {
      "channel": 2,
      "note": 30,
      "start": 38.6353,
      "duration": 0.1847,
      "velocity": 127,
      "chip": "ym2612"
    },
    {
      "channel": 2,
      "note": 30,
      "start": 38.8381,
      "duration": 0.1819,
      "velocity": 127,
      "chip": "ym2612"
    },
    {
      "channel": 0,
      "note": 52,
      "start": 39.0365,
      "duration": 0.1832,
      "velocity": 88,
      "chip": "ym2612"
    },
    {
      "channel": 2,
      "note": 42,
      "start": 39.0383,
      "duration": 0.1817,
      "velocity": 127,
      "chip": "ym2612"
    },
    {
      "channel": 2,
      "note": 30,
      "start": 39.2366,
      "duration": 0.1821,
      "velocity": 127,
      "chip": "ym2612"
    },
    {
      "channel": 0,
      "note": 52,
      "start": 39.4349,
      "duration": 0.1833,
      "velocity": 88,
      "chip": "ym2612"
    },
    {
      "channel": 2,
      "note": 30,
      "start": 39.4353,
      "duration": 0.1835,
      "velocity": 127,
      "chip": "ym2612"
    },
    {
      "channel": 0,
      "note": 52,
      "start": 39.6349,
      "duration": 0.1847,
      "velocity": 88,
      "chip": "ym2612"
    },
    {
      "channel": 1,
      "note": 64,
      "start": 39.6352,
      "duration": 0.1847,
      "velocity": 83,
      "chip": "ym2612"
    },
    {
      "channel": 2,
      "note": 30,
      "start": 39.6369,
      "duration": 0.1832,
      "velocity": 127,
      "chip": "ym2612"
    },
    {
      "channel": 0,
      "note": 52,
      "start": 39.8364,
      "duration": 0.1833,
      "velocity": 88,
      "chip": "ym2612"
    },
    {
      "channel": 1,
      "note": 62,
      "start": 39.8367,
      "duration": 0.1832,
      "velocity": 83,
      "chip": "ym2612"
    },
    {
      "channel": 2,
      "note": 42,
      "start": 39.8369,
      "duration": 0.1832,
      "velocity": 127,
      "chip": "ym2612"
    },
    {
      "channel": 0,
      "note": 52,
      "start": 40.0366,
      "duration": 0.3805,
      "velocity": 88,
      "chip": "ym2612"
    },
    {
      "channel": 1,
      "note": 64,
      "start": 40.0368,
      "duration": 0.9811,
      "velocity": 83,
      "chip": "ym2612"
    },
    {
      "channel": 2,
      "note": 42,
      "start": 40.0385,
      "duration": 0.1788,
      "velocity": 127,
      "chip": "ym2612"
    },
    {
      "channel": 2,
      "note": 30,
      "start": 40.2341,
      "duration": 0.1833,
      "velocity": 127,
      "chip": "ym2612"
    },
    {
      "channel": 2,
      "note": 30,
      "start": 40.4355,
      "duration": 0.1819,
      "velocity": 127,
      "chip": "ym2612"
    },
    {
      "channel": 0,
      "note": 48,
      "start": 40.6348,
      "duration": 0.1832,
      "velocity": 88,
      "chip": "ym2612"
    },
    {
      "channel": 2,
      "note": 42,
      "start": 40.6366,
      "duration": 0.1817,
      "velocity": 127,
      "chip": "ym2612"
    },
    {
      "channel": 0,
      "note": 48,
      "start": 40.8346,
      "duration": 0.3832,
      "velocity": 88,
      "chip": "ym2612"
    },
    {
      "channel": 2,
      "note": 30,
      "start": 40.8349,
      "duration": 0.1832,
      "velocity": 127,
      "chip": "ym2612"
    },
    {
      "channel": 1,
      "note": 75,
      "start": 41.0347,
      "duration": 0.3835,
      "velocity": 83,
      "chip": "ym2612"
    },
    {
      "channel": 2,
      "note": 30,
      "start": 41.0349,
      "duration": 0.1832,
      "velocity": 127,
      "chip": "ym2612"
    },
    {
      "channel": 2,
      "note": 30,
      "start": 41.2362,
      "duration": 0.1822,
      "velocity": 127,
      "chip": "ym2612"
    },
    {
      "channel": 0,
      "note": 48,
      "start": 41.4346,
      "duration": 0.1833,
      "velocity": 88,
      "chip": "ym2612"
    },
    {
      "channel": 1,
      "note": 74,
      "start": 41.4349,
      "duration": 0.3833,
      "velocity": 83,
      "chip": "ym2612"
    },
    {
      "channel": 2,
      "note": 42,
      "start": 41.4351,
      "duration": 0.1831,
      "velocity": 127,
      "chip": "ym2612"
    },
    {
      "channel": 0,
      "note": 48,
      "start": 41.6348,
      "duration": 0.3831,
      "velocity": 88,
      "chip": "ym2612"
    },
    {
      "channel": 2,
      "note": 42,
      "start": 41.6366,
      "duration": 0.1817,
      "velocity": 127,
      "chip": "ym2612"
    },
    {
      "channel": 1,
      "note": 69,
      "start": 41.8349,
      "duration": 0.1832,
      "velocity": 83,
      "chip": "ym2612"
    },
    {
      "channel": 2,
      "note": 30,
      "start": 41.8351,
      "duration": 0.1831,
      "velocity": 127,
      "chip": "ym2612"
    },
    {
      "channel": 2,
      "note": 30,
      "start": 42.0361,
      "duration": 0.182,
      "velocity": 127,
      "chip": "ym2612"
    },
    {
      "channel": 1,
      "note": 67,
      "start": 42.2348,
      "duration": 0.3834,
      "velocity": 83,
      "chip": "ym2612"
    },
    {
      "channel": 2,
      "note": 42,
      "start": 42.2365,
      "duration": 0.1817,
      "velocity": 127,
      "chip": "ym2612"
    },
    {
      "channel": 0,
      "note": 48,
      "start": 42.4347,
      "duration": 0.3833,
      "velocity": 88,
      "chip": "ym2612"
    },
    {
      "channel": 2,
      "note": 30,
      "start": 42.4351,
      "duration": 0.1832,
      "velocity": 127,
      "chip": "ym2612"
    },
    {
      "channel": 1,
      "note": 64,
      "start": 42.6349,
      "duration": 0.1833,
      "velocity": 83,
      "chip": "ym2612"
    },
    {
      "channel": 2,
      "note": 30,
      "start": 42.6351,
      "duration": 0.1833,
      "velocity": 127,
      "chip": "ym2612"
    },
    {
      "channel": 0,
      "note": 48,
      "start": 42.8348,
      "duration": 0.383,
      "velocity": 88,
      "chip": "ym2612"
    },
    {
      "channel": 1,
      "note": 69,
      "start": 42.835,
      "duration": 0.1829,
      "velocity": 83,
      "chip": "ym2612"
    },
    {
      "channel": 2,
      "note": 30,
      "start": 42.8367,
      "duration": 0.1814,
      "velocity": 127,
      "chip": "ym2612"
    },
    {
      "channel": 1,
      "note": 67,
      "start": 43.0348,
      "duration": 3.1847,
      "velocity": 83,
      "chip": "ym2612"
    },
    {
      "channel": 2,
      "note": 42,
      "start": 43.035,
      "duration": 0.1831,
      "velocity": 127,
      "chip": "ym2612"
    },
    {
      "channel": 0,
      "note": 48,
      "start": 43.2346,
      "duration": 0.3833,
      "velocity": 88,
      "chip": "ym2612"
    },
    {
      "channel": 2,
      "note": 42,
      "start": 43.2365,
      "duration": 0.1816,
      "velocity": 127,
      "chip": "ym2612"
    },
    {
      "channel": 2,
      "note": 30,
      "start": 43.4349,
      "duration": 0.1834,
      "velocity": 127,
      "chip": "ym2612"
    },
    {
      "channel": 2,
      "note": 30,
      "start": 43.6365,
      "duration": 0.1818,
      "velocity": 127,
      "chip": "ym2612"
    },
    {
      "channel": 0,
      "note": 52,
      "start": 43.8347,
      "duration": 0.1833,
      "velocity": 88,
      "chip": "ym2612"
    },
    {
      "channel": 2,
      "note": 42,
      "start": 43.8365,
      "duration": 0.1819,
      "velocity": 127,
      "chip": "ym2612"
    },
    {
      "channel": 0,
      "note": 52,
      "start": 44.0345,
      "duration": 0.1825,
      "velocity": 88,
      "chip": "ym2612"
    },
    {
      "channel": 2,
      "note": 30,
      "start": 44.0349,
      "duration": 0.1825,
      "velocity": 127,
      "chip": "ym2612"
    },
    {
      "channel": 0,
      "note": 52,
      "start": 44.2338,
      "duration": 0.1832,
      "velocity": 88,
      "chip": "ym2612"
    },
    {
      "channel": 2,
      "note": 30,
      "start": 44.2342,
      "duration": 0.1832,
      "velocity": 127,
      "chip": "ym2612"
    },
    {
      "channel": 2,
      "note": 30,
      "start": 44.4356,
      "duration": 0.1818,
      "velocity": 127,
      "chip": "ym2612"
    },
    {
      "channel": 2,
      "note": 42,
      "start": 44.6341,
      "duration": 0.1841,
      "velocity": 127,
      "chip": "ym2612"
    },
    {
      "channel": 0,
      "note": 50,
      "start": 44.8346,
      "duration": 0.3846,
      "velocity": 88,
      "chip": "ym2612"
    },
    {
      "channel": 2,
      "note": 42,
      "start": 44.8365,
      "duration": 0.1815,
      "velocity": 127,
      "chip": "ym2612"
    },
    {
      "channel": 2,
      "note": 30,
      "start": 45.0349,
      "duration": 0.1847,
      "velocity": 127,
      "chip": "ym2612"
    },
    {
      "channel": 2,
      "note": 30,
      "start": 45.2377,
      "duration": 0.1819,
      "velocity": 127,
      "chip": "ym2612"
    },
    {
      "channel": 0,
      "note": 52,
      "start": 45.4359,
      "duration": 0.1819,
      "velocity": 88,
      "chip": "ym2612"
    },
    {
      "channel": 2,
      "note": 42,
      "start": 45.4378,
      "duration": 0.1804,
      "velocity": 127,
      "chip": "ym2612"
    },
    {
      "channel": 0,
      "note": 52,
      "start": 45.6345,
      "duration": 0.1833,
      "velocity": 88,
      "chip": "ym2612"
    },
    {
      "channel": 2,
      "note": 30,
      "start": 45.6349,
      "duration": 0.1833,
      "velocity": 127,
      "chip": "ym2612"
    },
    {
      "channel": 0,
      "note": 52,
      "start": 45.8345,
      "duration": 0.1833,
      "velocity": 88,
      "chip": "ym2612"
    },
    {
      "channel": 2,
      "note": 30,
      "start": 45.8349,
      "duration": 0.1832,
      "velocity": 127,
      "chip": "ym2612"
    },
    {
      "channel": 2,
      "note": 30,
      "start": 46.0362,
      "duration": 0.1834,
      "velocity": 127,
      "chip": "ym2612"
    },
    {
      "channel": 2,
      "note": 42,
      "start": 46.2362,
      "duration": 0.1835,
      "velocity": 127,
      "chip": "ym2612"
    },
    {
      "channel": 0,
      "note": 50,
      "start": 46.436,
      "duration": 0.3818,
      "velocity": 88,
      "chip": "ym2612"
    },
    {
      "channel": 2,
      "note": 42,
      "start": 46.4378,
      "duration": 0.1817,
      "velocity": 127,
      "chip": "ym2612"
    },
    {
      "channel": 1,
      "note": 64,
      "start": 46.6361,
      "duration": 0.1819,
      "velocity": 83,
      "chip": "ym2612"
    },
    {
      "channel": 2,
      "note": 30,
      "start": 46.6363,
      "duration": 0.1819,
      "velocity": 127,
      "chip": "ym2612"
    },
    {
      "channel": 1,
      "note": 64,
      "start": 46.8348,
      "duration": 0.3847,
      "velocity": 83,
      "chip": "ym2612"
    },
    {
      "channel": 2,
      "note": 30,
      "start": 46.8364,
      "duration": 0.1817,
      "velocity": 127,
      "chip": "ym2612"
    },
    {
      "channel": 0,
      "note": 48,
      "start": 47.0345,
      "duration": 0.1847,
      "velocity": 88,
      "chip": "ym2612"
    },
    {
      "channel": 2,
      "note": 42,
      "start": 47.0363,
      "duration": 0.1833,
      "velocity": 127,
      "chip": "ym2612"
    },
    {
      "channel": 0,
      "note": 48,
      "start": 47.236,
      "duration": 0.3832,
      "velocity": 88,
      "chip": "ym2612"
    },
    {
      "channel": 1,
      "note": 67,
      "start": 47.2362,
      "duration": 0.1832,
      "velocity": 83,
      "chip": "ym2612"
    },
    {
      "channel": 2,
      "note": 30,
      "start": 47.2365,
      "duration": 0.1831,
      "velocity": 127,
      "chip": "ym2612"
    },
    {
      "channel": 1,
      "note": 67,
      "start": 47.4361,
      "duration": 0.3819,
      "velocity": 83,
      "chip": "ym2612"
    },
    {
      "channel": 2,
      "note": 30,
      "start": 47.4363,
      "duration": 0.1832,
      "velocity": 127,
      "chip": "ym2612"
    },
    {
      "channel": 2,
      "note": 30,
      "start": 47.6376,
      "duration": 0.1805,
      "velocity": 127,
      "chip": "ym2612"
    },
    {
      "channel": 0,
      "note": 48,
      "start": 47.8346,
      "duration": 0.1832,
      "velocity": 88,
      "chip": "ym2612"
    },
    {
      "channel": 1,
      "note": 71,
      "start": 47.8348,
      "duration": 0.3823,
      "velocity": 83,
      "chip": "ym2612"
    },
    {
      "channel": 2,
      "note": 42,
      "start": 47.8351,
      "duration": 0.1831,
      "velocity": 127,
      "chip": "ym2612"
    },
    {
      "channel": 0,
      "note": 48,
      "start": 48.0346,
      "duration": 0.3824,
      "velocity": 88,
      "chip": "ym2612"
    },
    {
      "channel": 2,
      "note": 42,
      "start": 48.0365,
      "duration": 0.1809,
      "velocity": 127,
      "chip": "ym2612"
    },
    {
      "channel": 1,
      "note": 67,
      "start": 48.234,
      "duration": 0.1832,
      "velocity": 83,
      "chip": "ym2612"
    },
    {
      "channel": 2,
      "note": 30,
      "start": 48.2342,
      "duration": 0.1832,
      "velocity": 127,
      "chip": "ym2612"
    },
    {
      "channel": 1,
      "note": 67,
      "start": 48.4339,
      "duration": 0.3841,
      "velocity": 83,
      "chip": "ym2612"
    },
    {
      "channel": 2,
      "note": 30,
      "start": 48.4356,
      "duration": 0.1818,
      "velocity": 127,
      "chip": "ym2612"
    },
    {
      "channel": 2,
      "note": 42,
      "start": 48.6355,
      "duration": 0.1827,
      "velocity": 127,
      "chip": "ym2612"
    },
    {
      "channel": 0,
      "note": 48,
      "start": 48.8346,
      "duration": 0.3832,
      "velocity": 88,
      "chip": "ym2612"
    },
    {
      "channel": 1,
      "note": 71,
      "start": 48.8349,
      "duration": 0.1831,
      "velocity": 83,
      "chip": "ym2612"
    },
    {
      "channel": 2,
      "note": 30,
      "start": 48.8351,
      "duration": 0.1831,
      "velocity": 127,
      "chip": "ym2612"
    },
    {
      "channel": 1,
      "note": 71,
      "start": 49.0347,
      "duration": 0.1833,
      "velocity": 83,
      "chip": "ym2612"
    },
    {
      "channel": 2,
      "note": 30,
      "start": 49.0349,
      "duration": 0.1833,
      "velocity": 127,
      "chip": "ym2612"
    },
    {
      "channel": 0,
      "note": 48,
      "start": 49.2346,
      "duration": 0.3832,
      "velocity": 88,
      "chip": "ym2612"
    },
    {
      "channel": 1,
      "note": 76,
      "start": 49.2349,
      "duration": 0.3831,
      "velocity": 83,
      "chip": "ym2612"
    },
    {
      "channel": 2,
      "note": 30,
      "start": 49.2365,
      "duration": 0.1816,
      "velocity": 127,
      "chip": "ym2612"
    },
    {
      "channel": 2,
      "note": 42,
      "start": 49.4349,
      "duration": 0.1833,
      "velocity": 127,
      "chip": "ym2612"
    },
    {
      "channel": 0,
      "note": 48,
      "start": 49.6347,
      "duration": 0.3831,
      "velocity": 88,
      "chip": "ym2612"
    },
    {
      "channel": 1,
      "note": 79,
      "start": 49.6349,
      "duration": 0.1831,
      "velocity": 83,
      "chip": "ym2612"
    },
    {
      "channel": 2,
      "note": 42,
      "start": 49.6366,
      "duration": 0.1816,
      "velocity": 127,
      "chip": "ym2612"
    },
    {
      "channel": 1,
      "note": 79,
      "start": 49.8348,
      "duration": 0.1833,
      "velocity": 83,
      "chip": "ym2612"
    },
    {
      "channel": 2,
      "note": 30,
      "start": 49.835,
      "duration": 0.1833,
      "velocity": 127,
      "chip": "ym2612"
    },
    {
      "channel": 1,
      "note": 76,
      "start": 50.0347,
      "duration": 0.1833,
      "velocity": 83,
      "chip": "ym2612"
    },
    {
      "channel": 2,
      "note": 30,
      "start": 50.0364,
      "duration": 0.1818,
      "velocity": 127,
      "chip": "ym2612"
    },
    {
      "channel": 0,
      "note": 52,
      "start": 50.2347,
      "duration": 0.1831,
      "velocity": 88,
      "chip": "ym2612"
    },
    {
      "channel": 1,
      "note": 74,
      "start": 50.2349,
      "duration": 2.5832,
      "velocity": 83,
      "chip": "ym2612"
    },
    {
      "channel": 2,
      "note": 42,
      "start": 50.2367,
      "duration": 0.1815,
      "velocity": 127,
      "chip": "ym2612"
    },
    {
      "channel": 0,
      "note": 52,
      "start": 50.4346,
      "duration": 0.3832,
      "velocity": 88,
      "chip": "ym2612"
    },
    {
      "channel": 2,
      "note": 30,
      "start": 50.435,
      "duration": 0.1831,
      "velocity": 127,
      "chip": "ym2612"
    },
    {
      "channel": 2,
      "note": 30,
      "start": 50.6349,
      "duration": 0.1833,
      "velocity": 127,
      "chip": "ym2612"
    },
    {
      "channel": 2,
      "note": 30,
      "start": 50.8363,
      "duration": 0.1819,
      "velocity": 127,
      "chip": "ym2612"
    },
    {
      "channel": 0,
      "note": 52,
      "start": 51.0345,
      "duration": 0.1833,
      "velocity": 88,
      "chip": "ym2612"
    },
    {
      "channel": 2,
      "note": 42,
      "start": 51.0349,
      "duration": 0.1833,
      "velocity": 127,
      "chip": "ym2612"
    },
    {
      "channel": 0,
      "note": 52,
      "start": 51.2346,
      "duration": 0.3832,
      "velocity": 88,
      "chip": "ym2612"
    },
    {
      "channel": 2,
      "note": 42,
      "start": 51.2365,
      "duration": 0.3817,
      "velocity": 127,
      "chip": "ym2612"
    },
    {
      "channel": 2,
      "note": 30,
      "start": 51.6363,
      "duration": 0.1819,
      "velocity": 127,
      "chip": "ym2612"
    },
    {
      "channel": 0,
      "note": 52,
      "start": 51.8345,
      "duration": 0.1833,
      "velocity": 88,
      "chip": "ym2612"
    },
    {
      "channel": 2,
      "note": 42,
      "start": 51.8363,
      "duration": 0.1819,
      "velocity": 127,
      "chip": "ym2612"
    },
    {
      "channel": 2,
      "note": 30,
      "start": 52.0348,
      "duration": 0.1827,
      "velocity": 127,
      "chip": "ym2612"
    },
    {
      "channel": 0,
      "note": 52,
      "start": 52.2339,
      "duration": 0.1833,
      "velocity": 88,
      "chip": "ym2612"
    },
    {
      "channel": 2,
      "note": 30,
      "start": 52.2342,
      "duration": 0.1832,
      "velocity": 127,
      "chip": "ym2612"
    },
    {
      "channel": 0,
      "note": 52,
      "start": 52.4339,
      "duration": 0.1832,
      "velocity": 88,
      "chip": "ym2612"
    },
    {
      "channel": 2,
      "note": 30,
      "start": 52.4357,
      "duration": 0.1817,
      "velocity": 127,
      "chip": "ym2612"
    },
    {
      "channel": 0,
      "note": 52,
      "start": 52.6339,
      "duration": 0.184,
      "velocity": 88,
      "chip": "ym2612"
    },
    {
      "channel": 2,
      "note": 42,
      "start": 52.6358,
      "duration": 0.1826,
      "velocity": 127,
      "chip": "ym2612"
    },
    {
      "channel": 0,
      "note": 50,
      "start": 52.8348,
      "duration": 0.383,
      "velocity": 88,
      "chip": "ym2612"
    },
    {
      "channel": 1,
      "note": 76,
      "start": 52.8351,
      "duration": 0.1829,
      "velocity": 83,
      "chip": "ym2612"
    },
    {
      "channel": 2,
      "note": 30,
      "start": 52.8368,
      "duration": 0.1814,
      "velocity": 127,
      "chip": "ym2612"
    },
    {
      "channel": 1,
      "note": 71,
      "start": 53.0348,
      "duration": 0.1833,
      "velocity": 83,
      "chip": "ym2612"
    },
    {
      "channel": 2,
      "note": 30,
      "start": 53.035,
      "duration": 0.1833,
      "velocity": 127,
      "chip": "ym2612"
    },
    {
      "channel": 1,
      "note": 62,
      "start": 53.2348,
      "duration": 0.3833,
      "velocity": 83,
      "chip": "ym2612"
    },
    {
      "channel": 2,
      "note": 30,
      "start": 53.2365,
      "duration": 0.1817,
      "velocity": 127,
      "chip": "ym2612"
    },
    {
      "channel": 0,
      "note": 48,
      "start": 53.4346,
      "duration": 0.1833,
      "velocity": 88,
      "chip": "ym2612"
    },
    {
      "channel": 2,
      "note": 42,
      "start": 53.4364,
      "duration": 0.1819,
      "velocity": 127,
      "chip": "ym2612"
    },
    {
      "channel": 0,
      "note": 48,
      "start": 53.6346,
      "duration": 0.3832,
      "velocity": 88,
      "chip": "ym2612"
    },
    {
      "channel": 1,
      "note": 67,
      "start": 53.6349,
      "duration": 0.1831,
      "velocity": 83,
      "chip": "ym2612"
    },
    {
      "channel": 2,
      "note": 30,
      "start": 53.6351,
      "duration": 0.1831,
      "velocity": 127,
      "chip": "ym2612"
    },
    {
      "channel": 1,
      "note": 67,
      "start": 53.8347,
      "duration": 0.3832,
      "velocity": 83,
      "chip": "ym2612"
    },
    {
      "channel": 2,
      "note": 30,
      "start": 53.8349,
      "duration": 0.1832,
      "velocity": 127,
      "chip": "ym2612"
    },
    {
      "channel": 0,
      "note": 48,
      "start": 54.0346,
      "duration": 0.3831,
      "velocity": 88,
      "chip": "ym2612"
    },
    {
      "channel": 2,
      "note": 30,
      "start": 54.0365,
      "duration": 0.1816,
      "velocity": 127,
      "chip": "ym2612"
    },
    {
      "channel": 2,
      "note": 42,
      "start": 54.2347,
      "duration": 0.1834,
      "velocity": 127,
      "chip": "ym2612"
    },
    {
      "channel": 0,
      "note": 48,
      "start": 54.4346,
      "duration": 0.3832,
      "velocity": 88,
      "chip": "ym2612"
    },
    {
      "channel": 2,
      "note": 42,
      "start": 54.4365,
      "duration": 0.1817,
      "velocity": 127,
      "chip": "ym2612"
    },
    {
      "channel": 1,
      "note": 72,
      "start": 54.6347,
      "duration": 0.1833,
      "velocity": 83,
      "chip": "ym2612"
    },
    {
      "channel": 2,
      "note": 30,
      "start": 54.6349,
      "duration": 0.1833,
      "velocity": 127,
      "chip": "ym2612"
    },
    {
      "channel": 1,
      "note": 62,
      "start": 54.8348,
      "duration": 0.3832,
      "velocity": 83,
      "chip": "ym2612"
    },
    {
      "channel": 2,
      "note": 30,
      "start": 54.8365,
      "duration": 0.1817,
      "velocity": 127,
      "chip": "ym2612"
    },
    {
      "channel": 0,
      "note": 46,
      "start": 55.0346,
      "duration": 0.1832,
      "velocity": 88,
      "chip": "ym2612"
    },
    {
      "channel": 2,
      "note": 42,
      "start": 55.0365,
      "duration": 0.1817,
      "velocity": 127,
      "chip": "ym2612"
    },
    {
      "channel": 0,
      "note": 46,
      "start": 55.2346,
      "duration": 0.3832,
      "velocity": 88,
      "chip": "ym2612"
    },
    {
      "channel": 1,
      "note": 65,
      "start": 55.2349,
      "duration": 0.3832,
      "velocity": 83,
      "chip": "ym2612"
    },
    {
      "channel": 2,
      "note": 30,
      "start": 55.2351,
      "duration": 0.183,
      "velocity": 127,
      "chip": "ym2612"
    },
    {
      "channel": 2,
      "note": 30,
      "start": 55.4348,
      "duration": 0.1835,
      "velocity": 127,
      "chip": "ym2612"
    },
    {
      "channel": 0,
      "note": 53,
      "start": 55.6346,
      "duration": 0.3833,
      "velocity": 88,
      "chip": "ym2612"
    },
    {
      "channel": 1,
      "note": 70,
      "start": 55.6349,
      "duration": 0.3832,
      "velocity": 83,
      "chip": "ym2612"
    },
    {
      "channel": 2,
      "note": 30,
      "start": 55.6365,
      "duration": 0.1816,
      "velocity": 127,
      "chip": "ym2612"
    },
    {
      "channel": 2,
      "note": 42,
      "start": 55.8349,
      "duration": 0.1834,
      "velocity": 127,
      "chip": "ym2612"
    },
    {
      "channel": 0,
      "note": 53,
      "start": 56.0348,
      "duration": 0.3822,
      "velocity": 88,
      "chip": "ym2612"
    },
    {
      "channel": 1,
      "note": 65,
      "start": 56.0351,
      "duration": 3.1833,
      "velocity": 83,
      "chip": "ym2612"
    },
    {
      "channel": 2,
      "note": 42,
      "start": 56.0367,
      "duration": 0.1806,
      "velocity": 127,
      "chip": "ym2612"
    },
    {
      "channel": 2,
      "note": 30,
      "start": 56.2341,
      "duration": 0.1832,
      "velocity": 127,
      "chip": "ym2612"
    },
    {
      "channel": 2,
      "note": 30,
      "start": 56.4356,
      "duration": 0.1818,
      "velocity": 127,
      "chip": "ym2612"
    },
    {
      "channel": 0,
      "note": 52,
      "start": 56.6338,
      "duration": 0.1843,
      "velocity": 88,
      "chip": "ym2612"
    },
    {
      "channel": 2,
      "note": 42,
      "start": 56.6356,
      "duration": 0.1829,
      "velocity": 127,
      "chip": "ym2612"
    },
    {
      "channel": 0,
      "note": 52,
      "start": 56.8351,
      "duration": 0.3831,
      "velocity": 88,
      "chip": "ym2612"
    },
    {
      "channel": 2,
      "note": 30,
      "start": 56.8355,
      "duration": 0.1831,
      "velocity": 127,
      "chip": "ym2612"
    },
    {
      "channel": 2,
      "note": 30,
      "start": 57.0353,
      "duration": 0.1833,
      "velocity": 127,
      "chip": "ym2612"
    },
    {
      "channel": 2,
      "note": 30,
      "start": 57.2368,
      "duration": 0.1832,
      "velocity": 127,
      "chip": "ym2612"
    },
    {
      "channel": 0,
      "note": 52,
      "start": 57.4363,
      "duration": 0.1833,
      "velocity": 88,
      "chip": "ym2612"
    },
    {
      "channel": 2,
      "note": 42,
      "start": 57.4368,
      "duration": 0.1832,
      "velocity": 127,
      "chip": "ym2612"
    },
    {
      "channel": 0,
      "note": 52,
      "start": 57.6365,
      "duration": 0.3817,
      "velocity": 88,
      "chip": "ym2612"
    },
    {
      "channel": 2,
      "note": 42,
      "start": 57.6384,
      "duration": 0.1815,
      "velocity": 127,
      "chip": "ym2612"
    },
    {
      "channel": 2,
      "note": 30,
      "start": 57.8352,
      "duration": 0.1834,
      "velocity": 127,
      "chip": "ym2612"
    },
    {
      "channel": 2,
      "note": 30,
      "start": 58.0367,
      "duration": 0.1819,
      "velocity": 127,
      "chip": "ym2612"
    },
    {
      "channel": 0,
      "note": 52,
      "start": 58.2351,
      "duration": 0.1845,
      "velocity": 88,
      "chip": "ym2612"
    },
    {
      "channel": 2,
      "note": 42,
      "start": 58.2369,
      "duration": 0.1831,
      "velocity": 127,
      "chip": "ym2612"
    },
    {
      "channel": 2,
      "note": 30,
      "start": 58.4366,
      "duration": 0.1833,
      "velocity": 127,
      "chip": "ym2612"
    },
    {
      "channel": 0,
      "note": 52,
      "start": 58.6363,
      "duration": 0.1833,
      "velocity": 88,
      "chip": "ym2612"
    },
    {
      "channel": 2,
      "note": 30,
      "start": 58.6367,
      "duration": 0.1832,
      "velocity": 127,
      "chip": "ym2612"
    },
    {
      "channel": 0,
      "note": 52,
      "start": 58.8363,
      "duration": 0.1819,
      "velocity": 88,
      "chip": "ym2612"
    },
    {
      "channel": 2,
      "note": 30,
      "start": 58.8382,
      "duration": 0.1805,
      "velocity": 127,
      "chip": "ym2612"
    },
    {
      "channel": 0,
      "note": 50,
      "start": 59.0349,
      "duration": 0.1833,
      "velocity": 88,
      "chip": "ym2612"
    },
    {
      "channel": 2,
      "note": 42,
      "start": 59.0353,
      "duration": 0.1833,
      "velocity": 127,
      "chip": "ym2612"
    },
    {
      "channel": 0,
      "note": 52,
      "start": 59.2368,
      "duration": 0.3827,
      "velocity": 88,
      "chip": "ym2612"
    },
    {
      "channel": 2,
      "note": 42,
      "start": 59.2401,
      "duration": 0.1784,
      "velocity": 127,
      "chip": "ym2612"
    },
    {
      "channel": 1,
      "note": 64,
      "start": 59.4366,
      "duration": 0.3833,
      "velocity": 70,
      "chip": "ym2612"
    },
    {
      "channel": 2,
      "note": 30,
      "start": 59.4368,
      "duration": 0.1831,
      "velocity": 127,
      "chip": "ym2612"
    },
    {
      "channel": 0,
      "note": 55,
      "start": 59.6364,
      "duration": 0.1833,
      "velocity": 88,
      "chip": "ym2612"
    },
    {
      "channel": 2,
      "note": 30,
      "start": 59.6383,
      "duration": 0.1818,
      "velocity": 127,
      "chip": "ym2612"
    },
    {
      "channel": 0,
      "note": 55,
      "start": 59.8365,
      "duration": 0.1818,
      "velocity": 88,
      "chip": "ym2612"
    },
    {
      "channel": 1,
      "note": 83,
      "start": 59.8367,
      "duration": 0.3805,
      "velocity": 70,
      "chip": "ym2612"
    },
    {
      "channel": 2,
      "note": 42,
      "start": 59.8384,
      "duration": 0.1803,
      "velocity": 127,
      "chip": "ym2612"
    },
    {
      "channel": 0,
      "note": 55,
      "start": 60.035,
      "duration": 0.1821,
      "velocity": 88,
      "chip": "ym2612"
    },
    {
      "channel": 2,
      "note": 30,
      "start": 60.0354,
      "duration": 0.1821,
      "velocity": 127,
      "chip": "ym2612"
    },
    {
      "channel": 1,
      "note": 81,
      "start": 60.2338,
      "duration": 0.3834,
      "velocity": 70,
      "chip": "ym2612"
    },
    {
      "channel": 2,
      "note": 30,
      "start": 60.2341,
      "duration": 0.1834,
      "velocity": 127,
      "chip": "ym2612"
    },
    {
      "channel": 0,
      "note": 55,
      "start": 60.4338,
      "duration": 0.1832,
      "velocity": 88,
      "chip": "ym2612"
    },
    {
      "channel": 2,
      "note": 30,
      "start": 60.4356,
      "duration": 0.1818,
      "velocity": 127,
      "chip": "ym2612"
    },
    {
      "channel": 1,
      "note": 84,
      "start": 60.6338,
      "duration": 0.3843,
      "velocity": 70,
      "chip": "ym2612"
    },
    {
      "channel": 2,
      "note": 42,
      "start": 60.6341,
      "duration": 0.1841,
      "velocity": 127,
      "chip": "ym2612"
    },
    {
      "channel": 0,
      "note": 55,
      "start": 60.8346,
      "duration": 0.3833,
      "velocity": 88,
      "chip": "ym2612"
    },
    {
      "channel": 2,
      "note": 42,
      "start": 60.8365,
      "duration": 0.1819,
      "velocity": 127,
      "chip": "ym2612"
    },
    {
      "channel": 1,
      "note": 83,
      "start": 61.0349,
      "duration": 0.3832,
      "velocity": 70,
      "chip": "ym2612"
    },
    {
      "channel": 2,
      "note": 30,
      "start": 61.0351,
      "duration": 0.1832,
      "velocity": 127,
      "chip": "ym2612"
    },
    {
      "channel": 0,
      "note": 55,
      "start": 61.2348,
      "duration": 0.3829,
      "velocity": 88,
      "chip": "ym2612"
    },
    {
      "channel": 2,
      "note": 30,
      "start": 61.2366,
      "duration": 0.1817,
      "velocity": 127,
      "chip": "ym2612"
    },
    {
      "channel": 1,
      "note": 81,
      "start": 61.4348,
      "duration": 0.3831,
      "velocity": 70,
      "chip": "ym2612"
    },
    {
      "channel": 2,
      "note": 42,
      "start": 61.4365,
      "duration": 0.1816,
      "velocity": 127,
      "chip": "ym2612"
    },
    {
      "channel": 0,
      "note": 55,
      "start": 61.6345,
      "duration": 0.3832,
      "velocity": 88,
      "chip": "ym2612"
    },
    {
      "channel": 2,
      "note": 30,
      "start": 61.6349,
      "duration": 0.1832,
      "velocity": 127,
      "chip": "ym2612"
    },
    {
      "channel": 1,
      "note": 79,
      "start": 61.8346,
      "duration": 0.3835,
      "velocity": 70,
      "chip": "ym2612"
    },
    {
      "channel": 2,
      "note": 30,
      "start": 61.8349,
      "duration": 0.1832,
      "velocity": 127,
      "chip": "ym2612"
    },
    {
      "channel": 0,
      "note": 55,
      "start": 62.0346,
      "duration": 0.1833,
      "velocity": 88,
      "chip": "ym2612"
    },
    {
      "channel": 2,
      "note": 30,
      "start": 62.0365,
      "duration": 0.1819,
      "velocity": 127,
      "chip": "ym2612"
    },
    {
      "channel": 0,
      "note": 55,
      "start": 62.2348,
      "duration": 0.1832,
      "velocity": 88,
      "chip": "ym2612"
    },
    {
      "channel": 1,
      "note": 81,
      "start": 62.235,
      "duration": 0.783,
      "velocity": 70,
      "chip": "ym2612"
    },
    {
      "channel": 2,
      "note": 42,
      "start": 62.2353,
      "duration": 0.1831,
      "velocity": 127,
      "chip": "ym2612"
    },
    {
      "channel": 0,
      "note": 55,
      "start": 62.4348,
      "duration": 0.183,
      "velocity": 88,
      "chip": "ym2612"
    },
    {
      "channel": 2,
      "note": 42,
      "start": 62.4367,
      "duration": 0.1815,
      "velocity": 127,
      "chip": "ym2612"
    },
    {
      "channel": 2,
      "note": 30,
      "start": 62.6348,
      "duration": 0.1833,
      "velocity": 127,
      "chip": "ym2612"
    },
    {
      "channel": 2,
      "note": 30,
      "start": 62.8363,
      "duration": 0.1819,
      "velocity": 127,
      "chip": "ym2612"
    },
    {
      "channel": 0,
      "note": 52,
      "start": 63.0346,
      "duration": 0.3833,
      "velocity": 88,
      "chip": "ym2612"
    },
    {
      "channel": 1,
      "note": 83,
      "start": 63.0349,
      "duration": 0.1832,
      "velocity": 70,
      "chip": "ym2612"
    },
    {
      "channel": 2,
      "note": 42,
      "start": 63.0366,
      "duration": 0.1817,
      "velocity": 127,
      "chip": "ym2612"
    },
    {
      "channel": 1,
      "note": 79,
      "start": 63.2348,
      "duration": 2.5846,
      "velocity": 70,
      "chip": "ym2612"
    },
    {
      "channel": 2,
      "note": 30,
      "start": 63.2351,
      "duration": 0.1832,
      "velocity": 127,
      "chip": "ym2612"
    },
    {
      "channel": 0,
      "note": 52,
      "start": 63.4348,
      "duration": 0.1832,
      "velocity": 88,
      "chip": "ym2612"
    },
    {
      "channel": 2,
      "note": 30,
      "start": 63.4352,
      "duration": 0.1831,
      "velocity": 127,
      "chip": "ym2612"
    },
    {
      "channel": 0,
      "note": 52,
      "start": 63.6347,
      "duration": 0.1831,
      "velocity": 88,
      "chip": "ym2612"
    },
    {
      "channel": 2,
      "note": 30,
      "start": 63.6365,
      "duration": 0.1816,
      "velocity": 127,
      "chip": "ym2612"
    },
    {
      "channel": 0,
      "note": 52,
      "start": 63.8345,
      "duration": 0.1832,
      "velocity": 88,
      "chip": "ym2612"
    },
    {
      "channel": 2,
      "note": 42,
      "start": 63.8349,
      "duration": 0.1832,
      "velocity": 127,
      "chip": "ym2612"
    },
    {
      "channel": 0,
      "note": 55,
      "start": 64.0346,
      "duration": 0.3824,
      "velocity": 88,
      "chip": "ym2612"
    },
    {
      "channel": 2,
      "note": 42,
      "start": 64.0365,
      "duration": 0.1809,
      "velocity": 127,
      "chip": "ym2612"
    },
    {
      "channel": 2,
      "note": 30,
      "start": 64.2341,
      "duration": 0.1833,
      "velocity": 127,
      "chip": "ym2612"
    },
    {
      "channel": 2,
      "note": 30,
      "start": 64.4355,
      "duration": 0.0819,
      "velocity": 127,
      "chip": "ym2612"
    },
    {
      "channel": 2,
      "note": 42,
      "start": 64.5341,
      "duration": 0.0833,
      "velocity": 127,
      "chip": "ym2612"
    },
    {
      "channel": 0,
      "note": 52,
      "start": 64.6339,
      "duration": 0.1853,
      "velocity": 88,
      "chip": "ym2612"
    },
    {
      "channel": 2,
      "note": 42,
      "start": 64.6357,
      "duration": 0.1838,
      "velocity": 127,
      "chip": "ym2612"
    },
    {
      "channel": 2,
      "note": 30,
      "start": 64.8361,
      "duration": 0.1834,
      "velocity": 127,
      "chip": "ym2612"
    },
    {
      "channel": 0,
      "note": 52,
      "start": 65.0359,
      "duration": 0.1833,
      "velocity": 88,
      "chip": "ym2612"
    },
    {
      "channel": 2,
      "note": 30,
      "start": 65.0363,
      "duration": 0.1833,
      "velocity": 127,
      "chip": "ym2612"
    },
    {
      "channel": 0,
      "note": 52,
      "start": 65.236,
      "duration": 0.1818,
      "velocity": 88,
      "chip": "ym2612"
    },
    {
      "channel": 2,
      "note": 30,
      "start": 65.2379,
      "duration": 0.0802,
      "velocity": 127,
      "chip": "ym2612"
    },
    {
      "channel": 2,
      "note": 42,
      "start": 65.3348,
      "duration": 0.0834,
      "velocity": 127,
      "chip": "ym2612"
    },
    {
      "channel": 0,
      "note": 58,
      "start": 65.4344,
      "duration": 0.1833,
      "velocity": 88,
      "chip": "ym2612"
    },
    {
      "channel": 2,
      "note": 42,
      "start": 65.4349,
      "duration": 0.0832,
      "velocity": 127,
      "chip": "ym2612"
    },
    {
      "channel": 2,
      "note": 42,
      "start": 65.5348,
      "duration": 0.0833,
      "velocity": 127,
      "chip": "ym2612"
    },
    {
      "channel": 0,
      "note": 57,
      "start": 65.6346,
      "duration": 0.3845,
      "velocity": 88,
      "chip": "ym2612"
    },
    {
      "channel": 2,
      "note": 42,
      "start": 65.6365,
      "duration": 0.1831,
      "velocity": 127,
      "chip": "ym2612"
    },
    {
      "channel": 1,
      "note": 76,
      "start": 65.8361,
      "duration": 0.3833,
      "velocity": 70,
      "chip": "ym2612"
    },
    {
      "channel": 2,
      "note": 30,
      "start": 65.8363,
      "duration": 0.1832,
      "velocity": 127,
      "chip": "ym2612"
    },
    {
      "channel": 2,
      "note": 30,
      "start": 66.0376,
      "duration": 0.1819,
      "velocity": 127,
      "chip": "ym2612"
    },
    {
      "channel": 0,
      "note": 55,
      "start": 66.2359,
      "duration": 0.1819,
      "velocity": 88,
      "chip": "ym2612"
    },
    {
      "channel": 1,
      "note": 79,
      "start": 66.2361,
      "duration": 0.3817,
      "velocity": 70,
      "chip": "ym2612"
    },
    {
      "channel": 2,
      "note": 42,
      "start": 66.2379,
      "duration": 0.1802,
      "velocity": 127,
      "chip": "ym2612"
    },
    {
      "channel": 0,
      "note": 55,
      "start": 66.4346,
      "duration": 0.3832,
      "velocity": 88,
      "chip": "ym2612"
    },
    {
      "channel": 2,
      "note": 30,
      "start": 66.435,
      "duration": 0.1831,
      "velocity": 127,
      "chip": "ym2612"
    },
    {
      "channel": 1,
      "note": 74,
      "start": 66.6346,
      "duration": 0.3847,
      "velocity": 70,
      "chip": "ym2612"
    },
    {
      "channel": 2,
      "note": 30,
      "start": 66.6349,
      "duration": 0.1833,
      "velocity": 127,
      "chip": "ym2612"
    },
    {
      "channel": 0,
      "note": 55,
      "start": 66.8345,
      "duration": 0.3847,
      "velocity": 88,
      "chip": "ym2612"
    },
    {
      "channel": 2,
      "note": 30,
      "start": 66.8363,
      "duration": 0.1833,
      "velocity": 127,
      "chip": "ym2612"
    },
    {
      "channel": 1,
      "note": 79,
      "start": 67.0361,
      "duration": 1.1833,
      "velocity": 70,
      "chip": "ym2612"
    },
    {
      "channel": 2,
      "note": 42,
      "start": 67.0363,
      "duration": 0.1833,
      "velocity": 127,
      "chip": "ym2612"
    },
    {
      "channel": 0,
      "note": 55,
      "start": 67.2361,
      "duration": 0.1817,
      "velocity": 88,
      "chip": "ym2612"
    },
    {
      "channel": 2,
      "note": 42,
      "start": 67.2379,
      "duration": 0.1802,
      "velocity": 127,
      "chip": "ym2612"
    },
    {
      "channel": 0,
      "note": 55,
      "start": 67.4346,
      "duration": 0.3832,
      "velocity": 88,
      "chip": "ym2612"
    },
    {
      "channel": 2,
      "note": 30,
      "start": 67.4349,
      "duration": 0.1832,
      "velocity": 127,
      "chip": "ym2612"
    },
    {
      "channel": 2,
      "note": 30,
      "start": 67.6362,
      "duration": 0.1819,
      "velocity": 127,
      "chip": "ym2612"
    },
    {
      "channel": 0,
      "note": 55,
      "start": 67.8346,
      "duration": 0.1845,
      "velocity": 88,
      "chip": "ym2612"
    },
    {
      "channel": 2,
      "note": 42,
      "start": 67.8365,
      "duration": 0.1831,
      "velocity": 127,
      "chip": "ym2612"
    },
    {
      "channel": 0,
      "note": 55,
      "start": 68.0359,
      "duration": 0.1833,
      "velocity": 88,
      "chip": "ym2612"
    },
    {
      "channel": 2,
      "note": 30,
      "start": 68.0363,
      "duration": 0.1833,
      "velocity": 127,
      "chip": "ym2612"
    },
    {
      "channel": 1,
      "note": 83,
      "start": 68.234,
      "duration": 0.3833,
      "velocity": 70,
      "chip": "ym2612"
    },
    {
      "channel": 2,
      "note": 30,
      "start": 68.2342,
      "duration": 0.1832,
      "velocity": 127,
      "chip": "ym2612"
    },
    {
      "channel": 0,
      "note": 45,
      "start": 68.4339,
      "duration": 0.1832,
      "velocity": 88,
      "chip": "ym2612"
    },
    {
      "channel": 2,
      "note": 30,
      "start": 68.4357,
      "duration": 0.1818,
      "velocity": 127,
      "chip": "ym2612"
    },
    {
      "channel": 0,
      "note": 57,
      "start": 68.6339,
      "duration": 0.184,
      "velocity": 88,
      "chip": "ym2612"
    },
    {
      "channel": 1,
      "note": 84,
      "start": 68.6341,
      "duration": 0.184,
      "velocity": 70,
      "chip": "ym2612"
    },
    {
      "channel": 2,
      "note": 42,
      "start": 68.6344,
      "duration": 0.184,
      "velocity": 127,
      "chip": "ym2612"
    },
    {
      "channel": 0,
      "note": 55,
      "start": 68.8347,
      "duration": 0.1831,
      "velocity": 88,
      "chip": "ym2612"
    },
    {
      "channel": 1,
      "note": 83,
      "start": 68.8349,
      "duration": 2.7832,
      "velocity": 70,
      "chip": "ym2612"
    },
    {
      "channel": 2,
      "note": 42,
      "start": 68.8367,
      "duration": 0.1815,
      "velocity": 127,
      "chip": "ym2612"
    },
    {
      "channel": 2,
      "note": 30,
      "start": 69.0348,
      "duration": 0.1833,
      "velocity": 127,
      "chip": "ym2612"
    },
    {
      "channel": 2,
      "note": 30,
      "start": 69.2363,
      "duration": 0.1819,
      "velocity": 127,
      "chip": "ym2612"
    },
    {
      "channel": 0,
      "note": 52,
      "start": 69.4345,
      "duration": 0.3833,
      "velocity": 88,
      "chip": "ym2612"
    },
    {
      "channel": 2,
      "note": 42,
      "start": 69.4363,
      "duration": 0.1818,
      "velocity": 127,
      "chip": "ym2612"
    },
    {
      "channel": 2,
      "note": 30,
      "start": 69.6348,
      "duration": 0.1834,
      "velocity": 127,
      "chip": "ym2612"
    },
    {
      "channel": 0,
      "note": 52,
      "start": 69.8346,
      "duration": 0.1832,
      "velocity": 88,
      "chip": "ym2612"
    },
    {
      "channel": 2,
      "note": 30,
      "start": 69.8349,
      "duration": 0.1832,
      "velocity": 127,
      "chip": "ym2612"
    },
    {
      "channel": 0,
      "note": 52,
      "start": 70.0346,
      "duration": 0.1832,
      "velocity": 88,
      "chip": "ym2612"
    },
    {
      "channel": 2,
      "note": 30,
      "start": 70.0364,
      "duration": 0.1817,
      "velocity": 127,
      "chip": "ym2612"
    },
    {
      "channel": 0,
      "note": 52,
      "start": 70.2345,
      "duration": 0.1833,
      "velocity": 88,
      "chip": "ym2612"
    },
    {
      "channel": 2,
      "note": 42,
      "start": 70.2349,
      "duration": 0.1833,
      "velocity": 127,
      "chip": "ym2612"
    },
    {
      "channel": 0,
      "note": 55,
      "start": 70.4346,
      "duration": 0.3832,
      "velocity": 88,
      "chip": "ym2612"
    },
    {
      "channel": 2,
      "note": 42,
      "start": 70.4365,
      "duration": 0.1816,
      "velocity": 127,
      "chip": "ym2612"
    },
    {
      "channel": 2,
      "note": 30,
      "start": 70.6349,
      "duration": 0.1833,
      "velocity": 127,
      "chip": "ym2612"
    },
    {
      "channel": 2,
      "note": 30,
      "start": 70.8363,
      "duration": 0.1819,
      "velocity": 127,
      "chip": "ym2612"
    },
    {
      "channel": 0,
      "note": 52,
      "start": 71.0346,
      "duration": 0.1832,
      "velocity": 88,
      "chip": "ym2612"
    },
    {
      "channel": 2,
      "note": 42,
      "start": 71.0365,
      "duration": 0.1817,
      "velocity": 127,
      "chip": "ym2612"
    },
    {
      "channel": 2,
      "note": 30,
      "start": 71.2347,
      "duration": 0.1835,
      "velocity": 127,
      "chip": "ym2612"
    },
    {
      "channel": 0,
      "note": 52,
      "start": 71.4346,
      "duration": 0.1833,
      "velocity": 88,
      "chip": "ym2612"
    },
    {
      "channel": 2,
      "note": 30,
      "start": 71.435,
      "duration": 0.1833,
      "velocity": 127,
      "chip": "ym2612"
    },
    {
      "channel": 0,
      "note": 52,
      "start": 71.6345,
      "duration": 0.1833,
      "velocity": 88,
      "chip": "ym2612"
    },
    {
      "channel": 2,
      "note": 30,
      "start": 71.6363,
      "duration": 0.1818,
      "velocity": 127,
      "chip": "ym2612"
    },
    {
      "channel": 0,
      "note": 58,
      "start": 71.8346,
      "duration": 0.1832,
      "velocity": 88,
      "chip": "ym2612"
    },
    {
      "channel": 2,
      "note": 42,
      "start": 71.8349,
      "duration": 0.1833,
      "velocity": 127,
      "chip": "ym2612"
    },
    {
      "channel": 0,
      "note": 57,
      "start": 72.0347,
      "duration": 0.3823,
      "velocity": 88,
      "chip": "ym2612"
    },
    {
      "channel": 2,
      "note": 42,
      "start": 72.0365,
      "duration": 0.1816,
      "velocity": 127,
      "chip": "ym2612"
    },
    {
      "channel": 2,
      "note": 30,
      "start": 72.2348,
      "duration": 0.1827,
      "velocity": 127,
      "chip": "ym2612"
    },
    {
      "channel": 1,
      "note": 83,
      "start": 72.4339,
      "duration": 0.3842,
      "velocity": 70,
      "chip": "ym2612"
    },
    {
      "channel": 2,
      "note": 30,
      "start": 72.4356,
      "duration": 0.1819,
      "velocity": 127,
      "chip": "ym2612"
    },
    {
      "channel": 0,
      "note": 55,
      "start": 72.6338,
      "duration": 0.184,
      "velocity": 88,
      "chip": "ym2612"
    },
    {
      "channel": 2,
      "note": 42,
      "start": 72.6356,
      "duration": 0.1826,
      "velocity": 127,
      "chip": "ym2612"
    },
    {
      "channel": 0,
      "note": 55,
      "start": 72.8346,
      "duration": 0.3832,
      "velocity": 88,
      "chip": "ym2612"
    },
    {
      "channel": 1,
      "note": 74,
      "start": 72.8349,
      "duration": 0.1831,
      "velocity": 70,
      "chip": "ym2612"
    },
    {
      "channel": 2,
      "note": 30,
      "start": 72.8351,
      "duration": 0.183,
      "velocity": 127,
      "chip": "ym2612"
    },
    {
      "channel": 1,
      "note": 79,
      "start": 73.0347,
      "duration": 0.1833,
      "velocity": 70,
      "chip": "ym2612"
    },
    {
      "channel": 2,
      "note": 30,
      "start": 73.0349,
      "duration": 0.1833,
      "velocity": 127,
      "chip": "ym2612"
    },
    {
      "channel": 0,
      "note": 55,
      "start": 73.2346,
      "duration": 0.3833,
      "velocity": 88,
      "chip": "ym2612"
    },
    {
      "channel": 2,
      "note": 30,
      "start": 73.2364,
      "duration": 0.1818,
      "velocity": 127,
      "chip": "ym2612"
    },
    {
      "channel": 1,
      "note": 84,
      "start": 73.4348,
      "duration": 0.3833,
      "velocity": 70,
      "chip": "ym2612"
    },
    {
      "channel": 2,
      "note": 42,
      "start": 73.435,
      "duration": 0.1833,
      "velocity": 127,
      "chip": "ym2612"
    },
    {
      "channel": 0,
      "note": 55,
      "start": 73.6348,
      "duration": 0.1831,
      "velocity": 88,
      "chip": "ym2612"
    },
    {
      "channel": 2,
      "note": 42,
      "start": 73.6366,
      "duration": 0.1817,
      "velocity": 127,
      "chip": "ym2612"
    },
    {
      "channel": 0,
      "note": 55,
      "start": 73.8346,
      "duration": 0.3832,
      "velocity": 88,
      "chip": "ym2612"
    },
    {
      "channel": 1,
      "note": 86,
      "start": 73.8349,
      "duration": 0.1832,
      "velocity": 70,
      "chip": "ym2612"
    },
    {
      "channel": 2,
      "note": 30,
      "start": 73.8351,
      "duration": 0.1831,
      "velocity": 127,
      "chip": "ym2612"
    },
    {
      "channel": 2,
      "note": 30,
      "start": 74.0363,
      "duration": 0.1819,
      "velocity": 127,
      "chip": "ym2612"
    },
    {
      "channel": 0,
      "note": 55,
      "start": 74.2347,
      "duration": 0.1831,
      "velocity": 88,
      "chip": "ym2612"
    },
    {
      "channel": 1,
      "note": 79,
      "start": 74.2349,
      "duration": 0.3831,
      "velocity": 70,
      "chip": "ym2612"
    },
    {
      "channel": 2,
      "note": 42,
      "start": 74.2367,
      "duration": 0.1815,
      "velocity": 127,
      "chip": "ym2612"
    },
    {
      "channel": 0,
      "note": 55,
      "start": 74.4346,
      "duration": 0.1833,
      "velocity": 88,
      "chip": "ym2612"
    },
    {
      "channel": 2,
      "note": 30,
      "start": 74.435,
      "duration": 0.1833,
      "velocity": 127,
      "chip": "ym2612"
    },
    {
      "channel": 1,
      "note": 88,
      "start": 74.6346,
      "duration": 0.3834,
      "velocity": 70,
      "chip": "ym2612"
    },
    {
      "channel": 2,
      "note": 30,
      "start": 74.6348,
      "duration": 0.1834,
      "velocity": 127,
      "chip": "ym2612"
    },
    {
      "channel": 0,
      "note": 45,
      "start": 74.8346,
      "duration": 0.1832,
      "velocity": 88,
      "chip": "ym2612"
    },
    {
      "channel": 2,
      "note": 30,
      "start": 74.8364,
      "duration": 0.1817,
      "velocity": 127,
      "chip": "ym2612"
    },
    {
      "channel": 0,
      "note": 57,
      "start": 75.0346,
      "duration": 0.1832,
      "velocity": 88,
      "chip": "ym2612"
    },
    {
      "channel": 1,
      "note": 86,
      "start": 75.0348,
      "duration": 0.3832,
      "velocity": 70,
      "chip": "ym2612"
    },
    {
      "channel": 2,
      "note": 42,
      "start": 75.0351,
      "duration": 0.1831,
      "velocity": 127,
      "chip": "ym2612"
    },
    {
      "channel": 0,
      "note": 55,
      "start": 75.2346,
      "duration": 0.1832,
      "velocity": 88,
      "chip": "ym2612"
    },
    {
      "channel": 2,
      "note": 42,
      "start": 75.2365,
      "duration": 0.1818,
      "velocity": 127,
      "chip": "ym2612"
    },
    {
      "channel": 1,
      "note": 83,
      "start": 75.4347,
      "duration": 0.1833,
      "velocity": 70,
      "chip": "ym2612"
    },
    {
      "channel": 2,
      "note": 30,
      "start": 75.4349,
      "duration": 0.1833,
      "velocity": 127,
      "chip": "ym2612"
    },
    {
      "channel": 1,
      "note": 79,
      "start": 75.6348,
      "duration": 2.785,
      "velocity": 70,
      "chip": "ym2612"
    },
    {
      "channel": 2,
      "note": 30,
      "start": 75.6365,
      "duration": 0.1817,
      "velocity": 127,
      "chip": "ym2612"
    },
    {
      "channel": 0,
      "note": 52,
      "start": 75.8346,
      "duration": 0.3832,
      "velocity": 88,
      "chip": "ym2612"
    },
    {
      "channel": 2,
      "note": 42,
      "start": 75.8365,
      "duration": 0.1817,
      "velocity": 127,
      "chip": "ym2612"
    },
    {
      "channel": 2,
      "note": 30,
      "start": 76.0348,
      "duration": 0.1834,
      "velocity": 127,
      "chip": "ym2612"
    },
    {
      "channel": 0,
      "note": 52,
      "start": 76.2346,
      "duration": 0.1824,
      "velocity": 88,
      "chip": "ym2612"
    },
    {
      "channel": 2,
      "note": 30,
      "start": 76.2349,
      "duration": 0.1824,
      "velocity": 127,
      "chip": "ym2612"
    },
    {
      "channel": 0,
      "note": 52,
      "start": 76.4339,
      "duration": 0.1832,
      "velocity": 88,
      "chip": "ym2612"
    },
    {
      "channel": 2,
      "note": 30,
      "start": 76.4357,
      "duration": 0.1817,
      "velocity": 127,
      "chip": "ym2612"
    },
    {
      "channel": 0,
      "note": 52,
      "start": 76.6338,
      "duration": 0.1845,
      "velocity": 88,
      "chip": "ym2612"
    },
    {
      "channel": 2,
      "note": 42,
      "start": 76.6342,
      "duration": 0.1845,
      "velocity": 127,
      "chip": "ym2612"
    },
    {
      "channel": 0,
      "note": 55,
      "start": 76.8351,
      "duration": 0.3845,
      "velocity": 88,
      "chip": "ym2612"
    },
    {
      "channel": 2,
      "note": 42,
      "start": 76.837,
      "duration": 0.1829,
      "velocity": 127,
      "chip": "ym2612"
    },
    {
      "channel": 2,
      "note": 30,
      "start": 77.0367,
      "duration": 0.1832,
      "velocity": 127,
      "chip": "ym2612"
    },
    {
      "channel": 2,
      "note": 30,
      "start": 77.2382,
      "duration": 0.1818,
      "velocity": 127,
      "chip": "ym2612"
    },
    {
      "channel": 0,
      "note": 52,
      "start": 77.4363,
      "duration": 0.1819,
      "velocity": 88,
      "chip": "ym2612"
    },
    {
      "channel": 2,
      "note": 42,
      "start": 77.4382,
      "duration": 0.1804,
      "velocity": 127,
      "chip": "ym2612"
    },
    {
      "channel": 0,
      "note": 52,
      "start": 77.6349,
      "duration": 0.1833,
      "velocity": 88,
      "chip": "ym2612"
    },
    {
      "channel": 2,
      "note": 30,
      "start": 77.6354,
      "duration": 0.1833,
      "velocity": 127,
      "chip": "ym2612"
    },
    {
      "channel": 0,
      "note": 52,
      "start": 77.835,
      "duration": 0.1847,
      "velocity": 88,
      "chip": "ym2612"
    },
    {
      "channel": 2,
      "note": 30,
      "start": 77.8354,
      "duration": 0.1847,
      "velocity": 127,
      "chip": "ym2612"
    },
    {
      "channel": 0,
      "note": 55,
      "start": 78.0364,
      "duration": 0.1832,
      "velocity": 88,
      "chip": "ym2612"
    },
    {
      "channel": 2,
      "note": 30,
      "start": 78.0383,
      "duration": 0.1817,
      "velocity": 127,
      "chip": "ym2612"
    },
    {
      "channel": 0,
      "note": 58,
      "start": 78.2363,
      "duration": 0.1832,
      "velocity": 88,
      "chip": "ym2612"
    },
    {
      "channel": 2,
      "note": 42,
      "start": 78.2367,
      "duration": 0.1833,
      "velocity": 127,
      "chip": "ym2612"
    },
    {
      "channel": 0,
      "note": 57,
      "start": 78.4365,
      "duration": 0.3817,
      "velocity": 88,
      "chip": "ym2612"
    },
    {
      "channel": 2,
      "note": 42,
      "start": 78.4383,
      "duration": 0.1803,
      "velocity": 127,
      "chip": "ym2612"
    },
    {
      "channel": 1,
      "note": 75,
      "start": 78.6352,
      "duration": 0.3833,
      "velocity": 70,
      "chip": "ym2612"
    },
    {
      "channel": 2,
      "note": 30,
      "start": 78.6355,
      "duration": 0.1832,
      "velocity": 127,
      "chip": "ym2612"
    },
    {
      "channel": 0,
      "note": 57,
      "start": 78.835,
      "duration": 0.3846,
      "velocity": 88,
      "chip": "ym2612"
    },
    {
      "channel": 2,
      "note": 30,
      "start": 78.8368,
      "duration": 0.1818,
      "velocity": 127,
      "chip": "ym2612"
    },
    {
      "channel": 1,
      "note": 84,
      "start": 79.0352,
      "duration": 0.3846,
      "velocity": 70,
      "chip": "ym2612"
    },
    {
      "channel": 2,
      "note": 42,
      "start": 79.0368,
      "duration": 0.1832,
      "velocity": 127,
      "chip": "ym2612"
    },
    {
      "channel": 0,
      "note": 57,
      "start": 79.2363,
      "duration": 0.3819,
      "velocity": 88,
      "chip": "ym2612"
    },
    {
      "channel": 2,
      "note": 30,
      "start": 79.2367,
      "duration": 0.1833,
      "velocity": 127,
      "chip": "ym2612"
    },
    {
      "channel": 1,
      "note": 84,
      "start": 79.4365,
      "duration": 0.382,
      "velocity": 70,
      "chip": "ym2612"
    },
    {
      "channel": 2,
      "note": 30,
      "start": 79.4367,
      "duration": 0.1819,
      "velocity": 127,
      "chip": "ym2612"
    },
    {
      "channel": 0,
      "note": 57,
      "start": 79.6351,
      "duration": 0.1832,
      "velocity": 88,
      "chip": "ym2612"
    },
    {
      "channel": 2,
      "note": 30,
      "start": 79.6369,
      "duration": 0.1818,
      "velocity": 127,
      "chip": "ym2612"
    },
    {
      "channel": 0,
      "note": 57,
      "start": 79.8349,
      "duration": 0.1833,
      "velocity": 88,
      "chip": "ym2612"
    },
    {
      "channel": 1,
      "note": 83,
      "start": 79.8352,
      "duration": 0.3846,
      "velocity": 70,
      "chip": "ym2612"
    },
    {
      "channel": 2,
      "note": 42,
      "start": 79.8355,
      "duration": 0.1832,
      "velocity": 127,
      "chip": "ym2612"
    },
    {
      "channel": 0,
      "note": 57,
      "start": 80.0351,
      "duration": 0.5819,
      "velocity": 88,
      "chip": "ym2612"
    },
    {
      "channel": 2,
      "note": 42,
      "start": 80.0371,
      "duration": 0.3803,
      "velocity": 127,
      "chip": "ym2612"
    },
    {
      "channel": 1,
      "note": 81,
      "start": 80.2364,
      "duration": 0.3808,
      "velocity": 70,
      "chip": "ym2612"
    },
    {
      "channel": 2,
      "note": 30,
      "start": 80.4356,
      "duration": 0.1819,
      "velocity": 127,
      "chip": "ym2612"
    },
    {
      "channel": 1,
      "note": 86,
      "start": 80.6339,
      "duration": 0.3842,
      "velocity": 70,
      "chip": "ym2612"
    },
    {
      "channel": 2,
      "note": 42,
      "start": 80.6356,
      "duration": 0.1827,
      "velocity": 127,
      "chip": "ym2612"
    },
    {
      "channel": 0,
      "note": 55,
      "start": 80.8347,
      "duration": 0.1833,
      "velocity": 88,
      "chip": "ym2612"
    },
    {
      "channel": 2,
      "note": 30,
      "start": 80.8351,
      "duration": 0.1833,
      "velocity": 127,
      "chip": "ym2612"
    },
    {
      "channel": 1,
      "note": 79,
      "start": 81.0347,
      "duration": 0.3833,
      "velocity": 70,
      "chip": "ym2612"
    },
    {
      "channel": 2,
      "note": 30,
      "start": 81.0349,
      "duration": 0.1833,
      "velocity": 127,
      "chip": "ym2612"
    },
    {
      "channel": 0,
      "note": 55,
      "start": 81.2346,
      "duration": 0.3832,
      "velocity": 88,
      "chip": "ym2612"
    },
    {
      "channel": 2,
      "note": 30,
      "start": 81.2364,
      "duration": 0.1817,
      "velocity": 127,
      "chip": "ym2612"
    },
    {
      "channel": 1,
      "note": 86,
      "start": 81.4348,
      "duration": 3.1824,
      "velocity": 70,
      "chip": "ym2612"
    },
    {
      "channel": 2,
      "note": 42,
      "start": 81.4365,
      "duration": 0.1816,
      "velocity": 127,
      "chip": "ym2612"
    },
    {
      "channel": 0,
      "note": 48,
      "start": 81.6346,
      "duration": 0.3833,
      "velocity": 88,
      "chip": "ym2612"
    },
    {
      "channel": 2,
      "note": 30,
      "start": 81.6365,
      "duration": 0.1819,
      "velocity": 127,
      "chip": "ym2612"
    },
    {
      "channel": 2,
      "note": 30,
      "start": 81.835,
      "duration": 0.1833,
      "velocity": 127,
      "chip": "ym2612"
    },
    {
      "channel": 2,
      "note": 30,
      "start": 82.0364,
      "duration": 0.1819,
      "velocity": 127,
      "chip": "ym2612"
    },
    {
      "channel": 0,
      "note": 52,
      "start": 82.2348,
      "duration": 0.1831,
      "velocity": 88,
      "chip": "ym2612"
    },
    {
      "channel": 2,
      "note": 42,
      "start": 82.2366,
      "duration": 0.1816,
      "velocity": 127,
      "chip": "ym2612"
    },
    {
      "channel": 0,
      "note": 52,
      "start": 82.4346,
      "duration": 0.1833,
      "velocity": 88,
      "chip": "ym2612"
    },
    {
      "channel": 2,
      "note": 30,
      "start": 82.435,
      "duration": 0.1832,
      "velocity": 127,
      "chip": "ym2612"
    },
    {
      "channel": 0,
      "note": 52,
      "start": 82.6346,
      "duration": 0.1834,
      "velocity": 88,
      "chip": "ym2612"
    },
    {
      "channel": 2,
      "note": 30,
      "start": 82.635,
      "duration": 0.1833,
      "velocity": 127,
      "chip": "ym2612"
    },
    {
      "channel": 2,
      "note": 30,
      "start": 82.8364,
      "duration": 0.1819,
      "velocity": 127,
      "chip": "ym2612"
    },
    {
      "channel": 0,
      "note": 50,
      "start": 83.0347,
      "duration": 0.383,
      "velocity": 88,
      "chip": "ym2612"
    },
    {
      "channel": 2,
      "note": 42,
      "start": 83.0351,
      "duration": 0.1832,
      "velocity": 127,
      "chip": "ym2612"
    },
    {
      "channel": 2,
      "note": 42,
      "start": 83.2365,
      "duration": 0.1816,
      "velocity": 127,
      "chip": "ym2612"
    },
    {
      "channel": 2,
      "note": 30,
      "start": 83.4348,
      "duration": 0.1834,
      "velocity": 127,
      "chip": "ym2612"
    },
    {
      "channel": 0,
      "note": 52,
      "start": 83.6346,
      "duration": 0.3833,
      "velocity": 88,
      "chip": "ym2612"
    },
    {
      "channel": 2,
      "note": 30,
      "start": 83.6364,
      "duration": 0.1817,
      "velocity": 127,
      "chip": "ym2612"
    },
    {
      "channel": 2,
      "note": 42,
      "start": 83.8362,
      "duration": 0.1821,
      "velocity": 127,
      "chip": "ym2612"
    },
    {
      "channel": 0,
      "note": 52,
      "start": 84.0348,
      "duration": 0.1831,
      "velocity": 88,
      "chip": "ym2612"
    },
    {
      "channel": 2,
      "note": 30,
      "start": 84.0352,
      "duration": 0.1831,
      "velocity": 127,
      "chip": "ym2612"
    },
    {
      "channel": 0,
      "note": 52,
      "start": 84.2346,
      "duration": 0.1824,
      "velocity": 88,
      "chip": "ym2612"
    },
    {
      "channel": 2,
      "note": 30,
      "start": 84.2351,
      "duration": 0.1824,
      "velocity": 127,
      "chip": "ym2612"
    },
    {
      "channel": 0,
      "note": 55,
      "start": 84.4338,
      "duration": 0.1832,
      "velocity": 88,
      "chip": "ym2612"
    },
    {
      "channel": 2,
      "note": 30,
      "start": 84.4356,
      "duration": 0.1818,
      "velocity": 127,
      "chip": "ym2612"
    },
    {
      "channel": 0,
      "note": 55,
      "start": 84.6338,
      "duration": 0.1854,
      "velocity": 88,
      "chip": "ym2612"
    },
    {
      "channel": 2,
      "note": 42,
      "start": 84.6342,
      "duration": 0.1854,
      "velocity": 127,
      "chip": "ym2612"
    },
    {
      "channel": 0,
      "note": 45,
      "start": 84.8361,
      "duration": 0.3817,
      "velocity": 88,
      "chip": "ym2612"
    },
    {
      "channel": 2,
      "note": 42,
      "start": 84.8379,
      "duration": 0.1802,
      "velocity": 127,
      "chip": "ym2612"
    },
    {
      "channel": 2,
      "note": 30,
      "start": 85.0348,
      "duration": 0.1834,
      "velocity": 127,
      "chip": "ym2612"
    },
    {
      "channel": 1,
      "note": 88,
      "start": 85.2347,
      "duration": 0.1833,
      "velocity": 70,
      "chip": "ym2612"
    },
    {
      "channel": 2,
      "note": 30,
      "start": 85.2364,
      "duration": 0.1817,
      "velocity": 127,
      "chip": "ym2612"
    },
    {
      "channel": 0,
      "note": 57,
      "start": 85.4346,
      "duration": 0.1847,
      "velocity": 88,
      "chip": "ym2612"
    },
    {
      "channel": 2,
      "note": 42,
      "start": 85.4363,
      "duration": 0.1833,
      "velocity": 127,
      "chip": "ym2612"
    },
    {
      "channel": 1,
      "note": 81,
      "start": 85.636,
      "duration": 0.1835,
      "velocity": 70,
      "chip": "ym2612"
    },
    {
      "channel": 2,
      "note": 30,
      "start": 85.6362,
      "duration": 0.1834,
      "velocity": 127,
      "chip": "ym2612"
    },
    {
      "channel": 1,
      "note": 84,
      "start": 85.8361,
      "duration": 0.3819,
      "velocity": 70,
      "chip": "ym2612"
    },
    {
      "channel": 2,
      "note": 30,
      "start": 85.8364,
      "duration": 0.1817,
      "velocity": 127,
      "chip": "ym2612"
    },
    {
      "channel": 0,
      "note": 58,
      "start": 86.0346,
      "duration": 0.3832,
      "velocity": 88,
      "chip": "ym2612"
    },
    {
      "channel": 2,
      "note": 30,
      "start": 86.0365,
      "duration": 0.1817,
      "velocity": 127,
      "chip": "ym2612"
    },
    {
      "channel": 1,
      "note": 81,
      "start": 86.2348,
      "duration": 0.3846,
      "velocity": 70,
      "chip": "ym2612"
    },
    {
      "channel": 2,
      "note": 42,
      "start": 86.235,
      "duration": 0.1832,
      "velocity": 127,
      "chip": "ym2612"
    },
    {
      "channel": 0,
      "note": 57,
      "start": 86.4346,
      "duration": 1.1846,
      "velocity": 88,
      "chip": "ym2612"
    },
    {
      "channel": 2,
      "note": 42,
      "start": 86.4365,
      "duration": 0.1831,
      "velocity": 127,
      "chip": "ym2612"
    },
    {
      "channel": 1,
      "note": 83,
      "start": 86.6361,
      "duration": 0.3832,
      "velocity": 70,
      "chip": "ym2612"
    },
    {
      "channel": 2,
      "note": 30,
      "start": 86.6363,
      "duration": 0.1832,
      "velocity": 127,
      "chip": "ym2612"
    },
    {
      "channel": 2,
      "note": 30,
      "start": 86.8376,
      "duration": 0.1819,
      "velocity": 127,
      "chip": "ym2612"
    },
    {
      "channel": 1,
      "note": 86,
      "start": 87.0361,
      "duration": 0.3818,
      "velocity": 70,
      "chip": "ym2612"
    },
    {
      "channel": 2,
      "note": 42,
      "start": 87.0379,
      "duration": 0.1803,
      "velocity": 127,
      "chip": "ym2612"
    },
    {
      "channel": 2,
      "note": 30,
      "start": 87.2348,
      "duration": 0.1833,
      "velocity": 127,
      "chip": "ym2612"
    },
    {
      "channel": 1,
      "note": 86,
      "start": 87.4347,
      "duration": 2.5833,
      "velocity": 70,
      "chip": "ym2612"
    },
    {
      "channel": 2,
      "note": 30,
      "start": 87.4349,
      "duration": 0.1846,
      "velocity": 127,
      "chip": "ym2612"
    },
    {
      "channel": 0,
      "note": 48,
      "start": 87.636,
      "duration": 0.1832,
      "velocity": 88,
      "chip": "ym2612"
    },
    {
      "channel": 2,
      "note": 30,
      "start": 87.6379,
      "duration": 0.1817,
      "velocity": 127,
      "chip": "ym2612"
    },
    {
      "channel": 0,
      "note": 48,
      "start": 87.836,
      "duration": 0.1833,
      "velocity": 88,
      "chip": "ym2612"
    },
    {
      "channel": 2,
      "note": 42,
      "start": 87.8363,
      "duration": 0.1833,
      "velocity": 127,
      "chip": "ym2612"
    },
    {
      "channel": 0,
      "note": 48,
      "start": 88.036,
      "duration": 1.1818,
      "velocity": 88,
      "chip": "ym2612"
    },
    {
      "channel": 2,
      "note": 42,
      "start": 88.0378,
      "duration": 0.1803,
      "velocity": 127,
      "chip": "ym2612"
    },
    {
      "channel": 2,
      "note": 30,
      "start": 88.2348,
      "duration": 0.1825,
      "velocity": 127,
      "chip": "ym2612"
    },
    {
      "channel": 2,
      "note": 30,
      "start": 88.4356,
      "duration": 0.1818,
      "velocity": 127,
      "chip": "ym2612"
    },
    {
      "channel": 2,
      "note": 42,
      "start": 88.6355,
      "duration": 0.1817,
      "velocity": 127,
      "chip": "ym2612"
    },
    {
      "channel": 2,
      "note": 30,
      "start": 88.8348,
      "duration": 0.1833,
      "velocity": 127,
      "chip": "ym2612"
    },
    {
      "channel": 2,
      "note": 30,
      "start": 89.0348,
      "duration": 0.1833,
      "velocity": 127,
      "chip": "ym2612"
    },
    {
      "channel": 0,
      "note": 48,
      "start": 89.2346,
      "duration": 0.1833,
      "velocity": 88,
      "chip": "ym2612"
    },
    {
      "channel": 2,
      "note": 30,
      "start": 89.2365,
      "duration": 0.1817,
      "velocity": 127,
      "chip": "ym2612"
    },
    {
      "channel": 0,
      "note": 48,
      "start": 89.4346,
      "duration": 0.1833,
      "velocity": 88,
      "chip": "ym2612"
    },
    {
      "channel": 2,
      "note": 42,
      "start": 89.435,
      "duration": 0.1833,
      "velocity": 127,
      "chip": "ym2612"
    },
    {
      "channel": 0,
      "note": 48,
      "start": 89.6348,
      "duration": 1.183,
      "velocity": 88,
      "chip": "ym2612"
    },
    {
      "channel": 2,
      "note": 42,
      "start": 89.6366,
      "duration": 0.1815,
      "velocity": 127,
      "chip": "ym2612"
    },
    {
      "channel": 2,
      "note": 30,
      "start": 89.8348,
      "duration": 0.1834,
      "velocity": 127,
      "chip": "ym2612"
    },
    {
      "channel": 1,
      "note": 91,
      "start": 90.0348,
      "duration": 0.3833,
      "velocity": 70,
      "chip": "ym2612"
    },
    {
      "channel": 2,
      "note": 30,
      "start": 90.0364,
      "duration": 0.1817,
      "velocity": 127,
      "chip": "ym2612"
    },
    {
      "channel": 2,
      "note": 42,
      "start": 90.2364,
      "duration": 0.1818,
      "velocity": 127,
      "chip": "ym2612"
    },
    {
      "channel": 1,
      "note": 91,
      "start": 90.4348,
      "duration": 0.1832,
      "velocity": 70,
      "chip": "ym2612"
    },
    {
      "channel": 2,
      "note": 30,
      "start": 90.435,
      "duration": 0.1832,
      "velocity": 127,
      "chip": "ym2612"
    },
    {
      "channel": 1,
      "note": 91,
      "start": 90.6347,
      "duration": 0.3834,
      "velocity": 70,
      "chip": "ym2612"
    },
    {
      "channel": 2,
      "note": 30,
      "start": 90.6349,
      "duration": 0.1832,
      "velocity": 127,
      "chip": "ym2612"
    },
    {
      "channel": 0,
      "note": 48,
      "start": 90.8346,
      "duration": 0.1833,
      "velocity": 88,
      "chip": "ym2612"
    },
    {
      "channel": 2,
      "note": 30,
      "start": 90.8364,
      "duration": 0.1819,
      "velocity": 127,
      "chip": "ym2612"
    },
    {
      "channel": 0,
      "note": 48,
      "start": 91.0347,
      "duration": 0.1831,
      "velocity": 88,
      "chip": "ym2612"
    },
    {
      "channel": 1,
      "note": 95,
      "start": 91.0349,
      "duration": 4.783,
      "velocity": 70,
      "chip": "ym2612"
    },
    {
      "channel": 2,
      "note": 42,
      "start": 91.0352,
      "duration": 0.1829,
      "velocity": 127,
      "chip": "ym2612"
    },
    {
      "channel": 0,
      "note": 48,
      "start": 91.2346,
      "duration": 0.3832,
      "velocity": 88,
      "chip": "ym2612"
    },
    {
      "channel": 2,
      "note": 42,
      "start": 91.2365,
      "duration": 0.1817,
      "velocity": 127,
      "chip": "ym2612"
    },
    {
      "channel": 2,
      "note": 30,
      "start": 91.4349,
      "duration": 0.1833,
      "velocity": 127,
      "chip": "ym2612"
    },
    {
      "channel": 2,
      "note": 30,
      "start": 91.6363,
      "duration": 0.1819,
      "velocity": 127,
      "chip": "ym2612"
    },
    {
      "channel": 0,
      "note": 52,
      "start": 91.8346,
      "duration": 0.1832,
      "velocity": 88,
      "chip": "ym2612"
    },
    {
      "channel": 2,
      "note": 42,
      "start": 91.8365,
      "duration": 0.1817,
      "velocity": 127,
      "chip": "ym2612"
    },
    {
      "channel": 0,
      "note": 52,
      "start": 92.0346,
      "duration": 0.3824,
      "velocity": 88,
      "chip": "ym2612"
    },
    {
      "channel": 2,
      "note": 30,
      "start": 92.035,
      "duration": 0.1831,
      "velocity": 127,
      "chip": "ym2612"
    },
    {
      "channel": 2,
      "note": 30,
      "start": 92.2349,
      "duration": 0.1826,
      "velocity": 127,
      "chip": "ym2612"
    },
    {
      "channel": 0,
      "note": 52,
      "start": 92.4339,
      "duration": 0.1831,
      "velocity": 88,
      "chip": "ym2612"
    },
    {
      "channel": 2,
      "note": 30,
      "start": 92.4358,
      "duration": 0.1816,
      "velocity": 127,
      "chip": "ym2612"
    },
    {
      "channel": 0,
      "note": 50,
      "start": 92.6337,
      "duration": 0.1833,
      "velocity": 88,
      "chip": "ym2612"
    },
    {
      "channel": 2,
      "note": 42,
      "start": 92.6341,
      "duration": 0.1833,
      "velocity": 127,
      "chip": "ym2612"
    },
    {
      "channel": 0,
      "note": 52,
      "start": 92.8339,
      "duration": 0.384,
      "velocity": 88,
      "chip": "ym2612"
    },
    {
      "channel": 2,
      "note": 42,
      "start": 92.8358,
      "duration": 0.1824,
      "velocity": 127,
      "chip": "ym2612"
    },
    {
      "channel": 2,
      "note": 30,
      "start": 93.0349,
      "duration": 0.1834,
      "velocity": 127,
      "chip": "ym2612"
    },
    {
      "channel": 2,
      "note": 30,
      "start": 93.2363,
      "duration": 0.0817,
      "velocity": 127,
      "chip": "ym2612"
    },
    {
      "channel": 2,
      "note": 42,
      "start": 93.3349,
      "duration": 0.0833,
      "velocity": 127,
      "chip": "ym2612"
    },
    {
      "channel": 2,
      "note": 42,
      "start": 93.4364,
      "duration": 0.1817,
      "velocity": 127,
      "chip": "ym2612"
    },
    {
      "channel": 2,
      "note": 30,
      "start": 93.6348,
      "duration": 0.1833,
      "velocity": 127,
      "chip": "ym2612"
    },
    {
      "channel": 2,
      "note": 30,
      "start": 93.8349,
      "duration": 0.1834,
      "velocity": 127,
      "chip": "ym2612"
    },
    {
      "channel": 0,
      "note": 51,
      "start": 94.0346,
      "duration": 0.1832,
      "velocity": 88,
      "chip": "ym2612"
    },
    {
      "channel": 2,
      "note": 30,
      "start": 94.0365,
      "duration": 0.0816,
      "velocity": 127,
      "chip": "ym2612"
    },
    {
      "channel": 2,
      "note": 42,
      "start": 94.1349,
      "duration": 0.0833,
      "velocity": 127,
      "chip": "ym2612"
    },
    {
      "channel": 0,
      "note": 50,
      "start": 94.2346,
      "duration": 0.1833,
      "velocity": 88,
      "chip": "ym2612"
    },
    {
      "channel": 2,
      "note": 42,
      "start": 94.235,
      "duration": 0.0831,
      "velocity": 127,
      "chip": "ym2612"
    },
    {
      "channel": 2,
      "note": 42,
      "start": 94.3349,
      "duration": 0.0833,
      "velocity": 127,
      "chip": "ym2612"
    },
    {
      "channel": 0,
      "note": 52,
      "start": 94.4347,
      "duration": 0.3831,
      "velocity": 88,
      "chip": "ym2612"
    },
    {
      "channel": 2,
      "note": 42,
      "start": 94.4366,
      "duration": 0.1815,
      "velocity": 127,
      "chip": "ym2612"
    },
    {
      "channel": 2,
      "note": 30,
      "start": 94.6348,
      "duration": 0.1833,
      "velocity": 127,
      "chip": "ym2612"
    },
    {
      "channel": 2,
      "note": 30,
      "start": 94.8362,
      "duration": 0.1819,
      "velocity": 127,
      "chip": "ym2612"
    },
    {
      "channel": 2,
      "note": 42,
      "start": 95.0363,
      "duration": 0.1819,
      "velocity": 127,
      "chip": "ym2612"
    },
    {
      "channel": 2,
      "note": 30,
      "start": 95.2348,
      "duration": 0.1833,
      "velocity": 127,
      "chip": "ym2612"
    },
    {
      "channel": 2,
      "note": 30,
      "start": 95.4349,
      "duration": 0.1832,
      "velocity": 127,
      "chip": "ym2612"
    },
    {
      "channel": 0,
      "note": 51,
      "start": 95.6346,
      "duration": 0.1831,
      "velocity": 88,
      "chip": "ym2612"
    },
    {
      "channel": 2,
      "note": 30,
      "start": 95.6365,
      "duration": 0.1817,
      "velocity": 127,
      "chip": "ym2612"
    },
    {
      "channel": 0,
      "note": 50,
      "start": 95.8346,
      "duration": 0.1832,
      "velocity": 88,
      "chip": "ym2612"
    },
    {
      "channel": 2,
      "note": 42,
      "start": 95.8349,
      "duration": 0.1833,
      "velocity": 127,
      "chip": "ym2612"
    },
    {
      "channel": 0,
      "note": 52,
      "start": 96.0364,
      "duration": 0.3807,
      "velocity": 88,
      "chip": "ym2612"
    },
    {
      "channel": 1,
      "note": 94,
      "start": 96.0381,
      "duration": 6.3799,
      "velocity": 70,
      "chip": "ym2612"
    },
    {
      "channel": 2,
      "note": 42,
      "start": 96.0398,
      "duration": 0.1784,
      "velocity": 127,
      "chip": "ym2612"
    },
    {
      "channel": 2,
      "note": 30,
      "start": 96.2349,
      "duration": 0.1826,
      "velocity": 127,
      "chip": "ym2612"
    },
    {
      "channel": 2,
      "note": 30,
      "start": 96.4355,
      "duration": 0.182,
      "velocity": 127,
      "chip": "ym2612"
    },
    {
      "channel": 0,
      "note": 52,
      "start": 96.6339,
      "duration": 0.1832,
      "velocity": 88,
      "chip": "ym2612"
    },
    {
      "channel": 2,
      "note": 42,
      "start": 96.6357,
      "duration": 0.1817,
      "velocity": 127,
      "chip": "ym2612"
    },
    {
      "channel": 0,
      "note": 52,
      "start": 96.8338,
      "duration": 0.3845,
      "velocity": 88,
      "chip": "ym2612"
    },
    {
      "channel": 2,
      "note": 30,
      "start": 96.8342,
      "duration": 0.1858,
      "velocity": 127,
      "chip": "ym2612"
    },
    {
      "channel": 2,
      "note": 30,
      "start": 97.0367,
      "duration": 0.182,
      "velocity": 127,
      "chip": "ym2612"
    },
    {
      "channel": 2,
      "note": 30,
      "start": 97.2367,
      "duration": 0.1819,
      "velocity": 127,
      "chip": "ym2612"
    },
    {
      "channel": 0,
      "note": 52,
      "start": 97.4349,
      "duration": 0.1833,
      "velocity": 88,
      "chip": "ym2612"
    },
    {
      "channel": 2,
      "note": 42,
      "start": 97.4354,
      "duration": 0.1832,
      "velocity": 127,
      "chip": "ym2612"
    },
    {
      "channel": 0,
      "note": 52,
      "start": 97.6351,
      "duration": 0.3846,
      "velocity": 88,
      "chip": "ym2612"
    },
    {
      "channel": 2,
      "note": 42,
      "start": 97.637,
      "duration": 0.183,
      "velocity": 127,
      "chip": "ym2612"
    },
    {
      "channel": 2,
      "note": 30,
      "start": 97.8367,
      "duration": 0.1834,
      "velocity": 127,
      "chip": "ym2612"
    },
    {
      "channel": 2,
      "note": 30,
      "start": 98.0381,
      "duration": 0.1805,
      "velocity": 127,
      "chip": "ym2612"
    },
    {
      "channel": 0,
      "note": 52,
      "start": 98.2351,
      "duration": 0.1832,
      "velocity": 88,
      "chip": "ym2612"
    },
    {
      "channel": 2,
      "note": 42,
      "start": 98.2369,
      "duration": 0.1817,
      "velocity": 127,
      "chip": "ym2612"
    },
    {
      "channel": 2,
      "note": 30,
      "start": 98.4351,
      "duration": 0.1835,
      "velocity": 127,
      "chip": "ym2612"
    },
    {
      "channel": 0,
      "note": 52,
      "start": 98.635,
      "duration": 0.1847,
      "velocity": 88,
      "chip": "ym2612"
    },
    {
      "channel": 2,
      "note": 30,
      "start": 98.6355,
      "duration": 0.1846,
      "velocity": 127,
      "chip": "ym2612"
    },
    {
      "channel": 0,
      "note": 52,
      "start": 98.8364,
      "duration": 0.1832,
      "velocity": 88,
      "chip": "ym2612"
    },
    {
      "channel": 2,
      "note": 30,
      "start": 98.8383,
      "duration": 0.1817,
      "velocity": 127,
      "chip": "ym2612"
    },
    {
      "channel": 0,
      "note": 52,
      "start": 99.0363,
      "duration": 0.1833,
      "velocity": 88,
      "chip": "ym2612"
    },
    {
      "channel": 2,
      "note": 42,
      "start": 99.0367,
      "duration": 0.1833,
      "velocity": 127,
      "chip": "ym2612"
    },
    {
      "channel": 0,
      "note": 52,
      "start": 99.2381,
      "duration": 0.3802,
      "velocity": 88,
      "chip": "ym2612"
    },
    {
      "channel": 2,
      "note": 42,
      "start": 99.2399,
      "duration": 0.1787,
      "velocity": 127,
      "chip": "ym2612"
    },
    {
      "channel": 2,
      "note": 30,
      "start": 99.4353,
      "duration": 0.1834,
      "velocity": 127,
      "chip": "ym2612"
    },
    {
      "channel": 2,
      "note": 30,
      "start": 99.6367,
      "duration": 0.1833,
      "velocity": 127,
      "chip": "ym2612"
    },
    {
      "channel": 0,
      "note": 52,
      "start": 99.8363,
      "duration": 0.1833,
      "velocity": 88,
      "chip": "ym2612"
    },
    {
      "channel": 2,
      "note": 42,
      "start": 99.8382,
      "duration": 0.1819,
      "velocity": 127,
      "chip": "ym2612"
    },
    {
      "channel": 0,
      "note": 52,
      "start": 100.0364,
      "duration": 0.3807,
      "velocity": 88,
      "chip": "ym2612"
    },
    {
      "channel": 2,
      "note": 30,
      "start": 100.0368,
      "duration": 0.183,
      "velocity": 127,
      "chip": "ym2612"
    },
    {
      "channel": 2,
      "note": 30,
      "start": 100.2367,
      "duration": 0.1807,
      "velocity": 127,
      "chip": "ym2612"
    },
    {
      "channel": 2,
      "note": 30,
      "start": 100.4355,
      "duration": 0.1819,
      "velocity": 127,
      "chip": "ym2612"
    },
    {
      "channel": 0,
      "note": 52,
      "start": 100.6337,
      "duration": 0.1833,
      "velocity": 88,
      "chip": "ym2612"
    },
    {
      "channel": 2,
      "note": 42,
      "start": 100.6341,
      "duration": 0.1833,
      "velocity": 127,
      "chip": "ym2612"
    },
    {
      "channel": 0,
      "note": 52,
      "start": 100.8339,
      "duration": 0.3839,
      "velocity": 88,
      "chip": "ym2612"
    },
    {
      "channel": 2,
      "note": 42,
      "start": 100.8357,
      "duration": 0.1824,
      "velocity": 127,
      "chip": "ym2612"
    },
    {
      "channel": 2,
      "note": 30,
      "start": 101.0349,
      "duration": 0.1832,
      "velocity": 127,
      "chip": "ym2612"
    },
    {
      "channel": 2,
      "note": 30,
      "start": 101.2363,
      "duration": 0.1821,
      "velocity": 127,
      "chip": "ym2612"
    },
    {
      "channel": 0,
      "note": 52,
      "start": 101.4347,
      "duration": 0.1832,
      "velocity": 88,
      "chip": "ym2612"
    },
    {
      "channel": 2,
      "note": 42,
      "start": 101.4365,
      "duration": 0.1817,
      "velocity": 127,
      "chip": "ym2612"
    },
    {
      "channel": 2,
      "note": 30,
      "start": 101.6349,
      "duration": 0.1835,
      "velocity": 127,
      "chip": "ym2612"
    },
    {
      "channel": 0,
      "note": 52,
      "start": 101.8348,
      "duration": 0.1829,
      "velocity": 88,
      "chip": "ym2612"
    },
    {
      "channel": 2,
      "note": 30,
      "start": 101.8351,
      "duration": 0.1829,
      "velocity": 127,
      "chip": "ym2612"
    },
    {
      "channel": 0,
      "note": 52,
      "start": 102.0346,
      "duration": 0.1832,
      "velocity": 88,
      "chip": "ym2612"
    },
    {
      "channel": 2,
      "note": 30,
      "start": 102.0365,
      "duration": 0.1817,
      "velocity": 127,
      "chip": "ym2612"
    },
    {
      "channel": 0,
      "note": 52,
      "start": 102.2345,
      "duration": 0.1833,
      "velocity": 88,
      "chip": "ym2612"
    },
    {
      "channel": 2,
      "note": 42,
      "start": 102.2349,
      "duration": 0.1833,
      "velocity": 127,
      "chip": "ym2612"
    },
    {
      "channel": 0,
      "note": 52,
      "start": 102.4349,
      "duration": 0.383,
      "velocity": 88,
      "chip": "ym2612"
    },
    {
      "channel": 1,
      "note": 76,
      "start": 102.4365,
      "duration": 0.9814,
      "velocity": 83,
      "chip": "ym2612"
    },
    {
      "channel": 2,
      "note": 42,
      "start": 102.4383,
      "duration": 0.18,
      "velocity": 127,
      "chip": "ym2612"
    },
    {
      "channel": 2,
      "note": 30,
      "start": 102.6349,
      "duration": 0.1833,
      "velocity": 127,
      "chip": "ym2612"
    },
    {
      "channel": 2,
      "note": 30,
      "start": 102.8365,
      "duration": 0.1817,
      "velocity": 127,
      "chip": "ym2612"
    },
    {
      "channel": 0,
      "note": 52,
      "start": 103.0345,
      "duration": 0.1833,
      "velocity": 88,
      "chip": "ym2612"
    },
    {
      "channel": 2,
      "note": 42,
      "start": 103.0363,
      "duration": 0.1819,
      "velocity": 127,
      "chip": "ym2612"
    },
    {
      "channel": 0,
      "note": 52,
      "start": 103.2346,
      "duration": 0.3834,
      "velocity": 88,
      "chip": "ym2612"
    },
    {
      "channel": 2,
      "note": 30,
      "start": 103.2349,
      "duration": 0.1832,
      "velocity": 127,
      "chip": "ym2612"
    },
    {
      "channel": 1,
      "note": 63,
      "start": 103.4347,
      "duration": 0.1834,
      "velocity": 83,
      "chip": "ym2612"
    },
    {
      "channel": 2,
      "note": 30,
      "start": 103.4349,
      "duration": 0.1835,
      "velocity": 127,
      "chip": "ym2612"
    },
    {
      "channel": 2,
      "note": 30,
      "start": 103.6364,
      "duration": 0.182,
      "velocity": 127,
      "chip": "ym2612"
    },
    {
      "channel": 0,
      "note": 52,
      "start": 103.8347,
      "duration": 0.1833,
      "velocity": 88,
      "chip": "ym2612"
    },
    {
      "channel": 1,
      "note": 62,
      "start": 103.8349,
      "duration": 0.1833,
      "velocity": 83,
      "chip": "ym2612"
    },
    {
      "channel": 2,
      "note": 42,
      "start": 103.8352,
      "duration": 0.1833,
      "velocity": 127,
      "chip": "ym2612"
    },
    {
      "channel": 0,
      "note": 52,
      "start": 104.0348,
      "duration": 0.3822,
      "velocity": 88,
      "chip": "ym2612"
    },
    {
      "channel": 2,
      "note": 42,
      "start": 104.0367,
      "duration": 0.1815,
      "velocity": 127,
      "chip": "ym2612"
    },
    {
      "channel": 1,
      "note": 59,
      "start": 104.2348,
      "duration": 0.1825,
      "velocity": 83,
      "chip": "ym2612"
    },
    {
      "channel": 2,
      "note": 30,
      "start": 104.235,
      "duration": 0.1824,
      "velocity": 127,
      "chip": "ym2612"
    },
    {
      "channel": 2,
      "note": 30,
      "start": 104.4355,
      "duration": 0.1821,
      "velocity": 127,
      "chip": "ym2612"
    },
    {
      "channel": 0,
      "note": 52,
      "start": 104.6339,
      "duration": 0.1832,
      "velocity": 88,
      "chip": "ym2612"
    },
    {
      "channel": 1,
      "note": 57,
      "start": 104.6342,
      "duration": 0.3839,
      "velocity": 83,
      "chip": "ym2612"
    },
    {
      "channel": 2,
      "note": 42,
      "start": 104.6358,
      "duration": 0.1816,
      "velocity": 127,
      "chip": "ym2612"
    },
    {
      "channel": 2,
      "note": 30,
      "start": 104.8341,
      "duration": 0.1842,
      "velocity": 127,
      "chip": "ym2612"
    },
    {
      "channel": 0,
      "note": 52,
      "start": 105.0345,
      "duration": 0.1847,
      "velocity": 88,
      "chip": "ym2612"
    },
    {
      "channel": 1,
      "note": 55,
      "start": 105.0348,
      "duration": 0.5847,
      "velocity": 83,
      "chip": "ym2612"
    },
    {
      "channel": 2,
      "note": 30,
      "start": 105.035,
      "duration": 0.1845,
      "velocity": 127,
      "chip": "ym2612"
    },
    {
      "channel": 0,
      "note": 52,
      "start": 105.2359,
      "duration": 0.1833,
      "velocity": 88,
      "chip": "ym2612"
    },
    {
      "channel": 2,
      "note": 30,
      "start": 105.2378,
      "duration": 0.1819,
      "velocity": 127,
      "chip": "ym2612"
    },
    {
      "channel": 0,
      "note": 52,
      "start": 105.436,
      "duration": 0.1833,
      "velocity": 88,
      "chip": "ym2612"
    },
    {
      "channel": 2,
      "note": 42,
      "start": 105.4363,
      "duration": 0.1833,
      "velocity": 127,
      "chip": "ym2612"
    },
    {
      "channel": 0,
      "note": 52,
      "start": 105.6348,
      "duration": 0.383,
      "velocity": 88,
      "chip": "ym2612"
    },
    {
      "channel": 1,
      "note": 52,
      "start": 105.6365,
      "duration": 3.1809,
      "velocity": 83,
      "chip": "ym2612"
    },
    {
      "channel": 2,
      "note": 42,
      "start": 105.6382,
      "duration": 0.1799,
      "velocity": 127,
      "chip": "ym2612"
    },
    {
      "channel": 2,
      "note": 30,
      "start": 105.8349,
      "duration": 0.1833,
      "velocity": 127,
      "chip": "ym2612"
    },
    {
      "channel": 2,
      "note": 30,
      "start": 106.0362,
      "duration": 0.1834,
      "velocity": 127,
      "chip": "ym2612"
    },
    {
      "channel": 0,
      "note": 48,
      "start": 106.236,
      "duration": 0.1831,
      "velocity": 88,
      "chip": "ym2612"
    },
    {
      "channel": 2,
      "note": 42,
      "start": 106.2379,
      "duration": 0.1817,
      "velocity": 127,
      "chip": "ym2612"
    },
    {
      "channel": 0,
      "note": 48,
      "start": 106.4359,
      "duration": 0.3819,
      "velocity": 88,
      "chip": "ym2612"
    },
    {
      "channel": 2,
      "note": 30,
      "start": 106.4363,
      "duration": 0.1831,
      "velocity": 127,
      "chip": "ym2612"
    },
    {
      "channel": 2,
      "note": 30,
      "start": 106.6363,
      "duration": 0.1819,
      "velocity": 127,
      "chip": "ym2612"
    },
    {
      "channel": 2,
      "note": 30,
      "start": 106.8362,
      "duration": 0.1819,
      "velocity": 127,
      "chip": "ym2612"
    },
    {
      "channel": 0,
      "note": 48,
      "start": 107.0345,
      "duration": 0.1833,
      "velocity": 88,
      "chip": "ym2612"
    },
    {
      "channel": 2,
      "note": 42,
      "start": 107.0349,
      "duration": 0.1833,
      "velocity": 127,
      "chip": "ym2612"
    },
    {
      "channel": 0,
      "note": 48,
      "start": 107.236,
      "duration": 0.3831,
      "velocity": 88,
      "chip": "ym2612"
    },
    {
      "channel": 2,
      "note": 42,
      "start": 107.2379,
      "duration": 0.1817,
      "velocity": 127,
      "chip": "ym2612"
    },
    {
      "channel": 2,
      "note": 30,
      "start": 107.4362,
      "duration": 0.1833,
      "velocity": 127,
      "chip": "ym2612"
    },
    {
      "channel": 2,
      "note": 30,
      "start": 107.6376,
      "duration": 0.1805,
      "velocity": 127,
      "chip": "ym2612"
    },
    {
      "channel": 2,
      "note": 42,
      "start": 107.8363,
      "duration": 0.1819,
      "velocity": 127,
      "chip": "ym2612"
    },
    {
      "channel": 0,
      "note": 48,
      "start": 108.0346,
      "duration": 0.3824,
      "velocity": 88,
      "chip": "ym2612"
    },
    {
      "channel": 2,
      "note": 30,
      "start": 108.0349,
      "duration": 0.1832,
      "velocity": 127,
      "chip": "ym2612"
    },
    {
      "channel": 2,
      "note": 30,
      "start": 108.2348,
      "duration": 0.1826,
      "velocity": 127,
      "chip": "ym2612"
    },
    {
      "channel": 0,
      "note": 48,
      "start": 108.4339,
      "duration": 0.3832,
      "velocity": 88,
      "chip": "ym2612"
    },
    {
      "channel": 2,
      "note": 30,
      "start": 108.4357,
      "duration": 0.1817,
      "velocity": 127,
      "chip": "ym2612"
    },
    {
      "channel": 2,
      "note": 42,
      "start": 108.6341,
      "duration": 0.1834,
      "velocity": 127,
      "chip": "ym2612"
    },
    {
      "channel": 0,
      "note": 48,
      "start": 108.8341,
      "duration": 0.3837,
      "velocity": 88,
      "chip": "ym2612"
    },
    {
      "channel": 1,
      "note": 72,
      "start": 108.8357,
      "duration": 0.9823,
      "velocity": 83,
      "chip": "ym2612"
    },
    {
      "channel": 2,
      "note": 42,
      "start": 108.8374,
      "duration": 0.3807,
      "velocity": 127,
      "chip": "ym2612"
    },
    {
      "channel": 2,
      "note": 30,
      "start": 109.2363,
      "duration": 0.1819,
      "velocity": 127,
      "chip": "ym2612"
    },
    {
      "channel": 0,
      "note": 52,
      "start": 109.4346,
      "duration": 0.1832,
      "velocity": 88,
      "chip": "ym2612"
    },
    {
      "channel": 2,
      "note": 42,
      "start": 109.4365,
      "duration": 0.1817,
      "velocity": 127,
      "chip": "ym2612"
    },
    {
      "channel": 0,
      "note": 52,
      "start": 109.6345,
      "duration": 0.1833,
      "velocity": 88,
      "chip": "ym2612"
    },
    {
      "channel": 2,
      "note": 30,
      "start": 109.6349,
      "duration": 0.1833,
      "velocity": 127,
      "chip": "ym2612"
    },
    {
      "channel": 0,
      "note": 52,
      "start": 109.8346,
      "duration": 0.1833,
      "velocity": 88,
      "chip": "ym2612"
    },
    {
      "channel": 1,
      "note": 63,
      "start": 109.8348,
      "duration": 0.1832,
      "velocity": 83,
      "chip": "ym2612"
    },
    {
      "channel": 2,
      "note": 30,
      "start": 109.8351,
      "duration": 0.1831,
      "velocity": 127,
      "chip": "ym2612"
    },
    {
      "channel": 2,
      "note": 30,
      "start": 110.0363,
      "duration": 0.1819,
      "velocity": 127,
      "chip": "ym2612"
    },
    {
      "channel": 1,
      "note": 62,
      "start": 110.2348,
      "duration": 0.1833,
      "velocity": 83,
      "chip": "ym2612"
    },
    {
      "channel": 2,
      "note": 42,
      "start": 110.2365,
      "duration": 0.1817,
      "velocity": 127,
      "chip": "ym2612"
    },
    {
      "channel": 0,
      "note": 50,
      "start": 110.4346,
      "duration": 0.3832,
      "velocity": 88,
      "chip": "ym2612"
    },
    {
      "channel": 2,
      "note": 30,
      "start": 110.4364,
      "duration": 0.1817,
      "velocity": 127,
      "chip": "ym2612"
    },
    {
      "channel": 1,
      "note": 59,
      "start": 110.6346,
      "duration": 0.1833,
      "velocity": 83,
      "chip": "ym2612"
    },
    {
      "channel": 2,
      "note": 30,
      "start": 110.6349,
      "duration": 0.1833,
      "velocity": 127,
      "chip": "ym2612"
    },
    {
      "channel": 2,
      "note": 30,
      "start": 110.8362,
      "duration": 0.1821,
      "velocity": 127,
      "chip": "ym2612"
    },
    {
      "channel": 0,
      "note": 52,
      "start": 111.0346,
      "duration": 0.1832,
      "velocity": 88,
      "chip": "ym2612"
    },
    {
      "channel": 1,
      "note": 57,
      "start": 111.0349,
      "duration": 0.3832,
      "velocity": 83,
      "chip": "ym2612"
    },
    {
      "channel": 2,
      "note": 42,
      "start": 111.0366,
      "duration": 0.1815,
      "velocity": 127,
      "chip": "ym2612"
    },
    {
      "channel": 0,
      "note": 52,
      "start": 111.2345,
      "duration": 0.1834,
      "velocity": 88,
      "chip": "ym2612"
    },
    {
      "channel": 2,
      "note": 30,
      "start": 111.2349,
      "duration": 0.1834,
      "velocity": 127,
      "chip": "ym2612"
    },
    {
      "channel": 0,
      "note": 52,
      "start": 111.4347,
      "duration": 0.1831,
      "velocity": 88,
      "chip": "ym2612"
    },
    {
      "channel": 1,
      "note": 55,
      "start": 111.4349,
      "duration": 0.5831,
      "velocity": 83,
      "chip": "ym2612"
    },
    {
      "channel": 2,
      "note": 30,
      "start": 111.4352,
      "duration": 0.1829,
      "velocity": 127,
      "chip": "ym2612"
    },
    {
      "channel": 2,
      "note": 30,
      "start": 111.6363,
      "duration": 0.1818,
      "velocity": 127,
      "chip": "ym2612"
    },
    {
      "channel": 2,
      "note": 42,
      "start": 111.8348,
      "duration": 0.1834,
      "velocity": 127,
      "chip": "ym2612"
    },
    {
      "channel": 0,
      "note": 50,
      "start": 112.0349,
      "duration": 0.3821,
      "velocity": 88,
      "chip": "ym2612"
    },
    {
      "channel": 1,
      "note": 52,
      "start": 112.0366,
      "duration": 3.1814,
      "velocity": 70,
      "chip": "ym2612"
    },
    {
      "channel": 2,
      "note": 42,
      "start": 112.0383,
      "duration": 0.1799,
      "velocity": 127,
      "chip": "ym2612"
    },
    {
      "channel": 2,
      "note": 30,
      "start": 112.2348,
      "duration": 0.1826,
      "velocity": 127,
      "chip": "ym2612"
    },
    {
      "channel": 2,
      "note": 30,
      "start": 112.4355,
      "duration": 0.182,
      "velocity": 127,
      "chip": "ym2612"
    },
    {
      "channel": 0,
      "note": 48,
      "start": 112.6339,
      "duration": 0.1832,
      "velocity": 88,
      "chip": "ym2612"
    },
    {
      "channel": 2,
      "note": 42,
      "start": 112.6357,
      "duration": 0.1817,
      "velocity": 127,
      "chip": "ym2612"
    },
    {
      "channel": 0,
      "note": 48,
      "start": 112.8338,
      "duration": 0.384,
      "velocity": 88,
      "chip": "ym2612"
    },
    {
      "channel": 2,
      "note": 30,
      "start": 112.8342,
      "duration": 0.184,
      "velocity": 127,
      "chip": "ym2612"
    },
    {
      "channel": 2,
      "note": 30,
      "start": 113.0349,
      "duration": 0.1833,
      "velocity": 127,
      "chip": "ym2612"
    },
    {
      "channel": 2,
      "note": 30,
      "start": 113.2363,
      "duration": 0.1819,
      "velocity": 127,
      "chip": "ym2612"
    },
    {
      "channel": 0,
      "note": 48,
      "start": 113.4345,
      "duration": 0.1833,
      "velocity": 88,
      "chip": "ym2612"
    },
    {
      "channel": 2,
      "note": 42,
      "start": 113.4349,
      "duration": 0.1832,
      "velocity": 127,
      "chip": "ym2612"
    },
    {
      "channel": 0,
      "note": 48,
      "start": 113.6347,
      "duration": 0.3831,
      "velocity": 88,
      "chip": "ym2612"
    },
    {
      "channel": 2,
      "note": 42,
      "start": 113.6365,
      "duration": 0.1816,
      "velocity": 127,
      "chip": "ym2612"
    },
    {
      "channel": 2,
      "note": 30,
      "start": 113.8348,
      "duration": 0.1834,
      "velocity": 127,
      "chip": "ym2612"
    },
    {
      "channel": 2,
      "note": 30,
      "start": 114.0363,
      "duration": 0.1819,
      "velocity": 127,
      "chip": "ym2612"
    },
    {
      "channel": 2,
      "note": 42,
      "start": 114.2363,
      "duration": 0.1819,
      "velocity": 127,
      "chip": "ym2612"
    },
    {
      "channel": 0,
      "note": 48,
      "start": 114.4345,
      "duration": 0.3833,
      "velocity": 88,
      "chip": "ym2612"
    },
    {
      "channel": 2,
      "note": 30,
      "start": 114.4349,
      "duration": 0.1832,
      "velocity": 127,
      "chip": "ym2612"
    },
    {
      "channel": 2,
      "note": 30,
      "start": 114.6348,
      "duration": 0.1834,
      "velocity": 127,
      "chip": "ym2612"
    },
    {
      "channel": 0,
      "note": 48,
      "start": 114.8347,
      "duration": 0.3831,
      "velocity": 88,
      "chip": "ym2612"
    },
    {
      "channel": 2,
      "note": 30,
      "start": 114.8365,
      "duration": 0.1816,
      "velocity": 127,
      "chip": "ym2612"
    },
    {
      "channel": 2,
      "note": 42,
      "start": 115.0348,
      "duration": 0.1834,
      "velocity": 127,
      "chip": "ym2612"
    },
    {
      "channel": 0,
      "note": 48,
      "start": 115.2348,
      "duration": 0.3831,
      "velocity": 88,
      "chip": "ym2612"
    },
    {
      "channel": 1,
      "note": 56,
      "start": 115.2364,
      "duration": 0.9815,
      "velocity": 83,
      "chip": "ym2612"
    },
    {
      "channel": 2,
      "note": 42,
      "start": 115.2381,
      "duration": 0.18,
      "velocity": 127,
      "chip": "ym2612"
    },
    {
      "channel": 2,
      "note": 30,
      "start": 115.4349,
      "duration": 0.1833,
      "velocity": 127,
      "chip": "ym2612"
    },
    {
      "channel": 2,
      "note": 30,
      "start": 115.6363,
      "duration": 0.1819,
      "velocity": 127,
      "chip": "ym2612"
    },
    {
      "channel": 0,
      "note": 52,
      "start": 115.8346,
      "duration": 0.1833,
      "velocity": 88,
      "chip": "ym2612"
    },
    {
      "channel": 2,
      "note": 42,
      "start": 115.8364,
      "duration": 0.1818,
      "velocity": 127,
      "chip": "ym2612"
    },
    {
      "channel": 0,
      "note": 52,
      "start": 116.0346,
      "duration": 0.3833,
      "velocity": 88,
      "chip": "ym2612"
    },
    {
      "channel": 2,
      "note": 30,
      "start": 116.035,
      "duration": 0.1832,
      "velocity": 127,
      "chip": "ym2612"
    },
    {
      "channel": 1,
      "note": 63,
      "start": 116.2347,
      "duration": 0.1833,
      "velocity": 83,
      "chip": "ym2612"
    },
    {
      "channel": 2,
      "note": 30,
      "start": 116.2349,
      "duration": 0.1833,
      "velocity": 127,
      "chip": "ym2612"
    },
    {
      "channel": 2,
      "note": 30,
      "start": 116.4355,
      "duration": 0.182,
      "velocity": 127,
      "chip": "ym2612"
    },
    {
      "channel": 0,
      "note": 52,
      "start": 116.6337,
      "duration": 0.1834,
      "velocity": 88,
      "chip": "ym2612"
    },
    {
      "channel": 1,
      "note": 62,
      "start": 116.634,
      "duration": 0.1833,
      "velocity": 83,
      "chip": "ym2612"
    },
    {
      "channel": 2,
      "note": 42,
      "start": 116.6342,
      "duration": 0.1833,
      "velocity": 127,
      "chip": "ym2612"
    },
    {
      "channel": 0,
      "note": 52,
      "start": 116.8339,
      "duration": 0.3844,
      "velocity": 88,
      "chip": "ym2612"
    },
    {
      "channel": 2,
      "note": 42,
      "start": 116.8357,
      "duration": 0.1829,
      "velocity": 127,
      "chip": "ym2612"
    },
    {
      "channel": 1,
      "note": 59,
      "start": 117.0352,
      "duration": 0.1833,
      "velocity": 83,
      "chip": "ym2612"
    },
    {
      "channel": 2,
      "note": 30,
      "start": 117.0355,
      "duration": 0.1833,
      "velocity": 127,
      "chip": "ym2612"
    },
    {
      "channel": 2,
      "note": 30,
      "start": 117.2367,
      "duration": 0.1834,
      "velocity": 127,
      "chip": "ym2612"
    },
    {
      "channel": 0,
      "note": 52,
      "start": 117.4364,
      "duration": 0.1832,
      "velocity": 88,
      "chip": "ym2612"
    },
    {
      "channel": 1,
      "note": 57,
      "start": 117.4367,
      "duration": 0.3831,
      "velocity": 83,
      "chip": "ym2612"
    },
    {
      "channel": 2,
      "note": 42,
      "start": 117.4384,
      "duration": 0.1816,
      "velocity": 127,
      "chip": "ym2612"
    },
    {
      "channel": 2,
      "note": 30,
      "start": 117.6366,
      "duration": 0.1835,
      "velocity": 127,
      "chip": "ym2612"
    },
    {
      "channel": 0,
      "note": 52,
      "start": 117.8364,
      "duration": 0.1819,
      "velocity": 88,
      "chip": "ym2612"
    },
    {
      "channel": 1,
      "note": 55,
      "start": 117.8367,
      "duration": 0.5832,
      "velocity": 83,
      "chip": "ym2612"
    },
    {
      "channel": 2,
      "note": 30,
      "start": 117.8369,
      "duration": 0.1817,
      "velocity": 127,
      "chip": "ym2612"
    },
    {
      "channel": 0,
      "note": 52,
      "start": 118.035,
      "duration": 0.1832,
      "velocity": 88,
      "chip": "ym2612"
    },
    {
      "channel": 2,
      "note": 30,
      "start": 118.0368,
      "duration": 0.1817,
      "velocity": 127,
      "chip": "ym2612"
    },
    {
      "channel": 0,
      "note": 52,
      "start": 118.235,
      "duration": 0.1846,
      "velocity": 88,
      "chip": "ym2612"
    },
    {
      "channel": 2,
      "note": 42,
      "start": 118.2354,
      "duration": 0.1847,
      "velocity": 127,
      "chip": "ym2612"
    },
    {
      "channel": 0,
      "note": 50,
      "start": 118.4365,
      "duration": 0.3832,
      "velocity": 88,
      "chip": "ym2612"
    },
    {
      "channel": 1,
      "note": 52,
      "start": 118.4383,
      "duration": 6.3789,
      "velocity": 83,
      "chip": "ym2612"
    },
    {
      "channel": 2,
      "note": 42,
      "start": 118.44,
      "duration": 0.1799,
      "velocity": 127,
      "chip": "ym2612"
    },
    {
      "channel": 2,
      "note": 30,
      "start": 118.6367,
      "duration": 0.1833,
      "velocity": 127,
      "chip": "ym2612"
    },
    {
      "channel": 2,
      "note": 30,
      "start": 118.8381,
      "duration": 0.1805,
      "velocity": 127,
      "chip": "ym2612"
    },
    {
      "channel": 0,
      "note": 48,
      "start": 119.035,
      "duration": 0.1832,
      "velocity": 88,
      "chip": "ym2612"
    },
    {
      "channel": 2,
      "note": 42,
      "start": 119.0368,
      "duration": 0.1817,
      "velocity": 127,
      "chip": "ym2612"
    },
    {
      "channel": 0,
      "note": 48,
      "start": 119.2349,
      "duration": 0.3847,
      "velocity": 88,
      "chip": "ym2612"
    },
    {
      "channel": 2,
      "note": 30,
      "start": 119.2354,
      "duration": 0.1831,
      "velocity": 127,
      "chip": "ym2612"
    },
    {
      "channel": 2,
      "note": 30,
      "start": 119.4352,
      "duration": 0.1848,
      "velocity": 127,
      "chip": "ym2612"
    },
    {
      "channel": 0,
      "note": 48,
      "start": 119.6363,
      "duration": 0.3819,
      "velocity": 88,
      "chip": "ym2612"
    },
    {
      "channel": 2,
      "note": 30,
      "start": 119.6382,
      "duration": 0.1817,
      "velocity": 127,
      "chip": "ym2612"
    },
    {
      "channel": 2,
      "note": 42,
      "start": 119.8367,
      "duration": 0.1819,
      "velocity": 127,
      "chip": "ym2612"
    },
    {
      "channel": 0,
      "note": 48,
      "start": 120.0351,
      "duration": 0.3832,
      "velocity": 88,
      "chip": "ym2612"
    },
    {
      "channel": 2,
      "note": 42,
      "start": 120.0369,
      "duration": 0.1817,
      "velocity": 127,
      "chip": "ym2612"
    },
    {
      "channel": 2,
      "note": 30,
      "start": 120.2353,
      "duration": 0.1834,
      "velocity": 127,
      "chip": "ym2612"
    },
    {
      "channel": 2,
      "note": 30,
      "start": 120.4367,
      "duration": 0.1807,
      "velocity": 127,
      "chip": "ym2612"
    },
    {
      "channel": 0,
      "note": 46,
      "start": 120.6338,
      "duration": 0.1833,
      "velocity": 88,
      "chip": "ym2612"
    },
    {
      "channel": 2,
      "note": 42,
      "start": 120.6356,
      "duration": 0.1818,
      "velocity": 127,
      "chip": "ym2612"
    },
    {
      "channel": 0,
      "note": 46,
      "start": 120.8338,
      "duration": 0.3842,
      "velocity": 88,
      "chip": "ym2612"
    },
    {
      "channel": 2,
      "note": 30,
      "start": 120.8342,
      "duration": 0.1839,
      "velocity": 127,
      "chip": "ym2612"
    },
    {
      "channel": 2,
      "note": 30,
      "start": 121.035,
      "duration": 0.1834,
      "velocity": 127,
      "chip": "ym2612"
    },
    {
      "channel": 0,
      "note": 53,
      "start": 121.2348,
      "duration": 0.3831,
      "velocity": 88,
      "chip": "ym2612"
    },
    {
      "channel": 2,
      "note": 30,
      "start": 121.2366,
      "duration": 0.1817,
      "velocity": 127,
      "chip": "ym2612"
    },
    {
      "channel": 2,
      "note": 42,
      "start": 121.4349,
      "duration": 0.1833,
      "velocity": 127,
      "chip": "ym2612"
    },
    {
      "channel": 0,
      "note": 53,
      "start": 121.6347,
      "duration": 0.3831,
      "velocity": 88,
      "chip": "ym2612"
    },
    {
      "channel": 2,
      "note": 42,
      "start": 121.6365,
      "duration": 0.1816,
      "velocity": 127,
      "chip": "ym2612"
    },
    {
      "channel": 2,
      "note": 30,
      "start": 121.8349,
      "duration": 0.1833,
      "velocity": 127,
      "chip": "ym2612"
    },
    {
      "channel": 2,
      "note": 30,
      "start": 122.0363,
      "duration": 0.0819,
      "velocity": 127,
      "chip": "ym2612"
    },
    {
      "channel": 2,
      "note": 42,
      "start": 122.1351,
      "duration": 0.0833,
      "velocity": 127,
      "chip": "ym2612"
    },
    {
      "channel": 0,
      "note": 52,
      "start": 122.2347,
      "duration": 0.1832,
      "velocity": 88,
      "chip": "ym2612"
    },
    {
      "channel": 2,
      "note": 42,
      "start": 122.2366,
      "duration": 0.1817,
      "velocity": 127,
      "chip": "ym2612"
    },
    {
      "channel": 0,
      "note": 52,
      "start": 122.4348,
      "duration": 0.383,
      "velocity": 88,
      "chip": "ym2612"
    },
    {
      "channel": 2,
      "note": 30,
      "start": 122.4352,
      "duration": 0.183,
      "velocity": 127,
      "chip": "ym2612"
    },
    {
      "channel": 2,
      "note": 30,
      "start": 122.6348,
      "duration": 0.1834,
      "velocity": 127,
      "chip": "ym2612"
    },
    {
      "channel": 2,
      "note": 30,
      "start": 122.8363,
      "duration": 0.0817,
      "velocity": 127,
      "chip": "ym2612"
    },
    {
      "channel": 2,
      "note": 42,
      "start": 122.9348,
      "duration": 0.0834,
      "velocity": 127,
      "chip": "ym2612"
    },
    {
      "channel": 0,
      "note": 52,
      "start": 123.0344,
      "duration": 0.1835,
      "velocity": 88,
      "chip": "ym2612"
    },
    {
      "channel": 2,
      "note": 42,
      "start": 123.0349,
      "duration": 0.0832,
      "velocity": 127,
      "chip": "ym2612"
    },
    {
      "channel": 2,
      "note": 42,
      "start": 123.1348,
      "duration": 0.0836,
      "velocity": 127,
      "chip": "ym2612"
    },
    {
      "channel": 0,
      "note": 52,
      "start": 123.2349,
      "duration": 0.383,
      "velocity": 88,
      "chip": "ym2612"
    },
    {
      "channel": 2,
      "note": 42,
      "start": 123.2367,
      "duration": 0.1815,
      "velocity": 127,
      "chip": "ym2612"
    },
    {
      "channel": 2,
      "note": 30,
      "start": 123.4349,
      "duration": 0.1833,
      "velocity": 127,
      "chip": "ym2612"
    },
    {
      "channel": 2,
      "note": 30,
      "start": 123.6365,
      "duration": 0.1817,
      "velocity": 127,
      "chip": "ym2612"
    },
    {
      "channel": 0,
      "note": 52,
      "start": 123.8346,
      "duration": 0.1832,
      "velocity": 88,
      "chip": "ym2612"
    },
    {
      "channel": 2,
      "note": 42,
      "start": 123.8365,
      "duration": 0.1817,
      "velocity": 127,
      "chip": "ym2612"
    },
    {
      "channel": 2,
      "note": 30,
      "start": 124.0348,
      "duration": 0.1833,
      "velocity": 127,
      "chip": "ym2612"
    },
    {
      "channel": 0,
      "note": 52,
      "start": 124.2346,
      "duration": 0.1833,
      "velocity": 88,
      "chip": "ym2612"
    },
    {
      "channel": 2,
      "note": 30,
      "start": 124.2351,
      "duration": 0.1832,
      "velocity": 127,
      "chip": "ym2612"
    },
    {
      "channel": 0,
      "note": 52,
      "start": 124.4348,
      "duration": 0.1824,
      "velocity": 88,
      "chip": "ym2612"
    },
    {
      "channel": 2,
      "note": 30,
      "start": 124.4366,
      "duration": 0.1809,
      "velocity": 127,
      "chip": "ym2612"
    },
    {
      "channel": 0,
      "note": 50,
      "start": 124.6337,
      "duration": 0.1833,
      "velocity": 88,
      "chip": "ym2612"
    },
    {
      "channel": 2,
      "note": 42,
      "start": 124.6341,
      "duration": 0.1833,
      "velocity": 127,
      "chip": "ym2612"
    },
    {
      "channel": 0,
      "note": 52,
      "start": 124.8356,
      "duration": 0.3835,
      "velocity": 88,
      "chip": "ym2612"
    },
    {
      "channel": 1,
      "note": 40,
      "start": 124.8374,
      "duration": 0.9819,
      "velocity": 83,
      "chip": "ym2612"
    },
    {
      "channel": 2,
      "note": 42,
      "start": 124.839,
      "duration": 0.1805,
      "velocity": 127,
      "chip": "ym2612"
    },
    {
      "channel": 2,
      "note": 30,
      "start": 125.0361,
      "duration": 0.1833,
      "velocity": 127,
      "chip": "ym2612"
    },
    {
      "channel": 2,
      "note": 30,
      "start": 125.2377,
      "duration": 0.1805,
      "velocity": 127,
      "chip": "ym2612"
    },
    {
      "channel": 0,
      "note": 52,
      "start": 125.4346,
      "duration": 0.1832,
      "velocity": 88,
      "chip": "ym2612"
    },
    {
      "channel": 2,
      "note": 42,
      "start": 125.4364,
      "duration": 0.1817,
      "velocity": 127,
      "chip": "ym2612"
    },
    {
      "channel": 0,
      "note": 52,
      "start": 125.6346,
      "duration": 0.3845,
      "velocity": 88,
      "chip": "ym2612"
    },
    {
      "channel": 2,
      "note": 30,
      "start": 125.635,
      "duration": 0.1845,
      "velocity": 127,
      "chip": "ym2612"
    },
    {
      "channel": 1,
      "note": 75,
      "start": 125.8361,
      "duration": 0.1832,
      "velocity": 83,
      "chip": "ym2612"
    },
    {
      "channel": 2,
      "note": 30,
      "start": 125.8364,
      "duration": 0.1831,
      "velocity": 127,
      "chip": "ym2612"
    },
    {
      "channel": 2,
      "note": 30,
      "start": 126.0376,
      "duration": 0.1821,
      "velocity": 127,
      "chip": "ym2612"
    },
    {
      "channel": 0,
      "note": 52,
      "start": 126.2359,
      "duration": 0.1819,
      "velocity": 88,
      "chip": "ym2612"
    },
    {
      "channel": 1,
      "note": 74,
      "start": 126.2361,
      "duration": 0.1818,
      "velocity": 83,
      "chip": "ym2612"
    },
    {
      "channel": 2,
      "note": 42,
      "start": 126.2364,
      "duration": 0.1817,
      "velocity": 127,
      "chip": "ym2612"
    },
    {
      "channel": 0,
      "note": 52,
      "start": 126.4347,
      "duration": 0.3831,
      "velocity": 88,
      "chip": "ym2612"
    },
    {
      "channel": 2,
      "note": 42,
      "start": 126.4365,
      "duration": 0.1817,
      "velocity": 127,
      "chip": "ym2612"
    },
    {
      "channel": 1,
      "note": 71,
      "start": 126.6347,
      "duration": 0.1833,
      "velocity": 83,
      "chip": "ym2612"
    },
    {
      "channel": 2,
      "note": 30,
      "start": 126.6349,
      "duration": 0.1833,
      "velocity": 127,
      "chip": "ym2612"
    },
    {
      "channel": 2,
      "note": 30,
      "start": 126.8361,
      "duration": 0.1834,
      "velocity": 127,
      "chip": "ym2612"
    },
    {
      "channel": 0,
      "note": 52,
      "start": 127.0361,
      "duration": 0.1831,
      "velocity": 88,
      "chip": "ym2612"
    },
    {
      "channel": 1,
      "note": 69,
      "start": 127.0363,
      "duration": 0.3816,
      "velocity": 83,
      "chip": "ym2612"
    },
    {
      "channel": 2,
      "note": 42,
      "start": 127.038,
      "duration": 0.1816,
      "velocity": 127,
      "chip": "ym2612"
    },
    {
      "channel": 2,
      "note": 30,
      "start": 127.2361,
      "duration": 0.182,
      "velocity": 127,
      "chip": "ym2612"
    },
    {
      "channel": 0,
      "note": 52,
      "start": 127.4346,
      "duration": 0.1832,
      "velocity": 88,
      "chip": "ym2612"
    },
    {
      "channel": 1,
      "note": 67,
      "start": 127.4348,
      "duration": 0.5846,
      "velocity": 83,
      "chip": "ym2612"
    },
    {
      "channel": 2,
      "note": 30,
      "start": 127.4351,
      "duration": 0.1831,
      "velocity": 127,
      "chip": "ym2612"
    },
    {
      "channel": 0,
      "note": 52,
      "start": 127.6345,
      "duration": 0.1832,
      "velocity": 88,
      "chip": "ym2612"
    },
    {
      "channel": 2,
      "note": 30,
      "start": 127.6363,
      "duration": 0.1817,
      "velocity": 127,
      "chip": "ym2612"
    },
    {
      "channel": 0,
      "note": 52,
      "start": 127.8345,
      "duration": 0.1847,
      "velocity": 88,
      "chip": "ym2612"
    },
    {
      "channel": 2,
      "note": 42,
      "start": 127.8349,
      "duration": 0.1848,
      "velocity": 127,
      "chip": "ym2612"
    },
    {
      "channel": 0,
      "note": 52,
      "start": 128.036,
      "duration": 0.3831,
      "velocity": 88,
      "chip": "ym2612"
    },
    {
      "channel": 2,
      "note": 42,
      "start": 128.0378,
      "duration": 0.1817,
      "velocity": 127,
      "chip": "ym2612"
    },
    {
      "channel": 2,
      "note": 30,
      "start": 128.2362,
      "duration": 0.1834,
      "velocity": 127,
      "chip": "ym2612"
    },
    {
      "channel": 1,
      "note": 63,
      "start": 128.4361,
      "duration": 0.1812,
      "velocity": 83,
      "chip": "ym2612"
    },
    {
      "channel": 2,
      "note": 30,
      "start": 128.4378,
      "duration": 0.1797,
      "velocity": 127,
      "chip": "ym2612"
    },
    {
      "channel": 0,
      "note": 52,
      "start": 128.6339,
      "duration": 0.1832,
      "velocity": 88,
      "chip": "ym2612"
    },
    {
      "channel": 1,
      "note": 69,
      "start": 128.6341,
      "duration": 0.1831,
      "velocity": 83,
      "chip": "ym2612"
    },
    {
      "channel": 2,
      "note": 42,
      "start": 128.6358,
      "duration": 0.1817,
      "velocity": 127,
      "chip": "ym2612"
    },
    {
      "channel": 0,
      "note": 52,
      "start": 128.8339,
      "duration": 0.3839,
      "velocity": 88,
      "chip": "ym2612"
    },
    {
      "channel": 1,
      "note": 67,
      "start": 128.8341,
      "duration": 0.1838,
      "velocity": 83,
      "chip": "ym2612"
    },
    {
      "channel": 2,
      "note": 30,
      "start": 128.8344,
      "duration": 0.1837,
      "velocity": 127,
      "chip": "ym2612"
    },
    {
      "channel": 1,
      "note": 71,
      "start": 129.0346,
      "duration": 0.1833,
      "velocity": 83,
      "chip": "ym2612"
    },
    {
      "channel": 2,
      "note": 30,
      "start": 129.0349,
      "duration": 0.1833,
      "velocity": 127,
      "chip": "ym2612"
    },
    {
      "channel": 1,
      "note": 69,
      "start": 129.2346,
      "duration": 0.1835,
      "velocity": 83,
      "chip": "ym2612"
    },
    {
      "channel": 2,
      "note": 30,
      "start": 129.2363,
      "duration": 0.1819,
      "velocity": 127,
      "chip": "ym2612"
    },
    {
      "channel": 0,
      "note": 52,
      "start": 129.4345,
      "duration": 0.1834,
      "velocity": 88,
      "chip": "ym2612"
    },
    {
      "channel": 1,
      "note": 62,
      "start": 129.4348,
      "duration": 1.1833,
      "velocity": 83,
      "chip": "ym2612"
    },
    {
      "channel": 2,
      "note": 42,
      "start": 129.435,
      "duration": 0.1832,
      "velocity": 127,
      "chip": "ym2612"
    },
    {
      "channel": 0,
      "note": 52,
      "start": 129.6348,
      "duration": 0.383,
      "velocity": 88,
      "chip": "ym2612"
    },
    {
      "channel": 2,
      "note": 42,
      "start": 129.6366,
      "duration": 0.1815,
      "velocity": 127,
      "chip": "ym2612"
    },
    {
      "channel": 2,
      "note": 30,
      "start": 129.8349,
      "duration": 0.1832,
      "velocity": 127,
      "chip": "ym2612"
    },
    {
      "channel": 2,
      "note": 30,
      "start": 130.0363,
      "duration": 0.1819,
      "velocity": 127,
      "chip": "ym2612"
    },
    {
      "channel": 0,
      "note": 52,
      "start": 130.2346,
      "duration": 0.1832,
      "velocity": 88,
      "chip": "ym2612"
    },
    {
      "channel": 2,
      "note": 42,
      "start": 130.2364,
      "duration": 0.1817,
      "velocity": 127,
      "chip": "ym2612"
    },
    {
      "channel": 2,
      "note": 30,
      "start": 130.4348,
      "duration": 0.1835,
      "velocity": 127,
      "chip": "ym2612"
    },
    {
      "channel": 0,
      "note": 52,
      "start": 130.6345,
      "duration": 0.1834,
      "velocity": 88,
      "chip": "ym2612"
    },
    {
      "channel": 2,
      "note": 30,
      "start": 130.6349,
      "duration": 0.1834,
      "velocity": 127,
      "chip": "ym2612"
    },
    {
      "channel": 0,
      "note": 52,
      "start": 130.8346,
      "duration": 0.1833,
      "velocity": 88,
      "chip": "ym2612"
    },
    {
      "channel": 1,
      "note": 64,
      "start": 130.8348,
      "duration": 0.1832,
      "velocity": 83,
      "chip": "ym2612"
    },
    {
      "channel": 2,
      "note": 30,
      "start": 130.8365,
      "duration": 0.1817,
      "velocity": 127,
      "chip": "ym2612"
    },
    {
      "channel": 0,
      "note": 52,
      "start": 131.0346,
      "duration": 0.1832,
      "velocity": 88,
      "chip": "ym2612"
    },
    {
      "channel": 1,
      "note": 62,
      "start": 131.0349,
      "duration": 0.1832,
      "velocity": 83,
      "chip": "ym2612"
    },
    {
      "channel": 2,
      "note": 42,
      "start": 131.0351,
      "duration": 0.1831,
      "velocity": 127,
      "chip": "ym2612"
    },
    {
      "channel": 0,
      "note": 52,
      "start": 131.2348,
      "duration": 0.383,
      "velocity": 88,
      "chip": "ym2612"
    },
    {
      "channel": 1,
      "note": 64,
      "start": 131.235,
      "duration": 0.9829,
      "velocity": 83,
      "chip": "ym2612"
    },
    {
      "channel": 2,
      "note": 42,
      "start": 131.2367,
      "duration": 0.1814,
      "velocity": 127,
      "chip": "ym2612"
    },
    {
      "channel": 2,
      "note": 30,
      "start": 131.4348,
      "duration": 0.1833,
      "velocity": 127,
      "chip": "ym2612"
    },
    {
      "channel": 2,
      "note": 30,
      "start": 131.6362,
      "duration": 0.182,
      "velocity": 127,
      "chip": "ym2612"
    },
    {
      "channel": 0,
      "note": 48,
      "start": 131.8346,
      "duration": 0.1832,
      "velocity": 88,
      "chip": "ym2612"
    },
    {
      "channel": 2,
      "note": 42,
      "start": 131.8365,
      "duration": 0.1817,
      "velocity": 127,
      "chip": "ym2612"
    },
    {
      "channel": 0,
      "note": 48,
      "start": 132.0346,
      "duration": 0.3832,
      "velocity": 88,
      "chip": "ym2612"
    },
    {
      "channel": 2,
      "note": 30,
      "start": 132.0349,
      "duration": 0.1832,
      "velocity": 127,
      "chip": "ym2612"
    },
    {
      "channel": 1,
      "note": 75,
      "start": 132.2348,
      "duration": 0.3824,
      "velocity": 83,
      "chip": "ym2612"
    },
    {
      "channel": 2,
      "note": 30,
      "start": 132.235,
      "duration": 0.1831,
      "velocity": 127,
      "chip": "ym2612"
    },
    {
      "channel": 2,
      "note": 30,
      "start": 132.4362,
      "duration": 0.1812,
      "velocity": 127,
      "chip": "ym2612"
    },
    {
      "channel": 0,
      "note": 48,
      "start": 132.6338,
      "duration": 0.1832,
      "velocity": 88,
      "chip": "ym2612"
    },
    {
      "channel": 1,
      "note": 74,
      "start": 132.6341,
      "duration": 0.3838,
      "velocity": 83,
      "chip": "ym2612"
    },
    {
      "channel": 2,
      "note": 42,
      "start": 132.6343,
      "duration": 0.1831,
      "velocity": 127,
      "chip": "ym2612"
    },
    {
      "channel": 0,
      "note": 48,
      "start": 132.8339,
      "duration": 0.3839,
      "velocity": 88,
      "chip": "ym2612"
    },
    {
      "channel": 2,
      "note": 42,
      "start": 132.8357,
      "duration": 0.1824,
      "velocity": 127,
      "chip": "ym2612"
    },
    {
      "channel": 1,
      "note": 69,
      "start": 133.0348,
      "duration": 0.1832,
      "velocity": 83,
      "chip": "ym2612"
    },
    {
      "channel": 2,
      "note": 30,
      "start": 133.035,
      "duration": 0.1831,
      "velocity": 127,
      "chip": "ym2612"
    },
    {
      "channel": 2,
      "note": 30,
      "start": 133.2362,
      "duration": 0.182,
      "velocity": 127,
      "chip": "ym2612"
    },
    {
      "channel": 1,
      "note": 67,
      "start": 133.4348,
      "duration": 0.3832,
      "velocity": 83,
      "chip": "ym2612"
    },
    {
      "channel": 2,
      "note": 42,
      "start": 133.4365,
      "duration": 0.1816,
      "velocity": 127,
      "chip": "ym2612"
    },
    {
      "channel": 0,
      "note": 48,
      "start": 133.6346,
      "duration": 0.3832,
      "velocity": 88,
      "chip": "ym2612"
    },
    {
      "channel": 2,
      "note": 30,
      "start": 133.6351,
      "duration": 0.1831,
      "velocity": 127,
      "chip": "ym2612"
    },
    {
      "channel": 1,
      "note": 64,
      "start": 133.8347,
      "duration": 0.1833,
      "velocity": 83,
      "chip": "ym2612"
    },
    {
      "channel": 2,
      "note": 30,
      "start": 133.8349,
      "duration": 0.1833,
      "velocity": 127,
      "chip": "ym2612"
    },
    {
      "channel": 0,
      "note": 48,
      "start": 134.0346,
      "duration": 0.3833,
      "velocity": 88,
      "chip": "ym2612"
    },
    {
      "channel": 1,
      "note": 69,
      "start": 134.0349,
      "duration": 0.183,
      "velocity": 83,
      "chip": "ym2612"
    },
    {
      "channel": 2,
      "note": 30,
      "start": 134.0365,
      "duration": 0.1816,
      "velocity": 127,
      "chip": "ym2612"
    },
    {
      "channel": 1,
      "note": 67,
      "start": 134.2348,
      "duration": 3.185,
      "velocity": 83,
      "chip": "ym2612"
    },
    {
      "channel": 2,
      "note": 42,
      "start": 134.235,
      "duration": 0.1833,
      "velocity": 127,
      "chip": "ym2612"
    },
    {
      "channel": 0,
      "note": 48,
      "start": 134.4346,
      "duration": 0.3832,
      "velocity": 88,
      "chip": "ym2612"
    },
    {
      "channel": 2,
      "note": 42,
      "start": 134.4365,
      "duration": 0.1817,
      "velocity": 127,
      "chip": "ym2612"
    },
    {
      "channel": 2,
      "note": 30,
      "start": 134.6349,
      "duration": 0.1833,
      "velocity": 127,
      "chip": "ym2612"
    },
    {
      "channel": 2,
      "note": 30,
      "start": 134.8363,
      "duration": 0.1818,
      "velocity": 127,
      "chip": "ym2612"
    },
    {
      "channel": 0,
      "note": 52,
      "start": 135.0346,
      "duration": 0.1832,
      "velocity": 88,
      "chip": "ym2612"
    },
    {
      "channel": 2,
      "note": 42,
      "start": 135.0365,
      "duration": 0.1817,
      "velocity": 127,
      "chip": "ym2612"
    },
    {
      "channel": 0,
      "note": 52,
      "start": 135.2346,
      "duration": 0.1833,
      "velocity": 88,
      "chip": "ym2612"
    },
    {
      "channel": 2,
      "note": 30,
      "start": 135.235,
      "duration": 0.1832,
      "velocity": 127,
      "chip": "ym2612"
    },
    {
      "channel": 0,
      "note": 52,
      "start": 135.4346,
      "duration": 0.1832,
      "velocity": 88,
      "chip": "ym2612"
    },
    {
      "channel": 2,
      "note": 30,
      "start": 135.435,
      "duration": 0.1832,
      "velocity": 127,
      "chip": "ym2612"
    },
    {
      "channel": 2,
      "note": 30,
      "start": 135.6363,
      "duration": 0.1818,
      "velocity": 127,
      "chip": "ym2612"
    },
    {
      "channel": 2,
      "note": 42,
      "start": 135.8349,
      "duration": 0.1833,
      "velocity": 127,
      "chip": "ym2612"
    },
    {
      "channel": 0,
      "note": 50,
      "start": 136.0346,
      "duration": 0.3832,
      "velocity": 88,
      "chip": "ym2612"
    },
    {
      "channel": 2,
      "note": 42,
      "start": 136.0365,
      "duration": 0.1816,
      "velocity": 127,
      "chip": "ym2612"
    },
    {
      "channel": 2,
      "note": 30,
      "start": 136.2348,
      "duration": 0.1834,
      "velocity": 127,
      "chip": "ym2612"
    },
    {
      "channel": 2,
      "note": 30,
      "start": 136.4363,
      "duration": 0.1812,
      "velocity": 127,
      "chip": "ym2612"
    },
    {
      "channel": 0,
      "note": 52,
      "start": 136.6338,
      "duration": 0.1832,
      "velocity": 88,
      "chip": "ym2612"
    },
    {
      "channel": 2,
      "note": 42,
      "start": 136.6356,
      "duration": 0.1817,
      "velocity": 127,
      "chip": "ym2612"
    },
    {
      "channel": 0,
      "note": 52,
      "start": 136.8337,
      "duration": 0.1833,
      "velocity": 88,
      "chip": "ym2612"
    },
    {
      "channel": 2,
      "note": 30,
      "start": 136.8342,
      "duration": 0.1832,
      "velocity": 127,
      "chip": "ym2612"
    },
    {
      "channel": 0,
      "note": 52,
      "start": 137.0363,
      "duration": 0.1833,
      "velocity": 88,
      "chip": "ym2612"
    },
    {
      "channel": 2,
      "note": 30,
      "start": 137.0367,
      "duration": 0.1833,
      "velocity": 127,
      "chip": "ym2612"
    },
    {
      "channel": 2,
      "note": 30,
      "start": 137.2381,
      "duration": 0.1819,
      "velocity": 127,
      "chip": "ym2612"
    },
    {
      "channel": 1,
      "note": 64,
      "start": 137.4366,
      "duration": 0.9832,
      "velocity": 83,
      "chip": "ym2612"
    },
    {
      "channel": 2,
      "note": 42,
      "start": 137.4368,
      "duration": 0.1817,
      "velocity": 127,
      "chip": "ym2612"
    },
    {
      "channel": 0,
      "note": 50,
      "start": 137.6351,
      "duration": 0.3831,
      "velocity": 88,
      "chip": "ym2612"
    },
    {
      "channel": 2,
      "note": 42,
      "start": 137.637,
      "duration": 0.3815,
      "velocity": 127,
      "chip": "ym2612"
    },
    {
      "channel": 2,
      "note": 30,
      "start": 138.0381,
      "duration": 0.1819,
      "velocity": 127,
      "chip": "ym2612"
    },
    {
      "channel": 0,
      "note": 48,
      "start": 138.2363,
      "duration": 0.1833,
      "velocity": 88,
      "chip": "ym2612"
    },
    {
      "channel": 2,
      "note": 42,
      "start": 138.2382,
      "duration": 0.1818,
      "velocity": 127,
      "chip": "ym2612"
    },
    {
      "channel": 0,
      "note": 48,
      "start": 138.4364,
      "duration": 0.3819,
      "velocity": 88,
      "chip": "ym2612"
    },
    {
      "channel": 1,
      "note": 59,
      "start": 138.4367,
      "duration": 0.1817,
      "velocity": 83,
      "chip": "ym2612"
    },
    {
      "channel": 2,
      "note": 30,
      "start": 138.4369,
      "duration": 0.1817,
      "velocity": 127,
      "chip": "ym2612"
    },
    {
      "channel": 2,
      "note": 30,
      "start": 138.6353,
      "duration": 0.1834,
      "velocity": 127,
      "chip": "ym2612"
    },
    {
      "channel": 1,
      "note": 67,
      "start": 138.8351,
      "duration": 0.1833,
      "velocity": 83,
      "chip": "ym2612"
    },
    {
      "channel": 2,
      "note": 30,
      "start": 138.8368,
      "duration": 0.1818,
      "velocity": 127,
      "chip": "ym2612"
    },
    {
      "channel": 0,
      "note": 48,
      "start": 139.0351,
      "duration": 0.1845,
      "velocity": 88,
      "chip": "ym2612"
    },
    {
      "channel": 1,
      "note": 74,
      "start": 139.0354,
      "duration": 0.3844,
      "velocity": 83,
      "chip": "ym2612"
    },
    {
      "channel": 2,
      "note": 42,
      "start": 139.0371,
      "duration": 0.183,
      "velocity": 127,
      "chip": "ym2612"
    },
    {
      "channel": 0,
      "note": 48,
      "start": 139.2364,
      "duration": 0.3832,
      "velocity": 88,
      "chip": "ym2612"
    },
    {
      "channel": 2,
      "note": 30,
      "start": 139.2383,
      "duration": 0.1817,
      "velocity": 127,
      "chip": "ym2612"
    },
    {
      "channel": 1,
      "note": 67,
      "start": 139.4365,
      "duration": 0.1833,
      "velocity": 83,
      "chip": "ym2612"
    },
    {
      "channel": 2,
      "note": 30,
      "start": 139.4368,
      "duration": 0.1833,
      "velocity": 127,
      "chip": "ym2612"
    },
    {
      "channel": 2,
      "note": 30,
      "start": 139.6366,
      "duration": 0.182,
      "velocity": 127,
      "chip": "ym2612"
    },
    {
      "channel": 1,
      "note": 64,
      "start": 139.8353,
      "duration": 0.3845,
      "velocity": 83,
      "chip": "ym2612"
    },
    {
      "channel": 2,
      "note": 42,
      "start": 139.8369,
      "duration": 0.1817,
      "velocity": 127,
      "chip": "ym2612"
    },
    {
      "channel": 0,
      "note": 48,
      "start": 140.0349,
      "duration": 0.3847,
      "velocity": 88,
      "chip": "ym2612"
    },
    {
      "channel": 2,
      "note": 30,
      "start": 140.0353,
      "duration": 0.1846,
      "velocity": 127,
      "chip": "ym2612"
    },
    {
      "channel": 1,
      "note": 64,
      "start": 140.2365,
      "duration": 0.3807,
      "velocity": 83,
      "chip": "ym2612"
    },
    {
      "channel": 2,
      "note": 30,
      "start": 140.2367,
      "duration": 0.1833,
      "velocity": 127,
      "chip": "ym2612"
    },
    {
      "channel": 0,
      "note": 48,
      "start": 140.4363,
      "duration": 0.3807,
      "velocity": 88,
      "chip": "ym2612"
    },
    {
      "channel": 2,
      "note": 30,
      "start": 140.4382,
      "duration": 0.1793,
      "velocity": 127,
      "chip": "ym2612"
    },
    {
      "channel": 1,
      "note": 62,
      "start": 140.6339,
      "duration": 0.3832,
      "velocity": 83,
      "chip": "ym2612"
    },
    {
      "channel": 2,
      "note": 42,
      "start": 140.6342,
      "duration": 0.1833,
      "velocity": 127,
      "chip": "ym2612"
    },
    {
      "channel": 0,
      "note": 48,
      "start": 140.8339,
      "duration": 0.3839,
      "velocity": 88,
      "chip": "ym2612"
    },
    {
      "channel": 2,
      "note": 42,
      "start": 140.8358,
      "duration": 0.1816,
      "velocity": 127,
      "chip": "ym2612"
    },
    {
      "channel": 1,
      "note": 64,
      "start": 141.034,
      "duration": 0.184,
      "velocity": 83,
      "chip": "ym2612"
    },
    {
      "channel": 2,
      "note": 30,
      "start": 141.0342,
      "duration": 0.184,
      "velocity": 127,
      "chip": "ym2612"
    },
    {
      "channel": 2,
      "note": 30,
      "start": 141.2361,
      "duration": 0.1821,
      "velocity": 127,
      "chip": "ym2612"
    },
    {
      "channel": 0,
      "note": 52,
      "start": 141.4346,
      "duration": 0.1832,
      "velocity": 88,
      "chip": "ym2612"
    },
    {
      "channel": 1,
      "note": 64,
      "start": 141.4348,
      "duration": 0.1832,
      "velocity": 83,
      "chip": "ym2612"
    },
    {
      "channel": 2,
      "note": 42,
      "start": 141.4365,
      "duration": 0.1817,
      "velocity": 127,
      "chip": "ym2612"
    },
    {
      "channel": 0,
      "note": 52,
      "start": 141.6346,
      "duration": 0.3833,
      "velocity": 88,
      "chip": "ym2612"
    },
    {
      "channel": 1,
      "note": 76,
      "start": 141.6348,
      "duration": 0.1833,
      "velocity": 83,
      "chip": "ym2612"
    },
    {
      "channel": 2,
      "note": 30,
      "start": 141.6351,
      "duration": 0.1832,
      "velocity": 127,
      "chip": "ym2612"
    },
    {
      "channel": 2,
      "note": 30,
      "start": 141.8349,
      "duration": 0.1835,
      "velocity": 127,
      "chip": "ym2612"
    },
    {
      "channel": 1,
      "note": 67,
      "start": 142.0348,
      "duration": 0.1833,
      "velocity": 83,
      "chip": "ym2612"
    },
    {
      "channel": 2,
      "note": 30,
      "start": 142.0365,
      "duration": 0.182,
      "velocity": 127,
      "chip": "ym2612"
    },
    {
      "channel": 0,
      "note": 52,
      "start": 142.2348,
      "duration": 0.1831,
      "velocity": 88,
      "chip": "ym2612"
    },
    {
      "channel": 1,
      "note": 74,
      "start": 142.235,
      "duration": 0.1831,
      "velocity": 83,
      "chip": "ym2612"
    },
    {
      "channel": 2,
      "note": 42,
      "start": 142.2353,
      "duration": 0.183,
      "velocity": 127,
      "chip": "ym2612"
    },
    {
      "channel": 0,
      "note": 52,
      "start": 142.4346,
      "duration": 0.3833,
      "velocity": 88,
      "chip": "ym2612"
    },
    {
      "channel": 2,
      "note": 42,
      "start": 142.4365,
      "duration": 0.1817,
      "velocity": 127,
      "chip": "ym2612"
    },
    {
      "channel": 1,
      "note": 71,
      "start": 142.6347,
      "duration": 1.5834,
      "velocity": 83,
      "chip": "ym2612"
    },
    {
      "channel": 2,
      "note": 30,
      "start": 142.6349,
      "duration": 0.1834,
      "velocity": 127,
      "chip": "ym2612"
    },
    {
      "channel": 2,
      "note": 30,
      "start": 142.8364,
      "duration": 0.182,
      "velocity": 127,
      "chip": "ym2612"
    },
    {
      "channel": 0,
      "note": 52,
      "start": 143.0348,
      "duration": 0.1832,
      "velocity": 88,
      "chip": "ym2612"
    },
    {
      "channel": 2,
      "note": 42,
      "start": 143.0366,
      "duration": 0.1817,
      "velocity": 127,
      "chip": "ym2612"
    },
    {
      "channel": 2,
      "note": 30,
      "start": 143.2349,
      "duration": 0.1832,
      "velocity": 127,
      "chip": "ym2612"
    },
    {
      "channel": 0,
      "note": 52,
      "start": 143.4346,
      "duration": 0.1833,
      "velocity": 88,
      "chip": "ym2612"
    },
    {
      "channel": 2,
      "note": 30,
      "start": 143.4349,
      "duration": 0.1833,
      "velocity": 127,
      "chip": "ym2612"
    },
    {
      "channel": 0,
      "note": 52,
      "start": 143.6346,
      "duration": 0.1832,
      "velocity": 88,
      "chip": "ym2612"
    },
    {
      "channel": 2,
      "note": 30,
      "start": 143.6364,
      "duration": 0.1817,
      "velocity": 127,
      "chip": "ym2612"
    },
    {
      "channel": 0,
      "note": 52,
      "start": 143.8345,
      "duration": 0.1834,
      "velocity": 88,
      "chip": "ym2612"
    },
    {
      "channel": 2,
      "note": 42,
      "start": 143.8349,
      "duration": 0.1834,
      "velocity": 127,
      "chip": "ym2612"
    },
    {
      "channel": 0,
      "note": 50,
      "start": 144.0348,
      "duration": 0.3831,
      "velocity": 88,
      "chip": "ym2612"
    },
    {
      "channel": 2,
      "note": 42,
      "start": 144.0367,
      "duration": 0.1817,
      "velocity": 127,
      "chip": "ym2612"
    },
    {
      "channel": 1,
      "note": 64,
      "start": 144.2349,
      "duration": 0.3824,
      "velocity": 83,
      "chip": "ym2612"
    },
    {
      "channel": 2,
      "note": 30,
      "start": 144.2351,
      "duration": 0.1831,
      "velocity": 127,
      "chip": "ym2612"
    },
    {
      "channel": 2,
      "note": 30,
      "start": 144.4363,
      "duration": 0.1812,
      "velocity": 127,
      "chip": "ym2612"
    },
    {
      "channel": 0,
      "note": 48,
      "start": 144.6339,
      "duration": 0.1832,
      "velocity": 88,
      "chip": "ym2612"
    },
    {
      "channel": 1,
      "note": 62,
      "start": 144.6341,
      "duration": 0.3831,
      "velocity": 83,
      "chip": "ym2612"
    },
    {
      "channel": 2,
      "note": 42,
      "start": 144.6358,
      "duration": 0.1816,
      "velocity": 127,
      "chip": "ym2612"
    },
    {
      "channel": 0,
      "note": 48,
      "start": 144.8338,
      "duration": 0.384,
      "velocity": 88,
      "chip": "ym2612"
    },
    {
      "channel": 2,
      "note": 30,
      "start": 144.8342,
      "duration": 0.1832,
      "velocity": 127,
      "chip": "ym2612"
    },
    {
      "channel": 1,
      "note": 67,
      "start": 145.0339,
      "duration": 0.384,
      "velocity": 83,
      "chip": "ym2612"
    },
    {
      "channel": 2,
      "note": 30,
      "start": 145.0342,
      "duration": 0.184,
      "velocity": 127,
      "chip": "ym2612"
    },
    {
      "channel": 0,
      "note": 48,
      "start": 145.2346,
      "duration": 0.3846,
      "velocity": 88,
      "chip": "ym2612"
    },
    {
      "channel": 2,
      "note": 30,
      "start": 145.2364,
      "duration": 0.1818,
      "velocity": 127,
      "chip": "ym2612"
    },
    {
      "channel": 1,
      "note": 64,
      "start": 145.4347,
      "duration": 0.3846,
      "velocity": 83,
      "chip": "ym2612"
    },
    {
      "channel": 2,
      "note": 42,
      "start": 145.4349,
      "duration": 0.1846,
      "velocity": 127,
      "chip": "ym2612"
    },
    {
      "channel": 0,
      "note": 48,
      "start": 145.636,
      "duration": 0.3818,
      "velocity": 88,
      "chip": "ym2612"
    },
    {
      "channel": 2,
      "note": 42,
      "start": 145.6378,
      "duration": 0.1817,
      "velocity": 127,
      "chip": "ym2612"
    },
    {
      "channel": 1,
      "note": 62,
      "start": 145.836,
      "duration": 0.3819,
      "velocity": 83,
      "chip": "ym2612"
    },
    {
      "channel": 2,
      "note": 30,
      "start": 145.8363,
      "duration": 0.1819,
      "velocity": 127,
      "chip": "ym2612"
    },
    {
      "channel": 2,
      "note": 30,
      "start": 146.0362,
      "duration": 0.1819,
      "velocity": 127,
      "chip": "ym2612"
    },
    {
      "channel": 0,
      "note": 46,
      "start": 146.2346,
      "duration": 0.1832,
      "velocity": 88,
      "chip": "ym2612"
    },
    {
      "channel": 1,
      "note": 65,
      "start": 146.2348,
      "duration": 0.3845,
      "velocity": 83,
      "chip": "ym2612"
    },
    {
      "channel": 2,
      "note": 42,
      "start": 146.2365,
      "duration": 0.1816,
      "velocity": 127,
      "chip": "ym2612"
    },
    {
      "channel": 0,
      "note": 46,
      "start": 146.4346,
      "duration": 0.3846,
      "velocity": 88,
      "chip": "ym2612"
    },
    {
      "channel": 2,
      "note": 30,
      "start": 146.435,
      "duration": 0.1845,
      "velocity": 127,
      "chip": "ym2612"
    },
    {
      "channel": 1,
      "note": 70,
      "start": 146.636,
      "duration": 0.3833,
      "velocity": 83,
      "chip": "ym2612"
    },
    {
      "channel": 2,
      "note": 30,
      "start": 146.6363,
      "duration": 0.1833,
      "velocity": 127,
      "chip": "ym2612"
    },
    {
      "channel": 0,
      "note": 53,
      "start": 146.836,
      "duration": 0.3819,
      "velocity": 88,
      "chip": "ym2612"
    },
    {
      "channel": 2,
      "note": 30,
      "start": 146.8378,
      "duration": 0.1817,
      "velocity": 127,
      "chip": "ym2612"
    },
    {
      "channel": 1,
      "note": 74,
      "start": 147.0361,
      "duration": 0.1819,
      "velocity": 83,
      "chip": "ym2612"
    },
    {
      "channel": 2,
      "note": 42,
      "start": 147.0363,
      "duration": 0.1819,
      "velocity": 127,
      "chip": "ym2612"
    },
    {
      "channel": 0,
      "note": 53,
      "start": 147.2348,
      "duration": 0.3844,
      "velocity": 88,
      "chip": "ym2612"
    },
    {
      "channel": 1,
      "note": 74,
      "start": 147.235,
      "duration": 3.1831,
      "velocity": 83,
      "chip": "ym2612"
    },
    {
      "channel": 2,
      "note": 42,
      "start": 147.2367,
      "duration": 0.1814,
      "velocity": 127,
      "chip": "ym2612"
    },
    {
      "channel": 2,
      "note": 30,
      "start": 147.4348,
      "duration": 0.1848,
      "velocity": 127,
      "chip": "ym2612"
    },
    {
      "channel": 2,
      "note": 30,
      "start": 147.6376,
      "duration": 0.182,
      "velocity": 127,
      "chip": "ym2612"
    },
    {
      "channel": 0,
      "note": 52,
      "start": 147.836,
      "duration": 0.1833,
      "velocity": 88,
      "chip": "ym2612"
    },
    {
      "channel": 2,
      "note": 42,
      "start": 147.8378,
      "duration": 0.1818,
      "velocity": 127,
      "chip": "ym2612"
    },
    {
      "channel": 0,
      "note": 52,
      "start": 148.036,
      "duration": 0.3817,
      "velocity": 88,
      "chip": "ym2612"
    },
    {
      "channel": 2,
      "note": 30,
      "start": 148.0363,
      "duration": 0.1817,
      "velocity": 127,
      "chip": "ym2612"
    },
    {
      "channel": 2,
      "note": 30,
      "start": 148.2349,
      "duration": 0.1832,
      "velocity": 127,
      "chip": "ym2612"
    },
    {
      "channel": 2,
      "note": 30,
      "start": 148.4363,
      "duration": 0.1811,
      "velocity": 127,
      "chip": "ym2612"
    },
    {
      "channel": 0,
      "note": 52,
      "start": 148.6337,
      "duration": 0.1833,
      "velocity": 88,
      "chip": "ym2612"
    },
    {
      "channel": 2,
      "note": 42,
      "start": 148.6341,
      "duration": 0.1833,
      "velocity": 127,
      "chip": "ym2612"
    },
    {
      "channel": 0,
      "note": 52,
      "start": 148.8339,
      "duration": 0.384,
      "velocity": 88,
      "chip": "ym2612"
    },
    {
      "channel": 2,
      "note": 42,
      "start": 148.8357,
      "duration": 0.1817,
      "velocity": 127,
      "chip": "ym2612"
    },
    {
      "channel": 2,
      "note": 30,
      "start": 149.0341,
      "duration": 0.1841,
      "velocity": 127,
      "chip": "ym2612"
    },
    {
      "channel": 2,
      "note": 30,
      "start": 149.2363,
      "duration": 0.1819,
      "velocity": 127,
      "chip": "ym2612"
    },
    {
      "channel": 0,
      "note": 52,
      "start": 149.4346,
      "duration": 0.1833,
      "velocity": 88,
      "chip": "ym2612"
    },
    {
      "channel": 2,
      "note": 42,
      "start": 149.4364,
      "duration": 0.1818,
      "velocity": 127,
      "chip": "ym2612"
    },
    {
      "channel": 2,
      "note": 30,
      "start": 149.6348,
      "duration": 0.1834,
      "velocity": 127,
      "chip": "ym2612"
    },
    {
      "channel": 0,
      "note": 52,
      "start": 149.8346,
      "duration": 0.1833,
      "velocity": 88,
      "chip": "ym2612"
    },
    {
      "channel": 2,
      "note": 30,
      "start": 149.835,
      "duration": 0.1832,
      "velocity": 127,
      "chip": "ym2612"
    },
    {
      "channel": 0,
      "note": 52,
      "start": 150.0346,
      "duration": 0.1832,
      "velocity": 88,
      "chip": "ym2612"
    },
    {
      "channel": 2,
      "note": 30,
      "start": 150.0364,
      "duration": 0.1817,
      "velocity": 127,
      "chip": "ym2612"
    },
    {
      "channel": 0,
      "note": 50,
      "start": 150.2345,
      "duration": 0.1834,
      "velocity": 88,
      "chip": "ym2612"
    },
    {
      "channel": 2,
      "note": 42,
      "start": 150.2349,
      "duration": 0.1834,
      "velocity": 127,
      "chip": "ym2612"
    },
    {
      "channel": 0,
      "note": 52,
      "start": 150.4363,
      "duration": 0.3815,
      "velocity": 88,
      "chip": "ym2612"
    },
    {
      "channel": 2,
      "note": 42,
      "start": 150.4395,
      "duration": 0.1786,
      "velocity": 127,
      "chip": "ym2612"
    },
    {
      "channel": 2,
      "note": 30,
      "start": 150.6348,
      "duration": 0.1833,
      "velocity": 127,
      "chip": "ym2612"
    },
    {
      "channel": 2,
      "note": 30,
      "start": 150.8362,
      "duration": 0.0819,
      "velocity": 127,
      "chip": "ym2612"
    },
    {
      "channel": 2,
      "note": 42,
      "start": 150.9348,
      "duration": 0.0834,
      "velocity": 127,
      "chip": "ym2612"
    },
    {
      "channel": 0,
      "note": 52,
      "start": 151.0346,
      "duration": 0.1832,
      "velocity": 88,
      "chip": "ym2612"
    },
    {
      "channel": 2,
      "note": 42,
      "start": 151.0365,
      "duration": 0.1817,
      "velocity": 127,
      "chip": "ym2612"
    },
    {
      "channel": 0,
      "note": 52,
      "start": 151.2345,
      "duration": 0.3834,
      "velocity": 88,
      "chip": "ym2612"
    },
    {
      "channel": 2,
      "note": 30,
      "start": 151.2349,
      "duration": 0.1832,
      "velocity": 127,
      "chip": "ym2612"
    },
    {
      "channel": 2,
      "note": 30,
      "start": 151.4349,
      "duration": 0.1833,
      "velocity": 127,
      "chip": "ym2612"
    },
    {
      "channel": 2,
      "note": 30,
      "start": 151.6363,
      "duration": 0.0819,
      "velocity": 127,
      "chip": "ym2612"
    },
    {
      "channel": 2,
      "note": 42,
      "start": 151.7349,
      "duration": 0.0833,
      "velocity": 127,
      "chip": "ym2612"
    },
    {
      "channel": 0,
      "note": 52,
      "start": 151.8345,
      "duration": 0.1833,
      "velocity": 88,
      "chip": "ym2612"
    },
    {
      "channel": 2,
      "note": 42,
      "start": 151.8349,
      "duration": 0.0831,
      "velocity": 127,
      "chip": "ym2612"
    },
    {
      "channel": 2,
      "note": 42,
      "start": 151.9348,
      "duration": 0.0833,
      "velocity": 127,
      "chip": "ym2612"
    },
    {
      "channel": 0,
      "note": 52,
      "start": 152.0346,
      "duration": 0.3832,
      "velocity": 88,
      "chip": "ym2612"
    },
    {
      "channel": 2,
      "note": 42,
      "start": 152.0365,
      "duration": 0.1817,
      "velocity": 127,
      "chip": "ym2612"
    },
    {
      "channel": 2,
      "note": 30,
      "start": 152.2348,
      "duration": 0.1834,
      "velocity": 127,
      "chip": "ym2612"
    },
    {
      "channel": 2,
      "note": 30,
      "start": 152.4363,
      "duration": 0.1812,
      "velocity": 127,
      "chip": "ym2612"
    },
    {
      "channel": 0,
      "note": 52,
      "start": 152.6338,
      "duration": 0.1833,
      "velocity": 88,
      "chip": "ym2612"
    },
    {
      "channel": 2,
      "note": 42,
      "start": 152.6356,
      "duration": 0.1818,
      "velocity": 127,
      "chip": "ym2612"
    },
    {
      "channel": 2,
      "note": 30,
      "start": 152.834,
      "duration": 0.1835,
      "velocity": 127,
      "chip": "ym2612"
    },
    {
      "channel": 0,
      "note": 52,
      "start": 153.0338,
      "duration": 0.184,
      "velocity": 88,
      "chip": "ym2612"
    },
    {
      "channel": 2,
      "note": 30,
      "start": 153.0342,
      "duration": 0.1839,
      "velocity": 127,
      "chip": "ym2612"
    },
    {
      "channel": 0,
      "note": 52,
      "start": 153.2346,
      "duration": 0.1832,
      "velocity": 88,
      "chip": "ym2612"
    },
    {
      "channel": 2,
      "note": 30,
      "start": 153.2365,
      "duration": 0.1817,
      "velocity": 127,
      "chip": "ym2612"
    },
    {
      "channel": 0,
      "note": 52,
      "start": 153.4346,
      "duration": 0.1833,
      "velocity": 88,
      "chip": "ym2612"
    },
    {
      "channel": 2,
      "note": 42,
      "start": 153.4349,
      "duration": 0.1833,
      "velocity": 127,
      "chip": "ym2612"
    },
    {
      "channel": 0,
      "note": 52,
      "start": 153.6346,
      "duration": 0.3833,
      "velocity": 88,
      "chip": "ym2612"
    },
    {
      "channel": 2,
      "note": 42,
      "start": 153.6364,
      "duration": 0.1817,
      "velocity": 127,
      "chip": "ym2612"
    },
    {
      "channel": 2,
      "note": 30,
      "start": 153.8349,
      "duration": 0.1834,
      "velocity": 127,
      "chip": "ym2612"
    },
    {
      "channel": 2,
      "note": 30,
      "start": 154.0363,
      "duration": 0.1818,
      "velocity": 127,
      "chip": "ym2612"
    },
    {
      "channel": 0,
      "note": 52,
      "start": 154.2346,
      "duration": 0.1833,
      "velocity": 88,
      "chip": "ym2612"
    },
    {
      "channel": 2,
      "note": 42,
      "start": 154.2364,
      "duration": 0.1818,
      "velocity": 127,
      "chip": "ym2612"
    },
    {
      "channel": 0,
      "note": 52,
      "start": 154.4346,
      "duration": 0.3833,
      "velocity": 88,
      "chip": "ym2612"
    },
    {
      "channel": 2,
      "note": 30,
      "start": 154.435,
      "duration": 0.183,
      "velocity": 127,
      "chip": "ym2612"
    },
    {
      "channel": 2,
      "note": 30,
      "start": 154.6348,
      "duration": 0.1834,
      "velocity": 127,
      "chip": "ym2612"
    },
    {
      "channel": 2,
      "note": 30,
      "start": 154.8363,
      "duration": 0.1819,
      "velocity": 127,
      "chip": "ym2612"
    },
    {
      "channel": 0,
      "note": 52,
      "start": 155.0346,
      "duration": 0.1832,
      "velocity": 88,
      "chip": "ym2612"
    },
    {
      "channel": 2,
      "note": 42,
      "start": 155.0349,
      "duration": 0.1832,
      "velocity": 127,
      "chip": "ym2612"
    },
    {
      "channel": 0,
      "note": 52,
      "start": 155.2347,
      "duration": 0.3831,
      "velocity": 88,
      "chip": "ym2612"
    },
    {
      "channel": 2,
      "note": 42,
      "start": 155.2365,
      "duration": 0.1817,
      "velocity": 127,
      "chip": "ym2612"
    },
    {
      "channel": 2,
      "note": 30,
      "start": 155.4349,
      "duration": 0.1833,
      "velocity": 127,
      "chip": "ym2612"
    },
    {
      "channel": 2,
      "note": 30,
      "start": 155.6363,
      "duration": 0.1819,
      "velocity": 127,
      "chip": "ym2612"
    },
    {
      "channel": 0,
      "note": 52,
      "start": 155.8345,
      "duration": 0.1833,
      "velocity": 88,
      "chip": "ym2612"
    },
    {
      "channel": 2,
      "note": 42,
      "start": 155.8363,
      "duration": 0.1817,
      "velocity": 127,
      "chip": "ym2612"
    },
    {
      "channel": 2,
      "note": 30,
      "start": 156.0348,
      "duration": 0.1835,
      "velocity": 127,
      "chip": "ym2612"
    },
    {
      "channel": 0,
      "note": 52,
      "start": 156.2346,
      "duration": 0.1833,
      "velocity": 88,
      "chip": "ym2612"
    },
    {
      "channel": 2,
      "note": 30,
      "start": 156.235,
      "duration": 0.1833,
      "velocity": 127,
      "chip": "ym2612"
    },
    {
      "channel": 0,
      "note": 52,
      "start": 156.4346,
      "duration": 0.1825,
      "velocity": 88,
      "chip": "ym2612"
    },
    {
      "channel": 2,
      "note": 30,
      "start": 156.4365,
      "duration": 0.181,
      "velocity": 127,
      "chip": "ym2612"
    },
    {
      "channel": 0,
      "note": 52,
      "start": 156.6337,
      "duration": 0.1834,
      "velocity": 88,
      "chip": "ym2612"
    },
    {
      "channel": 2,
      "note": 42,
      "start": 156.6341,
      "duration": 0.1834,
      "velocity": 127,
      "chip": "ym2612"
    },
    {
      "channel": 0,
      "note": 52,
      "start": 156.8339,
      "duration": 0.3844,
      "velocity": 88,
      "chip": "ym2612"
    },
    {
      "channel": 2,
      "note": 42,
      "start": 156.8357,
      "duration": 0.1817,
      "velocity": 127,
      "chip": "ym2612"
    },
    {
      "channel": 2,
      "note": 30,
      "start": 157.0341,
      "duration": 0.1846,
      "velocity": 127,
      "chip": "ym2612"
    },
    {
      "channel": 2,
      "note": 30,
      "start": 157.2367,
      "duration": 0.1819,
      "velocity": 127,
      "chip": "ym2612"
    },
    {
      "channel": 0,
      "note": 48,
      "start": 157.4349,
      "duration": 0.1833,
      "velocity": 88,
      "chip": "ym2612"
    },
    {
      "channel": 2,
      "note": 42,
      "start": 157.4368,
      "duration": 0.1818,
      "velocity": 127,
      "chip": "ym2612"
    },
    {
      "channel": 0,
      "note": 48,
      "start": 157.6351,
      "duration": 0.3845,
      "velocity": 88,
      "chip": "ym2612"
    },
    {
      "channel": 2,
      "note": 30,
      "start": 157.6355,
      "duration": 0.1844,
      "velocity": 127,
      "chip": "ym2612"
    },
    {
      "channel": 2,
      "note": 30,
      "start": 157.8367,
      "duration": 0.1832,
      "velocity": 127,
      "chip": "ym2612"
    },
    {
      "channel": 2,
      "note": 30,
      "start": 158.0381,
      "duration": 0.1805,
      "velocity": 127,
      "chip": "ym2612"
    },
    {
      "channel": 0,
      "note": 48,
      "start": 158.235,
      "duration": 0.1833,
      "velocity": 88,
      "chip": "ym2612"
    },
    {
      "channel": 2,
      "note": 42,
      "start": 158.2354,
      "duration": 0.1833,
      "velocity": 127,
      "chip": "ym2612"
    },
    {
      "channel": 0,
      "note": 48,
      "start": 158.4351,
      "duration": 0.3845,
      "velocity": 88,
      "chip": "ym2612"
    },
    {
      "channel": 2,
      "note": 42,
      "start": 158.437,
      "duration": 0.1815,
      "velocity": 127,
      "chip": "ym2612"
    },
    {
      "channel": 2,
      "note": 30,
      "start": 158.6352,
      "duration": 0.1848,
      "velocity": 127,
      "chip": "ym2612"
    },
    {
      "channel": 2,
      "note": 30,
      "start": 158.8381,
      "duration": 0.1818,
      "velocity": 127,
      "chip": "ym2612"
    },
    {
      "channel": 2,
      "note": 42,
      "start": 159.0381,
      "duration": 0.1819,
      "velocity": 127,
      "chip": "ym2612"
    },
    {
      "channel": 0,
      "note": 48,
      "start": 159.2363,
      "duration": 0.3819,
      "velocity": 88,
      "chip": "ym2612"
    },
    {
      "channel": 2,
      "note": 30,
      "start": 159.2367,
      "duration": 0.1818,
      "velocity": 127,
      "chip": "ym2612"
    },
    {
      "channel": 2,
      "note": 30,
      "start": 159.4352,
      "duration": 0.1834,
      "velocity": 127,
      "chip": "ym2612"
    },
    {
      "channel": 0,
      "note": 48,
      "start": 159.635,
      "duration": 0.3847,
      "velocity": 88,
      "chip": "ym2612"
    },
    {
      "channel": 2,
      "note": 30,
      "start": 159.6368,
      "duration": 0.1832,
      "velocity": 127,
      "chip": "ym2612"
    },
    {
      "channel": 2,
      "note": 42,
      "start": 159.8367,
      "duration": 0.1834,
      "velocity": 127,
      "chip": "ym2612"
    },
    {
      "channel": 0,
      "note": 48,
      "start": 160.0365,
      "duration": 0.3818,
      "velocity": 88,
      "chip": "ym2612"
    },
    {
      "channel": 2,
      "note": 42,
      "start": 160.0383,
      "duration": 0.1817,
      "velocity": 127,
      "chip": "ym2612"
    },
    {
      "channel": 2,
      "note": 30,
      "start": 160.2366,
      "duration": 0.1821,
      "velocity": 127,
      "chip": "ym2612"
    },
    {
      "channel": 2,
      "note": 30,
      "start": 160.4367,
      "duration": 0.1807,
      "velocity": 127,
      "chip": "ym2612"
    },
    {
      "channel": 0,
      "note": 52,
      "start": 160.6339,
      "duration": 0.1832,
      "velocity": 88,
      "chip": "ym2612"
    },
    {
      "channel": 2,
      "note": 42,
      "start": 160.6357,
      "duration": 0.1817,
      "velocity": 127,
      "chip": "ym2612"
    },
    {
      "channel": 0,
      "note": 52,
      "start": 160.8338,
      "duration": 0.1833,
      "velocity": 88,
      "chip": "ym2612"
    },
    {
      "channel": 2,
      "note": 30,
      "start": 160.8342,
      "duration": 0.1833,
      "velocity": 127,
      "chip": "ym2612"
    },
    {
      "channel": 0,
      "note": 52,
      "start": 161.0338,
      "duration": 0.184,
      "velocity": 88,
      "chip": "ym2612"
    },
    {
      "channel": 2,
      "note": 30,
      "start": 161.0342,
      "duration": 0.184,
      "velocity": 127,
      "chip": "ym2612"
    },
    {
      "channel": 2,
      "note": 30,
      "start": 161.2363,
      "duration": 0.1819,
      "velocity": 127,
      "chip": "ym2612"
    },
    {
      "channel": 2,
      "note": 42,
      "start": 161.4349,
      "duration": 0.1833,
      "velocity": 127,
      "chip": "ym2612"
    },
    {
      "channel": 0,
      "note": 50,
      "start": 161.6348,
      "duration": 0.383,
      "velocity": 88,
      "chip": "ym2612"
    },
    {
      "channel": 2,
      "note": 42,
      "start": 161.6367,
      "duration": 0.1816,
      "velocity": 127,
      "chip": "ym2612"
    },
    {
      "channel": 2,
      "note": 30,
      "start": 161.8349,
      "duration": 0.1833,
      "velocity": 127,
      "chip": "ym2612"
    },
    {
      "channel": 2,
      "note": 30,
      "start": 162.0363,
      "duration": 0.1819,
      "velocity": 127,
      "chip": "ym2612"
    },
    {
      "channel": 0,
      "note": 52,
      "start": 162.2345,
      "duration": 0.1832,
      "velocity": 88,
      "chip": "ym2612"
    },
    {
      "channel": 2,
      "note": 42,
      "start": 162.2363,
      "duration": 0.1817,
      "velocity": 127,
      "chip": "ym2612"
    },
    {
      "channel": 0,
      "note": 52,
      "start": 162.4345,
      "duration": 0.1834,
      "velocity": 88,
      "chip": "ym2612"
    },
    {
      "channel": 2,
      "note": 30,
      "start": 162.4349,
      "duration": 0.1834,
      "velocity": 127,
      "chip": "ym2612"
    },
    {
      "channel": 0,
      "note": 52,
      "start": 162.6348,
      "duration": 0.1833,
      "velocity": 88,
      "chip": "ym2612"
    },
    {
      "channel": 2,
      "note": 30,
      "start": 162.6351,
      "duration": 0.1833,
      "velocity": 127,
      "chip": "ym2612"
    },
    {
      "channel": 2,
      "note": 30,
      "start": 162.8365,
      "duration": 0.1816,
      "velocity": 127,
      "chip": "ym2612"
    },
    {
      "channel": 2,
      "note": 42,
      "start": 163.0348,
      "duration": 0.1834,
      "velocity": 127,
      "chip": "ym2612"
    },
    {
      "channel": 0,
      "note": 50,
      "start": 163.2347,
      "duration": 0.3833,
      "velocity": 88,
      "chip": "ym2612"
    },
    {
      "channel": 2,
      "note": 42,
      "start": 163.238,
      "duration": 0.1801,
      "velocity": 127,
      "chip": "ym2612"
    },
    {
      "channel": 2,
      "note": 30,
      "start": 163.4348,
      "duration": 0.1835,
      "velocity": 127,
      "chip": "ym2612"
    },
    {
      "channel": 2,
      "note": 30,
      "start": 163.6364,
      "duration": 0.1819,
      "velocity": 127,
      "chip": "ym2612"
    },
    {
      "channel": 0,
      "note": 48,
      "start": 163.8347,
      "duration": 0.1832,
      "velocity": 88,
      "chip": "ym2612"
    },
    {
      "channel": 2,
      "note": 42,
      "start": 163.8365,
      "duration": 0.1817,
      "velocity": 127,
      "chip": "ym2612"
    },
    {
      "channel": 0,
      "note": 48,
      "start": 164.0348,
      "duration": 0.383,
      "velocity": 88,
      "chip": "ym2612"
    },
    {
      "channel": 2,
      "note": 30,
      "start": 164.0352,
      "duration": 0.1829,
      "velocity": 127,
      "chip": "ym2612"
    },
    {
      "channel": 2,
      "note": 30,
      "start": 164.2348,
      "duration": 0.1834,
      "velocity": 127,
      "chip": "ym2612"
    },
    {
      "channel": 2,
      "note": 30,
      "start": 164.4363,
      "duration": 0.182,
      "velocity": 127,
      "chip": "ym2612"
    },
    {
      "channel": 0,
      "note": 48,
      "start": 164.6337,
      "duration": 0.1833,
      "velocity": 88,
      "chip": "ym2612"
    },
    {
      "channel": 2,
      "note": 42,
      "start": 164.6342,
      "duration": 0.1832,
      "velocity": 127,
      "chip": "ym2612"
    },
    {
      "channel": 0,
      "note": 48,
      "start": 164.8339,
      "duration": 0.3853,
      "velocity": 88,
      "chip": "ym2612"
    },
    {
      "channel": 2,
      "note": 42,
      "start": 164.8358,
      "duration": 0.1816,
      "velocity": 127,
      "chip": "ym2612"
    },
    {
      "channel": 2,
      "note": 30,
      "start": 165.0341,
      "duration": 0.1854,
      "velocity": 127,
      "chip": "ym2612"
    },
    {
      "channel": 2,
      "note": 30,
      "start": 165.2376,
      "duration": 0.1819,
      "velocity": 127,
      "chip": "ym2612"
    },
    {
      "channel": 2,
      "note": 42,
      "start": 165.4376,
      "duration": 0.182,
      "velocity": 127,
      "chip": "ym2612"
    },
    {
      "channel": 0,
      "note": 48,
      "start": 165.6358,
      "duration": 0.3819,
      "velocity": 88,
      "chip": "ym2612"
    },
    {
      "channel": 2,
      "note": 30,
      "start": 165.6363,
      "duration": 0.1818,
      "velocity": 127,
      "chip": "ym2612"
    },
    {
      "channel": 2,
      "note": 30,
      "start": 165.8349,
      "duration": 0.1832,
      "velocity": 127,
      "chip": "ym2612"
    },
    {
      "channel": 0,
      "note": 48,
      "start": 166.0346,
      "duration": 0.3845,
      "velocity": 88,
      "chip": "ym2612"
    },
    {
      "channel": 2,
      "note": 30,
      "start": 166.0365,
      "duration": 0.183,
      "velocity": 127,
      "chip": "ym2612"
    },
    {
      "channel": 2,
      "note": 42,
      "start": 166.2361,
      "duration": 0.1835,
      "velocity": 127,
      "chip": "ym2612"
    },
    {
      "channel": 0,
      "note": 48,
      "start": 166.436,
      "duration": 0.3818,
      "velocity": 88,
      "chip": "ym2612"
    },
    {
      "channel": 2,
      "note": 42,
      "start": 166.4378,
      "duration": 0.3803,
      "velocity": 127,
      "chip": "ym2612"
    },
    {
      "channel": 2,
      "note": 30,
      "start": 166.8363,
      "duration": 0.1819,
      "velocity": 127,
      "chip": "ym2612"
    },
    {
      "channel": 0,
      "note": 52,
      "start": 167.0346,
      "duration": 0.1832,
      "velocity": 88,
      "chip": "ym2612"
    },
    {
      "channel": 2,
      "note": 42,
      "start": 167.0364,
      "duration": 0.1817,
      "velocity": 127,
      "chip": "ym2612"
    },
    {
      "channel": 0,
      "note": 52,
      "start": 167.2346,
      "duration": 0.3846,
      "velocity": 88,
      "chip": "ym2612"
    },
    {
      "channel": 2,
      "note": 30,
      "start": 167.235,
      "duration": 0.1844,
      "velocity": 127,
      "chip": "ym2612"
    },
    {
      "channel": 2,
      "note": 30,
      "start": 167.4362,
      "duration": 0.1834,
      "velocity": 127,
      "chip": "ym2612"
    },
    {
      "channel": 2,
      "note": 30,
      "start": 167.6377,
      "duration": 0.1805,
      "velocity": 127,
      "chip": "ym2612"
    },
    {
      "channel": 0,
      "note": 52,
      "start": 167.8346,
      "duration": 0.1832,
      "velocity": 88,
      "chip": "ym2612"
    },
    {
      "channel": 2,
      "note": 42,
      "start": 167.8365,
      "duration": 0.1817,
      "velocity": 127,
      "chip": "ym2612"
    },
    {
      "channel": 0,
      "note": 52,
      "start": 168.0347,
      "duration": 0.3845,
      "velocity": 88,
      "chip": "ym2612"
    },
    {
      "channel": 2,
      "note": 30,
      "start": 168.0365,
      "duration": 0.1816,
      "velocity": 127,
      "chip": "ym2612"
    },
    {
      "channel": 2,
      "note": 30,
      "start": 168.2349,
      "duration": 0.1847,
      "velocity": 127,
      "chip": "ym2612"
    },
    {
      "channel": 2,
      "note": 30,
      "start": 168.4377,
      "duration": 0.1819,
      "velocity": 127,
      "chip": "ym2612"
    },
    {
      "channel": 0,
      "note": 52,
      "start": 168.6359,
      "duration": 0.1812,
      "velocity": 88,
      "chip": "ym2612"
    },
    {
      "channel": 2,
      "note": 42,
      "start": 168.6378,
      "duration": 0.1797,
      "velocity": 127,
      "chip": "ym2612"
    },
    {
      "channel": 2,
      "note": 30,
      "start": 168.8341,
      "duration": 0.1834,
      "velocity": 127,
      "chip": "ym2612"
    },
    {
      "channel": 0,
      "note": 52,
      "start": 169.0338,
      "duration": 0.1841,
      "velocity": 88,
      "chip": "ym2612"
    },
    {
      "channel": 2,
      "note": 30,
      "start": 169.0342,
      "duration": 0.184,
      "velocity": 127,
      "chip": "ym2612"
    },
    {
      "channel": 0,
      "note": 52,
      "start": 169.2346,
      "duration": 0.1832,
      "velocity": 88,
      "chip": "ym2612"
    },
    {
      "channel": 2,
      "note": 30,
      "start": 169.2365,
      "duration": 0.1817,
      "velocity": 127,
      "chip": "ym2612"
    },
    {
      "channel": 0,
      "note": 52,
      "start": 169.4346,
      "duration": 0.1833,
      "velocity": 88,
      "chip": "ym2612"
    },
    {
      "channel": 2,
      "note": 42,
      "start": 169.4349,
      "duration": 0.1833,
      "velocity": 127,
      "chip": "ym2612"
    },
    {
      "channel": 0,
      "note": 50,
      "start": 169.6346,
      "duration": 0.3832,
      "velocity": 88,
      "chip": "ym2612"
    },
    {
      "channel": 2,
      "note": 42,
      "start": 169.6364,
      "duration": 0.1817,
      "velocity": 127,
      "chip": "ym2612"
    },
    {
      "channel": 2,
      "note": 30,
      "start": 169.8349,
      "duration": 0.1833,
      "velocity": 127,
      "chip": "ym2612"
    },
    {
      "channel": 2,
      "note": 30,
      "start": 170.0363,
      "duration": 0.1819,
      "velocity": 127,
      "chip": "ym2612"
    },
    {
      "channel": 0,
      "note": 48,
      "start": 170.2346,
      "duration": 0.1832,
      "velocity": 88,
      "chip": "ym2612"
    },
    {
      "channel": 2,
      "note": 42,
      "start": 170.2365,
      "duration": 0.1817,
      "velocity": 127,
      "chip": "ym2612"
    },
    {
      "channel": 0,
      "note": 48,
      "start": 170.4346,
      "duration": 0.3833,
      "velocity": 88,
      "chip": "ym2612"
    },
    {
      "channel": 2,
      "note": 30,
      "start": 170.4349,
      "duration": 0.1831,
      "velocity": 127,
      "chip": "ym2612"
    },
    {
      "channel": 2,
      "note": 30,
      "start": 170.6348,
      "duration": 0.1834,
      "velocity": 127,
      "chip": "ym2612"
    },
    {
      "channel": 0,
      "note": 48,
      "start": 170.8346,
      "duration": 0.3832,
      "velocity": 88,
      "chip": "ym2612"
    },
    {
      "channel": 2,
      "note": 30,
      "start": 170.8365,
      "duration": 0.1817,
      "velocity": 127,
      "chip": "ym2612"
    },
    {
      "channel": 2,
      "note": 42,
      "start": 171.0348,
      "duration": 0.1833,
      "velocity": 127,
      "chip": "ym2612"
    },
    {
      "channel": 0,
      "note": 48,
      "start": 171.2347,
      "duration": 0.3831,
      "velocity": 88,
      "chip": "ym2612"
    },
    {
      "channel": 2,
      "note": 42,
      "start": 171.2365,
      "duration": 0.1816,
      "velocity": 127,
      "chip": "ym2612"
    },
    {
      "channel": 2,
      "note": 30,
      "start": 171.4348,
      "duration": 0.1834,
      "velocity": 127,
      "chip": "ym2612"
    },
    {
      "channel": 2,
      "note": 30,
      "start": 171.6363,
      "duration": 0.1819,
      "velocity": 127,
      "chip": "ym2612"
    },
    {
      "channel": 0,
      "note": 46,
      "start": 171.8345,
      "duration": 0.1833,
      "velocity": 88,
      "chip": "ym2612"
    },
    {
      "channel": 2,
      "note": 42,
      "start": 171.8363,
      "duration": 0.1819,
      "velocity": 127,
      "chip": "ym2612"
    },
    {
      "channel": 0,
      "note": 46,
      "start": 172.0346,
      "duration": 0.3832,
      "velocity": 88,
      "chip": "ym2612"
    },
    {
      "channel": 2,
      "note": 30,
      "start": 172.0349,
      "duration": 0.1832,
      "velocity": 127,
      "chip": "ym2612"
    },
    {
      "channel": 2,
      "note": 30,
      "start": 172.2348,
      "duration": 0.1833,
      "velocity": 127,
      "chip": "ym2612"
    },
    {
      "channel": 0,
      "note": 53,
      "start": 172.4346,
      "duration": 0.3824,
      "velocity": 88,
      "chip": "ym2612"
    },
    {
      "channel": 2,
      "note": 30,
      "start": 172.4364,
      "duration": 0.1816,
      "velocity": 127,
      "chip": "ym2612"
    },
    {
      "channel": 2,
      "note": 42,
      "start": 172.6349,
      "duration": 0.1826,
      "velocity": 127,
      "chip": "ym2612"
    },
    {
      "channel": 0,
      "note": 53,
      "start": 172.8339,
      "duration": 0.3839,
      "velocity": 88,
      "chip": "ym2612"
    },
    {
      "channel": 2,
      "note": 42,
      "start": 172.8358,
      "duration": 0.1816,
      "velocity": 127,
      "chip": "ym2612"
    },
    {
      "channel": 2,
      "note": 30,
      "start": 173.0341,
      "duration": 0.1841,
      "velocity": 127,
      "chip": "ym2612"
    },
    {
      "channel": 2,
      "note": 30,
      "start": 173.2362,
      "duration": 0.182,
      "velocity": 127,
      "chip": "ym2612"
    },
    {
      "channel": 0,
      "note": 52,
      "start": 173.4346,
      "duration": 0.1832,
      "velocity": 88,
      "chip": "ym2612"
    },
    {
      "channel": 2,
      "note": 42,
      "start": 173.4364,
      "duration": 0.1817,
      "velocity": 127,
      "chip": "ym2612"
    },
    {
      "channel": 0,
      "note": 52,
      "start": 173.6347,
      "duration": 0.3831,
      "velocity": 88,
      "chip": "ym2612"
    },
    {
      "channel": 2,
      "note": 30,
      "start": 173.6351,
      "duration": 0.183,
      "velocity": 127,
      "chip": "ym2612"
    },
    {
      "channel": 2,
      "note": 30,
      "start": 173.8349,
      "duration": 0.1832,
      "velocity": 127,
      "chip": "ym2612"
    },
    {
      "channel": 2,
      "note": 30,
      "start": 174.0363,
      "duration": 0.1819,
      "velocity": 127,
      "chip": "ym2612"
    },
    {
      "channel": 0,
      "note": 52,
      "start": 174.2346,
      "duration": 0.1833,
      "velocity": 88,
      "chip": "ym2612"
    },
    {
      "channel": 2,
      "note": 42,
      "start": 174.235,
      "duration": 0.1832,
      "velocity": 127,
      "chip": "ym2612"
    },
    {
      "channel": 0,
      "note": 52,
      "start": 174.4347,
      "duration": 0.3831,
      "velocity": 88,
      "chip": "ym2612"
    },
    {
      "channel": 2,
      "note": 42,
      "start": 174.4365,
      "duration": 0.1816,
      "velocity": 127,
      "chip": "ym2612"
    },
    {
      "channel": 2,
      "note": 30,
      "start": 174.6348,
      "duration": 0.1833,
      "velocity": 127,
      "chip": "ym2612"
    },
    {
      "channel": 2,
      "note": 30,
      "start": 174.8363,
      "duration": 0.1818,
      "velocity": 127,
      "chip": "ym2612"
    },
    {
      "channel": 0,
      "note": 52,
      "start": 175.0346,
      "duration": 0.1833,
      "velocity": 88,
      "chip": "ym2612"
    },
    {
      "channel": 2,
      "note": 42,
      "start": 175.0364,
      "duration": 0.1818,
      "velocity": 127,
      "chip": "ym2612"
    },
    {
      "channel": 2,
      "note": 30,
      "start": 175.2347,
      "duration": 0.1835,
      "velocity": 127,
      "chip": "ym2612"
    },
    {
      "channel": 0,
      "note": 52,
      "start": 175.4344,
      "duration": 0.1834,
      "velocity": 88,
      "chip": "ym2612"
    },
    {
      "channel": 2,
      "note": 30,
      "start": 175.4349,
      "duration": 0.1833,
      "velocity": 127,
      "chip": "ym2612"
    },
    {
      "channel": 0,
      "note": 52,
      "start": 175.6346,
      "duration": 0.1832,
      "velocity": 88,
      "chip": "ym2612"
    },
    {
      "channel": 2,
      "note": 30,
      "start": 175.6364,
      "duration": 0.1817,
      "velocity": 127,
      "chip": "ym2612"
    },
    {
      "channel": 0,
      "note": 50,
      "start": 175.8345,
      "duration": 0.1834,
      "velocity": 88,
      "chip": "ym2612"
    },
    {
      "channel": 2,
      "note": 42,
      "start": 175.8349,
      "duration": 0.1834,
      "velocity": 127,
      "chip": "ym2612"
    },
    {
      "channel": 0,
      "note": 52,
      "start": 176.0363,
      "duration": 0.3815,
      "velocity": 88,
      "chip": "ym2612"
    },
    {
      "channel": 2,
      "note": 42,
      "start": 176.0395,
      "duration": 0.1786,
      "velocity": 127,
      "chip": "ym2612"
    },
    {
      "channel": 2,
      "note": 30,
      "start": 176.2348,
      "duration": 0.1834,
      "velocity": 127,
      "chip": "ym2612"
    },
    {
      "channel": 2,
      "note": 30,
      "start": 176.4363,
      "duration": 0.1819,
      "velocity": 127,
      "chip": "ym2612"
    },
    {
      "channel": 0,
      "note": 52,
      "start": 176.6345,
      "duration": 0.1826,
      "velocity": 88,
      "chip": "ym2612"
    },
    {
      "channel": 2,
      "note": 42,
      "start": 176.6363,
      "duration": 0.1811,
      "velocity": 127,
      "chip": "ym2612"
    },
    {
      "channel": 0,
      "note": 52,
      "start": 176.8338,
      "duration": 0.3845,
      "velocity": 88,
      "chip": "ym2612"
    },
    {
      "channel": 2,
      "note": 30,
      "start": 176.8342,
      "duration": 0.1832,
      "velocity": 127,
      "chip": "ym2612"
    },
    {
      "channel": 2,
      "note": 30,
      "start": 177.0341,
      "duration": 0.1846,
      "velocity": 127,
      "chip": "ym2612"
    },
    {
      "channel": 2,
      "note": 30,
      "start": 177.2367,
      "duration": 0.1832,
      "velocity": 127,
      "chip": "ym2612"
    },
    {
      "channel": 0,
      "note": 52,
      "start": 177.4363,
      "duration": 0.1833,
      "velocity": 88,
      "chip": "ym2612"
    },
    {
      "channel": 2,
      "note": 42,
      "start": 177.4367,
      "duration": 0.1832,
      "velocity": 127,
      "chip": "ym2612"
    },
    {
      "channel": 0,
      "note": 52,
      "start": 177.6365,
      "duration": 0.3817,
      "velocity": 88,
      "chip": "ym2612"
    },
    {
      "channel": 2,
      "note": 42,
      "start": 177.6383,
      "duration": 0.1815,
      "velocity": 127,
      "chip": "ym2612"
    },
    {
      "channel": 2,
      "note": 30,
      "start": 177.8367,
      "duration": 0.1819,
      "velocity": 127,
      "chip": "ym2612"
    },
    {
      "channel": 2,
      "note": 30,
      "start": 178.0367,
      "duration": 0.1819,
      "velocity": 127,
      "chip": "ym2612"
    },
    {
      "channel": 0,
      "note": 52,
      "start": 178.235,
      "duration": 0.1847,
      "velocity": 88,
      "chip": "ym2612"
    },
    {
      "channel": 2,
      "note": 42,
      "start": 178.2368,
      "duration": 0.1832,
      "velocity": 127,
      "chip": "ym2612"
    },
    {
      "channel": 2,
      "note": 30,
      "start": 178.4367,
      "duration": 0.1833,
      "velocity": 127,
      "chip": "ym2612"
    },
    {
      "channel": 0,
      "note": 52,
      "start": 178.6363,
      "duration": 0.1833,
      "velocity": 88,
      "chip": "ym2612"
    },
    {
      "channel": 2,
      "note": 30,
      "start": 178.6368,
      "duration": 0.1832,
      "velocity": 127,
      "chip": "ym2612"
    },
    {
      "channel": 0,
      "note": 52,
      "start": 178.8364,
      "duration": 0.1818,
      "velocity": 88,
      "chip": "ym2612"
    },
    {
      "channel": 2,
      "note": 30,
      "start": 178.8383,
      "duration": 0.1803,
      "velocity": 127,
      "chip": "ym2612"
    },
    {
      "channel": 0,
      "note": 52,
      "start": 179.0349,
      "duration": 0.1833,
      "velocity": 88,
      "chip": "ym2612"
    },
    {
      "channel": 2,
      "note": 42,
      "start": 179.0354,
      "duration": 0.1833,
      "velocity": 127,
      "chip": "ym2612"
    },
    {
      "channel": 0,
      "note": 52,
      "start": 179.2351,
      "duration": 0.3845,
      "velocity": 88,
      "chip": "ym2612"
    },
    {
      "channel": 2,
      "note": 42,
      "start": 179.2368,
      "duration": 0.1817,
      "velocity": 127,
      "chip": "ym2612"
    },
    {
      "channel": 2,
      "note": 30,
      "start": 179.4352,
      "duration": 0.1847,
      "velocity": 127,
      "chip": "ym2612"
    },
    {
      "channel": 2,
      "note": 30,
      "start": 179.6381,
      "duration": 0.0817,
      "velocity": 127,
      "chip": "ym2612"
    },
    {
      "channel": 2,
      "note": 42,
      "start": 179.7367,
      "duration": 0.0833,
      "velocity": 127,
      "chip": "ym2612"
    },
    {
      "channel": 0,
      "note": 52,
      "start": 179.8363,
      "duration": 0.1819,
      "velocity": 88,
      "chip": "ym2612"
    },
    {
      "channel": 2,
      "note": 42,
      "start": 179.8382,
      "duration": 0.1804,
      "velocity": 127,
      "chip": "ym2612"
    },
    {
      "channel": 0,
      "note": 52,
      "start": 180.0351,
      "duration": 0.3831,
      "velocity": 88,
      "chip": "ym2612"
    },
    {
      "channel": 2,
      "note": 30,
      "start": 180.0355,
      "duration": 0.1831,
      "velocity": 127,
      "chip": "ym2612"
    },
    {
      "channel": 2,
      "note": 30,
      "start": 180.2352,
      "duration": 0.1834,
      "velocity": 127,
      "chip": "ym2612"
    },
    {
      "channel": 2,
      "note": 30,
      "start": 180.4368,
      "duration": 0.0817,
      "velocity": 127,
      "chip": "ym2612"
    },
    {
      "channel": 2,
      "note": 42,
      "start": 180.5367,
      "duration": 0.0833,
      "velocity": 127,
      "chip": "ym2612"
    },
    {
      "channel": 0,
      "note": 52,
      "start": 180.6363,
      "duration": 0.1807,
      "velocity": 88,
      "chip": "ym2612"
    },
    {
      "channel": 2,
      "note": 42,
      "start": 180.6368,
      "duration": 0.0806,
      "velocity": 127,
      "chip": "ym2612"
    },
    {
      "channel": 2,
      "note": 42,
      "start": 180.7341,
      "duration": 0.0833,
      "velocity": 127,
      "chip": "ym2612"
    },
    {
      "channel": 0,
      "note": 52,
      "start": 180.8339,
      "duration": 0.3842,
      "velocity": 88,
      "chip": "ym2612"
    },
    {
      "channel": 2,
      "note": 42,
      "start": 180.8358,
      "duration": 0.1816,
      "velocity": 127,
      "chip": "ym2612"
    },
    {
      "channel": 2,
      "note": 30,
      "start": 181.0341,
      "duration": 0.1844,
      "velocity": 127,
      "chip": "ym2612"
    },
    {
      "channel": 2,
      "note": 30,
      "start": 181.2365,
      "duration": 0.1819,
      "velocity": 127,
      "chip": "ym2612"
    },
    {
      "channel": 0,
      "note": 52,
      "start": 181.4347,
      "duration": 0.183,
      "velocity": 88,
      "chip": "ym2612"
    },
    {
      "channel": 2,
      "note": 42,
      "start": 181.4365,
      "duration": 0.1816,
      "velocity": 127,
      "chip": "ym2612"
    },
    {
      "channel": 2,
      "note": 30,
      "start": 181.6348,
      "duration": 0.1834,
      "velocity": 127,
      "chip": "ym2612"
    },
    {
      "channel": 0,
      "note": 52,
      "start": 181.8345,
      "duration": 0.1833,
      "velocity": 88,
      "chip": "ym2612"
    },
    {
      "channel": 2,
      "note": 30,
      "start": 181.8349,
      "duration": 0.1833,
      "velocity": 127,
      "chip": "ym2612"
    },
    {
      "channel": 0,
      "note": 52,
      "start": 182.0345,
      "duration": 0.1835,
      "velocity": 88,
      "chip": "ym2612"
    },
    {
      "channel": 2,
      "note": 30,
      "start": 182.0363,
      "duration": 0.1821,
      "velocity": 127,
      "chip": "ym2612"
    },
    {
      "channel": 0,
      "note": 52,
      "start": 182.2348,
      "duration": 0.1833,
      "velocity": 88,
      "chip": "ym2612"
    },
    {
      "channel": 2,
      "note": 42,
      "start": 182.2351,
      "duration": 0.1833,
      "velocity": 127,
      "chip": "ym2612"
    },
    {
      "channel": 0,
      "note": 52,
      "start": 182.4348,
      "duration": 0.383,
      "velocity": 88,
      "chip": "ym2612"
    },
    {
      "channel": 2,
      "note": 42,
      "start": 182.4366,
      "duration": 0.1817,
      "velocity": 127,
      "chip": "ym2612"
    },
    {
      "channel": 2,
      "note": 30,
      "start": 182.6349,
      "duration": 0.1832,
      "velocity": 127,
      "chip": "ym2612"
    },
    {
      "channel": 2,
      "note": 30,
      "start": 182.8362,
      "duration": 0.182,
      "velocity": 127,
      "chip": "ym2612"
    },
    {
      "channel": 0,
      "note": 48,
      "start": 183.0346,
      "duration": 0.1834,
      "velocity": 88,
      "chip": "ym2612"
    },
    {
      "channel": 2,
      "note": 42,
      "start": 183.0364,
      "duration": 0.1819,
      "velocity": 127,
      "chip": "ym2612"
    },
    {
      "channel": 0,
      "note": 48,
      "start": 183.2347,
      "duration": 0.3832,
      "velocity": 88,
      "chip": "ym2612"
    },
    {
      "channel": 2,
      "note": 30,
      "start": 183.2351,
      "duration": 0.1832,
      "velocity": 127,
      "chip": "ym2612"
    },
    {
      "channel": 2,
      "note": 30,
      "start": 183.4349,
      "duration": 0.1833,
      "velocity": 127,
      "chip": "ym2612"
    },
    {
      "channel": 2,
      "note": 30,
      "start": 183.6365,
      "duration": 0.1817,
      "velocity": 127,
      "chip": "ym2612"
    },
    {
      "channel": 0,
      "note": 48,
      "start": 183.8346,
      "duration": 0.1833,
      "velocity": 88,
      "chip": "ym2612"
    },
    {
      "channel": 2,
      "note": 42,
      "start": 183.835,
      "duration": 0.1832,
      "velocity": 127,
      "chip": "ym2612"
    },
    {
      "channel": 0,
      "note": 48,
      "start": 184.0346,
      "duration": 0.3833,
      "velocity": 88,
      "chip": "ym2612"
    },
    {
      "channel": 2,
      "note": 42,
      "start": 184.0365,
      "duration": 0.1816,
      "velocity": 127,
      "chip": "ym2612"
    },
    {
      "channel": 2,
      "note": 30,
      "start": 184.2348,
      "duration": 0.1835,
      "velocity": 127,
      "chip": "ym2612"
    },
    {
      "channel": 2,
      "note": 30,
      "start": 184.4363,
      "duration": 0.1819,
      "velocity": 127,
      "chip": "ym2612"
    },
    {
      "channel": 2,
      "note": 42,
      "start": 184.6365,
      "duration": 0.1809,
      "velocity": 127,
      "chip": "ym2612"
    },
    {
      "channel": 0,
      "note": 48,
      "start": 184.8338,
      "duration": 0.3833,
      "velocity": 88,
      "chip": "ym2612"
    },
    {
      "channel": 2,
      "note": 30,
      "start": 184.8342,
      "duration": 0.1832,
      "velocity": 127,
      "chip": "ym2612"
    },
    {
      "channel": 2,
      "note": 30,
      "start": 185.0341,
      "duration": 0.1834,
      "velocity": 127,
      "chip": "ym2612"
    },
    {
      "channel": 0,
      "note": 48,
      "start": 185.236,
      "duration": 0.3819,
      "velocity": 88,
      "chip": "ym2612"
    },
    {
      "channel": 2,
      "note": 30,
      "start": 185.2378,
      "duration": 0.1803,
      "velocity": 127,
      "chip": "ym2612"
    },
    {
      "channel": 2,
      "note": 42,
      "start": 185.4348,
      "duration": 0.1835,
      "velocity": 127,
      "chip": "ym2612"
    },
    {
      "channel": 0,
      "note": 48,
      "start": 185.6346,
      "duration": 0.3845,
      "velocity": 88,
      "chip": "ym2612"
    },
    {
      "channel": 2,
      "note": 42,
      "start": 185.6364,
      "duration": 0.1817,
      "velocity": 127,
      "chip": "ym2612"
    },
    {
      "channel": 2,
      "note": 30,
      "start": 185.8361,
      "duration": 0.1834,
      "velocity": 127,
      "chip": "ym2612"
    },
    {
      "channel": 2,
      "note": 30,
      "start": 186.0376,
      "duration": 0.182,
      "velocity": 127,
      "chip": "ym2612"
    },
    {
      "channel": 0,
      "note": 52,
      "start": 186.236,
      "duration": 0.1819,
      "velocity": 88,
      "chip": "ym2612"
    },
    {
      "channel": 2,
      "note": 42,
      "start": 186.2378,
      "duration": 0.1804,
      "velocity": 127,
      "chip": "ym2612"
    },
    {
      "channel": 0,
      "note": 52,
      "start": 186.4346,
      "duration": 0.1833,
      "velocity": 88,
      "chip": "ym2612"
    },
    {
      "channel": 2,
      "note": 30,
      "start": 186.4349,
      "duration": 0.1833,
      "velocity": 127,
      "chip": "ym2612"
    },
    {
      "channel": 0,
      "note": 52,
      "start": 186.6346,
      "duration": 0.1832,
      "velocity": 88,
      "chip": "ym2612"
    },
    {
      "channel": 2,
      "note": 30,
      "start": 186.635,
      "duration": 0.1831,
      "velocity": 127,
      "chip": "ym2612"
    },
    {
      "channel": 2,
      "note": 30,
      "start": 186.8363,
      "duration": 0.1832,
      "velocity": 127,
      "chip": "ym2612"
    },
    {
      "channel": 2,
      "note": 42,
      "start": 187.0361,
      "duration": 0.1834,
      "velocity": 127,
      "chip": "ym2612"
    },
    {
      "channel": 0,
      "note": 50,
      "start": 187.236,
      "duration": 0.3818,
      "velocity": 88,
      "chip": "ym2612"
    },
    {
      "channel": 2,
      "note": 42,
      "start": 187.2379,
      "duration": 0.1816,
      "velocity": 127,
      "chip": "ym2612"
    },
    {
      "channel": 2,
      "note": 30,
      "start": 187.4349,
      "duration": 0.1833,
      "velocity": 127,
      "chip": "ym2612"
    },
    {
      "channel": 2,
      "note": 30,
      "start": 187.6363,
      "duration": 0.1819,
      "velocity": 127,
      "chip": "ym2612"
    },
    {
      "channel": 0,
      "note": 52,
      "start": 187.8345,
      "duration": 0.1847,
      "velocity": 88,
      "chip": "ym2612"
    },
    {
      "channel": 2,
      "note": 42,
      "start": 187.8363,
      "duration": 0.1833,
      "velocity": 127,
      "chip": "ym2612"
    },
    {
      "channel": 0,
      "note": 52,
      "start": 188.036,
      "duration": 0.1832,
      "velocity": 88,
      "chip": "ym2612"
    },
    {
      "channel": 2,
      "note": 30,
      "start": 188.0364,
      "duration": 0.1831,
      "velocity": 127,
      "chip": "ym2612"
    },
    {
      "channel": 0,
      "note": 52,
      "start": 188.2358,
      "duration": 0.1834,
      "velocity": 88,
      "chip": "ym2612"
    },
    {
      "channel": 2,
      "note": 30,
      "start": 188.2363,
      "duration": 0.1833,
      "velocity": 127,
      "chip": "ym2612"
    },
    {
      "channel": 2,
      "note": 30,
      "start": 188.4377,
      "duration": 0.1805,
      "velocity": 127,
      "chip": "ym2612"
    },
    {
      "channel": 2,
      "note": 42,
      "start": 188.6348,
      "duration": 0.1827,
      "velocity": 127,
      "chip": "ym2612"
    },
    {
      "channel": 0,
      "note": 50,
      "start": 188.8341,
      "duration": 0.383,
      "velocity": 88,
      "chip": "ym2612"
    },
    {
      "channel": 2,
      "note": 42,
      "start": 188.8373,
      "duration": 0.18,
      "velocity": 127,
      "chip": "ym2612"
    },
    {
      "channel": 2,
      "note": 30,
      "start": 189.0341,
      "duration": 0.1833,
      "velocity": 127,
      "chip": "ym2612"
    },
    {
      "channel": 2,
      "note": 30,
      "start": 189.2355,
      "duration": 0.1827,
      "velocity": 127,
      "chip": "ym2612"
    },
    {
      "channel": 0,
      "note": 48,
      "start": 189.4346,
      "duration": 0.1832,
      "velocity": 88,
      "chip": "ym2612"
    },
    {
      "channel": 2,
      "note": 42,
      "start": 189.4365,
      "duration": 0.1817,
      "velocity": 127,
      "chip": "ym2612"
    },
    {
      "channel": 0,
      "note": 48,
      "start": 189.6346,
      "duration": 0.3832,
      "velocity": 88,
      "chip": "ym2612"
    },
    {
      "channel": 2,
      "note": 30,
      "start": 189.6349,
      "duration": 0.1832,
      "velocity": 127,
      "chip": "ym2612"
    },
    {
      "channel": 2,
      "note": 30,
      "start": 189.8349,
      "duration": 0.1832,
      "velocity": 127,
      "chip": "ym2612"
    },
    {
      "channel": 2,
      "note": 30,
      "start": 190.0363,
      "duration": 0.1819,
      "velocity": 127,
      "chip": "ym2612"
    },
    {
      "channel": 0,
      "note": 48,
      "start": 190.2346,
      "duration": 0.1833,
      "velocity": 88,
      "chip": "ym2612"
    },
    {
      "channel": 2,
      "note": 42,
      "start": 190.2349,
      "duration": 0.1833,
      "velocity": 127,
      "chip": "ym2612"
    },
    {
      "channel": 0,
      "note": 48,
      "start": 190.4346,
      "duration": 0.3832,
      "velocity": 88,
      "chip": "ym2612"
    },
    {
      "channel": 2,
      "note": 42,
      "start": 190.4365,
      "duration": 0.1817,
      "velocity": 127,
      "chip": "ym2612"
    },
    {
      "channel": 2,
      "note": 30,
      "start": 190.6348,
      "duration": 0.1833,
      "velocity": 127,
      "chip": "ym2612"
    },
    {
      "channel": 2,
      "note": 30,
      "start": 190.8362,
      "duration": 0.1819,
      "velocity": 127,
      "chip": "ym2612"
    },
    {
      "channel": 2,
      "note": 42,
      "start": 191.0363,
      "duration": 0.1819,
      "velocity": 127,
      "chip": "ym2612"
    },
    {
      "channel": 0,
      "note": 48,
      "start": 191.2344,
      "duration": 0.3834,
      "velocity": 88,
      "chip": "ym2612"
    },
    {
      "channel": 2,
      "note": 30,
      "start": 191.2349,
      "duration": 0.1833,
      "velocity": 127,
      "chip": "ym2612"
    },
    {
      "channel": 2,
      "note": 30,
      "start": 191.4348,
      "duration": 0.1834,
      "velocity": 127,
      "chip": "ym2612"
    },
    {
      "channel": 0,
      "note": 48,
      "start": 191.6346,
      "duration": 0.3832,
      "velocity": 88,
      "chip": "ym2612"
    },
    {
      "channel": 2,
      "note": 30,
      "start": 191.6364,
      "duration": 0.1817,
      "velocity": 127,
      "chip": "ym2612"
    },
    {
      "channel": 2,
      "note": 42,
      "start": 191.8349,
      "duration": 0.1833,
      "velocity": 127,
      "chip": "ym2612"
    },
    {
      "channel": 0,
      "note": 48,
      "start": 192.0347,
      "duration": 0.3831,
      "velocity": 88,
      "chip": "ym2612"
    },
    {
      "channel": 2,
      "note": 42,
      "start": 192.0365,
      "duration": 0.1816,
      "velocity": 127,
      "chip": "ym2612"
    },
    {
      "channel": 2,
      "note": 30,
      "start": 192.2348,
      "duration": 0.1834,
      "velocity": 127,
      "chip": "ym2612"
    },
    {
      "channel": 2,
      "note": 30,
      "start": 192.4363,
      "duration": 0.1819,
      "velocity": 127,
      "chip": "ym2612"
    },
    {
      "channel": 0,
      "note": 52,
      "start": 192.6345,
      "duration": 0.1826,
      "velocity": 88,
      "chip": "ym2612"
    },
    {
      "channel": 2,
      "note": 42,
      "start": 192.6363,
      "duration": 0.1811,
      "velocity": 127,
      "chip": "ym2612"
    },
    {
      "channel": 0,
      "note": 52,
      "start": 192.8338,
      "duration": 0.3832,
      "velocity": 88,
      "chip": "ym2612"
    },
    {
      "channel": 2,
      "note": 30,
      "start": 192.8342,
      "duration": 0.1832,
      "velocity": 127,
      "chip": "ym2612"
    },
    {
      "channel": 2,
      "note": 30,
      "start": 193.0341,
      "duration": 0.1833,
      "velocity": 127,
      "chip": "ym2612"
    },
    {
      "channel": 2,
      "note": 30,
      "start": 193.2355,
      "duration": 0.1827,
      "velocity": 127,
      "chip": "ym2612"
    },
    {
      "channel": 0,
      "note": 52,
      "start": 193.4346,
      "duration": 0.1832,
      "velocity": 88,
      "chip": "ym2612"
    },
    {
      "channel": 2,
      "note": 42,
      "start": 193.4349,
      "duration": 0.1832,
      "velocity": 127,
      "chip": "ym2612"
    },
    {
      "channel": 0,
      "note": 52,
      "start": 193.6346,
      "duration": 0.3832,
      "velocity": 88,
      "chip": "ym2612"
    },
    {
      "channel": 2,
      "note": 42,
      "start": 193.6365,
      "duration": 0.1817,
      "velocity": 127,
      "chip": "ym2612"
    },
    {
      "channel": 2,
      "note": 30,
      "start": 193.8348,
      "duration": 0.1834,
      "velocity": 127,
      "chip": "ym2612"
    },
    {
      "channel": 2,
      "note": 30,
      "start": 194.0363,
      "duration": 0.1819,
      "velocity": 127,
      "chip": "ym2612"
    },
    {
      "channel": 0,
      "note": 52,
      "start": 194.2345,
      "duration": 0.1833,
      "velocity": 88,
      "chip": "ym2612"
    },
    {
      "channel": 2,
      "note": 42,
      "start": 194.2363,
      "duration": 0.1819,
      "velocity": 127,
      "chip": "ym2612"
    },
    {
      "channel": 2,
      "note": 30,
      "start": 194.4348,
      "duration": 0.1833,
      "velocity": 127,
      "chip": "ym2612"
    },
    {
      "channel": 0,
      "note": 52,
      "start": 194.6346,
      "duration": 0.1832,
      "velocity": 88,
      "chip": "ym2612"
    },
    {
      "channel": 2,
      "note": 30,
      "start": 194.6349,
      "duration": 0.1832,
      "velocity": 127,
      "chip": "ym2612"
    },
    {
      "channel": 0,
      "note": 52,
      "start": 194.8346,
      "duration": 0.1832,
      "velocity": 88,
      "chip": "ym2612"
    },
    {
      "channel": 2,
      "note": 30,
      "start": 194.8364,
      "duration": 0.1817,
      "velocity": 127,
      "chip": "ym2612"
    },
    {
      "channel": 0,
      "note": 52,
      "start": 195.0345,
      "duration": 0.1833,
      "velocity": 88,
      "chip": "ym2612"
    },
    {
      "channel": 2,
      "note": 42,
      "start": 195.0349,
      "duration": 0.1833,
      "velocity": 127,
      "chip": "ym2612"
    },
    {
      "channel": 0,
      "note": 50,
      "start": 195.2347,
      "duration": 0.3831,
      "velocity": 88,
      "chip": "ym2612"
    },
    {
      "channel": 2,
      "note": 42,
      "start": 195.2365,
      "duration": 0.3817,
      "velocity": 127,
      "chip": "ym2612"
    },
    {
      "channel": 2,
      "note": 30,
      "start": 195.6364,
      "duration": 0.1819,
      "velocity": 127,
      "chip": "ym2612"
    },
    {
      "channel": 0,
      "note": 48,
      "start": 195.8346,
      "duration": 0.1832,
      "velocity": 88,
      "chip": "ym2612"
    },
    {
      "channel": 2,
      "note": 42,
      "start": 195.8365,
      "duration": 0.1817,
      "velocity": 127,
      "chip": "ym2612"
    },
    {
      "channel": 0,
      "note": 48,
      "start": 196.0346,
      "duration": 0.3833,
      "velocity": 88,
      "chip": "ym2612"
    },
    {
      "channel": 2,
      "note": 30,
      "start": 196.0349,
      "duration": 0.1832,
      "velocity": 127,
      "chip": "ym2612"
    },
    {
      "channel": 2,
      "note": 30,
      "start": 196.2348,
      "duration": 0.1834,
      "velocity": 127,
      "chip": "ym2612"
    },
    {
      "channel": 0,
      "note": 48,
      "start": 196.4346,
      "duration": 0.3824,
      "velocity": 88,
      "chip": "ym2612"
    },
    {
      "channel": 2,
      "note": 30,
      "start": 196.4364,
      "duration": 0.1817,
      "velocity": 127,
      "chip": "ym2612"
    },
    {
      "channel": 2,
      "note": 42,
      "start": 196.6363,
      "duration": 0.181,
      "velocity": 127,
      "chip": "ym2612"
    },
    {
      "channel": 0,
      "note": 48,
      "start": 196.8339,
      "duration": 0.3832,
      "velocity": 88,
      "chip": "ym2612"
    },
    {
      "channel": 2,
      "note": 30,
      "start": 196.8357,
      "duration": 0.1817,
      "velocity": 127,
      "chip": "ym2612"
    },
    {
      "channel": 2,
      "note": 30,
      "start": 197.0341,
      "duration": 0.1833,
      "velocity": 127,
      "chip": "ym2612"
    },
    {
      "channel": 2,
      "note": 30,
      "start": 197.2356,
      "duration": 0.1844,
      "velocity": 127,
      "chip": "ym2612"
    },
    {
      "channel": 0,
      "note": 46,
      "start": 197.4363,
      "duration": 0.1819,
      "velocity": 88,
      "chip": "ym2612"
    },
    {
      "channel": 2,
      "note": 42,
      "start": 197.4382,
      "duration": 0.1804,
      "velocity": 127,
      "chip": "ym2612"
    },
    {
      "channel": 0,
      "note": 46,
      "start": 197.6349,
      "duration": 0.3833,
      "velocity": 88,
      "chip": "ym2612"
    },
    {
      "channel": 2,
      "note": 30,
      "start": 197.6354,
      "duration": 0.1831,
      "velocity": 127,
      "chip": "ym2612"
    },
    {
      "channel": 2,
      "note": 30,
      "start": 197.8352,
      "duration": 0.1834,
      "velocity": 127,
      "chip": "ym2612"
    },
    {
      "channel": 0,
      "note": 53,
      "start": 198.035,
      "duration": 0.3847,
      "velocity": 88,
      "chip": "ym2612"
    },
    {
      "channel": 2,
      "note": 30,
      "start": 198.0368,
      "duration": 0.183,
      "velocity": 127,
      "chip": "ym2612"
    },
    {
      "channel": 2,
      "note": 42,
      "start": 198.2367,
      "duration": 0.1834,
      "velocity": 127,
      "chip": "ym2612"
    },
    {
      "channel": 0,
      "note": 53,
      "start": 198.4365,
      "duration": 0.3817,
      "velocity": 88,
      "chip": "ym2612"
    },
    {
      "channel": 2,
      "note": 42,
      "start": 198.4383,
      "duration": 0.1803,
      "velocity": 127,
      "chip": "ym2612"
    },
    {
      "channel": 2,
      "note": 30,
      "start": 198.6352,
      "duration": 0.1834,
      "velocity": 127,
      "chip": "ym2612"
    },
    {
      "channel": 2,
      "note": 30,
      "start": 198.8367,
      "duration": 0.1819,
      "velocity": 127,
      "chip": "ym2612"
    },
    {
      "channel": 0,
      "note": 52,
      "start": 199.0349,
      "duration": 0.1847,
      "velocity": 88,
      "chip": "ym2612"
    },
    {
      "channel": 2,
      "note": 42,
      "start": 199.0368,
      "duration": 0.1832,
      "velocity": 127,
      "chip": "ym2612"
    },
    {
      "channel": 0,
      "note": 52,
      "start": 199.2364,
      "duration": 0.3833,
      "velocity": 88,
      "chip": "ym2612"
    },
    {
      "channel": 2,
      "note": 30,
      "start": 199.2368,
      "duration": 0.1832,
      "velocity": 127,
      "chip": "ym2612"
    },
    {
      "channel": 2,
      "note": 30,
      "start": 199.4367,
      "duration": 0.1834,
      "velocity": 127,
      "chip": "ym2612"
    },
    {
      "channel": 2,
      "note": 30,
      "start": 199.6381,
      "duration": 0.1805,
      "velocity": 127,
      "chip": "ym2612"
    },
    {
      "channel": 0,
      "note": 52,
      "start": 199.8349,
      "duration": 0.1833,
      "velocity": 88,
      "chip": "ym2612"
    },
    {
      "channel": 2,
      "note": 42,
      "start": 199.8354,
      "duration": 0.1833,
      "velocity": 127,
      "chip": "ym2612"
    },
    {
      "channel": 0,
      "note": 52,
      "start": 200.0351,
      "duration": 0.3845,
      "velocity": 88,
      "chip": "ym2612"
    },
    {
      "channel": 2,
      "note": 42,
      "start": 200.037,
      "duration": 0.1829,
      "velocity": 127,
      "chip": "ym2612"
    },
    {
      "channel": 2,
      "note": 30,
      "start": 200.2367,
      "duration": 0.1833,
      "velocity": 127,
      "chip": "ym2612"
    },
    {
      "channel": 2,
      "note": 30,
      "start": 200.4381,
      "duration": 0.1819,
      "velocity": 127,
      "chip": "ym2612"
    },
    {
      "channel": 0,
      "note": 52,
      "start": 200.6363,
      "duration": 0.1807,
      "velocity": 88,
      "chip": "ym2612"
    },
    {
      "channel": 2,
      "note": 42,
      "start": 200.6382,
      "duration": 0.1793,
      "velocity": 127,
      "chip": "ym2612"
    },
    {
      "channel": 2,
      "note": 30,
      "start": 200.834,
      "duration": 0.1835,
      "velocity": 127,
      "chip": "ym2612"
    },
    {
      "channel": 0,
      "note": 52,
      "start": 201.0339,
      "duration": 0.1832,
      "velocity": 88,
      "chip": "ym2612"
    },
    {
      "channel": 2,
      "note": 30,
      "start": 201.0342,
      "duration": 0.1832,
      "velocity": 127,
      "chip": "ym2612"
    },
    {
      "channel": 0,
      "note": 52,
      "start": 201.2338,
      "duration": 0.184,
      "velocity": 88,
      "chip": "ym2612"
    },
    {
      "channel": 2,
      "note": 30,
      "start": 201.2356,
      "duration": 0.1826,
      "velocity": 127,
      "chip": "ym2612"
    },
    {
      "channel": 0,
      "note": 50,
      "start": 201.4346,
      "duration": 0.1833,
      "velocity": 88,
      "chip": "ym2612"
    },
    {
      "channel": 2,
      "note": 42,
      "start": 201.435,
      "duration": 0.1833,
      "velocity": 127,
      "chip": "ym2612"
    },
    {
      "channel": 0,
      "note": 52,
      "start": 201.6363,
      "duration": 0.3816,
      "velocity": 88,
      "chip": "ym2612"
    },
    {
      "channel": 2,
      "note": 42,
      "start": 201.6397,
      "duration": 0.1787,
      "velocity": 127,
      "chip": "ym2612"
    },
    {
      "channel": 1,
      "note": 75,
      "start": 201.8349,
      "duration": 0.3833,
      "velocity": 70,
      "chip": "ym2612"
    },
    {
      "channel": 2,
      "note": 30,
      "start": 201.8351,
      "duration": 0.1832,
      "velocity": 127,
      "chip": "ym2612"
    },
    {
      "channel": 0,
      "note": 55,
      "start": 202.0348,
      "duration": 0.1832,
      "velocity": 88,
      "chip": "ym2612"
    },
    {
      "channel": 2,
      "note": 30,
      "start": 202.0367,
      "duration": 0.1817,
      "velocity": 127,
      "chip": "ym2612"
    },
    {
      "channel": 0,
      "note": 55,
      "start": 202.2348,
      "duration": 0.183,
      "velocity": 88,
      "chip": "ym2612"
    },
    {
      "channel": 1,
      "note": 71,
      "start": 202.2351,
      "duration": 0.3829,
      "velocity": 70,
      "chip": "ym2612"
    },
    {
      "channel": 2,
      "note": 42,
      "start": 202.2367,
      "duration": 0.1815,
      "velocity": 127,
      "chip": "ym2612"
    },
    {
      "channel": 0,
      "note": 55,
      "start": 202.4344,
      "duration": 0.1833,
      "velocity": 88,
      "chip": "ym2612"
    },
    {
      "channel": 2,
      "note": 30,
      "start": 202.4349,
      "duration": 0.1833,
      "velocity": 127,
      "chip": "ym2612"
    },
    {
      "channel": 1,
      "note": 69,
      "start": 202.6346,
      "duration": 0.3836,
      "velocity": 70,
      "chip": "ym2612"
    },
    {
      "channel": 2,
      "note": 30,
      "start": 202.6349,
      "duration": 0.1833,
      "velocity": 127,
      "chip": "ym2612"
    },
    {
      "channel": 0,
      "note": 55,
      "start": 202.8348,
      "duration": 0.1832,
      "velocity": 88,
      "chip": "ym2612"
    },
    {
      "channel": 2,
      "note": 30,
      "start": 202.8366,
      "duration": 0.1818,
      "velocity": 127,
      "chip": "ym2612"
    },
    {
      "channel": 1,
      "note": 72,
      "start": 203.0348,
      "duration": 0.3832,
      "velocity": 70,
      "chip": "ym2612"
    },
    {
      "channel": 2,
      "note": 42,
      "start": 203.035,
      "duration": 0.1833,
      "velocity": 127,
      "chip": "ym2612"
    },
    {
      "channel": 0,
      "note": 55,
      "start": 203.2349,
      "duration": 0.3829,
      "velocity": 88,
      "chip": "ym2612"
    },
    {
      "channel": 2,
      "note": 42,
      "start": 203.2367,
      "duration": 0.1814,
      "velocity": 127,
      "chip": "ym2612"
    },
    {
      "channel": 1,
      "note": 71,
      "start": 203.4347,
      "duration": 0.3832,
      "velocity": 70,
      "chip": "ym2612"
    },
    {
      "channel": 2,
      "note": 30,
      "start": 203.4349,
      "duration": 0.1833,
      "velocity": 127,
      "chip": "ym2612"
    },
    {
      "channel": 0,
      "note": 55,
      "start": 203.6346,
      "duration": 0.3834,
      "velocity": 88,
      "chip": "ym2612"
    },
    {
      "channel": 2,
      "note": 30,
      "start": 203.6364,
      "duration": 0.1817,
      "velocity": 127,
      "chip": "ym2612"
    },
    {
      "channel": 1,
      "note": 69,
      "start": 203.8346,
      "duration": 0.3835,
      "velocity": 70,
      "chip": "ym2612"
    },
    {
      "channel": 2,
      "note": 42,
      "start": 203.8363,
      "duration": 0.182,
      "velocity": 127,
      "chip": "ym2612"
    },
    {
      "channel": 0,
      "note": 55,
      "start": 204.0348,
      "duration": 0.3833,
      "velocity": 88,
      "chip": "ym2612"
    },
    {
      "channel": 2,
      "note": 30,
      "start": 204.0351,
      "duration": 0.1833,
      "velocity": 127,
      "chip": "ym2612"
    },
    {
      "channel": 1,
      "note": 67,
      "start": 204.2349,
      "duration": 0.3832,
      "velocity": 70,
      "chip": "ym2612"
    },
    {
      "channel": 2,
      "note": 30,
      "start": 204.2351,
      "duration": 0.1833,
      "velocity": 127,
      "chip": "ym2612"
    },
    {
      "channel": 0,
      "note": 55,
      "start": 204.4346,
      "duration": 0.1832,
      "velocity": 88,
      "chip": "ym2612"
    },
    {
      "channel": 2,
      "note": 30,
      "start": 204.4365,
      "duration": 0.1818,
      "velocity": 127,
      "chip": "ym2612"
    },
    {
      "channel": 0,
      "note": 55,
      "start": 204.6346,
      "duration": 0.1824,
      "velocity": 88,
      "chip": "ym2612"
    },
    {
      "channel": 1,
      "note": 69,
      "start": 204.6349,
      "duration": 0.7832,
      "velocity": 70,
      "chip": "ym2612"
    },
    {
      "channel": 2,
      "note": 42,
      "start": 204.6351,
      "duration": 0.1822,
      "velocity": 127,
      "chip": "ym2612"
    },
    {
      "channel": 0,
      "note": 55,
      "start": 204.8339,
      "duration": 0.1832,
      "velocity": 88,
      "chip": "ym2612"
    },
    {
      "channel": 2,
      "note": 42,
      "start": 204.8358,
      "duration": 0.1817,
      "velocity": 127,
      "chip": "ym2612"
    },
    {
      "channel": 2,
      "note": 30,
      "start": 205.0341,
      "duration": 0.1833,
      "velocity": 127,
      "chip": "ym2612"
    },
    {
      "channel": 2,
      "note": 30,
      "start": 205.2355,
      "duration": 0.1828,
      "velocity": 127,
      "chip": "ym2612"
    },
    {
      "channel": 0,
      "note": 52,
      "start": 205.4346,
      "duration": 0.3845,
      "velocity": 88,
      "chip": "ym2612"
    },
    {
      "channel": 1,
      "note": 71,
      "start": 205.4349,
      "duration": 0.1844,
      "velocity": 70,
      "chip": "ym2612"
    },
    {
      "channel": 2,
      "note": 42,
      "start": 205.4366,
      "duration": 0.1829,
      "velocity": 127,
      "chip": "ym2612"
    },
    {
      "channel": 1,
      "note": 67,
      "start": 205.636,
      "duration": 2.582,
      "velocity": 70,
      "chip": "ym2612"
    },
    {
      "channel": 2,
      "note": 30,
      "start": 205.6363,
      "duration": 0.1833,
      "velocity": 127,
      "chip": "ym2612"
    },
    {
      "channel": 0,
      "note": 52,
      "start": 205.8359,
      "duration": 0.1819,
      "velocity": 88,
      "chip": "ym2612"
    },
    {
      "channel": 2,
      "note": 30,
      "start": 205.8363,
      "duration": 0.1819,
      "velocity": 127,
      "chip": "ym2612"
    },
    {
      "channel": 0,
      "note": 52,
      "start": 206.0345,
      "duration": 0.1833,
      "velocity": 88,
      "chip": "ym2612"
    },
    {
      "channel": 2,
      "note": 30,
      "start": 206.0363,
      "duration": 0.1819,
      "velocity": 127,
      "chip": "ym2612"
    },
    {
      "channel": 0,
      "note": 52,
      "start": 206.2346,
      "duration": 0.1833,
      "velocity": 88,
      "chip": "ym2612"
    },
    {
      "channel": 2,
      "note": 42,
      "start": 206.235,
      "duration": 0.1832,
      "velocity": 127,
      "chip": "ym2612"
    },
    {
      "channel": 0,
      "note": 55,
      "start": 206.4347,
      "duration": 0.3844,
      "velocity": 88,
      "chip": "ym2612"
    },
    {
      "channel": 2,
      "note": 42,
      "start": 206.4365,
      "duration": 0.1829,
      "velocity": 127,
      "chip": "ym2612"
    },
    {
      "channel": 2,
      "note": 30,
      "start": 206.6363,
      "duration": 0.1832,
      "velocity": 127,
      "chip": "ym2612"
    },
    {
      "channel": 2,
      "note": 30,
      "start": 206.8377,
      "duration": 0.1819,
      "velocity": 127,
      "chip": "ym2612"
    },
    {
      "channel": 0,
      "note": 52,
      "start": 207.036,
      "duration": 0.1818,
      "velocity": 88,
      "chip": "ym2612"
    },
    {
      "channel": 2,
      "note": 42,
      "start": 207.0378,
      "duration": 0.1803,
      "velocity": 127,
      "chip": "ym2612"
    },
    {
      "channel": 2,
      "note": 30,
      "start": 207.2348,
      "duration": 0.1834,
      "velocity": 127,
      "chip": "ym2612"
    },
    {
      "channel": 0,
      "note": 52,
      "start": 207.4346,
      "duration": 0.1847,
      "velocity": 88,
      "chip": "ym2612"
    },
    {
      "channel": 2,
      "note": 30,
      "start": 207.4349,
      "duration": 0.1847,
      "velocity": 127,
      "chip": "ym2612"
    },
    {
      "channel": 0,
      "note": 52,
      "start": 207.636,
      "duration": 0.1832,
      "velocity": 88,
      "chip": "ym2612"
    },
    {
      "channel": 2,
      "note": 30,
      "start": 207.6378,
      "duration": 0.1817,
      "velocity": 127,
      "chip": "ym2612"
    },
    {
      "channel": 0,
      "note": 58,
      "start": 207.8358,
      "duration": 0.1834,
      "velocity": 88,
      "chip": "ym2612"
    },
    {
      "channel": 2,
      "note": 42,
      "start": 207.8363,
      "duration": 0.1833,
      "velocity": 127,
      "chip": "ym2612"
    },
    {
      "channel": 0,
      "note": 57,
      "start": 208.0361,
      "duration": 0.3817,
      "velocity": 88,
      "chip": "ym2612"
    },
    {
      "channel": 2,
      "note": 42,
      "start": 208.0379,
      "duration": 0.1803,
      "velocity": 127,
      "chip": "ym2612"
    },
    {
      "channel": 1,
      "note": 64,
      "start": 208.2348,
      "duration": 0.3832,
      "velocity": 70,
      "chip": "ym2612"
    },
    {
      "channel": 2,
      "note": 30,
      "start": 208.235,
      "duration": 0.1832,
      "velocity": 127,
      "chip": "ym2612"
    },
    {
      "channel": 2,
      "note": 30,
      "start": 208.4363,
      "duration": 0.0819,
      "velocity": 127,
      "chip": "ym2612"
    },
    {
      "channel": 2,
      "note": 42,
      "start": 208.5348,
      "duration": 0.0833,
      "velocity": 127,
      "chip": "ym2612"
    },
    {
      "channel": 0,
      "note": 55,
      "start": 208.6346,
      "duration": 0.1824,
      "velocity": 88,
      "chip": "ym2612"
    },
    {
      "channel": 1,
      "note": 67,
      "start": 208.6348,
      "duration": 0.3824,
      "velocity": 70,
      "chip": "ym2612"
    },
    {
      "channel": 2,
      "note": 42,
      "start": 208.6365,
      "duration": 0.1809,
      "velocity": 127,
      "chip": "ym2612"
    },
    {
      "channel": 0,
      "note": 55,
      "start": 208.8338,
      "duration": 0.3832,
      "velocity": 88,
      "chip": "ym2612"
    },
    {
      "channel": 2,
      "note": 30,
      "start": 208.8342,
      "duration": 0.1832,
      "velocity": 127,
      "chip": "ym2612"
    },
    {
      "channel": 1,
      "note": 62,
      "start": 209.0339,
      "duration": 0.3841,
      "velocity": 70,
      "chip": "ym2612"
    },
    {
      "channel": 2,
      "note": 30,
      "start": 209.0342,
      "duration": 0.1832,
      "velocity": 127,
      "chip": "ym2612"
    },
    {
      "channel": 0,
      "note": 55,
      "start": 209.2339,
      "duration": 0.384,
      "velocity": 88,
      "chip": "ym2612"
    },
    {
      "channel": 2,
      "note": 30,
      "start": 209.2357,
      "duration": 0.0816,
      "velocity": 127,
      "chip": "ym2612"
    },
    {
      "channel": 2,
      "note": 42,
      "start": 209.3348,
      "duration": 0.0834,
      "velocity": 127,
      "chip": "ym2612"
    },
    {
      "channel": 1,
      "note": 67,
      "start": 209.4348,
      "duration": 1.1833,
      "velocity": 70,
      "chip": "ym2612"
    },
    {
      "channel": 2,
      "note": 42,
      "start": 209.435,
      "duration": 0.0831,
      "velocity": 127,
      "chip": "ym2612"
    },
    {
      "channel": 2,
      "note": 42,
      "start": 209.5348,
      "duration": 0.0834,
      "velocity": 127,
      "chip": "ym2612"
    },
    {
      "channel": 0,
      "note": 55,
      "start": 209.6348,
      "duration": 0.1831,
      "velocity": 88,
      "chip": "ym2612"
    },
    {
      "channel": 2,
      "note": 42,
      "start": 209.6366,
      "duration": 0.1816,
      "velocity": 127,
      "chip": "ym2612"
    },
    {
      "channel": 0,
      "note": 55,
      "start": 209.8346,
      "duration": 0.3832,
      "velocity": 88,
      "chip": "ym2612"
    },
    {
      "channel": 2,
      "note": 30,
      "start": 209.835,
      "duration": 0.1831,
      "velocity": 127,
      "chip": "ym2612"
    },
    {
      "channel": 2,
      "note": 30,
      "start": 210.0363,
      "duration": 0.1819,
      "velocity": 127,
      "chip": "ym2612"
    },
    {
      "channel": 0,
      "note": 55,
      "start": 210.2346,
      "duration": 0.1832,
      "velocity": 88,
      "chip": "ym2612"
    },
    {
      "channel": 2,
      "note": 42,
      "start": 210.2365,
      "duration": 0.1817,
      "velocity": 127,
      "chip": "ym2612"
    },
    {
      "channel": 0,
      "note": 55,
      "start": 210.4346,
      "duration": 0.1833,
      "velocity": 88,
      "chip": "ym2612"
    },
    {
      "channel": 2,
      "note": 30,
      "start": 210.4349,
      "duration": 0.1833,
      "velocity": 127,
      "chip": "ym2612"
    },
    {
      "channel": 1,
      "note": 71,
      "start": 210.6347,
      "duration": 0.3833,
      "velocity": 70,
      "chip": "ym2612"
    },
    {
      "channel": 2,
      "note": 30,
      "start": 210.6349,
      "duration": 0.1833,
      "velocity": 127,
      "chip": "ym2612"
    },
    {
      "channel": 0,
      "note": 45,
      "start": 210.8346,
      "duration": 0.1832,
      "velocity": 88,
      "chip": "ym2612"
    },
    {
      "channel": 2,
      "note": 30,
      "start": 210.8364,
      "duration": 0.1817,
      "velocity": 127,
      "chip": "ym2612"
    },
    {
      "channel": 0,
      "note": 57,
      "start": 211.0346,
      "duration": 0.1832,
      "velocity": 88,
      "chip": "ym2612"
    },
    {
      "channel": 1,
      "note": 72,
      "start": 211.0348,
      "duration": 0.1832,
      "velocity": 70,
      "chip": "ym2612"
    },
    {
      "channel": 2,
      "note": 42,
      "start": 211.0351,
      "duration": 0.1831,
      "velocity": 127,
      "chip": "ym2612"
    },
    {
      "channel": 0,
      "note": 55,
      "start": 211.2347,
      "duration": 0.1831,
      "velocity": 88,
      "chip": "ym2612"
    },
    {
      "channel": 1,
      "note": 71,
      "start": 211.2349,
      "duration": 2.7831,
      "velocity": 70,
      "chip": "ym2612"
    },
    {
      "channel": 2,
      "note": 42,
      "start": 211.2366,
      "duration": 0.1816,
      "velocity": 127,
      "chip": "ym2612"
    },
    {
      "channel": 2,
      "note": 30,
      "start": 211.4348,
      "duration": 0.1833,
      "velocity": 127,
      "chip": "ym2612"
    },
    {
      "channel": 2,
      "note": 30,
      "start": 211.6364,
      "duration": 0.1818,
      "velocity": 127,
      "chip": "ym2612"
    },
    {
      "channel": 0,
      "note": 52,
      "start": 211.8346,
      "duration": 0.3832,
      "velocity": 88,
      "chip": "ym2612"
    },
    {
      "channel": 2,
      "note": 42,
      "start": 211.8364,
      "duration": 0.1817,
      "velocity": 127,
      "chip": "ym2612"
    },
    {
      "channel": 2,
      "note": 30,
      "start": 212.0348,
      "duration": 0.1833,
      "velocity": 127,
      "chip": "ym2612"
    },
    {
      "channel": 0,
      "note": 52,
      "start": 212.2345,
      "duration": 0.1833,
      "velocity": 88,
      "chip": "ym2612"
    },
    {
      "channel": 2,
      "note": 30,
      "start": 212.2349,
      "duration": 0.1832,
      "velocity": 127,
      "chip": "ym2612"
    },
    {
      "channel": 0,
      "note": 52,
      "start": 212.4346,
      "duration": 0.1832,
      "velocity": 88,
      "chip": "ym2612"
    },
    {
      "channel": 2,
      "note": 30,
      "start": 212.4365,
      "duration": 0.1817,
      "velocity": 127,
      "chip": "ym2612"
    },
    {
      "channel": 0,
      "note": 52,
      "start": 212.6346,
      "duration": 0.1833,
      "velocity": 88,
      "chip": "ym2612"
    },
    {
      "channel": 2,
      "note": 42,
      "start": 212.6349,
      "duration": 0.1833,
      "velocity": 127,
      "chip": "ym2612"
    },
    {
      "channel": 0,
      "note": 55,
      "start": 212.834,
      "duration": 0.3831,
      "velocity": 88,
      "chip": "ym2612"
    },
    {
      "channel": 2,
      "note": 42,
      "start": 212.8358,
      "duration": 0.1816,
      "velocity": 127,
      "chip": "ym2612"
    },
    {
      "channel": 2,
      "note": 30,
      "start": 213.0341,
      "duration": 0.1834,
      "velocity": 127,
      "chip": "ym2612"
    },
    {
      "channel": 2,
      "note": 30,
      "start": 213.2355,
      "duration": 0.1827,
      "velocity": 127,
      "chip": "ym2612"
    },
    {
      "channel": 0,
      "note": 52,
      "start": 213.4346,
      "duration": 0.1832,
      "velocity": 88,
      "chip": "ym2612"
    },
    {
      "channel": 2,
      "note": 42,
      "start": 213.4364,
      "duration": 0.1817,
      "velocity": 127,
      "chip": "ym2612"
    },
    {
      "channel": 2,
      "note": 30,
      "start": 213.6348,
      "duration": 0.1834,
      "velocity": 127,
      "chip": "ym2612"
    },
    {
      "channel": 0,
      "note": 52,
      "start": 213.8346,
      "duration": 0.1833,
      "velocity": 88,
      "chip": "ym2612"
    },
    {
      "channel": 2,
      "note": 30,
      "start": 213.8349,
      "duration": 0.1833,
      "velocity": 127,
      "chip": "ym2612"
    },
    {
      "channel": 0,
      "note": 52,
      "start": 214.0346,
      "duration": 0.1832,
      "velocity": 88,
      "chip": "ym2612"
    },
    {
      "channel": 2,
      "note": 30,
      "start": 214.0364,
      "duration": 0.1817,
      "velocity": 127,
      "chip": "ym2612"
    },
    {
      "channel": 0,
      "note": 58,
      "start": 214.2346,
      "duration": 0.1833,
      "velocity": 88,
      "chip": "ym2612"
    },
    {
      "channel": 2,
      "note": 42,
      "start": 214.2351,
      "duration": 0.1832,
      "velocity": 127,
      "chip": "ym2612"
    },
    {
      "channel": 0,
      "note": 57,
      "start": 214.4347,
      "duration": 0.3831,
      "velocity": 88,
      "chip": "ym2612"
    },
    {
      "channel": 2,
      "note": 42,
      "start": 214.4365,
      "duration": 0.1817,
      "velocity": 127,
      "chip": "ym2612"
    },
    {
      "channel": 2,
      "note": 30,
      "start": 214.6348,
      "duration": 0.1835,
      "velocity": 127,
      "chip": "ym2612"
    },
    {
      "channel": 1,
      "note": 71,
      "start": 214.8348,
      "duration": 0.3833,
      "velocity": 70,
      "chip": "ym2612"
    },
    {
      "channel": 2,
      "note": 30,
      "start": 214.8364,
      "duration": 0.1817,
      "velocity": 127,
      "chip": "ym2612"
    },
    {
      "channel": 0,
      "note": 55,
      "start": 215.0345,
      "duration": 0.1833,
      "velocity": 88,
      "chip": "ym2612"
    },
    {
      "channel": 2,
      "note": 42,
      "start": 215.0363,
      "duration": 0.1819,
      "velocity": 127,
      "chip": "ym2612"
    },
    {
      "channel": 0,
      "note": 55,
      "start": 215.2346,
      "duration": 0.3832,
      "velocity": 88,
      "chip": "ym2612"
    },
    {
      "channel": 1,
      "note": 62,
      "start": 215.2349,
      "duration": 0.1832,
      "velocity": 70,
      "chip": "ym2612"
    },
    {
      "channel": 2,
      "note": 30,
      "start": 215.2351,
      "duration": 0.1831,
      "velocity": 127,
      "chip": "ym2612"
    },
    {
      "channel": 1,
      "note": 67,
      "start": 215.4348,
      "duration": 0.1833,
      "velocity": 70,
      "chip": "ym2612"
    },
    {
      "channel": 2,
      "note": 30,
      "start": 215.435,
      "duration": 0.1833,
      "velocity": 127,
      "chip": "ym2612"
    },
    {
      "channel": 0,
      "note": 55,
      "start": 215.6345,
      "duration": 0.3833,
      "velocity": 88,
      "chip": "ym2612"
    },
    {
      "channel": 2,
      "note": 30,
      "start": 215.6363,
      "duration": 0.1818,
      "velocity": 127,
      "chip": "ym2612"
    },
    {
      "channel": 1,
      "note": 72,
      "start": 215.8347,
      "duration": 0.3834,
      "velocity": 70,
      "chip": "ym2612"
    },
    {
      "channel": 2,
      "note": 42,
      "start": 215.8349,
      "duration": 0.1832,
      "velocity": 127,
      "chip": "ym2612"
    },
    {
      "channel": 0,
      "note": 55,
      "start": 216.0346,
      "duration": 0.1832,
      "velocity": 88,
      "chip": "ym2612"
    },
    {
      "channel": 2,
      "note": 42,
      "start": 216.0365,
      "duration": 0.1817,
      "velocity": 127,
      "chip": "ym2612"
    },
    {
      "channel": 0,
      "note": 55,
      "start": 216.2346,
      "duration": 0.3832,
      "velocity": 88,
      "chip": "ym2612"
    },
    {
      "channel": 1,
      "note": 74,
      "start": 216.2349,
      "duration": 0.1832,
      "velocity": 70,
      "chip": "ym2612"
    },
    {
      "channel": 2,
      "note": 30,
      "start": 216.2351,
      "duration": 0.1831,
      "velocity": 127,
      "chip": "ym2612"
    },
    {
      "channel": 2,
      "note": 30,
      "start": 216.4363,
      "duration": 0.1819,
      "velocity": 127,
      "chip": "ym2612"
    },
    {
      "channel": 0,
      "note": 55,
      "start": 216.6348,
      "duration": 0.183,
      "velocity": 88,
      "chip": "ym2612"
    },
    {
      "channel": 1,
      "note": 67,
      "start": 216.635,
      "duration": 0.3822,
      "velocity": 70,
      "chip": "ym2612"
    },
    {
      "channel": 2,
      "note": 42,
      "start": 216.6367,
      "duration": 0.1815,
      "velocity": 127,
      "chip": "ym2612"
    },
    {
      "channel": 0,
      "note": 55,
      "start": 216.8345,
      "duration": 0.1826,
      "velocity": 88,
      "chip": "ym2612"
    },
    {
      "channel": 2,
      "note": 30,
      "start": 216.8349,
      "duration": 0.1826,
      "velocity": 127,
      "chip": "ym2612"
    },
    {
      "channel": 1,
      "note": 76,
      "start": 217.0338,
      "duration": 0.3846,
      "velocity": 70,
      "chip": "ym2612"
    },
    {
      "channel": 2,
      "note": 30,
      "start": 217.0341,
      "duration": 0.1834,
      "velocity": 127,
      "chip": "ym2612"
    },
    {
      "channel": 0,
      "note": 45,
      "start": 217.2338,
      "duration": 0.1844,
      "velocity": 88,
      "chip": "ym2612"
    },
    {
      "channel": 2,
      "note": 30,
      "start": 217.2356,
      "duration": 0.183,
      "velocity": 127,
      "chip": "ym2612"
    },
    {
      "channel": 0,
      "note": 57,
      "start": 217.435,
      "duration": 0.1832,
      "velocity": 88,
      "chip": "ym2612"
    },
    {
      "channel": 1,
      "note": 74,
      "start": 217.4353,
      "duration": 0.3847,
      "velocity": 70,
      "chip": "ym2612"
    },
    {
      "channel": 2,
      "note": 42,
      "start": 217.4355,
      "duration": 0.1831,
      "velocity": 127,
      "chip": "ym2612"
    },
    {
      "channel": 0,
      "note": 55,
      "start": 217.6351,
      "duration": 0.1845,
      "velocity": 88,
      "chip": "ym2612"
    },
    {
      "channel": 2,
      "note": 42,
      "start": 217.637,
      "duration": 0.1831,
      "velocity": 127,
      "chip": "ym2612"
    },
    {
      "channel": 1,
      "note": 71,
      "start": 217.8365,
      "duration": 0.1833,
      "velocity": 70,
      "chip": "ym2612"
    },
    {
      "channel": 2,
      "note": 30,
      "start": 217.8367,
      "duration": 0.1832,
      "velocity": 127,
      "chip": "ym2612"
    },
    {
      "channel": 1,
      "note": 67,
      "start": 218.0366,
      "duration": 2.7819,
      "velocity": 70,
      "chip": "ym2612"
    },
    {
      "channel": 2,
      "note": 30,
      "start": 218.0383,
      "duration": 0.1817,
      "velocity": 127,
      "chip": "ym2612"
    },
    {
      "channel": 0,
      "note": 52,
      "start": 218.235,
      "duration": 0.3832,
      "velocity": 88,
      "chip": "ym2612"
    },
    {
      "channel": 2,
      "note": 42,
      "start": 218.2368,
      "duration": 0.1817,
      "velocity": 127,
      "chip": "ym2612"
    },
    {
      "channel": 2,
      "note": 30,
      "start": 218.4353,
      "duration": 0.1833,
      "velocity": 127,
      "chip": "ym2612"
    },
    {
      "channel": 0,
      "note": 52,
      "start": 218.6351,
      "duration": 0.1845,
      "velocity": 88,
      "chip": "ym2612"
    },
    {
      "channel": 2,
      "note": 30,
      "start": 218.6355,
      "duration": 0.1845,
      "velocity": 127,
      "chip": "ym2612"
    },
    {
      "channel": 0,
      "note": 52,
      "start": 218.8363,
      "duration": 0.1833,
      "velocity": 88,
      "chip": "ym2612"
    },
    {
      "channel": 2,
      "note": 30,
      "start": 218.8382,
      "duration": 0.1819,
      "velocity": 127,
      "chip": "ym2612"
    },
    {
      "channel": 0,
      "note": 52,
      "start": 219.0364,
      "duration": 0.1833,
      "velocity": 88,
      "chip": "ym2612"
    },
    {
      "channel": 2,
      "note": 42,
      "start": 219.0368,
      "duration": 0.1833,
      "velocity": 127,
      "chip": "ym2612"
    },
    {
      "channel": 0,
      "note": 55,
      "start": 219.2364,
      "duration": 0.3819,
      "velocity": 88,
      "chip": "ym2612"
    },
    {
      "channel": 2,
      "note": 42,
      "start": 219.2383,
      "duration": 0.1802,
      "velocity": 127,
      "chip": "ym2612"
    },
    {
      "channel": 2,
      "note": 30,
      "start": 219.4353,
      "duration": 0.1834,
      "velocity": 127,
      "chip": "ym2612"
    },
    {
      "channel": 2,
      "note": 30,
      "start": 219.6367,
      "duration": 0.1819,
      "velocity": 127,
      "chip": "ym2612"
    },
    {
      "channel": 0,
      "note": 52,
      "start": 219.8363,
      "duration": 0.1833,
      "velocity": 88,
      "chip": "ym2612"
    },
    {
      "channel": 2,
      "note": 42,
      "start": 219.8382,
      "duration": 0.1819,
      "velocity": 127,
      "chip": "ym2612"
    },
    {
      "channel": 0,
      "note": 52,
      "start": 220.0364,
      "duration": 0.1831,
      "velocity": 88,
      "chip": "ym2612"
    },
    {
      "channel": 2,
      "note": 30,
      "start": 220.0368,
      "duration": 0.1832,
      "velocity": 127,
      "chip": "ym2612"
    },
    {
      "channel": 0,
      "note": 52,
      "start": 220.2363,
      "duration": 0.1819,
      "velocity": 88,
      "chip": "ym2612"
    },
    {
      "channel": 2,
      "note": 30,
      "start": 220.2367,
      "duration": 0.1818,
      "velocity": 127,
      "chip": "ym2612"
    },
    {
      "channel": 0,
      "note": 55,
      "start": 220.4351,
      "duration": 0.1832,
      "velocity": 88,
      "chip": "ym2612"
    },
    {
      "channel": 2,
      "note": 30,
      "start": 220.4369,
      "duration": 0.1817,
      "velocity": 127,
      "chip": "ym2612"
    },
    {
      "channel": 0,
      "note": 58,
      "start": 220.635,
      "duration": 0.1833,
      "velocity": 88,
      "chip": "ym2612"
    },
    {
      "channel": 2,
      "note": 42,
      "start": 220.6355,
      "duration": 0.1833,
      "velocity": 127,
      "chip": "ym2612"
    },
    {
      "channel": 0,
      "note": 57,
      "start": 220.8351,
      "duration": 0.3819,
      "velocity": 88,
      "chip": "ym2612"
    },
    {
      "channel": 2,
      "note": 42,
      "start": 220.8369,
      "duration": 0.1805,
      "velocity": 127,
      "chip": "ym2612"
    },
    {
      "channel": 1,
      "note": 63,
      "start": 221.0339,
      "duration": 0.3841,
      "velocity": 70,
      "chip": "ym2612"
    },
    {
      "channel": 2,
      "note": 30,
      "start": 221.0342,
      "duration": 0.1832,
      "velocity": 127,
      "chip": "ym2612"
    },
    {
      "channel": 0,
      "note": 57,
      "start": 221.2339,
      "duration": 0.3841,
      "velocity": 88,
      "chip": "ym2612"
    },
    {
      "channel": 2,
      "note": 30,
      "start": 221.2357,
      "duration": 0.1826,
      "velocity": 127,
      "chip": "ym2612"
    },
    {
      "channel": 1,
      "note": 72,
      "start": 221.4349,
      "duration": 0.3832,
      "velocity": 70,
      "chip": "ym2612"
    },
    {
      "channel": 2,
      "note": 42,
      "start": 221.4366,
      "duration": 0.1817,
      "velocity": 127,
      "chip": "ym2612"
    },
    {
      "channel": 0,
      "note": 57,
      "start": 221.6347,
      "duration": 0.3831,
      "velocity": 88,
      "chip": "ym2612"
    },
    {
      "channel": 2,
      "note": 30,
      "start": 221.6351,
      "duration": 0.1832,
      "velocity": 127,
      "chip": "ym2612"
    },
    {
      "channel": 1,
      "note": 72,
      "start": 221.8348,
      "duration": 0.3832,
      "velocity": 70,
      "chip": "ym2612"
    },
    {
      "channel": 2,
      "note": 30,
      "start": 221.8351,
      "duration": 0.1831,
      "velocity": 127,
      "chip": "ym2612"
    },
    {
      "channel": 0,
      "note": 57,
      "start": 222.0346,
      "duration": 0.1832,
      "velocity": 88,
      "chip": "ym2612"
    },
    {
      "channel": 2,
      "note": 30,
      "start": 222.0364,
      "duration": 0.1817,
      "velocity": 127,
      "chip": "ym2612"
    },
    {
      "channel": 0,
      "note": 57,
      "start": 222.2346,
      "duration": 0.1832,
      "velocity": 88,
      "chip": "ym2612"
    },
    {
      "channel": 1,
      "note": 71,
      "start": 222.2348,
      "duration": 0.3833,
      "velocity": 70,
      "chip": "ym2612"
    },
    {
      "channel": 2,
      "note": 42,
      "start": 222.2351,
      "duration": 0.1831,
      "velocity": 127,
      "chip": "ym2612"
    },
    {
      "channel": 0,
      "note": 57,
      "start": 222.4346,
      "duration": 0.5831,
      "velocity": 88,
      "chip": "ym2612"
    },
    {
      "channel": 2,
      "note": 42,
      "start": 222.4365,
      "duration": 0.1819,
      "velocity": 127,
      "chip": "ym2612"
    },
    {
      "channel": 1,
      "note": 69,
      "start": 222.6349,
      "duration": 0.3831,
      "velocity": 70,
      "chip": "ym2612"
    },
    {
      "channel": 2,
      "note": 30,
      "start": 222.6351,
      "duration": 0.1831,
      "velocity": 127,
      "chip": "ym2612"
    },
    {
      "channel": 2,
      "note": 30,
      "start": 222.8365,
      "duration": 0.1816,
      "velocity": 127,
      "chip": "ym2612"
    },
    {
      "channel": 1,
      "note": 74,
      "start": 223.0346,
      "duration": 0.3834,
      "velocity": 70,
      "chip": "ym2612"
    },
    {
      "channel": 2,
      "note": 42,
      "start": 223.0363,
      "duration": 0.1819,
      "velocity": 127,
      "chip": "ym2612"
    },
    {
      "channel": 0,
      "note": 55,
      "start": 223.2346,
      "duration": 0.1833,
      "velocity": 88,
      "chip": "ym2612"
    },
    {
      "channel": 2,
      "note": 30,
      "start": 223.235,
      "duration": 0.1833,
      "velocity": 127,
      "chip": "ym2612"
    },
    {
      "channel": 1,
      "note": 67,
      "start": 223.4346,
      "duration": 0.3835,
      "velocity": 70,
      "chip": "ym2612"
    },
    {
      "channel": 2,
      "note": 30,
      "start": 223.4348,
      "duration": 0.1835,
      "velocity": 127,
      "chip": "ym2612"
    },
    {
      "channel": 0,
      "note": 55,
      "start": 223.6347,
      "duration": 0.3832,
      "velocity": 88,
      "chip": "ym2612"
    },
    {
      "channel": 2,
      "note": 30,
      "start": 223.6365,
      "duration": 0.1817,
      "velocity": 127,
      "chip": "ym2612"
    },
    {
      "channel": 1,
      "note": 74,
      "start": 223.8349,
      "duration": 3.1831,
      "velocity": 70,
      "chip": "ym2612"
    },
    {
      "channel": 2,
      "note": 42,
      "start": 223.8352,
      "duration": 0.1831,
      "velocity": 127,
      "chip": "ym2612"
    },
    {
      "channel": 0,
      "note": 48,
      "start": 224.0348,
      "duration": 0.3829,
      "velocity": 88,
      "chip": "ym2612"
    },
    {
      "channel": 2,
      "note": 42,
      "start": 224.0367,
      "duration": 0.3814,
      "velocity": 127,
      "chip": "ym2612"
    },
    {
      "channel": 2,
      "note": 30,
      "start": 224.4363,
      "duration": 0.182,
      "velocity": 127,
      "chip": "ym2612"
    },
    {
      "channel": 0,
      "note": 52,
      "start": 224.6347,
      "duration": 0.1833,
      "velocity": 88,
      "chip": "ym2612"
    },
    {
      "channel": 2,
      "note": 42,
      "start": 224.6365,
      "duration": 0.1818,
      "velocity": 127,
      "chip": "ym2612"
    },
    {
      "channel": 0,
      "note": 52,
      "start": 224.8348,
      "duration": 0.1822,
      "velocity": 88,
      "chip": "ym2612"
    },
    {
      "channel": 2,
      "note": 30,
      "start": 224.8351,
      "duration": 0.1822,
      "velocity": 127,
      "chip": "ym2612"
    },
    {
      "channel": 0,
      "note": 52,
      "start": 225.0338,
      "duration": 0.1832,
      "velocity": 88,
      "chip": "ym2612"
    },
    {
      "channel": 2,
      "note": 30,
      "start": 225.0342,
      "duration": 0.1832,
      "velocity": 127,
      "chip": "ym2612"
    },
    {
      "channel": 2,
      "note": 30,
      "start": 225.2355,
      "duration": 0.1841,
      "velocity": 127,
      "chip": "ym2612"
    },
    {
      "channel": 0,
      "note": 50,
      "start": 225.436,
      "duration": 0.3818,
      "velocity": 88,
      "chip": "ym2612"
    },
    {
      "channel": 2,
      "note": 42,
      "start": 225.4379,
      "duration": 0.1815,
      "velocity": 127,
      "chip": "ym2612"
    },
    {
      "channel": 2,
      "note": 30,
      "start": 225.6377,
      "duration": 0.1805,
      "velocity": 127,
      "chip": "ym2612"
    },
    {
      "channel": 2,
      "note": 30,
      "start": 225.8348,
      "duration": 0.1834,
      "velocity": 127,
      "chip": "ym2612"
    },
    {
      "channel": 0,
      "note": 52,
      "start": 226.0346,
      "duration": 0.3847,
      "velocity": 88,
      "chip": "ym2612"
    },
    {
      "channel": 2,
      "note": 30,
      "start": 226.0364,
      "duration": 0.1831,
      "velocity": 127,
      "chip": "ym2612"
    },
    {
      "channel": 2,
      "note": 42,
      "start": 226.2376,
      "duration": 0.182,
      "velocity": 127,
      "chip": "ym2612"
    },
    {
      "channel": 0,
      "note": 52,
      "start": 226.436,
      "duration": 0.1832,
      "velocity": 88,
      "chip": "ym2612"
    },
    {
      "channel": 2,
      "note": 30,
      "start": 226.4364,
      "duration": 0.1831,
      "velocity": 127,
      "chip": "ym2612"
    },
    {
      "channel": 0,
      "note": 52,
      "start": 226.6358,
      "duration": 0.1819,
      "velocity": 88,
      "chip": "ym2612"
    },
    {
      "channel": 2,
      "note": 30,
      "start": 226.6363,
      "duration": 0.1818,
      "velocity": 127,
      "chip": "ym2612"
    },
    {
      "channel": 0,
      "note": 55,
      "start": 226.8346,
      "duration": 0.1832,
      "velocity": 88,
      "chip": "ym2612"
    },
    {
      "channel": 2,
      "note": 30,
      "start": 226.8365,
      "duration": 0.1817,
      "velocity": 127,
      "chip": "ym2612"
    },
    {
      "channel": 0,
      "note": 55,
      "start": 227.0346,
      "duration": 0.1832,
      "velocity": 88,
      "chip": "ym2612"
    },
    {
      "channel": 2,
      "note": 42,
      "start": 227.0349,
      "duration": 0.1833,
      "velocity": 127,
      "chip": "ym2612"
    },
    {
      "channel": 0,
      "note": 45,
      "start": 227.2347,
      "duration": 0.3845,
      "velocity": 88,
      "chip": "ym2612"
    },
    {
      "channel": 2,
      "note": 42,
      "start": 227.2365,
      "duration": 0.1829,
      "velocity": 127,
      "chip": "ym2612"
    },
    {
      "channel": 2,
      "note": 30,
      "start": 227.4361,
      "duration": 0.1835,
      "velocity": 127,
      "chip": "ym2612"
    },
    {
      "channel": 1,
      "note": 76,
      "start": 227.636,
      "duration": 0.1819,
      "velocity": 70,
      "chip": "ym2612"
    },
    {
      "channel": 2,
      "note": 30,
      "start": 227.6378,
      "duration": 0.1804,
      "velocity": 127,
      "chip": "ym2612"
    },
    {
      "channel": 0,
      "note": 57,
      "start": 227.8346,
      "duration": 0.1833,
      "velocity": 88,
      "chip": "ym2612"
    },
    {
      "channel": 2,
      "note": 42,
      "start": 227.8363,
      "duration": 0.1819,
      "velocity": 127,
      "chip": "ym2612"
    },
    {
      "channel": 1,
      "note": 69,
      "start": 228.0346,
      "duration": 0.1835,
      "velocity": 70,
      "chip": "ym2612"
    },
    {
      "channel": 2,
      "note": 30,
      "start": 228.0348,
      "duration": 0.1834,
      "velocity": 127,
      "chip": "ym2612"
    },
    {
      "channel": 1,
      "note": 72,
      "start": 228.2348,
      "duration": 0.3845,
      "velocity": 70,
      "chip": "ym2612"
    },
    {
      "channel": 2,
      "note": 30,
      "start": 228.235,
      "duration": 0.1846,
      "velocity": 127,
      "chip": "ym2612"
    },
    {
      "channel": 0,
      "note": 58,
      "start": 228.436,
      "duration": 0.3832,
      "velocity": 88,
      "chip": "ym2612"
    },
    {
      "channel": 2,
      "note": 30,
      "start": 228.4378,
      "duration": 0.1817,
      "velocity": 127,
      "chip": "ym2612"
    },
    {
      "channel": 1,
      "note": 69,
      "start": 228.636,
      "duration": 0.3811,
      "velocity": 70,
      "chip": "ym2612"
    },
    {
      "channel": 2,
      "note": 42,
      "start": 228.6363,
      "duration": 0.1832,
      "velocity": 127,
      "chip": "ym2612"
    },
    {
      "channel": 0,
      "note": 57,
      "start": 228.836,
      "duration": 1.1817,
      "velocity": 88,
      "chip": "ym2612"
    },
    {
      "channel": 2,
      "note": 42,
      "start": 228.8379,
      "duration": 0.1795,
      "velocity": 127,
      "chip": "ym2612"
    },
    {
      "channel": 1,
      "note": 71,
      "start": 229.0339,
      "duration": 0.3842,
      "velocity": 70,
      "chip": "ym2612"
    },
    {
      "channel": 2,
      "note": 30,
      "start": 229.0341,
      "duration": 0.1831,
      "velocity": 127,
      "chip": "ym2612"
    },
    {
      "channel": 2,
      "note": 30,
      "start": 229.2355,
      "duration": 0.1827,
      "velocity": 127,
      "chip": "ym2612"
    },
    {
      "channel": 1,
      "note": 74,
      "start": 229.4348,
      "duration": 0.3832,
      "velocity": 70,
      "chip": "ym2612"
    },
    {
      "channel": 2,
      "note": 42,
      "start": 229.4364,
      "duration": 0.1817,
      "velocity": 127,
      "chip": "ym2612"
    },
    {
      "channel": 2,
      "note": 30,
      "start": 229.6348,
      "duration": 0.1833,
      "velocity": 127,
      "chip": "ym2612"
    },
    {
      "channel": 1,
      "note": 74,
      "start": 229.8347,
      "duration": 2.5833,
      "velocity": 70,
      "chip": "ym2612"
    },
    {
      "channel": 2,
      "note": 30,
      "start": 229.8349,
      "duration": 0.1832,
      "velocity": 127,
      "chip": "ym2612"
    },
    {
      "channel": 0,
      "note": 48,
      "start": 230.0346,
      "duration": 0.1832,
      "velocity": 88,
      "chip": "ym2612"
    },
    {
      "channel": 2,
      "note": 30,
      "start": 230.0365,
      "duration": 0.1817,
      "velocity": 127,
      "chip": "ym2612"
    },
    {
      "channel": 0,
      "note": 48,
      "start": 230.2346,
      "duration": 0.1833,
      "velocity": 88,
      "chip": "ym2612"
    },
    {
      "channel": 2,
      "note": 42,
      "start": 230.2349,
      "duration": 0.1833,
      "velocity": 127,
      "chip": "ym2612"
    },
    {
      "channel": 0,
      "note": 48,
      "start": 230.4347,
      "duration": 1.1831,
      "velocity": 88,
      "chip": "ym2612"
    },
    {
      "channel": 2,
      "note": 42,
      "start": 230.4365,
      "duration": 0.1816,
      "velocity": 127,
      "chip": "ym2612"
    },
    {
      "channel": 2,
      "note": 30,
      "start": 230.6348,
      "duration": 0.1833,
      "velocity": 127,
      "chip": "ym2612"
    },
    {
      "channel": 2,
      "note": 30,
      "start": 230.8363,
      "duration": 0.1818,
      "velocity": 127,
      "chip": "ym2612"
    },
    {
      "channel": 2,
      "note": 42,
      "start": 231.0364,
      "duration": 0.1817,
      "velocity": 127,
      "chip": "ym2612"
    },
    {
      "channel": 2,
      "note": 30,
      "start": 231.2348,
      "duration": 0.1833,
      "velocity": 127,
      "chip": "ym2612"
    },
    {
      "channel": 2,
      "note": 30,
      "start": 231.4348,
      "duration": 0.1834,
      "velocity": 127,
      "chip": "ym2612"
    },
    {
      "channel": 0,
      "note": 48,
      "start": 231.6346,
      "duration": 0.1832,
      "velocity": 88,
      "chip": "ym2612"
    },
    {
      "channel": 2,
      "note": 30,
      "start": 231.6364,
      "duration": 0.1817,
      "velocity": 127,
      "chip": "ym2612"
    },
    {
      "channel": 0,
      "note": 48,
      "start": 231.8345,
      "duration": 0.1833,
      "velocity": 88,
      "chip": "ym2612"
    },
    {
      "channel": 2,
      "note": 42,
      "start": 231.8349,
      "duration": 0.1833,
      "velocity": 127,
      "chip": "ym2612"
    },
    {
      "channel": 0,
      "note": 48,
      "start": 232.0346,
      "duration": 1.1824,
      "velocity": 88,
      "chip": "ym2612"
    },
    {
      "channel": 2,
      "note": 42,
      "start": 232.0365,
      "duration": 0.1817,
      "velocity": 127,
      "chip": "ym2612"
    },
    {
      "channel": 2,
      "note": 30,
      "start": 232.2348,
      "duration": 0.1834,
      "velocity": 127,
      "chip": "ym2612"
    },
    {
      "channel": 1,
      "note": 79,
      "start": 232.4348,
      "duration": 0.3832,
      "velocity": 70,
      "chip": "ym2612"
    },
    {
      "channel": 2,
      "note": 30,
      "start": 232.4365,
      "duration": 0.1816,
      "velocity": 127,
      "chip": "ym2612"
    },
    {
      "channel": 2,
      "note": 42,
      "start": 232.6363,
      "duration": 0.1819,
      "velocity": 127,
      "chip": "ym2612"
    },
    {
      "channel": 1,
      "note": 79,
      "start": 232.8347,
      "duration": 0.1824,
      "velocity": 70,
      "chip": "ym2612"
    },
    {
      "channel": 2,
      "note": 30,
      "start": 232.8349,
      "duration": 0.1824,
      "velocity": 127,
      "chip": "ym2612"
    },
    {
      "channel": 1,
      "note": 79,
      "start": 233.034,
      "duration": 0.3833,
      "velocity": 70,
      "chip": "ym2612"
    },
    {
      "channel": 2,
      "note": 30,
      "start": 233.0342,
      "duration": 0.1832,
      "velocity": 127,
      "chip": "ym2612"
    },
    {
      "channel": 0,
      "note": 48,
      "start": 233.2339,
      "duration": 0.1832,
      "velocity": 88,
      "chip": "ym2612"
    },
    {
      "channel": 2,
      "note": 30,
      "start": 233.2357,
      "duration": 0.1818,
      "velocity": 127,
      "chip": "ym2612"
    },
    {
      "channel": 0,
      "note": 48,
      "start": 233.4346,
      "duration": 0.1833,
      "velocity": 88,
      "chip": "ym2612"
    },
    {
      "channel": 1,
      "note": 83,
      "start": 233.4348,
      "duration": 4.7837,
      "velocity": 70,
      "chip": "ym2612"
    },
    {
      "channel": 2,
      "note": 42,
      "start": 233.4351,
      "duration": 0.1831,
      "velocity": 127,
      "chip": "ym2612"
    },
    {
      "channel": 0,
      "note": 48,
      "start": 233.6347,
      "duration": 0.3832,
      "velocity": 88,
      "chip": "ym2612"
    },
    {
      "channel": 2,
      "note": 42,
      "start": 233.6365,
      "duration": 0.1816,
      "velocity": 127,
      "chip": "ym2612"
    },
    {
      "channel": 2,
      "note": 30,
      "start": 233.8349,
      "duration": 0.1833,
      "velocity": 127,
      "chip": "ym2612"
    },
    {
      "channel": 2,
      "note": 30,
      "start": 234.0363,
      "duration": 0.1819,
      "velocity": 127,
      "chip": "ym2612"
    },
    {
      "channel": 0,
      "note": 52,
      "start": 234.2346,
      "duration": 0.1832,
      "velocity": 88,
      "chip": "ym2612"
    },
    {
      "channel": 2,
      "note": 42,
      "start": 234.2365,
      "duration": 0.1817,
      "velocity": 127,
      "chip": "ym2612"
    },
    {
      "channel": 0,
      "note": 52,
      "start": 234.4346,
      "duration": 0.3833,
      "velocity": 88,
      "chip": "ym2612"
    },
    {
      "channel": 2,
      "note": 30,
      "start": 234.4349,
      "duration": 0.1832,
      "velocity": 127,
      "chip": "ym2612"
    },
    {
      "channel": 2,
      "note": 30,
      "start": 234.6348,
      "duration": 0.1834,
      "velocity": 127,
      "chip": "ym2612"
    },
    {
      "channel": 0,
      "note": 52,
      "start": 234.8347,
      "duration": 0.1832,
      "velocity": 88,
      "chip": "ym2612"
    },
    {
      "channel": 2,
      "note": 30,
      "start": 234.8365,
      "duration": 0.1817,
      "velocity": 127,
      "chip": "ym2612"
    },
    {
      "channel": 0,
      "note": 50,
      "start": 235.0346,
      "duration": 0.1833,
      "velocity": 88,
      "chip": "ym2612"
    },
    {
      "channel": 2,
      "note": 42,
      "start": 235.0351,
      "duration": 0.1832,
      "velocity": 127,
      "chip": "ym2612"
    },
    {
      "channel": 0,
      "note": 52,
      "start": 235.2346,
      "duration": 0.3832,
      "velocity": 88,
      "chip": "ym2612"
    },
    {
      "channel": 2,
      "note": 42,
      "start": 235.2365,
      "duration": 0.1816,
      "velocity": 127,
      "chip": "ym2612"
    },
    {
      "channel": 2,
      "note": 30,
      "start": 235.4349,
      "duration": 0.1833,
      "velocity": 127,
      "chip": "ym2612"
    },
    {
      "channel": 2,
      "note": 30,
      "start": 235.6362,
      "duration": 0.1819,
      "velocity": 127,
      "chip": "ym2612"
    },
    {
      "channel": 2,
      "note": 42,
      "start": 235.8363,
      "duration": 0.182,
      "velocity": 127,
      "chip": "ym2612"
    },
    {
      "channel": 2,
      "note": 30,
      "start": 236.0348,
      "duration": 0.1833,
      "velocity": 127,
      "chip": "ym2612"
    },
    {
      "channel": 2,
      "note": 30,
      "start": 236.2349,
      "duration": 0.1833,
      "velocity": 127,
      "chip": "ym2612"
    },
    {
      "channel": 0,
      "note": 51,
      "start": 236.4346,
      "duration": 0.1832,
      "velocity": 88,
      "chip": "ym2612"
    },
    {
      "channel": 2,
      "note": 30,
      "start": 236.4365,
      "duration": 0.1817,
      "velocity": 127,
      "chip": "ym2612"
    },
    {
      "channel": 0,
      "note": 50,
      "start": 236.6346,
      "duration": 0.1833,
      "velocity": 88,
      "chip": "ym2612"
    },
    {
      "channel": 2,
      "note": 42,
      "start": 236.635,
      "duration": 0.1832,
      "velocity": 127,
      "chip": "ym2612"
    },
    {
      "channel": 0,
      "note": 52,
      "start": 236.8348,
      "duration": 0.3824,
      "velocity": 88,
      "chip": "ym2612"
    },
    {
      "channel": 2,
      "note": 42,
      "start": 236.8366,
      "duration": 0.1807,
      "velocity": 127,
      "chip": "ym2612"
    },
    {
      "channel": 2,
      "note": 30,
      "start": 237.0341,
      "duration": 0.1833,
      "velocity": 127,
      "chip": "ym2612"
    },
    {
      "channel": 2,
      "note": 30,
      "start": 237.2355,
      "duration": 0.0818,
      "velocity": 127,
      "chip": "ym2612"
    },
    {
      "channel": 2,
      "note": 42,
      "start": 237.3341,
      "duration": 0.0832,
      "velocity": 127,
      "chip": "ym2612"
    },
    {
      "channel": 2,
      "note": 42,
      "start": 237.4356,
      "duration": 0.1845,
      "velocity": 127,
      "chip": "ym2612"
    },
    {
      "channel": 2,
      "note": 30,
      "start": 237.6365,
      "duration": 0.1835,
      "velocity": 127,
      "chip": "ym2612"
    },
    {
      "channel": 2,
      "note": 30,
      "start": 237.8367,
      "duration": 0.182,
      "velocity": 127,
      "chip": "ym2612"
    },
    {
      "channel": 0,
      "note": 51,
      "start": 238.035,
      "duration": 0.1832,
      "velocity": 88,
      "chip": "ym2612"
    },
    {
      "channel": 2,
      "note": 30,
      "start": 238.0368,
      "duration": 0.0816,
      "velocity": 127,
      "chip": "ym2612"
    },
    {
      "channel": 2,
      "note": 42,
      "start": 238.1353,
      "duration": 0.0833,
      "velocity": 127,
      "chip": "ym2612"
    },
    {
      "channel": 0,
      "note": 50,
      "start": 238.2351,
      "duration": 0.1846,
      "velocity": 88,
      "chip": "ym2612"
    },
    {
      "channel": 2,
      "note": 42,
      "start": 238.2354,
      "duration": 0.0831,
      "velocity": 127,
      "chip": "ym2612"
    },
    {
      "channel": 2,
      "note": 42,
      "start": 238.3352,
      "duration": 0.0849,
      "velocity": 127,
      "chip": "ym2612"
    },
    {
      "channel": 0,
      "note": 52,
      "start": 238.4383,
      "duration": 0.3813,
      "velocity": 88,
      "chip": "ym2612"
    },
    {
      "channel": 1,
      "note": 82,
      "start": 238.44,
      "duration": 6.3779,
      "velocity": 70,
      "chip": "ym2612"
    },
    {
      "channel": 2,
      "note": 42,
      "start": 238.4417,
      "duration": 0.1783,
      "velocity": 127,
      "chip": "ym2612"
    },
    {
      "channel": 2,
      "note": 30,
      "start": 238.6366,
      "duration": 0.1834,
      "velocity": 127,
      "chip": "ym2612"
    },
    {
      "channel": 2,
      "note": 30,
      "start": 238.8381,
      "duration": 0.1805,
      "velocity": 127,
      "chip": "ym2612"
    },
    {
      "channel": 0,
      "note": 52,
      "start": 239.0349,
      "duration": 0.1833,
      "velocity": 88,
      "chip": "ym2612"
    },
    {
      "channel": 2,
      "note": 42,
      "start": 239.0368,
      "duration": 0.1817,
      "velocity": 127,
      "chip": "ym2612"
    },
    {
      "channel": 0,
      "note": 52,
      "start": 239.2351,
      "duration": 0.3845,
      "velocity": 88,
      "chip": "ym2612"
    },
    {
      "channel": 2,
      "note": 30,
      "start": 239.2355,
      "duration": 0.1831,
      "velocity": 127,
      "chip": "ym2612"
    },
    {
      "channel": 2,
      "note": 30,
      "start": 239.4353,
      "duration": 0.1847,
      "velocity": 127,
      "chip": "ym2612"
    },
    {
      "channel": 2,
      "note": 30,
      "start": 239.6382,
      "duration": 0.1819,
      "velocity": 127,
      "chip": "ym2612"
    },
    {
      "channel": 0,
      "note": 52,
      "start": 239.8364,
      "duration": 0.1819,
      "velocity": 88,
      "chip": "ym2612"
    },
    {
      "channel": 2,
      "note": 42,
      "start": 239.8368,
      "duration": 0.1819,
      "velocity": 127,
      "chip": "ym2612"
    },
    {
      "channel": 0,
      "note": 52,
      "start": 240.0351,
      "duration": 0.3831,
      "velocity": 88,
      "chip": "ym2612"
    },
    {
      "channel": 2,
      "note": 42,
      "start": 240.0371,
      "duration": 0.1815,
      "velocity": 127,
      "chip": "ym2612"
    },
    {
      "channel": 2,
      "note": 30,
      "start": 240.2353,
      "duration": 0.1833,
      "velocity": 127,
      "chip": "ym2612"
    },
    {
      "channel": 2,
      "note": 30,
      "start": 240.4367,
      "duration": 0.1833,
      "velocity": 127,
      "chip": "ym2612"
    },
    {
      "channel": 0,
      "note": 52,
      "start": 240.6365,
      "duration": 0.1832,
      "velocity": 88,
      "chip": "ym2612"
    },
    {
      "channel": 2,
      "note": 42,
      "start": 240.6383,
      "duration": 0.1817,
      "velocity": 127,
      "chip": "ym2612"
    },
    {
      "channel": 2,
      "note": 30,
      "start": 240.8365,
      "duration": 0.1809,
      "velocity": 127,
      "chip": "ym2612"
    },
    {
      "channel": 0,
      "note": 52,
      "start": 241.0338,
      "duration": 0.1833,
      "velocity": 88,
      "chip": "ym2612"
    },
    {
      "channel": 2,
      "note": 30,
      "start": 241.0342,
      "duration": 0.1832,
      "velocity": 127,
      "chip": "ym2612"
    },
    {
      "channel": 0,
      "note": 52,
      "start": 241.2338,
      "duration": 0.1832,
      "velocity": 88,
      "chip": "ym2612"
    },
    {
      "channel": 2,
      "note": 30,
      "start": 241.2356,
      "duration": 0.1817,
      "velocity": 127,
      "chip": "ym2612"
    },
    {
      "channel": 0,
      "note": 52,
      "start": 241.4337,
      "duration": 0.1841,
      "velocity": 88,
      "chip": "ym2612"
    },
    {
      "channel": 2,
      "note": 42,
      "start": 241.4342,
      "duration": 0.184,
      "velocity": 127,
      "chip": "ym2612"
    },
    {
      "channel": 0,
      "note": 52,
      "start": 241.6361,
      "duration": 0.3817,
      "velocity": 88,
      "chip": "ym2612"
    },
    {
      "channel": 2,
      "note": 42,
      "start": 241.638,
      "duration": 0.1801,
      "velocity": 127,
      "chip": "ym2612"
    },
    {
      "channel": 2,
      "note": 30,
      "start": 241.8348,
      "duration": 0.1834,
      "velocity": 127,
      "chip": "ym2612"
    },
    {
      "channel": 2,
      "note": 30,
      "start": 242.0363,
      "duration": 0.182,
      "velocity": 127,
      "chip": "ym2612"
    },
    {
      "channel": 0,
      "note": 52,
      "start": 242.2348,
      "duration": 0.1832,
      "velocity": 88,
      "chip": "ym2612"
    },
    {
      "channel": 2,
      "note": 42,
      "start": 242.2367,
      "duration": 0.1817,
      "velocity": 127,
      "chip": "ym2612"
    },
    {
      "channel": 0,
      "note": 52,
      "start": 242.4347,
      "duration": 0.3831,
      "velocity": 88,
      "chip": "ym2612"
    },
    {
      "channel": 2,
      "note": 30,
      "start": 242.4351,
      "duration": 0.1831,
      "velocity": 127,
      "chip": "ym2612"
    },
    {
      "channel": 2,
      "note": 30,
      "start": 242.6349,
      "duration": 0.1833,
      "velocity": 127,
      "chip": "ym2612"
    },
    {
      "channel": 2,
      "note": 30,
      "start": 242.8363,
      "duration": 0.1819,
      "velocity": 127,
      "chip": "ym2612"
    },
    {
      "channel": 0,
      "note": 52,
      "start": 243.0346,
      "duration": 0.1834,
      "velocity": 88,
      "chip": "ym2612"
    },
    {
      "channel": 2,
      "note": 42,
      "start": 243.0349,
      "duration": 0.1834,
      "velocity": 127,
      "chip": "ym2612"
    },
    {
      "channel": 0,
      "note": 52,
      "start": 243.2348,
      "duration": 0.3832,
      "velocity": 88,
      "chip": "ym2612"
    },
    {
      "channel": 2,
      "note": 42,
      "start": 243.2367,
      "duration": 0.1817,
      "velocity": 127,
      "chip": "ym2612"
    },
    {
      "channel": 2,
      "note": 30,
      "start": 243.435,
      "duration": 0.1833,
      "velocity": 127,
      "chip": "ym2612"
    },
    {
      "channel": 2,
      "note": 30,
      "start": 243.6364,
      "duration": 0.1817,
      "velocity": 127,
      "chip": "ym2612"
    },
    {
      "channel": 0,
      "note": 52,
      "start": 243.8345,
      "duration": 0.1832,
      "velocity": 88,
      "chip": "ym2612"
    },
    {
      "channel": 2,
      "note": 42,
      "start": 243.8363,
      "duration": 0.1817,
      "velocity": 127,
      "chip": "ym2612"
    },
    {
      "channel": 2,
      "note": 30,
      "start": 244.0348,
      "duration": 0.1834,
      "velocity": 127,
      "chip": "ym2612"
    },
    {
      "channel": 0,
      "note": 52,
      "start": 244.2345,
      "duration": 0.1835,
      "velocity": 88,
      "chip": "ym2612"
    },
    {
      "channel": 2,
      "note": 30,
      "start": 244.2349,
      "duration": 0.1833,
      "velocity": 127,
      "chip": "ym2612"
    },
    {
      "channel": 0,
      "note": 52,
      "start": 244.4347,
      "duration": 0.1833,
      "velocity": 88,
      "chip": "ym2612"
    },
    {
      "channel": 2,
      "note": 30,
      "start": 244.4365,
      "duration": 0.1819,
      "velocity": 127,
      "chip": "ym2612"
    },
    {
      "channel": 0,
      "note": 52,
      "start": 244.6348,
      "duration": 0.183,
      "velocity": 88,
      "chip": "ym2612"
    },
    {
      "channel": 2,
      "note": 42,
      "start": 244.6351,
      "duration": 0.183,
      "velocity": 127,
      "chip": "ym2612"
    },
    {
      "channel": 0,
      "note": 52,
      "start": 244.8348,
      "duration": 0.3823,
      "velocity": 88,
      "chip": "ym2612"
    },
    {
      "channel": 1,
      "note": 76,
      "start": 244.8365,
      "duration": 0.9815,
      "velocity": 83,
      "chip": "ym2612"
    },
    {
      "channel": 2,
      "note": 42,
      "start": 244.8382,
      "duration": 0.1793,
      "velocity": 127,
      "chip": "ym2612"
    },
    {
      "channel": 2,
      "note": 30,
      "start": 245.0341,
      "duration": 0.1833,
      "velocity": 127,
      "chip": "ym2612"
    },
    {
      "channel": 2,
      "note": 30,
      "start": 245.2355,
      "duration": 0.1819,
      "velocity": 127,
      "chip": "ym2612"
    },
    {
      "channel": 0,
      "note": 52,
      "start": 245.4337,
      "duration": 0.1841,
      "velocity": 88,
      "chip": "ym2612"
    },
    {
      "channel": 2,
      "note": 42,
      "start": 245.4356,
      "duration": 0.1826,
      "velocity": 127,
      "chip": "ym2612"
    },
    {
      "channel": 0,
      "note": 52,
      "start": 245.6346,
      "duration": 0.3847,
      "velocity": 88,
      "chip": "ym2612"
    },
    {
      "channel": 2,
      "note": 30,
      "start": 245.6349,
      "duration": 0.1833,
      "velocity": 127,
      "chip": "ym2612"
    },
    {
      "channel": 1,
      "note": 63,
      "start": 245.8348,
      "duration": 0.1847,
      "velocity": 83,
      "chip": "ym2612"
    },
    {
      "channel": 2,
      "note": 30,
      "start": 245.835,
      "duration": 0.1846,
      "velocity": 127,
      "chip": "ym2612"
    },
    {
      "channel": 2,
      "note": 30,
      "start": 246.0376,
      "duration": 0.1821,
      "velocity": 127,
      "chip": "ym2612"
    },
    {
      "channel": 0,
      "note": 52,
      "start": 246.236,
      "duration": 0.1818,
      "velocity": 88,
      "chip": "ym2612"
    },
    {
      "channel": 1,
      "note": 62,
      "start": 246.2362,
      "duration": 0.1818,
      "velocity": 83,
      "chip": "ym2612"
    },
    {
      "channel": 2,
      "note": 42,
      "start": 246.2365,
      "duration": 0.1817,
      "velocity": 127,
      "chip": "ym2612"
    },
    {
      "channel": 0,
      "note": 52,
      "start": 246.4348,
      "duration": 0.3831,
      "velocity": 88,
      "chip": "ym2612"
    },
    {
      "channel": 2,
      "note": 42,
      "start": 246.4365,
      "duration": 0.1816,
      "velocity": 127,
      "chip": "ym2612"
    },
    {
      "channel": 1,
      "note": 59,
      "start": 246.6346,
      "duration": 0.1835,
      "velocity": 83,
      "chip": "ym2612"
    },
    {
      "channel": 2,
      "note": 30,
      "start": 246.6349,
      "duration": 0.1834,
      "velocity": 127,
      "chip": "ym2612"
    },
    {
      "channel": 2,
      "note": 30,
      "start": 246.8362,
      "duration": 0.1834,
      "velocity": 127,
      "chip": "ym2612"
    },
    {
      "channel": 0,
      "note": 52,
      "start": 247.036,
      "duration": 0.1832,
      "velocity": 88,
      "chip": "ym2612"
    },
    {
      "channel": 1,
      "note": 57,
      "start": 247.0362,
      "duration": 0.3832,
      "velocity": 83,
      "chip": "ym2612"
    },
    {
      "channel": 2,
      "note": 42,
      "start": 247.0379,
      "duration": 0.1816,
      "velocity": 127,
      "chip": "ym2612"
    },
    {
      "channel": 2,
      "note": 30,
      "start": 247.2361,
      "duration": 0.1834,
      "velocity": 127,
      "chip": "ym2612"
    },
    {
      "channel": 0,
      "note": 52,
      "start": 247.4359,
      "duration": 0.1819,
      "velocity": 88,
      "chip": "ym2612"
    },
    {
      "channel": 1,
      "note": 55,
      "start": 247.4361,
      "duration": 0.5832,
      "velocity": 83,
      "chip": "ym2612"
    },
    {
      "channel": 2,
      "note": 30,
      "start": 247.4364,
      "duration": 0.1817,
      "velocity": 127,
      "chip": "ym2612"
    },
    {
      "channel": 0,
      "note": 52,
      "start": 247.6346,
      "duration": 0.1832,
      "velocity": 88,
      "chip": "ym2612"
    },
    {
      "channel": 2,
      "note": 30,
      "start": 247.6364,
      "duration": 0.1817,
      "velocity": 127,
      "chip": "ym2612"
    },
    {
      "channel": 0,
      "note": 52,
      "start": 247.8345,
      "duration": 0.1847,
      "velocity": 88,
      "chip": "ym2612"
    },
    {
      "channel": 2,
      "note": 42,
      "start": 247.8349,
      "duration": 0.1847,
      "velocity": 127,
      "chip": "ym2612"
    },
    {
      "channel": 0,
      "note": 52,
      "start": 248.0362,
      "duration": 0.3829,
      "velocity": 88,
      "chip": "ym2612"
    },
    {
      "channel": 1,
      "note": 52,
      "start": 248.0379,
      "duration": 3.18,
      "velocity": 83,
      "chip": "ym2612"
    },
    {
      "channel": 2,
      "note": 42,
      "start": 248.0396,
      "duration": 0.1799,
      "velocity": 127,
      "chip": "ym2612"
    },
    {
      "channel": 2,
      "note": 30,
      "start": 248.2361,
      "duration": 0.1834,
      "velocity": 127,
      "chip": "ym2612"
    },
    {
      "channel": 2,
      "note": 30,
      "start": 248.4376,
      "duration": 0.1805,
      "velocity": 127,
      "chip": "ym2612"
    },
    {
      "channel": 0,
      "note": 48,
      "start": 248.6346,
      "duration": 0.1832,
      "velocity": 88,
      "chip": "ym2612"
    },
    {
      "channel": 2,
      "note": 42,
      "start": 248.6365,
      "duration": 0.1817,
      "velocity": 127,
      "chip": "ym2612"
    },
    {
      "channel": 0,
      "note": 48,
      "start": 248.8346,
      "duration": 0.3824,
      "velocity": 88,
      "chip": "ym2612"
    },
    {
      "channel": 2,
      "note": 30,
      "start": 248.835,
      "duration": 0.1823,
      "velocity": 127,
      "chip": "ym2612"
    },
    {
      "channel": 2,
      "note": 30,
      "start": 249.0341,
      "duration": 0.1833,
      "velocity": 127,
      "chip": "ym2612"
    },
    {
      "channel": 2,
      "note": 30,
      "start": 249.2356,
      "duration": 0.1819,
      "velocity": 127,
      "chip": "ym2612"
    },
    {
      "channel": 0,
      "note": 48,
      "start": 249.4339,
      "duration": 0.184,
      "velocity": 88,
      "chip": "ym2612"
    },
    {
      "channel": 2,
      "note": 42,
      "start": 249.4342,
      "duration": 0.184,
      "velocity": 127,
      "chip": "ym2612"
    },
    {
      "channel": 0,
      "note": 48,
      "start": 249.6347,
      "duration": 0.3831,
      "velocity": 88,
      "chip": "ym2612"
    },
    {
      "channel": 2,
      "note": 42,
      "start": 249.6365,
      "duration": 0.1817,
      "velocity": 127,
      "chip": "ym2612"
    },
    {
      "channel": 2,
      "note": 30,
      "start": 249.8349,
      "duration": 0.1833,
      "velocity": 127,
      "chip": "ym2612"
    },
    {
      "channel": 2,
      "note": 30,
      "start": 250.0363,
      "duration": 0.1818,
      "velocity": 127,
      "chip": "ym2612"
    },
    {
      "channel": 2,
      "note": 42,
      "start": 250.2363,
      "duration": 0.1819,
      "velocity": 127,
      "chip": "ym2612"
    },
    {
      "channel": 0,
      "note": 48,
      "start": 250.4346,
      "duration": 0.3833,
      "velocity": 88,
      "chip": "ym2612"
    },
    {
      "channel": 2,
      "note": 30,
      "start": 250.435,
      "duration": 0.183,
      "velocity": 127,
      "chip": "ym2612"
    },
    {
      "channel": 2,
      "note": 30,
      "start": 250.6349,
      "duration": 0.1833,
      "velocity": 127,
      "chip": "ym2612"
    },
    {
      "channel": 0,
      "note": 48,
      "start": 250.8346,
      "duration": 0.3832,
      "velocity": 88,
      "chip": "ym2612"
    },
    {
      "channel": 2,
      "note": 30,
      "start": 250.8364,
      "duration": 0.1817,
      "velocity": 127,
      "chip": "ym2612"
    },
    {
      "channel": 2,
      "note": 42,
      "start": 251.0349,
      "duration": 0.1833,
      "velocity": 127,
      "chip": "ym2612"
    },
    {
      "channel": 0,
      "note": 48,
      "start": 251.2348,
      "duration": 0.383,
      "velocity": 88,
      "chip": "ym2612"
    },
    {
      "channel": 1,
      "note": 72,
      "start": 251.2365,
      "duration": 0.9815,
      "velocity": 83,
      "chip": "ym2612"
    },
    {
      "channel": 2,
      "note": 42,
      "start": 251.2383,
      "duration": 0.1799,
      "velocity": 127,
      "chip": "ym2612"
    },
    {
      "channel": 2,
      "note": 30,
      "start": 251.4348,
      "duration": 0.1834,
      "velocity": 127,
      "chip": "ym2612"
    },
    {
      "channel": 2,
      "note": 30,
      "start": 251.6363,
      "duration": 0.1819,
      "velocity": 127,
      "chip": "ym2612"
    },
    {
      "channel": 0,
      "note": 52,
      "start": 251.8346,
      "duration": 0.1832,
      "velocity": 88,
      "chip": "ym2612"
    },
    {
      "channel": 2,
      "note": 42,
      "start": 251.8365,
      "duration": 0.1817,
      "velocity": 127,
      "chip": "ym2612"
    },
    {
      "channel": 0,
      "note": 52,
      "start": 252.0346,
      "duration": 0.1832,
      "velocity": 88,
      "chip": "ym2612"
    },
    {
      "channel": 2,
      "note": 30,
      "start": 252.0349,
      "duration": 0.1833,
      "velocity": 127,
      "chip": "ym2612"
    },
    {
      "channel": 0,
      "note": 52,
      "start": 252.2346,
      "duration": 0.1833,
      "velocity": 88,
      "chip": "ym2612"
    },
    {
      "channel": 1,
      "note": 63,
      "start": 252.2348,
      "duration": 0.1832,
      "velocity": 83,
      "chip": "ym2612"
    },
    {
      "channel": 2,
      "note": 30,
      "start": 252.2351,
      "duration": 0.1832,
      "velocity": 127,
      "chip": "ym2612"
    },
    {
      "channel": 2,
      "note": 30,
      "start": 252.4361,
      "duration": 0.182,
      "velocity": 127,
      "chip": "ym2612"
    },
    {
      "channel": 1,
      "note": 62,
      "start": 252.6346,
      "duration": 0.1833,
      "velocity": 83,
      "chip": "ym2612"
    },
    {
      "channel": 2,
      "note": 42,
      "start": 252.6349,
      "duration": 0.1833,
      "velocity": 127,
      "chip": "ym2612"
    },
    {
      "channel": 0,
      "note": 50,
      "start": 252.8347,
      "duration": 0.3823,
      "velocity": 88,
      "chip": "ym2612"
    },
    {
      "channel": 2,
      "note": 42,
      "start": 252.8365,
      "duration": 0.3809,
      "velocity": 127,
      "chip": "ym2612"
    },
    {
      "channel": 1,
      "note": 59,
      "start": 253.0339,
      "duration": 0.1834,
      "velocity": 83,
      "chip": "ym2612"
    },
    {
      "channel": 2,
      "note": 30,
      "start": 253.2355,
      "duration": 0.182,
      "velocity": 127,
      "chip": "ym2612"
    },
    {
      "channel": 0,
      "note": 52,
      "start": 253.4339,
      "duration": 0.184,
      "velocity": 88,
      "chip": "ym2612"
    },
    {
      "channel": 1,
      "note": 57,
      "start": 253.4342,
      "duration": 0.3838,
      "velocity": 83,
      "chip": "ym2612"
    },
    {
      "channel": 2,
      "note": 42,
      "start": 253.4358,
      "duration": 0.1824,
      "velocity": 127,
      "chip": "ym2612"
    },
    {
      "channel": 0,
      "note": 52,
      "start": 253.6346,
      "duration": 0.1831,
      "velocity": 88,
      "chip": "ym2612"
    },
    {
      "channel": 2,
      "note": 30,
      "start": 253.635,
      "duration": 0.1831,
      "velocity": 127,
      "chip": "ym2612"
    },
    {
      "channel": 0,
      "note": 52,
      "start": 253.8346,
      "duration": 0.1832,
      "velocity": 88,
      "chip": "ym2612"
    },
    {
      "channel": 1,
      "note": 55,
      "start": 253.8348,
      "duration": 0.5833,
      "velocity": 83,
      "chip": "ym2612"
    },
    {
      "channel": 2,
      "note": 30,
      "start": 253.8351,
      "duration": 0.1831,
      "velocity": 127,
      "chip": "ym2612"
    },
    {
      "channel": 2,
      "note": 30,
      "start": 254.0363,
      "duration": 0.1818,
      "velocity": 127,
      "chip": "ym2612"
    },
    {
      "channel": 2,
      "note": 42,
      "start": 254.2364,
      "duration": 0.1819,
      "velocity": 127,
      "chip": "ym2612"
    },
    {
      "channel": 0,
      "note": 50,
      "start": 254.4348,
      "duration": 0.3831,
      "velocity": 88,
      "chip": "ym2612"
    },
    {
      "channel": 1,
      "note": 52,
      "start": 254.4365,
      "duration": 3.182,
      "velocity": 70,
      "chip": "ym2612"
    },
    {
      "channel": 2,
      "note": 30,
      "start": 254.4382,
      "duration": 0.1799,
      "velocity": 127,
      "chip": "ym2612"
    },
    {
      "channel": 2,
      "note": 30,
      "start": 254.6349,
      "duration": 0.1834,
      "velocity": 127,
      "chip": "ym2612"
    },
    {
      "channel": 2,
      "note": 30,
      "start": 254.8363,
      "duration": 0.1819,
      "velocity": 127,
      "chip": "ym2612"
    },
    {
      "channel": 0,
      "note": 48,
      "start": 255.0346,
      "duration": 0.1832,
      "velocity": 88,
      "chip": "ym2612"
    },
    {
      "channel": 2,
      "note": 42,
      "start": 255.0365,
      "duration": 0.1817,
      "velocity": 127,
      "chip": "ym2612"
    },
    {
      "channel": 0,
      "note": 48,
      "start": 255.2346,
      "duration": 0.3833,
      "velocity": 88,
      "chip": "ym2612"
    },
    {
      "channel": 2,
      "note": 30,
      "start": 255.2349,
      "duration": 0.1832,
      "velocity": 127,
      "chip": "ym2612"
    },
    {
      "channel": 2,
      "note": 30,
      "start": 255.4348,
      "duration": 0.1834,
      "velocity": 127,
      "chip": "ym2612"
    },
    {
      "channel": 2,
      "note": 30,
      "start": 255.6363,
      "duration": 0.1819,
      "velocity": 127,
      "chip": "ym2612"
    },
    {
      "channel": 0,
      "note": 48,
      "start": 255.8346,
      "duration": 0.1832,
      "velocity": 88,
      "chip": "ym2612"
    },
    {
      "channel": 2,
      "note": 42,
      "start": 255.835,
      "duration": 0.1831,
      "velocity": 127,
      "chip": "ym2612"
    },
    {
      "channel": 0,
      "note": 48,
      "start": 256.0346,
      "duration": 0.3832,
      "velocity": 88,
      "chip": "ym2612"
    },
    {
      "channel": 2,
      "note": 42,
      "start": 256.0365,
      "duration": 0.1816,
      "velocity": 127,
      "chip": "ym2612"
    },
    {
      "channel": 2,
      "note": 30,
      "start": 256.2349,
      "duration": 0.1832,
      "velocity": 127,
      "chip": "ym2612"
    },
    {
      "channel": 2,
      "note": 30,
      "start": 256.4361,
      "duration": 0.182,
      "velocity": 127,
      "chip": "ym2612"
    },
    {
      "channel": 2,
      "note": 42,
      "start": 256.6364,
      "duration": 0.1819,
      "velocity": 127,
      "chip": "ym2612"
    },
    {
      "channel": 0,
      "note": 48,
      "start": 256.8346,
      "duration": 0.3824,
      "velocity": 88,
      "chip": "ym2612"
    },
    {
      "channel": 2,
      "note": 30,
      "start": 256.8351,
      "duration": 0.1823,
      "velocity": 127,
      "chip": "ym2612"
    },
    {
      "channel": 2,
      "note": 30,
      "start": 257.0341,
      "duration": 0.1834,
      "velocity": 127,
      "chip": "ym2612"
    },
    {
      "channel": 0,
      "note": 48,
      "start": 257.2338,
      "duration": 0.3845,
      "velocity": 88,
      "chip": "ym2612"
    },
    {
      "channel": 2,
      "note": 30,
      "start": 257.2356,
      "duration": 0.1817,
      "velocity": 127,
      "chip": "ym2612"
    },
    {
      "channel": 2,
      "note": 42,
      "start": 257.434,
      "duration": 0.1847,
      "velocity": 127,
      "chip": "ym2612"
    },
    {
      "channel": 0,
      "note": 48,
      "start": 257.6352,
      "duration": 0.3829,
      "velocity": 88,
      "chip": "ym2612"
    },
    {
      "channel": 1,
      "note": 56,
      "start": 257.6369,
      "duration": 0.9815,
      "velocity": 83,
      "chip": "ym2612"
    },
    {
      "channel": 2,
      "note": 42,
      "start": 257.6386,
      "duration": 0.1799,
      "velocity": 127,
      "chip": "ym2612"
    },
    {
      "channel": 2,
      "note": 30,
      "start": 257.8353,
      "duration": 0.1832,
      "velocity": 127,
      "chip": "ym2612"
    },
    {
      "channel": 2,
      "note": 30,
      "start": 258.0367,
      "duration": 0.1833,
      "velocity": 127,
      "chip": "ym2612"
    },
    {
      "channel": 0,
      "note": 52,
      "start": 258.2363,
      "duration": 0.1832,
      "velocity": 88,
      "chip": "ym2612"
    },
    {
      "channel": 2,
      "note": 42,
      "start": 258.2382,
      "duration": 0.1817,
      "velocity": 127,
      "chip": "ym2612"
    },
    {
      "channel": 0,
      "note": 52,
      "start": 258.4365,
      "duration": 0.3818,
      "velocity": 88,
      "chip": "ym2612"
    },
    {
      "channel": 2,
      "note": 30,
      "start": 258.4368,
      "duration": 0.1817,
      "velocity": 127,
      "chip": "ym2612"
    },
    {
      "channel": 1,
      "note": 63,
      "start": 258.6351,
      "duration": 0.1833,
      "velocity": 83,
      "chip": "ym2612"
    },
    {
      "channel": 2,
      "note": 30,
      "start": 258.6354,
      "duration": 0.1833,
      "velocity": 127,
      "chip": "ym2612"
    },
    {
      "channel": 2,
      "note": 30,
      "start": 258.8366,
      "duration": 0.1821,
      "velocity": 127,
      "chip": "ym2612"
    },
    {
      "channel": 0,
      "note": 52,
      "start": 259.035,
      "duration": 0.1846,
      "velocity": 88,
      "chip": "ym2612"
    },
    {
      "channel": 1,
      "note": 62,
      "start": 259.0353,
      "duration": 0.1845,
      "velocity": 83,
      "chip": "ym2612"
    },
    {
      "channel": 2,
      "note": 42,
      "start": 259.0355,
      "duration": 0.1845,
      "velocity": 127,
      "chip": "ym2612"
    },
    {
      "channel": 0,
      "note": 52,
      "start": 259.2365,
      "duration": 0.3832,
      "velocity": 88,
      "chip": "ym2612"
    },
    {
      "channel": 2,
      "note": 42,
      "start": 259.2383,
      "duration": 0.1817,
      "velocity": 127,
      "chip": "ym2612"
    },
    {
      "channel": 1,
      "note": 59,
      "start": 259.4364,
      "duration": 0.1835,
      "velocity": 83,
      "chip": "ym2612"
    },
    {
      "channel": 2,
      "note": 30,
      "start": 259.4367,
      "duration": 0.1834,
      "velocity": 127,
      "chip": "ym2612"
    },
    {
      "channel": 2,
      "note": 30,
      "start": 259.638,
      "duration": 0.1807,
      "velocity": 127,
      "chip": "ym2612"
    },
    {
      "channel": 0,
      "note": 52,
      "start": 259.8351,
      "duration": 0.1831,
      "velocity": 88,
      "chip": "ym2612"
    },
    {
      "channel": 1,
      "note": 57,
      "start": 259.8353,
      "duration": 0.3845,
      "velocity": 83,
      "chip": "ym2612"
    },
    {
      "channel": 2,
      "note": 42,
      "start": 259.8371,
      "duration": 0.1815,
      "velocity": 127,
      "chip": "ym2612"
    },
    {
      "channel": 2,
      "note": 30,
      "start": 260.0353,
      "duration": 0.1848,
      "velocity": 127,
      "chip": "ym2612"
    },
    {
      "channel": 0,
      "note": 52,
      "start": 260.2364,
      "duration": 0.1832,
      "velocity": 88,
      "chip": "ym2612"
    },
    {
      "channel": 1,
      "note": 55,
      "start": 260.2367,
      "duration": 0.5818,
      "velocity": 83,
      "chip": "ym2612"
    },
    {
      "channel": 2,
      "note": 30,
      "start": 260.2369,
      "duration": 0.1831,
      "velocity": 127,
      "chip": "ym2612"
    },
    {
      "channel": 0,
      "note": 52,
      "start": 260.4363,
      "duration": 0.1833,
      "velocity": 88,
      "chip": "ym2612"
    },
    {
      "channel": 2,
      "note": 30,
      "start": 260.4382,
      "duration": 0.1817,
      "velocity": 127,
      "chip": "ym2612"
    },
    {
      "channel": 0,
      "note": 52,
      "start": 260.6363,
      "duration": 0.1819,
      "velocity": 88,
      "chip": "ym2612"
    },
    {
      "channel": 2,
      "note": 42,
      "start": 260.6367,
      "duration": 0.1819,
      "velocity": 127,
      "chip": "ym2612"
    },
    {
      "channel": 0,
      "note": 50,
      "start": 260.8352,
      "duration": 0.3819,
      "velocity": 88,
      "chip": "ym2612"
    },
    {
      "channel": 1,
      "note": 52,
      "start": 260.8368,
      "duration": 6.3812,
      "velocity": 83,
      "chip": "ym2612"
    },
    {
      "channel": 2,
      "note": 42,
      "start": 260.8386,
      "duration": 0.18,
      "velocity": 127,
      "chip": "ym2612"
    },
    {
      "channel": 2,
      "note": 30,
      "start": 261.0341,
      "duration": 0.1834,
      "velocity": 127,
      "chip": "ym2612"
    },
    {
      "channel": 2,
      "note": 30,
      "start": 261.2355,
      "duration": 0.182,
      "velocity": 127,
      "chip": "ym2612"
    },
    {
      "channel": 0,
      "note": 48,
      "start": 261.4339,
      "duration": 0.1839,
      "velocity": 88,
      "chip": "ym2612"
    },
    {
      "channel": 2,
      "note": 42,
      "start": 261.4357,
      "duration": 0.1824,
      "velocity": 127,
      "chip": "ym2612"
    },
    {
      "channel": 0,
      "note": 48,
      "start": 261.6346,
      "duration": 0.3834,
      "velocity": 88,
      "chip": "ym2612"
    },
    {
      "channel": 2,
      "note": 30,
      "start": 261.635,
      "duration": 0.1832,
      "velocity": 127,
      "chip": "ym2612"
    },
    {
      "channel": 2,
      "note": 30,
      "start": 261.835,
      "duration": 0.1834,
      "velocity": 127,
      "chip": "ym2612"
    },
    {
      "channel": 0,
      "note": 48,
      "start": 262.0348,
      "duration": 0.383,
      "velocity": 88,
      "chip": "ym2612"
    },
    {
      "channel": 2,
      "note": 30,
      "start": 262.0366,
      "duration": 0.1816,
      "velocity": 127,
      "chip": "ym2612"
    },
    {
      "channel": 2,
      "note": 42,
      "start": 262.2351,
      "duration": 0.1831,
      "velocity": 127,
      "chip": "ym2612"
    },
    {
      "channel": 0,
      "note": 48,
      "start": 262.4346,
      "duration": 0.3832,
      "velocity": 88,
      "chip": "ym2612"
    },
    {
      "channel": 2,
      "note": 42,
      "start": 262.4365,
      "duration": 0.1817,
      "velocity": 127,
      "chip": "ym2612"
    },
    {
      "channel": 2,
      "note": 30,
      "start": 262.6348,
      "duration": 0.1834,
      "velocity": 127,
      "chip": "ym2612"
    },
    {
      "channel": 2,
      "note": 30,
      "start": 262.8363,
      "duration": 0.1821,
      "velocity": 127,
      "chip": "ym2612"
    },
    {
      "channel": 0,
      "note": 46,
      "start": 263.0348,
      "duration": 0.1832,
      "velocity": 88,
      "chip": "ym2612"
    },
    {
      "channel": 2,
      "note": 42,
      "start": 263.0366,
      "duration": 0.1817,
      "velocity": 127,
      "chip": "ym2612"
    },
    {
      "channel": 0,
      "note": 46,
      "start": 263.2347,
      "duration": 0.3831,
      "velocity": 88,
      "chip": "ym2612"
    },
    {
      "channel": 2,
      "note": 30,
      "start": 263.2351,
      "duration": 0.183,
      "velocity": 127,
      "chip": "ym2612"
    },
    {
      "channel": 2,
      "note": 30,
      "start": 263.4348,
      "duration": 0.1834,
      "velocity": 127,
      "chip": "ym2612"
    },
    {
      "channel": 0,
      "note": 53,
      "start": 263.6346,
      "duration": 0.3835,
      "velocity": 88,
      "chip": "ym2612"
    },
    {
      "channel": 2,
      "note": 30,
      "start": 263.6364,
      "duration": 0.1817,
      "velocity": 127,
      "chip": "ym2612"
    },
    {
      "channel": 2,
      "note": 42,
      "start": 263.8349,
      "duration": 0.1835,
      "velocity": 127,
      "chip": "ym2612"
    },
    {
      "channel": 0,
      "note": 53,
      "start": 264.0348,
      "duration": 0.3832,
      "velocity": 88,
      "chip": "ym2612"
    },
    {
      "channel": 2,
      "note": 42,
      "start": 264.0366,
      "duration": 0.1817,
      "velocity": 127,
      "chip": "ym2612"
    },
    {
      "channel": 2,
      "note": 30,
      "start": 264.2349,
      "duration": 0.1833,
      "velocity": 127,
      "chip": "ym2612"
    },
    {
      "channel": 2,
      "note": 30,
      "start": 264.4365,
      "duration": 0.1816,
      "velocity": 127,
      "chip": "ym2612"
    },
    {
      "channel": 0,
      "note": 52,
      "start": 264.6346,
      "duration": 0.1832,
      "velocity": 88,
      "chip": "ym2612"
    },
    {
      "channel": 2,
      "note": 42,
      "start": 264.6365,
      "duration": 0.1817,
      "velocity": 127,
      "chip": "ym2612"
    },
    {
      "channel": 0,
      "note": 52,
      "start": 264.8346,
      "duration": 0.3824,
      "velocity": 88,
      "chip": "ym2612"
    },
    {
      "channel": 2,
      "note": 30,
      "start": 264.835,
      "duration": 0.1833,
      "velocity": 127,
      "chip": "ym2612"
    },
    {
      "channel": 2,
      "note": 30,
      "start": 265.035,
      "duration": 0.1824,
      "velocity": 127,
      "chip": "ym2612"
    },
    {
      "channel": 2,
      "note": 30,
      "start": 265.2355,
      "duration": 0.1819,
      "velocity": 127,
      "chip": "ym2612"
    },
    {
      "channel": 0,
      "note": 52,
      "start": 265.4337,
      "duration": 0.1854,
      "velocity": 88,
      "chip": "ym2612"
    },
    {
      "channel": 2,
      "note": 42,
      "start": 265.4341,
      "duration": 0.1854,
      "velocity": 127,
      "chip": "ym2612"
    },
    {
      "channel": 0,
      "note": 52,
      "start": 265.6361,
      "duration": 0.3831,
      "velocity": 88,
      "chip": "ym2612"
    },
    {
      "channel": 2,
      "note": 42,
      "start": 265.6379,
      "duration": 0.1815,
      "velocity": 127,
      "chip": "ym2612"
    },
    {
      "channel": 2,
      "note": 30,
      "start": 265.8363,
      "duration": 0.1833,
      "velocity": 127,
      "chip": "ym2612"
    },
    {
      "channel": 2,
      "note": 30,
      "start": 266.0363,
      "duration": 0.0817,
      "velocity": 127,
      "chip": "ym2612"
    },
    {
      "channel": 2,
      "note": 42,
      "start": 266.1349,
      "duration": 0.0833,
      "velocity": 127,
      "chip": "ym2612"
    },
    {
      "channel": 0,
      "note": 52,
      "start": 266.2346,
      "duration": 0.1832,
      "velocity": 88,
      "chip": "ym2612"
    },
    {
      "channel": 2,
      "note": 42,
      "start": 266.2365,
      "duration": 0.1816,
      "velocity": 127,
      "chip": "ym2612"
    },
    {
      "channel": 2,
      "note": 30,
      "start": 266.4348,
      "duration": 0.1847,
      "velocity": 127,
      "chip": "ym2612"
    },
    {
      "channel": 0,
      "note": 52,
      "start": 266.6358,
      "duration": 0.1834,
      "velocity": 88,
      "chip": "ym2612"
    },
    {
      "channel": 2,
      "note": 30,
      "start": 266.6363,
      "duration": 0.1833,
      "velocity": 127,
      "chip": "ym2612"
    },
    {
      "channel": 0,
      "note": 52,
      "start": 266.836,
      "duration": 0.1832,
      "velocity": 88,
      "chip": "ym2612"
    },
    {
      "channel": 2,
      "note": 30,
      "start": 266.8378,
      "duration": 0.0816,
      "velocity": 127,
      "chip": "ym2612"
    },
    {
      "channel": 2,
      "note": 42,
      "start": 266.9363,
      "duration": 0.0833,
      "velocity": 127,
      "chip": "ym2612"
    },
    {
      "channel": 0,
      "note": 50,
      "start": 267.0359,
      "duration": 0.1819,
      "velocity": 88,
      "chip": "ym2612"
    },
    {
      "channel": 2,
      "note": 42,
      "start": 267.0363,
      "duration": 0.0817,
      "velocity": 127,
      "chip": "ym2612"
    },
    {
      "channel": 2,
      "note": 42,
      "start": 267.1349,
      "duration": 0.0833,
      "velocity": 127,
      "chip": "ym2612"
    },
    {
      "channel": 0,
      "note": 52,
      "start": 267.2364,
      "duration": 0.3814,
      "velocity": 88,
      "chip": "ym2612"
    },
    {
      "channel": 1,
      "note": 40,
      "start": 267.2381,
      "duration": 6.38,
      "velocity": 70,
      "chip": "ym2612"
    },
    {
      "channel": 2,
      "note": 42,
      "start": 267.2398,
      "duration": 0.1783,
      "velocity": 127,
      "chip": "ym2612"
    },
    {
      "channel": 2,
      "note": 30,
      "start": 267.4348,
      "duration": 0.1834,
      "velocity": 127,
      "chip": "ym2612"
    },
    {
      "channel": 2,
      "note": 30,
      "start": 267.6376,
      "duration": 0.182,
      "velocity": 127,
      "chip": "ym2612"
    },
    {
      "channel": 0,
      "note": 52,
      "start": 267.836,
      "duration": 0.1831,
      "velocity": 88,
      "chip": "ym2612"
    },
    {
      "channel": 2,
      "note": 42,
      "start": 267.8379,
      "duration": 0.1817,
      "velocity": 127,
      "chip": "ym2612"
    },
    {
      "channel": 0,
      "note": 52,
      "start": 268.0359,
      "duration": 0.3819,
      "velocity": 88,
      "chip": "ym2612"
    },
    {
      "channel": 2,
      "note": 30,
      "start": 268.0363,
      "duration": 0.1817,
      "velocity": 127,
      "chip": "ym2612"
    },
    {
      "channel": 2,
      "note": 30,
      "start": 268.2348,
      "duration": 0.1834,
      "velocity": 127,
      "chip": "ym2612"
    },
    {
      "channel": 2,
      "note": 30,
      "start": 268.4362,
      "duration": 0.182,
      "velocity": 127,
      "chip": "ym2612"
    },
    {
      "channel": 0,
      "note": 52,
      "start": 268.6346,
      "duration": 0.1846,
      "velocity": 88,
      "chip": "ym2612"
    },
    {
      "channel": 2,
      "note": 42,
      "start": 268.635,
      "duration": 0.1846,
      "velocity": 127,
      "chip": "ym2612"
    },
    {
      "channel": 0,
      "note": 52,
      "start": 268.8361,
      "duration": 0.381,
      "velocity": 88,
      "chip": "ym2612"
    },
    {
      "channel": 2,
      "note": 42,
      "start": 268.8379,
      "duration": 0.1815,
      "velocity": 127,
      "chip": "ym2612"
    },
    {
      "channel": 2,
      "note": 30,
      "start": 269.0363,
      "duration": 0.1812,
      "velocity": 127,
      "chip": "ym2612"
    },
    {
      "channel": 2,
      "note": 30,
      "start": 269.2355,
      "duration": 0.182,
      "velocity": 127,
      "chip": "ym2612"
    },
    {
      "channel": 0,
      "note": 52,
      "start": 269.4339,
      "duration": 0.184,
      "velocity": 88,
      "chip": "ym2612"
    },
    {
      "channel": 2,
      "note": 42,
      "start": 269.4357,
      "duration": 0.1826,
      "velocity": 127,
      "chip": "ym2612"
    },
    {
      "channel": 2,
      "note": 30,
      "start": 269.6348,
      "duration": 0.1834,
      "velocity": 127,
      "chip": "ym2612"
    },
    {
      "channel": 0,
      "note": 52,
      "start": 269.8345,
      "duration": 0.1833,
      "velocity": 88,
      "chip": "ym2612"
    },
    {
      "channel": 2,
      "note": 30,
      "start": 269.8349,
      "duration": 0.1833,
      "velocity": 127,
      "chip": "ym2612"
    },
    {
      "channel": 0,
      "note": 52,
      "start": 270.0345,
      "duration": 0.1832,
      "velocity": 88,
      "chip": "ym2612"
    },
    {
      "channel": 2,
      "note": 30,
      "start": 270.0363,
      "duration": 0.1817,
      "velocity": 127,
      "chip": "ym2612"
    },
    {
      "channel": 0,
      "note": 52,
      "start": 270.2345,
      "duration": 0.1833,
      "velocity": 88,
      "chip": "ym2612"
    },
    {
      "channel": 2,
      "note": 42,
      "start": 270.2349,
      "duration": 0.1833,
      "velocity": 127,
      "chip": "ym2612"
    },
    {
      "channel": 0,
      "note": 52,
      "start": 270.4361,
      "duration": 0.3816,
      "velocity": 88,
      "chip": "ym2612"
    },
    {
      "channel": 2,
      "note": 42,
      "start": 270.438,
      "duration": 0.1802,
      "velocity": 127,
      "chip": "ym2612"
    },
    {
      "channel": 2,
      "note": 30,
      "start": 270.6349,
      "duration": 0.1832,
      "velocity": 127,
      "chip": "ym2612"
    },
    {
      "channel": 2,
      "note": 30,
      "start": 270.8363,
      "duration": 0.1819,
      "velocity": 127,
      "chip": "ym2612"
    },
    {
      "channel": 0,
      "note": 52,
      "start": 271.0346,
      "duration": 0.1832,
      "velocity": 88,
      "chip": "ym2612"
    },
    {
      "channel": 2,
      "note": 42,
      "start": 271.0364,
      "duration": 0.1817,
      "velocity": 127,
      "chip": "ym2612"
    },
    {
      "channel": 0,
      "note": 52,
      "start": 271.2346,
      "duration": 0.3833,
      "velocity": 88,
      "chip": "ym2612"
    },
    {
      "channel": 2,
      "note": 30,
      "start": 271.2351,
      "duration": 0.183,
      "velocity": 127,
      "chip": "ym2612"
    },
    {
      "channel": 2,
      "note": 30,
      "start": 271.4349,
      "duration": 0.1833,
      "velocity": 127,
      "chip": "ym2612"
    },
    {
      "channel": 2,
      "note": 30,
      "start": 271.6363,
      "duration": 0.1819,
      "velocity": 127,
      "chip": "ym2612"
    },
    {
      "channel": 0,
      "note": 52,
      "start": 271.8345,
      "duration": 0.1833,
      "velocity": 88,
      "chip": "ym2612"
    },
    {
      "channel": 2,
      "note": 42,
      "start": 271.8349,
      "duration": 0.1832,
      "velocity": 127,
      "chip": "ym2612"
    },
    {
      "channel": 0,
      "note": 52,
      "start": 272.0346,
      "duration": 0.3832,
      "velocity": 88,
      "chip": "ym2612"
    },
    {
      "channel": 2,
      "note": 42,
      "start": 272.0365,
      "duration": 0.1815,
      "velocity": 127,
      "chip": "ym2612"
    },
    {
      "channel": 2,
      "note": 30,
      "start": 272.2349,
      "duration": 0.1833,
      "velocity": 127,
      "chip": "ym2612"
    },
    {
      "channel": 2,
      "note": 30,
      "start": 272.4363,
      "duration": 0.1819,
      "velocity": 127,
      "chip": "ym2612"
    },
    {
      "channel": 0,
      "note": 52,
      "start": 272.6346,
      "duration": 0.1832,
      "velocity": 88,
      "chip": "ym2612"
    },
    {
      "channel": 2,
      "note": 42,
      "start": 272.6365,
      "duration": 0.1817,
      "velocity": 127,
      "chip": "ym2612"
    },
    {
      "channel": 2,
      "note": 30,
      "start": 272.8348,
      "duration": 0.1833,
      "velocity": 127,
      "chip": "ym2612"
    },
    {
      "channel": 0,
      "note": 52,
      "start": 273.0345,
      "duration": 0.1826,
      "velocity": 88,
      "chip": "ym2612"
    },
    {
      "channel": 2,
      "note": 30,
      "start": 273.0349,
      "duration": 0.1825,
      "velocity": 127,
      "chip": "ym2612"
    },
    {
      "channel": 0,
      "note": 52,
      "start": 273.2338,
      "duration": 0.1833,
      "velocity": 88,
      "chip": "ym2612"
    },
    {
      "channel": 2,
      "note": 30,
      "start": 273.2356,
      "duration": 0.1817,
      "velocity": 127,
      "chip": "ym2612"
    },
    {
      "channel": 0,
      "note": 52,
      "start": 273.4338,
      "duration": 0.184,
      "velocity": 88,
      "chip": "ym2612"
    },
    {
      "channel": 2,
      "note": 42,
      "start": 273.4342,
      "duration": 0.1841,
      "velocity": 127,
      "chip": "ym2612"
    },
    {
      "channel": 0,
      "note": 52,
      "start": 273.6363,
      "duration": 0.3815,
      "velocity": 88,
      "chip": "ym2612"
    },
    {
      "channel": 1,
      "note": 76,
      "start": 273.6381,
      "duration": 0.9799,
      "velocity": 83,
      "chip": "ym2612"
    },
    {
      "channel": 2,
      "note": 42,
      "start": 273.6398,
      "duration": 0.1784,
      "velocity": 127,
      "chip": "ym2612"
    },
    {
      "channel": 2,
      "note": 30,
      "start": 273.8348,
      "duration": 0.1834,
      "velocity": 127,
      "chip": "ym2612"
    },
    {
      "channel": 2,
      "note": 30,
      "start": 274.0363,
      "duration": 0.182,
      "velocity": 127,
      "chip": "ym2612"
    },
    {
      "channel": 0,
      "note": 52,
      "start": 274.2346,
      "duration": 0.1832,
      "velocity": 88,
      "chip": "ym2612"
    },
    {
      "channel": 2,
      "note": 42,
      "start": 274.2365,
      "duration": 0.1817,
      "velocity": 127,
      "chip": "ym2612"
    },
    {
      "channel": 0,
      "note": 52,
      "start": 274.4347,
      "duration": 0.3831,
      "velocity": 88,
      "chip": "ym2612"
    },
    {
      "channel": 2,
      "note": 30,
      "start": 274.4351,
      "duration": 0.1831,
      "velocity": 127,
      "chip": "ym2612"
    },
    {
      "channel": 1,
      "note": 75,
      "start": 274.6347,
      "duration": 0.1833,
      "velocity": 83,
      "chip": "ym2612"
    },
    {
      "channel": 2,
      "note": 30,
      "start": 274.6349,
      "duration": 0.1833,
      "velocity": 127,
      "chip": "ym2612"
    },
    {
      "channel": 2,
      "note": 30,
      "start": 274.8361,
      "duration": 0.1821,
      "velocity": 127,
      "chip": "ym2612"
    },
    {
      "channel": 0,
      "note": 52,
      "start": 275.0346,
      "duration": 0.1833,
      "velocity": 88,
      "chip": "ym2612"
    },
    {
      "channel": 1,
      "note": 74,
      "start": 275.0348,
      "duration": 0.1833,
      "velocity": 83,
      "chip": "ym2612"
    },
    {
      "channel": 2,
      "note": 42,
      "start": 275.0351,
      "duration": 0.1833,
      "velocity": 127,
      "chip": "ym2612"
    },
    {
      "channel": 0,
      "note": 52,
      "start": 275.2347,
      "duration": 0.3831,
      "velocity": 88,
      "chip": "ym2612"
    },
    {
      "channel": 2,
      "note": 42,
      "start": 275.2365,
      "duration": 0.1817,
      "velocity": 127,
      "chip": "ym2612"
    },
    {
      "channel": 1,
      "note": 71,
      "start": 275.4348,
      "duration": 0.1833,
      "velocity": 83,
      "chip": "ym2612"
    },
    {
      "channel": 2,
      "note": 30,
      "start": 275.435,
      "duration": 0.1833,
      "velocity": 127,
      "chip": "ym2612"
    },
    {
      "channel": 2,
      "note": 30,
      "start": 275.6361,
      "duration": 0.1821,
      "velocity": 127,
      "chip": "ym2612"
    },
    {
      "channel": 0,
      "note": 52,
      "start": 275.8347,
      "duration": 0.1831,
      "velocity": 88,
      "chip": "ym2612"
    },
    {
      "channel": 1,
      "note": 69,
      "start": 275.8349,
      "duration": 0.3832,
      "velocity": 83,
      "chip": "ym2612"
    },
    {
      "channel": 2,
      "note": 42,
      "start": 275.8367,
      "duration": 0.1815,
      "velocity": 127,
      "chip": "ym2612"
    },
    {
      "channel": 2,
      "note": 30,
      "start": 276.0348,
      "duration": 0.1835,
      "velocity": 127,
      "chip": "ym2612"
    },
    {
      "channel": 0,
      "note": 52,
      "start": 276.2346,
      "duration": 0.1832,
      "velocity": 88,
      "chip": "ym2612"
    },
    {
      "channel": 1,
      "note": 67,
      "start": 276.2349,
      "duration": 0.5831,
      "velocity": 83,
      "chip": "ym2612"
    },
    {
      "channel": 2,
      "note": 30,
      "start": 276.2351,
      "duration": 0.1831,
      "velocity": 127,
      "chip": "ym2612"
    },
    {
      "channel": 0,
      "note": 52,
      "start": 276.4346,
      "duration": 0.1832,
      "velocity": 88,
      "chip": "ym2612"
    },
    {
      "channel": 2,
      "note": 30,
      "start": 276.4364,
      "duration": 0.1817,
      "velocity": 127,
      "chip": "ym2612"
    },
    {
      "channel": 0,
      "note": 52,
      "start": 276.6346,
      "duration": 0.1832,
      "velocity": 88,
      "chip": "ym2612"
    },
    {
      "channel": 2,
      "note": 42,
      "start": 276.6351,
      "duration": 0.1831,
      "velocity": 127,
      "chip": "ym2612"
    },
    {
      "channel": 0,
      "note": 52,
      "start": 276.8347,
      "duration": 0.3824,
      "velocity": 88,
      "chip": "ym2612"
    },
    {
      "channel": 2,
      "note": 42,
      "start": 276.8365,
      "duration": 0.1817,
      "velocity": 127,
      "chip": "ym2612"
    },
    {
      "channel": 2,
      "note": 30,
      "start": 277.0348,
      "duration": 0.1827,
      "velocity": 127,
      "chip": "ym2612"
    },
    {
      "channel": 1,
      "note": 63,
      "start": 277.234,
      "duration": 0.1833,
      "velocity": 83,
      "chip": "ym2612"
    },
    {
      "channel": 2,
      "note": 30,
      "start": 277.2357,
      "duration": 0.1818,
      "velocity": 127,
      "chip": "ym2612"
    },
    {
      "channel": 0,
      "note": 52,
      "start": 277.4339,
      "duration": 0.1844,
      "velocity": 88,
      "chip": "ym2612"
    },
    {
      "channel": 1,
      "note": 69,
      "start": 277.4341,
      "duration": 0.1844,
      "velocity": 83,
      "chip": "ym2612"
    },
    {
      "channel": 2,
      "note": 42,
      "start": 277.4358,
      "duration": 0.1829,
      "velocity": 127,
      "chip": "ym2612"
    },
    {
      "channel": 0,
      "note": 52,
      "start": 277.635,
      "duration": 0.3846,
      "velocity": 88,
      "chip": "ym2612"
    },
    {
      "channel": 1,
      "note": 67,
      "start": 277.6353,
      "duration": 0.1845,
      "velocity": 83,
      "chip": "ym2612"
    },
    {
      "channel": 2,
      "note": 30,
      "start": 277.6355,
      "duration": 0.1845,
      "velocity": 127,
      "chip": "ym2612"
    },
    {
      "channel": 1,
      "note": 71,
      "start": 277.8365,
      "duration": 0.1833,
      "velocity": 83,
      "chip": "ym2612"
    },
    {
      "channel": 2,
      "note": 30,
      "start": 277.8368,
      "duration": 0.1833,
      "velocity": 127,
      "chip": "ym2612"
    },
    {
      "channel": 1,
      "note": 69,
      "start": 278.0365,
      "duration": 0.1833,
      "velocity": 83,
      "chip": "ym2612"
    },
    {
      "channel": 2,
      "note": 30,
      "start": 278.0383,
      "duration": 0.1817,
      "velocity": 127,
      "chip": "ym2612"
    },
    {
      "channel": 0,
      "note": 52,
      "start": 278.2364,
      "duration": 0.1818,
      "velocity": 88,
      "chip": "ym2612"
    },
    {
      "channel": 1,
      "note": 62,
      "start": 278.2367,
      "duration": 1.1817,
      "velocity": 83,
      "chip": "ym2612"
    },
    {
      "channel": 2,
      "note": 42,
      "start": 278.2369,
      "duration": 0.1817,
      "velocity": 127,
      "chip": "ym2612"
    },
    {
      "channel": 0,
      "note": 52,
      "start": 278.4351,
      "duration": 0.3844,
      "velocity": 88,
      "chip": "ym2612"
    },
    {
      "channel": 2,
      "note": 42,
      "start": 278.437,
      "duration": 0.1815,
      "velocity": 127,
      "chip": "ym2612"
    },
    {
      "channel": 2,
      "note": 30,
      "start": 278.6353,
      "duration": 0.1846,
      "velocity": 127,
      "chip": "ym2612"
    },
    {
      "channel": 2,
      "note": 30,
      "start": 278.8381,
      "duration": 0.1819,
      "velocity": 127,
      "chip": "ym2612"
    },
    {
      "channel": 0,
      "note": 52,
      "start": 279.0363,
      "duration": 0.1832,
      "velocity": 88,
      "chip": "ym2612"
    },
    {
      "channel": 2,
      "note": 42,
      "start": 279.0382,
      "duration": 0.1817,
      "velocity": 127,
      "chip": "ym2612"
    },
    {
      "channel": 2,
      "note": 30,
      "start": 279.2366,
      "duration": 0.1821,
      "velocity": 127,
      "chip": "ym2612"
    },
    {
      "channel": 0,
      "note": 52,
      "start": 279.435,
      "duration": 0.1832,
      "velocity": 88,
      "chip": "ym2612"
    },
    {
      "channel": 2,
      "note": 30,
      "start": 279.4353,
      "duration": 0.1833,
      "velocity": 127,
      "chip": "ym2612"
    },
    {
      "channel": 0,
      "note": 52,
      "start": 279.635,
      "duration": 0.1832,
      "velocity": 88,
      "chip": "ym2612"
    },
    {
      "channel": 1,
      "note": 64,
      "start": 279.6353,
      "duration": 0.1832,
      "velocity": 83,
      "chip": "ym2612"
    },
    {
      "channel": 2,
      "note": 30,
      "start": 279.637,
      "duration": 0.1816,
      "velocity": 127,
      "chip": "ym2612"
    },
    {
      "channel": 0,
      "note": 52,
      "start": 279.835,
      "duration": 0.1845,
      "velocity": 88,
      "chip": "ym2612"
    },
    {
      "channel": 1,
      "note": 62,
      "start": 279.8353,
      "duration": 0.1845,
      "velocity": 83,
      "chip": "ym2612"
    },
    {
      "channel": 2,
      "note": 42,
      "start": 279.8355,
      "duration": 0.1845,
      "velocity": 127,
      "chip": "ym2612"
    },
    {
      "channel": 0,
      "note": 52,
      "start": 280.0365,
      "duration": 0.3817,
      "velocity": 88,
      "chip": "ym2612"
    },
    {
      "channel": 1,
      "note": 64,
      "start": 280.0368,
      "duration": 0.983,
      "velocity": 83,
      "chip": "ym2612"
    },
    {
      "channel": 2,
      "note": 42,
      "start": 280.0384,
      "duration": 0.1814,
      "velocity": 127,
      "chip": "ym2612"
    },
    {
      "channel": 2,
      "note": 30,
      "start": 280.2367,
      "duration": 0.1819,
      "velocity": 127,
      "chip": "ym2612"
    },
    {
      "channel": 2,
      "note": 30,
      "start": 280.4368,
      "duration": 0.1819,
      "velocity": 127,
      "chip": "ym2612"
    },
    {
      "channel": 0,
      "note": 48,
      "start": 280.635,
      "duration": 0.1833,
      "velocity": 88,
      "chip": "ym2612"
    },
    {
      "channel": 2,
      "note": 42,
      "start": 280.6368,
      "duration": 0.1818,
      "velocity": 127,
      "chip": "ym2612"
    },
    {
      "channel": 0,
      "note": 48,
      "start": 280.835,
      "duration": 0.382,
      "velocity": 88,
      "chip": "ym2612"
    },
    {
      "channel": 2,
      "note": 30,
      "start": 280.8354,
      "duration": 0.1846,
      "velocity": 127,
      "chip": "ym2612"
    },
    {
      "channel": 1,
      "note": 75,
      "start": 281.0365,
      "duration": 0.3808,
      "velocity": 83,
      "chip": "ym2612"
    },
    {
      "channel": 2,
      "note": 30,
      "start": 281.0368,
      "duration": 0.1806,
      "velocity": 127,
      "chip": "ym2612"
    },
    {
      "channel": 2,
      "note": 30,
      "start": 281.2355,
      "duration": 0.182,
      "velocity": 127,
      "chip": "ym2612"
    },
    {
      "channel": 0,
      "note": 48,
      "start": 281.4338,
      "duration": 0.1832,
      "velocity": 88,
      "chip": "ym2612"
    },
    {
      "channel": 1,
      "note": 74,
      "start": 281.4341,
      "duration": 0.384,
      "velocity": 83,
      "chip": "ym2612"
    },
    {
      "channel": 2,
      "note": 42,
      "start": 281.4343,
      "duration": 0.1831,
      "velocity": 127,
      "chip": "ym2612"
    },
    {
      "channel": 0,
      "note": 48,
      "start": 281.6348,
      "duration": 0.383,
      "velocity": 88,
      "chip": "ym2612"
    },
    {
      "channel": 2,
      "note": 42,
      "start": 281.6367,
      "duration": 0.3815,
      "velocity": 127,
      "chip": "ym2612"
    },
    {
      "channel": 1,
      "note": 69,
      "start": 281.8349,
      "duration": 0.1832,
      "velocity": 83,
      "chip": "ym2612"
    },
    {
      "channel": 2,
      "note": 30,
      "start": 282.0362,
      "duration": 0.1819,
      "velocity": 127,
      "chip": "ym2612"
    },
    {
      "channel": 1,
      "note": 67,
      "start": 282.2348,
      "duration": 0.3834,
      "velocity": 83,
      "chip": "ym2612"
    },
    {
      "channel": 2,
      "note": 42,
      "start": 282.2365,
      "duration": 0.1817,
      "velocity": 127,
      "chip": "ym2612"
    },
    {
      "channel": 0,
      "note": 48,
      "start": 282.4346,
      "duration": 0.3834,
      "velocity": 88,
      "chip": "ym2612"
    },
    {
      "channel": 2,
      "note": 30,
      "start": 282.4349,
      "duration": 0.1834,
      "velocity": 127,
      "chip": "ym2612"
    },
    {
      "channel": 1,
      "note": 64,
      "start": 282.6349,
      "duration": 0.1833,
      "velocity": 83,
      "chip": "ym2612"
    },
    {
      "channel": 2,
      "note": 30,
      "start": 282.6351,
      "duration": 0.1833,
      "velocity": 127,
      "chip": "ym2612"
    },
    {
      "channel": 0,
      "note": 48,
      "start": 282.8348,
      "duration": 0.3831,
      "velocity": 88,
      "chip": "ym2612"
    },
    {
      "channel": 1,
      "note": 69,
      "start": 282.835,
      "duration": 0.1831,
      "velocity": 83,
      "chip": "ym2612"
    },
    {
      "channel": 2,
      "note": 30,
      "start": 282.8367,
      "duration": 0.1816,
      "velocity": 127,
      "chip": "ym2612"
    },
    {
      "channel": 1,
      "note": 67,
      "start": 283.0349,
      "duration": 3.1844,
      "velocity": 83,
      "chip": "ym2612"
    },
    {
      "channel": 2,
      "note": 42,
      "start": 283.0365,
      "duration": 0.1817,
      "velocity": 127,
      "chip": "ym2612"
    },
    {
      "channel": 0,
      "note": 48,
      "start": 283.2347,
      "duration": 0.3833,
      "velocity": 88,
      "chip": "ym2612"
    },
    {
      "channel": 2,
      "note": 30,
      "start": 283.2365,
      "duration": 0.1816,
      "velocity": 127,
      "chip": "ym2612"
    },
    {
      "channel": 2,
      "note": 30,
      "start": 283.4348,
      "duration": 0.1836,
      "velocity": 127,
      "chip": "ym2612"
    },
    {
      "channel": 2,
      "note": 30,
      "start": 283.6364,
      "duration": 0.182,
      "velocity": 127,
      "chip": "ym2612"
    },
    {
      "channel": 0,
      "note": 52,
      "start": 283.8348,
      "duration": 0.1832,
      "velocity": 88,
      "chip": "ym2612"
    },
    {
      "channel": 2,
      "note": 42,
      "start": 283.8366,
      "duration": 0.1817,
      "velocity": 127,
      "chip": "ym2612"
    },
    {
      "channel": 0,
      "note": 52,
      "start": 284.0347,
      "duration": 0.1831,
      "velocity": 88,
      "chip": "ym2612"
    },
    {
      "channel": 2,
      "note": 30,
      "start": 284.0351,
      "duration": 0.1831,
      "velocity": 127,
      "chip": "ym2612"
    },
    {
      "channel": 0,
      "note": 52,
      "start": 284.2346,
      "duration": 0.1833,
      "velocity": 88,
      "chip": "ym2612"
    },
    {
      "channel": 2,
      "note": 30,
      "start": 284.235,
      "duration": 0.1832,
      "velocity": 127,
      "chip": "ym2612"
    },
    {
      "channel": 2,
      "note": 30,
      "start": 284.4363,
      "duration": 0.1818,
      "velocity": 127,
      "chip": "ym2612"
    },
    {
      "channel": 2,
      "note": 42,
      "start": 284.635,
      "duration": 0.1833,
      "velocity": 127,
      "chip": "ym2612"
    },
    {
      "channel": 0,
      "note": 50,
      "start": 284.8348,
      "duration": 0.3822,
      "velocity": 88,
      "chip": "ym2612"
    },
    {
      "channel": 2,
      "note": 42,
      "start": 284.8366,
      "duration": 0.1817,
      "velocity": 127,
      "chip": "ym2612"
    },
    {
      "channel": 2,
      "note": 30,
      "start": 285.0349,
      "duration": 0.1824,
      "velocity": 127,
      "chip": "ym2612"
    },
    {
      "channel": 2,
      "note": 30,
      "start": 285.2356,
      "duration": 0.1819,
      "velocity": 127,
      "chip": "ym2612"
    },
    {
      "channel": 0,
      "note": 52,
      "start": 285.4339,
      "duration": 0.1832,
      "velocity": 88,
      "chip": "ym2612"
    },
    {
      "channel": 2,
      "note": 42,
      "start": 285.4357,
      "duration": 0.1817,
      "velocity": 127,
      "chip": "ym2612"
    },
    {
      "channel": 0,
      "note": 52,
      "start": 285.6338,
      "duration": 0.184,
      "velocity": 88,
      "chip": "ym2612"
    },
    {
      "channel": 2,
      "note": 30,
      "start": 285.6342,
      "duration": 0.184,
      "velocity": 127,
      "chip": "ym2612"
    },
    {
      "channel": 0,
      "note": 52,
      "start": 285.8346,
      "duration": 0.1833,
      "velocity": 88,
      "chip": "ym2612"
    },
    {
      "channel": 2,
      "note": 30,
      "start": 285.835,
      "duration": 0.1832,
      "velocity": 127,
      "chip": "ym2612"
    },
    {
      "channel": 2,
      "note": 30,
      "start": 286.0363,
      "duration": 0.1832,
      "velocity": 127,
      "chip": "ym2612"
    },
    {
      "channel": 1,
      "note": 64,
      "start": 286.2361,
      "duration": 0.9819,
      "velocity": 83,
      "chip": "ym2612"
    },
    {
      "channel": 2,
      "note": 42,
      "start": 286.2364,
      "duration": 0.1831,
      "velocity": 127,
      "chip": "ym2612"
    },
    {
      "channel": 0,
      "note": 50,
      "start": 286.436,
      "duration": 0.3818,
      "velocity": 88,
      "chip": "ym2612"
    },
    {
      "channel": 2,
      "note": 42,
      "start": 286.4379,
      "duration": 0.1817,
      "velocity": 127,
      "chip": "ym2612"
    },
    {
      "channel": 2,
      "note": 30,
      "start": 286.6362,
      "duration": 0.182,
      "velocity": 127,
      "chip": "ym2612"
    },
    {
      "channel": 2,
      "note": 30,
      "start": 286.8363,
      "duration": 0.1819,
      "velocity": 127,
      "chip": "ym2612"
    },
    {
      "channel": 0,
      "note": 48,
      "start": 287.0345,
      "duration": 0.1833,
      "velocity": 88,
      "chip": "ym2612"
    },
    {
      "channel": 2,
      "note": 42,
      "start": 287.0363,
      "duration": 0.1819,
      "velocity": 127,
      "chip": "ym2612"
    },
    {
      "channel": 0,
      "note": 48,
      "start": 287.2346,
      "duration": 0.3845,
      "velocity": 88,
      "chip": "ym2612"
    },
    {
      "channel": 1,
      "note": 59,
      "start": 287.2349,
      "duration": 0.1845,
      "velocity": 83,
      "chip": "ym2612"
    },
    {
      "channel": 2,
      "note": 30,
      "start": 287.2351,
      "duration": 0.1845,
      "velocity": 127,
      "chip": "ym2612"
    },
    {
      "channel": 2,
      "note": 30,
      "start": 287.4361,
      "duration": 0.1835,
      "velocity": 127,
      "chip": "ym2612"
    },
    {
      "channel": 1,
      "note": 67,
      "start": 287.6361,
      "duration": 0.1819,
      "velocity": 83,
      "chip": "ym2612"
    },
    {
      "channel": 2,
      "note": 30,
      "start": 287.6378,
      "duration": 0.1804,
      "velocity": 127,
      "chip": "ym2612"
    },
    {
      "channel": 0,
      "note": 48,
      "start": 287.8346,
      "duration": 0.1833,
      "velocity": 88,
      "chip": "ym2612"
    },
    {
      "channel": 1,
      "note": 74,
      "start": 287.8348,
      "duration": 0.3832,
      "velocity": 83,
      "chip": "ym2612"
    },
    {
      "channel": 2,
      "note": 42,
      "start": 287.8351,
      "duration": 0.1831,
      "velocity": 127,
      "chip": "ym2612"
    },
    {
      "channel": 0,
      "note": 48,
      "start": 288.0347,
      "duration": 0.3845,
      "velocity": 88,
      "chip": "ym2612"
    },
    {
      "channel": 2,
      "note": 42,
      "start": 288.0365,
      "duration": 0.1816,
      "velocity": 127,
      "chip": "ym2612"
    },
    {
      "channel": 1,
      "note": 67,
      "start": 288.2347,
      "duration": 0.1847,
      "velocity": 83,
      "chip": "ym2612"
    },
    {
      "channel": 2,
      "note": 30,
      "start": 288.2349,
      "duration": 0.1846,
      "velocity": 127,
      "chip": "ym2612"
    },
    {
      "channel": 2,
      "note": 30,
      "start": 288.4376,
      "duration": 0.182,
      "velocity": 127,
      "chip": "ym2612"
    },
    {
      "channel": 1,
      "note": 64,
      "start": 288.6361,
      "duration": 0.3819,
      "velocity": 83,
      "chip": "ym2612"
    },
    {
      "channel": 2,
      "note": 42,
      "start": 288.6378,
      "duration": 0.1818,
      "velocity": 127,
      "chip": "ym2612"
    },
    {
      "channel": 0,
      "note": 48,
      "start": 288.836,
      "duration": 0.381,
      "velocity": 88,
      "chip": "ym2612"
    },
    {
      "channel": 2,
      "note": 30,
      "start": 288.8363,
      "duration": 0.1819,
      "velocity": 127,
      "chip": "ym2612"
    },
    {
      "channel": 1,
      "note": 64,
      "start": 289.0348,
      "duration": 0.3825,
      "velocity": 83,
      "chip": "ym2612"
    },
    {
      "channel": 2,
      "note": 30,
      "start": 289.035,
      "duration": 0.1824,
      "velocity": 127,
      "chip": "ym2612"
    },
    {
      "channel": 0,
      "note": 48,
      "start": 289.2338,
      "duration": 0.3833,
      "velocity": 88,
      "chip": "ym2612"
    },
    {
      "channel": 2,
      "note": 30,
      "start": 289.2356,
      "duration": 0.1818,
      "velocity": 127,
      "chip": "ym2612"
    },
    {
      "channel": 1,
      "note": 62,
      "start": 289.434,
      "duration": 0.384,
      "velocity": 83,
      "chip": "ym2612"
    },
    {
      "channel": 2,
      "note": 42,
      "start": 289.4342,
      "duration": 0.1832,
      "velocity": 127,
      "chip": "ym2612"
    },
    {
      "channel": 0,
      "note": 48,
      "start": 289.6339,
      "duration": 0.3839,
      "velocity": 88,
      "chip": "ym2612"
    },
    {
      "channel": 2,
      "note": 42,
      "start": 289.6358,
      "duration": 0.1824,
      "velocity": 127,
      "chip": "ym2612"
    },
    {
      "channel": 1,
      "note": 64,
      "start": 289.8348,
      "duration": 0.1833,
      "velocity": 83,
      "chip": "ym2612"
    },
    {
      "channel": 2,
      "note": 30,
      "start": 289.835,
      "duration": 0.1833,
      "velocity": 127,
      "chip": "ym2612"
    },
    {
      "channel": 2,
      "note": 30,
      "start": 290.0363,
      "duration": 0.1819,
      "velocity": 127,
      "chip": "ym2612"
    },
    {
      "channel": 0,
      "note": 52,
      "start": 290.2346,
      "duration": 0.1833,
      "velocity": 88,
      "chip": "ym2612"
    },
    {
      "channel": 1,
      "note": 64,
      "start": 290.2348,
      "duration": 0.1832,
      "velocity": 83,
      "chip": "ym2612"
    },
    {
      "channel": 2,
      "note": 42,
      "start": 290.2365,
      "duration": 0.1817,
      "velocity": 127,
      "chip": "ym2612"
    },
    {
      "channel": 0,
      "note": 52,
      "start": 290.4346,
      "duration": 0.3832,
      "velocity": 88,
      "chip": "ym2612"
    },
    {
      "channel": 1,
      "note": 76,
      "start": 290.4349,
      "duration": 0.1832,
      "velocity": 83,
      "chip": "ym2612"
    },
    {
      "channel": 2,
      "note": 30,
      "start": 290.4351,
      "duration": 0.1831,
      "velocity": 127,
      "chip": "ym2612"
    },
    {
      "channel": 2,
      "note": 30,
      "start": 290.6347,
      "duration": 0.1836,
      "velocity": 127,
      "chip": "ym2612"
    },
    {
      "channel": 1,
      "note": 67,
      "start": 290.8347,
      "duration": 0.1833,
      "velocity": 83,
      "chip": "ym2612"
    },
    {
      "channel": 2,
      "note": 30,
      "start": 290.8364,
      "duration": 0.1818,
      "velocity": 127,
      "chip": "ym2612"
    },
    {
      "channel": 0,
      "note": 52,
      "start": 291.0346,
      "duration": 0.1833,
      "velocity": 88,
      "chip": "ym2612"
    },
    {
      "channel": 1,
      "note": 74,
      "start": 291.0348,
      "duration": 0.1833,
      "velocity": 83,
      "chip": "ym2612"
    },
    {
      "channel": 2,
      "note": 42,
      "start": 291.0351,
      "duration": 0.1833,
      "velocity": 127,
      "chip": "ym2612"
    },
    {
      "channel": 0,
      "note": 52,
      "start": 291.2347,
      "duration": 0.3831,
      "velocity": 88,
      "chip": "ym2612"
    },
    {
      "channel": 2,
      "note": 42,
      "start": 291.2365,
      "duration": 0.1817,
      "velocity": 127,
      "chip": "ym2612"
    },
    {
      "channel": 1,
      "note": 71,
      "start": 291.4348,
      "duration": 1.5832,
      "velocity": 83,
      "chip": "ym2612"
    },
    {
      "channel": 2,
      "note": 30,
      "start": 291.435,
      "duration": 0.1832,
      "velocity": 127,
      "chip": "ym2612"
    },
    {
      "channel": 2,
      "note": 30,
      "start": 291.6363,
      "duration": 0.1819,
      "velocity": 127,
      "chip": "ym2612"
    },
    {
      "channel": 0,
      "note": 52,
      "start": 291.8345,
      "duration": 0.1832,
      "velocity": 88,
      "chip": "ym2612"
    },
    {
      "channel": 2,
      "note": 42,
      "start": 291.8363,
      "duration": 0.1817,
      "velocity": 127,
      "chip": "ym2612"
    },
    {
      "channel": 2,
      "note": 30,
      "start": 292.0348,
      "duration": 0.1834,
      "velocity": 127,
      "chip": "ym2612"
    },
    {
      "channel": 0,
      "note": 52,
      "start": 292.2346,
      "duration": 0.1833,
      "velocity": 88,
      "chip": "ym2612"
    },
    {
      "channel": 2,
      "note": 30,
      "start": 292.235,
      "duration": 0.1832,
      "velocity": 127,
      "chip": "ym2612"
    },
    {
      "channel": 0,
      "note": 52,
      "start": 292.4346,
      "duration": 0.1832,
      "velocity": 88,
      "chip": "ym2612"
    },
    {
      "channel": 2,
      "note": 30,
      "start": 292.4364,
      "duration": 0.1817,
      "velocity": 127,
      "chip": "ym2612"
    },
    {
      "channel": 0,
      "note": 52,
      "start": 292.6345,
      "duration": 0.1833,
      "velocity": 88,
      "chip": "ym2612"
    },
    {
      "channel": 2,
      "note": 42,
      "start": 292.6349,
      "duration": 0.1833,
      "velocity": 127,
      "chip": "ym2612"
    },
    {
      "channel": 0,
      "note": 50,
      "start": 292.8346,
      "duration": 0.3824,
      "velocity": 88,
      "chip": "ym2612"
    },
    {
      "channel": 2,
      "note": 42,
      "start": 292.8365,
      "duration": 0.1817,
      "velocity": 127,
      "chip": "ym2612"
    },
    {
      "channel": 1,
      "note": 64,
      "start": 293.0347,
      "duration": 0.3826,
      "velocity": 83,
      "chip": "ym2612"
    },
    {
      "channel": 2,
      "note": 30,
      "start": 293.0349,
      "duration": 0.1824,
      "velocity": 127,
      "chip": "ym2612"
    },
    {
      "channel": 2,
      "note": 30,
      "start": 293.2356,
      "duration": 0.1819,
      "velocity": 127,
      "chip": "ym2612"
    },
    {
      "channel": 0,
      "note": 48,
      "start": 293.4339,
      "duration": 0.1832,
      "velocity": 88,
      "chip": "ym2612"
    },
    {
      "channel": 1,
      "note": 62,
      "start": 293.4341,
      "duration": 0.3839,
      "velocity": 83,
      "chip": "ym2612"
    },
    {
      "channel": 2,
      "note": 42,
      "start": 293.4358,
      "duration": 0.1816,
      "velocity": 127,
      "chip": "ym2612"
    },
    {
      "channel": 0,
      "note": 48,
      "start": 293.6338,
      "duration": 0.384,
      "velocity": 88,
      "chip": "ym2612"
    },
    {
      "channel": 2,
      "note": 30,
      "start": 293.6342,
      "duration": 0.184,
      "velocity": 127,
      "chip": "ym2612"
    },
    {
      "channel": 1,
      "note": 67,
      "start": 293.8348,
      "duration": 0.3831,
      "velocity": 83,
      "chip": "ym2612"
    },
    {
      "channel": 2,
      "note": 30,
      "start": 293.835,
      "duration": 0.1832,
      "velocity": 127,
      "chip": "ym2612"
    },
    {
      "channel": 0,
      "note": 48,
      "start": 294.0346,
      "duration": 0.3832,
      "velocity": 88,
      "chip": "ym2612"
    },
    {
      "channel": 2,
      "note": 30,
      "start": 294.0364,
      "duration": 0.1817,
      "velocity": 127,
      "chip": "ym2612"
    },
    {
      "channel": 1,
      "note": 64,
      "start": 294.2346,
      "duration": 0.3833,
      "velocity": 83,
      "chip": "ym2612"
    },
    {
      "channel": 2,
      "note": 42,
      "start": 294.2349,
      "duration": 0.1832,
      "velocity": 127,
      "chip": "ym2612"
    },
    {
      "channel": 0,
      "note": 48,
      "start": 294.4346,
      "duration": 0.3832,
      "velocity": 88,
      "chip": "ym2612"
    },
    {
      "channel": 2,
      "note": 42,
      "start": 294.4365,
      "duration": 0.1817,
      "velocity": 127,
      "chip": "ym2612"
    },
    {
      "channel": 1,
      "note": 62,
      "start": 294.6347,
      "duration": 0.3834,
      "velocity": 83,
      "chip": "ym2612"
    },
    {
      "channel": 2,
      "note": 30,
      "start": 294.6349,
      "duration": 0.1833,
      "velocity": 127,
      "chip": "ym2612"
    },
    {
      "channel": 2,
      "note": 30,
      "start": 294.8364,
      "duration": 0.0817,
      "velocity": 127,
      "chip": "ym2612"
    },
    {
      "channel": 2,
      "note": 42,
      "start": 294.9348,
      "duration": 0.0835,
      "velocity": 127,
      "chip": "ym2612"
    },
    {
      "channel": 0,
      "note": 46,
      "start": 295.0347,
      "duration": 0.1831,
      "velocity": 88,
      "chip": "ym2612"
    },
    {
      "channel": 1,
      "note": 65,
      "start": 295.0349,
      "duration": 0.383,
      "velocity": 83,
      "chip": "ym2612"
    },
    {
      "channel": 2,
      "note": 42,
      "start": 295.0366,
      "duration": 0.1816,
      "velocity": 127,
      "chip": "ym2612"
    },
    {
      "channel": 0,
      "note": 46,
      "start": 295.2346,
      "duration": 0.3833,
      "velocity": 88,
      "chip": "ym2612"
    },
    {
      "channel": 2,
      "note": 30,
      "start": 295.2349,
      "duration": 0.1833,
      "velocity": 127,
      "chip": "ym2612"
    },
    {
      "channel": 1,
      "note": 70,
      "start": 295.4347,
      "duration": 0.3833,
      "velocity": 83,
      "chip": "ym2612"
    },
    {
      "channel": 2,
      "note": 30,
      "start": 295.4349,
      "duration": 0.1833,
      "velocity": 127,
      "chip": "ym2612"
    },
    {
      "channel": 0,
      "note": 53,
      "start": 295.6346,
      "duration": 0.3833,
      "velocity": 88,
      "chip": "ym2612"
    },
    {
      "channel": 2,
      "note": 30,
      "start": 295.6364,
      "duration": 0.0817,
      "velocity": 127,
      "chip": "ym2612"
    },
    {
      "channel": 2,
      "note": 42,
      "start": 295.7349,
      "duration": 0.0833,
      "velocity": 127,
      "chip": "ym2612"
    },
    {
      "channel": 1,
      "note": 74,
      "start": 295.8348,
      "duration": 0.1833,
      "velocity": 83,
      "chip": "ym2612"
    },
    {
      "channel": 2,
      "note": 42,
      "start": 295.8351,
      "duration": 0.0831,
      "velocity": 127,
      "chip": "ym2612"
    },
    {
      "channel": 2,
      "note": 42,
      "start": 295.9349,
      "duration": 0.0835,
      "velocity": 127,
      "chip": "ym2612"
    },
    {
      "channel": 0,
      "note": 53,
      "start": 296.0347,
      "duration": 0.3831,
      "velocity": 88,
      "chip": "ym2612"
    },
    {
      "channel": 1,
      "note": 74,
      "start": 296.0349,
      "duration": 3.1835,
      "velocity": 83,
      "chip": "ym2612"
    },
    {
      "channel": 2,
      "note": 42,
      "start": 296.0367,
      "duration": 0.1815,
      "velocity": 127,
      "chip": "ym2612"
    },
    {
      "channel": 2,
      "note": 30,
      "start": 296.2348,
      "duration": 0.1834,
      "velocity": 127,
      "chip": "ym2612"
    },
    {
      "channel": 2,
      "note": 30,
      "start": 296.4363,
      "duration": 0.1819,
      "velocity": 127,
      "chip": "ym2612"
    },
    {
      "channel": 0,
      "note": 52,
      "start": 296.6345,
      "duration": 0.1833,
      "velocity": 88,
      "chip": "ym2612"
    },
    {
      "channel": 2,
      "note": 42,
      "start": 296.6363,
      "duration": 0.1819,
      "velocity": 127,
      "chip": "ym2612"
    },
    {
      "channel": 0,
      "note": 52,
      "start": 296.8346,
      "duration": 0.3826,
      "velocity": 88,
      "chip": "ym2612"
    },
    {
      "channel": 2,
      "note": 30,
      "start": 296.8349,
      "duration": 0.1832,
      "velocity": 127,
      "chip": "ym2612"
    },
    {
      "channel": 2,
      "note": 30,
      "start": 297.0348,
      "duration": 0.1827,
      "velocity": 127,
      "chip": "ym2612"
    },
    {
      "channel": 2,
      "note": 30,
      "start": 297.2355,
      "duration": 0.1819,
      "velocity": 127,
      "chip": "ym2612"
    },
    {
      "channel": 0,
      "note": 52,
      "start": 297.4338,
      "duration": 0.1832,
      "velocity": 88,
      "chip": "ym2612"
    },
    {
      "channel": 2,
      "note": 42,
      "start": 297.4342,
      "duration": 0.1832,
      "velocity": 127,
      "chip": "ym2612"
    },
    {
      "channel": 0,
      "note": 52,
      "start": 297.6339,
      "duration": 0.3844,
      "velocity": 88,
      "chip": "ym2612"
    },
    {
      "channel": 2,
      "note": 42,
      "start": 297.6358,
      "duration": 0.1841,
      "velocity": 127,
      "chip": "ym2612"
    },
    {
      "channel": 2,
      "note": 30,
      "start": 297.8367,
      "duration": 0.182,
      "velocity": 127,
      "chip": "ym2612"
    },
    {
      "channel": 2,
      "note": 30,
      "start": 298.0367,
      "duration": 0.1819,
      "velocity": 127,
      "chip": "ym2612"
    },
    {
      "channel": 0,
      "note": 52,
      "start": 298.2349,
      "duration": 0.1832,
      "velocity": 88,
      "chip": "ym2612"
    },
    {
      "channel": 2,
      "note": 42,
      "start": 298.2368,
      "duration": 0.1817,
      "velocity": 127,
      "chip": "ym2612"
    },
    {
      "channel": 2,
      "note": 30,
      "start": 298.4365,
      "duration": 0.1835,
      "velocity": 127,
      "chip": "ym2612"
    },
    {
      "channel": 0,
      "note": 52,
      "start": 298.6363,
      "duration": 0.1834,
      "velocity": 88,
      "chip": "ym2612"
    },
    {
      "channel": 2,
      "note": 30,
      "start": 298.6367,
      "duration": 0.1833,
      "velocity": 127,
      "chip": "ym2612"
    },
    {
      "channel": 0,
      "note": 52,
      "start": 298.8364,
      "duration": 0.1819,
      "velocity": 88,
      "chip": "ym2612"
    },
    {
      "channel": 2,
      "note": 30,
      "start": 298.8383,
      "duration": 0.1804,
      "velocity": 127,
      "chip": "ym2612"
    },
    {
      "channel": 0,
      "note": 50,
      "start": 299.035,
      "duration": 0.1833,
      "velocity": 88,
      "chip": "ym2612"
    },
    {
      "channel": 2,
      "note": 42,
      "start": 299.0354,
      "duration": 0.1833,
      "velocity": 127,
      "chip": "ym2612"
    },
    {
      "channel": 0,
      "note": 52,
      "start": 299.2368,
      "duration": 0.3828,
      "velocity": 88,
      "chip": "ym2612"
    },
    {
      "channel": 1,
      "note": 76,
      "start": 299.2385,
      "duration": 0.9799,
      "velocity": 83,
      "chip": "ym2612"
    },
    {
      "channel": 2,
      "note": 42,
      "start": 299.2402,
      "duration": 0.1784,
      "velocity": 127,
      "chip": "ym2612"
    },
    {
      "channel": 2,
      "note": 30,
      "start": 299.4353,
      "duration": 0.1847,
      "velocity": 127,
      "chip": "ym2612"
    },
    {
      "channel": 2,
      "note": 30,
      "start": 299.6381,
      "duration": 0.1819,
      "velocity": 127,
      "chip": "ym2612"
    },
    {
      "channel": 0,
      "note": 52,
      "start": 299.8363,
      "duration": 0.1832,
      "velocity": 88,
      "chip": "ym2612"
    },
    {
      "channel": 2,
      "note": 42,
      "start": 299.8382,
      "duration": 0.1817,
      "velocity": 127,
      "chip": "ym2612"
    },
    {
      "channel": 0,
      "note": 52,
      "start": 300.0351,
      "duration": 0.3831,
      "velocity": 88,
      "chip": "ym2612"
    },
    {
      "channel": 2,
      "note": 30,
      "start": 300.0355,
      "duration": 0.1831,
      "velocity": 127,
      "chip": "ym2612"
    },
    {
      "channel": 1,
      "note": 75,
      "start": 300.2351,
      "duration": 0.1833,
      "velocity": 83,
      "chip": "ym2612"
    },
    {
      "channel": 2,
      "note": 30,
      "start": 300.2354,
      "duration": 0.1833,
      "velocity": 127,
      "chip": "ym2612"
    },
    {
      "channel": 2,
      "note": 30,
      "start": 300.4367,
      "duration": 0.1834,
      "velocity": 127,
      "chip": "ym2612"
    },
    {
      "channel": 0,
      "note": 52,
      "start": 300.6363,
      "duration": 0.0003,
      "velocity": 88,
      "chip": "ym2612"
    },
    {
      "channel": 1,
      "note": 74,
      "start": 300.6366,
      "duration": 0.0,
      "velocity": 83,
      "chip": "ym2612"
    }
  ]
}