{
  "track_name": "05 - Destroy the Truck!",
  "duration_sec": 35.112,
  "sample_rate": 44100,
  "note_count": 672,
  "unique_pitches": 41,
  "pitch_range": 52,
  "avg_note_duration": 0.0591,
  "reconstruction_stats": {
    "notes_reconstructed": 672,
    "keyon_events": 672,
    "keyoff_events": 628,
    "orphan_keyons": 0,
    "unique_pitches": 41,
    "pitch_range": 52,
    "avg_duration_sec": 0.0591
  },
  "metadata": {
    "source": "D\\Dashin' Desperadoes\\05 - Destroy the Truck!.vgm"
  },
  "notes": [
    {
      "channel": 2,
      "note": 68,
      "start": 0.0022,
      "duration": 0.0722,
      "velocity": 77,
      "chip": "ym2612"
    },
    {
      "channel": 3,
      "note": 77,
      "start": 0.0025,
      "duration": 0.072,
      "velocity": 77,
      "chip": "ym2612"
    },
    {
      "channel": 4,
      "note": 53,
      "start": 0.0028,
      "duration": 0.0718,
      "velocity": 94,
      "chip": "ym2612"
    },
    {
      "channel": 2,
      "note": 84,
      "start": 0.1412,
      "duration": 0.1049,
      "velocity": 77,
      "chip": "ym2612"
    },
    {
      "channel": 3,
      "note": 89,
      "start": 0.1414,
      "duration": 0.1048,
      "velocity": 77,
      "chip": "ym2612"
    },
    {
      "channel": 4,
      "note": 65,
      "start": 0.1416,
      "duration": 0.1047,
      "velocity": 94,
      "chip": "ym2612"
    },
    {
      "channel": 2,
      "note": 84,
      "start": 0.313,
      "duration": 0.0022,
      "velocity": 77,
      "chip": "ym2612"
    },
    {
      "channel": 3,
      "note": 87,
      "start": 0.3132,
      "duration": 0.0021,
      "velocity": 77,
      "chip": "ym2612"
    },
    {
      "channel": 4,
      "note": 53,
      "start": 0.3133,
      "duration": 0.0603,
      "velocity": 94,
      "chip": "ym2612"
    },
    {
      "channel": 2,
      "note": 84,
      "start": 0.3185,
      "duration": 0.0568,
      "velocity": 77,
      "chip": "ym2612"
    },
    {
      "channel": 3,
      "note": 88,
      "start": 0.3187,
      "duration": 0.0567,
      "velocity": 77,
      "chip": "ym2612"
    },
    {
      "channel": 2,
      "note": 77,
      "start": 0.4128,
      "duration": 0.0067,
      "velocity": 77,
      "chip": "ym2612"
    },
    {
      "channel": 3,
      "note": 77,
      "start": 0.413,
      "duration": 0.0066,
      "velocity": 77,
      "chip": "ym2612"
    },
    {
      "channel": 4,
      "note": 53,
      "start": 0.4132,
      "duration": 0.0065,
      "velocity": 94,
      "chip": "ym2612"
    },
    {
      "channel": 2,
      "note": 89,
      "start": 0.4571,
      "duration": 0.1051,
      "velocity": 77,
      "chip": "ym2612"
    },
    {
      "channel": 3,
      "note": 96,
      "start": 0.4573,
      "duration": 0.1049,
      "velocity": 77,
      "chip": "ym2612"
    },
    {
      "channel": 4,
      "note": 53,
      "start": 0.4574,
      "duration": 0.0015,
      "velocity": 94,
      "chip": "ym2612"
    },
    {
      "channel": 4,
      "note": 65,
      "start": 0.5124,
      "duration": 0.0499,
      "velocity": 94,
      "chip": "ym2612"
    },
    {
      "channel": 2,
      "note": 89,
      "start": 0.6289,
      "duration": 0.0018,
      "velocity": 77,
      "chip": "ym2612"
    },
    {
      "channel": 3,
      "note": 92,
      "start": 0.6291,
      "duration": 0.0017,
      "velocity": 77,
      "chip": "ym2612"
    },
    {
      "channel": 4,
      "note": 53,
      "start": 0.6293,
      "duration": 0.0015,
      "velocity": 94,
      "chip": "ym2612"
    },
    {
      "channel": 2,
      "note": 84,
      "start": 0.6517,
      "duration": 0.006,
      "velocity": 77,
      "chip": "ym2612"
    },
    {
      "channel": 3,
      "note": 89,
      "start": 0.6518,
      "duration": 0.0059,
      "velocity": 77,
      "chip": "ym2612"
    },
    {
      "channel": 4,
      "note": 63,
      "start": 0.652,
      "duration": 0.002,
      "velocity": 94,
      "chip": "ym2612"
    },
    {
      "channel": 4,
      "note": 53,
      "start": 0.6566,
      "duration": 0.0384,
      "velocity": 94,
      "chip": "ym2612"
    },
    {
      "channel": 2,
      "note": 87,
      "start": 0.69,
      "duration": 0.0731,
      "velocity": 77,
      "chip": "ym2612"
    },
    {
      "channel": 3,
      "note": 92,
      "start": 0.6902,
      "duration": 0.073,
      "velocity": 77,
      "chip": "ym2612"
    },
    {
      "channel": 4,
      "note": 63,
      "start": 0.7618,
      "duration": 0.0015,
      "velocity": 94,
      "chip": "ym2612"
    },
    {
      "channel": 2,
      "note": 68,
      "start": 0.8172,
      "duration": 0.072,
      "velocity": 77,
      "chip": "ym2612"
    },
    {
      "channel": 3,
      "note": 77,
      "start": 0.8174,
      "duration": 0.0719,
      "velocity": 77,
      "chip": "ym2612"
    },
    {
      "channel": 4,
      "note": 53,
      "start": 0.8177,
      "duration": 0.0717,
      "velocity": 94,
      "chip": "ym2612"
    },
    {
      "channel": 2,
      "note": 84,
      "start": 0.9561,
      "duration": 0.1049,
      "velocity": 77,
      "chip": "ym2612"
    },
    {
      "channel": 3,
      "note": 89,
      "start": 0.9563,
      "duration": 0.1048,
      "velocity": 77,
      "chip": "ym2612"
    },
    {
      "channel": 4,
      "note": 65,
      "start": 0.9564,
      "duration": 0.1047,
      "velocity": 94,
      "chip": "ym2612"
    },
    {
      "channel": 2,
      "note": 84,
      "start": 1.1278,
      "duration": 0.0022,
      "velocity": 77,
      "chip": "ym2612"
    },
    {
      "channel": 3,
      "note": 87,
      "start": 1.128,
      "duration": 0.0021,
      "velocity": 77,
      "chip": "ym2612"
    },
    {
      "channel": 4,
      "note": 53,
      "start": 1.1282,
      "duration": 0.0602,
      "velocity": 94,
      "chip": "ym2612"
    },
    {
      "channel": 2,
      "note": 84,
      "start": 1.1333,
      "duration": 0.0568,
      "velocity": 77,
      "chip": "ym2612"
    },
    {
      "channel": 3,
      "note": 88,
      "start": 1.1335,
      "duration": 0.0567,
      "velocity": 77,
      "chip": "ym2612"
    },
    {
      "channel": 2,
      "note": 77,
      "start": 1.2277,
      "duration": 0.0068,
      "velocity": 77,
      "chip": "ym2612"
    },
    {
      "channel": 3,
      "note": 77,
      "start": 1.2279,
      "duration": 0.0067,
      "velocity": 77,
      "chip": "ym2612"
    },
    {
      "channel": 4,
      "note": 53,
      "start": 1.228,
      "duration": 0.0066,
      "velocity": 94,
      "chip": "ym2612"
    },
    {
      "channel": 2,
      "note": 89,
      "start": 1.2721,
      "duration": 0.1051,
      "velocity": 77,
      "chip": "ym2612"
    },
    {
      "channel": 3,
      "note": 96,
      "start": 1.2722,
      "duration": 0.105,
      "velocity": 77,
      "chip": "ym2612"
    },
    {
      "channel": 4,
      "note": 53,
      "start": 1.2724,
      "duration": 0.0015,
      "velocity": 94,
      "chip": "ym2612"
    },
    {
      "channel": 4,
      "note": 65,
      "start": 1.3274,
      "duration": 0.0499,
      "velocity": 94,
      "chip": "ym2612"
    },
    {
      "channel": 2,
      "note": 89,
      "start": 1.4439,
      "duration": 0.0018,
      "velocity": 77,
      "chip": "ym2612"
    },
    {
      "channel": 3,
      "note": 92,
      "start": 1.4441,
      "duration": 0.0017,
      "velocity": 77,
      "chip": "ym2612"
    },
    {
      "channel": 4,
      "note": 53,
      "start": 1.4443,
      "duration": 0.0015,
      "velocity": 94,
      "chip": "ym2612"
    },
    {
      "channel": 2,
      "note": 84,
      "start": 1.4667,
      "duration": 0.0059,
      "velocity": 77,
      "chip": "ym2612"
    },
    {
      "channel": 3,
      "note": 89,
      "start": 1.4669,
      "duration": 0.0058,
      "velocity": 77,
      "chip": "ym2612"
    },
    {
      "channel": 4,
      "note": 63,
      "start": 1.4671,
      "duration": 0.0019,
      "velocity": 94,
      "chip": "ym2612"
    },
    {
      "channel": 4,
      "note": 53,
      "start": 1.4716,
      "duration": 0.0384,
      "velocity": 94,
      "chip": "ym2612"
    },
    {
      "channel": 2,
      "note": 87,
      "start": 1.505,
      "duration": 0.0731,
      "velocity": 77,
      "chip": "ym2612"
    },
    {
      "channel": 3,
      "note": 92,
      "start": 1.5051,
      "duration": 0.073,
      "velocity": 77,
      "chip": "ym2612"
    },
    {
      "channel": 4,
      "note": 63,
      "start": 1.5768,
      "duration": 0.0015,
      "velocity": 94,
      "chip": "ym2612"
    },
    {
      "channel": 0,
      "note": 95,
      "start": 1.6317,
      "duration": 0.0392,
      "velocity": 99,
      "chip": "ym2612"
    },
    {
      "channel": 2,
      "note": 68,
      "start": 1.6321,
      "duration": 0.0723,
      "velocity": 77,
      "chip": "ym2612"
    },
    {
      "channel": 3,
      "note": 77,
      "start": 1.6323,
      "duration": 0.0722,
      "velocity": 77,
      "chip": "ym2612"
    },
    {
      "channel": 4,
      "note": 53,
      "start": 1.6325,
      "duration": 0.072,
      "velocity": 94,
      "chip": "ym2612"
    },
    {
      "channel": 1,
      "note": 95,
      "start": 1.635,
      "duration": 0.0693,
      "velocity": 99,
      "chip": "ym2612"
    },
    {
      "channel": 0,
      "note": 96,
      "start": 1.6709,
      "duration": 0.3746,
      "velocity": 99,
      "chip": "ym2612"
    },
    {
      "channel": 1,
      "note": 96,
      "start": 1.7043,
      "duration": 0.3435,
      "velocity": 99,
      "chip": "ym2612"
    },
    {
      "channel": 2,
      "note": 84,
      "start": 1.7711,
      "duration": 0.1049,
      "velocity": 77,
      "chip": "ym2612"
    },
    {
      "channel": 3,
      "note": 89,
      "start": 1.7712,
      "duration": 0.1048,
      "velocity": 77,
      "chip": "ym2612"
    },
    {
      "channel": 4,
      "note": 65,
      "start": 1.7714,
      "duration": 0.1047,
      "velocity": 94,
      "chip": "ym2612"
    },
    {
      "channel": 2,
      "note": 84,
      "start": 1.9428,
      "duration": 0.0022,
      "velocity": 77,
      "chip": "ym2612"
    },
    {
      "channel": 3,
      "note": 87,
      "start": 1.943,
      "duration": 0.0021,
      "velocity": 77,
      "chip": "ym2612"
    },
    {
      "channel": 4,
      "note": 53,
      "start": 1.9432,
      "duration": 0.0604,
      "velocity": 94,
      "chip": "ym2612"
    },
    {
      "channel": 2,
      "note": 84,
      "start": 1.9483,
      "duration": 0.0568,
      "velocity": 77,
      "chip": "ym2612"
    },
    {
      "channel": 3,
      "note": 88,
      "start": 1.9485,
      "duration": 0.0567,
      "velocity": 77,
      "chip": "ym2612"
    },
    {
      "channel": 2,
      "note": 77,
      "start": 2.0427,
      "duration": 0.0073,
      "velocity": 77,
      "chip": "ym2612"
    },
    {
      "channel": 3,
      "note": 77,
      "start": 2.0429,
      "duration": 0.0072,
      "velocity": 77,
      "chip": "ym2612"
    },
    {
      "channel": 4,
      "note": 53,
      "start": 2.0431,
      "duration": 0.0071,
      "velocity": 94,
      "chip": "ym2612"
    },
    {
      "channel": 0,
      "note": 93,
      "start": 2.0476,
      "duration": 0.0391,
      "velocity": 99,
      "chip": "ym2612"
    },
    {
      "channel": 1,
      "note": 93,
      "start": 2.0499,
      "duration": 0.039,
      "velocity": 99,
      "chip": "ym2612"
    },
    {
      "channel": 0,
      "note": 94,
      "start": 2.0868,
      "duration": 0.3262,
      "velocity": 99,
      "chip": "ym2612"
    },
    {
      "channel": 2,
      "note": 89,
      "start": 2.0871,
      "duration": 0.105,
      "velocity": 77,
      "chip": "ym2612"
    },
    {
      "channel": 3,
      "note": 96,
      "start": 2.0873,
      "duration": 0.1049,
      "velocity": 77,
      "chip": "ym2612"
    },
    {
      "channel": 4,
      "note": 53,
      "start": 2.0875,
      "duration": 0.0016,
      "velocity": 94,
      "chip": "ym2612"
    },
    {
      "channel": 1,
      "note": 94,
      "start": 2.0889,
      "duration": 0.3577,
      "velocity": 99,
      "chip": "ym2612"
    },
    {
      "channel": 4,
      "note": 65,
      "start": 2.1422,
      "duration": 0.0499,
      "velocity": 94,
      "chip": "ym2612"
    },
    {
      "channel": 2,
      "note": 89,
      "start": 2.2588,
      "duration": 0.0018,
      "velocity": 77,
      "chip": "ym2612"
    },
    {
      "channel": 3,
      "note": 92,
      "start": 2.259,
      "duration": 0.0017,
      "velocity": 77,
      "chip": "ym2612"
    },
    {
      "channel": 4,
      "note": 53,
      "start": 2.2592,
      "duration": 0.0015,
      "velocity": 94,
      "chip": "ym2612"
    },
    {
      "channel": 2,
      "note": 84,
      "start": 2.2815,
      "duration": 0.006,
      "velocity": 77,
      "chip": "ym2612"
    },
    {
      "channel": 3,
      "note": 89,
      "start": 2.2817,
      "duration": 0.0059,
      "velocity": 77,
      "chip": "ym2612"
    },
    {
      "channel": 4,
      "note": 63,
      "start": 2.2819,
      "duration": 0.002,
      "velocity": 94,
      "chip": "ym2612"
    },
    {
      "channel": 4,
      "note": 53,
      "start": 2.2864,
      "duration": 0.0384,
      "velocity": 94,
      "chip": "ym2612"
    },
    {
      "channel": 2,
      "note": 87,
      "start": 2.3197,
      "duration": 0.0731,
      "velocity": 77,
      "chip": "ym2612"
    },
    {
      "channel": 3,
      "note": 92,
      "start": 2.3199,
      "duration": 0.073,
      "velocity": 77,
      "chip": "ym2612"
    },
    {
      "channel": 4,
      "note": 63,
      "start": 2.3915,
      "duration": 0.0015,
      "velocity": 94,
      "chip": "ym2612"
    },
    {
      "channel": 0,
      "note": 98,
      "start": 2.4465,
      "duration": 0.0392,
      "velocity": 99,
      "chip": "ym2612"
    },
    {
      "channel": 2,
      "note": 68,
      "start": 2.4469,
      "duration": 0.0723,
      "velocity": 77,
      "chip": "ym2612"
    },
    {
      "channel": 3,
      "note": 77,
      "start": 2.4471,
      "duration": 0.0721,
      "velocity": 77,
      "chip": "ym2612"
    },
    {
      "channel": 4,
      "note": 53,
      "start": 2.4473,
      "duration": 0.072,
      "velocity": 94,
      "chip": "ym2612"
    },
    {
      "channel": 1,
      "note": 98,
      "start": 2.4493,
      "duration": 0.0698,
      "velocity": 99,
      "chip": "ym2612"
    },
    {
      "channel": 0,
      "note": 99,
      "start": 2.4857,
      "duration": 0.3746,
      "velocity": 99,
      "chip": "ym2612"
    },
    {
      "channel": 1,
      "note": 99,
      "start": 2.5191,
      "duration": 0.3434,
      "velocity": 99,
      "chip": "ym2612"
    },
    {
      "channel": 2,
      "note": 84,
      "start": 2.5858,
      "duration": 0.1049,
      "velocity": 77,
      "chip": "ym2612"
    },
    {
      "channel": 3,
      "note": 89,
      "start": 2.586,
      "duration": 0.1048,
      "velocity": 77,
      "chip": "ym2612"
    },
    {
      "channel": 4,
      "note": 65,
      "start": 2.5862,
      "duration": 0.1047,
      "velocity": 94,
      "chip": "ym2612"
    },
    {
      "channel": 2,
      "note": 84,
      "start": 2.7575,
      "duration": 0.0022,
      "velocity": 77,
      "chip": "ym2612"
    },
    {
      "channel": 3,
      "note": 87,
      "start": 2.7577,
      "duration": 0.0021,
      "velocity": 77,
      "chip": "ym2612"
    },
    {
      "channel": 4,
      "note": 53,
      "start": 2.7579,
      "duration": 0.0603,
      "velocity": 94,
      "chip": "ym2612"
    },
    {
      "channel": 2,
      "note": 84,
      "start": 2.763,
      "duration": 0.0568,
      "velocity": 77,
      "chip": "ym2612"
    },
    {
      "channel": 3,
      "note": 88,
      "start": 2.7632,
      "duration": 0.0567,
      "velocity": 77,
      "chip": "ym2612"
    },
    {
      "channel": 2,
      "note": 77,
      "start": 2.8574,
      "duration": 0.0074,
      "velocity": 77,
      "chip": "ym2612"
    },
    {
      "channel": 3,
      "note": 77,
      "start": 2.8576,
      "duration": 0.0073,
      "velocity": 77,
      "chip": "ym2612"
    },
    {
      "channel": 4,
      "note": 53,
      "start": 2.8577,
      "duration": 0.0072,
      "velocity": 94,
      "chip": "ym2612"
    },
    {
      "channel": 0,
      "note": 97,
      "start": 2.8623,
      "duration": 0.0392,
      "velocity": 99,
      "chip": "ym2612"
    },
    {
      "channel": 1,
      "note": 97,
      "start": 2.8646,
      "duration": 0.039,
      "velocity": 99,
      "chip": "ym2612"
    },
    {
      "channel": 0,
      "note": 98,
      "start": 2.9015,
      "duration": 0.2019,
      "velocity": 99,
      "chip": "ym2612"
    },
    {
      "channel": 2,
      "note": 89,
      "start": 2.9018,
      "duration": 0.1049,
      "velocity": 77,
      "chip": "ym2612"
    },
    {
      "channel": 3,
      "note": 96,
      "start": 2.902,
      "duration": 0.1048,
      "velocity": 77,
      "chip": "ym2612"
    },
    {
      "channel": 4,
      "note": 53,
      "start": 2.9022,
      "duration": 0.0016,
      "velocity": 94,
      "chip": "ym2612"
    },
    {
      "channel": 1,
      "note": 98,
      "start": 2.9037,
      "duration": 0.2309,
      "velocity": 99,
      "chip": "ym2612"
    },
    {
      "channel": 4,
      "note": 65,
      "start": 2.9569,
      "duration": 0.0499,
      "velocity": 94,
      "chip": "ym2612"
    },
    {
      "channel": 2,
      "note": 89,
      "start": 3.0734,
      "duration": 0.0018,
      "velocity": 77,
      "chip": "ym2612"
    },
    {
      "channel": 3,
      "note": 92,
      "start": 3.0736,
      "duration": 0.0017,
      "velocity": 77,
      "chip": "ym2612"
    },
    {
      "channel": 4,
      "note": 53,
      "start": 3.0738,
      "duration": 0.0015,
      "velocity": 94,
      "chip": "ym2612"
    },
    {
      "channel": 2,
      "note": 84,
      "start": 3.0962,
      "duration": 0.006,
      "velocity": 77,
      "chip": "ym2612"
    },
    {
      "channel": 3,
      "note": 89,
      "start": 3.0964,
      "duration": 0.0059,
      "velocity": 77,
      "chip": "ym2612"
    },
    {
      "channel": 4,
      "note": 63,
      "start": 3.0966,
      "duration": 0.0019,
      "velocity": 94,
      "chip": "ym2612"
    },
    {
      "channel": 4,
      "note": 53,
      "start": 3.1011,
      "duration": 0.0386,
      "velocity": 94,
      "chip": "ym2612"
    },
    {
      "channel": 0,
      "note": 96,
      "start": 3.1344,
      "duration": 0.0383,
      "velocity": 99,
      "chip": "ym2612"
    },
    {
      "channel": 2,
      "note": 87,
      "start": 3.1347,
      "duration": 0.073,
      "velocity": 77,
      "chip": "ym2612"
    },
    {
      "channel": 3,
      "note": 92,
      "start": 3.1349,
      "duration": 0.0729,
      "velocity": 77,
      "chip": "ym2612"
    },
    {
      "channel": 1,
      "note": 96,
      "start": 3.1395,
      "duration": 0.0666,
      "velocity": 99,
      "chip": "ym2612"
    },
    {
      "channel": 4,
      "note": 63,
      "start": 3.2064,
      "duration": 0.0015,
      "velocity": 94,
      "chip": "ym2612"
    },
    {
      "channel": 2,
      "note": 68,
      "start": 3.2614,
      "duration": 0.0724,
      "velocity": 77,
      "chip": "ym2612"
    },
    {
      "channel": 3,
      "note": 77,
      "start": 3.2616,
      "duration": 0.0723,
      "velocity": 77,
      "chip": "ym2612"
    },
    {
      "channel": 4,
      "note": 53,
      "start": 3.2619,
      "duration": 0.0721,
      "velocity": 94,
      "chip": "ym2612"
    },
    {
      "channel": 0,
      "note": 83,
      "start": 3.401,
      "duration": 0.1046,
      "velocity": 108,
      "chip": "ym2612"
    },
    {
      "channel": 2,
      "note": 84,
      "start": 3.4013,
      "duration": 0.1044,
      "velocity": 77,
      "chip": "ym2612"
    },
    {
      "channel": 3,
      "note": 89,
      "start": 3.4015,
      "duration": 0.1042,
      "velocity": 77,
      "chip": "ym2612"
    },
    {
      "channel": 4,
      "note": 65,
      "start": 3.4017,
      "duration": 0.1041,
      "velocity": 94,
      "chip": "ym2612"
    },
    {
      "channel": 1,
      "note": 83,
      "start": 3.4061,
      "duration": 0.1328,
      "velocity": 108,
      "chip": "ym2612"
    },
    {
      "channel": 0,
      "note": 84,
      "start": 3.5055,
      "duration": 0.0333,
      "velocity": 108,
      "chip": "ym2612"
    },
    {
      "channel": 1,
      "note": 84,
      "start": 3.5389,
      "duration": 0.0334,
      "velocity": 108,
      "chip": "ym2612"
    },
    {
      "channel": 0,
      "note": 82,
      "start": 3.5722,
      "duration": 0.0039,
      "velocity": 108,
      "chip": "ym2612"
    },
    {
      "channel": 2,
      "note": 84,
      "start": 3.5725,
      "duration": 0.0023,
      "velocity": 77,
      "chip": "ym2612"
    },
    {
      "channel": 3,
      "note": 87,
      "start": 3.5727,
      "duration": 0.0022,
      "velocity": 77,
      "chip": "ym2612"
    },
    {
      "channel": 4,
      "note": 53,
      "start": 3.5729,
      "duration": 0.0602,
      "velocity": 94,
      "chip": "ym2612"
    },
    {
      "channel": 1,
      "note": 82,
      "start": 3.5747,
      "duration": 0.0031,
      "velocity": 108,
      "chip": "ym2612"
    },
    {
      "channel": 0,
      "note": 80,
      "start": 3.5777,
      "duration": 0.0217,
      "velocity": 108,
      "chip": "ym2612"
    },
    {
      "channel": 2,
      "note": 84,
      "start": 3.578,
      "duration": 0.057,
      "velocity": 77,
      "chip": "ym2612"
    },
    {
      "channel": 3,
      "note": 88,
      "start": 3.5782,
      "duration": 0.0569,
      "velocity": 77,
      "chip": "ym2612"
    },
    {
      "channel": 1,
      "note": 80,
      "start": 3.5797,
      "duration": 0.0533,
      "velocity": 108,
      "chip": "ym2612"
    },
    {
      "channel": 0,
      "note": 77,
      "start": 3.6329,
      "duration": 0.0059,
      "velocity": 108,
      "chip": "ym2612"
    },
    {
      "channel": 1,
      "note": 77,
      "start": 3.635,
      "duration": 0.0374,
      "velocity": 108,
      "chip": "ym2612"
    },
    {
      "channel": 0,
      "note": 83,
      "start": 3.6723,
      "duration": 0.0068,
      "velocity": 108,
      "chip": "ym2612"
    },
    {
      "channel": 2,
      "note": 77,
      "start": 3.6726,
      "duration": 0.0067,
      "velocity": 77,
      "chip": "ym2612"
    },
    {
      "channel": 3,
      "note": 77,
      "start": 3.6728,
      "duration": 0.0066,
      "velocity": 77,
      "chip": "ym2612"
    },
    {
      "channel": 4,
      "note": 53,
      "start": 3.673,
      "duration": 0.0064,
      "velocity": 94,
      "chip": "ym2612"
    },
    {
      "channel": 1,
      "note": 83,
      "start": 3.6745,
      "duration": 0.0086,
      "velocity": 108,
      "chip": "ym2612"
    },
    {
      "channel": 0,
      "note": 84,
      "start": 3.6791,
      "duration": 0.0039,
      "velocity": 108,
      "chip": "ym2612"
    },
    {
      "channel": 1,
      "note": 84,
      "start": 3.6831,
      "duration": 0.0334,
      "velocity": 108,
      "chip": "ym2612"
    },
    {
      "channel": 0,
      "note": 82,
      "start": 3.7164,
      "duration": 0.0218,
      "velocity": 108,
      "chip": "ym2612"
    },
    {
      "channel": 2,
      "note": 89,
      "start": 3.7167,
      "duration": 0.105,
      "velocity": 77,
      "chip": "ym2612"
    },
    {
      "channel": 3,
      "note": 96,
      "start": 3.7169,
      "duration": 0.1049,
      "velocity": 77,
      "chip": "ym2612"
    },
    {
      "channel": 4,
      "note": 53,
      "start": 3.7171,
      "duration": 0.0016,
      "velocity": 94,
      "chip": "ym2612"
    },
    {
      "channel": 1,
      "note": 82,
      "start": 3.7185,
      "duration": 0.0532,
      "velocity": 108,
      "chip": "ym2612"
    },
    {
      "channel": 0,
      "note": 80,
      "start": 3.7715,
      "duration": 0.0833,
      "velocity": 108,
      "chip": "ym2612"
    },
    {
      "channel": 4,
      "note": 65,
      "start": 3.7719,
      "duration": 0.0499,
      "velocity": 94,
      "chip": "ym2612"
    },
    {
      "channel": 1,
      "note": 80,
      "start": 3.8216,
      "duration": 0.0667,
      "velocity": 108,
      "chip": "ym2612"
    },
    {
      "channel": 0,
      "note": 77,
      "start": 3.8882,
      "duration": 0.0034,
      "velocity": 108,
      "chip": "ym2612"
    },
    {
      "channel": 2,
      "note": 89,
      "start": 3.8885,
      "duration": 0.0019,
      "velocity": 77,
      "chip": "ym2612"
    },
    {
      "channel": 3,
      "note": 92,
      "start": 3.8887,
      "duration": 0.0018,
      "velocity": 77,
      "chip": "ym2612"
    },
    {
      "channel": 4,
      "note": 53,
      "start": 3.8889,
      "duration": 0.0017,
      "velocity": 94,
      "chip": "ym2612"
    },
    {
      "channel": 1,
      "note": 77,
      "start": 3.8903,
      "duration": 0.0208,
      "velocity": 108,
      "chip": "ym2612"
    },
    {
      "channel": 0,
      "note": 83,
      "start": 3.911,
      "duration": 0.007,
      "velocity": 108,
      "chip": "ym2612"
    },
    {
      "channel": 2,
      "note": 84,
      "start": 3.9114,
      "duration": 0.0068,
      "velocity": 77,
      "chip": "ym2612"
    },
    {
      "channel": 3,
      "note": 89,
      "start": 3.9115,
      "duration": 0.0067,
      "velocity": 77,
      "chip": "ym2612"
    },
    {
      "channel": 4,
      "note": 63,
      "start": 3.9117,
      "duration": 0.0022,
      "velocity": 94,
      "chip": "ym2612"
    },
    {
      "channel": 1,
      "note": 83,
      "start": 3.9137,
      "duration": 0.0058,
      "velocity": 108,
      "chip": "ym2612"
    },
    {
      "channel": 4,
      "note": 53,
      "start": 3.9169,
      "duration": 0.0376,
      "velocity": 94,
      "chip": "ym2612"
    },
    {
      "channel": 0,
      "note": 84,
      "start": 3.918,
      "duration": 0.0014,
      "velocity": 108,
      "chip": "ym2612"
    },
    {
      "channel": 1,
      "note": 84,
      "start": 3.9195,
      "duration": 0.0298,
      "velocity": 108,
      "chip": "ym2612"
    },
    {
      "channel": 0,
      "note": 82,
      "start": 3.9492,
      "duration": 0.0383,
      "velocity": 108,
      "chip": "ym2612"
    },
    {
      "channel": 2,
      "note": 87,
      "start": 3.9495,
      "duration": 0.0733,
      "velocity": 77,
      "chip": "ym2612"
    },
    {
      "channel": 3,
      "note": 92,
      "start": 3.9497,
      "duration": 0.0733,
      "velocity": 77,
      "chip": "ym2612"
    },
    {
      "channel": 1,
      "note": 82,
      "start": 3.9543,
      "duration": 0.0667,
      "velocity": 108,
      "chip": "ym2612"
    },
    {
      "channel": 0,
      "note": 80,
      "start": 4.0209,
      "duration": 0.0218,
      "velocity": 108,
      "chip": "ym2612"
    },
    {
      "channel": 4,
      "note": 63,
      "start": 4.0213,
      "duration": 0.0017,
      "velocity": 94,
      "chip": "ym2612"
    },
    {
      "channel": 1,
      "note": 80,
      "start": 4.0228,
      "duration": 0.0534,
      "velocity": 108,
      "chip": "ym2612"
    },
    {
      "channel": 0,
      "note": 77,
      "start": 4.0761,
      "duration": 0.0058,
      "velocity": 108,
      "chip": "ym2612"
    },
    {
      "channel": 2,
      "note": 68,
      "start": 4.0764,
      "duration": 0.0726,
      "velocity": 77,
      "chip": "ym2612"
    },
    {
      "channel": 3,
      "note": 77,
      "start": 4.0767,
      "duration": 0.0724,
      "velocity": 77,
      "chip": "ym2612"
    },
    {
      "channel": 4,
      "note": 53,
      "start": 4.0769,
      "duration": 0.0723,
      "velocity": 94,
      "chip": "ym2612"
    },
    {
      "channel": 1,
      "note": 77,
      "start": 4.0787,
      "duration": 0.0369,
      "velocity": 108,
      "chip": "ym2612"
    },
    {
      "channel": 0,
      "note": 83,
      "start": 4.1155,
      "duration": 0.1049,
      "velocity": 108,
      "chip": "ym2612"
    },
    {
      "channel": 1,
      "note": 83,
      "start": 4.1488,
      "duration": 0.1049,
      "velocity": 108,
      "chip": "ym2612"
    },
    {
      "channel": 2,
      "note": 84,
      "start": 4.2156,
      "duration": 0.105,
      "velocity": 77,
      "chip": "ym2612"
    },
    {
      "channel": 3,
      "note": 89,
      "start": 4.2158,
      "duration": 0.1049,
      "velocity": 77,
      "chip": "ym2612"
    },
    {
      "channel": 4,
      "note": 65,
      "start": 4.216,
      "duration": 0.1047,
      "velocity": 94,
      "chip": "ym2612"
    },
    {
      "channel": 0,
      "note": 84,
      "start": 4.2204,
      "duration": 0.0333,
      "velocity": 108,
      "chip": "ym2612"
    },
    {
      "channel": 1,
      "note": 84,
      "start": 4.2538,
      "duration": 0.0334,
      "velocity": 108,
      "chip": "ym2612"
    },
    {
      "channel": 0,
      "note": 82,
      "start": 4.2871,
      "duration": 0.0666,
      "velocity": 108,
      "chip": "ym2612"
    },
    {
      "channel": 1,
      "note": 82,
      "start": 4.3205,
      "duration": 0.0667,
      "velocity": 108,
      "chip": "ym2612"
    },
    {
      "channel": 0,
      "note": 80,
      "start": 4.3871,
      "duration": 0.0038,
      "velocity": 108,
      "chip": "ym2612"
    },
    {
      "channel": 2,
      "note": 84,
      "start": 4.3874,
      "duration": 0.0023,
      "velocity": 77,
      "chip": "ym2612"
    },
    {
      "channel": 3,
      "note": 87,
      "start": 4.3876,
      "duration": 0.0022,
      "velocity": 77,
      "chip": "ym2612"
    },
    {
      "channel": 4,
      "note": 53,
      "start": 4.3878,
      "duration": 0.0601,
      "velocity": 94,
      "chip": "ym2612"
    },
    {
      "channel": 1,
      "note": 80,
      "start": 4.3896,
      "duration": 0.0032,
      "velocity": 108,
      "chip": "ym2612"
    },
    {
      "channel": 0,
      "note": 77,
      "start": 4.3926,
      "duration": 0.1014,
      "velocity": 108,
      "chip": "ym2612"
    },
    {
      "channel": 2,
      "note": 84,
      "start": 4.3929,
      "duration": 0.0567,
      "velocity": 77,
      "chip": "ym2612"
    },
    {
      "channel": 3,
      "note": 88,
      "start": 4.3931,
      "duration": 0.0566,
      "velocity": 77,
      "chip": "ym2612"
    },
    {
      "channel": 1,
      "note": 77,
      "start": 4.3946,
      "duration": 0.1035,
      "velocity": 108,
      "chip": "ym2612"
    },
    {
      "channel": 2,
      "note": 77,
      "start": 4.4871,
      "duration": 0.0071,
      "velocity": 77,
      "chip": "ym2612"
    },
    {
      "channel": 3,
      "note": 77,
      "start": 4.4873,
      "duration": 0.0069,
      "velocity": 77,
      "chip": "ym2612"
    },
    {
      "channel": 4,
      "note": 53,
      "start": 4.4875,
      "duration": 0.0068,
      "velocity": 94,
      "chip": "ym2612"
    },
    {
      "channel": 0,
      "note": 77,
      "start": 4.494,
      "duration": 0.3637,
      "velocity": 108,
      "chip": "ym2612"
    },
    {
      "channel": 1,
      "note": 77,
      "start": 4.4981,
      "duration": 0.3936,
      "velocity": 108,
      "chip": "ym2612"
    },
    {
      "channel": 2,
      "note": 89,
      "start": 4.5315,
      "duration": 0.1051,
      "velocity": 77,
      "chip": "ym2612"
    },
    {
      "channel": 3,
      "note": 96,
      "start": 4.5317,
      "duration": 0.1049,
      "velocity": 77,
      "chip": "ym2612"
    },
    {
      "channel": 4,
      "note": 53,
      "start": 4.5319,
      "duration": 0.0016,
      "velocity": 94,
      "chip": "ym2612"
    },
    {
      "channel": 4,
      "note": 65,
      "start": 4.5868,
      "duration": 0.0499,
      "velocity": 94,
      "chip": "ym2612"
    },
    {
      "channel": 2,
      "note": 89,
      "start": 4.7034,
      "duration": 0.0019,
      "velocity": 77,
      "chip": "ym2612"
    },
    {
      "channel": 3,
      "note": 92,
      "start": 4.7036,
      "duration": 0.0017,
      "velocity": 77,
      "chip": "ym2612"
    },
    {
      "channel": 4,
      "note": 53,
      "start": 4.7037,
      "duration": 0.0016,
      "velocity": 94,
      "chip": "ym2612"
    },
    {
      "channel": 2,
      "note": 84,
      "start": 4.7261,
      "duration": 0.0065,
      "velocity": 77,
      "chip": "ym2612"
    },
    {
      "channel": 3,
      "note": 89,
      "start": 4.7263,
      "duration": 0.0063,
      "velocity": 77,
      "chip": "ym2612"
    },
    {
      "channel": 4,
      "note": 63,
      "start": 4.7264,
      "duration": 0.002,
      "velocity": 94,
      "chip": "ym2612"
    },
    {
      "channel": 4,
      "note": 53,
      "start": 4.7313,
      "duration": 0.0381,
      "velocity": 94,
      "chip": "ym2612"
    },
    {
      "channel": 2,
      "note": 87,
      "start": 4.7644,
      "duration": 0.0732,
      "velocity": 77,
      "chip": "ym2612"
    },
    {
      "channel": 3,
      "note": 92,
      "start": 4.7646,
      "duration": 0.0731,
      "velocity": 77,
      "chip": "ym2612"
    },
    {
      "channel": 4,
      "note": 63,
      "start": 4.8362,
      "duration": 0.0016,
      "velocity": 94,
      "chip": "ym2612"
    },
    {
      "channel": 0,
      "note": 77,
      "start": 4.8577,
      "duration": 0.0,
      "velocity": 108,
      "chip": "ym2612"
    },
    {
      "channel": 0,
      "note": 95,
      "start": 4.8915,
      "duration": 0.0386,
      "velocity": 99,
      "chip": "ym2612"
    },
    {
      "channel": 1,
      "note": 77,
      "start": 4.8917,
      "duration": 0.0001,
      "velocity": 108,
      "chip": "ym2612"
    },
    {
      "channel": 2,
      "note": 68,
      "start": 4.892,
      "duration": 0.0715,
      "velocity": 77,
      "chip": "ym2612"
    },
    {
      "channel": 3,
      "note": 77,
      "start": 4.8922,
      "duration": 0.0713,
      "velocity": 77,
      "chip": "ym2612"
    },
    {
      "channel": 4,
      "note": 53,
      "start": 4.8924,
      "duration": 0.0712,
      "velocity": 94,
      "chip": "ym2612"
    },
    {
      "channel": 1,
      "note": 95,
      "start": 4.8948,
      "duration": 0.0687,
      "velocity": 99,
      "chip": "ym2612"
    },
    {
      "channel": 0,
      "note": 96,
      "start": 4.93,
      "duration": 0.3747,
      "velocity": 99,
      "chip": "ym2612"
    },
    {
      "channel": 1,
      "note": 96,
      "start": 4.9634,
      "duration": 0.3436,
      "velocity": 99,
      "chip": "ym2612"
    },
    {
      "channel": 2,
      "note": 84,
      "start": 5.0302,
      "duration": 0.1049,
      "velocity": 77,
      "chip": "ym2612"
    },
    {
      "channel": 3,
      "note": 89,
      "start": 5.0303,
      "duration": 0.1048,
      "velocity": 77,
      "chip": "ym2612"
    },
    {
      "channel": 4,
      "note": 65,
      "start": 5.0305,
      "duration": 0.1047,
      "velocity": 94,
      "chip": "ym2612"
    },
    {
      "channel": 2,
      "note": 84,
      "start": 5.2019,
      "duration": 0.0022,
      "velocity": 77,
      "chip": "ym2612"
    },
    {
      "channel": 3,
      "note": 87,
      "start": 5.2021,
      "duration": 0.0021,
      "velocity": 77,
      "chip": "ym2612"
    },
    {
      "channel": 4,
      "note": 53,
      "start": 5.2022,
      "duration": 0.0603,
      "velocity": 94,
      "chip": "ym2612"
    },
    {
      "channel": 2,
      "note": 84,
      "start": 5.2074,
      "duration": 0.0569,
      "velocity": 77,
      "chip": "ym2612"
    },
    {
      "channel": 3,
      "note": 88,
      "start": 5.2076,
      "duration": 0.0568,
      "velocity": 77,
      "chip": "ym2612"
    },
    {
      "channel": 2,
      "note": 77,
      "start": 5.3018,
      "duration": 0.0075,
      "velocity": 77,
      "chip": "ym2612"
    },
    {
      "channel": 3,
      "note": 77,
      "start": 5.302,
      "duration": 0.0074,
      "velocity": 77,
      "chip": "ym2612"
    },
    {
      "channel": 4,
      "note": 53,
      "start": 5.3021,
      "duration": 0.0073,
      "velocity": 94,
      "chip": "ym2612"
    },
    {
      "channel": 0,
      "note": 93,
      "start": 5.3069,
      "duration": 0.0391,
      "velocity": 99,
      "chip": "ym2612"
    },
    {
      "channel": 1,
      "note": 93,
      "start": 5.3091,
      "duration": 0.0391,
      "velocity": 99,
      "chip": "ym2612"
    },
    {
      "channel": 0,
      "note": 94,
      "start": 5.346,
      "duration": 0.3262,
      "velocity": 99,
      "chip": "ym2612"
    },
    {
      "channel": 2,
      "note": 89,
      "start": 5.3463,
      "duration": 0.105,
      "velocity": 77,
      "chip": "ym2612"
    },
    {
      "channel": 3,
      "note": 96,
      "start": 5.3465,
      "duration": 0.1049,
      "velocity": 77,
      "chip": "ym2612"
    },
    {
      "channel": 4,
      "note": 53,
      "start": 5.3467,
      "duration": 0.0017,
      "velocity": 94,
      "chip": "ym2612"
    },
    {
      "channel": 1,
      "note": 94,
      "start": 5.3482,
      "duration": 0.3577,
      "velocity": 99,
      "chip": "ym2612"
    },
    {
      "channel": 4,
      "note": 65,
      "start": 5.4015,
      "duration": 0.0499,
      "velocity": 94,
      "chip": "ym2612"
    },
    {
      "channel": 2,
      "note": 89,
      "start": 5.518,
      "duration": 0.0018,
      "velocity": 77,
      "chip": "ym2612"
    },
    {
      "channel": 3,
      "note": 92,
      "start": 5.5182,
      "duration": 0.0017,
      "velocity": 77,
      "chip": "ym2612"
    },
    {
      "channel": 4,
      "note": 53,
      "start": 5.5184,
      "duration": 0.0015,
      "velocity": 94,
      "chip": "ym2612"
    },
    {
      "channel": 2,
      "note": 84,
      "start": 5.5407,
      "duration": 0.006,
      "velocity": 77,
      "chip": "ym2612"
    },
    {
      "channel": 3,
      "note": 89,
      "start": 5.5409,
      "duration": 0.0059,
      "velocity": 77,
      "chip": "ym2612"
    },
    {
      "channel": 4,
      "note": 63,
      "start": 5.5411,
      "duration": 0.002,
      "velocity": 94,
      "chip": "ym2612"
    },
    {
      "channel": 4,
      "note": 53,
      "start": 5.5456,
      "duration": 0.0384,
      "velocity": 94,
      "chip": "ym2612"
    },
    {
      "channel": 2,
      "note": 87,
      "start": 5.579,
      "duration": 0.0731,
      "velocity": 77,
      "chip": "ym2612"
    },
    {
      "channel": 3,
      "note": 92,
      "start": 5.5791,
      "duration": 0.073,
      "velocity": 77,
      "chip": "ym2612"
    },
    {
      "channel": 4,
      "note": 63,
      "start": 5.6508,
      "duration": 0.0015,
      "velocity": 94,
      "chip": "ym2612"
    },
    {
      "channel": 0,
      "note": 98,
      "start": 5.7057,
      "duration": 0.0392,
      "velocity": 99,
      "chip": "ym2612"
    },
    {
      "channel": 2,
      "note": 68,
      "start": 5.7061,
      "duration": 0.0723,
      "velocity": 77,
      "chip": "ym2612"
    },
    {
      "channel": 3,
      "note": 77,
      "start": 5.7063,
      "duration": 0.0721,
      "velocity": 77,
      "chip": "ym2612"
    },
    {
      "channel": 4,
      "note": 53,
      "start": 5.7065,
      "duration": 0.072,
      "velocity": 94,
      "chip": "ym2612"
    },
    {
      "channel": 1,
      "note": 98,
      "start": 5.7085,
      "duration": 0.0698,
      "velocity": 99,
      "chip": "ym2612"
    },
    {
      "channel": 0,
      "note": 99,
      "start": 5.7449,
      "duration": 0.3746,
      "velocity": 99,
      "chip": "ym2612"
    },
    {
      "channel": 1,
      "note": 99,
      "start": 5.7783,
      "duration": 0.3435,
      "velocity": 99,
      "chip": "ym2612"
    },
    {
      "channel": 2,
      "note": 84,
      "start": 5.845,
      "duration": 0.1049,
      "velocity": 77,
      "chip": "ym2612"
    },
    {
      "channel": 3,
      "note": 89,
      "start": 5.8452,
      "duration": 0.1048,
      "velocity": 77,
      "chip": "ym2612"
    },
    {
      "channel": 4,
      "note": 65,
      "start": 5.8454,
      "duration": 0.1047,
      "velocity": 94,
      "chip": "ym2612"
    },
    {
      "channel": 2,
      "note": 84,
      "start": 6.0168,
      "duration": 0.0022,
      "velocity": 77,
      "chip": "ym2612"
    },
    {
      "channel": 3,
      "note": 87,
      "start": 6.0169,
      "duration": 0.002,
      "velocity": 77,
      "chip": "ym2612"
    },
    {
      "channel": 4,
      "note": 53,
      "start": 6.0171,
      "duration": 0.0602,
      "velocity": 94,
      "chip": "ym2612"
    },
    {
      "channel": 2,
      "note": 84,
      "start": 6.0222,
      "duration": 0.0568,
      "velocity": 77,
      "chip": "ym2612"
    },
    {
      "channel": 3,
      "note": 88,
      "start": 6.0224,
      "duration": 0.0567,
      "velocity": 77,
      "chip": "ym2612"
    },
    {
      "channel": 2,
      "note": 77,
      "start": 6.1166,
      "duration": 0.0074,
      "velocity": 77,
      "chip": "ym2612"
    },
    {
      "channel": 3,
      "note": 77,
      "start": 6.1167,
      "duration": 0.0073,
      "velocity": 77,
      "chip": "ym2612"
    },
    {
      "channel": 4,
      "note": 53,
      "start": 6.1169,
      "duration": 0.0072,
      "velocity": 94,
      "chip": "ym2612"
    },
    {
      "channel": 0,
      "note": 97,
      "start": 6.1216,
      "duration": 0.0391,
      "velocity": 99,
      "chip": "ym2612"
    },
    {
      "channel": 1,
      "note": 97,
      "start": 6.1238,
      "duration": 0.0391,
      "velocity": 99,
      "chip": "ym2612"
    },
    {
      "channel": 0,
      "note": 98,
      "start": 6.1607,
      "duration": 0.202,
      "velocity": 99,
      "chip": "ym2612"
    },
    {
      "channel": 2,
      "note": 89,
      "start": 6.161,
      "duration": 0.105,
      "velocity": 77,
      "chip": "ym2612"
    },
    {
      "channel": 3,
      "note": 96,
      "start": 6.1612,
      "duration": 0.1049,
      "velocity": 77,
      "chip": "ym2612"
    },
    {
      "channel": 4,
      "note": 53,
      "start": 6.1614,
      "duration": 0.0017,
      "velocity": 94,
      "chip": "ym2612"
    },
    {
      "channel": 1,
      "note": 98,
      "start": 6.1629,
      "duration": 0.2309,
      "velocity": 99,
      "chip": "ym2612"
    },
    {
      "channel": 4,
      "note": 65,
      "start": 6.2162,
      "duration": 0.0499,
      "velocity": 94,
      "chip": "ym2612"
    },
    {
      "channel": 2,
      "note": 89,
      "start": 6.3327,
      "duration": 0.0018,
      "velocity": 77,
      "chip": "ym2612"
    },
    {
      "channel": 3,
      "note": 92,
      "start": 6.3329,
      "duration": 0.0017,
      "velocity": 77,
      "chip": "ym2612"
    },
    {
      "channel": 4,
      "note": 53,
      "start": 6.3331,
      "duration": 0.0015,
      "velocity": 94,
      "chip": "ym2612"
    },
    {
      "channel": 2,
      "note": 84,
      "start": 6.3555,
      "duration": 0.006,
      "velocity": 77,
      "chip": "ym2612"
    },
    {
      "channel": 3,
      "note": 89,
      "start": 6.3557,
      "duration": 0.0059,
      "velocity": 77,
      "chip": "ym2612"
    },
    {
      "channel": 4,
      "note": 63,
      "start": 6.3559,
      "duration": 0.002,
      "velocity": 94,
      "chip": "ym2612"
    },
    {
      "channel": 4,
      "note": 53,
      "start": 6.3604,
      "duration": 0.0385,
      "velocity": 94,
      "chip": "ym2612"
    },
    {
      "channel": 0,
      "note": 101,
      "start": 6.3936,
      "duration": 0.0383,
      "velocity": 99,
      "chip": "ym2612"
    },
    {
      "channel": 2,
      "note": 87,
      "start": 6.3939,
      "duration": 0.073,
      "velocity": 77,
      "chip": "ym2612"
    },
    {
      "channel": 3,
      "note": 92,
      "start": 6.3941,
      "duration": 0.0729,
      "velocity": 77,
      "chip": "ym2612"
    },
    {
      "channel": 1,
      "note": 101,
      "start": 6.3987,
      "duration": 0.0666,
      "velocity": 99,
      "chip": "ym2612"
    },
    {
      "channel": 4,
      "note": 63,
      "start": 6.4655,
      "duration": 0.0016,
      "velocity": 94,
      "chip": "ym2612"
    },
    {
      "channel": 0,
      "note": 71,
      "start": 6.5209,
      "duration": 0.0386,
      "velocity": 108,
      "chip": "ym2612"
    },
    {
      "channel": 2,
      "note": 68,
      "start": 6.5213,
      "duration": 0.0719,
      "velocity": 77,
      "chip": "ym2612"
    },
    {
      "channel": 3,
      "note": 77,
      "start": 6.5216,
      "duration": 0.0717,
      "velocity": 77,
      "chip": "ym2612"
    },
    {
      "channel": 4,
      "note": 53,
      "start": 6.5217,
      "duration": 0.0716,
      "velocity": 94,
      "chip": "ym2612"
    },
    {
      "channel": 1,
      "note": 71,
      "start": 6.5241,
      "duration": 0.0689,
      "velocity": 108,
      "chip": "ym2612"
    },
    {
      "channel": 0,
      "note": 72,
      "start": 6.5595,
      "duration": 0.0,
      "velocity": 108,
      "chip": "ym2612"
    },
    {
      "channel": 0,
      "note": 77,
      "start": 6.5929,
      "duration": 0.0717,
      "velocity": 108,
      "chip": "ym2612"
    },
    {
      "channel": 1,
      "note": 72,
      "start": 6.5931,
      "duration": 0.0001,
      "velocity": 108,
      "chip": "ym2612"
    },
    {
      "channel": 1,
      "note": 77,
      "start": 6.6263,
      "duration": 0.0718,
      "velocity": 108,
      "chip": "ym2612"
    },
    {
      "channel": 2,
      "note": 84,
      "start": 6.6597,
      "duration": 0.1049,
      "velocity": 77,
      "chip": "ym2612"
    },
    {
      "channel": 3,
      "note": 89,
      "start": 6.6599,
      "duration": 0.1048,
      "velocity": 77,
      "chip": "ym2612"
    },
    {
      "channel": 4,
      "note": 65,
      "start": 6.66,
      "duration": 0.1047,
      "velocity": 94,
      "chip": "ym2612"
    },
    {
      "channel": 0,
      "note": 80,
      "start": 6.6979,
      "duration": 0.0999,
      "velocity": 108,
      "chip": "ym2612"
    },
    {
      "channel": 1,
      "note": 80,
      "start": 6.7313,
      "duration": 0.1002,
      "velocity": 108,
      "chip": "ym2612"
    },
    {
      "channel": 0,
      "note": 71,
      "start": 6.8314,
      "duration": 0.0054,
      "velocity": 108,
      "chip": "ym2612"
    },
    {
      "channel": 2,
      "note": 84,
      "start": 6.8317,
      "duration": 0.0025,
      "velocity": 77,
      "chip": "ym2612"
    },
    {
      "channel": 3,
      "note": 87,
      "start": 6.8319,
      "duration": 0.0024,
      "velocity": 77,
      "chip": "ym2612"
    },
    {
      "channel": 4,
      "note": 53,
      "start": 6.8321,
      "duration": 0.0598,
      "velocity": 94,
      "chip": "ym2612"
    },
    {
      "channel": 1,
      "note": 71,
      "start": 6.8341,
      "duration": 0.0047,
      "velocity": 108,
      "chip": "ym2612"
    },
    {
      "channel": 0,
      "note": 72,
      "start": 6.8368,
      "duration": 0.0001,
      "velocity": 108,
      "chip": "ym2612"
    },
    {
      "channel": 2,
      "note": 84,
      "start": 6.8372,
      "duration": 0.0565,
      "velocity": 77,
      "chip": "ym2612"
    },
    {
      "channel": 3,
      "note": 88,
      "start": 6.8373,
      "duration": 0.0564,
      "velocity": 77,
      "chip": "ym2612"
    },
    {
      "channel": 0,
      "note": 77,
      "start": 6.8386,
      "duration": 0.0549,
      "velocity": 108,
      "chip": "ym2612"
    },
    {
      "channel": 1,
      "note": 72,
      "start": 6.8388,
      "duration": 0.0001,
      "velocity": 108,
      "chip": "ym2612"
    },
    {
      "channel": 1,
      "note": 77,
      "start": 6.8585,
      "duration": 0.0393,
      "velocity": 108,
      "chip": "ym2612"
    },
    {
      "channel": 0,
      "note": 80,
      "start": 6.8977,
      "duration": 0.0365,
      "velocity": 108,
      "chip": "ym2612"
    },
    {
      "channel": 1,
      "note": 80,
      "start": 6.9311,
      "duration": 0.0053,
      "velocity": 108,
      "chip": "ym2612"
    },
    {
      "channel": 2,
      "note": 77,
      "start": 6.9312,
      "duration": 0.0073,
      "velocity": 77,
      "chip": "ym2612"
    },
    {
      "channel": 3,
      "note": 77,
      "start": 6.9315,
      "duration": 0.0072,
      "velocity": 77,
      "chip": "ym2612"
    },
    {
      "channel": 4,
      "note": 53,
      "start": 6.9316,
      "duration": 0.0071,
      "velocity": 94,
      "chip": "ym2612"
    },
    {
      "channel": 0,
      "note": 71,
      "start": 6.9362,
      "duration": 0.0391,
      "velocity": 108,
      "chip": "ym2612"
    },
    {
      "channel": 1,
      "note": 71,
      "start": 6.9384,
      "duration": 0.0392,
      "velocity": 108,
      "chip": "ym2612"
    },
    {
      "channel": 0,
      "note": 72,
      "start": 6.9753,
      "duration": 0.0,
      "velocity": 108,
      "chip": "ym2612"
    },
    {
      "channel": 2,
      "note": 89,
      "start": 6.9756,
      "duration": 0.1049,
      "velocity": 77,
      "chip": "ym2612"
    },
    {
      "channel": 3,
      "note": 96,
      "start": 6.9758,
      "duration": 0.1048,
      "velocity": 77,
      "chip": "ym2612"
    },
    {
      "channel": 4,
      "note": 53,
      "start": 6.976,
      "duration": 0.0018,
      "velocity": 94,
      "chip": "ym2612"
    },
    {
      "channel": 0,
      "note": 77,
      "start": 6.9774,
      "duration": 0.103,
      "velocity": 108,
      "chip": "ym2612"
    },
    {
      "channel": 1,
      "note": 72,
      "start": 6.9776,
      "duration": 0.0001,
      "velocity": 108,
      "chip": "ym2612"
    },
    {
      "channel": 1,
      "note": 77,
      "start": 6.9972,
      "duration": 0.1167,
      "velocity": 108,
      "chip": "ym2612"
    },
    {
      "channel": 4,
      "note": 65,
      "start": 7.0307,
      "duration": 0.0499,
      "velocity": 94,
      "chip": "ym2612"
    },
    {
      "channel": 0,
      "note": 80,
      "start": 7.1138,
      "duration": 0.0366,
      "velocity": 108,
      "chip": "ym2612"
    },
    {
      "channel": 1,
      "note": 80,
      "start": 7.1472,
      "duration": 0.0228,
      "velocity": 108,
      "chip": "ym2612"
    },
    {
      "channel": 2,
      "note": 89,
      "start": 7.1474,
      "duration": 0.0018,
      "velocity": 77,
      "chip": "ym2612"
    },
    {
      "channel": 3,
      "note": 92,
      "start": 7.1476,
      "duration": 0.0017,
      "velocity": 77,
      "chip": "ym2612"
    },
    {
      "channel": 4,
      "note": 53,
      "start": 7.1478,
      "duration": 0.0016,
      "velocity": 94,
      "chip": "ym2612"
    },
    {
      "channel": 0,
      "note": 82,
      "start": 7.17,
      "duration": 0.005,
      "velocity": 108,
      "chip": "ym2612"
    },
    {
      "channel": 2,
      "note": 84,
      "start": 7.1702,
      "duration": 0.0064,
      "velocity": 77,
      "chip": "ym2612"
    },
    {
      "channel": 3,
      "note": 89,
      "start": 7.1704,
      "duration": 0.0063,
      "velocity": 77,
      "chip": "ym2612"
    },
    {
      "channel": 4,
      "note": 63,
      "start": 7.1706,
      "duration": 0.002,
      "velocity": 94,
      "chip": "ym2612"
    },
    {
      "channel": 1,
      "note": 82,
      "start": 7.1724,
      "duration": 0.0041,
      "velocity": 108,
      "chip": "ym2612"
    },
    {
      "channel": 4,
      "note": 53,
      "start": 7.1753,
      "duration": 0.0381,
      "velocity": 94,
      "chip": "ym2612"
    },
    {
      "channel": 0,
      "note": 80,
      "start": 7.1764,
      "duration": 0.0367,
      "velocity": 108,
      "chip": "ym2612"
    },
    {
      "channel": 1,
      "note": 80,
      "start": 7.1779,
      "duration": 0.0688,
      "velocity": 108,
      "chip": "ym2612"
    },
    {
      "channel": 2,
      "note": 87,
      "start": 7.2083,
      "duration": 0.0733,
      "velocity": 77,
      "chip": "ym2612"
    },
    {
      "channel": 3,
      "note": 92,
      "start": 7.2085,
      "duration": 0.0732,
      "velocity": 77,
      "chip": "ym2612"
    },
    {
      "channel": 0,
      "note": 77,
      "start": 7.2466,
      "duration": 0.0551,
      "velocity": 108,
      "chip": "ym2612"
    },
    {
      "channel": 1,
      "note": 77,
      "start": 7.28,
      "duration": 0.0554,
      "velocity": 108,
      "chip": "ym2612"
    },
    {
      "channel": 4,
      "note": 63,
      "start": 7.2803,
      "duration": 0.0015,
      "velocity": 94,
      "chip": "ym2612"
    },
    {
      "channel": 0,
      "note": 82,
      "start": 7.3352,
      "duration": 0.0391,
      "velocity": 108,
      "chip": "ym2612"
    },
    {
      "channel": 2,
      "note": 68,
      "start": 7.3356,
      "duration": 0.0722,
      "velocity": 77,
      "chip": "ym2612"
    },
    {
      "channel": 3,
      "note": 77,
      "start": 7.3357,
      "duration": 0.0721,
      "velocity": 77,
      "chip": "ym2612"
    },
    {
      "channel": 4,
      "note": 53,
      "start": 7.336,
      "duration": 0.0719,
      "velocity": 94,
      "chip": "ym2612"
    },
    {
      "channel": 1,
      "note": 82,
      "start": 7.338,
      "duration": 0.0698,
      "velocity": 108,
      "chip": "ym2612"
    },
    {
      "channel": 0,
      "note": 83,
      "start": 7.3743,
      "duration": 0.2383,
      "velocity": 108,
      "chip": "ym2612"
    },
    {
      "channel": 1,
      "note": 83,
      "start": 7.4077,
      "duration": 0.2385,
      "velocity": 108,
      "chip": "ym2612"
    },
    {
      "channel": 2,
      "note": 84,
      "start": 7.4744,
      "duration": 0.1049,
      "velocity": 77,
      "chip": "ym2612"
    },
    {
      "channel": 3,
      "note": 89,
      "start": 7.4746,
      "duration": 0.1048,
      "velocity": 77,
      "chip": "ym2612"
    },
    {
      "channel": 4,
      "note": 65,
      "start": 7.4748,
      "duration": 0.1047,
      "velocity": 94,
      "chip": "ym2612"
    },
    {
      "channel": 0,
      "note": 83,
      "start": 7.646,
      "duration": 0.0055,
      "velocity": 108,
      "chip": "ym2612"
    },
    {
      "channel": 2,
      "note": 84,
      "start": 7.6463,
      "duration": 0.0023,
      "velocity": 77,
      "chip": "ym2612"
    },
    {
      "channel": 3,
      "note": 87,
      "start": 7.6465,
      "duration": 0.0022,
      "velocity": 77,
      "chip": "ym2612"
    },
    {
      "channel": 4,
      "note": 53,
      "start": 7.6467,
      "duration": 0.0601,
      "velocity": 94,
      "chip": "ym2612"
    },
    {
      "channel": 1,
      "note": 83,
      "start": 7.6486,
      "duration": 0.0049,
      "velocity": 108,
      "chip": "ym2612"
    },
    {
      "channel": 2,
      "note": 84,
      "start": 7.6517,
      "duration": 0.0569,
      "velocity": 77,
      "chip": "ym2612"
    },
    {
      "channel": 3,
      "note": 88,
      "start": 7.6519,
      "duration": 0.0568,
      "velocity": 77,
      "chip": "ym2612"
    },
    {
      "channel": 0,
      "note": 82,
      "start": 7.6533,
      "duration": 0.0552,
      "velocity": 108,
      "chip": "ym2612"
    },
    {
      "channel": 1,
      "note": 82,
      "start": 7.6735,
      "duration": 0.0393,
      "velocity": 108,
      "chip": "ym2612"
    },
    {
      "channel": 0,
      "note": 80,
      "start": 7.7126,
      "duration": 0.0365,
      "velocity": 108,
      "chip": "ym2612"
    },
    {
      "channel": 1,
      "note": 80,
      "start": 7.746,
      "duration": 0.0053,
      "velocity": 108,
      "chip": "ym2612"
    },
    {
      "channel": 2,
      "note": 77,
      "start": 7.7462,
      "duration": 0.0072,
      "velocity": 77,
      "chip": "ym2612"
    },
    {
      "channel": 3,
      "note": 77,
      "start": 7.7464,
      "duration": 0.0071,
      "velocity": 77,
      "chip": "ym2612"
    },
    {
      "channel": 4,
      "note": 53,
      "start": 7.7466,
      "duration": 0.007,
      "velocity": 94,
      "chip": "ym2612"
    },
    {
      "channel": 0,
      "note": 76,
      "start": 7.7511,
      "duration": 0.0392,
      "velocity": 108,
      "chip": "ym2612"
    },
    {
      "channel": 1,
      "note": 76,
      "start": 7.7533,
      "duration": 0.0392,
      "velocity": 108,
      "chip": "ym2612"
    },
    {
      "channel": 0,
      "note": 77,
      "start": 7.7903,
      "duration": 0.3263,
      "velocity": 108,
      "chip": "ym2612"
    },
    {
      "channel": 2,
      "note": 89,
      "start": 7.7906,
      "duration": 0.105,
      "velocity": 77,
      "chip": "ym2612"
    },
    {
      "channel": 3,
      "note": 96,
      "start": 7.7908,
      "duration": 0.1049,
      "velocity": 77,
      "chip": "ym2612"
    },
    {
      "channel": 4,
      "note": 53,
      "start": 7.791,
      "duration": 0.0016,
      "velocity": 94,
      "chip": "ym2612"
    },
    {
      "channel": 1,
      "note": 77,
      "start": 7.7925,
      "duration": 0.3039,
      "velocity": 108,
      "chip": "ym2612"
    },
    {
      "channel": 4,
      "note": 65,
      "start": 7.8458,
      "duration": 0.0499,
      "velocity": 94,
      "chip": "ym2612"
    },
    {
      "channel": 2,
      "note": 89,
      "start": 7.9623,
      "duration": 0.0018,
      "velocity": 77,
      "chip": "ym2612"
    },
    {
      "channel": 3,
      "note": 92,
      "start": 7.9625,
      "duration": 0.0017,
      "velocity": 77,
      "chip": "ym2612"
    },
    {
      "channel": 4,
      "note": 53,
      "start": 7.9627,
      "duration": 0.0015,
      "velocity": 94,
      "chip": "ym2612"
    },
    {
      "channel": 2,
      "note": 84,
      "start": 7.9851,
      "duration": 0.0059,
      "velocity": 77,
      "chip": "ym2612"
    },
    {
      "channel": 3,
      "note": 89,
      "start": 7.9852,
      "duration": 0.0058,
      "velocity": 77,
      "chip": "ym2612"
    },
    {
      "channel": 4,
      "note": 63,
      "start": 7.9854,
      "duration": 0.0019,
      "velocity": 94,
      "chip": "ym2612"
    },
    {
      "channel": 4,
      "note": 53,
      "start": 7.9899,
      "duration": 0.0384,
      "velocity": 94,
      "chip": "ym2612"
    },
    {
      "channel": 2,
      "note": 87,
      "start": 8.0232,
      "duration": 0.0382,
      "velocity": 77,
      "chip": "ym2612"
    },
    {
      "channel": 3,
      "note": 92,
      "start": 8.0234,
      "duration": 0.0715,
      "velocity": 77,
      "chip": "ym2612"
    },
    {
      "channel": 4,
      "note": 63,
      "start": 8.0951,
      "duration": 0.0019,
      "velocity": 94,
      "chip": "ym2612"
    },
    {
      "channel": 0,
      "note": 77,
      "start": 8.1504,
      "duration": 0.5349,
      "velocity": 95,
      "chip": "ym2612"
    },
    {
      "channel": 1,
      "note": 80,
      "start": 8.1506,
      "duration": 0.5348,
      "velocity": 95,
      "chip": "ym2612"
    },
    {
      "channel": 2,
      "note": 82,
      "start": 8.1508,
      "duration": 0.0936,
      "velocity": 97,
      "chip": "ym2612"
    },
    {
      "channel": 3,
      "note": 85,
      "start": 8.151,
      "duration": 0.0935,
      "velocity": 97,
      "chip": "ym2612"
    },
    {
      "channel": 4,
      "note": 58,
      "start": 8.1512,
      "duration": 0.0933,
      "velocity": 94,
      "chip": "ym2612"
    },
    {
      "channel": 2,
      "note": 82,
      "start": 8.3162,
      "duration": 0.0442,
      "velocity": 97,
      "chip": "ym2612"
    },
    {
      "channel": 3,
      "note": 85,
      "start": 8.3164,
      "duration": 0.0441,
      "velocity": 97,
      "chip": "ym2612"
    },
    {
      "channel": 4,
      "note": 70,
      "start": 8.3166,
      "duration": 0.0439,
      "velocity": 94,
      "chip": "ym2612"
    },
    {
      "channel": 2,
      "note": 82,
      "start": 8.3659,
      "duration": 0.0768,
      "velocity": 97,
      "chip": "ym2612"
    },
    {
      "channel": 3,
      "note": 85,
      "start": 8.366,
      "duration": 0.0767,
      "velocity": 97,
      "chip": "ym2612"
    },
    {
      "channel": 4,
      "note": 65,
      "start": 8.3662,
      "duration": 0.0728,
      "velocity": 94,
      "chip": "ym2612"
    },
    {
      "channel": 4,
      "note": 58,
      "start": 8.4429,
      "duration": 0.002,
      "velocity": 94,
      "chip": "ym2612"
    },
    {
      "channel": 2,
      "note": 82,
      "start": 8.4821,
      "duration": 0.0766,
      "velocity": 97,
      "chip": "ym2612"
    },
    {
      "channel": 3,
      "note": 85,
      "start": 8.4822,
      "duration": 0.0765,
      "velocity": 97,
      "chip": "ym2612"
    },
    {
      "channel": 4,
      "note": 70,
      "start": 8.4824,
      "duration": 0.0097,
      "velocity": 94,
      "chip": "ym2612"
    },
    {
      "channel": 4,
      "note": 58,
      "start": 8.5589,
      "duration": 0.0015,
      "velocity": 94,
      "chip": "ym2612"
    },
    {
      "channel": 2,
      "note": 82,
      "start": 8.5637,
      "duration": 0.0406,
      "velocity": 97,
      "chip": "ym2612"
    },
    {
      "channel": 3,
      "note": 85,
      "start": 8.5639,
      "duration": 0.0405,
      "velocity": 97,
      "chip": "ym2612"
    },
    {
      "channel": 4,
      "note": 65,
      "start": 8.5641,
      "duration": 0.0403,
      "velocity": 94,
      "chip": "ym2612"
    },
    {
      "channel": 2,
      "note": 82,
      "start": 8.6582,
      "duration": 0.0068,
      "velocity": 97,
      "chip": "ym2612"
    },
    {
      "channel": 3,
      "note": 85,
      "start": 8.6584,
      "duration": 0.0067,
      "velocity": 97,
      "chip": "ym2612"
    },
    {
      "channel": 4,
      "note": 70,
      "start": 8.6585,
      "duration": 0.0066,
      "velocity": 94,
      "chip": "ym2612"
    },
    {
      "channel": 0,
      "note": 75,
      "start": 8.7187,
      "duration": 0.5357,
      "velocity": 95,
      "chip": "ym2612"
    },
    {
      "channel": 1,
      "note": 79,
      "start": 8.7189,
      "duration": 0.5356,
      "velocity": 95,
      "chip": "ym2612"
    },
    {
      "channel": 2,
      "note": 79,
      "start": 8.7192,
      "duration": 0.094,
      "velocity": 97,
      "chip": "ym2612"
    },
    {
      "channel": 3,
      "note": 82,
      "start": 8.7193,
      "duration": 0.0939,
      "velocity": 97,
      "chip": "ym2612"
    },
    {
      "channel": 4,
      "note": 51,
      "start": 8.7195,
      "duration": 0.0937,
      "velocity": 94,
      "chip": "ym2612"
    },
    {
      "channel": 2,
      "note": 79,
      "start": 8.885,
      "duration": 0.0442,
      "velocity": 97,
      "chip": "ym2612"
    },
    {
      "channel": 3,
      "note": 82,
      "start": 8.8852,
      "duration": 0.0441,
      "velocity": 97,
      "chip": "ym2612"
    },
    {
      "channel": 4,
      "note": 63,
      "start": 8.8854,
      "duration": 0.0439,
      "velocity": 94,
      "chip": "ym2612"
    },
    {
      "channel": 2,
      "note": 79,
      "start": 8.9346,
      "duration": 0.0769,
      "velocity": 97,
      "chip": "ym2612"
    },
    {
      "channel": 3,
      "note": 82,
      "start": 8.9348,
      "duration": 0.0768,
      "velocity": 97,
      "chip": "ym2612"
    },
    {
      "channel": 4,
      "note": 58,
      "start": 8.935,
      "duration": 0.0729,
      "velocity": 94,
      "chip": "ym2612"
    },
    {
      "channel": 4,
      "note": 51,
      "start": 9.0118,
      "duration": 0.0019,
      "velocity": 94,
      "chip": "ym2612"
    },
    {
      "channel": 2,
      "note": 79,
      "start": 9.0508,
      "duration": 0.0766,
      "velocity": 97,
      "chip": "ym2612"
    },
    {
      "channel": 3,
      "note": 82,
      "start": 9.051,
      "duration": 0.0765,
      "velocity": 97,
      "chip": "ym2612"
    },
    {
      "channel": 4,
      "note": 63,
      "start": 9.0512,
      "duration": 0.0097,
      "velocity": 94,
      "chip": "ym2612"
    },
    {
      "channel": 4,
      "note": 58,
      "start": 9.1277,
      "duration": 0.0015,
      "velocity": 94,
      "chip": "ym2612"
    },
    {
      "channel": 2,
      "note": 79,
      "start": 9.1329,
      "duration": 0.0406,
      "velocity": 97,
      "chip": "ym2612"
    },
    {
      "channel": 3,
      "note": 82,
      "start": 9.133,
      "duration": 0.0405,
      "velocity": 97,
      "chip": "ym2612"
    },
    {
      "channel": 4,
      "note": 51,
      "start": 9.1332,
      "duration": 0.0404,
      "velocity": 94,
      "chip": "ym2612"
    },
    {
      "channel": 2,
      "note": 79,
      "start": 9.2273,
      "duration": 0.0068,
      "velocity": 97,
      "chip": "ym2612"
    },
    {
      "channel": 3,
      "note": 82,
      "start": 9.2274,
      "duration": 0.0067,
      "velocity": 97,
      "chip": "ym2612"
    },
    {
      "channel": 4,
      "note": 63,
      "start": 9.2276,
      "duration": 0.0066,
      "velocity": 94,
      "chip": "ym2612"
    },
    {
      "channel": 0,
      "note": 74,
      "start": 9.2878,
      "duration": 0.4716,
      "velocity": 95,
      "chip": "ym2612"
    },
    {
      "channel": 1,
      "note": 77,
      "start": 9.288,
      "duration": 0.4511,
      "velocity": 95,
      "chip": "ym2612"
    },
    {
      "channel": 2,
      "note": 77,
      "start": 9.2883,
      "duration": 0.1107,
      "velocity": 97,
      "chip": "ym2612"
    },
    {
      "channel": 3,
      "note": 82,
      "start": 9.2884,
      "duration": 0.1105,
      "velocity": 97,
      "chip": "ym2612"
    },
    {
      "channel": 4,
      "note": 50,
      "start": 9.2886,
      "duration": 0.1104,
      "velocity": 94,
      "chip": "ym2612"
    },
    {
      "channel": 2,
      "note": 77,
      "start": 9.4542,
      "duration": 0.0281,
      "velocity": 97,
      "chip": "ym2612"
    },
    {
      "channel": 3,
      "note": 82,
      "start": 9.4544,
      "duration": 0.028,
      "velocity": 97,
      "chip": "ym2612"
    },
    {
      "channel": 4,
      "note": 62,
      "start": 9.4546,
      "duration": 0.0279,
      "velocity": 94,
      "chip": "ym2612"
    },
    {
      "channel": 2,
      "note": 77,
      "start": 9.4882,
      "duration": 0.0608,
      "velocity": 97,
      "chip": "ym2612"
    },
    {
      "channel": 3,
      "note": 82,
      "start": 9.4884,
      "duration": 0.0607,
      "velocity": 97,
      "chip": "ym2612"
    },
    {
      "channel": 4,
      "note": 58,
      "start": 9.4886,
      "duration": 0.0562,
      "velocity": 94,
      "chip": "ym2612"
    },
    {
      "channel": 4,
      "note": 50,
      "start": 9.5492,
      "duration": 0.0015,
      "velocity": 94,
      "chip": "ym2612"
    },
    {
      "channel": 2,
      "note": 77,
      "start": 9.5718,
      "duration": 0.0604,
      "velocity": 97,
      "chip": "ym2612"
    },
    {
      "channel": 3,
      "note": 82,
      "start": 9.572,
      "duration": 0.0603,
      "velocity": 97,
      "chip": "ym2612"
    },
    {
      "channel": 4,
      "note": 62,
      "start": 9.5722,
      "duration": 0.0066,
      "velocity": 94,
      "chip": "ym2612"
    },
    {
      "channel": 4,
      "note": 58,
      "start": 9.6325,
      "duration": 0.0015,
      "velocity": 94,
      "chip": "ym2612"
    },
    {
      "channel": 2,
      "note": 77,
      "start": 9.6381,
      "duration": 0.0241,
      "velocity": 97,
      "chip": "ym2612"
    },
    {
      "channel": 3,
      "note": 82,
      "start": 9.6383,
      "duration": 0.0239,
      "velocity": 97,
      "chip": "ym2612"
    },
    {
      "channel": 4,
      "note": 50,
      "start": 9.6385,
      "duration": 0.0238,
      "velocity": 94,
      "chip": "ym2612"
    },
    {
      "channel": 2,
      "note": 77,
      "start": 9.7327,
      "duration": 0.0065,
      "velocity": 97,
      "chip": "ym2612"
    },
    {
      "channel": 3,
      "note": 82,
      "start": 9.7329,
      "duration": 0.0064,
      "velocity": 97,
      "chip": "ym2612"
    },
    {
      "channel": 4,
      "note": 62,
      "start": 9.7331,
      "duration": 0.0062,
      "velocity": 94,
      "chip": "ym2612"
    },
    {
      "channel": 0,
      "note": 80,
      "start": 9.8098,
      "duration": 0.1158,
      "velocity": 108,
      "chip": "ym2612"
    },
    {
      "channel": 1,
      "note": 85,
      "start": 9.81,
      "duration": 0.1157,
      "velocity": 108,
      "chip": "ym2612"
    },
    {
      "channel": 2,
      "note": 77,
      "start": 9.8102,
      "duration": 0.0937,
      "velocity": 97,
      "chip": "ym2612"
    },
    {
      "channel": 3,
      "note": 80,
      "start": 9.8104,
      "duration": 0.0936,
      "velocity": 97,
      "chip": "ym2612"
    },
    {
      "channel": 4,
      "note": 49,
      "start": 9.8107,
      "duration": 0.0934,
      "velocity": 94,
      "chip": "ym2612"
    },
    {
      "channel": 0,
      "note": 85,
      "start": 9.9591,
      "duration": 0.0308,
      "velocity": 108,
      "chip": "ym2612"
    },
    {
      "channel": 1,
      "note": 89,
      "start": 9.9593,
      "duration": 0.0307,
      "velocity": 108,
      "chip": "ym2612"
    },
    {
      "channel": 2,
      "note": 77,
      "start": 9.9595,
      "duration": 0.0278,
      "velocity": 97,
      "chip": "ym2612"
    },
    {
      "channel": 3,
      "note": 80,
      "start": 9.9597,
      "duration": 0.0277,
      "velocity": 97,
      "chip": "ym2612"
    },
    {
      "channel": 4,
      "note": 61,
      "start": 9.9599,
      "duration": 0.0275,
      "velocity": 94,
      "chip": "ym2612"
    },
    {
      "channel": 0,
      "note": 89,
      "start": 9.993,
      "duration": 0.0578,
      "velocity": 108,
      "chip": "ym2612"
    },
    {
      "channel": 1,
      "note": 92,
      "start": 9.9932,
      "duration": 0.0577,
      "velocity": 108,
      "chip": "ym2612"
    },
    {
      "channel": 2,
      "note": 77,
      "start": 9.9934,
      "duration": 0.0563,
      "velocity": 97,
      "chip": "ym2612"
    },
    {
      "channel": 3,
      "note": 80,
      "start": 9.9936,
      "duration": 0.0561,
      "velocity": 97,
      "chip": "ym2612"
    },
    {
      "channel": 4,
      "note": 56,
      "start": 9.9939,
      "duration": 0.0559,
      "velocity": 94,
      "chip": "ym2612"
    },
    {
      "channel": 0,
      "note": 82,
      "start": 10.054,
      "duration": 0.0501,
      "velocity": 108,
      "chip": "ym2612"
    },
    {
      "channel": 1,
      "note": 87,
      "start": 10.0541,
      "duration": 0.05,
      "velocity": 108,
      "chip": "ym2612"
    },
    {
      "channel": 2,
      "note": 79,
      "start": 10.0544,
      "duration": 0.028,
      "velocity": 97,
      "chip": "ym2612"
    },
    {
      "channel": 3,
      "note": 82,
      "start": 10.0545,
      "duration": 0.0279,
      "velocity": 97,
      "chip": "ym2612"
    },
    {
      "channel": 4,
      "note": 51,
      "start": 10.0548,
      "duration": 0.0277,
      "velocity": 94,
      "chip": "ym2612"
    },
    {
      "channel": 0,
      "note": 87,
      "start": 10.1375,
      "duration": 0.0499,
      "velocity": 108,
      "chip": "ym2612"
    },
    {
      "channel": 1,
      "note": 91,
      "start": 10.1377,
      "duration": 0.0498,
      "velocity": 108,
      "chip": "ym2612"
    },
    {
      "channel": 2,
      "note": 79,
      "start": 10.1379,
      "duration": 0.0278,
      "velocity": 97,
      "chip": "ym2612"
    },
    {
      "channel": 3,
      "note": 82,
      "start": 10.138,
      "duration": 0.0277,
      "velocity": 97,
      "chip": "ym2612"
    },
    {
      "channel": 4,
      "note": 63,
      "start": 10.1383,
      "duration": 0.0275,
      "velocity": 94,
      "chip": "ym2612"
    },
    {
      "channel": 0,
      "note": 91,
      "start": 10.2375,
      "duration": 0.0268,
      "velocity": 108,
      "chip": "ym2612"
    },
    {
      "channel": 1,
      "note": 94,
      "start": 10.2377,
      "duration": 0.0063,
      "velocity": 108,
      "chip": "ym2612"
    },
    {
      "channel": 2,
      "note": 79,
      "start": 10.2379,
      "duration": 0.0062,
      "velocity": 97,
      "chip": "ym2612"
    },
    {
      "channel": 3,
      "note": 82,
      "start": 10.2381,
      "duration": 0.0061,
      "velocity": 97,
      "chip": "ym2612"
    },
    {
      "channel": 4,
      "note": 58,
      "start": 10.2383,
      "duration": 0.0059,
      "velocity": 94,
      "chip": "ym2612"
    },
    {
      "channel": 0,
      "note": 85,
      "start": 10.3149,
      "duration": 0.4544,
      "velocity": 95,
      "chip": "ym2612"
    },
    {
      "channel": 1,
      "note": 89,
      "start": 10.315,
      "duration": 0.4544,
      "velocity": 95,
      "chip": "ym2612"
    },
    {
      "channel": 2,
      "note": 82,
      "start": 10.3152,
      "duration": 0.0937,
      "velocity": 97,
      "chip": "ym2612"
    },
    {
      "channel": 3,
      "note": 85,
      "start": 10.3154,
      "duration": 0.0936,
      "velocity": 97,
      "chip": "ym2612"
    },
    {
      "channel": 4,
      "note": 58,
      "start": 10.3156,
      "duration": 0.0935,
      "velocity": 94,
      "chip": "ym2612"
    },
    {
      "channel": 2,
      "note": 82,
      "start": 10.4643,
      "duration": 0.0281,
      "velocity": 97,
      "chip": "ym2612"
    },
    {
      "channel": 3,
      "note": 85,
      "start": 10.4645,
      "duration": 0.028,
      "velocity": 97,
      "chip": "ym2612"
    },
    {
      "channel": 4,
      "note": 70,
      "start": 10.4646,
      "duration": 0.0279,
      "velocity": 94,
      "chip": "ym2612"
    },
    {
      "channel": 2,
      "note": 82,
      "start": 10.4983,
      "duration": 0.0607,
      "velocity": 97,
      "chip": "ym2612"
    },
    {
      "channel": 3,
      "note": 85,
      "start": 10.4985,
      "duration": 0.0606,
      "velocity": 97,
      "chip": "ym2612"
    },
    {
      "channel": 4,
      "note": 65,
      "start": 10.4986,
      "duration": 0.0562,
      "velocity": 94,
      "chip": "ym2612"
    },
    {
      "channel": 4,
      "note": 58,
      "start": 10.5593,
      "duration": 0.0015,
      "velocity": 94,
      "chip": "ym2612"
    },
    {
      "channel": 2,
      "note": 82,
      "start": 10.5819,
      "duration": 0.0605,
      "velocity": 97,
      "chip": "ym2612"
    },
    {
      "channel": 3,
      "note": 85,
      "start": 10.582,
      "duration": 0.0604,
      "velocity": 97,
      "chip": "ym2612"
    },
    {
      "channel": 4,
      "note": 70,
      "start": 10.5822,
      "duration": 0.0066,
      "velocity": 94,
      "chip": "ym2612"
    },
    {
      "channel": 4,
      "note": 58,
      "start": 10.6426,
      "duration": 0.0015,
      "velocity": 94,
      "chip": "ym2612"
    },
    {
      "channel": 2,
      "note": 82,
      "start": 10.6481,
      "duration": 0.0241,
      "velocity": 97,
      "chip": "ym2612"
    },
    {
      "channel": 3,
      "note": 85,
      "start": 10.6483,
      "duration": 0.0239,
      "velocity": 97,
      "chip": "ym2612"
    },
    {
      "channel": 4,
      "note": 65,
      "start": 10.6485,
      "duration": 0.0238,
      "velocity": 94,
      "chip": "ym2612"
    },
    {
      "channel": 2,
      "note": 82,
      "start": 10.7427,
      "duration": 0.0064,
      "velocity": 97,
      "chip": "ym2612"
    },
    {
      "channel": 3,
      "note": 85,
      "start": 10.7428,
      "duration": 0.0063,
      "velocity": 97,
      "chip": "ym2612"
    },
    {
      "channel": 4,
      "note": 70,
      "start": 10.743,
      "duration": 0.0061,
      "velocity": 94,
      "chip": "ym2612"
    },
    {
      "channel": 0,
      "note": 82,
      "start": 10.8194,
      "duration": 0.455,
      "velocity": 95,
      "chip": "ym2612"
    },
    {
      "channel": 1,
      "note": 87,
      "start": 10.8196,
      "duration": 0.455,
      "velocity": 95,
      "chip": "ym2612"
    },
    {
      "channel": 2,
      "note": 79,
      "start": 10.8198,
      "duration": 0.0941,
      "velocity": 97,
      "chip": "ym2612"
    },
    {
      "channel": 3,
      "note": 82,
      "start": 10.82,
      "duration": 0.094,
      "velocity": 97,
      "chip": "ym2612"
    },
    {
      "channel": 4,
      "note": 51,
      "start": 10.8202,
      "duration": 0.0938,
      "velocity": 94,
      "chip": "ym2612"
    },
    {
      "channel": 2,
      "note": 79,
      "start": 10.9692,
      "duration": 0.0281,
      "velocity": 97,
      "chip": "ym2612"
    },
    {
      "channel": 3,
      "note": 82,
      "start": 10.9694,
      "duration": 0.028,
      "velocity": 97,
      "chip": "ym2612"
    },
    {
      "channel": 4,
      "note": 63,
      "start": 10.9696,
      "duration": 0.0279,
      "velocity": 94,
      "chip": "ym2612"
    },
    {
      "channel": 2,
      "note": 79,
      "start": 11.0032,
      "duration": 0.0608,
      "velocity": 97,
      "chip": "ym2612"
    },
    {
      "channel": 3,
      "note": 82,
      "start": 11.0034,
      "duration": 0.0607,
      "velocity": 97,
      "chip": "ym2612"
    },
    {
      "channel": 4,
      "note": 58,
      "start": 11.0035,
      "duration": 0.0562,
      "velocity": 94,
      "chip": "ym2612"
    },
    {
      "channel": 4,
      "note": 51,
      "start": 11.0642,
      "duration": 0.0015,
      "velocity": 94,
      "chip": "ym2612"
    },
    {
      "channel": 2,
      "note": 79,
      "start": 11.0868,
      "duration": 0.0605,
      "velocity": 97,
      "chip": "ym2612"
    },
    {
      "channel": 3,
      "note": 82,
      "start": 11.087,
      "duration": 0.0604,
      "velocity": 97,
      "chip": "ym2612"
    },
    {
      "channel": 4,
      "note": 63,
      "start": 11.0872,
      "duration": 0.0065,
      "velocity": 94,
      "chip": "ym2612"
    },
    {
      "channel": 4,
      "note": 58,
      "start": 11.1476,
      "duration": 0.0015,
      "velocity": 94,
      "chip": "ym2612"
    },
    {
      "channel": 2,
      "note": 79,
      "start": 11.1532,
      "duration": 0.0241,
      "velocity": 97,
      "chip": "ym2612"
    },
    {
      "channel": 3,
      "note": 82,
      "start": 11.1534,
      "duration": 0.0239,
      "velocity": 97,
      "chip": "ym2612"
    },
    {
      "channel": 4,
      "note": 51,
      "start": 11.1536,
      "duration": 0.0238,
      "velocity": 94,
      "chip": "ym2612"
    },
    {
      "channel": 2,
      "note": 79,
      "start": 11.2478,
      "duration": 0.0063,
      "velocity": 97,
      "chip": "ym2612"
    },
    {
      "channel": 3,
      "note": 82,
      "start": 11.248,
      "duration": 0.0062,
      "velocity": 97,
      "chip": "ym2612"
    },
    {
      "channel": 4,
      "note": 63,
      "start": 11.2482,
      "duration": 0.0061,
      "velocity": 94,
      "chip": "ym2612"
    },
    {
      "channel": 0,
      "note": 82,
      "start": 11.3246,
      "duration": 0.455,
      "velocity": 95,
      "chip": "ym2612"
    },
    {
      "channel": 1,
      "note": 86,
      "start": 11.3247,
      "duration": 0.4549,
      "velocity": 95,
      "chip": "ym2612"
    },
    {
      "channel": 2,
      "note": 77,
      "start": 11.3249,
      "duration": 0.0941,
      "velocity": 97,
      "chip": "ym2612"
    },
    {
      "channel": 3,
      "note": 82,
      "start": 11.3251,
      "duration": 0.094,
      "velocity": 97,
      "chip": "ym2612"
    },
    {
      "channel": 4,
      "note": 50,
      "start": 11.3254,
      "duration": 0.0938,
      "velocity": 94,
      "chip": "ym2612"
    },
    {
      "channel": 2,
      "note": 77,
      "start": 11.4744,
      "duration": 0.0281,
      "velocity": 97,
      "chip": "ym2612"
    },
    {
      "channel": 3,
      "note": 82,
      "start": 11.4746,
      "duration": 0.028,
      "velocity": 97,
      "chip": "ym2612"
    },
    {
      "channel": 4,
      "note": 62,
      "start": 11.4747,
      "duration": 0.0279,
      "velocity": 94,
      "chip": "ym2612"
    },
    {
      "channel": 2,
      "note": 77,
      "start": 11.5084,
      "duration": 0.0608,
      "velocity": 97,
      "chip": "ym2612"
    },
    {
      "channel": 3,
      "note": 82,
      "start": 11.5086,
      "duration": 0.0607,
      "velocity": 97,
      "chip": "ym2612"
    },
    {
      "channel": 4,
      "note": 58,
      "start": 11.5088,
      "duration": 0.0562,
      "velocity": 94,
      "chip": "ym2612"
    },
    {
      "channel": 4,
      "note": 50,
      "start": 11.5694,
      "duration": 0.0016,
      "velocity": 94,
      "chip": "ym2612"
    },
    {
      "channel": 2,
      "note": 77,
      "start": 11.5921,
      "duration": 0.0604,
      "velocity": 97,
      "chip": "ym2612"
    },
    {
      "channel": 3,
      "note": 82,
      "start": 11.5922,
      "duration": 0.0603,
      "velocity": 97,
      "chip": "ym2612"
    },
    {
      "channel": 4,
      "note": 62,
      "start": 11.5924,
      "duration": 0.0065,
      "velocity": 94,
      "chip": "ym2612"
    },
    {
      "channel": 4,
      "note": 58,
      "start": 11.6527,
      "duration": 0.0015,
      "velocity": 94,
      "chip": "ym2612"
    },
    {
      "channel": 2,
      "note": 77,
      "start": 11.6583,
      "duration": 0.0239,
      "velocity": 97,
      "chip": "ym2612"
    },
    {
      "channel": 3,
      "note": 82,
      "start": 11.6585,
      "duration": 0.0238,
      "velocity": 97,
      "chip": "ym2612"
    },
    {
      "channel": 4,
      "note": 50,
      "start": 11.6586,
      "duration": 0.0237,
      "velocity": 94,
      "chip": "ym2612"
    },
    {
      "channel": 2,
      "note": 77,
      "start": 11.7528,
      "duration": 0.0064,
      "velocity": 97,
      "chip": "ym2612"
    },
    {
      "channel": 3,
      "note": 82,
      "start": 11.7529,
      "duration": 0.0063,
      "velocity": 97,
      "chip": "ym2612"
    },
    {
      "channel": 4,
      "note": 62,
      "start": 11.7531,
      "duration": 0.0062,
      "velocity": 94,
      "chip": "ym2612"
    },
    {
      "channel": 0,
      "note": 83,
      "start": 11.83,
      "duration": 0.005,
      "velocity": 108,
      "chip": "ym2612"
    },
    {
      "channel": 2,
      "note": 73,
      "start": 11.8302,
      "duration": 0.0035,
      "velocity": 97,
      "chip": "ym2612"
    },
    {
      "channel": 3,
      "note": 77,
      "start": 11.8305,
      "duration": 0.0034,
      "velocity": 97,
      "chip": "ym2612"
    },
    {
      "channel": 4,
      "note": 61,
      "start": 11.8306,
      "duration": 0.0033,
      "velocity": 94,
      "chip": "ym2612"
    },
    {
      "channel": 1,
      "note": 83,
      "start": 11.8325,
      "duration": 0.0039,
      "velocity": 108,
      "chip": "ym2612"
    },
    {
      "channel": 0,
      "note": 80,
      "start": 11.8363,
      "duration": 0.005,
      "velocity": 108,
      "chip": "ym2612"
    },
    {
      "channel": 2,
      "note": 73,
      "start": 11.8365,
      "duration": 0.0035,
      "velocity": 97,
      "chip": "ym2612"
    },
    {
      "channel": 3,
      "note": 77,
      "start": 11.8368,
      "duration": 0.0034,
      "velocity": 97,
      "chip": "ym2612"
    },
    {
      "channel": 4,
      "note": 61,
      "start": 11.837,
      "duration": 0.0032,
      "velocity": 94,
      "chip": "ym2612"
    },
    {
      "channel": 1,
      "note": 80,
      "start": 11.8384,
      "duration": 0.0043,
      "velocity": 108,
      "chip": "ym2612"
    },
    {
      "channel": 0,
      "note": 77,
      "start": 11.8426,
      "duration": 0.0046,
      "velocity": 108,
      "chip": "ym2612"
    },
    {
      "channel": 2,
      "note": 73,
      "start": 11.8428,
      "duration": 0.0032,
      "velocity": 97,
      "chip": "ym2612"
    },
    {
      "channel": 3,
      "note": 77,
      "start": 11.8431,
      "duration": 0.003,
      "velocity": 97,
      "chip": "ym2612"
    },
    {
      "channel": 4,
      "note": 61,
      "start": 11.8433,
      "duration": 0.0029,
      "velocity": 94,
      "chip": "ym2612"
    },
    {
      "channel": 1,
      "note": 77,
      "start": 11.8447,
      "duration": 0.0044,
      "velocity": 108,
      "chip": "ym2612"
    },
    {
      "channel": 0,
      "note": 80,
      "start": 11.849,
      "duration": 0.0046,
      "velocity": 108,
      "chip": "ym2612"
    },
    {
      "channel": 2,
      "note": 73,
      "start": 11.8493,
      "duration": 0.0128,
      "velocity": 97,
      "chip": "ym2612"
    },
    {
      "channel": 3,
      "note": 77,
      "start": 11.8495,
      "duration": 0.0126,
      "velocity": 97,
      "chip": "ym2612"
    },
    {
      "channel": 4,
      "note": 61,
      "start": 11.8497,
      "duration": 0.0126,
      "velocity": 94,
      "chip": "ym2612"
    },
    {
      "channel": 1,
      "note": 80,
      "start": 11.8511,
      "duration": 0.0039,
      "velocity": 108,
      "chip": "ym2612"
    },
    {
      "channel": 0,
      "note": 77,
      "start": 11.8549,
      "duration": 0.0043,
      "velocity": 108,
      "chip": "ym2612"
    },
    {
      "channel": 1,
      "note": 77,
      "start": 11.8564,
      "duration": 0.0043,
      "velocity": 108,
      "chip": "ym2612"
    },
    {
      "channel": 0,
      "note": 73,
      "start": 11.8605,
      "duration": 0.004,
      "velocity": 108,
      "chip": "ym2612"
    },
    {
      "channel": 1,
      "note": 73,
      "start": 11.862,
      "duration": 0.0045,
      "velocity": 108,
      "chip": "ym2612"
    },
    {
      "channel": 0,
      "note": 79,
      "start": 11.8664,
      "duration": 0.0044,
      "velocity": 108,
      "chip": "ym2612"
    },
    {
      "channel": 2,
      "note": 75,
      "start": 11.8666,
      "duration": 0.0029,
      "velocity": 97,
      "chip": "ym2612"
    },
    {
      "channel": 3,
      "note": 79,
      "start": 11.8669,
      "duration": 0.0027,
      "velocity": 97,
      "chip": "ym2612"
    },
    {
      "channel": 4,
      "note": 63,
      "start": 11.8671,
      "duration": 0.0026,
      "velocity": 94,
      "chip": "ym2612"
    },
    {
      "channel": 1,
      "note": 79,
      "start": 11.8683,
      "duration": 0.0046,
      "velocity": 108,
      "chip": "ym2612"
    },
    {
      "channel": 0,
      "note": 75,
      "start": 11.8727,
      "duration": 0.0049,
      "velocity": 108,
      "chip": "ym2612"
    },
    {
      "channel": 2,
      "note": 75,
      "start": 11.873,
      "duration": 0.0036,
      "velocity": 97,
      "chip": "ym2612"
    },
    {
      "channel": 3,
      "note": 79,
      "start": 11.8732,
      "duration": 0.0034,
      "velocity": 97,
      "chip": "ym2612"
    },
    {
      "channel": 4,
      "note": 63,
      "start": 11.8734,
      "duration": 0.0033,
      "velocity": 94,
      "chip": "ym2612"
    },
    {
      "channel": 1,
      "note": 75,
      "start": 11.8749,
      "duration": 0.0044,
      "velocity": 108,
      "chip": "ym2612"
    },
    {
      "channel": 0,
      "note": 73,
      "start": 11.8791,
      "duration": 0.0046,
      "velocity": 108,
      "chip": "ym2612"
    },
    {
      "channel": 2,
      "note": 75,
      "start": 11.8793,
      "duration": 0.0032,
      "velocity": 97,
      "chip": "ym2612"
    },
    {
      "channel": 3,
      "note": 79,
      "start": 11.8796,
      "duration": 0.003,
      "velocity": 97,
      "chip": "ym2612"
    },
    {
      "channel": 4,
      "note": 63,
      "start": 11.8798,
      "duration": 0.0029,
      "velocity": 94,
      "chip": "ym2612"
    },
    {
      "channel": 1,
      "note": 73,
      "start": 11.8812,
      "duration": 0.0044,
      "velocity": 108,
      "chip": "ym2612"
    },
    {
      "channel": 0,
      "note": 70,
      "start": 11.8855,
      "duration": 0.0172,
      "velocity": 108,
      "chip": "ym2612"
    },
    {
      "channel": 2,
      "note": 75,
      "start": 11.8858,
      "duration": 0.0124,
      "velocity": 97,
      "chip": "ym2612"
    },
    {
      "channel": 3,
      "note": 79,
      "start": 11.886,
      "duration": 0.0083,
      "velocity": 97,
      "chip": "ym2612"
    },
    {
      "channel": 4,
      "note": 63,
      "start": 11.8862,
      "duration": 0.0122,
      "velocity": 94,
      "chip": "ym2612"
    },
    {
      "channel": 1,
      "note": 70,
      "start": 11.8876,
      "duration": 0.0152,
      "velocity": 108,
      "chip": "ym2612"
    },
    {
      "channel": 0,
      "note": 70,
      "start": 11.9027,
      "duration": 0.7762,
      "velocity": 108,
      "chip": "ym2612"
    },
    {
      "channel": 2,
      "note": 72,
      "start": 11.9034,
      "duration": 0.0552,
      "velocity": 77,
      "chip": "ym2612"
    },
    {
      "channel": 3,
      "note": 72,
      "start": 11.9036,
      "duration": 0.0551,
      "velocity": 77,
      "chip": "ym2612"
    },
    {
      "channel": 4,
      "note": 60,
      "start": 11.9038,
      "duration": 0.0549,
      "velocity": 94,
      "chip": "ym2612"
    },
    {
      "channel": 1,
      "note": 70,
      "start": 11.9053,
      "duration": 0.8073,
      "velocity": 108,
      "chip": "ym2612"
    },
    {
      "channel": 2,
      "note": 91,
      "start": 12.0421,
      "duration": 0.0559,
      "velocity": 77,
      "chip": "ym2612"
    },
    {
      "channel": 3,
      "note": 94,
      "start": 12.0423,
      "duration": 0.0558,
      "velocity": 77,
      "chip": "ym2612"
    },
    {
      "channel": 4,
      "note": 72,
      "start": 12.0425,
      "duration": 0.0557,
      "velocity": 94,
      "chip": "ym2612"
    },
    {
      "channel": 2,
      "note": 91,
      "start": 12.1815,
      "duration": 0.0019,
      "velocity": 77,
      "chip": "ym2612"
    },
    {
      "channel": 3,
      "note": 96,
      "start": 12.1817,
      "duration": 0.0017,
      "velocity": 77,
      "chip": "ym2612"
    },
    {
      "channel": 4,
      "note": 60,
      "start": 12.1819,
      "duration": 0.0761,
      "velocity": 94,
      "chip": "ym2612"
    },
    {
      "channel": 2,
      "note": 91,
      "start": 12.1862,
      "duration": 0.0733,
      "velocity": 77,
      "chip": "ym2612"
    },
    {
      "channel": 3,
      "note": 94,
      "start": 12.1864,
      "duration": 0.0732,
      "velocity": 77,
      "chip": "ym2612"
    },
    {
      "channel": 2,
      "note": 72,
      "start": 12.2807,
      "duration": 0.105,
      "velocity": 77,
      "chip": "ym2612"
    },
    {
      "channel": 3,
      "note": 79,
      "start": 12.281,
      "duration": 0.1049,
      "velocity": 77,
      "chip": "ym2612"
    },
    {
      "channel": 4,
      "note": 60,
      "start": 12.2811,
      "duration": 0.1047,
      "velocity": 94,
      "chip": "ym2612"
    },
    {
      "channel": 2,
      "note": 94,
      "start": 12.4525,
      "duration": 0.0068,
      "velocity": 77,
      "chip": "ym2612"
    },
    {
      "channel": 3,
      "note": 100,
      "start": 12.4527,
      "duration": 0.0067,
      "velocity": 77,
      "chip": "ym2612"
    },
    {
      "channel": 4,
      "note": 60,
      "start": 12.4529,
      "duration": 0.0016,
      "velocity": 94,
      "chip": "ym2612"
    },
    {
      "channel": 4,
      "note": 72,
      "start": 12.4578,
      "duration": 0.0017,
      "velocity": 94,
      "chip": "ym2612"
    },
    {
      "channel": 2,
      "note": 91,
      "start": 12.5129,
      "duration": 0.0019,
      "velocity": 77,
      "chip": "ym2612"
    },
    {
      "channel": 3,
      "note": 94,
      "start": 12.5132,
      "duration": 0.0017,
      "velocity": 77,
      "chip": "ym2612"
    },
    {
      "channel": 4,
      "note": 60,
      "start": 12.5133,
      "duration": 0.0016,
      "velocity": 94,
      "chip": "ym2612"
    },
    {
      "channel": 2,
      "note": 91,
      "start": 12.5523,
      "duration": 0.0061,
      "velocity": 77,
      "chip": "ym2612"
    },
    {
      "channel": 3,
      "note": 96,
      "start": 12.5525,
      "duration": 0.0059,
      "velocity": 77,
      "chip": "ym2612"
    },
    {
      "channel": 4,
      "note": 70,
      "start": 12.5527,
      "duration": 0.0016,
      "velocity": 94,
      "chip": "ym2612"
    },
    {
      "channel": 4,
      "note": 60,
      "start": 12.5572,
      "duration": 0.0353,
      "velocity": 94,
      "chip": "ym2612"
    },
    {
      "channel": 2,
      "note": 91,
      "start": 12.5907,
      "duration": 0.0884,
      "velocity": 77,
      "chip": "ym2612"
    },
    {
      "channel": 3,
      "note": 94,
      "start": 12.5909,
      "duration": 0.0883,
      "velocity": 77,
      "chip": "ym2612"
    },
    {
      "channel": 4,
      "note": 70,
      "start": 12.6457,
      "duration": 0.0335,
      "velocity": 94,
      "chip": "ym2612"
    },
    {
      "channel": 0,
      "note": 70,
      "start": 12.6789,
      "duration": 0.0,
      "velocity": 108,
      "chip": "ym2612"
    },
    {
      "channel": 1,
      "note": 70,
      "start": 12.7127,
      "duration": 0.0,
      "velocity": 108,
      "chip": "ym2612"
    },
    {
      "channel": 0,
      "note": 87,
      "start": 12.7623,
      "duration": 0.139,
      "velocity": 98,
      "chip": "ym2612"
    },
    {
      "channel": 1,
      "note": 88,
      "start": 12.763,
      "duration": 0.1416,
      "velocity": 98,
      "chip": "ym2612"
    },
    {
      "channel": 2,
      "note": 72,
      "start": 12.7632,
      "duration": 0.0549,
      "velocity": 77,
      "chip": "ym2612"
    },
    {
      "channel": 3,
      "note": 72,
      "start": 12.7634,
      "duration": 0.0547,
      "velocity": 77,
      "chip": "ym2612"
    },
    {
      "channel": 4,
      "note": 60,
      "start": 12.7636,
      "duration": 0.0546,
      "velocity": 94,
      "chip": "ym2612"
    },
    {
      "channel": 0,
      "note": 88,
      "start": 12.9013,
      "duration": 0.0032,
      "velocity": 98,
      "chip": "ym2612"
    },
    {
      "channel": 2,
      "note": 91,
      "start": 12.9016,
      "duration": 0.0018,
      "velocity": 77,
      "chip": "ym2612"
    },
    {
      "channel": 3,
      "note": 94,
      "start": 12.9018,
      "duration": 0.0017,
      "velocity": 77,
      "chip": "ym2612"
    },
    {
      "channel": 4,
      "note": 60,
      "start": 12.902,
      "duration": 0.0015,
      "velocity": 94,
      "chip": "ym2612"
    },
    {
      "channel": 0,
      "note": 87,
      "start": 12.9241,
      "duration": 0.0102,
      "velocity": 98,
      "chip": "ym2612"
    },
    {
      "channel": 1,
      "note": 88,
      "start": 12.9244,
      "duration": 0.0318,
      "velocity": 98,
      "chip": "ym2612"
    },
    {
      "channel": 2,
      "note": 91,
      "start": 12.9246,
      "duration": 0.0061,
      "velocity": 77,
      "chip": "ym2612"
    },
    {
      "channel": 3,
      "note": 96,
      "start": 12.9248,
      "duration": 0.0059,
      "velocity": 77,
      "chip": "ym2612"
    },
    {
      "channel": 4,
      "note": 72,
      "start": 12.925,
      "duration": 0.0058,
      "velocity": 94,
      "chip": "ym2612"
    },
    {
      "channel": 0,
      "note": 88,
      "start": 12.9343,
      "duration": 0.0218,
      "velocity": 98,
      "chip": "ym2612"
    },
    {
      "channel": 2,
      "note": 91,
      "start": 12.9345,
      "duration": 0.0019,
      "velocity": 77,
      "chip": "ym2612"
    },
    {
      "channel": 3,
      "note": 94,
      "start": 12.9347,
      "duration": 0.0017,
      "velocity": 77,
      "chip": "ym2612"
    },
    {
      "channel": 4,
      "note": 72,
      "start": 12.9349,
      "duration": 0.0016,
      "velocity": 94,
      "chip": "ym2612"
    },
    {
      "channel": 0,
      "note": 87,
      "start": 13.0062,
      "duration": 0.0819,
      "velocity": 98,
      "chip": "ym2612"
    },
    {
      "channel": 1,
      "note": 88,
      "start": 13.0065,
      "duration": 0.083,
      "velocity": 98,
      "chip": "ym2612"
    },
    {
      "channel": 2,
      "note": 88,
      "start": 13.0067,
      "duration": 0.0778,
      "velocity": 77,
      "chip": "ym2612"
    },
    {
      "channel": 3,
      "note": 79,
      "start": 13.0069,
      "duration": 0.0776,
      "velocity": 77,
      "chip": "ym2612"
    },
    {
      "channel": 4,
      "note": 60,
      "start": 13.0071,
      "duration": 0.0774,
      "velocity": 94,
      "chip": "ym2612"
    },
    {
      "channel": 0,
      "note": 88,
      "start": 13.0881,
      "duration": 0.0012,
      "velocity": 98,
      "chip": "ym2612"
    },
    {
      "channel": 2,
      "note": 68,
      "start": 13.1215,
      "duration": 0.0558,
      "velocity": 77,
      "chip": "ym2612"
    },
    {
      "channel": 3,
      "note": 77,
      "start": 13.1218,
      "duration": 0.0556,
      "velocity": 77,
      "chip": "ym2612"
    },
    {
      "channel": 4,
      "note": 53,
      "start": 13.122,
      "duration": 0.0554,
      "velocity": 94,
      "chip": "ym2612"
    },
    {
      "channel": 2,
      "note": 84,
      "start": 13.2608,
      "duration": 0.0883,
      "velocity": 77,
      "chip": "ym2612"
    },
    {
      "channel": 3,
      "note": 89,
      "start": 13.261,
      "duration": 0.0882,
      "velocity": 77,
      "chip": "ym2612"
    },
    {
      "channel": 4,
      "note": 65,
      "start": 13.2612,
      "duration": 0.0881,
      "velocity": 94,
      "chip": "ym2612"
    }
  ]
}